0, 0, Header, 1, 15, 120
1, 0, Start_track
1, 0, Sequencer_specific, 10, 0, 0, 91, 35, 1, 0, 5, 4, 35, 0
1, 0, Title_t, "BOBBY BROWN GOES DOWN"
1, 0, Instrument_name_t, "By Frank Zappa"
1, 0, SMPTE_offset, 96, 0, 3, 0, 0
1, 0, MIDI_port, 0
1, 0, Tempo, 387096
1, 0, Key_signature, 2, "major"
1, 0, Time_signature, 4, 2, 24, 8
1, 0, Text_t, "BOBBY BROWN GOES DOWN by the Malice Laugh Virtual Jazz Band"
1, 20160, Time_signature, 7, 2, 24, 8
1, 21000, Time_signature, 4, 2, 24, 8
1, 33480, Key_signature, -2, "major"
1, 37320, Key_signature, 2, "major"
1, 43080, Key_signature, -3, "major"
1, 46920, Key_signature, 6, "major"
1, 69960, Key_signature, 2, "major"
1, 73800, Key_signature, 6, "major"
1, 73800, End_track
2, 0, Start_track
2, 0, Title_t, "sax I"
2, 0, MIDI_port, 0
2, 0, Program_c, 1, 65
2, 2, Control_c, 1, 10, 47
2, 3, Control_c, 1, 7, 127
2, 20, Control_c, 1, 91, 63
2, 551, Note_on_c, 1, 66, 110
2, 580, Note_on_c, 1, 68, 127
2, 589, Note_on_c, 1, 66, 0
2, 666, Note_on_c, 1, 70, 103
2, 673, Note_on_c, 1, 68, 0
2, 709, Note_on_c, 1, 72, 127
2, 713, Note_on_c, 1, 70, 0
2, 837, Note_on_c, 1, 74, 97
2, 838, Note_on_c, 1, 72, 0
2, 877, Note_on_c, 1, 74, 0
2, 959, Note_on_c, 1, 76, 127
2, 1035, Note_on_c, 1, 76, 0
2, 1039, Note_on_c, 1, 78, 127
2, 1094, Note_on_c, 1, 78, 0
2, 1156, Note_on_c, 1, 79, 127
2, 1192, Note_on_c, 1, 79, 0
2, 1312, Note_on_c, 1, 79, 127
2, 1334, Pitch_bend_c, 1, 8328
2, 1335, Pitch_bend_c, 1, 9011
2, 1337, Pitch_bend_c, 1, 9967
2, 1338, Pitch_bend_c, 1, 10581
2, 1339, Pitch_bend_c, 1, 10809
2, 1340, Pitch_bend_c, 1, 11059
2, 1341, Pitch_bend_c, 1, 11332
2, 1342, Pitch_bend_c, 1, 11878
2, 1343, Pitch_bend_c, 1, 12015
2, 1345, Pitch_bend_c, 1, 12697
2, 1345, Pitch_bend_c, 1, 12424
2, 1346, Pitch_bend_c, 1, 12971
2, 1348, Pitch_bend_c, 1, 13312
2, 1349, Pitch_bend_c, 1, 13426
2, 1351, Pitch_bend_c, 1, 13540
2, 1351, Pitch_bend_c, 1, 13926
2, 1353, Pitch_bend_c, 1, 14063
2, 1355, Pitch_bend_c, 1, 14336
2, 1356, Pitch_bend_c, 1, 14472
2, 1357, Pitch_bend_c, 1, 14882
2, 1359, Pitch_bend_c, 1, 15019
2, 1361, Pitch_bend_c, 1, 15155
2, 1363, Pitch_bend_c, 1, 15565
2, 1365, Pitch_bend_c, 1, 15702
2, 1367, Pitch_bend_c, 1, 15929
2, 1368, Pitch_bend_c, 1, 16042
2, 1370, Pitch_bend_c, 1, 16269
2, 1372, Pitch_bend_c, 1, 16383
2, 1919, Note_on_c, 1, 79, 0
2, 2163, Pitch_bend_c, 1, 8192
2, 14890, Note_on_c, 1, 66, 103
2, 14949, Note_on_c, 1, 66, 0
2, 14960, Note_on_c, 1, 69, 103
2, 14996, Note_on_c, 1, 69, 0
2, 15010, Note_on_c, 1, 66, 107
2, 15031, Note_on_c, 1, 66, 0
2, 15077, Note_on_c, 1, 69, 107
2, 15207, Note_on_c, 1, 66, 103
2, 15211, Note_on_c, 1, 69, 0
2, 15228, Note_on_c, 1, 66, 0
2, 15251, Note_on_c, 1, 69, 100
2, 15276, Note_on_c, 1, 69, 0
2, 15317, Note_on_c, 1, 71, 107
2, 15421, Note_on_c, 1, 69, 103
2, 15432, Note_on_c, 1, 71, 0
2, 15449, Note_on_c, 1, 69, 0
2, 15454, Note_on_c, 1, 66, 87
2, 15484, Note_on_c, 1, 69, 107
2, 15498, Note_on_c, 1, 66, 0
2, 15721, Note_on_c, 1, 66, 107
2, 15728, Note_on_c, 1, 69, 0
2, 15745, Note_on_c, 1, 66, 0
2, 15788, Note_on_c, 1, 66, 93
2, 15806, Note_on_c, 1, 66, 0
2, 15834, Note_on_c, 1, 67, 107
2, 15907, Note_on_c, 1, 67, 0
2, 15953, Note_on_c, 1, 66, 107
2, 16030, Note_on_c, 1, 66, 0
2, 16075, Note_on_c, 1, 64, 103
2, 16164, Note_on_c, 1, 62, 107
2, 16184, Note_on_c, 1, 64, 0
2, 16212, Note_on_c, 1, 62, 0
2, 16285, Note_on_c, 1, 64, 107
2, 16353, Control_c, 1, 11, 126
2, 16368, Control_c, 1, 11, 123
2, 16383, Control_c, 1, 11, 121
2, 16399, Control_c, 1, 11, 118
2, 16414, Control_c, 1, 11, 116
2, 16429, Control_c, 1, 11, 113
2, 16444, Control_c, 1, 11, 111
2, 16459, Control_c, 1, 11, 108
2, 16475, Control_c, 1, 11, 106
2, 16490, Control_c, 1, 11, 103
2, 16505, Control_c, 1, 11, 101
2, 16520, Control_c, 1, 11, 98
2, 16535, Control_c, 1, 11, 96
2, 16551, Control_c, 1, 11, 93
2, 16566, Control_c, 1, 11, 91
2, 16581, Control_c, 1, 11, 88
2, 16596, Control_c, 1, 11, 86
2, 16612, Control_c, 1, 11, 83
2, 16627, Control_c, 1, 11, 81
2, 16642, Control_c, 1, 11, 78
2, 16657, Control_c, 1, 11, 76
2, 16672, Control_c, 1, 11, 73
2, 16688, Control_c, 1, 11, 71
2, 16703, Control_c, 1, 11, 68
2, 16718, Control_c, 1, 11, 66
2, 16733, Control_c, 1, 11, 63
2, 16748, Control_c, 1, 11, 61
2, 16764, Control_c, 1, 11, 58
2, 16779, Control_c, 1, 11, 56
2, 16800, Note_on_c, 1, 64, 0
2, 16867, Control_c, 1, 11, 127
2, 16877, Note_on_c, 1, 66, 103
2, 16922, Note_on_c, 1, 68, 122
2, 16925, Note_on_c, 1, 66, 0
2, 17003, Note_on_c, 1, 70, 85
2, 17017, Note_on_c, 1, 68, 0
2, 17051, Note_on_c, 1, 70, 0
2, 17051, Note_on_c, 1, 72, 127
2, 17160, Note_on_c, 1, 72, 0
2, 17170, Note_on_c, 1, 74, 106
2, 17211, Note_on_c, 1, 74, 0
2, 17299, Note_on_c, 1, 76, 106
2, 17370, Note_on_c, 1, 76, 0
2, 17374, Note_on_c, 1, 78, 110
2, 17416, Note_on_c, 1, 78, 0
2, 17487, Note_on_c, 1, 79, 127
2, 17515, Note_on_c, 1, 79, 0
2, 17644, Note_on_c, 1, 79, 122
2, 17662, Pitch_bend_c, 1, 8328
2, 17663, Pitch_bend_c, 1, 9011
2, 17665, Pitch_bend_c, 1, 9967
2, 17666, Pitch_bend_c, 1, 10581
2, 17668, Pitch_bend_c, 1, 11059
2, 17670, Pitch_bend_c, 1, 11606
2, 17671, Pitch_bend_c, 1, 12151
2, 17672, Pitch_bend_c, 1, 12697
2, 17674, Pitch_bend_c, 1, 13312
2, 17675, Pitch_bend_c, 1, 13790
2, 17677, Pitch_bend_c, 1, 13926
2, 17678, Pitch_bend_c, 1, 14336
2, 17680, Pitch_bend_c, 1, 14745
2, 17681, Pitch_bend_c, 1, 15019
2, 17683, Pitch_bend_c, 1, 15428
2, 17684, Pitch_bend_c, 1, 15565
2, 17686, Pitch_bend_c, 1, 15702
2, 17688, Pitch_bend_c, 1, 16042
2, 17689, Pitch_bend_c, 1, 16156
2, 17691, Pitch_bend_c, 1, 16383
2, 18219, Note_on_c, 1, 79, 0
2, 18391, Pitch_bend_c, 1, 8192
2, 20994, Control_c, 1, 11, 112
2, 20995, Note_on_c, 1, 71, 127
2, 21064, Note_on_c, 1, 71, 0
2, 21066, Note_on_c, 1, 69, 127
2, 21126, Note_on_c, 1, 69, 0
2, 21240, Note_on_c, 1, 66, 110
2, 21290, Note_on_c, 1, 66, 0
2, 21362, Note_on_c, 1, 62, 103
2, 21434, Note_on_c, 1, 62, 0
2, 21434, Note_on_c, 1, 64, 110
2, 21492, Control_c, 1, 1, 0
2, 21493, Note_on_c, 1, 64, 0
2, 21556, Note_on_c, 1, 66, 127
2, 21560, Control_c, 1, 1, 11
2, 21576, Control_c, 1, 1, 23
2, 21593, Control_c, 1, 1, 34
2, 21610, Control_c, 1, 1, 46
2, 21627, Control_c, 1, 1, 57
2, 21643, Control_c, 1, 1, 69
2, 21660, Control_c, 1, 1, 80
2, 21738, Note_on_c, 1, 66, 0
2, 21773, Control_c, 1, 1, 0
2, 21797, Pitch_bend_c, 1, 4153
2, 21797, Note_on_c, 1, 66, 127
2, 21812, Pitch_bend_c, 1, 6173
2, 21827, Pitch_bend_c, 1, 8192
2, 21953, Note_on_c, 1, 66, 0
2, 21960, Note_on_c, 1, 64, 127
2, 22035, Note_on_c, 1, 64, 0
2, 22035, Note_on_c, 1, 62, 100
2, 22049, Note_on_c, 1, 62, 0
2, 22084, Note_on_c, 1, 62, 127
2, 22152, Note_on_c, 1, 59, 80
2, 22155, Note_on_c, 1, 62, 0
2, 22200, Note_on_c, 1, 59, 0
2, 22202, Note_on_c, 1, 62, 122
2, 22245, Note_on_c, 1, 62, 0
2, 22322, Note_on_c, 1, 66, 127
2, 22398, Note_on_c, 1, 66, 0
2, 22402, Note_on_c, 1, 64, 127
2, 22449, Note_on_c, 1, 64, 0
2, 22515, Note_on_c, 1, 62, 127
2, 22520, Control_c, 1, 1, 11
2, 22536, Control_c, 1, 1, 23
2, 22553, Control_c, 1, 1, 34
2, 22570, Control_c, 1, 1, 46
2, 22587, Control_c, 1, 1, 57
2, 22603, Control_c, 1, 1, 69
2, 22780, Note_on_c, 1, 62, 0
2, 22845, Control_c, 1, 1, 0
2, 22877, Note_on_c, 1, 62, 113
2, 22919, Note_on_c, 1, 62, 0
2, 22925, Note_on_c, 1, 64, 127
2, 22967, Note_on_c, 1, 64, 0
2, 23007, Note_on_c, 1, 64, 127
2, 23049, Note_on_c, 1, 64, 0
2, 23126, Note_on_c, 1, 64, 127
2, 23172, Note_on_c, 1, 64, 0
2, 23346, Note_on_c, 1, 62, 70
2, 23400, Note_on_c, 1, 64, 118
2, 23407, Note_on_c, 1, 62, 0
2, 23449, Note_on_c, 1, 64, 0
2, 23481, Note_on_c, 1, 64, 127
2, 23521, Note_on_c, 1, 64, 0
2, 23596, Note_on_c, 1, 64, 127
2, 23645, Note_on_c, 1, 64, 0
2, 23717, Note_on_c, 1, 62, 87
2, 23733, Note_on_c, 1, 62, 0
2, 23757, Note_on_c, 1, 62, 118
2, 23779, Note_on_c, 1, 62, 0
2, 23832, Note_on_c, 1, 62, 84
2, 23877, Note_on_c, 1, 62, 0
2, 23880, Note_on_c, 1, 65, 127
2, 23885, Note_on_c, 1, 66, 113
2, 23886, Note_on_c, 1, 65, 0
2, 23953, Note_on_c, 1, 66, 0
2, 23958, Note_on_c, 1, 69, 127
2, 23994, Note_on_c, 1, 69, 0
2, 24075, Note_on_c, 1, 69, 127
2, 24199, Note_on_c, 1, 66, 85
2, 24201, Note_on_c, 1, 69, 0
2, 24237, Note_on_c, 1, 66, 0
2, 24240, Note_on_c, 1, 69, 122
2, 24304, Note_on_c, 1, 66, 78
2, 24308, Note_on_c, 1, 69, 0
2, 24320, Note_on_c, 1, 66, 0
2, 24339, Control_c, 1, 11, 111
2, 24355, Control_c, 1, 11, 114
2, 24360, Note_on_c, 1, 69, 127
2, 24371, Control_c, 1, 11, 117
2, 24375, Pitch_bend_c, 1, 8328
2, 24376, Pitch_bend_c, 1, 9011
2, 24377, Pitch_bend_c, 1, 9967
2, 24378, Pitch_bend_c, 1, 10695
2, 24379, Pitch_bend_c, 1, 11059
2, 24380, Pitch_bend_c, 1, 11469
2, 24381, Pitch_bend_c, 1, 11878
2, 24382, Pitch_bend_c, 1, 12424
2, 24383, Pitch_bend_c, 1, 12971
2, 24384, Pitch_bend_c, 1, 13312
2, 24384, Pitch_bend_c, 1, 13540
2, 24385, Pitch_bend_c, 1, 13926
2, 24386, Pitch_bend_c, 1, 14063
2, 24387, Pitch_bend_c, 1, 14745
2, 24388, Control_c, 1, 11, 121
2, 24388, Pitch_bend_c, 1, 14882
2, 24389, Pitch_bend_c, 1, 15155
2, 24390, Pitch_bend_c, 1, 15428
2, 24391, Pitch_bend_c, 1, 15565
2, 24392, Pitch_bend_c, 1, 15702
2, 24395, Pitch_bend_c, 1, 15929
2, 24402, Control_c, 1, 11, 124
2, 24406, Control_c, 1, 11, 125
2, 24408, Control_c, 1, 11, 127
2, 24428, Pitch_bend_c, 1, 15702
2, 24430, Pitch_bend_c, 1, 15565
2, 24432, Pitch_bend_c, 1, 15428
2, 24433, Pitch_bend_c, 1, 15155
2, 24435, Pitch_bend_c, 1, 14882
2, 24436, Pitch_bend_c, 1, 14472
2, 24437, Pitch_bend_c, 1, 14336
2, 24438, Pitch_bend_c, 1, 14063
2, 24439, Pitch_bend_c, 1, 13926
2, 24440, Pitch_bend_c, 1, 13790
2, 24441, Pitch_bend_c, 1, 13426
2, 24442, Pitch_bend_c, 1, 13084
2, 24443, Pitch_bend_c, 1, 12971
2, 24444, Pitch_bend_c, 1, 12561
2, 24445, Pitch_bend_c, 1, 12424
2, 24446, Pitch_bend_c, 1, 12151
2, 24447, Pitch_bend_c, 1, 12015
2, 24448, Pitch_bend_c, 1, 11878
2, 24450, Pitch_bend_c, 1, 11606
2, 24451, Pitch_bend_c, 1, 11332
2, 24452, Pitch_bend_c, 1, 11196
2, 24453, Pitch_bend_c, 1, 10923
2, 24453, Pitch_bend_c, 1, 10695
2, 24454, Pitch_bend_c, 1, 10581
2, 24455, Pitch_bend_c, 1, 10240
2, 24456, Pitch_bend_c, 1, 9830
2, 24457, Pitch_bend_c, 1, 9284
2, 24458, Pitch_bend_c, 1, 8738
2, 24459, Pitch_bend_c, 1, 8465
2, 24460, Pitch_bend_c, 1, 8192
2, 24468, Control_c, 1, 11, 127
2, 24481, Note_on_c, 1, 69, 0
2, 24484, Control_c, 1, 11, 126
2, 24485, Note_on_c, 1, 66, 90
2, 24499, Control_c, 1, 11, 124
2, 24515, Control_c, 1, 11, 123
2, 24530, Control_c, 1, 11, 121
2, 24546, Control_c, 1, 11, 120
2, 24559, Note_on_c, 1, 71, 127
2, 24562, Note_on_c, 1, 66, 0
2, 24616, Note_on_c, 1, 71, 0
2, 24678, Note_on_c, 1, 69, 127
2, 24729, Note_on_c, 1, 69, 0
2, 24796, Note_on_c, 1, 71, 127
2, 24837, Note_on_c, 1, 71, 0
2, 24912, Note_on_c, 1, 66, 127
2, 25068, Note_on_c, 1, 66, 0
2, 25076, Note_on_c, 1, 64, 127
2, 25148, Note_on_c, 1, 64, 0
2, 25149, Note_on_c, 1, 62, 94
2, 25196, Note_on_c, 1, 62, 0
2, 25197, Note_on_c, 1, 71, 113
2, 25265, Note_on_c, 1, 71, 0
2, 25318, Note_on_c, 1, 66, 113
2, 25318, Pitch_bend_c, 1, 4153
2, 25329, Control_c, 1, 1, 0
2, 25333, Pitch_bend_c, 1, 6173
2, 25348, Pitch_bend_c, 1, 8192
2, 25397, Control_c, 1, 1, 11
2, 25413, Control_c, 1, 1, 23
2, 25430, Control_c, 1, 1, 34
2, 25447, Control_c, 1, 1, 46
2, 25464, Control_c, 1, 1, 57
2, 25480, Control_c, 1, 1, 69
2, 25497, Control_c, 1, 1, 80
2, 25580, Note_on_c, 1, 66, 0
2, 25610, Control_c, 1, 1, 0
2, 25642, Note_on_c, 1, 66, 127
2, 25679, Note_on_c, 1, 64, 127
2, 25680, Note_on_c, 1, 66, 0
2, 25754, Note_on_c, 1, 64, 0
2, 25759, Note_on_c, 1, 62, 87
2, 25772, Note_on_c, 1, 62, 0
2, 25804, Note_on_c, 1, 64, 127
2, 25922, Note_on_c, 1, 64, 0
2, 25922, Note_on_c, 1, 62, 100
2, 25941, Note_on_c, 1, 62, 0
2, 26003, Note_on_c, 1, 62, 127
2, 26028, Note_on_c, 1, 62, 0
2, 26109, Note_on_c, 1, 62, 103
2, 26149, Note_on_c, 1, 62, 0
2, 26159, Note_on_c, 1, 66, 127
2, 26280, Note_on_c, 1, 64, 127
2, 26283, Note_on_c, 1, 66, 0
2, 26312, Note_on_c, 1, 64, 0
2, 26317, Note_on_c, 1, 62, 110
2, 26349, Note_on_c, 1, 62, 0
2, 26352, Note_on_c, 1, 59, 76
2, 26400, Note_on_c, 1, 59, 0
2, 26596, Note_on_c, 1, 64, 127
2, 26634, Note_on_c, 1, 64, 0
2, 26639, Note_on_c, 1, 64, 113
2, 26697, Note_on_c, 1, 64, 0
2, 26711, Note_on_c, 1, 62, 82
2, 26734, Note_on_c, 1, 62, 0
2, 26758, Note_on_c, 1, 64, 127
2, 26827, Note_on_c, 1, 64, 0
2, 26884, Note_on_c, 1, 64, 127
2, 26963, Note_on_c, 1, 64, 0
2, 26964, Note_on_c, 1, 62, 100
2, 26991, Note_on_c, 1, 62, 0
2, 27003, Note_on_c, 1, 64, 127
2, 27065, Note_on_c, 1, 64, 0
2, 27120, Note_on_c, 1, 64, 127
2, 27194, Note_on_c, 1, 62, 68
2, 27196, Note_on_c, 1, 64, 0
2, 27239, Note_on_c, 1, 62, 0
2, 27241, Note_on_c, 1, 64, 127
2, 27284, Note_on_c, 1, 64, 0
2, 27320, Note_on_c, 1, 64, 127
2, 27364, Note_on_c, 1, 64, 0
2, 27438, Note_on_c, 1, 64, 127
2, 27485, Note_on_c, 1, 64, 0
2, 27563, Note_on_c, 1, 62, 100
2, 27580, Note_on_c, 1, 62, 0
2, 27604, Note_on_c, 1, 62, 110
2, 27628, Note_on_c, 1, 62, 0
2, 27679, Note_on_c, 1, 62, 100
2, 27725, Note_on_c, 1, 62, 0
2, 27726, Note_on_c, 1, 65, 127
2, 27732, Note_on_c, 1, 65, 0
2, 27732, Note_on_c, 1, 66, 127
2, 27796, Note_on_c, 1, 66, 0
2, 27802, Note_on_c, 1, 69, 127
2, 27837, Note_on_c, 1, 69, 0
2, 27917, Note_on_c, 1, 69, 127
2, 28033, Note_on_c, 1, 66, 67
2, 28036, Note_on_c, 1, 69, 0
2, 28070, Note_on_c, 1, 66, 0
2, 28077, Note_on_c, 1, 69, 127
2, 28153, Note_on_c, 1, 66, 78
2, 28157, Note_on_c, 1, 69, 0
2, 28164, Note_on_c, 1, 66, 0
2, 28173, Control_c, 1, 11, 119
2, 28188, Control_c, 1, 11, 121
2, 28198, Note_on_c, 1, 69, 127
2, 28203, Control_c, 1, 11, 123
2, 28211, Pitch_bend_c, 1, 8328
2, 28212, Pitch_bend_c, 1, 9284
2, 28213, Pitch_bend_c, 1, 10353
2, 28214, Pitch_bend_c, 1, 11606
2, 28215, Pitch_bend_c, 1, 12424
2, 28216, Pitch_bend_c, 1, 13312
2, 28217, Pitch_bend_c, 1, 13926
2, 28217, Pitch_bend_c, 1, 14882
2, 28218, Control_c, 1, 11, 124
2, 28219, Pitch_bend_c, 1, 15565
2, 28219, Pitch_bend_c, 1, 16042
2, 28221, Pitch_bend_c, 1, 16383
2, 28223, Control_c, 1, 11, 125
2, 28227, Control_c, 1, 11, 126
2, 28230, Control_c, 1, 11, 126
2, 28248, Control_c, 1, 11, 127
2, 28281, Pitch_bend_c, 1, 16269
2, 28282, Pitch_bend_c, 1, 16042
2, 28283, Pitch_bend_c, 1, 15702
2, 28285, Pitch_bend_c, 1, 15565
2, 28285, Pitch_bend_c, 1, 15155
2, 28286, Pitch_bend_c, 1, 15019
2, 28287, Pitch_bend_c, 1, 14882
2, 28288, Pitch_bend_c, 1, 14472
2, 28289, Pitch_bend_c, 1, 14063
2, 28290, Pitch_bend_c, 1, 13926
2, 28291, Pitch_bend_c, 1, 13540
2, 28292, Pitch_bend_c, 1, 13084
2, 28293, Pitch_bend_c, 1, 12971
2, 28294, Pitch_bend_c, 1, 12424
2, 28295, Pitch_bend_c, 1, 12015
2, 28296, Pitch_bend_c, 1, 11469
2, 28297, Pitch_bend_c, 1, 11059
2, 28298, Pitch_bend_c, 1, 10240
2, 28298, Pitch_bend_c, 1, 10695
2, 28299, Pitch_bend_c, 1, 9284
2, 28300, Pitch_bend_c, 1, 8465
2, 28301, Pitch_bend_c, 1, 8192
2, 28308, Control_c, 1, 11, 126
2, 28324, Note_on_c, 1, 66, 100
2, 28325, Note_on_c, 1, 69, 0
2, 28329, Control_c, 1, 11, 125
2, 28350, Control_c, 1, 11, 124
2, 28371, Control_c, 1, 11, 123
2, 28389, Note_on_c, 1, 66, 0
2, 28393, Note_on_c, 1, 69, 127
2, 28442, Note_on_c, 1, 69, 0
2, 28559, Note_on_c, 1, 66, 127
2, 28609, Note_on_c, 1, 66, 0
2, 28680, Control_c, 1, 11, 127
2, 29650, Note_on_c, 1, 66, 103
2, 29709, Note_on_c, 1, 66, 0
2, 29720, Note_on_c, 1, 69, 103
2, 29756, Note_on_c, 1, 69, 0
2, 29770, Note_on_c, 1, 66, 107
2, 29791, Note_on_c, 1, 66, 0
2, 29837, Note_on_c, 1, 69, 107
2, 29967, Note_on_c, 1, 66, 103
2, 29971, Note_on_c, 1, 69, 0
2, 29988, Note_on_c, 1, 66, 0
2, 30011, Note_on_c, 1, 69, 100
2, 30036, Note_on_c, 1, 69, 0
2, 30077, Note_on_c, 1, 71, 107
2, 30181, Note_on_c, 1, 69, 103
2, 30192, Note_on_c, 1, 71, 0
2, 30209, Note_on_c, 1, 69, 0
2, 30214, Note_on_c, 1, 66, 87
2, 30244, Note_on_c, 1, 69, 107
2, 30258, Note_on_c, 1, 66, 0
2, 30481, Note_on_c, 1, 66, 107
2, 30488, Note_on_c, 1, 69, 0
2, 30505, Note_on_c, 1, 66, 0
2, 30548, Note_on_c, 1, 66, 93
2, 30566, Note_on_c, 1, 66, 0
2, 30594, Note_on_c, 1, 67, 107
2, 30667, Note_on_c, 1, 67, 0
2, 30713, Note_on_c, 1, 66, 107
2, 30790, Note_on_c, 1, 66, 0
2, 30835, Note_on_c, 1, 64, 103
2, 30924, Note_on_c, 1, 62, 107
2, 30944, Note_on_c, 1, 64, 0
2, 30972, Note_on_c, 1, 62, 0
2, 31045, Note_on_c, 1, 64, 107
2, 31113, Control_c, 1, 11, 126
2, 31128, Control_c, 1, 11, 123
2, 31143, Control_c, 1, 11, 121
2, 31159, Control_c, 1, 11, 118
2, 31174, Control_c, 1, 11, 116
2, 31189, Control_c, 1, 11, 113
2, 31204, Control_c, 1, 11, 111
2, 31219, Control_c, 1, 11, 108
2, 31235, Control_c, 1, 11, 106
2, 31250, Control_c, 1, 11, 103
2, 31265, Control_c, 1, 11, 101
2, 31280, Control_c, 1, 11, 98
2, 31295, Control_c, 1, 11, 96
2, 31311, Control_c, 1, 11, 93
2, 31326, Control_c, 1, 11, 91
2, 31341, Control_c, 1, 11, 88
2, 31356, Control_c, 1, 11, 86
2, 31372, Control_c, 1, 11, 83
2, 31387, Control_c, 1, 11, 81
2, 31402, Control_c, 1, 11, 78
2, 31417, Control_c, 1, 11, 76
2, 31432, Control_c, 1, 11, 73
2, 31448, Control_c, 1, 11, 71
2, 31463, Control_c, 1, 11, 68
2, 31478, Control_c, 1, 11, 66
2, 31493, Control_c, 1, 11, 63
2, 31508, Control_c, 1, 11, 61
2, 31524, Control_c, 1, 11, 58
2, 31539, Control_c, 1, 11, 56
2, 31560, Note_on_c, 1, 64, 0
2, 31621, Control_c, 1, 11, 127
2, 31631, Note_on_c, 1, 66, 110
2, 31660, Note_on_c, 1, 68, 127
2, 31669, Note_on_c, 1, 66, 0
2, 31746, Note_on_c, 1, 70, 103
2, 31753, Note_on_c, 1, 68, 0
2, 31789, Note_on_c, 1, 72, 127
2, 31793, Note_on_c, 1, 70, 0
2, 31917, Note_on_c, 1, 74, 97
2, 31918, Note_on_c, 1, 72, 0
2, 31957, Note_on_c, 1, 74, 0
2, 32039, Note_on_c, 1, 76, 127
2, 32115, Note_on_c, 1, 76, 0
2, 32119, Note_on_c, 1, 78, 127
2, 32174, Note_on_c, 1, 78, 0
2, 32236, Note_on_c, 1, 79, 127
2, 32272, Note_on_c, 1, 79, 0
2, 32392, Note_on_c, 1, 79, 127
2, 32414, Pitch_bend_c, 1, 8328
2, 32415, Pitch_bend_c, 1, 9011
2, 32417, Pitch_bend_c, 1, 9967
2, 32418, Pitch_bend_c, 1, 10581
2, 32419, Pitch_bend_c, 1, 10809
2, 32420, Pitch_bend_c, 1, 11059
2, 32421, Pitch_bend_c, 1, 11332
2, 32422, Pitch_bend_c, 1, 11878
2, 32423, Pitch_bend_c, 1, 12015
2, 32425, Pitch_bend_c, 1, 12697
2, 32425, Pitch_bend_c, 1, 12424
2, 32426, Pitch_bend_c, 1, 12971
2, 32428, Pitch_bend_c, 1, 13312
2, 32429, Pitch_bend_c, 1, 13426
2, 32431, Pitch_bend_c, 1, 13926
2, 32431, Pitch_bend_c, 1, 13540
2, 32433, Pitch_bend_c, 1, 14063
2, 32435, Pitch_bend_c, 1, 14336
2, 32436, Pitch_bend_c, 1, 14472
2, 32437, Pitch_bend_c, 1, 14882
2, 32439, Pitch_bend_c, 1, 15019
2, 32441, Pitch_bend_c, 1, 15155
2, 32443, Pitch_bend_c, 1, 15565
2, 32445, Pitch_bend_c, 1, 15702
2, 32447, Pitch_bend_c, 1, 15929
2, 32448, Pitch_bend_c, 1, 16042
2, 32450, Pitch_bend_c, 1, 16269
2, 32452, Pitch_bend_c, 1, 16383
2, 32999, Note_on_c, 1, 79, 0
2, 33480, Pitch_bend_c, 1, 8192
2, 42102, Note_on_c, 1, 57, 78
2, 42130, Note_on_c, 1, 62, 113
2, 42134, Note_on_c, 1, 57, 0
2, 42158, Note_on_c, 1, 67, 103
2, 42162, Note_on_c, 1, 62, 0
2, 42187, Note_on_c, 1, 72, 80
2, 42190, Note_on_c, 1, 67, 0
2, 42214, Note_on_c, 1, 77, 106
2, 42218, Note_on_c, 1, 72, 0
2, 42242, Note_on_c, 1, 76, 110
2, 42246, Note_on_c, 1, 77, 0
2, 42271, Note_on_c, 1, 75, 106
2, 42275, Note_on_c, 1, 76, 0
2, 42299, Note_on_c, 1, 74, 80
2, 42303, Note_on_c, 1, 75, 0
2, 42327, Note_on_c, 1, 73, 118
2, 42331, Note_on_c, 1, 74, 0
2, 42354, Note_on_c, 1, 68, 103
2, 42358, Note_on_c, 1, 73, 0
2, 42383, Note_on_c, 1, 69, 82
2, 42386, Note_on_c, 1, 68, 0
2, 42410, Note_on_c, 1, 70, 106
2, 42414, Note_on_c, 1, 69, 0
2, 42439, Note_on_c, 1, 71, 94
2, 42443, Note_on_c, 1, 70, 0
2, 42467, Note_on_c, 1, 65, 67
2, 42471, Note_on_c, 1, 71, 0
2, 42495, Note_on_c, 1, 64, 77
2, 42499, Note_on_c, 1, 65, 0
2, 42523, Note_on_c, 1, 63, 82
2, 42527, Note_on_c, 1, 64, 0
2, 42552, Note_on_c, 1, 63, 0
2, 42552, Note_on_c, 1, 62, 76
2, 42580, Note_on_c, 1, 67, 76
2, 42584, Note_on_c, 1, 62, 0
2, 42608, Note_on_c, 1, 68, 118
2, 42612, Note_on_c, 1, 67, 0
2, 42636, Note_on_c, 1, 69, 90
2, 42640, Note_on_c, 1, 68, 0
2, 42664, Note_on_c, 1, 70, 113
2, 42668, Note_on_c, 1, 69, 0
2, 42692, Note_on_c, 1, 60, 92
2, 42696, Note_on_c, 1, 70, 0
2, 42720, Note_on_c, 1, 59, 73
2, 42724, Note_on_c, 1, 60, 0
2, 42748, Note_on_c, 1, 58, 103
2, 42752, Note_on_c, 1, 59, 0
2, 42776, Note_on_c, 1, 57, 84
2, 42780, Note_on_c, 1, 58, 0
2, 42805, Note_on_c, 1, 65, 97
2, 42808, Note_on_c, 1, 57, 0
2, 42833, Note_on_c, 1, 61, 90
2, 42836, Note_on_c, 1, 65, 0
2, 43001, Note_on_c, 1, 61, 0
2, 43001, Note_on_c, 1, 62, 97
2, 43029, Note_on_c, 1, 62, 0
2, 43029, Note_on_c, 1, 61, 103
2, 43057, Note_on_c, 1, 61, 0
2, 43057, Note_on_c, 1, 60, 73
2, 43085, Note_on_c, 1, 60, 0
2, 43085, Note_on_c, 1, 61, 87
2, 43113, Note_on_c, 1, 61, 0
2, 43150, Note_on_c, 1, 67, 127
2, 43153, Note_on_c, 1, 55, 127
2, 43167, Note_on_c, 1, 67, 0
2, 43170, Note_on_c, 1, 55, 0
2, 43192, Note_on_c, 1, 55, 127
2, 43194, Note_on_c, 1, 67, 127
2, 43239, Note_on_c, 1, 55, 0
2, 43241, Note_on_c, 1, 67, 0
2, 43325, Note_on_c, 1, 55, 127
2, 43326, Note_on_c, 1, 67, 127
2, 43353, Note_on_c, 1, 55, 0
2, 43358, Note_on_c, 1, 67, 0
2, 43436, Note_on_c, 1, 55, 120
2, 43437, Note_on_c, 1, 67, 127
2, 43470, Note_on_c, 1, 55, 0
2, 43472, Note_on_c, 1, 67, 0
2, 43515, Note_on_c, 1, 55, 127
2, 43518, Note_on_c, 1, 67, 127
2, 43562, Note_on_c, 1, 65, 127
2, 43563, Note_on_c, 1, 53, 127
2, 43567, Note_on_c, 1, 55, 0
2, 43569, Note_on_c, 1, 67, 0
2, 43635, Note_on_c, 1, 53, 0
2, 43639, Note_on_c, 1, 51, 127
2, 43640, Note_on_c, 1, 63, 127
2, 43646, Note_on_c, 1, 65, 0
2, 43679, Note_on_c, 1, 63, 0
2, 43681, Note_on_c, 1, 51, 0
2, 43761, Note_on_c, 1, 67, 127
2, 43762, Note_on_c, 1, 55, 127
2, 43797, Note_on_c, 1, 67, 0
2, 43797, Note_on_c, 1, 55, 0
2, 44000, Note_on_c, 1, 60, 127
2, 44001, Note_on_c, 1, 48, 114
2, 44030, Note_on_c, 1, 48, 0
2, 44035, Note_on_c, 1, 60, 0
2, 44400, Note_on_c, 1, 60, 127
2, 44401, Note_on_c, 1, 48, 124
2, 44472, Note_on_c, 1, 48, 0
2, 44475, Note_on_c, 1, 60, 0
2, 44480, Note_on_c, 1, 51, 102
2, 44481, Note_on_c, 1, 63, 96
2, 44523, Note_on_c, 1, 51, 0
2, 44523, Note_on_c, 1, 55, 127
2, 44524, Note_on_c, 1, 67, 127
2, 44525, Note_on_c, 1, 63, 0
2, 44551, Note_on_c, 1, 55, 0
2, 44555, Note_on_c, 1, 67, 0
2, 44599, Note_on_c, 1, 67, 127
2, 44600, Note_on_c, 1, 55, 98
2, 44627, Note_on_c, 1, 67, 0
2, 44630, Note_on_c, 1, 55, 0
2, 44637, Note_on_c, 1, 67, 127
2, 44638, Note_on_c, 1, 55, 127
2, 44657, Note_on_c, 1, 55, 0
2, 44664, Note_on_c, 1, 67, 0
2, 44713, Note_on_c, 1, 65, 127
2, 44713, Note_on_c, 1, 53, 127
2, 44826, Note_on_c, 1, 53, 0
2, 44827, Note_on_c, 1, 51, 114
2, 44831, Note_on_c, 1, 63, 127
2, 44837, Note_on_c, 1, 65, 0
2, 44881, Note_on_c, 1, 51, 0
2, 44881, Note_on_c, 1, 67, 127
2, 44882, Note_on_c, 1, 55, 127
2, 44884, Note_on_c, 1, 63, 0
2, 44954, Note_on_c, 1, 67, 0
2, 44967, Note_on_c, 1, 55, 0
2, 45003, Note_on_c, 1, 55, 127
2, 45037, Note_on_c, 1, 55, 0
2, 45118, Note_on_c, 1, 55, 127
2, 45182, Note_on_c, 1, 55, 0
2, 45191, Note_on_c, 1, 55, 98
2, 45202, Note_on_c, 1, 55, 0
2, 45237, Note_on_c, 1, 55, 127
2, 45268, Note_on_c, 1, 55, 0
2, 45308, Note_on_c, 1, 55, 127
2, 45330, Note_on_c, 1, 55, 0
2, 45353, Note_on_c, 1, 55, 127
2, 45399, Note_on_c, 1, 55, 0
2, 45430, Note_on_c, 1, 53, 127
2, 45464, Note_on_c, 1, 53, 0
2, 45556, Note_on_c, 1, 51, 127
2, 45818, Note_on_c, 1, 51, 0
2, 45920, Note_on_c, 1, 63, 127
2, 45958, Note_on_c, 1, 67, 127
2, 45959, Note_on_c, 1, 63, 0
2, 46029, Note_on_c, 1, 70, 127
2, 46034, Note_on_c, 1, 67, 0
2, 46075, Note_on_c, 1, 70, 0
2, 46078, Note_on_c, 1, 67, 104
2, 46092, Note_on_c, 1, 67, 0
2, 46155, Note_on_c, 1, 70, 127
2, 46178, Note_on_c, 1, 70, 0
2, 46272, Note_on_c, 1, 70, 127
2, 46318, Note_on_c, 1, 67, 126
2, 46319, Note_on_c, 1, 70, 0
2, 46390, Note_on_c, 1, 70, 100
2, 46391, Note_on_c, 1, 67, 0
2, 46423, Note_on_c, 1, 70, 0
2, 46435, Note_on_c, 1, 72, 127
2, 46470, Note_on_c, 1, 72, 0
2, 46507, Note_on_c, 1, 72, 127
2, 46555, Note_on_c, 1, 74, 127
2, 46556, Note_on_c, 1, 72, 0
2, 46586, Note_on_c, 1, 74, 0
2, 46640, Note_on_c, 1, 72, 127
2, 46675, Note_on_c, 1, 72, 0
2, 46759, Note_on_c, 1, 70, 127
2, 46805, Note_on_c, 1, 70, 0
2, 46877, Note_on_c, 1, 73, 127
2, 46974, Note_on_c, 1, 73, 0
2, 46976, Note_on_c, 1, 70, 127
2, 47062, Pitch_bend_c, 1, 8073
2, 47066, Pitch_bend_c, 1, 7954
2, 47068, Pitch_bend_c, 1, 7715
2, 47070, Pitch_bend_c, 1, 7476
2, 47071, Pitch_bend_c, 1, 7237
2, 47073, Pitch_bend_c, 1, 6998
2, 47076, Pitch_bend_c, 1, 6657
2, 47079, Pitch_bend_c, 1, 6486
2, 47083, Pitch_bend_c, 1, 6315
2, 47085, Pitch_bend_c, 1, 6144
2, 47087, Pitch_bend_c, 1, 6045
2, 47089, Pitch_bend_c, 1, 5189
2, 47092, Pitch_bend_c, 1, 4950
2, 47095, Pitch_bend_c, 1, 4780
2, 47101, Pitch_bend_c, 1, 4609
2, 47103, Pitch_bend_c, 1, 4267
2, 47106, Pitch_bend_c, 1, 4096
2, 47110, Pitch_bend_c, 1, 3858
2, 47113, Pitch_bend_c, 1, 3738
2, 47119, Pitch_bend_c, 1, 3619
2, 47129, Pitch_bend_c, 1, 3499
2, 47134, Pitch_bend_c, 1, 3400
2, 47152, Pitch_bend_c, 1, 3499
2, 47154, Pitch_bend_c, 1, 3619
2, 47156, Pitch_bend_c, 1, 3738
2, 47159, Pitch_bend_c, 1, 3858
2, 47162, Pitch_bend_c, 1, 4096
2, 47164, Pitch_bend_c, 1, 4267
2, 47167, Pitch_bend_c, 1, 4609
2, 47173, Pitch_bend_c, 1, 4780
2, 47178, Pitch_bend_c, 1, 4950
2, 47182, Pitch_bend_c, 1, 5189
2, 47185, Pitch_bend_c, 1, 5309
2, 47187, Pitch_bend_c, 1, 6045
2, 47189, Pitch_bend_c, 1, 6144
2, 47191, Pitch_bend_c, 1, 6315
2, 47193, Pitch_bend_c, 1, 6486
2, 47196, Pitch_bend_c, 1, 6657
2, 47198, Pitch_bend_c, 1, 7237
2, 47199, Pitch_bend_c, 1, 7476
2, 47200, Pitch_bend_c, 1, 7715
2, 47201, Pitch_bend_c, 1, 7954
2, 47202, Pitch_bend_c, 1, 8073
2, 47203, Pitch_bend_c, 1, 8192
2, 47233, Note_on_c, 1, 68, 84
2, 47237, Note_on_c, 1, 70, 0
2, 47273, Note_on_c, 1, 66, 110
2, 47274, Note_on_c, 1, 68, 0
2, 47349, Note_on_c, 1, 66, 0
2, 47353, Note_on_c, 1, 68, 97
2, 47482, Control_c, 1, 11, 92
2, 47484, Note_on_c, 1, 70, 127
2, 47491, Note_on_c, 1, 68, 0
2, 47498, Control_c, 1, 11, 95
2, 47515, Control_c, 1, 11, 97
2, 47520, Control_c, 1, 1, 0
2, 47531, Control_c, 1, 11, 100
2, 47537, Control_c, 1, 1, 11
2, 47548, Control_c, 1, 11, 103
2, 47553, Control_c, 1, 1, 23
2, 47564, Control_c, 1, 11, 106
2, 47570, Control_c, 1, 1, 34
2, 47580, Control_c, 1, 11, 108
2, 47587, Control_c, 1, 1, 46
2, 47596, Control_c, 1, 11, 111
2, 47604, Control_c, 1, 1, 57
2, 47613, Control_c, 1, 11, 115
2, 47620, Control_c, 1, 1, 69
2, 47629, Control_c, 1, 11, 119
2, 47637, Control_c, 1, 1, 80
2, 47646, Control_c, 1, 11, 123
2, 47662, Control_c, 1, 11, 127
2, 47666, Control_c, 1, 11, 127
2, 47697, Note_on_c, 1, 70, 0
2, 47750, Control_c, 1, 1, 0
2, 47760, Pitch_bend_c, 1, 4153
2, 47760, Note_on_c, 1, 70, 127
2, 47775, Pitch_bend_c, 1, 6173
2, 47790, Pitch_bend_c, 1, 8192
2, 47808, Note_on_c, 1, 70, 0
2, 47847, Note_on_c, 1, 70, 127
2, 47885, Note_on_c, 1, 68, 122
2, 47890, Note_on_c, 1, 70, 0
2, 47958, Note_on_c, 1, 66, 77
2, 47959, Note_on_c, 1, 68, 0
2, 47994, Note_on_c, 1, 66, 0
2, 48006, Note_on_c, 1, 66, 106
2, 48046, Note_on_c, 1, 66, 0
2, 48074, Note_on_c, 1, 66, 113
2, 48237, Note_on_c, 1, 63, 94
2, 48240, Note_on_c, 1, 66, 0
2, 48311, Note_on_c, 1, 66, 94
2, 48332, Note_on_c, 1, 63, 0
2, 48347, Note_on_c, 1, 66, 0
2, 48359, Pitch_bend_c, 1, 4153
2, 48359, Note_on_c, 1, 70, 113
2, 48374, Pitch_bend_c, 1, 6173
2, 48389, Pitch_bend_c, 1, 8192
2, 48416, Note_on_c, 1, 70, 0
2, 48436, Note_on_c, 1, 66, 77
2, 48466, Note_on_c, 1, 66, 0
2, 48475, Note_on_c, 1, 68, 127
2, 48550, Note_on_c, 1, 68, 0
2, 48551, Note_on_c, 1, 66, 106
2, 48552, Control_c, 1, 1, 0
2, 48569, Control_c, 1, 1, 11
2, 48585, Control_c, 1, 1, 23
2, 48602, Control_c, 1, 1, 34
2, 48619, Control_c, 1, 1, 46
2, 48636, Control_c, 1, 1, 57
2, 48652, Control_c, 1, 1, 69
2, 48669, Control_c, 1, 1, 80
2, 48782, Control_c, 1, 1, 0
2, 48846, Note_on_c, 1, 66, 0
2, 48967, Note_on_c, 1, 56, 110
2, 48968, Note_on_c, 1, 63, 100
2, 48970, Note_on_c, 1, 59, 80
2, 49023, Note_on_c, 1, 63, 0
2, 49026, Note_on_c, 1, 59, 0
2, 49034, Note_on_c, 1, 56, 0
2, 49080, Note_on_c, 1, 58, 92
2, 49080, Note_on_c, 1, 55, 70
2, 49088, Note_on_c, 1, 62, 118
2, 49112, Note_on_c, 1, 55, 0
2, 49148, Note_on_c, 1, 62, 0
2, 49154, Note_on_c, 1, 58, 0
2, 49155, Note_on_c, 1, 56, 110
2, 49158, Note_on_c, 1, 63, 87
2, 49164, Note_on_c, 1, 59, 100
2, 49219, Note_on_c, 1, 63, 0
2, 49222, Note_on_c, 1, 56, 0
2, 49222, Note_on_c, 1, 59, 0
2, 49322, Note_on_c, 1, 63, 113
2, 49322, Note_on_c, 1, 56, 113
2, 49322, Note_on_c, 1, 59, 110
2, 49396, Note_on_c, 1, 62, 100
2, 49400, Note_on_c, 1, 56, 0
2, 49405, Note_on_c, 1, 63, 0
2, 49411, Note_on_c, 1, 59, 0
2, 49442, Note_on_c, 1, 59, 64
2, 49444, Note_on_c, 1, 56, 87
2, 49447, Note_on_c, 1, 63, 84
2, 49460, Note_on_c, 1, 62, 0
2, 49487, Note_on_c, 1, 56, 0
2, 49490, Note_on_c, 1, 59, 0
2, 49493, Note_on_c, 1, 63, 0
2, 49520, Note_on_c, 1, 56, 110
2, 49525, Note_on_c, 1, 63, 100
2, 49525, Note_on_c, 1, 58, 90
2, 49559, Note_on_c, 1, 56, 0
2, 49570, Note_on_c, 1, 58, 0
2, 49580, Note_on_c, 1, 63, 0
2, 49630, Note_on_c, 1, 62, 122
2, 49634, Note_on_c, 1, 59, 87
2, 49635, Note_on_c, 1, 55, 127
2, 49674, Note_on_c, 1, 63, 74
2, 49675, Note_on_c, 1, 56, 106
2, 49685, Note_on_c, 1, 62, 0
2, 49685, Note_on_c, 1, 55, 0
2, 49720, Note_on_c, 1, 59, 0
2, 49723, Note_on_c, 1, 56, 0
2, 49725, Note_on_c, 1, 63, 0
2, 50768, Note_on_c, 1, 46, 118
2, 50829, Note_on_c, 1, 46, 0
2, 50833, Note_on_c, 1, 49, 90
2, 50875, Note_on_c, 1, 46, 106
2, 50876, Note_on_c, 1, 49, 0
2, 50932, Note_on_c, 1, 46, 0
2, 50956, Note_on_c, 1, 49, 113
2, 51009, Note_on_c, 1, 49, 0
2, 51066, Note_on_c, 1, 46, 70
2, 51101, Note_on_c, 1, 46, 0
2, 51108, Note_on_c, 1, 49, 122
2, 51171, Note_on_c, 1, 49, 0
2, 51188, Note_on_c, 1, 49, 73
2, 51223, Note_on_c, 1, 49, 0
2, 51233, Note_on_c, 1, 51, 127
2, 51349, Note_on_c, 1, 51, 0
2, 51349, Note_on_c, 1, 53, 103
2, 51437, Note_on_c, 1, 53, 0
2, 51437, Note_on_c, 1, 51, 106
2, 51489, Note_on_c, 1, 51, 0
2, 51545, Note_on_c, 1, 49, 100
2, 52453, Note_on_c, 1, 49, 0
2, 52640, Note_on_c, 1, 66, 103
2, 52640, Note_on_c, 1, 59, 113
2, 52772, Note_on_c, 1, 66, 0
2, 52780, Note_on_c, 1, 59, 0
2, 52800, Note_on_c, 1, 66, 113
2, 52800, Note_on_c, 1, 58, 106
2, 52868, Note_on_c, 1, 58, 0
2, 52877, Note_on_c, 1, 66, 0
2, 52920, Note_on_c, 1, 56, 110
2, 52920, Note_on_c, 1, 63, 127
2, 52981, Note_on_c, 1, 63, 0
2, 52986, Note_on_c, 1, 56, 0
2, 53040, Note_on_c, 1, 63, 110
2, 53040, Note_on_c, 1, 54, 106
2, 53096, Note_on_c, 1, 63, 0
2, 53104, Note_on_c, 1, 54, 0
2, 53120, Note_on_c, 1, 63, 82
2, 53120, Note_on_c, 1, 54, 82
2, 53144, Note_on_c, 1, 63, 0
2, 53160, Note_on_c, 1, 66, 106
2, 53160, Note_on_c, 1, 59, 127
2, 53174, Note_on_c, 1, 54, 0
2, 53202, Note_on_c, 1, 59, 0
2, 53207, Note_on_c, 1, 66, 0
2, 53240, Note_on_c, 1, 66, 87
2, 53240, Note_on_c, 1, 59, 127
2, 53263, Note_on_c, 1, 59, 0
2, 53268, Note_on_c, 1, 66, 0
2, 53280, Note_on_c, 1, 58, 106
2, 53280, Note_on_c, 1, 66, 73
2, 53333, Note_on_c, 1, 66, 0
2, 53337, Note_on_c, 1, 58, 0
2, 53360, Note_on_c, 1, 63, 127
2, 53360, Note_on_c, 1, 56, 110
2, 53422, Note_on_c, 1, 63, 0
2, 53431, Note_on_c, 1, 56, 0
2, 54120, Note_on_c, 1, 64, 100
2, 54120, Note_on_c, 1, 60, 100
2, 54160, Note_on_c, 1, 61, 100
2, 54160, Note_on_c, 1, 65, 100
2, 54163, Note_on_c, 1, 64, 0
2, 54163, Note_on_c, 1, 60, 0
2, 54200, Note_on_c, 1, 62, 100
2, 54200, Note_on_c, 1, 66, 100
2, 54203, Note_on_c, 1, 61, 0
2, 54203, Note_on_c, 1, 65, 0
2, 54240, Note_on_c, 1, 67, 100
2, 54240, Note_on_c, 1, 63, 100
2, 54243, Note_on_c, 1, 62, 0
2, 54243, Note_on_c, 1, 66, 0
2, 54280, Note_on_c, 1, 68, 100
2, 54280, Note_on_c, 1, 64, 100
2, 54283, Note_on_c, 1, 67, 0
2, 54283, Note_on_c, 1, 63, 0
2, 54320, Note_on_c, 1, 69, 100
2, 54320, Note_on_c, 1, 65, 100
2, 54323, Note_on_c, 1, 68, 0
2, 54323, Note_on_c, 1, 64, 0
2, 54360, Note_on_c, 1, 70, 100
2, 54360, Note_on_c, 1, 66, 100
2, 54363, Note_on_c, 1, 69, 0
2, 54363, Note_on_c, 1, 65, 0
2, 54400, Note_on_c, 1, 65, 100
2, 54400, Note_on_c, 1, 69, 100
2, 54403, Note_on_c, 1, 70, 0
2, 54403, Note_on_c, 1, 66, 0
2, 54436, Note_on_c, 1, 70, 103
2, 54440, Note_on_c, 1, 68, 100
2, 54440, Note_on_c, 1, 64, 100
2, 54443, Note_on_c, 1, 65, 0
2, 54443, Note_on_c, 1, 69, 0
2, 54454, Note_on_c, 1, 70, 0
2, 54480, Note_on_c, 1, 63, 100
2, 54480, Note_on_c, 1, 67, 100
2, 54480, Note_on_c, 1, 70, 127
2, 54483, Note_on_c, 1, 68, 0
2, 54483, Note_on_c, 1, 64, 0
2, 54520, Note_on_c, 1, 70, 0
2, 54523, Note_on_c, 1, 63, 0
2, 54523, Note_on_c, 1, 67, 0
2, 54563, Note_on_c, 1, 68, 100
2, 54582, Note_on_c, 1, 70, 94
2, 54588, Note_on_c, 1, 68, 0
2, 54600, Control_c, 1, 11, 107
2, 54603, Note_on_c, 1, 71, 82
2, 54603, Note_on_c, 1, 63, 127
2, 54606, Note_on_c, 1, 70, 0
2, 54648, Note_on_c, 1, 71, 0
2, 54653, Note_on_c, 1, 63, 0
2, 54677, Note_on_c, 1, 71, 127
2, 54680, Note_on_c, 1, 63, 85
2, 54720, Note_on_c, 1, 70, 127
2, 54721, Note_on_c, 1, 63, 0
2, 54723, Note_on_c, 1, 61, 94
2, 54727, Note_on_c, 1, 71, 0
2, 54770, Note_on_c, 1, 61, 0
2, 54781, Note_on_c, 1, 70, 0
2, 54792, Note_on_c, 1, 70, 87
2, 54799, Note_on_c, 1, 61, 87
2, 54828, Note_on_c, 1, 70, 0
2, 54838, Note_on_c, 1, 68, 127
2, 54842, Note_on_c, 1, 59, 106
2, 54844, Note_on_c, 1, 61, 0
2, 54908, Note_on_c, 1, 68, 0
2, 54916, Note_on_c, 1, 70, 76
2, 54919, Note_on_c, 1, 58, 92
2, 54923, Note_on_c, 1, 59, 0
2, 54935, Note_on_c, 1, 68, 103
2, 54945, Note_on_c, 1, 70, 0
2, 54962, Note_on_c, 1, 66, 113
2, 54967, Note_on_c, 1, 68, 0
2, 55010, Note_on_c, 1, 66, 0
2, 55027, Note_on_c, 1, 58, 0
2, 55043, Note_on_c, 1, 66, 97
2, 55047, Note_on_c, 1, 58, 72
2, 55057, Note_on_c, 1, 67, 118
2, 55067, Note_on_c, 1, 66, 0
2, 55071, Note_on_c, 1, 59, 92
2, 55075, Note_on_c, 1, 68, 82
2, 55079, Note_on_c, 1, 58, 0
2, 55082, Note_on_c, 1, 67, 0
2, 55104, Control_c, 1, 11, 108
2, 55127, Control_c, 1, 11, 109
2, 55150, Control_c, 1, 11, 110
2, 55173, Control_c, 1, 11, 111
2, 55197, Control_c, 1, 11, 112
2, 55220, Control_c, 1, 11, 113
2, 55243, Control_c, 1, 11, 114
2, 55266, Control_c, 1, 11, 115
2, 55289, Control_c, 1, 11, 116
2, 55312, Control_c, 1, 11, 117
2, 55335, Control_c, 1, 11, 118
2, 55358, Control_c, 1, 11, 119
2, 55381, Control_c, 1, 11, 120
2, 55404, Control_c, 1, 11, 121
2, 55428, Control_c, 1, 11, 122
2, 55451, Control_c, 1, 11, 123
2, 55474, Control_c, 1, 11, 124
2, 55497, Control_c, 1, 11, 125
2, 55508, Control_c, 1, 11, 127
2, 55539, Note_on_c, 1, 68, 0
2, 55542, Note_on_c, 1, 59, 0
2, 56400, Note_on_c, 1, 70, 101
2, 56400, Note_on_c, 1, 61, 101
2, 56530, Note_on_c, 1, 63, 101
2, 56530, Note_on_c, 1, 71, 101
2, 56542, Note_on_c, 1, 70, 0
2, 56542, Note_on_c, 1, 61, 0
2, 56681, Note_on_c, 1, 70, 90
2, 56681, Note_on_c, 1, 61, 90
2, 56684, Note_on_c, 1, 63, 0
2, 56684, Note_on_c, 1, 71, 0
2, 56781, Note_on_c, 1, 70, 0
2, 56789, Note_on_c, 1, 71, 94
2, 56818, Note_on_c, 1, 70, 90
2, 56829, Note_on_c, 1, 71, 0
2, 56838, Note_on_c, 1, 59, 90
2, 56838, Note_on_c, 1, 68, 90
2, 56851, Note_on_c, 1, 61, 0
2, 56851, Note_on_c, 1, 70, 0
2, 56999, Note_on_c, 1, 59, 0
2, 56999, Note_on_c, 1, 68, 0
2, 57001, Note_on_c, 1, 66, 94
2, 57001, Note_on_c, 1, 58, 94
2, 57141, Note_on_c, 1, 69, 77
2, 57141, Note_on_c, 1, 61, 77
2, 57156, Note_on_c, 1, 66, 0
2, 57156, Note_on_c, 1, 58, 0
2, 57156, Note_on_c, 1, 61, 0
2, 57157, Note_on_c, 1, 70, 65
2, 57157, Note_on_c, 1, 61, 65
2, 57168, Note_on_c, 1, 69, 0
2, 57183, Note_on_c, 1, 71, 67
2, 57183, Note_on_c, 1, 63, 67
2, 57202, Note_on_c, 1, 70, 0
2, 57202, Note_on_c, 1, 61, 0
2, 57366, Note_on_c, 1, 61, 90
2, 57366, Note_on_c, 1, 70, 90
2, 57372, Note_on_c, 1, 71, 0
2, 57372, Note_on_c, 1, 63, 0
2, 57522, Note_on_c, 1, 61, 0
2, 57522, Note_on_c, 1, 70, 0
2, 57575, Note_on_c, 1, 68, 94
2, 57575, Note_on_c, 1, 59, 94
2, 57598, Note_on_c, 1, 68, 0
2, 57598, Note_on_c, 1, 59, 0
2, 57615, Note_on_c, 1, 59, 101
2, 57615, Note_on_c, 1, 68, 101
2, 57664, Note_on_c, 1, 59, 0
2, 57664, Note_on_c, 1, 68, 0
2, 57989, Control_c, 1, 11, 101
2, 58006, Control_c, 1, 11, 102
2, 58023, Control_c, 1, 11, 103
2, 58029, Note_on_c, 1, 61, 101
2, 58029, Note_on_c, 1, 70, 101
2, 58040, Control_c, 1, 11, 104
2, 58057, Control_c, 1, 11, 105
2, 58074, Control_c, 1, 11, 106
2, 58091, Control_c, 1, 11, 107
2, 58108, Control_c, 1, 11, 108
2, 58125, Control_c, 1, 11, 109
2, 58142, Control_c, 1, 11, 110
2, 58159, Control_c, 1, 11, 111
2, 58177, Control_c, 1, 11, 112
2, 58194, Control_c, 1, 11, 113
2, 58197, Note_on_c, 1, 71, 65
2, 58197, Note_on_c, 1, 63, 65
2, 58211, Note_on_c, 1, 61, 0
2, 58211, Note_on_c, 1, 70, 0
2, 58211, Control_c, 1, 11, 114
2, 58213, Note_on_c, 1, 63, 0
2, 58214, Note_on_c, 1, 63, 84
2, 58214, Note_on_c, 1, 72, 84
2, 58228, Control_c, 1, 11, 115
2, 58232, Note_on_c, 1, 71, 0
2, 58245, Control_c, 1, 11, 116
2, 58245, Note_on_c, 1, 73, 77
2, 58245, Note_on_c, 1, 65, 77
2, 58261, Note_on_c, 1, 63, 0
2, 58261, Note_on_c, 1, 72, 0
2, 58262, Control_c, 1, 11, 117
2, 58279, Control_c, 1, 11, 118
2, 58296, Control_c, 1, 11, 119
2, 58313, Control_c, 1, 11, 120
2, 58330, Control_c, 1, 11, 121
2, 58347, Control_c, 1, 11, 122
2, 58422, Note_on_c, 1, 73, 0
2, 58422, Note_on_c, 1, 65, 0
2, 58446, Note_on_c, 1, 65, 101
2, 58446, Note_on_c, 1, 73, 101
2, 58657, Control_c, 1, 11, 97
2, 58659, Note_on_c, 1, 65, 0
2, 58659, Note_on_c, 1, 73, 0
2, 58663, Note_on_c, 1, 61, 101
2, 58663, Note_on_c, 1, 70, 101
2, 58673, Control_c, 1, 11, 99
2, 58688, Control_c, 1, 11, 100
2, 58704, Control_c, 1, 11, 102
2, 58719, Control_c, 1, 11, 104
2, 58735, Control_c, 1, 11, 105
2, 58751, Control_c, 1, 11, 107
2, 58766, Control_c, 1, 11, 109
2, 58782, Control_c, 1, 11, 110
2, 58798, Control_c, 1, 11, 112
2, 58813, Control_c, 1, 11, 114
2, 58829, Control_c, 1, 11, 115
2, 58840, Note_on_c, 1, 73, 84
2, 58844, Control_c, 1, 11, 117
2, 58849, Note_on_c, 1, 61, 0
2, 58849, Note_on_c, 1, 70, 0
2, 58860, Control_c, 1, 11, 119
2, 58862, Note_on_c, 1, 62, 58
2, 58868, Note_on_c, 1, 73, 0
2, 58876, Control_c, 1, 11, 120
2, 58885, Note_on_c, 1, 75, 75
2, 58885, Note_on_c, 1, 66, 75
2, 58891, Control_c, 1, 11, 122
2, 58896, Note_on_c, 1, 62, 0
2, 58907, Control_c, 1, 11, 124
2, 58922, Control_c, 1, 11, 125
2, 59128, Note_on_c, 1, 65, 101
2, 59128, Note_on_c, 1, 73, 101
2, 59140, Note_on_c, 1, 75, 0
2, 59140, Note_on_c, 1, 66, 0
2, 59282, Control_c, 1, 11, 126
2, 59370, Note_on_c, 1, 65, 0
2, 59370, Note_on_c, 1, 73, 0
2, 59387, Note_on_c, 1, 61, 90
2, 59387, Note_on_c, 1, 70, 90
2, 59411, Note_on_c, 1, 61, 0
2, 59411, Note_on_c, 1, 70, 0
2, 59432, Note_on_c, 1, 70, 101
2, 59432, Note_on_c, 1, 61, 101
2, 59496, Note_on_c, 1, 70, 0
2, 59496, Note_on_c, 1, 61, 0
2, 59850, Note_on_c, 1, 65, 101
2, 59850, Note_on_c, 1, 73, 101
2, 59877, Note_on_c, 1, 65, 0
2, 59877, Note_on_c, 1, 73, 0
2, 59960, Note_on_c, 1, 65, 101
2, 59960, Note_on_c, 1, 73, 101
2, 59991, Note_on_c, 1, 65, 0
2, 59991, Note_on_c, 1, 73, 0
2, 60065, Control_c, 1, 11, 94
2, 60088, Note_on_c, 1, 71, 101
2, 60088, Note_on_c, 1, 63, 101
2, 60273, Note_on_c, 1, 71, 0
2, 60313, Note_on_c, 1, 73, 84
2, 60334, Note_on_c, 1, 71, 90
2, 60350, Note_on_c, 1, 73, 0
2, 60358, Note_on_c, 1, 70, 101
2, 60358, Note_on_c, 1, 61, 101
2, 60369, Note_on_c, 1, 63, 0
2, 60369, Note_on_c, 1, 71, 0
2, 60590, Note_on_c, 1, 70, 0
2, 60590, Note_on_c, 1, 61, 0
2, 60594, Note_on_c, 1, 68, 82
2, 60594, Note_on_c, 1, 59, 82
2, 60852, Note_on_c, 1, 58, 101
2, 60852, Note_on_c, 1, 66, 101
2, 60855, Note_on_c, 1, 68, 0
2, 60855, Note_on_c, 1, 59, 0
2, 60997, Note_on_c, 1, 58, 0
2, 60997, Note_on_c, 1, 66, 0
2, 61082, Note_on_c, 1, 66, 77
2, 61082, Note_on_c, 1, 58, 77
2, 61092, Note_on_c, 1, 58, 0
2, 61093, Note_on_c, 1, 58, 101
2, 61093, Note_on_c, 1, 67, 101
2, 61108, Note_on_c, 1, 66, 0
2, 61119, Note_on_c, 1, 59, 73
2, 61119, Note_on_c, 1, 68, 73
2, 61128, Note_on_c, 1, 58, 0
2, 61128, Note_on_c, 1, 67, 0
2, 61271, Control_c, 1, 11, 95
2, 61286, Control_c, 1, 11, 96
2, 61302, Control_c, 1, 11, 98
2, 61307, Control_c, 1, 1, 1
2, 61317, Control_c, 1, 11, 99
2, 61322, Control_c, 1, 1, 5
2, 61333, Control_c, 1, 11, 100
2, 61337, Control_c, 1, 1, 9
2, 61348, Control_c, 1, 11, 101
2, 61353, Control_c, 1, 1, 13
2, 61364, Control_c, 1, 11, 103
2, 61368, Control_c, 1, 1, 17
2, 61379, Control_c, 1, 11, 104
2, 61383, Control_c, 1, 1, 21
2, 61395, Control_c, 1, 11, 105
2, 61398, Control_c, 1, 1, 25
2, 61410, Control_c, 1, 11, 107
2, 61413, Control_c, 1, 1, 29
2, 61426, Control_c, 1, 11, 108
2, 61428, Control_c, 1, 1, 33
2, 61441, Control_c, 1, 11, 109
2, 61444, Control_c, 1, 1, 37
2, 61457, Control_c, 1, 11, 111
2, 61459, Control_c, 1, 1, 41
2, 61472, Control_c, 1, 11, 112
2, 61474, Control_c, 1, 1, 45
2, 61487, Control_c, 1, 11, 113
2, 61489, Control_c, 1, 1, 49
2, 61503, Control_c, 1, 11, 114
2, 61504, Control_c, 1, 1, 53
2, 61518, Control_c, 1, 11, 116
2, 61519, Control_c, 1, 1, 57
2, 61534, Control_c, 1, 1, 56
2, 61534, Control_c, 1, 11, 117
2, 61549, Control_c, 1, 11, 118
2, 61565, Control_c, 1, 11, 120
2, 61580, Control_c, 1, 11, 121
2, 61596, Control_c, 1, 11, 122
2, 61611, Control_c, 1, 11, 123
2, 61627, Control_c, 1, 11, 125
2, 61633, Control_c, 1, 11, 127
2, 61801, Control_c, 1, 1, 54
2, 61816, Control_c, 1, 1, 52
2, 61832, Control_c, 1, 1, 51
2, 61847, Control_c, 1, 1, 49
2, 61862, Control_c, 1, 1, 47
2, 61877, Control_c, 1, 1, 45
2, 61892, Control_c, 1, 1, 43
2, 61907, Control_c, 1, 1, 41
2, 61923, Control_c, 1, 1, 39
2, 61938, Control_c, 1, 1, 37
2, 61953, Control_c, 1, 1, 35
2, 62257, Note_on_c, 1, 59, 0
2, 62257, Note_on_c, 1, 68, 0
2, 63123, Note_on_c, 1, 61, 127
2, 63156, Note_on_c, 1, 61, 0
2, 63204, Note_on_c, 1, 61, 85
2, 63228, Note_on_c, 1, 61, 0
2, 63240, Note_on_c, 1, 59, 78
2, 63242, Note_on_c, 1, 66, 97
2, 63341, Note_on_c, 1, 59, 0
2, 63342, Note_on_c, 1, 66, 0
2, 63359, Note_on_c, 1, 66, 87
2, 63359, Note_on_c, 1, 58, 80
2, 63442, Note_on_c, 1, 66, 0
2, 63448, Note_on_c, 1, 58, 0
2, 63479, Note_on_c, 1, 63, 78
2, 63480, Note_on_c, 1, 56, 82
2, 63533, Note_on_c, 1, 56, 0
2, 63536, Note_on_c, 1, 63, 0
2, 63552, Note_on_c, 1, 54, 90
2, 63552, Note_on_c, 1, 63, 85
2, 63616, Note_on_c, 1, 54, 0
2, 63618, Note_on_c, 1, 63, 0
2, 63666, Note_on_c, 1, 56, 103
2, 63666, Note_on_c, 1, 65, 103
2, 63722, Control_c, 1, 1, 0
2, 64203, Note_on_c, 1, 56, 0
2, 64205, Note_on_c, 1, 65, 0
2, 64211, Note_on_c, 1, 61, 94
2, 64213, Note_on_c, 1, 49, 94
2, 64269, Note_on_c, 1, 61, 0
2, 64276, Note_on_c, 1, 49, 0
2, 64293, Note_on_c, 1, 37, 90
2, 64296, Note_on_c, 1, 49, 97
2, 64357, Note_on_c, 1, 37, 0
2, 64360, Note_on_c, 1, 49, 0
2, 64447, Note_on_c, 1, 37, 84
2, 64447, Note_on_c, 1, 49, 92
2, 64538, Note_on_c, 1, 49, 0
2, 64543, Note_on_c, 1, 37, 0
2, 64571, Note_on_c, 1, 49, 90
2, 64572, Note_on_c, 1, 37, 92
2, 64685, Note_on_c, 1, 45, 103
2, 64686, Note_on_c, 1, 57, 90
2, 64689, Note_on_c, 1, 49, 0
2, 64691, Note_on_c, 1, 37, 0
2, 64696, Note_on_c, 1, 46, 84
2, 64698, Note_on_c, 1, 45, 0
2, 64700, Note_on_c, 1, 58, 106
2, 64702, Note_on_c, 1, 57, 0
2, 64770, Note_on_c, 1, 49, 100
2, 64771, Note_on_c, 1, 61, 74
2, 64778, Note_on_c, 1, 58, 0
2, 64784, Note_on_c, 1, 46, 0
2, 64886, Note_on_c, 1, 56, 90
2, 64886, Note_on_c, 1, 44, 82
2, 64887, Note_on_c, 1, 49, 0
2, 64896, Note_on_c, 1, 61, 0
2, 64908, Control_c, 1, 1, 1
2, 64924, Control_c, 1, 1, 9
2, 64940, Control_c, 1, 1, 17
2, 64952, Control_c, 1, 1, 25
2, 64967, Control_c, 1, 1, 28
2, 64983, Control_c, 1, 1, 30
2, 64998, Control_c, 1, 1, 33
2, 65158, Control_c, 1, 1, 34
2, 65637, Control_c, 1, 11, 126
2, 65652, Control_c, 1, 11, 124
2, 65668, Control_c, 1, 11, 122
2, 65683, Control_c, 1, 11, 120
2, 65698, Control_c, 1, 11, 118
2, 65714, Control_c, 1, 11, 115
2, 65729, Control_c, 1, 11, 113
2, 65744, Control_c, 1, 11, 111
2, 65760, Control_c, 1, 11, 109
2, 65775, Control_c, 1, 11, 107
2, 65790, Control_c, 1, 11, 105
2, 65806, Control_c, 1, 11, 103
2, 65821, Control_c, 1, 11, 101
2, 65836, Control_c, 1, 11, 98
2, 65852, Control_c, 1, 11, 96
2, 65867, Control_c, 1, 11, 94
2, 65882, Control_c, 1, 11, 92
2, 65898, Control_c, 1, 11, 90
2, 65913, Control_c, 1, 11, 88
2, 65928, Control_c, 1, 11, 86
2, 65944, Control_c, 1, 11, 84
2, 65959, Control_c, 1, 11, 81
2, 65974, Control_c, 1, 11, 79
2, 65988, Control_c, 1, 11, 76
2, 66023, Control_c, 1, 11, 75
2, 66058, Control_c, 1, 11, 74
2, 66093, Control_c, 1, 11, 73
2, 66129, Control_c, 1, 11, 72
2, 66164, Control_c, 1, 11, 71
2, 66199, Control_c, 1, 11, 70
2, 66234, Control_c, 1, 11, 69
2, 66269, Control_c, 1, 11, 68
2, 66304, Control_c, 1, 11, 67
2, 66339, Control_c, 1, 11, 66
2, 66375, Control_c, 1, 11, 65
2, 66410, Control_c, 1, 11, 64
2, 66445, Control_c, 1, 11, 63
2, 66446, Control_c, 1, 11, 63
2, 66473, Control_c, 1, 11, 62
2, 66501, Control_c, 1, 11, 61
2, 66528, Control_c, 1, 11, 60
2, 66555, Control_c, 1, 11, 59
2, 66583, Control_c, 1, 11, 58
2, 66610, Control_c, 1, 11, 57
2, 66637, Control_c, 1, 11, 56
2, 66665, Control_c, 1, 11, 55
2, 66692, Control_c, 1, 11, 54
2, 66719, Control_c, 1, 11, 53
2, 66746, Control_c, 1, 11, 52
2, 66774, Control_c, 1, 11, 51
2, 66801, Control_c, 1, 11, 50
2, 66828, Control_c, 1, 11, 49
2, 66856, Control_c, 1, 11, 48
2, 66883, Control_c, 1, 11, 47
2, 66910, Control_c, 1, 11, 46
2, 66938, Control_c, 1, 11, 45
2, 67079, Note_on_c, 1, 56, 0
2, 67083, Note_on_c, 1, 44, 0
2, 67320, Control_c, 1, 11, 127
2, 76920, Control_c, 1, 1, 0
2, 77818, Note_on_c, 1, 42, 58
2, 79574, Note_on_c, 1, 42, 0
2, 79574, End_track
3, 0, Start_track
3, 0, Title_t, "sax II"
3, 0, MIDI_port, 0
3, 0, Program_c, 12, 65
3, 2, Control_c, 12, 10, 127
3, 4, Control_c, 12, 7, 127
3, 10, Control_c, 12, 91, 63
3, 290, Control_c, 12, 101, 0
3, 291, Control_c, 12, 100, 1
3, 292, Control_c, 12, 6, 68
3, 293, Control_c, 12, 38, 0
3, 294, Control_c, 12, 101, 127
3, 295, Control_c, 12, 100, 127
3, 14879, Note_on_c, 12, 66, 103
3, 14951, Note_on_c, 12, 66, 0
3, 14957, Note_on_c, 12, 69, 85
3, 14992, Note_on_c, 12, 69, 0
3, 14998, Note_on_c, 12, 66, 107
3, 15020, Note_on_c, 12, 66, 0
3, 15075, Note_on_c, 12, 69, 103
3, 15187, Note_on_c, 12, 69, 0
3, 15195, Note_on_c, 12, 66, 85
3, 15215, Note_on_c, 12, 66, 0
3, 15240, Note_on_c, 12, 69, 85
3, 15261, Note_on_c, 12, 69, 0
3, 15316, Note_on_c, 12, 71, 107
3, 15418, Note_on_c, 12, 69, 90
3, 15430, Note_on_c, 12, 71, 0
3, 15444, Note_on_c, 12, 69, 0
3, 15445, Note_on_c, 12, 66, 107
3, 15472, Note_on_c, 12, 66, 0
3, 15483, Note_on_c, 12, 69, 76
3, 15706, Note_on_c, 12, 69, 0
3, 15710, Note_on_c, 12, 66, 76
3, 15737, Note_on_c, 12, 66, 0
3, 15774, Note_on_c, 12, 66, 72
3, 15793, Note_on_c, 12, 66, 0
3, 15831, Note_on_c, 12, 67, 96
3, 15889, Note_on_c, 12, 67, 0
3, 15955, Note_on_c, 12, 66, 107
3, 16004, Note_on_c, 12, 66, 0
3, 16074, Note_on_c, 12, 64, 93
3, 16157, Note_on_c, 12, 62, 90
3, 16163, Note_on_c, 12, 64, 0
3, 16197, Note_on_c, 12, 62, 0
3, 16271, Note_on_c, 12, 64, 96
3, 16353, Control_c, 12, 11, 126
3, 16368, Control_c, 12, 11, 123
3, 16383, Control_c, 12, 11, 121
3, 16399, Control_c, 12, 11, 118
3, 16414, Control_c, 12, 11, 116
3, 16429, Control_c, 12, 11, 113
3, 16444, Control_c, 12, 11, 111
3, 16459, Control_c, 12, 11, 108
3, 16475, Control_c, 12, 11, 106
3, 16490, Control_c, 12, 11, 103
3, 16505, Control_c, 12, 11, 101
3, 16520, Control_c, 12, 11, 98
3, 16535, Control_c, 12, 11, 96
3, 16551, Control_c, 12, 11, 93
3, 16566, Control_c, 12, 11, 91
3, 16581, Control_c, 12, 11, 88
3, 16596, Control_c, 12, 11, 86
3, 16612, Control_c, 12, 11, 83
3, 16627, Control_c, 12, 11, 81
3, 16642, Control_c, 12, 11, 78
3, 16657, Control_c, 12, 11, 76
3, 16672, Control_c, 12, 11, 73
3, 16688, Control_c, 12, 11, 71
3, 16703, Control_c, 12, 11, 68
3, 16718, Control_c, 12, 11, 66
3, 16733, Control_c, 12, 11, 63
3, 16748, Control_c, 12, 11, 61
3, 16764, Control_c, 12, 11, 58
3, 16768, Note_on_c, 12, 64, 0
3, 16779, Control_c, 12, 11, 56
3, 16800, Control_c, 12, 11, 127
3, 29650, Note_on_c, 12, 66, 103
3, 29709, Note_on_c, 12, 66, 0
3, 29720, Note_on_c, 12, 69, 103
3, 29756, Note_on_c, 12, 69, 0
3, 29770, Note_on_c, 12, 66, 107
3, 29791, Note_on_c, 12, 66, 0
3, 29837, Note_on_c, 12, 69, 107
3, 29967, Note_on_c, 12, 66, 103
3, 29971, Note_on_c, 12, 69, 0
3, 29988, Note_on_c, 12, 66, 0
3, 30011, Note_on_c, 12, 69, 100
3, 30036, Note_on_c, 12, 69, 0
3, 30077, Note_on_c, 12, 71, 107
3, 30181, Note_on_c, 12, 69, 103
3, 30192, Note_on_c, 12, 71, 0
3, 30209, Note_on_c, 12, 69, 0
3, 30214, Note_on_c, 12, 66, 87
3, 30244, Note_on_c, 12, 69, 107
3, 30258, Note_on_c, 12, 66, 0
3, 30481, Note_on_c, 12, 66, 107
3, 30488, Note_on_c, 12, 69, 0
3, 30505, Note_on_c, 12, 66, 0
3, 30548, Note_on_c, 12, 66, 93
3, 30566, Note_on_c, 12, 66, 0
3, 30594, Note_on_c, 12, 67, 107
3, 30667, Note_on_c, 12, 67, 0
3, 30713, Note_on_c, 12, 66, 107
3, 30790, Note_on_c, 12, 66, 0
3, 30835, Note_on_c, 12, 64, 103
3, 30924, Note_on_c, 12, 62, 107
3, 30944, Note_on_c, 12, 64, 0
3, 30972, Note_on_c, 12, 62, 0
3, 31045, Note_on_c, 12, 64, 107
3, 31113, Control_c, 12, 11, 126
3, 31128, Control_c, 12, 11, 123
3, 31143, Control_c, 12, 11, 121
3, 31159, Control_c, 12, 11, 118
3, 31174, Control_c, 12, 11, 116
3, 31189, Control_c, 12, 11, 113
3, 31204, Control_c, 12, 11, 111
3, 31219, Control_c, 12, 11, 108
3, 31235, Control_c, 12, 11, 106
3, 31250, Control_c, 12, 11, 103
3, 31265, Control_c, 12, 11, 101
3, 31280, Control_c, 12, 11, 98
3, 31295, Control_c, 12, 11, 96
3, 31311, Control_c, 12, 11, 93
3, 31326, Control_c, 12, 11, 91
3, 31341, Control_c, 12, 11, 88
3, 31356, Control_c, 12, 11, 86
3, 31372, Control_c, 12, 11, 83
3, 31387, Control_c, 12, 11, 81
3, 31402, Control_c, 12, 11, 78
3, 31417, Control_c, 12, 11, 76
3, 31432, Control_c, 12, 11, 73
3, 31448, Control_c, 12, 11, 71
3, 31463, Control_c, 12, 11, 68
3, 31478, Control_c, 12, 11, 66
3, 31493, Control_c, 12, 11, 63
3, 31508, Control_c, 12, 11, 61
3, 31524, Control_c, 12, 11, 58
3, 31539, Control_c, 12, 11, 56
3, 31560, Note_on_c, 12, 64, 0
3, 31560, Control_c, 12, 11, 127
3, 43040, Note_on_c, 12, 58, 103
3, 43041, Note_on_c, 12, 70, 127
3, 43102, Note_on_c, 12, 70, 0
3, 43103, Note_on_c, 12, 58, 0
3, 43157, Note_on_c, 12, 67, 127
3, 43160, Note_on_c, 12, 55, 127
3, 43174, Note_on_c, 12, 67, 0
3, 43177, Note_on_c, 12, 55, 0
3, 43199, Note_on_c, 12, 55, 72
3, 43201, Note_on_c, 12, 67, 87
3, 43246, Note_on_c, 12, 55, 0
3, 43248, Note_on_c, 12, 67, 0
3, 43332, Note_on_c, 12, 55, 67
3, 43333, Note_on_c, 12, 67, 82
3, 43360, Note_on_c, 12, 55, 0
3, 43365, Note_on_c, 12, 67, 0
3, 43443, Note_on_c, 12, 55, 60
3, 43444, Note_on_c, 12, 67, 74
3, 43477, Note_on_c, 12, 55, 0
3, 43479, Note_on_c, 12, 67, 0
3, 43522, Note_on_c, 12, 55, 64
3, 43525, Note_on_c, 12, 67, 69
3, 43569, Note_on_c, 12, 65, 94
3, 43570, Note_on_c, 12, 53, 78
3, 43574, Note_on_c, 12, 55, 0
3, 43576, Note_on_c, 12, 67, 0
3, 43642, Note_on_c, 12, 53, 0
3, 43646, Note_on_c, 12, 51, 74
3, 43647, Note_on_c, 12, 63, 70
3, 43653, Note_on_c, 12, 65, 0
3, 43686, Note_on_c, 12, 63, 0
3, 43688, Note_on_c, 12, 51, 0
3, 43768, Note_on_c, 12, 67, 97
3, 43769, Note_on_c, 12, 55, 72
3, 43804, Note_on_c, 12, 67, 0
3, 43804, Note_on_c, 12, 55, 0
3, 44405, Note_on_c, 12, 60, 127
3, 44406, Note_on_c, 12, 48, 124
3, 44474, Note_on_c, 12, 51, 102
3, 44475, Note_on_c, 12, 63, 96
3, 44477, Note_on_c, 12, 48, 0
3, 44480, Note_on_c, 12, 60, 0
3, 44517, Note_on_c, 12, 51, 0
3, 44519, Note_on_c, 12, 63, 0
3, 44530, Note_on_c, 12, 55, 127
3, 44531, Note_on_c, 12, 67, 127
3, 44558, Note_on_c, 12, 55, 0
3, 44562, Note_on_c, 12, 67, 0
3, 44606, Note_on_c, 12, 67, 127
3, 44607, Note_on_c, 12, 55, 98
3, 44634, Note_on_c, 12, 67, 0
3, 44637, Note_on_c, 12, 55, 0
3, 44644, Note_on_c, 12, 67, 127
3, 44645, Note_on_c, 12, 55, 127
3, 44664, Note_on_c, 12, 55, 0
3, 44671, Note_on_c, 12, 67, 0
3, 44720, Note_on_c, 12, 53, 127
3, 44720, Note_on_c, 12, 65, 127
3, 44833, Note_on_c, 12, 53, 0
3, 44834, Note_on_c, 12, 51, 114
3, 44838, Note_on_c, 12, 63, 127
3, 44844, Note_on_c, 12, 65, 0
3, 44888, Note_on_c, 12, 51, 0
3, 44888, Note_on_c, 12, 67, 127
3, 44889, Note_on_c, 12, 55, 127
3, 44891, Note_on_c, 12, 63, 0
3, 44961, Note_on_c, 12, 67, 0
3, 44974, Note_on_c, 12, 55, 0
3, 45010, Note_on_c, 12, 55, 127
3, 45044, Note_on_c, 12, 55, 0
3, 45125, Note_on_c, 12, 55, 127
3, 45189, Note_on_c, 12, 55, 0
3, 45198, Note_on_c, 12, 55, 68
3, 45209, Note_on_c, 12, 55, 0
3, 45244, Note_on_c, 12, 55, 127
3, 45275, Note_on_c, 12, 55, 0
3, 45315, Note_on_c, 12, 55, 92
3, 45337, Note_on_c, 12, 55, 0
3, 45360, Note_on_c, 12, 55, 127
3, 45406, Note_on_c, 12, 55, 0
3, 45437, Note_on_c, 12, 53, 127
3, 45471, Note_on_c, 12, 53, 0
3, 45563, Note_on_c, 12, 51, 127
3, 45825, Note_on_c, 12, 51, 0
3, 45927, Note_on_c, 12, 63, 127
3, 45965, Note_on_c, 12, 67, 127
3, 45966, Note_on_c, 12, 63, 0
3, 46036, Note_on_c, 12, 70, 127
3, 46041, Note_on_c, 12, 67, 0
3, 46082, Note_on_c, 12, 70, 0
3, 46085, Note_on_c, 12, 67, 104
3, 46099, Note_on_c, 12, 67, 0
3, 46162, Note_on_c, 12, 70, 127
3, 46185, Note_on_c, 12, 70, 0
3, 46279, Note_on_c, 12, 70, 127
3, 46325, Note_on_c, 12, 67, 126
3, 46326, Note_on_c, 12, 70, 0
3, 46397, Note_on_c, 12, 70, 100
3, 46398, Note_on_c, 12, 67, 0
3, 46430, Note_on_c, 12, 70, 0
3, 46442, Note_on_c, 12, 72, 127
3, 46477, Note_on_c, 12, 72, 0
3, 46514, Note_on_c, 12, 72, 127
3, 46562, Note_on_c, 12, 74, 127
3, 46563, Note_on_c, 12, 72, 0
3, 46593, Note_on_c, 12, 74, 0
3, 46647, Note_on_c, 12, 72, 127
3, 46682, Note_on_c, 12, 72, 0
3, 46766, Note_on_c, 12, 70, 127
3, 46889, Note_on_c, 12, 70, 0
3, 50764, Note_on_c, 12, 34, 100
3, 50839, Note_on_c, 12, 34, 0
3, 50841, Note_on_c, 12, 37, 100
3, 50875, Note_on_c, 12, 37, 0
3, 50889, Note_on_c, 12, 34, 80
3, 50955, Note_on_c, 12, 34, 0
3, 50962, Note_on_c, 12, 37, 127
3, 51026, Note_on_c, 12, 37, 0
3, 51081, Note_on_c, 12, 34, 82
3, 51110, Note_on_c, 12, 34, 0
3, 51117, Note_on_c, 12, 37, 118
3, 51206, Note_on_c, 12, 37, 92
3, 51208, Note_on_c, 12, 37, 0
3, 51230, Note_on_c, 12, 37, 0
3, 51243, Note_on_c, 12, 39, 118
3, 51363, Note_on_c, 12, 39, 0
3, 51365, Note_on_c, 12, 41, 122
3, 51447, Note_on_c, 12, 39, 127
3, 51449, Note_on_c, 12, 41, 0
3, 51487, Note_on_c, 12, 39, 0
3, 51558, Note_on_c, 12, 37, 118
3, 52456, Note_on_c, 12, 37, 0
3, 64200, Note_on_c, 12, 61, 94
3, 64202, Note_on_c, 12, 49, 94
3, 64258, Note_on_c, 12, 61, 0
3, 64265, Note_on_c, 12, 49, 0
3, 64282, Note_on_c, 12, 37, 90
3, 64285, Note_on_c, 12, 49, 97
3, 64346, Note_on_c, 12, 37, 0
3, 64349, Note_on_c, 12, 49, 0
3, 64436, Note_on_c, 12, 49, 92
3, 64436, Note_on_c, 12, 37, 84
3, 64527, Note_on_c, 12, 49, 0
3, 64532, Note_on_c, 12, 37, 0
3, 64560, Note_on_c, 12, 49, 90
3, 64561, Note_on_c, 12, 37, 92
3, 64674, Note_on_c, 12, 45, 103
3, 64675, Note_on_c, 12, 57, 90
3, 64678, Note_on_c, 12, 49, 0
3, 64680, Note_on_c, 12, 37, 0
3, 64685, Note_on_c, 12, 46, 84
3, 64687, Note_on_c, 12, 45, 0
3, 64689, Note_on_c, 12, 58, 106
3, 64691, Note_on_c, 12, 57, 0
3, 64759, Note_on_c, 12, 49, 100
3, 64760, Note_on_c, 12, 61, 74
3, 64767, Note_on_c, 12, 58, 0
3, 64773, Note_on_c, 12, 46, 0
3, 64875, Note_on_c, 12, 44, 82
3, 64875, Note_on_c, 12, 56, 90
3, 64876, Note_on_c, 12, 49, 0
3, 64885, Note_on_c, 12, 61, 0
3, 64897, Control_c, 12, 1, 1
3, 64913, Control_c, 12, 1, 9
3, 64929, Control_c, 12, 1, 17
3, 64941, Control_c, 12, 1, 25
3, 64956, Control_c, 12, 1, 28
3, 64972, Control_c, 12, 1, 30
3, 64987, Control_c, 12, 1, 33
3, 65147, Control_c, 12, 1, 34
3, 65626, Control_c, 12, 11, 126
3, 65641, Control_c, 12, 11, 124
3, 65657, Control_c, 12, 11, 122
3, 65672, Control_c, 12, 11, 120
3, 65687, Control_c, 12, 11, 118
3, 65703, Control_c, 12, 11, 115
3, 65718, Control_c, 12, 11, 113
3, 65733, Control_c, 12, 11, 111
3, 65749, Control_c, 12, 11, 109
3, 65764, Control_c, 12, 11, 107
3, 65779, Control_c, 12, 11, 105
3, 65795, Control_c, 12, 11, 103
3, 65810, Control_c, 12, 11, 101
3, 65825, Control_c, 12, 11, 98
3, 65841, Control_c, 12, 11, 96
3, 65856, Control_c, 12, 11, 94
3, 65871, Control_c, 12, 11, 92
3, 65887, Control_c, 12, 11, 90
3, 65902, Control_c, 12, 11, 88
3, 65917, Control_c, 12, 11, 86
3, 65933, Control_c, 12, 11, 84
3, 65948, Control_c, 12, 11, 81
3, 65963, Control_c, 12, 11, 79
3, 65977, Control_c, 12, 11, 76
3, 66012, Control_c, 12, 11, 75
3, 66047, Control_c, 12, 11, 74
3, 66082, Control_c, 12, 11, 73
3, 66118, Control_c, 12, 11, 72
3, 66153, Control_c, 12, 11, 71
3, 66188, Control_c, 12, 11, 70
3, 66223, Control_c, 12, 11, 69
3, 66258, Control_c, 12, 11, 68
3, 66293, Control_c, 12, 11, 67
3, 66328, Control_c, 12, 11, 66
3, 66364, Control_c, 12, 11, 65
3, 66399, Control_c, 12, 11, 64
3, 66434, Control_c, 12, 11, 63
3, 66435, Control_c, 12, 11, 63
3, 66462, Control_c, 12, 11, 62
3, 66490, Control_c, 12, 11, 61
3, 66517, Control_c, 12, 11, 60
3, 66544, Control_c, 12, 11, 59
3, 66572, Control_c, 12, 11, 58
3, 66599, Control_c, 12, 11, 57
3, 66626, Control_c, 12, 11, 56
3, 66654, Control_c, 12, 11, 55
3, 66681, Control_c, 12, 11, 54
3, 66708, Control_c, 12, 11, 53
3, 66735, Control_c, 12, 11, 52
3, 66763, Control_c, 12, 11, 51
3, 66790, Control_c, 12, 11, 50
3, 66817, Control_c, 12, 11, 49
3, 66845, Control_c, 12, 11, 48
3, 66872, Control_c, 12, 11, 47
3, 66899, Control_c, 12, 11, 46
3, 66927, Control_c, 12, 11, 45
3, 67068, Note_on_c, 12, 56, 0
3, 67072, Note_on_c, 12, 44, 0
3, 67309, Control_c, 12, 11, 127
3, 67310, Control_c, 12, 101, 0
3, 67311, Control_c, 12, 100, 1
3, 67312, Control_c, 12, 6, 64
3, 67313, Control_c, 12, 38, 0
3, 67314, Control_c, 12, 101, 127
3, 67315, Control_c, 12, 100, 127
3, 67320, Control_c, 12, 1, 0
3, 67320, End_track
4, 0, Start_track
4, 0, Title_t, "trumpet I"
4, 0, MIDI_port, 0
4, 0, Program_c, 2, 56
4, 2, Control_c, 2, 10, 87
4, 4, Control_c, 2, 7, 127
4, 6, Control_c, 2, 91, 63
4, 13920, Note_on_c, 2, 67, 127
4, 13977, Note_on_c, 2, 67, 0
4, 14044, Note_on_c, 2, 66, 127
4, 14091, Note_on_c, 2, 66, 0
4, 14169, Note_on_c, 2, 64, 127
4, 14213, Note_on_c, 2, 64, 0
4, 14285, Note_on_c, 2, 62, 127
4, 14325, Note_on_c, 2, 62, 0
4, 14407, Note_on_c, 2, 67, 127
4, 14484, Note_on_c, 2, 67, 0
4, 14486, Note_on_c, 2, 66, 127
4, 14523, Note_on_c, 2, 66, 0
4, 14595, Note_on_c, 2, 64, 127
4, 14623, Note_on_c, 2, 64, 0
4, 14835, Note_on_c, 2, 73, 127
4, 14835, Note_on_c, 2, 69, 113
4, 14880, Control_c, 2, 11, 100
4, 15253, Note_on_c, 2, 73, 0
4, 15253, Note_on_c, 2, 69, 0
4, 15312, Note_on_c, 2, 74, 122
4, 15312, Note_on_c, 2, 71, 100
4, 15427, Control_c, 2, 11, 81
4, 15442, Control_c, 2, 11, 83
4, 15458, Control_c, 2, 11, 85
4, 15473, Control_c, 2, 11, 87
4, 15489, Control_c, 2, 11, 89
4, 15504, Control_c, 2, 11, 91
4, 15520, Control_c, 2, 11, 93
4, 15535, Control_c, 2, 11, 94
4, 15551, Control_c, 2, 11, 96
4, 15566, Control_c, 2, 11, 98
4, 15582, Control_c, 2, 11, 100
4, 15597, Control_c, 2, 11, 102
4, 15613, Control_c, 2, 11, 104
4, 15628, Control_c, 2, 11, 106
4, 15643, Control_c, 2, 11, 108
4, 15659, Control_c, 2, 11, 110
4, 15674, Control_c, 2, 11, 112
4, 15690, Control_c, 2, 11, 114
4, 15705, Control_c, 2, 11, 116
4, 15721, Control_c, 2, 11, 117
4, 15736, Control_c, 2, 11, 119
4, 15752, Control_c, 2, 11, 121
4, 15767, Control_c, 2, 11, 123
4, 15783, Control_c, 2, 11, 125
4, 15798, Control_c, 2, 11, 127
4, 15818, Note_on_c, 2, 74, 0
4, 15823, Note_on_c, 2, 71, 0
4, 15962, Note_on_c, 2, 71, 106
4, 15964, Note_on_c, 2, 76, 106
4, 15994, Note_on_c, 2, 71, 0
4, 15997, Note_on_c, 2, 76, 0
4, 16152, Note_on_c, 2, 71, 113
4, 16154, Note_on_c, 2, 76, 97
4, 16181, Note_on_c, 2, 71, 0
4, 16188, Note_on_c, 2, 76, 0
4, 16573, Note_on_c, 2, 76, 100
4, 16574, Note_on_c, 2, 71, 94
4, 16625, Note_on_c, 2, 76, 0
4, 16627, Note_on_c, 2, 71, 0
4, 16647, Note_on_c, 2, 71, 103
4, 16648, Note_on_c, 2, 76, 103
4, 16690, Note_on_c, 2, 76, 0
4, 16691, Note_on_c, 2, 71, 0
4, 16870, Note_on_c, 2, 68, 110
4, 16872, Note_on_c, 2, 76, 103
4, 17022, Note_on_c, 2, 68, 0
4, 17022, Note_on_c, 2, 76, 0
4, 17052, Note_on_c, 2, 67, 76
4, 17053, Note_on_c, 2, 76, 110
4, 17240, Note_on_c, 2, 76, 0
4, 17244, Note_on_c, 2, 67, 0
4, 17284, Note_on_c, 2, 74, 100
4, 17286, Note_on_c, 2, 66, 127
4, 17427, Note_on_c, 2, 66, 0
4, 17430, Note_on_c, 2, 74, 0
4, 17469, Note_on_c, 2, 74, 94
4, 17469, Note_on_c, 2, 65, 90
4, 17552, Note_on_c, 2, 65, 0
4, 17563, Note_on_c, 2, 74, 0
4, 17645, Note_on_c, 2, 74, 97
4, 17645, Note_on_c, 2, 64, 103
4, 18237, Note_on_c, 2, 64, 0
4, 18239, Note_on_c, 2, 74, 0
4, 28680, Note_on_c, 2, 67, 127
4, 28737, Note_on_c, 2, 67, 0
4, 28804, Note_on_c, 2, 66, 127
4, 28851, Note_on_c, 2, 66, 0
4, 28929, Note_on_c, 2, 64, 127
4, 28973, Note_on_c, 2, 64, 0
4, 29045, Note_on_c, 2, 62, 127
4, 29085, Note_on_c, 2, 62, 0
4, 29167, Note_on_c, 2, 67, 127
4, 29244, Note_on_c, 2, 67, 0
4, 29246, Note_on_c, 2, 66, 127
4, 29283, Note_on_c, 2, 66, 0
4, 29355, Note_on_c, 2, 64, 127
4, 29383, Note_on_c, 2, 64, 0
4, 29595, Note_on_c, 2, 69, 113
4, 29595, Note_on_c, 2, 73, 127
4, 29640, Control_c, 2, 11, 100
4, 30013, Note_on_c, 2, 69, 0
4, 30013, Note_on_c, 2, 73, 0
4, 30072, Note_on_c, 2, 71, 100
4, 30072, Note_on_c, 2, 74, 122
4, 30187, Control_c, 2, 11, 81
4, 30202, Control_c, 2, 11, 83
4, 30218, Control_c, 2, 11, 85
4, 30233, Control_c, 2, 11, 87
4, 30249, Control_c, 2, 11, 89
4, 30264, Control_c, 2, 11, 91
4, 30280, Control_c, 2, 11, 93
4, 30295, Control_c, 2, 11, 94
4, 30311, Control_c, 2, 11, 96
4, 30326, Control_c, 2, 11, 98
4, 30342, Control_c, 2, 11, 100
4, 30357, Control_c, 2, 11, 102
4, 30373, Control_c, 2, 11, 104
4, 30388, Control_c, 2, 11, 106
4, 30403, Control_c, 2, 11, 108
4, 30419, Control_c, 2, 11, 110
4, 30434, Control_c, 2, 11, 112
4, 30450, Control_c, 2, 11, 114
4, 30465, Control_c, 2, 11, 116
4, 30481, Control_c, 2, 11, 117
4, 30496, Control_c, 2, 11, 119
4, 30512, Control_c, 2, 11, 121
4, 30527, Control_c, 2, 11, 123
4, 30543, Control_c, 2, 11, 125
4, 30558, Control_c, 2, 11, 127
4, 30578, Note_on_c, 2, 74, 0
4, 30583, Note_on_c, 2, 71, 0
4, 30722, Note_on_c, 2, 71, 106
4, 30724, Note_on_c, 2, 76, 106
4, 30754, Note_on_c, 2, 71, 0
4, 30757, Note_on_c, 2, 76, 0
4, 30912, Note_on_c, 2, 71, 113
4, 30914, Note_on_c, 2, 76, 97
4, 30941, Note_on_c, 2, 71, 0
4, 30948, Note_on_c, 2, 76, 0
4, 31333, Note_on_c, 2, 76, 100
4, 31334, Note_on_c, 2, 71, 94
4, 31385, Note_on_c, 2, 76, 0
4, 31387, Note_on_c, 2, 71, 0
4, 31407, Note_on_c, 2, 71, 103
4, 31408, Note_on_c, 2, 76, 103
4, 31450, Note_on_c, 2, 76, 0
4, 31451, Note_on_c, 2, 71, 0
4, 31630, Note_on_c, 2, 68, 110
4, 31632, Note_on_c, 2, 76, 103
4, 31782, Note_on_c, 2, 68, 0
4, 31782, Note_on_c, 2, 76, 0
4, 31812, Note_on_c, 2, 67, 76
4, 31813, Note_on_c, 2, 76, 110
4, 32000, Note_on_c, 2, 76, 0
4, 32004, Note_on_c, 2, 67, 0
4, 32044, Note_on_c, 2, 74, 100
4, 32046, Note_on_c, 2, 66, 127
4, 32187, Note_on_c, 2, 66, 0
4, 32190, Note_on_c, 2, 74, 0
4, 32229, Note_on_c, 2, 65, 90
4, 32229, Note_on_c, 2, 74, 94
4, 32312, Note_on_c, 2, 65, 0
4, 32323, Note_on_c, 2, 74, 0
4, 32405, Note_on_c, 2, 64, 103
4, 32405, Note_on_c, 2, 74, 97
4, 32997, Note_on_c, 2, 64, 0
4, 32999, Note_on_c, 2, 74, 0
4, 37273, Note_on_c, 2, 69, 100
4, 37274, Note_on_c, 2, 64, 100
4, 37275, Note_on_c, 2, 61, 100
4, 37320, Control_c, 2, 11, 121
4, 37336, Control_c, 2, 11, 114
4, 37351, Control_c, 2, 11, 106
4, 37367, Control_c, 2, 11, 99
4, 37383, Control_c, 2, 11, 91
4, 37398, Control_c, 2, 11, 84
4, 37414, Control_c, 2, 11, 76
4, 37427, Control_c, 2, 11, 79
4, 37443, Control_c, 2, 11, 81
4, 37458, Control_c, 2, 11, 83
4, 37474, Control_c, 2, 11, 85
4, 37489, Control_c, 2, 11, 87
4, 37504, Control_c, 2, 11, 89
4, 37520, Control_c, 2, 11, 91
4, 37535, Control_c, 2, 11, 93
4, 37550, Control_c, 2, 11, 95
4, 37566, Control_c, 2, 11, 96
4, 37581, Control_c, 2, 11, 98
4, 37596, Control_c, 2, 11, 100
4, 37612, Control_c, 2, 11, 102
4, 37627, Control_c, 2, 11, 104
4, 37642, Control_c, 2, 11, 106
4, 37658, Control_c, 2, 11, 108
4, 37673, Control_c, 2, 11, 110
4, 37689, Control_c, 2, 11, 112
4, 37704, Control_c, 2, 11, 114
4, 37719, Control_c, 2, 11, 116
4, 37735, Control_c, 2, 11, 118
4, 37750, Control_c, 2, 11, 120
4, 37765, Control_c, 2, 11, 122
4, 37781, Control_c, 2, 11, 124
4, 37788, Control_c, 2, 11, 127
4, 38152, Note_on_c, 2, 64, 0
4, 38160, Note_on_c, 2, 69, 0
4, 38163, Note_on_c, 2, 61, 0
4, 38231, Note_on_c, 2, 66, 100
4, 38235, Note_on_c, 2, 62, 100
4, 38236, Note_on_c, 2, 71, 100
4, 38280, Control_c, 2, 11, 126
4, 38296, Control_c, 2, 11, 112
4, 38312, Control_c, 2, 11, 98
4, 38328, Control_c, 2, 11, 83
4, 38344, Control_c, 2, 11, 69
4, 38356, Control_c, 2, 11, 72
4, 38372, Control_c, 2, 11, 74
4, 38387, Control_c, 2, 11, 76
4, 38402, Control_c, 2, 11, 79
4, 38417, Control_c, 2, 11, 81
4, 38433, Control_c, 2, 11, 83
4, 38448, Control_c, 2, 11, 85
4, 38463, Control_c, 2, 11, 87
4, 38478, Control_c, 2, 11, 90
4, 38494, Control_c, 2, 11, 92
4, 38509, Control_c, 2, 11, 94
4, 38524, Control_c, 2, 11, 96
4, 38540, Control_c, 2, 11, 98
4, 38555, Control_c, 2, 11, 101
4, 38570, Control_c, 2, 11, 103
4, 38585, Control_c, 2, 11, 105
4, 38601, Control_c, 2, 11, 107
4, 38616, Control_c, 2, 11, 109
4, 38631, Control_c, 2, 11, 112
4, 38646, Control_c, 2, 11, 114
4, 38662, Control_c, 2, 11, 116
4, 38677, Control_c, 2, 11, 118
4, 38692, Control_c, 2, 11, 120
4, 38707, Control_c, 2, 11, 123
4, 38723, Control_c, 2, 11, 125
4, 38729, Control_c, 2, 11, 127
4, 39103, Note_on_c, 2, 62, 0
4, 39116, Note_on_c, 2, 66, 0
4, 39121, Note_on_c, 2, 71, 0
4, 39205, Note_on_c, 2, 69, 100
4, 39205, Note_on_c, 2, 73, 100
4, 39208, Note_on_c, 2, 64, 100
4, 39240, Control_c, 2, 11, 124
4, 39259, Control_c, 2, 11, 95
4, 39277, Control_c, 2, 11, 66
4, 39285, Control_c, 2, 11, 71
4, 39301, Control_c, 2, 11, 73
4, 39316, Control_c, 2, 11, 75
4, 39331, Control_c, 2, 11, 77
4, 39346, Control_c, 2, 11, 79
4, 39361, Control_c, 2, 11, 81
4, 39376, Control_c, 2, 11, 84
4, 39391, Control_c, 2, 11, 86
4, 39407, Control_c, 2, 11, 88
4, 39422, Control_c, 2, 11, 90
4, 39437, Control_c, 2, 11, 92
4, 39452, Control_c, 2, 11, 94
4, 39467, Control_c, 2, 11, 97
4, 39482, Control_c, 2, 11, 99
4, 39497, Control_c, 2, 11, 101
4, 39512, Control_c, 2, 11, 103
4, 39528, Control_c, 2, 11, 105
4, 39543, Control_c, 2, 11, 107
4, 39558, Control_c, 2, 11, 110
4, 39573, Control_c, 2, 11, 112
4, 39588, Control_c, 2, 11, 114
4, 39603, Control_c, 2, 11, 116
4, 39618, Control_c, 2, 11, 118
4, 39634, Control_c, 2, 11, 120
4, 39643, Note_on_c, 2, 73, 0
4, 39649, Control_c, 2, 11, 123
4, 39657, Note_on_c, 2, 69, 0
4, 39657, Note_on_c, 2, 64, 0
4, 39664, Control_c, 2, 11, 125
4, 39679, Note_on_c, 2, 74, 100
4, 39681, Note_on_c, 2, 66, 100
4, 39685, Note_on_c, 2, 69, 100
4, 39720, Control_c, 2, 11, 63
4, 39721, Control_c, 2, 11, 125
4, 39735, Control_c, 2, 11, 124
4, 39751, Control_c, 2, 11, 119
4, 39766, Control_c, 2, 11, 114
4, 39782, Control_c, 2, 11, 108
4, 39797, Control_c, 2, 11, 103
4, 39813, Control_c, 2, 11, 98
4, 39828, Control_c, 2, 11, 93
4, 39844, Control_c, 2, 11, 87
4, 39871, Control_c, 2, 11, 85
4, 39887, Control_c, 2, 11, 87
4, 39902, Control_c, 2, 11, 89
4, 39917, Control_c, 2, 11, 92
4, 39932, Control_c, 2, 11, 94
4, 39947, Control_c, 2, 11, 96
4, 39962, Control_c, 2, 11, 98
4, 39977, Control_c, 2, 11, 101
4, 39992, Control_c, 2, 11, 103
4, 40008, Control_c, 2, 11, 105
4, 40023, Control_c, 2, 11, 107
4, 40038, Control_c, 2, 11, 109
4, 40053, Control_c, 2, 11, 112
4, 40068, Control_c, 2, 11, 114
4, 40083, Control_c, 2, 11, 116
4, 40098, Control_c, 2, 11, 118
4, 40114, Control_c, 2, 11, 120
4, 40129, Control_c, 2, 11, 123
4, 40144, Control_c, 2, 11, 125
4, 40150, Control_c, 2, 11, 127
4, 40209, Note_on_c, 2, 66, 0
4, 40209, Note_on_c, 2, 69, 0
4, 40212, Note_on_c, 2, 74, 0
4, 40280, Note_on_c, 2, 55, 100
4, 40319, Note_on_c, 2, 55, 0
4, 40320, Note_on_c, 2, 57, 100
4, 40392, Note_on_c, 2, 57, 0
4, 40400, Note_on_c, 2, 59, 100
4, 40433, Note_on_c, 2, 59, 0
4, 40440, Note_on_c, 2, 61, 100
4, 40506, Note_on_c, 2, 61, 0
4, 40560, Note_on_c, 2, 63, 100
4, 40622, Note_on_c, 2, 63, 0
4, 40680, Note_on_c, 2, 65, 100
4, 40743, Note_on_c, 2, 65, 0
4, 40760, Note_on_c, 2, 67, 100
4, 40813, Note_on_c, 2, 67, 0
4, 40880, Note_on_c, 2, 68, 100
4, 40942, Note_on_c, 2, 68, 0
4, 41000, Note_on_c, 2, 70, 100
4, 41068, Note_on_c, 2, 70, 0
4, 41240, Note_on_c, 2, 60, 100
4, 41280, Note_on_c, 2, 62, 100
4, 41290, Note_on_c, 2, 60, 0
4, 41360, Note_on_c, 2, 64, 100
4, 41376, Note_on_c, 2, 62, 0
4, 41391, Note_on_c, 2, 64, 0
4, 41400, Note_on_c, 2, 66, 100
4, 41464, Note_on_c, 2, 66, 0
4, 41520, Note_on_c, 2, 68, 100
4, 41579, Note_on_c, 2, 68, 0
4, 41640, Note_on_c, 2, 70, 100
4, 41712, Note_on_c, 2, 70, 0
4, 41720, Note_on_c, 2, 72, 100
4, 41764, Note_on_c, 2, 72, 0
4, 41840, Note_on_c, 2, 73, 100
4, 41887, Note_on_c, 2, 73, 0
4, 41960, Note_on_c, 2, 75, 100
4, 42131, Note_on_c, 2, 75, 0
4, 43400, Note_on_c, 2, 75, 127
4, 43400, Note_on_c, 2, 63, 100
4, 43422, Note_on_c, 2, 63, 0
4, 43423, Note_on_c, 2, 75, 0
4, 43884, Note_on_c, 2, 63, 94
4, 43884, Note_on_c, 2, 75, 127
4, 43905, Note_on_c, 2, 63, 0
4, 43908, Note_on_c, 2, 75, 0
4, 43920, Note_on_c, 2, 60, 80
4, 43923, Note_on_c, 2, 72, 73
4, 43933, Note_on_c, 2, 72, 0
4, 43935, Note_on_c, 2, 60, 0
4, 44004, Note_on_c, 2, 75, 127
4, 44021, Note_on_c, 2, 75, 0
4, 44837, Note_on_c, 2, 70, 127
4, 44837, Note_on_c, 2, 58, 110
4, 44852, Note_on_c, 2, 58, 0
4, 44853, Note_on_c, 2, 70, 0
4, 44954, Note_on_c, 2, 70, 127
4, 44954, Note_on_c, 2, 58, 122
4, 44969, Note_on_c, 2, 70, 0
4, 44969, Note_on_c, 2, 58, 0
4, 45603, Note_on_c, 2, 75, 94
4, 45605, Note_on_c, 2, 63, 62
4, 45629, Note_on_c, 2, 63, 0
4, 45630, Note_on_c, 2, 75, 0
4, 45641, Note_on_c, 2, 75, 76
4, 45641, Note_on_c, 2, 63, 78
4, 45661, Note_on_c, 2, 63, 0
4, 45664, Note_on_c, 2, 75, 0
4, 45676, Note_on_c, 2, 60, 94
4, 45679, Note_on_c, 2, 72, 66
4, 45692, Note_on_c, 2, 72, 0
4, 45693, Note_on_c, 2, 60, 0
4, 45719, Note_on_c, 2, 75, 127
4, 45720, Note_on_c, 2, 63, 97
4, 45736, Note_on_c, 2, 63, 0
4, 45739, Note_on_c, 2, 75, 0
4, 45755, Note_on_c, 2, 63, 85
4, 45756, Note_on_c, 2, 75, 103
4, 45772, Note_on_c, 2, 63, 0
4, 45775, Note_on_c, 2, 75, 0
4, 45796, Note_on_c, 2, 60, 82
4, 45797, Note_on_c, 2, 72, 84
4, 45809, Note_on_c, 2, 60, 0
4, 45810, Note_on_c, 2, 72, 0
4, 45835, Note_on_c, 2, 70, 118
4, 45835, Note_on_c, 2, 58, 122
4, 45871, Note_on_c, 2, 70, 0
4, 45873, Note_on_c, 2, 58, 0
4, 45908, Note_on_c, 2, 72, 113
4, 45910, Note_on_c, 2, 60, 92
4, 45915, Note_on_c, 2, 75, 85
4, 45918, Note_on_c, 2, 63, 68
4, 45931, Note_on_c, 2, 72, 0
4, 45932, Note_on_c, 2, 60, 0
4, 45954, Note_on_c, 2, 67, 87
4, 45956, Note_on_c, 2, 79, 106
4, 45958, Note_on_c, 2, 75, 0
4, 45961, Note_on_c, 2, 63, 0
4, 46008, Note_on_c, 2, 79, 0
4, 46012, Note_on_c, 2, 67, 0
4, 46028, Note_on_c, 2, 82, 118
4, 46032, Note_on_c, 2, 70, 76
4, 46072, Note_on_c, 2, 70, 0
4, 46073, Note_on_c, 2, 82, 0
4, 46081, Note_on_c, 2, 67, 103
4, 46083, Note_on_c, 2, 79, 68
4, 46116, Note_on_c, 2, 79, 0
4, 46120, Note_on_c, 2, 67, 0
4, 46160, Note_on_c, 2, 82, 127
4, 46160, Note_on_c, 2, 70, 110
4, 46211, Note_on_c, 2, 70, 0
4, 46216, Note_on_c, 2, 82, 0
4, 46277, Note_on_c, 2, 70, 92
4, 46284, Note_on_c, 2, 82, 127
4, 46315, Note_on_c, 2, 82, 0
4, 46317, Note_on_c, 2, 70, 0
4, 46324, Note_on_c, 2, 67, 65
4, 46325, Note_on_c, 2, 79, 92
4, 46375, Note_on_c, 2, 67, 0
4, 46375, Note_on_c, 2, 79, 0
4, 46396, Note_on_c, 2, 70, 100
4, 46401, Note_on_c, 2, 82, 103
4, 46419, Note_on_c, 2, 70, 0
4, 46423, Note_on_c, 2, 82, 0
4, 46443, Note_on_c, 2, 72, 122
4, 46446, Note_on_c, 2, 84, 127
4, 46487, Note_on_c, 2, 72, 0
4, 46490, Note_on_c, 2, 84, 0
4, 46505, Note_on_c, 2, 72, 85
4, 46513, Note_on_c, 2, 84, 118
4, 46537, Note_on_c, 2, 72, 0
4, 46544, Note_on_c, 2, 84, 0
4, 46552, Note_on_c, 2, 74, 94
4, 46559, Note_on_c, 2, 86, 113
4, 46608, Note_on_c, 2, 74, 0
4, 46611, Note_on_c, 2, 86, 0
4, 46626, Note_on_c, 2, 72, 100
4, 46634, Note_on_c, 2, 84, 127
4, 46703, Note_on_c, 2, 72, 0
4, 46708, Note_on_c, 2, 84, 0
4, 46743, Note_on_c, 2, 70, 87
4, 46749, Note_on_c, 2, 82, 127
4, 46915, Note_on_c, 2, 82, 0
4, 46918, Note_on_c, 2, 70, 0
4, 48723, Note_on_c, 2, 82, 127
4, 48797, Note_on_c, 2, 82, 0
4, 48803, Note_on_c, 2, 78, 106
4, 48843, Note_on_c, 2, 80, 122
4, 48854, Note_on_c, 2, 78, 0
4, 48887, Note_on_c, 2, 80, 0
4, 48922, Note_on_c, 2, 80, 118
4, 48947, Note_on_c, 2, 80, 0
4, 48961, Note_on_c, 2, 80, 127
4, 49020, Note_on_c, 2, 80, 0
4, 49044, Note_on_c, 2, 80, 118
4, 49065, Note_on_c, 2, 80, 0
4, 49080, Note_on_c, 2, 80, 127
4, 49144, Note_on_c, 2, 80, 0
4, 49163, Note_on_c, 2, 80, 97
4, 49183, Note_on_c, 2, 80, 0
4, 49199, Note_on_c, 2, 80, 127
4, 49270, Note_on_c, 2, 80, 0
4, 49285, Note_on_c, 2, 80, 100
4, 49303, Note_on_c, 2, 80, 0
4, 49324, Note_on_c, 2, 80, 127
4, 49387, Note_on_c, 2, 80, 0
4, 49408, Note_on_c, 2, 80, 106
4, 49425, Note_on_c, 2, 80, 0
4, 49440, Note_on_c, 2, 80, 127
4, 49481, Note_on_c, 2, 80, 0
4, 49517, Note_on_c, 2, 80, 127
4, 49560, Note_on_c, 2, 80, 0
4, 49640, Note_on_c, 2, 80, 127
4, 49682, Control_c, 2, 1, 0
4, 49701, Control_c, 2, 1, 30
4, 49720, Control_c, 2, 1, 60
4, 49738, Control_c, 2, 1, 90
4, 49800, Control_c, 2, 1, 0
4, 49803, Note_on_c, 2, 80, 0
4, 52510, Note_on_c, 2, 70, 127
4, 52569, Note_on_c, 2, 70, 0
4, 52631, Note_on_c, 2, 71, 127
4, 52636, Note_on_c, 2, 63, 127
4, 52768, Note_on_c, 2, 63, 0
4, 52793, Note_on_c, 2, 63, 122
4, 52798, Note_on_c, 2, 70, 127
4, 52812, Note_on_c, 2, 71, 0
4, 52857, Note_on_c, 2, 63, 0
4, 52869, Note_on_c, 2, 70, 0
4, 52914, Note_on_c, 2, 59, 127
4, 52919, Note_on_c, 2, 68, 127
4, 52981, Note_on_c, 2, 59, 0
4, 52981, Note_on_c, 2, 68, 0
4, 53040, Note_on_c, 2, 59, 127
4, 53042, Note_on_c, 2, 66, 127
4, 53087, Note_on_c, 2, 66, 0
4, 53104, Note_on_c, 2, 59, 0
4, 53122, Note_on_c, 2, 66, 100
4, 53146, Note_on_c, 2, 66, 0
4, 53158, Note_on_c, 2, 71, 127
4, 53170, Note_on_c, 2, 63, 127
4, 53214, Note_on_c, 2, 71, 0
4, 53217, Note_on_c, 2, 63, 0
4, 53234, Note_on_c, 2, 71, 110
4, 53240, Note_on_c, 2, 63, 113
4, 53262, Note_on_c, 2, 71, 0
4, 53267, Note_on_c, 2, 63, 0
4, 53279, Note_on_c, 2, 70, 127
4, 53286, Note_on_c, 2, 63, 106
4, 53330, Note_on_c, 2, 63, 0
4, 53336, Note_on_c, 2, 70, 0
4, 53359, Note_on_c, 2, 59, 127
4, 53359, Note_on_c, 2, 68, 127
4, 53423, Note_on_c, 2, 68, 0
4, 53430, Note_on_c, 2, 59, 0
4, 53519, Note_on_c, 2, 78, 118
4, 53522, Note_on_c, 2, 66, 110
4, 53564, Note_on_c, 2, 78, 0
4, 53567, Note_on_c, 2, 66, 0
4, 53601, Note_on_c, 2, 78, 97
4, 53603, Note_on_c, 2, 66, 97
4, 53642, Note_on_c, 2, 82, 118
4, 53643, Note_on_c, 2, 70, 106
4, 53651, Note_on_c, 2, 78, 0
4, 53659, Note_on_c, 2, 66, 0
4, 53700, Note_on_c, 2, 70, 0
4, 53703, Note_on_c, 2, 82, 0
4, 53716, Note_on_c, 2, 85, 127
4, 53720, Note_on_c, 2, 73, 100
4, 53743, Note_on_c, 2, 73, 0
4, 53744, Note_on_c, 2, 85, 0
4, 53760, Note_on_c, 2, 85, 94
4, 53765, Note_on_c, 2, 73, 110
4, 53816, Note_on_c, 2, 85, 0
4, 53819, Note_on_c, 2, 73, 0
4, 53837, Note_on_c, 2, 82, 122
4, 53843, Note_on_c, 2, 70, 122
4, 53865, Note_on_c, 2, 82, 0
4, 53868, Note_on_c, 2, 70, 0
4, 53882, Note_on_c, 2, 73, 118
4, 53886, Note_on_c, 2, 85, 127
4, 53975, Note_on_c, 2, 73, 0
4, 53979, Note_on_c, 2, 85, 0
4, 54001, Note_on_c, 2, 82, 127
4, 54002, Note_on_c, 2, 70, 127
4, 54061, Note_on_c, 2, 82, 0
4, 54065, Note_on_c, 2, 73, 100
4, 54069, Note_on_c, 2, 70, 0
4, 54072, Note_on_c, 2, 85, 100
4, 54090, Note_on_c, 2, 73, 0
4, 54094, Note_on_c, 2, 85, 0
4, 54120, Note_on_c, 2, 87, 127
4, 54122, Note_on_c, 2, 75, 127
4, 54204, Note_on_c, 2, 75, 0
4, 54213, Note_on_c, 2, 87, 0
4, 54241, Note_on_c, 2, 70, 122
4, 54243, Note_on_c, 2, 82, 127
4, 54285, Note_on_c, 2, 70, 0
4, 54290, Note_on_c, 2, 82, 0
4, 54308, Note_on_c, 2, 85, 127
4, 54309, Note_on_c, 2, 73, 127
4, 54526, Note_on_c, 2, 85, 0
4, 54561, Note_on_c, 2, 73, 0
4, 55082, Note_on_c, 2, 59, 127
4, 55141, Note_on_c, 2, 59, 0
4, 55206, Note_on_c, 2, 58, 127
4, 55263, Note_on_c, 2, 58, 0
4, 55329, Note_on_c, 2, 56, 127
4, 55396, Note_on_c, 2, 54, 127
4, 55397, Note_on_c, 2, 56, 0
4, 55453, Note_on_c, 2, 54, 0
4, 56530, Note_on_c, 2, 75, 100
4, 56530, Note_on_c, 2, 66, 110
4, 56530, Note_on_c, 2, 70, 118
4, 56669, Note_on_c, 2, 75, 0
4, 56669, Note_on_c, 2, 66, 0
4, 56681, Note_on_c, 2, 66, 85
4, 56681, Note_on_c, 2, 73, 110
4, 56804, Note_on_c, 2, 70, 0
4, 56819, Note_on_c, 2, 66, 0
4, 56819, Note_on_c, 2, 73, 0
4, 56838, Note_on_c, 2, 66, 110
4, 56838, Note_on_c, 2, 71, 103
4, 56838, Note_on_c, 2, 63, 113
4, 56983, Note_on_c, 2, 66, 0
4, 56986, Note_on_c, 2, 71, 0
4, 56987, Note_on_c, 2, 63, 0
4, 57001, Note_on_c, 2, 59, 103
4, 57001, Note_on_c, 2, 70, 97
4, 57001, Note_on_c, 2, 63, 90
4, 57169, Note_on_c, 2, 63, 0
4, 57179, Note_on_c, 2, 70, 0
4, 57180, Note_on_c, 2, 59, 0
4, 57183, Note_on_c, 2, 75, 100
4, 57183, Note_on_c, 2, 70, 94
4, 57183, Note_on_c, 2, 66, 118
4, 57331, Note_on_c, 2, 75, 0
4, 57331, Note_on_c, 2, 70, 0
4, 57334, Note_on_c, 2, 66, 0
4, 57366, Note_on_c, 2, 73, 92
4, 57366, Note_on_c, 2, 66, 103
4, 57539, Note_on_c, 2, 73, 0
4, 57540, Note_on_c, 2, 66, 0
4, 57575, Note_on_c, 2, 73, 87
4, 57575, Note_on_c, 2, 66, 100
4, 57575, Note_on_c, 2, 62, 100
4, 57614, Note_on_c, 2, 73, 0
4, 57614, Note_on_c, 2, 66, 0
4, 57614, Note_on_c, 2, 62, 0
4, 57615, Note_on_c, 2, 73, 68
4, 57615, Note_on_c, 2, 62, 82
4, 57615, Note_on_c, 2, 66, 84
4, 57687, Note_on_c, 2, 66, 0
4, 57688, Note_on_c, 2, 62, 0
4, 57689, Note_on_c, 2, 73, 0
4, 58029, Note_on_c, 2, 73, 103
4, 58029, Note_on_c, 2, 65, 92
4, 58191, Note_on_c, 2, 65, 0
4, 58192, Note_on_c, 2, 73, 0
4, 58245, Note_on_c, 2, 77, 90
4, 58245, Note_on_c, 2, 70, 113
4, 58420, Note_on_c, 2, 77, 0
4, 58420, Note_on_c, 2, 70, 0
4, 58446, Note_on_c, 2, 68, 127
4, 58446, Note_on_c, 2, 77, 77
4, 58652, Note_on_c, 2, 65, 72
4, 58653, Note_on_c, 2, 73, 92
4, 58665, Note_on_c, 2, 68, 0
4, 58666, Note_on_c, 2, 77, 0
4, 58840, Note_on_c, 2, 65, 0
4, 58846, Note_on_c, 2, 73, 0
4, 58885, Note_on_c, 2, 70, 113
4, 58885, Note_on_c, 2, 78, 92
4, 59099, Note_on_c, 2, 78, 0
4, 59101, Note_on_c, 2, 70, 0
4, 59128, Note_on_c, 2, 66, 97
4, 59128, Note_on_c, 2, 75, 87
4, 59351, Note_on_c, 2, 75, 0
4, 59352, Note_on_c, 2, 66, 0
4, 59387, Note_on_c, 2, 78, 122
4, 59387, Note_on_c, 2, 65, 103
4, 59413, Note_on_c, 2, 78, 0
4, 59417, Note_on_c, 2, 65, 0
4, 59432, Note_on_c, 2, 66, 103
4, 59432, Note_on_c, 2, 77, 94
4, 59478, Note_on_c, 2, 66, 0
4, 59478, Note_on_c, 2, 77, 0
4, 59850, Note_on_c, 2, 65, 64
4, 59850, Note_on_c, 2, 78, 73
4, 59902, Note_on_c, 2, 78, 0
4, 59903, Note_on_c, 2, 65, 0
4, 59960, Note_on_c, 2, 66, 67
4, 59960, Note_on_c, 2, 70, 68
4, 59960, Note_on_c, 2, 65, 63
4, 60044, Note_on_c, 2, 65, 0
4, 60049, Note_on_c, 2, 70, 0
4, 60052, Note_on_c, 2, 66, 0
4, 60088, Note_on_c, 2, 66, 77
4, 60088, Note_on_c, 2, 75, 85
4, 60288, Note_on_c, 2, 75, 0
4, 60299, Note_on_c, 2, 66, 0
4, 60358, Note_on_c, 2, 73, 80
4, 60358, Note_on_c, 2, 65, 92
4, 60581, Note_on_c, 2, 65, 0
4, 60582, Note_on_c, 2, 73, 0
4, 60594, Note_on_c, 2, 71, 63
4, 60594, Note_on_c, 2, 63, 80
4, 60838, Note_on_c, 2, 71, 0
4, 60844, Note_on_c, 2, 63, 0
4, 60852, Note_on_c, 2, 63, 97
4, 60852, Note_on_c, 2, 72, 103
4, 61025, Note_on_c, 2, 72, 0
4, 61026, Note_on_c, 2, 63, 0
4, 61119, Note_on_c, 2, 66, 97
4, 61119, Note_on_c, 2, 73, 74
4, 61317, Note_on_c, 2, 66, 0
4, 61380, Note_on_c, 2, 65, 92
4, 61425, Note_on_c, 2, 65, 0
4, 61492, Note_on_c, 2, 63, 77
4, 61540, Note_on_c, 2, 63, 0
4, 61617, Note_on_c, 2, 65, 77
4, 62282, Note_on_c, 2, 73, 0
4, 62290, Note_on_c, 2, 65, 0
4, 63127, Note_on_c, 2, 73, 127
4, 63153, Note_on_c, 2, 73, 0
4, 63197, Note_on_c, 2, 73, 122
4, 63218, Note_on_c, 2, 73, 0
4, 63243, Note_on_c, 2, 71, 127
4, 63245, Note_on_c, 2, 63, 78
4, 63353, Note_on_c, 2, 71, 0
4, 63355, Note_on_c, 2, 63, 0
4, 63364, Note_on_c, 2, 63, 94
4, 63365, Note_on_c, 2, 70, 103
4, 63465, Note_on_c, 2, 70, 0
4, 63468, Note_on_c, 2, 63, 0
4, 63483, Note_on_c, 2, 68, 110
4, 63483, Note_on_c, 2, 59, 110
4, 63531, Note_on_c, 2, 68, 0
4, 63537, Note_on_c, 2, 59, 0
4, 63555, Note_on_c, 2, 66, 103
4, 63557, Note_on_c, 2, 59, 100
4, 63613, Note_on_c, 2, 66, 0
4, 63615, Note_on_c, 2, 59, 0
4, 63674, Note_on_c, 2, 61, 106
4, 63675, Note_on_c, 2, 68, 127
4, 64207, Note_on_c, 2, 68, 0
4, 64208, Note_on_c, 2, 61, 0
4, 70440, Program_c, 2, 59
4, 70515, Note_on_c, 2, 76, 127
4, 70547, Note_on_c, 2, 76, 0
4, 70628, Note_on_c, 2, 76, 127
4, 70662, Note_on_c, 2, 76, 0
4, 70752, Note_on_c, 2, 76, 127
4, 70781, Note_on_c, 2, 76, 0
4, 70877, Note_on_c, 2, 76, 127
4, 70904, Note_on_c, 2, 76, 0
4, 70999, Note_on_c, 2, 81, 127
4, 71039, Note_on_c, 2, 81, 0
4, 71041, Note_on_c, 2, 76, 127
4, 71216, Control_c, 2, 1, 1
4, 71231, Control_c, 2, 1, 5
4, 71246, Control_c, 2, 1, 9
4, 71262, Control_c, 2, 1, 13
4, 71277, Control_c, 2, 1, 17
4, 71292, Control_c, 2, 1, 21
4, 71307, Control_c, 2, 1, 25
4, 71323, Control_c, 2, 1, 30
4, 71338, Control_c, 2, 1, 34
4, 71353, Control_c, 2, 1, 38
4, 71368, Control_c, 2, 1, 42
4, 71384, Control_c, 2, 1, 46
4, 71399, Control_c, 2, 1, 50
4, 71582, Note_on_c, 2, 76, 0
4, 71584, Control_c, 2, 1, 0
4, 71586, Note_on_c, 2, 74, 127
4, 71628, Note_on_c, 2, 74, 0
4, 71635, Note_on_c, 2, 73, 106
4, 71696, Note_on_c, 2, 73, 0
4, 71703, Note_on_c, 2, 74, 127
4, 71745, Note_on_c, 2, 74, 0
4, 71756, Note_on_c, 2, 76, 127
4, 71795, Note_on_c, 2, 76, 0
4, 72306, Note_on_c, 2, 76, 127
4, 72327, Note_on_c, 2, 76, 0
4, 72334, Note_on_c, 2, 81, 127
4, 72363, Note_on_c, 2, 76, 127
4, 72372, Note_on_c, 2, 81, 0
4, 72595, Note_on_c, 2, 74, 103
4, 72596, Note_on_c, 2, 76, 0
4, 72652, Note_on_c, 2, 74, 0
4, 72725, Note_on_c, 2, 73, 122
4, 72773, Note_on_c, 2, 73, 0
4, 72850, Note_on_c, 2, 71, 113
4, 72928, Note_on_c, 2, 71, 0
4, 72931, Note_on_c, 2, 73, 76
4, 72988, Note_on_c, 2, 73, 0
4, 73050, Note_on_c, 2, 69, 113
4, 73104, Note_on_c, 2, 69, 0
4, 73157, Note_on_c, 2, 71, 74
4, 73214, Note_on_c, 2, 71, 0
4, 73272, Note_on_c, 2, 73, 94
4, 73324, Note_on_c, 2, 73, 0
4, 73387, Note_on_c, 2, 74, 106
4, 73436, Note_on_c, 2, 73, 92
4, 73448, Note_on_c, 2, 74, 0
4, 73505, Note_on_c, 2, 73, 0
4, 73512, Note_on_c, 2, 71, 72
4, 73562, Note_on_c, 2, 69, 113
4, 73565, Note_on_c, 2, 71, 0
4, 73620, Note_on_c, 2, 69, 0
4, 73633, Note_on_c, 2, 71, 68
4, 73674, Note_on_c, 2, 71, 0
4, 73675, Note_on_c, 2, 73, 110
4, 73729, Note_on_c, 2, 73, 0
4, 73984, Note_on_c, 2, 77, 113
4, 74007, Note_on_c, 2, 77, 0
4, 74014, Note_on_c, 2, 78, 118
4, 74034, Note_on_c, 2, 77, 82
4, 74036, Control_c, 2, 1, 1
4, 74049, Note_on_c, 2, 78, 0
4, 74051, Control_c, 2, 1, 5
4, 74066, Control_c, 2, 1, 9
4, 74082, Control_c, 2, 1, 13
4, 74097, Control_c, 2, 1, 17
4, 74112, Control_c, 2, 1, 21
4, 74127, Control_c, 2, 1, 25
4, 74143, Control_c, 2, 1, 30
4, 74158, Control_c, 2, 1, 34
4, 74173, Control_c, 2, 1, 38
4, 74188, Control_c, 2, 1, 42
4, 74204, Control_c, 2, 1, 46
4, 74219, Control_c, 2, 1, 50
4, 74512, Control_c, 2, 1, 0
4, 74514, Note_on_c, 2, 73, 106
4, 74516, Note_on_c, 2, 77, 0
4, 74609, Note_on_c, 2, 73, 0
4, 74963, Note_on_c, 2, 77, 127
4, 75011, Note_on_c, 2, 77, 0
4, 75080, Note_on_c, 2, 80, 100
4, 75131, Note_on_c, 2, 80, 0
4, 75196, Note_on_c, 2, 77, 97
4, 75230, Note_on_c, 2, 77, 0
4, 75242, Note_on_c, 2, 73, 97
4, 75483, Note_on_c, 2, 70, 87
4, 75485, Note_on_c, 2, 73, 0
4, 75552, Note_on_c, 2, 70, 0
4, 75553, Note_on_c, 2, 71, 87
4, 75599, Note_on_c, 2, 71, 0
4, 75601, Note_on_c, 2, 73, 110
4, 75653, Note_on_c, 2, 73, 0
4, 75720, Program_c, 2, 56
4, 75800, Note_on_c, 2, 58, 100
4, 75839, Note_on_c, 2, 58, 0
4, 75840, Note_on_c, 2, 60, 100
4, 75912, Note_on_c, 2, 60, 0
4, 75920, Note_on_c, 2, 62, 100
4, 75953, Note_on_c, 2, 62, 0
4, 75960, Note_on_c, 2, 64, 100
4, 76026, Note_on_c, 2, 64, 0
4, 76080, Note_on_c, 2, 66, 100
4, 76142, Note_on_c, 2, 66, 0
4, 76200, Note_on_c, 2, 68, 100
4, 76263, Note_on_c, 2, 68, 0
4, 76280, Note_on_c, 2, 70, 100
4, 76333, Note_on_c, 2, 70, 0
4, 76400, Note_on_c, 2, 71, 100
4, 76462, Note_on_c, 2, 71, 0
4, 76560, Note_on_c, 2, 73, 100
4, 77199, Note_on_c, 2, 73, 0
4, 77794, Control_c, 2, 11, 100
4, 77795, Note_on_c, 2, 60, 67
4, 77796, Note_on_c, 2, 69, 69
4, 77798, Note_on_c, 2, 65, 99
4, 77810, Control_c, 2, 11, 101
4, 77825, Control_c, 2, 11, 103
4, 77841, Control_c, 2, 11, 104
4, 77857, Control_c, 2, 11, 105
4, 77872, Control_c, 2, 11, 107
4, 77888, Control_c, 2, 11, 108
4, 77904, Control_c, 2, 11, 109
4, 77919, Control_c, 2, 11, 111
4, 77935, Control_c, 2, 11, 112
4, 77951, Control_c, 2, 11, 114
4, 77966, Control_c, 2, 11, 115
4, 77982, Control_c, 2, 11, 116
4, 77997, Control_c, 2, 11, 118
4, 78013, Control_c, 2, 11, 119
4, 78029, Control_c, 2, 11, 120
4, 78044, Control_c, 2, 11, 122
4, 78060, Control_c, 2, 11, 123
4, 78076, Control_c, 2, 11, 124
4, 78091, Control_c, 2, 11, 126
4, 78353, Control_c, 2, 11, 125
4, 78368, Control_c, 2, 11, 123
4, 78384, Control_c, 2, 11, 122
4, 78399, Control_c, 2, 11, 120
4, 78414, Control_c, 2, 11, 119
4, 78429, Control_c, 2, 11, 117
4, 78445, Control_c, 2, 11, 116
4, 78460, Control_c, 2, 11, 114
4, 78475, Control_c, 2, 11, 112
4, 78490, Control_c, 2, 11, 111
4, 78531, Control_c, 2, 11, 110
4, 78572, Control_c, 2, 11, 109
4, 78613, Control_c, 2, 11, 108
4, 78654, Control_c, 2, 11, 107
4, 78696, Control_c, 2, 11, 106
4, 78737, Control_c, 2, 11, 105
4, 78778, Control_c, 2, 11, 104
4, 78819, Control_c, 2, 11, 103
4, 78860, Control_c, 2, 11, 102
4, 78901, Control_c, 2, 11, 101
4, 78942, Control_c, 2, 11, 100
4, 78983, Control_c, 2, 11, 99
4, 79025, Control_c, 2, 11, 98
4, 79066, Control_c, 2, 11, 97
4, 79107, Control_c, 2, 11, 96
4, 79148, Control_c, 2, 11, 95
4, 79189, Control_c, 2, 11, 94
4, 79230, Control_c, 2, 11, 93
4, 79271, Control_c, 2, 11, 92
4, 79312, Control_c, 2, 11, 91
4, 79353, Control_c, 2, 11, 90
4, 79395, Control_c, 2, 11, 89
4, 79436, Control_c, 2, 11, 88
4, 79477, Control_c, 2, 11, 87
4, 79518, Control_c, 2, 11, 86
4, 79559, Note_on_c, 2, 60, 0
4, 79559, Note_on_c, 2, 69, 0
4, 79559, Note_on_c, 2, 65, 0
4, 79559, Control_c, 2, 11, 85
4, 80171, Control_c, 2, 11, 127
4, 80171, End_track
5, 0, Start_track
5, 0, Title_t, "trumpet II"
5, 0, MIDI_port, 0
5, 0, Program_c, 13, 56
5, 1, Control_c, 13, 101, 0
5, 2, Control_c, 13, 100, 1
5, 3, Control_c, 13, 6, 68
5, 4, Control_c, 13, 38, 0
5, 5, Control_c, 13, 101, 127
5, 6, Control_c, 13, 100, 127
5, 7, Control_c, 13, 10, 0
5, 8, Control_c, 13, 7, 127
5, 12, Control_c, 13, 91, 63
5, 13927, Note_on_c, 13, 67, 127
5, 13984, Note_on_c, 13, 67, 0
5, 14051, Note_on_c, 13, 66, 127
5, 14098, Note_on_c, 13, 66, 0
5, 14176, Note_on_c, 13, 64, 127
5, 14220, Note_on_c, 13, 64, 0
5, 14292, Note_on_c, 13, 62, 127
5, 14332, Note_on_c, 13, 62, 0
5, 14414, Note_on_c, 13, 67, 127
5, 14491, Note_on_c, 13, 67, 0
5, 14493, Note_on_c, 13, 66, 127
5, 14530, Note_on_c, 13, 66, 0
5, 14602, Note_on_c, 13, 64, 127
5, 14630, Note_on_c, 13, 64, 0
5, 14842, Note_on_c, 13, 69, 113
5, 14842, Note_on_c, 13, 73, 127
5, 14887, Control_c, 13, 11, 100
5, 15260, Note_on_c, 13, 69, 0
5, 15260, Note_on_c, 13, 73, 0
5, 15319, Note_on_c, 13, 74, 122
5, 15319, Note_on_c, 13, 71, 100
5, 15434, Control_c, 13, 11, 81
5, 15449, Control_c, 13, 11, 83
5, 15465, Control_c, 13, 11, 85
5, 15480, Control_c, 13, 11, 87
5, 15496, Control_c, 13, 11, 89
5, 15511, Control_c, 13, 11, 91
5, 15527, Control_c, 13, 11, 93
5, 15542, Control_c, 13, 11, 94
5, 15558, Control_c, 13, 11, 96
5, 15573, Control_c, 13, 11, 98
5, 15589, Control_c, 13, 11, 100
5, 15604, Control_c, 13, 11, 102
5, 15620, Control_c, 13, 11, 104
5, 15635, Control_c, 13, 11, 106
5, 15650, Control_c, 13, 11, 108
5, 15666, Control_c, 13, 11, 110
5, 15681, Control_c, 13, 11, 112
5, 15697, Control_c, 13, 11, 114
5, 15712, Control_c, 13, 11, 116
5, 15728, Control_c, 13, 11, 117
5, 15743, Control_c, 13, 11, 119
5, 15759, Control_c, 13, 11, 121
5, 15774, Control_c, 13, 11, 123
5, 15790, Control_c, 13, 11, 125
5, 15805, Control_c, 13, 11, 127
5, 15825, Note_on_c, 13, 74, 0
5, 15830, Note_on_c, 13, 71, 0
5, 15969, Note_on_c, 13, 71, 106
5, 15971, Note_on_c, 13, 76, 106
5, 16001, Note_on_c, 13, 71, 0
5, 16004, Note_on_c, 13, 76, 0
5, 16159, Note_on_c, 13, 71, 113
5, 16161, Note_on_c, 13, 76, 97
5, 16188, Note_on_c, 13, 71, 0
5, 16195, Note_on_c, 13, 76, 0
5, 16580, Note_on_c, 13, 76, 100
5, 16581, Note_on_c, 13, 71, 94
5, 16632, Note_on_c, 13, 76, 0
5, 16634, Note_on_c, 13, 71, 0
5, 16654, Note_on_c, 13, 71, 103
5, 16655, Note_on_c, 13, 76, 103
5, 16697, Note_on_c, 13, 76, 0
5, 16698, Note_on_c, 13, 71, 0
5, 16877, Note_on_c, 13, 68, 110
5, 16879, Note_on_c, 13, 76, 103
5, 17029, Note_on_c, 13, 68, 0
5, 17029, Note_on_c, 13, 76, 0
5, 17059, Note_on_c, 13, 67, 76
5, 17060, Note_on_c, 13, 76, 110
5, 17247, Note_on_c, 13, 76, 0
5, 17251, Note_on_c, 13, 67, 0
5, 17291, Note_on_c, 13, 74, 100
5, 17293, Note_on_c, 13, 66, 127
5, 17434, Note_on_c, 13, 66, 0
5, 17437, Note_on_c, 13, 74, 0
5, 17476, Note_on_c, 13, 65, 90
5, 17476, Note_on_c, 13, 74, 94
5, 17559, Note_on_c, 13, 65, 0
5, 17570, Note_on_c, 13, 74, 0
5, 17652, Note_on_c, 13, 74, 97
5, 17652, Note_on_c, 13, 64, 103
5, 18244, Note_on_c, 13, 64, 0
5, 18246, Note_on_c, 13, 74, 0
5, 28687, Note_on_c, 13, 67, 127
5, 28744, Note_on_c, 13, 67, 0
5, 28811, Note_on_c, 13, 66, 127
5, 28858, Note_on_c, 13, 66, 0
5, 28936, Note_on_c, 13, 64, 127
5, 28980, Note_on_c, 13, 64, 0
5, 29052, Note_on_c, 13, 62, 127
5, 29092, Note_on_c, 13, 62, 0
5, 29174, Note_on_c, 13, 67, 127
5, 29251, Note_on_c, 13, 67, 0
5, 29253, Note_on_c, 13, 66, 127
5, 29290, Note_on_c, 13, 66, 0
5, 29362, Note_on_c, 13, 64, 127
5, 29390, Note_on_c, 13, 64, 0
5, 29602, Note_on_c, 13, 73, 127
5, 29602, Note_on_c, 13, 69, 113
5, 29647, Control_c, 13, 11, 100
5, 30020, Note_on_c, 13, 73, 0
5, 30020, Note_on_c, 13, 69, 0
5, 30079, Note_on_c, 13, 74, 122
5, 30079, Note_on_c, 13, 71, 100
5, 30194, Control_c, 13, 11, 81
5, 30209, Control_c, 13, 11, 83
5, 30225, Control_c, 13, 11, 85
5, 30240, Control_c, 13, 11, 87
5, 30256, Control_c, 13, 11, 89
5, 30271, Control_c, 13, 11, 91
5, 30287, Control_c, 13, 11, 93
5, 30302, Control_c, 13, 11, 94
5, 30318, Control_c, 13, 11, 96
5, 30333, Control_c, 13, 11, 98
5, 30349, Control_c, 13, 11, 100
5, 30364, Control_c, 13, 11, 102
5, 30380, Control_c, 13, 11, 104
5, 30395, Control_c, 13, 11, 106
5, 30410, Control_c, 13, 11, 108
5, 30426, Control_c, 13, 11, 110
5, 30441, Control_c, 13, 11, 112
5, 30457, Control_c, 13, 11, 114
5, 30472, Control_c, 13, 11, 116
5, 30488, Control_c, 13, 11, 117
5, 30503, Control_c, 13, 11, 119
5, 30519, Control_c, 13, 11, 121
5, 30534, Control_c, 13, 11, 123
5, 30550, Control_c, 13, 11, 125
5, 30565, Control_c, 13, 11, 127
5, 30585, Note_on_c, 13, 74, 0
5, 30590, Note_on_c, 13, 71, 0
5, 30729, Note_on_c, 13, 71, 106
5, 30731, Note_on_c, 13, 76, 106
5, 30761, Note_on_c, 13, 71, 0
5, 30764, Note_on_c, 13, 76, 0
5, 30919, Note_on_c, 13, 71, 113
5, 30921, Note_on_c, 13, 76, 97
5, 30948, Note_on_c, 13, 71, 0
5, 30955, Note_on_c, 13, 76, 0
5, 31340, Note_on_c, 13, 76, 100
5, 31341, Note_on_c, 13, 71, 94
5, 31392, Note_on_c, 13, 76, 0
5, 31394, Note_on_c, 13, 71, 0
5, 31414, Note_on_c, 13, 71, 103
5, 31415, Note_on_c, 13, 76, 103
5, 31457, Note_on_c, 13, 76, 0
5, 31458, Note_on_c, 13, 71, 0
5, 31637, Note_on_c, 13, 68, 110
5, 31639, Note_on_c, 13, 76, 103
5, 31789, Note_on_c, 13, 68, 0
5, 31789, Note_on_c, 13, 76, 0
5, 31819, Note_on_c, 13, 67, 76
5, 31820, Note_on_c, 13, 76, 110
5, 32007, Note_on_c, 13, 76, 0
5, 32011, Note_on_c, 13, 67, 0
5, 32051, Note_on_c, 13, 74, 100
5, 32053, Note_on_c, 13, 66, 127
5, 32194, Note_on_c, 13, 66, 0
5, 32197, Note_on_c, 13, 74, 0
5, 32236, Note_on_c, 13, 65, 90
5, 32236, Note_on_c, 13, 74, 94
5, 32319, Note_on_c, 13, 65, 0
5, 32330, Note_on_c, 13, 74, 0
5, 32412, Note_on_c, 13, 74, 97
5, 32412, Note_on_c, 13, 64, 103
5, 33004, Note_on_c, 13, 64, 0
5, 33006, Note_on_c, 13, 74, 0
5, 40287, Note_on_c, 13, 55, 100
5, 40326, Note_on_c, 13, 55, 0
5, 40327, Note_on_c, 13, 57, 100
5, 40399, Note_on_c, 13, 57, 0
5, 40407, Note_on_c, 13, 59, 100
5, 40440, Note_on_c, 13, 59, 0
5, 40447, Note_on_c, 13, 61, 100
5, 40513, Note_on_c, 13, 61, 0
5, 40567, Note_on_c, 13, 63, 100
5, 40629, Note_on_c, 13, 63, 0
5, 40687, Note_on_c, 13, 65, 100
5, 40750, Note_on_c, 13, 65, 0
5, 40767, Note_on_c, 13, 67, 100
5, 40820, Note_on_c, 13, 67, 0
5, 40887, Note_on_c, 13, 68, 100
5, 40949, Note_on_c, 13, 68, 0
5, 41007, Note_on_c, 13, 70, 100
5, 41075, Note_on_c, 13, 70, 0
5, 41247, Note_on_c, 13, 60, 100
5, 41287, Note_on_c, 13, 62, 100
5, 41297, Note_on_c, 13, 60, 0
5, 41367, Note_on_c, 13, 64, 100
5, 41383, Note_on_c, 13, 62, 0
5, 41398, Note_on_c, 13, 64, 0
5, 41407, Note_on_c, 13, 66, 100
5, 41471, Note_on_c, 13, 66, 0
5, 41527, Note_on_c, 13, 68, 100
5, 41586, Note_on_c, 13, 68, 0
5, 41647, Note_on_c, 13, 70, 100
5, 41719, Note_on_c, 13, 70, 0
5, 41727, Note_on_c, 13, 72, 100
5, 41771, Note_on_c, 13, 72, 0
5, 41847, Note_on_c, 13, 73, 100
5, 41894, Note_on_c, 13, 73, 0
5, 41967, Note_on_c, 13, 75, 100
5, 42138, Note_on_c, 13, 75, 0
5, 43407, Note_on_c, 13, 75, 127
5, 43407, Note_on_c, 13, 63, 100
5, 43429, Note_on_c, 13, 63, 0
5, 43430, Note_on_c, 13, 75, 0
5, 43891, Note_on_c, 13, 75, 127
5, 43891, Note_on_c, 13, 63, 94
5, 43912, Note_on_c, 13, 63, 0
5, 43915, Note_on_c, 13, 75, 0
5, 43927, Note_on_c, 13, 60, 80
5, 43930, Note_on_c, 13, 72, 73
5, 43940, Note_on_c, 13, 72, 0
5, 43942, Note_on_c, 13, 60, 0
5, 44011, Note_on_c, 13, 75, 127
5, 44013, Note_on_c, 13, 63, 110
5, 44027, Note_on_c, 13, 63, 0
5, 44028, Note_on_c, 13, 75, 0
5, 44844, Note_on_c, 13, 70, 127
5, 44844, Note_on_c, 13, 58, 110
5, 44859, Note_on_c, 13, 58, 0
5, 44860, Note_on_c, 13, 70, 0
5, 44961, Note_on_c, 13, 70, 127
5, 44961, Note_on_c, 13, 58, 122
5, 44976, Note_on_c, 13, 70, 0
5, 44976, Note_on_c, 13, 58, 0
5, 45610, Note_on_c, 13, 75, 94
5, 45612, Note_on_c, 13, 63, 62
5, 45636, Note_on_c, 13, 63, 0
5, 45637, Note_on_c, 13, 75, 0
5, 45648, Note_on_c, 13, 63, 78
5, 45648, Note_on_c, 13, 75, 76
5, 45668, Note_on_c, 13, 63, 0
5, 45671, Note_on_c, 13, 75, 0
5, 45683, Note_on_c, 13, 60, 94
5, 45686, Note_on_c, 13, 72, 66
5, 45699, Note_on_c, 13, 72, 0
5, 45700, Note_on_c, 13, 60, 0
5, 45726, Note_on_c, 13, 75, 127
5, 45727, Note_on_c, 13, 63, 97
5, 45743, Note_on_c, 13, 63, 0
5, 45746, Note_on_c, 13, 75, 0
5, 45762, Note_on_c, 13, 63, 85
5, 45763, Note_on_c, 13, 75, 103
5, 45779, Note_on_c, 13, 63, 0
5, 45782, Note_on_c, 13, 75, 0
5, 45803, Note_on_c, 13, 60, 82
5, 45804, Note_on_c, 13, 72, 84
5, 45816, Note_on_c, 13, 60, 0
5, 45817, Note_on_c, 13, 72, 0
5, 45842, Note_on_c, 13, 70, 118
5, 45842, Note_on_c, 13, 58, 122
5, 45878, Note_on_c, 13, 70, 0
5, 45880, Note_on_c, 13, 58, 0
5, 45915, Note_on_c, 13, 72, 113
5, 45917, Note_on_c, 13, 60, 92
5, 45938, Note_on_c, 13, 72, 0
5, 45939, Note_on_c, 13, 60, 0
5, 52526, Note_on_c, 13, 82, 127
5, 52587, Note_on_c, 13, 82, 0
5, 52643, Note_on_c, 13, 83, 127
5, 52802, Note_on_c, 13, 82, 127
5, 52819, Note_on_c, 13, 83, 0
5, 52856, Note_on_c, 13, 82, 0
5, 52922, Note_on_c, 13, 80, 127
5, 52971, Note_on_c, 13, 80, 0
5, 53037, Note_on_c, 13, 78, 127
5, 53073, Note_on_c, 13, 78, 0
5, 53130, Note_on_c, 13, 78, 127
5, 53156, Note_on_c, 13, 83, 122
5, 53167, Note_on_c, 13, 78, 0
5, 53210, Note_on_c, 13, 83, 0
5, 53232, Note_on_c, 13, 83, 118
5, 53258, Note_on_c, 13, 83, 0
5, 53272, Note_on_c, 13, 82, 127
5, 53276, Note_on_c, 13, 83, 74
5, 53287, Note_on_c, 13, 83, 0
5, 53335, Note_on_c, 13, 82, 0
5, 53359, Note_on_c, 13, 80, 127
5, 53411, Note_on_c, 13, 80, 0
5, 53520, Note_on_c, 13, 78, 118
5, 53565, Note_on_c, 13, 78, 0
5, 53602, Note_on_c, 13, 78, 97
5, 53643, Note_on_c, 13, 82, 118
5, 53652, Note_on_c, 13, 78, 0
5, 53704, Note_on_c, 13, 82, 0
5, 53717, Note_on_c, 13, 85, 127
5, 53745, Note_on_c, 13, 85, 0
5, 53761, Note_on_c, 13, 85, 94
5, 53817, Note_on_c, 13, 85, 0
5, 53838, Note_on_c, 13, 82, 122
5, 53866, Note_on_c, 13, 82, 0
5, 53887, Note_on_c, 13, 85, 127
5, 53980, Note_on_c, 13, 85, 0
5, 54002, Note_on_c, 13, 82, 127
5, 54062, Note_on_c, 13, 82, 0
5, 54073, Note_on_c, 13, 85, 100
5, 54095, Note_on_c, 13, 85, 0
5, 54121, Note_on_c, 13, 87, 127
5, 54214, Note_on_c, 13, 87, 0
5, 54244, Note_on_c, 13, 82, 127
5, 54291, Note_on_c, 13, 82, 0
5, 54309, Note_on_c, 13, 85, 127
5, 54527, Note_on_c, 13, 85, 0
5, 58079, Note_on_c, 13, 82, 127
5, 58079, Pitch_bend_c, 13, 4153
5, 58094, Pitch_bend_c, 13, 6173
5, 58109, Pitch_bend_c, 13, 8192
5, 58246, Note_on_c, 13, 85, 106
5, 58260, Note_on_c, 13, 82, 0
5, 58441, Note_on_c, 13, 85, 0
5, 58463, Note_on_c, 13, 85, 97
5, 58667, Note_on_c, 13, 82, 110
5, 58680, Note_on_c, 13, 85, 0
5, 58859, Note_on_c, 13, 82, 0
5, 58885, Pitch_bend_c, 13, 4153
5, 58885, Note_on_c, 13, 87, 127
5, 58900, Pitch_bend_c, 13, 6173
5, 58915, Pitch_bend_c, 13, 8192
5, 59109, Note_on_c, 13, 87, 0
5, 59137, Note_on_c, 13, 85, 127
5, 59386, Note_on_c, 13, 85, 0
5, 59387, Note_on_c, 13, 82, 127
5, 59413, Note_on_c, 13, 82, 0
5, 59432, Note_on_c, 13, 82, 127
5, 59476, Note_on_c, 13, 82, 0
5, 59850, Note_on_c, 13, 85, 127
5, 59892, Note_on_c, 13, 85, 0
5, 59960, Note_on_c, 13, 85, 127
5, 60006, Note_on_c, 13, 85, 0
5, 60088, Note_on_c, 13, 83, 127
5, 60303, Note_on_c, 13, 83, 0
5, 60356, Note_on_c, 13, 82, 127
5, 60598, Note_on_c, 13, 82, 0
5, 60613, Note_on_c, 13, 80, 118
5, 60854, Note_on_c, 13, 80, 0
5, 60889, Note_on_c, 13, 78, 127
5, 61099, Note_on_c, 13, 78, 0
5, 61158, Note_on_c, 13, 73, 113
5, 62322, Note_on_c, 13, 73, 0
5, 63132, Note_on_c, 13, 85, 127
5, 63157, Note_on_c, 13, 85, 0
5, 63210, Note_on_c, 13, 85, 127
5, 63232, Note_on_c, 13, 85, 0
5, 63242, Note_on_c, 13, 83, 127
5, 63326, Note_on_c, 13, 83, 0
5, 63360, Note_on_c, 13, 82, 127
5, 63440, Note_on_c, 13, 82, 0
5, 63490, Note_on_c, 13, 80, 127
5, 63517, Note_on_c, 13, 80, 0
5, 63567, Note_on_c, 13, 78, 127
5, 63611, Note_on_c, 13, 78, 0
5, 63686, Note_on_c, 13, 80, 127
5, 64191, Note_on_c, 13, 80, 0
5, 75807, Note_on_c, 13, 58, 100
5, 75846, Note_on_c, 13, 58, 0
5, 75847, Note_on_c, 13, 60, 100
5, 75919, Note_on_c, 13, 60, 0
5, 75927, Note_on_c, 13, 62, 100
5, 75960, Note_on_c, 13, 62, 0
5, 75967, Note_on_c, 13, 64, 100
5, 76033, Note_on_c, 13, 64, 0
5, 76087, Note_on_c, 13, 66, 100
5, 76149, Note_on_c, 13, 66, 0
5, 76207, Note_on_c, 13, 68, 100
5, 76270, Note_on_c, 13, 68, 0
5, 76287, Note_on_c, 13, 70, 100
5, 76340, Note_on_c, 13, 70, 0
5, 76407, Note_on_c, 13, 71, 100
5, 76469, Note_on_c, 13, 71, 0
5, 76567, Note_on_c, 13, 73, 100
5, 76680, Control_c, 13, 101, 0
5, 76681, Control_c, 13, 100, 1
5, 76682, Control_c, 13, 6, 64
5, 76683, Control_c, 13, 38, 0
5, 76684, Control_c, 13, 101, 127
5, 76685, Control_c, 13, 100, 127
5, 77206, Note_on_c, 13, 73, 0
5, 77206, End_track
6, 0, Start_track
6, 0, Title_t, "trombone"
6, 0, MIDI_port, 0
6, 0, Program_c, 7, 57
6, 2, Control_c, 7, 7, 127
6, 10, Control_c, 7, 91, 63
6, 1350, Control_c, 7, 10, 64
6, 14725, Note_on_c, 7, 55, 127
6, 14753, Note_on_c, 7, 55, 0
6, 14838, Note_on_c, 7, 54, 127
6, 14880, Control_c, 7, 11, 100
6, 15237, Note_on_c, 7, 54, 0
6, 15309, Note_on_c, 7, 47, 127
6, 15427, Control_c, 7, 11, 81
6, 15442, Control_c, 7, 11, 83
6, 15458, Control_c, 7, 11, 85
6, 15473, Control_c, 7, 11, 87
6, 15489, Control_c, 7, 11, 89
6, 15504, Control_c, 7, 11, 91
6, 15520, Control_c, 7, 11, 93
6, 15535, Control_c, 7, 11, 94
6, 15551, Control_c, 7, 11, 96
6, 15566, Control_c, 7, 11, 98
6, 15582, Control_c, 7, 11, 100
6, 15597, Control_c, 7, 11, 102
6, 15613, Control_c, 7, 11, 104
6, 15628, Control_c, 7, 11, 106
6, 15643, Control_c, 7, 11, 108
6, 15659, Control_c, 7, 11, 110
6, 15674, Control_c, 7, 11, 112
6, 15690, Control_c, 7, 11, 114
6, 15705, Control_c, 7, 11, 116
6, 15721, Control_c, 7, 11, 117
6, 15736, Control_c, 7, 11, 119
6, 15752, Control_c, 7, 11, 121
6, 15767, Control_c, 7, 11, 123
6, 15783, Control_c, 7, 11, 125
6, 15798, Control_c, 7, 11, 127
6, 15826, Note_on_c, 7, 52, 118
6, 15840, Note_on_c, 7, 47, 0
6, 15870, Note_on_c, 7, 52, 0
6, 15949, Note_on_c, 7, 52, 127
6, 16005, Note_on_c, 7, 52, 0
6, 16400, Note_on_c, 7, 40, 100
6, 16439, Note_on_c, 7, 43, 127
6, 16449, Note_on_c, 7, 40, 0
6, 16509, Note_on_c, 7, 43, 0
6, 16524, Note_on_c, 7, 45, 127
6, 16573, Note_on_c, 7, 45, 0
6, 16642, Note_on_c, 7, 45, 127
6, 16697, Note_on_c, 7, 45, 0
6, 16876, Note_on_c, 7, 49, 127
6, 17017, Note_on_c, 7, 49, 0
6, 17049, Note_on_c, 7, 48, 127
6, 17230, Note_on_c, 7, 48, 0
6, 17277, Note_on_c, 7, 47, 127
6, 17427, Note_on_c, 7, 47, 0
6, 17470, Note_on_c, 7, 46, 127
6, 17564, Note_on_c, 7, 46, 0
6, 17642, Note_on_c, 7, 45, 127
6, 18227, Note_on_c, 7, 45, 0
6, 29485, Note_on_c, 7, 55, 127
6, 29513, Note_on_c, 7, 55, 0
6, 29598, Note_on_c, 7, 54, 127
6, 29640, Control_c, 7, 11, 100
6, 29997, Note_on_c, 7, 54, 0
6, 30069, Note_on_c, 7, 47, 127
6, 30187, Control_c, 7, 11, 81
6, 30202, Control_c, 7, 11, 83
6, 30218, Control_c, 7, 11, 85
6, 30233, Control_c, 7, 11, 87
6, 30249, Control_c, 7, 11, 89
6, 30264, Control_c, 7, 11, 91
6, 30280, Control_c, 7, 11, 93
6, 30295, Control_c, 7, 11, 94
6, 30311, Control_c, 7, 11, 96
6, 30326, Control_c, 7, 11, 98
6, 30342, Control_c, 7, 11, 100
6, 30357, Control_c, 7, 11, 102
6, 30373, Control_c, 7, 11, 104
6, 30388, Control_c, 7, 11, 106
6, 30403, Control_c, 7, 11, 108
6, 30419, Control_c, 7, 11, 110
6, 30434, Control_c, 7, 11, 112
6, 30450, Control_c, 7, 11, 114
6, 30465, Control_c, 7, 11, 116
6, 30481, Control_c, 7, 11, 117
6, 30496, Control_c, 7, 11, 119
6, 30512, Control_c, 7, 11, 121
6, 30527, Control_c, 7, 11, 123
6, 30543, Control_c, 7, 11, 125
6, 30558, Control_c, 7, 11, 127
6, 30586, Note_on_c, 7, 52, 118
6, 30600, Note_on_c, 7, 47, 0
6, 30630, Note_on_c, 7, 52, 0
6, 30709, Note_on_c, 7, 52, 127
6, 30765, Note_on_c, 7, 52, 0
6, 31160, Note_on_c, 7, 40, 100
6, 31199, Note_on_c, 7, 43, 127
6, 31209, Note_on_c, 7, 40, 0
6, 31269, Note_on_c, 7, 43, 0
6, 31284, Note_on_c, 7, 45, 127
6, 31333, Note_on_c, 7, 45, 0
6, 31402, Note_on_c, 7, 45, 127
6, 31457, Note_on_c, 7, 45, 0
6, 31636, Note_on_c, 7, 49, 127
6, 31777, Note_on_c, 7, 49, 0
6, 31809, Note_on_c, 7, 48, 127
6, 31990, Note_on_c, 7, 48, 0
6, 32037, Note_on_c, 7, 47, 127
6, 32187, Note_on_c, 7, 47, 0
6, 32230, Note_on_c, 7, 46, 127
6, 32324, Note_on_c, 7, 46, 0
6, 32402, Note_on_c, 7, 45, 127
6, 32987, Note_on_c, 7, 45, 0
6, 37279, Control_c, 7, 11, 55
6, 37280, Note_on_c, 7, 50, 100
6, 37282, Control_c, 7, 11, 54
6, 37285, Control_c, 7, 11, 52
6, 37300, Control_c, 7, 11, 54
6, 37316, Control_c, 7, 11, 56
6, 37331, Control_c, 7, 11, 59
6, 37347, Control_c, 7, 11, 61
6, 37362, Control_c, 7, 11, 63
6, 37378, Control_c, 7, 11, 65
6, 37393, Control_c, 7, 11, 68
6, 37408, Control_c, 7, 11, 70
6, 37424, Control_c, 7, 11, 72
6, 37439, Control_c, 7, 11, 74
6, 37455, Control_c, 7, 11, 77
6, 37470, Control_c, 7, 11, 79
6, 37486, Control_c, 7, 11, 81
6, 37501, Control_c, 7, 11, 83
6, 37516, Control_c, 7, 11, 86
6, 37532, Control_c, 7, 11, 88
6, 37547, Control_c, 7, 11, 90
6, 37563, Control_c, 7, 11, 92
6, 37578, Control_c, 7, 11, 95
6, 37593, Control_c, 7, 11, 97
6, 37609, Control_c, 7, 11, 99
6, 37624, Control_c, 7, 11, 101
6, 37640, Control_c, 7, 11, 104
6, 37655, Control_c, 7, 11, 106
6, 37671, Control_c, 7, 11, 108
6, 37686, Control_c, 7, 11, 110
6, 37701, Control_c, 7, 11, 113
6, 37717, Control_c, 7, 11, 115
6, 37732, Control_c, 7, 11, 117
6, 37748, Control_c, 7, 11, 119
6, 37763, Control_c, 7, 11, 122
6, 37779, Control_c, 7, 11, 124
6, 37789, Control_c, 7, 11, 127
6, 38154, Note_on_c, 7, 50, 0
6, 38247, Note_on_c, 7, 40, 100
6, 39157, Note_on_c, 7, 40, 0
6, 39199, Control_c, 7, 11, 55
6, 39200, Note_on_c, 7, 42, 127
6, 39214, Control_c, 7, 11, 59
6, 39230, Control_c, 7, 11, 62
6, 39245, Control_c, 7, 11, 66
6, 39261, Control_c, 7, 11, 69
6, 39276, Control_c, 7, 11, 73
6, 39291, Control_c, 7, 11, 76
6, 39307, Control_c, 7, 11, 80
6, 39322, Control_c, 7, 11, 83
6, 39338, Control_c, 7, 11, 87
6, 39353, Control_c, 7, 11, 91
6, 39368, Control_c, 7, 11, 94
6, 39384, Control_c, 7, 11, 98
6, 39399, Control_c, 7, 11, 101
6, 39415, Control_c, 7, 11, 105
6, 39430, Control_c, 7, 11, 108
6, 39445, Control_c, 7, 11, 112
6, 39461, Control_c, 7, 11, 115
6, 39476, Control_c, 7, 11, 119
6, 39492, Control_c, 7, 11, 122
6, 39507, Control_c, 7, 11, 126
6, 39512, Control_c, 7, 11, 127
6, 39593, Note_on_c, 7, 42, 0
6, 39670, Note_on_c, 7, 47, 103
6, 40209, Note_on_c, 7, 47, 0
6, 41011, Note_on_c, 7, 34, 127
6, 43039, Note_on_c, 7, 34, 0
6, 45800, Note_on_c, 7, 46, 127
6, 46910, Note_on_c, 7, 46, 0
6, 48720, Note_on_c, 7, 58, 127
6, 48794, Note_on_c, 7, 58, 0
6, 48800, Note_on_c, 7, 54, 106
6, 48840, Note_on_c, 7, 56, 122
6, 48851, Note_on_c, 7, 54, 0
6, 48884, Note_on_c, 7, 56, 0
6, 48919, Note_on_c, 7, 56, 118
6, 48944, Note_on_c, 7, 56, 0
6, 48958, Note_on_c, 7, 56, 127
6, 49017, Note_on_c, 7, 56, 0
6, 49041, Note_on_c, 7, 56, 118
6, 49062, Note_on_c, 7, 56, 0
6, 49077, Note_on_c, 7, 56, 127
6, 49141, Note_on_c, 7, 56, 0
6, 49160, Note_on_c, 7, 56, 97
6, 49180, Note_on_c, 7, 56, 0
6, 49196, Note_on_c, 7, 56, 127
6, 49267, Note_on_c, 7, 56, 0
6, 49282, Note_on_c, 7, 56, 100
6, 49300, Note_on_c, 7, 56, 0
6, 49321, Note_on_c, 7, 56, 127
6, 49384, Note_on_c, 7, 56, 0
6, 49405, Note_on_c, 7, 56, 106
6, 49422, Note_on_c, 7, 56, 0
6, 49437, Note_on_c, 7, 56, 127
6, 49478, Note_on_c, 7, 56, 0
6, 49514, Note_on_c, 7, 56, 127
6, 49557, Note_on_c, 7, 56, 0
6, 49637, Note_on_c, 7, 56, 127
6, 49800, Note_on_c, 7, 56, 0
6, 52509, Note_on_c, 7, 48, 127
6, 52593, Note_on_c, 7, 48, 0
6, 52644, Note_on_c, 7, 47, 127
6, 53379, Note_on_c, 7, 47, 0
6, 53476, Note_on_c, 7, 47, 127
6, 53529, Note_on_c, 7, 47, 0
6, 53598, Note_on_c, 7, 46, 127
6, 54014, Note_on_c, 7, 46, 0
6, 54068, Note_on_c, 7, 39, 127
6, 54520, Note_on_c, 7, 39, 0
6, 55071, Note_on_c, 7, 47, 127
6, 55134, Note_on_c, 7, 47, 0
6, 55198, Note_on_c, 7, 46, 127
6, 55252, Note_on_c, 7, 46, 0
6, 55323, Note_on_c, 7, 44, 127
6, 55394, Note_on_c, 7, 44, 0
6, 55396, Note_on_c, 7, 42, 127
6, 55442, Note_on_c, 7, 42, 0
6, 55560, Note_on_c, 7, 37, 127
6, 56509, Note_on_c, 7, 37, 0
6, 56521, Control_c, 7, 11, 90
6, 58038, Note_on_c, 7, 46, 101
6, 58263, Note_on_c, 7, 46, 0
6, 58275, Note_on_c, 7, 46, 101
6, 58433, Note_on_c, 7, 46, 0
6, 58473, Note_on_c, 7, 44, 101
6, 58657, Note_on_c, 7, 44, 0
6, 58682, Note_on_c, 7, 41, 101
6, 58855, Note_on_c, 7, 41, 0
6, 58899, Note_on_c, 7, 39, 101
6, 59106, Note_on_c, 7, 39, 0
6, 59155, Note_on_c, 7, 41, 101
6, 59331, Note_on_c, 7, 41, 0
6, 59397, Note_on_c, 7, 42, 101
6, 59429, Note_on_c, 7, 42, 0
6, 59453, Note_on_c, 7, 42, 97
6, 59497, Note_on_c, 7, 42, 0
6, 59850, Note_on_c, 7, 39, 101
6, 59913, Note_on_c, 7, 39, 0
6, 59960, Note_on_c, 7, 42, 101
6, 60034, Note_on_c, 7, 42, 0
6, 60115, Note_on_c, 7, 44, 101
6, 60316, Note_on_c, 7, 44, 0
6, 60355, Note_on_c, 7, 46, 101
6, 60599, Note_on_c, 7, 46, 0
6, 60628, Note_on_c, 7, 47, 101
6, 60826, Note_on_c, 7, 47, 0
6, 60880, Note_on_c, 7, 51, 101
6, 61078, Note_on_c, 7, 51, 0
6, 61119, Note_on_c, 7, 39, 121
6, 61322, Note_on_c, 7, 39, 0
6, 61380, Note_on_c, 7, 37, 121
6, 61453, Note_on_c, 7, 37, 0
6, 61492, Note_on_c, 7, 35, 121
6, 61564, Note_on_c, 7, 35, 0
6, 61617, Note_on_c, 7, 37, 108
6, 61787, Control_c, 7, 11, 89
6, 61802, Control_c, 7, 11, 90
6, 61817, Control_c, 7, 11, 92
6, 61832, Control_c, 7, 11, 93
6, 61847, Control_c, 7, 11, 94
6, 61863, Control_c, 7, 11, 95
6, 61878, Control_c, 7, 11, 97
6, 61893, Control_c, 7, 11, 98
6, 61908, Control_c, 7, 11, 99
6, 61923, Control_c, 7, 11, 101
6, 61938, Control_c, 7, 11, 102
6, 61939, Control_c, 7, 11, 102
6, 61954, Control_c, 7, 11, 104
6, 61969, Control_c, 7, 11, 106
6, 61984, Control_c, 7, 11, 108
6, 61999, Control_c, 7, 11, 110
6, 62014, Control_c, 7, 11, 112
6, 62029, Control_c, 7, 11, 115
6, 62044, Control_c, 7, 11, 117
6, 62059, Control_c, 7, 11, 119
6, 62074, Control_c, 7, 11, 121
6, 62089, Control_c, 7, 11, 123
6, 62102, Control_c, 7, 11, 124
6, 62107, Control_c, 7, 11, 125
6, 62111, Control_c, 7, 11, 126
6, 62124, Control_c, 7, 11, 126
6, 62150, Control_c, 7, 11, 127
6, 62279, Note_on_c, 7, 37, 0
6, 63240, Note_on_c, 7, 44, 127
6, 63275, Note_on_c, 7, 44, 0
6, 63360, Note_on_c, 7, 44, 127
6, 63424, Note_on_c, 7, 44, 0
6, 63440, Note_on_c, 7, 46, 127
6, 63472, Note_on_c, 7, 46, 0
6, 63480, Note_on_c, 7, 47, 127
6, 63560, Note_on_c, 7, 46, 127
6, 63563, Note_on_c, 7, 47, 0
6, 63599, Note_on_c, 7, 46, 0
6, 63600, Note_on_c, 7, 44, 127
6, 63649, Note_on_c, 7, 44, 0
6, 63680, Note_on_c, 7, 49, 127
6, 63737, Note_on_c, 7, 49, 0
6, 63800, Note_on_c, 7, 49, 127
6, 63854, Note_on_c, 7, 49, 0
6, 63920, Note_on_c, 7, 44, 127
6, 63949, Note_on_c, 7, 44, 0
6, 63960, Note_on_c, 7, 46, 127
6, 64022, Note_on_c, 7, 46, 0
6, 64040, Note_on_c, 7, 49, 103
6, 64079, Note_on_c, 7, 49, 0
6, 64080, Note_on_c, 7, 46, 127
6, 64154, Note_on_c, 7, 46, 0
6, 64160, Note_on_c, 7, 44, 127
6, 64186, Note_on_c, 7, 44, 0
6, 64200, Note_on_c, 7, 37, 80
6, 65637, Control_c, 7, 11, 126
6, 65652, Control_c, 7, 11, 124
6, 65668, Control_c, 7, 11, 122
6, 65683, Control_c, 7, 11, 120
6, 65698, Control_c, 7, 11, 118
6, 65714, Control_c, 7, 11, 115
6, 65729, Control_c, 7, 11, 113
6, 65744, Control_c, 7, 11, 111
6, 65760, Control_c, 7, 11, 109
6, 65775, Control_c, 7, 11, 107
6, 65790, Control_c, 7, 11, 105
6, 65806, Control_c, 7, 11, 103
6, 65821, Control_c, 7, 11, 101
6, 65836, Control_c, 7, 11, 98
6, 65852, Control_c, 7, 11, 96
6, 65867, Control_c, 7, 11, 94
6, 65882, Control_c, 7, 11, 92
6, 65898, Control_c, 7, 11, 90
6, 65913, Control_c, 7, 11, 88
6, 65928, Control_c, 7, 11, 86
6, 65944, Control_c, 7, 11, 84
6, 65959, Control_c, 7, 11, 81
6, 65974, Control_c, 7, 11, 79
6, 65988, Control_c, 7, 11, 76
6, 66023, Control_c, 7, 11, 75
6, 66058, Control_c, 7, 11, 74
6, 66093, Control_c, 7, 11, 73
6, 66129, Control_c, 7, 11, 72
6, 66164, Control_c, 7, 11, 71
6, 66199, Control_c, 7, 11, 70
6, 66234, Control_c, 7, 11, 69
6, 66269, Control_c, 7, 11, 68
6, 66304, Control_c, 7, 11, 67
6, 66339, Control_c, 7, 11, 66
6, 66375, Control_c, 7, 11, 65
6, 66410, Control_c, 7, 11, 64
6, 66445, Control_c, 7, 11, 63
6, 66446, Control_c, 7, 11, 63
6, 66473, Control_c, 7, 11, 62
6, 66501, Control_c, 7, 11, 61
6, 66528, Control_c, 7, 11, 60
6, 66555, Control_c, 7, 11, 59
6, 66583, Control_c, 7, 11, 58
6, 66610, Control_c, 7, 11, 57
6, 66637, Control_c, 7, 11, 56
6, 66665, Control_c, 7, 11, 55
6, 66692, Control_c, 7, 11, 54
6, 66719, Control_c, 7, 11, 53
6, 66746, Control_c, 7, 11, 52
6, 66774, Control_c, 7, 11, 51
6, 66801, Control_c, 7, 11, 50
6, 66828, Control_c, 7, 11, 49
6, 66856, Control_c, 7, 11, 48
6, 66883, Control_c, 7, 11, 47
6, 66910, Control_c, 7, 11, 46
6, 66938, Control_c, 7, 11, 45
6, 67079, Note_on_c, 7, 37, 0
6, 77802, Control_c, 7, 11, 115
6, 77804, Note_on_c, 7, 54, 56
6, 77812, Control_c, 7, 11, 115
6, 77828, Control_c, 7, 11, 116
6, 77843, Control_c, 7, 11, 118
6, 77859, Control_c, 7, 11, 119
6, 77875, Control_c, 7, 11, 120
6, 77890, Control_c, 7, 11, 122
6, 77906, Control_c, 7, 11, 123
6, 77922, Control_c, 7, 11, 124
6, 77937, Control_c, 7, 11, 126
6, 78199, Control_c, 7, 11, 125
6, 78214, Control_c, 7, 11, 123
6, 78230, Control_c, 7, 11, 122
6, 78245, Control_c, 7, 11, 120
6, 78260, Control_c, 7, 11, 119
6, 78275, Control_c, 7, 11, 117
6, 78291, Control_c, 7, 11, 116
6, 78306, Control_c, 7, 11, 114
6, 78321, Control_c, 7, 11, 112
6, 78336, Control_c, 7, 11, 111
6, 78352, Control_c, 7, 11, 109
6, 78367, Control_c, 7, 11, 108
6, 78382, Control_c, 7, 11, 106
6, 78397, Control_c, 7, 11, 105
6, 78413, Control_c, 7, 11, 103
6, 78428, Control_c, 7, 11, 102
6, 78443, Control_c, 7, 11, 100
6, 78458, Control_c, 7, 11, 98
6, 78474, Control_c, 7, 11, 97
6, 78489, Control_c, 7, 11, 95
6, 78504, Control_c, 7, 11, 94
6, 78519, Control_c, 7, 11, 92
6, 78535, Control_c, 7, 11, 91
6, 78550, Control_c, 7, 11, 89
6, 78565, Control_c, 7, 11, 87
6, 78580, Control_c, 7, 11, 86
6, 78596, Control_c, 7, 11, 84
6, 78611, Control_c, 7, 11, 83
6, 78626, Control_c, 7, 11, 81
6, 78641, Control_c, 7, 11, 80
6, 78657, Control_c, 7, 11, 78
6, 78672, Control_c, 7, 11, 77
6, 78687, Control_c, 7, 11, 75
6, 79559, Note_on_c, 7, 54, 0
6, 80171, Control_c, 7, 11, 127
6, 80171, End_track
7, 0, Start_track
7, 0, Title_t, "piano"
7, 0, MIDI_port, 0
7, 0, Program_c, 0, 0
7, 2, Control_c, 0, 10, 64
7, 3, Control_c, 0, 7, 127
7, 5, Control_c, 0, 91, 63
7, 560, Note_on_c, 0, 44, 72
7, 560, Note_on_c, 0, 71, 77
7, 560, Note_on_c, 0, 37, 61
7, 560, Note_on_c, 0, 64, 84
7, 695, Note_on_c, 0, 71, 0
7, 695, Note_on_c, 0, 64, 0
7, 709, Note_on_c, 0, 37, 0
7, 710, Note_on_c, 0, 44, 0
7, 720, Note_on_c, 0, 64, 94
7, 720, Note_on_c, 0, 71, 84
7, 720, Note_on_c, 0, 43, 48
7, 720, Note_on_c, 0, 36, 84
7, 921, Note_on_c, 0, 43, 0
7, 928, Note_on_c, 0, 36, 0
7, 931, Note_on_c, 0, 71, 0
7, 933, Note_on_c, 0, 64, 0
7, 960, Note_on_c, 0, 62, 73
7, 960, Note_on_c, 0, 69, 73
7, 960, Note_on_c, 0, 42, 48
7, 960, Note_on_c, 0, 35, 62
7, 1094, Note_on_c, 0, 62, 0
7, 1094, Note_on_c, 0, 69, 0
7, 1102, Note_on_c, 0, 35, 0
7, 1104, Note_on_c, 0, 42, 0
7, 1160, Note_on_c, 0, 34, 92
7, 1160, Note_on_c, 0, 41, 70
7, 1160, Note_on_c, 0, 69, 87
7, 1160, Note_on_c, 0, 62, 82
7, 1189, Note_on_c, 0, 34, 0
7, 1189, Note_on_c, 0, 41, 0
7, 1197, Note_on_c, 0, 62, 0
7, 1201, Note_on_c, 0, 69, 0
7, 1320, Note_on_c, 0, 33, 80
7, 1320, Note_on_c, 0, 40, 63
7, 1326, Note_on_c, 0, 55, 85
7, 1326, Note_on_c, 0, 62, 97
7, 1327, Note_on_c, 0, 59, 84
7, 2318, Note_on_c, 0, 33, 0
7, 2323, Note_on_c, 0, 40, 0
7, 2332, Note_on_c, 0, 62, 0
7, 2336, Note_on_c, 0, 55, 0
7, 2337, Note_on_c, 0, 59, 0
7, 16880, Note_on_c, 0, 44, 72
7, 16880, Note_on_c, 0, 71, 77
7, 16880, Note_on_c, 0, 64, 84
7, 16880, Note_on_c, 0, 37, 61
7, 17015, Note_on_c, 0, 71, 0
7, 17015, Note_on_c, 0, 64, 0
7, 17029, Note_on_c, 0, 37, 0
7, 17030, Note_on_c, 0, 44, 0
7, 17040, Note_on_c, 0, 64, 94
7, 17040, Note_on_c, 0, 43, 48
7, 17040, Note_on_c, 0, 36, 84
7, 17040, Note_on_c, 0, 71, 84
7, 17241, Note_on_c, 0, 43, 0
7, 17248, Note_on_c, 0, 36, 0
7, 17251, Note_on_c, 0, 71, 0
7, 17253, Note_on_c, 0, 64, 0
7, 17280, Note_on_c, 0, 62, 73
7, 17280, Note_on_c, 0, 69, 73
7, 17280, Note_on_c, 0, 42, 48
7, 17280, Note_on_c, 0, 35, 62
7, 17414, Note_on_c, 0, 62, 0
7, 17414, Note_on_c, 0, 69, 0
7, 17422, Note_on_c, 0, 35, 0
7, 17424, Note_on_c, 0, 42, 0
7, 17480, Note_on_c, 0, 62, 82
7, 17480, Note_on_c, 0, 69, 87
7, 17480, Note_on_c, 0, 34, 92
7, 17480, Note_on_c, 0, 41, 70
7, 17509, Note_on_c, 0, 34, 0
7, 17509, Note_on_c, 0, 41, 0
7, 17517, Note_on_c, 0, 62, 0
7, 17521, Note_on_c, 0, 69, 0
7, 17640, Note_on_c, 0, 62, 87
7, 17640, Note_on_c, 0, 40, 63
7, 17640, Note_on_c, 0, 69, 100
7, 17640, Note_on_c, 0, 33, 80
7, 18638, Note_on_c, 0, 33, 0
7, 18643, Note_on_c, 0, 40, 0
7, 18663, Note_on_c, 0, 69, 0
7, 18666, Note_on_c, 0, 62, 0
7, 34050, Note_on_c, 0, 89, 57
7, 34065, Note_on_c, 0, 84, 77
7, 34080, Note_on_c, 0, 79, 74
7, 34089, Note_on_c, 0, 89, 0
7, 34107, Note_on_c, 0, 84, 0
7, 34119, Note_on_c, 0, 79, 0
7, 34160, Note_on_c, 0, 79, 90
7, 34200, Note_on_c, 0, 79, 0
7, 34200, Note_on_c, 0, 82, 72
7, 34283, Note_on_c, 0, 82, 0
7, 34286, Note_on_c, 0, 79, 94
7, 34329, Note_on_c, 0, 79, 0
7, 34398, Note_on_c, 0, 82, 70
7, 34454, Note_on_c, 0, 82, 0
7, 34517, Note_on_c, 0, 79, 70
7, 34574, Note_on_c, 0, 79, 0
7, 34641, Note_on_c, 0, 77, 69
7, 34680, Note_on_c, 0, 79, 82
7, 34683, Note_on_c, 0, 77, 0
7, 34769, Note_on_c, 0, 79, 0
7, 34880, Note_on_c, 0, 79, 70
7, 34895, Note_on_c, 0, 77, 56
7, 34906, Note_on_c, 0, 77, 0
7, 34910, Note_on_c, 0, 74, 70
7, 34911, Note_on_c, 0, 79, 0
7, 34936, Note_on_c, 0, 74, 0
7, 35000, Note_on_c, 0, 72, 70
7, 35040, Note_on_c, 0, 74, 69
7, 35042, Note_on_c, 0, 72, 0
7, 35308, Note_on_c, 0, 74, 0
7, 35893, Note_on_c, 0, 57, 100
7, 35969, Note_on_c, 0, 57, 0
7, 35970, Note_on_c, 0, 58, 103
7, 36021, Note_on_c, 0, 58, 0
7, 36079, Note_on_c, 0, 60, 94
7, 36139, Note_on_c, 0, 60, 0
7, 36200, Note_on_c, 0, 67, 100
7, 36257, Note_on_c, 0, 67, 0
7, 36320, Note_on_c, 0, 65, 90
7, 36614, Note_on_c, 0, 65, 0
7, 36790, Note_on_c, 0, 85, 127
7, 36798, Note_on_c, 0, 86, 122
7, 36799, Note_on_c, 0, 85, 0
7, 36825, Note_on_c, 0, 86, 0
7, 36918, Note_on_c, 0, 86, 127
7, 36946, Note_on_c, 0, 86, 0
7, 36962, Note_on_c, 0, 84, 127
7, 36985, Note_on_c, 0, 84, 0
7, 37040, Note_on_c, 0, 84, 127
7, 37071, Note_on_c, 0, 84, 0
7, 37077, Note_on_c, 0, 82, 118
7, 37139, Note_on_c, 0, 82, 0
7, 37152, Note_on_c, 0, 81, 127
7, 37184, Note_on_c, 0, 81, 0
7, 37632, Note_on_c, 0, 100, 117
7, 37655, Note_on_c, 0, 102, 127
7, 37657, Note_on_c, 0, 100, 0
7, 37678, Note_on_c, 0, 100, 127
7, 37680, Note_on_c, 0, 102, 0
7, 37702, Note_on_c, 0, 95, 105
7, 37704, Note_on_c, 0, 100, 0
7, 37725, Note_on_c, 0, 92, 99
7, 37727, Note_on_c, 0, 95, 0
7, 37748, Note_on_c, 0, 88, 94
7, 37750, Note_on_c, 0, 92, 0
7, 37772, Note_on_c, 0, 90, 93
7, 37774, Note_on_c, 0, 88, 0
7, 37796, Note_on_c, 0, 88, 108
7, 37798, Note_on_c, 0, 90, 0
7, 37819, Note_on_c, 0, 83, 87
7, 37821, Note_on_c, 0, 88, 0
7, 37843, Note_on_c, 0, 80, 78
7, 37844, Note_on_c, 0, 83, 0
7, 37866, Note_on_c, 0, 76, 97
7, 37868, Note_on_c, 0, 80, 0
7, 37889, Note_on_c, 0, 78, 96
7, 37891, Note_on_c, 0, 76, 0
7, 37913, Note_on_c, 0, 76, 126
7, 37915, Note_on_c, 0, 78, 0
7, 37936, Note_on_c, 0, 71, 103
7, 37938, Note_on_c, 0, 76, 0
7, 37960, Note_on_c, 0, 68, 90
7, 37962, Note_on_c, 0, 71, 0
7, 37983, Note_on_c, 0, 64, 90
7, 37985, Note_on_c, 0, 68, 0
7, 38007, Note_on_c, 0, 59, 93
7, 38008, Note_on_c, 0, 64, 0
7, 38030, Note_on_c, 0, 52, 93
7, 38032, Note_on_c, 0, 59, 0
7, 38040, Note_on_c, 0, 52, 0
7, 38041, Note_on_c, 0, 52, 53
7, 38058, Note_on_c, 0, 50, 53
7, 38064, Note_on_c, 0, 52, 0
7, 38079, Note_on_c, 0, 48, 78
7, 38081, Note_on_c, 0, 50, 0
7, 38091, Note_on_c, 0, 47, 97
7, 38095, Note_on_c, 0, 48, 0
7, 38103, Note_on_c, 0, 45, 106
7, 38107, Note_on_c, 0, 47, 0
7, 38116, Note_on_c, 0, 43, 110
7, 38118, Note_on_c, 0, 45, 0
7, 38126, Note_on_c, 0, 41, 110
7, 38130, Note_on_c, 0, 43, 0
7, 38138, Note_on_c, 0, 40, 106
7, 38142, Note_on_c, 0, 41, 0
7, 38151, Note_on_c, 0, 38, 100
7, 38155, Note_on_c, 0, 40, 0
7, 38166, Note_on_c, 0, 36, 85
7, 38169, Note_on_c, 0, 38, 0
7, 38178, Note_on_c, 0, 35, 85
7, 38183, Note_on_c, 0, 36, 0
7, 38193, Note_on_c, 0, 33, 85
7, 38198, Note_on_c, 0, 35, 0
7, 38208, Note_on_c, 0, 31, 80
7, 38213, Note_on_c, 0, 33, 0
7, 38225, Note_on_c, 0, 29, 72
7, 38231, Note_on_c, 0, 31, 0
7, 38247, Note_on_c, 0, 29, 0
7, 38599, Note_on_c, 0, 64, 54
7, 38628, Note_on_c, 0, 64, 0
7, 38639, Note_on_c, 0, 71, 118
7, 38639, Note_on_c, 0, 78, 80
7, 38639, Note_on_c, 0, 67, 92
7, 38667, Note_on_c, 0, 71, 0
7, 38671, Note_on_c, 0, 78, 0
7, 38673, Note_on_c, 0, 67, 0
7, 38678, Note_on_c, 0, 78, 64
7, 38678, Note_on_c, 0, 67, 70
7, 38678, Note_on_c, 0, 71, 90
7, 38714, Note_on_c, 0, 71, 0
7, 38718, Note_on_c, 0, 64, 84
7, 38720, Note_on_c, 0, 67, 0
7, 38726, Note_on_c, 0, 78, 0
7, 38744, Note_on_c, 0, 64, 0
7, 38758, Note_on_c, 0, 71, 127
7, 38759, Note_on_c, 0, 67, 103
7, 38759, Note_on_c, 0, 78, 97
7, 38791, Note_on_c, 0, 78, 0
7, 38793, Note_on_c, 0, 67, 0
7, 38794, Note_on_c, 0, 71, 0
7, 38799, Note_on_c, 0, 67, 94
7, 38799, Note_on_c, 0, 78, 94
7, 38799, Note_on_c, 0, 71, 113
7, 38837, Note_on_c, 0, 67, 0
7, 38838, Note_on_c, 0, 64, 84
7, 38839, Note_on_c, 0, 71, 0
7, 38849, Note_on_c, 0, 78, 0
7, 38866, Note_on_c, 0, 64, 0
7, 38879, Note_on_c, 0, 71, 127
7, 38879, Note_on_c, 0, 67, 106
7, 38879, Note_on_c, 0, 78, 92
7, 38915, Note_on_c, 0, 71, 0
7, 38915, Note_on_c, 0, 78, 0
7, 38917, Note_on_c, 0, 67, 0
7, 38919, Note_on_c, 0, 78, 85
7, 38919, Note_on_c, 0, 67, 77
7, 38920, Note_on_c, 0, 71, 100
7, 38959, Note_on_c, 0, 64, 90
7, 38961, Note_on_c, 0, 67, 0
7, 38962, Note_on_c, 0, 71, 0
7, 38979, Note_on_c, 0, 78, 0
7, 38990, Note_on_c, 0, 64, 0
7, 38999, Note_on_c, 0, 78, 122
7, 39000, Note_on_c, 0, 67, 110
7, 39000, Note_on_c, 0, 71, 127
7, 39054, Note_on_c, 0, 78, 0
7, 39061, Note_on_c, 0, 71, 0
7, 39079, Note_on_c, 0, 71, 87
7, 39080, Note_on_c, 0, 76, 110
7, 39126, Note_on_c, 0, 67, 0
7, 39126, Note_on_c, 0, 71, 0
7, 39130, Note_on_c, 0, 76, 0
7, 39965, Note_on_c, 0, 47, 90
7, 39989, Note_on_c, 0, 47, 0
7, 40004, Note_on_c, 0, 55, 97
7, 40024, Note_on_c, 0, 55, 0
7, 40043, Note_on_c, 0, 62, 97
7, 40056, Note_on_c, 0, 62, 0
7, 40081, Note_on_c, 0, 69, 113
7, 40095, Note_on_c, 0, 69, 0
7, 40120, Note_on_c, 0, 79, 127
7, 40138, Note_on_c, 0, 79, 0
7, 40159, Note_on_c, 0, 84, 127
7, 40181, Note_on_c, 0, 84, 0
7, 40273, Note_on_c, 0, 57, 85
7, 40275, Note_on_c, 0, 50, 76
7, 40280, Note_on_c, 0, 72, 87
7, 40284, Note_on_c, 0, 65, 77
7, 40390, Note_on_c, 0, 50, 0
7, 40400, Note_on_c, 0, 57, 0
7, 40405, Note_on_c, 0, 72, 0
7, 40414, Note_on_c, 0, 65, 0
7, 40437, Note_on_c, 0, 65, 90
7, 40439, Note_on_c, 0, 49, 94
7, 40441, Note_on_c, 0, 72, 103
7, 40445, Note_on_c, 0, 56, 76
7, 40651, Note_on_c, 0, 56, 0
7, 40660, Note_on_c, 0, 65, 0
7, 40660, Note_on_c, 0, 49, 0
7, 40664, Note_on_c, 0, 72, 0
7, 40675, Note_on_c, 0, 63, 84
7, 40683, Note_on_c, 0, 70, 92
7, 40684, Note_on_c, 0, 55, 66
7, 40685, Note_on_c, 0, 48, 80
7, 40803, Note_on_c, 0, 63, 0
7, 40807, Note_on_c, 0, 48, 0
7, 40812, Note_on_c, 0, 55, 0
7, 40820, Note_on_c, 0, 70, 0
7, 40873, Note_on_c, 0, 63, 84
7, 40877, Note_on_c, 0, 70, 94
7, 40880, Note_on_c, 0, 54, 90
7, 40882, Note_on_c, 0, 47, 78
7, 40934, Note_on_c, 0, 63, 0
7, 40951, Note_on_c, 0, 70, 0
7, 40953, Note_on_c, 0, 54, 0
7, 40960, Note_on_c, 0, 47, 0
7, 40994, Note_on_c, 0, 72, 100
7, 40995, Note_on_c, 0, 63, 103
7, 40995, Note_on_c, 0, 46, 84
7, 40998, Note_on_c, 0, 68, 118
7, 40999, Note_on_c, 0, 53, 90
7, 41006, Note_on_c, 0, 51, 85
7, 41058, Note_on_c, 0, 51, 0
7, 41119, Note_on_c, 0, 46, 0
7, 41120, Note_on_c, 0, 46, 110
7, 41120, Note_on_c, 0, 34, 100
7, 41174, Note_on_c, 0, 63, 0
7, 41181, Note_on_c, 0, 72, 0
7, 41184, Note_on_c, 0, 68, 0
7, 41189, Note_on_c, 0, 53, 0
7, 41226, Note_on_c, 0, 103, 78
7, 41246, Note_on_c, 0, 103, 0
7, 41246, Note_on_c, 0, 101, 80
7, 41267, Note_on_c, 0, 101, 0
7, 41267, Note_on_c, 0, 97, 80
7, 41287, Note_on_c, 0, 97, 0
7, 41287, Note_on_c, 0, 95, 78
7, 41307, Note_on_c, 0, 95, 0
7, 41307, Note_on_c, 0, 101, 70
7, 41327, Note_on_c, 0, 101, 0
7, 41328, Note_on_c, 0, 99, 81
7, 41348, Note_on_c, 0, 99, 0
7, 41348, Note_on_c, 0, 95, 80
7, 41368, Note_on_c, 0, 95, 0
7, 41368, Note_on_c, 0, 93, 75
7, 41389, Note_on_c, 0, 93, 0
7, 41389, Note_on_c, 0, 99, 74
7, 41409, Note_on_c, 0, 99, 0
7, 41409, Note_on_c, 0, 97, 80
7, 41429, Note_on_c, 0, 97, 0
7, 41429, Note_on_c, 0, 93, 81
7, 41449, Note_on_c, 0, 93, 0
7, 41450, Note_on_c, 0, 91, 77
7, 41469, Note_on_c, 0, 91, 0
7, 41470, Note_on_c, 0, 97, 68
7, 41490, Note_on_c, 0, 97, 0
7, 41490, Note_on_c, 0, 95, 68
7, 41511, Note_on_c, 0, 95, 0
7, 41511, Note_on_c, 0, 91, 76
7, 41531, Note_on_c, 0, 91, 0
7, 41531, Note_on_c, 0, 89, 74
7, 41551, Note_on_c, 0, 89, 0
7, 41551, Note_on_c, 0, 95, 72
7, 41571, Note_on_c, 0, 95, 0
7, 41571, Note_on_c, 0, 93, 64
7, 41592, Note_on_c, 0, 93, 0
7, 41592, Note_on_c, 0, 89, 76
7, 41612, Note_on_c, 0, 89, 0
7, 41612, Note_on_c, 0, 87, 70
7, 41633, Note_on_c, 0, 87, 0
7, 41633, Note_on_c, 0, 93, 67
7, 41653, Note_on_c, 0, 93, 0
7, 41653, Note_on_c, 0, 91, 74
7, 41673, Note_on_c, 0, 91, 0
7, 41673, Note_on_c, 0, 87, 68
7, 41694, Note_on_c, 0, 87, 0
7, 41694, Note_on_c, 0, 85, 66
7, 41714, Note_on_c, 0, 85, 0
7, 41714, Note_on_c, 0, 91, 66
7, 41735, Note_on_c, 0, 91, 0
7, 41735, Note_on_c, 0, 89, 63
7, 41754, Note_on_c, 0, 89, 0
7, 41755, Note_on_c, 0, 85, 69
7, 41775, Note_on_c, 0, 85, 0
7, 41775, Note_on_c, 0, 83, 63
7, 41795, Note_on_c, 0, 83, 0
7, 41795, Note_on_c, 0, 89, 75
7, 41815, Note_on_c, 0, 89, 0
7, 41816, Note_on_c, 0, 87, 60
7, 41836, Note_on_c, 0, 87, 0
7, 41836, Note_on_c, 0, 83, 64
7, 41856, Note_on_c, 0, 83, 0
7, 41857, Note_on_c, 0, 81, 68
7, 41877, Note_on_c, 0, 81, 0
7, 41877, Note_on_c, 0, 87, 68
7, 41897, Note_on_c, 0, 87, 0
7, 41897, Note_on_c, 0, 85, 51
7, 41918, Note_on_c, 0, 85, 0
7, 41918, Note_on_c, 0, 81, 74
7, 41938, Note_on_c, 0, 81, 0
7, 41938, Note_on_c, 0, 79, 45
7, 41958, Note_on_c, 0, 79, 0
7, 41958, Note_on_c, 0, 85, 65
7, 41978, Note_on_c, 0, 85, 0
7, 41979, Note_on_c, 0, 83, 71
7, 41999, Note_on_c, 0, 83, 0
7, 41999, Note_on_c, 0, 79, 70
7, 42019, Note_on_c, 0, 79, 0
7, 42019, Note_on_c, 0, 77, 70
7, 42039, Note_on_c, 0, 77, 0
7, 42040, Note_on_c, 0, 83, 67
7, 42060, Note_on_c, 0, 83, 0
7, 42060, Note_on_c, 0, 81, 45
7, 42080, Note_on_c, 0, 81, 0
7, 42080, Note_on_c, 0, 77, 62
7, 42083, Note_on_c, 0, 34, 0
7, 42098, Note_on_c, 0, 46, 0
7, 42101, Note_on_c, 0, 77, 0
7, 42101, Note_on_c, 0, 75, 53
7, 42121, Note_on_c, 0, 75, 0
7, 42121, Note_on_c, 0, 81, 69
7, 42141, Note_on_c, 0, 81, 0
7, 42142, Note_on_c, 0, 79, 58
7, 42161, Note_on_c, 0, 79, 0
7, 42161, Note_on_c, 0, 75, 63
7, 42182, Note_on_c, 0, 75, 0
7, 42182, Note_on_c, 0, 73, 72
7, 42202, Note_on_c, 0, 73, 0
7, 42202, Note_on_c, 0, 79, 66
7, 42222, Note_on_c, 0, 79, 0
7, 42222, Note_on_c, 0, 77, 58
7, 42243, Note_on_c, 0, 77, 0
7, 42243, Note_on_c, 0, 73, 54
7, 42263, Note_on_c, 0, 73, 0
7, 42263, Note_on_c, 0, 71, 49
7, 42284, Note_on_c, 0, 71, 0
7, 42284, Note_on_c, 0, 77, 68
7, 42304, Note_on_c, 0, 77, 0
7, 42304, Note_on_c, 0, 75, 42
7, 42324, Note_on_c, 0, 75, 0
7, 42324, Note_on_c, 0, 71, 59
7, 42345, Note_on_c, 0, 71, 0
7, 42345, Note_on_c, 0, 69, 70
7, 42365, Note_on_c, 0, 69, 0
7, 42365, Note_on_c, 0, 75, 77
7, 42385, Note_on_c, 0, 75, 0
7, 42385, Note_on_c, 0, 73, 50
7, 42406, Note_on_c, 0, 73, 0
7, 42406, Note_on_c, 0, 69, 68
7, 42426, Note_on_c, 0, 69, 0
7, 42426, Note_on_c, 0, 67, 68
7, 42446, Note_on_c, 0, 67, 0
7, 42447, Note_on_c, 0, 73, 76
7, 42466, Note_on_c, 0, 73, 0
7, 42467, Note_on_c, 0, 71, 41
7, 42487, Note_on_c, 0, 71, 0
7, 42487, Note_on_c, 0, 67, 66
7, 42507, Note_on_c, 0, 67, 0
7, 42507, Note_on_c, 0, 65, 64
7, 42528, Note_on_c, 0, 65, 0
7, 42528, Note_on_c, 0, 71, 76
7, 42549, Note_on_c, 0, 71, 0
7, 42549, Note_on_c, 0, 69, 49
7, 42568, Note_on_c, 0, 69, 0
7, 42569, Note_on_c, 0, 65, 76
7, 42589, Note_on_c, 0, 65, 0
7, 42589, Note_on_c, 0, 63, 68
7, 42609, Note_on_c, 0, 63, 0
7, 42609, Note_on_c, 0, 69, 76
7, 42629, Note_on_c, 0, 69, 0
7, 42629, Note_on_c, 0, 67, 55
7, 42650, Note_on_c, 0, 67, 0
7, 42650, Note_on_c, 0, 63, 71
7, 42670, Note_on_c, 0, 63, 0
7, 42670, Note_on_c, 0, 61, 64
7, 42690, Note_on_c, 0, 61, 0
7, 42691, Note_on_c, 0, 67, 73
7, 42711, Note_on_c, 0, 67, 0
7, 42711, Note_on_c, 0, 65, 80
7, 42731, Note_on_c, 0, 65, 0
7, 42731, Note_on_c, 0, 61, 50
7, 42751, Note_on_c, 0, 61, 0
7, 42752, Note_on_c, 0, 59, 36
7, 42771, Note_on_c, 0, 59, 0
7, 42772, Note_on_c, 0, 65, 73
7, 42792, Note_on_c, 0, 65, 0
7, 42793, Note_on_c, 0, 63, 56
7, 42812, Note_on_c, 0, 63, 0
7, 42812, Note_on_c, 0, 59, 60
7, 42833, Note_on_c, 0, 59, 0
7, 42833, Note_on_c, 0, 57, 64
7, 42853, Note_on_c, 0, 57, 0
7, 42854, Note_on_c, 0, 63, 74
7, 42873, Note_on_c, 0, 63, 0
7, 42874, Note_on_c, 0, 61, 56
7, 42893, Note_on_c, 0, 61, 0
7, 42894, Note_on_c, 0, 57, 60
7, 42914, Note_on_c, 0, 57, 0
7, 42914, Note_on_c, 0, 55, 66
7, 42935, Note_on_c, 0, 55, 0
7, 42935, Note_on_c, 0, 61, 74
7, 42955, Note_on_c, 0, 61, 0
7, 42955, Note_on_c, 0, 59, 59
7, 42975, Note_on_c, 0, 59, 0
7, 42976, Note_on_c, 0, 55, 55
7, 42996, Note_on_c, 0, 55, 0
7, 42996, Note_on_c, 0, 53, 66
7, 43016, Note_on_c, 0, 53, 0
7, 43016, Note_on_c, 0, 59, 68
7, 43036, Note_on_c, 0, 59, 0
7, 43036, Note_on_c, 0, 57, 55
7, 43057, Note_on_c, 0, 57, 0
7, 43057, Note_on_c, 0, 53, 66
7, 43077, Note_on_c, 0, 53, 0
7, 43653, Note_on_c, 0, 79, 61
7, 43653, Note_on_c, 0, 72, 52
7, 43654, Note_on_c, 0, 75, 61
7, 43654, Note_on_c, 0, 82, 52
7, 43703, Note_on_c, 0, 75, 0
7, 43705, Note_on_c, 0, 79, 0
7, 43705, Note_on_c, 0, 72, 0
7, 43706, Note_on_c, 0, 82, 0
7, 43769, Note_on_c, 0, 79, 52
7, 43771, Note_on_c, 0, 75, 59
7, 43771, Note_on_c, 0, 82, 57
7, 43772, Note_on_c, 0, 72, 53
7, 43825, Note_on_c, 0, 75, 0
7, 43829, Note_on_c, 0, 72, 0
7, 43832, Note_on_c, 0, 79, 0
7, 43834, Note_on_c, 0, 82, 0
7, 43883, Note_on_c, 0, 72, 70
7, 43884, Note_on_c, 0, 79, 85
7, 43885, Note_on_c, 0, 75, 94
7, 43885, Note_on_c, 0, 82, 82
7, 43960, Note_on_c, 0, 75, 0
7, 43962, Note_on_c, 0, 72, 0
7, 43964, Note_on_c, 0, 79, 0
7, 43969, Note_on_c, 0, 82, 0
7, 46267, Note_on_c, 0, 94, 87
7, 46292, Note_on_c, 0, 94, 0
7, 46292, Note_on_c, 0, 95, 102
7, 46319, Note_on_c, 0, 95, 0
7, 46319, Note_on_c, 0, 96, 101
7, 46344, Note_on_c, 0, 96, 0
7, 46344, Note_on_c, 0, 99, 125
7, 46371, Note_on_c, 0, 99, 0
7, 46371, Note_on_c, 0, 96, 95
7, 46398, Note_on_c, 0, 96, 0
7, 46398, Note_on_c, 0, 94, 93
7, 46423, Note_on_c, 0, 94, 0
7, 46423, Note_on_c, 0, 92, 92
7, 46449, Note_on_c, 0, 92, 0
7, 46450, Note_on_c, 0, 90, 115
7, 46476, Note_on_c, 0, 90, 0
7, 46476, Note_on_c, 0, 91, 105
7, 46501, Note_on_c, 0, 91, 0
7, 46502, Note_on_c, 0, 87, 75
7, 46528, Note_on_c, 0, 87, 0
7, 46528, Note_on_c, 0, 84, 85
7, 46554, Note_on_c, 0, 84, 0
7, 46554, Note_on_c, 0, 81, 82
7, 46580, Note_on_c, 0, 81, 0
7, 46580, Note_on_c, 0, 82, 77
7, 46606, Note_on_c, 0, 82, 0
7, 46606, Note_on_c, 0, 84, 93
7, 46632, Note_on_c, 0, 84, 0
7, 46632, Note_on_c, 0, 78, 82
7, 46659, Note_on_c, 0, 78, 0
7, 46659, Note_on_c, 0, 79, 67
7, 46685, Note_on_c, 0, 79, 0
7, 46685, Note_on_c, 0, 82, 76
7, 46711, Note_on_c, 0, 82, 0
7, 46711, Note_on_c, 0, 77, 42
7, 46738, Note_on_c, 0, 77, 0
7, 46738, Note_on_c, 0, 79, 61
7, 46764, Note_on_c, 0, 79, 0
7, 46764, Note_on_c, 0, 75, 53
7, 46790, Note_on_c, 0, 75, 0
7, 46790, Note_on_c, 0, 72, 41
7, 46816, Note_on_c, 0, 72, 0
7, 46816, Note_on_c, 0, 75, 48
7, 46842, Note_on_c, 0, 75, 0
7, 46842, Note_on_c, 0, 70, 45
7, 46868, Note_on_c, 0, 70, 0
7, 47008, Note_on_c, 0, 75, 70
7, 47035, Note_on_c, 0, 75, 0
7, 47042, Note_on_c, 0, 77, 97
7, 47043, Note_on_c, 0, 78, 58
7, 47043, Note_on_c, 0, 82, 61
7, 47044, Note_on_c, 0, 85, 64
7, 47066, Note_on_c, 0, 78, 0
7, 47067, Note_on_c, 0, 78, 68
7, 47069, Note_on_c, 0, 77, 0
7, 47094, Note_on_c, 0, 77, 72
7, 47107, Note_on_c, 0, 82, 0
7, 47108, Note_on_c, 0, 85, 0
7, 47108, Note_on_c, 0, 78, 0
7, 47125, Note_on_c, 0, 77, 0
7, 47126, Note_on_c, 0, 75, 52
7, 47154, Note_on_c, 0, 75, 0
7, 47160, Note_on_c, 0, 77, 106
7, 47161, Note_on_c, 0, 78, 65
7, 47162, Note_on_c, 0, 85, 73
7, 47162, Note_on_c, 0, 82, 78
7, 47234, Note_on_c, 0, 77, 0
7, 47237, Note_on_c, 0, 82, 0
7, 47237, Note_on_c, 0, 75, 73
7, 47239, Note_on_c, 0, 85, 0
7, 47240, Note_on_c, 0, 78, 0
7, 47264, Note_on_c, 0, 75, 0
7, 47363, Note_on_c, 0, 75, 68
7, 47378, Note_on_c, 0, 75, 0
7, 47405, Note_on_c, 0, 82, 70
7, 47406, Note_on_c, 0, 77, 127
7, 47406, Note_on_c, 0, 85, 70
7, 47406, Note_on_c, 0, 78, 64
7, 47429, Note_on_c, 0, 77, 0
7, 47429, Note_on_c, 0, 78, 0
7, 47430, Note_on_c, 0, 78, 52
7, 47457, Note_on_c, 0, 77, 73
7, 47480, Note_on_c, 0, 82, 0
7, 47480, Note_on_c, 0, 85, 0
7, 47480, Note_on_c, 0, 78, 0
7, 47487, Note_on_c, 0, 75, 70
7, 47491, Note_on_c, 0, 77, 0
7, 47518, Note_on_c, 0, 77, 103
7, 47522, Note_on_c, 0, 75, 0
7, 47522, Note_on_c, 0, 78, 61
7, 47522, Note_on_c, 0, 82, 73
7, 47522, Note_on_c, 0, 85, 67
7, 47601, Note_on_c, 0, 77, 0
7, 47603, Note_on_c, 0, 75, 92
7, 47615, Note_on_c, 0, 78, 0
7, 47615, Note_on_c, 0, 82, 0
7, 47616, Note_on_c, 0, 85, 0
7, 47647, Note_on_c, 0, 75, 0
7, 49799, Note_on_c, 0, 71, 100
7, 49799, Note_on_c, 0, 70, 100
7, 49799, Note_on_c, 0, 66, 110
7, 49799, Note_on_c, 0, 77, 92
7, 49799, Note_on_c, 0, 72, 122
7, 49851, Note_on_c, 0, 70, 0
7, 49858, Note_on_c, 0, 66, 0
7, 49859, Note_on_c, 0, 71, 0
7, 49859, Note_on_c, 0, 67, 61
7, 49860, Note_on_c, 0, 62, 64
7, 49861, Note_on_c, 0, 56, 61
7, 49864, Note_on_c, 0, 72, 0
7, 49867, Note_on_c, 0, 77, 0
7, 49915, Note_on_c, 0, 62, 0
7, 49919, Note_on_c, 0, 72, 127
7, 49919, Note_on_c, 0, 71, 118
7, 49919, Note_on_c, 0, 66, 97
7, 49919, Note_on_c, 0, 77, 118
7, 49921, Note_on_c, 0, 67, 0
7, 49921, Note_on_c, 0, 70, 118
7, 49922, Note_on_c, 0, 56, 0
7, 49951, Note_on_c, 0, 70, 0
7, 49979, Note_on_c, 0, 56, 65
7, 49979, Note_on_c, 0, 67, 62
7, 49979, Note_on_c, 0, 62, 60
7, 49981, Note_on_c, 0, 71, 0
7, 49982, Note_on_c, 0, 66, 0
7, 49985, Note_on_c, 0, 72, 0
7, 49986, Note_on_c, 0, 77, 0
7, 50039, Note_on_c, 0, 71, 127
7, 50039, Note_on_c, 0, 72, 122
7, 50039, Note_on_c, 0, 66, 100
7, 50039, Note_on_c, 0, 77, 113
7, 50041, Note_on_c, 0, 62, 0
7, 50045, Note_on_c, 0, 67, 0
7, 50046, Note_on_c, 0, 56, 0
7, 50099, Note_on_c, 0, 67, 51
7, 50099, Note_on_c, 0, 56, 66
7, 50100, Note_on_c, 0, 62, 39
7, 50108, Note_on_c, 0, 71, 0
7, 50110, Note_on_c, 0, 66, 0
7, 50111, Note_on_c, 0, 72, 0
7, 50113, Note_on_c, 0, 77, 0
7, 50156, Note_on_c, 0, 62, 0
7, 50158, Note_on_c, 0, 56, 0
7, 50159, Note_on_c, 0, 77, 113
7, 50159, Note_on_c, 0, 66, 85
7, 50159, Note_on_c, 0, 71, 113
7, 50159, Note_on_c, 0, 72, 100
7, 50161, Note_on_c, 0, 67, 0
7, 50219, Note_on_c, 0, 56, 64
7, 50219, Note_on_c, 0, 62, 60
7, 50219, Note_on_c, 0, 67, 68
7, 50220, Note_on_c, 0, 71, 0
7, 50226, Note_on_c, 0, 72, 0
7, 50227, Note_on_c, 0, 77, 0
7, 50228, Note_on_c, 0, 66, 0
7, 50279, Note_on_c, 0, 56, 0
7, 50279, Note_on_c, 0, 62, 0
7, 50279, Note_on_c, 0, 67, 0
7, 50279, Note_on_c, 0, 66, 97
7, 50279, Note_on_c, 0, 77, 118
7, 50279, Note_on_c, 0, 71, 127
7, 50279, Note_on_c, 0, 72, 118
7, 50336, Note_on_c, 0, 71, 0
7, 50337, Note_on_c, 0, 66, 0
7, 50339, Note_on_c, 0, 62, 56
7, 50339, Note_on_c, 0, 56, 62
7, 50339, Note_on_c, 0, 67, 62
7, 50341, Note_on_c, 0, 72, 0
7, 50343, Note_on_c, 0, 77, 0
7, 50392, Note_on_c, 0, 62, 0
7, 50395, Note_on_c, 0, 56, 0
7, 50399, Note_on_c, 0, 66, 100
7, 50399, Note_on_c, 0, 72, 127
7, 50399, Note_on_c, 0, 77, 113
7, 50399, Note_on_c, 0, 71, 127
7, 50401, Note_on_c, 0, 67, 0
7, 50455, Note_on_c, 0, 71, 0
7, 50458, Note_on_c, 0, 66, 0
7, 50459, Note_on_c, 0, 67, 63
7, 50459, Note_on_c, 0, 56, 61
7, 50459, Note_on_c, 0, 62, 57
7, 50461, Note_on_c, 0, 72, 0
7, 50465, Note_on_c, 0, 77, 0
7, 50516, Note_on_c, 0, 56, 0
7, 50519, Note_on_c, 0, 62, 0
7, 50519, Note_on_c, 0, 71, 122
7, 50519, Note_on_c, 0, 72, 118
7, 50519, Note_on_c, 0, 66, 97
7, 50519, Note_on_c, 0, 77, 118
7, 50523, Note_on_c, 0, 67, 0
7, 50579, Note_on_c, 0, 71, 0
7, 50579, Note_on_c, 0, 56, 67
7, 50579, Note_on_c, 0, 67, 72
7, 50579, Note_on_c, 0, 62, 60
7, 50580, Note_on_c, 0, 66, 0
7, 50584, Note_on_c, 0, 72, 0
7, 50586, Note_on_c, 0, 77, 0
7, 50639, Note_on_c, 0, 66, 110
7, 50639, Note_on_c, 0, 72, 127
7, 50639, Note_on_c, 0, 71, 127
7, 50639, Note_on_c, 0, 77, 127
7, 50639, Note_on_c, 0, 74, 106
7, 50643, Note_on_c, 0, 56, 0
7, 50645, Note_on_c, 0, 67, 0
7, 50646, Note_on_c, 0, 62, 0
7, 50674, Note_on_c, 0, 74, 0
7, 50700, Note_on_c, 0, 71, 0
7, 50703, Note_on_c, 0, 72, 0
7, 50705, Note_on_c, 0, 77, 0
7, 50707, Note_on_c, 0, 66, 0
7, 51717, Note_on_c, 0, 96, 56
7, 51734, Note_on_c, 0, 103, 66
7, 51748, Note_on_c, 0, 96, 0
7, 51750, Note_on_c, 0, 95, 59
7, 51764, Note_on_c, 0, 103, 0
7, 51768, Note_on_c, 0, 102, 62
7, 51784, Note_on_c, 0, 95, 0
7, 51785, Note_on_c, 0, 94, 52
7, 51799, Note_on_c, 0, 102, 0
7, 51802, Note_on_c, 0, 101, 59
7, 51816, Note_on_c, 0, 94, 0
7, 51820, Note_on_c, 0, 93, 53
7, 51833, Note_on_c, 0, 101, 0
7, 51837, Note_on_c, 0, 100, 55
7, 51851, Note_on_c, 0, 93, 0
7, 51854, Note_on_c, 0, 92, 51
7, 51868, Note_on_c, 0, 100, 0
7, 51871, Note_on_c, 0, 99, 53
7, 51885, Note_on_c, 0, 92, 0
7, 51888, Note_on_c, 0, 91, 51
7, 51902, Note_on_c, 0, 99, 0
7, 51905, Note_on_c, 0, 98, 58
7, 51919, Note_on_c, 0, 91, 0
7, 51923, Note_on_c, 0, 90, 43
7, 51939, Note_on_c, 0, 98, 0
7, 51940, Note_on_c, 0, 97, 48
7, 51954, Note_on_c, 0, 90, 0
7, 51957, Note_on_c, 0, 89, 53
7, 51970, Note_on_c, 0, 97, 0
7, 51974, Note_on_c, 0, 96, 41
7, 51988, Note_on_c, 0, 89, 0
7, 51992, Note_on_c, 0, 88, 52
7, 52005, Note_on_c, 0, 96, 0
7, 52009, Note_on_c, 0, 95, 48
7, 52022, Note_on_c, 0, 88, 0
7, 52026, Note_on_c, 0, 87, 44
7, 52040, Note_on_c, 0, 95, 0
7, 52043, Note_on_c, 0, 94, 67
7, 52057, Note_on_c, 0, 87, 0
7, 52060, Note_on_c, 0, 86, 53
7, 52074, Note_on_c, 0, 94, 0
7, 52077, Note_on_c, 0, 93, 52
7, 52091, Note_on_c, 0, 86, 0
7, 52094, Note_on_c, 0, 85, 48
7, 52108, Note_on_c, 0, 93, 0
7, 52111, Note_on_c, 0, 92, 59
7, 52125, Note_on_c, 0, 85, 0
7, 52129, Note_on_c, 0, 84, 59
7, 52145, Note_on_c, 0, 92, 0
7, 52146, Note_on_c, 0, 91, 57
7, 52159, Note_on_c, 0, 84, 0
7, 52163, Note_on_c, 0, 83, 52
7, 52177, Note_on_c, 0, 91, 0
7, 52180, Note_on_c, 0, 90, 67
7, 52194, Note_on_c, 0, 83, 0
7, 52197, Note_on_c, 0, 82, 62
7, 52211, Note_on_c, 0, 90, 0
7, 52215, Note_on_c, 0, 89, 64
7, 52231, Note_on_c, 0, 82, 0
7, 52232, Note_on_c, 0, 81, 50
7, 52246, Note_on_c, 0, 89, 0
7, 52249, Note_on_c, 0, 88, 56
7, 52263, Note_on_c, 0, 81, 0
7, 52266, Note_on_c, 0, 80, 46
7, 52280, Note_on_c, 0, 88, 0
7, 52283, Note_on_c, 0, 87, 70
7, 52297, Note_on_c, 0, 80, 0
7, 52300, Note_on_c, 0, 79, 53
7, 52314, Note_on_c, 0, 87, 0
7, 52318, Note_on_c, 0, 86, 59
7, 52331, Note_on_c, 0, 79, 0
7, 52335, Note_on_c, 0, 78, 42
7, 52349, Note_on_c, 0, 86, 0
7, 52352, Note_on_c, 0, 85, 60
7, 52366, Note_on_c, 0, 78, 0
7, 52369, Note_on_c, 0, 77, 52
7, 52383, Note_on_c, 0, 85, 0
7, 52386, Note_on_c, 0, 84, 56
7, 52400, Note_on_c, 0, 77, 0
7, 52404, Note_on_c, 0, 76, 51
7, 52420, Note_on_c, 0, 84, 0
7, 52421, Note_on_c, 0, 83, 52
7, 52435, Note_on_c, 0, 76, 0
7, 52438, Note_on_c, 0, 75, 41
7, 52452, Note_on_c, 0, 83, 0
7, 52455, Note_on_c, 0, 82, 61
7, 52469, Note_on_c, 0, 75, 0
7, 52472, Note_on_c, 0, 74, 55
7, 52486, Note_on_c, 0, 82, 0
7, 52489, Note_on_c, 0, 81, 53
7, 52503, Note_on_c, 0, 74, 0
7, 52507, Note_on_c, 0, 73, 45
7, 52523, Note_on_c, 0, 81, 0
7, 52524, Note_on_c, 0, 80, 53
7, 52538, Note_on_c, 0, 73, 0
7, 52541, Note_on_c, 0, 72, 50
7, 52555, Note_on_c, 0, 80, 0
7, 52558, Note_on_c, 0, 79, 47
7, 52572, Note_on_c, 0, 72, 0
7, 52575, Note_on_c, 0, 71, 47
7, 52589, Note_on_c, 0, 79, 0
7, 52592, Note_on_c, 0, 78, 68
7, 52606, Note_on_c, 0, 71, 0
7, 52610, Note_on_c, 0, 70, 47
7, 52626, Note_on_c, 0, 78, 0
7, 52627, Note_on_c, 0, 77, 56
7, 52641, Note_on_c, 0, 70, 0
7, 52644, Note_on_c, 0, 69, 55
7, 52658, Note_on_c, 0, 77, 0
7, 52661, Note_on_c, 0, 76, 62
7, 52675, Note_on_c, 0, 69, 0
7, 52692, Note_on_c, 0, 76, 0
7, 62289, Note_on_c, 0, 85, 118
7, 62291, Note_on_c, 0, 61, 113
7, 62347, Note_on_c, 0, 49, 73
7, 62355, Note_on_c, 0, 73, 84
7, 62358, Note_on_c, 0, 61, 0
7, 62394, Note_on_c, 0, 85, 0
7, 62409, Note_on_c, 0, 49, 0
7, 62446, Note_on_c, 0, 73, 0
7, 62517, Note_on_c, 0, 73, 94
7, 62520, Note_on_c, 0, 49, 97
7, 62529, Note_on_c, 0, 61, 50
7, 62545, Note_on_c, 0, 61, 0
7, 62589, Note_on_c, 0, 73, 0
7, 62592, Note_on_c, 0, 49, 0
7, 62632, Note_on_c, 0, 49, 70
7, 62639, Note_on_c, 0, 73, 92
7, 62754, Note_on_c, 0, 79, 110
7, 62757, Note_on_c, 0, 57, 57
7, 62759, Note_on_c, 0, 80, 92
7, 62764, Note_on_c, 0, 49, 0
7, 62765, Note_on_c, 0, 57, 0
7, 62767, Note_on_c, 0, 73, 0
7, 62767, Note_on_c, 0, 79, 0
7, 62767, Note_on_c, 0, 58, 100
7, 62835, Note_on_c, 0, 85, 113
7, 62842, Note_on_c, 0, 61, 103
7, 62843, Note_on_c, 0, 80, 0
7, 62858, Note_on_c, 0, 58, 0
7, 62888, Note_on_c, 0, 61, 0
7, 62906, Note_on_c, 0, 85, 0
7, 62946, Note_on_c, 0, 56, 113
7, 62947, Note_on_c, 0, 80, 118
7, 63116, Note_on_c, 0, 80, 0
7, 63139, Note_on_c, 0, 56, 0
7, 69960, Note_on_c, 0, 38, 88
7, 69960, Note_on_c, 0, 57, 70
7, 69960, Note_on_c, 0, 61, 54
7, 69960, Note_on_c, 0, 54, 53
7, 70872, Note_on_c, 0, 61, 0
7, 70873, Note_on_c, 0, 57, 0
7, 70882, Note_on_c, 0, 54, 0
7, 70884, Note_on_c, 0, 38, 0
7, 70920, Note_on_c, 0, 43, 54
7, 70920, Note_on_c, 0, 59, 64
7, 70920, Note_on_c, 0, 62, 72
7, 70920, Note_on_c, 0, 54, 45
7, 71691, Note_on_c, 0, 54, 0
7, 71692, Note_on_c, 0, 59, 0
7, 71692, Note_on_c, 0, 62, 0
7, 71697, Note_on_c, 0, 43, 0
7, 71720, Note_on_c, 0, 62, 50
7, 71720, Note_on_c, 0, 59, 63
7, 71720, Note_on_c, 0, 43, 85
7, 71720, Note_on_c, 0, 54, 47
7, 71796, Note_on_c, 0, 43, 0
7, 71800, Note_on_c, 0, 59, 0
7, 71802, Note_on_c, 0, 62, 0
7, 71804, Note_on_c, 0, 54, 0
7, 71840, Note_on_c, 0, 38, 85
7, 71840, Note_on_c, 0, 57, 79
7, 71840, Note_on_c, 0, 61, 63
7, 71840, Note_on_c, 0, 54, 39
7, 72648, Note_on_c, 0, 38, 0
7, 72650, Note_on_c, 0, 57, 0
7, 72653, Note_on_c, 0, 61, 0
7, 72653, Note_on_c, 0, 54, 0
7, 72680, Note_on_c, 0, 57, 72
7, 72680, Note_on_c, 0, 61, 70
7, 72680, Note_on_c, 0, 54, 48
7, 72680, Note_on_c, 0, 38, 85
7, 72753, Note_on_c, 0, 57, 0
7, 72758, Note_on_c, 0, 61, 0
7, 72761, Note_on_c, 0, 54, 0
7, 72768, Note_on_c, 0, 38, 0
7, 72800, Note_on_c, 0, 59, 45
7, 72800, Note_on_c, 0, 54, 39
7, 72800, Note_on_c, 0, 43, 56
7, 72800, Note_on_c, 0, 62, 64
7, 73603, Note_on_c, 0, 43, 0
7, 73604, Note_on_c, 0, 59, 0
7, 73606, Note_on_c, 0, 54, 0
7, 73610, Note_on_c, 0, 62, 0
7, 73640, Note_on_c, 0, 54, 42
7, 73640, Note_on_c, 0, 43, 70
7, 73640, Note_on_c, 0, 59, 59
7, 73640, Note_on_c, 0, 62, 53
7, 73696, Note_on_c, 0, 54, 0
7, 73703, Note_on_c, 0, 59, 0
7, 73710, Note_on_c, 0, 62, 0
7, 73736, Note_on_c, 0, 43, 0
7, 73760, Note_on_c, 0, 61, 64
7, 73760, Note_on_c, 0, 65, 48
7, 73760, Note_on_c, 0, 42, 47
7, 73760, Note_on_c, 0, 56, 59
7, 74745, Note_on_c, 0, 65, 0
7, 74746, Note_on_c, 0, 61, 0
7, 74748, Note_on_c, 0, 42, 0
7, 74750, Note_on_c, 0, 56, 0
7, 74760, Note_on_c, 0, 61, 57
7, 74760, Note_on_c, 0, 42, 57
7, 74760, Note_on_c, 0, 65, 53
7, 74760, Note_on_c, 0, 56, 46
7, 75718, Note_on_c, 0, 42, 0
7, 75722, Note_on_c, 0, 61, 0
7, 75724, Note_on_c, 0, 56, 0
7, 75726, Note_on_c, 0, 65, 0
7, 75800, Note_on_c, 0, 41, 68
7, 75800, Note_on_c, 0, 48, 87
7, 75801, Note_on_c, 0, 75, 74
7, 75802, Note_on_c, 0, 68, 76
7, 75927, Note_on_c, 0, 75, 0
7, 75930, Note_on_c, 0, 68, 0
7, 75937, Note_on_c, 0, 41, 0
7, 75948, Note_on_c, 0, 48, 0
7, 75960, Note_on_c, 0, 40, 97
7, 75960, Note_on_c, 0, 47, 62
7, 75965, Note_on_c, 0, 68, 82
7, 75966, Note_on_c, 0, 75, 84
7, 76143, Note_on_c, 0, 75, 0
7, 76145, Note_on_c, 0, 68, 0
7, 76154, Note_on_c, 0, 47, 0
7, 76167, Note_on_c, 0, 40, 0
7, 76198, Note_on_c, 0, 66, 77
7, 76198, Note_on_c, 0, 73, 77
7, 76200, Note_on_c, 0, 46, 65
7, 76200, Note_on_c, 0, 39, 68
7, 76321, Note_on_c, 0, 39, 0
7, 76330, Note_on_c, 0, 46, 0
7, 76331, Note_on_c, 0, 66, 0
7, 76332, Note_on_c, 0, 73, 0
7, 76388, Note_on_c, 0, 66, 74
7, 76389, Note_on_c, 0, 73, 84
7, 76400, Note_on_c, 0, 38, 110
7, 76400, Note_on_c, 0, 45, 70
7, 76451, Note_on_c, 0, 73, 0
7, 76452, Note_on_c, 0, 66, 0
7, 76482, Note_on_c, 0, 38, 0
7, 76483, Note_on_c, 0, 45, 0
7, 76560, Note_on_c, 0, 37, 85
7, 76560, Note_on_c, 0, 44, 78
7, 76566, Note_on_c, 0, 66, 92
7, 76567, Note_on_c, 0, 73, 100
7, 77557, Note_on_c, 0, 37, 0
7, 77563, Note_on_c, 0, 73, 0
7, 77564, Note_on_c, 0, 44, 0
7, 77565, Note_on_c, 0, 66, 0
7, 77771, Note_on_c, 0, 84, 77
7, 77774, Note_on_c, 0, 66, 59
7, 77775, Note_on_c, 0, 30, 64
7, 77775, Note_on_c, 0, 73, 61
7, 77775, Note_on_c, 0, 77, 56
7, 78098, Note_on_c, 0, 73, 0
7, 78100, Note_on_c, 0, 84, 0
7, 78100, Note_on_c, 0, 66, 0
7, 78106, Note_on_c, 0, 77, 0
7, 78279, Note_on_c, 0, 89, 77
7, 78302, Note_on_c, 0, 90, 75
7, 78306, Note_on_c, 0, 89, 0
7, 78325, Note_on_c, 0, 89, 72
7, 78329, Note_on_c, 0, 90, 0
7, 78348, Note_on_c, 0, 85, 70
7, 78352, Note_on_c, 0, 89, 0
7, 78371, Note_on_c, 0, 87, 67
7, 78375, Note_on_c, 0, 85, 0
7, 78395, Note_on_c, 0, 82, 48
7, 78399, Note_on_c, 0, 87, 0
7, 78418, Note_on_c, 0, 80, 77
7, 78422, Note_on_c, 0, 82, 0
7, 78441, Note_on_c, 0, 77, 56
7, 78445, Note_on_c, 0, 80, 0
7, 78464, Note_on_c, 0, 73, 72
7, 78468, Note_on_c, 0, 77, 0
7, 78488, Note_on_c, 0, 75, 66
7, 78492, Note_on_c, 0, 73, 0
7, 78511, Note_on_c, 0, 72, 65
7, 78515, Note_on_c, 0, 75, 0
7, 78534, Note_on_c, 0, 68, 58
7, 78538, Note_on_c, 0, 72, 0
7, 78557, Note_on_c, 0, 65, 51
7, 78561, Note_on_c, 0, 68, 0
7, 78581, Note_on_c, 0, 61, 46
7, 78584, Note_on_c, 0, 65, 0
7, 78604, Note_on_c, 0, 60, 48
7, 78607, Note_on_c, 0, 61, 0
7, 78626, Note_on_c, 0, 63, 53
7, 78630, Note_on_c, 0, 60, 0
7, 78650, Note_on_c, 0, 58, 53
7, 78654, Note_on_c, 0, 63, 0
7, 79469, Note_on_c, 0, 58, 0
7, 79506, Note_on_c, 0, 30, 0
7, 79506, End_track
8, 0, Start_track
8, 0, Title_t, "bass"
8, 0, MIDI_port, 0
8, 0, Control_c, 8, 7, 127
8, 0, Program_c, 8, 36
8, 3, Control_c, 8, 91, 0
8, 40, Control_c, 8, 10, 64
8, 2400, Note_on_c, 8, 38, 127
8, 2714, Note_on_c, 8, 38, 0
8, 2720, Note_on_c, 8, 33, 120
8, 2752, Note_on_c, 8, 33, 0
8, 2760, Note_on_c, 8, 35, 122
8, 2840, Note_on_c, 8, 38, 127
8, 2850, Note_on_c, 8, 35, 0
8, 2891, Note_on_c, 8, 38, 0
8, 2960, Note_on_c, 8, 38, 127
8, 2999, Note_on_c, 8, 38, 0
8, 3000, Note_on_c, 8, 35, 127
8, 3080, Note_on_c, 8, 33, 126
8, 3088, Note_on_c, 8, 35, 0
8, 3113, Note_on_c, 8, 33, 0
8, 3120, Note_on_c, 8, 41, 127
8, 3200, Pitch_bend_c, 8, 12288
8, 3240, Pitch_bend_c, 8, 8192
8, 3320, Pitch_bend_c, 8, 12288
8, 3360, Note_on_c, 8, 38, 127
8, 3360, Pitch_bend_c, 8, 8192
8, 3379, Note_on_c, 8, 41, 0
8, 3680, Note_on_c, 8, 33, 118
8, 3681, Note_on_c, 8, 38, 0
8, 3717, Note_on_c, 8, 33, 0
8, 3720, Note_on_c, 8, 35, 115
8, 3800, Note_on_c, 8, 38, 127
8, 3801, Note_on_c, 8, 35, 0
8, 3846, Note_on_c, 8, 38, 0
8, 3920, Note_on_c, 8, 30, 127
8, 4080, Note_on_c, 8, 31, 120
8, 4088, Note_on_c, 8, 30, 0
8, 4160, Note_on_c, 8, 33, 127
8, 4163, Note_on_c, 8, 31, 0
8, 4200, Pitch_bend_c, 8, 4096
8, 4280, Pitch_bend_c, 8, 8192
8, 4320, Note_on_c, 8, 38, 127
8, 4331, Note_on_c, 8, 33, 0
8, 4629, Note_on_c, 8, 38, 0
8, 4640, Note_on_c, 8, 33, 117
8, 4680, Note_on_c, 8, 33, 0
8, 4680, Note_on_c, 8, 35, 118
8, 4760, Note_on_c, 8, 38, 127
8, 4761, Note_on_c, 8, 35, 0
8, 4810, Note_on_c, 8, 38, 0
8, 4880, Note_on_c, 8, 38, 127
8, 4920, Note_on_c, 8, 38, 0
8, 4920, Note_on_c, 8, 35, 127
8, 5000, Note_on_c, 8, 33, 120
8, 5003, Note_on_c, 8, 35, 0
8, 5030, Note_on_c, 8, 33, 0
8, 5040, Note_on_c, 8, 41, 127
8, 5120, Pitch_bend_c, 8, 12288
8, 5160, Pitch_bend_c, 8, 8192
8, 5240, Pitch_bend_c, 8, 12288
8, 5280, Pitch_bend_c, 8, 8192
8, 5360, Pitch_bend_c, 8, 12288
8, 5399, Note_on_c, 8, 41, 0
8, 5400, Pitch_bend_c, 8, 8192
8, 5400, Note_on_c, 8, 26, 127
8, 5467, Note_on_c, 8, 26, 0
8, 5600, Note_on_c, 8, 26, 127
8, 5659, Note_on_c, 8, 26, 0
8, 5760, Note_on_c, 8, 26, 127
8, 5824, Note_on_c, 8, 26, 0
8, 6240, Note_on_c, 8, 38, 127
8, 6554, Note_on_c, 8, 38, 0
8, 6560, Note_on_c, 8, 33, 120
8, 6592, Note_on_c, 8, 33, 0
8, 6600, Note_on_c, 8, 35, 122
8, 6680, Note_on_c, 8, 38, 127
8, 6690, Note_on_c, 8, 35, 0
8, 6731, Note_on_c, 8, 38, 0
8, 6800, Note_on_c, 8, 38, 127
8, 6839, Note_on_c, 8, 38, 0
8, 6840, Note_on_c, 8, 35, 127
8, 6920, Note_on_c, 8, 33, 126
8, 6928, Note_on_c, 8, 35, 0
8, 6953, Note_on_c, 8, 33, 0
8, 6960, Note_on_c, 8, 41, 127
8, 7040, Pitch_bend_c, 8, 12288
8, 7080, Pitch_bend_c, 8, 8192
8, 7160, Pitch_bend_c, 8, 12288
8, 7200, Note_on_c, 8, 38, 127
8, 7200, Pitch_bend_c, 8, 8192
8, 7219, Note_on_c, 8, 41, 0
8, 7520, Note_on_c, 8, 33, 118
8, 7521, Note_on_c, 8, 38, 0
8, 7557, Note_on_c, 8, 33, 0
8, 7560, Note_on_c, 8, 35, 115
8, 7640, Note_on_c, 8, 38, 127
8, 7641, Note_on_c, 8, 35, 0
8, 7686, Note_on_c, 8, 38, 0
8, 7760, Note_on_c, 8, 30, 127
8, 7920, Note_on_c, 8, 31, 120
8, 7928, Note_on_c, 8, 30, 0
8, 8000, Note_on_c, 8, 33, 127
8, 8003, Note_on_c, 8, 31, 0
8, 8040, Pitch_bend_c, 8, 4096
8, 8120, Pitch_bend_c, 8, 8192
8, 8160, Note_on_c, 8, 38, 127
8, 8171, Note_on_c, 8, 33, 0
8, 8469, Note_on_c, 8, 38, 0
8, 8480, Note_on_c, 8, 33, 117
8, 8520, Note_on_c, 8, 33, 0
8, 8520, Note_on_c, 8, 35, 118
8, 8600, Note_on_c, 8, 38, 127
8, 8601, Note_on_c, 8, 35, 0
8, 8650, Note_on_c, 8, 38, 0
8, 8720, Note_on_c, 8, 38, 127
8, 8760, Note_on_c, 8, 38, 0
8, 8760, Note_on_c, 8, 35, 127
8, 8840, Note_on_c, 8, 33, 120
8, 8843, Note_on_c, 8, 35, 0
8, 8870, Note_on_c, 8, 33, 0
8, 8880, Note_on_c, 8, 41, 127
8, 8960, Pitch_bend_c, 8, 12288
8, 9000, Pitch_bend_c, 8, 8192
8, 9080, Pitch_bend_c, 8, 12288
8, 9120, Pitch_bend_c, 8, 8192
8, 9200, Pitch_bend_c, 8, 12288
8, 9239, Note_on_c, 8, 41, 0
8, 9240, Note_on_c, 8, 26, 127
8, 9240, Pitch_bend_c, 8, 8192
8, 9307, Note_on_c, 8, 26, 0
8, 9440, Note_on_c, 8, 26, 127
8, 9499, Note_on_c, 8, 26, 0
8, 9600, Note_on_c, 8, 26, 127
8, 9664, Note_on_c, 8, 26, 0
8, 10080, Note_on_c, 8, 38, 127
8, 10394, Note_on_c, 8, 38, 0
8, 10400, Note_on_c, 8, 33, 120
8, 10432, Note_on_c, 8, 33, 0
8, 10440, Note_on_c, 8, 35, 122
8, 10520, Note_on_c, 8, 38, 127
8, 10530, Note_on_c, 8, 35, 0
8, 10571, Note_on_c, 8, 38, 0
8, 10640, Note_on_c, 8, 38, 127
8, 10679, Note_on_c, 8, 38, 0
8, 10680, Note_on_c, 8, 35, 127
8, 10760, Note_on_c, 8, 33, 126
8, 10768, Note_on_c, 8, 35, 0
8, 10793, Note_on_c, 8, 33, 0
8, 10800, Note_on_c, 8, 41, 127
8, 10880, Pitch_bend_c, 8, 12288
8, 10920, Pitch_bend_c, 8, 8192
8, 11000, Pitch_bend_c, 8, 12288
8, 11040, Note_on_c, 8, 38, 127
8, 11040, Pitch_bend_c, 8, 8192
8, 11059, Note_on_c, 8, 41, 0
8, 11360, Note_on_c, 8, 33, 118
8, 11361, Note_on_c, 8, 38, 0
8, 11397, Note_on_c, 8, 33, 0
8, 11400, Note_on_c, 8, 35, 115
8, 11480, Note_on_c, 8, 38, 127
8, 11481, Note_on_c, 8, 35, 0
8, 11526, Note_on_c, 8, 38, 0
8, 11600, Note_on_c, 8, 30, 127
8, 11760, Note_on_c, 8, 31, 120
8, 11768, Note_on_c, 8, 30, 0
8, 11840, Note_on_c, 8, 33, 127
8, 11843, Note_on_c, 8, 31, 0
8, 11880, Pitch_bend_c, 8, 4096
8, 11960, Pitch_bend_c, 8, 8192
8, 12000, Note_on_c, 8, 38, 127
8, 12011, Note_on_c, 8, 33, 0
8, 12309, Note_on_c, 8, 38, 0
8, 12320, Note_on_c, 8, 33, 117
8, 12360, Note_on_c, 8, 33, 0
8, 12360, Note_on_c, 8, 35, 118
8, 12440, Note_on_c, 8, 38, 127
8, 12441, Note_on_c, 8, 35, 0
8, 12490, Note_on_c, 8, 38, 0
8, 12560, Note_on_c, 8, 38, 127
8, 12600, Note_on_c, 8, 38, 0
8, 12600, Note_on_c, 8, 35, 127
8, 12680, Note_on_c, 8, 33, 120
8, 12683, Note_on_c, 8, 35, 0
8, 12710, Note_on_c, 8, 33, 0
8, 12720, Note_on_c, 8, 41, 127
8, 12800, Pitch_bend_c, 8, 12288
8, 12840, Pitch_bend_c, 8, 8192
8, 12920, Pitch_bend_c, 8, 12288
8, 12960, Pitch_bend_c, 8, 8192
8, 13040, Pitch_bend_c, 8, 12288
8, 13079, Note_on_c, 8, 41, 0
8, 13080, Note_on_c, 8, 26, 127
8, 13080, Pitch_bend_c, 8, 8192
8, 13147, Note_on_c, 8, 26, 0
8, 13280, Note_on_c, 8, 26, 127
8, 13339, Note_on_c, 8, 26, 0
8, 13440, Note_on_c, 8, 26, 127
8, 13504, Note_on_c, 8, 26, 0
8, 13920, Note_on_c, 8, 43, 97
8, 14032, Note_on_c, 8, 43, 0
8, 14040, Note_on_c, 8, 42, 122
8, 14143, Note_on_c, 8, 42, 0
8, 14160, Note_on_c, 8, 40, 94
8, 14247, Note_on_c, 8, 40, 0
8, 14280, Note_on_c, 8, 38, 76
8, 14372, Note_on_c, 8, 38, 0
8, 14400, Note_on_c, 8, 43, 97
8, 14472, Note_on_c, 8, 43, 0
8, 14480, Note_on_c, 8, 42, 127
8, 14531, Note_on_c, 8, 42, 0
8, 14600, Note_on_c, 8, 40, 110
8, 14651, Note_on_c, 8, 40, 0
8, 14720, Note_on_c, 8, 38, 122
8, 14769, Note_on_c, 8, 38, 0
8, 14840, Note_on_c, 8, 37, 118
8, 15197, Note_on_c, 8, 37, 0
8, 15200, Note_on_c, 8, 42, 127
8, 15240, Note_on_c, 8, 37, 113
8, 15243, Note_on_c, 8, 42, 0
8, 15290, Note_on_c, 8, 37, 0
8, 15320, Note_on_c, 8, 35, 122
8, 15590, Note_on_c, 8, 35, 0
8, 15600, Note_on_c, 8, 47, 90
8, 15640, Note_on_c, 8, 42, 92
8, 15642, Note_on_c, 8, 47, 0
8, 15672, Note_on_c, 8, 42, 0
8, 15680, Note_on_c, 8, 38, 67
8, 15717, Note_on_c, 8, 38, 0
8, 15720, Note_on_c, 8, 35, 97
8, 15840, Note_on_c, 8, 40, 100
8, 15843, Note_on_c, 8, 35, 0
8, 15943, Note_on_c, 8, 40, 0
8, 15960, Note_on_c, 8, 40, 77
8, 16160, Note_on_c, 8, 35, 66
8, 16177, Note_on_c, 8, 40, 0
8, 16200, Note_on_c, 8, 40, 118
8, 16204, Note_on_c, 8, 35, 0
8, 16231, Note_on_c, 8, 40, 0
8, 16280, Note_on_c, 8, 33, 113
8, 16814, Note_on_c, 8, 33, 0
8, 16880, Note_on_c, 8, 37, 118
8, 17015, Note_on_c, 8, 37, 0
8, 17040, Note_on_c, 8, 36, 106
8, 17270, Note_on_c, 8, 36, 0
8, 17280, Note_on_c, 8, 35, 113
8, 17442, Note_on_c, 8, 35, 0
8, 17480, Note_on_c, 8, 34, 113
8, 17532, Note_on_c, 8, 34, 0
8, 17640, Note_on_c, 8, 33, 122
8, 18708, Note_on_c, 8, 33, 0
8, 18720, Note_on_c, 8, 38, 127
8, 19034, Note_on_c, 8, 38, 0
8, 19040, Note_on_c, 8, 33, 120
8, 19072, Note_on_c, 8, 33, 0
8, 19080, Note_on_c, 8, 35, 122
8, 19160, Note_on_c, 8, 38, 127
8, 19170, Note_on_c, 8, 35, 0
8, 19211, Note_on_c, 8, 38, 0
8, 19280, Note_on_c, 8, 38, 127
8, 19319, Note_on_c, 8, 38, 0
8, 19320, Note_on_c, 8, 35, 127
8, 19400, Note_on_c, 8, 33, 126
8, 19408, Note_on_c, 8, 35, 0
8, 19433, Note_on_c, 8, 33, 0
8, 19440, Note_on_c, 8, 41, 127
8, 19520, Pitch_bend_c, 8, 12288
8, 19560, Pitch_bend_c, 8, 8192
8, 19640, Pitch_bend_c, 8, 12288
8, 19680, Pitch_bend_c, 8, 8192
8, 19760, Pitch_bend_c, 8, 12288
8, 19799, Note_on_c, 8, 41, 0
8, 19800, Pitch_bend_c, 8, 8192
8, 19800, Note_on_c, 8, 26, 127
8, 19867, Note_on_c, 8, 26, 0
8, 20000, Note_on_c, 8, 26, 127
8, 20059, Note_on_c, 8, 26, 0
8, 20160, Note_on_c, 8, 26, 127
8, 20224, Note_on_c, 8, 26, 0
8, 21000, Note_on_c, 8, 38, 127
8, 21314, Note_on_c, 8, 38, 0
8, 21320, Note_on_c, 8, 33, 120
8, 21352, Note_on_c, 8, 33, 0
8, 21360, Note_on_c, 8, 35, 122
8, 21440, Note_on_c, 8, 38, 127
8, 21450, Note_on_c, 8, 35, 0
8, 21491, Note_on_c, 8, 38, 0
8, 21560, Note_on_c, 8, 38, 127
8, 21599, Note_on_c, 8, 38, 0
8, 21600, Note_on_c, 8, 35, 127
8, 21680, Note_on_c, 8, 33, 126
8, 21688, Note_on_c, 8, 35, 0
8, 21713, Note_on_c, 8, 33, 0
8, 21720, Note_on_c, 8, 41, 127
8, 21800, Pitch_bend_c, 8, 12288
8, 21840, Pitch_bend_c, 8, 8192
8, 21920, Pitch_bend_c, 8, 12288
8, 21960, Pitch_bend_c, 8, 8192
8, 21960, Note_on_c, 8, 38, 127
8, 21979, Note_on_c, 8, 41, 0
8, 22280, Note_on_c, 8, 33, 118
8, 22281, Note_on_c, 8, 38, 0
8, 22317, Note_on_c, 8, 33, 0
8, 22320, Note_on_c, 8, 35, 115
8, 22400, Note_on_c, 8, 38, 127
8, 22401, Note_on_c, 8, 35, 0
8, 22446, Note_on_c, 8, 38, 0
8, 22520, Note_on_c, 8, 30, 127
8, 22680, Note_on_c, 8, 31, 120
8, 22688, Note_on_c, 8, 30, 0
8, 22760, Note_on_c, 8, 33, 127
8, 22763, Note_on_c, 8, 31, 0
8, 22800, Pitch_bend_c, 8, 4096
8, 22880, Pitch_bend_c, 8, 8192
8, 22920, Note_on_c, 8, 38, 127
8, 22931, Note_on_c, 8, 33, 0
8, 23229, Note_on_c, 8, 38, 0
8, 23240, Note_on_c, 8, 33, 117
8, 23280, Note_on_c, 8, 33, 0
8, 23280, Note_on_c, 8, 35, 118
8, 23360, Note_on_c, 8, 38, 127
8, 23361, Note_on_c, 8, 35, 0
8, 23410, Note_on_c, 8, 38, 0
8, 23480, Note_on_c, 8, 38, 127
8, 23520, Note_on_c, 8, 38, 0
8, 23520, Note_on_c, 8, 35, 127
8, 23600, Note_on_c, 8, 33, 120
8, 23603, Note_on_c, 8, 35, 0
8, 23630, Note_on_c, 8, 33, 0
8, 23640, Note_on_c, 8, 41, 127
8, 23720, Pitch_bend_c, 8, 12288
8, 23760, Pitch_bend_c, 8, 8192
8, 23840, Pitch_bend_c, 8, 12288
8, 23880, Pitch_bend_c, 8, 8192
8, 23960, Pitch_bend_c, 8, 12288
8, 23999, Note_on_c, 8, 41, 0
8, 24000, Pitch_bend_c, 8, 8192
8, 24000, Note_on_c, 8, 26, 127
8, 24067, Note_on_c, 8, 26, 0
8, 24200, Note_on_c, 8, 26, 127
8, 24259, Note_on_c, 8, 26, 0
8, 24360, Note_on_c, 8, 26, 127
8, 24424, Note_on_c, 8, 26, 0
8, 24840, Note_on_c, 8, 38, 127
8, 25154, Note_on_c, 8, 38, 0
8, 25160, Note_on_c, 8, 33, 120
8, 25192, Note_on_c, 8, 33, 0
8, 25200, Note_on_c, 8, 35, 122
8, 25280, Note_on_c, 8, 38, 127
8, 25290, Note_on_c, 8, 35, 0
8, 25331, Note_on_c, 8, 38, 0
8, 25400, Note_on_c, 8, 38, 127
8, 25439, Note_on_c, 8, 38, 0
8, 25440, Note_on_c, 8, 35, 127
8, 25520, Note_on_c, 8, 33, 126
8, 25528, Note_on_c, 8, 35, 0
8, 25553, Note_on_c, 8, 33, 0
8, 25560, Note_on_c, 8, 41, 127
8, 25640, Pitch_bend_c, 8, 12288
8, 25680, Pitch_bend_c, 8, 8192
8, 25760, Pitch_bend_c, 8, 12288
8, 25800, Note_on_c, 8, 38, 127
8, 25800, Pitch_bend_c, 8, 8192
8, 25819, Note_on_c, 8, 41, 0
8, 26120, Note_on_c, 8, 33, 118
8, 26121, Note_on_c, 8, 38, 0
8, 26157, Note_on_c, 8, 33, 0
8, 26160, Note_on_c, 8, 35, 115
8, 26240, Note_on_c, 8, 38, 127
8, 26241, Note_on_c, 8, 35, 0
8, 26286, Note_on_c, 8, 38, 0
8, 26360, Note_on_c, 8, 30, 127
8, 26520, Note_on_c, 8, 31, 120
8, 26528, Note_on_c, 8, 30, 0
8, 26600, Note_on_c, 8, 33, 127
8, 26603, Note_on_c, 8, 31, 0
8, 26640, Pitch_bend_c, 8, 4096
8, 26720, Pitch_bend_c, 8, 8192
8, 26760, Note_on_c, 8, 38, 127
8, 26771, Note_on_c, 8, 33, 0
8, 27069, Note_on_c, 8, 38, 0
8, 27080, Note_on_c, 8, 33, 117
8, 27120, Note_on_c, 8, 33, 0
8, 27120, Note_on_c, 8, 35, 118
8, 27200, Note_on_c, 8, 38, 127
8, 27201, Note_on_c, 8, 35, 0
8, 27250, Note_on_c, 8, 38, 0
8, 27320, Note_on_c, 8, 38, 127
8, 27360, Note_on_c, 8, 38, 0
8, 27360, Note_on_c, 8, 35, 127
8, 27440, Note_on_c, 8, 33, 120
8, 27443, Note_on_c, 8, 35, 0
8, 27470, Note_on_c, 8, 33, 0
8, 27480, Note_on_c, 8, 41, 127
8, 27560, Pitch_bend_c, 8, 12288
8, 27600, Pitch_bend_c, 8, 8192
8, 27680, Pitch_bend_c, 8, 12288
8, 27720, Pitch_bend_c, 8, 8192
8, 27800, Pitch_bend_c, 8, 12288
8, 27839, Note_on_c, 8, 41, 0
8, 27840, Note_on_c, 8, 26, 127
8, 27840, Pitch_bend_c, 8, 8192
8, 27907, Note_on_c, 8, 26, 0
8, 28040, Note_on_c, 8, 26, 127
8, 28099, Note_on_c, 8, 26, 0
8, 28200, Note_on_c, 8, 26, 127
8, 28264, Note_on_c, 8, 26, 0
8, 28680, Note_on_c, 8, 43, 97
8, 28792, Note_on_c, 8, 43, 0
8, 28800, Note_on_c, 8, 42, 122
8, 28903, Note_on_c, 8, 42, 0
8, 28920, Note_on_c, 8, 40, 94
8, 29007, Note_on_c, 8, 40, 0
8, 29040, Note_on_c, 8, 38, 76
8, 29132, Note_on_c, 8, 38, 0
8, 29160, Note_on_c, 8, 43, 97
8, 29232, Note_on_c, 8, 43, 0
8, 29240, Note_on_c, 8, 42, 127
8, 29291, Note_on_c, 8, 42, 0
8, 29360, Note_on_c, 8, 40, 110
8, 29411, Note_on_c, 8, 40, 0
8, 29480, Note_on_c, 8, 38, 122
8, 29529, Note_on_c, 8, 38, 0
8, 29600, Note_on_c, 8, 37, 118
8, 29957, Note_on_c, 8, 37, 0
8, 29960, Note_on_c, 8, 42, 127
8, 30000, Note_on_c, 8, 37, 113
8, 30003, Note_on_c, 8, 42, 0
8, 30050, Note_on_c, 8, 37, 0
8, 30080, Note_on_c, 8, 35, 122
8, 30350, Note_on_c, 8, 35, 0
8, 30360, Note_on_c, 8, 47, 90
8, 30400, Note_on_c, 8, 42, 92
8, 30402, Note_on_c, 8, 47, 0
8, 30432, Note_on_c, 8, 42, 0
8, 30440, Note_on_c, 8, 38, 67
8, 30477, Note_on_c, 8, 38, 0
8, 30480, Note_on_c, 8, 35, 97
8, 30600, Note_on_c, 8, 40, 100
8, 30603, Note_on_c, 8, 35, 0
8, 30703, Note_on_c, 8, 40, 0
8, 30720, Note_on_c, 8, 40, 77
8, 30920, Note_on_c, 8, 35, 66
8, 30937, Note_on_c, 8, 40, 0
8, 30960, Note_on_c, 8, 40, 118
8, 30964, Note_on_c, 8, 35, 0
8, 30991, Note_on_c, 8, 40, 0
8, 31040, Note_on_c, 8, 33, 113
8, 31574, Note_on_c, 8, 33, 0
8, 31640, Note_on_c, 8, 37, 118
8, 31775, Note_on_c, 8, 37, 0
8, 31800, Note_on_c, 8, 36, 106
8, 32030, Note_on_c, 8, 36, 0
8, 32040, Note_on_c, 8, 35, 113
8, 32202, Note_on_c, 8, 35, 0
8, 32240, Note_on_c, 8, 34, 113
8, 32292, Note_on_c, 8, 34, 0
8, 32400, Note_on_c, 8, 33, 122
8, 33440, Note_on_c, 8, 34, 127
8, 33468, Note_on_c, 8, 33, 0
8, 33837, Note_on_c, 8, 34, 0
8, 33920, Note_on_c, 8, 41, 106
8, 33931, Pitch_bend_c, 8, 8465
8, 33932, Pitch_bend_c, 8, 9830
8, 33933, Pitch_bend_c, 8, 11059
8, 33934, Pitch_bend_c, 8, 11878
8, 33935, Pitch_bend_c, 8, 12971
8, 33936, Pitch_bend_c, 8, 13790
8, 33937, Pitch_bend_c, 8, 14745
8, 33938, Pitch_bend_c, 8, 15565
8, 33939, Pitch_bend_c, 8, 16383
8, 33987, Note_on_c, 8, 41, 0
8, 33997, Pitch_bend_c, 8, 16269
8, 33998, Pitch_bend_c, 8, 15929
8, 33999, Pitch_bend_c, 8, 15565
8, 34000, Pitch_bend_c, 8, 15155
8, 34001, Pitch_bend_c, 8, 14745
8, 34002, Pitch_bend_c, 8, 14063
8, 34003, Pitch_bend_c, 8, 13790
8, 34004, Pitch_bend_c, 8, 13312
8, 34005, Pitch_bend_c, 8, 12697
8, 34006, Pitch_bend_c, 8, 12151
8, 34007, Pitch_bend_c, 8, 11606
8, 34008, Pitch_bend_c, 8, 10695
8, 34009, Pitch_bend_c, 8, 9284
8, 34009, Pitch_bend_c, 8, 10240
8, 34010, Pitch_bend_c, 8, 8328
8, 34011, Pitch_bend_c, 8, 8192
8, 34040, Note_on_c, 8, 41, 97
8, 34081, Note_on_c, 8, 41, 0
8, 34160, Note_on_c, 8, 36, 85
8, 34161, Pitch_bend_c, 8, 8328
8, 34162, Pitch_bend_c, 8, 10581
8, 34163, Pitch_bend_c, 8, 11606
8, 34164, Pitch_bend_c, 8, 13084
8, 34165, Pitch_bend_c, 8, 14472
8, 34166, Pitch_bend_c, 8, 15565
8, 34168, Pitch_bend_c, 8, 16383
8, 34191, Pitch_bend_c, 8, 16269
8, 34192, Pitch_bend_c, 8, 15929
8, 34193, Pitch_bend_c, 8, 14882
8, 34193, Pitch_bend_c, 8, 15428
8, 34195, Pitch_bend_c, 8, 13926
8, 34196, Pitch_bend_c, 8, 13426
8, 34197, Pitch_bend_c, 8, 12561
8, 34197, Pitch_bend_c, 8, 12015
8, 34198, Pitch_bend_c, 8, 11332
8, 34199, Pitch_bend_c, 8, 10809
8, 34200, Pitch_bend_c, 8, 10240
8, 34201, Pitch_bend_c, 8, 9558
8, 34202, Pitch_bend_c, 8, 8738
8, 34203, Pitch_bend_c, 8, 8192
8, 34280, Note_on_c, 8, 34, 100
8, 34287, Note_on_c, 8, 36, 0
8, 34320, Note_on_c, 8, 36, 77
8, 34329, Note_on_c, 8, 34, 0
8, 34346, Note_on_c, 8, 36, 0
8, 34400, Note_on_c, 8, 36, 103
8, 34824, Note_on_c, 8, 36, 0
8, 34880, Note_on_c, 8, 36, 100
8, 34959, Note_on_c, 8, 36, 0
8, 34960, Note_on_c, 8, 31, 100
8, 34984, Note_on_c, 8, 31, 0
8, 35000, Note_on_c, 8, 27, 76
8, 35024, Note_on_c, 8, 27, 0
8, 35040, Note_on_c, 8, 24, 106
8, 35240, Note_on_c, 8, 27, 97
8, 35241, Note_on_c, 8, 24, 0
8, 35278, Note_on_c, 8, 27, 0
8, 35280, Note_on_c, 8, 31, 100
8, 35309, Note_on_c, 8, 31, 0
8, 35360, Note_on_c, 8, 26, 113
8, 35720, Note_on_c, 8, 29, 94
8, 35735, Note_on_c, 8, 26, 0
8, 35760, Note_on_c, 8, 33, 103
8, 35764, Note_on_c, 8, 29, 0
8, 35829, Note_on_c, 8, 33, 0
8, 35840, Note_on_c, 8, 31, 100
8, 36151, Note_on_c, 8, 31, 0
8, 36200, Note_on_c, 8, 43, 103
8, 36237, Note_on_c, 8, 43, 0
8, 36240, Note_on_c, 8, 31, 106
8, 36270, Note_on_c, 8, 31, 0
8, 36320, Note_on_c, 8, 36, 118
8, 36600, Note_on_c, 8, 48, 97
8, 36608, Note_on_c, 8, 36, 0
8, 36640, Note_on_c, 8, 48, 0
8, 36640, Note_on_c, 8, 43, 50
8, 36680, Note_on_c, 8, 39, 84
8, 36697, Note_on_c, 8, 43, 0
8, 36711, Note_on_c, 8, 39, 0
8, 36720, Note_on_c, 8, 36, 77
8, 36799, Note_on_c, 8, 36, 0
8, 36806, Note_on_c, 8, 41, 122
8, 37016, Note_on_c, 8, 41, 0
8, 37037, Note_on_c, 8, 41, 61
8, 37044, Note_on_c, 8, 36, 84
8, 37070, Note_on_c, 8, 33, 100
8, 37075, Note_on_c, 8, 41, 0
8, 37079, Note_on_c, 8, 36, 0
8, 37092, Note_on_c, 8, 29, 106
8, 37109, Note_on_c, 8, 33, 0
8, 37265, Note_on_c, 8, 29, 0
8, 37278, Note_on_c, 8, 38, 127
8, 37880, Note_on_c, 8, 31, 92
8, 37886, Note_on_c, 8, 38, 0
8, 37920, Note_on_c, 8, 33, 76
8, 37924, Note_on_c, 8, 31, 0
8, 38000, Note_on_c, 8, 33, 0
8, 38000, Note_on_c, 8, 38, 74
8, 38040, Note_on_c, 8, 36, 94
8, 38045, Note_on_c, 8, 38, 0
8, 38120, Note_on_c, 8, 33, 61
8, 38123, Note_on_c, 8, 36, 0
8, 38160, Note_on_c, 8, 31, 84
8, 38165, Note_on_c, 8, 33, 0
8, 38240, Note_on_c, 8, 28, 103
8, 38244, Note_on_c, 8, 31, 0
8, 38880, Note_on_c, 8, 35, 87
8, 38891, Note_on_c, 8, 28, 0
8, 38950, Note_on_c, 8, 35, 0
8, 38960, Note_on_c, 8, 42, 82
8, 39000, Note_on_c, 8, 40, 110
8, 39014, Note_on_c, 8, 42, 0
8, 39080, Note_on_c, 8, 38, 90
8, 39082, Note_on_c, 8, 40, 0
8, 39120, Note_on_c, 8, 35, 65
8, 39130, Note_on_c, 8, 38, 0
8, 39156, Note_on_c, 8, 35, 0
8, 39200, Note_on_c, 8, 42, 103
8, 39550, Note_on_c, 8, 42, 0
8, 39560, Note_on_c, 8, 37, 82
8, 39600, Note_on_c, 8, 37, 0
8, 39600, Note_on_c, 8, 42, 122
8, 39640, Note_on_c, 8, 37, 94
8, 39647, Note_on_c, 8, 42, 0
8, 39673, Note_on_c, 8, 37, 0
8, 39680, Note_on_c, 8, 35, 110
8, 40040, Note_on_c, 8, 30, 87
8, 40048, Note_on_c, 8, 35, 0
8, 40080, Note_on_c, 8, 35, 65
8, 40082, Note_on_c, 8, 30, 0
8, 40120, Note_on_c, 8, 30, 94
8, 40127, Note_on_c, 8, 35, 0
8, 40157, Note_on_c, 8, 30, 0
8, 40270, Note_on_c, 8, 38, 127
8, 40425, Note_on_c, 8, 38, 0
8, 40438, Note_on_c, 8, 37, 127
8, 40647, Note_on_c, 8, 37, 0
8, 40680, Note_on_c, 8, 36, 103
8, 40814, Note_on_c, 8, 36, 0
8, 40864, Note_on_c, 8, 35, 97
8, 40922, Note_on_c, 8, 35, 0
8, 40990, Note_on_c, 8, 34, 127
8, 42967, Note_on_c, 8, 34, 0
8, 43038, Program_c, 8, 35
8, 43040, Note_on_c, 8, 39, 127
8, 43189, Note_on_c, 8, 39, 0
8, 43200, Note_on_c, 8, 50, 91
8, 43320, Note_on_c, 8, 48, 102
8, 43334, Note_on_c, 8, 50, 0
8, 43437, Note_on_c, 8, 48, 0
8, 43440, Note_on_c, 8, 46, 88
8, 43560, Note_on_c, 8, 43, 102
8, 43581, Note_on_c, 8, 46, 0
8, 43680, Note_on_c, 8, 41, 98
8, 43682, Note_on_c, 8, 43, 0
8, 43793, Note_on_c, 8, 41, 0
8, 43800, Note_on_c, 8, 39, 100
8, 43918, Note_on_c, 8, 39, 0
8, 43920, Note_on_c, 8, 38, 110
8, 44031, Note_on_c, 8, 38, 0
8, 44520, Note_on_c, 8, 36, 127
8, 44625, Note_on_c, 8, 36, 0
8, 44640, Note_on_c, 8, 38, 98
8, 44760, Note_on_c, 8, 39, 70
8, 44774, Note_on_c, 8, 38, 0
8, 44874, Note_on_c, 8, 39, 0
8, 44880, Note_on_c, 8, 43, 87
8, 45000, Note_on_c, 8, 41, 110
8, 45016, Note_on_c, 8, 43, 0
8, 45120, Note_on_c, 8, 39, 127
8, 45132, Note_on_c, 8, 41, 0
8, 45240, Note_on_c, 8, 38, 112
8, 45257, Note_on_c, 8, 39, 0
8, 45360, Note_on_c, 8, 36, 88
8, 45364, Note_on_c, 8, 38, 0
8, 45480, Note_on_c, 8, 34, 86
8, 45487, Note_on_c, 8, 36, 0
8, 45600, Note_on_c, 8, 31, 74
8, 45628, Note_on_c, 8, 34, 0
8, 45720, Note_on_c, 8, 29, 93
8, 45730, Note_on_c, 8, 31, 0
8, 45840, Note_on_c, 8, 31, 98
8, 45852, Note_on_c, 8, 29, 0
8, 45953, Note_on_c, 8, 31, 0
8, 45960, Note_on_c, 8, 31, 80
8, 46079, Note_on_c, 8, 31, 0
8, 46080, Note_on_c, 8, 29, 96
8, 46178, Note_on_c, 8, 29, 0
8, 46200, Note_on_c, 8, 31, 93
8, 46320, Note_on_c, 8, 32, 96
8, 46324, Note_on_c, 8, 31, 0
8, 46437, Note_on_c, 8, 32, 0
8, 46440, Note_on_c, 8, 34, 116
8, 46560, Note_on_c, 8, 36, 104
8, 46573, Note_on_c, 8, 34, 0
8, 46680, Note_on_c, 8, 38, 110
8, 46696, Note_on_c, 8, 36, 0
8, 46800, Note_on_c, 8, 41, 96
8, 46801, Note_on_c, 8, 38, 0
8, 46920, Note_on_c, 8, 42, 106
8, 46940, Note_on_c, 8, 41, 0
8, 46960, Note_on_c, 8, 37, 78
8, 46970, Note_on_c, 8, 42, 0
8, 46998, Note_on_c, 8, 37, 0
8, 47000, Note_on_c, 8, 34, 68
8, 47034, Note_on_c, 8, 34, 0
8, 47040, Note_on_c, 8, 30, 113
8, 47160, Note_on_c, 8, 34, 127
8, 47173, Note_on_c, 8, 30, 0
8, 47280, Note_on_c, 8, 35, 106
8, 47281, Note_on_c, 8, 34, 0
8, 47400, Note_on_c, 8, 37, 82
8, 47413, Note_on_c, 8, 35, 0
8, 47517, Note_on_c, 8, 37, 0
8, 47520, Note_on_c, 8, 42, 122
8, 47630, Note_on_c, 8, 42, 0
8, 47640, Note_on_c, 8, 44, 110
8, 47760, Note_on_c, 8, 46, 110
8, 47762, Note_on_c, 8, 44, 0
8, 47880, Note_on_c, 8, 39, 103
8, 47883, Note_on_c, 8, 46, 0
8, 47999, Note_on_c, 8, 39, 0
8, 48000, Note_on_c, 8, 41, 122
8, 48120, Note_on_c, 8, 39, 127
8, 48127, Note_on_c, 8, 41, 0
8, 48236, Note_on_c, 8, 39, 0
8, 48240, Note_on_c, 8, 37, 97
8, 48360, Note_on_c, 8, 34, 66
8, 48368, Note_on_c, 8, 37, 0
8, 48480, Note_on_c, 8, 39, 110
8, 48484, Note_on_c, 8, 34, 0
8, 48600, Note_on_c, 8, 41, 127
8, 48606, Note_on_c, 8, 39, 0
8, 48720, Note_on_c, 8, 42, 113
8, 48722, Note_on_c, 8, 41, 0
8, 48840, Note_on_c, 8, 32, 106
8, 48848, Note_on_c, 8, 42, 0
8, 48960, Note_on_c, 8, 34, 92
8, 48962, Note_on_c, 8, 32, 0
8, 49080, Note_on_c, 8, 35, 92
8, 49082, Note_on_c, 8, 34, 0
8, 49200, Note_on_c, 8, 39, 103
8, 49205, Note_on_c, 8, 35, 0
8, 49315, Note_on_c, 8, 39, 0
8, 49320, Note_on_c, 8, 44, 84
8, 49435, Note_on_c, 8, 44, 0
8, 49440, Note_on_c, 8, 47, 90
8, 49560, Note_on_c, 8, 46, 90
8, 49575, Note_on_c, 8, 47, 0
8, 49680, Note_on_c, 8, 44, 106
8, 49684, Note_on_c, 8, 46, 0
8, 49811, Note_on_c, 8, 44, 0
8, 52520, Note_on_c, 8, 36, 127
8, 52610, Note_on_c, 8, 36, 0
8, 52640, Note_on_c, 8, 35, 127
8, 52771, Note_on_c, 8, 35, 0
8, 52800, Note_on_c, 8, 39, 65
8, 52920, Note_on_c, 8, 42, 100
8, 52927, Note_on_c, 8, 39, 0
8, 53005, Note_on_c, 8, 42, 0
8, 53040, Note_on_c, 8, 44, 66
8, 53083, Note_on_c, 8, 44, 0
8, 53113, Note_on_c, 8, 34, 127
8, 53159, Note_on_c, 8, 34, 0
8, 53160, Note_on_c, 8, 35, 127
8, 53360, Note_on_c, 8, 35, 0
8, 53360, Note_on_c, 8, 39, 122
8, 53480, Note_on_c, 8, 39, 0
8, 53480, Note_on_c, 8, 42, 113
8, 53527, Note_on_c, 8, 42, 0
8, 53616, Note_on_c, 8, 47, 94
8, 53660, Note_on_c, 8, 46, 127
8, 53665, Note_on_c, 8, 47, 0
8, 53879, Note_on_c, 8, 46, 0
8, 53880, Note_on_c, 8, 46, 90
8, 53918, Note_on_c, 8, 46, 0
8, 53920, Note_on_c, 8, 41, 90
8, 53953, Note_on_c, 8, 41, 0
8, 53960, Note_on_c, 8, 37, 80
8, 53999, Note_on_c, 8, 37, 0
8, 54000, Note_on_c, 8, 34, 100
8, 54072, Note_on_c, 8, 34, 0
8, 54080, Note_on_c, 8, 39, 127
8, 54193, Note_on_c, 8, 39, 0
8, 54200, Note_on_c, 8, 34, 57
8, 54238, Note_on_c, 8, 34, 0
8, 54240, Note_on_c, 8, 41, 100
8, 54320, Note_on_c, 8, 34, 52
8, 54327, Note_on_c, 8, 41, 0
8, 54360, Note_on_c, 8, 42, 100
8, 54362, Note_on_c, 8, 34, 0
8, 54440, Note_on_c, 8, 34, 52
8, 54441, Note_on_c, 8, 42, 0
8, 54480, Note_on_c, 8, 44, 87
8, 54483, Note_on_c, 8, 34, 0
8, 54560, Note_on_c, 8, 41, 65
8, 54570, Note_on_c, 8, 44, 0
8, 54592, Note_on_c, 8, 41, 0
8, 54600, Note_on_c, 8, 32, 94
8, 54720, Note_on_c, 8, 34, 100
8, 54725, Note_on_c, 8, 32, 0
8, 54840, Note_on_c, 8, 35, 94
8, 54849, Note_on_c, 8, 34, 0
8, 54960, Note_on_c, 8, 37, 85
8, 54964, Note_on_c, 8, 35, 0
8, 55080, Note_on_c, 8, 39, 90
8, 55088, Note_on_c, 8, 37, 0
8, 55196, Note_on_c, 8, 39, 0
8, 55200, Note_on_c, 8, 42, 94
8, 55320, Note_on_c, 8, 42, 0
8, 55320, Note_on_c, 8, 44, 118
8, 55441, Note_on_c, 8, 39, 76
8, 55446, Note_on_c, 8, 44, 0
8, 55560, Note_on_c, 8, 37, 103
8, 55561, Note_on_c, 8, 39, 0
8, 56017, Note_on_c, 8, 37, 0
8, 56040, Note_on_c, 8, 37, 82
8, 56080, Note_on_c, 8, 32, 62
8, 56098, Note_on_c, 8, 37, 0
8, 56118, Note_on_c, 8, 32, 0
8, 56120, Note_on_c, 8, 29, 90
8, 56159, Note_on_c, 8, 25, 127
8, 56161, Note_on_c, 8, 29, 0
8, 56331, Note_on_c, 8, 25, 0
8, 56352, Note_on_c, 8, 24, 127
8, 56464, Note_on_c, 8, 24, 0
8, 62280, Note_on_c, 8, 37, 94
8, 63233, Note_on_c, 8, 37, 0
8, 63240, Note_on_c, 8, 32, 67
8, 63355, Note_on_c, 8, 32, 0
8, 63360, Note_on_c, 8, 35, 78
8, 63474, Note_on_c, 8, 35, 0
8, 63480, Note_on_c, 8, 34, 70
8, 63600, Note_on_c, 8, 32, 55
8, 63603, Note_on_c, 8, 34, 0
8, 63711, Note_on_c, 8, 32, 0
8, 63720, Note_on_c, 8, 37, 52
8, 63840, Note_on_c, 8, 35, 70
8, 63849, Note_on_c, 8, 37, 0
8, 63960, Note_on_c, 8, 32, 56
8, 63966, Note_on_c, 8, 35, 0
8, 64080, Note_on_c, 8, 29, 59
8, 64103, Note_on_c, 8, 32, 0
8, 64200, Note_on_c, 8, 29, 0
8, 64200, Note_on_c, 8, 37, 84
8, 67112, Note_on_c, 8, 37, 0
8, 69480, Program_c, 8, 36
8, 69960, Note_on_c, 8, 38, 127
8, 70274, Note_on_c, 8, 38, 0
8, 70280, Note_on_c, 8, 33, 120
8, 70312, Note_on_c, 8, 33, 0
8, 70320, Note_on_c, 8, 35, 122
8, 70400, Note_on_c, 8, 38, 127
8, 70410, Note_on_c, 8, 35, 0
8, 70451, Note_on_c, 8, 38, 0
8, 70520, Note_on_c, 8, 38, 127
8, 70559, Note_on_c, 8, 38, 0
8, 70560, Note_on_c, 8, 35, 127
8, 70640, Note_on_c, 8, 33, 126
8, 70648, Note_on_c, 8, 35, 0
8, 70673, Note_on_c, 8, 33, 0
8, 70680, Note_on_c, 8, 41, 127
8, 70760, Pitch_bend_c, 8, 12288
8, 70800, Pitch_bend_c, 8, 8192
8, 70880, Pitch_bend_c, 8, 12288
8, 70920, Note_on_c, 8, 31, 127
8, 70920, Pitch_bend_c, 8, 8192
8, 70939, Note_on_c, 8, 41, 0
8, 71240, Note_on_c, 8, 33, 118
8, 71241, Note_on_c, 8, 31, 0
8, 71277, Note_on_c, 8, 33, 0
8, 71280, Note_on_c, 8, 35, 115
8, 71360, Note_on_c, 8, 38, 127
8, 71361, Note_on_c, 8, 35, 0
8, 71406, Note_on_c, 8, 38, 0
8, 71480, Note_on_c, 8, 30, 127
8, 71640, Note_on_c, 8, 31, 120
8, 71648, Note_on_c, 8, 30, 0
8, 71720, Note_on_c, 8, 33, 127
8, 71723, Note_on_c, 8, 31, 0
8, 71760, Pitch_bend_c, 8, 4096
8, 71840, Pitch_bend_c, 8, 8192
8, 71880, Note_on_c, 8, 38, 127
8, 71891, Note_on_c, 8, 33, 0
8, 72194, Note_on_c, 8, 38, 0
8, 72200, Note_on_c, 8, 33, 120
8, 72232, Note_on_c, 8, 33, 0
8, 72240, Note_on_c, 8, 35, 122
8, 72320, Note_on_c, 8, 38, 127
8, 72330, Note_on_c, 8, 35, 0
8, 72371, Note_on_c, 8, 38, 0
8, 72440, Note_on_c, 8, 38, 127
8, 72479, Note_on_c, 8, 38, 0
8, 72480, Note_on_c, 8, 35, 127
8, 72560, Note_on_c, 8, 33, 126
8, 72568, Note_on_c, 8, 35, 0
8, 72593, Note_on_c, 8, 33, 0
8, 72600, Note_on_c, 8, 41, 127
8, 72680, Pitch_bend_c, 8, 12288
8, 72720, Pitch_bend_c, 8, 8192
8, 72800, Pitch_bend_c, 8, 12288
8, 72840, Pitch_bend_c, 8, 8192
8, 72840, Note_on_c, 8, 31, 127
8, 72859, Note_on_c, 8, 41, 0
8, 73160, Note_on_c, 8, 33, 118
8, 73161, Note_on_c, 8, 31, 0
8, 73197, Note_on_c, 8, 33, 0
8, 73200, Note_on_c, 8, 35, 115
8, 73280, Note_on_c, 8, 38, 127
8, 73281, Note_on_c, 8, 35, 0
8, 73326, Note_on_c, 8, 38, 0
8, 73400, Note_on_c, 8, 30, 127
8, 73560, Note_on_c, 8, 31, 120
8, 73568, Note_on_c, 8, 30, 0
8, 73640, Note_on_c, 8, 33, 127
8, 73643, Note_on_c, 8, 31, 0
8, 73680, Pitch_bend_c, 8, 4096
8, 73760, Pitch_bend_c, 8, 8192
8, 73800, Note_on_c, 8, 30, 127
8, 73811, Note_on_c, 8, 33, 0
8, 74240, Note_on_c, 8, 37, 60
8, 74243, Note_on_c, 8, 30, 0
8, 74270, Note_on_c, 8, 37, 0
8, 74280, Note_on_c, 8, 42, 92
8, 74333, Note_on_c, 8, 42, 0
8, 74360, Note_on_c, 8, 42, 103
8, 74413, Note_on_c, 8, 42, 0
8, 74480, Note_on_c, 8, 42, 126
8, 74594, Note_on_c, 8, 42, 0
8, 74600, Note_on_c, 8, 37, 94
8, 74640, Note_on_c, 8, 39, 87
8, 74647, Note_on_c, 8, 37, 0
8, 74711, Note_on_c, 8, 39, 0
8, 74720, Note_on_c, 8, 37, 105
8, 74736, Note_on_c, 8, 37, 0
8, 74760, Note_on_c, 8, 30, 103
8, 75197, Note_on_c, 8, 37, 85
8, 75212, Note_on_c, 8, 30, 0
8, 75231, Note_on_c, 8, 37, 0
8, 75243, Note_on_c, 8, 42, 90
8, 75281, Note_on_c, 8, 37, 67
8, 75296, Note_on_c, 8, 42, 0
8, 75326, Note_on_c, 8, 34, 92
8, 75327, Note_on_c, 8, 37, 0
8, 75360, Note_on_c, 8, 30, 122
8, 75378, Note_on_c, 8, 34, 0
8, 75478, Note_on_c, 8, 30, 0
8, 75481, Note_on_c, 8, 34, 84
8, 75592, Note_on_c, 8, 34, 0
8, 75602, Note_on_c, 8, 37, 73
8, 75702, Note_on_c, 8, 37, 0
8, 75800, Note_on_c, 8, 41, 103
8, 75947, Note_on_c, 8, 41, 0
8, 75960, Note_on_c, 8, 40, 122
8, 76166, Note_on_c, 8, 40, 0
8, 76200, Note_on_c, 8, 39, 106
8, 76341, Note_on_c, 8, 39, 0
8, 76400, Note_on_c, 8, 38, 106
8, 76464, Note_on_c, 8, 38, 0
8, 76560, Note_on_c, 8, 37, 113
8, 77562, Note_on_c, 8, 37, 0
8, 77640, Program_c, 8, 35
8, 77774, Note_on_c, 8, 30, 100
8, 79634, Note_on_c, 8, 30, 0
8, 79634, End_track
9, 0, Start_track
9, 0, Title_t, "vibes"
9, 0, MIDI_port, 0
9, 0, Program_c, 6, 11
9, 2, Control_c, 6, 91, 63
9, 4, Control_c, 6, 10, 64
9, 6, Control_c, 6, 7, 127
9, 6240, Note_on_c, 6, 83, 101
9, 6320, Note_on_c, 6, 83, 0
9, 6320, Note_on_c, 6, 81, 101
9, 6375, Note_on_c, 6, 81, 0
9, 6480, Note_on_c, 6, 78, 101
9, 6539, Note_on_c, 6, 78, 0
9, 6600, Note_on_c, 6, 78, 101
9, 6665, Note_on_c, 6, 78, 0
9, 6720, Note_on_c, 6, 76, 97
9, 6800, Note_on_c, 6, 74, 80
9, 6806, Note_on_c, 6, 76, 0
9, 6844, Note_on_c, 6, 74, 0
9, 6920, Note_on_c, 6, 78, 101
9, 6983, Note_on_c, 6, 78, 0
9, 7160, Note_on_c, 6, 71, 52
9, 7196, Note_on_c, 6, 71, 0
9, 7200, Note_on_c, 6, 74, 101
9, 7248, Note_on_c, 6, 74, 0
9, 7320, Note_on_c, 6, 74, 101
9, 7392, Note_on_c, 6, 74, 0
9, 7400, Note_on_c, 6, 71, 61
9, 7436, Note_on_c, 6, 71, 0
9, 7440, Note_on_c, 6, 74, 101
9, 7515, Note_on_c, 6, 74, 0
9, 7520, Note_on_c, 6, 71, 80
9, 7559, Note_on_c, 6, 71, 0
9, 7640, Note_on_c, 6, 78, 101
9, 7696, Note_on_c, 6, 78, 0
9, 7760, Note_on_c, 6, 71, 35
9, 7800, Note_on_c, 6, 71, 0
9, 7800, Note_on_c, 6, 69, 80
9, 7865, Note_on_c, 6, 69, 0
9, 8120, Note_on_c, 6, 71, 65
9, 8160, Note_on_c, 6, 76, 101
9, 8165, Note_on_c, 6, 71, 0
9, 8231, Note_on_c, 6, 76, 0
9, 8240, Note_on_c, 6, 74, 77
9, 8274, Note_on_c, 6, 74, 0
9, 8360, Note_on_c, 6, 74, 101
9, 8400, Note_on_c, 6, 74, 0
9, 8560, Note_on_c, 6, 71, 65
9, 8581, Note_on_c, 6, 71, 0
9, 8600, Note_on_c, 6, 74, 73
9, 8617, Note_on_c, 6, 74, 0
9, 8640, Note_on_c, 6, 76, 101
9, 8719, Note_on_c, 6, 76, 0
9, 8720, Note_on_c, 6, 74, 73
9, 8759, Note_on_c, 6, 74, 0
9, 8840, Note_on_c, 6, 74, 94
9, 8879, Note_on_c, 6, 74, 0
9, 9080, Note_on_c, 6, 74, 77
9, 9120, Note_on_c, 6, 78, 101
9, 9122, Note_on_c, 6, 74, 0
9, 9179, Note_on_c, 6, 78, 0
9, 9200, Note_on_c, 6, 81, 90
9, 9229, Note_on_c, 6, 81, 0
9, 9240, Note_on_c, 6, 78, 80
9, 9260, Note_on_c, 6, 78, 0
9, 9320, Note_on_c, 6, 81, 101
9, 9413, Note_on_c, 6, 81, 0
9, 9440, Note_on_c, 6, 78, 77
9, 9457, Note_on_c, 6, 78, 0
9, 9480, Note_on_c, 6, 81, 94
9, 9535, Note_on_c, 6, 81, 0
9, 9560, Note_on_c, 6, 78, 57
9, 9572, Note_on_c, 6, 78, 0
9, 9600, Note_on_c, 6, 83, 101
9, 9677, Note_on_c, 6, 83, 0
9, 9680, Note_on_c, 6, 81, 68
9, 9707, Note_on_c, 6, 81, 0
9, 9720, Note_on_c, 6, 78, 97
9, 9751, Note_on_c, 6, 78, 0
9, 9800, Note_on_c, 6, 83, 101
9, 9848, Note_on_c, 6, 83, 0
9, 9920, Note_on_c, 6, 81, 101
9, 9974, Note_on_c, 6, 81, 0
9, 10040, Note_on_c, 6, 83, 101
9, 10088, Note_on_c, 6, 83, 0
9, 10160, Note_on_c, 6, 78, 101
9, 10317, Note_on_c, 6, 78, 0
9, 10320, Note_on_c, 6, 76, 97
9, 10374, Note_on_c, 6, 76, 0
9, 10440, Note_on_c, 6, 76, 101
9, 10512, Note_on_c, 6, 76, 0
9, 10520, Note_on_c, 6, 78, 75
9, 10555, Note_on_c, 6, 78, 0
9, 10560, Note_on_c, 6, 76, 97
9, 10635, Note_on_c, 6, 76, 0
9, 10640, Note_on_c, 6, 74, 80
9, 10690, Note_on_c, 6, 74, 0
9, 10760, Note_on_c, 6, 78, 101
9, 10829, Note_on_c, 6, 78, 0
9, 11000, Note_on_c, 6, 71, 69
9, 11040, Note_on_c, 6, 74, 101
9, 11041, Note_on_c, 6, 71, 0
9, 11082, Note_on_c, 6, 74, 0
9, 11120, Note_on_c, 6, 74, 101
9, 11158, Note_on_c, 6, 74, 0
9, 11240, Note_on_c, 6, 74, 101
9, 11280, Note_on_c, 6, 74, 0
9, 11440, Note_on_c, 6, 71, 77
9, 11475, Note_on_c, 6, 71, 0
9, 11480, Note_on_c, 6, 74, 77
9, 11513, Note_on_c, 6, 74, 0
9, 11520, Note_on_c, 6, 78, 101
9, 11605, Note_on_c, 6, 78, 0
9, 11640, Note_on_c, 6, 71, 79
9, 11699, Note_on_c, 6, 71, 0
9, 11720, Note_on_c, 6, 69, 97
9, 11786, Note_on_c, 6, 69, 0
9, 11880, Note_on_c, 6, 76, 101
9, 11951, Note_on_c, 6, 76, 0
9, 11960, Note_on_c, 6, 71, 38
9, 11984, Note_on_c, 6, 71, 0
9, 12000, Note_on_c, 6, 76, 97
9, 12069, Note_on_c, 6, 76, 0
9, 12080, Note_on_c, 6, 74, 72
9, 12103, Note_on_c, 6, 74, 0
9, 12120, Note_on_c, 6, 74, 77
9, 12137, Note_on_c, 6, 74, 0
9, 12200, Note_on_c, 6, 74, 101
9, 12282, Note_on_c, 6, 74, 0
9, 12320, Note_on_c, 6, 74, 62
9, 12348, Note_on_c, 6, 74, 0
9, 12360, Note_on_c, 6, 71, 84
9, 12435, Note_on_c, 6, 71, 0
9, 12440, Note_on_c, 6, 74, 56
9, 12456, Note_on_c, 6, 74, 0
9, 12480, Note_on_c, 6, 76, 101
9, 12549, Note_on_c, 6, 76, 0
9, 12600, Note_on_c, 6, 74, 84
9, 12617, Note_on_c, 6, 74, 0
9, 12680, Note_on_c, 6, 74, 101
9, 12717, Note_on_c, 6, 74, 0
9, 12800, Note_on_c, 6, 74, 68
9, 12815, Note_on_c, 6, 74, 0
9, 12840, Note_on_c, 6, 74, 84
9, 12867, Note_on_c, 6, 74, 0
9, 12920, Note_on_c, 6, 74, 73
9, 12960, Note_on_c, 6, 78, 101
9, 12965, Note_on_c, 6, 74, 0
9, 13013, Note_on_c, 6, 78, 0
9, 13040, Note_on_c, 6, 81, 101
9, 13065, Note_on_c, 6, 81, 0
9, 13080, Note_on_c, 6, 78, 101
9, 13102, Note_on_c, 6, 78, 0
9, 13160, Note_on_c, 6, 81, 101
9, 13255, Note_on_c, 6, 81, 0
9, 13280, Note_on_c, 6, 78, 73
9, 13291, Note_on_c, 6, 78, 0
9, 13320, Note_on_c, 6, 81, 101
9, 13385, Note_on_c, 6, 81, 0
9, 13400, Note_on_c, 6, 78, 57
9, 13411, Note_on_c, 6, 78, 0
9, 13440, Note_on_c, 6, 83, 101
9, 13520, Note_on_c, 6, 81, 73
9, 13528, Note_on_c, 6, 83, 0
9, 13552, Note_on_c, 6, 81, 0
9, 13560, Note_on_c, 6, 78, 101
9, 13598, Note_on_c, 6, 78, 0
9, 13640, Note_on_c, 6, 83, 101
9, 13710, Note_on_c, 6, 83, 0
9, 13760, Note_on_c, 6, 81, 94
9, 13793, Note_on_c, 6, 81, 0
9, 13800, Note_on_c, 6, 78, 101
9, 13853, Note_on_c, 6, 78, 0
9, 28690, Note_on_c, 6, 67, 84
9, 28754, Note_on_c, 6, 67, 0
9, 28807, Note_on_c, 6, 66, 85
9, 28860, Note_on_c, 6, 66, 0
9, 28921, Note_on_c, 6, 64, 92
9, 28972, Note_on_c, 6, 64, 0
9, 29035, Note_on_c, 6, 62, 80
9, 29077, Note_on_c, 6, 62, 0
9, 29121, Note_on_c, 6, 62, 78
9, 29156, Note_on_c, 6, 62, 0
9, 29160, Note_on_c, 6, 67, 82
9, 29205, Note_on_c, 6, 67, 0
9, 29241, Note_on_c, 6, 66, 77
9, 29292, Note_on_c, 6, 66, 0
9, 29357, Note_on_c, 6, 64, 100
9, 29403, Note_on_c, 6, 64, 0
9, 29597, Note_on_c, 6, 62, 64
9, 29632, Note_on_c, 6, 62, 0
9, 29646, Note_on_c, 6, 66, 87
9, 29702, Note_on_c, 6, 66, 0
9, 29724, Note_on_c, 6, 69, 100
9, 29766, Note_on_c, 6, 69, 0
9, 29831, Note_on_c, 6, 69, 103
9, 29946, Note_on_c, 6, 69, 0
9, 29959, Note_on_c, 6, 66, 62
9, 29993, Note_on_c, 6, 66, 0
9, 29998, Note_on_c, 6, 69, 87
9, 30033, Note_on_c, 6, 69, 0
9, 30085, Note_on_c, 6, 71, 118
9, 30152, Note_on_c, 6, 71, 0
9, 30158, Note_on_c, 6, 69, 87
9, 30190, Note_on_c, 6, 69, 0
9, 30200, Note_on_c, 6, 66, 84
9, 30225, Note_on_c, 6, 66, 0
9, 30234, Note_on_c, 6, 69, 110
9, 30484, Note_on_c, 6, 69, 0
9, 30488, Note_on_c, 6, 66, 94
9, 30515, Note_on_c, 6, 66, 0
9, 30566, Note_on_c, 6, 66, 92
9, 30590, Note_on_c, 6, 66, 0
9, 30606, Note_on_c, 6, 67, 118
9, 30652, Note_on_c, 6, 67, 0
9, 30724, Note_on_c, 6, 66, 113
9, 30769, Note_on_c, 6, 66, 0
9, 30841, Note_on_c, 6, 64, 110
9, 30878, Note_on_c, 6, 64, 0
9, 30920, Note_on_c, 6, 62, 100
9, 30958, Note_on_c, 6, 62, 0
9, 31035, Note_on_c, 6, 64, 127
9, 31500, Note_on_c, 6, 64, 0
9, 37289, Note_on_c, 6, 69, 71
9, 37289, Note_on_c, 6, 73, 71
9, 38075, Note_on_c, 6, 73, 0
9, 38077, Note_on_c, 6, 69, 0
9, 38248, Note_on_c, 6, 74, 75
9, 38253, Note_on_c, 6, 71, 75
9, 39036, Note_on_c, 6, 74, 0
9, 39037, Note_on_c, 6, 71, 0
9, 39196, Note_on_c, 6, 76, 127
9, 39198, Note_on_c, 6, 73, 127
9, 39574, Note_on_c, 6, 76, 0
9, 39582, Note_on_c, 6, 73, 0
9, 39690, Note_on_c, 6, 78, 127
9, 39690, Note_on_c, 6, 74, 127
9, 40132, Note_on_c, 6, 78, 0
9, 40134, Note_on_c, 6, 74, 0
9, 45009, Note_on_c, 6, 67, 118
9, 45079, Note_on_c, 6, 67, 0
9, 45132, Note_on_c, 6, 67, 118
9, 45208, Note_on_c, 6, 67, 0
9, 45250, Note_on_c, 6, 67, 110
9, 45290, Note_on_c, 6, 67, 0
9, 45326, Note_on_c, 6, 67, 103
9, 45344, Note_on_c, 6, 67, 0
9, 45364, Note_on_c, 6, 67, 94
9, 45412, Note_on_c, 6, 67, 0
9, 45440, Note_on_c, 6, 65, 127
9, 45508, Note_on_c, 6, 65, 0
9, 45555, Note_on_c, 6, 63, 127
9, 45833, Note_on_c, 6, 63, 0
9, 45918, Note_on_c, 6, 63, 97
9, 45961, Note_on_c, 6, 67, 92
9, 45971, Note_on_c, 6, 63, 0
9, 46011, Note_on_c, 6, 67, 0
9, 46030, Note_on_c, 6, 70, 110
9, 46064, Note_on_c, 6, 70, 0
9, 46086, Note_on_c, 6, 67, 90
9, 46122, Note_on_c, 6, 67, 0
9, 46160, Note_on_c, 6, 70, 122
9, 46210, Note_on_c, 6, 70, 0
9, 46273, Note_on_c, 6, 70, 113
9, 46304, Note_on_c, 6, 70, 0
9, 46324, Note_on_c, 6, 67, 106
9, 46376, Note_on_c, 6, 67, 0
9, 46402, Note_on_c, 6, 70, 106
9, 46425, Note_on_c, 6, 70, 0
9, 46443, Note_on_c, 6, 72, 127
9, 46479, Note_on_c, 6, 72, 0
9, 46520, Note_on_c, 6, 72, 113
9, 46540, Note_on_c, 6, 72, 0
9, 46563, Note_on_c, 6, 74, 127
9, 46610, Note_on_c, 6, 74, 0
9, 46647, Note_on_c, 6, 72, 127
9, 46692, Note_on_c, 6, 72, 0
9, 46754, Note_on_c, 6, 70, 127
9, 46889, Note_on_c, 6, 70, 0
9, 55557, Note_on_c, 6, 61, 127
9, 56336, Note_on_c, 6, 61, 0
9, 62287, Note_on_c, 6, 68, 127
9, 62821, Note_on_c, 6, 68, 0
9, 69968, Note_on_c, 6, 69, 127
9, 69970, Note_on_c, 6, 66, 106
9, 70820, Note_on_c, 6, 66, 0
9, 70821, Note_on_c, 6, 69, 0
9, 70920, Note_on_c, 6, 66, 92
9, 70920, Note_on_c, 6, 71, 113
9, 71706, Note_on_c, 6, 66, 0
9, 71709, Note_on_c, 6, 71, 0
9, 71898, Note_on_c, 6, 69, 100
9, 71901, Note_on_c, 6, 66, 82
9, 72729, Note_on_c, 6, 69, 0
9, 72735, Note_on_c, 6, 66, 0
9, 72846, Note_on_c, 6, 66, 69
9, 72848, Note_on_c, 6, 71, 94
9, 73591, Note_on_c, 6, 71, 0
9, 73592, Note_on_c, 6, 66, 0
9, 73799, Note_on_c, 6, 73, 103
9, 73801, Note_on_c, 6, 68, 84
9, 74571, Note_on_c, 6, 68, 0
9, 74573, Note_on_c, 6, 73, 0
9, 74766, Note_on_c, 6, 73, 94
9, 74766, Note_on_c, 6, 77, 103
9, 75584, Note_on_c, 6, 73, 0
9, 75584, Note_on_c, 6, 77, 0
9, 77790, Note_on_c, 6, 73, 90
9, 78939, Note_on_c, 6, 73, 0
9, 78939, End_track
10, 0, Start_track
10, 0, Title_t, "guitar"
10, 0, MIDI_port, 0
10, 0, Program_c, 4, 27
10, 2, Control_c, 4, 10, 87
10, 4, Control_c, 4, 7, 127
10, 8, Control_c, 4, 91, 39
10, 6360, Note_on_c, 4, 62, 56
10, 6372, Note_on_c, 4, 62, 0
10, 6440, Note_on_c, 4, 62, 65
10, 6455, Note_on_c, 4, 62, 0
10, 6600, Note_on_c, 4, 62, 62
10, 6613, Note_on_c, 4, 62, 0
10, 6680, Note_on_c, 4, 62, 74
10, 6697, Note_on_c, 4, 62, 0
10, 6840, Note_on_c, 4, 62, 56
10, 6859, Note_on_c, 4, 62, 0
10, 6920, Note_on_c, 4, 62, 61
10, 6937, Note_on_c, 4, 62, 0
10, 7040, Note_on_c, 4, 59, 55
10, 7078, Note_on_c, 4, 59, 0
10, 7080, Note_on_c, 4, 62, 48
10, 7105, Note_on_c, 4, 62, 0
10, 7160, Note_on_c, 4, 62, 74
10, 7173, Note_on_c, 4, 62, 0
10, 7320, Note_on_c, 4, 62, 67
10, 7336, Note_on_c, 4, 62, 0
10, 7520, Note_on_c, 4, 62, 74
10, 7537, Note_on_c, 4, 62, 0
10, 7760, Note_on_c, 4, 62, 82
10, 7774, Note_on_c, 4, 62, 0
10, 7880, Note_on_c, 4, 62, 84
10, 7895, Note_on_c, 4, 62, 0
10, 8000, Note_on_c, 4, 59, 46
10, 8034, Note_on_c, 4, 59, 0
10, 8040, Note_on_c, 4, 62, 53
10, 8069, Note_on_c, 4, 62, 0
10, 8120, Note_on_c, 4, 62, 65
10, 8141, Note_on_c, 4, 62, 0
10, 8280, Note_on_c, 4, 62, 52
10, 8302, Note_on_c, 4, 62, 0
10, 8360, Note_on_c, 4, 62, 50
10, 8374, Note_on_c, 4, 62, 0
10, 8520, Note_on_c, 4, 62, 62
10, 8536, Note_on_c, 4, 62, 0
10, 8600, Note_on_c, 4, 62, 64
10, 8620, Note_on_c, 4, 62, 0
10, 8760, Note_on_c, 4, 62, 67
10, 8774, Note_on_c, 4, 62, 0
10, 8840, Note_on_c, 4, 62, 67
10, 8856, Note_on_c, 4, 62, 0
10, 8960, Note_on_c, 4, 59, 43
10, 8997, Note_on_c, 4, 59, 0
10, 9000, Note_on_c, 4, 62, 56
10, 9027, Note_on_c, 4, 62, 0
10, 9080, Note_on_c, 4, 62, 72
10, 9099, Note_on_c, 4, 62, 0
10, 9240, Note_on_c, 4, 62, 68
10, 9263, Note_on_c, 4, 62, 0
10, 9320, Note_on_c, 4, 62, 61
10, 9334, Note_on_c, 4, 62, 0
10, 9480, Note_on_c, 4, 62, 74
10, 9500, Note_on_c, 4, 62, 0
10, 9720, Note_on_c, 4, 57, 59
10, 9720, Note_on_c, 4, 52, 50
10, 9720, Note_on_c, 4, 62, 56
10, 9799, Note_on_c, 4, 57, 0
10, 9799, Note_on_c, 4, 52, 0
10, 9799, Note_on_c, 4, 62, 0
10, 9800, Note_on_c, 4, 57, 122
10, 9800, Note_on_c, 4, 52, 100
10, 9800, Note_on_c, 4, 62, 106
10, 9843, Note_on_c, 4, 57, 0
10, 9843, Note_on_c, 4, 52, 0
10, 9845, Note_on_c, 4, 62, 0
10, 10200, Note_on_c, 4, 62, 56
10, 10212, Note_on_c, 4, 62, 0
10, 10280, Note_on_c, 4, 62, 65
10, 10295, Note_on_c, 4, 62, 0
10, 10440, Note_on_c, 4, 62, 62
10, 10453, Note_on_c, 4, 62, 0
10, 10520, Note_on_c, 4, 62, 74
10, 10537, Note_on_c, 4, 62, 0
10, 10680, Note_on_c, 4, 62, 56
10, 10699, Note_on_c, 4, 62, 0
10, 10760, Note_on_c, 4, 62, 61
10, 10777, Note_on_c, 4, 62, 0
10, 10880, Note_on_c, 4, 59, 55
10, 10918, Note_on_c, 4, 59, 0
10, 10920, Note_on_c, 4, 62, 48
10, 10945, Note_on_c, 4, 62, 0
10, 11000, Note_on_c, 4, 62, 74
10, 11013, Note_on_c, 4, 62, 0
10, 11160, Note_on_c, 4, 62, 67
10, 11176, Note_on_c, 4, 62, 0
10, 11360, Note_on_c, 4, 62, 74
10, 11377, Note_on_c, 4, 62, 0
10, 11600, Note_on_c, 4, 62, 82
10, 11614, Note_on_c, 4, 62, 0
10, 11720, Note_on_c, 4, 62, 84
10, 11735, Note_on_c, 4, 62, 0
10, 11840, Note_on_c, 4, 59, 46
10, 11874, Note_on_c, 4, 59, 0
10, 11880, Note_on_c, 4, 62, 53
10, 11909, Note_on_c, 4, 62, 0
10, 11960, Note_on_c, 4, 62, 65
10, 11981, Note_on_c, 4, 62, 0
10, 12120, Note_on_c, 4, 62, 52
10, 12142, Note_on_c, 4, 62, 0
10, 12200, Note_on_c, 4, 62, 50
10, 12214, Note_on_c, 4, 62, 0
10, 12360, Note_on_c, 4, 62, 62
10, 12376, Note_on_c, 4, 62, 0
10, 12440, Note_on_c, 4, 62, 64
10, 12460, Note_on_c, 4, 62, 0
10, 12600, Note_on_c, 4, 62, 67
10, 12614, Note_on_c, 4, 62, 0
10, 12680, Note_on_c, 4, 62, 67
10, 12696, Note_on_c, 4, 62, 0
10, 12800, Note_on_c, 4, 59, 43
10, 12837, Note_on_c, 4, 59, 0
10, 12840, Note_on_c, 4, 62, 56
10, 12867, Note_on_c, 4, 62, 0
10, 12920, Note_on_c, 4, 62, 72
10, 12939, Note_on_c, 4, 62, 0
10, 13080, Note_on_c, 4, 62, 68
10, 13103, Note_on_c, 4, 62, 0
10, 13160, Note_on_c, 4, 62, 61
10, 13174, Note_on_c, 4, 62, 0
10, 13320, Note_on_c, 4, 62, 74
10, 13340, Note_on_c, 4, 62, 0
10, 13560, Note_on_c, 4, 52, 50
10, 13560, Note_on_c, 4, 62, 56
10, 13560, Note_on_c, 4, 57, 59
10, 13639, Note_on_c, 4, 52, 0
10, 13639, Note_on_c, 4, 62, 0
10, 13639, Note_on_c, 4, 57, 0
10, 13640, Note_on_c, 4, 52, 100
10, 13640, Note_on_c, 4, 62, 106
10, 13640, Note_on_c, 4, 57, 122
10, 13683, Note_on_c, 4, 52, 0
10, 13683, Note_on_c, 4, 57, 0
10, 13685, Note_on_c, 4, 62, 0
10, 14000, Note_on_c, 4, 67, 50
10, 14000, Note_on_c, 4, 59, 52
10, 14000, Note_on_c, 4, 55, 45
10, 14000, Note_on_c, 4, 62, 57
10, 14020, Note_on_c, 4, 59, 0
10, 14020, Note_on_c, 4, 55, 0
10, 14024, Note_on_c, 4, 62, 0
10, 14025, Note_on_c, 4, 67, 0
10, 14120, Note_on_c, 4, 67, 62
10, 14122, Note_on_c, 4, 62, 66
10, 14124, Note_on_c, 4, 59, 61
10, 14126, Note_on_c, 4, 55, 58
10, 14288, Note_on_c, 4, 67, 0
10, 14290, Note_on_c, 4, 62, 0
10, 14292, Note_on_c, 4, 59, 0
10, 14295, Note_on_c, 4, 55, 0
10, 14360, Note_on_c, 4, 59, 50
10, 14360, Note_on_c, 4, 55, 47
10, 14360, Note_on_c, 4, 62, 47
10, 14360, Note_on_c, 4, 67, 42
10, 14376, Note_on_c, 4, 59, 0
10, 14377, Note_on_c, 4, 62, 0
10, 14381, Note_on_c, 4, 67, 0
10, 14383, Note_on_c, 4, 55, 0
10, 14400, Note_on_c, 4, 67, 50
10, 14400, Note_on_c, 4, 55, 47
10, 14400, Note_on_c, 4, 59, 62
10, 14400, Note_on_c, 4, 62, 61
10, 14424, Note_on_c, 4, 59, 0
10, 14428, Note_on_c, 4, 62, 0
10, 14431, Note_on_c, 4, 55, 0
10, 14432, Note_on_c, 4, 67, 0
10, 14479, Note_on_c, 4, 55, 57
10, 14480, Note_on_c, 4, 67, 55
10, 14480, Note_on_c, 4, 59, 58
10, 14480, Note_on_c, 4, 62, 58
10, 14493, Note_on_c, 4, 59, 0
10, 14494, Note_on_c, 4, 62, 0
10, 14495, Note_on_c, 4, 55, 0
10, 14500, Note_on_c, 4, 67, 0
10, 14599, Note_on_c, 4, 55, 50
10, 14600, Note_on_c, 4, 59, 55
10, 14600, Note_on_c, 4, 67, 43
10, 14600, Note_on_c, 4, 62, 56
10, 14613, Note_on_c, 4, 55, 0
10, 14613, Note_on_c, 4, 59, 0
10, 14615, Note_on_c, 4, 67, 0
10, 14615, Note_on_c, 4, 62, 0
10, 14840, Note_on_c, 4, 62, 57
10, 14840, Note_on_c, 4, 59, 61
10, 14841, Note_on_c, 4, 55, 46
10, 14841, Note_on_c, 4, 67, 50
10, 14850, Note_on_c, 4, 55, 0
10, 14856, Note_on_c, 4, 62, 0
10, 14856, Note_on_c, 4, 59, 0
10, 14856, Note_on_c, 4, 67, 0
10, 14959, Note_on_c, 4, 54, 31
10, 14959, Note_on_c, 4, 64, 28
10, 14970, Note_on_c, 4, 54, 0
10, 14977, Note_on_c, 4, 64, 0
10, 15000, Note_on_c, 4, 64, 42
10, 15000, Note_on_c, 4, 54, 40
10, 15000, Note_on_c, 4, 61, 46
10, 15001, Note_on_c, 4, 57, 50
10, 15020, Note_on_c, 4, 57, 0
10, 15022, Note_on_c, 4, 61, 0
10, 15025, Note_on_c, 4, 54, 0
10, 15029, Note_on_c, 4, 64, 0
10, 15079, Note_on_c, 4, 64, 56
10, 15081, Note_on_c, 4, 61, 61
10, 15083, Note_on_c, 4, 57, 60
10, 15085, Note_on_c, 4, 54, 51
10, 15253, Note_on_c, 4, 54, 0
10, 15254, Note_on_c, 4, 61, 0
10, 15256, Note_on_c, 4, 57, 0
10, 15257, Note_on_c, 4, 64, 0
10, 15320, Note_on_c, 4, 54, 71
10, 15322, Note_on_c, 4, 57, 65
10, 15324, Note_on_c, 4, 59, 62
10, 15326, Note_on_c, 4, 62, 66
10, 15449, Note_on_c, 4, 54, 0
10, 15453, Note_on_c, 4, 57, 0
10, 15453, Note_on_c, 4, 59, 0
10, 15461, Note_on_c, 4, 62, 0
10, 15480, Note_on_c, 4, 57, 56
10, 15480, Note_on_c, 4, 62, 57
10, 15481, Note_on_c, 4, 59, 63
10, 15481, Note_on_c, 4, 54, 62
10, 15536, Note_on_c, 4, 59, 0
10, 15536, Note_on_c, 4, 54, 0
10, 15537, Note_on_c, 4, 57, 0
10, 15540, Note_on_c, 4, 62, 0
10, 15559, Note_on_c, 4, 62, 56
10, 15559, Note_on_c, 4, 59, 65
10, 15560, Note_on_c, 4, 54, 66
10, 15560, Note_on_c, 4, 57, 58
10, 15588, Note_on_c, 4, 54, 0
10, 15590, Note_on_c, 4, 57, 0
10, 15592, Note_on_c, 4, 59, 0
10, 15594, Note_on_c, 4, 62, 0
10, 15679, Note_on_c, 4, 62, 53
10, 15681, Note_on_c, 4, 59, 57
10, 15683, Note_on_c, 4, 57, 50
10, 15685, Note_on_c, 4, 54, 57
10, 15810, Note_on_c, 4, 59, 0
10, 15814, Note_on_c, 4, 62, 0
10, 15816, Note_on_c, 4, 57, 0
10, 15817, Note_on_c, 4, 54, 0
10, 15919, Note_on_c, 4, 62, 50
10, 15920, Note_on_c, 4, 55, 52
10, 15920, Note_on_c, 4, 59, 57
10, 15920, Note_on_c, 4, 64, 45
10, 15941, Note_on_c, 4, 55, 0
10, 15941, Note_on_c, 4, 64, 0
10, 15944, Note_on_c, 4, 59, 0
10, 15945, Note_on_c, 4, 62, 0
10, 16040, Note_on_c, 4, 64, 58
10, 16042, Note_on_c, 4, 62, 62
10, 16044, Note_on_c, 4, 59, 66
10, 16046, Note_on_c, 4, 55, 61
10, 16209, Note_on_c, 4, 64, 0
10, 16209, Note_on_c, 4, 62, 0
10, 16212, Note_on_c, 4, 59, 0
10, 16214, Note_on_c, 4, 55, 0
10, 16281, Note_on_c, 4, 57, 47
10, 16282, Note_on_c, 4, 62, 50
10, 16282, Note_on_c, 4, 64, 47
10, 16296, Note_on_c, 4, 62, 0
10, 16296, Note_on_c, 4, 64, 0
10, 16303, Note_on_c, 4, 57, 0
10, 16320, Note_on_c, 4, 62, 62
10, 16320, Note_on_c, 4, 57, 47
10, 16320, Note_on_c, 4, 64, 61
10, 16345, Note_on_c, 4, 62, 0
10, 16348, Note_on_c, 4, 64, 0
10, 16351, Note_on_c, 4, 57, 0
10, 16400, Note_on_c, 4, 57, 57
10, 16400, Note_on_c, 4, 62, 58
10, 16401, Note_on_c, 4, 64, 58
10, 16411, Note_on_c, 4, 62, 0
10, 16413, Note_on_c, 4, 64, 0
10, 16416, Note_on_c, 4, 57, 0
10, 16520, Note_on_c, 4, 57, 50
10, 16520, Note_on_c, 4, 62, 55
10, 16521, Note_on_c, 4, 64, 56
10, 16533, Note_on_c, 4, 57, 0
10, 16533, Note_on_c, 4, 62, 0
10, 16536, Note_on_c, 4, 64, 0
10, 16760, Note_on_c, 4, 57, 46
10, 16760, Note_on_c, 4, 62, 61
10, 16760, Note_on_c, 4, 64, 57
10, 16770, Note_on_c, 4, 57, 0
10, 16775, Note_on_c, 4, 62, 0
10, 16777, Note_on_c, 4, 64, 0
10, 16880, Note_on_c, 4, 64, 53
10, 16882, Note_on_c, 4, 61, 57
10, 16884, Note_on_c, 4, 56, 59
10, 17007, Note_on_c, 4, 64, 0
10, 17011, Note_on_c, 4, 56, 0
10, 17013, Note_on_c, 4, 61, 0
10, 17040, Note_on_c, 4, 55, 54
10, 17042, Note_on_c, 4, 60, 62
10, 17044, Note_on_c, 4, 64, 46
10, 17217, Note_on_c, 4, 55, 0
10, 17232, Note_on_c, 4, 60, 0
10, 17238, Note_on_c, 4, 64, 0
10, 17280, Note_on_c, 4, 62, 60
10, 17282, Note_on_c, 4, 59, 63
10, 17284, Note_on_c, 4, 54, 74
10, 17382, Note_on_c, 4, 59, 0
10, 17384, Note_on_c, 4, 62, 0
10, 17384, Note_on_c, 4, 54, 0
10, 17480, Note_on_c, 4, 53, 63
10, 17482, Note_on_c, 4, 58, 92
10, 17484, Note_on_c, 4, 62, 60
10, 17553, Note_on_c, 4, 62, 0
10, 17557, Note_on_c, 4, 53, 0
10, 17557, Note_on_c, 4, 58, 0
10, 17640, Note_on_c, 4, 62, 67
10, 17642, Note_on_c, 4, 57, 80
10, 17644, Note_on_c, 4, 52, 69
10, 18222, Note_on_c, 4, 52, 0
10, 18225, Note_on_c, 4, 57, 0
10, 18252, Note_on_c, 4, 62, 0
10, 18840, Note_on_c, 4, 62, 56
10, 18852, Note_on_c, 4, 62, 0
10, 18920, Note_on_c, 4, 62, 65
10, 18935, Note_on_c, 4, 62, 0
10, 19080, Note_on_c, 4, 62, 62
10, 19093, Note_on_c, 4, 62, 0
10, 19160, Note_on_c, 4, 62, 74
10, 19177, Note_on_c, 4, 62, 0
10, 19320, Note_on_c, 4, 62, 56
10, 19339, Note_on_c, 4, 62, 0
10, 19400, Note_on_c, 4, 62, 61
10, 19417, Note_on_c, 4, 62, 0
10, 19520, Note_on_c, 4, 59, 55
10, 19558, Note_on_c, 4, 59, 0
10, 19560, Note_on_c, 4, 62, 48
10, 19585, Note_on_c, 4, 62, 0
10, 19640, Note_on_c, 4, 62, 74
10, 19653, Note_on_c, 4, 62, 0
10, 19800, Note_on_c, 4, 62, 67
10, 19816, Note_on_c, 4, 62, 0
10, 20000, Note_on_c, 4, 62, 74
10, 20017, Note_on_c, 4, 62, 0
10, 21120, Note_on_c, 4, 62, 56
10, 21132, Note_on_c, 4, 62, 0
10, 21200, Note_on_c, 4, 62, 65
10, 21215, Note_on_c, 4, 62, 0
10, 21360, Note_on_c, 4, 62, 62
10, 21373, Note_on_c, 4, 62, 0
10, 21440, Note_on_c, 4, 62, 74
10, 21457, Note_on_c, 4, 62, 0
10, 21600, Note_on_c, 4, 62, 56
10, 21619, Note_on_c, 4, 62, 0
10, 21680, Note_on_c, 4, 62, 61
10, 21697, Note_on_c, 4, 62, 0
10, 21800, Note_on_c, 4, 59, 55
10, 21838, Note_on_c, 4, 59, 0
10, 21840, Note_on_c, 4, 62, 48
10, 21865, Note_on_c, 4, 62, 0
10, 21920, Note_on_c, 4, 62, 74
10, 21933, Note_on_c, 4, 62, 0
10, 22080, Note_on_c, 4, 62, 67
10, 22096, Note_on_c, 4, 62, 0
10, 22280, Note_on_c, 4, 62, 74
10, 22297, Note_on_c, 4, 62, 0
10, 22520, Note_on_c, 4, 62, 82
10, 22534, Note_on_c, 4, 62, 0
10, 22640, Note_on_c, 4, 62, 84
10, 22655, Note_on_c, 4, 62, 0
10, 22760, Note_on_c, 4, 59, 46
10, 22794, Note_on_c, 4, 59, 0
10, 22800, Note_on_c, 4, 62, 53
10, 22829, Note_on_c, 4, 62, 0
10, 22880, Note_on_c, 4, 62, 65
10, 22901, Note_on_c, 4, 62, 0
10, 23040, Note_on_c, 4, 62, 52
10, 23062, Note_on_c, 4, 62, 0
10, 23120, Note_on_c, 4, 62, 50
10, 23134, Note_on_c, 4, 62, 0
10, 23280, Note_on_c, 4, 62, 62
10, 23296, Note_on_c, 4, 62, 0
10, 23360, Note_on_c, 4, 62, 64
10, 23380, Note_on_c, 4, 62, 0
10, 23520, Note_on_c, 4, 62, 67
10, 23534, Note_on_c, 4, 62, 0
10, 23600, Note_on_c, 4, 62, 67
10, 23616, Note_on_c, 4, 62, 0
10, 23720, Note_on_c, 4, 59, 43
10, 23757, Note_on_c, 4, 59, 0
10, 23760, Note_on_c, 4, 62, 56
10, 23787, Note_on_c, 4, 62, 0
10, 23840, Note_on_c, 4, 62, 72
10, 23859, Note_on_c, 4, 62, 0
10, 24000, Note_on_c, 4, 62, 68
10, 24023, Note_on_c, 4, 62, 0
10, 24080, Note_on_c, 4, 62, 61
10, 24094, Note_on_c, 4, 62, 0
10, 24240, Note_on_c, 4, 62, 74
10, 24260, Note_on_c, 4, 62, 0
10, 24480, Note_on_c, 4, 62, 56
10, 24480, Note_on_c, 4, 52, 50
10, 24480, Note_on_c, 4, 57, 59
10, 24559, Note_on_c, 4, 62, 0
10, 24559, Note_on_c, 4, 52, 0
10, 24559, Note_on_c, 4, 57, 0
10, 24560, Note_on_c, 4, 52, 100
10, 24560, Note_on_c, 4, 62, 106
10, 24560, Note_on_c, 4, 57, 122
10, 24603, Note_on_c, 4, 52, 0
10, 24603, Note_on_c, 4, 57, 0
10, 24605, Note_on_c, 4, 62, 0
10, 24960, Note_on_c, 4, 62, 56
10, 24972, Note_on_c, 4, 62, 0
10, 25040, Note_on_c, 4, 62, 65
10, 25055, Note_on_c, 4, 62, 0
10, 25200, Note_on_c, 4, 62, 62
10, 25213, Note_on_c, 4, 62, 0
10, 25280, Note_on_c, 4, 62, 74
10, 25297, Note_on_c, 4, 62, 0
10, 25440, Note_on_c, 4, 62, 56
10, 25459, Note_on_c, 4, 62, 0
10, 25520, Note_on_c, 4, 62, 61
10, 25537, Note_on_c, 4, 62, 0
10, 25640, Note_on_c, 4, 59, 55
10, 25678, Note_on_c, 4, 59, 0
10, 25680, Note_on_c, 4, 62, 48
10, 25705, Note_on_c, 4, 62, 0
10, 25760, Note_on_c, 4, 62, 74
10, 25773, Note_on_c, 4, 62, 0
10, 25920, Note_on_c, 4, 62, 67
10, 25936, Note_on_c, 4, 62, 0
10, 26120, Note_on_c, 4, 62, 74
10, 26137, Note_on_c, 4, 62, 0
10, 26360, Note_on_c, 4, 62, 82
10, 26374, Note_on_c, 4, 62, 0
10, 26480, Note_on_c, 4, 62, 84
10, 26495, Note_on_c, 4, 62, 0
10, 26600, Note_on_c, 4, 59, 46
10, 26634, Note_on_c, 4, 59, 0
10, 26640, Note_on_c, 4, 62, 53
10, 26669, Note_on_c, 4, 62, 0
10, 26720, Note_on_c, 4, 62, 65
10, 26741, Note_on_c, 4, 62, 0
10, 26880, Note_on_c, 4, 62, 52
10, 26902, Note_on_c, 4, 62, 0
10, 26960, Note_on_c, 4, 62, 50
10, 26974, Note_on_c, 4, 62, 0
10, 27120, Note_on_c, 4, 62, 62
10, 27136, Note_on_c, 4, 62, 0
10, 27200, Note_on_c, 4, 62, 64
10, 27220, Note_on_c, 4, 62, 0
10, 27360, Note_on_c, 4, 62, 67
10, 27374, Note_on_c, 4, 62, 0
10, 27440, Note_on_c, 4, 62, 67
10, 27456, Note_on_c, 4, 62, 0
10, 27560, Note_on_c, 4, 59, 43
10, 27597, Note_on_c, 4, 59, 0
10, 27600, Note_on_c, 4, 62, 56
10, 27627, Note_on_c, 4, 62, 0
10, 27680, Note_on_c, 4, 62, 72
10, 27699, Note_on_c, 4, 62, 0
10, 27840, Note_on_c, 4, 62, 68
10, 27863, Note_on_c, 4, 62, 0
10, 27920, Note_on_c, 4, 62, 61
10, 27934, Note_on_c, 4, 62, 0
10, 28080, Note_on_c, 4, 62, 74
10, 28100, Note_on_c, 4, 62, 0
10, 28320, Note_on_c, 4, 62, 56
10, 28320, Note_on_c, 4, 57, 59
10, 28320, Note_on_c, 4, 52, 50
10, 28399, Note_on_c, 4, 62, 0
10, 28399, Note_on_c, 4, 57, 0
10, 28399, Note_on_c, 4, 52, 0
10, 28400, Note_on_c, 4, 52, 100
10, 28400, Note_on_c, 4, 57, 122
10, 28400, Note_on_c, 4, 62, 106
10, 28443, Note_on_c, 4, 52, 0
10, 28443, Note_on_c, 4, 57, 0
10, 28445, Note_on_c, 4, 62, 0
10, 28760, Note_on_c, 4, 59, 52
10, 28760, Note_on_c, 4, 55, 45
10, 28760, Note_on_c, 4, 67, 50
10, 28760, Note_on_c, 4, 62, 57
10, 28780, Note_on_c, 4, 59, 0
10, 28780, Note_on_c, 4, 55, 0
10, 28784, Note_on_c, 4, 62, 0
10, 28785, Note_on_c, 4, 67, 0
10, 28880, Note_on_c, 4, 67, 62
10, 28882, Note_on_c, 4, 62, 66
10, 28884, Note_on_c, 4, 59, 61
10, 28886, Note_on_c, 4, 55, 58
10, 29048, Note_on_c, 4, 67, 0
10, 29050, Note_on_c, 4, 62, 0
10, 29052, Note_on_c, 4, 59, 0
10, 29055, Note_on_c, 4, 55, 0
10, 29120, Note_on_c, 4, 62, 47
10, 29120, Note_on_c, 4, 67, 42
10, 29120, Note_on_c, 4, 59, 50
10, 29120, Note_on_c, 4, 55, 47
10, 29136, Note_on_c, 4, 59, 0
10, 29137, Note_on_c, 4, 62, 0
10, 29141, Note_on_c, 4, 67, 0
10, 29143, Note_on_c, 4, 55, 0
10, 29160, Note_on_c, 4, 59, 62
10, 29160, Note_on_c, 4, 62, 61
10, 29160, Note_on_c, 4, 67, 50
10, 29160, Note_on_c, 4, 55, 47
10, 29184, Note_on_c, 4, 59, 0
10, 29188, Note_on_c, 4, 62, 0
10, 29191, Note_on_c, 4, 55, 0
10, 29192, Note_on_c, 4, 67, 0
10, 29239, Note_on_c, 4, 55, 57
10, 29240, Note_on_c, 4, 59, 58
10, 29240, Note_on_c, 4, 62, 58
10, 29240, Note_on_c, 4, 67, 55
10, 29253, Note_on_c, 4, 59, 0
10, 29254, Note_on_c, 4, 62, 0
10, 29255, Note_on_c, 4, 55, 0
10, 29260, Note_on_c, 4, 67, 0
10, 29359, Note_on_c, 4, 55, 50
10, 29360, Note_on_c, 4, 67, 43
10, 29360, Note_on_c, 4, 59, 55
10, 29360, Note_on_c, 4, 62, 56
10, 29373, Note_on_c, 4, 55, 0
10, 29373, Note_on_c, 4, 59, 0
10, 29375, Note_on_c, 4, 67, 0
10, 29375, Note_on_c, 4, 62, 0
10, 29600, Note_on_c, 4, 59, 61
10, 29600, Note_on_c, 4, 62, 57
10, 29601, Note_on_c, 4, 55, 46
10, 29601, Note_on_c, 4, 67, 50
10, 29610, Note_on_c, 4, 55, 0
10, 29616, Note_on_c, 4, 59, 0
10, 29616, Note_on_c, 4, 62, 0
10, 29616, Note_on_c, 4, 67, 0
10, 29719, Note_on_c, 4, 54, 31
10, 29719, Note_on_c, 4, 64, 28
10, 29730, Note_on_c, 4, 54, 0
10, 29737, Note_on_c, 4, 64, 0
10, 29760, Note_on_c, 4, 64, 42
10, 29760, Note_on_c, 4, 61, 46
10, 29760, Note_on_c, 4, 54, 40
10, 29761, Note_on_c, 4, 57, 50
10, 29780, Note_on_c, 4, 57, 0
10, 29782, Note_on_c, 4, 61, 0
10, 29785, Note_on_c, 4, 54, 0
10, 29789, Note_on_c, 4, 64, 0
10, 29839, Note_on_c, 4, 64, 56
10, 29841, Note_on_c, 4, 61, 61
10, 29843, Note_on_c, 4, 57, 60
10, 29845, Note_on_c, 4, 54, 51
10, 30013, Note_on_c, 4, 54, 0
10, 30014, Note_on_c, 4, 61, 0
10, 30016, Note_on_c, 4, 57, 0
10, 30017, Note_on_c, 4, 64, 0
10, 30080, Note_on_c, 4, 54, 71
10, 30082, Note_on_c, 4, 57, 65
10, 30084, Note_on_c, 4, 59, 62
10, 30086, Note_on_c, 4, 62, 66
10, 30209, Note_on_c, 4, 54, 0
10, 30213, Note_on_c, 4, 57, 0
10, 30213, Note_on_c, 4, 59, 0
10, 30221, Note_on_c, 4, 62, 0
10, 30240, Note_on_c, 4, 57, 56
10, 30240, Note_on_c, 4, 62, 57
10, 30241, Note_on_c, 4, 59, 63
10, 30241, Note_on_c, 4, 54, 62
10, 30296, Note_on_c, 4, 59, 0
10, 30296, Note_on_c, 4, 54, 0
10, 30297, Note_on_c, 4, 57, 0
10, 30300, Note_on_c, 4, 62, 0
10, 30319, Note_on_c, 4, 62, 56
10, 30319, Note_on_c, 4, 59, 65
10, 30320, Note_on_c, 4, 54, 66
10, 30320, Note_on_c, 4, 57, 58
10, 30348, Note_on_c, 4, 54, 0
10, 30350, Note_on_c, 4, 57, 0
10, 30352, Note_on_c, 4, 59, 0
10, 30354, Note_on_c, 4, 62, 0
10, 30439, Note_on_c, 4, 62, 53
10, 30441, Note_on_c, 4, 59, 57
10, 30443, Note_on_c, 4, 57, 50
10, 30445, Note_on_c, 4, 54, 57
10, 30570, Note_on_c, 4, 59, 0
10, 30574, Note_on_c, 4, 62, 0
10, 30576, Note_on_c, 4, 57, 0
10, 30577, Note_on_c, 4, 54, 0
10, 30679, Note_on_c, 4, 62, 50
10, 30680, Note_on_c, 4, 55, 52
10, 30680, Note_on_c, 4, 64, 45
10, 30680, Note_on_c, 4, 59, 57
10, 30701, Note_on_c, 4, 55, 0
10, 30701, Note_on_c, 4, 64, 0
10, 30704, Note_on_c, 4, 59, 0
10, 30705, Note_on_c, 4, 62, 0
10, 30800, Note_on_c, 4, 64, 58
10, 30802, Note_on_c, 4, 62, 62
10, 30804, Note_on_c, 4, 59, 66
10, 30806, Note_on_c, 4, 55, 61
10, 30969, Note_on_c, 4, 64, 0
10, 30969, Note_on_c, 4, 62, 0
10, 30972, Note_on_c, 4, 59, 0
10, 30974, Note_on_c, 4, 55, 0
10, 31041, Note_on_c, 4, 57, 47
10, 31042, Note_on_c, 4, 64, 47
10, 31042, Note_on_c, 4, 62, 50
10, 31056, Note_on_c, 4, 64, 0
10, 31056, Note_on_c, 4, 62, 0
10, 31063, Note_on_c, 4, 57, 0
10, 31080, Note_on_c, 4, 64, 61
10, 31080, Note_on_c, 4, 57, 47
10, 31080, Note_on_c, 4, 62, 62
10, 31105, Note_on_c, 4, 62, 0
10, 31108, Note_on_c, 4, 64, 0
10, 31111, Note_on_c, 4, 57, 0
10, 31160, Note_on_c, 4, 62, 58
10, 31160, Note_on_c, 4, 57, 57
10, 31161, Note_on_c, 4, 64, 58
10, 31171, Note_on_c, 4, 62, 0
10, 31173, Note_on_c, 4, 64, 0
10, 31176, Note_on_c, 4, 57, 0
10, 31280, Note_on_c, 4, 62, 55
10, 31280, Note_on_c, 4, 57, 50
10, 31281, Note_on_c, 4, 64, 56
10, 31293, Note_on_c, 4, 62, 0
10, 31293, Note_on_c, 4, 57, 0
10, 31296, Note_on_c, 4, 64, 0
10, 31520, Note_on_c, 4, 64, 57
10, 31520, Note_on_c, 4, 57, 46
10, 31520, Note_on_c, 4, 62, 61
10, 31530, Note_on_c, 4, 57, 0
10, 31535, Note_on_c, 4, 62, 0
10, 31537, Note_on_c, 4, 64, 0
10, 31640, Note_on_c, 4, 64, 53
10, 31642, Note_on_c, 4, 61, 57
10, 31644, Note_on_c, 4, 56, 59
10, 31767, Note_on_c, 4, 64, 0
10, 31771, Note_on_c, 4, 56, 0
10, 31773, Note_on_c, 4, 61, 0
10, 31800, Note_on_c, 4, 55, 54
10, 31802, Note_on_c, 4, 60, 62
10, 31804, Note_on_c, 4, 64, 46
10, 31977, Note_on_c, 4, 55, 0
10, 31992, Note_on_c, 4, 60, 0
10, 31998, Note_on_c, 4, 64, 0
10, 32040, Note_on_c, 4, 62, 60
10, 32042, Note_on_c, 4, 59, 63
10, 32044, Note_on_c, 4, 54, 74
10, 32142, Note_on_c, 4, 59, 0
10, 32144, Note_on_c, 4, 62, 0
10, 32144, Note_on_c, 4, 54, 0
10, 32240, Note_on_c, 4, 53, 63
10, 32242, Note_on_c, 4, 58, 92
10, 32244, Note_on_c, 4, 62, 60
10, 32313, Note_on_c, 4, 62, 0
10, 32317, Note_on_c, 4, 53, 0
10, 32317, Note_on_c, 4, 58, 0
10, 32400, Note_on_c, 4, 62, 67
10, 32402, Note_on_c, 4, 57, 80
10, 32404, Note_on_c, 4, 52, 69
10, 32982, Note_on_c, 4, 52, 0
10, 32985, Note_on_c, 4, 57, 0
10, 33012, Note_on_c, 4, 62, 0
10, 37440, Note_on_c, 4, 62, 56
10, 37452, Note_on_c, 4, 62, 0
10, 37520, Note_on_c, 4, 62, 65
10, 37535, Note_on_c, 4, 62, 0
10, 37680, Note_on_c, 4, 62, 62
10, 37693, Note_on_c, 4, 62, 0
10, 37760, Note_on_c, 4, 62, 74
10, 37777, Note_on_c, 4, 62, 0
10, 37920, Note_on_c, 4, 62, 56
10, 37939, Note_on_c, 4, 62, 0
10, 38000, Note_on_c, 4, 62, 61
10, 38017, Note_on_c, 4, 62, 0
10, 38120, Note_on_c, 4, 59, 55
10, 38158, Note_on_c, 4, 59, 0
10, 38160, Note_on_c, 4, 62, 48
10, 38185, Note_on_c, 4, 62, 0
10, 38240, Note_on_c, 4, 62, 74
10, 38253, Note_on_c, 4, 62, 0
10, 38400, Note_on_c, 4, 62, 67
10, 38416, Note_on_c, 4, 62, 0
10, 38600, Note_on_c, 4, 62, 74
10, 38617, Note_on_c, 4, 62, 0
10, 38840, Note_on_c, 4, 62, 82
10, 38854, Note_on_c, 4, 62, 0
10, 38960, Note_on_c, 4, 62, 84
10, 38975, Note_on_c, 4, 62, 0
10, 39080, Note_on_c, 4, 59, 46
10, 39114, Note_on_c, 4, 59, 0
10, 39120, Note_on_c, 4, 62, 53
10, 39149, Note_on_c, 4, 62, 0
10, 39200, Note_on_c, 4, 62, 65
10, 39221, Note_on_c, 4, 62, 0
10, 39360, Note_on_c, 4, 62, 52
10, 39382, Note_on_c, 4, 62, 0
10, 39440, Note_on_c, 4, 62, 50
10, 39454, Note_on_c, 4, 62, 0
10, 39600, Note_on_c, 4, 62, 62
10, 39616, Note_on_c, 4, 62, 0
10, 39680, Note_on_c, 4, 62, 64
10, 39700, Note_on_c, 4, 62, 0
10, 39840, Note_on_c, 4, 62, 67
10, 39854, Note_on_c, 4, 62, 0
10, 39920, Note_on_c, 4, 62, 67
10, 39936, Note_on_c, 4, 62, 0
10, 40040, Note_on_c, 4, 59, 43
10, 40077, Note_on_c, 4, 59, 0
10, 40080, Note_on_c, 4, 62, 56
10, 40107, Note_on_c, 4, 62, 0
10, 40160, Note_on_c, 4, 62, 72
10, 40179, Note_on_c, 4, 62, 0
10, 43160, Note_on_c, 4, 62, 45
10, 43160, Note_on_c, 4, 55, 46
10, 43160, Note_on_c, 4, 58, 44
10, 43160, Note_on_c, 4, 51, 41
10, 43182, Note_on_c, 4, 62, 0
10, 43182, Note_on_c, 4, 51, 0
10, 43184, Note_on_c, 4, 55, 0
10, 43193, Note_on_c, 4, 58, 0
10, 43280, Note_on_c, 4, 58, 33
10, 43280, Note_on_c, 4, 55, 35
10, 43280, Note_on_c, 4, 51, 39
10, 43280, Note_on_c, 4, 62, 36
10, 43300, Note_on_c, 4, 55, 0
10, 43303, Note_on_c, 4, 62, 0
10, 43304, Note_on_c, 4, 58, 0
10, 43306, Note_on_c, 4, 51, 0
10, 43400, Note_on_c, 4, 62, 40
10, 43400, Note_on_c, 4, 55, 39
10, 43400, Note_on_c, 4, 51, 34
10, 43400, Note_on_c, 4, 58, 33
10, 43422, Note_on_c, 4, 62, 0
10, 43423, Note_on_c, 4, 55, 0
10, 43430, Note_on_c, 4, 51, 0
10, 43434, Note_on_c, 4, 58, 0
10, 43520, Note_on_c, 4, 51, 32
10, 43520, Note_on_c, 4, 58, 30
10, 43520, Note_on_c, 4, 55, 32
10, 43520, Note_on_c, 4, 62, 36
10, 43538, Note_on_c, 4, 62, 0
10, 43539, Note_on_c, 4, 55, 0
10, 43543, Note_on_c, 4, 51, 0
10, 43544, Note_on_c, 4, 58, 0
10, 43640, Note_on_c, 4, 62, 36
10, 43640, Note_on_c, 4, 58, 28
10, 43640, Note_on_c, 4, 55, 35
10, 43640, Note_on_c, 4, 51, 36
10, 43662, Note_on_c, 4, 55, 0
10, 43664, Note_on_c, 4, 62, 0
10, 43670, Note_on_c, 4, 51, 0
10, 43671, Note_on_c, 4, 58, 0
10, 43760, Note_on_c, 4, 55, 36
10, 43760, Note_on_c, 4, 62, 41
10, 43760, Note_on_c, 4, 58, 42
10, 43760, Note_on_c, 4, 51, 46
10, 43781, Note_on_c, 4, 55, 0
10, 43784, Note_on_c, 4, 62, 0
10, 43800, Note_on_c, 4, 62, 44
10, 43800, Note_on_c, 4, 55, 43
10, 43863, Note_on_c, 4, 62, 0
10, 43866, Note_on_c, 4, 55, 0
10, 43880, Note_on_c, 4, 55, 45
10, 43880, Note_on_c, 4, 62, 43
10, 43916, Note_on_c, 4, 55, 0
10, 43916, Note_on_c, 4, 62, 0
10, 43926, Note_on_c, 4, 51, 0
10, 43929, Note_on_c, 4, 58, 0
10, 44000, Note_on_c, 4, 55, 45
10, 44000, Note_on_c, 4, 58, 47
10, 44000, Note_on_c, 4, 51, 44
10, 44000, Note_on_c, 4, 62, 47
10, 44017, Note_on_c, 4, 62, 0
10, 44018, Note_on_c, 4, 55, 0
10, 44020, Note_on_c, 4, 51, 0
10, 44027, Note_on_c, 4, 58, 0
10, 44600, Note_on_c, 4, 51, 59
10, 44600, Note_on_c, 4, 58, 53
10, 44600, Note_on_c, 4, 55, 53
10, 44600, Note_on_c, 4, 60, 55
10, 44775, Note_on_c, 4, 60, 0
10, 44776, Note_on_c, 4, 51, 0
10, 44776, Note_on_c, 4, 55, 0
10, 44782, Note_on_c, 4, 58, 0
10, 44840, Note_on_c, 4, 51, 40
10, 44840, Note_on_c, 4, 60, 39
10, 44840, Note_on_c, 4, 58, 41
10, 44840, Note_on_c, 4, 55, 37
10, 44867, Note_on_c, 4, 51, 0
10, 44867, Note_on_c, 4, 55, 0
10, 44880, Note_on_c, 4, 55, 44
10, 44880, Note_on_c, 4, 51, 47
10, 44905, Note_on_c, 4, 55, 0
10, 44908, Note_on_c, 4, 51, 0
10, 44910, Note_on_c, 4, 60, 0
10, 44914, Note_on_c, 4, 58, 0
10, 45080, Note_on_c, 4, 60, 44
10, 45080, Note_on_c, 4, 56, 46
10, 45080, Note_on_c, 4, 53, 41
10, 45080, Note_on_c, 4, 51, 45
10, 45102, Note_on_c, 4, 53, 0
10, 45103, Note_on_c, 4, 51, 0
10, 45104, Note_on_c, 4, 56, 0
10, 45113, Note_on_c, 4, 60, 0
10, 45200, Note_on_c, 4, 51, 36
10, 45200, Note_on_c, 4, 53, 39
10, 45200, Note_on_c, 4, 56, 35
10, 45200, Note_on_c, 4, 60, 33
10, 45220, Note_on_c, 4, 56, 0
10, 45222, Note_on_c, 4, 51, 0
10, 45225, Note_on_c, 4, 53, 0
10, 45225, Note_on_c, 4, 60, 0
10, 45320, Note_on_c, 4, 51, 40
10, 45320, Note_on_c, 4, 60, 33
10, 45320, Note_on_c, 4, 56, 39
10, 45320, Note_on_c, 4, 53, 34
10, 45340, Note_on_c, 4, 51, 0
10, 45342, Note_on_c, 4, 56, 0
10, 45350, Note_on_c, 4, 53, 0
10, 45355, Note_on_c, 4, 60, 0
10, 45440, Note_on_c, 4, 51, 36
10, 45440, Note_on_c, 4, 56, 32
10, 45440, Note_on_c, 4, 60, 30
10, 45440, Note_on_c, 4, 53, 32
10, 45458, Note_on_c, 4, 56, 0
10, 45459, Note_on_c, 4, 51, 0
10, 45462, Note_on_c, 4, 53, 0
10, 45463, Note_on_c, 4, 60, 0
10, 45560, Note_on_c, 4, 51, 36
10, 45560, Note_on_c, 4, 60, 28
10, 45560, Note_on_c, 4, 56, 35
10, 45582, Note_on_c, 4, 56, 0
10, 45584, Note_on_c, 4, 51, 0
10, 45590, Note_on_c, 4, 60, 0
10, 45680, Note_on_c, 4, 60, 42
10, 45680, Note_on_c, 4, 51, 41
10, 45680, Note_on_c, 4, 56, 36
10, 45703, Note_on_c, 4, 51, 0
10, 45703, Note_on_c, 4, 56, 0
10, 45720, Note_on_c, 4, 51, 44
10, 45720, Note_on_c, 4, 56, 43
10, 45783, Note_on_c, 4, 51, 0
10, 45786, Note_on_c, 4, 56, 0
10, 45800, Note_on_c, 4, 56, 45
10, 45800, Note_on_c, 4, 51, 43
10, 45836, Note_on_c, 4, 56, 0
10, 45836, Note_on_c, 4, 51, 0
10, 45849, Note_on_c, 4, 60, 0
10, 45920, Note_on_c, 4, 51, 47
10, 45920, Note_on_c, 4, 56, 45
10, 45920, Note_on_c, 4, 60, 47
10, 45937, Note_on_c, 4, 51, 0
10, 45939, Note_on_c, 4, 56, 0
10, 45947, Note_on_c, 4, 60, 0
10, 46160, Note_on_c, 4, 53, 32
10, 46160, Note_on_c, 4, 56, 33
10, 46160, Note_on_c, 4, 58, 31
10, 46160, Note_on_c, 4, 62, 36
10, 46178, Note_on_c, 4, 53, 0
10, 46180, Note_on_c, 4, 56, 0
10, 46184, Note_on_c, 4, 58, 0
10, 46200, Note_on_c, 4, 58, 36
10, 46200, Note_on_c, 4, 56, 42
10, 46200, Note_on_c, 4, 53, 45
10, 46236, Note_on_c, 4, 53, 0
10, 46240, Note_on_c, 4, 56, 0
10, 46243, Note_on_c, 4, 58, 0
10, 46255, Note_on_c, 4, 62, 0
10, 46280, Note_on_c, 4, 53, 51
10, 46280, Note_on_c, 4, 62, 44
10, 46280, Note_on_c, 4, 56, 47
10, 46280, Note_on_c, 4, 58, 44
10, 46305, Note_on_c, 4, 53, 0
10, 46306, Note_on_c, 4, 58, 0
10, 46310, Note_on_c, 4, 62, 0
10, 46311, Note_on_c, 4, 56, 0
10, 46400, Note_on_c, 4, 56, 46
10, 46400, Note_on_c, 4, 53, 49
10, 46400, Note_on_c, 4, 62, 48
10, 46400, Note_on_c, 4, 58, 46
10, 46430, Note_on_c, 4, 58, 0
10, 46431, Note_on_c, 4, 53, 0
10, 46432, Note_on_c, 4, 56, 0
10, 46436, Note_on_c, 4, 62, 0
10, 46520, Note_on_c, 4, 62, 53
10, 46520, Note_on_c, 4, 58, 55
10, 46520, Note_on_c, 4, 53, 59
10, 46520, Note_on_c, 4, 56, 53
10, 46695, Note_on_c, 4, 58, 0
10, 46697, Note_on_c, 4, 53, 0
10, 46697, Note_on_c, 4, 56, 0
10, 46701, Note_on_c, 4, 62, 0
10, 46760, Note_on_c, 4, 53, 40
10, 46760, Note_on_c, 4, 58, 39
10, 46760, Note_on_c, 4, 56, 37
10, 46760, Note_on_c, 4, 62, 41
10, 46787, Note_on_c, 4, 53, 0
10, 46787, Note_on_c, 4, 56, 0
10, 46800, Note_on_c, 4, 56, 44
10, 46800, Note_on_c, 4, 53, 47
10, 46825, Note_on_c, 4, 56, 0
10, 46827, Note_on_c, 4, 53, 0
10, 46830, Note_on_c, 4, 58, 0
10, 46834, Note_on_c, 4, 62, 0
10, 47000, Note_on_c, 4, 65, 45
10, 47000, Note_on_c, 4, 61, 44
10, 47000, Note_on_c, 4, 58, 46
10, 47000, Note_on_c, 4, 54, 41
10, 47022, Note_on_c, 4, 65, 0
10, 47023, Note_on_c, 4, 54, 0
10, 47024, Note_on_c, 4, 58, 0
10, 47032, Note_on_c, 4, 61, 0
10, 47120, Note_on_c, 4, 61, 33
10, 47120, Note_on_c, 4, 65, 36
10, 47120, Note_on_c, 4, 58, 35
10, 47120, Note_on_c, 4, 54, 39
10, 47140, Note_on_c, 4, 58, 0
10, 47143, Note_on_c, 4, 65, 0
10, 47144, Note_on_c, 4, 61, 0
10, 47146, Note_on_c, 4, 54, 0
10, 47240, Note_on_c, 4, 61, 33
10, 47240, Note_on_c, 4, 65, 40
10, 47240, Note_on_c, 4, 54, 34
10, 47240, Note_on_c, 4, 58, 39
10, 47261, Note_on_c, 4, 65, 0
10, 47263, Note_on_c, 4, 58, 0
10, 47271, Note_on_c, 4, 54, 0
10, 47275, Note_on_c, 4, 61, 0
10, 47360, Note_on_c, 4, 58, 32
10, 47360, Note_on_c, 4, 65, 36
10, 47360, Note_on_c, 4, 61, 30
10, 47360, Note_on_c, 4, 54, 32
10, 47379, Note_on_c, 4, 58, 0
10, 47379, Note_on_c, 4, 65, 0
10, 47382, Note_on_c, 4, 54, 0
10, 47383, Note_on_c, 4, 61, 0
10, 47480, Note_on_c, 4, 58, 35
10, 47480, Note_on_c, 4, 65, 36
10, 47480, Note_on_c, 4, 61, 28
10, 47480, Note_on_c, 4, 54, 36
10, 47502, Note_on_c, 4, 58, 0
10, 47506, Note_on_c, 4, 65, 0
10, 47509, Note_on_c, 4, 54, 0
10, 47511, Note_on_c, 4, 61, 0
10, 47600, Note_on_c, 4, 54, 46
10, 47600, Note_on_c, 4, 65, 41
10, 47600, Note_on_c, 4, 58, 36
10, 47600, Note_on_c, 4, 61, 42
10, 47623, Note_on_c, 4, 58, 0
10, 47624, Note_on_c, 4, 65, 0
10, 47640, Note_on_c, 4, 65, 44
10, 47640, Note_on_c, 4, 58, 43
10, 47702, Note_on_c, 4, 65, 0
10, 47705, Note_on_c, 4, 58, 0
10, 47720, Note_on_c, 4, 65, 43
10, 47720, Note_on_c, 4, 58, 45
10, 47756, Note_on_c, 4, 65, 0
10, 47756, Note_on_c, 4, 58, 0
10, 47767, Note_on_c, 4, 54, 0
10, 47769, Note_on_c, 4, 61, 0
10, 47840, Note_on_c, 4, 65, 47
10, 47840, Note_on_c, 4, 58, 45
10, 47840, Note_on_c, 4, 54, 44
10, 47840, Note_on_c, 4, 61, 47
10, 47858, Note_on_c, 4, 65, 0
10, 47859, Note_on_c, 4, 58, 0
10, 47861, Note_on_c, 4, 54, 0
10, 47868, Note_on_c, 4, 61, 0
10, 48080, Note_on_c, 4, 66, 33
10, 48080, Note_on_c, 4, 70, 36
10, 48080, Note_on_c, 4, 61, 32
10, 48080, Note_on_c, 4, 63, 31
10, 48097, Note_on_c, 4, 61, 0
10, 48099, Note_on_c, 4, 66, 0
10, 48104, Note_on_c, 4, 63, 0
10, 48120, Note_on_c, 4, 66, 42
10, 48120, Note_on_c, 4, 63, 36
10, 48120, Note_on_c, 4, 61, 45
10, 48157, Note_on_c, 4, 61, 0
10, 48160, Note_on_c, 4, 66, 0
10, 48162, Note_on_c, 4, 63, 0
10, 48175, Note_on_c, 4, 70, 0
10, 48200, Note_on_c, 4, 66, 47
10, 48200, Note_on_c, 4, 61, 51
10, 48200, Note_on_c, 4, 63, 44
10, 48200, Note_on_c, 4, 70, 44
10, 48225, Note_on_c, 4, 61, 0
10, 48226, Note_on_c, 4, 63, 0
10, 48229, Note_on_c, 4, 70, 0
10, 48231, Note_on_c, 4, 66, 0
10, 48320, Note_on_c, 4, 61, 49
10, 48320, Note_on_c, 4, 66, 46
10, 48320, Note_on_c, 4, 70, 48
10, 48320, Note_on_c, 4, 63, 46
10, 48350, Note_on_c, 4, 63, 0
10, 48351, Note_on_c, 4, 61, 0
10, 48352, Note_on_c, 4, 66, 0
10, 48357, Note_on_c, 4, 70, 0
10, 48440, Note_on_c, 4, 70, 53
10, 48440, Note_on_c, 4, 61, 59
10, 48440, Note_on_c, 4, 66, 53
10, 48440, Note_on_c, 4, 63, 55
10, 48615, Note_on_c, 4, 66, 0
10, 48615, Note_on_c, 4, 63, 0
10, 48616, Note_on_c, 4, 61, 0
10, 48621, Note_on_c, 4, 70, 0
10, 48680, Note_on_c, 4, 70, 41
10, 48680, Note_on_c, 4, 66, 37
10, 48680, Note_on_c, 4, 61, 40
10, 48680, Note_on_c, 4, 63, 39
10, 48707, Note_on_c, 4, 66, 0
10, 48707, Note_on_c, 4, 61, 0
10, 48720, Note_on_c, 4, 61, 47
10, 48720, Note_on_c, 4, 66, 44
10, 48745, Note_on_c, 4, 66, 0
10, 48747, Note_on_c, 4, 61, 0
10, 48750, Note_on_c, 4, 63, 0
10, 48754, Note_on_c, 4, 70, 0
10, 48920, Note_on_c, 4, 54, 46
10, 48920, Note_on_c, 4, 63, 45
10, 48920, Note_on_c, 4, 59, 44
10, 48942, Note_on_c, 4, 63, 0
10, 48944, Note_on_c, 4, 54, 0
10, 48952, Note_on_c, 4, 59, 0
10, 49040, Note_on_c, 4, 54, 35
10, 49040, Note_on_c, 4, 59, 33
10, 49040, Note_on_c, 4, 63, 39
10, 49060, Note_on_c, 4, 54, 0
10, 49064, Note_on_c, 4, 63, 0
10, 49065, Note_on_c, 4, 59, 0
10, 49160, Note_on_c, 4, 59, 33
10, 49160, Note_on_c, 4, 63, 34
10, 49160, Note_on_c, 4, 54, 39
10, 49182, Note_on_c, 4, 54, 0
10, 49187, Note_on_c, 4, 63, 0
10, 49194, Note_on_c, 4, 59, 0
10, 49280, Note_on_c, 4, 59, 30
10, 49280, Note_on_c, 4, 54, 32
10, 49280, Note_on_c, 4, 63, 32
10, 49299, Note_on_c, 4, 54, 0
10, 49304, Note_on_c, 4, 59, 0
10, 49304, Note_on_c, 4, 63, 0
10, 49400, Note_on_c, 4, 54, 35
10, 49400, Note_on_c, 4, 63, 36
10, 49400, Note_on_c, 4, 59, 28
10, 49421, Note_on_c, 4, 54, 0
10, 49427, Note_on_c, 4, 63, 0
10, 49431, Note_on_c, 4, 59, 0
10, 49520, Note_on_c, 4, 59, 42
10, 49520, Note_on_c, 4, 63, 46
10, 49520, Note_on_c, 4, 54, 36
10, 49543, Note_on_c, 4, 54, 0
10, 49546, Note_on_c, 4, 63, 0
10, 49560, Note_on_c, 4, 54, 43
10, 49560, Note_on_c, 4, 63, 44
10, 49626, Note_on_c, 4, 54, 0
10, 49640, Note_on_c, 4, 54, 45
10, 49671, Note_on_c, 4, 63, 0
10, 49677, Note_on_c, 4, 54, 0
10, 49689, Note_on_c, 4, 59, 0
10, 49760, Note_on_c, 4, 54, 45
10, 49760, Note_on_c, 4, 59, 47
10, 49760, Note_on_c, 4, 63, 44
10, 49780, Note_on_c, 4, 54, 0
10, 49780, Note_on_c, 4, 63, 0
10, 49787, Note_on_c, 4, 59, 0
10, 52797, Note_on_c, 4, 54, 46
10, 52797, Note_on_c, 4, 59, 46
10, 52800, Note_on_c, 4, 51, 35
10, 52825, Note_on_c, 4, 51, 0
10, 52826, Note_on_c, 4, 54, 0
10, 52827, Note_on_c, 4, 59, 0
10, 52917, Note_on_c, 4, 51, 43
10, 52919, Note_on_c, 4, 54, 64
10, 52921, Note_on_c, 4, 59, 63
10, 53123, Note_on_c, 4, 51, 0
10, 53127, Note_on_c, 4, 54, 0
10, 53140, Note_on_c, 4, 59, 0
10, 53156, Note_on_c, 4, 54, 44
10, 53156, Note_on_c, 4, 59, 43
10, 53157, Note_on_c, 4, 51, 43
10, 53221, Note_on_c, 4, 54, 0
10, 53222, Note_on_c, 4, 59, 0
10, 53222, Note_on_c, 4, 51, 0
10, 53233, Note_on_c, 4, 59, 53
10, 53233, Note_on_c, 4, 54, 62
10, 53233, Note_on_c, 4, 51, 47
10, 53266, Note_on_c, 4, 54, 0
10, 53267, Note_on_c, 4, 51, 0
10, 53268, Note_on_c, 4, 59, 0
10, 53354, Note_on_c, 4, 54, 46
10, 53357, Note_on_c, 4, 51, 33
10, 53359, Note_on_c, 4, 59, 69
10, 53384, Note_on_c, 4, 54, 0
10, 53384, Note_on_c, 4, 51, 0
10, 53386, Note_on_c, 4, 59, 0
10, 53481, Note_on_c, 4, 54, 23
10, 53483, Note_on_c, 4, 51, 25
10, 53483, Note_on_c, 4, 59, 22
10, 53505, Note_on_c, 4, 54, 0
10, 53505, Note_on_c, 4, 51, 0
10, 53507, Note_on_c, 4, 59, 0
10, 53519, Note_on_c, 4, 54, 57
10, 53521, Note_on_c, 4, 51, 48
10, 53521, Note_on_c, 4, 59, 44
10, 53582, Note_on_c, 4, 54, 0
10, 53582, Note_on_c, 4, 51, 0
10, 53582, Note_on_c, 4, 59, 0
10, 53596, Note_on_c, 4, 54, 76
10, 53597, Note_on_c, 4, 51, 60
10, 53597, Note_on_c, 4, 59, 92
10, 53632, Note_on_c, 4, 54, 0
10, 53632, Note_on_c, 4, 59, 0
10, 53633, Note_on_c, 4, 51, 0
10, 53709, Note_on_c, 4, 61, 74
10, 53710, Note_on_c, 4, 56, 84
10, 53712, Note_on_c, 4, 58, 92
10, 53712, Note_on_c, 4, 53, 66
10, 53736, Note_on_c, 4, 58, 0
10, 53738, Note_on_c, 4, 53, 0
10, 53741, Note_on_c, 4, 61, 0
10, 53741, Note_on_c, 4, 56, 0
10, 53879, Note_on_c, 4, 58, 36
10, 53882, Note_on_c, 4, 61, 37
10, 53882, Note_on_c, 4, 56, 37
10, 53887, Note_on_c, 4, 53, 27
10, 53940, Note_on_c, 4, 56, 0
10, 53941, Note_on_c, 4, 58, 0
10, 53942, Note_on_c, 4, 61, 0
10, 53942, Note_on_c, 4, 53, 0
10, 53952, Note_on_c, 4, 53, 41
10, 53953, Note_on_c, 4, 56, 59
10, 53954, Note_on_c, 4, 61, 60
10, 53956, Note_on_c, 4, 58, 62
10, 53978, Note_on_c, 4, 58, 0
10, 53982, Note_on_c, 4, 56, 0
10, 53982, Note_on_c, 4, 61, 0
10, 53983, Note_on_c, 4, 53, 0
10, 54068, Note_on_c, 4, 54, 68
10, 54070, Note_on_c, 4, 58, 59
10, 54072, Note_on_c, 4, 49, 41
10, 54073, Note_on_c, 4, 63, 72
10, 54089, Note_on_c, 4, 63, 0
10, 54090, Note_on_c, 4, 58, 0
10, 54090, Note_on_c, 4, 49, 0
10, 54091, Note_on_c, 4, 54, 0
10, 54188, Note_on_c, 4, 63, 73
10, 54190, Note_on_c, 4, 58, 62
10, 54191, Note_on_c, 4, 54, 58
10, 54191, Note_on_c, 4, 49, 48
10, 54528, Note_on_c, 4, 49, 0
10, 54532, Note_on_c, 4, 54, 0
10, 54533, Note_on_c, 4, 63, 0
10, 54533, Note_on_c, 4, 58, 0
10, 54547, Note_on_c, 4, 63, 74
10, 54548, Note_on_c, 4, 49, 62
10, 54548, Note_on_c, 4, 54, 80
10, 54548, Note_on_c, 4, 58, 70
10, 54565, Note_on_c, 4, 63, 0
10, 54568, Note_on_c, 4, 54, 0
10, 54569, Note_on_c, 4, 49, 0
10, 54570, Note_on_c, 4, 58, 0
10, 54716, Note_on_c, 4, 63, 51
10, 54717, Note_on_c, 4, 54, 46
10, 54717, Note_on_c, 4, 59, 46
10, 54719, Note_on_c, 4, 51, 35
10, 54743, Note_on_c, 4, 63, 0
10, 54744, Note_on_c, 4, 51, 0
10, 54746, Note_on_c, 4, 54, 0
10, 54747, Note_on_c, 4, 59, 0
10, 54837, Note_on_c, 4, 51, 43
10, 54838, Note_on_c, 4, 54, 64
10, 54839, Note_on_c, 4, 59, 56
10, 54840, Note_on_c, 4, 63, 63
10, 55042, Note_on_c, 4, 51, 0
10, 55046, Note_on_c, 4, 54, 0
10, 55048, Note_on_c, 4, 59, 0
10, 55059, Note_on_c, 4, 63, 0
10, 55075, Note_on_c, 4, 63, 53
10, 55077, Note_on_c, 4, 59, 43
10, 55078, Note_on_c, 4, 54, 44
10, 55078, Note_on_c, 4, 51, 43
10, 55139, Note_on_c, 4, 63, 0
10, 55140, Note_on_c, 4, 54, 0
10, 55143, Note_on_c, 4, 59, 0
10, 55143, Note_on_c, 4, 51, 0
10, 55154, Note_on_c, 4, 63, 62
10, 55154, Note_on_c, 4, 51, 47
10, 55154, Note_on_c, 4, 59, 53
10, 55154, Note_on_c, 4, 54, 62
10, 55187, Note_on_c, 4, 63, 0
10, 55187, Note_on_c, 4, 54, 0
10, 55188, Note_on_c, 4, 51, 0
10, 55188, Note_on_c, 4, 59, 0
10, 55276, Note_on_c, 4, 54, 46
10, 55277, Note_on_c, 4, 59, 50
10, 55278, Note_on_c, 4, 51, 33
10, 55280, Note_on_c, 4, 63, 69
10, 55304, Note_on_c, 4, 54, 0
10, 55304, Note_on_c, 4, 51, 0
10, 55304, Note_on_c, 4, 63, 0
10, 55306, Note_on_c, 4, 59, 0
10, 55400, Note_on_c, 4, 63, 27
10, 55402, Note_on_c, 4, 54, 23
10, 55403, Note_on_c, 4, 59, 22
10, 55404, Note_on_c, 4, 51, 25
10, 55425, Note_on_c, 4, 51, 0
10, 55426, Note_on_c, 4, 54, 0
10, 55426, Note_on_c, 4, 59, 0
10, 55428, Note_on_c, 4, 63, 0
10, 55440, Note_on_c, 4, 54, 57
10, 55442, Note_on_c, 4, 63, 44
10, 55442, Note_on_c, 4, 59, 58
10, 55442, Note_on_c, 4, 51, 48
10, 55498, Note_on_c, 4, 63, 0
10, 55503, Note_on_c, 4, 54, 0
10, 55503, Note_on_c, 4, 59, 0
10, 55503, Note_on_c, 4, 51, 0
10, 55518, Note_on_c, 4, 54, 76
10, 55518, Note_on_c, 4, 51, 60
10, 55518, Note_on_c, 4, 59, 70
10, 55518, Note_on_c, 4, 63, 92
10, 55551, Note_on_c, 4, 59, 0
10, 55552, Note_on_c, 4, 63, 0
10, 55553, Note_on_c, 4, 54, 0
10, 55555, Note_on_c, 4, 51, 0
10, 63356, Note_on_c, 4, 63, 51
10, 63357, Note_on_c, 4, 54, 46
10, 63357, Note_on_c, 4, 59, 46
10, 63359, Note_on_c, 4, 51, 35
10, 63383, Note_on_c, 4, 63, 0
10, 63384, Note_on_c, 4, 51, 0
10, 63386, Note_on_c, 4, 54, 0
10, 63387, Note_on_c, 4, 59, 0
10, 63477, Note_on_c, 4, 51, 43
10, 63478, Note_on_c, 4, 54, 64
10, 63479, Note_on_c, 4, 59, 56
10, 63480, Note_on_c, 4, 63, 63
10, 63682, Note_on_c, 4, 51, 0
10, 63686, Note_on_c, 4, 54, 0
10, 63688, Note_on_c, 4, 59, 0
10, 63699, Note_on_c, 4, 63, 0
10, 63715, Note_on_c, 4, 66, 53
10, 63717, Note_on_c, 4, 61, 43
10, 63718, Note_on_c, 4, 54, 43
10, 63718, Note_on_c, 4, 56, 44
10, 63779, Note_on_c, 4, 66, 0
10, 63780, Note_on_c, 4, 56, 0
10, 63783, Note_on_c, 4, 61, 0
10, 63783, Note_on_c, 4, 54, 0
10, 63794, Note_on_c, 4, 66, 62
10, 63794, Note_on_c, 4, 54, 47
10, 63794, Note_on_c, 4, 61, 53
10, 63794, Note_on_c, 4, 56, 62
10, 63827, Note_on_c, 4, 66, 0
10, 63827, Note_on_c, 4, 56, 0
10, 63828, Note_on_c, 4, 54, 0
10, 63828, Note_on_c, 4, 61, 0
10, 63916, Note_on_c, 4, 56, 46
10, 63917, Note_on_c, 4, 61, 50
10, 63918, Note_on_c, 4, 54, 33
10, 63920, Note_on_c, 4, 66, 69
10, 63944, Note_on_c, 4, 56, 0
10, 63944, Note_on_c, 4, 54, 0
10, 63944, Note_on_c, 4, 66, 0
10, 63946, Note_on_c, 4, 61, 0
10, 64040, Note_on_c, 4, 66, 27
10, 64042, Note_on_c, 4, 56, 23
10, 64043, Note_on_c, 4, 61, 22
10, 64044, Note_on_c, 4, 54, 25
10, 64065, Note_on_c, 4, 54, 0
10, 64066, Note_on_c, 4, 56, 0
10, 64066, Note_on_c, 4, 61, 0
10, 64068, Note_on_c, 4, 66, 0
10, 64080, Note_on_c, 4, 56, 57
10, 64082, Note_on_c, 4, 66, 44
10, 64082, Note_on_c, 4, 54, 48
10, 64082, Note_on_c, 4, 61, 58
10, 64138, Note_on_c, 4, 66, 0
10, 64143, Note_on_c, 4, 56, 0
10, 64143, Note_on_c, 4, 54, 0
10, 64143, Note_on_c, 4, 61, 0
10, 64158, Note_on_c, 4, 56, 76
10, 64158, Note_on_c, 4, 66, 92
10, 64158, Note_on_c, 4, 54, 60
10, 64158, Note_on_c, 4, 61, 70
10, 64191, Note_on_c, 4, 61, 0
10, 64192, Note_on_c, 4, 66, 0
10, 64193, Note_on_c, 4, 56, 0
10, 64195, Note_on_c, 4, 54, 0
10, 70080, Note_on_c, 4, 62, 56
10, 70092, Note_on_c, 4, 62, 0
10, 70160, Note_on_c, 4, 62, 65
10, 70175, Note_on_c, 4, 62, 0
10, 70320, Note_on_c, 4, 62, 62
10, 70333, Note_on_c, 4, 62, 0
10, 70400, Note_on_c, 4, 62, 74
10, 70417, Note_on_c, 4, 62, 0
10, 70560, Note_on_c, 4, 62, 56
10, 70579, Note_on_c, 4, 62, 0
10, 70640, Note_on_c, 4, 62, 61
10, 70657, Note_on_c, 4, 62, 0
10, 70760, Note_on_c, 4, 59, 55
10, 70798, Note_on_c, 4, 59, 0
10, 70800, Note_on_c, 4, 62, 48
10, 70825, Note_on_c, 4, 62, 0
10, 70880, Note_on_c, 4, 62, 74
10, 70893, Note_on_c, 4, 62, 0
10, 71040, Note_on_c, 4, 62, 67
10, 71056, Note_on_c, 4, 62, 0
10, 71240, Note_on_c, 4, 62, 74
10, 71257, Note_on_c, 4, 62, 0
10, 71480, Note_on_c, 4, 62, 82
10, 71494, Note_on_c, 4, 62, 0
10, 71600, Note_on_c, 4, 62, 84
10, 71615, Note_on_c, 4, 62, 0
10, 71720, Note_on_c, 4, 59, 46
10, 71754, Note_on_c, 4, 59, 0
10, 71760, Note_on_c, 4, 62, 53
10, 71789, Note_on_c, 4, 62, 0
10, 71840, Note_on_c, 4, 62, 65
10, 71861, Note_on_c, 4, 62, 0
10, 72000, Note_on_c, 4, 62, 52
10, 72022, Note_on_c, 4, 62, 0
10, 72080, Note_on_c, 4, 62, 50
10, 72094, Note_on_c, 4, 62, 0
10, 72240, Note_on_c, 4, 62, 62
10, 72256, Note_on_c, 4, 62, 0
10, 72320, Note_on_c, 4, 62, 64
10, 72340, Note_on_c, 4, 62, 0
10, 72480, Note_on_c, 4, 62, 67
10, 72494, Note_on_c, 4, 62, 0
10, 72560, Note_on_c, 4, 62, 67
10, 72576, Note_on_c, 4, 62, 0
10, 72680, Note_on_c, 4, 59, 43
10, 72717, Note_on_c, 4, 59, 0
10, 72720, Note_on_c, 4, 62, 56
10, 72747, Note_on_c, 4, 62, 0
10, 72800, Note_on_c, 4, 62, 72
10, 72819, Note_on_c, 4, 62, 0
10, 72960, Note_on_c, 4, 62, 68
10, 72983, Note_on_c, 4, 62, 0
10, 73040, Note_on_c, 4, 62, 61
10, 73054, Note_on_c, 4, 62, 0
10, 73200, Note_on_c, 4, 62, 74
10, 73220, Note_on_c, 4, 62, 0
10, 73440, Note_on_c, 4, 62, 56
10, 73440, Note_on_c, 4, 59, 59
10, 73440, Note_on_c, 4, 54, 50
10, 73519, Note_on_c, 4, 62, 0
10, 73519, Note_on_c, 4, 59, 0
10, 73519, Note_on_c, 4, 54, 0
10, 73520, Note_on_c, 4, 59, 122
10, 73520, Note_on_c, 4, 54, 100
10, 73520, Note_on_c, 4, 62, 106
10, 73563, Note_on_c, 4, 59, 0
10, 73563, Note_on_c, 4, 54, 0
10, 73565, Note_on_c, 4, 62, 0
10, 73920, Note_on_c, 4, 61, 56
10, 73932, Note_on_c, 4, 61, 0
10, 74000, Note_on_c, 4, 61, 65
10, 74015, Note_on_c, 4, 61, 0
10, 74160, Note_on_c, 4, 61, 62
10, 74173, Note_on_c, 4, 61, 0
10, 74240, Note_on_c, 4, 61, 74
10, 74257, Note_on_c, 4, 61, 0
10, 74400, Note_on_c, 4, 61, 56
10, 74419, Note_on_c, 4, 61, 0
10, 74480, Note_on_c, 4, 61, 61
10, 74497, Note_on_c, 4, 61, 0
10, 74600, Note_on_c, 4, 58, 55
10, 74638, Note_on_c, 4, 58, 0
10, 74640, Note_on_c, 4, 61, 48
10, 74665, Note_on_c, 4, 61, 0
10, 74720, Note_on_c, 4, 61, 74
10, 74733, Note_on_c, 4, 61, 0
10, 74880, Note_on_c, 4, 61, 67
10, 74896, Note_on_c, 4, 61, 0
10, 75080, Note_on_c, 4, 61, 74
10, 75097, Note_on_c, 4, 61, 0
10, 75320, Note_on_c, 4, 61, 82
10, 75334, Note_on_c, 4, 61, 0
10, 75440, Note_on_c, 4, 61, 84
10, 75455, Note_on_c, 4, 61, 0
10, 75560, Note_on_c, 4, 58, 46
10, 75594, Note_on_c, 4, 58, 0
10, 75600, Note_on_c, 4, 61, 53
10, 75629, Note_on_c, 4, 61, 0
10, 75680, Note_on_c, 4, 61, 65
10, 75701, Note_on_c, 4, 61, 0
10, 75800, Note_on_c, 4, 68, 53
10, 75802, Note_on_c, 4, 65, 57
10, 75804, Note_on_c, 4, 60, 59
10, 75927, Note_on_c, 4, 68, 0
10, 75931, Note_on_c, 4, 60, 0
10, 75933, Note_on_c, 4, 65, 0
10, 75960, Note_on_c, 4, 59, 54
10, 75962, Note_on_c, 4, 64, 62
10, 75964, Note_on_c, 4, 68, 46
10, 76137, Note_on_c, 4, 59, 0
10, 76152, Note_on_c, 4, 64, 0
10, 76158, Note_on_c, 4, 68, 0
10, 76200, Note_on_c, 4, 66, 60
10, 76202, Note_on_c, 4, 63, 63
10, 76204, Note_on_c, 4, 58, 74
10, 76302, Note_on_c, 4, 63, 0
10, 76304, Note_on_c, 4, 66, 0
10, 76304, Note_on_c, 4, 58, 0
10, 76400, Note_on_c, 4, 57, 63
10, 76402, Note_on_c, 4, 62, 92
10, 76404, Note_on_c, 4, 66, 60
10, 76473, Note_on_c, 4, 66, 0
10, 76477, Note_on_c, 4, 57, 0
10, 76477, Note_on_c, 4, 62, 0
10, 76560, Note_on_c, 4, 66, 67
10, 76562, Note_on_c, 4, 61, 80
10, 76564, Note_on_c, 4, 56, 69
10, 77142, Note_on_c, 4, 56, 0
10, 77145, Note_on_c, 4, 61, 0
10, 77172, Note_on_c, 4, 66, 0
10, 77172, End_track
11, 0, Start_track
11, 0, Title_t, "tinkle"
11, 0, MIDI_port, 0
11, 0, Program_c, 11, 112
11, 2, Control_c, 11, 10, 47
11, 4, Control_c, 11, 7, 127
11, 5, Control_c, 11, 91, 63
11, 21240, Note_on_c, 11, 93, 80
11, 21267, Note_on_c, 11, 93, 0
11, 21480, Note_on_c, 11, 90, 97
11, 21512, Note_on_c, 11, 90, 0
11, 21720, Note_on_c, 11, 98, 110
11, 21745, Note_on_c, 11, 98, 0
11, 21960, Note_on_c, 11, 93, 100
11, 21980, Note_on_c, 11, 93, 0
11, 22680, Note_on_c, 11, 102, 113
11, 22703, Note_on_c, 11, 102, 0
11, 22920, Note_on_c, 11, 98, 110
11, 22939, Note_on_c, 11, 98, 0
11, 23160, Note_on_c, 11, 95, 106
11, 23177, Note_on_c, 11, 95, 0
11, 23400, Note_on_c, 11, 91, 106
11, 23419, Note_on_c, 11, 91, 0
11, 23640, Note_on_c, 11, 95, 110
11, 23659, Note_on_c, 11, 95, 0
11, 23880, Note_on_c, 11, 97, 127
11, 23894, Note_on_c, 11, 97, 0
11, 24600, Note_on_c, 11, 93, 127
11, 24613, Note_on_c, 11, 93, 0
11, 25080, Note_on_c, 11, 93, 80
11, 25107, Note_on_c, 11, 93, 0
11, 25320, Note_on_c, 11, 90, 97
11, 25352, Note_on_c, 11, 90, 0
11, 25560, Note_on_c, 11, 98, 110
11, 25585, Note_on_c, 11, 98, 0
11, 25800, Note_on_c, 11, 93, 100
11, 25820, Note_on_c, 11, 93, 0
11, 26520, Note_on_c, 11, 102, 113
11, 26543, Note_on_c, 11, 102, 0
11, 26760, Note_on_c, 11, 98, 110
11, 26779, Note_on_c, 11, 98, 0
11, 27000, Note_on_c, 11, 95, 106
11, 27017, Note_on_c, 11, 95, 0
11, 27240, Note_on_c, 11, 91, 106
11, 27259, Note_on_c, 11, 91, 0
11, 27480, Note_on_c, 11, 95, 110
11, 27499, Note_on_c, 11, 95, 0
11, 27720, Note_on_c, 11, 97, 127
11, 27734, Note_on_c, 11, 97, 0
11, 28440, Note_on_c, 11, 93, 127
11, 28453, Note_on_c, 11, 93, 0
11, 70200, Note_on_c, 11, 93, 80
11, 70227, Note_on_c, 11, 93, 0
11, 70440, Note_on_c, 11, 90, 97
11, 70472, Note_on_c, 11, 90, 0
11, 70680, Note_on_c, 11, 98, 110
11, 70705, Note_on_c, 11, 98, 0
11, 70920, Note_on_c, 11, 93, 100
11, 70940, Note_on_c, 11, 93, 0
11, 71640, Note_on_c, 11, 102, 113
11, 71663, Note_on_c, 11, 102, 0
11, 71880, Note_on_c, 11, 97, 110
11, 71899, Note_on_c, 11, 97, 0
11, 72120, Note_on_c, 11, 93, 106
11, 72137, Note_on_c, 11, 93, 0
11, 72360, Note_on_c, 11, 90, 106
11, 72379, Note_on_c, 11, 90, 0
11, 72600, Note_on_c, 11, 95, 110
11, 72619, Note_on_c, 11, 95, 0
11, 72840, Note_on_c, 11, 97, 127
11, 72854, Note_on_c, 11, 97, 0
11, 73560, Note_on_c, 11, 93, 127
11, 73573, Note_on_c, 11, 93, 0
11, 73573, End_track
12, 0, Start_track
12, 0, Title_t, "crystal"
12, 0, MIDI_port, 0
12, 0, Program_c, 10, 98
12, 2, Control_c, 10, 7, 127
12, 4, Control_c, 10, 91, 63
12, 6, Control_c, 10, 10, 64
12, 1520, Note_on_c, 10, 66, 124
12, 1542, Note_on_c, 10, 66, 0
12, 1559, Note_on_c, 10, 71, 127
12, 1583, Note_on_c, 10, 71, 0
12, 1599, Note_on_c, 10, 76, 127
12, 1623, Note_on_c, 10, 76, 0
12, 1638, Note_on_c, 10, 81, 108
12, 1662, Note_on_c, 10, 81, 0
12, 1678, Note_on_c, 10, 86, 127
12, 1702, Note_on_c, 10, 86, 0
12, 1718, Note_on_c, 10, 78, 127
12, 1742, Note_on_c, 10, 78, 0
12, 1758, Note_on_c, 10, 83, 127
12, 1782, Note_on_c, 10, 83, 0
12, 1799, Note_on_c, 10, 88, 127
12, 1822, Note_on_c, 10, 88, 0
12, 1879, Note_on_c, 10, 93, 127
12, 2009, Note_on_c, 10, 93, 0
12, 17840, Note_on_c, 10, 66, 124
12, 17862, Note_on_c, 10, 66, 0
12, 17879, Note_on_c, 10, 71, 127
12, 17903, Note_on_c, 10, 71, 0
12, 17919, Note_on_c, 10, 76, 127
12, 17943, Note_on_c, 10, 76, 0
12, 17958, Note_on_c, 10, 81, 108
12, 17982, Note_on_c, 10, 81, 0
12, 17998, Note_on_c, 10, 86, 127
12, 18022, Note_on_c, 10, 86, 0
12, 18038, Note_on_c, 10, 78, 127
12, 18062, Note_on_c, 10, 78, 0
12, 18078, Note_on_c, 10, 83, 127
12, 18102, Note_on_c, 10, 83, 0
12, 18119, Note_on_c, 10, 88, 127
12, 18142, Note_on_c, 10, 88, 0
12, 18199, Note_on_c, 10, 93, 127
12, 18329, Note_on_c, 10, 93, 0
12, 32600, Note_on_c, 10, 66, 124
12, 32622, Note_on_c, 10, 66, 0
12, 32639, Note_on_c, 10, 71, 127
12, 32663, Note_on_c, 10, 71, 0
12, 32679, Note_on_c, 10, 76, 127
12, 32703, Note_on_c, 10, 76, 0
12, 32718, Note_on_c, 10, 81, 108
12, 32742, Note_on_c, 10, 81, 0
12, 32758, Note_on_c, 10, 86, 127
12, 32782, Note_on_c, 10, 86, 0
12, 32798, Note_on_c, 10, 78, 127
12, 32822, Note_on_c, 10, 78, 0
12, 32838, Note_on_c, 10, 83, 127
12, 32862, Note_on_c, 10, 83, 0
12, 32879, Note_on_c, 10, 88, 127
12, 32902, Note_on_c, 10, 88, 0
12, 32959, Note_on_c, 10, 93, 127
12, 33089, Note_on_c, 10, 93, 0
12, 74760, Note_on_c, 10, 101, 78
12, 74874, Note_on_c, 10, 101, 0
12, 74880, Note_on_c, 10, 97, 56
12, 75000, Note_on_c, 10, 99, 61
12, 75004, Note_on_c, 10, 97, 0
12, 75120, Note_on_c, 10, 94, 59
12, 75121, Note_on_c, 10, 99, 0
12, 75237, Note_on_c, 10, 94, 0
12, 75240, Note_on_c, 10, 97, 62
12, 75360, Note_on_c, 10, 92, 64
12, 75369, Note_on_c, 10, 97, 0
12, 75471, Note_on_c, 10, 92, 0
12, 75480, Note_on_c, 10, 94, 58
12, 75595, Note_on_c, 10, 94, 0
12, 75600, Note_on_c, 10, 90, 76
12, 75682, Note_on_c, 10, 90, 0
12, 76760, Note_on_c, 10, 82, 86
12, 76782, Note_on_c, 10, 82, 0
12, 76799, Note_on_c, 10, 87, 88
12, 76823, Note_on_c, 10, 87, 0
12, 76839, Note_on_c, 10, 92, 88
12, 76863, Note_on_c, 10, 92, 0
12, 76878, Note_on_c, 10, 97, 75
12, 76902, Note_on_c, 10, 97, 0
12, 76918, Note_on_c, 10, 102, 88
12, 76942, Note_on_c, 10, 102, 0
12, 76958, Note_on_c, 10, 94, 88
12, 76982, Note_on_c, 10, 94, 0
12, 76998, Note_on_c, 10, 99, 88
12, 77022, Note_on_c, 10, 99, 0
12, 77039, Note_on_c, 10, 92, 88
12, 77062, Note_on_c, 10, 92, 0
12, 77119, Note_on_c, 10, 97, 88
12, 77249, Note_on_c, 10, 97, 0
12, 77249, End_track
13, 0, Start_track
13, 0, Title_t, "clavi"
13, 0, MIDI_port, 0
13, 0, Program_c, 5, 7
13, 2, Control_c, 5, 91, 63
13, 4, Control_c, 5, 7, 127
13, 6, Control_c, 5, 10, 64
13, 6240, Note_on_c, 5, 71, 127
13, 6320, Note_on_c, 5, 71, 0
13, 6320, Note_on_c, 5, 69, 127
13, 6375, Note_on_c, 5, 69, 0
13, 6480, Note_on_c, 5, 66, 127
13, 6539, Note_on_c, 5, 66, 0
13, 6600, Note_on_c, 5, 66, 127
13, 6665, Note_on_c, 5, 66, 0
13, 6720, Note_on_c, 5, 64, 122
13, 6800, Note_on_c, 5, 62, 100
13, 6806, Note_on_c, 5, 64, 0
13, 6844, Note_on_c, 5, 62, 0
13, 6920, Note_on_c, 5, 66, 127
13, 6983, Note_on_c, 5, 66, 0
13, 7160, Note_on_c, 5, 59, 66
13, 7196, Note_on_c, 5, 59, 0
13, 7200, Note_on_c, 5, 62, 127
13, 7248, Note_on_c, 5, 62, 0
13, 7320, Note_on_c, 5, 62, 127
13, 7392, Note_on_c, 5, 62, 0
13, 7400, Note_on_c, 5, 59, 77
13, 7436, Note_on_c, 5, 59, 0
13, 7440, Note_on_c, 5, 62, 127
13, 7515, Note_on_c, 5, 62, 0
13, 7520, Note_on_c, 5, 59, 100
13, 7559, Note_on_c, 5, 59, 0
13, 7640, Note_on_c, 5, 66, 127
13, 7696, Note_on_c, 5, 66, 0
13, 7760, Note_on_c, 5, 59, 44
13, 7800, Note_on_c, 5, 59, 0
13, 7800, Note_on_c, 5, 57, 100
13, 7865, Note_on_c, 5, 57, 0
13, 8120, Note_on_c, 5, 59, 82
13, 8160, Note_on_c, 5, 64, 127
13, 8165, Note_on_c, 5, 59, 0
13, 8231, Note_on_c, 5, 64, 0
13, 8240, Note_on_c, 5, 62, 97
13, 8274, Note_on_c, 5, 62, 0
13, 8360, Note_on_c, 5, 62, 127
13, 8400, Note_on_c, 5, 62, 0
13, 8560, Note_on_c, 5, 59, 82
13, 8581, Note_on_c, 5, 59, 0
13, 8600, Note_on_c, 5, 62, 92
13, 8617, Note_on_c, 5, 62, 0
13, 8640, Note_on_c, 5, 64, 127
13, 8719, Note_on_c, 5, 64, 0
13, 8720, Note_on_c, 5, 62, 92
13, 8759, Note_on_c, 5, 62, 0
13, 8840, Note_on_c, 5, 62, 118
13, 8879, Note_on_c, 5, 62, 0
13, 9080, Note_on_c, 5, 62, 97
13, 9120, Note_on_c, 5, 66, 127
13, 9122, Note_on_c, 5, 62, 0
13, 9179, Note_on_c, 5, 66, 0
13, 9200, Note_on_c, 5, 69, 113
13, 9229, Note_on_c, 5, 69, 0
13, 9240, Note_on_c, 5, 66, 100
13, 9260, Note_on_c, 5, 66, 0
13, 9320, Note_on_c, 5, 69, 127
13, 9413, Note_on_c, 5, 69, 0
13, 9440, Note_on_c, 5, 66, 97
13, 9457, Note_on_c, 5, 66, 0
13, 9480, Note_on_c, 5, 69, 118
13, 9535, Note_on_c, 5, 69, 0
13, 9560, Note_on_c, 5, 66, 72
13, 9572, Note_on_c, 5, 66, 0
13, 9600, Note_on_c, 5, 71, 127
13, 9677, Note_on_c, 5, 71, 0
13, 9680, Note_on_c, 5, 69, 85
13, 9707, Note_on_c, 5, 69, 0
13, 9720, Note_on_c, 5, 66, 122
13, 9751, Note_on_c, 5, 66, 0
13, 9800, Note_on_c, 5, 71, 127
13, 9848, Note_on_c, 5, 71, 0
13, 9920, Note_on_c, 5, 69, 127
13, 9974, Note_on_c, 5, 69, 0
13, 10040, Note_on_c, 5, 71, 127
13, 10088, Note_on_c, 5, 71, 0
13, 10160, Note_on_c, 5, 66, 127
13, 10317, Note_on_c, 5, 66, 0
13, 10320, Note_on_c, 5, 64, 122
13, 10374, Note_on_c, 5, 64, 0
13, 10440, Note_on_c, 5, 64, 127
13, 10512, Note_on_c, 5, 64, 0
13, 10520, Note_on_c, 5, 66, 94
13, 10555, Note_on_c, 5, 66, 0
13, 10560, Note_on_c, 5, 64, 122
13, 10635, Note_on_c, 5, 64, 0
13, 10640, Note_on_c, 5, 62, 100
13, 10690, Note_on_c, 5, 62, 0
13, 10760, Note_on_c, 5, 66, 127
13, 10829, Note_on_c, 5, 66, 0
13, 11000, Note_on_c, 5, 59, 87
13, 11040, Note_on_c, 5, 62, 127
13, 11041, Note_on_c, 5, 59, 0
13, 11082, Note_on_c, 5, 62, 0
13, 11120, Note_on_c, 5, 62, 127
13, 11158, Note_on_c, 5, 62, 0
13, 11240, Note_on_c, 5, 62, 127
13, 11280, Note_on_c, 5, 62, 0
13, 11440, Note_on_c, 5, 59, 97
13, 11475, Note_on_c, 5, 59, 0
13, 11480, Note_on_c, 5, 62, 97
13, 11513, Note_on_c, 5, 62, 0
13, 11520, Note_on_c, 5, 66, 127
13, 11605, Note_on_c, 5, 66, 0
13, 11640, Note_on_c, 5, 59, 99
13, 11699, Note_on_c, 5, 59, 0
13, 11720, Note_on_c, 5, 57, 122
13, 11786, Note_on_c, 5, 57, 0
13, 11880, Note_on_c, 5, 64, 127
13, 11951, Note_on_c, 5, 64, 0
13, 11960, Note_on_c, 5, 59, 48
13, 11984, Note_on_c, 5, 59, 0
13, 12000, Note_on_c, 5, 64, 122
13, 12069, Note_on_c, 5, 64, 0
13, 12080, Note_on_c, 5, 62, 90
13, 12103, Note_on_c, 5, 62, 0
13, 12120, Note_on_c, 5, 62, 97
13, 12137, Note_on_c, 5, 62, 0
13, 12200, Note_on_c, 5, 62, 127
13, 12282, Note_on_c, 5, 62, 0
13, 12320, Note_on_c, 5, 62, 78
13, 12348, Note_on_c, 5, 62, 0
13, 12360, Note_on_c, 5, 59, 106
13, 12435, Note_on_c, 5, 59, 0
13, 12440, Note_on_c, 5, 62, 70
13, 12456, Note_on_c, 5, 62, 0
13, 12480, Note_on_c, 5, 64, 127
13, 12549, Note_on_c, 5, 64, 0
13, 12600, Note_on_c, 5, 62, 106
13, 12617, Note_on_c, 5, 62, 0
13, 12680, Note_on_c, 5, 62, 127
13, 12717, Note_on_c, 5, 62, 0
13, 12800, Note_on_c, 5, 62, 85
13, 12815, Note_on_c, 5, 62, 0
13, 12840, Note_on_c, 5, 62, 106
13, 12867, Note_on_c, 5, 62, 0
13, 12920, Note_on_c, 5, 62, 92
13, 12960, Note_on_c, 5, 66, 127
13, 12965, Note_on_c, 5, 62, 0
13, 13013, Note_on_c, 5, 66, 0
13, 13040, Note_on_c, 5, 69, 127
13, 13065, Note_on_c, 5, 69, 0
13, 13080, Note_on_c, 5, 66, 127
13, 13102, Note_on_c, 5, 66, 0
13, 13160, Note_on_c, 5, 69, 127
13, 13255, Note_on_c, 5, 69, 0
13, 13280, Note_on_c, 5, 66, 92
13, 13291, Note_on_c, 5, 66, 0
13, 13320, Note_on_c, 5, 69, 127
13, 13385, Note_on_c, 5, 69, 0
13, 13400, Note_on_c, 5, 66, 72
13, 13411, Note_on_c, 5, 66, 0
13, 13440, Note_on_c, 5, 71, 127
13, 13520, Note_on_c, 5, 69, 92
13, 13528, Note_on_c, 5, 71, 0
13, 13552, Note_on_c, 5, 69, 0
13, 13560, Note_on_c, 5, 66, 127
13, 13598, Note_on_c, 5, 66, 0
13, 13640, Note_on_c, 5, 71, 127
13, 13710, Note_on_c, 5, 71, 0
13, 13760, Note_on_c, 5, 69, 118
13, 13793, Note_on_c, 5, 69, 0
13, 13800, Note_on_c, 5, 66, 127
13, 13853, Note_on_c, 5, 66, 0
13, 13853, End_track
14, 0, Start_track
14, 0, Title_t, "elec. piano"
14, 0, MIDI_port, 0
14, 0, Program_c, 3, 4
14, 3, Control_c, 3, 10, 64
14, 4, Control_c, 3, 7, 127
14, 7, Control_c, 3, 91, 63
14, 6240, Note_on_c, 3, 62, 70
14, 6240, Note_on_c, 3, 66, 70
14, 6240, Note_on_c, 3, 57, 70
14, 7163, Note_on_c, 3, 57, 0
14, 7166, Note_on_c, 3, 66, 0
14, 7167, Note_on_c, 3, 62, 0
14, 7200, Note_on_c, 3, 62, 70
14, 7200, Note_on_c, 3, 59, 70
14, 7200, Note_on_c, 3, 66, 70
14, 8087, Note_on_c, 3, 62, 0
14, 8094, Note_on_c, 3, 66, 0
14, 8105, Note_on_c, 3, 59, 0
14, 8160, Note_on_c, 3, 59, 70
14, 8160, Note_on_c, 3, 64, 70
14, 8160, Note_on_c, 3, 67, 70
14, 9027, Note_on_c, 3, 67, 0
14, 9053, Note_on_c, 3, 59, 0
14, 9076, Note_on_c, 3, 64, 0
14, 9120, Note_on_c, 3, 64, 70
14, 9120, Note_on_c, 3, 61, 70
14, 9120, Note_on_c, 3, 57, 70
14, 10045, Note_on_c, 3, 61, 0
14, 10047, Note_on_c, 3, 64, 0
14, 10048, Note_on_c, 3, 57, 0
14, 10080, Note_on_c, 3, 57, 70
14, 10080, Note_on_c, 3, 62, 70
14, 10080, Note_on_c, 3, 66, 70
14, 11003, Note_on_c, 3, 57, 0
14, 11006, Note_on_c, 3, 66, 0
14, 11007, Note_on_c, 3, 62, 0
14, 11040, Note_on_c, 3, 59, 70
14, 11040, Note_on_c, 3, 66, 70
14, 11040, Note_on_c, 3, 62, 70
14, 11927, Note_on_c, 3, 62, 0
14, 11934, Note_on_c, 3, 66, 0
14, 11945, Note_on_c, 3, 59, 0
14, 12000, Note_on_c, 3, 67, 70
14, 12000, Note_on_c, 3, 59, 70
14, 12000, Note_on_c, 3, 64, 70
14, 12867, Note_on_c, 3, 67, 0
14, 12893, Note_on_c, 3, 59, 0
14, 12916, Note_on_c, 3, 64, 0
14, 12960, Note_on_c, 3, 64, 70
14, 12960, Note_on_c, 3, 57, 70
14, 12960, Note_on_c, 3, 61, 70
14, 13885, Note_on_c, 3, 61, 0
14, 13887, Note_on_c, 3, 64, 0
14, 13888, Note_on_c, 3, 57, 0
14, 18720, Note_on_c, 3, 66, 70
14, 18720, Note_on_c, 3, 57, 70
14, 18720, Note_on_c, 3, 62, 70
14, 20159, Note_on_c, 3, 66, 0
14, 20159, Note_on_c, 3, 57, 0
14, 20159, Note_on_c, 3, 62, 0
14, 21000, Note_on_c, 3, 66, 70
14, 21000, Note_on_c, 3, 57, 70
14, 21000, Note_on_c, 3, 62, 70
14, 21923, Note_on_c, 3, 57, 0
14, 21926, Note_on_c, 3, 66, 0
14, 21927, Note_on_c, 3, 62, 0
14, 21960, Note_on_c, 3, 59, 70
14, 21960, Note_on_c, 3, 62, 70
14, 21960, Note_on_c, 3, 66, 70
14, 22847, Note_on_c, 3, 62, 0
14, 22854, Note_on_c, 3, 66, 0
14, 22865, Note_on_c, 3, 59, 0
14, 22920, Note_on_c, 3, 64, 70
14, 22920, Note_on_c, 3, 59, 70
14, 22920, Note_on_c, 3, 67, 70
14, 23787, Note_on_c, 3, 67, 0
14, 23813, Note_on_c, 3, 59, 0
14, 23836, Note_on_c, 3, 64, 0
14, 23880, Note_on_c, 3, 61, 70
14, 23880, Note_on_c, 3, 57, 70
14, 23880, Note_on_c, 3, 64, 70
14, 24805, Note_on_c, 3, 61, 0
14, 24807, Note_on_c, 3, 64, 0
14, 24808, Note_on_c, 3, 57, 0
14, 24840, Note_on_c, 3, 57, 70
14, 24840, Note_on_c, 3, 66, 70
14, 24840, Note_on_c, 3, 62, 70
14, 25763, Note_on_c, 3, 57, 0
14, 25766, Note_on_c, 3, 66, 0
14, 25767, Note_on_c, 3, 62, 0
14, 25800, Note_on_c, 3, 59, 70
14, 25800, Note_on_c, 3, 62, 70
14, 25800, Note_on_c, 3, 66, 70
14, 26687, Note_on_c, 3, 62, 0
14, 26694, Note_on_c, 3, 66, 0
14, 26705, Note_on_c, 3, 59, 0
14, 26760, Note_on_c, 3, 67, 70
14, 26760, Note_on_c, 3, 59, 70
14, 26760, Note_on_c, 3, 64, 70
14, 27627, Note_on_c, 3, 67, 0
14, 27653, Note_on_c, 3, 59, 0
14, 27676, Note_on_c, 3, 64, 0
14, 27720, Note_on_c, 3, 61, 70
14, 27720, Note_on_c, 3, 64, 70
14, 27720, Note_on_c, 3, 57, 70
14, 28645, Note_on_c, 3, 61, 0
14, 28647, Note_on_c, 3, 64, 0
14, 28648, Note_on_c, 3, 57, 0
14, 33440, Note_on_c, 3, 72, 64
14, 33440, Note_on_c, 3, 69, 64
14, 33440, Note_on_c, 3, 46, 94
14, 33440, Note_on_c, 3, 65, 69
14, 34318, Note_on_c, 3, 72, 0
14, 34324, Note_on_c, 3, 69, 0
14, 34325, Note_on_c, 3, 65, 0
14, 34400, Note_on_c, 3, 63, 59
14, 34400, Note_on_c, 3, 67, 56
14, 34400, Note_on_c, 3, 60, 64
14, 34400, Note_on_c, 3, 48, 56
14, 34426, Note_on_c, 3, 46, 0
14, 35251, Note_on_c, 3, 60, 0
14, 35255, Note_on_c, 3, 63, 0
14, 35257, Note_on_c, 3, 67, 0
14, 35288, Note_on_c, 3, 48, 0
14, 35360, Note_on_c, 3, 62, 68
14, 35360, Note_on_c, 3, 69, 65
14, 35360, Note_on_c, 3, 65, 64
14, 35360, Note_on_c, 3, 50, 65
14, 35777, Note_on_c, 3, 69, 0
14, 35782, Note_on_c, 3, 65, 0
14, 35786, Note_on_c, 3, 62, 0
14, 35786, Note_on_c, 3, 50, 0
14, 35840, Note_on_c, 3, 67, 69
14, 35840, Note_on_c, 3, 70, 62
14, 35840, Note_on_c, 3, 62, 64
14, 35840, Note_on_c, 3, 43, 70
14, 36251, Note_on_c, 3, 67, 0
14, 36255, Note_on_c, 3, 62, 0
14, 36256, Note_on_c, 3, 70, 0
14, 36271, Note_on_c, 3, 43, 0
14, 36320, Note_on_c, 3, 48, 85
14, 36320, Note_on_c, 3, 60, 94
14, 36320, Note_on_c, 3, 63, 84
14, 36320, Note_on_c, 3, 67, 76
14, 36782, Note_on_c, 3, 48, 0
14, 36784, Note_on_c, 3, 63, 0
14, 36786, Note_on_c, 3, 67, 0
14, 36787, Note_on_c, 3, 60, 0
14, 36800, Note_on_c, 3, 63, 66
14, 36800, Note_on_c, 3, 67, 68
14, 36800, Note_on_c, 3, 53, 66
14, 36800, Note_on_c, 3, 60, 70
14, 37220, Note_on_c, 3, 60, 0
14, 37224, Note_on_c, 3, 63, 0
14, 37226, Note_on_c, 3, 67, 0
14, 37239, Note_on_c, 3, 53, 0
14, 37280, Note_on_c, 3, 61, 68
14, 37280, Note_on_c, 3, 64, 82
14, 37280, Note_on_c, 3, 69, 74
14, 37280, Note_on_c, 3, 50, 73
14, 38144, Note_on_c, 3, 61, 0
14, 38150, Note_on_c, 3, 69, 0
14, 38178, Note_on_c, 3, 64, 0
14, 38195, Note_on_c, 3, 50, 0
14, 38240, Note_on_c, 3, 52, 70
14, 38240, Note_on_c, 3, 59, 62
14, 38240, Note_on_c, 3, 64, 64
14, 38240, Note_on_c, 3, 67, 63
14, 39132, Note_on_c, 3, 59, 0
14, 39167, Note_on_c, 3, 67, 0
14, 39176, Note_on_c, 3, 64, 0
14, 39192, Note_on_c, 3, 52, 0
14, 39200, Note_on_c, 3, 54, 64
14, 39200, Note_on_c, 3, 61, 55
14, 39200, Note_on_c, 3, 66, 58
14, 39200, Note_on_c, 3, 69, 55
14, 39613, Note_on_c, 3, 69, 0
14, 39615, Note_on_c, 3, 61, 0
14, 39640, Note_on_c, 3, 54, 0
14, 39646, Note_on_c, 3, 66, 0
14, 39680, Note_on_c, 3, 47, 65
14, 39680, Note_on_c, 3, 66, 65
14, 39680, Note_on_c, 3, 71, 66
14, 39680, Note_on_c, 3, 62, 60
14, 40136, Note_on_c, 3, 47, 0
14, 40142, Note_on_c, 3, 71, 0
14, 40144, Note_on_c, 3, 66, 0
14, 40146, Note_on_c, 3, 62, 0
14, 69954, Note_on_c, 3, 57, 77
14, 69954, Note_on_c, 3, 66, 67
14, 69956, Note_on_c, 3, 61, 73
14, 70810, Note_on_c, 3, 57, 0
14, 70839, Note_on_c, 3, 61, 0
14, 70847, Note_on_c, 3, 66, 0
14, 70921, Note_on_c, 3, 62, 87
14, 70923, Note_on_c, 3, 59, 72
14, 70926, Note_on_c, 3, 66, 60
14, 71783, Note_on_c, 3, 59, 0
14, 71794, Note_on_c, 3, 62, 0
14, 71799, Note_on_c, 3, 66, 0
14, 71871, Note_on_c, 3, 57, 70
14, 71872, Note_on_c, 3, 66, 49
14, 71875, Note_on_c, 3, 61, 46
14, 72715, Note_on_c, 3, 57, 0
14, 72740, Note_on_c, 3, 61, 0
14, 72744, Note_on_c, 3, 66, 0
14, 72834, Note_on_c, 3, 62, 65
14, 72836, Note_on_c, 3, 66, 50
14, 72837, Note_on_c, 3, 59, 37
14, 73725, Note_on_c, 3, 62, 0
14, 73732, Note_on_c, 3, 66, 0
14, 73734, Note_on_c, 3, 59, 0
14, 73790, Note_on_c, 3, 68, 65
14, 73793, Note_on_c, 3, 65, 58
14, 73798, Note_on_c, 3, 61, 50
14, 74704, Note_on_c, 3, 68, 0
14, 74705, Note_on_c, 3, 65, 0
14, 74705, Note_on_c, 3, 61, 0
14, 74760, Note_on_c, 3, 65, 62
14, 74762, Note_on_c, 3, 68, 63
14, 74765, Note_on_c, 3, 61, 50
14, 75709, Note_on_c, 3, 65, 0
14, 75709, Note_on_c, 3, 68, 0
14, 75711, Note_on_c, 3, 61, 0
14, 78830, Note_on_c, 3, 97, 127
14, 78837, Note_on_c, 3, 92, 127
14, 78870, Note_on_c, 3, 89, 127
14, 78893, Note_on_c, 3, 85, 127
14, 78904, Control_c, 3, 11, 80
14, 78932, Note_on_c, 3, 84, 127
14, 78982, Control_c, 3, 11, 127
14, 79059, Control_c, 3, 11, 80
14, 79135, Control_c, 3, 11, 127
14, 79213, Control_c, 3, 11, 80
14, 79292, Control_c, 3, 11, 127
14, 79369, Control_c, 3, 11, 80
14, 79447, Control_c, 3, 11, 127
14, 79524, Control_c, 3, 11, 80
14, 79600, Control_c, 3, 11, 127
14, 79678, Control_c, 3, 11, 80
14, 79757, Control_c, 3, 11, 127
14, 79833, Control_c, 3, 11, 80
14, 79913, Control_c, 3, 11, 127
14, 79955, Note_on_c, 3, 85, 0
14, 79958, Note_on_c, 3, 89, 0
14, 79960, Note_on_c, 3, 97, 0
14, 79960, Note_on_c, 3, 92, 0
14, 79962, Note_on_c, 3, 84, 0
14, 79989, Control_c, 3, 11, 80
14, 80066, Control_c, 3, 11, 127
14, 80144, Control_c, 3, 11, 80
14, 80221, Control_c, 3, 11, 127
14, 80221, End_track
15, 0, Start_track
15, 0, Title_t, "drums"
15, 0, MIDI_port, 0
15, 0, Program_c, 9, 0
15, 1, Control_c, 9, 7, 127
15, 2, Control_c, 9, 91, 63
15, 11, Control_c, 9, 10, 64
15, 480, Note_on_c, 9, 40, 127
15, 489, Note_on_c, 9, 40, 0
15, 560, Note_on_c, 9, 49, 100
15, 560, Note_on_c, 9, 36, 85
15, 569, Note_on_c, 9, 49, 0
15, 569, Note_on_c, 9, 36, 0
15, 720, Note_on_c, 9, 36, 82
15, 720, Note_on_c, 9, 57, 90
15, 729, Note_on_c, 9, 36, 0
15, 729, Note_on_c, 9, 57, 0
15, 880, Note_on_c, 9, 40, 77
15, 889, Note_on_c, 9, 40, 0
15, 960, Note_on_c, 9, 57, 100
15, 960, Note_on_c, 9, 36, 82
15, 969, Note_on_c, 9, 57, 0
15, 969, Note_on_c, 9, 36, 0
15, 1160, Note_on_c, 9, 36, 74
15, 1160, Note_on_c, 9, 49, 122
15, 1169, Note_on_c, 9, 36, 0
15, 1169, Note_on_c, 9, 49, 0
15, 1240, Note_on_c, 9, 40, 57
15, 1249, Note_on_c, 9, 40, 0
15, 1280, Note_on_c, 9, 40, 71
15, 1289, Note_on_c, 9, 40, 0
15, 1320, Note_on_c, 9, 36, 88
15, 1320, Note_on_c, 9, 49, 127
15, 1329, Note_on_c, 9, 36, 0
15, 1329, Note_on_c, 9, 49, 0
15, 1520, Note_on_c, 9, 40, 55
15, 1529, Note_on_c, 9, 40, 0
15, 1560, Note_on_c, 9, 40, 60
15, 1569, Note_on_c, 9, 40, 0
15, 1600, Note_on_c, 9, 40, 80
15, 1609, Note_on_c, 9, 40, 0
15, 1640, Note_on_c, 9, 40, 103
15, 1649, Note_on_c, 9, 40, 0
15, 1680, Note_on_c, 9, 40, 113
15, 1689, Note_on_c, 9, 40, 0
15, 1720, Note_on_c, 9, 40, 113
15, 1729, Note_on_c, 9, 40, 0
15, 1760, Note_on_c, 9, 40, 127
15, 1769, Note_on_c, 9, 40, 0
15, 1800, Note_on_c, 9, 40, 127
15, 1809, Note_on_c, 9, 40, 0
15, 1880, Note_on_c, 9, 57, 100
15, 1880, Note_on_c, 9, 40, 127
15, 1880, Note_on_c, 9, 36, 92
15, 1889, Note_on_c, 9, 57, 0
15, 1889, Note_on_c, 9, 40, 0
15, 1889, Note_on_c, 9, 36, 0
15, 2160, Note_on_c, 9, 48, 127
15, 2169, Note_on_c, 9, 48, 0
15, 2240, Note_on_c, 9, 48, 97
15, 2249, Note_on_c, 9, 48, 0
15, 2280, Note_on_c, 9, 45, 127
15, 2289, Note_on_c, 9, 45, 0
15, 2400, Note_on_c, 9, 42, 127
15, 2400, Note_on_c, 9, 36, 71
15, 2409, Note_on_c, 9, 42, 0
15, 2409, Note_on_c, 9, 36, 0
15, 2480, Note_on_c, 9, 42, 31
15, 2489, Note_on_c, 9, 42, 0
15, 2520, Note_on_c, 9, 42, 101
15, 2529, Note_on_c, 9, 42, 0
15, 2600, Note_on_c, 9, 42, 31
15, 2609, Note_on_c, 9, 42, 0
15, 2640, Note_on_c, 9, 37, 127
15, 2640, Note_on_c, 9, 39, 116
15, 2640, Note_on_c, 9, 42, 121
15, 2649, Note_on_c, 9, 37, 0
15, 2649, Note_on_c, 9, 39, 0
15, 2649, Note_on_c, 9, 42, 0
15, 2720, Note_on_c, 9, 42, 28
15, 2729, Note_on_c, 9, 42, 0
15, 2760, Note_on_c, 9, 42, 127
15, 2769, Note_on_c, 9, 42, 0
15, 2840, Note_on_c, 9, 42, 29
15, 2840, Note_on_c, 9, 36, 67
15, 2849, Note_on_c, 9, 42, 0
15, 2849, Note_on_c, 9, 36, 0
15, 2880, Note_on_c, 9, 42, 127
15, 2889, Note_on_c, 9, 42, 0
15, 2960, Note_on_c, 9, 36, 75
15, 2960, Note_on_c, 9, 42, 31
15, 2969, Note_on_c, 9, 36, 0
15, 2969, Note_on_c, 9, 42, 0
15, 3000, Note_on_c, 9, 42, 103
15, 3009, Note_on_c, 9, 42, 0
15, 3080, Note_on_c, 9, 42, 31
15, 3089, Note_on_c, 9, 42, 0
15, 3120, Note_on_c, 9, 37, 127
15, 3120, Note_on_c, 9, 42, 106
15, 3129, Note_on_c, 9, 37, 0
15, 3129, Note_on_c, 9, 42, 0
15, 3200, Note_on_c, 9, 42, 29
15, 3209, Note_on_c, 9, 42, 0
15, 3240, Note_on_c, 9, 42, 106
15, 3249, Note_on_c, 9, 42, 0
15, 3320, Note_on_c, 9, 42, 25
15, 3329, Note_on_c, 9, 42, 0
15, 3360, Note_on_c, 9, 42, 127
15, 3360, Note_on_c, 9, 36, 69
15, 3369, Note_on_c, 9, 42, 0
15, 3369, Note_on_c, 9, 36, 0
15, 3440, Note_on_c, 9, 42, 30
15, 3449, Note_on_c, 9, 42, 0
15, 3480, Note_on_c, 9, 42, 113
15, 3489, Note_on_c, 9, 42, 0
15, 3560, Note_on_c, 9, 42, 37
15, 3569, Note_on_c, 9, 42, 0
15, 3600, Note_on_c, 9, 37, 127
15, 3600, Note_on_c, 9, 39, 101
15, 3600, Note_on_c, 9, 42, 121
15, 3609, Note_on_c, 9, 37, 0
15, 3609, Note_on_c, 9, 39, 0
15, 3609, Note_on_c, 9, 42, 0
15, 3680, Note_on_c, 9, 42, 36
15, 3689, Note_on_c, 9, 42, 0
15, 3720, Note_on_c, 9, 42, 110
15, 3729, Note_on_c, 9, 42, 0
15, 3800, Note_on_c, 9, 36, 67
15, 3800, Note_on_c, 9, 42, 38
15, 3809, Note_on_c, 9, 36, 0
15, 3809, Note_on_c, 9, 42, 0
15, 3840, Note_on_c, 9, 42, 121
15, 3849, Note_on_c, 9, 42, 0
15, 3920, Note_on_c, 9, 36, 69
15, 3920, Note_on_c, 9, 42, 41
15, 3929, Note_on_c, 9, 36, 0
15, 3929, Note_on_c, 9, 42, 0
15, 3960, Note_on_c, 9, 42, 116
15, 3969, Note_on_c, 9, 42, 0
15, 4040, Note_on_c, 9, 42, 33
15, 4049, Note_on_c, 9, 42, 0
15, 4080, Note_on_c, 9, 37, 127
15, 4080, Note_on_c, 9, 42, 94
15, 4089, Note_on_c, 9, 37, 0
15, 4089, Note_on_c, 9, 42, 0
15, 4120, Note_on_c, 9, 42, 85
15, 4129, Note_on_c, 9, 42, 0
15, 4160, Note_on_c, 9, 42, 105
15, 4169, Note_on_c, 9, 42, 0
15, 4200, Note_on_c, 9, 42, 112
15, 4209, Note_on_c, 9, 42, 0
15, 4240, Note_on_c, 9, 42, 94
15, 4249, Note_on_c, 9, 42, 0
15, 4280, Note_on_c, 9, 46, 94
15, 4320, Note_on_c, 9, 36, 64
15, 4329, Note_on_c, 9, 36, 0
15, 4361, Note_on_c, 9, 46, 0
15, 4440, Note_on_c, 9, 42, 95
15, 4449, Note_on_c, 9, 42, 0
15, 4520, Note_on_c, 9, 42, 38
15, 4529, Note_on_c, 9, 42, 0
15, 4560, Note_on_c, 9, 42, 93
15, 4560, Note_on_c, 9, 37, 124
15, 4560, Note_on_c, 9, 39, 127
15, 4569, Note_on_c, 9, 42, 0
15, 4569, Note_on_c, 9, 37, 0
15, 4569, Note_on_c, 9, 39, 0
15, 4640, Note_on_c, 9, 42, 36
15, 4649, Note_on_c, 9, 42, 0
15, 4680, Note_on_c, 9, 42, 99
15, 4689, Note_on_c, 9, 42, 0
15, 4760, Note_on_c, 9, 42, 35
15, 4760, Note_on_c, 9, 36, 66
15, 4769, Note_on_c, 9, 42, 0
15, 4769, Note_on_c, 9, 36, 0
15, 4800, Note_on_c, 9, 42, 99
15, 4809, Note_on_c, 9, 42, 0
15, 4880, Note_on_c, 9, 42, 40
15, 4880, Note_on_c, 9, 36, 67
15, 4889, Note_on_c, 9, 42, 0
15, 4889, Note_on_c, 9, 36, 0
15, 4920, Note_on_c, 9, 42, 92
15, 4929, Note_on_c, 9, 42, 0
15, 5000, Note_on_c, 9, 42, 31
15, 5009, Note_on_c, 9, 42, 0
15, 5040, Note_on_c, 9, 37, 127
15, 5040, Note_on_c, 9, 42, 106
15, 5049, Note_on_c, 9, 37, 0
15, 5049, Note_on_c, 9, 42, 0
15, 5120, Note_on_c, 9, 42, 33
15, 5129, Note_on_c, 9, 42, 0
15, 5160, Note_on_c, 9, 42, 103
15, 5169, Note_on_c, 9, 42, 0
15, 5240, Note_on_c, 9, 42, 30
15, 5249, Note_on_c, 9, 42, 0
15, 5280, Note_on_c, 9, 42, 99
15, 5289, Note_on_c, 9, 42, 0
15, 5360, Note_on_c, 9, 42, 36
15, 5369, Note_on_c, 9, 42, 0
15, 5400, Note_on_c, 9, 42, 103
15, 5400, Note_on_c, 9, 36, 69
15, 5409, Note_on_c, 9, 42, 0
15, 5409, Note_on_c, 9, 36, 0
15, 5480, Note_on_c, 9, 42, 39
15, 5489, Note_on_c, 9, 42, 0
15, 5520, Note_on_c, 9, 39, 106
15, 5520, Note_on_c, 9, 37, 127
15, 5520, Note_on_c, 9, 42, 101
15, 5529, Note_on_c, 9, 39, 0
15, 5529, Note_on_c, 9, 37, 0
15, 5529, Note_on_c, 9, 42, 0
15, 5600, Note_on_c, 9, 42, 34
15, 5600, Note_on_c, 9, 36, 72
15, 5609, Note_on_c, 9, 42, 0
15, 5609, Note_on_c, 9, 36, 0
15, 5640, Note_on_c, 9, 42, 90
15, 5649, Note_on_c, 9, 42, 0
15, 5720, Note_on_c, 9, 42, 36
15, 5729, Note_on_c, 9, 42, 0
15, 5760, Note_on_c, 9, 42, 99
15, 5760, Note_on_c, 9, 36, 77
15, 5769, Note_on_c, 9, 42, 0
15, 5769, Note_on_c, 9, 36, 0
15, 6240, Note_on_c, 9, 36, 71
15, 6240, Note_on_c, 9, 42, 127
15, 6249, Note_on_c, 9, 36, 0
15, 6249, Note_on_c, 9, 42, 0
15, 6320, Note_on_c, 9, 42, 31
15, 6329, Note_on_c, 9, 42, 0
15, 6360, Note_on_c, 9, 42, 101
15, 6369, Note_on_c, 9, 42, 0
15, 6440, Note_on_c, 9, 42, 31
15, 6449, Note_on_c, 9, 42, 0
15, 6480, Note_on_c, 9, 39, 116
15, 6480, Note_on_c, 9, 37, 127
15, 6480, Note_on_c, 9, 42, 121
15, 6489, Note_on_c, 9, 39, 0
15, 6489, Note_on_c, 9, 37, 0
15, 6489, Note_on_c, 9, 42, 0
15, 6560, Note_on_c, 9, 42, 28
15, 6569, Note_on_c, 9, 42, 0
15, 6600, Note_on_c, 9, 42, 127
15, 6609, Note_on_c, 9, 42, 0
15, 6680, Note_on_c, 9, 42, 29
15, 6680, Note_on_c, 9, 36, 67
15, 6689, Note_on_c, 9, 42, 0
15, 6689, Note_on_c, 9, 36, 0
15, 6720, Note_on_c, 9, 42, 127
15, 6729, Note_on_c, 9, 42, 0
15, 6800, Note_on_c, 9, 42, 31
15, 6800, Note_on_c, 9, 36, 75
15, 6809, Note_on_c, 9, 42, 0
15, 6809, Note_on_c, 9, 36, 0
15, 6840, Note_on_c, 9, 42, 103
15, 6849, Note_on_c, 9, 42, 0
15, 6920, Note_on_c, 9, 42, 31
15, 6929, Note_on_c, 9, 42, 0
15, 6960, Note_on_c, 9, 42, 106
15, 6960, Note_on_c, 9, 37, 127
15, 6969, Note_on_c, 9, 42, 0
15, 6969, Note_on_c, 9, 37, 0
15, 7040, Note_on_c, 9, 42, 29
15, 7049, Note_on_c, 9, 42, 0
15, 7080, Note_on_c, 9, 42, 106
15, 7089, Note_on_c, 9, 42, 0
15, 7160, Note_on_c, 9, 42, 25
15, 7169, Note_on_c, 9, 42, 0
15, 7200, Note_on_c, 9, 42, 127
15, 7200, Note_on_c, 9, 36, 69
15, 7209, Note_on_c, 9, 42, 0
15, 7209, Note_on_c, 9, 36, 0
15, 7280, Note_on_c, 9, 42, 30
15, 7289, Note_on_c, 9, 42, 0
15, 7320, Note_on_c, 9, 42, 113
15, 7329, Note_on_c, 9, 42, 0
15, 7400, Note_on_c, 9, 42, 37
15, 7409, Note_on_c, 9, 42, 0
15, 7440, Note_on_c, 9, 39, 101
15, 7440, Note_on_c, 9, 42, 121
15, 7440, Note_on_c, 9, 37, 127
15, 7449, Note_on_c, 9, 39, 0
15, 7449, Note_on_c, 9, 42, 0
15, 7449, Note_on_c, 9, 37, 0
15, 7520, Note_on_c, 9, 42, 36
15, 7529, Note_on_c, 9, 42, 0
15, 7560, Note_on_c, 9, 42, 110
15, 7569, Note_on_c, 9, 42, 0
15, 7640, Note_on_c, 9, 36, 67
15, 7640, Note_on_c, 9, 42, 38
15, 7649, Note_on_c, 9, 36, 0
15, 7649, Note_on_c, 9, 42, 0
15, 7680, Note_on_c, 9, 42, 121
15, 7689, Note_on_c, 9, 42, 0
15, 7760, Note_on_c, 9, 42, 41
15, 7760, Note_on_c, 9, 36, 69
15, 7769, Note_on_c, 9, 42, 0
15, 7769, Note_on_c, 9, 36, 0
15, 7800, Note_on_c, 9, 42, 116
15, 7809, Note_on_c, 9, 42, 0
15, 7880, Note_on_c, 9, 42, 33
15, 7889, Note_on_c, 9, 42, 0
15, 7920, Note_on_c, 9, 37, 127
15, 7920, Note_on_c, 9, 42, 94
15, 7929, Note_on_c, 9, 37, 0
15, 7929, Note_on_c, 9, 42, 0
15, 7960, Note_on_c, 9, 42, 85
15, 7969, Note_on_c, 9, 42, 0
15, 8000, Note_on_c, 9, 42, 105
15, 8009, Note_on_c, 9, 42, 0
15, 8040, Note_on_c, 9, 42, 112
15, 8049, Note_on_c, 9, 42, 0
15, 8080, Note_on_c, 9, 42, 94
15, 8089, Note_on_c, 9, 42, 0
15, 8120, Note_on_c, 9, 46, 94
15, 8160, Note_on_c, 9, 36, 64
15, 8169, Note_on_c, 9, 36, 0
15, 8201, Note_on_c, 9, 46, 0
15, 8280, Note_on_c, 9, 42, 95
15, 8289, Note_on_c, 9, 42, 0
15, 8360, Note_on_c, 9, 42, 38
15, 8369, Note_on_c, 9, 42, 0
15, 8400, Note_on_c, 9, 37, 124
15, 8400, Note_on_c, 9, 39, 127
15, 8400, Note_on_c, 9, 42, 93
15, 8409, Note_on_c, 9, 37, 0
15, 8409, Note_on_c, 9, 39, 0
15, 8409, Note_on_c, 9, 42, 0
15, 8480, Note_on_c, 9, 42, 36
15, 8489, Note_on_c, 9, 42, 0
15, 8520, Note_on_c, 9, 42, 99
15, 8529, Note_on_c, 9, 42, 0
15, 8600, Note_on_c, 9, 36, 66
15, 8600, Note_on_c, 9, 42, 35
15, 8609, Note_on_c, 9, 36, 0
15, 8609, Note_on_c, 9, 42, 0
15, 8640, Note_on_c, 9, 42, 99
15, 8649, Note_on_c, 9, 42, 0
15, 8720, Note_on_c, 9, 36, 67
15, 8720, Note_on_c, 9, 42, 40
15, 8729, Note_on_c, 9, 36, 0
15, 8729, Note_on_c, 9, 42, 0
15, 8760, Note_on_c, 9, 42, 92
15, 8769, Note_on_c, 9, 42, 0
15, 8840, Note_on_c, 9, 42, 31
15, 8849, Note_on_c, 9, 42, 0
15, 8880, Note_on_c, 9, 42, 106
15, 8880, Note_on_c, 9, 37, 127
15, 8889, Note_on_c, 9, 42, 0
15, 8889, Note_on_c, 9, 37, 0
15, 8960, Note_on_c, 9, 42, 33
15, 8969, Note_on_c, 9, 42, 0
15, 9000, Note_on_c, 9, 42, 103
15, 9009, Note_on_c, 9, 42, 0
15, 9080, Note_on_c, 9, 42, 30
15, 9089, Note_on_c, 9, 42, 0
15, 9120, Note_on_c, 9, 42, 99
15, 9129, Note_on_c, 9, 42, 0
15, 9200, Note_on_c, 9, 42, 36
15, 9209, Note_on_c, 9, 42, 0
15, 9240, Note_on_c, 9, 42, 103
15, 9240, Note_on_c, 9, 36, 69
15, 9249, Note_on_c, 9, 42, 0
15, 9249, Note_on_c, 9, 36, 0
15, 9320, Note_on_c, 9, 42, 39
15, 9329, Note_on_c, 9, 42, 0
15, 9360, Note_on_c, 9, 42, 101
15, 9360, Note_on_c, 9, 39, 106
15, 9360, Note_on_c, 9, 37, 127
15, 9369, Note_on_c, 9, 42, 0
15, 9369, Note_on_c, 9, 39, 0
15, 9369, Note_on_c, 9, 37, 0
15, 9440, Note_on_c, 9, 42, 34
15, 9440, Note_on_c, 9, 36, 72
15, 9449, Note_on_c, 9, 42, 0
15, 9449, Note_on_c, 9, 36, 0
15, 9480, Note_on_c, 9, 42, 90
15, 9489, Note_on_c, 9, 42, 0
15, 9560, Note_on_c, 9, 42, 36
15, 9569, Note_on_c, 9, 42, 0
15, 9600, Note_on_c, 9, 42, 99
15, 9600, Note_on_c, 9, 36, 77
15, 9609, Note_on_c, 9, 42, 0
15, 9609, Note_on_c, 9, 36, 0
15, 9680, Note_on_c, 9, 42, 36
15, 9689, Note_on_c, 9, 42, 0
15, 9720, Note_on_c, 9, 42, 103
15, 9729, Note_on_c, 9, 42, 0
15, 9800, Note_on_c, 9, 42, 39
15, 9809, Note_on_c, 9, 42, 0
15, 9840, Note_on_c, 9, 42, 101
15, 9840, Note_on_c, 9, 37, 127
15, 9849, Note_on_c, 9, 42, 0
15, 9849, Note_on_c, 9, 37, 0
15, 9920, Note_on_c, 9, 42, 34
15, 9929, Note_on_c, 9, 42, 0
15, 9960, Note_on_c, 9, 42, 90
15, 9969, Note_on_c, 9, 42, 0
15, 10040, Note_on_c, 9, 42, 36
15, 10049, Note_on_c, 9, 42, 0
15, 10080, Note_on_c, 9, 42, 127
15, 10080, Note_on_c, 9, 36, 71
15, 10089, Note_on_c, 9, 42, 0
15, 10089, Note_on_c, 9, 36, 0
15, 10160, Note_on_c, 9, 42, 31
15, 10169, Note_on_c, 9, 42, 0
15, 10200, Note_on_c, 9, 42, 101
15, 10209, Note_on_c, 9, 42, 0
15, 10280, Note_on_c, 9, 42, 31
15, 10289, Note_on_c, 9, 42, 0
15, 10320, Note_on_c, 9, 37, 127
15, 10320, Note_on_c, 9, 39, 116
15, 10320, Note_on_c, 9, 42, 121
15, 10329, Note_on_c, 9, 37, 0
15, 10329, Note_on_c, 9, 39, 0
15, 10329, Note_on_c, 9, 42, 0
15, 10400, Note_on_c, 9, 42, 28
15, 10409, Note_on_c, 9, 42, 0
15, 10440, Note_on_c, 9, 42, 127
15, 10449, Note_on_c, 9, 42, 0
15, 10520, Note_on_c, 9, 42, 29
15, 10520, Note_on_c, 9, 36, 67
15, 10529, Note_on_c, 9, 42, 0
15, 10529, Note_on_c, 9, 36, 0
15, 10560, Note_on_c, 9, 42, 127
15, 10569, Note_on_c, 9, 42, 0
15, 10640, Note_on_c, 9, 42, 31
15, 10640, Note_on_c, 9, 36, 75
15, 10649, Note_on_c, 9, 42, 0
15, 10649, Note_on_c, 9, 36, 0
15, 10680, Note_on_c, 9, 42, 103
15, 10689, Note_on_c, 9, 42, 0
15, 10760, Note_on_c, 9, 42, 31
15, 10769, Note_on_c, 9, 42, 0
15, 10800, Note_on_c, 9, 42, 106
15, 10800, Note_on_c, 9, 37, 127
15, 10809, Note_on_c, 9, 42, 0
15, 10809, Note_on_c, 9, 37, 0
15, 10880, Note_on_c, 9, 42, 29
15, 10889, Note_on_c, 9, 42, 0
15, 10920, Note_on_c, 9, 42, 106
15, 10929, Note_on_c, 9, 42, 0
15, 11000, Note_on_c, 9, 42, 25
15, 11009, Note_on_c, 9, 42, 0
15, 11040, Note_on_c, 9, 36, 69
15, 11040, Note_on_c, 9, 42, 127
15, 11049, Note_on_c, 9, 36, 0
15, 11049, Note_on_c, 9, 42, 0
15, 11120, Note_on_c, 9, 42, 30
15, 11129, Note_on_c, 9, 42, 0
15, 11160, Note_on_c, 9, 42, 113
15, 11169, Note_on_c, 9, 42, 0
15, 11240, Note_on_c, 9, 42, 37
15, 11249, Note_on_c, 9, 42, 0
15, 11280, Note_on_c, 9, 42, 121
15, 11280, Note_on_c, 9, 39, 101
15, 11280, Note_on_c, 9, 37, 127
15, 11289, Note_on_c, 9, 42, 0
15, 11289, Note_on_c, 9, 39, 0
15, 11289, Note_on_c, 9, 37, 0
15, 11360, Note_on_c, 9, 42, 36
15, 11369, Note_on_c, 9, 42, 0
15, 11400, Note_on_c, 9, 42, 110
15, 11409, Note_on_c, 9, 42, 0
15, 11480, Note_on_c, 9, 42, 38
15, 11480, Note_on_c, 9, 36, 67
15, 11489, Note_on_c, 9, 42, 0
15, 11489, Note_on_c, 9, 36, 0
15, 11520, Note_on_c, 9, 42, 121
15, 11529, Note_on_c, 9, 42, 0
15, 11600, Note_on_c, 9, 42, 41
15, 11600, Note_on_c, 9, 36, 69
15, 11609, Note_on_c, 9, 42, 0
15, 11609, Note_on_c, 9, 36, 0
15, 11640, Note_on_c, 9, 42, 116
15, 11649, Note_on_c, 9, 42, 0
15, 11720, Note_on_c, 9, 42, 33
15, 11729, Note_on_c, 9, 42, 0
15, 11760, Note_on_c, 9, 42, 94
15, 11760, Note_on_c, 9, 37, 127
15, 11769, Note_on_c, 9, 42, 0
15, 11769, Note_on_c, 9, 37, 0
15, 11800, Note_on_c, 9, 42, 85
15, 11809, Note_on_c, 9, 42, 0
15, 11840, Note_on_c, 9, 42, 105
15, 11849, Note_on_c, 9, 42, 0
15, 11880, Note_on_c, 9, 42, 112
15, 11889, Note_on_c, 9, 42, 0
15, 11920, Note_on_c, 9, 42, 94
15, 11929, Note_on_c, 9, 42, 0
15, 11960, Note_on_c, 9, 46, 94
15, 12000, Note_on_c, 9, 36, 64
15, 12009, Note_on_c, 9, 36, 0
15, 12041, Note_on_c, 9, 46, 0
15, 12120, Note_on_c, 9, 42, 95
15, 12129, Note_on_c, 9, 42, 0
15, 12200, Note_on_c, 9, 42, 38
15, 12209, Note_on_c, 9, 42, 0
15, 12240, Note_on_c, 9, 39, 127
15, 12240, Note_on_c, 9, 37, 124
15, 12240, Note_on_c, 9, 42, 93
15, 12249, Note_on_c, 9, 39, 0
15, 12249, Note_on_c, 9, 37, 0
15, 12249, Note_on_c, 9, 42, 0
15, 12320, Note_on_c, 9, 42, 36
15, 12329, Note_on_c, 9, 42, 0
15, 12360, Note_on_c, 9, 42, 99
15, 12369, Note_on_c, 9, 42, 0
15, 12440, Note_on_c, 9, 36, 66
15, 12440, Note_on_c, 9, 42, 35
15, 12449, Note_on_c, 9, 36, 0
15, 12449, Note_on_c, 9, 42, 0
15, 12480, Note_on_c, 9, 42, 99
15, 12489, Note_on_c, 9, 42, 0
15, 12560, Note_on_c, 9, 36, 67
15, 12560, Note_on_c, 9, 42, 40
15, 12569, Note_on_c, 9, 36, 0
15, 12569, Note_on_c, 9, 42, 0
15, 12600, Note_on_c, 9, 42, 92
15, 12609, Note_on_c, 9, 42, 0
15, 12680, Note_on_c, 9, 42, 31
15, 12689, Note_on_c, 9, 42, 0
15, 12720, Note_on_c, 9, 42, 106
15, 12720, Note_on_c, 9, 37, 127
15, 12729, Note_on_c, 9, 42, 0
15, 12729, Note_on_c, 9, 37, 0
15, 12800, Note_on_c, 9, 42, 33
15, 12809, Note_on_c, 9, 42, 0
15, 12840, Note_on_c, 9, 42, 103
15, 12849, Note_on_c, 9, 42, 0
15, 12920, Note_on_c, 9, 42, 30
15, 12929, Note_on_c, 9, 42, 0
15, 12960, Note_on_c, 9, 42, 99
15, 12969, Note_on_c, 9, 42, 0
15, 13040, Note_on_c, 9, 42, 36
15, 13049, Note_on_c, 9, 42, 0
15, 13080, Note_on_c, 9, 42, 103
15, 13080, Note_on_c, 9, 36, 69
15, 13089, Note_on_c, 9, 42, 0
15, 13089, Note_on_c, 9, 36, 0
15, 13160, Note_on_c, 9, 42, 39
15, 13169, Note_on_c, 9, 42, 0
15, 13200, Note_on_c, 9, 42, 101
15, 13200, Note_on_c, 9, 39, 106
15, 13200, Note_on_c, 9, 37, 127
15, 13209, Note_on_c, 9, 42, 0
15, 13209, Note_on_c, 9, 39, 0
15, 13209, Note_on_c, 9, 37, 0
15, 13280, Note_on_c, 9, 42, 34
15, 13280, Note_on_c, 9, 36, 72
15, 13289, Note_on_c, 9, 42, 0
15, 13289, Note_on_c, 9, 36, 0
15, 13320, Note_on_c, 9, 42, 90
15, 13329, Note_on_c, 9, 42, 0
15, 13400, Note_on_c, 9, 42, 36
15, 13409, Note_on_c, 9, 42, 0
15, 13440, Note_on_c, 9, 42, 99
15, 13440, Note_on_c, 9, 36, 77
15, 13449, Note_on_c, 9, 42, 0
15, 13449, Note_on_c, 9, 36, 0
15, 13520, Note_on_c, 9, 42, 36
15, 13529, Note_on_c, 9, 42, 0
15, 13560, Note_on_c, 9, 42, 103
15, 13569, Note_on_c, 9, 42, 0
15, 13640, Note_on_c, 9, 42, 39
15, 13649, Note_on_c, 9, 42, 0
15, 13680, Note_on_c, 9, 37, 106
15, 13680, Note_on_c, 9, 42, 101
15, 13689, Note_on_c, 9, 37, 0
15, 13689, Note_on_c, 9, 42, 0
15, 13760, Note_on_c, 9, 42, 34
15, 13769, Note_on_c, 9, 42, 0
15, 13800, Note_on_c, 9, 42, 90
15, 13809, Note_on_c, 9, 42, 0
15, 13880, Note_on_c, 9, 42, 36
15, 13889, Note_on_c, 9, 42, 0
15, 13920, Note_on_c, 9, 49, 106
15, 13920, Note_on_c, 9, 36, 94
15, 13929, Note_on_c, 9, 49, 0
15, 13929, Note_on_c, 9, 36, 0
15, 14040, Note_on_c, 9, 63, 85
15, 14049, Note_on_c, 9, 63, 0
15, 14120, Note_on_c, 9, 63, 85
15, 14120, Note_on_c, 9, 36, 32
15, 14129, Note_on_c, 9, 63, 0
15, 14129, Note_on_c, 9, 36, 0
15, 14160, Note_on_c, 9, 40, 127
15, 14169, Note_on_c, 9, 40, 0
15, 14280, Note_on_c, 9, 64, 94
15, 14289, Note_on_c, 9, 64, 0
15, 14360, Note_on_c, 9, 36, 51
15, 14369, Note_on_c, 9, 36, 0
15, 14480, Note_on_c, 9, 36, 59
15, 14489, Note_on_c, 9, 36, 0
15, 14520, Note_on_c, 9, 63, 80
15, 14529, Note_on_c, 9, 63, 0
15, 14600, Note_on_c, 9, 36, 42
15, 14600, Note_on_c, 9, 63, 94
15, 14609, Note_on_c, 9, 36, 0
15, 14609, Note_on_c, 9, 63, 0
15, 14640, Note_on_c, 9, 40, 99
15, 14649, Note_on_c, 9, 40, 0
15, 14680, Note_on_c, 9, 40, 99
15, 14689, Note_on_c, 9, 40, 0
15, 14720, Note_on_c, 9, 36, 48
15, 14720, Note_on_c, 9, 62, 77
15, 14729, Note_on_c, 9, 36, 0
15, 14729, Note_on_c, 9, 62, 0
15, 14760, Note_on_c, 9, 64, 110
15, 14760, Note_on_c, 9, 40, 94
15, 14769, Note_on_c, 9, 64, 0
15, 14769, Note_on_c, 9, 40, 0
15, 14800, Note_on_c, 9, 40, 73
15, 14809, Note_on_c, 9, 40, 0
15, 14840, Note_on_c, 9, 36, 68
15, 14849, Note_on_c, 9, 36, 0
15, 14880, Note_on_c, 9, 49, 110
15, 14880, Note_on_c, 9, 36, 66
15, 14889, Note_on_c, 9, 49, 0
15, 14889, Note_on_c, 9, 36, 0
15, 15000, Note_on_c, 9, 63, 92
15, 15009, Note_on_c, 9, 63, 0
15, 15080, Note_on_c, 9, 36, 59
15, 15080, Note_on_c, 9, 63, 87
15, 15089, Note_on_c, 9, 36, 0
15, 15089, Note_on_c, 9, 63, 0
15, 15160, Note_on_c, 9, 40, 43
15, 15169, Note_on_c, 9, 40, 0
15, 15200, Note_on_c, 9, 40, 68
15, 15209, Note_on_c, 9, 40, 0
15, 15240, Note_on_c, 9, 64, 90
15, 15240, Note_on_c, 9, 40, 99
15, 15249, Note_on_c, 9, 64, 0
15, 15249, Note_on_c, 9, 40, 0
15, 15320, Note_on_c, 9, 57, 92
15, 15320, Note_on_c, 9, 36, 100
15, 15329, Note_on_c, 9, 57, 0
15, 15329, Note_on_c, 9, 36, 0
15, 15480, Note_on_c, 9, 63, 97
15, 15489, Note_on_c, 9, 63, 0
15, 15560, Note_on_c, 9, 63, 80
15, 15560, Note_on_c, 9, 40, 90
15, 15569, Note_on_c, 9, 63, 0
15, 15569, Note_on_c, 9, 40, 0
15, 15600, Note_on_c, 9, 48, 106
15, 15609, Note_on_c, 9, 48, 0
15, 15680, Note_on_c, 9, 45, 97
15, 15680, Note_on_c, 9, 62, 68
15, 15689, Note_on_c, 9, 45, 0
15, 15689, Note_on_c, 9, 62, 0
15, 15720, Note_on_c, 9, 64, 103
15, 15729, Note_on_c, 9, 64, 0
15, 15800, Note_on_c, 9, 45, 52
15, 15809, Note_on_c, 9, 45, 0
15, 15840, Note_on_c, 9, 40, 107
15, 15849, Note_on_c, 9, 40, 0
15, 15880, Note_on_c, 9, 36, 38
15, 15889, Note_on_c, 9, 36, 0
15, 15960, Note_on_c, 9, 63, 87
15, 15960, Note_on_c, 9, 40, 104
15, 15969, Note_on_c, 9, 63, 0
15, 15969, Note_on_c, 9, 40, 0
15, 16040, Note_on_c, 9, 63, 73
15, 16049, Note_on_c, 9, 63, 0
15, 16080, Note_on_c, 9, 40, 73
15, 16089, Note_on_c, 9, 40, 0
15, 16120, Note_on_c, 9, 36, 36
15, 16129, Note_on_c, 9, 36, 0
15, 16160, Note_on_c, 9, 36, 44
15, 16169, Note_on_c, 9, 36, 0
15, 16200, Note_on_c, 9, 64, 87
15, 16200, Note_on_c, 9, 40, 69
15, 16209, Note_on_c, 9, 64, 0
15, 16209, Note_on_c, 9, 40, 0
15, 16280, Note_on_c, 9, 49, 118
15, 16280, Note_on_c, 9, 36, 84
15, 16289, Note_on_c, 9, 49, 0
15, 16289, Note_on_c, 9, 36, 0
15, 16440, Note_on_c, 9, 63, 87
15, 16440, Note_on_c, 9, 40, 55
15, 16449, Note_on_c, 9, 63, 0
15, 16449, Note_on_c, 9, 40, 0
15, 16520, Note_on_c, 9, 40, 127
15, 16520, Note_on_c, 9, 63, 80
15, 16529, Note_on_c, 9, 40, 0
15, 16529, Note_on_c, 9, 63, 0
15, 16640, Note_on_c, 9, 62, 56
15, 16640, Note_on_c, 9, 47, 49
15, 16649, Note_on_c, 9, 62, 0
15, 16649, Note_on_c, 9, 47, 0
15, 16680, Note_on_c, 9, 64, 82
15, 16680, Note_on_c, 9, 47, 80
15, 16689, Note_on_c, 9, 64, 0
15, 16689, Note_on_c, 9, 47, 0
15, 16760, Note_on_c, 9, 64, 72
15, 16769, Note_on_c, 9, 64, 0
15, 16800, Note_on_c, 9, 40, 127
15, 16809, Note_on_c, 9, 40, 0
15, 16880, Note_on_c, 9, 36, 122
15, 16880, Note_on_c, 9, 49, 100
15, 16889, Note_on_c, 9, 36, 0
15, 16889, Note_on_c, 9, 49, 0
15, 17040, Note_on_c, 9, 57, 90
15, 17040, Note_on_c, 9, 36, 118
15, 17049, Note_on_c, 9, 57, 0
15, 17049, Note_on_c, 9, 36, 0
15, 17200, Note_on_c, 9, 40, 77
15, 17209, Note_on_c, 9, 40, 0
15, 17280, Note_on_c, 9, 57, 100
15, 17280, Note_on_c, 9, 36, 118
15, 17289, Note_on_c, 9, 57, 0
15, 17289, Note_on_c, 9, 36, 0
15, 17480, Note_on_c, 9, 49, 122
15, 17480, Note_on_c, 9, 36, 106
15, 17489, Note_on_c, 9, 49, 0
15, 17489, Note_on_c, 9, 36, 0
15, 17560, Note_on_c, 9, 40, 57
15, 17569, Note_on_c, 9, 40, 0
15, 17600, Note_on_c, 9, 40, 71
15, 17609, Note_on_c, 9, 40, 0
15, 17640, Note_on_c, 9, 36, 127
15, 17640, Note_on_c, 9, 49, 127
15, 17649, Note_on_c, 9, 36, 0
15, 17649, Note_on_c, 9, 49, 0
15, 17840, Note_on_c, 9, 40, 55
15, 17849, Note_on_c, 9, 40, 0
15, 17880, Note_on_c, 9, 40, 60
15, 17889, Note_on_c, 9, 40, 0
15, 17920, Note_on_c, 9, 40, 80
15, 17929, Note_on_c, 9, 40, 0
15, 17960, Note_on_c, 9, 40, 103
15, 17969, Note_on_c, 9, 40, 0
15, 18000, Note_on_c, 9, 40, 113
15, 18009, Note_on_c, 9, 40, 0
15, 18040, Note_on_c, 9, 40, 113
15, 18049, Note_on_c, 9, 40, 0
15, 18080, Note_on_c, 9, 40, 127
15, 18089, Note_on_c, 9, 40, 0
15, 18120, Note_on_c, 9, 40, 127
15, 18129, Note_on_c, 9, 40, 0
15, 18200, Note_on_c, 9, 57, 100
15, 18200, Note_on_c, 9, 36, 92
15, 18200, Note_on_c, 9, 40, 127
15, 18209, Note_on_c, 9, 57, 0
15, 18209, Note_on_c, 9, 36, 0
15, 18209, Note_on_c, 9, 40, 0
15, 18480, Note_on_c, 9, 48, 127
15, 18489, Note_on_c, 9, 48, 0
15, 18560, Note_on_c, 9, 48, 97
15, 18569, Note_on_c, 9, 48, 0
15, 18600, Note_on_c, 9, 45, 127
15, 18609, Note_on_c, 9, 45, 0
15, 18720, Note_on_c, 9, 36, 71
15, 18720, Note_on_c, 9, 42, 127
15, 18729, Note_on_c, 9, 36, 0
15, 18729, Note_on_c, 9, 42, 0
15, 18800, Note_on_c, 9, 42, 31
15, 18809, Note_on_c, 9, 42, 0
15, 18840, Note_on_c, 9, 42, 101
15, 18849, Note_on_c, 9, 42, 0
15, 18920, Note_on_c, 9, 42, 31
15, 18929, Note_on_c, 9, 42, 0
15, 18960, Note_on_c, 9, 37, 127
15, 18960, Note_on_c, 9, 42, 121
15, 18960, Note_on_c, 9, 39, 116
15, 18969, Note_on_c, 9, 37, 0
15, 18969, Note_on_c, 9, 42, 0
15, 18969, Note_on_c, 9, 39, 0
15, 19040, Note_on_c, 9, 42, 28
15, 19049, Note_on_c, 9, 42, 0
15, 19080, Note_on_c, 9, 42, 127
15, 19089, Note_on_c, 9, 42, 0
15, 19160, Note_on_c, 9, 42, 29
15, 19160, Note_on_c, 9, 36, 67
15, 19169, Note_on_c, 9, 42, 0
15, 19169, Note_on_c, 9, 36, 0
15, 19200, Note_on_c, 9, 42, 127
15, 19209, Note_on_c, 9, 42, 0
15, 19280, Note_on_c, 9, 36, 75
15, 19280, Note_on_c, 9, 42, 31
15, 19289, Note_on_c, 9, 36, 0
15, 19289, Note_on_c, 9, 42, 0
15, 19320, Note_on_c, 9, 42, 103
15, 19329, Note_on_c, 9, 42, 0
15, 19400, Note_on_c, 9, 42, 31
15, 19409, Note_on_c, 9, 42, 0
15, 19440, Note_on_c, 9, 37, 127
15, 19440, Note_on_c, 9, 42, 106
15, 19449, Note_on_c, 9, 37, 0
15, 19449, Note_on_c, 9, 42, 0
15, 19520, Note_on_c, 9, 42, 29
15, 19529, Note_on_c, 9, 42, 0
15, 19560, Note_on_c, 9, 42, 106
15, 19569, Note_on_c, 9, 42, 0
15, 19640, Note_on_c, 9, 42, 25
15, 19649, Note_on_c, 9, 42, 0
15, 19680, Note_on_c, 9, 42, 99
15, 19689, Note_on_c, 9, 42, 0
15, 19760, Note_on_c, 9, 42, 36
15, 19769, Note_on_c, 9, 42, 0
15, 19800, Note_on_c, 9, 36, 69
15, 19800, Note_on_c, 9, 42, 103
15, 19809, Note_on_c, 9, 36, 0
15, 19809, Note_on_c, 9, 42, 0
15, 19880, Note_on_c, 9, 42, 39
15, 19889, Note_on_c, 9, 42, 0
15, 19920, Note_on_c, 9, 42, 101
15, 19920, Note_on_c, 9, 39, 106
15, 19920, Note_on_c, 9, 37, 127
15, 19929, Note_on_c, 9, 42, 0
15, 19929, Note_on_c, 9, 39, 0
15, 19929, Note_on_c, 9, 37, 0
15, 20000, Note_on_c, 9, 42, 34
15, 20000, Note_on_c, 9, 36, 72
15, 20009, Note_on_c, 9, 42, 0
15, 20009, Note_on_c, 9, 36, 0
15, 20040, Note_on_c, 9, 42, 90
15, 20049, Note_on_c, 9, 42, 0
15, 20120, Note_on_c, 9, 42, 36
15, 20129, Note_on_c, 9, 42, 0
15, 20160, Note_on_c, 9, 36, 77
15, 20160, Note_on_c, 9, 42, 99
15, 20169, Note_on_c, 9, 36, 0
15, 20169, Note_on_c, 9, 42, 0
15, 21000, Note_on_c, 9, 36, 71
15, 21000, Note_on_c, 9, 42, 127
15, 21009, Note_on_c, 9, 36, 0
15, 21009, Note_on_c, 9, 42, 0
15, 21080, Note_on_c, 9, 42, 31
15, 21089, Note_on_c, 9, 42, 0
15, 21120, Note_on_c, 9, 42, 101
15, 21129, Note_on_c, 9, 42, 0
15, 21200, Note_on_c, 9, 42, 31
15, 21209, Note_on_c, 9, 42, 0
15, 21240, Note_on_c, 9, 37, 127
15, 21240, Note_on_c, 9, 42, 121
15, 21240, Note_on_c, 9, 39, 116
15, 21249, Note_on_c, 9, 37, 0
15, 21249, Note_on_c, 9, 42, 0
15, 21249, Note_on_c, 9, 39, 0
15, 21320, Note_on_c, 9, 42, 28
15, 21329, Note_on_c, 9, 42, 0
15, 21360, Note_on_c, 9, 42, 127
15, 21369, Note_on_c, 9, 42, 0
15, 21440, Note_on_c, 9, 36, 67
15, 21440, Note_on_c, 9, 42, 29
15, 21449, Note_on_c, 9, 36, 0
15, 21449, Note_on_c, 9, 42, 0
15, 21480, Note_on_c, 9, 42, 127
15, 21489, Note_on_c, 9, 42, 0
15, 21560, Note_on_c, 9, 42, 31
15, 21560, Note_on_c, 9, 36, 75
15, 21569, Note_on_c, 9, 42, 0
15, 21569, Note_on_c, 9, 36, 0
15, 21600, Note_on_c, 9, 42, 103
15, 21609, Note_on_c, 9, 42, 0
15, 21680, Note_on_c, 9, 42, 31
15, 21689, Note_on_c, 9, 42, 0
15, 21720, Note_on_c, 9, 42, 106
15, 21720, Note_on_c, 9, 37, 127
15, 21729, Note_on_c, 9, 42, 0
15, 21729, Note_on_c, 9, 37, 0
15, 21800, Note_on_c, 9, 42, 29
15, 21809, Note_on_c, 9, 42, 0
15, 21840, Note_on_c, 9, 42, 106
15, 21849, Note_on_c, 9, 42, 0
15, 21920, Note_on_c, 9, 42, 25
15, 21929, Note_on_c, 9, 42, 0
15, 21960, Note_on_c, 9, 36, 69
15, 21960, Note_on_c, 9, 42, 127
15, 21969, Note_on_c, 9, 36, 0
15, 21969, Note_on_c, 9, 42, 0
15, 22040, Note_on_c, 9, 42, 30
15, 22049, Note_on_c, 9, 42, 0
15, 22080, Note_on_c, 9, 42, 113
15, 22089, Note_on_c, 9, 42, 0
15, 22160, Note_on_c, 9, 42, 37
15, 22169, Note_on_c, 9, 42, 0
15, 22200, Note_on_c, 9, 42, 121
15, 22200, Note_on_c, 9, 37, 127
15, 22200, Note_on_c, 9, 39, 101
15, 22209, Note_on_c, 9, 42, 0
15, 22209, Note_on_c, 9, 37, 0
15, 22209, Note_on_c, 9, 39, 0
15, 22280, Note_on_c, 9, 42, 36
15, 22289, Note_on_c, 9, 42, 0
15, 22320, Note_on_c, 9, 42, 110
15, 22329, Note_on_c, 9, 42, 0
15, 22400, Note_on_c, 9, 36, 67
15, 22400, Note_on_c, 9, 42, 38
15, 22409, Note_on_c, 9, 36, 0
15, 22409, Note_on_c, 9, 42, 0
15, 22440, Note_on_c, 9, 42, 121
15, 22449, Note_on_c, 9, 42, 0
15, 22520, Note_on_c, 9, 42, 41
15, 22520, Note_on_c, 9, 36, 69
15, 22529, Note_on_c, 9, 42, 0
15, 22529, Note_on_c, 9, 36, 0
15, 22560, Note_on_c, 9, 42, 116
15, 22569, Note_on_c, 9, 42, 0
15, 22640, Note_on_c, 9, 42, 33
15, 22649, Note_on_c, 9, 42, 0
15, 22680, Note_on_c, 9, 37, 127
15, 22680, Note_on_c, 9, 42, 94
15, 22689, Note_on_c, 9, 37, 0
15, 22689, Note_on_c, 9, 42, 0
15, 22720, Note_on_c, 9, 42, 85
15, 22729, Note_on_c, 9, 42, 0
15, 22760, Note_on_c, 9, 42, 105
15, 22769, Note_on_c, 9, 42, 0
15, 22800, Note_on_c, 9, 42, 112
15, 22809, Note_on_c, 9, 42, 0
15, 22840, Note_on_c, 9, 42, 94
15, 22849, Note_on_c, 9, 42, 0
15, 22880, Note_on_c, 9, 46, 94
15, 22920, Note_on_c, 9, 36, 64
15, 22929, Note_on_c, 9, 36, 0
15, 22961, Note_on_c, 9, 46, 0
15, 23040, Note_on_c, 9, 42, 95
15, 23049, Note_on_c, 9, 42, 0
15, 23120, Note_on_c, 9, 42, 38
15, 23129, Note_on_c, 9, 42, 0
15, 23160, Note_on_c, 9, 42, 93
15, 23160, Note_on_c, 9, 39, 127
15, 23160, Note_on_c, 9, 37, 124
15, 23169, Note_on_c, 9, 42, 0
15, 23169, Note_on_c, 9, 39, 0
15, 23169, Note_on_c, 9, 37, 0
15, 23240, Note_on_c, 9, 42, 36
15, 23249, Note_on_c, 9, 42, 0
15, 23280, Note_on_c, 9, 42, 99
15, 23289, Note_on_c, 9, 42, 0
15, 23360, Note_on_c, 9, 36, 66
15, 23360, Note_on_c, 9, 42, 35
15, 23369, Note_on_c, 9, 36, 0
15, 23369, Note_on_c, 9, 42, 0
15, 23400, Note_on_c, 9, 42, 99
15, 23409, Note_on_c, 9, 42, 0
15, 23480, Note_on_c, 9, 42, 40
15, 23480, Note_on_c, 9, 36, 67
15, 23489, Note_on_c, 9, 42, 0
15, 23489, Note_on_c, 9, 36, 0
15, 23520, Note_on_c, 9, 42, 92
15, 23529, Note_on_c, 9, 42, 0
15, 23600, Note_on_c, 9, 42, 31
15, 23609, Note_on_c, 9, 42, 0
15, 23640, Note_on_c, 9, 37, 127
15, 23640, Note_on_c, 9, 42, 106
15, 23649, Note_on_c, 9, 37, 0
15, 23649, Note_on_c, 9, 42, 0
15, 23720, Note_on_c, 9, 42, 33
15, 23729, Note_on_c, 9, 42, 0
15, 23760, Note_on_c, 9, 42, 103
15, 23769, Note_on_c, 9, 42, 0
15, 23840, Note_on_c, 9, 42, 30
15, 23849, Note_on_c, 9, 42, 0
15, 23880, Note_on_c, 9, 42, 99
15, 23889, Note_on_c, 9, 42, 0
15, 23960, Note_on_c, 9, 42, 36
15, 23969, Note_on_c, 9, 42, 0
15, 24000, Note_on_c, 9, 36, 69
15, 24000, Note_on_c, 9, 42, 103
15, 24009, Note_on_c, 9, 36, 0
15, 24009, Note_on_c, 9, 42, 0
15, 24080, Note_on_c, 9, 42, 39
15, 24089, Note_on_c, 9, 42, 0
15, 24120, Note_on_c, 9, 39, 106
15, 24120, Note_on_c, 9, 37, 127
15, 24120, Note_on_c, 9, 42, 101
15, 24129, Note_on_c, 9, 39, 0
15, 24129, Note_on_c, 9, 37, 0
15, 24129, Note_on_c, 9, 42, 0
15, 24200, Note_on_c, 9, 36, 72
15, 24200, Note_on_c, 9, 42, 34
15, 24209, Note_on_c, 9, 36, 0
15, 24209, Note_on_c, 9, 42, 0
15, 24240, Note_on_c, 9, 42, 90
15, 24249, Note_on_c, 9, 42, 0
15, 24320, Note_on_c, 9, 42, 36
15, 24329, Note_on_c, 9, 42, 0
15, 24360, Note_on_c, 9, 36, 77
15, 24360, Note_on_c, 9, 42, 99
15, 24369, Note_on_c, 9, 36, 0
15, 24369, Note_on_c, 9, 42, 0
15, 24440, Note_on_c, 9, 42, 36
15, 24449, Note_on_c, 9, 42, 0
15, 24480, Note_on_c, 9, 42, 103
15, 24489, Note_on_c, 9, 42, 0
15, 24560, Note_on_c, 9, 42, 39
15, 24569, Note_on_c, 9, 42, 0
15, 24600, Note_on_c, 9, 37, 127
15, 24600, Note_on_c, 9, 42, 101
15, 24609, Note_on_c, 9, 37, 0
15, 24609, Note_on_c, 9, 42, 0
15, 24680, Note_on_c, 9, 42, 34
15, 24689, Note_on_c, 9, 42, 0
15, 24720, Note_on_c, 9, 42, 90
15, 24729, Note_on_c, 9, 42, 0
15, 24800, Note_on_c, 9, 42, 36
15, 24809, Note_on_c, 9, 42, 0
15, 24840, Note_on_c, 9, 36, 71
15, 24840, Note_on_c, 9, 42, 127
15, 24849, Note_on_c, 9, 36, 0
15, 24849, Note_on_c, 9, 42, 0
15, 24920, Note_on_c, 9, 42, 31
15, 24929, Note_on_c, 9, 42, 0
15, 24960, Note_on_c, 9, 42, 101
15, 24969, Note_on_c, 9, 42, 0
15, 25040, Note_on_c, 9, 42, 31
15, 25049, Note_on_c, 9, 42, 0
15, 25080, Note_on_c, 9, 37, 127
15, 25080, Note_on_c, 9, 39, 116
15, 25080, Note_on_c, 9, 42, 121
15, 25089, Note_on_c, 9, 37, 0
15, 25089, Note_on_c, 9, 39, 0
15, 25089, Note_on_c, 9, 42, 0
15, 25160, Note_on_c, 9, 42, 28
15, 25169, Note_on_c, 9, 42, 0
15, 25200, Note_on_c, 9, 42, 127
15, 25209, Note_on_c, 9, 42, 0
15, 25280, Note_on_c, 9, 36, 67
15, 25280, Note_on_c, 9, 42, 29
15, 25289, Note_on_c, 9, 36, 0
15, 25289, Note_on_c, 9, 42, 0
15, 25320, Note_on_c, 9, 42, 127
15, 25329, Note_on_c, 9, 42, 0
15, 25400, Note_on_c, 9, 42, 31
15, 25400, Note_on_c, 9, 36, 75
15, 25409, Note_on_c, 9, 42, 0
15, 25409, Note_on_c, 9, 36, 0
15, 25440, Note_on_c, 9, 42, 103
15, 25449, Note_on_c, 9, 42, 0
15, 25520, Note_on_c, 9, 42, 31
15, 25529, Note_on_c, 9, 42, 0
15, 25560, Note_on_c, 9, 42, 106
15, 25560, Note_on_c, 9, 37, 127
15, 25569, Note_on_c, 9, 42, 0
15, 25569, Note_on_c, 9, 37, 0
15, 25640, Note_on_c, 9, 42, 29
15, 25649, Note_on_c, 9, 42, 0
15, 25680, Note_on_c, 9, 42, 106
15, 25689, Note_on_c, 9, 42, 0
15, 25760, Note_on_c, 9, 42, 25
15, 25769, Note_on_c, 9, 42, 0
15, 25800, Note_on_c, 9, 36, 69
15, 25800, Note_on_c, 9, 42, 127
15, 25809, Note_on_c, 9, 36, 0
15, 25809, Note_on_c, 9, 42, 0
15, 25880, Note_on_c, 9, 42, 30
15, 25889, Note_on_c, 9, 42, 0
15, 25920, Note_on_c, 9, 42, 113
15, 25929, Note_on_c, 9, 42, 0
15, 26000, Note_on_c, 9, 42, 37
15, 26009, Note_on_c, 9, 42, 0
15, 26040, Note_on_c, 9, 39, 101
15, 26040, Note_on_c, 9, 37, 127
15, 26040, Note_on_c, 9, 42, 121
15, 26049, Note_on_c, 9, 39, 0
15, 26049, Note_on_c, 9, 37, 0
15, 26049, Note_on_c, 9, 42, 0
15, 26120, Note_on_c, 9, 42, 36
15, 26129, Note_on_c, 9, 42, 0
15, 26160, Note_on_c, 9, 42, 110
15, 26169, Note_on_c, 9, 42, 0
15, 26240, Note_on_c, 9, 42, 38
15, 26240, Note_on_c, 9, 36, 67
15, 26249, Note_on_c, 9, 42, 0
15, 26249, Note_on_c, 9, 36, 0
15, 26280, Note_on_c, 9, 42, 121
15, 26289, Note_on_c, 9, 42, 0
15, 26360, Note_on_c, 9, 42, 41
15, 26360, Note_on_c, 9, 36, 69
15, 26369, Note_on_c, 9, 42, 0
15, 26369, Note_on_c, 9, 36, 0
15, 26400, Note_on_c, 9, 42, 116
15, 26409, Note_on_c, 9, 42, 0
15, 26480, Note_on_c, 9, 42, 33
15, 26489, Note_on_c, 9, 42, 0
15, 26520, Note_on_c, 9, 37, 127
15, 26520, Note_on_c, 9, 42, 94
15, 26529, Note_on_c, 9, 37, 0
15, 26529, Note_on_c, 9, 42, 0
15, 26560, Note_on_c, 9, 42, 85
15, 26569, Note_on_c, 9, 42, 0
15, 26600, Note_on_c, 9, 42, 105
15, 26609, Note_on_c, 9, 42, 0
15, 26640, Note_on_c, 9, 42, 112
15, 26649, Note_on_c, 9, 42, 0
15, 26680, Note_on_c, 9, 42, 94
15, 26689, Note_on_c, 9, 42, 0
15, 26720, Note_on_c, 9, 46, 94
15, 26760, Note_on_c, 9, 36, 64
15, 26769, Note_on_c, 9, 36, 0
15, 26801, Note_on_c, 9, 46, 0
15, 26880, Note_on_c, 9, 42, 95
15, 26889, Note_on_c, 9, 42, 0
15, 26960, Note_on_c, 9, 42, 38
15, 26969, Note_on_c, 9, 42, 0
15, 27000, Note_on_c, 9, 42, 93
15, 27000, Note_on_c, 9, 37, 124
15, 27000, Note_on_c, 9, 39, 127
15, 27009, Note_on_c, 9, 42, 0
15, 27009, Note_on_c, 9, 37, 0
15, 27009, Note_on_c, 9, 39, 0
15, 27080, Note_on_c, 9, 42, 36
15, 27089, Note_on_c, 9, 42, 0
15, 27120, Note_on_c, 9, 42, 99
15, 27129, Note_on_c, 9, 42, 0
15, 27200, Note_on_c, 9, 36, 66
15, 27200, Note_on_c, 9, 42, 35
15, 27209, Note_on_c, 9, 36, 0
15, 27209, Note_on_c, 9, 42, 0
15, 27240, Note_on_c, 9, 42, 99
15, 27249, Note_on_c, 9, 42, 0
15, 27320, Note_on_c, 9, 42, 40
15, 27320, Note_on_c, 9, 36, 67
15, 27329, Note_on_c, 9, 42, 0
15, 27329, Note_on_c, 9, 36, 0
15, 27360, Note_on_c, 9, 42, 92
15, 27369, Note_on_c, 9, 42, 0
15, 27440, Note_on_c, 9, 42, 31
15, 27449, Note_on_c, 9, 42, 0
15, 27480, Note_on_c, 9, 37, 127
15, 27480, Note_on_c, 9, 42, 106
15, 27489, Note_on_c, 9, 37, 0
15, 27489, Note_on_c, 9, 42, 0
15, 27560, Note_on_c, 9, 42, 33
15, 27569, Note_on_c, 9, 42, 0
15, 27600, Note_on_c, 9, 42, 103
15, 27609, Note_on_c, 9, 42, 0
15, 27680, Note_on_c, 9, 42, 30
15, 27689, Note_on_c, 9, 42, 0
15, 27720, Note_on_c, 9, 42, 99
15, 27729, Note_on_c, 9, 42, 0
15, 27800, Note_on_c, 9, 42, 36
15, 27809, Note_on_c, 9, 42, 0
15, 27840, Note_on_c, 9, 42, 103
15, 27840, Note_on_c, 9, 36, 69
15, 27849, Note_on_c, 9, 42, 0
15, 27849, Note_on_c, 9, 36, 0
15, 27920, Note_on_c, 9, 42, 39
15, 27929, Note_on_c, 9, 42, 0
15, 27960, Note_on_c, 9, 39, 106
15, 27960, Note_on_c, 9, 37, 127
15, 27960, Note_on_c, 9, 42, 101
15, 27969, Note_on_c, 9, 39, 0
15, 27969, Note_on_c, 9, 37, 0
15, 27969, Note_on_c, 9, 42, 0
15, 28040, Note_on_c, 9, 42, 34
15, 28040, Note_on_c, 9, 36, 72
15, 28049, Note_on_c, 9, 42, 0
15, 28049, Note_on_c, 9, 36, 0
15, 28080, Note_on_c, 9, 42, 90
15, 28089, Note_on_c, 9, 42, 0
15, 28160, Note_on_c, 9, 42, 36
15, 28169, Note_on_c, 9, 42, 0
15, 28200, Note_on_c, 9, 36, 77
15, 28200, Note_on_c, 9, 42, 99
15, 28209, Note_on_c, 9, 36, 0
15, 28209, Note_on_c, 9, 42, 0
15, 28280, Note_on_c, 9, 42, 36
15, 28289, Note_on_c, 9, 42, 0
15, 28320, Note_on_c, 9, 42, 103
15, 28329, Note_on_c, 9, 42, 0
15, 28400, Note_on_c, 9, 42, 39
15, 28409, Note_on_c, 9, 42, 0
15, 28440, Note_on_c, 9, 42, 101
15, 28440, Note_on_c, 9, 37, 106
15, 28449, Note_on_c, 9, 42, 0
15, 28449, Note_on_c, 9, 37, 0
15, 28520, Note_on_c, 9, 42, 34
15, 28529, Note_on_c, 9, 42, 0
15, 28560, Note_on_c, 9, 42, 90
15, 28569, Note_on_c, 9, 42, 0
15, 28640, Note_on_c, 9, 42, 36
15, 28649, Note_on_c, 9, 42, 0
15, 28680, Note_on_c, 9, 36, 94
15, 28680, Note_on_c, 9, 49, 106
15, 28689, Note_on_c, 9, 36, 0
15, 28689, Note_on_c, 9, 49, 0
15, 28800, Note_on_c, 9, 63, 85
15, 28809, Note_on_c, 9, 63, 0
15, 28880, Note_on_c, 9, 36, 32
15, 28880, Note_on_c, 9, 63, 85
15, 28889, Note_on_c, 9, 36, 0
15, 28889, Note_on_c, 9, 63, 0
15, 28920, Note_on_c, 9, 40, 127
15, 28929, Note_on_c, 9, 40, 0
15, 29040, Note_on_c, 9, 64, 94
15, 29049, Note_on_c, 9, 64, 0
15, 29120, Note_on_c, 9, 36, 51
15, 29129, Note_on_c, 9, 36, 0
15, 29240, Note_on_c, 9, 36, 59
15, 29249, Note_on_c, 9, 36, 0
15, 29280, Note_on_c, 9, 63, 80
15, 29289, Note_on_c, 9, 63, 0
15, 29360, Note_on_c, 9, 36, 42
15, 29360, Note_on_c, 9, 63, 94
15, 29369, Note_on_c, 9, 36, 0
15, 29369, Note_on_c, 9, 63, 0
15, 29400, Note_on_c, 9, 40, 99
15, 29409, Note_on_c, 9, 40, 0
15, 29440, Note_on_c, 9, 40, 99
15, 29449, Note_on_c, 9, 40, 0
15, 29480, Note_on_c, 9, 36, 48
15, 29480, Note_on_c, 9, 62, 77
15, 29489, Note_on_c, 9, 36, 0
15, 29489, Note_on_c, 9, 62, 0
15, 29520, Note_on_c, 9, 40, 94
15, 29520, Note_on_c, 9, 64, 110
15, 29529, Note_on_c, 9, 40, 0
15, 29529, Note_on_c, 9, 64, 0
15, 29560, Note_on_c, 9, 40, 73
15, 29569, Note_on_c, 9, 40, 0
15, 29600, Note_on_c, 9, 36, 68
15, 29609, Note_on_c, 9, 36, 0
15, 29640, Note_on_c, 9, 36, 66
15, 29640, Note_on_c, 9, 49, 110
15, 29649, Note_on_c, 9, 36, 0
15, 29649, Note_on_c, 9, 49, 0
15, 29760, Note_on_c, 9, 63, 92
15, 29769, Note_on_c, 9, 63, 0
15, 29840, Note_on_c, 9, 36, 59
15, 29840, Note_on_c, 9, 63, 87
15, 29849, Note_on_c, 9, 36, 0
15, 29849, Note_on_c, 9, 63, 0
15, 29920, Note_on_c, 9, 40, 43
15, 29929, Note_on_c, 9, 40, 0
15, 29960, Note_on_c, 9, 40, 68
15, 29969, Note_on_c, 9, 40, 0
15, 30000, Note_on_c, 9, 40, 99
15, 30000, Note_on_c, 9, 64, 90
15, 30009, Note_on_c, 9, 40, 0
15, 30009, Note_on_c, 9, 64, 0
15, 30080, Note_on_c, 9, 36, 100
15, 30080, Note_on_c, 9, 57, 92
15, 30089, Note_on_c, 9, 36, 0
15, 30089, Note_on_c, 9, 57, 0
15, 30240, Note_on_c, 9, 63, 97
15, 30249, Note_on_c, 9, 63, 0
15, 30320, Note_on_c, 9, 40, 90
15, 30320, Note_on_c, 9, 63, 80
15, 30329, Note_on_c, 9, 40, 0
15, 30329, Note_on_c, 9, 63, 0
15, 30360, Note_on_c, 9, 48, 106
15, 30369, Note_on_c, 9, 48, 0
15, 30440, Note_on_c, 9, 45, 97
15, 30440, Note_on_c, 9, 62, 68
15, 30449, Note_on_c, 9, 45, 0
15, 30449, Note_on_c, 9, 62, 0
15, 30480, Note_on_c, 9, 64, 103
15, 30489, Note_on_c, 9, 64, 0
15, 30560, Note_on_c, 9, 45, 52
15, 30569, Note_on_c, 9, 45, 0
15, 30600, Note_on_c, 9, 40, 107
15, 30609, Note_on_c, 9, 40, 0
15, 30640, Note_on_c, 9, 36, 38
15, 30649, Note_on_c, 9, 36, 0
15, 30720, Note_on_c, 9, 63, 87
15, 30720, Note_on_c, 9, 40, 104
15, 30729, Note_on_c, 9, 63, 0
15, 30729, Note_on_c, 9, 40, 0
15, 30800, Note_on_c, 9, 63, 73
15, 30809, Note_on_c, 9, 63, 0
15, 30840, Note_on_c, 9, 40, 73
15, 30849, Note_on_c, 9, 40, 0
15, 30880, Note_on_c, 9, 36, 36
15, 30889, Note_on_c, 9, 36, 0
15, 30920, Note_on_c, 9, 36, 44
15, 30929, Note_on_c, 9, 36, 0
15, 30960, Note_on_c, 9, 64, 87
15, 30960, Note_on_c, 9, 40, 69
15, 30969, Note_on_c, 9, 64, 0
15, 30969, Note_on_c, 9, 40, 0
15, 31040, Note_on_c, 9, 36, 84
15, 31040, Note_on_c, 9, 49, 118
15, 31049, Note_on_c, 9, 36, 0
15, 31049, Note_on_c, 9, 49, 0
15, 31200, Note_on_c, 9, 40, 55
15, 31200, Note_on_c, 9, 63, 87
15, 31209, Note_on_c, 9, 40, 0
15, 31209, Note_on_c, 9, 63, 0
15, 31280, Note_on_c, 9, 63, 80
15, 31280, Note_on_c, 9, 40, 127
15, 31289, Note_on_c, 9, 63, 0
15, 31289, Note_on_c, 9, 40, 0
15, 31400, Note_on_c, 9, 47, 49
15, 31400, Note_on_c, 9, 62, 56
15, 31409, Note_on_c, 9, 47, 0
15, 31409, Note_on_c, 9, 62, 0
15, 31440, Note_on_c, 9, 47, 80
15, 31440, Note_on_c, 9, 64, 82
15, 31449, Note_on_c, 9, 47, 0
15, 31449, Note_on_c, 9, 64, 0
15, 31520, Note_on_c, 9, 64, 72
15, 31529, Note_on_c, 9, 64, 0
15, 31560, Note_on_c, 9, 40, 127
15, 31569, Note_on_c, 9, 40, 0
15, 31640, Note_on_c, 9, 49, 100
15, 31640, Note_on_c, 9, 36, 122
15, 31649, Note_on_c, 9, 49, 0
15, 31649, Note_on_c, 9, 36, 0
15, 31800, Note_on_c, 9, 57, 90
15, 31800, Note_on_c, 9, 36, 118
15, 31809, Note_on_c, 9, 57, 0
15, 31809, Note_on_c, 9, 36, 0
15, 31960, Note_on_c, 9, 40, 77
15, 31969, Note_on_c, 9, 40, 0
15, 32040, Note_on_c, 9, 36, 118
15, 32040, Note_on_c, 9, 57, 100
15, 32049, Note_on_c, 9, 36, 0
15, 32049, Note_on_c, 9, 57, 0
15, 32240, Note_on_c, 9, 36, 106
15, 32240, Note_on_c, 9, 49, 122
15, 32249, Note_on_c, 9, 36, 0
15, 32249, Note_on_c, 9, 49, 0
15, 32320, Note_on_c, 9, 40, 57
15, 32329, Note_on_c, 9, 40, 0
15, 32360, Note_on_c, 9, 40, 71
15, 32369, Note_on_c, 9, 40, 0
15, 32400, Note_on_c, 9, 49, 127
15, 32400, Note_on_c, 9, 36, 127
15, 32409, Note_on_c, 9, 49, 0
15, 32409, Note_on_c, 9, 36, 0
15, 32600, Note_on_c, 9, 40, 55
15, 32609, Note_on_c, 9, 40, 0
15, 32640, Note_on_c, 9, 40, 60
15, 32649, Note_on_c, 9, 40, 0
15, 32680, Note_on_c, 9, 40, 80
15, 32689, Note_on_c, 9, 40, 0
15, 32720, Note_on_c, 9, 40, 103
15, 32729, Note_on_c, 9, 40, 0
15, 32760, Note_on_c, 9, 40, 113
15, 32769, Note_on_c, 9, 40, 0
15, 32800, Note_on_c, 9, 40, 113
15, 32809, Note_on_c, 9, 40, 0
15, 32840, Note_on_c, 9, 40, 127
15, 32849, Note_on_c, 9, 40, 0
15, 32880, Note_on_c, 9, 40, 127
15, 32889, Note_on_c, 9, 40, 0
15, 32960, Note_on_c, 9, 36, 92
15, 32960, Note_on_c, 9, 40, 127
15, 32960, Note_on_c, 9, 57, 100
15, 32969, Note_on_c, 9, 36, 0
15, 32969, Note_on_c, 9, 40, 0
15, 32969, Note_on_c, 9, 57, 0
15, 33000, Note_on_c, 9, 44, 106
15, 33009, Note_on_c, 9, 44, 0
15, 33040, Note_on_c, 9, 48, 55
15, 33049, Note_on_c, 9, 48, 0
15, 33080, Note_on_c, 9, 48, 82
15, 33089, Note_on_c, 9, 48, 0
15, 33120, Note_on_c, 9, 44, 118
15, 33129, Note_on_c, 9, 44, 0
15, 33160, Note_on_c, 9, 48, 70
15, 33169, Note_on_c, 9, 48, 0
15, 33240, Note_on_c, 9, 48, 94
15, 33240, Note_on_c, 9, 44, 122
15, 33249, Note_on_c, 9, 48, 0
15, 33249, Note_on_c, 9, 44, 0
15, 33280, Note_on_c, 9, 48, 90
15, 33289, Note_on_c, 9, 48, 0
15, 33320, Note_on_c, 9, 45, 127
15, 33329, Note_on_c, 9, 45, 0
15, 33360, Note_on_c, 9, 44, 127
15, 33360, Note_on_c, 9, 45, 127
15, 33369, Note_on_c, 9, 44, 0
15, 33369, Note_on_c, 9, 45, 0
15, 33440, Note_on_c, 9, 49, 90
15, 33440, Note_on_c, 9, 36, 97
15, 33449, Note_on_c, 9, 49, 0
15, 33449, Note_on_c, 9, 36, 0
15, 33480, Note_on_c, 9, 44, 127
15, 33480, Note_on_c, 9, 42, 48
15, 33489, Note_on_c, 9, 44, 0
15, 33489, Note_on_c, 9, 42, 0
15, 33560, Note_on_c, 9, 42, 38
15, 33569, Note_on_c, 9, 42, 0
15, 33600, Note_on_c, 9, 42, 113
15, 33609, Note_on_c, 9, 42, 0
15, 33680, Note_on_c, 9, 42, 44
15, 33680, Note_on_c, 9, 36, 51
15, 33689, Note_on_c, 9, 42, 0
15, 33689, Note_on_c, 9, 36, 0
15, 33720, Note_on_c, 9, 40, 86
15, 33720, Note_on_c, 9, 42, 85
15, 33729, Note_on_c, 9, 40, 0
15, 33729, Note_on_c, 9, 42, 0
15, 33800, Note_on_c, 9, 36, 48
15, 33800, Note_on_c, 9, 46, 94
15, 33809, Note_on_c, 9, 36, 0
15, 33809, Note_on_c, 9, 46, 0
15, 33840, Note_on_c, 9, 42, 47
15, 33849, Note_on_c, 9, 42, 0
15, 33920, Note_on_c, 9, 42, 47
15, 33929, Note_on_c, 9, 42, 0
15, 33960, Note_on_c, 9, 42, 56
15, 33969, Note_on_c, 9, 42, 0
15, 34040, Note_on_c, 9, 42, 28
15, 34040, Note_on_c, 9, 36, 58
15, 34049, Note_on_c, 9, 42, 0
15, 34049, Note_on_c, 9, 36, 0
15, 34080, Note_on_c, 9, 42, 47
15, 34089, Note_on_c, 9, 42, 0
15, 34160, Note_on_c, 9, 42, 43
15, 34169, Note_on_c, 9, 42, 0
15, 34200, Note_on_c, 9, 42, 53
15, 34209, Note_on_c, 9, 42, 0
15, 34280, Note_on_c, 9, 36, 48
15, 34280, Note_on_c, 9, 42, 64
15, 34289, Note_on_c, 9, 36, 0
15, 34289, Note_on_c, 9, 42, 0
15, 34320, Note_on_c, 9, 40, 67
15, 34320, Note_on_c, 9, 42, 74
15, 34329, Note_on_c, 9, 40, 0
15, 34329, Note_on_c, 9, 42, 0
15, 34400, Note_on_c, 9, 42, 40
15, 34400, Note_on_c, 9, 36, 40
15, 34409, Note_on_c, 9, 42, 0
15, 34409, Note_on_c, 9, 36, 0
15, 34440, Note_on_c, 9, 42, 47
15, 34449, Note_on_c, 9, 42, 0
15, 34520, Note_on_c, 9, 46, 103
15, 34520, Note_on_c, 9, 36, 60
15, 34529, Note_on_c, 9, 36, 0
15, 34560, Note_on_c, 9, 42, 35
15, 34562, Note_on_c, 9, 46, 0
15, 34569, Note_on_c, 9, 42, 0
15, 34640, Note_on_c, 9, 36, 32
15, 34640, Note_on_c, 9, 42, 42
15, 34649, Note_on_c, 9, 36, 0
15, 34649, Note_on_c, 9, 42, 0
15, 34680, Note_on_c, 9, 40, 61
15, 34680, Note_on_c, 9, 42, 76
15, 34689, Note_on_c, 9, 40, 0
15, 34689, Note_on_c, 9, 42, 0
15, 34760, Note_on_c, 9, 46, 76
15, 34760, Note_on_c, 9, 36, 60
15, 34769, Note_on_c, 9, 36, 0
15, 34800, Note_on_c, 9, 42, 54
15, 34805, Note_on_c, 9, 46, 0
15, 34809, Note_on_c, 9, 42, 0
15, 34880, Note_on_c, 9, 42, 41
15, 34880, Note_on_c, 9, 36, 67
15, 34889, Note_on_c, 9, 42, 0
15, 34889, Note_on_c, 9, 36, 0
15, 34920, Note_on_c, 9, 42, 68
15, 34929, Note_on_c, 9, 42, 0
15, 35000, Note_on_c, 9, 36, 73
15, 35000, Note_on_c, 9, 42, 59
15, 35009, Note_on_c, 9, 36, 0
15, 35009, Note_on_c, 9, 42, 0
15, 35040, Note_on_c, 9, 42, 64
15, 35049, Note_on_c, 9, 42, 0
15, 35120, Note_on_c, 9, 46, 127
15, 35120, Note_on_c, 9, 36, 25
15, 35129, Note_on_c, 9, 36, 0
15, 35160, Note_on_c, 9, 42, 49
15, 35167, Note_on_c, 9, 46, 0
15, 35169, Note_on_c, 9, 42, 0
15, 35200, Note_on_c, 9, 40, 43
15, 35209, Note_on_c, 9, 40, 0
15, 35240, Note_on_c, 9, 40, 56
15, 35240, Note_on_c, 9, 42, 51
15, 35249, Note_on_c, 9, 40, 0
15, 35249, Note_on_c, 9, 42, 0
15, 35280, Note_on_c, 9, 40, 110
15, 35289, Note_on_c, 9, 40, 0
15, 35320, Note_on_c, 9, 40, 112
15, 35329, Note_on_c, 9, 40, 0
15, 35360, Note_on_c, 9, 36, 120
15, 35360, Note_on_c, 9, 40, 127
15, 35369, Note_on_c, 9, 36, 0
15, 35369, Note_on_c, 9, 40, 0
15, 35400, Note_on_c, 9, 42, 46
15, 35409, Note_on_c, 9, 42, 0
15, 35480, Note_on_c, 9, 42, 41
15, 35489, Note_on_c, 9, 42, 0
15, 35520, Note_on_c, 9, 42, 56
15, 35529, Note_on_c, 9, 42, 0
15, 35600, Note_on_c, 9, 42, 46
15, 35600, Note_on_c, 9, 36, 39
15, 35609, Note_on_c, 9, 42, 0
15, 35609, Note_on_c, 9, 36, 0
15, 35640, Note_on_c, 9, 42, 61
15, 35640, Note_on_c, 9, 40, 110
15, 35649, Note_on_c, 9, 42, 0
15, 35649, Note_on_c, 9, 40, 0
15, 35720, Note_on_c, 9, 42, 49
15, 35720, Note_on_c, 9, 36, 49
15, 35729, Note_on_c, 9, 42, 0
15, 35729, Note_on_c, 9, 36, 0
15, 35760, Note_on_c, 9, 44, 127
15, 35769, Note_on_c, 9, 44, 0
15, 35840, Note_on_c, 9, 36, 56
15, 35840, Note_on_c, 9, 42, 40
15, 35849, Note_on_c, 9, 36, 0
15, 35849, Note_on_c, 9, 42, 0
15, 35880, Note_on_c, 9, 42, 41
15, 35889, Note_on_c, 9, 42, 0
15, 35960, Note_on_c, 9, 42, 49
15, 35969, Note_on_c, 9, 42, 0
15, 36000, Note_on_c, 9, 44, 127
15, 36009, Note_on_c, 9, 44, 0
15, 36080, Note_on_c, 9, 42, 34
15, 36080, Note_on_c, 9, 36, 46
15, 36089, Note_on_c, 9, 42, 0
15, 36089, Note_on_c, 9, 36, 0
15, 36120, Note_on_c, 9, 36, 62
15, 36120, Note_on_c, 9, 42, 41
15, 36129, Note_on_c, 9, 36, 0
15, 36129, Note_on_c, 9, 42, 0
15, 36200, Note_on_c, 9, 40, 72
15, 36200, Note_on_c, 9, 49, 67
15, 36200, Note_on_c, 9, 42, 45
15, 36209, Note_on_c, 9, 40, 0
15, 36209, Note_on_c, 9, 49, 0
15, 36209, Note_on_c, 9, 42, 0
15, 36240, Note_on_c, 9, 44, 127
15, 36249, Note_on_c, 9, 44, 0
15, 36320, Note_on_c, 9, 40, 49
15, 36320, Note_on_c, 9, 42, 37
15, 36329, Note_on_c, 9, 40, 0
15, 36329, Note_on_c, 9, 42, 0
15, 36360, Note_on_c, 9, 42, 45
15, 36369, Note_on_c, 9, 42, 0
15, 36440, Note_on_c, 9, 49, 82
15, 36440, Note_on_c, 9, 36, 96
15, 36440, Note_on_c, 9, 46, 127
15, 36449, Note_on_c, 9, 49, 0
15, 36449, Note_on_c, 9, 36, 0
15, 36472, Note_on_c, 9, 46, 0
15, 36560, Note_on_c, 9, 40, 34
15, 36560, Note_on_c, 9, 42, 29
15, 36569, Note_on_c, 9, 40, 0
15, 36569, Note_on_c, 9, 42, 0
15, 36600, Note_on_c, 9, 40, 72
15, 36600, Note_on_c, 9, 42, 39
15, 36609, Note_on_c, 9, 40, 0
15, 36609, Note_on_c, 9, 42, 0
15, 36680, Note_on_c, 9, 57, 79
15, 36680, Note_on_c, 9, 59, 86
15, 36680, Note_on_c, 9, 36, 66
15, 36680, Note_on_c, 9, 42, 37
15, 36689, Note_on_c, 9, 57, 0
15, 36689, Note_on_c, 9, 59, 0
15, 36689, Note_on_c, 9, 36, 0
15, 36689, Note_on_c, 9, 42, 0
15, 36720, Note_on_c, 9, 42, 49
15, 36729, Note_on_c, 9, 42, 0
15, 36800, Note_on_c, 9, 36, 56
15, 36809, Note_on_c, 9, 36, 0
15, 36840, Note_on_c, 9, 42, 42
15, 36840, Note_on_c, 9, 36, 51
15, 36849, Note_on_c, 9, 42, 0
15, 36849, Note_on_c, 9, 36, 0
15, 36920, Note_on_c, 9, 49, 88
15, 36920, Note_on_c, 9, 40, 73
15, 36929, Note_on_c, 9, 49, 0
15, 36929, Note_on_c, 9, 40, 0
15, 37040, Note_on_c, 9, 40, 36
15, 37040, Note_on_c, 9, 42, 27
15, 37049, Note_on_c, 9, 40, 0
15, 37049, Note_on_c, 9, 42, 0
15, 37080, Note_on_c, 9, 40, 49
15, 37080, Note_on_c, 9, 42, 40
15, 37089, Note_on_c, 9, 40, 0
15, 37089, Note_on_c, 9, 42, 0
15, 37120, Note_on_c, 9, 42, 45
15, 37129, Note_on_c, 9, 42, 0
15, 37160, Note_on_c, 9, 40, 120
15, 37160, Note_on_c, 9, 42, 62
15, 37169, Note_on_c, 9, 40, 0
15, 37169, Note_on_c, 9, 42, 0
15, 37200, Note_on_c, 9, 40, 123
15, 37200, Note_on_c, 9, 42, 70
15, 37209, Note_on_c, 9, 40, 0
15, 37209, Note_on_c, 9, 42, 0
15, 37280, Note_on_c, 9, 49, 91
15, 37280, Note_on_c, 9, 36, 98
15, 37289, Note_on_c, 9, 49, 0
15, 37289, Note_on_c, 9, 36, 0
15, 37400, Note_on_c, 9, 42, 43
15, 37409, Note_on_c, 9, 42, 0
15, 37440, Note_on_c, 9, 42, 94
15, 37449, Note_on_c, 9, 42, 0
15, 37520, Note_on_c, 9, 42, 47
15, 37529, Note_on_c, 9, 42, 0
15, 37560, Note_on_c, 9, 40, 88
15, 37560, Note_on_c, 9, 42, 78
15, 37569, Note_on_c, 9, 40, 0
15, 37569, Note_on_c, 9, 42, 0
15, 37640, Note_on_c, 9, 36, 38
15, 37640, Note_on_c, 9, 46, 113
15, 37649, Note_on_c, 9, 36, 0
15, 37679, Note_on_c, 9, 46, 0
15, 37680, Note_on_c, 9, 42, 78
15, 37689, Note_on_c, 9, 42, 0
15, 37800, Note_on_c, 9, 42, 56
15, 37800, Note_on_c, 9, 36, 39
15, 37809, Note_on_c, 9, 42, 0
15, 37809, Note_on_c, 9, 36, 0
15, 37880, Note_on_c, 9, 42, 42
15, 37889, Note_on_c, 9, 42, 0
15, 37920, Note_on_c, 9, 42, 59
15, 37929, Note_on_c, 9, 42, 0
15, 38000, Note_on_c, 9, 46, 127
15, 38000, Note_on_c, 9, 36, 55
15, 38009, Note_on_c, 9, 36, 0
15, 38038, Note_on_c, 9, 46, 0
15, 38040, Note_on_c, 9, 36, 49
15, 38049, Note_on_c, 9, 36, 0
15, 38120, Note_on_c, 9, 40, 54
15, 38129, Note_on_c, 9, 40, 0
15, 38160, Note_on_c, 9, 40, 127
15, 38169, Note_on_c, 9, 40, 0
15, 38240, Note_on_c, 9, 57, 110
15, 38240, Note_on_c, 9, 42, 59
15, 38240, Note_on_c, 9, 36, 96
15, 38249, Note_on_c, 9, 57, 0
15, 38249, Note_on_c, 9, 42, 0
15, 38249, Note_on_c, 9, 36, 0
15, 38280, Note_on_c, 9, 42, 64
15, 38289, Note_on_c, 9, 42, 0
15, 38360, Note_on_c, 9, 42, 60
15, 38369, Note_on_c, 9, 42, 0
15, 38400, Note_on_c, 9, 42, 118
15, 38409, Note_on_c, 9, 42, 0
15, 38480, Note_on_c, 9, 42, 46
15, 38489, Note_on_c, 9, 42, 0
15, 38520, Note_on_c, 9, 42, 53
15, 38520, Note_on_c, 9, 36, 45
15, 38529, Note_on_c, 9, 42, 0
15, 38529, Note_on_c, 9, 36, 0
15, 38590, Note_on_c, 9, 40, 102
15, 38599, Note_on_c, 9, 40, 0
15, 38600, Note_on_c, 9, 42, 48
15, 38609, Note_on_c, 9, 42, 0
15, 38640, Note_on_c, 9, 42, 87
15, 38649, Note_on_c, 9, 42, 0
15, 38680, Note_on_c, 9, 40, 84
15, 38689, Note_on_c, 9, 40, 0
15, 38720, Note_on_c, 9, 42, 49
15, 38729, Note_on_c, 9, 42, 0
15, 38760, Note_on_c, 9, 40, 104
15, 38769, Note_on_c, 9, 40, 0
15, 38840, Note_on_c, 9, 40, 80
15, 38849, Note_on_c, 9, 40, 0
15, 38920, Note_on_c, 9, 40, 98
15, 38929, Note_on_c, 9, 40, 0
15, 39000, Note_on_c, 9, 48, 127
15, 39009, Note_on_c, 9, 48, 0
15, 39080, Note_on_c, 9, 48, 120
15, 39089, Note_on_c, 9, 48, 0
15, 39160, Note_on_c, 9, 45, 123
15, 39169, Note_on_c, 9, 45, 0
15, 39200, Note_on_c, 9, 49, 127
15, 39200, Note_on_c, 9, 36, 81
15, 39209, Note_on_c, 9, 49, 0
15, 39209, Note_on_c, 9, 36, 0
15, 39320, Note_on_c, 9, 42, 72
15, 39329, Note_on_c, 9, 42, 0
15, 39360, Note_on_c, 9, 42, 87
15, 39369, Note_on_c, 9, 42, 0
15, 39440, Note_on_c, 9, 36, 48
15, 39440, Note_on_c, 9, 42, 62
15, 39449, Note_on_c, 9, 36, 0
15, 39449, Note_on_c, 9, 42, 0
15, 39480, Note_on_c, 9, 40, 127
15, 39489, Note_on_c, 9, 40, 0
15, 39560, Note_on_c, 9, 42, 44
15, 39560, Note_on_c, 9, 36, 62
15, 39569, Note_on_c, 9, 42, 0
15, 39569, Note_on_c, 9, 36, 0
15, 39600, Note_on_c, 9, 42, 118
15, 39609, Note_on_c, 9, 42, 0
15, 39680, Note_on_c, 9, 57, 84
15, 39680, Note_on_c, 9, 42, 77
15, 39680, Note_on_c, 9, 36, 98
15, 39689, Note_on_c, 9, 57, 0
15, 39689, Note_on_c, 9, 42, 0
15, 39689, Note_on_c, 9, 36, 0
15, 39760, Note_on_c, 9, 40, 44
15, 39760, Note_on_c, 9, 42, 62
15, 39769, Note_on_c, 9, 40, 0
15, 39769, Note_on_c, 9, 42, 0
15, 39800, Note_on_c, 9, 42, 84
15, 39809, Note_on_c, 9, 42, 0
15, 39840, Note_on_c, 9, 40, 120
15, 39849, Note_on_c, 9, 40, 0
15, 39880, Note_on_c, 9, 42, 51
15, 39889, Note_on_c, 9, 42, 0
15, 39920, Note_on_c, 9, 42, 51
15, 39929, Note_on_c, 9, 42, 0
15, 39960, Note_on_c, 9, 42, 82
15, 39960, Note_on_c, 9, 40, 30
15, 39969, Note_on_c, 9, 42, 0
15, 39969, Note_on_c, 9, 40, 0
15, 40000, Note_on_c, 9, 40, 57
15, 40009, Note_on_c, 9, 40, 0
15, 40033, Note_on_c, 9, 49, 55
15, 40040, Note_on_c, 9, 40, 80
15, 40042, Note_on_c, 9, 49, 0
15, 40049, Note_on_c, 9, 40, 0
15, 40080, Note_on_c, 9, 42, 59
15, 40080, Note_on_c, 9, 40, 92
15, 40089, Note_on_c, 9, 42, 0
15, 40089, Note_on_c, 9, 40, 0
15, 40120, Note_on_c, 9, 40, 81
15, 40129, Note_on_c, 9, 40, 0
15, 40160, Note_on_c, 9, 42, 53
15, 40160, Note_on_c, 9, 40, 52
15, 40169, Note_on_c, 9, 42, 0
15, 40169, Note_on_c, 9, 40, 0
15, 40200, Note_on_c, 9, 36, 82
15, 40209, Note_on_c, 9, 36, 0
15, 40280, Note_on_c, 9, 36, 86
15, 40280, Note_on_c, 9, 57, 91
15, 40289, Note_on_c, 9, 36, 0
15, 40289, Note_on_c, 9, 57, 0
15, 40320, Note_on_c, 9, 44, 48
15, 40329, Note_on_c, 9, 44, 0
15, 40374, Note_on_c, 9, 42, 34
15, 40383, Note_on_c, 9, 42, 0
15, 40440, Note_on_c, 9, 42, 92
15, 40440, Note_on_c, 9, 40, 74
15, 40440, Note_on_c, 9, 49, 92
15, 40449, Note_on_c, 9, 42, 0
15, 40449, Note_on_c, 9, 40, 0
15, 40449, Note_on_c, 9, 49, 0
15, 40593, Note_on_c, 9, 42, 39
15, 40602, Note_on_c, 9, 42, 0
15, 40632, Note_on_c, 9, 42, 62
15, 40641, Note_on_c, 9, 42, 0
15, 40663, Note_on_c, 9, 57, 51
15, 40672, Note_on_c, 9, 57, 0
15, 40680, Note_on_c, 9, 36, 57
15, 40689, Note_on_c, 9, 36, 0
15, 40800, Note_on_c, 9, 44, 85
15, 40809, Note_on_c, 9, 44, 0
15, 40880, Note_on_c, 9, 36, 57
15, 40889, Note_on_c, 9, 36, 0
15, 40920, Note_on_c, 9, 40, 49
15, 40929, Note_on_c, 9, 40, 0
15, 40960, Note_on_c, 9, 40, 52
15, 40969, Note_on_c, 9, 40, 0
15, 41000, Note_on_c, 9, 40, 127
15, 41009, Note_on_c, 9, 40, 0
15, 41040, Note_on_c, 9, 44, 118
15, 41049, Note_on_c, 9, 44, 0
15, 41240, Note_on_c, 9, 57, 84
15, 41240, Note_on_c, 9, 36, 78
15, 41249, Note_on_c, 9, 57, 0
15, 41249, Note_on_c, 9, 36, 0
15, 41280, Note_on_c, 9, 44, 110
15, 41289, Note_on_c, 9, 44, 0
15, 41400, Note_on_c, 9, 36, 79
15, 41400, Note_on_c, 9, 57, 69
15, 41409, Note_on_c, 9, 36, 0
15, 41409, Note_on_c, 9, 57, 0
15, 41518, Note_on_c, 9, 49, 54
15, 41520, Note_on_c, 9, 44, 106
15, 41527, Note_on_c, 9, 49, 0
15, 41529, Note_on_c, 9, 44, 0
15, 41639, Note_on_c, 9, 40, 84
15, 41648, Note_on_c, 9, 40, 0
15, 41719, Note_on_c, 9, 51, 85
15, 41723, Note_on_c, 9, 40, 51
15, 41728, Note_on_c, 9, 51, 0
15, 41732, Note_on_c, 9, 40, 0
15, 41760, Note_on_c, 9, 44, 122
15, 41764, Note_on_c, 9, 51, 122
15, 41769, Note_on_c, 9, 44, 0
15, 41773, Note_on_c, 9, 51, 0
15, 41839, Note_on_c, 9, 40, 127
15, 41848, Note_on_c, 9, 40, 0
15, 41920, Note_on_c, 9, 36, 46
15, 41929, Note_on_c, 9, 36, 0
15, 41960, Note_on_c, 9, 36, 51
15, 41969, Note_on_c, 9, 36, 0
15, 42000, Note_on_c, 9, 44, 110
15, 42009, Note_on_c, 9, 44, 0
15, 42040, Note_on_c, 9, 36, 58
15, 42049, Note_on_c, 9, 36, 0
15, 42113, Note_on_c, 9, 49, 67
15, 42120, Note_on_c, 9, 36, 70
15, 42122, Note_on_c, 9, 49, 0
15, 42129, Note_on_c, 9, 36, 0
15, 42240, Note_on_c, 9, 44, 106
15, 42249, Note_on_c, 9, 44, 0
15, 42280, Note_on_c, 9, 48, 44
15, 42289, Note_on_c, 9, 48, 0
15, 42320, Note_on_c, 9, 48, 53
15, 42329, Note_on_c, 9, 48, 0
15, 42360, Note_on_c, 9, 48, 127
15, 42369, Note_on_c, 9, 48, 0
15, 42440, Note_on_c, 9, 48, 127
15, 42449, Note_on_c, 9, 48, 0
15, 42480, Note_on_c, 9, 44, 110
15, 42489, Note_on_c, 9, 44, 0
15, 42520, Note_on_c, 9, 45, 33
15, 42529, Note_on_c, 9, 45, 0
15, 42560, Note_on_c, 9, 45, 49
15, 42569, Note_on_c, 9, 45, 0
15, 42596, Note_on_c, 9, 36, 60
15, 42600, Note_on_c, 9, 45, 65
15, 42605, Note_on_c, 9, 36, 0
15, 42609, Note_on_c, 9, 45, 0
15, 42640, Note_on_c, 9, 45, 72
15, 42649, Note_on_c, 9, 45, 0
15, 42680, Note_on_c, 9, 45, 127
15, 42689, Note_on_c, 9, 45, 0
15, 42720, Note_on_c, 9, 44, 100
15, 42729, Note_on_c, 9, 44, 0
15, 42760, Note_on_c, 9, 45, 34
15, 42769, Note_on_c, 9, 45, 0
15, 42800, Note_on_c, 9, 45, 59
15, 42809, Note_on_c, 9, 45, 0
15, 42840, Note_on_c, 9, 45, 127
15, 42849, Note_on_c, 9, 45, 0
15, 42880, Note_on_c, 9, 45, 127
15, 42889, Note_on_c, 9, 45, 0
15, 42920, Note_on_c, 9, 43, 92
15, 42929, Note_on_c, 9, 43, 0
15, 42960, Note_on_c, 9, 44, 87
15, 42960, Note_on_c, 9, 43, 84
15, 42969, Note_on_c, 9, 44, 0
15, 42969, Note_on_c, 9, 43, 0
15, 43000, Note_on_c, 9, 43, 122
15, 43009, Note_on_c, 9, 43, 0
15, 43040, Note_on_c, 9, 52, 100
15, 43040, Note_on_c, 9, 36, 100
15, 43049, Note_on_c, 9, 52, 0
15, 43049, Note_on_c, 9, 36, 0
15, 43200, Note_on_c, 9, 40, 58
15, 43200, Note_on_c, 9, 36, 50
15, 43208, Note_on_c, 9, 51, 57
15, 43209, Note_on_c, 9, 40, 0
15, 43209, Note_on_c, 9, 36, 0
15, 43217, Note_on_c, 9, 51, 0
15, 43280, Note_on_c, 9, 40, 70
15, 43289, Note_on_c, 9, 40, 0
15, 43320, Note_on_c, 9, 36, 63
15, 43329, Note_on_c, 9, 36, 0
15, 43330, Note_on_c, 9, 51, 68
15, 43339, Note_on_c, 9, 51, 0
15, 43400, Note_on_c, 9, 40, 23
15, 43409, Note_on_c, 9, 40, 0
15, 43440, Note_on_c, 9, 36, 67
15, 43440, Note_on_c, 9, 40, 81
15, 43446, Note_on_c, 9, 51, 74
15, 43449, Note_on_c, 9, 36, 0
15, 43449, Note_on_c, 9, 40, 0
15, 43455, Note_on_c, 9, 51, 0
15, 43514, Note_on_c, 9, 51, 44
15, 43523, Note_on_c, 9, 51, 0
15, 43560, Note_on_c, 9, 36, 61
15, 43560, Note_on_c, 9, 51, 82
15, 43569, Note_on_c, 9, 36, 0
15, 43569, Note_on_c, 9, 51, 0
15, 43640, Note_on_c, 9, 40, 30
15, 43649, Note_on_c, 9, 40, 0
15, 43677, Note_on_c, 9, 51, 74
15, 43680, Note_on_c, 9, 40, 84
15, 43680, Note_on_c, 9, 36, 61
15, 43686, Note_on_c, 9, 51, 0
15, 43689, Note_on_c, 9, 40, 0
15, 43689, Note_on_c, 9, 36, 0
15, 43756, Note_on_c, 9, 51, 40
15, 43765, Note_on_c, 9, 51, 0
15, 43800, Note_on_c, 9, 51, 96
15, 43800, Note_on_c, 9, 36, 63
15, 43800, Note_on_c, 9, 40, 56
15, 43809, Note_on_c, 9, 51, 0
15, 43809, Note_on_c, 9, 36, 0
15, 43809, Note_on_c, 9, 40, 0
15, 43840, Note_on_c, 9, 40, 68
15, 43849, Note_on_c, 9, 40, 0
15, 43871, Note_on_c, 9, 51, 71
15, 43880, Note_on_c, 9, 51, 0
15, 43920, Note_on_c, 9, 36, 64
15, 43929, Note_on_c, 9, 36, 0
15, 43993, Note_on_c, 9, 51, 44
15, 44002, Note_on_c, 9, 51, 0
15, 44038, Note_on_c, 9, 51, 82
15, 44040, Note_on_c, 9, 54, 38
15, 44047, Note_on_c, 9, 51, 0
15, 44049, Note_on_c, 9, 54, 0
15, 44052, Note_on_c, 9, 54, 77
15, 44061, Note_on_c, 9, 54, 0
15, 44160, Note_on_c, 9, 54, 50
15, 44167, Note_on_c, 9, 54, 0
15, 44168, Note_on_c, 9, 54, 100
15, 44177, Note_on_c, 9, 54, 0
15, 44280, Note_on_c, 9, 54, 50
15, 44289, Note_on_c, 9, 54, 0
15, 44293, Note_on_c, 9, 54, 100
15, 44302, Note_on_c, 9, 54, 0
15, 44482, Note_on_c, 9, 51, 35
15, 44491, Note_on_c, 9, 51, 0
15, 44520, Note_on_c, 9, 36, 50
15, 44523, Note_on_c, 9, 51, 74
15, 44529, Note_on_c, 9, 36, 0
15, 44532, Note_on_c, 9, 51, 0
15, 44595, Note_on_c, 9, 51, 64
15, 44600, Note_on_c, 9, 40, 23
15, 44604, Note_on_c, 9, 51, 0
15, 44609, Note_on_c, 9, 40, 0
15, 44637, Note_on_c, 9, 51, 61
15, 44640, Note_on_c, 9, 40, 92
15, 44640, Note_on_c, 9, 36, 53
15, 44646, Note_on_c, 9, 51, 0
15, 44649, Note_on_c, 9, 40, 0
15, 44649, Note_on_c, 9, 36, 0
15, 44715, Note_on_c, 9, 51, 88
15, 44724, Note_on_c, 9, 51, 0
15, 44760, Note_on_c, 9, 36, 68
15, 44769, Note_on_c, 9, 36, 0
15, 44834, Note_on_c, 9, 51, 40
15, 44840, Note_on_c, 9, 40, 93
15, 44843, Note_on_c, 9, 51, 0
15, 44849, Note_on_c, 9, 40, 0
15, 44878, Note_on_c, 9, 51, 98
15, 44880, Note_on_c, 9, 36, 61
15, 44887, Note_on_c, 9, 51, 0
15, 44889, Note_on_c, 9, 36, 0
15, 44947, Note_on_c, 9, 51, 36
15, 44956, Note_on_c, 9, 51, 0
15, 44996, Note_on_c, 9, 51, 78
15, 45000, Note_on_c, 9, 36, 68
15, 45005, Note_on_c, 9, 51, 0
15, 45009, Note_on_c, 9, 36, 0
15, 45080, Note_on_c, 9, 40, 51
15, 45089, Note_on_c, 9, 40, 0
15, 45112, Note_on_c, 9, 51, 68
15, 45120, Note_on_c, 9, 40, 63
15, 45120, Note_on_c, 9, 36, 64
15, 45121, Note_on_c, 9, 51, 0
15, 45129, Note_on_c, 9, 40, 0
15, 45129, Note_on_c, 9, 36, 0
15, 45186, Note_on_c, 9, 51, 42
15, 45195, Note_on_c, 9, 51, 0
15, 45235, Note_on_c, 9, 51, 50
15, 45240, Note_on_c, 9, 36, 70
15, 45244, Note_on_c, 9, 51, 0
15, 45249, Note_on_c, 9, 36, 0
15, 45312, Note_on_c, 9, 51, 70
15, 45320, Note_on_c, 9, 40, 40
15, 45321, Note_on_c, 9, 51, 0
15, 45329, Note_on_c, 9, 40, 0
15, 45357, Note_on_c, 9, 51, 119
15, 45360, Note_on_c, 9, 36, 71
15, 45360, Note_on_c, 9, 40, 65
15, 45366, Note_on_c, 9, 51, 0
15, 45369, Note_on_c, 9, 36, 0
15, 45369, Note_on_c, 9, 40, 0
15, 45434, Note_on_c, 9, 51, 40
15, 45440, Note_on_c, 9, 40, 100
15, 45443, Note_on_c, 9, 51, 0
15, 45449, Note_on_c, 9, 40, 0
15, 45480, Note_on_c, 9, 36, 64
15, 45481, Note_on_c, 9, 51, 51
15, 45489, Note_on_c, 9, 36, 0
15, 45490, Note_on_c, 9, 51, 0
15, 45559, Note_on_c, 9, 51, 93
15, 45560, Note_on_c, 9, 40, 29
15, 45568, Note_on_c, 9, 51, 0
15, 45569, Note_on_c, 9, 40, 0
15, 45600, Note_on_c, 9, 40, 33
15, 45600, Note_on_c, 9, 36, 51
15, 45609, Note_on_c, 9, 40, 0
15, 45609, Note_on_c, 9, 36, 0
15, 45669, Note_on_c, 9, 51, 33
15, 45678, Note_on_c, 9, 51, 0
15, 45715, Note_on_c, 9, 51, 71
15, 45720, Note_on_c, 9, 36, 75
15, 45720, Note_on_c, 9, 40, 74
15, 45724, Note_on_c, 9, 51, 0
15, 45729, Note_on_c, 9, 36, 0
15, 45729, Note_on_c, 9, 40, 0
15, 45787, Note_on_c, 9, 51, 127
15, 45796, Note_on_c, 9, 51, 0
15, 45840, Note_on_c, 9, 36, 74
15, 45849, Note_on_c, 9, 36, 0
15, 45907, Note_on_c, 9, 51, 44
15, 45916, Note_on_c, 9, 51, 0
15, 45920, Note_on_c, 9, 40, 57
15, 45929, Note_on_c, 9, 40, 0
15, 45949, Note_on_c, 9, 51, 74
15, 45958, Note_on_c, 9, 51, 0
15, 45960, Note_on_c, 9, 36, 64
15, 45969, Note_on_c, 9, 36, 0
15, 46069, Note_on_c, 9, 51, 64
15, 46078, Note_on_c, 9, 51, 0
15, 46080, Note_on_c, 9, 36, 70
15, 46089, Note_on_c, 9, 36, 0
15, 46154, Note_on_c, 9, 51, 37
15, 46160, Note_on_c, 9, 40, 44
15, 46163, Note_on_c, 9, 51, 0
15, 46169, Note_on_c, 9, 40, 0
15, 46194, Note_on_c, 9, 51, 74
15, 46200, Note_on_c, 9, 36, 72
15, 46200, Note_on_c, 9, 40, 53
15, 46203, Note_on_c, 9, 51, 0
15, 46209, Note_on_c, 9, 36, 0
15, 46209, Note_on_c, 9, 40, 0
15, 46271, Note_on_c, 9, 51, 60
15, 46280, Note_on_c, 9, 51, 0
15, 46280, Note_on_c, 9, 40, 126
15, 46289, Note_on_c, 9, 40, 0
15, 46316, Note_on_c, 9, 51, 60
15, 46320, Note_on_c, 9, 36, 75
15, 46325, Note_on_c, 9, 51, 0
15, 46329, Note_on_c, 9, 36, 0
15, 46390, Note_on_c, 9, 51, 47
15, 46399, Note_on_c, 9, 51, 0
15, 46437, Note_on_c, 9, 51, 96
15, 46440, Note_on_c, 9, 36, 74
15, 46446, Note_on_c, 9, 51, 0
15, 46449, Note_on_c, 9, 36, 0
15, 46514, Note_on_c, 9, 51, 53
15, 46520, Note_on_c, 9, 40, 36
15, 46523, Note_on_c, 9, 51, 0
15, 46529, Note_on_c, 9, 40, 0
15, 46560, Note_on_c, 9, 40, 57
15, 46560, Note_on_c, 9, 51, 67
15, 46560, Note_on_c, 9, 36, 70
15, 46569, Note_on_c, 9, 40, 0
15, 46569, Note_on_c, 9, 51, 0
15, 46569, Note_on_c, 9, 36, 0
15, 46600, Note_on_c, 9, 51, 63
15, 46609, Note_on_c, 9, 51, 0
15, 46640, Note_on_c, 9, 51, 57
15, 46640, Note_on_c, 9, 40, 67
15, 46649, Note_on_c, 9, 51, 0
15, 46649, Note_on_c, 9, 40, 0
15, 46680, Note_on_c, 9, 36, 70
15, 46680, Note_on_c, 9, 51, 67
15, 46689, Note_on_c, 9, 36, 0
15, 46689, Note_on_c, 9, 51, 0
15, 46720, Note_on_c, 9, 51, 63
15, 46729, Note_on_c, 9, 51, 0
15, 46760, Note_on_c, 9, 51, 58
15, 46769, Note_on_c, 9, 51, 0
15, 46800, Note_on_c, 9, 36, 72
15, 46800, Note_on_c, 9, 40, 63
15, 46800, Note_on_c, 9, 51, 70
15, 46809, Note_on_c, 9, 36, 0
15, 46809, Note_on_c, 9, 40, 0
15, 46809, Note_on_c, 9, 51, 0
15, 46840, Note_on_c, 9, 51, 61
15, 46849, Note_on_c, 9, 51, 0
15, 46880, Note_on_c, 9, 51, 71
15, 46889, Note_on_c, 9, 51, 0
15, 46920, Note_on_c, 9, 51, 82
15, 46920, Note_on_c, 9, 36, 71
15, 46929, Note_on_c, 9, 51, 0
15, 46929, Note_on_c, 9, 36, 0
15, 47000, Note_on_c, 9, 40, 68
15, 47009, Note_on_c, 9, 40, 0
15, 47037, Note_on_c, 9, 51, 96
15, 47040, Note_on_c, 9, 36, 71
15, 47046, Note_on_c, 9, 51, 0
15, 47049, Note_on_c, 9, 36, 0
15, 47111, Note_on_c, 9, 51, 46
15, 47120, Note_on_c, 9, 51, 0
15, 47120, Note_on_c, 9, 40, 36
15, 47129, Note_on_c, 9, 40, 0
15, 47156, Note_on_c, 9, 51, 67
15, 47160, Note_on_c, 9, 36, 68
15, 47165, Note_on_c, 9, 51, 0
15, 47169, Note_on_c, 9, 36, 0
15, 47234, Note_on_c, 9, 51, 57
15, 47240, Note_on_c, 9, 40, 47
15, 47243, Note_on_c, 9, 51, 0
15, 47249, Note_on_c, 9, 40, 0
15, 47280, Note_on_c, 9, 36, 82
15, 47280, Note_on_c, 9, 40, 81
15, 47289, Note_on_c, 9, 36, 0
15, 47289, Note_on_c, 9, 40, 0
15, 47353, Note_on_c, 9, 51, 64
15, 47360, Note_on_c, 9, 40, 127
15, 47362, Note_on_c, 9, 51, 0
15, 47369, Note_on_c, 9, 40, 0
15, 47397, Note_on_c, 9, 51, 54
15, 47400, Note_on_c, 9, 36, 77
15, 47406, Note_on_c, 9, 51, 0
15, 47409, Note_on_c, 9, 36, 0
15, 47481, Note_on_c, 9, 51, 43
15, 47490, Note_on_c, 9, 51, 0
15, 47520, Note_on_c, 9, 36, 65
15, 47522, Note_on_c, 9, 51, 119
15, 47529, Note_on_c, 9, 36, 0
15, 47531, Note_on_c, 9, 51, 0
15, 47560, Note_on_c, 9, 40, 40
15, 47569, Note_on_c, 9, 40, 0
15, 47600, Note_on_c, 9, 40, 61
15, 47602, Note_on_c, 9, 51, 43
15, 47609, Note_on_c, 9, 40, 0
15, 47611, Note_on_c, 9, 51, 0
15, 47640, Note_on_c, 9, 36, 68
15, 47640, Note_on_c, 9, 40, 107
15, 47647, Note_on_c, 9, 51, 54
15, 47649, Note_on_c, 9, 36, 0
15, 47649, Note_on_c, 9, 40, 0
15, 47656, Note_on_c, 9, 51, 0
15, 47721, Note_on_c, 9, 51, 67
15, 47730, Note_on_c, 9, 51, 0
15, 47758, Note_on_c, 9, 51, 86
15, 47760, Note_on_c, 9, 36, 60
15, 47767, Note_on_c, 9, 51, 0
15, 47769, Note_on_c, 9, 36, 0
15, 47831, Note_on_c, 9, 51, 50
15, 47840, Note_on_c, 9, 51, 0
15, 47840, Note_on_c, 9, 40, 36
15, 47849, Note_on_c, 9, 40, 0
15, 47879, Note_on_c, 9, 51, 47
15, 47880, Note_on_c, 9, 40, 46
15, 47880, Note_on_c, 9, 36, 72
15, 47888, Note_on_c, 9, 51, 0
15, 47889, Note_on_c, 9, 40, 0
15, 47889, Note_on_c, 9, 36, 0
15, 47951, Note_on_c, 9, 51, 46
15, 47960, Note_on_c, 9, 51, 0
15, 47960, Note_on_c, 9, 40, 88
15, 47969, Note_on_c, 9, 40, 0
15, 47995, Note_on_c, 9, 51, 84
15, 48000, Note_on_c, 9, 36, 75
15, 48004, Note_on_c, 9, 51, 0
15, 48009, Note_on_c, 9, 36, 0
15, 48067, Note_on_c, 9, 51, 53
15, 48076, Note_on_c, 9, 51, 0
15, 48114, Note_on_c, 9, 51, 58
15, 48120, Note_on_c, 9, 36, 75
15, 48123, Note_on_c, 9, 51, 0
15, 48129, Note_on_c, 9, 36, 0
15, 48194, Note_on_c, 9, 51, 102
15, 48200, Note_on_c, 9, 40, 36
15, 48203, Note_on_c, 9, 51, 0
15, 48209, Note_on_c, 9, 40, 0
15, 48240, Note_on_c, 9, 40, 60
15, 48240, Note_on_c, 9, 36, 72
15, 48249, Note_on_c, 9, 40, 0
15, 48249, Note_on_c, 9, 36, 0
15, 48321, Note_on_c, 9, 53, 34
15, 48330, Note_on_c, 9, 53, 0
15, 48360, Note_on_c, 9, 36, 68
15, 48362, Note_on_c, 9, 53, 63
15, 48369, Note_on_c, 9, 36, 0
15, 48371, Note_on_c, 9, 53, 0
15, 48445, Note_on_c, 9, 53, 31
15, 48454, Note_on_c, 9, 53, 0
15, 48480, Note_on_c, 9, 36, 72
15, 48480, Note_on_c, 9, 40, 57
15, 48480, Note_on_c, 9, 53, 78
15, 48489, Note_on_c, 9, 36, 0
15, 48489, Note_on_c, 9, 40, 0
15, 48489, Note_on_c, 9, 53, 0
15, 48559, Note_on_c, 9, 53, 37
15, 48568, Note_on_c, 9, 53, 0
15, 48600, Note_on_c, 9, 40, 68
15, 48600, Note_on_c, 9, 36, 71
15, 48601, Note_on_c, 9, 53, 76
15, 48609, Note_on_c, 9, 40, 0
15, 48609, Note_on_c, 9, 36, 0
15, 48610, Note_on_c, 9, 53, 0
15, 48674, Note_on_c, 9, 53, 40
15, 48683, Note_on_c, 9, 53, 0
15, 48716, Note_on_c, 9, 53, 72
15, 48720, Note_on_c, 9, 36, 67
15, 48725, Note_on_c, 9, 53, 0
15, 48729, Note_on_c, 9, 36, 0
15, 48840, Note_on_c, 9, 36, 78
15, 48841, Note_on_c, 9, 53, 51
15, 48849, Note_on_c, 9, 36, 0
15, 48850, Note_on_c, 9, 53, 0
15, 48920, Note_on_c, 9, 53, 87
15, 48920, Note_on_c, 9, 40, 33
15, 48929, Note_on_c, 9, 53, 0
15, 48929, Note_on_c, 9, 40, 0
15, 48960, Note_on_c, 9, 36, 70
15, 48960, Note_on_c, 9, 40, 47
15, 48969, Note_on_c, 9, 36, 0
15, 48969, Note_on_c, 9, 40, 0
15, 49040, Note_on_c, 9, 40, 127
15, 49049, Note_on_c, 9, 40, 0
15, 49080, Note_on_c, 9, 36, 77
15, 49084, Note_on_c, 9, 53, 67
15, 49089, Note_on_c, 9, 36, 0
15, 49093, Note_on_c, 9, 53, 0
15, 49191, Note_on_c, 9, 53, 61
15, 49200, Note_on_c, 9, 53, 0
15, 49200, Note_on_c, 9, 36, 72
15, 49209, Note_on_c, 9, 36, 0
15, 49276, Note_on_c, 9, 53, 32
15, 49280, Note_on_c, 9, 40, 75
15, 49285, Note_on_c, 9, 53, 0
15, 49289, Note_on_c, 9, 40, 0
15, 49318, Note_on_c, 9, 53, 53
15, 49320, Note_on_c, 9, 36, 72
15, 49327, Note_on_c, 9, 53, 0
15, 49329, Note_on_c, 9, 36, 0
15, 49429, Note_on_c, 9, 53, 49
15, 49438, Note_on_c, 9, 53, 0
15, 49440, Note_on_c, 9, 36, 75
15, 49449, Note_on_c, 9, 36, 0
15, 49513, Note_on_c, 9, 53, 47
15, 49522, Note_on_c, 9, 53, 0
15, 49551, Note_on_c, 9, 53, 62
15, 49560, Note_on_c, 9, 53, 0
15, 49560, Note_on_c, 9, 36, 77
15, 49569, Note_on_c, 9, 36, 0
15, 49600, Note_on_c, 9, 40, 60
15, 49609, Note_on_c, 9, 40, 0
15, 49630, Note_on_c, 9, 53, 87
15, 49639, Note_on_c, 9, 53, 0
15, 49640, Note_on_c, 9, 40, 81
15, 49649, Note_on_c, 9, 40, 0
15, 49680, Note_on_c, 9, 36, 85
15, 49689, Note_on_c, 9, 36, 0
15, 49753, Note_on_c, 9, 53, 51
15, 49760, Note_on_c, 9, 40, 74
15, 49762, Note_on_c, 9, 53, 0
15, 49769, Note_on_c, 9, 40, 0
15, 49788, Note_on_c, 9, 47, 92
15, 49790, Note_on_c, 9, 36, 87
15, 49792, Note_on_c, 9, 52, 127
15, 49797, Note_on_c, 9, 47, 0
15, 49799, Note_on_c, 9, 36, 0
15, 49801, Note_on_c, 9, 52, 0
15, 49903, Note_on_c, 9, 47, 97
15, 49907, Note_on_c, 9, 36, 92
15, 49912, Note_on_c, 9, 47, 0
15, 49916, Note_on_c, 9, 36, 0
15, 50029, Note_on_c, 9, 36, 106
15, 50029, Note_on_c, 9, 47, 122
15, 50032, Note_on_c, 9, 58, 127
15, 50038, Note_on_c, 9, 36, 0
15, 50038, Note_on_c, 9, 47, 0
15, 50041, Note_on_c, 9, 58, 0
15, 50150, Note_on_c, 9, 47, 122
15, 50152, Note_on_c, 9, 36, 94
15, 50159, Note_on_c, 9, 47, 0
15, 50161, Note_on_c, 9, 36, 0
15, 50272, Note_on_c, 9, 52, 127
15, 50276, Note_on_c, 9, 47, 122
15, 50278, Note_on_c, 9, 36, 97
15, 50281, Note_on_c, 9, 52, 0
15, 50285, Note_on_c, 9, 47, 0
15, 50287, Note_on_c, 9, 36, 0
15, 50401, Note_on_c, 9, 47, 122
15, 50403, Note_on_c, 9, 36, 100
15, 50410, Note_on_c, 9, 47, 0
15, 50412, Note_on_c, 9, 36, 0
15, 50519, Note_on_c, 9, 47, 127
15, 50520, Note_on_c, 9, 36, 110
15, 50524, Note_on_c, 9, 58, 127
15, 50528, Note_on_c, 9, 47, 0
15, 50529, Note_on_c, 9, 36, 0
15, 50533, Note_on_c, 9, 58, 0
15, 50640, Note_on_c, 9, 47, 127
15, 50645, Note_on_c, 9, 36, 122
15, 50649, Note_on_c, 9, 47, 0
15, 50654, Note_on_c, 9, 36, 0
15, 51731, Note_on_c, 9, 51, 60
15, 51750, Note_on_c, 9, 51, 0
15, 51751, Note_on_c, 9, 51, 53
15, 51771, Note_on_c, 9, 51, 0
15, 51772, Note_on_c, 9, 51, 46
15, 51792, Note_on_c, 9, 51, 0
15, 51793, Note_on_c, 9, 51, 48
15, 51813, Note_on_c, 9, 51, 0
15, 51814, Note_on_c, 9, 51, 39
15, 51835, Note_on_c, 9, 51, 0
15, 51836, Note_on_c, 9, 51, 46
15, 51856, Note_on_c, 9, 51, 0
15, 51857, Note_on_c, 9, 51, 54
15, 51877, Note_on_c, 9, 51, 0
15, 51878, Note_on_c, 9, 51, 60
15, 51898, Note_on_c, 9, 51, 0
15, 51899, Note_on_c, 9, 51, 68
15, 51919, Note_on_c, 9, 51, 0
15, 51920, Note_on_c, 9, 51, 73
15, 51940, Note_on_c, 9, 51, 0
15, 51941, Note_on_c, 9, 51, 64
15, 51961, Note_on_c, 9, 51, 0
15, 51962, Note_on_c, 9, 51, 92
15, 51982, Note_on_c, 9, 51, 0
15, 51983, Note_on_c, 9, 51, 118
15, 52003, Note_on_c, 9, 51, 0
15, 52004, Note_on_c, 9, 51, 100
15, 52024, Note_on_c, 9, 51, 0
15, 52025, Note_on_c, 9, 51, 110
15, 52045, Note_on_c, 9, 51, 0
15, 52046, Note_on_c, 9, 51, 118
15, 52067, Note_on_c, 9, 51, 0
15, 52068, Note_on_c, 9, 51, 127
15, 52088, Note_on_c, 9, 51, 0
15, 52089, Note_on_c, 9, 51, 122
15, 52109, Note_on_c, 9, 51, 0
15, 52110, Note_on_c, 9, 51, 127
15, 52130, Note_on_c, 9, 51, 0
15, 52131, Note_on_c, 9, 51, 127
15, 52151, Note_on_c, 9, 51, 0
15, 52152, Note_on_c, 9, 51, 127
15, 52172, Note_on_c, 9, 51, 0
15, 52173, Note_on_c, 9, 51, 127
15, 52193, Note_on_c, 9, 51, 0
15, 52194, Note_on_c, 9, 51, 127
15, 52213, Note_on_c, 9, 51, 0
15, 52214, Note_on_c, 9, 51, 127
15, 52235, Note_on_c, 9, 51, 0
15, 52236, Note_on_c, 9, 51, 127
15, 52256, Note_on_c, 9, 51, 0
15, 52257, Note_on_c, 9, 51, 127
15, 52277, Note_on_c, 9, 51, 0
15, 52278, Note_on_c, 9, 51, 127
15, 52298, Note_on_c, 9, 51, 0
15, 52300, Note_on_c, 9, 51, 127
15, 52319, Note_on_c, 9, 51, 0
15, 52320, Note_on_c, 9, 51, 127
15, 52340, Note_on_c, 9, 51, 0
15, 52342, Note_on_c, 9, 51, 127
15, 52362, Note_on_c, 9, 51, 0
15, 52363, Note_on_c, 9, 51, 127
15, 52383, Note_on_c, 9, 51, 0
15, 52384, Note_on_c, 9, 51, 127
15, 52403, Note_on_c, 9, 51, 0
15, 52404, Note_on_c, 9, 51, 127
15, 52424, Note_on_c, 9, 51, 0
15, 52425, Note_on_c, 9, 51, 127
15, 52446, Note_on_c, 9, 51, 0
15, 52447, Note_on_c, 9, 51, 127
15, 52467, Note_on_c, 9, 51, 0
15, 52468, Note_on_c, 9, 51, 127
15, 52488, Note_on_c, 9, 51, 0
15, 52489, Note_on_c, 9, 51, 127
15, 52509, Note_on_c, 9, 51, 0
15, 52510, Note_on_c, 9, 51, 127
15, 52520, Note_on_c, 9, 40, 100
15, 52520, Note_on_c, 9, 36, 100
15, 52520, Note_on_c, 9, 49, 87
15, 52529, Note_on_c, 9, 40, 0
15, 52529, Note_on_c, 9, 36, 0
15, 52529, Note_on_c, 9, 49, 0
15, 52530, Note_on_c, 9, 51, 0
15, 52640, Note_on_c, 9, 40, 100
15, 52640, Note_on_c, 9, 36, 100
15, 52649, Note_on_c, 9, 40, 0
15, 52649, Note_on_c, 9, 36, 0
15, 52800, Note_on_c, 9, 36, 92
15, 52800, Note_on_c, 9, 42, 127
15, 52800, Note_on_c, 9, 63, 85
15, 52809, Note_on_c, 9, 36, 0
15, 52809, Note_on_c, 9, 42, 0
15, 52809, Note_on_c, 9, 63, 0
15, 52840, Note_on_c, 9, 42, 127
15, 52849, Note_on_c, 9, 42, 0
15, 52880, Note_on_c, 9, 42, 127
15, 52880, Note_on_c, 9, 63, 85
15, 52880, Note_on_c, 9, 40, 94
15, 52889, Note_on_c, 9, 42, 0
15, 52889, Note_on_c, 9, 63, 0
15, 52889, Note_on_c, 9, 40, 0
15, 52920, Note_on_c, 9, 36, 84
15, 52920, Note_on_c, 9, 44, 127
15, 52929, Note_on_c, 9, 36, 0
15, 52929, Note_on_c, 9, 44, 0
15, 53000, Note_on_c, 9, 40, 90
15, 53009, Note_on_c, 9, 40, 0
15, 53040, Note_on_c, 9, 36, 94
15, 53040, Note_on_c, 9, 42, 127
15, 53040, Note_on_c, 9, 64, 94
15, 53049, Note_on_c, 9, 36, 0
15, 53049, Note_on_c, 9, 42, 0
15, 53049, Note_on_c, 9, 64, 0
15, 53080, Note_on_c, 9, 42, 127
15, 53089, Note_on_c, 9, 42, 0
15, 53120, Note_on_c, 9, 42, 127
15, 53129, Note_on_c, 9, 42, 0
15, 53160, Note_on_c, 9, 36, 92
15, 53160, Note_on_c, 9, 44, 127
15, 53169, Note_on_c, 9, 36, 0
15, 53169, Note_on_c, 9, 44, 0
15, 53240, Note_on_c, 9, 40, 52
15, 53249, Note_on_c, 9, 40, 0
15, 53280, Note_on_c, 9, 42, 127
15, 53280, Note_on_c, 9, 40, 60
15, 53280, Note_on_c, 9, 63, 80
15, 53280, Note_on_c, 9, 36, 84
15, 53289, Note_on_c, 9, 42, 0
15, 53289, Note_on_c, 9, 40, 0
15, 53289, Note_on_c, 9, 63, 0
15, 53289, Note_on_c, 9, 36, 0
15, 53320, Note_on_c, 9, 42, 118
15, 53329, Note_on_c, 9, 42, 0
15, 53360, Note_on_c, 9, 42, 127
15, 53360, Note_on_c, 9, 63, 94
15, 53360, Note_on_c, 9, 40, 94
15, 53369, Note_on_c, 9, 42, 0
15, 53369, Note_on_c, 9, 63, 0
15, 53369, Note_on_c, 9, 40, 0
15, 53400, Note_on_c, 9, 36, 90
15, 53400, Note_on_c, 9, 44, 127
15, 53409, Note_on_c, 9, 36, 0
15, 53409, Note_on_c, 9, 44, 0
15, 53480, Note_on_c, 9, 40, 56
15, 53480, Note_on_c, 9, 62, 77
15, 53489, Note_on_c, 9, 40, 0
15, 53489, Note_on_c, 9, 62, 0
15, 53520, Note_on_c, 9, 36, 74
15, 53520, Note_on_c, 9, 40, 77
15, 53520, Note_on_c, 9, 42, 127
15, 53520, Note_on_c, 9, 64, 110
15, 53529, Note_on_c, 9, 36, 0
15, 53529, Note_on_c, 9, 40, 0
15, 53529, Note_on_c, 9, 42, 0
15, 53529, Note_on_c, 9, 64, 0
15, 53560, Note_on_c, 9, 42, 127
15, 53560, Note_on_c, 9, 40, 84
15, 53569, Note_on_c, 9, 42, 0
15, 53569, Note_on_c, 9, 40, 0
15, 53600, Note_on_c, 9, 40, 97
15, 53600, Note_on_c, 9, 42, 127
15, 53609, Note_on_c, 9, 40, 0
15, 53609, Note_on_c, 9, 42, 0
15, 53640, Note_on_c, 9, 44, 127
15, 53640, Note_on_c, 9, 36, 97
15, 53649, Note_on_c, 9, 44, 0
15, 53649, Note_on_c, 9, 36, 0
15, 53760, Note_on_c, 9, 42, 127
15, 53760, Note_on_c, 9, 63, 92
15, 53760, Note_on_c, 9, 36, 90
15, 53769, Note_on_c, 9, 42, 0
15, 53769, Note_on_c, 9, 63, 0
15, 53769, Note_on_c, 9, 36, 0
15, 53800, Note_on_c, 9, 42, 127
15, 53800, Note_on_c, 9, 40, 56
15, 53809, Note_on_c, 9, 42, 0
15, 53809, Note_on_c, 9, 40, 0
15, 53840, Note_on_c, 9, 63, 87
15, 53840, Note_on_c, 9, 42, 127
15, 53840, Note_on_c, 9, 40, 103
15, 53849, Note_on_c, 9, 63, 0
15, 53849, Note_on_c, 9, 42, 0
15, 53849, Note_on_c, 9, 40, 0
15, 53880, Note_on_c, 9, 40, 100
15, 53880, Note_on_c, 9, 36, 87
15, 53880, Note_on_c, 9, 44, 127
15, 53889, Note_on_c, 9, 40, 0
15, 53889, Note_on_c, 9, 36, 0
15, 53889, Note_on_c, 9, 44, 0
15, 53960, Note_on_c, 9, 40, 127
15, 53969, Note_on_c, 9, 40, 0
15, 54000, Note_on_c, 9, 64, 90
15, 54000, Note_on_c, 9, 36, 87
15, 54000, Note_on_c, 9, 42, 127
15, 54009, Note_on_c, 9, 64, 0
15, 54009, Note_on_c, 9, 36, 0
15, 54009, Note_on_c, 9, 42, 0
15, 54040, Note_on_c, 9, 42, 127
15, 54049, Note_on_c, 9, 42, 0
15, 54080, Note_on_c, 9, 42, 127
15, 54089, Note_on_c, 9, 42, 0
15, 54120, Note_on_c, 9, 44, 127
15, 54120, Note_on_c, 9, 36, 90
15, 54129, Note_on_c, 9, 44, 0
15, 54129, Note_on_c, 9, 36, 0
15, 54240, Note_on_c, 9, 36, 77
15, 54240, Note_on_c, 9, 42, 127
15, 54240, Note_on_c, 9, 63, 97
15, 54249, Note_on_c, 9, 36, 0
15, 54249, Note_on_c, 9, 42, 0
15, 54249, Note_on_c, 9, 63, 0
15, 54280, Note_on_c, 9, 42, 127
15, 54289, Note_on_c, 9, 42, 0
15, 54320, Note_on_c, 9, 63, 80
15, 54320, Note_on_c, 9, 42, 127
15, 54329, Note_on_c, 9, 63, 0
15, 54329, Note_on_c, 9, 42, 0
15, 54360, Note_on_c, 9, 40, 94
15, 54360, Note_on_c, 9, 44, 127
15, 54360, Note_on_c, 9, 36, 77
15, 54369, Note_on_c, 9, 40, 0
15, 54369, Note_on_c, 9, 44, 0
15, 54369, Note_on_c, 9, 36, 0
15, 54400, Note_on_c, 9, 40, 90
15, 54409, Note_on_c, 9, 40, 0
15, 54440, Note_on_c, 9, 40, 85
15, 54440, Note_on_c, 9, 62, 68
15, 54449, Note_on_c, 9, 40, 0
15, 54449, Note_on_c, 9, 62, 0
15, 54480, Note_on_c, 9, 36, 80
15, 54480, Note_on_c, 9, 42, 127
15, 54480, Note_on_c, 9, 64, 103
15, 54480, Note_on_c, 9, 40, 106
15, 54489, Note_on_c, 9, 36, 0
15, 54489, Note_on_c, 9, 42, 0
15, 54489, Note_on_c, 9, 64, 0
15, 54489, Note_on_c, 9, 40, 0
15, 54520, Note_on_c, 9, 40, 97
15, 54520, Note_on_c, 9, 42, 122
15, 54529, Note_on_c, 9, 40, 0
15, 54529, Note_on_c, 9, 42, 0
15, 54560, Note_on_c, 9, 42, 127
15, 54560, Note_on_c, 9, 40, 118
15, 54569, Note_on_c, 9, 42, 0
15, 54569, Note_on_c, 9, 40, 0
15, 54600, Note_on_c, 9, 36, 82
15, 54600, Note_on_c, 9, 44, 127
15, 54609, Note_on_c, 9, 36, 0
15, 54609, Note_on_c, 9, 44, 0
15, 54720, Note_on_c, 9, 42, 127
15, 54720, Note_on_c, 9, 36, 72
15, 54720, Note_on_c, 9, 63, 87
15, 54729, Note_on_c, 9, 42, 0
15, 54729, Note_on_c, 9, 36, 0
15, 54729, Note_on_c, 9, 63, 0
15, 54760, Note_on_c, 9, 42, 122
15, 54769, Note_on_c, 9, 42, 0
15, 54800, Note_on_c, 9, 42, 127
15, 54800, Note_on_c, 9, 63, 73
15, 54800, Note_on_c, 9, 40, 122
15, 54809, Note_on_c, 9, 42, 0
15, 54809, Note_on_c, 9, 63, 0
15, 54809, Note_on_c, 9, 40, 0
15, 54840, Note_on_c, 9, 44, 127
15, 54840, Note_on_c, 9, 36, 78
15, 54849, Note_on_c, 9, 44, 0
15, 54849, Note_on_c, 9, 36, 0
15, 54960, Note_on_c, 9, 36, 80
15, 54960, Note_on_c, 9, 42, 122
15, 54960, Note_on_c, 9, 64, 87
15, 54969, Note_on_c, 9, 36, 0
15, 54969, Note_on_c, 9, 42, 0
15, 54969, Note_on_c, 9, 64, 0
15, 55000, Note_on_c, 9, 42, 110
15, 55009, Note_on_c, 9, 42, 0
15, 55040, Note_on_c, 9, 42, 127
15, 55040, Note_on_c, 9, 40, 110
15, 55049, Note_on_c, 9, 42, 0
15, 55049, Note_on_c, 9, 40, 0
15, 55080, Note_on_c, 9, 44, 127
15, 55080, Note_on_c, 9, 36, 69
15, 55089, Note_on_c, 9, 44, 0
15, 55089, Note_on_c, 9, 36, 0
15, 55200, Note_on_c, 9, 63, 87
15, 55200, Note_on_c, 9, 36, 78
15, 55200, Note_on_c, 9, 42, 127
15, 55209, Note_on_c, 9, 63, 0
15, 55209, Note_on_c, 9, 36, 0
15, 55209, Note_on_c, 9, 42, 0
15, 55240, Note_on_c, 9, 42, 127
15, 55249, Note_on_c, 9, 42, 0
15, 55280, Note_on_c, 9, 63, 80
15, 55280, Note_on_c, 9, 40, 127
15, 55280, Note_on_c, 9, 42, 127
15, 55289, Note_on_c, 9, 63, 0
15, 55289, Note_on_c, 9, 40, 0
15, 55289, Note_on_c, 9, 42, 0
15, 55320, Note_on_c, 9, 44, 127
15, 55320, Note_on_c, 9, 36, 84
15, 55329, Note_on_c, 9, 44, 0
15, 55329, Note_on_c, 9, 36, 0
15, 55400, Note_on_c, 9, 40, 118
15, 55400, Note_on_c, 9, 62, 56
15, 55409, Note_on_c, 9, 40, 0
15, 55409, Note_on_c, 9, 62, 0
15, 55440, Note_on_c, 9, 36, 82
15, 55440, Note_on_c, 9, 42, 127
15, 55440, Note_on_c, 9, 64, 82
15, 55449, Note_on_c, 9, 36, 0
15, 55449, Note_on_c, 9, 42, 0
15, 55449, Note_on_c, 9, 64, 0
15, 55480, Note_on_c, 9, 42, 127
15, 55489, Note_on_c, 9, 42, 0
15, 55520, Note_on_c, 9, 42, 127
15, 55520, Note_on_c, 9, 64, 72
15, 55520, Note_on_c, 9, 40, 103
15, 55529, Note_on_c, 9, 42, 0
15, 55529, Note_on_c, 9, 64, 0
15, 55529, Note_on_c, 9, 40, 0
15, 55560, Note_on_c, 9, 36, 92
15, 55560, Note_on_c, 9, 40, 52
15, 55569, Note_on_c, 9, 36, 0
15, 55569, Note_on_c, 9, 40, 0
15, 55640, Note_on_c, 9, 40, 73
15, 55649, Note_on_c, 9, 40, 0
15, 55800, Note_on_c, 9, 36, 55
15, 55809, Note_on_c, 9, 36, 0
15, 55840, Note_on_c, 9, 43, 72
15, 55849, Note_on_c, 9, 43, 0
15, 55880, Note_on_c, 9, 36, 76
15, 55889, Note_on_c, 9, 36, 0
15, 55920, Note_on_c, 9, 43, 52
15, 55929, Note_on_c, 9, 43, 0
15, 55960, Note_on_c, 9, 36, 67
15, 55969, Note_on_c, 9, 36, 0
15, 56000, Note_on_c, 9, 43, 100
15, 56009, Note_on_c, 9, 43, 0
15, 56040, Note_on_c, 9, 36, 106
15, 56049, Note_on_c, 9, 36, 0
15, 56080, Note_on_c, 9, 47, 84
15, 56089, Note_on_c, 9, 47, 0
15, 56120, Note_on_c, 9, 36, 103
15, 56129, Note_on_c, 9, 36, 0
15, 56160, Note_on_c, 9, 47, 106
15, 56169, Note_on_c, 9, 47, 0
15, 56200, Note_on_c, 9, 36, 103
15, 56209, Note_on_c, 9, 36, 0
15, 56240, Note_on_c, 9, 43, 100
15, 56249, Note_on_c, 9, 43, 0
15, 56280, Note_on_c, 9, 36, 118
15, 56289, Note_on_c, 9, 36, 0
15, 56320, Note_on_c, 9, 47, 103
15, 56329, Note_on_c, 9, 47, 0
15, 56360, Note_on_c, 9, 36, 106
15, 56369, Note_on_c, 9, 36, 0
15, 56400, Note_on_c, 9, 43, 122
15, 56409, Note_on_c, 9, 43, 0
15, 56440, Note_on_c, 9, 36, 106
15, 56449, Note_on_c, 9, 36, 0
15, 56480, Note_on_c, 9, 47, 127
15, 56489, Note_on_c, 9, 47, 0
15, 56520, Note_on_c, 9, 36, 106
15, 56529, Note_on_c, 9, 36, 0
15, 56529, Note_on_c, 9, 49, 127
15, 56538, Note_on_c, 9, 49, 0
15, 61119, Note_on_c, 9, 40, 80
15, 61120, Note_on_c, 9, 40, 0
15, 61124, Note_on_c, 9, 40, 73
15, 61125, Note_on_c, 9, 40, 0
15, 61137, Note_on_c, 9, 40, 47
15, 61138, Note_on_c, 9, 40, 0
15, 61143, Note_on_c, 9, 40, 34
15, 61144, Note_on_c, 9, 40, 0
15, 61152, Note_on_c, 9, 40, 26
15, 61153, Note_on_c, 9, 40, 0
15, 61155, Note_on_c, 9, 40, 12
15, 61156, Note_on_c, 9, 40, 0
15, 61165, Note_on_c, 9, 40, 18
15, 61166, Note_on_c, 9, 40, 0
15, 61175, Note_on_c, 9, 40, 23
15, 61176, Note_on_c, 9, 40, 0
15, 61187, Note_on_c, 9, 40, 18
15, 61188, Note_on_c, 9, 40, 0
15, 61195, Note_on_c, 9, 40, 25
15, 61196, Note_on_c, 9, 40, 0
15, 61207, Note_on_c, 9, 40, 18
15, 61208, Note_on_c, 9, 40, 0
15, 61215, Note_on_c, 9, 40, 26
15, 61216, Note_on_c, 9, 40, 0
15, 61227, Note_on_c, 9, 40, 17
15, 61228, Note_on_c, 9, 40, 0
15, 61232, Note_on_c, 9, 40, 12
15, 61233, Note_on_c, 9, 40, 0
15, 61237, Note_on_c, 9, 40, 26
15, 61238, Note_on_c, 9, 40, 0
15, 61242, Note_on_c, 9, 40, 18
15, 61243, Note_on_c, 9, 40, 0
15, 61252, Note_on_c, 9, 40, 23
15, 61253, Note_on_c, 9, 40, 0
15, 61264, Note_on_c, 9, 40, 18
15, 61265, Note_on_c, 9, 40, 0
15, 61272, Note_on_c, 9, 40, 25
15, 61273, Note_on_c, 9, 40, 0
15, 61284, Note_on_c, 9, 40, 18
15, 61285, Note_on_c, 9, 40, 0
15, 61292, Note_on_c, 9, 40, 26
15, 61293, Note_on_c, 9, 40, 0
15, 61304, Note_on_c, 9, 40, 17
15, 61305, Note_on_c, 9, 40, 0
15, 61314, Note_on_c, 9, 40, 26
15, 61315, Note_on_c, 9, 40, 0
15, 61322, Note_on_c, 9, 40, 20
15, 61323, Note_on_c, 9, 40, 0
15, 61334, Note_on_c, 9, 40, 26
15, 61335, Note_on_c, 9, 40, 0
15, 61342, Note_on_c, 9, 40, 18
15, 61343, Note_on_c, 9, 40, 0
15, 61354, Note_on_c, 9, 40, 25
15, 61355, Note_on_c, 9, 40, 0
15, 61362, Note_on_c, 9, 40, 16
15, 61363, Note_on_c, 9, 40, 0
15, 61374, Note_on_c, 9, 40, 26
15, 61375, Note_on_c, 9, 40, 0
15, 61382, Note_on_c, 9, 40, 16
15, 61383, Note_on_c, 9, 40, 0
15, 61392, Note_on_c, 9, 40, 25
15, 61393, Note_on_c, 9, 40, 0
15, 61404, Note_on_c, 9, 40, 17
15, 61405, Note_on_c, 9, 40, 0
15, 61412, Note_on_c, 9, 40, 25
15, 61413, Note_on_c, 9, 40, 0
15, 61424, Note_on_c, 9, 40, 15
15, 61425, Note_on_c, 9, 40, 0
15, 61434, Note_on_c, 9, 40, 23
15, 61435, Note_on_c, 9, 40, 0
15, 61444, Note_on_c, 9, 40, 16
15, 61445, Note_on_c, 9, 40, 0
15, 61452, Note_on_c, 9, 40, 30
15, 61453, Note_on_c, 9, 40, 0
15, 61464, Note_on_c, 9, 40, 22
15, 61465, Note_on_c, 9, 40, 0
15, 61472, Note_on_c, 9, 40, 28
15, 61473, Note_on_c, 9, 40, 0
15, 61484, Note_on_c, 9, 40, 24
15, 61485, Note_on_c, 9, 40, 0
15, 61494, Note_on_c, 9, 40, 35
15, 61495, Note_on_c, 9, 40, 0
15, 61504, Note_on_c, 9, 40, 29
15, 61505, Note_on_c, 9, 40, 0
15, 61512, Note_on_c, 9, 40, 31
15, 61513, Note_on_c, 9, 40, 0
15, 61524, Note_on_c, 9, 40, 28
15, 61525, Note_on_c, 9, 40, 0
15, 61534, Note_on_c, 9, 40, 34
15, 61535, Note_on_c, 9, 40, 0
15, 61542, Note_on_c, 9, 40, 28
15, 61543, Note_on_c, 9, 40, 0
15, 61554, Note_on_c, 9, 40, 33
15, 61555, Note_on_c, 9, 40, 0
15, 61564, Note_on_c, 9, 40, 30
15, 61565, Note_on_c, 9, 40, 0
15, 61574, Note_on_c, 9, 40, 39
15, 61575, Note_on_c, 9, 40, 0
15, 61582, Note_on_c, 9, 40, 29
15, 61583, Note_on_c, 9, 40, 0
15, 61594, Note_on_c, 9, 40, 39
15, 61595, Note_on_c, 9, 40, 0
15, 61604, Note_on_c, 9, 40, 33
15, 61605, Note_on_c, 9, 40, 0
15, 61612, Note_on_c, 9, 40, 39
15, 61613, Note_on_c, 9, 40, 0
15, 61624, Note_on_c, 9, 40, 35
15, 61625, Note_on_c, 9, 40, 0
15, 61634, Note_on_c, 9, 40, 43
15, 61635, Note_on_c, 9, 40, 0
15, 61642, Note_on_c, 9, 40, 34
15, 61643, Note_on_c, 9, 40, 0
15, 61654, Note_on_c, 9, 40, 47
15, 61655, Note_on_c, 9, 40, 0
15, 61664, Note_on_c, 9, 40, 38
15, 61665, Note_on_c, 9, 40, 0
15, 61672, Note_on_c, 9, 40, 47
15, 61673, Note_on_c, 9, 40, 0
15, 61684, Note_on_c, 9, 40, 51
15, 61685, Note_on_c, 9, 40, 0
15, 61694, Note_on_c, 9, 40, 57
15, 61695, Note_on_c, 9, 40, 0
15, 61704, Note_on_c, 9, 40, 48
15, 61705, Note_on_c, 9, 40, 0
15, 61712, Note_on_c, 9, 40, 57
15, 61713, Note_on_c, 9, 40, 0
15, 61724, Note_on_c, 9, 40, 49
15, 61725, Note_on_c, 9, 40, 0
15, 61734, Note_on_c, 9, 40, 53
15, 61735, Note_on_c, 9, 40, 0
15, 61744, Note_on_c, 9, 40, 49
15, 61745, Note_on_c, 9, 40, 0
15, 61754, Note_on_c, 9, 40, 53
15, 61755, Note_on_c, 9, 40, 0
15, 61764, Note_on_c, 9, 40, 46
15, 61765, Note_on_c, 9, 40, 0
15, 61772, Note_on_c, 9, 40, 53
15, 61773, Note_on_c, 9, 40, 0
15, 61784, Note_on_c, 9, 40, 47
15, 61785, Note_on_c, 9, 40, 0
15, 61794, Note_on_c, 9, 40, 53
15, 61795, Note_on_c, 9, 40, 0
15, 61804, Note_on_c, 9, 40, 42
15, 61805, Note_on_c, 9, 40, 0
15, 61814, Note_on_c, 9, 40, 42
15, 61815, Note_on_c, 9, 40, 0
15, 61822, Note_on_c, 9, 40, 40
15, 61823, Note_on_c, 9, 40, 0
15, 61834, Note_on_c, 9, 40, 46
15, 61835, Note_on_c, 9, 40, 0
15, 61844, Note_on_c, 9, 40, 42
15, 61845, Note_on_c, 9, 40, 0
15, 61854, Note_on_c, 9, 40, 48
15, 61855, Note_on_c, 9, 40, 0
15, 61862, Note_on_c, 9, 40, 43
15, 61863, Note_on_c, 9, 40, 0
15, 61874, Note_on_c, 9, 40, 48
15, 61875, Note_on_c, 9, 40, 0
15, 61884, Note_on_c, 9, 40, 50
15, 61885, Note_on_c, 9, 40, 0
15, 61894, Note_on_c, 9, 40, 54
15, 61895, Note_on_c, 9, 40, 0
15, 61902, Note_on_c, 9, 40, 48
15, 61903, Note_on_c, 9, 40, 0
15, 61914, Note_on_c, 9, 40, 56
15, 61915, Note_on_c, 9, 40, 0
15, 61924, Note_on_c, 9, 40, 48
15, 61925, Note_on_c, 9, 40, 0
15, 61934, Note_on_c, 9, 40, 56
15, 61935, Note_on_c, 9, 40, 0
15, 61944, Note_on_c, 9, 40, 52
15, 61945, Note_on_c, 9, 40, 0
15, 61952, Note_on_c, 9, 40, 60
15, 61953, Note_on_c, 9, 40, 0
15, 61964, Note_on_c, 9, 40, 54
15, 61965, Note_on_c, 9, 40, 0
15, 61974, Note_on_c, 9, 40, 60
15, 61975, Note_on_c, 9, 40, 0
15, 61984, Note_on_c, 9, 40, 54
15, 61985, Note_on_c, 9, 40, 0
15, 61992, Note_on_c, 9, 40, 63
15, 61993, Note_on_c, 9, 40, 0
15, 62004, Note_on_c, 9, 40, 54
15, 62005, Note_on_c, 9, 40, 0
15, 62014, Note_on_c, 9, 40, 60
15, 62015, Note_on_c, 9, 40, 0
15, 62024, Note_on_c, 9, 40, 53
15, 62025, Note_on_c, 9, 40, 0
15, 62032, Note_on_c, 9, 40, 57
15, 62033, Note_on_c, 9, 40, 0
15, 62044, Note_on_c, 9, 40, 53
15, 62045, Note_on_c, 9, 40, 0
15, 62054, Note_on_c, 9, 40, 56
15, 62055, Note_on_c, 9, 40, 0
15, 62064, Note_on_c, 9, 40, 52
15, 62065, Note_on_c, 9, 40, 0
15, 62072, Note_on_c, 9, 40, 57
15, 62073, Note_on_c, 9, 40, 0
15, 62084, Note_on_c, 9, 40, 50
15, 62085, Note_on_c, 9, 40, 0
15, 62094, Note_on_c, 9, 40, 56
15, 62095, Note_on_c, 9, 40, 0
15, 62104, Note_on_c, 9, 40, 50
15, 62105, Note_on_c, 9, 40, 0
15, 62112, Note_on_c, 9, 40, 56
15, 62113, Note_on_c, 9, 40, 0
15, 62124, Note_on_c, 9, 40, 49
15, 62125, Note_on_c, 9, 40, 0
15, 62134, Note_on_c, 9, 40, 54
15, 62135, Note_on_c, 9, 40, 0
15, 62144, Note_on_c, 9, 40, 50
15, 62145, Note_on_c, 9, 40, 0
15, 62154, Note_on_c, 9, 40, 56
15, 62155, Note_on_c, 9, 40, 0
15, 62162, Note_on_c, 9, 40, 50
15, 62163, Note_on_c, 9, 40, 0
15, 62174, Note_on_c, 9, 40, 56
15, 62175, Note_on_c, 9, 40, 0
15, 62184, Note_on_c, 9, 40, 50
15, 62185, Note_on_c, 9, 40, 0
15, 62192, Note_on_c, 9, 40, 54
15, 62193, Note_on_c, 9, 40, 0
15, 62204, Note_on_c, 9, 40, 47
15, 62205, Note_on_c, 9, 40, 0
15, 62214, Note_on_c, 9, 40, 60
15, 62215, Note_on_c, 9, 40, 0
15, 62222, Note_on_c, 9, 40, 56
15, 62223, Note_on_c, 9, 40, 0
15, 62234, Note_on_c, 9, 40, 79
15, 62235, Note_on_c, 9, 40, 0
15, 62244, Note_on_c, 9, 40, 75
15, 62245, Note_on_c, 9, 40, 0
15, 62252, Note_on_c, 9, 40, 93
15, 62253, Note_on_c, 9, 40, 0
15, 62264, Note_on_c, 9, 40, 120
15, 62265, Note_on_c, 9, 40, 0
15, 62265, Note_on_c, 9, 40, 75
15, 62266, Note_on_c, 9, 40, 0
15, 62280, Note_on_c, 9, 36, 118
15, 62280, Note_on_c, 9, 57, 127
15, 62289, Note_on_c, 9, 36, 0
15, 62289, Note_on_c, 9, 57, 0
15, 62640, Note_on_c, 9, 40, 51
15, 62649, Note_on_c, 9, 40, 0
15, 62720, Note_on_c, 9, 40, 59
15, 62729, Note_on_c, 9, 40, 0
15, 62760, Note_on_c, 9, 40, 84
15, 62769, Note_on_c, 9, 40, 0
15, 62800, Note_on_c, 9, 40, 54
15, 62809, Note_on_c, 9, 40, 0
15, 62840, Note_on_c, 9, 40, 82
15, 62849, Note_on_c, 9, 40, 0
15, 62880, Note_on_c, 9, 40, 60
15, 62889, Note_on_c, 9, 40, 0
15, 62920, Note_on_c, 9, 40, 100
15, 62929, Note_on_c, 9, 40, 0
15, 62960, Note_on_c, 9, 40, 94
15, 62969, Note_on_c, 9, 40, 0
15, 63000, Note_on_c, 9, 40, 127
15, 63009, Note_on_c, 9, 40, 0
15, 63040, Note_on_c, 9, 48, 127
15, 63049, Note_on_c, 9, 48, 0
15, 63080, Note_on_c, 9, 47, 127
15, 63089, Note_on_c, 9, 47, 0
15, 63120, Note_on_c, 9, 43, 127
15, 63129, Note_on_c, 9, 43, 0
15, 63160, Note_on_c, 9, 47, 127
15, 63169, Note_on_c, 9, 47, 0
15, 63200, Note_on_c, 9, 40, 127
15, 63209, Note_on_c, 9, 40, 0
15, 63240, Note_on_c, 9, 44, 127
15, 63240, Note_on_c, 9, 36, 82
15, 63249, Note_on_c, 9, 44, 0
15, 63249, Note_on_c, 9, 36, 0
15, 63360, Note_on_c, 9, 36, 72
15, 63360, Note_on_c, 9, 63, 87
15, 63360, Note_on_c, 9, 42, 127
15, 63369, Note_on_c, 9, 36, 0
15, 63369, Note_on_c, 9, 63, 0
15, 63369, Note_on_c, 9, 42, 0
15, 63400, Note_on_c, 9, 42, 122
15, 63409, Note_on_c, 9, 42, 0
15, 63440, Note_on_c, 9, 63, 73
15, 63440, Note_on_c, 9, 40, 122
15, 63440, Note_on_c, 9, 42, 127
15, 63449, Note_on_c, 9, 63, 0
15, 63449, Note_on_c, 9, 40, 0
15, 63449, Note_on_c, 9, 42, 0
15, 63480, Note_on_c, 9, 44, 127
15, 63480, Note_on_c, 9, 36, 78
15, 63489, Note_on_c, 9, 44, 0
15, 63489, Note_on_c, 9, 36, 0
15, 63600, Note_on_c, 9, 36, 80
15, 63600, Note_on_c, 9, 64, 87
15, 63600, Note_on_c, 9, 42, 122
15, 63609, Note_on_c, 9, 36, 0
15, 63609, Note_on_c, 9, 64, 0
15, 63609, Note_on_c, 9, 42, 0
15, 63640, Note_on_c, 9, 42, 110
15, 63649, Note_on_c, 9, 42, 0
15, 63680, Note_on_c, 9, 40, 110
15, 63680, Note_on_c, 9, 42, 127
15, 63689, Note_on_c, 9, 40, 0
15, 63689, Note_on_c, 9, 42, 0
15, 63720, Note_on_c, 9, 36, 69
15, 63720, Note_on_c, 9, 44, 127
15, 63729, Note_on_c, 9, 36, 0
15, 63729, Note_on_c, 9, 44, 0
15, 63840, Note_on_c, 9, 36, 78
15, 63840, Note_on_c, 9, 42, 127
15, 63840, Note_on_c, 9, 63, 87
15, 63849, Note_on_c, 9, 36, 0
15, 63849, Note_on_c, 9, 42, 0
15, 63849, Note_on_c, 9, 63, 0
15, 63880, Note_on_c, 9, 42, 127
15, 63889, Note_on_c, 9, 42, 0
15, 63920, Note_on_c, 9, 40, 127
15, 63920, Note_on_c, 9, 63, 80
15, 63920, Note_on_c, 9, 42, 127
15, 63929, Note_on_c, 9, 40, 0
15, 63929, Note_on_c, 9, 63, 0
15, 63929, Note_on_c, 9, 42, 0
15, 63960, Note_on_c, 9, 36, 84
15, 63960, Note_on_c, 9, 44, 127
15, 63969, Note_on_c, 9, 36, 0
15, 63969, Note_on_c, 9, 44, 0
15, 64040, Note_on_c, 9, 62, 56
15, 64040, Note_on_c, 9, 40, 118
15, 64049, Note_on_c, 9, 62, 0
15, 64049, Note_on_c, 9, 40, 0
15, 64080, Note_on_c, 9, 42, 127
15, 64080, Note_on_c, 9, 36, 82
15, 64080, Note_on_c, 9, 64, 82
15, 64089, Note_on_c, 9, 42, 0
15, 64089, Note_on_c, 9, 36, 0
15, 64089, Note_on_c, 9, 64, 0
15, 64120, Note_on_c, 9, 42, 127
15, 64129, Note_on_c, 9, 42, 0
15, 64160, Note_on_c, 9, 42, 127
15, 64160, Note_on_c, 9, 64, 72
15, 64160, Note_on_c, 9, 40, 103
15, 64169, Note_on_c, 9, 42, 0
15, 64169, Note_on_c, 9, 64, 0
15, 64169, Note_on_c, 9, 40, 0
15, 64200, Note_on_c, 9, 36, 62
15, 64209, Note_on_c, 9, 36, 0
15, 64320, Note_on_c, 9, 64, 73
15, 64320, Note_on_c, 9, 44, 100
15, 64329, Note_on_c, 9, 64, 0
15, 64329, Note_on_c, 9, 44, 0
15, 64400, Note_on_c, 9, 64, 73
15, 64409, Note_on_c, 9, 64, 0
15, 64440, Note_on_c, 9, 36, 56
15, 64449, Note_on_c, 9, 36, 0
15, 64560, Note_on_c, 9, 63, 113
15, 64560, Note_on_c, 9, 44, 97
15, 64569, Note_on_c, 9, 63, 0
15, 64569, Note_on_c, 9, 44, 0
15, 64680, Note_on_c, 9, 36, 60
15, 64689, Note_on_c, 9, 36, 0
15, 64760, Note_on_c, 9, 62, 69
15, 64769, Note_on_c, 9, 62, 0
15, 64800, Note_on_c, 9, 64, 84
15, 64800, Note_on_c, 9, 44, 103
15, 64809, Note_on_c, 9, 64, 0
15, 64809, Note_on_c, 9, 44, 0
15, 64880, Note_on_c, 9, 64, 84
15, 64889, Note_on_c, 9, 64, 0
15, 64920, Note_on_c, 9, 36, 64
15, 64929, Note_on_c, 9, 36, 0
15, 65040, Note_on_c, 9, 44, 106
15, 65040, Note_on_c, 9, 63, 90
15, 65049, Note_on_c, 9, 44, 0
15, 65049, Note_on_c, 9, 63, 0
15, 65160, Note_on_c, 9, 36, 59
15, 65169, Note_on_c, 9, 36, 0
15, 65280, Note_on_c, 9, 64, 78
15, 65280, Note_on_c, 9, 44, 118
15, 65289, Note_on_c, 9, 64, 0
15, 65289, Note_on_c, 9, 44, 0
15, 65360, Note_on_c, 9, 64, 80
15, 65369, Note_on_c, 9, 64, 0
15, 65400, Note_on_c, 9, 36, 55
15, 65409, Note_on_c, 9, 36, 0
15, 65480, Note_on_c, 9, 62, 100
15, 65489, Note_on_c, 9, 62, 0
15, 65520, Note_on_c, 9, 63, 90
15, 65520, Note_on_c, 9, 44, 103
15, 65529, Note_on_c, 9, 63, 0
15, 65529, Note_on_c, 9, 44, 0
15, 65640, Note_on_c, 9, 36, 58
15, 65649, Note_on_c, 9, 36, 0
15, 65760, Note_on_c, 9, 44, 110
15, 65760, Note_on_c, 9, 64, 74
15, 65769, Note_on_c, 9, 44, 0
15, 65769, Note_on_c, 9, 64, 0
15, 65840, Note_on_c, 9, 64, 80
15, 65849, Note_on_c, 9, 64, 0
15, 65880, Note_on_c, 9, 36, 55
15, 65889, Note_on_c, 9, 36, 0
15, 65961, Note_on_c, 9, 40, 60
15, 65969, Note_on_c, 9, 40, 0
15, 65970, Note_on_c, 9, 40, 65
15, 65979, Note_on_c, 9, 40, 0
15, 65981, Note_on_c, 9, 40, 72
15, 65989, Note_on_c, 9, 40, 0
15, 65990, Note_on_c, 9, 40, 78
15, 65999, Note_on_c, 9, 40, 0
15, 66000, Note_on_c, 9, 40, 115
15, 66000, Note_on_c, 9, 63, 84
15, 66000, Note_on_c, 9, 44, 118
15, 66009, Note_on_c, 9, 40, 0
15, 66009, Note_on_c, 9, 63, 0
15, 66009, Note_on_c, 9, 44, 0
15, 66080, Note_on_c, 9, 48, 122
15, 66089, Note_on_c, 9, 48, 0
15, 66120, Note_on_c, 9, 36, 55
15, 66129, Note_on_c, 9, 36, 0
15, 66240, Note_on_c, 9, 44, 106
15, 66240, Note_on_c, 9, 64, 69
15, 66249, Note_on_c, 9, 44, 0
15, 66249, Note_on_c, 9, 64, 0
15, 66320, Note_on_c, 9, 64, 78
15, 66329, Note_on_c, 9, 64, 0
15, 66360, Note_on_c, 9, 36, 60
15, 66369, Note_on_c, 9, 36, 0
15, 66430, Note_on_c, 9, 40, 53
15, 66439, Note_on_c, 9, 40, 0
15, 66440, Note_on_c, 9, 63, 53
15, 66441, Note_on_c, 9, 40, 60
15, 66449, Note_on_c, 9, 63, 0
15, 66449, Note_on_c, 9, 40, 0
15, 66450, Note_on_c, 9, 40, 65
15, 66459, Note_on_c, 9, 40, 0
15, 66461, Note_on_c, 9, 40, 72
15, 66469, Note_on_c, 9, 40, 0
15, 66470, Note_on_c, 9, 40, 78
15, 66479, Note_on_c, 9, 40, 0
15, 66480, Note_on_c, 9, 40, 115
15, 66480, Note_on_c, 9, 44, 106
15, 66489, Note_on_c, 9, 40, 0
15, 66489, Note_on_c, 9, 44, 0
15, 66560, Note_on_c, 9, 45, 122
15, 66569, Note_on_c, 9, 45, 0
15, 66600, Note_on_c, 9, 36, 51
15, 66609, Note_on_c, 9, 36, 0
15, 66720, Note_on_c, 9, 64, 74
15, 66720, Note_on_c, 9, 44, 106
15, 66729, Note_on_c, 9, 64, 0
15, 66729, Note_on_c, 9, 44, 0
15, 66800, Note_on_c, 9, 64, 61
15, 66809, Note_on_c, 9, 64, 0
15, 66840, Note_on_c, 9, 36, 61
15, 66849, Note_on_c, 9, 36, 0
15, 66910, Note_on_c, 9, 40, 53
15, 66919, Note_on_c, 9, 40, 0
15, 66920, Note_on_c, 9, 62, 72
15, 66921, Note_on_c, 9, 40, 60
15, 66929, Note_on_c, 9, 62, 0
15, 66929, Note_on_c, 9, 40, 0
15, 66930, Note_on_c, 9, 40, 65
15, 66939, Note_on_c, 9, 40, 0
15, 66941, Note_on_c, 9, 40, 72
15, 66949, Note_on_c, 9, 40, 0
15, 66950, Note_on_c, 9, 40, 78
15, 66959, Note_on_c, 9, 40, 0
15, 66960, Note_on_c, 9, 40, 115
15, 66960, Note_on_c, 9, 44, 110
15, 66960, Note_on_c, 9, 63, 84
15, 66969, Note_on_c, 9, 40, 0
15, 66969, Note_on_c, 9, 44, 0
15, 66969, Note_on_c, 9, 63, 0
15, 67040, Note_on_c, 9, 63, 90
15, 67040, Note_on_c, 9, 48, 113
15, 67049, Note_on_c, 9, 63, 0
15, 67049, Note_on_c, 9, 48, 0
15, 67077, Note_on_c, 9, 48, 85
15, 67080, Note_on_c, 9, 36, 59
15, 67086, Note_on_c, 9, 48, 0
15, 67089, Note_on_c, 9, 36, 0
15, 67116, Note_on_c, 9, 48, 74
15, 67125, Note_on_c, 9, 48, 0
15, 67156, Note_on_c, 9, 47, 84
15, 67165, Note_on_c, 9, 47, 0
15, 67196, Note_on_c, 9, 48, 106
15, 67200, Note_on_c, 9, 44, 113
15, 67200, Note_on_c, 9, 64, 72
15, 67205, Note_on_c, 9, 48, 0
15, 67209, Note_on_c, 9, 44, 0
15, 67209, Note_on_c, 9, 64, 0
15, 67280, Note_on_c, 9, 64, 78
15, 67289, Note_on_c, 9, 64, 0
15, 67320, Note_on_c, 9, 36, 62
15, 67329, Note_on_c, 9, 36, 0
15, 67390, Note_on_c, 9, 40, 53
15, 67399, Note_on_c, 9, 40, 0
15, 67401, Note_on_c, 9, 40, 60
15, 67409, Note_on_c, 9, 40, 0
15, 67410, Note_on_c, 9, 40, 65
15, 67419, Note_on_c, 9, 40, 0
15, 67421, Note_on_c, 9, 40, 72
15, 67429, Note_on_c, 9, 40, 0
15, 67430, Note_on_c, 9, 40, 78
15, 67439, Note_on_c, 9, 40, 0
15, 67440, Note_on_c, 9, 44, 106
15, 67440, Note_on_c, 9, 40, 115
15, 67440, Note_on_c, 9, 63, 84
15, 67449, Note_on_c, 9, 44, 0
15, 67449, Note_on_c, 9, 40, 0
15, 67449, Note_on_c, 9, 63, 0
15, 67520, Note_on_c, 9, 45, 106
15, 67529, Note_on_c, 9, 45, 0
15, 67560, Note_on_c, 9, 45, 90
15, 67560, Note_on_c, 9, 36, 64
15, 67569, Note_on_c, 9, 45, 0
15, 67569, Note_on_c, 9, 36, 0
15, 67598, Note_on_c, 9, 45, 87
15, 67607, Note_on_c, 9, 45, 0
15, 67635, Note_on_c, 9, 43, 94
15, 67644, Note_on_c, 9, 43, 0
15, 67675, Note_on_c, 9, 45, 110
15, 67680, Note_on_c, 9, 44, 118
15, 67680, Note_on_c, 9, 64, 73
15, 67684, Note_on_c, 9, 45, 0
15, 67689, Note_on_c, 9, 44, 0
15, 67689, Note_on_c, 9, 64, 0
15, 67760, Note_on_c, 9, 64, 77
15, 67769, Note_on_c, 9, 64, 0
15, 67800, Note_on_c, 9, 36, 60
15, 67809, Note_on_c, 9, 36, 0
15, 67870, Note_on_c, 9, 40, 53
15, 67879, Note_on_c, 9, 40, 0
15, 67881, Note_on_c, 9, 40, 60
15, 67889, Note_on_c, 9, 40, 0
15, 67890, Note_on_c, 9, 40, 65
15, 67899, Note_on_c, 9, 40, 0
15, 67901, Note_on_c, 9, 40, 72
15, 67909, Note_on_c, 9, 40, 0
15, 67910, Note_on_c, 9, 40, 78
15, 67919, Note_on_c, 9, 40, 0
15, 67920, Note_on_c, 9, 40, 115
15, 67920, Note_on_c, 9, 63, 94
15, 67920, Note_on_c, 9, 44, 106
15, 67929, Note_on_c, 9, 40, 0
15, 67929, Note_on_c, 9, 63, 0
15, 67929, Note_on_c, 9, 44, 0
15, 67980, Note_on_c, 9, 48, 43
15, 67989, Note_on_c, 9, 48, 0
15, 68010, Note_on_c, 9, 48, 34
15, 68019, Note_on_c, 9, 48, 0
15, 68040, Note_on_c, 9, 48, 53
15, 68040, Note_on_c, 9, 36, 63
15, 68049, Note_on_c, 9, 48, 0
15, 68049, Note_on_c, 9, 36, 0
15, 68070, Note_on_c, 9, 48, 84
15, 68079, Note_on_c, 9, 48, 0
15, 68100, Note_on_c, 9, 48, 122
15, 68109, Note_on_c, 9, 48, 0
15, 68121, Note_on_c, 9, 40, 60
15, 68129, Note_on_c, 9, 40, 0
15, 68130, Note_on_c, 9, 40, 65
15, 68139, Note_on_c, 9, 40, 0
15, 68141, Note_on_c, 9, 40, 72
15, 68149, Note_on_c, 9, 40, 0
15, 68150, Note_on_c, 9, 40, 78
15, 68159, Note_on_c, 9, 40, 0
15, 68160, Note_on_c, 9, 40, 115
15, 68160, Note_on_c, 9, 44, 94
15, 68160, Note_on_c, 9, 64, 74
15, 68169, Note_on_c, 9, 40, 0
15, 68169, Note_on_c, 9, 44, 0
15, 68169, Note_on_c, 9, 64, 0
15, 68220, Note_on_c, 9, 45, 33
15, 68229, Note_on_c, 9, 45, 0
15, 68240, Note_on_c, 9, 64, 70
15, 68249, Note_on_c, 9, 64, 0
15, 68250, Note_on_c, 9, 45, 41
15, 68259, Note_on_c, 9, 45, 0
15, 68280, Note_on_c, 9, 45, 77
15, 68280, Note_on_c, 9, 36, 65
15, 68289, Note_on_c, 9, 45, 0
15, 68289, Note_on_c, 9, 36, 0
15, 68310, Note_on_c, 9, 45, 92
15, 68319, Note_on_c, 9, 45, 0
15, 68340, Note_on_c, 9, 45, 122
15, 68349, Note_on_c, 9, 45, 0
15, 68361, Note_on_c, 9, 40, 60
15, 68369, Note_on_c, 9, 40, 0
15, 68370, Note_on_c, 9, 40, 65
15, 68379, Note_on_c, 9, 40, 0
15, 68381, Note_on_c, 9, 40, 72
15, 68389, Note_on_c, 9, 40, 0
15, 68390, Note_on_c, 9, 40, 78
15, 68399, Note_on_c, 9, 40, 0
15, 68400, Note_on_c, 9, 40, 115
15, 68400, Note_on_c, 9, 44, 100
15, 68400, Note_on_c, 9, 63, 90
15, 68409, Note_on_c, 9, 40, 0
15, 68409, Note_on_c, 9, 44, 0
15, 68409, Note_on_c, 9, 63, 0
15, 68460, Note_on_c, 9, 47, 40
15, 68469, Note_on_c, 9, 47, 0
15, 68490, Note_on_c, 9, 47, 47
15, 68499, Note_on_c, 9, 47, 0
15, 68520, Note_on_c, 9, 47, 100
15, 68520, Note_on_c, 9, 36, 65
15, 68529, Note_on_c, 9, 47, 0
15, 68529, Note_on_c, 9, 36, 0
15, 68550, Note_on_c, 9, 47, 103
15, 68559, Note_on_c, 9, 47, 0
15, 68580, Note_on_c, 9, 47, 122
15, 68589, Note_on_c, 9, 47, 0
15, 68600, Note_on_c, 9, 62, 67
15, 68601, Note_on_c, 9, 40, 60
15, 68609, Note_on_c, 9, 62, 0
15, 68609, Note_on_c, 9, 40, 0
15, 68610, Note_on_c, 9, 40, 65
15, 68619, Note_on_c, 9, 40, 0
15, 68621, Note_on_c, 9, 40, 72
15, 68629, Note_on_c, 9, 40, 0
15, 68630, Note_on_c, 9, 40, 78
15, 68639, Note_on_c, 9, 40, 0
15, 68640, Note_on_c, 9, 40, 115
15, 68640, Note_on_c, 9, 44, 113
15, 68640, Note_on_c, 9, 64, 77
15, 68649, Note_on_c, 9, 40, 0
15, 68649, Note_on_c, 9, 44, 0
15, 68649, Note_on_c, 9, 64, 0
15, 68700, Note_on_c, 9, 43, 36
15, 68709, Note_on_c, 9, 43, 0
15, 68720, Note_on_c, 9, 64, 74
15, 68729, Note_on_c, 9, 64, 0
15, 68730, Note_on_c, 9, 43, 47
15, 68739, Note_on_c, 9, 43, 0
15, 68760, Note_on_c, 9, 36, 67
15, 68760, Note_on_c, 9, 43, 90
15, 68769, Note_on_c, 9, 36, 0
15, 68769, Note_on_c, 9, 43, 0
15, 68790, Note_on_c, 9, 43, 127
15, 68799, Note_on_c, 9, 43, 0
15, 68820, Note_on_c, 9, 43, 122
15, 68829, Note_on_c, 9, 43, 0
15, 68841, Note_on_c, 9, 40, 60
15, 68849, Note_on_c, 9, 40, 0
15, 68850, Note_on_c, 9, 40, 65
15, 68859, Note_on_c, 9, 40, 0
15, 68861, Note_on_c, 9, 40, 72
15, 68869, Note_on_c, 9, 40, 0
15, 68870, Note_on_c, 9, 40, 78
15, 68879, Note_on_c, 9, 40, 0
15, 68880, Note_on_c, 9, 63, 78
15, 68880, Note_on_c, 9, 40, 115
15, 68880, Note_on_c, 9, 44, 106
15, 68889, Note_on_c, 9, 63, 0
15, 68889, Note_on_c, 9, 40, 0
15, 68889, Note_on_c, 9, 44, 0
15, 68940, Note_on_c, 9, 47, 40
15, 68949, Note_on_c, 9, 47, 0
15, 68970, Note_on_c, 9, 47, 47
15, 68979, Note_on_c, 9, 47, 0
15, 69000, Note_on_c, 9, 50, 122
15, 69000, Note_on_c, 9, 36, 62
15, 69009, Note_on_c, 9, 50, 0
15, 69009, Note_on_c, 9, 36, 0
15, 69030, Note_on_c, 9, 40, 67
15, 69039, Note_on_c, 9, 40, 0
15, 69060, Note_on_c, 9, 40, 63
15, 69069, Note_on_c, 9, 40, 0
15, 69090, Note_on_c, 9, 47, 127
15, 69099, Note_on_c, 9, 47, 0
15, 69120, Note_on_c, 9, 40, 47
15, 69120, Note_on_c, 9, 44, 113
15, 69120, Note_on_c, 9, 64, 76
15, 69129, Note_on_c, 9, 40, 0
15, 69129, Note_on_c, 9, 44, 0
15, 69129, Note_on_c, 9, 64, 0
15, 69150, Note_on_c, 9, 40, 58
15, 69159, Note_on_c, 9, 40, 0
15, 69180, Note_on_c, 9, 50, 127
15, 69189, Note_on_c, 9, 50, 0
15, 69200, Note_on_c, 9, 64, 82
15, 69209, Note_on_c, 9, 64, 0
15, 69210, Note_on_c, 9, 40, 47
15, 69219, Note_on_c, 9, 40, 0
15, 69240, Note_on_c, 9, 40, 59
15, 69240, Note_on_c, 9, 36, 60
15, 69249, Note_on_c, 9, 40, 0
15, 69249, Note_on_c, 9, 36, 0
15, 69270, Note_on_c, 9, 47, 127
15, 69279, Note_on_c, 9, 47, 0
15, 69300, Note_on_c, 9, 40, 46
15, 69309, Note_on_c, 9, 40, 0
15, 69330, Note_on_c, 9, 40, 66
15, 69339, Note_on_c, 9, 40, 0
15, 69360, Note_on_c, 9, 63, 100
15, 69360, Note_on_c, 9, 44, 106
15, 69360, Note_on_c, 9, 45, 127
15, 69369, Note_on_c, 9, 63, 0
15, 69369, Note_on_c, 9, 44, 0
15, 69369, Note_on_c, 9, 45, 0
15, 69390, Note_on_c, 9, 40, 52
15, 69399, Note_on_c, 9, 40, 0
15, 69420, Note_on_c, 9, 40, 54
15, 69429, Note_on_c, 9, 40, 0
15, 69450, Note_on_c, 9, 47, 127
15, 69459, Note_on_c, 9, 47, 0
15, 69480, Note_on_c, 9, 48, 110
15, 69480, Note_on_c, 9, 36, 66
15, 69489, Note_on_c, 9, 48, 0
15, 69489, Note_on_c, 9, 36, 0
15, 69560, Note_on_c, 9, 48, 118
15, 69569, Note_on_c, 9, 48, 0
15, 69600, Note_on_c, 9, 44, 92
15, 69600, Note_on_c, 9, 64, 64
15, 69609, Note_on_c, 9, 44, 0
15, 69609, Note_on_c, 9, 64, 0
15, 69640, Note_on_c, 9, 45, 33
15, 69649, Note_on_c, 9, 45, 0
15, 69680, Note_on_c, 9, 45, 52
15, 69680, Note_on_c, 9, 64, 82
15, 69689, Note_on_c, 9, 45, 0
15, 69689, Note_on_c, 9, 64, 0
15, 69720, Note_on_c, 9, 36, 68
15, 69720, Note_on_c, 9, 45, 127
15, 69729, Note_on_c, 9, 36, 0
15, 69729, Note_on_c, 9, 45, 0
15, 69760, Note_on_c, 9, 45, 127
15, 69769, Note_on_c, 9, 45, 0
15, 69800, Note_on_c, 9, 62, 64
15, 69809, Note_on_c, 9, 62, 0
15, 69840, Note_on_c, 9, 44, 110
15, 69840, Note_on_c, 9, 63, 69
15, 69840, Note_on_c, 9, 45, 77
15, 69849, Note_on_c, 9, 44, 0
15, 69849, Note_on_c, 9, 63, 0
15, 69849, Note_on_c, 9, 45, 0
15, 69880, Note_on_c, 9, 43, 39
15, 69889, Note_on_c, 9, 43, 0
15, 69920, Note_on_c, 9, 43, 67
15, 69929, Note_on_c, 9, 43, 0
15, 69960, Note_on_c, 9, 42, 127
15, 69960, Note_on_c, 9, 36, 71
15, 69969, Note_on_c, 9, 42, 0
15, 69969, Note_on_c, 9, 36, 0
15, 70040, Note_on_c, 9, 42, 31
15, 70049, Note_on_c, 9, 42, 0
15, 70080, Note_on_c, 9, 64, 74
15, 70080, Note_on_c, 9, 42, 101
15, 70089, Note_on_c, 9, 64, 0
15, 70089, Note_on_c, 9, 42, 0
15, 70160, Note_on_c, 9, 42, 31
15, 70160, Note_on_c, 9, 64, 85
15, 70169, Note_on_c, 9, 42, 0
15, 70169, Note_on_c, 9, 64, 0
15, 70200, Note_on_c, 9, 39, 116
15, 70200, Note_on_c, 9, 42, 121
15, 70200, Note_on_c, 9, 37, 127
15, 70209, Note_on_c, 9, 39, 0
15, 70209, Note_on_c, 9, 42, 0
15, 70209, Note_on_c, 9, 37, 0
15, 70280, Note_on_c, 9, 42, 28
15, 70289, Note_on_c, 9, 42, 0
15, 70320, Note_on_c, 9, 42, 127
15, 70320, Note_on_c, 9, 63, 106
15, 70329, Note_on_c, 9, 42, 0
15, 70329, Note_on_c, 9, 63, 0
15, 70400, Note_on_c, 9, 36, 67
15, 70400, Note_on_c, 9, 42, 29
15, 70409, Note_on_c, 9, 36, 0
15, 70409, Note_on_c, 9, 42, 0
15, 70440, Note_on_c, 9, 42, 127
15, 70449, Note_on_c, 9, 42, 0
15, 70520, Note_on_c, 9, 42, 31
15, 70520, Note_on_c, 9, 36, 75
15, 70529, Note_on_c, 9, 42, 0
15, 70529, Note_on_c, 9, 36, 0
15, 70560, Note_on_c, 9, 64, 84
15, 70560, Note_on_c, 9, 42, 103
15, 70569, Note_on_c, 9, 64, 0
15, 70569, Note_on_c, 9, 42, 0
15, 70640, Note_on_c, 9, 64, 82
15, 70640, Note_on_c, 9, 42, 31
15, 70649, Note_on_c, 9, 64, 0
15, 70649, Note_on_c, 9, 42, 0
15, 70680, Note_on_c, 9, 37, 127
15, 70680, Note_on_c, 9, 42, 106
15, 70689, Note_on_c, 9, 37, 0
15, 70689, Note_on_c, 9, 42, 0
15, 70760, Note_on_c, 9, 62, 67
15, 70760, Note_on_c, 9, 42, 29
15, 70769, Note_on_c, 9, 62, 0
15, 70769, Note_on_c, 9, 42, 0
15, 70800, Note_on_c, 9, 42, 106
15, 70800, Note_on_c, 9, 63, 82
15, 70809, Note_on_c, 9, 42, 0
15, 70809, Note_on_c, 9, 63, 0
15, 70880, Note_on_c, 9, 42, 25
15, 70880, Note_on_c, 9, 63, 103
15, 70889, Note_on_c, 9, 42, 0
15, 70889, Note_on_c, 9, 63, 0
15, 70920, Note_on_c, 9, 42, 127
15, 70920, Note_on_c, 9, 36, 69
15, 70929, Note_on_c, 9, 42, 0
15, 70929, Note_on_c, 9, 36, 0
15, 71000, Note_on_c, 9, 42, 30
15, 71009, Note_on_c, 9, 42, 0
15, 71040, Note_on_c, 9, 42, 113
15, 71040, Note_on_c, 9, 64, 82
15, 71049, Note_on_c, 9, 42, 0
15, 71049, Note_on_c, 9, 64, 0
15, 71120, Note_on_c, 9, 42, 37
15, 71120, Note_on_c, 9, 64, 87
15, 71129, Note_on_c, 9, 42, 0
15, 71129, Note_on_c, 9, 64, 0
15, 71160, Note_on_c, 9, 39, 101
15, 71160, Note_on_c, 9, 42, 121
15, 71160, Note_on_c, 9, 37, 127
15, 71169, Note_on_c, 9, 39, 0
15, 71169, Note_on_c, 9, 42, 0
15, 71169, Note_on_c, 9, 37, 0
15, 71240, Note_on_c, 9, 42, 36
15, 71249, Note_on_c, 9, 42, 0
15, 71280, Note_on_c, 9, 63, 110
15, 71280, Note_on_c, 9, 42, 110
15, 71289, Note_on_c, 9, 63, 0
15, 71289, Note_on_c, 9, 42, 0
15, 71360, Note_on_c, 9, 42, 38
15, 71360, Note_on_c, 9, 36, 67
15, 71369, Note_on_c, 9, 42, 0
15, 71369, Note_on_c, 9, 36, 0
15, 71400, Note_on_c, 9, 42, 121
15, 71409, Note_on_c, 9, 42, 0
15, 71480, Note_on_c, 9, 36, 69
15, 71480, Note_on_c, 9, 42, 41
15, 71489, Note_on_c, 9, 36, 0
15, 71489, Note_on_c, 9, 42, 0
15, 71520, Note_on_c, 9, 42, 116
15, 71520, Note_on_c, 9, 64, 78
15, 71529, Note_on_c, 9, 42, 0
15, 71529, Note_on_c, 9, 64, 0
15, 71600, Note_on_c, 9, 42, 33
15, 71600, Note_on_c, 9, 64, 85
15, 71609, Note_on_c, 9, 42, 0
15, 71609, Note_on_c, 9, 64, 0
15, 71640, Note_on_c, 9, 42, 94
15, 71640, Note_on_c, 9, 37, 127
15, 71649, Note_on_c, 9, 42, 0
15, 71649, Note_on_c, 9, 37, 0
15, 71680, Note_on_c, 9, 42, 85
15, 71689, Note_on_c, 9, 42, 0
15, 71720, Note_on_c, 9, 42, 105
15, 71729, Note_on_c, 9, 42, 0
15, 71760, Note_on_c, 9, 63, 76
15, 71760, Note_on_c, 9, 42, 112
15, 71769, Note_on_c, 9, 63, 0
15, 71769, Note_on_c, 9, 42, 0
15, 71800, Note_on_c, 9, 42, 94
15, 71809, Note_on_c, 9, 42, 0
15, 71840, Note_on_c, 9, 46, 94
15, 71880, Note_on_c, 9, 36, 71
15, 71880, Note_on_c, 9, 42, 127
15, 71889, Note_on_c, 9, 36, 0
15, 71889, Note_on_c, 9, 42, 0
15, 71921, Note_on_c, 9, 46, 0
15, 71960, Note_on_c, 9, 42, 31
15, 71969, Note_on_c, 9, 42, 0
15, 72000, Note_on_c, 9, 42, 101
15, 72000, Note_on_c, 9, 64, 85
15, 72009, Note_on_c, 9, 42, 0
15, 72009, Note_on_c, 9, 64, 0
15, 72080, Note_on_c, 9, 42, 31
15, 72080, Note_on_c, 9, 64, 82
15, 72089, Note_on_c, 9, 42, 0
15, 72089, Note_on_c, 9, 64, 0
15, 72120, Note_on_c, 9, 37, 127
15, 72120, Note_on_c, 9, 42, 121
15, 72120, Note_on_c, 9, 39, 116
15, 72129, Note_on_c, 9, 37, 0
15, 72129, Note_on_c, 9, 42, 0
15, 72129, Note_on_c, 9, 39, 0
15, 72200, Note_on_c, 9, 62, 77
15, 72200, Note_on_c, 9, 42, 28
15, 72209, Note_on_c, 9, 62, 0
15, 72209, Note_on_c, 9, 42, 0
15, 72240, Note_on_c, 9, 42, 127
15, 72240, Note_on_c, 9, 63, 78
15, 72249, Note_on_c, 9, 42, 0
15, 72249, Note_on_c, 9, 63, 0
15, 72320, Note_on_c, 9, 42, 29
15, 72320, Note_on_c, 9, 63, 103
15, 72320, Note_on_c, 9, 36, 67
15, 72329, Note_on_c, 9, 42, 0
15, 72329, Note_on_c, 9, 63, 0
15, 72329, Note_on_c, 9, 36, 0
15, 72360, Note_on_c, 9, 42, 127
15, 72369, Note_on_c, 9, 42, 0
15, 72440, Note_on_c, 9, 42, 31
15, 72440, Note_on_c, 9, 36, 75
15, 72449, Note_on_c, 9, 42, 0
15, 72449, Note_on_c, 9, 36, 0
15, 72480, Note_on_c, 9, 64, 77
15, 72480, Note_on_c, 9, 42, 103
15, 72489, Note_on_c, 9, 64, 0
15, 72489, Note_on_c, 9, 42, 0
15, 72560, Note_on_c, 9, 64, 77
15, 72560, Note_on_c, 9, 42, 31
15, 72569, Note_on_c, 9, 64, 0
15, 72569, Note_on_c, 9, 42, 0
15, 72600, Note_on_c, 9, 42, 106
15, 72600, Note_on_c, 9, 37, 127
15, 72609, Note_on_c, 9, 42, 0
15, 72609, Note_on_c, 9, 37, 0
15, 72680, Note_on_c, 9, 62, 64
15, 72680, Note_on_c, 9, 42, 29
15, 72689, Note_on_c, 9, 62, 0
15, 72689, Note_on_c, 9, 42, 0
15, 72720, Note_on_c, 9, 42, 106
15, 72720, Note_on_c, 9, 64, 80
15, 72729, Note_on_c, 9, 42, 0
15, 72729, Note_on_c, 9, 64, 0
15, 72800, Note_on_c, 9, 64, 85
15, 72800, Note_on_c, 9, 42, 25
15, 72809, Note_on_c, 9, 64, 0
15, 72809, Note_on_c, 9, 42, 0
15, 72840, Note_on_c, 9, 42, 127
15, 72840, Note_on_c, 9, 36, 69
15, 72849, Note_on_c, 9, 42, 0
15, 72849, Note_on_c, 9, 36, 0
15, 72920, Note_on_c, 9, 42, 30
15, 72929, Note_on_c, 9, 42, 0
15, 72960, Note_on_c, 9, 42, 113
15, 72960, Note_on_c, 9, 64, 87
15, 72969, Note_on_c, 9, 42, 0
15, 72969, Note_on_c, 9, 64, 0
15, 73040, Note_on_c, 9, 42, 37
15, 73040, Note_on_c, 9, 64, 97
15, 73049, Note_on_c, 9, 42, 0
15, 73049, Note_on_c, 9, 64, 0
15, 73080, Note_on_c, 9, 42, 121
15, 73080, Note_on_c, 9, 37, 127
15, 73080, Note_on_c, 9, 39, 101
15, 73089, Note_on_c, 9, 42, 0
15, 73089, Note_on_c, 9, 37, 0
15, 73089, Note_on_c, 9, 39, 0
15, 73160, Note_on_c, 9, 62, 61
15, 73160, Note_on_c, 9, 42, 36
15, 73169, Note_on_c, 9, 62, 0
15, 73169, Note_on_c, 9, 42, 0
15, 73200, Note_on_c, 9, 42, 110
15, 73200, Note_on_c, 9, 63, 90
15, 73209, Note_on_c, 9, 42, 0
15, 73209, Note_on_c, 9, 63, 0
15, 73280, Note_on_c, 9, 63, 110
15, 73280, Note_on_c, 9, 42, 38
15, 73280, Note_on_c, 9, 36, 67
15, 73289, Note_on_c, 9, 63, 0
15, 73289, Note_on_c, 9, 42, 0
15, 73289, Note_on_c, 9, 36, 0
15, 73320, Note_on_c, 9, 42, 121
15, 73329, Note_on_c, 9, 42, 0
15, 73400, Note_on_c, 9, 42, 41
15, 73400, Note_on_c, 9, 36, 69
15, 73409, Note_on_c, 9, 42, 0
15, 73409, Note_on_c, 9, 36, 0
15, 73440, Note_on_c, 9, 64, 82
15, 73440, Note_on_c, 9, 42, 116
15, 73449, Note_on_c, 9, 64, 0
15, 73449, Note_on_c, 9, 42, 0
15, 73520, Note_on_c, 9, 42, 33
15, 73520, Note_on_c, 9, 64, 82
15, 73529, Note_on_c, 9, 42, 0
15, 73529, Note_on_c, 9, 64, 0
15, 73560, Note_on_c, 9, 37, 127
15, 73560, Note_on_c, 9, 42, 94
15, 73569, Note_on_c, 9, 37, 0
15, 73569, Note_on_c, 9, 42, 0
15, 73600, Note_on_c, 9, 42, 85
15, 73609, Note_on_c, 9, 42, 0
15, 73640, Note_on_c, 9, 42, 105
15, 73640, Note_on_c, 9, 62, 55
15, 73649, Note_on_c, 9, 42, 0
15, 73649, Note_on_c, 9, 62, 0
15, 73680, Note_on_c, 9, 42, 112
15, 73680, Note_on_c, 9, 63, 85
15, 73689, Note_on_c, 9, 42, 0
15, 73689, Note_on_c, 9, 63, 0
15, 73720, Note_on_c, 9, 42, 94
15, 73729, Note_on_c, 9, 42, 0
15, 73760, Note_on_c, 9, 63, 94
15, 73760, Note_on_c, 9, 46, 94
15, 73769, Note_on_c, 9, 63, 0
15, 73800, Note_on_c, 9, 42, 127
15, 73800, Note_on_c, 9, 36, 71
15, 73809, Note_on_c, 9, 42, 0
15, 73809, Note_on_c, 9, 36, 0
15, 73841, Note_on_c, 9, 46, 0
15, 73880, Note_on_c, 9, 42, 31
15, 73889, Note_on_c, 9, 42, 0
15, 73920, Note_on_c, 9, 42, 101
15, 73920, Note_on_c, 9, 64, 76
15, 73929, Note_on_c, 9, 42, 0
15, 73929, Note_on_c, 9, 64, 0
15, 74000, Note_on_c, 9, 64, 90
15, 74000, Note_on_c, 9, 42, 31
15, 74009, Note_on_c, 9, 64, 0
15, 74009, Note_on_c, 9, 42, 0
15, 74040, Note_on_c, 9, 39, 116
15, 74040, Note_on_c, 9, 42, 121
15, 74040, Note_on_c, 9, 37, 127
15, 74049, Note_on_c, 9, 39, 0
15, 74049, Note_on_c, 9, 42, 0
15, 74049, Note_on_c, 9, 37, 0
15, 74120, Note_on_c, 9, 42, 28
15, 74129, Note_on_c, 9, 42, 0
15, 74160, Note_on_c, 9, 63, 76
15, 74160, Note_on_c, 9, 42, 127
15, 74169, Note_on_c, 9, 63, 0
15, 74169, Note_on_c, 9, 42, 0
15, 74240, Note_on_c, 9, 36, 67
15, 74240, Note_on_c, 9, 63, 106
15, 74240, Note_on_c, 9, 42, 29
15, 74249, Note_on_c, 9, 36, 0
15, 74249, Note_on_c, 9, 63, 0
15, 74249, Note_on_c, 9, 42, 0
15, 74280, Note_on_c, 9, 42, 127
15, 74289, Note_on_c, 9, 42, 0
15, 74360, Note_on_c, 9, 36, 75
15, 74360, Note_on_c, 9, 42, 31
15, 74369, Note_on_c, 9, 36, 0
15, 74369, Note_on_c, 9, 42, 0
15, 74400, Note_on_c, 9, 42, 103
15, 74400, Note_on_c, 9, 64, 80
15, 74409, Note_on_c, 9, 42, 0
15, 74409, Note_on_c, 9, 64, 0
15, 74480, Note_on_c, 9, 42, 31
15, 74480, Note_on_c, 9, 64, 77
15, 74489, Note_on_c, 9, 42, 0
15, 74489, Note_on_c, 9, 64, 0
15, 74520, Note_on_c, 9, 37, 127
15, 74520, Note_on_c, 9, 42, 106
15, 74529, Note_on_c, 9, 37, 0
15, 74529, Note_on_c, 9, 42, 0
15, 74600, Note_on_c, 9, 42, 29
15, 74600, Note_on_c, 9, 62, 68
15, 74609, Note_on_c, 9, 42, 0
15, 74609, Note_on_c, 9, 62, 0
15, 74640, Note_on_c, 9, 63, 78
15, 74640, Note_on_c, 9, 42, 106
15, 74649, Note_on_c, 9, 63, 0
15, 74649, Note_on_c, 9, 42, 0
15, 74720, Note_on_c, 9, 42, 25
15, 74720, Note_on_c, 9, 63, 113
15, 74729, Note_on_c, 9, 42, 0
15, 74729, Note_on_c, 9, 63, 0
15, 74760, Note_on_c, 9, 42, 127
15, 74760, Note_on_c, 9, 36, 69
15, 74769, Note_on_c, 9, 42, 0
15, 74769, Note_on_c, 9, 36, 0
15, 74840, Note_on_c, 9, 42, 30
15, 74849, Note_on_c, 9, 42, 0
15, 74880, Note_on_c, 9, 42, 113
15, 74880, Note_on_c, 9, 64, 74
15, 74889, Note_on_c, 9, 42, 0
15, 74889, Note_on_c, 9, 64, 0
15, 74960, Note_on_c, 9, 42, 37
15, 74960, Note_on_c, 9, 64, 80
15, 74969, Note_on_c, 9, 42, 0
15, 74969, Note_on_c, 9, 64, 0
15, 75000, Note_on_c, 9, 42, 121
15, 75000, Note_on_c, 9, 39, 101
15, 75000, Note_on_c, 9, 37, 127
15, 75009, Note_on_c, 9, 42, 0
15, 75009, Note_on_c, 9, 39, 0
15, 75009, Note_on_c, 9, 37, 0
15, 75080, Note_on_c, 9, 62, 57
15, 75080, Note_on_c, 9, 42, 36
15, 75089, Note_on_c, 9, 62, 0
15, 75089, Note_on_c, 9, 42, 0
15, 75120, Note_on_c, 9, 42, 110
15, 75120, Note_on_c, 9, 63, 74
15, 75129, Note_on_c, 9, 42, 0
15, 75129, Note_on_c, 9, 63, 0
15, 75200, Note_on_c, 9, 63, 103
15, 75200, Note_on_c, 9, 36, 67
15, 75200, Note_on_c, 9, 42, 38
15, 75209, Note_on_c, 9, 63, 0
15, 75209, Note_on_c, 9, 36, 0
15, 75209, Note_on_c, 9, 42, 0
15, 75240, Note_on_c, 9, 42, 121
15, 75249, Note_on_c, 9, 42, 0
15, 75320, Note_on_c, 9, 42, 41
15, 75320, Note_on_c, 9, 36, 69
15, 75329, Note_on_c, 9, 42, 0
15, 75329, Note_on_c, 9, 36, 0
15, 75360, Note_on_c, 9, 64, 85
15, 75360, Note_on_c, 9, 42, 116
15, 75369, Note_on_c, 9, 64, 0
15, 75369, Note_on_c, 9, 42, 0
15, 75440, Note_on_c, 9, 42, 33
15, 75440, Note_on_c, 9, 64, 76
15, 75449, Note_on_c, 9, 42, 0
15, 75449, Note_on_c, 9, 64, 0
15, 75480, Note_on_c, 9, 42, 94
15, 75480, Note_on_c, 9, 37, 127
15, 75489, Note_on_c, 9, 42, 0
15, 75489, Note_on_c, 9, 37, 0
15, 75520, Note_on_c, 9, 42, 85
15, 75529, Note_on_c, 9, 42, 0
15, 75560, Note_on_c, 9, 62, 62
15, 75560, Note_on_c, 9, 42, 105
15, 75569, Note_on_c, 9, 62, 0
15, 75569, Note_on_c, 9, 42, 0
15, 75600, Note_on_c, 9, 42, 112
15, 75600, Note_on_c, 9, 63, 70
15, 75609, Note_on_c, 9, 42, 0
15, 75609, Note_on_c, 9, 63, 0
15, 75640, Note_on_c, 9, 42, 94
15, 75649, Note_on_c, 9, 42, 0
15, 75680, Note_on_c, 9, 63, 80
15, 75680, Note_on_c, 9, 46, 94
15, 75689, Note_on_c, 9, 63, 0
15, 75720, Note_on_c, 9, 40, 127
15, 75729, Note_on_c, 9, 40, 0
15, 75761, Note_on_c, 9, 46, 0
15, 75800, Note_on_c, 9, 36, 85
15, 75800, Note_on_c, 9, 49, 100
15, 75809, Note_on_c, 9, 36, 0
15, 75809, Note_on_c, 9, 49, 0
15, 75960, Note_on_c, 9, 57, 90
15, 75960, Note_on_c, 9, 36, 82
15, 75969, Note_on_c, 9, 57, 0
15, 75969, Note_on_c, 9, 36, 0
15, 76120, Note_on_c, 9, 40, 77
15, 76129, Note_on_c, 9, 40, 0
15, 76200, Note_on_c, 9, 57, 100
15, 76200, Note_on_c, 9, 36, 82
15, 76209, Note_on_c, 9, 57, 0
15, 76209, Note_on_c, 9, 36, 0
15, 76400, Note_on_c, 9, 49, 122
15, 76400, Note_on_c, 9, 36, 74
15, 76409, Note_on_c, 9, 49, 0
15, 76409, Note_on_c, 9, 36, 0
15, 76480, Note_on_c, 9, 40, 57
15, 76489, Note_on_c, 9, 40, 0
15, 76520, Note_on_c, 9, 40, 71
15, 76529, Note_on_c, 9, 40, 0
15, 76560, Note_on_c, 9, 49, 127
15, 76560, Note_on_c, 9, 36, 88
15, 76569, Note_on_c, 9, 49, 0
15, 76569, Note_on_c, 9, 36, 0
15, 76760, Note_on_c, 9, 40, 55
15, 76769, Note_on_c, 9, 40, 0
15, 76800, Note_on_c, 9, 40, 60
15, 76809, Note_on_c, 9, 40, 0
15, 76840, Note_on_c, 9, 40, 80
15, 76849, Note_on_c, 9, 40, 0
15, 76880, Note_on_c, 9, 40, 103
15, 76889, Note_on_c, 9, 40, 0
15, 76920, Note_on_c, 9, 40, 113
15, 76929, Note_on_c, 9, 40, 0
15, 76960, Note_on_c, 9, 40, 113
15, 76969, Note_on_c, 9, 40, 0
15, 77000, Note_on_c, 9, 40, 127
15, 77009, Note_on_c, 9, 40, 0
15, 77040, Note_on_c, 9, 40, 127
15, 77049, Note_on_c, 9, 40, 0
15, 77120, Note_on_c, 9, 57, 100
15, 77120, Note_on_c, 9, 36, 92
15, 77120, Note_on_c, 9, 40, 127
15, 77129, Note_on_c, 9, 57, 0
15, 77129, Note_on_c, 9, 36, 0
15, 77129, Note_on_c, 9, 40, 0
15, 77129, End_track
0, 0, End_of_file
