0, 0, Header, 1, 6, 960
1, 0, Start_track
1, 0, Control_c, 0, 101, 0
1, 0, Control_c, 0, 100, 0
1, 0, Control_c, 0, 6, 12
1, 0, Control_c, 0, 38, 0
1, 0, Control_c, 1, 101, 0
1, 0, Control_c, 1, 100, 0
1, 0, Control_c, 1, 6, 12
1, 0, Control_c, 1, 38, 0
1, 0, Control_c, 2, 101, 0
1, 0, Control_c, 2, 100, 0
1, 0, Control_c, 2, 6, 12
1, 0, Control_c, 2, 38, 0
1, 0, Control_c, 3, 101, 0
1, 0, Control_c, 3, 100, 0
1, 0, Control_c, 3, 6, 12
1, 0, Control_c, 3, 38, 0
1, 0, Control_c, 4, 101, 0
1, 0, Control_c, 4, 100, 0
1, 0, Control_c, 4, 6, 12
1, 0, Control_c, 4, 38, 0
1, 0, Control_c, 5, 101, 0
1, 0, Control_c, 5, 100, 0
1, 0, Control_c, 5, 6, 12
1, 0, Control_c, 5, 38, 0
1, 0, Control_c, 6, 101, 0
1, 0, Control_c, 6, 100, 0
1, 0, Control_c, 6, 6, 12
1, 0, Control_c, 6, 38, 0
1, 0, Control_c, 7, 101, 0
1, 0, Control_c, 7, 100, 0
1, 0, Control_c, 7, 6, 12
1, 0, Control_c, 7, 38, 0
1, 0, Control_c, 8, 101, 0
1, 0, Control_c, 8, 100, 0
1, 0, Control_c, 8, 6, 12
1, 0, Control_c, 8, 38, 0
1, 0, Control_c, 9, 101, 0
1, 0, Control_c, 9, 100, 0
1, 0, Control_c, 9, 6, 12
1, 0, Control_c, 9, 38, 0
1, 0, Control_c, 10, 101, 0
1, 0, Control_c, 10, 100, 0
1, 0, Control_c, 10, 6, 12
1, 0, Control_c, 10, 38, 0
1, 0, Control_c, 11, 101, 0
1, 0, Control_c, 11, 100, 0
1, 0, Control_c, 11, 6, 12
1, 0, Control_c, 11, 38, 0
1, 0, Control_c, 12, 101, 0
1, 0, Control_c, 12, 100, 0
1, 0, Control_c, 12, 6, 12
1, 0, Control_c, 12, 38, 0
1, 0, Control_c, 13, 101, 0
1, 0, Control_c, 13, 100, 0
1, 0, Control_c, 13, 6, 12
1, 0, Control_c, 13, 38, 0
1, 0, Control_c, 14, 101, 0
1, 0, Control_c, 14, 100, 0
1, 0, Control_c, 14, 6, 12
1, 0, Control_c, 14, 38, 0
1, 0, Control_c, 15, 101, 0
1, 0, Control_c, 15, 100, 0
1, 0, Control_c, 15, 6, 12
1, 0, Control_c, 15, 38, 0
1, 0, Time_signature, 4, 2, 24, 8
1, 0, Tempo, 272727
1, 0, End_track
2, 0, Start_track
2, 0, Pitch_bend_c, 0, 8192
2, 0, Control_c, 0, 7, 79
2, 0, Control_c, 0, 10, 63
2, 0, Control_c, 0, 93, 0
2, 0, Control_c, 0, 91, 0
2, 0, Control_c, 0, 95, 0
2, 0, Control_c, 0, 92, 0
2, 0, Control_c, 0, 11, 127
2, 0, Program_c, 0, 30
2, 0, Control_c, 1, 7, 79
2, 0, Control_c, 1, 10, 63
2, 0, Control_c, 1, 93, 0
2, 0, Control_c, 1, 91, 0
2, 0, Control_c, 1, 95, 0
2, 0, Control_c, 1, 92, 0
2, 0, Control_c, 1, 11, 127
2, 0, Program_c, 1, 30
2, 15360, Note_on_c, 0, 55, 95
2, 15360, Note_on_c, 0, 50, 95
2, 15360, Note_on_c, 0, 43, 95
2, 16320, Note_off_c, 0, 55, 95
2, 16320, Note_off_c, 0, 50, 95
2, 16320, Note_off_c, 0, 43, 95
2, 16800, Note_on_c, 0, 53, 95
2, 16800, Note_on_c, 0, 48, 95
2, 16800, Note_on_c, 0, 41, 95
2, 30720, Note_off_c, 0, 53, 95
2, 30720, Note_off_c, 0, 48, 95
2, 30720, Note_off_c, 0, 41, 95
2, 30720, Note_on_c, 0, 55, 95
2, 30720, Note_on_c, 0, 50, 95
2, 30720, Note_on_c, 0, 43, 95
2, 31680, Note_off_c, 0, 55, 95
2, 31680, Note_off_c, 0, 50, 95
2, 31680, Note_off_c, 0, 43, 95
2, 32160, Note_on_c, 0, 53, 95
2, 32160, Note_on_c, 0, 48, 95
2, 32160, Note_on_c, 0, 41, 95
2, 46080, Note_off_c, 0, 53, 95
2, 46080, Note_off_c, 0, 48, 95
2, 46080, Note_off_c, 0, 41, 95
2, 46080, Note_on_c, 0, 55, 95
2, 46080, Note_on_c, 0, 50, 95
2, 46080, Note_on_c, 0, 43, 95
2, 47040, Note_off_c, 0, 55, 95
2, 47040, Note_off_c, 0, 50, 95
2, 47040, Note_off_c, 0, 43, 95
2, 47520, Note_on_c, 0, 53, 95
2, 47520, Note_on_c, 0, 48, 95
2, 47520, Note_on_c, 0, 41, 95
2, 48480, Note_off_c, 0, 53, 95
2, 48480, Note_off_c, 0, 48, 95
2, 48480, Note_off_c, 0, 41, 95
2, 48480, Note_on_c, 0, 45, 95
2, 48480, Note_on_c, 0, 40, 95
2, 48590, Note_off_c, 0, 45, 95
2, 48590, Note_off_c, 0, 40, 95
2, 48960, Note_on_c, 0, 65, 95
2, 48960, Note_on_c, 0, 60, 95
2, 49440, Note_off_c, 0, 65, 95
2, 49920, Note_off_c, 0, 60, 95
2, 49920, Note_on_c, 0, 55, 95
2, 49920, Note_on_c, 0, 50, 95
2, 49920, Note_on_c, 0, 43, 95
2, 50880, Note_off_c, 0, 55, 95
2, 50880, Note_off_c, 0, 50, 95
2, 50880, Note_off_c, 0, 43, 95
2, 51360, Note_on_c, 0, 53, 95
2, 51360, Note_on_c, 0, 48, 95
2, 51360, Note_on_c, 0, 41, 95
2, 52320, Note_off_c, 0, 53, 95
2, 52320, Note_off_c, 0, 48, 95
2, 52320, Note_off_c, 0, 41, 95
2, 52320, Note_on_c, 0, 45, 95
2, 52320, Note_on_c, 0, 40, 95
2, 52430, Note_off_c, 0, 45, 95
2, 52430, Note_off_c, 0, 40, 95
2, 52800, Note_on_c, 0, 65, 95
2, 52800, Note_on_c, 0, 60, 95
2, 53280, Note_off_c, 0, 65, 95
2, 53760, Note_off_c, 0, 60, 95
2, 53760, Note_on_c, 0, 55, 95
2, 53760, Note_on_c, 0, 50, 95
2, 53760, Note_on_c, 0, 43, 95
2, 54720, Note_off_c, 0, 55, 95
2, 54720, Note_off_c, 0, 50, 95
2, 54720, Note_off_c, 0, 43, 95
2, 55200, Note_on_c, 0, 53, 95
2, 55200, Note_on_c, 0, 48, 95
2, 55200, Note_on_c, 0, 41, 95
2, 56160, Note_off_c, 0, 53, 95
2, 56160, Note_off_c, 0, 48, 95
2, 56160, Note_off_c, 0, 41, 95
2, 56160, Note_on_c, 0, 45, 95
2, 56160, Note_on_c, 0, 40, 95
2, 56270, Note_off_c, 0, 45, 95
2, 56270, Note_off_c, 0, 40, 95
2, 56640, Note_on_c, 0, 65, 95
2, 56640, Note_on_c, 0, 60, 95
2, 57120, Note_off_c, 0, 65, 95
2, 57600, Note_off_c, 0, 60, 95
2, 57600, Note_on_c, 0, 55, 95
2, 57600, Note_on_c, 0, 50, 95
2, 57600, Note_on_c, 0, 43, 95
2, 58560, Note_off_c, 0, 55, 95
2, 58560, Note_off_c, 0, 50, 95
2, 58560, Note_off_c, 0, 43, 95
2, 59040, Note_on_c, 0, 53, 95
2, 59040, Note_on_c, 0, 48, 95
2, 59040, Note_on_c, 0, 41, 95
2, 60000, Note_off_c, 0, 53, 95
2, 60000, Note_off_c, 0, 48, 95
2, 60000, Note_off_c, 0, 41, 95
2, 60000, Note_on_c, 0, 45, 95
2, 60000, Note_on_c, 0, 40, 95
2, 60110, Note_off_c, 0, 45, 95
2, 60110, Note_off_c, 0, 40, 95
2, 60480, Note_on_c, 0, 65, 95
2, 60480, Note_on_c, 0, 60, 95
2, 60960, Note_off_c, 0, 65, 95
2, 61440, Note_off_c, 0, 60, 95
2, 61440, Note_on_c, 0, 55, 95
2, 61440, Note_on_c, 0, 50, 95
2, 61440, Note_on_c, 0, 43, 95
2, 62400, Note_off_c, 0, 55, 95
2, 62400, Note_off_c, 0, 50, 95
2, 62400, Note_off_c, 0, 43, 95
2, 62880, Note_on_c, 0, 53, 95
2, 62880, Note_on_c, 0, 48, 95
2, 62880, Note_on_c, 0, 41, 95
2, 63840, Note_off_c, 0, 53, 95
2, 63840, Note_off_c, 0, 48, 95
2, 63840, Note_off_c, 0, 41, 95
2, 63840, Note_on_c, 0, 45, 95
2, 63840, Note_on_c, 0, 40, 95
2, 63950, Note_off_c, 0, 45, 95
2, 63950, Note_off_c, 0, 40, 95
2, 64320, Note_on_c, 0, 65, 95
2, 64320, Note_on_c, 0, 60, 95
2, 64800, Note_off_c, 0, 65, 95
2, 65280, Note_off_c, 0, 60, 95
2, 65280, Note_on_c, 0, 55, 95
2, 65280, Note_on_c, 0, 50, 95
2, 65280, Note_on_c, 0, 43, 95
2, 66240, Note_off_c, 0, 55, 95
2, 66240, Note_off_c, 0, 50, 95
2, 66240, Note_off_c, 0, 43, 95
2, 66720, Note_on_c, 0, 53, 95
2, 66720, Note_on_c, 0, 48, 95
2, 66720, Note_on_c, 0, 41, 95
2, 67680, Note_off_c, 0, 53, 95
2, 67680, Note_off_c, 0, 48, 95
2, 67680, Note_off_c, 0, 41, 95
2, 67680, Note_on_c, 0, 45, 95
2, 67680, Note_on_c, 0, 40, 95
2, 67790, Note_off_c, 0, 45, 95
2, 67790, Note_off_c, 0, 40, 95
2, 68160, Note_on_c, 0, 65, 95
2, 68160, Note_on_c, 0, 60, 95
2, 68640, Note_off_c, 0, 65, 95
2, 69120, Note_off_c, 0, 60, 95
2, 69120, Note_on_c, 0, 55, 95
2, 69120, Note_on_c, 0, 50, 95
2, 69120, Note_on_c, 0, 43, 95
2, 70080, Note_off_c, 0, 55, 95
2, 70080, Note_off_c, 0, 50, 95
2, 70080, Note_off_c, 0, 43, 95
2, 70560, Note_on_c, 0, 53, 95
2, 70560, Note_on_c, 0, 48, 95
2, 70560, Note_on_c, 0, 41, 95
2, 71520, Note_off_c, 0, 53, 95
2, 71520, Note_off_c, 0, 48, 95
2, 71520, Note_off_c, 0, 41, 95
2, 71520, Note_on_c, 0, 45, 95
2, 71520, Note_on_c, 0, 40, 95
2, 71630, Note_off_c, 0, 45, 95
2, 71630, Note_off_c, 0, 40, 95
2, 72000, Note_on_c, 0, 65, 95
2, 72000, Note_on_c, 0, 60, 95
2, 72480, Note_off_c, 0, 65, 95
2, 72960, Note_off_c, 0, 60, 95
2, 72960, Note_on_c, 0, 55, 95
2, 72960, Note_on_c, 0, 50, 95
2, 72960, Note_on_c, 0, 43, 95
2, 73920, Note_off_c, 0, 55, 95
2, 73920, Note_off_c, 0, 50, 95
2, 73920, Note_off_c, 0, 43, 95
2, 74400, Note_on_c, 0, 53, 95
2, 74400, Note_on_c, 0, 48, 95
2, 74400, Note_on_c, 0, 41, 95
2, 75360, Note_off_c, 0, 53, 95
2, 75360, Note_off_c, 0, 48, 95
2, 75360, Note_off_c, 0, 41, 95
2, 75360, Note_on_c, 0, 45, 95
2, 75360, Note_on_c, 0, 40, 95
2, 75470, Note_off_c, 0, 45, 95
2, 75470, Note_off_c, 0, 40, 95
2, 75840, Note_on_c, 0, 65, 95
2, 75840, Note_on_c, 0, 60, 95
2, 76320, Note_off_c, 0, 65, 95
2, 76800, Note_off_c, 0, 60, 95
2, 76800, Note_on_c, 0, 55, 95
2, 76800, Note_on_c, 0, 50, 95
2, 76800, Note_on_c, 0, 43, 95
2, 77760, Note_off_c, 0, 55, 95
2, 77760, Note_off_c, 0, 50, 95
2, 77760, Note_off_c, 0, 43, 95
2, 78240, Note_on_c, 0, 53, 95
2, 78240, Note_on_c, 0, 48, 95
2, 78240, Note_on_c, 0, 41, 95
2, 79200, Note_off_c, 0, 53, 95
2, 79200, Note_off_c, 0, 48, 95
2, 79200, Note_off_c, 0, 41, 95
2, 79200, Note_on_c, 0, 45, 95
2, 79200, Note_on_c, 0, 40, 95
2, 79310, Note_off_c, 0, 45, 95
2, 79310, Note_off_c, 0, 40, 95
2, 79680, Note_on_c, 0, 65, 95
2, 79680, Note_on_c, 0, 60, 95
2, 80160, Note_off_c, 0, 65, 95
2, 80640, Note_off_c, 0, 60, 95
2, 80640, Note_on_c, 0, 55, 95
2, 80640, Note_on_c, 0, 50, 95
2, 80640, Note_on_c, 0, 43, 95
2, 81600, Note_off_c, 0, 55, 95
2, 81600, Note_off_c, 0, 50, 95
2, 81600, Note_off_c, 0, 43, 95
2, 82080, Note_on_c, 0, 53, 95
2, 82080, Note_on_c, 0, 48, 95
2, 82080, Note_on_c, 0, 41, 95
2, 83040, Note_off_c, 0, 53, 95
2, 83040, Note_off_c, 0, 48, 95
2, 83040, Note_off_c, 0, 41, 95
2, 83040, Note_on_c, 0, 45, 95
2, 83040, Note_on_c, 0, 40, 95
2, 83150, Note_off_c, 0, 45, 95
2, 83150, Note_off_c, 0, 40, 95
2, 83520, Note_on_c, 0, 65, 95
2, 83520, Note_on_c, 0, 60, 95
2, 84000, Note_off_c, 0, 65, 95
2, 84480, Note_off_c, 0, 60, 95
2, 84480, Note_on_c, 0, 55, 95
2, 84480, Note_on_c, 0, 50, 95
2, 84480, Note_on_c, 0, 43, 95
2, 85440, Note_off_c, 0, 55, 95
2, 85440, Note_off_c, 0, 50, 95
2, 85440, Note_off_c, 0, 43, 95
2, 85920, Note_on_c, 0, 53, 95
2, 85920, Note_on_c, 0, 48, 95
2, 85920, Note_on_c, 0, 41, 95
2, 86880, Note_off_c, 0, 53, 95
2, 86880, Note_off_c, 0, 48, 95
2, 86880, Note_off_c, 0, 41, 95
2, 86880, Note_on_c, 0, 45, 95
2, 86880, Note_on_c, 0, 40, 95
2, 86990, Note_off_c, 0, 45, 95
2, 86990, Note_off_c, 0, 40, 95
2, 87360, Note_on_c, 0, 65, 95
2, 87360, Note_on_c, 0, 60, 95
2, 87840, Note_off_c, 0, 65, 95
2, 88320, Note_off_c, 0, 60, 95
2, 88320, Note_on_c, 0, 55, 95
2, 88320, Note_on_c, 0, 50, 95
2, 88320, Note_on_c, 0, 43, 95
2, 89280, Note_off_c, 0, 55, 95
2, 89280, Note_off_c, 0, 50, 95
2, 89280, Note_off_c, 0, 43, 95
2, 89760, Note_on_c, 0, 53, 95
2, 89760, Note_on_c, 0, 48, 95
2, 89760, Note_on_c, 0, 41, 95
2, 90720, Note_off_c, 0, 53, 95
2, 90720, Note_off_c, 0, 48, 95
2, 90720, Note_off_c, 0, 41, 95
2, 90720, Note_on_c, 0, 45, 95
2, 90720, Note_on_c, 0, 40, 95
2, 90830, Note_off_c, 0, 45, 95
2, 90830, Note_off_c, 0, 40, 95
2, 91200, Note_on_c, 0, 65, 95
2, 91200, Note_on_c, 0, 60, 95
2, 91680, Note_off_c, 0, 65, 95
2, 92160, Note_off_c, 0, 60, 95
2, 92160, Note_on_c, 0, 55, 95
2, 92160, Note_on_c, 0, 50, 95
2, 92160, Note_on_c, 0, 43, 95
2, 93120, Note_off_c, 0, 55, 95
2, 93120, Note_off_c, 0, 50, 95
2, 93120, Note_off_c, 0, 43, 95
2, 93600, Note_on_c, 0, 53, 95
2, 93600, Note_on_c, 0, 48, 95
2, 93600, Note_on_c, 0, 41, 95
2, 94560, Note_off_c, 0, 53, 95
2, 94560, Note_off_c, 0, 48, 95
2, 94560, Note_off_c, 0, 41, 95
2, 94560, Note_on_c, 0, 45, 95
2, 94560, Note_on_c, 0, 40, 95
2, 94670, Note_off_c, 0, 45, 95
2, 94670, Note_off_c, 0, 40, 95
2, 95040, Note_on_c, 0, 65, 95
2, 95040, Note_on_c, 0, 60, 95
2, 95520, Note_off_c, 0, 65, 95
2, 96000, Note_off_c, 0, 60, 95
2, 96000, Note_on_c, 0, 55, 95
2, 96000, Note_on_c, 0, 50, 95
2, 96000, Note_on_c, 0, 43, 95
2, 96960, Note_off_c, 0, 55, 95
2, 96960, Note_off_c, 0, 50, 95
2, 96960, Note_off_c, 0, 43, 95
2, 97440, Note_on_c, 0, 53, 95
2, 97440, Note_on_c, 0, 48, 95
2, 97440, Note_on_c, 0, 41, 95
2, 98400, Note_off_c, 0, 53, 95
2, 98400, Note_off_c, 0, 48, 95
2, 98400, Note_off_c, 0, 41, 95
2, 98400, Note_on_c, 0, 45, 95
2, 98400, Note_on_c, 0, 40, 95
2, 98510, Note_off_c, 0, 45, 95
2, 98510, Note_off_c, 0, 40, 95
2, 98880, Note_on_c, 0, 65, 95
2, 98880, Note_on_c, 0, 60, 95
2, 99360, Note_off_c, 0, 65, 95
2, 99840, Note_off_c, 0, 60, 95
2, 99840, Note_on_c, 0, 55, 95
2, 99840, Note_on_c, 0, 50, 95
2, 99840, Note_on_c, 0, 43, 95
2, 100800, Note_off_c, 0, 55, 95
2, 100800, Note_off_c, 0, 50, 95
2, 100800, Note_off_c, 0, 43, 95
2, 101280, Note_on_c, 0, 53, 95
2, 101280, Note_on_c, 0, 48, 95
2, 101280, Note_on_c, 0, 41, 95
2, 102240, Note_off_c, 0, 53, 95
2, 102240, Note_off_c, 0, 48, 95
2, 102240, Note_off_c, 0, 41, 95
2, 102240, Note_on_c, 0, 45, 95
2, 102240, Note_on_c, 0, 40, 95
2, 102350, Note_off_c, 0, 45, 95
2, 102350, Note_off_c, 0, 40, 95
2, 102720, Note_on_c, 0, 65, 95
2, 102720, Note_on_c, 0, 60, 95
2, 103200, Note_off_c, 0, 65, 95
2, 103680, Note_off_c, 0, 60, 95
2, 103680, Note_on_c, 0, 55, 95
2, 103680, Note_on_c, 0, 50, 95
2, 103680, Note_on_c, 0, 43, 95
2, 104640, Note_off_c, 0, 55, 95
2, 104640, Note_off_c, 0, 50, 95
2, 104640, Note_off_c, 0, 43, 95
2, 105120, Note_on_c, 0, 53, 95
2, 105120, Note_on_c, 0, 48, 95
2, 105120, Note_on_c, 0, 41, 95
2, 106080, Note_off_c, 0, 53, 95
2, 106080, Note_off_c, 0, 48, 95
2, 106080, Note_off_c, 0, 41, 95
2, 106080, Note_on_c, 0, 45, 95
2, 106080, Note_on_c, 0, 40, 95
2, 106190, Note_off_c, 0, 45, 95
2, 106190, Note_off_c, 0, 40, 95
2, 106560, Note_on_c, 0, 65, 95
2, 106560, Note_on_c, 0, 60, 95
2, 107040, Note_off_c, 0, 65, 95
2, 107520, Note_off_c, 0, 60, 95
2, 107520, Note_on_c, 0, 55, 95
2, 107520, Note_on_c, 0, 50, 95
2, 107520, Note_on_c, 0, 43, 95
2, 108480, Note_off_c, 0, 55, 95
2, 108480, Note_off_c, 0, 50, 95
2, 108480, Note_off_c, 0, 43, 95
2, 108960, Note_on_c, 0, 53, 95
2, 108960, Note_on_c, 0, 48, 95
2, 108960, Note_on_c, 0, 41, 95
2, 109920, Note_off_c, 0, 53, 95
2, 109920, Note_off_c, 0, 48, 95
2, 109920, Note_off_c, 0, 41, 95
2, 109920, Note_on_c, 0, 45, 95
2, 109920, Note_on_c, 0, 40, 95
2, 110030, Note_off_c, 0, 45, 95
2, 110030, Note_off_c, 0, 40, 95
2, 110400, Note_on_c, 0, 65, 95
2, 110400, Note_on_c, 0, 60, 95
2, 110880, Note_off_c, 0, 65, 95
2, 111360, Note_off_c, 0, 60, 95
2, 111360, Note_on_c, 0, 55, 95
2, 111360, Note_on_c, 0, 50, 95
2, 111360, Note_on_c, 0, 43, 95
2, 112320, Note_off_c, 0, 55, 95
2, 112320, Note_off_c, 0, 50, 95
2, 112320, Note_off_c, 0, 43, 95
2, 112800, Note_on_c, 0, 53, 95
2, 112800, Note_on_c, 0, 48, 95
2, 112800, Note_on_c, 0, 41, 95
2, 113760, Note_off_c, 0, 53, 95
2, 113760, Note_off_c, 0, 48, 95
2, 113760, Note_off_c, 0, 41, 95
2, 113760, Note_on_c, 0, 45, 95
2, 113760, Note_on_c, 0, 40, 95
2, 113870, Note_off_c, 0, 45, 95
2, 113870, Note_off_c, 0, 40, 95
2, 114240, Note_on_c, 0, 65, 95
2, 114240, Note_on_c, 0, 60, 95
2, 114720, Note_off_c, 0, 65, 95
2, 115200, Note_off_c, 0, 60, 95
2, 115200, Note_on_c, 0, 55, 95
2, 115200, Note_on_c, 0, 50, 95
2, 115200, Note_on_c, 0, 43, 95
2, 116160, Note_off_c, 0, 55, 95
2, 116160, Note_off_c, 0, 50, 95
2, 116160, Note_off_c, 0, 43, 95
2, 116640, Note_on_c, 0, 53, 95
2, 116640, Note_on_c, 0, 48, 95
2, 116640, Note_on_c, 0, 41, 95
2, 117600, Note_off_c, 0, 53, 95
2, 117600, Note_off_c, 0, 48, 95
2, 117600, Note_off_c, 0, 41, 95
2, 117600, Note_on_c, 0, 45, 95
2, 117600, Note_on_c, 0, 40, 95
2, 117710, Note_off_c, 0, 45, 95
2, 117710, Note_off_c, 0, 40, 95
2, 118080, Note_on_c, 0, 65, 95
2, 118080, Note_on_c, 0, 60, 95
2, 118560, Note_off_c, 0, 65, 95
2, 119040, Note_off_c, 0, 60, 95
2, 119040, Note_on_c, 0, 55, 95
2, 119040, Note_on_c, 0, 50, 95
2, 119040, Note_on_c, 0, 43, 95
2, 120000, Note_off_c, 0, 55, 95
2, 120000, Note_off_c, 0, 50, 95
2, 120000, Note_off_c, 0, 43, 95
2, 120480, Note_on_c, 0, 53, 95
2, 120480, Note_on_c, 0, 48, 95
2, 120480, Note_on_c, 0, 41, 95
2, 121440, Note_off_c, 0, 53, 95
2, 121440, Note_off_c, 0, 48, 95
2, 121440, Note_off_c, 0, 41, 95
2, 121440, Note_on_c, 0, 45, 95
2, 121440, Note_on_c, 0, 40, 95
2, 121550, Note_off_c, 0, 45, 95
2, 121550, Note_off_c, 0, 40, 95
2, 121920, Note_on_c, 0, 65, 95
2, 121920, Note_on_c, 0, 60, 95
2, 122400, Note_off_c, 0, 65, 95
2, 122880, Note_off_c, 0, 60, 95
2, 122880, Note_on_c, 0, 55, 95
2, 122880, Note_on_c, 0, 50, 95
2, 122880, Note_on_c, 0, 43, 95
2, 123840, Note_off_c, 0, 55, 95
2, 123840, Note_off_c, 0, 50, 95
2, 123840, Note_off_c, 0, 43, 95
2, 124320, Note_on_c, 0, 53, 95
2, 124320, Note_on_c, 0, 48, 95
2, 124320, Note_on_c, 0, 41, 95
2, 125280, Note_off_c, 0, 53, 95
2, 125280, Note_off_c, 0, 48, 95
2, 125280, Note_off_c, 0, 41, 95
2, 125280, Note_on_c, 0, 45, 95
2, 125280, Note_on_c, 0, 40, 95
2, 125390, Note_off_c, 0, 45, 95
2, 125390, Note_off_c, 0, 40, 95
2, 125760, Note_on_c, 0, 65, 95
2, 125760, Note_on_c, 0, 60, 95
2, 126240, Note_off_c, 0, 65, 95
2, 126720, Note_off_c, 0, 60, 95
2, 126720, Note_on_c, 0, 55, 95
2, 126720, Note_on_c, 0, 50, 95
2, 126720, Note_on_c, 0, 43, 95
2, 127680, Note_off_c, 0, 55, 95
2, 127680, Note_off_c, 0, 50, 95
2, 127680, Note_off_c, 0, 43, 95
2, 128160, Note_on_c, 0, 53, 95
2, 128160, Note_on_c, 0, 48, 95
2, 128160, Note_on_c, 0, 41, 95
2, 129120, Note_off_c, 0, 53, 95
2, 129120, Note_off_c, 0, 48, 95
2, 129120, Note_off_c, 0, 41, 95
2, 129120, Note_on_c, 0, 45, 95
2, 129120, Note_on_c, 0, 40, 95
2, 129230, Note_off_c, 0, 45, 95
2, 129230, Note_off_c, 0, 40, 95
2, 129600, Note_on_c, 0, 65, 95
2, 129600, Note_on_c, 0, 60, 95
2, 130080, Note_off_c, 0, 65, 95
2, 130560, Note_off_c, 0, 60, 95
2, 130560, Note_on_c, 0, 55, 95
2, 130560, Note_on_c, 0, 50, 95
2, 130560, Note_on_c, 0, 43, 95
2, 131520, Note_off_c, 0, 55, 95
2, 131520, Note_off_c, 0, 50, 95
2, 131520, Note_off_c, 0, 43, 95
2, 132000, Note_on_c, 0, 53, 95
2, 132000, Note_on_c, 0, 48, 95
2, 132000, Note_on_c, 0, 41, 95
2, 132960, Note_off_c, 0, 53, 95
2, 132960, Note_off_c, 0, 48, 95
2, 132960, Note_off_c, 0, 41, 95
2, 132960, Note_on_c, 0, 45, 95
2, 132960, Note_on_c, 0, 40, 95
2, 133070, Note_off_c, 0, 45, 95
2, 133070, Note_off_c, 0, 40, 95
2, 133440, Note_on_c, 0, 65, 95
2, 133440, Note_on_c, 0, 60, 95
2, 133920, Note_off_c, 0, 65, 95
2, 134400, Note_off_c, 0, 60, 95
2, 468480, Note_on_c, 0, 55, 95
2, 468480, Note_on_c, 0, 50, 95
2, 468480, Note_on_c, 0, 43, 95
2, 469440, Note_off_c, 0, 55, 95
2, 469440, Note_off_c, 0, 50, 95
2, 469440, Note_off_c, 0, 43, 95
2, 469920, Note_on_c, 0, 53, 95
2, 469920, Note_on_c, 0, 48, 95
2, 469920, Note_on_c, 0, 41, 95
2, 470880, Note_off_c, 0, 53, 95
2, 470880, Note_off_c, 0, 48, 95
2, 470880, Note_off_c, 0, 41, 95
2, 470880, Note_on_c, 0, 45, 95
2, 470880, Note_on_c, 0, 40, 95
2, 470990, Note_off_c, 0, 45, 95
2, 470990, Note_off_c, 0, 40, 95
2, 471360, Note_on_c, 0, 65, 95
2, 471360, Note_on_c, 0, 60, 95
2, 471840, Note_off_c, 0, 65, 95
2, 472320, Note_off_c, 0, 60, 95
2, 472320, Note_on_c, 0, 55, 95
2, 472320, Note_on_c, 0, 50, 95
2, 472320, Note_on_c, 0, 43, 95
2, 473280, Note_off_c, 0, 55, 95
2, 473280, Note_off_c, 0, 50, 95
2, 473280, Note_off_c, 0, 43, 95
2, 473760, Note_on_c, 0, 53, 95
2, 473760, Note_on_c, 0, 48, 95
2, 473760, Note_on_c, 0, 41, 95
2, 474720, Note_off_c, 0, 53, 95
2, 474720, Note_off_c, 0, 48, 95
2, 474720, Note_off_c, 0, 41, 95
2, 474720, Note_on_c, 0, 45, 95
2, 474720, Note_on_c, 0, 40, 95
2, 474830, Note_off_c, 0, 45, 95
2, 474830, Note_off_c, 0, 40, 95
2, 475200, Note_on_c, 0, 65, 95
2, 475200, Note_on_c, 0, 60, 95
2, 475680, Note_off_c, 0, 65, 95
2, 476160, Note_off_c, 0, 60, 95
2, 476160, Note_on_c, 0, 55, 95
2, 476160, Note_on_c, 0, 50, 95
2, 476160, Note_on_c, 0, 43, 95
2, 477120, Note_off_c, 0, 55, 95
2, 477120, Note_off_c, 0, 50, 95
2, 477120, Note_off_c, 0, 43, 95
2, 477600, Note_on_c, 0, 53, 95
2, 477600, Note_on_c, 0, 48, 95
2, 477600, Note_on_c, 0, 41, 95
2, 478560, Note_off_c, 0, 53, 95
2, 478560, Note_off_c, 0, 48, 95
2, 478560, Note_off_c, 0, 41, 95
2, 478560, Note_on_c, 0, 45, 95
2, 478560, Note_on_c, 0, 40, 95
2, 478670, Note_off_c, 0, 45, 95
2, 478670, Note_off_c, 0, 40, 95
2, 479040, Note_on_c, 0, 65, 95
2, 479040, Note_on_c, 0, 60, 95
2, 479520, Note_off_c, 0, 65, 95
2, 480000, Note_off_c, 0, 60, 95
2, 480000, Note_on_c, 0, 55, 95
2, 480000, Note_on_c, 0, 50, 95
2, 480000, Note_on_c, 0, 43, 95
2, 480960, Note_off_c, 0, 55, 95
2, 480960, Note_off_c, 0, 50, 95
2, 480960, Note_off_c, 0, 43, 95
2, 481440, Note_on_c, 0, 53, 95
2, 481440, Note_on_c, 0, 48, 95
2, 481440, Note_on_c, 0, 41, 95
2, 482400, Note_off_c, 0, 53, 95
2, 482400, Note_off_c, 0, 48, 95
2, 482400, Note_off_c, 0, 41, 95
2, 482400, Note_on_c, 0, 45, 95
2, 482400, Note_on_c, 0, 40, 95
2, 482510, Note_off_c, 0, 45, 95
2, 482510, Note_off_c, 0, 40, 95
2, 482880, Note_on_c, 0, 65, 95
2, 482880, Note_on_c, 0, 60, 95
2, 483360, Note_off_c, 0, 65, 95
2, 483840, Note_off_c, 0, 60, 95
2, 483840, Note_on_c, 0, 48, 95
2, 484800, Note_off_c, 0, 48, 95
2, 485280, Note_on_c, 1, 51, 95
2, 485400, Pitch_bend_c, 1, 8320
2, 485520, Pitch_bend_c, 1, 8448
2, 485640, Pitch_bend_c, 1, 8704
2, 485760, Pitch_bend_c, 1, 8832
2, 485760, Pitch_bend_c, 1, 8192
2, 485760, Note_off_c, 1, 51, 95
2, 485760, Note_on_c, 0, 52, 95
2, 486240, Note_off_c, 0, 52, 95
2, 486240, Note_on_c, 0, 55, 95
2, 486720, Note_off_c, 0, 55, 95
2, 486720, Note_on_c, 0, 57, 95
2, 487680, Note_off_c, 0, 57, 95
2, 487680, Note_on_c, 0, 48, 95
2, 488640, Note_off_c, 0, 48, 95
2, 489120, Note_on_c, 1, 51, 95
2, 489240, Pitch_bend_c, 1, 8320
2, 489360, Pitch_bend_c, 1, 8448
2, 489480, Pitch_bend_c, 1, 8704
2, 489600, Pitch_bend_c, 1, 8832
2, 489600, Pitch_bend_c, 1, 8192
2, 489600, Note_off_c, 1, 51, 95
2, 489600, Note_on_c, 0, 52, 95
2, 490080, Note_off_c, 0, 52, 95
2, 490080, Note_on_c, 0, 55, 95
2, 490560, Note_off_c, 0, 55, 95
2, 490560, Note_on_c, 0, 57, 95
2, 491520, Note_off_c, 0, 57, 95
2, 491520, Note_on_c, 0, 43, 95
2, 492480, Note_off_c, 0, 43, 95
2, 492960, Note_on_c, 1, 46, 95
2, 493080, Pitch_bend_c, 1, 8320
2, 493200, Pitch_bend_c, 1, 8448
2, 493320, Pitch_bend_c, 1, 8704
2, 493440, Pitch_bend_c, 1, 8832
2, 493440, Pitch_bend_c, 1, 8192
2, 493440, Note_off_c, 1, 46, 95
2, 493440, Note_on_c, 0, 47, 95
2, 493920, Note_off_c, 0, 47, 95
2, 493920, Note_on_c, 0, 50, 95
2, 494400, Note_off_c, 0, 50, 95
2, 494400, Note_on_c, 0, 52, 95
2, 495360, Note_off_c, 0, 52, 95
2, 495360, Note_on_c, 0, 43, 95
2, 496320, Note_off_c, 0, 43, 95
2, 496800, Note_on_c, 1, 46, 95
2, 496920, Pitch_bend_c, 1, 8320
2, 497040, Pitch_bend_c, 1, 8448
2, 497160, Pitch_bend_c, 1, 8704
2, 497280, Pitch_bend_c, 1, 8832
2, 497280, Pitch_bend_c, 1, 8192
2, 497280, Note_off_c, 1, 46, 95
2, 497280, Note_on_c, 0, 47, 95
2, 497760, Note_off_c, 0, 47, 95
2, 497760, Note_on_c, 0, 50, 95
2, 498240, Note_off_c, 0, 50, 95
2, 498240, Note_on_c, 0, 52, 95
2, 499200, Note_off_c, 0, 52, 95
2, 499200, Note_on_c, 0, 51, 95
2, 500160, Note_off_c, 0, 51, 95
2, 500640, Note_on_c, 0, 55, 95
2, 501600, Note_off_c, 0, 55, 95
2, 501600, Note_on_c, 0, 58, 95
2, 502080, Note_off_c, 0, 58, 95
2, 502080, Note_on_c, 0, 51, 95
2, 503040, Note_off_c, 0, 51, 95
2, 503040, Note_on_c, 0, 57, 95
2, 504000, Note_off_c, 0, 57, 95
2, 504480, Note_on_c, 0, 57, 95
2, 504960, Note_off_c, 0, 57, 95
2, 504960, Note_on_c, 0, 58, 70
2, 505440, Note_off_c, 0, 58, 70
2, 505440, Note_on_c, 0, 57, 70
2, 505920, Note_off_c, 0, 57, 70
2, 505920, Note_on_c, 0, 53, 95
2, 506880, Note_off_c, 0, 53, 95
2, 506880, Note_on_c, 0, 50, 95
2, 507840, Note_off_c, 0, 50, 95
2, 508320, Note_on_c, 0, 53, 95
2, 509280, Note_off_c, 0, 53, 95
2, 509280, Note_on_c, 0, 55, 95
2, 509760, Note_off_c, 0, 55, 95
2, 509760, Note_on_c, 0, 48, 95
2, 510720, Note_off_c, 0, 48, 95
2, 510720, Note_on_c, 0, 53, 95
2, 511680, Note_off_c, 0, 53, 95
2, 512160, Note_on_c, 0, 53, 95
2, 513120, Note_off_c, 0, 53, 95
2, 513120, Note_on_c, 0, 55, 95
2, 513600, Note_off_c, 0, 55, 95
2, 513600, Note_on_c, 0, 50, 95
2, 514560, Note_off_c, 0, 50, 95
2, 514560, Note_on_c, 0, 51, 95
2, 515520, Note_off_c, 0, 51, 95
2, 516000, Note_on_c, 0, 55, 95
2, 516960, Note_off_c, 0, 55, 95
2, 516960, Note_on_c, 0, 58, 95
2, 517440, Note_off_c, 0, 58, 95
2, 517440, Note_on_c, 0, 56, 95
2, 518400, Note_off_c, 0, 56, 95
2, 518400, Note_on_c, 0, 53, 95
2, 519360, Note_off_c, 0, 53, 95
2, 519840, Note_on_c, 0, 57, 95
2, 520800, Note_off_c, 0, 57, 95
2, 520800, Note_on_c, 0, 60, 95
2, 521280, Note_off_c, 0, 60, 95
2, 521280, Note_on_c, 0, 53, 95
2, 522240, Note_off_c, 0, 53, 95
2, 522240, Note_on_c, 0, 43, 95
2, 523200, Note_off_c, 0, 43, 95
2, 523680, Note_on_c, 1, 46, 95
2, 523800, Pitch_bend_c, 1, 8320
2, 523920, Pitch_bend_c, 1, 8448
2, 524040, Pitch_bend_c, 1, 8704
2, 524160, Pitch_bend_c, 1, 8832
2, 524160, Pitch_bend_c, 1, 8192
2, 524160, Note_off_c, 1, 46, 95
2, 524160, Note_on_c, 0, 47, 95
2, 524640, Note_off_c, 0, 47, 95
2, 524640, Note_on_c, 0, 50, 95
2, 525120, Note_off_c, 0, 50, 95
2, 525120, Note_on_c, 0, 52, 95
2, 526080, Note_off_c, 0, 52, 95
2, 526080, Note_on_c, 0, 43, 95
2, 527040, Note_off_c, 0, 43, 95
2, 527520, Note_on_c, 1, 46, 95
2, 527640, Pitch_bend_c, 1, 8320
2, 527760, Pitch_bend_c, 1, 8448
2, 527880, Pitch_bend_c, 1, 8704
2, 528000, Pitch_bend_c, 1, 8832
2, 528000, Pitch_bend_c, 1, 8192
2, 528000, Note_off_c, 1, 46, 95
2, 528000, Note_on_c, 0, 47, 95
2, 528480, Note_off_c, 0, 47, 95
2, 528480, Note_on_c, 0, 50, 95
2, 528960, Note_off_c, 0, 50, 95
2, 528960, Note_on_c, 0, 52, 95
2, 529920, Note_off_c, 0, 52, 95
2, 529920, Note_on_c, 0, 43, 95
2, 530880, Note_off_c, 0, 43, 95
2, 531360, Note_on_c, 1, 46, 95
2, 531480, Pitch_bend_c, 1, 8320
2, 531600, Pitch_bend_c, 1, 8448
2, 531720, Pitch_bend_c, 1, 8704
2, 531840, Pitch_bend_c, 1, 8832
2, 531840, Pitch_bend_c, 1, 8192
2, 531840, Note_off_c, 1, 46, 95
2, 531840, Note_on_c, 0, 47, 95
2, 532320, Note_off_c, 0, 47, 95
2, 532320, Note_on_c, 0, 50, 95
2, 532800, Note_off_c, 0, 50, 95
2, 532800, Note_on_c, 0, 52, 95
2, 533760, Note_off_c, 0, 52, 95
2, 533760, Note_on_c, 0, 43, 95
2, 534720, Note_off_c, 0, 43, 95
2, 535200, Note_on_c, 1, 46, 95
2, 535320, Pitch_bend_c, 1, 8320
2, 535440, Pitch_bend_c, 1, 8448
2, 535560, Pitch_bend_c, 1, 8704
2, 535680, Pitch_bend_c, 1, 8832
2, 535680, Pitch_bend_c, 1, 8192
2, 535680, Note_off_c, 1, 46, 95
2, 535680, Note_on_c, 0, 47, 95
2, 536160, Note_off_c, 0, 47, 95
2, 536160, Note_on_c, 0, 50, 95
2, 536640, Note_off_c, 0, 50, 95
2, 536640, Note_on_c, 0, 52, 95
2, 537600, Note_off_c, 0, 52, 95
2, 545280, Note_on_c, 0, 55, 95
2, 545280, Note_on_c, 0, 50, 95
2, 546240, Note_off_c, 0, 55, 95
2, 546240, Note_off_c, 0, 50, 95
2, 546720, Note_on_c, 0, 55, 95
2, 546720, Note_on_c, 0, 50, 95
2, 547680, Note_off_c, 0, 55, 95
2, 547680, Note_off_c, 0, 50, 95
2, 547680, Note_on_c, 0, 55, 95
2, 547680, Note_on_c, 0, 50, 95
2, 548160, Note_off_c, 0, 55, 95
2, 548160, Note_off_c, 0, 50, 95
2, 548640, Note_on_c, 0, 55, 95
2, 548640, Note_on_c, 0, 50, 95
2, 549600, Note_off_c, 0, 55, 95
2, 549600, Note_off_c, 0, 50, 95
2, 549600, Note_on_c, 0, 55, 95
2, 549600, Note_on_c, 0, 50, 95
2, 550560, Note_off_c, 0, 55, 95
2, 550560, Note_off_c, 0, 50, 95
2, 550560, Note_on_c, 0, 55, 95
2, 550560, Note_on_c, 0, 50, 95
2, 551520, Note_off_c, 0, 55, 95
2, 551520, Note_off_c, 0, 50, 95
2, 551520, Note_on_c, 0, 55, 95
2, 551520, Note_on_c, 0, 50, 95
2, 552000, Note_off_c, 0, 55, 95
2, 552000, Note_off_c, 0, 50, 95
2, 560640, Note_on_c, 0, 55, 95
2, 560640, Note_on_c, 0, 50, 95
2, 561600, Note_off_c, 0, 55, 95
2, 561600, Note_off_c, 0, 50, 95
2, 562080, Note_on_c, 0, 55, 95
2, 562080, Note_on_c, 0, 50, 95
2, 563040, Note_off_c, 0, 55, 95
2, 563040, Note_off_c, 0, 50, 95
2, 563040, Note_on_c, 0, 55, 95
2, 563040, Note_on_c, 0, 50, 95
2, 563520, Note_off_c, 0, 55, 95
2, 563520, Note_off_c, 0, 50, 95
2, 564000, Note_on_c, 0, 55, 95
2, 564000, Note_on_c, 0, 50, 95
2, 564960, Note_off_c, 0, 55, 95
2, 564960, Note_off_c, 0, 50, 95
2, 564960, Note_on_c, 0, 55, 95
2, 564960, Note_on_c, 0, 50, 95
2, 565920, Note_off_c, 0, 55, 95
2, 565920, Note_off_c, 0, 50, 95
2, 565920, Note_on_c, 0, 55, 95
2, 565920, Note_on_c, 0, 50, 95
2, 566880, Note_off_c, 0, 55, 95
2, 566880, Note_off_c, 0, 50, 95
2, 566880, Note_on_c, 0, 55, 95
2, 566880, Note_on_c, 0, 50, 95
2, 567360, Note_off_c, 0, 55, 95
2, 567360, Note_off_c, 0, 50, 95
2, 576000, Note_on_c, 0, 55, 95
2, 576000, Note_on_c, 0, 50, 95
2, 576960, Note_off_c, 0, 55, 95
2, 576960, Note_off_c, 0, 50, 95
2, 577440, Note_on_c, 0, 55, 95
2, 577440, Note_on_c, 0, 50, 95
2, 578400, Note_off_c, 0, 55, 95
2, 578400, Note_off_c, 0, 50, 95
2, 578400, Note_on_c, 0, 55, 95
2, 578400, Note_on_c, 0, 50, 95
2, 578880, Note_off_c, 0, 55, 95
2, 578880, Note_off_c, 0, 50, 95
2, 579360, Note_on_c, 0, 55, 95
2, 579360, Note_on_c, 0, 50, 95
2, 580320, Note_off_c, 0, 55, 95
2, 580320, Note_off_c, 0, 50, 95
2, 580320, Note_on_c, 0, 55, 95
2, 580320, Note_on_c, 0, 50, 95
2, 581280, Note_off_c, 0, 55, 95
2, 581280, Note_off_c, 0, 50, 95
2, 581280, Note_on_c, 0, 55, 95
2, 581280, Note_on_c, 0, 50, 95
2, 582240, Note_off_c, 0, 55, 95
2, 582240, Note_off_c, 0, 50, 95
2, 582240, Note_on_c, 0, 55, 95
2, 582240, Note_on_c, 0, 50, 95
2, 582720, Note_off_c, 0, 55, 95
2, 582720, Note_off_c, 0, 50, 95
2, 622080, Note_on_c, 0, 55, 95
2, 622080, Note_on_c, 0, 50, 95
2, 622080, Note_on_c, 0, 43, 95
2, 623040, Note_off_c, 0, 55, 95
2, 623040, Note_off_c, 0, 50, 95
2, 623040, Note_off_c, 0, 43, 95
2, 623520, Note_on_c, 0, 53, 95
2, 623520, Note_on_c, 0, 48, 95
2, 623520, Note_on_c, 0, 41, 95
2, 624480, Note_off_c, 0, 53, 95
2, 624480, Note_off_c, 0, 48, 95
2, 624480, Note_off_c, 0, 41, 95
2, 624480, Note_on_c, 0, 45, 95
2, 624480, Note_on_c, 0, 40, 95
2, 624590, Note_off_c, 0, 45, 95
2, 624590, Note_off_c, 0, 40, 95
2, 624960, Note_on_c, 0, 65, 95
2, 624960, Note_on_c, 0, 60, 95
2, 625440, Note_off_c, 0, 65, 95
2, 625920, Note_off_c, 0, 60, 95
2, 625920, Note_on_c, 0, 55, 95
2, 625920, Note_on_c, 0, 50, 95
2, 625920, Note_on_c, 0, 43, 95
2, 626880, Note_off_c, 0, 55, 95
2, 626880, Note_off_c, 0, 50, 95
2, 626880, Note_off_c, 0, 43, 95
2, 627360, Note_on_c, 0, 53, 95
2, 627360, Note_on_c, 0, 48, 95
2, 627360, Note_on_c, 0, 41, 95
2, 628320, Note_off_c, 0, 53, 95
2, 628320, Note_off_c, 0, 48, 95
2, 628320, Note_off_c, 0, 41, 95
2, 628320, Note_on_c, 0, 45, 95
2, 628320, Note_on_c, 0, 40, 95
2, 628430, Note_off_c, 0, 45, 95
2, 628430, Note_off_c, 0, 40, 95
2, 628800, Note_on_c, 0, 65, 95
2, 628800, Note_on_c, 0, 60, 95
2, 629280, Note_off_c, 0, 65, 95
2, 629760, Note_off_c, 0, 60, 95
2, 629760, Note_on_c, 0, 55, 95
2, 629760, Note_on_c, 0, 50, 95
2, 629760, Note_on_c, 0, 43, 95
2, 630720, Note_off_c, 0, 55, 95
2, 630720, Note_off_c, 0, 50, 95
2, 630720, Note_off_c, 0, 43, 95
2, 631200, Note_on_c, 0, 53, 95
2, 631200, Note_on_c, 0, 48, 95
2, 631200, Note_on_c, 0, 41, 95
2, 632160, Note_off_c, 0, 53, 95
2, 632160, Note_off_c, 0, 48, 95
2, 632160, Note_off_c, 0, 41, 95
2, 632160, Note_on_c, 0, 45, 95
2, 632160, Note_on_c, 0, 40, 95
2, 632270, Note_off_c, 0, 45, 95
2, 632270, Note_off_c, 0, 40, 95
2, 632640, Note_on_c, 0, 65, 95
2, 632640, Note_on_c, 0, 60, 95
2, 633120, Note_off_c, 0, 65, 95
2, 633600, Note_off_c, 0, 60, 95
2, 637440, Note_on_c, 0, 55, 95
2, 637440, Note_on_c, 0, 50, 95
2, 637440, Note_on_c, 0, 43, 95
2, 638400, Note_off_c, 0, 55, 95
2, 638400, Note_off_c, 0, 50, 95
2, 638400, Note_off_c, 0, 43, 95
2, 638880, Note_on_c, 0, 53, 95
2, 638880, Note_on_c, 0, 48, 95
2, 638880, Note_on_c, 0, 41, 95
2, 639840, Note_off_c, 0, 53, 95
2, 639840, Note_off_c, 0, 48, 95
2, 639840, Note_off_c, 0, 41, 95
2, 639840, Note_on_c, 0, 45, 95
2, 639840, Note_on_c, 0, 40, 95
2, 639950, Note_off_c, 0, 45, 95
2, 639950, Note_off_c, 0, 40, 95
2, 640320, Note_on_c, 0, 65, 95
2, 640320, Note_on_c, 0, 60, 95
2, 640800, Note_off_c, 0, 65, 95
2, 641280, Note_off_c, 0, 60, 95
2, 641280, Note_on_c, 0, 55, 95
2, 641280, Note_on_c, 0, 50, 95
2, 641280, Note_on_c, 0, 43, 95
2, 642240, Note_off_c, 0, 55, 95
2, 642240, Note_off_c, 0, 50, 95
2, 642240, Note_off_c, 0, 43, 95
2, 642720, Note_on_c, 0, 53, 95
2, 642720, Note_on_c, 0, 48, 95
2, 642720, Note_on_c, 0, 41, 95
2, 643680, Note_off_c, 0, 53, 95
2, 643680, Note_off_c, 0, 48, 95
2, 643680, Note_off_c, 0, 41, 95
2, 643680, Note_on_c, 0, 45, 95
2, 643680, Note_on_c, 0, 40, 95
2, 643790, Note_off_c, 0, 45, 95
2, 643790, Note_off_c, 0, 40, 95
2, 644160, Note_on_c, 0, 65, 95
2, 644160, Note_on_c, 0, 60, 95
2, 644640, Note_off_c, 0, 65, 95
2, 645120, Note_off_c, 0, 60, 95
2, 645120, Note_on_c, 0, 55, 95
2, 645120, Note_on_c, 0, 50, 95
2, 645120, Note_on_c, 0, 43, 95
2, 646080, Note_off_c, 0, 55, 95
2, 646080, Note_off_c, 0, 50, 95
2, 646080, Note_off_c, 0, 43, 95
2, 646560, Note_on_c, 0, 53, 95
2, 646560, Note_on_c, 0, 48, 95
2, 646560, Note_on_c, 0, 41, 95
2, 647520, Note_off_c, 0, 53, 95
2, 647520, Note_off_c, 0, 48, 95
2, 647520, Note_off_c, 0, 41, 95
2, 647520, Note_on_c, 0, 45, 95
2, 647520, Note_on_c, 0, 40, 95
2, 647630, Note_off_c, 0, 45, 95
2, 647630, Note_off_c, 0, 40, 95
2, 648000, Note_on_c, 0, 65, 95
2, 648000, Note_on_c, 0, 60, 95
2, 648480, Note_off_c, 0, 65, 95
2, 648960, Note_off_c, 0, 60, 95
2, 648960, Note_on_c, 0, 55, 95
2, 648960, Note_on_c, 0, 50, 95
2, 648960, Note_on_c, 0, 43, 95
2, 649920, Note_off_c, 0, 55, 95
2, 649920, Note_off_c, 0, 50, 95
2, 649920, Note_off_c, 0, 43, 95
2, 650400, Note_on_c, 0, 53, 95
2, 650400, Note_on_c, 0, 48, 95
2, 650400, Note_on_c, 0, 41, 95
2, 651360, Note_off_c, 0, 53, 95
2, 651360, Note_off_c, 0, 48, 95
2, 651360, Note_off_c, 0, 41, 95
2, 651360, Note_on_c, 0, 45, 95
2, 651360, Note_on_c, 0, 40, 95
2, 651470, Note_off_c, 0, 45, 95
2, 651470, Note_off_c, 0, 40, 95
2, 651840, Note_on_c, 0, 65, 95
2, 651840, Note_on_c, 0, 60, 95
2, 652320, Note_off_c, 0, 65, 95
2, 652800, Note_off_c, 0, 60, 95
2, 652800, Note_on_c, 0, 55, 95
2, 652800, Note_on_c, 0, 50, 95
2, 652800, Note_on_c, 0, 43, 95
2, 653760, Note_off_c, 0, 55, 95
2, 653760, Note_off_c, 0, 50, 95
2, 653760, Note_off_c, 0, 43, 95
2, 654240, Note_on_c, 0, 53, 95
2, 654240, Note_on_c, 0, 48, 95
2, 654240, Note_on_c, 0, 41, 95
2, 655200, Note_off_c, 0, 53, 95
2, 655200, Note_off_c, 0, 48, 95
2, 655200, Note_off_c, 0, 41, 95
2, 655200, Note_on_c, 0, 45, 95
2, 655200, Note_on_c, 0, 40, 95
2, 655310, Note_off_c, 0, 45, 95
2, 655310, Note_off_c, 0, 40, 95
2, 655680, Note_on_c, 0, 65, 95
2, 655680, Note_on_c, 0, 60, 95
2, 656160, Note_off_c, 0, 65, 95
2, 656640, Note_off_c, 0, 60, 95
2, 656640, Note_on_c, 0, 55, 95
2, 656640, Note_on_c, 0, 50, 95
2, 656640, Note_on_c, 0, 43, 95
2, 657600, Note_off_c, 0, 55, 95
2, 657600, Note_off_c, 0, 50, 95
2, 657600, Note_off_c, 0, 43, 95
2, 658080, Note_on_c, 0, 53, 95
2, 658080, Note_on_c, 0, 48, 95
2, 658080, Note_on_c, 0, 41, 95
2, 659040, Note_off_c, 0, 53, 95
2, 659040, Note_off_c, 0, 48, 95
2, 659040, Note_off_c, 0, 41, 95
2, 659040, Note_on_c, 0, 45, 95
2, 659040, Note_on_c, 0, 40, 95
2, 659150, Note_off_c, 0, 45, 95
2, 659150, Note_off_c, 0, 40, 95
2, 659520, Note_on_c, 0, 65, 95
2, 659520, Note_on_c, 0, 60, 95
2, 660000, Note_off_c, 0, 65, 95
2, 660480, Note_off_c, 0, 60, 95
2, 660480, Note_on_c, 0, 55, 95
2, 660480, Note_on_c, 0, 50, 95
2, 660480, Note_on_c, 0, 43, 95
2, 661440, Note_off_c, 0, 55, 95
2, 661440, Note_off_c, 0, 50, 95
2, 661440, Note_off_c, 0, 43, 95
2, 661920, Note_on_c, 0, 53, 95
2, 661920, Note_on_c, 0, 48, 95
2, 661920, Note_on_c, 0, 41, 95
2, 662880, Note_off_c, 0, 53, 95
2, 662880, Note_off_c, 0, 48, 95
2, 662880, Note_off_c, 0, 41, 95
2, 662880, Note_on_c, 0, 45, 95
2, 662880, Note_on_c, 0, 40, 95
2, 662990, Note_off_c, 0, 45, 95
2, 662990, Note_off_c, 0, 40, 95
2, 663360, Note_on_c, 0, 65, 95
2, 663360, Note_on_c, 0, 60, 95
2, 663840, Note_off_c, 0, 65, 95
2, 664320, Note_off_c, 0, 60, 95
2, 668160, Note_on_c, 0, 55, 95
2, 668160, Note_on_c, 0, 50, 95
2, 668160, Note_on_c, 0, 43, 95
2, 669120, Note_off_c, 0, 55, 95
2, 669120, Note_off_c, 0, 50, 95
2, 669120, Note_off_c, 0, 43, 95
2, 669600, Note_on_c, 0, 53, 95
2, 669600, Note_on_c, 0, 48, 95
2, 669600, Note_on_c, 0, 41, 95
2, 670560, Note_off_c, 0, 53, 95
2, 670560, Note_off_c, 0, 48, 95
2, 670560, Note_off_c, 0, 41, 95
2, 670560, Note_on_c, 0, 45, 95
2, 670560, Note_on_c, 0, 40, 95
2, 670670, Note_off_c, 0, 45, 95
2, 670670, Note_off_c, 0, 40, 95
2, 671040, Note_on_c, 0, 65, 95
2, 671040, Note_on_c, 0, 60, 95
2, 671520, Note_off_c, 0, 65, 95
2, 672000, Note_off_c, 0, 60, 95
2, 672000, Note_on_c, 0, 55, 95
2, 672000, Note_on_c, 0, 50, 95
2, 672000, Note_on_c, 0, 43, 95
2, 672960, Note_off_c, 0, 55, 95
2, 672960, Note_off_c, 0, 50, 95
2, 672960, Note_off_c, 0, 43, 95
2, 673440, Note_on_c, 0, 53, 95
2, 673440, Note_on_c, 0, 48, 95
2, 673440, Note_on_c, 0, 41, 95
2, 674400, Note_off_c, 0, 53, 95
2, 674400, Note_off_c, 0, 48, 95
2, 674400, Note_off_c, 0, 41, 95
2, 674400, Note_on_c, 0, 45, 95
2, 674400, Note_on_c, 0, 40, 95
2, 674510, Note_off_c, 0, 45, 95
2, 674510, Note_off_c, 0, 40, 95
2, 674880, Note_on_c, 0, 65, 95
2, 674880, Note_on_c, 0, 60, 95
2, 675360, Note_off_c, 0, 65, 95
2, 675840, Note_off_c, 0, 60, 95
2, 675840, Note_on_c, 0, 55, 95
2, 675840, Note_on_c, 0, 50, 95
2, 675840, Note_on_c, 0, 43, 95
2, 676800, Note_off_c, 0, 55, 95
2, 676800, Note_off_c, 0, 50, 95
2, 676800, Note_off_c, 0, 43, 95
2, 677280, Note_on_c, 0, 53, 95
2, 677280, Note_on_c, 0, 48, 95
2, 677280, Note_on_c, 0, 41, 95
2, 678240, Note_off_c, 0, 53, 95
2, 678240, Note_off_c, 0, 48, 95
2, 678240, Note_off_c, 0, 41, 95
2, 678240, Note_on_c, 0, 45, 95
2, 678240, Note_on_c, 0, 40, 95
2, 678350, Note_off_c, 0, 45, 95
2, 678350, Note_off_c, 0, 40, 95
2, 678720, Note_on_c, 0, 65, 95
2, 678720, Note_on_c, 0, 60, 95
2, 679200, Note_off_c, 0, 65, 95
2, 679680, Note_off_c, 0, 60, 95
2, 679680, Note_on_c, 0, 55, 95
2, 679680, Note_on_c, 0, 50, 95
2, 679680, Note_on_c, 0, 43, 95
2, 680640, Note_off_c, 0, 55, 95
2, 680640, Note_off_c, 0, 50, 95
2, 680640, Note_off_c, 0, 43, 95
2, 681120, Note_on_c, 0, 53, 95
2, 681120, Note_on_c, 0, 48, 95
2, 681120, Note_on_c, 0, 41, 95
2, 682080, Note_off_c, 0, 53, 95
2, 682080, Note_off_c, 0, 48, 95
2, 682080, Note_off_c, 0, 41, 95
2, 682080, Note_on_c, 0, 45, 95
2, 682080, Note_on_c, 0, 40, 95
2, 682190, Note_off_c, 0, 45, 95
2, 682190, Note_off_c, 0, 40, 95
2, 682560, Note_on_c, 0, 65, 95
2, 682560, Note_on_c, 0, 60, 95
2, 683040, Note_off_c, 0, 65, 95
2, 683520, Note_off_c, 0, 60, 95
2, 683520, Note_on_c, 0, 55, 95
2, 683520, Note_on_c, 0, 50, 95
2, 683520, Note_on_c, 0, 43, 95
2, 684480, Note_off_c, 0, 55, 95
2, 684480, Note_off_c, 0, 50, 95
2, 684480, Note_off_c, 0, 43, 95
2, 684960, Note_on_c, 0, 53, 95
2, 684960, Note_on_c, 0, 48, 95
2, 684960, Note_on_c, 0, 41, 95
2, 685920, Note_off_c, 0, 53, 95
2, 685920, Note_off_c, 0, 48, 95
2, 685920, Note_off_c, 0, 41, 95
2, 685920, Note_on_c, 0, 45, 95
2, 685920, Note_on_c, 0, 40, 95
2, 686030, Note_off_c, 0, 45, 95
2, 686030, Note_off_c, 0, 40, 95
2, 686400, Note_on_c, 0, 65, 95
2, 686400, Note_on_c, 0, 60, 95
2, 686880, Note_off_c, 0, 65, 95
2, 687360, Note_off_c, 0, 60, 95
2, 687360, Note_on_c, 0, 55, 95
2, 687360, Note_on_c, 0, 50, 95
2, 687360, Note_on_c, 0, 43, 95
2, 688320, Note_off_c, 0, 55, 95
2, 688320, Note_off_c, 0, 50, 95
2, 688320, Note_off_c, 0, 43, 95
2, 688800, Note_on_c, 0, 53, 95
2, 688800, Note_on_c, 0, 48, 95
2, 688800, Note_on_c, 0, 41, 95
2, 689760, Note_off_c, 0, 53, 95
2, 689760, Note_off_c, 0, 48, 95
2, 689760, Note_off_c, 0, 41, 95
2, 689760, Note_on_c, 0, 45, 95
2, 689760, Note_on_c, 0, 40, 95
2, 689870, Note_off_c, 0, 45, 95
2, 689870, Note_off_c, 0, 40, 95
2, 690240, Note_on_c, 0, 65, 95
2, 690240, Note_on_c, 0, 60, 95
2, 690720, Note_off_c, 0, 65, 95
2, 691200, Note_off_c, 0, 60, 95
2, 691200, Note_on_c, 0, 55, 95
2, 691200, Note_on_c, 0, 50, 95
2, 691200, Note_on_c, 0, 43, 95
2, 692160, Note_off_c, 0, 55, 95
2, 692160, Note_off_c, 0, 50, 95
2, 692160, Note_off_c, 0, 43, 95
2, 692640, Note_on_c, 0, 53, 95
2, 692640, Note_on_c, 0, 48, 95
2, 692640, Note_on_c, 0, 41, 95
2, 693600, Note_off_c, 0, 53, 95
2, 693600, Note_off_c, 0, 48, 95
2, 693600, Note_off_c, 0, 41, 95
2, 693600, Note_on_c, 0, 45, 95
2, 693600, Note_on_c, 0, 40, 95
2, 693710, Note_off_c, 0, 45, 95
2, 693710, Note_off_c, 0, 40, 95
2, 694080, Note_on_c, 0, 65, 95
2, 694080, Note_on_c, 0, 60, 95
2, 694560, Note_off_c, 0, 65, 95
2, 695040, Note_off_c, 0, 60, 95
2, 695040, Note_on_c, 0, 55, 95
2, 695040, Note_on_c, 0, 50, 95
2, 695040, Note_on_c, 0, 43, 95
2, 696000, Note_off_c, 0, 55, 95
2, 696000, Note_off_c, 0, 50, 95
2, 696000, Note_off_c, 0, 43, 95
2, 696480, Note_on_c, 0, 53, 95
2, 696480, Note_on_c, 0, 48, 95
2, 696480, Note_on_c, 0, 41, 95
2, 697440, Note_off_c, 0, 53, 95
2, 697440, Note_off_c, 0, 48, 95
2, 697440, Note_off_c, 0, 41, 95
2, 697440, Note_on_c, 0, 45, 95
2, 697440, Note_on_c, 0, 40, 95
2, 697550, Note_off_c, 0, 45, 95
2, 697550, Note_off_c, 0, 40, 95
2, 697920, Note_on_c, 0, 65, 95
2, 697920, Note_on_c, 0, 60, 95
2, 698400, Note_off_c, 0, 65, 95
2, 698880, Note_off_c, 0, 60, 95
2, 698880, Note_on_c, 0, 55, 95
2, 698880, Note_on_c, 0, 50, 95
2, 698880, Note_on_c, 0, 43, 95
2, 699840, Note_off_c, 0, 55, 95
2, 699840, Note_off_c, 0, 50, 95
2, 699840, Note_off_c, 0, 43, 95
2, 700320, Note_on_c, 0, 53, 95
2, 700320, Note_on_c, 0, 48, 95
2, 700320, Note_on_c, 0, 41, 95
2, 701280, Note_off_c, 0, 53, 95
2, 701280, Note_off_c, 0, 48, 95
2, 701280, Note_off_c, 0, 41, 95
2, 701280, Note_on_c, 0, 45, 95
2, 701280, Note_on_c, 0, 40, 95
2, 701390, Note_off_c, 0, 45, 95
2, 701390, Note_off_c, 0, 40, 95
2, 701760, Note_on_c, 0, 65, 95
2, 701760, Note_on_c, 0, 60, 95
2, 702240, Note_off_c, 0, 65, 95
2, 702720, Note_off_c, 0, 60, 95
2, 702720, Note_on_c, 0, 55, 95
2, 702720, Note_on_c, 0, 50, 95
2, 702720, Note_on_c, 0, 43, 95
2, 703680, Note_off_c, 0, 55, 95
2, 703680, Note_off_c, 0, 50, 95
2, 703680, Note_off_c, 0, 43, 95
2, 704160, Note_on_c, 0, 53, 95
2, 704160, Note_on_c, 0, 48, 95
2, 704160, Note_on_c, 0, 41, 95
2, 705120, Note_off_c, 0, 53, 95
2, 705120, Note_off_c, 0, 48, 95
2, 705120, Note_off_c, 0, 41, 95
2, 705120, Note_on_c, 0, 45, 95
2, 705120, Note_on_c, 0, 40, 95
2, 705230, Note_off_c, 0, 45, 95
2, 705230, Note_off_c, 0, 40, 95
2, 705600, Note_on_c, 0, 65, 95
2, 705600, Note_on_c, 0, 60, 95
2, 706080, Note_off_c, 0, 65, 95
2, 706560, Note_off_c, 0, 60, 95
2, 706560, Note_on_c, 0, 55, 95
2, 706560, Note_on_c, 0, 50, 95
2, 706560, Note_on_c, 0, 43, 95
2, 707520, Note_off_c, 0, 55, 95
2, 707520, Note_off_c, 0, 50, 95
2, 707520, Note_off_c, 0, 43, 95
2, 708000, Note_on_c, 0, 53, 95
2, 708000, Note_on_c, 0, 48, 95
2, 708000, Note_on_c, 0, 41, 95
2, 708960, Note_off_c, 0, 53, 95
2, 708960, Note_off_c, 0, 48, 95
2, 708960, Note_off_c, 0, 41, 95
2, 708960, Note_on_c, 0, 45, 95
2, 708960, Note_on_c, 0, 40, 95
2, 709070, Note_off_c, 0, 45, 95
2, 709070, Note_off_c, 0, 40, 95
2, 709440, Note_on_c, 0, 65, 95
2, 709440, Note_on_c, 0, 60, 95
2, 709920, Note_off_c, 0, 65, 95
2, 710400, Note_off_c, 0, 60, 95
2, 710400, Note_on_c, 0, 55, 95
2, 710400, Note_on_c, 0, 50, 95
2, 710400, Note_on_c, 0, 43, 95
2, 711360, Note_off_c, 0, 55, 95
2, 711360, Note_off_c, 0, 50, 95
2, 711360, Note_off_c, 0, 43, 95
2, 711840, Note_on_c, 0, 53, 95
2, 711840, Note_on_c, 0, 48, 95
2, 711840, Note_on_c, 0, 41, 95
2, 712800, Note_off_c, 0, 53, 95
2, 712800, Note_off_c, 0, 48, 95
2, 712800, Note_off_c, 0, 41, 95
2, 712800, Note_on_c, 0, 45, 95
2, 712800, Note_on_c, 0, 40, 95
2, 712910, Note_off_c, 0, 45, 95
2, 712910, Note_off_c, 0, 40, 95
2, 713280, Note_on_c, 0, 65, 95
2, 713280, Note_on_c, 0, 60, 95
2, 713760, Note_off_c, 0, 65, 95
2, 714240, Note_off_c, 0, 60, 95
2, 714240, Note_on_c, 0, 55, 95
2, 714240, Note_on_c, 0, 50, 95
2, 714240, Note_on_c, 0, 43, 95
2, 715200, Note_off_c, 0, 55, 95
2, 715200, Note_off_c, 0, 50, 95
2, 715200, Note_off_c, 0, 43, 95
2, 715680, Note_on_c, 0, 53, 95
2, 715680, Note_on_c, 0, 48, 95
2, 715680, Note_on_c, 0, 41, 95
2, 716640, Note_off_c, 0, 53, 95
2, 716640, Note_off_c, 0, 48, 95
2, 716640, Note_off_c, 0, 41, 95
2, 716640, Note_on_c, 0, 45, 95
2, 716640, Note_on_c, 0, 40, 95
2, 716750, Note_off_c, 0, 45, 95
2, 716750, Note_off_c, 0, 40, 95
2, 717120, Note_on_c, 0, 65, 95
2, 717120, Note_on_c, 0, 60, 95
2, 717600, Note_off_c, 0, 65, 95
2, 718080, Note_off_c, 0, 60, 95
2, 718080, Note_on_c, 0, 55, 95
2, 718080, Note_on_c, 0, 50, 95
2, 718080, Note_on_c, 0, 43, 95
2, 719040, Note_off_c, 0, 55, 95
2, 719040, Note_off_c, 0, 50, 95
2, 719040, Note_off_c, 0, 43, 95
2, 725760, Note_on_c, 0, 55, 95
2, 725760, Note_on_c, 0, 50, 95
2, 725760, Note_on_c, 0, 43, 127
2, 726720, Note_off_c, 0, 55, 95
2, 726720, Note_off_c, 0, 50, 95
2, 726720, Note_off_c, 0, 43, 127
2, 726720, End_track
3, 0, Start_track
3, 0, Pitch_bend_c, 2, 8192
3, 0, Control_c, 2, 7, 103
3, 0, Control_c, 2, 10, 63
3, 0, Control_c, 2, 93, 0
3, 0, Control_c, 2, 91, 0
3, 0, Control_c, 2, 95, 0
3, 0, Control_c, 2, 92, 0
3, 0, Control_c, 2, 11, 127
3, 0, Program_c, 2, 30
3, 0, Control_c, 3, 7, 103
3, 0, Control_c, 3, 10, 63
3, 0, Control_c, 3, 93, 0
3, 0, Control_c, 3, 91, 0
3, 0, Control_c, 3, 95, 0
3, 0, Control_c, 3, 92, 0
3, 0, Control_c, 3, 11, 127
3, 0, Program_c, 3, 30
3, 75360, Note_on_c, 2, 59, 95
3, 75840, Note_off_c, 2, 59, 95
3, 75840, Note_on_c, 2, 60, 95
3, 76800, Note_off_c, 2, 60, 95
3, 76800, Pitch_bend_c, 3, 8192
3, 76800, Note_on_c, 3, 60, 95
3, 76974, Pitch_bend_c, 3, 8320
3, 77148, Pitch_bend_c, 3, 8448
3, 77322, Pitch_bend_c, 3, 8576
3, 77496, Pitch_bend_c, 3, 8704
3, 77670, Pitch_bend_c, 3, 8832
3, 77844, Pitch_bend_c, 3, 8960
3, 78018, Pitch_bend_c, 3, 9088
3, 78192, Pitch_bend_c, 3, 9216
3, 78366, Pitch_bend_c, 3, 9344
3, 78540, Pitch_bend_c, 3, 9472
3, 78714, Pitch_bend_c, 3, 9600
3, 78720, Pitch_bend_c, 3, 9600
3, 80640, Pitch_bend_c, 3, 9600
3, 80640, Pitch_bend_c, 3, 8192
3, 80640, Note_off_c, 3, 60, 95
3, 80640, Pitch_bend_c, 3, 8192
3, 80640, Note_on_c, 3, 60, 95
3, 80669, Pitch_bend_c, 3, 8320
3, 80698, Pitch_bend_c, 3, 8448
3, 80727, Pitch_bend_c, 3, 8576
3, 80756, Pitch_bend_c, 3, 8704
3, 80785, Pitch_bend_c, 3, 8832
3, 80814, Pitch_bend_c, 3, 8960
3, 80843, Pitch_bend_c, 3, 9088
3, 80872, Pitch_bend_c, 3, 9216
3, 80901, Pitch_bend_c, 3, 9344
3, 80930, Pitch_bend_c, 3, 9472
3, 80959, Pitch_bend_c, 3, 9600
3, 80960, Pitch_bend_c, 3, 9600
3, 81280, Pitch_bend_c, 3, 9600
3, 81280, Pitch_bend_c, 3, 8192
3, 81280, Note_off_c, 3, 60, 95
3, 81280, Pitch_bend_c, 3, 9600
3, 81280, Note_on_c, 3, 60, 95
3, 81493, Pitch_bend_c, 3, 9600
3, 81512, Pitch_bend_c, 3, 9472
3, 81531, Pitch_bend_c, 3, 9344
3, 81550, Pitch_bend_c, 3, 9216
3, 81569, Pitch_bend_c, 3, 9088
3, 81588, Pitch_bend_c, 3, 8960
3, 81607, Pitch_bend_c, 3, 8832
3, 81626, Pitch_bend_c, 3, 8704
3, 81645, Pitch_bend_c, 3, 8576
3, 81664, Pitch_bend_c, 3, 8448
3, 81683, Pitch_bend_c, 3, 8320
3, 81702, Pitch_bend_c, 3, 8192
3, 81706, Pitch_bend_c, 3, 8192
3, 81920, Pitch_bend_c, 3, 8192
3, 81920, Pitch_bend_c, 3, 8192
3, 81920, Note_off_c, 3, 60, 95
3, 81920, Note_on_c, 2, 59, 95
3, 82560, Note_off_c, 2, 59, 95
3, 82560, Note_on_c, 2, 60, 95
3, 83200, Note_off_c, 2, 60, 95
3, 83200, Note_on_c, 2, 59, 70
3, 83840, Note_off_c, 2, 59, 70
3, 83840, Note_on_c, 2, 57, 95
3, 84480, Note_off_c, 2, 57, 95
3, 84480, Note_on_c, 3, 55, 95
3, 84600, Pitch_bend_c, 3, 7936
3, 84720, Pitch_bend_c, 3, 7552
3, 84840, Pitch_bend_c, 3, 7168
3, 84960, Pitch_bend_c, 3, 6784
3, 84960, Pitch_bend_c, 3, 8192
3, 84960, Note_off_c, 3, 55, 95
3, 84960, Note_on_c, 2, 53, 95
3, 85200, Note_off_c, 2, 53, 95
3, 85200, Note_on_c, 2, 53, 95
3, 85440, Note_off_c, 2, 53, 95
3, 85440, Note_on_c, 2, 53, 95
3, 85680, Note_off_c, 2, 53, 95
3, 85680, Note_on_c, 2, 53, 95
3, 85920, Note_off_c, 2, 53, 95
3, 85920, Note_on_c, 2, 53, 95
3, 86160, Note_off_c, 2, 53, 95
3, 86160, Note_on_c, 2, 53, 95
3, 86400, Note_off_c, 2, 53, 95
3, 86400, Note_on_c, 2, 53, 95
3, 86640, Note_off_c, 2, 53, 95
3, 86640, Note_on_c, 2, 53, 95
3, 86880, Note_off_c, 2, 53, 95
3, 86880, Note_on_c, 2, 53, 95
3, 87120, Note_off_c, 2, 53, 95
3, 87120, Note_on_c, 2, 53, 95
3, 87360, Note_off_c, 2, 53, 95
3, 87360, Note_on_c, 2, 53, 95
3, 87600, Note_off_c, 2, 53, 95
3, 87600, Note_on_c, 2, 53, 95
3, 87840, Note_off_c, 2, 53, 95
3, 87840, Note_on_c, 2, 53, 95
3, 88080, Note_off_c, 2, 53, 95
3, 88080, Note_on_c, 2, 53, 95
3, 88320, Note_off_c, 2, 53, 95
3, 88320, Note_on_c, 2, 53, 95
3, 88560, Note_off_c, 2, 53, 95
3, 88560, Note_on_c, 2, 53, 95
3, 88800, Note_off_c, 2, 53, 95
3, 88800, Note_on_c, 2, 53, 95
3, 89040, Note_off_c, 2, 53, 95
3, 89040, Note_on_c, 2, 53, 95
3, 89280, Note_off_c, 2, 53, 95
3, 89280, Note_on_c, 2, 53, 95
3, 89520, Note_off_c, 2, 53, 95
3, 89520, Note_on_c, 2, 53, 95
3, 89760, Note_off_c, 2, 53, 95
3, 89760, Note_on_c, 2, 53, 95
3, 90000, Note_off_c, 2, 53, 95
3, 90000, Note_on_c, 2, 53, 95
3, 90240, Note_off_c, 2, 53, 95
3, 90240, Note_on_c, 2, 53, 95
3, 90480, Note_off_c, 2, 53, 95
3, 90480, Note_on_c, 2, 53, 95
3, 90719, Note_off_c, 2, 53, 95
3, 90720, Note_on_c, 2, 59, 95
3, 91200, Note_off_c, 2, 59, 95
3, 91200, Note_on_c, 2, 60, 95
3, 92160, Note_off_c, 2, 60, 95
3, 92160, Pitch_bend_c, 3, 8192
3, 92160, Note_on_c, 3, 60, 95
3, 92334, Pitch_bend_c, 3, 8320
3, 92508, Pitch_bend_c, 3, 8448
3, 92682, Pitch_bend_c, 3, 8576
3, 92856, Pitch_bend_c, 3, 8704
3, 93030, Pitch_bend_c, 3, 8832
3, 93204, Pitch_bend_c, 3, 8960
3, 93378, Pitch_bend_c, 3, 9088
3, 93552, Pitch_bend_c, 3, 9216
3, 93726, Pitch_bend_c, 3, 9344
3, 93900, Pitch_bend_c, 3, 9472
3, 94074, Pitch_bend_c, 3, 9600
3, 94080, Pitch_bend_c, 3, 9600
3, 96000, Pitch_bend_c, 3, 9600
3, 96000, Pitch_bend_c, 3, 8192
3, 96000, Note_off_c, 3, 60, 95
3, 96000, Pitch_bend_c, 3, 8192
3, 96000, Note_on_c, 3, 60, 95
3, 96029, Pitch_bend_c, 3, 8320
3, 96058, Pitch_bend_c, 3, 8448
3, 96087, Pitch_bend_c, 3, 8576
3, 96116, Pitch_bend_c, 3, 8704
3, 96145, Pitch_bend_c, 3, 8832
3, 96174, Pitch_bend_c, 3, 8960
3, 96203, Pitch_bend_c, 3, 9088
3, 96232, Pitch_bend_c, 3, 9216
3, 96261, Pitch_bend_c, 3, 9344
3, 96290, Pitch_bend_c, 3, 9472
3, 96319, Pitch_bend_c, 3, 9600
3, 96320, Pitch_bend_c, 3, 9600
3, 96640, Pitch_bend_c, 3, 9600
3, 96640, Pitch_bend_c, 3, 8192
3, 96640, Note_off_c, 3, 60, 95
3, 96640, Pitch_bend_c, 3, 9600
3, 96640, Note_on_c, 3, 60, 95
3, 96853, Pitch_bend_c, 3, 9600
3, 96872, Pitch_bend_c, 3, 9472
3, 96891, Pitch_bend_c, 3, 9344
3, 96910, Pitch_bend_c, 3, 9216
3, 96929, Pitch_bend_c, 3, 9088
3, 96948, Pitch_bend_c, 3, 8960
3, 96967, Pitch_bend_c, 3, 8832
3, 96986, Pitch_bend_c, 3, 8704
3, 97005, Pitch_bend_c, 3, 8576
3, 97024, Pitch_bend_c, 3, 8448
3, 97043, Pitch_bend_c, 3, 8320
3, 97062, Pitch_bend_c, 3, 8192
3, 97066, Pitch_bend_c, 3, 8192
3, 97280, Pitch_bend_c, 3, 8192
3, 97280, Pitch_bend_c, 3, 8192
3, 97280, Note_off_c, 3, 60, 95
3, 97280, Note_on_c, 2, 59, 95
3, 97920, Note_off_c, 2, 59, 95
3, 97920, Note_on_c, 2, 60, 95
3, 98560, Note_off_c, 2, 60, 95
3, 98560, Note_on_c, 2, 59, 70
3, 99200, Note_off_c, 2, 59, 70
3, 99200, Note_on_c, 2, 57, 95
3, 99840, Note_off_c, 2, 57, 95
3, 99840, Note_on_c, 3, 55, 95
3, 99960, Pitch_bend_c, 3, 7936
3, 100080, Pitch_bend_c, 3, 7552
3, 100200, Pitch_bend_c, 3, 7168
3, 100320, Pitch_bend_c, 3, 6784
3, 100320, Pitch_bend_c, 3, 8192
3, 100320, Note_off_c, 3, 55, 95
3, 100320, Note_on_c, 2, 53, 95
3, 100560, Note_off_c, 2, 53, 95
3, 100560, Note_on_c, 2, 53, 95
3, 100800, Note_off_c, 2, 53, 95
3, 100800, Note_on_c, 2, 53, 95
3, 101040, Note_off_c, 2, 53, 95
3, 101040, Note_on_c, 2, 53, 95
3, 101280, Note_off_c, 2, 53, 95
3, 101280, Note_on_c, 2, 53, 95
3, 101520, Note_off_c, 2, 53, 95
3, 101520, Note_on_c, 2, 53, 95
3, 101760, Note_off_c, 2, 53, 95
3, 101760, Note_on_c, 2, 53, 95
3, 102000, Note_off_c, 2, 53, 95
3, 102000, Note_on_c, 2, 53, 95
3, 102240, Note_off_c, 2, 53, 95
3, 102240, Note_on_c, 2, 53, 95
3, 102480, Note_off_c, 2, 53, 95
3, 102480, Note_on_c, 2, 53, 95
3, 102720, Note_off_c, 2, 53, 95
3, 102720, Note_on_c, 2, 53, 95
3, 102960, Note_off_c, 2, 53, 95
3, 102960, Note_on_c, 2, 53, 95
3, 103200, Note_off_c, 2, 53, 95
3, 103200, Note_on_c, 2, 53, 95
3, 103440, Note_off_c, 2, 53, 95
3, 103440, Note_on_c, 2, 53, 95
3, 103680, Note_off_c, 2, 53, 95
3, 103680, Note_on_c, 2, 53, 95
3, 103680, Note_on_c, 2, 53, 95
3, 103920, Note_off_c, 2, 53, 95
3, 103920, Note_on_c, 2, 53, 95
3, 103920, Note_off_c, 2, 53, 95
3, 103920, Note_on_c, 2, 53, 95
3, 104160, Note_off_c, 2, 53, 95
3, 104160, Note_on_c, 2, 53, 95
3, 104160, Note_off_c, 2, 53, 95
3, 104160, Note_on_c, 2, 53, 95
3, 104400, Note_off_c, 2, 53, 95
3, 104400, Note_on_c, 2, 53, 95
3, 104400, Note_off_c, 2, 53, 95
3, 104400, Note_on_c, 2, 53, 95
3, 104640, Note_off_c, 2, 53, 95
3, 104640, Note_on_c, 2, 53, 95
3, 104640, Note_off_c, 2, 53, 95
3, 104640, Note_on_c, 2, 53, 95
3, 104880, Note_off_c, 2, 53, 95
3, 104880, Note_on_c, 2, 53, 95
3, 104880, Note_off_c, 2, 53, 95
3, 104880, Note_on_c, 2, 53, 95
3, 105120, Note_off_c, 2, 53, 95
3, 105120, Note_on_c, 2, 53, 95
3, 105120, Note_off_c, 2, 53, 95
3, 105120, Note_on_c, 2, 53, 95
3, 105360, Note_off_c, 2, 53, 95
3, 105360, Note_on_c, 2, 53, 95
3, 105360, Note_off_c, 2, 53, 95
3, 105360, Note_on_c, 2, 53, 95
3, 105600, Note_off_c, 2, 53, 95
3, 105600, Note_on_c, 2, 53, 95
3, 105600, Note_off_c, 2, 53, 95
3, 105600, Note_on_c, 2, 53, 95
3, 105840, Note_off_c, 2, 53, 95
3, 105840, Note_on_c, 2, 53, 95
3, 105840, Note_off_c, 2, 53, 95
3, 105840, Note_on_c, 2, 53, 95
3, 106079, Note_off_c, 2, 53, 95
3, 106079, Note_off_c, 2, 53, 95
3, 106080, Note_on_c, 2, 59, 95
3, 106560, Note_off_c, 2, 59, 95
3, 106560, Note_on_c, 2, 60, 95
3, 107520, Note_off_c, 2, 60, 95
3, 107520, Pitch_bend_c, 3, 8192
3, 107520, Note_on_c, 3, 60, 95
3, 107694, Pitch_bend_c, 3, 8320
3, 107868, Pitch_bend_c, 3, 8448
3, 108042, Pitch_bend_c, 3, 8576
3, 108216, Pitch_bend_c, 3, 8704
3, 108390, Pitch_bend_c, 3, 8832
3, 108564, Pitch_bend_c, 3, 8960
3, 108738, Pitch_bend_c, 3, 9088
3, 108912, Pitch_bend_c, 3, 9216
3, 109086, Pitch_bend_c, 3, 9344
3, 109260, Pitch_bend_c, 3, 9472
3, 109434, Pitch_bend_c, 3, 9600
3, 109440, Pitch_bend_c, 3, 9600
3, 111360, Pitch_bend_c, 3, 9600
3, 111360, Pitch_bend_c, 3, 8192
3, 111360, Note_off_c, 3, 60, 95
3, 111360, Pitch_bend_c, 3, 8192
3, 111360, Note_on_c, 3, 60, 95
3, 111389, Pitch_bend_c, 3, 8320
3, 111418, Pitch_bend_c, 3, 8448
3, 111447, Pitch_bend_c, 3, 8576
3, 111476, Pitch_bend_c, 3, 8704
3, 111505, Pitch_bend_c, 3, 8832
3, 111534, Pitch_bend_c, 3, 8960
3, 111563, Pitch_bend_c, 3, 9088
3, 111592, Pitch_bend_c, 3, 9216
3, 111621, Pitch_bend_c, 3, 9344
3, 111650, Pitch_bend_c, 3, 9472
3, 111679, Pitch_bend_c, 3, 9600
3, 111680, Pitch_bend_c, 3, 9600
3, 112000, Pitch_bend_c, 3, 9600
3, 112000, Pitch_bend_c, 3, 8192
3, 112000, Note_off_c, 3, 60, 95
3, 112000, Pitch_bend_c, 3, 9600
3, 112000, Note_on_c, 3, 60, 95
3, 112213, Pitch_bend_c, 3, 9600
3, 112232, Pitch_bend_c, 3, 9472
3, 112251, Pitch_bend_c, 3, 9344
3, 112270, Pitch_bend_c, 3, 9216
3, 112289, Pitch_bend_c, 3, 9088
3, 112308, Pitch_bend_c, 3, 8960
3, 112327, Pitch_bend_c, 3, 8832
3, 112346, Pitch_bend_c, 3, 8704
3, 112365, Pitch_bend_c, 3, 8576
3, 112384, Pitch_bend_c, 3, 8448
3, 112403, Pitch_bend_c, 3, 8320
3, 112422, Pitch_bend_c, 3, 8192
3, 112426, Pitch_bend_c, 3, 8192
3, 112640, Pitch_bend_c, 3, 8192
3, 112640, Pitch_bend_c, 3, 8192
3, 112640, Note_off_c, 3, 60, 95
3, 112640, Note_on_c, 2, 59, 95
3, 113280, Note_off_c, 2, 59, 95
3, 113280, Note_on_c, 2, 60, 95
3, 113920, Note_off_c, 2, 60, 95
3, 113920, Note_on_c, 2, 59, 70
3, 114560, Note_off_c, 2, 59, 70
3, 114560, Note_on_c, 2, 57, 95
3, 115200, Note_off_c, 2, 57, 95
3, 115200, Note_on_c, 2, 55, 95
3, 115520, Note_off_c, 2, 55, 95
3, 115520, Note_on_c, 2, 57, 95
3, 115840, Note_off_c, 2, 57, 95
3, 115840, Note_on_c, 2, 55, 95
3, 116160, Note_off_c, 2, 55, 95
3, 116160, Note_on_c, 2, 53, 95
3, 116400, Note_off_c, 2, 53, 95
3, 116400, Note_on_c, 2, 53, 95
3, 116640, Note_off_c, 2, 53, 95
3, 116640, Note_on_c, 2, 53, 95
3, 116880, Note_off_c, 2, 53, 95
3, 116880, Note_on_c, 2, 53, 95
3, 117120, Note_off_c, 2, 53, 95
3, 117120, Note_on_c, 2, 53, 95
3, 117360, Note_off_c, 2, 53, 95
3, 117360, Note_on_c, 2, 53, 95
3, 117600, Note_off_c, 2, 53, 95
3, 117600, Note_on_c, 2, 53, 95
3, 117840, Note_off_c, 2, 53, 95
3, 117840, Note_on_c, 2, 53, 95
3, 118080, Note_off_c, 2, 53, 95
3, 118080, Note_on_c, 2, 53, 95
3, 118320, Note_off_c, 2, 53, 95
3, 118320, Note_on_c, 2, 53, 95
3, 118560, Note_off_c, 2, 53, 95
3, 118560, Note_on_c, 2, 53, 95
3, 118800, Note_off_c, 2, 53, 95
3, 118800, Note_on_c, 2, 53, 95
3, 119040, Note_off_c, 2, 53, 95
3, 119040, Note_on_c, 2, 53, 95
3, 119280, Note_off_c, 2, 53, 95
3, 119280, Note_on_c, 2, 53, 95
3, 119520, Note_off_c, 2, 53, 95
3, 119520, Note_on_c, 2, 53, 95
3, 119760, Note_off_c, 2, 53, 95
3, 119760, Note_on_c, 2, 53, 95
3, 120000, Note_off_c, 2, 53, 95
3, 120000, Note_on_c, 2, 53, 95
3, 120240, Note_off_c, 2, 53, 95
3, 120240, Note_on_c, 2, 53, 95
3, 120480, Note_off_c, 2, 53, 95
3, 120480, Note_on_c, 2, 53, 95
3, 120720, Note_off_c, 2, 53, 95
3, 120720, Note_on_c, 2, 53, 95
3, 120960, Note_off_c, 2, 53, 95
3, 120960, Note_on_c, 2, 53, 95
3, 121200, Note_off_c, 2, 53, 95
3, 121200, Note_on_c, 2, 53, 95
3, 121440, Note_off_c, 2, 53, 95
3, 121440, Note_on_c, 2, 53, 95
3, 121440, Note_on_c, 2, 59, 95
3, 121680, Note_off_c, 2, 53, 95
3, 121680, Note_on_c, 2, 53, 95
3, 121920, Note_off_c, 2, 53, 95
3, 121920, Note_on_c, 2, 53, 95
3, 121920, Note_off_c, 2, 59, 95
3, 121920, Note_on_c, 2, 60, 95
3, 122160, Note_off_c, 2, 53, 95
3, 122160, Note_on_c, 2, 53, 95
3, 122400, Note_off_c, 2, 53, 95
3, 122400, Note_on_c, 2, 53, 95
3, 122640, Note_off_c, 2, 53, 95
3, 122640, Note_on_c, 2, 53, 95
3, 122880, Note_off_c, 2, 53, 95
3, 122880, Note_on_c, 2, 53, 95
3, 122880, Note_off_c, 2, 60, 95
3, 122880, Pitch_bend_c, 3, 8192
3, 122880, Note_on_c, 3, 60, 95
3, 123054, Pitch_bend_c, 3, 8320
3, 123120, Note_off_c, 2, 53, 95
3, 123120, Note_on_c, 2, 53, 95
3, 123228, Pitch_bend_c, 3, 8448
3, 123360, Note_off_c, 2, 53, 95
3, 123360, Note_on_c, 2, 53, 95
3, 123402, Pitch_bend_c, 3, 8576
3, 123576, Pitch_bend_c, 3, 8704
3, 123600, Note_off_c, 2, 53, 95
3, 123600, Note_on_c, 2, 53, 95
3, 123750, Pitch_bend_c, 3, 8832
3, 123840, Note_off_c, 2, 53, 95
3, 123840, Note_on_c, 2, 53, 95
3, 123924, Pitch_bend_c, 3, 8960
3, 124080, Note_off_c, 2, 53, 95
3, 124080, Note_on_c, 2, 53, 95
3, 124098, Pitch_bend_c, 3, 9088
3, 124272, Pitch_bend_c, 3, 9216
3, 124320, Note_off_c, 2, 53, 95
3, 124320, Note_on_c, 2, 53, 95
3, 124446, Pitch_bend_c, 3, 9344
3, 124560, Note_off_c, 2, 53, 95
3, 124560, Note_on_c, 2, 53, 95
3, 124620, Pitch_bend_c, 3, 9472
3, 124794, Pitch_bend_c, 3, 9600
3, 124800, Note_off_c, 2, 53, 95
3, 124800, Note_on_c, 2, 53, 95
3, 124800, Pitch_bend_c, 3, 9600
3, 125040, Note_off_c, 2, 53, 95
3, 125040, Note_on_c, 2, 53, 95
3, 125279, Note_off_c, 2, 53, 95
3, 126720, Pitch_bend_c, 3, 9600
3, 126720, Pitch_bend_c, 3, 8192
3, 126720, Note_off_c, 3, 60, 95
3, 126720, Pitch_bend_c, 3, 8192
3, 126720, Note_on_c, 3, 60, 95
3, 126749, Pitch_bend_c, 3, 8320
3, 126778, Pitch_bend_c, 3, 8448
3, 126807, Pitch_bend_c, 3, 8576
3, 126836, Pitch_bend_c, 3, 8704
3, 126865, Pitch_bend_c, 3, 8832
3, 126894, Pitch_bend_c, 3, 8960
3, 126923, Pitch_bend_c, 3, 9088
3, 126952, Pitch_bend_c, 3, 9216
3, 126981, Pitch_bend_c, 3, 9344
3, 127010, Pitch_bend_c, 3, 9472
3, 127039, Pitch_bend_c, 3, 9600
3, 127040, Pitch_bend_c, 3, 9600
3, 127360, Pitch_bend_c, 3, 9600
3, 127360, Pitch_bend_c, 3, 8192
3, 127360, Note_off_c, 3, 60, 95
3, 127360, Pitch_bend_c, 3, 9600
3, 127360, Note_on_c, 3, 60, 95
3, 127573, Pitch_bend_c, 3, 9600
3, 127592, Pitch_bend_c, 3, 9472
3, 127611, Pitch_bend_c, 3, 9344
3, 127630, Pitch_bend_c, 3, 9216
3, 127649, Pitch_bend_c, 3, 9088
3, 127668, Pitch_bend_c, 3, 8960
3, 127687, Pitch_bend_c, 3, 8832
3, 127706, Pitch_bend_c, 3, 8704
3, 127725, Pitch_bend_c, 3, 8576
3, 127744, Pitch_bend_c, 3, 8448
3, 127763, Pitch_bend_c, 3, 8320
3, 127782, Pitch_bend_c, 3, 8192
3, 127786, Pitch_bend_c, 3, 8192
3, 128000, Pitch_bend_c, 3, 8192
3, 128000, Pitch_bend_c, 3, 8192
3, 128000, Note_off_c, 3, 60, 95
3, 128000, Note_on_c, 2, 59, 95
3, 128640, Note_off_c, 2, 59, 95
3, 128640, Note_on_c, 2, 60, 95
3, 129280, Note_off_c, 2, 60, 95
3, 129280, Note_on_c, 2, 59, 70
3, 129920, Note_off_c, 2, 59, 70
3, 129920, Note_on_c, 2, 57, 95
3, 130560, Note_off_c, 2, 57, 95
3, 130560, Note_on_c, 2, 55, 95
3, 130880, Note_off_c, 2, 55, 95
3, 130880, Note_on_c, 2, 57, 95
3, 131200, Note_off_c, 2, 57, 95
3, 131200, Note_on_c, 2, 55, 95
3, 131520, Note_off_c, 2, 55, 95
3, 131520, Note_on_c, 2, 53, 95
3, 131760, Note_off_c, 2, 53, 95
3, 131760, Note_on_c, 2, 53, 95
3, 132000, Note_off_c, 2, 53, 95
3, 132000, Note_on_c, 2, 53, 95
3, 132240, Note_off_c, 2, 53, 95
3, 132240, Note_on_c, 2, 53, 95
3, 132480, Note_off_c, 2, 53, 95
3, 132480, Note_on_c, 2, 53, 95
3, 132720, Note_off_c, 2, 53, 95
3, 132720, Note_on_c, 2, 53, 95
3, 132960, Note_off_c, 2, 53, 95
3, 132960, Note_on_c, 2, 53, 95
3, 133200, Note_off_c, 2, 53, 95
3, 133200, Note_on_c, 2, 53, 95
3, 133440, Note_off_c, 2, 53, 95
3, 133440, Note_on_c, 2, 53, 95
3, 133680, Note_off_c, 2, 53, 95
3, 133680, Note_on_c, 2, 53, 95
3, 133920, Note_off_c, 2, 53, 95
3, 133920, Note_on_c, 2, 53, 95
3, 134160, Note_off_c, 2, 53, 95
3, 134160, Note_on_c, 2, 53, 95
3, 134400, Note_off_c, 2, 53, 95
3, 134400, Note_on_c, 2, 53, 95
3, 134640, Note_off_c, 2, 53, 95
3, 134640, Note_on_c, 2, 53, 95
3, 134880, Note_off_c, 2, 53, 95
3, 134880, Note_on_c, 2, 53, 95
3, 135120, Note_off_c, 2, 53, 95
3, 135120, Note_on_c, 2, 53, 95
3, 135360, Note_off_c, 2, 53, 95
3, 135360, Note_on_c, 2, 53, 95
3, 135600, Note_off_c, 2, 53, 95
3, 135600, Note_on_c, 2, 53, 95
3, 135840, Note_off_c, 2, 53, 95
3, 135840, Note_on_c, 2, 53, 95
3, 136080, Note_off_c, 2, 53, 95
3, 136080, Note_on_c, 2, 53, 95
3, 136320, Note_off_c, 2, 53, 95
3, 136320, Note_on_c, 2, 53, 95
3, 136560, Note_off_c, 2, 53, 95
3, 136560, Note_on_c, 2, 53, 95
3, 136800, Note_off_c, 2, 53, 95
3, 136800, Note_on_c, 2, 53, 95
3, 136800, Note_on_c, 2, 59, 95
3, 137040, Note_off_c, 2, 53, 95
3, 137040, Note_on_c, 2, 53, 95
3, 137280, Note_off_c, 2, 53, 95
3, 137280, Note_on_c, 2, 53, 95
3, 137280, Note_off_c, 2, 59, 95
3, 137280, Note_on_c, 2, 60, 95
3, 137520, Note_off_c, 2, 53, 95
3, 137520, Note_on_c, 2, 53, 95
3, 137760, Note_off_c, 2, 53, 95
3, 137760, Note_on_c, 2, 53, 95
3, 137760, Note_off_c, 2, 60, 95
3, 137760, Note_on_c, 2, 62, 95
3, 138000, Note_off_c, 2, 53, 95
3, 138000, Note_on_c, 2, 53, 95
3, 138240, Note_off_c, 2, 53, 95
3, 138240, Note_on_c, 2, 53, 95
3, 138240, Note_off_c, 2, 62, 95
3, 138480, Note_off_c, 2, 53, 95
3, 138480, Note_on_c, 2, 53, 95
3, 138720, Note_off_c, 2, 53, 95
3, 138720, Note_on_c, 2, 53, 95
3, 138720, Note_on_c, 2, 60, 95
3, 138960, Note_off_c, 2, 53, 95
3, 138960, Note_on_c, 2, 53, 95
3, 139200, Note_off_c, 2, 53, 95
3, 139200, Note_on_c, 2, 53, 95
3, 139200, Note_off_c, 2, 60, 95
3, 139440, Note_off_c, 2, 53, 95
3, 139440, Note_on_c, 2, 53, 95
3, 139680, Note_off_c, 2, 53, 95
3, 139680, Note_on_c, 2, 53, 95
3, 139680, Note_on_c, 2, 62, 95
3, 139920, Note_off_c, 2, 53, 95
3, 139920, Note_on_c, 2, 53, 95
3, 140160, Note_off_c, 2, 53, 95
3, 140160, Note_on_c, 2, 53, 95
3, 140160, Note_off_c, 2, 62, 95
3, 140400, Note_off_c, 2, 53, 95
3, 140400, Note_on_c, 2, 53, 95
3, 140639, Note_off_c, 2, 53, 95
3, 140640, Note_on_c, 2, 64, 95
3, 141120, Note_off_c, 2, 64, 95
3, 141600, Note_on_c, 2, 65, 95
3, 142080, Note_off_c, 2, 65, 95
3, 142560, Note_on_c, 2, 64, 95
3, 143040, Note_off_c, 2, 64, 95
3, 143520, Note_on_c, 2, 65, 95
3, 144000, Note_off_c, 2, 65, 95
3, 144480, Note_on_c, 2, 67, 95
3, 144960, Note_off_c, 2, 67, 95
3, 145440, Note_on_c, 2, 69, 95
3, 145920, Note_off_c, 2, 69, 95
3, 146400, Note_on_c, 2, 67, 95
3, 146880, Note_off_c, 2, 67, 95
3, 146880, Note_on_c, 2, 65, 95
3, 147360, Note_off_c, 2, 65, 95
3, 147360, Note_on_c, 2, 62, 95
3, 147600, Note_off_c, 2, 62, 95
3, 147600, Note_on_c, 2, 62, 95
3, 147840, Note_off_c, 2, 62, 95
3, 147840, Note_on_c, 2, 62, 95
3, 148080, Note_off_c, 2, 62, 95
3, 148080, Note_on_c, 2, 62, 95
3, 148320, Note_off_c, 2, 62, 95
3, 148320, Note_on_c, 2, 62, 95
3, 148560, Note_off_c, 2, 62, 95
3, 148560, Note_on_c, 2, 62, 95
3, 148800, Note_off_c, 2, 62, 95
3, 148800, Note_on_c, 2, 62, 95
3, 149040, Note_off_c, 2, 62, 95
3, 149040, Note_on_c, 2, 62, 95
3, 149280, Note_off_c, 2, 62, 95
3, 149280, Note_on_c, 2, 62, 95
3, 149520, Note_off_c, 2, 62, 95
3, 149520, Note_on_c, 2, 62, 95
3, 149760, Note_off_c, 2, 62, 95
3, 149760, Note_on_c, 2, 62, 95
3, 150000, Note_off_c, 2, 62, 95
3, 150000, Note_on_c, 2, 62, 95
3, 150240, Note_off_c, 2, 62, 95
3, 150240, Note_on_c, 2, 62, 95
3, 150480, Note_off_c, 2, 62, 95
3, 150480, Note_on_c, 2, 62, 95
3, 150720, Note_off_c, 2, 62, 95
3, 150720, Note_on_c, 2, 62, 95
3, 150960, Note_off_c, 2, 62, 95
3, 150960, Note_on_c, 2, 62, 95
3, 151200, Note_off_c, 2, 62, 95
3, 151200, Note_on_c, 2, 62, 95
3, 151440, Note_off_c, 2, 62, 95
3, 151440, Note_on_c, 2, 62, 95
3, 151680, Note_off_c, 2, 62, 95
3, 151680, Note_on_c, 2, 62, 95
3, 151920, Note_off_c, 2, 62, 95
3, 151920, Note_on_c, 2, 62, 95
3, 152160, Note_off_c, 2, 62, 95
3, 152160, Note_on_c, 2, 62, 95
3, 152400, Note_off_c, 2, 62, 95
3, 152400, Note_on_c, 2, 62, 95
3, 152639, Note_off_c, 2, 62, 95
3, 153600, Note_on_c, 2, 67, 95
3, 154240, Note_off_c, 2, 67, 95
3, 154240, Note_on_c, 2, 65, 95
3, 154880, Note_off_c, 2, 65, 95
3, 154880, Note_on_c, 2, 64, 95
3, 155520, Note_off_c, 2, 64, 95
3, 155520, Note_on_c, 2, 62, 95
3, 155760, Note_off_c, 2, 62, 95
3, 155760, Note_on_c, 2, 62, 95
3, 156000, Note_off_c, 2, 62, 95
3, 156000, Note_on_c, 2, 62, 95
3, 156240, Note_off_c, 2, 62, 95
3, 156240, Note_on_c, 2, 62, 95
3, 156480, Note_off_c, 2, 62, 95
3, 156480, Note_on_c, 2, 62, 95
3, 156720, Note_off_c, 2, 62, 95
3, 156720, Note_on_c, 2, 62, 95
3, 156960, Note_off_c, 2, 62, 95
3, 156960, Note_on_c, 2, 62, 95
3, 157200, Note_off_c, 2, 62, 95
3, 157200, Note_on_c, 2, 62, 95
3, 157439, Note_off_c, 2, 62, 95
3, 328800, Note_on_c, 2, 62, 95
3, 329280, Note_off_c, 2, 62, 95
3, 329280, Note_on_c, 2, 64, 95
3, 329600, Note_off_c, 2, 64, 95
3, 329600, Note_on_c, 2, 65, 70
3, 329920, Note_off_c, 2, 65, 70
3, 329920, Note_on_c, 2, 64, 70
3, 330240, Note_off_c, 2, 64, 70
3, 330240, Note_on_c, 2, 62, 95
3, 330720, Note_off_c, 2, 62, 95
3, 330720, Note_on_c, 2, 67, 95
3, 331200, Note_off_c, 2, 67, 95
3, 331680, Note_on_c, 2, 62, 95
3, 332160, Note_off_c, 2, 62, 95
3, 332160, Note_on_c, 2, 67, 95
3, 333120, Note_off_c, 2, 67, 95
3, 333600, Note_on_c, 2, 67, 95
3, 334080, Note_off_c, 2, 67, 95
3, 334560, Note_on_c, 2, 65, 95
3, 335040, Note_off_c, 2, 65, 95
3, 335520, Note_on_c, 2, 62, 95
3, 336000, Note_off_c, 2, 62, 95
3, 336480, Note_on_c, 2, 55, 95
3, 336960, Note_off_c, 2, 55, 95
3, 336960, Note_on_c, 2, 60, 95
3, 337920, Note_off_c, 2, 60, 95
3, 337920, Note_on_c, 2, 58, 95
3, 338400, Note_off_c, 2, 58, 95
3, 338400, Note_on_c, 2, 59, 70
3, 338880, Note_off_c, 2, 59, 70
3, 338880, Note_on_c, 2, 55, 95
3, 339360, Note_off_c, 2, 55, 95
3, 339360, Note_on_c, 2, 50, 95
3, 339840, Note_off_c, 2, 50, 95
3, 339840, Note_on_c, 2, 53, 95
3, 340320, Note_off_c, 2, 53, 95
3, 340320, Note_on_c, 2, 55, 95
3, 340800, Note_off_c, 2, 55, 95
3, 342240, Note_on_c, 2, 55, 95
3, 342720, Note_off_c, 2, 55, 95
3, 342720, Note_on_c, 2, 48, 95
3, 343040, Note_off_c, 2, 48, 95
3, 343040, Note_on_c, 2, 49, 70
3, 343360, Note_off_c, 2, 49, 70
3, 343360, Note_on_c, 2, 50, 70
3, 343680, Note_off_c, 2, 50, 70
3, 343680, Note_on_c, 2, 53, 95
3, 344000, Note_off_c, 2, 53, 95
3, 344000, Note_on_c, 2, 54, 70
3, 344320, Note_off_c, 2, 54, 70
3, 344320, Note_on_c, 2, 55, 70
3, 344640, Note_off_c, 2, 55, 70
3, 344640, Note_on_c, 2, 58, 95
3, 344960, Note_off_c, 2, 58, 95
3, 344960, Note_on_c, 2, 59, 70
3, 345280, Note_off_c, 2, 59, 70
3, 345280, Note_on_c, 2, 60, 70
3, 345600, Note_off_c, 2, 60, 70
3, 345600, Note_on_c, 2, 62, 95
3, 345920, Note_off_c, 2, 62, 95
3, 345920, Note_on_c, 2, 63, 70
3, 346240, Note_off_c, 2, 63, 70
3, 346240, Note_on_c, 2, 64, 70
3, 346560, Note_off_c, 2, 64, 70
3, 346560, Note_on_c, 2, 62, 95
3, 346880, Note_off_c, 2, 62, 95
3, 346880, Note_on_c, 2, 63, 70
3, 347200, Note_off_c, 2, 63, 70
3, 347200, Note_on_c, 2, 64, 70
3, 347520, Note_off_c, 2, 64, 70
3, 347520, Note_on_c, 2, 69, 95
3, 348000, Note_off_c, 2, 69, 95
3, 348000, Note_on_c, 2, 67, 95
3, 348480, Note_off_c, 2, 67, 95
3, 348960, Note_on_c, 2, 64, 95
3, 349440, Note_off_c, 2, 64, 95
3, 349920, Note_on_c, 2, 69, 95
3, 350400, Note_off_c, 2, 69, 95
3, 350880, Note_on_c, 2, 67, 95
3, 351360, Note_off_c, 2, 67, 95
3, 351360, Note_on_c, 2, 69, 95
3, 351680, Note_off_c, 2, 69, 95
3, 351680, Note_on_c, 2, 70, 70
3, 352000, Note_off_c, 2, 70, 70
3, 352000, Note_on_c, 2, 69, 70
3, 352320, Note_off_c, 2, 69, 70
3, 352320, Note_on_c, 2, 67, 95
3, 352800, Note_off_c, 2, 67, 95
3, 352800, Note_on_c, 2, 64, 95
3, 353280, Note_off_c, 2, 64, 95
3, 353280, Note_on_c, 2, 69, 95
3, 353760, Note_off_c, 2, 69, 95
3, 353760, Note_on_c, 2, 68, 95
3, 354240, Note_off_c, 2, 68, 95
3, 354240, Note_on_c, 2, 67, 95
3, 354720, Note_off_c, 2, 67, 95
3, 354720, Note_on_c, 2, 62, 47
3, 355200, Note_off_c, 2, 62, 47
3, 355200, Note_on_c, 2, 65, 95
3, 355680, Note_off_c, 2, 65, 95
3, 355680, Note_on_c, 2, 62, 70
3, 356160, Note_off_c, 2, 62, 70
3, 356160, Note_on_c, 2, 64, 95
3, 356640, Note_off_c, 2, 64, 95
3, 356640, Note_on_c, 2, 63, 95
3, 357120, Note_off_c, 2, 63, 95
3, 357120, Note_on_c, 2, 62, 95
3, 357600, Note_off_c, 2, 62, 95
3, 357600, Note_on_c, 2, 60, 95
3, 358080, Note_off_c, 2, 60, 95
3, 358080, Note_on_c, 2, 59, 95
3, 358560, Note_off_c, 2, 59, 95
3, 358560, Note_on_c, 2, 58, 95
3, 359040, Note_off_c, 2, 58, 95
3, 359040, Note_on_c, 2, 59, 95
3, 359520, Note_off_c, 2, 59, 95
3, 359520, Note_on_c, 3, 55, 95
3, 359640, Pitch_bend_c, 3, 8192
3, 359760, Pitch_bend_c, 3, 8064
3, 359880, Pitch_bend_c, 3, 7936
3, 360000, Pitch_bend_c, 3, 7808
3, 360120, Pitch_bend_c, 3, 7680
3, 360240, Pitch_bend_c, 3, 7552
3, 360360, Pitch_bend_c, 3, 7424
3, 360480, Pitch_bend_c, 3, 7296
3, 360600, Pitch_bend_c, 3, 7168
3, 360720, Pitch_bend_c, 3, 7040
3, 360840, Pitch_bend_c, 3, 6912
3, 360960, Pitch_bend_c, 3, 6784
3, 360960, Pitch_bend_c, 3, 8192
3, 360960, Note_off_c, 3, 55, 95
3, 360960, Note_on_c, 2, 53, 95
3, 361280, Note_off_c, 2, 53, 95
3, 361280, Note_on_c, 2, 54, 70
3, 361600, Note_off_c, 2, 54, 70
3, 361600, Note_on_c, 2, 55, 70
3, 361920, Note_off_c, 2, 55, 70
3, 361920, Note_on_c, 2, 58, 95
3, 362880, Note_off_c, 2, 58, 95
3, 362880, Note_on_c, 2, 55, 95
3, 363360, Note_off_c, 2, 55, 95
3, 363360, Note_on_c, 2, 51, 95
3, 363840, Note_off_c, 2, 51, 95
3, 364320, Note_on_c, 2, 50, 95
3, 364800, Note_off_c, 2, 50, 95
3, 364800, Note_on_c, 2, 49, 95
3, 365280, Note_off_c, 2, 49, 95
3, 365280, Note_on_c, 2, 45, 95
3, 365760, Note_off_c, 2, 45, 95
3, 366240, Note_on_c, 2, 45, 95
3, 366720, Note_off_c, 2, 45, 95
3, 366720, Note_on_c, 2, 47, 95
3, 367200, Note_off_c, 2, 47, 95
3, 367200, Note_on_c, 2, 49, 95
3, 367680, Note_off_c, 2, 49, 95
3, 367680, Note_on_c, 2, 52, 95
3, 368160, Note_off_c, 2, 52, 95
3, 368160, Note_on_c, 2, 50, 95
3, 369120, Note_off_c, 2, 50, 95
3, 369600, Note_on_c, 2, 48, 95
3, 370080, Note_off_c, 2, 48, 95
3, 370080, Note_on_c, 2, 49, 95
3, 370560, Note_off_c, 2, 49, 95
3, 370560, Note_on_c, 2, 50, 95
3, 371040, Note_off_c, 2, 50, 95
3, 371040, Note_on_c, 2, 52, 95
3, 371520, Note_off_c, 2, 52, 95
3, 371520, Note_on_c, 2, 53, 95
3, 372000, Note_off_c, 2, 53, 95
3, 372000, Note_on_c, 2, 57, 95
3, 372480, Note_off_c, 2, 57, 95
3, 372480, Note_on_c, 2, 60, 95
3, 372960, Note_off_c, 2, 60, 95
3, 372960, Note_on_c, 2, 59, 95
3, 373440, Note_off_c, 2, 59, 95
3, 373440, Note_on_c, 2, 58, 95
3, 373920, Note_off_c, 2, 58, 95
3, 373920, Note_on_c, 2, 57, 95
3, 374880, Note_off_c, 2, 57, 95
3, 374880, Note_on_c, 2, 57, 95
3, 375360, Note_off_c, 2, 57, 95
3, 375360, Note_on_c, 2, 60, 95
3, 375840, Note_off_c, 2, 60, 95
3, 375840, Note_on_c, 2, 59, 95
3, 376320, Note_off_c, 2, 59, 95
3, 376320, Note_on_c, 2, 58, 95
3, 376800, Note_off_c, 2, 58, 95
3, 376800, Note_on_c, 2, 57, 95
3, 377280, Note_off_c, 2, 57, 95
3, 377280, Note_on_c, 2, 58, 95
3, 377760, Note_off_c, 2, 58, 95
3, 377760, Note_on_c, 2, 63, 95
3, 378240, Note_off_c, 2, 63, 95
3, 378240, Note_on_c, 2, 66, 95
3, 378720, Note_off_c, 2, 66, 95
3, 378720, Note_on_c, 2, 67, 70
3, 379200, Note_off_c, 2, 67, 70
3, 379200, Note_on_c, 2, 63, 95
3, 379680, Note_off_c, 2, 63, 95
3, 379680, Note_on_c, 2, 67, 95
3, 380160, Note_off_c, 2, 67, 95
3, 380160, Note_on_c, 2, 70, 95
3, 380640, Note_off_c, 2, 70, 95
3, 380640, Note_on_c, 2, 69, 95
3, 381120, Note_off_c, 2, 69, 95
3, 381120, Note_on_c, 2, 68, 95
3, 381600, Note_off_c, 2, 68, 95
3, 381600, Note_on_c, 2, 67, 95
3, 382080, Note_off_c, 2, 67, 95
3, 382080, Note_on_c, 2, 68, 95
3, 382400, Note_off_c, 2, 68, 95
3, 382400, Note_on_c, 2, 69, 70
3, 382720, Note_off_c, 2, 69, 70
3, 382720, Note_on_c, 2, 65, 95
3, 383040, Note_off_c, 2, 65, 95
3, 383040, Note_on_c, 2, 69, 95
3, 383520, Note_off_c, 2, 69, 95
3, 383520, Note_on_c, 2, 70, 95
3, 384000, Note_off_c, 2, 70, 95
3, 384000, Note_on_c, 2, 71, 95
3, 384480, Note_off_c, 2, 71, 95
3, 384480, Note_on_c, 2, 67, 95
3, 384960, Note_off_c, 2, 67, 95
3, 384960, Note_on_c, 2, 69, 95
3, 385920, Note_off_c, 2, 69, 95
3, 385920, Note_on_c, 2, 65, 95
3, 386400, Note_off_c, 2, 65, 95
3, 386400, Note_on_c, 2, 67, 95
3, 386880, Note_off_c, 2, 67, 95
3, 387360, Note_on_c, 2, 62, 95
3, 387840, Note_off_c, 2, 62, 95
3, 388320, Note_on_c, 2, 65, 95
3, 388800, Note_off_c, 2, 65, 95
3, 389280, Note_on_c, 2, 64, 95
3, 389760, Note_off_c, 2, 64, 95
3, 390240, Note_on_c, 2, 60, 95
3, 390720, Note_off_c, 2, 60, 95
3, 390720, Note_on_c, 2, 62, 95
3, 391200, Note_off_c, 2, 62, 95
3, 391200, Note_on_c, 2, 58, 95
3, 391680, Note_off_c, 2, 58, 95
3, 392320, Note_on_c, 2, 61, 95
3, 392960, Note_off_c, 2, 61, 95
3, 392960, Note_on_c, 2, 60, 95
3, 393480, Note_on_c, 3, 58, 95
3, 393600, Note_off_c, 2, 60, 95
3, 393600, Note_off_c, 3, 58, 95
3, 393600, Note_on_c, 3, 59, 95
3, 394560, Note_off_c, 3, 59, 95
3, 394560, Note_on_c, 2, 55, 95
3, 395040, Note_off_c, 2, 55, 95
3, 395040, Note_on_c, 2, 50, 95
3, 395520, Note_off_c, 2, 50, 95
3, 395520, Note_on_c, 2, 53, 95
3, 396000, Note_off_c, 2, 53, 95
3, 396000, Note_on_c, 2, 50, 95
3, 396480, Note_off_c, 2, 50, 95
3, 396480, Note_on_c, 2, 49, 95
3, 396960, Note_off_c, 2, 49, 95
3, 396960, Note_on_c, 2, 48, 95
3, 397440, Note_off_c, 2, 48, 95
3, 397440, Note_on_c, 2, 50, 95
3, 397920, Note_off_c, 2, 50, 95
3, 397920, Note_on_c, 2, 49, 95
3, 398400, Note_off_c, 2, 49, 95
3, 398400, Note_on_c, 2, 48, 95
3, 398880, Note_off_c, 2, 48, 95
3, 398880, Note_on_c, 2, 46, 95
3, 399360, Note_off_c, 2, 46, 95
3, 399360, Note_on_c, 2, 47, 95
3, 399840, Note_off_c, 2, 47, 95
3, 399840, Note_on_c, 2, 43, 95
3, 400320, Note_off_c, 2, 43, 95
3, 400320, Note_on_c, 2, 41, 95
3, 400800, Note_off_c, 2, 41, 95
3, 400800, Note_on_c, 2, 43, 95
3, 401280, Note_off_c, 2, 43, 95
3, 401280, Note_on_c, 2, 46, 95
3, 401760, Note_off_c, 2, 46, 95
3, 401760, Note_on_c, 2, 47, 95
3, 402240, Note_off_c, 2, 47, 95
3, 402720, Note_on_c, 2, 47, 95
3, 403200, Note_off_c, 2, 47, 95
3, 403200, Note_on_c, 2, 48, 95
3, 403680, Note_off_c, 2, 48, 95
3, 403680, Note_on_c, 2, 47, 95
3, 404160, Note_off_c, 2, 47, 95
3, 404160, Note_on_c, 2, 48, 95
3, 404640, Note_off_c, 2, 48, 95
3, 404640, Note_on_c, 2, 49, 95
3, 405600, Note_off_c, 2, 49, 95
3, 405600, Note_on_c, 2, 49, 95
3, 406080, Note_off_c, 2, 49, 95
3, 406080, Note_on_c, 2, 50, 95
3, 407040, Note_off_c, 2, 50, 95
3, 407520, Note_on_c, 2, 48, 95
3, 407760, Note_off_c, 2, 48, 95
3, 407760, Note_on_c, 2, 49, 70
3, 408000, Note_off_c, 2, 49, 70
3, 408000, Note_on_c, 2, 50, 70
3, 409920, Note_off_c, 2, 50, 70
3, 409920, Note_on_c, 2, 55, 95
3, 410040, Note_on_c, 2, 65, 95
3, 410160, Note_on_c, 2, 70, 95
3, 411840, Note_off_c, 2, 70, 95
3, 411840, Note_off_c, 2, 65, 95
3, 411840, Note_off_c, 2, 55, 95
3, 411840, Note_on_c, 3, 62, 95
3, 411960, Pitch_bend_c, 3, 8192
3, 412080, Pitch_bend_c, 3, 8320
3, 412200, Pitch_bend_c, 3, 8448
3, 412320, Pitch_bend_c, 3, 8448
3, 412440, Pitch_bend_c, 3, 8576
3, 412560, Pitch_bend_c, 3, 8704
3, 412680, Pitch_bend_c, 3, 8704
3, 412800, Pitch_bend_c, 3, 8832
3, 412920, Pitch_bend_c, 3, 8960
3, 413040, Pitch_bend_c, 3, 8960
3, 413160, Pitch_bend_c, 3, 9088
3, 413280, Pitch_bend_c, 3, 9216
3, 413400, Pitch_bend_c, 3, 9216
3, 413520, Pitch_bend_c, 3, 9344
3, 413640, Pitch_bend_c, 3, 9472
3, 413640, Note_on_c, 3, 62, 95
3, 413760, Pitch_bend_c, 3, 9600
3, 413760, Pitch_bend_c, 3, 8192
3, 413760, Note_off_c, 3, 62, 95
3, 413760, Note_off_c, 3, 62, 95
3, 413760, Note_on_c, 3, 64, 95
3, 414720, Note_off_c, 3, 64, 95
3, 414720, Note_on_c, 2, 64, 95
3, 415200, Note_off_c, 2, 64, 95
3, 415200, Note_on_c, 2, 60, 95
3, 416640, Note_off_c, 2, 60, 95
3, 416640, Note_on_c, 2, 57, 95
3, 418080, Note_off_c, 2, 57, 95
3, 418080, Note_on_c, 2, 53, 95
3, 419520, Note_off_c, 2, 53, 95
3, 419520, Note_on_c, 2, 50, 95
3, 420960, Note_off_c, 2, 50, 95
3, 420960, Note_on_c, 2, 48, 95
3, 422400, Note_off_c, 2, 48, 95
3, 422400, Note_on_c, 2, 46, 95
3, 423840, Note_off_c, 2, 46, 95
3, 423840, Note_on_c, 2, 45, 95
3, 425280, Note_off_c, 2, 45, 95
3, 425280, Note_on_c, 2, 40, 95
3, 426720, Note_off_c, 2, 40, 95
3, 426720, Note_on_c, 2, 43, 95
3, 428160, Note_off_c, 2, 43, 95
3, 428160, Note_on_c, 2, 46, 95
3, 428640, Note_off_c, 2, 46, 95
3, 428640, Note_on_c, 2, 48, 70
3, 430080, Note_off_c, 2, 48, 70
3, 430080, Note_on_c, 3, 51, 95
3, 431400, Note_on_c, 3, 53, 95
3, 431520, Note_off_c, 3, 51, 95
3, 431520, Note_off_c, 3, 53, 95
3, 431520, Note_on_c, 3, 55, 95
3, 432960, Note_off_c, 3, 55, 95
3, 432960, Note_on_c, 2, 58, 95
3, 434280, Note_on_c, 3, 58, 95
3, 434400, Note_off_c, 2, 58, 95
3, 434400, Note_off_c, 3, 58, 95
3, 434400, Note_on_c, 3, 61, 95
3, 435840, Note_off_c, 3, 61, 95
3, 435840, Note_on_c, 2, 64, 95
3, 437280, Note_off_c, 2, 64, 95
3, 437280, Note_on_c, 2, 67, 95
3, 438600, Note_on_c, 3, 64, 95
3, 438720, Note_off_c, 2, 67, 95
3, 438720, Note_off_c, 3, 64, 95
3, 438720, Note_on_c, 3, 65, 95
3, 440160, Note_off_c, 3, 65, 95
3, 440160, Note_on_c, 2, 62, 95
3, 441600, Note_off_c, 2, 62, 95
3, 441600, Note_on_c, 2, 60, 95
3, 443040, Note_off_c, 2, 60, 95
3, 443040, Note_on_c, 2, 58, 95
3, 444480, Note_off_c, 2, 58, 95
3, 444480, Note_on_c, 2, 55, 95
3, 445920, Note_off_c, 2, 55, 95
3, 445920, Note_on_c, 2, 51, 95
3, 447360, Note_off_c, 2, 51, 95
3, 447360, Note_on_c, 2, 50, 95
3, 448800, Note_off_c, 2, 50, 95
3, 448800, Note_on_c, 2, 53, 95
3, 450240, Note_off_c, 2, 53, 95
3, 450240, Note_on_c, 2, 57, 95
3, 451680, Note_off_c, 2, 57, 95
3, 451680, Note_on_c, 2, 60, 95
3, 452160, Note_off_c, 2, 60, 95
3, 452160, Note_on_c, 2, 57, 95
3, 452640, Note_off_c, 2, 57, 95
3, 452640, Note_on_c, 2, 58, 95
3, 453120, Note_off_c, 2, 58, 95
3, 453120, Note_on_c, 2, 59, 95
3, 453600, Note_off_c, 2, 59, 95
3, 453600, Note_on_c, 2, 55, 95
3, 454080, Note_off_c, 2, 55, 95
3, 454080, Note_on_c, 2, 53, 95
3, 454560, Note_off_c, 2, 53, 95
3, 454560, Note_on_c, 2, 54, 95
3, 455040, Note_off_c, 2, 54, 95
3, 455040, Note_on_c, 2, 55, 95
3, 455520, Note_off_c, 2, 55, 95
3, 455520, Note_on_c, 2, 58, 95
3, 456000, Note_off_c, 2, 58, 95
3, 456000, Note_on_c, 2, 60, 95
3, 456480, Note_off_c, 2, 60, 95
3, 456480, Note_on_c, 3, 57, 95
3, 456600, Pitch_bend_c, 3, 8448
3, 456720, Pitch_bend_c, 3, 8832
3, 456840, Pitch_bend_c, 3, 9216
3, 456960, Pitch_bend_c, 3, 9600
3, 456960, Pitch_bend_c, 3, 8192
3, 456960, Note_off_c, 3, 57, 95
3, 456960, Note_on_c, 2, 59, 95
3, 457440, Note_off_c, 2, 59, 95
3, 457440, Note_on_c, 2, 62, 95
3, 457920, Note_off_c, 2, 62, 95
3, 457920, Note_on_c, 2, 64, 95
3, 458400, Note_off_c, 2, 64, 95
3, 458400, Note_on_c, 2, 62, 95
3, 458880, Note_off_c, 2, 62, 95
3, 458880, Note_on_c, 2, 64, 95
3, 459200, Note_off_c, 2, 64, 95
3, 459200, Note_on_c, 2, 65, 70
3, 459520, Note_off_c, 2, 65, 70
3, 459520, Note_on_c, 2, 64, 70
3, 459840, Note_off_c, 2, 64, 70
3, 459840, Note_on_c, 2, 62, 95
3, 460320, Note_off_c, 2, 62, 95
3, 460320, Note_on_c, 2, 55, 95
3, 460800, Note_off_c, 2, 55, 95
3, 460800, Note_on_c, 2, 60, 95
3, 461280, Note_off_c, 2, 60, 95
3, 461280, Note_on_c, 2, 58, 95
3, 461760, Note_off_c, 2, 58, 95
3, 461760, Note_on_c, 2, 59, 70
3, 462240, Note_off_c, 2, 59, 70
3, 462240, Note_on_c, 2, 55, 95
3, 462720, Note_off_c, 2, 55, 95
3, 462720, Note_on_c, 2, 54, 95
3, 463200, Note_off_c, 2, 54, 95
3, 463200, Note_on_c, 2, 53, 95
3, 463680, Note_off_c, 2, 53, 95
3, 463680, Note_on_c, 2, 50, 95
3, 464160, Note_off_c, 2, 50, 95
3, 464160, Note_on_c, 2, 49, 95
3, 464640, Note_off_c, 2, 49, 95
3, 464640, Note_on_c, 2, 48, 95
3, 465120, Note_off_c, 2, 48, 95
3, 465120, Note_on_c, 2, 46, 95
3, 465600, Note_off_c, 2, 46, 95
3, 465600, Note_on_c, 2, 47, 70
3, 466080, Note_off_c, 2, 47, 70
3, 466080, Note_on_c, 2, 43, 95
3, 466560, Note_off_c, 2, 43, 95
3, 466560, Note_on_c, 2, 47, 95
3, 467040, Note_off_c, 2, 47, 95
3, 467040, Note_on_c, 2, 48, 95
3, 468000, Note_off_c, 2, 48, 95
3, 468000, Note_on_c, 2, 48, 95
3, 468480, Note_off_c, 2, 48, 95
3, 468480, Note_on_c, 2, 50, 95
3, 468960, Note_off_c, 2, 50, 95
3, 468960, Note_on_c, 2, 55, 95
3, 469440, Note_off_c, 2, 55, 95
3, 469920, Note_on_c, 2, 50, 95
3, 470400, Note_off_c, 2, 50, 95
3, 470400, Note_on_c, 2, 55, 95
3, 470880, Note_off_c, 2, 55, 95
3, 470880, Note_on_c, 2, 50, 95
3, 471360, Note_off_c, 2, 50, 95
3, 471840, Note_on_c, 2, 53, 95
3, 472320, Note_off_c, 2, 53, 95
3, 472800, Note_on_c, 2, 55, 95
3, 473280, Note_off_c, 2, 55, 95
3, 473280, Note_on_c, 2, 48, 95
3, 473760, Note_off_c, 2, 48, 95
3, 473760, Note_on_c, 2, 49, 95
3, 474240, Note_off_c, 2, 49, 95
3, 474240, Note_on_c, 2, 50, 95
3, 474720, Note_off_c, 2, 50, 95
3, 474720, Note_on_c, 2, 53, 95
3, 475200, Note_off_c, 2, 53, 95
3, 475200, Note_on_c, 2, 55, 95
3, 475680, Note_off_c, 2, 55, 95
3, 475680, Note_on_c, 2, 53, 95
3, 475920, Note_off_c, 2, 53, 95
3, 475920, Note_on_c, 2, 54, 70
3, 476640, Note_off_c, 2, 54, 70
3, 476640, Note_on_c, 2, 58, 95
3, 477120, Note_off_c, 2, 58, 95
3, 477120, Note_on_c, 2, 60, 95
3, 477600, Note_off_c, 2, 60, 95
3, 477600, Note_on_c, 2, 58, 95
3, 478080, Note_off_c, 2, 58, 95
3, 478080, Note_on_c, 2, 59, 95
3, 478560, Note_off_c, 2, 59, 95
3, 478560, Note_on_c, 2, 62, 95
3, 479040, Note_off_c, 2, 62, 95
3, 480480, Note_on_c, 2, 55, 95
3, 480960, Note_off_c, 2, 55, 95
3, 480960, Note_on_c, 2, 48, 95
3, 481280, Note_off_c, 2, 48, 95
3, 481280, Note_on_c, 2, 49, 70
3, 481600, Note_off_c, 2, 49, 70
3, 481600, Note_on_c, 2, 50, 70
3, 481920, Note_off_c, 2, 50, 70
3, 481920, Note_on_c, 2, 53, 95
3, 482160, Note_off_c, 2, 53, 95
3, 482160, Note_on_c, 2, 54, 95
3, 482400, Note_off_c, 2, 54, 95
3, 482400, Note_on_c, 2, 55, 95
3, 482640, Note_off_c, 2, 55, 95
3, 482640, Note_on_c, 2, 54, 95
3, 482880, Note_off_c, 2, 54, 95
3, 482880, Note_on_c, 2, 53, 95
3, 483120, Note_off_c, 2, 53, 95
3, 483120, Note_on_c, 2, 54, 95
3, 483360, Note_off_c, 2, 54, 95
3, 483360, Note_on_c, 2, 55, 95
3, 483600, Note_off_c, 2, 55, 95
3, 483600, Note_on_c, 2, 56, 95
3, 483840, Note_off_c, 2, 56, 95
3, 483840, Note_on_c, 2, 58, 95
3, 484080, Note_off_c, 2, 58, 95
3, 484080, Note_on_c, 2, 59, 95
3, 484320, Note_off_c, 2, 59, 95
3, 484320, Note_on_c, 2, 60, 95
3, 484560, Note_off_c, 2, 60, 95
3, 484560, Note_on_c, 2, 61, 95
3, 484800, Note_off_c, 2, 61, 95
3, 484800, Note_on_c, 2, 58, 95
3, 485040, Note_off_c, 2, 58, 95
3, 485040, Note_on_c, 2, 59, 95
3, 485280, Note_off_c, 2, 59, 95
3, 485280, Note_on_c, 2, 60, 95
3, 485520, Note_off_c, 2, 60, 95
3, 485520, Note_on_c, 2, 61, 95
3, 485760, Note_off_c, 2, 61, 95
3, 485760, Note_on_c, 2, 50, 95
3, 486000, Note_off_c, 2, 50, 95
3, 486000, Note_on_c, 2, 55, 95
3, 486240, Note_off_c, 2, 55, 95
3, 486240, Note_on_c, 2, 54, 95
3, 486480, Note_off_c, 2, 54, 95
3, 486480, Note_on_c, 2, 53, 95
3, 486720, Note_off_c, 2, 53, 95
3, 486720, Pitch_bend_c, 3, 8192
3, 486720, Note_on_c, 3, 50, 95
3, 486793, Pitch_bend_c, 3, 8064
3, 486866, Pitch_bend_c, 3, 7936
3, 486939, Pitch_bend_c, 3, 7808
3, 487012, Pitch_bend_c, 3, 7680
3, 487085, Pitch_bend_c, 3, 7552
3, 487158, Pitch_bend_c, 3, 7424
3, 487231, Pitch_bend_c, 3, 7296
3, 487304, Pitch_bend_c, 3, 7168
3, 487377, Pitch_bend_c, 3, 7040
3, 487450, Pitch_bend_c, 3, 6912
3, 487523, Pitch_bend_c, 3, 6784
3, 487596, Pitch_bend_c, 3, 6656
3, 487669, Pitch_bend_c, 3, 6528
3, 487742, Pitch_bend_c, 3, 6400
3, 487815, Pitch_bend_c, 3, 6272
3, 487888, Pitch_bend_c, 3, 6144
3, 487961, Pitch_bend_c, 3, 6016
3, 488034, Pitch_bend_c, 3, 5888
3, 488107, Pitch_bend_c, 3, 5760
3, 488180, Pitch_bend_c, 3, 5632
3, 488253, Pitch_bend_c, 3, 5504
3, 488326, Pitch_bend_c, 3, 5376
3, 488399, Pitch_bend_c, 3, 5248
3, 488472, Pitch_bend_c, 3, 5120
3, 488545, Pitch_bend_c, 3, 4992
3, 488618, Pitch_bend_c, 3, 4864
3, 488691, Pitch_bend_c, 3, 4736
3, 488764, Pitch_bend_c, 3, 4608
3, 488837, Pitch_bend_c, 3, 4480
3, 488910, Pitch_bend_c, 3, 4352
3, 488983, Pitch_bend_c, 3, 4224
3, 489056, Pitch_bend_c, 3, 4096
3, 489129, Pitch_bend_c, 3, 3968
3, 489202, Pitch_bend_c, 3, 3840
3, 489275, Pitch_bend_c, 3, 3712
3, 489348, Pitch_bend_c, 3, 3584
3, 489421, Pitch_bend_c, 3, 3456
3, 489494, Pitch_bend_c, 3, 3328
3, 489567, Pitch_bend_c, 3, 3200
3, 489640, Pitch_bend_c, 3, 3072
3, 489713, Pitch_bend_c, 3, 2944
3, 489786, Pitch_bend_c, 3, 2816
3, 489859, Pitch_bend_c, 3, 2688
3, 489932, Pitch_bend_c, 3, 2560
3, 490005, Pitch_bend_c, 3, 2432
3, 490078, Pitch_bend_c, 3, 2304
3, 490151, Pitch_bend_c, 3, 2176
3, 490224, Pitch_bend_c, 3, 2048
3, 490297, Pitch_bend_c, 3, 1920
3, 490320, Pitch_bend_c, 3, 1920
3, 491520, Pitch_bend_c, 3, 1920
3, 491520, Pitch_bend_c, 3, 8192
3, 491520, Note_off_c, 3, 50, 95
3, 491520, Note_on_c, 2, 50, 95
3, 492000, Note_off_c, 2, 50, 95
3, 492000, Note_on_c, 2, 53, 95
3, 492480, Note_off_c, 2, 53, 95
3, 492960, Note_on_c, 2, 50, 95
3, 493320, Note_on_c, 3, 53, 95
3, 493440, Note_off_c, 2, 50, 95
3, 493440, Note_off_c, 3, 53, 95
3, 493440, Note_on_c, 3, 55, 95
3, 494400, Note_off_c, 3, 55, 95
3, 494400, Note_on_c, 2, 58, 95
3, 494880, Note_off_c, 2, 58, 95
3, 494880, Note_on_c, 2, 60, 95
3, 495240, Note_on_c, 3, 58, 95
3, 495360, Note_off_c, 2, 60, 95
3, 495360, Note_off_c, 3, 58, 95
3, 495360, Note_on_c, 3, 59, 95
3, 495840, Note_off_c, 3, 59, 95
3, 495840, Note_on_c, 2, 62, 95
3, 496320, Note_off_c, 2, 62, 95
3, 496320, Note_on_c, 2, 64, 70
3, 496800, Note_off_c, 2, 64, 70
3, 496800, Note_on_c, 2, 62, 70
3, 497280, Note_off_c, 2, 62, 70
3, 497280, Note_on_c, 2, 64, 95
3, 497600, Note_off_c, 2, 64, 95
3, 497600, Note_on_c, 2, 65, 70
3, 497920, Note_off_c, 2, 65, 70
3, 497920, Note_on_c, 2, 64, 70
3, 498240, Note_off_c, 2, 64, 70
3, 498240, Note_on_c, 2, 62, 95
3, 498720, Note_off_c, 2, 62, 95
3, 498720, Note_on_c, 2, 60, 95
3, 499200, Note_off_c, 2, 60, 95
3, 499200, Note_on_c, 2, 59, 95
3, 499680, Note_off_c, 2, 59, 95
3, 499680, Note_on_c, 2, 58, 70
3, 500160, Note_off_c, 2, 58, 70
3, 500160, Note_on_c, 2, 60, 95
3, 500640, Note_off_c, 2, 60, 95
3, 500640, Note_on_c, 2, 58, 70
3, 501120, Note_off_c, 2, 58, 70
3, 501120, Note_on_c, 2, 60, 95
3, 501600, Note_off_c, 2, 60, 95
3, 501600, Note_on_c, 2, 58, 70
3, 502080, Note_off_c, 2, 58, 70
3, 502080, Note_on_c, 2, 60, 95
3, 502560, Note_off_c, 2, 60, 95
3, 502560, Note_on_c, 2, 58, 70
3, 503040, Note_off_c, 2, 58, 70
3, 503040, Note_on_c, 2, 60, 95
3, 503520, Note_off_c, 2, 60, 95
3, 503520, Note_on_c, 2, 58, 70
3, 504000, Note_off_c, 2, 58, 70
3, 504000, Note_on_c, 2, 61, 95
3, 504480, Note_off_c, 2, 61, 95
3, 504480, Note_on_c, 2, 58, 70
3, 504960, Note_off_c, 2, 58, 70
3, 504960, Note_on_c, 2, 61, 95
3, 505440, Note_off_c, 2, 61, 95
3, 505440, Note_on_c, 2, 58, 70
3, 505920, Note_off_c, 2, 58, 70
3, 505920, Note_on_c, 2, 61, 95
3, 506400, Note_off_c, 2, 61, 95
3, 506400, Note_on_c, 2, 60, 95
3, 506880, Note_off_c, 2, 60, 95
3, 506880, Note_on_c, 2, 62, 95
3, 507360, Note_off_c, 2, 62, 95
3, 507360, Note_on_c, 2, 60, 70
3, 507840, Note_off_c, 2, 60, 70
3, 507840, Note_on_c, 2, 62, 95
3, 508320, Note_off_c, 2, 62, 95
3, 508320, Note_on_c, 2, 60, 70
3, 508800, Note_off_c, 2, 60, 70
3, 508800, Note_on_c, 2, 62, 95
3, 509280, Note_off_c, 2, 62, 95
3, 509280, Note_on_c, 2, 64, 95
3, 509760, Note_off_c, 2, 64, 95
3, 509760, Note_on_c, 2, 65, 95
3, 510240, Note_off_c, 2, 65, 95
3, 510240, Note_on_c, 2, 64, 70
3, 510720, Note_off_c, 2, 64, 70
3, 510720, Note_on_c, 2, 65, 95
3, 511200, Note_off_c, 2, 65, 95
3, 511200, Note_on_c, 2, 64, 70
3, 511680, Note_off_c, 2, 64, 70
3, 511680, Note_on_c, 2, 65, 95
3, 512160, Note_off_c, 2, 65, 95
3, 512160, Note_on_c, 2, 64, 70
3, 512640, Note_off_c, 2, 64, 70
3, 512640, Note_on_c, 2, 67, 95
3, 513120, Note_off_c, 2, 67, 95
3, 513120, Note_on_c, 2, 65, 70
3, 513600, Note_off_c, 2, 65, 70
3, 513600, Note_on_c, 2, 67, 95
3, 514080, Note_off_c, 2, 67, 95
3, 514080, Note_on_c, 2, 65, 70
3, 514560, Note_off_c, 2, 65, 70
3, 514560, Note_on_c, 2, 67, 95
3, 515040, Note_off_c, 2, 67, 95
3, 515040, Note_on_c, 2, 70, 95
3, 515520, Note_off_c, 2, 70, 95
3, 515520, Note_on_c, 2, 67, 95
3, 516000, Note_off_c, 2, 67, 95
3, 516000, Note_on_c, 2, 70, 95
3, 516480, Note_off_c, 2, 70, 95
3, 516480, Note_on_c, 2, 72, 95
3, 516960, Note_off_c, 2, 72, 95
3, 516960, Note_on_c, 2, 73, 70
3, 517440, Note_off_c, 2, 73, 70
3, 517440, Note_on_c, 2, 70, 95
3, 517920, Note_off_c, 2, 70, 95
3, 517920, Note_on_c, 2, 67, 95
3, 518400, Note_off_c, 2, 67, 95
3, 518400, Note_on_c, 2, 72, 95
3, 518880, Note_off_c, 2, 72, 95
3, 518880, Note_on_c, 2, 71, 95
3, 519360, Note_off_c, 2, 71, 95
3, 519360, Note_on_c, 2, 70, 95
3, 519840, Note_off_c, 2, 70, 95
3, 519840, Note_on_c, 2, 69, 70
3, 520320, Note_off_c, 2, 69, 70
3, 520320, Note_on_c, 2, 69, 95
3, 520800, Note_off_c, 2, 69, 95
3, 520800, Note_on_c, 2, 70, 95
3, 521280, Note_off_c, 2, 70, 95
3, 521280, Note_on_c, 2, 69, 95
3, 521760, Note_off_c, 2, 69, 95
3, 521760, Note_on_c, 2, 70, 95
3, 522120, Note_on_c, 3, 70, 95
3, 522240, Note_off_c, 2, 70, 95
3, 522240, Note_off_c, 3, 70, 95
3, 522240, Note_on_c, 3, 71, 95
3, 523680, Note_off_c, 3, 71, 95
3, 523680, Note_on_c, 2, 69, 95
3, 524640, Note_off_c, 2, 69, 95
3, 524640, Note_on_c, 2, 65, 95
3, 524880, Note_off_c, 2, 65, 95
3, 524880, Note_on_c, 2, 62, 70
3, 525120, Note_off_c, 2, 62, 70
3, 525120, Note_on_c, 2, 60, 95
3, 525600, Note_off_c, 2, 60, 95
3, 525600, Note_on_c, 2, 58, 95
3, 526080, Note_off_c, 2, 58, 95
3, 526080, Note_on_c, 2, 59, 95
3, 526560, Note_off_c, 2, 59, 95
3, 526560, Note_on_c, 2, 55, 95
3, 527520, Note_off_c, 2, 55, 95
3, 527520, Note_on_c, 2, 57, 95
3, 528480, Note_off_c, 2, 57, 95
3, 528480, Note_on_c, 2, 50, 95
3, 528960, Note_off_c, 2, 50, 95
3, 528960, Note_on_c, 2, 48, 95
3, 529920, Note_off_c, 2, 48, 95
3, 529920, Note_on_c, 2, 47, 95
3, 530880, Note_off_c, 2, 47, 95
3, 530880, Note_on_c, 2, 43, 95
3, 531360, Note_off_c, 2, 43, 95
3, 531360, Note_on_c, 2, 45, 95
3, 532320, Note_off_c, 2, 45, 95
3, 532320, Note_on_c, 2, 41, 95
3, 533280, Note_off_c, 2, 41, 95
3, 533280, Note_on_c, 2, 43, 95
3, 534240, Note_off_c, 2, 43, 95
3, 534240, Note_on_c, 2, 40, 95
3, 535200, Note_off_c, 2, 40, 95
3, 535200, Note_on_c, 2, 41, 95
3, 535440, Note_off_c, 2, 41, 95
3, 535440, Note_on_c, 2, 41, 95
3, 535680, Note_off_c, 2, 41, 95
3, 535680, Note_on_c, 2, 41, 95
3, 535920, Note_off_c, 2, 41, 95
3, 535920, Note_on_c, 2, 41, 95
3, 536160, Note_off_c, 2, 41, 95
3, 536160, Note_on_c, 2, 41, 95
3, 536400, Note_off_c, 2, 41, 95
3, 536400, Note_on_c, 2, 41, 95
3, 536640, Note_off_c, 2, 41, 95
3, 536640, Note_on_c, 2, 41, 95
3, 536880, Note_off_c, 2, 41, 95
3, 536880, Note_on_c, 2, 41, 95
3, 537120, Note_off_c, 2, 41, 95
3, 537120, Note_on_c, 2, 41, 95
3, 537360, Note_off_c, 2, 41, 95
3, 537360, Note_on_c, 2, 41, 95
3, 537599, Note_off_c, 2, 41, 95
3, 636000, Note_on_c, 2, 59, 95
3, 636480, Note_off_c, 2, 59, 95
3, 636480, Note_on_c, 2, 60, 95
3, 637440, Note_off_c, 2, 60, 95
3, 637440, Pitch_bend_c, 3, 8192
3, 637440, Note_on_c, 3, 60, 95
3, 637614, Pitch_bend_c, 3, 8320
3, 637788, Pitch_bend_c, 3, 8448
3, 637962, Pitch_bend_c, 3, 8576
3, 638136, Pitch_bend_c, 3, 8704
3, 638310, Pitch_bend_c, 3, 8832
3, 638484, Pitch_bend_c, 3, 8960
3, 638658, Pitch_bend_c, 3, 9088
3, 638832, Pitch_bend_c, 3, 9216
3, 639006, Pitch_bend_c, 3, 9344
3, 639180, Pitch_bend_c, 3, 9472
3, 639354, Pitch_bend_c, 3, 9600
3, 639360, Pitch_bend_c, 3, 9600
3, 641280, Pitch_bend_c, 3, 9600
3, 641280, Pitch_bend_c, 3, 8192
3, 641280, Note_off_c, 3, 60, 95
3, 641280, Pitch_bend_c, 3, 8192
3, 641280, Note_on_c, 3, 60, 95
3, 641309, Pitch_bend_c, 3, 8320
3, 641338, Pitch_bend_c, 3, 8448
3, 641367, Pitch_bend_c, 3, 8576
3, 641396, Pitch_bend_c, 3, 8704
3, 641425, Pitch_bend_c, 3, 8832
3, 641454, Pitch_bend_c, 3, 8960
3, 641483, Pitch_bend_c, 3, 9088
3, 641512, Pitch_bend_c, 3, 9216
3, 641541, Pitch_bend_c, 3, 9344
3, 641570, Pitch_bend_c, 3, 9472
3, 641599, Pitch_bend_c, 3, 9600
3, 641600, Pitch_bend_c, 3, 9600
3, 641920, Pitch_bend_c, 3, 9600
3, 641949, Pitch_bend_c, 3, 9472
3, 641978, Pitch_bend_c, 3, 9344
3, 642007, Pitch_bend_c, 3, 9216
3, 642036, Pitch_bend_c, 3, 9088
3, 642065, Pitch_bend_c, 3, 8960
3, 642094, Pitch_bend_c, 3, 8832
3, 642123, Pitch_bend_c, 3, 8704
3, 642152, Pitch_bend_c, 3, 8576
3, 642181, Pitch_bend_c, 3, 8448
3, 642210, Pitch_bend_c, 3, 8320
3, 642239, Pitch_bend_c, 3, 8192
3, 642240, Pitch_bend_c, 3, 8192
3, 642560, Pitch_bend_c, 3, 8192
3, 642560, Pitch_bend_c, 3, 8192
3, 642560, Note_off_c, 3, 60, 95
3, 642560, Note_on_c, 2, 59, 95
3, 643200, Note_off_c, 2, 59, 95
3, 643200, Note_on_c, 2, 60, 95
3, 643840, Note_off_c, 2, 60, 95
3, 643840, Note_on_c, 2, 59, 70
3, 644480, Note_off_c, 2, 59, 70
3, 644480, Note_on_c, 2, 57, 95
3, 645120, Note_off_c, 2, 57, 95
3, 645120, Note_on_c, 3, 55, 95
3, 645240, Pitch_bend_c, 3, 7936
3, 645360, Pitch_bend_c, 3, 7552
3, 645480, Pitch_bend_c, 3, 7168
3, 645600, Pitch_bend_c, 3, 6784
3, 645600, Pitch_bend_c, 3, 8192
3, 645600, Note_off_c, 3, 55, 95
3, 645600, Note_on_c, 2, 53, 95
3, 647520, Note_off_c, 2, 53, 95
3, 647520, Pitch_bend_c, 3, 8192
3, 647520, Note_on_c, 3, 53, 95
3, 647592, Pitch_bend_c, 3, 8320
3, 647664, Pitch_bend_c, 3, 8448
3, 647736, Pitch_bend_c, 3, 8576
3, 647808, Pitch_bend_c, 3, 8704
3, 647880, Pitch_bend_c, 3, 8832
3, 647880, Pitch_bend_c, 3, 8832
3, 648000, Pitch_bend_c, 3, 8832
3, 648000, Pitch_bend_c, 3, 8192
3, 648000, Note_off_c, 3, 53, 95
3, 648000, Pitch_bend_c, 3, 8192
3, 648000, Note_on_c, 3, 53, 95
3, 648072, Pitch_bend_c, 3, 8064
3, 648144, Pitch_bend_c, 3, 7936
3, 648216, Pitch_bend_c, 3, 7808
3, 648288, Pitch_bend_c, 3, 7680
3, 648360, Pitch_bend_c, 3, 7552
3, 648360, Pitch_bend_c, 3, 7552
3, 648480, Pitch_bend_c, 3, 7552
3, 648480, Pitch_bend_c, 3, 8192
3, 648480, Note_off_c, 3, 53, 95
3, 648480, Pitch_bend_c, 3, 8192
3, 648480, Note_on_c, 3, 53, 95
3, 648552, Pitch_bend_c, 3, 8320
3, 648624, Pitch_bend_c, 3, 8448
3, 648696, Pitch_bend_c, 3, 8576
3, 648768, Pitch_bend_c, 3, 8704
3, 648840, Pitch_bend_c, 3, 8832
3, 648840, Pitch_bend_c, 3, 8832
3, 648960, Pitch_bend_c, 3, 8832
3, 648960, Pitch_bend_c, 3, 8192
3, 648960, Note_off_c, 3, 53, 95
3, 648960, Pitch_bend_c, 3, 8192
3, 648960, Note_on_c, 3, 53, 95
3, 649032, Pitch_bend_c, 3, 8064
3, 649104, Pitch_bend_c, 3, 7936
3, 649176, Pitch_bend_c, 3, 7808
3, 649248, Pitch_bend_c, 3, 7680
3, 649320, Pitch_bend_c, 3, 7552
3, 649320, Pitch_bend_c, 3, 7552
3, 649440, Pitch_bend_c, 3, 7552
3, 649440, Pitch_bend_c, 3, 8192
3, 649440, Note_off_c, 3, 53, 95
3, 649440, Pitch_bend_c, 3, 8192
3, 649440, Note_on_c, 3, 53, 95
3, 649512, Pitch_bend_c, 3, 8320
3, 649584, Pitch_bend_c, 3, 8448
3, 649656, Pitch_bend_c, 3, 8576
3, 649728, Pitch_bend_c, 3, 8704
3, 649800, Pitch_bend_c, 3, 8832
3, 649800, Pitch_bend_c, 3, 8832
3, 649920, Pitch_bend_c, 3, 8832
3, 649920, Pitch_bend_c, 3, 8192
3, 649920, Note_off_c, 3, 53, 95
3, 649920, Pitch_bend_c, 3, 8192
3, 649920, Note_on_c, 3, 53, 95
3, 649992, Pitch_bend_c, 3, 8064
3, 650064, Pitch_bend_c, 3, 7936
3, 650136, Pitch_bend_c, 3, 7808
3, 650208, Pitch_bend_c, 3, 7680
3, 650280, Pitch_bend_c, 3, 7552
3, 650280, Pitch_bend_c, 3, 7552
3, 650400, Pitch_bend_c, 3, 7552
3, 650400, Pitch_bend_c, 3, 8192
3, 650400, Note_off_c, 3, 53, 95
3, 650400, Pitch_bend_c, 3, 8192
3, 650400, Note_on_c, 3, 53, 95
3, 650472, Pitch_bend_c, 3, 8320
3, 650544, Pitch_bend_c, 3, 8448
3, 650616, Pitch_bend_c, 3, 8576
3, 650688, Pitch_bend_c, 3, 8704
3, 650760, Pitch_bend_c, 3, 8832
3, 650760, Pitch_bend_c, 3, 8832
3, 650880, Pitch_bend_c, 3, 8832
3, 650880, Pitch_bend_c, 3, 8192
3, 650880, Note_off_c, 3, 53, 95
3, 650880, Note_on_c, 2, 53, 95
3, 651360, Note_off_c, 2, 53, 95
3, 651360, Note_on_c, 2, 59, 95
3, 651840, Note_off_c, 2, 59, 95
3, 651840, Note_on_c, 2, 60, 95
3, 652800, Note_off_c, 2, 60, 95
3, 652800, Pitch_bend_c, 3, 8192
3, 652800, Note_on_c, 3, 60, 95
3, 652974, Pitch_bend_c, 3, 8320
3, 653148, Pitch_bend_c, 3, 8448
3, 653322, Pitch_bend_c, 3, 8576
3, 653496, Pitch_bend_c, 3, 8704
3, 653670, Pitch_bend_c, 3, 8832
3, 653844, Pitch_bend_c, 3, 8960
3, 654018, Pitch_bend_c, 3, 9088
3, 654192, Pitch_bend_c, 3, 9216
3, 654366, Pitch_bend_c, 3, 9344
3, 654540, Pitch_bend_c, 3, 9472
3, 654714, Pitch_bend_c, 3, 9600
3, 654720, Pitch_bend_c, 3, 9600
3, 656640, Pitch_bend_c, 3, 9600
3, 656640, Pitch_bend_c, 3, 8192
3, 656640, Note_off_c, 3, 60, 95
3, 656640, Pitch_bend_c, 3, 8192
3, 656640, Note_on_c, 3, 60, 95
3, 656669, Pitch_bend_c, 3, 8320
3, 656698, Pitch_bend_c, 3, 8448
3, 656727, Pitch_bend_c, 3, 8576
3, 656756, Pitch_bend_c, 3, 8704
3, 656785, Pitch_bend_c, 3, 8832
3, 656814, Pitch_bend_c, 3, 8960
3, 656843, Pitch_bend_c, 3, 9088
3, 656872, Pitch_bend_c, 3, 9216
3, 656901, Pitch_bend_c, 3, 9344
3, 656930, Pitch_bend_c, 3, 9472
3, 656959, Pitch_bend_c, 3, 9600
3, 656960, Pitch_bend_c, 3, 9600
3, 657280, Pitch_bend_c, 3, 9600
3, 657309, Pitch_bend_c, 3, 9472
3, 657338, Pitch_bend_c, 3, 9344
3, 657367, Pitch_bend_c, 3, 9216
3, 657396, Pitch_bend_c, 3, 9088
3, 657425, Pitch_bend_c, 3, 8960
3, 657454, Pitch_bend_c, 3, 8832
3, 657483, Pitch_bend_c, 3, 8704
3, 657512, Pitch_bend_c, 3, 8576
3, 657541, Pitch_bend_c, 3, 8448
3, 657570, Pitch_bend_c, 3, 8320
3, 657599, Pitch_bend_c, 3, 8192
3, 657600, Pitch_bend_c, 3, 8192
3, 657920, Pitch_bend_c, 3, 8192
3, 657920, Pitch_bend_c, 3, 8192
3, 657920, Note_off_c, 3, 60, 95
3, 657920, Note_on_c, 2, 59, 95
3, 658560, Note_off_c, 2, 59, 95
3, 658560, Note_on_c, 2, 60, 95
3, 659200, Note_off_c, 2, 60, 95
3, 659200, Note_on_c, 2, 59, 70
3, 659840, Note_off_c, 2, 59, 70
3, 659840, Note_on_c, 2, 57, 95
3, 660480, Note_off_c, 2, 57, 95
3, 660480, Note_on_c, 3, 55, 95
3, 660600, Pitch_bend_c, 3, 7936
3, 660720, Pitch_bend_c, 3, 7552
3, 660840, Pitch_bend_c, 3, 7168
3, 660960, Pitch_bend_c, 3, 6784
3, 660960, Pitch_bend_c, 3, 8192
3, 660960, Note_off_c, 3, 55, 95
3, 660960, Note_on_c, 2, 53, 95
3, 662880, Note_off_c, 2, 53, 95
3, 662880, Pitch_bend_c, 3, 8192
3, 662880, Note_on_c, 3, 53, 95
3, 662952, Pitch_bend_c, 3, 8320
3, 663024, Pitch_bend_c, 3, 8448
3, 663096, Pitch_bend_c, 3, 8576
3, 663168, Pitch_bend_c, 3, 8704
3, 663240, Pitch_bend_c, 3, 8832
3, 663240, Pitch_bend_c, 3, 8832
3, 663360, Pitch_bend_c, 3, 8832
3, 663360, Pitch_bend_c, 3, 8192
3, 663360, Note_off_c, 3, 53, 95
3, 663360, Pitch_bend_c, 3, 8192
3, 663360, Note_on_c, 3, 53, 95
3, 663432, Pitch_bend_c, 3, 8064
3, 663504, Pitch_bend_c, 3, 7936
3, 663576, Pitch_bend_c, 3, 7808
3, 663648, Pitch_bend_c, 3, 7680
3, 663720, Pitch_bend_c, 3, 7552
3, 663720, Pitch_bend_c, 3, 7552
3, 663840, Pitch_bend_c, 3, 7552
3, 663840, Pitch_bend_c, 3, 8192
3, 663840, Note_off_c, 3, 53, 95
3, 663840, Pitch_bend_c, 3, 8192
3, 663840, Note_on_c, 3, 53, 95
3, 663912, Pitch_bend_c, 3, 8320
3, 663984, Pitch_bend_c, 3, 8448
3, 664056, Pitch_bend_c, 3, 8576
3, 664128, Pitch_bend_c, 3, 8704
3, 664200, Pitch_bend_c, 3, 8832
3, 664200, Pitch_bend_c, 3, 8832
3, 664320, Pitch_bend_c, 3, 8832
3, 664320, Pitch_bend_c, 3, 8192
3, 664320, Note_off_c, 3, 53, 95
3, 664320, Pitch_bend_c, 3, 8192
3, 664320, Note_on_c, 3, 53, 95
3, 664392, Pitch_bend_c, 3, 8064
3, 664464, Pitch_bend_c, 3, 7936
3, 664536, Pitch_bend_c, 3, 7808
3, 664608, Pitch_bend_c, 3, 7680
3, 664680, Pitch_bend_c, 3, 7552
3, 664680, Pitch_bend_c, 3, 7552
3, 664800, Pitch_bend_c, 3, 7552
3, 664800, Pitch_bend_c, 3, 8192
3, 664800, Note_off_c, 3, 53, 95
3, 664800, Pitch_bend_c, 3, 8192
3, 664800, Note_on_c, 3, 53, 95
3, 664872, Pitch_bend_c, 3, 8320
3, 664944, Pitch_bend_c, 3, 8448
3, 665016, Pitch_bend_c, 3, 8576
3, 665088, Pitch_bend_c, 3, 8704
3, 665160, Pitch_bend_c, 3, 8832
3, 665160, Pitch_bend_c, 3, 8832
3, 665280, Pitch_bend_c, 3, 8832
3, 665280, Pitch_bend_c, 3, 8192
3, 665280, Note_off_c, 3, 53, 95
3, 665280, Pitch_bend_c, 3, 8192
3, 665280, Note_on_c, 3, 53, 95
3, 665352, Pitch_bend_c, 3, 8064
3, 665424, Pitch_bend_c, 3, 7936
3, 665496, Pitch_bend_c, 3, 7808
3, 665568, Pitch_bend_c, 3, 7680
3, 665640, Pitch_bend_c, 3, 7552
3, 665640, Pitch_bend_c, 3, 7552
3, 665760, Pitch_bend_c, 3, 7552
3, 665760, Pitch_bend_c, 3, 8192
3, 665760, Note_off_c, 3, 53, 95
3, 665760, Pitch_bend_c, 3, 8192
3, 665760, Note_on_c, 3, 53, 95
3, 665832, Pitch_bend_c, 3, 8320
3, 665904, Pitch_bend_c, 3, 8448
3, 665976, Pitch_bend_c, 3, 8576
3, 666048, Pitch_bend_c, 3, 8704
3, 666120, Pitch_bend_c, 3, 8832
3, 666120, Pitch_bend_c, 3, 8832
3, 666240, Pitch_bend_c, 3, 8832
3, 666240, Pitch_bend_c, 3, 8192
3, 666240, Note_off_c, 3, 53, 95
3, 666240, Note_on_c, 2, 53, 95
3, 666720, Note_off_c, 2, 53, 95
3, 666720, Note_on_c, 2, 59, 95
3, 667200, Note_off_c, 2, 59, 95
3, 667200, Note_on_c, 2, 60, 95
3, 668160, Note_off_c, 2, 60, 95
3, 668160, Pitch_bend_c, 3, 8192
3, 668160, Note_on_c, 3, 60, 95
3, 668334, Pitch_bend_c, 3, 8320
3, 668508, Pitch_bend_c, 3, 8448
3, 668682, Pitch_bend_c, 3, 8576
3, 668856, Pitch_bend_c, 3, 8704
3, 669030, Pitch_bend_c, 3, 8832
3, 669204, Pitch_bend_c, 3, 8960
3, 669378, Pitch_bend_c, 3, 9088
3, 669552, Pitch_bend_c, 3, 9216
3, 669726, Pitch_bend_c, 3, 9344
3, 669900, Pitch_bend_c, 3, 9472
3, 670074, Pitch_bend_c, 3, 9600
3, 670080, Pitch_bend_c, 3, 9600
3, 672000, Pitch_bend_c, 3, 9600
3, 672000, Pitch_bend_c, 3, 8192
3, 672000, Note_off_c, 3, 60, 95
3, 672000, Pitch_bend_c, 3, 8192
3, 672000, Note_on_c, 3, 60, 95
3, 672029, Pitch_bend_c, 3, 8320
3, 672058, Pitch_bend_c, 3, 8448
3, 672087, Pitch_bend_c, 3, 8576
3, 672116, Pitch_bend_c, 3, 8704
3, 672145, Pitch_bend_c, 3, 8832
3, 672174, Pitch_bend_c, 3, 8960
3, 672203, Pitch_bend_c, 3, 9088
3, 672232, Pitch_bend_c, 3, 9216
3, 672261, Pitch_bend_c, 3, 9344
3, 672290, Pitch_bend_c, 3, 9472
3, 672319, Pitch_bend_c, 3, 9600
3, 672320, Pitch_bend_c, 3, 9600
3, 672640, Pitch_bend_c, 3, 9600
3, 672669, Pitch_bend_c, 3, 9472
3, 672698, Pitch_bend_c, 3, 9344
3, 672727, Pitch_bend_c, 3, 9216
3, 672756, Pitch_bend_c, 3, 9088
3, 672785, Pitch_bend_c, 3, 8960
3, 672814, Pitch_bend_c, 3, 8832
3, 672843, Pitch_bend_c, 3, 8704
3, 672872, Pitch_bend_c, 3, 8576
3, 672901, Pitch_bend_c, 3, 8448
3, 672930, Pitch_bend_c, 3, 8320
3, 672959, Pitch_bend_c, 3, 8192
3, 672960, Pitch_bend_c, 3, 8192
3, 673280, Pitch_bend_c, 3, 8192
3, 673280, Pitch_bend_c, 3, 8192
3, 673280, Note_off_c, 3, 60, 95
3, 673280, Note_on_c, 2, 59, 95
3, 673920, Note_off_c, 2, 59, 95
3, 673920, Note_on_c, 2, 60, 95
3, 674560, Note_off_c, 2, 60, 95
3, 674560, Note_on_c, 2, 59, 70
3, 675200, Note_off_c, 2, 59, 70
3, 675200, Note_on_c, 2, 57, 95
3, 675840, Note_off_c, 2, 57, 95
3, 675840, Note_on_c, 2, 55, 95
3, 676160, Note_off_c, 2, 55, 95
3, 676160, Note_on_c, 2, 57, 70
3, 676480, Note_off_c, 2, 57, 70
3, 676480, Note_on_c, 3, 55, 70
3, 676640, Pitch_bend_c, 3, 7552
3, 676800, Pitch_bend_c, 3, 6784
3, 676800, Pitch_bend_c, 3, 8192
3, 676800, Note_off_c, 3, 55, 70
3, 676800, Note_on_c, 2, 53, 95
3, 678240, Note_off_c, 2, 53, 95
3, 678240, Pitch_bend_c, 3, 8192
3, 678240, Note_on_c, 3, 53, 95
3, 678312, Pitch_bend_c, 3, 8320
3, 678384, Pitch_bend_c, 3, 8448
3, 678456, Pitch_bend_c, 3, 8576
3, 678528, Pitch_bend_c, 3, 8704
3, 678600, Pitch_bend_c, 3, 8832
3, 678600, Pitch_bend_c, 3, 8832
3, 678720, Pitch_bend_c, 3, 8832
3, 678720, Pitch_bend_c, 3, 8192
3, 678720, Note_off_c, 3, 53, 95
3, 678720, Pitch_bend_c, 3, 8192
3, 678720, Note_on_c, 3, 53, 95
3, 678792, Pitch_bend_c, 3, 8064
3, 678864, Pitch_bend_c, 3, 7936
3, 678936, Pitch_bend_c, 3, 7808
3, 679008, Pitch_bend_c, 3, 7680
3, 679080, Pitch_bend_c, 3, 7552
3, 679080, Pitch_bend_c, 3, 7552
3, 679200, Pitch_bend_c, 3, 7552
3, 679200, Pitch_bend_c, 3, 8192
3, 679200, Note_off_c, 3, 53, 95
3, 679200, Pitch_bend_c, 3, 8192
3, 679200, Note_on_c, 3, 53, 95
3, 679272, Pitch_bend_c, 3, 8320
3, 679344, Pitch_bend_c, 3, 8448
3, 679416, Pitch_bend_c, 3, 8576
3, 679488, Pitch_bend_c, 3, 8704
3, 679560, Pitch_bend_c, 3, 8832
3, 679560, Pitch_bend_c, 3, 8832
3, 679680, Pitch_bend_c, 3, 8832
3, 679680, Pitch_bend_c, 3, 8192
3, 679680, Note_off_c, 3, 53, 95
3, 679680, Pitch_bend_c, 3, 8192
3, 679680, Note_on_c, 3, 53, 95
3, 679752, Pitch_bend_c, 3, 8064
3, 679824, Pitch_bend_c, 3, 7936
3, 679896, Pitch_bend_c, 3, 7808
3, 679968, Pitch_bend_c, 3, 7680
3, 680040, Pitch_bend_c, 3, 7552
3, 680040, Pitch_bend_c, 3, 7552
3, 680160, Pitch_bend_c, 3, 7552
3, 680160, Pitch_bend_c, 3, 8192
3, 680160, Note_off_c, 3, 53, 95
3, 680160, Pitch_bend_c, 3, 8192
3, 680160, Note_on_c, 3, 53, 95
3, 680232, Pitch_bend_c, 3, 8320
3, 680304, Pitch_bend_c, 3, 8448
3, 680376, Pitch_bend_c, 3, 8576
3, 680448, Pitch_bend_c, 3, 8704
3, 680520, Pitch_bend_c, 3, 8832
3, 680520, Pitch_bend_c, 3, 8832
3, 680640, Pitch_bend_c, 3, 8832
3, 680640, Pitch_bend_c, 3, 8192
3, 680640, Note_off_c, 3, 53, 95
3, 680640, Pitch_bend_c, 3, 8192
3, 680640, Note_on_c, 3, 53, 95
3, 680712, Pitch_bend_c, 3, 8064
3, 680784, Pitch_bend_c, 3, 7936
3, 680856, Pitch_bend_c, 3, 7808
3, 680928, Pitch_bend_c, 3, 7680
3, 681000, Pitch_bend_c, 3, 7552
3, 681000, Pitch_bend_c, 3, 7552
3, 681120, Pitch_bend_c, 3, 7552
3, 681120, Pitch_bend_c, 3, 8192
3, 681120, Note_off_c, 3, 53, 95
3, 681120, Pitch_bend_c, 3, 8192
3, 681120, Note_on_c, 3, 53, 95
3, 681192, Pitch_bend_c, 3, 8320
3, 681264, Pitch_bend_c, 3, 8448
3, 681336, Pitch_bend_c, 3, 8576
3, 681408, Pitch_bend_c, 3, 8704
3, 681480, Pitch_bend_c, 3, 8832
3, 681480, Pitch_bend_c, 3, 8832
3, 681600, Pitch_bend_c, 3, 8832
3, 681600, Pitch_bend_c, 3, 8192
3, 681600, Note_off_c, 3, 53, 95
3, 681600, Note_on_c, 2, 53, 95
3, 682080, Note_off_c, 2, 53, 95
3, 682080, Note_on_c, 2, 59, 95
3, 682560, Note_off_c, 2, 59, 95
3, 682560, Note_on_c, 2, 60, 95
3, 683520, Note_off_c, 2, 60, 95
3, 683520, Pitch_bend_c, 3, 8192
3, 683520, Note_on_c, 3, 60, 95
3, 683694, Pitch_bend_c, 3, 8320
3, 683868, Pitch_bend_c, 3, 8448
3, 684042, Pitch_bend_c, 3, 8576
3, 684216, Pitch_bend_c, 3, 8704
3, 684390, Pitch_bend_c, 3, 8832
3, 684564, Pitch_bend_c, 3, 8960
3, 684738, Pitch_bend_c, 3, 9088
3, 684912, Pitch_bend_c, 3, 9216
3, 685086, Pitch_bend_c, 3, 9344
3, 685260, Pitch_bend_c, 3, 9472
3, 685434, Pitch_bend_c, 3, 9600
3, 685440, Pitch_bend_c, 3, 9600
3, 687360, Pitch_bend_c, 3, 9600
3, 687360, Pitch_bend_c, 3, 8192
3, 687360, Note_off_c, 3, 60, 95
3, 687360, Pitch_bend_c, 3, 8192
3, 687360, Note_on_c, 3, 60, 95
3, 687389, Pitch_bend_c, 3, 8320
3, 687418, Pitch_bend_c, 3, 8448
3, 687447, Pitch_bend_c, 3, 8576
3, 687476, Pitch_bend_c, 3, 8704
3, 687505, Pitch_bend_c, 3, 8832
3, 687534, Pitch_bend_c, 3, 8960
3, 687563, Pitch_bend_c, 3, 9088
3, 687592, Pitch_bend_c, 3, 9216
3, 687621, Pitch_bend_c, 3, 9344
3, 687650, Pitch_bend_c, 3, 9472
3, 687679, Pitch_bend_c, 3, 9600
3, 687680, Pitch_bend_c, 3, 9600
3, 688000, Pitch_bend_c, 3, 9600
3, 688029, Pitch_bend_c, 3, 9472
3, 688058, Pitch_bend_c, 3, 9344
3, 688087, Pitch_bend_c, 3, 9216
3, 688116, Pitch_bend_c, 3, 9088
3, 688145, Pitch_bend_c, 3, 8960
3, 688174, Pitch_bend_c, 3, 8832
3, 688203, Pitch_bend_c, 3, 8704
3, 688232, Pitch_bend_c, 3, 8576
3, 688261, Pitch_bend_c, 3, 8448
3, 688290, Pitch_bend_c, 3, 8320
3, 688319, Pitch_bend_c, 3, 8192
3, 688320, Pitch_bend_c, 3, 8192
3, 688640, Pitch_bend_c, 3, 8192
3, 688640, Pitch_bend_c, 3, 8192
3, 688640, Note_off_c, 3, 60, 95
3, 688640, Note_on_c, 2, 59, 95
3, 689280, Note_off_c, 2, 59, 95
3, 689280, Note_on_c, 2, 60, 95
3, 689920, Note_off_c, 2, 60, 95
3, 689920, Note_on_c, 2, 59, 70
3, 690560, Note_off_c, 2, 59, 70
3, 690560, Note_on_c, 2, 57, 95
3, 691200, Note_off_c, 2, 57, 95
3, 691200, Note_on_c, 2, 55, 95
3, 691520, Note_off_c, 2, 55, 95
3, 691520, Note_on_c, 2, 57, 70
3, 691840, Note_off_c, 2, 57, 70
3, 691840, Note_on_c, 3, 55, 70
3, 692000, Pitch_bend_c, 3, 7552
3, 692160, Pitch_bend_c, 3, 6784
3, 692160, Pitch_bend_c, 3, 8192
3, 692160, Note_off_c, 3, 55, 70
3, 692160, Note_on_c, 2, 53, 95
3, 693600, Note_off_c, 2, 53, 95
3, 693600, Pitch_bend_c, 3, 8192
3, 693600, Note_on_c, 3, 53, 95
3, 693672, Pitch_bend_c, 3, 8320
3, 693744, Pitch_bend_c, 3, 8448
3, 693816, Pitch_bend_c, 3, 8576
3, 693888, Pitch_bend_c, 3, 8704
3, 693960, Pitch_bend_c, 3, 8832
3, 693960, Pitch_bend_c, 3, 8832
3, 694080, Pitch_bend_c, 3, 8832
3, 694080, Pitch_bend_c, 3, 8192
3, 694080, Note_off_c, 3, 53, 95
3, 694080, Pitch_bend_c, 3, 8192
3, 694080, Note_on_c, 3, 53, 95
3, 694152, Pitch_bend_c, 3, 8064
3, 694224, Pitch_bend_c, 3, 7936
3, 694296, Pitch_bend_c, 3, 7808
3, 694368, Pitch_bend_c, 3, 7680
3, 694440, Pitch_bend_c, 3, 7552
3, 694440, Pitch_bend_c, 3, 7552
3, 694560, Pitch_bend_c, 3, 7552
3, 694560, Pitch_bend_c, 3, 8192
3, 694560, Note_off_c, 3, 53, 95
3, 694560, Pitch_bend_c, 3, 8192
3, 694560, Note_on_c, 3, 53, 95
3, 694632, Pitch_bend_c, 3, 8320
3, 694704, Pitch_bend_c, 3, 8448
3, 694776, Pitch_bend_c, 3, 8576
3, 694848, Pitch_bend_c, 3, 8704
3, 694920, Pitch_bend_c, 3, 8832
3, 694920, Pitch_bend_c, 3, 8832
3, 695040, Pitch_bend_c, 3, 8832
3, 695040, Pitch_bend_c, 3, 8192
3, 695040, Note_off_c, 3, 53, 95
3, 695040, Pitch_bend_c, 3, 8192
3, 695040, Note_on_c, 3, 53, 95
3, 695112, Pitch_bend_c, 3, 8064
3, 695184, Pitch_bend_c, 3, 7936
3, 695256, Pitch_bend_c, 3, 7808
3, 695328, Pitch_bend_c, 3, 7680
3, 695400, Pitch_bend_c, 3, 7552
3, 695400, Pitch_bend_c, 3, 7552
3, 695520, Pitch_bend_c, 3, 7552
3, 695520, Pitch_bend_c, 3, 8192
3, 695520, Note_off_c, 3, 53, 95
3, 695520, Pitch_bend_c, 3, 8192
3, 695520, Note_on_c, 3, 53, 95
3, 695592, Pitch_bend_c, 3, 8320
3, 695664, Pitch_bend_c, 3, 8448
3, 695736, Pitch_bend_c, 3, 8576
3, 695808, Pitch_bend_c, 3, 8704
3, 695880, Pitch_bend_c, 3, 8832
3, 695880, Pitch_bend_c, 3, 8832
3, 696000, Pitch_bend_c, 3, 8832
3, 696000, Pitch_bend_c, 3, 8192
3, 696000, Note_off_c, 3, 53, 95
3, 696000, Pitch_bend_c, 3, 8192
3, 696000, Note_on_c, 3, 53, 95
3, 696072, Pitch_bend_c, 3, 8064
3, 696144, Pitch_bend_c, 3, 7936
3, 696216, Pitch_bend_c, 3, 7808
3, 696288, Pitch_bend_c, 3, 7680
3, 696360, Pitch_bend_c, 3, 7552
3, 696360, Pitch_bend_c, 3, 7552
3, 696480, Pitch_bend_c, 3, 7552
3, 696480, Pitch_bend_c, 3, 8192
3, 696480, Note_off_c, 3, 53, 95
3, 696480, Pitch_bend_c, 3, 8192
3, 696480, Note_on_c, 3, 53, 95
3, 696552, Pitch_bend_c, 3, 8320
3, 696624, Pitch_bend_c, 3, 8448
3, 696696, Pitch_bend_c, 3, 8576
3, 696768, Pitch_bend_c, 3, 8704
3, 696840, Pitch_bend_c, 3, 8832
3, 696840, Pitch_bend_c, 3, 8832
3, 696960, Pitch_bend_c, 3, 8832
3, 696960, Pitch_bend_c, 3, 8192
3, 696960, Note_off_c, 3, 53, 95
3, 696960, Note_on_c, 2, 53, 95
3, 697440, Note_off_c, 2, 53, 95
3, 697440, Note_on_c, 2, 59, 95
3, 697920, Note_off_c, 2, 59, 95
3, 697920, Note_on_c, 2, 60, 95
3, 698400, Note_off_c, 2, 60, 95
3, 698400, Note_on_c, 2, 62, 95
3, 698880, Note_off_c, 2, 62, 95
3, 699360, Note_on_c, 2, 60, 95
3, 699840, Note_off_c, 2, 60, 95
3, 700320, Note_on_c, 2, 62, 95
3, 700800, Note_off_c, 2, 62, 95
3, 701280, Note_on_c, 2, 64, 95
3, 701760, Note_off_c, 2, 64, 95
3, 702240, Note_on_c, 2, 65, 95
3, 702720, Note_off_c, 2, 65, 95
3, 703200, Note_on_c, 2, 64, 95
3, 703680, Note_off_c, 2, 64, 95
3, 704160, Note_on_c, 2, 65, 95
3, 704640, Note_off_c, 2, 65, 95
3, 705120, Note_on_c, 2, 67, 95
3, 705600, Note_off_c, 2, 67, 95
3, 706080, Note_on_c, 2, 69, 95
3, 706560, Note_off_c, 2, 69, 95
3, 707040, Note_on_c, 2, 67, 95
3, 707520, Note_off_c, 2, 67, 95
3, 707520, Note_on_c, 2, 65, 95
3, 708000, Note_off_c, 2, 65, 95
3, 708000, Note_on_c, 2, 62, 95
3, 713280, Note_off_c, 2, 62, 95
3, 714240, Note_on_c, 2, 67, 95
3, 714880, Note_off_c, 2, 67, 95
3, 714880, Note_on_c, 2, 65, 95
3, 715520, Note_off_c, 2, 65, 95
3, 715520, Note_on_c, 2, 64, 95
3, 716160, Note_off_c, 2, 64, 95
3, 716160, Note_on_c, 2, 62, 95
3, 718080, Note_off_c, 2, 62, 95
3, 718080, Note_on_c, 3, 62, 95
3, 719040, Note_off_c, 3, 62, 95
3, 719040, End_track
4, 0, Start_track
4, 0, Pitch_bend_c, 4, 8192
4, 0, Control_c, 4, 7, 103
4, 0, Control_c, 4, 10, 63
4, 0, Control_c, 4, 93, 0
4, 0, Control_c, 4, 91, 0
4, 0, Control_c, 4, 95, 0
4, 0, Control_c, 4, 92, 0
4, 0, Control_c, 4, 11, 127
4, 0, Program_c, 4, 30
4, 0, Control_c, 5, 7, 103
4, 0, Control_c, 5, 10, 63
4, 0, Control_c, 5, 93, 0
4, 0, Control_c, 5, 91, 0
4, 0, Control_c, 5, 95, 0
4, 0, Control_c, 5, 92, 0
4, 0, Control_c, 5, 11, 127
4, 0, Program_c, 5, 30
4, 75360, Note_on_c, 4, 62, 95
4, 75840, Note_off_c, 4, 62, 95
4, 75840, Note_on_c, 4, 64, 95
4, 76800, Note_off_c, 4, 64, 95
4, 76800, Pitch_bend_c, 5, 8192
4, 76800, Note_on_c, 5, 64, 95
4, 77184, Pitch_bend_c, 5, 8320
4, 77568, Pitch_bend_c, 5, 8448
4, 77952, Pitch_bend_c, 5, 8576
4, 78336, Pitch_bend_c, 5, 8704
4, 78720, Pitch_bend_c, 5, 8832
4, 78720, Pitch_bend_c, 5, 8832
4, 80640, Pitch_bend_c, 5, 8832
4, 80640, Pitch_bend_c, 5, 8192
4, 80640, Note_off_c, 5, 64, 95
4, 80640, Pitch_bend_c, 5, 8192
4, 80640, Note_on_c, 5, 64, 95
4, 80704, Pitch_bend_c, 5, 8320
4, 80768, Pitch_bend_c, 5, 8448
4, 80832, Pitch_bend_c, 5, 8576
4, 80896, Pitch_bend_c, 5, 8704
4, 80960, Pitch_bend_c, 5, 8832
4, 80960, Pitch_bend_c, 5, 8832
4, 81280, Pitch_bend_c, 5, 8832
4, 81280, Pitch_bend_c, 5, 8192
4, 81280, Note_off_c, 5, 64, 95
4, 81280, Pitch_bend_c, 5, 8832
4, 81280, Note_on_c, 5, 64, 95
4, 81493, Pitch_bend_c, 5, 8832
4, 81535, Pitch_bend_c, 5, 8704
4, 81577, Pitch_bend_c, 5, 8576
4, 81619, Pitch_bend_c, 5, 8448
4, 81661, Pitch_bend_c, 5, 8320
4, 81703, Pitch_bend_c, 5, 8192
4, 81706, Pitch_bend_c, 5, 8192
4, 81920, Pitch_bend_c, 5, 8192
4, 81920, Pitch_bend_c, 5, 8192
4, 81920, Note_off_c, 5, 64, 95
4, 81920, Note_on_c, 4, 62, 95
4, 82560, Note_off_c, 4, 62, 95
4, 82560, Note_on_c, 4, 64, 95
4, 83200, Note_off_c, 4, 64, 95
4, 83200, Note_on_c, 4, 62, 70
4, 83840, Note_off_c, 4, 62, 70
4, 83840, Note_on_c, 4, 60, 95
4, 84480, Note_off_c, 4, 60, 95
4, 84480, Note_on_c, 5, 59, 95
4, 84600, Pitch_bend_c, 5, 7936
4, 84720, Pitch_bend_c, 5, 7552
4, 84840, Pitch_bend_c, 5, 7168
4, 84960, Pitch_bend_c, 5, 6784
4, 84960, Pitch_bend_c, 5, 8192
4, 84960, Note_off_c, 5, 59, 95
4, 84960, Note_on_c, 4, 57, 95
4, 85200, Note_off_c, 4, 57, 95
4, 85200, Note_on_c, 4, 57, 95
4, 85440, Note_off_c, 4, 57, 95
4, 85440, Note_on_c, 4, 57, 95
4, 85680, Note_off_c, 4, 57, 95
4, 85680, Note_on_c, 4, 57, 95
4, 85920, Note_off_c, 4, 57, 95
4, 85920, Note_on_c, 4, 57, 95
4, 86160, Note_off_c, 4, 57, 95
4, 86160, Note_on_c, 4, 57, 95
4, 86400, Note_off_c, 4, 57, 95
4, 86400, Note_on_c, 4, 57, 95
4, 86640, Note_off_c, 4, 57, 95
4, 86640, Note_on_c, 4, 57, 95
4, 86880, Note_off_c, 4, 57, 95
4, 86880, Note_on_c, 4, 57, 95
4, 87120, Note_off_c, 4, 57, 95
4, 87120, Note_on_c, 4, 57, 95
4, 87360, Note_off_c, 4, 57, 95
4, 87360, Note_on_c, 4, 57, 95
4, 87600, Note_off_c, 4, 57, 95
4, 87600, Note_on_c, 4, 57, 95
4, 87840, Note_off_c, 4, 57, 95
4, 87840, Note_on_c, 4, 57, 95
4, 88080, Note_off_c, 4, 57, 95
4, 88080, Note_on_c, 4, 57, 95
4, 88320, Note_off_c, 4, 57, 95
4, 88320, Note_on_c, 4, 57, 95
4, 88560, Note_off_c, 4, 57, 95
4, 88560, Note_on_c, 4, 57, 95
4, 88800, Note_off_c, 4, 57, 95
4, 88800, Note_on_c, 4, 57, 95
4, 89040, Note_off_c, 4, 57, 95
4, 89040, Note_on_c, 4, 57, 95
4, 89280, Note_off_c, 4, 57, 95
4, 89280, Note_on_c, 4, 57, 95
4, 89520, Note_off_c, 4, 57, 95
4, 89520, Note_on_c, 4, 57, 95
4, 89760, Note_off_c, 4, 57, 95
4, 89760, Note_on_c, 4, 57, 95
4, 90000, Note_off_c, 4, 57, 95
4, 90000, Note_on_c, 4, 57, 95
4, 90240, Note_off_c, 4, 57, 95
4, 90240, Note_on_c, 4, 57, 95
4, 90480, Note_off_c, 4, 57, 95
4, 90480, Note_on_c, 4, 57, 95
4, 90719, Note_off_c, 4, 57, 95
4, 90720, Note_on_c, 4, 62, 95
4, 91200, Note_off_c, 4, 62, 95
4, 91200, Note_on_c, 4, 64, 95
4, 92160, Note_off_c, 4, 64, 95
4, 92160, Pitch_bend_c, 5, 8192
4, 92160, Note_on_c, 5, 64, 95
4, 92544, Pitch_bend_c, 5, 8320
4, 92928, Pitch_bend_c, 5, 8448
4, 93312, Pitch_bend_c, 5, 8576
4, 93696, Pitch_bend_c, 5, 8704
4, 94080, Pitch_bend_c, 5, 8832
4, 94080, Pitch_bend_c, 5, 8832
4, 96000, Pitch_bend_c, 5, 8832
4, 96000, Pitch_bend_c, 5, 8192
4, 96000, Note_off_c, 5, 64, 95
4, 96000, Pitch_bend_c, 5, 8192
4, 96000, Note_on_c, 5, 64, 95
4, 96064, Pitch_bend_c, 5, 8320
4, 96128, Pitch_bend_c, 5, 8448
4, 96192, Pitch_bend_c, 5, 8576
4, 96256, Pitch_bend_c, 5, 8704
4, 96320, Pitch_bend_c, 5, 8832
4, 96320, Pitch_bend_c, 5, 8832
4, 96640, Pitch_bend_c, 5, 8832
4, 96640, Pitch_bend_c, 5, 8192
4, 96640, Note_off_c, 5, 64, 95
4, 96640, Pitch_bend_c, 5, 8832
4, 96640, Note_on_c, 5, 64, 95
4, 96853, Pitch_bend_c, 5, 8832
4, 96895, Pitch_bend_c, 5, 8704
4, 96937, Pitch_bend_c, 5, 8576
4, 96979, Pitch_bend_c, 5, 8448
4, 97021, Pitch_bend_c, 5, 8320
4, 97063, Pitch_bend_c, 5, 8192
4, 97066, Pitch_bend_c, 5, 8192
4, 97280, Pitch_bend_c, 5, 8192
4, 97280, Pitch_bend_c, 5, 8192
4, 97280, Note_off_c, 5, 64, 95
4, 97280, Note_on_c, 4, 62, 95
4, 97920, Note_off_c, 4, 62, 95
4, 97920, Note_on_c, 4, 64, 95
4, 98560, Note_off_c, 4, 64, 95
4, 98560, Note_on_c, 4, 62, 70
4, 99200, Note_off_c, 4, 62, 70
4, 99200, Note_on_c, 4, 60, 95
4, 99840, Note_off_c, 4, 60, 95
4, 99840, Note_on_c, 5, 59, 95
4, 99960, Pitch_bend_c, 5, 7936
4, 100080, Pitch_bend_c, 5, 7552
4, 100200, Pitch_bend_c, 5, 7168
4, 100320, Pitch_bend_c, 5, 6784
4, 100320, Pitch_bend_c, 5, 8192
4, 100320, Note_off_c, 5, 59, 95
4, 100320, Note_on_c, 4, 57, 95
4, 100560, Note_off_c, 4, 57, 95
4, 100560, Note_on_c, 4, 57, 95
4, 100800, Note_off_c, 4, 57, 95
4, 100800, Note_on_c, 4, 57, 95
4, 101040, Note_off_c, 4, 57, 95
4, 101040, Note_on_c, 4, 57, 95
4, 101280, Note_off_c, 4, 57, 95
4, 101280, Note_on_c, 4, 57, 95
4, 101520, Note_off_c, 4, 57, 95
4, 101520, Note_on_c, 4, 57, 95
4, 101760, Note_off_c, 4, 57, 95
4, 101760, Note_on_c, 4, 57, 95
4, 102000, Note_off_c, 4, 57, 95
4, 102000, Note_on_c, 4, 57, 95
4, 102240, Note_off_c, 4, 57, 95
4, 102240, Note_on_c, 4, 57, 95
4, 102480, Note_off_c, 4, 57, 95
4, 102480, Note_on_c, 4, 57, 95
4, 102720, Note_off_c, 4, 57, 95
4, 102720, Note_on_c, 4, 57, 95
4, 102960, Note_off_c, 4, 57, 95
4, 102960, Note_on_c, 4, 57, 95
4, 103200, Note_off_c, 4, 57, 95
4, 103200, Note_on_c, 4, 57, 95
4, 103440, Note_off_c, 4, 57, 95
4, 103440, Note_on_c, 4, 57, 95
4, 103680, Note_off_c, 4, 57, 95
4, 103680, Note_on_c, 4, 57, 95
4, 103680, Note_on_c, 4, 57, 95
4, 103920, Note_off_c, 4, 57, 95
4, 103920, Note_on_c, 4, 57, 95
4, 103920, Note_off_c, 4, 57, 95
4, 103920, Note_on_c, 4, 57, 95
4, 104160, Note_off_c, 4, 57, 95
4, 104160, Note_on_c, 4, 57, 95
4, 104160, Note_off_c, 4, 57, 95
4, 104160, Note_on_c, 4, 57, 95
4, 104400, Note_off_c, 4, 57, 95
4, 104400, Note_on_c, 4, 57, 95
4, 104400, Note_off_c, 4, 57, 95
4, 104400, Note_on_c, 4, 57, 95
4, 104640, Note_off_c, 4, 57, 95
4, 104640, Note_on_c, 4, 57, 95
4, 104640, Note_off_c, 4, 57, 95
4, 104640, Note_on_c, 4, 57, 95
4, 104880, Note_off_c, 4, 57, 95
4, 104880, Note_on_c, 4, 57, 95
4, 104880, Note_off_c, 4, 57, 95
4, 104880, Note_on_c, 4, 57, 95
4, 105120, Note_off_c, 4, 57, 95
4, 105120, Note_on_c, 4, 57, 95
4, 105120, Note_off_c, 4, 57, 95
4, 105120, Note_on_c, 4, 57, 95
4, 105360, Note_off_c, 4, 57, 95
4, 105360, Note_on_c, 4, 57, 95
4, 105360, Note_off_c, 4, 57, 95
4, 105360, Note_on_c, 4, 57, 95
4, 105600, Note_off_c, 4, 57, 95
4, 105600, Note_on_c, 4, 57, 95
4, 105600, Note_off_c, 4, 57, 95
4, 105600, Note_on_c, 4, 57, 95
4, 105840, Note_off_c, 4, 57, 95
4, 105840, Note_on_c, 4, 57, 95
4, 105840, Note_off_c, 4, 57, 95
4, 105840, Note_on_c, 4, 57, 95
4, 106079, Note_off_c, 4, 57, 95
4, 106079, Note_off_c, 4, 57, 95
4, 106080, Note_on_c, 4, 62, 95
4, 106560, Note_off_c, 4, 62, 95
4, 106560, Note_on_c, 4, 64, 95
4, 107520, Note_off_c, 4, 64, 95
4, 107520, Pitch_bend_c, 5, 8192
4, 107520, Note_on_c, 5, 64, 95
4, 107904, Pitch_bend_c, 5, 8320
4, 108288, Pitch_bend_c, 5, 8448
4, 108672, Pitch_bend_c, 5, 8576
4, 109056, Pitch_bend_c, 5, 8704
4, 109440, Pitch_bend_c, 5, 8832
4, 109440, Pitch_bend_c, 5, 8832
4, 111360, Pitch_bend_c, 5, 8832
4, 111360, Pitch_bend_c, 5, 8192
4, 111360, Note_off_c, 5, 64, 95
4, 111360, Pitch_bend_c, 5, 8192
4, 111360, Note_on_c, 5, 64, 95
4, 111424, Pitch_bend_c, 5, 8320
4, 111488, Pitch_bend_c, 5, 8448
4, 111552, Pitch_bend_c, 5, 8576
4, 111616, Pitch_bend_c, 5, 8704
4, 111680, Pitch_bend_c, 5, 8832
4, 111680, Pitch_bend_c, 5, 8832
4, 112000, Pitch_bend_c, 5, 8832
4, 112000, Pitch_bend_c, 5, 8192
4, 112000, Note_off_c, 5, 64, 95
4, 112000, Pitch_bend_c, 5, 9600
4, 112000, Note_on_c, 5, 64, 95
4, 112213, Pitch_bend_c, 5, 9600
4, 112232, Pitch_bend_c, 5, 9472
4, 112251, Pitch_bend_c, 5, 9344
4, 112270, Pitch_bend_c, 5, 9216
4, 112289, Pitch_bend_c, 5, 9088
4, 112308, Pitch_bend_c, 5, 8960
4, 112327, Pitch_bend_c, 5, 8832
4, 112346, Pitch_bend_c, 5, 8704
4, 112365, Pitch_bend_c, 5, 8576
4, 112384, Pitch_bend_c, 5, 8448
4, 112403, Pitch_bend_c, 5, 8320
4, 112422, Pitch_bend_c, 5, 8192
4, 112426, Pitch_bend_c, 5, 8192
4, 112640, Pitch_bend_c, 5, 8192
4, 112640, Pitch_bend_c, 5, 8192
4, 112640, Note_off_c, 5, 64, 95
4, 112640, Note_on_c, 4, 62, 95
4, 113280, Note_off_c, 4, 62, 95
4, 113280, Note_on_c, 4, 64, 95
4, 113920, Note_off_c, 4, 64, 95
4, 113920, Note_on_c, 4, 62, 70
4, 114560, Note_off_c, 4, 62, 70
4, 114560, Note_on_c, 4, 60, 95
4, 115200, Note_off_c, 4, 60, 95
4, 115200, Note_on_c, 4, 59, 95
4, 115520, Note_off_c, 4, 59, 95
4, 115520, Note_on_c, 4, 60, 95
4, 115840, Note_off_c, 4, 60, 95
4, 115840, Note_on_c, 4, 59, 95
4, 116160, Note_off_c, 4, 59, 95
4, 116160, Note_on_c, 4, 57, 95
4, 116400, Note_off_c, 4, 57, 95
4, 116400, Note_on_c, 4, 57, 95
4, 116640, Note_off_c, 4, 57, 95
4, 116640, Note_on_c, 4, 57, 95
4, 116880, Note_off_c, 4, 57, 95
4, 116880, Note_on_c, 4, 57, 95
4, 117120, Note_off_c, 4, 57, 95
4, 117120, Note_on_c, 4, 57, 95
4, 117360, Note_off_c, 4, 57, 95
4, 117360, Note_on_c, 4, 57, 95
4, 117600, Note_off_c, 4, 57, 95
4, 117600, Note_on_c, 4, 57, 95
4, 117840, Note_off_c, 4, 57, 95
4, 117840, Note_on_c, 4, 57, 95
4, 118080, Note_off_c, 4, 57, 95
4, 118080, Note_on_c, 4, 57, 95
4, 118320, Note_off_c, 4, 57, 95
4, 118320, Note_on_c, 4, 57, 95
4, 118560, Note_off_c, 4, 57, 95
4, 118560, Note_on_c, 4, 57, 95
4, 118800, Note_off_c, 4, 57, 95
4, 118800, Note_on_c, 4, 57, 95
4, 119040, Note_off_c, 4, 57, 95
4, 119040, Note_on_c, 4, 57, 95
4, 119280, Note_off_c, 4, 57, 95
4, 119280, Note_on_c, 4, 57, 95
4, 119520, Note_off_c, 4, 57, 95
4, 119520, Note_on_c, 4, 57, 95
4, 119760, Note_off_c, 4, 57, 95
4, 119760, Note_on_c, 4, 57, 95
4, 120000, Note_off_c, 4, 57, 95
4, 120000, Note_on_c, 4, 57, 95
4, 120240, Note_off_c, 4, 57, 95
4, 120240, Note_on_c, 4, 57, 95
4, 120480, Note_off_c, 4, 57, 95
4, 120480, Note_on_c, 4, 57, 95
4, 120720, Note_off_c, 4, 57, 95
4, 120720, Note_on_c, 4, 57, 95
4, 120960, Note_off_c, 4, 57, 95
4, 120960, Note_on_c, 4, 57, 95
4, 121200, Note_off_c, 4, 57, 95
4, 121200, Note_on_c, 4, 57, 95
4, 121440, Note_off_c, 4, 57, 95
4, 121440, Note_on_c, 4, 57, 95
4, 121440, Note_on_c, 4, 62, 95
4, 121680, Note_off_c, 4, 57, 95
4, 121680, Note_on_c, 4, 57, 95
4, 121920, Note_off_c, 4, 57, 95
4, 121920, Note_on_c, 4, 57, 95
4, 121920, Note_off_c, 4, 62, 95
4, 121920, Note_on_c, 4, 64, 95
4, 122160, Note_off_c, 4, 57, 95
4, 122160, Note_on_c, 4, 57, 95
4, 122400, Note_off_c, 4, 57, 95
4, 122400, Note_on_c, 4, 57, 95
4, 122640, Note_off_c, 4, 57, 95
4, 122640, Note_on_c, 4, 57, 95
4, 122880, Note_off_c, 4, 57, 95
4, 122880, Note_on_c, 4, 57, 95
4, 122880, Note_off_c, 4, 64, 95
4, 122880, Pitch_bend_c, 5, 8192
4, 122880, Note_on_c, 5, 64, 95
4, 123120, Note_off_c, 4, 57, 95
4, 123120, Note_on_c, 4, 57, 95
4, 123264, Pitch_bend_c, 5, 8320
4, 123360, Note_off_c, 4, 57, 95
4, 123360, Note_on_c, 4, 57, 95
4, 123600, Note_off_c, 4, 57, 95
4, 123600, Note_on_c, 4, 57, 95
4, 123648, Pitch_bend_c, 5, 8448
4, 123840, Note_off_c, 4, 57, 95
4, 123840, Note_on_c, 4, 57, 95
4, 124032, Pitch_bend_c, 5, 8576
4, 124080, Note_off_c, 4, 57, 95
4, 124080, Note_on_c, 4, 57, 95
4, 124320, Note_off_c, 4, 57, 95
4, 124320, Note_on_c, 4, 57, 95
4, 124416, Pitch_bend_c, 5, 8704
4, 124560, Note_off_c, 4, 57, 95
4, 124560, Note_on_c, 4, 57, 95
4, 124800, Note_off_c, 4, 57, 95
4, 124800, Note_on_c, 4, 57, 95
4, 124800, Pitch_bend_c, 5, 8832
4, 124800, Pitch_bend_c, 5, 8832
4, 125040, Note_off_c, 4, 57, 95
4, 125040, Note_on_c, 4, 57, 95
4, 125279, Note_off_c, 4, 57, 95
4, 126720, Pitch_bend_c, 5, 8832
4, 126720, Pitch_bend_c, 5, 8192
4, 126720, Note_off_c, 5, 64, 95
4, 126720, Pitch_bend_c, 5, 8192
4, 126720, Note_on_c, 5, 64, 95
4, 126784, Pitch_bend_c, 5, 8320
4, 126848, Pitch_bend_c, 5, 8448
4, 126912, Pitch_bend_c, 5, 8576
4, 126976, Pitch_bend_c, 5, 8704
4, 127040, Pitch_bend_c, 5, 8832
4, 127040, Pitch_bend_c, 5, 8832
4, 127360, Pitch_bend_c, 5, 8832
4, 127360, Pitch_bend_c, 5, 8192
4, 127360, Note_off_c, 5, 64, 95
4, 127360, Pitch_bend_c, 5, 9600
4, 127360, Note_on_c, 5, 64, 95
4, 127573, Pitch_bend_c, 5, 9600
4, 127592, Pitch_bend_c, 5, 9472
4, 127611, Pitch_bend_c, 5, 9344
4, 127630, Pitch_bend_c, 5, 9216
4, 127649, Pitch_bend_c, 5, 9088
4, 127668, Pitch_bend_c, 5, 8960
4, 127687, Pitch_bend_c, 5, 8832
4, 127706, Pitch_bend_c, 5, 8704
4, 127725, Pitch_bend_c, 5, 8576
4, 127744, Pitch_bend_c, 5, 8448
4, 127763, Pitch_bend_c, 5, 8320
4, 127782, Pitch_bend_c, 5, 8192
4, 127786, Pitch_bend_c, 5, 8192
4, 128000, Pitch_bend_c, 5, 8192
4, 128000, Pitch_bend_c, 5, 8192
4, 128000, Note_off_c, 5, 64, 95
4, 128000, Note_on_c, 4, 62, 95
4, 128640, Note_off_c, 4, 62, 95
4, 128640, Note_on_c, 4, 64, 95
4, 129280, Note_off_c, 4, 64, 95
4, 129280, Note_on_c, 4, 62, 70
4, 129920, Note_off_c, 4, 62, 70
4, 129920, Note_on_c, 4, 60, 95
4, 130560, Note_off_c, 4, 60, 95
4, 130560, Note_on_c, 4, 59, 95
4, 130880, Note_off_c, 4, 59, 95
4, 130880, Note_on_c, 4, 60, 95
4, 131200, Note_off_c, 4, 60, 95
4, 131200, Note_on_c, 4, 59, 95
4, 131520, Note_off_c, 4, 59, 95
4, 131520, Note_on_c, 4, 57, 95
4, 131760, Note_off_c, 4, 57, 95
4, 131760, Note_on_c, 4, 57, 95
4, 132000, Note_off_c, 4, 57, 95
4, 132000, Note_on_c, 4, 57, 95
4, 132240, Note_off_c, 4, 57, 95
4, 132240, Note_on_c, 4, 57, 95
4, 132480, Note_off_c, 4, 57, 95
4, 132480, Note_on_c, 4, 57, 95
4, 132720, Note_off_c, 4, 57, 95
4, 132720, Note_on_c, 4, 57, 95
4, 132960, Note_off_c, 4, 57, 95
4, 132960, Note_on_c, 4, 57, 95
4, 133200, Note_off_c, 4, 57, 95
4, 133200, Note_on_c, 4, 57, 95
4, 133440, Note_off_c, 4, 57, 95
4, 133440, Note_on_c, 4, 57, 95
4, 133680, Note_off_c, 4, 57, 95
4, 133680, Note_on_c, 4, 57, 95
4, 133920, Note_off_c, 4, 57, 95
4, 133920, Note_on_c, 4, 57, 95
4, 134160, Note_off_c, 4, 57, 95
4, 134160, Note_on_c, 4, 57, 95
4, 134400, Note_off_c, 4, 57, 95
4, 134400, Note_on_c, 4, 57, 95
4, 134640, Note_off_c, 4, 57, 95
4, 134640, Note_on_c, 4, 57, 95
4, 134880, Note_off_c, 4, 57, 95
4, 134880, Note_on_c, 4, 57, 95
4, 135120, Note_off_c, 4, 57, 95
4, 135120, Note_on_c, 4, 57, 95
4, 135360, Note_off_c, 4, 57, 95
4, 135360, Note_on_c, 4, 57, 95
4, 135600, Note_off_c, 4, 57, 95
4, 135600, Note_on_c, 4, 57, 95
4, 135840, Note_off_c, 4, 57, 95
4, 135840, Note_on_c, 4, 57, 95
4, 136080, Note_off_c, 4, 57, 95
4, 136080, Note_on_c, 4, 57, 95
4, 136320, Note_off_c, 4, 57, 95
4, 136320, Note_on_c, 4, 57, 95
4, 136560, Note_off_c, 4, 57, 95
4, 136560, Note_on_c, 4, 57, 95
4, 136800, Note_off_c, 4, 57, 95
4, 136800, Note_on_c, 4, 57, 95
4, 136800, Note_on_c, 4, 62, 95
4, 137040, Note_off_c, 4, 57, 95
4, 137040, Note_on_c, 4, 57, 95
4, 137280, Note_off_c, 4, 57, 95
4, 137280, Note_on_c, 4, 57, 95
4, 137280, Note_off_c, 4, 62, 95
4, 137280, Note_on_c, 4, 64, 95
4, 137520, Note_off_c, 4, 57, 95
4, 137520, Note_on_c, 4, 57, 95
4, 137760, Note_off_c, 4, 57, 95
4, 137760, Note_on_c, 4, 57, 95
4, 137760, Note_off_c, 4, 64, 95
4, 137760, Note_on_c, 4, 65, 95
4, 138000, Note_off_c, 4, 57, 95
4, 138000, Note_on_c, 4, 57, 95
4, 138240, Note_off_c, 4, 57, 95
4, 138240, Note_on_c, 4, 57, 95
4, 138240, Note_off_c, 4, 65, 95
4, 138480, Note_off_c, 4, 57, 95
4, 138480, Note_on_c, 4, 57, 95
4, 138720, Note_off_c, 4, 57, 95
4, 138720, Note_on_c, 4, 57, 95
4, 138720, Note_on_c, 4, 64, 95
4, 138960, Note_off_c, 4, 57, 95
4, 138960, Note_on_c, 4, 57, 95
4, 139200, Note_off_c, 4, 57, 95
4, 139200, Note_on_c, 4, 57, 95
4, 139200, Note_off_c, 4, 64, 95
4, 139440, Note_off_c, 4, 57, 95
4, 139440, Note_on_c, 4, 57, 95
4, 139680, Note_off_c, 4, 57, 95
4, 139680, Note_on_c, 4, 57, 95
4, 139680, Note_on_c, 4, 65, 95
4, 139920, Note_off_c, 4, 57, 95
4, 139920, Note_on_c, 4, 57, 95
4, 140160, Note_off_c, 4, 57, 95
4, 140160, Note_on_c, 4, 57, 95
4, 140160, Note_off_c, 4, 65, 95
4, 140400, Note_off_c, 4, 57, 95
4, 140400, Note_on_c, 4, 57, 95
4, 140639, Note_off_c, 4, 57, 95
4, 140640, Note_on_c, 4, 67, 95
4, 141120, Note_off_c, 4, 67, 95
4, 141600, Note_on_c, 4, 69, 95
4, 142080, Note_off_c, 4, 69, 95
4, 142560, Note_on_c, 4, 67, 95
4, 143040, Note_off_c, 4, 67, 95
4, 143520, Note_on_c, 4, 69, 95
4, 144000, Note_off_c, 4, 69, 95
4, 144480, Note_on_c, 4, 71, 95
4, 144960, Note_off_c, 4, 71, 95
4, 145440, Note_on_c, 4, 72, 95
4, 145920, Note_off_c, 4, 72, 95
4, 146400, Note_on_c, 4, 71, 95
4, 146880, Note_off_c, 4, 71, 95
4, 146880, Note_on_c, 4, 69, 95
4, 147360, Note_off_c, 4, 69, 95
4, 147360, Note_on_c, 4, 65, 95
4, 147600, Note_off_c, 4, 65, 95
4, 147600, Note_on_c, 4, 65, 95
4, 147840, Note_off_c, 4, 65, 95
4, 147840, Note_on_c, 4, 65, 95
4, 148080, Note_off_c, 4, 65, 95
4, 148080, Note_on_c, 4, 65, 95
4, 148320, Note_off_c, 4, 65, 95
4, 148320, Note_on_c, 4, 65, 95
4, 148560, Note_off_c, 4, 65, 95
4, 148560, Note_on_c, 4, 65, 95
4, 148800, Note_off_c, 4, 65, 95
4, 148800, Note_on_c, 4, 65, 95
4, 149040, Note_off_c, 4, 65, 95
4, 149040, Note_on_c, 4, 65, 95
4, 149280, Note_off_c, 4, 65, 95
4, 149280, Note_on_c, 4, 65, 95
4, 149520, Note_off_c, 4, 65, 95
4, 149520, Note_on_c, 4, 65, 95
4, 149759, Note_off_c, 4, 65, 95
4, 149760, Note_on_c, 4, 65, 95
4, 152640, Note_off_c, 4, 65, 95
4, 153600, Note_on_c, 4, 71, 95
4, 154240, Note_off_c, 4, 71, 95
4, 154240, Note_on_c, 4, 69, 95
4, 154880, Note_off_c, 4, 69, 95
4, 154880, Note_on_c, 4, 67, 95
4, 155520, Note_off_c, 4, 67, 95
4, 155520, Note_on_c, 4, 65, 95
4, 155760, Note_off_c, 4, 65, 95
4, 155760, Note_on_c, 4, 65, 95
4, 156000, Note_off_c, 4, 65, 95
4, 156000, Note_on_c, 4, 65, 95
4, 156240, Note_off_c, 4, 65, 95
4, 156240, Note_on_c, 4, 65, 95
4, 156480, Note_off_c, 4, 65, 95
4, 156480, Note_on_c, 4, 65, 95
4, 156720, Note_off_c, 4, 65, 95
4, 156720, Note_on_c, 4, 65, 95
4, 156960, Note_off_c, 4, 65, 95
4, 156960, Note_on_c, 4, 65, 95
4, 157200, Note_off_c, 4, 65, 95
4, 157200, Note_on_c, 4, 65, 95
4, 157439, Note_off_c, 4, 65, 95
4, 636000, Note_on_c, 4, 62, 95
4, 636480, Note_off_c, 4, 62, 95
4, 636480, Note_on_c, 4, 64, 95
4, 637440, Note_off_c, 4, 64, 95
4, 637440, Pitch_bend_c, 5, 8192
4, 637440, Note_on_c, 5, 64, 95
4, 637824, Pitch_bend_c, 5, 8320
4, 638208, Pitch_bend_c, 5, 8448
4, 638592, Pitch_bend_c, 5, 8576
4, 638976, Pitch_bend_c, 5, 8704
4, 639360, Pitch_bend_c, 5, 8832
4, 639360, Pitch_bend_c, 5, 8832
4, 641280, Pitch_bend_c, 5, 8832
4, 641280, Pitch_bend_c, 5, 8192
4, 641280, Note_off_c, 5, 64, 95
4, 641280, Pitch_bend_c, 5, 8192
4, 641280, Note_on_c, 5, 64, 95
4, 641344, Pitch_bend_c, 5, 8320
4, 641408, Pitch_bend_c, 5, 8448
4, 641472, Pitch_bend_c, 5, 8576
4, 641536, Pitch_bend_c, 5, 8704
4, 641600, Pitch_bend_c, 5, 8832
4, 641600, Pitch_bend_c, 5, 8832
4, 641920, Pitch_bend_c, 5, 8832
4, 641984, Pitch_bend_c, 5, 8704
4, 642048, Pitch_bend_c, 5, 8576
4, 642112, Pitch_bend_c, 5, 8448
4, 642176, Pitch_bend_c, 5, 8320
4, 642240, Pitch_bend_c, 5, 8192
4, 642240, Pitch_bend_c, 5, 8192
4, 642560, Pitch_bend_c, 5, 8192
4, 642560, Pitch_bend_c, 5, 8192
4, 642560, Note_off_c, 5, 64, 95
4, 642560, Note_on_c, 4, 62, 95
4, 643200, Note_off_c, 4, 62, 95
4, 643200, Note_on_c, 4, 64, 95
4, 643840, Note_off_c, 4, 64, 95
4, 643840, Note_on_c, 4, 62, 70
4, 644480, Note_off_c, 4, 62, 70
4, 644480, Note_on_c, 4, 60, 95
4, 645120, Note_off_c, 4, 60, 95
4, 645120, Note_on_c, 5, 64, 95
4, 645240, Pitch_bend_c, 5, 7936
4, 645360, Pitch_bend_c, 5, 7552
4, 645480, Pitch_bend_c, 5, 7168
4, 645600, Pitch_bend_c, 5, 6784
4, 645600, Pitch_bend_c, 5, 8192
4, 645600, Note_off_c, 5, 64, 95
4, 645600, Note_on_c, 4, 62, 95
4, 647520, Note_off_c, 4, 62, 95
4, 647520, Pitch_bend_c, 5, 8192
4, 647520, Note_on_c, 5, 57, 95
4, 647592, Pitch_bend_c, 5, 8320
4, 647664, Pitch_bend_c, 5, 8448
4, 647736, Pitch_bend_c, 5, 8576
4, 647808, Pitch_bend_c, 5, 8704
4, 647880, Pitch_bend_c, 5, 8832
4, 647880, Pitch_bend_c, 5, 8832
4, 648000, Pitch_bend_c, 5, 8832
4, 648000, Pitch_bend_c, 5, 8192
4, 648000, Note_off_c, 5, 57, 95
4, 648000, Pitch_bend_c, 5, 8192
4, 648000, Note_on_c, 5, 57, 95
4, 648072, Pitch_bend_c, 5, 8064
4, 648144, Pitch_bend_c, 5, 7936
4, 648216, Pitch_bend_c, 5, 7808
4, 648288, Pitch_bend_c, 5, 7680
4, 648360, Pitch_bend_c, 5, 7552
4, 648360, Pitch_bend_c, 5, 7552
4, 648480, Pitch_bend_c, 5, 7552
4, 648480, Pitch_bend_c, 5, 8192
4, 648480, Note_off_c, 5, 57, 95
4, 648480, Pitch_bend_c, 5, 8192
4, 648480, Note_on_c, 5, 57, 95
4, 648552, Pitch_bend_c, 5, 8320
4, 648624, Pitch_bend_c, 5, 8448
4, 648696, Pitch_bend_c, 5, 8576
4, 648768, Pitch_bend_c, 5, 8704
4, 648840, Pitch_bend_c, 5, 8832
4, 648840, Pitch_bend_c, 5, 8832
4, 648960, Pitch_bend_c, 5, 8832
4, 648960, Pitch_bend_c, 5, 8192
4, 648960, Note_off_c, 5, 57, 95
4, 648960, Pitch_bend_c, 5, 8192
4, 648960, Note_on_c, 5, 57, 95
4, 649032, Pitch_bend_c, 5, 8064
4, 649104, Pitch_bend_c, 5, 7936
4, 649176, Pitch_bend_c, 5, 7808
4, 649248, Pitch_bend_c, 5, 7680
4, 649320, Pitch_bend_c, 5, 7552
4, 649320, Pitch_bend_c, 5, 7552
4, 649440, Pitch_bend_c, 5, 7552
4, 649440, Pitch_bend_c, 5, 8192
4, 649440, Note_off_c, 5, 57, 95
4, 649440, Pitch_bend_c, 5, 8192
4, 649440, Note_on_c, 5, 57, 95
4, 649512, Pitch_bend_c, 5, 8320
4, 649584, Pitch_bend_c, 5, 8448
4, 649656, Pitch_bend_c, 5, 8576
4, 649728, Pitch_bend_c, 5, 8704
4, 649800, Pitch_bend_c, 5, 8832
4, 649800, Pitch_bend_c, 5, 8832
4, 649920, Pitch_bend_c, 5, 8832
4, 649920, Pitch_bend_c, 5, 8192
4, 649920, Note_off_c, 5, 57, 95
4, 649920, Pitch_bend_c, 5, 8192
4, 649920, Note_on_c, 5, 57, 95
4, 649992, Pitch_bend_c, 5, 8064
4, 650064, Pitch_bend_c, 5, 7936
4, 650136, Pitch_bend_c, 5, 7808
4, 650208, Pitch_bend_c, 5, 7680
4, 650280, Pitch_bend_c, 5, 7552
4, 650280, Pitch_bend_c, 5, 7552
4, 650400, Pitch_bend_c, 5, 7552
4, 650400, Pitch_bend_c, 5, 8192
4, 650400, Note_off_c, 5, 57, 95
4, 650400, Pitch_bend_c, 5, 8192
4, 650400, Note_on_c, 5, 57, 95
4, 650472, Pitch_bend_c, 5, 8064
4, 650544, Pitch_bend_c, 5, 7936
4, 650616, Pitch_bend_c, 5, 7808
4, 650688, Pitch_bend_c, 5, 7680
4, 650760, Pitch_bend_c, 5, 7552
4, 650760, Pitch_bend_c, 5, 7552
4, 650880, Pitch_bend_c, 5, 7552
4, 650880, Pitch_bend_c, 5, 8192
4, 650880, Note_off_c, 5, 57, 95
4, 650880, Pitch_bend_c, 5, 8192
4, 650880, Note_on_c, 5, 57, 95
4, 650952, Pitch_bend_c, 5, 8320
4, 651024, Pitch_bend_c, 5, 8448
4, 651096, Pitch_bend_c, 5, 8576
4, 651168, Pitch_bend_c, 5, 8704
4, 651240, Pitch_bend_c, 5, 8832
4, 651240, Pitch_bend_c, 5, 8832
4, 651360, Pitch_bend_c, 5, 8832
4, 651360, Pitch_bend_c, 5, 8192
4, 651360, Note_off_c, 5, 57, 95
4, 651360, Note_on_c, 4, 62, 95
4, 651840, Note_off_c, 4, 62, 95
4, 651840, Note_on_c, 4, 64, 95
4, 652800, Note_off_c, 4, 64, 95
4, 652800, Pitch_bend_c, 5, 8192
4, 652800, Note_on_c, 5, 64, 95
4, 653184, Pitch_bend_c, 5, 8320
4, 653568, Pitch_bend_c, 5, 8448
4, 653952, Pitch_bend_c, 5, 8576
4, 654336, Pitch_bend_c, 5, 8704
4, 654720, Pitch_bend_c, 5, 8832
4, 654720, Pitch_bend_c, 5, 8832
4, 656640, Pitch_bend_c, 5, 8832
4, 656640, Pitch_bend_c, 5, 8192
4, 656640, Note_off_c, 5, 64, 95
4, 656640, Pitch_bend_c, 5, 8192
4, 656640, Note_on_c, 5, 64, 95
4, 656704, Pitch_bend_c, 5, 8320
4, 656768, Pitch_bend_c, 5, 8448
4, 656832, Pitch_bend_c, 5, 8576
4, 656896, Pitch_bend_c, 5, 8704
4, 656960, Pitch_bend_c, 5, 8832
4, 656960, Pitch_bend_c, 5, 8832
4, 657280, Pitch_bend_c, 5, 8832
4, 657344, Pitch_bend_c, 5, 8704
4, 657408, Pitch_bend_c, 5, 8576
4, 657472, Pitch_bend_c, 5, 8448
4, 657536, Pitch_bend_c, 5, 8320
4, 657600, Pitch_bend_c, 5, 8192
4, 657600, Pitch_bend_c, 5, 8192
4, 657920, Pitch_bend_c, 5, 8192
4, 657920, Pitch_bend_c, 5, 8192
4, 657920, Note_off_c, 5, 64, 95
4, 657920, Note_on_c, 4, 62, 95
4, 658560, Note_off_c, 4, 62, 95
4, 658560, Note_on_c, 4, 64, 95
4, 659200, Note_off_c, 4, 64, 95
4, 659200, Note_on_c, 4, 62, 70
4, 659840, Note_off_c, 4, 62, 70
4, 659840, Note_on_c, 4, 60, 95
4, 660480, Note_off_c, 4, 60, 95
4, 660480, Note_on_c, 5, 64, 95
4, 660600, Pitch_bend_c, 5, 7936
4, 660720, Pitch_bend_c, 5, 7552
4, 660840, Pitch_bend_c, 5, 7168
4, 660960, Pitch_bend_c, 5, 6784
4, 660960, Pitch_bend_c, 5, 8192
4, 660960, Note_off_c, 5, 64, 95
4, 660960, Note_on_c, 4, 62, 95
4, 662880, Note_off_c, 4, 62, 95
4, 662880, Pitch_bend_c, 5, 8192
4, 662880, Note_on_c, 5, 57, 95
4, 662952, Pitch_bend_c, 5, 8320
4, 663024, Pitch_bend_c, 5, 8448
4, 663096, Pitch_bend_c, 5, 8576
4, 663168, Pitch_bend_c, 5, 8704
4, 663240, Pitch_bend_c, 5, 8832
4, 663240, Pitch_bend_c, 5, 8832
4, 663360, Pitch_bend_c, 5, 8832
4, 663360, Pitch_bend_c, 5, 8192
4, 663360, Note_off_c, 5, 57, 95
4, 663360, Pitch_bend_c, 5, 8192
4, 663360, Note_on_c, 5, 57, 95
4, 663432, Pitch_bend_c, 5, 8064
4, 663504, Pitch_bend_c, 5, 7936
4, 663576, Pitch_bend_c, 5, 7808
4, 663648, Pitch_bend_c, 5, 7680
4, 663720, Pitch_bend_c, 5, 7552
4, 663720, Pitch_bend_c, 5, 7552
4, 663840, Pitch_bend_c, 5, 7552
4, 663840, Pitch_bend_c, 5, 8192
4, 663840, Note_off_c, 5, 57, 95
4, 663840, Pitch_bend_c, 5, 8192
4, 663840, Note_on_c, 5, 57, 95
4, 663912, Pitch_bend_c, 5, 8320
4, 663984, Pitch_bend_c, 5, 8448
4, 664056, Pitch_bend_c, 5, 8576
4, 664128, Pitch_bend_c, 5, 8704
4, 664200, Pitch_bend_c, 5, 8832
4, 664200, Pitch_bend_c, 5, 8832
4, 664320, Pitch_bend_c, 5, 8832
4, 664320, Pitch_bend_c, 5, 8192
4, 664320, Note_off_c, 5, 57, 95
4, 664320, Pitch_bend_c, 5, 8192
4, 664320, Note_on_c, 5, 57, 95
4, 664392, Pitch_bend_c, 5, 8064
4, 664464, Pitch_bend_c, 5, 7936
4, 664536, Pitch_bend_c, 5, 7808
4, 664608, Pitch_bend_c, 5, 7680
4, 664680, Pitch_bend_c, 5, 7552
4, 664680, Pitch_bend_c, 5, 7552
4, 664800, Pitch_bend_c, 5, 7552
4, 664800, Pitch_bend_c, 5, 8192
4, 664800, Note_off_c, 5, 57, 95
4, 664800, Pitch_bend_c, 5, 8192
4, 664800, Note_on_c, 5, 57, 95
4, 664872, Pitch_bend_c, 5, 8320
4, 664944, Pitch_bend_c, 5, 8448
4, 665016, Pitch_bend_c, 5, 8576
4, 665088, Pitch_bend_c, 5, 8704
4, 665160, Pitch_bend_c, 5, 8832
4, 665160, Pitch_bend_c, 5, 8832
4, 665280, Pitch_bend_c, 5, 8832
4, 665280, Pitch_bend_c, 5, 8192
4, 665280, Note_off_c, 5, 57, 95
4, 665280, Pitch_bend_c, 5, 8192
4, 665280, Note_on_c, 5, 57, 95
4, 665352, Pitch_bend_c, 5, 8064
4, 665424, Pitch_bend_c, 5, 7936
4, 665496, Pitch_bend_c, 5, 7808
4, 665568, Pitch_bend_c, 5, 7680
4, 665640, Pitch_bend_c, 5, 7552
4, 665640, Pitch_bend_c, 5, 7552
4, 665760, Pitch_bend_c, 5, 7552
4, 665760, Pitch_bend_c, 5, 8192
4, 665760, Note_off_c, 5, 57, 95
4, 665760, Pitch_bend_c, 5, 8192
4, 665760, Note_on_c, 5, 57, 95
4, 665832, Pitch_bend_c, 5, 8064
4, 665904, Pitch_bend_c, 5, 7936
4, 665976, Pitch_bend_c, 5, 7808
4, 666048, Pitch_bend_c, 5, 7680
4, 666120, Pitch_bend_c, 5, 7552
4, 666120, Pitch_bend_c, 5, 7552
4, 666240, Pitch_bend_c, 5, 7552
4, 666240, Pitch_bend_c, 5, 8192
4, 666240, Note_off_c, 5, 57, 95
4, 666240, Pitch_bend_c, 5, 8192
4, 666240, Note_on_c, 5, 57, 95
4, 666312, Pitch_bend_c, 5, 8320
4, 666384, Pitch_bend_c, 5, 8448
4, 666456, Pitch_bend_c, 5, 8576
4, 666528, Pitch_bend_c, 5, 8704
4, 666600, Pitch_bend_c, 5, 8832
4, 666600, Pitch_bend_c, 5, 8832
4, 666720, Pitch_bend_c, 5, 8832
4, 666720, Pitch_bend_c, 5, 8192
4, 666720, Note_off_c, 5, 57, 95
4, 666720, Note_on_c, 4, 62, 95
4, 667200, Note_off_c, 4, 62, 95
4, 667200, Note_on_c, 4, 64, 95
4, 668160, Note_off_c, 4, 64, 95
4, 668160, Pitch_bend_c, 5, 8192
4, 668160, Note_on_c, 5, 64, 95
4, 668544, Pitch_bend_c, 5, 8320
4, 668928, Pitch_bend_c, 5, 8448
4, 669312, Pitch_bend_c, 5, 8576
4, 669696, Pitch_bend_c, 5, 8704
4, 670080, Pitch_bend_c, 5, 8832
4, 670080, Pitch_bend_c, 5, 8832
4, 672000, Pitch_bend_c, 5, 8832
4, 672000, Pitch_bend_c, 5, 8192
4, 672000, Note_off_c, 5, 64, 95
4, 672000, Pitch_bend_c, 5, 8192
4, 672000, Note_on_c, 5, 64, 95
4, 672064, Pitch_bend_c, 5, 8320
4, 672128, Pitch_bend_c, 5, 8448
4, 672192, Pitch_bend_c, 5, 8576
4, 672256, Pitch_bend_c, 5, 8704
4, 672320, Pitch_bend_c, 5, 8832
4, 672320, Pitch_bend_c, 5, 8832
4, 672640, Pitch_bend_c, 5, 8832
4, 672704, Pitch_bend_c, 5, 8704
4, 672768, Pitch_bend_c, 5, 8576
4, 672832, Pitch_bend_c, 5, 8448
4, 672896, Pitch_bend_c, 5, 8320
4, 672960, Pitch_bend_c, 5, 8192
4, 672960, Pitch_bend_c, 5, 8192
4, 673280, Pitch_bend_c, 5, 8192
4, 673280, Pitch_bend_c, 5, 8192
4, 673280, Note_off_c, 5, 64, 95
4, 673280, Note_on_c, 4, 62, 95
4, 673920, Note_off_c, 4, 62, 95
4, 673920, Note_on_c, 4, 64, 95
4, 674560, Note_off_c, 4, 64, 95
4, 674560, Note_on_c, 4, 62, 70
4, 675200, Note_off_c, 4, 62, 70
4, 675200, Note_on_c, 4, 60, 95
4, 675840, Note_off_c, 4, 60, 95
4, 675840, Note_on_c, 4, 59, 95
4, 676160, Note_off_c, 4, 59, 95
4, 676160, Note_on_c, 4, 60, 70
4, 676480, Note_off_c, 4, 60, 70
4, 676480, Note_on_c, 4, 59, 70
4, 676800, Note_off_c, 4, 59, 70
4, 676800, Note_on_c, 4, 57, 70
4, 678240, Note_off_c, 4, 57, 70
4, 678240, Pitch_bend_c, 5, 8192
4, 678240, Note_on_c, 5, 57, 95
4, 678312, Pitch_bend_c, 5, 8320
4, 678384, Pitch_bend_c, 5, 8448
4, 678456, Pitch_bend_c, 5, 8576
4, 678528, Pitch_bend_c, 5, 8704
4, 678600, Pitch_bend_c, 5, 8832
4, 678600, Pitch_bend_c, 5, 8832
4, 678720, Pitch_bend_c, 5, 8832
4, 678720, Pitch_bend_c, 5, 8192
4, 678720, Note_off_c, 5, 57, 95
4, 678720, Pitch_bend_c, 5, 8192
4, 678720, Note_on_c, 5, 57, 95
4, 678792, Pitch_bend_c, 5, 8064
4, 678864, Pitch_bend_c, 5, 7936
4, 678936, Pitch_bend_c, 5, 7808
4, 679008, Pitch_bend_c, 5, 7680
4, 679080, Pitch_bend_c, 5, 7552
4, 679080, Pitch_bend_c, 5, 7552
4, 679200, Pitch_bend_c, 5, 7552
4, 679200, Pitch_bend_c, 5, 8192
4, 679200, Note_off_c, 5, 57, 95
4, 679200, Pitch_bend_c, 5, 8192
4, 679200, Note_on_c, 5, 57, 95
4, 679272, Pitch_bend_c, 5, 8320
4, 679344, Pitch_bend_c, 5, 8448
4, 679416, Pitch_bend_c, 5, 8576
4, 679488, Pitch_bend_c, 5, 8704
4, 679560, Pitch_bend_c, 5, 8832
4, 679560, Pitch_bend_c, 5, 8832
4, 679680, Pitch_bend_c, 5, 8832
4, 679680, Pitch_bend_c, 5, 8192
4, 679680, Note_off_c, 5, 57, 95
4, 679680, Pitch_bend_c, 5, 8192
4, 679680, Note_on_c, 5, 57, 95
4, 679752, Pitch_bend_c, 5, 8064
4, 679824, Pitch_bend_c, 5, 7936
4, 679896, Pitch_bend_c, 5, 7808
4, 679968, Pitch_bend_c, 5, 7680
4, 680040, Pitch_bend_c, 5, 7552
4, 680040, Pitch_bend_c, 5, 7552
4, 680160, Pitch_bend_c, 5, 7552
4, 680160, Pitch_bend_c, 5, 8192
4, 680160, Note_off_c, 5, 57, 95
4, 680160, Pitch_bend_c, 5, 8192
4, 680160, Note_on_c, 5, 57, 95
4, 680232, Pitch_bend_c, 5, 8320
4, 680304, Pitch_bend_c, 5, 8448
4, 680376, Pitch_bend_c, 5, 8576
4, 680448, Pitch_bend_c, 5, 8704
4, 680520, Pitch_bend_c, 5, 8832
4, 680520, Pitch_bend_c, 5, 8832
4, 680640, Pitch_bend_c, 5, 8832
4, 680640, Pitch_bend_c, 5, 8192
4, 680640, Note_off_c, 5, 57, 95
4, 680640, Pitch_bend_c, 5, 8192
4, 680640, Note_on_c, 5, 57, 95
4, 680712, Pitch_bend_c, 5, 8064
4, 680784, Pitch_bend_c, 5, 7936
4, 680856, Pitch_bend_c, 5, 7808
4, 680928, Pitch_bend_c, 5, 7680
4, 681000, Pitch_bend_c, 5, 7552
4, 681000, Pitch_bend_c, 5, 7552
4, 681120, Pitch_bend_c, 5, 7552
4, 681120, Pitch_bend_c, 5, 8192
4, 681120, Note_off_c, 5, 57, 95
4, 681120, Pitch_bend_c, 5, 8192
4, 681120, Note_on_c, 5, 57, 95
4, 681192, Pitch_bend_c, 5, 8320
4, 681264, Pitch_bend_c, 5, 8448
4, 681336, Pitch_bend_c, 5, 8576
4, 681408, Pitch_bend_c, 5, 8704
4, 681480, Pitch_bend_c, 5, 8832
4, 681480, Pitch_bend_c, 5, 8832
4, 681600, Pitch_bend_c, 5, 8832
4, 681600, Pitch_bend_c, 5, 8192
4, 681600, Note_off_c, 5, 57, 95
4, 681600, Note_on_c, 4, 57, 95
4, 682080, Note_off_c, 4, 57, 95
4, 682080, Note_on_c, 4, 62, 95
4, 682560, Note_off_c, 4, 62, 95
4, 682560, Note_on_c, 4, 64, 95
4, 683520, Note_off_c, 4, 64, 95
4, 683520, Pitch_bend_c, 5, 8192
4, 683520, Note_on_c, 5, 64, 95
4, 683904, Pitch_bend_c, 5, 8320
4, 684288, Pitch_bend_c, 5, 8448
4, 684672, Pitch_bend_c, 5, 8576
4, 685056, Pitch_bend_c, 5, 8704
4, 685440, Pitch_bend_c, 5, 8832
4, 685440, Pitch_bend_c, 5, 8832
4, 687360, Pitch_bend_c, 5, 8832
4, 687360, Pitch_bend_c, 5, 8192
4, 687360, Note_off_c, 5, 64, 95
4, 687360, Pitch_bend_c, 5, 8192
4, 687360, Note_on_c, 5, 64, 95
4, 687424, Pitch_bend_c, 5, 8320
4, 687488, Pitch_bend_c, 5, 8448
4, 687552, Pitch_bend_c, 5, 8576
4, 687616, Pitch_bend_c, 5, 8704
4, 687680, Pitch_bend_c, 5, 8832
4, 687680, Pitch_bend_c, 5, 8832
4, 688000, Pitch_bend_c, 5, 8832
4, 688064, Pitch_bend_c, 5, 8704
4, 688128, Pitch_bend_c, 5, 8576
4, 688192, Pitch_bend_c, 5, 8448
4, 688256, Pitch_bend_c, 5, 8320
4, 688320, Pitch_bend_c, 5, 8192
4, 688320, Pitch_bend_c, 5, 8192
4, 688640, Pitch_bend_c, 5, 8192
4, 688640, Pitch_bend_c, 5, 8192
4, 688640, Note_off_c, 5, 64, 95
4, 688640, Note_on_c, 4, 62, 95
4, 689280, Note_off_c, 4, 62, 95
4, 689280, Note_on_c, 4, 64, 95
4, 689920, Note_off_c, 4, 64, 95
4, 689920, Note_on_c, 4, 62, 70
4, 690560, Note_off_c, 4, 62, 70
4, 690560, Note_on_c, 4, 60, 95
4, 691200, Note_off_c, 4, 60, 95
4, 691200, Note_on_c, 4, 59, 95
4, 691520, Note_off_c, 4, 59, 95
4, 691520, Note_on_c, 4, 60, 70
4, 691840, Note_off_c, 4, 60, 70
4, 691840, Note_on_c, 4, 59, 70
4, 692160, Note_off_c, 4, 59, 70
4, 692160, Note_on_c, 4, 57, 70
4, 693600, Note_off_c, 4, 57, 70
4, 693600, Pitch_bend_c, 5, 8192
4, 693600, Note_on_c, 5, 57, 95
4, 693672, Pitch_bend_c, 5, 8320
4, 693744, Pitch_bend_c, 5, 8448
4, 693816, Pitch_bend_c, 5, 8576
4, 693888, Pitch_bend_c, 5, 8704
4, 693960, Pitch_bend_c, 5, 8832
4, 693960, Pitch_bend_c, 5, 8832
4, 694080, Pitch_bend_c, 5, 8832
4, 694080, Pitch_bend_c, 5, 8192
4, 694080, Note_off_c, 5, 57, 95
4, 694080, Pitch_bend_c, 5, 8192
4, 694080, Note_on_c, 5, 57, 95
4, 694152, Pitch_bend_c, 5, 8064
4, 694224, Pitch_bend_c, 5, 7936
4, 694296, Pitch_bend_c, 5, 7808
4, 694368, Pitch_bend_c, 5, 7680
4, 694440, Pitch_bend_c, 5, 7552
4, 694440, Pitch_bend_c, 5, 7552
4, 694560, Pitch_bend_c, 5, 7552
4, 694560, Pitch_bend_c, 5, 8192
4, 694560, Note_off_c, 5, 57, 95
4, 694560, Pitch_bend_c, 5, 8192
4, 694560, Note_on_c, 5, 57, 95
4, 694632, Pitch_bend_c, 5, 8320
4, 694704, Pitch_bend_c, 5, 8448
4, 694776, Pitch_bend_c, 5, 8576
4, 694848, Pitch_bend_c, 5, 8704
4, 694920, Pitch_bend_c, 5, 8832
4, 694920, Pitch_bend_c, 5, 8832
4, 695040, Pitch_bend_c, 5, 8832
4, 695040, Pitch_bend_c, 5, 8192
4, 695040, Note_off_c, 5, 57, 95
4, 695040, Pitch_bend_c, 5, 8192
4, 695040, Note_on_c, 5, 57, 95
4, 695112, Pitch_bend_c, 5, 8064
4, 695184, Pitch_bend_c, 5, 7936
4, 695256, Pitch_bend_c, 5, 7808
4, 695328, Pitch_bend_c, 5, 7680
4, 695400, Pitch_bend_c, 5, 7552
4, 695400, Pitch_bend_c, 5, 7552
4, 695520, Pitch_bend_c, 5, 7552
4, 695520, Pitch_bend_c, 5, 8192
4, 695520, Note_off_c, 5, 57, 95
4, 695520, Pitch_bend_c, 5, 8192
4, 695520, Note_on_c, 5, 57, 95
4, 695592, Pitch_bend_c, 5, 8320
4, 695664, Pitch_bend_c, 5, 8448
4, 695736, Pitch_bend_c, 5, 8576
4, 695808, Pitch_bend_c, 5, 8704
4, 695880, Pitch_bend_c, 5, 8832
4, 695880, Pitch_bend_c, 5, 8832
4, 696000, Pitch_bend_c, 5, 8832
4, 696000, Pitch_bend_c, 5, 8192
4, 696000, Note_off_c, 5, 57, 95
4, 696000, Pitch_bend_c, 5, 8192
4, 696000, Note_on_c, 5, 57, 95
4, 696072, Pitch_bend_c, 5, 8064
4, 696144, Pitch_bend_c, 5, 7936
4, 696216, Pitch_bend_c, 5, 7808
4, 696288, Pitch_bend_c, 5, 7680
4, 696360, Pitch_bend_c, 5, 7552
4, 696360, Pitch_bend_c, 5, 7552
4, 696480, Pitch_bend_c, 5, 7552
4, 696480, Pitch_bend_c, 5, 8192
4, 696480, Note_off_c, 5, 57, 95
4, 696480, Pitch_bend_c, 5, 8192
4, 696480, Note_on_c, 5, 57, 95
4, 696552, Pitch_bend_c, 5, 8320
4, 696624, Pitch_bend_c, 5, 8448
4, 696696, Pitch_bend_c, 5, 8576
4, 696768, Pitch_bend_c, 5, 8704
4, 696840, Pitch_bend_c, 5, 8832
4, 696840, Pitch_bend_c, 5, 8832
4, 696960, Pitch_bend_c, 5, 8832
4, 696960, Pitch_bend_c, 5, 8192
4, 696960, Note_off_c, 5, 57, 95
4, 696960, Note_on_c, 4, 57, 95
4, 697440, Note_off_c, 4, 57, 95
4, 697440, Note_on_c, 4, 62, 95
4, 697920, Note_off_c, 4, 62, 95
4, 697920, Note_on_c, 4, 64, 95
4, 698400, Note_off_c, 4, 64, 95
4, 698400, Note_on_c, 4, 65, 95
4, 698880, Note_off_c, 4, 65, 95
4, 699360, Note_on_c, 4, 64, 95
4, 699840, Note_off_c, 4, 64, 95
4, 700320, Note_on_c, 4, 65, 95
4, 700800, Note_off_c, 4, 65, 95
4, 701280, Note_on_c, 4, 67, 95
4, 701760, Note_off_c, 4, 67, 95
4, 702240, Note_on_c, 4, 69, 95
4, 702720, Note_off_c, 4, 69, 95
4, 703200, Note_on_c, 4, 67, 95
4, 703680, Note_off_c, 4, 67, 95
4, 704160, Note_on_c, 4, 69, 95
4, 704640, Note_off_c, 4, 69, 95
4, 705120, Note_on_c, 4, 71, 95
4, 705600, Note_off_c, 4, 71, 95
4, 706080, Note_on_c, 4, 72, 95
4, 706560, Note_off_c, 4, 72, 95
4, 707040, Note_on_c, 4, 71, 95
4, 707520, Note_off_c, 4, 71, 95
4, 707520, Note_on_c, 4, 69, 95
4, 708000, Note_off_c, 4, 69, 95
4, 708000, Note_on_c, 4, 65, 95
4, 713280, Note_off_c, 4, 65, 95
4, 714240, Note_on_c, 4, 71, 95
4, 714880, Note_off_c, 4, 71, 95
4, 714880, Note_on_c, 4, 69, 95
4, 715520, Note_off_c, 4, 69, 95
4, 715520, Note_on_c, 4, 67, 95
4, 716160, Note_off_c, 4, 67, 95
4, 716160, Note_on_c, 4, 65, 95
4, 716400, Note_off_c, 4, 65, 95
4, 716400, Note_on_c, 4, 65, 95
4, 716640, Note_off_c, 4, 65, 95
4, 716640, Note_on_c, 4, 65, 95
4, 716880, Note_off_c, 4, 65, 95
4, 716880, Note_on_c, 4, 65, 95
4, 717120, Note_off_c, 4, 65, 95
4, 717120, Note_on_c, 4, 65, 95
4, 717360, Note_off_c, 4, 65, 95
4, 717360, Note_on_c, 4, 65, 95
4, 717600, Note_off_c, 4, 65, 95
4, 717600, Note_on_c, 4, 65, 95
4, 717840, Note_off_c, 4, 65, 95
4, 717840, Note_on_c, 4, 65, 95
4, 718079, Note_off_c, 4, 65, 95
4, 718079, End_track
5, 0, Start_track
5, 0, Pitch_bend_c, 6, 8192
5, 0, Control_c, 6, 7, 103
5, 0, Control_c, 6, 10, 63
5, 0, Control_c, 6, 93, 0
5, 0, Control_c, 6, 91, 0
5, 0, Control_c, 6, 95, 0
5, 0, Control_c, 6, 92, 0
5, 0, Control_c, 6, 11, 127
5, 0, Program_c, 6, 30
5, 0, Control_c, 7, 7, 103
5, 0, Control_c, 7, 10, 63
5, 0, Control_c, 7, 93, 0
5, 0, Control_c, 7, 91, 0
5, 0, Control_c, 7, 95, 0
5, 0, Control_c, 7, 92, 0
5, 0, Control_c, 7, 11, 127
5, 0, Program_c, 7, 30
5, 106080, Note_on_c, 6, 65, 95
5, 106560, Note_off_c, 6, 65, 95
5, 106560, Note_on_c, 6, 67, 95
5, 107520, Note_off_c, 6, 67, 95
5, 107520, Pitch_bend_c, 7, 8192
5, 107520, Note_on_c, 7, 67, 95
5, 107694, Pitch_bend_c, 7, 8320
5, 107868, Pitch_bend_c, 7, 8448
5, 108042, Pitch_bend_c, 7, 8576
5, 108216, Pitch_bend_c, 7, 8704
5, 108390, Pitch_bend_c, 7, 8832
5, 108564, Pitch_bend_c, 7, 8960
5, 108738, Pitch_bend_c, 7, 9088
5, 108912, Pitch_bend_c, 7, 9216
5, 109086, Pitch_bend_c, 7, 9344
5, 109260, Pitch_bend_c, 7, 9472
5, 109434, Pitch_bend_c, 7, 9600
5, 109440, Pitch_bend_c, 7, 9600
5, 111360, Pitch_bend_c, 7, 9600
5, 111360, Pitch_bend_c, 7, 8192
5, 111360, Note_off_c, 7, 67, 95
5, 111360, Pitch_bend_c, 7, 8192
5, 111360, Note_on_c, 7, 67, 95
5, 111389, Pitch_bend_c, 7, 8320
5, 111418, Pitch_bend_c, 7, 8448
5, 111447, Pitch_bend_c, 7, 8576
5, 111476, Pitch_bend_c, 7, 8704
5, 111505, Pitch_bend_c, 7, 8832
5, 111534, Pitch_bend_c, 7, 8960
5, 111563, Pitch_bend_c, 7, 9088
5, 111592, Pitch_bend_c, 7, 9216
5, 111621, Pitch_bend_c, 7, 9344
5, 111650, Pitch_bend_c, 7, 9472
5, 111679, Pitch_bend_c, 7, 9600
5, 111680, Pitch_bend_c, 7, 9600
5, 112000, Pitch_bend_c, 7, 9600
5, 112000, Pitch_bend_c, 7, 8192
5, 112000, Note_off_c, 7, 67, 95
5, 112000, Pitch_bend_c, 7, 9600
5, 112000, Note_on_c, 7, 67, 95
5, 112213, Pitch_bend_c, 7, 9600
5, 112232, Pitch_bend_c, 7, 9472
5, 112251, Pitch_bend_c, 7, 9344
5, 112270, Pitch_bend_c, 7, 9216
5, 112289, Pitch_bend_c, 7, 9088
5, 112308, Pitch_bend_c, 7, 8960
5, 112327, Pitch_bend_c, 7, 8832
5, 112346, Pitch_bend_c, 7, 8704
5, 112365, Pitch_bend_c, 7, 8576
5, 112384, Pitch_bend_c, 7, 8448
5, 112403, Pitch_bend_c, 7, 8320
5, 112422, Pitch_bend_c, 7, 8192
5, 112426, Pitch_bend_c, 7, 8192
5, 112640, Pitch_bend_c, 7, 8192
5, 112640, Pitch_bend_c, 7, 8192
5, 112640, Note_off_c, 7, 67, 95
5, 112640, Note_on_c, 6, 65, 95
5, 113280, Note_off_c, 6, 65, 95
5, 113280, Note_on_c, 6, 67, 95
5, 113920, Note_off_c, 6, 67, 95
5, 113920, Note_on_c, 6, 65, 70
5, 114560, Note_off_c, 6, 65, 70
5, 114560, Note_on_c, 6, 64, 95
5, 115200, Note_off_c, 6, 64, 95
5, 115200, Note_on_c, 6, 62, 95
5, 115520, Note_off_c, 6, 62, 95
5, 115520, Note_on_c, 6, 64, 95
5, 115840, Note_off_c, 6, 64, 95
5, 115840, Note_on_c, 7, 62, 95
5, 116000, Pitch_bend_c, 7, 7552
5, 116160, Pitch_bend_c, 7, 6784
5, 116160, Pitch_bend_c, 7, 8192
5, 116160, Note_off_c, 7, 62, 95
5, 116160, Note_on_c, 6, 60, 95
5, 116400, Note_off_c, 6, 60, 95
5, 116400, Note_on_c, 6, 60, 95
5, 116640, Note_off_c, 6, 60, 95
5, 116640, Note_on_c, 6, 60, 95
5, 116880, Note_off_c, 6, 60, 95
5, 116880, Note_on_c, 6, 60, 95
5, 117120, Note_off_c, 6, 60, 95
5, 117120, Note_on_c, 6, 60, 95
5, 117360, Note_off_c, 6, 60, 95
5, 117360, Note_on_c, 6, 60, 95
5, 117600, Note_off_c, 6, 60, 95
5, 117600, Note_on_c, 6, 60, 95
5, 117840, Note_off_c, 6, 60, 95
5, 117840, Note_on_c, 6, 60, 95
5, 118080, Note_off_c, 6, 60, 95
5, 118080, Note_on_c, 6, 60, 95
5, 118320, Note_off_c, 6, 60, 95
5, 118320, Note_on_c, 6, 60, 95
5, 118560, Note_off_c, 6, 60, 95
5, 118560, Note_on_c, 6, 60, 95
5, 118800, Note_off_c, 6, 60, 95
5, 118800, Note_on_c, 6, 60, 95
5, 119040, Note_off_c, 6, 60, 95
5, 119040, Note_on_c, 6, 60, 95
5, 119280, Note_off_c, 6, 60, 95
5, 119280, Note_on_c, 6, 60, 95
5, 119520, Note_off_c, 6, 60, 95
5, 119520, Note_on_c, 6, 60, 95
5, 119760, Note_off_c, 6, 60, 95
5, 119760, Note_on_c, 6, 60, 95
5, 120000, Note_off_c, 6, 60, 95
5, 120000, Note_on_c, 6, 60, 95
5, 120240, Note_off_c, 6, 60, 95
5, 120240, Note_on_c, 6, 60, 95
5, 120480, Note_off_c, 6, 60, 95
5, 120480, Note_on_c, 6, 60, 95
5, 120720, Note_off_c, 6, 60, 95
5, 120720, Note_on_c, 6, 60, 95
5, 120960, Note_off_c, 6, 60, 95
5, 120960, Note_on_c, 6, 60, 95
5, 121200, Note_off_c, 6, 60, 95
5, 121200, Note_on_c, 6, 60, 95
5, 121440, Note_off_c, 6, 60, 95
5, 121440, Note_on_c, 6, 60, 95
5, 121440, Note_on_c, 6, 69, 95
5, 121680, Note_off_c, 6, 60, 95
5, 121680, Note_on_c, 6, 60, 95
5, 121920, Note_off_c, 6, 60, 95
5, 121920, Note_on_c, 6, 60, 95
5, 121920, Note_off_c, 6, 69, 95
5, 121920, Note_on_c, 6, 71, 95
5, 122160, Note_off_c, 6, 60, 95
5, 122160, Note_on_c, 6, 60, 95
5, 122400, Note_off_c, 6, 60, 95
5, 122400, Note_on_c, 6, 60, 95
5, 122640, Note_off_c, 6, 60, 95
5, 122640, Note_on_c, 6, 60, 95
5, 122880, Note_off_c, 6, 60, 95
5, 122880, Note_on_c, 6, 60, 95
5, 122880, Note_off_c, 6, 71, 95
5, 122880, Pitch_bend_c, 7, 8192
5, 122880, Note_on_c, 7, 67, 95
5, 123054, Pitch_bend_c, 7, 8320
5, 123120, Note_off_c, 6, 60, 95
5, 123120, Note_on_c, 6, 60, 95
5, 123228, Pitch_bend_c, 7, 8448
5, 123360, Note_off_c, 6, 60, 95
5, 123360, Note_on_c, 6, 60, 95
5, 123402, Pitch_bend_c, 7, 8576
5, 123576, Pitch_bend_c, 7, 8704
5, 123600, Note_off_c, 6, 60, 95
5, 123600, Note_on_c, 6, 60, 95
5, 123750, Pitch_bend_c, 7, 8832
5, 123840, Note_off_c, 6, 60, 95
5, 123840, Note_on_c, 6, 60, 95
5, 123924, Pitch_bend_c, 7, 8960
5, 124080, Note_off_c, 6, 60, 95
5, 124080, Note_on_c, 6, 60, 95
5, 124098, Pitch_bend_c, 7, 9088
5, 124272, Pitch_bend_c, 7, 9216
5, 124320, Note_off_c, 6, 60, 95
5, 124320, Note_on_c, 6, 60, 95
5, 124446, Pitch_bend_c, 7, 9344
5, 124560, Note_off_c, 6, 60, 95
5, 124560, Note_on_c, 6, 60, 95
5, 124620, Pitch_bend_c, 7, 9472
5, 124794, Pitch_bend_c, 7, 9600
5, 124799, Note_off_c, 6, 60, 95
5, 124800, Pitch_bend_c, 7, 9600
5, 126720, Pitch_bend_c, 7, 9600
5, 126720, Pitch_bend_c, 7, 8192
5, 126720, Note_off_c, 7, 67, 95
5, 126720, Pitch_bend_c, 7, 8192
5, 126720, Note_on_c, 7, 67, 95
5, 126749, Pitch_bend_c, 7, 8320
5, 126778, Pitch_bend_c, 7, 8448
5, 126807, Pitch_bend_c, 7, 8576
5, 126836, Pitch_bend_c, 7, 8704
5, 126865, Pitch_bend_c, 7, 8832
5, 126894, Pitch_bend_c, 7, 8960
5, 126923, Pitch_bend_c, 7, 9088
5, 126952, Pitch_bend_c, 7, 9216
5, 126981, Pitch_bend_c, 7, 9344
5, 127010, Pitch_bend_c, 7, 9472
5, 127039, Pitch_bend_c, 7, 9600
5, 127040, Pitch_bend_c, 7, 9600
5, 127360, Pitch_bend_c, 7, 9600
5, 127360, Pitch_bend_c, 7, 8192
5, 127360, Note_off_c, 7, 67, 95
5, 127360, Pitch_bend_c, 7, 9600
5, 127360, Note_on_c, 7, 67, 95
5, 127573, Pitch_bend_c, 7, 9600
5, 127592, Pitch_bend_c, 7, 9472
5, 127611, Pitch_bend_c, 7, 9344
5, 127630, Pitch_bend_c, 7, 9216
5, 127649, Pitch_bend_c, 7, 9088
5, 127668, Pitch_bend_c, 7, 8960
5, 127687, Pitch_bend_c, 7, 8832
5, 127706, Pitch_bend_c, 7, 8704
5, 127725, Pitch_bend_c, 7, 8576
5, 127744, Pitch_bend_c, 7, 8448
5, 127763, Pitch_bend_c, 7, 8320
5, 127782, Pitch_bend_c, 7, 8192
5, 127786, Pitch_bend_c, 7, 8192
5, 128000, Pitch_bend_c, 7, 8192
5, 128000, Pitch_bend_c, 7, 8192
5, 128000, Note_off_c, 7, 67, 95
5, 128000, Note_on_c, 6, 65, 95
5, 128640, Note_off_c, 6, 65, 95
5, 128640, Note_on_c, 6, 67, 95
5, 129280, Note_off_c, 6, 67, 95
5, 129280, Note_on_c, 6, 65, 70
5, 129920, Note_off_c, 6, 65, 70
5, 129920, Note_on_c, 6, 64, 95
5, 130560, Note_off_c, 6, 64, 95
5, 130560, Note_on_c, 6, 62, 95
5, 130880, Note_off_c, 6, 62, 95
5, 130880, Note_on_c, 6, 64, 95
5, 131200, Note_off_c, 6, 64, 95
5, 131200, Note_on_c, 7, 62, 95
5, 131360, Pitch_bend_c, 7, 7552
5, 131520, Pitch_bend_c, 7, 6784
5, 131520, Pitch_bend_c, 7, 8192
5, 131520, Note_off_c, 7, 62, 95
5, 131520, Note_on_c, 6, 60, 95
5, 131760, Note_off_c, 6, 60, 95
5, 131760, Note_on_c, 6, 60, 95
5, 132000, Note_off_c, 6, 60, 95
5, 132000, Note_on_c, 6, 60, 95
5, 132240, Note_off_c, 6, 60, 95
5, 132240, Note_on_c, 6, 60, 95
5, 132480, Note_off_c, 6, 60, 95
5, 132480, Note_on_c, 6, 60, 95
5, 132720, Note_off_c, 6, 60, 95
5, 132720, Note_on_c, 6, 60, 95
5, 132960, Note_off_c, 6, 60, 95
5, 132960, Note_on_c, 6, 60, 95
5, 133200, Note_off_c, 6, 60, 95
5, 133200, Note_on_c, 6, 60, 95
5, 133440, Note_off_c, 6, 60, 95
5, 133440, Note_on_c, 6, 60, 95
5, 133680, Note_off_c, 6, 60, 95
5, 133680, Note_on_c, 6, 60, 95
5, 133920, Note_off_c, 6, 60, 95
5, 133920, Note_on_c, 6, 60, 95
5, 134160, Note_off_c, 6, 60, 95
5, 134160, Note_on_c, 6, 60, 95
5, 134400, Note_off_c, 6, 60, 95
5, 134400, Note_on_c, 6, 60, 95
5, 134640, Note_off_c, 6, 60, 95
5, 134640, Note_on_c, 6, 60, 95
5, 134880, Note_off_c, 6, 60, 95
5, 134880, Note_on_c, 6, 60, 95
5, 135120, Note_off_c, 6, 60, 95
5, 135120, Note_on_c, 6, 60, 95
5, 135360, Note_off_c, 6, 60, 95
5, 135360, Note_on_c, 6, 60, 95
5, 135600, Note_off_c, 6, 60, 95
5, 135600, Note_on_c, 6, 60, 95
5, 135840, Note_off_c, 6, 60, 95
5, 135840, Note_on_c, 6, 60, 95
5, 136080, Note_off_c, 6, 60, 95
5, 136080, Note_on_c, 6, 60, 95
5, 136320, Note_off_c, 6, 60, 95
5, 136320, Note_on_c, 6, 60, 95
5, 136320, Note_on_c, 6, 60, 95
5, 136560, Note_off_c, 6, 60, 95
5, 136560, Note_on_c, 6, 60, 95
5, 136800, Note_off_c, 6, 60, 95
5, 136800, Note_on_c, 6, 60, 95
5, 136800, Note_off_c, 6, 60, 95
5, 136800, Note_on_c, 6, 65, 95
5, 137040, Note_off_c, 6, 60, 95
5, 137040, Note_on_c, 6, 60, 95
5, 137280, Note_off_c, 6, 60, 95
5, 137280, Note_on_c, 6, 60, 95
5, 137280, Note_off_c, 6, 65, 95
5, 137280, Note_on_c, 6, 67, 95
5, 137520, Note_off_c, 6, 60, 95
5, 137520, Note_on_c, 6, 60, 95
5, 137760, Note_off_c, 6, 60, 95
5, 137760, Note_on_c, 6, 60, 95
5, 137760, Note_off_c, 6, 67, 95
5, 137760, Note_on_c, 6, 69, 95
5, 138000, Note_off_c, 6, 60, 95
5, 138000, Note_on_c, 6, 60, 95
5, 138240, Note_off_c, 6, 60, 95
5, 138240, Note_on_c, 6, 60, 95
5, 138240, Note_off_c, 6, 69, 95
5, 138480, Note_off_c, 6, 60, 95
5, 138480, Note_on_c, 6, 60, 95
5, 138720, Note_off_c, 6, 60, 95
5, 138720, Note_on_c, 6, 60, 95
5, 138720, Note_on_c, 6, 67, 95
5, 138960, Note_off_c, 6, 60, 95
5, 138960, Note_on_c, 6, 60, 95
5, 139200, Note_off_c, 6, 60, 95
5, 139200, Note_on_c, 6, 60, 95
5, 139200, Note_off_c, 6, 67, 95
5, 139440, Note_off_c, 6, 60, 95
5, 139440, Note_on_c, 6, 60, 95
5, 139680, Note_off_c, 6, 60, 95
5, 139680, Note_on_c, 6, 60, 95
5, 139680, Note_on_c, 6, 69, 95
5, 139920, Note_off_c, 6, 60, 95
5, 139920, Note_on_c, 6, 60, 95
5, 140159, Note_off_c, 6, 60, 95
5, 140160, Note_off_c, 6, 69, 95
5, 140640, Note_on_c, 6, 71, 95
5, 141120, Note_off_c, 6, 71, 95
5, 141600, Note_on_c, 6, 72, 95
5, 142080, Note_off_c, 6, 72, 95
5, 142560, Note_on_c, 6, 71, 95
5, 143040, Note_off_c, 6, 71, 95
5, 143520, Note_on_c, 6, 72, 95
5, 144000, Note_off_c, 6, 72, 95
5, 144480, Note_on_c, 6, 74, 95
5, 144960, Note_off_c, 6, 74, 95
5, 145440, Note_on_c, 6, 76, 95
5, 145920, Note_off_c, 6, 76, 95
5, 146400, Note_on_c, 6, 74, 95
5, 146880, Note_off_c, 6, 74, 95
5, 146880, Note_on_c, 6, 72, 95
5, 147360, Note_off_c, 6, 72, 95
5, 147360, Note_on_c, 6, 69, 95
5, 147600, Note_off_c, 6, 69, 95
5, 147600, Note_on_c, 6, 69, 95
5, 147840, Note_off_c, 6, 69, 95
5, 147840, Note_on_c, 6, 69, 95
5, 148080, Note_off_c, 6, 69, 95
5, 148080, Note_on_c, 6, 69, 95
5, 148320, Note_off_c, 6, 69, 95
5, 148320, Note_on_c, 6, 69, 95
5, 148560, Note_off_c, 6, 69, 95
5, 148560, Note_on_c, 6, 69, 95
5, 148800, Note_off_c, 6, 69, 95
5, 148800, Note_on_c, 6, 69, 95
5, 149040, Note_off_c, 6, 69, 95
5, 149040, Note_on_c, 6, 69, 95
5, 149280, Note_off_c, 6, 69, 95
5, 149280, Note_on_c, 6, 69, 95
5, 149520, Note_off_c, 6, 69, 95
5, 149520, Note_on_c, 6, 69, 95
5, 149760, Note_off_c, 6, 69, 95
5, 149760, Note_on_c, 6, 69, 95
5, 150000, Note_off_c, 6, 69, 95
5, 150000, Note_on_c, 6, 69, 95
5, 150240, Note_off_c, 6, 69, 95
5, 150240, Note_on_c, 6, 69, 95
5, 150480, Note_off_c, 6, 69, 95
5, 150480, Note_on_c, 6, 69, 95
5, 150720, Note_off_c, 6, 69, 95
5, 150720, Note_on_c, 6, 69, 95
5, 150960, Note_off_c, 6, 69, 95
5, 150960, Note_on_c, 6, 69, 95
5, 151200, Note_off_c, 6, 69, 95
5, 151200, Note_on_c, 6, 69, 95
5, 151440, Note_off_c, 6, 69, 95
5, 151440, Note_on_c, 6, 69, 95
5, 151680, Note_off_c, 6, 69, 95
5, 151680, Note_on_c, 6, 69, 95
5, 151920, Note_off_c, 6, 69, 95
5, 151920, Note_on_c, 6, 69, 95
5, 152160, Note_off_c, 6, 69, 95
5, 152160, Note_on_c, 6, 69, 95
5, 152400, Note_off_c, 6, 69, 95
5, 152400, Note_on_c, 6, 69, 95
5, 152639, Note_off_c, 6, 69, 95
5, 153600, Note_on_c, 6, 74, 95
5, 154240, Note_off_c, 6, 74, 95
5, 154240, Note_on_c, 6, 72, 95
5, 154880, Note_off_c, 6, 72, 95
5, 154880, Note_on_c, 6, 71, 95
5, 155520, Note_off_c, 6, 71, 95
5, 155520, Note_on_c, 6, 69, 95
5, 155760, Note_off_c, 6, 69, 95
5, 155760, Note_on_c, 6, 69, 95
5, 156000, Note_off_c, 6, 69, 95
5, 156000, Note_on_c, 6, 69, 95
5, 156240, Note_off_c, 6, 69, 95
5, 156240, Note_on_c, 6, 69, 95
5, 156480, Note_off_c, 6, 69, 95
5, 156480, Note_on_c, 6, 69, 95
5, 156720, Note_off_c, 6, 69, 95
5, 156720, Note_on_c, 6, 69, 95
5, 156960, Note_off_c, 6, 69, 95
5, 156960, Note_on_c, 6, 69, 95
5, 157200, Note_off_c, 6, 69, 95
5, 157200, Note_on_c, 6, 69, 95
5, 157439, Note_off_c, 6, 69, 95
5, 157440, Note_on_c, 6, 55, 127
5, 157440, Note_on_c, 6, 50, 95
5, 157440, Note_on_c, 6, 43, 95
5, 158400, Note_off_c, 6, 55, 127
5, 158400, Note_off_c, 6, 50, 95
5, 158400, Note_off_c, 6, 43, 95
5, 666720, Note_on_c, 6, 65, 95
5, 667200, Note_off_c, 6, 65, 95
5, 667200, Note_on_c, 6, 67, 95
5, 668160, Note_off_c, 6, 67, 95
5, 668160, Pitch_bend_c, 7, 8192
5, 668160, Note_on_c, 7, 67, 95
5, 668334, Pitch_bend_c, 7, 8320
5, 668508, Pitch_bend_c, 7, 8448
5, 668682, Pitch_bend_c, 7, 8576
5, 668856, Pitch_bend_c, 7, 8704
5, 669030, Pitch_bend_c, 7, 8832
5, 669204, Pitch_bend_c, 7, 8960
5, 669378, Pitch_bend_c, 7, 9088
5, 669552, Pitch_bend_c, 7, 9216
5, 669726, Pitch_bend_c, 7, 9344
5, 669900, Pitch_bend_c, 7, 9472
5, 670074, Pitch_bend_c, 7, 9600
5, 670080, Pitch_bend_c, 7, 9600
5, 672000, Pitch_bend_c, 7, 9600
5, 672000, Pitch_bend_c, 7, 8192
5, 672000, Note_off_c, 7, 67, 95
5, 672000, Pitch_bend_c, 7, 8192
5, 672000, Note_on_c, 7, 67, 95
5, 672029, Pitch_bend_c, 7, 8320
5, 672058, Pitch_bend_c, 7, 8448
5, 672087, Pitch_bend_c, 7, 8576
5, 672116, Pitch_bend_c, 7, 8704
5, 672145, Pitch_bend_c, 7, 8832
5, 672174, Pitch_bend_c, 7, 8960
5, 672203, Pitch_bend_c, 7, 9088
5, 672232, Pitch_bend_c, 7, 9216
5, 672261, Pitch_bend_c, 7, 9344
5, 672290, Pitch_bend_c, 7, 9472
5, 672319, Pitch_bend_c, 7, 9600
5, 672320, Pitch_bend_c, 7, 9600
5, 672640, Pitch_bend_c, 7, 9600
5, 672669, Pitch_bend_c, 7, 9472
5, 672698, Pitch_bend_c, 7, 9344
5, 672727, Pitch_bend_c, 7, 9216
5, 672756, Pitch_bend_c, 7, 9088
5, 672785, Pitch_bend_c, 7, 8960
5, 672814, Pitch_bend_c, 7, 8832
5, 672843, Pitch_bend_c, 7, 8704
5, 672872, Pitch_bend_c, 7, 8576
5, 672901, Pitch_bend_c, 7, 8448
5, 672930, Pitch_bend_c, 7, 8320
5, 672959, Pitch_bend_c, 7, 8192
5, 672960, Pitch_bend_c, 7, 8192
5, 673280, Pitch_bend_c, 7, 8192
5, 673280, Pitch_bend_c, 7, 8192
5, 673280, Note_off_c, 7, 67, 95
5, 673280, Note_on_c, 6, 65, 95
5, 673920, Note_off_c, 6, 65, 95
5, 673920, Note_on_c, 6, 67, 95
5, 674560, Note_off_c, 6, 67, 95
5, 674560, Note_on_c, 6, 65, 70
5, 675200, Note_off_c, 6, 65, 70
5, 675200, Note_on_c, 6, 64, 95
5, 675840, Note_off_c, 6, 64, 95
5, 675840, Note_on_c, 6, 62, 95
5, 676160, Note_off_c, 6, 62, 95
5, 676160, Note_on_c, 6, 64, 70
5, 676480, Note_off_c, 6, 64, 70
5, 676480, Note_on_c, 6, 62, 70
5, 676800, Note_off_c, 6, 62, 70
5, 676800, Note_on_c, 6, 60, 70
5, 678240, Note_off_c, 6, 60, 70
5, 678240, Pitch_bend_c, 7, 8192
5, 678240, Note_on_c, 7, 60, 95
5, 678312, Pitch_bend_c, 7, 8320
5, 678384, Pitch_bend_c, 7, 8448
5, 678456, Pitch_bend_c, 7, 8576
5, 678528, Pitch_bend_c, 7, 8704
5, 678600, Pitch_bend_c, 7, 8832
5, 678600, Pitch_bend_c, 7, 8832
5, 678720, Pitch_bend_c, 7, 8832
5, 678720, Pitch_bend_c, 7, 8192
5, 678720, Note_off_c, 7, 60, 95
5, 678720, Pitch_bend_c, 7, 8192
5, 678720, Note_on_c, 7, 60, 95
5, 678792, Pitch_bend_c, 7, 8064
5, 678864, Pitch_bend_c, 7, 7936
5, 678936, Pitch_bend_c, 7, 7808
5, 679008, Pitch_bend_c, 7, 7680
5, 679080, Pitch_bend_c, 7, 7552
5, 679080, Pitch_bend_c, 7, 7552
5, 679200, Pitch_bend_c, 7, 7552
5, 679200, Pitch_bend_c, 7, 8192
5, 679200, Note_off_c, 7, 60, 95
5, 679200, Pitch_bend_c, 7, 8192
5, 679200, Note_on_c, 7, 60, 95
5, 679272, Pitch_bend_c, 7, 8320
5, 679344, Pitch_bend_c, 7, 8448
5, 679416, Pitch_bend_c, 7, 8576
5, 679488, Pitch_bend_c, 7, 8704
5, 679560, Pitch_bend_c, 7, 8832
5, 679560, Pitch_bend_c, 7, 8832
5, 679680, Pitch_bend_c, 7, 8832
5, 679680, Pitch_bend_c, 7, 8192
5, 679680, Note_off_c, 7, 60, 95
5, 679680, Pitch_bend_c, 7, 8192
5, 679680, Note_on_c, 7, 60, 95
5, 679752, Pitch_bend_c, 7, 8064
5, 679824, Pitch_bend_c, 7, 7936
5, 679896, Pitch_bend_c, 7, 7808
5, 679968, Pitch_bend_c, 7, 7680
5, 680040, Pitch_bend_c, 7, 7552
5, 680040, Pitch_bend_c, 7, 7552
5, 680160, Pitch_bend_c, 7, 7552
5, 680160, Pitch_bend_c, 7, 8192
5, 680160, Note_off_c, 7, 60, 95
5, 680160, Pitch_bend_c, 7, 8192
5, 680160, Note_on_c, 7, 60, 95
5, 680232, Pitch_bend_c, 7, 8320
5, 680304, Pitch_bend_c, 7, 8448
5, 680376, Pitch_bend_c, 7, 8576
5, 680448, Pitch_bend_c, 7, 8704
5, 680520, Pitch_bend_c, 7, 8832
5, 680520, Pitch_bend_c, 7, 8832
5, 680640, Pitch_bend_c, 7, 8832
5, 680640, Pitch_bend_c, 7, 8192
5, 680640, Note_off_c, 7, 60, 95
5, 680640, Pitch_bend_c, 7, 8192
5, 680640, Note_on_c, 7, 60, 95
5, 680712, Pitch_bend_c, 7, 8064
5, 680784, Pitch_bend_c, 7, 7936
5, 680856, Pitch_bend_c, 7, 7808
5, 680928, Pitch_bend_c, 7, 7680
5, 681000, Pitch_bend_c, 7, 7552
5, 681000, Pitch_bend_c, 7, 7552
5, 681120, Pitch_bend_c, 7, 7552
5, 681120, Pitch_bend_c, 7, 8192
5, 681120, Note_off_c, 7, 60, 95
5, 681120, Pitch_bend_c, 7, 8192
5, 681120, Note_on_c, 7, 60, 95
5, 681192, Pitch_bend_c, 7, 8320
5, 681264, Pitch_bend_c, 7, 8448
5, 681336, Pitch_bend_c, 7, 8576
5, 681408, Pitch_bend_c, 7, 8704
5, 681480, Pitch_bend_c, 7, 8832
5, 681480, Pitch_bend_c, 7, 8832
5, 681600, Pitch_bend_c, 7, 8832
5, 681600, Pitch_bend_c, 7, 8192
5, 681600, Note_off_c, 7, 60, 95
5, 681600, Note_on_c, 6, 60, 95
5, 682080, Note_off_c, 6, 60, 95
5, 682080, Note_on_c, 6, 65, 95
5, 682560, Note_off_c, 6, 65, 95
5, 682560, Note_on_c, 6, 67, 95
5, 683520, Note_off_c, 6, 67, 95
5, 683520, Pitch_bend_c, 7, 8192
5, 683520, Note_on_c, 7, 67, 95
5, 683694, Pitch_bend_c, 7, 8320
5, 683868, Pitch_bend_c, 7, 8448
5, 684042, Pitch_bend_c, 7, 8576
5, 684216, Pitch_bend_c, 7, 8704
5, 684390, Pitch_bend_c, 7, 8832
5, 684564, Pitch_bend_c, 7, 8960
5, 684738, Pitch_bend_c, 7, 9088
5, 684912, Pitch_bend_c, 7, 9216
5, 685086, Pitch_bend_c, 7, 9344
5, 685260, Pitch_bend_c, 7, 9472
5, 685434, Pitch_bend_c, 7, 9600
5, 685440, Pitch_bend_c, 7, 9600
5, 687360, Pitch_bend_c, 7, 9600
5, 687360, Pitch_bend_c, 7, 8192
5, 687360, Note_off_c, 7, 67, 95
5, 687360, Pitch_bend_c, 7, 8192
5, 687360, Note_on_c, 7, 67, 95
5, 687389, Pitch_bend_c, 7, 8320
5, 687418, Pitch_bend_c, 7, 8448
5, 687447, Pitch_bend_c, 7, 8576
5, 687476, Pitch_bend_c, 7, 8704
5, 687505, Pitch_bend_c, 7, 8832
5, 687534, Pitch_bend_c, 7, 8960
5, 687563, Pitch_bend_c, 7, 9088
5, 687592, Pitch_bend_c, 7, 9216
5, 687621, Pitch_bend_c, 7, 9344
5, 687650, Pitch_bend_c, 7, 9472
5, 687679, Pitch_bend_c, 7, 9600
5, 687680, Pitch_bend_c, 7, 9600
5, 688000, Pitch_bend_c, 7, 9600
5, 688029, Pitch_bend_c, 7, 9472
5, 688058, Pitch_bend_c, 7, 9344
5, 688087, Pitch_bend_c, 7, 9216
5, 688116, Pitch_bend_c, 7, 9088
5, 688145, Pitch_bend_c, 7, 8960
5, 688174, Pitch_bend_c, 7, 8832
5, 688203, Pitch_bend_c, 7, 8704
5, 688232, Pitch_bend_c, 7, 8576
5, 688261, Pitch_bend_c, 7, 8448
5, 688290, Pitch_bend_c, 7, 8320
5, 688319, Pitch_bend_c, 7, 8192
5, 688320, Pitch_bend_c, 7, 8192
5, 688640, Pitch_bend_c, 7, 8192
5, 688640, Pitch_bend_c, 7, 8192
5, 688640, Note_off_c, 7, 67, 95
5, 688640, Note_on_c, 6, 65, 95
5, 689280, Note_off_c, 6, 65, 95
5, 689280, Note_on_c, 6, 67, 95
5, 689920, Note_off_c, 6, 67, 95
5, 689920, Note_on_c, 6, 65, 70
5, 690560, Note_off_c, 6, 65, 70
5, 690560, Note_on_c, 6, 64, 95
5, 691200, Note_off_c, 6, 64, 95
5, 691200, Note_on_c, 6, 62, 95
5, 691520, Note_off_c, 6, 62, 95
5, 691520, Note_on_c, 6, 64, 70
5, 691840, Note_off_c, 6, 64, 70
5, 691840, Note_on_c, 6, 62, 70
5, 692160, Note_off_c, 6, 62, 70
5, 692160, Note_on_c, 6, 60, 70
5, 693600, Note_off_c, 6, 60, 70
5, 693600, Pitch_bend_c, 7, 8192
5, 693600, Note_on_c, 7, 60, 95
5, 693672, Pitch_bend_c, 7, 8320
5, 693744, Pitch_bend_c, 7, 8448
5, 693816, Pitch_bend_c, 7, 8576
5, 693888, Pitch_bend_c, 7, 8704
5, 693960, Pitch_bend_c, 7, 8832
5, 693960, Pitch_bend_c, 7, 8832
5, 694080, Pitch_bend_c, 7, 8832
5, 694080, Pitch_bend_c, 7, 8192
5, 694080, Note_off_c, 7, 60, 95
5, 694080, Pitch_bend_c, 7, 8192
5, 694080, Note_on_c, 7, 60, 95
5, 694152, Pitch_bend_c, 7, 8064
5, 694224, Pitch_bend_c, 7, 7936
5, 694296, Pitch_bend_c, 7, 7808
5, 694368, Pitch_bend_c, 7, 7680
5, 694440, Pitch_bend_c, 7, 7552
5, 694440, Pitch_bend_c, 7, 7552
5, 694560, Pitch_bend_c, 7, 7552
5, 694560, Pitch_bend_c, 7, 8192
5, 694560, Note_off_c, 7, 60, 95
5, 694560, Pitch_bend_c, 7, 8192
5, 694560, Note_on_c, 7, 60, 95
5, 694632, Pitch_bend_c, 7, 8320
5, 694704, Pitch_bend_c, 7, 8448
5, 694776, Pitch_bend_c, 7, 8576
5, 694848, Pitch_bend_c, 7, 8704
5, 694920, Pitch_bend_c, 7, 8832
5, 694920, Pitch_bend_c, 7, 8832
5, 695040, Pitch_bend_c, 7, 8832
5, 695040, Pitch_bend_c, 7, 8192
5, 695040, Note_off_c, 7, 60, 95
5, 695040, Pitch_bend_c, 7, 8192
5, 695040, Note_on_c, 7, 60, 95
5, 695112, Pitch_bend_c, 7, 8064
5, 695184, Pitch_bend_c, 7, 7936
5, 695256, Pitch_bend_c, 7, 7808
5, 695328, Pitch_bend_c, 7, 7680
5, 695400, Pitch_bend_c, 7, 7552
5, 695400, Pitch_bend_c, 7, 7552
5, 695520, Pitch_bend_c, 7, 7552
5, 695520, Pitch_bend_c, 7, 8192
5, 695520, Note_off_c, 7, 60, 95
5, 695520, Pitch_bend_c, 7, 8192
5, 695520, Note_on_c, 7, 60, 95
5, 695592, Pitch_bend_c, 7, 8320
5, 695664, Pitch_bend_c, 7, 8448
5, 695736, Pitch_bend_c, 7, 8576
5, 695808, Pitch_bend_c, 7, 8704
5, 695880, Pitch_bend_c, 7, 8832
5, 695880, Pitch_bend_c, 7, 8832
5, 696000, Pitch_bend_c, 7, 8832
5, 696000, Pitch_bend_c, 7, 8192
5, 696000, Note_off_c, 7, 60, 95
5, 696000, Pitch_bend_c, 7, 8192
5, 696000, Note_on_c, 7, 60, 95
5, 696072, Pitch_bend_c, 7, 8064
5, 696144, Pitch_bend_c, 7, 7936
5, 696216, Pitch_bend_c, 7, 7808
5, 696288, Pitch_bend_c, 7, 7680
5, 696360, Pitch_bend_c, 7, 7552
5, 696360, Pitch_bend_c, 7, 7552
5, 696480, Pitch_bend_c, 7, 7552
5, 696480, Pitch_bend_c, 7, 8192
5, 696480, Note_off_c, 7, 60, 95
5, 696480, Pitch_bend_c, 7, 8192
5, 696480, Note_on_c, 7, 60, 95
5, 696552, Pitch_bend_c, 7, 8320
5, 696624, Pitch_bend_c, 7, 8448
5, 696696, Pitch_bend_c, 7, 8576
5, 696768, Pitch_bend_c, 7, 8704
5, 696840, Pitch_bend_c, 7, 8832
5, 696840, Pitch_bend_c, 7, 8832
5, 696960, Pitch_bend_c, 7, 8832
5, 696960, Pitch_bend_c, 7, 8192
5, 696960, Note_off_c, 7, 60, 95
5, 696960, Note_on_c, 6, 60, 95
5, 697440, Note_off_c, 6, 60, 95
5, 697440, Note_on_c, 6, 65, 95
5, 697920, Note_off_c, 6, 65, 95
5, 697920, Note_on_c, 6, 67, 95
5, 698400, Note_off_c, 6, 67, 95
5, 698400, Note_on_c, 6, 69, 95
5, 698880, Note_off_c, 6, 69, 95
5, 699360, Note_on_c, 6, 67, 95
5, 699840, Note_off_c, 6, 67, 95
5, 700320, Note_on_c, 6, 69, 95
5, 700800, Note_off_c, 6, 69, 95
5, 701280, Note_on_c, 6, 71, 95
5, 701760, Note_off_c, 6, 71, 95
5, 702240, Note_on_c, 6, 72, 95
5, 702720, Note_off_c, 6, 72, 95
5, 703200, Note_on_c, 6, 71, 95
5, 703680, Note_off_c, 6, 71, 95
5, 704160, Note_on_c, 6, 72, 95
5, 704640, Note_off_c, 6, 72, 95
5, 705120, Note_on_c, 6, 74, 95
5, 705600, Note_off_c, 6, 74, 95
5, 706080, Note_on_c, 6, 76, 95
5, 706560, Note_off_c, 6, 76, 95
5, 707040, Note_on_c, 6, 74, 95
5, 707520, Note_off_c, 6, 74, 95
5, 707520, Note_on_c, 6, 72, 95
5, 708000, Note_off_c, 6, 72, 95
5, 708000, Note_on_c, 6, 69, 95
5, 713280, Note_off_c, 6, 69, 95
5, 714240, Note_on_c, 6, 74, 95
5, 714880, Note_off_c, 6, 74, 95
5, 714880, Note_on_c, 6, 72, 95
5, 715520, Note_off_c, 6, 72, 95
5, 715520, Note_on_c, 6, 71, 95
5, 716160, Note_off_c, 6, 71, 95
5, 716160, Note_on_c, 6, 69, 95
5, 716400, Note_off_c, 6, 69, 95
5, 716400, Note_on_c, 6, 69, 95
5, 716640, Note_off_c, 6, 69, 95
5, 716640, Note_on_c, 6, 69, 95
5, 716880, Note_off_c, 6, 69, 95
5, 716880, Note_on_c, 6, 69, 95
5, 717120, Note_off_c, 6, 69, 95
5, 717120, Note_on_c, 6, 69, 95
5, 717360, Note_off_c, 6, 69, 95
5, 717360, Note_on_c, 6, 69, 95
5, 717600, Note_off_c, 6, 69, 95
5, 717600, Note_on_c, 6, 69, 95
5, 717840, Note_off_c, 6, 69, 95
5, 717840, Note_on_c, 6, 69, 95
5, 718079, Note_off_c, 6, 69, 95
5, 718079, End_track
6, 0, Start_track
6, 0, Pitch_bend_c, 8, 8192
6, 0, Control_c, 8, 7, 103
6, 0, Control_c, 8, 10, 63
6, 0, Control_c, 8, 93, 0
6, 0, Control_c, 8, 91, 0
6, 0, Control_c, 8, 95, 0
6, 0, Control_c, 8, 92, 0
6, 0, Control_c, 8, 11, 127
6, 0, Program_c, 8, 30
6, 0, Control_c, 10, 7, 103
6, 0, Control_c, 10, 10, 63
6, 0, Control_c, 10, 93, 0
6, 0, Control_c, 10, 91, 0
6, 0, Control_c, 10, 95, 0
6, 0, Control_c, 10, 92, 0
6, 0, Control_c, 10, 11, 127
6, 0, Program_c, 10, 30
6, 158880, Note_on_c, 10, 46, 95
6, 159000, Pitch_bend_c, 10, 8320
6, 159120, Pitch_bend_c, 10, 8448
6, 159240, Pitch_bend_c, 10, 8704
6, 159360, Pitch_bend_c, 10, 8832
6, 159360, Pitch_bend_c, 10, 8192
6, 159360, Note_off_c, 10, 46, 95
6, 159360, Note_on_c, 8, 47, 95
6, 159840, Note_off_c, 8, 47, 95
6, 159840, Note_on_c, 8, 50, 95
6, 160320, Note_off_c, 8, 50, 95
6, 160320, Note_on_c, 10, 47, 95
6, 160440, Pitch_bend_c, 10, 7936
6, 160560, Pitch_bend_c, 10, 7552
6, 160680, Pitch_bend_c, 10, 7168
6, 160800, Pitch_bend_c, 10, 6784
6, 160800, Pitch_bend_c, 10, 8192
6, 160800, Note_off_c, 10, 47, 95
6, 160800, Note_on_c, 8, 45, 95
6, 161280, Note_off_c, 8, 45, 95
6, 161280, Note_on_c, 8, 43, 95
6, 174240, Note_off_c, 8, 43, 95
6, 174240, Note_on_c, 10, 46, 95
6, 174360, Pitch_bend_c, 10, 8320
6, 174480, Pitch_bend_c, 10, 8448
6, 174600, Pitch_bend_c, 10, 8704
6, 174720, Pitch_bend_c, 10, 8832
6, 174720, Pitch_bend_c, 10, 8192
6, 174720, Note_off_c, 10, 46, 95
6, 174720, Note_on_c, 8, 47, 95
6, 175200, Note_off_c, 8, 47, 95
6, 175200, Note_on_c, 8, 50, 95
6, 175680, Note_off_c, 8, 50, 95
6, 175680, Note_on_c, 10, 52, 95
6, 175800, Pitch_bend_c, 10, 7936
6, 175920, Pitch_bend_c, 10, 7552
6, 176040, Pitch_bend_c, 10, 7168
6, 176160, Pitch_bend_c, 10, 6784
6, 176160, Pitch_bend_c, 10, 8192
6, 176160, Note_off_c, 10, 52, 95
6, 176160, Note_on_c, 8, 50, 95
6, 176640, Note_off_c, 8, 50, 95
6, 176640, Note_on_c, 8, 55, 95
6, 176640, Note_on_c, 8, 50, 95
6, 176640, Note_on_c, 8, 43, 95
6, 187200, Note_off_c, 8, 55, 95
6, 187200, Note_off_c, 8, 50, 95
6, 187200, Note_off_c, 8, 43, 95
6, 188160, Note_on_c, 8, 74, 127
6, 188160, Note_on_c, 8, 69, 95
6, 188160, Note_on_c, 8, 64, 95
6, 188160, Note_on_c, 8, 59, 95
6, 188160, Note_on_c, 8, 55, 95
6, 189120, Note_off_c, 8, 74, 127
6, 189120, Note_off_c, 8, 69, 95
6, 189120, Note_off_c, 8, 64, 95
6, 189120, Note_off_c, 8, 59, 95
6, 189120, Note_off_c, 8, 55, 95
6, 192000, Note_on_c, 8, 43, 95
6, 192960, Note_off_c, 8, 43, 95
6, 193440, Note_on_c, 10, 46, 95
6, 193560, Pitch_bend_c, 10, 8320
6, 193680, Pitch_bend_c, 10, 8448
6, 193800, Pitch_bend_c, 10, 8704
6, 193920, Pitch_bend_c, 10, 8832
6, 193920, Pitch_bend_c, 10, 8192
6, 193920, Note_off_c, 10, 46, 95
6, 193920, Note_on_c, 8, 47, 95
6, 194400, Note_off_c, 8, 47, 95
6, 194400, Note_on_c, 8, 50, 95
6, 194880, Note_off_c, 8, 50, 95
6, 194880, Note_on_c, 8, 52, 95
6, 195840, Note_off_c, 8, 52, 95
6, 195840, Note_on_c, 8, 43, 95
6, 196800, Note_off_c, 8, 43, 95
6, 197280, Note_on_c, 10, 46, 95
6, 197400, Pitch_bend_c, 10, 8320
6, 197520, Pitch_bend_c, 10, 8448
6, 197640, Pitch_bend_c, 10, 8704
6, 197760, Pitch_bend_c, 10, 8832
6, 197760, Pitch_bend_c, 10, 8192
6, 197760, Note_off_c, 10, 46, 95
6, 197760, Note_on_c, 8, 47, 95
6, 198240, Note_off_c, 8, 47, 95
6, 198240, Note_on_c, 8, 50, 95
6, 198720, Note_off_c, 8, 50, 95
6, 198720, Note_on_c, 8, 52, 95
6, 199680, Note_off_c, 8, 52, 95
6, 199680, Note_on_c, 8, 43, 95
6, 200640, Note_off_c, 8, 43, 95
6, 201120, Note_on_c, 10, 46, 95
6, 201240, Pitch_bend_c, 10, 8320
6, 201360, Pitch_bend_c, 10, 8448
6, 201480, Pitch_bend_c, 10, 8704
6, 201600, Pitch_bend_c, 10, 8832
6, 201600, Pitch_bend_c, 10, 8192
6, 201600, Note_off_c, 10, 46, 95
6, 201600, Note_on_c, 8, 47, 95
6, 202080, Note_off_c, 8, 47, 95
6, 202080, Note_on_c, 8, 50, 95
6, 202560, Note_off_c, 8, 50, 95
6, 202560, Note_on_c, 8, 52, 95
6, 203520, Note_off_c, 8, 52, 95
6, 203520, Note_on_c, 8, 43, 95
6, 204480, Note_off_c, 8, 43, 95
6, 204960, Note_on_c, 10, 46, 95
6, 205080, Pitch_bend_c, 10, 8320
6, 205200, Pitch_bend_c, 10, 8448
6, 205320, Pitch_bend_c, 10, 8704
6, 205440, Pitch_bend_c, 10, 8832
6, 205440, Pitch_bend_c, 10, 8192
6, 205440, Note_off_c, 10, 46, 95
6, 205440, Note_on_c, 8, 47, 95
6, 205920, Note_off_c, 8, 47, 95
6, 205920, Note_on_c, 8, 50, 95
6, 206400, Note_off_c, 8, 50, 95
6, 206400, Note_on_c, 8, 52, 95
6, 207360, Note_off_c, 8, 52, 95
6, 207360, Note_on_c, 8, 48, 95
6, 208320, Note_off_c, 8, 48, 95
6, 208800, Note_on_c, 10, 51, 95
6, 208920, Pitch_bend_c, 10, 8320
6, 209040, Pitch_bend_c, 10, 8448
6, 209160, Pitch_bend_c, 10, 8704
6, 209280, Pitch_bend_c, 10, 8832
6, 209280, Pitch_bend_c, 10, 8192
6, 209280, Note_off_c, 10, 51, 95
6, 209280, Note_on_c, 8, 52, 95
6, 209760, Note_off_c, 8, 52, 95
6, 209760, Note_on_c, 8, 55, 95
6, 210240, Note_off_c, 8, 55, 95
6, 210240, Note_on_c, 8, 57, 95
6, 211200, Note_off_c, 8, 57, 95
6, 211200, Note_on_c, 8, 48, 95
6, 212160, Note_off_c, 8, 48, 95
6, 212640, Note_on_c, 10, 51, 95
6, 212760, Pitch_bend_c, 10, 8320
6, 212880, Pitch_bend_c, 10, 8448
6, 213000, Pitch_bend_c, 10, 8704
6, 213120, Pitch_bend_c, 10, 8832
6, 213120, Pitch_bend_c, 10, 8192
6, 213120, Note_off_c, 10, 51, 95
6, 213120, Note_on_c, 8, 52, 95
6, 213600, Note_off_c, 8, 52, 95
6, 213600, Note_on_c, 8, 55, 95
6, 214080, Note_off_c, 8, 55, 95
6, 214080, Note_on_c, 8, 57, 95
6, 215040, Note_off_c, 8, 57, 95
6, 215040, Note_on_c, 8, 43, 95
6, 216000, Note_off_c, 8, 43, 95
6, 216480, Note_on_c, 10, 46, 95
6, 216600, Pitch_bend_c, 10, 8320
6, 216720, Pitch_bend_c, 10, 8448
6, 216840, Pitch_bend_c, 10, 8704
6, 216960, Pitch_bend_c, 10, 8832
6, 216960, Pitch_bend_c, 10, 8192
6, 216960, Note_off_c, 10, 46, 95
6, 216960, Note_on_c, 8, 47, 95
6, 217440, Note_off_c, 8, 47, 95
6, 217440, Note_on_c, 8, 50, 95
6, 217920, Note_off_c, 8, 50, 95
6, 217920, Note_on_c, 8, 52, 95
6, 218880, Note_off_c, 8, 52, 95
6, 218880, Note_on_c, 8, 43, 95
6, 219840, Note_off_c, 8, 43, 95
6, 220320, Note_on_c, 10, 46, 95
6, 220440, Pitch_bend_c, 10, 8320
6, 220560, Pitch_bend_c, 10, 8448
6, 220680, Pitch_bend_c, 10, 8704
6, 220800, Pitch_bend_c, 10, 8832
6, 220800, Pitch_bend_c, 10, 8192
6, 220800, Note_off_c, 10, 46, 95
6, 220800, Note_on_c, 8, 47, 95
6, 221280, Note_off_c, 8, 47, 95
6, 221280, Note_on_c, 8, 50, 95
6, 221760, Note_off_c, 8, 50, 95
6, 221760, Note_on_c, 8, 52, 95
6, 222720, Note_off_c, 8, 52, 95
6, 222720, Note_on_c, 8, 51, 95
6, 223680, Note_off_c, 8, 51, 95
6, 224160, Note_on_c, 8, 55, 95
6, 225120, Note_off_c, 8, 55, 95
6, 225120, Note_on_c, 8, 58, 95
6, 225600, Note_off_c, 8, 58, 95
6, 225600, Note_on_c, 8, 51, 95
6, 226560, Note_off_c, 8, 51, 95
6, 226560, Note_on_c, 8, 57, 95
6, 227520, Note_off_c, 8, 57, 95
6, 228000, Note_on_c, 8, 57, 95
6, 228480, Note_off_c, 8, 57, 95
6, 228480, Note_on_c, 8, 58, 70
6, 228960, Note_off_c, 8, 58, 70
6, 228960, Note_on_c, 8, 57, 70
6, 229440, Note_off_c, 8, 57, 70
6, 229440, Note_on_c, 8, 53, 95
6, 230400, Note_off_c, 8, 53, 95
6, 230400, Note_on_c, 8, 50, 95
6, 231360, Note_off_c, 8, 50, 95
6, 231840, Note_on_c, 8, 53, 95
6, 232800, Note_off_c, 8, 53, 95
6, 232800, Note_on_c, 8, 55, 95
6, 233280, Note_off_c, 8, 55, 95
6, 233280, Note_on_c, 8, 48, 95
6, 234240, Note_off_c, 8, 48, 95
6, 234240, Note_on_c, 8, 53, 95
6, 235200, Note_off_c, 8, 53, 95
6, 235680, Note_on_c, 8, 53, 95
6, 236640, Note_off_c, 8, 53, 95
6, 236640, Note_on_c, 8, 55, 95
6, 237120, Note_off_c, 8, 55, 95
6, 237120, Note_on_c, 8, 50, 95
6, 238080, Note_off_c, 8, 50, 95
6, 238080, Note_on_c, 8, 51, 95
6, 239040, Note_off_c, 8, 51, 95
6, 239520, Note_on_c, 8, 55, 95
6, 240480, Note_off_c, 8, 55, 95
6, 240480, Note_on_c, 8, 58, 95
6, 240960, Note_off_c, 8, 58, 95
6, 240960, Note_on_c, 8, 56, 95
6, 241920, Note_off_c, 8, 56, 95
6, 241920, Note_on_c, 8, 53, 95
6, 242880, Note_off_c, 8, 53, 95
6, 243360, Note_on_c, 8, 57, 95
6, 244320, Note_off_c, 8, 57, 95
6, 244320, Note_on_c, 8, 60, 95
6, 244800, Note_off_c, 8, 60, 95
6, 244800, Note_on_c, 8, 53, 95
6, 245760, Note_off_c, 8, 53, 95
6, 245760, Note_on_c, 8, 43, 95
6, 246720, Note_off_c, 8, 43, 95
6, 247200, Note_on_c, 10, 46, 95
6, 247320, Pitch_bend_c, 10, 8320
6, 247440, Pitch_bend_c, 10, 8448
6, 247560, Pitch_bend_c, 10, 8704
6, 247680, Pitch_bend_c, 10, 8832
6, 247680, Pitch_bend_c, 10, 8192
6, 247680, Note_off_c, 10, 46, 95
6, 247680, Note_on_c, 8, 47, 95
6, 248160, Note_off_c, 8, 47, 95
6, 248160, Note_on_c, 8, 50, 95
6, 248640, Note_off_c, 8, 50, 95
6, 248640, Note_on_c, 8, 52, 95
6, 249600, Note_off_c, 8, 52, 95
6, 249600, Note_on_c, 8, 43, 95
6, 250560, Note_off_c, 8, 43, 95
6, 251040, Note_on_c, 10, 46, 95
6, 251160, Pitch_bend_c, 10, 8320
6, 251280, Pitch_bend_c, 10, 8448
6, 251400, Pitch_bend_c, 10, 8704
6, 251520, Pitch_bend_c, 10, 8832
6, 251520, Pitch_bend_c, 10, 8192
6, 251520, Note_off_c, 10, 46, 95
6, 251520, Note_on_c, 8, 47, 95
6, 252000, Note_off_c, 8, 47, 95
6, 252000, Note_on_c, 8, 50, 95
6, 252480, Note_off_c, 8, 50, 95
6, 252480, Note_on_c, 8, 52, 95
6, 253440, Note_off_c, 8, 52, 95
6, 253440, Note_on_c, 8, 43, 95
6, 254400, Note_off_c, 8, 43, 95
6, 254880, Note_on_c, 10, 46, 95
6, 255000, Pitch_bend_c, 10, 8320
6, 255120, Pitch_bend_c, 10, 8448
6, 255240, Pitch_bend_c, 10, 8704
6, 255360, Pitch_bend_c, 10, 8832
6, 255360, Pitch_bend_c, 10, 8192
6, 255360, Note_off_c, 10, 46, 95
6, 255360, Note_on_c, 8, 47, 95
6, 255840, Note_off_c, 8, 47, 95
6, 255840, Note_on_c, 8, 50, 95
6, 256320, Note_off_c, 8, 50, 95
6, 256320, Note_on_c, 8, 52, 95
6, 257280, Note_off_c, 8, 52, 95
6, 257280, Note_on_c, 8, 43, 95
6, 258240, Note_off_c, 8, 43, 95
6, 258720, Note_on_c, 10, 46, 95
6, 258840, Pitch_bend_c, 10, 8320
6, 258960, Pitch_bend_c, 10, 8448
6, 259080, Pitch_bend_c, 10, 8704
6, 259200, Pitch_bend_c, 10, 8832
6, 259200, Pitch_bend_c, 10, 8192
6, 259200, Note_off_c, 10, 46, 95
6, 259200, Note_on_c, 8, 47, 95
6, 259680, Note_off_c, 8, 47, 95
6, 259680, Note_on_c, 8, 50, 95
6, 260160, Note_off_c, 8, 50, 95
6, 260160, Note_on_c, 8, 52, 95
6, 261120, Note_off_c, 8, 52, 95
6, 261120, Note_on_c, 8, 43, 95
6, 262080, Note_off_c, 8, 43, 95
6, 262560, Note_on_c, 10, 46, 95
6, 262680, Pitch_bend_c, 10, 8320
6, 262800, Pitch_bend_c, 10, 8448
6, 262920, Pitch_bend_c, 10, 8704
6, 263040, Pitch_bend_c, 10, 8832
6, 263040, Pitch_bend_c, 10, 8192
6, 263040, Note_off_c, 10, 46, 95
6, 263040, Note_on_c, 8, 47, 95
6, 263520, Note_off_c, 8, 47, 95
6, 263520, Note_on_c, 8, 50, 95
6, 264000, Note_off_c, 8, 50, 95
6, 264000, Note_on_c, 8, 52, 95
6, 264960, Note_off_c, 8, 52, 95
6, 264960, Note_on_c, 8, 43, 95
6, 265920, Note_off_c, 8, 43, 95
6, 266400, Note_on_c, 10, 46, 95
6, 266520, Pitch_bend_c, 10, 8320
6, 266640, Pitch_bend_c, 10, 8448
6, 266760, Pitch_bend_c, 10, 8704
6, 266880, Pitch_bend_c, 10, 8832
6, 266880, Pitch_bend_c, 10, 8192
6, 266880, Note_off_c, 10, 46, 95
6, 266880, Note_on_c, 8, 47, 95
6, 267360, Note_off_c, 8, 47, 95
6, 267360, Note_on_c, 8, 50, 95
6, 267840, Note_off_c, 8, 50, 95
6, 267840, Note_on_c, 8, 52, 95
6, 268800, Note_off_c, 8, 52, 95
6, 268800, Note_on_c, 8, 48, 95
6, 269760, Note_off_c, 8, 48, 95
6, 270240, Note_on_c, 10, 51, 95
6, 270360, Pitch_bend_c, 10, 8320
6, 270480, Pitch_bend_c, 10, 8448
6, 270600, Pitch_bend_c, 10, 8704
6, 270720, Pitch_bend_c, 10, 8832
6, 270720, Pitch_bend_c, 10, 8192
6, 270720, Note_off_c, 10, 51, 95
6, 270720, Note_on_c, 8, 52, 95
6, 271200, Note_off_c, 8, 52, 95
6, 271200, Note_on_c, 8, 55, 95
6, 271680, Note_off_c, 8, 55, 95
6, 271680, Note_on_c, 8, 57, 95
6, 272640, Note_off_c, 8, 57, 95
6, 272640, Note_on_c, 8, 48, 95
6, 273600, Note_off_c, 8, 48, 95
6, 274080, Note_on_c, 10, 51, 95
6, 274200, Pitch_bend_c, 10, 8320
6, 274320, Pitch_bend_c, 10, 8448
6, 274440, Pitch_bend_c, 10, 8704
6, 274560, Pitch_bend_c, 10, 8832
6, 274560, Pitch_bend_c, 10, 8192
6, 274560, Note_off_c, 10, 51, 95
6, 274560, Note_on_c, 8, 52, 95
6, 275040, Note_off_c, 8, 52, 95
6, 275040, Note_on_c, 8, 55, 95
6, 275520, Note_off_c, 8, 55, 95
6, 275520, Note_on_c, 8, 57, 95
6, 276480, Note_off_c, 8, 57, 95
6, 276480, Note_on_c, 8, 43, 95
6, 277440, Note_off_c, 8, 43, 95
6, 277920, Note_on_c, 10, 46, 95
6, 278040, Pitch_bend_c, 10, 8320
6, 278160, Pitch_bend_c, 10, 8448
6, 278280, Pitch_bend_c, 10, 8704
6, 278400, Pitch_bend_c, 10, 8832
6, 278400, Pitch_bend_c, 10, 8192
6, 278400, Note_off_c, 10, 46, 95
6, 278400, Note_on_c, 8, 47, 95
6, 278880, Note_off_c, 8, 47, 95
6, 278880, Note_on_c, 8, 50, 95
6, 279360, Note_off_c, 8, 50, 95
6, 279360, Note_on_c, 8, 52, 95
6, 280320, Note_off_c, 8, 52, 95
6, 280320, Note_on_c, 8, 43, 95
6, 281280, Note_off_c, 8, 43, 95
6, 281760, Note_on_c, 10, 46, 95
6, 281880, Pitch_bend_c, 10, 8320
6, 282000, Pitch_bend_c, 10, 8448
6, 282120, Pitch_bend_c, 10, 8704
6, 282240, Pitch_bend_c, 10, 8832
6, 282240, Pitch_bend_c, 10, 8192
6, 282240, Note_off_c, 10, 46, 95
6, 282240, Note_on_c, 8, 47, 95
6, 282720, Note_off_c, 8, 47, 95
6, 282720, Note_on_c, 8, 50, 95
6, 283200, Note_off_c, 8, 50, 95
6, 283200, Note_on_c, 8, 52, 95
6, 284160, Note_off_c, 8, 52, 95
6, 284160, Note_on_c, 8, 51, 95
6, 285120, Note_off_c, 8, 51, 95
6, 285600, Note_on_c, 8, 55, 95
6, 286560, Note_off_c, 8, 55, 95
6, 286560, Note_on_c, 8, 58, 95
6, 287040, Note_off_c, 8, 58, 95
6, 287040, Note_on_c, 8, 51, 95
6, 288000, Note_off_c, 8, 51, 95
6, 288000, Note_on_c, 8, 57, 95
6, 288960, Note_off_c, 8, 57, 95
6, 289440, Note_on_c, 8, 57, 95
6, 289920, Note_off_c, 8, 57, 95
6, 289920, Note_on_c, 8, 58, 70
6, 290400, Note_off_c, 8, 58, 70
6, 290400, Note_on_c, 8, 57, 70
6, 290880, Note_off_c, 8, 57, 70
6, 290880, Note_on_c, 8, 53, 95
6, 291840, Note_off_c, 8, 53, 95
6, 291840, Note_on_c, 8, 50, 95
6, 292800, Note_off_c, 8, 50, 95
6, 293280, Note_on_c, 8, 53, 95
6, 294240, Note_off_c, 8, 53, 95
6, 294240, Note_on_c, 8, 55, 95
6, 294720, Note_off_c, 8, 55, 95
6, 294720, Note_on_c, 8, 48, 95
6, 295680, Note_off_c, 8, 48, 95
6, 295680, Note_on_c, 8, 53, 95
6, 296640, Note_off_c, 8, 53, 95
6, 297120, Note_on_c, 8, 53, 95
6, 298080, Note_off_c, 8, 53, 95
6, 298080, Note_on_c, 8, 55, 95
6, 298560, Note_off_c, 8, 55, 95
6, 298560, Note_on_c, 8, 50, 95
6, 299520, Note_off_c, 8, 50, 95
6, 299520, Note_on_c, 8, 51, 95
6, 300480, Note_off_c, 8, 51, 95
6, 300960, Note_on_c, 8, 55, 95
6, 301920, Note_off_c, 8, 55, 95
6, 301920, Note_on_c, 8, 58, 95
6, 302400, Note_off_c, 8, 58, 95
6, 302400, Note_on_c, 8, 56, 95
6, 303360, Note_off_c, 8, 56, 95
6, 303360, Note_on_c, 8, 53, 95
6, 304320, Note_off_c, 8, 53, 95
6, 304800, Note_on_c, 8, 57, 95
6, 305760, Note_off_c, 8, 57, 95
6, 305760, Note_on_c, 8, 60, 95
6, 306240, Note_off_c, 8, 60, 95
6, 306240, Note_on_c, 8, 53, 95
6, 307200, Note_off_c, 8, 53, 95
6, 307200, Note_on_c, 8, 43, 95
6, 308160, Note_off_c, 8, 43, 95
6, 308640, Note_on_c, 10, 46, 95
6, 308760, Pitch_bend_c, 10, 8320
6, 308880, Pitch_bend_c, 10, 8448
6, 309000, Pitch_bend_c, 10, 8704
6, 309120, Pitch_bend_c, 10, 8832
6, 309120, Pitch_bend_c, 10, 8192
6, 309120, Note_off_c, 10, 46, 95
6, 309120, Note_on_c, 8, 47, 95
6, 309600, Note_off_c, 8, 47, 95
6, 309600, Note_on_c, 8, 50, 95
6, 310080, Note_off_c, 8, 50, 95
6, 310080, Note_on_c, 8, 52, 95
6, 311040, Note_off_c, 8, 52, 95
6, 311040, Note_on_c, 8, 43, 95
6, 312000, Note_off_c, 8, 43, 95
6, 312480, Note_on_c, 10, 46, 95
6, 312600, Pitch_bend_c, 10, 8320
6, 312720, Pitch_bend_c, 10, 8448
6, 312840, Pitch_bend_c, 10, 8704
6, 312960, Pitch_bend_c, 10, 8832
6, 312960, Pitch_bend_c, 10, 8192
6, 312960, Note_off_c, 10, 46, 95
6, 312960, Note_on_c, 8, 47, 95
6, 313440, Note_off_c, 8, 47, 95
6, 313440, Note_on_c, 8, 50, 95
6, 313920, Note_off_c, 8, 50, 95
6, 313920, Note_on_c, 8, 52, 95
6, 314880, Note_off_c, 8, 52, 95
6, 314880, Note_on_c, 8, 43, 95
6, 315840, Note_off_c, 8, 43, 95
6, 316320, Note_on_c, 10, 46, 95
6, 316440, Pitch_bend_c, 10, 8320
6, 316560, Pitch_bend_c, 10, 8448
6, 316680, Pitch_bend_c, 10, 8704
6, 316800, Pitch_bend_c, 10, 8832
6, 316800, Pitch_bend_c, 10, 8192
6, 316800, Note_off_c, 10, 46, 95
6, 316800, Note_on_c, 8, 47, 95
6, 317280, Note_off_c, 8, 47, 95
6, 317280, Note_on_c, 8, 50, 95
6, 317760, Note_off_c, 8, 50, 95
6, 317760, Note_on_c, 8, 52, 95
6, 318720, Note_off_c, 8, 52, 95
6, 318720, Note_on_c, 8, 43, 95
6, 319680, Note_off_c, 8, 43, 95
6, 320160, Note_on_c, 10, 46, 95
6, 320280, Pitch_bend_c, 10, 8320
6, 320400, Pitch_bend_c, 10, 8448
6, 320520, Pitch_bend_c, 10, 8704
6, 320640, Pitch_bend_c, 10, 8832
6, 320640, Pitch_bend_c, 10, 8192
6, 320640, Note_off_c, 10, 46, 95
6, 320640, Note_on_c, 8, 47, 95
6, 321120, Note_off_c, 8, 47, 95
6, 321120, Note_on_c, 8, 50, 95
6, 321600, Note_off_c, 8, 50, 95
6, 321600, Note_on_c, 8, 52, 95
6, 322560, Note_off_c, 8, 52, 95
6, 322560, Note_on_c, 8, 43, 95
6, 322880, Note_off_c, 8, 43, 95
6, 322880, Note_on_c, 8, 43, 95
6, 323200, Note_off_c, 8, 43, 95
6, 323200, Note_on_c, 8, 43, 95
6, 323520, Note_off_c, 8, 43, 95
6, 323520, Note_on_c, 8, 47, 95
6, 323840, Note_off_c, 8, 47, 95
6, 323840, Note_on_c, 8, 47, 95
6, 324160, Note_off_c, 8, 47, 95
6, 324160, Note_on_c, 8, 47, 95
6, 324480, Note_off_c, 8, 47, 95
6, 324480, Note_on_c, 8, 50, 95
6, 324800, Note_off_c, 8, 50, 95
6, 324800, Note_on_c, 8, 50, 95
6, 325120, Note_off_c, 8, 50, 95
6, 325120, Note_on_c, 8, 50, 95
6, 325440, Note_off_c, 8, 50, 95
6, 325440, Note_on_c, 8, 52, 95
6, 325760, Note_off_c, 8, 52, 95
6, 325760, Note_on_c, 8, 52, 95
6, 326080, Note_off_c, 8, 52, 95
6, 326080, Note_on_c, 8, 52, 95
6, 326400, Note_off_c, 8, 52, 95
6, 326400, Note_on_c, 8, 53, 95
6, 326720, Note_off_c, 8, 53, 95
6, 326720, Note_on_c, 8, 53, 95
6, 327040, Note_off_c, 8, 53, 95
6, 327040, Note_on_c, 8, 53, 95
6, 327360, Note_off_c, 8, 53, 95
6, 327360, Note_on_c, 8, 52, 95
6, 327680, Note_off_c, 8, 52, 95
6, 327680, Note_on_c, 8, 52, 95
6, 328000, Note_off_c, 8, 52, 95
6, 328000, Note_on_c, 8, 52, 95
6, 328320, Note_off_c, 8, 52, 95
6, 328320, Note_on_c, 8, 50, 95
6, 328640, Note_off_c, 8, 50, 95
6, 328640, Note_on_c, 8, 50, 95
6, 328960, Note_off_c, 8, 50, 95
6, 328960, Note_on_c, 8, 50, 95
6, 329280, Note_off_c, 8, 50, 95
6, 329280, Note_on_c, 8, 47, 95
6, 329600, Note_off_c, 8, 47, 95
6, 329600, Note_on_c, 8, 47, 95
6, 329920, Note_off_c, 8, 47, 95
6, 329920, Note_on_c, 8, 47, 95
6, 330240, Note_off_c, 8, 47, 95
6, 330240, Note_on_c, 8, 43, 95
6, 331200, Note_off_c, 8, 43, 95
6, 331680, Note_on_c, 10, 46, 95
6, 331800, Pitch_bend_c, 10, 8320
6, 331920, Pitch_bend_c, 10, 8448
6, 332040, Pitch_bend_c, 10, 8704
6, 332160, Pitch_bend_c, 10, 8832
6, 332160, Pitch_bend_c, 10, 8192
6, 332160, Note_off_c, 10, 46, 95
6, 332160, Note_on_c, 8, 47, 95
6, 332640, Note_off_c, 8, 47, 95
6, 332640, Note_on_c, 8, 50, 95
6, 333120, Note_off_c, 8, 50, 95
6, 333120, Note_on_c, 8, 52, 95
6, 334080, Note_off_c, 8, 52, 95
6, 334080, Note_on_c, 8, 43, 95
6, 335040, Note_off_c, 8, 43, 95
6, 335520, Note_on_c, 10, 46, 95
6, 335640, Pitch_bend_c, 10, 8320
6, 335760, Pitch_bend_c, 10, 8448
6, 335880, Pitch_bend_c, 10, 8704
6, 336000, Pitch_bend_c, 10, 8832
6, 336000, Pitch_bend_c, 10, 8192
6, 336000, Note_off_c, 10, 46, 95
6, 336000, Note_on_c, 8, 47, 95
6, 336480, Note_off_c, 8, 47, 95
6, 336480, Note_on_c, 8, 50, 95
6, 336960, Note_off_c, 8, 50, 95
6, 336960, Note_on_c, 8, 52, 95
6, 337920, Note_off_c, 8, 52, 95
6, 337920, Note_on_c, 8, 43, 95
6, 338880, Note_off_c, 8, 43, 95
6, 339360, Note_on_c, 10, 46, 95
6, 339480, Pitch_bend_c, 10, 8320
6, 339600, Pitch_bend_c, 10, 8448
6, 339720, Pitch_bend_c, 10, 8704
6, 339840, Pitch_bend_c, 10, 8832
6, 339840, Pitch_bend_c, 10, 8192
6, 339840, Note_off_c, 10, 46, 95
6, 339840, Note_on_c, 8, 47, 95
6, 340320, Note_off_c, 8, 47, 95
6, 340320, Note_on_c, 8, 50, 95
6, 340800, Note_off_c, 8, 50, 95
6, 340800, Note_on_c, 8, 52, 95
6, 341760, Note_off_c, 8, 52, 95
6, 341760, Note_on_c, 8, 43, 95
6, 342720, Note_off_c, 8, 43, 95
6, 343200, Note_on_c, 10, 46, 95
6, 343320, Pitch_bend_c, 10, 8320
6, 343440, Pitch_bend_c, 10, 8448
6, 343560, Pitch_bend_c, 10, 8704
6, 343680, Pitch_bend_c, 10, 8832
6, 343680, Pitch_bend_c, 10, 8192
6, 343680, Note_off_c, 10, 46, 95
6, 343680, Note_on_c, 8, 47, 95
6, 344160, Note_off_c, 8, 47, 95
6, 344160, Note_on_c, 8, 50, 95
6, 344640, Note_off_c, 8, 50, 95
6, 344640, Note_on_c, 8, 52, 95
6, 345600, Note_off_c, 8, 52, 95
6, 345600, Note_on_c, 8, 48, 95
6, 346560, Note_off_c, 8, 48, 95
6, 347040, Note_on_c, 10, 51, 95
6, 347160, Pitch_bend_c, 10, 8320
6, 347280, Pitch_bend_c, 10, 8448
6, 347400, Pitch_bend_c, 10, 8704
6, 347520, Pitch_bend_c, 10, 8832
6, 347520, Pitch_bend_c, 10, 8192
6, 347520, Note_off_c, 10, 51, 95
6, 347520, Note_on_c, 8, 52, 95
6, 348000, Note_off_c, 8, 52, 95
6, 348000, Note_on_c, 8, 55, 95
6, 348480, Note_off_c, 8, 55, 95
6, 348480, Note_on_c, 8, 57, 95
6, 349440, Note_off_c, 8, 57, 95
6, 349440, Note_on_c, 8, 48, 95
6, 350400, Note_off_c, 8, 48, 95
6, 350880, Note_on_c, 10, 51, 95
6, 351000, Pitch_bend_c, 10, 8320
6, 351120, Pitch_bend_c, 10, 8448
6, 351240, Pitch_bend_c, 10, 8704
6, 351360, Pitch_bend_c, 10, 8832
6, 351360, Pitch_bend_c, 10, 8192
6, 351360, Note_off_c, 10, 51, 95
6, 351360, Note_on_c, 8, 52, 95
6, 351840, Note_off_c, 8, 52, 95
6, 351840, Note_on_c, 8, 55, 95
6, 352320, Note_off_c, 8, 55, 95
6, 352320, Note_on_c, 8, 57, 95
6, 353280, Note_off_c, 8, 57, 95
6, 353280, Note_on_c, 8, 43, 95
6, 354240, Note_off_c, 8, 43, 95
6, 354720, Note_on_c, 10, 46, 95
6, 354840, Pitch_bend_c, 10, 8320
6, 354960, Pitch_bend_c, 10, 8448
6, 355080, Pitch_bend_c, 10, 8704
6, 355200, Pitch_bend_c, 10, 8832
6, 355200, Pitch_bend_c, 10, 8192
6, 355200, Note_off_c, 10, 46, 95
6, 355200, Note_on_c, 8, 47, 95
6, 355680, Note_off_c, 8, 47, 95
6, 355680, Note_on_c, 8, 50, 95
6, 356160, Note_off_c, 8, 50, 95
6, 356160, Note_on_c, 8, 52, 95
6, 357120, Note_off_c, 8, 52, 95
6, 357120, Note_on_c, 8, 43, 95
6, 358080, Note_off_c, 8, 43, 95
6, 358560, Note_on_c, 10, 46, 95
6, 358680, Pitch_bend_c, 10, 8320
6, 358800, Pitch_bend_c, 10, 8448
6, 358920, Pitch_bend_c, 10, 8704
6, 359040, Pitch_bend_c, 10, 8832
6, 359040, Pitch_bend_c, 10, 8192
6, 359040, Note_off_c, 10, 46, 95
6, 359040, Note_on_c, 8, 47, 95
6, 359520, Note_off_c, 8, 47, 95
6, 359520, Note_on_c, 8, 50, 95
6, 360000, Note_off_c, 8, 50, 95
6, 360000, Note_on_c, 8, 52, 95
6, 360960, Note_off_c, 8, 52, 95
6, 360960, Note_on_c, 8, 51, 95
6, 361920, Note_off_c, 8, 51, 95
6, 362400, Note_on_c, 8, 55, 95
6, 363360, Note_off_c, 8, 55, 95
6, 363360, Note_on_c, 8, 58, 95
6, 363840, Note_off_c, 8, 58, 95
6, 363840, Note_on_c, 8, 51, 95
6, 364800, Note_off_c, 8, 51, 95
6, 364800, Note_on_c, 8, 57, 95
6, 365760, Note_off_c, 8, 57, 95
6, 366240, Note_on_c, 8, 57, 95
6, 366720, Note_off_c, 8, 57, 95
6, 366720, Note_on_c, 8, 58, 70
6, 367200, Note_off_c, 8, 58, 70
6, 367200, Note_on_c, 8, 57, 70
6, 367680, Note_off_c, 8, 57, 70
6, 367680, Note_on_c, 8, 53, 95
6, 368640, Note_off_c, 8, 53, 95
6, 368640, Note_on_c, 8, 50, 95
6, 369600, Note_off_c, 8, 50, 95
6, 370080, Note_on_c, 8, 53, 95
6, 371040, Note_off_c, 8, 53, 95
6, 371040, Note_on_c, 8, 55, 95
6, 371520, Note_off_c, 8, 55, 95
6, 371520, Note_on_c, 8, 48, 95
6, 372480, Note_off_c, 8, 48, 95
6, 372480, Note_on_c, 8, 53, 95
6, 373440, Note_off_c, 8, 53, 95
6, 373920, Note_on_c, 8, 53, 95
6, 374880, Note_off_c, 8, 53, 95
6, 374880, Note_on_c, 8, 55, 95
6, 375360, Note_off_c, 8, 55, 95
6, 375360, Note_on_c, 8, 50, 95
6, 376320, Note_off_c, 8, 50, 95
6, 376320, Note_on_c, 8, 51, 95
6, 377280, Note_off_c, 8, 51, 95
6, 377760, Note_on_c, 8, 55, 95
6, 378720, Note_off_c, 8, 55, 95
6, 378720, Note_on_c, 8, 58, 95
6, 379200, Note_off_c, 8, 58, 95
6, 379200, Note_on_c, 8, 56, 95
6, 380160, Note_off_c, 8, 56, 95
6, 380160, Note_on_c, 8, 53, 95
6, 381120, Note_off_c, 8, 53, 95
6, 381600, Note_on_c, 8, 57, 95
6, 382560, Note_off_c, 8, 57, 95
6, 382560, Note_on_c, 8, 60, 95
6, 383040, Note_off_c, 8, 60, 95
6, 383040, Note_on_c, 8, 53, 95
6, 384000, Note_off_c, 8, 53, 95
6, 384000, Note_on_c, 8, 43, 95
6, 384960, Note_off_c, 8, 43, 95
6, 385440, Note_on_c, 10, 46, 95
6, 385560, Pitch_bend_c, 10, 8320
6, 385680, Pitch_bend_c, 10, 8448
6, 385800, Pitch_bend_c, 10, 8704
6, 385920, Pitch_bend_c, 10, 8832
6, 385920, Pitch_bend_c, 10, 8192
6, 385920, Note_off_c, 10, 46, 95
6, 385920, Note_on_c, 8, 47, 95
6, 386400, Note_off_c, 8, 47, 95
6, 386400, Note_on_c, 8, 50, 95
6, 386880, Note_off_c, 8, 50, 95
6, 386880, Note_on_c, 8, 52, 95
6, 387840, Note_off_c, 8, 52, 95
6, 387840, Note_on_c, 8, 43, 95
6, 388800, Note_off_c, 8, 43, 95
6, 389280, Note_on_c, 10, 46, 95
6, 389400, Pitch_bend_c, 10, 8320
6, 389520, Pitch_bend_c, 10, 8448
6, 389640, Pitch_bend_c, 10, 8704
6, 389760, Pitch_bend_c, 10, 8832
6, 389760, Pitch_bend_c, 10, 8192
6, 389760, Note_off_c, 10, 46, 95
6, 389760, Note_on_c, 8, 47, 95
6, 390240, Note_off_c, 8, 47, 95
6, 390240, Note_on_c, 8, 50, 95
6, 390720, Note_off_c, 8, 50, 95
6, 390720, Note_on_c, 8, 52, 95
6, 391680, Note_off_c, 8, 52, 95
6, 391680, Note_on_c, 8, 43, 95
6, 392640, Note_off_c, 8, 43, 95
6, 393120, Note_on_c, 10, 46, 95
6, 393240, Pitch_bend_c, 10, 8320
6, 393360, Pitch_bend_c, 10, 8448
6, 393480, Pitch_bend_c, 10, 8704
6, 393600, Pitch_bend_c, 10, 8832
6, 393600, Pitch_bend_c, 10, 8192
6, 393600, Note_off_c, 10, 46, 95
6, 393600, Note_on_c, 8, 47, 95
6, 394080, Note_off_c, 8, 47, 95
6, 394080, Note_on_c, 8, 50, 95
6, 394560, Note_off_c, 8, 50, 95
6, 394560, Note_on_c, 8, 52, 95
6, 395520, Note_off_c, 8, 52, 95
6, 395520, Note_on_c, 8, 43, 95
6, 396480, Note_off_c, 8, 43, 95
6, 396960, Note_on_c, 10, 46, 95
6, 397080, Pitch_bend_c, 10, 8320
6, 397200, Pitch_bend_c, 10, 8448
6, 397320, Pitch_bend_c, 10, 8704
6, 397440, Pitch_bend_c, 10, 8832
6, 397440, Pitch_bend_c, 10, 8192
6, 397440, Note_off_c, 10, 46, 95
6, 397440, Note_on_c, 8, 47, 95
6, 397920, Note_off_c, 8, 47, 95
6, 397920, Note_on_c, 8, 50, 95
6, 398400, Note_off_c, 8, 50, 95
6, 398400, Note_on_c, 8, 52, 95
6, 399360, Note_off_c, 8, 52, 95
6, 399360, Note_on_c, 8, 43, 95
6, 400320, Note_off_c, 8, 43, 95
6, 400800, Note_on_c, 10, 46, 95
6, 400920, Pitch_bend_c, 10, 8320
6, 401040, Pitch_bend_c, 10, 8448
6, 401160, Pitch_bend_c, 10, 8704
6, 401280, Pitch_bend_c, 10, 8832
6, 401280, Pitch_bend_c, 10, 8192
6, 401280, Note_off_c, 10, 46, 95
6, 401280, Note_on_c, 8, 47, 95
6, 401760, Note_off_c, 8, 47, 95
6, 401760, Note_on_c, 8, 50, 95
6, 402240, Note_off_c, 8, 50, 95
6, 402240, Note_on_c, 8, 52, 95
6, 403200, Note_off_c, 8, 52, 95
6, 403200, Note_on_c, 8, 43, 95
6, 404160, Note_off_c, 8, 43, 95
6, 404640, Note_on_c, 10, 46, 95
6, 404760, Pitch_bend_c, 10, 8320
6, 404880, Pitch_bend_c, 10, 8448
6, 405000, Pitch_bend_c, 10, 8704
6, 405120, Pitch_bend_c, 10, 8832
6, 405120, Pitch_bend_c, 10, 8192
6, 405120, Note_off_c, 10, 46, 95
6, 405120, Note_on_c, 8, 47, 95
6, 405600, Note_off_c, 8, 47, 95
6, 405600, Note_on_c, 8, 50, 95
6, 406080, Note_off_c, 8, 50, 95
6, 406080, Note_on_c, 8, 52, 95
6, 407040, Note_off_c, 8, 52, 95
6, 407040, Note_on_c, 8, 48, 95
6, 408000, Note_off_c, 8, 48, 95
6, 408480, Note_on_c, 10, 51, 95
6, 408600, Pitch_bend_c, 10, 8320
6, 408720, Pitch_bend_c, 10, 8448
6, 408840, Pitch_bend_c, 10, 8704
6, 408960, Pitch_bend_c, 10, 8832
6, 408960, Pitch_bend_c, 10, 8192
6, 408960, Note_off_c, 10, 51, 95
6, 408960, Note_on_c, 8, 52, 95
6, 409440, Note_off_c, 8, 52, 95
6, 409440, Note_on_c, 8, 55, 95
6, 409920, Note_off_c, 8, 55, 95
6, 409920, Note_on_c, 8, 57, 95
6, 410880, Note_off_c, 8, 57, 95
6, 410880, Note_on_c, 8, 48, 95
6, 411840, Note_off_c, 8, 48, 95
6, 412320, Note_on_c, 10, 51, 95
6, 412440, Pitch_bend_c, 10, 8320
6, 412560, Pitch_bend_c, 10, 8448
6, 412680, Pitch_bend_c, 10, 8704
6, 412800, Pitch_bend_c, 10, 8832
6, 412800, Pitch_bend_c, 10, 8192
6, 412800, Note_off_c, 10, 51, 95
6, 412800, Note_on_c, 8, 52, 95
6, 413280, Note_off_c, 8, 52, 95
6, 413280, Note_on_c, 8, 55, 95
6, 413760, Note_off_c, 8, 55, 95
6, 413760, Note_on_c, 8, 57, 95
6, 414720, Note_off_c, 8, 57, 95
6, 414720, Note_on_c, 8, 43, 95
6, 415680, Note_off_c, 8, 43, 95
6, 416160, Note_on_c, 10, 46, 95
6, 416280, Pitch_bend_c, 10, 8320
6, 416400, Pitch_bend_c, 10, 8448
6, 416520, Pitch_bend_c, 10, 8704
6, 416640, Pitch_bend_c, 10, 8832
6, 416640, Pitch_bend_c, 10, 8192
6, 416640, Note_off_c, 10, 46, 95
6, 416640, Note_on_c, 8, 47, 95
6, 417120, Note_off_c, 8, 47, 95
6, 417120, Note_on_c, 8, 50, 95
6, 417600, Note_off_c, 8, 50, 95
6, 417600, Note_on_c, 8, 52, 95
6, 418560, Note_off_c, 8, 52, 95
6, 418560, Note_on_c, 8, 43, 95
6, 419520, Note_off_c, 8, 43, 95
6, 420000, Note_on_c, 10, 46, 95
6, 420120, Pitch_bend_c, 10, 8320
6, 420240, Pitch_bend_c, 10, 8448
6, 420360, Pitch_bend_c, 10, 8704
6, 420480, Pitch_bend_c, 10, 8832
6, 420480, Pitch_bend_c, 10, 8192
6, 420480, Note_off_c, 10, 46, 95
6, 420480, Note_on_c, 8, 47, 95
6, 420960, Note_off_c, 8, 47, 95
6, 420960, Note_on_c, 8, 50, 95
6, 421440, Note_off_c, 8, 50, 95
6, 421440, Note_on_c, 8, 52, 95
6, 422400, Note_off_c, 8, 52, 95
6, 422400, Note_on_c, 8, 51, 95
6, 423360, Note_off_c, 8, 51, 95
6, 423840, Note_on_c, 8, 55, 95
6, 424800, Note_off_c, 8, 55, 95
6, 424800, Note_on_c, 8, 58, 95
6, 425280, Note_off_c, 8, 58, 95
6, 425280, Note_on_c, 8, 51, 95
6, 426240, Note_off_c, 8, 51, 95
6, 426240, Note_on_c, 8, 57, 95
6, 427200, Note_off_c, 8, 57, 95
6, 427680, Note_on_c, 8, 57, 95
6, 428160, Note_off_c, 8, 57, 95
6, 428160, Note_on_c, 8, 58, 70
6, 428640, Note_off_c, 8, 58, 70
6, 428640, Note_on_c, 8, 57, 70
6, 429120, Note_off_c, 8, 57, 70
6, 429120, Note_on_c, 8, 53, 95
6, 430080, Note_off_c, 8, 53, 95
6, 430080, Note_on_c, 8, 63, 95
6, 430080, Note_on_c, 8, 58, 95
6, 430080, Note_on_c, 8, 51, 95
6, 431040, Note_off_c, 8, 63, 95
6, 431040, Note_off_c, 8, 58, 95
6, 431040, Note_off_c, 8, 51, 95
6, 433440, Note_on_c, 8, 57, 95
6, 433440, Note_on_c, 8, 52, 95
6, 433440, Note_on_c, 8, 45, 95
6, 434400, Note_off_c, 8, 57, 95
6, 434400, Note_off_c, 8, 52, 95
6, 434400, Note_off_c, 8, 45, 95
6, 437280, Note_on_c, 8, 62, 95
6, 437280, Note_on_c, 8, 57, 95
6, 437280, Note_on_c, 8, 50, 95
6, 438240, Note_off_c, 8, 62, 95
6, 438240, Note_off_c, 8, 57, 95
6, 438240, Note_off_c, 8, 50, 95
6, 441600, Note_on_c, 8, 53, 95
6, 441600, Note_on_c, 8, 48, 95
6, 441600, Note_on_c, 8, 41, 95
6, 442560, Note_off_c, 8, 53, 95
6, 442560, Note_off_c, 8, 48, 95
6, 442560, Note_off_c, 8, 41, 95
6, 444960, Note_on_c, 8, 63, 95
6, 444960, Note_on_c, 8, 58, 95
6, 444960, Note_on_c, 8, 51, 95
6, 445920, Note_off_c, 8, 63, 95
6, 445920, Note_off_c, 8, 58, 95
6, 445920, Note_off_c, 8, 51, 95
6, 448800, Note_on_c, 8, 65, 95
6, 448800, Note_on_c, 8, 60, 95
6, 448800, Note_on_c, 8, 53, 95
6, 449760, Note_off_c, 8, 65, 95
6, 449760, Note_off_c, 8, 60, 95
6, 449760, Note_off_c, 8, 53, 95
6, 453120, Note_on_c, 10, 55, 95
6, 453120, Note_on_c, 8, 50, 95
6, 453120, Note_on_c, 8, 43, 95
6, 454080, Note_off_c, 10, 55, 95
6, 454080, Note_off_c, 8, 50, 95
6, 454080, Note_off_c, 8, 43, 95
6, 467520, Note_on_c, 8, 65, 95
6, 467520, Note_on_c, 8, 60, 95
6, 467520, Note_on_c, 8, 57, 95
6, 467520, Note_on_c, 8, 53, 95
6, 467520, Note_on_c, 8, 48, 95
6, 467520, Note_on_c, 8, 41, 95
6, 468480, Note_off_c, 8, 65, 95
6, 468480, Note_off_c, 8, 60, 95
6, 468480, Note_off_c, 8, 57, 95
6, 468480, Note_off_c, 8, 53, 95
6, 468480, Note_off_c, 8, 48, 95
6, 468480, Note_off_c, 8, 41, 95
6, 468480, Note_on_c, 8, 43, 95
6, 469440, Note_off_c, 8, 43, 95
6, 469920, Note_on_c, 10, 46, 95
6, 470040, Pitch_bend_c, 10, 8320
6, 470160, Pitch_bend_c, 10, 8448
6, 470280, Pitch_bend_c, 10, 8704
6, 470400, Pitch_bend_c, 10, 8832
6, 470400, Pitch_bend_c, 10, 8192
6, 470400, Note_off_c, 10, 46, 95
6, 470400, Note_on_c, 8, 47, 95
6, 470880, Note_off_c, 8, 47, 95
6, 470880, Note_on_c, 8, 50, 95
6, 471360, Note_off_c, 8, 50, 95
6, 471360, Note_on_c, 8, 52, 95
6, 472320, Note_off_c, 8, 52, 95
6, 472320, Note_on_c, 8, 43, 95
6, 473280, Note_off_c, 8, 43, 95
6, 473760, Note_on_c, 10, 46, 95
6, 473880, Pitch_bend_c, 10, 8320
6, 474000, Pitch_bend_c, 10, 8448
6, 474120, Pitch_bend_c, 10, 8704
6, 474240, Pitch_bend_c, 10, 8832
6, 474240, Pitch_bend_c, 10, 8192
6, 474240, Note_off_c, 10, 46, 95
6, 474240, Note_on_c, 8, 47, 95
6, 474720, Note_off_c, 8, 47, 95
6, 474720, Note_on_c, 8, 50, 95
6, 475200, Note_off_c, 8, 50, 95
6, 475200, Note_on_c, 8, 52, 95
6, 476160, Note_off_c, 8, 52, 95
6, 476160, Note_on_c, 8, 43, 95
6, 477120, Note_off_c, 8, 43, 95
6, 477600, Note_on_c, 10, 46, 95
6, 477720, Pitch_bend_c, 10, 8320
6, 477840, Pitch_bend_c, 10, 8448
6, 477960, Pitch_bend_c, 10, 8704
6, 478080, Pitch_bend_c, 10, 8832
6, 478080, Pitch_bend_c, 10, 8192
6, 478080, Note_off_c, 10, 46, 95
6, 478080, Note_on_c, 8, 47, 95
6, 478560, Note_off_c, 8, 47, 95
6, 478560, Note_on_c, 8, 50, 95
6, 479040, Note_off_c, 8, 50, 95
6, 479040, Note_on_c, 8, 52, 95
6, 480000, Note_off_c, 8, 52, 95
6, 480000, Note_on_c, 8, 43, 95
6, 480960, Note_off_c, 8, 43, 95
6, 481440, Note_on_c, 10, 46, 95
6, 481560, Pitch_bend_c, 10, 8320
6, 481680, Pitch_bend_c, 10, 8448
6, 481800, Pitch_bend_c, 10, 8704
6, 481920, Pitch_bend_c, 10, 8832
6, 481920, Pitch_bend_c, 10, 8192
6, 481920, Note_off_c, 10, 46, 95
6, 481920, Note_on_c, 8, 47, 95
6, 482400, Note_off_c, 8, 47, 95
6, 482400, Note_on_c, 8, 50, 95
6, 482880, Note_off_c, 8, 50, 95
6, 482880, Note_on_c, 8, 52, 95
6, 483840, Note_off_c, 8, 52, 95
6, 483840, Note_on_c, 8, 48, 95
6, 484800, Note_off_c, 8, 48, 95
6, 485280, Note_on_c, 10, 51, 95
6, 485400, Pitch_bend_c, 10, 8320
6, 485520, Pitch_bend_c, 10, 8448
6, 485640, Pitch_bend_c, 10, 8704
6, 485760, Pitch_bend_c, 10, 8832
6, 485760, Pitch_bend_c, 10, 8192
6, 485760, Note_off_c, 10, 51, 95
6, 485760, Note_on_c, 8, 52, 95
6, 486240, Note_off_c, 8, 52, 95
6, 486240, Note_on_c, 8, 55, 95
6, 486720, Note_off_c, 8, 55, 95
6, 486720, Note_on_c, 8, 57, 95
6, 487680, Note_off_c, 8, 57, 95
6, 487680, Note_on_c, 8, 48, 95
6, 488640, Note_off_c, 8, 48, 95
6, 489120, Note_on_c, 10, 51, 95
6, 489240, Pitch_bend_c, 10, 8320
6, 489360, Pitch_bend_c, 10, 8448
6, 489480, Pitch_bend_c, 10, 8704
6, 489600, Pitch_bend_c, 10, 8832
6, 489600, Pitch_bend_c, 10, 8192
6, 489600, Note_off_c, 10, 51, 95
6, 489600, Note_on_c, 8, 52, 95
6, 490080, Note_off_c, 8, 52, 95
6, 490080, Note_on_c, 8, 55, 95
6, 490560, Note_off_c, 8, 55, 95
6, 490560, Note_on_c, 8, 57, 95
6, 491520, Note_off_c, 8, 57, 95
6, 491520, Note_on_c, 8, 43, 95
6, 492480, Note_off_c, 8, 43, 95
6, 492960, Note_on_c, 10, 46, 95
6, 493080, Pitch_bend_c, 10, 8320
6, 493200, Pitch_bend_c, 10, 8448
6, 493320, Pitch_bend_c, 10, 8704
6, 493440, Pitch_bend_c, 10, 8832
6, 493440, Pitch_bend_c, 10, 8192
6, 493440, Note_off_c, 10, 46, 95
6, 493440, Note_on_c, 8, 47, 95
6, 493920, Note_off_c, 8, 47, 95
6, 493920, Note_on_c, 8, 50, 95
6, 494400, Note_off_c, 8, 50, 95
6, 494400, Note_on_c, 8, 52, 95
6, 495360, Note_off_c, 8, 52, 95
6, 495360, Note_on_c, 8, 43, 95
6, 496320, Note_off_c, 8, 43, 95
6, 496800, Note_on_c, 10, 46, 95
6, 496920, Pitch_bend_c, 10, 8320
6, 497040, Pitch_bend_c, 10, 8448
6, 497160, Pitch_bend_c, 10, 8704
6, 497280, Pitch_bend_c, 10, 8832
6, 497280, Pitch_bend_c, 10, 8192
6, 497280, Note_off_c, 10, 46, 95
6, 497280, Note_on_c, 8, 47, 95
6, 497760, Note_off_c, 8, 47, 95
6, 497760, Note_on_c, 8, 50, 95
6, 498240, Note_off_c, 8, 50, 95
6, 498240, Note_on_c, 8, 52, 95
6, 499200, Note_off_c, 8, 52, 95
6, 499200, Note_on_c, 8, 51, 95
6, 500160, Note_off_c, 8, 51, 95
6, 500640, Note_on_c, 8, 55, 95
6, 501600, Note_off_c, 8, 55, 95
6, 501600, Note_on_c, 8, 58, 95
6, 502080, Note_off_c, 8, 58, 95
6, 502080, Note_on_c, 8, 51, 95
6, 503040, Note_off_c, 8, 51, 95
6, 503040, Note_on_c, 8, 57, 95
6, 504000, Note_off_c, 8, 57, 95
6, 504480, Note_on_c, 8, 57, 95
6, 504960, Note_off_c, 8, 57, 95
6, 504960, Note_on_c, 8, 58, 70
6, 505440, Note_off_c, 8, 58, 70
6, 505440, Note_on_c, 8, 57, 70
6, 505920, Note_off_c, 8, 57, 70
6, 505920, Note_on_c, 8, 53, 95
6, 506880, Note_off_c, 8, 53, 95
6, 506880, Note_on_c, 8, 50, 95
6, 507840, Note_off_c, 8, 50, 95
6, 508320, Note_on_c, 8, 53, 95
6, 509280, Note_off_c, 8, 53, 95
6, 509280, Note_on_c, 8, 55, 95
6, 509760, Note_off_c, 8, 55, 95
6, 509760, Note_on_c, 8, 48, 95
6, 510720, Note_off_c, 8, 48, 95
6, 510720, Note_on_c, 8, 53, 95
6, 511680, Note_off_c, 8, 53, 95
6, 512160, Note_on_c, 8, 53, 95
6, 513120, Note_off_c, 8, 53, 95
6, 513120, Note_on_c, 8, 55, 95
6, 513600, Note_off_c, 8, 55, 95
6, 513600, Note_on_c, 8, 50, 95
6, 514560, Note_off_c, 8, 50, 95
6, 514560, Note_on_c, 8, 51, 95
6, 515520, Note_off_c, 8, 51, 95
6, 516000, Note_on_c, 8, 55, 95
6, 516960, Note_off_c, 8, 55, 95
6, 516960, Note_on_c, 8, 58, 95
6, 517440, Note_off_c, 8, 58, 95
6, 517440, Note_on_c, 8, 56, 95
6, 518400, Note_off_c, 8, 56, 95
6, 518400, Note_on_c, 8, 53, 95
6, 519360, Note_off_c, 8, 53, 95
6, 519840, Note_on_c, 8, 57, 95
6, 520800, Note_off_c, 8, 57, 95
6, 520800, Note_on_c, 8, 60, 95
6, 521280, Note_off_c, 8, 60, 95
6, 521280, Note_on_c, 8, 53, 95
6, 522240, Note_off_c, 8, 53, 95
6, 522240, Note_on_c, 8, 43, 95
6, 523200, Note_off_c, 8, 43, 95
6, 523680, Note_on_c, 10, 46, 95
6, 523800, Pitch_bend_c, 10, 8320
6, 523920, Pitch_bend_c, 10, 8448
6, 524040, Pitch_bend_c, 10, 8704
6, 524160, Pitch_bend_c, 10, 8832
6, 524160, Pitch_bend_c, 10, 8192
6, 524160, Note_off_c, 10, 46, 95
6, 524160, Note_on_c, 8, 47, 95
6, 524640, Note_off_c, 8, 47, 95
6, 524640, Note_on_c, 8, 50, 95
6, 525120, Note_off_c, 8, 50, 95
6, 525120, Note_on_c, 8, 52, 95
6, 526080, Note_off_c, 8, 52, 95
6, 526080, Note_on_c, 8, 43, 95
6, 527040, Note_off_c, 8, 43, 95
6, 527520, Note_on_c, 10, 46, 95
6, 527640, Pitch_bend_c, 10, 8320
6, 527760, Pitch_bend_c, 10, 8448
6, 527880, Pitch_bend_c, 10, 8704
6, 528000, Pitch_bend_c, 10, 8832
6, 528000, Pitch_bend_c, 10, 8192
6, 528000, Note_off_c, 10, 46, 95
6, 528000, Note_on_c, 8, 47, 95
6, 528480, Note_off_c, 8, 47, 95
6, 528480, Note_on_c, 8, 50, 95
6, 528960, Note_off_c, 8, 50, 95
6, 528960, Note_on_c, 8, 52, 95
6, 529920, Note_off_c, 8, 52, 95
6, 529920, Note_on_c, 8, 43, 95
6, 530880, Note_off_c, 8, 43, 95
6, 531360, Note_on_c, 10, 46, 95
6, 531480, Pitch_bend_c, 10, 8320
6, 531600, Pitch_bend_c, 10, 8448
6, 531720, Pitch_bend_c, 10, 8704
6, 531840, Pitch_bend_c, 10, 8832
6, 531840, Pitch_bend_c, 10, 8192
6, 531840, Note_off_c, 10, 46, 95
6, 531840, Note_on_c, 8, 47, 95
6, 532320, Note_off_c, 8, 47, 95
6, 532320, Note_on_c, 8, 50, 95
6, 532800, Note_off_c, 8, 50, 95
6, 532800, Note_on_c, 8, 52, 95
6, 533760, Note_off_c, 8, 52, 95
6, 533760, Note_on_c, 8, 43, 95
6, 534720, Note_off_c, 8, 43, 95
6, 535200, Note_on_c, 10, 46, 95
6, 535320, Pitch_bend_c, 10, 8320
6, 535440, Pitch_bend_c, 10, 8448
6, 535560, Pitch_bend_c, 10, 8704
6, 535680, Pitch_bend_c, 10, 8832
6, 535680, Pitch_bend_c, 10, 8192
6, 535680, Note_off_c, 10, 46, 95
6, 535680, Note_on_c, 8, 47, 95
6, 536160, Note_off_c, 8, 47, 95
6, 536160, Note_on_c, 8, 50, 95
6, 536640, Note_off_c, 8, 50, 95
6, 536640, Note_on_c, 8, 52, 95
6, 537600, Note_off_c, 8, 52, 95
6, 545280, Note_on_c, 10, 62, 95
6, 545440, Pitch_bend_c, 10, 8832
6, 545600, Pitch_bend_c, 10, 9600
6, 545600, Pitch_bend_c, 10, 8192
6, 545600, Note_off_c, 10, 62, 95
6, 545600, Note_on_c, 10, 64, 95
6, 545760, Pitch_bend_c, 10, 8448
6, 545920, Pitch_bend_c, 10, 8832
6, 545920, Pitch_bend_c, 10, 8192
6, 545920, Note_off_c, 10, 64, 95
6, 545920, Note_on_c, 10, 65, 95
6, 546080, Pitch_bend_c, 10, 8832
6, 546240, Pitch_bend_c, 10, 9600
6, 546240, Pitch_bend_c, 10, 8192
6, 546240, Note_off_c, 10, 65, 95
6, 546240, Note_on_c, 10, 67, 95
6, 546400, Pitch_bend_c, 10, 7552
6, 546560, Pitch_bend_c, 10, 6784
6, 546560, Pitch_bend_c, 10, 8192
6, 546560, Note_off_c, 10, 67, 95
6, 546560, Note_on_c, 10, 65, 95
6, 546720, Pitch_bend_c, 10, 7936
6, 546880, Pitch_bend_c, 10, 7552
6, 546880, Pitch_bend_c, 10, 8192
6, 546880, Note_off_c, 10, 65, 95
6, 546880, Note_on_c, 10, 64, 95
6, 547040, Pitch_bend_c, 10, 7552
6, 547200, Pitch_bend_c, 10, 6784
6, 547200, Pitch_bend_c, 10, 8192
6, 547200, Note_off_c, 10, 64, 95
6, 547200, Note_on_c, 8, 62, 95
6, 547520, Note_off_c, 8, 62, 95
6, 547520, Note_on_c, 8, 64, 95
6, 547840, Note_off_c, 8, 64, 95
6, 547840, Note_on_c, 8, 65, 95
6, 548160, Note_off_c, 8, 65, 95
6, 548160, Note_on_c, 8, 67, 95
6, 548480, Note_off_c, 8, 67, 95
6, 548480, Note_on_c, 8, 65, 95
6, 548800, Note_off_c, 8, 65, 95
6, 548800, Note_on_c, 8, 64, 95
6, 549120, Note_off_c, 8, 64, 95
6, 549120, Note_on_c, 8, 62, 95
6, 549440, Note_off_c, 8, 62, 95
6, 549440, Note_on_c, 8, 64, 95
6, 549760, Note_off_c, 8, 64, 95
6, 549760, Note_on_c, 8, 65, 95
6, 550080, Note_off_c, 8, 65, 95
6, 550080, Note_on_c, 8, 67, 95
6, 550400, Note_off_c, 8, 67, 95
6, 550400, Note_on_c, 8, 65, 95
6, 550720, Note_off_c, 8, 65, 95
6, 550720, Note_on_c, 8, 64, 95
6, 551040, Note_off_c, 8, 64, 95
6, 551040, Note_on_c, 8, 62, 95
6, 551360, Note_off_c, 8, 62, 95
6, 551360, Note_on_c, 8, 64, 95
6, 551680, Note_off_c, 8, 64, 95
6, 551680, Note_on_c, 8, 65, 95
6, 552000, Note_off_c, 8, 65, 95
6, 552000, Note_on_c, 8, 67, 95
6, 552320, Note_off_c, 8, 67, 95
6, 552320, Note_on_c, 8, 65, 95
6, 552640, Note_off_c, 8, 65, 95
6, 552640, Note_on_c, 8, 64, 95
6, 552960, Note_off_c, 8, 64, 95
6, 552960, Note_on_c, 8, 62, 95
6, 553920, Note_off_c, 8, 62, 95
6, 560640, Note_on_c, 10, 67, 95
6, 560640, Note_on_c, 10, 62, 95
6, 560800, Pitch_bend_c, 10, 8832
6, 560800, Pitch_bend_c, 10, 8832
6, 560960, Pitch_bend_c, 10, 9600
6, 560960, Pitch_bend_c, 10, 8192
6, 560960, Note_off_c, 10, 67, 95
6, 560960, Pitch_bend_c, 10, 9600
6, 560960, Pitch_bend_c, 10, 8192
6, 560960, Note_off_c, 10, 62, 95
6, 560960, Note_on_c, 10, 69, 95
6, 560960, Note_on_c, 10, 64, 95
6, 561120, Pitch_bend_c, 10, 8448
6, 561120, Pitch_bend_c, 10, 8448
6, 561280, Pitch_bend_c, 10, 8832
6, 561280, Pitch_bend_c, 10, 8192
6, 561280, Note_off_c, 10, 69, 95
6, 561280, Pitch_bend_c, 10, 8832
6, 561280, Pitch_bend_c, 10, 8192
6, 561280, Note_off_c, 10, 64, 95
6, 561280, Note_on_c, 10, 70, 95
6, 561280, Note_on_c, 10, 65, 95
6, 561440, Pitch_bend_c, 10, 8832
6, 561440, Pitch_bend_c, 10, 8832
6, 561600, Pitch_bend_c, 10, 9600
6, 561600, Pitch_bend_c, 10, 8192
6, 561600, Note_off_c, 10, 70, 95
6, 561600, Pitch_bend_c, 10, 9600
6, 561600, Pitch_bend_c, 10, 8192
6, 561600, Note_off_c, 10, 65, 95
6, 561600, Note_on_c, 10, 72, 95
6, 561600, Note_on_c, 10, 67, 95
6, 561760, Pitch_bend_c, 10, 7552
6, 561760, Pitch_bend_c, 10, 7552
6, 561920, Pitch_bend_c, 10, 6784
6, 561920, Pitch_bend_c, 10, 8192
6, 561920, Note_off_c, 10, 72, 95
6, 561920, Pitch_bend_c, 10, 6784
6, 561920, Pitch_bend_c, 10, 8192
6, 561920, Note_off_c, 10, 67, 95
6, 561920, Note_on_c, 10, 70, 95
6, 561920, Note_on_c, 10, 65, 95
6, 562080, Pitch_bend_c, 10, 7936
6, 562080, Pitch_bend_c, 10, 7936
6, 562240, Pitch_bend_c, 10, 7552
6, 562240, Pitch_bend_c, 10, 8192
6, 562240, Note_off_c, 10, 70, 95
6, 562240, Pitch_bend_c, 10, 7552
6, 562240, Pitch_bend_c, 10, 8192
6, 562240, Note_off_c, 10, 65, 95
6, 562240, Note_on_c, 10, 69, 95
6, 562240, Note_on_c, 10, 64, 95
6, 562400, Pitch_bend_c, 10, 7552
6, 562400, Pitch_bend_c, 10, 7552
6, 562560, Pitch_bend_c, 10, 6784
6, 562560, Pitch_bend_c, 10, 8192
6, 562560, Note_off_c, 10, 69, 95
6, 562560, Pitch_bend_c, 10, 6784
6, 562560, Pitch_bend_c, 10, 8192
6, 562560, Note_off_c, 10, 64, 95
6, 562560, Note_on_c, 8, 67, 95
6, 562560, Note_on_c, 8, 62, 95
6, 562880, Note_off_c, 8, 67, 95
6, 562880, Note_off_c, 8, 62, 95
6, 562880, Note_on_c, 8, 69, 95
6, 562880, Note_on_c, 8, 64, 95
6, 563200, Note_off_c, 8, 69, 95
6, 563200, Note_off_c, 8, 64, 95
6, 563200, Note_on_c, 8, 70, 95
6, 563200, Note_on_c, 8, 65, 95
6, 563520, Note_off_c, 8, 70, 95
6, 563520, Note_off_c, 8, 65, 95
6, 563520, Note_on_c, 8, 72, 95
6, 563520, Note_on_c, 8, 67, 95
6, 563840, Note_off_c, 8, 72, 95
6, 563840, Note_off_c, 8, 67, 95
6, 563840, Note_on_c, 8, 70, 95
6, 563840, Note_on_c, 8, 65, 95
6, 564160, Note_off_c, 8, 70, 95
6, 564160, Note_off_c, 8, 65, 95
6, 564160, Note_on_c, 8, 69, 95
6, 564160, Note_on_c, 8, 64, 95
6, 564480, Note_off_c, 8, 69, 95
6, 564480, Note_off_c, 8, 64, 95
6, 564480, Note_on_c, 8, 67, 95
6, 564480, Note_on_c, 8, 62, 95
6, 564800, Note_off_c, 8, 67, 95
6, 564800, Note_off_c, 8, 62, 95
6, 564800, Note_on_c, 8, 69, 95
6, 564800, Note_on_c, 8, 64, 95
6, 565120, Note_off_c, 8, 69, 95
6, 565120, Note_off_c, 8, 64, 95
6, 565120, Note_on_c, 8, 70, 95
6, 565120, Note_on_c, 8, 65, 95
6, 565440, Note_off_c, 8, 70, 95
6, 565440, Note_off_c, 8, 65, 95
6, 565440, Note_on_c, 8, 72, 95
6, 565440, Note_on_c, 8, 67, 95
6, 565760, Note_off_c, 8, 72, 95
6, 565760, Note_off_c, 8, 67, 95
6, 565760, Note_on_c, 8, 70, 95
6, 565760, Note_on_c, 8, 65, 95
6, 566080, Note_off_c, 8, 70, 95
6, 566080, Note_off_c, 8, 65, 95
6, 566080, Note_on_c, 8, 69, 95
6, 566080, Note_on_c, 8, 64, 95
6, 566400, Note_off_c, 8, 69, 95
6, 566400, Note_off_c, 8, 64, 95
6, 566400, Note_on_c, 8, 67, 95
6, 566400, Note_on_c, 8, 62, 95
6, 566720, Note_off_c, 8, 67, 95
6, 566720, Note_off_c, 8, 62, 95
6, 566720, Note_on_c, 8, 69, 95
6, 566720, Note_on_c, 8, 64, 95
6, 567040, Note_off_c, 8, 69, 95
6, 567040, Note_off_c, 8, 64, 95
6, 567040, Note_on_c, 8, 70, 95
6, 567040, Note_on_c, 8, 65, 95
6, 567360, Note_off_c, 8, 70, 95
6, 567360, Note_off_c, 8, 65, 95
6, 567360, Note_on_c, 8, 72, 95
6, 567360, Note_on_c, 8, 67, 95
6, 567680, Note_off_c, 8, 72, 95
6, 567680, Note_off_c, 8, 67, 95
6, 567680, Note_on_c, 8, 70, 95
6, 567680, Note_on_c, 8, 65, 95
6, 568000, Note_off_c, 8, 70, 95
6, 568000, Note_off_c, 8, 65, 95
6, 568000, Note_on_c, 8, 69, 95
6, 568000, Note_on_c, 8, 64, 95
6, 568320, Note_off_c, 8, 69, 95
6, 568320, Note_off_c, 8, 64, 95
6, 568320, Note_on_c, 8, 62, 95
6, 568320, Note_on_c, 8, 58, 95
6, 569280, Note_off_c, 8, 62, 95
6, 569280, Note_off_c, 8, 58, 95
6, 576000, Note_on_c, 8, 71, 95
6, 576000, Note_on_c, 8, 67, 95
6, 576640, Note_off_c, 8, 71, 95
6, 576640, Note_off_c, 8, 67, 95
6, 576640, Note_on_c, 8, 69, 95
6, 576640, Note_on_c, 8, 65, 95
6, 577280, Note_off_c, 8, 69, 95
6, 577280, Note_off_c, 8, 65, 95
6, 577280, Note_on_c, 8, 67, 95
6, 577280, Note_on_c, 8, 64, 95
6, 577920, Note_off_c, 8, 67, 95
6, 577920, Note_off_c, 8, 64, 95
6, 577920, Note_on_c, 8, 65, 95
6, 577920, Note_on_c, 8, 62, 95
6, 578560, Note_off_c, 8, 65, 95
6, 578560, Note_off_c, 8, 62, 95
6, 578560, Note_on_c, 8, 65, 95
6, 578560, Note_on_c, 8, 62, 95
6, 579200, Note_off_c, 8, 65, 95
6, 579200, Note_off_c, 8, 62, 95
6, 579200, Note_on_c, 8, 62, 95
6, 579200, Note_on_c, 8, 59, 95
6, 579840, Note_off_c, 8, 62, 95
6, 579840, Note_off_c, 8, 59, 95
6, 579840, Note_on_c, 8, 60, 95
6, 579840, Note_on_c, 8, 57, 95
6, 580480, Note_off_c, 8, 60, 95
6, 580480, Note_off_c, 8, 57, 95
6, 580480, Note_on_c, 8, 59, 95
6, 580480, Note_on_c, 8, 55, 95
6, 581120, Note_off_c, 8, 59, 95
6, 581120, Note_off_c, 8, 55, 95
6, 581120, Note_on_c, 8, 57, 95
6, 581120, Note_on_c, 8, 53, 95
6, 581760, Note_off_c, 8, 57, 95
6, 581760, Note_off_c, 8, 53, 95
6, 581760, Note_on_c, 8, 59, 95
6, 582240, Note_off_c, 8, 59, 95
6, 582240, Note_on_c, 8, 58, 95
6, 582720, Note_off_c, 8, 58, 95
6, 582720, Note_on_c, 8, 59, 70
6, 583040, Note_off_c, 8, 59, 70
6, 583040, Note_on_c, 8, 55, 95
6, 583360, Note_off_c, 8, 55, 95
6, 583360, Note_on_c, 8, 53, 95
6, 583680, Note_off_c, 8, 53, 95
6, 591360, Note_on_c, 8, 79, 95
6, 591680, Note_off_c, 8, 79, 95
6, 591680, Note_on_c, 8, 81, 95
6, 592000, Note_off_c, 8, 81, 95
6, 592000, Note_on_c, 8, 82, 95
6, 592320, Note_off_c, 8, 82, 95
6, 592320, Note_on_c, 8, 81, 95
6, 592640, Note_off_c, 8, 81, 95
6, 592960, Note_on_c, 8, 74, 95
6, 593280, Note_off_c, 8, 74, 95
6, 593280, Note_on_c, 8, 74, 95
6, 593600, Note_off_c, 8, 74, 95
6, 593600, Note_on_c, 8, 76, 70
6, 593920, Note_off_c, 8, 76, 70
6, 593920, Note_on_c, 8, 79, 95
6, 594240, Note_off_c, 8, 79, 95
6, 594240, Note_on_c, 8, 74, 95
6, 594560, Note_off_c, 8, 74, 95
6, 594880, Note_on_c, 8, 69, 95
6, 595200, Note_off_c, 8, 69, 95
6, 595200, Note_on_c, 8, 69, 95
6, 595520, Note_off_c, 8, 69, 95
6, 595520, Note_on_c, 8, 71, 95
6, 595840, Note_off_c, 8, 71, 95
6, 595840, Note_on_c, 8, 69, 95
6, 596160, Note_off_c, 8, 69, 95
6, 596160, Note_on_c, 8, 67, 95
6, 596480, Note_off_c, 8, 67, 95
6, 596480, Note_on_c, 8, 69, 95
6, 596800, Note_off_c, 8, 69, 95
6, 596800, Note_on_c, 8, 67, 95
6, 597120, Note_off_c, 8, 67, 95
6, 597120, Note_on_c, 8, 67, 95
6, 597600, Note_off_c, 8, 67, 95
6, 597600, Note_on_c, 8, 62, 95
6, 598080, Note_off_c, 8, 62, 95
6, 598560, Note_on_c, 8, 63, 95
6, 598560, Note_on_c, 8, 58, 95
6, 598560, Note_on_c, 8, 51, 95
6, 602400, Note_off_c, 8, 63, 95
6, 602400, Note_off_c, 8, 58, 95
6, 602400, Note_off_c, 8, 51, 95
6, 602400, Note_on_c, 8, 57, 95
6, 602400, Note_on_c, 8, 52, 95
6, 602400, Note_on_c, 8, 45, 95
6, 605760, Note_off_c, 8, 57, 95
6, 605760, Note_off_c, 8, 52, 95
6, 605760, Note_off_c, 8, 45, 95
6, 605760, Note_on_c, 8, 57, 95
6, 605760, Note_on_c, 8, 52, 95
6, 605760, Note_on_c, 8, 45, 95
6, 606240, Note_off_c, 8, 57, 95
6, 606240, Note_off_c, 8, 52, 95
6, 606240, Note_off_c, 8, 45, 95
6, 606240, Note_on_c, 8, 62, 95
6, 606240, Note_on_c, 8, 57, 95
6, 606240, Note_on_c, 8, 50, 95
6, 608640, Note_off_c, 8, 62, 95
6, 608640, Note_off_c, 8, 57, 95
6, 608640, Note_off_c, 8, 50, 95
6, 610560, Note_on_c, 8, 53, 95
6, 610560, Note_on_c, 8, 48, 95
6, 610560, Note_on_c, 8, 41, 95
6, 613920, Note_off_c, 8, 53, 95
6, 613920, Note_off_c, 8, 48, 95
6, 613920, Note_off_c, 8, 41, 95
6, 613920, Note_on_c, 8, 63, 95
6, 613920, Note_on_c, 8, 58, 95
6, 613920, Note_on_c, 8, 51, 95
6, 617760, Note_off_c, 8, 63, 95
6, 617760, Note_off_c, 8, 58, 95
6, 617760, Note_off_c, 8, 51, 95
6, 617760, Note_on_c, 8, 53, 95
6, 617760, Note_on_c, 8, 48, 95
6, 617760, Note_on_c, 8, 41, 95
6, 621120, Note_off_c, 8, 53, 95
6, 621120, Note_off_c, 8, 48, 95
6, 621120, Note_off_c, 8, 41, 95
6, 621120, Note_on_c, 8, 50, 95
6, 621120, Note_on_c, 8, 45, 95
6, 621120, Note_on_c, 8, 40, 95
6, 621230, Note_off_c, 8, 50, 95
6, 621230, Note_off_c, 8, 45, 95
6, 621230, Note_off_c, 8, 40, 95
6, 721920, Pitch_bend_c, 10, 8192
6, 721920, Note_on_c, 10, 58, 95
6, 722400, Pitch_bend_c, 10, 8320
6, 722880, Pitch_bend_c, 10, 8448
6, 723360, Pitch_bend_c, 10, 8576
6, 723840, Pitch_bend_c, 10, 8704
6, 724320, Pitch_bend_c, 10, 8832
6, 724320, Pitch_bend_c, 10, 8832
6, 726720, Pitch_bend_c, 10, 8832
6, 726720, Pitch_bend_c, 10, 8192
6, 726720, Note_off_c, 10, 58, 95
6, 729600, Note_on_c, 8, 43, 95
6, 730560, Note_off_c, 8, 43, 95
6, 731040, Note_on_c, 10, 46, 95
6, 731160, Pitch_bend_c, 10, 8320
6, 731280, Pitch_bend_c, 10, 8448
6, 731400, Pitch_bend_c, 10, 8704
6, 731520, Pitch_bend_c, 10, 8832
6, 731520, Pitch_bend_c, 10, 8192
6, 731520, Note_off_c, 10, 46, 95
6, 731520, Note_on_c, 8, 47, 95
6, 732000, Note_off_c, 8, 47, 95
6, 732000, Note_on_c, 8, 50, 95
6, 732480, Note_off_c, 8, 50, 95
6, 732480, Note_on_c, 8, 52, 95
6, 733440, Note_off_c, 8, 52, 95
6, 733440, Note_on_c, 8, 43, 95
6, 734400, Note_off_c, 8, 43, 95
6, 734880, Note_on_c, 10, 46, 95
6, 735000, Pitch_bend_c, 10, 8320
6, 735120, Pitch_bend_c, 10, 8448
6, 735240, Pitch_bend_c, 10, 8704
6, 735360, Pitch_bend_c, 10, 8832
6, 735360, Pitch_bend_c, 10, 8192
6, 735360, Note_off_c, 10, 46, 95
6, 735360, Note_on_c, 8, 47, 95
6, 735840, Note_off_c, 8, 47, 95
6, 735840, Note_on_c, 8, 50, 95
6, 736320, Note_off_c, 8, 50, 95
6, 736320, Note_on_c, 8, 52, 95
6, 737280, Note_off_c, 8, 52, 95
6, 737280, Note_on_c, 8, 43, 95
6, 738240, Note_off_c, 8, 43, 95
6, 738720, Note_on_c, 10, 46, 95
6, 738840, Pitch_bend_c, 10, 8320
6, 738960, Pitch_bend_c, 10, 8448
6, 739080, Pitch_bend_c, 10, 8704
6, 739200, Pitch_bend_c, 10, 8832
6, 739200, Pitch_bend_c, 10, 8192
6, 739200, Note_off_c, 10, 46, 95
6, 739200, Note_on_c, 8, 47, 95
6, 739680, Note_off_c, 8, 47, 95
6, 739680, Note_on_c, 8, 50, 95
6, 740160, Note_off_c, 8, 50, 95
6, 740160, Note_on_c, 8, 52, 95
6, 741120, Note_off_c, 8, 52, 95
6, 741120, Note_on_c, 8, 43, 95
6, 742080, Note_off_c, 8, 43, 95
6, 742560, Note_on_c, 10, 46, 95
6, 742680, Pitch_bend_c, 10, 8320
6, 742800, Pitch_bend_c, 10, 8448
6, 742920, Pitch_bend_c, 10, 8704
6, 743040, Pitch_bend_c, 10, 8832
6, 743040, Pitch_bend_c, 10, 8192
6, 743040, Note_off_c, 10, 46, 95
6, 743040, Note_on_c, 8, 47, 95
6, 743520, Note_off_c, 8, 47, 95
6, 743520, Note_on_c, 8, 50, 95
6, 744000, Note_off_c, 8, 50, 95
6, 744000, Note_on_c, 8, 52, 95
6, 744960, Note_off_c, 8, 52, 95
6, 744960, Note_on_c, 8, 48, 95
6, 745920, Note_off_c, 8, 48, 95
6, 746400, Note_on_c, 10, 51, 95
6, 746520, Pitch_bend_c, 10, 8320
6, 746640, Pitch_bend_c, 10, 8448
6, 746760, Pitch_bend_c, 10, 8704
6, 746880, Pitch_bend_c, 10, 8832
6, 746880, Pitch_bend_c, 10, 8192
6, 746880, Note_off_c, 10, 51, 95
6, 746880, Note_on_c, 8, 52, 95
6, 747360, Note_off_c, 8, 52, 95
6, 747360, Note_on_c, 8, 55, 95
6, 747840, Note_off_c, 8, 55, 95
6, 747840, Note_on_c, 8, 57, 95
6, 748800, Note_off_c, 8, 57, 95
6, 748800, Note_on_c, 8, 48, 95
6, 749760, Note_off_c, 8, 48, 95
6, 750240, Note_on_c, 10, 51, 95
6, 750360, Pitch_bend_c, 10, 8320
6, 750480, Pitch_bend_c, 10, 8448
6, 750600, Pitch_bend_c, 10, 8704
6, 750720, Pitch_bend_c, 10, 8832
6, 750720, Pitch_bend_c, 10, 8192
6, 750720, Note_off_c, 10, 51, 95
6, 750720, Note_on_c, 8, 52, 95
6, 751200, Note_off_c, 8, 52, 95
6, 751200, Note_on_c, 8, 55, 95
6, 751680, Note_off_c, 8, 55, 95
6, 751680, Note_on_c, 8, 57, 95
6, 752640, Note_off_c, 8, 57, 95
6, 752640, Note_on_c, 8, 43, 95
6, 753600, Note_off_c, 8, 43, 95
6, 754080, Note_on_c, 10, 46, 95
6, 754200, Pitch_bend_c, 10, 8320
6, 754320, Pitch_bend_c, 10, 8448
6, 754440, Pitch_bend_c, 10, 8704
6, 754560, Pitch_bend_c, 10, 8832
6, 754560, Pitch_bend_c, 10, 8192
6, 754560, Note_off_c, 10, 46, 95
6, 754560, Note_on_c, 8, 47, 95
6, 755040, Note_off_c, 8, 47, 95
6, 755040, Note_on_c, 8, 50, 95
6, 755520, Note_off_c, 8, 50, 95
6, 755520, Note_on_c, 8, 52, 95
6, 756480, Note_off_c, 8, 52, 95
6, 756480, Note_on_c, 8, 43, 95
6, 757440, Note_off_c, 8, 43, 95
6, 757920, Note_on_c, 10, 46, 95
6, 758040, Pitch_bend_c, 10, 8320
6, 758160, Pitch_bend_c, 10, 8448
6, 758280, Pitch_bend_c, 10, 8704
6, 758400, Pitch_bend_c, 10, 8832
6, 758400, Pitch_bend_c, 10, 8192
6, 758400, Note_off_c, 10, 46, 95
6, 758400, Note_on_c, 8, 47, 95
6, 758880, Note_off_c, 8, 47, 95
6, 758880, Note_on_c, 8, 50, 95
6, 759360, Note_off_c, 8, 50, 95
6, 759360, Note_on_c, 8, 52, 95
6, 760320, Note_off_c, 8, 52, 95
6, 760320, Note_on_c, 8, 51, 95
6, 761280, Note_off_c, 8, 51, 95
6, 761760, Note_on_c, 8, 55, 95
6, 762720, Note_off_c, 8, 55, 95
6, 762720, Note_on_c, 8, 58, 95
6, 763200, Note_off_c, 8, 58, 95
6, 763200, Note_on_c, 8, 51, 95
6, 764160, Note_off_c, 8, 51, 95
6, 764160, Note_on_c, 8, 57, 95
6, 765120, Note_off_c, 8, 57, 95
6, 765600, Note_on_c, 8, 57, 95
6, 766080, Note_off_c, 8, 57, 95
6, 766080, Note_on_c, 8, 58, 70
6, 766560, Note_off_c, 8, 58, 70
6, 766560, Note_on_c, 8, 57, 70
6, 767040, Note_off_c, 8, 57, 70
6, 767040, Note_on_c, 8, 53, 95
6, 768000, Note_off_c, 8, 53, 95
6, 768000, Note_on_c, 8, 50, 95
6, 768960, Note_off_c, 8, 50, 95
6, 769440, Note_on_c, 8, 53, 95
6, 770400, Note_off_c, 8, 53, 95
6, 770400, Note_on_c, 8, 55, 95
6, 770880, Note_off_c, 8, 55, 95
6, 770880, Note_on_c, 8, 48, 95
6, 771840, Note_off_c, 8, 48, 95
6, 771840, Note_on_c, 8, 53, 95
6, 772800, Note_off_c, 8, 53, 95
6, 773280, Note_on_c, 8, 53, 95
6, 774240, Note_off_c, 8, 53, 95
6, 774240, Note_on_c, 8, 55, 95
6, 774720, Note_off_c, 8, 55, 95
6, 774720, Note_on_c, 8, 50, 95
6, 775680, Note_off_c, 8, 50, 95
6, 775680, Note_on_c, 8, 51, 95
6, 776640, Note_off_c, 8, 51, 95
6, 777120, Note_on_c, 8, 55, 95
6, 778080, Note_off_c, 8, 55, 95
6, 778080, Note_on_c, 8, 58, 95
6, 778560, Note_off_c, 8, 58, 95
6, 778560, Note_on_c, 8, 56, 95
6, 779520, Note_off_c, 8, 56, 95
6, 779520, Note_on_c, 8, 53, 95
6, 780480, Note_off_c, 8, 53, 95
6, 780960, Note_on_c, 8, 57, 95
6, 781920, Note_off_c, 8, 57, 95
6, 781920, Note_on_c, 8, 60, 95
6, 782400, Note_off_c, 8, 60, 95
6, 782400, Note_on_c, 8, 53, 95
6, 783360, Note_off_c, 8, 53, 95
6, 783360, Note_on_c, 8, 43, 95
6, 784320, Note_off_c, 8, 43, 95
6, 784800, Note_on_c, 10, 46, 95
6, 784920, Pitch_bend_c, 10, 8320
6, 785040, Pitch_bend_c, 10, 8448
6, 785160, Pitch_bend_c, 10, 8704
6, 785280, Pitch_bend_c, 10, 8832
6, 785280, Pitch_bend_c, 10, 8192
6, 785280, Note_off_c, 10, 46, 95
6, 785280, Note_on_c, 8, 47, 95
6, 785760, Note_off_c, 8, 47, 95
6, 785760, Note_on_c, 8, 50, 95
6, 786240, Note_off_c, 8, 50, 95
6, 786240, Note_on_c, 8, 52, 95
6, 787200, Note_off_c, 8, 52, 95
6, 787200, Note_on_c, 8, 43, 95
6, 788160, Note_off_c, 8, 43, 95
6, 788640, Note_on_c, 10, 46, 95
6, 788760, Pitch_bend_c, 10, 8320
6, 788880, Pitch_bend_c, 10, 8448
6, 789000, Pitch_bend_c, 10, 8704
6, 789120, Pitch_bend_c, 10, 8832
6, 789120, Pitch_bend_c, 10, 8192
6, 789120, Note_off_c, 10, 46, 95
6, 789120, Note_on_c, 8, 47, 95
6, 789600, Note_off_c, 8, 47, 95
6, 789600, Note_on_c, 8, 50, 95
6, 790080, Note_off_c, 8, 50, 95
6, 790080, Note_on_c, 8, 52, 95
6, 791040, Note_off_c, 8, 52, 95
6, 791040, Note_on_c, 8, 43, 95
6, 792000, Note_off_c, 8, 43, 95
6, 792480, Note_on_c, 10, 46, 95
6, 792600, Pitch_bend_c, 10, 8320
6, 792720, Pitch_bend_c, 10, 8448
6, 792840, Pitch_bend_c, 10, 8704
6, 792960, Pitch_bend_c, 10, 8832
6, 792960, Pitch_bend_c, 10, 8192
6, 792960, Note_off_c, 10, 46, 95
6, 792960, Note_on_c, 8, 47, 95
6, 793440, Note_off_c, 8, 47, 95
6, 793440, Note_on_c, 8, 50, 95
6, 793920, Note_off_c, 8, 50, 95
6, 793920, Note_on_c, 8, 52, 95
6, 794880, Note_off_c, 8, 52, 95
6, 794880, Note_on_c, 8, 43, 95
6, 795840, Note_off_c, 8, 43, 95
6, 796320, Note_on_c, 10, 46, 95
6, 796440, Pitch_bend_c, 10, 8320
6, 796560, Pitch_bend_c, 10, 8448
6, 796680, Pitch_bend_c, 10, 8704
6, 796800, Pitch_bend_c, 10, 8832
6, 796800, Pitch_bend_c, 10, 8192
6, 796800, Note_off_c, 10, 46, 95
6, 796800, Note_on_c, 8, 47, 95
6, 797280, Note_off_c, 8, 47, 95
6, 797280, Note_on_c, 8, 50, 95
6, 797760, Note_off_c, 8, 50, 95
6, 797760, Note_on_c, 8, 52, 95
6, 798720, Note_off_c, 8, 52, 95
6, 798720, Note_on_c, 8, 43, 95
6, 799680, Note_off_c, 8, 43, 95
6, 800160, Note_on_c, 10, 46, 95
6, 800280, Pitch_bend_c, 10, 8320
6, 800400, Pitch_bend_c, 10, 8448
6, 800520, Pitch_bend_c, 10, 8704
6, 800640, Pitch_bend_c, 10, 8832
6, 800640, Pitch_bend_c, 10, 8192
6, 800640, Note_off_c, 10, 46, 95
6, 800640, Note_on_c, 8, 47, 95
6, 801120, Note_off_c, 8, 47, 95
6, 801120, Note_on_c, 8, 50, 95
6, 801600, Note_off_c, 8, 50, 95
6, 801600, Note_on_c, 8, 52, 95
6, 802560, Note_off_c, 8, 52, 95
6, 802560, Note_on_c, 8, 43, 95
6, 803520, Note_off_c, 8, 43, 95
6, 804000, Note_on_c, 10, 46, 95
6, 804120, Pitch_bend_c, 10, 8320
6, 804240, Pitch_bend_c, 10, 8448
6, 804360, Pitch_bend_c, 10, 8704
6, 804480, Pitch_bend_c, 10, 8832
6, 804480, Pitch_bend_c, 10, 8192
6, 804480, Note_off_c, 10, 46, 95
6, 804480, Note_on_c, 8, 47, 95
6, 804960, Note_off_c, 8, 47, 95
6, 804960, Note_on_c, 8, 50, 95
6, 805440, Note_off_c, 8, 50, 95
6, 805440, Note_on_c, 8, 52, 95
6, 806400, Note_off_c, 8, 52, 95
6, 806400, Note_on_c, 8, 43, 95
6, 807360, Note_off_c, 8, 43, 95
6, 807840, Note_on_c, 10, 46, 95
6, 807960, Pitch_bend_c, 10, 8320
6, 808080, Pitch_bend_c, 10, 8448
6, 808200, Pitch_bend_c, 10, 8704
6, 808320, Pitch_bend_c, 10, 8832
6, 808320, Pitch_bend_c, 10, 8192
6, 808320, Note_off_c, 10, 46, 95
6, 808320, Note_on_c, 8, 47, 95
6, 808800, Note_off_c, 8, 47, 95
6, 808800, Note_on_c, 8, 50, 95
6, 809280, Note_off_c, 8, 50, 95
6, 809280, Note_on_c, 8, 52, 95
6, 810240, Note_off_c, 8, 52, 95
6, 810240, Note_on_c, 8, 43, 95
6, 811200, Note_off_c, 8, 43, 95
6, 811680, Note_on_c, 10, 46, 95
6, 811800, Pitch_bend_c, 10, 8320
6, 811920, Pitch_bend_c, 10, 8448
6, 812040, Pitch_bend_c, 10, 8704
6, 812160, Pitch_bend_c, 10, 8832
6, 812160, Pitch_bend_c, 10, 8192
6, 812160, Note_off_c, 10, 46, 95
6, 812160, Note_on_c, 8, 47, 95
6, 812640, Note_off_c, 8, 47, 95
6, 812640, Note_on_c, 8, 50, 95
6, 813120, Note_off_c, 8, 50, 95
6, 813120, Note_on_c, 8, 52, 95
6, 814080, Note_off_c, 8, 52, 95
6, 814080, Note_on_c, 8, 60, 95
6, 814320, Note_off_c, 8, 60, 95
6, 814320, Note_on_c, 8, 60, 95
6, 814560, Note_off_c, 8, 60, 95
6, 814560, Note_on_c, 8, 60, 95
6, 814800, Note_off_c, 8, 60, 95
6, 814800, Note_on_c, 8, 60, 95
6, 815040, Note_off_c, 8, 60, 95
6, 815040, Note_on_c, 8, 60, 95
6, 815280, Note_off_c, 8, 60, 95
6, 815280, Note_on_c, 8, 60, 95
6, 815520, Note_off_c, 8, 60, 95
6, 815520, Note_on_c, 8, 60, 95
6, 815760, Note_off_c, 8, 60, 95
6, 815760, Note_on_c, 8, 60, 95
6, 816000, Note_off_c, 8, 60, 95
6, 816000, Note_on_c, 8, 60, 95
6, 816240, Note_off_c, 8, 60, 95
6, 816240, Note_on_c, 8, 60, 95
6, 816480, Note_off_c, 8, 60, 95
6, 816480, Note_on_c, 8, 60, 95
6, 816720, Note_off_c, 8, 60, 95
6, 816720, Note_on_c, 8, 60, 95
6, 816960, Note_off_c, 8, 60, 95
6, 816960, Note_on_c, 8, 60, 95
6, 817200, Note_off_c, 8, 60, 95
6, 817200, Note_on_c, 8, 60, 95
6, 817440, Note_off_c, 8, 60, 95
6, 817440, Note_on_c, 8, 60, 95
6, 817680, Note_off_c, 8, 60, 95
6, 817680, Note_on_c, 8, 60, 95
6, 817920, Note_off_c, 8, 60, 95
6, 817920, Note_on_c, 8, 60, 95
6, 818160, Note_off_c, 8, 60, 95
6, 818160, Note_on_c, 8, 60, 95
6, 818400, Note_off_c, 8, 60, 95
6, 818400, Note_on_c, 8, 60, 95
6, 818640, Note_off_c, 8, 60, 95
6, 818640, Note_on_c, 8, 60, 95
6, 818880, Note_off_c, 8, 60, 95
6, 818880, Note_on_c, 8, 60, 95
6, 819120, Note_off_c, 8, 60, 95
6, 819120, Note_on_c, 8, 60, 95
6, 819360, Note_off_c, 8, 60, 95
6, 819360, Note_on_c, 8, 60, 95
6, 819600, Note_off_c, 8, 60, 95
6, 819600, Note_on_c, 8, 60, 95
6, 819839, Note_off_c, 8, 60, 95
6, 819840, Note_on_c, 8, 60, 95
6, 820320, Note_off_c, 8, 60, 95
6, 820320, Note_on_c, 8, 58, 95
6, 820800, Note_off_c, 8, 58, 95
6, 821280, Note_on_c, 8, 60, 95
6, 821760, Note_off_c, 8, 60, 95
6, 822240, Note_on_c, 8, 62, 95
6, 822480, Note_off_c, 8, 62, 95
6, 822480, Note_on_c, 8, 62, 95
6, 822720, Note_off_c, 8, 62, 95
6, 822720, Note_on_c, 8, 62, 95
6, 822960, Note_off_c, 8, 62, 95
6, 822960, Note_on_c, 8, 62, 95
6, 823200, Note_off_c, 8, 62, 95
6, 823200, Note_on_c, 8, 62, 95
6, 823440, Note_off_c, 8, 62, 95
6, 823440, Note_on_c, 8, 62, 95
6, 823680, Note_off_c, 8, 62, 95
6, 823680, Note_on_c, 8, 62, 95
6, 823920, Note_off_c, 8, 62, 95
6, 823920, Note_on_c, 8, 62, 95
6, 824160, Note_off_c, 8, 62, 95
6, 824160, Note_on_c, 8, 62, 95
6, 824400, Note_off_c, 8, 62, 95
6, 824400, Note_on_c, 8, 62, 95
6, 824640, Note_off_c, 8, 62, 95
6, 824640, Note_on_c, 8, 62, 95
6, 824880, Note_off_c, 8, 62, 95
6, 824880, Note_on_c, 8, 62, 95
6, 825120, Note_off_c, 8, 62, 95
6, 825120, Note_on_c, 8, 62, 95
6, 825360, Note_off_c, 8, 62, 95
6, 825360, Note_on_c, 8, 62, 95
6, 825480, Note_on_c, 10, 65, 95
6, 825599, Note_off_c, 8, 62, 95
6, 825600, Note_off_c, 10, 65, 95
6, 825600, Note_on_c, 10, 67, 95
6, 827520, Note_off_c, 10, 67, 95
6, 827520, Note_on_c, 8, 65, 95
6, 829440, Note_off_c, 8, 65, 95
6, 829440, Note_on_c, 8, 62, 95
6, 829760, Note_off_c, 8, 62, 95
6, 829760, Note_on_c, 10, 60, 70
6, 829920, Pitch_bend_c, 10, 7552
6, 830080, Pitch_bend_c, 10, 6784
6, 830080, Pitch_bend_c, 10, 8192
6, 830080, Note_off_c, 10, 60, 70
6, 830080, Note_on_c, 8, 58, 95
6, 830400, Note_off_c, 8, 58, 95
6, 830400, Note_on_c, 8, 60, 95
6, 832320, Note_off_c, 8, 60, 95
6, 832320, Note_on_c, 8, 60, 95
6, 832800, Note_off_c, 8, 60, 95
6, 832800, Note_on_c, 8, 58, 95
6, 833280, Note_off_c, 8, 58, 95
6, 833280, Pitch_bend_c, 10, 8192
6, 833280, Note_on_c, 10, 60, 95
6, 833296, Pitch_bend_c, 10, 8320
6, 833312, Pitch_bend_c, 10, 8448
6, 833328, Pitch_bend_c, 10, 8576
6, 833344, Pitch_bend_c, 10, 8704
6, 833360, Pitch_bend_c, 10, 8832
6, 833376, Pitch_bend_c, 10, 8960
6, 833392, Pitch_bend_c, 10, 9088
6, 833408, Pitch_bend_c, 10, 9216
6, 833424, Pitch_bend_c, 10, 9344
6, 833440, Pitch_bend_c, 10, 9472
6, 833456, Pitch_bend_c, 10, 9600
6, 833460, Pitch_bend_c, 10, 9600
6, 833640, Pitch_bend_c, 10, 9600
6, 833656, Pitch_bend_c, 10, 9472
6, 833672, Pitch_bend_c, 10, 9344
6, 833688, Pitch_bend_c, 10, 9216
6, 833704, Pitch_bend_c, 10, 9088
6, 833720, Pitch_bend_c, 10, 8960
6, 833736, Pitch_bend_c, 10, 8832
6, 833752, Pitch_bend_c, 10, 8704
6, 833768, Pitch_bend_c, 10, 8576
6, 833784, Pitch_bend_c, 10, 8448
6, 833800, Pitch_bend_c, 10, 8320
6, 833816, Pitch_bend_c, 10, 8192
6, 833820, Pitch_bend_c, 10, 8192
6, 834000, Pitch_bend_c, 10, 8192
6, 834000, Pitch_bend_c, 10, 8192
6, 834000, Note_off_c, 10, 60, 95
6, 834000, Note_on_c, 8, 58, 95
6, 834240, Note_off_c, 8, 58, 95
6, 834240, Note_on_c, 8, 60, 95
6, 834720, Note_off_c, 8, 60, 95
6, 834720, Note_on_c, 8, 58, 70
6, 835200, Note_off_c, 8, 58, 70
6, 835200, Pitch_bend_c, 10, 8192
6, 835200, Note_on_c, 10, 60, 95
6, 835216, Pitch_bend_c, 10, 8320
6, 835232, Pitch_bend_c, 10, 8448
6, 835248, Pitch_bend_c, 10, 8576
6, 835264, Pitch_bend_c, 10, 8704
6, 835280, Pitch_bend_c, 10, 8832
6, 835296, Pitch_bend_c, 10, 8960
6, 835312, Pitch_bend_c, 10, 9088
6, 835328, Pitch_bend_c, 10, 9216
6, 835344, Pitch_bend_c, 10, 9344
6, 835360, Pitch_bend_c, 10, 9472
6, 835376, Pitch_bend_c, 10, 9600
6, 835380, Pitch_bend_c, 10, 9600
6, 835560, Pitch_bend_c, 10, 9600
6, 835576, Pitch_bend_c, 10, 9472
6, 835592, Pitch_bend_c, 10, 9344
6, 835608, Pitch_bend_c, 10, 9216
6, 835624, Pitch_bend_c, 10, 9088
6, 835640, Pitch_bend_c, 10, 8960
6, 835656, Pitch_bend_c, 10, 8832
6, 835672, Pitch_bend_c, 10, 8704
6, 835688, Pitch_bend_c, 10, 8576
6, 835704, Pitch_bend_c, 10, 8448
6, 835720, Pitch_bend_c, 10, 8320
6, 835736, Pitch_bend_c, 10, 8192
6, 835740, Pitch_bend_c, 10, 8192
6, 835920, Pitch_bend_c, 10, 8192
6, 835920, Pitch_bend_c, 10, 8192
6, 835920, Note_off_c, 10, 60, 95
6, 835920, Note_on_c, 8, 58, 95
6, 836160, Note_off_c, 8, 58, 95
6, 836160, Note_on_c, 8, 60, 95
6, 836640, Note_off_c, 8, 60, 95
6, 836640, Note_on_c, 8, 58, 70
6, 837120, Note_off_c, 8, 58, 70
6, 837120, Note_on_c, 8, 60, 95
6, 838080, Note_off_c, 8, 60, 95
6, 838080, Note_on_c, 8, 60, 95
6, 838560, Note_off_c, 8, 60, 95
6, 838560, Note_on_c, 8, 43, 95
6, 839040, Note_off_c, 8, 43, 95
6, 839040, Note_on_c, 8, 55, 95
6, 839520, Note_off_c, 8, 55, 95
6, 839520, Note_on_c, 8, 67, 95
6, 840000, Note_off_c, 8, 67, 95
6, 840480, Note_on_c, 8, 67, 95
6, 840960, Note_off_c, 8, 67, 95
6, 841440, Note_on_c, 8, 55, 95
6, 841920, Note_off_c, 8, 55, 95
6, 842400, Note_on_c, 8, 43, 95
6, 842880, Note_off_c, 8, 43, 95
6, 842880, Note_on_c, 8, 55, 95
6, 843360, Note_off_c, 8, 55, 95
6, 843840, Note_on_c, 8, 67, 95
6, 844320, Note_off_c, 8, 67, 95
6, 844800, Note_on_c, 8, 55, 95
6, 845280, Note_off_c, 8, 55, 95
6, 845280, Note_on_c, 8, 57, 95
6, 845760, Note_off_c, 8, 57, 95
6, 845760, Note_on_c, 8, 58, 95
6, 846240, Note_off_c, 8, 58, 95
6, 846240, Note_on_c, 8, 55, 95
6, 846720, Note_off_c, 8, 55, 95
6, 846720, Note_on_c, 8, 57, 95
6, 847200, Note_off_c, 8, 57, 95
6, 847200, Note_on_c, 8, 58, 95
6, 847680, Note_off_c, 8, 58, 95
6, 847680, Note_on_c, 8, 55, 95
6, 848160, Note_off_c, 8, 55, 95
6, 848160, Note_on_c, 8, 57, 95
6, 848640, Note_off_c, 8, 57, 95
6, 848640, Note_on_c, 8, 58, 95
6, 849120, Note_off_c, 8, 58, 95
6, 849120, Note_on_c, 8, 55, 95
6, 849600, Note_off_c, 8, 55, 95
6, 849600, Note_on_c, 8, 57, 95
6, 850080, Note_off_c, 8, 57, 95
6, 850080, Note_on_c, 8, 58, 95
6, 850560, Note_off_c, 8, 58, 95
6, 850560, Note_on_c, 8, 55, 95
6, 851040, Note_off_c, 8, 55, 95
6, 851040, Note_on_c, 8, 57, 95
6, 851520, Note_off_c, 8, 57, 95
6, 851520, Note_on_c, 8, 58, 95
6, 852000, Note_off_c, 8, 58, 95
6, 852000, Note_on_c, 10, 57, 95
6, 852120, Pitch_bend_c, 10, 8704
6, 852240, Pitch_bend_c, 10, 9216
6, 852360, Pitch_bend_c, 10, 9728
6, 852480, Pitch_bend_c, 10, 10240
6, 852480, Pitch_bend_c, 10, 8192
6, 852480, Note_off_c, 10, 57, 95
6, 852480, Note_on_c, 8, 60, 95
6, 853440, Note_off_c, 8, 60, 95
6, 853440, Note_on_c, 8, 60, 95
6, 854400, Note_off_c, 8, 60, 95
6, 854400, Note_on_c, 8, 60, 95
6, 854880, Note_off_c, 8, 60, 95
6, 854880, Note_on_c, 8, 58, 70
6, 855360, Note_off_c, 8, 58, 70
6, 855360, Note_on_c, 8, 60, 95
6, 855840, Note_off_c, 8, 60, 95
6, 855840, Pitch_bend_c, 10, 8192
6, 855840, Note_on_c, 10, 60, 95
6, 855883, Pitch_bend_c, 10, 8320
6, 855926, Pitch_bend_c, 10, 8448
6, 855969, Pitch_bend_c, 10, 8576
6, 856012, Pitch_bend_c, 10, 8704
6, 856055, Pitch_bend_c, 10, 8832
6, 856098, Pitch_bend_c, 10, 8960
6, 856141, Pitch_bend_c, 10, 9088
6, 856184, Pitch_bend_c, 10, 9216
6, 856227, Pitch_bend_c, 10, 9344
6, 856270, Pitch_bend_c, 10, 9472
6, 856313, Pitch_bend_c, 10, 9600
6, 856320, Pitch_bend_c, 10, 9600
6, 856800, Pitch_bend_c, 10, 9600
6, 856800, Pitch_bend_c, 10, 8192
6, 856800, Note_off_c, 10, 60, 95
6, 856800, Pitch_bend_c, 10, 8192
6, 856800, Note_on_c, 10, 60, 95
6, 856843, Pitch_bend_c, 10, 8320
6, 856886, Pitch_bend_c, 10, 8448
6, 856929, Pitch_bend_c, 10, 8576
6, 856972, Pitch_bend_c, 10, 8704
6, 857015, Pitch_bend_c, 10, 8832
6, 857058, Pitch_bend_c, 10, 8960
6, 857101, Pitch_bend_c, 10, 9088
6, 857144, Pitch_bend_c, 10, 9216
6, 857187, Pitch_bend_c, 10, 9344
6, 857230, Pitch_bend_c, 10, 9472
6, 857273, Pitch_bend_c, 10, 9600
6, 857280, Pitch_bend_c, 10, 9600
6, 857760, Pitch_bend_c, 10, 9600
6, 857760, Pitch_bend_c, 10, 8192
6, 857760, Note_off_c, 10, 60, 95
6, 857760, Pitch_bend_c, 10, 8192
6, 857760, Note_on_c, 10, 60, 95
6, 857781, Pitch_bend_c, 10, 8320
6, 857802, Pitch_bend_c, 10, 8448
6, 857823, Pitch_bend_c, 10, 8576
6, 857844, Pitch_bend_c, 10, 8704
6, 857865, Pitch_bend_c, 10, 8832
6, 857886, Pitch_bend_c, 10, 8960
6, 857907, Pitch_bend_c, 10, 9088
6, 857928, Pitch_bend_c, 10, 9216
6, 857949, Pitch_bend_c, 10, 9344
6, 857970, Pitch_bend_c, 10, 9472
6, 857991, Pitch_bend_c, 10, 9600
6, 858000, Pitch_bend_c, 10, 9600
6, 858240, Pitch_bend_c, 10, 9600
6, 858261, Pitch_bend_c, 10, 9472
6, 858282, Pitch_bend_c, 10, 9344
6, 858303, Pitch_bend_c, 10, 9216
6, 858324, Pitch_bend_c, 10, 9088
6, 858345, Pitch_bend_c, 10, 8960
6, 858366, Pitch_bend_c, 10, 8832
6, 858387, Pitch_bend_c, 10, 8704
6, 858408, Pitch_bend_c, 10, 8576
6, 858429, Pitch_bend_c, 10, 8448
6, 858450, Pitch_bend_c, 10, 8320
6, 858471, Pitch_bend_c, 10, 8192
6, 858480, Pitch_bend_c, 10, 8192
6, 858720, Pitch_bend_c, 10, 8192
6, 858720, Pitch_bend_c, 10, 8192
6, 858720, Note_off_c, 10, 60, 95
6, 858720, Note_on_c, 8, 58, 95
6, 859200, Note_off_c, 8, 58, 95
6, 859200, Note_on_c, 8, 55, 95
6, 859680, Note_off_c, 8, 55, 95
6, 859680, Note_on_c, 8, 53, 70
6, 860160, Note_off_c, 8, 53, 70
6, 860160, Pitch_bend_c, 10, 8192
6, 860160, Note_on_c, 10, 60, 95
6, 860203, Pitch_bend_c, 10, 8320
6, 860246, Pitch_bend_c, 10, 8448
6, 860289, Pitch_bend_c, 10, 8576
6, 860332, Pitch_bend_c, 10, 8704
6, 860375, Pitch_bend_c, 10, 8832
6, 860418, Pitch_bend_c, 10, 8960
6, 860461, Pitch_bend_c, 10, 9088
6, 860504, Pitch_bend_c, 10, 9216
6, 860547, Pitch_bend_c, 10, 9344
6, 860590, Pitch_bend_c, 10, 9472
6, 860633, Pitch_bend_c, 10, 9600
6, 860640, Pitch_bend_c, 10, 9600
6, 861120, Pitch_bend_c, 10, 9600
6, 861120, Pitch_bend_c, 10, 8192
6, 861120, Note_off_c, 10, 60, 95
6, 861120, Note_on_c, 8, 55, 95
6, 861600, Note_off_c, 8, 55, 95
6, 861600, Pitch_bend_c, 10, 8192
6, 861600, Note_on_c, 10, 60, 95
6, 861643, Pitch_bend_c, 10, 8320
6, 861686, Pitch_bend_c, 10, 8448
6, 861729, Pitch_bend_c, 10, 8576
6, 861772, Pitch_bend_c, 10, 8704
6, 861815, Pitch_bend_c, 10, 8832
6, 861858, Pitch_bend_c, 10, 8960
6, 861901, Pitch_bend_c, 10, 9088
6, 861944, Pitch_bend_c, 10, 9216
6, 861987, Pitch_bend_c, 10, 9344
6, 862030, Pitch_bend_c, 10, 9472
6, 862073, Pitch_bend_c, 10, 9600
6, 862080, Pitch_bend_c, 10, 9600
6, 862560, Pitch_bend_c, 10, 9600
6, 862560, Pitch_bend_c, 10, 8192
6, 862560, Note_off_c, 10, 60, 95
6, 862560, Note_on_c, 8, 55, 95
6, 863040, Note_off_c, 8, 55, 95
6, 863040, Pitch_bend_c, 10, 8192
6, 863040, Note_on_c, 10, 60, 95
6, 863083, Pitch_bend_c, 10, 8320
6, 863126, Pitch_bend_c, 10, 8448
6, 863169, Pitch_bend_c, 10, 8576
6, 863212, Pitch_bend_c, 10, 8704
6, 863255, Pitch_bend_c, 10, 8832
6, 863298, Pitch_bend_c, 10, 8960
6, 863341, Pitch_bend_c, 10, 9088
6, 863384, Pitch_bend_c, 10, 9216
6, 863427, Pitch_bend_c, 10, 9344
6, 863470, Pitch_bend_c, 10, 9472
6, 863513, Pitch_bend_c, 10, 9600
6, 863520, Pitch_bend_c, 10, 9600
6, 864000, Pitch_bend_c, 10, 9600
6, 864000, Pitch_bend_c, 10, 8192
6, 864000, Note_off_c, 10, 60, 95
6, 864000, Note_on_c, 8, 55, 95
6, 864480, Note_off_c, 8, 55, 95
6, 864480, Pitch_bend_c, 10, 8192
6, 864480, Note_on_c, 10, 60, 95
6, 864523, Pitch_bend_c, 10, 8320
6, 864566, Pitch_bend_c, 10, 8448
6, 864609, Pitch_bend_c, 10, 8576
6, 864652, Pitch_bend_c, 10, 8704
6, 864695, Pitch_bend_c, 10, 8832
6, 864738, Pitch_bend_c, 10, 8960
6, 864781, Pitch_bend_c, 10, 9088
6, 864824, Pitch_bend_c, 10, 9216
6, 864867, Pitch_bend_c, 10, 9344
6, 864910, Pitch_bend_c, 10, 9472
6, 864953, Pitch_bend_c, 10, 9600
6, 864960, Pitch_bend_c, 10, 9600
6, 865440, Pitch_bend_c, 10, 9600
6, 865440, Pitch_bend_c, 10, 8192
6, 865440, Note_off_c, 10, 60, 95
6, 865440, Note_on_c, 8, 55, 95
6, 865920, Note_off_c, 8, 55, 95
6, 865920, Pitch_bend_c, 10, 8192
6, 865920, Note_on_c, 10, 60, 95
6, 865963, Pitch_bend_c, 10, 8320
6, 866006, Pitch_bend_c, 10, 8448
6, 866049, Pitch_bend_c, 10, 8576
6, 866092, Pitch_bend_c, 10, 8704
6, 866135, Pitch_bend_c, 10, 8832
6, 866178, Pitch_bend_c, 10, 8960
6, 866221, Pitch_bend_c, 10, 9088
6, 866264, Pitch_bend_c, 10, 9216
6, 866307, Pitch_bend_c, 10, 9344
6, 866350, Pitch_bend_c, 10, 9472
6, 866393, Pitch_bend_c, 10, 9600
6, 866400, Pitch_bend_c, 10, 9600
6, 866880, Pitch_bend_c, 10, 9600
6, 866880, Pitch_bend_c, 10, 8192
6, 866880, Note_off_c, 10, 60, 95
6, 866880, Note_on_c, 8, 55, 95
6, 867360, Note_off_c, 8, 55, 95
6, 867360, Pitch_bend_c, 10, 8192
6, 867360, Note_on_c, 10, 60, 95
6, 867403, Pitch_bend_c, 10, 8320
6, 867446, Pitch_bend_c, 10, 8448
6, 867489, Pitch_bend_c, 10, 8576
6, 867532, Pitch_bend_c, 10, 8704
6, 867575, Pitch_bend_c, 10, 8832
6, 867618, Pitch_bend_c, 10, 8960
6, 867661, Pitch_bend_c, 10, 9088
6, 867704, Pitch_bend_c, 10, 9216
6, 867747, Pitch_bend_c, 10, 9344
6, 867790, Pitch_bend_c, 10, 9472
6, 867833, Pitch_bend_c, 10, 9600
6, 867840, Pitch_bend_c, 10, 9600
6, 868320, Pitch_bend_c, 10, 9600
6, 868320, Pitch_bend_c, 10, 8192
6, 868320, Note_off_c, 10, 60, 95
6, 868320, Pitch_bend_c, 10, 9600
6, 868320, Note_on_c, 10, 60, 95
6, 868800, Pitch_bend_c, 10, 9600
6, 868800, Pitch_bend_c, 10, 8192
6, 868800, Note_off_c, 10, 60, 95
6, 868800, Pitch_bend_c, 10, 9600
6, 868800, Note_on_c, 10, 60, 95
6, 869120, Pitch_bend_c, 10, 9600
6, 869120, Pitch_bend_c, 10, 8192
6, 869120, Note_off_c, 10, 60, 95
6, 869120, Pitch_bend_c, 10, 9600
6, 869120, Note_on_c, 10, 60, 95
6, 869440, Pitch_bend_c, 10, 9600
6, 869440, Pitch_bend_c, 10, 8192
6, 869440, Note_off_c, 10, 60, 95
6, 869440, Pitch_bend_c, 10, 9600
6, 869440, Note_on_c, 10, 60, 95
6, 869760, Pitch_bend_c, 10, 9600
6, 869760, Pitch_bend_c, 10, 8192
6, 869760, Note_off_c, 10, 60, 95
6, 869760, Pitch_bend_c, 10, 9600
6, 869760, Note_on_c, 10, 60, 95
6, 870080, Pitch_bend_c, 10, 9600
6, 870080, Pitch_bend_c, 10, 8192
6, 870080, Note_off_c, 10, 60, 95
6, 870080, Pitch_bend_c, 10, 9600
6, 870080, Note_on_c, 10, 60, 95
6, 870400, Pitch_bend_c, 10, 9600
6, 870400, Pitch_bend_c, 10, 8192
6, 870400, Note_off_c, 10, 60, 95
6, 870400, Pitch_bend_c, 10, 9600
6, 870400, Note_on_c, 10, 60, 95
6, 870720, Pitch_bend_c, 10, 9600
6, 870720, Pitch_bend_c, 10, 8192
6, 870720, Note_off_c, 10, 60, 95
6, 870720, Pitch_bend_c, 10, 9600
6, 870720, Note_on_c, 10, 60, 95
6, 871040, Pitch_bend_c, 10, 9600
6, 871040, Pitch_bend_c, 10, 8192
6, 871040, Note_off_c, 10, 60, 95
6, 871040, Pitch_bend_c, 10, 9600
6, 871040, Note_on_c, 10, 60, 95
6, 871360, Pitch_bend_c, 10, 9600
6, 871360, Pitch_bend_c, 10, 8192
6, 871360, Note_off_c, 10, 60, 95
6, 871360, Pitch_bend_c, 10, 9600
6, 871360, Note_on_c, 10, 60, 95
6, 871680, Pitch_bend_c, 10, 9600
6, 871680, Pitch_bend_c, 10, 8192
6, 871680, Note_off_c, 10, 60, 95
6, 871680, Pitch_bend_c, 10, 9600
6, 871680, Note_on_c, 10, 60, 95
6, 872000, Pitch_bend_c, 10, 9600
6, 872000, Pitch_bend_c, 10, 8192
6, 872000, Note_off_c, 10, 60, 95
6, 872000, Pitch_bend_c, 10, 9600
6, 872000, Note_on_c, 10, 60, 95
6, 872320, Pitch_bend_c, 10, 9600
6, 872320, Pitch_bend_c, 10, 8192
6, 872320, Note_off_c, 10, 60, 95
6, 872320, Pitch_bend_c, 10, 9600
6, 872320, Note_on_c, 10, 60, 95
6, 872640, Pitch_bend_c, 10, 9600
6, 872640, Pitch_bend_c, 10, 8192
6, 872640, Note_off_c, 10, 60, 95
6, 872640, Pitch_bend_c, 10, 9600
6, 872640, Note_on_c, 10, 60, 95
6, 872960, Pitch_bend_c, 10, 9600
6, 872960, Pitch_bend_c, 10, 8192
6, 872960, Note_off_c, 10, 60, 95
6, 872960, Pitch_bend_c, 10, 9600
6, 872960, Note_on_c, 10, 60, 95
6, 873280, Pitch_bend_c, 10, 9600
6, 873280, Pitch_bend_c, 10, 8192
6, 873280, Note_off_c, 10, 60, 95
6, 873280, Pitch_bend_c, 10, 9600
6, 873280, Note_on_c, 10, 60, 95
6, 873600, Pitch_bend_c, 10, 9600
6, 873600, Pitch_bend_c, 10, 8192
6, 873600, Note_off_c, 10, 60, 95
6, 873600, Pitch_bend_c, 10, 9600
6, 873600, Note_on_c, 10, 60, 95
6, 873920, Pitch_bend_c, 10, 9600
6, 873920, Pitch_bend_c, 10, 8192
6, 873920, Note_off_c, 10, 60, 95
6, 873920, Pitch_bend_c, 10, 9600
6, 873920, Note_on_c, 10, 60, 95
6, 874240, Pitch_bend_c, 10, 9600
6, 874240, Pitch_bend_c, 10, 8192
6, 874240, Note_off_c, 10, 60, 95
6, 874240, Pitch_bend_c, 10, 9600
6, 874240, Note_on_c, 10, 60, 95
6, 874560, Pitch_bend_c, 10, 9600
6, 874560, Pitch_bend_c, 10, 8192
6, 874560, Note_off_c, 10, 60, 95
6, 874560, Pitch_bend_c, 10, 9600
6, 874560, Note_on_c, 10, 60, 95
6, 874880, Pitch_bend_c, 10, 9600
6, 874880, Pitch_bend_c, 10, 8192
6, 874880, Note_off_c, 10, 60, 95
6, 874880, Note_on_c, 8, 60, 95
6, 875200, Note_off_c, 8, 60, 95
6, 875200, Note_on_c, 8, 58, 95
6, 875520, Note_off_c, 8, 58, 95
6, 875520, Note_on_c, 8, 67, 95
6, 875520, Note_on_c, 8, 60, 95
6, 876000, Note_off_c, 8, 60, 95
6, 876000, Note_on_c, 8, 58, 70
6, 876480, Note_off_c, 8, 67, 95
6, 876480, Note_off_c, 8, 58, 70
6, 876480, Note_on_c, 8, 67, 95
6, 876480, Note_on_c, 8, 60, 95
6, 877440, Note_off_c, 8, 67, 95
6, 877440, Note_off_c, 8, 60, 95
6, 877440, Note_on_c, 8, 67, 95
6, 877440, Note_on_c, 8, 60, 95
6, 877920, Note_off_c, 8, 60, 95
6, 877920, Note_on_c, 8, 58, 70
6, 878400, Note_off_c, 8, 58, 70
6, 878400, Note_on_c, 8, 55, 95
6, 878880, Note_off_c, 8, 67, 95
6, 878880, Note_off_c, 8, 55, 95
6, 878880, Note_on_c, 8, 67, 95
6, 878880, Note_on_c, 8, 60, 95
6, 879840, Note_off_c, 8, 67, 95
6, 879840, Note_off_c, 8, 60, 95
6, 879840, Note_on_c, 8, 67, 95
6, 879840, Note_on_c, 8, 60, 95
6, 880800, Note_off_c, 8, 67, 95
6, 880800, Note_off_c, 8, 60, 95
6, 881280, Pitch_bend_c, 10, 8192
6, 881280, Note_on_c, 10, 60, 95
6, 881294, Pitch_bend_c, 10, 8320
6, 881308, Pitch_bend_c, 10, 8448
6, 881322, Pitch_bend_c, 10, 8576
6, 881336, Pitch_bend_c, 10, 8704
6, 881350, Pitch_bend_c, 10, 8832
6, 881364, Pitch_bend_c, 10, 8960
6, 881378, Pitch_bend_c, 10, 9088
6, 881392, Pitch_bend_c, 10, 9216
6, 881406, Pitch_bend_c, 10, 9344
6, 881420, Pitch_bend_c, 10, 9472
6, 881434, Pitch_bend_c, 10, 9600
6, 881440, Pitch_bend_c, 10, 9600
6, 881600, Pitch_bend_c, 10, 9600
6, 881614, Pitch_bend_c, 10, 9472
6, 881628, Pitch_bend_c, 10, 9344
6, 881642, Pitch_bend_c, 10, 9216
6, 881656, Pitch_bend_c, 10, 9088
6, 881670, Pitch_bend_c, 10, 8960
6, 881684, Pitch_bend_c, 10, 8832
6, 881698, Pitch_bend_c, 10, 8704
6, 881712, Pitch_bend_c, 10, 8576
6, 881726, Pitch_bend_c, 10, 8448
6, 881740, Pitch_bend_c, 10, 8320
6, 881754, Pitch_bend_c, 10, 8192
6, 881760, Pitch_bend_c, 10, 8192
6, 881920, Pitch_bend_c, 10, 8192
6, 881920, Pitch_bend_c, 10, 8192
6, 881920, Note_off_c, 10, 60, 95
6, 881920, Note_on_c, 8, 58, 95
6, 882240, Note_off_c, 8, 58, 95
6, 882240, Note_on_c, 8, 60, 95
6, 882720, Note_off_c, 8, 60, 95
6, 882720, Note_on_c, 8, 58, 70
6, 883200, Note_off_c, 8, 58, 70
6, 883200, Pitch_bend_c, 10, 8192
6, 883200, Note_on_c, 10, 60, 95
6, 883214, Pitch_bend_c, 10, 8320
6, 883228, Pitch_bend_c, 10, 8448
6, 883242, Pitch_bend_c, 10, 8576
6, 883256, Pitch_bend_c, 10, 8704
6, 883270, Pitch_bend_c, 10, 8832
6, 883284, Pitch_bend_c, 10, 8960
6, 883298, Pitch_bend_c, 10, 9088
6, 883312, Pitch_bend_c, 10, 9216
6, 883326, Pitch_bend_c, 10, 9344
6, 883340, Pitch_bend_c, 10, 9472
6, 883354, Pitch_bend_c, 10, 9600
6, 883360, Pitch_bend_c, 10, 9600
6, 883520, Pitch_bend_c, 10, 9600
6, 883534, Pitch_bend_c, 10, 9472
6, 883548, Pitch_bend_c, 10, 9344
6, 883562, Pitch_bend_c, 10, 9216
6, 883576, Pitch_bend_c, 10, 9088
6, 883590, Pitch_bend_c, 10, 8960
6, 883604, Pitch_bend_c, 10, 8832
6, 883618, Pitch_bend_c, 10, 8704
6, 883632, Pitch_bend_c, 10, 8576
6, 883646, Pitch_bend_c, 10, 8448
6, 883660, Pitch_bend_c, 10, 8320
6, 883674, Pitch_bend_c, 10, 8192
6, 883680, Pitch_bend_c, 10, 8192
6, 883840, Pitch_bend_c, 10, 8192
6, 883840, Pitch_bend_c, 10, 8192
6, 883840, Note_off_c, 10, 60, 95
6, 883840, Note_on_c, 8, 58, 95
6, 884160, Note_off_c, 8, 58, 95
6, 884160, Note_on_c, 8, 60, 95
6, 884640, Note_off_c, 8, 60, 95
6, 884640, Note_on_c, 8, 58, 70
6, 885120, Note_off_c, 8, 58, 70
6, 885120, Note_on_c, 8, 60, 95
6, 885600, Note_off_c, 8, 60, 95
6, 885600, Note_on_c, 8, 58, 70
6, 886080, Note_off_c, 8, 58, 70
6, 886080, Note_on_c, 8, 55, 95
6, 886560, Note_off_c, 8, 55, 95
6, 886560, Note_on_c, 8, 53, 70
6, 887040, Note_off_c, 8, 53, 70
6, 887040, Note_on_c, 8, 55, 95
6, 887520, Note_off_c, 8, 55, 95
6, 887520, Note_on_c, 8, 53, 70
6, 888000, Note_off_c, 8, 53, 70
6, 888000, Note_on_c, 8, 50, 95
6, 888480, Note_off_c, 8, 50, 95
6, 888480, Note_on_c, 8, 48, 70
6, 888960, Note_off_c, 8, 48, 70
6, 888960, Note_on_c, 8, 50, 95
6, 889280, Note_off_c, 8, 50, 95
6, 889280, Note_on_c, 10, 48, 70
6, 889440, Pitch_bend_c, 10, 7552
6, 889600, Pitch_bend_c, 10, 6784
6, 889600, Pitch_bend_c, 10, 8192
6, 889600, Note_off_c, 10, 48, 70
6, 889600, Note_on_c, 8, 46, 95
6, 889920, Note_off_c, 8, 46, 95
6, 889920, Note_on_c, 8, 48, 95
6, 890400, Note_off_c, 8, 48, 95
6, 890400, Note_on_c, 8, 46, 70
6, 890880, Note_off_c, 8, 46, 70
6, 890880, Note_on_c, 8, 48, 95
6, 891840, Note_off_c, 8, 48, 95
6, 891840, Note_on_c, 8, 45, 95
6, 892320, Note_off_c, 8, 45, 95
6, 892320, Note_on_c, 8, 48, 95
6, 893280, Note_off_c, 8, 48, 95
6, 893280, Note_on_c, 8, 43, 95
6, 893760, Note_off_c, 8, 43, 95
6, 893760, Note_on_c, 8, 48, 95
6, 894720, Note_off_c, 8, 48, 95
6, 894720, Note_on_c, 8, 43, 95
6, 895200, Note_off_c, 8, 43, 95
6, 895200, Note_on_c, 8, 48, 95
6, 896160, Note_off_c, 8, 48, 95
6, 896160, Note_on_c, 8, 43, 95
6, 896640, Note_off_c, 8, 43, 95
6, 896640, Note_on_c, 8, 48, 95
6, 897600, Note_off_c, 8, 48, 95
6, 897600, Note_on_c, 8, 43, 95
6, 898080, Note_off_c, 8, 43, 95
6, 898080, Note_on_c, 8, 49, 95
6, 899040, Note_off_c, 8, 49, 95
6, 899520, Note_on_c, 8, 50, 95
6, 900000, Note_off_c, 8, 50, 95
6, 900000, Note_on_c, 8, 50, 95
6, 900480, Note_off_c, 8, 50, 95
6, 900960, Note_on_c, 8, 52, 95
6, 901440, Note_off_c, 8, 52, 95
6, 901440, Note_on_c, 8, 52, 95
6, 901920, Note_off_c, 8, 52, 95
6, 902400, Note_on_c, 8, 53, 95
6, 902880, Note_off_c, 8, 53, 95
6, 902880, Note_on_c, 8, 53, 95
6, 903360, Note_off_c, 8, 53, 95
6, 903840, Note_on_c, 8, 54, 95
6, 904320, Note_off_c, 8, 54, 95
6, 904320, Note_on_c, 8, 54, 95
6, 904800, Note_off_c, 8, 54, 95
6, 905280, Note_on_c, 8, 55, 95
6, 906240, Note_off_c, 8, 55, 95
6, 906240, Note_on_c, 8, 55, 95
6, 906720, Note_off_c, 8, 55, 95
6, 906720, Note_on_c, 8, 43, 95
6, 907200, Note_off_c, 8, 43, 95
6, 907200, Note_on_c, 8, 55, 95
6, 907680, Note_off_c, 8, 55, 95
6, 907680, Note_on_c, 8, 55, 95
6, 908640, Note_off_c, 8, 55, 95
6, 908640, Note_on_c, 8, 43, 95
6, 909120, Note_off_c, 8, 43, 95
6, 909120, Note_on_c, 8, 55, 95
6, 909600, Note_off_c, 8, 55, 95
6, 909600, Note_on_c, 8, 55, 95
6, 910560, Note_off_c, 8, 55, 95
6, 910560, Note_on_c, 8, 43, 95
6, 911040, Note_off_c, 8, 43, 95
6, 911040, Note_on_c, 8, 58, 95
6, 911520, Note_off_c, 8, 58, 95
6, 911520, Note_on_c, 8, 58, 95
6, 912480, Note_off_c, 8, 58, 95
6, 912480, Note_on_c, 8, 55, 95
6, 912960, Note_off_c, 8, 55, 95
6, 912960, Note_on_c, 8, 60, 95
6, 913440, Note_off_c, 8, 60, 95
6, 913440, Note_on_c, 8, 60, 95
6, 914400, Note_off_c, 8, 60, 95
6, 914400, Note_on_c, 8, 62, 95
6, 914880, Note_off_c, 8, 62, 95
6, 914880, Note_on_c, 8, 62, 95
6, 915360, Note_off_c, 8, 62, 95
6, 915360, Note_on_c, 8, 62, 95
6, 916320, Note_off_c, 8, 62, 95
6, 916320, Note_on_c, 8, 65, 95
6, 916800, Note_off_c, 8, 65, 95
6, 916800, Note_on_c, 8, 65, 95
6, 917280, Note_off_c, 8, 65, 95
6, 917280, Note_on_c, 8, 65, 95
6, 918240, Note_off_c, 8, 65, 95
6, 918240, Note_on_c, 8, 67, 95
6, 918720, Note_off_c, 8, 67, 95
6, 918720, Note_on_c, 8, 67, 95
6, 919200, Note_off_c, 8, 67, 95
6, 919200, Note_on_c, 8, 67, 95
6, 920160, Note_off_c, 8, 67, 95
6, 920160, Note_on_c, 8, 55, 95
6, 920640, Note_off_c, 8, 55, 95
6, 920640, Note_on_c, 8, 67, 95
6, 921600, Note_off_c, 8, 67, 95
6, 921600, Note_on_c, 8, 67, 95
6, 921600, Note_on_c, 8, 62, 95
6, 922560, Note_off_c, 8, 67, 95
6, 922560, Note_off_c, 8, 62, 95
6, 922560, Note_on_c, 8, 67, 95
6, 922560, Note_on_c, 8, 62, 95
6, 923520, Note_off_c, 8, 67, 95
6, 923520, Note_off_c, 8, 62, 95
6, 923520, Note_on_c, 8, 67, 95
6, 923520, Note_on_c, 8, 62, 95
6, 924000, Note_off_c, 8, 67, 95
6, 924000, Note_off_c, 8, 62, 95
6, 924000, Note_on_c, 8, 67, 95
6, 924000, Note_on_c, 8, 62, 95
6, 924480, Note_off_c, 8, 67, 95
6, 924480, Note_off_c, 8, 62, 95
6, 924480, Note_on_c, 8, 67, 95
6, 924480, Note_on_c, 8, 62, 95
6, 924960, Note_off_c, 8, 67, 95
6, 924960, Note_off_c, 8, 62, 95
6, 924960, Note_on_c, 8, 67, 95
6, 924960, Note_on_c, 8, 61, 95
6, 926400, Note_off_c, 8, 67, 95
6, 926400, Note_off_c, 8, 61, 95
6, 926400, Note_on_c, 8, 67, 95
6, 926400, Note_on_c, 8, 61, 95
6, 926880, Note_off_c, 8, 67, 95
6, 926880, Note_off_c, 8, 61, 95
6, 926880, Note_on_c, 8, 67, 95
6, 926880, Note_on_c, 8, 61, 95
6, 927840, Note_off_c, 8, 67, 95
6, 927840, Note_off_c, 8, 61, 95
6, 927840, Note_on_c, 8, 67, 95
6, 927840, Note_on_c, 8, 61, 95
6, 928320, Note_off_c, 8, 67, 95
6, 928320, Note_off_c, 8, 61, 95
6, 928320, Note_on_c, 8, 67, 95
6, 928320, Note_on_c, 8, 61, 95
6, 928800, Note_off_c, 8, 67, 95
6, 928800, Note_off_c, 8, 61, 95
6, 928800, Note_on_c, 8, 67, 95
6, 928800, Note_on_c, 8, 61, 95
6, 929280, Note_off_c, 8, 67, 95
6, 929280, Note_off_c, 8, 61, 95
6, 929280, Note_on_c, 8, 67, 95
6, 929280, Note_on_c, 8, 60, 95
6, 930240, Note_off_c, 8, 67, 95
6, 930240, Note_off_c, 8, 60, 95
6, 930240, Note_on_c, 8, 67, 95
6, 930240, Note_on_c, 8, 60, 95
6, 931200, Note_off_c, 8, 67, 95
6, 931200, Note_off_c, 8, 60, 95
6, 931200, Note_on_c, 8, 67, 95
6, 931200, Note_on_c, 8, 60, 95
6, 931680, Note_off_c, 8, 67, 95
6, 931680, Note_off_c, 8, 60, 95
6, 931680, Note_on_c, 8, 67, 95
6, 931680, Note_on_c, 8, 60, 95
6, 932160, Note_off_c, 8, 67, 95
6, 932160, Note_off_c, 8, 60, 95
6, 932160, Note_on_c, 8, 67, 95
6, 932160, Note_on_c, 8, 60, 95
6, 932640, Note_off_c, 8, 67, 95
6, 932640, Note_off_c, 8, 60, 95
6, 932640, Note_on_c, 8, 67, 95
6, 932640, Note_on_c, 8, 62, 95
6, 933600, Note_off_c, 8, 67, 95
6, 933600, Note_off_c, 8, 62, 95
6, 933600, Note_on_c, 8, 67, 95
6, 933600, Note_on_c, 8, 64, 95
6, 934080, Note_off_c, 8, 67, 95
6, 934080, Note_off_c, 8, 64, 95
6, 934080, Note_on_c, 8, 67, 95
6, 934080, Note_on_c, 8, 64, 95
6, 934560, Note_off_c, 8, 67, 95
6, 934560, Note_off_c, 8, 64, 95
6, 934560, Note_on_c, 8, 67, 95
6, 934560, Note_on_c, 8, 64, 95
6, 935040, Note_off_c, 8, 67, 95
6, 935040, Note_off_c, 8, 64, 95
6, 935040, Note_on_c, 8, 67, 95
6, 935040, Note_on_c, 8, 64, 95
6, 935520, Note_off_c, 8, 67, 95
6, 935520, Note_off_c, 8, 64, 95
6, 935520, Note_on_c, 8, 67, 95
6, 935520, Note_on_c, 8, 64, 95
6, 936000, Note_off_c, 8, 67, 95
6, 936000, Note_off_c, 8, 64, 95
6, 936000, Note_on_c, 8, 67, 95
6, 936000, Note_on_c, 8, 64, 95
6, 936480, Note_off_c, 8, 67, 95
6, 936480, Note_off_c, 8, 64, 95
6, 936480, Note_on_c, 8, 67, 95
6, 936480, Note_on_c, 8, 64, 95
6, 936960, Note_off_c, 8, 67, 95
6, 936960, Note_off_c, 8, 64, 95
6, 936960, Note_on_c, 8, 62, 95
6, 937280, Note_off_c, 8, 62, 95
6, 937280, Note_on_c, 8, 65, 70
6, 937600, Note_off_c, 8, 65, 70
6, 937600, Note_on_c, 8, 67, 95
6, 937920, Note_off_c, 8, 67, 95
6, 937920, Note_on_c, 8, 62, 95
6, 938240, Note_off_c, 8, 62, 95
6, 938240, Note_on_c, 8, 65, 70
6, 938560, Note_off_c, 8, 65, 70
6, 938560, Note_on_c, 8, 67, 95
6, 938880, Note_off_c, 8, 67, 95
6, 938880, Note_on_c, 8, 62, 95
6, 939200, Note_off_c, 8, 62, 95
6, 939200, Note_on_c, 8, 65, 70
6, 939520, Note_off_c, 8, 65, 70
6, 939520, Note_on_c, 8, 67, 95
6, 939840, Note_off_c, 8, 67, 95
6, 939840, Note_on_c, 8, 62, 95
6, 940160, Note_off_c, 8, 62, 95
6, 940160, Note_on_c, 8, 65, 70
6, 940480, Note_off_c, 8, 65, 70
6, 940480, Note_on_c, 8, 67, 95
6, 940800, Note_off_c, 8, 67, 95
6, 940800, Note_on_c, 8, 62, 95
6, 941120, Note_off_c, 8, 62, 95
6, 941120, Note_on_c, 8, 65, 70
6, 941440, Note_off_c, 8, 65, 70
6, 941440, Note_on_c, 8, 67, 95
6, 941760, Note_off_c, 8, 67, 95
6, 941760, Note_on_c, 8, 62, 95
6, 942080, Note_off_c, 8, 62, 95
6, 942080, Note_on_c, 8, 65, 70
6, 942400, Note_off_c, 8, 65, 70
6, 942400, Note_on_c, 8, 67, 95
6, 942720, Note_off_c, 8, 67, 95
6, 942720, Note_on_c, 8, 62, 95
6, 943040, Note_off_c, 8, 62, 95
6, 943040, Note_on_c, 8, 65, 70
6, 943360, Note_off_c, 8, 65, 70
6, 943360, Note_on_c, 8, 67, 95
6, 943680, Note_off_c, 8, 67, 95
6, 943680, Note_on_c, 8, 62, 95
6, 944000, Note_off_c, 8, 62, 95
6, 944000, Note_on_c, 8, 65, 70
6, 944320, Note_off_c, 8, 65, 70
6, 944320, Note_on_c, 8, 67, 95
6, 944640, Note_off_c, 8, 67, 95
6, 944640, Note_on_c, 8, 62, 95
6, 944960, Note_off_c, 8, 62, 95
6, 944960, Note_on_c, 8, 65, 70
6, 945280, Note_off_c, 8, 65, 70
6, 945280, Note_on_c, 8, 67, 95
6, 945600, Note_off_c, 8, 67, 95
6, 945600, Note_on_c, 8, 62, 95
6, 945920, Note_off_c, 8, 62, 95
6, 945920, Note_on_c, 8, 65, 70
6, 946240, Note_off_c, 8, 65, 70
6, 946240, Note_on_c, 8, 67, 95
6, 946560, Note_off_c, 8, 67, 95
6, 946560, Note_on_c, 8, 62, 95
6, 946880, Note_off_c, 8, 62, 95
6, 946880, Note_on_c, 8, 65, 70
6, 947200, Note_off_c, 8, 65, 70
6, 947200, Note_on_c, 8, 67, 95
6, 947520, Note_off_c, 8, 67, 95
6, 947520, Note_on_c, 8, 62, 95
6, 947840, Note_off_c, 8, 62, 95
6, 947840, Note_on_c, 8, 65, 70
6, 948160, Note_off_c, 8, 65, 70
6, 948160, Note_on_c, 8, 67, 95
6, 948480, Note_off_c, 8, 67, 95
6, 948480, Note_on_c, 8, 62, 95
6, 948800, Note_off_c, 8, 62, 95
6, 948800, Note_on_c, 8, 65, 70
6, 949120, Note_off_c, 8, 65, 70
6, 949120, Note_on_c, 8, 67, 95
6, 949440, Note_off_c, 8, 67, 95
6, 949440, Note_on_c, 8, 62, 95
6, 949760, Note_off_c, 8, 62, 95
6, 949760, Note_on_c, 8, 65, 70
6, 950080, Note_off_c, 8, 65, 70
6, 950080, Note_on_c, 8, 67, 95
6, 950400, Note_off_c, 8, 67, 95
6, 950400, Note_on_c, 8, 62, 95
6, 950720, Note_off_c, 8, 62, 95
6, 950720, Note_on_c, 8, 65, 70
6, 951040, Note_off_c, 8, 65, 70
6, 951040, Note_on_c, 8, 67, 95
6, 951360, Note_off_c, 8, 67, 95
6, 951360, Note_on_c, 8, 62, 95
6, 951680, Note_off_c, 8, 62, 95
6, 951680, Note_on_c, 8, 65, 70
6, 952000, Note_off_c, 8, 65, 70
6, 952000, Note_on_c, 8, 67, 95
6, 952320, Note_off_c, 8, 67, 95
6, 952320, Note_on_c, 8, 62, 95
6, 952640, Note_off_c, 8, 62, 95
6, 952640, Note_on_c, 8, 65, 70
6, 952960, Note_off_c, 8, 65, 70
6, 952960, Note_on_c, 8, 67, 95
6, 953280, Note_off_c, 8, 67, 95
6, 953280, Note_on_c, 8, 55, 95
6, 953760, Note_off_c, 8, 55, 95
6, 953760, Note_on_c, 8, 67, 95
6, 954720, Note_off_c, 8, 67, 95
6, 954720, Note_on_c, 8, 55, 95
6, 956160, Note_off_c, 8, 55, 95
6, 956160, Note_on_c, 8, 60, 95
6, 956400, Note_off_c, 8, 60, 95
6, 956400, Note_on_c, 8, 60, 95
6, 956640, Note_off_c, 8, 60, 95
6, 956640, Note_on_c, 8, 60, 95
6, 956880, Note_off_c, 8, 60, 95
6, 956880, Note_on_c, 8, 60, 95
6, 957120, Note_off_c, 8, 60, 95
6, 957120, Note_on_c, 8, 60, 95
6, 957360, Note_off_c, 8, 60, 95
6, 957360, Note_on_c, 8, 60, 95
6, 957600, Note_off_c, 8, 60, 95
6, 957600, Note_on_c, 8, 60, 95
6, 957840, Note_off_c, 8, 60, 95
6, 957840, Note_on_c, 8, 60, 95
6, 958080, Note_off_c, 8, 60, 95
6, 958080, Note_on_c, 8, 60, 95
6, 958320, Note_off_c, 8, 60, 95
6, 958320, Note_on_c, 8, 60, 95
6, 958560, Note_off_c, 8, 60, 95
6, 958560, Note_on_c, 8, 60, 95
6, 958800, Note_off_c, 8, 60, 95
6, 958800, Note_on_c, 8, 60, 95
6, 959040, Note_off_c, 8, 60, 95
6, 959040, Note_on_c, 8, 60, 95
6, 959280, Note_off_c, 8, 60, 95
6, 959280, Note_on_c, 8, 60, 95
6, 959520, Note_off_c, 8, 60, 95
6, 959520, Note_on_c, 8, 60, 95
6, 959760, Note_off_c, 8, 60, 95
6, 959760, Note_on_c, 8, 60, 95
6, 960000, Note_off_c, 8, 60, 95
6, 960000, Note_on_c, 8, 60, 95
6, 960240, Note_off_c, 8, 60, 95
6, 960240, Note_on_c, 8, 60, 95
6, 960480, Note_off_c, 8, 60, 95
6, 960480, Note_on_c, 8, 60, 95
6, 960720, Note_off_c, 8, 60, 95
6, 960720, Note_on_c, 8, 60, 95
6, 960960, Note_off_c, 8, 60, 95
6, 960960, Note_on_c, 8, 60, 95
6, 961200, Note_off_c, 8, 60, 95
6, 961200, Note_on_c, 8, 60, 95
6, 961440, Note_off_c, 8, 60, 95
6, 961440, Note_on_c, 8, 60, 95
6, 961680, Note_off_c, 8, 60, 95
6, 961680, Note_on_c, 8, 60, 95
6, 961920, Note_off_c, 8, 60, 95
6, 961920, Note_on_c, 8, 60, 95
6, 962160, Note_off_c, 8, 60, 95
6, 962160, Note_on_c, 8, 60, 95
6, 962400, Note_off_c, 8, 60, 95
6, 962400, Note_on_c, 8, 60, 95
6, 962640, Note_off_c, 8, 60, 95
6, 962640, Note_on_c, 8, 60, 95
6, 962880, Note_off_c, 8, 60, 95
6, 962880, Note_on_c, 8, 60, 95
6, 963120, Note_off_c, 8, 60, 95
6, 963120, Note_on_c, 8, 60, 95
6, 963360, Note_off_c, 8, 60, 95
6, 963360, Note_on_c, 8, 60, 95
6, 963600, Note_off_c, 8, 60, 95
6, 963600, Note_on_c, 8, 60, 95
6, 963839, Note_off_c, 8, 60, 95
6, 963840, Note_on_c, 8, 79, 95
6, 963960, Note_off_c, 8, 79, 95
6, 963960, Note_on_c, 8, 79, 95
6, 964080, Note_off_c, 8, 79, 95
6, 964080, Note_on_c, 8, 79, 95
6, 964200, Note_off_c, 8, 79, 95
6, 964200, Note_on_c, 8, 79, 95
6, 964320, Note_off_c, 8, 79, 95
6, 964320, Note_on_c, 8, 79, 95
6, 964440, Note_off_c, 8, 79, 95
6, 964440, Note_on_c, 8, 79, 95
6, 964560, Note_off_c, 8, 79, 95
6, 964560, Note_on_c, 8, 79, 95
6, 964680, Note_off_c, 8, 79, 95
6, 964680, Note_on_c, 8, 79, 95
6, 964800, Note_off_c, 8, 79, 95
6, 964800, Note_on_c, 8, 79, 95
6, 964920, Note_off_c, 8, 79, 95
6, 964920, Note_on_c, 8, 79, 95
6, 965040, Note_off_c, 8, 79, 95
6, 965040, Note_on_c, 8, 79, 95
6, 965160, Note_off_c, 8, 79, 95
6, 965160, Note_on_c, 8, 79, 95
6, 965279, Note_off_c, 8, 79, 95
6, 965280, Note_on_c, 8, 80, 95
6, 965400, Note_off_c, 8, 80, 95
6, 965400, Note_on_c, 8, 80, 95
6, 965520, Note_off_c, 8, 80, 95
6, 965520, Note_on_c, 8, 80, 95
6, 965640, Note_off_c, 8, 80, 95
6, 965640, Note_on_c, 8, 80, 95
6, 965759, Note_off_c, 8, 80, 95
6, 965760, Note_on_c, 8, 82, 95
6, 965880, Note_off_c, 8, 82, 95
6, 965880, Note_on_c, 8, 82, 95
6, 966000, Note_off_c, 8, 82, 95
6, 966000, Note_on_c, 8, 82, 95
6, 966120, Note_off_c, 8, 82, 95
6, 966120, Note_on_c, 8, 82, 95
6, 966239, Note_off_c, 8, 82, 95
6, 966240, Note_on_c, 8, 80, 95
6, 966360, Note_off_c, 8, 80, 95
6, 966360, Note_on_c, 8, 80, 95
6, 966480, Note_off_c, 8, 80, 95
6, 966480, Note_on_c, 8, 80, 95
6, 966600, Note_off_c, 8, 80, 95
6, 966600, Note_on_c, 8, 80, 95
6, 966719, Note_off_c, 8, 80, 95
6, 966720, Note_on_c, 8, 79, 95
6, 966840, Note_off_c, 8, 79, 95
6, 966840, Note_on_c, 8, 79, 95
6, 966960, Note_off_c, 8, 79, 95
6, 966960, Note_on_c, 8, 79, 95
6, 967080, Note_off_c, 8, 79, 95
6, 967080, Note_on_c, 8, 79, 95
6, 967199, Note_off_c, 8, 79, 95
6, 967200, Note_on_c, 8, 77, 95
6, 967320, Note_off_c, 8, 77, 95
6, 967320, Note_on_c, 8, 77, 95
6, 967440, Note_off_c, 8, 77, 95
6, 967440, Note_on_c, 8, 77, 95
6, 967560, Note_off_c, 8, 77, 95
6, 967560, Note_on_c, 8, 77, 95
6, 967679, Note_off_c, 8, 77, 95
6, 967680, Note_on_c, 8, 75, 95
6, 967800, Note_off_c, 8, 75, 95
6, 967800, Note_on_c, 8, 75, 95
6, 967920, Note_off_c, 8, 75, 95
6, 967920, Note_on_c, 8, 75, 95
6, 968040, Note_off_c, 8, 75, 95
6, 968040, Note_on_c, 8, 75, 95
6, 968159, Note_off_c, 8, 75, 95
6, 968160, Note_on_c, 8, 74, 95
6, 968280, Note_off_c, 8, 74, 95
6, 968280, Note_on_c, 8, 74, 95
6, 968400, Note_off_c, 8, 74, 95
6, 968400, Note_on_c, 8, 74, 95
6, 968520, Note_off_c, 8, 74, 95
6, 968520, Note_on_c, 8, 74, 95
6, 968639, Note_off_c, 8, 74, 95
6, 968640, Note_on_c, 8, 72, 95
6, 968760, Note_off_c, 8, 72, 95
6, 968760, Note_on_c, 8, 72, 95
6, 968880, Note_off_c, 8, 72, 95
6, 968880, Note_on_c, 8, 72, 95
6, 969000, Note_off_c, 8, 72, 95
6, 969000, Note_on_c, 8, 72, 95
6, 969119, Note_off_c, 8, 72, 95
6, 969120, Note_on_c, 8, 70, 95
6, 969240, Note_off_c, 8, 70, 95
6, 969240, Note_on_c, 8, 70, 95
6, 969360, Note_off_c, 8, 70, 95
6, 969360, Note_on_c, 8, 70, 95
6, 969480, Note_off_c, 8, 70, 95
6, 969480, Note_on_c, 8, 70, 95
6, 969599, Note_off_c, 8, 70, 95
6, 969600, Note_on_c, 8, 69, 95
6, 969720, Note_off_c, 8, 69, 95
6, 969720, Note_on_c, 8, 69, 95
6, 969840, Note_off_c, 8, 69, 95
6, 969840, Note_on_c, 8, 69, 95
6, 969960, Note_off_c, 8, 69, 95
6, 969960, Note_on_c, 8, 69, 95
6, 970079, Note_off_c, 8, 69, 95
6, 970080, Note_on_c, 8, 67, 95
6, 970200, Note_off_c, 8, 67, 95
6, 970200, Note_on_c, 8, 67, 95
6, 970320, Note_off_c, 8, 67, 95
6, 970320, Note_on_c, 8, 67, 95
6, 970440, Note_off_c, 8, 67, 95
6, 970440, Note_on_c, 8, 67, 95
6, 970560, Note_off_c, 8, 67, 95
6, 970560, Note_on_c, 8, 67, 95
6, 970680, Note_off_c, 8, 67, 95
6, 970680, Note_on_c, 8, 67, 95
6, 970800, Note_off_c, 8, 67, 95
6, 970800, Note_on_c, 8, 67, 95
6, 970920, Note_off_c, 8, 67, 95
6, 970920, Note_on_c, 8, 67, 95
6, 971039, Note_off_c, 8, 67, 95
6, 971040, Note_on_c, 8, 65, 95
6, 971160, Note_off_c, 8, 65, 95
6, 971160, Note_on_c, 8, 65, 95
6, 971280, Note_off_c, 8, 65, 95
6, 971280, Note_on_c, 8, 65, 95
6, 971400, Note_off_c, 8, 65, 95
6, 971400, Note_on_c, 8, 65, 95
6, 971519, Note_off_c, 8, 65, 95
6, 971520, Note_on_c, 8, 64, 95
6, 971640, Note_off_c, 8, 64, 95
6, 971640, Note_on_c, 8, 64, 95
6, 971760, Note_off_c, 8, 64, 95
6, 971760, Note_on_c, 8, 64, 95
6, 971880, Note_off_c, 8, 64, 95
6, 971880, Note_on_c, 8, 64, 95
6, 971999, Note_off_c, 8, 64, 95
6, 972000, Note_on_c, 8, 62, 95
6, 972120, Note_off_c, 8, 62, 95
6, 972120, Note_on_c, 8, 62, 95
6, 972240, Note_off_c, 8, 62, 95
6, 972240, Note_on_c, 8, 62, 95
6, 972360, Note_off_c, 8, 62, 95
6, 972360, Note_on_c, 8, 62, 95
6, 972480, Note_off_c, 8, 62, 95
6, 972480, Note_on_c, 8, 62, 95
6, 972600, Note_off_c, 8, 62, 95
6, 972600, Note_on_c, 8, 62, 95
6, 972720, Note_off_c, 8, 62, 95
6, 972720, Note_on_c, 8, 62, 95
6, 972840, Note_off_c, 8, 62, 95
6, 972840, Note_on_c, 8, 62, 95
6, 972960, Note_off_c, 8, 62, 95
6, 972960, Note_on_c, 8, 62, 95
6, 973080, Note_off_c, 8, 62, 95
6, 973080, Note_on_c, 8, 62, 95
6, 973200, Note_off_c, 8, 62, 95
6, 973200, Note_on_c, 8, 62, 95
6, 973320, Note_off_c, 8, 62, 95
6, 973320, Note_on_c, 8, 62, 95
6, 973439, Note_off_c, 8, 62, 95
6, 973440, Note_on_c, 8, 67, 95
6, 973440, Note_on_c, 8, 62, 95
6, 973560, Note_off_c, 8, 62, 95
6, 973560, Note_on_c, 8, 62, 95
6, 973680, Note_off_c, 8, 62, 95
6, 973680, Note_on_c, 8, 62, 95
6, 973800, Note_off_c, 8, 62, 95
6, 973800, Note_on_c, 8, 62, 95
6, 973920, Note_off_c, 8, 62, 95
6, 973920, Note_on_c, 8, 62, 95
6, 974040, Note_off_c, 8, 62, 95
6, 974040, Note_on_c, 8, 62, 95
6, 974160, Note_off_c, 8, 62, 95
6, 974160, Note_on_c, 8, 62, 95
6, 974280, Note_off_c, 8, 62, 95
6, 974280, Note_on_c, 8, 62, 95
6, 974400, Note_off_c, 8, 62, 95
6, 974400, Note_on_c, 8, 62, 95
6, 974520, Note_off_c, 8, 62, 95
6, 974520, Note_on_c, 8, 62, 95
6, 974640, Note_off_c, 8, 62, 95
6, 974640, Note_on_c, 8, 62, 95
6, 974760, Note_off_c, 8, 62, 95
6, 974760, Note_on_c, 8, 62, 95
6, 974880, Note_off_c, 8, 62, 95
6, 974880, Note_on_c, 8, 62, 95
6, 975000, Note_off_c, 8, 62, 95
6, 975000, Note_on_c, 8, 62, 95
6, 975120, Note_off_c, 8, 62, 95
6, 975120, Note_on_c, 8, 62, 95
6, 975240, Note_off_c, 8, 62, 95
6, 975240, Note_on_c, 8, 62, 95
6, 975359, Note_off_c, 8, 62, 95
6, 975360, Note_off_c, 8, 67, 95
6, 975360, Note_on_c, 8, 67, 95
6, 975360, Note_on_c, 8, 62, 127
6, 976320, Note_off_c, 8, 67, 95
6, 976320, Note_off_c, 8, 62, 127
6, 976320, End_track
0, 0, End_of_file
