0, 0, Header, 1, 17, 384
1, 0, Start_track
1, 0, Time_signature, 4, 2, 24, 8
1, 0, Key_signature, 0, "major"
1, 0, Tempo, 857142
1, 0, End_track
2, 0, Start_track
2, 0, MIDI_port, 0
2, 0, Title_t, "CHITARRA"
2, 192, Control_c, 0, 91, 100
2, 192, Control_c, 0, 7, 91
2, 192, Program_c, 0, 24
2, 1536, Note_on_c, 0, 45, 91
2, 1728, Note_on_c, 0, 52, 82
2, 1737, Control_c, 0, 64, 127
2, 1900, Note_on_c, 0, 45, 0
2, 1920, Note_on_c, 0, 57, 78
2, 1923, Note_on_c, 0, 52, 0
2, 2112, Note_on_c, 0, 44, 63
2, 2154, Note_on_c, 0, 44, 0
2, 2300, Control_c, 0, 64, 0
2, 2304, Note_on_c, 0, 42, 94
2, 2359, Note_on_c, 0, 57, 0
2, 2370, Control_c, 0, 64, 127
2, 2496, Note_on_c, 0, 49, 81
2, 2681, Note_on_c, 0, 49, 0
2, 2688, Note_on_c, 0, 54, 68
2, 2701, Note_on_c, 0, 42, 0
2, 2880, Note_on_c, 0, 40, 86
2, 2902, Note_on_c, 0, 54, 0
2, 3031, Note_on_c, 0, 40, 0
2, 3072, Note_on_c, 0, 38, 87
2, 3072, Control_c, 0, 64, 0
2, 3152, Control_c, 0, 64, 127
2, 3264, Note_on_c, 0, 54, 64
2, 3393, Note_on_c, 0, 54, 0
2, 3456, Note_on_c, 0, 57, 77
2, 3456, Note_on_c, 0, 62, 86
2, 3595, Note_on_c, 0, 57, 0
2, 3606, Note_on_c, 0, 62, 0
2, 3631, Note_on_c, 0, 38, 0
2, 3648, Note_on_c, 0, 54, 65
2, 3816, Note_on_c, 0, 54, 0
2, 3840, Note_on_c, 0, 40, 86
2, 3843, Control_c, 0, 64, 0
2, 3912, Control_c, 0, 64, 127
2, 4032, Note_on_c, 0, 47, 81
2, 4224, Note_on_c, 0, 59, 86
2, 4245, Note_on_c, 0, 47, 0
2, 4390, Note_on_c, 0, 59, 0
2, 4416, Note_on_c, 0, 52, 66
2, 4460, Note_on_c, 0, 40, 0
2, 4608, Note_on_c, 0, 45, 85
2, 4613, Control_c, 0, 64, 0
2, 4630, Note_on_c, 0, 52, 0
2, 4694, Control_c, 0, 64, 127
2, 4800, Note_on_c, 0, 52, 81
2, 4964, Note_on_c, 0, 52, 0
2, 4992, Note_on_c, 0, 57, 81
2, 5006, Note_on_c, 0, 45, 0
2, 5184, Note_on_c, 0, 44, 71
2, 5261, Note_on_c, 0, 44, 0
2, 5361, Control_c, 0, 64, 0
2, 5376, Note_on_c, 0, 42, 85
2, 5442, Control_c, 0, 64, 127
2, 5497, Note_on_c, 0, 57, 0
2, 5568, Note_on_c, 0, 49, 72
2, 5714, Note_on_c, 0, 49, 0
2, 5760, Note_on_c, 0, 54, 66
2, 5815, Note_on_c, 0, 42, 0
2, 5952, Note_on_c, 0, 40, 85
2, 5954, Note_on_c, 0, 54, 0
2, 6114, Note_on_c, 0, 40, 0
2, 6144, Note_on_c, 0, 38, 80
2, 6144, Control_c, 0, 64, 0
2, 6213, Control_c, 0, 64, 127
2, 6336, Note_on_c, 0, 57, 73
2, 6448, Note_on_c, 0, 57, 0
2, 6528, Note_on_c, 0, 57, 71
2, 6528, Note_on_c, 0, 62, 86
2, 6658, Note_on_c, 0, 38, 0
2, 6664, Note_on_c, 0, 62, 0
2, 6686, Note_on_c, 0, 57, 0
2, 6720, Note_on_c, 0, 54, 58
2, 6822, Note_on_c, 0, 54, 0
2, 6912, Note_on_c, 0, 40, 55
2, 6915, Control_c, 0, 64, 0
2, 6996, Control_c, 0, 64, 127
2, 7104, Note_on_c, 0, 52, 82
2, 7283, Note_on_c, 0, 40, 0
2, 7296, Note_on_c, 0, 59, 82
2, 7298, Note_on_c, 0, 52, 0
2, 7483, Note_on_c, 0, 59, 0
2, 7488, Note_on_c, 0, 52, 61
2, 7650, Note_on_c, 0, 52, 0
2, 7663, Control_c, 0, 64, 0
2, 7680, Note_on_c, 0, 45, 86
2, 7755, Control_c, 0, 64, 127
2, 7872, Note_on_c, 0, 52, 78
2, 8032, Note_on_c, 0, 52, 0
2, 8064, Note_on_c, 0, 57, 90
2, 8110, Note_on_c, 0, 45, 0
2, 8256, Note_on_c, 0, 45, 78
2, 8321, Note_on_c, 0, 45, 0
2, 8448, Note_on_c, 0, 45, 73
2, 8479, Note_on_c, 0, 57, 0
2, 8640, Note_on_c, 0, 52, 77
2, 8757, Note_on_c, 0, 52, 0
2, 8825, Note_on_c, 0, 45, 0
2, 8832, Note_on_c, 0, 57, 70
2, 8832, Note_on_c, 0, 59, 68
2, 9024, Note_on_c, 0, 45, 76
2, 9088, Note_on_c, 0, 45, 0
2, 9099, Note_on_c, 0, 45, 58
2, 9125, Note_on_c, 0, 57, 64
2, 9159, Note_on_c, 0, 59, 72
2, 9187, Note_on_c, 0, 57, 0
2, 9188, Note_on_c, 0, 61, 61
2, 9202, Note_on_c, 0, 59, 0
2, 9235, Note_on_c, 0, 64, 85
2, 10425, Control_c, 0, 64, 0
2, 10652, Note_on_c, 0, 61, 0
2, 10655, Note_on_c, 0, 59, 0
2, 10678, Note_on_c, 0, 57, 0
2, 10678, Note_on_c, 0, 64, 0
2, 10691, Note_on_c, 0, 45, 0
2, 23328, Note_on_c, 0, 52, 86
2, 23424, Note_on_c, 0, 57, 112
2, 23432, Note_on_c, 0, 52, 0
2, 23520, Note_on_c, 0, 59, 85
2, 23528, Note_on_c, 0, 57, 0
2, 23616, Note_on_c, 0, 61, 93
2, 23647, Note_on_c, 0, 59, 0
2, 23712, Note_on_c, 0, 52, 93
2, 23717, Note_on_c, 0, 61, 0
2, 24000, Note_on_c, 0, 57, 85
2, 24413, Note_on_c, 0, 52, 0
2, 24485, Note_on_c, 0, 57, 0
2, 24518, Pitch_bend_c, 0, 7936
2, 24521, Pitch_bend_c, 0, 7680
2, 24524, Pitch_bend_c, 0, 7296
2, 24527, Pitch_bend_c, 0, 6912
2, 24529, Pitch_bend_c, 0, 6400
2, 24532, Pitch_bend_c, 0, 6016
2, 24535, Pitch_bend_c, 0, 5632
2, 24537, Pitch_bend_c, 0, 5376
2, 24540, Pitch_bend_c, 0, 4864
2, 24543, Pitch_bend_c, 0, 4352
2, 24546, Pitch_bend_c, 0, 4096
2, 24548, Pitch_bend_c, 0, 3712
2, 24551, Pitch_bend_c, 0, 3328
2, 24554, Pitch_bend_c, 0, 3072
2, 24556, Pitch_bend_c, 0, 2688
2, 24559, Pitch_bend_c, 0, 2304
2, 24562, Pitch_bend_c, 0, 1920
2, 24565, Pitch_bend_c, 0, 1536
2, 24567, Pitch_bend_c, 0, 1280
2, 24570, Pitch_bend_c, 0, 896
2, 24573, Pitch_bend_c, 0, 768
2, 24576, Note_on_c, 0, 54, 91
2, 24576, Pitch_bend_c, 0, 640
2, 24578, Pitch_bend_c, 0, 512
2, 24581, Pitch_bend_c, 0, 256
2, 24584, Pitch_bend_c, 0, 128
2, 24589, Pitch_bend_c, 0, 0
2, 24596, Pitch_bend_c, 0, 128
2, 24599, Pitch_bend_c, 0, 384
2, 24602, Pitch_bend_c, 0, 512
2, 24604, Pitch_bend_c, 0, 640
2, 24607, Pitch_bend_c, 0, 896
2, 24610, Pitch_bend_c, 0, 1152
2, 24613, Pitch_bend_c, 0, 1536
2, 24616, Pitch_bend_c, 0, 1792
2, 24619, Pitch_bend_c, 0, 2048
2, 24621, Pitch_bend_c, 0, 2432
2, 24623, Pitch_bend_c, 0, 2688
2, 24627, Pitch_bend_c, 0, 2944
2, 24629, Pitch_bend_c, 0, 3200
2, 24632, Pitch_bend_c, 0, 3456
2, 24635, Pitch_bend_c, 0, 3712
2, 24638, Pitch_bend_c, 0, 3968
2, 24640, Pitch_bend_c, 0, 4224
2, 24643, Pitch_bend_c, 0, 4480
2, 24646, Pitch_bend_c, 0, 4736
2, 24649, Pitch_bend_c, 0, 4992
2, 24651, Pitch_bend_c, 0, 5376
2, 24654, Pitch_bend_c, 0, 5632
2, 24657, Pitch_bend_c, 0, 5888
2, 24660, Pitch_bend_c, 0, 6272
2, 24662, Pitch_bend_c, 0, 6528
2, 24665, Pitch_bend_c, 0, 6784
2, 24668, Pitch_bend_c, 0, 7168
2, 24671, Pitch_bend_c, 0, 7424
2, 24673, Pitch_bend_c, 0, 7680
2, 24676, Pitch_bend_c, 0, 7936
2, 24679, Pitch_bend_c, 0, 8192
2, 24681, Pitch_bend_c, 0, 8192
2, 24768, Note_on_c, 0, 57, 93
2, 24960, Note_on_c, 0, 61, 87
2, 25017, Note_on_c, 0, 57, 0
2, 25053, Note_on_c, 0, 54, 0
2, 25086, Control_c, 0, 64, 127
2, 25152, Note_on_c, 0, 54, 91
2, 25197, Note_on_c, 0, 61, 0
2, 25250, Note_on_c, 0, 54, 0
2, 25344, Note_on_c, 0, 52, 106
2, 25366, Control_c, 0, 64, 0
2, 25448, Control_c, 0, 64, 127
2, 25536, Note_on_c, 0, 57, 88
2, 25728, Note_on_c, 0, 61, 86
2, 25747, Note_on_c, 0, 52, 0
2, 25759, Note_on_c, 0, 57, 0
2, 25903, Note_on_c, 0, 61, 0
2, 25920, Note_on_c, 0, 52, 97
2, 26006, Note_on_c, 0, 52, 0
2, 26112, Note_on_c, 0, 50, 98
2, 26112, Note_on_c, 0, 52, 76
2, 26122, Note_on_c, 0, 52, 0
2, 26125, Control_c, 0, 64, 0
2, 26184, Control_c, 0, 64, 127
2, 26304, Note_on_c, 0, 57, 87
2, 26496, Note_on_c, 0, 61, 92
2, 26534, Note_on_c, 0, 57, 0
2, 26579, Note_on_c, 0, 50, 0
2, 26668, Note_on_c, 0, 61, 0
2, 26688, Note_on_c, 0, 50, 94
2, 26782, Note_on_c, 0, 50, 0
2, 26880, Note_on_c, 0, 52, 99
2, 26896, Control_c, 0, 64, 0
2, 26920, Control_c, 0, 64, 127
2, 27072, Note_on_c, 0, 56, 92
2, 27109, Note_on_c, 0, 52, 0
2, 27168, Note_on_c, 0, 59, 93
2, 27224, Note_on_c, 0, 56, 0
2, 27261, Note_on_c, 0, 59, 0
2, 27667, Control_c, 0, 64, 0
2, 27667, End_track
3, 0, Start_track
3, 0, MIDI_port, 0
3, 0, Title_t, "STRINGS"
3, 192, Control_c, 1, 91, 120
3, 192, Program_c, 1, 48
3, 356, Control_c, 1, 7, 4
3, 384, Control_c, 1, 7, 5
3, 452, Control_c, 1, 7, 8
3, 480, Control_c, 1, 7, 10
3, 548, Control_c, 1, 7, 13
3, 576, Control_c, 1, 7, 14
3, 644, Control_c, 1, 7, 18
3, 672, Control_c, 1, 7, 19
3, 740, Control_c, 1, 7, 22
3, 768, Control_c, 1, 7, 23
3, 836, Control_c, 1, 7, 27
3, 932, Control_c, 1, 7, 31
3, 1028, Control_c, 1, 7, 35
3, 1124, Control_c, 1, 7, 40
3, 1220, Control_c, 1, 7, 44
3, 1316, Control_c, 1, 7, 49
3, 1412, Control_c, 1, 7, 53
3, 1508, Control_c, 1, 7, 57
3, 1517, Note_on_c, 1, 64, 52
3, 1519, Note_on_c, 1, 59, 53
3, 1521, Note_on_c, 1, 61, 45
3, 1524, Note_on_c, 1, 45, 55
3, 1604, Control_c, 1, 7, 62
3, 1700, Control_c, 1, 7, 67
3, 1796, Control_c, 1, 7, 71
3, 1892, Control_c, 1, 7, 76
3, 1988, Control_c, 1, 7, 80
3, 2084, Control_c, 1, 7, 85
3, 2180, Control_c, 1, 7, 89
3, 2276, Control_c, 1, 7, 94
3, 2286, Note_on_c, 1, 42, 38
3, 2291, Note_on_c, 1, 45, 0
3, 2372, Control_c, 1, 7, 98
3, 2468, Control_c, 1, 7, 102
3, 2564, Control_c, 1, 7, 107
3, 2660, Control_c, 1, 7, 111
3, 2741, Control_c, 1, 64, 127
3, 2756, Control_c, 1, 7, 116
3, 2844, Note_on_c, 1, 61, 0
3, 2844, Note_on_c, 1, 59, 0
3, 2852, Control_c, 1, 7, 120
3, 2855, Note_on_c, 1, 64, 0
3, 2882, Note_on_c, 1, 42, 0
3, 2948, Control_c, 1, 7, 125
3, 3053, Note_on_c, 1, 50, 45
3, 3055, Note_on_c, 1, 57, 45
3, 3057, Note_on_c, 1, 54, 30
3, 3059, Note_on_c, 1, 62, 48
3, 3075, Control_c, 1, 64, 0
3, 3455, Control_c, 1, 64, 127
3, 3506, Note_on_c, 1, 57, 0
3, 3515, Note_on_c, 1, 50, 0
3, 3517, Note_on_c, 1, 54, 0
3, 3522, Note_on_c, 1, 62, 0
3, 3826, Note_on_c, 1, 56, 30
3, 3831, Note_on_c, 1, 52, 51
3, 3832, Note_on_c, 1, 59, 46
3, 3835, Note_on_c, 1, 64, 44
3, 3846, Control_c, 1, 64, 0
3, 4225, Control_c, 1, 64, 127
3, 4294, Note_on_c, 1, 52, 0
3, 4301, Note_on_c, 1, 59, 0
3, 4305, Note_on_c, 1, 56, 0
3, 4305, Note_on_c, 1, 64, 0
3, 4593, Note_on_c, 1, 59, 45
3, 4595, Note_on_c, 1, 64, 48
3, 4597, Note_on_c, 1, 45, 46
3, 4599, Note_on_c, 1, 61, 45
3, 4606, Control_c, 1, 64, 0
3, 5376, Note_on_c, 1, 42, 33
3, 5388, Note_on_c, 1, 45, 0
3, 5720, Control_c, 1, 64, 127
3, 5799, Note_on_c, 1, 59, 0
3, 5805, Note_on_c, 1, 64, 0
3, 5806, Note_on_c, 1, 61, 0
3, 5812, Note_on_c, 1, 42, 0
3, 6118, Note_on_c, 1, 57, 32
3, 6120, Note_on_c, 1, 66, 36
3, 6123, Note_on_c, 1, 61, 44
3, 6125, Note_on_c, 1, 50, 55
3, 6146, Control_c, 1, 64, 0
3, 6537, Control_c, 1, 64, 127
3, 6602, Note_on_c, 1, 57, 0
3, 6623, Note_on_c, 1, 66, 0
3, 6623, Note_on_c, 1, 50, 0
3, 6627, Note_on_c, 1, 61, 0
3, 6889, Note_on_c, 1, 59, 32
3, 6895, Note_on_c, 1, 68, 35
3, 6902, Note_on_c, 1, 52, 55
3, 6904, Note_on_c, 1, 64, 44
3, 6929, Control_c, 1, 64, 0
3, 7296, Control_c, 1, 64, 127
3, 7362, Note_on_c, 1, 64, 0
3, 7364, Note_on_c, 1, 52, 0
3, 7374, Note_on_c, 1, 68, 0
3, 7387, Note_on_c, 1, 59, 0
3, 7629, Note_on_c, 1, 64, 28
3, 7638, Note_on_c, 1, 59, 33
3, 7641, Note_on_c, 1, 61, 39
3, 7646, Note_on_c, 1, 45, 55
3, 7665, Control_c, 1, 64, 0
3, 7680, Note_on_c, 1, 69, 36
3, 9380, Control_c, 1, 7, 119
3, 9476, Control_c, 1, 7, 115
3, 9572, Control_c, 1, 7, 109
3, 9668, Control_c, 1, 7, 104
3, 9764, Control_c, 1, 7, 100
3, 9860, Control_c, 1, 7, 94
3, 9956, Control_c, 1, 7, 89
3, 10052, Control_c, 1, 7, 84
3, 10148, Control_c, 1, 7, 79
3, 10244, Control_c, 1, 7, 74
3, 10340, Control_c, 1, 7, 69
3, 10396, Note_on_c, 1, 69, 0
3, 10436, Control_c, 1, 7, 64
3, 10443, Note_on_c, 1, 45, 0
3, 10445, Note_on_c, 1, 59, 0
3, 10446, Note_on_c, 1, 61, 0
3, 10446, Note_on_c, 1, 64, 0
3, 10532, Control_c, 1, 7, 59
3, 10628, Control_c, 1, 7, 54
3, 10724, Control_c, 1, 7, 49
3, 10820, Control_c, 1, 7, 44
3, 10916, Control_c, 1, 7, 39
3, 11012, Control_c, 1, 7, 33
3, 11108, Control_c, 1, 7, 29
3, 11204, Control_c, 1, 7, 24
3, 11300, Control_c, 1, 7, 10
3, 11396, Control_c, 1, 7, 6
3, 11616, Control_c, 1, 7, 4
3, 11712, Control_c, 1, 7, 2
3, 12192, Control_c, 1, 7, 5
3, 12200, Control_c, 1, 7, 6
3, 12208, Control_c, 1, 7, 7
3, 12216, Control_c, 1, 7, 9
3, 12224, Control_c, 1, 7, 10
3, 12232, Control_c, 1, 7, 11
3, 12240, Control_c, 1, 7, 13
3, 12248, Control_c, 1, 7, 14
3, 12256, Control_c, 1, 7, 15
3, 12264, Control_c, 1, 7, 16
3, 12272, Control_c, 1, 7, 18
3, 12280, Control_c, 1, 7, 19
3, 12288, Control_c, 1, 7, 20
3, 12296, Control_c, 1, 7, 22
3, 12304, Control_c, 1, 7, 23
3, 12312, Control_c, 1, 7, 24
3, 12320, Control_c, 1, 7, 26
3, 12328, Control_c, 1, 7, 27
3, 12336, Control_c, 1, 7, 28
3, 12344, Control_c, 1, 7, 29
3, 12352, Control_c, 1, 7, 31
3, 12360, Control_c, 1, 7, 32
3, 12368, Control_c, 1, 7, 33
3, 12376, Control_c, 1, 7, 35
3, 12384, Control_c, 1, 7, 36
3, 12392, Control_c, 1, 7, 37
3, 12400, Control_c, 1, 7, 38
3, 12408, Control_c, 1, 7, 40
3, 12416, Control_c, 1, 7, 41
3, 12424, Control_c, 1, 7, 42
3, 12432, Control_c, 1, 7, 44
3, 12440, Control_c, 1, 7, 45
3, 12448, Control_c, 1, 7, 46
3, 12456, Control_c, 1, 7, 47
3, 12464, Control_c, 1, 7, 49
3, 12472, Control_c, 1, 7, 50
3, 12480, Control_c, 1, 7, 51
3, 12488, Control_c, 1, 7, 53
3, 12496, Control_c, 1, 7, 54
3, 12504, Control_c, 1, 7, 55
3, 12512, Control_c, 1, 7, 56
3, 12520, Control_c, 1, 7, 58
3, 12528, Control_c, 1, 7, 59
3, 12536, Control_c, 1, 7, 60
3, 12544, Control_c, 1, 7, 62
3, 12552, Control_c, 1, 7, 63
3, 12560, Control_c, 1, 7, 64
3, 12568, Control_c, 1, 7, 66
3, 12576, Control_c, 1, 7, 67
3, 12584, Control_c, 1, 7, 68
3, 12592, Control_c, 1, 7, 69
3, 12600, Control_c, 1, 7, 71
3, 12608, Control_c, 1, 7, 72
3, 12616, Control_c, 1, 7, 73
3, 12624, Control_c, 1, 7, 75
3, 12632, Control_c, 1, 7, 76
3, 12640, Control_c, 1, 7, 77
3, 12648, Control_c, 1, 7, 78
3, 12656, Control_c, 1, 7, 80
3, 12664, Control_c, 1, 7, 81
3, 12672, Control_c, 1, 7, 82
3, 12680, Control_c, 1, 7, 84
3, 12688, Control_c, 1, 7, 85
3, 12696, Control_c, 1, 7, 86
3, 12704, Control_c, 1, 7, 87
3, 12712, Control_c, 1, 7, 89
3, 12720, Control_c, 1, 7, 90
3, 12728, Control_c, 1, 7, 91
3, 12736, Control_c, 1, 7, 93
3, 12744, Control_c, 1, 7, 94
3, 12752, Control_c, 1, 7, 95
3, 12760, Control_c, 1, 7, 97
3, 12768, Control_c, 1, 7, 98
3, 12776, Control_c, 1, 7, 99
3, 12784, Control_c, 1, 7, 100
3, 12792, Control_c, 1, 7, 102
3, 12800, Control_c, 1, 7, 103
3, 12808, Control_c, 1, 7, 104
3, 12816, Control_c, 1, 7, 106
3, 12824, Control_c, 1, 7, 107
3, 12832, Control_c, 1, 7, 108
3, 12840, Control_c, 1, 7, 109
3, 12848, Control_c, 1, 7, 111
3, 12856, Control_c, 1, 7, 112
3, 12864, Control_c, 1, 7, 113
3, 12872, Control_c, 1, 7, 115
3, 12880, Control_c, 1, 7, 116
3, 12888, Control_c, 1, 7, 117
3, 12896, Control_c, 1, 7, 118
3, 12904, Control_c, 1, 7, 120
3, 12912, Control_c, 1, 7, 121
3, 12920, Control_c, 1, 7, 122
3, 12928, Control_c, 1, 7, 124
3, 12936, Control_c, 1, 7, 125
3, 12944, Control_c, 1, 7, 126
3, 12952, Control_c, 1, 7, 127
3, 13024, Control_c, 1, 7, 123
3, 13242, Note_on_c, 1, 61, 55
3, 13244, Note_on_c, 1, 73, 52
3, 13442, Note_on_c, 1, 76, 57
3, 13443, Note_on_c, 1, 64, 51
3, 13459, Note_on_c, 1, 73, 0
3, 13461, Note_on_c, 1, 61, 0
3, 13641, Note_on_c, 1, 73, 48
3, 13642, Note_on_c, 1, 85, 55
3, 13643, Note_on_c, 1, 64, 0
3, 13649, Note_on_c, 1, 76, 0
3, 13800, Control_c, 1, 7, 124
3, 13824, Note_on_c, 1, 83, 61
3, 13836, Note_on_c, 1, 71, 61
3, 13848, Control_c, 1, 7, 123
3, 13848, Note_on_c, 1, 85, 0
3, 13850, Note_on_c, 1, 73, 0
3, 13920, Control_c, 1, 7, 125
3, 14570, Note_on_c, 1, 81, 52
3, 14574, Note_on_c, 1, 69, 46
3, 14588, Note_on_c, 1, 71, 0
3, 14596, Note_on_c, 1, 83, 0
3, 16177, Note_on_c, 1, 81, 0
3, 16190, Note_on_c, 1, 69, 0
3, 20352, Control_c, 1, 7, 121
3, 20364, Control_c, 1, 7, 119
3, 20370, Control_c, 1, 7, 117
3, 20376, Control_c, 1, 7, 115
3, 20388, Control_c, 1, 7, 113
3, 20394, Control_c, 1, 7, 111
3, 20400, Control_c, 1, 7, 109
3, 20412, Control_c, 1, 7, 107
3, 20418, Control_c, 1, 7, 105
3, 20424, Control_c, 1, 7, 103
3, 20436, Control_c, 1, 7, 101
3, 20442, Control_c, 1, 7, 99
3, 20448, Control_c, 1, 7, 97
3, 20460, Control_c, 1, 7, 95
3, 20466, Control_c, 1, 7, 92
3, 20472, Control_c, 1, 7, 90
3, 20484, Control_c, 1, 7, 88
3, 20490, Control_c, 1, 7, 86
3, 20496, Control_c, 1, 7, 84
3, 20508, Control_c, 1, 7, 82
3, 20514, Control_c, 1, 7, 80
3, 20520, Control_c, 1, 7, 78
3, 20532, Control_c, 1, 7, 76
3, 20538, Control_c, 1, 7, 74
3, 20544, Control_c, 1, 7, 72
3, 20556, Control_c, 1, 7, 70
3, 20562, Control_c, 1, 7, 68
3, 20568, Control_c, 1, 7, 66
3, 20580, Control_c, 1, 7, 64
3, 20586, Control_c, 1, 7, 61
3, 20592, Control_c, 1, 7, 59
3, 20604, Control_c, 1, 7, 57
3, 20610, Control_c, 1, 7, 55
3, 20616, Control_c, 1, 7, 53
3, 20628, Control_c, 1, 7, 51
3, 20634, Control_c, 1, 7, 49
3, 20640, Control_c, 1, 7, 47
3, 20652, Control_c, 1, 7, 45
3, 20658, Control_c, 1, 7, 43
3, 20664, Control_c, 1, 7, 41
3, 20676, Control_c, 1, 7, 39
3, 20682, Control_c, 1, 7, 37
3, 20688, Control_c, 1, 7, 35
3, 20700, Control_c, 1, 7, 33
3, 20706, Control_c, 1, 7, 30
3, 20712, Control_c, 1, 7, 28
3, 20724, Control_c, 1, 7, 26
3, 20730, Control_c, 1, 7, 24
3, 20736, Control_c, 1, 7, 22
3, 20748, Control_c, 1, 7, 20
3, 20754, Control_c, 1, 7, 18
3, 20760, Control_c, 1, 7, 16
3, 20772, Control_c, 1, 7, 14
3, 20778, Control_c, 1, 7, 12
3, 20784, Control_c, 1, 7, 10
3, 20796, Control_c, 1, 7, 8
3, 20802, Control_c, 1, 7, 6
3, 20808, Control_c, 1, 7, 4
3, 20820, Control_c, 1, 7, 2
3, 20826, Control_c, 1, 7, 0
3, 21108, Control_c, 1, 7, 4
3, 21114, Control_c, 1, 7, 5
3, 21120, Control_c, 1, 7, 6
3, 21132, Control_c, 1, 7, 7
3, 21138, Control_c, 1, 7, 8
3, 21144, Control_c, 1, 7, 9
3, 21156, Control_c, 1, 7, 10
3, 21162, Control_c, 1, 7, 11
3, 21180, Control_c, 1, 7, 12
3, 21186, Control_c, 1, 7, 13
3, 21192, Control_c, 1, 7, 14
3, 21204, Control_c, 1, 7, 15
3, 21210, Control_c, 1, 7, 16
3, 21216, Control_c, 1, 7, 17
3, 21228, Control_c, 1, 7, 18
3, 21240, Control_c, 1, 7, 19
3, 21252, Control_c, 1, 7, 20
3, 21258, Control_c, 1, 7, 21
3, 21264, Control_c, 1, 7, 22
3, 21276, Control_c, 1, 7, 23
3, 21282, Control_c, 1, 7, 24
3, 21288, Control_c, 1, 7, 25
3, 21306, Control_c, 1, 7, 26
3, 21312, Control_c, 1, 7, 27
3, 21324, Control_c, 1, 7, 28
3, 21330, Control_c, 1, 7, 29
3, 21336, Control_c, 1, 7, 30
3, 21348, Control_c, 1, 7, 31
3, 21360, Control_c, 1, 7, 32
3, 21372, Control_c, 1, 7, 33
3, 21378, Control_c, 1, 7, 34
3, 21384, Control_c, 1, 7, 35
3, 21396, Control_c, 1, 7, 36
3, 21402, Control_c, 1, 7, 37
3, 21408, Control_c, 1, 7, 38
3, 21426, Control_c, 1, 7, 39
3, 21432, Control_c, 1, 7, 40
3, 21444, Control_c, 1, 7, 41
3, 21450, Control_c, 1, 7, 42
3, 21456, Control_c, 1, 7, 43
3, 21468, Control_c, 1, 7, 44
3, 21474, Control_c, 1, 7, 45
3, 21476, Note_on_c, 1, 64, 52
3, 21477, Note_on_c, 1, 73, 50
3, 21482, Note_on_c, 1, 57, 45
3, 21492, Control_c, 1, 7, 46
3, 21498, Control_c, 1, 7, 47
3, 21504, Control_c, 1, 7, 48
3, 21516, Control_c, 1, 7, 49
3, 21522, Control_c, 1, 7, 50
3, 21528, Control_c, 1, 7, 51
3, 21540, Control_c, 1, 7, 52
3, 21552, Control_c, 1, 7, 53
3, 21564, Control_c, 1, 7, 54
3, 21570, Control_c, 1, 7, 55
3, 21576, Control_c, 1, 7, 56
3, 21588, Control_c, 1, 7, 57
3, 21594, Control_c, 1, 7, 58
3, 21600, Control_c, 1, 7, 59
3, 21618, Control_c, 1, 7, 60
3, 21624, Control_c, 1, 7, 61
3, 21636, Control_c, 1, 7, 62
3, 21642, Control_c, 1, 7, 63
3, 21648, Control_c, 1, 7, 64
3, 21660, Control_c, 1, 7, 65
3, 21666, Control_c, 1, 7, 66
3, 21684, Control_c, 1, 7, 67
3, 21690, Control_c, 1, 7, 68
3, 21696, Control_c, 1, 7, 69
3, 21708, Control_c, 1, 7, 70
3, 21714, Control_c, 1, 7, 71
3, 21720, Control_c, 1, 7, 72
3, 21732, Control_c, 1, 7, 73
3, 21744, Control_c, 1, 7, 74
3, 21756, Control_c, 1, 7, 75
3, 21762, Control_c, 1, 7, 76
3, 21768, Control_c, 1, 7, 77
3, 21780, Control_c, 1, 7, 78
3, 21786, Control_c, 1, 7, 79
3, 21804, Control_c, 1, 7, 80
3, 21810, Control_c, 1, 7, 81
3, 21816, Control_c, 1, 7, 82
3, 21828, Control_c, 1, 7, 83
3, 21834, Control_c, 1, 7, 84
3, 21840, Control_c, 1, 7, 85
3, 21852, Control_c, 1, 7, 86
3, 21864, Control_c, 1, 7, 87
3, 21876, Control_c, 1, 7, 88
3, 21882, Control_c, 1, 7, 89
3, 21888, Control_c, 1, 7, 90
3, 21900, Control_c, 1, 7, 91
3, 21906, Control_c, 1, 7, 92
3, 21912, Control_c, 1, 7, 93
3, 21930, Control_c, 1, 7, 94
3, 21936, Control_c, 1, 7, 95
3, 21948, Control_c, 1, 7, 96
3, 21954, Control_c, 1, 7, 97
3, 21960, Control_c, 1, 7, 98
3, 21972, Control_c, 1, 7, 99
3, 21978, Control_c, 1, 7, 100
3, 21996, Control_c, 1, 7, 101
3, 22002, Control_c, 1, 7, 102
3, 22008, Control_c, 1, 7, 103
3, 22020, Control_c, 1, 7, 104
3, 22026, Control_c, 1, 7, 105
3, 22032, Control_c, 1, 7, 106
3, 22044, Control_c, 1, 7, 107
3, 22056, Control_c, 1, 7, 108
3, 22068, Control_c, 1, 7, 109
3, 22074, Control_c, 1, 7, 110
3, 22080, Control_c, 1, 7, 111
3, 22092, Control_c, 1, 7, 112
3, 22098, Control_c, 1, 7, 113
3, 22104, Control_c, 1, 7, 114
3, 22122, Control_c, 1, 7, 115
3, 22128, Control_c, 1, 7, 116
3, 22140, Control_c, 1, 7, 117
3, 22146, Control_c, 1, 7, 118
3, 22152, Control_c, 1, 7, 119
3, 22164, Control_c, 1, 7, 120
3, 22170, Control_c, 1, 7, 121
3, 22188, Control_c, 1, 7, 122
3, 22194, Control_c, 1, 7, 123
3, 22200, Control_c, 1, 7, 124
3, 22212, Control_c, 1, 7, 125
3, 22218, Control_c, 1, 7, 126
3, 22224, Control_c, 1, 7, 127
3, 22248, Note_on_c, 1, 71, 48
3, 22263, Note_on_c, 1, 68, 32
3, 22267, Note_on_c, 1, 73, 0
3, 23000, Note_on_c, 1, 73, 42
3, 23019, Note_on_c, 1, 68, 0
3, 23029, Note_on_c, 1, 71, 0
3, 24157, Note_on_c, 1, 71, 61
3, 24164, Note_on_c, 1, 56, 51
3, 24181, Note_on_c, 1, 57, 0
3, 24184, Note_on_c, 1, 73, 0
3, 24538, Note_on_c, 1, 69, 58
3, 24553, Note_on_c, 1, 71, 0
3, 24557, Note_on_c, 1, 54, 34
3, 24559, Note_on_c, 1, 56, 0
3, 25306, Note_on_c, 1, 68, 62
3, 25307, Note_on_c, 1, 52, 57
3, 25316, Note_on_c, 1, 69, 0
3, 25324, Note_on_c, 1, 54, 0
3, 26025, Note_on_c, 1, 64, 0
3, 26081, Note_on_c, 1, 66, 55
3, 26083, Note_on_c, 1, 50, 55
3, 26087, Note_on_c, 1, 62, 53
3, 26095, Note_on_c, 1, 52, 0
3, 26103, Note_on_c, 1, 68, 0
3, 26757, Note_on_c, 1, 62, 0
3, 26832, Note_on_c, 1, 68, 57
3, 26838, Note_on_c, 1, 64, 57
3, 26840, Note_on_c, 1, 52, 66
3, 26849, Note_on_c, 1, 50, 0
3, 26859, Note_on_c, 1, 66, 0
3, 27477, Note_on_c, 1, 52, 0
3, 27478, Note_on_c, 1, 64, 0
3, 27481, Note_on_c, 1, 68, 0
3, 36850, Note_on_c, 1, 45, 53
3, 36854, Note_on_c, 1, 52, 63
3, 36856, Note_on_c, 1, 61, 56
3, 37994, Note_on_c, 1, 62, 68
3, 37998, Note_on_c, 1, 54, 46
3, 38011, Note_on_c, 1, 52, 0
3, 38015, Note_on_c, 1, 61, 0
3, 38351, Note_on_c, 1, 61, 42
3, 38363, Note_on_c, 1, 62, 0
3, 38367, Note_on_c, 1, 52, 63
3, 38373, Note_on_c, 1, 54, 0
3, 38391, Note_on_c, 1, 64, 65
3, 39509, Note_on_c, 1, 64, 0
3, 39522, Note_on_c, 1, 59, 65
3, 39531, Note_on_c, 1, 44, 53
3, 39546, Note_on_c, 1, 61, 0
3, 39547, Note_on_c, 1, 45, 0
3, 39910, Note_on_c, 1, 42, 46
3, 39913, Note_on_c, 1, 54, 53
3, 39919, Note_on_c, 1, 57, 66
3, 39921, Note_on_c, 1, 59, 0
3, 39923, Note_on_c, 1, 44, 0
3, 39940, Note_on_c, 1, 52, 0
3, 40679, Note_on_c, 1, 61, 67
3, 40682, Note_on_c, 1, 52, 35
3, 40689, Note_on_c, 1, 40, 51
3, 40692, Note_on_c, 1, 57, 0
3, 40710, Note_on_c, 1, 42, 0
3, 41441, Note_on_c, 1, 62, 56
3, 41448, Note_on_c, 1, 61, 0
3, 41450, Note_on_c, 1, 38, 56
3, 41455, Note_on_c, 1, 57, 62
3, 41457, Note_on_c, 1, 40, 0
3, 41459, Note_on_c, 1, 52, 0
3, 42156, Note_on_c, 1, 57, 0
3, 42191, Note_on_c, 1, 62, 0
3, 42218, Note_on_c, 1, 52, 40
3, 42229, Note_on_c, 1, 40, 62
3, 42234, Note_on_c, 1, 56, 67
3, 42234, Note_on_c, 1, 80, 57
3, 42240, Note_on_c, 1, 38, 0
3, 42258, Note_on_c, 1, 54, 0
3, 42513, Note_on_c, 1, 54, 55
3, 42514, Note_on_c, 1, 81, 57
3, 42515, Note_on_c, 1, 42, 53
3, 42517, Note_on_c, 1, 57, 62
3, 42519, Note_on_c, 1, 56, 0
3, 42522, Note_on_c, 1, 40, 0
3, 42523, Note_on_c, 1, 80, 0
3, 42545, Note_on_c, 1, 52, 0
3, 42783, Note_on_c, 1, 83, 57
3, 42792, Note_on_c, 1, 56, 55
3, 42794, Note_on_c, 1, 59, 57
3, 42796, Note_on_c, 1, 42, 0
3, 42802, Note_on_c, 1, 44, 50
3, 42802, Note_on_c, 1, 81, 0
3, 42808, Note_on_c, 1, 57, 0
3, 42813, Note_on_c, 1, 54, 0
3, 42943, Note_on_c, 1, 59, 0
3, 42954, Note_on_c, 1, 52, 33
3, 42956, Note_on_c, 1, 56, 0
3, 42973, Note_on_c, 1, 85, 57
3, 42993, Note_on_c, 1, 83, 0
3, 42998, Note_on_c, 1, 61, 51
3, 43000, Note_on_c, 1, 45, 45
3, 43001, Note_on_c, 1, 57, 37
3, 43005, Note_on_c, 1, 44, 0
3, 43688, Note_on_c, 1, 57, 0
3, 43750, Note_on_c, 1, 59, 56
3, 43751, Note_on_c, 1, 83, 57
3, 43752, Note_on_c, 1, 56, 55
3, 43779, Note_on_c, 1, 85, 0
3, 43783, Note_on_c, 1, 61, 0
3, 44500, Note_on_c, 1, 59, 0
3, 44520, Note_on_c, 1, 57, 52
3, 44527, Note_on_c, 1, 61, 46
3, 44530, Note_on_c, 1, 81, 57
3, 44552, Note_on_c, 1, 83, 0
3, 44611, Note_on_c, 1, 56, 0
3, 45288, Note_on_c, 1, 59, 55
3, 45292, Note_on_c, 1, 57, 0
3, 45297, Note_on_c, 1, 56, 45
3, 45299, Note_on_c, 1, 49, 56
3, 45303, Note_on_c, 1, 80, 57
3, 45308, Note_on_c, 1, 45, 0
3, 45309, Note_on_c, 1, 61, 0
3, 45331, Note_on_c, 1, 81, 0
3, 45978, Note_on_c, 1, 56, 0
3, 46014, Note_on_c, 1, 59, 0
3, 46015, Note_on_c, 1, 61, 44
3, 46043, Note_on_c, 1, 54, 43
3, 46047, Note_on_c, 1, 57, 38
3, 46050, Note_on_c, 1, 52, 0
3, 46055, Note_on_c, 1, 78, 57
3, 46064, Note_on_c, 1, 42, 36
3, 46081, Note_on_c, 1, 80, 0
3, 46084, Note_on_c, 1, 49, 0
3, 46757, Note_on_c, 1, 54, 0
3, 46817, Note_on_c, 1, 40, 48
3, 46824, Note_on_c, 1, 52, 42
3, 46827, Note_on_c, 1, 76, 57
3, 46827, Note_on_c, 1, 57, 0
3, 46828, Note_on_c, 1, 56, 65
3, 46831, Note_on_c, 1, 42, 0
3, 46839, Note_on_c, 1, 78, 0
3, 47480, Note_on_c, 1, 52, 0
3, 47491, Note_on_c, 1, 56, 0
3, 47584, Note_on_c, 1, 62, 57
3, 47585, Note_on_c, 1, 57, 46
3, 47586, Note_on_c, 1, 78, 57
3, 47589, Note_on_c, 1, 54, 44
3, 47591, Note_on_c, 1, 38, 28
3, 47593, Note_on_c, 1, 50, 21
3, 47598, Note_on_c, 1, 40, 0
3, 47604, Note_on_c, 1, 61, 0
3, 47622, Note_on_c, 1, 76, 0
3, 48278, Note_on_c, 1, 38, 0
3, 48306, Note_on_c, 1, 54, 0
3, 48321, Note_on_c, 1, 50, 0
3, 48328, Note_on_c, 1, 62, 0
3, 48347, Note_on_c, 1, 40, 41
3, 48349, Note_on_c, 1, 64, 55
3, 48356, Note_on_c, 1, 59, 61
3, 48362, Note_on_c, 1, 80, 57
3, 48364, Note_on_c, 1, 56, 51
3, 48384, Note_on_c, 1, 57, 0
3, 48388, Note_on_c, 1, 78, 0
3, 49130, Note_on_c, 1, 81, 57
3, 49135, Note_on_c, 1, 61, 51
3, 49140, Note_on_c, 1, 45, 55
3, 49142, Note_on_c, 1, 40, 0
3, 49146, Note_on_c, 1, 80, 0
3, 49149, Note_on_c, 1, 57, 53
3, 49154, Note_on_c, 1, 56, 0
3, 49155, Note_on_c, 1, 59, 0
3, 50282, Note_on_c, 1, 81, 0
3, 50324, Note_on_c, 1, 45, 0
3, 50351, Note_on_c, 1, 61, 0
3, 50365, Note_on_c, 1, 64, 0
3, 50365, Note_on_c, 1, 57, 0
3, 54522, Note_on_c, 1, 68, 61
3, 54525, Note_on_c, 1, 52, 51
3, 54528, Note_on_c, 1, 64, 57
3, 54825, Note_on_c, 1, 66, 52
3, 54827, Note_on_c, 1, 54, 55
3, 54829, Note_on_c, 1, 69, 65
3, 54831, Note_on_c, 1, 52, 0
3, 54832, Note_on_c, 1, 68, 0
3, 54854, Note_on_c, 1, 64, 0
3, 55082, Note_on_c, 1, 69, 0
3, 55085, Note_on_c, 1, 68, 57
3, 55093, Note_on_c, 1, 56, 52
3, 55097, Note_on_c, 1, 54, 0
3, 55101, Note_on_c, 1, 71, 47
3, 55137, Note_on_c, 1, 66, 0
3, 55168, Control_c, 1, 64, 127
3, 55209, Note_on_c, 1, 68, 0
3, 55218, Note_on_c, 1, 71, 0
3, 55233, Note_on_c, 1, 56, 0
3, 55298, Note_on_c, 1, 57, 46
3, 55301, Note_on_c, 1, 69, 39
3, 55305, Note_on_c, 1, 64, 35
3, 55310, Note_on_c, 1, 73, 45
3, 55328, Control_c, 1, 64, 0
3, 55679, Control_c, 1, 64, 127
3, 55791, Note_on_c, 1, 69, 0
3, 55803, Note_on_c, 1, 64, 0
3, 55807, Note_on_c, 1, 73, 0
3, 55813, Note_on_c, 1, 57, 0
3, 56055, Note_on_c, 1, 71, 39
3, 56062, Note_on_c, 1, 68, 48
3, 56064, Note_on_c, 1, 59, 55
3, 56064, Note_on_c, 1, 64, 29
3, 56076, Control_c, 1, 64, 0
3, 56756, Note_on_c, 1, 71, 0
3, 56792, Note_on_c, 1, 59, 0
3, 56804, Note_on_c, 1, 69, 50
3, 56809, Note_on_c, 1, 73, 50
3, 56814, Note_on_c, 1, 68, 0
3, 56856, Note_on_c, 1, 57, 50
3, 57231, Control_c, 1, 64, 127
3, 57422, Note_on_c, 1, 69, 0
3, 57482, Note_on_c, 1, 73, 0
3, 57536, Note_on_c, 1, 57, 0
3, 57580, Note_on_c, 1, 71, 56
3, 57584, Note_on_c, 1, 68, 50
3, 57591, Note_on_c, 1, 61, 42
3, 57594, Control_c, 1, 64, 0
3, 57956, Control_c, 1, 64, 127
3, 58045, Note_on_c, 1, 61, 0
3, 58064, Note_on_c, 1, 68, 0
3, 58066, Note_on_c, 1, 71, 0
3, 58069, Note_on_c, 1, 64, 0
3, 58338, Note_on_c, 1, 54, 37
3, 58339, Note_on_c, 1, 66, 41
3, 58342, Note_on_c, 1, 73, 38
3, 58344, Note_on_c, 1, 69, 57
3, 58346, Note_on_c, 1, 64, 35
3, 58353, Control_c, 1, 64, 0
3, 58727, Control_c, 1, 64, 127
3, 58822, Note_on_c, 1, 66, 0
3, 58843, Note_on_c, 1, 54, 0
3, 58848, Note_on_c, 1, 69, 0
3, 58855, Note_on_c, 1, 64, 0
3, 58861, Note_on_c, 1, 73, 0
3, 59124, Note_on_c, 1, 52, 56
3, 59126, Note_on_c, 1, 64, 40
3, 59128, Note_on_c, 1, 68, 55
3, 59129, Note_on_c, 1, 73, 38
3, 59135, Control_c, 1, 64, 0
3, 59679, Control_c, 1, 64, 127
3, 59752, Note_on_c, 1, 68, 0
3, 59829, Note_on_c, 1, 64, 0
3, 59835, Note_on_c, 1, 52, 0
3, 59841, Note_on_c, 1, 73, 0
3, 59890, Note_on_c, 1, 50, 63
3, 59892, Note_on_c, 1, 66, 48
3, 59894, Note_on_c, 1, 69, 61
3, 59897, Note_on_c, 1, 64, 40
3, 59906, Control_c, 1, 64, 0
3, 60302, Control_c, 1, 64, 127
3, 60421, Note_on_c, 1, 69, 0
3, 60421, Note_on_c, 1, 50, 0
3, 60444, Note_on_c, 1, 66, 0
3, 60459, Note_on_c, 1, 64, 0
3, 60671, Note_on_c, 1, 64, 32
3, 60677, Note_on_c, 1, 68, 52
3, 60679, Note_on_c, 1, 52, 58
3, 60689, Note_on_c, 1, 71, 46
3, 60700, Control_c, 1, 64, 0
3, 62137, Note_on_c, 1, 71, 0
3, 62165, Note_on_c, 1, 68, 0
3, 62167, Note_on_c, 1, 52, 0
3, 62175, Note_on_c, 1, 64, 0
3, 63748, Note_on_c, 1, 66, 65
3, 63750, Note_on_c, 1, 47, 66
3, 63752, Note_on_c, 1, 61, 66
3, 63753, Note_on_c, 1, 63, 67
3, 64501, Note_on_c, 1, 44, 73
3, 64515, Note_on_c, 1, 47, 0
3, 64890, Control_c, 1, 64, 127
3, 64999, Note_on_c, 1, 63, 0
3, 65002, Note_on_c, 1, 61, 0
3, 65010, Note_on_c, 1, 66, 0
3, 65021, Note_on_c, 1, 44, 0
3, 65261, Note_on_c, 1, 64, 66
3, 65263, Note_on_c, 1, 68, 62
3, 65264, Note_on_c, 1, 59, 57
3, 65266, Control_c, 1, 64, 0
3, 65270, Note_on_c, 1, 52, 60
3, 65271, Note_on_c, 1, 40, 53
3, 65682, Control_c, 1, 64, 127
3, 65751, Note_on_c, 1, 40, 0
3, 65753, Note_on_c, 1, 64, 0
3, 65766, Note_on_c, 1, 59, 0
3, 65770, Note_on_c, 1, 52, 0
3, 65777, Note_on_c, 1, 68, 0
3, 66026, Note_on_c, 1, 66, 57
3, 66028, Note_on_c, 1, 70, 58
3, 66030, Note_on_c, 1, 61, 51
3, 66031, Note_on_c, 1, 54, 45
3, 66045, Control_c, 1, 64, 0
3, 66441, Control_c, 1, 64, 127
3, 66496, Note_on_c, 1, 66, 0
3, 66500, Note_on_c, 1, 70, 0
3, 66512, Note_on_c, 1, 61, 0
3, 66523, Note_on_c, 1, 54, 0
3, 66790, Note_on_c, 1, 66, 58
3, 66792, Note_on_c, 1, 61, 63
3, 66793, Note_on_c, 1, 47, 61
3, 66795, Note_on_c, 1, 63, 65
3, 66803, Control_c, 1, 64, 0
3, 67573, Note_on_c, 1, 44, 52
3, 67577, Note_on_c, 1, 47, 0
3, 68081, Control_c, 1, 64, 127
3, 68143, Note_on_c, 1, 63, 0
3, 68149, Note_on_c, 1, 61, 0
3, 68150, Note_on_c, 1, 66, 0
3, 68174, Note_on_c, 1, 44, 0
3, 68335, Note_on_c, 1, 68, 62
3, 68336, Note_on_c, 1, 61, 57
3, 68338, Note_on_c, 1, 49, 58
3, 68341, Note_on_c, 1, 59, 56
3, 68342, Note_on_c, 1, 64, 68
3, 68344, Control_c, 1, 64, 0
3, 68772, Control_c, 1, 64, 127
3, 68866, Note_on_c, 1, 64, 0
3, 68871, Note_on_c, 1, 68, 0
3, 68877, Note_on_c, 1, 61, 0
3, 68878, Note_on_c, 1, 59, 0
3, 68881, Note_on_c, 1, 49, 0
3, 69097, Note_on_c, 1, 66, 66
3, 69099, Note_on_c, 1, 59, 67
3, 69101, Note_on_c, 1, 61, 63
3, 69103, Note_on_c, 1, 42, 56
3, 69113, Control_c, 1, 64, 0
3, 69419, Note_on_c, 1, 59, 0
3, 69488, Note_on_c, 1, 58, 68
3, 69870, Note_on_c, 1, 63, 66
3, 69877, Note_on_c, 1, 47, 65
3, 69879, Note_on_c, 1, 58, 0
3, 69895, Note_on_c, 1, 42, 0
3, 70642, Note_on_c, 1, 44, 58
3, 70656, Note_on_c, 1, 47, 0
3, 71136, Control_c, 1, 64, 127
3, 71193, Note_on_c, 1, 63, 0
3, 71195, Note_on_c, 1, 61, 0
3, 71197, Note_on_c, 1, 66, 0
3, 71233, Note_on_c, 1, 44, 0
3, 71406, Note_on_c, 1, 68, 58
3, 71409, Note_on_c, 1, 59, 53
3, 71411, Note_on_c, 1, 52, 63
3, 71413, Note_on_c, 1, 64, 66
3, 71420, Control_c, 1, 64, 0
3, 71793, Control_c, 1, 64, 127
3, 71885, Note_on_c, 1, 64, 0
3, 71885, Note_on_c, 1, 59, 0
3, 71896, Note_on_c, 1, 68, 0
3, 71901, Note_on_c, 1, 52, 0
3, 72167, Note_on_c, 1, 70, 48
3, 72175, Note_on_c, 1, 61, 50
3, 72177, Note_on_c, 1, 54, 51
3, 72179, Note_on_c, 1, 66, 62
3, 72184, Note_on_c, 1, 82, 58
3, 72189, Control_c, 1, 64, 0
3, 72464, Note_on_c, 1, 83, 58
3, 72478, Note_on_c, 1, 82, 0
3, 72595, Note_on_c, 1, 54, 0
3, 72745, Note_on_c, 1, 85, 58
3, 72763, Note_on_c, 1, 83, 0
3, 72915, Note_on_c, 1, 66, 0
3, 72927, Note_on_c, 1, 61, 0
3, 72938, Note_on_c, 1, 83, 58
3, 72939, Note_on_c, 1, 66, 63
3, 72942, Note_on_c, 1, 63, 51
3, 72943, Note_on_c, 1, 61, 56
3, 72949, Note_on_c, 1, 85, 0
3, 72951, Note_on_c, 1, 47, 67
3, 73063, Note_on_c, 1, 70, 0
3, 73707, Note_on_c, 1, 61, 0
3, 73709, Note_on_c, 1, 47, 0
3, 73710, Note_on_c, 1, 59, 68
3, 73712, Note_on_c, 1, 44, 55
3, 73906, Note_on_c, 1, 85, 58
3, 73918, Note_on_c, 1, 83, 0
3, 74112, Note_on_c, 1, 87, 58
3, 74132, Note_on_c, 1, 85, 0
3, 74285, Note_on_c, 1, 83, 58
3, 74294, Note_on_c, 1, 87, 0
3, 74324, Note_on_c, 1, 63, 0
3, 74328, Control_c, 1, 64, 127
3, 74329, Note_on_c, 1, 44, 0
3, 74335, Note_on_c, 1, 66, 0
3, 74394, Note_on_c, 1, 59, 0
3, 74480, Note_on_c, 1, 88, 58
3, 74485, Note_on_c, 1, 49, 63
3, 74490, Note_on_c, 1, 68, 65
3, 74492, Note_on_c, 1, 64, 71
3, 74493, Note_on_c, 1, 61, 66
3, 74496, Note_on_c, 1, 59, 55
3, 74501, Note_on_c, 1, 83, 0
3, 74509, Control_c, 1, 64, 0
3, 74787, Note_on_c, 1, 49, 0
3, 74843, Note_on_c, 1, 64, 0
3, 74851, Note_on_c, 1, 68, 0
3, 74881, Note_on_c, 1, 61, 0
3, 74884, Note_on_c, 1, 66, 70
3, 74885, Note_on_c, 1, 63, 72
3, 75056, Note_on_c, 1, 88, 0
3, 75066, Note_on_c, 1, 85, 58
3, 75132, Control_c, 1, 64, 127
3, 75213, Note_on_c, 1, 66, 0
3, 75235, Note_on_c, 1, 63, 0
3, 75251, Note_on_c, 1, 68, 71
3, 75253, Note_on_c, 1, 59, 71
3, 75254, Note_on_c, 1, 64, 72
3, 75257, Control_c, 1, 64, 0
3, 75258, Note_on_c, 1, 85, 0
3, 75276, Note_on_c, 1, 90, 58
3, 75571, Note_on_c, 1, 59, 0
3, 75586, Note_on_c, 1, 59, 0
3, 75590, Note_on_c, 1, 68, 0
3, 75596, Note_on_c, 1, 66, 56
3, 75604, Note_on_c, 1, 64, 0
3, 75610, Note_on_c, 1, 70, 56
3, 75628, Note_on_c, 1, 61, 72
3, 75649, Note_on_c, 1, 85, 58
3, 75681, Note_on_c, 1, 90, 0
3, 76016, Note_on_c, 1, 59, 76
3, 76017, Note_on_c, 1, 87, 73
3, 76018, Note_on_c, 1, 47, 74
3, 76019, Note_on_c, 1, 54, 76
3, 76020, Note_on_c, 1, 70, 0
3, 76021, Note_on_c, 1, 63, 70
3, 76021, Note_on_c, 1, 66, 0
3, 76022, Note_on_c, 1, 61, 0
3, 76033, Note_on_c, 1, 85, 0
3, 76776, Note_on_c, 1, 47, 0
3, 76788, Note_on_c, 1, 56, 74
3, 76790, Note_on_c, 1, 44, 78
3, 76811, Note_on_c, 1, 54, 0
3, 77172, Note_on_c, 1, 90, 73
3, 77194, Note_on_c, 1, 87, 0
3, 77542, Note_on_c, 1, 95, 63
3, 77549, Note_on_c, 1, 40, 65
3, 77551, Note_on_c, 1, 44, 0
3, 77556, Note_on_c, 1, 52, 74
3, 77557, Note_on_c, 1, 90, 0
3, 78256, Note_on_c, 1, 52, 0
3, 78257, Note_on_c, 1, 59, 0
3, 78297, Note_on_c, 1, 63, 0
3, 78302, Note_on_c, 1, 56, 0
3, 78311, Note_on_c, 1, 40, 0
3, 78324, Note_on_c, 1, 85, 67
3, 78328, Note_on_c, 1, 58, 65
3, 78332, Note_on_c, 1, 42, 63
3, 78337, Note_on_c, 1, 54, 66
3, 78353, Note_on_c, 1, 95, 0
3, 78520, Note_on_c, 1, 56, 66
3, 78525, Note_on_c, 1, 59, 66
3, 78527, Note_on_c, 1, 44, 86
3, 78530, Note_on_c, 1, 54, 0
3, 78538, Note_on_c, 1, 58, 0
3, 78546, Note_on_c, 1, 42, 0
3, 78698, Note_on_c, 1, 59, 0
3, 78709, Note_on_c, 1, 58, 73
3, 78714, Note_on_c, 1, 94, 57
3, 78719, Note_on_c, 1, 61, 71
3, 78720, Note_on_c, 1, 46, 68
3, 78732, Note_on_c, 1, 44, 0
3, 78740, Note_on_c, 1, 56, 0
3, 78741, Note_on_c, 1, 85, 0
3, 79066, Note_on_c, 1, 58, 0
3, 79067, Note_on_c, 1, 61, 0
3, 79087, Note_on_c, 1, 47, 72
3, 79088, Note_on_c, 1, 54, 43
3, 79093, Note_on_c, 1, 90, 57
3, 79093, Note_on_c, 1, 59, 78
3, 79097, Note_on_c, 1, 63, 67
3, 79107, Note_on_c, 1, 46, 0
3, 79145, Note_on_c, 1, 94, 0
3, 79840, Note_on_c, 1, 47, 0
3, 79848, Note_on_c, 1, 44, 51
3, 79853, Note_on_c, 1, 56, 67
3, 79869, Note_on_c, 1, 54, 0
3, 80261, Note_on_c, 1, 87, 64
3, 80277, Note_on_c, 1, 90, 0
3, 80444, Note_on_c, 1, 83, 53
3, 80478, Note_on_c, 1, 87, 0
3, 80630, Note_on_c, 1, 40, 62
3, 80636, Note_on_c, 1, 44, 0
3, 80640, Note_on_c, 1, 52, 63
3, 80642, Note_on_c, 1, 80, 63
3, 80654, Note_on_c, 1, 83, 0
3, 81248, Note_on_c, 1, 52, 0
3, 81257, Note_on_c, 1, 59, 0
3, 81364, Note_on_c, 1, 63, 0
3, 81387, Note_on_c, 1, 56, 0
3, 81400, Note_on_c, 1, 42, 53
3, 81404, Note_on_c, 1, 58, 68
3, 81406, Note_on_c, 1, 54, 66
3, 81408, Note_on_c, 1, 66, 55
3, 81410, Note_on_c, 1, 40, 0
3, 81411, Note_on_c, 1, 80, 0
3, 81667, Note_on_c, 1, 56, 66
3, 81671, Note_on_c, 1, 44, 58
3, 81674, Note_on_c, 1, 59, 67
3, 81676, Note_on_c, 1, 58, 0
3, 81681, Note_on_c, 1, 42, 0
3, 81684, Note_on_c, 1, 68, 53
3, 81696, Note_on_c, 1, 54, 0
3, 81700, Note_on_c, 1, 66, 0
3, 81957, Note_on_c, 1, 68, 0
3, 81960, Note_on_c, 1, 70, 52
3, 81975, Note_on_c, 1, 59, 0
3, 81976, Note_on_c, 1, 46, 57
3, 81978, Note_on_c, 1, 61, 63
3, 81979, Note_on_c, 1, 58, 61
3, 81988, Note_on_c, 1, 44, 0
3, 82002, Note_on_c, 1, 56, 0
3, 83272, Note_on_c, 1, 61, 0
3, 83274, Note_on_c, 1, 46, 0
3, 83275, Note_on_c, 1, 58, 0
3, 83363, Note_on_c, 1, 70, 0
3, 85572, Control_c, 1, 7, 121
3, 85578, Control_c, 1, 7, 117
3, 85584, Control_c, 1, 7, 113
3, 85596, Control_c, 1, 7, 109
3, 85602, Control_c, 1, 7, 105
3, 85608, Control_c, 1, 7, 101
3, 85620, Control_c, 1, 7, 97
3, 85626, Control_c, 1, 7, 93
3, 85632, Control_c, 1, 7, 89
3, 85644, Control_c, 1, 7, 85
3, 85650, Control_c, 1, 7, 81
3, 85656, Control_c, 1, 7, 77
3, 85668, Control_c, 1, 7, 73
3, 85674, Control_c, 1, 7, 69
3, 85680, Control_c, 1, 7, 65
3, 85692, Control_c, 1, 7, 60
3, 85698, Control_c, 1, 7, 56
3, 85704, Control_c, 1, 7, 52
3, 85716, Control_c, 1, 7, 48
3, 85722, Control_c, 1, 7, 44
3, 85728, Control_c, 1, 7, 40
3, 85740, Control_c, 1, 7, 36
3, 85746, Control_c, 1, 7, 32
3, 85752, Control_c, 1, 7, 28
3, 85764, Control_c, 1, 7, 24
3, 85770, Control_c, 1, 7, 20
3, 85776, Control_c, 1, 7, 16
3, 85788, Control_c, 1, 7, 12
3, 85794, Control_c, 1, 7, 8
3, 85800, Control_c, 1, 7, 4
3, 85812, Control_c, 1, 7, 0
3, 85920, Control_c, 1, 7, 7
3, 85932, Control_c, 1, 7, 9
3, 85938, Control_c, 1, 7, 11
3, 85944, Control_c, 1, 7, 12
3, 85956, Control_c, 1, 7, 14
3, 85962, Control_c, 1, 7, 16
3, 85968, Control_c, 1, 7, 17
3, 85980, Control_c, 1, 7, 19
3, 85986, Control_c, 1, 7, 21
3, 85992, Control_c, 1, 7, 22
3, 86002, Note_on_c, 1, 68, 61
3, 86004, Control_c, 1, 7, 24
3, 86004, Note_on_c, 1, 52, 42
3, 86006, Note_on_c, 1, 40, 34
3, 86007, Note_on_c, 1, 59, 51
3, 86010, Control_c, 1, 7, 26
3, 86016, Control_c, 1, 7, 27
3, 86028, Control_c, 1, 7, 29
3, 86029, Control_c, 1, 64, 127
3, 86034, Control_c, 1, 7, 31
3, 86040, Control_c, 1, 7, 32
3, 86052, Control_c, 1, 7, 34
3, 86058, Control_c, 1, 7, 36
3, 86064, Control_c, 1, 7, 37
3, 86076, Control_c, 1, 7, 39
3, 86082, Control_c, 1, 7, 41
3, 86088, Control_c, 1, 7, 43
3, 86100, Control_c, 1, 7, 44
3, 86106, Control_c, 1, 7, 46
3, 86112, Control_c, 1, 7, 48
3, 86124, Control_c, 1, 7, 49
3, 86130, Control_c, 1, 7, 51
3, 86136, Control_c, 1, 7, 53
3, 86148, Control_c, 1, 7, 54
3, 86154, Control_c, 1, 7, 56
3, 86160, Control_c, 1, 7, 58
3, 86172, Control_c, 1, 7, 59
3, 86178, Control_c, 1, 7, 61
3, 86184, Control_c, 1, 7, 63
3, 86196, Control_c, 1, 7, 64
3, 86196, Note_on_c, 1, 40, 0
3, 86202, Control_c, 1, 7, 66
3, 86203, Note_on_c, 1, 52, 0
3, 86208, Control_c, 1, 7, 68
3, 86220, Control_c, 1, 7, 69
3, 86226, Control_c, 1, 7, 71
3, 86232, Control_c, 1, 7, 73
3, 86244, Control_c, 1, 7, 74
3, 86250, Control_c, 1, 7, 76
3, 86256, Control_c, 1, 7, 78
3, 86268, Control_c, 1, 7, 79
3, 86274, Control_c, 1, 7, 81
3, 86280, Control_c, 1, 7, 83
3, 86292, Control_c, 1, 7, 84
3, 86298, Control_c, 1, 7, 86
3, 86304, Control_c, 1, 7, 88
3, 86316, Control_c, 1, 7, 90
3, 86322, Control_c, 1, 7, 91
3, 86328, Control_c, 1, 7, 93
3, 86340, Control_c, 1, 7, 95
3, 86346, Control_c, 1, 7, 96
3, 86352, Control_c, 1, 7, 98
3, 86364, Control_c, 1, 7, 100
3, 86370, Control_c, 1, 7, 101
3, 86376, Control_c, 1, 7, 103
3, 86388, Control_c, 1, 7, 105
3, 86394, Control_c, 1, 7, 106
3, 86400, Control_c, 1, 7, 108
3, 86412, Control_c, 1, 7, 110
3, 86418, Control_c, 1, 7, 111
3, 86424, Control_c, 1, 7, 113
3, 86436, Control_c, 1, 7, 115
3, 86442, Control_c, 1, 7, 116
3, 86448, Control_c, 1, 7, 118
3, 86460, Control_c, 1, 7, 120
3, 86466, Control_c, 1, 7, 121
3, 86597, Note_on_c, 1, 59, 0
3, 86614, Note_on_c, 1, 68, 0
3, 87538, Note_on_c, 1, 51, 37
3, 87541, Note_on_c, 1, 66, 37
3, 87545, Control_c, 1, 64, 0
3, 87548, Note_on_c, 1, 61, 41
3, 87550, Note_on_c, 1, 63, 41
3, 88128, Control_c, 1, 64, 127
3, 88243, Note_on_c, 1, 63, 0
3, 88243, Note_on_c, 1, 61, 0
3, 88244, Note_on_c, 1, 51, 0
3, 88246, Note_on_c, 1, 66, 0
3, 89103, Note_on_c, 1, 42, 37
3, 89108, Note_on_c, 1, 54, 45
3, 89109, Control_c, 1, 64, 0
3, 89113, Note_on_c, 1, 56, 44
3, 89114, Note_on_c, 1, 64, 44
3, 89116, Note_on_c, 1, 59, 44
3, 89187, Control_c, 1, 64, 127
3, 89281, Note_on_c, 1, 56, 0
3, 89282, Note_on_c, 1, 64, 0
3, 89284, Note_on_c, 1, 59, 0
3, 89284, Note_on_c, 1, 54, 0
3, 89287, Note_on_c, 1, 42, 0
3, 89815, Control_c, 1, 64, 0
3, 89816, Note_on_c, 1, 66, 46
3, 89846, Note_on_c, 1, 61, 43
3, 89856, Note_on_c, 1, 54, 44
3, 89863, Note_on_c, 1, 58, 39
3, 89982, Control_c, 1, 64, 127
3, 90048, Note_on_c, 1, 54, 0
3, 90048, Note_on_c, 1, 66, 0
3, 90054, Note_on_c, 1, 61, 0
3, 90055, Note_on_c, 1, 58, 0
3, 92142, Control_c, 1, 64, 0
3, 92149, Note_on_c, 1, 66, 37
3, 92157, Note_on_c, 1, 61, 38
3, 92159, Note_on_c, 1, 47, 46
3, 92168, Note_on_c, 1, 63, 35
3, 92223, Control_c, 1, 64, 127
3, 92261, Note_on_c, 1, 61, 0
3, 92261, Note_on_c, 1, 66, 0
3, 92263, Note_on_c, 1, 47, 0
3, 92264, Note_on_c, 1, 63, 0
3, 94218, Control_c, 1, 7, 119
3, 94224, Control_c, 1, 7, 118
3, 94236, Control_c, 1, 7, 117
3, 94248, Control_c, 1, 7, 116
3, 94260, Control_c, 1, 7, 115
3, 94272, Control_c, 1, 7, 114
3, 94284, Control_c, 1, 7, 113
3, 94296, Control_c, 1, 7, 112
3, 94308, Control_c, 1, 7, 111
3, 94320, Control_c, 1, 7, 110
3, 94332, Control_c, 1, 7, 109
3, 94344, Control_c, 1, 7, 108
3, 94356, Control_c, 1, 7, 107
3, 94368, Control_c, 1, 7, 106
3, 94380, Control_c, 1, 7, 105
3, 94392, Control_c, 1, 7, 104
3, 94404, Control_c, 1, 7, 103
3, 94416, Control_c, 1, 7, 102
3, 94428, Control_c, 1, 7, 101
3, 94440, Control_c, 1, 7, 100
3, 94452, Control_c, 1, 7, 99
3, 94464, Control_c, 1, 7, 98
3, 94476, Control_c, 1, 7, 97
3, 94488, Control_c, 1, 7, 96
3, 94500, Control_c, 1, 7, 95
3, 94512, Control_c, 1, 7, 94
3, 94524, Control_c, 1, 7, 93
3, 94536, Control_c, 1, 7, 92
3, 94548, Control_c, 1, 7, 91
3, 94560, Control_c, 1, 7, 90
3, 94572, Control_c, 1, 7, 89
3, 94584, Control_c, 1, 7, 88
3, 94596, Control_c, 1, 7, 87
3, 94608, Control_c, 1, 7, 86
3, 94620, Control_c, 1, 7, 85
3, 94632, Control_c, 1, 7, 84
3, 94644, Control_c, 1, 7, 83
3, 94656, Control_c, 1, 7, 82
3, 94668, Control_c, 1, 7, 81
3, 94680, Control_c, 1, 7, 80
3, 94692, Control_c, 1, 7, 79
3, 94704, Control_c, 1, 7, 78
3, 94716, Control_c, 1, 7, 77
3, 94728, Control_c, 1, 7, 76
3, 94740, Control_c, 1, 7, 75
3, 94752, Control_c, 1, 7, 74
3, 94764, Control_c, 1, 7, 73
3, 94776, Control_c, 1, 7, 72
3, 94788, Control_c, 1, 7, 71
3, 94794, Control_c, 1, 7, 70
3, 94812, Control_c, 1, 7, 69
3, 94818, Control_c, 1, 7, 68
3, 94836, Control_c, 1, 7, 67
3, 94842, Control_c, 1, 7, 66
3, 94860, Control_c, 1, 7, 65
3, 94866, Control_c, 1, 7, 64
3, 94884, Control_c, 1, 7, 63
3, 94890, Control_c, 1, 7, 62
3, 94908, Control_c, 1, 7, 61
3, 94914, Control_c, 1, 7, 60
3, 94932, Control_c, 1, 7, 59
3, 94938, Control_c, 1, 7, 58
3, 94956, Control_c, 1, 7, 57
3, 94962, Control_c, 1, 7, 56
3, 94980, Control_c, 1, 7, 55
3, 94986, Control_c, 1, 7, 54
3, 95004, Control_c, 1, 7, 53
3, 95010, Control_c, 1, 7, 52
3, 95028, Control_c, 1, 7, 51
3, 95034, Control_c, 1, 7, 50
3, 95052, Control_c, 1, 7, 49
3, 95058, Control_c, 1, 7, 48
3, 95076, Control_c, 1, 7, 47
3, 95082, Control_c, 1, 7, 46
3, 95100, Control_c, 1, 7, 45
3, 95106, Control_c, 1, 7, 44
3, 95124, Control_c, 1, 7, 43
3, 95130, Control_c, 1, 7, 42
3, 95148, Control_c, 1, 7, 41
3, 95154, Control_c, 1, 7, 40
3, 95172, Control_c, 1, 7, 39
3, 95178, Control_c, 1, 7, 38
3, 95196, Control_c, 1, 7, 37
3, 95202, Control_c, 1, 7, 36
3, 95220, Control_c, 1, 7, 35
3, 95226, Control_c, 1, 7, 34
3, 95236, Control_c, 1, 64, 0
3, 95244, Control_c, 1, 7, 33
3, 95250, Control_c, 1, 7, 32
3, 95268, Control_c, 1, 7, 31
3, 95274, Control_c, 1, 7, 30
3, 95292, Control_c, 1, 7, 29
3, 95298, Control_c, 1, 7, 28
3, 95316, Control_c, 1, 7, 27
3, 95322, Control_c, 1, 7, 26
3, 95340, Control_c, 1, 7, 25
3, 95346, Control_c, 1, 7, 24
3, 95364, Control_c, 1, 7, 23
3, 95370, Control_c, 1, 7, 22
3, 95388, Control_c, 1, 7, 21
3, 95394, Control_c, 1, 7, 20
3, 95412, Control_c, 1, 7, 19
3, 95418, Control_c, 1, 7, 18
3, 95436, Control_c, 1, 7, 17
3, 95442, Control_c, 1, 7, 16
3, 95460, Control_c, 1, 7, 15
3, 95466, Control_c, 1, 7, 14
3, 95484, Control_c, 1, 7, 13
3, 95490, Control_c, 1, 7, 12
3, 95508, Control_c, 1, 7, 11
3, 95514, Control_c, 1, 7, 10
3, 95532, Control_c, 1, 7, 9
3, 95538, Control_c, 1, 7, 8
3, 95556, Control_c, 1, 7, 7
3, 95562, Control_c, 1, 7, 6
3, 95580, Control_c, 1, 7, 5
3, 95586, Control_c, 1, 7, 4
3, 95604, Control_c, 1, 7, 3
3, 95610, Control_c, 1, 7, 121
3, 95640, Control_c, 1, 7, 123
3, 95658, Control_c, 1, 7, 121
3, 95670, Control_c, 1, 7, 123
3, 95688, Control_c, 1, 7, 119
3, 95730, Control_c, 1, 7, 121
3, 95730, End_track
4, 0, Start_track
4, 0, MIDI_port, 0
4, 0, Title_t, "E.PIANO"
4, 192, Control_c, 2, 91, 120
4, 192, Control_c, 2, 7, 127
4, 192, Program_c, 2, 5
4, 9965, Control_c, 2, 64, 127
4, 9984, Note_on_c, 2, 64, 99
4, 9984, Note_on_c, 2, 73, 87
4, 10071, Note_on_c, 2, 73, 0
4, 10077, Note_on_c, 2, 64, 0
4, 10176, Note_on_c, 2, 71, 92
4, 10238, Note_on_c, 2, 71, 0
4, 10272, Note_on_c, 2, 69, 80
4, 10347, Note_on_c, 2, 69, 0
4, 10368, Note_on_c, 2, 68, 91
4, 10456, Note_on_c, 2, 68, 0
4, 10464, Note_on_c, 2, 69, 78
4, 10539, Note_on_c, 2, 69, 0
4, 10560, Note_on_c, 2, 64, 88
4, 10598, Note_on_c, 2, 64, 0
4, 10724, Note_on_c, 2, 64, 85
4, 10726, Control_c, 2, 64, 0
4, 10752, Note_on_c, 2, 38, 85
4, 10752, Note_on_c, 2, 69, 73
4, 10770, Note_on_c, 2, 66, 85
4, 10792, Control_c, 2, 64, 127
4, 10808, Note_on_c, 2, 64, 0
4, 10944, Note_on_c, 2, 45, 77
4, 10946, Note_on_c, 2, 38, 0
4, 11128, Note_on_c, 2, 45, 0
4, 11136, Note_on_c, 2, 52, 83
4, 11295, Note_on_c, 2, 52, 0
4, 11297, Note_on_c, 2, 66, 0
4, 11315, Note_on_c, 2, 69, 0
4, 11328, Note_on_c, 2, 54, 76
4, 11520, Note_on_c, 2, 64, 92
4, 11520, Note_on_c, 2, 73, 82
4, 11606, Note_on_c, 2, 64, 0
4, 11618, Note_on_c, 2, 73, 0
4, 11712, Note_on_c, 2, 71, 85
4, 11717, Note_on_c, 2, 54, 0
4, 11782, Note_on_c, 2, 71, 0
4, 11808, Note_on_c, 2, 69, 75
4, 11899, Note_on_c, 2, 69, 0
4, 11904, Note_on_c, 2, 68, 71
4, 11994, Note_on_c, 2, 68, 0
4, 12000, Note_on_c, 2, 69, 68
4, 12029, Note_on_c, 2, 69, 0
4, 12096, Note_on_c, 2, 64, 85
4, 12176, Note_on_c, 2, 64, 0
4, 12192, Note_on_c, 2, 66, 75
4, 12246, Note_on_c, 2, 66, 0
4, 12288, Note_on_c, 2, 49, 72
4, 12288, Note_on_c, 2, 59, 78
4, 12288, Note_on_c, 2, 61, 67
4, 12288, Note_on_c, 2, 64, 82
4, 12288, Note_on_c, 2, 68, 82
4, 12311, Control_c, 2, 64, 0
4, 12377, Control_c, 2, 64, 127
4, 12450, Note_on_c, 2, 49, 0
4, 12672, Note_on_c, 2, 52, 82
4, 12850, Note_on_c, 2, 52, 0
4, 12864, Note_on_c, 2, 57, 88
4, 12878, Note_on_c, 2, 59, 0
4, 12883, Note_on_c, 2, 64, 0
4, 12885, Note_on_c, 2, 61, 0
4, 12904, Note_on_c, 2, 68, 0
4, 13056, Note_on_c, 2, 64, 92
4, 13056, Note_on_c, 2, 73, 83
4, 13179, Note_on_c, 2, 64, 0
4, 13180, Note_on_c, 2, 73, 0
4, 13248, Note_on_c, 2, 71, 85
4, 13299, Note_on_c, 2, 57, 0
4, 13336, Note_on_c, 2, 71, 0
4, 13344, Note_on_c, 2, 69, 85
4, 13427, Note_on_c, 2, 69, 0
4, 13440, Note_on_c, 2, 68, 71
4, 13536, Note_on_c, 2, 69, 85
4, 13550, Note_on_c, 2, 68, 0
4, 13570, Note_on_c, 2, 69, 0
4, 13632, Note_on_c, 2, 62, 91
4, 13728, Note_on_c, 2, 64, 93
4, 13742, Note_on_c, 2, 62, 0
4, 13812, Note_on_c, 2, 64, 0
4, 13824, Note_on_c, 2, 47, 88
4, 13824, Note_on_c, 2, 54, 67
4, 13824, Note_on_c, 2, 57, 86
4, 13824, Note_on_c, 2, 62, 88
4, 13824, Note_on_c, 2, 66, 80
4, 13874, Control_c, 2, 64, 0
4, 13962, Control_c, 2, 64, 127
4, 14022, Note_on_c, 2, 62, 0
4, 14035, Note_on_c, 2, 66, 0
4, 14114, Note_on_c, 2, 57, 0
4, 14181, Note_on_c, 2, 54, 0
4, 14208, Note_on_c, 2, 57, 94
4, 14314, Note_on_c, 2, 47, 0
4, 14355, Note_on_c, 2, 57, 0
4, 14400, Note_on_c, 2, 59, 85
4, 14466, Note_on_c, 2, 59, 0
4, 14592, Note_on_c, 2, 40, 77
4, 14592, Note_on_c, 2, 57, 85
4, 14592, Note_on_c, 2, 61, 90
4, 14592, Note_on_c, 2, 64, 88
4, 14601, Control_c, 2, 64, 0
4, 14656, Control_c, 2, 64, 127
4, 14768, Note_on_c, 2, 64, 0
4, 14781, Note_on_c, 2, 61, 0
4, 14798, Note_on_c, 2, 57, 0
4, 14976, Note_on_c, 2, 52, 87
4, 14976, Note_on_c, 2, 57, 85
4, 14976, Note_on_c, 2, 62, 93
4, 14976, Note_on_c, 2, 66, 87
4, 14978, Note_on_c, 2, 40, 0
4, 14987, Control_c, 2, 64, 0
4, 15052, Control_c, 2, 64, 127
4, 15165, Note_on_c, 2, 62, 0
4, 15174, Note_on_c, 2, 66, 0
4, 15180, Note_on_c, 2, 52, 0
4, 15206, Note_on_c, 2, 57, 0
4, 15337, Note_on_c, 2, 59, 70
4, 15360, Note_on_c, 2, 45, 75
4, 15360, Note_on_c, 2, 57, 70
4, 15360, Note_on_c, 2, 61, 85
4, 15360, Note_on_c, 2, 64, 85
4, 15372, Control_c, 2, 64, 0
4, 15401, Note_on_c, 2, 59, 0
4, 16130, Control_c, 2, 64, 127
4, 16300, Note_on_c, 2, 61, 0
4, 16308, Note_on_c, 2, 45, 0
4, 16311, Note_on_c, 2, 64, 0
4, 16331, Note_on_c, 2, 57, 0
4, 16512, Note_on_c, 2, 45, 77
4, 16512, Note_on_c, 2, 57, 98
4, 16512, Note_on_c, 2, 62, 99
4, 16512, Note_on_c, 2, 66, 86
4, 16537, Control_c, 2, 64, 0
4, 16604, Control_c, 2, 64, 127
4, 16689, Note_on_c, 2, 62, 0
4, 16700, Note_on_c, 2, 66, 0
4, 16717, Note_on_c, 2, 57, 0
4, 16727, Note_on_c, 2, 45, 0
4, 16882, Note_on_c, 2, 59, 86
4, 16896, Note_on_c, 2, 45, 76
4, 16896, Note_on_c, 2, 57, 62
4, 16896, Note_on_c, 2, 64, 77
4, 16916, Note_on_c, 2, 61, 78
4, 16923, Control_c, 2, 64, 0
4, 16947, Note_on_c, 2, 59, 0
4, 18396, Note_on_c, 2, 61, 0
4, 18399, Note_on_c, 2, 64, 0
4, 18400, Note_on_c, 2, 45, 0
4, 18423, Note_on_c, 2, 57, 0
4, 21491, Note_on_c, 2, 57, 82
4, 21493, Note_on_c, 2, 45, 78
4, 21495, Note_on_c, 2, 64, 93
4, 21512, Note_on_c, 2, 61, 73
4, 21895, Control_c, 2, 64, 127
4, 21977, Note_on_c, 2, 45, 0
4, 22081, Note_on_c, 2, 45, 66
4, 22093, Note_on_c, 2, 57, 0
4, 22098, Note_on_c, 2, 64, 0
4, 22111, Note_on_c, 2, 61, 0
4, 22266, Note_on_c, 2, 64, 96
4, 22268, Note_on_c, 2, 59, 91
4, 22270, Note_on_c, 2, 56, 86
4, 22483, Note_on_c, 2, 45, 0
4, 22767, Note_on_c, 2, 56, 0
4, 22773, Note_on_c, 2, 59, 0
4, 22782, Note_on_c, 2, 64, 0
4, 23035, Note_on_c, 2, 61, 85
4, 23037, Note_on_c, 2, 57, 80
4, 23039, Note_on_c, 2, 45, 81
4, 23041, Note_on_c, 2, 64, 88
4, 23043, Control_c, 2, 64, 0
4, 23191, Control_c, 2, 64, 127
4, 23343, Note_on_c, 2, 45, 0
4, 23663, Note_on_c, 2, 57, 0
4, 23673, Note_on_c, 2, 61, 0
4, 23687, Note_on_c, 2, 64, 0
4, 24188, Note_on_c, 2, 57, 65
4, 24282, Note_on_c, 2, 64, 64
4, 24291, Note_on_c, 2, 57, 0
4, 24365, Note_on_c, 2, 64, 0
4, 24384, Note_on_c, 2, 69, 87
4, 24475, Note_on_c, 2, 73, 88
4, 24477, Note_on_c, 2, 69, 0
4, 24570, Note_on_c, 2, 54, 75
4, 24574, Note_on_c, 2, 64, 83
4, 24576, Note_on_c, 2, 69, 87
4, 24577, Note_on_c, 2, 66, 80
4, 24600, Control_c, 2, 64, 0
4, 24961, Control_c, 2, 64, 127
4, 25016, Note_on_c, 2, 69, 0
4, 25029, Note_on_c, 2, 66, 0
4, 25036, Note_on_c, 2, 64, 0
4, 25042, Note_on_c, 2, 73, 0
4, 25049, Note_on_c, 2, 54, 0
4, 25149, Note_on_c, 2, 69, 90
4, 25151, Note_on_c, 2, 66, 75
4, 25152, Note_on_c, 2, 64, 82
4, 25154, Note_on_c, 2, 73, 70
4, 25197, Note_on_c, 2, 66, 0
4, 25216, Note_on_c, 2, 69, 0
4, 25226, Note_on_c, 2, 64, 0
4, 25287, Note_on_c, 2, 73, 0
4, 25352, Note_on_c, 2, 73, 78
4, 25355, Note_on_c, 2, 68, 82
4, 25357, Note_on_c, 2, 64, 78
4, 25382, Control_c, 2, 64, 0
4, 25581, Control_c, 2, 64, 127
4, 25771, Note_on_c, 2, 68, 0
4, 25772, Note_on_c, 2, 73, 0
4, 25778, Note_on_c, 2, 64, 0
4, 26098, Note_on_c, 2, 69, 92
4, 26100, Note_on_c, 2, 62, 87
4, 26101, Note_on_c, 2, 64, 85
4, 26103, Note_on_c, 2, 50, 86
4, 26130, Control_c, 2, 64, 0
4, 26135, Note_on_c, 2, 66, 77
4, 26166, Note_on_c, 2, 64, 0
4, 26258, Control_c, 2, 64, 127
4, 26400, Note_on_c, 2, 50, 0
4, 26426, Note_on_c, 2, 62, 0
4, 26489, Note_on_c, 2, 62, 76
4, 26489, Note_on_c, 2, 69, 0
4, 26496, Note_on_c, 2, 66, 0
4, 26571, Note_on_c, 2, 62, 0
4, 26668, Note_on_c, 2, 66, 61
4, 26736, Note_on_c, 2, 66, 0
4, 26873, Note_on_c, 2, 68, 96
4, 26875, Note_on_c, 2, 71, 93
4, 26876, Note_on_c, 2, 64, 90
4, 26888, Control_c, 2, 64, 0
4, 26993, Control_c, 2, 64, 127
4, 27243, Note_on_c, 2, 71, 0
4, 27269, Note_on_c, 2, 68, 0
4, 27287, Note_on_c, 2, 64, 0
4, 33797, Note_on_c, 2, 52, 96
4, 33799, Note_on_c, 2, 61, 103
4, 33801, Note_on_c, 2, 57, 91
4, 33805, Note_on_c, 2, 45, 91
4, 34153, Control_c, 2, 64, 127
4, 34261, Note_on_c, 2, 45, 0
4, 34368, Note_on_c, 2, 45, 70
4, 34376, Note_on_c, 2, 57, 0
4, 34378, Note_on_c, 2, 61, 0
4, 34389, Note_on_c, 2, 52, 0
4, 34403, Note_on_c, 2, 45, 0
4, 34549, Note_on_c, 2, 61, 68
4, 34551, Note_on_c, 2, 52, 76
4, 34552, Note_on_c, 2, 57, 65
4, 34554, Note_on_c, 2, 45, 74
4, 34600, Note_on_c, 2, 52, 0
4, 34616, Note_on_c, 2, 61, 0
4, 34645, Control_c, 2, 64, 0
4, 34650, Note_on_c, 2, 54, 85
4, 34651, Note_on_c, 2, 62, 94
4, 34750, Control_c, 2, 64, 127
4, 34860, Note_on_c, 2, 62, 0
4, 34870, Note_on_c, 2, 57, 0
4, 34878, Note_on_c, 2, 54, 0
4, 34948, Note_on_c, 2, 62, 91
4, 34949, Note_on_c, 2, 57, 81
4, 34952, Note_on_c, 2, 54, 78
4, 35113, Note_on_c, 2, 54, 0
4, 35113, Note_on_c, 2, 62, 0
4, 35114, Note_on_c, 2, 57, 0
4, 35128, Note_on_c, 2, 45, 0
4, 35329, Note_on_c, 2, 57, 80
4, 35332, Note_on_c, 2, 45, 75
4, 35333, Note_on_c, 2, 61, 75
4, 35335, Note_on_c, 2, 52, 83
4, 35347, Control_c, 2, 64, 0
4, 35463, Control_c, 2, 64, 127
4, 36041, Note_on_c, 2, 45, 0
4, 36045, Note_on_c, 2, 57, 0
4, 36050, Note_on_c, 2, 52, 0
4, 36053, Note_on_c, 2, 61, 0
4, 36058, Control_c, 2, 64, 0
4, 36102, Note_on_c, 2, 40, 74
4, 36107, Note_on_c, 2, 61, 83
4, 36109, Note_on_c, 2, 57, 79
4, 36111, Note_on_c, 2, 52, 88
4, 36155, Control_c, 2, 64, 127
4, 36247, Note_on_c, 2, 57, 0
4, 36249, Note_on_c, 2, 61, 0
4, 36250, Note_on_c, 2, 52, 0
4, 36398, Note_on_c, 2, 57, 88
4, 36399, Note_on_c, 2, 60, 83
4, 36402, Note_on_c, 2, 51, 75
4, 36413, Control_c, 2, 64, 0
4, 36494, Control_c, 2, 64, 127
4, 36549, Note_on_c, 2, 57, 0
4, 36551, Note_on_c, 2, 60, 0
4, 36574, Note_on_c, 2, 51, 0
4, 36690, Note_on_c, 2, 56, 75
4, 36691, Note_on_c, 2, 59, 78
4, 36694, Note_on_c, 2, 50, 68
4, 36696, Control_c, 2, 64, 0
4, 36764, Control_c, 2, 64, 127
4, 36873, Note_on_c, 2, 57, 79
4, 36875, Note_on_c, 2, 61, 79
4, 36877, Note_on_c, 2, 45, 79
4, 36880, Note_on_c, 2, 52, 96
4, 36901, Note_on_c, 2, 59, 0
4, 36902, Note_on_c, 2, 50, 0
4, 36903, Note_on_c, 2, 40, 0
4, 36904, Control_c, 2, 64, 0
4, 36904, Note_on_c, 2, 56, 0
4, 37221, Control_c, 2, 64, 127
4, 37775, Note_on_c, 2, 52, 0
4, 37792, Note_on_c, 2, 57, 0
4, 37793, Note_on_c, 2, 61, 0
4, 37805, Note_on_c, 2, 45, 0
4, 38003, Note_on_c, 2, 62, 81
4, 38006, Note_on_c, 2, 45, 79
4, 38007, Note_on_c, 2, 57, 85
4, 38009, Note_on_c, 2, 54, 94
4, 38015, Control_c, 2, 64, 0
4, 38097, Control_c, 2, 64, 127
4, 38157, Note_on_c, 2, 57, 0
4, 38162, Note_on_c, 2, 62, 0
4, 38163, Note_on_c, 2, 54, 0
4, 38168, Note_on_c, 2, 45, 0
4, 38392, Note_on_c, 2, 57, 79
4, 38394, Note_on_c, 2, 61, 75
4, 38396, Note_on_c, 2, 45, 69
4, 38398, Note_on_c, 2, 52, 81
4, 38418, Control_c, 2, 64, 0
4, 38548, Control_c, 2, 64, 127
4, 38792, Note_on_c, 2, 52, 0
4, 38801, Note_on_c, 2, 57, 0
4, 38816, Note_on_c, 2, 61, 0
4, 39067, Note_on_c, 2, 74, 79
4, 39070, Note_on_c, 2, 66, 73
4, 39071, Note_on_c, 2, 69, 79
4, 39140, Note_on_c, 2, 66, 0
4, 39147, Note_on_c, 2, 74, 0
4, 39156, Note_on_c, 2, 69, 0
4, 39165, Control_c, 2, 64, 0
4, 39171, Note_on_c, 2, 69, 83
4, 39173, Note_on_c, 2, 73, 73
4, 39178, Note_on_c, 2, 64, 96
4, 39319, Control_c, 2, 64, 127
4, 39552, Note_on_c, 2, 69, 0
4, 39570, Note_on_c, 2, 45, 0
4, 39570, Note_on_c, 2, 64, 0
4, 39572, Note_on_c, 2, 73, 0
4, 39945, Note_on_c, 2, 54, 69
4, 39948, Note_on_c, 2, 66, 73
4, 39949, Note_on_c, 2, 73, 76
4, 39951, Note_on_c, 2, 64, 80
4, 39953, Note_on_c, 2, 69, 79
4, 39960, Control_c, 2, 64, 0
4, 40137, Control_c, 2, 64, 127
4, 40492, Note_on_c, 2, 66, 0
4, 40508, Note_on_c, 2, 54, 0
4, 40510, Note_on_c, 2, 69, 0
4, 40522, Note_on_c, 2, 64, 0
4, 40532, Note_on_c, 2, 73, 0
4, 40699, Note_on_c, 2, 68, 79
4, 40701, Note_on_c, 2, 64, 79
4, 40703, Note_on_c, 2, 73, 70
4, 40705, Note_on_c, 2, 52, 64
4, 40717, Control_c, 2, 64, 0
4, 40883, Control_c, 2, 64, 127
4, 41194, Note_on_c, 2, 52, 0
4, 41269, Note_on_c, 2, 68, 0
4, 41276, Note_on_c, 2, 52, 47
4, 41283, Note_on_c, 2, 64, 0
4, 41323, Note_on_c, 2, 73, 0
4, 41337, Note_on_c, 2, 52, 0
4, 41468, Note_on_c, 2, 50, 76
4, 41470, Note_on_c, 2, 66, 75
4, 41472, Note_on_c, 2, 69, 80
4, 41474, Note_on_c, 2, 62, 74
4, 41500, Control_c, 2, 64, 0
4, 41618, Control_c, 2, 64, 127
4, 41933, Note_on_c, 2, 50, 0
4, 42000, Note_on_c, 2, 62, 0
4, 42007, Note_on_c, 2, 69, 0
4, 42017, Note_on_c, 2, 66, 0
4, 42222, Control_c, 2, 64, 0
4, 42231, Note_on_c, 2, 68, 94
4, 42232, Note_on_c, 2, 64, 79
4, 42237, Note_on_c, 2, 52, 74
4, 42293, Control_c, 2, 64, 127
4, 42447, Note_on_c, 2, 64, 0
4, 42454, Note_on_c, 2, 68, 0
4, 42521, Note_on_c, 2, 69, 78
4, 42523, Note_on_c, 2, 66, 79
4, 42603, Note_on_c, 2, 66, 0
4, 42604, Note_on_c, 2, 69, 0
4, 42810, Note_on_c, 2, 68, 85
4, 42812, Note_on_c, 2, 71, 67
4, 42815, Note_on_c, 2, 52, 0
4, 42852, Note_on_c, 2, 71, 0
4, 42853, Note_on_c, 2, 68, 0
4, 43016, Note_on_c, 2, 57, 75
4, 43019, Note_on_c, 2, 69, 81
4, 43021, Note_on_c, 2, 73, 73
4, 43022, Note_on_c, 2, 64, 81
4, 43040, Control_c, 2, 64, 0
4, 43170, Control_c, 2, 64, 127
4, 43727, Note_on_c, 2, 69, 0
4, 43738, Note_on_c, 2, 57, 0
4, 43757, Note_on_c, 2, 73, 0
4, 43759, Note_on_c, 2, 64, 0
4, 43773, Note_on_c, 2, 68, 78
4, 43775, Note_on_c, 2, 71, 79
4, 43777, Note_on_c, 2, 64, 79
4, 43779, Note_on_c, 2, 57, 63
4, 44125, Control_c, 2, 64, 127
4, 44234, Note_on_c, 2, 57, 0
4, 44330, Control_c, 2, 64, 0
4, 44334, Note_on_c, 2, 57, 48
4, 44388, Note_on_c, 2, 57, 0
4, 44449, Note_on_c, 2, 64, 0
4, 44457, Note_on_c, 2, 57, 32
4, 44477, Note_on_c, 2, 68, 0
4, 44485, Note_on_c, 2, 57, 0
4, 44511, Note_on_c, 2, 71, 0
4, 44534, Note_on_c, 2, 69, 80
4, 44536, Note_on_c, 2, 73, 75
4, 44538, Note_on_c, 2, 64, 75
4, 44539, Note_on_c, 2, 57, 69
4, 44542, Control_c, 2, 64, 0
4, 44682, Control_c, 2, 64, 127
4, 44883, Note_on_c, 2, 57, 0
4, 44926, Note_on_c, 2, 57, 54
4, 45000, Note_on_c, 2, 57, 0
4, 45119, Note_on_c, 2, 57, 49
4, 45126, Note_on_c, 2, 69, 0
4, 45146, Note_on_c, 2, 73, 0
4, 45155, Note_on_c, 2, 64, 0
4, 45203, Note_on_c, 2, 57, 0
4, 45308, Note_on_c, 2, 71, 79
4, 45310, Note_on_c, 2, 68, 78
4, 45312, Control_c, 2, 64, 0
4, 45317, Note_on_c, 2, 64, 80
4, 45405, Control_c, 2, 64, 127
4, 45562, Note_on_c, 2, 71, 0
4, 45607, Note_on_c, 2, 64, 0
4, 45627, Note_on_c, 2, 68, 0
4, 46087, Note_on_c, 2, 73, 74
4, 46089, Note_on_c, 2, 66, 64
4, 46092, Note_on_c, 2, 69, 79
4, 46094, Note_on_c, 2, 64, 76
4, 46104, Control_c, 2, 64, 0
4, 46235, Control_c, 2, 64, 127
4, 46529, Note_on_c, 2, 64, 0
4, 46529, Note_on_c, 2, 69, 0
4, 46529, Note_on_c, 2, 66, 0
4, 46538, Note_on_c, 2, 73, 0
4, 46647, Note_on_c, 2, 66, 57
4, 46652, Note_on_c, 2, 73, 58
4, 46654, Note_on_c, 2, 64, 67
4, 46656, Note_on_c, 2, 69, 69
4, 46695, Note_on_c, 2, 66, 0
4, 46712, Note_on_c, 2, 69, 0
4, 46729, Note_on_c, 2, 64, 0
4, 46763, Note_on_c, 2, 73, 0
4, 46852, Note_on_c, 2, 68, 78
4, 46854, Note_on_c, 2, 71, 79
4, 46855, Note_on_c, 2, 73, 68
4, 46857, Note_on_c, 2, 64, 76
4, 46875, Control_c, 2, 64, 0
4, 47006, Control_c, 2, 64, 127
4, 47436, Note_on_c, 2, 68, 0
4, 47439, Note_on_c, 2, 71, 0
4, 47450, Note_on_c, 2, 64, 0
4, 47490, Note_on_c, 2, 73, 0
4, 47622, Note_on_c, 2, 66, 70
4, 47623, Note_on_c, 2, 69, 81
4, 47625, Note_on_c, 2, 64, 78
4, 47645, Control_c, 2, 64, 0
4, 47740, Control_c, 2, 64, 127
4, 48076, Note_on_c, 2, 64, 0
4, 48086, Note_on_c, 2, 66, 0
4, 48088, Note_on_c, 2, 69, 0
4, 48190, Note_on_c, 2, 69, 62
4, 48192, Note_on_c, 2, 66, 52
4, 48194, Note_on_c, 2, 64, 60
4, 48237, Note_on_c, 2, 69, 0
4, 48262, Note_on_c, 2, 66, 0
4, 48265, Note_on_c, 2, 64, 0
4, 48368, Control_c, 2, 64, 0
4, 48381, Note_on_c, 2, 68, 74
4, 48382, Note_on_c, 2, 64, 76
4, 48385, Note_on_c, 2, 71, 76
4, 48399, Note_on_c, 2, 66, 28
4, 48415, Note_on_c, 2, 66, 0
4, 48416, Control_c, 2, 64, 127
4, 48510, Note_on_c, 2, 64, 0
4, 48517, Note_on_c, 2, 71, 0
4, 48520, Note_on_c, 2, 68, 0
4, 48764, Note_on_c, 2, 76, 80
4, 48766, Note_on_c, 2, 68, 88
4, 48768, Note_on_c, 2, 64, 91
4, 48831, Note_on_c, 2, 76, 0
4, 48834, Note_on_c, 2, 64, 0
4, 48834, Note_on_c, 2, 68, 0
4, 49155, Note_on_c, 2, 73, 76
4, 49157, Note_on_c, 2, 52, 76
4, 49158, Note_on_c, 2, 64, 85
4, 49160, Note_on_c, 2, 69, 79
4, 49162, Note_on_c, 2, 45, 70
4, 49162, Control_c, 2, 64, 0
4, 49686, Note_on_c, 2, 52, 0
4, 49896, Control_c, 2, 64, 127
4, 49908, Note_on_c, 2, 52, 50
4, 49939, Note_on_c, 2, 45, 0
4, 49997, Note_on_c, 2, 64, 0
4, 50009, Note_on_c, 2, 69, 0
4, 50021, Note_on_c, 2, 73, 0
4, 50107, Note_on_c, 2, 52, 0
4, 50200, Note_on_c, 2, 45, 65
4, 50294, Control_c, 2, 64, 0
4, 50299, Note_on_c, 2, 74, 79
4, 50302, Note_on_c, 2, 69, 83
4, 50303, Note_on_c, 2, 66, 83
4, 50385, Control_c, 2, 64, 127
4, 50429, Note_on_c, 2, 66, 0
4, 50430, Note_on_c, 2, 69, 0
4, 50435, Note_on_c, 2, 74, 0
4, 50438, Note_on_c, 2, 45, 0
4, 50585, Note_on_c, 2, 64, 64
4, 50587, Note_on_c, 2, 73, 67
4, 50626, Note_on_c, 2, 71, 67
4, 50641, Note_on_c, 2, 73, 0
4, 50658, Control_c, 2, 64, 0
4, 50674, Note_on_c, 2, 73, 79
4, 50679, Note_on_c, 2, 45, 72
4, 50680, Note_on_c, 2, 71, 0
4, 50870, Note_on_c, 2, 69, 47
4, 50896, Control_c, 2, 64, 127
4, 50993, Note_on_c, 2, 45, 0
4, 51097, Note_on_c, 2, 52, 67
4, 51141, Note_on_c, 2, 64, 0
4, 51144, Note_on_c, 2, 69, 0
4, 51151, Note_on_c, 2, 73, 0
4, 51230, Note_on_c, 2, 52, 0
4, 51365, Note_on_c, 2, 74, 85
4, 51367, Note_on_c, 2, 69, 88
4, 51369, Note_on_c, 2, 66, 81
4, 51384, Control_c, 2, 64, 0
4, 51447, Note_on_c, 2, 66, 0
4, 51453, Control_c, 2, 64, 127
4, 51453, Note_on_c, 2, 74, 0
4, 51470, Note_on_c, 2, 73, 68
4, 51474, Note_on_c, 2, 45, 62
4, 51477, Note_on_c, 2, 64, 75
4, 51521, Control_c, 2, 64, 0
4, 51600, Control_c, 2, 64, 127
4, 51682, Note_on_c, 2, 69, 0
4, 51689, Note_on_c, 2, 45, 0
4, 51690, Note_on_c, 2, 73, 0
4, 51713, Note_on_c, 2, 64, 0
4, 51840, Note_on_c, 2, 68, 78
4, 51842, Note_on_c, 2, 71, 76
4, 51844, Note_on_c, 2, 64, 78
4, 51846, Note_on_c, 2, 56, 76
4, 51850, Control_c, 2, 64, 0
4, 51929, Control_c, 2, 64, 127
4, 51993, Note_on_c, 2, 71, 0
4, 51999, Note_on_c, 2, 56, 0
4, 52011, Note_on_c, 2, 68, 0
4, 52015, Note_on_c, 2, 64, 0
4, 52213, Control_c, 2, 64, 0
4, 52220, Note_on_c, 2, 66, 72
4, 52223, Note_on_c, 2, 69, 75
4, 52224, Note_on_c, 2, 54, 50
4, 52227, Note_on_c, 2, 64, 75
4, 52228, Note_on_c, 2, 73, 69
4, 52350, Control_c, 2, 64, 127
4, 52440, Note_on_c, 2, 54, 0
4, 52614, Note_on_c, 2, 69, 0
4, 52623, Note_on_c, 2, 64, 0
4, 52629, Note_on_c, 2, 73, 0
4, 52642, Note_on_c, 2, 66, 0
4, 52705, Note_on_c, 2, 64, 81
4, 52728, Note_on_c, 2, 54, 40
4, 52782, Note_on_c, 2, 66, 67
4, 52784, Note_on_c, 2, 64, 0
4, 52808, Note_on_c, 2, 54, 0
4, 52863, Note_on_c, 2, 66, 0
4, 52884, Note_on_c, 2, 73, 59
4, 52893, Note_on_c, 2, 64, 47
4, 52932, Note_on_c, 2, 64, 0
4, 52964, Note_on_c, 2, 73, 0
4, 52993, Note_on_c, 2, 52, 67
4, 52995, Note_on_c, 2, 64, 73
4, 52998, Note_on_c, 2, 71, 78
4, 52999, Note_on_c, 2, 73, 55
4, 53001, Note_on_c, 2, 68, 72
4, 53009, Control_c, 2, 64, 0
4, 53190, Control_c, 2, 64, 127
4, 53220, Note_on_c, 2, 52, 0
4, 53464, Note_on_c, 2, 73, 0
4, 53465, Note_on_c, 2, 71, 0
4, 53466, Note_on_c, 2, 64, 0
4, 53484, Note_on_c, 2, 68, 0
4, 53747, Note_on_c, 2, 50, 68
4, 53750, Note_on_c, 2, 66, 67
4, 53754, Note_on_c, 2, 64, 73
4, 53756, Note_on_c, 2, 69, 76
4, 53759, Note_on_c, 2, 73, 60
4, 53769, Control_c, 2, 64, 0
4, 53905, Control_c, 2, 64, 127
4, 54086, Note_on_c, 2, 50, 0
4, 54142, Note_on_c, 2, 50, 67
4, 54243, Note_on_c, 2, 64, 0
4, 54313, Note_on_c, 2, 69, 0
4, 54330, Note_on_c, 2, 66, 0
4, 54331, Note_on_c, 2, 73, 0
4, 54334, Note_on_c, 2, 50, 0
4, 54518, Control_c, 2, 64, 0
4, 54526, Note_on_c, 2, 64, 76
4, 54527, Note_on_c, 2, 68, 83
4, 54532, Note_on_c, 2, 52, 76
4, 54597, Control_c, 2, 64, 127
4, 54684, Note_on_c, 2, 64, 0
4, 54706, Note_on_c, 2, 52, 0
4, 54712, Note_on_c, 2, 68, 0
4, 54742, Note_on_c, 2, 64, 38
4, 54782, Note_on_c, 2, 64, 0
4, 54813, Note_on_c, 2, 69, 80
4, 54814, Note_on_c, 2, 66, 75
4, 54836, Control_c, 2, 64, 0
4, 54893, Control_c, 2, 64, 127
4, 55007, Note_on_c, 2, 69, 0
4, 55020, Note_on_c, 2, 66, 0
4, 55092, Note_on_c, 2, 64, 70
4, 55094, Note_on_c, 2, 68, 67
4, 55096, Note_on_c, 2, 71, 73
4, 55129, Note_on_c, 2, 68, 0
4, 55137, Note_on_c, 2, 64, 0
4, 55139, Note_on_c, 2, 71, 0
4, 55267, Control_c, 2, 64, 0
4, 55285, Note_on_c, 2, 57, 68
4, 55288, Note_on_c, 2, 73, 73
4, 55290, Note_on_c, 2, 64, 78
4, 55292, Note_on_c, 2, 69, 78
4, 55370, Control_c, 2, 64, 127
4, 55695, Note_on_c, 2, 73, 0
4, 55705, Note_on_c, 2, 69, 0
4, 55732, Note_on_c, 2, 64, 0
4, 55759, Note_on_c, 2, 57, 0
4, 55966, Note_on_c, 2, 76, 80
4, 55971, Note_on_c, 2, 64, 67
4, 56025, Note_on_c, 2, 64, 0
4, 56030, Note_on_c, 2, 76, 0
4, 56062, Note_on_c, 2, 68, 69
4, 56064, Note_on_c, 2, 64, 69
4, 56066, Note_on_c, 2, 57, 69
4, 56067, Note_on_c, 2, 71, 80
4, 56096, Control_c, 2, 64, 0
4, 56220, Control_c, 2, 64, 127
4, 56611, Note_on_c, 2, 71, 0
4, 56616, Note_on_c, 2, 68, 0
4, 56656, Note_on_c, 2, 57, 0
4, 56658, Note_on_c, 2, 64, 0
4, 56830, Note_on_c, 2, 73, 67
4, 56832, Note_on_c, 2, 64, 70
4, 56834, Note_on_c, 2, 69, 75
4, 56835, Note_on_c, 2, 57, 65
4, 56844, Control_c, 2, 64, 0
4, 56991, Control_c, 2, 64, 127
4, 57289, Note_on_c, 2, 69, 0
4, 57302, Note_on_c, 2, 73, 0
4, 57406, Note_on_c, 2, 64, 0
4, 57423, Note_on_c, 2, 57, 0
4, 57486, Note_on_c, 2, 76, 73
4, 57554, Note_on_c, 2, 76, 0
4, 57586, Note_on_c, 2, 68, 69
4, 57588, Note_on_c, 2, 71, 75
4, 57592, Note_on_c, 2, 56, 64
4, 57593, Note_on_c, 2, 64, 74
4, 57626, Control_c, 2, 64, 0
4, 57751, Control_c, 2, 64, 127
4, 57949, Note_on_c, 2, 56, 0
4, 57982, Note_on_c, 2, 71, 0
4, 58008, Note_on_c, 2, 68, 0
4, 58009, Note_on_c, 2, 64, 0
4, 58360, Note_on_c, 2, 66, 68
4, 58362, Note_on_c, 2, 54, 52
4, 58364, Note_on_c, 2, 64, 75
4, 58366, Note_on_c, 2, 69, 79
4, 58368, Control_c, 2, 64, 0
4, 58371, Note_on_c, 2, 73, 68
4, 58499, Control_c, 2, 64, 127
4, 58809, Note_on_c, 2, 64, 0
4, 58847, Note_on_c, 2, 69, 0
4, 58850, Note_on_c, 2, 73, 0
4, 58865, Note_on_c, 2, 54, 0
4, 58893, Note_on_c, 2, 66, 0
4, 58948, Note_on_c, 2, 54, 36
4, 59020, Note_on_c, 2, 54, 0
4, 59128, Note_on_c, 2, 68, 73
4, 59130, Note_on_c, 2, 64, 73
4, 59131, Note_on_c, 2, 73, 65
4, 59133, Note_on_c, 2, 52, 67
4, 59136, Control_c, 2, 64, 0
4, 59282, Control_c, 2, 64, 127
4, 59587, Note_on_c, 2, 52, 0
4, 59596, Note_on_c, 2, 64, 0
4, 59603, Note_on_c, 2, 73, 0
4, 59685, Note_on_c, 2, 68, 0
4, 59699, Note_on_c, 2, 52, 45
4, 59737, Note_on_c, 2, 52, 0
4, 59900, Note_on_c, 2, 66, 73
4, 59902, Note_on_c, 2, 64, 75
4, 59904, Note_on_c, 2, 50, 70
4, 59905, Note_on_c, 2, 69, 78
4, 59917, Control_c, 2, 64, 0
4, 60093, Note_on_c, 2, 57, 35
4, 60116, Note_on_c, 2, 64, 0
4, 60492, Note_on_c, 2, 69, 0
4, 60494, Note_on_c, 2, 57, 0
4, 60508, Note_on_c, 2, 66, 0
4, 60509, Note_on_c, 2, 50, 0
4, 60672, Note_on_c, 2, 40, 67
4, 60672, Note_on_c, 2, 52, 65
4, 60672, Note_on_c, 2, 54, 54
4, 60672, Note_on_c, 2, 56, 53
4, 60672, Note_on_c, 2, 59, 67
4, 60698, Control_c, 2, 64, 127
4, 60787, Note_on_c, 2, 52, 0
4, 60801, Note_on_c, 2, 59, 0
4, 60810, Note_on_c, 2, 56, 0
4, 60811, Note_on_c, 2, 54, 0
4, 60864, Note_on_c, 2, 52, 65
4, 60931, Note_on_c, 2, 52, 0
4, 60960, Note_on_c, 2, 54, 47
4, 61056, Note_on_c, 2, 56, 58
4, 61058, Note_on_c, 2, 54, 0
4, 61141, Note_on_c, 2, 56, 0
4, 61152, Note_on_c, 2, 59, 58
4, 61194, Note_on_c, 2, 59, 0
4, 61248, Note_on_c, 2, 64, 64
4, 61340, Note_on_c, 2, 64, 0
4, 61344, Note_on_c, 2, 66, 53
4, 61440, Note_on_c, 2, 71, 60
4, 61464, Note_on_c, 2, 66, 0
4, 61481, Note_on_c, 2, 71, 0
4, 61534, Note_on_c, 2, 40, 0
4, 62681, Control_c, 2, 64, 0
4, 62799, Control_c, 2, 64, 0
4, 63744, Note_on_c, 2, 59, 99
4, 63744, Note_on_c, 2, 66, 109
4, 63744, Note_on_c, 2, 71, 103
4, 63744, Note_on_c, 2, 75, 87
4, 63993, Control_c, 2, 64, 127
4, 64085, Note_on_c, 2, 59, 0
4, 64171, Note_on_c, 2, 71, 0
4, 64185, Note_on_c, 2, 75, 0
4, 64187, Note_on_c, 2, 66, 0
4, 64224, Note_on_c, 2, 59, 78
4, 64320, Note_on_c, 2, 66, 83
4, 64326, Note_on_c, 2, 59, 0
4, 64416, Note_on_c, 2, 75, 85
4, 64418, Note_on_c, 2, 66, 0
4, 64496, Note_on_c, 2, 75, 0
4, 64512, Note_on_c, 2, 56, 96
4, 64512, Note_on_c, 2, 66, 90
4, 64512, Note_on_c, 2, 68, 91
4, 64512, Note_on_c, 2, 71, 93
4, 64512, Note_on_c, 2, 75, 50
4, 64538, Control_c, 2, 64, 0
4, 64697, Control_c, 2, 64, 127
4, 64816, Note_on_c, 2, 71, 0
4, 64821, Note_on_c, 2, 66, 0
4, 64831, Note_on_c, 2, 68, 0
4, 64840, Note_on_c, 2, 75, 0
4, 64896, Note_on_c, 2, 66, 87
4, 65000, Note_on_c, 2, 66, 0
4, 65088, Note_on_c, 2, 66, 93
4, 65088, Note_on_c, 2, 68, 94
4, 65088, Note_on_c, 2, 71, 96
4, 65088, Note_on_c, 2, 75, 88
4, 65093, Note_on_c, 2, 56, 0
4, 65175, Note_on_c, 2, 71, 0
4, 65181, Note_on_c, 2, 68, 0
4, 65185, Note_on_c, 2, 66, 0
4, 65201, Note_on_c, 2, 75, 0
4, 65280, Note_on_c, 2, 64, 101
4, 65280, Note_on_c, 2, 68, 96
4, 65280, Note_on_c, 2, 71, 96
4, 65280, Note_on_c, 2, 75, 88
4, 65288, Control_c, 2, 64, 0
4, 65470, Control_c, 2, 64, 127
4, 65638, Note_on_c, 2, 64, 0
4, 65685, Note_on_c, 2, 71, 0
4, 65693, Note_on_c, 2, 68, 0
4, 65724, Note_on_c, 2, 75, 0
4, 65856, Note_on_c, 2, 64, 106
4, 65856, Note_on_c, 2, 68, 97
4, 65856, Note_on_c, 2, 71, 99
4, 65856, Note_on_c, 2, 75, 85
4, 65916, Note_on_c, 2, 64, 0
4, 65931, Note_on_c, 2, 68, 0
4, 65934, Note_on_c, 2, 71, 0
4, 65942, Note_on_c, 2, 75, 0
4, 66048, Note_on_c, 2, 54, 86
4, 66048, Note_on_c, 2, 66, 87
4, 66048, Note_on_c, 2, 68, 94
4, 66048, Note_on_c, 2, 73, 93
4, 66060, Control_c, 2, 64, 0
4, 66219, Control_c, 2, 64, 127
4, 66414, Note_on_c, 2, 54, 0
4, 66596, Note_on_c, 2, 68, 0
4, 66600, Note_on_c, 2, 73, 0
4, 66604, Note_on_c, 2, 66, 0
4, 66624, Note_on_c, 2, 54, 52
4, 66662, Note_on_c, 2, 54, 0
4, 66816, Note_on_c, 2, 59, 87
4, 66816, Note_on_c, 2, 66, 106
4, 66816, Note_on_c, 2, 71, 98
4, 66816, Note_on_c, 2, 75, 92
4, 66819, Control_c, 2, 64, 0
4, 67182, Control_c, 2, 64, 127
4, 67268, Note_on_c, 2, 59, 0
4, 67271, Note_on_c, 2, 75, 0
4, 67279, Note_on_c, 2, 71, 0
4, 67284, Note_on_c, 2, 66, 0
4, 67392, Note_on_c, 2, 59, 66
4, 67392, Note_on_c, 2, 66, 83
4, 67392, Note_on_c, 2, 71, 96
4, 67392, Note_on_c, 2, 75, 76
4, 67463, Note_on_c, 2, 59, 0
4, 67468, Note_on_c, 2, 71, 0
4, 67470, Note_on_c, 2, 75, 0
4, 67479, Note_on_c, 2, 66, 0
4, 67584, Note_on_c, 2, 56, 80
4, 67584, Note_on_c, 2, 66, 88
4, 67584, Note_on_c, 2, 68, 93
4, 67584, Note_on_c, 2, 71, 94
4, 67584, Note_on_c, 2, 75, 87
4, 67614, Control_c, 2, 64, 0
4, 67943, Control_c, 2, 64, 127
4, 68016, Note_on_c, 2, 71, 0
4, 68026, Note_on_c, 2, 68, 0
4, 68044, Note_on_c, 2, 75, 0
4, 68047, Note_on_c, 2, 66, 0
4, 68076, Note_on_c, 2, 56, 0
4, 68160, Note_on_c, 2, 66, 86
4, 68160, Note_on_c, 2, 68, 88
4, 68160, Note_on_c, 2, 71, 88
4, 68160, Note_on_c, 2, 75, 86
4, 68223, Note_on_c, 2, 71, 0
4, 68224, Note_on_c, 2, 68, 0
4, 68232, Note_on_c, 2, 66, 0
4, 68247, Note_on_c, 2, 75, 0
4, 68352, Note_on_c, 2, 64, 96
4, 68352, Note_on_c, 2, 68, 94
4, 68352, Note_on_c, 2, 71, 97
4, 68352, Note_on_c, 2, 75, 91
4, 68355, Control_c, 2, 64, 0
4, 68715, Control_c, 2, 64, 127
4, 68777, Note_on_c, 2, 71, 0
4, 68785, Note_on_c, 2, 64, 0
4, 68789, Note_on_c, 2, 68, 0
4, 68808, Note_on_c, 2, 75, 0
4, 68928, Note_on_c, 2, 64, 94
4, 68928, Note_on_c, 2, 68, 92
4, 68928, Note_on_c, 2, 71, 96
4, 68928, Note_on_c, 2, 75, 76
4, 68981, Note_on_c, 2, 64, 0
4, 68991, Note_on_c, 2, 68, 0
4, 69002, Note_on_c, 2, 71, 0
4, 69006, Note_on_c, 2, 75, 0
4, 69120, Note_on_c, 2, 66, 93
4, 69120, Note_on_c, 2, 70, 92
4, 69120, Note_on_c, 2, 73, 93
4, 69127, Control_c, 2, 64, 0
4, 69272, Control_c, 2, 64, 127
4, 69538, Note_on_c, 2, 66, 0
4, 69541, Note_on_c, 2, 73, 0
4, 69555, Note_on_c, 2, 70, 0
4, 69888, Note_on_c, 2, 59, 91
4, 69888, Note_on_c, 2, 66, 97
4, 69888, Note_on_c, 2, 71, 97
4, 69888, Note_on_c, 2, 75, 88
4, 69897, Control_c, 2, 64, 0
4, 70110, Control_c, 2, 64, 127
4, 70303, Note_on_c, 2, 71, 0
4, 70305, Note_on_c, 2, 75, 0
4, 70318, Note_on_c, 2, 66, 0
4, 70321, Note_on_c, 2, 59, 0
4, 70464, Note_on_c, 2, 59, 72
4, 70464, Note_on_c, 2, 66, 76
4, 70464, Note_on_c, 2, 71, 90
4, 70464, Note_on_c, 2, 75, 75
4, 70517, Note_on_c, 2, 71, 0
4, 70522, Note_on_c, 2, 75, 0
4, 70522, Note_on_c, 2, 66, 0
4, 70527, Note_on_c, 2, 59, 0
4, 70656, Note_on_c, 2, 56, 93
4, 70656, Note_on_c, 2, 66, 88
4, 70656, Note_on_c, 2, 68, 94
4, 70656, Note_on_c, 2, 71, 96
4, 70656, Note_on_c, 2, 75, 86
4, 70660, Control_c, 2, 64, 0
4, 71029, Control_c, 2, 64, 127
4, 71105, Note_on_c, 2, 71, 0
4, 71114, Note_on_c, 2, 68, 0
4, 71118, Note_on_c, 2, 75, 0
4, 71134, Note_on_c, 2, 66, 0
4, 71223, Note_on_c, 2, 56, 0
4, 71232, Note_on_c, 2, 66, 86
4, 71232, Note_on_c, 2, 68, 91
4, 71232, Note_on_c, 2, 71, 87
4, 71232, Note_on_c, 2, 75, 81
4, 71300, Note_on_c, 2, 71, 0
4, 71304, Note_on_c, 2, 66, 0
4, 71304, Note_on_c, 2, 68, 0
4, 71307, Note_on_c, 2, 75, 0
4, 71416, Control_c, 2, 64, 0
4, 71424, Note_on_c, 2, 64, 97
4, 71424, Note_on_c, 2, 68, 97
4, 71424, Note_on_c, 2, 71, 96
4, 71424, Note_on_c, 2, 75, 88
4, 71436, Note_on_c, 2, 52, 81
4, 71790, Control_c, 2, 64, 127
4, 71828, Note_on_c, 2, 71, 0
4, 71838, Note_on_c, 2, 64, 0
4, 71842, Note_on_c, 2, 68, 0
4, 71861, Note_on_c, 2, 75, 0
4, 71900, Note_on_c, 2, 52, 0
4, 72000, Note_on_c, 2, 64, 93
4, 72000, Note_on_c, 2, 68, 92
4, 72000, Note_on_c, 2, 71, 88
4, 72000, Note_on_c, 2, 75, 77
4, 72047, Note_on_c, 2, 64, 0
4, 72059, Note_on_c, 2, 71, 0
4, 72061, Note_on_c, 2, 68, 0
4, 72075, Note_on_c, 2, 75, 0
4, 72192, Note_on_c, 2, 54, 82
4, 72192, Note_on_c, 2, 66, 97
4, 72192, Note_on_c, 2, 70, 92
4, 72192, Note_on_c, 2, 73, 96
4, 72211, Control_c, 2, 64, 0
4, 72347, Control_c, 2, 64, 127
4, 72553, Note_on_c, 2, 54, 0
4, 72690, Note_on_c, 2, 73, 0
4, 72701, Note_on_c, 2, 70, 0
4, 72718, Note_on_c, 2, 66, 0
4, 72768, Note_on_c, 2, 54, 77
4, 72948, Note_on_c, 2, 54, 0
4, 72960, Note_on_c, 2, 59, 87
4, 72960, Note_on_c, 2, 66, 109
4, 72960, Note_on_c, 2, 71, 97
4, 72960, Note_on_c, 2, 75, 85
4, 72964, Control_c, 2, 64, 0
4, 73107, Control_c, 2, 64, 127
4, 73396, Note_on_c, 2, 75, 0
4, 73405, Note_on_c, 2, 71, 0
4, 73410, Note_on_c, 2, 59, 0
4, 73418, Note_on_c, 2, 66, 0
4, 73536, Note_on_c, 2, 59, 82
4, 73536, Note_on_c, 2, 66, 86
4, 73536, Note_on_c, 2, 71, 92
4, 73536, Note_on_c, 2, 75, 76
4, 73603, Note_on_c, 2, 71, 0
4, 73625, Note_on_c, 2, 66, 0
4, 73638, Note_on_c, 2, 75, 0
4, 73645, Note_on_c, 2, 59, 0
4, 73720, Control_c, 2, 64, 0
4, 73728, Note_on_c, 2, 56, 93
4, 73728, Note_on_c, 2, 66, 93
4, 73728, Note_on_c, 2, 68, 94
4, 73728, Note_on_c, 2, 71, 94
4, 73728, Note_on_c, 2, 75, 86
4, 73901, Control_c, 2, 64, 127
4, 74160, Note_on_c, 2, 71, 0
4, 74168, Note_on_c, 2, 68, 0
4, 74176, Note_on_c, 2, 75, 0
4, 74180, Note_on_c, 2, 66, 0
4, 74201, Note_on_c, 2, 56, 0
4, 74304, Note_on_c, 2, 56, 76
4, 74304, Note_on_c, 2, 66, 61
4, 74304, Note_on_c, 2, 68, 68
4, 74304, Note_on_c, 2, 71, 70
4, 74304, Note_on_c, 2, 75, 52
4, 74330, Note_on_c, 2, 68, 0
4, 74331, Note_on_c, 2, 71, 0
4, 74334, Note_on_c, 2, 75, 0
4, 74338, Note_on_c, 2, 56, 0
4, 74342, Note_on_c, 2, 66, 0
4, 74496, Note_on_c, 2, 61, 91
4, 74496, Note_on_c, 2, 68, 101
4, 74496, Note_on_c, 2, 73, 96
4, 74496, Note_on_c, 2, 76, 99
4, 74515, Control_c, 2, 64, 0
4, 74617, Control_c, 2, 64, 127
4, 74707, Note_on_c, 2, 73, 0
4, 74716, Note_on_c, 2, 76, 0
4, 74725, Note_on_c, 2, 68, 0
4, 74732, Note_on_c, 2, 61, 0
4, 74880, Note_on_c, 2, 68, 98
4, 74880, Note_on_c, 2, 71, 109
4, 74880, Note_on_c, 2, 75, 94
4, 74935, Control_c, 2, 64, 0
4, 75026, Control_c, 2, 64, 127
4, 75109, Note_on_c, 2, 71, 0
4, 75116, Note_on_c, 2, 75, 0
4, 75120, Note_on_c, 2, 68, 0
4, 75264, Note_on_c, 2, 68, 99
4, 75264, Note_on_c, 2, 73, 99
4, 75264, Note_on_c, 2, 76, 98
4, 75298, Control_c, 2, 64, 0
4, 75389, Control_c, 2, 64, 127
4, 75411, Note_on_c, 2, 76, 0
4, 75422, Note_on_c, 2, 68, 0
4, 75425, Note_on_c, 2, 73, 0
4, 75648, Note_on_c, 2, 68, 96
4, 75648, Note_on_c, 2, 70, 93
4, 75648, Note_on_c, 2, 73, 96
4, 75648, Note_on_c, 2, 78, 96
4, 75673, Control_c, 2, 64, 0
4, 75836, Note_on_c, 2, 73, 0
4, 75839, Note_on_c, 2, 78, 0
4, 75848, Note_on_c, 2, 70, 0
4, 75854, Note_on_c, 2, 68, 0
4, 76032, Note_on_c, 2, 59, 98
4, 76032, Note_on_c, 2, 66, 103
4, 76032, Note_on_c, 2, 71, 98
4, 76032, Note_on_c, 2, 75, 90
4, 76749, Note_on_c, 2, 66, 0
4, 76761, Note_on_c, 2, 71, 0
4, 76772, Note_on_c, 2, 59, 0
4, 76800, Note_on_c, 2, 56, 83
4, 76800, Note_on_c, 2, 66, 92
4, 76800, Note_on_c, 2, 68, 85
4, 76800, Note_on_c, 2, 71, 87
4, 77508, Note_on_c, 2, 66, 0
4, 77530, Note_on_c, 2, 71, 0
4, 77531, Note_on_c, 2, 75, 0
4, 77539, Note_on_c, 2, 68, 0
4, 77547, Note_on_c, 2, 56, 0
4, 77568, Note_on_c, 2, 52, 86
4, 77568, Note_on_c, 2, 64, 106
4, 77568, Note_on_c, 2, 68, 93
4, 77568, Note_on_c, 2, 71, 94
4, 77568, Note_on_c, 2, 75, 91
4, 78265, Note_on_c, 2, 64, 0
4, 78282, Note_on_c, 2, 71, 0
4, 78303, Note_on_c, 2, 68, 0
4, 78319, Note_on_c, 2, 52, 0
4, 78336, Note_on_c, 2, 54, 77
4, 78336, Note_on_c, 2, 66, 85
4, 78336, Note_on_c, 2, 70, 96
4, 78355, Note_on_c, 2, 75, 0
4, 78528, Note_on_c, 2, 68, 88
4, 78528, Note_on_c, 2, 71, 75
4, 78556, Note_on_c, 2, 70, 0
4, 78640, Note_on_c, 2, 66, 0
4, 78695, Note_on_c, 2, 71, 0
4, 78720, Note_on_c, 2, 70, 82
4, 78720, Note_on_c, 2, 73, 91
4, 78775, Note_on_c, 2, 68, 0
4, 78912, Note_on_c, 2, 66, 85
4, 78950, Note_on_c, 2, 70, 0
4, 78967, Note_on_c, 2, 73, 0
4, 79104, Note_on_c, 2, 59, 87
4, 79104, Note_on_c, 2, 71, 96
4, 79104, Note_on_c, 2, 75, 83
4, 79117, Note_on_c, 2, 54, 0
4, 79808, Note_on_c, 2, 71, 0
4, 79812, Note_on_c, 2, 66, 0
4, 79823, Note_on_c, 2, 75, 0
4, 79827, Note_on_c, 2, 59, 0
4, 79872, Note_on_c, 2, 56, 90
4, 79872, Note_on_c, 2, 66, 82
4, 79872, Note_on_c, 2, 68, 85
4, 79872, Note_on_c, 2, 71, 90
4, 79872, Note_on_c, 2, 75, 85
4, 80554, Note_on_c, 2, 71, 0
4, 80554, Note_on_c, 2, 66, 0
4, 80582, Note_on_c, 2, 68, 0
4, 80608, Note_on_c, 2, 75, 0
4, 80610, Note_on_c, 2, 56, 0
4, 80640, Note_on_c, 2, 52, 87
4, 80640, Note_on_c, 2, 64, 94
4, 80640, Note_on_c, 2, 68, 92
4, 80640, Note_on_c, 2, 71, 94
4, 80640, Note_on_c, 2, 75, 85
4, 81295, Note_on_c, 2, 64, 0
4, 81302, Note_on_c, 2, 71, 0
4, 81352, Note_on_c, 2, 75, 0
4, 81354, Note_on_c, 2, 68, 0
4, 81370, Note_on_c, 2, 52, 0
4, 81408, Note_on_c, 2, 54, 71
4, 81408, Note_on_c, 2, 66, 80
4, 81408, Note_on_c, 2, 70, 82
4, 81684, Note_on_c, 2, 70, 0
4, 81696, Note_on_c, 2, 56, 76
4, 81696, Note_on_c, 2, 68, 92
4, 81696, Note_on_c, 2, 71, 86
4, 81707, Note_on_c, 2, 66, 0
4, 81712, Note_on_c, 2, 54, 0
4, 81945, Note_on_c, 2, 71, 0
4, 81961, Note_on_c, 2, 68, 0
4, 81969, Note_on_c, 2, 56, 0
4, 81984, Note_on_c, 2, 54, 75
4, 81984, Note_on_c, 2, 66, 75
4, 81984, Note_on_c, 2, 70, 76
4, 81984, Note_on_c, 2, 73, 81
4, 83382, Note_on_c, 2, 54, 0
4, 83403, Note_on_c, 2, 70, 0
4, 83406, Note_on_c, 2, 73, 0
4, 83408, Note_on_c, 2, 66, 0
4, 85230, Control_c, 2, 64, 127
4, 85236, Note_on_c, 2, 75, 83
4, 85238, Note_on_c, 2, 66, 87
4, 85331, Note_on_c, 2, 66, 0
4, 85341, Note_on_c, 2, 75, 0
4, 85429, Note_on_c, 2, 73, 81
4, 85442, Note_on_c, 2, 66, 53
4, 85465, Note_on_c, 2, 66, 0
4, 85493, Note_on_c, 2, 73, 0
4, 85514, Note_on_c, 2, 71, 85
4, 85594, Note_on_c, 2, 71, 0
4, 85616, Note_on_c, 2, 70, 73
4, 85708, Note_on_c, 2, 70, 0
4, 85714, Note_on_c, 2, 71, 75
4, 85805, Note_on_c, 2, 71, 0
4, 85824, Note_on_c, 2, 66, 85
4, 85860, Note_on_c, 2, 66, 0
4, 85959, Note_on_c, 2, 64, 61
4, 85991, Control_c, 2, 64, 0
4, 85995, Note_on_c, 2, 66, 85
4, 86002, Note_on_c, 2, 71, 83
4, 86004, Note_on_c, 2, 40, 86
4, 86032, Note_on_c, 2, 68, 86
4, 86067, Note_on_c, 2, 66, 0
4, 86073, Control_c, 2, 64, 127
4, 86213, Note_on_c, 2, 47, 75
4, 86233, Note_on_c, 2, 40, 0
4, 86401, Note_on_c, 2, 54, 83
4, 86411, Note_on_c, 2, 47, 0
4, 86523, Note_on_c, 2, 54, 0
4, 86585, Note_on_c, 2, 56, 88
4, 86585, Note_on_c, 2, 64, 0
4, 86594, Note_on_c, 2, 68, 0
4, 86594, Note_on_c, 2, 71, 0
4, 86783, Note_on_c, 2, 75, 87
4, 86785, Note_on_c, 2, 66, 85
4, 86854, Note_on_c, 2, 66, 0
4, 86897, Note_on_c, 2, 75, 0
4, 86940, Note_on_c, 2, 56, 0
4, 86976, Note_on_c, 2, 73, 86
4, 87056, Note_on_c, 2, 73, 0
4, 87070, Note_on_c, 2, 71, 71
4, 87154, Note_on_c, 2, 71, 0
4, 87163, Note_on_c, 2, 70, 67
4, 87248, Note_on_c, 2, 70, 0
4, 87257, Note_on_c, 2, 71, 62
4, 87361, Note_on_c, 2, 66, 75
4, 87363, Note_on_c, 2, 71, 0
4, 87393, Note_on_c, 2, 66, 0
4, 87542, Note_on_c, 2, 66, 83
4, 87545, Note_on_c, 2, 51, 76
4, 87546, Note_on_c, 2, 61, 83
4, 87548, Note_on_c, 2, 63, 83
4, 87557, Control_c, 2, 64, 0
4, 87627, Control_c, 2, 64, 127
4, 87659, Note_on_c, 2, 51, 0
4, 87742, Note_on_c, 2, 51, 52
4, 87757, Note_on_c, 2, 61, 0
4, 87759, Note_on_c, 2, 63, 0
4, 87766, Note_on_c, 2, 66, 0
4, 87811, Note_on_c, 2, 51, 0
4, 87938, Note_on_c, 2, 58, 71
4, 88060, Note_on_c, 2, 58, 0
4, 88130, Note_on_c, 2, 59, 86
4, 88313, Note_on_c, 2, 75, 85
4, 88316, Note_on_c, 2, 66, 78
4, 88360, Note_on_c, 2, 59, 0
4, 88408, Note_on_c, 2, 75, 0
4, 88418, Note_on_c, 2, 66, 0
4, 88513, Note_on_c, 2, 73, 82
4, 88580, Note_on_c, 2, 73, 0
4, 88599, Note_on_c, 2, 71, 73
4, 88692, Note_on_c, 2, 71, 0
4, 88701, Note_on_c, 2, 70, 57
4, 88800, Note_on_c, 2, 71, 78
4, 88802, Note_on_c, 2, 70, 0
4, 88909, Note_on_c, 2, 71, 0
4, 89084, Note_on_c, 2, 56, 68
4, 89094, Note_on_c, 2, 42, 75
4, 89104, Note_on_c, 2, 59, 76
4, 89133, Note_on_c, 2, 64, 94
4, 89146, Control_c, 2, 64, 0
4, 89286, Control_c, 2, 64, 127
4, 89508, Note_on_c, 2, 42, 0
4, 89538, Note_on_c, 2, 59, 0
4, 89547, Note_on_c, 2, 56, 0
4, 89548, Note_on_c, 2, 64, 0
4, 89742, Control_c, 2, 64, 0
4, 89757, Note_on_c, 2, 42, 44
4, 89814, Control_c, 2, 64, 127
4, 89818, Note_on_c, 2, 49, 76
4, 89843, Note_on_c, 2, 58, 72
4, 89846, Note_on_c, 2, 54, 80
4, 89876, Note_on_c, 2, 61, 78
4, 89938, Note_on_c, 2, 66, 81
4, 90242, Note_on_c, 2, 66, 0
4, 90242, Note_on_c, 2, 49, 0
4, 90243, Note_on_c, 2, 58, 0
4, 90244, Note_on_c, 2, 61, 0
4, 90245, Note_on_c, 2, 42, 0
4, 90246, Note_on_c, 2, 54, 0
4, 91736, Control_c, 2, 64, 0
4, 91806, Control_c, 2, 64, 127
4, 92042, Control_c, 2, 64, 0
4, 92044, Note_on_c, 2, 35, 77
4, 92094, Note_on_c, 2, 42, 65
4, 92102, Note_on_c, 2, 59, 78
4, 92122, Note_on_c, 2, 47, 82
4, 92135, Note_on_c, 2, 61, 76
4, 92185, Note_on_c, 2, 63, 66
4, 92194, Control_c, 2, 64, 127
4, 92197, Note_on_c, 2, 42, 0
4, 92202, Note_on_c, 2, 66, 77
4, 92449, Note_on_c, 2, 63, 0
4, 92450, Note_on_c, 2, 47, 0
4, 92450, Note_on_c, 2, 66, 0
4, 92452, Note_on_c, 2, 35, 0
4, 92454, Note_on_c, 2, 59, 0
4, 92455, Note_on_c, 2, 61, 0
4, 95283, Control_c, 2, 64, 0
4, 95283, End_track
5, 0, Start_track
5, 0, MIDI_port, 0
5, 0, Title_t, "REVERSE CY"
5, 192, Control_c, 3, 91, 127
5, 192, Control_c, 3, 7, 127
5, 192, Program_c, 3, 119
5, 9202, Note_on_c, 3, 47, 61
5, 10105, Note_on_c, 3, 47, 0
5, 10105, End_track
6, 0, Start_track
6, 0, MIDI_port, 0
6, 0, Title_t, "BASSO"
6, 192, Control_c, 4, 91, 75
6, 192, Control_c, 4, 7, 110
6, 192, Program_c, 4, 33
6, 10752, Note_on_c, 4, 26, 97
6, 11995, Note_on_c, 4, 26, 0
6, 12000, Note_on_c, 4, 33, 77
6, 12096, Note_on_c, 4, 38, 88
6, 12108, Note_on_c, 4, 33, 0
6, 12192, Note_on_c, 4, 40, 83
6, 12205, Note_on_c, 4, 38, 0
6, 12288, Note_on_c, 4, 37, 88
6, 12293, Note_on_c, 4, 40, 0
6, 13809, Note_on_c, 4, 37, 0
6, 13824, Note_on_c, 4, 23, 103
6, 15328, Note_on_c, 4, 23, 0
6, 15360, Note_on_c, 4, 33, 103
6, 15866, Note_on_c, 4, 33, 0
6, 15936, Note_on_c, 4, 33, 93
6, 15981, Note_on_c, 4, 33, 0
6, 16128, Note_on_c, 4, 33, 98
6, 16833, Note_on_c, 4, 33, 0
6, 16896, Note_on_c, 4, 33, 97
6, 17419, Note_on_c, 4, 33, 0
6, 17472, Note_on_c, 4, 33, 106
6, 17500, Note_on_c, 4, 33, 0
6, 17664, Note_on_c, 4, 33, 101
6, 18048, Note_on_c, 4, 32, 96
6, 18062, Note_on_c, 4, 33, 0
6, 18421, Note_on_c, 4, 32, 0
6, 18432, Note_on_c, 4, 30, 93
6, 18872, Note_on_c, 4, 30, 0
6, 19008, Note_on_c, 4, 30, 101
6, 19200, Note_on_c, 4, 28, 94
6, 19229, Note_on_c, 4, 30, 0
6, 19965, Note_on_c, 4, 28, 0
6, 19968, Note_on_c, 4, 26, 91
6, 20444, Note_on_c, 4, 26, 0
6, 20544, Note_on_c, 4, 26, 91
6, 20726, Note_on_c, 4, 26, 0
6, 20736, Note_on_c, 4, 28, 96
6, 21207, Note_on_c, 4, 28, 0
6, 21312, Note_on_c, 4, 28, 92
6, 21408, Note_on_c, 4, 30, 60
6, 21416, Note_on_c, 4, 28, 0
6, 21487, Note_on_c, 4, 30, 0
6, 21504, Note_on_c, 4, 33, 97
6, 21998, Note_on_c, 4, 33, 0
6, 22080, Note_on_c, 4, 33, 92
6, 22116, Note_on_c, 4, 33, 0
6, 22272, Note_on_c, 4, 33, 94
6, 22837, Note_on_c, 4, 33, 0
6, 22848, Note_on_c, 4, 28, 92
6, 22944, Note_on_c, 4, 30, 86
6, 22966, Note_on_c, 4, 28, 0
6, 23040, Note_on_c, 4, 33, 91
6, 23045, Note_on_c, 4, 30, 0
6, 23494, Note_on_c, 4, 33, 0
6, 23616, Note_on_c, 4, 33, 91
6, 23654, Note_on_c, 4, 33, 0
6, 23808, Note_on_c, 4, 33, 97
6, 24192, Note_on_c, 4, 32, 98
6, 24204, Note_on_c, 4, 33, 0
6, 24576, Note_on_c, 4, 30, 98
6, 24605, Note_on_c, 4, 32, 0
6, 25043, Note_on_c, 4, 30, 0
6, 25152, Note_on_c, 4, 30, 103
6, 25342, Note_on_c, 4, 30, 0
6, 25344, Note_on_c, 4, 28, 92
6, 25883, Note_on_c, 4, 28, 0
6, 25920, Note_on_c, 4, 28, 88
6, 26112, Note_on_c, 4, 26, 88
6, 26117, Note_on_c, 4, 28, 0
6, 26562, Note_on_c, 4, 26, 0
6, 26688, Note_on_c, 4, 26, 94
6, 26880, Note_on_c, 4, 28, 103
6, 26891, Note_on_c, 4, 26, 0
6, 27339, Note_on_c, 4, 28, 0
6, 27648, Note_on_c, 4, 33, 103
6, 28190, Note_on_c, 4, 33, 0
6, 28224, Note_on_c, 4, 32, 99
6, 28384, Note_on_c, 4, 32, 0
6, 28416, Note_on_c, 4, 30, 98
6, 28992, Note_on_c, 4, 28, 106
6, 28995, Note_on_c, 4, 30, 0
6, 29105, Note_on_c, 4, 28, 0
6, 29184, Note_on_c, 4, 26, 106
6, 29701, Note_on_c, 4, 26, 0
6, 29760, Note_on_c, 4, 26, 96
6, 29821, Note_on_c, 4, 26, 0
6, 29952, Note_on_c, 4, 28, 98
6, 30414, Note_on_c, 4, 28, 0
6, 30528, Note_on_c, 4, 28, 99
6, 30618, Note_on_c, 4, 28, 0
6, 30624, Note_on_c, 4, 30, 97
6, 30709, Note_on_c, 4, 30, 0
6, 30720, Note_on_c, 4, 33, 98
6, 31296, Note_on_c, 4, 32, 96
6, 31300, Note_on_c, 4, 33, 0
6, 31456, Note_on_c, 4, 32, 0
6, 31488, Note_on_c, 4, 30, 85
6, 32059, Note_on_c, 4, 30, 0
6, 32064, Note_on_c, 4, 28, 97
6, 32254, Note_on_c, 4, 28, 0
6, 32256, Note_on_c, 4, 26, 93
6, 32738, Note_on_c, 4, 26, 0
6, 32832, Note_on_c, 4, 26, 98
6, 33024, Note_on_c, 4, 28, 99
6, 33030, Note_on_c, 4, 26, 0
6, 33482, Note_on_c, 4, 28, 0
6, 33600, Note_on_c, 4, 28, 96
6, 33675, Note_on_c, 4, 28, 0
6, 33696, Note_on_c, 4, 30, 94
6, 33776, Note_on_c, 4, 30, 0
6, 33792, Note_on_c, 4, 33, 96
6, 34272, Note_on_c, 4, 33, 0
6, 34368, Note_on_c, 4, 33, 94
6, 34403, Note_on_c, 4, 33, 0
6, 34560, Note_on_c, 4, 33, 93
6, 35120, Note_on_c, 4, 33, 0
6, 35136, Note_on_c, 4, 28, 90
6, 35217, Note_on_c, 4, 28, 0
6, 35232, Note_on_c, 4, 30, 85
6, 35328, Note_on_c, 4, 33, 97
6, 35331, Note_on_c, 4, 30, 0
6, 35838, Note_on_c, 4, 33, 0
6, 35904, Note_on_c, 4, 33, 85
6, 36080, Note_on_c, 4, 33, 0
6, 36096, Note_on_c, 4, 28, 101
6, 36864, Note_on_c, 4, 33, 98
6, 36880, Note_on_c, 4, 28, 0
6, 37269, Note_on_c, 4, 33, 0
6, 37440, Note_on_c, 4, 33, 96
6, 37483, Note_on_c, 4, 33, 0
6, 37632, Note_on_c, 4, 33, 97
6, 38095, Note_on_c, 4, 33, 0
6, 38208, Note_on_c, 4, 28, 103
6, 38287, Note_on_c, 4, 28, 0
6, 38304, Note_on_c, 4, 30, 97
6, 38390, Note_on_c, 4, 30, 0
6, 38400, Note_on_c, 4, 33, 98
6, 38837, Note_on_c, 4, 33, 0
6, 38976, Note_on_c, 4, 33, 94
6, 39021, Note_on_c, 4, 33, 0
6, 39168, Note_on_c, 4, 33, 96
6, 39552, Note_on_c, 4, 32, 97
6, 39558, Note_on_c, 4, 33, 0
6, 39936, Note_on_c, 4, 30, 109
6, 39957, Note_on_c, 4, 32, 0
6, 40370, Note_on_c, 4, 30, 0
6, 40512, Note_on_c, 4, 30, 103
6, 40697, Note_on_c, 4, 30, 0
6, 40704, Note_on_c, 4, 28, 106
6, 41184, Note_on_c, 4, 28, 0
6, 41280, Note_on_c, 4, 28, 99
6, 41440, Note_on_c, 4, 28, 0
6, 41472, Note_on_c, 4, 26, 98
6, 41915, Note_on_c, 4, 26, 0
6, 42048, Note_on_c, 4, 26, 97
6, 42221, Note_on_c, 4, 26, 0
6, 42240, Note_on_c, 4, 28, 101
6, 42697, Note_on_c, 4, 28, 0
6, 42816, Note_on_c, 4, 28, 99
6, 42903, Note_on_c, 4, 28, 0
6, 42912, Note_on_c, 4, 30, 91
6, 42993, Note_on_c, 4, 30, 0
6, 43008, Note_on_c, 4, 33, 97
6, 43439, Note_on_c, 4, 33, 0
6, 43584, Note_on_c, 4, 33, 88
6, 43629, Note_on_c, 4, 33, 0
6, 43776, Note_on_c, 4, 33, 94
6, 44210, Note_on_c, 4, 33, 0
6, 44352, Note_on_c, 4, 28, 99
6, 44407, Note_on_c, 4, 28, 0
6, 44448, Note_on_c, 4, 30, 96
6, 44517, Note_on_c, 4, 30, 0
6, 44544, Note_on_c, 4, 33, 98
6, 45001, Note_on_c, 4, 33, 0
6, 45120, Note_on_c, 4, 35, 98
6, 45216, Note_on_c, 4, 36, 85
6, 45228, Note_on_c, 4, 35, 0
6, 45312, Note_on_c, 4, 37, 97
6, 45317, Note_on_c, 4, 36, 0
6, 45584, Note_on_c, 4, 37, 0
6, 45600, Note_on_c, 4, 32, 80
6, 45696, Note_on_c, 4, 25, 106
6, 45712, Note_on_c, 4, 32, 0
6, 46069, Note_on_c, 4, 25, 0
6, 46080, Note_on_c, 4, 30, 96
6, 46505, Note_on_c, 4, 30, 0
6, 46656, Note_on_c, 4, 30, 109
6, 46841, Note_on_c, 4, 30, 0
6, 46848, Note_on_c, 4, 28, 106
6, 47285, Note_on_c, 4, 28, 0
6, 47424, Note_on_c, 4, 28, 98
6, 47616, Note_on_c, 4, 26, 98
6, 47617, Note_on_c, 4, 28, 0
6, 48064, Note_on_c, 4, 26, 0
6, 48192, Note_on_c, 4, 26, 98
6, 48370, Note_on_c, 4, 26, 0
6, 48384, Note_on_c, 4, 28, 97
6, 48808, Note_on_c, 4, 28, 0
6, 48960, Note_on_c, 4, 28, 94
6, 49046, Note_on_c, 4, 28, 0
6, 49056, Note_on_c, 4, 30, 99
6, 49146, Note_on_c, 4, 30, 0
6, 49152, Note_on_c, 4, 33, 97
6, 49628, Note_on_c, 4, 33, 0
6, 49728, Note_on_c, 4, 33, 98
6, 49779, Note_on_c, 4, 33, 0
6, 49920, Note_on_c, 4, 33, 109
6, 50480, Note_on_c, 4, 33, 0
6, 50496, Note_on_c, 4, 28, 92
6, 50592, Note_on_c, 4, 30, 88
6, 50616, Note_on_c, 4, 28, 0
6, 50688, Note_on_c, 4, 33, 97
6, 50707, Note_on_c, 4, 30, 0
6, 51126, Note_on_c, 4, 33, 0
6, 51264, Note_on_c, 4, 33, 92
6, 51320, Note_on_c, 4, 33, 0
6, 51456, Note_on_c, 4, 33, 94
6, 51840, Note_on_c, 4, 32, 109
6, 51863, Note_on_c, 4, 33, 0
6, 52224, Note_on_c, 4, 30, 98
6, 52243, Note_on_c, 4, 32, 0
6, 52686, Note_on_c, 4, 30, 0
6, 52800, Note_on_c, 4, 30, 114
6, 52984, Note_on_c, 4, 30, 0
6, 52992, Note_on_c, 4, 28, 96
6, 53503, Note_on_c, 4, 28, 0
6, 53568, Note_on_c, 4, 28, 88
6, 53760, Note_on_c, 4, 26, 94
6, 53761, Note_on_c, 4, 28, 0
6, 54223, Note_on_c, 4, 26, 0
6, 54336, Note_on_c, 4, 26, 94
6, 54527, Note_on_c, 4, 26, 0
6, 54528, Note_on_c, 4, 28, 97
6, 55044, Note_on_c, 4, 28, 0
6, 55104, Note_on_c, 4, 28, 96
6, 55200, Note_on_c, 4, 30, 81
6, 55221, Note_on_c, 4, 28, 0
6, 55286, Note_on_c, 4, 30, 0
6, 55296, Note_on_c, 4, 33, 91
6, 55793, Note_on_c, 4, 33, 0
6, 55872, Note_on_c, 4, 33, 94
6, 55914, Note_on_c, 4, 33, 0
6, 56064, Note_on_c, 4, 33, 91
6, 56498, Note_on_c, 4, 33, 0
6, 56544, Note_on_c, 4, 33, 96
6, 56633, Note_on_c, 4, 33, 0
6, 56640, Note_on_c, 4, 28, 87
6, 56736, Note_on_c, 4, 30, 64
6, 56747, Note_on_c, 4, 28, 0
6, 56832, Note_on_c, 4, 33, 93
6, 56854, Note_on_c, 4, 30, 0
6, 57380, Note_on_c, 4, 33, 0
6, 57408, Note_on_c, 4, 35, 86
6, 57504, Note_on_c, 4, 36, 85
6, 57525, Note_on_c, 4, 35, 0
6, 57600, Note_on_c, 4, 37, 94
6, 57608, Note_on_c, 4, 36, 0
6, 57888, Note_on_c, 4, 32, 78
6, 57900, Note_on_c, 4, 37, 0
6, 57984, Note_on_c, 4, 25, 94
6, 58009, Note_on_c, 4, 32, 0
6, 58368, Note_on_c, 4, 30, 97
6, 58370, Note_on_c, 4, 25, 0
6, 58822, Note_on_c, 4, 30, 0
6, 58944, Note_on_c, 4, 30, 98
6, 59136, Note_on_c, 4, 28, 98
6, 59137, Note_on_c, 4, 30, 0
6, 59651, Note_on_c, 4, 28, 0
6, 59712, Note_on_c, 4, 28, 92
6, 59897, Note_on_c, 4, 28, 0
6, 59904, Note_on_c, 4, 26, 94
6, 60672, Note_on_c, 4, 28, 97
6, 60672, Note_on_c, 4, 26, 0
6, 62742, Note_on_c, 4, 28, 0
6, 63744, Note_on_c, 4, 35, 98
6, 64320, Note_on_c, 4, 34, 82
6, 64335, Note_on_c, 4, 35, 0
6, 64512, Note_on_c, 4, 32, 94
6, 64538, Note_on_c, 4, 34, 0
6, 65083, Note_on_c, 4, 32, 0
6, 65088, Note_on_c, 4, 30, 96
6, 65278, Note_on_c, 4, 30, 0
6, 65280, Note_on_c, 4, 28, 97
6, 65802, Note_on_c, 4, 28, 0
6, 65856, Note_on_c, 4, 28, 93
6, 66048, Note_on_c, 4, 30, 96
6, 66049, Note_on_c, 4, 28, 0
6, 66571, Note_on_c, 4, 30, 0
6, 66624, Note_on_c, 4, 30, 96
6, 66720, Note_on_c, 4, 32, 73
6, 66744, Note_on_c, 4, 30, 0
6, 66816, Note_on_c, 4, 35, 94
6, 66818, Note_on_c, 4, 32, 0
6, 67363, Note_on_c, 4, 35, 0
6, 67392, Note_on_c, 4, 34, 85
6, 67584, Note_on_c, 4, 32, 94
6, 67586, Note_on_c, 4, 34, 0
6, 68160, Note_on_c, 4, 30, 98
6, 68160, Note_on_c, 4, 32, 0
6, 68335, Note_on_c, 4, 30, 0
6, 68352, Note_on_c, 4, 25, 91
6, 68866, Note_on_c, 4, 25, 0
6, 68928, Note_on_c, 4, 25, 101
6, 69115, Note_on_c, 4, 25, 0
6, 69120, Note_on_c, 4, 30, 106
6, 69640, Note_on_c, 4, 30, 0
6, 69696, Note_on_c, 4, 30, 94
6, 69792, Note_on_c, 4, 32, 78
6, 69806, Note_on_c, 4, 30, 0
6, 69885, Note_on_c, 4, 32, 0
6, 69888, Note_on_c, 4, 35, 94
6, 70438, Note_on_c, 4, 35, 0
6, 70464, Note_on_c, 4, 34, 90
6, 70656, Note_on_c, 4, 32, 101
6, 70683, Note_on_c, 4, 34, 0
6, 71232, Note_on_c, 4, 30, 92
6, 71253, Note_on_c, 4, 32, 0
6, 71403, Note_on_c, 4, 30, 0
6, 71424, Note_on_c, 4, 28, 97
6, 71942, Note_on_c, 4, 28, 0
6, 72000, Note_on_c, 4, 28, 92
6, 72192, Note_on_c, 4, 30, 97
6, 72201, Note_on_c, 4, 28, 0
6, 72702, Note_on_c, 4, 30, 0
6, 72768, Note_on_c, 4, 30, 99
6, 72836, Note_on_c, 4, 30, 0
6, 72864, Note_on_c, 4, 32, 72
6, 72960, Note_on_c, 4, 35, 91
6, 72969, Note_on_c, 4, 32, 0
6, 73511, Note_on_c, 4, 35, 0
6, 73536, Note_on_c, 4, 34, 91
6, 73705, Note_on_c, 4, 34, 0
6, 73728, Note_on_c, 4, 32, 94
6, 74248, Note_on_c, 4, 32, 0
6, 74304, Note_on_c, 4, 32, 81
6, 74400, Note_on_c, 4, 30, 85
6, 74426, Note_on_c, 4, 32, 0
6, 74492, Note_on_c, 4, 30, 0
6, 74496, Note_on_c, 4, 25, 101
6, 74873, Note_on_c, 4, 25, 0
6, 74880, Note_on_c, 4, 27, 96
6, 75264, Note_on_c, 4, 28, 87
6, 75279, Note_on_c, 4, 27, 0
6, 75627, Note_on_c, 4, 28, 0
6, 75648, Note_on_c, 4, 30, 56
6, 75720, Note_on_c, 4, 30, 0
6, 75744, Note_on_c, 4, 30, 80
6, 75810, Note_on_c, 4, 30, 0
6, 75840, Note_on_c, 4, 30, 94
6, 75911, Note_on_c, 4, 30, 0
6, 75936, Note_on_c, 4, 30, 94
6, 75995, Note_on_c, 4, 30, 0
6, 76032, Note_on_c, 4, 35, 109
6, 76435, Note_on_c, 4, 35, 0
6, 76608, Note_on_c, 4, 34, 106
6, 76800, Note_on_c, 4, 32, 101
6, 76834, Note_on_c, 4, 34, 0
6, 77289, Note_on_c, 4, 32, 0
6, 77376, Note_on_c, 4, 30, 101
6, 77561, Note_on_c, 4, 30, 0
6, 77568, Note_on_c, 4, 28, 101
6, 78064, Note_on_c, 4, 28, 0
6, 78144, Note_on_c, 4, 28, 90
6, 78323, Note_on_c, 4, 28, 0
6, 78336, Note_on_c, 4, 30, 98
6, 78528, Note_on_c, 4, 32, 97
6, 78546, Note_on_c, 4, 30, 0
6, 78720, Note_on_c, 4, 34, 88
6, 78720, Note_on_c, 4, 32, 0
6, 79083, Note_on_c, 4, 34, 0
6, 79104, Note_on_c, 4, 35, 94
6, 79564, Note_on_c, 4, 35, 0
6, 79680, Note_on_c, 4, 34, 96
6, 79844, Note_on_c, 4, 34, 0
6, 79872, Note_on_c, 4, 32, 94
6, 80348, Note_on_c, 4, 32, 0
6, 80448, Note_on_c, 4, 30, 94
6, 80637, Note_on_c, 4, 30, 0
6, 80640, Note_on_c, 4, 28, 92
6, 81284, Note_on_c, 4, 28, 0
6, 81408, Note_on_c, 4, 30, 101
6, 81696, Note_on_c, 4, 32, 97
6, 81717, Note_on_c, 4, 30, 0
6, 81984, Note_on_c, 4, 34, 78
6, 81994, Note_on_c, 4, 32, 0
6, 83381, Note_on_c, 4, 34, 0
6, 85828, Note_on_c, 4, 35, 83
6, 86014, Note_on_c, 4, 40, 85
6, 86040, Note_on_c, 4, 35, 0
6, 87219, Note_on_c, 4, 40, 0
6, 87352, Note_on_c, 4, 35, 85
6, 87449, Note_on_c, 4, 40, 85
6, 87465, Note_on_c, 4, 35, 0
6, 87553, Note_on_c, 4, 39, 90
6, 87560, Note_on_c, 4, 40, 0
6, 89090, Note_on_c, 4, 42, 82
6, 89103, Note_on_c, 4, 39, 0
6, 89846, Note_on_c, 4, 42, 0
6, 89900, Note_on_c, 4, 42, 85
6, 92145, Note_on_c, 4, 35, 76
6, 92157, Note_on_c, 4, 42, 0
6, 92196, Control_c, 4, 64, 127
6, 92481, Note_on_c, 4, 35, 0
6, 95180, Control_c, 4, 64, 0
6, 95180, End_track
7, 0, Start_track
7, 0, MIDI_port, 0
7, 0, Title_t, "TAPPETO"
7, 192, Control_c, 5, 91, 90
7, 192, Control_c, 5, 7, 100
7, 192, Program_c, 5, 51
7, 18411, Note_on_c, 5, 54, 65
7, 18413, Note_on_c, 5, 57, 86
7, 18415, Note_on_c, 5, 42, 71
7, 18417, Note_on_c, 5, 61, 71
7, 19112, Note_on_c, 5, 54, 0
7, 19168, Note_on_c, 5, 52, 83
7, 19172, Note_on_c, 5, 56, 85
7, 19178, Note_on_c, 5, 40, 73
7, 19180, Note_on_c, 5, 42, 0
7, 19188, Note_on_c, 5, 57, 0
7, 19873, Note_on_c, 5, 56, 0
7, 19914, Note_on_c, 5, 52, 0
7, 19933, Note_on_c, 5, 57, 77
7, 19938, Note_on_c, 5, 54, 83
7, 19940, Note_on_c, 5, 38, 83
7, 19956, Note_on_c, 5, 50, 64
7, 19959, Note_on_c, 5, 40, 0
7, 19974, Note_on_c, 5, 61, 0
7, 20662, Note_on_c, 5, 50, 0
7, 20693, Note_on_c, 5, 57, 0
7, 20696, Note_on_c, 5, 56, 54
7, 20699, Note_on_c, 5, 59, 71
7, 20708, Note_on_c, 5, 52, 85
7, 20716, Note_on_c, 5, 40, 78
7, 20732, Note_on_c, 5, 38, 0
7, 20733, Note_on_c, 5, 54, 0
7, 21369, Note_on_c, 5, 59, 0
7, 21381, Note_on_c, 5, 56, 0
7, 21471, Note_on_c, 5, 57, 83
7, 21477, Note_on_c, 5, 45, 86
7, 21480, Note_on_c, 5, 61, 93
7, 21483, Note_on_c, 5, 40, 0
7, 22218, Note_on_c, 5, 57, 0
7, 22232, Note_on_c, 5, 59, 77
7, 22238, Note_on_c, 5, 56, 83
7, 22258, Note_on_c, 5, 61, 0
7, 22995, Note_on_c, 5, 59, 0
7, 22996, Note_on_c, 5, 57, 87
7, 23005, Note_on_c, 5, 61, 91
7, 23054, Note_on_c, 5, 56, 0
7, 24558, Note_on_c, 5, 54, 92
7, 24560, Note_on_c, 5, 42, 94
7, 24565, Note_on_c, 5, 52, 0
7, 24588, Note_on_c, 5, 45, 0
7, 25245, Note_on_c, 5, 54, 0
7, 25301, Note_on_c, 5, 57, 0
7, 25305, Note_on_c, 5, 40, 85
7, 25308, Note_on_c, 5, 52, 85
7, 25310, Note_on_c, 5, 56, 88
7, 25320, Note_on_c, 5, 42, 0
7, 25966, Note_on_c, 5, 56, 0
7, 26006, Note_on_c, 5, 52, 0
7, 26078, Note_on_c, 5, 62, 88
7, 26082, Note_on_c, 5, 57, 90
7, 26088, Note_on_c, 5, 50, 72
7, 26094, Note_on_c, 5, 54, 72
7, 26100, Note_on_c, 5, 40, 0
7, 26108, Note_on_c, 5, 61, 0
7, 26823, Note_on_c, 5, 54, 0
7, 26826, Note_on_c, 5, 62, 0
7, 26854, Note_on_c, 5, 59, 86
7, 26856, Note_on_c, 5, 57, 0
7, 26862, Note_on_c, 5, 64, 90
7, 26864, Note_on_c, 5, 52, 85
7, 26867, Note_on_c, 5, 56, 83
7, 26883, Note_on_c, 5, 50, 0
7, 27601, Note_on_c, 5, 59, 0
7, 27609, Note_on_c, 5, 64, 0
7, 27612, Note_on_c, 5, 52, 0
7, 27619, Note_on_c, 5, 56, 0
7, 27623, Note_on_c, 5, 45, 83
7, 27624, Note_on_c, 5, 57, 86
7, 27627, Note_on_c, 5, 52, 85
7, 27633, Note_on_c, 5, 61, 87
7, 28398, Note_on_c, 5, 42, 86
7, 28399, Note_on_c, 5, 54, 78
7, 28415, Note_on_c, 5, 45, 0
7, 28939, Control_c, 5, 64, 127
7, 29060, Note_on_c, 5, 61, 0
7, 29063, Note_on_c, 5, 42, 0
7, 29064, Note_on_c, 5, 52, 0
7, 29067, Note_on_c, 5, 57, 0
7, 29092, Note_on_c, 5, 54, 0
7, 29157, Note_on_c, 5, 62, 93
7, 29159, Note_on_c, 5, 54, 77
7, 29160, Note_on_c, 5, 38, 91
7, 29162, Note_on_c, 5, 57, 90
7, 29174, Control_c, 5, 64, 0
7, 29548, Control_c, 5, 64, 127
7, 29624, Note_on_c, 5, 57, 0
7, 29625, Note_on_c, 5, 54, 0
7, 29638, Note_on_c, 5, 38, 0
7, 29638, Note_on_c, 5, 62, 0
7, 29916, Note_on_c, 5, 40, 85
7, 29921, Note_on_c, 5, 64, 93
7, 29922, Note_on_c, 5, 59, 93
7, 29924, Note_on_c, 5, 56, 82
7, 29933, Control_c, 5, 64, 0
7, 30365, Control_c, 5, 64, 127
7, 30471, Note_on_c, 5, 59, 0
7, 30474, Note_on_c, 5, 56, 0
7, 30475, Note_on_c, 5, 64, 0
7, 30500, Note_on_c, 5, 40, 0
7, 30693, Note_on_c, 5, 57, 81
7, 30695, Note_on_c, 5, 61, 87
7, 30697, Note_on_c, 5, 64, 90
7, 30699, Note_on_c, 5, 45, 85
7, 30715, Control_c, 5, 64, 0
7, 31007, Control_c, 5, 64, 127
7, 31293, Note_on_c, 5, 45, 0
7, 31453, Note_on_c, 5, 54, 82
7, 31455, Note_on_c, 5, 42, 72
7, 31473, Control_c, 5, 64, 0
7, 31870, Control_c, 5, 64, 127
7, 31973, Note_on_c, 5, 64, 0
7, 31983, Note_on_c, 5, 42, 0
7, 31993, Note_on_c, 5, 61, 0
7, 31998, Note_on_c, 5, 57, 0
7, 32011, Note_on_c, 5, 54, 0
7, 32224, Note_on_c, 5, 62, 93
7, 32227, Note_on_c, 5, 57, 85
7, 32229, Note_on_c, 5, 54, 73
7, 32231, Note_on_c, 5, 50, 82
7, 32255, Control_c, 5, 64, 0
7, 32617, Control_c, 5, 64, 127
7, 32745, Note_on_c, 5, 50, 0
7, 32745, Note_on_c, 5, 57, 0
7, 32756, Note_on_c, 5, 54, 0
7, 32760, Note_on_c, 5, 62, 0
7, 32986, Note_on_c, 5, 56, 73
7, 32988, Note_on_c, 5, 64, 88
7, 32989, Note_on_c, 5, 59, 87
7, 32992, Note_on_c, 5, 40, 83
7, 33004, Control_c, 5, 64, 0
7, 33400, Control_c, 5, 64, 127
7, 33561, Note_on_c, 5, 64, 0
7, 33563, Note_on_c, 5, 59, 0
7, 33575, Note_on_c, 5, 56, 0
7, 33643, Note_on_c, 5, 40, 0
7, 33764, Note_on_c, 5, 45, 86
7, 33767, Note_on_c, 5, 61, 93
7, 33768, Note_on_c, 5, 52, 93
7, 33770, Note_on_c, 5, 57, 96
7, 33786, Control_c, 5, 64, 0
7, 34603, Note_on_c, 5, 62, 94
7, 34611, Note_on_c, 5, 61, 0
7, 35302, Note_on_c, 5, 61, 86
7, 35314, Note_on_c, 5, 62, 0
7, 35698, Control_c, 5, 64, 127
7, 35797, Note_on_c, 5, 52, 0
7, 35802, Note_on_c, 5, 57, 0
7, 35823, Note_on_c, 5, 61, 0
7, 35852, Note_on_c, 5, 45, 0
7, 36060, Control_c, 5, 64, 0
7, 36065, Note_on_c, 5, 40, 82
7, 36096, Note_on_c, 5, 61, 91
7, 36097, Note_on_c, 5, 40, 82
7, 36099, Note_on_c, 5, 57, 88
7, 36101, Note_on_c, 5, 52, 90
7, 36119, Control_c, 5, 64, 127
7, 36332, Note_on_c, 5, 52, 0
7, 36336, Note_on_c, 5, 61, 0
7, 36341, Control_c, 5, 64, 0
7, 36363, Note_on_c, 5, 57, 0
7, 36378, Note_on_c, 5, 57, 92
7, 36383, Note_on_c, 5, 60, 88
7, 36387, Note_on_c, 5, 51, 77
7, 36388, Control_c, 5, 64, 127
7, 36633, Note_on_c, 5, 57, 0
7, 36645, Control_c, 5, 64, 0
7, 36659, Note_on_c, 5, 51, 0
7, 36665, Note_on_c, 5, 60, 0
7, 36668, Control_c, 5, 64, 127
7, 36679, Note_on_c, 5, 59, 47
7, 36684, Note_on_c, 5, 50, 88
7, 36686, Note_on_c, 5, 56, 86
7, 36727, Note_on_c, 5, 40, 0
7, 36861, Note_on_c, 5, 45, 83
7, 36864, Note_on_c, 5, 57, 90
7, 36865, Note_on_c, 5, 61, 83
7, 36867, Note_on_c, 5, 52, 86
7, 36868, Control_c, 5, 64, 0
7, 36905, Note_on_c, 5, 59, 0
7, 36910, Note_on_c, 5, 50, 0
7, 36912, Note_on_c, 5, 56, 0
7, 36918, Note_on_c, 5, 40, 0
7, 37927, Note_on_c, 5, 52, 0
7, 37954, Note_on_c, 5, 61, 0
7, 37994, Note_on_c, 5, 62, 90
7, 38002, Note_on_c, 5, 54, 97
7, 38338, Note_on_c, 5, 54, 0
7, 38355, Note_on_c, 5, 61, 59
7, 38372, Note_on_c, 5, 52, 91
7, 38379, Note_on_c, 5, 62, 0
7, 39463, Note_on_c, 5, 57, 0
7, 39520, Note_on_c, 5, 61, 0
7, 39530, Note_on_c, 5, 59, 93
7, 39532, Note_on_c, 5, 56, 106
7, 39535, Note_on_c, 5, 44, 97
7, 39554, Note_on_c, 5, 45, 0
7, 39877, Note_on_c, 5, 52, 0
7, 39882, Note_on_c, 5, 56, 0
7, 39927, Note_on_c, 5, 61, 87
7, 39931, Note_on_c, 5, 57, 87
7, 39933, Note_on_c, 5, 42, 77
7, 39945, Note_on_c, 5, 54, 82
7, 39946, Note_on_c, 5, 44, 0
7, 39948, Note_on_c, 5, 59, 0
7, 40604, Note_on_c, 5, 57, 0
7, 40647, Note_on_c, 5, 54, 0
7, 40685, Note_on_c, 5, 40, 86
7, 40687, Note_on_c, 5, 42, 0
7, 40688, Note_on_c, 5, 56, 97
7, 40693, Note_on_c, 5, 52, 109
7, 41358, Note_on_c, 5, 56, 0
7, 41376, Note_on_c, 5, 52, 0
7, 41448, Note_on_c, 5, 57, 83
7, 41457, Note_on_c, 5, 62, 98
7, 41458, Note_on_c, 5, 50, 85
7, 41460, Note_on_c, 5, 54, 86
7, 41465, Note_on_c, 5, 40, 0
7, 41474, Note_on_c, 5, 61, 0
7, 42162, Note_on_c, 5, 62, 0
7, 42166, Note_on_c, 5, 54, 0
7, 42217, Note_on_c, 5, 59, 90
7, 42218, Note_on_c, 5, 52, 88
7, 42220, Note_on_c, 5, 64, 94
7, 42225, Note_on_c, 5, 56, 86
7, 42227, Note_on_c, 5, 50, 0
7, 42240, Note_on_c, 5, 57, 0
7, 42602, Control_c, 5, 64, 127
7, 42709, Note_on_c, 5, 59, 0
7, 42715, Note_on_c, 5, 52, 0
7, 42718, Note_on_c, 5, 64, 0
7, 42728, Note_on_c, 5, 56, 0
7, 42980, Control_c, 5, 64, 0
7, 42984, Note_on_c, 5, 45, 86
7, 42986, Note_on_c, 5, 52, 86
7, 42988, Note_on_c, 5, 61, 90
7, 42990, Note_on_c, 5, 57, 86
7, 43431, Control_c, 5, 64, 127
7, 43687, Note_on_c, 5, 57, 0
7, 43736, Note_on_c, 5, 61, 0
7, 43751, Control_c, 5, 64, 0
7, 43752, Note_on_c, 5, 59, 87
7, 43755, Note_on_c, 5, 56, 92
7, 44176, Control_c, 5, 64, 127
7, 44308, Note_on_c, 5, 59, 0
7, 44309, Note_on_c, 5, 56, 0
7, 44320, Note_on_c, 5, 52, 0
7, 44521, Note_on_c, 5, 52, 85
7, 44522, Note_on_c, 5, 57, 90
7, 44524, Note_on_c, 5, 61, 82
7, 44532, Control_c, 5, 64, 0
7, 44934, Control_c, 5, 64, 127
7, 45186, Note_on_c, 5, 45, 0
7, 45216, Note_on_c, 5, 57, 0
7, 45253, Note_on_c, 5, 61, 0
7, 45283, Note_on_c, 5, 59, 94
7, 45285, Note_on_c, 5, 56, 85
7, 45290, Control_c, 5, 64, 0
7, 45668, Control_c, 5, 64, 127
7, 45772, Note_on_c, 5, 59, 0
7, 45790, Note_on_c, 5, 56, 0
7, 45812, Note_on_c, 5, 52, 0
7, 46062, Note_on_c, 5, 54, 78
7, 46064, Note_on_c, 5, 42, 66
7, 46066, Note_on_c, 5, 57, 87
7, 46068, Note_on_c, 5, 61, 85
7, 46071, Control_c, 5, 64, 0
7, 46450, Control_c, 5, 64, 127
7, 46688, Note_on_c, 5, 54, 0
7, 46719, Note_on_c, 5, 42, 0
7, 46811, Note_on_c, 5, 57, 0
7, 46831, Note_on_c, 5, 56, 86
7, 46834, Note_on_c, 5, 52, 86
7, 46836, Note_on_c, 5, 40, 83
7, 46841, Control_c, 5, 64, 0
7, 47243, Control_c, 5, 64, 127
7, 47374, Note_on_c, 5, 52, 0
7, 47381, Note_on_c, 5, 40, 0
7, 47385, Note_on_c, 5, 56, 0
7, 47404, Note_on_c, 5, 61, 0
7, 47590, Note_on_c, 5, 62, 96
7, 47593, Note_on_c, 5, 54, 82
7, 47594, Note_on_c, 5, 57, 93
7, 47596, Note_on_c, 5, 50, 85
7, 47599, Control_c, 5, 64, 0
7, 48307, Note_on_c, 5, 54, 0
7, 48314, Note_on_c, 5, 62, 0
7, 48358, Note_on_c, 5, 59, 92
7, 48362, Note_on_c, 5, 64, 94
7, 48364, Note_on_c, 5, 52, 86
7, 48369, Note_on_c, 5, 56, 85
7, 48378, Note_on_c, 5, 57, 0
7, 48391, Note_on_c, 5, 50, 0
7, 49099, Note_on_c, 5, 64, 0
7, 49107, Note_on_c, 5, 59, 0
7, 49114, Note_on_c, 5, 52, 0
7, 49115, Note_on_c, 5, 56, 0
7, 54510, Note_on_c, 5, 40, 86
7, 54513, Note_on_c, 5, 56, 86
7, 54515, Note_on_c, 5, 52, 85
7, 54814, Note_on_c, 5, 54, 81
7, 54820, Note_on_c, 5, 42, 75
7, 54822, Note_on_c, 5, 57, 87
7, 54833, Note_on_c, 5, 56, 0
7, 54844, Note_on_c, 5, 40, 0
7, 54853, Note_on_c, 5, 52, 0
7, 55070, Note_on_c, 5, 59, 86
7, 55072, Note_on_c, 5, 56, 71
7, 55074, Note_on_c, 5, 44, 85
7, 55076, Note_on_c, 5, 57, 0
7, 55081, Note_on_c, 5, 52, 75
7, 55092, Note_on_c, 5, 42, 0
7, 55109, Note_on_c, 5, 54, 0
7, 55226, Note_on_c, 5, 59, 0
7, 55239, Note_on_c, 5, 56, 0
7, 55259, Note_on_c, 5, 44, 0
7, 55265, Note_on_c, 5, 45, 82
7, 55271, Note_on_c, 5, 57, 86
7, 55276, Note_on_c, 5, 61, 85
7, 56012, Note_on_c, 5, 59, 85
7, 56014, Note_on_c, 5, 57, 0
7, 56022, Note_on_c, 5, 56, 78
7, 56042, Note_on_c, 5, 61, 0
7, 56775, Note_on_c, 5, 59, 0
7, 56790, Note_on_c, 5, 57, 85
7, 56804, Note_on_c, 5, 61, 80
7, 56812, Note_on_c, 5, 56, 0
7, 57555, Note_on_c, 5, 57, 0
7, 57563, Note_on_c, 5, 59, 73
7, 57569, Note_on_c, 5, 56, 80
7, 57574, Note_on_c, 5, 49, 82
7, 57588, Note_on_c, 5, 61, 0
7, 57590, Note_on_c, 5, 45, 0
7, 58301, Note_on_c, 5, 56, 0
7, 58312, Note_on_c, 5, 59, 0
7, 58330, Note_on_c, 5, 61, 82
7, 58333, Note_on_c, 5, 57, 87
7, 58338, Note_on_c, 5, 54, 82
7, 58342, Note_on_c, 5, 42, 71
7, 58364, Note_on_c, 5, 49, 0
7, 59050, Note_on_c, 5, 54, 0
7, 59110, Note_on_c, 5, 42, 0
7, 59115, Note_on_c, 5, 57, 0
7, 59118, Note_on_c, 5, 40, 76
7, 59123, Note_on_c, 5, 56, 86
7, 59779, Note_on_c, 5, 56, 0
7, 59830, Note_on_c, 5, 52, 0
7, 59866, Note_on_c, 5, 62, 83
7, 59885, Note_on_c, 5, 50, 62
7, 59893, Note_on_c, 5, 40, 0
7, 59894, Note_on_c, 5, 57, 86
7, 59914, Note_on_c, 5, 61, 0
7, 59915, Note_on_c, 5, 54, 49
7, 60619, Note_on_c, 5, 62, 0
7, 60626, Note_on_c, 5, 54, 0
7, 60663, Note_on_c, 5, 59, 58
7, 60670, Note_on_c, 5, 64, 86
7, 60676, Note_on_c, 5, 52, 82
7, 60679, Note_on_c, 5, 56, 75
7, 60698, Note_on_c, 5, 57, 0
7, 60708, Note_on_c, 5, 50, 0
7, 62140, Note_on_c, 5, 52, 0
7, 62143, Note_on_c, 5, 59, 0
7, 62143, Note_on_c, 5, 56, 0
7, 62174, Note_on_c, 5, 64, 0
7, 63734, Note_on_c, 5, 59, 98
7, 63736, Note_on_c, 5, 54, 99
7, 63738, Note_on_c, 5, 63, 82
7, 63740, Note_on_c, 5, 47, 96
7, 64489, Note_on_c, 5, 47, 0
7, 64491, Note_on_c, 5, 44, 92
7, 64493, Note_on_c, 5, 56, 88
7, 64508, Note_on_c, 5, 54, 0
7, 65149, Note_on_c, 5, 59, 0
7, 65246, Note_on_c, 5, 63, 0
7, 65270, Note_on_c, 5, 52, 80
7, 65275, Note_on_c, 5, 59, 91
7, 65285, Note_on_c, 5, 44, 0
7, 65288, Note_on_c, 5, 64, 91
7, 65966, Note_on_c, 5, 59, 0
7, 66009, Note_on_c, 5, 56, 0
7, 66037, Note_on_c, 5, 58, 87
7, 66038, Note_on_c, 5, 61, 83
7, 66040, Note_on_c, 5, 42, 83
7, 66047, Note_on_c, 5, 54, 73
7, 66048, Note_on_c, 5, 52, 0
7, 66081, Note_on_c, 5, 64, 0
7, 66759, Note_on_c, 5, 54, 0
7, 66770, Note_on_c, 5, 61, 0
7, 66770, Note_on_c, 5, 58, 0
7, 66791, Note_on_c, 5, 59, 97
7, 66797, Note_on_c, 5, 54, 88
7, 66799, Note_on_c, 5, 47, 91
7, 66805, Note_on_c, 5, 63, 82
7, 66807, Note_on_c, 5, 42, 0
7, 67557, Note_on_c, 5, 47, 0
7, 67561, Note_on_c, 5, 44, 83
7, 67563, Note_on_c, 5, 56, 93
7, 67581, Note_on_c, 5, 54, 0
7, 68316, Note_on_c, 5, 56, 0
7, 68326, Note_on_c, 5, 63, 0
7, 68333, Note_on_c, 5, 64, 92
7, 68341, Note_on_c, 5, 56, 82
7, 68343, Note_on_c, 5, 52, 91
7, 68344, Note_on_c, 5, 44, 0
7, 69064, Note_on_c, 5, 56, 0
7, 69085, Note_on_c, 5, 64, 0
7, 69096, Note_on_c, 5, 61, 77
7, 69102, Note_on_c, 5, 66, 85
7, 69109, Note_on_c, 5, 58, 88
7, 69111, Note_on_c, 5, 42, 75
7, 69125, Note_on_c, 5, 59, 0
7, 69126, Note_on_c, 5, 52, 0
7, 69771, Note_on_c, 5, 58, 0
7, 69860, Note_on_c, 5, 63, 70
7, 69867, Note_on_c, 5, 47, 93
7, 69869, Note_on_c, 5, 59, 94
7, 69871, Note_on_c, 5, 61, 0
7, 69871, Note_on_c, 5, 42, 0
7, 69872, Note_on_c, 5, 66, 0
7, 69874, Note_on_c, 5, 54, 103
7, 70594, Note_on_c, 5, 54, 0
7, 70636, Note_on_c, 5, 56, 93
7, 70647, Note_on_c, 5, 44, 94
7, 70671, Note_on_c, 5, 47, 0
7, 71386, Note_on_c, 5, 44, 0
7, 71396, Note_on_c, 5, 56, 0
7, 71398, Note_on_c, 5, 59, 0
7, 71400, Note_on_c, 5, 63, 0
7, 71408, Note_on_c, 5, 64, 96
7, 71410, Note_on_c, 5, 59, 94
7, 71412, Note_on_c, 5, 52, 91
7, 71413, Note_on_c, 5, 56, 86
7, 72127, Note_on_c, 5, 56, 0
7, 72135, Note_on_c, 5, 64, 0
7, 72156, Note_on_c, 5, 59, 0
7, 72158, Note_on_c, 5, 66, 75
7, 72159, Note_on_c, 5, 61, 80
7, 72170, Note_on_c, 5, 42, 83
7, 72172, Note_on_c, 5, 58, 91
7, 72181, Note_on_c, 5, 52, 0
7, 72887, Note_on_c, 5, 58, 0
7, 72933, Note_on_c, 5, 63, 73
7, 72935, Note_on_c, 5, 47, 88
7, 72938, Note_on_c, 5, 59, 96
7, 72941, Note_on_c, 5, 66, 0
7, 72943, Note_on_c, 5, 61, 0
7, 72946, Note_on_c, 5, 42, 0
7, 72947, Note_on_c, 5, 54, 94
7, 73670, Note_on_c, 5, 54, 0
7, 73705, Note_on_c, 5, 47, 0
7, 73713, Note_on_c, 5, 44, 85
7, 73717, Note_on_c, 5, 56, 91
7, 74473, Note_on_c, 5, 64, 96
7, 74474, Note_on_c, 5, 56, 0
7, 74475, Note_on_c, 5, 61, 94
7, 74477, Note_on_c, 5, 56, 106
7, 74481, Note_on_c, 5, 59, 0
7, 74482, Note_on_c, 5, 63, 0
7, 74496, Note_on_c, 5, 44, 0
7, 74824, Note_on_c, 5, 64, 0
7, 74866, Note_on_c, 5, 63, 90
7, 74868, Note_on_c, 5, 59, 96
7, 74888, Note_on_c, 5, 61, 0
7, 75241, Note_on_c, 5, 59, 0
7, 75242, Note_on_c, 5, 56, 0
7, 75246, Note_on_c, 5, 63, 0
7, 75253, Note_on_c, 5, 64, 98
7, 75255, Note_on_c, 5, 56, 83
7, 75258, Note_on_c, 5, 61, 97
7, 75593, Note_on_c, 5, 56, 0
7, 75628, Note_on_c, 5, 64, 0
7, 75634, Note_on_c, 5, 66, 94
7, 75640, Note_on_c, 5, 58, 97
7, 76007, Note_on_c, 5, 66, 0
7, 76009, Note_on_c, 5, 61, 0
7, 76012, Note_on_c, 5, 58, 0
7, 76015, Note_on_c, 5, 59, 96
7, 76017, Note_on_c, 5, 54, 96
7, 76019, Note_on_c, 5, 47, 98
7, 76021, Note_on_c, 5, 63, 90
7, 76789, Note_on_c, 5, 44, 81
7, 76790, Note_on_c, 5, 56, 94
7, 76794, Note_on_c, 5, 47, 0
7, 76803, Note_on_c, 5, 54, 0
7, 77552, Note_on_c, 5, 40, 82
7, 77555, Note_on_c, 5, 52, 96
7, 77564, Note_on_c, 5, 44, 0
7, 78217, Note_on_c, 5, 52, 0
7, 78221, Note_on_c, 5, 59, 0
7, 78316, Note_on_c, 5, 58, 86
7, 78320, Note_on_c, 5, 63, 0
7, 78321, Note_on_c, 5, 54, 97
7, 78323, Note_on_c, 5, 42, 96
7, 78337, Note_on_c, 5, 56, 0
7, 78351, Note_on_c, 5, 40, 0
7, 78510, Note_on_c, 5, 58, 0
7, 78511, Note_on_c, 5, 56, 85
7, 78517, Note_on_c, 5, 59, 94
7, 78524, Note_on_c, 5, 44, 73
7, 78544, Note_on_c, 5, 54, 0
7, 78549, Note_on_c, 5, 42, 0
7, 78693, Note_on_c, 5, 59, 0
7, 78696, Note_on_c, 5, 58, 86
7, 78701, Note_on_c, 5, 61, 86
7, 78715, Note_on_c, 5, 46, 101
7, 78725, Note_on_c, 5, 44, 0
7, 78731, Note_on_c, 5, 56, 0
7, 79051, Note_on_c, 5, 61, 0
7, 79059, Note_on_c, 5, 54, 63
7, 79062, Note_on_c, 5, 58, 0
7, 79081, Note_on_c, 5, 59, 99
7, 79084, Note_on_c, 5, 47, 88
7, 79089, Note_on_c, 5, 63, 83
7, 79108, Note_on_c, 5, 46, 0
7, 79841, Note_on_c, 5, 47, 0
7, 79849, Note_on_c, 5, 44, 82
7, 79857, Note_on_c, 5, 56, 96
7, 79876, Note_on_c, 5, 54, 0
7, 80621, Note_on_c, 5, 44, 0
7, 80626, Note_on_c, 5, 40, 77
7, 80630, Note_on_c, 5, 52, 83
7, 81237, Note_on_c, 5, 52, 0
7, 81361, Note_on_c, 5, 63, 0
7, 81361, Note_on_c, 5, 59, 0
7, 81393, Note_on_c, 5, 56, 0
7, 81400, Note_on_c, 5, 40, 0
7, 81408, Note_on_c, 5, 42, 66
7, 81408, Note_on_c, 5, 54, 82
7, 81408, Note_on_c, 5, 58, 88
7, 81696, Note_on_c, 5, 44, 72
7, 81696, Note_on_c, 5, 56, 86
7, 81696, Note_on_c, 5, 59, 88
7, 81696, Note_on_c, 5, 58, 0
7, 81696, Note_on_c, 5, 42, 0
7, 81696, Note_on_c, 5, 54, 0
7, 81984, Note_on_c, 5, 46, 73
7, 81984, Note_on_c, 5, 58, 86
7, 81984, Note_on_c, 5, 61, 86
7, 81984, Note_on_c, 5, 44, 0
7, 81984, Note_on_c, 5, 59, 0
7, 81984, Note_on_c, 5, 56, 0
7, 83288, Note_on_c, 5, 46, 0
7, 83288, Note_on_c, 5, 58, 0
7, 83296, Note_on_c, 5, 61, 0
7, 83296, End_track
8, 0, Start_track
8, 0, MIDI_port, 0
8, 0, Title_t, "SAX"
8, 192, Control_c, 6, 91, 127
8, 192, Control_c, 6, 7, 95
8, 192, Program_c, 6, 65
8, 35987, Pitch_bend_c, 6, 8192
8, 35989, Pitch_bend_c, 6, 7936
8, 35992, Pitch_bend_c, 6, 7808
8, 35995, Pitch_bend_c, 6, 7680
8, 35998, Pitch_bend_c, 6, 7424
8, 36000, Pitch_bend_c, 6, 7296
8, 36004, Pitch_bend_c, 6, 7040
8, 36006, Pitch_bend_c, 6, 6784
8, 36009, Pitch_bend_c, 6, 6400
8, 36012, Pitch_bend_c, 6, 6144
8, 36015, Pitch_bend_c, 6, 5888
8, 36016, Pitch_bend_c, 6, 5632
8, 36019, Pitch_bend_c, 6, 5120
8, 36022, Pitch_bend_c, 6, 4864
8, 36025, Pitch_bend_c, 6, 4608
8, 36028, Pitch_bend_c, 6, 4224
8, 36031, Pitch_bend_c, 6, 3968
8, 36034, Pitch_bend_c, 6, 3712
8, 36036, Pitch_bend_c, 6, 3328
8, 36039, Pitch_bend_c, 6, 3072
8, 36042, Pitch_bend_c, 6, 2816
8, 36045, Pitch_bend_c, 6, 2560
8, 36048, Pitch_bend_c, 6, 2176
8, 36050, Pitch_bend_c, 6, 1920
8, 36053, Pitch_bend_c, 6, 1792
8, 36056, Pitch_bend_c, 6, 1536
8, 36059, Pitch_bend_c, 6, 1280
8, 36062, Pitch_bend_c, 6, 1024
8, 36064, Pitch_bend_c, 6, 896
8, 36070, Pitch_bend_c, 6, 640
8, 36076, Pitch_bend_c, 6, 512
8, 36087, Pitch_bend_c, 6, 384
8, 36092, Note_on_c, 6, 61, 112
8, 36105, Pitch_bend_c, 6, 640
8, 36111, Pitch_bend_c, 6, 768
8, 36114, Pitch_bend_c, 6, 1024
8, 36117, Pitch_bend_c, 6, 1280
8, 36119, Pitch_bend_c, 6, 1536
8, 36122, Pitch_bend_c, 6, 1920
8, 36125, Pitch_bend_c, 6, 2304
8, 36128, Pitch_bend_c, 6, 2688
8, 36130, Pitch_bend_c, 6, 3200
8, 36134, Pitch_bend_c, 6, 4096
8, 36136, Pitch_bend_c, 6, 5120
8, 36139, Pitch_bend_c, 6, 6528
8, 36142, Pitch_bend_c, 6, 7936
8, 36145, Pitch_bend_c, 6, 8192
8, 36157, Note_on_c, 6, 64, 98
8, 36169, Note_on_c, 6, 61, 0
8, 36384, Control_c, 6, 1, 0
8, 36390, Control_c, 6, 1, 0
8, 36395, Control_c, 6, 1, 4
8, 36404, Control_c, 6, 1, 5
8, 36409, Control_c, 6, 1, 6
8, 36418, Control_c, 6, 1, 7
8, 36446, Control_c, 6, 1, 8
8, 36466, Control_c, 6, 1, 7
8, 36471, Control_c, 6, 1, 6
8, 36477, Control_c, 6, 1, 5
8, 36483, Control_c, 6, 1, 4
8, 36489, Control_c, 6, 1, 3
8, 36497, Control_c, 6, 1, 0
8, 36505, Control_c, 6, 1, 0
8, 36635, Note_on_c, 6, 64, 0
8, 36660, Control_c, 6, 1, 0
8, 36673, Note_on_c, 6, 64, 70
8, 36675, Note_on_c, 6, 62, 90
8, 36680, Control_c, 6, 1, 3
8, 36689, Control_c, 6, 1, 4
8, 36700, Control_c, 6, 1, 5
8, 36705, Note_on_c, 6, 66, 92
8, 36705, Control_c, 6, 1, 6
8, 36710, Note_on_c, 6, 62, 0
8, 36711, Control_c, 6, 1, 7
8, 36714, Note_on_c, 6, 64, 0
8, 36719, Control_c, 6, 1, 8
8, 36728, Control_c, 6, 1, 10
8, 36736, Control_c, 6, 1, 11
8, 36744, Control_c, 6, 1, 12
8, 36751, Note_on_c, 6, 69, 106
8, 36753, Note_on_c, 6, 66, 0
8, 36766, Control_c, 6, 1, 11
8, 36772, Control_c, 6, 1, 10
8, 36778, Control_c, 6, 1, 8
8, 36783, Control_c, 6, 1, 7
8, 36789, Control_c, 6, 1, 6
8, 36792, Control_c, 6, 1, 5
8, 36800, Control_c, 6, 1, 3
8, 36806, Control_c, 6, 1, 0
8, 36814, Control_c, 6, 1, 0
8, 36817, Note_on_c, 6, 69, 0
8, 36820, Control_c, 6, 1, 0
8, 36866, Note_on_c, 6, 69, 117
8, 36941, Control_c, 6, 1, 0
8, 36949, Control_c, 6, 1, 3
8, 36952, Control_c, 6, 1, 4
8, 36961, Control_c, 6, 1, 6
8, 36967, Control_c, 6, 1, 7
8, 36975, Control_c, 6, 1, 8
8, 36983, Control_c, 6, 1, 9
8, 36988, Control_c, 6, 1, 10
8, 36997, Control_c, 6, 1, 11
8, 37001, Control_c, 6, 1, 12
8, 37007, Control_c, 6, 1, 13
8, 37016, Control_c, 6, 1, 14
8, 37024, Control_c, 6, 1, 16
8, 37027, Control_c, 6, 1, 17
8, 37033, Control_c, 6, 1, 18
8, 37038, Control_c, 6, 1, 19
8, 37043, Control_c, 6, 1, 20
8, 37049, Control_c, 6, 1, 21
8, 37055, Control_c, 6, 1, 23
8, 37058, Pitch_bend_c, 6, 7936
8, 37061, Pitch_bend_c, 6, 7552
8, 37061, Control_c, 6, 1, 24
8, 37064, Pitch_bend_c, 6, 7040
8, 37066, Pitch_bend_c, 6, 6400
8, 37066, Control_c, 6, 1, 25
8, 37069, Pitch_bend_c, 6, 5760
8, 37070, Note_on_c, 6, 73, 125
8, 37073, Pitch_bend_c, 6, 4864
8, 37077, Pitch_bend_c, 6, 4096
8, 37080, Pitch_bend_c, 6, 3328
8, 37082, Pitch_bend_c, 6, 2816
8, 37085, Pitch_bend_c, 6, 2304
8, 37086, Control_c, 6, 1, 26
8, 37088, Pitch_bend_c, 6, 1664
8, 37089, Note_on_c, 6, 69, 0
8, 37091, Pitch_bend_c, 6, 1152
8, 37094, Pitch_bend_c, 6, 896
8, 37097, Pitch_bend_c, 6, 640
8, 37100, Pitch_bend_c, 6, 512
8, 37114, Pitch_bend_c, 6, 768
8, 37114, Control_c, 6, 1, 27
8, 37116, Pitch_bend_c, 6, 1024
8, 37119, Pitch_bend_c, 6, 1536
8, 37122, Pitch_bend_c, 6, 1920
8, 37125, Pitch_bend_c, 6, 2432
8, 37127, Pitch_bend_c, 6, 2944
8, 37130, Pitch_bend_c, 6, 3584
8, 37133, Pitch_bend_c, 6, 4224
8, 37136, Pitch_bend_c, 6, 5376
8, 37137, Control_c, 6, 1, 29
8, 37139, Pitch_bend_c, 6, 6272
8, 37141, Pitch_bend_c, 6, 7424
8, 37144, Pitch_bend_c, 6, 8192
8, 37150, Control_c, 6, 1, 30
8, 37212, Pitch_bend_c, 6, 7936
8, 37215, Pitch_bend_c, 6, 7552
8, 37218, Pitch_bend_c, 6, 7040
8, 37220, Control_c, 6, 1, 28
8, 37221, Pitch_bend_c, 6, 6528
8, 37224, Pitch_bend_c, 6, 6016
8, 37226, Pitch_bend_c, 6, 5504
8, 37229, Pitch_bend_c, 6, 4864
8, 37229, Control_c, 6, 1, 27
8, 37232, Pitch_bend_c, 6, 4224
8, 37235, Pitch_bend_c, 6, 3840
8, 37237, Control_c, 6, 1, 26
8, 37238, Pitch_bend_c, 6, 3328
8, 37240, Pitch_bend_c, 6, 2944
8, 37243, Pitch_bend_c, 6, 2560
8, 37246, Pitch_bend_c, 6, 2176
8, 37249, Pitch_bend_c, 6, 1920
8, 37251, Pitch_bend_c, 6, 1792
8, 37251, Control_c, 6, 1, 25
8, 37257, Control_c, 6, 1, 24
8, 37265, Pitch_bend_c, 6, 2176
8, 37265, Control_c, 6, 1, 23
8, 37268, Pitch_bend_c, 6, 2560
8, 37271, Pitch_bend_c, 6, 2944
8, 37274, Pitch_bend_c, 6, 3328
8, 37274, Control_c, 6, 1, 22
8, 37277, Pitch_bend_c, 6, 3840
8, 37280, Pitch_bend_c, 6, 4352
8, 37282, Pitch_bend_c, 6, 4992
8, 37285, Pitch_bend_c, 6, 5632
8, 37288, Pitch_bend_c, 6, 6144
8, 37291, Pitch_bend_c, 6, 6656
8, 37294, Pitch_bend_c, 6, 7168
8, 37297, Pitch_bend_c, 6, 7680
8, 37299, Pitch_bend_c, 6, 8064
8, 37302, Pitch_bend_c, 6, 8192
8, 37333, Control_c, 6, 1, 23
8, 37344, Control_c, 6, 1, 24
8, 37350, Control_c, 6, 1, 25
8, 37366, Control_c, 6, 1, 26
8, 37374, Control_c, 6, 1, 27
8, 37383, Control_c, 6, 1, 28
8, 37391, Control_c, 6, 1, 29
8, 37394, Pitch_bend_c, 6, 7936
8, 37396, Pitch_bend_c, 6, 7680
8, 37399, Pitch_bend_c, 6, 7168
8, 37402, Pitch_bend_c, 6, 6784
8, 37404, Pitch_bend_c, 6, 6400
8, 37407, Pitch_bend_c, 6, 5888
8, 37410, Pitch_bend_c, 6, 5504
8, 37413, Pitch_bend_c, 6, 4992
8, 37416, Pitch_bend_c, 6, 4480
8, 37416, Control_c, 6, 1, 30
8, 37419, Pitch_bend_c, 6, 4096
8, 37422, Pitch_bend_c, 6, 3712
8, 37424, Pitch_bend_c, 6, 3328
8, 37427, Pitch_bend_c, 6, 3072
8, 37430, Pitch_bend_c, 6, 2688
8, 37433, Pitch_bend_c, 6, 2560
8, 37436, Pitch_bend_c, 6, 2432
8, 37450, Pitch_bend_c, 6, 2688
8, 37453, Pitch_bend_c, 6, 2944
8, 37455, Pitch_bend_c, 6, 3328
8, 37458, Pitch_bend_c, 6, 3712
8, 37461, Pitch_bend_c, 6, 4096
8, 37462, Control_c, 6, 1, 31
8, 37464, Pitch_bend_c, 6, 4736
8, 37467, Pitch_bend_c, 6, 5376
8, 37470, Pitch_bend_c, 6, 6016
8, 37470, Control_c, 6, 1, 33
8, 37472, Pitch_bend_c, 6, 6784
8, 37475, Pitch_bend_c, 6, 7808
8, 37476, Control_c, 6, 1, 34
8, 37478, Pitch_bend_c, 6, 8192
8, 37485, Control_c, 6, 1, 35
8, 37496, Control_c, 6, 1, 36
8, 37501, Control_c, 6, 1, 37
8, 37504, Control_c, 6, 1, 39
8, 37507, Control_c, 6, 1, 40
8, 37706, Note_on_c, 6, 73, 0
8, 37810, Pitch_bend_c, 6, 8064
8, 37813, Pitch_bend_c, 6, 7808
8, 37816, Pitch_bend_c, 6, 7424
8, 37819, Pitch_bend_c, 6, 6912
8, 37822, Pitch_bend_c, 6, 6400
8, 37824, Pitch_bend_c, 6, 5760
8, 37827, Pitch_bend_c, 6, 4992
8, 37830, Pitch_bend_c, 6, 4352
8, 37833, Pitch_bend_c, 6, 3712
8, 37835, Pitch_bend_c, 6, 3072
8, 37838, Pitch_bend_c, 6, 2432
8, 37841, Pitch_bend_c, 6, 1920
8, 37844, Pitch_bend_c, 6, 1536
8, 37847, Pitch_bend_c, 6, 1280
8, 37850, Pitch_bend_c, 6, 896
8, 37852, Pitch_bend_c, 6, 512
8, 37855, Note_on_c, 6, 73, 109
8, 37857, Pitch_bend_c, 6, 256
8, 37860, Pitch_bend_c, 6, 0
8, 37881, Pitch_bend_c, 6, 256
8, 37884, Pitch_bend_c, 6, 512
8, 37887, Pitch_bend_c, 6, 1024
8, 37889, Pitch_bend_c, 6, 1792
8, 37892, Pitch_bend_c, 6, 2688
8, 37895, Pitch_bend_c, 6, 3968
8, 37898, Pitch_bend_c, 6, 5504
8, 37901, Pitch_bend_c, 6, 7168
8, 37904, Pitch_bend_c, 6, 8192
8, 37929, Note_on_c, 6, 73, 0
8, 37971, Note_on_c, 6, 71, 114
8, 38032, Note_on_c, 6, 71, 0
8, 38043, Pitch_bend_c, 6, 7936
8, 38046, Pitch_bend_c, 6, 7552
8, 38049, Pitch_bend_c, 6, 7040
8, 38051, Pitch_bend_c, 6, 6528
8, 38054, Pitch_bend_c, 6, 5888
8, 38057, Pitch_bend_c, 6, 5120
8, 38060, Pitch_bend_c, 6, 4480
8, 38063, Pitch_bend_c, 6, 3840
8, 38065, Pitch_bend_c, 6, 3072
8, 38069, Pitch_bend_c, 6, 2560
8, 38071, Pitch_bend_c, 6, 1920
8, 38074, Pitch_bend_c, 6, 1280
8, 38077, Pitch_bend_c, 6, 768
8, 38080, Pitch_bend_c, 6, 384
8, 38083, Pitch_bend_c, 6, 0
8, 38113, Note_on_c, 6, 71, 114
8, 38125, Pitch_bend_c, 6, 256
8, 38128, Pitch_bend_c, 6, 640
8, 38131, Pitch_bend_c, 6, 1024
8, 38134, Pitch_bend_c, 6, 1408
8, 38136, Pitch_bend_c, 6, 1792
8, 38139, Pitch_bend_c, 6, 2176
8, 38142, Pitch_bend_c, 6, 2560
8, 38144, Pitch_bend_c, 6, 2944
8, 38147, Pitch_bend_c, 6, 3328
8, 38150, Pitch_bend_c, 6, 3840
8, 38153, Pitch_bend_c, 6, 4352
8, 38156, Pitch_bend_c, 6, 5120
8, 38159, Pitch_bend_c, 6, 6272
8, 38162, Pitch_bend_c, 6, 7424
8, 38164, Pitch_bend_c, 6, 8192
8, 38405, Note_on_c, 6, 71, 0
8, 38408, Note_on_c, 6, 73, 95
8, 38441, Note_on_c, 6, 71, 91
8, 38453, Note_on_c, 6, 73, 0
8, 38521, Note_on_c, 6, 69, 109
8, 38527, Note_on_c, 6, 71, 0
8, 39097, Note_on_c, 6, 66, 92
8, 39097, Note_on_c, 6, 69, 0
8, 39113, Note_on_c, 6, 66, 0
8, 39501, Pitch_bend_c, 6, 7936
8, 39504, Pitch_bend_c, 6, 7680
8, 39507, Pitch_bend_c, 6, 7424
8, 39510, Pitch_bend_c, 6, 7040
8, 39512, Pitch_bend_c, 6, 6528
8, 39515, Pitch_bend_c, 6, 6144
8, 39518, Pitch_bend_c, 6, 5632
8, 39521, Pitch_bend_c, 6, 4992
8, 39523, Pitch_bend_c, 6, 4480
8, 39526, Pitch_bend_c, 6, 3968
8, 39529, Pitch_bend_c, 6, 3328
8, 39532, Pitch_bend_c, 6, 2816
8, 39535, Pitch_bend_c, 6, 2304
8, 39537, Pitch_bend_c, 6, 1792
8, 39540, Pitch_bend_c, 6, 1280
8, 39543, Pitch_bend_c, 6, 768
8, 39545, Pitch_bend_c, 6, 384
8, 39548, Pitch_bend_c, 6, 0
8, 39564, Note_on_c, 6, 71, 114
8, 39572, Control_c, 6, 1, 61
8, 39575, Control_c, 6, 1, 62
8, 39578, Control_c, 6, 1, 63
8, 39583, Control_c, 6, 1, 64
8, 39586, Pitch_bend_c, 6, 512
8, 39589, Control_c, 6, 1, 65
8, 39589, Pitch_bend_c, 6, 1408
8, 39592, Pitch_bend_c, 6, 2816
8, 39594, Control_c, 6, 1, 66
8, 39595, Pitch_bend_c, 6, 4608
8, 39597, Pitch_bend_c, 6, 6784
8, 39601, Pitch_bend_c, 6, 8192
8, 39603, Control_c, 6, 1, 67
8, 39611, Control_c, 6, 1, 68
8, 39620, Control_c, 6, 1, 69
8, 39625, Control_c, 6, 1, 70
8, 39634, Control_c, 6, 1, 72
8, 39645, Control_c, 6, 1, 73
8, 39656, Control_c, 6, 1, 74
8, 39662, Control_c, 6, 1, 75
8, 39668, Control_c, 6, 1, 76
8, 39676, Control_c, 6, 1, 77
8, 39687, Control_c, 6, 1, 78
8, 39701, Control_c, 6, 1, 79
8, 39760, Control_c, 6, 1, 78
8, 39814, Control_c, 6, 1, 77
8, 39839, Control_c, 6, 1, 76
8, 39846, Pitch_bend_c, 6, 8452
8, 39847, Control_c, 6, 1, 75
8, 39848, Pitch_bend_c, 6, 9232
8, 39851, Pitch_bend_c, 6, 10272
8, 39854, Pitch_bend_c, 6, 11572
8, 39855, Control_c, 6, 1, 74
8, 39857, Pitch_bend_c, 6, 12742
8, 39860, Pitch_bend_c, 6, 13912
8, 39862, Pitch_bend_c, 6, 15212
8, 39865, Pitch_bend_c, 6, 15472
8, 39868, Pitch_bend_c, 6, 14822
8, 39871, Pitch_bend_c, 6, 13652
8, 39874, Pitch_bend_c, 6, 11962
8, 39876, Pitch_bend_c, 6, 9622
8, 39877, Control_c, 6, 1, 73
8, 39879, Pitch_bend_c, 6, 8192
8, 39889, Control_c, 6, 1, 71
8, 39892, Control_c, 6, 1, 70
8, 39894, Control_c, 6, 1, 69
8, 39900, Control_c, 6, 1, 68
8, 39903, Control_c, 6, 1, 67
8, 39906, Control_c, 6, 1, 65
8, 39911, Control_c, 6, 1, 63
8, 39914, Control_c, 6, 1, 62
8, 39917, Control_c, 6, 1, 60
8, 39920, Control_c, 6, 1, 58
8, 39922, Control_c, 6, 1, 57
8, 39926, Control_c, 6, 1, 54
8, 39928, Control_c, 6, 1, 52
8, 39931, Control_c, 6, 1, 49
8, 39934, Control_c, 6, 1, 47
8, 39937, Control_c, 6, 1, 45
8, 39939, Control_c, 6, 1, 42
8, 39942, Control_c, 6, 1, 40
8, 39945, Control_c, 6, 1, 38
8, 39948, Control_c, 6, 1, 35
8, 39948, Note_on_c, 6, 69, 103
8, 39951, Control_c, 6, 1, 34
8, 39953, Control_c, 6, 1, 32
8, 39957, Control_c, 6, 1, 31
8, 39962, Control_c, 6, 1, 29
8, 39964, Note_on_c, 6, 71, 0
8, 39967, Control_c, 6, 1, 28
8, 39999, Control_c, 6, 1, 29
8, 40007, Control_c, 6, 1, 30
8, 40106, Control_c, 6, 1, 29
8, 40236, Control_c, 6, 1, 30
8, 40245, Control_c, 6, 1, 32
8, 40250, Control_c, 6, 1, 33
8, 40256, Control_c, 6, 1, 34
8, 40264, Control_c, 6, 1, 35
8, 40270, Control_c, 6, 1, 36
8, 40276, Control_c, 6, 1, 37
8, 40281, Control_c, 6, 1, 39
8, 40292, Control_c, 6, 1, 40
8, 40361, Control_c, 6, 1, 38
8, 40366, Control_c, 6, 1, 37
8, 40375, Control_c, 6, 1, 36
8, 40412, Note_on_c, 6, 69, 0
8, 40504, Note_on_c, 6, 66, 106
8, 40505, Control_c, 6, 1, 37
8, 40534, Note_on_c, 6, 66, 0
8, 40564, Note_on_c, 6, 68, 109
8, 40597, Note_on_c, 6, 68, 0
8, 40622, Control_c, 6, 1, 38
8, 40626, Note_on_c, 6, 69, 106
8, 40651, Control_c, 6, 1, 39
8, 40667, Pitch_bend_c, 6, 7936
8, 40669, Note_on_c, 6, 69, 0
8, 40670, Pitch_bend_c, 6, 7424
8, 40673, Pitch_bend_c, 6, 6784
8, 40676, Pitch_bend_c, 6, 6144
8, 40679, Pitch_bend_c, 6, 5504
8, 40682, Pitch_bend_c, 6, 4608
8, 40684, Pitch_bend_c, 6, 3840
8, 40687, Pitch_bend_c, 6, 3072
8, 40688, Control_c, 6, 1, 40
8, 40690, Pitch_bend_c, 6, 2432
8, 40693, Pitch_bend_c, 6, 1664
8, 40696, Pitch_bend_c, 6, 1024
8, 40698, Pitch_bend_c, 6, 640
8, 40699, Control_c, 6, 1, 41
8, 40702, Pitch_bend_c, 6, 128
8, 40704, Pitch_bend_c, 6, 0
8, 40707, Control_c, 6, 1, 42
8, 40707, Note_on_c, 6, 68, 109
8, 40719, Control_c, 6, 1, 43
8, 40727, Control_c, 6, 1, 45
8, 40731, Pitch_bend_c, 6, 384
8, 40733, Control_c, 6, 1, 46
8, 40734, Pitch_bend_c, 6, 768
8, 40737, Pitch_bend_c, 6, 1152
8, 40739, Pitch_bend_c, 6, 1664
8, 40741, Control_c, 6, 1, 47
8, 40742, Pitch_bend_c, 6, 1920
8, 40745, Pitch_bend_c, 6, 2432
8, 40748, Pitch_bend_c, 6, 2816
8, 40751, Pitch_bend_c, 6, 3200
8, 40752, Control_c, 6, 1, 48
8, 40753, Pitch_bend_c, 6, 3584
8, 40757, Pitch_bend_c, 6, 3840
8, 40759, Pitch_bend_c, 6, 4224
8, 40762, Pitch_bend_c, 6, 4608
8, 40764, Control_c, 6, 1, 50
8, 40765, Pitch_bend_c, 6, 4864
8, 40767, Pitch_bend_c, 6, 5376
8, 40770, Pitch_bend_c, 6, 5632
8, 40773, Pitch_bend_c, 6, 6016
8, 40775, Control_c, 6, 1, 51
8, 40776, Pitch_bend_c, 6, 6272
8, 40779, Pitch_bend_c, 6, 6528
8, 40782, Pitch_bend_c, 6, 6784
8, 40784, Pitch_bend_c, 6, 7040
8, 40787, Pitch_bend_c, 6, 7296
8, 40790, Pitch_bend_c, 6, 7552
8, 40793, Pitch_bend_c, 6, 7808
8, 40796, Pitch_bend_c, 6, 8192
8, 40806, Control_c, 6, 1, 52
8, 40878, Note_on_c, 6, 66, 114
8, 40880, Note_on_c, 6, 68, 0
8, 40933, Control_c, 6, 1, 51
8, 40956, Note_on_c, 6, 66, 0
8, 40968, Control_c, 6, 1, 50
8, 40979, Control_c, 6, 1, 49
8, 40987, Note_on_c, 6, 64, 109
8, 40999, Control_c, 6, 1, 47
8, 41019, Control_c, 6, 1, 46
8, 41038, Control_c, 6, 1, 45
8, 41047, Control_c, 6, 1, 44
8, 41061, Control_c, 6, 1, 43
8, 41075, Control_c, 6, 1, 42
8, 41087, Control_c, 6, 1, 41
8, 41098, Control_c, 6, 1, 40
8, 41112, Control_c, 6, 1, 39
8, 41318, Note_on_c, 6, 64, 0
8, 41359, Note_on_c, 6, 56, 99
8, 41401, Note_on_c, 6, 56, 0
8, 41421, Note_on_c, 6, 57, 98
8, 41460, Note_on_c, 6, 57, 0
8, 41466, Control_c, 6, 1, 40
8, 41484, Control_c, 6, 1, 41
8, 41504, Control_c, 6, 1, 42
8, 41515, Control_c, 6, 1, 43
8, 41515, Pitch_bend_c, 6, 7936
8, 41518, Pitch_bend_c, 6, 7552
8, 41520, Pitch_bend_c, 6, 7040
8, 41524, Pitch_bend_c, 6, 6528
8, 41526, Pitch_bend_c, 6, 5760
8, 41528, Control_c, 6, 1, 44
8, 41529, Pitch_bend_c, 6, 4992
8, 41532, Pitch_bend_c, 6, 4224
8, 41535, Pitch_bend_c, 6, 3328
8, 41538, Pitch_bend_c, 6, 2560
8, 41540, Pitch_bend_c, 6, 1792
8, 41543, Control_c, 6, 1, 45
8, 41544, Pitch_bend_c, 6, 896
8, 41546, Pitch_bend_c, 6, 384
8, 41549, Note_on_c, 6, 66, 111
8, 41551, Pitch_bend_c, 6, 0
8, 41557, Control_c, 6, 1, 46
8, 41571, Control_c, 6, 1, 47
8, 41574, Pitch_bend_c, 6, 256
8, 41577, Pitch_bend_c, 6, 512
8, 41579, Pitch_bend_c, 6, 1024
8, 41582, Pitch_bend_c, 6, 1664
8, 41585, Pitch_bend_c, 6, 2304
8, 41588, Pitch_bend_c, 6, 3072
8, 41591, Pitch_bend_c, 6, 3712
8, 41594, Pitch_bend_c, 6, 4608
8, 41596, Pitch_bend_c, 6, 5376
8, 41599, Pitch_bend_c, 6, 6144
8, 41602, Pitch_bend_c, 6, 6784
8, 41604, Pitch_bend_c, 6, 7296
8, 41605, Control_c, 6, 1, 48
8, 41607, Pitch_bend_c, 6, 7936
8, 41610, Pitch_bend_c, 6, 8192
8, 41639, Control_c, 6, 1, 49
8, 41661, Control_c, 6, 1, 50
8, 41696, Control_c, 6, 1, 52
8, 41710, Control_c, 6, 1, 53
8, 41738, Control_c, 6, 1, 54
8, 41777, Control_c, 6, 1, 55
8, 41811, Control_c, 6, 1, 56
8, 41860, Control_c, 6, 1, 57
8, 41973, Control_c, 6, 1, 56
8, 41993, Control_c, 6, 1, 55
8, 42004, Control_c, 6, 1, 54
8, 42024, Control_c, 6, 1, 53
8, 42102, Note_on_c, 6, 66, 0
8, 42111, Control_c, 6, 1, 54
8, 42119, Control_c, 6, 1, 55
8, 42131, Control_c, 6, 1, 56
8, 42135, Note_on_c, 6, 66, 101
8, 42140, Control_c, 6, 1, 57
8, 42154, Control_c, 6, 1, 58
8, 42155, Pitch_bend_c, 6, 8192
8, 42158, Pitch_bend_c, 6, 8842
8, 42161, Pitch_bend_c, 6, 9622
8, 42163, Pitch_bend_c, 6, 10532
8, 42166, Pitch_bend_c, 6, 11572
8, 42169, Control_c, 6, 1, 59
8, 42169, Pitch_bend_c, 6, 12482
8, 42172, Pitch_bend_c, 6, 13262
8, 42175, Pitch_bend_c, 6, 13912
8, 42177, Pitch_bend_c, 6, 13652
8, 42180, Pitch_bend_c, 6, 12612
8, 42183, Pitch_bend_c, 6, 10662
8, 42186, Pitch_bend_c, 6, 8452
8, 42189, Pitch_bend_c, 6, 8192
8, 42294, Note_on_c, 6, 64, 102
8, 42303, Note_on_c, 6, 66, 0
8, 42342, Control_c, 6, 1, 60
8, 42356, Control_c, 6, 1, 61
8, 42367, Control_c, 6, 1, 62
8, 42378, Control_c, 6, 1, 63
8, 42393, Control_c, 6, 1, 64
8, 42457, Control_c, 6, 1, 65
8, 42483, Control_c, 6, 1, 67
8, 42491, Control_c, 6, 1, 68
8, 42499, Control_c, 6, 1, 69
8, 42508, Control_c, 6, 1, 70
8, 42516, Control_c, 6, 1, 71
8, 42530, Control_c, 6, 1, 72
8, 42542, Control_c, 6, 1, 73
8, 42550, Control_c, 6, 1, 74
8, 42556, Control_c, 6, 1, 75
8, 42557, Note_on_c, 6, 66, 94
8, 42564, Control_c, 6, 1, 76
8, 42566, Note_on_c, 6, 64, 0
8, 42589, Note_on_c, 6, 66, 0
8, 42607, Control_c, 6, 1, 75
8, 42802, Note_on_c, 6, 64, 109
8, 42840, Note_on_c, 6, 64, 0
8, 42852, Note_on_c, 6, 66, 86
8, 42899, Note_on_c, 6, 69, 106
8, 42901, Note_on_c, 6, 66, 0
8, 42934, Note_on_c, 6, 69, 0
8, 42991, Pitch_bend_c, 6, 7936
8, 42993, Pitch_bend_c, 6, 7552
8, 42996, Pitch_bend_c, 6, 7168
8, 42999, Pitch_bend_c, 6, 6784
8, 43002, Pitch_bend_c, 6, 6272
8, 43005, Pitch_bend_c, 6, 5760
8, 43008, Pitch_bend_c, 6, 5120
8, 43010, Pitch_bend_c, 6, 4608
8, 43013, Pitch_bend_c, 6, 4096
8, 43016, Note_on_c, 6, 73, 109
8, 43017, Pitch_bend_c, 6, 3328
8, 43020, Pitch_bend_c, 6, 2944
8, 43023, Pitch_bend_c, 6, 2432
8, 43026, Pitch_bend_c, 6, 2048
8, 43029, Pitch_bend_c, 6, 1664
8, 43032, Pitch_bend_c, 6, 1408
8, 43034, Pitch_bend_c, 6, 1152
8, 43037, Pitch_bend_c, 6, 896
8, 43040, Pitch_bend_c, 6, 768
8, 43046, Pitch_bend_c, 6, 640
8, 43054, Pitch_bend_c, 6, 768
8, 43057, Pitch_bend_c, 6, 896
8, 43060, Pitch_bend_c, 6, 1152
8, 43062, Pitch_bend_c, 6, 1536
8, 43066, Pitch_bend_c, 6, 1792
8, 43068, Pitch_bend_c, 6, 2176
8, 43071, Pitch_bend_c, 6, 2560
8, 43074, Pitch_bend_c, 6, 2944
8, 43077, Pitch_bend_c, 6, 3328
8, 43079, Pitch_bend_c, 6, 3840
8, 43082, Pitch_bend_c, 6, 4224
8, 43085, Pitch_bend_c, 6, 4736
8, 43088, Pitch_bend_c, 6, 5376
8, 43091, Pitch_bend_c, 6, 5760
8, 43093, Pitch_bend_c, 6, 6144
8, 43096, Pitch_bend_c, 6, 6400
8, 43099, Pitch_bend_c, 6, 6784
8, 43102, Pitch_bend_c, 6, 7040
8, 43105, Pitch_bend_c, 6, 7168
8, 43107, Pitch_bend_c, 6, 7424
8, 43110, Pitch_bend_c, 6, 7552
8, 43116, Pitch_bend_c, 6, 7680
8, 43127, Pitch_bend_c, 6, 7808
8, 43145, Pitch_bend_c, 6, 7680
8, 43147, Pitch_bend_c, 6, 7424
8, 43150, Pitch_bend_c, 6, 7040
8, 43153, Pitch_bend_c, 6, 6528
8, 43156, Pitch_bend_c, 6, 6144
8, 43159, Pitch_bend_c, 6, 5632
8, 43162, Pitch_bend_c, 6, 4992
8, 43164, Pitch_bend_c, 6, 4352
8, 43167, Pitch_bend_c, 6, 3968
8, 43170, Pitch_bend_c, 6, 3456
8, 43172, Pitch_bend_c, 6, 2944
8, 43175, Pitch_bend_c, 6, 2560
8, 43178, Pitch_bend_c, 6, 2048
8, 43181, Pitch_bend_c, 6, 1664
8, 43184, Pitch_bend_c, 6, 1280
8, 43187, Pitch_bend_c, 6, 1024
8, 43189, Pitch_bend_c, 6, 768
8, 43192, Pitch_bend_c, 6, 640
8, 43206, Pitch_bend_c, 6, 896
8, 43209, Pitch_bend_c, 6, 1280
8, 43212, Pitch_bend_c, 6, 1664
8, 43215, Pitch_bend_c, 6, 1920
8, 43217, Pitch_bend_c, 6, 2432
8, 43220, Pitch_bend_c, 6, 2944
8, 43223, Pitch_bend_c, 6, 3456
8, 43226, Pitch_bend_c, 6, 4096
8, 43229, Pitch_bend_c, 6, 4608
8, 43232, Pitch_bend_c, 6, 5376
8, 43235, Pitch_bend_c, 6, 5760
8, 43237, Pitch_bend_c, 6, 6272
8, 43240, Pitch_bend_c, 6, 6784
8, 43243, Pitch_bend_c, 6, 7168
8, 43246, Pitch_bend_c, 6, 7424
8, 43248, Pitch_bend_c, 6, 7680
8, 43251, Pitch_bend_c, 6, 7936
8, 43254, Pitch_bend_c, 6, 8064
8, 43257, Pitch_bend_c, 6, 8192
8, 43263, Pitch_bend_c, 6, 8192
8, 43606, Control_c, 6, 1, 0
8, 43608, Control_c, 6, 1, 5
8, 43611, Control_c, 6, 1, 8
8, 43614, Control_c, 6, 1, 11
8, 43617, Control_c, 6, 1, 15
8, 43619, Control_c, 6, 1, 18
8, 43622, Control_c, 6, 1, 21
8, 43624, Control_c, 6, 1, 24
8, 43627, Control_c, 6, 1, 27
8, 43629, Control_c, 6, 1, 29
8, 43633, Control_c, 6, 1, 31
8, 43635, Control_c, 6, 1, 33
8, 43638, Control_c, 6, 1, 35
8, 43641, Control_c, 6, 1, 36
8, 43643, Control_c, 6, 1, 39
8, 43644, Note_on_c, 6, 73, 0
8, 43646, Control_c, 6, 1, 40
8, 43649, Control_c, 6, 1, 41
8, 43652, Control_c, 6, 1, 43
8, 43655, Control_c, 6, 1, 44
8, 43658, Control_c, 6, 1, 45
8, 43660, Control_c, 6, 1, 46
8, 43666, Control_c, 6, 1, 47
8, 43689, Control_c, 6, 1, 45
8, 43692, Control_c, 6, 1, 44
8, 43694, Control_c, 6, 1, 42
8, 43697, Control_c, 6, 1, 40
8, 43698, Pitch_bend_c, 6, 7936
8, 43700, Control_c, 6, 1, 38
8, 43700, Pitch_bend_c, 6, 7680
8, 43703, Control_c, 6, 1, 35
8, 43703, Pitch_bend_c, 6, 7296
8, 43706, Control_c, 6, 1, 32
8, 43706, Pitch_bend_c, 6, 6784
8, 43708, Control_c, 6, 1, 29
8, 43709, Pitch_bend_c, 6, 6272
8, 43711, Control_c, 6, 1, 26
8, 43712, Pitch_bend_c, 6, 5760
8, 43713, Control_c, 6, 1, 22
8, 43715, Pitch_bend_c, 6, 5120
8, 43716, Control_c, 6, 1, 19
8, 43717, Control_c, 6, 1, 0
8, 43718, Pitch_bend_c, 6, 4608
8, 43719, Control_c, 6, 1, 14
8, 43720, Pitch_bend_c, 6, 4096
8, 43722, Control_c, 6, 1, 9
8, 43723, Pitch_bend_c, 6, 3456
8, 43725, Control_c, 6, 1, 3
8, 43725, Control_c, 6, 1, 3
8, 43726, Pitch_bend_c, 6, 2944
8, 43727, Control_c, 6, 1, 0
8, 43728, Control_c, 6, 1, 4
8, 43729, Pitch_bend_c, 6, 2432
8, 43731, Pitch_bend_c, 6, 1920
8, 43733, Control_c, 6, 1, 5
8, 43735, Pitch_bend_c, 6, 1408
8, 43736, Control_c, 6, 1, 6
8, 43737, Pitch_bend_c, 6, 896
8, 43740, Pitch_bend_c, 6, 512
8, 43742, Control_c, 6, 1, 8
8, 43743, Pitch_bend_c, 6, 256
8, 43746, Pitch_bend_c, 6, 0
8, 43748, Control_c, 6, 1, 9
8, 43753, Control_c, 6, 1, 10
8, 43765, Control_c, 6, 1, 11
8, 43765, Note_on_c, 6, 71, 112
8, 43773, Control_c, 6, 1, 12
8, 43779, Pitch_bend_c, 6, 384
8, 43781, Pitch_bend_c, 6, 640
8, 43784, Control_c, 6, 1, 13
8, 43784, Pitch_bend_c, 6, 896
8, 43787, Pitch_bend_c, 6, 1280
8, 43790, Pitch_bend_c, 6, 1536
8, 43793, Pitch_bend_c, 6, 1792
8, 43795, Pitch_bend_c, 6, 2048
8, 43798, Control_c, 6, 1, 14
8, 43798, Pitch_bend_c, 6, 2432
8, 43801, Pitch_bend_c, 6, 2688
8, 43804, Pitch_bend_c, 6, 2944
8, 43807, Pitch_bend_c, 6, 3200
8, 43810, Pitch_bend_c, 6, 3456
8, 43812, Pitch_bend_c, 6, 3712
8, 43813, Control_c, 6, 1, 15
8, 43815, Pitch_bend_c, 6, 4096
8, 43818, Pitch_bend_c, 6, 4352
8, 43820, Pitch_bend_c, 6, 4736
8, 43824, Pitch_bend_c, 6, 5376
8, 43826, Pitch_bend_c, 6, 6016
8, 43829, Pitch_bend_c, 6, 7040
8, 43832, Pitch_bend_c, 6, 8192
8, 43872, Control_c, 6, 1, 14
8, 43883, Control_c, 6, 1, 13
8, 43885, Note_on_c, 6, 71, 0
8, 43892, Control_c, 6, 1, 12
8, 43901, Control_c, 6, 1, 10
8, 43905, Note_on_c, 6, 69, 97
8, 43906, Control_c, 6, 1, 9
8, 43909, Control_c, 6, 1, 8
8, 43912, Control_c, 6, 1, 7
8, 43914, Control_c, 6, 1, 5
8, 43918, Control_c, 6, 1, 4
8, 43923, Control_c, 6, 1, 0
8, 43929, Control_c, 6, 1, 0
8, 43991, Note_on_c, 6, 69, 0
8, 44009, Note_on_c, 6, 71, 121
8, 44138, Control_c, 6, 1, 0
8, 44150, Control_c, 6, 1, 3
8, 44153, Note_on_c, 6, 73, 114
8, 44155, Control_c, 6, 1, 4
8, 44166, Note_on_c, 6, 71, 0
8, 44167, Control_c, 6, 1, 5
8, 44172, Control_c, 6, 1, 6
8, 44178, Control_c, 6, 1, 8
8, 44183, Control_c, 6, 1, 9
8, 44189, Control_c, 6, 1, 10
8, 44203, Control_c, 6, 1, 11
8, 44217, Control_c, 6, 1, 12
8, 44226, Control_c, 6, 1, 13
8, 44243, Control_c, 6, 1, 14
8, 44260, Control_c, 6, 1, 15
8, 44268, Control_c, 6, 1, 16
8, 44274, Control_c, 6, 1, 18
8, 44286, Control_c, 6, 1, 19
8, 44297, Control_c, 6, 1, 20
8, 44308, Control_c, 6, 1, 21
8, 44320, Control_c, 6, 1, 22
8, 44325, Control_c, 6, 1, 23
8, 44331, Control_c, 6, 1, 24
8, 44336, Control_c, 6, 1, 25
8, 44354, Control_c, 6, 1, 26
8, 44362, Control_c, 6, 1, 27
8, 44371, Control_c, 6, 1, 28
8, 44379, Control_c, 6, 1, 30
8, 44392, Control_c, 6, 1, 31
8, 44409, Control_c, 6, 1, 32
8, 44435, Control_c, 6, 1, 33
8, 44446, Control_c, 6, 1, 34
8, 44461, Control_c, 6, 1, 35
8, 44479, Control_c, 6, 1, 36
8, 44491, Control_c, 6, 1, 37
8, 44525, Control_c, 6, 1, 35
8, 44530, Control_c, 6, 1, 34
8, 44533, Control_c, 6, 1, 33
8, 44536, Control_c, 6, 1, 32
8, 44538, Control_c, 6, 1, 31
8, 44541, Control_c, 6, 1, 29
8, 44542, Note_on_c, 6, 71, 114
8, 44544, Control_c, 6, 1, 28
8, 44547, Control_c, 6, 1, 27
8, 44550, Control_c, 6, 1, 25
8, 44552, Control_c, 6, 1, 24
8, 44554, Note_on_c, 6, 73, 0
8, 44556, Control_c, 6, 1, 22
8, 44561, Control_c, 6, 1, 21
8, 44564, Control_c, 6, 1, 20
8, 44567, Control_c, 6, 1, 19
8, 44572, Control_c, 6, 1, 17
8, 44576, Control_c, 6, 1, 16
8, 44578, Control_c, 6, 1, 15
8, 44584, Control_c, 6, 1, 13
8, 44590, Control_c, 6, 1, 11
8, 44595, Control_c, 6, 1, 10
8, 44601, Control_c, 6, 1, 9
8, 44606, Control_c, 6, 1, 8
8, 44615, Control_c, 6, 1, 7
8, 44623, Control_c, 6, 1, 6
8, 44632, Control_c, 6, 1, 5
8, 44663, Note_on_c, 6, 69, 112
8, 44667, Note_on_c, 6, 71, 0
8, 44694, Control_c, 6, 1, 6
8, 44700, Control_c, 6, 1, 7
8, 44705, Control_c, 6, 1, 8
8, 44714, Control_c, 6, 1, 9
8, 44723, Control_c, 6, 1, 11
8, 44734, Control_c, 6, 1, 12
8, 44740, Control_c, 6, 1, 13
8, 44748, Control_c, 6, 1, 14
8, 44760, Control_c, 6, 1, 15
8, 44771, Control_c, 6, 1, 17
8, 44776, Control_c, 6, 1, 18
8, 44785, Control_c, 6, 1, 19
8, 44790, Control_c, 6, 1, 21
8, 44799, Control_c, 6, 1, 22
8, 44810, Control_c, 6, 1, 23
8, 44821, Control_c, 6, 1, 24
8, 44827, Control_c, 6, 1, 25
8, 44839, Control_c, 6, 1, 26
8, 44884, Control_c, 6, 1, 27
8, 44923, Control_c, 6, 1, 26
8, 44934, Control_c, 6, 1, 25
8, 44939, Control_c, 6, 1, 24
8, 44945, Control_c, 6, 1, 22
8, 44951, Control_c, 6, 1, 21
8, 44954, Control_c, 6, 1, 19
8, 44956, Control_c, 6, 1, 18
8, 44958, Pitch_bend_c, 6, 8192
8, 44959, Control_c, 6, 1, 16
8, 44961, Pitch_bend_c, 6, 7936
8, 44962, Control_c, 6, 1, 15
8, 44963, Pitch_bend_c, 6, 7680
8, 44965, Control_c, 6, 1, 13
8, 44966, Pitch_bend_c, 6, 7296
8, 44968, Control_c, 6, 1, 12
8, 44969, Pitch_bend_c, 6, 6912
8, 44970, Note_on_c, 6, 69, 0
8, 44971, Control_c, 6, 1, 11
8, 44972, Pitch_bend_c, 6, 6400
8, 44975, Pitch_bend_c, 6, 6016
8, 44977, Pitch_bend_c, 6, 5504
8, 44979, Control_c, 6, 1, 10
8, 44980, Pitch_bend_c, 6, 4864
8, 44983, Pitch_bend_c, 6, 4224
8, 44986, Pitch_bend_c, 6, 3712
8, 44988, Pitch_bend_c, 6, 2944
8, 44991, Pitch_bend_c, 6, 2304
8, 44994, Pitch_bend_c, 6, 1536
8, 44996, Control_c, 6, 1, 11
8, 44997, Pitch_bend_c, 6, 768
8, 45000, Pitch_bend_c, 6, 256
8, 45002, Control_c, 6, 1, 12
8, 45003, Pitch_bend_c, 6, 0
8, 45007, Control_c, 6, 1, 14
8, 45013, Control_c, 6, 1, 15
8, 45016, Control_c, 6, 1, 16
8, 45019, Control_c, 6, 1, 18
8, 45024, Control_c, 6, 1, 20
8, 45025, Note_on_c, 6, 73, 109
8, 45027, Control_c, 6, 1, 21
8, 45030, Control_c, 6, 1, 22
8, 45033, Control_c, 6, 1, 24
8, 45035, Control_c, 6, 1, 25
8, 45039, Control_c, 6, 1, 26
8, 45041, Control_c, 6, 1, 27
8, 45047, Control_c, 6, 1, 29
8, 45052, Control_c, 6, 1, 30
8, 45056, Pitch_bend_c, 6, 256
8, 45058, Pitch_bend_c, 6, 640
8, 45061, Pitch_bend_c, 6, 1152
8, 45064, Control_c, 6, 1, 31
8, 45064, Pitch_bend_c, 6, 1792
8, 45067, Pitch_bend_c, 6, 2304
8, 45070, Pitch_bend_c, 6, 2816
8, 45072, Control_c, 6, 1, 32
8, 45072, Pitch_bend_c, 6, 3456
8, 45075, Pitch_bend_c, 6, 4352
8, 45078, Control_c, 6, 1, 34
8, 45078, Pitch_bend_c, 6, 5760
8, 45081, Pitch_bend_c, 6, 7168
8, 45084, Control_c, 6, 1, 35
8, 45084, Pitch_bend_c, 6, 8192
8, 45092, Control_c, 6, 1, 36
8, 45104, Control_c, 6, 1, 37
8, 45115, Control_c, 6, 1, 38
8, 45119, Note_on_c, 6, 73, 0
8, 45126, Control_c, 6, 1, 39
8, 45132, Control_c, 6, 1, 40
8, 45140, Control_c, 6, 1, 41
8, 45157, Control_c, 6, 1, 42
8, 45170, Note_on_c, 6, 76, 125
8, 45175, Control_c, 6, 1, 43
8, 45212, Control_c, 6, 1, 44
8, 45241, Note_on_c, 6, 76, 0
8, 45265, Pitch_bend_c, 6, 7936
8, 45268, Pitch_bend_c, 6, 7552
8, 45270, Pitch_bend_c, 6, 7040
8, 45273, Pitch_bend_c, 6, 6400
8, 45276, Pitch_bend_c, 6, 5760
8, 45279, Pitch_bend_c, 6, 4992
8, 45282, Pitch_bend_c, 6, 4224
8, 45285, Pitch_bend_c, 6, 3328
8, 45287, Pitch_bend_c, 6, 2560
8, 45290, Pitch_bend_c, 6, 1792
8, 45293, Pitch_bend_c, 6, 1152
8, 45296, Pitch_bend_c, 6, 512
8, 45299, Pitch_bend_c, 6, 0
8, 45315, Note_on_c, 6, 78, 125
8, 45318, Control_c, 6, 1, 45
8, 45330, Control_c, 6, 1, 47
8, 45344, Control_c, 6, 1, 48
8, 45356, Pitch_bend_c, 6, 128
8, 45358, Control_c, 6, 1, 49
8, 45359, Pitch_bend_c, 6, 512
8, 45361, Pitch_bend_c, 6, 768
8, 45364, Pitch_bend_c, 6, 1280
8, 45367, Pitch_bend_c, 6, 1792
8, 45369, Control_c, 6, 1, 50
8, 45370, Pitch_bend_c, 6, 2176
8, 45373, Pitch_bend_c, 6, 2688
8, 45375, Pitch_bend_c, 6, 3200
8, 45378, Pitch_bend_c, 6, 3840
8, 45381, Control_c, 6, 1, 51
8, 45381, Pitch_bend_c, 6, 4736
8, 45384, Pitch_bend_c, 6, 6144
8, 45387, Pitch_bend_c, 6, 7808
8, 45389, Pitch_bend_c, 6, 8192
8, 45417, Control_c, 6, 1, 52
8, 45451, Control_c, 6, 1, 53
8, 45471, Control_c, 6, 1, 54
8, 45491, Control_c, 6, 1, 55
8, 45502, Control_c, 6, 1, 56
8, 45513, Control_c, 6, 1, 57
8, 45601, Note_on_c, 6, 73, 109
8, 45618, Control_c, 6, 1, 58
8, 45623, Note_on_c, 6, 78, 0
8, 45641, Note_on_c, 6, 73, 0
8, 45657, Control_c, 6, 1, 57
8, 45666, Control_c, 6, 1, 56
8, 45674, Control_c, 6, 1, 55
8, 45680, Control_c, 6, 1, 53
8, 45685, Control_c, 6, 1, 52
8, 45688, Control_c, 6, 1, 51
8, 45691, Control_c, 6, 1, 50
8, 45694, Control_c, 6, 1, 49
8, 45697, Note_on_c, 6, 76, 109
8, 45700, Control_c, 6, 1, 47
8, 45705, Control_c, 6, 1, 46
8, 45708, Control_c, 6, 1, 45
8, 45714, Control_c, 6, 1, 43
8, 45719, Control_c, 6, 1, 41
8, 45725, Control_c, 6, 1, 39
8, 45731, Control_c, 6, 1, 37
8, 45734, Control_c, 6, 1, 36
8, 45736, Control_c, 6, 1, 35
8, 45739, Control_c, 6, 1, 33
8, 45742, Control_c, 6, 1, 32
8, 45748, Control_c, 6, 1, 30
8, 45751, Control_c, 6, 1, 29
8, 45753, Control_c, 6, 1, 28
8, 45759, Control_c, 6, 1, 26
8, 45759, Note_on_c, 6, 76, 0
8, 45765, Control_c, 6, 1, 24
8, 45767, Control_c, 6, 1, 22
8, 45771, Control_c, 6, 1, 21
8, 45776, Control_c, 6, 1, 20
8, 45779, Control_c, 6, 1, 19
8, 45785, Control_c, 6, 1, 17
8, 45787, Control_c, 6, 1, 16
8, 45793, Control_c, 6, 1, 15
8, 45807, Control_c, 6, 1, 14
8, 45807, Note_on_c, 6, 76, 117
8, 45870, Control_c, 6, 1, 15
8, 45881, Control_c, 6, 1, 16
8, 45926, Control_c, 6, 1, 17
8, 45940, Control_c, 6, 1, 18
8, 45960, Control_c, 6, 1, 19
8, 45971, Control_c, 6, 1, 20
8, 45982, Control_c, 6, 1, 21
8, 45994, Control_c, 6, 1, 22
8, 46007, Pitch_bend_c, 6, 8064
8, 46008, Control_c, 6, 1, 23
8, 46010, Pitch_bend_c, 6, 7936
8, 46012, Pitch_bend_c, 6, 7808
8, 46015, Pitch_bend_c, 6, 7552
8, 46018, Pitch_bend_c, 6, 7296
8, 46021, Pitch_bend_c, 6, 7040
8, 46022, Control_c, 6, 1, 24
8, 46024, Pitch_bend_c, 6, 6784
8, 46027, Pitch_bend_c, 6, 6400
8, 46029, Pitch_bend_c, 6, 6016
8, 46032, Pitch_bend_c, 6, 5632
8, 46034, Control_c, 6, 1, 25
8, 46035, Pitch_bend_c, 6, 4992
8, 46038, Pitch_bend_c, 6, 4480
8, 46041, Pitch_bend_c, 6, 3968
8, 46043, Pitch_bend_c, 6, 3328
8, 46046, Pitch_bend_c, 6, 2688
8, 46048, Control_c, 6, 1, 27
8, 46049, Pitch_bend_c, 6, 2176
8, 46052, Pitch_bend_c, 6, 1536
8, 46054, Control_c, 6, 1, 28
8, 46055, Pitch_bend_c, 6, 896
8, 46057, Pitch_bend_c, 6, 512
8, 46061, Pitch_bend_c, 6, 0
8, 46063, Control_c, 6, 1, 29
8, 46064, Note_on_c, 6, 76, 0
8, 46071, Control_c, 6, 1, 31
8, 46077, Note_on_c, 6, 73, 114
8, 46080, Control_c, 6, 1, 32
8, 46088, Control_c, 6, 1, 33
8, 46094, Control_c, 6, 1, 34
8, 46102, Control_c, 6, 1, 35
8, 46107, Pitch_bend_c, 6, 128
8, 46110, Pitch_bend_c, 6, 640
8, 46111, Control_c, 6, 1, 36
8, 46113, Pitch_bend_c, 6, 1152
8, 46116, Pitch_bend_c, 6, 1664
8, 46118, Pitch_bend_c, 6, 2304
8, 46119, Control_c, 6, 1, 38
8, 46121, Pitch_bend_c, 6, 2816
8, 46124, Pitch_bend_c, 6, 3328
8, 46127, Pitch_bend_c, 6, 3840
8, 46128, Control_c, 6, 1, 39
8, 46130, Pitch_bend_c, 6, 4224
8, 46132, Pitch_bend_c, 6, 4608
8, 46136, Pitch_bend_c, 6, 4992
8, 46138, Pitch_bend_c, 6, 5504
8, 46141, Pitch_bend_c, 6, 5760
8, 46142, Control_c, 6, 1, 40
8, 46144, Pitch_bend_c, 6, 6016
8, 46147, Pitch_bend_c, 6, 6272
8, 46150, Pitch_bend_c, 6, 6400
8, 46152, Pitch_bend_c, 6, 6656
8, 46153, Control_c, 6, 1, 41
8, 46155, Pitch_bend_c, 6, 6784
8, 46158, Pitch_bend_c, 6, 7040
8, 46161, Pitch_bend_c, 6, 7168
8, 46162, Control_c, 6, 1, 42
8, 46164, Pitch_bend_c, 6, 7296
8, 46167, Pitch_bend_c, 6, 7424
8, 46169, Pitch_bend_c, 6, 7552
8, 46170, Control_c, 6, 1, 43
8, 46175, Pitch_bend_c, 6, 7808
8, 46178, Control_c, 6, 1, 44
8, 46187, Control_c, 6, 1, 46
8, 46195, Control_c, 6, 1, 47
8, 46207, Control_c, 6, 1, 48
8, 46218, Control_c, 6, 1, 49
8, 46226, Pitch_bend_c, 6, 7936
8, 46230, Control_c, 6, 1, 50
8, 46238, Control_c, 6, 1, 51
8, 46240, Pitch_bend_c, 6, 8064
8, 46246, Control_c, 6, 1, 52
8, 46246, Pitch_bend_c, 6, 8192
8, 46263, Control_c, 6, 1, 53
8, 46275, Control_c, 6, 1, 54
8, 46286, Control_c, 6, 1, 56
8, 46297, Control_c, 6, 1, 57
8, 46309, Control_c, 6, 1, 58
8, 46319, Control_c, 6, 1, 59
8, 46334, Control_c, 6, 1, 60
8, 46348, Control_c, 6, 1, 61
8, 46357, Control_c, 6, 1, 62
8, 46368, Control_c, 6, 1, 63
8, 46391, Control_c, 6, 1, 64
8, 46404, Control_c, 6, 1, 65
8, 46422, Control_c, 6, 1, 66
8, 46430, Control_c, 6, 1, 67
8, 46442, Control_c, 6, 1, 68
8, 46461, Note_on_c, 6, 73, 0
8, 46545, Note_on_c, 6, 71, 93
8, 46564, Note_on_c, 6, 73, 101
8, 46566, Control_c, 6, 1, 67
8, 46572, Control_c, 6, 1, 66
8, 46577, Control_c, 6, 1, 65
8, 46582, Note_on_c, 6, 71, 0
8, 46583, Control_c, 6, 1, 63
8, 46586, Control_c, 6, 1, 62
8, 46588, Control_c, 6, 1, 60
8, 46592, Control_c, 6, 1, 59
8, 46594, Control_c, 6, 1, 57
8, 46597, Control_c, 6, 1, 54
8, 46600, Control_c, 6, 1, 51
8, 46602, Note_on_c, 6, 73, 0
8, 46603, Control_c, 6, 1, 47
8, 46605, Control_c, 6, 1, 42
8, 46608, Control_c, 6, 1, 35
8, 46611, Control_c, 6, 1, 28
8, 46614, Control_c, 6, 1, 19
8, 46617, Control_c, 6, 1, 7
8, 46620, Control_c, 6, 1, 0
8, 46647, Note_on_c, 6, 71, 106
8, 46687, Note_on_c, 6, 73, 98
8, 46731, Note_on_c, 6, 73, 0
8, 46754, Note_on_c, 6, 69, 101
8, 46764, Note_on_c, 6, 71, 0
8, 46803, Note_on_c, 6, 69, 0
8, 46866, Note_on_c, 6, 69, 101
8, 46902, Note_on_c, 6, 71, 98
8, 46944, Note_on_c, 6, 69, 0
8, 47012, Control_c, 6, 1, 0
8, 47015, Control_c, 6, 1, 3
8, 47018, Control_c, 6, 1, 5
8, 47020, Control_c, 6, 1, 8
8, 47024, Control_c, 6, 1, 11
8, 47026, Control_c, 6, 1, 13
8, 47029, Control_c, 6, 1, 16
8, 47032, Control_c, 6, 1, 19
8, 47034, Control_c, 6, 1, 21
8, 47037, Control_c, 6, 1, 23
8, 47041, Control_c, 6, 1, 26
8, 47043, Control_c, 6, 1, 28
8, 47046, Control_c, 6, 1, 31
8, 47049, Control_c, 6, 1, 32
8, 47052, Control_c, 6, 1, 34
8, 47054, Control_c, 6, 1, 36
8, 47057, Control_c, 6, 1, 38
8, 47060, Control_c, 6, 1, 40
8, 47063, Control_c, 6, 1, 41
8, 47065, Control_c, 6, 1, 43
8, 47069, Control_c, 6, 1, 44
8, 47071, Control_c, 6, 1, 46
8, 47074, Control_c, 6, 1, 47
8, 47080, Control_c, 6, 1, 48
8, 47083, Control_c, 6, 1, 49
8, 47085, Control_c, 6, 1, 51
8, 47088, Control_c, 6, 1, 52
8, 47094, Control_c, 6, 1, 53
8, 47099, Control_c, 6, 1, 55
8, 47105, Control_c, 6, 1, 57
8, 47111, Control_c, 6, 1, 58
8, 47117, Control_c, 6, 1, 60
8, 47119, Control_c, 6, 1, 62
8, 47122, Control_c, 6, 1, 63
8, 47128, Control_c, 6, 1, 65
8, 47130, Control_c, 6, 1, 66
8, 47133, Control_c, 6, 1, 67
8, 47136, Control_c, 6, 1, 69
8, 47139, Control_c, 6, 1, 70
8, 47142, Control_c, 6, 1, 72
8, 47144, Control_c, 6, 1, 73
8, 47147, Control_c, 6, 1, 74
8, 47149, Control_c, 6, 1, 76
8, 47152, Control_c, 6, 1, 77
8, 47158, Control_c, 6, 1, 79
8, 47161, Control_c, 6, 1, 81
8, 47166, Control_c, 6, 1, 82
8, 47169, Control_c, 6, 1, 83
8, 47175, Control_c, 6, 1, 84
8, 47180, Control_c, 6, 1, 86
8, 47189, Control_c, 6, 1, 87
8, 47223, Control_c, 6, 1, 86
8, 47224, Note_on_c, 6, 69, 98
8, 47228, Control_c, 6, 1, 84
8, 47234, Control_c, 6, 1, 83
8, 47237, Control_c, 6, 1, 82
8, 47243, Control_c, 6, 1, 81
8, 47248, Note_on_c, 6, 71, 0
8, 47251, Control_c, 6, 1, 80
8, 47252, Note_on_c, 6, 71, 103
8, 47256, Control_c, 6, 1, 79
8, 47262, Control_c, 6, 1, 77
8, 47271, Control_c, 6, 1, 76
8, 47273, Note_on_c, 6, 69, 0
8, 47276, Control_c, 6, 1, 75
8, 47282, Control_c, 6, 1, 74
8, 47327, Control_c, 6, 1, 73
8, 47335, Control_c, 6, 1, 72
8, 47341, Control_c, 6, 1, 70
8, 47346, Control_c, 6, 1, 69
8, 47355, Control_c, 6, 1, 68
8, 47360, Control_c, 6, 1, 67
8, 47366, Control_c, 6, 1, 65
8, 47372, Control_c, 6, 1, 63
8, 47377, Control_c, 6, 1, 62
8, 47383, Control_c, 6, 1, 60
8, 47388, Control_c, 6, 1, 59
8, 47397, Control_c, 6, 1, 58
8, 47408, Control_c, 6, 1, 57
8, 47445, Control_c, 6, 1, 56
8, 47453, Control_c, 6, 1, 55
8, 47462, Control_c, 6, 1, 54
8, 47468, Control_c, 6, 1, 53
8, 47473, Control_c, 6, 1, 51
8, 47476, Control_c, 6, 1, 50
8, 47478, Control_c, 6, 1, 48
8, 47482, Control_c, 6, 1, 47
8, 47484, Control_c, 6, 1, 46
8, 47487, Control_c, 6, 1, 45
8, 47490, Control_c, 6, 1, 43
8, 47493, Control_c, 6, 1, 42
8, 47496, Control_c, 6, 1, 40
8, 47497, Control_c, 6, 1, 39
8, 47500, Control_c, 6, 1, 38
8, 47502, Control_c, 6, 1, 36
8, 47505, Control_c, 6, 1, 35
8, 47508, Control_c, 6, 1, 34
8, 47511, Control_c, 6, 1, 32
8, 47514, Control_c, 6, 1, 31
8, 47514, Note_on_c, 6, 72, 98
8, 47517, Control_c, 6, 1, 30
8, 47519, Control_c, 6, 1, 29
8, 47522, Control_c, 6, 1, 28
8, 47524, Note_on_c, 6, 71, 0
8, 47525, Control_c, 6, 1, 27
8, 47528, Control_c, 6, 1, 26
8, 47533, Control_c, 6, 1, 24
8, 47539, Control_c, 6, 1, 22
8, 47545, Control_c, 6, 1, 21
8, 47547, Note_on_c, 6, 71, 94
8, 47553, Control_c, 6, 1, 20
8, 47559, Control_c, 6, 1, 18
8, 47563, Note_on_c, 6, 72, 0
8, 47564, Control_c, 6, 1, 17
8, 47567, Control_c, 6, 1, 15
8, 47570, Control_c, 6, 1, 14
8, 47573, Control_c, 6, 1, 13
8, 47576, Control_c, 6, 1, 11
8, 47579, Control_c, 6, 1, 10
8, 47582, Control_c, 6, 1, 9
8, 47584, Control_c, 6, 1, 7
8, 47586, Control_c, 6, 1, 6
8, 47589, Control_c, 6, 1, 5
8, 47591, Note_on_c, 6, 69, 94
8, 47595, Control_c, 6, 1, 4
8, 47603, Control_c, 6, 1, 3
8, 47605, Note_on_c, 6, 71, 0
8, 47612, Control_c, 6, 1, 0
8, 47617, Control_c, 6, 1, 0
8, 47672, Control_c, 6, 1, 0
8, 47675, Note_on_c, 6, 69, 0
8, 47679, Control_c, 6, 1, 3
8, 47682, Control_c, 6, 1, 4
8, 47684, Control_c, 6, 1, 5
8, 47687, Control_c, 6, 1, 7
8, 47687, Pitch_bend_c, 6, 8064
8, 47690, Control_c, 6, 1, 8
8, 47690, Pitch_bend_c, 6, 7680
8, 47692, Control_c, 6, 1, 9
8, 47693, Pitch_bend_c, 6, 7040
8, 47695, Control_c, 6, 1, 11
8, 47696, Pitch_bend_c, 6, 6400
8, 47698, Control_c, 6, 1, 13
8, 47698, Pitch_bend_c, 6, 5760
8, 47701, Control_c, 6, 1, 14
8, 47701, Pitch_bend_c, 6, 4864
8, 47704, Control_c, 6, 1, 15
8, 47704, Pitch_bend_c, 6, 4096
8, 47707, Control_c, 6, 1, 17
8, 47707, Pitch_bend_c, 6, 3200
8, 47710, Control_c, 6, 1, 19
8, 47710, Pitch_bend_c, 6, 2560
8, 47712, Control_c, 6, 1, 20
8, 47713, Pitch_bend_c, 6, 1792
8, 47715, Control_c, 6, 1, 21
8, 47715, Pitch_bend_c, 6, 1152
8, 47718, Control_c, 6, 1, 23
8, 47718, Pitch_bend_c, 6, 640
8, 47721, Control_c, 6, 1, 25
8, 47721, Pitch_bend_c, 6, 256
8, 47723, Pitch_bend_c, 6, 0
8, 47724, Control_c, 6, 1, 27
8, 47727, Control_c, 6, 1, 28
8, 47729, Control_c, 6, 1, 29
8, 47729, Note_on_c, 6, 66, 101
8, 47732, Control_c, 6, 1, 31
8, 47735, Control_c, 6, 1, 32
8, 47738, Control_c, 6, 1, 33
8, 47740, Control_c, 6, 1, 34
8, 47743, Control_c, 6, 1, 35
8, 47746, Control_c, 6, 1, 36
8, 47749, Control_c, 6, 1, 38
8, 47752, Control_c, 6, 1, 39
8, 47753, Pitch_bend_c, 6, 384
8, 47754, Control_c, 6, 1, 40
8, 47756, Pitch_bend_c, 6, 768
8, 47757, Control_c, 6, 1, 41
8, 47759, Pitch_bend_c, 6, 1408
8, 47760, Control_c, 6, 1, 42
8, 47762, Pitch_bend_c, 6, 1792
8, 47763, Control_c, 6, 1, 44
8, 47764, Pitch_bend_c, 6, 2432
8, 47766, Control_c, 6, 1, 45
8, 47767, Pitch_bend_c, 6, 3072
8, 47769, Control_c, 6, 1, 46
8, 47770, Pitch_bend_c, 6, 3712
8, 47773, Pitch_bend_c, 6, 4224
8, 47775, Control_c, 6, 1, 47
8, 47776, Pitch_bend_c, 6, 4736
8, 47778, Pitch_bend_c, 6, 5376
8, 47782, Pitch_bend_c, 6, 5888
8, 47783, Control_c, 6, 1, 49
8, 47784, Pitch_bend_c, 6, 6272
8, 47787, Pitch_bend_c, 6, 6784
8, 47788, Control_c, 6, 1, 50
8, 47790, Pitch_bend_c, 6, 7168
8, 47793, Pitch_bend_c, 6, 7680
8, 47794, Control_c, 6, 1, 52
8, 47795, Pitch_bend_c, 6, 8064
8, 47798, Pitch_bend_c, 6, 8192
8, 47800, Control_c, 6, 1, 53
8, 47808, Control_c, 6, 1, 54
8, 47816, Control_c, 6, 1, 56
8, 47825, Control_c, 6, 1, 57
8, 47834, Control_c, 6, 1, 58
8, 47842, Control_c, 6, 1, 59
8, 47851, Control_c, 6, 1, 60
8, 47859, Control_c, 6, 1, 61
8, 47865, Control_c, 6, 1, 62
8, 47870, Control_c, 6, 1, 63
8, 47879, Control_c, 6, 1, 64
8, 47887, Control_c, 6, 1, 65
8, 47898, Control_c, 6, 1, 66
8, 47970, Control_c, 6, 1, 65
8, 47981, Control_c, 6, 1, 64
8, 47989, Control_c, 6, 1, 63
8, 47992, Control_c, 6, 1, 62
8, 47995, Control_c, 6, 1, 60
8, 47998, Control_c, 6, 1, 59
8, 48001, Control_c, 6, 1, 57
8, 48003, Control_c, 6, 1, 56
8, 48006, Control_c, 6, 1, 54
8, 48009, Control_c, 6, 1, 52
8, 48011, Control_c, 6, 1, 49
8, 48014, Control_c, 6, 1, 47
8, 48017, Control_c, 6, 1, 45
8, 48020, Control_c, 6, 1, 43
8, 48023, Control_c, 6, 1, 40
8, 48026, Control_c, 6, 1, 38
8, 48028, Control_c, 6, 1, 35
8, 48031, Control_c, 6, 1, 33
8, 48034, Control_c, 6, 1, 30
8, 48037, Control_c, 6, 1, 27
8, 48040, Control_c, 6, 1, 24
8, 48042, Control_c, 6, 1, 21
8, 48045, Control_c, 6, 1, 18
8, 48048, Control_c, 6, 1, 15
8, 48051, Control_c, 6, 1, 12
8, 48054, Control_c, 6, 1, 10
8, 48056, Control_c, 6, 1, 8
8, 48060, Control_c, 6, 1, 6
8, 48062, Control_c, 6, 1, 4
8, 48068, Control_c, 6, 1, 0
8, 48074, Control_c, 6, 1, 0
8, 48076, Control_c, 6, 1, 0
8, 48078, Note_on_c, 6, 66, 0
8, 48110, Note_on_c, 6, 68, 109
8, 48178, Note_on_c, 6, 68, 0
8, 48236, Note_on_c, 6, 71, 94
8, 48240, Control_c, 6, 1, 0
8, 48254, Control_c, 6, 1, 0
8, 48268, Control_c, 6, 1, 3
8, 48276, Control_c, 6, 1, 4
8, 48282, Control_c, 6, 1, 6
8, 48285, Control_c, 6, 1, 8
8, 48288, Control_c, 6, 1, 10
8, 48288, Control_c, 6, 1, 9
8, 48290, Control_c, 6, 1, 11
8, 48291, Note_on_c, 6, 71, 0
8, 48293, Control_c, 6, 1, 13
8, 48296, Control_c, 6, 1, 14
8, 48296, Pitch_bend_c, 6, 7808
8, 48299, Pitch_bend_c, 6, 7424
8, 48301, Pitch_bend_c, 6, 7040
8, 48302, Control_c, 6, 1, 16
8, 48304, Pitch_bend_c, 6, 6400
8, 48305, Control_c, 6, 1, 17
8, 48307, Pitch_bend_c, 6, 5888
8, 48310, Control_c, 6, 1, 18
8, 48310, Pitch_bend_c, 6, 5376
8, 48312, Pitch_bend_c, 6, 4736
8, 48316, Control_c, 6, 1, 20
8, 48316, Pitch_bend_c, 6, 4096
8, 48318, Pitch_bend_c, 6, 3456
8, 48321, Control_c, 6, 1, 21
8, 48321, Pitch_bend_c, 6, 2944
8, 48324, Pitch_bend_c, 6, 2560
8, 48327, Pitch_bend_c, 6, 2048
8, 48330, Control_c, 6, 1, 22
8, 48330, Pitch_bend_c, 6, 1536
8, 48332, Pitch_bend_c, 6, 1152
8, 48335, Pitch_bend_c, 6, 896
8, 48338, Control_c, 6, 1, 23
8, 48338, Pitch_bend_c, 6, 640
8, 48341, Pitch_bend_c, 6, 384
8, 48344, Pitch_bend_c, 6, 128
8, 48346, Pitch_bend_c, 6, 0
8, 48353, Note_on_c, 6, 68, 109
8, 48372, Control_c, 6, 1, 25
8, 48372, Pitch_bend_c, 6, 128
8, 48375, Pitch_bend_c, 6, 256
8, 48377, Pitch_bend_c, 6, 512
8, 48378, Control_c, 6, 1, 26
8, 48380, Pitch_bend_c, 6, 640
8, 48383, Pitch_bend_c, 6, 896
8, 48384, Control_c, 6, 1, 27
8, 48386, Pitch_bend_c, 6, 1280
8, 48389, Control_c, 6, 1, 28
8, 48389, Pitch_bend_c, 6, 1664
8, 48391, Pitch_bend_c, 6, 1920
8, 48395, Control_c, 6, 1, 30
8, 48395, Pitch_bend_c, 6, 2432
8, 48397, Pitch_bend_c, 6, 2816
8, 48400, Control_c, 6, 1, 31
8, 48400, Pitch_bend_c, 6, 3200
8, 48403, Pitch_bend_c, 6, 3712
8, 48406, Control_c, 6, 1, 34
8, 48406, Pitch_bend_c, 6, 4096
8, 48408, Pitch_bend_c, 6, 4608
8, 48409, Control_c, 6, 1, 35
8, 48411, Pitch_bend_c, 6, 4992
8, 48412, Control_c, 6, 1, 36
8, 48414, Control_c, 6, 1, 37
8, 48414, Pitch_bend_c, 6, 5632
8, 48417, Control_c, 6, 1, 38
8, 48417, Pitch_bend_c, 6, 6016
8, 48420, Pitch_bend_c, 6, 6400
8, 48423, Control_c, 6, 1, 40
8, 48423, Pitch_bend_c, 6, 6784
8, 48425, Pitch_bend_c, 6, 7168
8, 48428, Control_c, 6, 1, 41
8, 48428, Pitch_bend_c, 6, 7552
8, 48431, Pitch_bend_c, 6, 8192
8, 48434, Pitch_bend_c, 6, 8192
8, 48454, Control_c, 6, 1, 40
8, 48462, Control_c, 6, 1, 39
8, 48468, Control_c, 6, 1, 37
8, 48473, Note_on_c, 6, 68, 0
8, 48474, Control_c, 6, 1, 35
8, 48479, Control_c, 6, 1, 33
8, 48482, Control_c, 6, 1, 32
8, 48484, Control_c, 6, 1, 31
8, 48488, Control_c, 6, 1, 30
8, 48490, Control_c, 6, 1, 29
8, 48493, Control_c, 6, 1, 27
8, 48496, Control_c, 6, 1, 26
8, 48497, Note_on_c, 6, 66, 106
8, 48499, Control_c, 6, 1, 23
8, 48501, Control_c, 6, 1, 22
8, 48504, Control_c, 6, 1, 20
8, 48508, Control_c, 6, 1, 18
8, 48510, Control_c, 6, 1, 17
8, 48513, Control_c, 6, 1, 15
8, 48516, Control_c, 6, 1, 14
8, 48519, Control_c, 6, 1, 13
8, 48521, Control_c, 6, 1, 11
8, 48530, Control_c, 6, 1, 10
8, 48553, Control_c, 6, 1, 12
8, 48558, Control_c, 6, 1, 13
8, 48564, Control_c, 6, 1, 14
8, 48569, Control_c, 6, 1, 15
8, 48575, Control_c, 6, 1, 17
8, 48578, Note_on_c, 6, 66, 0
8, 48586, Control_c, 6, 1, 18
8, 48587, Note_on_c, 6, 64, 109
8, 48597, Control_c, 6, 1, 19
8, 48603, Control_c, 6, 1, 20
8, 48612, Control_c, 6, 1, 21
8, 48620, Control_c, 6, 1, 22
8, 48626, Control_c, 6, 1, 23
8, 48631, Control_c, 6, 1, 25
8, 48639, Control_c, 6, 1, 26
8, 48648, Control_c, 6, 1, 27
8, 48662, Control_c, 6, 1, 28
8, 48670, Control_c, 6, 1, 29
8, 48679, Control_c, 6, 1, 30
8, 48690, Control_c, 6, 1, 31
8, 48704, Control_c, 6, 1, 32
8, 48710, Control_c, 6, 1, 33
8, 48716, Control_c, 6, 1, 34
8, 48721, Control_c, 6, 1, 36
8, 48727, Control_c, 6, 1, 38
8, 48730, Control_c, 6, 1, 39
8, 48735, Control_c, 6, 1, 40
8, 48741, Control_c, 6, 1, 41
8, 48747, Control_c, 6, 1, 43
8, 48753, Control_c, 6, 1, 45
8, 48758, Control_c, 6, 1, 46
8, 48764, Control_c, 6, 1, 47
8, 48773, Control_c, 6, 1, 49
8, 48781, Control_c, 6, 1, 50
8, 48832, Control_c, 6, 1, 49
8, 48843, Control_c, 6, 1, 48
8, 48911, Control_c, 6, 1, 49
8, 48920, Control_c, 6, 1, 50
8, 48931, Control_c, 6, 1, 51
8, 48945, Control_c, 6, 1, 52
8, 49007, Control_c, 6, 1, 51
8, 49016, Control_c, 6, 1, 50
8, 49022, Control_c, 6, 1, 48
8, 49030, Control_c, 6, 1, 47
8, 49039, Control_c, 6, 1, 46
8, 49043, Note_on_c, 6, 62, 98
8, 49050, Control_c, 6, 1, 45
8, 49056, Control_c, 6, 1, 44
8, 49057, Note_on_c, 6, 64, 0
8, 49062, Control_c, 6, 1, 42
8, 49067, Control_c, 6, 1, 41
8, 49072, Control_c, 6, 1, 39
8, 49078, Control_c, 6, 1, 38
8, 49081, Control_c, 6, 1, 37
8, 49084, Control_c, 6, 1, 36
8, 49089, Control_c, 6, 1, 34
8, 49092, Control_c, 6, 1, 32
8, 49095, Control_c, 6, 1, 31
8, 49097, Control_c, 6, 1, 30
8, 49100, Control_c, 6, 1, 29
8, 49103, Control_c, 6, 1, 28
8, 49106, Control_c, 6, 1, 26
8, 49109, Control_c, 6, 1, 25
8, 49112, Control_c, 6, 1, 23
8, 49115, Control_c, 6, 1, 22
8, 49120, Control_c, 6, 1, 21
8, 49126, Control_c, 6, 1, 19
8, 49132, Control_c, 6, 1, 18
8, 49137, Control_c, 6, 1, 17
8, 49143, Control_c, 6, 1, 16
8, 49148, Control_c, 6, 1, 14
8, 49152, Note_on_c, 6, 61, 96
8, 49173, Note_on_c, 6, 62, 0
8, 49242, Control_c, 6, 1, 13
8, 49250, Control_c, 6, 1, 12
8, 49259, Control_c, 6, 1, 11
8, 49276, Control_c, 6, 1, 10
8, 49287, Control_c, 6, 1, 9
8, 49296, Control_c, 6, 1, 7
8, 49304, Control_c, 6, 1, 6
8, 49341, Control_c, 6, 1, 5
8, 49420, Control_c, 6, 1, 6
8, 49437, Control_c, 6, 1, 7
8, 49502, Control_c, 6, 1, 6
8, 49740, Control_c, 6, 1, 5
8, 49785, Control_c, 6, 1, 4
8, 49822, Control_c, 6, 1, 3
8, 49830, Control_c, 6, 1, 0
8, 49841, Control_c, 6, 1, 0
8, 49856, Control_c, 6, 1, 0
8, 50246, Note_on_c, 6, 61, 0
8, 76599, Note_on_c, 6, 66, 97
8, 76636, Note_on_c, 6, 66, 0
8, 76656, Note_on_c, 6, 68, 101
8, 76709, Note_on_c, 6, 68, 0
8, 76710, Note_on_c, 6, 71, 101
8, 76747, Note_on_c, 6, 71, 0
8, 76784, Pitch_bend_c, 6, 7936
8, 76787, Pitch_bend_c, 6, 7680
8, 76790, Pitch_bend_c, 6, 7168
8, 76792, Pitch_bend_c, 6, 6656
8, 76795, Pitch_bend_c, 6, 6144
8, 76798, Pitch_bend_c, 6, 5632
8, 76799, Note_on_c, 6, 75, 100
8, 76801, Pitch_bend_c, 6, 4992
8, 76805, Pitch_bend_c, 6, 4224
8, 76807, Pitch_bend_c, 6, 3712
8, 76810, Pitch_bend_c, 6, 3200
8, 76813, Pitch_bend_c, 6, 2816
8, 76816, Pitch_bend_c, 6, 2432
8, 76818, Pitch_bend_c, 6, 1920
8, 76821, Pitch_bend_c, 6, 1536
8, 76824, Pitch_bend_c, 6, 1280
8, 76826, Pitch_bend_c, 6, 896
8, 76829, Pitch_bend_c, 6, 768
8, 76835, Pitch_bend_c, 6, 512
8, 76843, Pitch_bend_c, 6, 768
8, 76845, Pitch_bend_c, 6, 896
8, 76848, Pitch_bend_c, 6, 1152
8, 76851, Pitch_bend_c, 6, 1536
8, 76854, Pitch_bend_c, 6, 1792
8, 76856, Pitch_bend_c, 6, 2176
8, 76859, Pitch_bend_c, 6, 2688
8, 76862, Pitch_bend_c, 6, 3072
8, 76865, Pitch_bend_c, 6, 3584
8, 76867, Pitch_bend_c, 6, 4096
8, 76870, Pitch_bend_c, 6, 4736
8, 76873, Pitch_bend_c, 6, 5376
8, 76875, Pitch_bend_c, 6, 5760
8, 76878, Pitch_bend_c, 6, 6272
8, 76881, Pitch_bend_c, 6, 6784
8, 76883, Pitch_bend_c, 6, 7168
8, 76886, Pitch_bend_c, 6, 7424
8, 76889, Pitch_bend_c, 6, 7680
8, 76892, Pitch_bend_c, 6, 7936
8, 76894, Pitch_bend_c, 6, 8192
8, 76905, Control_c, 6, 1, 0
8, 76910, Control_c, 6, 1, 0
8, 76913, Control_c, 6, 1, 3
8, 76918, Control_c, 6, 1, 4
8, 76924, Control_c, 6, 1, 6
8, 76927, Control_c, 6, 1, 7
8, 76929, Control_c, 6, 1, 8
8, 76932, Control_c, 6, 1, 9
8, 76935, Control_c, 6, 1, 10
8, 76940, Control_c, 6, 1, 12
8, 76943, Control_c, 6, 1, 13
8, 76949, Control_c, 6, 1, 15
8, 76952, Control_c, 6, 1, 16
8, 76954, Control_c, 6, 1, 17
8, 76960, Control_c, 6, 1, 19
8, 76961, Control_c, 6, 1, 20
8, 76963, Pitch_bend_c, 6, 8064
8, 76966, Control_c, 6, 1, 21
8, 76966, Pitch_bend_c, 6, 7808
8, 76969, Control_c, 6, 1, 23
8, 76969, Pitch_bend_c, 6, 7424
8, 76971, Pitch_bend_c, 6, 7040
8, 76972, Control_c, 6, 1, 25
8, 76974, Pitch_bend_c, 6, 6400
8, 76975, Control_c, 6, 1, 26
8, 76977, Pitch_bend_c, 6, 5888
8, 76978, Control_c, 6, 1, 27
8, 76980, Pitch_bend_c, 6, 5120
8, 76982, Pitch_bend_c, 6, 4352
8, 76983, Control_c, 6, 1, 29
8, 76985, Pitch_bend_c, 6, 3712
8, 76988, Pitch_bend_c, 6, 3072
8, 76989, Control_c, 6, 1, 31
8, 76990, Pitch_bend_c, 6, 2432
8, 76993, Pitch_bend_c, 6, 1792
8, 76994, Control_c, 6, 1, 32
8, 76996, Pitch_bend_c, 6, 1280
8, 76999, Pitch_bend_c, 6, 768
8, 77000, Control_c, 6, 1, 34
8, 77001, Pitch_bend_c, 6, 384
8, 77002, Control_c, 6, 1, 35
8, 77004, Pitch_bend_c, 6, 0
8, 77005, Control_c, 6, 1, 36
8, 77008, Control_c, 6, 1, 37
8, 77010, Control_c, 6, 1, 38
8, 77016, Control_c, 6, 1, 40
8, 77021, Control_c, 6, 1, 41
8, 77023, Pitch_bend_c, 6, 256
8, 77026, Pitch_bend_c, 6, 640
8, 77027, Control_c, 6, 1, 43
8, 77029, Pitch_bend_c, 6, 1024
8, 77031, Pitch_bend_c, 6, 1536
8, 77032, Control_c, 6, 1, 44
8, 77034, Pitch_bend_c, 6, 2048
8, 77037, Pitch_bend_c, 6, 2560
8, 77038, Control_c, 6, 1, 45
8, 77040, Pitch_bend_c, 6, 3072
8, 77043, Control_c, 6, 1, 46
8, 77043, Pitch_bend_c, 6, 3584
8, 77045, Pitch_bend_c, 6, 4096
8, 77048, Pitch_bend_c, 6, 4608
8, 77051, Control_c, 6, 1, 47
8, 77051, Pitch_bend_c, 6, 4992
8, 77053, Pitch_bend_c, 6, 5504
8, 77056, Pitch_bend_c, 6, 5888
8, 77059, Pitch_bend_c, 6, 6144
8, 77062, Pitch_bend_c, 6, 6400
8, 77064, Pitch_bend_c, 6, 6656
8, 77067, Pitch_bend_c, 6, 6912
8, 77068, Control_c, 6, 1, 48
8, 77070, Pitch_bend_c, 6, 7040
8, 77073, Control_c, 6, 1, 50
8, 77075, Pitch_bend_c, 6, 7168
8, 77076, Control_c, 6, 1, 51
8, 77079, Control_c, 6, 1, 52
8, 77084, Control_c, 6, 1, 53
8, 77090, Control_c, 6, 1, 54
8, 77095, Control_c, 6, 1, 56
8, 77101, Control_c, 6, 1, 57
8, 77106, Control_c, 6, 1, 58
8, 77112, Control_c, 6, 1, 59
8, 77117, Control_c, 6, 1, 60
8, 77122, Control_c, 6, 1, 62
8, 77128, Pitch_bend_c, 6, 7296
8, 77129, Control_c, 6, 1, 63
8, 77133, Pitch_bend_c, 6, 7424
8, 77139, Control_c, 6, 1, 64
8, 77139, Pitch_bend_c, 6, 7552
8, 77144, Pitch_bend_c, 6, 7680
8, 77150, Control_c, 6, 1, 65
8, 77150, Pitch_bend_c, 6, 7936
8, 77155, Pitch_bend_c, 6, 8064
8, 77160, Pitch_bend_c, 6, 8192
8, 77161, Control_c, 6, 1, 66
8, 77197, Control_c, 6, 1, 67
8, 77251, Control_c, 6, 1, 68
8, 77273, Control_c, 6, 1, 69
8, 77298, Control_c, 6, 1, 71
8, 77428, Control_c, 6, 1, 70
8, 77870, Control_c, 6, 1, 69
8, 77980, Control_c, 6, 1, 68
8, 78007, Control_c, 6, 1, 66
8, 78013, Control_c, 6, 1, 65
8, 78018, Control_c, 6, 1, 63
8, 78021, Control_c, 6, 1, 62
8, 78024, Control_c, 6, 1, 61
8, 78026, Control_c, 6, 1, 60
8, 78032, Control_c, 6, 1, 58
8, 78037, Control_c, 6, 1, 56
8, 78043, Control_c, 6, 1, 55
8, 78046, Control_c, 6, 1, 54
8, 78051, Control_c, 6, 1, 52
8, 78054, Control_c, 6, 1, 50
8, 78056, Control_c, 6, 1, 48
8, 78059, Control_c, 6, 1, 46
8, 78062, Control_c, 6, 1, 43
8, 78065, Control_c, 6, 1, 40
8, 78067, Control_c, 6, 1, 37
8, 78070, Control_c, 6, 1, 33
8, 78073, Control_c, 6, 1, 30
8, 78076, Control_c, 6, 1, 27
8, 78079, Control_c, 6, 1, 23
8, 78081, Control_c, 6, 1, 20
8, 78084, Control_c, 6, 1, 18
8, 78086, Control_c, 6, 1, 14
8, 78089, Control_c, 6, 1, 12
8, 78092, Control_c, 6, 1, 9
8, 78094, Control_c, 6, 1, 7
8, 78098, Control_c, 6, 1, 4
8, 78101, Control_c, 6, 1, 0
8, 78103, Control_c, 6, 1, 0
8, 78142, Note_on_c, 6, 75, 0
8, 79489, Pitch_bend_c, 6, 8064
8, 79492, Pitch_bend_c, 6, 7936
8, 79494, Pitch_bend_c, 6, 7680
8, 79497, Pitch_bend_c, 6, 7424
8, 79500, Pitch_bend_c, 6, 7040
8, 79503, Pitch_bend_c, 6, 6528
8, 79505, Pitch_bend_c, 6, 6144
8, 79508, Pitch_bend_c, 6, 5632
8, 79511, Pitch_bend_c, 6, 4992
8, 79514, Pitch_bend_c, 6, 4480
8, 79516, Pitch_bend_c, 6, 3968
8, 79519, Pitch_bend_c, 6, 3328
8, 79522, Pitch_bend_c, 6, 2816
8, 79525, Pitch_bend_c, 6, 2176
8, 79527, Pitch_bend_c, 6, 1664
8, 79531, Pitch_bend_c, 6, 1152
8, 79533, Pitch_bend_c, 6, 640
8, 79536, Pitch_bend_c, 6, 256
8, 79539, Pitch_bend_c, 6, 0
8, 79571, Note_on_c, 6, 75, 98
8, 79579, Pitch_bend_c, 6, 128
8, 79582, Pitch_bend_c, 6, 640
8, 79585, Pitch_bend_c, 6, 1152
8, 79588, Pitch_bend_c, 6, 1664
8, 79590, Pitch_bend_c, 6, 2048
8, 79593, Pitch_bend_c, 6, 2432
8, 79596, Pitch_bend_c, 6, 2816
8, 79598, Pitch_bend_c, 6, 3072
8, 79601, Pitch_bend_c, 6, 3328
8, 79604, Pitch_bend_c, 6, 3584
8, 79607, Pitch_bend_c, 6, 3840
8, 79610, Pitch_bend_c, 6, 3968
8, 79612, Pitch_bend_c, 6, 4096
8, 79615, Pitch_bend_c, 6, 4352
8, 79618, Pitch_bend_c, 6, 4608
8, 79621, Pitch_bend_c, 6, 4736
8, 79623, Pitch_bend_c, 6, 4992
8, 79626, Pitch_bend_c, 6, 5376
8, 79629, Pitch_bend_c, 6, 5632
8, 79631, Pitch_bend_c, 6, 5760
8, 79633, Pitch_bend_c, 6, 6144
8, 79636, Pitch_bend_c, 6, 6784
8, 79639, Pitch_bend_c, 6, 7680
8, 79642, Pitch_bend_c, 6, 8192
8, 79705, Control_c, 6, 1, 0
8, 79713, Control_c, 6, 1, 3
8, 79716, Control_c, 6, 1, 4
8, 79724, Control_c, 6, 1, 5
8, 79729, Control_c, 6, 1, 7
8, 79737, Control_c, 6, 1, 9
8, 79743, Control_c, 6, 1, 10
8, 79751, Control_c, 6, 1, 12
8, 79756, Control_c, 6, 1, 13
8, 79762, Control_c, 6, 1, 14
8, 79767, Control_c, 6, 1, 16
8, 79768, Control_c, 6, 1, 17
8, 79772, Control_c, 6, 1, 18
8, 79778, Control_c, 6, 1, 20
8, 79783, Control_c, 6, 1, 21
8, 79786, Pitch_bend_c, 6, 8322
8, 79788, Pitch_bend_c, 6, 8842
8, 79789, Control_c, 6, 1, 22
8, 79791, Pitch_bend_c, 6, 9622
8, 79794, Pitch_bend_c, 6, 10532
8, 79795, Control_c, 6, 1, 24
8, 79797, Pitch_bend_c, 6, 11442
8, 79800, Control_c, 6, 1, 25
8, 79800, Pitch_bend_c, 6, 12222
8, 79803, Pitch_bend_c, 6, 13002
8, 79805, Pitch_bend_c, 6, 13522
8, 79809, Control_c, 6, 1, 27
8, 79811, Pitch_bend_c, 6, 12612
8, 79813, Pitch_bend_c, 6, 11052
8, 79814, Control_c, 6, 1, 28
8, 79816, Pitch_bend_c, 6, 8972
8, 79819, Control_c, 6, 1, 29
8, 79819, Pitch_bend_c, 6, 8192
8, 79825, Control_c, 6, 1, 30
8, 79833, Control_c, 6, 1, 32
8, 79841, Control_c, 6, 1, 33
8, 79847, Control_c, 6, 1, 35
8, 79855, Control_c, 6, 1, 36
8, 79863, Control_c, 6, 1, 37
8, 79871, Control_c, 6, 1, 38
8, 79881, Control_c, 6, 1, 39
8, 79885, Pitch_bend_c, 6, 8064
8, 79888, Pitch_bend_c, 6, 7680
8, 79890, Pitch_bend_c, 6, 7296
8, 79894, Pitch_bend_c, 6, 6784
8, 79896, Pitch_bend_c, 6, 6144
8, 79899, Pitch_bend_c, 6, 5504
8, 79902, Pitch_bend_c, 6, 4736
8, 79905, Pitch_bend_c, 6, 4096
8, 79907, Pitch_bend_c, 6, 3584
8, 79908, Note_on_c, 6, 73, 99
8, 79909, Control_c, 6, 1, 38
8, 79910, Pitch_bend_c, 6, 3200
8, 79911, Control_c, 6, 1, 36
8, 79913, Pitch_bend_c, 6, 2944
8, 79914, Control_c, 6, 1, 34
8, 79916, Pitch_bend_c, 6, 2816
8, 79917, Control_c, 6, 1, 31
8, 79919, Control_c, 6, 1, 29
8, 79922, Control_c, 6, 1, 25
8, 79925, Control_c, 6, 1, 21
8, 79926, Pitch_bend_c, 6, 2944
8, 79928, Control_c, 6, 1, 18
8, 79929, Pitch_bend_c, 6, 3200
8, 79931, Control_c, 6, 1, 14
8, 79932, Pitch_bend_c, 6, 3328
8, 79932, Note_on_c, 6, 75, 0
8, 79933, Control_c, 6, 1, 11
8, 79935, Pitch_bend_c, 6, 3712
8, 79936, Control_c, 6, 1, 8
8, 79937, Pitch_bend_c, 6, 4224
8, 79939, Control_c, 6, 1, 6
8, 79940, Pitch_bend_c, 6, 4864
8, 79942, Control_c, 6, 1, 4
8, 79943, Pitch_bend_c, 6, 6016
8, 79944, Control_c, 6, 1, 3
8, 79946, Pitch_bend_c, 6, 7168
8, 79947, Control_c, 6, 1, 0
8, 79948, Pitch_bend_c, 6, 8192
8, 79956, Control_c, 6, 1, 0
8, 79975, Control_c, 6, 1, 3
8, 79978, Control_c, 6, 1, 4
8, 79983, Control_c, 6, 1, 6
8, 79986, Control_c, 6, 1, 7
8, 79988, Control_c, 6, 1, 9
8, 79991, Control_c, 6, 1, 10
8, 79994, Control_c, 6, 1, 12
8, 79997, Control_c, 6, 1, 13
8, 79999, Note_on_c, 6, 71, 94
8, 80002, Control_c, 6, 1, 15
8, 80005, Control_c, 6, 1, 17
8, 80007, Control_c, 6, 1, 18
8, 80011, Note_on_c, 6, 73, 0
8, 80013, Control_c, 6, 1, 20
8, 80018, Control_c, 6, 1, 21
8, 80024, Control_c, 6, 1, 23
8, 80029, Control_c, 6, 1, 25
8, 80035, Control_c, 6, 1, 26
8, 80040, Control_c, 6, 1, 27
8, 80045, Note_on_c, 6, 71, 0
8, 80049, Control_c, 6, 1, 28
8, 80062, Control_c, 6, 1, 29
8, 80081, Control_c, 6, 1, 30
8, 80114, Note_on_c, 6, 71, 109
8, 80120, Control_c, 6, 1, 31
8, 80216, Control_c, 6, 1, 32
8, 80237, Control_c, 6, 1, 33
8, 80257, Control_c, 6, 1, 34
8, 80301, Control_c, 6, 1, 35
8, 80337, Control_c, 6, 1, 34
8, 80342, Control_c, 6, 1, 32
8, 80347, Control_c, 6, 1, 31
8, 80353, Control_c, 6, 1, 29
8, 80358, Control_c, 6, 1, 28
8, 80364, Control_c, 6, 1, 26
8, 80369, Control_c, 6, 1, 24
8, 80375, Control_c, 6, 1, 23
8, 80380, Control_c, 6, 1, 21
8, 80391, Control_c, 6, 1, 20
8, 80400, Control_c, 6, 1, 19
8, 80411, Control_c, 6, 1, 18
8, 80427, Control_c, 6, 1, 17
8, 80435, Control_c, 6, 1, 16
8, 80444, Control_c, 6, 1, 15
8, 80460, Control_c, 6, 1, 14
8, 80504, Control_c, 6, 1, 13
8, 80526, Control_c, 6, 1, 12
8, 80572, Control_c, 6, 1, 11
8, 80605, Control_c, 6, 1, 10
8, 80624, Control_c, 6, 1, 9
8, 80643, Control_c, 6, 1, 8
8, 80674, Control_c, 6, 1, 7
8, 80693, Control_c, 6, 1, 6
8, 80712, Control_c, 6, 1, 5
8, 80737, Control_c, 6, 1, 4
8, 80750, Control_c, 6, 1, 3
8, 80786, Control_c, 6, 1, 0
8, 80825, Control_c, 6, 1, 0
8, 81111, Control_c, 6, 1, 0
8, 81113, Control_c, 6, 1, 3
8, 81117, Control_c, 6, 1, 5
8, 81119, Control_c, 6, 1, 7
8, 81122, Control_c, 6, 1, 9
8, 81124, Control_c, 6, 1, 10
8, 81127, Control_c, 6, 1, 12
8, 81130, Control_c, 6, 1, 13
8, 81136, Control_c, 6, 1, 15
8, 81138, Control_c, 6, 1, 17
8, 81143, Control_c, 6, 1, 19
8, 81146, Control_c, 6, 1, 20
8, 81152, Control_c, 6, 1, 21
8, 81157, Control_c, 6, 1, 22
8, 81163, Control_c, 6, 1, 24
8, 81169, Control_c, 6, 1, 25
8, 81199, Control_c, 6, 1, 24
8, 81201, Control_c, 6, 1, 23
8, 81204, Control_c, 6, 1, 22
8, 81210, Control_c, 6, 1, 20
8, 81212, Control_c, 6, 1, 19
8, 81215, Control_c, 6, 1, 17
8, 81218, Control_c, 6, 1, 15
8, 81220, Control_c, 6, 1, 13
8, 81223, Control_c, 6, 1, 10
8, 81226, Control_c, 6, 1, 7
8, 81229, Control_c, 6, 1, 4
8, 81231, Control_c, 6, 1, 0
8, 81234, Control_c, 6, 1, 0
8, 81377, Note_on_c, 6, 71, 0
8, 81377, End_track
9, 0, Start_track
9, 0, MIDI_port, 0
9, 0, Title_t, "E.GUITAR"
9, 192, Control_c, 7, 91, 120
9, 192, Control_c, 7, 7, 127
9, 192, Program_c, 7, 27
9, 63744, Note_on_c, 7, 47, 75
9, 63936, Note_on_c, 7, 59, 75
9, 64128, Note_on_c, 7, 66, 75
9, 64487, Note_on_c, 7, 47, 0
9, 64512, Note_on_c, 7, 44, 75
9, 64555, Note_on_c, 7, 59, 0
9, 64594, Note_on_c, 7, 66, 0
9, 64704, Note_on_c, 7, 59, 75
9, 64896, Note_on_c, 7, 66, 75
9, 65266, Note_on_c, 7, 44, 0
9, 65280, Note_on_c, 7, 40, 75
9, 65292, Note_on_c, 7, 66, 0
9, 65298, Note_on_c, 7, 59, 0
9, 65472, Note_on_c, 7, 59, 75
9, 65664, Note_on_c, 7, 66, 75
9, 66027, Note_on_c, 7, 40, 0
9, 66048, Note_on_c, 7, 42, 75
9, 66073, Note_on_c, 7, 59, 0
9, 66078, Note_on_c, 7, 66, 0
9, 66240, Note_on_c, 7, 59, 75
9, 66432, Note_on_c, 7, 66, 75
9, 66802, Note_on_c, 7, 42, 0
9, 66816, Note_on_c, 7, 47, 75
9, 66852, Note_on_c, 7, 66, 0
9, 66854, Note_on_c, 7, 59, 0
9, 67008, Note_on_c, 7, 59, 75
9, 67200, Note_on_c, 7, 66, 75
9, 67573, Note_on_c, 7, 47, 0
9, 67584, Note_on_c, 7, 44, 75
9, 67634, Note_on_c, 7, 66, 0
9, 67647, Note_on_c, 7, 59, 0
9, 67776, Note_on_c, 7, 59, 75
9, 67968, Note_on_c, 7, 66, 75
9, 68328, Note_on_c, 7, 44, 0
9, 68352, Note_on_c, 7, 49, 75
9, 68390, Note_on_c, 7, 66, 0
9, 68391, Note_on_c, 7, 59, 0
9, 68544, Note_on_c, 7, 59, 75
9, 68736, Note_on_c, 7, 66, 75
9, 69120, Note_on_c, 7, 42, 75
9, 69123, Note_on_c, 7, 49, 0
9, 69128, Note_on_c, 7, 59, 0
9, 69140, Note_on_c, 7, 66, 0
9, 69312, Note_on_c, 7, 59, 75
9, 69504, Note_on_c, 7, 66, 75
9, 69862, Note_on_c, 7, 42, 0
9, 69888, Note_on_c, 7, 47, 75
9, 69894, Note_on_c, 7, 59, 0
9, 69902, Note_on_c, 7, 66, 0
9, 70080, Note_on_c, 7, 59, 75
9, 70272, Note_on_c, 7, 66, 75
9, 70642, Note_on_c, 7, 47, 0
9, 70656, Note_on_c, 7, 44, 75
9, 70732, Note_on_c, 7, 66, 0
9, 70747, Note_on_c, 7, 59, 0
9, 70848, Note_on_c, 7, 59, 75
9, 71040, Note_on_c, 7, 66, 75
9, 71409, Note_on_c, 7, 44, 0
9, 71424, Note_on_c, 7, 40, 75
9, 71470, Note_on_c, 7, 59, 0
9, 71483, Note_on_c, 7, 66, 0
9, 71616, Note_on_c, 7, 59, 75
9, 71808, Note_on_c, 7, 66, 75
9, 72180, Note_on_c, 7, 40, 0
9, 72192, Note_on_c, 7, 42, 75
9, 72228, Note_on_c, 7, 59, 0
9, 72231, Note_on_c, 7, 66, 0
9, 72384, Note_on_c, 7, 59, 75
9, 72576, Note_on_c, 7, 66, 75
9, 72958, Note_on_c, 7, 42, 0
9, 72960, Note_on_c, 7, 47, 75
9, 72993, Note_on_c, 7, 59, 0
9, 72995, Note_on_c, 7, 66, 0
9, 73152, Note_on_c, 7, 59, 75
9, 73344, Note_on_c, 7, 66, 75
9, 73702, Note_on_c, 7, 47, 0
9, 73728, Note_on_c, 7, 44, 75
9, 73787, Note_on_c, 7, 66, 0
9, 73788, Note_on_c, 7, 59, 0
9, 73920, Note_on_c, 7, 59, 75
9, 74112, Note_on_c, 7, 66, 75
9, 74166, Note_on_c, 7, 59, 0
9, 74496, Note_on_c, 7, 49, 75
9, 74501, Note_on_c, 7, 44, 0
9, 74546, Note_on_c, 7, 66, 0
9, 74880, Note_on_c, 7, 47, 75
9, 74904, Note_on_c, 7, 49, 0
9, 75258, Note_on_c, 7, 47, 0
9, 75264, Note_on_c, 7, 42, 75
9, 75456, Note_on_c, 7, 59, 75
9, 75648, Note_on_c, 7, 66, 75
9, 75985, Note_on_c, 7, 42, 0
9, 75999, Note_on_c, 7, 66, 0
9, 76000, Note_on_c, 7, 59, 0
9, 76032, Note_on_c, 7, 47, 75
9, 76224, Note_on_c, 7, 59, 75
9, 76416, Note_on_c, 7, 66, 75
9, 76757, Note_on_c, 7, 47, 0
9, 76800, Note_on_c, 7, 44, 75
9, 76930, Note_on_c, 7, 59, 0
9, 76992, Note_on_c, 7, 59, 75
9, 76994, Note_on_c, 7, 66, 0
9, 77184, Note_on_c, 7, 66, 75
9, 77558, Note_on_c, 7, 44, 0
9, 77568, Note_on_c, 7, 40, 75
9, 77599, Note_on_c, 7, 66, 0
9, 77599, Note_on_c, 7, 59, 0
9, 77760, Note_on_c, 7, 59, 75
9, 77952, Note_on_c, 7, 66, 75
9, 78310, Note_on_c, 7, 40, 0
9, 78336, Note_on_c, 7, 42, 75
9, 78396, Note_on_c, 7, 66, 0
9, 78402, Note_on_c, 7, 59, 0
9, 78528, Note_on_c, 7, 59, 75
9, 78720, Note_on_c, 7, 66, 75
9, 78761, Note_on_c, 7, 59, 0
9, 79104, Note_on_c, 7, 47, 75
9, 79104, Note_on_c, 7, 42, 0
9, 79123, Note_on_c, 7, 66, 0
9, 79296, Note_on_c, 7, 59, 75
9, 79488, Note_on_c, 7, 66, 75
9, 79858, Note_on_c, 7, 47, 0
9, 79872, Note_on_c, 7, 44, 75
9, 79894, Note_on_c, 7, 66, 0
9, 79901, Note_on_c, 7, 59, 0
9, 80064, Note_on_c, 7, 59, 75
9, 80256, Note_on_c, 7, 66, 75
9, 80629, Note_on_c, 7, 44, 0
9, 80640, Note_on_c, 7, 40, 75
9, 80659, Note_on_c, 7, 66, 0
9, 80682, Note_on_c, 7, 59, 0
9, 80832, Note_on_c, 7, 59, 75
9, 81024, Note_on_c, 7, 66, 75
9, 81074, Note_on_c, 7, 59, 0
9, 81379, Note_on_c, 7, 66, 0
9, 81404, Note_on_c, 7, 40, 0
9, 81404, End_track
10, 0, Start_track
10, 0, MIDI_port, 0
10, 0, Title_t, "DRUM"
10, 192, Control_c, 9, 91, 127
10, 192, Control_c, 9, 7, 100
10, 192, Program_c, 9, 0
10, 9888, Note_on_c, 9, 84, 91
10, 9912, Note_on_c, 9, 84, 0
10, 11904, Note_on_c, 9, 81, 79
10, 11928, Note_on_c, 9, 81, 0
10, 12096, Note_on_c, 9, 59, 85
10, 12120, Note_on_c, 9, 59, 0
10, 12192, Note_on_c, 9, 59, 87
10, 12216, Note_on_c, 9, 59, 0
10, 12288, Note_on_c, 9, 59, 98
10, 12312, Note_on_c, 9, 59, 0
10, 13056, Note_on_c, 9, 59, 84
10, 13080, Note_on_c, 9, 59, 0
10, 13248, Note_on_c, 9, 59, 74
10, 13272, Note_on_c, 9, 59, 0
10, 13344, Note_on_c, 9, 59, 83
10, 13344, Note_on_c, 9, 80, 122
10, 13368, Note_on_c, 9, 80, 0
10, 13368, Note_on_c, 9, 59, 0
10, 13440, Note_on_c, 9, 59, 103
10, 13440, Note_on_c, 9, 81, 79
10, 13464, Note_on_c, 9, 81, 0
10, 13464, Note_on_c, 9, 59, 0
10, 13632, Note_on_c, 9, 59, 69
10, 13656, Note_on_c, 9, 59, 0
10, 13728, Note_on_c, 9, 59, 74
10, 13752, Note_on_c, 9, 59, 0
10, 13824, Note_on_c, 9, 59, 99
10, 13848, Note_on_c, 9, 59, 0
10, 14976, Note_on_c, 9, 37, 127
10, 15000, Note_on_c, 9, 37, 0
10, 15168, Note_on_c, 9, 46, 95
10, 15192, Note_on_c, 9, 46, 0
10, 15360, Note_on_c, 9, 35, 127
10, 15360, Note_on_c, 9, 44, 88
10, 15384, Note_on_c, 9, 44, 0
10, 15384, Note_on_c, 9, 35, 0
10, 15552, Note_on_c, 9, 44, 60
10, 15576, Note_on_c, 9, 44, 0
10, 15744, Note_on_c, 9, 44, 63
10, 15768, Note_on_c, 9, 44, 0
10, 15936, Note_on_c, 9, 35, 127
10, 15936, Note_on_c, 9, 44, 103
10, 15960, Note_on_c, 9, 44, 0
10, 15960, Note_on_c, 9, 35, 0
10, 16128, Note_on_c, 9, 35, 127
10, 16128, Note_on_c, 9, 44, 103
10, 16152, Note_on_c, 9, 44, 0
10, 16152, Note_on_c, 9, 35, 0
10, 16320, Note_on_c, 9, 44, 95
10, 16344, Note_on_c, 9, 44, 0
10, 16512, Note_on_c, 9, 37, 127
10, 16512, Note_on_c, 9, 44, 103
10, 16536, Note_on_c, 9, 44, 0
10, 16536, Note_on_c, 9, 37, 0
10, 16704, Note_on_c, 9, 44, 103
10, 16728, Note_on_c, 9, 44, 0
10, 16896, Note_on_c, 9, 35, 127
10, 16896, Note_on_c, 9, 44, 103
10, 16920, Note_on_c, 9, 44, 0
10, 16920, Note_on_c, 9, 35, 0
10, 17088, Note_on_c, 9, 44, 85
10, 17112, Note_on_c, 9, 44, 0
10, 17280, Note_on_c, 9, 44, 90
10, 17304, Note_on_c, 9, 44, 0
10, 17472, Note_on_c, 9, 35, 127
10, 17472, Note_on_c, 9, 44, 103
10, 17496, Note_on_c, 9, 44, 0
10, 17496, Note_on_c, 9, 35, 0
10, 17664, Note_on_c, 9, 35, 127
10, 17664, Note_on_c, 9, 44, 103
10, 17688, Note_on_c, 9, 44, 0
10, 17688, Note_on_c, 9, 35, 0
10, 17856, Note_on_c, 9, 44, 96
10, 17880, Note_on_c, 9, 44, 0
10, 18048, Note_on_c, 9, 37, 127
10, 18048, Note_on_c, 9, 44, 103
10, 18072, Note_on_c, 9, 44, 0
10, 18072, Note_on_c, 9, 37, 0
10, 18240, Note_on_c, 9, 44, 100
10, 18264, Note_on_c, 9, 44, 0
10, 18432, Note_on_c, 9, 35, 127
10, 18432, Note_on_c, 9, 44, 101
10, 18456, Note_on_c, 9, 44, 0
10, 18456, Note_on_c, 9, 35, 0
10, 18624, Note_on_c, 9, 44, 94
10, 18648, Note_on_c, 9, 44, 0
10, 18816, Note_on_c, 9, 44, 100
10, 18840, Note_on_c, 9, 44, 0
10, 19008, Note_on_c, 9, 35, 127
10, 19008, Note_on_c, 9, 44, 103
10, 19032, Note_on_c, 9, 44, 0
10, 19032, Note_on_c, 9, 35, 0
10, 19200, Note_on_c, 9, 35, 127
10, 19200, Note_on_c, 9, 44, 103
10, 19224, Note_on_c, 9, 44, 0
10, 19224, Note_on_c, 9, 35, 0
10, 19392, Note_on_c, 9, 44, 100
10, 19416, Note_on_c, 9, 44, 0
10, 19584, Note_on_c, 9, 37, 127
10, 19584, Note_on_c, 9, 44, 103
10, 19608, Note_on_c, 9, 44, 0
10, 19608, Note_on_c, 9, 37, 0
10, 19776, Note_on_c, 9, 44, 101
10, 19800, Note_on_c, 9, 44, 0
10, 19968, Note_on_c, 9, 35, 127
10, 19968, Note_on_c, 9, 44, 100
10, 19992, Note_on_c, 9, 44, 0
10, 19992, Note_on_c, 9, 35, 0
10, 20160, Note_on_c, 9, 44, 94
10, 20184, Note_on_c, 9, 44, 0
10, 20352, Note_on_c, 9, 44, 94
10, 20376, Note_on_c, 9, 44, 0
10, 20544, Note_on_c, 9, 35, 127
10, 20544, Note_on_c, 9, 44, 103
10, 20568, Note_on_c, 9, 44, 0
10, 20568, Note_on_c, 9, 35, 0
10, 20736, Note_on_c, 9, 35, 127
10, 20736, Note_on_c, 9, 44, 103
10, 20760, Note_on_c, 9, 44, 0
10, 20760, Note_on_c, 9, 35, 0
10, 20928, Note_on_c, 9, 44, 90
10, 20952, Note_on_c, 9, 44, 0
10, 21120, Note_on_c, 9, 37, 127
10, 21120, Note_on_c, 9, 44, 99
10, 21120, Note_on_c, 9, 81, 79
10, 21144, Note_on_c, 9, 81, 0
10, 21144, Note_on_c, 9, 44, 0
10, 21144, Note_on_c, 9, 37, 0
10, 21312, Note_on_c, 9, 44, 92
10, 21336, Note_on_c, 9, 44, 0
10, 21408, Note_on_c, 9, 84, 83
10, 21432, Note_on_c, 9, 84, 0
10, 21504, Note_on_c, 9, 35, 127
10, 21504, Note_on_c, 9, 44, 103
10, 21528, Note_on_c, 9, 44, 0
10, 21528, Note_on_c, 9, 35, 0
10, 21696, Note_on_c, 9, 44, 93
10, 21720, Note_on_c, 9, 44, 0
10, 21888, Note_on_c, 9, 44, 96
10, 21912, Note_on_c, 9, 44, 0
10, 22080, Note_on_c, 9, 35, 127
10, 22080, Note_on_c, 9, 44, 103
10, 22104, Note_on_c, 9, 44, 0
10, 22104, Note_on_c, 9, 35, 0
10, 22272, Note_on_c, 9, 35, 127
10, 22272, Note_on_c, 9, 44, 103
10, 22296, Note_on_c, 9, 44, 0
10, 22296, Note_on_c, 9, 35, 0
10, 22464, Note_on_c, 9, 44, 98
10, 22488, Note_on_c, 9, 44, 0
10, 22656, Note_on_c, 9, 37, 127
10, 22656, Note_on_c, 9, 44, 103
10, 22680, Note_on_c, 9, 44, 0
10, 22680, Note_on_c, 9, 37, 0
10, 22848, Note_on_c, 9, 44, 98
10, 22872, Note_on_c, 9, 44, 0
10, 23040, Note_on_c, 9, 35, 127
10, 23040, Note_on_c, 9, 44, 103
10, 23064, Note_on_c, 9, 44, 0
10, 23064, Note_on_c, 9, 35, 0
10, 23232, Note_on_c, 9, 44, 95
10, 23256, Note_on_c, 9, 44, 0
10, 23424, Note_on_c, 9, 44, 90
10, 23448, Note_on_c, 9, 44, 0
10, 23616, Note_on_c, 9, 35, 127
10, 23616, Note_on_c, 9, 44, 103
10, 23640, Note_on_c, 9, 44, 0
10, 23640, Note_on_c, 9, 35, 0
10, 23808, Note_on_c, 9, 35, 127
10, 23808, Note_on_c, 9, 44, 103
10, 23832, Note_on_c, 9, 44, 0
10, 23832, Note_on_c, 9, 35, 0
10, 24000, Note_on_c, 9, 44, 100
10, 24024, Note_on_c, 9, 44, 0
10, 24192, Note_on_c, 9, 37, 127
10, 24192, Note_on_c, 9, 44, 103
10, 24216, Note_on_c, 9, 44, 0
10, 24216, Note_on_c, 9, 37, 0
10, 24384, Note_on_c, 9, 44, 103
10, 24408, Note_on_c, 9, 44, 0
10, 24576, Note_on_c, 9, 35, 127
10, 24576, Note_on_c, 9, 44, 100
10, 24600, Note_on_c, 9, 44, 0
10, 24600, Note_on_c, 9, 35, 0
10, 24768, Note_on_c, 9, 44, 88
10, 24792, Note_on_c, 9, 44, 0
10, 24960, Note_on_c, 9, 44, 96
10, 24984, Note_on_c, 9, 44, 0
10, 25152, Note_on_c, 9, 35, 127
10, 25152, Note_on_c, 9, 44, 99
10, 25176, Note_on_c, 9, 44, 0
10, 25176, Note_on_c, 9, 35, 0
10, 25344, Note_on_c, 9, 35, 127
10, 25344, Note_on_c, 9, 44, 103
10, 25368, Note_on_c, 9, 44, 0
10, 25368, Note_on_c, 9, 35, 0
10, 25536, Note_on_c, 9, 44, 94
10, 25560, Note_on_c, 9, 44, 0
10, 25728, Note_on_c, 9, 37, 127
10, 25728, Note_on_c, 9, 44, 103
10, 25752, Note_on_c, 9, 44, 0
10, 25752, Note_on_c, 9, 37, 0
10, 25920, Note_on_c, 9, 44, 95
10, 25944, Note_on_c, 9, 44, 0
10, 26112, Note_on_c, 9, 35, 127
10, 26112, Note_on_c, 9, 44, 100
10, 26136, Note_on_c, 9, 44, 0
10, 26136, Note_on_c, 9, 35, 0
10, 26304, Note_on_c, 9, 44, 92
10, 26328, Note_on_c, 9, 44, 0
10, 26496, Note_on_c, 9, 44, 96
10, 26520, Note_on_c, 9, 44, 0
10, 26688, Note_on_c, 9, 35, 127
10, 26688, Note_on_c, 9, 44, 99
10, 26712, Note_on_c, 9, 44, 0
10, 26712, Note_on_c, 9, 35, 0
10, 26880, Note_on_c, 9, 35, 127
10, 26880, Note_on_c, 9, 44, 98
10, 26904, Note_on_c, 9, 44, 0
10, 26904, Note_on_c, 9, 35, 0
10, 27072, Note_on_c, 9, 44, 89
10, 27096, Note_on_c, 9, 44, 0
10, 27264, Note_on_c, 9, 37, 127
10, 27264, Note_on_c, 9, 46, 99
10, 27288, Note_on_c, 9, 46, 0
10, 27288, Note_on_c, 9, 37, 0
10, 27456, Note_on_c, 9, 43, 127
10, 27480, Note_on_c, 9, 43, 0
10, 27648, Note_on_c, 9, 36, 127
10, 27648, Note_on_c, 9, 44, 103
10, 27672, Note_on_c, 9, 44, 0
10, 27672, Note_on_c, 9, 36, 0
10, 27840, Note_on_c, 9, 44, 93
10, 27864, Note_on_c, 9, 44, 0
10, 28032, Note_on_c, 9, 37, 127
10, 28032, Note_on_c, 9, 44, 103
10, 28056, Note_on_c, 9, 44, 0
10, 28056, Note_on_c, 9, 37, 0
10, 28224, Note_on_c, 9, 36, 127
10, 28224, Note_on_c, 9, 44, 103
10, 28248, Note_on_c, 9, 44, 0
10, 28248, Note_on_c, 9, 36, 0
10, 28416, Note_on_c, 9, 36, 127
10, 28416, Note_on_c, 9, 44, 103
10, 28440, Note_on_c, 9, 44, 0
10, 28440, Note_on_c, 9, 36, 0
10, 28608, Note_on_c, 9, 44, 100
10, 28632, Note_on_c, 9, 44, 0
10, 28800, Note_on_c, 9, 37, 127
10, 28800, Note_on_c, 9, 44, 103
10, 28800, Note_on_c, 9, 54, 115
10, 28824, Note_on_c, 9, 54, 0
10, 28824, Note_on_c, 9, 44, 0
10, 28824, Note_on_c, 9, 37, 0
10, 28992, Note_on_c, 9, 44, 98
10, 29016, Note_on_c, 9, 44, 0
10, 29184, Note_on_c, 9, 36, 127
10, 29184, Note_on_c, 9, 44, 103
10, 29208, Note_on_c, 9, 44, 0
10, 29208, Note_on_c, 9, 36, 0
10, 29376, Note_on_c, 9, 44, 98
10, 29400, Note_on_c, 9, 44, 0
10, 29568, Note_on_c, 9, 37, 127
10, 29568, Note_on_c, 9, 44, 103
10, 29592, Note_on_c, 9, 44, 0
10, 29592, Note_on_c, 9, 37, 0
10, 29760, Note_on_c, 9, 36, 127
10, 29760, Note_on_c, 9, 44, 103
10, 29784, Note_on_c, 9, 44, 0
10, 29784, Note_on_c, 9, 36, 0
10, 29952, Note_on_c, 9, 36, 127
10, 29952, Note_on_c, 9, 44, 103
10, 29976, Note_on_c, 9, 44, 0
10, 29976, Note_on_c, 9, 36, 0
10, 30144, Note_on_c, 9, 44, 94
10, 30168, Note_on_c, 9, 44, 0
10, 30336, Note_on_c, 9, 37, 127
10, 30336, Note_on_c, 9, 44, 103
10, 30336, Note_on_c, 9, 54, 115
10, 30360, Note_on_c, 9, 54, 0
10, 30360, Note_on_c, 9, 44, 0
10, 30360, Note_on_c, 9, 37, 0
10, 30528, Note_on_c, 9, 46, 99
10, 30552, Note_on_c, 9, 46, 0
10, 30720, Note_on_c, 9, 36, 127
10, 30720, Note_on_c, 9, 44, 90
10, 30744, Note_on_c, 9, 44, 0
10, 30744, Note_on_c, 9, 36, 0
10, 30912, Note_on_c, 9, 44, 100
10, 30936, Note_on_c, 9, 44, 0
10, 31104, Note_on_c, 9, 37, 127
10, 31104, Note_on_c, 9, 44, 103
10, 31128, Note_on_c, 9, 44, 0
10, 31128, Note_on_c, 9, 37, 0
10, 31296, Note_on_c, 9, 36, 127
10, 31296, Note_on_c, 9, 44, 103
10, 31320, Note_on_c, 9, 44, 0
10, 31320, Note_on_c, 9, 36, 0
10, 31488, Note_on_c, 9, 36, 127
10, 31488, Note_on_c, 9, 44, 103
10, 31512, Note_on_c, 9, 44, 0
10, 31512, Note_on_c, 9, 36, 0
10, 31680, Note_on_c, 9, 44, 93
10, 31704, Note_on_c, 9, 44, 0
10, 31872, Note_on_c, 9, 37, 127
10, 31872, Note_on_c, 9, 44, 103
10, 31872, Note_on_c, 9, 54, 115
10, 31896, Note_on_c, 9, 54, 0
10, 31896, Note_on_c, 9, 44, 0
10, 31896, Note_on_c, 9, 37, 0
10, 32064, Note_on_c, 9, 44, 100
10, 32088, Note_on_c, 9, 44, 0
10, 32256, Note_on_c, 9, 36, 127
10, 32256, Note_on_c, 9, 44, 103
10, 32280, Note_on_c, 9, 44, 0
10, 32280, Note_on_c, 9, 36, 0
10, 32448, Note_on_c, 9, 44, 96
10, 32472, Note_on_c, 9, 44, 0
10, 32640, Note_on_c, 9, 37, 127
10, 32640, Note_on_c, 9, 44, 103
10, 32664, Note_on_c, 9, 44, 0
10, 32664, Note_on_c, 9, 37, 0
10, 32832, Note_on_c, 9, 36, 127
10, 32832, Note_on_c, 9, 44, 93
10, 32856, Note_on_c, 9, 44, 0
10, 32856, Note_on_c, 9, 36, 0
10, 33024, Note_on_c, 9, 36, 127
10, 33024, Note_on_c, 9, 44, 99
10, 33048, Note_on_c, 9, 44, 0
10, 33048, Note_on_c, 9, 36, 0
10, 33216, Note_on_c, 9, 44, 93
10, 33240, Note_on_c, 9, 44, 0
10, 33408, Note_on_c, 9, 37, 127
10, 33408, Note_on_c, 9, 46, 99
10, 33408, Note_on_c, 9, 54, 115
10, 33432, Note_on_c, 9, 54, 0
10, 33432, Note_on_c, 9, 46, 0
10, 33432, Note_on_c, 9, 37, 0
10, 33600, Note_on_c, 9, 43, 124
10, 33624, Note_on_c, 9, 43, 0
10, 33792, Note_on_c, 9, 36, 127
10, 33792, Note_on_c, 9, 44, 103
10, 33816, Note_on_c, 9, 44, 0
10, 33816, Note_on_c, 9, 36, 0
10, 33984, Note_on_c, 9, 44, 100
10, 34008, Note_on_c, 9, 44, 0
10, 34176, Note_on_c, 9, 37, 127
10, 34176, Note_on_c, 9, 44, 100
10, 34200, Note_on_c, 9, 44, 0
10, 34200, Note_on_c, 9, 37, 0
10, 34368, Note_on_c, 9, 36, 127
10, 34368, Note_on_c, 9, 44, 99
10, 34392, Note_on_c, 9, 44, 0
10, 34392, Note_on_c, 9, 36, 0
10, 34560, Note_on_c, 9, 36, 127
10, 34560, Note_on_c, 9, 44, 103
10, 34584, Note_on_c, 9, 44, 0
10, 34584, Note_on_c, 9, 36, 0
10, 34752, Note_on_c, 9, 44, 88
10, 34776, Note_on_c, 9, 44, 0
10, 34944, Note_on_c, 9, 37, 127
10, 34944, Note_on_c, 9, 44, 103
10, 34944, Note_on_c, 9, 54, 115
10, 34968, Note_on_c, 9, 54, 0
10, 34968, Note_on_c, 9, 44, 0
10, 34968, Note_on_c, 9, 37, 0
10, 35136, Note_on_c, 9, 44, 99
10, 35160, Note_on_c, 9, 44, 0
10, 35328, Note_on_c, 9, 36, 127
10, 35328, Note_on_c, 9, 44, 99
10, 35352, Note_on_c, 9, 44, 0
10, 35352, Note_on_c, 9, 36, 0
10, 35520, Note_on_c, 9, 44, 94
10, 35544, Note_on_c, 9, 44, 0
10, 35712, Note_on_c, 9, 37, 127
10, 35712, Note_on_c, 9, 44, 98
10, 35736, Note_on_c, 9, 44, 0
10, 35736, Note_on_c, 9, 37, 0
10, 35904, Note_on_c, 9, 36, 127
10, 35904, Note_on_c, 9, 44, 95
10, 35928, Note_on_c, 9, 44, 0
10, 35928, Note_on_c, 9, 36, 0
10, 36096, Note_on_c, 9, 36, 127
10, 36096, Note_on_c, 9, 46, 100
10, 36120, Note_on_c, 9, 46, 0
10, 36120, Note_on_c, 9, 36, 0
10, 36384, Note_on_c, 9, 47, 127
10, 36408, Note_on_c, 9, 47, 0
10, 36480, Note_on_c, 9, 45, 127
10, 36504, Note_on_c, 9, 45, 0
10, 36672, Note_on_c, 9, 46, 103
10, 36696, Note_on_c, 9, 46, 0
10, 36811, Note_on_c, 9, 84, 91
10, 36835, Note_on_c, 9, 84, 0
10, 36864, Note_on_c, 9, 36, 127
10, 36864, Note_on_c, 9, 44, 99
10, 36888, Note_on_c, 9, 44, 0
10, 36888, Note_on_c, 9, 36, 0
10, 37056, Note_on_c, 9, 44, 64
10, 37080, Note_on_c, 9, 44, 0
10, 37248, Note_on_c, 9, 37, 127
10, 37248, Note_on_c, 9, 44, 103
10, 37272, Note_on_c, 9, 44, 0
10, 37272, Note_on_c, 9, 37, 0
10, 37440, Note_on_c, 9, 36, 127
10, 37440, Note_on_c, 9, 44, 98
10, 37464, Note_on_c, 9, 44, 0
10, 37464, Note_on_c, 9, 36, 0
10, 37632, Note_on_c, 9, 36, 127
10, 37632, Note_on_c, 9, 44, 101
10, 37656, Note_on_c, 9, 44, 0
10, 37656, Note_on_c, 9, 36, 0
10, 37824, Note_on_c, 9, 44, 89
10, 37848, Note_on_c, 9, 44, 0
10, 38016, Note_on_c, 9, 37, 127
10, 38016, Note_on_c, 9, 44, 103
10, 38040, Note_on_c, 9, 44, 0
10, 38040, Note_on_c, 9, 37, 0
10, 38208, Note_on_c, 9, 44, 87
10, 38232, Note_on_c, 9, 44, 0
10, 38400, Note_on_c, 9, 36, 127
10, 38400, Note_on_c, 9, 44, 100
10, 38424, Note_on_c, 9, 44, 0
10, 38424, Note_on_c, 9, 36, 0
10, 38592, Note_on_c, 9, 44, 93
10, 38616, Note_on_c, 9, 44, 0
10, 38784, Note_on_c, 9, 37, 127
10, 38784, Note_on_c, 9, 44, 103
10, 38808, Note_on_c, 9, 44, 0
10, 38808, Note_on_c, 9, 37, 0
10, 38976, Note_on_c, 9, 36, 127
10, 38976, Note_on_c, 9, 44, 99
10, 39000, Note_on_c, 9, 44, 0
10, 39000, Note_on_c, 9, 36, 0
10, 39168, Note_on_c, 9, 36, 127
10, 39168, Note_on_c, 9, 44, 96
10, 39192, Note_on_c, 9, 44, 0
10, 39192, Note_on_c, 9, 36, 0
10, 39360, Note_on_c, 9, 44, 55
10, 39384, Note_on_c, 9, 44, 0
10, 39552, Note_on_c, 9, 37, 127
10, 39552, Note_on_c, 9, 44, 103
10, 39576, Note_on_c, 9, 44, 0
10, 39576, Note_on_c, 9, 37, 0
10, 39744, Note_on_c, 9, 46, 100
10, 39768, Note_on_c, 9, 46, 0
10, 39936, Note_on_c, 9, 36, 127
10, 39936, Note_on_c, 9, 44, 96
10, 39960, Note_on_c, 9, 44, 0
10, 39960, Note_on_c, 9, 36, 0
10, 40128, Note_on_c, 9, 44, 95
10, 40152, Note_on_c, 9, 44, 0
10, 40320, Note_on_c, 9, 37, 127
10, 40320, Note_on_c, 9, 44, 103
10, 40344, Note_on_c, 9, 44, 0
10, 40344, Note_on_c, 9, 37, 0
10, 40512, Note_on_c, 9, 36, 127
10, 40512, Note_on_c, 9, 44, 98
10, 40536, Note_on_c, 9, 44, 0
10, 40536, Note_on_c, 9, 36, 0
10, 40704, Note_on_c, 9, 36, 127
10, 40704, Note_on_c, 9, 44, 103
10, 40728, Note_on_c, 9, 44, 0
10, 40728, Note_on_c, 9, 36, 0
10, 40896, Note_on_c, 9, 44, 89
10, 40920, Note_on_c, 9, 44, 0
10, 41088, Note_on_c, 9, 37, 127
10, 41088, Note_on_c, 9, 44, 103
10, 41112, Note_on_c, 9, 44, 0
10, 41112, Note_on_c, 9, 37, 0
10, 41280, Note_on_c, 9, 44, 90
10, 41304, Note_on_c, 9, 44, 0
10, 41472, Note_on_c, 9, 36, 127
10, 41472, Note_on_c, 9, 44, 103
10, 41496, Note_on_c, 9, 44, 0
10, 41496, Note_on_c, 9, 36, 0
10, 41664, Note_on_c, 9, 44, 88
10, 41688, Note_on_c, 9, 44, 0
10, 41856, Note_on_c, 9, 37, 127
10, 41856, Note_on_c, 9, 44, 103
10, 41880, Note_on_c, 9, 44, 0
10, 41880, Note_on_c, 9, 37, 0
10, 42048, Note_on_c, 9, 36, 127
10, 42048, Note_on_c, 9, 44, 85
10, 42072, Note_on_c, 9, 44, 0
10, 42072, Note_on_c, 9, 36, 0
10, 42240, Note_on_c, 9, 36, 127
10, 42240, Note_on_c, 9, 44, 94
10, 42240, Note_on_c, 9, 81, 79
10, 42264, Note_on_c, 9, 81, 0
10, 42264, Note_on_c, 9, 44, 0
10, 42264, Note_on_c, 9, 36, 0
10, 42432, Note_on_c, 9, 44, 80
10, 42456, Note_on_c, 9, 44, 0
10, 42528, Note_on_c, 9, 81, 79
10, 42552, Note_on_c, 9, 81, 0
10, 42624, Note_on_c, 9, 37, 127
10, 42624, Note_on_c, 9, 46, 103
10, 42648, Note_on_c, 9, 46, 0
10, 42648, Note_on_c, 9, 37, 0
10, 42951, Note_on_c, 9, 84, 91
10, 42975, Note_on_c, 9, 84, 0
10, 43008, Note_on_c, 9, 36, 127
10, 43008, Note_on_c, 9, 44, 96
10, 43032, Note_on_c, 9, 44, 0
10, 43032, Note_on_c, 9, 36, 0
10, 43200, Note_on_c, 9, 44, 94
10, 43224, Note_on_c, 9, 44, 0
10, 43392, Note_on_c, 9, 37, 127
10, 43392, Note_on_c, 9, 44, 103
10, 43416, Note_on_c, 9, 44, 0
10, 43416, Note_on_c, 9, 37, 0
10, 43584, Note_on_c, 9, 36, 127
10, 43584, Note_on_c, 9, 44, 99
10, 43608, Note_on_c, 9, 44, 0
10, 43608, Note_on_c, 9, 36, 0
10, 43776, Note_on_c, 9, 36, 127
10, 43776, Note_on_c, 9, 44, 94
10, 43800, Note_on_c, 9, 44, 0
10, 43800, Note_on_c, 9, 36, 0
10, 43968, Note_on_c, 9, 44, 83
10, 43992, Note_on_c, 9, 44, 0
10, 44160, Note_on_c, 9, 37, 127
10, 44160, Note_on_c, 9, 44, 103
10, 44184, Note_on_c, 9, 44, 0
10, 44184, Note_on_c, 9, 37, 0
10, 44352, Note_on_c, 9, 44, 89
10, 44376, Note_on_c, 9, 44, 0
10, 44544, Note_on_c, 9, 36, 127
10, 44544, Note_on_c, 9, 44, 100
10, 44568, Note_on_c, 9, 44, 0
10, 44568, Note_on_c, 9, 36, 0
10, 44736, Note_on_c, 9, 44, 68
10, 44760, Note_on_c, 9, 44, 0
10, 44928, Note_on_c, 9, 37, 127
10, 44928, Note_on_c, 9, 44, 103
10, 44952, Note_on_c, 9, 44, 0
10, 44952, Note_on_c, 9, 37, 0
10, 45120, Note_on_c, 9, 36, 127
10, 45120, Note_on_c, 9, 44, 99
10, 45144, Note_on_c, 9, 44, 0
10, 45144, Note_on_c, 9, 36, 0
10, 45312, Note_on_c, 9, 36, 127
10, 45312, Note_on_c, 9, 44, 103
10, 45336, Note_on_c, 9, 44, 0
10, 45336, Note_on_c, 9, 36, 0
10, 45504, Note_on_c, 9, 44, 87
10, 45528, Note_on_c, 9, 44, 0
10, 45696, Note_on_c, 9, 37, 127
10, 45696, Note_on_c, 9, 44, 103
10, 45720, Note_on_c, 9, 44, 0
10, 45720, Note_on_c, 9, 37, 0
10, 45888, Note_on_c, 9, 46, 103
10, 45912, Note_on_c, 9, 46, 0
10, 46080, Note_on_c, 9, 36, 127
10, 46080, Note_on_c, 9, 44, 88
10, 46104, Note_on_c, 9, 44, 0
10, 46104, Note_on_c, 9, 36, 0
10, 46272, Note_on_c, 9, 44, 92
10, 46296, Note_on_c, 9, 44, 0
10, 46464, Note_on_c, 9, 37, 127
10, 46464, Note_on_c, 9, 44, 103
10, 46488, Note_on_c, 9, 44, 0
10, 46488, Note_on_c, 9, 37, 0
10, 46656, Note_on_c, 9, 36, 127
10, 46656, Note_on_c, 9, 44, 98
10, 46680, Note_on_c, 9, 44, 0
10, 46680, Note_on_c, 9, 36, 0
10, 46848, Note_on_c, 9, 36, 127
10, 46848, Note_on_c, 9, 44, 103
10, 46872, Note_on_c, 9, 44, 0
10, 46872, Note_on_c, 9, 36, 0
10, 47040, Note_on_c, 9, 44, 84
10, 47064, Note_on_c, 9, 44, 0
10, 47232, Note_on_c, 9, 37, 127
10, 47232, Note_on_c, 9, 44, 103
10, 47256, Note_on_c, 9, 44, 0
10, 47256, Note_on_c, 9, 37, 0
10, 47424, Note_on_c, 9, 44, 90
10, 47448, Note_on_c, 9, 44, 0
10, 47616, Note_on_c, 9, 36, 127
10, 47616, Note_on_c, 9, 44, 100
10, 47640, Note_on_c, 9, 44, 0
10, 47640, Note_on_c, 9, 36, 0
10, 47808, Note_on_c, 9, 44, 92
10, 47832, Note_on_c, 9, 44, 0
10, 48000, Note_on_c, 9, 37, 127
10, 48000, Note_on_c, 9, 44, 103
10, 48024, Note_on_c, 9, 44, 0
10, 48024, Note_on_c, 9, 37, 0
10, 48192, Note_on_c, 9, 36, 127
10, 48192, Note_on_c, 9, 44, 101
10, 48216, Note_on_c, 9, 44, 0
10, 48216, Note_on_c, 9, 36, 0
10, 48384, Note_on_c, 9, 36, 127
10, 48384, Note_on_c, 9, 44, 100
10, 48408, Note_on_c, 9, 44, 0
10, 48408, Note_on_c, 9, 36, 0
10, 48576, Note_on_c, 9, 44, 77
10, 48600, Note_on_c, 9, 44, 0
10, 48768, Note_on_c, 9, 37, 127
10, 48768, Note_on_c, 9, 46, 103
10, 48792, Note_on_c, 9, 46, 0
10, 48792, Note_on_c, 9, 37, 0
10, 49152, Note_on_c, 9, 36, 127
10, 49152, Note_on_c, 9, 44, 103
10, 49176, Note_on_c, 9, 44, 0
10, 49176, Note_on_c, 9, 36, 0
10, 49344, Note_on_c, 9, 44, 60
10, 49368, Note_on_c, 9, 44, 0
10, 49536, Note_on_c, 9, 37, 127
10, 49536, Note_on_c, 9, 44, 98
10, 49560, Note_on_c, 9, 44, 0
10, 49560, Note_on_c, 9, 37, 0
10, 49728, Note_on_c, 9, 36, 127
10, 49728, Note_on_c, 9, 44, 74
10, 49752, Note_on_c, 9, 44, 0
10, 49752, Note_on_c, 9, 36, 0
10, 49920, Note_on_c, 9, 36, 127
10, 49920, Note_on_c, 9, 44, 89
10, 49944, Note_on_c, 9, 44, 0
10, 49944, Note_on_c, 9, 36, 0
10, 50112, Note_on_c, 9, 44, 72
10, 50136, Note_on_c, 9, 44, 0
10, 50304, Note_on_c, 9, 37, 127
10, 50304, Note_on_c, 9, 44, 103
10, 50328, Note_on_c, 9, 44, 0
10, 50328, Note_on_c, 9, 37, 0
10, 50496, Note_on_c, 9, 44, 85
10, 50520, Note_on_c, 9, 44, 0
10, 50688, Note_on_c, 9, 36, 127
10, 50688, Note_on_c, 9, 44, 99
10, 50712, Note_on_c, 9, 44, 0
10, 50712, Note_on_c, 9, 36, 0
10, 50880, Note_on_c, 9, 44, 65
10, 50904, Note_on_c, 9, 44, 0
10, 51072, Note_on_c, 9, 37, 127
10, 51072, Note_on_c, 9, 44, 103
10, 51096, Note_on_c, 9, 44, 0
10, 51096, Note_on_c, 9, 37, 0
10, 51264, Note_on_c, 9, 36, 127
10, 51264, Note_on_c, 9, 44, 94
10, 51288, Note_on_c, 9, 44, 0
10, 51288, Note_on_c, 9, 36, 0
10, 51456, Note_on_c, 9, 36, 127
10, 51456, Note_on_c, 9, 44, 100
10, 51480, Note_on_c, 9, 44, 0
10, 51480, Note_on_c, 9, 36, 0
10, 51648, Note_on_c, 9, 44, 72
10, 51672, Note_on_c, 9, 44, 0
10, 51840, Note_on_c, 9, 37, 127
10, 51840, Note_on_c, 9, 44, 85
10, 51864, Note_on_c, 9, 44, 0
10, 51864, Note_on_c, 9, 37, 0
10, 52032, Note_on_c, 9, 46, 88
10, 52056, Note_on_c, 9, 46, 0
10, 52224, Note_on_c, 9, 36, 127
10, 52224, Note_on_c, 9, 44, 92
10, 52248, Note_on_c, 9, 44, 0
10, 52248, Note_on_c, 9, 36, 0
10, 52416, Note_on_c, 9, 44, 66
10, 52440, Note_on_c, 9, 44, 0
10, 52608, Note_on_c, 9, 37, 127
10, 52608, Note_on_c, 9, 44, 103
10, 52632, Note_on_c, 9, 44, 0
10, 52632, Note_on_c, 9, 37, 0
10, 52800, Note_on_c, 9, 36, 127
10, 52800, Note_on_c, 9, 44, 96
10, 52824, Note_on_c, 9, 44, 0
10, 52824, Note_on_c, 9, 36, 0
10, 52992, Note_on_c, 9, 36, 127
10, 52992, Note_on_c, 9, 44, 99
10, 53016, Note_on_c, 9, 44, 0
10, 53016, Note_on_c, 9, 36, 0
10, 53184, Note_on_c, 9, 44, 83
10, 53208, Note_on_c, 9, 44, 0
10, 53376, Note_on_c, 9, 37, 127
10, 53376, Note_on_c, 9, 44, 103
10, 53400, Note_on_c, 9, 44, 0
10, 53400, Note_on_c, 9, 37, 0
10, 53568, Note_on_c, 9, 44, 74
10, 53592, Note_on_c, 9, 44, 0
10, 53760, Note_on_c, 9, 36, 127
10, 53760, Note_on_c, 9, 44, 95
10, 53784, Note_on_c, 9, 44, 0
10, 53784, Note_on_c, 9, 36, 0
10, 53952, Note_on_c, 9, 44, 75
10, 53976, Note_on_c, 9, 44, 0
10, 54144, Note_on_c, 9, 37, 127
10, 54144, Note_on_c, 9, 44, 103
10, 54168, Note_on_c, 9, 44, 0
10, 54168, Note_on_c, 9, 37, 0
10, 54336, Note_on_c, 9, 36, 127
10, 54336, Note_on_c, 9, 46, 54
10, 54360, Note_on_c, 9, 46, 0
10, 54360, Note_on_c, 9, 36, 0
10, 54528, Note_on_c, 9, 36, 127
10, 54528, Note_on_c, 9, 44, 83
10, 54528, Note_on_c, 9, 81, 75
10, 54552, Note_on_c, 9, 81, 0
10, 54552, Note_on_c, 9, 44, 0
10, 54552, Note_on_c, 9, 36, 0
10, 54720, Note_on_c, 9, 44, 84
10, 54744, Note_on_c, 9, 44, 0
10, 54816, Note_on_c, 9, 81, 74
10, 54840, Note_on_c, 9, 81, 0
10, 54912, Note_on_c, 9, 37, 127
10, 54912, Note_on_c, 9, 44, 98
10, 54936, Note_on_c, 9, 44, 0
10, 54936, Note_on_c, 9, 37, 0
10, 55104, Note_on_c, 9, 44, 80
10, 55128, Note_on_c, 9, 44, 0
10, 55180, Note_on_c, 9, 84, 87
10, 55296, Note_on_c, 9, 36, 127
10, 55296, Note_on_c, 9, 44, 96
10, 55320, Note_on_c, 9, 44, 0
10, 55320, Note_on_c, 9, 36, 0
10, 55488, Note_on_c, 9, 44, 77
10, 55500, Note_on_c, 9, 84, 0
10, 55512, Note_on_c, 9, 44, 0
10, 55680, Note_on_c, 9, 37, 127
10, 55680, Note_on_c, 9, 44, 103
10, 55704, Note_on_c, 9, 44, 0
10, 55704, Note_on_c, 9, 37, 0
10, 55872, Note_on_c, 9, 36, 127
10, 55872, Note_on_c, 9, 44, 95
10, 55896, Note_on_c, 9, 44, 0
10, 55896, Note_on_c, 9, 36, 0
10, 56064, Note_on_c, 9, 36, 127
10, 56064, Note_on_c, 9, 44, 96
10, 56088, Note_on_c, 9, 44, 0
10, 56088, Note_on_c, 9, 36, 0
10, 56256, Note_on_c, 9, 44, 74
10, 56280, Note_on_c, 9, 44, 0
10, 56448, Note_on_c, 9, 37, 127
10, 56448, Note_on_c, 9, 44, 103
10, 56472, Note_on_c, 9, 44, 0
10, 56472, Note_on_c, 9, 37, 0
10, 56640, Note_on_c, 9, 46, 75
10, 56664, Note_on_c, 9, 46, 0
10, 56832, Note_on_c, 9, 36, 127
10, 56832, Note_on_c, 9, 44, 84
10, 56856, Note_on_c, 9, 44, 0
10, 56856, Note_on_c, 9, 36, 0
10, 57024, Note_on_c, 9, 44, 92
10, 57048, Note_on_c, 9, 44, 0
10, 57216, Note_on_c, 9, 37, 127
10, 57216, Note_on_c, 9, 44, 98
10, 57240, Note_on_c, 9, 44, 0
10, 57240, Note_on_c, 9, 37, 0
10, 57408, Note_on_c, 9, 36, 127
10, 57408, Note_on_c, 9, 44, 96
10, 57432, Note_on_c, 9, 44, 0
10, 57432, Note_on_c, 9, 36, 0
10, 57600, Note_on_c, 9, 36, 127
10, 57600, Note_on_c, 9, 44, 96
10, 57624, Note_on_c, 9, 44, 0
10, 57624, Note_on_c, 9, 36, 0
10, 57792, Note_on_c, 9, 44, 72
10, 57816, Note_on_c, 9, 44, 0
10, 57984, Note_on_c, 9, 37, 127
10, 57984, Note_on_c, 9, 44, 100
10, 58008, Note_on_c, 9, 44, 0
10, 58008, Note_on_c, 9, 37, 0
10, 58176, Note_on_c, 9, 44, 74
10, 58200, Note_on_c, 9, 44, 0
10, 58368, Note_on_c, 9, 36, 127
10, 58368, Note_on_c, 9, 44, 100
10, 58392, Note_on_c, 9, 44, 0
10, 58392, Note_on_c, 9, 36, 0
10, 58560, Note_on_c, 9, 44, 85
10, 58584, Note_on_c, 9, 44, 0
10, 58752, Note_on_c, 9, 37, 127
10, 58752, Note_on_c, 9, 44, 101
10, 58776, Note_on_c, 9, 44, 0
10, 58776, Note_on_c, 9, 37, 0
10, 58944, Note_on_c, 9, 36, 127
10, 58944, Note_on_c, 9, 44, 98
10, 58968, Note_on_c, 9, 44, 0
10, 58968, Note_on_c, 9, 36, 0
10, 59136, Note_on_c, 9, 36, 127
10, 59136, Note_on_c, 9, 44, 100
10, 59160, Note_on_c, 9, 44, 0
10, 59160, Note_on_c, 9, 36, 0
10, 59328, Note_on_c, 9, 44, 74
10, 59352, Note_on_c, 9, 44, 0
10, 59520, Note_on_c, 9, 37, 127
10, 59520, Note_on_c, 9, 44, 103
10, 59544, Note_on_c, 9, 44, 0
10, 59544, Note_on_c, 9, 37, 0
10, 59712, Note_on_c, 9, 44, 84
10, 59736, Note_on_c, 9, 44, 0
10, 59904, Note_on_c, 9, 46, 87
10, 59928, Note_on_c, 9, 46, 0
10, 60576, Note_on_c, 9, 44, 62
10, 60600, Note_on_c, 9, 44, 0
10, 60672, Note_on_c, 9, 46, 94
10, 60696, Note_on_c, 9, 46, 0
10, 63360, Note_on_c, 9, 41, 127
10, 63360, Note_on_c, 9, 43, 127
10, 63360, Note_on_c, 9, 45, 127
10, 63384, Note_on_c, 9, 45, 0
10, 63384, Note_on_c, 9, 43, 0
10, 63384, Note_on_c, 9, 41, 0
10, 63744, Note_on_c, 9, 36, 127
10, 63744, Note_on_c, 9, 57, 127
10, 63768, Note_on_c, 9, 36, 0
10, 63791, Note_on_c, 9, 57, 0
10, 63936, Note_on_c, 9, 44, 60
10, 63953, Note_on_c, 9, 44, 0
10, 64128, Note_on_c, 9, 40, 127
10, 64128, Note_on_c, 9, 44, 103
10, 64152, Note_on_c, 9, 40, 0
10, 64160, Note_on_c, 9, 44, 0
10, 64320, Note_on_c, 9, 36, 127
10, 64320, Note_on_c, 9, 44, 103
10, 64344, Note_on_c, 9, 36, 0
10, 64352, Note_on_c, 9, 44, 0
10, 64512, Note_on_c, 9, 36, 127
10, 64512, Note_on_c, 9, 44, 103
10, 64536, Note_on_c, 9, 36, 0
10, 64549, Note_on_c, 9, 44, 0
10, 64704, Note_on_c, 9, 44, 99
10, 64736, Note_on_c, 9, 44, 0
10, 64896, Note_on_c, 9, 40, 127
10, 64896, Note_on_c, 9, 44, 103
10, 64896, Note_on_c, 9, 54, 115
10, 64920, Note_on_c, 9, 40, 0
10, 64928, Note_on_c, 9, 54, 0
10, 64929, Note_on_c, 9, 44, 0
10, 65088, Note_on_c, 9, 44, 103
10, 65121, Note_on_c, 9, 44, 0
10, 65280, Note_on_c, 9, 36, 127
10, 65280, Note_on_c, 9, 44, 96
10, 65304, Note_on_c, 9, 36, 0
10, 65317, Note_on_c, 9, 44, 0
10, 65472, Note_on_c, 9, 44, 84
10, 65509, Note_on_c, 9, 44, 0
10, 65664, Note_on_c, 9, 40, 127
10, 65664, Note_on_c, 9, 44, 103
10, 65688, Note_on_c, 9, 40, 0
10, 65705, Note_on_c, 9, 44, 0
10, 65856, Note_on_c, 9, 36, 127
10, 65856, Note_on_c, 9, 44, 96
10, 65880, Note_on_c, 9, 36, 0
10, 65898, Note_on_c, 9, 44, 0
10, 66048, Note_on_c, 9, 36, 127
10, 66048, Note_on_c, 9, 44, 96
10, 66072, Note_on_c, 9, 36, 0
10, 66091, Note_on_c, 9, 44, 0
10, 66240, Note_on_c, 9, 44, 87
10, 66280, Note_on_c, 9, 44, 0
10, 66432, Note_on_c, 9, 40, 127
10, 66432, Note_on_c, 9, 44, 103
10, 66432, Note_on_c, 9, 54, 115
10, 66456, Note_on_c, 9, 40, 0
10, 66462, Note_on_c, 9, 54, 0
10, 66475, Note_on_c, 9, 44, 0
10, 66624, Note_on_c, 9, 46, 103
10, 66793, Note_on_c, 9, 46, 0
10, 66816, Note_on_c, 9, 36, 127
10, 66816, Note_on_c, 9, 44, 99
10, 66840, Note_on_c, 9, 36, 0
10, 66868, Note_on_c, 9, 44, 0
10, 67008, Note_on_c, 9, 44, 100
10, 67050, Note_on_c, 9, 44, 0
10, 67200, Note_on_c, 9, 40, 127
10, 67200, Note_on_c, 9, 44, 103
10, 67224, Note_on_c, 9, 40, 0
10, 67248, Note_on_c, 9, 44, 0
10, 67392, Note_on_c, 9, 36, 127
10, 67392, Note_on_c, 9, 44, 103
10, 67416, Note_on_c, 9, 36, 0
10, 67440, Note_on_c, 9, 44, 0
10, 67584, Note_on_c, 9, 36, 127
10, 67584, Note_on_c, 9, 44, 103
10, 67608, Note_on_c, 9, 36, 0
10, 67631, Note_on_c, 9, 44, 0
10, 67776, Note_on_c, 9, 44, 89
10, 67818, Note_on_c, 9, 44, 0
10, 67968, Note_on_c, 9, 40, 127
10, 67968, Note_on_c, 9, 44, 103
10, 67968, Note_on_c, 9, 54, 115
10, 67992, Note_on_c, 9, 40, 0
10, 67996, Note_on_c, 9, 54, 0
10, 68014, Note_on_c, 9, 44, 0
10, 68160, Note_on_c, 9, 44, 95
10, 68204, Note_on_c, 9, 44, 0
10, 68352, Note_on_c, 9, 36, 127
10, 68352, Note_on_c, 9, 44, 103
10, 68376, Note_on_c, 9, 36, 0
10, 68401, Note_on_c, 9, 44, 0
10, 68544, Note_on_c, 9, 44, 82
10, 68588, Note_on_c, 9, 44, 0
10, 68736, Note_on_c, 9, 40, 127
10, 68736, Note_on_c, 9, 44, 103
10, 68760, Note_on_c, 9, 40, 0
10, 68781, Note_on_c, 9, 44, 0
10, 68928, Note_on_c, 9, 36, 127
10, 68928, Note_on_c, 9, 44, 99
10, 68952, Note_on_c, 9, 36, 0
10, 68972, Note_on_c, 9, 44, 0
10, 69120, Note_on_c, 9, 36, 127
10, 69120, Note_on_c, 9, 44, 103
10, 69144, Note_on_c, 9, 36, 0
10, 69165, Note_on_c, 9, 44, 0
10, 69312, Note_on_c, 9, 44, 82
10, 69352, Note_on_c, 9, 44, 0
10, 69504, Note_on_c, 9, 40, 127
10, 69504, Note_on_c, 9, 46, 103
10, 69504, Note_on_c, 9, 54, 115
10, 69528, Note_on_c, 9, 40, 0
10, 69531, Note_on_c, 9, 54, 0
10, 69545, Note_on_c, 9, 46, 0
10, 69696, Note_on_c, 9, 45, 127
10, 69747, Note_on_c, 9, 45, 0
10, 69792, Note_on_c, 9, 43, 127
10, 69876, Note_on_c, 9, 43, 0
10, 69888, Note_on_c, 9, 36, 127
10, 69888, Note_on_c, 9, 44, 103
10, 69888, Note_on_c, 9, 57, 127
10, 69912, Note_on_c, 9, 36, 0
10, 69940, Note_on_c, 9, 44, 0
10, 69984, Note_on_c, 9, 57, 0
10, 70080, Note_on_c, 9, 44, 94
10, 70124, Note_on_c, 9, 44, 0
10, 70272, Note_on_c, 9, 40, 127
10, 70272, Note_on_c, 9, 44, 103
10, 70296, Note_on_c, 9, 40, 0
10, 70317, Note_on_c, 9, 44, 0
10, 70464, Note_on_c, 9, 36, 127
10, 70464, Note_on_c, 9, 44, 100
10, 70488, Note_on_c, 9, 36, 0
10, 70516, Note_on_c, 9, 44, 0
10, 70656, Note_on_c, 9, 36, 127
10, 70656, Note_on_c, 9, 44, 100
10, 70680, Note_on_c, 9, 36, 0
10, 70699, Note_on_c, 9, 44, 0
10, 70848, Note_on_c, 9, 44, 75
10, 70888, Note_on_c, 9, 44, 0
10, 71040, Note_on_c, 9, 40, 127
10, 71040, Note_on_c, 9, 44, 103
10, 71040, Note_on_c, 9, 54, 115
10, 71064, Note_on_c, 9, 40, 0
10, 71066, Note_on_c, 9, 54, 0
10, 71082, Note_on_c, 9, 44, 0
10, 71232, Note_on_c, 9, 44, 90
10, 71275, Note_on_c, 9, 44, 0
10, 71424, Note_on_c, 9, 36, 127
10, 71424, Note_on_c, 9, 44, 103
10, 71448, Note_on_c, 9, 36, 0
10, 71471, Note_on_c, 9, 44, 0
10, 71616, Note_on_c, 9, 44, 90
10, 71660, Note_on_c, 9, 44, 0
10, 71808, Note_on_c, 9, 40, 127
10, 71808, Note_on_c, 9, 44, 103
10, 71832, Note_on_c, 9, 40, 0
10, 71852, Note_on_c, 9, 44, 0
10, 72000, Note_on_c, 9, 36, 127
10, 72000, Note_on_c, 9, 44, 95
10, 72024, Note_on_c, 9, 36, 0
10, 72045, Note_on_c, 9, 44, 0
10, 72192, Note_on_c, 9, 36, 127
10, 72192, Note_on_c, 9, 44, 98
10, 72216, Note_on_c, 9, 36, 0
10, 72241, Note_on_c, 9, 44, 0
10, 72384, Note_on_c, 9, 44, 79
10, 72425, Note_on_c, 9, 44, 0
10, 72576, Note_on_c, 9, 40, 127
10, 72576, Note_on_c, 9, 44, 103
10, 72576, Note_on_c, 9, 54, 115
10, 72600, Note_on_c, 9, 40, 0
10, 72603, Note_on_c, 9, 54, 0
10, 72619, Note_on_c, 9, 44, 0
10, 72768, Note_on_c, 9, 46, 100
10, 72864, Note_on_c, 9, 46, 0
10, 72960, Note_on_c, 9, 36, 127
10, 72960, Note_on_c, 9, 44, 94
10, 72984, Note_on_c, 9, 36, 0
10, 73019, Note_on_c, 9, 44, 0
10, 73152, Note_on_c, 9, 44, 94
10, 73203, Note_on_c, 9, 44, 0
10, 73344, Note_on_c, 9, 40, 127
10, 73344, Note_on_c, 9, 44, 103
10, 73368, Note_on_c, 9, 40, 0
10, 73396, Note_on_c, 9, 44, 0
10, 73536, Note_on_c, 9, 36, 127
10, 73536, Note_on_c, 9, 44, 96
10, 73560, Note_on_c, 9, 36, 0
10, 73584, Note_on_c, 9, 44, 0
10, 73728, Note_on_c, 9, 36, 127
10, 73728, Note_on_c, 9, 44, 98
10, 73752, Note_on_c, 9, 36, 0
10, 73774, Note_on_c, 9, 44, 0
10, 73920, Note_on_c, 9, 44, 75
10, 73962, Note_on_c, 9, 44, 0
10, 74112, Note_on_c, 9, 40, 127
10, 74112, Note_on_c, 9, 44, 103
10, 74112, Note_on_c, 9, 54, 115
10, 74136, Note_on_c, 9, 40, 0
10, 74163, Note_on_c, 9, 44, 0
10, 74170, Note_on_c, 9, 54, 0
10, 74304, Note_on_c, 9, 44, 87
10, 74349, Note_on_c, 9, 44, 0
10, 74496, Note_on_c, 9, 40, 127
10, 74496, Note_on_c, 9, 46, 100
10, 74496, Note_on_c, 9, 57, 123
10, 74559, Note_on_c, 9, 46, 0
10, 74592, Note_on_c, 9, 40, 0
10, 74630, Note_on_c, 9, 57, 0
10, 74880, Note_on_c, 9, 40, 127
10, 74880, Note_on_c, 9, 46, 103
10, 74930, Note_on_c, 9, 46, 0
10, 74976, Note_on_c, 9, 40, 0
10, 75072, Note_on_c, 9, 36, 127
10, 75096, Note_on_c, 9, 36, 0
10, 75264, Note_on_c, 9, 40, 127
10, 75264, Note_on_c, 9, 46, 96
10, 75299, Note_on_c, 9, 46, 0
10, 75360, Note_on_c, 9, 40, 0
10, 75548, Note_on_c, 9, 84, 91
10, 75552, Note_on_c, 9, 40, 65
10, 75552, Note_on_c, 9, 43, 65
10, 75598, Note_on_c, 9, 43, 0
10, 75620, Note_on_c, 9, 40, 0
10, 75648, Note_on_c, 9, 40, 94
10, 75648, Note_on_c, 9, 43, 94
10, 75694, Note_on_c, 9, 43, 0
10, 75695, Note_on_c, 9, 40, 0
10, 75718, Note_on_c, 9, 84, 0
10, 75744, Note_on_c, 9, 40, 113
10, 75744, Note_on_c, 9, 43, 113
10, 75761, Note_on_c, 9, 84, 91
10, 75780, Note_on_c, 9, 40, 0
10, 75781, Note_on_c, 9, 43, 0
10, 75840, Note_on_c, 9, 40, 127
10, 75840, Note_on_c, 9, 43, 127
10, 75881, Note_on_c, 9, 43, 0
10, 75887, Note_on_c, 9, 40, 0
10, 75936, Note_on_c, 9, 40, 127
10, 75936, Note_on_c, 9, 43, 127
10, 75977, Note_on_c, 9, 43, 0
10, 75983, Note_on_c, 9, 40, 0
10, 76018, Note_on_c, 9, 84, 0
10, 76032, Note_on_c, 9, 36, 127
10, 76032, Note_on_c, 9, 57, 127
10, 76057, Note_on_c, 9, 36, 0
10, 76066, Note_on_c, 9, 57, 0
10, 76224, Note_on_c, 9, 44, 99
10, 76258, Note_on_c, 9, 44, 0
10, 76416, Note_on_c, 9, 40, 127
10, 76416, Note_on_c, 9, 44, 103
10, 76416, Note_on_c, 9, 54, 115
10, 76440, Note_on_c, 9, 54, 0
10, 76442, Note_on_c, 9, 40, 0
10, 76449, Note_on_c, 9, 44, 0
10, 76608, Note_on_c, 9, 36, 127
10, 76608, Note_on_c, 9, 44, 99
10, 76630, Note_on_c, 9, 36, 0
10, 76639, Note_on_c, 9, 44, 0
10, 76800, Note_on_c, 9, 36, 127
10, 76800, Note_on_c, 9, 44, 103
10, 76826, Note_on_c, 9, 36, 0
10, 76833, Note_on_c, 9, 44, 0
10, 76992, Note_on_c, 9, 44, 73
10, 77018, Note_on_c, 9, 44, 0
10, 77184, Note_on_c, 9, 40, 127
10, 77184, Note_on_c, 9, 44, 103
10, 77184, Note_on_c, 9, 54, 115
10, 77208, Note_on_c, 9, 54, 0
10, 77215, Note_on_c, 9, 40, 0
10, 77219, Note_on_c, 9, 44, 0
10, 77376, Note_on_c, 9, 46, 84
10, 77536, Note_on_c, 9, 46, 0
10, 77568, Note_on_c, 9, 36, 127
10, 77568, Note_on_c, 9, 44, 72
10, 77602, Note_on_c, 9, 44, 0
10, 77604, Note_on_c, 9, 36, 0
10, 77760, Note_on_c, 9, 44, 77
10, 77793, Note_on_c, 9, 44, 0
10, 77952, Note_on_c, 9, 40, 127
10, 77952, Note_on_c, 9, 44, 103
10, 77952, Note_on_c, 9, 54, 115
10, 77976, Note_on_c, 9, 54, 0
10, 77977, Note_on_c, 9, 40, 0
10, 77990, Note_on_c, 9, 44, 0
10, 78144, Note_on_c, 9, 36, 127
10, 78144, Note_on_c, 9, 44, 100
10, 78170, Note_on_c, 9, 36, 0
10, 78179, Note_on_c, 9, 44, 0
10, 78336, Note_on_c, 9, 36, 127
10, 78336, Note_on_c, 9, 44, 103
10, 78366, Note_on_c, 9, 36, 0
10, 78373, Note_on_c, 9, 44, 0
10, 78528, Note_on_c, 9, 44, 93
10, 78567, Note_on_c, 9, 44, 0
10, 78720, Note_on_c, 9, 40, 127
10, 78720, Note_on_c, 9, 44, 103
10, 78720, Note_on_c, 9, 54, 115
10, 78744, Note_on_c, 9, 54, 0
10, 78750, Note_on_c, 9, 40, 0
10, 78763, Note_on_c, 9, 44, 0
10, 78912, Note_on_c, 9, 44, 103
10, 79013, Note_on_c, 9, 84, 84
10, 79081, Note_on_c, 9, 44, 0
10, 79104, Note_on_c, 9, 36, 127
10, 79104, Note_on_c, 9, 44, 93
10, 79104, Note_on_c, 9, 57, 127
10, 79130, Note_on_c, 9, 57, 0
10, 79145, Note_on_c, 9, 36, 0
10, 79153, Note_on_c, 9, 44, 0
10, 79296, Note_on_c, 9, 44, 87
10, 79335, Note_on_c, 9, 44, 0
10, 79479, Note_on_c, 9, 84, 0
10, 79488, Note_on_c, 9, 40, 127
10, 79488, Note_on_c, 9, 44, 103
10, 79488, Note_on_c, 9, 54, 115
10, 79512, Note_on_c, 9, 54, 0
10, 79521, Note_on_c, 9, 40, 0
10, 79529, Note_on_c, 9, 44, 0
10, 79680, Note_on_c, 9, 36, 127
10, 79680, Note_on_c, 9, 44, 98
10, 79706, Note_on_c, 9, 36, 0
10, 79719, Note_on_c, 9, 44, 0
10, 79872, Note_on_c, 9, 36, 127
10, 79872, Note_on_c, 9, 44, 96
10, 79903, Note_on_c, 9, 36, 0
10, 79908, Note_on_c, 9, 44, 0
10, 80064, Note_on_c, 9, 44, 70
10, 80094, Note_on_c, 9, 44, 0
10, 80256, Note_on_c, 9, 40, 127
10, 80256, Note_on_c, 9, 44, 103
10, 80256, Note_on_c, 9, 54, 115
10, 80281, Note_on_c, 9, 54, 0
10, 80288, Note_on_c, 9, 40, 0
10, 80290, Note_on_c, 9, 44, 0
10, 80448, Note_on_c, 9, 44, 99
10, 80479, Note_on_c, 9, 44, 0
10, 80640, Note_on_c, 9, 36, 127
10, 80640, Note_on_c, 9, 44, 99
10, 80669, Note_on_c, 9, 44, 0
10, 80675, Note_on_c, 9, 36, 0
10, 80832, Note_on_c, 9, 44, 92
10, 80859, Note_on_c, 9, 44, 0
10, 81024, Note_on_c, 9, 40, 127
10, 81024, Note_on_c, 9, 44, 103
10, 81024, Note_on_c, 9, 54, 115
10, 81050, Note_on_c, 9, 44, 0
10, 81051, Note_on_c, 9, 40, 0
10, 81053, Note_on_c, 9, 54, 0
10, 81216, Note_on_c, 9, 44, 96
10, 81251, Note_on_c, 9, 44, 0
10, 81312, Note_on_c, 9, 44, 87
10, 81347, Note_on_c, 9, 44, 0
10, 81408, Note_on_c, 9, 46, 96
10, 81408, Note_on_c, 9, 59, 103
10, 81486, Note_on_c, 9, 46, 0
10, 81504, Note_on_c, 9, 59, 0
10, 81696, Note_on_c, 9, 46, 75
10, 81696, Note_on_c, 9, 81, 69
10, 81740, Note_on_c, 9, 46, 0
10, 81792, Note_on_c, 9, 81, 0
10, 81984, Note_on_c, 9, 81, 53
10, 82080, Note_on_c, 9, 81, 0
10, 82080, End_track
11, 0, Start_track
11, 0, MIDI_port, 0
11, 0, Title_t, "CANTO"
11, 832, Program_c, 8, 49
11, 912, Control_c, 8, 7, 127
11, 944, Control_c, 8, 91, 127
11, 1361, Note_on_c, 8, 64, 63
11, 1543, Note_on_c, 8, 69, 67
11, 1563, Note_on_c, 8, 64, 0
11, 3533, Note_on_c, 8, 69, 0
11, 3665, Note_on_c, 8, 69, 67
11, 3855, Note_on_c, 8, 68, 64
11, 3869, Note_on_c, 8, 69, 0
11, 4132, Note_on_c, 8, 68, 0
11, 4135, Note_on_c, 8, 69, 67
11, 4306, Note_on_c, 8, 69, 0
11, 4361, Note_on_c, 8, 69, 56
11, 4411, Note_on_c, 8, 71, 58
11, 4432, Note_on_c, 8, 69, 0
11, 4607, Note_on_c, 8, 69, 66
11, 4611, Note_on_c, 8, 71, 0
11, 5098, Note_on_c, 8, 71, 57
11, 5114, Note_on_c, 8, 69, 0
11, 5128, Note_on_c, 8, 73, 51
11, 5150, Note_on_c, 8, 71, 0
11, 5212, Note_on_c, 8, 71, 46
11, 5214, Note_on_c, 8, 73, 0
11, 5255, Note_on_c, 8, 73, 58
11, 5289, Note_on_c, 8, 71, 0
11, 5356, Note_on_c, 8, 71, 64
11, 5358, Note_on_c, 8, 73, 0
11, 5405, Note_on_c, 8, 73, 53
11, 5435, Note_on_c, 8, 71, 0
11, 5506, Note_on_c, 8, 71, 57
11, 5515, Note_on_c, 8, 73, 0
11, 5592, Note_on_c, 8, 69, 58
11, 5599, Note_on_c, 8, 71, 0
11, 6584, Note_on_c, 8, 69, 0
11, 6728, Note_on_c, 8, 69, 76
11, 6928, Note_on_c, 8, 68, 63
11, 6939, Note_on_c, 8, 69, 0
11, 7215, Note_on_c, 8, 68, 0
11, 7225, Note_on_c, 8, 69, 62
11, 7419, Note_on_c, 8, 69, 0
11, 7444, Note_on_c, 8, 69, 51
11, 7494, Note_on_c, 8, 71, 45
11, 7534, Note_on_c, 8, 69, 0
11, 7708, Note_on_c, 8, 71, 0
11, 7722, Note_on_c, 8, 69, 62
11, 9477, Note_on_c, 8, 69, 0
11, 10718, Note_on_c, 8, 64, 55
11, 10750, Note_on_c, 8, 66, 55
11, 10779, Note_on_c, 8, 64, 0
11, 10886, Note_on_c, 8, 64, 56
11, 10890, Note_on_c, 8, 66, 0
11, 10933, Note_on_c, 8, 66, 58
11, 10964, Note_on_c, 8, 64, 0
11, 11669, Note_on_c, 8, 66, 0
11, 12173, Note_on_c, 8, 62, 55
11, 12228, Note_on_c, 8, 62, 0
11, 12295, Note_on_c, 8, 66, 63
11, 12343, Note_on_c, 8, 68, 52
11, 12358, Note_on_c, 8, 66, 0
11, 12410, Note_on_c, 8, 68, 0
11, 12424, Note_on_c, 8, 66, 66
11, 12454, Note_on_c, 8, 68, 57
11, 12480, Note_on_c, 8, 66, 0
11, 12662, Note_on_c, 8, 66, 58
11, 12681, Note_on_c, 8, 68, 0
11, 12756, Note_on_c, 8, 64, 62
11, 12758, Note_on_c, 8, 66, 0
11, 13476, Note_on_c, 8, 64, 0
11, 14963, Note_on_c, 8, 74, 79
11, 15240, Note_on_c, 8, 76, 55
11, 15251, Note_on_c, 8, 74, 0
11, 15372, Note_on_c, 8, 73, 66
11, 15390, Note_on_c, 8, 76, 0
11, 16219, Note_on_c, 8, 73, 0
11, 16512, Note_on_c, 8, 71, 67
11, 16783, Note_on_c, 8, 74, 55
11, 16805, Note_on_c, 8, 71, 0
11, 16904, Note_on_c, 8, 73, 67
11, 16925, Note_on_c, 8, 74, 0
11, 17844, Note_on_c, 8, 73, 0
11, 18125, Note_on_c, 8, 71, 57
11, 18149, Note_on_c, 8, 73, 61
11, 18172, Note_on_c, 8, 71, 0
11, 18215, Note_on_c, 8, 73, 0
11, 18262, Note_on_c, 8, 71, 66
11, 18412, Note_on_c, 8, 69, 66
11, 18415, Note_on_c, 8, 71, 0
11, 18954, Note_on_c, 8, 69, 0
11, 19011, Note_on_c, 8, 71, 55
11, 19028, Note_on_c, 8, 73, 62
11, 19054, Note_on_c, 8, 71, 0
11, 19106, Note_on_c, 8, 73, 0
11, 19160, Note_on_c, 8, 71, 64
11, 19256, Note_on_c, 8, 71, 0
11, 19306, Note_on_c, 8, 69, 56
11, 19678, Note_on_c, 8, 69, 0
11, 19836, Note_on_c, 8, 76, 55
11, 19857, Note_on_c, 8, 78, 55
11, 19888, Note_on_c, 8, 76, 0
11, 19948, Note_on_c, 8, 78, 0
11, 19967, Note_on_c, 8, 76, 53
11, 20007, Note_on_c, 8, 78, 62
11, 20044, Note_on_c, 8, 76, 0
11, 20529, Note_on_c, 8, 78, 0
11, 20530, Note_on_c, 8, 76, 53
11, 20581, Note_on_c, 8, 76, 0
11, 20609, Note_on_c, 8, 78, 57
11, 20656, Note_on_c, 8, 80, 45
11, 20678, Note_on_c, 8, 78, 0
11, 20826, Note_on_c, 8, 78, 50
11, 20863, Note_on_c, 8, 80, 0
11, 20888, Note_on_c, 8, 76, 57
11, 20897, Note_on_c, 8, 78, 0
11, 21194, Note_on_c, 8, 76, 0
11, 21321, Note_on_c, 8, 74, 71
11, 21398, Note_on_c, 8, 74, 0
11, 21417, Note_on_c, 8, 76, 62
11, 21479, Note_on_c, 8, 76, 0
11, 21537, Note_on_c, 8, 71, 46
11, 21575, Note_on_c, 8, 73, 46
11, 21607, Note_on_c, 8, 71, 0
11, 21679, Note_on_c, 8, 71, 57
11, 21681, Note_on_c, 8, 73, 0
11, 21721, Note_on_c, 8, 73, 55
11, 21750, Note_on_c, 8, 71, 0
11, 22136, Note_on_c, 8, 73, 0
11, 22462, Note_on_c, 8, 81, 79
11, 22708, Note_on_c, 8, 81, 0
11, 22842, Note_on_c, 8, 69, 62
11, 22896, Note_on_c, 8, 69, 0
11, 22905, Note_on_c, 8, 71, 57
11, 22964, Note_on_c, 8, 71, 0
11, 22965, Note_on_c, 8, 73, 56
11, 23035, Note_on_c, 8, 73, 0
11, 23048, Note_on_c, 8, 71, 58
11, 23087, Note_on_c, 8, 73, 62
11, 23118, Note_on_c, 8, 71, 0
11, 23198, Note_on_c, 8, 71, 67
11, 23212, Note_on_c, 8, 73, 0
11, 23269, Note_on_c, 8, 69, 64
11, 23274, Note_on_c, 8, 71, 0
11, 23794, Note_on_c, 8, 69, 0
11, 24270, Note_on_c, 8, 71, 55
11, 24292, Note_on_c, 8, 73, 58
11, 24322, Note_on_c, 8, 71, 0
11, 24363, Note_on_c, 8, 73, 0
11, 24400, Note_on_c, 8, 71, 56
11, 24432, Note_on_c, 8, 73, 58
11, 24463, Note_on_c, 8, 71, 0
11, 24576, Note_on_c, 8, 73, 0
11, 24588, Note_on_c, 8, 69, 55
11, 24943, Note_on_c, 8, 69, 0
11, 25182, Note_on_c, 8, 71, 58
11, 25209, Note_on_c, 8, 73, 57
11, 25241, Note_on_c, 8, 71, 0
11, 25302, Note_on_c, 8, 73, 0
11, 25346, Note_on_c, 8, 71, 64
11, 25449, Note_on_c, 8, 71, 0
11, 25462, Note_on_c, 8, 69, 66
11, 25787, Note_on_c, 8, 69, 0
11, 26000, Note_on_c, 8, 76, 61
11, 26041, Note_on_c, 8, 78, 57
11, 26066, Note_on_c, 8, 76, 0
11, 26127, Note_on_c, 8, 78, 0
11, 26143, Note_on_c, 8, 76, 55
11, 26176, Note_on_c, 8, 78, 64
11, 26215, Note_on_c, 8, 76, 0
11, 26690, Note_on_c, 8, 78, 0
11, 26692, Note_on_c, 8, 76, 62
11, 26741, Note_on_c, 8, 76, 0
11, 26763, Note_on_c, 8, 78, 69
11, 26806, Note_on_c, 8, 80, 62
11, 26836, Note_on_c, 8, 78, 0
11, 26965, Note_on_c, 8, 78, 64
11, 26987, Note_on_c, 8, 80, 0
11, 27041, Note_on_c, 8, 76, 64
11, 27049, Note_on_c, 8, 78, 0
11, 27295, Note_on_c, 8, 76, 0
11, 27457, Note_on_c, 8, 81, 79
11, 27501, Note_on_c, 8, 81, 0
11, 27552, Note_on_c, 8, 81, 87
11, 28982, Note_on_c, 8, 83, 64
11, 28998, Note_on_c, 8, 81, 0
11, 29085, Note_on_c, 8, 81, 67
11, 29098, Note_on_c, 8, 83, 0
11, 29593, Note_on_c, 8, 81, 0
11, 29762, Note_on_c, 8, 81, 71
11, 29955, Note_on_c, 8, 80, 66
11, 29970, Note_on_c, 8, 81, 0
11, 30227, Note_on_c, 8, 80, 0
11, 30229, Note_on_c, 8, 81, 63
11, 30327, Note_on_c, 8, 81, 0
11, 30431, Note_on_c, 8, 81, 64
11, 30483, Note_on_c, 8, 83, 61
11, 30497, Note_on_c, 8, 81, 0
11, 30697, Note_on_c, 8, 81, 63
11, 30706, Note_on_c, 8, 83, 0
11, 31196, Note_on_c, 8, 83, 58
11, 31215, Note_on_c, 8, 81, 0
11, 31237, Note_on_c, 8, 85, 47
11, 31274, Note_on_c, 8, 83, 0
11, 31338, Note_on_c, 8, 83, 53
11, 31343, Note_on_c, 8, 85, 0
11, 31380, Note_on_c, 8, 85, 62
11, 31417, Note_on_c, 8, 83, 0
11, 31495, Note_on_c, 8, 83, 58
11, 31498, Note_on_c, 8, 85, 0
11, 31529, Note_on_c, 8, 85, 52
11, 31552, Note_on_c, 8, 83, 0
11, 31632, Note_on_c, 8, 83, 64
11, 31661, Note_on_c, 8, 85, 0
11, 31697, Note_on_c, 8, 81, 48
11, 31715, Note_on_c, 8, 83, 0
11, 32595, Note_on_c, 8, 81, 0
11, 32825, Note_on_c, 8, 81, 63
11, 33017, Note_on_c, 8, 80, 68
11, 33029, Note_on_c, 8, 81, 0
11, 33307, Note_on_c, 8, 80, 0
11, 33308, Note_on_c, 8, 81, 58
11, 33439, Note_on_c, 8, 81, 0
11, 33509, Note_on_c, 8, 81, 57
11, 33556, Note_on_c, 8, 83, 56
11, 33584, Note_on_c, 8, 81, 0
11, 33801, Note_on_c, 8, 81, 69
11, 33803, Note_on_c, 8, 83, 0
11, 35951, Note_on_c, 8, 81, 0
11, 48763, Note_on_c, 8, 74, 68
11, 48862, Note_on_c, 8, 76, 69
11, 48867, Note_on_c, 8, 74, 0
11, 49126, Note_on_c, 8, 71, 62
11, 49144, Note_on_c, 8, 76, 0
11, 49171, Note_on_c, 8, 73, 61
11, 49199, Note_on_c, 8, 71, 0
11, 49744, Note_on_c, 8, 73, 0
11, 50109, Note_on_c, 8, 71, 64
11, 50173, Note_on_c, 8, 71, 0
11, 50283, Note_on_c, 8, 71, 71
11, 50570, Note_on_c, 8, 71, 0
11, 50572, Note_on_c, 8, 74, 63
11, 50653, Note_on_c, 8, 74, 0
11, 50669, Note_on_c, 8, 71, 55
11, 50713, Note_on_c, 8, 73, 63
11, 50738, Note_on_c, 8, 71, 0
11, 51476, Note_on_c, 8, 73, 0
11, 51841, Note_on_c, 8, 76, 55
11, 51870, Note_on_c, 8, 78, 63
11, 51893, Note_on_c, 8, 76, 0
11, 51941, Note_on_c, 8, 78, 0
11, 51953, Note_on_c, 8, 76, 68
11, 51988, Note_on_c, 8, 78, 66
11, 52011, Note_on_c, 8, 76, 0
11, 52148, Note_on_c, 8, 78, 0
11, 52208, Note_on_c, 8, 73, 73
11, 52255, Note_on_c, 8, 71, 58
11, 52259, Note_on_c, 8, 72, 61
11, 52266, Note_on_c, 8, 73, 0
11, 52277, Note_on_c, 8, 72, 0
11, 52308, Note_on_c, 8, 69, 68
11, 52313, Note_on_c, 8, 71, 0
11, 52675, Note_on_c, 8, 69, 0
11, 52830, Note_on_c, 8, 71, 55
11, 52845, Note_on_c, 8, 73, 64
11, 52874, Note_on_c, 8, 71, 0
11, 52927, Note_on_c, 8, 73, 0
11, 52956, Note_on_c, 8, 71, 64
11, 53063, Note_on_c, 8, 71, 0
11, 53072, Note_on_c, 8, 69, 62
11, 53406, Note_on_c, 8, 69, 0
11, 53614, Note_on_c, 8, 76, 64
11, 53649, Note_on_c, 8, 78, 57
11, 53675, Note_on_c, 8, 76, 0
11, 53727, Note_on_c, 8, 78, 0
11, 53760, Note_on_c, 8, 76, 57
11, 53792, Note_on_c, 8, 78, 62
11, 53825, Note_on_c, 8, 76, 0
11, 54298, Note_on_c, 8, 78, 0
11, 54301, Note_on_c, 8, 76, 67
11, 54350, Note_on_c, 8, 76, 0
11, 54381, Note_on_c, 8, 78, 67
11, 54430, Note_on_c, 8, 80, 61
11, 54448, Note_on_c, 8, 78, 0
11, 54610, Note_on_c, 8, 78, 64
11, 54630, Note_on_c, 8, 80, 0
11, 54686, Note_on_c, 8, 78, 0
11, 54688, Note_on_c, 8, 76, 67
11, 54969, Note_on_c, 8, 76, 0
11, 55092, Note_on_c, 8, 76, 69
11, 55142, Note_on_c, 8, 76, 0
11, 55149, Note_on_c, 8, 78, 68
11, 55212, Note_on_c, 8, 81, 61
11, 55214, Note_on_c, 8, 78, 0
11, 55234, Note_on_c, 8, 81, 0
11, 55320, Note_on_c, 8, 81, 54
11, 55643, Note_on_c, 8, 83, 52
11, 55666, Note_on_c, 8, 85, 73
11, 55668, Note_on_c, 8, 81, 0
11, 55707, Note_on_c, 8, 83, 0
11, 55802, Note_on_c, 8, 83, 53
11, 55805, Note_on_c, 8, 85, 0
11, 55845, Note_on_c, 8, 85, 69
11, 55874, Note_on_c, 8, 83, 0
11, 56067, Note_on_c, 8, 85, 0
11, 56337, Note_on_c, 8, 76, 60
11, 56381, Note_on_c, 8, 76, 0
11, 56438, Note_on_c, 8, 76, 64
11, 56484, Note_on_c, 8, 78, 64
11, 56509, Note_on_c, 8, 76, 0
11, 56703, Note_on_c, 8, 78, 0
11, 56717, Note_on_c, 8, 73, 63
11, 56780, Note_on_c, 8, 73, 0
11, 56825, Note_on_c, 8, 76, 62
11, 56873, Note_on_c, 8, 73, 52
11, 56896, Note_on_c, 8, 76, 0
11, 56928, Note_on_c, 8, 71, 58
11, 56948, Note_on_c, 8, 73, 0
11, 56968, Note_on_c, 8, 69, 64
11, 56977, Note_on_c, 8, 71, 0
11, 57367, Note_on_c, 8, 69, 0
11, 57973, Note_on_c, 8, 76, 62
11, 58019, Note_on_c, 8, 76, 0
11, 58023, Note_on_c, 8, 78, 67
11, 58059, Note_on_c, 8, 78, 0
11, 58076, Note_on_c, 8, 81, 69
11, 58123, Note_on_c, 8, 81, 0
11, 58159, Note_on_c, 8, 81, 79
11, 58464, Note_on_c, 8, 78, 67
11, 58480, Note_on_c, 8, 81, 0
11, 58518, Note_on_c, 8, 78, 0
11, 58944, Note_on_c, 8, 81, 69
11, 59109, Note_on_c, 8, 81, 0
11, 59116, Note_on_c, 8, 78, 64
11, 59157, Note_on_c, 8, 80, 61
11, 59177, Note_on_c, 8, 78, 0
11, 59314, Note_on_c, 8, 78, 64
11, 59335, Note_on_c, 8, 80, 0
11, 59408, Note_on_c, 8, 76, 63
11, 59414, Note_on_c, 8, 78, 0
11, 59717, Note_on_c, 8, 73, 62
11, 59721, Note_on_c, 8, 76, 0
11, 59751, Note_on_c, 8, 73, 0
11, 59865, Note_on_c, 8, 76, 61
11, 59915, Note_on_c, 8, 78, 55
11, 59949, Note_on_c, 8, 76, 0
11, 60495, Note_on_c, 8, 76, 61
11, 60551, Note_on_c, 8, 78, 0
11, 60598, Note_on_c, 8, 76, 0
11, 60671, Note_on_c, 8, 78, 58
11, 60699, Note_on_c, 8, 80, 48
11, 60716, Note_on_c, 8, 78, 0
11, 60783, Note_on_c, 8, 78, 52
11, 60804, Note_on_c, 8, 80, 0
11, 60864, Note_on_c, 8, 76, 62
11, 60865, Note_on_c, 8, 78, 0
11, 61797, Note_on_c, 8, 76, 0
11, 63564, Note_on_c, 8, 83, 79
11, 63688, Note_on_c, 8, 83, 0
11, 63766, Note_on_c, 8, 83, 95
11, 65096, Note_on_c, 8, 85, 73
11, 65113, Note_on_c, 8, 83, 0
11, 65199, Note_on_c, 8, 83, 73
11, 65213, Note_on_c, 8, 85, 0
11, 65715, Note_on_c, 8, 83, 0
11, 65857, Note_on_c, 8, 83, 79
11, 66069, Note_on_c, 8, 82, 76
11, 66084, Note_on_c, 8, 83, 0
11, 66336, Note_on_c, 8, 83, 66
11, 66338, Note_on_c, 8, 82, 0
11, 66470, Note_on_c, 8, 83, 0
11, 66515, Note_on_c, 8, 83, 67
11, 66573, Note_on_c, 8, 85, 64
11, 66603, Note_on_c, 8, 83, 0
11, 66789, Note_on_c, 8, 83, 64
11, 66802, Note_on_c, 8, 85, 0
11, 67286, Note_on_c, 8, 85, 43
11, 67314, Note_on_c, 8, 87, 62
11, 67336, Note_on_c, 8, 85, 0
11, 67346, Note_on_c, 8, 83, 0
11, 67599, Note_on_c, 8, 85, 30
11, 67610, Note_on_c, 8, 87, 0
11, 67636, Note_on_c, 8, 87, 45
11, 67644, Note_on_c, 8, 85, 0
11, 67719, Note_on_c, 8, 85, 52
11, 67755, Note_on_c, 8, 87, 0
11, 67783, Note_on_c, 8, 83, 66
11, 67791, Note_on_c, 8, 85, 0
11, 68711, Note_on_c, 8, 83, 0
11, 68923, Note_on_c, 8, 83, 82
11, 69127, Note_on_c, 8, 82, 68
11, 69136, Note_on_c, 8, 83, 0
11, 69398, Note_on_c, 8, 83, 60
11, 69401, Note_on_c, 8, 82, 0
11, 69529, Note_on_c, 8, 83, 0
11, 69579, Note_on_c, 8, 83, 64
11, 69613, Note_on_c, 8, 85, 68
11, 69640, Note_on_c, 8, 83, 0
11, 69860, Note_on_c, 8, 83, 68
11, 69868, Note_on_c, 8, 85, 0
11, 71556, Note_on_c, 8, 83, 0
11, 71985, Note_on_c, 8, 83, 73
11, 72181, Note_on_c, 8, 82, 55
11, 72197, Note_on_c, 8, 83, 0
11, 72463, Note_on_c, 8, 83, 62
11, 72478, Note_on_c, 8, 82, 0
11, 72639, Note_on_c, 8, 83, 0
11, 72665, Note_on_c, 8, 83, 52
11, 72707, Note_on_c, 8, 85, 55
11, 72724, Note_on_c, 8, 83, 0
11, 72953, Note_on_c, 8, 83, 62
11, 72957, Note_on_c, 8, 85, 0
11, 74180, Note_on_c, 8, 87, 50
11, 74186, Note_on_c, 8, 83, 0
11, 74213, Note_on_c, 8, 90, 68
11, 74235, Note_on_c, 8, 87, 0
11, 74428, Note_on_c, 8, 90, 0
11, 74483, Note_on_c, 8, 85, 67
11, 74521, Note_on_c, 8, 87, 58
11, 74530, Note_on_c, 8, 85, 0
11, 74573, Note_on_c, 8, 85, 68
11, 74590, Note_on_c, 8, 87, 0
11, 74618, Note_on_c, 8, 83, 66
11, 74623, Note_on_c, 8, 85, 0
11, 75248, Note_on_c, 8, 85, 56
11, 75255, Note_on_c, 8, 83, 0
11, 75284, Note_on_c, 8, 87, 55
11, 75298, Note_on_c, 8, 85, 0
11, 75432, Note_on_c, 8, 85, 46
11, 75448, Note_on_c, 8, 87, 0
11, 75534, Note_on_c, 8, 83, 56
11, 75551, Note_on_c, 8, 85, 0
11, 75706, Note_on_c, 8, 83, 0
11, 75849, Note_on_c, 8, 78, 73
11, 76028, Note_on_c, 8, 90, 82
11, 76039, Note_on_c, 8, 78, 0
11, 77539, Note_on_c, 8, 90, 0
11, 77822, Note_on_c, 8, 83, 16
11, 77977, Note_on_c, 8, 83, 0
11, 78140, Note_on_c, 8, 83, 73
11, 78330, Note_on_c, 8, 82, 67
11, 78354, Note_on_c, 8, 83, 0
11, 78617, Note_on_c, 8, 83, 63
11, 78622, Note_on_c, 8, 82, 0
11, 78862, Note_on_c, 8, 85, 64
11, 78882, Note_on_c, 8, 83, 0
11, 79090, Note_on_c, 8, 90, 62
11, 79106, Note_on_c, 8, 85, 0
11, 80760, Note_on_c, 8, 90, 0
11, 81111, Note_on_c, 8, 83, 62
11, 81137, Note_on_c, 8, 85, 46
11, 81162, Note_on_c, 8, 83, 0
11, 81276, Note_on_c, 8, 83, 64
11, 81282, Note_on_c, 8, 85, 0
11, 81382, Note_on_c, 8, 83, 0
11, 81403, Note_on_c, 8, 82, 64
11, 81683, Note_on_c, 8, 83, 47
11, 81705, Note_on_c, 8, 82, 0
11, 81910, Note_on_c, 8, 83, 0
11, 81939, Note_on_c, 8, 83, 56
11, 81995, Note_on_c, 8, 85, 48
11, 82037, Note_on_c, 8, 83, 0
11, 83161, Note_on_c, 8, 85, 0
11, 83291, Note_on_c, 8, 78, 45
11, 83353, Note_on_c, 8, 80, 50
11, 83355, Note_on_c, 8, 78, 0
11, 83401, Note_on_c, 8, 83, 53
11, 83410, Note_on_c, 8, 80, 0
11, 83443, Note_on_c, 8, 83, 0
11, 83539, Note_on_c, 8, 85, 30
11, 83548, Note_on_c, 8, 85, 0
11, 83583, Note_on_c, 8, 87, 52
11, 83687, Note_on_c, 8, 87, 0
11, 83716, Note_on_c, 8, 85, 45
11, 83750, Note_on_c, 8, 87, 64
11, 83772, Note_on_c, 8, 85, 0
11, 83882, Note_on_c, 8, 85, 52
11, 83905, Note_on_c, 8, 87, 0
11, 83967, Note_on_c, 8, 83, 52
11, 83981, Note_on_c, 8, 85, 0
11, 84103, Note_on_c, 8, 80, 62
11, 84122, Note_on_c, 8, 83, 0
11, 84212, Note_on_c, 8, 78, 47
11, 84230, Note_on_c, 8, 80, 0
11, 84358, Note_on_c, 8, 78, 0
11, 84381, Note_on_c, 8, 83, 47
11, 84421, Note_on_c, 8, 85, 53
11, 84449, Note_on_c, 8, 83, 0
11, 84602, Note_on_c, 8, 83, 55
11, 84613, Note_on_c, 8, 85, 0
11, 86006, Note_on_c, 8, 83, 0
11, 86036, Note_on_c, 8, 78, 45
11, 86058, Note_on_c, 8, 80, 51
11, 86092, Note_on_c, 8, 78, 0
11, 86204, Note_on_c, 8, 78, 43
11, 86205, Note_on_c, 8, 80, 0
11, 86254, Note_on_c, 8, 80, 45
11, 86286, Note_on_c, 8, 78, 0
11, 87041, Note_on_c, 8, 80, 0
11, 87358, Note_on_c, 8, 78, 64
11, 87407, Note_on_c, 8, 78, 0
11, 87424, Note_on_c, 8, 80, 61
11, 87472, Note_on_c, 8, 80, 0
11, 87497, Note_on_c, 8, 82, 62
11, 87568, Note_on_c, 8, 82, 0
11, 87622, Note_on_c, 8, 82, 60
11, 87754, Note_on_c, 8, 80, 58
11, 87776, Note_on_c, 8, 82, 0
11, 87822, Note_on_c, 8, 78, 48
11, 87835, Note_on_c, 8, 80, 0
11, 88504, Note_on_c, 8, 78, 0
11, 88847, Note_on_c, 8, 73, 62
11, 88890, Note_on_c, 8, 75, 23
11, 88916, Note_on_c, 8, 73, 0
11, 89067, Note_on_c, 8, 73, 50
11, 89069, Note_on_c, 8, 75, 0
11, 89109, Note_on_c, 8, 75, 53
11, 89125, Note_on_c, 8, 73, 0
11, 89222, Note_on_c, 8, 73, 52
11, 89241, Note_on_c, 8, 75, 0
11, 89716, Note_on_c, 8, 73, 0
11, 89808, Note_on_c, 8, 73, 62
11, 89858, Note_on_c, 8, 75, 51
11, 89875, Note_on_c, 8, 73, 0
11, 89986, Note_on_c, 8, 73, 55
11, 90012, Note_on_c, 8, 75, 0
11, 90125, Note_on_c, 8, 71, 55
11, 90131, Note_on_c, 8, 73, 0
11, 90314, Note_on_c, 8, 71, 0
11, 90320, Note_on_c, 8, 68, 46
11, 90481, Note_on_c, 8, 66, 60
11, 90485, Note_on_c, 8, 68, 0
11, 90933, Note_on_c, 8, 66, 0
11, 91273, Note_on_c, 8, 78, 55
11, 91319, Note_on_c, 8, 80, 63
11, 91343, Note_on_c, 8, 78, 0
11, 91546, Note_on_c, 8, 75, 55
11, 91557, Note_on_c, 8, 80, 0
11, 91777, Note_on_c, 8, 78, 61
11, 91796, Note_on_c, 8, 75, 0
11, 91832, Note_on_c, 8, 80, 53
11, 91858, Note_on_c, 8, 78, 0
11, 91917, Note_on_c, 8, 78, 64
11, 91927, Note_on_c, 8, 80, 0
11, 93034, Note_on_c, 8, 80, 45
11, 93071, Note_on_c, 8, 78, 0
11, 93085, Note_on_c, 8, 82, 28
11, 93120, Note_on_c, 8, 80, 0
11, 93165, Note_on_c, 8, 83, 57
11, 93167, Note_on_c, 8, 82, 0
11, 93346, Control_c, 8, 1, 0
11, 93360, Control_c, 8, 1, 0
11, 93371, Control_c, 8, 1, 3
11, 93383, Control_c, 8, 1, 4
11, 93394, Control_c, 8, 1, 5
11, 93405, Control_c, 8, 1, 6
11, 93422, Control_c, 8, 1, 7
11, 93439, Control_c, 8, 1, 8
11, 93452, Control_c, 8, 1, 9
11, 93463, Control_c, 8, 1, 10
11, 93474, Control_c, 8, 1, 11
11, 93483, Control_c, 8, 1, 12
11, 93494, Control_c, 8, 1, 13
11, 93508, Control_c, 8, 1, 14
11, 93519, Control_c, 8, 1, 15
11, 93528, Control_c, 8, 1, 17
11, 93538, Control_c, 8, 1, 18
11, 93564, Control_c, 8, 1, 19
11, 93588, Control_c, 8, 1, 20
11, 93616, Control_c, 8, 1, 21
11, 93644, Control_c, 8, 1, 22
11, 93663, Control_c, 8, 1, 23
11, 93680, Control_c, 8, 1, 24
11, 93694, Control_c, 8, 1, 25
11, 93719, Control_c, 8, 1, 26
11, 93739, Control_c, 8, 1, 27
11, 93756, Control_c, 8, 1, 28
11, 93775, Control_c, 8, 1, 29
11, 93798, Control_c, 8, 1, 30
11, 93828, Control_c, 8, 1, 31
11, 93857, Control_c, 8, 1, 32
11, 93870, Control_c, 8, 1, 33
11, 93887, Control_c, 8, 1, 34
11, 93930, Control_c, 8, 1, 35
11, 93955, Control_c, 8, 1, 36
11, 93965, Control_c, 8, 1, 37
11, 93979, Control_c, 8, 1, 38
11, 93996, Control_c, 8, 1, 39
11, 94024, Control_c, 8, 1, 40
11, 94041, Control_c, 8, 1, 41
11, 94058, Control_c, 8, 1, 42
11, 94077, Control_c, 8, 1, 43
11, 94094, Control_c, 8, 1, 44
11, 94105, Control_c, 8, 1, 45
11, 94116, Control_c, 8, 1, 46
11, 94130, Control_c, 8, 1, 48
11, 94144, Control_c, 8, 1, 49
11, 94155, Control_c, 8, 1, 50
11, 94164, Control_c, 8, 1, 51
11, 94172, Control_c, 8, 1, 52
11, 94194, Control_c, 8, 1, 53
11, 94223, Note_on_c, 8, 85, 21
11, 94226, Control_c, 8, 1, 54
11, 94249, Control_c, 8, 1, 55
11, 94277, Note_on_c, 8, 87, 17
11, 94309, Note_on_c, 8, 83, 0
11, 94313, Note_on_c, 8, 85, 0
11, 94317, Control_c, 8, 1, 54
11, 94327, Control_c, 8, 1, 53
11, 94339, Control_c, 8, 1, 51
11, 94344, Control_c, 8, 1, 50
11, 94352, Control_c, 8, 1, 49
11, 94361, Control_c, 8, 1, 48
11, 94374, Control_c, 8, 1, 47
11, 94386, Control_c, 8, 1, 46
11, 94394, Control_c, 8, 1, 44
11, 94399, Control_c, 8, 1, 43
11, 94408, Control_c, 8, 1, 42
11, 94416, Control_c, 8, 1, 41
11, 94427, Control_c, 8, 1, 40
11, 94444, Control_c, 8, 1, 39
11, 94458, Control_c, 8, 1, 38
11, 94469, Control_c, 8, 1, 37
11, 94480, Control_c, 8, 1, 35
11, 94494, Control_c, 8, 1, 34
11, 94502, Control_c, 8, 1, 33
11, 94511, Control_c, 8, 1, 32
11, 94522, Control_c, 8, 1, 31
11, 94536, Control_c, 8, 1, 30
11, 94550, Control_c, 8, 1, 29
11, 94561, Control_c, 8, 1, 28
11, 94575, Control_c, 8, 1, 27
11, 94586, Control_c, 8, 1, 26
11, 94597, Control_c, 8, 1, 25
11, 94608, Control_c, 8, 1, 24
11, 94619, Control_c, 8, 1, 23
11, 94630, Control_c, 8, 1, 22
11, 94644, Control_c, 8, 1, 20
11, 94658, Control_c, 8, 1, 19
11, 94681, Control_c, 8, 1, 18
11, 94705, Control_c, 8, 1, 17
11, 94717, Control_c, 8, 1, 16
11, 94761, Control_c, 8, 1, 15
11, 94842, Control_c, 8, 1, 14
11, 94853, Control_c, 8, 1, 13
11, 94859, Control_c, 8, 1, 11
11, 94867, Control_c, 8, 1, 10
11, 94873, Control_c, 8, 1, 9
11, 94881, Control_c, 8, 1, 8
11, 94892, Control_c, 8, 1, 7
11, 94906, Control_c, 8, 1, 6
11, 94920, Control_c, 8, 1, 5
11, 94939, Control_c, 8, 1, 4
11, 94948, Control_c, 8, 1, 3
11, 94964, Control_c, 8, 1, 0
11, 94981, Control_c, 8, 1, 0
11, 95298, Note_on_c, 8, 87, 0
11, 95298, End_track
12, 0, Start_track
12, 0, MIDI_port, 0
12, 0, Title_t, "CANTO"
12, 832, Program_c, 10, 2
12, 912, Control_c, 10, 7, 127
12, 944, Control_c, 10, 91, 127
12, 1361, Note_on_c, 10, 64, 63
12, 1543, Note_on_c, 10, 69, 67
12, 1563, Note_on_c, 10, 64, 0
12, 3533, Note_on_c, 10, 69, 0
12, 3665, Note_on_c, 10, 69, 67
12, 3855, Note_on_c, 10, 68, 64
12, 3869, Note_on_c, 10, 69, 0
12, 4132, Note_on_c, 10, 68, 0
12, 4135, Note_on_c, 10, 69, 67
12, 4306, Note_on_c, 10, 69, 0
12, 4361, Note_on_c, 10, 69, 56
12, 4411, Note_on_c, 10, 71, 58
12, 4432, Note_on_c, 10, 69, 0
12, 4607, Note_on_c, 10, 69, 66
12, 4611, Note_on_c, 10, 71, 0
12, 5098, Note_on_c, 10, 71, 57
12, 5114, Note_on_c, 10, 69, 0
12, 5128, Note_on_c, 10, 73, 51
12, 5150, Note_on_c, 10, 71, 0
12, 5212, Note_on_c, 10, 71, 46
12, 5214, Note_on_c, 10, 73, 0
12, 5255, Note_on_c, 10, 73, 58
12, 5289, Note_on_c, 10, 71, 0
12, 5356, Note_on_c, 10, 71, 64
12, 5358, Note_on_c, 10, 73, 0
12, 5405, Note_on_c, 10, 73, 53
12, 5435, Note_on_c, 10, 71, 0
12, 5506, Note_on_c, 10, 71, 57
12, 5515, Note_on_c, 10, 73, 0
12, 5592, Note_on_c, 10, 69, 58
12, 5599, Note_on_c, 10, 71, 0
12, 6584, Note_on_c, 10, 69, 0
12, 6728, Note_on_c, 10, 69, 76
12, 6928, Note_on_c, 10, 68, 63
12, 6939, Note_on_c, 10, 69, 0
12, 7215, Note_on_c, 10, 68, 0
12, 7225, Note_on_c, 10, 69, 62
12, 7419, Note_on_c, 10, 69, 0
12, 7444, Note_on_c, 10, 69, 51
12, 7494, Note_on_c, 10, 71, 45
12, 7534, Note_on_c, 10, 69, 0
12, 7708, Note_on_c, 10, 71, 0
12, 7722, Note_on_c, 10, 69, 62
12, 9477, Note_on_c, 10, 69, 0
12, 10718, Note_on_c, 10, 64, 55
12, 10750, Note_on_c, 10, 66, 55
12, 10779, Note_on_c, 10, 64, 0
12, 10886, Note_on_c, 10, 64, 56
12, 10890, Note_on_c, 10, 66, 0
12, 10933, Note_on_c, 10, 66, 58
12, 10964, Note_on_c, 10, 64, 0
12, 11669, Note_on_c, 10, 66, 0
12, 12173, Note_on_c, 10, 62, 55
12, 12228, Note_on_c, 10, 62, 0
12, 12295, Note_on_c, 10, 66, 63
12, 12343, Note_on_c, 10, 68, 52
12, 12358, Note_on_c, 10, 66, 0
12, 12410, Note_on_c, 10, 68, 0
12, 12424, Note_on_c, 10, 66, 66
12, 12454, Note_on_c, 10, 68, 57
12, 12480, Note_on_c, 10, 66, 0
12, 12662, Note_on_c, 10, 66, 58
12, 12681, Note_on_c, 10, 68, 0
12, 12756, Note_on_c, 10, 64, 62
12, 12758, Note_on_c, 10, 66, 0
12, 13476, Note_on_c, 10, 64, 0
12, 14963, Note_on_c, 10, 74, 79
12, 15240, Note_on_c, 10, 76, 55
12, 15251, Note_on_c, 10, 74, 0
12, 15372, Note_on_c, 10, 73, 66
12, 15390, Note_on_c, 10, 76, 0
12, 16219, Note_on_c, 10, 73, 0
12, 16512, Note_on_c, 10, 71, 67
12, 16783, Note_on_c, 10, 74, 55
12, 16805, Note_on_c, 10, 71, 0
12, 16904, Note_on_c, 10, 73, 67
12, 16925, Note_on_c, 10, 74, 0
12, 17844, Note_on_c, 10, 73, 0
12, 18125, Note_on_c, 10, 71, 57
12, 18149, Note_on_c, 10, 73, 61
12, 18172, Note_on_c, 10, 71, 0
12, 18215, Note_on_c, 10, 73, 0
12, 18262, Note_on_c, 10, 71, 66
12, 18412, Note_on_c, 10, 69, 66
12, 18415, Note_on_c, 10, 71, 0
12, 18954, Note_on_c, 10, 69, 0
12, 19011, Note_on_c, 10, 71, 55
12, 19028, Note_on_c, 10, 73, 62
12, 19054, Note_on_c, 10, 71, 0
12, 19106, Note_on_c, 10, 73, 0
12, 19160, Note_on_c, 10, 71, 64
12, 19256, Note_on_c, 10, 71, 0
12, 19306, Note_on_c, 10, 69, 56
12, 19678, Note_on_c, 10, 69, 0
12, 19836, Note_on_c, 10, 76, 55
12, 19857, Note_on_c, 10, 78, 55
12, 19888, Note_on_c, 10, 76, 0
12, 19948, Note_on_c, 10, 78, 0
12, 19967, Note_on_c, 10, 76, 53
12, 20007, Note_on_c, 10, 78, 62
12, 20044, Note_on_c, 10, 76, 0
12, 20529, Note_on_c, 10, 78, 0
12, 20530, Note_on_c, 10, 76, 53
12, 20581, Note_on_c, 10, 76, 0
12, 20609, Note_on_c, 10, 78, 57
12, 20656, Note_on_c, 10, 80, 45
12, 20678, Note_on_c, 10, 78, 0
12, 20826, Note_on_c, 10, 78, 50
12, 20863, Note_on_c, 10, 80, 0
12, 20888, Note_on_c, 10, 76, 57
12, 20897, Note_on_c, 10, 78, 0
12, 21194, Note_on_c, 10, 76, 0
12, 21321, Note_on_c, 10, 74, 71
12, 21398, Note_on_c, 10, 74, 0
12, 21417, Note_on_c, 10, 76, 62
12, 21479, Note_on_c, 10, 76, 0
12, 21537, Note_on_c, 10, 71, 46
12, 21575, Note_on_c, 10, 73, 46
12, 21607, Note_on_c, 10, 71, 0
12, 21679, Note_on_c, 10, 71, 57
12, 21681, Note_on_c, 10, 73, 0
12, 21721, Note_on_c, 10, 73, 55
12, 21750, Note_on_c, 10, 71, 0
12, 22136, Note_on_c, 10, 73, 0
12, 22462, Note_on_c, 10, 81, 79
12, 22708, Note_on_c, 10, 81, 0
12, 22842, Note_on_c, 10, 69, 62
12, 22896, Note_on_c, 10, 69, 0
12, 22905, Note_on_c, 10, 71, 57
12, 22964, Note_on_c, 10, 71, 0
12, 22965, Note_on_c, 10, 73, 56
12, 23035, Note_on_c, 10, 73, 0
12, 23048, Note_on_c, 10, 71, 58
12, 23087, Note_on_c, 10, 73, 62
12, 23118, Note_on_c, 10, 71, 0
12, 23198, Note_on_c, 10, 71, 67
12, 23212, Note_on_c, 10, 73, 0
12, 23269, Note_on_c, 10, 69, 64
12, 23274, Note_on_c, 10, 71, 0
12, 23794, Note_on_c, 10, 69, 0
12, 24270, Note_on_c, 10, 71, 55
12, 24292, Note_on_c, 10, 73, 58
12, 24322, Note_on_c, 10, 71, 0
12, 24363, Note_on_c, 10, 73, 0
12, 24400, Note_on_c, 10, 71, 56
12, 24432, Note_on_c, 10, 73, 58
12, 24463, Note_on_c, 10, 71, 0
12, 24576, Note_on_c, 10, 73, 0
12, 24588, Note_on_c, 10, 69, 55
12, 24943, Note_on_c, 10, 69, 0
12, 25182, Note_on_c, 10, 71, 58
12, 25209, Note_on_c, 10, 73, 57
12, 25241, Note_on_c, 10, 71, 0
12, 25302, Note_on_c, 10, 73, 0
12, 25346, Note_on_c, 10, 71, 64
12, 25449, Note_on_c, 10, 71, 0
12, 25462, Note_on_c, 10, 69, 66
12, 25787, Note_on_c, 10, 69, 0
12, 26000, Note_on_c, 10, 76, 61
12, 26041, Note_on_c, 10, 78, 57
12, 26066, Note_on_c, 10, 76, 0
12, 26127, Note_on_c, 10, 78, 0
12, 26143, Note_on_c, 10, 76, 55
12, 26176, Note_on_c, 10, 78, 64
12, 26215, Note_on_c, 10, 76, 0
12, 26690, Note_on_c, 10, 78, 0
12, 26692, Note_on_c, 10, 76, 62
12, 26741, Note_on_c, 10, 76, 0
12, 26763, Note_on_c, 10, 78, 69
12, 26806, Note_on_c, 10, 80, 62
12, 26836, Note_on_c, 10, 78, 0
12, 26965, Note_on_c, 10, 78, 64
12, 26987, Note_on_c, 10, 80, 0
12, 27041, Note_on_c, 10, 76, 64
12, 27049, Note_on_c, 10, 78, 0
12, 27295, Note_on_c, 10, 76, 0
12, 27457, Note_on_c, 10, 81, 79
12, 27501, Note_on_c, 10, 81, 0
12, 27552, Note_on_c, 10, 81, 87
12, 28982, Note_on_c, 10, 83, 64
12, 28998, Note_on_c, 10, 81, 0
12, 29085, Note_on_c, 10, 81, 67
12, 29098, Note_on_c, 10, 83, 0
12, 29593, Note_on_c, 10, 81, 0
12, 29762, Note_on_c, 10, 81, 71
12, 29955, Note_on_c, 10, 80, 66
12, 29970, Note_on_c, 10, 81, 0
12, 30227, Note_on_c, 10, 80, 0
12, 30229, Note_on_c, 10, 81, 63
12, 30327, Note_on_c, 10, 81, 0
12, 30431, Note_on_c, 10, 81, 64
12, 30483, Note_on_c, 10, 83, 61
12, 30497, Note_on_c, 10, 81, 0
12, 30697, Note_on_c, 10, 81, 63
12, 30706, Note_on_c, 10, 83, 0
12, 31196, Note_on_c, 10, 83, 58
12, 31215, Note_on_c, 10, 81, 0
12, 31237, Note_on_c, 10, 85, 47
12, 31274, Note_on_c, 10, 83, 0
12, 31338, Note_on_c, 10, 83, 53
12, 31343, Note_on_c, 10, 85, 0
12, 31380, Note_on_c, 10, 85, 62
12, 31417, Note_on_c, 10, 83, 0
12, 31495, Note_on_c, 10, 83, 58
12, 31498, Note_on_c, 10, 85, 0
12, 31529, Note_on_c, 10, 85, 52
12, 31552, Note_on_c, 10, 83, 0
12, 31632, Note_on_c, 10, 83, 64
12, 31661, Note_on_c, 10, 85, 0
12, 31697, Note_on_c, 10, 81, 48
12, 31715, Note_on_c, 10, 83, 0
12, 32595, Note_on_c, 10, 81, 0
12, 32825, Note_on_c, 10, 81, 63
12, 33017, Note_on_c, 10, 80, 68
12, 33029, Note_on_c, 10, 81, 0
12, 33307, Note_on_c, 10, 80, 0
12, 33308, Note_on_c, 10, 81, 58
12, 33439, Note_on_c, 10, 81, 0
12, 33509, Note_on_c, 10, 81, 57
12, 33556, Note_on_c, 10, 83, 56
12, 33584, Note_on_c, 10, 81, 0
12, 33801, Note_on_c, 10, 81, 69
12, 33803, Note_on_c, 10, 83, 0
12, 35951, Note_on_c, 10, 81, 0
12, 48763, Note_on_c, 10, 74, 68
12, 48862, Note_on_c, 10, 76, 69
12, 48867, Note_on_c, 10, 74, 0
12, 49126, Note_on_c, 10, 71, 62
12, 49144, Note_on_c, 10, 76, 0
12, 49171, Note_on_c, 10, 73, 61
12, 49199, Note_on_c, 10, 71, 0
12, 49744, Note_on_c, 10, 73, 0
12, 50109, Note_on_c, 10, 71, 64
12, 50173, Note_on_c, 10, 71, 0
12, 50283, Note_on_c, 10, 71, 71
12, 50570, Note_on_c, 10, 71, 0
12, 50572, Note_on_c, 10, 74, 63
12, 50653, Note_on_c, 10, 74, 0
12, 50669, Note_on_c, 10, 71, 55
12, 50713, Note_on_c, 10, 73, 63
12, 50738, Note_on_c, 10, 71, 0
12, 51476, Note_on_c, 10, 73, 0
12, 51841, Note_on_c, 10, 76, 55
12, 51870, Note_on_c, 10, 78, 63
12, 51893, Note_on_c, 10, 76, 0
12, 51941, Note_on_c, 10, 78, 0
12, 51953, Note_on_c, 10, 76, 68
12, 51988, Note_on_c, 10, 78, 66
12, 52011, Note_on_c, 10, 76, 0
12, 52148, Note_on_c, 10, 78, 0
12, 52208, Note_on_c, 10, 73, 73
12, 52255, Note_on_c, 10, 71, 58
12, 52259, Note_on_c, 10, 72, 61
12, 52266, Note_on_c, 10, 73, 0
12, 52277, Note_on_c, 10, 72, 0
12, 52308, Note_on_c, 10, 69, 68
12, 52313, Note_on_c, 10, 71, 0
12, 52675, Note_on_c, 10, 69, 0
12, 52830, Note_on_c, 10, 71, 55
12, 52845, Note_on_c, 10, 73, 64
12, 52874, Note_on_c, 10, 71, 0
12, 52927, Note_on_c, 10, 73, 0
12, 52956, Note_on_c, 10, 71, 64
12, 53063, Note_on_c, 10, 71, 0
12, 53072, Note_on_c, 10, 69, 62
12, 53406, Note_on_c, 10, 69, 0
12, 53614, Note_on_c, 10, 76, 64
12, 53649, Note_on_c, 10, 78, 57
12, 53675, Note_on_c, 10, 76, 0
12, 53727, Note_on_c, 10, 78, 0
12, 53760, Note_on_c, 10, 76, 57
12, 53792, Note_on_c, 10, 78, 62
12, 53825, Note_on_c, 10, 76, 0
12, 54298, Note_on_c, 10, 78, 0
12, 54301, Note_on_c, 10, 76, 67
12, 54350, Note_on_c, 10, 76, 0
12, 54381, Note_on_c, 10, 78, 67
12, 54430, Note_on_c, 10, 80, 61
12, 54448, Note_on_c, 10, 78, 0
12, 54610, Note_on_c, 10, 78, 64
12, 54630, Note_on_c, 10, 80, 0
12, 54686, Note_on_c, 10, 78, 0
12, 54688, Note_on_c, 10, 76, 67
12, 54969, Note_on_c, 10, 76, 0
12, 55092, Note_on_c, 10, 76, 69
12, 55142, Note_on_c, 10, 76, 0
12, 55149, Note_on_c, 10, 78, 68
12, 55212, Note_on_c, 10, 81, 61
12, 55214, Note_on_c, 10, 78, 0
12, 55234, Note_on_c, 10, 81, 0
12, 55320, Note_on_c, 10, 81, 54
12, 55643, Note_on_c, 10, 83, 52
12, 55666, Note_on_c, 10, 85, 73
12, 55668, Note_on_c, 10, 81, 0
12, 55707, Note_on_c, 10, 83, 0
12, 55802, Note_on_c, 10, 83, 53
12, 55805, Note_on_c, 10, 85, 0
12, 55845, Note_on_c, 10, 85, 69
12, 55874, Note_on_c, 10, 83, 0
12, 56067, Note_on_c, 10, 85, 0
12, 56337, Note_on_c, 10, 76, 60
12, 56381, Note_on_c, 10, 76, 0
12, 56438, Note_on_c, 10, 76, 64
12, 56484, Note_on_c, 10, 78, 64
12, 56509, Note_on_c, 10, 76, 0
12, 56703, Note_on_c, 10, 78, 0
12, 56717, Note_on_c, 10, 73, 63
12, 56780, Note_on_c, 10, 73, 0
12, 56825, Note_on_c, 10, 76, 62
12, 56873, Note_on_c, 10, 73, 52
12, 56896, Note_on_c, 10, 76, 0
12, 56928, Note_on_c, 10, 71, 58
12, 56948, Note_on_c, 10, 73, 0
12, 56968, Note_on_c, 10, 69, 64
12, 56977, Note_on_c, 10, 71, 0
12, 57367, Note_on_c, 10, 69, 0
12, 57973, Note_on_c, 10, 76, 62
12, 58019, Note_on_c, 10, 76, 0
12, 58023, Note_on_c, 10, 78, 67
12, 58059, Note_on_c, 10, 78, 0
12, 58076, Note_on_c, 10, 81, 69
12, 58123, Note_on_c, 10, 81, 0
12, 58159, Note_on_c, 10, 81, 79
12, 58464, Note_on_c, 10, 78, 67
12, 58480, Note_on_c, 10, 81, 0
12, 58518, Note_on_c, 10, 78, 0
12, 58944, Note_on_c, 10, 81, 69
12, 59109, Note_on_c, 10, 81, 0
12, 59116, Note_on_c, 10, 78, 64
12, 59157, Note_on_c, 10, 80, 61
12, 59177, Note_on_c, 10, 78, 0
12, 59314, Note_on_c, 10, 78, 64
12, 59335, Note_on_c, 10, 80, 0
12, 59408, Note_on_c, 10, 76, 63
12, 59414, Note_on_c, 10, 78, 0
12, 59717, Note_on_c, 10, 73, 62
12, 59721, Note_on_c, 10, 76, 0
12, 59751, Note_on_c, 10, 73, 0
12, 59865, Note_on_c, 10, 76, 61
12, 59915, Note_on_c, 10, 78, 55
12, 59949, Note_on_c, 10, 76, 0
12, 60495, Note_on_c, 10, 76, 61
12, 60551, Note_on_c, 10, 78, 0
12, 60598, Note_on_c, 10, 76, 0
12, 60671, Note_on_c, 10, 78, 58
12, 60699, Note_on_c, 10, 80, 48
12, 60716, Note_on_c, 10, 78, 0
12, 60783, Note_on_c, 10, 78, 52
12, 60804, Note_on_c, 10, 80, 0
12, 60864, Note_on_c, 10, 76, 62
12, 60865, Note_on_c, 10, 78, 0
12, 61797, Note_on_c, 10, 76, 0
12, 63564, Note_on_c, 10, 83, 79
12, 63688, Note_on_c, 10, 83, 0
12, 63766, Note_on_c, 10, 83, 95
12, 65096, Note_on_c, 10, 85, 73
12, 65113, Note_on_c, 10, 83, 0
12, 65199, Note_on_c, 10, 83, 73
12, 65213, Note_on_c, 10, 85, 0
12, 65715, Note_on_c, 10, 83, 0
12, 65857, Note_on_c, 10, 83, 79
12, 66069, Note_on_c, 10, 82, 76
12, 66084, Note_on_c, 10, 83, 0
12, 66336, Note_on_c, 10, 83, 66
12, 66338, Note_on_c, 10, 82, 0
12, 66470, Note_on_c, 10, 83, 0
12, 66515, Note_on_c, 10, 83, 67
12, 66573, Note_on_c, 10, 85, 64
12, 66603, Note_on_c, 10, 83, 0
12, 66789, Note_on_c, 10, 83, 64
12, 66802, Note_on_c, 10, 85, 0
12, 67286, Note_on_c, 10, 85, 43
12, 67314, Note_on_c, 10, 87, 62
12, 67336, Note_on_c, 10, 85, 0
12, 67346, Note_on_c, 10, 83, 0
12, 67599, Note_on_c, 10, 85, 30
12, 67610, Note_on_c, 10, 87, 0
12, 67636, Note_on_c, 10, 87, 45
12, 67644, Note_on_c, 10, 85, 0
12, 67719, Note_on_c, 10, 85, 52
12, 67755, Note_on_c, 10, 87, 0
12, 67783, Note_on_c, 10, 83, 66
12, 67791, Note_on_c, 10, 85, 0
12, 68711, Note_on_c, 10, 83, 0
12, 68923, Note_on_c, 10, 83, 82
12, 69127, Note_on_c, 10, 82, 68
12, 69136, Note_on_c, 10, 83, 0
12, 69398, Note_on_c, 10, 83, 60
12, 69401, Note_on_c, 10, 82, 0
12, 69529, Note_on_c, 10, 83, 0
12, 69579, Note_on_c, 10, 83, 64
12, 69613, Note_on_c, 10, 85, 68
12, 69640, Note_on_c, 10, 83, 0
12, 69860, Note_on_c, 10, 83, 68
12, 69868, Note_on_c, 10, 85, 0
12, 71556, Note_on_c, 10, 83, 0
12, 71985, Note_on_c, 10, 83, 73
12, 72181, Note_on_c, 10, 82, 55
12, 72197, Note_on_c, 10, 83, 0
12, 72463, Note_on_c, 10, 83, 62
12, 72478, Note_on_c, 10, 82, 0
12, 72639, Note_on_c, 10, 83, 0
12, 72665, Note_on_c, 10, 83, 52
12, 72707, Note_on_c, 10, 85, 55
12, 72724, Note_on_c, 10, 83, 0
12, 72953, Note_on_c, 10, 83, 62
12, 72957, Note_on_c, 10, 85, 0
12, 74180, Note_on_c, 10, 87, 50
12, 74186, Note_on_c, 10, 83, 0
12, 74213, Note_on_c, 10, 90, 68
12, 74235, Note_on_c, 10, 87, 0
12, 74428, Note_on_c, 10, 90, 0
12, 74483, Note_on_c, 10, 85, 67
12, 74521, Note_on_c, 10, 87, 58
12, 74530, Note_on_c, 10, 85, 0
12, 74573, Note_on_c, 10, 85, 68
12, 74590, Note_on_c, 10, 87, 0
12, 74618, Note_on_c, 10, 83, 66
12, 74623, Note_on_c, 10, 85, 0
12, 75248, Note_on_c, 10, 85, 56
12, 75255, Note_on_c, 10, 83, 0
12, 75284, Note_on_c, 10, 87, 55
12, 75298, Note_on_c, 10, 85, 0
12, 75432, Note_on_c, 10, 85, 46
12, 75448, Note_on_c, 10, 87, 0
12, 75534, Note_on_c, 10, 83, 56
12, 75551, Note_on_c, 10, 85, 0
12, 75706, Note_on_c, 10, 83, 0
12, 75849, Note_on_c, 10, 78, 73
12, 76028, Note_on_c, 10, 90, 82
12, 76039, Note_on_c, 10, 78, 0
12, 77539, Note_on_c, 10, 90, 0
12, 77822, Note_on_c, 10, 83, 16
12, 77977, Note_on_c, 10, 83, 0
12, 78140, Note_on_c, 10, 83, 73
12, 78330, Note_on_c, 10, 82, 67
12, 78354, Note_on_c, 10, 83, 0
12, 78617, Note_on_c, 10, 83, 63
12, 78622, Note_on_c, 10, 82, 0
12, 78862, Note_on_c, 10, 85, 64
12, 78882, Note_on_c, 10, 83, 0
12, 79090, Note_on_c, 10, 90, 62
12, 79106, Note_on_c, 10, 85, 0
12, 80760, Note_on_c, 10, 90, 0
12, 81111, Note_on_c, 10, 83, 62
12, 81137, Note_on_c, 10, 85, 46
12, 81162, Note_on_c, 10, 83, 0
12, 81276, Note_on_c, 10, 83, 64
12, 81282, Note_on_c, 10, 85, 0
12, 81382, Note_on_c, 10, 83, 0
12, 81403, Note_on_c, 10, 82, 64
12, 81683, Note_on_c, 10, 83, 47
12, 81705, Note_on_c, 10, 82, 0
12, 81910, Note_on_c, 10, 83, 0
12, 81939, Note_on_c, 10, 83, 56
12, 81995, Note_on_c, 10, 85, 48
12, 82037, Note_on_c, 10, 83, 0
12, 83161, Note_on_c, 10, 85, 0
12, 83291, Note_on_c, 10, 78, 45
12, 83353, Note_on_c, 10, 80, 50
12, 83355, Note_on_c, 10, 78, 0
12, 83401, Note_on_c, 10, 83, 53
12, 83410, Note_on_c, 10, 80, 0
12, 83443, Note_on_c, 10, 83, 0
12, 83539, Note_on_c, 10, 85, 30
12, 83548, Note_on_c, 10, 85, 0
12, 83583, Note_on_c, 10, 87, 52
12, 83687, Note_on_c, 10, 87, 0
12, 83716, Note_on_c, 10, 85, 45
12, 83750, Note_on_c, 10, 87, 64
12, 83772, Note_on_c, 10, 85, 0
12, 83882, Note_on_c, 10, 85, 52
12, 83905, Note_on_c, 10, 87, 0
12, 83967, Note_on_c, 10, 83, 52
12, 83981, Note_on_c, 10, 85, 0
12, 84103, Note_on_c, 10, 80, 62
12, 84122, Note_on_c, 10, 83, 0
12, 84212, Note_on_c, 10, 78, 47
12, 84230, Note_on_c, 10, 80, 0
12, 84358, Note_on_c, 10, 78, 0
12, 84381, Note_on_c, 10, 83, 47
12, 84421, Note_on_c, 10, 85, 53
12, 84449, Note_on_c, 10, 83, 0
12, 84602, Note_on_c, 10, 83, 55
12, 84613, Note_on_c, 10, 85, 0
12, 86006, Note_on_c, 10, 83, 0
12, 86036, Note_on_c, 10, 78, 45
12, 86058, Note_on_c, 10, 80, 51
12, 86092, Note_on_c, 10, 78, 0
12, 86204, Note_on_c, 10, 78, 43
12, 86205, Note_on_c, 10, 80, 0
12, 86254, Note_on_c, 10, 80, 45
12, 86286, Note_on_c, 10, 78, 0
12, 87041, Note_on_c, 10, 80, 0
12, 87358, Note_on_c, 10, 78, 64
12, 87407, Note_on_c, 10, 78, 0
12, 87424, Note_on_c, 10, 80, 61
12, 87472, Note_on_c, 10, 80, 0
12, 87497, Note_on_c, 10, 82, 62
12, 87568, Note_on_c, 10, 82, 0
12, 87622, Note_on_c, 10, 82, 60
12, 87754, Note_on_c, 10, 80, 58
12, 87776, Note_on_c, 10, 82, 0
12, 87822, Note_on_c, 10, 78, 48
12, 87835, Note_on_c, 10, 80, 0
12, 88504, Note_on_c, 10, 78, 0
12, 88847, Note_on_c, 10, 73, 62
12, 88890, Note_on_c, 10, 75, 23
12, 88916, Note_on_c, 10, 73, 0
12, 89067, Note_on_c, 10, 73, 50
12, 89069, Note_on_c, 10, 75, 0
12, 89109, Note_on_c, 10, 75, 53
12, 89125, Note_on_c, 10, 73, 0
12, 89222, Note_on_c, 10, 73, 52
12, 89241, Note_on_c, 10, 75, 0
12, 89716, Note_on_c, 10, 73, 0
12, 89808, Note_on_c, 10, 73, 62
12, 89858, Note_on_c, 10, 75, 51
12, 89875, Note_on_c, 10, 73, 0
12, 89986, Note_on_c, 10, 73, 55
12, 90012, Note_on_c, 10, 75, 0
12, 90125, Note_on_c, 10, 71, 55
12, 90131, Note_on_c, 10, 73, 0
12, 90314, Note_on_c, 10, 71, 0
12, 90320, Note_on_c, 10, 68, 46
12, 90481, Note_on_c, 10, 66, 60
12, 90485, Note_on_c, 10, 68, 0
12, 90933, Note_on_c, 10, 66, 0
12, 91273, Note_on_c, 10, 78, 55
12, 91319, Note_on_c, 10, 80, 63
12, 91343, Note_on_c, 10, 78, 0
12, 91546, Note_on_c, 10, 75, 55
12, 91557, Note_on_c, 10, 80, 0
12, 91777, Note_on_c, 10, 78, 61
12, 91796, Note_on_c, 10, 75, 0
12, 91832, Note_on_c, 10, 80, 53
12, 91858, Note_on_c, 10, 78, 0
12, 91917, Note_on_c, 10, 78, 64
12, 91927, Note_on_c, 10, 80, 0
12, 93034, Note_on_c, 10, 80, 45
12, 93071, Note_on_c, 10, 78, 0
12, 93085, Note_on_c, 10, 82, 28
12, 93120, Note_on_c, 10, 80, 0
12, 93165, Note_on_c, 10, 83, 57
12, 93167, Note_on_c, 10, 82, 0
12, 93346, Control_c, 10, 1, 0
12, 93360, Control_c, 10, 1, 0
12, 93371, Control_c, 10, 1, 3
12, 93383, Control_c, 10, 1, 4
12, 93394, Control_c, 10, 1, 5
12, 93405, Control_c, 10, 1, 6
12, 93422, Control_c, 10, 1, 7
12, 93439, Control_c, 10, 1, 8
12, 93452, Control_c, 10, 1, 9
12, 93463, Control_c, 10, 1, 10
12, 93474, Control_c, 10, 1, 11
12, 93483, Control_c, 10, 1, 12
12, 93494, Control_c, 10, 1, 13
12, 93508, Control_c, 10, 1, 14
12, 93519, Control_c, 10, 1, 15
12, 93528, Control_c, 10, 1, 17
12, 93538, Control_c, 10, 1, 18
12, 93564, Control_c, 10, 1, 19
12, 93588, Control_c, 10, 1, 20
12, 93616, Control_c, 10, 1, 21
12, 93644, Control_c, 10, 1, 22
12, 93663, Control_c, 10, 1, 23
12, 93680, Control_c, 10, 1, 24
12, 93694, Control_c, 10, 1, 25
12, 93719, Control_c, 10, 1, 26
12, 93739, Control_c, 10, 1, 27
12, 93756, Control_c, 10, 1, 28
12, 93775, Control_c, 10, 1, 29
12, 93798, Control_c, 10, 1, 30
12, 93828, Control_c, 10, 1, 31
12, 93857, Control_c, 10, 1, 32
12, 93870, Control_c, 10, 1, 33
12, 93887, Control_c, 10, 1, 34
12, 93930, Control_c, 10, 1, 35
12, 93955, Control_c, 10, 1, 36
12, 93965, Control_c, 10, 1, 37
12, 93979, Control_c, 10, 1, 38
12, 93996, Control_c, 10, 1, 39
12, 94024, Control_c, 10, 1, 40
12, 94041, Control_c, 10, 1, 41
12, 94058, Control_c, 10, 1, 42
12, 94077, Control_c, 10, 1, 43
12, 94094, Control_c, 10, 1, 44
12, 94105, Control_c, 10, 1, 45
12, 94116, Control_c, 10, 1, 46
12, 94130, Control_c, 10, 1, 48
12, 94144, Control_c, 10, 1, 49
12, 94155, Control_c, 10, 1, 50
12, 94164, Control_c, 10, 1, 51
12, 94172, Control_c, 10, 1, 52
12, 94194, Control_c, 10, 1, 53
12, 94223, Note_on_c, 10, 85, 21
12, 94226, Control_c, 10, 1, 54
12, 94249, Control_c, 10, 1, 55
12, 94277, Note_on_c, 10, 87, 17
12, 94309, Note_on_c, 10, 83, 0
12, 94313, Note_on_c, 10, 85, 0
12, 94317, Control_c, 10, 1, 54
12, 94327, Control_c, 10, 1, 53
12, 94339, Control_c, 10, 1, 51
12, 94344, Control_c, 10, 1, 50
12, 94352, Control_c, 10, 1, 49
12, 94361, Control_c, 10, 1, 48
12, 94374, Control_c, 10, 1, 47
12, 94386, Control_c, 10, 1, 46
12, 94394, Control_c, 10, 1, 44
12, 94399, Control_c, 10, 1, 43
12, 94408, Control_c, 10, 1, 42
12, 94416, Control_c, 10, 1, 41
12, 94427, Control_c, 10, 1, 40
12, 94444, Control_c, 10, 1, 39
12, 94458, Control_c, 10, 1, 38
12, 94469, Control_c, 10, 1, 37
12, 94480, Control_c, 10, 1, 35
12, 94494, Control_c, 10, 1, 34
12, 94502, Control_c, 10, 1, 33
12, 94511, Control_c, 10, 1, 32
12, 94522, Control_c, 10, 1, 31
12, 94536, Control_c, 10, 1, 30
12, 94550, Control_c, 10, 1, 29
12, 94561, Control_c, 10, 1, 28
12, 94575, Control_c, 10, 1, 27
12, 94586, Control_c, 10, 1, 26
12, 94597, Control_c, 10, 1, 25
12, 94608, Control_c, 10, 1, 24
12, 94619, Control_c, 10, 1, 23
12, 94630, Control_c, 10, 1, 22
12, 94644, Control_c, 10, 1, 20
12, 94658, Control_c, 10, 1, 19
12, 94681, Control_c, 10, 1, 18
12, 94705, Control_c, 10, 1, 17
12, 94717, Control_c, 10, 1, 16
12, 94761, Control_c, 10, 1, 15
12, 94842, Control_c, 10, 1, 14
12, 94853, Control_c, 10, 1, 13
12, 94859, Control_c, 10, 1, 11
12, 94867, Control_c, 10, 1, 10
12, 94873, Control_c, 10, 1, 9
12, 94881, Control_c, 10, 1, 8
12, 94892, Control_c, 10, 1, 7
12, 94906, Control_c, 10, 1, 6
12, 94920, Control_c, 10, 1, 5
12, 94939, Control_c, 10, 1, 4
12, 94948, Control_c, 10, 1, 3
12, 94964, Control_c, 10, 1, 0
12, 94981, Control_c, 10, 1, 0
12, 95298, Note_on_c, 10, 87, 0
12, 95298, End_track
13, 0, Start_track
13, 0, MIDI_port, 0
13, 0, End_track
14, 0, Start_track
14, 0, MIDI_port, 0
14, 0, Title_t, "modified for the GUS"
14, 0, End_track
15, 0, Start_track
15, 0, MIDI_port, 0
15, 0, Title_t, "by CF - Italy"
15, 0, End_track
16, 0, Start_track
16, 0, MIDI_port, 0
16, 0, Title_t, "MASTERPIECE!!!"
16, 0, End_track
17, 0, Start_track
17, 0, MIDI_port, 0
17, 0, Title_t, "GUS RULEZ!!"
17, 0, End_track
0, 0, End_of_file
