0, 0, Header, 1, 17, 480
1, 0, Start_track
1, 0, Tempo, 382165
1, 0, Time_signature, 12, 3, 24, 8
1, 0, Key_signature, 0, "major"
1, 0, End_track
2, 0, Start_track
2, 0, Title_t, "WWST\000"
2, 0, System_exclusive, 10, 65, 16, 66, 18, 64, 0, 127, 0, 65, 247
2, 250, System_exclusive, 10, 65, 16, 66, 18, 64, 1, 52, 93, 46, 247
2, 265, System_exclusive, 25, 65, 16, 66, 18, 64, 1, 16, 2, 0, 2, 2, 2, 2, 2, 2, 2, 1, 1, 1, 1, 1, 1, 0, 25, 247
2, 280, System_exclusive, 38, 65, 16, 69, 18, 16, 0, 0, 40, 99, 41, 32, 49, 57, 57, 57, 32, 98, 121, 32, 71, 69, 69, 82, 68, 69, 83, 32, 109, 105, 100, 105, 109, 117, 115, 105, 99, 66, 247
2, 2880, System_exclusive, 73, 65, 16, 69, 18, 16, 1, 0, 0, 0, 0, 0, 0, 0, 0, 0, 0, 0, 0, 0, 0, 0, 0, 0, 15, 15, 6, 6, 6, 6, 6, 6, 6, 6, 6, 6, 6, 6, 15, 15, 0, 0, 0, 0, 0, 0, 0, 0, 0, 0, 0, 0, 0, 0, 0, 0, 0, 0, 0, 0, 0, 0, 0, 0, 0, 0, 0, 0, 0, 0, 0, 0, 107, 247
2, 3600, System_exclusive, 73, 65, 16, 69, 18, 16, 1, 0, 1, 1, 1, 0, 0, 0, 0, 1, 1, 1, 1, 1, 1, 1, 1, 1, 31, 31, 31, 3, 3, 3, 3, 31, 31, 16, 16, 16, 16, 31, 31, 31, 0, 0, 0, 0, 0, 0, 0, 0, 0, 0, 0, 0, 0, 0, 0, 0, 0, 0, 0, 0, 0, 0, 0, 0, 0, 0, 0, 0, 0, 0, 0, 0, 31, 247
2, 4320, System_exclusive, 73, 65, 16, 69, 18, 16, 1, 0, 1, 1, 1, 0, 0, 0, 0, 0, 0, 0, 0, 0, 0, 1, 1, 1, 31, 31, 31, 3, 3, 3, 3, 31, 31, 3, 3, 3, 3, 31, 31, 31, 0, 0, 0, 0, 0, 0, 0, 0, 0, 0, 0, 0, 0, 0, 0, 0, 0, 0, 0, 0, 0, 0, 0, 0, 0, 0, 0, 0, 0, 0, 0, 0, 89, 247
2, 5040, System_exclusive, 73, 65, 16, 69, 18, 16, 1, 0, 0, 0, 0, 0, 1, 3, 7, 6, 6, 7, 7, 7, 0, 0, 0, 0, 3, 7, 15, 31, 27, 19, 3, 3, 3, 31, 31, 31, 3, 3, 3, 3, 0, 0, 0, 0, 0, 0, 0, 0, 0, 16, 16, 16, 0, 0, 0, 0, 0, 0, 0, 0, 0, 0, 0, 0, 0, 0, 0, 0, 0, 0, 0, 0, 59, 247
2, 310986, System_exclusive, 10, 65, 16, 66, 18, 64, 0, 127, 127, 66, 247
2, 310986, End_track
3, 0, Start_track
3, 0, Title_t, "\000"
3, 0, Control_c, 1, 0, 4
3, 0, Program_c, 1, 33
3, 0, Control_c, 1, 7, 100
3, 0, Control_c, 1, 10, 64
3, 0, Control_c, 1, 91, 0
3, 0, Control_c, 1, 93, 20
3, 550, Control_c, 1, 11, 127
3, 3394, Control_c, 1, 101, 0
3, 3396, Control_c, 1, 100, 0
3, 3399, Control_c, 1, 6, 2
3, 3401, Control_c, 1, 101, 127
3, 3404, Control_c, 1, 100, 127
3, 5530, Control_c, 1, 94, 0
3, 16046, Note_on_c, 1, 30, 83
3, 16080, Note_on_c, 1, 32, 100
3, 16147, Note_off_c, 1, 30, 0
3, 16526, Note_off_c, 1, 32, 0
3, 16581, Note_on_c, 1, 30, 104
3, 17172, Note_off_c, 1, 30, 0
3, 17253, Note_on_c, 1, 35, 117
3, 20070, Note_off_c, 1, 35, 0
3, 20126, Note_on_c, 1, 28, 117
3, 22992, Note_off_c, 1, 28, 0
3, 23037, Note_on_c, 1, 33, 122
3, 25852, Note_off_c, 1, 33, 0
3, 25934, Note_on_c, 1, 35, 113
3, 27567, Note_off_c, 1, 35, 0
3, 27612, Note_on_c, 1, 30, 87
3, 27663, Note_on_c, 1, 32, 43
3, 27733, Note_off_c, 1, 30, 0
3, 28087, Note_off_c, 1, 32, 0
3, 28132, Note_on_c, 1, 30, 104
3, 28780, Note_off_c, 1, 30, 0
3, 28816, Note_on_c, 1, 35, 127
3, 31663, Note_off_c, 1, 35, 0
3, 31702, Note_on_c, 1, 28, 127
3, 34533, Note_off_c, 1, 28, 0
3, 34569, Note_on_c, 1, 33, 127
3, 37410, Note_off_c, 1, 33, 0
3, 37446, Note_on_c, 1, 35, 117
3, 39244, Note_off_c, 1, 35, 0
3, 39333, Note_on_c, 1, 33, 122
3, 39839, Note_off_c, 1, 33, 0
3, 39856, Note_on_c, 1, 30, 110
3, 40286, Note_off_c, 1, 30, 0
3, 40337, Note_on_c, 1, 35, 127
3, 43183, Note_off_c, 1, 35, 0
3, 43217, Note_on_c, 1, 28, 127
3, 46064, Note_off_c, 1, 28, 0
3, 46090, Note_on_c, 1, 33, 127
3, 48926, Note_off_c, 1, 33, 0
3, 48955, Note_on_c, 1, 35, 122
3, 51110, Note_off_c, 1, 35, 0
3, 51141, Note_on_c, 1, 33, 127
3, 51590, Note_off_c, 1, 33, 0
3, 51605, Note_on_c, 1, 30, 110
3, 51807, Note_off_c, 1, 30, 0
3, 51856, Note_on_c, 1, 35, 127
3, 54703, Note_off_c, 1, 35, 0
3, 54742, Note_on_c, 1, 28, 127
3, 57573, Note_off_c, 1, 28, 0
3, 57609, Note_on_c, 1, 33, 127
3, 60450, Note_off_c, 1, 33, 0
3, 60486, Note_on_c, 1, 35, 117
3, 62284, Note_off_c, 1, 35, 0
3, 62373, Note_on_c, 1, 33, 122
3, 62879, Note_off_c, 1, 33, 0
3, 62896, Note_on_c, 1, 30, 110
3, 63326, Note_off_c, 1, 30, 0
3, 63377, Note_on_c, 1, 35, 127
3, 66223, Note_off_c, 1, 35, 0
3, 66257, Note_on_c, 1, 28, 127
3, 69104, Note_off_c, 1, 28, 0
3, 69130, Note_on_c, 1, 33, 127
3, 71966, Note_off_c, 1, 33, 0
3, 71995, Note_on_c, 1, 35, 122
3, 74150, Note_off_c, 1, 35, 0
3, 74181, Note_on_c, 1, 33, 127
3, 74630, Note_off_c, 1, 33, 0
3, 74645, Note_on_c, 1, 30, 110
3, 74847, Note_off_c, 1, 30, 0
3, 74876, Note_on_c, 1, 35, 127
3, 75211, Note_off_c, 1, 35, 0
3, 75370, Note_on_c, 1, 35, 127
3, 76229, Note_off_c, 1, 35, 0
3, 76343, Note_on_c, 1, 35, 127
3, 76614, Note_off_c, 1, 35, 0
3, 76808, Note_on_c, 1, 35, 127
3, 77718, Note_off_c, 1, 35, 0
3, 77767, Note_on_c, 1, 33, 127
3, 78112, Note_off_c, 1, 33, 0
3, 78233, Note_on_c, 1, 38, 127
3, 79133, Note_off_c, 1, 38, 0
3, 79216, Note_on_c, 1, 38, 127
3, 79529, Note_off_c, 1, 38, 0
3, 79696, Note_on_c, 1, 38, 127
3, 80611, Note_off_c, 1, 38, 0
3, 80646, Note_on_c, 1, 28, 127
3, 80970, Note_off_c, 1, 28, 0
3, 81109, Note_on_c, 1, 28, 127
3, 82004, Note_off_c, 1, 28, 0
3, 82094, Note_on_c, 1, 28, 127
3, 82403, Note_off_c, 1, 28, 0
3, 82564, Note_on_c, 1, 28, 127
3, 83485, Note_off_c, 1, 28, 0
3, 83527, Note_on_c, 1, 37, 110
3, 83861, Note_off_c, 1, 37, 0
3, 84002, Note_on_c, 1, 37, 110
3, 84867, Note_off_c, 1, 37, 0
3, 84969, Note_on_c, 1, 37, 110
3, 85289, Note_off_c, 1, 37, 0
3, 85437, Note_on_c, 1, 37, 110
3, 86337, Note_off_c, 1, 37, 0
3, 86402, Note_on_c, 1, 35, 127
3, 86711, Note_off_c, 1, 35, 0
3, 86870, Note_on_c, 1, 35, 127
3, 87775, Note_off_c, 1, 35, 0
3, 87848, Note_on_c, 1, 35, 127
3, 88136, Note_off_c, 1, 35, 0
3, 88318, Note_on_c, 1, 35, 127
3, 89263, Note_off_c, 1, 35, 0
3, 89293, Note_on_c, 1, 33, 127
3, 89648, Note_off_c, 1, 33, 0
3, 89753, Note_on_c, 1, 38, 127
3, 90648, Note_off_c, 1, 38, 0
3, 90744, Note_on_c, 1, 38, 122
3, 91072, Note_off_c, 1, 38, 0
3, 91211, Note_on_c, 1, 38, 127
3, 92141, Note_off_c, 1, 38, 0
3, 92172, Note_on_c, 1, 28, 127
3, 92510, Note_off_c, 1, 28, 0
3, 92642, Note_on_c, 1, 28, 127
3, 93516, Note_off_c, 1, 28, 0
3, 93612, Note_on_c, 1, 28, 127
3, 93925, Note_off_c, 1, 28, 0
3, 94085, Note_on_c, 1, 28, 127
3, 94995, Note_off_c, 1, 28, 0
3, 95065, Note_on_c, 1, 28, 127
3, 95353, Note_off_c, 1, 28, 0
3, 95512, Note_on_c, 1, 28, 127
3, 96403, Note_off_c, 1, 28, 0
3, 96483, Note_on_c, 1, 28, 127
3, 96841, Note_off_c, 1, 28, 0
3, 96942, Note_on_c, 1, 28, 127
3, 97201, Note_on_c, 1, 33, 127
3, 97226, Note_off_c, 1, 28, 0
3, 97576, Note_off_c, 1, 33, 0
3, 97676, Note_on_c, 1, 33, 127
3, 97915, Note_off_c, 1, 33, 0
3, 97931, Note_on_c, 1, 35, 127
3, 98270, Note_off_c, 1, 35, 0
3, 98396, Note_on_c, 1, 35, 122
3, 98497, Note_off_c, 1, 35, 0
3, 98629, Note_on_c, 1, 35, 122
3, 99009, Note_off_c, 1, 35, 0
3, 99117, Note_on_c, 1, 35, 122
3, 99223, Note_off_c, 1, 35, 0
3, 99354, Note_on_c, 1, 35, 127
3, 99723, Note_off_c, 1, 35, 0
3, 99836, Note_on_c, 1, 35, 122
3, 99954, Note_off_c, 1, 35, 0
3, 100070, Note_on_c, 1, 35, 122
3, 100450, Note_off_c, 1, 35, 0
3, 100558, Note_on_c, 1, 35, 122
3, 100689, Note_off_c, 1, 35, 0
3, 100799, Note_on_c, 1, 33, 127
3, 101183, Note_off_c, 1, 33, 0
3, 101269, Note_on_c, 1, 28, 127
3, 101426, Note_off_c, 1, 28, 0
3, 101512, Note_on_c, 1, 28, 122
3, 101882, Note_off_c, 1, 28, 0
3, 101993, Note_on_c, 1, 28, 122
3, 102129, Note_off_c, 1, 28, 0
3, 102234, Note_on_c, 1, 28, 127
3, 102619, Note_off_c, 1, 28, 0
3, 102714, Note_on_c, 1, 28, 122
3, 102831, Note_off_c, 1, 28, 0
3, 102953, Note_on_c, 1, 28, 122
3, 103110, Note_off_c, 1, 28, 0
3, 103181, Note_on_c, 1, 31, 127
3, 103592, Note_off_c, 1, 31, 0
3, 103665, Note_on_c, 1, 33, 127
3, 104029, Note_off_c, 1, 33, 0
3, 104135, Note_on_c, 1, 33, 122
3, 104271, Note_off_c, 1, 33, 0
3, 104381, Note_on_c, 1, 33, 127
3, 104765, Note_off_c, 1, 33, 0
3, 104866, Note_on_c, 1, 33, 127
3, 104986, Note_off_c, 1, 33, 0
3, 105105, Note_on_c, 1, 33, 127
3, 105464, Note_off_c, 1, 33, 0
3, 105580, Note_on_c, 1, 33, 127
3, 105710, Note_off_c, 1, 33, 0
3, 105816, Note_on_c, 1, 33, 122
3, 106179, Note_off_c, 1, 33, 0
3, 106299, Note_on_c, 1, 33, 122
3, 106450, Note_off_c, 1, 33, 0
3, 106548, Note_on_c, 1, 35, 127
3, 106921, Note_off_c, 1, 35, 0
3, 107025, Note_on_c, 1, 35, 122
3, 107147, Note_off_c, 1, 35, 0
3, 107262, Note_on_c, 1, 35, 122
3, 107363, Note_off_c, 1, 35, 0
3, 107490, Note_on_c, 1, 35, 127
3, 107900, Note_off_c, 1, 35, 0
3, 107991, Note_on_c, 1, 35, 127
3, 108359, Note_off_c, 1, 35, 0
3, 108470, Note_on_c, 1, 35, 127
3, 108623, Note_off_c, 1, 35, 0
3, 108705, Note_on_c, 1, 33, 127
3, 109170, Note_off_c, 1, 33, 0
3, 109187, Note_on_c, 1, 30, 104
3, 109389, Note_off_c, 1, 30, 0
3, 109453, Note_on_c, 1, 35, 127
3, 109853, Note_off_c, 1, 35, 0
3, 109928, Note_on_c, 1, 35, 94
3, 110049, Note_off_c, 1, 35, 0
3, 110149, Note_on_c, 1, 35, 104
3, 110281, Note_off_c, 1, 35, 0
3, 110390, Note_on_c, 1, 35, 127
3, 110855, Note_off_c, 1, 35, 0
3, 110909, Note_on_c, 1, 35, 122
3, 111293, Note_off_c, 1, 35, 0
3, 111379, Note_on_c, 1, 35, 97
3, 111505, Note_off_c, 1, 35, 0
3, 111609, Note_on_c, 1, 35, 113
3, 111735, Note_off_c, 1, 35, 0
3, 111846, Note_on_c, 1, 35, 127
3, 112321, Note_off_c, 1, 35, 0
3, 112344, Note_on_c, 1, 28, 127
3, 112718, Note_off_c, 1, 28, 0
3, 112816, Note_on_c, 1, 28, 97
3, 112944, Note_off_c, 1, 28, 0
3, 113048, Note_on_c, 1, 28, 108
3, 113174, Note_off_c, 1, 28, 0
3, 113279, Note_on_c, 1, 28, 127
3, 113707, Note_off_c, 1, 28, 0
3, 113784, Note_on_c, 1, 28, 127
3, 114144, Note_off_c, 1, 28, 0
3, 114247, Note_on_c, 1, 28, 97
3, 114372, Note_off_c, 1, 28, 0
3, 114483, Note_on_c, 1, 28, 104
3, 114594, Note_off_c, 1, 28, 0
3, 114714, Note_on_c, 1, 28, 127
3, 115184, Note_off_c, 1, 28, 0
3, 115204, Note_on_c, 1, 33, 127
3, 115593, Note_off_c, 1, 33, 0
3, 115677, Note_on_c, 1, 33, 97
3, 115808, Note_off_c, 1, 33, 0
3, 115911, Note_on_c, 1, 33, 117
3, 116047, Note_off_c, 1, 33, 0
3, 116147, Note_on_c, 1, 33, 122
3, 116581, Note_off_c, 1, 33, 0
3, 116649, Note_on_c, 1, 33, 122
3, 117035, Note_off_c, 1, 33, 0
3, 117120, Note_on_c, 1, 33, 91
3, 117241, Note_off_c, 1, 33, 0
3, 117353, Note_on_c, 1, 33, 122
3, 117476, Note_off_c, 1, 33, 0
3, 117579, Note_on_c, 1, 33, 122
3, 118055, Note_off_c, 1, 33, 0
3, 118090, Note_on_c, 1, 35, 127
3, 119187, Note_off_c, 1, 35, 0
3, 119279, Note_on_c, 1, 35, 101
3, 119460, Note_off_c, 1, 35, 0
3, 119515, Note_on_c, 1, 33, 127
3, 119718, Note_off_c, 1, 33, 0
3, 119751, Note_on_c, 1, 30, 110
3, 120714, Note_on_c, 1, 33, 88
3, 120728, Note_off_c, 1, 30, 0
3, 120800, Note_off_c, 1, 33, 0
3, 120971, Note_on_c, 1, 35, 127
3, 121310, Note_off_c, 1, 35, 0
3, 121436, Note_on_c, 1, 35, 122
3, 121537, Note_off_c, 1, 35, 0
3, 121669, Note_on_c, 1, 35, 122
3, 122049, Note_off_c, 1, 35, 0
3, 122157, Note_on_c, 1, 35, 122
3, 122263, Note_off_c, 1, 35, 0
3, 122394, Note_on_c, 1, 35, 127
3, 122763, Note_off_c, 1, 35, 0
3, 122876, Note_on_c, 1, 35, 122
3, 122994, Note_off_c, 1, 35, 0
3, 123110, Note_on_c, 1, 35, 122
3, 123490, Note_off_c, 1, 35, 0
3, 123598, Note_on_c, 1, 35, 122
3, 123729, Note_off_c, 1, 35, 0
3, 123839, Note_on_c, 1, 33, 127
3, 124223, Note_off_c, 1, 33, 0
3, 124309, Note_on_c, 1, 28, 127
3, 124466, Note_off_c, 1, 28, 0
3, 124552, Note_on_c, 1, 28, 122
3, 124922, Note_off_c, 1, 28, 0
3, 125033, Note_on_c, 1, 28, 122
3, 125169, Note_off_c, 1, 28, 0
3, 125274, Note_on_c, 1, 28, 127
3, 125659, Note_off_c, 1, 28, 0
3, 125754, Note_on_c, 1, 28, 122
3, 125871, Note_off_c, 1, 28, 0
3, 125993, Note_on_c, 1, 28, 122
3, 126150, Note_off_c, 1, 28, 0
3, 126221, Note_on_c, 1, 31, 127
3, 126632, Note_off_c, 1, 31, 0
3, 126705, Note_on_c, 1, 33, 127
3, 127069, Note_off_c, 1, 33, 0
3, 127175, Note_on_c, 1, 33, 122
3, 127311, Note_off_c, 1, 33, 0
3, 127421, Note_on_c, 1, 33, 127
3, 127805, Note_off_c, 1, 33, 0
3, 127906, Note_on_c, 1, 33, 127
3, 128026, Note_off_c, 1, 33, 0
3, 128145, Note_on_c, 1, 33, 127
3, 128504, Note_off_c, 1, 33, 0
3, 128620, Note_on_c, 1, 33, 127
3, 128750, Note_off_c, 1, 33, 0
3, 128856, Note_on_c, 1, 33, 122
3, 129219, Note_off_c, 1, 33, 0
3, 129339, Note_on_c, 1, 33, 122
3, 129490, Note_off_c, 1, 33, 0
3, 129588, Note_on_c, 1, 35, 127
3, 129961, Note_off_c, 1, 35, 0
3, 130065, Note_on_c, 1, 35, 122
3, 130187, Note_off_c, 1, 35, 0
3, 130302, Note_on_c, 1, 35, 122
3, 130403, Note_off_c, 1, 35, 0
3, 130530, Note_on_c, 1, 35, 127
3, 130940, Note_off_c, 1, 35, 0
3, 131031, Note_on_c, 1, 35, 127
3, 131399, Note_off_c, 1, 35, 0
3, 131510, Note_on_c, 1, 35, 127
3, 131663, Note_off_c, 1, 35, 0
3, 131745, Note_on_c, 1, 33, 127
3, 132210, Note_off_c, 1, 33, 0
3, 132227, Note_on_c, 1, 30, 104
3, 132429, Note_off_c, 1, 30, 0
3, 132493, Note_on_c, 1, 35, 127
3, 132893, Note_off_c, 1, 35, 0
3, 132968, Note_on_c, 1, 35, 94
3, 133089, Note_off_c, 1, 35, 0
3, 133189, Note_on_c, 1, 35, 104
3, 133321, Note_off_c, 1, 35, 0
3, 133430, Note_on_c, 1, 35, 127
3, 133895, Note_off_c, 1, 35, 0
3, 133949, Note_on_c, 1, 35, 122
3, 134333, Note_off_c, 1, 35, 0
3, 134419, Note_on_c, 1, 35, 97
3, 134545, Note_off_c, 1, 35, 0
3, 134649, Note_on_c, 1, 35, 113
3, 134775, Note_off_c, 1, 35, 0
3, 134886, Note_on_c, 1, 35, 127
3, 135361, Note_off_c, 1, 35, 0
3, 135384, Note_on_c, 1, 28, 127
3, 135758, Note_off_c, 1, 28, 0
3, 135856, Note_on_c, 1, 28, 97
3, 135984, Note_off_c, 1, 28, 0
3, 136088, Note_on_c, 1, 28, 108
3, 136214, Note_off_c, 1, 28, 0
3, 136319, Note_on_c, 1, 28, 127
3, 136747, Note_off_c, 1, 28, 0
3, 136824, Note_on_c, 1, 28, 127
3, 137184, Note_off_c, 1, 28, 0
3, 137287, Note_on_c, 1, 28, 97
3, 137412, Note_off_c, 1, 28, 0
3, 137523, Note_on_c, 1, 28, 104
3, 137634, Note_off_c, 1, 28, 0
3, 137754, Note_on_c, 1, 28, 127
3, 138224, Note_off_c, 1, 28, 0
3, 138244, Note_on_c, 1, 33, 127
3, 138633, Note_off_c, 1, 33, 0
3, 138717, Note_on_c, 1, 33, 97
3, 138848, Note_off_c, 1, 33, 0
3, 138951, Note_on_c, 1, 33, 117
3, 139087, Note_off_c, 1, 33, 0
3, 139187, Note_on_c, 1, 33, 122
3, 139621, Note_off_c, 1, 33, 0
3, 139689, Note_on_c, 1, 33, 122
3, 140075, Note_off_c, 1, 33, 0
3, 140160, Note_on_c, 1, 33, 91
3, 140281, Note_off_c, 1, 33, 0
3, 140393, Note_on_c, 1, 33, 122
3, 140516, Note_off_c, 1, 33, 0
3, 140619, Note_on_c, 1, 33, 122
3, 141095, Note_off_c, 1, 33, 0
3, 141126, Note_on_c, 1, 35, 117
3, 141182, Note_off_c, 1, 35, 0
3, 141355, Note_on_c, 1, 35, 127
3, 141765, Note_off_c, 1, 35, 0
3, 141858, Note_on_c, 1, 35, 127
3, 142500, Note_off_c, 1, 35, 0
3, 142571, Note_on_c, 1, 33, 127
3, 143285, Note_off_c, 1, 33, 0
3, 143290, Note_on_c, 1, 30, 110
3, 143897, Note_off_c, 1, 30, 0
3, 143997, Note_on_c, 1, 35, 127
3, 144326, Note_off_c, 1, 35, 0
3, 144470, Note_on_c, 1, 35, 117
3, 144576, Note_off_c, 1, 35, 0
3, 144716, Note_on_c, 1, 35, 127
3, 144952, Note_on_c, 1, 45, 108
3, 144954, Note_off_c, 1, 35, 0
3, 145124, Note_off_c, 1, 45, 0
3, 145189, Note_on_c, 1, 47, 113
3, 145391, Note_off_c, 1, 47, 0
3, 145427, Note_on_c, 1, 35, 127
3, 145776, Note_off_c, 1, 35, 0
3, 145925, Note_on_c, 1, 35, 122
3, 146017, Note_off_c, 1, 35, 0
3, 146167, Note_on_c, 1, 35, 127
3, 146395, Note_on_c, 1, 45, 117
3, 146398, Note_off_c, 1, 35, 0
3, 146551, Note_off_c, 1, 45, 0
3, 146634, Note_on_c, 1, 47, 113
3, 146831, Note_off_c, 1, 47, 0
3, 146867, Note_on_c, 1, 35, 127
3, 147222, Note_off_c, 1, 35, 0
3, 147363, Note_on_c, 1, 35, 127
3, 147455, Note_off_c, 1, 35, 0
3, 147601, Note_on_c, 1, 35, 122
3, 147819, Note_off_c, 1, 35, 0
3, 147838, Note_on_c, 1, 45, 117
3, 148041, Note_off_c, 1, 45, 0
3, 148072, Note_on_c, 1, 47, 108
3, 148274, Note_off_c, 1, 47, 0
3, 148313, Note_on_c, 1, 35, 127
3, 148687, Note_off_c, 1, 35, 0
3, 148798, Note_on_c, 1, 35, 127
3, 148931, Note_off_c, 1, 35, 0
3, 149039, Note_on_c, 1, 35, 127
3, 149283, Note_on_c, 1, 33, 113
3, 149318, Note_off_c, 1, 35, 0
3, 149496, Note_off_c, 1, 33, 0
3, 149509, Note_on_c, 1, 30, 104
3, 149681, Note_off_c, 1, 30, 0
3, 149780, Note_on_c, 1, 28, 127
3, 150118, Note_off_c, 1, 28, 0
3, 150247, Note_on_c, 1, 28, 108
3, 150404, Note_off_c, 1, 28, 0
3, 150493, Note_on_c, 1, 28, 127
3, 150676, Note_off_c, 1, 28, 0
3, 150735, Note_on_c, 1, 28, 108
3, 150857, Note_off_c, 1, 28, 0
3, 150969, Note_on_c, 1, 28, 127
3, 151126, Note_off_c, 1, 28, 0
3, 151215, Note_on_c, 1, 28, 127
3, 151584, Note_off_c, 1, 28, 0
3, 151692, Note_on_c, 1, 28, 108
3, 151820, Note_off_c, 1, 28, 0
3, 151926, Note_on_c, 1, 28, 113
3, 152058, Note_off_c, 1, 28, 0
3, 152150, Note_on_c, 1, 28, 127
3, 152282, Note_off_c, 1, 28, 0
3, 152391, Note_on_c, 1, 28, 127
3, 152614, Note_off_c, 1, 28, 0
3, 152655, Note_on_c, 1, 33, 127
3, 153019, Note_off_c, 1, 33, 0
3, 153123, Note_on_c, 1, 37, 100
3, 153517, Note_off_c, 1, 37, 0
3, 153598, Note_on_c, 1, 37, 91
3, 153780, Note_off_c, 1, 37, 0
3, 153844, Note_on_c, 1, 37, 100
3, 153996, Note_off_c, 1, 37, 0
3, 154088, Note_on_c, 1, 37, 104
3, 154467, Note_off_c, 1, 37, 0
3, 154546, Note_on_c, 1, 37, 87
3, 154743, Note_off_c, 1, 37, 0
3, 154797, Note_on_c, 1, 37, 100
3, 154989, Note_off_c, 1, 37, 0
3, 155038, Note_on_c, 1, 37, 95
3, 155214, Note_off_c, 1, 37, 0
3, 155280, Note_on_c, 1, 37, 104
3, 155486, Note_off_c, 1, 37, 0
3, 155517, Note_on_c, 1, 35, 127
3, 155846, Note_off_c, 1, 35, 0
3, 155990, Note_on_c, 1, 35, 117
3, 156096, Note_off_c, 1, 35, 0
3, 156236, Note_on_c, 1, 35, 127
3, 156472, Note_on_c, 1, 45, 108
3, 156474, Note_off_c, 1, 35, 0
3, 156644, Note_off_c, 1, 45, 0
3, 156709, Note_on_c, 1, 47, 113
3, 156911, Note_off_c, 1, 47, 0
3, 156947, Note_on_c, 1, 35, 127
3, 157296, Note_off_c, 1, 35, 0
3, 157445, Note_on_c, 1, 35, 122
3, 157537, Note_off_c, 1, 35, 0
3, 157687, Note_on_c, 1, 35, 127
3, 157915, Note_on_c, 1, 45, 117
3, 157918, Note_off_c, 1, 35, 0
3, 158071, Note_off_c, 1, 45, 0
3, 158154, Note_on_c, 1, 47, 113
3, 158351, Note_off_c, 1, 47, 0
3, 158387, Note_on_c, 1, 35, 127
3, 158742, Note_off_c, 1, 35, 0
3, 158883, Note_on_c, 1, 35, 127
3, 158975, Note_off_c, 1, 35, 0
3, 159121, Note_on_c, 1, 35, 122
3, 159339, Note_off_c, 1, 35, 0
3, 159358, Note_on_c, 1, 45, 117
3, 159561, Note_off_c, 1, 45, 0
3, 159592, Note_on_c, 1, 47, 108
3, 159794, Note_off_c, 1, 47, 0
3, 159833, Note_on_c, 1, 35, 127
3, 160207, Note_off_c, 1, 35, 0
3, 160318, Note_on_c, 1, 35, 127
3, 160451, Note_off_c, 1, 35, 0
3, 160559, Note_on_c, 1, 35, 127
3, 160803, Note_on_c, 1, 33, 113
3, 160838, Note_off_c, 1, 35, 0
3, 161016, Note_off_c, 1, 33, 0
3, 161029, Note_on_c, 1, 30, 104
3, 161201, Note_off_c, 1, 30, 0
3, 161305, Note_on_c, 1, 28, 127
3, 161663, Note_off_c, 1, 28, 0
3, 161783, Note_on_c, 1, 28, 127
3, 161939, Note_off_c, 1, 28, 0
3, 162021, Note_on_c, 1, 28, 127
3, 162365, Note_off_c, 1, 28, 0
3, 162493, Note_on_c, 1, 28, 127
3, 162636, Note_off_c, 1, 28, 0
3, 162738, Note_on_c, 1, 28, 127
3, 163066, Note_off_c, 1, 28, 0
3, 163210, Note_on_c, 1, 28, 127
3, 163357, Note_off_c, 1, 28, 0
3, 163457, Note_on_c, 1, 28, 127
3, 163801, Note_off_c, 1, 28, 0
3, 163934, Note_on_c, 1, 28, 127
3, 164071, Note_off_c, 1, 28, 0
3, 164173, Note_on_c, 1, 28, 127
3, 164512, Note_off_c, 1, 28, 0
3, 164645, Note_on_c, 1, 28, 127
3, 164793, Note_off_c, 1, 28, 0
3, 164892, Note_on_c, 1, 28, 127
3, 165241, Note_off_c, 1, 28, 0
3, 165369, Note_on_c, 1, 28, 127
3, 165501, Note_off_c, 1, 28, 0
3, 165621, Note_on_c, 1, 28, 127
3, 165970, Note_off_c, 1, 28, 0
3, 166099, Note_on_c, 1, 28, 127
3, 166240, Note_off_c, 1, 28, 0
3, 166335, Note_on_c, 1, 28, 127
3, 166658, Note_off_c, 1, 28, 0
3, 166792, Note_on_c, 1, 28, 127
3, 166902, Note_off_c, 1, 28, 0
3, 167036, Note_on_c, 1, 28, 122
3, 167183, Note_off_c, 1, 28, 0
3, 167272, Note_on_c, 1, 28, 127
3, 167606, Note_off_c, 1, 28, 0
3, 167758, Note_on_c, 1, 28, 127
3, 168116, Note_off_c, 1, 28, 0
3, 168260, Note_on_c, 1, 28, 127
3, 168609, Note_off_c, 1, 28, 0
3, 168736, Note_on_c, 1, 28, 127
3, 169093, Note_off_c, 1, 28, 0
3, 169216, Note_on_c, 1, 28, 127
3, 169595, Note_off_c, 1, 28, 0
3, 169699, Note_on_c, 1, 28, 127
3, 170052, Note_off_c, 1, 28, 0
3, 170160, Note_on_c, 1, 28, 127
3, 170288, Note_off_c, 1, 28, 0
3, 170389, Note_on_c, 1, 28, 122
3, 170530, Note_off_c, 1, 28, 0
3, 170623, Note_on_c, 1, 28, 127
3, 171033, Note_off_c, 1, 28, 0
3, 171115, Note_on_c, 1, 28, 127
3, 171312, Note_off_c, 1, 28, 0
3, 171347, Note_on_c, 1, 31, 127
3, 171573, Note_on_c, 1, 32, 104
3, 171584, Note_off_c, 1, 31, 0
3, 171776, Note_off_c, 1, 32, 0
3, 171820, Note_on_c, 1, 33, 122
3, 172007, Note_off_c, 1, 33, 0
3, 172076, Note_on_c, 1, 33, 127
3, 172302, Note_on_c, 1, 34, 104
3, 172330, Note_off_c, 1, 33, 0
3, 172525, Note_off_c, 1, 34, 0
3, 172546, Note_on_c, 1, 35, 127
3, 172747, Note_off_c, 1, 35, 0
3, 172811, Note_on_c, 1, 35, 127
3, 173150, Note_off_c, 1, 35, 0
3, 173276, Note_on_c, 1, 35, 122
3, 173377, Note_off_c, 1, 35, 0
3, 173509, Note_on_c, 1, 35, 122
3, 173889, Note_off_c, 1, 35, 0
3, 173997, Note_on_c, 1, 35, 122
3, 174103, Note_off_c, 1, 35, 0
3, 174234, Note_on_c, 1, 35, 127
3, 174603, Note_off_c, 1, 35, 0
3, 174716, Note_on_c, 1, 35, 122
3, 174834, Note_off_c, 1, 35, 0
3, 174950, Note_on_c, 1, 35, 122
3, 175330, Note_off_c, 1, 35, 0
3, 175438, Note_on_c, 1, 35, 122
3, 175569, Note_off_c, 1, 35, 0
3, 175679, Note_on_c, 1, 33, 127
3, 176063, Note_off_c, 1, 33, 0
3, 176149, Note_on_c, 1, 28, 127
3, 176306, Note_off_c, 1, 28, 0
3, 176392, Note_on_c, 1, 28, 122
3, 176762, Note_off_c, 1, 28, 0
3, 176873, Note_on_c, 1, 28, 122
3, 177009, Note_off_c, 1, 28, 0
3, 177114, Note_on_c, 1, 28, 127
3, 177499, Note_off_c, 1, 28, 0
3, 177594, Note_on_c, 1, 28, 122
3, 177711, Note_off_c, 1, 28, 0
3, 177833, Note_on_c, 1, 28, 122
3, 177990, Note_off_c, 1, 28, 0
3, 178061, Note_on_c, 1, 31, 127
3, 178472, Note_off_c, 1, 31, 0
3, 178545, Note_on_c, 1, 33, 127
3, 178909, Note_off_c, 1, 33, 0
3, 179015, Note_on_c, 1, 33, 122
3, 179151, Note_off_c, 1, 33, 0
3, 179261, Note_on_c, 1, 33, 127
3, 179645, Note_off_c, 1, 33, 0
3, 179746, Note_on_c, 1, 33, 127
3, 179866, Note_off_c, 1, 33, 0
3, 179985, Note_on_c, 1, 33, 127
3, 180344, Note_off_c, 1, 33, 0
3, 180460, Note_on_c, 1, 33, 127
3, 180590, Note_off_c, 1, 33, 0
3, 180696, Note_on_c, 1, 33, 122
3, 181059, Note_off_c, 1, 33, 0
3, 181179, Note_on_c, 1, 33, 122
3, 181330, Note_off_c, 1, 33, 0
3, 181428, Note_on_c, 1, 35, 127
3, 181801, Note_off_c, 1, 35, 0
3, 181905, Note_on_c, 1, 35, 122
3, 182027, Note_off_c, 1, 35, 0
3, 182142, Note_on_c, 1, 35, 122
3, 182243, Note_off_c, 1, 35, 0
3, 182370, Note_on_c, 1, 35, 127
3, 182780, Note_off_c, 1, 35, 0
3, 182871, Note_on_c, 1, 35, 127
3, 183239, Note_off_c, 1, 35, 0
3, 183350, Note_on_c, 1, 35, 127
3, 183503, Note_off_c, 1, 35, 0
3, 183585, Note_on_c, 1, 33, 127
3, 184050, Note_off_c, 1, 33, 0
3, 184067, Note_on_c, 1, 30, 104
3, 184269, Note_off_c, 1, 30, 0
3, 184333, Note_on_c, 1, 35, 127
3, 184733, Note_off_c, 1, 35, 0
3, 184808, Note_on_c, 1, 35, 94
3, 184929, Note_off_c, 1, 35, 0
3, 185029, Note_on_c, 1, 35, 104
3, 185161, Note_off_c, 1, 35, 0
3, 185270, Note_on_c, 1, 35, 127
3, 185735, Note_off_c, 1, 35, 0
3, 185789, Note_on_c, 1, 35, 122
3, 186173, Note_off_c, 1, 35, 0
3, 186259, Note_on_c, 1, 35, 97
3, 186385, Note_off_c, 1, 35, 0
3, 186489, Note_on_c, 1, 35, 113
3, 186615, Note_off_c, 1, 35, 0
3, 186726, Note_on_c, 1, 35, 127
3, 187201, Note_off_c, 1, 35, 0
3, 187224, Note_on_c, 1, 28, 127
3, 187598, Note_off_c, 1, 28, 0
3, 187696, Note_on_c, 1, 28, 97
3, 187824, Note_off_c, 1, 28, 0
3, 187928, Note_on_c, 1, 28, 108
3, 188054, Note_off_c, 1, 28, 0
3, 188159, Note_on_c, 1, 28, 127
3, 188587, Note_off_c, 1, 28, 0
3, 188664, Note_on_c, 1, 28, 127
3, 189024, Note_off_c, 1, 28, 0
3, 189127, Note_on_c, 1, 28, 97
3, 189252, Note_off_c, 1, 28, 0
3, 189363, Note_on_c, 1, 28, 104
3, 189474, Note_off_c, 1, 28, 0
3, 189594, Note_on_c, 1, 28, 127
3, 190064, Note_off_c, 1, 28, 0
3, 190084, Note_on_c, 1, 33, 127
3, 190473, Note_off_c, 1, 33, 0
3, 190557, Note_on_c, 1, 33, 97
3, 190688, Note_off_c, 1, 33, 0
3, 190791, Note_on_c, 1, 33, 117
3, 190927, Note_off_c, 1, 33, 0
3, 191027, Note_on_c, 1, 33, 122
3, 191461, Note_off_c, 1, 33, 0
3, 191529, Note_on_c, 1, 33, 122
3, 191915, Note_off_c, 1, 33, 0
3, 192000, Note_on_c, 1, 33, 91
3, 192121, Note_off_c, 1, 33, 0
3, 192233, Note_on_c, 1, 33, 122
3, 192356, Note_off_c, 1, 33, 0
3, 192459, Note_on_c, 1, 33, 122
3, 192935, Note_off_c, 1, 33, 0
3, 192970, Note_on_c, 1, 35, 127
3, 194067, Note_off_c, 1, 35, 0
3, 194159, Note_on_c, 1, 35, 101
3, 194340, Note_off_c, 1, 35, 0
3, 194395, Note_on_c, 1, 33, 127
3, 194598, Note_off_c, 1, 33, 0
3, 194631, Note_on_c, 1, 30, 110
3, 195594, Note_on_c, 1, 33, 88
3, 195608, Note_off_c, 1, 30, 0
3, 195680, Note_off_c, 1, 33, 0
3, 195851, Note_on_c, 1, 35, 127
3, 196190, Note_off_c, 1, 35, 0
3, 196316, Note_on_c, 1, 35, 122
3, 196417, Note_off_c, 1, 35, 0
3, 196549, Note_on_c, 1, 35, 122
3, 196929, Note_off_c, 1, 35, 0
3, 197037, Note_on_c, 1, 35, 122
3, 197143, Note_off_c, 1, 35, 0
3, 197274, Note_on_c, 1, 35, 127
3, 197643, Note_off_c, 1, 35, 0
3, 197756, Note_on_c, 1, 35, 122
3, 197874, Note_off_c, 1, 35, 0
3, 197990, Note_on_c, 1, 35, 122
3, 198370, Note_off_c, 1, 35, 0
3, 198478, Note_on_c, 1, 35, 122
3, 198609, Note_off_c, 1, 35, 0
3, 198719, Note_on_c, 1, 33, 127
3, 199103, Note_off_c, 1, 33, 0
3, 199189, Note_on_c, 1, 28, 127
3, 199346, Note_off_c, 1, 28, 0
3, 199432, Note_on_c, 1, 28, 122
3, 199802, Note_off_c, 1, 28, 0
3, 199913, Note_on_c, 1, 28, 122
3, 200049, Note_off_c, 1, 28, 0
3, 200154, Note_on_c, 1, 28, 127
3, 200539, Note_off_c, 1, 28, 0
3, 200634, Note_on_c, 1, 28, 122
3, 200751, Note_off_c, 1, 28, 0
3, 200873, Note_on_c, 1, 28, 122
3, 201030, Note_off_c, 1, 28, 0
3, 201101, Note_on_c, 1, 31, 127
3, 201512, Note_off_c, 1, 31, 0
3, 201585, Note_on_c, 1, 33, 127
3, 201949, Note_off_c, 1, 33, 0
3, 202055, Note_on_c, 1, 33, 122
3, 202191, Note_off_c, 1, 33, 0
3, 202301, Note_on_c, 1, 33, 127
3, 202685, Note_off_c, 1, 33, 0
3, 202786, Note_on_c, 1, 33, 127
3, 202906, Note_off_c, 1, 33, 0
3, 203025, Note_on_c, 1, 33, 127
3, 203384, Note_off_c, 1, 33, 0
3, 203500, Note_on_c, 1, 33, 127
3, 203630, Note_off_c, 1, 33, 0
3, 203736, Note_on_c, 1, 33, 122
3, 204099, Note_off_c, 1, 33, 0
3, 204219, Note_on_c, 1, 33, 122
3, 204370, Note_off_c, 1, 33, 0
3, 204468, Note_on_c, 1, 35, 127
3, 204841, Note_off_c, 1, 35, 0
3, 204945, Note_on_c, 1, 35, 122
3, 205067, Note_off_c, 1, 35, 0
3, 205182, Note_on_c, 1, 35, 122
3, 205283, Note_off_c, 1, 35, 0
3, 205410, Note_on_c, 1, 35, 127
3, 205820, Note_off_c, 1, 35, 0
3, 205911, Note_on_c, 1, 35, 127
3, 206279, Note_off_c, 1, 35, 0
3, 206390, Note_on_c, 1, 35, 127
3, 206543, Note_off_c, 1, 35, 0
3, 206625, Note_on_c, 1, 33, 127
3, 207090, Note_off_c, 1, 33, 0
3, 207107, Note_on_c, 1, 30, 104
3, 207309, Note_off_c, 1, 30, 0
3, 207373, Note_on_c, 1, 35, 127
3, 207773, Note_off_c, 1, 35, 0
3, 207848, Note_on_c, 1, 35, 94
3, 207969, Note_off_c, 1, 35, 0
3, 208069, Note_on_c, 1, 35, 104
3, 208201, Note_off_c, 1, 35, 0
3, 208310, Note_on_c, 1, 35, 127
3, 208775, Note_off_c, 1, 35, 0
3, 208829, Note_on_c, 1, 35, 122
3, 209213, Note_off_c, 1, 35, 0
3, 209299, Note_on_c, 1, 35, 97
3, 209425, Note_off_c, 1, 35, 0
3, 209529, Note_on_c, 1, 35, 113
3, 209655, Note_off_c, 1, 35, 0
3, 209766, Note_on_c, 1, 35, 127
3, 210241, Note_off_c, 1, 35, 0
3, 210264, Note_on_c, 1, 28, 127
3, 210638, Note_off_c, 1, 28, 0
3, 210736, Note_on_c, 1, 28, 97
3, 210864, Note_off_c, 1, 28, 0
3, 210968, Note_on_c, 1, 28, 108
3, 211094, Note_off_c, 1, 28, 0
3, 211199, Note_on_c, 1, 28, 127
3, 211627, Note_off_c, 1, 28, 0
3, 211704, Note_on_c, 1, 28, 127
3, 212064, Note_off_c, 1, 28, 0
3, 212167, Note_on_c, 1, 28, 97
3, 212292, Note_off_c, 1, 28, 0
3, 212403, Note_on_c, 1, 28, 104
3, 212514, Note_off_c, 1, 28, 0
3, 212634, Note_on_c, 1, 28, 127
3, 213104, Note_off_c, 1, 28, 0
3, 213124, Note_on_c, 1, 33, 127
3, 213513, Note_off_c, 1, 33, 0
3, 213597, Note_on_c, 1, 33, 97
3, 213728, Note_off_c, 1, 33, 0
3, 213831, Note_on_c, 1, 33, 117
3, 213967, Note_off_c, 1, 33, 0
3, 214067, Note_on_c, 1, 33, 122
3, 214501, Note_off_c, 1, 33, 0
3, 214569, Note_on_c, 1, 33, 122
3, 214955, Note_off_c, 1, 33, 0
3, 215040, Note_on_c, 1, 33, 91
3, 215161, Note_off_c, 1, 33, 0
3, 215273, Note_on_c, 1, 33, 122
3, 215396, Note_off_c, 1, 33, 0
3, 215499, Note_on_c, 1, 33, 122
3, 215975, Note_off_c, 1, 33, 0
3, 216006, Note_on_c, 1, 35, 117
3, 216062, Note_off_c, 1, 35, 0
3, 216235, Note_on_c, 1, 35, 127
3, 216645, Note_off_c, 1, 35, 0
3, 216738, Note_on_c, 1, 35, 127
3, 217380, Note_off_c, 1, 35, 0
3, 217451, Note_on_c, 1, 33, 127
3, 218165, Note_off_c, 1, 33, 0
3, 218170, Note_on_c, 1, 30, 110
3, 218777, Note_off_c, 1, 30, 0
3, 218890, Note_on_c, 1, 35, 127
3, 219260, Note_off_c, 1, 35, 0
3, 219366, Note_on_c, 1, 35, 127
3, 219492, Note_off_c, 1, 35, 0
3, 219599, Note_on_c, 1, 35, 127
3, 219827, Note_off_c, 1, 35, 0
3, 219838, Note_on_c, 1, 45, 127
3, 220056, Note_off_c, 1, 45, 0
3, 220082, Note_on_c, 1, 47, 122
3, 220320, Note_off_c, 1, 47, 0
3, 220331, Note_on_c, 1, 35, 127
3, 220695, Note_off_c, 1, 35, 0
3, 220806, Note_on_c, 1, 35, 127
3, 220956, Note_off_c, 1, 35, 0
3, 221050, Note_on_c, 1, 35, 122
3, 221272, Note_off_c, 1, 35, 0
3, 221286, Note_on_c, 1, 45, 127
3, 221517, Note_on_c, 1, 47, 127
3, 221549, Note_off_c, 1, 45, 0
3, 221638, Note_off_c, 1, 47, 0
3, 221761, Note_on_c, 1, 28, 127
3, 222119, Note_off_c, 1, 28, 0
3, 222241, Note_on_c, 1, 28, 127
3, 222378, Note_off_c, 1, 28, 0
3, 222488, Note_on_c, 1, 28, 127
3, 222851, Note_off_c, 1, 28, 0
3, 222960, Note_on_c, 1, 28, 127
3, 223102, Note_off_c, 1, 28, 0
3, 223202, Note_on_c, 1, 28, 127
3, 223571, Note_off_c, 1, 28, 0
3, 223684, Note_on_c, 1, 28, 127
3, 223799, Note_off_c, 1, 28, 0
3, 223923, Note_on_c, 1, 28, 127
3, 224115, Note_off_c, 1, 28, 0
3, 224159, Note_on_c, 1, 31, 127
3, 224397, Note_off_c, 1, 31, 0
3, 224403, Note_on_c, 1, 28, 127
3, 224574, Note_off_c, 1, 28, 0
3, 224639, Note_on_c, 1, 33, 127
3, 225003, Note_off_c, 1, 33, 0
3, 225119, Note_on_c, 1, 33, 127
3, 225272, Note_off_c, 1, 33, 0
3, 225366, Note_on_c, 1, 33, 127
3, 225735, Note_off_c, 1, 33, 0
3, 225841, Note_on_c, 1, 33, 127
3, 225968, Note_off_c, 1, 33, 0
3, 226080, Note_on_c, 1, 33, 127
3, 226473, Note_off_c, 1, 33, 0
3, 226577, Note_on_c, 1, 33, 122
3, 226695, Note_off_c, 1, 33, 0
3, 226818, Note_on_c, 1, 33, 117
3, 226991, Note_off_c, 1, 33, 0
3, 227057, Note_on_c, 1, 30, 110
3, 227251, Note_off_c, 1, 30, 0
3, 227276, Note_on_c, 1, 33, 122
3, 227458, Note_off_c, 1, 33, 0
3, 227520, Note_on_c, 1, 35, 127
3, 227885, Note_off_c, 1, 35, 0
3, 228000, Note_on_c, 1, 35, 127
3, 228364, Note_off_c, 1, 35, 0
3, 228483, Note_on_c, 1, 35, 127
3, 228806, Note_off_c, 1, 35, 0
3, 228943, Note_on_c, 1, 42, 127
3, 229342, Note_off_c, 1, 42, 0
3, 229431, Note_on_c, 1, 42, 110
3, 229582, Note_off_c, 1, 42, 0
3, 229674, Note_on_c, 1, 42, 110
3, 229913, Note_on_c, 1, 45, 127
3, 229917, Note_off_c, 1, 42, 0
3, 230110, Note_off_c, 1, 45, 0
3, 230149, Note_on_c, 1, 47, 127
3, 230331, Note_off_c, 1, 47, 0
3, 230408, Note_on_c, 1, 35, 127
3, 230782, Note_off_c, 1, 35, 0
3, 230883, Note_on_c, 1, 35, 127
3, 231020, Note_off_c, 1, 35, 0
3, 231124, Note_on_c, 1, 35, 127
3, 231351, Note_off_c, 1, 35, 0
3, 231368, Note_on_c, 1, 45, 127
3, 231581, Note_off_c, 1, 45, 0
3, 231609, Note_on_c, 1, 47, 122
3, 231827, Note_off_c, 1, 47, 0
3, 231848, Note_on_c, 1, 35, 127
3, 232222, Note_off_c, 1, 35, 0
3, 232336, Note_on_c, 1, 35, 127
3, 232483, Note_off_c, 1, 35, 0
3, 232585, Note_on_c, 1, 35, 127
3, 232796, Note_off_c, 1, 35, 0
3, 232824, Note_on_c, 1, 45, 127
3, 233055, Note_on_c, 1, 47, 122
3, 233086, Note_off_c, 1, 45, 0
3, 233175, Note_off_c, 1, 47, 0
3, 233294, Note_on_c, 1, 28, 127
3, 233612, Note_off_c, 1, 28, 0
3, 233759, Note_on_c, 1, 28, 127
3, 233885, Note_off_c, 1, 28, 0
3, 234010, Note_on_c, 1, 28, 127
3, 234349, Note_off_c, 1, 28, 0
3, 234478, Note_on_c, 1, 28, 127
3, 234623, Note_off_c, 1, 28, 0
3, 234716, Note_on_c, 1, 28, 127
3, 235085, Note_off_c, 1, 28, 0
3, 235209, Note_on_c, 1, 28, 127
3, 235583, Note_off_c, 1, 28, 0
3, 235694, Note_on_c, 1, 28, 127
3, 236044, Note_off_c, 1, 28, 0
3, 236154, Note_on_c, 1, 33, 127
3, 236498, Note_off_c, 1, 33, 0
3, 236639, Note_on_c, 1, 33, 127
3, 237034, Note_off_c, 1, 33, 0
3, 237145, Note_on_c, 1, 33, 127
3, 237494, Note_off_c, 1, 33, 0
3, 237617, Note_on_c, 1, 33, 127
3, 237981, Note_off_c, 1, 33, 0
3, 238082, Note_on_c, 1, 33, 127
3, 238239, Note_off_c, 1, 33, 0
3, 238329, Note_on_c, 1, 33, 127
3, 238505, Note_off_c, 1, 33, 0
3, 238570, Note_on_c, 1, 33, 127
3, 238717, Note_off_c, 1, 33, 0
3, 238824, Note_on_c, 1, 33, 127
3, 238939, Note_off_c, 1, 33, 0
3, 239058, Note_on_c, 1, 33, 127
3, 239422, Note_off_c, 1, 33, 0
3, 239535, Note_on_c, 1, 33, 127
3, 239682, Note_off_c, 1, 33, 0
3, 239779, Note_on_c, 1, 33, 127
3, 239911, Note_off_c, 1, 33, 0
3, 240015, Note_on_c, 1, 33, 127
3, 240132, Note_off_c, 1, 33, 0
3, 240244, Note_on_c, 1, 33, 127
3, 240457, Note_off_c, 1, 33, 0
3, 240490, Note_on_c, 1, 31, 127
3, 241230, Note_on_c, 1, 33, 127
3, 241242, Note_off_c, 1, 31, 0
3, 241835, Note_off_c, 1, 33, 0
3, 241930, Note_on_c, 1, 35, 127
3, 242300, Note_off_c, 1, 35, 0
3, 242406, Note_on_c, 1, 35, 127
3, 242532, Note_off_c, 1, 35, 0
3, 242639, Note_on_c, 1, 35, 127
3, 242867, Note_off_c, 1, 35, 0
3, 242878, Note_on_c, 1, 45, 127
3, 243096, Note_off_c, 1, 45, 0
3, 243122, Note_on_c, 1, 47, 122
3, 243360, Note_off_c, 1, 47, 0
3, 243371, Note_on_c, 1, 35, 127
3, 243735, Note_off_c, 1, 35, 0
3, 243846, Note_on_c, 1, 35, 127
3, 243996, Note_off_c, 1, 35, 0
3, 244090, Note_on_c, 1, 35, 122
3, 244312, Note_off_c, 1, 35, 0
3, 244326, Note_on_c, 1, 45, 127
3, 244557, Note_on_c, 1, 47, 127
3, 244589, Note_off_c, 1, 45, 0
3, 244678, Note_off_c, 1, 47, 0
3, 244801, Note_on_c, 1, 28, 127
3, 245159, Note_off_c, 1, 28, 0
3, 245281, Note_on_c, 1, 28, 127
3, 245418, Note_off_c, 1, 28, 0
3, 245528, Note_on_c, 1, 28, 127
3, 245891, Note_off_c, 1, 28, 0
3, 246000, Note_on_c, 1, 28, 127
3, 246142, Note_off_c, 1, 28, 0
3, 246242, Note_on_c, 1, 28, 127
3, 246611, Note_off_c, 1, 28, 0
3, 246724, Note_on_c, 1, 28, 127
3, 246839, Note_off_c, 1, 28, 0
3, 246963, Note_on_c, 1, 28, 127
3, 247155, Note_off_c, 1, 28, 0
3, 247199, Note_on_c, 1, 31, 127
3, 247437, Note_off_c, 1, 31, 0
3, 247443, Note_on_c, 1, 28, 127
3, 247614, Note_off_c, 1, 28, 0
3, 247679, Note_on_c, 1, 33, 127
3, 248043, Note_off_c, 1, 33, 0
3, 248159, Note_on_c, 1, 33, 127
3, 248312, Note_off_c, 1, 33, 0
3, 248406, Note_on_c, 1, 33, 127
3, 248775, Note_off_c, 1, 33, 0
3, 248881, Note_on_c, 1, 33, 127
3, 249008, Note_off_c, 1, 33, 0
3, 249120, Note_on_c, 1, 33, 127
3, 249513, Note_off_c, 1, 33, 0
3, 249617, Note_on_c, 1, 33, 122
3, 249735, Note_off_c, 1, 33, 0
3, 249858, Note_on_c, 1, 33, 117
3, 250031, Note_off_c, 1, 33, 0
3, 250097, Note_on_c, 1, 30, 110
3, 250291, Note_off_c, 1, 30, 0
3, 250316, Note_on_c, 1, 33, 122
3, 250498, Note_off_c, 1, 33, 0
3, 250560, Note_on_c, 1, 35, 127
3, 250925, Note_off_c, 1, 35, 0
3, 251040, Note_on_c, 1, 35, 127
3, 251404, Note_off_c, 1, 35, 0
3, 251523, Note_on_c, 1, 35, 127
3, 251846, Note_off_c, 1, 35, 0
3, 251983, Note_on_c, 1, 42, 127
3, 252382, Note_off_c, 1, 42, 0
3, 252471, Note_on_c, 1, 42, 110
3, 252622, Note_off_c, 1, 42, 0
3, 252714, Note_on_c, 1, 42, 110
3, 252953, Note_on_c, 1, 45, 127
3, 252957, Note_off_c, 1, 42, 0
3, 253150, Note_off_c, 1, 45, 0
3, 253189, Note_on_c, 1, 47, 127
3, 253371, Note_off_c, 1, 47, 0
3, 253448, Note_on_c, 1, 35, 127
3, 253822, Note_off_c, 1, 35, 0
3, 253923, Note_on_c, 1, 35, 127
3, 254060, Note_off_c, 1, 35, 0
3, 254164, Note_on_c, 1, 35, 127
3, 254391, Note_off_c, 1, 35, 0
3, 254408, Note_on_c, 1, 45, 127
3, 254621, Note_off_c, 1, 45, 0
3, 254649, Note_on_c, 1, 47, 122
3, 254867, Note_off_c, 1, 47, 0
3, 254888, Note_on_c, 1, 35, 127
3, 255262, Note_off_c, 1, 35, 0
3, 255376, Note_on_c, 1, 35, 127
3, 255523, Note_off_c, 1, 35, 0
3, 255625, Note_on_c, 1, 35, 127
3, 255836, Note_off_c, 1, 35, 0
3, 255864, Note_on_c, 1, 45, 127
3, 256095, Note_on_c, 1, 47, 122
3, 256126, Note_off_c, 1, 45, 0
3, 256215, Note_off_c, 1, 47, 0
3, 256334, Note_on_c, 1, 28, 127
3, 256652, Note_off_c, 1, 28, 0
3, 256799, Note_on_c, 1, 28, 127
3, 256925, Note_off_c, 1, 28, 0
3, 257050, Note_on_c, 1, 28, 127
3, 257389, Note_off_c, 1, 28, 0
3, 257518, Note_on_c, 1, 28, 127
3, 257663, Note_off_c, 1, 28, 0
3, 257756, Note_on_c, 1, 28, 127
3, 258125, Note_off_c, 1, 28, 0
3, 258249, Note_on_c, 1, 28, 127
3, 258623, Note_off_c, 1, 28, 0
3, 258734, Note_on_c, 1, 28, 127
3, 259084, Note_off_c, 1, 28, 0
3, 259194, Note_on_c, 1, 33, 127
3, 259538, Note_off_c, 1, 33, 0
3, 259679, Note_on_c, 1, 33, 127
3, 260074, Note_off_c, 1, 33, 0
3, 260185, Note_on_c, 1, 33, 127
3, 260534, Note_off_c, 1, 33, 0
3, 260657, Note_on_c, 1, 33, 127
3, 261021, Note_off_c, 1, 33, 0
3, 261122, Note_on_c, 1, 33, 127
3, 261279, Note_off_c, 1, 33, 0
3, 261369, Note_on_c, 1, 33, 127
3, 261545, Note_off_c, 1, 33, 0
3, 261610, Note_on_c, 1, 33, 127
3, 261757, Note_off_c, 1, 33, 0
3, 261864, Note_on_c, 1, 33, 127
3, 261979, Note_off_c, 1, 33, 0
3, 262098, Note_on_c, 1, 33, 127
3, 262462, Note_off_c, 1, 33, 0
3, 262575, Note_on_c, 1, 33, 127
3, 262722, Note_off_c, 1, 33, 0
3, 262819, Note_on_c, 1, 33, 127
3, 262951, Note_off_c, 1, 33, 0
3, 263055, Note_on_c, 1, 33, 127
3, 263172, Note_off_c, 1, 33, 0
3, 263284, Note_on_c, 1, 33, 127
3, 263497, Note_off_c, 1, 33, 0
3, 263530, Note_on_c, 1, 31, 127
3, 264270, Note_on_c, 1, 33, 127
3, 264282, Note_off_c, 1, 31, 0
3, 264875, Note_off_c, 1, 33, 0
3, 264970, Note_on_c, 1, 35, 127
3, 265340, Note_off_c, 1, 35, 0
3, 265446, Note_on_c, 1, 35, 127
3, 265572, Note_off_c, 1, 35, 0
3, 265679, Note_on_c, 1, 35, 127
3, 265907, Note_off_c, 1, 35, 0
3, 265918, Note_on_c, 1, 45, 127
3, 266136, Note_off_c, 1, 45, 0
3, 266162, Note_on_c, 1, 47, 122
3, 266400, Note_off_c, 1, 47, 0
3, 266411, Note_on_c, 1, 35, 127
3, 266775, Note_off_c, 1, 35, 0
3, 266886, Note_on_c, 1, 35, 127
3, 267036, Note_off_c, 1, 35, 0
3, 267130, Note_on_c, 1, 35, 122
3, 267352, Note_off_c, 1, 35, 0
3, 267366, Note_on_c, 1, 45, 127
3, 267597, Note_on_c, 1, 47, 127
3, 267629, Note_off_c, 1, 45, 0
3, 267718, Note_off_c, 1, 47, 0
3, 267841, Note_on_c, 1, 28, 127
3, 268199, Note_off_c, 1, 28, 0
3, 268321, Note_on_c, 1, 28, 127
3, 268458, Note_off_c, 1, 28, 0
3, 268568, Note_on_c, 1, 28, 127
3, 268931, Note_off_c, 1, 28, 0
3, 269040, Note_on_c, 1, 28, 127
3, 269182, Note_off_c, 1, 28, 0
3, 269282, Note_on_c, 1, 28, 127
3, 269651, Note_off_c, 1, 28, 0
3, 269764, Note_on_c, 1, 28, 127
3, 269879, Note_off_c, 1, 28, 0
3, 270003, Note_on_c, 1, 28, 127
3, 270195, Note_off_c, 1, 28, 0
3, 270239, Note_on_c, 1, 31, 127
3, 270477, Note_off_c, 1, 31, 0
3, 270483, Note_on_c, 1, 28, 127
3, 270654, Note_off_c, 1, 28, 0
3, 270719, Note_on_c, 1, 33, 127
3, 271083, Note_off_c, 1, 33, 0
3, 271199, Note_on_c, 1, 33, 127
3, 271352, Note_off_c, 1, 33, 0
3, 271446, Note_on_c, 1, 33, 127
3, 271815, Note_off_c, 1, 33, 0
3, 271921, Note_on_c, 1, 33, 127
3, 272048, Note_off_c, 1, 33, 0
3, 272160, Note_on_c, 1, 33, 127
3, 272553, Note_off_c, 1, 33, 0
3, 272657, Note_on_c, 1, 33, 122
3, 272775, Note_off_c, 1, 33, 0
3, 272898, Note_on_c, 1, 33, 117
3, 273071, Note_off_c, 1, 33, 0
3, 273137, Note_on_c, 1, 30, 110
3, 273331, Note_off_c, 1, 30, 0
3, 273356, Note_on_c, 1, 33, 122
3, 273538, Note_off_c, 1, 33, 0
3, 273600, Note_on_c, 1, 35, 127
3, 273965, Note_off_c, 1, 35, 0
3, 274080, Note_on_c, 1, 35, 127
3, 274444, Note_off_c, 1, 35, 0
3, 274563, Note_on_c, 1, 35, 127
3, 274886, Note_off_c, 1, 35, 0
3, 275023, Note_on_c, 1, 42, 127
3, 275422, Note_off_c, 1, 42, 0
3, 275511, Note_on_c, 1, 42, 110
3, 275662, Note_off_c, 1, 42, 0
3, 275754, Note_on_c, 1, 42, 110
3, 275993, Note_on_c, 1, 45, 127
3, 275997, Note_off_c, 1, 42, 0
3, 276190, Note_off_c, 1, 45, 0
3, 276229, Note_on_c, 1, 47, 127
3, 276411, Note_off_c, 1, 47, 0
3, 276488, Note_on_c, 1, 35, 127
3, 276862, Note_off_c, 1, 35, 0
3, 276963, Note_on_c, 1, 35, 127
3, 277100, Note_off_c, 1, 35, 0
3, 277204, Note_on_c, 1, 35, 127
3, 277431, Note_off_c, 1, 35, 0
3, 277448, Note_on_c, 1, 45, 127
3, 277661, Note_off_c, 1, 45, 0
3, 277689, Note_on_c, 1, 47, 122
3, 277907, Note_off_c, 1, 47, 0
3, 277928, Note_on_c, 1, 35, 127
3, 278302, Note_off_c, 1, 35, 0
3, 278416, Note_on_c, 1, 35, 127
3, 278563, Note_off_c, 1, 35, 0
3, 278665, Note_on_c, 1, 35, 127
3, 278876, Note_off_c, 1, 35, 0
3, 278904, Note_on_c, 1, 45, 127
3, 279135, Note_on_c, 1, 47, 122
3, 279166, Note_off_c, 1, 45, 0
3, 279255, Note_off_c, 1, 47, 0
3, 279374, Note_on_c, 1, 28, 127
3, 279692, Note_off_c, 1, 28, 0
3, 279839, Note_on_c, 1, 28, 127
3, 279965, Note_off_c, 1, 28, 0
3, 280090, Note_on_c, 1, 28, 127
3, 280429, Note_off_c, 1, 28, 0
3, 280558, Note_on_c, 1, 28, 127
3, 280703, Note_off_c, 1, 28, 0
3, 280796, Note_on_c, 1, 28, 127
3, 281165, Note_off_c, 1, 28, 0
3, 281289, Note_on_c, 1, 28, 127
3, 281663, Note_off_c, 1, 28, 0
3, 281774, Note_on_c, 1, 28, 127
3, 282124, Note_off_c, 1, 28, 0
3, 282234, Note_on_c, 1, 33, 127
3, 282578, Note_off_c, 1, 33, 0
3, 282719, Note_on_c, 1, 33, 127
3, 283114, Note_off_c, 1, 33, 0
3, 283225, Note_on_c, 1, 33, 127
3, 283574, Note_off_c, 1, 33, 0
3, 283697, Note_on_c, 1, 33, 127
3, 284061, Note_off_c, 1, 33, 0
3, 284162, Note_on_c, 1, 33, 127
3, 284319, Note_off_c, 1, 33, 0
3, 284409, Note_on_c, 1, 33, 127
3, 284585, Note_off_c, 1, 33, 0
3, 284650, Note_on_c, 1, 33, 127
3, 284797, Note_off_c, 1, 33, 0
3, 284904, Note_on_c, 1, 33, 127
3, 285019, Note_off_c, 1, 33, 0
3, 285138, Note_on_c, 1, 33, 127
3, 285502, Note_off_c, 1, 33, 0
3, 285615, Note_on_c, 1, 33, 127
3, 285762, Note_off_c, 1, 33, 0
3, 285859, Note_on_c, 1, 33, 127
3, 285991, Note_off_c, 1, 33, 0
3, 286095, Note_on_c, 1, 33, 127
3, 286212, Note_off_c, 1, 33, 0
3, 286324, Note_on_c, 1, 33, 127
3, 286537, Note_off_c, 1, 33, 0
3, 286570, Note_on_c, 1, 31, 127
3, 287310, Note_on_c, 1, 33, 127
3, 287322, Note_off_c, 1, 31, 0
3, 287915, Note_off_c, 1, 33, 0
3, 288000, Control_c, 1, 11, 127
3, 288010, Note_on_c, 1, 35, 127
3, 288120, Control_c, 1, 11, 126
3, 288360, Control_c, 1, 11, 125
3, 288380, Note_off_c, 1, 35, 0
3, 288480, Control_c, 1, 11, 124
3, 288486, Note_on_c, 1, 35, 127
3, 288612, Note_off_c, 1, 35, 0
3, 288719, Note_on_c, 1, 35, 127
3, 288720, Control_c, 1, 11, 123
3, 288840, Control_c, 1, 11, 122
3, 288947, Note_off_c, 1, 35, 0
3, 288958, Note_on_c, 1, 45, 127
3, 289080, Control_c, 1, 11, 121
3, 289176, Note_off_c, 1, 45, 0
3, 289200, Control_c, 1, 11, 120
3, 289202, Note_on_c, 1, 47, 122
3, 289440, Note_off_c, 1, 47, 0
3, 289440, Control_c, 1, 11, 119
3, 289451, Note_on_c, 1, 35, 127
3, 289560, Control_c, 1, 11, 118
3, 289800, Control_c, 1, 11, 117
3, 289815, Note_off_c, 1, 35, 0
3, 289920, Control_c, 1, 11, 116
3, 289926, Note_on_c, 1, 35, 127
3, 290076, Note_off_c, 1, 35, 0
3, 290160, Control_c, 1, 11, 115
3, 290170, Note_on_c, 1, 35, 122
3, 290280, Control_c, 1, 11, 114
3, 290392, Note_off_c, 1, 35, 0
3, 290406, Note_on_c, 1, 45, 127
3, 290520, Control_c, 1, 11, 113
3, 290637, Note_on_c, 1, 47, 127
3, 290640, Control_c, 1, 11, 112
3, 290669, Note_off_c, 1, 45, 0
3, 290758, Note_off_c, 1, 47, 0
3, 290880, Control_c, 1, 11, 111
3, 290881, Note_on_c, 1, 28, 127
3, 291000, Control_c, 1, 11, 110
3, 291239, Note_off_c, 1, 28, 0
3, 291240, Control_c, 1, 11, 109
3, 291360, Control_c, 1, 11, 108
3, 291361, Note_on_c, 1, 28, 127
3, 291498, Note_off_c, 1, 28, 0
3, 291600, Control_c, 1, 11, 107
3, 291608, Note_on_c, 1, 28, 127
3, 291720, Control_c, 1, 11, 106
3, 291960, Control_c, 1, 11, 105
3, 291971, Note_off_c, 1, 28, 0
3, 292080, Note_on_c, 1, 28, 127
3, 292200, Control_c, 1, 11, 104
3, 292222, Note_off_c, 1, 28, 0
3, 292320, Control_c, 1, 11, 103
3, 292322, Note_on_c, 1, 28, 127
3, 292560, Control_c, 1, 11, 102
3, 292680, Control_c, 1, 11, 101
3, 292691, Note_off_c, 1, 28, 0
3, 292804, Note_on_c, 1, 28, 127
3, 292919, Note_off_c, 1, 28, 0
3, 292920, Control_c, 1, 11, 100
3, 293040, Control_c, 1, 11, 99
3, 293043, Note_on_c, 1, 28, 127
3, 293235, Note_off_c, 1, 28, 0
3, 293279, Note_on_c, 1, 31, 127
3, 293280, Control_c, 1, 11, 98
3, 293400, Control_c, 1, 11, 97
3, 293517, Note_off_c, 1, 31, 0
3, 293523, Note_on_c, 1, 28, 127
3, 293640, Control_c, 1, 11, 96
3, 293694, Note_off_c, 1, 28, 0
3, 293759, Note_on_c, 1, 33, 127
3, 293760, Control_c, 1, 11, 95
3, 294000, Control_c, 1, 11, 94
3, 294120, Control_c, 1, 11, 93
3, 294123, Note_off_c, 1, 33, 0
3, 294239, Note_on_c, 1, 33, 127
3, 294360, Control_c, 1, 11, 92
3, 294392, Note_off_c, 1, 33, 0
3, 294480, Control_c, 1, 11, 91
3, 294486, Note_on_c, 1, 33, 127
3, 294720, Control_c, 1, 11, 90
3, 294840, Control_c, 1, 11, 89
3, 294855, Note_off_c, 1, 33, 0
3, 294961, Note_on_c, 1, 33, 127
3, 295080, Control_c, 1, 11, 88
3, 295088, Note_off_c, 1, 33, 0
3, 295200, Control_c, 1, 11, 87
3, 295200, Note_on_c, 1, 33, 127
3, 295440, Control_c, 1, 11, 86
3, 295560, Control_c, 1, 11, 85
3, 295593, Note_off_c, 1, 33, 0
3, 295697, Note_on_c, 1, 33, 122
3, 295800, Control_c, 1, 11, 84
3, 295815, Note_off_c, 1, 33, 0
3, 295920, Control_c, 1, 11, 83
3, 295938, Note_on_c, 1, 33, 117
3, 296111, Note_off_c, 1, 33, 0
3, 296160, Control_c, 1, 11, 82
3, 296177, Note_on_c, 1, 30, 110
3, 296280, Control_c, 1, 11, 81
3, 296371, Note_off_c, 1, 30, 0
3, 296396, Note_on_c, 1, 33, 122
3, 296520, Control_c, 1, 11, 80
3, 296578, Note_off_c, 1, 33, 0
3, 296640, Control_c, 1, 11, 79
3, 296640, Note_on_c, 1, 35, 127
3, 296880, Control_c, 1, 11, 78
3, 297000, Control_c, 1, 11, 77
3, 297005, Note_off_c, 1, 35, 0
3, 297120, Note_on_c, 1, 35, 127
3, 297240, Control_c, 1, 11, 76
3, 297360, Control_c, 1, 11, 75
3, 297484, Note_off_c, 1, 35, 0
3, 297600, Control_c, 1, 11, 74
3, 297603, Note_on_c, 1, 35, 127
3, 297720, Control_c, 1, 11, 73
3, 297926, Note_off_c, 1, 35, 0
3, 297960, Control_c, 1, 11, 72
3, 298063, Note_on_c, 1, 42, 127
3, 298080, Control_c, 1, 11, 71
3, 298320, Control_c, 1, 11, 70
3, 298440, Control_c, 1, 11, 69
3, 298462, Note_off_c, 1, 42, 0
3, 298551, Note_on_c, 1, 42, 110
3, 298680, Control_c, 1, 11, 68
3, 298702, Note_off_c, 1, 42, 0
3, 298794, Note_on_c, 1, 42, 110
3, 298800, Control_c, 1, 11, 67
3, 299033, Note_on_c, 1, 45, 127
3, 299037, Note_off_c, 1, 42, 0
3, 299040, Control_c, 1, 11, 66
3, 299160, Control_c, 1, 11, 65
3, 299230, Note_off_c, 1, 45, 0
3, 299269, Note_on_c, 1, 47, 127
3, 299400, Control_c, 1, 11, 64
3, 299451, Note_off_c, 1, 47, 0
3, 299520, Control_c, 1, 11, 63
3, 299528, Note_on_c, 1, 35, 127
3, 299760, Control_c, 1, 11, 62
3, 299902, Note_off_c, 1, 35, 0
3, 300000, Control_c, 1, 11, 61
3, 300003, Note_on_c, 1, 35, 127
3, 300120, Control_c, 1, 11, 60
3, 300140, Note_off_c, 1, 35, 0
3, 300244, Note_on_c, 1, 35, 127
3, 300360, Control_c, 1, 11, 59
3, 300471, Note_off_c, 1, 35, 0
3, 300480, Control_c, 1, 11, 58
3, 300488, Note_on_c, 1, 45, 127
3, 300701, Note_off_c, 1, 45, 0
3, 300720, Control_c, 1, 11, 57
3, 300729, Note_on_c, 1, 47, 122
3, 300840, Control_c, 1, 11, 56
3, 300947, Note_off_c, 1, 47, 0
3, 300968, Note_on_c, 1, 35, 127
3, 301080, Control_c, 1, 11, 55
3, 301200, Control_c, 1, 11, 54
3, 301342, Note_off_c, 1, 35, 0
3, 301440, Control_c, 1, 11, 53
3, 301456, Note_on_c, 1, 35, 127
3, 301560, Control_c, 1, 11, 52
3, 301603, Note_off_c, 1, 35, 0
3, 301705, Note_on_c, 1, 35, 127
3, 301800, Control_c, 1, 11, 51
3, 301916, Note_off_c, 1, 35, 0
3, 301920, Control_c, 1, 11, 50
3, 301944, Note_on_c, 1, 45, 127
3, 302160, Control_c, 1, 11, 49
3, 302175, Note_on_c, 1, 47, 122
3, 302206, Note_off_c, 1, 45, 0
3, 302280, Control_c, 1, 11, 48
3, 302295, Note_off_c, 1, 47, 0
3, 302414, Note_on_c, 1, 28, 127
3, 302520, Control_c, 1, 11, 47
3, 302640, Control_c, 1, 11, 46
3, 302732, Note_off_c, 1, 28, 0
3, 302879, Note_on_c, 1, 28, 127
3, 302880, Control_c, 1, 11, 45
3, 303000, Control_c, 1, 11, 44
3, 303005, Note_off_c, 1, 28, 0
3, 303130, Note_on_c, 1, 28, 127
3, 303240, Control_c, 1, 11, 43
3, 303360, Control_c, 1, 11, 42
3, 303469, Note_off_c, 1, 28, 0
3, 303598, Note_on_c, 1, 28, 127
3, 303600, Control_c, 1, 11, 41
3, 303720, Control_c, 1, 11, 40
3, 303743, Note_off_c, 1, 28, 0
3, 303836, Note_on_c, 1, 28, 127
3, 303960, Control_c, 1, 11, 39
3, 304080, Control_c, 1, 11, 38
3, 304205, Note_off_c, 1, 28, 0
3, 304320, Control_c, 1, 11, 37
3, 304329, Note_on_c, 1, 28, 127
3, 304440, Control_c, 1, 11, 36
3, 304680, Control_c, 1, 11, 35
3, 304703, Note_off_c, 1, 28, 0
3, 304800, Control_c, 1, 11, 34
3, 304814, Note_on_c, 1, 28, 127
3, 305040, Control_c, 1, 11, 33
3, 305160, Control_c, 1, 11, 32
3, 305164, Note_off_c, 1, 28, 0
3, 305274, Note_on_c, 1, 33, 127
3, 305400, Control_c, 1, 11, 31
3, 305520, Control_c, 1, 11, 30
3, 305618, Note_off_c, 1, 33, 0
3, 305759, Note_on_c, 1, 33, 127
3, 305760, Control_c, 1, 11, 29
3, 305880, Control_c, 1, 11, 28
3, 306120, Control_c, 1, 11, 27
3, 306154, Note_off_c, 1, 33, 0
3, 306240, Control_c, 1, 11, 26
3, 306265, Note_on_c, 1, 33, 127
3, 306480, Control_c, 1, 11, 25
3, 306600, Control_c, 1, 11, 24
3, 306614, Note_off_c, 1, 33, 0
3, 306737, Note_on_c, 1, 33, 127
3, 306840, Control_c, 1, 11, 23
3, 306960, Control_c, 1, 11, 22
3, 307101, Note_off_c, 1, 33, 0
3, 307200, Control_c, 1, 11, 21
3, 307202, Note_on_c, 1, 33, 127
3, 307359, Note_off_c, 1, 33, 0
3, 307440, Control_c, 1, 11, 20
3, 307449, Note_on_c, 1, 33, 127
3, 307560, Control_c, 1, 11, 19
3, 307625, Note_off_c, 1, 33, 0
3, 307690, Note_on_c, 1, 33, 127
3, 307800, Control_c, 1, 11, 18
3, 307837, Note_off_c, 1, 33, 0
3, 307920, Control_c, 1, 11, 17
3, 307944, Note_on_c, 1, 33, 127
3, 308059, Note_off_c, 1, 33, 0
3, 308160, Control_c, 1, 11, 16
3, 308178, Note_on_c, 1, 33, 127
3, 308280, Control_c, 1, 11, 15
3, 308520, Control_c, 1, 11, 14
3, 308542, Note_off_c, 1, 33, 0
3, 308640, Control_c, 1, 11, 13
3, 308655, Note_on_c, 1, 33, 127
3, 308802, Note_off_c, 1, 33, 0
3, 308880, Control_c, 1, 11, 12
3, 308899, Note_on_c, 1, 33, 127
3, 309000, Control_c, 1, 11, 11
3, 309031, Note_off_c, 1, 33, 0
3, 309135, Note_on_c, 1, 33, 127
3, 309240, Control_c, 1, 11, 10
3, 309252, Note_off_c, 1, 33, 0
3, 309360, Control_c, 1, 11, 9
3, 309364, Note_on_c, 1, 33, 127
3, 309577, Note_off_c, 1, 33, 0
3, 309600, Control_c, 1, 11, 8
3, 309610, Note_on_c, 1, 31, 127
3, 309720, Control_c, 1, 11, 7
3, 309960, Control_c, 1, 11, 6
3, 310080, Control_c, 1, 11, 5
3, 310320, Control_c, 1, 11, 4
3, 310350, Note_on_c, 1, 33, 127
3, 310362, Note_off_c, 1, 31, 0
3, 310440, Control_c, 1, 11, 3
3, 310680, Control_c, 1, 11, 2
3, 310800, Control_c, 1, 11, 1
3, 310955, Note_off_c, 1, 33, 0
3, 311031, Control_c, 1, 7, 100
3, 311031, End_track
4, 0, Start_track
4, 0, Title_t, "\000"
4, 0, Control_c, 2, 0, 32
4, 0, Program_c, 2, 24
4, 0, Control_c, 2, 7, 91
4, 0, Control_c, 2, 10, 54
4, 0, Control_c, 2, 91, 40
4, 0, Control_c, 2, 93, 25
4, 590, Control_c, 2, 11, 127
4, 3419, Control_c, 2, 101, 0
4, 3421, Control_c, 2, 100, 0
4, 3424, Control_c, 2, 6, 2
4, 3426, Control_c, 2, 101, 127
4, 3429, Control_c, 2, 100, 127
4, 5445, Control_c, 2, 94, 0
4, 5760, Note_on_c, 2, 47, 113
4, 5984, Note_on_c, 2, 54, 100
4, 6243, Note_on_c, 2, 59, 94
4, 6487, Note_on_c, 2, 63, 95
4, 6531, Note_off_c, 2, 59, 0
4, 6728, Note_on_c, 2, 59, 97
4, 6823, Note_off_c, 2, 54, 0
4, 6965, Note_on_c, 2, 54, 95
4, 7141, Note_off_c, 2, 47, 0
4, 7223, Note_on_c, 2, 47, 108
4, 7369, Note_off_c, 2, 54, 0
4, 7452, Note_on_c, 2, 54, 83
4, 7482, Note_off_c, 2, 59, 0
4, 7696, Note_on_c, 2, 59, 88
4, 7725, Note_off_c, 2, 63, 0
4, 7937, Note_on_c, 2, 63, 104
4, 7974, Note_off_c, 2, 59, 0
4, 8170, Note_on_c, 2, 59, 79
4, 8211, Note_off_c, 2, 54, 0
4, 8392, Note_on_c, 2, 54, 95
4, 8568, Note_off_c, 2, 47, 0
4, 8641, Note_on_c, 2, 40, 122
4, 8677, Note_off_c, 2, 59, 0
4, 8681, Note_off_c, 2, 63, 0
4, 8685, Note_off_c, 2, 54, 0
4, 8859, Note_on_c, 2, 52, 113
4, 9119, Note_on_c, 2, 55, 108
4, 9359, Note_on_c, 2, 59, 104
4, 9397, Note_off_c, 2, 55, 0
4, 9601, Note_on_c, 2, 55, 108
4, 9679, Note_off_c, 2, 52, 0
4, 9833, Note_on_c, 2, 52, 104
4, 9956, Note_off_c, 2, 40, 0
4, 10081, Note_on_c, 2, 40, 117
4, 10211, Note_off_c, 2, 52, 0
4, 10323, Note_on_c, 2, 52, 101
4, 10355, Note_off_c, 2, 55, 0
4, 10564, Note_on_c, 2, 55, 108
4, 10620, Note_off_c, 2, 59, 0
4, 10803, Note_on_c, 2, 59, 117
4, 10852, Note_off_c, 2, 55, 0
4, 11044, Note_on_c, 2, 55, 104
4, 11111, Note_off_c, 2, 52, 0
4, 11280, Note_on_c, 2, 52, 101
4, 11446, Note_off_c, 2, 40, 0
4, 11474, Note_off_c, 2, 55, 0
4, 11522, Note_on_c, 2, 45, 108
4, 11546, Note_off_c, 2, 59, 0
4, 11675, Note_off_c, 2, 52, 0
4, 11776, Note_on_c, 2, 52, 101
4, 12015, Note_on_c, 2, 57, 104
4, 12258, Note_on_c, 2, 61, 91
4, 12343, Note_off_c, 2, 57, 0
4, 12500, Note_on_c, 2, 57, 94
4, 12589, Note_off_c, 2, 52, 0
4, 12733, Note_on_c, 2, 52, 97
4, 12846, Note_off_c, 2, 45, 0
4, 12967, Note_on_c, 2, 45, 108
4, 13073, Note_off_c, 2, 52, 0
4, 13203, Note_on_c, 2, 52, 97
4, 13223, Note_off_c, 2, 57, 0
4, 13452, Note_on_c, 2, 57, 108
4, 13487, Note_off_c, 2, 61, 0
4, 13699, Note_on_c, 2, 61, 100
4, 13787, Note_off_c, 2, 57, 0
4, 13937, Note_on_c, 2, 57, 101
4, 14023, Note_off_c, 2, 52, 0
4, 14171, Note_on_c, 2, 52, 104
4, 14367, Note_off_c, 2, 45, 0
4, 14394, Note_off_c, 2, 52, 0
4, 14410, Note_on_c, 2, 47, 104
4, 14477, Note_off_c, 2, 61, 0
4, 14484, Note_off_c, 2, 57, 0
4, 14641, Note_on_c, 2, 54, 100
4, 14883, Note_on_c, 2, 59, 101
4, 15116, Note_on_c, 2, 63, 91
4, 15155, Note_off_c, 2, 59, 0
4, 15352, Note_on_c, 2, 59, 81
4, 15405, Note_off_c, 2, 54, 0
4, 15602, Note_on_c, 2, 54, 100
4, 15751, Note_off_c, 2, 47, 0
4, 15853, Note_on_c, 2, 47, 104
4, 15971, Note_off_c, 2, 54, 0
4, 16089, Note_on_c, 2, 54, 83
4, 16127, Note_off_c, 2, 59, 0
4, 16326, Note_on_c, 2, 59, 79
4, 16380, Note_off_c, 2, 63, 0
4, 16564, Note_on_c, 2, 63, 95
4, 16608, Note_off_c, 2, 59, 0
4, 16798, Note_on_c, 2, 59, 79
4, 16823, Note_off_c, 2, 54, 0
4, 17034, Note_on_c, 2, 54, 87
4, 17183, Note_off_c, 2, 59, 0
4, 17186, Note_off_c, 2, 63, 0
4, 17198, Note_off_c, 2, 47, 0
4, 17217, Note_off_c, 2, 54, 0
4, 17280, Note_on_c, 2, 47, 113
4, 17504, Note_on_c, 2, 54, 100
4, 17763, Note_on_c, 2, 59, 94
4, 18007, Note_on_c, 2, 63, 95
4, 18051, Note_off_c, 2, 59, 0
4, 18248, Note_on_c, 2, 59, 97
4, 18343, Note_off_c, 2, 54, 0
4, 18485, Note_on_c, 2, 54, 95
4, 18661, Note_off_c, 2, 47, 0
4, 18743, Note_on_c, 2, 47, 108
4, 18889, Note_off_c, 2, 54, 0
4, 18972, Note_on_c, 2, 54, 83
4, 19002, Note_off_c, 2, 59, 0
4, 19216, Note_on_c, 2, 59, 88
4, 19245, Note_off_c, 2, 63, 0
4, 19457, Note_on_c, 2, 63, 104
4, 19494, Note_off_c, 2, 59, 0
4, 19690, Note_on_c, 2, 59, 79
4, 19731, Note_off_c, 2, 54, 0
4, 19912, Note_on_c, 2, 54, 95
4, 20088, Note_off_c, 2, 47, 0
4, 20161, Note_on_c, 2, 40, 122
4, 20197, Note_off_c, 2, 59, 0
4, 20201, Note_off_c, 2, 63, 0
4, 20205, Note_off_c, 2, 54, 0
4, 20379, Note_on_c, 2, 52, 113
4, 20639, Note_on_c, 2, 55, 108
4, 20879, Note_on_c, 2, 59, 104
4, 20917, Note_off_c, 2, 55, 0
4, 21121, Note_on_c, 2, 55, 108
4, 21199, Note_off_c, 2, 52, 0
4, 21353, Note_on_c, 2, 52, 104
4, 21476, Note_off_c, 2, 40, 0
4, 21601, Note_on_c, 2, 40, 117
4, 21731, Note_off_c, 2, 52, 0
4, 21843, Note_on_c, 2, 52, 101
4, 21875, Note_off_c, 2, 55, 0
4, 22084, Note_on_c, 2, 55, 108
4, 22140, Note_off_c, 2, 59, 0
4, 22323, Note_on_c, 2, 59, 117
4, 22372, Note_off_c, 2, 55, 0
4, 22564, Note_on_c, 2, 55, 104
4, 22631, Note_off_c, 2, 52, 0
4, 22800, Note_on_c, 2, 52, 101
4, 22966, Note_off_c, 2, 40, 0
4, 22994, Note_off_c, 2, 55, 0
4, 23042, Note_on_c, 2, 45, 108
4, 23066, Note_off_c, 2, 59, 0
4, 23195, Note_off_c, 2, 52, 0
4, 23296, Note_on_c, 2, 52, 101
4, 23535, Note_on_c, 2, 57, 104
4, 23778, Note_on_c, 2, 61, 91
4, 23863, Note_off_c, 2, 57, 0
4, 24020, Note_on_c, 2, 57, 94
4, 24109, Note_off_c, 2, 52, 0
4, 24253, Note_on_c, 2, 52, 97
4, 24366, Note_off_c, 2, 45, 0
4, 24487, Note_on_c, 2, 45, 108
4, 24593, Note_off_c, 2, 52, 0
4, 24723, Note_on_c, 2, 52, 97
4, 24743, Note_off_c, 2, 57, 0
4, 24972, Note_on_c, 2, 57, 108
4, 25007, Note_off_c, 2, 61, 0
4, 25219, Note_on_c, 2, 61, 100
4, 25307, Note_off_c, 2, 57, 0
4, 25457, Note_on_c, 2, 57, 101
4, 25543, Note_off_c, 2, 52, 0
4, 25691, Note_on_c, 2, 52, 104
4, 25887, Note_off_c, 2, 45, 0
4, 25914, Note_off_c, 2, 52, 0
4, 25930, Note_on_c, 2, 47, 104
4, 25997, Note_off_c, 2, 61, 0
4, 26004, Note_off_c, 2, 57, 0
4, 26161, Note_on_c, 2, 54, 100
4, 26403, Note_on_c, 2, 59, 101
4, 26636, Note_on_c, 2, 63, 91
4, 26675, Note_off_c, 2, 59, 0
4, 26872, Note_on_c, 2, 59, 81
4, 26925, Note_off_c, 2, 54, 0
4, 27122, Note_on_c, 2, 54, 100
4, 27271, Note_off_c, 2, 47, 0
4, 27373, Note_on_c, 2, 47, 104
4, 27491, Note_off_c, 2, 54, 0
4, 27609, Note_on_c, 2, 54, 83
4, 27647, Note_off_c, 2, 59, 0
4, 27846, Note_on_c, 2, 59, 79
4, 27900, Note_off_c, 2, 63, 0
4, 28084, Note_on_c, 2, 63, 95
4, 28128, Note_off_c, 2, 59, 0
4, 28318, Note_on_c, 2, 59, 79
4, 28343, Note_off_c, 2, 54, 0
4, 28554, Note_on_c, 2, 54, 87
4, 28703, Note_off_c, 2, 59, 0
4, 28706, Note_off_c, 2, 63, 0
4, 28718, Note_off_c, 2, 47, 0
4, 28737, Note_off_c, 2, 54, 0
4, 28800, Note_on_c, 2, 47, 113
4, 29024, Note_on_c, 2, 54, 100
4, 29283, Note_on_c, 2, 59, 94
4, 29484, Note_on_c, 2, 63, 83
4, 29489, Note_on_c, 2, 61, 83
4, 29494, Note_on_c, 2, 54, 80
4, 29499, Note_on_c, 2, 59, 104
4, 29527, Note_on_c, 2, 63, 95
4, 29571, Note_off_c, 2, 59, 0
4, 29768, Note_on_c, 2, 59, 97
4, 29863, Note_off_c, 2, 54, 0
4, 29919, Note_off_c, 2, 63, 0
4, 29929, Note_off_c, 2, 61, 0
4, 29934, Note_off_c, 2, 59, 0
4, 29944, Note_off_c, 2, 54, 0
4, 30005, Note_on_c, 2, 54, 95
4, 30015, Note_on_c, 2, 54, 80
4, 30015, Note_on_c, 2, 63, 76
4, 30025, Note_on_c, 2, 61, 68
4, 30030, Note_on_c, 2, 59, 101
4, 30181, Note_off_c, 2, 47, 0
4, 30202, Note_off_c, 2, 59, 0
4, 30206, Note_off_c, 2, 63, 0
4, 30206, Note_off_c, 2, 61, 0
4, 30232, Note_off_c, 2, 54, 0
4, 30263, Note_on_c, 2, 47, 108
4, 30409, Note_off_c, 2, 54, 0
4, 30492, Note_on_c, 2, 54, 83
4, 30522, Note_off_c, 2, 59, 0
4, 30736, Note_on_c, 2, 59, 88
4, 30765, Note_off_c, 2, 63, 0
4, 30975, Note_on_c, 2, 54, 80
4, 30975, Note_on_c, 2, 63, 83
4, 30977, Note_on_c, 2, 63, 104
4, 30980, Note_on_c, 2, 59, 104
4, 30991, Note_on_c, 2, 61, 76
4, 31014, Note_off_c, 2, 59, 0
4, 31210, Note_on_c, 2, 59, 79
4, 31251, Note_off_c, 2, 54, 0
4, 31365, Note_off_c, 2, 59, 0
4, 31370, Note_off_c, 2, 63, 0
4, 31374, Note_off_c, 2, 61, 0
4, 31380, Note_off_c, 2, 54, 0
4, 31432, Note_on_c, 2, 54, 95
4, 31456, Note_on_c, 2, 63, 76
4, 31461, Note_on_c, 2, 54, 80
4, 31465, Note_on_c, 2, 61, 71
4, 31471, Note_on_c, 2, 59, 101
4, 31608, Note_off_c, 2, 47, 0
4, 31622, Note_off_c, 2, 59, 0
4, 31638, Note_off_c, 2, 61, 0
4, 31681, Note_on_c, 2, 40, 122
4, 31684, Note_off_c, 2, 63, 0
4, 31688, Note_off_c, 2, 54, 0
4, 31717, Note_off_c, 2, 59, 0
4, 31721, Note_off_c, 2, 63, 0
4, 31725, Note_off_c, 2, 54, 0
4, 31899, Note_on_c, 2, 52, 113
4, 32159, Note_on_c, 2, 55, 108
4, 32385, Note_on_c, 2, 62, 86
4, 32396, Note_on_c, 2, 55, 79
4, 32396, Note_on_c, 2, 64, 81
4, 32399, Note_on_c, 2, 59, 104
4, 32401, Note_on_c, 2, 59, 86
4, 32437, Note_off_c, 2, 55, 0
4, 32641, Note_on_c, 2, 55, 108
4, 32719, Note_off_c, 2, 52, 0
4, 32795, Note_off_c, 2, 64, 0
4, 32810, Note_off_c, 2, 55, 0
4, 32816, Note_off_c, 2, 62, 0
4, 32816, Note_off_c, 2, 59, 0
4, 32873, Note_on_c, 2, 52, 104
4, 32901, Note_on_c, 2, 62, 91
4, 32907, Note_on_c, 2, 59, 86
4, 32907, Note_on_c, 2, 64, 86
4, 32911, Note_on_c, 2, 55, 86
4, 32996, Note_off_c, 2, 40, 0
4, 33104, Note_off_c, 2, 62, 0
4, 33119, Note_off_c, 2, 64, 0
4, 33121, Note_on_c, 2, 40, 117
4, 33124, Note_off_c, 2, 59, 0
4, 33139, Note_off_c, 2, 55, 0
4, 33251, Note_off_c, 2, 52, 0
4, 33363, Note_on_c, 2, 52, 101
4, 33395, Note_off_c, 2, 55, 0
4, 33604, Note_on_c, 2, 55, 108
4, 33660, Note_off_c, 2, 59, 0
4, 33826, Note_on_c, 2, 62, 91
4, 33837, Note_on_c, 2, 55, 81
4, 33837, Note_on_c, 2, 59, 94
4, 33837, Note_on_c, 2, 64, 83
4, 33843, Note_on_c, 2, 59, 117
4, 33892, Note_off_c, 2, 55, 0
4, 34084, Note_on_c, 2, 55, 104
4, 34151, Note_off_c, 2, 52, 0
4, 34241, Note_off_c, 2, 64, 0
4, 34245, Note_off_c, 2, 62, 0
4, 34251, Note_off_c, 2, 55, 0
4, 34256, Note_off_c, 2, 59, 0
4, 34320, Note_on_c, 2, 52, 101
4, 34342, Note_on_c, 2, 64, 86
4, 34352, Note_on_c, 2, 55, 79
4, 34352, Note_on_c, 2, 59, 91
4, 34357, Note_on_c, 2, 62, 83
4, 34486, Note_off_c, 2, 40, 0
4, 34514, Note_off_c, 2, 55, 0
4, 34534, Note_off_c, 2, 59, 0
4, 34549, Note_off_c, 2, 62, 0
4, 34555, Note_off_c, 2, 64, 0
4, 34560, Note_off_c, 2, 55, 0
4, 34562, Note_on_c, 2, 45, 108
4, 34586, Note_off_c, 2, 59, 0
4, 34715, Note_off_c, 2, 52, 0
4, 34816, Note_on_c, 2, 52, 101
4, 35055, Note_on_c, 2, 57, 104
4, 35277, Note_on_c, 2, 61, 83
4, 35282, Note_on_c, 2, 55, 81
4, 35282, Note_on_c, 2, 57, 91
4, 35287, Note_on_c, 2, 64, 91
4, 35298, Note_on_c, 2, 61, 91
4, 35383, Note_off_c, 2, 57, 0
4, 35540, Note_on_c, 2, 57, 94
4, 35629, Note_off_c, 2, 52, 0
4, 35702, Note_off_c, 2, 64, 0
4, 35722, Note_off_c, 2, 61, 0
4, 35722, Note_off_c, 2, 55, 0
4, 35722, Note_off_c, 2, 57, 0
4, 35773, Note_on_c, 2, 52, 97
4, 35802, Note_on_c, 2, 61, 71
4, 35808, Note_on_c, 2, 57, 81
4, 35808, Note_on_c, 2, 64, 88
4, 35814, Note_on_c, 2, 55, 79
4, 35886, Note_off_c, 2, 45, 0
4, 35975, Note_off_c, 2, 64, 0
4, 35984, Note_off_c, 2, 61, 0
4, 35990, Note_off_c, 2, 57, 0
4, 36001, Note_off_c, 2, 55, 0
4, 36007, Note_on_c, 2, 45, 108
4, 36113, Note_off_c, 2, 52, 0
4, 36243, Note_on_c, 2, 52, 97
4, 36263, Note_off_c, 2, 57, 0
4, 36492, Note_on_c, 2, 57, 108
4, 36527, Note_off_c, 2, 61, 0
4, 36723, Note_on_c, 2, 61, 83
4, 36728, Note_on_c, 2, 57, 91
4, 36733, Note_on_c, 2, 55, 83
4, 36733, Note_on_c, 2, 64, 88
4, 36739, Note_on_c, 2, 61, 100
4, 36827, Note_off_c, 2, 57, 0
4, 36977, Note_on_c, 2, 57, 101
4, 37063, Note_off_c, 2, 52, 0
4, 37123, Note_off_c, 2, 64, 0
4, 37128, Note_off_c, 2, 61, 0
4, 37136, Note_off_c, 2, 55, 0
4, 37143, Note_off_c, 2, 57, 0
4, 37211, Note_on_c, 2, 52, 104
4, 37213, Note_on_c, 2, 61, 71
4, 37218, Note_on_c, 2, 64, 91
4, 37223, Note_on_c, 2, 57, 88
4, 37229, Note_on_c, 2, 55, 79
4, 37390, Note_off_c, 2, 57, 0
4, 37406, Note_off_c, 2, 64, 0
4, 37407, Note_off_c, 2, 45, 0
4, 37411, Note_off_c, 2, 55, 0
4, 37415, Note_off_c, 2, 61, 0
4, 37434, Note_off_c, 2, 52, 0
4, 37450, Note_on_c, 2, 47, 104
4, 37517, Note_off_c, 2, 61, 0
4, 37524, Note_off_c, 2, 57, 0
4, 37681, Note_on_c, 2, 54, 100
4, 37923, Note_on_c, 2, 59, 101
4, 38098, Note_on_c, 2, 63, 73
4, 38108, Note_on_c, 2, 54, 61
4, 38108, Note_on_c, 2, 61, 68
4, 38113, Note_on_c, 2, 59, 91
4, 38156, Note_on_c, 2, 63, 91
4, 38195, Note_off_c, 2, 59, 0
4, 38392, Note_on_c, 2, 59, 81
4, 38445, Note_off_c, 2, 54, 0
4, 38588, Note_off_c, 2, 63, 0
4, 38588, Note_off_c, 2, 59, 0
4, 38594, Note_off_c, 2, 54, 0
4, 38594, Note_off_c, 2, 61, 0
4, 38642, Note_on_c, 2, 54, 100
4, 38664, Note_on_c, 2, 63, 76
4, 38675, Note_on_c, 2, 54, 76
4, 38675, Note_on_c, 2, 61, 71
4, 38685, Note_on_c, 2, 59, 97
4, 38791, Note_off_c, 2, 47, 0
4, 38862, Note_off_c, 2, 61, 0
4, 38867, Note_off_c, 2, 59, 0
4, 38872, Note_off_c, 2, 63, 0
4, 38887, Note_off_c, 2, 54, 0
4, 38893, Note_on_c, 2, 47, 104
4, 39011, Note_off_c, 2, 54, 0
4, 39129, Note_on_c, 2, 54, 83
4, 39167, Note_off_c, 2, 59, 0
4, 39366, Note_on_c, 2, 59, 79
4, 39420, Note_off_c, 2, 63, 0
4, 39559, Note_on_c, 2, 63, 73
4, 39564, Note_on_c, 2, 54, 68
4, 39573, Note_on_c, 2, 61, 68
4, 39579, Note_on_c, 2, 59, 94
4, 39604, Note_on_c, 2, 63, 95
4, 39648, Note_off_c, 2, 59, 0
4, 39838, Note_on_c, 2, 59, 79
4, 39863, Note_off_c, 2, 54, 0
4, 40019, Note_off_c, 2, 63, 0
4, 40019, Note_off_c, 2, 54, 0
4, 40035, Note_off_c, 2, 59, 0
4, 40040, Note_off_c, 2, 61, 0
4, 40074, Note_on_c, 2, 54, 87
4, 40095, Note_on_c, 2, 61, 61
4, 40100, Note_on_c, 2, 54, 76
4, 40100, Note_on_c, 2, 63, 83
4, 40105, Note_on_c, 2, 59, 97
4, 40223, Note_off_c, 2, 59, 0
4, 40226, Note_off_c, 2, 63, 0
4, 40238, Note_off_c, 2, 47, 0
4, 40257, Note_off_c, 2, 54, 0
4, 40257, Note_off_c, 2, 63, 0
4, 40261, Note_off_c, 2, 59, 0
4, 40272, Note_off_c, 2, 61, 0
4, 40272, Note_off_c, 2, 54, 0
4, 40320, Note_on_c, 2, 47, 113
4, 40544, Note_on_c, 2, 54, 100
4, 40803, Note_on_c, 2, 59, 94
4, 41025, Note_on_c, 2, 63, 80
4, 41035, Note_on_c, 2, 54, 73
4, 41041, Note_on_c, 2, 59, 101
4, 41041, Note_on_c, 2, 61, 76
4, 41047, Note_on_c, 2, 63, 95
4, 41091, Note_off_c, 2, 59, 0
4, 41288, Note_on_c, 2, 59, 97
4, 41383, Note_off_c, 2, 54, 0
4, 41470, Note_off_c, 2, 63, 0
4, 41474, Note_off_c, 2, 59, 0
4, 41480, Note_off_c, 2, 54, 0
4, 41486, Note_off_c, 2, 61, 0
4, 41525, Note_on_c, 2, 54, 95
4, 41541, Note_on_c, 2, 63, 76
4, 41550, Note_on_c, 2, 54, 76
4, 41556, Note_on_c, 2, 59, 101
4, 41556, Note_on_c, 2, 61, 71
4, 41701, Note_off_c, 2, 47, 0
4, 41703, Note_off_c, 2, 59, 0
4, 41703, Note_off_c, 2, 61, 0
4, 41712, Note_off_c, 2, 63, 0
4, 41723, Note_off_c, 2, 54, 0
4, 41783, Note_on_c, 2, 47, 108
4, 41929, Note_off_c, 2, 54, 0
4, 42012, Note_on_c, 2, 54, 83
4, 42042, Note_off_c, 2, 59, 0
4, 42256, Note_on_c, 2, 59, 88
4, 42285, Note_off_c, 2, 63, 0
4, 42466, Note_on_c, 2, 63, 80
4, 42471, Note_on_c, 2, 54, 73
4, 42475, Note_on_c, 2, 61, 73
4, 42486, Note_on_c, 2, 59, 94
4, 42497, Note_on_c, 2, 63, 104
4, 42534, Note_off_c, 2, 59, 0
4, 42730, Note_on_c, 2, 59, 79
4, 42771, Note_off_c, 2, 54, 0
4, 42850, Note_off_c, 2, 63, 0
4, 42865, Note_off_c, 2, 54, 0
4, 42869, Note_off_c, 2, 61, 0
4, 42876, Note_off_c, 2, 59, 0
4, 42941, Note_on_c, 2, 63, 80
4, 42951, Note_on_c, 2, 61, 71
4, 42952, Note_on_c, 2, 54, 95
4, 42956, Note_on_c, 2, 54, 76
4, 42966, Note_on_c, 2, 59, 97
4, 43128, Note_off_c, 2, 47, 0
4, 43142, Note_off_c, 2, 59, 0
4, 43159, Note_off_c, 2, 61, 0
4, 43179, Note_off_c, 2, 54, 0
4, 43194, Note_off_c, 2, 63, 0
4, 43201, Note_on_c, 2, 40, 122
4, 43237, Note_off_c, 2, 59, 0
4, 43241, Note_off_c, 2, 63, 0
4, 43245, Note_off_c, 2, 54, 0
4, 43419, Note_on_c, 2, 52, 113
4, 43679, Note_on_c, 2, 55, 108
4, 43912, Note_on_c, 2, 62, 104
4, 43917, Note_on_c, 2, 59, 104
4, 43919, Note_on_c, 2, 59, 104
4, 43922, Note_on_c, 2, 64, 101
4, 43926, Note_on_c, 2, 55, 77
4, 43937, Note_on_c, 2, 57, 79
4, 43957, Note_off_c, 2, 55, 0
4, 44161, Note_on_c, 2, 55, 108
4, 44239, Note_off_c, 2, 52, 0
4, 44321, Note_off_c, 2, 62, 0
4, 44332, Note_off_c, 2, 64, 0
4, 44332, Note_off_c, 2, 57, 0
4, 44335, Note_off_c, 2, 59, 0
4, 44341, Note_off_c, 2, 55, 0
4, 44393, Note_on_c, 2, 52, 104
4, 44417, Note_on_c, 2, 64, 91
4, 44433, Note_on_c, 2, 55, 83
4, 44433, Note_on_c, 2, 59, 83
4, 44437, Note_on_c, 2, 62, 83
4, 44443, Note_on_c, 2, 57, 83
4, 44516, Note_off_c, 2, 40, 0
4, 44629, Note_off_c, 2, 57, 0
4, 44635, Note_off_c, 2, 55, 0
4, 44635, Note_off_c, 2, 62, 0
4, 44640, Note_off_c, 2, 64, 0
4, 44641, Note_on_c, 2, 40, 117
4, 44660, Note_off_c, 2, 59, 0
4, 44771, Note_off_c, 2, 52, 0
4, 44883, Note_on_c, 2, 52, 101
4, 44915, Note_off_c, 2, 55, 0
4, 45124, Note_on_c, 2, 55, 108
4, 45180, Note_off_c, 2, 59, 0
4, 45363, Note_on_c, 2, 59, 117
4, 45383, Note_on_c, 2, 64, 86
4, 45388, Note_on_c, 2, 59, 91
4, 45392, Note_on_c, 2, 62, 81
4, 45403, Note_on_c, 2, 55, 70
4, 45403, Note_on_c, 2, 57, 70
4, 45412, Note_off_c, 2, 55, 0
4, 45604, Note_on_c, 2, 55, 104
4, 45671, Note_off_c, 2, 52, 0
4, 45777, Note_off_c, 2, 64, 0
4, 45777, Note_off_c, 2, 57, 0
4, 45786, Note_off_c, 2, 62, 0
4, 45793, Note_off_c, 2, 59, 0
4, 45793, Note_off_c, 2, 55, 0
4, 45840, Note_on_c, 2, 52, 101
4, 45878, Note_on_c, 2, 59, 88
4, 45878, Note_on_c, 2, 64, 91
4, 45884, Note_on_c, 2, 55, 79
4, 45888, Note_on_c, 2, 62, 81
4, 45892, Note_on_c, 2, 57, 77
4, 46006, Note_off_c, 2, 40, 0
4, 46034, Note_off_c, 2, 55, 0
4, 46070, Note_off_c, 2, 55, 0
4, 46070, Note_off_c, 2, 57, 0
4, 46082, Note_on_c, 2, 45, 108
4, 46086, Note_off_c, 2, 64, 0
4, 46086, Note_off_c, 2, 62, 0
4, 46090, Note_off_c, 2, 59, 0
4, 46106, Note_off_c, 2, 59, 0
4, 46235, Note_off_c, 2, 52, 0
4, 46336, Note_on_c, 2, 52, 101
4, 46575, Note_on_c, 2, 57, 104
4, 46818, Note_on_c, 2, 61, 91
4, 46819, Note_on_c, 2, 61, 80
4, 46824, Note_on_c, 2, 64, 94
4, 46828, Note_on_c, 2, 55, 79
4, 46828, Note_on_c, 2, 57, 86
4, 46903, Note_off_c, 2, 57, 0
4, 47060, Note_on_c, 2, 57, 94
4, 47149, Note_off_c, 2, 52, 0
4, 47198, Note_off_c, 2, 64, 0
4, 47203, Note_off_c, 2, 61, 0
4, 47213, Note_off_c, 2, 55, 0
4, 47218, Note_off_c, 2, 57, 0
4, 47293, Note_on_c, 2, 52, 97
4, 47294, Note_on_c, 2, 61, 65
4, 47298, Note_on_c, 2, 55, 77
4, 47298, Note_on_c, 2, 64, 83
4, 47309, Note_on_c, 2, 57, 83
4, 47406, Note_off_c, 2, 45, 0
4, 47486, Note_off_c, 2, 57, 0
4, 47495, Note_off_c, 2, 61, 0
4, 47495, Note_off_c, 2, 55, 0
4, 47506, Note_off_c, 2, 64, 0
4, 47527, Note_on_c, 2, 45, 108
4, 47633, Note_off_c, 2, 52, 0
4, 47763, Note_on_c, 2, 52, 97
4, 47783, Note_off_c, 2, 57, 0
4, 48012, Note_on_c, 2, 57, 108
4, 48047, Note_off_c, 2, 61, 0
4, 48238, Note_on_c, 2, 61, 83
4, 48249, Note_on_c, 2, 57, 88
4, 48249, Note_on_c, 2, 64, 91
4, 48254, Note_on_c, 2, 55, 79
4, 48259, Note_on_c, 2, 61, 100
4, 48347, Note_off_c, 2, 57, 0
4, 48497, Note_on_c, 2, 57, 101
4, 48583, Note_off_c, 2, 52, 0
4, 48623, Note_off_c, 2, 61, 0
4, 48628, Note_off_c, 2, 64, 0
4, 48634, Note_off_c, 2, 57, 0
4, 48634, Note_off_c, 2, 55, 0
4, 48724, Note_on_c, 2, 61, 76
4, 48729, Note_on_c, 2, 64, 94
4, 48731, Note_on_c, 2, 52, 104
4, 48733, Note_on_c, 2, 57, 86
4, 48739, Note_on_c, 2, 55, 77
4, 48901, Note_off_c, 2, 57, 0
4, 48912, Note_off_c, 2, 64, 0
4, 48921, Note_off_c, 2, 55, 0
4, 48927, Note_off_c, 2, 45, 0
4, 48942, Note_off_c, 2, 61, 0
4, 48954, Note_off_c, 2, 52, 0
4, 48970, Note_on_c, 2, 47, 104
4, 49037, Note_off_c, 2, 61, 0
4, 49044, Note_off_c, 2, 57, 0
4, 49201, Note_on_c, 2, 54, 100
4, 49443, Note_on_c, 2, 59, 101
4, 49659, Note_on_c, 2, 63, 80
4, 49674, Note_on_c, 2, 61, 76
4, 49676, Note_on_c, 2, 63, 91
4, 49679, Note_on_c, 2, 54, 65
4, 49679, Note_on_c, 2, 59, 97
4, 49715, Note_off_c, 2, 59, 0
4, 49912, Note_on_c, 2, 59, 81
4, 49965, Note_off_c, 2, 54, 0
4, 50083, Note_off_c, 2, 63, 0
4, 50089, Note_off_c, 2, 59, 0
4, 50095, Note_off_c, 2, 54, 0
4, 50100, Note_off_c, 2, 61, 0
4, 50162, Note_on_c, 2, 54, 100
4, 50175, Note_on_c, 2, 61, 65
4, 50180, Note_on_c, 2, 63, 83
4, 50184, Note_on_c, 2, 54, 80
4, 50189, Note_on_c, 2, 59, 101
4, 50311, Note_off_c, 2, 47, 0
4, 50366, Note_off_c, 2, 63, 0
4, 50377, Note_off_c, 2, 59, 0
4, 50383, Note_off_c, 2, 61, 0
4, 50397, Note_off_c, 2, 54, 0
4, 50413, Note_on_c, 2, 47, 104
4, 50531, Note_off_c, 2, 54, 0
4, 50649, Note_on_c, 2, 54, 83
4, 50687, Note_off_c, 2, 59, 0
4, 50886, Note_on_c, 2, 59, 79
4, 50940, Note_off_c, 2, 63, 0
4, 51124, Note_on_c, 2, 63, 95
4, 51126, Note_on_c, 2, 63, 80
4, 51130, Note_on_c, 2, 54, 73
4, 51136, Note_on_c, 2, 61, 73
4, 51141, Note_on_c, 2, 59, 97
4, 51168, Note_off_c, 2, 59, 0
4, 51358, Note_on_c, 2, 59, 79
4, 51383, Note_off_c, 2, 54, 0
4, 51490, Note_off_c, 2, 63, 0
4, 51494, Note_off_c, 2, 59, 0
4, 51499, Note_off_c, 2, 54, 0
4, 51505, Note_off_c, 2, 61, 0
4, 51576, Note_on_c, 2, 63, 80
4, 51581, Note_on_c, 2, 61, 71
4, 51585, Note_on_c, 2, 54, 80
4, 51585, Note_on_c, 2, 59, 104
4, 51594, Note_on_c, 2, 54, 87
4, 51736, Note_off_c, 2, 59, 0
4, 51736, Note_off_c, 2, 54, 0
4, 51741, Note_off_c, 2, 61, 0
4, 51743, Note_off_c, 2, 59, 0
4, 51746, Note_off_c, 2, 63, 0
4, 51758, Note_off_c, 2, 47, 0
4, 51761, Note_off_c, 2, 63, 0
4, 51777, Note_off_c, 2, 54, 0
4, 51840, Note_on_c, 2, 47, 113
4, 52064, Note_on_c, 2, 54, 100
4, 52323, Note_on_c, 2, 59, 94
4, 52524, Note_on_c, 2, 63, 83
4, 52529, Note_on_c, 2, 61, 83
4, 52534, Note_on_c, 2, 54, 80
4, 52539, Note_on_c, 2, 59, 104
4, 52567, Note_on_c, 2, 63, 95
4, 52611, Note_off_c, 2, 59, 0
4, 52808, Note_on_c, 2, 59, 97
4, 52903, Note_off_c, 2, 54, 0
4, 52959, Note_off_c, 2, 63, 0
4, 52969, Note_off_c, 2, 61, 0
4, 52974, Note_off_c, 2, 59, 0
4, 52984, Note_off_c, 2, 54, 0
4, 53045, Note_on_c, 2, 54, 95
4, 53055, Note_on_c, 2, 54, 80
4, 53055, Note_on_c, 2, 63, 76
4, 53065, Note_on_c, 2, 61, 68
4, 53070, Note_on_c, 2, 59, 101
4, 53221, Note_off_c, 2, 47, 0
4, 53242, Note_off_c, 2, 59, 0
4, 53246, Note_off_c, 2, 63, 0
4, 53246, Note_off_c, 2, 61, 0
4, 53272, Note_off_c, 2, 54, 0
4, 53303, Note_on_c, 2, 47, 108
4, 53449, Note_off_c, 2, 54, 0
4, 53532, Note_on_c, 2, 54, 83
4, 53562, Note_off_c, 2, 59, 0
4, 53776, Note_on_c, 2, 59, 88
4, 53805, Note_off_c, 2, 63, 0
4, 54015, Note_on_c, 2, 54, 80
4, 54015, Note_on_c, 2, 63, 83
4, 54017, Note_on_c, 2, 63, 104
4, 54020, Note_on_c, 2, 59, 104
4, 54031, Note_on_c, 2, 61, 76
4, 54054, Note_off_c, 2, 59, 0
4, 54250, Note_on_c, 2, 59, 79
4, 54291, Note_off_c, 2, 54, 0
4, 54405, Note_off_c, 2, 59, 0
4, 54410, Note_off_c, 2, 63, 0
4, 54414, Note_off_c, 2, 61, 0
4, 54420, Note_off_c, 2, 54, 0
4, 54472, Note_on_c, 2, 54, 95
4, 54496, Note_on_c, 2, 63, 76
4, 54501, Note_on_c, 2, 54, 80
4, 54505, Note_on_c, 2, 61, 71
4, 54511, Note_on_c, 2, 59, 101
4, 54648, Note_off_c, 2, 47, 0
4, 54662, Note_off_c, 2, 59, 0
4, 54678, Note_off_c, 2, 61, 0
4, 54721, Note_on_c, 2, 40, 122
4, 54724, Note_off_c, 2, 63, 0
4, 54728, Note_off_c, 2, 54, 0
4, 54757, Note_off_c, 2, 59, 0
4, 54761, Note_off_c, 2, 63, 0
4, 54765, Note_off_c, 2, 54, 0
4, 54939, Note_on_c, 2, 52, 113
4, 55199, Note_on_c, 2, 55, 108
4, 55425, Note_on_c, 2, 62, 86
4, 55436, Note_on_c, 2, 55, 79
4, 55436, Note_on_c, 2, 64, 81
4, 55439, Note_on_c, 2, 59, 104
4, 55441, Note_on_c, 2, 59, 86
4, 55477, Note_off_c, 2, 55, 0
4, 55681, Note_on_c, 2, 55, 108
4, 55759, Note_off_c, 2, 52, 0
4, 55835, Note_off_c, 2, 64, 0
4, 55850, Note_off_c, 2, 55, 0
4, 55856, Note_off_c, 2, 62, 0
4, 55856, Note_off_c, 2, 59, 0
4, 55913, Note_on_c, 2, 52, 104
4, 55941, Note_on_c, 2, 62, 91
4, 55947, Note_on_c, 2, 59, 86
4, 55947, Note_on_c, 2, 64, 86
4, 55951, Note_on_c, 2, 55, 86
4, 56036, Note_off_c, 2, 40, 0
4, 56144, Note_off_c, 2, 62, 0
4, 56159, Note_off_c, 2, 64, 0
4, 56161, Note_on_c, 2, 40, 117
4, 56164, Note_off_c, 2, 59, 0
4, 56179, Note_off_c, 2, 55, 0
4, 56291, Note_off_c, 2, 52, 0
4, 56403, Note_on_c, 2, 52, 101
4, 56435, Note_off_c, 2, 55, 0
4, 56644, Note_on_c, 2, 55, 108
4, 56700, Note_off_c, 2, 59, 0
4, 56866, Note_on_c, 2, 62, 91
4, 56877, Note_on_c, 2, 55, 81
4, 56877, Note_on_c, 2, 59, 94
4, 56877, Note_on_c, 2, 64, 83
4, 56883, Note_on_c, 2, 59, 117
4, 56932, Note_off_c, 2, 55, 0
4, 57124, Note_on_c, 2, 55, 104
4, 57191, Note_off_c, 2, 52, 0
4, 57281, Note_off_c, 2, 64, 0
4, 57285, Note_off_c, 2, 62, 0
4, 57291, Note_off_c, 2, 55, 0
4, 57296, Note_off_c, 2, 59, 0
4, 57360, Note_on_c, 2, 52, 101
4, 57382, Note_on_c, 2, 64, 86
4, 57392, Note_on_c, 2, 55, 79
4, 57392, Note_on_c, 2, 59, 91
4, 57397, Note_on_c, 2, 62, 83
4, 57526, Note_off_c, 2, 40, 0
4, 57554, Note_off_c, 2, 55, 0
4, 57574, Note_off_c, 2, 59, 0
4, 57589, Note_off_c, 2, 62, 0
4, 57595, Note_off_c, 2, 64, 0
4, 57600, Note_off_c, 2, 55, 0
4, 57602, Note_on_c, 2, 45, 108
4, 57626, Note_off_c, 2, 59, 0
4, 57755, Note_off_c, 2, 52, 0
4, 57856, Note_on_c, 2, 52, 101
4, 58095, Note_on_c, 2, 57, 104
4, 58317, Note_on_c, 2, 61, 83
4, 58322, Note_on_c, 2, 55, 81
4, 58322, Note_on_c, 2, 57, 91
4, 58327, Note_on_c, 2, 64, 91
4, 58338, Note_on_c, 2, 61, 91
4, 58423, Note_off_c, 2, 57, 0
4, 58580, Note_on_c, 2, 57, 94
4, 58669, Note_off_c, 2, 52, 0
4, 58742, Note_off_c, 2, 64, 0
4, 58762, Note_off_c, 2, 61, 0
4, 58762, Note_off_c, 2, 55, 0
4, 58762, Note_off_c, 2, 57, 0
4, 58813, Note_on_c, 2, 52, 97
4, 58842, Note_on_c, 2, 61, 71
4, 58848, Note_on_c, 2, 57, 81
4, 58848, Note_on_c, 2, 64, 88
4, 58854, Note_on_c, 2, 55, 79
4, 58926, Note_off_c, 2, 45, 0
4, 59015, Note_off_c, 2, 64, 0
4, 59024, Note_off_c, 2, 61, 0
4, 59030, Note_off_c, 2, 57, 0
4, 59041, Note_off_c, 2, 55, 0
4, 59047, Note_on_c, 2, 45, 108
4, 59153, Note_off_c, 2, 52, 0
4, 59283, Note_on_c, 2, 52, 97
4, 59303, Note_off_c, 2, 57, 0
4, 59532, Note_on_c, 2, 57, 108
4, 59567, Note_off_c, 2, 61, 0
4, 59763, Note_on_c, 2, 61, 83
4, 59768, Note_on_c, 2, 57, 91
4, 59773, Note_on_c, 2, 55, 83
4, 59773, Note_on_c, 2, 64, 88
4, 59779, Note_on_c, 2, 61, 100
4, 59867, Note_off_c, 2, 57, 0
4, 60017, Note_on_c, 2, 57, 101
4, 60103, Note_off_c, 2, 52, 0
4, 60163, Note_off_c, 2, 64, 0
4, 60168, Note_off_c, 2, 61, 0
4, 60176, Note_off_c, 2, 55, 0
4, 60183, Note_off_c, 2, 57, 0
4, 60251, Note_on_c, 2, 52, 104
4, 60253, Note_on_c, 2, 61, 71
4, 60258, Note_on_c, 2, 64, 91
4, 60263, Note_on_c, 2, 57, 88
4, 60269, Note_on_c, 2, 55, 79
4, 60430, Note_off_c, 2, 57, 0
4, 60446, Note_off_c, 2, 64, 0
4, 60447, Note_off_c, 2, 45, 0
4, 60451, Note_off_c, 2, 55, 0
4, 60455, Note_off_c, 2, 61, 0
4, 60474, Note_off_c, 2, 52, 0
4, 60490, Note_on_c, 2, 47, 104
4, 60557, Note_off_c, 2, 61, 0
4, 60564, Note_off_c, 2, 57, 0
4, 60721, Note_on_c, 2, 54, 100
4, 60963, Note_on_c, 2, 59, 101
4, 61138, Note_on_c, 2, 63, 73
4, 61148, Note_on_c, 2, 54, 61
4, 61148, Note_on_c, 2, 61, 68
4, 61153, Note_on_c, 2, 59, 91
4, 61196, Note_on_c, 2, 63, 91
4, 61235, Note_off_c, 2, 59, 0
4, 61432, Note_on_c, 2, 59, 81
4, 61485, Note_off_c, 2, 54, 0
4, 61628, Note_off_c, 2, 63, 0
4, 61628, Note_off_c, 2, 59, 0
4, 61634, Note_off_c, 2, 54, 0
4, 61634, Note_off_c, 2, 61, 0
4, 61682, Note_on_c, 2, 54, 100
4, 61704, Note_on_c, 2, 63, 76
4, 61715, Note_on_c, 2, 54, 76
4, 61715, Note_on_c, 2, 61, 71
4, 61725, Note_on_c, 2, 59, 97
4, 61831, Note_off_c, 2, 47, 0
4, 61902, Note_off_c, 2, 61, 0
4, 61907, Note_off_c, 2, 59, 0
4, 61912, Note_off_c, 2, 63, 0
4, 61927, Note_off_c, 2, 54, 0
4, 61933, Note_on_c, 2, 47, 104
4, 62051, Note_off_c, 2, 54, 0
4, 62169, Note_on_c, 2, 54, 83
4, 62207, Note_off_c, 2, 59, 0
4, 62406, Note_on_c, 2, 59, 79
4, 62460, Note_off_c, 2, 63, 0
4, 62599, Note_on_c, 2, 63, 73
4, 62604, Note_on_c, 2, 54, 68
4, 62613, Note_on_c, 2, 61, 68
4, 62619, Note_on_c, 2, 59, 94
4, 62644, Note_on_c, 2, 63, 95
4, 62688, Note_off_c, 2, 59, 0
4, 62878, Note_on_c, 2, 59, 79
4, 62903, Note_off_c, 2, 54, 0
4, 63059, Note_off_c, 2, 63, 0
4, 63059, Note_off_c, 2, 54, 0
4, 63075, Note_off_c, 2, 59, 0
4, 63080, Note_off_c, 2, 61, 0
4, 63114, Note_on_c, 2, 54, 87
4, 63135, Note_on_c, 2, 61, 61
4, 63140, Note_on_c, 2, 54, 76
4, 63140, Note_on_c, 2, 63, 83
4, 63145, Note_on_c, 2, 59, 97
4, 63263, Note_off_c, 2, 59, 0
4, 63266, Note_off_c, 2, 63, 0
4, 63278, Note_off_c, 2, 47, 0
4, 63297, Note_off_c, 2, 54, 0
4, 63297, Note_off_c, 2, 63, 0
4, 63301, Note_off_c, 2, 59, 0
4, 63312, Note_off_c, 2, 61, 0
4, 63312, Note_off_c, 2, 54, 0
4, 63360, Note_on_c, 2, 47, 113
4, 63584, Note_on_c, 2, 54, 100
4, 63843, Note_on_c, 2, 59, 94
4, 64065, Note_on_c, 2, 63, 80
4, 64075, Note_on_c, 2, 54, 73
4, 64081, Note_on_c, 2, 59, 101
4, 64081, Note_on_c, 2, 61, 76
4, 64087, Note_on_c, 2, 63, 95
4, 64131, Note_off_c, 2, 59, 0
4, 64328, Note_on_c, 2, 59, 97
4, 64423, Note_off_c, 2, 54, 0
4, 64510, Note_off_c, 2, 63, 0
4, 64514, Note_off_c, 2, 59, 0
4, 64520, Note_off_c, 2, 54, 0
4, 64526, Note_off_c, 2, 61, 0
4, 64565, Note_on_c, 2, 54, 95
4, 64581, Note_on_c, 2, 63, 76
4, 64590, Note_on_c, 2, 54, 76
4, 64596, Note_on_c, 2, 59, 101
4, 64596, Note_on_c, 2, 61, 71
4, 64741, Note_off_c, 2, 47, 0
4, 64743, Note_off_c, 2, 59, 0
4, 64743, Note_off_c, 2, 61, 0
4, 64752, Note_off_c, 2, 63, 0
4, 64763, Note_off_c, 2, 54, 0
4, 64823, Note_on_c, 2, 47, 108
4, 64969, Note_off_c, 2, 54, 0
4, 65052, Note_on_c, 2, 54, 83
4, 65082, Note_off_c, 2, 59, 0
4, 65296, Note_on_c, 2, 59, 88
4, 65325, Note_off_c, 2, 63, 0
4, 65506, Note_on_c, 2, 63, 80
4, 65511, Note_on_c, 2, 54, 73
4, 65515, Note_on_c, 2, 61, 73
4, 65526, Note_on_c, 2, 59, 94
4, 65537, Note_on_c, 2, 63, 104
4, 65574, Note_off_c, 2, 59, 0
4, 65770, Note_on_c, 2, 59, 79
4, 65811, Note_off_c, 2, 54, 0
4, 65890, Note_off_c, 2, 63, 0
4, 65905, Note_off_c, 2, 54, 0
4, 65909, Note_off_c, 2, 61, 0
4, 65916, Note_off_c, 2, 59, 0
4, 65981, Note_on_c, 2, 63, 80
4, 65991, Note_on_c, 2, 61, 71
4, 65992, Note_on_c, 2, 54, 95
4, 65996, Note_on_c, 2, 54, 76
4, 66006, Note_on_c, 2, 59, 97
4, 66168, Note_off_c, 2, 47, 0
4, 66182, Note_off_c, 2, 59, 0
4, 66199, Note_off_c, 2, 61, 0
4, 66219, Note_off_c, 2, 54, 0
4, 66234, Note_off_c, 2, 63, 0
4, 66241, Note_on_c, 2, 40, 122
4, 66277, Note_off_c, 2, 59, 0
4, 66281, Note_off_c, 2, 63, 0
4, 66285, Note_off_c, 2, 54, 0
4, 66459, Note_on_c, 2, 52, 113
4, 66719, Note_on_c, 2, 55, 108
4, 66952, Note_on_c, 2, 62, 104
4, 66957, Note_on_c, 2, 59, 104
4, 66959, Note_on_c, 2, 59, 104
4, 66962, Note_on_c, 2, 64, 101
4, 66966, Note_on_c, 2, 55, 77
4, 66977, Note_on_c, 2, 57, 79
4, 66997, Note_off_c, 2, 55, 0
4, 67201, Note_on_c, 2, 55, 108
4, 67279, Note_off_c, 2, 52, 0
4, 67361, Note_off_c, 2, 62, 0
4, 67372, Note_off_c, 2, 64, 0
4, 67372, Note_off_c, 2, 57, 0
4, 67375, Note_off_c, 2, 59, 0
4, 67381, Note_off_c, 2, 55, 0
4, 67433, Note_on_c, 2, 52, 104
4, 67457, Note_on_c, 2, 64, 91
4, 67473, Note_on_c, 2, 55, 83
4, 67473, Note_on_c, 2, 59, 83
4, 67477, Note_on_c, 2, 62, 83
4, 67483, Note_on_c, 2, 57, 83
4, 67556, Note_off_c, 2, 40, 0
4, 67669, Note_off_c, 2, 57, 0
4, 67675, Note_off_c, 2, 55, 0
4, 67675, Note_off_c, 2, 62, 0
4, 67680, Note_off_c, 2, 64, 0
4, 67681, Note_on_c, 2, 40, 117
4, 67700, Note_off_c, 2, 59, 0
4, 67811, Note_off_c, 2, 52, 0
4, 67923, Note_on_c, 2, 52, 101
4, 67955, Note_off_c, 2, 55, 0
4, 68164, Note_on_c, 2, 55, 108
4, 68220, Note_off_c, 2, 59, 0
4, 68403, Note_on_c, 2, 59, 117
4, 68423, Note_on_c, 2, 64, 86
4, 68428, Note_on_c, 2, 59, 91
4, 68432, Note_on_c, 2, 62, 81
4, 68443, Note_on_c, 2, 55, 70
4, 68443, Note_on_c, 2, 57, 70
4, 68452, Note_off_c, 2, 55, 0
4, 68644, Note_on_c, 2, 55, 104
4, 68711, Note_off_c, 2, 52, 0
4, 68817, Note_off_c, 2, 64, 0
4, 68817, Note_off_c, 2, 57, 0
4, 68826, Note_off_c, 2, 62, 0
4, 68833, Note_off_c, 2, 59, 0
4, 68833, Note_off_c, 2, 55, 0
4, 68880, Note_on_c, 2, 52, 101
4, 68918, Note_on_c, 2, 59, 88
4, 68918, Note_on_c, 2, 64, 91
4, 68924, Note_on_c, 2, 55, 79
4, 68928, Note_on_c, 2, 62, 81
4, 68932, Note_on_c, 2, 57, 77
4, 69046, Note_off_c, 2, 40, 0
4, 69074, Note_off_c, 2, 55, 0
4, 69110, Note_off_c, 2, 55, 0
4, 69110, Note_off_c, 2, 57, 0
4, 69122, Note_on_c, 2, 45, 108
4, 69126, Note_off_c, 2, 64, 0
4, 69126, Note_off_c, 2, 62, 0
4, 69130, Note_off_c, 2, 59, 0
4, 69146, Note_off_c, 2, 59, 0
4, 69275, Note_off_c, 2, 52, 0
4, 69376, Note_on_c, 2, 52, 101
4, 69615, Note_on_c, 2, 57, 104
4, 69858, Note_on_c, 2, 61, 91
4, 69859, Note_on_c, 2, 61, 80
4, 69864, Note_on_c, 2, 64, 94
4, 69868, Note_on_c, 2, 55, 79
4, 69868, Note_on_c, 2, 57, 86
4, 69943, Note_off_c, 2, 57, 0
4, 70100, Note_on_c, 2, 57, 94
4, 70189, Note_off_c, 2, 52, 0
4, 70238, Note_off_c, 2, 64, 0
4, 70243, Note_off_c, 2, 61, 0
4, 70253, Note_off_c, 2, 55, 0
4, 70258, Note_off_c, 2, 57, 0
4, 70333, Note_on_c, 2, 52, 97
4, 70334, Note_on_c, 2, 61, 65
4, 70338, Note_on_c, 2, 55, 77
4, 70338, Note_on_c, 2, 64, 83
4, 70349, Note_on_c, 2, 57, 83
4, 70446, Note_off_c, 2, 45, 0
4, 70526, Note_off_c, 2, 57, 0
4, 70535, Note_off_c, 2, 61, 0
4, 70535, Note_off_c, 2, 55, 0
4, 70546, Note_off_c, 2, 64, 0
4, 70567, Note_on_c, 2, 45, 108
4, 70673, Note_off_c, 2, 52, 0
4, 70803, Note_on_c, 2, 52, 97
4, 70823, Note_off_c, 2, 57, 0
4, 71052, Note_on_c, 2, 57, 108
4, 71087, Note_off_c, 2, 61, 0
4, 71278, Note_on_c, 2, 61, 83
4, 71289, Note_on_c, 2, 57, 88
4, 71289, Note_on_c, 2, 64, 91
4, 71294, Note_on_c, 2, 55, 79
4, 71299, Note_on_c, 2, 61, 100
4, 71387, Note_off_c, 2, 57, 0
4, 71537, Note_on_c, 2, 57, 101
4, 71623, Note_off_c, 2, 52, 0
4, 71663, Note_off_c, 2, 61, 0
4, 71668, Note_off_c, 2, 64, 0
4, 71674, Note_off_c, 2, 57, 0
4, 71674, Note_off_c, 2, 55, 0
4, 71764, Note_on_c, 2, 61, 76
4, 71769, Note_on_c, 2, 64, 94
4, 71771, Note_on_c, 2, 52, 104
4, 71773, Note_on_c, 2, 57, 86
4, 71779, Note_on_c, 2, 55, 77
4, 71941, Note_off_c, 2, 57, 0
4, 71952, Note_off_c, 2, 64, 0
4, 71961, Note_off_c, 2, 55, 0
4, 71967, Note_off_c, 2, 45, 0
4, 71982, Note_off_c, 2, 61, 0
4, 71994, Note_off_c, 2, 52, 0
4, 72010, Note_on_c, 2, 47, 104
4, 72077, Note_off_c, 2, 61, 0
4, 72084, Note_off_c, 2, 57, 0
4, 72241, Note_on_c, 2, 54, 100
4, 72483, Note_on_c, 2, 59, 101
4, 72699, Note_on_c, 2, 63, 80
4, 72714, Note_on_c, 2, 61, 76
4, 72716, Note_on_c, 2, 63, 91
4, 72719, Note_on_c, 2, 54, 65
4, 72719, Note_on_c, 2, 59, 97
4, 72755, Note_off_c, 2, 59, 0
4, 72952, Note_on_c, 2, 59, 81
4, 73005, Note_off_c, 2, 54, 0
4, 73123, Note_off_c, 2, 63, 0
4, 73129, Note_off_c, 2, 59, 0
4, 73135, Note_off_c, 2, 54, 0
4, 73140, Note_off_c, 2, 61, 0
4, 73202, Note_on_c, 2, 54, 100
4, 73215, Note_on_c, 2, 61, 65
4, 73220, Note_on_c, 2, 63, 83
4, 73224, Note_on_c, 2, 54, 80
4, 73229, Note_on_c, 2, 59, 101
4, 73351, Note_off_c, 2, 47, 0
4, 73406, Note_off_c, 2, 63, 0
4, 73417, Note_off_c, 2, 59, 0
4, 73423, Note_off_c, 2, 61, 0
4, 73437, Note_off_c, 2, 54, 0
4, 73453, Note_on_c, 2, 47, 104
4, 73571, Note_off_c, 2, 54, 0
4, 73689, Note_on_c, 2, 54, 83
4, 73727, Note_off_c, 2, 59, 0
4, 73926, Note_on_c, 2, 59, 79
4, 73980, Note_off_c, 2, 63, 0
4, 74164, Note_on_c, 2, 63, 95
4, 74166, Note_on_c, 2, 63, 80
4, 74170, Note_on_c, 2, 54, 73
4, 74176, Note_on_c, 2, 61, 73
4, 74181, Note_on_c, 2, 59, 97
4, 74208, Note_off_c, 2, 59, 0
4, 74398, Note_on_c, 2, 59, 79
4, 74423, Note_off_c, 2, 54, 0
4, 74530, Note_off_c, 2, 63, 0
4, 74534, Note_off_c, 2, 59, 0
4, 74539, Note_off_c, 2, 54, 0
4, 74545, Note_off_c, 2, 61, 0
4, 74616, Note_on_c, 2, 63, 80
4, 74621, Note_on_c, 2, 61, 71
4, 74625, Note_on_c, 2, 54, 80
4, 74625, Note_on_c, 2, 59, 104
4, 74634, Note_on_c, 2, 54, 87
4, 74776, Note_off_c, 2, 59, 0
4, 74776, Note_off_c, 2, 54, 0
4, 74781, Note_off_c, 2, 61, 0
4, 74783, Note_off_c, 2, 59, 0
4, 74786, Note_off_c, 2, 63, 0
4, 74798, Note_off_c, 2, 47, 0
4, 74801, Note_off_c, 2, 63, 0
4, 74817, Note_off_c, 2, 54, 0
4, 74898, Note_on_c, 2, 47, 117
4, 75129, Note_on_c, 2, 54, 104
4, 75355, Note_on_c, 2, 59, 94
4, 75604, Note_on_c, 2, 63, 100
4, 75689, Note_off_c, 2, 59, 0
4, 75838, Note_on_c, 2, 59, 101
4, 75866, Note_off_c, 2, 54, 0
4, 76064, Note_on_c, 2, 54, 104
4, 76156, Note_off_c, 2, 47, 0
4, 76308, Note_on_c, 2, 47, 117
4, 76463, Note_off_c, 2, 54, 0
4, 76575, Note_on_c, 2, 54, 104
4, 76576, Note_off_c, 2, 59, 0
4, 76800, Note_on_c, 2, 59, 104
4, 76842, Note_off_c, 2, 63, 0
4, 77052, Note_on_c, 2, 63, 110
4, 77160, Note_off_c, 2, 59, 0
4, 77296, Note_on_c, 2, 59, 104
4, 77358, Note_off_c, 2, 54, 0
4, 77525, Note_on_c, 2, 54, 104
4, 77759, Note_off_c, 2, 47, 0
4, 77769, Note_on_c, 2, 50, 122
4, 77803, Note_off_c, 2, 54, 0
4, 77892, Note_off_c, 2, 59, 0
4, 77947, Note_off_c, 2, 63, 0
4, 78012, Note_on_c, 2, 57, 122
4, 78251, Note_on_c, 2, 61, 104
4, 78474, Note_on_c, 2, 64, 127
4, 78489, Note_off_c, 2, 61, 0
4, 78726, Note_on_c, 2, 61, 100
4, 78805, Note_off_c, 2, 57, 0
4, 78965, Note_on_c, 2, 57, 113
4, 79098, Note_off_c, 2, 50, 0
4, 79206, Note_on_c, 2, 50, 117
4, 79354, Note_off_c, 2, 57, 0
4, 79453, Note_on_c, 2, 57, 113
4, 79474, Note_off_c, 2, 61, 0
4, 79691, Note_on_c, 2, 61, 110
4, 79758, Note_off_c, 2, 64, 0
4, 79928, Note_on_c, 2, 64, 117
4, 79970, Note_off_c, 2, 61, 0
4, 80164, Note_on_c, 2, 61, 104
4, 80190, Note_off_c, 2, 57, 0
4, 80398, Note_on_c, 2, 57, 113
4, 80586, Note_off_c, 2, 50, 0
4, 80629, Note_off_c, 2, 57, 0
4, 80639, Note_on_c, 2, 52, 127
4, 80654, Note_off_c, 2, 64, 0
4, 80796, Note_off_c, 2, 61, 0
4, 80883, Note_on_c, 2, 54, 104
4, 81099, Note_on_c, 2, 59, 104
4, 81361, Note_on_c, 2, 63, 110
4, 81463, Note_off_c, 2, 59, 0
4, 81597, Note_on_c, 2, 59, 101
4, 81656, Note_off_c, 2, 54, 0
4, 81836, Note_on_c, 2, 54, 104
4, 82014, Note_off_c, 2, 52, 0
4, 82102, Note_on_c, 2, 52, 108
4, 82244, Note_off_c, 2, 54, 0
4, 82341, Note_on_c, 2, 54, 100
4, 82374, Note_off_c, 2, 59, 0
4, 82567, Note_on_c, 2, 59, 113
4, 82619, Note_off_c, 2, 63, 0
4, 82816, Note_on_c, 2, 63, 110
4, 82881, Note_off_c, 2, 59, 0
4, 83050, Note_on_c, 2, 59, 97
4, 83118, Note_off_c, 2, 54, 0
4, 83291, Note_on_c, 2, 54, 104
4, 83471, Note_off_c, 2, 52, 0
4, 83548, Note_on_c, 2, 49, 110
4, 83578, Note_off_c, 2, 54, 0
4, 83717, Note_off_c, 2, 59, 0
4, 83736, Note_off_c, 2, 63, 0
4, 83786, Note_on_c, 2, 56, 100
4, 84018, Note_on_c, 2, 61, 91
4, 84251, Note_on_c, 2, 64, 108
4, 84276, Note_off_c, 2, 61, 0
4, 84500, Note_on_c, 2, 61, 76
4, 84581, Note_off_c, 2, 56, 0
4, 84739, Note_on_c, 2, 56, 104
4, 84912, Note_off_c, 2, 49, 0
4, 84984, Note_on_c, 2, 49, 95
4, 85104, Note_off_c, 2, 56, 0
4, 85224, Note_on_c, 2, 56, 100
4, 85243, Note_off_c, 2, 61, 0
4, 85460, Note_on_c, 2, 61, 100
4, 85526, Note_off_c, 2, 64, 0
4, 85701, Note_on_c, 2, 64, 117
4, 85739, Note_off_c, 2, 61, 0
4, 85941, Note_on_c, 2, 61, 100
4, 85967, Note_off_c, 2, 56, 0
4, 86162, Note_on_c, 2, 56, 104
4, 86262, Note_off_c, 2, 49, 0
4, 86408, Note_on_c, 2, 47, 127
4, 86455, Note_off_c, 2, 64, 0
4, 86455, Note_off_c, 2, 56, 0
4, 86462, Note_off_c, 2, 61, 0
4, 86654, Note_on_c, 2, 54, 110
4, 86875, Note_on_c, 2, 59, 101
4, 87137, Note_on_c, 2, 63, 110
4, 87225, Note_off_c, 2, 59, 0
4, 87381, Note_on_c, 2, 59, 91
4, 87438, Note_off_c, 2, 54, 0
4, 87609, Note_on_c, 2, 54, 104
4, 87778, Note_off_c, 2, 47, 0
4, 87869, Note_on_c, 2, 47, 108
4, 87959, Note_off_c, 2, 54, 0
4, 88074, Note_off_c, 2, 59, 0
4, 88092, Note_on_c, 2, 54, 104
4, 88324, Note_on_c, 2, 59, 104
4, 88351, Note_off_c, 2, 63, 0
4, 88575, Note_on_c, 2, 63, 110
4, 88662, Note_off_c, 2, 59, 0
4, 88814, Note_on_c, 2, 59, 94
4, 88881, Note_off_c, 2, 54, 0
4, 89048, Note_on_c, 2, 54, 104
4, 89249, Note_off_c, 2, 47, 0
4, 89299, Note_on_c, 2, 50, 122
4, 89301, Note_off_c, 2, 54, 0
4, 89364, Note_off_c, 2, 59, 0
4, 89369, Note_off_c, 2, 63, 0
4, 89525, Note_on_c, 2, 57, 127
4, 89764, Note_on_c, 2, 61, 104
4, 89998, Note_on_c, 2, 64, 127
4, 90022, Note_off_c, 2, 61, 0
4, 90242, Note_on_c, 2, 61, 104
4, 90324, Note_off_c, 2, 57, 0
4, 90478, Note_on_c, 2, 57, 117
4, 90633, Note_off_c, 2, 50, 0
4, 90739, Note_on_c, 2, 50, 113
4, 90882, Note_off_c, 2, 57, 0
4, 90978, Note_on_c, 2, 57, 108
4, 91000, Note_off_c, 2, 61, 0
4, 91217, Note_on_c, 2, 61, 104
4, 91282, Note_off_c, 2, 64, 0
4, 91461, Note_on_c, 2, 64, 127
4, 91500, Note_off_c, 2, 61, 0
4, 91689, Note_on_c, 2, 61, 104
4, 91696, Note_off_c, 2, 57, 0
4, 91920, Note_on_c, 2, 57, 113
4, 92119, Note_off_c, 2, 50, 0
4, 92144, Note_off_c, 2, 57, 0
4, 92165, Note_on_c, 2, 52, 122
4, 92168, Note_off_c, 2, 64, 0
4, 92316, Note_off_c, 2, 61, 0
4, 92405, Note_on_c, 2, 54, 110
4, 92629, Note_on_c, 2, 59, 101
4, 92885, Note_on_c, 2, 63, 110
4, 93008, Note_off_c, 2, 59, 0
4, 93132, Note_on_c, 2, 59, 101
4, 93190, Note_off_c, 2, 54, 0
4, 93361, Note_on_c, 2, 54, 104
4, 93529, Note_off_c, 2, 52, 0
4, 93609, Note_on_c, 2, 52, 101
4, 93719, Note_off_c, 2, 54, 0
4, 93849, Note_on_c, 2, 54, 100
4, 93855, Note_off_c, 2, 59, 0
4, 94080, Note_on_c, 2, 59, 94
4, 94135, Note_off_c, 2, 63, 0
4, 94331, Note_on_c, 2, 63, 110
4, 94409, Note_off_c, 2, 59, 0
4, 94573, Note_on_c, 2, 59, 91
4, 94617, Note_off_c, 2, 54, 0
4, 94804, Note_on_c, 2, 54, 104
4, 94960, Note_off_c, 2, 52, 0
4, 95063, Note_on_c, 2, 52, 113
4, 95193, Note_off_c, 2, 54, 0
4, 95304, Note_on_c, 2, 54, 95
4, 95347, Note_off_c, 2, 59, 0
4, 95533, Note_on_c, 2, 59, 94
4, 95596, Note_off_c, 2, 63, 0
4, 95777, Note_on_c, 2, 63, 110
4, 95846, Note_off_c, 2, 59, 0
4, 96018, Note_on_c, 2, 59, 83
4, 96073, Note_off_c, 2, 54, 0
4, 96254, Note_on_c, 2, 54, 104
4, 96403, Note_off_c, 2, 52, 0
4, 96508, Note_on_c, 2, 52, 108
4, 96608, Note_off_c, 2, 54, 0
4, 96737, Note_on_c, 2, 54, 100
4, 96762, Note_off_c, 2, 59, 0
4, 96971, Note_on_c, 2, 59, 91
4, 97030, Note_off_c, 2, 63, 0
4, 97215, Note_on_c, 2, 63, 110
4, 97269, Note_off_c, 2, 59, 0
4, 97458, Note_on_c, 2, 59, 91
4, 97491, Note_off_c, 2, 54, 0
4, 97682, Note_on_c, 2, 54, 100
4, 97797, Note_off_c, 2, 52, 0
4, 97807, Note_off_c, 2, 59, 0
4, 97822, Note_off_c, 2, 63, 0
4, 97835, Note_off_c, 2, 54, 0
4, 97929, Note_on_c, 2, 47, 122
4, 98157, Note_on_c, 2, 54, 100
4, 98391, Note_on_c, 2, 59, 88
4, 98638, Note_on_c, 2, 63, 127
4, 98705, Note_off_c, 2, 59, 0
4, 98881, Note_on_c, 2, 59, 91
4, 99001, Note_off_c, 2, 54, 0
4, 99123, Note_on_c, 2, 54, 95
4, 99272, Note_off_c, 2, 47, 0
4, 99376, Note_on_c, 2, 47, 117
4, 99502, Note_off_c, 2, 54, 0
4, 99613, Note_on_c, 2, 54, 95
4, 99680, Note_off_c, 2, 59, 0
4, 99847, Note_on_c, 2, 59, 101
4, 99891, Note_off_c, 2, 63, 0
4, 100091, Note_on_c, 2, 63, 127
4, 100145, Note_off_c, 2, 59, 0
4, 100327, Note_on_c, 2, 59, 97
4, 100382, Note_off_c, 2, 54, 0
4, 100558, Note_on_c, 2, 54, 100
4, 100772, Note_off_c, 2, 47, 0
4, 100807, Note_on_c, 2, 52, 117
4, 100821, Note_off_c, 2, 54, 0
4, 100876, Note_off_c, 2, 59, 0
4, 100884, Note_off_c, 2, 63, 0
4, 101033, Note_on_c, 2, 55, 117
4, 101272, Note_on_c, 2, 59, 108
4, 101510, Note_on_c, 2, 62, 127
4, 101550, Note_off_c, 2, 59, 0
4, 101760, Note_on_c, 2, 59, 101
4, 101867, Note_off_c, 2, 55, 0
4, 102001, Note_on_c, 2, 55, 108
4, 102172, Note_off_c, 2, 52, 0
4, 102257, Note_on_c, 2, 52, 113
4, 102395, Note_off_c, 2, 55, 0
4, 102494, Note_on_c, 2, 55, 108
4, 102543, Note_off_c, 2, 59, 0
4, 102730, Note_on_c, 2, 59, 113
4, 102789, Note_off_c, 2, 62, 0
4, 102964, Note_on_c, 2, 62, 122
4, 102987, Note_off_c, 2, 59, 0
4, 103202, Note_on_c, 2, 59, 108
4, 103282, Note_off_c, 2, 55, 0
4, 103431, Note_on_c, 2, 55, 113
4, 103582, Note_off_c, 2, 52, 0
4, 103682, Note_on_c, 2, 45, 127
4, 103689, Note_off_c, 2, 55, 0
4, 103825, Note_off_c, 2, 59, 0
4, 103868, Note_off_c, 2, 62, 0
4, 103921, Note_on_c, 2, 52, 122
4, 104155, Note_on_c, 2, 57, 117
4, 104409, Note_on_c, 2, 61, 104
4, 104543, Note_off_c, 2, 57, 0
4, 104650, Note_on_c, 2, 57, 104
4, 104750, Note_off_c, 2, 52, 0
4, 104879, Note_on_c, 2, 52, 104
4, 105003, Note_off_c, 2, 45, 0
4, 105126, Note_on_c, 2, 45, 117
4, 105263, Note_off_c, 2, 52, 0
4, 105374, Note_on_c, 2, 52, 104
4, 105424, Note_off_c, 2, 57, 0
4, 105613, Note_on_c, 2, 57, 113
4, 105693, Note_off_c, 2, 61, 0
4, 105859, Note_on_c, 2, 61, 110
4, 105982, Note_off_c, 2, 57, 0
4, 106096, Note_on_c, 2, 57, 101
4, 106184, Note_off_c, 2, 52, 0
4, 106335, Note_on_c, 2, 52, 117
4, 106510, Note_off_c, 2, 45, 0
4, 106551, Note_off_c, 2, 52, 0
4, 106576, Note_on_c, 2, 47, 113
4, 106631, Note_off_c, 2, 57, 0
4, 106664, Note_off_c, 2, 61, 0
4, 106807, Note_on_c, 2, 54, 104
4, 107036, Note_on_c, 2, 59, 88
4, 107279, Note_on_c, 2, 63, 127
4, 107334, Note_off_c, 2, 59, 0
4, 107524, Note_on_c, 2, 59, 94
4, 107625, Note_off_c, 2, 54, 0
4, 107773, Note_on_c, 2, 54, 104
4, 107947, Note_off_c, 2, 47, 0
4, 108029, Note_on_c, 2, 47, 108
4, 108137, Note_off_c, 2, 54, 0
4, 108255, Note_on_c, 2, 54, 95
4, 108287, Note_off_c, 2, 59, 0
4, 108488, Note_on_c, 2, 59, 108
4, 108528, Note_off_c, 2, 63, 0
4, 108725, Note_on_c, 2, 63, 110
4, 108772, Note_off_c, 2, 59, 0
4, 108967, Note_on_c, 2, 59, 101
4, 109024, Note_off_c, 2, 54, 0
4, 109200, Note_on_c, 2, 54, 104
4, 109308, Note_off_c, 2, 47, 0
4, 109439, Note_on_c, 2, 47, 113
4, 109514, Note_off_c, 2, 54, 0
4, 109678, Note_off_c, 2, 59, 0
4, 109681, Note_on_c, 2, 54, 87
4, 109917, Note_on_c, 2, 59, 97
4, 109932, Note_off_c, 2, 63, 0
4, 110161, Note_on_c, 2, 63, 110
4, 110220, Note_off_c, 2, 59, 0
4, 110402, Note_on_c, 2, 59, 97
4, 110479, Note_off_c, 2, 54, 0
4, 110643, Note_on_c, 2, 54, 104
4, 110803, Note_off_c, 2, 47, 0
4, 110892, Note_on_c, 2, 47, 108
4, 110998, Note_off_c, 2, 54, 0
4, 111123, Note_on_c, 2, 54, 95
4, 111186, Note_off_c, 2, 59, 0
4, 111367, Note_on_c, 2, 59, 104
4, 111414, Note_off_c, 2, 63, 0
4, 111616, Note_on_c, 2, 63, 110
4, 111680, Note_off_c, 2, 59, 0
4, 111855, Note_on_c, 2, 59, 104
4, 111932, Note_off_c, 2, 54, 0
4, 112089, Note_on_c, 2, 54, 104
4, 112298, Note_off_c, 2, 47, 0
4, 112330, Note_on_c, 2, 52, 122
4, 112345, Note_off_c, 2, 54, 0
4, 112430, Note_off_c, 2, 63, 0
4, 112435, Note_off_c, 2, 59, 0
4, 112556, Note_on_c, 2, 55, 127
4, 112800, Note_on_c, 2, 59, 117
4, 113029, Note_on_c, 2, 62, 127
4, 113063, Note_off_c, 2, 59, 0
4, 113280, Note_on_c, 2, 59, 104
4, 113391, Note_off_c, 2, 55, 0
4, 113516, Note_on_c, 2, 55, 108
4, 113624, Note_off_c, 2, 52, 0
4, 113767, Note_on_c, 2, 52, 117
4, 113915, Note_off_c, 2, 55, 0
4, 114016, Note_on_c, 2, 55, 104
4, 114079, Note_off_c, 2, 59, 0
4, 114255, Note_on_c, 2, 59, 108
4, 114328, Note_off_c, 2, 62, 0
4, 114494, Note_on_c, 2, 62, 127
4, 114542, Note_off_c, 2, 59, 0
4, 114728, Note_on_c, 2, 59, 117
4, 114784, Note_off_c, 2, 55, 0
4, 114954, Note_on_c, 2, 55, 113
4, 115112, Note_off_c, 2, 52, 0
4, 115197, Note_off_c, 2, 55, 0
4, 115205, Note_on_c, 2, 45, 127
4, 115339, Note_off_c, 2, 62, 0
4, 115354, Note_off_c, 2, 59, 0
4, 115434, Note_on_c, 2, 52, 122
4, 115665, Note_on_c, 2, 57, 122
4, 115919, Note_on_c, 2, 61, 104
4, 116024, Note_off_c, 2, 57, 0
4, 116161, Note_on_c, 2, 57, 97
4, 116279, Note_off_c, 2, 52, 0
4, 116395, Note_on_c, 2, 52, 97
4, 116494, Note_off_c, 2, 45, 0
4, 116640, Note_on_c, 2, 45, 117
4, 116744, Note_off_c, 2, 52, 0
4, 116867, Note_on_c, 2, 52, 101
4, 116884, Note_off_c, 2, 57, 0
4, 117108, Note_on_c, 2, 57, 113
4, 117179, Note_off_c, 2, 61, 0
4, 117367, Note_on_c, 2, 61, 100
4, 117502, Note_off_c, 2, 57, 0
4, 117606, Note_on_c, 2, 57, 97
4, 117707, Note_off_c, 2, 52, 0
4, 117848, Note_on_c, 2, 52, 108
4, 118020, Note_off_c, 2, 45, 0
4, 118050, Note_off_c, 2, 52, 0
4, 118089, Note_on_c, 2, 47, 113
4, 118147, Note_off_c, 2, 57, 0
4, 118201, Note_off_c, 2, 61, 0
4, 118317, Note_on_c, 2, 54, 100
4, 118549, Note_on_c, 2, 59, 88
4, 118795, Note_on_c, 2, 63, 104
4, 118861, Note_off_c, 2, 59, 0
4, 119042, Note_on_c, 2, 59, 94
4, 119147, Note_off_c, 2, 54, 0
4, 119285, Note_on_c, 2, 54, 95
4, 119432, Note_off_c, 2, 47, 0
4, 119539, Note_on_c, 2, 47, 108
4, 119640, Note_off_c, 2, 54, 0
4, 119763, Note_on_c, 2, 54, 95
4, 119790, Note_off_c, 2, 59, 0
4, 119994, Note_on_c, 2, 59, 101
4, 120033, Note_off_c, 2, 63, 0
4, 120235, Note_on_c, 2, 63, 110
4, 120278, Note_off_c, 2, 59, 0
4, 120474, Note_on_c, 2, 59, 91
4, 120511, Note_off_c, 2, 54, 0
4, 120718, Note_on_c, 2, 54, 104
4, 120788, Note_off_c, 2, 59, 0
4, 120793, Note_off_c, 2, 47, 0
4, 120817, Note_off_c, 2, 63, 0
4, 120835, Note_off_c, 2, 54, 0
4, 120969, Note_on_c, 2, 47, 122
4, 121197, Note_on_c, 2, 54, 100
4, 121431, Note_on_c, 2, 59, 88
4, 121678, Note_on_c, 2, 63, 127
4, 121745, Note_off_c, 2, 59, 0
4, 121921, Note_on_c, 2, 59, 91
4, 122041, Note_off_c, 2, 54, 0
4, 122163, Note_on_c, 2, 54, 95
4, 122312, Note_off_c, 2, 47, 0
4, 122416, Note_on_c, 2, 47, 117
4, 122542, Note_off_c, 2, 54, 0
4, 122653, Note_on_c, 2, 54, 95
4, 122720, Note_off_c, 2, 59, 0
4, 122887, Note_on_c, 2, 59, 101
4, 122931, Note_off_c, 2, 63, 0
4, 123131, Note_on_c, 2, 63, 127
4, 123185, Note_off_c, 2, 59, 0
4, 123367, Note_on_c, 2, 59, 97
4, 123422, Note_off_c, 2, 54, 0
4, 123598, Note_on_c, 2, 54, 100
4, 123812, Note_off_c, 2, 47, 0
4, 123847, Note_on_c, 2, 52, 117
4, 123861, Note_off_c, 2, 54, 0
4, 123916, Note_off_c, 2, 59, 0
4, 123924, Note_off_c, 2, 63, 0
4, 124073, Note_on_c, 2, 55, 117
4, 124312, Note_on_c, 2, 59, 108
4, 124550, Note_on_c, 2, 62, 127
4, 124590, Note_off_c, 2, 59, 0
4, 124800, Note_on_c, 2, 59, 101
4, 124907, Note_off_c, 2, 55, 0
4, 125041, Note_on_c, 2, 55, 108
4, 125212, Note_off_c, 2, 52, 0
4, 125297, Note_on_c, 2, 52, 113
4, 125435, Note_off_c, 2, 55, 0
4, 125534, Note_on_c, 2, 55, 108
4, 125583, Note_off_c, 2, 59, 0
4, 125770, Note_on_c, 2, 59, 113
4, 125829, Note_off_c, 2, 62, 0
4, 126004, Note_on_c, 2, 62, 122
4, 126027, Note_off_c, 2, 59, 0
4, 126242, Note_on_c, 2, 59, 108
4, 126322, Note_off_c, 2, 55, 0
4, 126471, Note_on_c, 2, 55, 113
4, 126622, Note_off_c, 2, 52, 0
4, 126722, Note_on_c, 2, 45, 127
4, 126729, Note_off_c, 2, 55, 0
4, 126865, Note_off_c, 2, 59, 0
4, 126908, Note_off_c, 2, 62, 0
4, 126961, Note_on_c, 2, 52, 122
4, 127195, Note_on_c, 2, 57, 117
4, 127449, Note_on_c, 2, 61, 104
4, 127583, Note_off_c, 2, 57, 0
4, 127690, Note_on_c, 2, 57, 104
4, 127790, Note_off_c, 2, 52, 0
4, 127919, Note_on_c, 2, 52, 104
4, 128043, Note_off_c, 2, 45, 0
4, 128166, Note_on_c, 2, 45, 117
4, 128303, Note_off_c, 2, 52, 0
4, 128414, Note_on_c, 2, 52, 104
4, 128464, Note_off_c, 2, 57, 0
4, 128653, Note_on_c, 2, 57, 113
4, 128733, Note_off_c, 2, 61, 0
4, 128899, Note_on_c, 2, 61, 110
4, 129022, Note_off_c, 2, 57, 0
4, 129136, Note_on_c, 2, 57, 101
4, 129224, Note_off_c, 2, 52, 0
4, 129375, Note_on_c, 2, 52, 117
4, 129550, Note_off_c, 2, 45, 0
4, 129591, Note_off_c, 2, 52, 0
4, 129616, Note_on_c, 2, 47, 113
4, 129671, Note_off_c, 2, 57, 0
4, 129704, Note_off_c, 2, 61, 0
4, 129847, Note_on_c, 2, 54, 104
4, 130076, Note_on_c, 2, 59, 88
4, 130319, Note_on_c, 2, 63, 127
4, 130374, Note_off_c, 2, 59, 0
4, 130564, Note_on_c, 2, 59, 94
4, 130665, Note_off_c, 2, 54, 0
4, 130813, Note_on_c, 2, 54, 104
4, 130987, Note_off_c, 2, 47, 0
4, 131069, Note_on_c, 2, 47, 108
4, 131177, Note_off_c, 2, 54, 0
4, 131295, Note_on_c, 2, 54, 95
4, 131327, Note_off_c, 2, 59, 0
4, 131528, Note_on_c, 2, 59, 108
4, 131568, Note_off_c, 2, 63, 0
4, 131765, Note_on_c, 2, 63, 110
4, 131812, Note_off_c, 2, 59, 0
4, 132007, Note_on_c, 2, 59, 101
4, 132064, Note_off_c, 2, 54, 0
4, 132240, Note_on_c, 2, 54, 104
4, 132348, Note_off_c, 2, 47, 0
4, 132479, Note_on_c, 2, 47, 113
4, 132554, Note_off_c, 2, 54, 0
4, 132718, Note_off_c, 2, 59, 0
4, 132721, Note_on_c, 2, 54, 87
4, 132957, Note_on_c, 2, 59, 97
4, 132972, Note_off_c, 2, 63, 0
4, 133201, Note_on_c, 2, 63, 110
4, 133260, Note_off_c, 2, 59, 0
4, 133442, Note_on_c, 2, 59, 97
4, 133519, Note_off_c, 2, 54, 0
4, 133683, Note_on_c, 2, 54, 104
4, 133843, Note_off_c, 2, 47, 0
4, 133932, Note_on_c, 2, 47, 108
4, 134038, Note_off_c, 2, 54, 0
4, 134163, Note_on_c, 2, 54, 95
4, 134226, Note_off_c, 2, 59, 0
4, 134407, Note_on_c, 2, 59, 104
4, 134454, Note_off_c, 2, 63, 0
4, 134656, Note_on_c, 2, 63, 110
4, 134720, Note_off_c, 2, 59, 0
4, 134895, Note_on_c, 2, 59, 104
4, 134972, Note_off_c, 2, 54, 0
4, 135129, Note_on_c, 2, 54, 104
4, 135338, Note_off_c, 2, 47, 0
4, 135370, Note_on_c, 2, 52, 122
4, 135385, Note_off_c, 2, 54, 0
4, 135470, Note_off_c, 2, 63, 0
4, 135475, Note_off_c, 2, 59, 0
4, 135596, Note_on_c, 2, 55, 127
4, 135840, Note_on_c, 2, 59, 117
4, 136069, Note_on_c, 2, 62, 127
4, 136103, Note_off_c, 2, 59, 0
4, 136320, Note_on_c, 2, 59, 104
4, 136431, Note_off_c, 2, 55, 0
4, 136556, Note_on_c, 2, 55, 108
4, 136664, Note_off_c, 2, 52, 0
4, 136807, Note_on_c, 2, 52, 117
4, 136955, Note_off_c, 2, 55, 0
4, 137056, Note_on_c, 2, 55, 104
4, 137119, Note_off_c, 2, 59, 0
4, 137295, Note_on_c, 2, 59, 108
4, 137368, Note_off_c, 2, 62, 0
4, 137534, Note_on_c, 2, 62, 127
4, 137582, Note_off_c, 2, 59, 0
4, 137768, Note_on_c, 2, 59, 117
4, 137824, Note_off_c, 2, 55, 0
4, 137994, Note_on_c, 2, 55, 113
4, 138152, Note_off_c, 2, 52, 0
4, 138237, Note_off_c, 2, 55, 0
4, 138245, Note_on_c, 2, 45, 127
4, 138379, Note_off_c, 2, 62, 0
4, 138394, Note_off_c, 2, 59, 0
4, 138474, Note_on_c, 2, 52, 122
4, 138705, Note_on_c, 2, 57, 122
4, 138959, Note_on_c, 2, 61, 104
4, 139064, Note_off_c, 2, 57, 0
4, 139201, Note_on_c, 2, 57, 97
4, 139319, Note_off_c, 2, 52, 0
4, 139435, Note_on_c, 2, 52, 97
4, 139534, Note_off_c, 2, 45, 0
4, 139680, Note_on_c, 2, 45, 117
4, 139784, Note_off_c, 2, 52, 0
4, 139907, Note_on_c, 2, 52, 101
4, 139924, Note_off_c, 2, 57, 0
4, 140148, Note_on_c, 2, 57, 113
4, 140219, Note_off_c, 2, 61, 0
4, 140407, Note_on_c, 2, 61, 100
4, 140542, Note_off_c, 2, 57, 0
4, 140646, Note_on_c, 2, 57, 97
4, 140747, Note_off_c, 2, 52, 0
4, 140888, Note_on_c, 2, 52, 108
4, 141060, Note_off_c, 2, 45, 0
4, 141090, Note_off_c, 2, 52, 0
4, 141129, Note_on_c, 2, 47, 113
4, 141187, Note_off_c, 2, 57, 0
4, 141241, Note_off_c, 2, 61, 0
4, 141357, Note_on_c, 2, 54, 100
4, 141589, Note_on_c, 2, 59, 88
4, 141835, Note_on_c, 2, 63, 104
4, 141901, Note_off_c, 2, 59, 0
4, 142082, Note_on_c, 2, 59, 94
4, 142187, Note_off_c, 2, 54, 0
4, 142325, Note_on_c, 2, 54, 95
4, 142472, Note_off_c, 2, 47, 0
4, 142579, Note_on_c, 2, 47, 108
4, 142680, Note_off_c, 2, 54, 0
4, 142803, Note_on_c, 2, 54, 95
4, 142830, Note_off_c, 2, 59, 0
4, 143034, Note_on_c, 2, 59, 101
4, 143073, Note_off_c, 2, 63, 0
4, 143275, Note_on_c, 2, 63, 110
4, 143318, Note_off_c, 2, 59, 0
4, 143514, Note_on_c, 2, 59, 91
4, 143551, Note_off_c, 2, 54, 0
4, 143758, Note_on_c, 2, 54, 104
4, 143828, Note_off_c, 2, 59, 0
4, 143833, Note_off_c, 2, 47, 0
4, 143857, Note_off_c, 2, 63, 0
4, 143875, Note_off_c, 2, 54, 0
4, 172809, Note_on_c, 2, 47, 122
4, 173037, Note_on_c, 2, 54, 100
4, 173271, Note_on_c, 2, 59, 88
4, 173518, Note_on_c, 2, 63, 127
4, 173585, Note_off_c, 2, 59, 0
4, 173761, Note_on_c, 2, 59, 91
4, 173881, Note_off_c, 2, 54, 0
4, 174003, Note_on_c, 2, 54, 95
4, 174152, Note_off_c, 2, 47, 0
4, 174256, Note_on_c, 2, 47, 117
4, 174382, Note_off_c, 2, 54, 0
4, 174493, Note_on_c, 2, 54, 95
4, 174560, Note_off_c, 2, 59, 0
4, 174727, Note_on_c, 2, 59, 101
4, 174771, Note_off_c, 2, 63, 0
4, 174971, Note_on_c, 2, 63, 127
4, 175025, Note_off_c, 2, 59, 0
4, 175207, Note_on_c, 2, 59, 97
4, 175262, Note_off_c, 2, 54, 0
4, 175438, Note_on_c, 2, 54, 100
4, 175652, Note_off_c, 2, 47, 0
4, 175687, Note_on_c, 2, 52, 117
4, 175701, Note_off_c, 2, 54, 0
4, 175756, Note_off_c, 2, 59, 0
4, 175764, Note_off_c, 2, 63, 0
4, 175913, Note_on_c, 2, 55, 117
4, 176152, Note_on_c, 2, 59, 108
4, 176390, Note_on_c, 2, 62, 127
4, 176430, Note_off_c, 2, 59, 0
4, 176640, Note_on_c, 2, 59, 101
4, 176747, Note_off_c, 2, 55, 0
4, 176881, Note_on_c, 2, 55, 108
4, 177052, Note_off_c, 2, 52, 0
4, 177137, Note_on_c, 2, 52, 113
4, 177275, Note_off_c, 2, 55, 0
4, 177374, Note_on_c, 2, 55, 108
4, 177423, Note_off_c, 2, 59, 0
4, 177610, Note_on_c, 2, 59, 113
4, 177669, Note_off_c, 2, 62, 0
4, 177844, Note_on_c, 2, 62, 122
4, 177867, Note_off_c, 2, 59, 0
4, 178082, Note_on_c, 2, 59, 108
4, 178162, Note_off_c, 2, 55, 0
4, 178311, Note_on_c, 2, 55, 113
4, 178462, Note_off_c, 2, 52, 0
4, 178562, Note_on_c, 2, 45, 127
4, 178569, Note_off_c, 2, 55, 0
4, 178705, Note_off_c, 2, 59, 0
4, 178748, Note_off_c, 2, 62, 0
4, 178801, Note_on_c, 2, 52, 122
4, 179035, Note_on_c, 2, 57, 117
4, 179289, Note_on_c, 2, 61, 104
4, 179423, Note_off_c, 2, 57, 0
4, 179530, Note_on_c, 2, 57, 104
4, 179630, Note_off_c, 2, 52, 0
4, 179759, Note_on_c, 2, 52, 104
4, 179883, Note_off_c, 2, 45, 0
4, 180006, Note_on_c, 2, 45, 117
4, 180143, Note_off_c, 2, 52, 0
4, 180254, Note_on_c, 2, 52, 104
4, 180304, Note_off_c, 2, 57, 0
4, 180493, Note_on_c, 2, 57, 113
4, 180573, Note_off_c, 2, 61, 0
4, 180739, Note_on_c, 2, 61, 110
4, 180862, Note_off_c, 2, 57, 0
4, 180976, Note_on_c, 2, 57, 101
4, 181064, Note_off_c, 2, 52, 0
4, 181215, Note_on_c, 2, 52, 117
4, 181390, Note_off_c, 2, 45, 0
4, 181431, Note_off_c, 2, 52, 0
4, 181456, Note_on_c, 2, 47, 113
4, 181511, Note_off_c, 2, 57, 0
4, 181544, Note_off_c, 2, 61, 0
4, 181687, Note_on_c, 2, 54, 104
4, 181916, Note_on_c, 2, 59, 88
4, 182159, Note_on_c, 2, 63, 127
4, 182214, Note_off_c, 2, 59, 0
4, 182404, Note_on_c, 2, 59, 94
4, 182505, Note_off_c, 2, 54, 0
4, 182653, Note_on_c, 2, 54, 104
4, 182827, Note_off_c, 2, 47, 0
4, 182909, Note_on_c, 2, 47, 108
4, 183017, Note_off_c, 2, 54, 0
4, 183135, Note_on_c, 2, 54, 95
4, 183167, Note_off_c, 2, 59, 0
4, 183368, Note_on_c, 2, 59, 108
4, 183408, Note_off_c, 2, 63, 0
4, 183605, Note_on_c, 2, 63, 110
4, 183652, Note_off_c, 2, 59, 0
4, 183847, Note_on_c, 2, 59, 101
4, 183904, Note_off_c, 2, 54, 0
4, 184080, Note_on_c, 2, 54, 104
4, 184188, Note_off_c, 2, 47, 0
4, 184319, Note_on_c, 2, 47, 113
4, 184394, Note_off_c, 2, 54, 0
4, 184558, Note_off_c, 2, 59, 0
4, 184561, Note_on_c, 2, 54, 87
4, 184797, Note_on_c, 2, 59, 97
4, 184812, Note_off_c, 2, 63, 0
4, 185041, Note_on_c, 2, 63, 110
4, 185100, Note_off_c, 2, 59, 0
4, 185282, Note_on_c, 2, 59, 97
4, 185359, Note_off_c, 2, 54, 0
4, 185523, Note_on_c, 2, 54, 104
4, 185683, Note_off_c, 2, 47, 0
4, 185772, Note_on_c, 2, 47, 108
4, 185878, Note_off_c, 2, 54, 0
4, 186003, Note_on_c, 2, 54, 95
4, 186066, Note_off_c, 2, 59, 0
4, 186247, Note_on_c, 2, 59, 104
4, 186294, Note_off_c, 2, 63, 0
4, 186496, Note_on_c, 2, 63, 110
4, 186560, Note_off_c, 2, 59, 0
4, 186735, Note_on_c, 2, 59, 104
4, 186812, Note_off_c, 2, 54, 0
4, 186969, Note_on_c, 2, 54, 104
4, 187178, Note_off_c, 2, 47, 0
4, 187210, Note_on_c, 2, 52, 122
4, 187225, Note_off_c, 2, 54, 0
4, 187310, Note_off_c, 2, 63, 0
4, 187315, Note_off_c, 2, 59, 0
4, 187436, Note_on_c, 2, 55, 127
4, 187680, Note_on_c, 2, 59, 117
4, 187909, Note_on_c, 2, 62, 127
4, 187943, Note_off_c, 2, 59, 0
4, 188160, Note_on_c, 2, 59, 104
4, 188271, Note_off_c, 2, 55, 0
4, 188396, Note_on_c, 2, 55, 108
4, 188504, Note_off_c, 2, 52, 0
4, 188647, Note_on_c, 2, 52, 117
4, 188795, Note_off_c, 2, 55, 0
4, 188896, Note_on_c, 2, 55, 104
4, 188959, Note_off_c, 2, 59, 0
4, 189135, Note_on_c, 2, 59, 108
4, 189208, Note_off_c, 2, 62, 0
4, 189374, Note_on_c, 2, 62, 127
4, 189422, Note_off_c, 2, 59, 0
4, 189608, Note_on_c, 2, 59, 117
4, 189664, Note_off_c, 2, 55, 0
4, 189834, Note_on_c, 2, 55, 113
4, 189992, Note_off_c, 2, 52, 0
4, 190077, Note_off_c, 2, 55, 0
4, 190085, Note_on_c, 2, 45, 127
4, 190219, Note_off_c, 2, 62, 0
4, 190234, Note_off_c, 2, 59, 0
4, 190314, Note_on_c, 2, 52, 122
4, 190545, Note_on_c, 2, 57, 122
4, 190799, Note_on_c, 2, 61, 104
4, 190904, Note_off_c, 2, 57, 0
4, 191041, Note_on_c, 2, 57, 97
4, 191159, Note_off_c, 2, 52, 0
4, 191275, Note_on_c, 2, 52, 97
4, 191374, Note_off_c, 2, 45, 0
4, 191520, Note_on_c, 2, 45, 117
4, 191624, Note_off_c, 2, 52, 0
4, 191747, Note_on_c, 2, 52, 101
4, 191764, Note_off_c, 2, 57, 0
4, 191988, Note_on_c, 2, 57, 113
4, 192059, Note_off_c, 2, 61, 0
4, 192247, Note_on_c, 2, 61, 100
4, 192382, Note_off_c, 2, 57, 0
4, 192486, Note_on_c, 2, 57, 97
4, 192587, Note_off_c, 2, 52, 0
4, 192728, Note_on_c, 2, 52, 108
4, 192900, Note_off_c, 2, 45, 0
4, 192930, Note_off_c, 2, 52, 0
4, 192969, Note_on_c, 2, 47, 113
4, 193027, Note_off_c, 2, 57, 0
4, 193081, Note_off_c, 2, 61, 0
4, 193197, Note_on_c, 2, 54, 100
4, 193429, Note_on_c, 2, 59, 88
4, 193675, Note_on_c, 2, 63, 104
4, 193741, Note_off_c, 2, 59, 0
4, 193922, Note_on_c, 2, 59, 94
4, 194027, Note_off_c, 2, 54, 0
4, 194165, Note_on_c, 2, 54, 95
4, 194312, Note_off_c, 2, 47, 0
4, 194419, Note_on_c, 2, 47, 108
4, 194520, Note_off_c, 2, 54, 0
4, 194643, Note_on_c, 2, 54, 95
4, 194670, Note_off_c, 2, 59, 0
4, 194874, Note_on_c, 2, 59, 101
4, 194913, Note_off_c, 2, 63, 0
4, 195115, Note_on_c, 2, 63, 110
4, 195158, Note_off_c, 2, 59, 0
4, 195354, Note_on_c, 2, 59, 91
4, 195391, Note_off_c, 2, 54, 0
4, 195598, Note_on_c, 2, 54, 104
4, 195668, Note_off_c, 2, 59, 0
4, 195673, Note_off_c, 2, 47, 0
4, 195697, Note_off_c, 2, 63, 0
4, 195715, Note_off_c, 2, 54, 0
4, 195849, Note_on_c, 2, 47, 122
4, 196077, Note_on_c, 2, 54, 100
4, 196311, Note_on_c, 2, 59, 88
4, 196558, Note_on_c, 2, 63, 127
4, 196625, Note_off_c, 2, 59, 0
4, 196801, Note_on_c, 2, 59, 91
4, 196921, Note_off_c, 2, 54, 0
4, 197043, Note_on_c, 2, 54, 95
4, 197192, Note_off_c, 2, 47, 0
4, 197296, Note_on_c, 2, 47, 117
4, 197422, Note_off_c, 2, 54, 0
4, 197533, Note_on_c, 2, 54, 95
4, 197600, Note_off_c, 2, 59, 0
4, 197767, Note_on_c, 2, 59, 101
4, 197811, Note_off_c, 2, 63, 0
4, 198011, Note_on_c, 2, 63, 127
4, 198065, Note_off_c, 2, 59, 0
4, 198247, Note_on_c, 2, 59, 97
4, 198302, Note_off_c, 2, 54, 0
4, 198478, Note_on_c, 2, 54, 100
4, 198692, Note_off_c, 2, 47, 0
4, 198727, Note_on_c, 2, 52, 117
4, 198741, Note_off_c, 2, 54, 0
4, 198796, Note_off_c, 2, 59, 0
4, 198804, Note_off_c, 2, 63, 0
4, 198953, Note_on_c, 2, 55, 117
4, 199192, Note_on_c, 2, 59, 108
4, 199430, Note_on_c, 2, 62, 127
4, 199470, Note_off_c, 2, 59, 0
4, 199680, Note_on_c, 2, 59, 101
4, 199787, Note_off_c, 2, 55, 0
4, 199921, Note_on_c, 2, 55, 108
4, 200092, Note_off_c, 2, 52, 0
4, 200177, Note_on_c, 2, 52, 113
4, 200315, Note_off_c, 2, 55, 0
4, 200414, Note_on_c, 2, 55, 108
4, 200463, Note_off_c, 2, 59, 0
4, 200650, Note_on_c, 2, 59, 113
4, 200709, Note_off_c, 2, 62, 0
4, 200884, Note_on_c, 2, 62, 122
4, 200907, Note_off_c, 2, 59, 0
4, 201122, Note_on_c, 2, 59, 108
4, 201202, Note_off_c, 2, 55, 0
4, 201351, Note_on_c, 2, 55, 113
4, 201502, Note_off_c, 2, 52, 0
4, 201602, Note_on_c, 2, 45, 127
4, 201609, Note_off_c, 2, 55, 0
4, 201745, Note_off_c, 2, 59, 0
4, 201788, Note_off_c, 2, 62, 0
4, 201841, Note_on_c, 2, 52, 122
4, 202075, Note_on_c, 2, 57, 117
4, 202329, Note_on_c, 2, 61, 104
4, 202463, Note_off_c, 2, 57, 0
4, 202570, Note_on_c, 2, 57, 104
4, 202670, Note_off_c, 2, 52, 0
4, 202799, Note_on_c, 2, 52, 104
4, 202923, Note_off_c, 2, 45, 0
4, 203046, Note_on_c, 2, 45, 117
4, 203183, Note_off_c, 2, 52, 0
4, 203294, Note_on_c, 2, 52, 104
4, 203344, Note_off_c, 2, 57, 0
4, 203533, Note_on_c, 2, 57, 113
4, 203613, Note_off_c, 2, 61, 0
4, 203779, Note_on_c, 2, 61, 110
4, 203902, Note_off_c, 2, 57, 0
4, 204016, Note_on_c, 2, 57, 101
4, 204104, Note_off_c, 2, 52, 0
4, 204255, Note_on_c, 2, 52, 117
4, 204430, Note_off_c, 2, 45, 0
4, 204471, Note_off_c, 2, 52, 0
4, 204496, Note_on_c, 2, 47, 113
4, 204551, Note_off_c, 2, 57, 0
4, 204584, Note_off_c, 2, 61, 0
4, 204727, Note_on_c, 2, 54, 104
4, 204956, Note_on_c, 2, 59, 88
4, 205199, Note_on_c, 2, 63, 127
4, 205254, Note_off_c, 2, 59, 0
4, 205444, Note_on_c, 2, 59, 94
4, 205545, Note_off_c, 2, 54, 0
4, 205693, Note_on_c, 2, 54, 104
4, 205867, Note_off_c, 2, 47, 0
4, 205949, Note_on_c, 2, 47, 108
4, 206057, Note_off_c, 2, 54, 0
4, 206175, Note_on_c, 2, 54, 95
4, 206207, Note_off_c, 2, 59, 0
4, 206408, Note_on_c, 2, 59, 108
4, 206448, Note_off_c, 2, 63, 0
4, 206645, Note_on_c, 2, 63, 110
4, 206692, Note_off_c, 2, 59, 0
4, 206887, Note_on_c, 2, 59, 101
4, 206944, Note_off_c, 2, 54, 0
4, 207120, Note_on_c, 2, 54, 104
4, 207228, Note_off_c, 2, 47, 0
4, 207359, Note_on_c, 2, 47, 113
4, 207434, Note_off_c, 2, 54, 0
4, 207598, Note_off_c, 2, 59, 0
4, 207601, Note_on_c, 2, 54, 87
4, 207837, Note_on_c, 2, 59, 97
4, 207852, Note_off_c, 2, 63, 0
4, 208081, Note_on_c, 2, 63, 110
4, 208140, Note_off_c, 2, 59, 0
4, 208322, Note_on_c, 2, 59, 97
4, 208399, Note_off_c, 2, 54, 0
4, 208563, Note_on_c, 2, 54, 104
4, 208723, Note_off_c, 2, 47, 0
4, 208812, Note_on_c, 2, 47, 108
4, 208918, Note_off_c, 2, 54, 0
4, 209043, Note_on_c, 2, 54, 95
4, 209106, Note_off_c, 2, 59, 0
4, 209287, Note_on_c, 2, 59, 104
4, 209334, Note_off_c, 2, 63, 0
4, 209536, Note_on_c, 2, 63, 110
4, 209600, Note_off_c, 2, 59, 0
4, 209775, Note_on_c, 2, 59, 104
4, 209852, Note_off_c, 2, 54, 0
4, 210009, Note_on_c, 2, 54, 104
4, 210218, Note_off_c, 2, 47, 0
4, 210250, Note_on_c, 2, 52, 122
4, 210265, Note_off_c, 2, 54, 0
4, 210350, Note_off_c, 2, 63, 0
4, 210355, Note_off_c, 2, 59, 0
4, 210476, Note_on_c, 2, 55, 127
4, 210720, Note_on_c, 2, 59, 117
4, 210949, Note_on_c, 2, 62, 127
4, 210983, Note_off_c, 2, 59, 0
4, 211200, Note_on_c, 2, 59, 104
4, 211311, Note_off_c, 2, 55, 0
4, 211436, Note_on_c, 2, 55, 108
4, 211544, Note_off_c, 2, 52, 0
4, 211687, Note_on_c, 2, 52, 117
4, 211835, Note_off_c, 2, 55, 0
4, 211936, Note_on_c, 2, 55, 104
4, 211999, Note_off_c, 2, 59, 0
4, 212175, Note_on_c, 2, 59, 108
4, 212248, Note_off_c, 2, 62, 0
4, 212414, Note_on_c, 2, 62, 127
4, 212462, Note_off_c, 2, 59, 0
4, 212648, Note_on_c, 2, 59, 117
4, 212704, Note_off_c, 2, 55, 0
4, 212874, Note_on_c, 2, 55, 113
4, 213032, Note_off_c, 2, 52, 0
4, 213117, Note_off_c, 2, 55, 0
4, 213125, Note_on_c, 2, 45, 127
4, 213259, Note_off_c, 2, 62, 0
4, 213274, Note_off_c, 2, 59, 0
4, 213354, Note_on_c, 2, 52, 122
4, 213585, Note_on_c, 2, 57, 122
4, 213839, Note_on_c, 2, 61, 104
4, 213944, Note_off_c, 2, 57, 0
4, 214081, Note_on_c, 2, 57, 97
4, 214199, Note_off_c, 2, 52, 0
4, 214315, Note_on_c, 2, 52, 97
4, 214414, Note_off_c, 2, 45, 0
4, 214560, Note_on_c, 2, 45, 117
4, 214664, Note_off_c, 2, 52, 0
4, 214787, Note_on_c, 2, 52, 101
4, 214804, Note_off_c, 2, 57, 0
4, 215028, Note_on_c, 2, 57, 113
4, 215099, Note_off_c, 2, 61, 0
4, 215287, Note_on_c, 2, 61, 100
4, 215422, Note_off_c, 2, 57, 0
4, 215526, Note_on_c, 2, 57, 97
4, 215627, Note_off_c, 2, 52, 0
4, 215768, Note_on_c, 2, 52, 108
4, 215940, Note_off_c, 2, 45, 0
4, 215970, Note_off_c, 2, 52, 0
4, 216009, Note_on_c, 2, 47, 113
4, 216067, Note_off_c, 2, 57, 0
4, 216121, Note_off_c, 2, 61, 0
4, 216237, Note_on_c, 2, 54, 100
4, 216469, Note_on_c, 2, 59, 88
4, 216715, Note_on_c, 2, 63, 104
4, 216781, Note_off_c, 2, 59, 0
4, 216962, Note_on_c, 2, 59, 94
4, 217067, Note_off_c, 2, 54, 0
4, 217205, Note_on_c, 2, 54, 95
4, 217352, Note_off_c, 2, 47, 0
4, 217459, Note_on_c, 2, 47, 108
4, 217560, Note_off_c, 2, 54, 0
4, 217683, Note_on_c, 2, 54, 95
4, 217710, Note_off_c, 2, 59, 0
4, 217914, Note_on_c, 2, 59, 101
4, 217953, Note_off_c, 2, 63, 0
4, 218155, Note_on_c, 2, 63, 110
4, 218198, Note_off_c, 2, 59, 0
4, 218394, Note_on_c, 2, 59, 91
4, 218431, Note_off_c, 2, 54, 0
4, 218638, Note_on_c, 2, 54, 104
4, 218708, Note_off_c, 2, 59, 0
4, 218713, Note_off_c, 2, 47, 0
4, 218737, Note_off_c, 2, 63, 0
4, 218755, Note_off_c, 2, 54, 0
4, 218889, Note_on_c, 2, 47, 122
4, 219117, Note_on_c, 2, 54, 100
4, 219351, Note_on_c, 2, 59, 88
4, 219598, Note_on_c, 2, 63, 127
4, 219665, Note_off_c, 2, 59, 0
4, 219841, Note_on_c, 2, 59, 91
4, 219961, Note_off_c, 2, 54, 0
4, 220083, Note_on_c, 2, 54, 95
4, 220232, Note_off_c, 2, 47, 0
4, 220336, Note_on_c, 2, 47, 117
4, 220462, Note_off_c, 2, 54, 0
4, 220573, Note_on_c, 2, 54, 95
4, 220640, Note_off_c, 2, 59, 0
4, 220807, Note_on_c, 2, 59, 101
4, 220851, Note_off_c, 2, 63, 0
4, 221051, Note_on_c, 2, 63, 127
4, 221105, Note_off_c, 2, 59, 0
4, 221287, Note_on_c, 2, 59, 97
4, 221342, Note_off_c, 2, 54, 0
4, 221518, Note_on_c, 2, 54, 100
4, 221732, Note_off_c, 2, 47, 0
4, 221767, Note_on_c, 2, 52, 117
4, 221781, Note_off_c, 2, 54, 0
4, 221836, Note_off_c, 2, 59, 0
4, 221844, Note_off_c, 2, 63, 0
4, 221993, Note_on_c, 2, 55, 117
4, 222232, Note_on_c, 2, 59, 108
4, 222470, Note_on_c, 2, 62, 127
4, 222510, Note_off_c, 2, 59, 0
4, 222720, Note_on_c, 2, 59, 101
4, 222827, Note_off_c, 2, 55, 0
4, 222961, Note_on_c, 2, 55, 108
4, 223132, Note_off_c, 2, 52, 0
4, 223217, Note_on_c, 2, 52, 113
4, 223355, Note_off_c, 2, 55, 0
4, 223454, Note_on_c, 2, 55, 108
4, 223503, Note_off_c, 2, 59, 0
4, 223690, Note_on_c, 2, 59, 113
4, 223749, Note_off_c, 2, 62, 0
4, 223924, Note_on_c, 2, 62, 122
4, 223947, Note_off_c, 2, 59, 0
4, 224162, Note_on_c, 2, 59, 108
4, 224242, Note_off_c, 2, 55, 0
4, 224391, Note_on_c, 2, 55, 113
4, 224542, Note_off_c, 2, 52, 0
4, 224642, Note_on_c, 2, 45, 127
4, 224649, Note_off_c, 2, 55, 0
4, 224785, Note_off_c, 2, 59, 0
4, 224828, Note_off_c, 2, 62, 0
4, 224881, Note_on_c, 2, 52, 122
4, 225115, Note_on_c, 2, 57, 117
4, 225369, Note_on_c, 2, 61, 104
4, 225503, Note_off_c, 2, 57, 0
4, 225610, Note_on_c, 2, 57, 104
4, 225710, Note_off_c, 2, 52, 0
4, 225839, Note_on_c, 2, 52, 104
4, 225963, Note_off_c, 2, 45, 0
4, 226086, Note_on_c, 2, 45, 117
4, 226223, Note_off_c, 2, 52, 0
4, 226334, Note_on_c, 2, 52, 104
4, 226384, Note_off_c, 2, 57, 0
4, 226573, Note_on_c, 2, 57, 113
4, 226653, Note_off_c, 2, 61, 0
4, 226819, Note_on_c, 2, 61, 110
4, 226942, Note_off_c, 2, 57, 0
4, 227056, Note_on_c, 2, 57, 101
4, 227144, Note_off_c, 2, 52, 0
4, 227295, Note_on_c, 2, 52, 117
4, 227470, Note_off_c, 2, 45, 0
4, 227511, Note_off_c, 2, 52, 0
4, 227536, Note_on_c, 2, 47, 113
4, 227591, Note_off_c, 2, 57, 0
4, 227624, Note_off_c, 2, 61, 0
4, 227767, Note_on_c, 2, 54, 104
4, 227996, Note_on_c, 2, 59, 88
4, 228239, Note_on_c, 2, 63, 127
4, 228294, Note_off_c, 2, 59, 0
4, 228484, Note_on_c, 2, 59, 94
4, 228585, Note_off_c, 2, 54, 0
4, 228733, Note_on_c, 2, 54, 104
4, 228907, Note_off_c, 2, 47, 0
4, 228989, Note_on_c, 2, 47, 108
4, 229097, Note_off_c, 2, 54, 0
4, 229215, Note_on_c, 2, 54, 95
4, 229247, Note_off_c, 2, 59, 0
4, 229448, Note_on_c, 2, 59, 108
4, 229488, Note_off_c, 2, 63, 0
4, 229685, Note_on_c, 2, 63, 110
4, 229732, Note_off_c, 2, 59, 0
4, 229927, Note_on_c, 2, 59, 101
4, 229984, Note_off_c, 2, 54, 0
4, 230160, Note_on_c, 2, 54, 104
4, 230268, Note_off_c, 2, 47, 0
4, 230399, Note_on_c, 2, 47, 113
4, 230474, Note_off_c, 2, 54, 0
4, 230638, Note_off_c, 2, 59, 0
4, 230641, Note_on_c, 2, 54, 87
4, 230877, Note_on_c, 2, 59, 97
4, 230892, Note_off_c, 2, 63, 0
4, 231121, Note_on_c, 2, 63, 110
4, 231180, Note_off_c, 2, 59, 0
4, 231362, Note_on_c, 2, 59, 97
4, 231439, Note_off_c, 2, 54, 0
4, 231603, Note_on_c, 2, 54, 104
4, 231763, Note_off_c, 2, 47, 0
4, 231852, Note_on_c, 2, 47, 108
4, 231958, Note_off_c, 2, 54, 0
4, 232083, Note_on_c, 2, 54, 95
4, 232146, Note_off_c, 2, 59, 0
4, 232327, Note_on_c, 2, 59, 104
4, 232374, Note_off_c, 2, 63, 0
4, 232576, Note_on_c, 2, 63, 110
4, 232640, Note_off_c, 2, 59, 0
4, 232815, Note_on_c, 2, 59, 104
4, 232892, Note_off_c, 2, 54, 0
4, 233049, Note_on_c, 2, 54, 104
4, 233258, Note_off_c, 2, 47, 0
4, 233290, Note_on_c, 2, 52, 122
4, 233305, Note_off_c, 2, 54, 0
4, 233390, Note_off_c, 2, 63, 0
4, 233395, Note_off_c, 2, 59, 0
4, 233516, Note_on_c, 2, 55, 127
4, 233760, Note_on_c, 2, 59, 117
4, 233989, Note_on_c, 2, 62, 127
4, 234023, Note_off_c, 2, 59, 0
4, 234240, Note_on_c, 2, 59, 104
4, 234351, Note_off_c, 2, 55, 0
4, 234476, Note_on_c, 2, 55, 108
4, 234584, Note_off_c, 2, 52, 0
4, 234727, Note_on_c, 2, 52, 117
4, 234875, Note_off_c, 2, 55, 0
4, 234976, Note_on_c, 2, 55, 104
4, 235039, Note_off_c, 2, 59, 0
4, 235215, Note_on_c, 2, 59, 108
4, 235288, Note_off_c, 2, 62, 0
4, 235454, Note_on_c, 2, 62, 127
4, 235502, Note_off_c, 2, 59, 0
4, 235688, Note_on_c, 2, 59, 117
4, 235744, Note_off_c, 2, 55, 0
4, 235914, Note_on_c, 2, 55, 113
4, 236072, Note_off_c, 2, 52, 0
4, 236157, Note_off_c, 2, 55, 0
4, 236165, Note_on_c, 2, 45, 127
4, 236299, Note_off_c, 2, 62, 0
4, 236314, Note_off_c, 2, 59, 0
4, 236394, Note_on_c, 2, 52, 122
4, 236625, Note_on_c, 2, 57, 122
4, 236879, Note_on_c, 2, 61, 104
4, 236984, Note_off_c, 2, 57, 0
4, 237121, Note_on_c, 2, 57, 97
4, 237239, Note_off_c, 2, 52, 0
4, 237355, Note_on_c, 2, 52, 97
4, 237454, Note_off_c, 2, 45, 0
4, 237600, Note_on_c, 2, 45, 117
4, 237704, Note_off_c, 2, 52, 0
4, 237827, Note_on_c, 2, 52, 101
4, 237844, Note_off_c, 2, 57, 0
4, 238068, Note_on_c, 2, 57, 113
4, 238139, Note_off_c, 2, 61, 0
4, 238327, Note_on_c, 2, 61, 100
4, 238462, Note_off_c, 2, 57, 0
4, 238566, Note_on_c, 2, 57, 97
4, 238667, Note_off_c, 2, 52, 0
4, 238808, Note_on_c, 2, 52, 108
4, 238980, Note_off_c, 2, 45, 0
4, 239010, Note_off_c, 2, 52, 0
4, 239045, Note_on_c, 2, 45, 127
4, 239107, Note_off_c, 2, 57, 0
4, 239161, Note_off_c, 2, 61, 0
4, 239274, Note_on_c, 2, 52, 122
4, 239505, Note_on_c, 2, 57, 122
4, 239759, Note_on_c, 2, 61, 104
4, 239864, Note_off_c, 2, 57, 0
4, 240001, Note_on_c, 2, 57, 97
4, 240119, Note_off_c, 2, 52, 0
4, 240235, Note_on_c, 2, 52, 97
4, 240334, Note_off_c, 2, 45, 0
4, 240499, Note_on_c, 2, 47, 108
4, 240584, Note_off_c, 2, 52, 0
4, 240723, Note_on_c, 2, 55, 95
4, 240724, Note_off_c, 2, 57, 0
4, 240954, Note_on_c, 2, 59, 101
4, 241019, Note_off_c, 2, 61, 0
4, 241195, Note_on_c, 2, 64, 110
4, 241238, Note_off_c, 2, 59, 0
4, 241434, Note_on_c, 2, 61, 91
4, 241471, Note_off_c, 2, 55, 0
4, 241678, Note_on_c, 2, 57, 104
4, 241748, Note_off_c, 2, 61, 0
4, 241753, Note_off_c, 2, 47, 0
4, 241777, Note_off_c, 2, 64, 0
4, 241795, Note_off_c, 2, 57, 0
4, 241929, Note_on_c, 2, 47, 122
4, 242157, Note_on_c, 2, 54, 100
4, 242391, Note_on_c, 2, 59, 88
4, 242638, Note_on_c, 2, 63, 127
4, 242705, Note_off_c, 2, 59, 0
4, 242881, Note_on_c, 2, 59, 91
4, 243001, Note_off_c, 2, 54, 0
4, 243123, Note_on_c, 2, 54, 95
4, 243272, Note_off_c, 2, 47, 0
4, 243376, Note_on_c, 2, 47, 117
4, 243502, Note_off_c, 2, 54, 0
4, 243613, Note_on_c, 2, 54, 95
4, 243680, Note_off_c, 2, 59, 0
4, 243847, Note_on_c, 2, 59, 101
4, 243891, Note_off_c, 2, 63, 0
4, 244091, Note_on_c, 2, 63, 127
4, 244145, Note_off_c, 2, 59, 0
4, 244327, Note_on_c, 2, 59, 97
4, 244382, Note_off_c, 2, 54, 0
4, 244558, Note_on_c, 2, 54, 100
4, 244772, Note_off_c, 2, 47, 0
4, 244807, Note_on_c, 2, 52, 117
4, 244821, Note_off_c, 2, 54, 0
4, 244876, Note_off_c, 2, 59, 0
4, 244884, Note_off_c, 2, 63, 0
4, 245033, Note_on_c, 2, 55, 117
4, 245272, Note_on_c, 2, 59, 108
4, 245510, Note_on_c, 2, 62, 127
4, 245550, Note_off_c, 2, 59, 0
4, 245760, Note_on_c, 2, 59, 101
4, 245867, Note_off_c, 2, 55, 0
4, 246001, Note_on_c, 2, 55, 108
4, 246172, Note_off_c, 2, 52, 0
4, 246257, Note_on_c, 2, 52, 113
4, 246395, Note_off_c, 2, 55, 0
4, 246494, Note_on_c, 2, 55, 108
4, 246543, Note_off_c, 2, 59, 0
4, 246730, Note_on_c, 2, 59, 113
4, 246789, Note_off_c, 2, 62, 0
4, 246964, Note_on_c, 2, 62, 122
4, 246987, Note_off_c, 2, 59, 0
4, 247202, Note_on_c, 2, 59, 108
4, 247282, Note_off_c, 2, 55, 0
4, 247431, Note_on_c, 2, 55, 113
4, 247582, Note_off_c, 2, 52, 0
4, 247682, Note_on_c, 2, 45, 127
4, 247689, Note_off_c, 2, 55, 0
4, 247825, Note_off_c, 2, 59, 0
4, 247868, Note_off_c, 2, 62, 0
4, 247921, Note_on_c, 2, 52, 122
4, 248155, Note_on_c, 2, 57, 117
4, 248409, Note_on_c, 2, 61, 104
4, 248543, Note_off_c, 2, 57, 0
4, 248650, Note_on_c, 2, 57, 104
4, 248750, Note_off_c, 2, 52, 0
4, 248879, Note_on_c, 2, 52, 104
4, 249003, Note_off_c, 2, 45, 0
4, 249126, Note_on_c, 2, 45, 117
4, 249263, Note_off_c, 2, 52, 0
4, 249374, Note_on_c, 2, 52, 104
4, 249424, Note_off_c, 2, 57, 0
4, 249613, Note_on_c, 2, 57, 113
4, 249693, Note_off_c, 2, 61, 0
4, 249859, Note_on_c, 2, 61, 110
4, 249982, Note_off_c, 2, 57, 0
4, 250096, Note_on_c, 2, 57, 101
4, 250184, Note_off_c, 2, 52, 0
4, 250335, Note_on_c, 2, 52, 117
4, 250510, Note_off_c, 2, 45, 0
4, 250551, Note_off_c, 2, 52, 0
4, 250576, Note_on_c, 2, 47, 113
4, 250631, Note_off_c, 2, 57, 0
4, 250664, Note_off_c, 2, 61, 0
4, 250807, Note_on_c, 2, 54, 104
4, 251036, Note_on_c, 2, 59, 88
4, 251279, Note_on_c, 2, 63, 127
4, 251334, Note_off_c, 2, 59, 0
4, 251524, Note_on_c, 2, 59, 94
4, 251625, Note_off_c, 2, 54, 0
4, 251773, Note_on_c, 2, 54, 104
4, 251947, Note_off_c, 2, 47, 0
4, 252029, Note_on_c, 2, 47, 108
4, 252137, Note_off_c, 2, 54, 0
4, 252255, Note_on_c, 2, 54, 95
4, 252287, Note_off_c, 2, 59, 0
4, 252488, Note_on_c, 2, 59, 108
4, 252528, Note_off_c, 2, 63, 0
4, 252725, Note_on_c, 2, 63, 110
4, 252772, Note_off_c, 2, 59, 0
4, 252967, Note_on_c, 2, 59, 101
4, 253024, Note_off_c, 2, 54, 0
4, 253200, Note_on_c, 2, 54, 104
4, 253308, Note_off_c, 2, 47, 0
4, 253439, Note_on_c, 2, 47, 113
4, 253514, Note_off_c, 2, 54, 0
4, 253678, Note_off_c, 2, 59, 0
4, 253681, Note_on_c, 2, 54, 87
4, 253917, Note_on_c, 2, 59, 97
4, 253932, Note_off_c, 2, 63, 0
4, 254161, Note_on_c, 2, 63, 110
4, 254220, Note_off_c, 2, 59, 0
4, 254402, Note_on_c, 2, 59, 97
4, 254479, Note_off_c, 2, 54, 0
4, 254643, Note_on_c, 2, 54, 104
4, 254803, Note_off_c, 2, 47, 0
4, 254892, Note_on_c, 2, 47, 108
4, 254998, Note_off_c, 2, 54, 0
4, 255123, Note_on_c, 2, 54, 95
4, 255186, Note_off_c, 2, 59, 0
4, 255367, Note_on_c, 2, 59, 104
4, 255414, Note_off_c, 2, 63, 0
4, 255616, Note_on_c, 2, 63, 110
4, 255680, Note_off_c, 2, 59, 0
4, 255855, Note_on_c, 2, 59, 104
4, 255932, Note_off_c, 2, 54, 0
4, 256089, Note_on_c, 2, 54, 104
4, 256298, Note_off_c, 2, 47, 0
4, 256330, Note_on_c, 2, 52, 122
4, 256345, Note_off_c, 2, 54, 0
4, 256430, Note_off_c, 2, 63, 0
4, 256435, Note_off_c, 2, 59, 0
4, 256556, Note_on_c, 2, 55, 127
4, 256800, Note_on_c, 2, 59, 117
4, 257029, Note_on_c, 2, 62, 127
4, 257063, Note_off_c, 2, 59, 0
4, 257280, Note_on_c, 2, 59, 104
4, 257391, Note_off_c, 2, 55, 0
4, 257516, Note_on_c, 2, 55, 108
4, 257624, Note_off_c, 2, 52, 0
4, 257767, Note_on_c, 2, 52, 117
4, 257915, Note_off_c, 2, 55, 0
4, 258016, Note_on_c, 2, 55, 104
4, 258079, Note_off_c, 2, 59, 0
4, 258255, Note_on_c, 2, 59, 108
4, 258328, Note_off_c, 2, 62, 0
4, 258494, Note_on_c, 2, 62, 127
4, 258542, Note_off_c, 2, 59, 0
4, 258728, Note_on_c, 2, 59, 117
4, 258784, Note_off_c, 2, 55, 0
4, 258954, Note_on_c, 2, 55, 113
4, 259112, Note_off_c, 2, 52, 0
4, 259197, Note_off_c, 2, 55, 0
4, 259205, Note_on_c, 2, 45, 127
4, 259339, Note_off_c, 2, 62, 0
4, 259354, Note_off_c, 2, 59, 0
4, 259434, Note_on_c, 2, 52, 122
4, 259665, Note_on_c, 2, 57, 122
4, 259919, Note_on_c, 2, 61, 104
4, 260024, Note_off_c, 2, 57, 0
4, 260161, Note_on_c, 2, 57, 97
4, 260279, Note_off_c, 2, 52, 0
4, 260395, Note_on_c, 2, 52, 97
4, 260494, Note_off_c, 2, 45, 0
4, 260640, Note_on_c, 2, 45, 117
4, 260744, Note_off_c, 2, 52, 0
4, 260867, Note_on_c, 2, 52, 101
4, 260884, Note_off_c, 2, 57, 0
4, 261108, Note_on_c, 2, 57, 113
4, 261179, Note_off_c, 2, 61, 0
4, 261367, Note_on_c, 2, 61, 100
4, 261502, Note_off_c, 2, 57, 0
4, 261606, Note_on_c, 2, 57, 97
4, 261707, Note_off_c, 2, 52, 0
4, 261848, Note_on_c, 2, 52, 108
4, 262020, Note_off_c, 2, 45, 0
4, 262050, Note_off_c, 2, 52, 0
4, 262085, Note_on_c, 2, 45, 127
4, 262147, Note_off_c, 2, 57, 0
4, 262201, Note_off_c, 2, 61, 0
4, 262314, Note_on_c, 2, 52, 122
4, 262545, Note_on_c, 2, 57, 122
4, 262799, Note_on_c, 2, 61, 104
4, 262904, Note_off_c, 2, 57, 0
4, 263041, Note_on_c, 2, 57, 97
4, 263159, Note_off_c, 2, 52, 0
4, 263275, Note_on_c, 2, 52, 97
4, 263374, Note_off_c, 2, 45, 0
4, 263539, Note_on_c, 2, 47, 108
4, 263624, Note_off_c, 2, 52, 0
4, 263763, Note_on_c, 2, 55, 95
4, 263764, Note_off_c, 2, 57, 0
4, 263994, Note_on_c, 2, 59, 101
4, 264059, Note_off_c, 2, 61, 0
4, 264235, Note_on_c, 2, 64, 110
4, 264278, Note_off_c, 2, 59, 0
4, 264474, Note_on_c, 2, 61, 91
4, 264511, Note_off_c, 2, 55, 0
4, 264718, Note_on_c, 2, 57, 104
4, 264788, Note_off_c, 2, 61, 0
4, 264793, Note_off_c, 2, 47, 0
4, 264817, Note_off_c, 2, 64, 0
4, 264835, Note_off_c, 2, 57, 0
4, 264969, Note_on_c, 2, 47, 122
4, 265197, Note_on_c, 2, 54, 100
4, 265431, Note_on_c, 2, 59, 88
4, 265678, Note_on_c, 2, 63, 127
4, 265745, Note_off_c, 2, 59, 0
4, 265921, Note_on_c, 2, 59, 91
4, 266041, Note_off_c, 2, 54, 0
4, 266163, Note_on_c, 2, 54, 95
4, 266312, Note_off_c, 2, 47, 0
4, 266416, Note_on_c, 2, 47, 117
4, 266542, Note_off_c, 2, 54, 0
4, 266653, Note_on_c, 2, 54, 95
4, 266720, Note_off_c, 2, 59, 0
4, 266887, Note_on_c, 2, 59, 101
4, 266931, Note_off_c, 2, 63, 0
4, 267131, Note_on_c, 2, 63, 127
4, 267185, Note_off_c, 2, 59, 0
4, 267367, Note_on_c, 2, 59, 97
4, 267422, Note_off_c, 2, 54, 0
4, 267598, Note_on_c, 2, 54, 100
4, 267812, Note_off_c, 2, 47, 0
4, 267847, Note_on_c, 2, 52, 117
4, 267861, Note_off_c, 2, 54, 0
4, 267916, Note_off_c, 2, 59, 0
4, 267924, Note_off_c, 2, 63, 0
4, 268073, Note_on_c, 2, 55, 117
4, 268312, Note_on_c, 2, 59, 108
4, 268550, Note_on_c, 2, 62, 127
4, 268590, Note_off_c, 2, 59, 0
4, 268800, Note_on_c, 2, 59, 101
4, 268907, Note_off_c, 2, 55, 0
4, 269041, Note_on_c, 2, 55, 108
4, 269212, Note_off_c, 2, 52, 0
4, 269297, Note_on_c, 2, 52, 113
4, 269435, Note_off_c, 2, 55, 0
4, 269534, Note_on_c, 2, 55, 108
4, 269583, Note_off_c, 2, 59, 0
4, 269770, Note_on_c, 2, 59, 113
4, 269829, Note_off_c, 2, 62, 0
4, 270004, Note_on_c, 2, 62, 122
4, 270027, Note_off_c, 2, 59, 0
4, 270242, Note_on_c, 2, 59, 108
4, 270322, Note_off_c, 2, 55, 0
4, 270471, Note_on_c, 2, 55, 113
4, 270622, Note_off_c, 2, 52, 0
4, 270722, Note_on_c, 2, 45, 127
4, 270729, Note_off_c, 2, 55, 0
4, 270865, Note_off_c, 2, 59, 0
4, 270908, Note_off_c, 2, 62, 0
4, 270961, Note_on_c, 2, 52, 122
4, 271195, Note_on_c, 2, 57, 117
4, 271449, Note_on_c, 2, 61, 104
4, 271583, Note_off_c, 2, 57, 0
4, 271690, Note_on_c, 2, 57, 104
4, 271790, Note_off_c, 2, 52, 0
4, 271919, Note_on_c, 2, 52, 104
4, 272043, Note_off_c, 2, 45, 0
4, 272166, Note_on_c, 2, 45, 117
4, 272303, Note_off_c, 2, 52, 0
4, 272414, Note_on_c, 2, 52, 104
4, 272464, Note_off_c, 2, 57, 0
4, 272653, Note_on_c, 2, 57, 113
4, 272733, Note_off_c, 2, 61, 0
4, 272899, Note_on_c, 2, 61, 110
4, 273022, Note_off_c, 2, 57, 0
4, 273136, Note_on_c, 2, 57, 101
4, 273224, Note_off_c, 2, 52, 0
4, 273375, Note_on_c, 2, 52, 117
4, 273550, Note_off_c, 2, 45, 0
4, 273591, Note_off_c, 2, 52, 0
4, 273616, Note_on_c, 2, 47, 113
4, 273671, Note_off_c, 2, 57, 0
4, 273704, Note_off_c, 2, 61, 0
4, 273847, Note_on_c, 2, 54, 104
4, 274076, Note_on_c, 2, 59, 88
4, 274319, Note_on_c, 2, 63, 127
4, 274374, Note_off_c, 2, 59, 0
4, 274564, Note_on_c, 2, 59, 94
4, 274665, Note_off_c, 2, 54, 0
4, 274813, Note_on_c, 2, 54, 104
4, 274987, Note_off_c, 2, 47, 0
4, 275069, Note_on_c, 2, 47, 108
4, 275177, Note_off_c, 2, 54, 0
4, 275295, Note_on_c, 2, 54, 95
4, 275327, Note_off_c, 2, 59, 0
4, 275528, Note_on_c, 2, 59, 108
4, 275568, Note_off_c, 2, 63, 0
4, 275765, Note_on_c, 2, 63, 110
4, 275812, Note_off_c, 2, 59, 0
4, 276007, Note_on_c, 2, 59, 101
4, 276064, Note_off_c, 2, 54, 0
4, 276240, Note_on_c, 2, 54, 104
4, 276348, Note_off_c, 2, 47, 0
4, 276479, Note_on_c, 2, 47, 113
4, 276554, Note_off_c, 2, 54, 0
4, 276718, Note_off_c, 2, 59, 0
4, 276721, Note_on_c, 2, 54, 87
4, 276957, Note_on_c, 2, 59, 97
4, 276972, Note_off_c, 2, 63, 0
4, 277201, Note_on_c, 2, 63, 110
4, 277260, Note_off_c, 2, 59, 0
4, 277442, Note_on_c, 2, 59, 97
4, 277519, Note_off_c, 2, 54, 0
4, 277683, Note_on_c, 2, 54, 104
4, 277843, Note_off_c, 2, 47, 0
4, 277932, Note_on_c, 2, 47, 108
4, 278038, Note_off_c, 2, 54, 0
4, 278163, Note_on_c, 2, 54, 95
4, 278226, Note_off_c, 2, 59, 0
4, 278407, Note_on_c, 2, 59, 104
4, 278454, Note_off_c, 2, 63, 0
4, 278656, Note_on_c, 2, 63, 110
4, 278720, Note_off_c, 2, 59, 0
4, 278895, Note_on_c, 2, 59, 104
4, 278972, Note_off_c, 2, 54, 0
4, 279129, Note_on_c, 2, 54, 104
4, 279338, Note_off_c, 2, 47, 0
4, 279370, Note_on_c, 2, 52, 122
4, 279385, Note_off_c, 2, 54, 0
4, 279470, Note_off_c, 2, 63, 0
4, 279475, Note_off_c, 2, 59, 0
4, 279596, Note_on_c, 2, 55, 127
4, 279840, Note_on_c, 2, 59, 117
4, 280069, Note_on_c, 2, 62, 127
4, 280103, Note_off_c, 2, 59, 0
4, 280320, Note_on_c, 2, 59, 104
4, 280431, Note_off_c, 2, 55, 0
4, 280556, Note_on_c, 2, 55, 108
4, 280664, Note_off_c, 2, 52, 0
4, 280807, Note_on_c, 2, 52, 117
4, 280955, Note_off_c, 2, 55, 0
4, 281056, Note_on_c, 2, 55, 104
4, 281119, Note_off_c, 2, 59, 0
4, 281295, Note_on_c, 2, 59, 108
4, 281368, Note_off_c, 2, 62, 0
4, 281534, Note_on_c, 2, 62, 127
4, 281582, Note_off_c, 2, 59, 0
4, 281768, Note_on_c, 2, 59, 117
4, 281824, Note_off_c, 2, 55, 0
4, 281994, Note_on_c, 2, 55, 113
4, 282152, Note_off_c, 2, 52, 0
4, 282237, Note_off_c, 2, 55, 0
4, 282245, Note_on_c, 2, 45, 127
4, 282379, Note_off_c, 2, 62, 0
4, 282394, Note_off_c, 2, 59, 0
4, 282474, Note_on_c, 2, 52, 122
4, 282705, Note_on_c, 2, 57, 122
4, 282959, Note_on_c, 2, 61, 104
4, 283064, Note_off_c, 2, 57, 0
4, 283201, Note_on_c, 2, 57, 97
4, 283319, Note_off_c, 2, 52, 0
4, 283435, Note_on_c, 2, 52, 97
4, 283534, Note_off_c, 2, 45, 0
4, 283680, Note_on_c, 2, 45, 117
4, 283784, Note_off_c, 2, 52, 0
4, 283907, Note_on_c, 2, 52, 101
4, 283924, Note_off_c, 2, 57, 0
4, 284148, Note_on_c, 2, 57, 113
4, 284219, Note_off_c, 2, 61, 0
4, 284407, Note_on_c, 2, 61, 100
4, 284542, Note_off_c, 2, 57, 0
4, 284646, Note_on_c, 2, 57, 97
4, 284747, Note_off_c, 2, 52, 0
4, 284888, Note_on_c, 2, 52, 108
4, 285060, Note_off_c, 2, 45, 0
4, 285090, Note_off_c, 2, 52, 0
4, 285125, Note_on_c, 2, 45, 127
4, 285187, Note_off_c, 2, 57, 0
4, 285241, Note_off_c, 2, 61, 0
4, 285354, Note_on_c, 2, 52, 122
4, 285585, Note_on_c, 2, 57, 122
4, 285839, Note_on_c, 2, 61, 104
4, 285944, Note_off_c, 2, 57, 0
4, 286081, Note_on_c, 2, 57, 97
4, 286199, Note_off_c, 2, 52, 0
4, 286315, Note_on_c, 2, 52, 97
4, 286414, Note_off_c, 2, 45, 0
4, 286579, Note_on_c, 2, 47, 108
4, 286664, Note_off_c, 2, 52, 0
4, 286803, Note_on_c, 2, 55, 95
4, 286804, Note_off_c, 2, 57, 0
4, 287034, Note_on_c, 2, 59, 101
4, 287099, Note_off_c, 2, 61, 0
4, 287275, Note_on_c, 2, 62, 110
4, 287318, Note_off_c, 2, 59, 0
4, 287514, Note_on_c, 2, 59, 91
4, 287551, Note_off_c, 2, 55, 0
4, 287758, Note_on_c, 2, 55, 104
4, 287828, Note_off_c, 2, 59, 0
4, 287833, Note_off_c, 2, 47, 0
4, 287857, Note_off_c, 2, 62, 0
4, 287875, Note_off_c, 2, 55, 0
4, 288000, Control_c, 2, 11, 127
4, 288009, Note_on_c, 2, 47, 122
4, 288120, Control_c, 2, 11, 126
4, 288237, Note_on_c, 2, 54, 100
4, 288360, Control_c, 2, 11, 125
4, 288471, Note_on_c, 2, 59, 88
4, 288480, Control_c, 2, 11, 124
4, 288718, Note_on_c, 2, 63, 127
4, 288720, Control_c, 2, 11, 123
4, 288785, Note_off_c, 2, 59, 0
4, 288840, Control_c, 2, 11, 122
4, 288961, Note_on_c, 2, 59, 91
4, 289080, Control_c, 2, 11, 121
4, 289081, Note_off_c, 2, 54, 0
4, 289200, Control_c, 2, 11, 120
4, 289203, Note_on_c, 2, 54, 95
4, 289352, Note_off_c, 2, 47, 0
4, 289440, Control_c, 2, 11, 119
4, 289456, Note_on_c, 2, 47, 117
4, 289560, Control_c, 2, 11, 118
4, 289582, Note_off_c, 2, 54, 0
4, 289693, Note_on_c, 2, 54, 95
4, 289760, Note_off_c, 2, 59, 0
4, 289800, Control_c, 2, 11, 117
4, 289920, Control_c, 2, 11, 116
4, 289927, Note_on_c, 2, 59, 101
4, 289971, Note_off_c, 2, 63, 0
4, 290160, Control_c, 2, 11, 115
4, 290171, Note_on_c, 2, 63, 127
4, 290225, Note_off_c, 2, 59, 0
4, 290280, Control_c, 2, 11, 114
4, 290407, Note_on_c, 2, 59, 97
4, 290462, Note_off_c, 2, 54, 0
4, 290520, Control_c, 2, 11, 113
4, 290638, Note_on_c, 2, 54, 100
4, 290640, Control_c, 2, 11, 112
4, 290852, Note_off_c, 2, 47, 0
4, 290880, Control_c, 2, 11, 111
4, 290887, Note_on_c, 2, 52, 117
4, 290901, Note_off_c, 2, 54, 0
4, 290956, Note_off_c, 2, 59, 0
4, 290964, Note_off_c, 2, 63, 0
4, 291000, Control_c, 2, 11, 110
4, 291113, Note_on_c, 2, 55, 117
4, 291240, Control_c, 2, 11, 109
4, 291352, Note_on_c, 2, 59, 108
4, 291360, Control_c, 2, 11, 108
4, 291590, Note_on_c, 2, 62, 127
4, 291600, Control_c, 2, 11, 107
4, 291630, Note_off_c, 2, 59, 0
4, 291720, Control_c, 2, 11, 106
4, 291840, Note_on_c, 2, 59, 101
4, 291947, Note_off_c, 2, 55, 0
4, 291960, Control_c, 2, 11, 105
4, 292081, Note_on_c, 2, 55, 108
4, 292200, Control_c, 2, 11, 104
4, 292252, Note_off_c, 2, 52, 0
4, 292320, Control_c, 2, 11, 103
4, 292337, Note_on_c, 2, 52, 113
4, 292475, Note_off_c, 2, 55, 0
4, 292560, Control_c, 2, 11, 102
4, 292574, Note_on_c, 2, 55, 108
4, 292623, Note_off_c, 2, 59, 0
4, 292680, Control_c, 2, 11, 101
4, 292810, Note_on_c, 2, 59, 113
4, 292869, Note_off_c, 2, 62, 0
4, 292920, Control_c, 2, 11, 100
4, 293040, Control_c, 2, 11, 99
4, 293044, Note_on_c, 2, 62, 122
4, 293067, Note_off_c, 2, 59, 0
4, 293280, Control_c, 2, 11, 98
4, 293282, Note_on_c, 2, 59, 108
4, 293362, Note_off_c, 2, 55, 0
4, 293400, Control_c, 2, 11, 97
4, 293511, Note_on_c, 2, 55, 113
4, 293640, Control_c, 2, 11, 96
4, 293662, Note_off_c, 2, 52, 0
4, 293760, Control_c, 2, 11, 95
4, 293762, Note_on_c, 2, 45, 127
4, 293769, Note_off_c, 2, 55, 0
4, 293905, Note_off_c, 2, 59, 0
4, 293948, Note_off_c, 2, 62, 0
4, 294000, Control_c, 2, 11, 94
4, 294001, Note_on_c, 2, 52, 122
4, 294120, Control_c, 2, 11, 93
4, 294235, Note_on_c, 2, 57, 117
4, 294360, Control_c, 2, 11, 92
4, 294480, Control_c, 2, 11, 91
4, 294489, Note_on_c, 2, 61, 104
4, 294623, Note_off_c, 2, 57, 0
4, 294720, Control_c, 2, 11, 90
4, 294730, Note_on_c, 2, 57, 104
4, 294830, Note_off_c, 2, 52, 0
4, 294840, Control_c, 2, 11, 89
4, 294959, Note_on_c, 2, 52, 104
4, 295080, Control_c, 2, 11, 88
4, 295083, Note_off_c, 2, 45, 0
4, 295200, Control_c, 2, 11, 87
4, 295206, Note_on_c, 2, 45, 117
4, 295343, Note_off_c, 2, 52, 0
4, 295440, Control_c, 2, 11, 86
4, 295454, Note_on_c, 2, 52, 104
4, 295504, Note_off_c, 2, 57, 0
4, 295560, Control_c, 2, 11, 85
4, 295693, Note_on_c, 2, 57, 113
4, 295773, Note_off_c, 2, 61, 0
4, 295800, Control_c, 2, 11, 84
4, 295920, Control_c, 2, 11, 83
4, 295939, Note_on_c, 2, 61, 110
4, 296062, Note_off_c, 2, 57, 0
4, 296160, Control_c, 2, 11, 82
4, 296176, Note_on_c, 2, 57, 101
4, 296264, Note_off_c, 2, 52, 0
4, 296280, Control_c, 2, 11, 81
4, 296415, Note_on_c, 2, 52, 117
4, 296520, Control_c, 2, 11, 80
4, 296590, Note_off_c, 2, 45, 0
4, 296631, Note_off_c, 2, 52, 0
4, 296640, Control_c, 2, 11, 79
4, 296656, Note_on_c, 2, 47, 113
4, 296711, Note_off_c, 2, 57, 0
4, 296744, Note_off_c, 2, 61, 0
4, 296880, Control_c, 2, 11, 78
4, 296887, Note_on_c, 2, 54, 104
4, 297000, Control_c, 2, 11, 77
4, 297116, Note_on_c, 2, 59, 88
4, 297240, Control_c, 2, 11, 76
4, 297359, Note_on_c, 2, 63, 127
4, 297360, Control_c, 2, 11, 75
4, 297414, Note_off_c, 2, 59, 0
4, 297600, Control_c, 2, 11, 74
4, 297604, Note_on_c, 2, 59, 94
4, 297705, Note_off_c, 2, 54, 0
4, 297720, Control_c, 2, 11, 73
4, 297853, Note_on_c, 2, 54, 104
4, 297960, Control_c, 2, 11, 72
4, 298027, Note_off_c, 2, 47, 0
4, 298080, Control_c, 2, 11, 71
4, 298109, Note_on_c, 2, 47, 108
4, 298217, Note_off_c, 2, 54, 0
4, 298320, Control_c, 2, 11, 70
4, 298335, Note_on_c, 2, 54, 95
4, 298367, Note_off_c, 2, 59, 0
4, 298440, Control_c, 2, 11, 69
4, 298568, Note_on_c, 2, 59, 108
4, 298608, Note_off_c, 2, 63, 0
4, 298680, Control_c, 2, 11, 68
4, 298800, Control_c, 2, 11, 67
4, 298805, Note_on_c, 2, 63, 110
4, 298852, Note_off_c, 2, 59, 0
4, 299040, Control_c, 2, 11, 66
4, 299047, Note_on_c, 2, 59, 101
4, 299104, Note_off_c, 2, 54, 0
4, 299160, Control_c, 2, 11, 65
4, 299280, Note_on_c, 2, 54, 104
4, 299388, Note_off_c, 2, 47, 0
4, 299400, Control_c, 2, 11, 64
4, 299519, Note_on_c, 2, 47, 113
4, 299520, Control_c, 2, 11, 63
4, 299594, Note_off_c, 2, 54, 0
4, 299758, Note_off_c, 2, 59, 0
4, 299760, Control_c, 2, 11, 62
4, 299761, Note_on_c, 2, 54, 87
4, 299997, Note_on_c, 2, 59, 97
4, 300000, Control_c, 2, 11, 61
4, 300012, Note_off_c, 2, 63, 0
4, 300120, Control_c, 2, 11, 60
4, 300241, Note_on_c, 2, 63, 110
4, 300300, Note_off_c, 2, 59, 0
4, 300360, Control_c, 2, 11, 59
4, 300480, Control_c, 2, 11, 58
4, 300482, Note_on_c, 2, 59, 97
4, 300559, Note_off_c, 2, 54, 0
4, 300720, Control_c, 2, 11, 57
4, 300723, Note_on_c, 2, 54, 104
4, 300840, Control_c, 2, 11, 56
4, 300883, Note_off_c, 2, 47, 0
4, 300972, Note_on_c, 2, 47, 108
4, 301078, Note_off_c, 2, 54, 0
4, 301080, Control_c, 2, 11, 55
4, 301200, Control_c, 2, 11, 54
4, 301203, Note_on_c, 2, 54, 95
4, 301266, Note_off_c, 2, 59, 0
4, 301440, Control_c, 2, 11, 53
4, 301447, Note_on_c, 2, 59, 104
4, 301494, Note_off_c, 2, 63, 0
4, 301560, Control_c, 2, 11, 52
4, 301696, Note_on_c, 2, 63, 110
4, 301760, Note_off_c, 2, 59, 0
4, 301800, Control_c, 2, 11, 51
4, 301920, Control_c, 2, 11, 50
4, 301935, Note_on_c, 2, 59, 104
4, 302012, Note_off_c, 2, 54, 0
4, 302160, Control_c, 2, 11, 49
4, 302169, Note_on_c, 2, 54, 104
4, 302280, Control_c, 2, 11, 48
4, 302378, Note_off_c, 2, 47, 0
4, 302410, Note_on_c, 2, 52, 122
4, 302425, Note_off_c, 2, 54, 0
4, 302510, Note_off_c, 2, 63, 0
4, 302515, Note_off_c, 2, 59, 0
4, 302520, Control_c, 2, 11, 47
4, 302636, Note_on_c, 2, 55, 127
4, 302640, Control_c, 2, 11, 46
4, 302880, Control_c, 2, 11, 45
4, 302880, Note_on_c, 2, 59, 117
4, 303000, Control_c, 2, 11, 44
4, 303109, Note_on_c, 2, 62, 127
4, 303143, Note_off_c, 2, 59, 0
4, 303240, Control_c, 2, 11, 43
4, 303360, Control_c, 2, 11, 42
4, 303360, Note_on_c, 2, 59, 104
4, 303471, Note_off_c, 2, 55, 0
4, 303596, Note_on_c, 2, 55, 108
4, 303600, Control_c, 2, 11, 41
4, 303704, Note_off_c, 2, 52, 0
4, 303720, Control_c, 2, 11, 40
4, 303847, Note_on_c, 2, 52, 117
4, 303960, Control_c, 2, 11, 39
4, 303995, Note_off_c, 2, 55, 0
4, 304080, Control_c, 2, 11, 38
4, 304096, Note_on_c, 2, 55, 104
4, 304159, Note_off_c, 2, 59, 0
4, 304320, Control_c, 2, 11, 37
4, 304335, Note_on_c, 2, 59, 108
4, 304408, Note_off_c, 2, 62, 0
4, 304440, Control_c, 2, 11, 36
4, 304574, Note_on_c, 2, 62, 127
4, 304622, Note_off_c, 2, 59, 0
4, 304680, Control_c, 2, 11, 35
4, 304800, Control_c, 2, 11, 34
4, 304808, Note_on_c, 2, 59, 117
4, 304864, Note_off_c, 2, 55, 0
4, 305034, Note_on_c, 2, 55, 113
4, 305040, Control_c, 2, 11, 33
4, 305160, Control_c, 2, 11, 32
4, 305192, Note_off_c, 2, 52, 0
4, 305277, Note_off_c, 2, 55, 0
4, 305285, Note_on_c, 2, 45, 127
4, 305400, Control_c, 2, 11, 31
4, 305419, Note_off_c, 2, 62, 0
4, 305434, Note_off_c, 2, 59, 0
4, 305514, Note_on_c, 2, 52, 122
4, 305520, Control_c, 2, 11, 30
4, 305745, Note_on_c, 2, 57, 122
4, 305760, Control_c, 2, 11, 29
4, 305880, Control_c, 2, 11, 28
4, 305999, Note_on_c, 2, 61, 104
4, 306104, Note_off_c, 2, 57, 0
4, 306120, Control_c, 2, 11, 27
4, 306240, Control_c, 2, 11, 26
4, 306241, Note_on_c, 2, 57, 97
4, 306359, Note_off_c, 2, 52, 0
4, 306475, Note_on_c, 2, 52, 97
4, 306480, Control_c, 2, 11, 25
4, 306574, Note_off_c, 2, 45, 0
4, 306600, Control_c, 2, 11, 24
4, 306720, Note_on_c, 2, 45, 117
4, 306824, Note_off_c, 2, 52, 0
4, 306840, Control_c, 2, 11, 23
4, 306947, Note_on_c, 2, 52, 101
4, 306960, Control_c, 2, 11, 22
4, 306964, Note_off_c, 2, 57, 0
4, 307188, Note_on_c, 2, 57, 113
4, 307200, Control_c, 2, 11, 21
4, 307259, Note_off_c, 2, 61, 0
4, 307440, Control_c, 2, 11, 20
4, 307447, Note_on_c, 2, 61, 100
4, 307560, Control_c, 2, 11, 19
4, 307582, Note_off_c, 2, 57, 0
4, 307686, Note_on_c, 2, 57, 97
4, 307787, Note_off_c, 2, 52, 0
4, 307800, Control_c, 2, 11, 18
4, 307920, Control_c, 2, 11, 17
4, 307928, Note_on_c, 2, 52, 108
4, 308100, Note_off_c, 2, 45, 0
4, 308130, Note_off_c, 2, 52, 0
4, 308160, Control_c, 2, 11, 16
4, 308165, Note_on_c, 2, 45, 127
4, 308227, Note_off_c, 2, 57, 0
4, 308280, Control_c, 2, 11, 15
4, 308281, Note_off_c, 2, 61, 0
4, 308394, Note_on_c, 2, 52, 122
4, 308520, Control_c, 2, 11, 14
4, 308625, Note_on_c, 2, 57, 122
4, 308640, Control_c, 2, 11, 13
4, 308879, Note_on_c, 2, 61, 104
4, 308880, Control_c, 2, 11, 12
4, 308984, Note_off_c, 2, 57, 0
4, 309000, Control_c, 2, 11, 11
4, 309121, Note_on_c, 2, 57, 97
4, 309239, Note_off_c, 2, 52, 0
4, 309240, Control_c, 2, 11, 10
4, 309355, Note_on_c, 2, 52, 97
4, 309360, Control_c, 2, 11, 9
4, 309454, Note_off_c, 2, 45, 0
4, 309600, Control_c, 2, 11, 8
4, 309619, Note_on_c, 2, 47, 108
4, 309704, Note_off_c, 2, 52, 0
4, 309720, Control_c, 2, 11, 7
4, 309843, Note_on_c, 2, 55, 95
4, 309844, Note_off_c, 2, 57, 0
4, 309960, Control_c, 2, 11, 6
4, 310074, Note_on_c, 2, 59, 101
4, 310080, Control_c, 2, 11, 5
4, 310139, Note_off_c, 2, 61, 0
4, 310315, Note_on_c, 2, 62, 110
4, 310320, Control_c, 2, 11, 4
4, 310358, Note_off_c, 2, 59, 0
4, 310440, Control_c, 2, 11, 3
4, 310554, Note_on_c, 2, 59, 91
4, 310591, Note_off_c, 2, 55, 0
4, 310680, Control_c, 2, 11, 2
4, 310798, Note_on_c, 2, 55, 104
4, 310800, Control_c, 2, 11, 1
4, 310868, Note_off_c, 2, 59, 0
4, 310873, Note_off_c, 2, 47, 0
4, 310897, Note_off_c, 2, 62, 0
4, 310915, Note_off_c, 2, 55, 0
4, 311031, Control_c, 2, 7, 91
4, 311031, End_track
5, 0, Start_track
5, 0, Title_t, "\000"
5, 0, Control_c, 3, 0, 0
5, 0, Program_c, 3, 65
5, 0, Control_c, 3, 7, 100
5, 0, Control_c, 3, 10, 64
5, 0, Control_c, 3, 91, 127
5, 0, Control_c, 3, 93, 20
5, 630, Control_c, 3, 11, 127
5, 3444, Control_c, 3, 101, 0
5, 3446, Control_c, 3, 100, 0
5, 3449, Control_c, 3, 6, 2
5, 3451, Control_c, 3, 101, 127
5, 3454, Control_c, 3, 100, 127
5, 5359, Control_c, 3, 94, 0
5, 29078, Note_on_c, 3, 71, 127
5, 29296, Note_off_c, 3, 71, 0
5, 29332, Note_on_c, 3, 80, 110
5, 29574, Note_off_c, 3, 80, 0
5, 29589, Note_on_c, 3, 78, 127
5, 29807, Note_off_c, 3, 78, 0
5, 29832, Note_on_c, 3, 80, 110
5, 30054, Note_off_c, 3, 80, 0
5, 30074, Note_on_c, 3, 78, 127
5, 30282, Note_off_c, 3, 78, 0
5, 30306, Pitch_bend_c, 3, 7398
5, 30317, Note_on_c, 3, 80, 127
5, 30322, Pitch_bend_c, 3, 4756
5, 30342, Pitch_bend_c, 3, 2906
5, 30362, Pitch_bend_c, 3, 2113
5, 30403, Pitch_bend_c, 3, 2642
5, 30423, Pitch_bend_c, 3, 3699
5, 30443, Pitch_bend_c, 3, 5284
5, 30464, Pitch_bend_c, 3, 7134
5, 30484, Pitch_bend_c, 3, 8191
5, 30504, Pitch_bend_c, 3, 8192
5, 30620, Note_on_c, 3, 71, 127
5, 30625, Note_off_c, 3, 80, 0
5, 30868, Note_off_c, 3, 71, 0
5, 30949, Note_on_c, 3, 71, 127
5, 31278, Note_off_c, 3, 71, 0
5, 31354, Note_on_c, 3, 71, 117
5, 31409, Note_on_c, 3, 71, 127
5, 31671, Note_off_c, 3, 71, 0
5, 31673, Note_off_c, 3, 71, 0
5, 31697, Pitch_bend_c, 3, 7398
5, 31713, Note_on_c, 3, 78, 127
5, 31718, Pitch_bend_c, 3, 4227
5, 31734, Pitch_bend_c, 3, 1585
5, 31754, Pitch_bend_c, 3, 528
5, 31779, Pitch_bend_c, 3, 1321
5, 31794, Pitch_bend_c, 3, 3170
5, 31814, Pitch_bend_c, 3, 5548
5, 31839, Pitch_bend_c, 3, 7398
5, 31855, Pitch_bend_c, 3, 8191
5, 31875, Pitch_bend_c, 3, 8192
5, 32066, Note_off_c, 3, 78, 0
5, 32142, Note_on_c, 3, 76, 127
5, 32523, Note_off_c, 3, 76, 0
5, 32608, Note_on_c, 3, 76, 127
5, 32845, Note_on_c, 3, 74, 127
5, 32871, Note_off_c, 3, 76, 0
5, 33052, Pitch_bend_c, 3, 8191
5, 33069, Note_off_c, 3, 74, 0
5, 33069, Pitch_bend_c, 3, 5548
5, 33089, Pitch_bend_c, 3, 2378
5, 33109, Note_on_c, 3, 78, 127
5, 33113, Pitch_bend_c, 3, 528
5, 33129, Pitch_bend_c, 3, 264
5, 33148, Pitch_bend_c, 3, 1321
5, 33168, Pitch_bend_c, 3, 3434
5, 33195, Pitch_bend_c, 3, 6077
5, 33210, Pitch_bend_c, 3, 7662
5, 33230, Pitch_bend_c, 3, 8192
5, 33372, Note_on_c, 3, 71, 104
5, 33382, Note_off_c, 3, 78, 0
5, 33604, Note_off_c, 3, 71, 0
5, 33680, Note_on_c, 3, 71, 108
5, 34084, Note_off_c, 3, 71, 0
5, 34281, Note_on_c, 3, 71, 127
5, 34518, Note_off_c, 3, 71, 0
5, 34538, Note_on_c, 3, 76, 127
5, 34775, Note_off_c, 3, 76, 0
5, 34832, Note_on_c, 3, 76, 127
5, 35074, Note_on_c, 3, 74, 127
5, 35095, Note_off_c, 3, 76, 0
5, 35292, Note_off_c, 3, 74, 0
5, 35317, Note_on_c, 3, 76, 127
5, 35509, Note_off_c, 3, 76, 0
5, 35555, Note_on_c, 3, 76, 113
5, 35772, Note_off_c, 3, 76, 0
5, 35782, Note_on_c, 3, 74, 127
5, 36019, Note_off_c, 3, 74, 0
5, 36030, Pitch_bend_c, 3, 6341
5, 36044, Note_on_c, 3, 78, 127
5, 36050, Pitch_bend_c, 3, 4227
5, 36069, Pitch_bend_c, 3, 3434
5, 36109, Pitch_bend_c, 3, 4491
5, 36131, Pitch_bend_c, 3, 6341
5, 36146, Pitch_bend_c, 3, 7662
5, 36167, Pitch_bend_c, 3, 8192
5, 36434, Note_off_c, 3, 78, 0
5, 36464, Note_on_c, 3, 71, 127
5, 36864, Note_off_c, 3, 71, 0
5, 36945, Note_on_c, 3, 71, 117
5, 37176, Note_on_c, 3, 69, 122
5, 37182, Note_off_c, 3, 71, 0
5, 37395, Note_off_c, 3, 69, 0
5, 37399, Pitch_bend_c, 3, 7398
5, 37419, Pitch_bend_c, 3, 5020
5, 37435, Note_on_c, 3, 74, 122
5, 37441, Pitch_bend_c, 3, 2642
5, 37461, Pitch_bend_c, 3, 2378
5, 37480, Pitch_bend_c, 3, 3434
5, 37503, Pitch_bend_c, 3, 5548
5, 37521, Pitch_bend_c, 3, 7398
5, 37536, Pitch_bend_c, 3, 8191
5, 37557, Pitch_bend_c, 3, 8192
5, 37693, Note_on_c, 3, 71, 97
5, 37744, Note_off_c, 3, 74, 0
5, 37854, Note_off_c, 3, 71, 0
5, 37930, Note_on_c, 3, 71, 88
5, 38168, Note_on_c, 3, 69, 83
5, 38173, Note_off_c, 3, 71, 0
5, 38396, Note_off_c, 3, 69, 0
5, 38425, Note_on_c, 3, 71, 75
5, 38734, Note_off_c, 3, 71, 0
5, 40785, Note_on_c, 3, 78, 127
5, 41026, Note_on_c, 3, 80, 110
5, 41052, Note_off_c, 3, 78, 0
5, 41245, Note_on_c, 3, 78, 110
5, 41289, Note_off_c, 3, 80, 0
5, 41431, Note_off_c, 3, 78, 0
5, 41467, Pitch_bend_c, 3, 7134
5, 41486, Pitch_bend_c, 3, 6077
5, 41492, Note_on_c, 3, 83, 127
5, 41507, Pitch_bend_c, 3, 5284
5, 41528, Pitch_bend_c, 3, 4756
5, 41568, Pitch_bend_c, 3, 5020
5, 41588, Pitch_bend_c, 3, 6605
5, 41609, Pitch_bend_c, 3, 7662
5, 41629, Pitch_bend_c, 3, 8192
5, 41906, Control_c, 3, 1, 127
5, 42042, Control_c, 3, 1, 0
5, 42143, Note_off_c, 3, 83, 0
5, 42164, Note_on_c, 3, 71, 117
5, 42426, Note_on_c, 3, 74, 122
5, 42432, Note_off_c, 3, 71, 0
5, 42462, Pitch_bend_c, 3, 7662
5, 42483, Pitch_bend_c, 3, 6605
5, 42503, Pitch_bend_c, 3, 5812
5, 42517, Pitch_bend_c, 3, 5548
5, 42544, Pitch_bend_c, 3, 5812
5, 42559, Pitch_bend_c, 3, 6605
5, 42579, Pitch_bend_c, 3, 7662
5, 42599, Pitch_bend_c, 3, 8192
5, 42640, Note_off_c, 3, 74, 0
5, 42700, Note_on_c, 3, 74, 101
5, 42927, Note_off_c, 3, 74, 0
5, 42953, Note_on_c, 3, 74, 127
5, 43130, Pitch_bend_c, 3, 7926
5, 43155, Pitch_bend_c, 3, 5812
5, 43170, Pitch_bend_c, 3, 3963
5, 43174, Note_off_c, 3, 74, 0
5, 43179, Note_on_c, 3, 78, 127
5, 43190, Pitch_bend_c, 3, 3170
5, 43216, Pitch_bend_c, 3, 3434
5, 43230, Pitch_bend_c, 3, 4756
5, 43251, Pitch_bend_c, 3, 6869
5, 43271, Pitch_bend_c, 3, 7926
5, 43292, Pitch_bend_c, 3, 8192
5, 43477, Note_on_c, 3, 76, 122
5, 43489, Note_off_c, 3, 78, 0
5, 43615, Note_off_c, 3, 76, 0
5, 43695, Note_on_c, 3, 76, 127
5, 44202, Note_off_c, 3, 76, 0
5, 44251, Note_on_c, 3, 74, 127
5, 44485, Pitch_bend_c, 3, 8191
5, 44500, Note_off_c, 3, 74, 0
5, 44509, Pitch_bend_c, 3, 6341
5, 44514, Note_on_c, 3, 78, 127
5, 44524, Pitch_bend_c, 3, 3963
5, 44545, Pitch_bend_c, 3, 2642
5, 44564, Pitch_bend_c, 3, 2378
5, 44586, Pitch_bend_c, 3, 3434
5, 44606, Pitch_bend_c, 3, 5020
5, 44626, Pitch_bend_c, 3, 7134
5, 44647, Pitch_bend_c, 3, 7926
5, 44667, Pitch_bend_c, 3, 8192
5, 44778, Note_on_c, 3, 74, 122
5, 44788, Note_off_c, 3, 78, 0
5, 44945, Note_off_c, 3, 74, 0
5, 45031, Note_on_c, 3, 74, 122
5, 45373, Note_off_c, 3, 74, 0
5, 45823, Note_on_c, 3, 74, 127
5, 46035, Note_off_c, 3, 74, 0
5, 46039, Pitch_bend_c, 3, 6341
5, 46060, Pitch_bend_c, 3, 3963
5, 46079, Pitch_bend_c, 3, 2906
5, 46084, Note_on_c, 3, 76, 127
5, 46100, Pitch_bend_c, 3, 3434
5, 46121, Pitch_bend_c, 3, 5284
5, 46146, Pitch_bend_c, 3, 7134
5, 46160, Pitch_bend_c, 3, 8191
5, 46181, Pitch_bend_c, 3, 8192
5, 46556, Note_off_c, 3, 76, 0
5, 46560, Note_on_c, 3, 74, 127
5, 46753, Note_off_c, 3, 74, 0
5, 46797, Note_on_c, 3, 76, 127
5, 47077, Note_on_c, 3, 74, 108
5, 47082, Note_off_c, 3, 76, 0
5, 47177, Note_off_c, 3, 74, 0
5, 47272, Note_on_c, 3, 76, 127
5, 47466, Note_off_c, 3, 76, 0
5, 47531, Pitch_bend_c, 3, 6341
5, 47546, Note_on_c, 3, 78, 127
5, 47557, Pitch_bend_c, 3, 3699
5, 47572, Pitch_bend_c, 3, 2113
5, 47596, Pitch_bend_c, 3, 1849
5, 47613, Pitch_bend_c, 3, 2642
5, 47632, Pitch_bend_c, 3, 4491
5, 47653, Pitch_bend_c, 3, 6605
5, 47673, Pitch_bend_c, 3, 7926
5, 47693, Pitch_bend_c, 3, 8192
5, 47940, Note_off_c, 3, 78, 0
5, 47940, Note_on_c, 3, 71, 122
5, 48345, Note_off_c, 3, 71, 0
5, 48456, Note_on_c, 3, 71, 127
5, 48749, Note_on_c, 3, 69, 117
5, 48765, Note_off_c, 3, 71, 0
5, 48946, Note_off_c, 3, 69, 0
5, 49012, Note_on_c, 3, 66, 100
5, 49554, Note_off_c, 3, 66, 0
5, 52058, Note_on_c, 3, 80, 127
5, 52260, Note_on_c, 3, 78, 127
5, 52302, Note_off_c, 3, 80, 0
5, 52453, Note_off_c, 3, 78, 0
5, 52483, Pitch_bend_c, 3, 7662
5, 52499, Pitch_bend_c, 3, 4756
5, 52504, Note_on_c, 3, 83, 127
5, 52519, Pitch_bend_c, 3, 1056
5, 52540, Pitch_bend_c, 3, 0
5, 52580, Pitch_bend_c, 3, 792
5, 52595, Pitch_bend_c, 3, 3699
5, 52620, Pitch_bend_c, 3, 6341
5, 52639, Pitch_bend_c, 3, 7662
5, 52656, Pitch_bend_c, 3, 8192
5, 53015, Note_off_c, 3, 83, 0
5, 53015, Note_on_c, 3, 71, 113
5, 53237, Note_on_c, 3, 75, 104
5, 53266, Note_off_c, 3, 71, 0
5, 53424, Note_off_c, 3, 75, 0
5, 53495, Note_on_c, 3, 75, 95
5, 53657, Note_off_c, 3, 75, 0
5, 53726, Note_on_c, 3, 75, 95
5, 53733, Pitch_bend_c, 3, 7926
5, 53748, Pitch_bend_c, 3, 6341
5, 53768, Pitch_bend_c, 3, 5020
5, 53788, Pitch_bend_c, 3, 3963
5, 53828, Pitch_bend_c, 3, 4491
5, 53853, Pitch_bend_c, 3, 6341
5, 53868, Pitch_bend_c, 3, 7662
5, 53889, Pitch_bend_c, 3, 8192
5, 54198, Note_off_c, 3, 75, 0
5, 54710, Pitch_bend_c, 3, 8191
5, 54720, Note_on_c, 3, 78, 127
5, 54729, Pitch_bend_c, 3, 7662
5, 54750, Pitch_bend_c, 3, 8191
5, 54765, Pitch_bend_c, 3, 8192
5, 54957, Note_on_c, 3, 76, 127
5, 54983, Note_off_c, 3, 78, 0
5, 55195, Note_on_c, 3, 74, 127
5, 55230, Note_off_c, 3, 76, 0
5, 55362, Note_off_c, 3, 74, 0
5, 55417, Note_on_c, 3, 76, 127
5, 55423, Pitch_bend_c, 3, 6605
5, 55443, Pitch_bend_c, 3, 4491
5, 55463, Pitch_bend_c, 3, 3434
5, 55488, Pitch_bend_c, 3, 3963
5, 55508, Pitch_bend_c, 3, 5812
5, 55522, Pitch_bend_c, 3, 7398
5, 55544, Pitch_bend_c, 3, 8191
5, 55564, Pitch_bend_c, 3, 8192
5, 55882, Note_on_c, 3, 74, 127
5, 55888, Note_off_c, 3, 76, 0
5, 56130, Note_on_c, 3, 78, 127
5, 56134, Note_off_c, 3, 74, 0
5, 56140, Pitch_bend_c, 3, 6869
5, 56161, Pitch_bend_c, 3, 5020
5, 56180, Pitch_bend_c, 3, 3963
5, 56201, Pitch_bend_c, 3, 4227
5, 56226, Pitch_bend_c, 3, 5812
5, 56241, Pitch_bend_c, 3, 7398
5, 56260, Pitch_bend_c, 3, 8191
5, 56281, Pitch_bend_c, 3, 8192
5, 56383, Note_on_c, 3, 71, 117
5, 56449, Note_off_c, 3, 78, 0
5, 56580, Note_off_c, 3, 71, 0
5, 56636, Note_on_c, 3, 71, 97
5, 57010, Note_off_c, 3, 71, 0
5, 57347, Note_on_c, 3, 69, 113
5, 57535, Note_off_c, 3, 69, 0
5, 57596, Pitch_bend_c, 3, 6869
5, 57601, Note_on_c, 3, 71, 127
5, 57616, Pitch_bend_c, 3, 5020
5, 57636, Pitch_bend_c, 3, 3963
5, 57677, Pitch_bend_c, 3, 5284
5, 57697, Pitch_bend_c, 3, 6869
5, 57717, Pitch_bend_c, 3, 7926
5, 57737, Pitch_bend_c, 3, 8192
5, 57879, Note_on_c, 3, 69, 104
5, 57909, Note_off_c, 3, 71, 0
5, 58090, Note_off_c, 3, 69, 0
5, 58135, Note_on_c, 3, 71, 113
5, 58424, Note_on_c, 3, 69, 117
5, 58430, Note_off_c, 3, 71, 0
5, 58656, Note_off_c, 3, 69, 0
5, 58713, Note_on_c, 3, 71, 113
5, 58940, Note_on_c, 3, 69, 122
5, 58991, Note_off_c, 3, 71, 0
5, 59157, Note_off_c, 3, 69, 0
5, 59167, Pitch_bend_c, 3, 7662
5, 59183, Note_on_c, 3, 74, 127
5, 59188, Pitch_bend_c, 3, 5284
5, 59203, Pitch_bend_c, 3, 3434
5, 59223, Pitch_bend_c, 3, 2642
5, 59263, Pitch_bend_c, 3, 3434
5, 59284, Pitch_bend_c, 3, 5020
5, 59304, Pitch_bend_c, 3, 6869
5, 59325, Pitch_bend_c, 3, 7926
5, 59345, Pitch_bend_c, 3, 8192
5, 59607, Note_off_c, 3, 74, 0
5, 59618, Note_on_c, 3, 71, 117
5, 59992, Note_off_c, 3, 71, 0
5, 60051, Note_on_c, 3, 71, 101
5, 60274, Note_on_c, 3, 69, 127
5, 60279, Note_off_c, 3, 71, 0
5, 60457, Note_off_c, 3, 69, 0
5, 60501, Pitch_bend_c, 3, 6077
5, 60518, Note_on_c, 3, 71, 127
5, 60522, Pitch_bend_c, 3, 3170
5, 60542, Pitch_bend_c, 3, 1849
5, 60582, Pitch_bend_c, 3, 3699
5, 60598, Pitch_bend_c, 3, 6077
5, 60619, Pitch_bend_c, 3, 7662
5, 60639, Pitch_bend_c, 3, 8192
5, 60966, Note_on_c, 3, 69, 101
5, 60977, Note_off_c, 3, 71, 0
5, 61392, Note_off_c, 3, 69, 0
5, 61412, Note_on_c, 3, 66, 65
5, 61751, Note_off_c, 3, 66, 0
5, 63129, Note_on_c, 3, 78, 95
5, 63261, Note_off_c, 3, 78, 0
5, 63363, Note_on_c, 3, 78, 110
5, 63394, Pitch_bend_c, 3, 7134
5, 63414, Pitch_bend_c, 3, 4227
5, 63433, Pitch_bend_c, 3, 2113
5, 63453, Pitch_bend_c, 3, 1849
5, 63474, Pitch_bend_c, 3, 3170
5, 63495, Pitch_bend_c, 3, 5812
5, 63515, Pitch_bend_c, 3, 7398
5, 63535, Pitch_bend_c, 3, 8191
5, 63554, Pitch_bend_c, 3, 8192
5, 63631, Note_on_c, 3, 80, 104
5, 63665, Note_off_c, 3, 78, 0
5, 63847, Note_on_c, 3, 78, 110
5, 63914, Note_off_c, 3, 80, 0
5, 64034, Note_off_c, 3, 78, 0
5, 64096, Note_on_c, 3, 83, 127
5, 64369, Note_on_c, 3, 74, 86
5, 64394, Note_off_c, 3, 83, 0
5, 64602, Note_off_c, 3, 74, 0
5, 64622, Note_on_c, 3, 71, 101
5, 64784, Note_off_c, 3, 71, 0
5, 64824, Pitch_bend_c, 3, 6869
5, 64834, Note_on_c, 3, 74, 127
5, 64843, Pitch_bend_c, 3, 4756
5, 64864, Pitch_bend_c, 3, 3434
5, 64885, Pitch_bend_c, 3, 3699
5, 64905, Pitch_bend_c, 3, 5548
5, 64924, Pitch_bend_c, 3, 7398
5, 64944, Pitch_bend_c, 3, 8191
5, 64960, Pitch_bend_c, 3, 8192
5, 65072, Note_on_c, 3, 71, 91
5, 65082, Note_off_c, 3, 74, 0
5, 65264, Note_off_c, 3, 71, 0
5, 65313, Note_on_c, 3, 74, 127
5, 65744, Note_off_c, 3, 74, 0
5, 66181, Pitch_bend_c, 3, 7662
5, 66202, Pitch_bend_c, 3, 5020
5, 66222, Pitch_bend_c, 3, 2642
5, 66236, Pitch_bend_c, 3, 1585
5, 66251, Note_on_c, 3, 78, 127
5, 66256, Pitch_bend_c, 3, 2113
5, 66276, Pitch_bend_c, 3, 3699
5, 66297, Pitch_bend_c, 3, 6341
5, 66316, Pitch_bend_c, 3, 7662
5, 66338, Pitch_bend_c, 3, 8192
5, 66545, Note_on_c, 3, 76, 122
5, 66580, Note_off_c, 3, 78, 0
5, 66773, Note_off_c, 3, 76, 0
5, 66843, Note_on_c, 3, 76, 127
5, 67278, Note_off_c, 3, 76, 0
5, 67353, Note_on_c, 3, 76, 122
5, 67555, Note_on_c, 3, 74, 127
5, 67592, Note_off_c, 3, 76, 0
5, 67752, Note_off_c, 3, 74, 0
5, 67799, Note_on_c, 3, 76, 122
5, 67809, Pitch_bend_c, 3, 7926
5, 67829, Pitch_bend_c, 3, 6341
5, 67850, Pitch_bend_c, 3, 5548
5, 67869, Pitch_bend_c, 3, 6077
5, 67889, Pitch_bend_c, 3, 7398
5, 67910, Pitch_bend_c, 3, 8191
5, 67930, Pitch_bend_c, 3, 8192
5, 68036, Note_on_c, 3, 74, 117
5, 68067, Note_off_c, 3, 76, 0
5, 68309, Note_off_c, 3, 74, 0
5, 68315, Note_on_c, 3, 78, 110
5, 68719, Note_off_c, 3, 78, 0
5, 68906, Note_on_c, 3, 74, 127
5, 69078, Note_off_c, 3, 74, 0
5, 69133, Note_on_c, 3, 76, 127
5, 69142, Pitch_bend_c, 3, 6869
5, 69163, Pitch_bend_c, 3, 4756
5, 69184, Pitch_bend_c, 3, 3699
5, 69204, Pitch_bend_c, 3, 3963
5, 69218, Pitch_bend_c, 3, 5548
5, 69239, Pitch_bend_c, 3, 7398
5, 69258, Pitch_bend_c, 3, 8191
5, 69280, Pitch_bend_c, 3, 8192
5, 69386, Note_on_c, 3, 74, 127
5, 69426, Note_off_c, 3, 76, 0
5, 69608, Note_off_c, 3, 74, 0
5, 69659, Note_on_c, 3, 76, 127
5, 69927, Note_on_c, 3, 74, 127
5, 69952, Note_off_c, 3, 76, 0
5, 70093, Note_off_c, 3, 74, 0
5, 70149, Note_on_c, 3, 76, 127
5, 70387, Note_on_c, 3, 74, 127
5, 70391, Note_off_c, 3, 76, 0
5, 70644, Note_off_c, 3, 74, 0
5, 70665, Note_on_c, 3, 78, 127
5, 70694, Pitch_bend_c, 3, 6869
5, 70715, Pitch_bend_c, 3, 3963
5, 70731, Pitch_bend_c, 3, 2113
5, 70751, Pitch_bend_c, 3, 1585
5, 70771, Pitch_bend_c, 3, 2378
5, 70796, Pitch_bend_c, 3, 3963
5, 70816, Pitch_bend_c, 3, 6077
5, 70831, Pitch_bend_c, 3, 7662
5, 70852, Pitch_bend_c, 3, 8192
5, 71109, Pitch_bend_c, 3, 7398
5, 71130, Pitch_bend_c, 3, 6077
5, 71150, Pitch_bend_c, 3, 4756
5, 71169, Pitch_bend_c, 3, 3699
5, 71211, Pitch_bend_c, 3, 6341
5, 71231, Note_off_c, 3, 78, 0
5, 71231, Pitch_bend_c, 3, 7662
5, 71250, Pitch_bend_c, 3, 8192
5, 71348, Pitch_bend_c, 3, 8191
5, 71368, Pitch_bend_c, 3, 5812
5, 71388, Pitch_bend_c, 3, 4491
5, 71393, Note_on_c, 3, 71, 113
5, 71428, Pitch_bend_c, 3, 6077
5, 71449, Pitch_bend_c, 3, 7662
5, 71464, Pitch_bend_c, 3, 8192
5, 71833, Note_off_c, 3, 71, 0
5, 71858, Note_on_c, 3, 69, 94
5, 72136, Note_off_c, 3, 69, 0
5, 72167, Note_on_c, 3, 66, 76
5, 72889, Note_off_c, 3, 66, 0
5, 75237, Pitch_bend_c, 3, 7398
5, 75253, Pitch_bend_c, 3, 5548
5, 75273, Pitch_bend_c, 3, 4227
5, 75294, Note_on_c, 3, 74, 127
5, 75299, Pitch_bend_c, 3, 3434
5, 75319, Pitch_bend_c, 3, 3170
5, 75354, Pitch_bend_c, 3, 4227
5, 75380, Pitch_bend_c, 3, 5548
5, 75394, Pitch_bend_c, 3, 7134
5, 75415, Pitch_bend_c, 3, 7926
5, 75435, Pitch_bend_c, 3, 8192
5, 75708, Note_off_c, 3, 74, 0
5, 75798, Note_on_c, 3, 74, 127
5, 76113, Note_off_c, 3, 74, 0
5, 76188, Note_on_c, 3, 74, 122
5, 76391, Note_on_c, 3, 71, 127
5, 76395, Note_off_c, 3, 74, 0
5, 76618, Note_off_c, 3, 71, 0
5, 76623, Pitch_bend_c, 3, 7134
5, 76643, Pitch_bend_c, 3, 5020
5, 76648, Note_on_c, 3, 74, 127
5, 76662, Pitch_bend_c, 3, 3434
5, 76684, Pitch_bend_c, 3, 2378
5, 76724, Pitch_bend_c, 3, 3170
5, 76744, Pitch_bend_c, 3, 5020
5, 76765, Pitch_bend_c, 3, 6869
5, 76784, Pitch_bend_c, 3, 7926
5, 76805, Pitch_bend_c, 3, 8192
5, 76957, Note_off_c, 3, 74, 0
5, 76967, Note_on_c, 3, 71, 127
5, 77336, Note_off_c, 3, 71, 0
5, 77425, Note_on_c, 3, 71, 127
5, 77601, Note_off_c, 3, 71, 0
5, 77627, Note_on_c, 3, 69, 127
5, 77775, Note_off_c, 3, 69, 0
5, 77835, Note_on_c, 3, 71, 127
5, 78178, Note_off_c, 3, 71, 0
5, 78279, Note_on_c, 3, 71, 127
5, 78683, Note_off_c, 3, 71, 0
5, 78775, Note_on_c, 3, 71, 127
5, 79003, Note_off_c, 3, 71, 0
5, 79012, Note_on_c, 3, 69, 122
5, 79240, Pitch_bend_c, 3, 6341
5, 79245, Note_off_c, 3, 69, 0
5, 79261, Pitch_bend_c, 3, 3434
5, 79281, Note_on_c, 3, 71, 127
5, 79281, Pitch_bend_c, 3, 1056
5, 79301, Pitch_bend_c, 3, 528
5, 79320, Pitch_bend_c, 3, 1056
5, 79336, Pitch_bend_c, 3, 2642
5, 79357, Pitch_bend_c, 3, 5020
5, 79377, Pitch_bend_c, 3, 7134
5, 79397, Pitch_bend_c, 3, 8191
5, 79417, Pitch_bend_c, 3, 8192
5, 79618, Note_off_c, 3, 71, 0
5, 79634, Note_on_c, 3, 73, 95
5, 79903, Note_off_c, 3, 73, 0
5, 80206, Note_on_c, 3, 71, 127
5, 80442, Note_on_c, 3, 73, 104
5, 80447, Note_off_c, 3, 71, 0
5, 80670, Note_on_c, 3, 71, 127
5, 80680, Note_off_c, 3, 73, 0
5, 80853, Note_off_c, 3, 71, 0
5, 80898, Pitch_bend_c, 3, 6869
5, 80917, Pitch_bend_c, 3, 5548
5, 80929, Note_on_c, 3, 73, 104
5, 80938, Pitch_bend_c, 3, 4756
5, 80979, Pitch_bend_c, 3, 5548
5, 80998, Pitch_bend_c, 3, 6605
5, 81018, Pitch_bend_c, 3, 7662
5, 81039, Pitch_bend_c, 3, 8192
5, 81217, Note_off_c, 3, 73, 0
5, 81306, Note_on_c, 3, 73, 110
5, 81579, Note_off_c, 3, 73, 0
5, 81671, Note_on_c, 3, 73, 110
5, 81874, Note_off_c, 3, 73, 0
5, 81884, Note_on_c, 3, 71, 127
5, 82090, Note_off_c, 3, 71, 0
5, 82116, Pitch_bend_c, 3, 6869
5, 82137, Pitch_bend_c, 3, 5020
5, 82159, Pitch_bend_c, 3, 3963
5, 82161, Note_on_c, 3, 75, 127
5, 82196, Pitch_bend_c, 3, 5020
5, 82218, Pitch_bend_c, 3, 6341
5, 82238, Pitch_bend_c, 3, 7662
5, 82253, Pitch_bend_c, 3, 8192
5, 82499, Note_off_c, 3, 75, 0
5, 82521, Note_on_c, 3, 71, 104
5, 82885, Note_off_c, 3, 71, 0
5, 82910, Note_on_c, 3, 68, 87
5, 83153, Note_off_c, 3, 68, 0
5, 83157, Note_on_c, 3, 71, 104
5, 83233, Note_on_c, 3, 71, 127
5, 83283, Note_off_c, 3, 71, 0
5, 83440, Pitch_bend_c, 3, 7398
5, 83451, Note_off_c, 3, 71, 0
5, 83460, Pitch_bend_c, 3, 4491
5, 83470, Note_on_c, 3, 76, 127
5, 83480, Pitch_bend_c, 3, 2113
5, 83501, Pitch_bend_c, 3, 1585
5, 83527, Pitch_bend_c, 3, 2378
5, 83542, Pitch_bend_c, 3, 4491
5, 83562, Pitch_bend_c, 3, 6605
5, 83581, Pitch_bend_c, 3, 7926
5, 83602, Pitch_bend_c, 3, 8192
5, 83794, Note_off_c, 3, 76, 0
5, 83875, Note_on_c, 3, 76, 127
5, 84285, Note_off_c, 3, 76, 0
5, 84376, Note_on_c, 3, 76, 127
5, 84658, Note_on_c, 3, 74, 122
5, 84663, Note_off_c, 3, 76, 0
5, 84831, Note_off_c, 3, 74, 0
5, 84875, Pitch_bend_c, 3, 7134
5, 84891, Pitch_bend_c, 3, 4491
5, 84900, Note_on_c, 3, 76, 127
5, 84910, Pitch_bend_c, 3, 2906
5, 84952, Pitch_bend_c, 3, 4227
5, 84972, Pitch_bend_c, 3, 6605
5, 84992, Pitch_bend_c, 3, 7926
5, 85013, Pitch_bend_c, 3, 8192
5, 85195, Note_off_c, 3, 76, 0
5, 85220, Note_on_c, 3, 71, 117
5, 85518, Note_off_c, 3, 71, 0
5, 85881, Note_on_c, 3, 78, 127
5, 86053, Note_off_c, 3, 78, 0
5, 86099, Note_on_c, 3, 80, 127
5, 86300, Note_on_c, 3, 78, 127
5, 86326, Note_off_c, 3, 80, 0
5, 86499, Note_off_c, 3, 78, 0
5, 86507, Pitch_bend_c, 3, 7662
5, 86528, Pitch_bend_c, 3, 4491
5, 86549, Note_on_c, 3, 83, 127
5, 86549, Pitch_bend_c, 3, 1585
5, 86569, Pitch_bend_c, 3, 0
5, 86610, Pitch_bend_c, 3, 1056
5, 86628, Pitch_bend_c, 3, 3434
5, 86650, Pitch_bend_c, 3, 6077
5, 86670, Pitch_bend_c, 3, 7662
5, 86690, Pitch_bend_c, 3, 8192
5, 86892, Note_off_c, 3, 83, 0
5, 86988, Note_on_c, 3, 83, 127
5, 87307, Control_c, 3, 1, 127
5, 87346, Control_c, 3, 1, 0
5, 87484, Note_off_c, 3, 83, 0
5, 87509, Note_on_c, 3, 80, 127
5, 87732, Note_on_c, 3, 78, 110
5, 87747, Note_off_c, 3, 80, 0
5, 87949, Note_off_c, 3, 78, 0
5, 87985, Pitch_bend_c, 3, 7398
5, 87999, Note_on_c, 3, 80, 110
5, 87999, Pitch_bend_c, 3, 6077
5, 88020, Pitch_bend_c, 3, 5284
5, 88039, Pitch_bend_c, 3, 5020
5, 88079, Pitch_bend_c, 3, 5284
5, 88099, Pitch_bend_c, 3, 6341
5, 88121, Pitch_bend_c, 3, 7398
5, 88141, Pitch_bend_c, 3, 8191
5, 88160, Pitch_bend_c, 3, 8192
5, 88529, Note_off_c, 3, 80, 0
5, 88941, Note_on_c, 3, 71, 127
5, 89152, Note_off_c, 3, 71, 0
5, 89193, Pitch_bend_c, 3, 7662
5, 89213, Pitch_bend_c, 3, 5548
5, 89222, Note_on_c, 3, 80, 110
5, 89233, Pitch_bend_c, 3, 3434
5, 89253, Pitch_bend_c, 3, 2642
5, 89274, Pitch_bend_c, 3, 3170
5, 89294, Pitch_bend_c, 3, 5020
5, 89314, Pitch_bend_c, 3, 7134
5, 89334, Pitch_bend_c, 3, 8191
5, 89354, Pitch_bend_c, 3, 8192
5, 89445, Note_off_c, 3, 80, 0
5, 89480, Note_on_c, 3, 78, 110
5, 89678, Note_off_c, 3, 78, 0
5, 89712, Note_on_c, 3, 80, 127
5, 90152, Note_off_c, 3, 80, 0
5, 90172, Note_on_c, 3, 71, 127
5, 90583, Pitch_bend_c, 3, 6605
5, 90592, Note_off_c, 3, 71, 0
5, 90608, Note_on_c, 3, 78, 127
5, 90608, Pitch_bend_c, 3, 4227
5, 90623, Pitch_bend_c, 3, 2642
5, 90647, Pitch_bend_c, 3, 1849
5, 90668, Pitch_bend_c, 3, 2642
5, 90684, Pitch_bend_c, 3, 4227
5, 90709, Pitch_bend_c, 3, 6341
5, 90730, Pitch_bend_c, 3, 7662
5, 90750, Pitch_bend_c, 3, 8192
5, 91219, Note_off_c, 3, 78, 0
5, 91844, Note_on_c, 3, 71, 122
5, 92097, Note_off_c, 3, 71, 0
5, 92137, Pitch_bend_c, 3, 7398
5, 92156, Pitch_bend_c, 3, 5020
5, 92167, Note_on_c, 3, 75, 127
5, 92181, Pitch_bend_c, 3, 3434
5, 92198, Pitch_bend_c, 3, 2906
5, 92212, Pitch_bend_c, 3, 3963
5, 92233, Pitch_bend_c, 3, 6077
5, 92253, Pitch_bend_c, 3, 7662
5, 92278, Pitch_bend_c, 3, 8192
5, 92471, Note_off_c, 3, 75, 0
5, 92511, Note_on_c, 3, 73, 127
5, 92662, Note_off_c, 3, 73, 0
5, 92728, Note_on_c, 3, 75, 127
5, 93178, Note_off_c, 3, 75, 0
5, 93217, Note_on_c, 3, 68, 110
5, 93547, Note_off_c, 3, 68, 0
5, 93562, Pitch_bend_c, 3, 8191
5, 93583, Pitch_bend_c, 3, 6341
5, 93598, Note_on_c, 3, 73, 127
5, 93603, Pitch_bend_c, 3, 4756
5, 93623, Pitch_bend_c, 3, 3963
5, 93643, Pitch_bend_c, 3, 4491
5, 93664, Pitch_bend_c, 3, 5812
5, 93679, Pitch_bend_c, 3, 7134
5, 93699, Pitch_bend_c, 3, 8191
5, 93719, Pitch_bend_c, 3, 8192
5, 93849, Note_off_c, 3, 73, 0
5, 93861, Note_on_c, 3, 68, 95
5, 94093, Note_on_c, 3, 71, 113
5, 94109, Note_off_c, 3, 68, 0
5, 94543, Note_off_c, 3, 71, 0
5, 94782, Note_on_c, 3, 71, 127
5, 94985, Note_off_c, 3, 71, 0
5, 95065, Note_on_c, 3, 71, 127
5, 95106, Pitch_bend_c, 3, 8191
5, 95121, Pitch_bend_c, 3, 7662
5, 95142, Pitch_bend_c, 3, 7926
5, 95161, Pitch_bend_c, 3, 8192
5, 95616, Pitch_bend_c, 3, 7398
5, 95637, Pitch_bend_c, 3, 6341
5, 95657, Pitch_bend_c, 3, 5020
5, 95673, Pitch_bend_c, 3, 3963
5, 95693, Pitch_bend_c, 3, 2906
5, 95713, Pitch_bend_c, 3, 2642
5, 95718, Note_off_c, 3, 71, 0
5, 95732, Pitch_bend_c, 3, 6077
5, 95752, Pitch_bend_c, 3, 7398
5, 95773, Pitch_bend_c, 3, 8191
5, 95793, Pitch_bend_c, 3, 8192
5, 97192, Note_on_c, 3, 66, 127
5, 97376, Note_off_c, 3, 66, 0
5, 97401, Note_on_c, 3, 68, 110
5, 97557, Note_off_c, 3, 68, 0
5, 97598, Note_on_c, 3, 71, 127
5, 97800, Note_off_c, 3, 71, 0
5, 97846, Pitch_bend_c, 3, 8191
5, 97851, Note_on_c, 3, 75, 110
5, 97866, Pitch_bend_c, 3, 7134
5, 97885, Pitch_bend_c, 3, 5812
5, 97922, Pitch_bend_c, 3, 7134
5, 97942, Pitch_bend_c, 3, 7926
5, 97962, Pitch_bend_c, 3, 8192
5, 98350, Note_off_c, 3, 75, 0
5, 98365, Note_on_c, 3, 76, 122
5, 98543, Note_off_c, 3, 76, 0
5, 98594, Pitch_bend_c, 3, 8191
5, 98609, Note_on_c, 3, 75, 127
5, 98614, Note_on_c, 3, 76, 108
5, 98624, Pitch_bend_c, 3, 7398
5, 98639, Pitch_bend_c, 3, 6869
5, 98658, Pitch_bend_c, 3, 7134
5, 98664, Note_off_c, 3, 76, 0
5, 98679, Pitch_bend_c, 3, 8191
5, 98700, Pitch_bend_c, 3, 8192
5, 99074, Note_on_c, 3, 76, 122
5, 99089, Note_off_c, 3, 75, 0
5, 99251, Note_off_c, 3, 76, 0
5, 99296, Pitch_bend_c, 3, 8191
5, 99305, Note_on_c, 3, 75, 127
5, 99316, Pitch_bend_c, 3, 6077
5, 99337, Pitch_bend_c, 3, 4227
5, 99357, Pitch_bend_c, 3, 3699
5, 99378, Pitch_bend_c, 3, 5284
5, 99397, Pitch_bend_c, 3, 7134
5, 99418, Pitch_bend_c, 3, 8191
5, 99433, Pitch_bend_c, 3, 8192
5, 99802, Note_on_c, 3, 76, 122
5, 99832, Note_off_c, 3, 75, 0
5, 99969, Note_off_c, 3, 76, 0
5, 100009, Pitch_bend_c, 3, 5812
5, 100029, Pitch_bend_c, 3, 2378
5, 100039, Note_on_c, 3, 75, 127
5, 100050, Pitch_bend_c, 3, 1321
5, 100070, Pitch_bend_c, 3, 2906
5, 100089, Pitch_bend_c, 3, 5812
5, 100110, Pitch_bend_c, 3, 7398
5, 100130, Pitch_bend_c, 3, 8191
5, 100149, Pitch_bend_c, 3, 8192
5, 100272, Note_on_c, 3, 73, 110
5, 100308, Note_off_c, 3, 75, 0
5, 100515, Note_on_c, 3, 71, 127
5, 100520, Note_off_c, 3, 73, 0
5, 100758, Note_on_c, 3, 73, 127
5, 100771, Pitch_bend_c, 3, 7398
5, 100782, Pitch_bend_c, 3, 5284
5, 100793, Note_off_c, 3, 71, 0
5, 100803, Pitch_bend_c, 3, 4227
5, 100828, Pitch_bend_c, 3, 5020
5, 100848, Pitch_bend_c, 3, 6869
5, 100863, Pitch_bend_c, 3, 7926
5, 100883, Pitch_bend_c, 3, 8192
5, 101253, Note_on_c, 3, 74, 127
5, 101278, Note_off_c, 3, 73, 0
5, 101480, Note_off_c, 3, 74, 0
5, 101485, Pitch_bend_c, 3, 7134
5, 101495, Note_on_c, 3, 73, 127
5, 101504, Pitch_bend_c, 3, 4227
5, 101521, Pitch_bend_c, 3, 3434
5, 101541, Pitch_bend_c, 3, 5284
5, 101560, Pitch_bend_c, 3, 7134
5, 101585, Pitch_bend_c, 3, 8191
5, 101602, Pitch_bend_c, 3, 8192
5, 101961, Note_on_c, 3, 74, 127
5, 101990, Note_off_c, 3, 73, 0
5, 102197, Note_off_c, 3, 74, 0
5, 102197, Pitch_bend_c, 3, 6605
5, 102203, Note_on_c, 3, 73, 127
5, 102218, Pitch_bend_c, 3, 3434
5, 102238, Pitch_bend_c, 3, 2113
5, 102259, Pitch_bend_c, 3, 3170
5, 102274, Pitch_bend_c, 3, 5548
5, 102299, Pitch_bend_c, 3, 7398
5, 102319, Pitch_bend_c, 3, 8191
5, 102340, Pitch_bend_c, 3, 8192
5, 102667, Note_on_c, 3, 74, 127
5, 102719, Note_off_c, 3, 73, 0
5, 102855, Pitch_bend_c, 3, 7926
5, 102876, Pitch_bend_c, 3, 5020
5, 102890, Pitch_bend_c, 3, 2378
5, 102906, Note_on_c, 3, 73, 127
5, 102916, Pitch_bend_c, 3, 2113
5, 102935, Pitch_bend_c, 3, 4491
5, 102940, Note_off_c, 3, 74, 0
5, 102951, Pitch_bend_c, 3, 6869
5, 102970, Pitch_bend_c, 3, 7926
5, 102990, Pitch_bend_c, 3, 8192
5, 103128, Note_on_c, 3, 71, 127
5, 103153, Note_off_c, 3, 73, 0
5, 103320, Note_off_c, 3, 71, 0
5, 103336, Note_on_c, 3, 69, 127
5, 103577, Note_off_c, 3, 69, 0
5, 103588, Pitch_bend_c, 3, 7662
5, 103608, Note_on_c, 3, 73, 127
5, 103608, Pitch_bend_c, 3, 5284
5, 103629, Pitch_bend_c, 3, 3963
5, 103643, Note_on_c, 3, 64, 113
5, 103649, Pitch_bend_c, 3, 4491
5, 103669, Pitch_bend_c, 3, 6077
5, 103694, Pitch_bend_c, 3, 7398
5, 103709, Pitch_bend_c, 3, 8191
5, 103730, Pitch_bend_c, 3, 8192
5, 104073, Note_off_c, 3, 73, 0
5, 104074, Note_off_c, 3, 64, 0
5, 104123, Note_on_c, 3, 71, 127
5, 104155, Note_on_c, 3, 64, 104
5, 104301, Note_off_c, 3, 64, 0
5, 104372, Note_on_c, 3, 69, 127
5, 104377, Note_on_c, 3, 64, 101
5, 104401, Note_off_c, 3, 71, 0
5, 104792, Note_off_c, 3, 64, 0
5, 104831, Note_off_c, 3, 69, 0
5, 104832, Note_on_c, 3, 66, 110
5, 104863, Note_on_c, 3, 64, 97
5, 105009, Note_off_c, 3, 64, 0
5, 105019, Note_off_c, 3, 66, 0
5, 105059, Pitch_bend_c, 3, 8191
5, 105069, Note_on_c, 3, 71, 127
5, 105080, Pitch_bend_c, 3, 5548
5, 105090, Note_on_c, 3, 64, 104
5, 105095, Pitch_bend_c, 3, 2906
5, 105115, Pitch_bend_c, 3, 1849
5, 105135, Pitch_bend_c, 3, 2642
5, 105155, Pitch_bend_c, 3, 4756
5, 105175, Pitch_bend_c, 3, 6869
5, 105196, Pitch_bend_c, 3, 7926
5, 105211, Pitch_bend_c, 3, 8192
5, 105727, Note_off_c, 3, 64, 0
5, 105730, Note_off_c, 3, 71, 0
5, 105798, Note_on_c, 3, 64, 101
5, 105803, Note_on_c, 3, 71, 127
5, 106495, Note_off_c, 3, 64, 0
5, 106500, Note_off_c, 3, 71, 0
5, 106505, Note_on_c, 3, 63, 91
5, 106561, Note_on_c, 3, 71, 122
5, 107249, Note_off_c, 3, 63, 0
5, 107273, Note_off_c, 3, 71, 0
5, 109353, Pitch_bend_c, 3, 6077
5, 109367, Pitch_bend_c, 3, 2113
5, 109373, Note_on_c, 3, 75, 127
5, 109388, Pitch_bend_c, 3, 792
5, 109408, Pitch_bend_c, 3, 1585
5, 109434, Pitch_bend_c, 3, 3963
5, 109449, Pitch_bend_c, 3, 6605
5, 109468, Pitch_bend_c, 3, 7926
5, 109489, Pitch_bend_c, 3, 8192
5, 109768, Note_off_c, 3, 75, 0
5, 109823, Note_on_c, 3, 76, 122
5, 110050, Note_off_c, 3, 76, 0
5, 110086, Note_on_c, 3, 78, 127
5, 110560, Note_on_c, 3, 80, 110
5, 110571, Note_off_c, 3, 78, 0
5, 110728, Note_off_c, 3, 80, 0
5, 110794, Note_on_c, 3, 81, 127
5, 110799, Pitch_bend_c, 3, 6869
5, 110819, Pitch_bend_c, 3, 3434
5, 110839, Pitch_bend_c, 3, 1321
5, 110860, Pitch_bend_c, 3, 1849
5, 110880, Pitch_bend_c, 3, 4227
5, 110900, Pitch_bend_c, 3, 6605
5, 110920, Pitch_bend_c, 3, 7926
5, 110939, Pitch_bend_c, 3, 8192
5, 111026, Note_on_c, 3, 80, 127
5, 111051, Note_off_c, 3, 81, 0
5, 111532, Note_off_c, 3, 80, 0
5, 111582, Note_on_c, 3, 78, 110
5, 111941, Note_off_c, 3, 78, 0
5, 112238, Pitch_bend_c, 3, 7926
5, 112259, Pitch_bend_c, 3, 5548
5, 112279, Pitch_bend_c, 3, 3699
5, 112285, Note_on_c, 3, 76, 127
5, 112316, Pitch_bend_c, 3, 4756
5, 112341, Pitch_bend_c, 3, 6869
5, 112360, Pitch_bend_c, 3, 7926
5, 112376, Pitch_bend_c, 3, 8192
5, 112704, Note_off_c, 3, 76, 0
5, 112755, Note_on_c, 3, 74, 127
5, 112926, Note_off_c, 3, 74, 0
5, 112992, Note_on_c, 3, 76, 127
5, 113453, Note_off_c, 3, 76, 0
5, 113457, Note_on_c, 3, 74, 127
5, 113690, Pitch_bend_c, 3, 7662
5, 113711, Note_off_c, 3, 74, 0
5, 113711, Pitch_bend_c, 3, 5020
5, 113715, Note_on_c, 3, 78, 127
5, 113725, Pitch_bend_c, 3, 3170
5, 113766, Pitch_bend_c, 3, 4756
5, 113786, Pitch_bend_c, 3, 6869
5, 113806, Pitch_bend_c, 3, 7926
5, 113827, Pitch_bend_c, 3, 8192
5, 113973, Note_on_c, 3, 71, 122
5, 114049, Note_off_c, 3, 78, 0
5, 114140, Note_off_c, 3, 71, 0
5, 114215, Note_on_c, 3, 71, 113
5, 114590, Note_off_c, 3, 71, 0
5, 114965, Note_on_c, 3, 71, 127
5, 115136, Note_off_c, 3, 71, 0
5, 115161, Pitch_bend_c, 3, 7662
5, 115163, Note_on_c, 3, 64, 113
5, 115187, Pitch_bend_c, 3, 5548
5, 115192, Note_on_c, 3, 77, 127
5, 115203, Pitch_bend_c, 3, 3170
5, 115223, Pitch_bend_c, 3, 2113
5, 115243, Pitch_bend_c, 3, 2642
5, 115263, Pitch_bend_c, 3, 4227
5, 115283, Pitch_bend_c, 3, 6077
5, 115299, Pitch_bend_c, 3, 7662
5, 115319, Pitch_bend_c, 3, 8192
5, 115594, Note_off_c, 3, 64, 0
5, 115632, Note_off_c, 3, 77, 0
5, 115675, Note_on_c, 3, 64, 104
5, 115677, Note_on_c, 3, 76, 127
5, 115821, Note_off_c, 3, 64, 0
5, 115897, Note_on_c, 3, 64, 101
5, 115920, Note_off_c, 3, 76, 0
5, 115931, Note_on_c, 3, 74, 127
5, 116312, Note_off_c, 3, 64, 0
5, 116355, Note_off_c, 3, 74, 0
5, 116383, Note_on_c, 3, 64, 97
5, 116400, Note_on_c, 3, 71, 127
5, 116529, Note_off_c, 3, 64, 0
5, 116610, Note_on_c, 3, 64, 104
5, 116623, Note_off_c, 3, 71, 0
5, 116633, Pitch_bend_c, 3, 7926
5, 116649, Note_on_c, 3, 76, 127
5, 116653, Pitch_bend_c, 3, 4756
5, 116674, Pitch_bend_c, 3, 2113
5, 116713, Pitch_bend_c, 3, 3699
5, 116734, Pitch_bend_c, 3, 6341
5, 116754, Pitch_bend_c, 3, 7662
5, 116769, Pitch_bend_c, 3, 8192
5, 117247, Note_off_c, 3, 64, 0
5, 117275, Note_off_c, 3, 76, 0
5, 117318, Note_on_c, 3, 64, 101
5, 117340, Note_on_c, 3, 74, 127
5, 118015, Note_off_c, 3, 64, 0
5, 118025, Note_on_c, 3, 63, 91
5, 118029, Note_off_c, 3, 74, 0
5, 118058, Note_on_c, 3, 71, 127
5, 118769, Note_off_c, 3, 63, 0
5, 118856, Note_off_c, 3, 71, 0
5, 120676, Note_on_c, 3, 71, 127
5, 120898, Note_off_c, 3, 71, 0
5, 120904, Note_on_c, 3, 75, 127
5, 120904, Pitch_bend_c, 3, 7662
5, 120938, Pitch_bend_c, 3, 4756
5, 120960, Pitch_bend_c, 3, 5020
5, 120979, Pitch_bend_c, 3, 6077
5, 121004, Pitch_bend_c, 3, 7662
5, 121020, Pitch_bend_c, 3, 8192
5, 121379, Note_on_c, 3, 76, 127
5, 121400, Note_off_c, 3, 75, 0
5, 121621, Note_off_c, 3, 76, 0
5, 121642, Pitch_bend_c, 3, 7398
5, 121646, Note_on_c, 3, 75, 127
5, 121657, Pitch_bend_c, 3, 5284
5, 121677, Pitch_bend_c, 3, 3963
5, 121698, Pitch_bend_c, 3, 4491
5, 121718, Pitch_bend_c, 3, 6077
5, 121738, Pitch_bend_c, 3, 7662
5, 121759, Pitch_bend_c, 3, 8192
5, 122123, Note_on_c, 3, 76, 122
5, 122148, Note_off_c, 3, 75, 0
5, 122370, Note_on_c, 3, 75, 110
5, 122370, Pitch_bend_c, 3, 6341
5, 122385, Note_off_c, 3, 76, 0
5, 122395, Pitch_bend_c, 3, 3170
5, 122415, Pitch_bend_c, 3, 1849
5, 122431, Pitch_bend_c, 3, 2906
5, 122451, Pitch_bend_c, 3, 5812
5, 122471, Pitch_bend_c, 3, 7398
5, 122492, Pitch_bend_c, 3, 8191
5, 122512, Pitch_bend_c, 3, 8192
5, 122829, Note_on_c, 3, 76, 127
5, 122861, Note_off_c, 3, 75, 0
5, 123052, Pitch_bend_c, 3, 8191
5, 123068, Pitch_bend_c, 3, 5812
5, 123083, Note_on_c, 3, 75, 127
5, 123093, Pitch_bend_c, 3, 4227
5, 123134, Note_off_c, 3, 76, 0
5, 123134, Pitch_bend_c, 3, 6341
5, 123154, Pitch_bend_c, 3, 7662
5, 123169, Pitch_bend_c, 3, 8192
5, 123356, Note_on_c, 3, 73, 110
5, 123391, Note_off_c, 3, 75, 0
5, 123562, Note_off_c, 3, 73, 0
5, 123583, Note_on_c, 3, 71, 122
5, 123806, Pitch_bend_c, 3, 7926
5, 123816, Note_off_c, 3, 71, 0
5, 123821, Note_on_c, 3, 74, 127
5, 123825, Pitch_bend_c, 3, 5284
5, 123850, Pitch_bend_c, 3, 3434
5, 123887, Pitch_bend_c, 3, 5548
5, 123907, Pitch_bend_c, 3, 7398
5, 123927, Pitch_bend_c, 3, 8191
5, 123941, Pitch_bend_c, 3, 8192
5, 124261, Note_on_c, 3, 76, 127
5, 124286, Note_off_c, 3, 74, 0
5, 124514, Note_off_c, 3, 76, 0
5, 124524, Pitch_bend_c, 3, 6605
5, 124534, Note_on_c, 3, 74, 127
5, 124544, Pitch_bend_c, 3, 4756
5, 124564, Pitch_bend_c, 3, 5020
5, 124584, Pitch_bend_c, 3, 6869
5, 124600, Pitch_bend_c, 3, 7926
5, 124620, Pitch_bend_c, 3, 8192
5, 125024, Note_on_c, 3, 76, 127
5, 125069, Note_off_c, 3, 74, 0
5, 125236, Pitch_bend_c, 3, 7398
5, 125256, Pitch_bend_c, 3, 4491
5, 125272, Note_on_c, 3, 74, 127
5, 125281, Pitch_bend_c, 3, 3170
5, 125298, Pitch_bend_c, 3, 3963
5, 125316, Note_off_c, 3, 76, 0
5, 125316, Pitch_bend_c, 3, 6077
5, 125338, Pitch_bend_c, 3, 7662
5, 125358, Pitch_bend_c, 3, 8192
5, 125656, Note_off_c, 3, 74, 0
5, 125687, Note_on_c, 3, 71, 127
5, 125928, Note_off_c, 3, 71, 0
5, 126460, Note_on_c, 3, 71, 127
5, 126663, Note_off_c, 3, 71, 0
5, 126683, Note_on_c, 3, 64, 113
5, 126703, Pitch_bend_c, 3, 7398
5, 126714, Note_on_c, 3, 78, 127
5, 126729, Pitch_bend_c, 3, 3963
5, 126743, Pitch_bend_c, 3, 1849
5, 126764, Pitch_bend_c, 3, 1585
5, 126785, Pitch_bend_c, 3, 2642
5, 126799, Pitch_bend_c, 3, 4491
5, 126825, Pitch_bend_c, 3, 6605
5, 126839, Pitch_bend_c, 3, 7926
5, 126860, Pitch_bend_c, 3, 8192
5, 127114, Note_off_c, 3, 64, 0
5, 127163, Note_off_c, 3, 78, 0
5, 127189, Note_on_c, 3, 76, 127
5, 127195, Note_on_c, 3, 64, 104
5, 127341, Note_off_c, 3, 64, 0
5, 127417, Note_on_c, 3, 64, 101
5, 127447, Note_off_c, 3, 76, 0
5, 127452, Note_on_c, 3, 74, 127
5, 127832, Note_off_c, 3, 64, 0
5, 127901, Note_off_c, 3, 74, 0
5, 127903, Note_on_c, 3, 64, 97
5, 127927, Note_on_c, 3, 71, 127
5, 128049, Note_off_c, 3, 64, 0
5, 128130, Note_on_c, 3, 64, 104
5, 128144, Pitch_bend_c, 3, 7662
5, 128160, Note_on_c, 3, 76, 127
5, 128164, Pitch_bend_c, 3, 5548
5, 128170, Note_off_c, 3, 71, 0
5, 128185, Pitch_bend_c, 3, 4491
5, 128205, Pitch_bend_c, 3, 5020
5, 128224, Pitch_bend_c, 3, 6869
5, 128244, Pitch_bend_c, 3, 7926
5, 128265, Pitch_bend_c, 3, 8192
5, 128767, Note_off_c, 3, 64, 0
5, 128838, Note_on_c, 3, 64, 101
5, 128847, Note_off_c, 3, 76, 0
5, 128881, Note_on_c, 3, 74, 127
5, 129535, Note_off_c, 3, 64, 0
5, 129545, Note_off_c, 3, 74, 0
5, 129545, Note_on_c, 3, 63, 91
5, 129570, Note_on_c, 3, 71, 127
5, 130289, Note_off_c, 3, 63, 0
5, 130317, Note_off_c, 3, 71, 0
5, 132223, Note_on_c, 3, 71, 127
5, 132390, Note_off_c, 3, 71, 0
5, 132425, Pitch_bend_c, 3, 5548
5, 132440, Pitch_bend_c, 3, 1585
5, 132445, Note_on_c, 3, 75, 127
5, 132461, Pitch_bend_c, 3, 528
5, 132481, Pitch_bend_c, 3, 1585
5, 132501, Pitch_bend_c, 3, 4227
5, 132521, Pitch_bend_c, 3, 6605
5, 132536, Pitch_bend_c, 3, 7926
5, 132557, Pitch_bend_c, 3, 8192
5, 132890, Note_off_c, 3, 75, 0
5, 132906, Note_on_c, 3, 76, 117
5, 133157, Note_off_c, 3, 76, 0
5, 133162, Note_on_c, 3, 78, 110
5, 133618, Note_on_c, 3, 80, 110
5, 133659, Note_off_c, 3, 78, 0
5, 133800, Note_off_c, 3, 80, 0
5, 133846, Pitch_bend_c, 3, 7134
5, 133856, Note_on_c, 3, 81, 127
5, 133871, Pitch_bend_c, 3, 3699
5, 133885, Pitch_bend_c, 3, 1321
5, 133926, Pitch_bend_c, 3, 3699
5, 133946, Pitch_bend_c, 3, 6605
5, 133962, Pitch_bend_c, 3, 7926
5, 133987, Pitch_bend_c, 3, 8192
5, 134098, Note_on_c, 3, 80, 110
5, 134134, Note_off_c, 3, 81, 0
5, 134346, Note_on_c, 3, 78, 110
5, 134351, Note_off_c, 3, 80, 0
5, 135003, Note_off_c, 3, 78, 0
5, 135099, Note_on_c, 3, 78, 110
5, 135295, Note_off_c, 3, 78, 0
5, 135351, Note_on_c, 3, 76, 127
5, 135770, Note_off_c, 3, 76, 0
5, 135817, Note_on_c, 3, 74, 122
5, 135979, Note_off_c, 3, 74, 0
5, 136045, Note_on_c, 3, 76, 127
5, 136454, Note_off_c, 3, 76, 0
5, 136489, Note_on_c, 3, 74, 127
5, 136692, Note_off_c, 3, 74, 0
5, 136716, Pitch_bend_c, 3, 6341
5, 136727, Note_on_c, 3, 78, 127
5, 136732, Pitch_bend_c, 3, 3434
5, 136752, Pitch_bend_c, 3, 2113
5, 136773, Pitch_bend_c, 3, 2378
5, 136793, Pitch_bend_c, 3, 4491
5, 136813, Pitch_bend_c, 3, 6869
5, 136828, Pitch_bend_c, 3, 7926
5, 136853, Pitch_bend_c, 3, 8192
5, 136970, Note_on_c, 3, 71, 117
5, 137030, Note_off_c, 3, 78, 0
5, 137137, Note_off_c, 3, 71, 0
5, 137233, Note_on_c, 3, 71, 122
5, 137667, Note_off_c, 3, 71, 0
5, 137987, Note_on_c, 3, 71, 127
5, 138159, Pitch_bend_c, 3, 6605
5, 138168, Note_off_c, 3, 71, 0
5, 138179, Pitch_bend_c, 3, 5020
5, 138198, Pitch_bend_c, 3, 5284
5, 138203, Note_on_c, 3, 64, 113
5, 138210, Note_on_c, 3, 78, 127
5, 138219, Pitch_bend_c, 3, 7134
5, 138240, Pitch_bend_c, 3, 8191
5, 138260, Pitch_bend_c, 3, 8192
5, 138634, Note_off_c, 3, 64, 0
5, 138634, Note_off_c, 3, 78, 0
5, 138685, Note_on_c, 3, 76, 127
5, 138715, Note_on_c, 3, 64, 104
5, 138837, Note_off_c, 3, 76, 0
5, 138861, Note_off_c, 3, 64, 0
5, 138928, Note_on_c, 3, 76, 127
5, 138937, Note_on_c, 3, 64, 101
5, 139352, Note_off_c, 3, 64, 0
5, 139403, Note_off_c, 3, 76, 0
5, 139403, Note_on_c, 3, 74, 127
5, 139423, Note_on_c, 3, 64, 97
5, 139569, Note_off_c, 3, 64, 0
5, 139585, Note_off_c, 3, 74, 0
5, 139630, Pitch_bend_c, 3, 7398
5, 139635, Note_on_c, 3, 76, 127
5, 139650, Note_on_c, 3, 64, 104
5, 139650, Pitch_bend_c, 3, 4756
5, 139670, Pitch_bend_c, 3, 2642
5, 139711, Pitch_bend_c, 3, 4227
5, 139731, Pitch_bend_c, 3, 6341
5, 139750, Pitch_bend_c, 3, 7662
5, 139767, Pitch_bend_c, 3, 8192
5, 140287, Note_off_c, 3, 64, 0
5, 140313, Note_off_c, 3, 76, 0
5, 140358, Note_on_c, 3, 64, 101
5, 140369, Pitch_bend_c, 3, 7662
5, 140383, Note_on_c, 3, 76, 127
5, 140387, Pitch_bend_c, 3, 4756
5, 140404, Pitch_bend_c, 3, 3434
5, 140429, Pitch_bend_c, 3, 3699
5, 140444, Pitch_bend_c, 3, 5284
5, 140464, Pitch_bend_c, 3, 7134
5, 140488, Pitch_bend_c, 3, 8191
5, 140505, Pitch_bend_c, 3, 8192
5, 141055, Note_off_c, 3, 64, 0
5, 141065, Note_on_c, 3, 63, 91
5, 141075, Note_off_c, 3, 76, 0
5, 141117, Note_on_c, 3, 74, 127
5, 141322, Note_off_c, 3, 74, 0
5, 141344, Note_on_c, 3, 71, 113
5, 141809, Note_off_c, 3, 63, 0
5, 141986, Note_off_c, 3, 71, 0
5, 144194, Note_on_c, 3, 78, 127
5, 144427, Note_on_c, 3, 80, 110
5, 144467, Note_off_c, 3, 78, 0
5, 144618, Note_off_c, 3, 80, 0
5, 144639, Pitch_bend_c, 3, 8191
5, 144653, Note_on_c, 3, 83, 127
5, 144663, Pitch_bend_c, 3, 3963
5, 144679, Pitch_bend_c, 3, 528
5, 144698, Pitch_bend_c, 3, 0
5, 144720, Pitch_bend_c, 3, 264
5, 144740, Pitch_bend_c, 3, 2378
5, 144761, Pitch_bend_c, 3, 5548
5, 144779, Pitch_bend_c, 3, 7398
5, 144801, Pitch_bend_c, 3, 8191
5, 144816, Pitch_bend_c, 3, 8192
5, 144922, Note_on_c, 3, 80, 127
5, 144983, Note_off_c, 3, 83, 0
5, 145170, Note_on_c, 3, 78, 127
5, 145215, Note_off_c, 3, 80, 0
5, 145377, Note_off_c, 3, 78, 0
5, 145377, Pitch_bend_c, 3, 7926
5, 145398, Note_on_c, 3, 83, 127
5, 145398, Pitch_bend_c, 3, 5020
5, 145418, Pitch_bend_c, 3, 1321
5, 145433, Pitch_bend_c, 3, 0
5, 145457, Pitch_bend_c, 3, 264
5, 145472, Pitch_bend_c, 3, 2906
5, 145493, Pitch_bend_c, 3, 6077
5, 145514, Pitch_bend_c, 3, 7662
5, 145533, Pitch_bend_c, 3, 8192
5, 146090, Note_off_c, 3, 83, 0
5, 146791, Pitch_bend_c, 3, 7662
5, 146807, Pitch_bend_c, 3, 6341
5, 146827, Pitch_bend_c, 3, 6869
5, 146847, Pitch_bend_c, 3, 7926
5, 146858, Note_on_c, 3, 74, 127
5, 146868, Pitch_bend_c, 3, 8192
5, 147065, Note_off_c, 3, 74, 0
5, 147120, Note_on_c, 3, 74, 117
5, 147323, Note_off_c, 3, 74, 0
5, 147348, Note_on_c, 3, 71, 127
5, 147581, Note_off_c, 3, 71, 0
5, 147590, Note_on_c, 3, 74, 127
5, 147768, Note_off_c, 3, 74, 0
5, 147838, Note_on_c, 3, 74, 127
5, 148051, Note_off_c, 3, 74, 0
5, 148060, Note_on_c, 3, 71, 127
5, 148243, Pitch_bend_c, 3, 7662
5, 148263, Pitch_bend_c, 3, 5020
5, 148268, Note_off_c, 3, 71, 0
5, 148278, Note_on_c, 3, 76, 127
5, 148284, Pitch_bend_c, 3, 2378
5, 148304, Pitch_bend_c, 3, 1849
5, 148324, Pitch_bend_c, 3, 3170
5, 148344, Pitch_bend_c, 3, 5548
5, 148365, Pitch_bend_c, 3, 7398
5, 148384, Pitch_bend_c, 3, 8191
5, 148405, Pitch_bend_c, 3, 8192
5, 148814, Note_off_c, 3, 76, 0
5, 150199, Note_on_c, 3, 78, 127
5, 150421, Note_off_c, 3, 78, 0
5, 150452, Note_on_c, 3, 81, 127
5, 150608, Note_off_c, 3, 81, 0
5, 150685, Note_on_c, 3, 81, 127
5, 150907, Note_off_c, 3, 81, 0
5, 150912, Note_on_c, 3, 78, 127
5, 151109, Note_off_c, 3, 78, 0
5, 151140, Pitch_bend_c, 3, 7134
5, 151165, Pitch_bend_c, 3, 4491
5, 151169, Note_on_c, 3, 83, 127
5, 151179, Pitch_bend_c, 3, 2642
5, 151201, Pitch_bend_c, 3, 2906
5, 151221, Pitch_bend_c, 3, 5020
5, 151240, Pitch_bend_c, 3, 7134
5, 151258, Pitch_bend_c, 3, 8191
5, 151281, Pitch_bend_c, 3, 8192
5, 151564, Note_off_c, 3, 83, 0
5, 151605, Note_on_c, 3, 71, 122
5, 152038, Note_off_c, 3, 71, 0
5, 152315, Note_on_c, 3, 74, 127
5, 152548, Note_off_c, 3, 74, 0
5, 152548, Pitch_bend_c, 3, 7662
5, 152562, Pitch_bend_c, 3, 4756
5, 152577, Note_on_c, 3, 83, 127
5, 152582, Pitch_bend_c, 3, 2378
5, 152622, Pitch_bend_c, 3, 4227
5, 152644, Pitch_bend_c, 3, 6605
5, 152663, Pitch_bend_c, 3, 7926
5, 152684, Pitch_bend_c, 3, 8192
5, 152972, Note_on_c, 3, 78, 127
5, 152981, Note_off_c, 3, 83, 0
5, 153245, Note_on_c, 3, 76, 127
5, 153260, Note_off_c, 3, 78, 0
5, 153473, Note_off_c, 3, 76, 0
5, 153569, Note_on_c, 3, 76, 127
5, 153583, Pitch_bend_c, 3, 7662
5, 153598, Pitch_bend_c, 3, 3699
5, 153619, Pitch_bend_c, 3, 528
5, 153640, Pitch_bend_c, 3, 0
5, 153655, Pitch_bend_c, 3, 1585
5, 153680, Pitch_bend_c, 3, 4491
5, 153695, Pitch_bend_c, 3, 6869
5, 153716, Pitch_bend_c, 3, 7926
5, 153735, Pitch_bend_c, 3, 8192
5, 154139, Note_off_c, 3, 76, 0
5, 155013, Note_on_c, 3, 78, 127
5, 155150, Note_off_c, 3, 78, 0
5, 155227, Note_on_c, 3, 80, 127
5, 155384, Note_off_c, 3, 80, 0
5, 155423, Pitch_bend_c, 3, 8191
5, 155439, Pitch_bend_c, 3, 5020
5, 155459, Note_on_c, 3, 83, 127
5, 155465, Pitch_bend_c, 3, 1056
5, 155479, Pitch_bend_c, 3, 0
5, 155525, Pitch_bend_c, 3, 2642
5, 155539, Pitch_bend_c, 3, 5812
5, 155560, Pitch_bend_c, 3, 7398
5, 155584, Pitch_bend_c, 3, 8191
5, 155601, Pitch_bend_c, 3, 8192
5, 156141, Control_c, 3, 1, 127
5, 156263, Control_c, 3, 1, 0
5, 156435, Note_on_c, 3, 80, 110
5, 156440, Note_off_c, 3, 83, 0
5, 156677, Note_off_c, 3, 80, 0
5, 156682, Note_on_c, 3, 78, 127
5, 156854, Note_off_c, 3, 78, 0
5, 156895, Pitch_bend_c, 3, 7926
5, 156915, Note_on_c, 3, 80, 127
5, 156915, Pitch_bend_c, 3, 4756
5, 156934, Pitch_bend_c, 3, 1585
5, 156960, Pitch_bend_c, 3, 528
5, 156976, Pitch_bend_c, 3, 1321
5, 156996, Pitch_bend_c, 3, 3699
5, 157011, Pitch_bend_c, 3, 6341
5, 157037, Pitch_bend_c, 3, 7662
5, 157056, Pitch_bend_c, 3, 8192
5, 157345, Note_off_c, 3, 80, 0
5, 157385, Note_on_c, 3, 71, 127
5, 157765, Note_off_c, 3, 71, 0
5, 158313, Pitch_bend_c, 3, 8191
5, 158335, Note_on_c, 3, 78, 127
5, 158335, Pitch_bend_c, 3, 6077
5, 158355, Pitch_bend_c, 3, 3170
5, 158375, Pitch_bend_c, 3, 1321
5, 158393, Pitch_bend_c, 3, 792
5, 158415, Pitch_bend_c, 3, 1321
5, 158436, Pitch_bend_c, 3, 2642
5, 158456, Pitch_bend_c, 3, 5020
5, 158476, Pitch_bend_c, 3, 6869
5, 158496, Pitch_bend_c, 3, 7926
5, 158516, Pitch_bend_c, 3, 8192
5, 159032, Note_on_c, 3, 76, 127
5, 159052, Note_off_c, 3, 78, 0
5, 159253, Note_off_c, 3, 76, 0
5, 159265, Note_on_c, 3, 74, 127
5, 159456, Note_off_c, 3, 74, 0
5, 159516, Note_on_c, 3, 76, 127
5, 159527, Pitch_bend_c, 3, 7398
5, 159548, Pitch_bend_c, 3, 5020
5, 159568, Pitch_bend_c, 3, 3434
5, 159588, Pitch_bend_c, 3, 2906
5, 159608, Pitch_bend_c, 3, 3434
5, 159627, Pitch_bend_c, 3, 4491
5, 159649, Pitch_bend_c, 3, 5812
5, 159669, Pitch_bend_c, 3, 7662
5, 159689, Pitch_bend_c, 3, 8191
5, 159709, Pitch_bend_c, 3, 8192
5, 159896, Note_off_c, 3, 76, 0
5, 159921, Note_on_c, 3, 71, 127
5, 160563, Note_off_c, 3, 71, 0
5, 160971, Note_on_c, 3, 71, 127
5, 161169, Note_off_c, 3, 71, 0
5, 161189, Pitch_bend_c, 3, 6077
5, 161209, Pitch_bend_c, 3, 3170
5, 161224, Note_on_c, 3, 74, 127
5, 161229, Pitch_bend_c, 3, 1849
5, 161250, Pitch_bend_c, 3, 2378
5, 161270, Pitch_bend_c, 3, 4756
5, 161295, Pitch_bend_c, 3, 7134
5, 161310, Pitch_bend_c, 3, 7926
5, 161330, Pitch_bend_c, 3, 8192
5, 161603, Note_off_c, 3, 74, 0
5, 161688, Note_on_c, 3, 74, 127
5, 162220, Note_on_c, 3, 73, 110
5, 162245, Note_off_c, 3, 74, 0
5, 162478, Note_off_c, 3, 73, 0
5, 162483, Note_on_c, 3, 71, 127
5, 162629, Note_off_c, 3, 71, 0
5, 162725, Note_on_c, 3, 71, 127
5, 163408, Note_off_c, 3, 71, 0
5, 164090, Pitch_bend_c, 3, 7398
5, 164105, Note_on_c, 3, 75, 127
5, 164115, Pitch_bend_c, 3, 3963
5, 164130, Pitch_bend_c, 3, 2113
5, 164150, Pitch_bend_c, 3, 1321
5, 164191, Pitch_bend_c, 3, 1849
5, 164211, Pitch_bend_c, 3, 2642
5, 164231, Pitch_bend_c, 3, 3699
5, 164251, Pitch_bend_c, 3, 5020
5, 164270, Pitch_bend_c, 3, 6605
5, 164292, Pitch_bend_c, 3, 7926
5, 164313, Pitch_bend_c, 3, 8192
5, 164540, Note_off_c, 3, 75, 0
5, 164615, Note_on_c, 3, 75, 110
5, 164823, Note_off_c, 3, 75, 0
5, 164863, Note_on_c, 3, 73, 127
5, 165313, Note_off_c, 3, 73, 0
5, 165357, Note_on_c, 3, 71, 117
5, 165576, Note_off_c, 3, 71, 0
5, 165580, Pitch_bend_c, 3, 6869
5, 165596, Pitch_bend_c, 3, 4491
5, 165606, Note_on_c, 3, 73, 110
5, 165621, Pitch_bend_c, 3, 3170
5, 165657, Pitch_bend_c, 3, 4491
5, 165677, Pitch_bend_c, 3, 6605
5, 165697, Pitch_bend_c, 3, 7926
5, 165721, Pitch_bend_c, 3, 8192
5, 165990, Note_off_c, 3, 73, 0
5, 166080, Note_on_c, 3, 73, 110
5, 166319, Note_off_c, 3, 73, 0
5, 166347, Note_on_c, 3, 71, 127
5, 166703, Note_off_c, 3, 71, 0
5, 166804, Note_on_c, 3, 71, 127
5, 166981, Note_off_c, 3, 71, 0
5, 167284, Pitch_bend_c, 3, 7662
5, 167305, Pitch_bend_c, 3, 5020
5, 167325, Pitch_bend_c, 3, 3170
5, 167335, Note_on_c, 3, 75, 127
5, 167345, Pitch_bend_c, 3, 2378
5, 167360, Pitch_bend_c, 3, 3170
5, 167381, Pitch_bend_c, 3, 4756
5, 167401, Pitch_bend_c, 3, 6605
5, 167421, Pitch_bend_c, 3, 7926
5, 167445, Pitch_bend_c, 3, 8192
5, 167492, Note_off_c, 3, 75, 0
5, 167578, Note_on_c, 3, 75, 110
5, 167755, Note_off_c, 3, 75, 0
5, 167790, Note_on_c, 3, 73, 127
5, 168180, Note_off_c, 3, 73, 0
5, 168205, Note_on_c, 3, 71, 127
5, 168417, Note_off_c, 3, 71, 0
5, 168432, Pitch_bend_c, 3, 7926
5, 168452, Pitch_bend_c, 3, 5812
5, 168457, Note_on_c, 3, 73, 127
5, 168467, Pitch_bend_c, 3, 3699
5, 168493, Pitch_bend_c, 3, 2906
5, 168508, Pitch_bend_c, 3, 3699
5, 168528, Pitch_bend_c, 3, 5812
5, 168548, Pitch_bend_c, 3, 7398
5, 168574, Pitch_bend_c, 3, 8191
5, 168594, Pitch_bend_c, 3, 8192
5, 168655, Note_off_c, 3, 73, 0
5, 168734, Note_on_c, 3, 73, 100
5, 168938, Note_off_c, 3, 73, 0
5, 168951, Note_on_c, 3, 71, 127
5, 169154, Note_off_c, 3, 71, 0
5, 169219, Note_on_c, 3, 71, 122
5, 169484, Note_off_c, 3, 71, 0
5, 169882, Pitch_bend_c, 3, 7134
5, 169907, Pitch_bend_c, 3, 3963
5, 169922, Pitch_bend_c, 3, 2113
5, 169927, Note_on_c, 3, 75, 127
5, 169948, Pitch_bend_c, 3, 1585
5, 169968, Pitch_bend_c, 3, 2113
5, 169987, Pitch_bend_c, 3, 3434
5, 170003, Pitch_bend_c, 3, 5284
5, 170024, Pitch_bend_c, 3, 7134
5, 170044, Pitch_bend_c, 3, 8191
5, 170064, Pitch_bend_c, 3, 8192
5, 170316, Note_off_c, 3, 75, 0
5, 170407, Note_on_c, 3, 75, 127
5, 170624, Note_off_c, 3, 75, 0
5, 170630, Note_on_c, 3, 73, 127
5, 171050, Note_off_c, 3, 73, 0
5, 171090, Note_on_c, 3, 71, 127
5, 171297, Note_off_c, 3, 71, 0
5, 171313, Pitch_bend_c, 3, 6605
5, 171338, Pitch_bend_c, 3, 3434
5, 171348, Note_on_c, 3, 73, 127
5, 171353, Pitch_bend_c, 3, 1321
5, 171373, Pitch_bend_c, 3, 1849
5, 171394, Pitch_bend_c, 3, 4756
5, 171414, Pitch_bend_c, 3, 6869
5, 171434, Pitch_bend_c, 3, 7926
5, 171454, Pitch_bend_c, 3, 8192
5, 171722, Note_off_c, 3, 73, 0
5, 171808, Note_on_c, 3, 73, 110
5, 172025, Note_off_c, 3, 73, 0
5, 172036, Note_on_c, 3, 71, 127
5, 172072, Note_on_c, 3, 66, 127
5, 172256, Note_off_c, 3, 66, 0
5, 172281, Note_on_c, 3, 68, 110
5, 172430, Note_off_c, 3, 71, 0
5, 172437, Note_off_c, 3, 68, 0
5, 172478, Note_on_c, 3, 71, 127
5, 172506, Note_on_c, 3, 71, 127
5, 172663, Note_off_c, 3, 71, 0
5, 172680, Note_off_c, 3, 71, 0
5, 172726, Pitch_bend_c, 3, 8191
5, 172731, Note_on_c, 3, 75, 110
5, 172746, Pitch_bend_c, 3, 7134
5, 172765, Pitch_bend_c, 3, 5812
5, 172802, Pitch_bend_c, 3, 7134
5, 172822, Pitch_bend_c, 3, 7926
5, 172842, Pitch_bend_c, 3, 8192
5, 173230, Note_off_c, 3, 75, 0
5, 173245, Note_on_c, 3, 76, 122
5, 173423, Note_off_c, 3, 76, 0
5, 173474, Pitch_bend_c, 3, 8191
5, 173489, Note_on_c, 3, 75, 127
5, 173494, Note_on_c, 3, 76, 108
5, 173504, Pitch_bend_c, 3, 7398
5, 173519, Pitch_bend_c, 3, 6869
5, 173538, Pitch_bend_c, 3, 7134
5, 173544, Note_off_c, 3, 76, 0
5, 173559, Pitch_bend_c, 3, 8191
5, 173580, Pitch_bend_c, 3, 8192
5, 173954, Note_on_c, 3, 76, 122
5, 173969, Note_off_c, 3, 75, 0
5, 174131, Note_off_c, 3, 76, 0
5, 174176, Pitch_bend_c, 3, 8191
5, 174185, Note_on_c, 3, 75, 127
5, 174196, Pitch_bend_c, 3, 6077
5, 174217, Pitch_bend_c, 3, 4227
5, 174237, Pitch_bend_c, 3, 3699
5, 174258, Pitch_bend_c, 3, 5284
5, 174277, Pitch_bend_c, 3, 7134
5, 174298, Pitch_bend_c, 3, 8191
5, 174313, Pitch_bend_c, 3, 8192
5, 174682, Note_on_c, 3, 76, 122
5, 174712, Note_off_c, 3, 75, 0
5, 174849, Note_off_c, 3, 76, 0
5, 174889, Pitch_bend_c, 3, 5812
5, 174909, Pitch_bend_c, 3, 2378
5, 174919, Note_on_c, 3, 75, 127
5, 174930, Pitch_bend_c, 3, 1321
5, 174950, Pitch_bend_c, 3, 2906
5, 174969, Pitch_bend_c, 3, 5812
5, 174990, Pitch_bend_c, 3, 7398
5, 175010, Pitch_bend_c, 3, 8191
5, 175029, Pitch_bend_c, 3, 8192
5, 175152, Note_on_c, 3, 73, 110
5, 175188, Note_off_c, 3, 75, 0
5, 175395, Note_on_c, 3, 71, 127
5, 175400, Note_off_c, 3, 73, 0
5, 175638, Note_on_c, 3, 73, 127
5, 175651, Pitch_bend_c, 3, 7398
5, 175662, Pitch_bend_c, 3, 5284
5, 175673, Note_off_c, 3, 71, 0
5, 175683, Pitch_bend_c, 3, 4227
5, 175708, Pitch_bend_c, 3, 5020
5, 175728, Pitch_bend_c, 3, 6869
5, 175743, Pitch_bend_c, 3, 7926
5, 175763, Pitch_bend_c, 3, 8192
5, 176133, Note_on_c, 3, 74, 127
5, 176158, Note_off_c, 3, 73, 0
5, 176360, Note_off_c, 3, 74, 0
5, 176365, Pitch_bend_c, 3, 7134
5, 176375, Note_on_c, 3, 73, 127
5, 176384, Pitch_bend_c, 3, 4227
5, 176401, Pitch_bend_c, 3, 3434
5, 176421, Pitch_bend_c, 3, 5284
5, 176440, Pitch_bend_c, 3, 7134
5, 176465, Pitch_bend_c, 3, 8191
5, 176482, Pitch_bend_c, 3, 8192
5, 176841, Note_on_c, 3, 74, 127
5, 176870, Note_off_c, 3, 73, 0
5, 177077, Note_off_c, 3, 74, 0
5, 177077, Pitch_bend_c, 3, 6605
5, 177083, Note_on_c, 3, 73, 127
5, 177098, Pitch_bend_c, 3, 3434
5, 177118, Pitch_bend_c, 3, 2113
5, 177139, Pitch_bend_c, 3, 3170
5, 177154, Pitch_bend_c, 3, 5548
5, 177179, Pitch_bend_c, 3, 7398
5, 177199, Pitch_bend_c, 3, 8191
5, 177220, Pitch_bend_c, 3, 8192
5, 177547, Note_on_c, 3, 74, 127
5, 177599, Note_off_c, 3, 73, 0
5, 177735, Pitch_bend_c, 3, 7926
5, 177756, Pitch_bend_c, 3, 5020
5, 177770, Pitch_bend_c, 3, 2378
5, 177786, Note_on_c, 3, 73, 127
5, 177796, Pitch_bend_c, 3, 2113
5, 177815, Pitch_bend_c, 3, 4491
5, 177820, Note_off_c, 3, 74, 0
5, 177831, Pitch_bend_c, 3, 6869
5, 177850, Pitch_bend_c, 3, 7926
5, 177870, Pitch_bend_c, 3, 8192
5, 178008, Note_on_c, 3, 71, 127
5, 178033, Note_off_c, 3, 73, 0
5, 178200, Note_off_c, 3, 71, 0
5, 178216, Note_on_c, 3, 69, 127
5, 178457, Note_off_c, 3, 69, 0
5, 178468, Pitch_bend_c, 3, 7662
5, 178488, Note_on_c, 3, 73, 127
5, 178488, Pitch_bend_c, 3, 5284
5, 178509, Pitch_bend_c, 3, 3963
5, 178523, Note_on_c, 3, 64, 113
5, 178529, Pitch_bend_c, 3, 4491
5, 178549, Pitch_bend_c, 3, 6077
5, 178574, Pitch_bend_c, 3, 7398
5, 178589, Pitch_bend_c, 3, 8191
5, 178610, Pitch_bend_c, 3, 8192
5, 178953, Note_off_c, 3, 73, 0
5, 178954, Note_off_c, 3, 64, 0
5, 179003, Note_on_c, 3, 71, 127
5, 179035, Note_on_c, 3, 64, 104
5, 179181, Note_off_c, 3, 64, 0
5, 179252, Note_on_c, 3, 69, 127
5, 179257, Note_on_c, 3, 64, 101
5, 179281, Note_off_c, 3, 71, 0
5, 179672, Note_off_c, 3, 64, 0
5, 179711, Note_off_c, 3, 69, 0
5, 179712, Note_on_c, 3, 66, 110
5, 179743, Note_on_c, 3, 64, 97
5, 179889, Note_off_c, 3, 64, 0
5, 179899, Note_off_c, 3, 66, 0
5, 179939, Pitch_bend_c, 3, 8191
5, 179949, Note_on_c, 3, 71, 127
5, 179960, Pitch_bend_c, 3, 5548
5, 179970, Note_on_c, 3, 64, 104
5, 179975, Pitch_bend_c, 3, 2906
5, 179995, Pitch_bend_c, 3, 1849
5, 180015, Pitch_bend_c, 3, 2642
5, 180035, Pitch_bend_c, 3, 4756
5, 180055, Pitch_bend_c, 3, 6869
5, 180076, Pitch_bend_c, 3, 7926
5, 180091, Pitch_bend_c, 3, 8192
5, 180607, Note_off_c, 3, 64, 0
5, 180610, Note_off_c, 3, 71, 0
5, 180678, Note_on_c, 3, 64, 101
5, 180683, Note_on_c, 3, 71, 127
5, 181375, Note_off_c, 3, 64, 0
5, 181380, Note_off_c, 3, 71, 0
5, 181385, Note_on_c, 3, 63, 91
5, 181441, Note_on_c, 3, 71, 122
5, 182129, Note_off_c, 3, 63, 0
5, 182153, Note_off_c, 3, 71, 0
5, 184233, Pitch_bend_c, 3, 6077
5, 184247, Pitch_bend_c, 3, 2113
5, 184253, Note_on_c, 3, 75, 127
5, 184268, Pitch_bend_c, 3, 792
5, 184288, Pitch_bend_c, 3, 1585
5, 184314, Pitch_bend_c, 3, 3963
5, 184329, Pitch_bend_c, 3, 6605
5, 184348, Pitch_bend_c, 3, 7926
5, 184369, Pitch_bend_c, 3, 8192
5, 184648, Note_off_c, 3, 75, 0
5, 184703, Note_on_c, 3, 76, 122
5, 184930, Note_off_c, 3, 76, 0
5, 184966, Note_on_c, 3, 78, 127
5, 185440, Note_on_c, 3, 80, 110
5, 185451, Note_off_c, 3, 78, 0
5, 185608, Note_off_c, 3, 80, 0
5, 185674, Note_on_c, 3, 81, 127
5, 185679, Pitch_bend_c, 3, 6869
5, 185699, Pitch_bend_c, 3, 3434
5, 185719, Pitch_bend_c, 3, 1321
5, 185740, Pitch_bend_c, 3, 1849
5, 185760, Pitch_bend_c, 3, 4227
5, 185780, Pitch_bend_c, 3, 6605
5, 185800, Pitch_bend_c, 3, 7926
5, 185819, Pitch_bend_c, 3, 8192
5, 185906, Note_on_c, 3, 80, 127
5, 185931, Note_off_c, 3, 81, 0
5, 186412, Note_off_c, 3, 80, 0
5, 186462, Note_on_c, 3, 78, 110
5, 186821, Note_off_c, 3, 78, 0
5, 187118, Pitch_bend_c, 3, 7926
5, 187139, Pitch_bend_c, 3, 5548
5, 187159, Pitch_bend_c, 3, 3699
5, 187165, Note_on_c, 3, 76, 127
5, 187196, Pitch_bend_c, 3, 4756
5, 187221, Pitch_bend_c, 3, 6869
5, 187240, Pitch_bend_c, 3, 7926
5, 187256, Pitch_bend_c, 3, 8192
5, 187584, Note_off_c, 3, 76, 0
5, 187635, Note_on_c, 3, 74, 127
5, 187806, Note_off_c, 3, 74, 0
5, 187872, Note_on_c, 3, 76, 127
5, 188333, Note_off_c, 3, 76, 0
5, 188337, Note_on_c, 3, 74, 127
5, 188570, Pitch_bend_c, 3, 7662
5, 188591, Note_off_c, 3, 74, 0
5, 188591, Pitch_bend_c, 3, 5020
5, 188595, Note_on_c, 3, 78, 127
5, 188605, Pitch_bend_c, 3, 3170
5, 188646, Pitch_bend_c, 3, 4756
5, 188666, Pitch_bend_c, 3, 6869
5, 188686, Pitch_bend_c, 3, 7926
5, 188707, Pitch_bend_c, 3, 8192
5, 188853, Note_on_c, 3, 71, 122
5, 188929, Note_off_c, 3, 78, 0
5, 189020, Note_off_c, 3, 71, 0
5, 189095, Note_on_c, 3, 71, 113
5, 189470, Note_off_c, 3, 71, 0
5, 189845, Note_on_c, 3, 71, 127
5, 190016, Note_off_c, 3, 71, 0
5, 190041, Pitch_bend_c, 3, 7662
5, 190043, Note_on_c, 3, 64, 113
5, 190067, Pitch_bend_c, 3, 5548
5, 190072, Note_on_c, 3, 77, 127
5, 190083, Pitch_bend_c, 3, 3170
5, 190103, Pitch_bend_c, 3, 2113
5, 190123, Pitch_bend_c, 3, 2642
5, 190143, Pitch_bend_c, 3, 4227
5, 190163, Pitch_bend_c, 3, 6077
5, 190179, Pitch_bend_c, 3, 7662
5, 190199, Pitch_bend_c, 3, 8192
5, 190474, Note_off_c, 3, 64, 0
5, 190512, Note_off_c, 3, 77, 0
5, 190555, Note_on_c, 3, 64, 104
5, 190557, Note_on_c, 3, 76, 127
5, 190701, Note_off_c, 3, 64, 0
5, 190777, Note_on_c, 3, 64, 101
5, 190800, Note_off_c, 3, 76, 0
5, 190811, Note_on_c, 3, 74, 127
5, 191192, Note_off_c, 3, 64, 0
5, 191235, Note_off_c, 3, 74, 0
5, 191263, Note_on_c, 3, 64, 97
5, 191280, Note_on_c, 3, 71, 127
5, 191409, Note_off_c, 3, 64, 0
5, 191490, Note_on_c, 3, 64, 104
5, 191503, Note_off_c, 3, 71, 0
5, 191513, Pitch_bend_c, 3, 7926
5, 191529, Note_on_c, 3, 76, 127
5, 191533, Pitch_bend_c, 3, 4756
5, 191554, Pitch_bend_c, 3, 2113
5, 191593, Pitch_bend_c, 3, 3699
5, 191614, Pitch_bend_c, 3, 6341
5, 191634, Pitch_bend_c, 3, 7662
5, 191649, Pitch_bend_c, 3, 8192
5, 192127, Note_off_c, 3, 64, 0
5, 192155, Note_off_c, 3, 76, 0
5, 192198, Note_on_c, 3, 64, 101
5, 192220, Note_on_c, 3, 74, 127
5, 192895, Note_off_c, 3, 64, 0
5, 192905, Note_on_c, 3, 63, 91
5, 192909, Note_off_c, 3, 74, 0
5, 192938, Note_on_c, 3, 71, 127
5, 193649, Note_off_c, 3, 63, 0
5, 193736, Note_off_c, 3, 71, 0
5, 195760, Pitch_bend_c, 3, 6869
5, 195776, Note_on_c, 3, 75, 127
5, 195785, Pitch_bend_c, 3, 4227
5, 195801, Pitch_bend_c, 3, 2113
5, 195841, Pitch_bend_c, 3, 3963
5, 195856, Pitch_bend_c, 3, 6341
5, 195878, Pitch_bend_c, 3, 7662
5, 195898, Pitch_bend_c, 3, 8192
5, 196225, Note_off_c, 3, 75, 0
5, 196246, Note_on_c, 3, 76, 127
5, 196458, Note_off_c, 3, 76, 0
5, 196504, Note_on_c, 3, 75, 127
5, 196510, Pitch_bend_c, 3, 7134
5, 196529, Pitch_bend_c, 3, 5020
5, 196555, Pitch_bend_c, 3, 4227
5, 196575, Pitch_bend_c, 3, 5548
5, 196589, Pitch_bend_c, 3, 7398
5, 196610, Pitch_bend_c, 3, 8191
5, 196631, Pitch_bend_c, 3, 8192
5, 197010, Note_on_c, 3, 76, 127
5, 197035, Note_off_c, 3, 75, 0
5, 197201, Note_off_c, 3, 76, 0
5, 197227, Pitch_bend_c, 3, 6869
5, 197247, Note_on_c, 3, 75, 127
5, 197247, Pitch_bend_c, 3, 3699
5, 197267, Pitch_bend_c, 3, 2642
5, 197288, Pitch_bend_c, 3, 3963
5, 197308, Pitch_bend_c, 3, 6341
5, 197327, Pitch_bend_c, 3, 7662
5, 197347, Pitch_bend_c, 3, 8192
5, 197470, Note_on_c, 3, 76, 127
5, 197495, Note_off_c, 3, 75, 0
5, 197935, Note_off_c, 3, 76, 0
5, 197965, Note_on_c, 3, 75, 127
5, 198461, Note_off_c, 3, 75, 0
5, 198621, Pitch_bend_c, 3, 6869
5, 198641, Pitch_bend_c, 3, 3699
5, 198656, Note_on_c, 3, 81, 127
5, 198661, Pitch_bend_c, 3, 1321
5, 198676, Pitch_bend_c, 3, 1056
5, 198697, Pitch_bend_c, 3, 2906
5, 198722, Pitch_bend_c, 3, 5548
5, 198741, Pitch_bend_c, 3, 7398
5, 198757, Pitch_bend_c, 3, 8191
5, 198778, Pitch_bend_c, 3, 8192
5, 198848, Note_off_c, 3, 81, 0
5, 198879, Note_on_c, 3, 78, 127
5, 199349, Note_off_c, 3, 78, 0
5, 199369, Note_on_c, 3, 76, 127
5, 199838, Note_off_c, 3, 76, 0
5, 199870, Note_on_c, 3, 74, 122
5, 200071, Note_off_c, 3, 74, 0
5, 200087, Pitch_bend_c, 3, 6869
5, 200106, Note_on_c, 3, 78, 127
5, 200112, Pitch_bend_c, 3, 3699
5, 200128, Pitch_bend_c, 3, 2642
5, 200153, Pitch_bend_c, 3, 3699
5, 200168, Pitch_bend_c, 3, 5812
5, 200188, Pitch_bend_c, 3, 7398
5, 200208, Pitch_bend_c, 3, 8191
5, 200228, Pitch_bend_c, 3, 8192
5, 200355, Note_on_c, 3, 71, 127
5, 200365, Note_off_c, 3, 78, 0
5, 200739, Note_off_c, 3, 71, 0
5, 200825, Note_on_c, 3, 71, 127
5, 201213, Note_off_c, 3, 71, 0
5, 201528, Pitch_bend_c, 3, 7926
5, 201548, Pitch_bend_c, 3, 4491
5, 201559, Note_on_c, 3, 78, 127
5, 201563, Note_on_c, 3, 64, 113
5, 201574, Pitch_bend_c, 3, 1056
5, 201589, Pitch_bend_c, 3, 0
5, 201615, Pitch_bend_c, 3, 1585
5, 201628, Pitch_bend_c, 3, 4756
5, 201650, Pitch_bend_c, 3, 6869
5, 201670, Pitch_bend_c, 3, 7926
5, 201690, Pitch_bend_c, 3, 8192
5, 201947, Note_off_c, 3, 78, 0
5, 201994, Note_off_c, 3, 64, 0
5, 202039, Note_on_c, 3, 78, 110
5, 202075, Note_on_c, 3, 64, 104
5, 202206, Note_off_c, 3, 78, 0
5, 202221, Note_off_c, 3, 64, 0
5, 202255, Note_on_c, 3, 76, 127
5, 202297, Note_on_c, 3, 64, 101
5, 202712, Note_off_c, 3, 64, 0
5, 202730, Note_off_c, 3, 76, 0
5, 202736, Note_on_c, 3, 74, 127
5, 202783, Note_on_c, 3, 64, 97
5, 202929, Note_off_c, 3, 64, 0
5, 202934, Note_off_c, 3, 74, 0
5, 202944, Pitch_bend_c, 3, 8191
5, 202964, Pitch_bend_c, 3, 5548
5, 202979, Note_on_c, 3, 76, 127
5, 202984, Pitch_bend_c, 3, 3170
5, 203010, Note_on_c, 3, 64, 104
5, 203024, Pitch_bend_c, 3, 4756
5, 203040, Pitch_bend_c, 3, 7134
5, 203060, Pitch_bend_c, 3, 8191
5, 203080, Pitch_bend_c, 3, 8192
5, 203647, Note_off_c, 3, 76, 0
5, 203647, Note_off_c, 3, 64, 0
5, 203718, Note_on_c, 3, 64, 101
5, 203727, Note_on_c, 3, 76, 127
5, 204177, Pitch_bend_c, 3, 7926
5, 204198, Pitch_bend_c, 3, 4227
5, 204216, Pitch_bend_c, 3, 1585
5, 204223, Note_on_c, 3, 78, 110
5, 204238, Pitch_bend_c, 3, 1321
5, 204252, Note_off_c, 3, 76, 0
5, 204257, Pitch_bend_c, 3, 3434
5, 204277, Pitch_bend_c, 3, 6341
5, 204297, Pitch_bend_c, 3, 7662
5, 204319, Pitch_bend_c, 3, 8192
5, 204415, Note_off_c, 3, 64, 0
5, 204425, Note_on_c, 3, 63, 91
5, 204460, Note_off_c, 3, 78, 0
5, 204469, Note_on_c, 3, 74, 127
5, 204652, Note_off_c, 3, 74, 0
5, 204667, Note_on_c, 3, 71, 127
5, 205169, Note_off_c, 3, 63, 0
5, 205329, Note_off_c, 3, 71, 0
5, 207306, Pitch_bend_c, 3, 7134
5, 207327, Pitch_bend_c, 3, 4227
5, 207338, Note_on_c, 3, 75, 127
5, 207348, Pitch_bend_c, 3, 2906
5, 207367, Pitch_bend_c, 3, 3434
5, 207387, Pitch_bend_c, 3, 5284
5, 207403, Pitch_bend_c, 3, 7134
5, 207423, Pitch_bend_c, 3, 8191
5, 207444, Pitch_bend_c, 3, 8192
5, 207752, Note_off_c, 3, 75, 0
5, 207786, Note_on_c, 3, 76, 117
5, 208065, Note_on_c, 3, 78, 127
5, 208081, Note_off_c, 3, 76, 0
5, 208531, Note_on_c, 3, 80, 104
5, 208560, Note_off_c, 3, 78, 0
5, 208702, Note_off_c, 3, 80, 0
5, 208758, Pitch_bend_c, 3, 7134
5, 208767, Note_on_c, 3, 81, 127
5, 208772, Pitch_bend_c, 3, 4491
5, 208795, Pitch_bend_c, 3, 2378
5, 208833, Pitch_bend_c, 3, 5020
5, 208853, Pitch_bend_c, 3, 7134
5, 208873, Pitch_bend_c, 3, 8191
5, 208894, Pitch_bend_c, 3, 8192
5, 208996, Note_on_c, 3, 80, 110
5, 209025, Note_off_c, 3, 81, 0
5, 209490, Note_on_c, 3, 78, 127
5, 209496, Note_off_c, 3, 80, 0
5, 209891, Note_off_c, 3, 78, 0
5, 209981, Note_on_c, 3, 78, 104
5, 210189, Note_off_c, 3, 78, 0
5, 210198, Pitch_bend_c, 3, 7926
5, 210219, Pitch_bend_c, 3, 5548
5, 210233, Note_on_c, 3, 76, 127
5, 210239, Pitch_bend_c, 3, 3434
5, 210260, Pitch_bend_c, 3, 3170
5, 210280, Pitch_bend_c, 3, 4756
5, 210300, Pitch_bend_c, 3, 6869
5, 210320, Pitch_bend_c, 3, 7926
5, 210339, Pitch_bend_c, 3, 8192
5, 210683, Note_off_c, 3, 76, 0
5, 210713, Note_on_c, 3, 74, 127
5, 210885, Note_off_c, 3, 74, 0
5, 210947, Note_on_c, 3, 76, 127
5, 211356, Note_off_c, 3, 76, 0
5, 211392, Note_on_c, 3, 74, 127
5, 211588, Note_off_c, 3, 74, 0
5, 211604, Pitch_bend_c, 3, 6605
5, 211624, Pitch_bend_c, 3, 3963
5, 211630, Note_on_c, 3, 78, 127
5, 211643, Pitch_bend_c, 3, 2378
5, 211685, Pitch_bend_c, 3, 3963
5, 211704, Pitch_bend_c, 3, 6341
5, 211721, Pitch_bend_c, 3, 7662
5, 211740, Pitch_bend_c, 3, 8192
5, 211886, Note_on_c, 3, 71, 122
5, 211892, Note_off_c, 3, 78, 0
5, 212053, Note_off_c, 3, 71, 0
5, 212135, Note_on_c, 3, 71, 122
5, 212572, Note_off_c, 3, 71, 0
5, 213083, Note_on_c, 3, 64, 113
5, 213097, Pitch_bend_c, 3, 6341
5, 213118, Note_on_c, 3, 78, 127
5, 213118, Pitch_bend_c, 3, 2642
5, 213138, Pitch_bend_c, 3, 528
5, 213154, Pitch_bend_c, 3, 792
5, 213174, Pitch_bend_c, 3, 2906
5, 213194, Pitch_bend_c, 3, 5812
5, 213214, Pitch_bend_c, 3, 7398
5, 213235, Pitch_bend_c, 3, 8191
5, 213255, Pitch_bend_c, 3, 8192
5, 213514, Note_off_c, 3, 64, 0
5, 213521, Note_off_c, 3, 78, 0
5, 213593, Pitch_bend_c, 3, 5548
5, 213595, Note_on_c, 3, 64, 104
5, 213599, Note_on_c, 3, 78, 110
5, 213613, Pitch_bend_c, 3, 2906
5, 213653, Pitch_bend_c, 3, 5284
5, 213674, Pitch_bend_c, 3, 7398
5, 213694, Pitch_bend_c, 3, 8191
5, 213713, Pitch_bend_c, 3, 8192
5, 213741, Note_off_c, 3, 64, 0
5, 213817, Note_on_c, 3, 64, 101
5, 213836, Note_off_c, 3, 78, 0
5, 213842, Note_on_c, 3, 76, 127
5, 214232, Note_off_c, 3, 64, 0
5, 214290, Note_off_c, 3, 76, 0
5, 214296, Note_on_c, 3, 74, 127
5, 214303, Note_on_c, 3, 64, 97
5, 214449, Note_off_c, 3, 64, 0
5, 214489, Note_off_c, 3, 74, 0
5, 214530, Note_on_c, 3, 64, 104
5, 214533, Note_on_c, 3, 76, 127
5, 214549, Pitch_bend_c, 3, 6605
5, 214569, Pitch_bend_c, 3, 5284
5, 214584, Pitch_bend_c, 3, 5548
5, 214608, Pitch_bend_c, 3, 7134
5, 214625, Pitch_bend_c, 3, 8191
5, 214650, Pitch_bend_c, 3, 8192
5, 215167, Note_off_c, 3, 64, 0
5, 215201, Note_off_c, 3, 76, 0
5, 215238, Note_on_c, 3, 64, 101
5, 215267, Pitch_bend_c, 3, 6341
5, 215276, Note_on_c, 3, 76, 127
5, 215287, Pitch_bend_c, 3, 4227
5, 215302, Pitch_bend_c, 3, 3963
5, 215322, Pitch_bend_c, 3, 5548
5, 215342, Pitch_bend_c, 3, 7398
5, 215363, Pitch_bend_c, 3, 8191
5, 215383, Pitch_bend_c, 3, 8192
5, 215935, Note_off_c, 3, 64, 0
5, 215945, Note_on_c, 3, 63, 91
5, 215969, Note_off_c, 3, 76, 0
5, 215995, Note_on_c, 3, 74, 127
5, 216197, Note_off_c, 3, 74, 0
5, 216217, Note_on_c, 3, 71, 127
5, 216689, Note_off_c, 3, 63, 0
5, 217051, Note_off_c, 3, 71, 0
5, 218421, Note_on_c, 3, 80, 110
5, 218632, Note_on_c, 3, 78, 127
5, 218644, Note_off_c, 3, 80, 0
5, 218780, Note_off_c, 3, 78, 0
5, 218811, Pitch_bend_c, 3, 8191
5, 218826, Pitch_bend_c, 3, 5812
5, 218846, Pitch_bend_c, 3, 3170
5, 218856, Note_on_c, 3, 80, 127
5, 218866, Pitch_bend_c, 3, 2113
5, 218891, Pitch_bend_c, 3, 2906
5, 218912, Pitch_bend_c, 3, 5548
5, 218932, Pitch_bend_c, 3, 7398
5, 218952, Pitch_bend_c, 3, 8191
5, 218966, Pitch_bend_c, 3, 8192
5, 219311, Note_off_c, 3, 80, 0
5, 219331, Note_on_c, 3, 78, 127
5, 219806, Note_off_c, 3, 78, 0
5, 219837, Note_on_c, 3, 80, 110
5, 220054, Note_on_c, 3, 78, 127
5, 220130, Note_off_c, 3, 80, 0
5, 220261, Note_off_c, 3, 78, 0
5, 220287, Pitch_bend_c, 3, 6341
5, 220301, Pitch_bend_c, 3, 3434
5, 220307, Note_on_c, 3, 83, 127
5, 220321, Pitch_bend_c, 3, 1849
5, 220357, Pitch_bend_c, 3, 3170
5, 220383, Pitch_bend_c, 3, 5284
5, 220402, Pitch_bend_c, 3, 7134
5, 220423, Pitch_bend_c, 3, 8191
5, 220437, Pitch_bend_c, 3, 8192
5, 220756, Note_off_c, 3, 83, 0
5, 221495, Note_on_c, 3, 71, 127
5, 221666, Pitch_bend_c, 3, 7398
5, 221682, Note_off_c, 3, 71, 0
5, 221687, Pitch_bend_c, 3, 4756
5, 221707, Pitch_bend_c, 3, 2378
5, 221718, Note_on_c, 3, 78, 127
5, 221723, Pitch_bend_c, 3, 1849
5, 221743, Pitch_bend_c, 3, 3170
5, 221768, Pitch_bend_c, 3, 6077
5, 221788, Pitch_bend_c, 3, 7662
5, 221804, Pitch_bend_c, 3, 8192
5, 222112, Note_off_c, 3, 78, 0
5, 222166, Note_on_c, 3, 76, 127
5, 222410, Pitch_bend_c, 3, 7926
5, 222420, Pitch_bend_c, 3, 7134
5, 222441, Pitch_bend_c, 3, 6869
5, 222485, Pitch_bend_c, 3, 8191
5, 222502, Pitch_bend_c, 3, 8192
5, 222698, Note_off_c, 3, 76, 0
5, 222758, Note_on_c, 3, 76, 122
5, 222961, Note_on_c, 3, 74, 127
5, 222966, Note_off_c, 3, 76, 0
5, 223188, Note_on_c, 3, 78, 127
5, 223198, Pitch_bend_c, 3, 6341
5, 223203, Note_off_c, 3, 74, 0
5, 223218, Pitch_bend_c, 3, 3170
5, 223238, Pitch_bend_c, 3, 1849
5, 223254, Pitch_bend_c, 3, 2378
5, 223278, Pitch_bend_c, 3, 4756
5, 223299, Pitch_bend_c, 3, 7134
5, 223320, Pitch_bend_c, 3, 8191
5, 223339, Pitch_bend_c, 3, 8192
5, 223654, Pitch_bend_c, 3, 7926
5, 223679, Pitch_bend_c, 3, 6605
5, 223699, Pitch_bend_c, 3, 5020
5, 223714, Pitch_bend_c, 3, 3170
5, 223735, Pitch_bend_c, 3, 1321
5, 223754, Pitch_bend_c, 3, 0
5, 223775, Pitch_bend_c, 3, 5284
5, 223780, Note_off_c, 3, 78, 0
5, 223795, Pitch_bend_c, 3, 7134
5, 223815, Pitch_bend_c, 3, 8191
5, 223836, Pitch_bend_c, 3, 8192
5, 224179, Note_on_c, 3, 76, 127
5, 224387, Note_on_c, 3, 74, 127
5, 224417, Note_off_c, 3, 76, 0
5, 224554, Note_off_c, 3, 74, 0
5, 224589, Pitch_bend_c, 3, 7398
5, 224603, Note_on_c, 3, 64, 113
5, 224605, Note_on_c, 3, 76, 127
5, 224610, Pitch_bend_c, 3, 3170
5, 224629, Pitch_bend_c, 3, 264
5, 224650, Pitch_bend_c, 3, 0
5, 224671, Pitch_bend_c, 3, 1321
5, 224686, Pitch_bend_c, 3, 4227
5, 224705, Pitch_bend_c, 3, 6605
5, 224725, Pitch_bend_c, 3, 7926
5, 224746, Pitch_bend_c, 3, 8192
5, 225024, Note_off_c, 3, 76, 0
5, 225029, Note_on_c, 3, 74, 127
5, 225034, Note_off_c, 3, 64, 0
5, 225115, Note_on_c, 3, 64, 104
5, 225212, Note_off_c, 3, 74, 0
5, 225257, Note_on_c, 3, 76, 127
5, 225261, Note_off_c, 3, 64, 0
5, 225337, Note_on_c, 3, 64, 101
5, 225484, Note_on_c, 3, 74, 127
5, 225524, Note_off_c, 3, 76, 0
5, 225732, Note_on_c, 3, 78, 127
5, 225741, Note_off_c, 3, 74, 0
5, 225752, Note_off_c, 3, 64, 0
5, 225778, Pitch_bend_c, 3, 7926
5, 225798, Pitch_bend_c, 3, 4756
5, 225817, Pitch_bend_c, 3, 1849
5, 225823, Note_on_c, 3, 64, 97
5, 225838, Pitch_bend_c, 3, 528
5, 225852, Pitch_bend_c, 3, 1321
5, 225873, Pitch_bend_c, 3, 3170
5, 225894, Pitch_bend_c, 3, 5812
5, 225914, Pitch_bend_c, 3, 7398
5, 225934, Pitch_bend_c, 3, 8191
5, 225955, Pitch_bend_c, 3, 8192
5, 225969, Note_off_c, 3, 64, 0
5, 226050, Note_on_c, 3, 64, 104
5, 226232, Pitch_bend_c, 3, 8191
5, 226248, Pitch_bend_c, 3, 7926
5, 226268, Pitch_bend_c, 3, 7398
5, 226288, Pitch_bend_c, 3, 6869
5, 226308, Pitch_bend_c, 3, 6341
5, 226329, Pitch_bend_c, 3, 5548
5, 226349, Pitch_bend_c, 3, 4491
5, 226368, Pitch_bend_c, 3, 3170
5, 226389, Pitch_bend_c, 3, 1849
5, 226409, Pitch_bend_c, 3, 5548
5, 226429, Pitch_bend_c, 3, 7134
5, 226440, Note_off_c, 3, 78, 0
5, 226449, Pitch_bend_c, 3, 8191
5, 226469, Pitch_bend_c, 3, 8192
5, 226687, Note_off_c, 3, 64, 0
5, 226758, Note_on_c, 3, 64, 101
5, 227078, Note_on_c, 3, 81, 127
5, 227275, Note_off_c, 3, 81, 0
5, 227300, Note_on_c, 3, 78, 110
5, 227455, Note_off_c, 3, 64, 0
5, 227465, Note_on_c, 3, 63, 91
5, 227481, Pitch_bend_c, 3, 6605
5, 227486, Note_off_c, 3, 78, 0
5, 227501, Pitch_bend_c, 3, 3963
5, 227517, Note_on_c, 3, 81, 127
5, 227522, Pitch_bend_c, 3, 3170
5, 227542, Pitch_bend_c, 3, 4756
5, 227562, Pitch_bend_c, 3, 6869
5, 227582, Pitch_bend_c, 3, 8191
5, 227602, Pitch_bend_c, 3, 8192
5, 227724, Note_on_c, 3, 78, 110
5, 227745, Note_off_c, 3, 81, 0
5, 227936, Note_off_c, 3, 78, 0
5, 227967, Note_on_c, 3, 81, 127
5, 228209, Note_off_c, 3, 63, 0
5, 228229, Note_on_c, 3, 78, 110
5, 228266, Note_off_c, 3, 81, 0
5, 228457, Note_on_c, 3, 81, 127
5, 228462, Note_off_c, 3, 78, 0
5, 228706, Note_on_c, 3, 78, 110
5, 228796, Note_off_c, 3, 81, 0
5, 228897, Note_off_c, 3, 78, 0
5, 228923, Pitch_bend_c, 3, 7134
5, 228937, Note_on_c, 3, 83, 127
5, 228937, Pitch_bend_c, 3, 3963
5, 228958, Pitch_bend_c, 3, 1321
5, 228973, Pitch_bend_c, 3, 528
5, 228994, Pitch_bend_c, 3, 1321
5, 229014, Pitch_bend_c, 3, 3699
5, 229033, Pitch_bend_c, 3, 6605
5, 229059, Pitch_bend_c, 3, 7926
5, 229075, Pitch_bend_c, 3, 8192
5, 229514, Pitch_bend_c, 3, 7926
5, 229534, Pitch_bend_c, 3, 6605
5, 229555, Pitch_bend_c, 3, 5020
5, 229570, Pitch_bend_c, 3, 7134
5, 229589, Pitch_bend_c, 3, 8191
5, 229594, Note_off_c, 3, 83, 0
5, 229614, Pitch_bend_c, 3, 8192
5, 230293, Pitch_bend_c, 3, 7662
5, 230315, Pitch_bend_c, 3, 4756
5, 230335, Pitch_bend_c, 3, 1849
5, 230345, Note_on_c, 3, 75, 127
5, 230355, Pitch_bend_c, 3, 528
5, 230375, Pitch_bend_c, 3, 1056
5, 230396, Pitch_bend_c, 3, 3434
5, 230415, Pitch_bend_c, 3, 6341
5, 230431, Pitch_bend_c, 3, 7662
5, 230451, Pitch_bend_c, 3, 8192
5, 230809, Note_off_c, 3, 75, 0
5, 230844, Note_on_c, 3, 76, 127
5, 231365, Note_on_c, 3, 78, 127
5, 231400, Note_off_c, 3, 76, 0
5, 231406, Pitch_bend_c, 3, 6605
5, 231427, Pitch_bend_c, 3, 2906
5, 231442, Pitch_bend_c, 3, 264
5, 231461, Pitch_bend_c, 3, 0
5, 231481, Pitch_bend_c, 3, 1585
5, 231503, Pitch_bend_c, 3, 4227
5, 231523, Pitch_bend_c, 3, 6869
5, 231543, Pitch_bend_c, 3, 7926
5, 231563, Pitch_bend_c, 3, 8192
5, 232058, Pitch_bend_c, 3, 8191
5, 232079, Pitch_bend_c, 3, 7398
5, 232103, Pitch_bend_c, 3, 6341
5, 232119, Pitch_bend_c, 3, 4756
5, 232139, Pitch_bend_c, 3, 3170
5, 232160, Pitch_bend_c, 3, 6869
5, 232180, Pitch_bend_c, 3, 7926
5, 232190, Note_off_c, 3, 78, 0
5, 232199, Pitch_bend_c, 3, 8192
5, 233176, Pitch_bend_c, 3, 7926
5, 233196, Pitch_bend_c, 3, 5284
5, 233221, Pitch_bend_c, 3, 3434
5, 233240, Note_on_c, 3, 76, 127
5, 233240, Pitch_bend_c, 3, 2906
5, 233257, Pitch_bend_c, 3, 4491
5, 233277, Pitch_bend_c, 3, 6869
5, 233297, Pitch_bend_c, 3, 7926
5, 233317, Pitch_bend_c, 3, 8192
5, 233519, Note_on_c, 3, 74, 127
5, 233550, Note_off_c, 3, 76, 0
5, 233716, Note_off_c, 3, 74, 0
5, 233767, Note_on_c, 3, 76, 127
5, 234010, Note_on_c, 3, 74, 127
5, 234039, Note_off_c, 3, 76, 0
5, 234241, Note_off_c, 3, 74, 0
5, 234263, Note_on_c, 3, 78, 127
5, 234272, Pitch_bend_c, 3, 7662
5, 234292, Pitch_bend_c, 3, 4227
5, 234313, Pitch_bend_c, 3, 792
5, 234328, Pitch_bend_c, 3, 0
5, 234347, Pitch_bend_c, 3, 528
5, 234374, Pitch_bend_c, 3, 3170
5, 234388, Pitch_bend_c, 3, 6077
5, 234408, Pitch_bend_c, 3, 7662
5, 234430, Pitch_bend_c, 3, 8192
5, 234827, Pitch_bend_c, 3, 7662
5, 234844, Pitch_bend_c, 3, 6605
5, 234864, Pitch_bend_c, 3, 5548
5, 234884, Pitch_bend_c, 3, 5020
5, 234904, Pitch_bend_c, 3, 7398
5, 234925, Pitch_bend_c, 3, 8191
5, 234935, Note_off_c, 3, 78, 0
5, 234945, Pitch_bend_c, 3, 8192
5, 235930, Note_on_c, 3, 74, 127
5, 236123, Note_on_c, 3, 64, 113
5, 236128, Note_off_c, 3, 74, 0
5, 236144, Pitch_bend_c, 3, 6869
5, 236164, Pitch_bend_c, 3, 4756
5, 236178, Note_on_c, 3, 76, 127
5, 236184, Pitch_bend_c, 3, 3699
5, 236203, Pitch_bend_c, 3, 4227
5, 236224, Pitch_bend_c, 3, 6341
5, 236244, Pitch_bend_c, 3, 7662
5, 236260, Pitch_bend_c, 3, 8192
5, 236416, Note_on_c, 3, 74, 127
5, 236457, Note_off_c, 3, 76, 0
5, 236554, Note_off_c, 3, 64, 0
5, 236602, Note_off_c, 3, 74, 0
5, 236635, Note_on_c, 3, 64, 104
5, 236649, Note_on_c, 3, 76, 127
5, 236781, Note_off_c, 3, 64, 0
5, 236857, Note_on_c, 3, 64, 101
5, 236897, Note_on_c, 3, 74, 127
5, 236927, Note_off_c, 3, 76, 0
5, 237114, Note_off_c, 3, 74, 0
5, 237139, Note_on_c, 3, 78, 127
5, 237154, Pitch_bend_c, 3, 6341
5, 237175, Pitch_bend_c, 3, 3963
5, 237195, Pitch_bend_c, 3, 2906
5, 237215, Pitch_bend_c, 3, 3699
5, 237234, Pitch_bend_c, 3, 5812
5, 237249, Pitch_bend_c, 3, 7398
5, 237271, Pitch_bend_c, 3, 8191
5, 237272, Note_off_c, 3, 64, 0
5, 237291, Pitch_bend_c, 3, 8192
5, 237343, Note_on_c, 3, 64, 97
5, 237489, Note_off_c, 3, 64, 0
5, 237493, Note_off_c, 3, 78, 0
5, 237502, Note_on_c, 3, 71, 127
5, 237570, Note_on_c, 3, 64, 104
5, 237953, Note_off_c, 3, 71, 0
5, 238207, Note_off_c, 3, 64, 0
5, 238278, Note_on_c, 3, 64, 101
5, 238600, Note_on_c, 3, 81, 127
5, 238798, Note_off_c, 3, 81, 0
5, 238823, Note_on_c, 3, 78, 127
5, 238975, Note_off_c, 3, 64, 0
5, 238985, Note_on_c, 3, 63, 91
5, 238986, Note_off_c, 3, 78, 0
5, 239041, Pitch_bend_c, 3, 7398
5, 239051, Note_on_c, 3, 81, 127
5, 239065, Pitch_bend_c, 3, 6341
5, 239085, Pitch_bend_c, 3, 6605
5, 239101, Pitch_bend_c, 3, 7662
5, 239122, Pitch_bend_c, 3, 8192
5, 239364, Note_off_c, 3, 81, 0
5, 239459, Note_on_c, 3, 81, 127
5, 239729, Note_off_c, 3, 63, 0
5, 239803, Note_off_c, 3, 81, 0
5, 239889, Note_on_c, 3, 81, 127
5, 240137, Note_on_c, 3, 78, 127
5, 240198, Note_off_c, 3, 81, 0
5, 240335, Note_off_c, 3, 78, 0
5, 240335, Pitch_bend_c, 3, 7926
5, 240350, Pitch_bend_c, 3, 5284
5, 240370, Pitch_bend_c, 3, 2642
5, 240380, Note_on_c, 3, 83, 127
5, 240390, Pitch_bend_c, 3, 1849
5, 240411, Pitch_bend_c, 3, 2642
5, 240431, Pitch_bend_c, 3, 4756
5, 240451, Pitch_bend_c, 3, 6605
5, 240465, Pitch_bend_c, 3, 7926
5, 240486, Pitch_bend_c, 3, 8192
5, 240623, Note_on_c, 3, 81, 127
5, 240683, Note_off_c, 3, 83, 0
5, 240890, Note_off_c, 3, 81, 0
5, 240896, Note_on_c, 3, 78, 110
5, 241461, Note_off_c, 3, 78, 0
5, 262794, Pitch_bend_c, 3, 6869
5, 262814, Pitch_bend_c, 3, 2378
5, 262819, Note_on_c, 3, 78, 127
5, 262834, Pitch_bend_c, 3, 0
5, 262855, Pitch_bend_c, 3, 528
5, 262875, Pitch_bend_c, 3, 2906
5, 262890, Pitch_bend_c, 3, 5812
5, 262910, Pitch_bend_c, 3, 7398
5, 262935, Pitch_bend_c, 3, 8191
5, 262951, Pitch_bend_c, 3, 8192
5, 263163, Note_off_c, 3, 78, 0
5, 263227, Note_on_c, 3, 76, 127
5, 264057, Note_off_c, 3, 76, 0
5, 264149, Note_on_c, 3, 76, 127
5, 264673, Note_on_c, 3, 78, 110
5, 264680, Note_off_c, 3, 76, 0
5, 264841, Note_off_c, 3, 78, 0
5, 264882, Pitch_bend_c, 3, 6869
5, 264902, Pitch_bend_c, 3, 4227
5, 264912, Note_on_c, 3, 74, 127
5, 264922, Pitch_bend_c, 3, 2642
5, 264963, Pitch_bend_c, 3, 4227
5, 264982, Pitch_bend_c, 3, 6605
5, 265002, Pitch_bend_c, 3, 7926
5, 265022, Pitch_bend_c, 3, 8192
5, 265133, Note_on_c, 3, 73, 104
5, 265165, Note_off_c, 3, 74, 0
5, 265325, Note_off_c, 3, 73, 0
5, 265357, Note_on_c, 3, 71, 127
5, 265959, Note_off_c, 3, 71, 0
5, 270164, Note_on_c, 3, 76, 127
5, 270427, Note_off_c, 3, 76, 0
5, 270427, Note_on_c, 3, 74, 127
5, 270624, Pitch_bend_c, 3, 7134
5, 270634, Note_off_c, 3, 74, 0
5, 270644, Pitch_bend_c, 3, 4491
5, 270658, Note_on_c, 3, 76, 127
5, 270665, Pitch_bend_c, 3, 2642
5, 270705, Pitch_bend_c, 3, 4227
5, 270725, Pitch_bend_c, 3, 6605
5, 270745, Pitch_bend_c, 3, 7926
5, 270765, Pitch_bend_c, 3, 8192
5, 270826, Note_off_c, 3, 76, 0
5, 270897, Note_on_c, 3, 76, 117
5, 271109, Note_off_c, 3, 76, 0
5, 271134, Note_on_c, 3, 74, 127
5, 271317, Note_off_c, 3, 74, 0
5, 271361, Note_on_c, 3, 76, 127
5, 271771, Note_off_c, 3, 76, 0
5, 271822, Note_on_c, 3, 78, 127
5, 271831, Pitch_bend_c, 3, 5548
5, 271846, Pitch_bend_c, 3, 1321
5, 271867, Pitch_bend_c, 3, 0
5, 271907, Pitch_bend_c, 3, 1056
5, 271928, Pitch_bend_c, 3, 3963
5, 271948, Pitch_bend_c, 3, 6605
5, 271964, Pitch_bend_c, 3, 7926
5, 271984, Pitch_bend_c, 3, 8192
5, 272403, Control_c, 3, 1, 127
5, 272443, Control_c, 3, 1, 0
5, 272596, Note_off_c, 3, 78, 0
5, 273130, Note_on_c, 3, 76, 127
5, 273369, Note_on_c, 3, 78, 110
5, 273404, Note_off_c, 3, 76, 0
5, 273495, Pitch_bend_c, 3, 6605
5, 273515, Pitch_bend_c, 3, 4756
5, 273536, Pitch_bend_c, 3, 3963
5, 273556, Note_off_c, 3, 78, 0
5, 273556, Pitch_bend_c, 3, 5020
5, 273565, Note_on_c, 3, 74, 127
5, 273576, Pitch_bend_c, 3, 6869
5, 273595, Pitch_bend_c, 3, 7926
5, 273611, Pitch_bend_c, 3, 8192
5, 273772, Note_off_c, 3, 74, 0
5, 273803, Note_on_c, 3, 71, 117
5, 274173, Note_off_c, 3, 71, 0
5, 275645, Pitch_bend_c, 3, 7926
5, 275667, Pitch_bend_c, 3, 3699
5, 275686, Pitch_bend_c, 3, 264
5, 275692, Note_on_c, 3, 83, 127
5, 275707, Pitch_bend_c, 3, 0
5, 275747, Pitch_bend_c, 3, 1585
5, 275767, Pitch_bend_c, 3, 4227
5, 275782, Pitch_bend_c, 3, 6605
5, 275802, Pitch_bend_c, 3, 7926
5, 275823, Pitch_bend_c, 3, 8192
5, 276025, Note_off_c, 3, 83, 0
5, 276106, Pitch_bend_c, 3, 7662
5, 276126, Note_on_c, 3, 83, 127
5, 276126, Pitch_bend_c, 3, 2906
5, 276161, Pitch_bend_c, 3, 0
5, 276202, Pitch_bend_c, 3, 2642
5, 276222, Pitch_bend_c, 3, 5812
5, 276242, Pitch_bend_c, 3, 7398
5, 276263, Pitch_bend_c, 3, 8191
5, 276283, Pitch_bend_c, 3, 8192
5, 277396, Note_off_c, 3, 83, 0
5, 277457, Note_on_c, 3, 81, 127
5, 277673, Note_off_c, 3, 81, 0
5, 277693, Note_on_c, 3, 83, 127
5, 277871, Note_off_c, 3, 83, 0
5, 277922, Note_on_c, 3, 74, 127
5, 278193, Note_off_c, 3, 74, 0
5, 278275, Note_on_c, 3, 71, 104
5, 278572, Note_off_c, 3, 71, 0
5, 278910, Pitch_bend_c, 3, 6605
5, 278915, Note_on_c, 3, 74, 127
5, 278930, Pitch_bend_c, 3, 3170
5, 278951, Pitch_bend_c, 3, 1585
5, 278991, Pitch_bend_c, 3, 2906
5, 279006, Pitch_bend_c, 3, 5284
5, 279025, Pitch_bend_c, 3, 7134
5, 279047, Pitch_bend_c, 3, 8191
5, 279067, Pitch_bend_c, 3, 8192
5, 279268, Note_off_c, 3, 74, 0
5, 279303, Note_on_c, 3, 71, 127
5, 279860, Note_off_c, 3, 71, 0
5, 281968, Note_on_c, 3, 71, 127
5, 282151, Note_off_c, 3, 71, 0
5, 282176, Pitch_bend_c, 3, 6077
5, 282196, Pitch_bend_c, 3, 3170
5, 282205, Note_on_c, 3, 78, 127
5, 282216, Pitch_bend_c, 3, 1585
5, 282237, Pitch_bend_c, 3, 1849
5, 282257, Pitch_bend_c, 3, 3170
5, 282276, Pitch_bend_c, 3, 5548
5, 282291, Pitch_bend_c, 3, 7398
5, 282312, Pitch_bend_c, 3, 8191
5, 282332, Pitch_bend_c, 3, 8192
5, 282615, Note_off_c, 3, 78, 0
5, 282686, Note_on_c, 3, 78, 110
5, 282898, Note_off_c, 3, 78, 0
5, 282939, Note_on_c, 3, 76, 127
5, 283389, Note_off_c, 3, 76, 0
5, 283399, Note_on_c, 3, 74, 127
5, 283625, Note_off_c, 3, 74, 0
5, 283626, Pitch_bend_c, 3, 7398
5, 283651, Pitch_bend_c, 3, 4756
5, 283657, Note_on_c, 3, 76, 127
5, 283667, Pitch_bend_c, 3, 2906
5, 283707, Pitch_bend_c, 3, 4227
5, 283728, Pitch_bend_c, 3, 6605
5, 283748, Pitch_bend_c, 3, 7662
5, 283768, Pitch_bend_c, 3, 8192
5, 284314, Note_off_c, 3, 76, 0
5, 284365, Pitch_bend_c, 3, 7398
5, 284385, Pitch_bend_c, 3, 3699
5, 284395, Note_on_c, 3, 76, 127
5, 284399, Pitch_bend_c, 3, 1056
5, 284424, Pitch_bend_c, 3, 792
5, 284445, Pitch_bend_c, 3, 2113
5, 284461, Pitch_bend_c, 3, 4491
5, 284481, Pitch_bend_c, 3, 6869
5, 284509, Pitch_bend_c, 3, 7926
5, 284521, Pitch_bend_c, 3, 8192
5, 285093, Note_off_c, 3, 76, 0
5, 285113, Note_on_c, 3, 74, 127
5, 285324, Note_off_c, 3, 74, 0
5, 285335, Note_on_c, 3, 71, 97
5, 285834, Pitch_bend_c, 3, 6869
5, 285841, Note_off_c, 3, 71, 0
5, 285854, Pitch_bend_c, 3, 2378
5, 285859, Note_on_c, 3, 78, 127
5, 285874, Pitch_bend_c, 3, 0
5, 285895, Pitch_bend_c, 3, 528
5, 285915, Pitch_bend_c, 3, 2906
5, 285930, Pitch_bend_c, 3, 5812
5, 285950, Pitch_bend_c, 3, 7398
5, 285975, Pitch_bend_c, 3, 8191
5, 285991, Pitch_bend_c, 3, 8192
5, 286203, Note_off_c, 3, 78, 0
5, 286267, Note_on_c, 3, 76, 127
5, 287097, Note_off_c, 3, 76, 0
5, 287189, Note_on_c, 3, 76, 127
5, 287713, Note_on_c, 3, 78, 110
5, 287720, Note_off_c, 3, 76, 0
5, 287881, Note_off_c, 3, 78, 0
5, 287922, Pitch_bend_c, 3, 6869
5, 287942, Pitch_bend_c, 3, 4227
5, 287952, Note_on_c, 3, 74, 127
5, 287962, Pitch_bend_c, 3, 2642
5, 288000, Control_c, 3, 11, 127
5, 288003, Pitch_bend_c, 3, 4227
5, 288022, Pitch_bend_c, 3, 6605
5, 288042, Pitch_bend_c, 3, 7926
5, 288062, Pitch_bend_c, 3, 8192
5, 288120, Control_c, 3, 11, 126
5, 288173, Note_on_c, 3, 73, 104
5, 288205, Note_off_c, 3, 74, 0
5, 288360, Control_c, 3, 11, 125
5, 288365, Note_off_c, 3, 73, 0
5, 288397, Note_on_c, 3, 71, 127
5, 288480, Control_c, 3, 11, 124
5, 288720, Control_c, 3, 11, 123
5, 288840, Control_c, 3, 11, 122
5, 288999, Note_off_c, 3, 71, 0
5, 289080, Control_c, 3, 11, 121
5, 289200, Control_c, 3, 11, 120
5, 289440, Control_c, 3, 11, 119
5, 289560, Control_c, 3, 11, 118
5, 289800, Control_c, 3, 11, 117
5, 289920, Control_c, 3, 11, 116
5, 290160, Control_c, 3, 11, 115
5, 290280, Control_c, 3, 11, 114
5, 290520, Control_c, 3, 11, 113
5, 290640, Control_c, 3, 11, 112
5, 290880, Control_c, 3, 11, 111
5, 291000, Control_c, 3, 11, 110
5, 291240, Control_c, 3, 11, 109
5, 291360, Control_c, 3, 11, 108
5, 291600, Control_c, 3, 11, 107
5, 291720, Control_c, 3, 11, 106
5, 291960, Control_c, 3, 11, 105
5, 292200, Control_c, 3, 11, 104
5, 292320, Control_c, 3, 11, 103
5, 292560, Control_c, 3, 11, 102
5, 292680, Control_c, 3, 11, 101
5, 292920, Control_c, 3, 11, 100
5, 293040, Control_c, 3, 11, 99
5, 293204, Note_on_c, 3, 76, 127
5, 293280, Control_c, 3, 11, 98
5, 293400, Control_c, 3, 11, 97
5, 293467, Note_off_c, 3, 76, 0
5, 293467, Note_on_c, 3, 74, 127
5, 293640, Control_c, 3, 11, 96
5, 293664, Pitch_bend_c, 3, 7134
5, 293674, Note_off_c, 3, 74, 0
5, 293684, Pitch_bend_c, 3, 4491
5, 293698, Note_on_c, 3, 76, 127
5, 293705, Pitch_bend_c, 3, 2642
5, 293745, Pitch_bend_c, 3, 4227
5, 293760, Control_c, 3, 11, 95
5, 293765, Pitch_bend_c, 3, 6605
5, 293785, Pitch_bend_c, 3, 7926
5, 293805, Pitch_bend_c, 3, 8192
5, 293866, Note_off_c, 3, 76, 0
5, 293937, Note_on_c, 3, 76, 117
5, 294000, Control_c, 3, 11, 94
5, 294120, Control_c, 3, 11, 93
5, 294149, Note_off_c, 3, 76, 0
5, 294174, Note_on_c, 3, 74, 127
5, 294357, Note_off_c, 3, 74, 0
5, 294360, Control_c, 3, 11, 92
5, 294401, Note_on_c, 3, 76, 127
5, 294480, Control_c, 3, 11, 91
5, 294720, Control_c, 3, 11, 90
5, 294811, Note_off_c, 3, 76, 0
5, 294840, Control_c, 3, 11, 89
5, 294862, Note_on_c, 3, 78, 127
5, 294871, Pitch_bend_c, 3, 5548
5, 294886, Pitch_bend_c, 3, 1321
5, 294907, Pitch_bend_c, 3, 0
5, 294947, Pitch_bend_c, 3, 1056
5, 294968, Pitch_bend_c, 3, 3963
5, 294988, Pitch_bend_c, 3, 6605
5, 295004, Pitch_bend_c, 3, 7926
5, 295024, Pitch_bend_c, 3, 8192
5, 295080, Control_c, 3, 11, 88
5, 295200, Control_c, 3, 11, 87
5, 295440, Control_c, 3, 11, 86
5, 295443, Control_c, 3, 1, 127
5, 295483, Control_c, 3, 1, 0
5, 295560, Control_c, 3, 11, 85
5, 295636, Note_off_c, 3, 78, 0
5, 295800, Control_c, 3, 11, 84
5, 295920, Control_c, 3, 11, 83
5, 296160, Control_c, 3, 11, 82
5, 296170, Note_on_c, 3, 76, 127
5, 296280, Control_c, 3, 11, 81
5, 296409, Note_on_c, 3, 78, 110
5, 296444, Note_off_c, 3, 76, 0
5, 296520, Control_c, 3, 11, 80
5, 296535, Pitch_bend_c, 3, 6605
5, 296555, Pitch_bend_c, 3, 4756
5, 296576, Pitch_bend_c, 3, 3963
5, 296596, Note_off_c, 3, 78, 0
5, 296596, Pitch_bend_c, 3, 5020
5, 296605, Note_on_c, 3, 74, 127
5, 296616, Pitch_bend_c, 3, 6869
5, 296635, Pitch_bend_c, 3, 7926
5, 296640, Control_c, 3, 11, 79
5, 296651, Pitch_bend_c, 3, 8192
5, 296812, Note_off_c, 3, 74, 0
5, 296843, Note_on_c, 3, 71, 117
5, 296880, Control_c, 3, 11, 78
5, 297000, Control_c, 3, 11, 77
5, 297213, Note_off_c, 3, 71, 0
5, 297240, Control_c, 3, 11, 76
5, 297360, Control_c, 3, 11, 75
5, 297600, Control_c, 3, 11, 74
5, 297720, Control_c, 3, 11, 73
5, 297960, Control_c, 3, 11, 72
5, 298080, Control_c, 3, 11, 71
5, 298320, Control_c, 3, 11, 70
5, 298440, Control_c, 3, 11, 69
5, 298680, Control_c, 3, 11, 68
5, 298685, Pitch_bend_c, 3, 7926
5, 298707, Pitch_bend_c, 3, 3699
5, 298726, Pitch_bend_c, 3, 264
5, 298732, Note_on_c, 3, 83, 127
5, 298747, Pitch_bend_c, 3, 0
5, 298787, Pitch_bend_c, 3, 1585
5, 298800, Control_c, 3, 11, 67
5, 298807, Pitch_bend_c, 3, 4227
5, 298822, Pitch_bend_c, 3, 6605
5, 298842, Pitch_bend_c, 3, 7926
5, 298863, Pitch_bend_c, 3, 8192
5, 299040, Control_c, 3, 11, 66
5, 299065, Note_off_c, 3, 83, 0
5, 299146, Pitch_bend_c, 3, 7662
5, 299160, Control_c, 3, 11, 65
5, 299166, Note_on_c, 3, 83, 127
5, 299166, Pitch_bend_c, 3, 2906
5, 299201, Pitch_bend_c, 3, 0
5, 299242, Pitch_bend_c, 3, 2642
5, 299262, Pitch_bend_c, 3, 5812
5, 299282, Pitch_bend_c, 3, 7398
5, 299303, Pitch_bend_c, 3, 8191
5, 299323, Pitch_bend_c, 3, 8192
5, 299400, Control_c, 3, 11, 64
5, 299520, Control_c, 3, 11, 63
5, 299760, Control_c, 3, 11, 62
5, 300000, Control_c, 3, 11, 61
5, 300120, Control_c, 3, 11, 60
5, 300360, Control_c, 3, 11, 59
5, 300436, Note_off_c, 3, 83, 0
5, 300480, Control_c, 3, 11, 58
5, 300497, Note_on_c, 3, 81, 127
5, 300713, Note_off_c, 3, 81, 0
5, 300720, Control_c, 3, 11, 57
5, 300733, Note_on_c, 3, 83, 127
5, 300840, Control_c, 3, 11, 56
5, 300911, Note_off_c, 3, 83, 0
5, 300962, Note_on_c, 3, 74, 127
5, 301080, Control_c, 3, 11, 55
5, 301200, Control_c, 3, 11, 54
5, 301233, Note_off_c, 3, 74, 0
5, 301315, Note_on_c, 3, 71, 104
5, 301440, Control_c, 3, 11, 53
5, 301560, Control_c, 3, 11, 52
5, 301612, Note_off_c, 3, 71, 0
5, 301800, Control_c, 3, 11, 51
5, 301920, Control_c, 3, 11, 50
5, 301950, Pitch_bend_c, 3, 6605
5, 301955, Note_on_c, 3, 74, 127
5, 301970, Pitch_bend_c, 3, 3170
5, 301991, Pitch_bend_c, 3, 1585
5, 302031, Pitch_bend_c, 3, 2906
5, 302046, Pitch_bend_c, 3, 5284
5, 302065, Pitch_bend_c, 3, 7134
5, 302087, Pitch_bend_c, 3, 8191
5, 302107, Pitch_bend_c, 3, 8192
5, 302160, Control_c, 3, 11, 49
5, 302280, Control_c, 3, 11, 48
5, 302308, Note_off_c, 3, 74, 0
5, 302343, Note_on_c, 3, 71, 127
5, 302520, Control_c, 3, 11, 47
5, 302640, Control_c, 3, 11, 46
5, 302880, Control_c, 3, 11, 45
5, 302900, Note_off_c, 3, 71, 0
5, 303000, Control_c, 3, 11, 44
5, 303240, Control_c, 3, 11, 43
5, 303360, Control_c, 3, 11, 42
5, 303600, Control_c, 3, 11, 41
5, 303720, Control_c, 3, 11, 40
5, 303960, Control_c, 3, 11, 39
5, 304080, Control_c, 3, 11, 38
5, 304320, Control_c, 3, 11, 37
5, 304440, Control_c, 3, 11, 36
5, 304680, Control_c, 3, 11, 35
5, 304800, Control_c, 3, 11, 34
5, 305008, Note_on_c, 3, 71, 127
5, 305040, Control_c, 3, 11, 33
5, 305160, Control_c, 3, 11, 32
5, 305191, Note_off_c, 3, 71, 0
5, 305216, Pitch_bend_c, 3, 6077
5, 305236, Pitch_bend_c, 3, 3170
5, 305245, Note_on_c, 3, 78, 127
5, 305256, Pitch_bend_c, 3, 1585
5, 305277, Pitch_bend_c, 3, 1849
5, 305297, Pitch_bend_c, 3, 3170
5, 305316, Pitch_bend_c, 3, 5548
5, 305331, Pitch_bend_c, 3, 7398
5, 305352, Pitch_bend_c, 3, 8191
5, 305372, Pitch_bend_c, 3, 8192
5, 305400, Control_c, 3, 11, 31
5, 305520, Control_c, 3, 11, 30
5, 305655, Note_off_c, 3, 78, 0
5, 305726, Note_on_c, 3, 78, 110
5, 305760, Control_c, 3, 11, 29
5, 305880, Control_c, 3, 11, 28
5, 305938, Note_off_c, 3, 78, 0
5, 305979, Note_on_c, 3, 76, 127
5, 306120, Control_c, 3, 11, 27
5, 306240, Control_c, 3, 11, 26
5, 306429, Note_off_c, 3, 76, 0
5, 306439, Note_on_c, 3, 74, 127
5, 306480, Control_c, 3, 11, 25
5, 306600, Control_c, 3, 11, 24
5, 306665, Note_off_c, 3, 74, 0
5, 306666, Pitch_bend_c, 3, 7398
5, 306691, Pitch_bend_c, 3, 4756
5, 306697, Note_on_c, 3, 76, 127
5, 306707, Pitch_bend_c, 3, 2906
5, 306747, Pitch_bend_c, 3, 4227
5, 306768, Pitch_bend_c, 3, 6605
5, 306788, Pitch_bend_c, 3, 7662
5, 306808, Pitch_bend_c, 3, 8192
5, 306840, Control_c, 3, 11, 23
5, 306960, Control_c, 3, 11, 22
5, 307200, Control_c, 3, 11, 21
5, 307354, Note_off_c, 3, 76, 0
5, 307405, Pitch_bend_c, 3, 7398
5, 307425, Pitch_bend_c, 3, 3699
5, 307435, Note_on_c, 3, 76, 127
5, 307439, Pitch_bend_c, 3, 1056
5, 307440, Control_c, 3, 11, 20
5, 307464, Pitch_bend_c, 3, 792
5, 307485, Pitch_bend_c, 3, 2113
5, 307501, Pitch_bend_c, 3, 4491
5, 307521, Pitch_bend_c, 3, 6869
5, 307549, Pitch_bend_c, 3, 7926
5, 307560, Control_c, 3, 11, 19
5, 307561, Pitch_bend_c, 3, 8192
5, 307800, Control_c, 3, 11, 18
5, 307920, Control_c, 3, 11, 17
5, 308133, Note_off_c, 3, 76, 0
5, 308153, Note_on_c, 3, 74, 127
5, 308160, Control_c, 3, 11, 16
5, 308280, Control_c, 3, 11, 15
5, 308364, Note_off_c, 3, 74, 0
5, 308375, Note_on_c, 3, 71, 97
5, 308520, Control_c, 3, 11, 14
5, 308640, Control_c, 3, 11, 13
5, 308880, Control_c, 3, 11, 12
5, 308881, Note_off_c, 3, 71, 0
5, 309000, Control_c, 3, 11, 11
5, 309240, Control_c, 3, 11, 10
5, 309360, Control_c, 3, 11, 9
5, 309600, Control_c, 3, 11, 8
5, 309720, Control_c, 3, 11, 7
5, 309960, Control_c, 3, 11, 6
5, 310080, Control_c, 3, 11, 5
5, 310320, Control_c, 3, 11, 4
5, 310440, Control_c, 3, 11, 3
5, 310680, Control_c, 3, 11, 2
5, 310800, Control_c, 3, 11, 1
5, 311031, Control_c, 3, 7, 100
5, 311031, End_track
6, 0, Start_track
6, 0, Title_t, "\000"
6, 0, Control_c, 4, 0, 8
6, 0, Program_c, 4, 54
6, 0, Control_c, 4, 7, 82
6, 0, Control_c, 4, 10, 64
6, 0, Control_c, 4, 91, 127
6, 0, Control_c, 4, 93, 30
6, 670, Control_c, 4, 11, 127
6, 3469, Control_c, 4, 101, 0
6, 3471, Control_c, 4, 100, 0
6, 3474, Control_c, 4, 6, 2
6, 3476, Control_c, 4, 101, 127
6, 3479, Control_c, 4, 100, 127
6, 5275, Control_c, 4, 94, 0
6, 51824, Note_on_c, 4, 63, 110
6, 51830, Note_on_c, 4, 66, 110
6, 51834, Note_on_c, 4, 59, 127
6, 51838, Note_on_c, 4, 54, 100
6, 54741, Note_off_c, 4, 63, 0
6, 54741, Note_off_c, 4, 66, 0
6, 54741, Note_off_c, 4, 59, 0
6, 54741, Note_off_c, 4, 54, 0
6, 54745, Note_on_c, 4, 64, 117
6, 54752, Note_on_c, 4, 55, 117
6, 54757, Note_on_c, 4, 57, 122
6, 54761, Note_on_c, 4, 59, 122
6, 54761, Note_on_c, 4, 62, 122
6, 57623, Note_off_c, 4, 64, 0
6, 57623, Note_off_c, 4, 55, 0
6, 57623, Note_off_c, 4, 57, 0
6, 57623, Note_off_c, 4, 59, 0
6, 57623, Note_off_c, 4, 62, 0
6, 57627, Note_on_c, 4, 61, 100
6, 57633, Note_on_c, 4, 64, 122
6, 57638, Note_on_c, 4, 55, 108
6, 57638, Note_on_c, 4, 57, 122
6, 60450, Note_off_c, 4, 61, 0
6, 60450, Note_off_c, 4, 64, 0
6, 60450, Note_off_c, 4, 55, 0
6, 60450, Note_off_c, 4, 57, 0
6, 60454, Note_on_c, 4, 63, 100
6, 60459, Note_on_c, 4, 54, 100
6, 60459, Note_on_c, 4, 66, 104
6, 60464, Note_on_c, 4, 59, 127
6, 63346, Note_off_c, 4, 63, 0
6, 63346, Note_off_c, 4, 54, 0
6, 63346, Note_off_c, 4, 66, 0
6, 63346, Note_off_c, 4, 59, 0
6, 63350, Note_on_c, 4, 63, 104
6, 63354, Note_on_c, 4, 66, 104
6, 63361, Note_on_c, 4, 54, 100
6, 63361, Note_on_c, 4, 59, 127
6, 66253, Note_off_c, 4, 63, 0
6, 66253, Note_off_c, 4, 66, 0
6, 66253, Note_off_c, 4, 54, 0
6, 66253, Note_off_c, 4, 59, 0
6, 66257, Note_on_c, 4, 64, 117
6, 66266, Note_on_c, 4, 59, 127
6, 66272, Note_on_c, 4, 57, 117
6, 66277, Note_on_c, 4, 55, 122
6, 66277, Note_on_c, 4, 62, 122
6, 69099, Note_off_c, 4, 64, 0
6, 69099, Note_off_c, 4, 59, 0
6, 69099, Note_off_c, 4, 57, 0
6, 69099, Note_off_c, 4, 55, 0
6, 69099, Note_off_c, 4, 62, 0
6, 69103, Note_on_c, 4, 61, 100
6, 69108, Note_on_c, 4, 55, 108
6, 69113, Note_on_c, 4, 57, 122
6, 69113, Note_on_c, 4, 64, 117
6, 71981, Note_off_c, 4, 61, 0
6, 71981, Note_off_c, 4, 55, 0
6, 71981, Note_off_c, 4, 57, 0
6, 71981, Note_off_c, 4, 64, 0
6, 71985, Note_on_c, 4, 63, 104
6, 71990, Note_on_c, 4, 66, 104
6, 71995, Note_on_c, 4, 54, 104
6, 71999, Note_on_c, 4, 59, 127
6, 74634, Note_off_c, 4, 54, 0
6, 74649, Note_off_c, 4, 66, 0
6, 74649, Note_off_c, 4, 59, 0
6, 74654, Note_off_c, 4, 63, 0
6, 74890, Note_on_c, 4, 63, 87
6, 74891, Note_on_c, 4, 66, 95
6, 74896, Note_on_c, 4, 71, 113
6, 77666, Note_off_c, 4, 63, 0
6, 77677, Note_off_c, 4, 66, 0
6, 77702, Note_off_c, 4, 71, 0
6, 77748, Note_on_c, 4, 73, 80
6, 77758, Note_on_c, 4, 64, 113
6, 77758, Note_on_c, 4, 69, 88
6, 80543, Note_off_c, 4, 64, 0
6, 80574, Note_off_c, 4, 69, 0
6, 80579, Note_off_c, 4, 73, 0
6, 80618, Note_on_c, 4, 75, 83
6, 80623, Note_on_c, 4, 71, 113
6, 80629, Note_on_c, 4, 66, 80
6, 83506, Note_on_c, 4, 61, 73
6, 83511, Note_on_c, 4, 64, 75
6, 83521, Note_on_c, 4, 68, 95
6, 83526, Note_off_c, 4, 75, 0
6, 83546, Note_off_c, 4, 66, 0
6, 83556, Note_off_c, 4, 71, 0
6, 86280, Note_off_c, 4, 68, 0
6, 86321, Note_off_c, 4, 61, 0
6, 86347, Note_off_c, 4, 64, 0
6, 86381, Note_on_c, 4, 63, 73
6, 86386, Note_on_c, 4, 71, 108
6, 86406, Note_on_c, 4, 66, 80
6, 89183, Note_off_c, 4, 63, 0
6, 89187, Note_off_c, 4, 66, 0
6, 89203, Note_off_c, 4, 71, 0
6, 89247, Note_on_c, 4, 73, 68
6, 89254, Note_on_c, 4, 69, 94
6, 89258, Note_on_c, 4, 64, 101
6, 92053, Note_off_c, 4, 64, 0
6, 92078, Note_off_c, 4, 73, 0
6, 92083, Note_off_c, 4, 69, 0
6, 92150, Note_on_c, 4, 75, 91
6, 92164, Note_on_c, 4, 66, 87
6, 92164, Note_on_c, 4, 71, 113
6, 97725, Note_off_c, 4, 66, 0
6, 97736, Note_off_c, 4, 71, 0
6, 97741, Note_off_c, 4, 75, 0
6, 143982, Note_on_c, 4, 66, 127
6, 152641, Note_on_c, 4, 68, 104
6, 152698, Note_off_c, 4, 66, 0
6, 155422, Note_off_c, 4, 68, 0
6, 155512, Note_on_c, 4, 66, 127
6, 158395, Note_on_c, 4, 69, 127
6, 158434, Note_off_c, 4, 66, 0
6, 161275, Note_on_c, 4, 68, 110
6, 161311, Note_off_c, 4, 69, 0
6, 172649, Note_off_c, 4, 68, 0
6, 311031, Control_c, 4, 7, 82
6, 311031, End_track
7, 0, Start_track
7, 0, Title_t, "\000"
7, 0, Control_c, 5, 0, 7
7, 0, Program_c, 5, 17
7, 0, Control_c, 5, 7, 47
7, 0, Control_c, 5, 10, 84
7, 0, Control_c, 5, 91, 127
7, 0, Control_c, 5, 93, 50
7, 710, Control_c, 5, 11, 127
7, 3489, Control_c, 5, 101, 0
7, 3492, Control_c, 5, 100, 0
7, 3494, Control_c, 5, 6, 2
7, 3497, Control_c, 5, 101, 127
7, 3499, Control_c, 5, 100, 127
7, 5189, Control_c, 5, 94, 0
7, 5520, Note_on_c, 5, 71, 120
7, 5520, Note_on_c, 5, 78, 120
7, 5636, Note_off_c, 5, 71, 0
7, 5636, Note_off_c, 5, 78, 0
7, 6000, Note_on_c, 5, 71, 100
7, 6000, Note_on_c, 5, 78, 100
7, 6116, Note_off_c, 5, 71, 0
7, 6116, Note_off_c, 5, 78, 0
7, 6480, Note_on_c, 5, 71, 80
7, 6480, Note_on_c, 5, 78, 80
7, 6596, Note_off_c, 5, 71, 0
7, 6596, Note_off_c, 5, 78, 0
7, 6960, Note_on_c, 5, 71, 60
7, 6960, Note_on_c, 5, 78, 60
7, 7076, Note_off_c, 5, 71, 0
7, 7076, Note_off_c, 5, 78, 0
7, 7440, Note_on_c, 5, 71, 40
7, 7440, Note_on_c, 5, 78, 40
7, 7556, Note_off_c, 5, 71, 0
7, 7556, Note_off_c, 5, 78, 0
7, 7920, Note_on_c, 5, 71, 20
7, 7920, Note_on_c, 5, 78, 20
7, 8036, Note_off_c, 5, 71, 0
7, 8036, Note_off_c, 5, 78, 0
7, 11280, Note_on_c, 5, 69, 120
7, 11280, Note_on_c, 5, 76, 120
7, 11396, Note_off_c, 5, 69, 0
7, 11396, Note_off_c, 5, 76, 0
7, 11760, Note_on_c, 5, 69, 100
7, 11760, Note_on_c, 5, 76, 100
7, 11876, Note_off_c, 5, 69, 0
7, 11876, Note_off_c, 5, 76, 0
7, 12240, Note_on_c, 5, 69, 80
7, 12240, Note_on_c, 5, 76, 80
7, 12356, Note_off_c, 5, 69, 0
7, 12356, Note_off_c, 5, 76, 0
7, 12720, Note_on_c, 5, 69, 60
7, 12720, Note_on_c, 5, 76, 60
7, 12836, Note_off_c, 5, 69, 0
7, 12836, Note_off_c, 5, 76, 0
7, 13200, Note_on_c, 5, 69, 40
7, 13200, Note_on_c, 5, 76, 40
7, 13316, Note_off_c, 5, 69, 0
7, 13316, Note_off_c, 5, 76, 0
7, 13680, Note_on_c, 5, 69, 20
7, 13680, Note_on_c, 5, 76, 20
7, 13796, Note_off_c, 5, 69, 0
7, 13796, Note_off_c, 5, 76, 0
7, 16800, Note_on_c, 5, 71, 120
7, 16800, Note_on_c, 5, 78, 120
7, 16916, Note_off_c, 5, 71, 0
7, 16916, Note_off_c, 5, 78, 0
7, 17280, Note_on_c, 5, 71, 100
7, 17280, Note_on_c, 5, 78, 100
7, 17396, Note_off_c, 5, 71, 0
7, 17396, Note_off_c, 5, 78, 0
7, 17760, Note_on_c, 5, 71, 80
7, 17760, Note_on_c, 5, 78, 80
7, 17876, Note_off_c, 5, 71, 0
7, 17876, Note_off_c, 5, 78, 0
7, 18240, Note_on_c, 5, 71, 60
7, 18240, Note_on_c, 5, 78, 60
7, 18356, Note_off_c, 5, 71, 0
7, 18356, Note_off_c, 5, 78, 0
7, 18720, Note_on_c, 5, 71, 40
7, 18720, Note_on_c, 5, 78, 40
7, 18836, Note_off_c, 5, 71, 0
7, 18836, Note_off_c, 5, 78, 0
7, 19200, Note_on_c, 5, 71, 20
7, 19200, Note_on_c, 5, 78, 20
7, 19316, Note_off_c, 5, 71, 0
7, 19316, Note_off_c, 5, 78, 0
7, 22560, Note_on_c, 5, 69, 120
7, 22560, Note_on_c, 5, 76, 120
7, 22676, Note_off_c, 5, 69, 0
7, 22676, Note_off_c, 5, 76, 0
7, 23040, Note_on_c, 5, 69, 100
7, 23040, Note_on_c, 5, 76, 100
7, 23156, Note_off_c, 5, 69, 0
7, 23156, Note_off_c, 5, 76, 0
7, 23520, Note_on_c, 5, 69, 80
7, 23520, Note_on_c, 5, 76, 80
7, 23636, Note_off_c, 5, 69, 0
7, 23636, Note_off_c, 5, 76, 0
7, 24000, Note_on_c, 5, 69, 60
7, 24000, Note_on_c, 5, 76, 60
7, 24116, Note_off_c, 5, 69, 0
7, 24116, Note_off_c, 5, 76, 0
7, 24480, Note_on_c, 5, 69, 40
7, 24480, Note_on_c, 5, 76, 40
7, 24596, Note_off_c, 5, 69, 0
7, 24596, Note_off_c, 5, 76, 0
7, 24960, Note_on_c, 5, 69, 20
7, 24960, Note_on_c, 5, 76, 20
7, 25076, Note_off_c, 5, 69, 0
7, 25076, Note_off_c, 5, 76, 0
7, 28320, Note_on_c, 5, 71, 120
7, 28320, Note_on_c, 5, 78, 120
7, 28436, Note_off_c, 5, 71, 0
7, 28436, Note_off_c, 5, 78, 0
7, 28800, Note_on_c, 5, 71, 100
7, 28800, Note_on_c, 5, 78, 100
7, 28916, Note_off_c, 5, 71, 0
7, 28916, Note_off_c, 5, 78, 0
7, 29280, Note_on_c, 5, 71, 80
7, 29280, Note_on_c, 5, 78, 80
7, 29396, Note_off_c, 5, 71, 0
7, 29396, Note_off_c, 5, 78, 0
7, 29760, Note_on_c, 5, 71, 60
7, 29760, Note_on_c, 5, 78, 60
7, 29876, Note_off_c, 5, 71, 0
7, 29876, Note_off_c, 5, 78, 0
7, 30240, Note_on_c, 5, 71, 40
7, 30240, Note_on_c, 5, 78, 40
7, 30356, Note_off_c, 5, 71, 0
7, 30356, Note_off_c, 5, 78, 0
7, 30720, Note_on_c, 5, 71, 20
7, 30720, Note_on_c, 5, 78, 20
7, 30836, Note_off_c, 5, 71, 0
7, 30836, Note_off_c, 5, 78, 0
7, 34080, Note_on_c, 5, 69, 120
7, 34080, Note_on_c, 5, 76, 120
7, 34196, Note_off_c, 5, 69, 0
7, 34196, Note_off_c, 5, 76, 0
7, 34560, Note_on_c, 5, 69, 100
7, 34560, Note_on_c, 5, 76, 100
7, 34676, Note_off_c, 5, 69, 0
7, 34676, Note_off_c, 5, 76, 0
7, 35040, Note_on_c, 5, 69, 80
7, 35040, Note_on_c, 5, 76, 80
7, 35156, Note_off_c, 5, 69, 0
7, 35156, Note_off_c, 5, 76, 0
7, 35520, Note_on_c, 5, 69, 60
7, 35520, Note_on_c, 5, 76, 60
7, 35636, Note_off_c, 5, 69, 0
7, 35636, Note_off_c, 5, 76, 0
7, 36000, Note_on_c, 5, 69, 40
7, 36000, Note_on_c, 5, 76, 40
7, 36116, Note_off_c, 5, 69, 0
7, 36116, Note_off_c, 5, 76, 0
7, 36480, Note_on_c, 5, 69, 20
7, 36480, Note_on_c, 5, 76, 20
7, 36596, Note_off_c, 5, 69, 0
7, 36596, Note_off_c, 5, 76, 0
7, 39840, Note_on_c, 5, 71, 120
7, 39840, Note_on_c, 5, 78, 120
7, 39956, Note_off_c, 5, 71, 0
7, 39956, Note_off_c, 5, 78, 0
7, 40320, Note_on_c, 5, 71, 100
7, 40320, Note_on_c, 5, 78, 100
7, 40436, Note_off_c, 5, 71, 0
7, 40436, Note_off_c, 5, 78, 0
7, 40800, Note_on_c, 5, 71, 80
7, 40800, Note_on_c, 5, 78, 80
7, 40916, Note_off_c, 5, 71, 0
7, 40916, Note_off_c, 5, 78, 0
7, 41280, Note_on_c, 5, 71, 60
7, 41280, Note_on_c, 5, 78, 60
7, 41396, Note_off_c, 5, 71, 0
7, 41396, Note_off_c, 5, 78, 0
7, 41760, Note_on_c, 5, 71, 40
7, 41760, Note_on_c, 5, 78, 40
7, 41876, Note_off_c, 5, 71, 0
7, 41876, Note_off_c, 5, 78, 0
7, 42240, Note_on_c, 5, 71, 20
7, 42240, Note_on_c, 5, 78, 20
7, 42356, Note_off_c, 5, 71, 0
7, 42356, Note_off_c, 5, 78, 0
7, 45600, Note_on_c, 5, 69, 120
7, 45600, Note_on_c, 5, 76, 120
7, 45716, Note_off_c, 5, 69, 0
7, 45716, Note_off_c, 5, 76, 0
7, 46080, Note_on_c, 5, 69, 100
7, 46080, Note_on_c, 5, 76, 100
7, 46196, Note_off_c, 5, 69, 0
7, 46196, Note_off_c, 5, 76, 0
7, 46560, Note_on_c, 5, 69, 80
7, 46560, Note_on_c, 5, 76, 80
7, 46676, Note_off_c, 5, 69, 0
7, 46676, Note_off_c, 5, 76, 0
7, 47040, Note_on_c, 5, 69, 60
7, 47040, Note_on_c, 5, 76, 60
7, 47156, Note_off_c, 5, 69, 0
7, 47156, Note_off_c, 5, 76, 0
7, 47520, Note_on_c, 5, 69, 40
7, 47520, Note_on_c, 5, 76, 40
7, 47636, Note_off_c, 5, 69, 0
7, 47636, Note_off_c, 5, 76, 0
7, 48000, Note_on_c, 5, 69, 20
7, 48000, Note_on_c, 5, 76, 20
7, 48116, Note_off_c, 5, 69, 0
7, 48116, Note_off_c, 5, 76, 0
7, 51360, Note_on_c, 5, 71, 120
7, 51360, Note_on_c, 5, 78, 120
7, 51476, Note_off_c, 5, 71, 0
7, 51476, Note_off_c, 5, 78, 0
7, 51840, Note_on_c, 5, 71, 100
7, 51840, Note_on_c, 5, 78, 100
7, 51956, Note_off_c, 5, 71, 0
7, 51956, Note_off_c, 5, 78, 0
7, 52320, Note_on_c, 5, 71, 80
7, 52320, Note_on_c, 5, 78, 80
7, 52436, Note_off_c, 5, 71, 0
7, 52436, Note_off_c, 5, 78, 0
7, 52800, Note_on_c, 5, 71, 60
7, 52800, Note_on_c, 5, 78, 60
7, 52916, Note_off_c, 5, 71, 0
7, 52916, Note_off_c, 5, 78, 0
7, 53280, Note_on_c, 5, 71, 40
7, 53280, Note_on_c, 5, 78, 40
7, 53396, Note_off_c, 5, 71, 0
7, 53396, Note_off_c, 5, 78, 0
7, 53760, Note_on_c, 5, 71, 20
7, 53760, Note_on_c, 5, 78, 20
7, 53876, Note_off_c, 5, 71, 0
7, 53876, Note_off_c, 5, 78, 0
7, 57120, Note_on_c, 5, 69, 120
7, 57120, Note_on_c, 5, 76, 120
7, 57236, Note_off_c, 5, 69, 0
7, 57236, Note_off_c, 5, 76, 0
7, 57600, Note_on_c, 5, 69, 100
7, 57600, Note_on_c, 5, 76, 100
7, 57716, Note_off_c, 5, 69, 0
7, 57716, Note_off_c, 5, 76, 0
7, 58080, Note_on_c, 5, 69, 80
7, 58080, Note_on_c, 5, 76, 80
7, 58196, Note_off_c, 5, 69, 0
7, 58196, Note_off_c, 5, 76, 0
7, 58560, Note_on_c, 5, 69, 60
7, 58560, Note_on_c, 5, 76, 60
7, 58676, Note_off_c, 5, 69, 0
7, 58676, Note_off_c, 5, 76, 0
7, 59040, Note_on_c, 5, 69, 40
7, 59040, Note_on_c, 5, 76, 40
7, 59156, Note_off_c, 5, 69, 0
7, 59156, Note_off_c, 5, 76, 0
7, 59520, Note_on_c, 5, 69, 20
7, 59520, Note_on_c, 5, 76, 20
7, 59636, Note_off_c, 5, 69, 0
7, 59636, Note_off_c, 5, 76, 0
7, 62880, Note_on_c, 5, 71, 120
7, 62880, Note_on_c, 5, 78, 120
7, 62996, Note_off_c, 5, 71, 0
7, 62996, Note_off_c, 5, 78, 0
7, 63360, Note_on_c, 5, 71, 100
7, 63360, Note_on_c, 5, 78, 100
7, 63476, Note_off_c, 5, 71, 0
7, 63476, Note_off_c, 5, 78, 0
7, 63840, Note_on_c, 5, 71, 80
7, 63840, Note_on_c, 5, 78, 80
7, 63956, Note_off_c, 5, 71, 0
7, 63956, Note_off_c, 5, 78, 0
7, 64320, Note_on_c, 5, 71, 60
7, 64320, Note_on_c, 5, 78, 60
7, 64436, Note_off_c, 5, 71, 0
7, 64436, Note_off_c, 5, 78, 0
7, 64800, Note_on_c, 5, 71, 40
7, 64800, Note_on_c, 5, 78, 40
7, 64916, Note_off_c, 5, 71, 0
7, 64916, Note_off_c, 5, 78, 0
7, 65280, Note_on_c, 5, 71, 20
7, 65280, Note_on_c, 5, 78, 20
7, 65396, Note_off_c, 5, 71, 0
7, 65396, Note_off_c, 5, 78, 0
7, 68640, Note_on_c, 5, 69, 120
7, 68640, Note_on_c, 5, 76, 120
7, 68756, Note_off_c, 5, 69, 0
7, 68756, Note_off_c, 5, 76, 0
7, 69120, Note_on_c, 5, 69, 100
7, 69120, Note_on_c, 5, 76, 100
7, 69236, Note_off_c, 5, 69, 0
7, 69236, Note_off_c, 5, 76, 0
7, 69600, Note_on_c, 5, 69, 80
7, 69600, Note_on_c, 5, 76, 80
7, 69716, Note_off_c, 5, 69, 0
7, 69716, Note_off_c, 5, 76, 0
7, 70080, Note_on_c, 5, 69, 60
7, 70080, Note_on_c, 5, 76, 60
7, 70196, Note_off_c, 5, 69, 0
7, 70196, Note_off_c, 5, 76, 0
7, 70560, Note_on_c, 5, 69, 40
7, 70560, Note_on_c, 5, 76, 40
7, 70676, Note_off_c, 5, 69, 0
7, 70676, Note_off_c, 5, 76, 0
7, 71040, Note_on_c, 5, 69, 20
7, 71040, Note_on_c, 5, 76, 20
7, 71156, Note_off_c, 5, 69, 0
7, 71156, Note_off_c, 5, 76, 0
7, 97440, Note_on_c, 5, 71, 120
7, 97440, Note_on_c, 5, 78, 120
7, 97556, Note_off_c, 5, 71, 0
7, 97556, Note_off_c, 5, 78, 0
7, 97920, Note_on_c, 5, 71, 100
7, 97920, Note_on_c, 5, 78, 100
7, 98036, Note_off_c, 5, 71, 0
7, 98036, Note_off_c, 5, 78, 0
7, 98400, Note_on_c, 5, 71, 80
7, 98400, Note_on_c, 5, 78, 80
7, 98516, Note_off_c, 5, 71, 0
7, 98516, Note_off_c, 5, 78, 0
7, 98880, Note_on_c, 5, 71, 60
7, 98880, Note_on_c, 5, 78, 60
7, 98996, Note_off_c, 5, 71, 0
7, 98996, Note_off_c, 5, 78, 0
7, 99360, Note_on_c, 5, 71, 40
7, 99360, Note_on_c, 5, 78, 40
7, 99476, Note_off_c, 5, 71, 0
7, 99476, Note_off_c, 5, 78, 0
7, 99840, Note_on_c, 5, 71, 20
7, 99840, Note_on_c, 5, 78, 20
7, 99956, Note_off_c, 5, 71, 0
7, 99956, Note_off_c, 5, 78, 0
7, 103200, Note_on_c, 5, 69, 120
7, 103200, Note_on_c, 5, 76, 120
7, 103316, Note_off_c, 5, 69, 0
7, 103316, Note_off_c, 5, 76, 0
7, 103680, Note_on_c, 5, 69, 100
7, 103680, Note_on_c, 5, 76, 100
7, 103796, Note_off_c, 5, 69, 0
7, 103796, Note_off_c, 5, 76, 0
7, 104160, Note_on_c, 5, 69, 80
7, 104160, Note_on_c, 5, 76, 80
7, 104276, Note_off_c, 5, 69, 0
7, 104276, Note_off_c, 5, 76, 0
7, 104640, Note_on_c, 5, 69, 60
7, 104640, Note_on_c, 5, 76, 60
7, 104756, Note_off_c, 5, 69, 0
7, 104756, Note_off_c, 5, 76, 0
7, 105120, Note_on_c, 5, 69, 40
7, 105120, Note_on_c, 5, 76, 40
7, 105236, Note_off_c, 5, 69, 0
7, 105236, Note_off_c, 5, 76, 0
7, 105600, Note_on_c, 5, 69, 20
7, 105600, Note_on_c, 5, 76, 20
7, 105716, Note_off_c, 5, 69, 0
7, 105716, Note_off_c, 5, 76, 0
7, 108960, Note_on_c, 5, 71, 120
7, 108960, Note_on_c, 5, 78, 120
7, 109076, Note_off_c, 5, 71, 0
7, 109076, Note_off_c, 5, 78, 0
7, 109440, Note_on_c, 5, 71, 100
7, 109440, Note_on_c, 5, 78, 100
7, 109556, Note_off_c, 5, 71, 0
7, 109556, Note_off_c, 5, 78, 0
7, 109920, Note_on_c, 5, 71, 80
7, 109920, Note_on_c, 5, 78, 80
7, 110036, Note_off_c, 5, 71, 0
7, 110036, Note_off_c, 5, 78, 0
7, 110400, Note_on_c, 5, 71, 60
7, 110400, Note_on_c, 5, 78, 60
7, 110516, Note_off_c, 5, 71, 0
7, 110516, Note_off_c, 5, 78, 0
7, 110880, Note_on_c, 5, 71, 40
7, 110880, Note_on_c, 5, 78, 40
7, 110996, Note_off_c, 5, 71, 0
7, 110996, Note_off_c, 5, 78, 0
7, 111360, Note_on_c, 5, 71, 20
7, 111360, Note_on_c, 5, 78, 20
7, 111476, Note_off_c, 5, 71, 0
7, 111476, Note_off_c, 5, 78, 0
7, 114720, Note_on_c, 5, 69, 120
7, 114720, Note_on_c, 5, 76, 120
7, 114836, Note_off_c, 5, 69, 0
7, 114836, Note_off_c, 5, 76, 0
7, 115200, Note_on_c, 5, 69, 100
7, 115200, Note_on_c, 5, 76, 100
7, 115316, Note_off_c, 5, 69, 0
7, 115316, Note_off_c, 5, 76, 0
7, 115680, Note_on_c, 5, 69, 80
7, 115680, Note_on_c, 5, 76, 80
7, 115796, Note_off_c, 5, 69, 0
7, 115796, Note_off_c, 5, 76, 0
7, 116160, Note_on_c, 5, 69, 60
7, 116160, Note_on_c, 5, 76, 60
7, 116276, Note_off_c, 5, 69, 0
7, 116276, Note_off_c, 5, 76, 0
7, 116640, Note_on_c, 5, 69, 40
7, 116640, Note_on_c, 5, 76, 40
7, 116756, Note_off_c, 5, 69, 0
7, 116756, Note_off_c, 5, 76, 0
7, 117120, Note_on_c, 5, 69, 20
7, 117120, Note_on_c, 5, 76, 20
7, 117236, Note_off_c, 5, 69, 0
7, 117236, Note_off_c, 5, 76, 0
7, 120480, Note_on_c, 5, 71, 120
7, 120480, Note_on_c, 5, 78, 120
7, 120596, Note_off_c, 5, 71, 0
7, 120596, Note_off_c, 5, 78, 0
7, 120960, Note_on_c, 5, 71, 100
7, 120960, Note_on_c, 5, 78, 100
7, 121076, Note_off_c, 5, 71, 0
7, 121076, Note_off_c, 5, 78, 0
7, 121440, Note_on_c, 5, 71, 80
7, 121440, Note_on_c, 5, 78, 80
7, 121556, Note_off_c, 5, 71, 0
7, 121556, Note_off_c, 5, 78, 0
7, 121920, Note_on_c, 5, 71, 60
7, 121920, Note_on_c, 5, 78, 60
7, 122036, Note_off_c, 5, 71, 0
7, 122036, Note_off_c, 5, 78, 0
7, 122400, Note_on_c, 5, 71, 40
7, 122400, Note_on_c, 5, 78, 40
7, 122516, Note_off_c, 5, 71, 0
7, 122516, Note_off_c, 5, 78, 0
7, 122880, Note_on_c, 5, 71, 20
7, 122880, Note_on_c, 5, 78, 20
7, 122996, Note_off_c, 5, 71, 0
7, 122996, Note_off_c, 5, 78, 0
7, 126240, Note_on_c, 5, 69, 120
7, 126240, Note_on_c, 5, 76, 120
7, 126356, Note_off_c, 5, 69, 0
7, 126356, Note_off_c, 5, 76, 0
7, 126720, Note_on_c, 5, 69, 100
7, 126720, Note_on_c, 5, 76, 100
7, 126836, Note_off_c, 5, 69, 0
7, 126836, Note_off_c, 5, 76, 0
7, 127200, Note_on_c, 5, 69, 80
7, 127200, Note_on_c, 5, 76, 80
7, 127316, Note_off_c, 5, 69, 0
7, 127316, Note_off_c, 5, 76, 0
7, 127680, Note_on_c, 5, 69, 60
7, 127680, Note_on_c, 5, 76, 60
7, 127796, Note_off_c, 5, 69, 0
7, 127796, Note_off_c, 5, 76, 0
7, 128160, Note_on_c, 5, 69, 40
7, 128160, Note_on_c, 5, 76, 40
7, 128276, Note_off_c, 5, 69, 0
7, 128276, Note_off_c, 5, 76, 0
7, 128640, Note_on_c, 5, 69, 20
7, 128640, Note_on_c, 5, 76, 20
7, 128756, Note_off_c, 5, 69, 0
7, 128756, Note_off_c, 5, 76, 0
7, 132000, Note_on_c, 5, 71, 120
7, 132000, Note_on_c, 5, 78, 120
7, 132116, Note_off_c, 5, 71, 0
7, 132116, Note_off_c, 5, 78, 0
7, 132480, Note_on_c, 5, 71, 100
7, 132480, Note_on_c, 5, 78, 100
7, 132596, Note_off_c, 5, 71, 0
7, 132596, Note_off_c, 5, 78, 0
7, 132960, Note_on_c, 5, 71, 80
7, 132960, Note_on_c, 5, 78, 80
7, 133076, Note_off_c, 5, 71, 0
7, 133076, Note_off_c, 5, 78, 0
7, 133440, Note_on_c, 5, 71, 60
7, 133440, Note_on_c, 5, 78, 60
7, 133556, Note_off_c, 5, 71, 0
7, 133556, Note_off_c, 5, 78, 0
7, 133920, Note_on_c, 5, 71, 40
7, 133920, Note_on_c, 5, 78, 40
7, 134036, Note_off_c, 5, 71, 0
7, 134036, Note_off_c, 5, 78, 0
7, 134400, Note_on_c, 5, 71, 20
7, 134400, Note_on_c, 5, 78, 20
7, 134516, Note_off_c, 5, 71, 0
7, 134516, Note_off_c, 5, 78, 0
7, 137760, Note_on_c, 5, 69, 120
7, 137760, Note_on_c, 5, 76, 120
7, 137876, Note_off_c, 5, 69, 0
7, 137876, Note_off_c, 5, 76, 0
7, 138240, Note_on_c, 5, 69, 100
7, 138240, Note_on_c, 5, 76, 100
7, 138356, Note_off_c, 5, 69, 0
7, 138356, Note_off_c, 5, 76, 0
7, 138720, Note_on_c, 5, 69, 80
7, 138720, Note_on_c, 5, 76, 80
7, 138836, Note_off_c, 5, 69, 0
7, 138836, Note_off_c, 5, 76, 0
7, 139200, Note_on_c, 5, 69, 60
7, 139200, Note_on_c, 5, 76, 60
7, 139316, Note_off_c, 5, 69, 0
7, 139316, Note_off_c, 5, 76, 0
7, 139680, Note_on_c, 5, 69, 40
7, 139680, Note_on_c, 5, 76, 40
7, 139796, Note_off_c, 5, 69, 0
7, 139796, Note_off_c, 5, 76, 0
7, 140160, Note_on_c, 5, 69, 20
7, 140160, Note_on_c, 5, 76, 20
7, 140276, Note_off_c, 5, 69, 0
7, 140276, Note_off_c, 5, 76, 0
7, 172320, Note_on_c, 5, 71, 120
7, 172320, Note_on_c, 5, 78, 120
7, 172436, Note_off_c, 5, 71, 0
7, 172436, Note_off_c, 5, 78, 0
7, 172800, Note_on_c, 5, 71, 100
7, 172800, Note_on_c, 5, 78, 100
7, 172916, Note_off_c, 5, 71, 0
7, 172916, Note_off_c, 5, 78, 0
7, 173280, Note_on_c, 5, 71, 80
7, 173280, Note_on_c, 5, 78, 80
7, 173396, Note_off_c, 5, 71, 0
7, 173396, Note_off_c, 5, 78, 0
7, 173760, Note_on_c, 5, 71, 60
7, 173760, Note_on_c, 5, 78, 60
7, 173876, Note_off_c, 5, 71, 0
7, 173876, Note_off_c, 5, 78, 0
7, 174240, Note_on_c, 5, 71, 40
7, 174240, Note_on_c, 5, 78, 40
7, 174356, Note_off_c, 5, 71, 0
7, 174356, Note_off_c, 5, 78, 0
7, 174720, Note_on_c, 5, 71, 20
7, 174720, Note_on_c, 5, 78, 20
7, 174836, Note_off_c, 5, 71, 0
7, 174836, Note_off_c, 5, 78, 0
7, 178080, Note_on_c, 5, 69, 120
7, 178080, Note_on_c, 5, 76, 120
7, 178196, Note_off_c, 5, 69, 0
7, 178196, Note_off_c, 5, 76, 0
7, 178560, Note_on_c, 5, 69, 100
7, 178560, Note_on_c, 5, 76, 100
7, 178676, Note_off_c, 5, 69, 0
7, 178676, Note_off_c, 5, 76, 0
7, 179040, Note_on_c, 5, 69, 80
7, 179040, Note_on_c, 5, 76, 80
7, 179156, Note_off_c, 5, 69, 0
7, 179156, Note_off_c, 5, 76, 0
7, 179520, Note_on_c, 5, 69, 60
7, 179520, Note_on_c, 5, 76, 60
7, 179636, Note_off_c, 5, 69, 0
7, 179636, Note_off_c, 5, 76, 0
7, 180000, Note_on_c, 5, 69, 40
7, 180000, Note_on_c, 5, 76, 40
7, 180116, Note_off_c, 5, 69, 0
7, 180116, Note_off_c, 5, 76, 0
7, 180480, Note_on_c, 5, 69, 20
7, 180480, Note_on_c, 5, 76, 20
7, 180596, Note_off_c, 5, 69, 0
7, 180596, Note_off_c, 5, 76, 0
7, 183840, Note_on_c, 5, 71, 120
7, 183840, Note_on_c, 5, 78, 120
7, 183956, Note_off_c, 5, 71, 0
7, 183956, Note_off_c, 5, 78, 0
7, 184320, Note_on_c, 5, 71, 100
7, 184320, Note_on_c, 5, 78, 100
7, 184436, Note_off_c, 5, 71, 0
7, 184436, Note_off_c, 5, 78, 0
7, 184800, Note_on_c, 5, 71, 80
7, 184800, Note_on_c, 5, 78, 80
7, 184916, Note_off_c, 5, 71, 0
7, 184916, Note_off_c, 5, 78, 0
7, 185280, Note_on_c, 5, 71, 60
7, 185280, Note_on_c, 5, 78, 60
7, 185396, Note_off_c, 5, 71, 0
7, 185396, Note_off_c, 5, 78, 0
7, 185760, Note_on_c, 5, 71, 40
7, 185760, Note_on_c, 5, 78, 40
7, 185876, Note_off_c, 5, 71, 0
7, 185876, Note_off_c, 5, 78, 0
7, 186240, Note_on_c, 5, 71, 20
7, 186240, Note_on_c, 5, 78, 20
7, 186356, Note_off_c, 5, 71, 0
7, 186356, Note_off_c, 5, 78, 0
7, 189600, Note_on_c, 5, 69, 120
7, 189600, Note_on_c, 5, 76, 120
7, 189716, Note_off_c, 5, 69, 0
7, 189716, Note_off_c, 5, 76, 0
7, 190080, Note_on_c, 5, 69, 100
7, 190080, Note_on_c, 5, 76, 100
7, 190196, Note_off_c, 5, 69, 0
7, 190196, Note_off_c, 5, 76, 0
7, 190560, Note_on_c, 5, 69, 80
7, 190560, Note_on_c, 5, 76, 80
7, 190676, Note_off_c, 5, 69, 0
7, 190676, Note_off_c, 5, 76, 0
7, 191040, Note_on_c, 5, 69, 60
7, 191040, Note_on_c, 5, 76, 60
7, 191156, Note_off_c, 5, 69, 0
7, 191156, Note_off_c, 5, 76, 0
7, 191520, Note_on_c, 5, 69, 40
7, 191520, Note_on_c, 5, 76, 40
7, 191636, Note_off_c, 5, 69, 0
7, 191636, Note_off_c, 5, 76, 0
7, 192000, Note_on_c, 5, 69, 20
7, 192000, Note_on_c, 5, 76, 20
7, 192116, Note_off_c, 5, 69, 0
7, 192116, Note_off_c, 5, 76, 0
7, 195360, Note_on_c, 5, 71, 120
7, 195360, Note_on_c, 5, 78, 120
7, 195476, Note_off_c, 5, 71, 0
7, 195476, Note_off_c, 5, 78, 0
7, 195840, Note_on_c, 5, 71, 100
7, 195840, Note_on_c, 5, 78, 100
7, 195956, Note_off_c, 5, 71, 0
7, 195956, Note_off_c, 5, 78, 0
7, 196320, Note_on_c, 5, 71, 80
7, 196320, Note_on_c, 5, 78, 80
7, 196436, Note_off_c, 5, 71, 0
7, 196436, Note_off_c, 5, 78, 0
7, 196800, Note_on_c, 5, 71, 60
7, 196800, Note_on_c, 5, 78, 60
7, 196916, Note_off_c, 5, 71, 0
7, 196916, Note_off_c, 5, 78, 0
7, 197280, Note_on_c, 5, 71, 40
7, 197280, Note_on_c, 5, 78, 40
7, 197396, Note_off_c, 5, 71, 0
7, 197396, Note_off_c, 5, 78, 0
7, 197760, Note_on_c, 5, 71, 20
7, 197760, Note_on_c, 5, 78, 20
7, 197876, Note_off_c, 5, 71, 0
7, 197876, Note_off_c, 5, 78, 0
7, 201120, Note_on_c, 5, 69, 120
7, 201120, Note_on_c, 5, 76, 120
7, 201236, Note_off_c, 5, 69, 0
7, 201236, Note_off_c, 5, 76, 0
7, 201600, Note_on_c, 5, 69, 100
7, 201600, Note_on_c, 5, 76, 100
7, 201716, Note_off_c, 5, 69, 0
7, 201716, Note_off_c, 5, 76, 0
7, 202080, Note_on_c, 5, 69, 80
7, 202080, Note_on_c, 5, 76, 80
7, 202196, Note_off_c, 5, 69, 0
7, 202196, Note_off_c, 5, 76, 0
7, 202560, Note_on_c, 5, 69, 60
7, 202560, Note_on_c, 5, 76, 60
7, 202676, Note_off_c, 5, 69, 0
7, 202676, Note_off_c, 5, 76, 0
7, 203040, Note_on_c, 5, 69, 40
7, 203040, Note_on_c, 5, 76, 40
7, 203156, Note_off_c, 5, 69, 0
7, 203156, Note_off_c, 5, 76, 0
7, 203520, Note_on_c, 5, 69, 20
7, 203520, Note_on_c, 5, 76, 20
7, 203636, Note_off_c, 5, 69, 0
7, 203636, Note_off_c, 5, 76, 0
7, 206880, Note_on_c, 5, 71, 120
7, 206880, Note_on_c, 5, 78, 120
7, 206996, Note_off_c, 5, 71, 0
7, 206996, Note_off_c, 5, 78, 0
7, 207360, Note_on_c, 5, 71, 100
7, 207360, Note_on_c, 5, 78, 100
7, 207476, Note_off_c, 5, 71, 0
7, 207476, Note_off_c, 5, 78, 0
7, 207840, Note_on_c, 5, 71, 80
7, 207840, Note_on_c, 5, 78, 80
7, 207956, Note_off_c, 5, 71, 0
7, 207956, Note_off_c, 5, 78, 0
7, 208320, Note_on_c, 5, 71, 60
7, 208320, Note_on_c, 5, 78, 60
7, 208436, Note_off_c, 5, 71, 0
7, 208436, Note_off_c, 5, 78, 0
7, 208800, Note_on_c, 5, 71, 40
7, 208800, Note_on_c, 5, 78, 40
7, 208916, Note_off_c, 5, 71, 0
7, 208916, Note_off_c, 5, 78, 0
7, 209280, Note_on_c, 5, 71, 20
7, 209280, Note_on_c, 5, 78, 20
7, 209396, Note_off_c, 5, 71, 0
7, 209396, Note_off_c, 5, 78, 0
7, 212640, Note_on_c, 5, 69, 120
7, 212640, Note_on_c, 5, 76, 120
7, 212756, Note_off_c, 5, 69, 0
7, 212756, Note_off_c, 5, 76, 0
7, 213120, Note_on_c, 5, 69, 100
7, 213120, Note_on_c, 5, 76, 100
7, 213236, Note_off_c, 5, 69, 0
7, 213236, Note_off_c, 5, 76, 0
7, 213600, Note_on_c, 5, 69, 80
7, 213600, Note_on_c, 5, 76, 80
7, 213716, Note_off_c, 5, 69, 0
7, 213716, Note_off_c, 5, 76, 0
7, 214080, Note_on_c, 5, 69, 60
7, 214080, Note_on_c, 5, 76, 60
7, 214196, Note_off_c, 5, 69, 0
7, 214196, Note_off_c, 5, 76, 0
7, 214560, Note_on_c, 5, 69, 40
7, 214560, Note_on_c, 5, 76, 40
7, 214676, Note_off_c, 5, 69, 0
7, 214676, Note_off_c, 5, 76, 0
7, 215040, Note_on_c, 5, 69, 20
7, 215040, Note_on_c, 5, 76, 20
7, 215156, Note_off_c, 5, 69, 0
7, 215156, Note_off_c, 5, 76, 0
7, 218400, Note_on_c, 5, 71, 120
7, 218400, Note_on_c, 5, 78, 120
7, 218516, Note_off_c, 5, 71, 0
7, 218516, Note_off_c, 5, 78, 0
7, 218880, Note_on_c, 5, 71, 100
7, 218880, Note_on_c, 5, 78, 100
7, 218996, Note_off_c, 5, 71, 0
7, 218996, Note_off_c, 5, 78, 0
7, 219360, Note_on_c, 5, 71, 80
7, 219360, Note_on_c, 5, 78, 80
7, 219476, Note_off_c, 5, 71, 0
7, 219476, Note_off_c, 5, 78, 0
7, 219840, Note_on_c, 5, 71, 60
7, 219840, Note_on_c, 5, 78, 60
7, 219956, Note_off_c, 5, 71, 0
7, 219956, Note_off_c, 5, 78, 0
7, 220320, Note_on_c, 5, 71, 40
7, 220320, Note_on_c, 5, 78, 40
7, 220436, Note_off_c, 5, 71, 0
7, 220436, Note_off_c, 5, 78, 0
7, 220800, Note_on_c, 5, 71, 20
7, 220800, Note_on_c, 5, 78, 20
7, 220916, Note_off_c, 5, 71, 0
7, 220916, Note_off_c, 5, 78, 0
7, 224160, Note_on_c, 5, 69, 120
7, 224160, Note_on_c, 5, 76, 120
7, 224276, Note_off_c, 5, 69, 0
7, 224276, Note_off_c, 5, 76, 0
7, 224640, Note_on_c, 5, 69, 100
7, 224640, Note_on_c, 5, 76, 100
7, 224756, Note_off_c, 5, 69, 0
7, 224756, Note_off_c, 5, 76, 0
7, 225120, Note_on_c, 5, 69, 80
7, 225120, Note_on_c, 5, 76, 80
7, 225236, Note_off_c, 5, 69, 0
7, 225236, Note_off_c, 5, 76, 0
7, 225600, Note_on_c, 5, 69, 60
7, 225600, Note_on_c, 5, 76, 60
7, 225716, Note_off_c, 5, 69, 0
7, 225716, Note_off_c, 5, 76, 0
7, 226080, Note_on_c, 5, 69, 40
7, 226080, Note_on_c, 5, 76, 40
7, 226196, Note_off_c, 5, 69, 0
7, 226196, Note_off_c, 5, 76, 0
7, 226560, Note_on_c, 5, 69, 20
7, 226560, Note_on_c, 5, 76, 20
7, 226676, Note_off_c, 5, 69, 0
7, 226676, Note_off_c, 5, 76, 0
7, 229920, Note_on_c, 5, 71, 120
7, 229920, Note_on_c, 5, 78, 120
7, 230036, Note_off_c, 5, 71, 0
7, 230036, Note_off_c, 5, 78, 0
7, 230400, Note_on_c, 5, 71, 100
7, 230400, Note_on_c, 5, 78, 100
7, 230516, Note_off_c, 5, 71, 0
7, 230516, Note_off_c, 5, 78, 0
7, 230880, Note_on_c, 5, 71, 80
7, 230880, Note_on_c, 5, 78, 80
7, 230996, Note_off_c, 5, 71, 0
7, 230996, Note_off_c, 5, 78, 0
7, 231360, Note_on_c, 5, 71, 60
7, 231360, Note_on_c, 5, 78, 60
7, 231476, Note_off_c, 5, 71, 0
7, 231476, Note_off_c, 5, 78, 0
7, 231840, Note_on_c, 5, 71, 40
7, 231840, Note_on_c, 5, 78, 40
7, 231956, Note_off_c, 5, 71, 0
7, 231956, Note_off_c, 5, 78, 0
7, 232320, Note_on_c, 5, 71, 20
7, 232320, Note_on_c, 5, 78, 20
7, 232436, Note_off_c, 5, 71, 0
7, 232436, Note_off_c, 5, 78, 0
7, 235680, Note_on_c, 5, 69, 120
7, 235680, Note_on_c, 5, 76, 120
7, 235796, Note_off_c, 5, 69, 0
7, 235796, Note_off_c, 5, 76, 0
7, 236160, Note_on_c, 5, 69, 100
7, 236160, Note_on_c, 5, 76, 100
7, 236276, Note_off_c, 5, 69, 0
7, 236276, Note_off_c, 5, 76, 0
7, 236640, Note_on_c, 5, 69, 80
7, 236640, Note_on_c, 5, 76, 80
7, 236756, Note_off_c, 5, 69, 0
7, 236756, Note_off_c, 5, 76, 0
7, 237120, Note_on_c, 5, 69, 60
7, 237120, Note_on_c, 5, 76, 60
7, 237236, Note_off_c, 5, 69, 0
7, 237236, Note_off_c, 5, 76, 0
7, 237600, Note_on_c, 5, 69, 40
7, 237600, Note_on_c, 5, 76, 40
7, 237716, Note_off_c, 5, 69, 0
7, 237716, Note_off_c, 5, 76, 0
7, 238080, Note_on_c, 5, 69, 20
7, 238080, Note_on_c, 5, 76, 20
7, 238196, Note_off_c, 5, 69, 0
7, 238196, Note_off_c, 5, 76, 0
7, 241440, Note_on_c, 5, 71, 120
7, 241440, Note_on_c, 5, 78, 120
7, 241556, Note_off_c, 5, 71, 0
7, 241556, Note_off_c, 5, 78, 0
7, 241920, Note_on_c, 5, 71, 100
7, 241920, Note_on_c, 5, 78, 100
7, 242036, Note_off_c, 5, 71, 0
7, 242036, Note_off_c, 5, 78, 0
7, 242400, Note_on_c, 5, 71, 80
7, 242400, Note_on_c, 5, 78, 80
7, 242516, Note_off_c, 5, 71, 0
7, 242516, Note_off_c, 5, 78, 0
7, 242880, Note_on_c, 5, 71, 60
7, 242880, Note_on_c, 5, 78, 60
7, 242996, Note_off_c, 5, 71, 0
7, 242996, Note_off_c, 5, 78, 0
7, 243360, Note_on_c, 5, 71, 40
7, 243360, Note_on_c, 5, 78, 40
7, 243476, Note_off_c, 5, 71, 0
7, 243476, Note_off_c, 5, 78, 0
7, 243840, Note_on_c, 5, 71, 20
7, 243840, Note_on_c, 5, 78, 20
7, 243956, Note_off_c, 5, 71, 0
7, 243956, Note_off_c, 5, 78, 0
7, 247200, Note_on_c, 5, 69, 120
7, 247200, Note_on_c, 5, 76, 120
7, 247316, Note_off_c, 5, 69, 0
7, 247316, Note_off_c, 5, 76, 0
7, 247680, Note_on_c, 5, 69, 100
7, 247680, Note_on_c, 5, 76, 100
7, 247796, Note_off_c, 5, 69, 0
7, 247796, Note_off_c, 5, 76, 0
7, 248160, Note_on_c, 5, 69, 80
7, 248160, Note_on_c, 5, 76, 80
7, 248276, Note_off_c, 5, 69, 0
7, 248276, Note_off_c, 5, 76, 0
7, 248640, Note_on_c, 5, 69, 60
7, 248640, Note_on_c, 5, 76, 60
7, 248756, Note_off_c, 5, 69, 0
7, 248756, Note_off_c, 5, 76, 0
7, 249120, Note_on_c, 5, 69, 40
7, 249120, Note_on_c, 5, 76, 40
7, 249236, Note_off_c, 5, 69, 0
7, 249236, Note_off_c, 5, 76, 0
7, 249600, Note_on_c, 5, 69, 20
7, 249600, Note_on_c, 5, 76, 20
7, 249716, Note_off_c, 5, 69, 0
7, 249716, Note_off_c, 5, 76, 0
7, 252960, Note_on_c, 5, 71, 120
7, 252960, Note_on_c, 5, 78, 120
7, 253076, Note_off_c, 5, 71, 0
7, 253076, Note_off_c, 5, 78, 0
7, 253440, Note_on_c, 5, 71, 100
7, 253440, Note_on_c, 5, 78, 100
7, 253556, Note_off_c, 5, 71, 0
7, 253556, Note_off_c, 5, 78, 0
7, 253920, Note_on_c, 5, 71, 80
7, 253920, Note_on_c, 5, 78, 80
7, 254036, Note_off_c, 5, 71, 0
7, 254036, Note_off_c, 5, 78, 0
7, 254400, Note_on_c, 5, 71, 60
7, 254400, Note_on_c, 5, 78, 60
7, 254516, Note_off_c, 5, 71, 0
7, 254516, Note_off_c, 5, 78, 0
7, 254880, Note_on_c, 5, 71, 40
7, 254880, Note_on_c, 5, 78, 40
7, 254996, Note_off_c, 5, 71, 0
7, 254996, Note_off_c, 5, 78, 0
7, 255360, Note_on_c, 5, 71, 20
7, 255360, Note_on_c, 5, 78, 20
7, 255476, Note_off_c, 5, 71, 0
7, 255476, Note_off_c, 5, 78, 0
7, 258720, Note_on_c, 5, 69, 120
7, 258720, Note_on_c, 5, 76, 120
7, 258836, Note_off_c, 5, 69, 0
7, 258836, Note_off_c, 5, 76, 0
7, 259200, Note_on_c, 5, 69, 100
7, 259200, Note_on_c, 5, 76, 100
7, 259316, Note_off_c, 5, 69, 0
7, 259316, Note_off_c, 5, 76, 0
7, 259680, Note_on_c, 5, 69, 80
7, 259680, Note_on_c, 5, 76, 80
7, 259796, Note_off_c, 5, 69, 0
7, 259796, Note_off_c, 5, 76, 0
7, 260160, Note_on_c, 5, 69, 60
7, 260160, Note_on_c, 5, 76, 60
7, 260276, Note_off_c, 5, 69, 0
7, 260276, Note_off_c, 5, 76, 0
7, 260640, Note_on_c, 5, 69, 40
7, 260640, Note_on_c, 5, 76, 40
7, 260756, Note_off_c, 5, 69, 0
7, 260756, Note_off_c, 5, 76, 0
7, 261120, Note_on_c, 5, 69, 20
7, 261120, Note_on_c, 5, 76, 20
7, 261236, Note_off_c, 5, 69, 0
7, 261236, Note_off_c, 5, 76, 0
7, 264480, Note_on_c, 5, 71, 120
7, 264480, Note_on_c, 5, 78, 120
7, 264596, Note_off_c, 5, 71, 0
7, 264596, Note_off_c, 5, 78, 0
7, 264960, Note_on_c, 5, 71, 100
7, 264960, Note_on_c, 5, 78, 100
7, 265076, Note_off_c, 5, 71, 0
7, 265076, Note_off_c, 5, 78, 0
7, 265440, Note_on_c, 5, 71, 80
7, 265440, Note_on_c, 5, 78, 80
7, 265556, Note_off_c, 5, 71, 0
7, 265556, Note_off_c, 5, 78, 0
7, 265920, Note_on_c, 5, 71, 60
7, 265920, Note_on_c, 5, 78, 60
7, 266036, Note_off_c, 5, 71, 0
7, 266036, Note_off_c, 5, 78, 0
7, 266400, Note_on_c, 5, 71, 40
7, 266400, Note_on_c, 5, 78, 40
7, 266516, Note_off_c, 5, 71, 0
7, 266516, Note_off_c, 5, 78, 0
7, 266880, Note_on_c, 5, 71, 20
7, 266880, Note_on_c, 5, 78, 20
7, 266996, Note_off_c, 5, 71, 0
7, 266996, Note_off_c, 5, 78, 0
7, 270240, Note_on_c, 5, 69, 120
7, 270240, Note_on_c, 5, 76, 120
7, 270356, Note_off_c, 5, 69, 0
7, 270356, Note_off_c, 5, 76, 0
7, 270720, Note_on_c, 5, 69, 100
7, 270720, Note_on_c, 5, 76, 100
7, 270836, Note_off_c, 5, 69, 0
7, 270836, Note_off_c, 5, 76, 0
7, 271200, Note_on_c, 5, 69, 80
7, 271200, Note_on_c, 5, 76, 80
7, 271316, Note_off_c, 5, 69, 0
7, 271316, Note_off_c, 5, 76, 0
7, 271680, Note_on_c, 5, 69, 60
7, 271680, Note_on_c, 5, 76, 60
7, 271796, Note_off_c, 5, 69, 0
7, 271796, Note_off_c, 5, 76, 0
7, 272160, Note_on_c, 5, 69, 40
7, 272160, Note_on_c, 5, 76, 40
7, 272276, Note_off_c, 5, 69, 0
7, 272276, Note_off_c, 5, 76, 0
7, 272640, Note_on_c, 5, 69, 20
7, 272640, Note_on_c, 5, 76, 20
7, 272756, Note_off_c, 5, 69, 0
7, 272756, Note_off_c, 5, 76, 0
7, 276000, Note_on_c, 5, 71, 120
7, 276000, Note_on_c, 5, 78, 120
7, 276116, Note_off_c, 5, 71, 0
7, 276116, Note_off_c, 5, 78, 0
7, 276480, Note_on_c, 5, 71, 100
7, 276480, Note_on_c, 5, 78, 100
7, 276596, Note_off_c, 5, 71, 0
7, 276596, Note_off_c, 5, 78, 0
7, 276960, Note_on_c, 5, 71, 80
7, 276960, Note_on_c, 5, 78, 80
7, 277076, Note_off_c, 5, 71, 0
7, 277076, Note_off_c, 5, 78, 0
7, 277440, Note_on_c, 5, 71, 60
7, 277440, Note_on_c, 5, 78, 60
7, 277556, Note_off_c, 5, 71, 0
7, 277556, Note_off_c, 5, 78, 0
7, 277920, Note_on_c, 5, 71, 40
7, 277920, Note_on_c, 5, 78, 40
7, 278036, Note_off_c, 5, 71, 0
7, 278036, Note_off_c, 5, 78, 0
7, 278400, Note_on_c, 5, 71, 20
7, 278400, Note_on_c, 5, 78, 20
7, 278516, Note_off_c, 5, 71, 0
7, 278516, Note_off_c, 5, 78, 0
7, 281760, Note_on_c, 5, 69, 120
7, 281760, Note_on_c, 5, 76, 120
7, 281876, Note_off_c, 5, 69, 0
7, 281876, Note_off_c, 5, 76, 0
7, 282240, Note_on_c, 5, 69, 100
7, 282240, Note_on_c, 5, 76, 100
7, 282356, Note_off_c, 5, 69, 0
7, 282356, Note_off_c, 5, 76, 0
7, 282720, Note_on_c, 5, 69, 80
7, 282720, Note_on_c, 5, 76, 80
7, 282836, Note_off_c, 5, 69, 0
7, 282836, Note_off_c, 5, 76, 0
7, 283200, Note_on_c, 5, 69, 60
7, 283200, Note_on_c, 5, 76, 60
7, 283316, Note_off_c, 5, 69, 0
7, 283316, Note_off_c, 5, 76, 0
7, 283680, Note_on_c, 5, 69, 40
7, 283680, Note_on_c, 5, 76, 40
7, 283796, Note_off_c, 5, 69, 0
7, 283796, Note_off_c, 5, 76, 0
7, 284160, Note_on_c, 5, 69, 20
7, 284160, Note_on_c, 5, 76, 20
7, 284276, Note_off_c, 5, 69, 0
7, 284276, Note_off_c, 5, 76, 0
7, 287520, Note_on_c, 5, 71, 120
7, 287520, Note_on_c, 5, 78, 120
7, 287636, Note_off_c, 5, 71, 0
7, 287636, Note_off_c, 5, 78, 0
7, 288000, Control_c, 5, 11, 127
7, 288000, Note_on_c, 5, 71, 100
7, 288000, Note_on_c, 5, 78, 100
7, 288116, Note_off_c, 5, 71, 0
7, 288116, Note_off_c, 5, 78, 0
7, 288120, Control_c, 5, 11, 126
7, 288360, Control_c, 5, 11, 125
7, 288480, Control_c, 5, 11, 124
7, 288480, Note_on_c, 5, 71, 80
7, 288480, Note_on_c, 5, 78, 80
7, 288596, Note_off_c, 5, 71, 0
7, 288596, Note_off_c, 5, 78, 0
7, 288720, Control_c, 5, 11, 123
7, 288840, Control_c, 5, 11, 122
7, 288960, Note_on_c, 5, 71, 60
7, 288960, Note_on_c, 5, 78, 60
7, 289076, Note_off_c, 5, 71, 0
7, 289076, Note_off_c, 5, 78, 0
7, 289080, Control_c, 5, 11, 121
7, 289200, Control_c, 5, 11, 120
7, 289440, Control_c, 5, 11, 119
7, 289440, Note_on_c, 5, 71, 40
7, 289440, Note_on_c, 5, 78, 40
7, 289556, Note_off_c, 5, 71, 0
7, 289556, Note_off_c, 5, 78, 0
7, 289560, Control_c, 5, 11, 118
7, 289800, Control_c, 5, 11, 117
7, 289920, Control_c, 5, 11, 116
7, 289920, Note_on_c, 5, 71, 20
7, 289920, Note_on_c, 5, 78, 20
7, 290036, Note_off_c, 5, 71, 0
7, 290036, Note_off_c, 5, 78, 0
7, 290160, Control_c, 5, 11, 115
7, 290280, Control_c, 5, 11, 114
7, 290520, Control_c, 5, 11, 113
7, 290640, Control_c, 5, 11, 112
7, 290880, Control_c, 5, 11, 111
7, 291000, Control_c, 5, 11, 110
7, 291240, Control_c, 5, 11, 109
7, 291360, Control_c, 5, 11, 108
7, 291600, Control_c, 5, 11, 107
7, 291720, Control_c, 5, 11, 106
7, 291960, Control_c, 5, 11, 105
7, 292200, Control_c, 5, 11, 104
7, 292320, Control_c, 5, 11, 103
7, 292560, Control_c, 5, 11, 102
7, 292680, Control_c, 5, 11, 101
7, 292920, Control_c, 5, 11, 100
7, 293040, Control_c, 5, 11, 99
7, 293280, Control_c, 5, 11, 98
7, 293280, Note_on_c, 5, 69, 120
7, 293280, Note_on_c, 5, 76, 120
7, 293396, Note_off_c, 5, 69, 0
7, 293396, Note_off_c, 5, 76, 0
7, 293400, Control_c, 5, 11, 97
7, 293640, Control_c, 5, 11, 96
7, 293760, Control_c, 5, 11, 95
7, 293760, Note_on_c, 5, 69, 100
7, 293760, Note_on_c, 5, 76, 100
7, 293876, Note_off_c, 5, 69, 0
7, 293876, Note_off_c, 5, 76, 0
7, 294000, Control_c, 5, 11, 94
7, 294120, Control_c, 5, 11, 93
7, 294240, Note_on_c, 5, 69, 80
7, 294240, Note_on_c, 5, 76, 80
7, 294356, Note_off_c, 5, 69, 0
7, 294356, Note_off_c, 5, 76, 0
7, 294360, Control_c, 5, 11, 92
7, 294480, Control_c, 5, 11, 91
7, 294720, Control_c, 5, 11, 90
7, 294720, Note_on_c, 5, 69, 60
7, 294720, Note_on_c, 5, 76, 60
7, 294836, Note_off_c, 5, 69, 0
7, 294836, Note_off_c, 5, 76, 0
7, 294840, Control_c, 5, 11, 89
7, 295080, Control_c, 5, 11, 88
7, 295200, Control_c, 5, 11, 87
7, 295200, Note_on_c, 5, 69, 40
7, 295200, Note_on_c, 5, 76, 40
7, 295316, Note_off_c, 5, 69, 0
7, 295316, Note_off_c, 5, 76, 0
7, 295440, Control_c, 5, 11, 86
7, 295560, Control_c, 5, 11, 85
7, 295680, Note_on_c, 5, 69, 20
7, 295680, Note_on_c, 5, 76, 20
7, 295796, Note_off_c, 5, 69, 0
7, 295796, Note_off_c, 5, 76, 0
7, 295800, Control_c, 5, 11, 84
7, 295920, Control_c, 5, 11, 83
7, 296160, Control_c, 5, 11, 82
7, 296280, Control_c, 5, 11, 81
7, 296520, Control_c, 5, 11, 80
7, 296640, Control_c, 5, 11, 79
7, 296880, Control_c, 5, 11, 78
7, 297000, Control_c, 5, 11, 77
7, 297240, Control_c, 5, 11, 76
7, 297360, Control_c, 5, 11, 75
7, 297600, Control_c, 5, 11, 74
7, 297720, Control_c, 5, 11, 73
7, 297960, Control_c, 5, 11, 72
7, 298080, Control_c, 5, 11, 71
7, 298320, Control_c, 5, 11, 70
7, 298440, Control_c, 5, 11, 69
7, 298680, Control_c, 5, 11, 68
7, 298800, Control_c, 5, 11, 67
7, 299040, Control_c, 5, 11, 66
7, 299040, Note_on_c, 5, 71, 120
7, 299040, Note_on_c, 5, 78, 120
7, 299156, Note_off_c, 5, 71, 0
7, 299156, Note_off_c, 5, 78, 0
7, 299160, Control_c, 5, 11, 65
7, 299400, Control_c, 5, 11, 64
7, 299520, Control_c, 5, 11, 63
7, 299520, Note_on_c, 5, 71, 100
7, 299520, Note_on_c, 5, 78, 100
7, 299636, Note_off_c, 5, 71, 0
7, 299636, Note_off_c, 5, 78, 0
7, 299760, Control_c, 5, 11, 62
7, 300000, Control_c, 5, 11, 61
7, 300000, Note_on_c, 5, 71, 80
7, 300000, Note_on_c, 5, 78, 80
7, 300116, Note_off_c, 5, 71, 0
7, 300116, Note_off_c, 5, 78, 0
7, 300120, Control_c, 5, 11, 60
7, 300360, Control_c, 5, 11, 59
7, 300480, Control_c, 5, 11, 58
7, 300480, Note_on_c, 5, 71, 60
7, 300480, Note_on_c, 5, 78, 60
7, 300596, Note_off_c, 5, 71, 0
7, 300596, Note_off_c, 5, 78, 0
7, 300720, Control_c, 5, 11, 57
7, 300840, Control_c, 5, 11, 56
7, 300960, Note_on_c, 5, 71, 40
7, 300960, Note_on_c, 5, 78, 40
7, 301076, Note_off_c, 5, 71, 0
7, 301076, Note_off_c, 5, 78, 0
7, 301080, Control_c, 5, 11, 55
7, 301200, Control_c, 5, 11, 54
7, 301440, Control_c, 5, 11, 53
7, 301440, Note_on_c, 5, 71, 20
7, 301440, Note_on_c, 5, 78, 20
7, 301556, Note_off_c, 5, 71, 0
7, 301556, Note_off_c, 5, 78, 0
7, 301560, Control_c, 5, 11, 52
7, 301800, Control_c, 5, 11, 51
7, 301920, Control_c, 5, 11, 50
7, 302160, Control_c, 5, 11, 49
7, 302280, Control_c, 5, 11, 48
7, 302520, Control_c, 5, 11, 47
7, 302640, Control_c, 5, 11, 46
7, 302880, Control_c, 5, 11, 45
7, 303000, Control_c, 5, 11, 44
7, 303240, Control_c, 5, 11, 43
7, 303360, Control_c, 5, 11, 42
7, 303600, Control_c, 5, 11, 41
7, 303720, Control_c, 5, 11, 40
7, 303960, Control_c, 5, 11, 39
7, 304080, Control_c, 5, 11, 38
7, 304320, Control_c, 5, 11, 37
7, 304440, Control_c, 5, 11, 36
7, 304680, Control_c, 5, 11, 35
7, 304800, Control_c, 5, 11, 34
7, 304800, Note_on_c, 5, 69, 120
7, 304800, Note_on_c, 5, 76, 120
7, 304916, Note_off_c, 5, 69, 0
7, 304916, Note_off_c, 5, 76, 0
7, 305040, Control_c, 5, 11, 33
7, 305160, Control_c, 5, 11, 32
7, 305280, Note_on_c, 5, 69, 100
7, 305280, Note_on_c, 5, 76, 100
7, 305396, Note_off_c, 5, 69, 0
7, 305396, Note_off_c, 5, 76, 0
7, 305400, Control_c, 5, 11, 31
7, 305520, Control_c, 5, 11, 30
7, 305760, Control_c, 5, 11, 29
7, 305760, Note_on_c, 5, 69, 80
7, 305760, Note_on_c, 5, 76, 80
7, 305876, Note_off_c, 5, 69, 0
7, 305876, Note_off_c, 5, 76, 0
7, 305880, Control_c, 5, 11, 28
7, 306120, Control_c, 5, 11, 27
7, 306240, Control_c, 5, 11, 26
7, 306240, Note_on_c, 5, 69, 60
7, 306240, Note_on_c, 5, 76, 60
7, 306356, Note_off_c, 5, 69, 0
7, 306356, Note_off_c, 5, 76, 0
7, 306480, Control_c, 5, 11, 25
7, 306600, Control_c, 5, 11, 24
7, 306720, Note_on_c, 5, 69, 40
7, 306720, Note_on_c, 5, 76, 40
7, 306836, Note_off_c, 5, 69, 0
7, 306836, Note_off_c, 5, 76, 0
7, 306840, Control_c, 5, 11, 23
7, 306960, Control_c, 5, 11, 22
7, 307200, Control_c, 5, 11, 21
7, 307200, Note_on_c, 5, 69, 20
7, 307200, Note_on_c, 5, 76, 20
7, 307316, Note_off_c, 5, 69, 0
7, 307316, Note_off_c, 5, 76, 0
7, 307440, Control_c, 5, 11, 20
7, 307560, Control_c, 5, 11, 19
7, 307800, Control_c, 5, 11, 18
7, 307920, Control_c, 5, 11, 17
7, 308160, Control_c, 5, 11, 16
7, 308280, Control_c, 5, 11, 15
7, 308520, Control_c, 5, 11, 14
7, 308640, Control_c, 5, 11, 13
7, 308880, Control_c, 5, 11, 12
7, 309000, Control_c, 5, 11, 11
7, 309240, Control_c, 5, 11, 10
7, 309360, Control_c, 5, 11, 9
7, 309600, Control_c, 5, 11, 8
7, 309720, Control_c, 5, 11, 7
7, 309960, Control_c, 5, 11, 6
7, 310080, Control_c, 5, 11, 5
7, 310320, Control_c, 5, 11, 4
7, 310440, Control_c, 5, 11, 3
7, 310680, Control_c, 5, 11, 2
7, 310800, Control_c, 5, 11, 1
7, 311031, Control_c, 5, 7, 47
7, 311031, End_track
8, 0, Start_track
8, 0, Title_t, "\000"
8, 0, Control_c, 6, 0, 24
8, 0, Program_c, 6, 18
8, 0, Control_c, 6, 7, 56
8, 0, Control_c, 6, 10, 59
8, 0, Control_c, 6, 91, 127
8, 0, Control_c, 6, 93, 40
8, 750, Control_c, 6, 11, 127
8, 3514, Control_c, 6, 101, 0
8, 3516, Control_c, 6, 100, 0
8, 3519, Control_c, 6, 6, 2
8, 3521, Control_c, 6, 101, 127
8, 3524, Control_c, 6, 100, 127
8, 5148, Control_c, 6, 94, 0
8, 92150, Note_on_c, 6, 87, 104
8, 92155, Note_on_c, 6, 78, 91
8, 92164, Note_on_c, 6, 83, 122
8, 97720, Note_off_c, 6, 78, 0
8, 97725, Note_off_c, 6, 87, 0
8, 97730, Note_off_c, 6, 83, 0
8, 141120, Control_c, 6, 32, 0
8, 141121, Control_c, 6, 0, 16
8, 141122, Program_c, 6, 18
8, 143959, Note_on_c, 6, 83, 108
8, 143962, Note_on_c, 6, 75, 91
8, 143962, Note_on_c, 6, 78, 95
8, 146865, Note_on_c, 6, 81, 101
8, 146879, Note_off_c, 6, 75, 0
8, 146891, Note_on_c, 6, 74, 104
8, 149686, Note_off_c, 6, 74, 0
8, 149756, Note_on_c, 6, 80, 100
8, 149767, Note_on_c, 6, 76, 101
8, 149787, Note_off_c, 6, 81, 0
8, 152496, Note_off_c, 6, 76, 0
8, 152531, Note_off_c, 6, 78, 0
8, 152587, Note_off_c, 6, 80, 0
8, 152603, Note_on_c, 6, 81, 101
8, 152628, Note_on_c, 6, 73, 91
8, 152637, Note_on_c, 6, 76, 88
8, 155419, Note_off_c, 6, 76, 0
8, 155434, Note_off_c, 6, 73, 0
8, 155530, Note_off_c, 6, 81, 0
8, 155535, Note_on_c, 6, 75, 87
8, 155535, Note_on_c, 6, 78, 91
8, 158376, Note_on_c, 6, 81, 101
8, 158381, Note_off_c, 6, 75, 0
8, 158401, Note_on_c, 6, 74, 88
8, 161176, Note_off_c, 6, 74, 0
8, 161242, Note_on_c, 6, 80, 91
8, 161252, Note_on_c, 6, 76, 97
8, 161272, Note_off_c, 6, 81, 0
8, 172652, Note_off_c, 6, 80, 0
8, 172657, Note_off_c, 6, 78, 0
8, 172662, Note_off_c, 6, 83, 0
8, 172662, Note_off_c, 6, 76, 0
8, 216000, Control_c, 6, 32, 0
8, 216001, Control_c, 6, 0, 16
8, 216002, Program_c, 6, 18
8, 239040, Control_c, 6, 32, 0
8, 239041, Control_c, 6, 0, 16
8, 239042, Program_c, 6, 18
8, 241913, Note_on_c, 6, 75, 95
8, 241913, Note_on_c, 6, 83, 113
8, 241918, Note_on_c, 6, 78, 91
8, 244763, Note_off_c, 6, 75, 0
8, 244769, Note_on_c, 6, 81, 104
8, 244783, Note_on_c, 6, 74, 94
8, 247585, Note_off_c, 6, 74, 0
8, 247615, Note_off_c, 6, 78, 0
8, 247700, Note_on_c, 6, 73, 87
8, 247706, Note_on_c, 6, 76, 117
8, 250451, Note_off_c, 6, 73, 0
8, 250501, Note_off_c, 6, 76, 0
8, 250531, Note_off_c, 6, 81, 0
8, 250546, Note_on_c, 6, 78, 91
8, 250556, Note_on_c, 6, 75, 76
8, 253272, Note_off_c, 6, 78, 0
8, 253277, Note_off_c, 6, 75, 0
8, 253292, Note_off_c, 6, 83, 0
8, 253390, Note_on_c, 6, 83, 104
8, 253399, Note_on_c, 6, 78, 83
8, 253405, Note_on_c, 6, 75, 76
8, 256275, Note_on_c, 6, 81, 108
8, 256291, Note_off_c, 6, 75, 0
8, 256296, Note_on_c, 6, 74, 101
8, 259077, Note_off_c, 6, 74, 0
8, 259097, Note_off_c, 6, 78, 0
8, 259193, Note_on_c, 6, 73, 87
8, 259193, Note_on_c, 6, 76, 108
8, 263419, Note_off_c, 6, 73, 0
8, 263424, Note_off_c, 6, 76, 0
8, 263434, Note_off_c, 6, 83, 0
8, 263434, Note_off_c, 6, 81, 0
8, 263490, Note_on_c, 6, 74, 97
8, 263495, Note_on_c, 6, 79, 94
8, 263500, Note_on_c, 6, 83, 91
8, 264187, Note_off_c, 6, 74, 0
8, 264243, Note_off_c, 6, 83, 0
8, 264269, Note_on_c, 6, 81, 108
8, 264273, Note_on_c, 6, 76, 117
8, 264282, Note_on_c, 6, 73, 95
8, 264324, Note_off_c, 6, 79, 0
8, 264919, Note_off_c, 6, 76, 0
8, 264931, Note_off_c, 6, 73, 0
8, 264941, Note_off_c, 6, 81, 0
8, 264953, Note_on_c, 6, 75, 95
8, 264953, Note_on_c, 6, 83, 113
8, 264958, Note_on_c, 6, 78, 91
8, 267803, Note_off_c, 6, 75, 0
8, 267809, Note_on_c, 6, 81, 104
8, 267823, Note_on_c, 6, 74, 94
8, 270625, Note_off_c, 6, 74, 0
8, 270655, Note_off_c, 6, 78, 0
8, 270740, Note_on_c, 6, 73, 87
8, 270746, Note_on_c, 6, 76, 117
8, 273491, Note_off_c, 6, 73, 0
8, 273541, Note_off_c, 6, 76, 0
8, 273571, Note_off_c, 6, 81, 0
8, 273586, Note_on_c, 6, 78, 91
8, 273596, Note_on_c, 6, 75, 76
8, 276312, Note_off_c, 6, 78, 0
8, 276317, Note_off_c, 6, 75, 0
8, 276332, Note_off_c, 6, 83, 0
8, 276430, Note_on_c, 6, 83, 104
8, 276439, Note_on_c, 6, 78, 83
8, 276445, Note_on_c, 6, 75, 76
8, 279315, Note_on_c, 6, 81, 108
8, 279331, Note_off_c, 6, 75, 0
8, 279336, Note_on_c, 6, 74, 101
8, 282117, Note_off_c, 6, 74, 0
8, 282137, Note_off_c, 6, 78, 0
8, 282233, Note_on_c, 6, 73, 87
8, 282233, Note_on_c, 6, 76, 108
8, 286459, Note_off_c, 6, 73, 0
8, 286464, Note_off_c, 6, 76, 0
8, 286474, Note_off_c, 6, 83, 0
8, 286474, Note_off_c, 6, 81, 0
8, 286530, Note_on_c, 6, 74, 97
8, 286535, Note_on_c, 6, 79, 94
8, 286540, Note_on_c, 6, 71, 91
8, 287467, Note_off_c, 6, 74, 0
8, 287604, Note_off_c, 6, 79, 0
8, 287643, Note_off_c, 6, 71, 0
8, 287993, Note_on_c, 6, 75, 95
8, 287993, Note_on_c, 6, 83, 113
8, 287998, Note_on_c, 6, 78, 91
8, 288000, Control_c, 6, 11, 127
8, 288120, Control_c, 6, 11, 126
8, 288360, Control_c, 6, 11, 125
8, 288480, Control_c, 6, 11, 124
8, 288720, Control_c, 6, 11, 123
8, 288840, Control_c, 6, 11, 122
8, 289080, Control_c, 6, 11, 121
8, 289200, Control_c, 6, 11, 120
8, 289440, Control_c, 6, 11, 119
8, 289560, Control_c, 6, 11, 118
8, 289800, Control_c, 6, 11, 117
8, 289920, Control_c, 6, 11, 116
8, 290160, Control_c, 6, 11, 115
8, 290280, Control_c, 6, 11, 114
8, 290520, Control_c, 6, 11, 113
8, 290640, Control_c, 6, 11, 112
8, 290843, Note_off_c, 6, 75, 0
8, 290849, Note_on_c, 6, 81, 104
8, 290863, Note_on_c, 6, 74, 94
8, 290880, Control_c, 6, 11, 111
8, 291000, Control_c, 6, 11, 110
8, 291240, Control_c, 6, 11, 109
8, 291360, Control_c, 6, 11, 108
8, 291600, Control_c, 6, 11, 107
8, 291720, Control_c, 6, 11, 106
8, 291960, Control_c, 6, 11, 105
8, 292200, Control_c, 6, 11, 104
8, 292320, Control_c, 6, 11, 103
8, 292560, Control_c, 6, 11, 102
8, 292680, Control_c, 6, 11, 101
8, 292920, Control_c, 6, 11, 100
8, 293040, Control_c, 6, 11, 99
8, 293280, Control_c, 6, 11, 98
8, 293400, Control_c, 6, 11, 97
8, 293640, Control_c, 6, 11, 96
8, 293665, Note_off_c, 6, 74, 0
8, 293695, Note_off_c, 6, 78, 0
8, 293760, Control_c, 6, 11, 95
8, 293780, Note_on_c, 6, 73, 87
8, 293786, Note_on_c, 6, 76, 117
8, 294000, Control_c, 6, 11, 94
8, 294120, Control_c, 6, 11, 93
8, 294360, Control_c, 6, 11, 92
8, 294480, Control_c, 6, 11, 91
8, 294720, Control_c, 6, 11, 90
8, 294840, Control_c, 6, 11, 89
8, 295080, Control_c, 6, 11, 88
8, 295200, Control_c, 6, 11, 87
8, 295440, Control_c, 6, 11, 86
8, 295560, Control_c, 6, 11, 85
8, 295800, Control_c, 6, 11, 84
8, 295920, Control_c, 6, 11, 83
8, 296160, Control_c, 6, 11, 82
8, 296280, Control_c, 6, 11, 81
8, 296520, Control_c, 6, 11, 80
8, 296531, Note_off_c, 6, 73, 0
8, 296581, Note_off_c, 6, 76, 0
8, 296611, Note_off_c, 6, 81, 0
8, 296626, Note_on_c, 6, 78, 91
8, 296636, Note_on_c, 6, 75, 76
8, 296640, Control_c, 6, 11, 79
8, 296880, Control_c, 6, 11, 78
8, 297000, Control_c, 6, 11, 77
8, 297240, Control_c, 6, 11, 76
8, 297360, Control_c, 6, 11, 75
8, 297600, Control_c, 6, 11, 74
8, 297720, Control_c, 6, 11, 73
8, 297960, Control_c, 6, 11, 72
8, 298080, Control_c, 6, 11, 71
8, 298320, Control_c, 6, 11, 70
8, 298440, Control_c, 6, 11, 69
8, 298680, Control_c, 6, 11, 68
8, 298800, Control_c, 6, 11, 67
8, 299040, Control_c, 6, 11, 66
8, 299160, Control_c, 6, 11, 65
8, 299352, Note_off_c, 6, 78, 0
8, 299357, Note_off_c, 6, 75, 0
8, 299372, Note_off_c, 6, 83, 0
8, 299400, Control_c, 6, 11, 64
8, 299470, Note_on_c, 6, 83, 104
8, 299479, Note_on_c, 6, 78, 83
8, 299485, Note_on_c, 6, 75, 76
8, 299520, Control_c, 6, 11, 63
8, 299760, Control_c, 6, 11, 62
8, 300000, Control_c, 6, 11, 61
8, 300120, Control_c, 6, 11, 60
8, 300360, Control_c, 6, 11, 59
8, 300480, Control_c, 6, 11, 58
8, 300720, Control_c, 6, 11, 57
8, 300840, Control_c, 6, 11, 56
8, 301080, Control_c, 6, 11, 55
8, 301200, Control_c, 6, 11, 54
8, 301440, Control_c, 6, 11, 53
8, 301560, Control_c, 6, 11, 52
8, 301800, Control_c, 6, 11, 51
8, 301920, Control_c, 6, 11, 50
8, 302160, Control_c, 6, 11, 49
8, 302280, Control_c, 6, 11, 48
8, 302355, Note_on_c, 6, 81, 108
8, 302371, Note_off_c, 6, 75, 0
8, 302376, Note_on_c, 6, 74, 101
8, 302520, Control_c, 6, 11, 47
8, 302640, Control_c, 6, 11, 46
8, 302880, Control_c, 6, 11, 45
8, 303000, Control_c, 6, 11, 44
8, 303240, Control_c, 6, 11, 43
8, 303360, Control_c, 6, 11, 42
8, 303600, Control_c, 6, 11, 41
8, 303720, Control_c, 6, 11, 40
8, 303960, Control_c, 6, 11, 39
8, 304080, Control_c, 6, 11, 38
8, 304320, Control_c, 6, 11, 37
8, 304440, Control_c, 6, 11, 36
8, 304680, Control_c, 6, 11, 35
8, 304800, Control_c, 6, 11, 34
8, 305040, Control_c, 6, 11, 33
8, 305157, Note_off_c, 6, 74, 0
8, 305160, Control_c, 6, 11, 32
8, 305177, Note_off_c, 6, 78, 0
8, 305273, Note_on_c, 6, 73, 87
8, 305273, Note_on_c, 6, 76, 108
8, 305400, Control_c, 6, 11, 31
8, 305520, Control_c, 6, 11, 30
8, 305760, Control_c, 6, 11, 29
8, 305880, Control_c, 6, 11, 28
8, 306120, Control_c, 6, 11, 27
8, 306240, Control_c, 6, 11, 26
8, 306480, Control_c, 6, 11, 25
8, 306600, Control_c, 6, 11, 24
8, 306840, Control_c, 6, 11, 23
8, 306960, Control_c, 6, 11, 22
8, 307200, Control_c, 6, 11, 21
8, 307440, Control_c, 6, 11, 20
8, 307560, Control_c, 6, 11, 19
8, 307800, Control_c, 6, 11, 18
8, 307920, Control_c, 6, 11, 17
8, 308160, Control_c, 6, 11, 16
8, 308280, Control_c, 6, 11, 15
8, 308520, Control_c, 6, 11, 14
8, 308640, Control_c, 6, 11, 13
8, 308880, Control_c, 6, 11, 12
8, 309000, Control_c, 6, 11, 11
8, 309240, Control_c, 6, 11, 10
8, 309360, Control_c, 6, 11, 9
8, 309499, Note_off_c, 6, 73, 0
8, 309504, Note_off_c, 6, 76, 0
8, 309514, Note_off_c, 6, 83, 0
8, 309514, Note_off_c, 6, 81, 0
8, 309570, Note_on_c, 6, 74, 97
8, 309575, Note_on_c, 6, 79, 94
8, 309580, Note_on_c, 6, 71, 91
8, 309600, Control_c, 6, 11, 8
8, 309720, Control_c, 6, 11, 7
8, 309960, Control_c, 6, 11, 6
8, 310080, Control_c, 6, 11, 5
8, 310320, Control_c, 6, 11, 4
8, 310440, Control_c, 6, 11, 3
8, 310507, Note_off_c, 6, 74, 0
8, 310644, Note_off_c, 6, 79, 0
8, 310680, Control_c, 6, 11, 2
8, 310683, Note_off_c, 6, 71, 0
8, 310800, Control_c, 6, 11, 1
8, 311031, Control_c, 6, 7, 56
8, 311031, End_track
9, 0, Start_track
9, 0, Title_t, "\000"
9, 0, Control_c, 7, 0, 0
9, 0, Program_c, 7, 60
9, 0, Control_c, 7, 7, 97
9, 0, Control_c, 7, 10, 44
9, 0, Control_c, 7, 91, 127
9, 0, Control_c, 7, 93, 60
9, 790, Control_c, 7, 11, 127
9, 3539, Control_c, 7, 101, 0
9, 3541, Control_c, 7, 100, 0
9, 3544, Control_c, 7, 6, 2
9, 3546, Control_c, 7, 101, 127
9, 3549, Control_c, 7, 100, 127
9, 5108, Control_c, 7, 94, 0
9, 5732, Note_on_c, 7, 63, 87
9, 8411, Note_on_c, 7, 66, 80
9, 8457, Note_off_c, 7, 63, 0
9, 11084, Note_on_c, 7, 67, 73
9, 11100, Note_off_c, 7, 66, 0
9, 11302, Note_on_c, 7, 69, 91
9, 11313, Note_off_c, 7, 67, 0
9, 11564, Note_on_c, 7, 64, 77
9, 11576, Note_off_c, 7, 69, 0
9, 14324, Note_on_c, 7, 62, 75
9, 14366, Note_off_c, 7, 64, 0
9, 14400, Note_on_c, 7, 63, 71
9, 14452, Note_off_c, 7, 62, 0
9, 15124, Note_on_c, 7, 66, 71
9, 15154, Note_off_c, 7, 63, 0
9, 17172, Note_off_c, 7, 66, 0
9, 17235, Note_on_c, 7, 63, 87
9, 20203, Note_on_c, 7, 64, 83
9, 20227, Note_off_c, 7, 63, 0
9, 25880, Note_on_c, 7, 63, 73
9, 25930, Note_off_c, 7, 64, 0
9, 28665, Note_off_c, 7, 63, 0
9, 97875, Note_on_c, 7, 66, 110
9, 103490, Note_off_c, 7, 66, 0
9, 120915, Note_on_c, 7, 66, 110
9, 126530, Note_off_c, 7, 66, 0
9, 172755, Note_on_c, 7, 66, 110
9, 178370, Note_off_c, 7, 66, 0
9, 195795, Note_on_c, 7, 66, 110
9, 201410, Note_off_c, 7, 66, 0
9, 218835, Note_on_c, 7, 66, 110
9, 224450, Note_off_c, 7, 66, 0
9, 241875, Note_on_c, 7, 66, 110
9, 247490, Note_off_c, 7, 66, 0
9, 264915, Note_on_c, 7, 66, 110
9, 270530, Note_off_c, 7, 66, 0
9, 287955, Note_on_c, 7, 66, 110
9, 288000, Control_c, 7, 11, 127
9, 288120, Control_c, 7, 11, 126
9, 288240, Control_c, 7, 11, 125
9, 288360, Control_c, 7, 11, 123
9, 288480, Control_c, 7, 11, 122
9, 288600, Control_c, 7, 11, 121
9, 288720, Control_c, 7, 11, 120
9, 288840, Control_c, 7, 11, 119
9, 288960, Control_c, 7, 11, 117
9, 289080, Control_c, 7, 11, 116
9, 289200, Control_c, 7, 11, 115
9, 289320, Control_c, 7, 11, 114
9, 289440, Control_c, 7, 11, 113
9, 289560, Control_c, 7, 11, 112
9, 289680, Control_c, 7, 11, 110
9, 289800, Control_c, 7, 11, 109
9, 289920, Control_c, 7, 11, 108
9, 290040, Control_c, 7, 11, 107
9, 290160, Control_c, 7, 11, 106
9, 290280, Control_c, 7, 11, 104
9, 290400, Control_c, 7, 11, 103
9, 290520, Control_c, 7, 11, 102
9, 290640, Control_c, 7, 11, 101
9, 290760, Control_c, 7, 11, 100
9, 290880, Control_c, 7, 11, 98
9, 291000, Control_c, 7, 11, 97
9, 291120, Control_c, 7, 11, 96
9, 291240, Control_c, 7, 11, 95
9, 291360, Control_c, 7, 11, 94
9, 291480, Control_c, 7, 11, 93
9, 291600, Control_c, 7, 11, 91
9, 291720, Control_c, 7, 11, 90
9, 291840, Control_c, 7, 11, 89
9, 291960, Control_c, 7, 11, 88
9, 292080, Control_c, 7, 11, 87
9, 292200, Control_c, 7, 11, 85
9, 292320, Control_c, 7, 11, 84
9, 292440, Control_c, 7, 11, 83
9, 292560, Control_c, 7, 11, 82
9, 292680, Control_c, 7, 11, 81
9, 292800, Control_c, 7, 11, 79
9, 292920, Control_c, 7, 11, 78
9, 293040, Control_c, 7, 11, 77
9, 293160, Control_c, 7, 11, 76
9, 293280, Control_c, 7, 11, 75
9, 293400, Control_c, 7, 11, 74
9, 293520, Control_c, 7, 11, 72
9, 293570, Note_off_c, 7, 66, 0
9, 293640, Control_c, 7, 11, 71
9, 311031, Control_c, 7, 7, 97
9, 311031, End_track
10, 0, Start_track
10, 0, Title_t, "\000"
10, 0, Control_c, 8, 0, 0
10, 0, Program_c, 8, 22
10, 0, Control_c, 8, 7, 90
10, 0, Control_c, 8, 10, 64
10, 0, Control_c, 8, 91, 127
10, 0, Control_c, 8, 93, 20
10, 830, Control_c, 8, 11, 127
10, 3564, Control_c, 8, 101, 0
10, 3566, Control_c, 8, 100, 0
10, 3569, Control_c, 8, 6, 2
10, 3571, Control_c, 8, 101, 127
10, 3574, Control_c, 8, 100, 127
10, 5074, Control_c, 8, 94, 20
10, 17201, Pitch_bend_c, 8, 7926
10, 17217, Pitch_bend_c, 8, 5284
10, 17237, Pitch_bend_c, 8, 1585
10, 17247, Note_on_c, 8, 75, 127
10, 17253, Pitch_bend_c, 8, 0
10, 17358, Pitch_bend_c, 8, 792
10, 17375, Pitch_bend_c, 8, 2642
10, 17395, Pitch_bend_c, 8, 5284
10, 17414, Pitch_bend_c, 8, 7134
10, 17435, Pitch_bend_c, 8, 8191
10, 17455, Pitch_bend_c, 8, 8192
10, 17637, Note_off_c, 8, 75, 0
10, 17683, Note_on_c, 8, 76, 127
10, 17899, Note_off_c, 8, 76, 0
10, 17935, Pitch_bend_c, 8, 7662
10, 17956, Pitch_bend_c, 8, 5020
10, 17961, Note_on_c, 8, 75, 127
10, 17971, Pitch_bend_c, 8, 1321
10, 17991, Pitch_bend_c, 8, 0
10, 18072, Pitch_bend_c, 8, 1056
10, 18092, Pitch_bend_c, 8, 3434
10, 18112, Pitch_bend_c, 8, 6077
10, 18133, Pitch_bend_c, 8, 7662
10, 18153, Pitch_bend_c, 8, 8192
10, 18420, Note_off_c, 8, 75, 0
10, 18455, Note_on_c, 8, 76, 127
10, 18643, Note_off_c, 8, 76, 0
10, 18667, Pitch_bend_c, 8, 6077
10, 18688, Pitch_bend_c, 8, 2378
10, 18694, Note_on_c, 8, 75, 127
10, 18709, Pitch_bend_c, 8, 0
10, 18769, Pitch_bend_c, 8, 2378
10, 18785, Pitch_bend_c, 8, 5020
10, 18805, Pitch_bend_c, 8, 7134
10, 18825, Pitch_bend_c, 8, 8191
10, 18845, Pitch_bend_c, 8, 8192
10, 19123, Note_off_c, 8, 75, 0
10, 19164, Note_on_c, 8, 73, 110
10, 19381, Pitch_bend_c, 8, 9248
10, 19395, Pitch_bend_c, 8, 12683
10, 19417, Pitch_bend_c, 8, 12948
10, 19437, Pitch_bend_c, 8, 10834
10, 19462, Pitch_bend_c, 8, 8720
10, 19476, Pitch_bend_c, 8, 8192
10, 19604, Note_off_c, 8, 73, 0
10, 19710, Note_on_c, 8, 73, 110
10, 19902, Note_off_c, 8, 73, 0
10, 19917, Note_on_c, 8, 71, 122
10, 20079, Note_off_c, 8, 71, 0
10, 20149, Note_on_c, 8, 73, 104
10, 20214, Pitch_bend_c, 8, 10570
10, 20235, Pitch_bend_c, 8, 11626
10, 20256, Pitch_bend_c, 8, 10570
10, 20278, Pitch_bend_c, 8, 8984
10, 20295, Pitch_bend_c, 8, 8192
10, 20569, Note_off_c, 8, 73, 0
10, 20609, Note_on_c, 8, 74, 113
10, 20802, Note_off_c, 8, 74, 0
10, 20861, Note_on_c, 8, 73, 110
10, 21276, Note_off_c, 8, 73, 0
10, 21338, Note_on_c, 8, 74, 122
10, 21504, Note_off_c, 8, 74, 0
10, 21575, Note_on_c, 8, 73, 110
10, 21666, Pitch_bend_c, 8, 8984
10, 21686, Pitch_bend_c, 8, 11362
10, 21712, Pitch_bend_c, 8, 12155
10, 21727, Pitch_bend_c, 8, 10834
10, 21747, Pitch_bend_c, 8, 8984
10, 21767, Pitch_bend_c, 8, 8192
10, 21969, Note_off_c, 8, 73, 0
10, 22030, Note_on_c, 8, 71, 122
10, 22485, Note_off_c, 8, 71, 0
10, 22556, Note_on_c, 8, 69, 122
10, 22733, Note_off_c, 8, 69, 0
10, 22758, Note_on_c, 8, 66, 100
10, 22900, Note_off_c, 8, 66, 0
10, 22981, Note_on_c, 8, 69, 113
10, 23102, Note_off_c, 8, 69, 0
10, 23152, Note_on_c, 8, 69, 101
10, 23338, Note_off_c, 8, 69, 0
10, 23713, Note_on_c, 8, 69, 127
10, 23870, Note_off_c, 8, 69, 0
10, 23921, Note_on_c, 8, 69, 117
10, 24056, Note_off_c, 8, 69, 0
10, 24396, Note_on_c, 8, 76, 127
10, 24396, Pitch_bend_c, 8, 6869
10, 24420, Pitch_bend_c, 8, 2906
10, 24437, Pitch_bend_c, 8, 264
10, 24471, Pitch_bend_c, 8, 1849
10, 24497, Pitch_bend_c, 8, 4491
10, 24513, Pitch_bend_c, 8, 6869
10, 24533, Pitch_bend_c, 8, 7926
10, 24553, Pitch_bend_c, 8, 8192
10, 25094, Note_off_c, 8, 76, 0
10, 25129, Pitch_bend_c, 8, 5812
10, 25149, Pitch_bend_c, 8, 2378
10, 25165, Note_on_c, 8, 76, 127
10, 25175, Pitch_bend_c, 8, 264
10, 25190, Pitch_bend_c, 8, 1321
10, 25215, Pitch_bend_c, 8, 4491
10, 25230, Pitch_bend_c, 8, 6869
10, 25246, Pitch_bend_c, 8, 7926
10, 25270, Pitch_bend_c, 8, 8192
10, 25624, Pitch_bend_c, 8, 10041
10, 25645, Pitch_bend_c, 8, 11098
10, 25665, Pitch_bend_c, 8, 9513
10, 25685, Pitch_bend_c, 8, 8192
10, 25812, Note_off_c, 8, 76, 0
10, 25832, Note_on_c, 8, 74, 122
10, 26053, Note_off_c, 8, 74, 0
10, 26059, Note_on_c, 8, 71, 122
10, 26276, Note_off_c, 8, 71, 0
10, 26538, Note_on_c, 8, 69, 113
10, 26767, Note_off_c, 8, 69, 0
10, 27039, Note_on_c, 8, 69, 108
10, 27337, Note_off_c, 8, 69, 0
10, 27480, Note_on_c, 8, 64, 101
10, 27798, Note_off_c, 8, 64, 0
10, 27990, Note_on_c, 8, 64, 127
10, 28112, Pitch_bend_c, 8, 8191
10, 28172, Pitch_bend_c, 8, 8192
10, 28496, Note_off_c, 8, 64, 0
10, 28526, Note_on_c, 8, 62, 113
10, 28653, Note_off_c, 8, 62, 0
10, 73166, Pitch_bend_c, 8, 6869
10, 73182, Pitch_bend_c, 8, 4491
10, 73203, Pitch_bend_c, 8, 2642
10, 73222, Note_on_c, 8, 74, 127
10, 73222, Pitch_bend_c, 8, 1849
10, 73263, Pitch_bend_c, 8, 2113
10, 73282, Pitch_bend_c, 8, 3170
10, 73303, Pitch_bend_c, 8, 4756
10, 73329, Pitch_bend_c, 8, 6341
10, 73344, Pitch_bend_c, 8, 7662
10, 73363, Pitch_bend_c, 8, 8192
10, 73587, Note_off_c, 8, 74, 0
10, 73678, Pitch_bend_c, 8, 7926
10, 73703, Pitch_bend_c, 8, 6341
10, 73713, Note_on_c, 8, 74, 127
10, 73723, Pitch_bend_c, 8, 4756
10, 73737, Pitch_bend_c, 8, 4227
10, 73758, Pitch_bend_c, 8, 4491
10, 73779, Pitch_bend_c, 8, 5284
10, 73800, Pitch_bend_c, 8, 6869
10, 73818, Pitch_bend_c, 8, 7926
10, 73839, Pitch_bend_c, 8, 8192
10, 74072, Note_off_c, 8, 74, 0
10, 74163, Note_on_c, 8, 71, 127
10, 74512, Note_off_c, 8, 71, 0
10, 74638, Note_on_c, 8, 69, 127
10, 74936, Pitch_bend_c, 8, 8191
10, 74946, Note_off_c, 8, 69, 0
10, 74956, Pitch_bend_c, 8, 6341
10, 74971, Pitch_bend_c, 8, 4227
10, 74977, Note_on_c, 8, 71, 127
10, 74992, Pitch_bend_c, 8, 2642
10, 75011, Pitch_bend_c, 8, 1849
10, 75032, Pitch_bend_c, 8, 2113
10, 75053, Pitch_bend_c, 8, 2906
10, 75072, Pitch_bend_c, 8, 4491
10, 75093, Pitch_bend_c, 8, 6341
10, 75114, Pitch_bend_c, 8, 7662
10, 75134, Pitch_bend_c, 8, 8192
10, 75513, Control_c, 8, 1, 0
10, 75664, Note_off_c, 8, 71, 0
10, 92068, Pitch_bend_c, 8, 8191
10, 92095, Pitch_bend_c, 8, 5812
10, 92115, Pitch_bend_c, 8, 3434
10, 92130, Pitch_bend_c, 8, 2378
10, 92149, Pitch_bend_c, 8, 2906
10, 92154, Note_on_c, 8, 69, 117
10, 92175, Pitch_bend_c, 8, 4756
10, 92190, Pitch_bend_c, 8, 6869
10, 92211, Pitch_bend_c, 8, 7926
10, 92230, Pitch_bend_c, 8, 8192
10, 92341, Note_on_c, 8, 71, 122
10, 92373, Note_off_c, 8, 69, 0
10, 92731, Note_off_c, 8, 71, 0
10, 92843, Note_on_c, 8, 71, 127
10, 93343, Control_c, 8, 1, 127
10, 93438, Control_c, 8, 1, 0
10, 93514, Note_off_c, 8, 71, 0
10, 93596, Note_on_c, 8, 69, 117
10, 93610, Pitch_bend_c, 8, 7926
10, 93637, Pitch_bend_c, 8, 6869
10, 93657, Pitch_bend_c, 8, 7398
10, 93671, Pitch_bend_c, 8, 8191
10, 93682, Note_off_c, 8, 69, 0
10, 93691, Pitch_bend_c, 8, 8192
10, 93738, Note_on_c, 8, 71, 127
10, 94172, Note_off_c, 8, 71, 0
10, 94282, Note_on_c, 8, 71, 127
10, 94915, Note_off_c, 8, 71, 0
10, 94961, Pitch_bend_c, 8, 6869
10, 94975, Note_on_c, 8, 74, 127
10, 94981, Pitch_bend_c, 8, 1849
10, 95002, Pitch_bend_c, 8, 528
10, 95021, Pitch_bend_c, 8, 1056
10, 95042, Pitch_bend_c, 8, 3170
10, 95062, Pitch_bend_c, 8, 5812
10, 95083, Pitch_bend_c, 8, 7662
10, 95102, Pitch_bend_c, 8, 8191
10, 95117, Pitch_bend_c, 8, 8192
10, 95254, Note_off_c, 8, 74, 0
10, 95258, Note_on_c, 8, 71, 122
10, 95623, Note_off_c, 8, 71, 0
10, 95750, Note_on_c, 8, 71, 127
10, 96094, Control_c, 8, 1, 127
10, 96249, Control_c, 8, 1, 0
10, 96417, Note_off_c, 8, 71, 0
10, 96476, Note_on_c, 8, 69, 117
10, 96598, Note_off_c, 8, 69, 0
10, 96644, Note_on_c, 8, 71, 127
10, 97069, Note_off_c, 8, 71, 0
10, 97165, Note_on_c, 8, 71, 122
10, 97514, Control_c, 8, 1, 64
10, 97544, Control_c, 8, 1, 0
10, 97660, Note_off_c, 8, 71, 0
10, 106856, Pitch_bend_c, 8, 8191
10, 106876, Pitch_bend_c, 8, 6605
10, 106896, Pitch_bend_c, 8, 4491
10, 106912, Pitch_bend_c, 8, 2113
10, 106921, Note_on_c, 8, 74, 127
10, 106932, Pitch_bend_c, 8, 792
10, 106956, Pitch_bend_c, 8, 264
10, 106972, Pitch_bend_c, 8, 792
10, 106991, Pitch_bend_c, 8, 2113
10, 107012, Pitch_bend_c, 8, 4491
10, 107033, Pitch_bend_c, 8, 6869
10, 107058, Pitch_bend_c, 8, 7926
10, 107073, Pitch_bend_c, 8, 8192
10, 107259, Control_c, 8, 1, 127
10, 107370, Control_c, 8, 1, 0
10, 107457, Note_off_c, 8, 74, 0
10, 107503, Note_on_c, 8, 71, 113
10, 107633, Note_off_c, 8, 71, 0
10, 107725, Note_on_c, 8, 69, 127
10, 107852, Note_off_c, 8, 69, 0
10, 107963, Pitch_bend_c, 8, 8191
10, 107968, Note_on_c, 8, 71, 127
10, 107983, Pitch_bend_c, 8, 7134
10, 108019, Pitch_bend_c, 8, 7662
10, 108039, Pitch_bend_c, 8, 8192
10, 108180, Note_on_c, 8, 69, 104
10, 108221, Note_off_c, 8, 71, 0
10, 108392, Note_off_c, 8, 69, 0
10, 108437, Note_on_c, 8, 66, 87
10, 108564, Note_off_c, 8, 66, 0
10, 108681, Note_on_c, 8, 71, 104
10, 109000, Note_off_c, 8, 71, 0
10, 109090, Pitch_bend_c, 8, 8191
10, 109110, Pitch_bend_c, 8, 7134
10, 109130, Note_on_c, 8, 71, 127
10, 109130, Pitch_bend_c, 8, 5812
10, 109155, Pitch_bend_c, 8, 5548
10, 109171, Pitch_bend_c, 8, 5812
10, 109192, Pitch_bend_c, 8, 6869
10, 109210, Pitch_bend_c, 8, 7926
10, 109232, Pitch_bend_c, 8, 8192
10, 109879, Note_off_c, 8, 71, 0
10, 110542, Note_on_c, 8, 75, 127
10, 110542, Note_on_c, 8, 78, 110
10, 110778, Control_c, 8, 11, 119
10, 110815, Control_c, 8, 11, 99
10, 110856, Control_c, 8, 11, 79
10, 110896, Control_c, 8, 11, 68
10, 110931, Control_c, 8, 11, 64
10, 111174, Control_c, 8, 11, 68
10, 111209, Control_c, 8, 11, 71
10, 111250, Control_c, 8, 11, 74
10, 111290, Control_c, 8, 11, 78
10, 111331, Control_c, 8, 11, 82
10, 111370, Control_c, 8, 11, 85
10, 111410, Control_c, 8, 11, 88
10, 111447, Control_c, 8, 11, 92
10, 111486, Control_c, 8, 11, 95
10, 111528, Control_c, 8, 11, 98
10, 111569, Control_c, 8, 11, 102
10, 111604, Control_c, 8, 11, 106
10, 111644, Control_c, 8, 11, 111
10, 111683, Control_c, 8, 11, 115
10, 111725, Control_c, 8, 11, 120
10, 111765, Control_c, 8, 11, 126
10, 112108, Note_off_c, 8, 78, 0
10, 112114, Note_off_c, 8, 75, 0
10, 112604, Note_on_c, 8, 71, 127
10, 112609, Note_on_c, 8, 69, 127
10, 112614, Note_on_c, 8, 64, 113
10, 112695, Note_off_c, 8, 69, 0
10, 112699, Note_off_c, 8, 71, 0
10, 112710, Note_off_c, 8, 64, 0
10, 113100, Note_on_c, 8, 69, 127
10, 113105, Note_on_c, 8, 71, 127
10, 113110, Note_on_c, 8, 64, 117
10, 113186, Note_off_c, 8, 71, 0
10, 113191, Note_off_c, 8, 69, 0
10, 113196, Note_off_c, 8, 64, 0
10, 113545, Note_on_c, 8, 69, 127
10, 113550, Note_on_c, 8, 64, 101
10, 113550, Note_on_c, 8, 71, 117
10, 113817, Control_c, 8, 11, 124
10, 113863, Control_c, 8, 11, 115
10, 113898, Control_c, 8, 11, 109
10, 113939, Control_c, 8, 11, 102
10, 113979, Control_c, 8, 11, 95
10, 114019, Control_c, 8, 11, 87
10, 114054, Control_c, 8, 11, 82
10, 114096, Control_c, 8, 11, 78
10, 114136, Control_c, 8, 11, 76
10, 114252, Control_c, 8, 11, 78
10, 114293, Control_c, 8, 11, 83
10, 114332, Control_c, 8, 11, 89
10, 114373, Control_c, 8, 11, 96
10, 114409, Control_c, 8, 11, 102
10, 114450, Control_c, 8, 11, 109
10, 114496, Control_c, 8, 11, 119
10, 114530, Control_c, 8, 11, 127
10, 114682, Note_off_c, 8, 69, 0
10, 114682, Note_off_c, 8, 71, 0
10, 114687, Note_off_c, 8, 64, 0
10, 118961, Note_on_c, 8, 76, 127
10, 119003, Pitch_bend_c, 8, 8456
10, 119023, Pitch_bend_c, 8, 11891
10, 119043, Pitch_bend_c, 8, 13476
10, 119062, Pitch_bend_c, 8, 12948
10, 119084, Pitch_bend_c, 8, 10570
10, 119099, Pitch_bend_c, 8, 8720
10, 119119, Pitch_bend_c, 8, 8192
10, 119367, Note_off_c, 8, 76, 0
10, 119453, Note_on_c, 8, 76, 127
10, 119517, Pitch_bend_c, 8, 11098
10, 119538, Pitch_bend_c, 8, 12683
10, 119559, Pitch_bend_c, 8, 11891
10, 119579, Pitch_bend_c, 8, 9513
10, 119599, Pitch_bend_c, 8, 8192
10, 119974, Note_off_c, 8, 76, 0
10, 120028, Note_on_c, 8, 74, 127
10, 120523, Note_off_c, 8, 74, 0
10, 120565, Note_on_c, 8, 71, 122
10, 121804, Note_off_c, 8, 71, 0
10, 129896, Pitch_bend_c, 8, 8191
10, 129916, Pitch_bend_c, 8, 6605
10, 129936, Pitch_bend_c, 8, 4491
10, 129952, Pitch_bend_c, 8, 2113
10, 129961, Note_on_c, 8, 74, 127
10, 129972, Pitch_bend_c, 8, 792
10, 129996, Pitch_bend_c, 8, 264
10, 130012, Pitch_bend_c, 8, 792
10, 130031, Pitch_bend_c, 8, 2113
10, 130052, Pitch_bend_c, 8, 4491
10, 130073, Pitch_bend_c, 8, 6869
10, 130098, Pitch_bend_c, 8, 7926
10, 130113, Pitch_bend_c, 8, 8192
10, 130299, Control_c, 8, 1, 127
10, 130410, Control_c, 8, 1, 0
10, 130497, Note_off_c, 8, 74, 0
10, 130543, Note_on_c, 8, 71, 113
10, 130673, Note_off_c, 8, 71, 0
10, 130765, Note_on_c, 8, 69, 127
10, 130892, Note_off_c, 8, 69, 0
10, 131003, Pitch_bend_c, 8, 8191
10, 131008, Note_on_c, 8, 71, 127
10, 131023, Pitch_bend_c, 8, 7134
10, 131059, Pitch_bend_c, 8, 7662
10, 131079, Pitch_bend_c, 8, 8192
10, 131220, Note_on_c, 8, 69, 104
10, 131261, Note_off_c, 8, 71, 0
10, 131432, Note_off_c, 8, 69, 0
10, 131477, Note_on_c, 8, 66, 87
10, 131604, Note_off_c, 8, 66, 0
10, 131721, Note_on_c, 8, 71, 104
10, 132040, Note_off_c, 8, 71, 0
10, 132130, Pitch_bend_c, 8, 8191
10, 132150, Pitch_bend_c, 8, 7134
10, 132170, Note_on_c, 8, 71, 127
10, 132170, Pitch_bend_c, 8, 5812
10, 132195, Pitch_bend_c, 8, 5548
10, 132211, Pitch_bend_c, 8, 5812
10, 132232, Pitch_bend_c, 8, 6869
10, 132250, Pitch_bend_c, 8, 7926
10, 132272, Pitch_bend_c, 8, 8192
10, 132919, Note_off_c, 8, 71, 0
10, 133582, Note_on_c, 8, 75, 127
10, 133582, Note_on_c, 8, 78, 110
10, 133818, Control_c, 8, 11, 119
10, 133855, Control_c, 8, 11, 99
10, 133896, Control_c, 8, 11, 79
10, 133936, Control_c, 8, 11, 68
10, 133971, Control_c, 8, 11, 64
10, 134214, Control_c, 8, 11, 68
10, 134249, Control_c, 8, 11, 71
10, 134290, Control_c, 8, 11, 74
10, 134330, Control_c, 8, 11, 78
10, 134371, Control_c, 8, 11, 82
10, 134410, Control_c, 8, 11, 85
10, 134450, Control_c, 8, 11, 88
10, 134487, Control_c, 8, 11, 92
10, 134526, Control_c, 8, 11, 95
10, 134568, Control_c, 8, 11, 98
10, 134609, Control_c, 8, 11, 102
10, 134644, Control_c, 8, 11, 106
10, 134684, Control_c, 8, 11, 111
10, 134723, Control_c, 8, 11, 115
10, 134765, Control_c, 8, 11, 120
10, 134805, Control_c, 8, 11, 126
10, 135148, Note_off_c, 8, 78, 0
10, 135154, Note_off_c, 8, 75, 0
10, 135644, Note_on_c, 8, 71, 127
10, 135649, Note_on_c, 8, 69, 127
10, 135654, Note_on_c, 8, 64, 113
10, 135735, Note_off_c, 8, 69, 0
10, 135739, Note_off_c, 8, 71, 0
10, 135750, Note_off_c, 8, 64, 0
10, 136140, Note_on_c, 8, 69, 127
10, 136145, Note_on_c, 8, 71, 127
10, 136150, Note_on_c, 8, 64, 117
10, 136226, Note_off_c, 8, 71, 0
10, 136231, Note_off_c, 8, 69, 0
10, 136236, Note_off_c, 8, 64, 0
10, 136585, Note_on_c, 8, 69, 127
10, 136590, Note_on_c, 8, 64, 101
10, 136590, Note_on_c, 8, 71, 117
10, 136857, Control_c, 8, 11, 124
10, 136903, Control_c, 8, 11, 115
10, 136938, Control_c, 8, 11, 109
10, 136979, Control_c, 8, 11, 102
10, 137019, Control_c, 8, 11, 95
10, 137059, Control_c, 8, 11, 87
10, 137094, Control_c, 8, 11, 82
10, 137136, Control_c, 8, 11, 78
10, 137176, Control_c, 8, 11, 76
10, 137292, Control_c, 8, 11, 78
10, 137333, Control_c, 8, 11, 83
10, 137372, Control_c, 8, 11, 89
10, 137413, Control_c, 8, 11, 96
10, 137449, Control_c, 8, 11, 102
10, 137490, Control_c, 8, 11, 109
10, 137536, Control_c, 8, 11, 119
10, 137570, Control_c, 8, 11, 127
10, 137722, Note_off_c, 8, 69, 0
10, 137722, Note_off_c, 8, 71, 0
10, 137727, Note_off_c, 8, 64, 0
10, 141756, Pitch_bend_c, 8, 7398
10, 141777, Pitch_bend_c, 8, 2906
10, 141787, Note_on_c, 8, 78, 127
10, 141797, Pitch_bend_c, 8, 0
10, 141833, Pitch_bend_c, 8, 1585
10, 141853, Pitch_bend_c, 8, 5020
10, 141873, Pitch_bend_c, 8, 7134
10, 141894, Pitch_bend_c, 8, 8191
10, 141914, Pitch_bend_c, 8, 8192
10, 142212, Pitch_bend_c, 8, 7134
10, 142232, Pitch_bend_c, 8, 3699
10, 142251, Pitch_bend_c, 8, 2113
10, 142272, Pitch_bend_c, 8, 4227
10, 142293, Pitch_bend_c, 8, 6869
10, 142313, Pitch_bend_c, 8, 7926
10, 142333, Pitch_bend_c, 8, 8192
10, 142500, Note_off_c, 8, 78, 0
10, 142509, Note_on_c, 8, 76, 122
10, 142611, Pitch_bend_c, 8, 9777
10, 142632, Pitch_bend_c, 8, 10834
10, 142652, Pitch_bend_c, 8, 8984
10, 142667, Pitch_bend_c, 8, 8192
10, 143001, Note_on_c, 8, 74, 117
10, 143036, Note_off_c, 8, 76, 0
10, 143244, Note_off_c, 8, 74, 0
10, 143269, Note_on_c, 8, 71, 113
10, 143961, Note_off_c, 8, 71, 0
10, 164845, Note_on_c, 8, 69, 127
10, 165244, Note_off_c, 8, 69, 0
10, 165320, Note_on_c, 8, 69, 108
10, 165475, Note_off_c, 8, 69, 0
10, 165507, Pitch_bend_c, 8, 8191
10, 165525, Pitch_bend_c, 8, 5812
10, 165542, Pitch_bend_c, 8, 2378
10, 165563, Note_on_c, 8, 71, 127
10, 165567, Pitch_bend_c, 8, 1321
10, 165588, Pitch_bend_c, 8, 2113
10, 165608, Pitch_bend_c, 8, 4491
10, 165627, Pitch_bend_c, 8, 6869
10, 165643, Pitch_bend_c, 8, 7926
10, 165663, Pitch_bend_c, 8, 8192
10, 165986, Note_off_c, 8, 71, 0
10, 166046, Note_on_c, 8, 71, 108
10, 166199, Note_off_c, 8, 71, 0
10, 166260, Pitch_bend_c, 8, 7398
10, 166275, Note_on_c, 8, 71, 127
10, 166284, Pitch_bend_c, 8, 4227
10, 166308, Pitch_bend_c, 8, 2378
10, 166324, Pitch_bend_c, 8, 2906
10, 166340, Pitch_bend_c, 8, 5284
10, 166360, Pitch_bend_c, 8, 7134
10, 166386, Pitch_bend_c, 8, 8191
10, 166401, Pitch_bend_c, 8, 8192
10, 166708, Note_off_c, 8, 71, 0
10, 166759, Note_on_c, 8, 71, 127
10, 166885, Note_off_c, 8, 71, 0
10, 166999, Pitch_bend_c, 8, 7398
10, 167020, Pitch_bend_c, 8, 3963
10, 167036, Pitch_bend_c, 8, 1321
10, 167041, Note_on_c, 8, 74, 127
10, 167061, Pitch_bend_c, 8, 264
10, 167080, Pitch_bend_c, 8, 1056
10, 167096, Pitch_bend_c, 8, 3434
10, 167117, Pitch_bend_c, 8, 6341
10, 167137, Pitch_bend_c, 8, 7662
10, 167156, Pitch_bend_c, 8, 8192
10, 167399, Note_off_c, 8, 74, 0
10, 167471, Note_on_c, 8, 74, 122
10, 167632, Note_off_c, 8, 74, 0
10, 167678, Note_on_c, 8, 71, 127
10, 168092, Note_off_c, 8, 71, 0
10, 168193, Note_on_c, 8, 69, 104
10, 168379, Note_off_c, 8, 69, 0
10, 168431, Pitch_bend_c, 8, 6077
10, 168456, Note_on_c, 8, 71, 127
10, 168456, Pitch_bend_c, 8, 2642
10, 168471, Pitch_bend_c, 8, 792
10, 168487, Pitch_bend_c, 8, 1056
10, 168507, Pitch_bend_c, 8, 3170
10, 168527, Pitch_bend_c, 8, 6077
10, 168547, Pitch_bend_c, 8, 7662
10, 168568, Pitch_bend_c, 8, 8192
10, 168876, Note_off_c, 8, 71, 0
10, 168911, Note_on_c, 8, 69, 97
10, 169123, Note_on_c, 8, 71, 127
10, 169163, Note_off_c, 8, 69, 0
10, 169308, Note_off_c, 8, 71, 0
10, 169366, Note_on_c, 8, 71, 117
10, 169563, Note_off_c, 8, 71, 0
10, 169879, Pitch_bend_c, 8, 6869
10, 169899, Pitch_bend_c, 8, 4227
10, 169919, Pitch_bend_c, 8, 2113
10, 169925, Note_on_c, 8, 74, 127
10, 169966, Pitch_bend_c, 8, 3963
10, 169979, Pitch_bend_c, 8, 6077
10, 170000, Pitch_bend_c, 8, 7662
10, 170019, Pitch_bend_c, 8, 8192
10, 170297, Note_off_c, 8, 74, 0
10, 170319, Pitch_bend_c, 8, 8191
10, 170343, Pitch_bend_c, 8, 5284
10, 170359, Pitch_bend_c, 8, 2113
10, 170373, Note_on_c, 8, 74, 122
10, 170380, Pitch_bend_c, 8, 528
10, 170399, Pitch_bend_c, 8, 1585
10, 170420, Pitch_bend_c, 8, 4491
10, 170440, Pitch_bend_c, 8, 6869
10, 170460, Pitch_bend_c, 8, 7926
10, 170481, Pitch_bend_c, 8, 8192
10, 170622, Note_off_c, 8, 74, 0
10, 170641, Note_on_c, 8, 71, 127
10, 170995, Note_off_c, 8, 71, 0
10, 171091, Note_on_c, 8, 71, 127
10, 171295, Pitch_bend_c, 8, 6077
10, 171305, Note_off_c, 8, 71, 0
10, 171315, Pitch_bend_c, 8, 2378
10, 171335, Pitch_bend_c, 8, 264
10, 171354, Note_on_c, 8, 74, 127
10, 171354, Pitch_bend_c, 8, 528
10, 171374, Pitch_bend_c, 8, 2906
10, 171395, Pitch_bend_c, 8, 5812
10, 171416, Pitch_bend_c, 8, 7398
10, 171436, Pitch_bend_c, 8, 8191
10, 171451, Pitch_bend_c, 8, 8192
10, 171684, Note_off_c, 8, 74, 0
10, 171774, Note_on_c, 8, 74, 122
10, 172002, Note_off_c, 8, 74, 0
10, 172038, Note_on_c, 8, 71, 127
10, 172225, Note_off_c, 8, 71, 0
10, 172290, Note_on_c, 8, 86, 127
10, 172386, Pitch_bend_c, 8, 5548
10, 172407, Pitch_bend_c, 8, 1585
10, 172422, Pitch_bend_c, 8, 0
10, 172441, Pitch_bend_c, 8, 792
10, 172462, Pitch_bend_c, 8, 3699
10, 172483, Pitch_bend_c, 8, 6605
10, 172503, Pitch_bend_c, 8, 7926
10, 172523, Pitch_bend_c, 8, 8192
10, 172572, Note_on_c, 8, 83, 127
10, 172584, Note_on_c, 8, 81, 108
10, 172609, Note_off_c, 8, 86, 0
10, 172648, Note_off_c, 8, 81, 0
10, 172766, Note_off_c, 8, 83, 0
10, 181736, Pitch_bend_c, 8, 8191
10, 181756, Pitch_bend_c, 8, 6605
10, 181776, Pitch_bend_c, 8, 4491
10, 181792, Pitch_bend_c, 8, 2113
10, 181801, Note_on_c, 8, 74, 127
10, 181812, Pitch_bend_c, 8, 792
10, 181836, Pitch_bend_c, 8, 264
10, 181852, Pitch_bend_c, 8, 792
10, 181871, Pitch_bend_c, 8, 2113
10, 181892, Pitch_bend_c, 8, 4491
10, 181913, Pitch_bend_c, 8, 6869
10, 181938, Pitch_bend_c, 8, 7926
10, 181953, Pitch_bend_c, 8, 8192
10, 182139, Control_c, 8, 1, 127
10, 182250, Control_c, 8, 1, 0
10, 182337, Note_off_c, 8, 74, 0
10, 182383, Note_on_c, 8, 71, 113
10, 182513, Note_off_c, 8, 71, 0
10, 182605, Note_on_c, 8, 69, 127
10, 182732, Note_off_c, 8, 69, 0
10, 182843, Pitch_bend_c, 8, 8191
10, 182848, Note_on_c, 8, 71, 127
10, 182863, Pitch_bend_c, 8, 7134
10, 182899, Pitch_bend_c, 8, 7662
10, 182919, Pitch_bend_c, 8, 8192
10, 183060, Note_on_c, 8, 69, 104
10, 183101, Note_off_c, 8, 71, 0
10, 183272, Note_off_c, 8, 69, 0
10, 183317, Note_on_c, 8, 66, 87
10, 183444, Note_off_c, 8, 66, 0
10, 183561, Note_on_c, 8, 71, 104
10, 183880, Note_off_c, 8, 71, 0
10, 183970, Pitch_bend_c, 8, 8191
10, 183990, Pitch_bend_c, 8, 7134
10, 184010, Note_on_c, 8, 71, 127
10, 184010, Pitch_bend_c, 8, 5812
10, 184035, Pitch_bend_c, 8, 5548
10, 184051, Pitch_bend_c, 8, 5812
10, 184072, Pitch_bend_c, 8, 6869
10, 184090, Pitch_bend_c, 8, 7926
10, 184112, Pitch_bend_c, 8, 8192
10, 184759, Note_off_c, 8, 71, 0
10, 185422, Note_on_c, 8, 75, 127
10, 185422, Note_on_c, 8, 78, 110
10, 185658, Control_c, 8, 11, 119
10, 185695, Control_c, 8, 11, 99
10, 185736, Control_c, 8, 11, 79
10, 185776, Control_c, 8, 11, 68
10, 185811, Control_c, 8, 11, 64
10, 186054, Control_c, 8, 11, 68
10, 186089, Control_c, 8, 11, 71
10, 186130, Control_c, 8, 11, 74
10, 186170, Control_c, 8, 11, 78
10, 186211, Control_c, 8, 11, 82
10, 186250, Control_c, 8, 11, 85
10, 186290, Control_c, 8, 11, 88
10, 186327, Control_c, 8, 11, 92
10, 186366, Control_c, 8, 11, 95
10, 186408, Control_c, 8, 11, 98
10, 186449, Control_c, 8, 11, 102
10, 186484, Control_c, 8, 11, 106
10, 186524, Control_c, 8, 11, 111
10, 186563, Control_c, 8, 11, 115
10, 186605, Control_c, 8, 11, 120
10, 186645, Control_c, 8, 11, 126
10, 186988, Note_off_c, 8, 78, 0
10, 186994, Note_off_c, 8, 75, 0
10, 187484, Note_on_c, 8, 71, 127
10, 187489, Note_on_c, 8, 69, 127
10, 187494, Note_on_c, 8, 64, 113
10, 187575, Note_off_c, 8, 69, 0
10, 187579, Note_off_c, 8, 71, 0
10, 187590, Note_off_c, 8, 64, 0
10, 187980, Note_on_c, 8, 69, 127
10, 187985, Note_on_c, 8, 71, 127
10, 187990, Note_on_c, 8, 64, 117
10, 188066, Note_off_c, 8, 71, 0
10, 188071, Note_off_c, 8, 69, 0
10, 188076, Note_off_c, 8, 64, 0
10, 188425, Note_on_c, 8, 69, 127
10, 188430, Note_on_c, 8, 64, 101
10, 188430, Note_on_c, 8, 71, 117
10, 188697, Control_c, 8, 11, 124
10, 188743, Control_c, 8, 11, 115
10, 188778, Control_c, 8, 11, 109
10, 188819, Control_c, 8, 11, 102
10, 188859, Control_c, 8, 11, 95
10, 188899, Control_c, 8, 11, 87
10, 188934, Control_c, 8, 11, 82
10, 188976, Control_c, 8, 11, 78
10, 189016, Control_c, 8, 11, 76
10, 189132, Control_c, 8, 11, 78
10, 189173, Control_c, 8, 11, 83
10, 189212, Control_c, 8, 11, 89
10, 189253, Control_c, 8, 11, 96
10, 189289, Control_c, 8, 11, 102
10, 189330, Control_c, 8, 11, 109
10, 189376, Control_c, 8, 11, 119
10, 189410, Control_c, 8, 11, 127
10, 189562, Note_off_c, 8, 69, 0
10, 189562, Note_off_c, 8, 71, 0
10, 189567, Note_off_c, 8, 64, 0
10, 189987, Pitch_bend_c, 8, 7398
10, 190004, Note_on_c, 8, 76, 127
10, 190009, Pitch_bend_c, 8, 4227
10, 190029, Pitch_bend_c, 8, 2113
10, 190049, Pitch_bend_c, 8, 2378
10, 190070, Pitch_bend_c, 8, 4491
10, 190085, Pitch_bend_c, 8, 6869
10, 190109, Pitch_bend_c, 8, 7926
10, 190130, Pitch_bend_c, 8, 8192
10, 190464, Note_off_c, 8, 76, 0
10, 190509, Note_on_c, 8, 74, 127
10, 190705, Note_off_c, 8, 74, 0
10, 190761, Note_on_c, 8, 76, 127
10, 190767, Pitch_bend_c, 8, 6605
10, 190787, Pitch_bend_c, 8, 4491
10, 190823, Pitch_bend_c, 8, 6077
10, 190843, Pitch_bend_c, 8, 7662
10, 190868, Pitch_bend_c, 8, 8192
10, 191207, Note_on_c, 8, 74, 127
10, 191222, Note_off_c, 8, 76, 0
10, 191439, Note_off_c, 8, 74, 0
10, 191455, Pitch_bend_c, 8, 7926
10, 191474, Note_on_c, 8, 78, 127
10, 191480, Pitch_bend_c, 8, 4756
10, 191500, Pitch_bend_c, 8, 1056
10, 191514, Pitch_bend_c, 8, 528
10, 191534, Pitch_bend_c, 8, 2906
10, 191555, Pitch_bend_c, 8, 6077
10, 191576, Pitch_bend_c, 8, 7662
10, 191591, Pitch_bend_c, 8, 8192
10, 191990, Pitch_bend_c, 8, 8191
10, 192016, Pitch_bend_c, 8, 7398
10, 192030, Pitch_bend_c, 8, 7134
10, 192050, Pitch_bend_c, 8, 8191
10, 192070, Pitch_bend_c, 8, 8192
10, 192243, Note_on_c, 8, 76, 127
10, 192279, Note_off_c, 8, 78, 0
10, 192668, Pitch_bend_c, 8, 10834
10, 192682, Pitch_bend_c, 8, 14533
10, 192703, Pitch_bend_c, 8, 15061
10, 192723, Pitch_bend_c, 8, 11891
10, 192744, Pitch_bend_c, 8, 9248
10, 192764, Pitch_bend_c, 8, 8192
10, 192961, Note_on_c, 8, 74, 127
10, 192992, Note_off_c, 8, 76, 0
10, 193153, Note_off_c, 8, 74, 0
10, 193158, Note_on_c, 8, 71, 122
10, 193578, Note_off_c, 8, 71, 0
10, 193649, Note_on_c, 8, 71, 94
10, 193664, Note_on_c, 8, 66, 100
10, 194149, Note_off_c, 8, 66, 0
10, 194165, Note_off_c, 8, 71, 0
10, 194235, Note_on_c, 8, 66, 95
10, 194240, Note_on_c, 8, 71, 117
10, 194660, Note_off_c, 8, 71, 0
10, 194665, Note_off_c, 8, 66, 0
10, 194740, Note_on_c, 8, 66, 87
10, 194740, Note_on_c, 8, 71, 113
10, 195185, Note_off_c, 8, 71, 0
10, 195191, Note_off_c, 8, 66, 0
10, 195261, Note_on_c, 8, 66, 95
10, 195265, Note_on_c, 8, 71, 113
10, 195534, Note_off_c, 8, 71, 0
10, 195549, Note_off_c, 8, 66, 0
10, 195738, Pitch_bend_c, 8, 7662
10, 195755, Pitch_bend_c, 8, 4756
10, 195770, Note_on_c, 8, 75, 127
10, 195780, Pitch_bend_c, 8, 1849
10, 195795, Pitch_bend_c, 8, 792
10, 195815, Pitch_bend_c, 8, 1585
10, 195836, Pitch_bend_c, 8, 3963
10, 195856, Pitch_bend_c, 8, 6341
10, 195876, Pitch_bend_c, 8, 7662
10, 195896, Pitch_bend_c, 8, 8192
10, 196194, Note_off_c, 8, 75, 0
10, 196250, Note_on_c, 8, 75, 83
10, 196405, Note_off_c, 8, 75, 0
10, 196472, Pitch_bend_c, 8, 7662
10, 196493, Pitch_bend_c, 8, 4756
10, 196508, Note_on_c, 8, 75, 127
10, 196518, Pitch_bend_c, 8, 2378
10, 196533, Pitch_bend_c, 8, 2113
10, 196553, Pitch_bend_c, 8, 3699
10, 196573, Pitch_bend_c, 8, 6077
10, 196594, Pitch_bend_c, 8, 7662
10, 196614, Pitch_bend_c, 8, 8192
10, 196941, Note_off_c, 8, 75, 0
10, 197008, Note_on_c, 8, 75, 104
10, 197165, Note_off_c, 8, 75, 0
10, 197205, Pitch_bend_c, 8, 7134
10, 197226, Pitch_bend_c, 8, 3699
10, 197241, Note_on_c, 8, 75, 110
10, 197251, Pitch_bend_c, 8, 1321
10, 197291, Pitch_bend_c, 8, 3170
10, 197307, Pitch_bend_c, 8, 5812
10, 197327, Pitch_bend_c, 8, 7662
10, 197346, Pitch_bend_c, 8, 8191
10, 197367, Pitch_bend_c, 8, 8192
10, 197676, Note_off_c, 8, 75, 0
10, 197736, Note_on_c, 8, 75, 100
10, 197888, Note_off_c, 8, 75, 0
10, 197917, Pitch_bend_c, 8, 7662
10, 197938, Pitch_bend_c, 8, 5548
10, 197958, Pitch_bend_c, 8, 4227
10, 197974, Pitch_bend_c, 8, 4756
10, 197979, Note_on_c, 8, 75, 127
10, 197994, Pitch_bend_c, 8, 6605
10, 198014, Pitch_bend_c, 8, 7926
10, 198035, Pitch_bend_c, 8, 8192
10, 198398, Note_off_c, 8, 75, 0
10, 198469, Note_on_c, 8, 75, 104
10, 198636, Note_off_c, 8, 75, 0
10, 198702, Note_on_c, 8, 74, 127
10, 199116, Note_off_c, 8, 74, 0
10, 199192, Note_on_c, 8, 74, 122
10, 199349, Note_off_c, 8, 74, 0
10, 199444, Note_on_c, 8, 74, 127
10, 199900, Note_off_c, 8, 74, 0
10, 199905, Note_on_c, 8, 76, 127
10, 200087, Note_off_c, 8, 76, 0
10, 200142, Note_on_c, 8, 74, 127
10, 200153, Pitch_bend_c, 8, 7662
10, 200168, Pitch_bend_c, 8, 4756
10, 200188, Pitch_bend_c, 8, 2642
10, 200229, Pitch_bend_c, 8, 4227
10, 200248, Pitch_bend_c, 8, 6605
10, 200269, Pitch_bend_c, 8, 7926
10, 200289, Pitch_bend_c, 8, 8192
10, 200643, Note_on_c, 8, 76, 127
10, 200677, Note_off_c, 8, 74, 0
10, 200840, Note_off_c, 8, 76, 0
10, 200840, Pitch_bend_c, 8, 7926
10, 200865, Note_on_c, 8, 74, 127
10, 200865, Pitch_bend_c, 8, 3963
10, 200885, Pitch_bend_c, 8, 528
10, 200901, Pitch_bend_c, 8, 0
10, 200920, Pitch_bend_c, 8, 1056
10, 200941, Pitch_bend_c, 8, 4491
10, 200961, Pitch_bend_c, 8, 6869
10, 200977, Pitch_bend_c, 8, 7926
10, 200997, Pitch_bend_c, 8, 8192
10, 201083, Note_off_c, 8, 74, 0
10, 201097, Note_on_c, 8, 71, 127
10, 201425, Note_off_c, 8, 71, 0
10, 201507, Pitch_bend_c, 8, 7398
10, 201527, Pitch_bend_c, 8, 5812
10, 201569, Pitch_bend_c, 8, 7398
10, 201578, Note_on_c, 8, 69, 127
10, 201589, Pitch_bend_c, 8, 8191
10, 201603, Pitch_bend_c, 8, 8192
10, 202145, Note_off_c, 8, 69, 0
10, 202240, Note_on_c, 8, 69, 127
10, 202686, Note_off_c, 8, 69, 0
10, 202772, Note_on_c, 8, 69, 127
10, 202995, Pitch_bend_c, 8, 7926
10, 203004, Note_off_c, 8, 69, 0
10, 203015, Pitch_bend_c, 8, 5020
10, 203030, Note_on_c, 8, 78, 127
10, 203034, Pitch_bend_c, 8, 2378
10, 203055, Pitch_bend_c, 8, 1849
10, 203075, Pitch_bend_c, 8, 3699
10, 203091, Pitch_bend_c, 8, 6341
10, 203111, Pitch_bend_c, 8, 7662
10, 203131, Pitch_bend_c, 8, 8192
10, 203611, Note_off_c, 8, 78, 0
10, 203662, Note_on_c, 8, 76, 127
10, 203803, Pitch_bend_c, 8, 12948
10, 203822, Pitch_bend_c, 8, 16118
10, 203843, Pitch_bend_c, 8, 14797
10, 203864, Pitch_bend_c, 8, 11362
10, 203884, Pitch_bend_c, 8, 9248
10, 203904, Pitch_bend_c, 8, 8192
10, 204506, Note_on_c, 8, 74, 127
10, 204537, Note_off_c, 8, 76, 0
10, 204702, Note_off_c, 8, 74, 0
10, 204713, Note_on_c, 8, 71, 122
10, 205169, Note_off_c, 8, 71, 0
10, 205249, Note_on_c, 8, 71, 127
10, 205628, Note_off_c, 8, 71, 0
10, 205664, Note_on_c, 8, 69, 101
10, 205876, Note_off_c, 8, 69, 0
10, 205886, Note_on_c, 8, 71, 91
10, 206380, Note_off_c, 8, 71, 0
10, 207257, Pitch_bend_c, 8, 6869
10, 207274, Pitch_bend_c, 8, 4491
10, 207293, Pitch_bend_c, 8, 3170
10, 207298, Note_on_c, 8, 75, 127
10, 207314, Pitch_bend_c, 8, 3699
10, 207333, Pitch_bend_c, 8, 5812
10, 207353, Pitch_bend_c, 8, 7398
10, 207373, Pitch_bend_c, 8, 8191
10, 207395, Pitch_bend_c, 8, 8192
10, 207712, Note_off_c, 8, 75, 0
10, 207748, Note_on_c, 8, 76, 122
10, 207995, Note_off_c, 8, 76, 0
10, 208027, Note_on_c, 8, 78, 110
10, 208492, Note_on_c, 8, 80, 104
10, 208526, Note_off_c, 8, 78, 0
10, 208658, Note_off_c, 8, 80, 0
10, 208729, Note_on_c, 8, 81, 127
10, 208744, Pitch_bend_c, 8, 7134
10, 208765, Pitch_bend_c, 8, 4227
10, 208780, Pitch_bend_c, 8, 2378
10, 208799, Pitch_bend_c, 8, 2906
10, 208824, Pitch_bend_c, 8, 5548
10, 208841, Pitch_bend_c, 8, 7398
10, 208860, Pitch_bend_c, 8, 8191
10, 208881, Pitch_bend_c, 8, 8192
10, 208966, Note_on_c, 8, 80, 127
10, 208982, Note_off_c, 8, 81, 0
10, 209487, Note_off_c, 8, 80, 0
10, 209532, Note_on_c, 8, 78, 104
10, 209983, Note_off_c, 8, 78, 0
10, 210149, Pitch_bend_c, 8, 6605
10, 210169, Pitch_bend_c, 8, 4227
10, 210174, Note_on_c, 8, 76, 127
10, 210189, Pitch_bend_c, 8, 3170
10, 210215, Pitch_bend_c, 8, 3963
10, 210231, Pitch_bend_c, 8, 6077
10, 210250, Pitch_bend_c, 8, 7662
10, 210271, Pitch_bend_c, 8, 8192
10, 210614, Note_off_c, 8, 76, 0
10, 210650, Note_on_c, 8, 74, 122
10, 210822, Note_off_c, 8, 74, 0
10, 210888, Pitch_bend_c, 8, 7662
10, 210903, Note_on_c, 8, 76, 127
10, 210908, Pitch_bend_c, 8, 5812
10, 210923, Pitch_bend_c, 8, 5284
10, 210942, Pitch_bend_c, 8, 6341
10, 210964, Pitch_bend_c, 8, 7662
10, 210984, Pitch_bend_c, 8, 8192
10, 211367, Note_off_c, 8, 76, 0
10, 211373, Note_on_c, 8, 74, 127
10, 211596, Note_off_c, 8, 74, 0
10, 211605, Pitch_bend_c, 8, 7398
10, 211621, Pitch_bend_c, 8, 5020
10, 211636, Note_on_c, 8, 78, 127
10, 211641, Pitch_bend_c, 8, 3963
10, 211662, Pitch_bend_c, 8, 4756
10, 211682, Pitch_bend_c, 8, 6605
10, 211706, Pitch_bend_c, 8, 7926
10, 211722, Pitch_bend_c, 8, 8192
10, 211879, Note_off_c, 8, 78, 0
10, 211888, Note_on_c, 8, 71, 127
10, 212318, Note_off_c, 8, 71, 0
10, 212389, Note_on_c, 8, 71, 108
10, 212794, Note_off_c, 8, 71, 0
10, 213032, Pitch_bend_c, 8, 6341
10, 213052, Pitch_bend_c, 8, 5284
10, 213068, Pitch_bend_c, 8, 6077
10, 213082, Note_on_c, 8, 69, 127
10, 213088, Pitch_bend_c, 8, 7398
10, 213112, Pitch_bend_c, 8, 8191
10, 213127, Pitch_bend_c, 8, 8192
10, 213481, Note_off_c, 8, 69, 0
10, 213513, Note_on_c, 8, 71, 127
10, 213705, Note_off_c, 8, 71, 0
10, 213759, Note_on_c, 8, 74, 127
10, 214246, Note_off_c, 8, 74, 0
10, 214246, Note_on_c, 8, 71, 127
10, 214433, Note_off_c, 8, 71, 0
10, 214463, Pitch_bend_c, 8, 7134
10, 214482, Pitch_bend_c, 8, 3699
10, 214492, Note_on_c, 8, 76, 127
10, 214502, Pitch_bend_c, 8, 1849
10, 214519, Pitch_bend_c, 8, 3170
10, 214539, Pitch_bend_c, 8, 6077
10, 214559, Pitch_bend_c, 8, 7662
10, 214580, Pitch_bend_c, 8, 8192
10, 214801, Pitch_bend_c, 8, 10041
10, 214822, Pitch_bend_c, 8, 11626
10, 214842, Pitch_bend_c, 8, 11891
10, 214862, Pitch_bend_c, 8, 10305
10, 214877, Pitch_bend_c, 8, 8720
10, 214898, Pitch_bend_c, 8, 8192
10, 215140, Note_off_c, 8, 76, 0
10, 215241, Note_on_c, 8, 76, 127
10, 215377, Pitch_bend_c, 8, 8720
10, 215397, Pitch_bend_c, 8, 12155
10, 215418, Pitch_bend_c, 8, 14004
10, 215439, Pitch_bend_c, 8, 12419
10, 215459, Pitch_bend_c, 8, 9513
10, 215478, Pitch_bend_c, 8, 8192
10, 215793, Note_off_c, 8, 76, 0
10, 216013, Pitch_bend_c, 8, 7398
10, 216028, Pitch_bend_c, 8, 5812
10, 216054, Pitch_bend_c, 8, 5548
10, 216058, Note_on_c, 8, 74, 127
10, 216069, Pitch_bend_c, 8, 6869
10, 216089, Pitch_bend_c, 8, 7926
10, 216110, Pitch_bend_c, 8, 8192
10, 216250, Note_on_c, 8, 71, 127
10, 216281, Note_off_c, 8, 74, 0
10, 216639, Note_off_c, 8, 71, 0
10, 216726, Note_on_c, 8, 71, 127
10, 217091, Note_off_c, 8, 71, 0
10, 217155, Note_on_c, 8, 71, 113
10, 217160, Note_on_c, 8, 66, 76
10, 217596, Note_off_c, 8, 66, 0
10, 217600, Note_off_c, 8, 71, 0
10, 217640, Note_on_c, 8, 66, 80
10, 217646, Note_on_c, 8, 71, 117
10, 218075, Note_off_c, 8, 66, 0
10, 218091, Note_off_c, 8, 71, 0
10, 218142, Note_on_c, 8, 66, 100
10, 218142, Note_on_c, 8, 71, 122
10, 218526, Note_off_c, 8, 66, 0
10, 218541, Note_off_c, 8, 71, 0
10, 218592, Note_on_c, 8, 71, 117
10, 218602, Note_on_c, 8, 66, 100
10, 218789, Note_off_c, 8, 66, 0
10, 218799, Note_off_c, 8, 71, 0
10, 218818, Pitch_bend_c, 8, 7134
10, 218822, Note_on_c, 8, 83, 127
10, 218829, Note_on_c, 8, 78, 110
10, 218837, Pitch_bend_c, 8, 4756
10, 218859, Pitch_bend_c, 8, 2642
10, 218879, Pitch_bend_c, 8, 1849
10, 218894, Pitch_bend_c, 8, 2378
10, 218919, Pitch_bend_c, 8, 3434
10, 218940, Pitch_bend_c, 8, 5284
10, 218960, Pitch_bend_c, 8, 7134
10, 218980, Pitch_bend_c, 8, 8191
10, 218995, Pitch_bend_c, 8, 8192
10, 219272, Pitch_bend_c, 8, 7398
10, 219293, Pitch_bend_c, 8, 5812
10, 219313, Pitch_bend_c, 8, 4491
10, 219329, Pitch_bend_c, 8, 3963
10, 219354, Pitch_bend_c, 8, 4227
10, 219369, Pitch_bend_c, 8, 5020
10, 219390, Pitch_bend_c, 8, 6077
10, 219410, Pitch_bend_c, 8, 7398
10, 219434, Pitch_bend_c, 8, 8191
10, 219449, Pitch_bend_c, 8, 8192
10, 219688, Pitch_bend_c, 8, 7398
10, 219708, Pitch_bend_c, 8, 6077
10, 219727, Pitch_bend_c, 8, 5020
10, 219747, Pitch_bend_c, 8, 4756
10, 219789, Pitch_bend_c, 8, 5548
10, 219808, Pitch_bend_c, 8, 6341
10, 219829, Pitch_bend_c, 8, 7662
10, 219850, Pitch_bend_c, 8, 8191
10, 219870, Pitch_bend_c, 8, 8192
10, 220107, Pitch_bend_c, 8, 7134
10, 220126, Pitch_bend_c, 8, 5548
10, 220147, Pitch_bend_c, 8, 4491
10, 220168, Pitch_bend_c, 8, 3963
10, 220209, Pitch_bend_c, 8, 4491
10, 220229, Pitch_bend_c, 8, 5548
10, 220244, Pitch_bend_c, 8, 6605
10, 220264, Pitch_bend_c, 8, 7926
10, 220285, Pitch_bend_c, 8, 8192
10, 220724, Pitch_bend_c, 8, 7926
10, 220744, Pitch_bend_c, 8, 7662
10, 220820, Pitch_bend_c, 8, 8192
10, 220987, Pitch_bend_c, 8, 7662
10, 221002, Pitch_bend_c, 8, 7134
10, 221027, Pitch_bend_c, 8, 6869
10, 221042, Pitch_bend_c, 8, 7134
10, 221063, Pitch_bend_c, 8, 7926
10, 221083, Pitch_bend_c, 8, 8192
10, 221184, Pitch_bend_c, 8, 7926
10, 221204, Pitch_bend_c, 8, 6869
10, 221220, Pitch_bend_c, 8, 6077
10, 221260, Pitch_bend_c, 8, 6869
10, 221280, Pitch_bend_c, 8, 7926
10, 221300, Pitch_bend_c, 8, 8192
10, 221402, Pitch_bend_c, 8, 7398
10, 221422, Pitch_bend_c, 8, 6605
10, 221442, Pitch_bend_c, 8, 6077
10, 221462, Pitch_bend_c, 8, 6605
10, 221477, Pitch_bend_c, 8, 7926
10, 221501, Pitch_bend_c, 8, 8192
10, 221629, Note_off_c, 8, 83, 0
10, 221669, Note_off_c, 8, 78, 0
10, 221715, Note_on_c, 8, 81, 127
10, 222134, Pitch_bend_c, 8, 7926
10, 222155, Pitch_bend_c, 8, 7398
10, 222175, Pitch_bend_c, 8, 6869
10, 222195, Pitch_bend_c, 8, 6605
10, 222215, Pitch_bend_c, 8, 6869
10, 222236, Pitch_bend_c, 8, 7398
10, 222256, Pitch_bend_c, 8, 8191
10, 222276, Pitch_bend_c, 8, 8192
10, 222574, Pitch_bend_c, 8, 7926
10, 222598, Pitch_bend_c, 8, 7398
10, 222615, Pitch_bend_c, 8, 7134
10, 222635, Pitch_bend_c, 8, 7398
10, 222655, Pitch_bend_c, 8, 7926
10, 222675, Pitch_bend_c, 8, 8192
10, 222812, Pitch_bend_c, 8, 7926
10, 222832, Pitch_bend_c, 8, 6869
10, 222858, Pitch_bend_c, 8, 6341
10, 222893, Pitch_bend_c, 8, 7398
10, 222912, Pitch_bend_c, 8, 8191
10, 222933, Pitch_bend_c, 8, 8192
10, 223054, Pitch_bend_c, 8, 8191
10, 223070, Pitch_bend_c, 8, 7662
10, 223110, Pitch_bend_c, 8, 7926
10, 223130, Pitch_bend_c, 8, 8192
10, 223252, Pitch_bend_c, 8, 7926
10, 223272, Pitch_bend_c, 8, 6341
10, 223292, Pitch_bend_c, 8, 5548
10, 223312, Pitch_bend_c, 8, 5812
10, 223333, Pitch_bend_c, 8, 7134
10, 223353, Pitch_bend_c, 8, 8191
10, 223372, Pitch_bend_c, 8, 8192
10, 223894, Note_on_c, 8, 78, 95
10, 223919, Note_off_c, 8, 81, 0
10, 224122, Note_on_c, 8, 76, 91
10, 224131, Note_off_c, 8, 78, 0
10, 224333, Note_on_c, 8, 78, 95
10, 224359, Note_off_c, 8, 76, 0
10, 224449, Note_off_c, 8, 78, 0
10, 224654, Note_on_c, 8, 76, 127
10, 224784, Pitch_bend_c, 8, 6341
10, 224805, Pitch_bend_c, 8, 2378
10, 224825, Pitch_bend_c, 8, 264
10, 224866, Pitch_bend_c, 8, 2113
10, 224886, Pitch_bend_c, 8, 4491
10, 224906, Pitch_bend_c, 8, 6869
10, 224927, Pitch_bend_c, 8, 7926
10, 224942, Pitch_bend_c, 8, 8192
10, 225018, Note_off_c, 8, 76, 0
10, 225083, Note_on_c, 8, 76, 127
10, 225184, Pitch_bend_c, 8, 8191
10, 225200, Pitch_bend_c, 8, 7398
10, 225220, Pitch_bend_c, 8, 6869
10, 225280, Pitch_bend_c, 8, 7926
10, 225301, Pitch_bend_c, 8, 8192
10, 225462, Note_off_c, 8, 76, 0
10, 225528, Note_on_c, 8, 76, 122
10, 225599, Pitch_bend_c, 8, 8191
10, 225624, Pitch_bend_c, 8, 7134
10, 225644, Pitch_bend_c, 8, 6605
10, 225680, Pitch_bend_c, 8, 6869
10, 225700, Pitch_bend_c, 8, 7926
10, 225721, Pitch_bend_c, 8, 8192
10, 225927, Note_off_c, 8, 76, 0
10, 225998, Pitch_bend_c, 8, 6605
10, 226013, Note_on_c, 8, 76, 127
10, 226019, Pitch_bend_c, 8, 4491
10, 226038, Pitch_bend_c, 8, 3963
10, 226054, Pitch_bend_c, 8, 4756
10, 226074, Pitch_bend_c, 8, 6869
10, 226095, Pitch_bend_c, 8, 7926
10, 226115, Pitch_bend_c, 8, 8192
10, 226484, Note_off_c, 8, 76, 0
10, 226519, Note_on_c, 8, 74, 127
10, 226918, Note_off_c, 8, 74, 0
10, 226973, Note_on_c, 8, 71, 117
10, 227226, Note_off_c, 8, 71, 0
10, 227267, Note_on_c, 8, 69, 122
10, 227490, Note_off_c, 8, 69, 0
10, 227505, Note_on_c, 8, 74, 122
10, 227505, Pitch_bend_c, 8, 8191
10, 227530, Pitch_bend_c, 8, 5284
10, 227545, Pitch_bend_c, 8, 3434
10, 227565, Pitch_bend_c, 8, 3699
10, 227586, Pitch_bend_c, 8, 5812
10, 227606, Pitch_bend_c, 8, 7398
10, 227625, Pitch_bend_c, 8, 8191
10, 227646, Pitch_bend_c, 8, 8192
10, 227722, Note_on_c, 8, 71, 104
10, 227757, Note_off_c, 8, 74, 0
10, 228804, Note_off_c, 8, 71, 0
10, 230349, Pitch_bend_c, 8, 6869
10, 230368, Pitch_bend_c, 8, 3170
10, 230384, Note_on_c, 8, 71, 127
10, 230389, Pitch_bend_c, 8, 1321
10, 230430, Pitch_bend_c, 8, 3170
10, 230449, Pitch_bend_c, 8, 5812
10, 230470, Pitch_bend_c, 8, 7398
10, 230485, Pitch_bend_c, 8, 8191
10, 230505, Pitch_bend_c, 8, 8192
10, 230768, Note_off_c, 8, 71, 0
10, 230849, Note_on_c, 8, 71, 127
10, 231244, Note_off_c, 8, 71, 0
10, 231313, Note_on_c, 8, 71, 122
10, 231709, Note_off_c, 8, 71, 0
10, 231800, Pitch_bend_c, 8, 6077
10, 231810, Note_on_c, 8, 71, 127
10, 231820, Pitch_bend_c, 8, 2642
10, 231840, Pitch_bend_c, 8, 1585
10, 231860, Pitch_bend_c, 8, 2378
10, 231881, Pitch_bend_c, 8, 4491
10, 231900, Pitch_bend_c, 8, 6869
10, 231921, Pitch_bend_c, 8, 7926
10, 231941, Pitch_bend_c, 8, 8192
10, 232047, Note_on_c, 8, 74, 127
10, 232062, Note_off_c, 8, 71, 0
10, 232234, Note_off_c, 8, 74, 0
10, 232275, Note_on_c, 8, 69, 117
10, 232508, Note_off_c, 8, 69, 0
10, 232553, Note_on_c, 8, 71, 122
10, 233088, Note_off_c, 8, 71, 0
10, 233247, Note_on_c, 8, 71, 127
10, 233625, Note_off_c, 8, 71, 0
10, 233707, Note_on_c, 8, 71, 117
10, 234100, Note_off_c, 8, 71, 0
10, 234177, Note_on_c, 8, 71, 117
10, 234399, Note_off_c, 8, 71, 0
10, 234430, Note_on_c, 8, 74, 127
10, 234621, Pitch_bend_c, 8, 7926
10, 234642, Pitch_bend_c, 8, 4756
10, 234647, Note_off_c, 8, 74, 0
10, 234661, Pitch_bend_c, 8, 2113
10, 234676, Note_on_c, 8, 71, 127
10, 234682, Pitch_bend_c, 8, 1849
10, 234702, Pitch_bend_c, 8, 3170
10, 234723, Pitch_bend_c, 8, 5548
10, 234743, Pitch_bend_c, 8, 7398
10, 234763, Pitch_bend_c, 8, 8191
10, 234784, Pitch_bend_c, 8, 8192
10, 234885, Note_off_c, 8, 71, 0
10, 234914, Note_on_c, 8, 69, 113
10, 235425, Note_off_c, 8, 69, 0
10, 236101, Pitch_bend_c, 8, 6869
10, 236120, Pitch_bend_c, 8, 2642
10, 236131, Note_on_c, 8, 76, 127
10, 236141, Pitch_bend_c, 8, 264
10, 236177, Pitch_bend_c, 8, 2642
10, 236197, Pitch_bend_c, 8, 5812
10, 236217, Pitch_bend_c, 8, 7398
10, 236238, Pitch_bend_c, 8, 8191
10, 236257, Pitch_bend_c, 8, 8192
10, 237738, Note_off_c, 8, 76, 0
10, 237769, Note_on_c, 8, 71, 127
10, 237840, Pitch_bend_c, 8, 8456
10, 237860, Pitch_bend_c, 8, 14269
10, 237880, Pitch_bend_c, 8, 16383
10, 237920, Pitch_bend_c, 8, 12948
10, 237941, Pitch_bend_c, 8, 9777
10, 237960, Pitch_bend_c, 8, 8456
10, 237982, Pitch_bend_c, 8, 8192
10, 238103, Note_off_c, 8, 71, 0
10, 238108, Note_on_c, 8, 69, 122
10, 238285, Note_off_c, 8, 69, 0
10, 238304, Note_on_c, 8, 71, 127
10, 238851, Note_off_c, 8, 71, 0
10, 240915, Pitch_bend_c, 8, 6077
10, 240926, Note_on_c, 8, 78, 127
10, 240936, Pitch_bend_c, 8, 1849
10, 240951, Pitch_bend_c, 8, 0
10, 240972, Pitch_bend_c, 8, 528
10, 240992, Pitch_bend_c, 8, 3170
10, 241012, Pitch_bend_c, 8, 6341
10, 241036, Pitch_bend_c, 8, 7662
10, 241052, Pitch_bend_c, 8, 8192
10, 241164, Note_off_c, 8, 78, 0
10, 241184, Note_on_c, 8, 76, 127
10, 241351, Pitch_bend_c, 8, 11626
10, 241371, Pitch_bend_c, 8, 12683
10, 241391, Pitch_bend_c, 8, 10570
10, 241410, Pitch_bend_c, 8, 8720
10, 241432, Pitch_bend_c, 8, 8192
10, 241745, Note_off_c, 8, 76, 0
10, 241852, Pitch_bend_c, 8, 6605
10, 241872, Pitch_bend_c, 8, 3434
10, 241891, Pitch_bend_c, 8, 1056
10, 241908, Note_on_c, 8, 75, 127
10, 241912, Pitch_bend_c, 8, 792
10, 241920, Control_c, 8, 7, 120
10, 241937, Pitch_bend_c, 8, 1585
10, 241948, Pitch_bend_c, 8, 3170
10, 241968, Pitch_bend_c, 8, 5020
10, 241989, Pitch_bend_c, 8, 7134
10, 242009, Pitch_bend_c, 8, 8191
10, 242029, Pitch_bend_c, 8, 8192
10, 242332, Note_off_c, 8, 75, 0
10, 242358, Note_on_c, 8, 76, 127
10, 242530, Note_off_c, 8, 76, 0
10, 242565, Pitch_bend_c, 8, 8191
10, 242585, Pitch_bend_c, 8, 5284
10, 242595, Note_on_c, 8, 75, 127
10, 242604, Pitch_bend_c, 8, 2906
10, 242626, Pitch_bend_c, 8, 2378
10, 242641, Pitch_bend_c, 8, 3963
10, 242661, Pitch_bend_c, 8, 5812
10, 242681, Pitch_bend_c, 8, 7398
10, 242701, Pitch_bend_c, 8, 8191
10, 242727, Pitch_bend_c, 8, 8192
10, 243045, Note_off_c, 8, 75, 0
10, 243065, Note_on_c, 8, 76, 127
10, 243258, Pitch_bend_c, 8, 7398
10, 243262, Note_off_c, 8, 76, 0
10, 243278, Pitch_bend_c, 8, 3699
10, 243306, Pitch_bend_c, 8, 528
10, 243318, Pitch_bend_c, 8, 264
10, 243323, Note_on_c, 8, 75, 127
10, 243337, Pitch_bend_c, 8, 1849
10, 243359, Pitch_bend_c, 8, 5284
10, 243379, Pitch_bend_c, 8, 7134
10, 243399, Pitch_bend_c, 8, 8191
10, 243419, Pitch_bend_c, 8, 8192
10, 243707, Note_off_c, 8, 75, 0
10, 243728, Note_on_c, 8, 73, 110
10, 243819, Pitch_bend_c, 8, 10041
10, 243833, Pitch_bend_c, 8, 14269
10, 243853, Pitch_bend_c, 8, 15590
10, 243874, Pitch_bend_c, 8, 13212
10, 243893, Pitch_bend_c, 8, 10041
10, 243910, Pitch_bend_c, 8, 8456
10, 243930, Pitch_bend_c, 8, 8192
10, 244056, Note_off_c, 8, 73, 0
10, 244061, Note_on_c, 8, 71, 127
10, 244491, Note_off_c, 8, 71, 0
10, 244572, Note_on_c, 8, 71, 127
10, 244774, Note_off_c, 8, 71, 0
10, 244815, Note_on_c, 8, 69, 127
10, 244870, Pitch_bend_c, 8, 5284
10, 244890, Pitch_bend_c, 8, 1849
10, 244909, Pitch_bend_c, 8, 792
10, 244930, Pitch_bend_c, 8, 1849
10, 244951, Pitch_bend_c, 8, 4756
10, 244971, Pitch_bend_c, 8, 6869
10, 244986, Pitch_bend_c, 8, 7926
10, 245007, Pitch_bend_c, 8, 8192
10, 245254, Note_off_c, 8, 69, 0
10, 245254, Note_on_c, 8, 71, 127
10, 245472, Note_off_c, 8, 71, 0
10, 245507, Note_on_c, 8, 69, 127
10, 245932, Note_off_c, 8, 69, 0
10, 245966, Note_on_c, 8, 71, 127
10, 246190, Note_off_c, 8, 71, 0
10, 246200, Note_on_c, 8, 69, 127
10, 246574, Note_off_c, 8, 69, 0
10, 246619, Note_on_c, 8, 71, 127
10, 246837, Pitch_bend_c, 8, 7398
10, 246857, Pitch_bend_c, 8, 3170
10, 246867, Note_off_c, 8, 71, 0
10, 246877, Pitch_bend_c, 8, 264
10, 246882, Note_on_c, 8, 74, 127
10, 246917, Pitch_bend_c, 8, 2906
10, 246937, Pitch_bend_c, 8, 6077
10, 246958, Pitch_bend_c, 8, 7662
10, 246978, Pitch_bend_c, 8, 8191
10, 246998, Pitch_bend_c, 8, 8192
10, 247104, Note_on_c, 8, 71, 127
10, 247125, Note_off_c, 8, 74, 0
10, 247463, Note_off_c, 8, 71, 0
10, 247515, Note_on_c, 8, 76, 127
10, 247550, Pitch_bend_c, 8, 9513
10, 247575, Pitch_bend_c, 8, 14797
10, 247591, Pitch_bend_c, 8, 16118
10, 247611, Pitch_bend_c, 8, 14533
10, 247631, Pitch_bend_c, 8, 11098
10, 247650, Pitch_bend_c, 8, 8984
10, 247672, Pitch_bend_c, 8, 8192
10, 248237, Note_off_c, 8, 76, 0
10, 248339, Note_on_c, 8, 76, 127
10, 248778, Note_off_c, 8, 76, 0
10, 248809, Note_on_c, 8, 74, 127
10, 248976, Note_off_c, 8, 74, 0
10, 249047, Note_on_c, 8, 78, 127
10, 249047, Pitch_bend_c, 8, 6869
10, 249067, Pitch_bend_c, 8, 3963
10, 249087, Pitch_bend_c, 8, 2906
10, 249102, Pitch_bend_c, 8, 3170
10, 249122, Pitch_bend_c, 8, 4756
10, 249141, Pitch_bend_c, 8, 6605
10, 249162, Pitch_bend_c, 8, 7926
10, 249183, Pitch_bend_c, 8, 8192
10, 249719, Note_off_c, 8, 78, 0
10, 249759, Pitch_bend_c, 8, 7398
10, 249780, Pitch_bend_c, 8, 3699
10, 249800, Pitch_bend_c, 8, 1056
10, 249804, Note_on_c, 8, 78, 127
10, 249820, Pitch_bend_c, 8, 528
10, 249839, Pitch_bend_c, 8, 1585
10, 249860, Pitch_bend_c, 8, 3170
10, 249881, Pitch_bend_c, 8, 6077
10, 249901, Pitch_bend_c, 8, 7662
10, 249921, Pitch_bend_c, 8, 8191
10, 249941, Pitch_bend_c, 8, 8192
10, 250391, Note_off_c, 8, 78, 0
10, 250477, Pitch_bend_c, 8, 4756
10, 250496, Note_on_c, 8, 78, 127
10, 250516, Pitch_bend_c, 8, 0
10, 250537, Pitch_bend_c, 8, 1056
10, 250557, Pitch_bend_c, 8, 3699
10, 250578, Pitch_bend_c, 8, 6341
10, 250597, Pitch_bend_c, 8, 7662
10, 250619, Pitch_bend_c, 8, 8192
10, 251574, Control_c, 8, 1, 127
10, 251832, Control_c, 8, 1, 0
10, 251923, Note_off_c, 8, 78, 0
10, 251964, Note_on_c, 8, 74, 127
10, 252166, Note_off_c, 8, 74, 0
10, 252211, Note_on_c, 8, 71, 113
10, 252378, Note_off_c, 8, 71, 0
10, 252439, Note_on_c, 8, 69, 108
10, 252646, Note_off_c, 8, 69, 0
10, 252691, Note_on_c, 8, 71, 94
10, 252873, Note_off_c, 8, 71, 0
10, 253318, Pitch_bend_c, 8, 6341
10, 253338, Pitch_bend_c, 8, 2642
10, 253360, Pitch_bend_c, 8, 264
10, 253364, Note_on_c, 8, 74, 127
10, 253380, Pitch_bend_c, 8, 0
10, 253399, Pitch_bend_c, 8, 1585
10, 253420, Pitch_bend_c, 8, 4756
10, 253440, Pitch_bend_c, 8, 7134
10, 253460, Pitch_bend_c, 8, 8191
10, 253481, Pitch_bend_c, 8, 8192
10, 253717, Note_off_c, 8, 74, 0
10, 253849, Note_on_c, 8, 71, 127
10, 254274, Note_off_c, 8, 71, 0
10, 254391, Note_on_c, 8, 71, 127
10, 254810, Note_off_c, 8, 71, 0
10, 254815, Pitch_bend_c, 8, 6869
10, 254830, Pitch_bend_c, 8, 2642
10, 254851, Pitch_bend_c, 8, 0
10, 254861, Note_on_c, 8, 83, 127
10, 254895, Pitch_bend_c, 8, 1056
10, 254916, Pitch_bend_c, 8, 4491
10, 254931, Pitch_bend_c, 8, 6869
10, 254952, Pitch_bend_c, 8, 7926
10, 254972, Pitch_bend_c, 8, 8192
10, 255255, Note_off_c, 8, 83, 0
10, 255375, Note_on_c, 8, 83, 127
10, 255756, Note_off_c, 8, 83, 0
10, 255871, Note_on_c, 8, 83, 127
10, 256221, Note_off_c, 8, 83, 0
10, 256296, Note_on_c, 8, 84, 127
10, 256332, Pitch_bend_c, 8, 8984
10, 256351, Pitch_bend_c, 8, 11098
10, 256367, Pitch_bend_c, 8, 12948
10, 256392, Pitch_bend_c, 8, 14533
10, 256411, Pitch_bend_c, 8, 15854
10, 256427, Pitch_bend_c, 8, 16383
10, 257422, Pitch_bend_c, 8, 16118
10, 257443, Pitch_bend_c, 8, 15590
10, 257464, Pitch_bend_c, 8, 15061
10, 257483, Pitch_bend_c, 8, 14269
10, 257503, Pitch_bend_c, 8, 13476
10, 257523, Pitch_bend_c, 8, 12948
10, 257544, Pitch_bend_c, 8, 11891
10, 257564, Pitch_bend_c, 8, 10834
10, 257580, Pitch_bend_c, 8, 9777
10, 257604, Pitch_bend_c, 8, 8456
10, 257624, Pitch_bend_c, 8, 8192
10, 257725, Note_off_c, 8, 84, 0
10, 257766, Note_on_c, 8, 83, 127
10, 257948, Note_off_c, 8, 83, 0
10, 257958, Note_on_c, 8, 81, 127
10, 258171, Note_off_c, 8, 81, 0
10, 258398, Note_on_c, 8, 81, 127
10, 258999, Note_off_c, 8, 81, 0
10, 259159, Note_on_c, 8, 81, 127
10, 259289, Note_off_c, 8, 81, 0
10, 259608, Note_on_c, 8, 81, 127
10, 259750, Note_off_c, 8, 81, 0
10, 260108, Note_on_c, 8, 81, 127
10, 260230, Note_off_c, 8, 81, 0
10, 260593, Note_on_c, 8, 81, 127
10, 260746, Note_off_c, 8, 81, 0
10, 260867, Note_on_c, 8, 81, 127
10, 260983, Note_off_c, 8, 81, 0
10, 261105, Note_on_c, 8, 81, 127
10, 261226, Note_off_c, 8, 81, 0
10, 261332, Note_on_c, 8, 81, 127
10, 261473, Note_off_c, 8, 81, 0
10, 261575, Note_on_c, 8, 81, 122
10, 261700, Note_off_c, 8, 81, 0
10, 261807, Note_on_c, 8, 81, 122
10, 261939, Note_off_c, 8, 81, 0
10, 262059, Note_on_c, 8, 81, 127
10, 262216, Note_off_c, 8, 81, 0
10, 262514, Note_on_c, 8, 81, 127
10, 262681, Note_off_c, 8, 81, 0
10, 262965, Note_on_c, 8, 81, 127
10, 263181, Note_off_c, 8, 81, 0
10, 263324, Pitch_bend_c, 8, 8191
10, 263333, Note_on_c, 8, 83, 127
10, 263344, Pitch_bend_c, 8, 4756
10, 263363, Pitch_bend_c, 8, 792
10, 263385, Pitch_bend_c, 8, 0
10, 263405, Pitch_bend_c, 8, 1056
10, 263424, Pitch_bend_c, 8, 4491
10, 263444, Pitch_bend_c, 8, 6869
10, 263461, Pitch_bend_c, 8, 7926
10, 263481, Pitch_bend_c, 8, 8192
10, 263779, Pitch_bend_c, 8, 10041
10, 263799, Pitch_bend_c, 8, 13476
10, 263818, Pitch_bend_c, 8, 14004
10, 263841, Pitch_bend_c, 8, 11626
10, 263860, Pitch_bend_c, 8, 9248
10, 263879, Pitch_bend_c, 8, 8192
10, 264143, Note_on_c, 8, 81, 127
10, 264158, Note_off_c, 8, 83, 0
10, 264659, Note_off_c, 8, 81, 0
10, 264901, Pitch_bend_c, 8, 6605
10, 264920, Pitch_bend_c, 8, 3699
10, 264925, Note_on_c, 8, 83, 127
10, 264936, Pitch_bend_c, 8, 1849
10, 264960, Control_c, 8, 7, 90
10, 264976, Pitch_bend_c, 8, 3170
10, 264997, Pitch_bend_c, 8, 5812
10, 265018, Pitch_bend_c, 8, 7398
10, 265037, Pitch_bend_c, 8, 8191
10, 265058, Pitch_bend_c, 8, 8192
10, 265306, Note_off_c, 8, 83, 0
10, 265392, Note_on_c, 8, 83, 122
10, 265517, Note_off_c, 8, 83, 0
10, 265609, Pitch_bend_c, 8, 7398
10, 265614, Note_on_c, 8, 83, 127
10, 265629, Pitch_bend_c, 8, 5284
10, 265648, Pitch_bend_c, 8, 4491
10, 265670, Pitch_bend_c, 8, 5020
10, 265690, Pitch_bend_c, 8, 6605
10, 265710, Pitch_bend_c, 8, 7926
10, 265731, Pitch_bend_c, 8, 8192
10, 265993, Note_off_c, 8, 83, 0
10, 266089, Note_on_c, 8, 83, 127
10, 266231, Note_off_c, 8, 83, 0
10, 266326, Pitch_bend_c, 8, 5812
10, 266331, Note_on_c, 8, 83, 127
10, 266347, Pitch_bend_c, 8, 3699
10, 266367, Pitch_bend_c, 8, 3170
10, 266386, Pitch_bend_c, 8, 4491
10, 266407, Pitch_bend_c, 8, 6341
10, 266427, Pitch_bend_c, 8, 7662
10, 266448, Pitch_bend_c, 8, 8192
10, 266730, Note_off_c, 8, 83, 0
10, 266822, Note_on_c, 8, 83, 127
10, 266974, Note_off_c, 8, 83, 0
10, 267040, Pitch_bend_c, 8, 6077
10, 267059, Pitch_bend_c, 8, 3434
10, 267070, Note_on_c, 8, 83, 127
10, 267080, Pitch_bend_c, 8, 2906
10, 267100, Pitch_bend_c, 8, 3963
10, 267126, Pitch_bend_c, 8, 6077
10, 267141, Pitch_bend_c, 8, 7662
10, 267161, Pitch_bend_c, 8, 8192
10, 267397, Note_off_c, 8, 83, 0
10, 267485, Note_on_c, 8, 83, 122
10, 267651, Note_off_c, 8, 83, 0
10, 267741, Note_on_c, 8, 76, 127
10, 268056, Pitch_bend_c, 8, 10834
10, 268076, Pitch_bend_c, 8, 15326
10, 268096, Pitch_bend_c, 8, 16383
10, 268115, Pitch_bend_c, 8, 14533
10, 268137, Pitch_bend_c, 8, 11098
10, 268156, Pitch_bend_c, 8, 8984
10, 268177, Pitch_bend_c, 8, 8192
10, 268303, Note_on_c, 8, 74, 127
10, 268319, Note_off_c, 8, 76, 0
10, 268516, Note_on_c, 8, 76, 127
10, 268556, Note_off_c, 8, 74, 0
10, 268954, Note_on_c, 8, 78, 104
10, 268981, Note_off_c, 8, 76, 0
10, 269136, Pitch_bend_c, 8, 8191
10, 269147, Pitch_bend_c, 8, 4491
10, 269163, Note_off_c, 8, 78, 0
10, 269173, Pitch_bend_c, 8, 792
10, 269192, Note_on_c, 8, 76, 127
10, 269192, Pitch_bend_c, 8, 0
10, 269208, Pitch_bend_c, 8, 1849
10, 269229, Pitch_bend_c, 8, 5020
10, 269249, Pitch_bend_c, 8, 7134
10, 269268, Pitch_bend_c, 8, 8191
10, 269293, Pitch_bend_c, 8, 8192
10, 269431, Note_on_c, 8, 74, 127
10, 269471, Note_off_c, 8, 76, 0
10, 269633, Note_off_c, 8, 74, 0
10, 269653, Note_on_c, 8, 71, 127
10, 270113, Note_off_c, 8, 71, 0
10, 270726, Note_on_c, 8, 76, 127
10, 270853, Note_off_c, 8, 76, 0
10, 270938, Note_on_c, 8, 76, 113
10, 271121, Note_off_c, 8, 76, 0
10, 271156, Note_on_c, 8, 74, 127
10, 271328, Note_off_c, 8, 74, 0
10, 271383, Note_on_c, 8, 76, 127
10, 271778, Note_off_c, 8, 76, 0
10, 271809, Note_on_c, 8, 78, 104
10, 272011, Note_off_c, 8, 78, 0
10, 272081, Pitch_bend_c, 8, 8191
10, 272086, Note_on_c, 8, 81, 127
10, 272102, Pitch_bend_c, 8, 5812
10, 272122, Pitch_bend_c, 8, 3170
10, 272142, Pitch_bend_c, 8, 2378
10, 272157, Pitch_bend_c, 8, 3963
10, 272176, Pitch_bend_c, 8, 6341
10, 272197, Pitch_bend_c, 8, 7662
10, 272222, Pitch_bend_c, 8, 8192
10, 272228, Note_off_c, 8, 81, 0
10, 272310, Note_on_c, 8, 81, 127
10, 272517, Note_off_c, 8, 81, 0
10, 272541, Note_on_c, 8, 78, 110
10, 272778, Note_on_c, 8, 81, 127
10, 272793, Note_off_c, 8, 78, 0
10, 273017, Note_off_c, 8, 81, 0
10, 273052, Note_on_c, 8, 83, 122
10, 273436, Note_off_c, 8, 83, 0
10, 273564, Pitch_bend_c, 8, 6341
10, 273573, Note_on_c, 8, 78, 127
10, 273584, Pitch_bend_c, 8, 4227
10, 273604, Pitch_bend_c, 8, 3434
10, 273625, Pitch_bend_c, 8, 4756
10, 273644, Pitch_bend_c, 8, 6869
10, 273665, Pitch_bend_c, 8, 7926
10, 273685, Pitch_bend_c, 8, 8192
10, 274038, Pitch_bend_c, 8, 7926
10, 274058, Pitch_bend_c, 8, 5548
10, 274079, Pitch_bend_c, 8, 3434
10, 274098, Pitch_bend_c, 8, 2906
10, 274119, Pitch_bend_c, 8, 3434
10, 274140, Pitch_bend_c, 8, 5020
10, 274160, Pitch_bend_c, 8, 7134
10, 274181, Pitch_bend_c, 8, 8191
10, 274200, Pitch_bend_c, 8, 8192
10, 274477, Pitch_bend_c, 8, 7926
10, 274503, Pitch_bend_c, 8, 5020
10, 274518, Pitch_bend_c, 8, 2906
10, 274538, Pitch_bend_c, 8, 2642
10, 274560, Pitch_bend_c, 8, 4227
10, 274578, Pitch_bend_c, 8, 6341
10, 274600, Pitch_bend_c, 8, 7662
10, 274615, Pitch_bend_c, 8, 8192
10, 274908, Note_off_c, 8, 78, 0
10, 274954, Note_on_c, 8, 76, 127
10, 275434, Pitch_bend_c, 8, 5020
10, 275440, Note_on_c, 8, 78, 110
10, 275453, Pitch_bend_c, 8, 1321
10, 275473, Pitch_bend_c, 8, 0
10, 275478, Note_off_c, 8, 76, 0
10, 275515, Pitch_bend_c, 8, 2642
10, 275535, Pitch_bend_c, 8, 6077
10, 275556, Pitch_bend_c, 8, 7662
10, 275576, Pitch_bend_c, 8, 8192
10, 275662, Note_on_c, 8, 76, 127
10, 275702, Note_off_c, 8, 78, 0
10, 275915, Note_on_c, 8, 74, 113
10, 275945, Note_off_c, 8, 76, 0
10, 276132, Note_off_c, 8, 74, 0
10, 276162, Note_on_c, 8, 71, 104
10, 276398, Note_off_c, 8, 71, 0
10, 276408, Pitch_bend_c, 8, 6341
10, 276413, Note_on_c, 8, 75, 127
10, 276427, Pitch_bend_c, 8, 4491
10, 276449, Pitch_bend_c, 8, 3963
10, 276464, Pitch_bend_c, 8, 5020
10, 276484, Pitch_bend_c, 8, 6869
10, 276504, Pitch_bend_c, 8, 7926
10, 276524, Pitch_bend_c, 8, 8192
10, 276772, Note_off_c, 8, 75, 0
10, 276857, Note_on_c, 8, 76, 127
10, 277050, Note_off_c, 8, 76, 0
10, 277121, Pitch_bend_c, 8, 8191
10, 277131, Note_on_c, 8, 75, 127
10, 277141, Pitch_bend_c, 8, 6077
10, 277161, Pitch_bend_c, 8, 4756
10, 277181, Pitch_bend_c, 8, 5020
10, 277197, Pitch_bend_c, 8, 6341
10, 277222, Pitch_bend_c, 8, 7662
10, 277237, Pitch_bend_c, 8, 8192
10, 277565, Note_off_c, 8, 75, 0
10, 277586, Note_on_c, 8, 76, 127
10, 277813, Note_off_c, 8, 76, 0
10, 277859, Note_on_c, 8, 75, 127
10, 277859, Pitch_bend_c, 8, 7662
10, 277879, Pitch_bend_c, 8, 5020
10, 277894, Pitch_bend_c, 8, 3170
10, 277935, Pitch_bend_c, 8, 5020
10, 277954, Pitch_bend_c, 8, 7134
10, 277975, Pitch_bend_c, 8, 7926
10, 277995, Pitch_bend_c, 8, 8192
10, 278117, Note_on_c, 8, 73, 110
10, 278147, Note_off_c, 8, 75, 0
10, 278293, Note_off_c, 8, 73, 0
10, 278344, Note_on_c, 8, 71, 122
10, 278794, Note_off_c, 8, 71, 0
10, 279099, Note_on_c, 8, 71, 127
10, 279276, Note_off_c, 8, 71, 0
10, 279322, Pitch_bend_c, 8, 7662
10, 279332, Note_on_c, 8, 74, 127
10, 279342, Pitch_bend_c, 8, 4756
10, 279362, Pitch_bend_c, 8, 2378
10, 279381, Pitch_bend_c, 8, 1849
10, 279397, Pitch_bend_c, 8, 3170
10, 279418, Pitch_bend_c, 8, 5548
10, 279438, Pitch_bend_c, 8, 7398
10, 279458, Pitch_bend_c, 8, 8191
10, 279478, Pitch_bend_c, 8, 8192
10, 279756, Note_off_c, 8, 74, 0
10, 279801, Note_on_c, 8, 76, 127
10, 279994, Note_off_c, 8, 76, 0
10, 280054, Pitch_bend_c, 8, 6869
10, 280060, Note_on_c, 8, 74, 127
10, 280075, Pitch_bend_c, 8, 4491
10, 280095, Pitch_bend_c, 8, 3699
10, 280115, Pitch_bend_c, 8, 4491
10, 280135, Pitch_bend_c, 8, 6605
10, 280156, Pitch_bend_c, 8, 7662
10, 280176, Pitch_bend_c, 8, 8192
10, 280464, Note_off_c, 8, 74, 0
10, 280503, Note_on_c, 8, 76, 127
10, 280747, Pitch_bend_c, 8, 8191
10, 280766, Note_off_c, 8, 76, 0
10, 280772, Pitch_bend_c, 8, 6605
10, 280778, Note_on_c, 8, 74, 127
10, 280793, Pitch_bend_c, 8, 5284
10, 280813, Pitch_bend_c, 8, 5020
10, 280828, Pitch_bend_c, 8, 6077
10, 280847, Pitch_bend_c, 8, 7398
10, 280867, Pitch_bend_c, 8, 8191
10, 280889, Pitch_bend_c, 8, 8192
10, 281010, Note_on_c, 8, 73, 104
10, 281036, Note_off_c, 8, 74, 0
10, 281187, Note_off_c, 8, 73, 0
10, 281226, Note_on_c, 8, 71, 117
10, 281747, Note_off_c, 8, 71, 0
10, 282164, Note_on_c, 8, 76, 127
10, 282508, Pitch_bend_c, 8, 11626
10, 282523, Pitch_bend_c, 8, 15590
10, 282543, Pitch_bend_c, 8, 16383
10, 282563, Pitch_bend_c, 8, 15590
10, 282583, Pitch_bend_c, 8, 12419
10, 282602, Pitch_bend_c, 8, 9777
10, 282624, Pitch_bend_c, 8, 8456
10, 282639, Pitch_bend_c, 8, 8192
10, 282720, Note_off_c, 8, 76, 0
10, 282720, Note_on_c, 8, 74, 127
10, 282897, Note_off_c, 8, 74, 0
10, 282942, Note_on_c, 8, 76, 127
10, 283185, Pitch_bend_c, 8, 10834
10, 283199, Pitch_bend_c, 8, 14797
10, 283221, Pitch_bend_c, 8, 16383
10, 283240, Pitch_bend_c, 8, 14797
10, 283260, Pitch_bend_c, 8, 11362
10, 283276, Pitch_bend_c, 8, 9248
10, 283300, Pitch_bend_c, 8, 8192
10, 283423, Note_off_c, 8, 76, 0
10, 283427, Note_on_c, 8, 74, 127
10, 283655, Pitch_bend_c, 8, 7662
10, 283660, Note_off_c, 8, 74, 0
10, 283675, Pitch_bend_c, 8, 4227
10, 283681, Note_on_c, 8, 83, 127
10, 283699, Pitch_bend_c, 8, 1056
10, 283716, Pitch_bend_c, 8, 792
10, 283736, Pitch_bend_c, 8, 3434
10, 283751, Pitch_bend_c, 8, 6341
10, 283776, Pitch_bend_c, 8, 7662
10, 283791, Pitch_bend_c, 8, 8192
10, 284246, Note_off_c, 8, 83, 0
10, 284348, Note_on_c, 8, 83, 127
10, 284367, Pitch_bend_c, 8, 6077
10, 284387, Pitch_bend_c, 8, 1849
10, 284409, Pitch_bend_c, 8, 0
10, 284449, Pitch_bend_c, 8, 1321
10, 284468, Pitch_bend_c, 8, 3699
10, 284489, Pitch_bend_c, 8, 6605
10, 284509, Pitch_bend_c, 8, 7926
10, 284524, Pitch_bend_c, 8, 8192
10, 285005, Note_off_c, 8, 83, 0
10, 285045, Pitch_bend_c, 8, 6341
10, 285060, Pitch_bend_c, 8, 2642
10, 285080, Pitch_bend_c, 8, 1321
10, 285086, Note_on_c, 8, 83, 127
10, 285101, Pitch_bend_c, 8, 2113
10, 285122, Pitch_bend_c, 8, 3963
10, 285140, Pitch_bend_c, 8, 6341
10, 285161, Pitch_bend_c, 8, 7662
10, 285182, Pitch_bend_c, 8, 8192
10, 285525, Note_off_c, 8, 83, 0
10, 285541, Pitch_bend_c, 8, 7134
10, 285556, Pitch_bend_c, 8, 2906
10, 285571, Note_on_c, 8, 83, 117
10, 285576, Pitch_bend_c, 8, 528
10, 285597, Pitch_bend_c, 8, 792
10, 285617, Pitch_bend_c, 8, 2378
10, 285637, Pitch_bend_c, 8, 4756
10, 285657, Pitch_bend_c, 8, 7134
10, 285677, Pitch_bend_c, 8, 8191
10, 285692, Pitch_bend_c, 8, 8192
10, 285965, Note_off_c, 8, 83, 0
10, 285975, Pitch_bend_c, 8, 5812
10, 285990, Pitch_bend_c, 8, 3434
10, 286016, Pitch_bend_c, 8, 3963
10, 286031, Note_on_c, 8, 83, 127
10, 286035, Pitch_bend_c, 8, 6341
10, 286056, Pitch_bend_c, 8, 7662
10, 286072, Pitch_bend_c, 8, 8192
10, 286449, Pitch_bend_c, 8, 8191
10, 286461, Note_off_c, 8, 83, 0
10, 286471, Pitch_bend_c, 8, 4491
10, 286490, Pitch_bend_c, 8, 792
10, 286506, Pitch_bend_c, 8, 0
10, 286532, Note_on_c, 8, 83, 127
10, 286552, Pitch_bend_c, 8, 3434
10, 286566, Pitch_bend_c, 8, 6341
10, 286587, Pitch_bend_c, 8, 7662
10, 286607, Pitch_bend_c, 8, 8192
10, 286779, Note_on_c, 8, 81, 117
10, 286830, Note_off_c, 8, 83, 0
10, 286987, Note_off_c, 8, 81, 0
10, 287007, Note_on_c, 8, 78, 104
10, 287229, Note_off_c, 8, 78, 0
10, 287244, Note_on_c, 8, 76, 113
10, 287487, Note_off_c, 8, 76, 0
10, 287492, Note_on_c, 8, 74, 113
10, 287699, Note_off_c, 8, 74, 0
10, 287725, Note_on_c, 8, 71, 117
10, 287866, Note_off_c, 8, 71, 0
10, 287941, Pitch_bend_c, 8, 6605
10, 287960, Pitch_bend_c, 8, 3699
10, 287965, Note_on_c, 8, 83, 127
10, 287976, Pitch_bend_c, 8, 1849
10, 288000, Control_c, 8, 11, 127
10, 288016, Pitch_bend_c, 8, 3170
10, 288037, Pitch_bend_c, 8, 5812
10, 288058, Pitch_bend_c, 8, 7398
10, 288077, Pitch_bend_c, 8, 8191
10, 288098, Pitch_bend_c, 8, 8192
10, 288120, Control_c, 8, 11, 126
10, 288346, Note_off_c, 8, 83, 0
10, 288360, Control_c, 8, 11, 125
10, 288432, Note_on_c, 8, 83, 122
10, 288480, Control_c, 8, 11, 124
10, 288557, Note_off_c, 8, 83, 0
10, 288649, Pitch_bend_c, 8, 7398
10, 288654, Note_on_c, 8, 83, 127
10, 288669, Pitch_bend_c, 8, 5284
10, 288688, Pitch_bend_c, 8, 4491
10, 288710, Pitch_bend_c, 8, 5020
10, 288720, Control_c, 8, 11, 123
10, 288730, Pitch_bend_c, 8, 6605
10, 288750, Pitch_bend_c, 8, 7926
10, 288771, Pitch_bend_c, 8, 8192
10, 288840, Control_c, 8, 11, 122
10, 289033, Note_off_c, 8, 83, 0
10, 289080, Control_c, 8, 11, 121
10, 289129, Note_on_c, 8, 83, 127
10, 289200, Control_c, 8, 11, 120
10, 289271, Note_off_c, 8, 83, 0
10, 289366, Pitch_bend_c, 8, 5812
10, 289371, Note_on_c, 8, 83, 127
10, 289387, Pitch_bend_c, 8, 3699
10, 289407, Pitch_bend_c, 8, 3170
10, 289426, Pitch_bend_c, 8, 4491
10, 289440, Control_c, 8, 11, 119
10, 289447, Pitch_bend_c, 8, 6341
10, 289467, Pitch_bend_c, 8, 7662
10, 289488, Pitch_bend_c, 8, 8192
10, 289560, Control_c, 8, 11, 118
10, 289770, Note_off_c, 8, 83, 0
10, 289800, Control_c, 8, 11, 117
10, 289862, Note_on_c, 8, 83, 127
10, 289920, Control_c, 8, 11, 116
10, 290014, Note_off_c, 8, 83, 0
10, 290080, Pitch_bend_c, 8, 6077
10, 290099, Pitch_bend_c, 8, 3434
10, 290110, Note_on_c, 8, 83, 127
10, 290120, Pitch_bend_c, 8, 2906
10, 290140, Pitch_bend_c, 8, 3963
10, 290160, Control_c, 8, 11, 115
10, 290166, Pitch_bend_c, 8, 6077
10, 290181, Pitch_bend_c, 8, 7662
10, 290201, Pitch_bend_c, 8, 8192
10, 290280, Control_c, 8, 11, 114
10, 290437, Note_off_c, 8, 83, 0
10, 290520, Control_c, 8, 11, 113
10, 290525, Note_on_c, 8, 83, 122
10, 290640, Control_c, 8, 11, 112
10, 290691, Note_off_c, 8, 83, 0
10, 290781, Note_on_c, 8, 76, 127
10, 290880, Control_c, 8, 11, 111
10, 291000, Control_c, 8, 11, 110
10, 291096, Pitch_bend_c, 8, 10834
10, 291116, Pitch_bend_c, 8, 15326
10, 291136, Pitch_bend_c, 8, 16383
10, 291155, Pitch_bend_c, 8, 14533
10, 291177, Pitch_bend_c, 8, 11098
10, 291196, Pitch_bend_c, 8, 8984
10, 291217, Pitch_bend_c, 8, 8192
10, 291240, Control_c, 8, 11, 109
10, 291343, Note_on_c, 8, 74, 127
10, 291359, Note_off_c, 8, 76, 0
10, 291360, Control_c, 8, 11, 108
10, 291556, Note_on_c, 8, 76, 127
10, 291596, Note_off_c, 8, 74, 0
10, 291600, Control_c, 8, 11, 107
10, 291720, Control_c, 8, 11, 106
10, 291960, Control_c, 8, 11, 105
10, 291994, Note_on_c, 8, 78, 104
10, 292021, Note_off_c, 8, 76, 0
10, 292176, Pitch_bend_c, 8, 8191
10, 292187, Pitch_bend_c, 8, 4491
10, 292200, Control_c, 8, 11, 104
10, 292203, Note_off_c, 8, 78, 0
10, 292213, Pitch_bend_c, 8, 792
10, 292232, Note_on_c, 8, 76, 127
10, 292232, Pitch_bend_c, 8, 0
10, 292248, Pitch_bend_c, 8, 1849
10, 292269, Pitch_bend_c, 8, 5020
10, 292289, Pitch_bend_c, 8, 7134
10, 292308, Pitch_bend_c, 8, 8191
10, 292320, Control_c, 8, 11, 103
10, 292333, Pitch_bend_c, 8, 8192
10, 292471, Note_on_c, 8, 74, 127
10, 292511, Note_off_c, 8, 76, 0
10, 292560, Control_c, 8, 11, 102
10, 292673, Note_off_c, 8, 74, 0
10, 292680, Control_c, 8, 11, 101
10, 292693, Note_on_c, 8, 71, 127
10, 292920, Control_c, 8, 11, 100
10, 293040, Control_c, 8, 11, 99
10, 293153, Note_off_c, 8, 71, 0
10, 293280, Control_c, 8, 11, 98
10, 293400, Control_c, 8, 11, 97
10, 293640, Control_c, 8, 11, 96
10, 293760, Control_c, 8, 11, 95
10, 293766, Note_on_c, 8, 76, 127
10, 293893, Note_off_c, 8, 76, 0
10, 293978, Note_on_c, 8, 76, 113
10, 294000, Control_c, 8, 11, 94
10, 294120, Control_c, 8, 11, 93
10, 294161, Note_off_c, 8, 76, 0
10, 294196, Note_on_c, 8, 74, 127
10, 294360, Control_c, 8, 11, 92
10, 294368, Note_off_c, 8, 74, 0
10, 294423, Note_on_c, 8, 76, 127
10, 294480, Control_c, 8, 11, 91
10, 294720, Control_c, 8, 11, 90
10, 294818, Note_off_c, 8, 76, 0
10, 294840, Control_c, 8, 11, 89
10, 294849, Note_on_c, 8, 78, 104
10, 295051, Note_off_c, 8, 78, 0
10, 295080, Control_c, 8, 11, 88
10, 295121, Pitch_bend_c, 8, 8191
10, 295126, Note_on_c, 8, 81, 127
10, 295142, Pitch_bend_c, 8, 5812
10, 295162, Pitch_bend_c, 8, 3170
10, 295182, Pitch_bend_c, 8, 2378
10, 295197, Pitch_bend_c, 8, 3963
10, 295200, Control_c, 8, 11, 87
10, 295216, Pitch_bend_c, 8, 6341
10, 295237, Pitch_bend_c, 8, 7662
10, 295262, Pitch_bend_c, 8, 8192
10, 295268, Note_off_c, 8, 81, 0
10, 295350, Note_on_c, 8, 81, 127
10, 295440, Control_c, 8, 11, 86
10, 295557, Note_off_c, 8, 81, 0
10, 295560, Control_c, 8, 11, 85
10, 295581, Note_on_c, 8, 78, 110
10, 295800, Control_c, 8, 11, 84
10, 295818, Note_on_c, 8, 81, 127
10, 295833, Note_off_c, 8, 78, 0
10, 295920, Control_c, 8, 11, 83
10, 296057, Note_off_c, 8, 81, 0
10, 296092, Note_on_c, 8, 83, 122
10, 296160, Control_c, 8, 11, 82
10, 296280, Control_c, 8, 11, 81
10, 296476, Note_off_c, 8, 83, 0
10, 296520, Control_c, 8, 11, 80
10, 296604, Pitch_bend_c, 8, 6341
10, 296613, Note_on_c, 8, 78, 127
10, 296624, Pitch_bend_c, 8, 4227
10, 296640, Control_c, 8, 11, 79
10, 296644, Pitch_bend_c, 8, 3434
10, 296665, Pitch_bend_c, 8, 4756
10, 296684, Pitch_bend_c, 8, 6869
10, 296705, Pitch_bend_c, 8, 7926
10, 296725, Pitch_bend_c, 8, 8192
10, 296880, Control_c, 8, 11, 78
10, 297000, Control_c, 8, 11, 77
10, 297078, Pitch_bend_c, 8, 7926
10, 297098, Pitch_bend_c, 8, 5548
10, 297119, Pitch_bend_c, 8, 3434
10, 297138, Pitch_bend_c, 8, 2906
10, 297159, Pitch_bend_c, 8, 3434
10, 297180, Pitch_bend_c, 8, 5020
10, 297200, Pitch_bend_c, 8, 7134
10, 297221, Pitch_bend_c, 8, 8191
10, 297240, Control_c, 8, 11, 76
10, 297240, Pitch_bend_c, 8, 8192
10, 297360, Control_c, 8, 11, 75
10, 297517, Pitch_bend_c, 8, 7926
10, 297543, Pitch_bend_c, 8, 5020
10, 297558, Pitch_bend_c, 8, 2906
10, 297578, Pitch_bend_c, 8, 2642
10, 297600, Control_c, 8, 11, 74
10, 297600, Pitch_bend_c, 8, 4227
10, 297618, Pitch_bend_c, 8, 6341
10, 297640, Pitch_bend_c, 8, 7662
10, 297655, Pitch_bend_c, 8, 8192
10, 297720, Control_c, 8, 11, 73
10, 297948, Note_off_c, 8, 78, 0
10, 297960, Control_c, 8, 11, 72
10, 297994, Note_on_c, 8, 76, 127
10, 298080, Control_c, 8, 11, 71
10, 298320, Control_c, 8, 11, 70
10, 298440, Control_c, 8, 11, 69
10, 298474, Pitch_bend_c, 8, 5020
10, 298480, Note_on_c, 8, 78, 110
10, 298493, Pitch_bend_c, 8, 1321
10, 298513, Pitch_bend_c, 8, 0
10, 298518, Note_off_c, 8, 76, 0
10, 298555, Pitch_bend_c, 8, 2642
10, 298575, Pitch_bend_c, 8, 6077
10, 298596, Pitch_bend_c, 8, 7662
10, 298616, Pitch_bend_c, 8, 8192
10, 298680, Control_c, 8, 11, 68
10, 298702, Note_on_c, 8, 76, 127
10, 298742, Note_off_c, 8, 78, 0
10, 298800, Control_c, 8, 11, 67
10, 298955, Note_on_c, 8, 74, 113
10, 298985, Note_off_c, 8, 76, 0
10, 299040, Control_c, 8, 11, 66
10, 299160, Control_c, 8, 11, 65
10, 299172, Note_off_c, 8, 74, 0
10, 299202, Note_on_c, 8, 71, 104
10, 299400, Control_c, 8, 11, 64
10, 299438, Note_off_c, 8, 71, 0
10, 299448, Pitch_bend_c, 8, 6341
10, 299453, Note_on_c, 8, 75, 127
10, 299467, Pitch_bend_c, 8, 4491
10, 299489, Pitch_bend_c, 8, 3963
10, 299504, Pitch_bend_c, 8, 5020
10, 299520, Control_c, 8, 11, 63
10, 299524, Pitch_bend_c, 8, 6869
10, 299544, Pitch_bend_c, 8, 7926
10, 299564, Pitch_bend_c, 8, 8192
10, 299760, Control_c, 8, 11, 62
10, 299812, Note_off_c, 8, 75, 0
10, 299897, Note_on_c, 8, 76, 127
10, 300000, Control_c, 8, 11, 61
10, 300090, Note_off_c, 8, 76, 0
10, 300120, Control_c, 8, 11, 60
10, 300161, Pitch_bend_c, 8, 8191
10, 300171, Note_on_c, 8, 75, 127
10, 300181, Pitch_bend_c, 8, 6077
10, 300201, Pitch_bend_c, 8, 4756
10, 300221, Pitch_bend_c, 8, 5020
10, 300237, Pitch_bend_c, 8, 6341
10, 300262, Pitch_bend_c, 8, 7662
10, 300277, Pitch_bend_c, 8, 8192
10, 300360, Control_c, 8, 11, 59
10, 300480, Control_c, 8, 11, 58
10, 300605, Note_off_c, 8, 75, 0
10, 300626, Note_on_c, 8, 76, 127
10, 300720, Control_c, 8, 11, 57
10, 300840, Control_c, 8, 11, 56
10, 300853, Note_off_c, 8, 76, 0
10, 300899, Note_on_c, 8, 75, 127
10, 300899, Pitch_bend_c, 8, 7662
10, 300919, Pitch_bend_c, 8, 5020
10, 300934, Pitch_bend_c, 8, 3170
10, 300975, Pitch_bend_c, 8, 5020
10, 300994, Pitch_bend_c, 8, 7134
10, 301015, Pitch_bend_c, 8, 7926
10, 301035, Pitch_bend_c, 8, 8192
10, 301080, Control_c, 8, 11, 55
10, 301157, Note_on_c, 8, 73, 110
10, 301187, Note_off_c, 8, 75, 0
10, 301200, Control_c, 8, 11, 54
10, 301333, Note_off_c, 8, 73, 0
10, 301384, Note_on_c, 8, 71, 122
10, 301440, Control_c, 8, 11, 53
10, 301560, Control_c, 8, 11, 52
10, 301800, Control_c, 8, 11, 51
10, 301834, Note_off_c, 8, 71, 0
10, 301920, Control_c, 8, 11, 50
10, 302139, Note_on_c, 8, 71, 127
10, 302160, Control_c, 8, 11, 49
10, 302280, Control_c, 8, 11, 48
10, 302316, Note_off_c, 8, 71, 0
10, 302362, Pitch_bend_c, 8, 7662
10, 302372, Note_on_c, 8, 74, 127
10, 302382, Pitch_bend_c, 8, 4756
10, 302402, Pitch_bend_c, 8, 2378
10, 302421, Pitch_bend_c, 8, 1849
10, 302437, Pitch_bend_c, 8, 3170
10, 302458, Pitch_bend_c, 8, 5548
10, 302478, Pitch_bend_c, 8, 7398
10, 302498, Pitch_bend_c, 8, 8191
10, 302518, Pitch_bend_c, 8, 8192
10, 302520, Control_c, 8, 11, 47
10, 302640, Control_c, 8, 11, 46
10, 302796, Note_off_c, 8, 74, 0
10, 302841, Note_on_c, 8, 76, 127
10, 302880, Control_c, 8, 11, 45
10, 303000, Control_c, 8, 11, 44
10, 303034, Note_off_c, 8, 76, 0
10, 303094, Pitch_bend_c, 8, 6869
10, 303100, Note_on_c, 8, 74, 127
10, 303115, Pitch_bend_c, 8, 4491
10, 303135, Pitch_bend_c, 8, 3699
10, 303155, Pitch_bend_c, 8, 4491
10, 303175, Pitch_bend_c, 8, 6605
10, 303196, Pitch_bend_c, 8, 7662
10, 303216, Pitch_bend_c, 8, 8192
10, 303240, Control_c, 8, 11, 43
10, 303360, Control_c, 8, 11, 42
10, 303504, Note_off_c, 8, 74, 0
10, 303543, Note_on_c, 8, 76, 127
10, 303600, Control_c, 8, 11, 41
10, 303720, Control_c, 8, 11, 40
10, 303787, Pitch_bend_c, 8, 8191
10, 303806, Note_off_c, 8, 76, 0
10, 303812, Pitch_bend_c, 8, 6605
10, 303818, Note_on_c, 8, 74, 127
10, 303833, Pitch_bend_c, 8, 5284
10, 303853, Pitch_bend_c, 8, 5020
10, 303868, Pitch_bend_c, 8, 6077
10, 303887, Pitch_bend_c, 8, 7398
10, 303907, Pitch_bend_c, 8, 8191
10, 303929, Pitch_bend_c, 8, 8192
10, 303960, Control_c, 8, 11, 39
10, 304050, Note_on_c, 8, 73, 104
10, 304076, Note_off_c, 8, 74, 0
10, 304080, Control_c, 8, 11, 38
10, 304227, Note_off_c, 8, 73, 0
10, 304266, Note_on_c, 8, 71, 117
10, 304320, Control_c, 8, 11, 37
10, 304440, Control_c, 8, 11, 36
10, 304680, Control_c, 8, 11, 35
10, 304787, Note_off_c, 8, 71, 0
10, 304800, Control_c, 8, 11, 34
10, 305040, Control_c, 8, 11, 33
10, 305160, Control_c, 8, 11, 32
10, 305204, Note_on_c, 8, 76, 127
10, 305400, Control_c, 8, 11, 31
10, 305520, Control_c, 8, 11, 30
10, 305548, Pitch_bend_c, 8, 11626
10, 305563, Pitch_bend_c, 8, 15590
10, 305583, Pitch_bend_c, 8, 16383
10, 305603, Pitch_bend_c, 8, 15590
10, 305623, Pitch_bend_c, 8, 12419
10, 305642, Pitch_bend_c, 8, 9777
10, 305664, Pitch_bend_c, 8, 8456
10, 305679, Pitch_bend_c, 8, 8192
10, 305760, Note_off_c, 8, 76, 0
10, 305760, Control_c, 8, 11, 29
10, 305760, Note_on_c, 8, 74, 127
10, 305880, Control_c, 8, 11, 28
10, 305937, Note_off_c, 8, 74, 0
10, 305982, Note_on_c, 8, 76, 127
10, 306120, Control_c, 8, 11, 27
10, 306225, Pitch_bend_c, 8, 10834
10, 306239, Pitch_bend_c, 8, 14797
10, 306240, Control_c, 8, 11, 26
10, 306261, Pitch_bend_c, 8, 16383
10, 306280, Pitch_bend_c, 8, 14797
10, 306300, Pitch_bend_c, 8, 11362
10, 306316, Pitch_bend_c, 8, 9248
10, 306340, Pitch_bend_c, 8, 8192
10, 306463, Note_off_c, 8, 76, 0
10, 306467, Note_on_c, 8, 74, 127
10, 306480, Control_c, 8, 11, 25
10, 306600, Control_c, 8, 11, 24
10, 306695, Pitch_bend_c, 8, 7662
10, 306700, Note_off_c, 8, 74, 0
10, 306715, Pitch_bend_c, 8, 4227
10, 306721, Note_on_c, 8, 83, 127
10, 306739, Pitch_bend_c, 8, 1056
10, 306756, Pitch_bend_c, 8, 792
10, 306776, Pitch_bend_c, 8, 3434
10, 306791, Pitch_bend_c, 8, 6341
10, 306816, Pitch_bend_c, 8, 7662
10, 306831, Pitch_bend_c, 8, 8192
10, 306840, Control_c, 8, 11, 23
10, 306960, Control_c, 8, 11, 22
10, 307200, Control_c, 8, 11, 21
10, 307286, Note_off_c, 8, 83, 0
10, 307388, Note_on_c, 8, 83, 127
10, 307407, Pitch_bend_c, 8, 6077
10, 307427, Pitch_bend_c, 8, 1849
10, 307440, Control_c, 8, 11, 20
10, 307449, Pitch_bend_c, 8, 0
10, 307489, Pitch_bend_c, 8, 1321
10, 307508, Pitch_bend_c, 8, 3699
10, 307529, Pitch_bend_c, 8, 6605
10, 307549, Pitch_bend_c, 8, 7926
10, 307560, Control_c, 8, 11, 19
10, 307564, Pitch_bend_c, 8, 8192
10, 307800, Control_c, 8, 11, 18
10, 307920, Control_c, 8, 11, 17
10, 308045, Note_off_c, 8, 83, 0
10, 308085, Pitch_bend_c, 8, 6341
10, 308100, Pitch_bend_c, 8, 2642
10, 308120, Pitch_bend_c, 8, 1321
10, 308126, Note_on_c, 8, 83, 127
10, 308141, Pitch_bend_c, 8, 2113
10, 308160, Control_c, 8, 11, 16
10, 308162, Pitch_bend_c, 8, 3963
10, 308180, Pitch_bend_c, 8, 6341
10, 308201, Pitch_bend_c, 8, 7662
10, 308222, Pitch_bend_c, 8, 8192
10, 308280, Control_c, 8, 11, 15
10, 308520, Control_c, 8, 11, 14
10, 308565, Note_off_c, 8, 83, 0
10, 308581, Pitch_bend_c, 8, 7134
10, 308596, Pitch_bend_c, 8, 2906
10, 308611, Note_on_c, 8, 83, 117
10, 308616, Pitch_bend_c, 8, 528
10, 308637, Pitch_bend_c, 8, 792
10, 308640, Control_c, 8, 11, 13
10, 308657, Pitch_bend_c, 8, 2378
10, 308677, Pitch_bend_c, 8, 4756
10, 308697, Pitch_bend_c, 8, 7134
10, 308717, Pitch_bend_c, 8, 8191
10, 308732, Pitch_bend_c, 8, 8192
10, 308880, Control_c, 8, 11, 12
10, 309000, Control_c, 8, 11, 11
10, 309005, Note_off_c, 8, 83, 0
10, 309015, Pitch_bend_c, 8, 5812
10, 309030, Pitch_bend_c, 8, 3434
10, 309056, Pitch_bend_c, 8, 3963
10, 309071, Note_on_c, 8, 83, 127
10, 309075, Pitch_bend_c, 8, 6341
10, 309096, Pitch_bend_c, 8, 7662
10, 309112, Pitch_bend_c, 8, 8192
10, 309240, Control_c, 8, 11, 10
10, 309360, Control_c, 8, 11, 9
10, 309489, Pitch_bend_c, 8, 8191
10, 309501, Note_off_c, 8, 83, 0
10, 309511, Pitch_bend_c, 8, 4491
10, 309530, Pitch_bend_c, 8, 792
10, 309546, Pitch_bend_c, 8, 0
10, 309572, Note_on_c, 8, 83, 127
10, 309592, Pitch_bend_c, 8, 3434
10, 309600, Control_c, 8, 11, 8
10, 309606, Pitch_bend_c, 8, 6341
10, 309627, Pitch_bend_c, 8, 7662
10, 309647, Pitch_bend_c, 8, 8192
10, 309720, Control_c, 8, 11, 7
10, 309819, Note_on_c, 8, 81, 117
10, 309870, Note_off_c, 8, 83, 0
10, 309960, Control_c, 8, 11, 6
10, 310027, Note_off_c, 8, 81, 0
10, 310047, Note_on_c, 8, 78, 104
10, 310080, Control_c, 8, 11, 5
10, 310269, Note_off_c, 8, 78, 0
10, 310284, Note_on_c, 8, 76, 113
10, 310320, Control_c, 8, 11, 4
10, 310440, Control_c, 8, 11, 3
10, 310527, Note_off_c, 8, 76, 0
10, 310532, Note_on_c, 8, 74, 113
10, 310680, Control_c, 8, 11, 2
10, 310739, Note_off_c, 8, 74, 0
10, 310765, Note_on_c, 8, 71, 117
10, 310800, Control_c, 8, 11, 1
10, 310906, Note_off_c, 8, 71, 0
10, 311031, Control_c, 8, 7, 90
10, 311031, End_track
11, 0, Start_track
11, 0, Title_t, "\000"
11, 0, Control_c, 9, 0, 0
11, 0, Program_c, 9, 8
11, 0, Control_c, 9, 7, 100
11, 0, Control_c, 9, 10, 64
11, 0, Control_c, 9, 91, 0
11, 0, Control_c, 9, 93, 0
11, 870, Control_c, 9, 11, 127
11, 2880, Note_on_c, 9, 42, 70
11, 2996, Note_off_c, 9, 42, 0
11, 3589, Control_c, 9, 101, 0
11, 3591, Control_c, 9, 100, 0
11, 3594, Control_c, 9, 6, 2
11, 3596, Control_c, 9, 101, 127
11, 3599, Control_c, 9, 100, 127
11, 3600, Note_on_c, 9, 42, 70
11, 3716, Note_off_c, 9, 42, 0
11, 4320, Note_on_c, 9, 42, 70
11, 4436, Note_off_c, 9, 42, 0
11, 5040, Note_on_c, 9, 42, 70
11, 5156, Note_off_c, 9, 42, 0
11, 5615, Control_c, 9, 94, 0
11, 28800, Note_on_c, 9, 36, 120
11, 28800, Note_on_c, 9, 42, 90
11, 28800, Note_on_c, 9, 82, 80
11, 28916, Note_off_c, 9, 36, 0
11, 28916, Note_off_c, 9, 42, 0
11, 28916, Note_off_c, 9, 82, 0
11, 29040, Note_on_c, 9, 82, 60
11, 29156, Note_off_c, 9, 82, 0
11, 29280, Note_on_c, 9, 82, 80
11, 29396, Note_off_c, 9, 82, 0
11, 29520, Note_on_c, 9, 40, 120
11, 29520, Note_on_c, 9, 42, 90
11, 29520, Note_on_c, 9, 82, 60
11, 29636, Note_off_c, 9, 40, 0
11, 29636, Note_off_c, 9, 42, 0
11, 29636, Note_off_c, 9, 82, 0
11, 29760, Note_on_c, 9, 82, 80
11, 29876, Note_off_c, 9, 82, 0
11, 30000, Note_on_c, 9, 36, 90
11, 30000, Note_on_c, 9, 82, 60
11, 30116, Note_off_c, 9, 36, 0
11, 30116, Note_off_c, 9, 82, 0
11, 30240, Note_on_c, 9, 36, 120
11, 30240, Note_on_c, 9, 42, 90
11, 30240, Note_on_c, 9, 82, 80
11, 30356, Note_off_c, 9, 36, 0
11, 30356, Note_off_c, 9, 42, 0
11, 30356, Note_off_c, 9, 82, 0
11, 30480, Note_on_c, 9, 82, 60
11, 30596, Note_off_c, 9, 82, 0
11, 30720, Note_on_c, 9, 82, 80
11, 30836, Note_off_c, 9, 82, 0
11, 30960, Note_on_c, 9, 40, 120
11, 30960, Note_on_c, 9, 42, 90
11, 30960, Note_on_c, 9, 82, 60
11, 31076, Note_off_c, 9, 40, 0
11, 31076, Note_off_c, 9, 42, 0
11, 31076, Note_off_c, 9, 82, 0
11, 31200, Note_on_c, 9, 82, 80
11, 31316, Note_off_c, 9, 82, 0
11, 31440, Note_on_c, 9, 46, 90
11, 31440, Note_on_c, 9, 82, 60
11, 31556, Note_off_c, 9, 46, 0
11, 31556, Note_off_c, 9, 82, 0
11, 31680, Note_on_c, 9, 36, 120
11, 31680, Note_on_c, 9, 42, 90
11, 31680, Note_on_c, 9, 82, 80
11, 31796, Note_off_c, 9, 36, 0
11, 31796, Note_off_c, 9, 42, 0
11, 31796, Note_off_c, 9, 82, 0
11, 31920, Note_on_c, 9, 82, 60
11, 32036, Note_off_c, 9, 82, 0
11, 32160, Note_on_c, 9, 82, 80
11, 32276, Note_off_c, 9, 82, 0
11, 32400, Note_on_c, 9, 40, 120
11, 32400, Note_on_c, 9, 42, 90
11, 32400, Note_on_c, 9, 82, 60
11, 32516, Note_off_c, 9, 40, 0
11, 32516, Note_off_c, 9, 42, 0
11, 32516, Note_off_c, 9, 82, 0
11, 32640, Note_on_c, 9, 82, 80
11, 32756, Note_off_c, 9, 82, 0
11, 32880, Note_on_c, 9, 36, 90
11, 32880, Note_on_c, 9, 40, 80
11, 32880, Note_on_c, 9, 82, 60
11, 32996, Note_off_c, 9, 36, 0
11, 32996, Note_off_c, 9, 40, 0
11, 32996, Note_off_c, 9, 82, 0
11, 33120, Note_on_c, 9, 36, 120
11, 33120, Note_on_c, 9, 42, 90
11, 33120, Note_on_c, 9, 82, 80
11, 33236, Note_off_c, 9, 36, 0
11, 33236, Note_off_c, 9, 42, 0
11, 33236, Note_off_c, 9, 82, 0
11, 33360, Note_on_c, 9, 82, 60
11, 33476, Note_off_c, 9, 82, 0
11, 33600, Note_on_c, 9, 82, 80
11, 33716, Note_off_c, 9, 82, 0
11, 33840, Note_on_c, 9, 40, 120
11, 33840, Note_on_c, 9, 42, 90
11, 33840, Note_on_c, 9, 82, 60
11, 33956, Note_off_c, 9, 40, 0
11, 33956, Note_off_c, 9, 42, 0
11, 33956, Note_off_c, 9, 82, 0
11, 34080, Note_on_c, 9, 82, 80
11, 34196, Note_off_c, 9, 82, 0
11, 34320, Note_on_c, 9, 46, 90
11, 34320, Note_on_c, 9, 82, 60
11, 34436, Note_off_c, 9, 46, 0
11, 34436, Note_off_c, 9, 82, 0
11, 34560, Note_on_c, 9, 36, 120
11, 34560, Note_on_c, 9, 42, 90
11, 34560, Note_on_c, 9, 82, 80
11, 34676, Note_off_c, 9, 36, 0
11, 34676, Note_off_c, 9, 42, 0
11, 34676, Note_off_c, 9, 82, 0
11, 34800, Note_on_c, 9, 82, 60
11, 34916, Note_off_c, 9, 82, 0
11, 35040, Note_on_c, 9, 36, 100
11, 35040, Note_on_c, 9, 82, 80
11, 35156, Note_off_c, 9, 36, 0
11, 35156, Note_off_c, 9, 82, 0
11, 35280, Note_on_c, 9, 40, 120
11, 35280, Note_on_c, 9, 42, 90
11, 35280, Note_on_c, 9, 82, 60
11, 35396, Note_off_c, 9, 40, 0
11, 35396, Note_off_c, 9, 42, 0
11, 35396, Note_off_c, 9, 82, 0
11, 35520, Note_on_c, 9, 36, 90
11, 35520, Note_on_c, 9, 82, 80
11, 35636, Note_off_c, 9, 36, 0
11, 35636, Note_off_c, 9, 82, 0
11, 35760, Note_on_c, 9, 36, 90
11, 35760, Note_on_c, 9, 82, 60
11, 35876, Note_off_c, 9, 36, 0
11, 35876, Note_off_c, 9, 82, 0
11, 36000, Note_on_c, 9, 36, 120
11, 36000, Note_on_c, 9, 42, 90
11, 36000, Note_on_c, 9, 82, 80
11, 36116, Note_off_c, 9, 36, 0
11, 36116, Note_off_c, 9, 42, 0
11, 36116, Note_off_c, 9, 82, 0
11, 36240, Note_on_c, 9, 82, 60
11, 36356, Note_off_c, 9, 82, 0
11, 36480, Note_on_c, 9, 36, 80
11, 36480, Note_on_c, 9, 82, 80
11, 36596, Note_off_c, 9, 36, 0
11, 36596, Note_off_c, 9, 82, 0
11, 36720, Note_on_c, 9, 40, 120
11, 36720, Note_on_c, 9, 42, 90
11, 36720, Note_on_c, 9, 82, 60
11, 36836, Note_off_c, 9, 40, 0
11, 36836, Note_off_c, 9, 42, 0
11, 36836, Note_off_c, 9, 82, 0
11, 36960, Note_on_c, 9, 36, 100
11, 36960, Note_on_c, 9, 82, 80
11, 37076, Note_off_c, 9, 36, 0
11, 37076, Note_off_c, 9, 82, 0
11, 37200, Note_on_c, 9, 42, 90
11, 37200, Note_on_c, 9, 82, 60
11, 37316, Note_off_c, 9, 42, 0
11, 37316, Note_off_c, 9, 82, 0
11, 37440, Note_on_c, 9, 36, 120
11, 37440, Note_on_c, 9, 42, 90
11, 37440, Note_on_c, 9, 82, 80
11, 37556, Note_off_c, 9, 36, 0
11, 37556, Note_off_c, 9, 42, 0
11, 37556, Note_off_c, 9, 82, 0
11, 37680, Note_on_c, 9, 82, 60
11, 37796, Note_off_c, 9, 82, 0
11, 37920, Note_on_c, 9, 82, 80
11, 38036, Note_off_c, 9, 82, 0
11, 38160, Note_on_c, 9, 40, 120
11, 38160, Note_on_c, 9, 42, 90
11, 38160, Note_on_c, 9, 82, 60
11, 38276, Note_off_c, 9, 40, 0
11, 38276, Note_off_c, 9, 42, 0
11, 38276, Note_off_c, 9, 82, 0
11, 38400, Note_on_c, 9, 82, 80
11, 38516, Note_off_c, 9, 82, 0
11, 38640, Note_on_c, 9, 40, 80
11, 38640, Note_on_c, 9, 82, 60
11, 38756, Note_off_c, 9, 40, 0
11, 38756, Note_off_c, 9, 82, 0
11, 38880, Note_on_c, 9, 36, 100
11, 38880, Note_on_c, 9, 42, 90
11, 38880, Note_on_c, 9, 82, 80
11, 38996, Note_off_c, 9, 36, 0
11, 38996, Note_off_c, 9, 42, 0
11, 38996, Note_off_c, 9, 82, 0
11, 39120, Note_on_c, 9, 82, 60
11, 39236, Note_off_c, 9, 82, 0
11, 39360, Note_on_c, 9, 36, 100
11, 39360, Note_on_c, 9, 82, 80
11, 39476, Note_off_c, 9, 36, 0
11, 39476, Note_off_c, 9, 82, 0
11, 39600, Note_on_c, 9, 40, 120
11, 39600, Note_on_c, 9, 42, 90
11, 39600, Note_on_c, 9, 82, 60
11, 39716, Note_off_c, 9, 40, 0
11, 39716, Note_off_c, 9, 42, 0
11, 39716, Note_off_c, 9, 82, 0
11, 39840, Note_on_c, 9, 36, 100
11, 39840, Note_on_c, 9, 82, 80
11, 39956, Note_off_c, 9, 36, 0
11, 39956, Note_off_c, 9, 82, 0
11, 40080, Note_on_c, 9, 46, 90
11, 40080, Note_on_c, 9, 82, 60
11, 40196, Note_off_c, 9, 46, 0
11, 40196, Note_off_c, 9, 82, 0
11, 40320, Note_on_c, 9, 36, 120
11, 40320, Note_on_c, 9, 42, 90
11, 40320, Note_on_c, 9, 82, 80
11, 40436, Note_off_c, 9, 36, 0
11, 40436, Note_off_c, 9, 42, 0
11, 40436, Note_off_c, 9, 82, 0
11, 40560, Note_on_c, 9, 82, 60
11, 40676, Note_off_c, 9, 82, 0
11, 40800, Note_on_c, 9, 82, 80
11, 40916, Note_off_c, 9, 82, 0
11, 41040, Note_on_c, 9, 40, 120
11, 41040, Note_on_c, 9, 42, 90
11, 41040, Note_on_c, 9, 82, 60
11, 41156, Note_off_c, 9, 40, 0
11, 41156, Note_off_c, 9, 42, 0
11, 41156, Note_off_c, 9, 82, 0
11, 41280, Note_on_c, 9, 82, 80
11, 41396, Note_off_c, 9, 82, 0
11, 41520, Note_on_c, 9, 36, 90
11, 41520, Note_on_c, 9, 82, 60
11, 41636, Note_off_c, 9, 36, 0
11, 41636, Note_off_c, 9, 82, 0
11, 41760, Note_on_c, 9, 36, 120
11, 41760, Note_on_c, 9, 42, 90
11, 41760, Note_on_c, 9, 82, 80
11, 41876, Note_off_c, 9, 36, 0
11, 41876, Note_off_c, 9, 42, 0
11, 41876, Note_off_c, 9, 82, 0
11, 42000, Note_on_c, 9, 82, 60
11, 42116, Note_off_c, 9, 82, 0
11, 42240, Note_on_c, 9, 82, 80
11, 42356, Note_off_c, 9, 82, 0
11, 42480, Note_on_c, 9, 40, 120
11, 42480, Note_on_c, 9, 42, 90
11, 42480, Note_on_c, 9, 82, 60
11, 42596, Note_off_c, 9, 40, 0
11, 42596, Note_off_c, 9, 42, 0
11, 42596, Note_off_c, 9, 82, 0
11, 42720, Note_on_c, 9, 82, 80
11, 42836, Note_off_c, 9, 82, 0
11, 42960, Note_on_c, 9, 46, 90
11, 42960, Note_on_c, 9, 82, 60
11, 43076, Note_off_c, 9, 46, 0
11, 43076, Note_off_c, 9, 82, 0
11, 43200, Note_on_c, 9, 36, 120
11, 43200, Note_on_c, 9, 42, 90
11, 43200, Note_on_c, 9, 82, 80
11, 43316, Note_off_c, 9, 36, 0
11, 43316, Note_off_c, 9, 42, 0
11, 43316, Note_off_c, 9, 82, 0
11, 43440, Note_on_c, 9, 82, 60
11, 43556, Note_off_c, 9, 82, 0
11, 43680, Note_on_c, 9, 82, 80
11, 43796, Note_off_c, 9, 82, 0
11, 43920, Note_on_c, 9, 40, 120
11, 43920, Note_on_c, 9, 42, 90
11, 43920, Note_on_c, 9, 82, 60
11, 44036, Note_off_c, 9, 40, 0
11, 44036, Note_off_c, 9, 42, 0
11, 44036, Note_off_c, 9, 82, 0
11, 44160, Note_on_c, 9, 82, 80
11, 44276, Note_off_c, 9, 82, 0
11, 44400, Note_on_c, 9, 36, 90
11, 44400, Note_on_c, 9, 40, 80
11, 44400, Note_on_c, 9, 82, 60
11, 44516, Note_off_c, 9, 36, 0
11, 44516, Note_off_c, 9, 40, 0
11, 44516, Note_off_c, 9, 82, 0
11, 44640, Note_on_c, 9, 36, 120
11, 44640, Note_on_c, 9, 42, 90
11, 44640, Note_on_c, 9, 82, 80
11, 44756, Note_off_c, 9, 36, 0
11, 44756, Note_off_c, 9, 42, 0
11, 44756, Note_off_c, 9, 82, 0
11, 44880, Note_on_c, 9, 82, 60
11, 44996, Note_off_c, 9, 82, 0
11, 45120, Note_on_c, 9, 82, 80
11, 45236, Note_off_c, 9, 82, 0
11, 45360, Note_on_c, 9, 40, 120
11, 45360, Note_on_c, 9, 42, 90
11, 45360, Note_on_c, 9, 82, 60
11, 45476, Note_off_c, 9, 40, 0
11, 45476, Note_off_c, 9, 42, 0
11, 45476, Note_off_c, 9, 82, 0
11, 45600, Note_on_c, 9, 82, 80
11, 45716, Note_off_c, 9, 82, 0
11, 45840, Note_on_c, 9, 46, 90
11, 45840, Note_on_c, 9, 82, 60
11, 45956, Note_off_c, 9, 46, 0
11, 45956, Note_off_c, 9, 82, 0
11, 46080, Note_on_c, 9, 36, 120
11, 46080, Note_on_c, 9, 42, 90
11, 46080, Note_on_c, 9, 82, 80
11, 46196, Note_off_c, 9, 36, 0
11, 46196, Note_off_c, 9, 42, 0
11, 46196, Note_off_c, 9, 82, 0
11, 46320, Note_on_c, 9, 82, 60
11, 46436, Note_off_c, 9, 82, 0
11, 46560, Note_on_c, 9, 36, 100
11, 46560, Note_on_c, 9, 82, 80
11, 46676, Note_off_c, 9, 36, 0
11, 46676, Note_off_c, 9, 82, 0
11, 46800, Note_on_c, 9, 40, 120
11, 46800, Note_on_c, 9, 42, 90
11, 46800, Note_on_c, 9, 82, 60
11, 46916, Note_off_c, 9, 40, 0
11, 46916, Note_off_c, 9, 42, 0
11, 46916, Note_off_c, 9, 82, 0
11, 47040, Note_on_c, 9, 36, 90
11, 47040, Note_on_c, 9, 82, 80
11, 47156, Note_off_c, 9, 36, 0
11, 47156, Note_off_c, 9, 82, 0
11, 47280, Note_on_c, 9, 36, 90
11, 47280, Note_on_c, 9, 82, 60
11, 47396, Note_off_c, 9, 36, 0
11, 47396, Note_off_c, 9, 82, 0
11, 47520, Note_on_c, 9, 36, 120
11, 47520, Note_on_c, 9, 42, 90
11, 47520, Note_on_c, 9, 82, 80
11, 47636, Note_off_c, 9, 36, 0
11, 47636, Note_off_c, 9, 42, 0
11, 47636, Note_off_c, 9, 82, 0
11, 47760, Note_on_c, 9, 82, 60
11, 47876, Note_off_c, 9, 82, 0
11, 48000, Note_on_c, 9, 36, 80
11, 48000, Note_on_c, 9, 82, 80
11, 48116, Note_off_c, 9, 36, 0
11, 48116, Note_off_c, 9, 82, 0
11, 48240, Note_on_c, 9, 36, 100
11, 48240, Note_on_c, 9, 40, 120
11, 48240, Note_on_c, 9, 42, 90
11, 48240, Note_on_c, 9, 82, 60
11, 48356, Note_off_c, 9, 36, 0
11, 48356, Note_off_c, 9, 40, 0
11, 48356, Note_off_c, 9, 42, 0
11, 48356, Note_off_c, 9, 82, 0
11, 48480, Note_on_c, 9, 82, 80
11, 48596, Note_off_c, 9, 82, 0
11, 48720, Note_on_c, 9, 36, 90
11, 48720, Note_on_c, 9, 42, 90
11, 48720, Note_on_c, 9, 82, 60
11, 48836, Note_off_c, 9, 36, 0
11, 48836, Note_off_c, 9, 42, 0
11, 48836, Note_off_c, 9, 82, 0
11, 48960, Note_on_c, 9, 36, 120
11, 48960, Note_on_c, 9, 42, 90
11, 48960, Note_on_c, 9, 82, 80
11, 49076, Note_off_c, 9, 36, 0
11, 49076, Note_off_c, 9, 42, 0
11, 49076, Note_off_c, 9, 82, 0
11, 49200, Note_on_c, 9, 82, 60
11, 49316, Note_off_c, 9, 82, 0
11, 49440, Note_on_c, 9, 82, 80
11, 49556, Note_off_c, 9, 82, 0
11, 49680, Note_on_c, 9, 40, 120
11, 49680, Note_on_c, 9, 42, 90
11, 49680, Note_on_c, 9, 82, 60
11, 49796, Note_off_c, 9, 40, 0
11, 49796, Note_off_c, 9, 42, 0
11, 49796, Note_off_c, 9, 82, 0
11, 49920, Note_on_c, 9, 82, 80
11, 50036, Note_off_c, 9, 82, 0
11, 50160, Note_on_c, 9, 40, 80
11, 50160, Note_on_c, 9, 82, 60
11, 50276, Note_off_c, 9, 40, 0
11, 50276, Note_off_c, 9, 82, 0
11, 50400, Note_on_c, 9, 36, 100
11, 50400, Note_on_c, 9, 42, 90
11, 50400, Note_on_c, 9, 82, 80
11, 50516, Note_off_c, 9, 36, 0
11, 50516, Note_off_c, 9, 42, 0
11, 50516, Note_off_c, 9, 82, 0
11, 50640, Note_on_c, 9, 82, 60
11, 50756, Note_off_c, 9, 82, 0
11, 50880, Note_on_c, 9, 36, 100
11, 50880, Note_on_c, 9, 82, 80
11, 50996, Note_off_c, 9, 36, 0
11, 50996, Note_off_c, 9, 82, 0
11, 51120, Note_on_c, 9, 40, 120
11, 51120, Note_on_c, 9, 42, 90
11, 51120, Note_on_c, 9, 82, 60
11, 51236, Note_off_c, 9, 40, 0
11, 51236, Note_off_c, 9, 42, 0
11, 51236, Note_off_c, 9, 82, 0
11, 51360, Note_on_c, 9, 36, 100
11, 51360, Note_on_c, 9, 82, 80
11, 51476, Note_off_c, 9, 36, 0
11, 51476, Note_off_c, 9, 82, 0
11, 51600, Note_on_c, 9, 46, 90
11, 51600, Note_on_c, 9, 82, 60
11, 51716, Note_off_c, 9, 46, 0
11, 51716, Note_off_c, 9, 82, 0
11, 51840, Note_on_c, 9, 36, 120
11, 51840, Note_on_c, 9, 42, 90
11, 51840, Note_on_c, 9, 82, 80
11, 51956, Note_off_c, 9, 36, 0
11, 51956, Note_off_c, 9, 42, 0
11, 51956, Note_off_c, 9, 82, 0
11, 52080, Note_on_c, 9, 82, 60
11, 52196, Note_off_c, 9, 82, 0
11, 52320, Note_on_c, 9, 82, 80
11, 52436, Note_off_c, 9, 82, 0
11, 52560, Note_on_c, 9, 40, 120
11, 52560, Note_on_c, 9, 42, 90
11, 52560, Note_on_c, 9, 82, 60
11, 52676, Note_off_c, 9, 40, 0
11, 52676, Note_off_c, 9, 42, 0
11, 52676, Note_off_c, 9, 82, 0
11, 52800, Note_on_c, 9, 82, 80
11, 52916, Note_off_c, 9, 82, 0
11, 53040, Note_on_c, 9, 36, 90
11, 53040, Note_on_c, 9, 82, 60
11, 53156, Note_off_c, 9, 36, 0
11, 53156, Note_off_c, 9, 82, 0
11, 53280, Note_on_c, 9, 36, 120
11, 53280, Note_on_c, 9, 42, 90
11, 53280, Note_on_c, 9, 82, 80
11, 53396, Note_off_c, 9, 36, 0
11, 53396, Note_off_c, 9, 42, 0
11, 53396, Note_off_c, 9, 82, 0
11, 53520, Note_on_c, 9, 82, 60
11, 53636, Note_off_c, 9, 82, 0
11, 53760, Note_on_c, 9, 82, 80
11, 53876, Note_off_c, 9, 82, 0
11, 54000, Note_on_c, 9, 40, 120
11, 54000, Note_on_c, 9, 42, 90
11, 54000, Note_on_c, 9, 82, 60
11, 54116, Note_off_c, 9, 40, 0
11, 54116, Note_off_c, 9, 42, 0
11, 54116, Note_off_c, 9, 82, 0
11, 54240, Note_on_c, 9, 82, 80
11, 54356, Note_off_c, 9, 82, 0
11, 54480, Note_on_c, 9, 46, 90
11, 54480, Note_on_c, 9, 82, 60
11, 54596, Note_off_c, 9, 46, 0
11, 54596, Note_off_c, 9, 82, 0
11, 54720, Note_on_c, 9, 36, 120
11, 54720, Note_on_c, 9, 42, 90
11, 54720, Note_on_c, 9, 82, 80
11, 54836, Note_off_c, 9, 36, 0
11, 54836, Note_off_c, 9, 42, 0
11, 54836, Note_off_c, 9, 82, 0
11, 54960, Note_on_c, 9, 82, 60
11, 55076, Note_off_c, 9, 82, 0
11, 55200, Note_on_c, 9, 82, 80
11, 55316, Note_off_c, 9, 82, 0
11, 55440, Note_on_c, 9, 40, 120
11, 55440, Note_on_c, 9, 42, 90
11, 55440, Note_on_c, 9, 82, 60
11, 55556, Note_off_c, 9, 40, 0
11, 55556, Note_off_c, 9, 42, 0
11, 55556, Note_off_c, 9, 82, 0
11, 55680, Note_on_c, 9, 82, 80
11, 55796, Note_off_c, 9, 82, 0
11, 55920, Note_on_c, 9, 36, 90
11, 55920, Note_on_c, 9, 40, 80
11, 55920, Note_on_c, 9, 82, 60
11, 56036, Note_off_c, 9, 36, 0
11, 56036, Note_off_c, 9, 40, 0
11, 56036, Note_off_c, 9, 82, 0
11, 56160, Note_on_c, 9, 36, 120
11, 56160, Note_on_c, 9, 42, 90
11, 56160, Note_on_c, 9, 82, 80
11, 56276, Note_off_c, 9, 36, 0
11, 56276, Note_off_c, 9, 42, 0
11, 56276, Note_off_c, 9, 82, 0
11, 56400, Note_on_c, 9, 82, 60
11, 56516, Note_off_c, 9, 82, 0
11, 56640, Note_on_c, 9, 82, 80
11, 56756, Note_off_c, 9, 82, 0
11, 56880, Note_on_c, 9, 40, 120
11, 56880, Note_on_c, 9, 42, 90
11, 56880, Note_on_c, 9, 82, 60
11, 56996, Note_off_c, 9, 40, 0
11, 56996, Note_off_c, 9, 42, 0
11, 56996, Note_off_c, 9, 82, 0
11, 57120, Note_on_c, 9, 82, 80
11, 57236, Note_off_c, 9, 82, 0
11, 57360, Note_on_c, 9, 46, 90
11, 57360, Note_on_c, 9, 82, 60
11, 57476, Note_off_c, 9, 46, 0
11, 57476, Note_off_c, 9, 82, 0
11, 57600, Note_on_c, 9, 36, 120
11, 57600, Note_on_c, 9, 42, 90
11, 57600, Note_on_c, 9, 82, 80
11, 57716, Note_off_c, 9, 36, 0
11, 57716, Note_off_c, 9, 42, 0
11, 57716, Note_off_c, 9, 82, 0
11, 57840, Note_on_c, 9, 82, 60
11, 57956, Note_off_c, 9, 82, 0
11, 58080, Note_on_c, 9, 36, 100
11, 58080, Note_on_c, 9, 82, 80
11, 58196, Note_off_c, 9, 36, 0
11, 58196, Note_off_c, 9, 82, 0
11, 58320, Note_on_c, 9, 40, 120
11, 58320, Note_on_c, 9, 42, 90
11, 58320, Note_on_c, 9, 82, 60
11, 58436, Note_off_c, 9, 40, 0
11, 58436, Note_off_c, 9, 42, 0
11, 58436, Note_off_c, 9, 82, 0
11, 58560, Note_on_c, 9, 36, 90
11, 58560, Note_on_c, 9, 82, 80
11, 58676, Note_off_c, 9, 36, 0
11, 58676, Note_off_c, 9, 82, 0
11, 58800, Note_on_c, 9, 36, 90
11, 58800, Note_on_c, 9, 82, 60
11, 58916, Note_off_c, 9, 36, 0
11, 58916, Note_off_c, 9, 82, 0
11, 59040, Note_on_c, 9, 36, 120
11, 59040, Note_on_c, 9, 42, 90
11, 59040, Note_on_c, 9, 82, 80
11, 59156, Note_off_c, 9, 36, 0
11, 59156, Note_off_c, 9, 42, 0
11, 59156, Note_off_c, 9, 82, 0
11, 59280, Note_on_c, 9, 82, 60
11, 59396, Note_off_c, 9, 82, 0
11, 59520, Note_on_c, 9, 36, 80
11, 59520, Note_on_c, 9, 82, 80
11, 59636, Note_off_c, 9, 36, 0
11, 59636, Note_off_c, 9, 82, 0
11, 59760, Note_on_c, 9, 40, 120
11, 59760, Note_on_c, 9, 42, 90
11, 59760, Note_on_c, 9, 82, 60
11, 59876, Note_off_c, 9, 40, 0
11, 59876, Note_off_c, 9, 42, 0
11, 59876, Note_off_c, 9, 82, 0
11, 60000, Note_on_c, 9, 36, 100
11, 60000, Note_on_c, 9, 82, 80
11, 60116, Note_off_c, 9, 36, 0
11, 60116, Note_off_c, 9, 82, 0
11, 60240, Note_on_c, 9, 42, 90
11, 60240, Note_on_c, 9, 82, 60
11, 60356, Note_off_c, 9, 42, 0
11, 60356, Note_off_c, 9, 82, 0
11, 60480, Note_on_c, 9, 36, 120
11, 60480, Note_on_c, 9, 42, 90
11, 60480, Note_on_c, 9, 82, 80
11, 60596, Note_off_c, 9, 36, 0
11, 60596, Note_off_c, 9, 42, 0
11, 60596, Note_off_c, 9, 82, 0
11, 60720, Note_on_c, 9, 82, 60
11, 60836, Note_off_c, 9, 82, 0
11, 60960, Note_on_c, 9, 82, 80
11, 61076, Note_off_c, 9, 82, 0
11, 61200, Note_on_c, 9, 40, 120
11, 61200, Note_on_c, 9, 42, 90
11, 61200, Note_on_c, 9, 82, 60
11, 61316, Note_off_c, 9, 40, 0
11, 61316, Note_off_c, 9, 42, 0
11, 61316, Note_off_c, 9, 82, 0
11, 61440, Note_on_c, 9, 82, 80
11, 61556, Note_off_c, 9, 82, 0
11, 61680, Note_on_c, 9, 40, 80
11, 61680, Note_on_c, 9, 82, 60
11, 61796, Note_off_c, 9, 40, 0
11, 61796, Note_off_c, 9, 82, 0
11, 61920, Note_on_c, 9, 36, 100
11, 61920, Note_on_c, 9, 42, 90
11, 61920, Note_on_c, 9, 82, 80
11, 62036, Note_off_c, 9, 36, 0
11, 62036, Note_off_c, 9, 42, 0
11, 62036, Note_off_c, 9, 82, 0
11, 62160, Note_on_c, 9, 82, 60
11, 62276, Note_off_c, 9, 82, 0
11, 62400, Note_on_c, 9, 36, 100
11, 62400, Note_on_c, 9, 82, 80
11, 62516, Note_off_c, 9, 36, 0
11, 62516, Note_off_c, 9, 82, 0
11, 62640, Note_on_c, 9, 40, 120
11, 62640, Note_on_c, 9, 42, 90
11, 62640, Note_on_c, 9, 82, 60
11, 62756, Note_off_c, 9, 40, 0
11, 62756, Note_off_c, 9, 42, 0
11, 62756, Note_off_c, 9, 82, 0
11, 62880, Note_on_c, 9, 36, 100
11, 62880, Note_on_c, 9, 82, 80
11, 62996, Note_off_c, 9, 36, 0
11, 62996, Note_off_c, 9, 82, 0
11, 63120, Note_on_c, 9, 46, 90
11, 63120, Note_on_c, 9, 82, 60
11, 63236, Note_off_c, 9, 46, 0
11, 63236, Note_off_c, 9, 82, 0
11, 63360, Note_on_c, 9, 36, 120
11, 63360, Note_on_c, 9, 42, 90
11, 63360, Note_on_c, 9, 82, 80
11, 63476, Note_off_c, 9, 36, 0
11, 63476, Note_off_c, 9, 42, 0
11, 63476, Note_off_c, 9, 82, 0
11, 63600, Note_on_c, 9, 82, 60
11, 63716, Note_off_c, 9, 82, 0
11, 63840, Note_on_c, 9, 82, 80
11, 63956, Note_off_c, 9, 82, 0
11, 64080, Note_on_c, 9, 40, 120
11, 64080, Note_on_c, 9, 42, 90
11, 64080, Note_on_c, 9, 82, 60
11, 64196, Note_off_c, 9, 40, 0
11, 64196, Note_off_c, 9, 42, 0
11, 64196, Note_off_c, 9, 82, 0
11, 64320, Note_on_c, 9, 82, 80
11, 64436, Note_off_c, 9, 82, 0
11, 64560, Note_on_c, 9, 36, 90
11, 64560, Note_on_c, 9, 82, 60
11, 64676, Note_off_c, 9, 36, 0
11, 64676, Note_off_c, 9, 82, 0
11, 64800, Note_on_c, 9, 36, 120
11, 64800, Note_on_c, 9, 42, 90
11, 64800, Note_on_c, 9, 82, 80
11, 64916, Note_off_c, 9, 36, 0
11, 64916, Note_off_c, 9, 42, 0
11, 64916, Note_off_c, 9, 82, 0
11, 65040, Note_on_c, 9, 82, 60
11, 65156, Note_off_c, 9, 82, 0
11, 65280, Note_on_c, 9, 82, 80
11, 65396, Note_off_c, 9, 82, 0
11, 65520, Note_on_c, 9, 40, 120
11, 65520, Note_on_c, 9, 42, 90
11, 65520, Note_on_c, 9, 82, 60
11, 65636, Note_off_c, 9, 40, 0
11, 65636, Note_off_c, 9, 42, 0
11, 65636, Note_off_c, 9, 82, 0
11, 65760, Note_on_c, 9, 82, 80
11, 65876, Note_off_c, 9, 82, 0
11, 66000, Note_on_c, 9, 46, 90
11, 66000, Note_on_c, 9, 82, 60
11, 66116, Note_off_c, 9, 46, 0
11, 66116, Note_off_c, 9, 82, 0
11, 66240, Note_on_c, 9, 36, 120
11, 66240, Note_on_c, 9, 42, 90
11, 66240, Note_on_c, 9, 82, 80
11, 66356, Note_off_c, 9, 36, 0
11, 66356, Note_off_c, 9, 42, 0
11, 66356, Note_off_c, 9, 82, 0
11, 66480, Note_on_c, 9, 82, 60
11, 66596, Note_off_c, 9, 82, 0
11, 66720, Note_on_c, 9, 82, 80
11, 66836, Note_off_c, 9, 82, 0
11, 66960, Note_on_c, 9, 40, 120
11, 66960, Note_on_c, 9, 42, 90
11, 66960, Note_on_c, 9, 82, 60
11, 67076, Note_off_c, 9, 40, 0
11, 67076, Note_off_c, 9, 42, 0
11, 67076, Note_off_c, 9, 82, 0
11, 67200, Note_on_c, 9, 82, 80
11, 67316, Note_off_c, 9, 82, 0
11, 67440, Note_on_c, 9, 36, 90
11, 67440, Note_on_c, 9, 40, 80
11, 67440, Note_on_c, 9, 82, 60
11, 67556, Note_off_c, 9, 36, 0
11, 67556, Note_off_c, 9, 40, 0
11, 67556, Note_off_c, 9, 82, 0
11, 67680, Note_on_c, 9, 36, 120
11, 67680, Note_on_c, 9, 42, 90
11, 67680, Note_on_c, 9, 82, 80
11, 67796, Note_off_c, 9, 36, 0
11, 67796, Note_off_c, 9, 42, 0
11, 67796, Note_off_c, 9, 82, 0
11, 67920, Note_on_c, 9, 82, 60
11, 68036, Note_off_c, 9, 82, 0
11, 68160, Note_on_c, 9, 82, 80
11, 68276, Note_off_c, 9, 82, 0
11, 68400, Note_on_c, 9, 40, 120
11, 68400, Note_on_c, 9, 42, 90
11, 68400, Note_on_c, 9, 82, 60
11, 68516, Note_off_c, 9, 40, 0
11, 68516, Note_off_c, 9, 42, 0
11, 68516, Note_off_c, 9, 82, 0
11, 68640, Note_on_c, 9, 82, 80
11, 68756, Note_off_c, 9, 82, 0
11, 68880, Note_on_c, 9, 46, 90
11, 68880, Note_on_c, 9, 82, 60
11, 68996, Note_off_c, 9, 46, 0
11, 68996, Note_off_c, 9, 82, 0
11, 69120, Note_on_c, 9, 36, 120
11, 69120, Note_on_c, 9, 42, 90
11, 69120, Note_on_c, 9, 82, 80
11, 69236, Note_off_c, 9, 36, 0
11, 69236, Note_off_c, 9, 42, 0
11, 69236, Note_off_c, 9, 82, 0
11, 69360, Note_on_c, 9, 82, 60
11, 69476, Note_off_c, 9, 82, 0
11, 69600, Note_on_c, 9, 36, 100
11, 69600, Note_on_c, 9, 82, 80
11, 69716, Note_off_c, 9, 36, 0
11, 69716, Note_off_c, 9, 82, 0
11, 69840, Note_on_c, 9, 40, 120
11, 69840, Note_on_c, 9, 42, 90
11, 69840, Note_on_c, 9, 82, 60
11, 69956, Note_off_c, 9, 40, 0
11, 69956, Note_off_c, 9, 42, 0
11, 69956, Note_off_c, 9, 82, 0
11, 70080, Note_on_c, 9, 36, 90
11, 70080, Note_on_c, 9, 82, 80
11, 70196, Note_off_c, 9, 36, 0
11, 70196, Note_off_c, 9, 82, 0
11, 70320, Note_on_c, 9, 36, 90
11, 70320, Note_on_c, 9, 82, 60
11, 70436, Note_off_c, 9, 36, 0
11, 70436, Note_off_c, 9, 82, 0
11, 70560, Note_on_c, 9, 36, 120
11, 70560, Note_on_c, 9, 42, 90
11, 70560, Note_on_c, 9, 82, 80
11, 70676, Note_off_c, 9, 36, 0
11, 70676, Note_off_c, 9, 42, 0
11, 70676, Note_off_c, 9, 82, 0
11, 70800, Note_on_c, 9, 82, 60
11, 70916, Note_off_c, 9, 82, 0
11, 71040, Note_on_c, 9, 36, 80
11, 71040, Note_on_c, 9, 82, 80
11, 71156, Note_off_c, 9, 36, 0
11, 71156, Note_off_c, 9, 82, 0
11, 71280, Note_on_c, 9, 36, 100
11, 71280, Note_on_c, 9, 40, 120
11, 71280, Note_on_c, 9, 42, 90
11, 71280, Note_on_c, 9, 82, 60
11, 71396, Note_off_c, 9, 36, 0
11, 71396, Note_off_c, 9, 40, 0
11, 71396, Note_off_c, 9, 42, 0
11, 71396, Note_off_c, 9, 82, 0
11, 71520, Note_on_c, 9, 82, 80
11, 71636, Note_off_c, 9, 82, 0
11, 71760, Note_on_c, 9, 36, 90
11, 71760, Note_on_c, 9, 42, 90
11, 71760, Note_on_c, 9, 82, 60
11, 71876, Note_off_c, 9, 36, 0
11, 71876, Note_off_c, 9, 42, 0
11, 71876, Note_off_c, 9, 82, 0
11, 72000, Note_on_c, 9, 36, 120
11, 72000, Note_on_c, 9, 42, 90
11, 72000, Note_on_c, 9, 82, 80
11, 72116, Note_off_c, 9, 36, 0
11, 72116, Note_off_c, 9, 42, 0
11, 72116, Note_off_c, 9, 82, 0
11, 72240, Note_on_c, 9, 82, 60
11, 72356, Note_off_c, 9, 82, 0
11, 72480, Note_on_c, 9, 82, 80
11, 72596, Note_off_c, 9, 82, 0
11, 72720, Note_on_c, 9, 40, 120
11, 72720, Note_on_c, 9, 42, 90
11, 72720, Note_on_c, 9, 82, 60
11, 72836, Note_off_c, 9, 40, 0
11, 72836, Note_off_c, 9, 42, 0
11, 72836, Note_off_c, 9, 82, 0
11, 72960, Note_on_c, 9, 82, 80
11, 73076, Note_off_c, 9, 82, 0
11, 73200, Note_on_c, 9, 40, 80
11, 73200, Note_on_c, 9, 82, 60
11, 73316, Note_off_c, 9, 40, 0
11, 73316, Note_off_c, 9, 82, 0
11, 73440, Note_on_c, 9, 36, 100
11, 73440, Note_on_c, 9, 42, 90
11, 73440, Note_on_c, 9, 82, 80
11, 73556, Note_off_c, 9, 36, 0
11, 73556, Note_off_c, 9, 42, 0
11, 73556, Note_off_c, 9, 82, 0
11, 73680, Note_on_c, 9, 82, 60
11, 73796, Note_off_c, 9, 82, 0
11, 73920, Note_on_c, 9, 36, 100
11, 73920, Note_on_c, 9, 82, 80
11, 74036, Note_off_c, 9, 36, 0
11, 74036, Note_off_c, 9, 82, 0
11, 74160, Note_on_c, 9, 40, 120
11, 74160, Note_on_c, 9, 42, 90
11, 74160, Note_on_c, 9, 82, 60
11, 74276, Note_off_c, 9, 40, 0
11, 74276, Note_off_c, 9, 42, 0
11, 74276, Note_off_c, 9, 82, 0
11, 74400, Note_on_c, 9, 36, 100
11, 74400, Note_on_c, 9, 82, 80
11, 74516, Note_off_c, 9, 36, 0
11, 74516, Note_off_c, 9, 82, 0
11, 74640, Note_on_c, 9, 46, 90
11, 74640, Note_on_c, 9, 82, 60
11, 74756, Note_off_c, 9, 46, 0
11, 74756, Note_off_c, 9, 82, 0
11, 74880, Note_on_c, 9, 36, 120
11, 74880, Note_on_c, 9, 42, 90
11, 74880, Note_on_c, 9, 82, 80
11, 74996, Note_off_c, 9, 36, 0
11, 74996, Note_off_c, 9, 42, 0
11, 74996, Note_off_c, 9, 82, 0
11, 75120, Note_on_c, 9, 82, 60
11, 75236, Note_off_c, 9, 82, 0
11, 75360, Note_on_c, 9, 82, 80
11, 75476, Note_off_c, 9, 82, 0
11, 75600, Note_on_c, 9, 40, 120
11, 75600, Note_on_c, 9, 42, 90
11, 75600, Note_on_c, 9, 82, 60
11, 75716, Note_off_c, 9, 40, 0
11, 75716, Note_off_c, 9, 42, 0
11, 75716, Note_off_c, 9, 82, 0
11, 75840, Note_on_c, 9, 82, 80
11, 75956, Note_off_c, 9, 82, 0
11, 76080, Note_on_c, 9, 36, 90
11, 76080, Note_on_c, 9, 82, 60
11, 76196, Note_off_c, 9, 36, 0
11, 76196, Note_off_c, 9, 82, 0
11, 76320, Note_on_c, 9, 36, 120
11, 76320, Note_on_c, 9, 42, 90
11, 76320, Note_on_c, 9, 82, 80
11, 76436, Note_off_c, 9, 36, 0
11, 76436, Note_off_c, 9, 42, 0
11, 76436, Note_off_c, 9, 82, 0
11, 76560, Note_on_c, 9, 82, 60
11, 76676, Note_off_c, 9, 82, 0
11, 76800, Note_on_c, 9, 82, 80
11, 76916, Note_off_c, 9, 82, 0
11, 77040, Note_on_c, 9, 40, 120
11, 77040, Note_on_c, 9, 42, 90
11, 77040, Note_on_c, 9, 82, 60
11, 77156, Note_off_c, 9, 40, 0
11, 77156, Note_off_c, 9, 42, 0
11, 77156, Note_off_c, 9, 82, 0
11, 77280, Note_on_c, 9, 82, 80
11, 77396, Note_off_c, 9, 82, 0
11, 77520, Note_on_c, 9, 46, 90
11, 77520, Note_on_c, 9, 82, 60
11, 77636, Note_off_c, 9, 46, 0
11, 77636, Note_off_c, 9, 82, 0
11, 77760, Note_on_c, 9, 36, 120
11, 77760, Note_on_c, 9, 42, 90
11, 77760, Note_on_c, 9, 82, 80
11, 77876, Note_off_c, 9, 36, 0
11, 77876, Note_off_c, 9, 42, 0
11, 77876, Note_off_c, 9, 82, 0
11, 78000, Note_on_c, 9, 82, 60
11, 78116, Note_off_c, 9, 82, 0
11, 78240, Note_on_c, 9, 82, 80
11, 78356, Note_off_c, 9, 82, 0
11, 78480, Note_on_c, 9, 40, 120
11, 78480, Note_on_c, 9, 42, 90
11, 78480, Note_on_c, 9, 82, 60
11, 78596, Note_off_c, 9, 40, 0
11, 78596, Note_off_c, 9, 42, 0
11, 78596, Note_off_c, 9, 82, 0
11, 78720, Note_on_c, 9, 82, 80
11, 78836, Note_off_c, 9, 82, 0
11, 78960, Note_on_c, 9, 36, 90
11, 78960, Note_on_c, 9, 40, 80
11, 78960, Note_on_c, 9, 82, 60
11, 79076, Note_off_c, 9, 36, 0
11, 79076, Note_off_c, 9, 40, 0
11, 79076, Note_off_c, 9, 82, 0
11, 79200, Note_on_c, 9, 36, 120
11, 79200, Note_on_c, 9, 42, 90
11, 79200, Note_on_c, 9, 82, 80
11, 79316, Note_off_c, 9, 36, 0
11, 79316, Note_off_c, 9, 42, 0
11, 79316, Note_off_c, 9, 82, 0
11, 79440, Note_on_c, 9, 82, 60
11, 79556, Note_off_c, 9, 82, 0
11, 79680, Note_on_c, 9, 82, 80
11, 79796, Note_off_c, 9, 82, 0
11, 79920, Note_on_c, 9, 40, 120
11, 79920, Note_on_c, 9, 42, 90
11, 79920, Note_on_c, 9, 82, 60
11, 80036, Note_off_c, 9, 40, 0
11, 80036, Note_off_c, 9, 42, 0
11, 80036, Note_off_c, 9, 82, 0
11, 80160, Note_on_c, 9, 82, 80
11, 80276, Note_off_c, 9, 82, 0
11, 80400, Note_on_c, 9, 46, 90
11, 80400, Note_on_c, 9, 82, 60
11, 80516, Note_off_c, 9, 46, 0
11, 80516, Note_off_c, 9, 82, 0
11, 80640, Note_on_c, 9, 36, 120
11, 80640, Note_on_c, 9, 42, 90
11, 80640, Note_on_c, 9, 82, 80
11, 80756, Note_off_c, 9, 36, 0
11, 80756, Note_off_c, 9, 42, 0
11, 80756, Note_off_c, 9, 82, 0
11, 80880, Note_on_c, 9, 82, 60
11, 80996, Note_off_c, 9, 82, 0
11, 81120, Note_on_c, 9, 82, 80
11, 81236, Note_off_c, 9, 82, 0
11, 81360, Note_on_c, 9, 40, 120
11, 81360, Note_on_c, 9, 42, 90
11, 81360, Note_on_c, 9, 82, 60
11, 81476, Note_off_c, 9, 40, 0
11, 81476, Note_off_c, 9, 42, 0
11, 81476, Note_off_c, 9, 82, 0
11, 81600, Note_on_c, 9, 82, 80
11, 81716, Note_off_c, 9, 82, 0
11, 81840, Note_on_c, 9, 36, 90
11, 81840, Note_on_c, 9, 82, 60
11, 81956, Note_off_c, 9, 36, 0
11, 81956, Note_off_c, 9, 82, 0
11, 82080, Note_on_c, 9, 36, 120
11, 82080, Note_on_c, 9, 42, 90
11, 82080, Note_on_c, 9, 82, 80
11, 82196, Note_off_c, 9, 36, 0
11, 82196, Note_off_c, 9, 42, 0
11, 82196, Note_off_c, 9, 82, 0
11, 82320, Note_on_c, 9, 82, 60
11, 82436, Note_off_c, 9, 82, 0
11, 82560, Note_on_c, 9, 36, 80
11, 82560, Note_on_c, 9, 82, 80
11, 82676, Note_off_c, 9, 36, 0
11, 82676, Note_off_c, 9, 82, 0
11, 82800, Note_on_c, 9, 40, 120
11, 82800, Note_on_c, 9, 42, 90
11, 82800, Note_on_c, 9, 82, 60
11, 82916, Note_off_c, 9, 40, 0
11, 82916, Note_off_c, 9, 42, 0
11, 82916, Note_off_c, 9, 82, 0
11, 83040, Note_on_c, 9, 36, 100
11, 83040, Note_on_c, 9, 82, 80
11, 83156, Note_off_c, 9, 36, 0
11, 83156, Note_off_c, 9, 82, 0
11, 83280, Note_on_c, 9, 42, 90
11, 83280, Note_on_c, 9, 82, 60
11, 83396, Note_off_c, 9, 42, 0
11, 83396, Note_off_c, 9, 82, 0
11, 83520, Note_on_c, 9, 36, 120
11, 83520, Note_on_c, 9, 42, 90
11, 83520, Note_on_c, 9, 82, 80
11, 83636, Note_off_c, 9, 36, 0
11, 83636, Note_off_c, 9, 42, 0
11, 83636, Note_off_c, 9, 82, 0
11, 83760, Note_on_c, 9, 82, 60
11, 83876, Note_off_c, 9, 82, 0
11, 84000, Note_on_c, 9, 82, 80
11, 84116, Note_off_c, 9, 82, 0
11, 84240, Note_on_c, 9, 40, 120
11, 84240, Note_on_c, 9, 42, 90
11, 84240, Note_on_c, 9, 82, 60
11, 84356, Note_off_c, 9, 40, 0
11, 84356, Note_off_c, 9, 42, 0
11, 84356, Note_off_c, 9, 82, 0
11, 84480, Note_on_c, 9, 82, 80
11, 84596, Note_off_c, 9, 82, 0
11, 84720, Note_on_c, 9, 40, 80
11, 84720, Note_on_c, 9, 82, 60
11, 84836, Note_off_c, 9, 40, 0
11, 84836, Note_off_c, 9, 82, 0
11, 84960, Note_on_c, 9, 36, 100
11, 84960, Note_on_c, 9, 42, 90
11, 84960, Note_on_c, 9, 82, 80
11, 85076, Note_off_c, 9, 36, 0
11, 85076, Note_off_c, 9, 42, 0
11, 85076, Note_off_c, 9, 82, 0
11, 85200, Note_on_c, 9, 82, 60
11, 85316, Note_off_c, 9, 82, 0
11, 85440, Note_on_c, 9, 36, 100
11, 85440, Note_on_c, 9, 82, 80
11, 85556, Note_off_c, 9, 36, 0
11, 85556, Note_off_c, 9, 82, 0
11, 85680, Note_on_c, 9, 40, 120
11, 85680, Note_on_c, 9, 42, 90
11, 85680, Note_on_c, 9, 82, 60
11, 85796, Note_off_c, 9, 40, 0
11, 85796, Note_off_c, 9, 42, 0
11, 85796, Note_off_c, 9, 82, 0
11, 85920, Note_on_c, 9, 36, 100
11, 85920, Note_on_c, 9, 82, 80
11, 86036, Note_off_c, 9, 36, 0
11, 86036, Note_off_c, 9, 82, 0
11, 86160, Note_on_c, 9, 46, 90
11, 86160, Note_on_c, 9, 82, 60
11, 86276, Note_off_c, 9, 46, 0
11, 86276, Note_off_c, 9, 82, 0
11, 86400, Note_on_c, 9, 36, 120
11, 86400, Note_on_c, 9, 42, 90
11, 86400, Note_on_c, 9, 82, 80
11, 86516, Note_off_c, 9, 36, 0
11, 86516, Note_off_c, 9, 42, 0
11, 86516, Note_off_c, 9, 82, 0
11, 86640, Note_on_c, 9, 82, 60
11, 86756, Note_off_c, 9, 82, 0
11, 86880, Note_on_c, 9, 82, 80
11, 86996, Note_off_c, 9, 82, 0
11, 87120, Note_on_c, 9, 40, 120
11, 87120, Note_on_c, 9, 42, 90
11, 87120, Note_on_c, 9, 82, 60
11, 87236, Note_off_c, 9, 40, 0
11, 87236, Note_off_c, 9, 42, 0
11, 87236, Note_off_c, 9, 82, 0
11, 87360, Note_on_c, 9, 82, 80
11, 87476, Note_off_c, 9, 82, 0
11, 87600, Note_on_c, 9, 36, 90
11, 87600, Note_on_c, 9, 82, 60
11, 87716, Note_off_c, 9, 36, 0
11, 87716, Note_off_c, 9, 82, 0
11, 87840, Note_on_c, 9, 36, 120
11, 87840, Note_on_c, 9, 42, 90
11, 87840, Note_on_c, 9, 82, 80
11, 87956, Note_off_c, 9, 36, 0
11, 87956, Note_off_c, 9, 42, 0
11, 87956, Note_off_c, 9, 82, 0
11, 88080, Note_on_c, 9, 82, 60
11, 88196, Note_off_c, 9, 82, 0
11, 88320, Note_on_c, 9, 82, 80
11, 88436, Note_off_c, 9, 82, 0
11, 88560, Note_on_c, 9, 40, 120
11, 88560, Note_on_c, 9, 42, 90
11, 88560, Note_on_c, 9, 82, 60
11, 88676, Note_off_c, 9, 40, 0
11, 88676, Note_off_c, 9, 42, 0
11, 88676, Note_off_c, 9, 82, 0
11, 88800, Note_on_c, 9, 82, 80
11, 88916, Note_off_c, 9, 82, 0
11, 89040, Note_on_c, 9, 46, 90
11, 89040, Note_on_c, 9, 82, 60
11, 89156, Note_off_c, 9, 46, 0
11, 89156, Note_off_c, 9, 82, 0
11, 89280, Note_on_c, 9, 36, 120
11, 89280, Note_on_c, 9, 42, 90
11, 89280, Note_on_c, 9, 82, 80
11, 89396, Note_off_c, 9, 36, 0
11, 89396, Note_off_c, 9, 42, 0
11, 89396, Note_off_c, 9, 82, 0
11, 89520, Note_on_c, 9, 82, 60
11, 89636, Note_off_c, 9, 82, 0
11, 89760, Note_on_c, 9, 82, 80
11, 89876, Note_off_c, 9, 82, 0
11, 90000, Note_on_c, 9, 40, 120
11, 90000, Note_on_c, 9, 42, 90
11, 90000, Note_on_c, 9, 82, 60
11, 90116, Note_off_c, 9, 40, 0
11, 90116, Note_off_c, 9, 42, 0
11, 90116, Note_off_c, 9, 82, 0
11, 90240, Note_on_c, 9, 82, 80
11, 90356, Note_off_c, 9, 82, 0
11, 90480, Note_on_c, 9, 36, 90
11, 90480, Note_on_c, 9, 40, 80
11, 90480, Note_on_c, 9, 82, 60
11, 90596, Note_off_c, 9, 36, 0
11, 90596, Note_off_c, 9, 40, 0
11, 90596, Note_off_c, 9, 82, 0
11, 90720, Note_on_c, 9, 36, 120
11, 90720, Note_on_c, 9, 42, 90
11, 90720, Note_on_c, 9, 82, 80
11, 90836, Note_off_c, 9, 36, 0
11, 90836, Note_off_c, 9, 42, 0
11, 90836, Note_off_c, 9, 82, 0
11, 90960, Note_on_c, 9, 82, 60
11, 91076, Note_off_c, 9, 82, 0
11, 91200, Note_on_c, 9, 82, 80
11, 91316, Note_off_c, 9, 82, 0
11, 91440, Note_on_c, 9, 40, 120
11, 91440, Note_on_c, 9, 42, 90
11, 91440, Note_on_c, 9, 82, 60
11, 91556, Note_off_c, 9, 40, 0
11, 91556, Note_off_c, 9, 42, 0
11, 91556, Note_off_c, 9, 82, 0
11, 91680, Note_on_c, 9, 82, 80
11, 91796, Note_off_c, 9, 82, 0
11, 91920, Note_on_c, 9, 46, 90
11, 91920, Note_on_c, 9, 82, 60
11, 92036, Note_off_c, 9, 46, 0
11, 92036, Note_off_c, 9, 82, 0
11, 92160, Note_on_c, 9, 36, 120
11, 92160, Note_on_c, 9, 42, 90
11, 92160, Note_on_c, 9, 82, 80
11, 92276, Note_off_c, 9, 36, 0
11, 92276, Note_off_c, 9, 42, 0
11, 92276, Note_off_c, 9, 82, 0
11, 92400, Note_on_c, 9, 82, 60
11, 92516, Note_off_c, 9, 82, 0
11, 92640, Note_on_c, 9, 82, 80
11, 92756, Note_off_c, 9, 82, 0
11, 92880, Note_on_c, 9, 40, 120
11, 92880, Note_on_c, 9, 42, 90
11, 92880, Note_on_c, 9, 82, 60
11, 92996, Note_off_c, 9, 40, 0
11, 92996, Note_off_c, 9, 42, 0
11, 92996, Note_off_c, 9, 82, 0
11, 93120, Note_on_c, 9, 82, 80
11, 93236, Note_off_c, 9, 82, 0
11, 93360, Note_on_c, 9, 36, 90
11, 93360, Note_on_c, 9, 82, 60
11, 93476, Note_off_c, 9, 36, 0
11, 93476, Note_off_c, 9, 82, 0
11, 93600, Note_on_c, 9, 36, 120
11, 93600, Note_on_c, 9, 42, 90
11, 93600, Note_on_c, 9, 82, 80
11, 93716, Note_off_c, 9, 36, 0
11, 93716, Note_off_c, 9, 42, 0
11, 93716, Note_off_c, 9, 82, 0
11, 93840, Note_on_c, 9, 82, 60
11, 93956, Note_off_c, 9, 82, 0
11, 94080, Note_on_c, 9, 36, 80
11, 94080, Note_on_c, 9, 82, 80
11, 94196, Note_off_c, 9, 36, 0
11, 94196, Note_off_c, 9, 82, 0
11, 94320, Note_on_c, 9, 36, 100
11, 94320, Note_on_c, 9, 40, 120
11, 94320, Note_on_c, 9, 42, 90
11, 94320, Note_on_c, 9, 82, 60
11, 94436, Note_off_c, 9, 36, 0
11, 94436, Note_off_c, 9, 40, 0
11, 94436, Note_off_c, 9, 42, 0
11, 94436, Note_off_c, 9, 82, 0
11, 94560, Note_on_c, 9, 82, 80
11, 94676, Note_off_c, 9, 82, 0
11, 94800, Note_on_c, 9, 36, 90
11, 94800, Note_on_c, 9, 42, 90
11, 94800, Note_on_c, 9, 82, 60
11, 94916, Note_off_c, 9, 36, 0
11, 94916, Note_off_c, 9, 42, 0
11, 94916, Note_off_c, 9, 82, 0
11, 95040, Note_on_c, 9, 36, 120
11, 95040, Note_on_c, 9, 42, 90
11, 95040, Note_on_c, 9, 82, 80
11, 95156, Note_off_c, 9, 36, 0
11, 95156, Note_off_c, 9, 42, 0
11, 95156, Note_off_c, 9, 82, 0
11, 95280, Note_on_c, 9, 82, 60
11, 95396, Note_off_c, 9, 82, 0
11, 95520, Note_on_c, 9, 82, 80
11, 95636, Note_off_c, 9, 82, 0
11, 95760, Note_on_c, 9, 40, 120
11, 95760, Note_on_c, 9, 42, 90
11, 95760, Note_on_c, 9, 82, 60
11, 95876, Note_off_c, 9, 40, 0
11, 95876, Note_off_c, 9, 42, 0
11, 95876, Note_off_c, 9, 82, 0
11, 96000, Note_on_c, 9, 82, 80
11, 96116, Note_off_c, 9, 82, 0
11, 96240, Note_on_c, 9, 40, 80
11, 96240, Note_on_c, 9, 82, 60
11, 96356, Note_off_c, 9, 40, 0
11, 96356, Note_off_c, 9, 82, 0
11, 96480, Note_on_c, 9, 36, 100
11, 96480, Note_on_c, 9, 42, 90
11, 96480, Note_on_c, 9, 82, 80
11, 96596, Note_off_c, 9, 36, 0
11, 96596, Note_off_c, 9, 42, 0
11, 96596, Note_off_c, 9, 82, 0
11, 96720, Note_on_c, 9, 82, 60
11, 96836, Note_off_c, 9, 82, 0
11, 96960, Note_on_c, 9, 36, 100
11, 96960, Note_on_c, 9, 82, 80
11, 97076, Note_off_c, 9, 36, 0
11, 97076, Note_off_c, 9, 82, 0
11, 97200, Note_on_c, 9, 40, 120
11, 97200, Note_on_c, 9, 42, 90
11, 97200, Note_on_c, 9, 82, 60
11, 97316, Note_off_c, 9, 40, 0
11, 97316, Note_off_c, 9, 42, 0
11, 97316, Note_off_c, 9, 82, 0
11, 97440, Note_on_c, 9, 36, 100
11, 97440, Note_on_c, 9, 82, 80
11, 97556, Note_off_c, 9, 36, 0
11, 97556, Note_off_c, 9, 82, 0
11, 97680, Note_on_c, 9, 46, 90
11, 97680, Note_on_c, 9, 82, 60
11, 97796, Note_off_c, 9, 46, 0
11, 97796, Note_off_c, 9, 82, 0
11, 97920, Note_on_c, 9, 36, 120
11, 97920, Note_on_c, 9, 49, 110
11, 97920, Note_on_c, 9, 82, 80
11, 98036, Note_off_c, 9, 36, 0
11, 98036, Note_off_c, 9, 49, 0
11, 98036, Note_off_c, 9, 82, 0
11, 98160, Note_on_c, 9, 82, 60
11, 98276, Note_off_c, 9, 82, 0
11, 98400, Note_on_c, 9, 82, 80
11, 98516, Note_off_c, 9, 82, 0
11, 98640, Note_on_c, 9, 40, 120
11, 98640, Note_on_c, 9, 42, 90
11, 98640, Note_on_c, 9, 82, 60
11, 98756, Note_off_c, 9, 40, 0
11, 98756, Note_off_c, 9, 42, 0
11, 98756, Note_off_c, 9, 82, 0
11, 98880, Note_on_c, 9, 82, 80
11, 98996, Note_off_c, 9, 82, 0
11, 99120, Note_on_c, 9, 36, 90
11, 99120, Note_on_c, 9, 82, 60
11, 99236, Note_off_c, 9, 36, 0
11, 99236, Note_off_c, 9, 82, 0
11, 99360, Note_on_c, 9, 36, 120
11, 99360, Note_on_c, 9, 42, 90
11, 99360, Note_on_c, 9, 82, 80
11, 99476, Note_off_c, 9, 36, 0
11, 99476, Note_off_c, 9, 42, 0
11, 99476, Note_off_c, 9, 82, 0
11, 99600, Note_on_c, 9, 82, 60
11, 99716, Note_off_c, 9, 82, 0
11, 99840, Note_on_c, 9, 82, 80
11, 99956, Note_off_c, 9, 82, 0
11, 100080, Note_on_c, 9, 40, 120
11, 100080, Note_on_c, 9, 42, 90
11, 100080, Note_on_c, 9, 82, 60
11, 100196, Note_off_c, 9, 40, 0
11, 100196, Note_off_c, 9, 42, 0
11, 100196, Note_off_c, 9, 82, 0
11, 100320, Note_on_c, 9, 82, 80
11, 100436, Note_off_c, 9, 82, 0
11, 100560, Note_on_c, 9, 46, 90
11, 100560, Note_on_c, 9, 82, 60
11, 100676, Note_off_c, 9, 46, 0
11, 100676, Note_off_c, 9, 82, 0
11, 100800, Note_on_c, 9, 36, 120
11, 100800, Note_on_c, 9, 42, 90
11, 100800, Note_on_c, 9, 82, 80
11, 100916, Note_off_c, 9, 36, 0
11, 100916, Note_off_c, 9, 42, 0
11, 100916, Note_off_c, 9, 82, 0
11, 101040, Note_on_c, 9, 82, 60
11, 101156, Note_off_c, 9, 82, 0
11, 101280, Note_on_c, 9, 82, 80
11, 101396, Note_off_c, 9, 82, 0
11, 101520, Note_on_c, 9, 40, 120
11, 101520, Note_on_c, 9, 42, 90
11, 101520, Note_on_c, 9, 82, 60
11, 101636, Note_off_c, 9, 40, 0
11, 101636, Note_off_c, 9, 42, 0
11, 101636, Note_off_c, 9, 82, 0
11, 101760, Note_on_c, 9, 82, 80
11, 101876, Note_off_c, 9, 82, 0
11, 102000, Note_on_c, 9, 36, 90
11, 102000, Note_on_c, 9, 40, 80
11, 102000, Note_on_c, 9, 82, 60
11, 102116, Note_off_c, 9, 36, 0
11, 102116, Note_off_c, 9, 40, 0
11, 102116, Note_off_c, 9, 82, 0
11, 102240, Note_on_c, 9, 36, 120
11, 102240, Note_on_c, 9, 42, 90
11, 102240, Note_on_c, 9, 82, 80
11, 102356, Note_off_c, 9, 36, 0
11, 102356, Note_off_c, 9, 42, 0
11, 102356, Note_off_c, 9, 82, 0
11, 102480, Note_on_c, 9, 82, 60
11, 102596, Note_off_c, 9, 82, 0
11, 102720, Note_on_c, 9, 82, 80
11, 102836, Note_off_c, 9, 82, 0
11, 102960, Note_on_c, 9, 40, 120
11, 102960, Note_on_c, 9, 42, 90
11, 102960, Note_on_c, 9, 82, 60
11, 103076, Note_off_c, 9, 40, 0
11, 103076, Note_off_c, 9, 42, 0
11, 103076, Note_off_c, 9, 82, 0
11, 103200, Note_on_c, 9, 82, 80
11, 103316, Note_off_c, 9, 82, 0
11, 103440, Note_on_c, 9, 46, 90
11, 103440, Note_on_c, 9, 82, 60
11, 103556, Note_off_c, 9, 46, 0
11, 103556, Note_off_c, 9, 82, 0
11, 103680, Note_on_c, 9, 36, 120
11, 103680, Note_on_c, 9, 42, 90
11, 103680, Note_on_c, 9, 82, 80
11, 103796, Note_off_c, 9, 36, 0
11, 103796, Note_off_c, 9, 42, 0
11, 103796, Note_off_c, 9, 82, 0
11, 103920, Note_on_c, 9, 82, 60
11, 104036, Note_off_c, 9, 82, 0
11, 104160, Note_on_c, 9, 82, 80
11, 104276, Note_off_c, 9, 82, 0
11, 104400, Note_on_c, 9, 40, 120
11, 104400, Note_on_c, 9, 42, 90
11, 104400, Note_on_c, 9, 82, 60
11, 104516, Note_off_c, 9, 40, 0
11, 104516, Note_off_c, 9, 42, 0
11, 104516, Note_off_c, 9, 82, 0
11, 104640, Note_on_c, 9, 82, 80
11, 104756, Note_off_c, 9, 82, 0
11, 104880, Note_on_c, 9, 36, 90
11, 104880, Note_on_c, 9, 82, 60
11, 104996, Note_off_c, 9, 36, 0
11, 104996, Note_off_c, 9, 82, 0
11, 105120, Note_on_c, 9, 36, 120
11, 105120, Note_on_c, 9, 42, 90
11, 105120, Note_on_c, 9, 82, 80
11, 105236, Note_off_c, 9, 36, 0
11, 105236, Note_off_c, 9, 42, 0
11, 105236, Note_off_c, 9, 82, 0
11, 105360, Note_on_c, 9, 82, 60
11, 105476, Note_off_c, 9, 82, 0
11, 105600, Note_on_c, 9, 36, 80
11, 105600, Note_on_c, 9, 82, 80
11, 105716, Note_off_c, 9, 36, 0
11, 105716, Note_off_c, 9, 82, 0
11, 105840, Note_on_c, 9, 40, 120
11, 105840, Note_on_c, 9, 42, 90
11, 105840, Note_on_c, 9, 82, 60
11, 105956, Note_off_c, 9, 40, 0
11, 105956, Note_off_c, 9, 42, 0
11, 105956, Note_off_c, 9, 82, 0
11, 106080, Note_on_c, 9, 36, 100
11, 106080, Note_on_c, 9, 82, 80
11, 106196, Note_off_c, 9, 36, 0
11, 106196, Note_off_c, 9, 82, 0
11, 106320, Note_on_c, 9, 42, 90
11, 106320, Note_on_c, 9, 82, 60
11, 106436, Note_off_c, 9, 42, 0
11, 106436, Note_off_c, 9, 82, 0
11, 106560, Note_on_c, 9, 36, 120
11, 106560, Note_on_c, 9, 42, 90
11, 106560, Note_on_c, 9, 82, 80
11, 106676, Note_off_c, 9, 36, 0
11, 106676, Note_off_c, 9, 42, 0
11, 106676, Note_off_c, 9, 82, 0
11, 106800, Note_on_c, 9, 82, 60
11, 106916, Note_off_c, 9, 82, 0
11, 107040, Note_on_c, 9, 82, 80
11, 107156, Note_off_c, 9, 82, 0
11, 107280, Note_on_c, 9, 40, 120
11, 107280, Note_on_c, 9, 42, 90
11, 107280, Note_on_c, 9, 82, 60
11, 107396, Note_off_c, 9, 40, 0
11, 107396, Note_off_c, 9, 42, 0
11, 107396, Note_off_c, 9, 82, 0
11, 107520, Note_on_c, 9, 82, 80
11, 107636, Note_off_c, 9, 82, 0
11, 107760, Note_on_c, 9, 40, 80
11, 107760, Note_on_c, 9, 82, 60
11, 107876, Note_off_c, 9, 40, 0
11, 107876, Note_off_c, 9, 82, 0
11, 108000, Note_on_c, 9, 36, 100
11, 108000, Note_on_c, 9, 42, 90
11, 108000, Note_on_c, 9, 82, 80
11, 108116, Note_off_c, 9, 36, 0
11, 108116, Note_off_c, 9, 42, 0
11, 108116, Note_off_c, 9, 82, 0
11, 108240, Note_on_c, 9, 82, 60
11, 108356, Note_off_c, 9, 82, 0
11, 108480, Note_on_c, 9, 36, 100
11, 108480, Note_on_c, 9, 82, 80
11, 108596, Note_off_c, 9, 36, 0
11, 108596, Note_off_c, 9, 82, 0
11, 108720, Note_on_c, 9, 40, 120
11, 108720, Note_on_c, 9, 42, 90
11, 108720, Note_on_c, 9, 82, 60
11, 108836, Note_off_c, 9, 40, 0
11, 108836, Note_off_c, 9, 42, 0
11, 108836, Note_off_c, 9, 82, 0
11, 108960, Note_on_c, 9, 36, 100
11, 108960, Note_on_c, 9, 82, 80
11, 109076, Note_off_c, 9, 36, 0
11, 109076, Note_off_c, 9, 82, 0
11, 109200, Note_on_c, 9, 46, 90
11, 109200, Note_on_c, 9, 82, 60
11, 109316, Note_off_c, 9, 46, 0
11, 109316, Note_off_c, 9, 82, 0
11, 109440, Note_on_c, 9, 36, 120
11, 109440, Note_on_c, 9, 42, 90
11, 109440, Note_on_c, 9, 82, 80
11, 109556, Note_off_c, 9, 36, 0
11, 109556, Note_off_c, 9, 42, 0
11, 109556, Note_off_c, 9, 82, 0
11, 109680, Note_on_c, 9, 82, 60
11, 109796, Note_off_c, 9, 82, 0
11, 109920, Note_on_c, 9, 82, 80
11, 110036, Note_off_c, 9, 82, 0
11, 110160, Note_on_c, 9, 40, 120
11, 110160, Note_on_c, 9, 42, 90
11, 110160, Note_on_c, 9, 82, 60
11, 110276, Note_off_c, 9, 40, 0
11, 110276, Note_off_c, 9, 42, 0
11, 110276, Note_off_c, 9, 82, 0
11, 110400, Note_on_c, 9, 82, 80
11, 110516, Note_off_c, 9, 82, 0
11, 110640, Note_on_c, 9, 36, 90
11, 110640, Note_on_c, 9, 82, 60
11, 110756, Note_off_c, 9, 36, 0
11, 110756, Note_off_c, 9, 82, 0
11, 110880, Note_on_c, 9, 36, 120
11, 110880, Note_on_c, 9, 42, 90
11, 110880, Note_on_c, 9, 82, 80
11, 110996, Note_off_c, 9, 36, 0
11, 110996, Note_off_c, 9, 42, 0
11, 110996, Note_off_c, 9, 82, 0
11, 111120, Note_on_c, 9, 82, 60
11, 111236, Note_off_c, 9, 82, 0
11, 111360, Note_on_c, 9, 82, 80
11, 111476, Note_off_c, 9, 82, 0
11, 111600, Note_on_c, 9, 40, 120
11, 111600, Note_on_c, 9, 42, 90
11, 111600, Note_on_c, 9, 82, 60
11, 111716, Note_off_c, 9, 40, 0
11, 111716, Note_off_c, 9, 42, 0
11, 111716, Note_off_c, 9, 82, 0
11, 111840, Note_on_c, 9, 82, 80
11, 111956, Note_off_c, 9, 82, 0
11, 112080, Note_on_c, 9, 46, 90
11, 112080, Note_on_c, 9, 82, 60
11, 112196, Note_off_c, 9, 46, 0
11, 112196, Note_off_c, 9, 82, 0
11, 112320, Note_on_c, 9, 36, 120
11, 112320, Note_on_c, 9, 42, 90
11, 112320, Note_on_c, 9, 82, 80
11, 112436, Note_off_c, 9, 36, 0
11, 112436, Note_off_c, 9, 42, 0
11, 112436, Note_off_c, 9, 82, 0
11, 112560, Note_on_c, 9, 82, 60
11, 112676, Note_off_c, 9, 82, 0
11, 112800, Note_on_c, 9, 82, 80
11, 112916, Note_off_c, 9, 82, 0
11, 113040, Note_on_c, 9, 40, 120
11, 113040, Note_on_c, 9, 42, 90
11, 113040, Note_on_c, 9, 82, 60
11, 113156, Note_off_c, 9, 40, 0
11, 113156, Note_off_c, 9, 42, 0
11, 113156, Note_off_c, 9, 82, 0
11, 113280, Note_on_c, 9, 82, 80
11, 113396, Note_off_c, 9, 82, 0
11, 113520, Note_on_c, 9, 36, 90
11, 113520, Note_on_c, 9, 40, 80
11, 113520, Note_on_c, 9, 82, 60
11, 113636, Note_off_c, 9, 36, 0
11, 113636, Note_off_c, 9, 40, 0
11, 113636, Note_off_c, 9, 82, 0
11, 113760, Note_on_c, 9, 36, 120
11, 113760, Note_on_c, 9, 42, 90
11, 113760, Note_on_c, 9, 82, 80
11, 113876, Note_off_c, 9, 36, 0
11, 113876, Note_off_c, 9, 42, 0
11, 113876, Note_off_c, 9, 82, 0
11, 114000, Note_on_c, 9, 82, 60
11, 114116, Note_off_c, 9, 82, 0
11, 114240, Note_on_c, 9, 82, 80
11, 114356, Note_off_c, 9, 82, 0
11, 114480, Note_on_c, 9, 40, 120
11, 114480, Note_on_c, 9, 42, 90
11, 114480, Note_on_c, 9, 82, 60
11, 114596, Note_off_c, 9, 40, 0
11, 114596, Note_off_c, 9, 42, 0
11, 114596, Note_off_c, 9, 82, 0
11, 114720, Note_on_c, 9, 82, 80
11, 114836, Note_off_c, 9, 82, 0
11, 114960, Note_on_c, 9, 46, 90
11, 114960, Note_on_c, 9, 82, 60
11, 115076, Note_off_c, 9, 46, 0
11, 115076, Note_off_c, 9, 82, 0
11, 115200, Note_on_c, 9, 36, 120
11, 115200, Note_on_c, 9, 42, 90
11, 115200, Note_on_c, 9, 82, 80
11, 115316, Note_off_c, 9, 36, 0
11, 115316, Note_off_c, 9, 42, 0
11, 115316, Note_off_c, 9, 82, 0
11, 115440, Note_on_c, 9, 82, 60
11, 115556, Note_off_c, 9, 82, 0
11, 115680, Note_on_c, 9, 82, 80
11, 115796, Note_off_c, 9, 82, 0
11, 115920, Note_on_c, 9, 40, 120
11, 115920, Note_on_c, 9, 42, 90
11, 115920, Note_on_c, 9, 82, 60
11, 116036, Note_off_c, 9, 40, 0
11, 116036, Note_off_c, 9, 42, 0
11, 116036, Note_off_c, 9, 82, 0
11, 116160, Note_on_c, 9, 82, 80
11, 116276, Note_off_c, 9, 82, 0
11, 116400, Note_on_c, 9, 36, 90
11, 116400, Note_on_c, 9, 82, 60
11, 116516, Note_off_c, 9, 36, 0
11, 116516, Note_off_c, 9, 82, 0
11, 116640, Note_on_c, 9, 36, 120
11, 116640, Note_on_c, 9, 42, 90
11, 116640, Note_on_c, 9, 82, 80
11, 116756, Note_off_c, 9, 36, 0
11, 116756, Note_off_c, 9, 42, 0
11, 116756, Note_off_c, 9, 82, 0
11, 116880, Note_on_c, 9, 82, 60
11, 116996, Note_off_c, 9, 82, 0
11, 117120, Note_on_c, 9, 36, 80
11, 117120, Note_on_c, 9, 82, 80
11, 117236, Note_off_c, 9, 36, 0
11, 117236, Note_off_c, 9, 82, 0
11, 117360, Note_on_c, 9, 36, 100
11, 117360, Note_on_c, 9, 40, 120
11, 117360, Note_on_c, 9, 42, 90
11, 117360, Note_on_c, 9, 82, 60
11, 117476, Note_off_c, 9, 36, 0
11, 117476, Note_off_c, 9, 40, 0
11, 117476, Note_off_c, 9, 42, 0
11, 117476, Note_off_c, 9, 82, 0
11, 117600, Note_on_c, 9, 82, 80
11, 117716, Note_off_c, 9, 82, 0
11, 117840, Note_on_c, 9, 36, 90
11, 117840, Note_on_c, 9, 42, 90
11, 117840, Note_on_c, 9, 82, 60
11, 117956, Note_off_c, 9, 36, 0
11, 117956, Note_off_c, 9, 42, 0
11, 117956, Note_off_c, 9, 82, 0
11, 118080, Note_on_c, 9, 36, 120
11, 118080, Note_on_c, 9, 42, 90
11, 118080, Note_on_c, 9, 82, 80
11, 118196, Note_off_c, 9, 36, 0
11, 118196, Note_off_c, 9, 42, 0
11, 118196, Note_off_c, 9, 82, 0
11, 118320, Note_on_c, 9, 82, 60
11, 118436, Note_off_c, 9, 82, 0
11, 118560, Note_on_c, 9, 82, 80
11, 118676, Note_off_c, 9, 82, 0
11, 118800, Note_on_c, 9, 40, 120
11, 118800, Note_on_c, 9, 42, 90
11, 118800, Note_on_c, 9, 82, 60
11, 118916, Note_off_c, 9, 40, 0
11, 118916, Note_off_c, 9, 42, 0
11, 118916, Note_off_c, 9, 82, 0
11, 119040, Note_on_c, 9, 82, 80
11, 119156, Note_off_c, 9, 82, 0
11, 119280, Note_on_c, 9, 40, 80
11, 119280, Note_on_c, 9, 82, 60
11, 119396, Note_off_c, 9, 40, 0
11, 119396, Note_off_c, 9, 82, 0
11, 119520, Note_on_c, 9, 36, 100
11, 119520, Note_on_c, 9, 42, 90
11, 119520, Note_on_c, 9, 82, 80
11, 119636, Note_off_c, 9, 36, 0
11, 119636, Note_off_c, 9, 42, 0
11, 119636, Note_off_c, 9, 82, 0
11, 119760, Note_on_c, 9, 82, 60
11, 119876, Note_off_c, 9, 82, 0
11, 120000, Note_on_c, 9, 36, 100
11, 120000, Note_on_c, 9, 82, 80
11, 120116, Note_off_c, 9, 36, 0
11, 120116, Note_off_c, 9, 82, 0
11, 120240, Note_on_c, 9, 40, 120
11, 120240, Note_on_c, 9, 42, 90
11, 120240, Note_on_c, 9, 82, 60
11, 120356, Note_off_c, 9, 40, 0
11, 120356, Note_off_c, 9, 42, 0
11, 120356, Note_off_c, 9, 82, 0
11, 120480, Note_on_c, 9, 36, 100
11, 120480, Note_on_c, 9, 82, 80
11, 120596, Note_off_c, 9, 36, 0
11, 120596, Note_off_c, 9, 82, 0
11, 120720, Note_on_c, 9, 46, 90
11, 120720, Note_on_c, 9, 82, 60
11, 120836, Note_off_c, 9, 46, 0
11, 120836, Note_off_c, 9, 82, 0
11, 120960, Note_on_c, 9, 36, 120
11, 120960, Note_on_c, 9, 52, 110
11, 120960, Note_on_c, 9, 82, 80
11, 121076, Note_off_c, 9, 36, 0
11, 121076, Note_off_c, 9, 52, 0
11, 121076, Note_off_c, 9, 82, 0
11, 121200, Note_on_c, 9, 82, 60
11, 121316, Note_off_c, 9, 82, 0
11, 121440, Note_on_c, 9, 82, 80
11, 121556, Note_off_c, 9, 82, 0
11, 121680, Note_on_c, 9, 40, 120
11, 121680, Note_on_c, 9, 42, 90
11, 121680, Note_on_c, 9, 82, 60
11, 121796, Note_off_c, 9, 40, 0
11, 121796, Note_off_c, 9, 42, 0
11, 121796, Note_off_c, 9, 82, 0
11, 121920, Note_on_c, 9, 82, 80
11, 122036, Note_off_c, 9, 82, 0
11, 122160, Note_on_c, 9, 36, 90
11, 122160, Note_on_c, 9, 82, 60
11, 122276, Note_off_c, 9, 36, 0
11, 122276, Note_off_c, 9, 82, 0
11, 122400, Note_on_c, 9, 36, 120
11, 122400, Note_on_c, 9, 42, 90
11, 122400, Note_on_c, 9, 82, 80
11, 122516, Note_off_c, 9, 36, 0
11, 122516, Note_off_c, 9, 42, 0
11, 122516, Note_off_c, 9, 82, 0
11, 122640, Note_on_c, 9, 82, 60
11, 122756, Note_off_c, 9, 82, 0
11, 122880, Note_on_c, 9, 82, 80
11, 122996, Note_off_c, 9, 82, 0
11, 123120, Note_on_c, 9, 40, 120
11, 123120, Note_on_c, 9, 42, 90
11, 123120, Note_on_c, 9, 82, 60
11, 123236, Note_off_c, 9, 40, 0
11, 123236, Note_off_c, 9, 42, 0
11, 123236, Note_off_c, 9, 82, 0
11, 123360, Note_on_c, 9, 82, 80
11, 123476, Note_off_c, 9, 82, 0
11, 123600, Note_on_c, 9, 46, 90
11, 123600, Note_on_c, 9, 82, 60
11, 123716, Note_off_c, 9, 46, 0
11, 123716, Note_off_c, 9, 82, 0
11, 123840, Note_on_c, 9, 36, 120
11, 123840, Note_on_c, 9, 42, 90
11, 123840, Note_on_c, 9, 82, 80
11, 123956, Note_off_c, 9, 36, 0
11, 123956, Note_off_c, 9, 42, 0
11, 123956, Note_off_c, 9, 82, 0
11, 124080, Note_on_c, 9, 82, 60
11, 124196, Note_off_c, 9, 82, 0
11, 124320, Note_on_c, 9, 82, 80
11, 124436, Note_off_c, 9, 82, 0
11, 124560, Note_on_c, 9, 40, 120
11, 124560, Note_on_c, 9, 42, 90
11, 124560, Note_on_c, 9, 82, 60
11, 124676, Note_off_c, 9, 40, 0
11, 124676, Note_off_c, 9, 42, 0
11, 124676, Note_off_c, 9, 82, 0
11, 124800, Note_on_c, 9, 82, 80
11, 124916, Note_off_c, 9, 82, 0
11, 125040, Note_on_c, 9, 36, 90
11, 125040, Note_on_c, 9, 40, 80
11, 125040, Note_on_c, 9, 82, 60
11, 125156, Note_off_c, 9, 36, 0
11, 125156, Note_off_c, 9, 40, 0
11, 125156, Note_off_c, 9, 82, 0
11, 125280, Note_on_c, 9, 36, 120
11, 125280, Note_on_c, 9, 42, 90
11, 125280, Note_on_c, 9, 82, 80
11, 125396, Note_off_c, 9, 36, 0
11, 125396, Note_off_c, 9, 42, 0
11, 125396, Note_off_c, 9, 82, 0
11, 125520, Note_on_c, 9, 82, 60
11, 125636, Note_off_c, 9, 82, 0
11, 125760, Note_on_c, 9, 82, 80
11, 125876, Note_off_c, 9, 82, 0
11, 126000, Note_on_c, 9, 40, 120
11, 126000, Note_on_c, 9, 42, 90
11, 126000, Note_on_c, 9, 82, 60
11, 126116, Note_off_c, 9, 40, 0
11, 126116, Note_off_c, 9, 42, 0
11, 126116, Note_off_c, 9, 82, 0
11, 126240, Note_on_c, 9, 82, 80
11, 126356, Note_off_c, 9, 82, 0
11, 126480, Note_on_c, 9, 46, 90
11, 126480, Note_on_c, 9, 82, 60
11, 126596, Note_off_c, 9, 46, 0
11, 126596, Note_off_c, 9, 82, 0
11, 126720, Note_on_c, 9, 36, 120
11, 126720, Note_on_c, 9, 42, 90
11, 126720, Note_on_c, 9, 82, 80
11, 126836, Note_off_c, 9, 36, 0
11, 126836, Note_off_c, 9, 42, 0
11, 126836, Note_off_c, 9, 82, 0
11, 126960, Note_on_c, 9, 82, 60
11, 127076, Note_off_c, 9, 82, 0
11, 127200, Note_on_c, 9, 82, 80
11, 127316, Note_off_c, 9, 82, 0
11, 127440, Note_on_c, 9, 40, 120
11, 127440, Note_on_c, 9, 42, 90
11, 127440, Note_on_c, 9, 82, 60
11, 127556, Note_off_c, 9, 40, 0
11, 127556, Note_off_c, 9, 42, 0
11, 127556, Note_off_c, 9, 82, 0
11, 127680, Note_on_c, 9, 82, 80
11, 127796, Note_off_c, 9, 82, 0
11, 127920, Note_on_c, 9, 36, 90
11, 127920, Note_on_c, 9, 82, 60
11, 128036, Note_off_c, 9, 36, 0
11, 128036, Note_off_c, 9, 82, 0
11, 128160, Note_on_c, 9, 36, 120
11, 128160, Note_on_c, 9, 42, 90
11, 128160, Note_on_c, 9, 82, 80
11, 128276, Note_off_c, 9, 36, 0
11, 128276, Note_off_c, 9, 42, 0
11, 128276, Note_off_c, 9, 82, 0
11, 128400, Note_on_c, 9, 82, 60
11, 128516, Note_off_c, 9, 82, 0
11, 128640, Note_on_c, 9, 36, 80
11, 128640, Note_on_c, 9, 82, 80
11, 128756, Note_off_c, 9, 36, 0
11, 128756, Note_off_c, 9, 82, 0
11, 128880, Note_on_c, 9, 40, 120
11, 128880, Note_on_c, 9, 42, 90
11, 128880, Note_on_c, 9, 82, 60
11, 128996, Note_off_c, 9, 40, 0
11, 128996, Note_off_c, 9, 42, 0
11, 128996, Note_off_c, 9, 82, 0
11, 129120, Note_on_c, 9, 36, 100
11, 129120, Note_on_c, 9, 82, 80
11, 129236, Note_off_c, 9, 36, 0
11, 129236, Note_off_c, 9, 82, 0
11, 129360, Note_on_c, 9, 42, 90
11, 129360, Note_on_c, 9, 82, 60
11, 129476, Note_off_c, 9, 42, 0
11, 129476, Note_off_c, 9, 82, 0
11, 129600, Note_on_c, 9, 36, 120
11, 129600, Note_on_c, 9, 42, 90
11, 129600, Note_on_c, 9, 82, 80
11, 129716, Note_off_c, 9, 36, 0
11, 129716, Note_off_c, 9, 42, 0
11, 129716, Note_off_c, 9, 82, 0
11, 129840, Note_on_c, 9, 82, 60
11, 129956, Note_off_c, 9, 82, 0
11, 130080, Note_on_c, 9, 82, 80
11, 130196, Note_off_c, 9, 82, 0
11, 130320, Note_on_c, 9, 40, 120
11, 130320, Note_on_c, 9, 42, 90
11, 130320, Note_on_c, 9, 82, 60
11, 130436, Note_off_c, 9, 40, 0
11, 130436, Note_off_c, 9, 42, 0
11, 130436, Note_off_c, 9, 82, 0
11, 130560, Note_on_c, 9, 82, 80
11, 130676, Note_off_c, 9, 82, 0
11, 130800, Note_on_c, 9, 40, 80
11, 130800, Note_on_c, 9, 82, 60
11, 130916, Note_off_c, 9, 40, 0
11, 130916, Note_off_c, 9, 82, 0
11, 131040, Note_on_c, 9, 36, 100
11, 131040, Note_on_c, 9, 42, 90
11, 131040, Note_on_c, 9, 82, 80
11, 131156, Note_off_c, 9, 36, 0
11, 131156, Note_off_c, 9, 42, 0
11, 131156, Note_off_c, 9, 82, 0
11, 131280, Note_on_c, 9, 82, 60
11, 131396, Note_off_c, 9, 82, 0
11, 131520, Note_on_c, 9, 36, 100
11, 131520, Note_on_c, 9, 82, 80
11, 131636, Note_off_c, 9, 36, 0
11, 131636, Note_off_c, 9, 82, 0
11, 131760, Note_on_c, 9, 40, 120
11, 131760, Note_on_c, 9, 42, 90
11, 131760, Note_on_c, 9, 82, 60
11, 131876, Note_off_c, 9, 40, 0
11, 131876, Note_off_c, 9, 42, 0
11, 131876, Note_off_c, 9, 82, 0
11, 132000, Note_on_c, 9, 36, 100
11, 132000, Note_on_c, 9, 82, 80
11, 132116, Note_off_c, 9, 36, 0
11, 132116, Note_off_c, 9, 82, 0
11, 132240, Note_on_c, 9, 46, 90
11, 132240, Note_on_c, 9, 82, 60
11, 132356, Note_off_c, 9, 46, 0
11, 132356, Note_off_c, 9, 82, 0
11, 132480, Note_on_c, 9, 36, 120
11, 132480, Note_on_c, 9, 42, 90
11, 132480, Note_on_c, 9, 82, 80
11, 132596, Note_off_c, 9, 36, 0
11, 132596, Note_off_c, 9, 42, 0
11, 132596, Note_off_c, 9, 82, 0
11, 132720, Note_on_c, 9, 82, 60
11, 132836, Note_off_c, 9, 82, 0
11, 132960, Note_on_c, 9, 82, 80
11, 133076, Note_off_c, 9, 82, 0
11, 133200, Note_on_c, 9, 40, 120
11, 133200, Note_on_c, 9, 42, 90
11, 133200, Note_on_c, 9, 82, 60
11, 133316, Note_off_c, 9, 40, 0
11, 133316, Note_off_c, 9, 42, 0
11, 133316, Note_off_c, 9, 82, 0
11, 133440, Note_on_c, 9, 82, 80
11, 133556, Note_off_c, 9, 82, 0
11, 133680, Note_on_c, 9, 36, 90
11, 133680, Note_on_c, 9, 82, 60
11, 133796, Note_off_c, 9, 36, 0
11, 133796, Note_off_c, 9, 82, 0
11, 133920, Note_on_c, 9, 36, 120
11, 133920, Note_on_c, 9, 42, 90
11, 133920, Note_on_c, 9, 82, 80
11, 134036, Note_off_c, 9, 36, 0
11, 134036, Note_off_c, 9, 42, 0
11, 134036, Note_off_c, 9, 82, 0
11, 134160, Note_on_c, 9, 82, 60
11, 134276, Note_off_c, 9, 82, 0
11, 134400, Note_on_c, 9, 82, 80
11, 134516, Note_off_c, 9, 82, 0
11, 134640, Note_on_c, 9, 40, 120
11, 134640, Note_on_c, 9, 42, 90
11, 134640, Note_on_c, 9, 82, 60
11, 134756, Note_off_c, 9, 40, 0
11, 134756, Note_off_c, 9, 42, 0
11, 134756, Note_off_c, 9, 82, 0
11, 134880, Note_on_c, 9, 82, 80
11, 134996, Note_off_c, 9, 82, 0
11, 135120, Note_on_c, 9, 46, 90
11, 135120, Note_on_c, 9, 82, 60
11, 135236, Note_off_c, 9, 46, 0
11, 135236, Note_off_c, 9, 82, 0
11, 135360, Note_on_c, 9, 36, 120
11, 135360, Note_on_c, 9, 42, 90
11, 135360, Note_on_c, 9, 82, 80
11, 135476, Note_off_c, 9, 36, 0
11, 135476, Note_off_c, 9, 42, 0
11, 135476, Note_off_c, 9, 82, 0
11, 135600, Note_on_c, 9, 82, 60
11, 135716, Note_off_c, 9, 82, 0
11, 135840, Note_on_c, 9, 82, 80
11, 135956, Note_off_c, 9, 82, 0
11, 136080, Note_on_c, 9, 40, 120
11, 136080, Note_on_c, 9, 42, 90
11, 136080, Note_on_c, 9, 82, 60
11, 136196, Note_off_c, 9, 40, 0
11, 136196, Note_off_c, 9, 42, 0
11, 136196, Note_off_c, 9, 82, 0
11, 136320, Note_on_c, 9, 82, 80
11, 136436, Note_off_c, 9, 82, 0
11, 136560, Note_on_c, 9, 36, 90
11, 136560, Note_on_c, 9, 40, 80
11, 136560, Note_on_c, 9, 82, 60
11, 136676, Note_off_c, 9, 36, 0
11, 136676, Note_off_c, 9, 40, 0
11, 136676, Note_off_c, 9, 82, 0
11, 136800, Note_on_c, 9, 36, 120
11, 136800, Note_on_c, 9, 42, 90
11, 136800, Note_on_c, 9, 82, 80
11, 136916, Note_off_c, 9, 36, 0
11, 136916, Note_off_c, 9, 42, 0
11, 136916, Note_off_c, 9, 82, 0
11, 137040, Note_on_c, 9, 82, 60
11, 137156, Note_off_c, 9, 82, 0
11, 137280, Note_on_c, 9, 82, 80
11, 137396, Note_off_c, 9, 82, 0
11, 137520, Note_on_c, 9, 40, 120
11, 137520, Note_on_c, 9, 42, 90
11, 137520, Note_on_c, 9, 82, 60
11, 137636, Note_off_c, 9, 40, 0
11, 137636, Note_off_c, 9, 42, 0
11, 137636, Note_off_c, 9, 82, 0
11, 137760, Note_on_c, 9, 82, 80
11, 137876, Note_off_c, 9, 82, 0
11, 138000, Note_on_c, 9, 46, 90
11, 138000, Note_on_c, 9, 82, 60
11, 138116, Note_off_c, 9, 46, 0
11, 138116, Note_off_c, 9, 82, 0
11, 138240, Note_on_c, 9, 36, 120
11, 138240, Note_on_c, 9, 42, 90
11, 138240, Note_on_c, 9, 82, 80
11, 138356, Note_off_c, 9, 36, 0
11, 138356, Note_off_c, 9, 42, 0
11, 138356, Note_off_c, 9, 82, 0
11, 138480, Note_on_c, 9, 82, 60
11, 138596, Note_off_c, 9, 82, 0
11, 138720, Note_on_c, 9, 82, 80
11, 138836, Note_off_c, 9, 82, 0
11, 138960, Note_on_c, 9, 40, 120
11, 138960, Note_on_c, 9, 42, 90
11, 138960, Note_on_c, 9, 82, 60
11, 139076, Note_off_c, 9, 40, 0
11, 139076, Note_off_c, 9, 42, 0
11, 139076, Note_off_c, 9, 82, 0
11, 139200, Note_on_c, 9, 82, 80
11, 139316, Note_off_c, 9, 82, 0
11, 139440, Note_on_c, 9, 36, 90
11, 139440, Note_on_c, 9, 82, 60
11, 139556, Note_off_c, 9, 36, 0
11, 139556, Note_off_c, 9, 82, 0
11, 139680, Note_on_c, 9, 36, 120
11, 139680, Note_on_c, 9, 42, 90
11, 139680, Note_on_c, 9, 82, 80
11, 139796, Note_off_c, 9, 36, 0
11, 139796, Note_off_c, 9, 42, 0
11, 139796, Note_off_c, 9, 82, 0
11, 139920, Note_on_c, 9, 82, 60
11, 140036, Note_off_c, 9, 82, 0
11, 140160, Note_on_c, 9, 36, 80
11, 140160, Note_on_c, 9, 82, 80
11, 140276, Note_off_c, 9, 36, 0
11, 140276, Note_off_c, 9, 82, 0
11, 140400, Note_on_c, 9, 36, 100
11, 140400, Note_on_c, 9, 40, 120
11, 140400, Note_on_c, 9, 42, 90
11, 140400, Note_on_c, 9, 82, 60
11, 140516, Note_off_c, 9, 36, 0
11, 140516, Note_off_c, 9, 40, 0
11, 140516, Note_off_c, 9, 42, 0
11, 140516, Note_off_c, 9, 82, 0
11, 140640, Note_on_c, 9, 82, 80
11, 140756, Note_off_c, 9, 82, 0
11, 140880, Note_on_c, 9, 36, 90
11, 140880, Note_on_c, 9, 42, 90
11, 140880, Note_on_c, 9, 82, 60
11, 140996, Note_off_c, 9, 36, 0
11, 140996, Note_off_c, 9, 42, 0
11, 140996, Note_off_c, 9, 82, 0
11, 141120, Note_on_c, 9, 36, 120
11, 141120, Note_on_c, 9, 42, 90
11, 141120, Note_on_c, 9, 82, 80
11, 141236, Note_off_c, 9, 36, 0
11, 141236, Note_off_c, 9, 42, 0
11, 141236, Note_off_c, 9, 82, 0
11, 141360, Note_on_c, 9, 82, 60
11, 141476, Note_off_c, 9, 82, 0
11, 141600, Note_on_c, 9, 82, 80
11, 141716, Note_off_c, 9, 82, 0
11, 141840, Note_on_c, 9, 40, 120
11, 141840, Note_on_c, 9, 42, 90
11, 141840, Note_on_c, 9, 82, 60
11, 141956, Note_off_c, 9, 40, 0
11, 141956, Note_off_c, 9, 42, 0
11, 141956, Note_off_c, 9, 82, 0
11, 142080, Note_on_c, 9, 82, 80
11, 142196, Note_off_c, 9, 82, 0
11, 142320, Note_on_c, 9, 40, 80
11, 142320, Note_on_c, 9, 82, 60
11, 142436, Note_off_c, 9, 40, 0
11, 142436, Note_off_c, 9, 82, 0
11, 142560, Note_on_c, 9, 36, 100
11, 142560, Note_on_c, 9, 42, 90
11, 142560, Note_on_c, 9, 82, 80
11, 142676, Note_off_c, 9, 36, 0
11, 142676, Note_off_c, 9, 42, 0
11, 142676, Note_off_c, 9, 82, 0
11, 142800, Note_on_c, 9, 82, 60
11, 142916, Note_off_c, 9, 82, 0
11, 143040, Note_on_c, 9, 36, 100
11, 143040, Note_on_c, 9, 82, 80
11, 143156, Note_off_c, 9, 36, 0
11, 143156, Note_off_c, 9, 82, 0
11, 143280, Note_on_c, 9, 40, 120
11, 143280, Note_on_c, 9, 42, 90
11, 143280, Note_on_c, 9, 82, 60
11, 143396, Note_off_c, 9, 40, 0
11, 143396, Note_off_c, 9, 42, 0
11, 143396, Note_off_c, 9, 82, 0
11, 143520, Note_on_c, 9, 36, 100
11, 143520, Note_on_c, 9, 82, 80
11, 143636, Note_off_c, 9, 36, 0
11, 143636, Note_off_c, 9, 82, 0
11, 143760, Note_on_c, 9, 46, 90
11, 143760, Note_on_c, 9, 82, 60
11, 143876, Note_off_c, 9, 46, 0
11, 143876, Note_off_c, 9, 82, 0
11, 144000, Note_on_c, 9, 36, 120
11, 144000, Note_on_c, 9, 42, 90
11, 144000, Note_on_c, 9, 82, 80
11, 144116, Note_off_c, 9, 36, 0
11, 144116, Note_off_c, 9, 42, 0
11, 144116, Note_off_c, 9, 82, 0
11, 144240, Note_on_c, 9, 82, 60
11, 144356, Note_off_c, 9, 82, 0
11, 144480, Note_on_c, 9, 82, 80
11, 144596, Note_off_c, 9, 82, 0
11, 144720, Note_on_c, 9, 40, 120
11, 144720, Note_on_c, 9, 42, 90
11, 144720, Note_on_c, 9, 82, 60
11, 144836, Note_off_c, 9, 40, 0
11, 144836, Note_off_c, 9, 42, 0
11, 144836, Note_off_c, 9, 82, 0
11, 144960, Note_on_c, 9, 82, 80
11, 145076, Note_off_c, 9, 82, 0
11, 145200, Note_on_c, 9, 36, 90
11, 145200, Note_on_c, 9, 82, 60
11, 145316, Note_off_c, 9, 36, 0
11, 145316, Note_off_c, 9, 82, 0
11, 145440, Note_on_c, 9, 36, 120
11, 145440, Note_on_c, 9, 42, 90
11, 145440, Note_on_c, 9, 82, 80
11, 145556, Note_off_c, 9, 36, 0
11, 145556, Note_off_c, 9, 42, 0
11, 145556, Note_off_c, 9, 82, 0
11, 145680, Note_on_c, 9, 82, 60
11, 145796, Note_off_c, 9, 82, 0
11, 145920, Note_on_c, 9, 82, 80
11, 146036, Note_off_c, 9, 82, 0
11, 146160, Note_on_c, 9, 40, 120
11, 146160, Note_on_c, 9, 42, 90
11, 146160, Note_on_c, 9, 82, 60
11, 146276, Note_off_c, 9, 40, 0
11, 146276, Note_off_c, 9, 42, 0
11, 146276, Note_off_c, 9, 82, 0
11, 146400, Note_on_c, 9, 82, 80
11, 146516, Note_off_c, 9, 82, 0
11, 146640, Note_on_c, 9, 46, 90
11, 146640, Note_on_c, 9, 82, 60
11, 146756, Note_off_c, 9, 46, 0
11, 146756, Note_off_c, 9, 82, 0
11, 146880, Note_on_c, 9, 36, 120
11, 146880, Note_on_c, 9, 42, 90
11, 146880, Note_on_c, 9, 82, 80
11, 146996, Note_off_c, 9, 36, 0
11, 146996, Note_off_c, 9, 42, 0
11, 146996, Note_off_c, 9, 82, 0
11, 147120, Note_on_c, 9, 82, 60
11, 147236, Note_off_c, 9, 82, 0
11, 147360, Note_on_c, 9, 82, 80
11, 147476, Note_off_c, 9, 82, 0
11, 147600, Note_on_c, 9, 40, 120
11, 147600, Note_on_c, 9, 42, 90
11, 147600, Note_on_c, 9, 82, 60
11, 147716, Note_off_c, 9, 40, 0
11, 147716, Note_off_c, 9, 42, 0
11, 147716, Note_off_c, 9, 82, 0
11, 147840, Note_on_c, 9, 82, 80
11, 147956, Note_off_c, 9, 82, 0
11, 148080, Note_on_c, 9, 36, 90
11, 148080, Note_on_c, 9, 40, 80
11, 148080, Note_on_c, 9, 82, 60
11, 148196, Note_off_c, 9, 36, 0
11, 148196, Note_off_c, 9, 40, 0
11, 148196, Note_off_c, 9, 82, 0
11, 148320, Note_on_c, 9, 36, 120
11, 148320, Note_on_c, 9, 42, 90
11, 148320, Note_on_c, 9, 82, 80
11, 148436, Note_off_c, 9, 36, 0
11, 148436, Note_off_c, 9, 42, 0
11, 148436, Note_off_c, 9, 82, 0
11, 148560, Note_on_c, 9, 82, 60
11, 148676, Note_off_c, 9, 82, 0
11, 148800, Note_on_c, 9, 82, 80
11, 148916, Note_off_c, 9, 82, 0
11, 149040, Note_on_c, 9, 40, 120
11, 149040, Note_on_c, 9, 42, 90
11, 149040, Note_on_c, 9, 82, 60
11, 149156, Note_off_c, 9, 40, 0
11, 149156, Note_off_c, 9, 42, 0
11, 149156, Note_off_c, 9, 82, 0
11, 149280, Note_on_c, 9, 82, 80
11, 149396, Note_off_c, 9, 82, 0
11, 149520, Note_on_c, 9, 46, 90
11, 149520, Note_on_c, 9, 82, 60
11, 149636, Note_off_c, 9, 46, 0
11, 149636, Note_off_c, 9, 82, 0
11, 149760, Note_on_c, 9, 36, 120
11, 149760, Note_on_c, 9, 42, 90
11, 149760, Note_on_c, 9, 82, 80
11, 149876, Note_off_c, 9, 36, 0
11, 149876, Note_off_c, 9, 42, 0
11, 149876, Note_off_c, 9, 82, 0
11, 150000, Note_on_c, 9, 82, 60
11, 150116, Note_off_c, 9, 82, 0
11, 150240, Note_on_c, 9, 82, 80
11, 150356, Note_off_c, 9, 82, 0
11, 150480, Note_on_c, 9, 40, 120
11, 150480, Note_on_c, 9, 42, 90
11, 150480, Note_on_c, 9, 82, 60
11, 150596, Note_off_c, 9, 40, 0
11, 150596, Note_off_c, 9, 42, 0
11, 150596, Note_off_c, 9, 82, 0
11, 150720, Note_on_c, 9, 82, 80
11, 150836, Note_off_c, 9, 82, 0
11, 150960, Note_on_c, 9, 36, 90
11, 150960, Note_on_c, 9, 82, 60
11, 151076, Note_off_c, 9, 36, 0
11, 151076, Note_off_c, 9, 82, 0
11, 151200, Note_on_c, 9, 36, 120
11, 151200, Note_on_c, 9, 42, 90
11, 151200, Note_on_c, 9, 82, 80
11, 151316, Note_off_c, 9, 36, 0
11, 151316, Note_off_c, 9, 42, 0
11, 151316, Note_off_c, 9, 82, 0
11, 151440, Note_on_c, 9, 82, 60
11, 151556, Note_off_c, 9, 82, 0
11, 151680, Note_on_c, 9, 36, 80
11, 151680, Note_on_c, 9, 82, 80
11, 151796, Note_off_c, 9, 36, 0
11, 151796, Note_off_c, 9, 82, 0
11, 151920, Note_on_c, 9, 40, 120
11, 151920, Note_on_c, 9, 42, 90
11, 151920, Note_on_c, 9, 82, 60
11, 152036, Note_off_c, 9, 40, 0
11, 152036, Note_off_c, 9, 42, 0
11, 152036, Note_off_c, 9, 82, 0
11, 152160, Note_on_c, 9, 36, 100
11, 152160, Note_on_c, 9, 82, 80
11, 152276, Note_off_c, 9, 36, 0
11, 152276, Note_off_c, 9, 82, 0
11, 152400, Note_on_c, 9, 42, 90
11, 152400, Note_on_c, 9, 82, 60
11, 152516, Note_off_c, 9, 42, 0
11, 152516, Note_off_c, 9, 82, 0
11, 152640, Note_on_c, 9, 36, 120
11, 152640, Note_on_c, 9, 42, 90
11, 152640, Note_on_c, 9, 82, 80
11, 152756, Note_off_c, 9, 36, 0
11, 152756, Note_off_c, 9, 42, 0
11, 152756, Note_off_c, 9, 82, 0
11, 152880, Note_on_c, 9, 82, 60
11, 152996, Note_off_c, 9, 82, 0
11, 153120, Note_on_c, 9, 82, 80
11, 153236, Note_off_c, 9, 82, 0
11, 153360, Note_on_c, 9, 40, 120
11, 153360, Note_on_c, 9, 42, 90
11, 153360, Note_on_c, 9, 82, 60
11, 153476, Note_off_c, 9, 40, 0
11, 153476, Note_off_c, 9, 42, 0
11, 153476, Note_off_c, 9, 82, 0
11, 153600, Note_on_c, 9, 82, 80
11, 153716, Note_off_c, 9, 82, 0
11, 153840, Note_on_c, 9, 40, 80
11, 153840, Note_on_c, 9, 82, 60
11, 153956, Note_off_c, 9, 40, 0
11, 153956, Note_off_c, 9, 82, 0
11, 154080, Note_on_c, 9, 36, 100
11, 154080, Note_on_c, 9, 42, 90
11, 154080, Note_on_c, 9, 82, 80
11, 154196, Note_off_c, 9, 36, 0
11, 154196, Note_off_c, 9, 42, 0
11, 154196, Note_off_c, 9, 82, 0
11, 154320, Note_on_c, 9, 82, 60
11, 154436, Note_off_c, 9, 82, 0
11, 154560, Note_on_c, 9, 36, 100
11, 154560, Note_on_c, 9, 82, 80
11, 154676, Note_off_c, 9, 36, 0
11, 154676, Note_off_c, 9, 82, 0
11, 154800, Note_on_c, 9, 40, 120
11, 154800, Note_on_c, 9, 42, 90
11, 154800, Note_on_c, 9, 82, 60
11, 154916, Note_off_c, 9, 40, 0
11, 154916, Note_off_c, 9, 42, 0
11, 154916, Note_off_c, 9, 82, 0
11, 155040, Note_on_c, 9, 36, 100
11, 155040, Note_on_c, 9, 82, 80
11, 155156, Note_off_c, 9, 36, 0
11, 155156, Note_off_c, 9, 82, 0
11, 155280, Note_on_c, 9, 46, 90
11, 155280, Note_on_c, 9, 82, 60
11, 155396, Note_off_c, 9, 46, 0
11, 155396, Note_off_c, 9, 82, 0
11, 155520, Note_on_c, 9, 36, 120
11, 155520, Note_on_c, 9, 42, 90
11, 155520, Note_on_c, 9, 82, 80
11, 155636, Note_off_c, 9, 36, 0
11, 155636, Note_off_c, 9, 42, 0
11, 155636, Note_off_c, 9, 82, 0
11, 155760, Note_on_c, 9, 82, 60
11, 155876, Note_off_c, 9, 82, 0
11, 156000, Note_on_c, 9, 82, 80
11, 156116, Note_off_c, 9, 82, 0
11, 156240, Note_on_c, 9, 40, 120
11, 156240, Note_on_c, 9, 42, 90
11, 156240, Note_on_c, 9, 82, 60
11, 156356, Note_off_c, 9, 40, 0
11, 156356, Note_off_c, 9, 42, 0
11, 156356, Note_off_c, 9, 82, 0
11, 156480, Note_on_c, 9, 82, 80
11, 156596, Note_off_c, 9, 82, 0
11, 156720, Note_on_c, 9, 36, 90
11, 156720, Note_on_c, 9, 82, 60
11, 156836, Note_off_c, 9, 36, 0
11, 156836, Note_off_c, 9, 82, 0
11, 156960, Note_on_c, 9, 36, 120
11, 156960, Note_on_c, 9, 42, 90
11, 156960, Note_on_c, 9, 82, 80
11, 157076, Note_off_c, 9, 36, 0
11, 157076, Note_off_c, 9, 42, 0
11, 157076, Note_off_c, 9, 82, 0
11, 157200, Note_on_c, 9, 82, 60
11, 157316, Note_off_c, 9, 82, 0
11, 157440, Note_on_c, 9, 82, 80
11, 157556, Note_off_c, 9, 82, 0
11, 157680, Note_on_c, 9, 40, 120
11, 157680, Note_on_c, 9, 42, 90
11, 157680, Note_on_c, 9, 82, 60
11, 157796, Note_off_c, 9, 40, 0
11, 157796, Note_off_c, 9, 42, 0
11, 157796, Note_off_c, 9, 82, 0
11, 157920, Note_on_c, 9, 82, 80
11, 158036, Note_off_c, 9, 82, 0
11, 158160, Note_on_c, 9, 46, 90
11, 158160, Note_on_c, 9, 82, 60
11, 158276, Note_off_c, 9, 46, 0
11, 158276, Note_off_c, 9, 82, 0
11, 158400, Note_on_c, 9, 36, 120
11, 158400, Note_on_c, 9, 42, 90
11, 158400, Note_on_c, 9, 82, 80
11, 158516, Note_off_c, 9, 36, 0
11, 158516, Note_off_c, 9, 42, 0
11, 158516, Note_off_c, 9, 82, 0
11, 158640, Note_on_c, 9, 82, 60
11, 158756, Note_off_c, 9, 82, 0
11, 158880, Note_on_c, 9, 82, 80
11, 158996, Note_off_c, 9, 82, 0
11, 159120, Note_on_c, 9, 40, 120
11, 159120, Note_on_c, 9, 42, 90
11, 159120, Note_on_c, 9, 82, 60
11, 159236, Note_off_c, 9, 40, 0
11, 159236, Note_off_c, 9, 42, 0
11, 159236, Note_off_c, 9, 82, 0
11, 159360, Note_on_c, 9, 82, 80
11, 159476, Note_off_c, 9, 82, 0
11, 159600, Note_on_c, 9, 36, 90
11, 159600, Note_on_c, 9, 40, 80
11, 159600, Note_on_c, 9, 82, 60
11, 159716, Note_off_c, 9, 36, 0
11, 159716, Note_off_c, 9, 40, 0
11, 159716, Note_off_c, 9, 82, 0
11, 159840, Note_on_c, 9, 36, 120
11, 159840, Note_on_c, 9, 42, 90
11, 159840, Note_on_c, 9, 82, 80
11, 159956, Note_off_c, 9, 36, 0
11, 159956, Note_off_c, 9, 42, 0
11, 159956, Note_off_c, 9, 82, 0
11, 160080, Note_on_c, 9, 82, 60
11, 160196, Note_off_c, 9, 82, 0
11, 160320, Note_on_c, 9, 82, 80
11, 160436, Note_off_c, 9, 82, 0
11, 160560, Note_on_c, 9, 40, 120
11, 160560, Note_on_c, 9, 42, 90
11, 160560, Note_on_c, 9, 82, 60
11, 160676, Note_off_c, 9, 40, 0
11, 160676, Note_off_c, 9, 42, 0
11, 160676, Note_off_c, 9, 82, 0
11, 160800, Note_on_c, 9, 82, 80
11, 160916, Note_off_c, 9, 82, 0
11, 161040, Note_on_c, 9, 46, 90
11, 161040, Note_on_c, 9, 82, 60
11, 161156, Note_off_c, 9, 46, 0
11, 161156, Note_off_c, 9, 82, 0
11, 161280, Note_on_c, 9, 36, 120
11, 161280, Note_on_c, 9, 42, 90
11, 161280, Note_on_c, 9, 82, 80
11, 161396, Note_off_c, 9, 36, 0
11, 161396, Note_off_c, 9, 42, 0
11, 161396, Note_off_c, 9, 82, 0
11, 161520, Note_on_c, 9, 82, 60
11, 161636, Note_off_c, 9, 82, 0
11, 161760, Note_on_c, 9, 82, 80
11, 161876, Note_off_c, 9, 82, 0
11, 162000, Note_on_c, 9, 40, 120
11, 162000, Note_on_c, 9, 42, 90
11, 162000, Note_on_c, 9, 82, 60
11, 162116, Note_off_c, 9, 40, 0
11, 162116, Note_off_c, 9, 42, 0
11, 162116, Note_off_c, 9, 82, 0
11, 162240, Note_on_c, 9, 82, 80
11, 162356, Note_off_c, 9, 82, 0
11, 162480, Note_on_c, 9, 36, 90
11, 162480, Note_on_c, 9, 82, 60
11, 162596, Note_off_c, 9, 36, 0
11, 162596, Note_off_c, 9, 82, 0
11, 162720, Note_on_c, 9, 36, 120
11, 162720, Note_on_c, 9, 42, 90
11, 162720, Note_on_c, 9, 82, 80
11, 162836, Note_off_c, 9, 36, 0
11, 162836, Note_off_c, 9, 42, 0
11, 162836, Note_off_c, 9, 82, 0
11, 162960, Note_on_c, 9, 82, 60
11, 163076, Note_off_c, 9, 82, 0
11, 163200, Note_on_c, 9, 36, 80
11, 163200, Note_on_c, 9, 82, 80
11, 163316, Note_off_c, 9, 36, 0
11, 163316, Note_off_c, 9, 82, 0
11, 163440, Note_on_c, 9, 36, 100
11, 163440, Note_on_c, 9, 40, 120
11, 163440, Note_on_c, 9, 42, 90
11, 163440, Note_on_c, 9, 82, 60
11, 163556, Note_off_c, 9, 36, 0
11, 163556, Note_off_c, 9, 40, 0
11, 163556, Note_off_c, 9, 42, 0
11, 163556, Note_off_c, 9, 82, 0
11, 163680, Note_on_c, 9, 82, 80
11, 163796, Note_off_c, 9, 82, 0
11, 163920, Note_on_c, 9, 36, 90
11, 163920, Note_on_c, 9, 42, 90
11, 163920, Note_on_c, 9, 82, 60
11, 164036, Note_off_c, 9, 36, 0
11, 164036, Note_off_c, 9, 42, 0
11, 164036, Note_off_c, 9, 82, 0
11, 164160, Note_on_c, 9, 36, 120
11, 164160, Note_on_c, 9, 42, 90
11, 164160, Note_on_c, 9, 82, 80
11, 164276, Note_off_c, 9, 36, 0
11, 164276, Note_off_c, 9, 42, 0
11, 164276, Note_off_c, 9, 82, 0
11, 164400, Note_on_c, 9, 82, 60
11, 164516, Note_off_c, 9, 82, 0
11, 164640, Note_on_c, 9, 82, 80
11, 164756, Note_off_c, 9, 82, 0
11, 164880, Note_on_c, 9, 40, 120
11, 164880, Note_on_c, 9, 42, 90
11, 164880, Note_on_c, 9, 82, 60
11, 164996, Note_off_c, 9, 40, 0
11, 164996, Note_off_c, 9, 42, 0
11, 164996, Note_off_c, 9, 82, 0
11, 165120, Note_on_c, 9, 82, 80
11, 165236, Note_off_c, 9, 82, 0
11, 165360, Note_on_c, 9, 40, 80
11, 165360, Note_on_c, 9, 82, 60
11, 165476, Note_off_c, 9, 40, 0
11, 165476, Note_off_c, 9, 82, 0
11, 165600, Note_on_c, 9, 36, 100
11, 165600, Note_on_c, 9, 42, 90
11, 165600, Note_on_c, 9, 82, 80
11, 165716, Note_off_c, 9, 36, 0
11, 165716, Note_off_c, 9, 42, 0
11, 165716, Note_off_c, 9, 82, 0
11, 165840, Note_on_c, 9, 82, 60
11, 165956, Note_off_c, 9, 82, 0
11, 166080, Note_on_c, 9, 36, 100
11, 166080, Note_on_c, 9, 82, 80
11, 166196, Note_off_c, 9, 36, 0
11, 166196, Note_off_c, 9, 82, 0
11, 166320, Note_on_c, 9, 40, 120
11, 166320, Note_on_c, 9, 42, 90
11, 166320, Note_on_c, 9, 82, 60
11, 166436, Note_off_c, 9, 40, 0
11, 166436, Note_off_c, 9, 42, 0
11, 166436, Note_off_c, 9, 82, 0
11, 166560, Note_on_c, 9, 36, 100
11, 166560, Note_on_c, 9, 82, 80
11, 166676, Note_off_c, 9, 36, 0
11, 166676, Note_off_c, 9, 82, 0
11, 166800, Note_on_c, 9, 46, 90
11, 166800, Note_on_c, 9, 82, 60
11, 166916, Note_off_c, 9, 46, 0
11, 166916, Note_off_c, 9, 82, 0
11, 167040, Note_on_c, 9, 36, 120
11, 167040, Note_on_c, 9, 42, 90
11, 167040, Note_on_c, 9, 82, 80
11, 167156, Note_off_c, 9, 36, 0
11, 167156, Note_off_c, 9, 42, 0
11, 167156, Note_off_c, 9, 82, 0
11, 167280, Note_on_c, 9, 82, 60
11, 167396, Note_off_c, 9, 82, 0
11, 167520, Note_on_c, 9, 82, 80
11, 167636, Note_off_c, 9, 82, 0
11, 167760, Note_on_c, 9, 40, 120
11, 167760, Note_on_c, 9, 42, 90
11, 167760, Note_on_c, 9, 82, 60
11, 167876, Note_off_c, 9, 40, 0
11, 167876, Note_off_c, 9, 42, 0
11, 167876, Note_off_c, 9, 82, 0
11, 168000, Note_on_c, 9, 82, 80
11, 168116, Note_off_c, 9, 82, 0
11, 168240, Note_on_c, 9, 36, 90
11, 168240, Note_on_c, 9, 82, 60
11, 168356, Note_off_c, 9, 36, 0
11, 168356, Note_off_c, 9, 82, 0
11, 168480, Note_on_c, 9, 36, 120
11, 168480, Note_on_c, 9, 42, 90
11, 168480, Note_on_c, 9, 82, 80
11, 168596, Note_off_c, 9, 36, 0
11, 168596, Note_off_c, 9, 42, 0
11, 168596, Note_off_c, 9, 82, 0
11, 168720, Note_on_c, 9, 82, 60
11, 168836, Note_off_c, 9, 82, 0
11, 168960, Note_on_c, 9, 36, 80
11, 168960, Note_on_c, 9, 82, 80
11, 169076, Note_off_c, 9, 36, 0
11, 169076, Note_off_c, 9, 82, 0
11, 169200, Note_on_c, 9, 36, 100
11, 169200, Note_on_c, 9, 40, 120
11, 169200, Note_on_c, 9, 42, 90
11, 169200, Note_on_c, 9, 82, 60
11, 169316, Note_off_c, 9, 36, 0
11, 169316, Note_off_c, 9, 40, 0
11, 169316, Note_off_c, 9, 42, 0
11, 169316, Note_off_c, 9, 82, 0
11, 169440, Note_on_c, 9, 82, 80
11, 169556, Note_off_c, 9, 82, 0
11, 169680, Note_on_c, 9, 36, 90
11, 169680, Note_on_c, 9, 46, 90
11, 169680, Note_on_c, 9, 82, 60
11, 169796, Note_off_c, 9, 36, 0
11, 169796, Note_off_c, 9, 46, 0
11, 169796, Note_off_c, 9, 82, 0
11, 169920, Note_on_c, 9, 36, 120
11, 169920, Note_on_c, 9, 42, 90
11, 169920, Note_on_c, 9, 82, 80
11, 170036, Note_off_c, 9, 36, 0
11, 170036, Note_off_c, 9, 42, 0
11, 170036, Note_off_c, 9, 82, 0
11, 170160, Note_on_c, 9, 82, 60
11, 170276, Note_off_c, 9, 82, 0
11, 170400, Note_on_c, 9, 82, 80
11, 170516, Note_off_c, 9, 82, 0
11, 170640, Note_on_c, 9, 40, 120
11, 170640, Note_on_c, 9, 42, 90
11, 170640, Note_on_c, 9, 82, 60
11, 170756, Note_off_c, 9, 40, 0
11, 170756, Note_off_c, 9, 42, 0
11, 170756, Note_off_c, 9, 82, 0
11, 170880, Note_on_c, 9, 82, 80
11, 170996, Note_off_c, 9, 82, 0
11, 171120, Note_on_c, 9, 36, 90
11, 171120, Note_on_c, 9, 40, 80
11, 171120, Note_on_c, 9, 82, 60
11, 171236, Note_off_c, 9, 36, 0
11, 171236, Note_off_c, 9, 40, 0
11, 171236, Note_off_c, 9, 82, 0
11, 171360, Note_on_c, 9, 36, 120
11, 171360, Note_on_c, 9, 42, 90
11, 171360, Note_on_c, 9, 82, 80
11, 171476, Note_off_c, 9, 36, 0
11, 171476, Note_off_c, 9, 42, 0
11, 171476, Note_off_c, 9, 82, 0
11, 171600, Note_on_c, 9, 40, 120
11, 171600, Note_on_c, 9, 82, 60
11, 171716, Note_off_c, 9, 40, 0
11, 171716, Note_off_c, 9, 82, 0
11, 171840, Note_on_c, 9, 36, 80
11, 171840, Note_on_c, 9, 82, 80
11, 171956, Note_off_c, 9, 36, 0
11, 171956, Note_off_c, 9, 82, 0
11, 172080, Note_on_c, 9, 36, 100
11, 172080, Note_on_c, 9, 40, 120
11, 172080, Note_on_c, 9, 42, 90
11, 172080, Note_on_c, 9, 82, 60
11, 172196, Note_off_c, 9, 36, 0
11, 172196, Note_off_c, 9, 40, 0
11, 172196, Note_off_c, 9, 42, 0
11, 172196, Note_off_c, 9, 82, 0
11, 172320, Note_on_c, 9, 82, 80
11, 172436, Note_off_c, 9, 82, 0
11, 172560, Note_on_c, 9, 36, 90
11, 172560, Note_on_c, 9, 46, 90
11, 172560, Note_on_c, 9, 82, 60
11, 172676, Note_off_c, 9, 36, 0
11, 172676, Note_off_c, 9, 46, 0
11, 172676, Note_off_c, 9, 82, 0
11, 172800, Note_on_c, 9, 36, 120
11, 172800, Note_on_c, 9, 49, 120
11, 172800, Note_on_c, 9, 82, 80
11, 172916, Note_off_c, 9, 36, 0
11, 172916, Note_off_c, 9, 49, 0
11, 172916, Note_off_c, 9, 82, 0
11, 173040, Note_on_c, 9, 82, 60
11, 173156, Note_off_c, 9, 82, 0
11, 173280, Note_on_c, 9, 82, 80
11, 173396, Note_off_c, 9, 82, 0
11, 173520, Note_on_c, 9, 40, 120
11, 173520, Note_on_c, 9, 42, 90
11, 173520, Note_on_c, 9, 82, 60
11, 173636, Note_off_c, 9, 40, 0
11, 173636, Note_off_c, 9, 42, 0
11, 173636, Note_off_c, 9, 82, 0
11, 173760, Note_on_c, 9, 82, 80
11, 173876, Note_off_c, 9, 82, 0
11, 174000, Note_on_c, 9, 36, 90
11, 174000, Note_on_c, 9, 82, 60
11, 174116, Note_off_c, 9, 36, 0
11, 174116, Note_off_c, 9, 82, 0
11, 174240, Note_on_c, 9, 36, 120
11, 174240, Note_on_c, 9, 42, 90
11, 174240, Note_on_c, 9, 82, 80
11, 174356, Note_off_c, 9, 36, 0
11, 174356, Note_off_c, 9, 42, 0
11, 174356, Note_off_c, 9, 82, 0
11, 174480, Note_on_c, 9, 82, 60
11, 174596, Note_off_c, 9, 82, 0
11, 174720, Note_on_c, 9, 82, 80
11, 174836, Note_off_c, 9, 82, 0
11, 174960, Note_on_c, 9, 40, 120
11, 174960, Note_on_c, 9, 42, 90
11, 174960, Note_on_c, 9, 82, 60
11, 175076, Note_off_c, 9, 40, 0
11, 175076, Note_off_c, 9, 42, 0
11, 175076, Note_off_c, 9, 82, 0
11, 175200, Note_on_c, 9, 82, 80
11, 175316, Note_off_c, 9, 82, 0
11, 175440, Note_on_c, 9, 46, 90
11, 175440, Note_on_c, 9, 82, 60
11, 175556, Note_off_c, 9, 46, 0
11, 175556, Note_off_c, 9, 82, 0
11, 175680, Note_on_c, 9, 36, 120
11, 175680, Note_on_c, 9, 42, 90
11, 175680, Note_on_c, 9, 82, 80
11, 175796, Note_off_c, 9, 36, 0
11, 175796, Note_off_c, 9, 42, 0
11, 175796, Note_off_c, 9, 82, 0
11, 175920, Note_on_c, 9, 82, 60
11, 176036, Note_off_c, 9, 82, 0
11, 176160, Note_on_c, 9, 82, 80
11, 176276, Note_off_c, 9, 82, 0
11, 176400, Note_on_c, 9, 40, 120
11, 176400, Note_on_c, 9, 42, 90
11, 176400, Note_on_c, 9, 82, 60
11, 176516, Note_off_c, 9, 40, 0
11, 176516, Note_off_c, 9, 42, 0
11, 176516, Note_off_c, 9, 82, 0
11, 176640, Note_on_c, 9, 82, 80
11, 176756, Note_off_c, 9, 82, 0
11, 176880, Note_on_c, 9, 36, 90
11, 176880, Note_on_c, 9, 40, 80
11, 176880, Note_on_c, 9, 82, 60
11, 176996, Note_off_c, 9, 36, 0
11, 176996, Note_off_c, 9, 40, 0
11, 176996, Note_off_c, 9, 82, 0
11, 177120, Note_on_c, 9, 36, 120
11, 177120, Note_on_c, 9, 42, 90
11, 177120, Note_on_c, 9, 82, 80
11, 177236, Note_off_c, 9, 36, 0
11, 177236, Note_off_c, 9, 42, 0
11, 177236, Note_off_c, 9, 82, 0
11, 177360, Note_on_c, 9, 82, 60
11, 177476, Note_off_c, 9, 82, 0
11, 177600, Note_on_c, 9, 82, 80
11, 177716, Note_off_c, 9, 82, 0
11, 177840, Note_on_c, 9, 40, 120
11, 177840, Note_on_c, 9, 42, 90
11, 177840, Note_on_c, 9, 82, 60
11, 177956, Note_off_c, 9, 40, 0
11, 177956, Note_off_c, 9, 42, 0
11, 177956, Note_off_c, 9, 82, 0
11, 178080, Note_on_c, 9, 82, 80
11, 178196, Note_off_c, 9, 82, 0
11, 178320, Note_on_c, 9, 46, 90
11, 178320, Note_on_c, 9, 82, 60
11, 178436, Note_off_c, 9, 46, 0
11, 178436, Note_off_c, 9, 82, 0
11, 178560, Note_on_c, 9, 36, 120
11, 178560, Note_on_c, 9, 42, 90
11, 178560, Note_on_c, 9, 82, 80
11, 178676, Note_off_c, 9, 36, 0
11, 178676, Note_off_c, 9, 42, 0
11, 178676, Note_off_c, 9, 82, 0
11, 178800, Note_on_c, 9, 82, 60
11, 178916, Note_off_c, 9, 82, 0
11, 179040, Note_on_c, 9, 82, 80
11, 179156, Note_off_c, 9, 82, 0
11, 179280, Note_on_c, 9, 40, 120
11, 179280, Note_on_c, 9, 42, 90
11, 179280, Note_on_c, 9, 82, 60
11, 179396, Note_off_c, 9, 40, 0
11, 179396, Note_off_c, 9, 42, 0
11, 179396, Note_off_c, 9, 82, 0
11, 179520, Note_on_c, 9, 82, 80
11, 179636, Note_off_c, 9, 82, 0
11, 179760, Note_on_c, 9, 36, 90
11, 179760, Note_on_c, 9, 82, 60
11, 179876, Note_off_c, 9, 36, 0
11, 179876, Note_off_c, 9, 82, 0
11, 180000, Note_on_c, 9, 36, 120
11, 180000, Note_on_c, 9, 42, 90
11, 180000, Note_on_c, 9, 82, 80
11, 180116, Note_off_c, 9, 36, 0
11, 180116, Note_off_c, 9, 42, 0
11, 180116, Note_off_c, 9, 82, 0
11, 180240, Note_on_c, 9, 82, 60
11, 180356, Note_off_c, 9, 82, 0
11, 180480, Note_on_c, 9, 36, 80
11, 180480, Note_on_c, 9, 82, 80
11, 180596, Note_off_c, 9, 36, 0
11, 180596, Note_off_c, 9, 82, 0
11, 180720, Note_on_c, 9, 40, 120
11, 180720, Note_on_c, 9, 42, 90
11, 180720, Note_on_c, 9, 82, 60
11, 180836, Note_off_c, 9, 40, 0
11, 180836, Note_off_c, 9, 42, 0
11, 180836, Note_off_c, 9, 82, 0
11, 180960, Note_on_c, 9, 36, 100
11, 180960, Note_on_c, 9, 82, 80
11, 181076, Note_off_c, 9, 36, 0
11, 181076, Note_off_c, 9, 82, 0
11, 181200, Note_on_c, 9, 42, 90
11, 181200, Note_on_c, 9, 82, 60
11, 181316, Note_off_c, 9, 42, 0
11, 181316, Note_off_c, 9, 82, 0
11, 181440, Note_on_c, 9, 36, 120
11, 181440, Note_on_c, 9, 42, 90
11, 181440, Note_on_c, 9, 82, 80
11, 181556, Note_off_c, 9, 36, 0
11, 181556, Note_off_c, 9, 42, 0
11, 181556, Note_off_c, 9, 82, 0
11, 181680, Note_on_c, 9, 82, 60
11, 181796, Note_off_c, 9, 82, 0
11, 181920, Note_on_c, 9, 82, 80
11, 182036, Note_off_c, 9, 82, 0
11, 182160, Note_on_c, 9, 40, 120
11, 182160, Note_on_c, 9, 42, 90
11, 182160, Note_on_c, 9, 82, 60
11, 182276, Note_off_c, 9, 40, 0
11, 182276, Note_off_c, 9, 42, 0
11, 182276, Note_off_c, 9, 82, 0
11, 182400, Note_on_c, 9, 82, 80
11, 182516, Note_off_c, 9, 82, 0
11, 182640, Note_on_c, 9, 40, 80
11, 182640, Note_on_c, 9, 82, 60
11, 182756, Note_off_c, 9, 40, 0
11, 182756, Note_off_c, 9, 82, 0
11, 182880, Note_on_c, 9, 36, 100
11, 182880, Note_on_c, 9, 42, 90
11, 182880, Note_on_c, 9, 82, 80
11, 182996, Note_off_c, 9, 36, 0
11, 182996, Note_off_c, 9, 42, 0
11, 182996, Note_off_c, 9, 82, 0
11, 183120, Note_on_c, 9, 82, 60
11, 183236, Note_off_c, 9, 82, 0
11, 183360, Note_on_c, 9, 36, 100
11, 183360, Note_on_c, 9, 82, 80
11, 183476, Note_off_c, 9, 36, 0
11, 183476, Note_off_c, 9, 82, 0
11, 183600, Note_on_c, 9, 40, 120
11, 183600, Note_on_c, 9, 42, 90
11, 183600, Note_on_c, 9, 82, 60
11, 183716, Note_off_c, 9, 40, 0
11, 183716, Note_off_c, 9, 42, 0
11, 183716, Note_off_c, 9, 82, 0
11, 183840, Note_on_c, 9, 36, 100
11, 183840, Note_on_c, 9, 82, 80
11, 183956, Note_off_c, 9, 36, 0
11, 183956, Note_off_c, 9, 82, 0
11, 184080, Note_on_c, 9, 46, 90
11, 184080, Note_on_c, 9, 82, 60
11, 184196, Note_off_c, 9, 46, 0
11, 184196, Note_off_c, 9, 82, 0
11, 184320, Note_on_c, 9, 36, 120
11, 184320, Note_on_c, 9, 42, 90
11, 184320, Note_on_c, 9, 82, 80
11, 184436, Note_off_c, 9, 36, 0
11, 184436, Note_off_c, 9, 42, 0
11, 184436, Note_off_c, 9, 82, 0
11, 184560, Note_on_c, 9, 82, 60
11, 184676, Note_off_c, 9, 82, 0
11, 184800, Note_on_c, 9, 82, 80
11, 184916, Note_off_c, 9, 82, 0
11, 185040, Note_on_c, 9, 40, 120
11, 185040, Note_on_c, 9, 42, 90
11, 185040, Note_on_c, 9, 82, 60
11, 185156, Note_off_c, 9, 40, 0
11, 185156, Note_off_c, 9, 42, 0
11, 185156, Note_off_c, 9, 82, 0
11, 185280, Note_on_c, 9, 82, 80
11, 185396, Note_off_c, 9, 82, 0
11, 185520, Note_on_c, 9, 36, 90
11, 185520, Note_on_c, 9, 82, 60
11, 185636, Note_off_c, 9, 36, 0
11, 185636, Note_off_c, 9, 82, 0
11, 185760, Note_on_c, 9, 36, 120
11, 185760, Note_on_c, 9, 42, 90
11, 185760, Note_on_c, 9, 82, 80
11, 185876, Note_off_c, 9, 36, 0
11, 185876, Note_off_c, 9, 42, 0
11, 185876, Note_off_c, 9, 82, 0
11, 186000, Note_on_c, 9, 82, 60
11, 186116, Note_off_c, 9, 82, 0
11, 186240, Note_on_c, 9, 82, 80
11, 186356, Note_off_c, 9, 82, 0
11, 186480, Note_on_c, 9, 40, 120
11, 186480, Note_on_c, 9, 42, 90
11, 186480, Note_on_c, 9, 82, 60
11, 186596, Note_off_c, 9, 40, 0
11, 186596, Note_off_c, 9, 42, 0
11, 186596, Note_off_c, 9, 82, 0
11, 186720, Note_on_c, 9, 82, 80
11, 186836, Note_off_c, 9, 82, 0
11, 186960, Note_on_c, 9, 46, 90
11, 186960, Note_on_c, 9, 82, 60
11, 187076, Note_off_c, 9, 46, 0
11, 187076, Note_off_c, 9, 82, 0
11, 187200, Note_on_c, 9, 36, 120
11, 187200, Note_on_c, 9, 42, 90
11, 187200, Note_on_c, 9, 82, 80
11, 187316, Note_off_c, 9, 36, 0
11, 187316, Note_off_c, 9, 42, 0
11, 187316, Note_off_c, 9, 82, 0
11, 187440, Note_on_c, 9, 82, 60
11, 187556, Note_off_c, 9, 82, 0
11, 187680, Note_on_c, 9, 82, 80
11, 187796, Note_off_c, 9, 82, 0
11, 187920, Note_on_c, 9, 40, 120
11, 187920, Note_on_c, 9, 42, 90
11, 187920, Note_on_c, 9, 82, 60
11, 188036, Note_off_c, 9, 40, 0
11, 188036, Note_off_c, 9, 42, 0
11, 188036, Note_off_c, 9, 82, 0
11, 188160, Note_on_c, 9, 82, 80
11, 188276, Note_off_c, 9, 82, 0
11, 188400, Note_on_c, 9, 36, 90
11, 188400, Note_on_c, 9, 40, 80
11, 188400, Note_on_c, 9, 82, 60
11, 188516, Note_off_c, 9, 36, 0
11, 188516, Note_off_c, 9, 40, 0
11, 188516, Note_off_c, 9, 82, 0
11, 188640, Note_on_c, 9, 36, 120
11, 188640, Note_on_c, 9, 42, 90
11, 188640, Note_on_c, 9, 82, 80
11, 188756, Note_off_c, 9, 36, 0
11, 188756, Note_off_c, 9, 42, 0
11, 188756, Note_off_c, 9, 82, 0
11, 188880, Note_on_c, 9, 82, 60
11, 188996, Note_off_c, 9, 82, 0
11, 189120, Note_on_c, 9, 82, 80
11, 189236, Note_off_c, 9, 82, 0
11, 189360, Note_on_c, 9, 40, 120
11, 189360, Note_on_c, 9, 42, 90
11, 189360, Note_on_c, 9, 82, 60
11, 189476, Note_off_c, 9, 40, 0
11, 189476, Note_off_c, 9, 42, 0
11, 189476, Note_off_c, 9, 82, 0
11, 189600, Note_on_c, 9, 82, 80
11, 189716, Note_off_c, 9, 82, 0
11, 189840, Note_on_c, 9, 46, 90
11, 189840, Note_on_c, 9, 82, 60
11, 189956, Note_off_c, 9, 46, 0
11, 189956, Note_off_c, 9, 82, 0
11, 190080, Note_on_c, 9, 36, 120
11, 190080, Note_on_c, 9, 42, 90
11, 190080, Note_on_c, 9, 82, 80
11, 190196, Note_off_c, 9, 36, 0
11, 190196, Note_off_c, 9, 42, 0
11, 190196, Note_off_c, 9, 82, 0
11, 190320, Note_on_c, 9, 82, 60
11, 190436, Note_off_c, 9, 82, 0
11, 190560, Note_on_c, 9, 82, 80
11, 190676, Note_off_c, 9, 82, 0
11, 190800, Note_on_c, 9, 40, 120
11, 190800, Note_on_c, 9, 42, 90
11, 190800, Note_on_c, 9, 82, 60
11, 190916, Note_off_c, 9, 40, 0
11, 190916, Note_off_c, 9, 42, 0
11, 190916, Note_off_c, 9, 82, 0
11, 191040, Note_on_c, 9, 82, 80
11, 191156, Note_off_c, 9, 82, 0
11, 191280, Note_on_c, 9, 36, 90
11, 191280, Note_on_c, 9, 82, 60
11, 191396, Note_off_c, 9, 36, 0
11, 191396, Note_off_c, 9, 82, 0
11, 191520, Note_on_c, 9, 36, 120
11, 191520, Note_on_c, 9, 42, 90
11, 191520, Note_on_c, 9, 82, 80
11, 191636, Note_off_c, 9, 36, 0
11, 191636, Note_off_c, 9, 42, 0
11, 191636, Note_off_c, 9, 82, 0
11, 191760, Note_on_c, 9, 82, 60
11, 191876, Note_off_c, 9, 82, 0
11, 192000, Note_on_c, 9, 36, 80
11, 192000, Note_on_c, 9, 82, 80
11, 192116, Note_off_c, 9, 36, 0
11, 192116, Note_off_c, 9, 82, 0
11, 192240, Note_on_c, 9, 36, 100
11, 192240, Note_on_c, 9, 40, 120
11, 192240, Note_on_c, 9, 42, 90
11, 192240, Note_on_c, 9, 82, 60
11, 192356, Note_off_c, 9, 36, 0
11, 192356, Note_off_c, 9, 40, 0
11, 192356, Note_off_c, 9, 42, 0
11, 192356, Note_off_c, 9, 82, 0
11, 192480, Note_on_c, 9, 82, 80
11, 192596, Note_off_c, 9, 82, 0
11, 192720, Note_on_c, 9, 36, 90
11, 192720, Note_on_c, 9, 42, 90
11, 192720, Note_on_c, 9, 82, 60
11, 192836, Note_off_c, 9, 36, 0
11, 192836, Note_off_c, 9, 42, 0
11, 192836, Note_off_c, 9, 82, 0
11, 192960, Note_on_c, 9, 36, 120
11, 192960, Note_on_c, 9, 42, 90
11, 192960, Note_on_c, 9, 82, 80
11, 193076, Note_off_c, 9, 36, 0
11, 193076, Note_off_c, 9, 42, 0
11, 193076, Note_off_c, 9, 82, 0
11, 193200, Note_on_c, 9, 82, 60
11, 193316, Note_off_c, 9, 82, 0
11, 193440, Note_on_c, 9, 82, 80
11, 193556, Note_off_c, 9, 82, 0
11, 193680, Note_on_c, 9, 40, 120
11, 193680, Note_on_c, 9, 42, 90
11, 193680, Note_on_c, 9, 82, 60
11, 193796, Note_off_c, 9, 40, 0
11, 193796, Note_off_c, 9, 42, 0
11, 193796, Note_off_c, 9, 82, 0
11, 193920, Note_on_c, 9, 82, 80
11, 194036, Note_off_c, 9, 82, 0
11, 194160, Note_on_c, 9, 40, 80
11, 194160, Note_on_c, 9, 82, 60
11, 194276, Note_off_c, 9, 40, 0
11, 194276, Note_off_c, 9, 82, 0
11, 194400, Note_on_c, 9, 36, 100
11, 194400, Note_on_c, 9, 42, 90
11, 194400, Note_on_c, 9, 82, 80
11, 194516, Note_off_c, 9, 36, 0
11, 194516, Note_off_c, 9, 42, 0
11, 194516, Note_off_c, 9, 82, 0
11, 194640, Note_on_c, 9, 82, 60
11, 194756, Note_off_c, 9, 82, 0
11, 194880, Note_on_c, 9, 36, 100
11, 194880, Note_on_c, 9, 82, 80
11, 194996, Note_off_c, 9, 36, 0
11, 194996, Note_off_c, 9, 82, 0
11, 195120, Note_on_c, 9, 40, 120
11, 195120, Note_on_c, 9, 42, 90
11, 195120, Note_on_c, 9, 82, 60
11, 195236, Note_off_c, 9, 40, 0
11, 195236, Note_off_c, 9, 42, 0
11, 195236, Note_off_c, 9, 82, 0
11, 195360, Note_on_c, 9, 36, 100
11, 195360, Note_on_c, 9, 82, 80
11, 195476, Note_off_c, 9, 36, 0
11, 195476, Note_off_c, 9, 82, 0
11, 195600, Note_on_c, 9, 46, 90
11, 195600, Note_on_c, 9, 82, 60
11, 195716, Note_off_c, 9, 46, 0
11, 195716, Note_off_c, 9, 82, 0
11, 195840, Note_on_c, 9, 36, 120
11, 195840, Note_on_c, 9, 42, 90
11, 195840, Note_on_c, 9, 82, 80
11, 195956, Note_off_c, 9, 36, 0
11, 195956, Note_off_c, 9, 42, 0
11, 195956, Note_off_c, 9, 82, 0
11, 196080, Note_on_c, 9, 82, 60
11, 196196, Note_off_c, 9, 82, 0
11, 196320, Note_on_c, 9, 82, 80
11, 196436, Note_off_c, 9, 82, 0
11, 196560, Note_on_c, 9, 40, 120
11, 196560, Note_on_c, 9, 42, 90
11, 196560, Note_on_c, 9, 82, 60
11, 196676, Note_off_c, 9, 40, 0
11, 196676, Note_off_c, 9, 42, 0
11, 196676, Note_off_c, 9, 82, 0
11, 196800, Note_on_c, 9, 82, 80
11, 196916, Note_off_c, 9, 82, 0
11, 197040, Note_on_c, 9, 36, 90
11, 197040, Note_on_c, 9, 82, 60
11, 197156, Note_off_c, 9, 36, 0
11, 197156, Note_off_c, 9, 82, 0
11, 197280, Note_on_c, 9, 36, 120
11, 197280, Note_on_c, 9, 42, 90
11, 197280, Note_on_c, 9, 82, 80
11, 197396, Note_off_c, 9, 36, 0
11, 197396, Note_off_c, 9, 42, 0
11, 197396, Note_off_c, 9, 82, 0
11, 197520, Note_on_c, 9, 82, 60
11, 197636, Note_off_c, 9, 82, 0
11, 197760, Note_on_c, 9, 82, 80
11, 197876, Note_off_c, 9, 82, 0
11, 198000, Note_on_c, 9, 40, 120
11, 198000, Note_on_c, 9, 42, 90
11, 198000, Note_on_c, 9, 82, 60
11, 198116, Note_off_c, 9, 40, 0
11, 198116, Note_off_c, 9, 42, 0
11, 198116, Note_off_c, 9, 82, 0
11, 198240, Note_on_c, 9, 82, 80
11, 198356, Note_off_c, 9, 82, 0
11, 198480, Note_on_c, 9, 46, 90
11, 198480, Note_on_c, 9, 82, 60
11, 198596, Note_off_c, 9, 46, 0
11, 198596, Note_off_c, 9, 82, 0
11, 198720, Note_on_c, 9, 36, 120
11, 198720, Note_on_c, 9, 42, 90
11, 198720, Note_on_c, 9, 82, 80
11, 198836, Note_off_c, 9, 36, 0
11, 198836, Note_off_c, 9, 42, 0
11, 198836, Note_off_c, 9, 82, 0
11, 198960, Note_on_c, 9, 82, 60
11, 199076, Note_off_c, 9, 82, 0
11, 199200, Note_on_c, 9, 82, 80
11, 199316, Note_off_c, 9, 82, 0
11, 199440, Note_on_c, 9, 40, 120
11, 199440, Note_on_c, 9, 42, 90
11, 199440, Note_on_c, 9, 82, 60
11, 199556, Note_off_c, 9, 40, 0
11, 199556, Note_off_c, 9, 42, 0
11, 199556, Note_off_c, 9, 82, 0
11, 199680, Note_on_c, 9, 82, 80
11, 199796, Note_off_c, 9, 82, 0
11, 199920, Note_on_c, 9, 36, 90
11, 199920, Note_on_c, 9, 40, 80
11, 199920, Note_on_c, 9, 82, 60
11, 200036, Note_off_c, 9, 36, 0
11, 200036, Note_off_c, 9, 40, 0
11, 200036, Note_off_c, 9, 82, 0
11, 200160, Note_on_c, 9, 36, 120
11, 200160, Note_on_c, 9, 42, 90
11, 200160, Note_on_c, 9, 82, 80
11, 200276, Note_off_c, 9, 36, 0
11, 200276, Note_off_c, 9, 42, 0
11, 200276, Note_off_c, 9, 82, 0
11, 200400, Note_on_c, 9, 82, 60
11, 200516, Note_off_c, 9, 82, 0
11, 200640, Note_on_c, 9, 82, 80
11, 200756, Note_off_c, 9, 82, 0
11, 200880, Note_on_c, 9, 40, 120
11, 200880, Note_on_c, 9, 42, 90
11, 200880, Note_on_c, 9, 82, 60
11, 200996, Note_off_c, 9, 40, 0
11, 200996, Note_off_c, 9, 42, 0
11, 200996, Note_off_c, 9, 82, 0
11, 201120, Note_on_c, 9, 82, 80
11, 201236, Note_off_c, 9, 82, 0
11, 201360, Note_on_c, 9, 46, 90
11, 201360, Note_on_c, 9, 82, 60
11, 201476, Note_off_c, 9, 46, 0
11, 201476, Note_off_c, 9, 82, 0
11, 201600, Note_on_c, 9, 36, 120
11, 201600, Note_on_c, 9, 42, 90
11, 201600, Note_on_c, 9, 82, 80
11, 201716, Note_off_c, 9, 36, 0
11, 201716, Note_off_c, 9, 42, 0
11, 201716, Note_off_c, 9, 82, 0
11, 201840, Note_on_c, 9, 82, 60
11, 201956, Note_off_c, 9, 82, 0
11, 202080, Note_on_c, 9, 82, 80
11, 202196, Note_off_c, 9, 82, 0
11, 202320, Note_on_c, 9, 40, 120
11, 202320, Note_on_c, 9, 42, 90
11, 202320, Note_on_c, 9, 82, 60
11, 202436, Note_off_c, 9, 40, 0
11, 202436, Note_off_c, 9, 42, 0
11, 202436, Note_off_c, 9, 82, 0
11, 202560, Note_on_c, 9, 82, 80
11, 202676, Note_off_c, 9, 82, 0
11, 202800, Note_on_c, 9, 36, 90
11, 202800, Note_on_c, 9, 82, 60
11, 202916, Note_off_c, 9, 36, 0
11, 202916, Note_off_c, 9, 82, 0
11, 203040, Note_on_c, 9, 36, 120
11, 203040, Note_on_c, 9, 42, 90
11, 203040, Note_on_c, 9, 82, 80
11, 203156, Note_off_c, 9, 36, 0
11, 203156, Note_off_c, 9, 42, 0
11, 203156, Note_off_c, 9, 82, 0
11, 203280, Note_on_c, 9, 82, 60
11, 203396, Note_off_c, 9, 82, 0
11, 203520, Note_on_c, 9, 36, 80
11, 203520, Note_on_c, 9, 82, 80
11, 203636, Note_off_c, 9, 36, 0
11, 203636, Note_off_c, 9, 82, 0
11, 203760, Note_on_c, 9, 40, 120
11, 203760, Note_on_c, 9, 42, 90
11, 203760, Note_on_c, 9, 82, 60
11, 203876, Note_off_c, 9, 40, 0
11, 203876, Note_off_c, 9, 42, 0
11, 203876, Note_off_c, 9, 82, 0
11, 204000, Note_on_c, 9, 36, 100
11, 204000, Note_on_c, 9, 82, 80
11, 204116, Note_off_c, 9, 36, 0
11, 204116, Note_off_c, 9, 82, 0
11, 204240, Note_on_c, 9, 42, 90
11, 204240, Note_on_c, 9, 82, 60
11, 204356, Note_off_c, 9, 42, 0
11, 204356, Note_off_c, 9, 82, 0
11, 204480, Note_on_c, 9, 36, 120
11, 204480, Note_on_c, 9, 42, 90
11, 204480, Note_on_c, 9, 82, 80
11, 204596, Note_off_c, 9, 36, 0
11, 204596, Note_off_c, 9, 42, 0
11, 204596, Note_off_c, 9, 82, 0
11, 204720, Note_on_c, 9, 82, 60
11, 204836, Note_off_c, 9, 82, 0
11, 204960, Note_on_c, 9, 82, 80
11, 205076, Note_off_c, 9, 82, 0
11, 205200, Note_on_c, 9, 40, 120
11, 205200, Note_on_c, 9, 42, 90
11, 205200, Note_on_c, 9, 82, 60
11, 205316, Note_off_c, 9, 40, 0
11, 205316, Note_off_c, 9, 42, 0
11, 205316, Note_off_c, 9, 82, 0
11, 205440, Note_on_c, 9, 82, 80
11, 205556, Note_off_c, 9, 82, 0
11, 205680, Note_on_c, 9, 40, 80
11, 205680, Note_on_c, 9, 82, 60
11, 205796, Note_off_c, 9, 40, 0
11, 205796, Note_off_c, 9, 82, 0
11, 205920, Note_on_c, 9, 36, 100
11, 205920, Note_on_c, 9, 42, 90
11, 205920, Note_on_c, 9, 82, 80
11, 206036, Note_off_c, 9, 36, 0
11, 206036, Note_off_c, 9, 42, 0
11, 206036, Note_off_c, 9, 82, 0
11, 206160, Note_on_c, 9, 82, 60
11, 206276, Note_off_c, 9, 82, 0
11, 206400, Note_on_c, 9, 36, 100
11, 206400, Note_on_c, 9, 82, 80
11, 206516, Note_off_c, 9, 36, 0
11, 206516, Note_off_c, 9, 82, 0
11, 206640, Note_on_c, 9, 40, 120
11, 206640, Note_on_c, 9, 42, 90
11, 206640, Note_on_c, 9, 82, 60
11, 206756, Note_off_c, 9, 40, 0
11, 206756, Note_off_c, 9, 42, 0
11, 206756, Note_off_c, 9, 82, 0
11, 206880, Note_on_c, 9, 36, 100
11, 206880, Note_on_c, 9, 82, 80
11, 206996, Note_off_c, 9, 36, 0
11, 206996, Note_off_c, 9, 82, 0
11, 207120, Note_on_c, 9, 46, 90
11, 207120, Note_on_c, 9, 82, 60
11, 207236, Note_off_c, 9, 46, 0
11, 207236, Note_off_c, 9, 82, 0
11, 207360, Note_on_c, 9, 36, 120
11, 207360, Note_on_c, 9, 42, 90
11, 207360, Note_on_c, 9, 82, 80
11, 207476, Note_off_c, 9, 36, 0
11, 207476, Note_off_c, 9, 42, 0
11, 207476, Note_off_c, 9, 82, 0
11, 207600, Note_on_c, 9, 82, 60
11, 207716, Note_off_c, 9, 82, 0
11, 207840, Note_on_c, 9, 82, 80
11, 207956, Note_off_c, 9, 82, 0
11, 208080, Note_on_c, 9, 40, 120
11, 208080, Note_on_c, 9, 42, 90
11, 208080, Note_on_c, 9, 82, 60
11, 208196, Note_off_c, 9, 40, 0
11, 208196, Note_off_c, 9, 42, 0
11, 208196, Note_off_c, 9, 82, 0
11, 208320, Note_on_c, 9, 82, 80
11, 208436, Note_off_c, 9, 82, 0
11, 208560, Note_on_c, 9, 36, 90
11, 208560, Note_on_c, 9, 82, 60
11, 208676, Note_off_c, 9, 36, 0
11, 208676, Note_off_c, 9, 82, 0
11, 208800, Note_on_c, 9, 36, 120
11, 208800, Note_on_c, 9, 42, 90
11, 208800, Note_on_c, 9, 82, 80
11, 208916, Note_off_c, 9, 36, 0
11, 208916, Note_off_c, 9, 42, 0
11, 208916, Note_off_c, 9, 82, 0
11, 209040, Note_on_c, 9, 82, 60
11, 209156, Note_off_c, 9, 82, 0
11, 209280, Note_on_c, 9, 82, 80
11, 209396, Note_off_c, 9, 82, 0
11, 209520, Note_on_c, 9, 40, 120
11, 209520, Note_on_c, 9, 42, 90
11, 209520, Note_on_c, 9, 82, 60
11, 209636, Note_off_c, 9, 40, 0
11, 209636, Note_off_c, 9, 42, 0
11, 209636, Note_off_c, 9, 82, 0
11, 209760, Note_on_c, 9, 82, 80
11, 209876, Note_off_c, 9, 82, 0
11, 210000, Note_on_c, 9, 46, 90
11, 210000, Note_on_c, 9, 82, 60
11, 210116, Note_off_c, 9, 46, 0
11, 210116, Note_off_c, 9, 82, 0
11, 210240, Note_on_c, 9, 36, 120
11, 210240, Note_on_c, 9, 42, 90
11, 210240, Note_on_c, 9, 82, 80
11, 210356, Note_off_c, 9, 36, 0
11, 210356, Note_off_c, 9, 42, 0
11, 210356, Note_off_c, 9, 82, 0
11, 210480, Note_on_c, 9, 82, 60
11, 210596, Note_off_c, 9, 82, 0
11, 210720, Note_on_c, 9, 82, 80
11, 210836, Note_off_c, 9, 82, 0
11, 210960, Note_on_c, 9, 40, 120
11, 210960, Note_on_c, 9, 42, 90
11, 210960, Note_on_c, 9, 82, 60
11, 211076, Note_off_c, 9, 40, 0
11, 211076, Note_off_c, 9, 42, 0
11, 211076, Note_off_c, 9, 82, 0
11, 211200, Note_on_c, 9, 82, 80
11, 211316, Note_off_c, 9, 82, 0
11, 211440, Note_on_c, 9, 36, 90
11, 211440, Note_on_c, 9, 40, 80
11, 211440, Note_on_c, 9, 82, 60
11, 211556, Note_off_c, 9, 36, 0
11, 211556, Note_off_c, 9, 40, 0
11, 211556, Note_off_c, 9, 82, 0
11, 211680, Note_on_c, 9, 36, 120
11, 211680, Note_on_c, 9, 42, 90
11, 211680, Note_on_c, 9, 82, 80
11, 211796, Note_off_c, 9, 36, 0
11, 211796, Note_off_c, 9, 42, 0
11, 211796, Note_off_c, 9, 82, 0
11, 211920, Note_on_c, 9, 82, 60
11, 212036, Note_off_c, 9, 82, 0
11, 212160, Note_on_c, 9, 82, 80
11, 212276, Note_off_c, 9, 82, 0
11, 212400, Note_on_c, 9, 40, 120
11, 212400, Note_on_c, 9, 42, 90
11, 212400, Note_on_c, 9, 82, 60
11, 212516, Note_off_c, 9, 40, 0
11, 212516, Note_off_c, 9, 42, 0
11, 212516, Note_off_c, 9, 82, 0
11, 212640, Note_on_c, 9, 82, 80
11, 212756, Note_off_c, 9, 82, 0
11, 212880, Note_on_c, 9, 46, 90
11, 212880, Note_on_c, 9, 82, 60
11, 212996, Note_off_c, 9, 46, 0
11, 212996, Note_off_c, 9, 82, 0
11, 213120, Note_on_c, 9, 36, 120
11, 213120, Note_on_c, 9, 42, 90
11, 213120, Note_on_c, 9, 82, 80
11, 213236, Note_off_c, 9, 36, 0
11, 213236, Note_off_c, 9, 42, 0
11, 213236, Note_off_c, 9, 82, 0
11, 213360, Note_on_c, 9, 82, 60
11, 213476, Note_off_c, 9, 82, 0
11, 213600, Note_on_c, 9, 82, 80
11, 213716, Note_off_c, 9, 82, 0
11, 213840, Note_on_c, 9, 40, 120
11, 213840, Note_on_c, 9, 42, 90
11, 213840, Note_on_c, 9, 82, 60
11, 213956, Note_off_c, 9, 40, 0
11, 213956, Note_off_c, 9, 42, 0
11, 213956, Note_off_c, 9, 82, 0
11, 214080, Note_on_c, 9, 82, 80
11, 214196, Note_off_c, 9, 82, 0
11, 214320, Note_on_c, 9, 36, 90
11, 214320, Note_on_c, 9, 82, 60
11, 214436, Note_off_c, 9, 36, 0
11, 214436, Note_off_c, 9, 82, 0
11, 214560, Note_on_c, 9, 36, 120
11, 214560, Note_on_c, 9, 42, 90
11, 214560, Note_on_c, 9, 82, 80
11, 214676, Note_off_c, 9, 36, 0
11, 214676, Note_off_c, 9, 42, 0
11, 214676, Note_off_c, 9, 82, 0
11, 214800, Note_on_c, 9, 82, 60
11, 214916, Note_off_c, 9, 82, 0
11, 215040, Note_on_c, 9, 36, 80
11, 215040, Note_on_c, 9, 82, 80
11, 215156, Note_off_c, 9, 36, 0
11, 215156, Note_off_c, 9, 82, 0
11, 215280, Note_on_c, 9, 36, 100
11, 215280, Note_on_c, 9, 40, 120
11, 215280, Note_on_c, 9, 42, 90
11, 215280, Note_on_c, 9, 82, 60
11, 215396, Note_off_c, 9, 36, 0
11, 215396, Note_off_c, 9, 40, 0
11, 215396, Note_off_c, 9, 42, 0
11, 215396, Note_off_c, 9, 82, 0
11, 215520, Note_on_c, 9, 82, 80
11, 215636, Note_off_c, 9, 82, 0
11, 215760, Note_on_c, 9, 36, 90
11, 215760, Note_on_c, 9, 42, 90
11, 215760, Note_on_c, 9, 82, 60
11, 215876, Note_off_c, 9, 36, 0
11, 215876, Note_off_c, 9, 42, 0
11, 215876, Note_off_c, 9, 82, 0
11, 216000, Note_on_c, 9, 36, 120
11, 216000, Note_on_c, 9, 42, 90
11, 216000, Note_on_c, 9, 82, 80
11, 216116, Note_off_c, 9, 36, 0
11, 216116, Note_off_c, 9, 42, 0
11, 216116, Note_off_c, 9, 82, 0
11, 216240, Note_on_c, 9, 82, 60
11, 216356, Note_off_c, 9, 82, 0
11, 216480, Note_on_c, 9, 82, 80
11, 216596, Note_off_c, 9, 82, 0
11, 216720, Note_on_c, 9, 40, 120
11, 216720, Note_on_c, 9, 42, 90
11, 216720, Note_on_c, 9, 82, 60
11, 216836, Note_off_c, 9, 40, 0
11, 216836, Note_off_c, 9, 42, 0
11, 216836, Note_off_c, 9, 82, 0
11, 216960, Note_on_c, 9, 82, 80
11, 217076, Note_off_c, 9, 82, 0
11, 217200, Note_on_c, 9, 40, 80
11, 217200, Note_on_c, 9, 82, 60
11, 217316, Note_off_c, 9, 40, 0
11, 217316, Note_off_c, 9, 82, 0
11, 217440, Note_on_c, 9, 36, 100
11, 217440, Note_on_c, 9, 42, 90
11, 217440, Note_on_c, 9, 82, 80
11, 217556, Note_off_c, 9, 36, 0
11, 217556, Note_off_c, 9, 42, 0
11, 217556, Note_off_c, 9, 82, 0
11, 217680, Note_on_c, 9, 82, 60
11, 217796, Note_off_c, 9, 82, 0
11, 217920, Note_on_c, 9, 36, 100
11, 217920, Note_on_c, 9, 82, 80
11, 218036, Note_off_c, 9, 36, 0
11, 218036, Note_off_c, 9, 82, 0
11, 218160, Note_on_c, 9, 40, 120
11, 218160, Note_on_c, 9, 42, 90
11, 218160, Note_on_c, 9, 82, 60
11, 218276, Note_off_c, 9, 40, 0
11, 218276, Note_off_c, 9, 42, 0
11, 218276, Note_off_c, 9, 82, 0
11, 218400, Note_on_c, 9, 36, 100
11, 218400, Note_on_c, 9, 82, 80
11, 218516, Note_off_c, 9, 36, 0
11, 218516, Note_off_c, 9, 82, 0
11, 218640, Note_on_c, 9, 46, 90
11, 218640, Note_on_c, 9, 82, 60
11, 218756, Note_off_c, 9, 46, 0
11, 218756, Note_off_c, 9, 82, 0
11, 218880, Note_on_c, 9, 36, 120
11, 218880, Note_on_c, 9, 52, 125
11, 218880, Note_on_c, 9, 82, 80
11, 218996, Note_off_c, 9, 36, 0
11, 218996, Note_off_c, 9, 52, 0
11, 218996, Note_off_c, 9, 82, 0
11, 219120, Note_on_c, 9, 82, 60
11, 219236, Note_off_c, 9, 82, 0
11, 219360, Note_on_c, 9, 53, 90
11, 219360, Note_on_c, 9, 82, 80
11, 219476, Note_off_c, 9, 53, 0
11, 219476, Note_off_c, 9, 82, 0
11, 219600, Note_on_c, 9, 40, 120
11, 219600, Note_on_c, 9, 82, 60
11, 219716, Note_off_c, 9, 40, 0
11, 219716, Note_off_c, 9, 82, 0
11, 219840, Note_on_c, 9, 53, 90
11, 219840, Note_on_c, 9, 82, 80
11, 219956, Note_off_c, 9, 53, 0
11, 219956, Note_off_c, 9, 82, 0
11, 220080, Note_on_c, 9, 36, 90
11, 220080, Note_on_c, 9, 82, 60
11, 220196, Note_off_c, 9, 36, 0
11, 220196, Note_off_c, 9, 82, 0
11, 220320, Note_on_c, 9, 36, 120
11, 220320, Note_on_c, 9, 53, 90
11, 220320, Note_on_c, 9, 82, 80
11, 220436, Note_off_c, 9, 36, 0
11, 220436, Note_off_c, 9, 53, 0
11, 220436, Note_off_c, 9, 82, 0
11, 220560, Note_on_c, 9, 82, 60
11, 220676, Note_off_c, 9, 82, 0
11, 220800, Note_on_c, 9, 53, 90
11, 220800, Note_on_c, 9, 82, 80
11, 220916, Note_off_c, 9, 53, 0
11, 220916, Note_off_c, 9, 82, 0
11, 221040, Note_on_c, 9, 40, 120
11, 221040, Note_on_c, 9, 82, 60
11, 221156, Note_off_c, 9, 40, 0
11, 221156, Note_off_c, 9, 82, 0
11, 221280, Note_on_c, 9, 53, 90
11, 221280, Note_on_c, 9, 82, 80
11, 221396, Note_off_c, 9, 53, 0
11, 221396, Note_off_c, 9, 82, 0
11, 221520, Note_on_c, 9, 82, 60
11, 221636, Note_off_c, 9, 82, 0
11, 221760, Note_on_c, 9, 36, 120
11, 221760, Note_on_c, 9, 53, 90
11, 221760, Note_on_c, 9, 82, 80
11, 221876, Note_off_c, 9, 36, 0
11, 221876, Note_off_c, 9, 53, 0
11, 221876, Note_off_c, 9, 82, 0
11, 222000, Note_on_c, 9, 82, 60
11, 222116, Note_off_c, 9, 82, 0
11, 222240, Note_on_c, 9, 53, 90
11, 222240, Note_on_c, 9, 82, 80
11, 222356, Note_off_c, 9, 53, 0
11, 222356, Note_off_c, 9, 82, 0
11, 222480, Note_on_c, 9, 40, 120
11, 222480, Note_on_c, 9, 82, 60
11, 222596, Note_off_c, 9, 40, 0
11, 222596, Note_off_c, 9, 82, 0
11, 222720, Note_on_c, 9, 53, 90
11, 222720, Note_on_c, 9, 82, 80
11, 222836, Note_off_c, 9, 53, 0
11, 222836, Note_off_c, 9, 82, 0
11, 222960, Note_on_c, 9, 36, 90
11, 222960, Note_on_c, 9, 40, 80
11, 222960, Note_on_c, 9, 82, 60
11, 223076, Note_off_c, 9, 36, 0
11, 223076, Note_off_c, 9, 40, 0
11, 223076, Note_off_c, 9, 82, 0
11, 223200, Note_on_c, 9, 36, 120
11, 223200, Note_on_c, 9, 53, 90
11, 223200, Note_on_c, 9, 82, 80
11, 223316, Note_off_c, 9, 36, 0
11, 223316, Note_off_c, 9, 53, 0
11, 223316, Note_off_c, 9, 82, 0
11, 223440, Note_on_c, 9, 82, 60
11, 223556, Note_off_c, 9, 82, 0
11, 223680, Note_on_c, 9, 53, 90
11, 223680, Note_on_c, 9, 82, 80
11, 223796, Note_off_c, 9, 53, 0
11, 223796, Note_off_c, 9, 82, 0
11, 223920, Note_on_c, 9, 40, 120
11, 223920, Note_on_c, 9, 82, 60
11, 224036, Note_off_c, 9, 40, 0
11, 224036, Note_off_c, 9, 82, 0
11, 224160, Note_on_c, 9, 53, 90
11, 224160, Note_on_c, 9, 82, 80
11, 224276, Note_off_c, 9, 53, 0
11, 224276, Note_off_c, 9, 82, 0
11, 224400, Note_on_c, 9, 82, 60
11, 224516, Note_off_c, 9, 82, 0
11, 224640, Note_on_c, 9, 36, 120
11, 224640, Note_on_c, 9, 53, 90
11, 224640, Note_on_c, 9, 82, 80
11, 224756, Note_off_c, 9, 36, 0
11, 224756, Note_off_c, 9, 53, 0
11, 224756, Note_off_c, 9, 82, 0
11, 224880, Note_on_c, 9, 82, 60
11, 224996, Note_off_c, 9, 82, 0
11, 225120, Note_on_c, 9, 53, 90
11, 225120, Note_on_c, 9, 82, 80
11, 225236, Note_off_c, 9, 53, 0
11, 225236, Note_off_c, 9, 82, 0
11, 225360, Note_on_c, 9, 40, 120
11, 225360, Note_on_c, 9, 82, 60
11, 225476, Note_off_c, 9, 40, 0
11, 225476, Note_off_c, 9, 82, 0
11, 225600, Note_on_c, 9, 53, 90
11, 225600, Note_on_c, 9, 82, 80
11, 225716, Note_off_c, 9, 53, 0
11, 225716, Note_off_c, 9, 82, 0
11, 225840, Note_on_c, 9, 36, 90
11, 225840, Note_on_c, 9, 82, 60
11, 225956, Note_off_c, 9, 36, 0
11, 225956, Note_off_c, 9, 82, 0
11, 226080, Note_on_c, 9, 36, 120
11, 226080, Note_on_c, 9, 53, 90
11, 226080, Note_on_c, 9, 82, 80
11, 226196, Note_off_c, 9, 36, 0
11, 226196, Note_off_c, 9, 53, 0
11, 226196, Note_off_c, 9, 82, 0
11, 226320, Note_on_c, 9, 82, 60
11, 226436, Note_off_c, 9, 82, 0
11, 226560, Note_on_c, 9, 36, 80
11, 226560, Note_on_c, 9, 53, 90
11, 226560, Note_on_c, 9, 82, 80
11, 226676, Note_off_c, 9, 36, 0
11, 226676, Note_off_c, 9, 53, 0
11, 226676, Note_off_c, 9, 82, 0
11, 226800, Note_on_c, 9, 40, 120
11, 226800, Note_on_c, 9, 82, 60
11, 226916, Note_off_c, 9, 40, 0
11, 226916, Note_off_c, 9, 82, 0
11, 227040, Note_on_c, 9, 36, 100
11, 227040, Note_on_c, 9, 53, 90
11, 227040, Note_on_c, 9, 82, 80
11, 227156, Note_off_c, 9, 36, 0
11, 227156, Note_off_c, 9, 53, 0
11, 227156, Note_off_c, 9, 82, 0
11, 227280, Note_on_c, 9, 82, 60
11, 227396, Note_off_c, 9, 82, 0
11, 227520, Note_on_c, 9, 36, 120
11, 227520, Note_on_c, 9, 53, 90
11, 227520, Note_on_c, 9, 82, 80
11, 227636, Note_off_c, 9, 36, 0
11, 227636, Note_off_c, 9, 53, 0
11, 227636, Note_off_c, 9, 82, 0
11, 227760, Note_on_c, 9, 82, 60
11, 227876, Note_off_c, 9, 82, 0
11, 228000, Note_on_c, 9, 53, 90
11, 228000, Note_on_c, 9, 82, 80
11, 228116, Note_off_c, 9, 53, 0
11, 228116, Note_off_c, 9, 82, 0
11, 228240, Note_on_c, 9, 40, 120
11, 228240, Note_on_c, 9, 82, 60
11, 228356, Note_off_c, 9, 40, 0
11, 228356, Note_off_c, 9, 82, 0
11, 228480, Note_on_c, 9, 53, 90
11, 228480, Note_on_c, 9, 82, 80
11, 228596, Note_off_c, 9, 53, 0
11, 228596, Note_off_c, 9, 82, 0
11, 228720, Note_on_c, 9, 40, 80
11, 228720, Note_on_c, 9, 82, 60
11, 228836, Note_off_c, 9, 40, 0
11, 228836, Note_off_c, 9, 82, 0
11, 228960, Note_on_c, 9, 36, 100
11, 228960, Note_on_c, 9, 53, 90
11, 228960, Note_on_c, 9, 82, 80
11, 229076, Note_off_c, 9, 36, 0
11, 229076, Note_off_c, 9, 53, 0
11, 229076, Note_off_c, 9, 82, 0
11, 229200, Note_on_c, 9, 82, 60
11, 229316, Note_off_c, 9, 82, 0
11, 229440, Note_on_c, 9, 36, 100
11, 229440, Note_on_c, 9, 53, 90
11, 229440, Note_on_c, 9, 82, 80
11, 229556, Note_off_c, 9, 36, 0
11, 229556, Note_off_c, 9, 53, 0
11, 229556, Note_off_c, 9, 82, 0
11, 229680, Note_on_c, 9, 40, 120
11, 229680, Note_on_c, 9, 82, 60
11, 229796, Note_off_c, 9, 40, 0
11, 229796, Note_off_c, 9, 82, 0
11, 229920, Note_on_c, 9, 36, 100
11, 229920, Note_on_c, 9, 53, 90
11, 229920, Note_on_c, 9, 82, 80
11, 230036, Note_off_c, 9, 36, 0
11, 230036, Note_off_c, 9, 53, 0
11, 230036, Note_off_c, 9, 82, 0
11, 230160, Note_on_c, 9, 82, 60
11, 230276, Note_off_c, 9, 82, 0
11, 230400, Note_on_c, 9, 36, 120
11, 230400, Note_on_c, 9, 53, 90
11, 230400, Note_on_c, 9, 82, 80
11, 230516, Note_off_c, 9, 36, 0
11, 230516, Note_off_c, 9, 53, 0
11, 230516, Note_off_c, 9, 82, 0
11, 230640, Note_on_c, 9, 82, 60
11, 230756, Note_off_c, 9, 82, 0
11, 230880, Note_on_c, 9, 53, 90
11, 230880, Note_on_c, 9, 82, 80
11, 230996, Note_off_c, 9, 53, 0
11, 230996, Note_off_c, 9, 82, 0
11, 231120, Note_on_c, 9, 40, 120
11, 231120, Note_on_c, 9, 82, 60
11, 231236, Note_off_c, 9, 40, 0
11, 231236, Note_off_c, 9, 82, 0
11, 231360, Note_on_c, 9, 53, 90
11, 231360, Note_on_c, 9, 82, 80
11, 231476, Note_off_c, 9, 53, 0
11, 231476, Note_off_c, 9, 82, 0
11, 231600, Note_on_c, 9, 36, 90
11, 231600, Note_on_c, 9, 82, 60
11, 231716, Note_off_c, 9, 36, 0
11, 231716, Note_off_c, 9, 82, 0
11, 231840, Note_on_c, 9, 36, 120
11, 231840, Note_on_c, 9, 53, 90
11, 231840, Note_on_c, 9, 82, 80
11, 231956, Note_off_c, 9, 36, 0
11, 231956, Note_off_c, 9, 53, 0
11, 231956, Note_off_c, 9, 82, 0
11, 232080, Note_on_c, 9, 82, 60
11, 232196, Note_off_c, 9, 82, 0
11, 232320, Note_on_c, 9, 53, 90
11, 232320, Note_on_c, 9, 82, 80
11, 232436, Note_off_c, 9, 53, 0
11, 232436, Note_off_c, 9, 82, 0
11, 232560, Note_on_c, 9, 40, 120
11, 232560, Note_on_c, 9, 82, 60
11, 232676, Note_off_c, 9, 40, 0
11, 232676, Note_off_c, 9, 82, 0
11, 232800, Note_on_c, 9, 53, 90
11, 232800, Note_on_c, 9, 82, 80
11, 232916, Note_off_c, 9, 53, 0
11, 232916, Note_off_c, 9, 82, 0
11, 233040, Note_on_c, 9, 82, 60
11, 233156, Note_off_c, 9, 82, 0
11, 233280, Note_on_c, 9, 36, 120
11, 233280, Note_on_c, 9, 53, 90
11, 233280, Note_on_c, 9, 82, 80
11, 233396, Note_off_c, 9, 36, 0
11, 233396, Note_off_c, 9, 53, 0
11, 233396, Note_off_c, 9, 82, 0
11, 233520, Note_on_c, 9, 82, 60
11, 233636, Note_off_c, 9, 82, 0
11, 233760, Note_on_c, 9, 53, 90
11, 233760, Note_on_c, 9, 82, 80
11, 233876, Note_off_c, 9, 53, 0
11, 233876, Note_off_c, 9, 82, 0
11, 234000, Note_on_c, 9, 40, 120
11, 234000, Note_on_c, 9, 82, 60
11, 234116, Note_off_c, 9, 40, 0
11, 234116, Note_off_c, 9, 82, 0
11, 234240, Note_on_c, 9, 53, 90
11, 234240, Note_on_c, 9, 82, 80
11, 234356, Note_off_c, 9, 53, 0
11, 234356, Note_off_c, 9, 82, 0
11, 234480, Note_on_c, 9, 36, 90
11, 234480, Note_on_c, 9, 40, 80
11, 234480, Note_on_c, 9, 82, 60
11, 234596, Note_off_c, 9, 36, 0
11, 234596, Note_off_c, 9, 40, 0
11, 234596, Note_off_c, 9, 82, 0
11, 234720, Note_on_c, 9, 36, 120
11, 234720, Note_on_c, 9, 53, 90
11, 234720, Note_on_c, 9, 82, 80
11, 234836, Note_off_c, 9, 36, 0
11, 234836, Note_off_c, 9, 53, 0
11, 234836, Note_off_c, 9, 82, 0
11, 234960, Note_on_c, 9, 82, 60
11, 235076, Note_off_c, 9, 82, 0
11, 235200, Note_on_c, 9, 53, 90
11, 235200, Note_on_c, 9, 82, 80
11, 235316, Note_off_c, 9, 53, 0
11, 235316, Note_off_c, 9, 82, 0
11, 235440, Note_on_c, 9, 40, 120
11, 235440, Note_on_c, 9, 82, 60
11, 235556, Note_off_c, 9, 40, 0
11, 235556, Note_off_c, 9, 82, 0
11, 235680, Note_on_c, 9, 53, 90
11, 235680, Note_on_c, 9, 82, 80
11, 235796, Note_off_c, 9, 53, 0
11, 235796, Note_off_c, 9, 82, 0
11, 235920, Note_on_c, 9, 82, 60
11, 236036, Note_off_c, 9, 82, 0
11, 236160, Note_on_c, 9, 36, 120
11, 236160, Note_on_c, 9, 53, 90
11, 236160, Note_on_c, 9, 82, 80
11, 236276, Note_off_c, 9, 36, 0
11, 236276, Note_off_c, 9, 53, 0
11, 236276, Note_off_c, 9, 82, 0
11, 236400, Note_on_c, 9, 82, 60
11, 236516, Note_off_c, 9, 82, 0
11, 236640, Note_on_c, 9, 53, 90
11, 236640, Note_on_c, 9, 82, 80
11, 236756, Note_off_c, 9, 53, 0
11, 236756, Note_off_c, 9, 82, 0
11, 236880, Note_on_c, 9, 40, 120
11, 236880, Note_on_c, 9, 82, 60
11, 236996, Note_off_c, 9, 40, 0
11, 236996, Note_off_c, 9, 82, 0
11, 237120, Note_on_c, 9, 53, 90
11, 237120, Note_on_c, 9, 82, 80
11, 237236, Note_off_c, 9, 53, 0
11, 237236, Note_off_c, 9, 82, 0
11, 237360, Note_on_c, 9, 36, 90
11, 237360, Note_on_c, 9, 82, 60
11, 237476, Note_off_c, 9, 36, 0
11, 237476, Note_off_c, 9, 82, 0
11, 237600, Note_on_c, 9, 36, 120
11, 237600, Note_on_c, 9, 53, 90
11, 237600, Note_on_c, 9, 82, 80
11, 237716, Note_off_c, 9, 36, 0
11, 237716, Note_off_c, 9, 53, 0
11, 237716, Note_off_c, 9, 82, 0
11, 237840, Note_on_c, 9, 82, 60
11, 237956, Note_off_c, 9, 82, 0
11, 238080, Note_on_c, 9, 36, 80
11, 238080, Note_on_c, 9, 53, 90
11, 238080, Note_on_c, 9, 82, 80
11, 238196, Note_off_c, 9, 36, 0
11, 238196, Note_off_c, 9, 53, 0
11, 238196, Note_off_c, 9, 82, 0
11, 238320, Note_on_c, 9, 36, 100
11, 238320, Note_on_c, 9, 40, 120
11, 238320, Note_on_c, 9, 82, 60
11, 238436, Note_off_c, 9, 36, 0
11, 238436, Note_off_c, 9, 40, 0
11, 238436, Note_off_c, 9, 82, 0
11, 238560, Note_on_c, 9, 53, 90
11, 238560, Note_on_c, 9, 82, 80
11, 238676, Note_off_c, 9, 53, 0
11, 238676, Note_off_c, 9, 82, 0
11, 238800, Note_on_c, 9, 36, 90
11, 238800, Note_on_c, 9, 82, 60
11, 238916, Note_off_c, 9, 36, 0
11, 238916, Note_off_c, 9, 82, 0
11, 239040, Note_on_c, 9, 36, 120
11, 239040, Note_on_c, 9, 53, 90
11, 239040, Note_on_c, 9, 82, 80
11, 239156, Note_off_c, 9, 36, 0
11, 239156, Note_off_c, 9, 53, 0
11, 239156, Note_off_c, 9, 82, 0
11, 239280, Note_on_c, 9, 82, 60
11, 239396, Note_off_c, 9, 82, 0
11, 239520, Note_on_c, 9, 53, 90
11, 239520, Note_on_c, 9, 82, 80
11, 239636, Note_off_c, 9, 53, 0
11, 239636, Note_off_c, 9, 82, 0
11, 239760, Note_on_c, 9, 40, 120
11, 239760, Note_on_c, 9, 82, 60
11, 239876, Note_off_c, 9, 40, 0
11, 239876, Note_off_c, 9, 82, 0
11, 240000, Note_on_c, 9, 53, 90
11, 240000, Note_on_c, 9, 82, 80
11, 240116, Note_off_c, 9, 53, 0
11, 240116, Note_off_c, 9, 82, 0
11, 240240, Note_on_c, 9, 40, 80
11, 240240, Note_on_c, 9, 82, 60
11, 240356, Note_off_c, 9, 40, 0
11, 240356, Note_off_c, 9, 82, 0
11, 240480, Note_on_c, 9, 36, 100
11, 240480, Note_on_c, 9, 53, 90
11, 240480, Note_on_c, 9, 82, 80
11, 240596, Note_off_c, 9, 36, 0
11, 240596, Note_off_c, 9, 53, 0
11, 240596, Note_off_c, 9, 82, 0
11, 240720, Note_on_c, 9, 40, 120
11, 240720, Note_on_c, 9, 82, 60
11, 240836, Note_off_c, 9, 40, 0
11, 240836, Note_off_c, 9, 82, 0
11, 240960, Note_on_c, 9, 36, 100
11, 240960, Note_on_c, 9, 53, 90
11, 240960, Note_on_c, 9, 82, 80
11, 241076, Note_off_c, 9, 36, 0
11, 241076, Note_off_c, 9, 53, 0
11, 241076, Note_off_c, 9, 82, 0
11, 241200, Note_on_c, 9, 40, 120
11, 241200, Note_on_c, 9, 82, 60
11, 241316, Note_off_c, 9, 40, 0
11, 241316, Note_off_c, 9, 82, 0
11, 241440, Note_on_c, 9, 36, 100
11, 241440, Note_on_c, 9, 53, 90
11, 241440, Note_on_c, 9, 82, 80
11, 241556, Note_off_c, 9, 36, 0
11, 241556, Note_off_c, 9, 53, 0
11, 241556, Note_off_c, 9, 82, 0
11, 241680, Note_on_c, 9, 40, 120
11, 241680, Note_on_c, 9, 82, 60
11, 241796, Note_off_c, 9, 40, 0
11, 241796, Note_off_c, 9, 82, 0
11, 241920, Note_on_c, 9, 36, 120
11, 241920, Note_on_c, 9, 52, 90
11, 241920, Note_on_c, 9, 82, 80
11, 242036, Note_off_c, 9, 36, 0
11, 242036, Note_off_c, 9, 52, 0
11, 242036, Note_off_c, 9, 82, 0
11, 242160, Note_on_c, 9, 82, 60
11, 242276, Note_off_c, 9, 82, 0
11, 242400, Note_on_c, 9, 53, 90
11, 242400, Note_on_c, 9, 82, 80
11, 242516, Note_off_c, 9, 53, 0
11, 242516, Note_off_c, 9, 82, 0
11, 242640, Note_on_c, 9, 40, 120
11, 242640, Note_on_c, 9, 82, 60
11, 242756, Note_off_c, 9, 40, 0
11, 242756, Note_off_c, 9, 82, 0
11, 242880, Note_on_c, 9, 53, 90
11, 242880, Note_on_c, 9, 82, 80
11, 242996, Note_off_c, 9, 53, 0
11, 242996, Note_off_c, 9, 82, 0
11, 243120, Note_on_c, 9, 36, 90
11, 243120, Note_on_c, 9, 82, 60
11, 243236, Note_off_c, 9, 36, 0
11, 243236, Note_off_c, 9, 82, 0
11, 243360, Note_on_c, 9, 36, 120
11, 243360, Note_on_c, 9, 53, 90
11, 243360, Note_on_c, 9, 82, 80
11, 243476, Note_off_c, 9, 36, 0
11, 243476, Note_off_c, 9, 53, 0
11, 243476, Note_off_c, 9, 82, 0
11, 243600, Note_on_c, 9, 82, 60
11, 243716, Note_off_c, 9, 82, 0
11, 243840, Note_on_c, 9, 53, 90
11, 243840, Note_on_c, 9, 82, 80
11, 243956, Note_off_c, 9, 53, 0
11, 243956, Note_off_c, 9, 82, 0
11, 244080, Note_on_c, 9, 40, 120
11, 244080, Note_on_c, 9, 82, 60
11, 244196, Note_off_c, 9, 40, 0
11, 244196, Note_off_c, 9, 82, 0
11, 244320, Note_on_c, 9, 53, 90
11, 244320, Note_on_c, 9, 82, 80
11, 244436, Note_off_c, 9, 53, 0
11, 244436, Note_off_c, 9, 82, 0
11, 244560, Note_on_c, 9, 82, 60
11, 244676, Note_off_c, 9, 82, 0
11, 244800, Note_on_c, 9, 36, 120
11, 244800, Note_on_c, 9, 53, 90
11, 244800, Note_on_c, 9, 82, 80
11, 244916, Note_off_c, 9, 36, 0
11, 244916, Note_off_c, 9, 53, 0
11, 244916, Note_off_c, 9, 82, 0
11, 245040, Note_on_c, 9, 82, 60
11, 245156, Note_off_c, 9, 82, 0
11, 245280, Note_on_c, 9, 53, 90
11, 245280, Note_on_c, 9, 82, 80
11, 245396, Note_off_c, 9, 53, 0
11, 245396, Note_off_c, 9, 82, 0
11, 245520, Note_on_c, 9, 40, 120
11, 245520, Note_on_c, 9, 82, 60
11, 245636, Note_off_c, 9, 40, 0
11, 245636, Note_off_c, 9, 82, 0
11, 245760, Note_on_c, 9, 53, 90
11, 245760, Note_on_c, 9, 82, 80
11, 245876, Note_off_c, 9, 53, 0
11, 245876, Note_off_c, 9, 82, 0
11, 246000, Note_on_c, 9, 36, 90
11, 246000, Note_on_c, 9, 40, 80
11, 246000, Note_on_c, 9, 82, 60
11, 246116, Note_off_c, 9, 36, 0
11, 246116, Note_off_c, 9, 40, 0
11, 246116, Note_off_c, 9, 82, 0
11, 246240, Note_on_c, 9, 36, 120
11, 246240, Note_on_c, 9, 53, 90
11, 246240, Note_on_c, 9, 82, 80
11, 246356, Note_off_c, 9, 36, 0
11, 246356, Note_off_c, 9, 53, 0
11, 246356, Note_off_c, 9, 82, 0
11, 246480, Note_on_c, 9, 82, 60
11, 246596, Note_off_c, 9, 82, 0
11, 246720, Note_on_c, 9, 53, 90
11, 246720, Note_on_c, 9, 82, 80
11, 246836, Note_off_c, 9, 53, 0
11, 246836, Note_off_c, 9, 82, 0
11, 246960, Note_on_c, 9, 40, 120
11, 246960, Note_on_c, 9, 82, 60
11, 247076, Note_off_c, 9, 40, 0
11, 247076, Note_off_c, 9, 82, 0
11, 247200, Note_on_c, 9, 53, 90
11, 247200, Note_on_c, 9, 82, 80
11, 247316, Note_off_c, 9, 53, 0
11, 247316, Note_off_c, 9, 82, 0
11, 247440, Note_on_c, 9, 82, 60
11, 247556, Note_off_c, 9, 82, 0
11, 247680, Note_on_c, 9, 36, 120
11, 247680, Note_on_c, 9, 53, 90
11, 247680, Note_on_c, 9, 82, 80
11, 247796, Note_off_c, 9, 36, 0
11, 247796, Note_off_c, 9, 53, 0
11, 247796, Note_off_c, 9, 82, 0
11, 247920, Note_on_c, 9, 82, 60
11, 248036, Note_off_c, 9, 82, 0
11, 248160, Note_on_c, 9, 53, 90
11, 248160, Note_on_c, 9, 82, 80
11, 248276, Note_off_c, 9, 53, 0
11, 248276, Note_off_c, 9, 82, 0
11, 248400, Note_on_c, 9, 40, 120
11, 248400, Note_on_c, 9, 82, 60
11, 248516, Note_off_c, 9, 40, 0
11, 248516, Note_off_c, 9, 82, 0
11, 248640, Note_on_c, 9, 53, 90
11, 248640, Note_on_c, 9, 82, 80
11, 248756, Note_off_c, 9, 53, 0
11, 248756, Note_off_c, 9, 82, 0
11, 248880, Note_on_c, 9, 36, 90
11, 248880, Note_on_c, 9, 82, 60
11, 248996, Note_off_c, 9, 36, 0
11, 248996, Note_off_c, 9, 82, 0
11, 249120, Note_on_c, 9, 36, 120
11, 249120, Note_on_c, 9, 53, 90
11, 249120, Note_on_c, 9, 82, 80
11, 249236, Note_off_c, 9, 36, 0
11, 249236, Note_off_c, 9, 53, 0
11, 249236, Note_off_c, 9, 82, 0
11, 249360, Note_on_c, 9, 82, 60
11, 249476, Note_off_c, 9, 82, 0
11, 249600, Note_on_c, 9, 36, 80
11, 249600, Note_on_c, 9, 53, 90
11, 249600, Note_on_c, 9, 82, 80
11, 249716, Note_off_c, 9, 36, 0
11, 249716, Note_off_c, 9, 53, 0
11, 249716, Note_off_c, 9, 82, 0
11, 249840, Note_on_c, 9, 40, 120
11, 249840, Note_on_c, 9, 82, 60
11, 249956, Note_off_c, 9, 40, 0
11, 249956, Note_off_c, 9, 82, 0
11, 250080, Note_on_c, 9, 36, 100
11, 250080, Note_on_c, 9, 53, 90
11, 250080, Note_on_c, 9, 82, 80
11, 250196, Note_off_c, 9, 36, 0
11, 250196, Note_off_c, 9, 53, 0
11, 250196, Note_off_c, 9, 82, 0
11, 250320, Note_on_c, 9, 82, 60
11, 250436, Note_off_c, 9, 82, 0
11, 250560, Note_on_c, 9, 36, 120
11, 250560, Note_on_c, 9, 53, 90
11, 250560, Note_on_c, 9, 82, 80
11, 250676, Note_off_c, 9, 36, 0
11, 250676, Note_off_c, 9, 53, 0
11, 250676, Note_off_c, 9, 82, 0
11, 250800, Note_on_c, 9, 82, 60
11, 250916, Note_off_c, 9, 82, 0
11, 251040, Note_on_c, 9, 53, 90
11, 251040, Note_on_c, 9, 82, 80
11, 251156, Note_off_c, 9, 53, 0
11, 251156, Note_off_c, 9, 82, 0
11, 251280, Note_on_c, 9, 40, 120
11, 251280, Note_on_c, 9, 82, 60
11, 251396, Note_off_c, 9, 40, 0
11, 251396, Note_off_c, 9, 82, 0
11, 251520, Note_on_c, 9, 53, 90
11, 251520, Note_on_c, 9, 82, 80
11, 251636, Note_off_c, 9, 53, 0
11, 251636, Note_off_c, 9, 82, 0
11, 251760, Note_on_c, 9, 40, 80
11, 251760, Note_on_c, 9, 82, 60
11, 251876, Note_off_c, 9, 40, 0
11, 251876, Note_off_c, 9, 82, 0
11, 252000, Note_on_c, 9, 36, 100
11, 252000, Note_on_c, 9, 53, 90
11, 252000, Note_on_c, 9, 82, 80
11, 252116, Note_off_c, 9, 36, 0
11, 252116, Note_off_c, 9, 53, 0
11, 252116, Note_off_c, 9, 82, 0
11, 252240, Note_on_c, 9, 82, 60
11, 252356, Note_off_c, 9, 82, 0
11, 252480, Note_on_c, 9, 36, 100
11, 252480, Note_on_c, 9, 53, 90
11, 252480, Note_on_c, 9, 82, 80
11, 252596, Note_off_c, 9, 36, 0
11, 252596, Note_off_c, 9, 53, 0
11, 252596, Note_off_c, 9, 82, 0
11, 252720, Note_on_c, 9, 40, 120
11, 252720, Note_on_c, 9, 82, 60
11, 252836, Note_off_c, 9, 40, 0
11, 252836, Note_off_c, 9, 82, 0
11, 252960, Note_on_c, 9, 36, 100
11, 252960, Note_on_c, 9, 53, 90
11, 252960, Note_on_c, 9, 82, 80
11, 253076, Note_off_c, 9, 36, 0
11, 253076, Note_off_c, 9, 53, 0
11, 253076, Note_off_c, 9, 82, 0
11, 253200, Note_on_c, 9, 82, 60
11, 253316, Note_off_c, 9, 82, 0
11, 253440, Note_on_c, 9, 36, 120
11, 253440, Note_on_c, 9, 53, 90
11, 253440, Note_on_c, 9, 82, 80
11, 253556, Note_off_c, 9, 36, 0
11, 253556, Note_off_c, 9, 53, 0
11, 253556, Note_off_c, 9, 82, 0
11, 253680, Note_on_c, 9, 82, 60
11, 253796, Note_off_c, 9, 82, 0
11, 253920, Note_on_c, 9, 53, 90
11, 253920, Note_on_c, 9, 82, 80
11, 254036, Note_off_c, 9, 53, 0
11, 254036, Note_off_c, 9, 82, 0
11, 254160, Note_on_c, 9, 40, 120
11, 254160, Note_on_c, 9, 82, 60
11, 254276, Note_off_c, 9, 40, 0
11, 254276, Note_off_c, 9, 82, 0
11, 254400, Note_on_c, 9, 53, 90
11, 254400, Note_on_c, 9, 82, 80
11, 254516, Note_off_c, 9, 53, 0
11, 254516, Note_off_c, 9, 82, 0
11, 254640, Note_on_c, 9, 36, 90
11, 254640, Note_on_c, 9, 82, 60
11, 254756, Note_off_c, 9, 36, 0
11, 254756, Note_off_c, 9, 82, 0
11, 254880, Note_on_c, 9, 36, 120
11, 254880, Note_on_c, 9, 53, 90
11, 254880, Note_on_c, 9, 82, 80
11, 254996, Note_off_c, 9, 36, 0
11, 254996, Note_off_c, 9, 53, 0
11, 254996, Note_off_c, 9, 82, 0
11, 255120, Note_on_c, 9, 82, 60
11, 255236, Note_off_c, 9, 82, 0
11, 255360, Note_on_c, 9, 53, 90
11, 255360, Note_on_c, 9, 82, 80
11, 255476, Note_off_c, 9, 53, 0
11, 255476, Note_off_c, 9, 82, 0
11, 255600, Note_on_c, 9, 40, 120
11, 255600, Note_on_c, 9, 82, 60
11, 255716, Note_off_c, 9, 40, 0
11, 255716, Note_off_c, 9, 82, 0
11, 255840, Note_on_c, 9, 53, 90
11, 255840, Note_on_c, 9, 82, 80
11, 255956, Note_off_c, 9, 53, 0
11, 255956, Note_off_c, 9, 82, 0
11, 256080, Note_on_c, 9, 82, 60
11, 256196, Note_off_c, 9, 82, 0
11, 256320, Note_on_c, 9, 36, 120
11, 256320, Note_on_c, 9, 53, 90
11, 256320, Note_on_c, 9, 82, 80
11, 256436, Note_off_c, 9, 36, 0
11, 256436, Note_off_c, 9, 53, 0
11, 256436, Note_off_c, 9, 82, 0
11, 256560, Note_on_c, 9, 82, 60
11, 256676, Note_off_c, 9, 82, 0
11, 256800, Note_on_c, 9, 53, 90
11, 256800, Note_on_c, 9, 82, 80
11, 256916, Note_off_c, 9, 53, 0
11, 256916, Note_off_c, 9, 82, 0
11, 257040, Note_on_c, 9, 40, 120
11, 257040, Note_on_c, 9, 82, 60
11, 257156, Note_off_c, 9, 40, 0
11, 257156, Note_off_c, 9, 82, 0
11, 257280, Note_on_c, 9, 53, 90
11, 257280, Note_on_c, 9, 82, 80
11, 257396, Note_off_c, 9, 53, 0
11, 257396, Note_off_c, 9, 82, 0
11, 257520, Note_on_c, 9, 36, 90
11, 257520, Note_on_c, 9, 40, 80
11, 257520, Note_on_c, 9, 82, 60
11, 257636, Note_off_c, 9, 36, 0
11, 257636, Note_off_c, 9, 40, 0
11, 257636, Note_off_c, 9, 82, 0
11, 257760, Note_on_c, 9, 36, 120
11, 257760, Note_on_c, 9, 53, 90
11, 257760, Note_on_c, 9, 82, 80
11, 257876, Note_off_c, 9, 36, 0
11, 257876, Note_off_c, 9, 53, 0
11, 257876, Note_off_c, 9, 82, 0
11, 258000, Note_on_c, 9, 82, 60
11, 258116, Note_off_c, 9, 82, 0
11, 258240, Note_on_c, 9, 53, 90
11, 258240, Note_on_c, 9, 82, 80
11, 258356, Note_off_c, 9, 53, 0
11, 258356, Note_off_c, 9, 82, 0
11, 258480, Note_on_c, 9, 40, 120
11, 258480, Note_on_c, 9, 82, 60
11, 258596, Note_off_c, 9, 40, 0
11, 258596, Note_off_c, 9, 82, 0
11, 258720, Note_on_c, 9, 53, 90
11, 258720, Note_on_c, 9, 82, 80
11, 258836, Note_off_c, 9, 53, 0
11, 258836, Note_off_c, 9, 82, 0
11, 258960, Note_on_c, 9, 82, 60
11, 259076, Note_off_c, 9, 82, 0
11, 259200, Note_on_c, 9, 36, 120
11, 259200, Note_on_c, 9, 53, 90
11, 259200, Note_on_c, 9, 82, 80
11, 259316, Note_off_c, 9, 36, 0
11, 259316, Note_off_c, 9, 53, 0
11, 259316, Note_off_c, 9, 82, 0
11, 259440, Note_on_c, 9, 82, 60
11, 259556, Note_off_c, 9, 82, 0
11, 259680, Note_on_c, 9, 53, 90
11, 259680, Note_on_c, 9, 82, 80
11, 259796, Note_off_c, 9, 53, 0
11, 259796, Note_off_c, 9, 82, 0
11, 259920, Note_on_c, 9, 40, 120
11, 259920, Note_on_c, 9, 82, 60
11, 260036, Note_off_c, 9, 40, 0
11, 260036, Note_off_c, 9, 82, 0
11, 260160, Note_on_c, 9, 53, 90
11, 260160, Note_on_c, 9, 82, 80
11, 260276, Note_off_c, 9, 53, 0
11, 260276, Note_off_c, 9, 82, 0
11, 260400, Note_on_c, 9, 36, 90
11, 260400, Note_on_c, 9, 82, 60
11, 260516, Note_off_c, 9, 36, 0
11, 260516, Note_off_c, 9, 82, 0
11, 260640, Note_on_c, 9, 36, 120
11, 260640, Note_on_c, 9, 53, 90
11, 260640, Note_on_c, 9, 82, 80
11, 260756, Note_off_c, 9, 36, 0
11, 260756, Note_off_c, 9, 53, 0
11, 260756, Note_off_c, 9, 82, 0
11, 260880, Note_on_c, 9, 82, 60
11, 260996, Note_off_c, 9, 82, 0
11, 261120, Note_on_c, 9, 36, 80
11, 261120, Note_on_c, 9, 53, 90
11, 261120, Note_on_c, 9, 82, 80
11, 261236, Note_off_c, 9, 36, 0
11, 261236, Note_off_c, 9, 53, 0
11, 261236, Note_off_c, 9, 82, 0
11, 261360, Note_on_c, 9, 36, 100
11, 261360, Note_on_c, 9, 40, 120
11, 261360, Note_on_c, 9, 82, 60
11, 261476, Note_off_c, 9, 36, 0
11, 261476, Note_off_c, 9, 40, 0
11, 261476, Note_off_c, 9, 82, 0
11, 261600, Note_on_c, 9, 53, 90
11, 261600, Note_on_c, 9, 82, 80
11, 261716, Note_off_c, 9, 53, 0
11, 261716, Note_off_c, 9, 82, 0
11, 261840, Note_on_c, 9, 36, 90
11, 261840, Note_on_c, 9, 82, 60
11, 261956, Note_off_c, 9, 36, 0
11, 261956, Note_off_c, 9, 82, 0
11, 262080, Note_on_c, 9, 36, 120
11, 262080, Note_on_c, 9, 53, 90
11, 262080, Note_on_c, 9, 82, 80
11, 262196, Note_off_c, 9, 36, 0
11, 262196, Note_off_c, 9, 53, 0
11, 262196, Note_off_c, 9, 82, 0
11, 262320, Note_on_c, 9, 82, 60
11, 262436, Note_off_c, 9, 82, 0
11, 262560, Note_on_c, 9, 53, 90
11, 262560, Note_on_c, 9, 82, 80
11, 262676, Note_off_c, 9, 53, 0
11, 262676, Note_off_c, 9, 82, 0
11, 262800, Note_on_c, 9, 40, 120
11, 262800, Note_on_c, 9, 82, 60
11, 262916, Note_off_c, 9, 40, 0
11, 262916, Note_off_c, 9, 82, 0
11, 263040, Note_on_c, 9, 53, 90
11, 263040, Note_on_c, 9, 82, 80
11, 263156, Note_off_c, 9, 53, 0
11, 263156, Note_off_c, 9, 82, 0
11, 263280, Note_on_c, 9, 40, 80
11, 263280, Note_on_c, 9, 82, 60
11, 263396, Note_off_c, 9, 40, 0
11, 263396, Note_off_c, 9, 82, 0
11, 263520, Note_on_c, 9, 36, 100
11, 263520, Note_on_c, 9, 53, 90
11, 263520, Note_on_c, 9, 82, 80
11, 263636, Note_off_c, 9, 36, 0
11, 263636, Note_off_c, 9, 53, 0
11, 263636, Note_off_c, 9, 82, 0
11, 263760, Note_on_c, 9, 40, 120
11, 263760, Note_on_c, 9, 82, 60
11, 263876, Note_off_c, 9, 40, 0
11, 263876, Note_off_c, 9, 82, 0
11, 264000, Note_on_c, 9, 36, 100
11, 264000, Note_on_c, 9, 53, 90
11, 264000, Note_on_c, 9, 82, 80
11, 264116, Note_off_c, 9, 36, 0
11, 264116, Note_off_c, 9, 53, 0
11, 264116, Note_off_c, 9, 82, 0
11, 264240, Note_on_c, 9, 40, 120
11, 264240, Note_on_c, 9, 82, 60
11, 264356, Note_off_c, 9, 40, 0
11, 264356, Note_off_c, 9, 82, 0
11, 264480, Note_on_c, 9, 36, 100
11, 264480, Note_on_c, 9, 53, 90
11, 264480, Note_on_c, 9, 82, 80
11, 264596, Note_off_c, 9, 36, 0
11, 264596, Note_off_c, 9, 53, 0
11, 264596, Note_off_c, 9, 82, 0
11, 264720, Note_on_c, 9, 40, 120
11, 264720, Note_on_c, 9, 82, 60
11, 264836, Note_off_c, 9, 40, 0
11, 264836, Note_off_c, 9, 82, 0
11, 264960, Note_on_c, 9, 36, 120
11, 264960, Note_on_c, 9, 52, 90
11, 264960, Note_on_c, 9, 82, 80
11, 265076, Note_off_c, 9, 36, 0
11, 265076, Note_off_c, 9, 52, 0
11, 265076, Note_off_c, 9, 82, 0
11, 265200, Note_on_c, 9, 82, 60
11, 265316, Note_off_c, 9, 82, 0
11, 265440, Note_on_c, 9, 53, 90
11, 265440, Note_on_c, 9, 82, 80
11, 265556, Note_off_c, 9, 53, 0
11, 265556, Note_off_c, 9, 82, 0
11, 265680, Note_on_c, 9, 40, 120
11, 265680, Note_on_c, 9, 82, 60
11, 265796, Note_off_c, 9, 40, 0
11, 265796, Note_off_c, 9, 82, 0
11, 265920, Note_on_c, 9, 53, 90
11, 265920, Note_on_c, 9, 82, 80
11, 266036, Note_off_c, 9, 53, 0
11, 266036, Note_off_c, 9, 82, 0
11, 266160, Note_on_c, 9, 36, 90
11, 266160, Note_on_c, 9, 82, 60
11, 266276, Note_off_c, 9, 36, 0
11, 266276, Note_off_c, 9, 82, 0
11, 266400, Note_on_c, 9, 36, 120
11, 266400, Note_on_c, 9, 53, 90
11, 266400, Note_on_c, 9, 82, 80
11, 266516, Note_off_c, 9, 36, 0
11, 266516, Note_off_c, 9, 53, 0
11, 266516, Note_off_c, 9, 82, 0
11, 266640, Note_on_c, 9, 82, 60
11, 266756, Note_off_c, 9, 82, 0
11, 266880, Note_on_c, 9, 53, 90
11, 266880, Note_on_c, 9, 82, 80
11, 266996, Note_off_c, 9, 53, 0
11, 266996, Note_off_c, 9, 82, 0
11, 267120, Note_on_c, 9, 40, 120
11, 267120, Note_on_c, 9, 82, 60
11, 267236, Note_off_c, 9, 40, 0
11, 267236, Note_off_c, 9, 82, 0
11, 267360, Note_on_c, 9, 53, 90
11, 267360, Note_on_c, 9, 82, 80
11, 267476, Note_off_c, 9, 53, 0
11, 267476, Note_off_c, 9, 82, 0
11, 267600, Note_on_c, 9, 82, 60
11, 267716, Note_off_c, 9, 82, 0
11, 267840, Note_on_c, 9, 36, 120
11, 267840, Note_on_c, 9, 53, 90
11, 267840, Note_on_c, 9, 82, 80
11, 267956, Note_off_c, 9, 36, 0
11, 267956, Note_off_c, 9, 53, 0
11, 267956, Note_off_c, 9, 82, 0
11, 268080, Note_on_c, 9, 82, 60
11, 268196, Note_off_c, 9, 82, 0
11, 268320, Note_on_c, 9, 53, 90
11, 268320, Note_on_c, 9, 82, 80
11, 268436, Note_off_c, 9, 53, 0
11, 268436, Note_off_c, 9, 82, 0
11, 268560, Note_on_c, 9, 40, 120
11, 268560, Note_on_c, 9, 82, 60
11, 268676, Note_off_c, 9, 40, 0
11, 268676, Note_off_c, 9, 82, 0
11, 268800, Note_on_c, 9, 53, 90
11, 268800, Note_on_c, 9, 82, 80
11, 268916, Note_off_c, 9, 53, 0
11, 268916, Note_off_c, 9, 82, 0
11, 269040, Note_on_c, 9, 36, 90
11, 269040, Note_on_c, 9, 40, 80
11, 269040, Note_on_c, 9, 82, 60
11, 269156, Note_off_c, 9, 36, 0
11, 269156, Note_off_c, 9, 40, 0
11, 269156, Note_off_c, 9, 82, 0
11, 269280, Note_on_c, 9, 36, 120
11, 269280, Note_on_c, 9, 53, 90
11, 269280, Note_on_c, 9, 82, 80
11, 269396, Note_off_c, 9, 36, 0
11, 269396, Note_off_c, 9, 53, 0
11, 269396, Note_off_c, 9, 82, 0
11, 269520, Note_on_c, 9, 82, 60
11, 269636, Note_off_c, 9, 82, 0
11, 269760, Note_on_c, 9, 53, 90
11, 269760, Note_on_c, 9, 82, 80
11, 269876, Note_off_c, 9, 53, 0
11, 269876, Note_off_c, 9, 82, 0
11, 270000, Note_on_c, 9, 40, 120
11, 270000, Note_on_c, 9, 82, 60
11, 270116, Note_off_c, 9, 40, 0
11, 270116, Note_off_c, 9, 82, 0
11, 270240, Note_on_c, 9, 53, 90
11, 270240, Note_on_c, 9, 82, 80
11, 270356, Note_off_c, 9, 53, 0
11, 270356, Note_off_c, 9, 82, 0
11, 270480, Note_on_c, 9, 82, 60
11, 270596, Note_off_c, 9, 82, 0
11, 270720, Note_on_c, 9, 36, 120
11, 270720, Note_on_c, 9, 53, 90
11, 270720, Note_on_c, 9, 82, 80
11, 270836, Note_off_c, 9, 36, 0
11, 270836, Note_off_c, 9, 53, 0
11, 270836, Note_off_c, 9, 82, 0
11, 270960, Note_on_c, 9, 82, 60
11, 271076, Note_off_c, 9, 82, 0
11, 271200, Note_on_c, 9, 53, 90
11, 271200, Note_on_c, 9, 82, 80
11, 271316, Note_off_c, 9, 53, 0
11, 271316, Note_off_c, 9, 82, 0
11, 271440, Note_on_c, 9, 40, 120
11, 271440, Note_on_c, 9, 82, 60
11, 271556, Note_off_c, 9, 40, 0
11, 271556, Note_off_c, 9, 82, 0
11, 271680, Note_on_c, 9, 53, 90
11, 271680, Note_on_c, 9, 82, 80
11, 271796, Note_off_c, 9, 53, 0
11, 271796, Note_off_c, 9, 82, 0
11, 271920, Note_on_c, 9, 36, 90
11, 271920, Note_on_c, 9, 82, 60
11, 272036, Note_off_c, 9, 36, 0
11, 272036, Note_off_c, 9, 82, 0
11, 272160, Note_on_c, 9, 36, 120
11, 272160, Note_on_c, 9, 53, 90
11, 272160, Note_on_c, 9, 82, 80
11, 272276, Note_off_c, 9, 36, 0
11, 272276, Note_off_c, 9, 53, 0
11, 272276, Note_off_c, 9, 82, 0
11, 272400, Note_on_c, 9, 82, 60
11, 272516, Note_off_c, 9, 82, 0
11, 272640, Note_on_c, 9, 36, 80
11, 272640, Note_on_c, 9, 53, 90
11, 272640, Note_on_c, 9, 82, 80
11, 272756, Note_off_c, 9, 36, 0
11, 272756, Note_off_c, 9, 53, 0
11, 272756, Note_off_c, 9, 82, 0
11, 272880, Note_on_c, 9, 40, 120
11, 272880, Note_on_c, 9, 82, 60
11, 272996, Note_off_c, 9, 40, 0
11, 272996, Note_off_c, 9, 82, 0
11, 273120, Note_on_c, 9, 36, 100
11, 273120, Note_on_c, 9, 53, 90
11, 273120, Note_on_c, 9, 82, 80
11, 273236, Note_off_c, 9, 36, 0
11, 273236, Note_off_c, 9, 53, 0
11, 273236, Note_off_c, 9, 82, 0
11, 273360, Note_on_c, 9, 82, 60
11, 273476, Note_off_c, 9, 82, 0
11, 273600, Note_on_c, 9, 36, 120
11, 273600, Note_on_c, 9, 53, 90
11, 273600, Note_on_c, 9, 82, 80
11, 273716, Note_off_c, 9, 36, 0
11, 273716, Note_off_c, 9, 53, 0
11, 273716, Note_off_c, 9, 82, 0
11, 273840, Note_on_c, 9, 82, 60
11, 273956, Note_off_c, 9, 82, 0
11, 274080, Note_on_c, 9, 53, 90
11, 274080, Note_on_c, 9, 82, 80
11, 274196, Note_off_c, 9, 53, 0
11, 274196, Note_off_c, 9, 82, 0
11, 274320, Note_on_c, 9, 40, 120
11, 274320, Note_on_c, 9, 82, 60
11, 274436, Note_off_c, 9, 40, 0
11, 274436, Note_off_c, 9, 82, 0
11, 274560, Note_on_c, 9, 53, 90
11, 274560, Note_on_c, 9, 82, 80
11, 274676, Note_off_c, 9, 53, 0
11, 274676, Note_off_c, 9, 82, 0
11, 274800, Note_on_c, 9, 40, 80
11, 274800, Note_on_c, 9, 82, 60
11, 274916, Note_off_c, 9, 40, 0
11, 274916, Note_off_c, 9, 82, 0
11, 275040, Note_on_c, 9, 36, 100
11, 275040, Note_on_c, 9, 53, 90
11, 275040, Note_on_c, 9, 82, 80
11, 275156, Note_off_c, 9, 36, 0
11, 275156, Note_off_c, 9, 53, 0
11, 275156, Note_off_c, 9, 82, 0
11, 275280, Note_on_c, 9, 82, 60
11, 275396, Note_off_c, 9, 82, 0
11, 275520, Note_on_c, 9, 36, 100
11, 275520, Note_on_c, 9, 53, 90
11, 275520, Note_on_c, 9, 82, 80
11, 275636, Note_off_c, 9, 36, 0
11, 275636, Note_off_c, 9, 53, 0
11, 275636, Note_off_c, 9, 82, 0
11, 275760, Note_on_c, 9, 40, 120
11, 275760, Note_on_c, 9, 82, 60
11, 275876, Note_off_c, 9, 40, 0
11, 275876, Note_off_c, 9, 82, 0
11, 276000, Note_on_c, 9, 36, 100
11, 276000, Note_on_c, 9, 53, 90
11, 276000, Note_on_c, 9, 82, 80
11, 276116, Note_off_c, 9, 36, 0
11, 276116, Note_off_c, 9, 53, 0
11, 276116, Note_off_c, 9, 82, 0
11, 276240, Note_on_c, 9, 82, 60
11, 276356, Note_off_c, 9, 82, 0
11, 276480, Note_on_c, 9, 36, 120
11, 276480, Note_on_c, 9, 53, 90
11, 276480, Note_on_c, 9, 82, 80
11, 276596, Note_off_c, 9, 36, 0
11, 276596, Note_off_c, 9, 53, 0
11, 276596, Note_off_c, 9, 82, 0
11, 276720, Note_on_c, 9, 82, 60
11, 276836, Note_off_c, 9, 82, 0
11, 276960, Note_on_c, 9, 53, 90
11, 276960, Note_on_c, 9, 82, 80
11, 277076, Note_off_c, 9, 53, 0
11, 277076, Note_off_c, 9, 82, 0
11, 277200, Note_on_c, 9, 40, 120
11, 277200, Note_on_c, 9, 82, 60
11, 277316, Note_off_c, 9, 40, 0
11, 277316, Note_off_c, 9, 82, 0
11, 277440, Note_on_c, 9, 53, 90
11, 277440, Note_on_c, 9, 82, 80
11, 277556, Note_off_c, 9, 53, 0
11, 277556, Note_off_c, 9, 82, 0
11, 277680, Note_on_c, 9, 36, 90
11, 277680, Note_on_c, 9, 82, 60
11, 277796, Note_off_c, 9, 36, 0
11, 277796, Note_off_c, 9, 82, 0
11, 277920, Note_on_c, 9, 36, 120
11, 277920, Note_on_c, 9, 53, 90
11, 277920, Note_on_c, 9, 82, 80
11, 278036, Note_off_c, 9, 36, 0
11, 278036, Note_off_c, 9, 53, 0
11, 278036, Note_off_c, 9, 82, 0
11, 278160, Note_on_c, 9, 82, 60
11, 278276, Note_off_c, 9, 82, 0
11, 278400, Note_on_c, 9, 53, 90
11, 278400, Note_on_c, 9, 82, 80
11, 278516, Note_off_c, 9, 53, 0
11, 278516, Note_off_c, 9, 82, 0
11, 278640, Note_on_c, 9, 40, 120
11, 278640, Note_on_c, 9, 82, 60
11, 278756, Note_off_c, 9, 40, 0
11, 278756, Note_off_c, 9, 82, 0
11, 278880, Note_on_c, 9, 53, 90
11, 278880, Note_on_c, 9, 82, 80
11, 278996, Note_off_c, 9, 53, 0
11, 278996, Note_off_c, 9, 82, 0
11, 279120, Note_on_c, 9, 82, 60
11, 279236, Note_off_c, 9, 82, 0
11, 279360, Note_on_c, 9, 36, 120
11, 279360, Note_on_c, 9, 53, 90
11, 279360, Note_on_c, 9, 82, 80
11, 279476, Note_off_c, 9, 36, 0
11, 279476, Note_off_c, 9, 53, 0
11, 279476, Note_off_c, 9, 82, 0
11, 279600, Note_on_c, 9, 82, 60
11, 279716, Note_off_c, 9, 82, 0
11, 279840, Note_on_c, 9, 53, 90
11, 279840, Note_on_c, 9, 82, 80
11, 279956, Note_off_c, 9, 53, 0
11, 279956, Note_off_c, 9, 82, 0
11, 280080, Note_on_c, 9, 40, 120
11, 280080, Note_on_c, 9, 82, 60
11, 280196, Note_off_c, 9, 40, 0
11, 280196, Note_off_c, 9, 82, 0
11, 280320, Note_on_c, 9, 53, 90
11, 280320, Note_on_c, 9, 82, 80
11, 280436, Note_off_c, 9, 53, 0
11, 280436, Note_off_c, 9, 82, 0
11, 280560, Note_on_c, 9, 36, 90
11, 280560, Note_on_c, 9, 40, 80
11, 280560, Note_on_c, 9, 82, 60
11, 280676, Note_off_c, 9, 36, 0
11, 280676, Note_off_c, 9, 40, 0
11, 280676, Note_off_c, 9, 82, 0
11, 280800, Note_on_c, 9, 36, 120
11, 280800, Note_on_c, 9, 53, 90
11, 280800, Note_on_c, 9, 82, 80
11, 280916, Note_off_c, 9, 36, 0
11, 280916, Note_off_c, 9, 53, 0
11, 280916, Note_off_c, 9, 82, 0
11, 281040, Note_on_c, 9, 82, 60
11, 281156, Note_off_c, 9, 82, 0
11, 281280, Note_on_c, 9, 53, 90
11, 281280, Note_on_c, 9, 82, 80
11, 281396, Note_off_c, 9, 53, 0
11, 281396, Note_off_c, 9, 82, 0
11, 281520, Note_on_c, 9, 40, 120
11, 281520, Note_on_c, 9, 82, 60
11, 281636, Note_off_c, 9, 40, 0
11, 281636, Note_off_c, 9, 82, 0
11, 281760, Note_on_c, 9, 53, 90
11, 281760, Note_on_c, 9, 82, 80
11, 281876, Note_off_c, 9, 53, 0
11, 281876, Note_off_c, 9, 82, 0
11, 282000, Note_on_c, 9, 82, 60
11, 282116, Note_off_c, 9, 82, 0
11, 282240, Note_on_c, 9, 36, 120
11, 282240, Note_on_c, 9, 53, 90
11, 282240, Note_on_c, 9, 82, 80
11, 282356, Note_off_c, 9, 36, 0
11, 282356, Note_off_c, 9, 53, 0
11, 282356, Note_off_c, 9, 82, 0
11, 282480, Note_on_c, 9, 82, 60
11, 282596, Note_off_c, 9, 82, 0
11, 282720, Note_on_c, 9, 53, 90
11, 282720, Note_on_c, 9, 82, 80
11, 282836, Note_off_c, 9, 53, 0
11, 282836, Note_off_c, 9, 82, 0
11, 282960, Note_on_c, 9, 40, 120
11, 282960, Note_on_c, 9, 82, 60
11, 283076, Note_off_c, 9, 40, 0
11, 283076, Note_off_c, 9, 82, 0
11, 283200, Note_on_c, 9, 53, 90
11, 283200, Note_on_c, 9, 82, 80
11, 283316, Note_off_c, 9, 53, 0
11, 283316, Note_off_c, 9, 82, 0
11, 283440, Note_on_c, 9, 36, 90
11, 283440, Note_on_c, 9, 82, 60
11, 283556, Note_off_c, 9, 36, 0
11, 283556, Note_off_c, 9, 82, 0
11, 283680, Note_on_c, 9, 36, 120
11, 283680, Note_on_c, 9, 53, 90
11, 283680, Note_on_c, 9, 82, 80
11, 283796, Note_off_c, 9, 36, 0
11, 283796, Note_off_c, 9, 53, 0
11, 283796, Note_off_c, 9, 82, 0
11, 283920, Note_on_c, 9, 82, 60
11, 284036, Note_off_c, 9, 82, 0
11, 284160, Note_on_c, 9, 36, 80
11, 284160, Note_on_c, 9, 53, 90
11, 284160, Note_on_c, 9, 82, 80
11, 284276, Note_off_c, 9, 36, 0
11, 284276, Note_off_c, 9, 53, 0
11, 284276, Note_off_c, 9, 82, 0
11, 284400, Note_on_c, 9, 36, 100
11, 284400, Note_on_c, 9, 40, 120
11, 284400, Note_on_c, 9, 82, 60
11, 284516, Note_off_c, 9, 36, 0
11, 284516, Note_off_c, 9, 40, 0
11, 284516, Note_off_c, 9, 82, 0
11, 284640, Note_on_c, 9, 53, 90
11, 284640, Note_on_c, 9, 82, 80
11, 284756, Note_off_c, 9, 53, 0
11, 284756, Note_off_c, 9, 82, 0
11, 284880, Note_on_c, 9, 36, 90
11, 284880, Note_on_c, 9, 82, 60
11, 284996, Note_off_c, 9, 36, 0
11, 284996, Note_off_c, 9, 82, 0
11, 285120, Note_on_c, 9, 36, 120
11, 285120, Note_on_c, 9, 53, 90
11, 285120, Note_on_c, 9, 82, 80
11, 285236, Note_off_c, 9, 36, 0
11, 285236, Note_off_c, 9, 53, 0
11, 285236, Note_off_c, 9, 82, 0
11, 285360, Note_on_c, 9, 82, 60
11, 285476, Note_off_c, 9, 82, 0
11, 285600, Note_on_c, 9, 53, 90
11, 285600, Note_on_c, 9, 82, 80
11, 285716, Note_off_c, 9, 53, 0
11, 285716, Note_off_c, 9, 82, 0
11, 285840, Note_on_c, 9, 40, 120
11, 285840, Note_on_c, 9, 82, 60
11, 285956, Note_off_c, 9, 40, 0
11, 285956, Note_off_c, 9, 82, 0
11, 286080, Note_on_c, 9, 53, 90
11, 286080, Note_on_c, 9, 82, 80
11, 286196, Note_off_c, 9, 53, 0
11, 286196, Note_off_c, 9, 82, 0
11, 286320, Note_on_c, 9, 40, 80
11, 286320, Note_on_c, 9, 82, 60
11, 286436, Note_off_c, 9, 40, 0
11, 286436, Note_off_c, 9, 82, 0
11, 286560, Note_on_c, 9, 36, 100
11, 286560, Note_on_c, 9, 53, 90
11, 286560, Note_on_c, 9, 82, 80
11, 286676, Note_off_c, 9, 36, 0
11, 286676, Note_off_c, 9, 53, 0
11, 286676, Note_off_c, 9, 82, 0
11, 286800, Note_on_c, 9, 40, 120
11, 286800, Note_on_c, 9, 82, 60
11, 286916, Note_off_c, 9, 40, 0
11, 286916, Note_off_c, 9, 82, 0
11, 287040, Note_on_c, 9, 36, 100
11, 287040, Note_on_c, 9, 53, 90
11, 287040, Note_on_c, 9, 82, 80
11, 287156, Note_off_c, 9, 36, 0
11, 287156, Note_off_c, 9, 53, 0
11, 287156, Note_off_c, 9, 82, 0
11, 287280, Note_on_c, 9, 40, 120
11, 287280, Note_on_c, 9, 82, 60
11, 287396, Note_off_c, 9, 40, 0
11, 287396, Note_off_c, 9, 82, 0
11, 287520, Note_on_c, 9, 36, 100
11, 287520, Note_on_c, 9, 53, 90
11, 287520, Note_on_c, 9, 82, 80
11, 287636, Note_off_c, 9, 36, 0
11, 287636, Note_off_c, 9, 53, 0
11, 287636, Note_off_c, 9, 82, 0
11, 287760, Note_on_c, 9, 40, 120
11, 287760, Note_on_c, 9, 82, 60
11, 287876, Note_off_c, 9, 40, 0
11, 287876, Note_off_c, 9, 82, 0
11, 287880, Control_c, 9, 11, 127
11, 288000, Control_c, 9, 11, 126
11, 288000, Note_on_c, 9, 36, 120
11, 288000, Note_on_c, 9, 52, 90
11, 288000, Note_on_c, 9, 82, 80
11, 288116, Note_off_c, 9, 36, 0
11, 288116, Note_off_c, 9, 52, 0
11, 288116, Note_off_c, 9, 82, 0
11, 288240, Control_c, 9, 11, 125
11, 288240, Note_on_c, 9, 82, 60
11, 288356, Note_off_c, 9, 82, 0
11, 288360, Control_c, 9, 11, 124
11, 288480, Note_on_c, 9, 53, 90
11, 288480, Note_on_c, 9, 82, 80
11, 288596, Note_off_c, 9, 53, 0
11, 288596, Note_off_c, 9, 82, 0
11, 288600, Control_c, 9, 11, 123
11, 288720, Control_c, 9, 11, 122
11, 288720, Note_on_c, 9, 40, 120
11, 288720, Note_on_c, 9, 82, 60
11, 288836, Note_off_c, 9, 40, 0
11, 288836, Note_off_c, 9, 82, 0
11, 288960, Control_c, 9, 11, 121
11, 288960, Note_on_c, 9, 53, 90
11, 288960, Note_on_c, 9, 82, 80
11, 289076, Note_off_c, 9, 53, 0
11, 289076, Note_off_c, 9, 82, 0
11, 289080, Control_c, 9, 11, 120
11, 289200, Note_on_c, 9, 36, 90
11, 289200, Note_on_c, 9, 82, 60
11, 289316, Note_off_c, 9, 36, 0
11, 289316, Note_off_c, 9, 82, 0
11, 289320, Control_c, 9, 11, 119
11, 289440, Control_c, 9, 11, 118
11, 289440, Note_on_c, 9, 36, 120
11, 289440, Note_on_c, 9, 53, 90
11, 289440, Note_on_c, 9, 82, 80
11, 289556, Note_off_c, 9, 36, 0
11, 289556, Note_off_c, 9, 53, 0
11, 289556, Note_off_c, 9, 82, 0
11, 289680, Control_c, 9, 11, 117
11, 289680, Note_on_c, 9, 82, 60
11, 289796, Note_off_c, 9, 82, 0
11, 289800, Control_c, 9, 11, 116
11, 289920, Note_on_c, 9, 53, 90
11, 289920, Note_on_c, 9, 82, 80
11, 290036, Note_off_c, 9, 53, 0
11, 290036, Note_off_c, 9, 82, 0
11, 290040, Control_c, 9, 11, 115
11, 290160, Control_c, 9, 11, 114
11, 290160, Note_on_c, 9, 40, 120
11, 290160, Note_on_c, 9, 82, 60
11, 290276, Note_off_c, 9, 40, 0
11, 290276, Note_off_c, 9, 82, 0
11, 290400, Control_c, 9, 11, 113
11, 290400, Note_on_c, 9, 53, 90
11, 290400, Note_on_c, 9, 82, 80
11, 290516, Note_off_c, 9, 53, 0
11, 290516, Note_off_c, 9, 82, 0
11, 290640, Control_c, 9, 11, 112
11, 290640, Note_on_c, 9, 82, 60
11, 290756, Note_off_c, 9, 82, 0
11, 290760, Control_c, 9, 11, 111
11, 290880, Note_on_c, 9, 36, 120
11, 290880, Note_on_c, 9, 53, 90
11, 290880, Note_on_c, 9, 82, 80
11, 290996, Note_off_c, 9, 36, 0
11, 290996, Note_off_c, 9, 53, 0
11, 290996, Note_off_c, 9, 82, 0
11, 291000, Control_c, 9, 11, 110
11, 291120, Control_c, 9, 11, 109
11, 291120, Note_on_c, 9, 82, 60
11, 291236, Note_off_c, 9, 82, 0
11, 291360, Control_c, 9, 11, 108
11, 291360, Note_on_c, 9, 53, 90
11, 291360, Note_on_c, 9, 82, 80
11, 291476, Note_off_c, 9, 53, 0
11, 291476, Note_off_c, 9, 82, 0
11, 291480, Control_c, 9, 11, 107
11, 291600, Note_on_c, 9, 40, 120
11, 291600, Note_on_c, 9, 82, 60
11, 291716, Note_off_c, 9, 40, 0
11, 291716, Note_off_c, 9, 82, 0
11, 291720, Control_c, 9, 11, 106
11, 291840, Control_c, 9, 11, 105
11, 291840, Note_on_c, 9, 53, 90
11, 291840, Note_on_c, 9, 82, 80
11, 291956, Note_off_c, 9, 53, 0
11, 291956, Note_off_c, 9, 82, 0
11, 292080, Control_c, 9, 11, 104
11, 292080, Note_on_c, 9, 36, 90
11, 292080, Note_on_c, 9, 40, 80
11, 292080, Note_on_c, 9, 82, 60
11, 292196, Note_off_c, 9, 36, 0
11, 292196, Note_off_c, 9, 40, 0
11, 292196, Note_off_c, 9, 82, 0
11, 292200, Control_c, 9, 11, 103
11, 292320, Note_on_c, 9, 36, 120
11, 292320, Note_on_c, 9, 53, 90
11, 292320, Note_on_c, 9, 82, 80
11, 292436, Note_off_c, 9, 36, 0
11, 292436, Note_off_c, 9, 53, 0
11, 292436, Note_off_c, 9, 82, 0
11, 292440, Control_c, 9, 11, 102
11, 292560, Control_c, 9, 11, 101
11, 292560, Note_on_c, 9, 82, 60
11, 292676, Note_off_c, 9, 82, 0
11, 292800, Control_c, 9, 11, 100
11, 292800, Note_on_c, 9, 53, 90
11, 292800, Note_on_c, 9, 82, 80
11, 292916, Note_off_c, 9, 53, 0
11, 292916, Note_off_c, 9, 82, 0
11, 292920, Control_c, 9, 11, 99
11, 293040, Note_on_c, 9, 40, 120
11, 293040, Note_on_c, 9, 82, 60
11, 293156, Note_off_c, 9, 40, 0
11, 293156, Note_off_c, 9, 82, 0
11, 293160, Control_c, 9, 11, 98
11, 293280, Control_c, 9, 11, 97
11, 293280, Note_on_c, 9, 53, 90
11, 293280, Note_on_c, 9, 82, 80
11, 293396, Note_off_c, 9, 53, 0
11, 293396, Note_off_c, 9, 82, 0
11, 293520, Control_c, 9, 11, 96
11, 293520, Note_on_c, 9, 82, 60
11, 293636, Note_off_c, 9, 82, 0
11, 293640, Control_c, 9, 11, 95
11, 293760, Note_on_c, 9, 36, 120
11, 293760, Note_on_c, 9, 53, 90
11, 293760, Note_on_c, 9, 82, 80
11, 293876, Note_off_c, 9, 36, 0
11, 293876, Note_off_c, 9, 53, 0
11, 293876, Note_off_c, 9, 82, 0
11, 293880, Control_c, 9, 11, 94
11, 294000, Control_c, 9, 11, 93
11, 294000, Note_on_c, 9, 82, 60
11, 294116, Note_off_c, 9, 82, 0
11, 294240, Control_c, 9, 11, 92
11, 294240, Note_on_c, 9, 53, 90
11, 294240, Note_on_c, 9, 82, 80
11, 294356, Note_off_c, 9, 53, 0
11, 294356, Note_off_c, 9, 82, 0
11, 294360, Control_c, 9, 11, 91
11, 294480, Note_on_c, 9, 40, 120
11, 294480, Note_on_c, 9, 82, 60
11, 294596, Note_off_c, 9, 40, 0
11, 294596, Note_off_c, 9, 82, 0
11, 294600, Control_c, 9, 11, 90
11, 294720, Control_c, 9, 11, 89
11, 294720, Note_on_c, 9, 53, 90
11, 294720, Note_on_c, 9, 82, 80
11, 294836, Note_off_c, 9, 53, 0
11, 294836, Note_off_c, 9, 82, 0
11, 294960, Control_c, 9, 11, 88
11, 294960, Note_on_c, 9, 36, 90
11, 294960, Note_on_c, 9, 82, 60
11, 295076, Note_off_c, 9, 36, 0
11, 295076, Note_off_c, 9, 82, 0
11, 295200, Control_c, 9, 11, 87
11, 295200, Note_on_c, 9, 36, 120
11, 295200, Note_on_c, 9, 53, 90
11, 295200, Note_on_c, 9, 82, 80
11, 295316, Note_off_c, 9, 36, 0
11, 295316, Note_off_c, 9, 53, 0
11, 295316, Note_off_c, 9, 82, 0
11, 295320, Control_c, 9, 11, 86
11, 295440, Note_on_c, 9, 82, 60
11, 295556, Note_off_c, 9, 82, 0
11, 295560, Control_c, 9, 11, 85
11, 295680, Control_c, 9, 11, 84
11, 295680, Note_on_c, 9, 36, 80
11, 295680, Note_on_c, 9, 53, 90
11, 295680, Note_on_c, 9, 82, 80
11, 295796, Note_off_c, 9, 36, 0
11, 295796, Note_off_c, 9, 53, 0
11, 295796, Note_off_c, 9, 82, 0
11, 295920, Control_c, 9, 11, 83
11, 295920, Note_on_c, 9, 40, 120
11, 295920, Note_on_c, 9, 82, 60
11, 296036, Note_off_c, 9, 40, 0
11, 296036, Note_off_c, 9, 82, 0
11, 296040, Control_c, 9, 11, 82
11, 296160, Note_on_c, 9, 36, 100
11, 296160, Note_on_c, 9, 53, 90
11, 296160, Note_on_c, 9, 82, 80
11, 296276, Note_off_c, 9, 36, 0
11, 296276, Note_off_c, 9, 53, 0
11, 296276, Note_off_c, 9, 82, 0
11, 296280, Control_c, 9, 11, 81
11, 296400, Control_c, 9, 11, 80
11, 296400, Note_on_c, 9, 82, 60
11, 296516, Note_off_c, 9, 82, 0
11, 296640, Control_c, 9, 11, 79
11, 296640, Note_on_c, 9, 36, 120
11, 296640, Note_on_c, 9, 53, 90
11, 296640, Note_on_c, 9, 82, 80
11, 296756, Note_off_c, 9, 36, 0
11, 296756, Note_off_c, 9, 53, 0
11, 296756, Note_off_c, 9, 82, 0
11, 296760, Control_c, 9, 11, 78
11, 296880, Note_on_c, 9, 82, 60
11, 296996, Note_off_c, 9, 82, 0
11, 297000, Control_c, 9, 11, 77
11, 297120, Control_c, 9, 11, 76
11, 297120, Note_on_c, 9, 53, 90
11, 297120, Note_on_c, 9, 82, 80
11, 297236, Note_off_c, 9, 53, 0
11, 297236, Note_off_c, 9, 82, 0
11, 297360, Control_c, 9, 11, 75
11, 297360, Note_on_c, 9, 40, 120
11, 297360, Note_on_c, 9, 82, 60
11, 297476, Note_off_c, 9, 40, 0
11, 297476, Note_off_c, 9, 82, 0
11, 297480, Control_c, 9, 11, 74
11, 297600, Note_on_c, 9, 53, 90
11, 297600, Note_on_c, 9, 82, 80
11, 297716, Note_off_c, 9, 53, 0
11, 297716, Note_off_c, 9, 82, 0
11, 297720, Control_c, 9, 11, 73
11, 297840, Control_c, 9, 11, 72
11, 297840, Note_on_c, 9, 40, 80
11, 297840, Note_on_c, 9, 82, 60
11, 297956, Note_off_c, 9, 40, 0
11, 297956, Note_off_c, 9, 82, 0
11, 298080, Control_c, 9, 11, 71
11, 298080, Note_on_c, 9, 36, 100
11, 298080, Note_on_c, 9, 53, 90
11, 298080, Note_on_c, 9, 82, 80
11, 298196, Note_off_c, 9, 36, 0
11, 298196, Note_off_c, 9, 53, 0
11, 298196, Note_off_c, 9, 82, 0
11, 298200, Control_c, 9, 11, 70
11, 298320, Note_on_c, 9, 82, 60
11, 298436, Note_off_c, 9, 82, 0
11, 298440, Control_c, 9, 11, 69
11, 298560, Control_c, 9, 11, 68
11, 298560, Note_on_c, 9, 36, 100
11, 298560, Note_on_c, 9, 53, 90
11, 298560, Note_on_c, 9, 82, 80
11, 298676, Note_off_c, 9, 36, 0
11, 298676, Note_off_c, 9, 53, 0
11, 298676, Note_off_c, 9, 82, 0
11, 298800, Control_c, 9, 11, 67
11, 298800, Note_on_c, 9, 40, 120
11, 298800, Note_on_c, 9, 82, 60
11, 298916, Note_off_c, 9, 40, 0
11, 298916, Note_off_c, 9, 82, 0
11, 298920, Control_c, 9, 11, 66
11, 299040, Note_on_c, 9, 36, 100
11, 299040, Note_on_c, 9, 53, 90
11, 299040, Note_on_c, 9, 82, 80
11, 299156, Note_off_c, 9, 36, 0
11, 299156, Note_off_c, 9, 53, 0
11, 299156, Note_off_c, 9, 82, 0
11, 299160, Control_c, 9, 11, 65
11, 299280, Control_c, 9, 11, 64
11, 299280, Note_on_c, 9, 82, 60
11, 299396, Note_off_c, 9, 82, 0
11, 299520, Control_c, 9, 11, 63
11, 299520, Note_on_c, 9, 36, 120
11, 299520, Note_on_c, 9, 53, 90
11, 299520, Note_on_c, 9, 82, 80
11, 299636, Note_off_c, 9, 36, 0
11, 299636, Note_off_c, 9, 53, 0
11, 299636, Note_off_c, 9, 82, 0
11, 299760, Control_c, 9, 11, 62
11, 299760, Note_on_c, 9, 82, 60
11, 299876, Note_off_c, 9, 82, 0
11, 299880, Control_c, 9, 11, 61
11, 300000, Note_on_c, 9, 53, 90
11, 300000, Note_on_c, 9, 82, 80
11, 300116, Note_off_c, 9, 53, 0
11, 300116, Note_off_c, 9, 82, 0
11, 300120, Control_c, 9, 11, 60
11, 300240, Control_c, 9, 11, 59
11, 300240, Note_on_c, 9, 40, 120
11, 300240, Note_on_c, 9, 82, 60
11, 300356, Note_off_c, 9, 40, 0
11, 300356, Note_off_c, 9, 82, 0
11, 300480, Control_c, 9, 11, 58
11, 300480, Note_on_c, 9, 53, 90
11, 300480, Note_on_c, 9, 82, 80
11, 300596, Note_off_c, 9, 53, 0
11, 300596, Note_off_c, 9, 82, 0
11, 300600, Control_c, 9, 11, 57
11, 300720, Note_on_c, 9, 36, 90
11, 300720, Note_on_c, 9, 82, 60
11, 300836, Note_off_c, 9, 36, 0
11, 300836, Note_off_c, 9, 82, 0
11, 300840, Control_c, 9, 11, 56
11, 300960, Control_c, 9, 11, 55
11, 300960, Note_on_c, 9, 36, 120
11, 300960, Note_on_c, 9, 53, 90
11, 300960, Note_on_c, 9, 82, 80
11, 301076, Note_off_c, 9, 36, 0
11, 301076, Note_off_c, 9, 53, 0
11, 301076, Note_off_c, 9, 82, 0
11, 301200, Control_c, 9, 11, 54
11, 301200, Note_on_c, 9, 82, 60
11, 301316, Note_off_c, 9, 82, 0
11, 301320, Control_c, 9, 11, 53
11, 301440, Note_on_c, 9, 53, 90
11, 301440, Note_on_c, 9, 82, 80
11, 301556, Note_off_c, 9, 53, 0
11, 301556, Note_off_c, 9, 82, 0
11, 301560, Control_c, 9, 11, 52
11, 301680, Control_c, 9, 11, 51
11, 301680, Note_on_c, 9, 40, 120
11, 301680, Note_on_c, 9, 82, 60
11, 301796, Note_off_c, 9, 40, 0
11, 301796, Note_off_c, 9, 82, 0
11, 301920, Control_c, 9, 11, 50
11, 301920, Note_on_c, 9, 53, 90
11, 301920, Note_on_c, 9, 82, 80
11, 302036, Note_off_c, 9, 53, 0
11, 302036, Note_off_c, 9, 82, 0
11, 302040, Control_c, 9, 11, 49
11, 302160, Note_on_c, 9, 82, 60
11, 302276, Note_off_c, 9, 82, 0
11, 302280, Control_c, 9, 11, 48
11, 302400, Control_c, 9, 11, 47
11, 302400, Note_on_c, 9, 36, 120
11, 302400, Note_on_c, 9, 53, 90
11, 302400, Note_on_c, 9, 82, 80
11, 302516, Note_off_c, 9, 36, 0
11, 302516, Note_off_c, 9, 53, 0
11, 302516, Note_off_c, 9, 82, 0
11, 302640, Control_c, 9, 11, 46
11, 302640, Note_on_c, 9, 82, 60
11, 302756, Note_off_c, 9, 82, 0
11, 302760, Control_c, 9, 11, 45
11, 302880, Note_on_c, 9, 53, 90
11, 302880, Note_on_c, 9, 82, 80
11, 302996, Note_off_c, 9, 53, 0
11, 302996, Note_off_c, 9, 82, 0
11, 303000, Control_c, 9, 11, 44
11, 303120, Control_c, 9, 11, 43
11, 303120, Note_on_c, 9, 40, 120
11, 303120, Note_on_c, 9, 82, 60
11, 303236, Note_off_c, 9, 40, 0
11, 303236, Note_off_c, 9, 82, 0
11, 303360, Control_c, 9, 11, 42
11, 303360, Note_on_c, 9, 53, 90
11, 303360, Note_on_c, 9, 82, 80
11, 303476, Note_off_c, 9, 53, 0
11, 303476, Note_off_c, 9, 82, 0
11, 303480, Control_c, 9, 11, 41
11, 303600, Note_on_c, 9, 36, 90
11, 303600, Note_on_c, 9, 40, 80
11, 303600, Note_on_c, 9, 82, 60
11, 303716, Note_off_c, 9, 36, 0
11, 303716, Note_off_c, 9, 40, 0
11, 303716, Note_off_c, 9, 82, 0
11, 303720, Control_c, 9, 11, 40
11, 303840, Control_c, 9, 11, 39
11, 303840, Note_on_c, 9, 36, 120
11, 303840, Note_on_c, 9, 53, 90
11, 303840, Note_on_c, 9, 82, 80
11, 303956, Note_off_c, 9, 36, 0
11, 303956, Note_off_c, 9, 53, 0
11, 303956, Note_off_c, 9, 82, 0
11, 304080, Control_c, 9, 11, 38
11, 304080, Note_on_c, 9, 82, 60
11, 304196, Note_off_c, 9, 82, 0
11, 304320, Control_c, 9, 11, 37
11, 304320, Note_on_c, 9, 53, 90
11, 304320, Note_on_c, 9, 82, 80
11, 304436, Note_off_c, 9, 53, 0
11, 304436, Note_off_c, 9, 82, 0
11, 304440, Control_c, 9, 11, 36
11, 304560, Note_on_c, 9, 40, 120
11, 304560, Note_on_c, 9, 82, 60
11, 304676, Note_off_c, 9, 40, 0
11, 304676, Note_off_c, 9, 82, 0
11, 304680, Control_c, 9, 11, 35
11, 304800, Control_c, 9, 11, 34
11, 304800, Note_on_c, 9, 53, 90
11, 304800, Note_on_c, 9, 82, 80
11, 304916, Note_off_c, 9, 53, 0
11, 304916, Note_off_c, 9, 82, 0
11, 305040, Control_c, 9, 11, 33
11, 305040, Note_on_c, 9, 82, 60
11, 305156, Note_off_c, 9, 82, 0
11, 305160, Control_c, 9, 11, 32
11, 305280, Note_on_c, 9, 36, 120
11, 305280, Note_on_c, 9, 53, 90
11, 305280, Note_on_c, 9, 82, 80
11, 305396, Note_off_c, 9, 36, 0
11, 305396, Note_off_c, 9, 53, 0
11, 305396, Note_off_c, 9, 82, 0
11, 305400, Control_c, 9, 11, 31
11, 305520, Control_c, 9, 11, 30
11, 305520, Note_on_c, 9, 82, 60
11, 305636, Note_off_c, 9, 82, 0
11, 305760, Control_c, 9, 11, 29
11, 305760, Note_on_c, 9, 53, 90
11, 305760, Note_on_c, 9, 82, 80
11, 305876, Note_off_c, 9, 53, 0
11, 305876, Note_off_c, 9, 82, 0
11, 305880, Control_c, 9, 11, 28
11, 306000, Note_on_c, 9, 40, 120
11, 306000, Note_on_c, 9, 82, 60
11, 306116, Note_off_c, 9, 40, 0
11, 306116, Note_off_c, 9, 82, 0
11, 306120, Control_c, 9, 11, 27
11, 306240, Control_c, 9, 11, 26
11, 306240, Note_on_c, 9, 53, 90
11, 306240, Note_on_c, 9, 82, 80
11, 306356, Note_off_c, 9, 53, 0
11, 306356, Note_off_c, 9, 82, 0
11, 306480, Control_c, 9, 11, 25
11, 306480, Note_on_c, 9, 36, 90
11, 306480, Note_on_c, 9, 82, 60
11, 306596, Note_off_c, 9, 36, 0
11, 306596, Note_off_c, 9, 82, 0
11, 306600, Control_c, 9, 11, 24
11, 306720, Note_on_c, 9, 36, 120
11, 306720, Note_on_c, 9, 53, 90
11, 306720, Note_on_c, 9, 82, 80
11, 306836, Note_off_c, 9, 36, 0
11, 306836, Note_off_c, 9, 53, 0
11, 306836, Note_off_c, 9, 82, 0
11, 306840, Control_c, 9, 11, 23
11, 306960, Control_c, 9, 11, 22
11, 306960, Note_on_c, 9, 82, 60
11, 307076, Note_off_c, 9, 82, 0
11, 307200, Control_c, 9, 11, 21
11, 307200, Note_on_c, 9, 36, 80
11, 307200, Note_on_c, 9, 53, 90
11, 307200, Note_on_c, 9, 82, 80
11, 307316, Note_off_c, 9, 36, 0
11, 307316, Note_off_c, 9, 53, 0
11, 307316, Note_off_c, 9, 82, 0
11, 307320, Control_c, 9, 11, 20
11, 307440, Note_on_c, 9, 36, 100
11, 307440, Note_on_c, 9, 40, 120
11, 307440, Note_on_c, 9, 82, 60
11, 307556, Note_off_c, 9, 36, 0
11, 307556, Note_off_c, 9, 40, 0
11, 307556, Note_off_c, 9, 82, 0
11, 307560, Control_c, 9, 11, 19
11, 307680, Control_c, 9, 11, 18
11, 307680, Note_on_c, 9, 53, 90
11, 307680, Note_on_c, 9, 82, 80
11, 307796, Note_off_c, 9, 53, 0
11, 307796, Note_off_c, 9, 82, 0
11, 307920, Control_c, 9, 11, 17
11, 307920, Note_on_c, 9, 36, 90
11, 307920, Note_on_c, 9, 82, 60
11, 308036, Note_off_c, 9, 36, 0
11, 308036, Note_off_c, 9, 82, 0
11, 308040, Control_c, 9, 11, 16
11, 308160, Note_on_c, 9, 36, 120
11, 308160, Note_on_c, 9, 53, 90
11, 308160, Note_on_c, 9, 82, 80
11, 308276, Note_off_c, 9, 36, 0
11, 308276, Note_off_c, 9, 53, 0
11, 308276, Note_off_c, 9, 82, 0
11, 308280, Control_c, 9, 11, 15
11, 308400, Control_c, 9, 11, 14
11, 308400, Note_on_c, 9, 82, 60
11, 308516, Note_off_c, 9, 82, 0
11, 308640, Control_c, 9, 11, 13
11, 308640, Note_on_c, 9, 53, 90
11, 308640, Note_on_c, 9, 82, 80
11, 308756, Note_off_c, 9, 53, 0
11, 308756, Note_off_c, 9, 82, 0
11, 308880, Control_c, 9, 11, 12
11, 308880, Note_on_c, 9, 40, 120
11, 308880, Note_on_c, 9, 82, 60
11, 308996, Note_off_c, 9, 40, 0
11, 308996, Note_off_c, 9, 82, 0
11, 309000, Control_c, 9, 11, 11
11, 309120, Note_on_c, 9, 53, 90
11, 309120, Note_on_c, 9, 82, 80
11, 309236, Note_off_c, 9, 53, 0
11, 309236, Note_off_c, 9, 82, 0
11, 309240, Control_c, 9, 11, 10
11, 309360, Control_c, 9, 11, 9
11, 309360, Note_on_c, 9, 40, 80
11, 309360, Note_on_c, 9, 82, 60
11, 309476, Note_off_c, 9, 40, 0
11, 309476, Note_off_c, 9, 82, 0
11, 309600, Control_c, 9, 11, 8
11, 309600, Note_on_c, 9, 36, 100
11, 309600, Note_on_c, 9, 53, 90
11, 309600, Note_on_c, 9, 82, 80
11, 309716, Note_off_c, 9, 36, 0
11, 309716, Note_off_c, 9, 53, 0
11, 309716, Note_off_c, 9, 82, 0
11, 309720, Control_c, 9, 11, 7
11, 309840, Note_on_c, 9, 40, 120
11, 309840, Note_on_c, 9, 82, 60
11, 309956, Note_off_c, 9, 40, 0
11, 309956, Note_off_c, 9, 82, 0
11, 309960, Control_c, 9, 11, 6
11, 310080, Control_c, 9, 11, 5
11, 310080, Note_on_c, 9, 36, 100
11, 310080, Note_on_c, 9, 53, 90
11, 310080, Note_on_c, 9, 82, 80
11, 310196, Note_off_c, 9, 36, 0
11, 310196, Note_off_c, 9, 53, 0
11, 310196, Note_off_c, 9, 82, 0
11, 310320, Control_c, 9, 11, 4
11, 310320, Note_on_c, 9, 40, 120
11, 310320, Note_on_c, 9, 82, 60
11, 310436, Note_off_c, 9, 40, 0
11, 310436, Note_off_c, 9, 82, 0
11, 310440, Control_c, 9, 11, 3
11, 310560, Note_on_c, 9, 36, 100
11, 310560, Note_on_c, 9, 53, 90
11, 310560, Note_on_c, 9, 82, 80
11, 310676, Note_off_c, 9, 36, 0
11, 310676, Note_off_c, 9, 53, 0
11, 310676, Note_off_c, 9, 82, 0
11, 310680, Control_c, 9, 11, 2
11, 310800, Control_c, 9, 11, 1
11, 310800, Note_on_c, 9, 40, 120
11, 310800, Note_on_c, 9, 82, 60
11, 310916, Note_off_c, 9, 40, 0
11, 310916, Note_off_c, 9, 82, 0
11, 311031, Control_c, 9, 7, 100
11, 311031, End_track
12, 0, Start_track
12, 0, Title_t, "\000"
12, 0, Control_c, 10, 0, 8
12, 0, Program_c, 10, 26
12, 0, Control_c, 10, 7, 55
12, 0, Control_c, 10, 10, 64
12, 0, Control_c, 10, 91, 127
12, 0, Control_c, 10, 93, 40
12, 910, Control_c, 10, 11, 127
12, 3609, Control_c, 10, 101, 0
12, 3612, Control_c, 10, 100, 0
12, 3614, Control_c, 10, 6, 2
12, 3617, Control_c, 10, 101, 127
12, 3619, Control_c, 10, 100, 127
12, 5033, Control_c, 10, 94, 0
12, 27826, Pitch_bend_c, 10, 7926
12, 27841, Pitch_bend_c, 10, 6869
12, 27867, Pitch_bend_c, 10, 5284
12, 27882, Pitch_bend_c, 10, 3434
12, 27901, Pitch_bend_c, 10, 1056
12, 27922, Pitch_bend_c, 10, 0
12, 27973, Note_on_c, 10, 71, 117
12, 27978, Note_on_c, 10, 75, 127
12, 28084, Pitch_bend_c, 10, 792
12, 28104, Pitch_bend_c, 10, 2642
12, 28125, Pitch_bend_c, 10, 4491
12, 28140, Pitch_bend_c, 10, 6341
12, 28165, Pitch_bend_c, 10, 7662
12, 28180, Pitch_bend_c, 10, 8192
12, 28620, Pitch_bend_c, 10, 7926
12, 28640, Pitch_bend_c, 10, 7398
12, 28660, Pitch_bend_c, 10, 6605
12, 28681, Pitch_bend_c, 10, 5548
12, 28701, Pitch_bend_c, 10, 4491
12, 28716, Pitch_bend_c, 10, 3434
12, 28726, Note_off_c, 10, 75, 0
12, 28736, Pitch_bend_c, 10, 2113
12, 28755, Note_off_c, 10, 71, 0
12, 28761, Pitch_bend_c, 10, 1056
12, 28782, Pitch_bend_c, 10, 0
12, 28917, Pitch_bend_c, 10, 264
12, 28938, Pitch_bend_c, 10, 2642
12, 28959, Pitch_bend_c, 10, 5812
12, 28979, Pitch_bend_c, 10, 7398
12, 28999, Pitch_bend_c, 10, 8191
12, 29020, Pitch_bend_c, 10, 8192
12, 96331, Pitch_bend_c, 10, 7926
12, 96351, Pitch_bend_c, 10, 6077
12, 96376, Pitch_bend_c, 10, 2906
12, 96390, Pitch_bend_c, 10, 264
12, 96412, Pitch_bend_c, 10, 0
12, 96432, Note_on_c, 10, 64, 127
12, 96592, Pitch_bend_c, 10, 1056
12, 96609, Pitch_bend_c, 10, 2378
12, 96629, Pitch_bend_c, 10, 4227
12, 96649, Pitch_bend_c, 10, 6341
12, 96669, Pitch_bend_c, 10, 7662
12, 96690, Pitch_bend_c, 10, 8192
12, 96897, Note_off_c, 10, 64, 0
12, 96963, Note_on_c, 10, 64, 127
12, 97352, Note_off_c, 10, 64, 0
12, 97433, Note_on_c, 10, 64, 127
12, 97858, Note_off_c, 10, 64, 0
12, 97883, Pitch_bend_c, 10, 6605
12, 97903, Pitch_bend_c, 10, 3434
12, 97912, Note_on_c, 10, 66, 127
12, 97922, Pitch_bend_c, 10, 264
12, 97938, Pitch_bend_c, 10, 0
12, 98120, Pitch_bend_c, 10, 2378
12, 98141, Pitch_bend_c, 10, 5284
12, 98160, Pitch_bend_c, 10, 7134
12, 98180, Pitch_bend_c, 10, 8191
12, 98201, Pitch_bend_c, 10, 8192
12, 99273, Note_off_c, 10, 66, 0
12, 119371, Pitch_bend_c, 10, 7926
12, 119391, Pitch_bend_c, 10, 6077
12, 119416, Pitch_bend_c, 10, 2906
12, 119430, Pitch_bend_c, 10, 264
12, 119452, Pitch_bend_c, 10, 0
12, 119472, Note_on_c, 10, 64, 127
12, 119632, Pitch_bend_c, 10, 1056
12, 119649, Pitch_bend_c, 10, 2378
12, 119669, Pitch_bend_c, 10, 4227
12, 119689, Pitch_bend_c, 10, 6341
12, 119709, Pitch_bend_c, 10, 7662
12, 119730, Pitch_bend_c, 10, 8192
12, 119937, Note_off_c, 10, 64, 0
12, 120003, Note_on_c, 10, 64, 127
12, 120392, Note_off_c, 10, 64, 0
12, 120473, Note_on_c, 10, 64, 127
12, 120898, Note_off_c, 10, 64, 0
12, 120923, Pitch_bend_c, 10, 6605
12, 120943, Pitch_bend_c, 10, 3434
12, 120952, Note_on_c, 10, 66, 127
12, 120962, Pitch_bend_c, 10, 264
12, 120978, Pitch_bend_c, 10, 0
12, 121160, Pitch_bend_c, 10, 2378
12, 121181, Pitch_bend_c, 10, 5284
12, 121200, Pitch_bend_c, 10, 7134
12, 121220, Pitch_bend_c, 10, 8191
12, 121241, Pitch_bend_c, 10, 8192
12, 122313, Note_off_c, 10, 66, 0
12, 171211, Pitch_bend_c, 10, 7926
12, 171231, Pitch_bend_c, 10, 6077
12, 171256, Pitch_bend_c, 10, 2906
12, 171270, Pitch_bend_c, 10, 264
12, 171292, Pitch_bend_c, 10, 0
12, 171312, Note_on_c, 10, 64, 127
12, 171472, Pitch_bend_c, 10, 1056
12, 171489, Pitch_bend_c, 10, 2378
12, 171509, Pitch_bend_c, 10, 4227
12, 171529, Pitch_bend_c, 10, 6341
12, 171549, Pitch_bend_c, 10, 7662
12, 171570, Pitch_bend_c, 10, 8192
12, 171777, Note_off_c, 10, 64, 0
12, 171843, Note_on_c, 10, 64, 127
12, 172232, Note_off_c, 10, 64, 0
12, 172313, Note_on_c, 10, 64, 127
12, 172738, Note_off_c, 10, 64, 0
12, 172763, Pitch_bend_c, 10, 6605
12, 172783, Pitch_bend_c, 10, 3434
12, 172792, Note_on_c, 10, 66, 127
12, 172802, Pitch_bend_c, 10, 264
12, 172818, Pitch_bend_c, 10, 0
12, 173000, Pitch_bend_c, 10, 2378
12, 173021, Pitch_bend_c, 10, 5284
12, 173040, Pitch_bend_c, 10, 7134
12, 173060, Pitch_bend_c, 10, 8191
12, 173081, Pitch_bend_c, 10, 8192
12, 174153, Note_off_c, 10, 66, 0
12, 194251, Pitch_bend_c, 10, 7926
12, 194271, Pitch_bend_c, 10, 6077
12, 194296, Pitch_bend_c, 10, 2906
12, 194310, Pitch_bend_c, 10, 264
12, 194332, Pitch_bend_c, 10, 0
12, 194352, Note_on_c, 10, 64, 127
12, 194512, Pitch_bend_c, 10, 1056
12, 194529, Pitch_bend_c, 10, 2378
12, 194549, Pitch_bend_c, 10, 4227
12, 194569, Pitch_bend_c, 10, 6341
12, 194589, Pitch_bend_c, 10, 7662
12, 194610, Pitch_bend_c, 10, 8192
12, 194817, Note_off_c, 10, 64, 0
12, 194883, Note_on_c, 10, 64, 127
12, 195272, Note_off_c, 10, 64, 0
12, 195353, Note_on_c, 10, 64, 127
12, 195778, Note_off_c, 10, 64, 0
12, 195803, Pitch_bend_c, 10, 6605
12, 195823, Pitch_bend_c, 10, 3434
12, 195832, Note_on_c, 10, 66, 127
12, 195842, Pitch_bend_c, 10, 264
12, 195858, Pitch_bend_c, 10, 0
12, 196040, Pitch_bend_c, 10, 2378
12, 196061, Pitch_bend_c, 10, 5284
12, 196080, Pitch_bend_c, 10, 7134
12, 196100, Pitch_bend_c, 10, 8191
12, 196121, Pitch_bend_c, 10, 8192
12, 197193, Note_off_c, 10, 66, 0
12, 217291, Pitch_bend_c, 10, 7926
12, 217311, Pitch_bend_c, 10, 6077
12, 217336, Pitch_bend_c, 10, 2906
12, 217350, Pitch_bend_c, 10, 264
12, 217372, Pitch_bend_c, 10, 0
12, 217392, Note_on_c, 10, 64, 127
12, 217552, Pitch_bend_c, 10, 1056
12, 217569, Pitch_bend_c, 10, 2378
12, 217589, Pitch_bend_c, 10, 4227
12, 217609, Pitch_bend_c, 10, 6341
12, 217629, Pitch_bend_c, 10, 7662
12, 217650, Pitch_bend_c, 10, 8192
12, 217857, Note_off_c, 10, 64, 0
12, 217923, Note_on_c, 10, 64, 127
12, 218312, Note_off_c, 10, 64, 0
12, 218393, Note_on_c, 10, 64, 127
12, 218818, Note_off_c, 10, 64, 0
12, 218843, Pitch_bend_c, 10, 6605
12, 218863, Pitch_bend_c, 10, 3434
12, 218872, Note_on_c, 10, 66, 127
12, 218882, Pitch_bend_c, 10, 264
12, 218898, Pitch_bend_c, 10, 0
12, 219080, Pitch_bend_c, 10, 2378
12, 219101, Pitch_bend_c, 10, 5284
12, 219120, Pitch_bend_c, 10, 7134
12, 219140, Pitch_bend_c, 10, 8191
12, 219161, Pitch_bend_c, 10, 8192
12, 220233, Note_off_c, 10, 66, 0
12, 240331, Pitch_bend_c, 10, 7926
12, 240351, Pitch_bend_c, 10, 6077
12, 240376, Pitch_bend_c, 10, 2906
12, 240390, Pitch_bend_c, 10, 264
12, 240412, Pitch_bend_c, 10, 0
12, 240432, Note_on_c, 10, 64, 127
12, 240592, Pitch_bend_c, 10, 1056
12, 240609, Pitch_bend_c, 10, 2378
12, 240629, Pitch_bend_c, 10, 4227
12, 240649, Pitch_bend_c, 10, 6341
12, 240669, Pitch_bend_c, 10, 7662
12, 240690, Pitch_bend_c, 10, 8192
12, 240897, Note_off_c, 10, 64, 0
12, 240963, Note_on_c, 10, 64, 127
12, 241352, Note_off_c, 10, 64, 0
12, 241433, Note_on_c, 10, 64, 127
12, 241858, Note_off_c, 10, 64, 0
12, 241883, Pitch_bend_c, 10, 6605
12, 241903, Pitch_bend_c, 10, 3434
12, 241912, Note_on_c, 10, 66, 127
12, 241922, Pitch_bend_c, 10, 264
12, 241938, Pitch_bend_c, 10, 0
12, 242120, Pitch_bend_c, 10, 2378
12, 242141, Pitch_bend_c, 10, 5284
12, 242160, Pitch_bend_c, 10, 7134
12, 242180, Pitch_bend_c, 10, 8191
12, 242201, Pitch_bend_c, 10, 8192
12, 243273, Note_off_c, 10, 66, 0
12, 263371, Pitch_bend_c, 10, 7926
12, 263391, Pitch_bend_c, 10, 6077
12, 263416, Pitch_bend_c, 10, 2906
12, 263430, Pitch_bend_c, 10, 264
12, 263452, Pitch_bend_c, 10, 0
12, 263472, Note_on_c, 10, 64, 127
12, 263632, Pitch_bend_c, 10, 1056
12, 263649, Pitch_bend_c, 10, 2378
12, 263669, Pitch_bend_c, 10, 4227
12, 263689, Pitch_bend_c, 10, 6341
12, 263709, Pitch_bend_c, 10, 7662
12, 263730, Pitch_bend_c, 10, 8192
12, 263937, Note_off_c, 10, 64, 0
12, 264003, Note_on_c, 10, 64, 127
12, 264392, Note_off_c, 10, 64, 0
12, 264473, Note_on_c, 10, 64, 127
12, 264898, Note_off_c, 10, 64, 0
12, 264923, Pitch_bend_c, 10, 6605
12, 264943, Pitch_bend_c, 10, 3434
12, 264952, Note_on_c, 10, 66, 127
12, 264962, Pitch_bend_c, 10, 264
12, 264978, Pitch_bend_c, 10, 0
12, 265160, Pitch_bend_c, 10, 2378
12, 265181, Pitch_bend_c, 10, 5284
12, 265200, Pitch_bend_c, 10, 7134
12, 265220, Pitch_bend_c, 10, 8191
12, 265241, Pitch_bend_c, 10, 8192
12, 266313, Note_off_c, 10, 66, 0
12, 286411, Pitch_bend_c, 10, 7926
12, 286431, Pitch_bend_c, 10, 6077
12, 286456, Pitch_bend_c, 10, 2906
12, 286470, Pitch_bend_c, 10, 264
12, 286492, Pitch_bend_c, 10, 0
12, 286512, Note_on_c, 10, 64, 127
12, 286672, Pitch_bend_c, 10, 1056
12, 286689, Pitch_bend_c, 10, 2378
12, 286709, Pitch_bend_c, 10, 4227
12, 286729, Pitch_bend_c, 10, 6341
12, 286749, Pitch_bend_c, 10, 7662
12, 286770, Pitch_bend_c, 10, 8192
12, 286977, Note_off_c, 10, 64, 0
12, 287043, Note_on_c, 10, 64, 127
12, 287432, Note_off_c, 10, 64, 0
12, 287513, Note_on_c, 10, 64, 127
12, 287938, Note_off_c, 10, 64, 0
12, 287963, Pitch_bend_c, 10, 6605
12, 287983, Pitch_bend_c, 10, 3434
12, 287992, Note_on_c, 10, 66, 127
12, 288002, Pitch_bend_c, 10, 264
12, 288018, Pitch_bend_c, 10, 0
12, 288200, Pitch_bend_c, 10, 2378
12, 288221, Pitch_bend_c, 10, 5284
12, 288240, Pitch_bend_c, 10, 7134
12, 288260, Pitch_bend_c, 10, 8191
12, 288281, Pitch_bend_c, 10, 8192
12, 289353, Note_off_c, 10, 66, 0
12, 311031, Control_c, 10, 7, 55
12, 311031, End_track
13, 0, Start_track
13, 0, Title_t, "\000"
13, 0, Control_c, 11, 0, 0
13, 0, Program_c, 11, 25
13, 0, Control_c, 11, 7, 88
13, 0, Control_c, 11, 10, 74
13, 0, Control_c, 11, 91, 40
13, 0, Control_c, 11, 93, 25
13, 950, Control_c, 11, 11, 127
13, 3634, Control_c, 11, 101, 0
13, 3636, Control_c, 11, 100, 0
13, 3639, Control_c, 11, 6, 2
13, 3641, Control_c, 11, 101, 127
13, 3644, Control_c, 11, 100, 127
13, 4990, Control_c, 11, 94, 0
13, 74879, Note_on_c, 11, 66, 83
13, 74891, Note_on_c, 11, 71, 86
13, 74895, Note_on_c, 11, 63, 45
13, 75294, Note_off_c, 11, 66, 0
13, 75300, Note_off_c, 11, 71, 0
13, 75305, Note_off_c, 11, 63, 0
13, 75361, Note_on_c, 11, 66, 91
13, 75364, Note_on_c, 11, 63, 76
13, 75371, Note_on_c, 11, 71, 101
13, 75775, Note_off_c, 11, 71, 0
13, 75780, Note_off_c, 11, 66, 0
13, 75780, Note_off_c, 11, 63, 0
13, 75850, Note_on_c, 11, 66, 104
13, 75856, Note_on_c, 11, 63, 95
13, 75861, Note_on_c, 11, 71, 127
13, 76254, Note_off_c, 11, 71, 0
13, 76260, Note_off_c, 11, 66, 0
13, 76260, Note_off_c, 11, 63, 0
13, 76321, Note_on_c, 11, 66, 110
13, 76326, Note_on_c, 11, 63, 100
13, 76326, Note_on_c, 11, 71, 127
13, 77433, Note_off_c, 11, 63, 0
13, 77433, Note_off_c, 11, 71, 0
13, 77438, Note_off_c, 11, 66, 0
13, 77754, Note_on_c, 11, 64, 79
13, 77758, Note_on_c, 11, 69, 86
13, 77758, Note_on_c, 11, 73, 55
13, 78112, Note_off_c, 11, 73, 0
13, 78132, Note_off_c, 11, 64, 0
13, 78138, Note_off_c, 11, 69, 0
13, 78202, Note_on_c, 11, 64, 104
13, 78209, Note_on_c, 11, 69, 122
13, 78209, Note_on_c, 11, 73, 110
13, 78608, Note_off_c, 11, 73, 0
13, 78612, Note_off_c, 11, 64, 0
13, 78623, Note_off_c, 11, 69, 0
13, 78684, Note_on_c, 11, 64, 104
13, 78689, Note_on_c, 11, 69, 127
13, 78689, Note_on_c, 11, 73, 127
13, 79083, Note_off_c, 11, 73, 0
13, 79109, Note_off_c, 11, 69, 0
13, 79113, Note_off_c, 11, 64, 0
13, 79173, Note_on_c, 11, 64, 108
13, 79184, Note_on_c, 11, 69, 127
13, 79184, Note_on_c, 11, 73, 127
13, 79481, Control_c, 11, 1, 127
13, 79538, Control_c, 11, 1, 0
13, 79593, Note_off_c, 11, 69, 0
13, 79674, Note_on_c, 11, 69, 127
13, 80043, Note_off_c, 11, 73, 0
13, 80150, Note_on_c, 11, 73, 110
13, 80569, Note_off_c, 11, 64, 0
13, 80584, Note_off_c, 11, 69, 0
13, 80584, Note_off_c, 11, 73, 0
13, 80910, Note_on_c, 11, 66, 95
13, 81111, Note_on_c, 11, 71, 101
13, 81370, Note_on_c, 11, 75, 104
13, 81754, Note_off_c, 11, 71, 0
13, 81881, Note_on_c, 11, 71, 122
13, 82265, Note_off_c, 11, 66, 0
13, 82401, Note_on_c, 11, 66, 110
13, 82790, Note_off_c, 11, 75, 0
13, 82942, Note_on_c, 11, 75, 104
13, 83392, Note_off_c, 11, 75, 0
13, 83396, Note_off_c, 11, 66, 0
13, 83401, Note_off_c, 11, 71, 0
13, 83769, Note_on_c, 11, 61, 59
13, 83996, Note_on_c, 11, 64, 101
13, 84233, Note_on_c, 11, 68, 91
13, 84664, Note_off_c, 11, 64, 0
13, 84750, Note_on_c, 11, 64, 97
13, 85174, Note_off_c, 11, 61, 0
13, 85280, Note_on_c, 11, 61, 80
13, 85679, Note_off_c, 11, 68, 0
13, 85771, Note_on_c, 11, 68, 83
13, 86231, Note_off_c, 11, 61, 0
13, 86236, Note_off_c, 11, 68, 0
13, 86241, Note_off_c, 11, 64, 0
13, 86627, Note_on_c, 11, 66, 76
13, 86641, Note_on_c, 11, 59, 70
13, 86641, Note_on_c, 11, 63, 61
13, 86995, Note_off_c, 11, 66, 0
13, 87010, Note_off_c, 11, 59, 0
13, 87016, Note_off_c, 11, 63, 0
13, 87097, Note_on_c, 11, 59, 91
13, 87097, Note_on_c, 11, 63, 87
13, 87097, Note_on_c, 11, 66, 104
13, 87537, Note_off_c, 11, 66, 0
13, 87542, Note_off_c, 11, 59, 0
13, 87542, Note_off_c, 11, 63, 0
13, 87613, Note_on_c, 11, 63, 100
13, 87613, Note_on_c, 11, 66, 100
13, 87618, Note_on_c, 11, 59, 97
13, 88027, Note_off_c, 11, 66, 0
13, 88032, Note_off_c, 11, 63, 0
13, 88032, Note_off_c, 11, 59, 0
13, 88098, Note_on_c, 11, 59, 113
13, 88104, Note_on_c, 11, 63, 104
13, 88108, Note_on_c, 11, 66, 104
13, 88496, Note_off_c, 11, 66, 0
13, 88508, Note_off_c, 11, 59, 0
13, 88508, Note_off_c, 11, 63, 0
13, 88583, Note_on_c, 11, 59, 108
13, 88587, Note_on_c, 11, 63, 104
13, 88598, Note_on_c, 11, 66, 110
13, 89129, Note_off_c, 11, 63, 0
13, 89140, Note_off_c, 11, 66, 0
13, 89145, Note_off_c, 11, 59, 0
13, 89274, Note_on_c, 11, 64, 79
13, 89278, Note_on_c, 11, 69, 86
13, 89278, Note_on_c, 11, 73, 55
13, 89632, Note_off_c, 11, 73, 0
13, 89652, Note_off_c, 11, 64, 0
13, 89658, Note_off_c, 11, 69, 0
13, 89722, Note_on_c, 11, 64, 104
13, 89729, Note_on_c, 11, 69, 122
13, 89729, Note_on_c, 11, 73, 110
13, 90128, Note_off_c, 11, 73, 0
13, 90132, Note_off_c, 11, 64, 0
13, 90143, Note_off_c, 11, 69, 0
13, 90204, Note_on_c, 11, 64, 104
13, 90209, Note_on_c, 11, 69, 127
13, 90209, Note_on_c, 11, 73, 127
13, 90603, Note_off_c, 11, 73, 0
13, 90629, Note_off_c, 11, 69, 0
13, 90633, Note_off_c, 11, 64, 0
13, 90693, Note_on_c, 11, 64, 108
13, 90704, Note_on_c, 11, 69, 127
13, 90704, Note_on_c, 11, 73, 127
13, 91001, Control_c, 11, 1, 127
13, 91058, Control_c, 11, 1, 0
13, 91113, Note_off_c, 11, 69, 0
13, 91194, Note_on_c, 11, 69, 127
13, 91563, Note_off_c, 11, 73, 0
13, 91670, Note_on_c, 11, 73, 110
13, 92089, Note_off_c, 11, 64, 0
13, 92104, Note_off_c, 11, 69, 0
13, 92104, Note_off_c, 11, 73, 0
13, 92430, Note_on_c, 11, 66, 95
13, 92631, Note_on_c, 11, 71, 101
13, 92890, Note_on_c, 11, 75, 104
13, 93274, Note_off_c, 11, 71, 0
13, 93401, Note_on_c, 11, 71, 122
13, 93785, Note_off_c, 11, 66, 0
13, 93921, Note_on_c, 11, 66, 110
13, 94310, Note_off_c, 11, 75, 0
13, 94462, Note_on_c, 11, 75, 104
13, 94912, Note_off_c, 11, 75, 0
13, 94916, Note_off_c, 11, 66, 0
13, 94921, Note_off_c, 11, 71, 0
13, 95310, Note_on_c, 11, 66, 95
13, 95511, Note_on_c, 11, 71, 101
13, 95770, Note_on_c, 11, 75, 104
13, 96154, Note_off_c, 11, 71, 0
13, 96281, Note_on_c, 11, 71, 122
13, 96665, Note_off_c, 11, 66, 0
13, 96801, Note_on_c, 11, 66, 110
13, 97190, Note_off_c, 11, 75, 0
13, 97342, Note_on_c, 11, 75, 104
13, 97792, Note_off_c, 11, 75, 0
13, 97796, Note_off_c, 11, 66, 0
13, 97801, Note_off_c, 11, 71, 0
13, 311031, Control_c, 11, 7, 88
13, 311031, End_track
14, 0, Start_track
14, 0, Title_t, "\000"
14, 0, Control_c, 12, 0, 0
14, 0, Program_c, 12, 91
14, 0, Control_c, 12, 7, 74
14, 0, Control_c, 12, 10, 64
14, 0, Control_c, 12, 91, 127
14, 0, Control_c, 12, 93, 40
14, 990, Control_c, 12, 11, 127
14, 3659, Control_c, 12, 101, 0
14, 3661, Control_c, 12, 100, 0
14, 3664, Control_c, 12, 6, 2
14, 3666, Control_c, 12, 101, 127
14, 3669, Control_c, 12, 100, 127
14, 4954, Control_c, 12, 94, 0
14, 74869, Note_on_c, 12, 63, 91
14, 74869, Note_on_c, 12, 66, 95
14, 74879, Note_on_c, 12, 71, 108
14, 77705, Note_off_c, 12, 63, 0
14, 77711, Note_off_c, 12, 66, 0
14, 77719, Note_off_c, 12, 71, 0
14, 77766, Note_on_c, 12, 73, 80
14, 77771, Note_on_c, 12, 64, 113
14, 77771, Note_on_c, 12, 69, 91
14, 80511, Note_off_c, 12, 64, 0
14, 80546, Note_off_c, 12, 69, 0
14, 80561, Note_off_c, 12, 73, 0
14, 80622, Note_on_c, 12, 71, 117
14, 80622, Note_on_c, 12, 75, 91
14, 80626, Note_on_c, 12, 66, 87
14, 83387, Note_off_c, 12, 75, 0
14, 83416, Note_off_c, 12, 66, 0
14, 83483, Note_on_c, 12, 69, 108
14, 83483, Note_on_c, 12, 73, 76
14, 83492, Note_on_c, 12, 64, 104
14, 83514, Note_off_c, 12, 71, 0
14, 86279, Note_off_c, 12, 64, 0
14, 86299, Note_off_c, 12, 73, 0
14, 86359, Note_off_c, 12, 69, 0
14, 86385, Note_on_c, 12, 66, 95
14, 86385, Note_on_c, 12, 71, 113
14, 86394, Note_on_c, 12, 63, 83
14, 89186, Note_off_c, 12, 63, 0
14, 89196, Note_off_c, 12, 66, 0
14, 89206, Note_off_c, 12, 71, 0
14, 89257, Note_on_c, 12, 69, 97
14, 89262, Note_on_c, 12, 64, 113
14, 89262, Note_on_c, 12, 73, 73
14, 92057, Note_off_c, 12, 64, 0
14, 92092, Note_off_c, 12, 69, 0
14, 92096, Note_off_c, 12, 73, 0
14, 92158, Note_on_c, 12, 71, 108
14, 92163, Note_on_c, 12, 66, 91
14, 92163, Note_on_c, 12, 75, 91
14, 97774, Note_off_c, 12, 66, 0
14, 97789, Note_off_c, 12, 71, 0
14, 97794, Note_off_c, 12, 75, 0
14, 311031, Control_c, 12, 7, 74
14, 311031, End_track
15, 0, Start_track
15, 0, Title_t, "\000"
15, 0, Control_c, 13, 0, 3
15, 0, Program_c, 13, 30
15, 0, Control_c, 13, 7, 78
15, 0, Control_c, 13, 10, 64
15, 0, Control_c, 13, 91, 127
15, 0, Control_c, 13, 93, 60
15, 1030, Control_c, 13, 11, 127
15, 3684, Control_c, 13, 101, 0
15, 3686, Control_c, 13, 100, 0
15, 3689, Control_c, 13, 6, 2
15, 3691, Control_c, 13, 101, 127
15, 3694, Control_c, 13, 100, 127
15, 4914, Control_c, 13, 94, 0
15, 92160, Control_c, 13, 11, 1
15, 95260, Note_on_c, 13, 57, 122
15, 95260, Note_on_c, 13, 64, 127
15, 95565, Control_c, 13, 11, 2
15, 95645, Control_c, 13, 11, 5
15, 95686, Control_c, 13, 11, 8
15, 95761, Control_c, 13, 11, 10
15, 95807, Control_c, 13, 11, 12
15, 95842, Control_c, 13, 11, 15
15, 95883, Control_c, 13, 11, 17
15, 95979, Control_c, 13, 11, 19
15, 96060, Control_c, 13, 11, 23
15, 96100, Control_c, 13, 11, 25
15, 96135, Control_c, 13, 11, 27
15, 96180, Control_c, 13, 11, 29
15, 96215, Control_c, 13, 11, 31
15, 96276, Control_c, 13, 11, 33
15, 96332, Control_c, 13, 11, 36
15, 96373, Control_c, 13, 11, 38
15, 96459, Control_c, 13, 11, 40
15, 96554, Control_c, 13, 11, 44
15, 96595, Control_c, 13, 11, 46
15, 96636, Control_c, 13, 11, 48
15, 96676, Control_c, 13, 11, 51
15, 96712, Control_c, 13, 11, 53
15, 96758, Control_c, 13, 11, 55
15, 96818, Control_c, 13, 11, 58
15, 96852, Control_c, 13, 11, 60
15, 96894, Control_c, 13, 11, 62
15, 96934, Control_c, 13, 11, 64
15, 97030, Control_c, 13, 11, 68
15, 97070, Control_c, 13, 11, 70
15, 97111, Control_c, 13, 11, 72
15, 97147, Control_c, 13, 11, 75
15, 97187, Control_c, 13, 11, 77
15, 97228, Control_c, 13, 11, 80
15, 97268, Control_c, 13, 11, 83
15, 97308, Control_c, 13, 11, 86
15, 97343, Control_c, 13, 11, 89
15, 97389, Control_c, 13, 11, 92
15, 97429, Control_c, 13, 11, 95
15, 97465, Control_c, 13, 11, 97
15, 97510, Control_c, 13, 11, 101
15, 97545, Control_c, 13, 11, 106
15, 97586, Control_c, 13, 11, 110
15, 97627, Control_c, 13, 11, 116
15, 97671, Control_c, 13, 11, 123
15, 97702, Control_c, 13, 11, 127
15, 97858, Note_off_c, 13, 57, 0
15, 97935, Note_on_c, 13, 66, 110
15, 97944, Note_on_c, 13, 59, 108
15, 97966, Note_off_c, 13, 64, 0
15, 100427, Control_c, 13, 11, 124
15, 100503, Control_c, 13, 11, 121
15, 100659, Control_c, 13, 11, 118
15, 100761, Control_c, 13, 11, 115
15, 100821, Control_c, 13, 11, 113
15, 100898, Control_c, 13, 11, 110
15, 100978, Control_c, 13, 11, 107
15, 101115, Control_c, 13, 11, 105
15, 101256, Control_c, 13, 11, 102
15, 101332, Control_c, 13, 11, 100
15, 101437, Control_c, 13, 11, 96
15, 101535, Control_c, 13, 11, 94
15, 101611, Control_c, 13, 11, 91
15, 101712, Control_c, 13, 11, 89
15, 101808, Control_c, 13, 11, 86
15, 101908, Control_c, 13, 11, 83
15, 102045, Control_c, 13, 11, 81
15, 102125, Control_c, 13, 11, 78
15, 102202, Control_c, 13, 11, 75
15, 102302, Control_c, 13, 11, 72
15, 102399, Control_c, 13, 11, 69
15, 102464, Control_c, 13, 11, 67
15, 102520, Control_c, 13, 11, 64
15, 102581, Control_c, 13, 11, 62
15, 102620, Control_c, 13, 11, 60
15, 102662, Control_c, 13, 11, 57
15, 102702, Control_c, 13, 11, 55
15, 102797, Control_c, 13, 11, 52
15, 102859, Control_c, 13, 11, 50
15, 102900, Control_c, 13, 11, 47
15, 102939, Control_c, 13, 11, 45
15, 102994, Control_c, 13, 11, 43
15, 103055, Control_c, 13, 11, 40
15, 103092, Control_c, 13, 11, 38
15, 103132, Control_c, 13, 11, 35
15, 103173, Control_c, 13, 11, 33
15, 103218, Control_c, 13, 11, 29
15, 103254, Control_c, 13, 11, 24
15, 103293, Control_c, 13, 11, 19
15, 103329, Control_c, 13, 11, 12
15, 103370, Control_c, 13, 11, 0
15, 103446, Note_off_c, 13, 66, 0
15, 103446, Note_off_c, 13, 59, 0
15, 118300, Note_on_c, 13, 57, 122
15, 118300, Note_on_c, 13, 64, 127
15, 118605, Control_c, 13, 11, 2
15, 118685, Control_c, 13, 11, 5
15, 118726, Control_c, 13, 11, 8
15, 118801, Control_c, 13, 11, 10
15, 118847, Control_c, 13, 11, 12
15, 118882, Control_c, 13, 11, 15
15, 118923, Control_c, 13, 11, 17
15, 119019, Control_c, 13, 11, 19
15, 119100, Control_c, 13, 11, 23
15, 119140, Control_c, 13, 11, 25
15, 119175, Control_c, 13, 11, 27
15, 119220, Control_c, 13, 11, 29
15, 119255, Control_c, 13, 11, 31
15, 119316, Control_c, 13, 11, 33
15, 119372, Control_c, 13, 11, 36
15, 119413, Control_c, 13, 11, 38
15, 119499, Control_c, 13, 11, 40
15, 119594, Control_c, 13, 11, 44
15, 119635, Control_c, 13, 11, 46
15, 119676, Control_c, 13, 11, 48
15, 119716, Control_c, 13, 11, 51
15, 119752, Control_c, 13, 11, 53
15, 119798, Control_c, 13, 11, 55
15, 119858, Control_c, 13, 11, 58
15, 119892, Control_c, 13, 11, 60
15, 119934, Control_c, 13, 11, 62
15, 119974, Control_c, 13, 11, 64
15, 120070, Control_c, 13, 11, 68
15, 120110, Control_c, 13, 11, 70
15, 120151, Control_c, 13, 11, 72
15, 120187, Control_c, 13, 11, 75
15, 120227, Control_c, 13, 11, 77
15, 120268, Control_c, 13, 11, 80
15, 120308, Control_c, 13, 11, 83
15, 120348, Control_c, 13, 11, 86
15, 120383, Control_c, 13, 11, 89
15, 120429, Control_c, 13, 11, 92
15, 120469, Control_c, 13, 11, 95
15, 120505, Control_c, 13, 11, 97
15, 120550, Control_c, 13, 11, 101
15, 120585, Control_c, 13, 11, 106
15, 120626, Control_c, 13, 11, 110
15, 120667, Control_c, 13, 11, 116
15, 120711, Control_c, 13, 11, 123
15, 120742, Control_c, 13, 11, 127
15, 120898, Note_off_c, 13, 57, 0
15, 120975, Note_on_c, 13, 66, 110
15, 120984, Note_on_c, 13, 59, 108
15, 121006, Note_off_c, 13, 64, 0
15, 123467, Control_c, 13, 11, 124
15, 123543, Control_c, 13, 11, 121
15, 123699, Control_c, 13, 11, 118
15, 123801, Control_c, 13, 11, 115
15, 123861, Control_c, 13, 11, 113
15, 123938, Control_c, 13, 11, 110
15, 124018, Control_c, 13, 11, 107
15, 124155, Control_c, 13, 11, 105
15, 124296, Control_c, 13, 11, 102
15, 124372, Control_c, 13, 11, 100
15, 124477, Control_c, 13, 11, 96
15, 124575, Control_c, 13, 11, 94
15, 124651, Control_c, 13, 11, 91
15, 124752, Control_c, 13, 11, 89
15, 124848, Control_c, 13, 11, 86
15, 124948, Control_c, 13, 11, 83
15, 125085, Control_c, 13, 11, 81
15, 125165, Control_c, 13, 11, 78
15, 125242, Control_c, 13, 11, 75
15, 125342, Control_c, 13, 11, 72
15, 125439, Control_c, 13, 11, 69
15, 125504, Control_c, 13, 11, 67
15, 125560, Control_c, 13, 11, 64
15, 125621, Control_c, 13, 11, 62
15, 125660, Control_c, 13, 11, 60
15, 125702, Control_c, 13, 11, 57
15, 125742, Control_c, 13, 11, 55
15, 125837, Control_c, 13, 11, 52
15, 125899, Control_c, 13, 11, 50
15, 125940, Control_c, 13, 11, 47
15, 125979, Control_c, 13, 11, 45
15, 126034, Control_c, 13, 11, 43
15, 126095, Control_c, 13, 11, 40
15, 126132, Control_c, 13, 11, 38
15, 126172, Control_c, 13, 11, 35
15, 126213, Control_c, 13, 11, 33
15, 126258, Control_c, 13, 11, 29
15, 126294, Control_c, 13, 11, 24
15, 126333, Control_c, 13, 11, 19
15, 126369, Control_c, 13, 11, 12
15, 126410, Control_c, 13, 11, 0
15, 126486, Note_off_c, 13, 66, 0
15, 126486, Note_off_c, 13, 59, 0
15, 164175, Note_on_c, 13, 59, 127
15, 164179, Note_on_c, 13, 52, 122
15, 164629, Control_c, 13, 11, 2
15, 164751, Control_c, 13, 11, 5
15, 164825, Control_c, 13, 11, 8
15, 164906, Control_c, 13, 11, 11
15, 165008, Control_c, 13, 11, 14
15, 165083, Control_c, 13, 11, 16
15, 165210, Control_c, 13, 11, 20
15, 165285, Control_c, 13, 11, 22
15, 165418, Control_c, 13, 11, 25
15, 165499, Control_c, 13, 11, 28
15, 165621, Control_c, 13, 11, 30
15, 165717, Control_c, 13, 11, 33
15, 165817, Control_c, 13, 11, 35
15, 165917, Control_c, 13, 11, 38
15, 166160, Control_c, 13, 11, 40
15, 166298, Control_c, 13, 11, 43
15, 166374, Control_c, 13, 11, 45
15, 166596, Control_c, 13, 11, 48
15, 166793, Control_c, 13, 11, 50
15, 166914, Control_c, 13, 11, 53
15, 167029, Control_c, 13, 11, 55
15, 167294, Control_c, 13, 11, 58
15, 167491, Control_c, 13, 11, 60
15, 167688, Control_c, 13, 11, 63
15, 167910, Control_c, 13, 11, 65
15, 168047, Control_c, 13, 11, 68
15, 168265, Control_c, 13, 11, 70
15, 168486, Control_c, 13, 11, 73
15, 168627, Control_c, 13, 11, 75
15, 168886, Control_c, 13, 11, 78
15, 169144, Control_c, 13, 11, 80
15, 169381, Control_c, 13, 11, 83
15, 169584, Control_c, 13, 11, 85
15, 169917, Control_c, 13, 11, 88
15, 170140, Note_on_c, 13, 57, 122
15, 170140, Note_on_c, 13, 64, 127
15, 170200, Control_c, 13, 11, 90
15, 170445, Control_c, 13, 11, 2
15, 170458, Control_c, 13, 11, 93
15, 170525, Control_c, 13, 11, 5
15, 170566, Control_c, 13, 11, 8
15, 170573, Control_c, 13, 11, 95
15, 170641, Control_c, 13, 11, 10
15, 170674, Control_c, 13, 11, 98
15, 170687, Control_c, 13, 11, 12
15, 170722, Control_c, 13, 11, 15
15, 170763, Control_c, 13, 11, 17
15, 170859, Control_c, 13, 11, 19
15, 170878, Control_c, 13, 11, 100
15, 170940, Control_c, 13, 11, 23
15, 170980, Control_c, 13, 11, 25
15, 170994, Control_c, 13, 11, 103
15, 171015, Control_c, 13, 11, 27
15, 171060, Control_c, 13, 11, 29
15, 171095, Control_c, 13, 11, 31
15, 171155, Control_c, 13, 11, 105
15, 171156, Control_c, 13, 11, 33
15, 171212, Control_c, 13, 11, 36
15, 171253, Control_c, 13, 11, 38
15, 171291, Control_c, 13, 11, 109
15, 171339, Control_c, 13, 11, 40
15, 171413, Control_c, 13, 11, 112
15, 171434, Control_c, 13, 11, 44
15, 171475, Control_c, 13, 11, 46
15, 171516, Control_c, 13, 11, 48
15, 171529, Control_c, 13, 11, 114
15, 171556, Control_c, 13, 11, 51
15, 171592, Control_c, 13, 11, 53
15, 171610, Control_c, 13, 11, 117
15, 171638, Control_c, 13, 11, 55
15, 171691, Control_c, 13, 11, 119
15, 171698, Control_c, 13, 11, 58
15, 171732, Control_c, 13, 11, 60
15, 171774, Control_c, 13, 11, 62
15, 171792, Control_c, 13, 11, 122
15, 171814, Control_c, 13, 11, 64
15, 171889, Control_c, 13, 11, 124
15, 171910, Control_c, 13, 11, 68
15, 171950, Control_c, 13, 11, 70
15, 171991, Control_c, 13, 11, 72
15, 172027, Control_c, 13, 11, 75
15, 172034, Control_c, 13, 11, 127
15, 172067, Control_c, 13, 11, 77
15, 172108, Control_c, 13, 11, 80
15, 172148, Control_c, 13, 11, 83
15, 172188, Control_c, 13, 11, 86
15, 172223, Control_c, 13, 11, 89
15, 172269, Control_c, 13, 11, 92
15, 172309, Control_c, 13, 11, 95
15, 172345, Control_c, 13, 11, 97
15, 172390, Control_c, 13, 11, 101
15, 172425, Control_c, 13, 11, 106
15, 172466, Control_c, 13, 11, 110
15, 172507, Control_c, 13, 11, 116
15, 172551, Control_c, 13, 11, 123
15, 172582, Control_c, 13, 11, 127
15, 172688, Note_off_c, 13, 59, 0
15, 172688, Note_off_c, 13, 52, 0
15, 172738, Note_off_c, 13, 57, 0
15, 172815, Note_on_c, 13, 66, 110
15, 172824, Note_on_c, 13, 59, 108
15, 172846, Note_off_c, 13, 64, 0
15, 175307, Control_c, 13, 11, 124
15, 175383, Control_c, 13, 11, 121
15, 175539, Control_c, 13, 11, 118
15, 175641, Control_c, 13, 11, 115
15, 175701, Control_c, 13, 11, 113
15, 175778, Control_c, 13, 11, 110
15, 175858, Control_c, 13, 11, 107
15, 175995, Control_c, 13, 11, 105
15, 176136, Control_c, 13, 11, 102
15, 176212, Control_c, 13, 11, 100
15, 176317, Control_c, 13, 11, 96
15, 176415, Control_c, 13, 11, 94
15, 176491, Control_c, 13, 11, 91
15, 176592, Control_c, 13, 11, 89
15, 176688, Control_c, 13, 11, 86
15, 176788, Control_c, 13, 11, 83
15, 176925, Control_c, 13, 11, 81
15, 177005, Control_c, 13, 11, 78
15, 177082, Control_c, 13, 11, 75
15, 177182, Control_c, 13, 11, 72
15, 177279, Control_c, 13, 11, 69
15, 177344, Control_c, 13, 11, 67
15, 177400, Control_c, 13, 11, 64
15, 177461, Control_c, 13, 11, 62
15, 177500, Control_c, 13, 11, 60
15, 177542, Control_c, 13, 11, 57
15, 177582, Control_c, 13, 11, 55
15, 177677, Control_c, 13, 11, 52
15, 177739, Control_c, 13, 11, 50
15, 177780, Control_c, 13, 11, 47
15, 177819, Control_c, 13, 11, 45
15, 177874, Control_c, 13, 11, 43
15, 177935, Control_c, 13, 11, 40
15, 177972, Control_c, 13, 11, 38
15, 178012, Control_c, 13, 11, 35
15, 178053, Control_c, 13, 11, 33
15, 178098, Control_c, 13, 11, 29
15, 178134, Control_c, 13, 11, 24
15, 178173, Control_c, 13, 11, 19
15, 178209, Control_c, 13, 11, 12
15, 178250, Control_c, 13, 11, 0
15, 178326, Note_off_c, 13, 66, 0
15, 178326, Note_off_c, 13, 59, 0
15, 193180, Note_on_c, 13, 57, 122
15, 193180, Note_on_c, 13, 64, 127
15, 193485, Control_c, 13, 11, 2
15, 193565, Control_c, 13, 11, 5
15, 193606, Control_c, 13, 11, 8
15, 193681, Control_c, 13, 11, 10
15, 193727, Control_c, 13, 11, 12
15, 193762, Control_c, 13, 11, 15
15, 193803, Control_c, 13, 11, 17
15, 193899, Control_c, 13, 11, 19
15, 193980, Control_c, 13, 11, 23
15, 194020, Control_c, 13, 11, 25
15, 194055, Control_c, 13, 11, 27
15, 194100, Control_c, 13, 11, 29
15, 194135, Control_c, 13, 11, 31
15, 194196, Control_c, 13, 11, 33
15, 194252, Control_c, 13, 11, 36
15, 194293, Control_c, 13, 11, 38
15, 194379, Control_c, 13, 11, 40
15, 194474, Control_c, 13, 11, 44
15, 194515, Control_c, 13, 11, 46
15, 194556, Control_c, 13, 11, 48
15, 194596, Control_c, 13, 11, 51
15, 194632, Control_c, 13, 11, 53
15, 194678, Control_c, 13, 11, 55
15, 194738, Control_c, 13, 11, 58
15, 194772, Control_c, 13, 11, 60
15, 194814, Control_c, 13, 11, 62
15, 194854, Control_c, 13, 11, 64
15, 194950, Control_c, 13, 11, 68
15, 194990, Control_c, 13, 11, 70
15, 195031, Control_c, 13, 11, 72
15, 195067, Control_c, 13, 11, 75
15, 195107, Control_c, 13, 11, 77
15, 195148, Control_c, 13, 11, 80
15, 195188, Control_c, 13, 11, 83
15, 195228, Control_c, 13, 11, 86
15, 195263, Control_c, 13, 11, 89
15, 195309, Control_c, 13, 11, 92
15, 195349, Control_c, 13, 11, 95
15, 195385, Control_c, 13, 11, 97
15, 195430, Control_c, 13, 11, 101
15, 195465, Control_c, 13, 11, 106
15, 195506, Control_c, 13, 11, 110
15, 195547, Control_c, 13, 11, 116
15, 195591, Control_c, 13, 11, 123
15, 195622, Control_c, 13, 11, 127
15, 195778, Note_off_c, 13, 57, 0
15, 195855, Note_on_c, 13, 66, 110
15, 195864, Note_on_c, 13, 59, 108
15, 195886, Note_off_c, 13, 64, 0
15, 198347, Control_c, 13, 11, 124
15, 198423, Control_c, 13, 11, 121
15, 198579, Control_c, 13, 11, 118
15, 198681, Control_c, 13, 11, 115
15, 198741, Control_c, 13, 11, 113
15, 198818, Control_c, 13, 11, 110
15, 198898, Control_c, 13, 11, 107
15, 199035, Control_c, 13, 11, 105
15, 199176, Control_c, 13, 11, 102
15, 199252, Control_c, 13, 11, 100
15, 199357, Control_c, 13, 11, 96
15, 199455, Control_c, 13, 11, 94
15, 199531, Control_c, 13, 11, 91
15, 199632, Control_c, 13, 11, 89
15, 199728, Control_c, 13, 11, 86
15, 199828, Control_c, 13, 11, 83
15, 199965, Control_c, 13, 11, 81
15, 200045, Control_c, 13, 11, 78
15, 200122, Control_c, 13, 11, 75
15, 200222, Control_c, 13, 11, 72
15, 200319, Control_c, 13, 11, 69
15, 200384, Control_c, 13, 11, 67
15, 200440, Control_c, 13, 11, 64
15, 200501, Control_c, 13, 11, 62
15, 200540, Control_c, 13, 11, 60
15, 200582, Control_c, 13, 11, 57
15, 200622, Control_c, 13, 11, 55
15, 200717, Control_c, 13, 11, 52
15, 200779, Control_c, 13, 11, 50
15, 200820, Control_c, 13, 11, 47
15, 200859, Control_c, 13, 11, 45
15, 200914, Control_c, 13, 11, 43
15, 200975, Control_c, 13, 11, 40
15, 201012, Control_c, 13, 11, 38
15, 201052, Control_c, 13, 11, 35
15, 201093, Control_c, 13, 11, 33
15, 201138, Control_c, 13, 11, 29
15, 201174, Control_c, 13, 11, 24
15, 201213, Control_c, 13, 11, 19
15, 201249, Control_c, 13, 11, 12
15, 201290, Control_c, 13, 11, 0
15, 201366, Note_off_c, 13, 66, 0
15, 201366, Note_off_c, 13, 59, 0
15, 216220, Note_on_c, 13, 57, 122
15, 216220, Note_on_c, 13, 64, 127
15, 216525, Control_c, 13, 11, 2
15, 216605, Control_c, 13, 11, 5
15, 216646, Control_c, 13, 11, 8
15, 216721, Control_c, 13, 11, 10
15, 216767, Control_c, 13, 11, 12
15, 216802, Control_c, 13, 11, 15
15, 216843, Control_c, 13, 11, 17
15, 216939, Control_c, 13, 11, 19
15, 217020, Control_c, 13, 11, 23
15, 217060, Control_c, 13, 11, 25
15, 217095, Control_c, 13, 11, 27
15, 217140, Control_c, 13, 11, 29
15, 217175, Control_c, 13, 11, 31
15, 217236, Control_c, 13, 11, 33
15, 217292, Control_c, 13, 11, 36
15, 217333, Control_c, 13, 11, 38
15, 217419, Control_c, 13, 11, 40
15, 217514, Control_c, 13, 11, 44
15, 217555, Control_c, 13, 11, 46
15, 217596, Control_c, 13, 11, 48
15, 217636, Control_c, 13, 11, 51
15, 217672, Control_c, 13, 11, 53
15, 217718, Control_c, 13, 11, 55
15, 217778, Control_c, 13, 11, 58
15, 217812, Control_c, 13, 11, 60
15, 217854, Control_c, 13, 11, 62
15, 217894, Control_c, 13, 11, 64
15, 217990, Control_c, 13, 11, 68
15, 218030, Control_c, 13, 11, 70
15, 218071, Control_c, 13, 11, 72
15, 218107, Control_c, 13, 11, 75
15, 218147, Control_c, 13, 11, 77
15, 218188, Control_c, 13, 11, 80
15, 218228, Control_c, 13, 11, 83
15, 218268, Control_c, 13, 11, 86
15, 218303, Control_c, 13, 11, 89
15, 218349, Control_c, 13, 11, 92
15, 218389, Control_c, 13, 11, 95
15, 218425, Control_c, 13, 11, 97
15, 218470, Control_c, 13, 11, 101
15, 218505, Control_c, 13, 11, 106
15, 218546, Control_c, 13, 11, 110
15, 218587, Control_c, 13, 11, 116
15, 218631, Control_c, 13, 11, 123
15, 218662, Control_c, 13, 11, 127
15, 218818, Note_off_c, 13, 57, 0
15, 218895, Note_on_c, 13, 66, 110
15, 218904, Note_on_c, 13, 59, 108
15, 218926, Note_off_c, 13, 64, 0
15, 221387, Control_c, 13, 11, 124
15, 221463, Control_c, 13, 11, 121
15, 221619, Control_c, 13, 11, 118
15, 221721, Control_c, 13, 11, 115
15, 221781, Control_c, 13, 11, 113
15, 221858, Control_c, 13, 11, 110
15, 221938, Control_c, 13, 11, 107
15, 222075, Control_c, 13, 11, 105
15, 222216, Control_c, 13, 11, 102
15, 222292, Control_c, 13, 11, 100
15, 222397, Control_c, 13, 11, 96
15, 222495, Control_c, 13, 11, 94
15, 222571, Control_c, 13, 11, 91
15, 222672, Control_c, 13, 11, 89
15, 222768, Control_c, 13, 11, 86
15, 222868, Control_c, 13, 11, 83
15, 223005, Control_c, 13, 11, 81
15, 223085, Control_c, 13, 11, 78
15, 223162, Control_c, 13, 11, 75
15, 223262, Control_c, 13, 11, 72
15, 223359, Control_c, 13, 11, 69
15, 223424, Control_c, 13, 11, 67
15, 223480, Control_c, 13, 11, 64
15, 223541, Control_c, 13, 11, 62
15, 223580, Control_c, 13, 11, 60
15, 223622, Control_c, 13, 11, 57
15, 223662, Control_c, 13, 11, 55
15, 223757, Control_c, 13, 11, 52
15, 223819, Control_c, 13, 11, 50
15, 223860, Control_c, 13, 11, 47
15, 223899, Control_c, 13, 11, 45
15, 223954, Control_c, 13, 11, 43
15, 224015, Control_c, 13, 11, 40
15, 224052, Control_c, 13, 11, 38
15, 224092, Control_c, 13, 11, 35
15, 224133, Control_c, 13, 11, 33
15, 224178, Control_c, 13, 11, 29
15, 224214, Control_c, 13, 11, 24
15, 224253, Control_c, 13, 11, 19
15, 224289, Control_c, 13, 11, 12
15, 224330, Control_c, 13, 11, 0
15, 224406, Note_off_c, 13, 66, 0
15, 224406, Note_off_c, 13, 59, 0
15, 238497, Control_c, 13, 11, 116
15, 238537, Control_c, 13, 11, 101
15, 238578, Control_c, 13, 11, 92
15, 238613, Control_c, 13, 11, 89
15, 238659, Control_c, 13, 11, 102
15, 238694, Control_c, 13, 11, 127
15, 240433, Note_on_c, 13, 43, 113
15, 240438, Note_on_c, 13, 50, 127
15, 241141, Note_off_c, 13, 43, 0
15, 241196, Note_on_c, 13, 52, 122
15, 241206, Note_on_c, 13, 45, 113
15, 241251, Note_off_c, 13, 50, 0
15, 241914, Note_off_c, 13, 45, 0
15, 241920, Note_off_c, 13, 52, 0
15, 241935, Note_on_c, 13, 66, 110
15, 241944, Note_on_c, 13, 59, 108
15, 244427, Control_c, 13, 11, 124
15, 244503, Control_c, 13, 11, 121
15, 244659, Control_c, 13, 11, 118
15, 244761, Control_c, 13, 11, 115
15, 244821, Control_c, 13, 11, 113
15, 244898, Control_c, 13, 11, 110
15, 244978, Control_c, 13, 11, 107
15, 245115, Control_c, 13, 11, 105
15, 245256, Control_c, 13, 11, 102
15, 245332, Control_c, 13, 11, 100
15, 245437, Control_c, 13, 11, 96
15, 245535, Control_c, 13, 11, 94
15, 245611, Control_c, 13, 11, 91
15, 245712, Control_c, 13, 11, 89
15, 245808, Control_c, 13, 11, 86
15, 245908, Control_c, 13, 11, 83
15, 246045, Control_c, 13, 11, 81
15, 246125, Control_c, 13, 11, 78
15, 246202, Control_c, 13, 11, 75
15, 246302, Control_c, 13, 11, 72
15, 246399, Control_c, 13, 11, 69
15, 246464, Control_c, 13, 11, 67
15, 246520, Control_c, 13, 11, 64
15, 246581, Control_c, 13, 11, 62
15, 246620, Control_c, 13, 11, 60
15, 246662, Control_c, 13, 11, 57
15, 246702, Control_c, 13, 11, 55
15, 246797, Control_c, 13, 11, 52
15, 246859, Control_c, 13, 11, 50
15, 246900, Control_c, 13, 11, 47
15, 246939, Control_c, 13, 11, 45
15, 246994, Control_c, 13, 11, 43
15, 247055, Control_c, 13, 11, 40
15, 247092, Control_c, 13, 11, 38
15, 247132, Control_c, 13, 11, 35
15, 247173, Control_c, 13, 11, 33
15, 247218, Control_c, 13, 11, 29
15, 247254, Control_c, 13, 11, 24
15, 247293, Control_c, 13, 11, 19
15, 247329, Control_c, 13, 11, 12
15, 247370, Control_c, 13, 11, 0
15, 247446, Note_off_c, 13, 66, 0
15, 247446, Note_off_c, 13, 59, 0
15, 261537, Control_c, 13, 11, 116
15, 261577, Control_c, 13, 11, 101
15, 261618, Control_c, 13, 11, 92
15, 261653, Control_c, 13, 11, 89
15, 261699, Control_c, 13, 11, 102
15, 261734, Control_c, 13, 11, 127
15, 263473, Note_on_c, 13, 43, 113
15, 263478, Note_on_c, 13, 50, 127
15, 264181, Note_off_c, 13, 43, 0
15, 264236, Note_on_c, 13, 52, 122
15, 264246, Note_on_c, 13, 45, 113
15, 264291, Note_off_c, 13, 50, 0
15, 264954, Note_off_c, 13, 45, 0
15, 264960, Note_off_c, 13, 52, 0
15, 264975, Note_on_c, 13, 66, 110
15, 264984, Note_on_c, 13, 59, 108
15, 267467, Control_c, 13, 11, 124
15, 267543, Control_c, 13, 11, 121
15, 267699, Control_c, 13, 11, 118
15, 267801, Control_c, 13, 11, 115
15, 267861, Control_c, 13, 11, 113
15, 267938, Control_c, 13, 11, 110
15, 268018, Control_c, 13, 11, 107
15, 268155, Control_c, 13, 11, 105
15, 268296, Control_c, 13, 11, 102
15, 268372, Control_c, 13, 11, 100
15, 268477, Control_c, 13, 11, 96
15, 268575, Control_c, 13, 11, 94
15, 268651, Control_c, 13, 11, 91
15, 268752, Control_c, 13, 11, 89
15, 268848, Control_c, 13, 11, 86
15, 268948, Control_c, 13, 11, 83
15, 269085, Control_c, 13, 11, 81
15, 269165, Control_c, 13, 11, 78
15, 269242, Control_c, 13, 11, 75
15, 269342, Control_c, 13, 11, 72
15, 269439, Control_c, 13, 11, 69
15, 269504, Control_c, 13, 11, 67
15, 269560, Control_c, 13, 11, 64
15, 269621, Control_c, 13, 11, 62
15, 269660, Control_c, 13, 11, 60
15, 269702, Control_c, 13, 11, 57
15, 269742, Control_c, 13, 11, 55
15, 269837, Control_c, 13, 11, 52
15, 269899, Control_c, 13, 11, 50
15, 269940, Control_c, 13, 11, 47
15, 269979, Control_c, 13, 11, 45
15, 270034, Control_c, 13, 11, 43
15, 270095, Control_c, 13, 11, 40
15, 270132, Control_c, 13, 11, 38
15, 270172, Control_c, 13, 11, 35
15, 270213, Control_c, 13, 11, 33
15, 270258, Control_c, 13, 11, 29
15, 270294, Control_c, 13, 11, 24
15, 270333, Control_c, 13, 11, 19
15, 270369, Control_c, 13, 11, 12
15, 270410, Control_c, 13, 11, 0
15, 270486, Note_off_c, 13, 66, 0
15, 270486, Note_off_c, 13, 59, 0
15, 284577, Control_c, 13, 11, 116
15, 284617, Control_c, 13, 11, 101
15, 284658, Control_c, 13, 11, 92
15, 284693, Control_c, 13, 11, 89
15, 284739, Control_c, 13, 11, 102
15, 284774, Control_c, 13, 11, 127
15, 286513, Note_on_c, 13, 43, 113
15, 286518, Note_on_c, 13, 50, 127
15, 287821, Note_off_c, 13, 43, 0
15, 287931, Note_off_c, 13, 50, 0
15, 288015, Note_on_c, 13, 66, 110
15, 288024, Note_on_c, 13, 59, 108
15, 290507, Control_c, 13, 11, 124
15, 290583, Control_c, 13, 11, 121
15, 290739, Control_c, 13, 11, 118
15, 290841, Control_c, 13, 11, 115
15, 290901, Control_c, 13, 11, 113
15, 290978, Control_c, 13, 11, 110
15, 291058, Control_c, 13, 11, 107
15, 291195, Control_c, 13, 11, 105
15, 291336, Control_c, 13, 11, 102
15, 291412, Control_c, 13, 11, 100
15, 291517, Control_c, 13, 11, 96
15, 291615, Control_c, 13, 11, 94
15, 291691, Control_c, 13, 11, 91
15, 291792, Control_c, 13, 11, 89
15, 291888, Control_c, 13, 11, 86
15, 291988, Control_c, 13, 11, 83
15, 292125, Control_c, 13, 11, 81
15, 292205, Control_c, 13, 11, 78
15, 292282, Control_c, 13, 11, 75
15, 292382, Control_c, 13, 11, 72
15, 292479, Control_c, 13, 11, 69
15, 292544, Control_c, 13, 11, 67
15, 292600, Control_c, 13, 11, 64
15, 292661, Control_c, 13, 11, 62
15, 292700, Control_c, 13, 11, 60
15, 292742, Control_c, 13, 11, 57
15, 292782, Control_c, 13, 11, 55
15, 292877, Control_c, 13, 11, 52
15, 292939, Control_c, 13, 11, 50
15, 292980, Control_c, 13, 11, 47
15, 293019, Control_c, 13, 11, 45
15, 293074, Control_c, 13, 11, 43
15, 293135, Control_c, 13, 11, 40
15, 293172, Control_c, 13, 11, 38
15, 293212, Control_c, 13, 11, 35
15, 293253, Control_c, 13, 11, 33
15, 293298, Control_c, 13, 11, 29
15, 293334, Control_c, 13, 11, 24
15, 293373, Control_c, 13, 11, 19
15, 293409, Control_c, 13, 11, 12
15, 293450, Control_c, 13, 11, 0
15, 293526, Note_off_c, 13, 66, 0
15, 293526, Note_off_c, 13, 59, 0
15, 311031, Control_c, 13, 7, 78
15, 311031, End_track
16, 0, Start_track
16, 0, Title_t, "\000"
16, 0, Control_c, 14, 0, 9
16, 0, Program_c, 14, 27
16, 0, Control_c, 14, 7, 79
16, 0, Control_c, 14, 10, 64
16, 0, Control_c, 14, 91, 127
16, 0, Control_c, 14, 93, 50
16, 1070, Control_c, 14, 11, 127
16, 3709, Control_c, 14, 101, 0
16, 3711, Control_c, 14, 100, 0
16, 3714, Control_c, 14, 6, 2
16, 3716, Control_c, 14, 101, 127
16, 3719, Control_c, 14, 100, 127
16, 4871, Control_c, 14, 94, 0
16, 99104, Note_on_c, 14, 63, 127
16, 99110, Note_on_c, 14, 59, 127
16, 99115, Note_on_c, 14, 61, 127
16, 99115, Note_on_c, 14, 66, 127
16, 100813, Note_off_c, 14, 66, 0
16, 100818, Note_off_c, 14, 59, 0
16, 100818, Note_off_c, 14, 61, 0
16, 100823, Note_off_c, 14, 63, 0
16, 101969, Note_on_c, 14, 62, 127
16, 101975, Note_on_c, 14, 66, 110
16, 101981, Note_on_c, 14, 59, 127
16, 101986, Note_on_c, 14, 57, 127
16, 103639, Note_off_c, 14, 62, 0
16, 103639, Note_off_c, 14, 59, 0
16, 103643, Note_off_c, 14, 57, 0
16, 103649, Note_off_c, 14, 66, 0
16, 104888, Note_on_c, 14, 61, 127
16, 104891, Note_on_c, 14, 57, 127
16, 104903, Note_on_c, 14, 59, 127
16, 104903, Note_on_c, 14, 64, 127
16, 106535, Note_off_c, 14, 57, 0
16, 106535, Note_off_c, 14, 59, 0
16, 106544, Note_off_c, 14, 64, 0
16, 106556, Note_off_c, 14, 61, 0
16, 107778, Note_on_c, 14, 63, 127
16, 107784, Note_on_c, 14, 66, 110
16, 107789, Note_on_c, 14, 59, 127
16, 107789, Note_on_c, 14, 61, 127
16, 109412, Note_off_c, 14, 66, 0
16, 109412, Note_off_c, 14, 61, 0
16, 109417, Note_off_c, 14, 63, 0
16, 109422, Note_off_c, 14, 59, 0
16, 110644, Note_on_c, 14, 61, 127
16, 110650, Note_on_c, 14, 63, 127
16, 110655, Note_on_c, 14, 59, 127
16, 110655, Note_on_c, 14, 66, 110
16, 112322, Note_off_c, 14, 66, 0
16, 112328, Note_off_c, 14, 61, 0
16, 112334, Note_off_c, 14, 63, 0
16, 112334, Note_off_c, 14, 59, 0
16, 113527, Note_on_c, 14, 62, 127
16, 113532, Note_on_c, 14, 59, 127
16, 113532, Note_on_c, 14, 66, 110
16, 113536, Note_on_c, 14, 57, 127
16, 115165, Note_off_c, 14, 59, 0
16, 115174, Note_off_c, 14, 62, 0
16, 115179, Note_off_c, 14, 66, 0
16, 115179, Note_off_c, 14, 57, 0
16, 116398, Note_on_c, 14, 61, 110
16, 116403, Note_on_c, 14, 57, 122
16, 116413, Note_on_c, 14, 59, 127
16, 116413, Note_on_c, 14, 64, 127
16, 118087, Note_off_c, 14, 59, 0
16, 118097, Note_off_c, 14, 57, 0
16, 118102, Note_off_c, 14, 61, 0
16, 118102, Note_off_c, 14, 64, 0
16, 119280, Note_on_c, 14, 61, 110
16, 119280, Note_on_c, 14, 63, 110
16, 119285, Note_on_c, 14, 66, 104
16, 119290, Note_on_c, 14, 59, 127
16, 120817, Note_off_c, 14, 61, 0
16, 120817, Note_off_c, 14, 63, 0
16, 120822, Note_off_c, 14, 66, 0
16, 120822, Note_off_c, 14, 59, 0
16, 122144, Note_on_c, 14, 63, 127
16, 122150, Note_on_c, 14, 59, 127
16, 122155, Note_on_c, 14, 61, 127
16, 122155, Note_on_c, 14, 66, 127
16, 123853, Note_off_c, 14, 66, 0
16, 123858, Note_off_c, 14, 59, 0
16, 123858, Note_off_c, 14, 61, 0
16, 123863, Note_off_c, 14, 63, 0
16, 125009, Note_on_c, 14, 62, 127
16, 125015, Note_on_c, 14, 66, 110
16, 125021, Note_on_c, 14, 59, 127
16, 125026, Note_on_c, 14, 57, 127
16, 126679, Note_off_c, 14, 62, 0
16, 126679, Note_off_c, 14, 59, 0
16, 126683, Note_off_c, 14, 57, 0
16, 126689, Note_off_c, 14, 66, 0
16, 127928, Note_on_c, 14, 61, 127
16, 127931, Note_on_c, 14, 57, 127
16, 127943, Note_on_c, 14, 59, 127
16, 127943, Note_on_c, 14, 64, 127
16, 129575, Note_off_c, 14, 57, 0
16, 129575, Note_off_c, 14, 59, 0
16, 129584, Note_off_c, 14, 64, 0
16, 129596, Note_off_c, 14, 61, 0
16, 130818, Note_on_c, 14, 63, 127
16, 130824, Note_on_c, 14, 66, 110
16, 130829, Note_on_c, 14, 59, 127
16, 130829, Note_on_c, 14, 61, 127
16, 132452, Note_off_c, 14, 66, 0
16, 132452, Note_off_c, 14, 61, 0
16, 132457, Note_off_c, 14, 63, 0
16, 132462, Note_off_c, 14, 59, 0
16, 133684, Note_on_c, 14, 61, 127
16, 133690, Note_on_c, 14, 63, 127
16, 133695, Note_on_c, 14, 59, 127
16, 133695, Note_on_c, 14, 66, 110
16, 135362, Note_off_c, 14, 66, 0
16, 135368, Note_off_c, 14, 61, 0
16, 135374, Note_off_c, 14, 63, 0
16, 135374, Note_off_c, 14, 59, 0
16, 136567, Note_on_c, 14, 62, 127
16, 136572, Note_on_c, 14, 59, 127
16, 136572, Note_on_c, 14, 66, 110
16, 136576, Note_on_c, 14, 57, 127
16, 138205, Note_off_c, 14, 59, 0
16, 138214, Note_off_c, 14, 62, 0
16, 138219, Note_off_c, 14, 66, 0
16, 138219, Note_off_c, 14, 57, 0
16, 139438, Note_on_c, 14, 61, 110
16, 139443, Note_on_c, 14, 57, 122
16, 139453, Note_on_c, 14, 59, 127
16, 139453, Note_on_c, 14, 64, 127
16, 141127, Note_off_c, 14, 59, 0
16, 141137, Note_off_c, 14, 57, 0
16, 141142, Note_off_c, 14, 61, 0
16, 141142, Note_off_c, 14, 64, 0
16, 142320, Note_on_c, 14, 61, 110
16, 142320, Note_on_c, 14, 63, 110
16, 142325, Note_on_c, 14, 66, 104
16, 142330, Note_on_c, 14, 59, 127
16, 143756, Note_on_c, 14, 63, 127
16, 143766, Note_on_c, 14, 66, 110
16, 143770, Note_on_c, 14, 61, 127
16, 143775, Note_on_c, 14, 59, 127
16, 143857, Note_off_c, 14, 61, 0
16, 143857, Note_off_c, 14, 63, 0
16, 143862, Note_off_c, 14, 66, 0
16, 143862, Note_off_c, 14, 59, 0
16, 146648, Note_off_c, 14, 63, 0
16, 146648, Note_off_c, 14, 66, 0
16, 146648, Note_off_c, 14, 61, 0
16, 146648, Note_off_c, 14, 59, 0
16, 146652, Note_on_c, 14, 62, 127
16, 146658, Note_on_c, 14, 59, 127
16, 146667, Note_on_c, 14, 55, 127
16, 146667, Note_on_c, 14, 66, 110
16, 149490, Note_off_c, 14, 62, 0
16, 149490, Note_off_c, 14, 59, 0
16, 149490, Note_off_c, 14, 55, 0
16, 149490, Note_off_c, 14, 66, 0
16, 149494, Note_on_c, 14, 64, 117
16, 149504, Note_on_c, 14, 59, 122
16, 149509, Note_on_c, 14, 57, 127
16, 149509, Note_on_c, 14, 66, 100
16, 152356, Note_off_c, 14, 64, 0
16, 152356, Note_off_c, 14, 59, 0
16, 152356, Note_off_c, 14, 57, 0
16, 152356, Note_off_c, 14, 66, 0
16, 152360, Note_on_c, 14, 61, 127
16, 152365, Note_on_c, 14, 64, 127
16, 152369, Note_on_c, 14, 59, 127
16, 152374, Note_on_c, 14, 57, 117
16, 153803, Note_on_c, 14, 68, 127
16, 154781, Note_off_c, 14, 64, 0
16, 154781, Note_off_c, 14, 59, 0
16, 154791, Note_off_c, 14, 61, 0
16, 154791, Note_off_c, 14, 57, 0
16, 154809, Note_on_c, 14, 66, 127
16, 154835, Note_off_c, 14, 68, 0
16, 155264, Note_on_c, 14, 59, 127
16, 155269, Note_on_c, 14, 66, 127
16, 155273, Note_on_c, 14, 63, 110
16, 155441, Note_off_c, 14, 66, 0
16, 156670, Note_off_c, 14, 59, 0
16, 156670, Note_off_c, 14, 66, 0
16, 156670, Note_off_c, 14, 63, 0
16, 156674, Note_on_c, 14, 66, 110
16, 156680, Note_on_c, 14, 71, 127
16, 156689, Note_on_c, 14, 59, 117
16, 156689, Note_on_c, 14, 63, 110
16, 158131, Note_off_c, 14, 66, 0
16, 158131, Note_off_c, 14, 71, 0
16, 158131, Note_off_c, 14, 59, 0
16, 158131, Note_off_c, 14, 63, 0
16, 158135, Note_on_c, 14, 67, 113
16, 158141, Note_on_c, 14, 69, 122
16, 158144, Note_on_c, 14, 62, 122
16, 161028, Note_off_c, 14, 67, 0
16, 161028, Note_off_c, 14, 69, 0
16, 161028, Note_off_c, 14, 62, 0
16, 161032, Note_on_c, 14, 71, 122
16, 161041, Note_on_c, 14, 64, 127
16, 161041, Note_on_c, 14, 68, 110
16, 161047, Note_on_c, 14, 66, 110
16, 166263, Note_off_c, 14, 64, 0
16, 166270, Note_off_c, 14, 71, 0
16, 166270, Note_off_c, 14, 66, 0
16, 166275, Note_off_c, 14, 68, 0
16, 173984, Note_on_c, 14, 63, 127
16, 173990, Note_on_c, 14, 59, 127
16, 173995, Note_on_c, 14, 61, 127
16, 173995, Note_on_c, 14, 66, 127
16, 175693, Note_off_c, 14, 66, 0
16, 175698, Note_off_c, 14, 59, 0
16, 175698, Note_off_c, 14, 61, 0
16, 175703, Note_off_c, 14, 63, 0
16, 176849, Note_on_c, 14, 62, 127
16, 176855, Note_on_c, 14, 66, 110
16, 176861, Note_on_c, 14, 59, 127
16, 176866, Note_on_c, 14, 57, 127
16, 178519, Note_off_c, 14, 62, 0
16, 178519, Note_off_c, 14, 59, 0
16, 178523, Note_off_c, 14, 57, 0
16, 178529, Note_off_c, 14, 66, 0
16, 179768, Note_on_c, 14, 61, 127
16, 179771, Note_on_c, 14, 57, 127
16, 179783, Note_on_c, 14, 59, 127
16, 179783, Note_on_c, 14, 64, 127
16, 181415, Note_off_c, 14, 57, 0
16, 181415, Note_off_c, 14, 59, 0
16, 181424, Note_off_c, 14, 64, 0
16, 181436, Note_off_c, 14, 61, 0
16, 182658, Note_on_c, 14, 63, 127
16, 182664, Note_on_c, 14, 66, 110
16, 182669, Note_on_c, 14, 59, 127
16, 182669, Note_on_c, 14, 61, 127
16, 184292, Note_off_c, 14, 66, 0
16, 184292, Note_off_c, 14, 61, 0
16, 184297, Note_off_c, 14, 63, 0
16, 184302, Note_off_c, 14, 59, 0
16, 185524, Note_on_c, 14, 61, 127
16, 185530, Note_on_c, 14, 63, 127
16, 185535, Note_on_c, 14, 59, 127
16, 185535, Note_on_c, 14, 66, 110
16, 187202, Note_off_c, 14, 66, 0
16, 187208, Note_off_c, 14, 61, 0
16, 187214, Note_off_c, 14, 63, 0
16, 187214, Note_off_c, 14, 59, 0
16, 188407, Note_on_c, 14, 62, 127
16, 188412, Note_on_c, 14, 59, 127
16, 188412, Note_on_c, 14, 66, 110
16, 188416, Note_on_c, 14, 57, 127
16, 190045, Note_off_c, 14, 59, 0
16, 190054, Note_off_c, 14, 62, 0
16, 190059, Note_off_c, 14, 66, 0
16, 190059, Note_off_c, 14, 57, 0
16, 191278, Note_on_c, 14, 61, 110
16, 191283, Note_on_c, 14, 57, 122
16, 191293, Note_on_c, 14, 59, 127
16, 191293, Note_on_c, 14, 64, 127
16, 192967, Note_off_c, 14, 59, 0
16, 192977, Note_off_c, 14, 57, 0
16, 192982, Note_off_c, 14, 61, 0
16, 192982, Note_off_c, 14, 64, 0
16, 194160, Note_on_c, 14, 61, 110
16, 194160, Note_on_c, 14, 63, 110
16, 194165, Note_on_c, 14, 66, 104
16, 194170, Note_on_c, 14, 59, 127
16, 195697, Note_off_c, 14, 61, 0
16, 195697, Note_off_c, 14, 63, 0
16, 195702, Note_off_c, 14, 66, 0
16, 195702, Note_off_c, 14, 59, 0
16, 197024, Note_on_c, 14, 63, 127
16, 197030, Note_on_c, 14, 59, 127
16, 197035, Note_on_c, 14, 61, 127
16, 197035, Note_on_c, 14, 66, 127
16, 198733, Note_off_c, 14, 66, 0
16, 198738, Note_off_c, 14, 59, 0
16, 198738, Note_off_c, 14, 61, 0
16, 198743, Note_off_c, 14, 63, 0
16, 199889, Note_on_c, 14, 62, 127
16, 199895, Note_on_c, 14, 66, 110
16, 199901, Note_on_c, 14, 59, 127
16, 199906, Note_on_c, 14, 57, 127
16, 201559, Note_off_c, 14, 62, 0
16, 201559, Note_off_c, 14, 59, 0
16, 201563, Note_off_c, 14, 57, 0
16, 201569, Note_off_c, 14, 66, 0
16, 202808, Note_on_c, 14, 61, 127
16, 202811, Note_on_c, 14, 57, 127
16, 202823, Note_on_c, 14, 59, 127
16, 202823, Note_on_c, 14, 64, 127
16, 204455, Note_off_c, 14, 57, 0
16, 204455, Note_off_c, 14, 59, 0
16, 204464, Note_off_c, 14, 64, 0
16, 204476, Note_off_c, 14, 61, 0
16, 205698, Note_on_c, 14, 63, 127
16, 205704, Note_on_c, 14, 66, 110
16, 205709, Note_on_c, 14, 59, 127
16, 205709, Note_on_c, 14, 61, 127
16, 207332, Note_off_c, 14, 66, 0
16, 207332, Note_off_c, 14, 61, 0
16, 207337, Note_off_c, 14, 63, 0
16, 207342, Note_off_c, 14, 59, 0
16, 208564, Note_on_c, 14, 61, 127
16, 208570, Note_on_c, 14, 63, 127
16, 208575, Note_on_c, 14, 59, 127
16, 208575, Note_on_c, 14, 66, 110
16, 210242, Note_off_c, 14, 66, 0
16, 210248, Note_off_c, 14, 61, 0
16, 210254, Note_off_c, 14, 63, 0
16, 210254, Note_off_c, 14, 59, 0
16, 211447, Note_on_c, 14, 62, 127
16, 211452, Note_on_c, 14, 59, 127
16, 211452, Note_on_c, 14, 66, 110
16, 211456, Note_on_c, 14, 57, 127
16, 213085, Note_off_c, 14, 59, 0
16, 213094, Note_off_c, 14, 62, 0
16, 213099, Note_off_c, 14, 66, 0
16, 213099, Note_off_c, 14, 57, 0
16, 214318, Note_on_c, 14, 61, 110
16, 214323, Note_on_c, 14, 57, 122
16, 214333, Note_on_c, 14, 59, 127
16, 214333, Note_on_c, 14, 64, 127
16, 216007, Note_off_c, 14, 59, 0
16, 216017, Note_off_c, 14, 57, 0
16, 216022, Note_off_c, 14, 61, 0
16, 216022, Note_off_c, 14, 64, 0
16, 217200, Note_on_c, 14, 61, 110
16, 217200, Note_on_c, 14, 63, 110
16, 217205, Note_on_c, 14, 66, 104
16, 217210, Note_on_c, 14, 59, 127
16, 218737, Note_off_c, 14, 61, 0
16, 218737, Note_off_c, 14, 63, 0
16, 218742, Note_off_c, 14, 66, 0
16, 218742, Note_off_c, 14, 59, 0
16, 220064, Note_on_c, 14, 63, 127
16, 220070, Note_on_c, 14, 59, 127
16, 220075, Note_on_c, 14, 61, 127
16, 220075, Note_on_c, 14, 66, 127
16, 221773, Note_off_c, 14, 66, 0
16, 221778, Note_off_c, 14, 59, 0
16, 221778, Note_off_c, 14, 61, 0
16, 221783, Note_off_c, 14, 63, 0
16, 222929, Note_on_c, 14, 62, 127
16, 222935, Note_on_c, 14, 66, 110
16, 222941, Note_on_c, 14, 59, 127
16, 222946, Note_on_c, 14, 57, 127
16, 224599, Note_off_c, 14, 62, 0
16, 224599, Note_off_c, 14, 59, 0
16, 224603, Note_off_c, 14, 57, 0
16, 224609, Note_off_c, 14, 66, 0
16, 225848, Note_on_c, 14, 61, 127
16, 225851, Note_on_c, 14, 57, 127
16, 225863, Note_on_c, 14, 59, 127
16, 225863, Note_on_c, 14, 64, 127
16, 227495, Note_off_c, 14, 57, 0
16, 227495, Note_off_c, 14, 59, 0
16, 227504, Note_off_c, 14, 64, 0
16, 227516, Note_off_c, 14, 61, 0
16, 228738, Note_on_c, 14, 63, 127
16, 228744, Note_on_c, 14, 66, 110
16, 228749, Note_on_c, 14, 59, 127
16, 228749, Note_on_c, 14, 61, 127
16, 230372, Note_off_c, 14, 66, 0
16, 230372, Note_off_c, 14, 61, 0
16, 230377, Note_off_c, 14, 63, 0
16, 230382, Note_off_c, 14, 59, 0
16, 231604, Note_on_c, 14, 61, 127
16, 231610, Note_on_c, 14, 63, 127
16, 231615, Note_on_c, 14, 59, 127
16, 231615, Note_on_c, 14, 66, 110
16, 233282, Note_off_c, 14, 66, 0
16, 233288, Note_off_c, 14, 61, 0
16, 233294, Note_off_c, 14, 63, 0
16, 233294, Note_off_c, 14, 59, 0
16, 234487, Note_on_c, 14, 62, 127
16, 234492, Note_on_c, 14, 59, 127
16, 234492, Note_on_c, 14, 66, 110
16, 234496, Note_on_c, 14, 57, 127
16, 236125, Note_off_c, 14, 59, 0
16, 236134, Note_off_c, 14, 62, 0
16, 236139, Note_off_c, 14, 66, 0
16, 236139, Note_off_c, 14, 57, 0
16, 237358, Note_on_c, 14, 61, 110
16, 237363, Note_on_c, 14, 57, 122
16, 237373, Note_on_c, 14, 59, 127
16, 237373, Note_on_c, 14, 64, 127
16, 239996, Note_off_c, 14, 61, 0
16, 239996, Note_off_c, 14, 57, 0
16, 239996, Note_off_c, 14, 59, 0
16, 239996, Note_off_c, 14, 64, 0
16, 240000, Note_on_c, 14, 55, 110
16, 240000, Note_on_c, 14, 59, 110
16, 240000, Note_on_c, 14, 62, 110
16, 240716, Note_off_c, 14, 55, 0
16, 240716, Note_off_c, 14, 59, 0
16, 240716, Note_off_c, 14, 62, 0
16, 241200, Note_on_c, 14, 57, 110
16, 241200, Note_on_c, 14, 61, 110
16, 241200, Note_on_c, 14, 64, 110
16, 241916, Note_off_c, 14, 57, 0
16, 241916, Note_off_c, 14, 61, 0
16, 241916, Note_off_c, 14, 64, 0
16, 243104, Note_on_c, 14, 63, 127
16, 243110, Note_on_c, 14, 59, 127
16, 243115, Note_on_c, 14, 61, 127
16, 243115, Note_on_c, 14, 66, 127
16, 244813, Note_off_c, 14, 66, 0
16, 244818, Note_off_c, 14, 59, 0
16, 244818, Note_off_c, 14, 61, 0
16, 244823, Note_off_c, 14, 63, 0
16, 245969, Note_on_c, 14, 62, 127
16, 245975, Note_on_c, 14, 66, 110
16, 245981, Note_on_c, 14, 59, 127
16, 245986, Note_on_c, 14, 57, 127
16, 247639, Note_off_c, 14, 62, 0
16, 247639, Note_off_c, 14, 59, 0
16, 247643, Note_off_c, 14, 57, 0
16, 247649, Note_off_c, 14, 66, 0
16, 248888, Note_on_c, 14, 61, 127
16, 248891, Note_on_c, 14, 57, 127
16, 248903, Note_on_c, 14, 59, 127
16, 248903, Note_on_c, 14, 64, 127
16, 250535, Note_off_c, 14, 57, 0
16, 250535, Note_off_c, 14, 59, 0
16, 250544, Note_off_c, 14, 64, 0
16, 250556, Note_off_c, 14, 61, 0
16, 251778, Note_on_c, 14, 63, 127
16, 251784, Note_on_c, 14, 66, 110
16, 251789, Note_on_c, 14, 59, 127
16, 251789, Note_on_c, 14, 61, 127
16, 253412, Note_off_c, 14, 66, 0
16, 253412, Note_off_c, 14, 61, 0
16, 253417, Note_off_c, 14, 63, 0
16, 253422, Note_off_c, 14, 59, 0
16, 254644, Note_on_c, 14, 61, 127
16, 254650, Note_on_c, 14, 63, 127
16, 254655, Note_on_c, 14, 59, 127
16, 254655, Note_on_c, 14, 66, 110
16, 256322, Note_off_c, 14, 66, 0
16, 256328, Note_off_c, 14, 61, 0
16, 256334, Note_off_c, 14, 63, 0
16, 256334, Note_off_c, 14, 59, 0
16, 257527, Note_on_c, 14, 62, 127
16, 257532, Note_on_c, 14, 59, 127
16, 257532, Note_on_c, 14, 66, 110
16, 257536, Note_on_c, 14, 57, 127
16, 259165, Note_off_c, 14, 59, 0
16, 259174, Note_off_c, 14, 62, 0
16, 259179, Note_off_c, 14, 66, 0
16, 259179, Note_off_c, 14, 57, 0
16, 260398, Note_on_c, 14, 61, 110
16, 260403, Note_on_c, 14, 57, 122
16, 260413, Note_on_c, 14, 59, 127
16, 260413, Note_on_c, 14, 64, 127
16, 263036, Note_off_c, 14, 61, 0
16, 263036, Note_off_c, 14, 57, 0
16, 263036, Note_off_c, 14, 59, 0
16, 263036, Note_off_c, 14, 64, 0
16, 263040, Note_on_c, 14, 55, 110
16, 263040, Note_on_c, 14, 59, 110
16, 263040, Note_on_c, 14, 62, 110
16, 263756, Note_off_c, 14, 55, 0
16, 263756, Note_off_c, 14, 59, 0
16, 263756, Note_off_c, 14, 62, 0
16, 264240, Note_on_c, 14, 57, 110
16, 264240, Note_on_c, 14, 61, 110
16, 264240, Note_on_c, 14, 64, 110
16, 264956, Note_off_c, 14, 57, 0
16, 264956, Note_off_c, 14, 61, 0
16, 264956, Note_off_c, 14, 64, 0
16, 266144, Note_on_c, 14, 63, 127
16, 266150, Note_on_c, 14, 59, 127
16, 266155, Note_on_c, 14, 61, 127
16, 266155, Note_on_c, 14, 66, 127
16, 267853, Note_off_c, 14, 66, 0
16, 267858, Note_off_c, 14, 59, 0
16, 267858, Note_off_c, 14, 61, 0
16, 267863, Note_off_c, 14, 63, 0
16, 269009, Note_on_c, 14, 62, 127
16, 269015, Note_on_c, 14, 66, 110
16, 269021, Note_on_c, 14, 59, 127
16, 269026, Note_on_c, 14, 57, 127
16, 270679, Note_off_c, 14, 62, 0
16, 270679, Note_off_c, 14, 59, 0
16, 270683, Note_off_c, 14, 57, 0
16, 270689, Note_off_c, 14, 66, 0
16, 271928, Note_on_c, 14, 61, 127
16, 271931, Note_on_c, 14, 57, 127
16, 271943, Note_on_c, 14, 59, 127
16, 271943, Note_on_c, 14, 64, 127
16, 273575, Note_off_c, 14, 57, 0
16, 273575, Note_off_c, 14, 59, 0
16, 273584, Note_off_c, 14, 64, 0
16, 273596, Note_off_c, 14, 61, 0
16, 274818, Note_on_c, 14, 63, 127
16, 274824, Note_on_c, 14, 66, 110
16, 274829, Note_on_c, 14, 59, 127
16, 274829, Note_on_c, 14, 61, 127
16, 276452, Note_off_c, 14, 66, 0
16, 276452, Note_off_c, 14, 61, 0
16, 276457, Note_off_c, 14, 63, 0
16, 276462, Note_off_c, 14, 59, 0
16, 277684, Note_on_c, 14, 61, 127
16, 277690, Note_on_c, 14, 63, 127
16, 277695, Note_on_c, 14, 59, 127
16, 277695, Note_on_c, 14, 66, 110
16, 279362, Note_off_c, 14, 66, 0
16, 279368, Note_off_c, 14, 61, 0
16, 279374, Note_off_c, 14, 63, 0
16, 279374, Note_off_c, 14, 59, 0
16, 280567, Note_on_c, 14, 62, 127
16, 280572, Note_on_c, 14, 59, 127
16, 280572, Note_on_c, 14, 66, 110
16, 280576, Note_on_c, 14, 57, 127
16, 282205, Note_off_c, 14, 59, 0
16, 282214, Note_off_c, 14, 62, 0
16, 282219, Note_off_c, 14, 66, 0
16, 282219, Note_off_c, 14, 57, 0
16, 283438, Note_on_c, 14, 61, 110
16, 283443, Note_on_c, 14, 57, 122
16, 283453, Note_on_c, 14, 59, 127
16, 283453, Note_on_c, 14, 64, 127
16, 286076, Note_off_c, 14, 61, 0
16, 286076, Note_off_c, 14, 57, 0
16, 286076, Note_off_c, 14, 59, 0
16, 286076, Note_off_c, 14, 64, 0
16, 286080, Note_on_c, 14, 55, 110
16, 286080, Note_on_c, 14, 59, 110
16, 286080, Note_on_c, 14, 62, 110
16, 287996, Note_off_c, 14, 55, 0
16, 287996, Note_off_c, 14, 59, 0
16, 287996, Note_off_c, 14, 62, 0
16, 288000, Control_c, 14, 11, 127
16, 288120, Control_c, 14, 11, 126
16, 288360, Control_c, 14, 11, 125
16, 288480, Control_c, 14, 11, 124
16, 288720, Control_c, 14, 11, 123
16, 288840, Control_c, 14, 11, 122
16, 289080, Control_c, 14, 11, 121
16, 289184, Note_on_c, 14, 63, 127
16, 289190, Note_on_c, 14, 59, 127
16, 289195, Note_on_c, 14, 61, 127
16, 289195, Note_on_c, 14, 66, 127
16, 289200, Control_c, 14, 11, 120
16, 289440, Control_c, 14, 11, 119
16, 289560, Control_c, 14, 11, 118
16, 289800, Control_c, 14, 11, 117
16, 289920, Control_c, 14, 11, 116
16, 290160, Control_c, 14, 11, 115
16, 290280, Control_c, 14, 11, 114
16, 290520, Control_c, 14, 11, 113
16, 290640, Control_c, 14, 11, 112
16, 290880, Control_c, 14, 11, 111
16, 290893, Note_off_c, 14, 66, 0
16, 290898, Note_off_c, 14, 59, 0
16, 290898, Note_off_c, 14, 61, 0
16, 290903, Note_off_c, 14, 63, 0
16, 291000, Control_c, 14, 11, 110
16, 291240, Control_c, 14, 11, 109
16, 291360, Control_c, 14, 11, 108
16, 291600, Control_c, 14, 11, 107
16, 291720, Control_c, 14, 11, 106
16, 291960, Control_c, 14, 11, 105
16, 292049, Note_on_c, 14, 62, 127
16, 292055, Note_on_c, 14, 66, 110
16, 292061, Note_on_c, 14, 59, 127
16, 292066, Note_on_c, 14, 57, 127
16, 292200, Control_c, 14, 11, 104
16, 292320, Control_c, 14, 11, 103
16, 292560, Control_c, 14, 11, 102
16, 292680, Control_c, 14, 11, 101
16, 292920, Control_c, 14, 11, 100
16, 293040, Control_c, 14, 11, 99
16, 293280, Control_c, 14, 11, 98
16, 293400, Control_c, 14, 11, 97
16, 293640, Control_c, 14, 11, 96
16, 293719, Note_off_c, 14, 62, 0
16, 293719, Note_off_c, 14, 59, 0
16, 293723, Note_off_c, 14, 57, 0
16, 293729, Note_off_c, 14, 66, 0
16, 293760, Control_c, 14, 11, 95
16, 294000, Control_c, 14, 11, 94
16, 294120, Control_c, 14, 11, 93
16, 294360, Control_c, 14, 11, 92
16, 294480, Control_c, 14, 11, 91
16, 294720, Control_c, 14, 11, 90
16, 294840, Control_c, 14, 11, 89
16, 294968, Note_on_c, 14, 61, 127
16, 294971, Note_on_c, 14, 57, 127
16, 294983, Note_on_c, 14, 59, 127
16, 294983, Note_on_c, 14, 64, 127
16, 295080, Control_c, 14, 11, 88
16, 295200, Control_c, 14, 11, 87
16, 295440, Control_c, 14, 11, 86
16, 295560, Control_c, 14, 11, 85
16, 295800, Control_c, 14, 11, 84
16, 295920, Control_c, 14, 11, 83
16, 296160, Control_c, 14, 11, 82
16, 296280, Control_c, 14, 11, 81
16, 296520, Control_c, 14, 11, 80
16, 296615, Note_off_c, 14, 57, 0
16, 296615, Note_off_c, 14, 59, 0
16, 296624, Note_off_c, 14, 64, 0
16, 296636, Note_off_c, 14, 61, 0
16, 296640, Control_c, 14, 11, 79
16, 296880, Control_c, 14, 11, 78
16, 297000, Control_c, 14, 11, 77
16, 297240, Control_c, 14, 11, 76
16, 297360, Control_c, 14, 11, 75
16, 297600, Control_c, 14, 11, 74
16, 297720, Control_c, 14, 11, 73
16, 297858, Note_on_c, 14, 63, 127
16, 297864, Note_on_c, 14, 66, 110
16, 297869, Note_on_c, 14, 59, 127
16, 297869, Note_on_c, 14, 61, 127
16, 297960, Control_c, 14, 11, 72
16, 298080, Control_c, 14, 11, 71
16, 298320, Control_c, 14, 11, 70
16, 298440, Control_c, 14, 11, 69
16, 298680, Control_c, 14, 11, 68
16, 298800, Control_c, 14, 11, 67
16, 299040, Control_c, 14, 11, 66
16, 299160, Control_c, 14, 11, 65
16, 299400, Control_c, 14, 11, 64
16, 299492, Note_off_c, 14, 66, 0
16, 299492, Note_off_c, 14, 61, 0
16, 299497, Note_off_c, 14, 63, 0
16, 299502, Note_off_c, 14, 59, 0
16, 299520, Control_c, 14, 11, 63
16, 299760, Control_c, 14, 11, 62
16, 300000, Control_c, 14, 11, 61
16, 300120, Control_c, 14, 11, 60
16, 300360, Control_c, 14, 11, 59
16, 300480, Control_c, 14, 11, 58
16, 300720, Control_c, 14, 11, 57
16, 300724, Note_on_c, 14, 61, 127
16, 300730, Note_on_c, 14, 63, 127
16, 300735, Note_on_c, 14, 59, 127
16, 300735, Note_on_c, 14, 66, 110
16, 300840, Control_c, 14, 11, 56
16, 301080, Control_c, 14, 11, 55
16, 301200, Control_c, 14, 11, 54
16, 301440, Control_c, 14, 11, 53
16, 301560, Control_c, 14, 11, 52
16, 301800, Control_c, 14, 11, 51
16, 301920, Control_c, 14, 11, 50
16, 302160, Control_c, 14, 11, 49
16, 302280, Control_c, 14, 11, 48
16, 302402, Note_off_c, 14, 66, 0
16, 302408, Note_off_c, 14, 61, 0
16, 302414, Note_off_c, 14, 63, 0
16, 302414, Note_off_c, 14, 59, 0
16, 302520, Control_c, 14, 11, 47
16, 302640, Control_c, 14, 11, 46
16, 302880, Control_c, 14, 11, 45
16, 303000, Control_c, 14, 11, 44
16, 303240, Control_c, 14, 11, 43
16, 303360, Control_c, 14, 11, 42
16, 303600, Control_c, 14, 11, 41
16, 303607, Note_on_c, 14, 62, 127
16, 303612, Note_on_c, 14, 59, 127
16, 303612, Note_on_c, 14, 66, 110
16, 303616, Note_on_c, 14, 57, 127
16, 303720, Control_c, 14, 11, 40
16, 303960, Control_c, 14, 11, 39
16, 304080, Control_c, 14, 11, 38
16, 304320, Control_c, 14, 11, 37
16, 304440, Control_c, 14, 11, 36
16, 304680, Control_c, 14, 11, 35
16, 304800, Control_c, 14, 11, 34
16, 305040, Control_c, 14, 11, 33
16, 305160, Control_c, 14, 11, 32
16, 305245, Note_off_c, 14, 59, 0
16, 305254, Note_off_c, 14, 62, 0
16, 305259, Note_off_c, 14, 66, 0
16, 305259, Note_off_c, 14, 57, 0
16, 305400, Control_c, 14, 11, 31
16, 305520, Control_c, 14, 11, 30
16, 305760, Control_c, 14, 11, 29
16, 305880, Control_c, 14, 11, 28
16, 306120, Control_c, 14, 11, 27
16, 306240, Control_c, 14, 11, 26
16, 306478, Note_on_c, 14, 61, 110
16, 306480, Control_c, 14, 11, 25
16, 306483, Note_on_c, 14, 57, 122
16, 306493, Note_on_c, 14, 59, 127
16, 306493, Note_on_c, 14, 64, 127
16, 306600, Control_c, 14, 11, 24
16, 306840, Control_c, 14, 11, 23
16, 306960, Control_c, 14, 11, 22
16, 307200, Control_c, 14, 11, 21
16, 307440, Control_c, 14, 11, 20
16, 307560, Control_c, 14, 11, 19
16, 307800, Control_c, 14, 11, 18
16, 307920, Control_c, 14, 11, 17
16, 308160, Control_c, 14, 11, 16
16, 308280, Control_c, 14, 11, 15
16, 308520, Control_c, 14, 11, 14
16, 308640, Control_c, 14, 11, 13
16, 308880, Control_c, 14, 11, 12
16, 309000, Control_c, 14, 11, 11
16, 309116, Note_off_c, 14, 61, 0
16, 309116, Note_off_c, 14, 57, 0
16, 309116, Note_off_c, 14, 59, 0
16, 309116, Note_off_c, 14, 64, 0
16, 309120, Note_on_c, 14, 55, 110
16, 309120, Note_on_c, 14, 59, 110
16, 309120, Note_on_c, 14, 62, 110
16, 309240, Control_c, 14, 11, 10
16, 309360, Control_c, 14, 11, 9
16, 309600, Control_c, 14, 11, 8
16, 309720, Control_c, 14, 11, 7
16, 309960, Control_c, 14, 11, 6
16, 310080, Control_c, 14, 11, 5
16, 310320, Control_c, 14, 11, 4
16, 310440, Control_c, 14, 11, 3
16, 310680, Control_c, 14, 11, 2
16, 310800, Control_c, 14, 11, 1
16, 311031, Control_c, 14, 7, 79
16, 311036, Note_off_c, 14, 55, 0
16, 311036, Note_off_c, 14, 59, 0
16, 311036, Note_off_c, 14, 62, 0
16, 311036, End_track
17, 0, Start_track
17, 0, Title_t, "\000"
17, 0, Control_c, 15, 0, 0
17, 0, Program_c, 15, 50
17, 0, Control_c, 15, 7, 67
17, 0, Control_c, 15, 10, 69
17, 0, Control_c, 15, 91, 127
17, 0, Control_c, 15, 93, 30
17, 1110, Control_c, 15, 11, 127
17, 3729, Control_c, 15, 101, 0
17, 3732, Control_c, 15, 100, 0
17, 3734, Control_c, 15, 6, 2
17, 3737, Control_c, 15, 101, 127
17, 3739, Control_c, 15, 100, 127
17, 4837, Control_c, 15, 94, 0
17, 97890, Note_on_c, 15, 63, 104
17, 97895, Note_on_c, 15, 61, 100
17, 97895, Note_on_c, 15, 66, 95
17, 97900, Note_on_c, 15, 59, 104
17, 100757, Note_off_c, 15, 63, 0
17, 100757, Note_off_c, 15, 61, 0
17, 100757, Note_off_c, 15, 66, 0
17, 100757, Note_off_c, 15, 59, 0
17, 100761, Note_on_c, 15, 57, 104
17, 100761, Note_on_c, 15, 66, 87
17, 100767, Note_on_c, 15, 59, 117
17, 100767, Note_on_c, 15, 62, 108
17, 103653, Note_off_c, 15, 57, 0
17, 103653, Note_off_c, 15, 66, 0
17, 103653, Note_off_c, 15, 59, 0
17, 103653, Note_off_c, 15, 62, 0
17, 103657, Note_on_c, 15, 61, 100
17, 103662, Note_on_c, 15, 57, 104
17, 103668, Note_on_c, 15, 59, 122
17, 103668, Note_on_c, 15, 64, 113
17, 106525, Note_off_c, 15, 61, 0
17, 106525, Note_off_c, 15, 57, 0
17, 106525, Note_off_c, 15, 59, 0
17, 106525, Note_off_c, 15, 64, 0
17, 106529, Note_on_c, 15, 66, 91
17, 106539, Note_on_c, 15, 59, 104
17, 106539, Note_on_c, 15, 61, 104
17, 106544, Note_on_c, 15, 63, 104
17, 109427, Note_off_c, 15, 66, 0
17, 109427, Note_off_c, 15, 59, 0
17, 109427, Note_off_c, 15, 61, 0
17, 109427, Note_off_c, 15, 63, 0
17, 109431, Note_on_c, 15, 63, 104
17, 109435, Note_on_c, 15, 59, 101
17, 109435, Note_on_c, 15, 61, 95
17, 109446, Note_on_c, 15, 66, 91
17, 112288, Note_off_c, 15, 63, 0
17, 112288, Note_off_c, 15, 59, 0
17, 112288, Note_off_c, 15, 61, 0
17, 112288, Note_off_c, 15, 66, 0
17, 112292, Note_on_c, 15, 66, 83
17, 112301, Note_on_c, 15, 57, 97
17, 112307, Note_on_c, 15, 62, 108
17, 112312, Note_on_c, 15, 59, 113
17, 115175, Note_off_c, 15, 66, 0
17, 115175, Note_off_c, 15, 57, 0
17, 115175, Note_off_c, 15, 62, 0
17, 115175, Note_off_c, 15, 59, 0
17, 115179, Note_on_c, 15, 61, 95
17, 115183, Note_on_c, 15, 59, 113
17, 115192, Note_on_c, 15, 57, 101
17, 115197, Note_on_c, 15, 64, 108
17, 118060, Note_off_c, 15, 61, 0
17, 118060, Note_off_c, 15, 59, 0
17, 118060, Note_off_c, 15, 57, 0
17, 118060, Note_off_c, 15, 64, 0
17, 118064, Note_on_c, 15, 63, 110
17, 118070, Note_on_c, 15, 61, 104
17, 118075, Note_on_c, 15, 59, 104
17, 118075, Note_on_c, 15, 66, 91
17, 120729, Note_off_c, 15, 63, 0
17, 120734, Note_off_c, 15, 61, 0
17, 120734, Note_off_c, 15, 66, 0
17, 120738, Note_off_c, 15, 59, 0
17, 120930, Note_on_c, 15, 63, 104
17, 120935, Note_on_c, 15, 61, 100
17, 120935, Note_on_c, 15, 66, 95
17, 120940, Note_on_c, 15, 59, 104
17, 123797, Note_off_c, 15, 63, 0
17, 123797, Note_off_c, 15, 61, 0
17, 123797, Note_off_c, 15, 66, 0
17, 123797, Note_off_c, 15, 59, 0
17, 123801, Note_on_c, 15, 57, 104
17, 123801, Note_on_c, 15, 66, 87
17, 123807, Note_on_c, 15, 59, 117
17, 123807, Note_on_c, 15, 62, 108
17, 126693, Note_off_c, 15, 57, 0
17, 126693, Note_off_c, 15, 66, 0
17, 126693, Note_off_c, 15, 59, 0
17, 126693, Note_off_c, 15, 62, 0
17, 126697, Note_on_c, 15, 61, 100
17, 126702, Note_on_c, 15, 57, 104
17, 126708, Note_on_c, 15, 59, 122
17, 126708, Note_on_c, 15, 64, 113
17, 129565, Note_off_c, 15, 61, 0
17, 129565, Note_off_c, 15, 57, 0
17, 129565, Note_off_c, 15, 59, 0
17, 129565, Note_off_c, 15, 64, 0
17, 129569, Note_on_c, 15, 66, 91
17, 129579, Note_on_c, 15, 59, 104
17, 129579, Note_on_c, 15, 61, 104
17, 129584, Note_on_c, 15, 63, 104
17, 132467, Note_off_c, 15, 66, 0
17, 132467, Note_off_c, 15, 59, 0
17, 132467, Note_off_c, 15, 61, 0
17, 132467, Note_off_c, 15, 63, 0
17, 132471, Note_on_c, 15, 63, 104
17, 132475, Note_on_c, 15, 59, 101
17, 132475, Note_on_c, 15, 61, 95
17, 132486, Note_on_c, 15, 66, 91
17, 135328, Note_off_c, 15, 63, 0
17, 135328, Note_off_c, 15, 59, 0
17, 135328, Note_off_c, 15, 61, 0
17, 135328, Note_off_c, 15, 66, 0
17, 135332, Note_on_c, 15, 66, 83
17, 135341, Note_on_c, 15, 57, 97
17, 135347, Note_on_c, 15, 62, 108
17, 135352, Note_on_c, 15, 59, 113
17, 138215, Note_off_c, 15, 66, 0
17, 138215, Note_off_c, 15, 57, 0
17, 138215, Note_off_c, 15, 62, 0
17, 138215, Note_off_c, 15, 59, 0
17, 138219, Note_on_c, 15, 61, 95
17, 138223, Note_on_c, 15, 59, 113
17, 138232, Note_on_c, 15, 57, 101
17, 138237, Note_on_c, 15, 64, 108
17, 141100, Note_off_c, 15, 61, 0
17, 141100, Note_off_c, 15, 59, 0
17, 141100, Note_off_c, 15, 57, 0
17, 141100, Note_off_c, 15, 64, 0
17, 141104, Note_on_c, 15, 63, 110
17, 141110, Note_on_c, 15, 61, 104
17, 141115, Note_on_c, 15, 59, 104
17, 141115, Note_on_c, 15, 66, 91
17, 143769, Note_off_c, 15, 63, 0
17, 143774, Note_off_c, 15, 61, 0
17, 143774, Note_off_c, 15, 66, 0
17, 143778, Note_off_c, 15, 59, 0
17, 143994, Note_on_c, 15, 61, 104
17, 143994, Note_on_c, 15, 63, 110
17, 143998, Note_on_c, 15, 59, 104
17, 143998, Note_on_c, 15, 66, 95
17, 146846, Note_off_c, 15, 61, 0
17, 146846, Note_off_c, 15, 63, 0
17, 146846, Note_off_c, 15, 59, 0
17, 146846, Note_off_c, 15, 66, 0
17, 146850, Note_on_c, 15, 66, 100
17, 146854, Note_on_c, 15, 62, 101
17, 146860, Note_on_c, 15, 64, 113
17, 146864, Note_on_c, 15, 69, 113
17, 149722, Note_off_c, 15, 66, 0
17, 149722, Note_off_c, 15, 62, 0
17, 149722, Note_off_c, 15, 64, 0
17, 149722, Note_off_c, 15, 69, 0
17, 149726, Note_on_c, 15, 66, 95
17, 149731, Note_on_c, 15, 64, 113
17, 149736, Note_on_c, 15, 59, 104
17, 149736, Note_on_c, 15, 69, 113
17, 152614, Note_off_c, 15, 66, 0
17, 152614, Note_off_c, 15, 64, 0
17, 152614, Note_off_c, 15, 59, 0
17, 152614, Note_off_c, 15, 69, 0
17, 152618, Note_on_c, 15, 64, 113
17, 152622, Note_on_c, 15, 59, 101
17, 152628, Note_on_c, 15, 68, 104
17, 155317, Note_off_c, 15, 64, 0
17, 155332, Note_off_c, 15, 59, 0
17, 155332, Note_off_c, 15, 68, 0
17, 155464, Note_on_c, 15, 61, 100
17, 155468, Note_on_c, 15, 63, 100
17, 155470, Note_on_c, 15, 59, 108
17, 155470, Note_on_c, 15, 66, 95
17, 158347, Note_off_c, 15, 61, 0
17, 158347, Note_off_c, 15, 63, 0
17, 158347, Note_off_c, 15, 59, 0
17, 158347, Note_off_c, 15, 66, 0
17, 158351, Note_on_c, 15, 66, 95
17, 158361, Note_on_c, 15, 62, 104
17, 158361, Note_on_c, 15, 64, 113
17, 158371, Note_on_c, 15, 69, 108
17, 161249, Note_off_c, 15, 66, 0
17, 161249, Note_off_c, 15, 62, 0
17, 161249, Note_off_c, 15, 64, 0
17, 161249, Note_off_c, 15, 69, 0
17, 161253, Note_on_c, 15, 66, 95
17, 161263, Note_on_c, 15, 64, 113
17, 161263, Note_on_c, 15, 68, 100
17, 161267, Note_on_c, 15, 59, 101
17, 172658, Note_off_c, 15, 66, 0
17, 172663, Note_off_c, 15, 64, 0
17, 172668, Note_off_c, 15, 59, 0
17, 172672, Note_off_c, 15, 68, 0
17, 172770, Note_on_c, 15, 63, 104
17, 172775, Note_on_c, 15, 61, 100
17, 172775, Note_on_c, 15, 66, 95
17, 172780, Note_on_c, 15, 59, 104
17, 175637, Note_off_c, 15, 63, 0
17, 175637, Note_off_c, 15, 61, 0
17, 175637, Note_off_c, 15, 66, 0
17, 175637, Note_off_c, 15, 59, 0
17, 175641, Note_on_c, 15, 57, 104
17, 175641, Note_on_c, 15, 66, 87
17, 175647, Note_on_c, 15, 59, 117
17, 175647, Note_on_c, 15, 62, 108
17, 178533, Note_off_c, 15, 57, 0
17, 178533, Note_off_c, 15, 66, 0
17, 178533, Note_off_c, 15, 59, 0
17, 178533, Note_off_c, 15, 62, 0
17, 178537, Note_on_c, 15, 61, 100
17, 178542, Note_on_c, 15, 57, 104
17, 178548, Note_on_c, 15, 59, 122
17, 178548, Note_on_c, 15, 64, 113
17, 181405, Note_off_c, 15, 61, 0
17, 181405, Note_off_c, 15, 57, 0
17, 181405, Note_off_c, 15, 59, 0
17, 181405, Note_off_c, 15, 64, 0
17, 181409, Note_on_c, 15, 66, 91
17, 181419, Note_on_c, 15, 59, 104
17, 181419, Note_on_c, 15, 61, 104
17, 181424, Note_on_c, 15, 63, 104
17, 184307, Note_off_c, 15, 66, 0
17, 184307, Note_off_c, 15, 59, 0
17, 184307, Note_off_c, 15, 61, 0
17, 184307, Note_off_c, 15, 63, 0
17, 184311, Note_on_c, 15, 63, 104
17, 184315, Note_on_c, 15, 59, 101
17, 184315, Note_on_c, 15, 61, 95
17, 184326, Note_on_c, 15, 66, 91
17, 187168, Note_off_c, 15, 63, 0
17, 187168, Note_off_c, 15, 59, 0
17, 187168, Note_off_c, 15, 61, 0
17, 187168, Note_off_c, 15, 66, 0
17, 187172, Note_on_c, 15, 66, 83
17, 187181, Note_on_c, 15, 57, 97
17, 187187, Note_on_c, 15, 62, 108
17, 187192, Note_on_c, 15, 59, 113
17, 190055, Note_off_c, 15, 66, 0
17, 190055, Note_off_c, 15, 57, 0
17, 190055, Note_off_c, 15, 62, 0
17, 190055, Note_off_c, 15, 59, 0
17, 190059, Note_on_c, 15, 61, 95
17, 190063, Note_on_c, 15, 59, 113
17, 190072, Note_on_c, 15, 57, 101
17, 190077, Note_on_c, 15, 64, 108
17, 192940, Note_off_c, 15, 61, 0
17, 192940, Note_off_c, 15, 59, 0
17, 192940, Note_off_c, 15, 57, 0
17, 192940, Note_off_c, 15, 64, 0
17, 192944, Note_on_c, 15, 63, 110
17, 192950, Note_on_c, 15, 61, 104
17, 192955, Note_on_c, 15, 59, 104
17, 192955, Note_on_c, 15, 66, 91
17, 195609, Note_off_c, 15, 63, 0
17, 195614, Note_off_c, 15, 61, 0
17, 195614, Note_off_c, 15, 66, 0
17, 195618, Note_off_c, 15, 59, 0
17, 195810, Note_on_c, 15, 63, 104
17, 195815, Note_on_c, 15, 61, 100
17, 195815, Note_on_c, 15, 66, 95
17, 195820, Note_on_c, 15, 59, 104
17, 198677, Note_off_c, 15, 63, 0
17, 198677, Note_off_c, 15, 61, 0
17, 198677, Note_off_c, 15, 66, 0
17, 198677, Note_off_c, 15, 59, 0
17, 198681, Note_on_c, 15, 57, 104
17, 198681, Note_on_c, 15, 66, 87
17, 198687, Note_on_c, 15, 59, 117
17, 198687, Note_on_c, 15, 62, 108
17, 201573, Note_off_c, 15, 57, 0
17, 201573, Note_off_c, 15, 66, 0
17, 201573, Note_off_c, 15, 59, 0
17, 201573, Note_off_c, 15, 62, 0
17, 201577, Note_on_c, 15, 61, 100
17, 201582, Note_on_c, 15, 57, 104
17, 201588, Note_on_c, 15, 59, 122
17, 201588, Note_on_c, 15, 64, 113
17, 204445, Note_off_c, 15, 61, 0
17, 204445, Note_off_c, 15, 57, 0
17, 204445, Note_off_c, 15, 59, 0
17, 204445, Note_off_c, 15, 64, 0
17, 204449, Note_on_c, 15, 66, 91
17, 204459, Note_on_c, 15, 59, 104
17, 204459, Note_on_c, 15, 61, 104
17, 204464, Note_on_c, 15, 63, 104
17, 207347, Note_off_c, 15, 66, 0
17, 207347, Note_off_c, 15, 59, 0
17, 207347, Note_off_c, 15, 61, 0
17, 207347, Note_off_c, 15, 63, 0
17, 207351, Note_on_c, 15, 63, 104
17, 207355, Note_on_c, 15, 59, 101
17, 207355, Note_on_c, 15, 61, 95
17, 207366, Note_on_c, 15, 66, 91
17, 210208, Note_off_c, 15, 63, 0
17, 210208, Note_off_c, 15, 59, 0
17, 210208, Note_off_c, 15, 61, 0
17, 210208, Note_off_c, 15, 66, 0
17, 210212, Note_on_c, 15, 66, 83
17, 210221, Note_on_c, 15, 57, 97
17, 210227, Note_on_c, 15, 62, 108
17, 210232, Note_on_c, 15, 59, 113
17, 213095, Note_off_c, 15, 66, 0
17, 213095, Note_off_c, 15, 57, 0
17, 213095, Note_off_c, 15, 62, 0
17, 213095, Note_off_c, 15, 59, 0
17, 213099, Note_on_c, 15, 61, 95
17, 213103, Note_on_c, 15, 59, 113
17, 213112, Note_on_c, 15, 57, 101
17, 213117, Note_on_c, 15, 64, 108
17, 215980, Note_off_c, 15, 61, 0
17, 215980, Note_off_c, 15, 59, 0
17, 215980, Note_off_c, 15, 57, 0
17, 215980, Note_off_c, 15, 64, 0
17, 215984, Note_on_c, 15, 63, 110
17, 215990, Note_on_c, 15, 61, 104
17, 215995, Note_on_c, 15, 59, 104
17, 215995, Note_on_c, 15, 66, 91
17, 218649, Note_off_c, 15, 63, 0
17, 218654, Note_off_c, 15, 61, 0
17, 218654, Note_off_c, 15, 66, 0
17, 218658, Note_off_c, 15, 59, 0
17, 218850, Note_on_c, 15, 63, 104
17, 218855, Note_on_c, 15, 61, 100
17, 218855, Note_on_c, 15, 66, 95
17, 218860, Note_on_c, 15, 59, 104
17, 221717, Note_off_c, 15, 63, 0
17, 221717, Note_off_c, 15, 61, 0
17, 221717, Note_off_c, 15, 66, 0
17, 221717, Note_off_c, 15, 59, 0
17, 221721, Note_on_c, 15, 57, 104
17, 221721, Note_on_c, 15, 66, 87
17, 221727, Note_on_c, 15, 59, 117
17, 221727, Note_on_c, 15, 62, 108
17, 224613, Note_off_c, 15, 57, 0
17, 224613, Note_off_c, 15, 66, 0
17, 224613, Note_off_c, 15, 59, 0
17, 224613, Note_off_c, 15, 62, 0
17, 224617, Note_on_c, 15, 61, 100
17, 224622, Note_on_c, 15, 57, 104
17, 224628, Note_on_c, 15, 59, 122
17, 224628, Note_on_c, 15, 64, 113
17, 227485, Note_off_c, 15, 61, 0
17, 227485, Note_off_c, 15, 57, 0
17, 227485, Note_off_c, 15, 59, 0
17, 227485, Note_off_c, 15, 64, 0
17, 227489, Note_on_c, 15, 66, 91
17, 227499, Note_on_c, 15, 59, 104
17, 227499, Note_on_c, 15, 61, 104
17, 227504, Note_on_c, 15, 63, 104
17, 230387, Note_off_c, 15, 66, 0
17, 230387, Note_off_c, 15, 59, 0
17, 230387, Note_off_c, 15, 61, 0
17, 230387, Note_off_c, 15, 63, 0
17, 230391, Note_on_c, 15, 63, 104
17, 230395, Note_on_c, 15, 59, 101
17, 230395, Note_on_c, 15, 61, 95
17, 230406, Note_on_c, 15, 66, 91
17, 233248, Note_off_c, 15, 63, 0
17, 233248, Note_off_c, 15, 59, 0
17, 233248, Note_off_c, 15, 61, 0
17, 233248, Note_off_c, 15, 66, 0
17, 233252, Note_on_c, 15, 66, 83
17, 233261, Note_on_c, 15, 57, 97
17, 233267, Note_on_c, 15, 62, 108
17, 233272, Note_on_c, 15, 59, 113
17, 236135, Note_off_c, 15, 66, 0
17, 236135, Note_off_c, 15, 57, 0
17, 236135, Note_off_c, 15, 62, 0
17, 236135, Note_off_c, 15, 59, 0
17, 236139, Note_on_c, 15, 61, 95
17, 236143, Note_on_c, 15, 59, 113
17, 236152, Note_on_c, 15, 57, 101
17, 236157, Note_on_c, 15, 64, 108
17, 240476, Note_off_c, 15, 61, 0
17, 240476, Note_off_c, 15, 59, 0
17, 240476, Note_off_c, 15, 57, 0
17, 240476, Note_off_c, 15, 64, 0
17, 240480, Note_on_c, 15, 55, 110
17, 240480, Note_on_c, 15, 59, 110
17, 240480, Note_on_c, 15, 62, 110
17, 241196, Note_off_c, 15, 55, 0
17, 241196, Note_off_c, 15, 59, 0
17, 241196, Note_off_c, 15, 62, 0
17, 241200, Note_on_c, 15, 57, 110
17, 241200, Note_on_c, 15, 61, 110
17, 241200, Note_on_c, 15, 64, 110
17, 241890, Note_on_c, 15, 63, 104
17, 241895, Note_on_c, 15, 61, 100
17, 241895, Note_on_c, 15, 66, 95
17, 241900, Note_on_c, 15, 59, 104
17, 241916, Note_off_c, 15, 57, 0
17, 241916, Note_off_c, 15, 61, 0
17, 241916, Note_off_c, 15, 64, 0
17, 244757, Note_off_c, 15, 63, 0
17, 244757, Note_off_c, 15, 61, 0
17, 244757, Note_off_c, 15, 66, 0
17, 244757, Note_off_c, 15, 59, 0
17, 244761, Note_on_c, 15, 57, 104
17, 244761, Note_on_c, 15, 66, 87
17, 244767, Note_on_c, 15, 59, 117
17, 244767, Note_on_c, 15, 62, 108
17, 247653, Note_off_c, 15, 57, 0
17, 247653, Note_off_c, 15, 66, 0
17, 247653, Note_off_c, 15, 59, 0
17, 247653, Note_off_c, 15, 62, 0
17, 247657, Note_on_c, 15, 61, 100
17, 247662, Note_on_c, 15, 57, 104
17, 247668, Note_on_c, 15, 59, 122
17, 247668, Note_on_c, 15, 64, 113
17, 250525, Note_off_c, 15, 61, 0
17, 250525, Note_off_c, 15, 57, 0
17, 250525, Note_off_c, 15, 59, 0
17, 250525, Note_off_c, 15, 64, 0
17, 250529, Note_on_c, 15, 66, 91
17, 250539, Note_on_c, 15, 59, 104
17, 250539, Note_on_c, 15, 61, 104
17, 250544, Note_on_c, 15, 63, 104
17, 253427, Note_off_c, 15, 66, 0
17, 253427, Note_off_c, 15, 59, 0
17, 253427, Note_off_c, 15, 61, 0
17, 253427, Note_off_c, 15, 63, 0
17, 253431, Note_on_c, 15, 63, 104
17, 253435, Note_on_c, 15, 59, 101
17, 253435, Note_on_c, 15, 61, 95
17, 253446, Note_on_c, 15, 66, 91
17, 256288, Note_off_c, 15, 63, 0
17, 256288, Note_off_c, 15, 59, 0
17, 256288, Note_off_c, 15, 61, 0
17, 256288, Note_off_c, 15, 66, 0
17, 256292, Note_on_c, 15, 66, 83
17, 256301, Note_on_c, 15, 57, 97
17, 256307, Note_on_c, 15, 62, 108
17, 256312, Note_on_c, 15, 59, 113
17, 259175, Note_off_c, 15, 66, 0
17, 259175, Note_off_c, 15, 57, 0
17, 259175, Note_off_c, 15, 62, 0
17, 259175, Note_off_c, 15, 59, 0
17, 259179, Note_on_c, 15, 61, 95
17, 259183, Note_on_c, 15, 59, 113
17, 259192, Note_on_c, 15, 57, 101
17, 259197, Note_on_c, 15, 64, 108
17, 263516, Note_off_c, 15, 61, 0
17, 263516, Note_off_c, 15, 59, 0
17, 263516, Note_off_c, 15, 57, 0
17, 263516, Note_off_c, 15, 64, 0
17, 263520, Note_on_c, 15, 55, 110
17, 263520, Note_on_c, 15, 59, 110
17, 263520, Note_on_c, 15, 62, 110
17, 264236, Note_off_c, 15, 55, 0
17, 264236, Note_off_c, 15, 59, 0
17, 264236, Note_off_c, 15, 62, 0
17, 264240, Note_on_c, 15, 57, 110
17, 264240, Note_on_c, 15, 61, 110
17, 264240, Note_on_c, 15, 64, 110
17, 264930, Note_on_c, 15, 63, 104
17, 264935, Note_on_c, 15, 61, 100
17, 264935, Note_on_c, 15, 66, 95
17, 264940, Note_on_c, 15, 59, 104
17, 264956, Note_off_c, 15, 57, 0
17, 264956, Note_off_c, 15, 61, 0
17, 264956, Note_off_c, 15, 64, 0
17, 267797, Note_off_c, 15, 63, 0
17, 267797, Note_off_c, 15, 61, 0
17, 267797, Note_off_c, 15, 66, 0
17, 267797, Note_off_c, 15, 59, 0
17, 267801, Note_on_c, 15, 57, 104
17, 267801, Note_on_c, 15, 66, 87
17, 267807, Note_on_c, 15, 59, 117
17, 267807, Note_on_c, 15, 62, 108
17, 270693, Note_off_c, 15, 57, 0
17, 270693, Note_off_c, 15, 66, 0
17, 270693, Note_off_c, 15, 59, 0
17, 270693, Note_off_c, 15, 62, 0
17, 270697, Note_on_c, 15, 61, 100
17, 270702, Note_on_c, 15, 57, 104
17, 270708, Note_on_c, 15, 59, 122
17, 270708, Note_on_c, 15, 64, 113
17, 273565, Note_off_c, 15, 61, 0
17, 273565, Note_off_c, 15, 57, 0
17, 273565, Note_off_c, 15, 59, 0
17, 273565, Note_off_c, 15, 64, 0
17, 273569, Note_on_c, 15, 66, 91
17, 273579, Note_on_c, 15, 59, 104
17, 273579, Note_on_c, 15, 61, 104
17, 273584, Note_on_c, 15, 63, 104
17, 276467, Note_off_c, 15, 66, 0
17, 276467, Note_off_c, 15, 59, 0
17, 276467, Note_off_c, 15, 61, 0
17, 276467, Note_off_c, 15, 63, 0
17, 276471, Note_on_c, 15, 63, 104
17, 276475, Note_on_c, 15, 59, 101
17, 276475, Note_on_c, 15, 61, 95
17, 276486, Note_on_c, 15, 66, 91
17, 279328, Note_off_c, 15, 63, 0
17, 279328, Note_off_c, 15, 59, 0
17, 279328, Note_off_c, 15, 61, 0
17, 279328, Note_off_c, 15, 66, 0
17, 279332, Note_on_c, 15, 66, 83
17, 279341, Note_on_c, 15, 57, 97
17, 279347, Note_on_c, 15, 62, 108
17, 279352, Note_on_c, 15, 59, 113
17, 282215, Note_off_c, 15, 66, 0
17, 282215, Note_off_c, 15, 57, 0
17, 282215, Note_off_c, 15, 62, 0
17, 282215, Note_off_c, 15, 59, 0
17, 282219, Note_on_c, 15, 61, 95
17, 282223, Note_on_c, 15, 59, 113
17, 282232, Note_on_c, 15, 57, 101
17, 282237, Note_on_c, 15, 64, 108
17, 286556, Note_off_c, 15, 61, 0
17, 286556, Note_off_c, 15, 59, 0
17, 286556, Note_off_c, 15, 57, 0
17, 286556, Note_off_c, 15, 64, 0
17, 286560, Note_on_c, 15, 55, 110
17, 286560, Note_on_c, 15, 59, 110
17, 286560, Note_on_c, 15, 62, 110
17, 287970, Note_on_c, 15, 63, 104
17, 287975, Note_on_c, 15, 61, 100
17, 287975, Note_on_c, 15, 66, 95
17, 287980, Note_on_c, 15, 59, 104
17, 287996, Note_off_c, 15, 55, 0
17, 287996, Note_off_c, 15, 59, 0
17, 287996, Note_off_c, 15, 62, 0
17, 288000, Control_c, 15, 11, 127
17, 288120, Control_c, 15, 11, 126
17, 288360, Control_c, 15, 11, 125
17, 288480, Control_c, 15, 11, 124
17, 288720, Control_c, 15, 11, 123
17, 288840, Control_c, 15, 11, 122
17, 289080, Control_c, 15, 11, 121
17, 289200, Control_c, 15, 11, 120
17, 289440, Control_c, 15, 11, 119
17, 289560, Control_c, 15, 11, 118
17, 289800, Control_c, 15, 11, 117
17, 289920, Control_c, 15, 11, 116
17, 290160, Control_c, 15, 11, 115
17, 290280, Control_c, 15, 11, 114
17, 290520, Control_c, 15, 11, 113
17, 290640, Control_c, 15, 11, 112
17, 290837, Note_off_c, 15, 63, 0
17, 290837, Note_off_c, 15, 61, 0
17, 290837, Note_off_c, 15, 66, 0
17, 290837, Note_off_c, 15, 59, 0
17, 290841, Note_on_c, 15, 57, 104
17, 290841, Note_on_c, 15, 66, 87
17, 290847, Note_on_c, 15, 59, 117
17, 290847, Note_on_c, 15, 62, 108
17, 290880, Control_c, 15, 11, 111
17, 291000, Control_c, 15, 11, 110
17, 291240, Control_c, 15, 11, 109
17, 291360, Control_c, 15, 11, 108
17, 291600, Control_c, 15, 11, 107
17, 291720, Control_c, 15, 11, 106
17, 291960, Control_c, 15, 11, 105
17, 292200, Control_c, 15, 11, 104
17, 292320, Control_c, 15, 11, 103
17, 292560, Control_c, 15, 11, 102
17, 292680, Control_c, 15, 11, 101
17, 292920, Control_c, 15, 11, 100
17, 293040, Control_c, 15, 11, 99
17, 293280, Control_c, 15, 11, 98
17, 293400, Control_c, 15, 11, 97
17, 293640, Control_c, 15, 11, 96
17, 293733, Note_off_c, 15, 57, 0
17, 293733, Note_off_c, 15, 66, 0
17, 293733, Note_off_c, 15, 59, 0
17, 293733, Note_off_c, 15, 62, 0
17, 293737, Note_on_c, 15, 61, 100
17, 293742, Note_on_c, 15, 57, 104
17, 293748, Note_on_c, 15, 59, 122
17, 293748, Note_on_c, 15, 64, 113
17, 293760, Control_c, 15, 11, 95
17, 294000, Control_c, 15, 11, 94
17, 294120, Control_c, 15, 11, 93
17, 294360, Control_c, 15, 11, 92
17, 294480, Control_c, 15, 11, 91
17, 294720, Control_c, 15, 11, 90
17, 294840, Control_c, 15, 11, 89
17, 295080, Control_c, 15, 11, 88
17, 295200, Control_c, 15, 11, 87
17, 295440, Control_c, 15, 11, 86
17, 295560, Control_c, 15, 11, 85
17, 295800, Control_c, 15, 11, 84
17, 295920, Control_c, 15, 11, 83
17, 296160, Control_c, 15, 11, 82
17, 296280, Control_c, 15, 11, 81
17, 296520, Control_c, 15, 11, 80
17, 296605, Note_off_c, 15, 61, 0
17, 296605, Note_off_c, 15, 57, 0
17, 296605, Note_off_c, 15, 59, 0
17, 296605, Note_off_c, 15, 64, 0
17, 296609, Note_on_c, 15, 66, 91
17, 296619, Note_on_c, 15, 59, 104
17, 296619, Note_on_c, 15, 61, 104
17, 296624, Note_on_c, 15, 63, 104
17, 296640, Control_c, 15, 11, 79
17, 296880, Control_c, 15, 11, 78
17, 297000, Control_c, 15, 11, 77
17, 297240, Control_c, 15, 11, 76
17, 297360, Control_c, 15, 11, 75
17, 297600, Control_c, 15, 11, 74
17, 297720, Control_c, 15, 11, 73
17, 297960, Control_c, 15, 11, 72
17, 298080, Control_c, 15, 11, 71
17, 298320, Control_c, 15, 11, 70
17, 298440, Control_c, 15, 11, 69
17, 298680, Control_c, 15, 11, 68
17, 298800, Control_c, 15, 11, 67
17, 299040, Control_c, 15, 11, 66
17, 299160, Control_c, 15, 11, 65
17, 299400, Control_c, 15, 11, 64
17, 299507, Note_off_c, 15, 66, 0
17, 299507, Note_off_c, 15, 59, 0
17, 299507, Note_off_c, 15, 61, 0
17, 299507, Note_off_c, 15, 63, 0
17, 299511, Note_on_c, 15, 63, 104
17, 299515, Note_on_c, 15, 59, 101
17, 299515, Note_on_c, 15, 61, 95
17, 299520, Control_c, 15, 11, 63
17, 299526, Note_on_c, 15, 66, 91
17, 299760, Control_c, 15, 11, 62
17, 300000, Control_c, 15, 11, 61
17, 300120, Control_c, 15, 11, 60
17, 300360, Control_c, 15, 11, 59
17, 300480, Control_c, 15, 11, 58
17, 300720, Control_c, 15, 11, 57
17, 300840, Control_c, 15, 11, 56
17, 301080, Control_c, 15, 11, 55
17, 301200, Control_c, 15, 11, 54
17, 301440, Control_c, 15, 11, 53
17, 301560, Control_c, 15, 11, 52
17, 301800, Control_c, 15, 11, 51
17, 301920, Control_c, 15, 11, 50
17, 302160, Control_c, 15, 11, 49
17, 302280, Control_c, 15, 11, 48
17, 302368, Note_off_c, 15, 63, 0
17, 302368, Note_off_c, 15, 59, 0
17, 302368, Note_off_c, 15, 61, 0
17, 302368, Note_off_c, 15, 66, 0
17, 302372, Note_on_c, 15, 66, 83
17, 302381, Note_on_c, 15, 57, 97
17, 302387, Note_on_c, 15, 62, 108
17, 302392, Note_on_c, 15, 59, 113
17, 302520, Control_c, 15, 11, 47
17, 302640, Control_c, 15, 11, 46
17, 302880, Control_c, 15, 11, 45
17, 303000, Control_c, 15, 11, 44
17, 303240, Control_c, 15, 11, 43
17, 303360, Control_c, 15, 11, 42
17, 303600, Control_c, 15, 11, 41
17, 303720, Control_c, 15, 11, 40
17, 303960, Control_c, 15, 11, 39
17, 304080, Control_c, 15, 11, 38
17, 304320, Control_c, 15, 11, 37
17, 304440, Control_c, 15, 11, 36
17, 304680, Control_c, 15, 11, 35
17, 304800, Control_c, 15, 11, 34
17, 305040, Control_c, 15, 11, 33
17, 305160, Control_c, 15, 11, 32
17, 305255, Note_off_c, 15, 66, 0
17, 305255, Note_off_c, 15, 57, 0
17, 305255, Note_off_c, 15, 62, 0
17, 305255, Note_off_c, 15, 59, 0
17, 305259, Note_on_c, 15, 61, 95
17, 305263, Note_on_c, 15, 59, 113
17, 305272, Note_on_c, 15, 57, 101
17, 305277, Note_on_c, 15, 64, 108
17, 305400, Control_c, 15, 11, 31
17, 305520, Control_c, 15, 11, 30
17, 305760, Control_c, 15, 11, 29
17, 305880, Control_c, 15, 11, 28
17, 306120, Control_c, 15, 11, 27
17, 306240, Control_c, 15, 11, 26
17, 306480, Control_c, 15, 11, 25
17, 306600, Control_c, 15, 11, 24
17, 306840, Control_c, 15, 11, 23
17, 306960, Control_c, 15, 11, 22
17, 307200, Control_c, 15, 11, 21
17, 307440, Control_c, 15, 11, 20
17, 307560, Control_c, 15, 11, 19
17, 307800, Control_c, 15, 11, 18
17, 307920, Control_c, 15, 11, 17
17, 308160, Control_c, 15, 11, 16
17, 308280, Control_c, 15, 11, 15
17, 308520, Control_c, 15, 11, 14
17, 308640, Control_c, 15, 11, 13
17, 308880, Control_c, 15, 11, 12
17, 309000, Control_c, 15, 11, 11
17, 309240, Control_c, 15, 11, 10
17, 309360, Control_c, 15, 11, 9
17, 309596, Note_off_c, 15, 61, 0
17, 309596, Note_off_c, 15, 59, 0
17, 309596, Note_off_c, 15, 57, 0
17, 309596, Note_off_c, 15, 64, 0
17, 309600, Control_c, 15, 11, 8
17, 309600, Note_on_c, 15, 55, 110
17, 309600, Note_on_c, 15, 59, 110
17, 309600, Note_on_c, 15, 62, 110
17, 309720, Control_c, 15, 11, 7
17, 309960, Control_c, 15, 11, 6
17, 310080, Control_c, 15, 11, 5
17, 310320, Control_c, 15, 11, 4
17, 310440, Control_c, 15, 11, 3
17, 310680, Control_c, 15, 11, 2
17, 310800, Control_c, 15, 11, 1
17, 311031, Control_c, 15, 7, 67
17, 311036, Note_off_c, 15, 55, 0
17, 311036, Note_off_c, 15, 59, 0
17, 311036, Note_off_c, 15, 62, 0
17, 311036, End_track
0, 0, End_of_file
