0, 0, Header, 1, 15, 480
1, 0, Start_track
1, 0, Title_t, "1767_Break_your_heart"
1, 0, Copyright_t, "Universal, 2010"
1, 0, Text_t, "Taio Cruz"
1, 0, Text_t, "www.midi-sequencs.com"
1, 0, Text_t, "04101767 Break your heart_Taio Cruz\012"
1, 0, Text_t, "Universal, 2010\012"
1, 0, Text_t, "P) 2009 Universal Island Records Ltd.\012"
1, 0, Text_t, "Durée : 3 mn 23\012"
1, 0, Text_t, "Label : Universal Music\012"
1, 0, Text_t, "Compositeurs : Taio Cruz , Fraser T. Smith\012"
1, 0, MIDI_port, 0
1, 0, System_exclusive, 10, 65, 16, 66, 18, 64, 0, 127, 0, 65, 247
1, 0, MIDI_port, 0
1, 0, Time_signature, 4, 2, 24, 8
1, 0, Key_signature, 0, "major"
1, 0, Tempo, 491803
1, 0, End_track
2, 0, Start_track
2, 0, MIDI_port, 0
2, 0, Title_t, "Titre"
2, 0, End_track
3, 0, Start_track
3, 0, MIDI_port, 0
3, 0, Title_t, "ElPiano"
3, 480, Control_c, 0, 0, 0
3, 482, Program_c, 0, 4
3, 483, Control_c, 0, 7, 100
3, 483, Control_c, 0, 10, 64
3, 1007, Control_c, 0, 121, 0
3, 1015, Control_c, 0, 91, 50
3, 1016, Control_c, 0, 93, 40
3, 1017, Control_c, 0, 94, 0
3, 1018, Control_c, 0, 11, 127
3, 1022, Control_c, 0, 101, 0
3, 1022, Control_c, 0, 100, 0
3, 1022, Control_c, 0, 6, 2
3, 1022, Control_c, 0, 38, 0
3, 1023, Control_c, 0, 71, 64
3, 1025, Control_c, 0, 72, 64
3, 1026, Control_c, 0, 73, 64
3, 1027, Control_c, 0, 74, 64
3, 3840, Note_on_c, 0, 55, 101
3, 3840, Note_on_c, 0, 60, 91
3, 3840, Note_on_c, 0, 63, 100
3, 4473, Note_on_c, 0, 63, 0
3, 4477, Note_on_c, 0, 60, 0
3, 4481, Note_on_c, 0, 55, 0
3, 4560, Note_on_c, 0, 56, 86
3, 4560, Note_on_c, 0, 60, 95
3, 4560, Note_on_c, 0, 63, 89
3, 5382, Note_on_c, 0, 56, 0
3, 5390, Note_on_c, 0, 63, 0
3, 5419, Note_on_c, 0, 60, 0
3, 5520, Note_on_c, 0, 55, 98
3, 5520, Note_on_c, 0, 58, 100
3, 5520, Note_on_c, 0, 63, 89
3, 6407, Note_on_c, 0, 58, 0
3, 6411, Note_on_c, 0, 55, 0
3, 6427, Note_on_c, 0, 63, 0
3, 6480, Note_on_c, 0, 55, 87
3, 6480, Note_on_c, 0, 58, 84
3, 6480, Note_on_c, 0, 62, 101
3, 7548, Note_on_c, 0, 62, 0
3, 7552, Note_on_c, 0, 55, 0
3, 7560, Note_on_c, 0, 58, 0
3, 7680, Note_on_c, 0, 55, 101
3, 7680, Note_on_c, 0, 60, 91
3, 7680, Note_on_c, 0, 63, 100
3, 8313, Note_on_c, 0, 63, 0
3, 8317, Note_on_c, 0, 60, 0
3, 8321, Note_on_c, 0, 55, 0
3, 8400, Note_on_c, 0, 56, 86
3, 8400, Note_on_c, 0, 60, 95
3, 8400, Note_on_c, 0, 63, 89
3, 9222, Note_on_c, 0, 56, 0
3, 9230, Note_on_c, 0, 63, 0
3, 9259, Note_on_c, 0, 60, 0
3, 9360, Note_on_c, 0, 55, 98
3, 9360, Note_on_c, 0, 58, 100
3, 9360, Note_on_c, 0, 63, 89
3, 10247, Note_on_c, 0, 58, 0
3, 10251, Note_on_c, 0, 55, 0
3, 10267, Note_on_c, 0, 63, 0
3, 10320, Note_on_c, 0, 55, 87
3, 10320, Note_on_c, 0, 58, 84
3, 10320, Note_on_c, 0, 62, 101
3, 11388, Note_on_c, 0, 62, 0
3, 11392, Note_on_c, 0, 55, 0
3, 11400, Note_on_c, 0, 58, 0
3, 11520, Note_on_c, 0, 55, 89
3, 11520, Note_on_c, 0, 60, 93
3, 11520, Note_on_c, 0, 63, 93
3, 12167, Note_on_c, 0, 63, 0
3, 12176, Note_on_c, 0, 60, 0
3, 12186, Note_on_c, 0, 55, 0
3, 12240, Note_on_c, 0, 56, 89
3, 12240, Note_on_c, 0, 60, 93
3, 12240, Note_on_c, 0, 63, 89
3, 13095, Note_on_c, 0, 63, 0
3, 13097, Note_on_c, 0, 56, 0
3, 13133, Note_on_c, 0, 60, 0
3, 13200, Note_on_c, 0, 55, 93
3, 13200, Note_on_c, 0, 58, 93
3, 13200, Note_on_c, 0, 63, 89
3, 14034, Note_on_c, 0, 55, 0
3, 14041, Note_on_c, 0, 58, 0
3, 14057, Note_on_c, 0, 63, 0
3, 14160, Note_on_c, 0, 55, 83
3, 14160, Note_on_c, 0, 58, 84
3, 14160, Note_on_c, 0, 62, 98
3, 15248, Note_on_c, 0, 62, 0
3, 15250, Note_on_c, 0, 55, 0
3, 15293, Note_on_c, 0, 58, 0
3, 15360, Note_on_c, 0, 55, 93
3, 15360, Note_on_c, 0, 60, 91
3, 15360, Note_on_c, 0, 63, 93
3, 15998, Note_on_c, 0, 63, 0
3, 16005, Note_on_c, 0, 55, 0
3, 16011, Note_on_c, 0, 60, 0
3, 16080, Note_on_c, 0, 56, 89
3, 16080, Note_on_c, 0, 60, 89
3, 16080, Note_on_c, 0, 63, 86
3, 16929, Note_on_c, 0, 56, 0
3, 16949, Note_on_c, 0, 63, 0
3, 16957, Note_on_c, 0, 60, 0
3, 17040, Note_on_c, 0, 55, 91
3, 17040, Note_on_c, 0, 58, 93
3, 17040, Note_on_c, 0, 63, 86
3, 17848, Note_on_c, 0, 55, 0
3, 17853, Note_on_c, 0, 58, 0
3, 17869, Note_on_c, 0, 63, 0
3, 18000, Note_on_c, 0, 55, 93
3, 18000, Note_on_c, 0, 58, 89
3, 18000, Note_on_c, 0, 62, 98
3, 19185, Note_on_c, 0, 58, 0
3, 19196, Note_on_c, 0, 55, 0
3, 19212, Note_on_c, 0, 62, 0
3, 34560, Note_on_c, 0, 60, 91
3, 34560, Note_on_c, 0, 63, 108
3, 34560, Note_on_c, 0, 67, 115
3, 36130, Note_on_c, 0, 63, 0
3, 36140, Note_on_c, 0, 60, 0
3, 36147, Note_on_c, 0, 67, 0
3, 36240, Note_on_c, 0, 60, 91
3, 36240, Note_on_c, 0, 63, 100
3, 36240, Note_on_c, 0, 68, 100
3, 38178, Note_on_c, 0, 60, 0
3, 38237, Note_on_c, 0, 68, 0
3, 38246, Note_on_c, 0, 63, 0
3, 38400, Note_on_c, 0, 58, 93
3, 38400, Note_on_c, 0, 63, 108
3, 38400, Note_on_c, 0, 67, 111
3, 39890, Note_on_c, 0, 67, 0
3, 39941, Note_on_c, 0, 58, 0
3, 39987, Note_on_c, 0, 63, 0
3, 40080, Note_on_c, 0, 58, 86
3, 40080, Note_on_c, 0, 62, 107
3, 40080, Note_on_c, 0, 65, 98
3, 42141, Note_on_c, 0, 62, 0
3, 42141, Note_on_c, 0, 58, 0
3, 42181, Note_on_c, 0, 65, 0
3, 42240, Note_on_c, 0, 60, 91
3, 42240, Note_on_c, 0, 63, 108
3, 42240, Note_on_c, 0, 67, 115
3, 43810, Note_on_c, 0, 63, 0
3, 43820, Note_on_c, 0, 60, 0
3, 43827, Note_on_c, 0, 67, 0
3, 43920, Note_on_c, 0, 60, 91
3, 43920, Note_on_c, 0, 63, 100
3, 43920, Note_on_c, 0, 68, 100
3, 45858, Note_on_c, 0, 60, 0
3, 45917, Note_on_c, 0, 68, 0
3, 45926, Note_on_c, 0, 63, 0
3, 46080, Note_on_c, 0, 58, 93
3, 46080, Note_on_c, 0, 63, 108
3, 46080, Note_on_c, 0, 67, 111
3, 47570, Note_on_c, 0, 67, 0
3, 47621, Note_on_c, 0, 58, 0
3, 47667, Note_on_c, 0, 63, 0
3, 47760, Note_on_c, 0, 58, 86
3, 47760, Note_on_c, 0, 62, 107
3, 47760, Note_on_c, 0, 65, 98
3, 49821, Note_on_c, 0, 62, 0
3, 49821, Note_on_c, 0, 58, 0
3, 49861, Note_on_c, 0, 65, 0
3, 49920, Note_on_c, 0, 55, 104
3, 49920, Note_on_c, 0, 60, 93
3, 49920, Note_on_c, 0, 63, 100
3, 50517, Note_on_c, 0, 55, 0
3, 50518, Note_on_c, 0, 63, 0
3, 50521, Note_on_c, 0, 60, 0
3, 50640, Note_on_c, 0, 56, 89
3, 50640, Note_on_c, 0, 60, 98
3, 50640, Note_on_c, 0, 63, 93
3, 51507, Note_on_c, 0, 56, 0
3, 51535, Note_on_c, 0, 63, 0
3, 51564, Note_on_c, 0, 60, 0
3, 51600, Note_on_c, 0, 55, 104
3, 51600, Note_on_c, 0, 58, 116
3, 51600, Note_on_c, 0, 63, 100
3, 52706, Note_on_c, 0, 55, 0
3, 52718, Note_on_c, 0, 58, 0
3, 52733, Note_on_c, 0, 63, 0
3, 52800, Note_on_c, 0, 53, 87
3, 52800, Note_on_c, 0, 58, 93
3, 52800, Note_on_c, 0, 62, 101
3, 53588, Note_on_c, 0, 53, 0
3, 53607, Note_on_c, 0, 62, 0
3, 53646, Note_on_c, 0, 58, 0
3, 53760, Note_on_c, 0, 55, 95
3, 53760, Note_on_c, 0, 60, 91
3, 53760, Note_on_c, 0, 63, 93
3, 54391, Note_on_c, 0, 63, 0
3, 54394, Note_on_c, 0, 55, 0
3, 54396, Note_on_c, 0, 60, 0
3, 54480, Note_on_c, 0, 56, 93
3, 54480, Note_on_c, 0, 60, 91
3, 54480, Note_on_c, 0, 63, 100
3, 55326, Note_on_c, 0, 56, 0
3, 55386, Note_on_c, 0, 63, 0
3, 55397, Note_on_c, 0, 60, 0
3, 55440, Note_on_c, 0, 55, 104
3, 55440, Note_on_c, 0, 58, 108
3, 55440, Note_on_c, 0, 63, 100
3, 56519, Note_on_c, 0, 55, 0
3, 56533, Note_on_c, 0, 58, 0
3, 56534, Note_on_c, 0, 63, 0
3, 56640, Note_on_c, 0, 53, 91
3, 56640, Note_on_c, 0, 58, 100
3, 56640, Note_on_c, 0, 62, 107
3, 57499, Note_on_c, 0, 53, 0
3, 57509, Note_on_c, 0, 58, 0
3, 57530, Note_on_c, 0, 62, 0
3, 57600, Note_on_c, 0, 55, 104
3, 57600, Note_on_c, 0, 60, 93
3, 57600, Note_on_c, 0, 63, 100
3, 58197, Note_on_c, 0, 55, 0
3, 58198, Note_on_c, 0, 63, 0
3, 58201, Note_on_c, 0, 60, 0
3, 58320, Note_on_c, 0, 56, 89
3, 58320, Note_on_c, 0, 60, 98
3, 58320, Note_on_c, 0, 63, 93
3, 59187, Note_on_c, 0, 56, 0
3, 59215, Note_on_c, 0, 63, 0
3, 59244, Note_on_c, 0, 60, 0
3, 59280, Note_on_c, 0, 55, 104
3, 59280, Note_on_c, 0, 58, 116
3, 59280, Note_on_c, 0, 63, 100
3, 60386, Note_on_c, 0, 55, 0
3, 60398, Note_on_c, 0, 58, 0
3, 60413, Note_on_c, 0, 63, 0
3, 60480, Note_on_c, 0, 53, 87
3, 60480, Note_on_c, 0, 58, 93
3, 60480, Note_on_c, 0, 62, 101
3, 61268, Note_on_c, 0, 53, 0
3, 61287, Note_on_c, 0, 62, 0
3, 61326, Note_on_c, 0, 58, 0
3, 61440, Note_on_c, 0, 55, 95
3, 61440, Note_on_c, 0, 60, 91
3, 61440, Note_on_c, 0, 63, 93
3, 62071, Note_on_c, 0, 63, 0
3, 62074, Note_on_c, 0, 55, 0
3, 62076, Note_on_c, 0, 60, 0
3, 62160, Note_on_c, 0, 56, 93
3, 62160, Note_on_c, 0, 60, 91
3, 62160, Note_on_c, 0, 63, 100
3, 63006, Note_on_c, 0, 56, 0
3, 63066, Note_on_c, 0, 63, 0
3, 63077, Note_on_c, 0, 60, 0
3, 63120, Note_on_c, 0, 55, 104
3, 63120, Note_on_c, 0, 58, 108
3, 63120, Note_on_c, 0, 63, 100
3, 64199, Note_on_c, 0, 55, 0
3, 64213, Note_on_c, 0, 58, 0
3, 64214, Note_on_c, 0, 63, 0
3, 64320, Note_on_c, 0, 53, 91
3, 64320, Note_on_c, 0, 58, 100
3, 64320, Note_on_c, 0, 62, 107
3, 65179, Note_on_c, 0, 53, 0
3, 65189, Note_on_c, 0, 58, 0
3, 65210, Note_on_c, 0, 62, 0
3, 65280, Note_on_c, 0, 55, 104
3, 65280, Note_on_c, 0, 60, 93
3, 65280, Note_on_c, 0, 63, 100
3, 65877, Note_on_c, 0, 55, 0
3, 65878, Note_on_c, 0, 63, 0
3, 65881, Note_on_c, 0, 60, 0
3, 66000, Note_on_c, 0, 56, 89
3, 66000, Note_on_c, 0, 60, 98
3, 66000, Note_on_c, 0, 63, 93
3, 66867, Note_on_c, 0, 56, 0
3, 66895, Note_on_c, 0, 63, 0
3, 66924, Note_on_c, 0, 60, 0
3, 66960, Note_on_c, 0, 55, 104
3, 66960, Note_on_c, 0, 58, 116
3, 66960, Note_on_c, 0, 63, 100
3, 68066, Note_on_c, 0, 55, 0
3, 68078, Note_on_c, 0, 58, 0
3, 68093, Note_on_c, 0, 63, 0
3, 68160, Note_on_c, 0, 53, 87
3, 68160, Note_on_c, 0, 58, 93
3, 68160, Note_on_c, 0, 62, 101
3, 68948, Note_on_c, 0, 53, 0
3, 68967, Note_on_c, 0, 62, 0
3, 69006, Note_on_c, 0, 58, 0
3, 69120, Note_on_c, 0, 55, 95
3, 69120, Note_on_c, 0, 60, 91
3, 69120, Note_on_c, 0, 63, 93
3, 69751, Note_on_c, 0, 63, 0
3, 69754, Note_on_c, 0, 55, 0
3, 69756, Note_on_c, 0, 60, 0
3, 69840, Note_on_c, 0, 56, 93
3, 69840, Note_on_c, 0, 60, 91
3, 69840, Note_on_c, 0, 63, 100
3, 70686, Note_on_c, 0, 56, 0
3, 70746, Note_on_c, 0, 63, 0
3, 70757, Note_on_c, 0, 60, 0
3, 70800, Note_on_c, 0, 55, 104
3, 70800, Note_on_c, 0, 58, 108
3, 70800, Note_on_c, 0, 63, 100
3, 71879, Note_on_c, 0, 55, 0
3, 71893, Note_on_c, 0, 58, 0
3, 71894, Note_on_c, 0, 63, 0
3, 72000, Note_on_c, 0, 53, 91
3, 72000, Note_on_c, 0, 58, 100
3, 72000, Note_on_c, 0, 62, 107
3, 72859, Note_on_c, 0, 53, 0
3, 72869, Note_on_c, 0, 58, 0
3, 72890, Note_on_c, 0, 62, 0
3, 88320, Note_on_c, 0, 60, 91
3, 88320, Note_on_c, 0, 63, 108
3, 88320, Note_on_c, 0, 67, 115
3, 89890, Note_on_c, 0, 63, 0
3, 89900, Note_on_c, 0, 60, 0
3, 89907, Note_on_c, 0, 67, 0
3, 90000, Note_on_c, 0, 60, 91
3, 90000, Note_on_c, 0, 63, 100
3, 90000, Note_on_c, 0, 68, 100
3, 91938, Note_on_c, 0, 60, 0
3, 91997, Note_on_c, 0, 68, 0
3, 92006, Note_on_c, 0, 63, 0
3, 92160, Note_on_c, 0, 58, 93
3, 92160, Note_on_c, 0, 63, 108
3, 92160, Note_on_c, 0, 67, 111
3, 93650, Note_on_c, 0, 67, 0
3, 93701, Note_on_c, 0, 58, 0
3, 93747, Note_on_c, 0, 63, 0
3, 93840, Note_on_c, 0, 58, 86
3, 93840, Note_on_c, 0, 62, 107
3, 93840, Note_on_c, 0, 65, 98
3, 95901, Note_on_c, 0, 62, 0
3, 95901, Note_on_c, 0, 58, 0
3, 95941, Note_on_c, 0, 65, 0
3, 96000, Note_on_c, 0, 60, 91
3, 96000, Note_on_c, 0, 63, 108
3, 96000, Note_on_c, 0, 67, 115
3, 97570, Note_on_c, 0, 63, 0
3, 97580, Note_on_c, 0, 60, 0
3, 97587, Note_on_c, 0, 67, 0
3, 97680, Note_on_c, 0, 60, 91
3, 97680, Note_on_c, 0, 63, 100
3, 97680, Note_on_c, 0, 68, 100
3, 99618, Note_on_c, 0, 60, 0
3, 99677, Note_on_c, 0, 68, 0
3, 99686, Note_on_c, 0, 63, 0
3, 99840, Note_on_c, 0, 58, 93
3, 99840, Note_on_c, 0, 63, 108
3, 99840, Note_on_c, 0, 67, 111
3, 101330, Note_on_c, 0, 67, 0
3, 101381, Note_on_c, 0, 58, 0
3, 101427, Note_on_c, 0, 63, 0
3, 101520, Note_on_c, 0, 58, 86
3, 101520, Note_on_c, 0, 62, 107
3, 101520, Note_on_c, 0, 65, 98
3, 103581, Note_on_c, 0, 62, 0
3, 103581, Note_on_c, 0, 58, 0
3, 103621, Note_on_c, 0, 65, 0
3, 103680, Note_on_c, 0, 55, 104
3, 103680, Note_on_c, 0, 60, 93
3, 103680, Note_on_c, 0, 63, 100
3, 104277, Note_on_c, 0, 55, 0
3, 104278, Note_on_c, 0, 63, 0
3, 104281, Note_on_c, 0, 60, 0
3, 104400, Note_on_c, 0, 56, 89
3, 104400, Note_on_c, 0, 60, 98
3, 104400, Note_on_c, 0, 63, 93
3, 105267, Note_on_c, 0, 56, 0
3, 105295, Note_on_c, 0, 63, 0
3, 105324, Note_on_c, 0, 60, 0
3, 105360, Note_on_c, 0, 55, 104
3, 105360, Note_on_c, 0, 58, 116
3, 105360, Note_on_c, 0, 63, 100
3, 106466, Note_on_c, 0, 55, 0
3, 106478, Note_on_c, 0, 58, 0
3, 106493, Note_on_c, 0, 63, 0
3, 106560, Note_on_c, 0, 53, 87
3, 106560, Note_on_c, 0, 58, 93
3, 106560, Note_on_c, 0, 62, 101
3, 107348, Note_on_c, 0, 53, 0
3, 107367, Note_on_c, 0, 62, 0
3, 107406, Note_on_c, 0, 58, 0
3, 107520, Note_on_c, 0, 55, 95
3, 107520, Note_on_c, 0, 60, 91
3, 107520, Note_on_c, 0, 63, 93
3, 108151, Note_on_c, 0, 63, 0
3, 108154, Note_on_c, 0, 55, 0
3, 108156, Note_on_c, 0, 60, 0
3, 108240, Note_on_c, 0, 56, 93
3, 108240, Note_on_c, 0, 60, 91
3, 108240, Note_on_c, 0, 63, 100
3, 109086, Note_on_c, 0, 56, 0
3, 109146, Note_on_c, 0, 63, 0
3, 109157, Note_on_c, 0, 60, 0
3, 109200, Note_on_c, 0, 55, 104
3, 109200, Note_on_c, 0, 58, 108
3, 109200, Note_on_c, 0, 63, 100
3, 110279, Note_on_c, 0, 55, 0
3, 110293, Note_on_c, 0, 58, 0
3, 110294, Note_on_c, 0, 63, 0
3, 110400, Note_on_c, 0, 53, 91
3, 110400, Note_on_c, 0, 58, 100
3, 110400, Note_on_c, 0, 62, 107
3, 111259, Note_on_c, 0, 53, 0
3, 111269, Note_on_c, 0, 58, 0
3, 111290, Note_on_c, 0, 62, 0
3, 111360, Note_on_c, 0, 55, 104
3, 111360, Note_on_c, 0, 60, 93
3, 111360, Note_on_c, 0, 63, 100
3, 111957, Note_on_c, 0, 55, 0
3, 111958, Note_on_c, 0, 63, 0
3, 111961, Note_on_c, 0, 60, 0
3, 112080, Note_on_c, 0, 56, 89
3, 112080, Note_on_c, 0, 60, 98
3, 112080, Note_on_c, 0, 63, 93
3, 112947, Note_on_c, 0, 56, 0
3, 112975, Note_on_c, 0, 63, 0
3, 113004, Note_on_c, 0, 60, 0
3, 113040, Note_on_c, 0, 55, 104
3, 113040, Note_on_c, 0, 58, 116
3, 113040, Note_on_c, 0, 63, 100
3, 114146, Note_on_c, 0, 55, 0
3, 114158, Note_on_c, 0, 58, 0
3, 114173, Note_on_c, 0, 63, 0
3, 114240, Note_on_c, 0, 53, 87
3, 114240, Note_on_c, 0, 58, 93
3, 114240, Note_on_c, 0, 62, 101
3, 115028, Note_on_c, 0, 53, 0
3, 115047, Note_on_c, 0, 62, 0
3, 115086, Note_on_c, 0, 58, 0
3, 115200, Note_on_c, 0, 55, 95
3, 115200, Note_on_c, 0, 60, 91
3, 115200, Note_on_c, 0, 63, 93
3, 115831, Note_on_c, 0, 63, 0
3, 115834, Note_on_c, 0, 55, 0
3, 115836, Note_on_c, 0, 60, 0
3, 115920, Note_on_c, 0, 56, 93
3, 115920, Note_on_c, 0, 60, 91
3, 115920, Note_on_c, 0, 63, 100
3, 116766, Note_on_c, 0, 56, 0
3, 116826, Note_on_c, 0, 63, 0
3, 116837, Note_on_c, 0, 60, 0
3, 116880, Note_on_c, 0, 55, 104
3, 116880, Note_on_c, 0, 58, 108
3, 116880, Note_on_c, 0, 63, 100
3, 117959, Note_on_c, 0, 55, 0
3, 117973, Note_on_c, 0, 58, 0
3, 117974, Note_on_c, 0, 63, 0
3, 118080, Note_on_c, 0, 53, 91
3, 118080, Note_on_c, 0, 58, 100
3, 118080, Note_on_c, 0, 62, 107
3, 118939, Note_on_c, 0, 53, 0
3, 118949, Note_on_c, 0, 58, 0
3, 118970, Note_on_c, 0, 62, 0
3, 119040, Note_on_c, 0, 55, 101
3, 119040, Note_on_c, 0, 60, 91
3, 119040, Note_on_c, 0, 63, 100
3, 119673, Note_on_c, 0, 63, 0
3, 119677, Note_on_c, 0, 60, 0
3, 119681, Note_on_c, 0, 55, 0
3, 119760, Note_on_c, 0, 56, 86
3, 119760, Note_on_c, 0, 60, 95
3, 119760, Note_on_c, 0, 63, 89
3, 120582, Note_on_c, 0, 56, 0
3, 120590, Note_on_c, 0, 63, 0
3, 120619, Note_on_c, 0, 60, 0
3, 120720, Note_on_c, 0, 55, 98
3, 120720, Note_on_c, 0, 58, 100
3, 120720, Note_on_c, 0, 63, 89
3, 121607, Note_on_c, 0, 58, 0
3, 121611, Note_on_c, 0, 55, 0
3, 121627, Note_on_c, 0, 63, 0
3, 121680, Note_on_c, 0, 55, 87
3, 121680, Note_on_c, 0, 58, 84
3, 121680, Note_on_c, 0, 62, 101
3, 122748, Note_on_c, 0, 62, 0
3, 122752, Note_on_c, 0, 55, 0
3, 122760, Note_on_c, 0, 58, 0
3, 122880, Note_on_c, 0, 55, 101
3, 122880, Note_on_c, 0, 60, 91
3, 122880, Note_on_c, 0, 63, 100
3, 123513, Note_on_c, 0, 63, 0
3, 123517, Note_on_c, 0, 60, 0
3, 123521, Note_on_c, 0, 55, 0
3, 123600, Note_on_c, 0, 56, 86
3, 123600, Note_on_c, 0, 60, 95
3, 123600, Note_on_c, 0, 63, 89
3, 124422, Note_on_c, 0, 56, 0
3, 124430, Note_on_c, 0, 63, 0
3, 124459, Note_on_c, 0, 60, 0
3, 124560, Note_on_c, 0, 55, 98
3, 124560, Note_on_c, 0, 58, 100
3, 124560, Note_on_c, 0, 63, 89
3, 125447, Note_on_c, 0, 58, 0
3, 125451, Note_on_c, 0, 55, 0
3, 125467, Note_on_c, 0, 63, 0
3, 125520, Note_on_c, 0, 55, 87
3, 125520, Note_on_c, 0, 58, 84
3, 125520, Note_on_c, 0, 62, 101
3, 126588, Note_on_c, 0, 62, 0
3, 126592, Note_on_c, 0, 55, 0
3, 126600, Note_on_c, 0, 58, 0
3, 126720, Note_on_c, 0, 55, 89
3, 126720, Note_on_c, 0, 60, 93
3, 126720, Note_on_c, 0, 63, 93
3, 127367, Note_on_c, 0, 63, 0
3, 127376, Note_on_c, 0, 60, 0
3, 127386, Note_on_c, 0, 55, 0
3, 127440, Note_on_c, 0, 56, 89
3, 127440, Note_on_c, 0, 60, 93
3, 127440, Note_on_c, 0, 63, 89
3, 128295, Note_on_c, 0, 63, 0
3, 128297, Note_on_c, 0, 56, 0
3, 128333, Note_on_c, 0, 60, 0
3, 128400, Note_on_c, 0, 55, 93
3, 128400, Note_on_c, 0, 58, 93
3, 128400, Note_on_c, 0, 63, 89
3, 129234, Note_on_c, 0, 55, 0
3, 129241, Note_on_c, 0, 58, 0
3, 129257, Note_on_c, 0, 63, 0
3, 129360, Note_on_c, 0, 55, 83
3, 129360, Note_on_c, 0, 58, 84
3, 129360, Note_on_c, 0, 62, 98
3, 130448, Note_on_c, 0, 62, 0
3, 130450, Note_on_c, 0, 55, 0
3, 130493, Note_on_c, 0, 58, 0
3, 130560, Note_on_c, 0, 55, 93
3, 130560, Note_on_c, 0, 60, 91
3, 130560, Note_on_c, 0, 63, 93
3, 131198, Note_on_c, 0, 63, 0
3, 131205, Note_on_c, 0, 55, 0
3, 131211, Note_on_c, 0, 60, 0
3, 131280, Note_on_c, 0, 56, 89
3, 131280, Note_on_c, 0, 60, 89
3, 131280, Note_on_c, 0, 63, 86
3, 132129, Note_on_c, 0, 56, 0
3, 132149, Note_on_c, 0, 63, 0
3, 132157, Note_on_c, 0, 60, 0
3, 132240, Note_on_c, 0, 55, 91
3, 132240, Note_on_c, 0, 58, 93
3, 132240, Note_on_c, 0, 63, 86
3, 133048, Note_on_c, 0, 55, 0
3, 133053, Note_on_c, 0, 58, 0
3, 133069, Note_on_c, 0, 63, 0
3, 133200, Note_on_c, 0, 55, 93
3, 133200, Note_on_c, 0, 58, 89
3, 133200, Note_on_c, 0, 62, 98
3, 134385, Note_on_c, 0, 58, 0
3, 134396, Note_on_c, 0, 55, 0
3, 134400, Note_on_c, 0, 55, 92
3, 134400, Note_on_c, 0, 60, 92
3, 134400, Note_on_c, 0, 63, 92
3, 134412, Note_on_c, 0, 62, 0
3, 135935, Note_on_c, 0, 63, 0
3, 135963, Note_on_c, 0, 60, 0
3, 135968, Note_on_c, 0, 55, 0
3, 136080, Note_on_c, 0, 56, 92
3, 136080, Note_on_c, 0, 60, 92
3, 136080, Note_on_c, 0, 63, 92
3, 137990, Note_on_c, 0, 56, 0
3, 137998, Note_on_c, 0, 63, 0
3, 137998, Note_on_c, 0, 60, 0
3, 138000, Note_on_c, 0, 55, 89
3, 138000, Note_on_c, 0, 58, 89
3, 138000, Note_on_c, 0, 63, 89
3, 139819, Note_on_c, 0, 58, 0
3, 139827, Note_on_c, 0, 63, 0
3, 139827, Note_on_c, 0, 55, 0
3, 139920, Note_on_c, 0, 55, 88
3, 139920, Note_on_c, 0, 58, 88
3, 139920, Note_on_c, 0, 62, 88
3, 142003, Note_on_c, 0, 58, 0
3, 142016, Note_on_c, 0, 62, 0
3, 142016, Note_on_c, 0, 55, 0
3, 142080, Note_on_c, 0, 55, 92
3, 142080, Note_on_c, 0, 60, 92
3, 142080, Note_on_c, 0, 63, 92
3, 143615, Note_on_c, 0, 63, 0
3, 143643, Note_on_c, 0, 60, 0
3, 143648, Note_on_c, 0, 55, 0
3, 143760, Note_on_c, 0, 56, 92
3, 143760, Note_on_c, 0, 60, 92
3, 143760, Note_on_c, 0, 63, 92
3, 145670, Note_on_c, 0, 56, 0
3, 145678, Note_on_c, 0, 63, 0
3, 145678, Note_on_c, 0, 60, 0
3, 145680, Note_on_c, 0, 55, 89
3, 145680, Note_on_c, 0, 58, 89
3, 145680, Note_on_c, 0, 63, 89
3, 147499, Note_on_c, 0, 58, 0
3, 147507, Note_on_c, 0, 63, 0
3, 147507, Note_on_c, 0, 55, 0
3, 147600, Note_on_c, 0, 55, 88
3, 147600, Note_on_c, 0, 58, 88
3, 147600, Note_on_c, 0, 62, 88
3, 149683, Note_on_c, 0, 58, 0
3, 149696, Note_on_c, 0, 62, 0
3, 149696, Note_on_c, 0, 55, 0
3, 149760, Note_on_c, 0, 55, 104
3, 149760, Note_on_c, 0, 60, 93
3, 149760, Note_on_c, 0, 63, 100
3, 150357, Note_on_c, 0, 55, 0
3, 150358, Note_on_c, 0, 63, 0
3, 150361, Note_on_c, 0, 60, 0
3, 150480, Note_on_c, 0, 56, 89
3, 150480, Note_on_c, 0, 60, 98
3, 150480, Note_on_c, 0, 63, 93
3, 151347, Note_on_c, 0, 56, 0
3, 151375, Note_on_c, 0, 63, 0
3, 151404, Note_on_c, 0, 60, 0
3, 151440, Note_on_c, 0, 55, 104
3, 151440, Note_on_c, 0, 58, 116
3, 151440, Note_on_c, 0, 63, 100
3, 152546, Note_on_c, 0, 55, 0
3, 152558, Note_on_c, 0, 58, 0
3, 152573, Note_on_c, 0, 63, 0
3, 152640, Note_on_c, 0, 55, 87
3, 152640, Note_on_c, 0, 58, 93
3, 152640, Note_on_c, 0, 62, 101
3, 153428, Note_on_c, 0, 55, 0
3, 153447, Note_on_c, 0, 62, 0
3, 153486, Note_on_c, 0, 58, 0
3, 153600, Note_on_c, 0, 55, 95
3, 153600, Note_on_c, 0, 60, 91
3, 153600, Note_on_c, 0, 63, 93
3, 154231, Note_on_c, 0, 63, 0
3, 154234, Note_on_c, 0, 55, 0
3, 154236, Note_on_c, 0, 60, 0
3, 154320, Note_on_c, 0, 56, 93
3, 154320, Note_on_c, 0, 60, 91
3, 154320, Note_on_c, 0, 63, 100
3, 155166, Note_on_c, 0, 56, 0
3, 155226, Note_on_c, 0, 63, 0
3, 155237, Note_on_c, 0, 60, 0
3, 155280, Note_on_c, 0, 55, 104
3, 155280, Note_on_c, 0, 58, 108
3, 155280, Note_on_c, 0, 63, 100
3, 156359, Note_on_c, 0, 55, 0
3, 156373, Note_on_c, 0, 58, 0
3, 156374, Note_on_c, 0, 63, 0
3, 156480, Note_on_c, 0, 55, 91
3, 156480, Note_on_c, 0, 58, 100
3, 156480, Note_on_c, 0, 62, 107
3, 157339, Note_on_c, 0, 55, 0
3, 157349, Note_on_c, 0, 58, 0
3, 157370, Note_on_c, 0, 62, 0
3, 157440, Note_on_c, 0, 55, 104
3, 157440, Note_on_c, 0, 60, 93
3, 157440, Note_on_c, 0, 63, 100
3, 158037, Note_on_c, 0, 55, 0
3, 158038, Note_on_c, 0, 63, 0
3, 158041, Note_on_c, 0, 60, 0
3, 158160, Note_on_c, 0, 56, 89
3, 158160, Note_on_c, 0, 60, 98
3, 158160, Note_on_c, 0, 63, 93
3, 159027, Note_on_c, 0, 56, 0
3, 159055, Note_on_c, 0, 63, 0
3, 159084, Note_on_c, 0, 60, 0
3, 159120, Note_on_c, 0, 55, 104
3, 159120, Note_on_c, 0, 58, 116
3, 159120, Note_on_c, 0, 63, 100
3, 160226, Note_on_c, 0, 55, 0
3, 160238, Note_on_c, 0, 58, 0
3, 160253, Note_on_c, 0, 63, 0
3, 160320, Note_on_c, 0, 55, 87
3, 160320, Note_on_c, 0, 58, 93
3, 160320, Note_on_c, 0, 62, 101
3, 161108, Note_on_c, 0, 55, 0
3, 161127, Note_on_c, 0, 62, 0
3, 161166, Note_on_c, 0, 58, 0
3, 161280, Note_on_c, 0, 55, 95
3, 161280, Note_on_c, 0, 60, 91
3, 161280, Note_on_c, 0, 63, 93
3, 161911, Note_on_c, 0, 63, 0
3, 161914, Note_on_c, 0, 55, 0
3, 161916, Note_on_c, 0, 60, 0
3, 162000, Note_on_c, 0, 56, 93
3, 162000, Note_on_c, 0, 60, 91
3, 162000, Note_on_c, 0, 63, 100
3, 162846, Note_on_c, 0, 56, 0
3, 162906, Note_on_c, 0, 63, 0
3, 162917, Note_on_c, 0, 60, 0
3, 162960, Note_on_c, 0, 55, 104
3, 162960, Note_on_c, 0, 58, 108
3, 162960, Note_on_c, 0, 63, 100
3, 164039, Note_on_c, 0, 55, 0
3, 164053, Note_on_c, 0, 58, 0
3, 164054, Note_on_c, 0, 63, 0
3, 164160, Note_on_c, 0, 55, 91
3, 164160, Note_on_c, 0, 58, 100
3, 164160, Note_on_c, 0, 62, 107
3, 165019, Note_on_c, 0, 55, 0
3, 165029, Note_on_c, 0, 58, 0
3, 165050, Note_on_c, 0, 62, 0
3, 165120, Note_on_c, 0, 55, 104
3, 165120, Note_on_c, 0, 60, 93
3, 165120, Note_on_c, 0, 63, 100
3, 165717, Note_on_c, 0, 55, 0
3, 165718, Note_on_c, 0, 63, 0
3, 165721, Note_on_c, 0, 60, 0
3, 165840, Note_on_c, 0, 56, 89
3, 165840, Note_on_c, 0, 60, 98
3, 165840, Note_on_c, 0, 63, 93
3, 166707, Note_on_c, 0, 56, 0
3, 166735, Note_on_c, 0, 63, 0
3, 166764, Note_on_c, 0, 60, 0
3, 166800, Note_on_c, 0, 55, 104
3, 166800, Note_on_c, 0, 58, 116
3, 166800, Note_on_c, 0, 63, 100
3, 167906, Note_on_c, 0, 55, 0
3, 167918, Note_on_c, 0, 58, 0
3, 167933, Note_on_c, 0, 63, 0
3, 168000, Note_on_c, 0, 53, 87
3, 168000, Note_on_c, 0, 58, 93
3, 168000, Note_on_c, 0, 62, 101
3, 168788, Note_on_c, 0, 53, 0
3, 168807, Note_on_c, 0, 62, 0
3, 168846, Note_on_c, 0, 58, 0
3, 168960, Note_on_c, 0, 55, 95
3, 168960, Note_on_c, 0, 60, 91
3, 168960, Note_on_c, 0, 63, 93
3, 169591, Note_on_c, 0, 63, 0
3, 169594, Note_on_c, 0, 55, 0
3, 169596, Note_on_c, 0, 60, 0
3, 169680, Note_on_c, 0, 56, 93
3, 169680, Note_on_c, 0, 60, 91
3, 169680, Note_on_c, 0, 63, 100
3, 170526, Note_on_c, 0, 56, 0
3, 170586, Note_on_c, 0, 63, 0
3, 170597, Note_on_c, 0, 60, 0
3, 170640, Note_on_c, 0, 55, 104
3, 170640, Note_on_c, 0, 58, 108
3, 170640, Note_on_c, 0, 63, 100
3, 171719, Note_on_c, 0, 55, 0
3, 171733, Note_on_c, 0, 58, 0
3, 171734, Note_on_c, 0, 63, 0
3, 171840, Note_on_c, 0, 53, 91
3, 171840, Note_on_c, 0, 58, 100
3, 171840, Note_on_c, 0, 62, 107
3, 172699, Note_on_c, 0, 53, 0
3, 172709, Note_on_c, 0, 58, 0
3, 172730, Note_on_c, 0, 62, 0
3, 172800, Note_on_c, 0, 55, 104
3, 172800, Note_on_c, 0, 60, 93
3, 172800, Note_on_c, 0, 63, 100
3, 173397, Note_on_c, 0, 55, 0
3, 173398, Note_on_c, 0, 63, 0
3, 173401, Note_on_c, 0, 60, 0
3, 173520, Note_on_c, 0, 56, 89
3, 173520, Note_on_c, 0, 60, 98
3, 173520, Note_on_c, 0, 63, 93
3, 174387, Note_on_c, 0, 56, 0
3, 174415, Note_on_c, 0, 63, 0
3, 174444, Note_on_c, 0, 60, 0
3, 174480, Note_on_c, 0, 55, 104
3, 174480, Note_on_c, 0, 58, 116
3, 174480, Note_on_c, 0, 63, 100
3, 175586, Note_on_c, 0, 55, 0
3, 175598, Note_on_c, 0, 58, 0
3, 175613, Note_on_c, 0, 63, 0
3, 175680, Note_on_c, 0, 53, 87
3, 175680, Note_on_c, 0, 58, 93
3, 175680, Note_on_c, 0, 62, 101
3, 176468, Note_on_c, 0, 53, 0
3, 176487, Note_on_c, 0, 62, 0
3, 176526, Note_on_c, 0, 58, 0
3, 176640, Note_on_c, 0, 55, 95
3, 176640, Note_on_c, 0, 60, 91
3, 176640, Note_on_c, 0, 63, 93
3, 177271, Note_on_c, 0, 63, 0
3, 177274, Note_on_c, 0, 55, 0
3, 177276, Note_on_c, 0, 60, 0
3, 177360, Note_on_c, 0, 56, 93
3, 177360, Note_on_c, 0, 60, 91
3, 177360, Note_on_c, 0, 63, 100
3, 178206, Note_on_c, 0, 56, 0
3, 178266, Note_on_c, 0, 63, 0
3, 178277, Note_on_c, 0, 60, 0
3, 178320, Note_on_c, 0, 55, 104
3, 178320, Note_on_c, 0, 58, 108
3, 178320, Note_on_c, 0, 63, 100
3, 179399, Note_on_c, 0, 55, 0
3, 179413, Note_on_c, 0, 58, 0
3, 179414, Note_on_c, 0, 63, 0
3, 179520, Note_on_c, 0, 53, 91
3, 179520, Note_on_c, 0, 58, 100
3, 179520, Note_on_c, 0, 62, 107
3, 180379, Note_on_c, 0, 53, 0
3, 180389, Note_on_c, 0, 58, 0
3, 180410, Note_on_c, 0, 62, 0
3, 180480, Note_on_c, 0, 55, 101
3, 180480, Note_on_c, 0, 60, 91
3, 180480, Note_on_c, 0, 63, 100
3, 181113, Note_on_c, 0, 63, 0
3, 181117, Note_on_c, 0, 60, 0
3, 181121, Note_on_c, 0, 55, 0
3, 181200, Note_on_c, 0, 56, 86
3, 181200, Note_on_c, 0, 60, 95
3, 181200, Note_on_c, 0, 63, 89
3, 182022, Note_on_c, 0, 56, 0
3, 182030, Note_on_c, 0, 63, 0
3, 182059, Note_on_c, 0, 60, 0
3, 182160, Note_on_c, 0, 55, 98
3, 182160, Note_on_c, 0, 58, 100
3, 182160, Note_on_c, 0, 63, 89
3, 183047, Note_on_c, 0, 58, 0
3, 183051, Note_on_c, 0, 55, 0
3, 183067, Note_on_c, 0, 63, 0
3, 183120, Note_on_c, 0, 55, 87
3, 183120, Note_on_c, 0, 58, 84
3, 183120, Note_on_c, 0, 62, 101
3, 184188, Note_on_c, 0, 62, 0
3, 184192, Note_on_c, 0, 55, 0
3, 184200, Note_on_c, 0, 58, 0
3, 184320, Note_on_c, 0, 55, 101
3, 184320, Note_on_c, 0, 60, 91
3, 184320, Note_on_c, 0, 63, 100
3, 184953, Note_on_c, 0, 63, 0
3, 184957, Note_on_c, 0, 60, 0
3, 184961, Note_on_c, 0, 55, 0
3, 185040, Note_on_c, 0, 56, 86
3, 185040, Note_on_c, 0, 60, 95
3, 185040, Note_on_c, 0, 63, 89
3, 185862, Note_on_c, 0, 56, 0
3, 185870, Note_on_c, 0, 63, 0
3, 185899, Note_on_c, 0, 60, 0
3, 186000, Note_on_c, 0, 55, 98
3, 186000, Note_on_c, 0, 58, 100
3, 186000, Note_on_c, 0, 63, 89
3, 186887, Note_on_c, 0, 58, 0
3, 186891, Note_on_c, 0, 55, 0
3, 186907, Note_on_c, 0, 63, 0
3, 186960, Note_on_c, 0, 55, 87
3, 186960, Note_on_c, 0, 58, 84
3, 186960, Note_on_c, 0, 62, 101
3, 188028, Note_on_c, 0, 62, 0
3, 188032, Note_on_c, 0, 55, 0
3, 188040, Note_on_c, 0, 58, 0
3, 188160, Note_on_c, 0, 55, 89
3, 188160, Note_on_c, 0, 60, 93
3, 188160, Note_on_c, 0, 63, 93
3, 188807, Note_on_c, 0, 63, 0
3, 188816, Note_on_c, 0, 60, 0
3, 188826, Note_on_c, 0, 55, 0
3, 188880, Note_on_c, 0, 56, 89
3, 188880, Note_on_c, 0, 60, 93
3, 188880, Note_on_c, 0, 63, 89
3, 189735, Note_on_c, 0, 63, 0
3, 189737, Note_on_c, 0, 56, 0
3, 189773, Note_on_c, 0, 60, 0
3, 189840, Note_on_c, 0, 55, 93
3, 189840, Note_on_c, 0, 58, 93
3, 189840, Note_on_c, 0, 63, 89
3, 190674, Note_on_c, 0, 55, 0
3, 190681, Note_on_c, 0, 58, 0
3, 190697, Note_on_c, 0, 63, 0
3, 190800, Note_on_c, 0, 55, 83
3, 190800, Note_on_c, 0, 58, 84
3, 190800, Note_on_c, 0, 62, 98
3, 191888, Note_on_c, 0, 62, 0
3, 191890, Note_on_c, 0, 55, 0
3, 191933, Note_on_c, 0, 58, 0
3, 192000, Note_on_c, 0, 55, 93
3, 192000, Note_on_c, 0, 60, 91
3, 192000, Note_on_c, 0, 63, 93
3, 192638, Note_on_c, 0, 63, 0
3, 192645, Note_on_c, 0, 55, 0
3, 192651, Note_on_c, 0, 60, 0
3, 192720, Note_on_c, 0, 56, 89
3, 192720, Note_on_c, 0, 60, 89
3, 192720, Note_on_c, 0, 63, 86
3, 193569, Note_on_c, 0, 56, 0
3, 193589, Note_on_c, 0, 63, 0
3, 193597, Note_on_c, 0, 60, 0
3, 193680, Note_on_c, 0, 55, 91
3, 193680, Note_on_c, 0, 58, 93
3, 193680, Note_on_c, 0, 63, 86
3, 195577, Note_on_c, 0, 55, 0
3, 195582, Note_on_c, 0, 58, 0
3, 195598, Note_on_c, 0, 63, 0
3, 195598, End_track
4, 0, Start_track
4, 0, MIDI_port, 0
4, 0, Title_t, "Basse"
4, 485, Control_c, 1, 0, 0
4, 487, Program_c, 1, 39
4, 488, Control_c, 1, 7, 120
4, 488, Control_c, 1, 10, 64
4, 1035, Control_c, 1, 121, 0
4, 1042, Control_c, 1, 91, 5
4, 1043, Control_c, 1, 93, 15
4, 1045, Control_c, 1, 94, 0
4, 1046, Control_c, 1, 11, 127
4, 1050, Control_c, 1, 101, 0
4, 1050, Control_c, 1, 100, 0
4, 1050, Control_c, 1, 6, 2
4, 1050, Control_c, 1, 38, 0
4, 1051, Control_c, 1, 71, 64
4, 1052, Control_c, 1, 72, 70
4, 1053, Control_c, 1, 73, 64
4, 1055, Control_c, 1, 74, 64
4, 19200, Note_on_c, 1, 36, 108
4, 19438, Note_on_c, 1, 36, 0
4, 19440, Note_on_c, 1, 48, 102
4, 19678, Note_on_c, 1, 48, 0
4, 19680, Note_on_c, 1, 31, 104
4, 19918, Note_on_c, 1, 31, 0
4, 19920, Note_on_c, 1, 32, 111
4, 20366, Note_on_c, 1, 32, 0
4, 20400, Note_on_c, 1, 44, 106
4, 20638, Note_on_c, 1, 44, 0
4, 20880, Note_on_c, 1, 39, 108
4, 21118, Note_on_c, 1, 39, 0
4, 21120, Note_on_c, 1, 39, 108
4, 21358, Note_on_c, 1, 39, 0
4, 21840, Note_on_c, 1, 31, 109
4, 22078, Note_on_c, 1, 31, 0
4, 22080, Note_on_c, 1, 31, 110
4, 22318, Note_on_c, 1, 31, 0
4, 22320, Note_on_c, 1, 43, 106
4, 22558, Note_on_c, 1, 43, 0
4, 22560, Note_on_c, 1, 34, 106
4, 22798, Note_on_c, 1, 34, 0
4, 22800, Note_on_c, 1, 46, 106
4, 23038, Note_on_c, 1, 46, 0
4, 23040, Note_on_c, 1, 36, 108
4, 23278, Note_on_c, 1, 36, 0
4, 23280, Note_on_c, 1, 48, 102
4, 23518, Note_on_c, 1, 48, 0
4, 23520, Note_on_c, 1, 31, 104
4, 23758, Note_on_c, 1, 31, 0
4, 23760, Note_on_c, 1, 32, 111
4, 24206, Note_on_c, 1, 32, 0
4, 24240, Note_on_c, 1, 44, 106
4, 24478, Note_on_c, 1, 44, 0
4, 24720, Note_on_c, 1, 39, 108
4, 24958, Note_on_c, 1, 39, 0
4, 24960, Note_on_c, 1, 39, 108
4, 25198, Note_on_c, 1, 39, 0
4, 25680, Note_on_c, 1, 31, 109
4, 25918, Note_on_c, 1, 31, 0
4, 25920, Note_on_c, 1, 31, 110
4, 26158, Note_on_c, 1, 31, 0
4, 26880, Note_on_c, 1, 36, 108
4, 27118, Note_on_c, 1, 36, 0
4, 27120, Note_on_c, 1, 48, 102
4, 27358, Note_on_c, 1, 48, 0
4, 27360, Note_on_c, 1, 31, 104
4, 27598, Note_on_c, 1, 31, 0
4, 27600, Note_on_c, 1, 32, 111
4, 28046, Note_on_c, 1, 32, 0
4, 28080, Note_on_c, 1, 44, 106
4, 28318, Note_on_c, 1, 44, 0
4, 28560, Note_on_c, 1, 39, 108
4, 28798, Note_on_c, 1, 39, 0
4, 28800, Note_on_c, 1, 39, 108
4, 29038, Note_on_c, 1, 39, 0
4, 29520, Note_on_c, 1, 31, 109
4, 29758, Note_on_c, 1, 31, 0
4, 29760, Note_on_c, 1, 31, 110
4, 29998, Note_on_c, 1, 31, 0
4, 30000, Note_on_c, 1, 43, 106
4, 30238, Note_on_c, 1, 43, 0
4, 30240, Note_on_c, 1, 34, 106
4, 30478, Note_on_c, 1, 34, 0
4, 30480, Note_on_c, 1, 46, 106
4, 30718, Note_on_c, 1, 46, 0
4, 30720, Note_on_c, 1, 36, 108
4, 30958, Note_on_c, 1, 36, 0
4, 30960, Note_on_c, 1, 48, 102
4, 31198, Note_on_c, 1, 48, 0
4, 31200, Note_on_c, 1, 31, 104
4, 31438, Note_on_c, 1, 31, 0
4, 31440, Note_on_c, 1, 32, 111
4, 31886, Note_on_c, 1, 32, 0
4, 31920, Note_on_c, 1, 44, 106
4, 32158, Note_on_c, 1, 44, 0
4, 32400, Note_on_c, 1, 39, 108
4, 32638, Note_on_c, 1, 39, 0
4, 32640, Note_on_c, 1, 39, 108
4, 32878, Note_on_c, 1, 39, 0
4, 34560, Note_on_c, 1, 36, 108
4, 34798, Note_on_c, 1, 36, 0
4, 34800, Note_on_c, 1, 48, 102
4, 35278, Note_on_c, 1, 48, 0
4, 35280, Note_on_c, 1, 36, 108
4, 35518, Note_on_c, 1, 36, 0
4, 35760, Note_on_c, 1, 48, 102
4, 36238, Note_on_c, 1, 48, 0
4, 36240, Note_on_c, 1, 32, 108
4, 36718, Note_on_c, 1, 32, 0
4, 36720, Note_on_c, 1, 44, 102
4, 37198, Note_on_c, 1, 44, 0
4, 37200, Note_on_c, 1, 32, 108
4, 37438, Note_on_c, 1, 32, 0
4, 37680, Note_on_c, 1, 44, 102
4, 38158, Note_on_c, 1, 44, 0
4, 38160, Note_on_c, 1, 39, 108
4, 38638, Note_on_c, 1, 39, 0
4, 38640, Note_on_c, 1, 51, 102
4, 40078, Note_on_c, 1, 51, 0
4, 40080, Note_on_c, 1, 31, 108
4, 40558, Note_on_c, 1, 31, 0
4, 40560, Note_on_c, 1, 43, 102
4, 41758, Note_on_c, 1, 43, 0
4, 41760, Note_on_c, 1, 34, 102
4, 41998, Note_on_c, 1, 34, 0
4, 42000, Note_on_c, 1, 46, 102
4, 42238, Note_on_c, 1, 46, 0
4, 42240, Note_on_c, 1, 36, 108
4, 42478, Note_on_c, 1, 36, 0
4, 42480, Note_on_c, 1, 48, 102
4, 43918, Note_on_c, 1, 48, 0
4, 43920, Note_on_c, 1, 32, 108
4, 44398, Note_on_c, 1, 32, 0
4, 44400, Note_on_c, 1, 44, 102
4, 45838, Note_on_c, 1, 44, 0
4, 45840, Note_on_c, 1, 39, 108
4, 46318, Note_on_c, 1, 39, 0
4, 46320, Note_on_c, 1, 51, 102
4, 47758, Note_on_c, 1, 51, 0
4, 47760, Note_on_c, 1, 31, 108
4, 48238, Note_on_c, 1, 31, 0
4, 48240, Note_on_c, 1, 43, 102
4, 49798, Note_on_c, 1, 43, 0
4, 49920, Note_on_c, 1, 36, 108
4, 50158, Note_on_c, 1, 36, 0
4, 50160, Note_on_c, 1, 48, 102
4, 50398, Note_on_c, 1, 48, 0
4, 50400, Note_on_c, 1, 31, 104
4, 50638, Note_on_c, 1, 31, 0
4, 50640, Note_on_c, 1, 32, 111
4, 51086, Note_on_c, 1, 32, 0
4, 51120, Note_on_c, 1, 44, 106
4, 51358, Note_on_c, 1, 44, 0
4, 51600, Note_on_c, 1, 39, 108
4, 51838, Note_on_c, 1, 39, 0
4, 51840, Note_on_c, 1, 39, 108
4, 52078, Note_on_c, 1, 39, 0
4, 52560, Note_on_c, 1, 31, 109
4, 52798, Note_on_c, 1, 31, 0
4, 52800, Note_on_c, 1, 31, 110
4, 53038, Note_on_c, 1, 31, 0
4, 53040, Note_on_c, 1, 43, 106
4, 53278, Note_on_c, 1, 43, 0
4, 53280, Note_on_c, 1, 34, 106
4, 53518, Note_on_c, 1, 34, 0
4, 53520, Note_on_c, 1, 46, 106
4, 53758, Note_on_c, 1, 46, 0
4, 53760, Note_on_c, 1, 36, 108
4, 53998, Note_on_c, 1, 36, 0
4, 54000, Note_on_c, 1, 48, 102
4, 54238, Note_on_c, 1, 48, 0
4, 54240, Note_on_c, 1, 31, 104
4, 54478, Note_on_c, 1, 31, 0
4, 54480, Note_on_c, 1, 32, 111
4, 54926, Note_on_c, 1, 32, 0
4, 54960, Note_on_c, 1, 44, 106
4, 55198, Note_on_c, 1, 44, 0
4, 55440, Note_on_c, 1, 39, 108
4, 55678, Note_on_c, 1, 39, 0
4, 55680, Note_on_c, 1, 39, 108
4, 55918, Note_on_c, 1, 39, 0
4, 56400, Note_on_c, 1, 31, 109
4, 56638, Note_on_c, 1, 31, 0
4, 56640, Note_on_c, 1, 31, 110
4, 56878, Note_on_c, 1, 31, 0
4, 57600, Note_on_c, 1, 36, 108
4, 57838, Note_on_c, 1, 36, 0
4, 57840, Note_on_c, 1, 48, 102
4, 58078, Note_on_c, 1, 48, 0
4, 58080, Note_on_c, 1, 31, 104
4, 58318, Note_on_c, 1, 31, 0
4, 58320, Note_on_c, 1, 32, 111
4, 58766, Note_on_c, 1, 32, 0
4, 58800, Note_on_c, 1, 44, 106
4, 59038, Note_on_c, 1, 44, 0
4, 59280, Note_on_c, 1, 39, 108
4, 59518, Note_on_c, 1, 39, 0
4, 59520, Note_on_c, 1, 39, 108
4, 59758, Note_on_c, 1, 39, 0
4, 60240, Note_on_c, 1, 31, 109
4, 60478, Note_on_c, 1, 31, 0
4, 60480, Note_on_c, 1, 31, 110
4, 60718, Note_on_c, 1, 31, 0
4, 60720, Note_on_c, 1, 43, 106
4, 60958, Note_on_c, 1, 43, 0
4, 60960, Note_on_c, 1, 34, 106
4, 61198, Note_on_c, 1, 34, 0
4, 61200, Note_on_c, 1, 46, 106
4, 61438, Note_on_c, 1, 46, 0
4, 61440, Note_on_c, 1, 36, 108
4, 61678, Note_on_c, 1, 36, 0
4, 61680, Note_on_c, 1, 48, 102
4, 61918, Note_on_c, 1, 48, 0
4, 61920, Note_on_c, 1, 31, 104
4, 62158, Note_on_c, 1, 31, 0
4, 62160, Note_on_c, 1, 32, 111
4, 62606, Note_on_c, 1, 32, 0
4, 62640, Note_on_c, 1, 44, 106
4, 62878, Note_on_c, 1, 44, 0
4, 63120, Note_on_c, 1, 39, 108
4, 63358, Note_on_c, 1, 39, 0
4, 63360, Note_on_c, 1, 39, 108
4, 63598, Note_on_c, 1, 39, 0
4, 64080, Note_on_c, 1, 31, 109
4, 64318, Note_on_c, 1, 31, 0
4, 64320, Note_on_c, 1, 31, 110
4, 64558, Note_on_c, 1, 31, 0
4, 65280, Note_on_c, 1, 36, 108
4, 65518, Note_on_c, 1, 36, 0
4, 65520, Note_on_c, 1, 48, 102
4, 65758, Note_on_c, 1, 48, 0
4, 65760, Note_on_c, 1, 31, 104
4, 65998, Note_on_c, 1, 31, 0
4, 66000, Note_on_c, 1, 32, 111
4, 66446, Note_on_c, 1, 32, 0
4, 66480, Note_on_c, 1, 44, 106
4, 66718, Note_on_c, 1, 44, 0
4, 66960, Note_on_c, 1, 39, 108
4, 67198, Note_on_c, 1, 39, 0
4, 67200, Note_on_c, 1, 39, 108
4, 67438, Note_on_c, 1, 39, 0
4, 67920, Note_on_c, 1, 31, 109
4, 68158, Note_on_c, 1, 31, 0
4, 68160, Note_on_c, 1, 31, 110
4, 68398, Note_on_c, 1, 31, 0
4, 68400, Note_on_c, 1, 43, 106
4, 68638, Note_on_c, 1, 43, 0
4, 68640, Note_on_c, 1, 34, 106
4, 68878, Note_on_c, 1, 34, 0
4, 68880, Note_on_c, 1, 46, 106
4, 69118, Note_on_c, 1, 46, 0
4, 69120, Note_on_c, 1, 36, 108
4, 69358, Note_on_c, 1, 36, 0
4, 69360, Note_on_c, 1, 48, 102
4, 69598, Note_on_c, 1, 48, 0
4, 69600, Note_on_c, 1, 31, 104
4, 69838, Note_on_c, 1, 31, 0
4, 69840, Note_on_c, 1, 32, 111
4, 70286, Note_on_c, 1, 32, 0
4, 70320, Note_on_c, 1, 44, 106
4, 70558, Note_on_c, 1, 44, 0
4, 70800, Note_on_c, 1, 39, 108
4, 71038, Note_on_c, 1, 39, 0
4, 71040, Note_on_c, 1, 39, 108
4, 71278, Note_on_c, 1, 39, 0
4, 71760, Note_on_c, 1, 31, 109
4, 71998, Note_on_c, 1, 31, 0
4, 72000, Note_on_c, 1, 31, 110
4, 72238, Note_on_c, 1, 31, 0
4, 72960, Note_on_c, 1, 36, 108
4, 73198, Note_on_c, 1, 36, 0
4, 73200, Note_on_c, 1, 48, 102
4, 73438, Note_on_c, 1, 48, 0
4, 73440, Note_on_c, 1, 31, 104
4, 73678, Note_on_c, 1, 31, 0
4, 73680, Note_on_c, 1, 32, 111
4, 74126, Note_on_c, 1, 32, 0
4, 74160, Note_on_c, 1, 44, 106
4, 74398, Note_on_c, 1, 44, 0
4, 74640, Note_on_c, 1, 39, 108
4, 74878, Note_on_c, 1, 39, 0
4, 74880, Note_on_c, 1, 39, 108
4, 75118, Note_on_c, 1, 39, 0
4, 75600, Note_on_c, 1, 31, 109
4, 75838, Note_on_c, 1, 31, 0
4, 75840, Note_on_c, 1, 31, 110
4, 76078, Note_on_c, 1, 31, 0
4, 76080, Note_on_c, 1, 43, 106
4, 76318, Note_on_c, 1, 43, 0
4, 76320, Note_on_c, 1, 34, 106
4, 76558, Note_on_c, 1, 34, 0
4, 76560, Note_on_c, 1, 46, 106
4, 76798, Note_on_c, 1, 46, 0
4, 76800, Note_on_c, 1, 36, 108
4, 77038, Note_on_c, 1, 36, 0
4, 77040, Note_on_c, 1, 48, 102
4, 77278, Note_on_c, 1, 48, 0
4, 77280, Note_on_c, 1, 31, 104
4, 77518, Note_on_c, 1, 31, 0
4, 77520, Note_on_c, 1, 32, 111
4, 77966, Note_on_c, 1, 32, 0
4, 78000, Note_on_c, 1, 44, 106
4, 78238, Note_on_c, 1, 44, 0
4, 78480, Note_on_c, 1, 39, 108
4, 78718, Note_on_c, 1, 39, 0
4, 78720, Note_on_c, 1, 39, 108
4, 78958, Note_on_c, 1, 39, 0
4, 79440, Note_on_c, 1, 31, 109
4, 79678, Note_on_c, 1, 31, 0
4, 79680, Note_on_c, 1, 31, 110
4, 79918, Note_on_c, 1, 31, 0
4, 80640, Note_on_c, 1, 36, 108
4, 80878, Note_on_c, 1, 36, 0
4, 80880, Note_on_c, 1, 48, 102
4, 81118, Note_on_c, 1, 48, 0
4, 81120, Note_on_c, 1, 31, 104
4, 81358, Note_on_c, 1, 31, 0
4, 81360, Note_on_c, 1, 32, 111
4, 81806, Note_on_c, 1, 32, 0
4, 81840, Note_on_c, 1, 44, 106
4, 82078, Note_on_c, 1, 44, 0
4, 82320, Note_on_c, 1, 39, 108
4, 82558, Note_on_c, 1, 39, 0
4, 82560, Note_on_c, 1, 39, 108
4, 82798, Note_on_c, 1, 39, 0
4, 83280, Note_on_c, 1, 31, 109
4, 83518, Note_on_c, 1, 31, 0
4, 83520, Note_on_c, 1, 31, 110
4, 83758, Note_on_c, 1, 31, 0
4, 83760, Note_on_c, 1, 43, 106
4, 83998, Note_on_c, 1, 43, 0
4, 84000, Note_on_c, 1, 34, 106
4, 84238, Note_on_c, 1, 34, 0
4, 84240, Note_on_c, 1, 46, 106
4, 84478, Note_on_c, 1, 46, 0
4, 84480, Note_on_c, 1, 36, 108
4, 84718, Note_on_c, 1, 36, 0
4, 84720, Note_on_c, 1, 48, 102
4, 84958, Note_on_c, 1, 48, 0
4, 84960, Note_on_c, 1, 31, 104
4, 85198, Note_on_c, 1, 31, 0
4, 85200, Note_on_c, 1, 32, 111
4, 85646, Note_on_c, 1, 32, 0
4, 85680, Note_on_c, 1, 44, 106
4, 85918, Note_on_c, 1, 44, 0
4, 86160, Note_on_c, 1, 39, 108
4, 86398, Note_on_c, 1, 39, 0
4, 88320, Note_on_c, 1, 36, 108
4, 88558, Note_on_c, 1, 36, 0
4, 88560, Note_on_c, 1, 48, 102
4, 89038, Note_on_c, 1, 48, 0
4, 89040, Note_on_c, 1, 36, 108
4, 89278, Note_on_c, 1, 36, 0
4, 89520, Note_on_c, 1, 48, 102
4, 89998, Note_on_c, 1, 48, 0
4, 90000, Note_on_c, 1, 32, 108
4, 90478, Note_on_c, 1, 32, 0
4, 90480, Note_on_c, 1, 44, 102
4, 90958, Note_on_c, 1, 44, 0
4, 90960, Note_on_c, 1, 32, 108
4, 91198, Note_on_c, 1, 32, 0
4, 91440, Note_on_c, 1, 44, 102
4, 91918, Note_on_c, 1, 44, 0
4, 91920, Note_on_c, 1, 39, 108
4, 92398, Note_on_c, 1, 39, 0
4, 92400, Note_on_c, 1, 51, 102
4, 93838, Note_on_c, 1, 51, 0
4, 93840, Note_on_c, 1, 31, 108
4, 94318, Note_on_c, 1, 31, 0
4, 94320, Note_on_c, 1, 43, 102
4, 95518, Note_on_c, 1, 43, 0
4, 95520, Note_on_c, 1, 34, 102
4, 95758, Note_on_c, 1, 34, 0
4, 95760, Note_on_c, 1, 46, 102
4, 95998, Note_on_c, 1, 46, 0
4, 96000, Note_on_c, 1, 36, 108
4, 96238, Note_on_c, 1, 36, 0
4, 96240, Note_on_c, 1, 48, 102
4, 97678, Note_on_c, 1, 48, 0
4, 97680, Note_on_c, 1, 32, 108
4, 98158, Note_on_c, 1, 32, 0
4, 98160, Note_on_c, 1, 44, 102
4, 99598, Note_on_c, 1, 44, 0
4, 99600, Note_on_c, 1, 39, 108
4, 100078, Note_on_c, 1, 39, 0
4, 100080, Note_on_c, 1, 51, 102
4, 101518, Note_on_c, 1, 51, 0
4, 101520, Note_on_c, 1, 31, 108
4, 101998, Note_on_c, 1, 31, 0
4, 102000, Note_on_c, 1, 43, 102
4, 103558, Note_on_c, 1, 43, 0
4, 103680, Note_on_c, 1, 36, 108
4, 103918, Note_on_c, 1, 36, 0
4, 103920, Note_on_c, 1, 48, 102
4, 104158, Note_on_c, 1, 48, 0
4, 104160, Note_on_c, 1, 31, 104
4, 104398, Note_on_c, 1, 31, 0
4, 104400, Note_on_c, 1, 32, 111
4, 104846, Note_on_c, 1, 32, 0
4, 104880, Note_on_c, 1, 44, 106
4, 105118, Note_on_c, 1, 44, 0
4, 105360, Note_on_c, 1, 39, 108
4, 105598, Note_on_c, 1, 39, 0
4, 105600, Note_on_c, 1, 39, 108
4, 105838, Note_on_c, 1, 39, 0
4, 106320, Note_on_c, 1, 31, 109
4, 106558, Note_on_c, 1, 31, 0
4, 106560, Note_on_c, 1, 31, 110
4, 106798, Note_on_c, 1, 31, 0
4, 106800, Note_on_c, 1, 43, 106
4, 107038, Note_on_c, 1, 43, 0
4, 107040, Note_on_c, 1, 34, 106
4, 107278, Note_on_c, 1, 34, 0
4, 107280, Note_on_c, 1, 46, 106
4, 107518, Note_on_c, 1, 46, 0
4, 107520, Note_on_c, 1, 36, 108
4, 107758, Note_on_c, 1, 36, 0
4, 107760, Note_on_c, 1, 48, 102
4, 107998, Note_on_c, 1, 48, 0
4, 108000, Note_on_c, 1, 31, 104
4, 108238, Note_on_c, 1, 31, 0
4, 108240, Note_on_c, 1, 32, 111
4, 108686, Note_on_c, 1, 32, 0
4, 108720, Note_on_c, 1, 44, 106
4, 108958, Note_on_c, 1, 44, 0
4, 109200, Note_on_c, 1, 39, 108
4, 109438, Note_on_c, 1, 39, 0
4, 109440, Note_on_c, 1, 39, 108
4, 109678, Note_on_c, 1, 39, 0
4, 110160, Note_on_c, 1, 31, 109
4, 110398, Note_on_c, 1, 31, 0
4, 110400, Note_on_c, 1, 31, 110
4, 110638, Note_on_c, 1, 31, 0
4, 111360, Note_on_c, 1, 36, 108
4, 111598, Note_on_c, 1, 36, 0
4, 111600, Note_on_c, 1, 48, 102
4, 111838, Note_on_c, 1, 48, 0
4, 111840, Note_on_c, 1, 31, 104
4, 112078, Note_on_c, 1, 31, 0
4, 112080, Note_on_c, 1, 32, 111
4, 112526, Note_on_c, 1, 32, 0
4, 112560, Note_on_c, 1, 44, 106
4, 112798, Note_on_c, 1, 44, 0
4, 113040, Note_on_c, 1, 39, 108
4, 113278, Note_on_c, 1, 39, 0
4, 113280, Note_on_c, 1, 39, 108
4, 113518, Note_on_c, 1, 39, 0
4, 114000, Note_on_c, 1, 31, 109
4, 114238, Note_on_c, 1, 31, 0
4, 114240, Note_on_c, 1, 31, 110
4, 114478, Note_on_c, 1, 31, 0
4, 114480, Note_on_c, 1, 43, 106
4, 114718, Note_on_c, 1, 43, 0
4, 114720, Note_on_c, 1, 34, 106
4, 114958, Note_on_c, 1, 34, 0
4, 114960, Note_on_c, 1, 46, 106
4, 115198, Note_on_c, 1, 46, 0
4, 115200, Note_on_c, 1, 36, 108
4, 115438, Note_on_c, 1, 36, 0
4, 115440, Note_on_c, 1, 48, 102
4, 115678, Note_on_c, 1, 48, 0
4, 115680, Note_on_c, 1, 31, 104
4, 115918, Note_on_c, 1, 31, 0
4, 115920, Note_on_c, 1, 32, 111
4, 116366, Note_on_c, 1, 32, 0
4, 116400, Note_on_c, 1, 44, 106
4, 116638, Note_on_c, 1, 44, 0
4, 116880, Note_on_c, 1, 39, 108
4, 117118, Note_on_c, 1, 39, 0
4, 117120, Note_on_c, 1, 39, 108
4, 117358, Note_on_c, 1, 39, 0
4, 117840, Note_on_c, 1, 31, 109
4, 118078, Note_on_c, 1, 31, 0
4, 118080, Note_on_c, 1, 31, 110
4, 118318, Note_on_c, 1, 31, 0
4, 119040, Note_on_c, 1, 36, 108
4, 119278, Note_on_c, 1, 36, 0
4, 119280, Note_on_c, 1, 48, 102
4, 119518, Note_on_c, 1, 48, 0
4, 119520, Note_on_c, 1, 31, 104
4, 119758, Note_on_c, 1, 31, 0
4, 119760, Note_on_c, 1, 32, 111
4, 120206, Note_on_c, 1, 32, 0
4, 120240, Note_on_c, 1, 44, 106
4, 120478, Note_on_c, 1, 44, 0
4, 120720, Note_on_c, 1, 39, 108
4, 120958, Note_on_c, 1, 39, 0
4, 120960, Note_on_c, 1, 39, 108
4, 121198, Note_on_c, 1, 39, 0
4, 121680, Note_on_c, 1, 31, 109
4, 121918, Note_on_c, 1, 31, 0
4, 121920, Note_on_c, 1, 31, 110
4, 122158, Note_on_c, 1, 31, 0
4, 122160, Note_on_c, 1, 43, 106
4, 122398, Note_on_c, 1, 43, 0
4, 122400, Note_on_c, 1, 34, 106
4, 122638, Note_on_c, 1, 34, 0
4, 122640, Note_on_c, 1, 46, 106
4, 122878, Note_on_c, 1, 46, 0
4, 122880, Note_on_c, 1, 36, 108
4, 123118, Note_on_c, 1, 36, 0
4, 123120, Note_on_c, 1, 48, 102
4, 123358, Note_on_c, 1, 48, 0
4, 123360, Note_on_c, 1, 31, 104
4, 123598, Note_on_c, 1, 31, 0
4, 123600, Note_on_c, 1, 32, 111
4, 124046, Note_on_c, 1, 32, 0
4, 124080, Note_on_c, 1, 44, 106
4, 124318, Note_on_c, 1, 44, 0
4, 124560, Note_on_c, 1, 39, 108
4, 124798, Note_on_c, 1, 39, 0
4, 124800, Note_on_c, 1, 39, 108
4, 125038, Note_on_c, 1, 39, 0
4, 125520, Note_on_c, 1, 31, 109
4, 125758, Note_on_c, 1, 31, 0
4, 125760, Note_on_c, 1, 31, 110
4, 125998, Note_on_c, 1, 31, 0
4, 126720, Note_on_c, 1, 36, 108
4, 126958, Note_on_c, 1, 36, 0
4, 126960, Note_on_c, 1, 48, 102
4, 127198, Note_on_c, 1, 48, 0
4, 127200, Note_on_c, 1, 31, 104
4, 127438, Note_on_c, 1, 31, 0
4, 127440, Note_on_c, 1, 32, 111
4, 127886, Note_on_c, 1, 32, 0
4, 127920, Note_on_c, 1, 44, 106
4, 128158, Note_on_c, 1, 44, 0
4, 128400, Note_on_c, 1, 39, 108
4, 128638, Note_on_c, 1, 39, 0
4, 128640, Note_on_c, 1, 39, 108
4, 128878, Note_on_c, 1, 39, 0
4, 129360, Note_on_c, 1, 31, 109
4, 129598, Note_on_c, 1, 31, 0
4, 129600, Note_on_c, 1, 31, 110
4, 129838, Note_on_c, 1, 31, 0
4, 129840, Note_on_c, 1, 43, 106
4, 130078, Note_on_c, 1, 43, 0
4, 130080, Note_on_c, 1, 34, 106
4, 130318, Note_on_c, 1, 34, 0
4, 130320, Note_on_c, 1, 46, 106
4, 130558, Note_on_c, 1, 46, 0
4, 130560, Note_on_c, 1, 36, 108
4, 130798, Note_on_c, 1, 36, 0
4, 130800, Note_on_c, 1, 48, 102
4, 131038, Note_on_c, 1, 48, 0
4, 131040, Note_on_c, 1, 31, 104
4, 131278, Note_on_c, 1, 31, 0
4, 131280, Note_on_c, 1, 32, 111
4, 131726, Note_on_c, 1, 32, 0
4, 131760, Note_on_c, 1, 44, 106
4, 131998, Note_on_c, 1, 44, 0
4, 132240, Note_on_c, 1, 39, 108
4, 132478, Note_on_c, 1, 39, 0
4, 132480, Note_on_c, 1, 39, 108
4, 132718, Note_on_c, 1, 39, 0
4, 133200, Note_on_c, 1, 31, 109
4, 133438, Note_on_c, 1, 31, 0
4, 133440, Note_on_c, 1, 31, 110
4, 133678, Note_on_c, 1, 31, 0
4, 134400, Note_on_c, 1, 36, 108
4, 134638, Note_on_c, 1, 36, 0
4, 134640, Note_on_c, 1, 48, 102
4, 135118, Note_on_c, 1, 48, 0
4, 135120, Note_on_c, 1, 36, 108
4, 135358, Note_on_c, 1, 36, 0
4, 135600, Note_on_c, 1, 48, 102
4, 136078, Note_on_c, 1, 48, 0
4, 136080, Note_on_c, 1, 32, 108
4, 136558, Note_on_c, 1, 32, 0
4, 136560, Note_on_c, 1, 44, 102
4, 137038, Note_on_c, 1, 44, 0
4, 137040, Note_on_c, 1, 32, 108
4, 137278, Note_on_c, 1, 32, 0
4, 137520, Note_on_c, 1, 44, 102
4, 137998, Note_on_c, 1, 44, 0
4, 138000, Note_on_c, 1, 39, 108
4, 138478, Note_on_c, 1, 39, 0
4, 138480, Note_on_c, 1, 51, 102
4, 139918, Note_on_c, 1, 51, 0
4, 139920, Note_on_c, 1, 31, 108
4, 140398, Note_on_c, 1, 31, 0
4, 140400, Note_on_c, 1, 43, 102
4, 141598, Note_on_c, 1, 43, 0
4, 141600, Note_on_c, 1, 34, 102
4, 141838, Note_on_c, 1, 34, 0
4, 141840, Note_on_c, 1, 46, 102
4, 142078, Note_on_c, 1, 46, 0
4, 142080, Note_on_c, 1, 36, 108
4, 142318, Note_on_c, 1, 36, 0
4, 142320, Note_on_c, 1, 48, 102
4, 143758, Note_on_c, 1, 48, 0
4, 143760, Note_on_c, 1, 32, 108
4, 144238, Note_on_c, 1, 32, 0
4, 144240, Note_on_c, 1, 44, 102
4, 145678, Note_on_c, 1, 44, 0
4, 145680, Note_on_c, 1, 39, 108
4, 146158, Note_on_c, 1, 39, 0
4, 146160, Note_on_c, 1, 51, 102
4, 147598, Note_on_c, 1, 51, 0
4, 147600, Note_on_c, 1, 31, 108
4, 148078, Note_on_c, 1, 31, 0
4, 148080, Note_on_c, 1, 43, 102
4, 149638, Note_on_c, 1, 43, 0
4, 165120, Note_on_c, 1, 36, 108
4, 165358, Note_on_c, 1, 36, 0
4, 165360, Note_on_c, 1, 48, 102
4, 165598, Note_on_c, 1, 48, 0
4, 165600, Note_on_c, 1, 31, 104
4, 165838, Note_on_c, 1, 31, 0
4, 165840, Note_on_c, 1, 32, 111
4, 166286, Note_on_c, 1, 32, 0
4, 166320, Note_on_c, 1, 44, 106
4, 166558, Note_on_c, 1, 44, 0
4, 166800, Note_on_c, 1, 39, 108
4, 167038, Note_on_c, 1, 39, 0
4, 167040, Note_on_c, 1, 39, 108
4, 167278, Note_on_c, 1, 39, 0
4, 167760, Note_on_c, 1, 31, 109
4, 167998, Note_on_c, 1, 31, 0
4, 168000, Note_on_c, 1, 31, 110
4, 168238, Note_on_c, 1, 31, 0
4, 168240, Note_on_c, 1, 43, 106
4, 168478, Note_on_c, 1, 43, 0
4, 168480, Note_on_c, 1, 34, 106
4, 168718, Note_on_c, 1, 34, 0
4, 168720, Note_on_c, 1, 46, 106
4, 168958, Note_on_c, 1, 46, 0
4, 168960, Note_on_c, 1, 36, 108
4, 169198, Note_on_c, 1, 36, 0
4, 169200, Note_on_c, 1, 48, 102
4, 169438, Note_on_c, 1, 48, 0
4, 169440, Note_on_c, 1, 31, 104
4, 169678, Note_on_c, 1, 31, 0
4, 169680, Note_on_c, 1, 32, 111
4, 170126, Note_on_c, 1, 32, 0
4, 170160, Note_on_c, 1, 44, 106
4, 170398, Note_on_c, 1, 44, 0
4, 170640, Note_on_c, 1, 39, 108
4, 170878, Note_on_c, 1, 39, 0
4, 170880, Note_on_c, 1, 39, 108
4, 171118, Note_on_c, 1, 39, 0
4, 171600, Note_on_c, 1, 31, 109
4, 171838, Note_on_c, 1, 31, 0
4, 171840, Note_on_c, 1, 31, 110
4, 172078, Note_on_c, 1, 31, 0
4, 172800, Note_on_c, 1, 36, 108
4, 173038, Note_on_c, 1, 36, 0
4, 173040, Note_on_c, 1, 48, 102
4, 173278, Note_on_c, 1, 48, 0
4, 173280, Note_on_c, 1, 31, 104
4, 173518, Note_on_c, 1, 31, 0
4, 173520, Note_on_c, 1, 32, 111
4, 173966, Note_on_c, 1, 32, 0
4, 174000, Note_on_c, 1, 44, 106
4, 174238, Note_on_c, 1, 44, 0
4, 174480, Note_on_c, 1, 39, 108
4, 174718, Note_on_c, 1, 39, 0
4, 174720, Note_on_c, 1, 39, 108
4, 174958, Note_on_c, 1, 39, 0
4, 175440, Note_on_c, 1, 31, 109
4, 175678, Note_on_c, 1, 31, 0
4, 175680, Note_on_c, 1, 31, 110
4, 175918, Note_on_c, 1, 31, 0
4, 175920, Note_on_c, 1, 43, 106
4, 176158, Note_on_c, 1, 43, 0
4, 176160, Note_on_c, 1, 34, 106
4, 176398, Note_on_c, 1, 34, 0
4, 176400, Note_on_c, 1, 46, 106
4, 176638, Note_on_c, 1, 46, 0
4, 176640, Note_on_c, 1, 36, 108
4, 176878, Note_on_c, 1, 36, 0
4, 176880, Note_on_c, 1, 48, 102
4, 177118, Note_on_c, 1, 48, 0
4, 177120, Note_on_c, 1, 31, 104
4, 177358, Note_on_c, 1, 31, 0
4, 177360, Note_on_c, 1, 32, 111
4, 177806, Note_on_c, 1, 32, 0
4, 177840, Note_on_c, 1, 44, 106
4, 178078, Note_on_c, 1, 44, 0
4, 178320, Note_on_c, 1, 39, 108
4, 178558, Note_on_c, 1, 39, 0
4, 178560, Note_on_c, 1, 39, 108
4, 178798, Note_on_c, 1, 39, 0
4, 179280, Note_on_c, 1, 31, 109
4, 179518, Note_on_c, 1, 31, 0
4, 179520, Note_on_c, 1, 31, 110
4, 179758, Note_on_c, 1, 31, 0
4, 180480, Note_on_c, 1, 36, 108
4, 180718, Note_on_c, 1, 36, 0
4, 180720, Note_on_c, 1, 48, 102
4, 180958, Note_on_c, 1, 48, 0
4, 180960, Note_on_c, 1, 31, 104
4, 181198, Note_on_c, 1, 31, 0
4, 181200, Note_on_c, 1, 32, 111
4, 181646, Note_on_c, 1, 32, 0
4, 181680, Note_on_c, 1, 44, 106
4, 181918, Note_on_c, 1, 44, 0
4, 182160, Note_on_c, 1, 39, 108
4, 182398, Note_on_c, 1, 39, 0
4, 182400, Note_on_c, 1, 39, 108
4, 182638, Note_on_c, 1, 39, 0
4, 183120, Note_on_c, 1, 31, 109
4, 183358, Note_on_c, 1, 31, 0
4, 183360, Note_on_c, 1, 31, 110
4, 183598, Note_on_c, 1, 31, 0
4, 183600, Note_on_c, 1, 43, 106
4, 183838, Note_on_c, 1, 43, 0
4, 183840, Note_on_c, 1, 34, 106
4, 184078, Note_on_c, 1, 34, 0
4, 184080, Note_on_c, 1, 46, 106
4, 184318, Note_on_c, 1, 46, 0
4, 184320, Note_on_c, 1, 36, 108
4, 184558, Note_on_c, 1, 36, 0
4, 184560, Note_on_c, 1, 48, 102
4, 184798, Note_on_c, 1, 48, 0
4, 184800, Note_on_c, 1, 31, 104
4, 185038, Note_on_c, 1, 31, 0
4, 185040, Note_on_c, 1, 32, 111
4, 185486, Note_on_c, 1, 32, 0
4, 185520, Note_on_c, 1, 44, 106
4, 185758, Note_on_c, 1, 44, 0
4, 186000, Note_on_c, 1, 39, 108
4, 186238, Note_on_c, 1, 39, 0
4, 186240, Note_on_c, 1, 39, 108
4, 186478, Note_on_c, 1, 39, 0
4, 186960, Note_on_c, 1, 31, 109
4, 187198, Note_on_c, 1, 31, 0
4, 187200, Note_on_c, 1, 31, 110
4, 187438, Note_on_c, 1, 31, 0
4, 188160, Note_on_c, 1, 36, 108
4, 188398, Note_on_c, 1, 36, 0
4, 188400, Note_on_c, 1, 48, 102
4, 188638, Note_on_c, 1, 48, 0
4, 188640, Note_on_c, 1, 31, 104
4, 188878, Note_on_c, 1, 31, 0
4, 188880, Note_on_c, 1, 32, 111
4, 189326, Note_on_c, 1, 32, 0
4, 189360, Note_on_c, 1, 44, 106
4, 189598, Note_on_c, 1, 44, 0
4, 189840, Note_on_c, 1, 39, 108
4, 190078, Note_on_c, 1, 39, 0
4, 190080, Note_on_c, 1, 39, 108
4, 190318, Note_on_c, 1, 39, 0
4, 190800, Note_on_c, 1, 31, 109
4, 191038, Note_on_c, 1, 31, 0
4, 191040, Note_on_c, 1, 31, 110
4, 191278, Note_on_c, 1, 31, 0
4, 191280, Note_on_c, 1, 43, 106
4, 191518, Note_on_c, 1, 43, 0
4, 191520, Note_on_c, 1, 34, 106
4, 191758, Note_on_c, 1, 34, 0
4, 191760, Note_on_c, 1, 46, 106
4, 191998, Note_on_c, 1, 46, 0
4, 192000, Note_on_c, 1, 36, 108
4, 192238, Note_on_c, 1, 36, 0
4, 192238, End_track
5, 0, Start_track
5, 0, MIDI_port, 0
5, 0, Title_t, "Saw"
5, 490, Control_c, 2, 0, 0
5, 492, Program_c, 2, 81
5, 493, Control_c, 2, 7, 100
5, 493, Control_c, 2, 10, 64
5, 1080, Control_c, 2, 121, 0
5, 1087, Control_c, 2, 91, 50
5, 1088, Control_c, 2, 93, 25
5, 1090, Control_c, 2, 94, 5
5, 1091, Control_c, 2, 11, 127
5, 1095, Control_c, 2, 101, 0
5, 1095, Control_c, 2, 100, 0
5, 1095, Control_c, 2, 6, 2
5, 1095, Control_c, 2, 38, 0
5, 1096, Control_c, 2, 71, 64
5, 1097, Control_c, 2, 72, 64
5, 1098, Control_c, 2, 73, 64
5, 1100, Control_c, 2, 74, 64
5, 3840, Note_on_c, 2, 79, 84
5, 3840, Note_on_c, 2, 91, 84
5, 3898, Note_on_c, 2, 91, 0
5, 3898, Note_on_c, 2, 79, 0
5, 3960, Note_on_c, 2, 75, 79
5, 3960, Note_on_c, 2, 87, 79
5, 4018, Note_on_c, 2, 87, 0
5, 4018, Note_on_c, 2, 75, 0
5, 4080, Note_on_c, 2, 72, 76
5, 4080, Note_on_c, 2, 84, 76
5, 4138, Note_on_c, 2, 84, 0
5, 4138, Note_on_c, 2, 72, 0
5, 4200, Note_on_c, 2, 67, 74
5, 4200, Note_on_c, 2, 79, 74
5, 4258, Note_on_c, 2, 79, 0
5, 4258, Note_on_c, 2, 67, 0
5, 4320, Note_on_c, 2, 63, 80
5, 4320, Note_on_c, 2, 75, 80
5, 4378, Note_on_c, 2, 75, 0
5, 4378, Note_on_c, 2, 63, 0
5, 4440, Note_on_c, 2, 60, 78
5, 4440, Note_on_c, 2, 72, 78
5, 4498, Note_on_c, 2, 72, 0
5, 4498, Note_on_c, 2, 60, 0
5, 4560, Note_on_c, 2, 80, 82
5, 4560, Note_on_c, 2, 92, 82
5, 4618, Note_on_c, 2, 92, 0
5, 4618, Note_on_c, 2, 80, 0
5, 4680, Note_on_c, 2, 75, 79
5, 4680, Note_on_c, 2, 87, 79
5, 4738, Note_on_c, 2, 87, 0
5, 4738, Note_on_c, 2, 75, 0
5, 4800, Note_on_c, 2, 72, 75
5, 4800, Note_on_c, 2, 84, 75
5, 4858, Note_on_c, 2, 84, 0
5, 4858, Note_on_c, 2, 72, 0
5, 4920, Note_on_c, 2, 68, 74
5, 4920, Note_on_c, 2, 80, 74
5, 4978, Note_on_c, 2, 80, 0
5, 4978, Note_on_c, 2, 68, 0
5, 5040, Note_on_c, 2, 63, 84
5, 5040, Note_on_c, 2, 75, 84
5, 5098, Note_on_c, 2, 75, 0
5, 5098, Note_on_c, 2, 63, 0
5, 5160, Note_on_c, 2, 60, 88
5, 5160, Note_on_c, 2, 80, 88
5, 5160, Note_on_c, 2, 92, 88
5, 5218, Note_on_c, 2, 92, 0
5, 5218, Note_on_c, 2, 80, 0
5, 5218, Note_on_c, 2, 60, 0
5, 5280, Note_on_c, 2, 75, 79
5, 5280, Note_on_c, 2, 87, 79
5, 5338, Note_on_c, 2, 87, 0
5, 5338, Note_on_c, 2, 75, 0
5, 5400, Note_on_c, 2, 72, 75
5, 5400, Note_on_c, 2, 84, 75
5, 5458, Note_on_c, 2, 84, 0
5, 5458, Note_on_c, 2, 72, 0
5, 5520, Note_on_c, 2, 68, 74
5, 5520, Note_on_c, 2, 80, 74
5, 5578, Note_on_c, 2, 80, 0
5, 5578, Note_on_c, 2, 68, 0
5, 5640, Note_on_c, 2, 75, 84
5, 5698, Note_on_c, 2, 75, 0
5, 5760, Note_on_c, 2, 79, 85
5, 5760, Note_on_c, 2, 91, 85
5, 5818, Note_on_c, 2, 91, 0
5, 5818, Note_on_c, 2, 79, 0
5, 5880, Note_on_c, 2, 75, 79
5, 5880, Note_on_c, 2, 87, 79
5, 5938, Note_on_c, 2, 87, 0
5, 5938, Note_on_c, 2, 75, 0
5, 6000, Note_on_c, 2, 70, 75
5, 6000, Note_on_c, 2, 82, 75
5, 6058, Note_on_c, 2, 82, 0
5, 6058, Note_on_c, 2, 70, 0
5, 6120, Note_on_c, 2, 67, 74
5, 6120, Note_on_c, 2, 79, 74
5, 6178, Note_on_c, 2, 79, 0
5, 6178, Note_on_c, 2, 67, 0
5, 6240, Note_on_c, 2, 63, 84
5, 6240, Note_on_c, 2, 75, 84
5, 6298, Note_on_c, 2, 75, 0
5, 6298, Note_on_c, 2, 63, 0
5, 6360, Note_on_c, 2, 58, 84
5, 6360, Note_on_c, 2, 70, 84
5, 6418, Note_on_c, 2, 70, 0
5, 6418, Note_on_c, 2, 58, 0
5, 6480, Note_on_c, 2, 79, 88
5, 6480, Note_on_c, 2, 91, 88
5, 6538, Note_on_c, 2, 91, 0
5, 6538, Note_on_c, 2, 79, 0
5, 6600, Note_on_c, 2, 70, 79
5, 6600, Note_on_c, 2, 82, 79
5, 6658, Note_on_c, 2, 82, 0
5, 6658, Note_on_c, 2, 70, 0
5, 6720, Note_on_c, 2, 67, 75
5, 6720, Note_on_c, 2, 79, 75
5, 6778, Note_on_c, 2, 79, 0
5, 6778, Note_on_c, 2, 67, 0
5, 6840, Note_on_c, 2, 62, 74
5, 6840, Note_on_c, 2, 74, 74
5, 6898, Note_on_c, 2, 74, 0
5, 6898, Note_on_c, 2, 62, 0
5, 6960, Note_on_c, 2, 58, 84
5, 6960, Note_on_c, 2, 70, 84
5, 7018, Note_on_c, 2, 70, 0
5, 7018, Note_on_c, 2, 58, 0
5, 7080, Note_on_c, 2, 79, 88
5, 7080, Note_on_c, 2, 91, 88
5, 7138, Note_on_c, 2, 91, 0
5, 7138, Note_on_c, 2, 79, 0
5, 7200, Note_on_c, 2, 74, 79
5, 7200, Note_on_c, 2, 86, 79
5, 7258, Note_on_c, 2, 86, 0
5, 7258, Note_on_c, 2, 74, 0
5, 7320, Note_on_c, 2, 70, 75
5, 7320, Note_on_c, 2, 82, 75
5, 7378, Note_on_c, 2, 82, 0
5, 7378, Note_on_c, 2, 70, 0
5, 7440, Note_on_c, 2, 67, 74
5, 7440, Note_on_c, 2, 79, 74
5, 7498, Note_on_c, 2, 79, 0
5, 7498, Note_on_c, 2, 67, 0
5, 7560, Note_on_c, 2, 62, 84
5, 7560, Note_on_c, 2, 74, 84
5, 7618, Note_on_c, 2, 74, 0
5, 7618, Note_on_c, 2, 62, 0
5, 7680, Note_on_c, 2, 79, 84
5, 7680, Note_on_c, 2, 91, 84
5, 7738, Note_on_c, 2, 91, 0
5, 7738, Note_on_c, 2, 79, 0
5, 7800, Note_on_c, 2, 75, 79
5, 7800, Note_on_c, 2, 87, 79
5, 7858, Note_on_c, 2, 87, 0
5, 7858, Note_on_c, 2, 75, 0
5, 7920, Note_on_c, 2, 72, 76
5, 7920, Note_on_c, 2, 84, 76
5, 7978, Note_on_c, 2, 84, 0
5, 7978, Note_on_c, 2, 72, 0
5, 8040, Note_on_c, 2, 67, 74
5, 8040, Note_on_c, 2, 79, 74
5, 8098, Note_on_c, 2, 79, 0
5, 8098, Note_on_c, 2, 67, 0
5, 8160, Note_on_c, 2, 63, 80
5, 8160, Note_on_c, 2, 75, 80
5, 8218, Note_on_c, 2, 75, 0
5, 8218, Note_on_c, 2, 63, 0
5, 8280, Note_on_c, 2, 60, 78
5, 8280, Note_on_c, 2, 72, 78
5, 8338, Note_on_c, 2, 72, 0
5, 8338, Note_on_c, 2, 60, 0
5, 8400, Note_on_c, 2, 80, 82
5, 8400, Note_on_c, 2, 92, 82
5, 8458, Note_on_c, 2, 92, 0
5, 8458, Note_on_c, 2, 80, 0
5, 8520, Note_on_c, 2, 75, 79
5, 8520, Note_on_c, 2, 87, 79
5, 8578, Note_on_c, 2, 87, 0
5, 8578, Note_on_c, 2, 75, 0
5, 8640, Note_on_c, 2, 72, 75
5, 8640, Note_on_c, 2, 84, 75
5, 8698, Note_on_c, 2, 84, 0
5, 8698, Note_on_c, 2, 72, 0
5, 8760, Note_on_c, 2, 68, 74
5, 8760, Note_on_c, 2, 80, 74
5, 8818, Note_on_c, 2, 80, 0
5, 8818, Note_on_c, 2, 68, 0
5, 8880, Note_on_c, 2, 63, 84
5, 8880, Note_on_c, 2, 75, 84
5, 8938, Note_on_c, 2, 75, 0
5, 8938, Note_on_c, 2, 63, 0
5, 9000, Note_on_c, 2, 60, 85
5, 9000, Note_on_c, 2, 80, 85
5, 9000, Note_on_c, 2, 92, 85
5, 9058, Note_on_c, 2, 92, 0
5, 9058, Note_on_c, 2, 80, 0
5, 9058, Note_on_c, 2, 60, 0
5, 9120, Note_on_c, 2, 75, 79
5, 9120, Note_on_c, 2, 87, 79
5, 9178, Note_on_c, 2, 87, 0
5, 9178, Note_on_c, 2, 75, 0
5, 9240, Note_on_c, 2, 72, 75
5, 9240, Note_on_c, 2, 84, 75
5, 9298, Note_on_c, 2, 84, 0
5, 9298, Note_on_c, 2, 72, 0
5, 9360, Note_on_c, 2, 68, 74
5, 9360, Note_on_c, 2, 80, 74
5, 9418, Note_on_c, 2, 80, 0
5, 9418, Note_on_c, 2, 68, 0
5, 9480, Note_on_c, 2, 75, 84
5, 9538, Note_on_c, 2, 75, 0
5, 9600, Note_on_c, 2, 79, 88
5, 9600, Note_on_c, 2, 91, 88
5, 9658, Note_on_c, 2, 91, 0
5, 9658, Note_on_c, 2, 79, 0
5, 9720, Note_on_c, 2, 75, 79
5, 9720, Note_on_c, 2, 87, 79
5, 9778, Note_on_c, 2, 87, 0
5, 9778, Note_on_c, 2, 75, 0
5, 9840, Note_on_c, 2, 70, 75
5, 9840, Note_on_c, 2, 82, 75
5, 9898, Note_on_c, 2, 82, 0
5, 9898, Note_on_c, 2, 70, 0
5, 9960, Note_on_c, 2, 67, 74
5, 9960, Note_on_c, 2, 79, 74
5, 10018, Note_on_c, 2, 79, 0
5, 10018, Note_on_c, 2, 67, 0
5, 10080, Note_on_c, 2, 63, 84
5, 10080, Note_on_c, 2, 75, 84
5, 10138, Note_on_c, 2, 75, 0
5, 10138, Note_on_c, 2, 63, 0
5, 10200, Note_on_c, 2, 58, 84
5, 10200, Note_on_c, 2, 70, 84
5, 10258, Note_on_c, 2, 70, 0
5, 10258, Note_on_c, 2, 58, 0
5, 10320, Note_on_c, 2, 79, 88
5, 10320, Note_on_c, 2, 91, 88
5, 10378, Note_on_c, 2, 91, 0
5, 10378, Note_on_c, 2, 79, 0
5, 10440, Note_on_c, 2, 70, 79
5, 10440, Note_on_c, 2, 82, 79
5, 10498, Note_on_c, 2, 82, 0
5, 10498, Note_on_c, 2, 70, 0
5, 10560, Note_on_c, 2, 67, 75
5, 10560, Note_on_c, 2, 79, 75
5, 10618, Note_on_c, 2, 79, 0
5, 10618, Note_on_c, 2, 67, 0
5, 10680, Note_on_c, 2, 62, 74
5, 10680, Note_on_c, 2, 74, 74
5, 10738, Note_on_c, 2, 74, 0
5, 10738, Note_on_c, 2, 62, 0
5, 10800, Note_on_c, 2, 58, 84
5, 10800, Note_on_c, 2, 70, 84
5, 10858, Note_on_c, 2, 70, 0
5, 10858, Note_on_c, 2, 58, 0
5, 10920, Note_on_c, 2, 79, 85
5, 10920, Note_on_c, 2, 91, 85
5, 10978, Note_on_c, 2, 91, 0
5, 10978, Note_on_c, 2, 79, 0
5, 11040, Note_on_c, 2, 74, 79
5, 11040, Note_on_c, 2, 86, 79
5, 11098, Note_on_c, 2, 86, 0
5, 11098, Note_on_c, 2, 74, 0
5, 11160, Note_on_c, 2, 70, 75
5, 11160, Note_on_c, 2, 82, 75
5, 11218, Note_on_c, 2, 82, 0
5, 11218, Note_on_c, 2, 70, 0
5, 11280, Note_on_c, 2, 67, 74
5, 11280, Note_on_c, 2, 79, 74
5, 11338, Note_on_c, 2, 79, 0
5, 11338, Note_on_c, 2, 67, 0
5, 11400, Note_on_c, 2, 62, 84
5, 11400, Note_on_c, 2, 74, 84
5, 11458, Note_on_c, 2, 74, 0
5, 11458, Note_on_c, 2, 62, 0
5, 11520, Note_on_c, 2, 79, 84
5, 11520, Note_on_c, 2, 91, 84
5, 11578, Note_on_c, 2, 91, 0
5, 11578, Note_on_c, 2, 79, 0
5, 11640, Note_on_c, 2, 75, 79
5, 11640, Note_on_c, 2, 87, 79
5, 11698, Note_on_c, 2, 87, 0
5, 11698, Note_on_c, 2, 75, 0
5, 11760, Note_on_c, 2, 72, 76
5, 11760, Note_on_c, 2, 84, 76
5, 11818, Note_on_c, 2, 84, 0
5, 11818, Note_on_c, 2, 72, 0
5, 11880, Note_on_c, 2, 67, 74
5, 11880, Note_on_c, 2, 79, 74
5, 11938, Note_on_c, 2, 79, 0
5, 11938, Note_on_c, 2, 67, 0
5, 12000, Note_on_c, 2, 63, 80
5, 12000, Note_on_c, 2, 75, 80
5, 12058, Note_on_c, 2, 75, 0
5, 12058, Note_on_c, 2, 63, 0
5, 12120, Note_on_c, 2, 60, 78
5, 12120, Note_on_c, 2, 72, 78
5, 12178, Note_on_c, 2, 72, 0
5, 12178, Note_on_c, 2, 60, 0
5, 12240, Note_on_c, 2, 80, 82
5, 12240, Note_on_c, 2, 92, 82
5, 12298, Note_on_c, 2, 92, 0
5, 12298, Note_on_c, 2, 80, 0
5, 12360, Note_on_c, 2, 75, 79
5, 12360, Note_on_c, 2, 87, 79
5, 12418, Note_on_c, 2, 87, 0
5, 12418, Note_on_c, 2, 75, 0
5, 12480, Note_on_c, 2, 72, 75
5, 12480, Note_on_c, 2, 84, 75
5, 12538, Note_on_c, 2, 84, 0
5, 12538, Note_on_c, 2, 72, 0
5, 12600, Note_on_c, 2, 68, 74
5, 12600, Note_on_c, 2, 80, 74
5, 12658, Note_on_c, 2, 80, 0
5, 12658, Note_on_c, 2, 68, 0
5, 12720, Note_on_c, 2, 63, 84
5, 12720, Note_on_c, 2, 75, 84
5, 12778, Note_on_c, 2, 75, 0
5, 12778, Note_on_c, 2, 63, 0
5, 12840, Note_on_c, 2, 60, 84
5, 12840, Note_on_c, 2, 80, 84
5, 12840, Note_on_c, 2, 92, 84
5, 12898, Note_on_c, 2, 92, 0
5, 12898, Note_on_c, 2, 80, 0
5, 12898, Note_on_c, 2, 60, 0
5, 12960, Note_on_c, 2, 75, 79
5, 12960, Note_on_c, 2, 87, 79
5, 13018, Note_on_c, 2, 87, 0
5, 13018, Note_on_c, 2, 75, 0
5, 13080, Note_on_c, 2, 72, 75
5, 13080, Note_on_c, 2, 84, 75
5, 13138, Note_on_c, 2, 84, 0
5, 13138, Note_on_c, 2, 72, 0
5, 13200, Note_on_c, 2, 68, 74
5, 13200, Note_on_c, 2, 80, 74
5, 13258, Note_on_c, 2, 80, 0
5, 13258, Note_on_c, 2, 68, 0
5, 13320, Note_on_c, 2, 75, 84
5, 13378, Note_on_c, 2, 75, 0
5, 13440, Note_on_c, 2, 79, 85
5, 13440, Note_on_c, 2, 91, 85
5, 13498, Note_on_c, 2, 91, 0
5, 13498, Note_on_c, 2, 79, 0
5, 13560, Note_on_c, 2, 75, 79
5, 13560, Note_on_c, 2, 87, 79
5, 13618, Note_on_c, 2, 87, 0
5, 13618, Note_on_c, 2, 75, 0
5, 13680, Note_on_c, 2, 70, 75
5, 13680, Note_on_c, 2, 82, 75
5, 13738, Note_on_c, 2, 82, 0
5, 13738, Note_on_c, 2, 70, 0
5, 13800, Note_on_c, 2, 67, 74
5, 13800, Note_on_c, 2, 79, 74
5, 13858, Note_on_c, 2, 79, 0
5, 13858, Note_on_c, 2, 67, 0
5, 13920, Note_on_c, 2, 63, 84
5, 13920, Note_on_c, 2, 75, 84
5, 13978, Note_on_c, 2, 75, 0
5, 13978, Note_on_c, 2, 63, 0
5, 14040, Note_on_c, 2, 58, 84
5, 14040, Note_on_c, 2, 70, 84
5, 14098, Note_on_c, 2, 70, 0
5, 14098, Note_on_c, 2, 58, 0
5, 14160, Note_on_c, 2, 79, 88
5, 14160, Note_on_c, 2, 91, 88
5, 14218, Note_on_c, 2, 91, 0
5, 14218, Note_on_c, 2, 79, 0
5, 14280, Note_on_c, 2, 70, 79
5, 14280, Note_on_c, 2, 82, 79
5, 14338, Note_on_c, 2, 82, 0
5, 14338, Note_on_c, 2, 70, 0
5, 14400, Note_on_c, 2, 67, 75
5, 14400, Note_on_c, 2, 79, 75
5, 14458, Note_on_c, 2, 79, 0
5, 14458, Note_on_c, 2, 67, 0
5, 14520, Note_on_c, 2, 62, 74
5, 14520, Note_on_c, 2, 74, 74
5, 14578, Note_on_c, 2, 74, 0
5, 14578, Note_on_c, 2, 62, 0
5, 14640, Note_on_c, 2, 58, 84
5, 14640, Note_on_c, 2, 70, 84
5, 14698, Note_on_c, 2, 70, 0
5, 14698, Note_on_c, 2, 58, 0
5, 14760, Note_on_c, 2, 79, 86
5, 14760, Note_on_c, 2, 91, 86
5, 14818, Note_on_c, 2, 91, 0
5, 14818, Note_on_c, 2, 79, 0
5, 14880, Note_on_c, 2, 74, 79
5, 14880, Note_on_c, 2, 86, 79
5, 14938, Note_on_c, 2, 86, 0
5, 14938, Note_on_c, 2, 74, 0
5, 15000, Note_on_c, 2, 70, 75
5, 15000, Note_on_c, 2, 82, 75
5, 15058, Note_on_c, 2, 82, 0
5, 15058, Note_on_c, 2, 70, 0
5, 15120, Note_on_c, 2, 67, 74
5, 15120, Note_on_c, 2, 79, 74
5, 15178, Note_on_c, 2, 79, 0
5, 15178, Note_on_c, 2, 67, 0
5, 15240, Note_on_c, 2, 62, 84
5, 15240, Note_on_c, 2, 74, 84
5, 15298, Note_on_c, 2, 74, 0
5, 15298, Note_on_c, 2, 62, 0
5, 15360, Note_on_c, 2, 79, 84
5, 15360, Note_on_c, 2, 91, 84
5, 15418, Note_on_c, 2, 91, 0
5, 15418, Note_on_c, 2, 79, 0
5, 15480, Note_on_c, 2, 75, 79
5, 15480, Note_on_c, 2, 87, 79
5, 15538, Note_on_c, 2, 87, 0
5, 15538, Note_on_c, 2, 75, 0
5, 15600, Note_on_c, 2, 72, 76
5, 15600, Note_on_c, 2, 84, 76
5, 15658, Note_on_c, 2, 84, 0
5, 15658, Note_on_c, 2, 72, 0
5, 15720, Note_on_c, 2, 67, 74
5, 15720, Note_on_c, 2, 79, 74
5, 15778, Note_on_c, 2, 79, 0
5, 15778, Note_on_c, 2, 67, 0
5, 15840, Note_on_c, 2, 63, 80
5, 15840, Note_on_c, 2, 75, 80
5, 15898, Note_on_c, 2, 75, 0
5, 15898, Note_on_c, 2, 63, 0
5, 15960, Note_on_c, 2, 60, 78
5, 15960, Note_on_c, 2, 72, 78
5, 16018, Note_on_c, 2, 72, 0
5, 16018, Note_on_c, 2, 60, 0
5, 16080, Note_on_c, 2, 80, 82
5, 16080, Note_on_c, 2, 92, 82
5, 16138, Note_on_c, 2, 92, 0
5, 16138, Note_on_c, 2, 80, 0
5, 16200, Note_on_c, 2, 75, 79
5, 16200, Note_on_c, 2, 87, 79
5, 16258, Note_on_c, 2, 87, 0
5, 16258, Note_on_c, 2, 75, 0
5, 16320, Note_on_c, 2, 72, 75
5, 16320, Note_on_c, 2, 84, 75
5, 16378, Note_on_c, 2, 84, 0
5, 16378, Note_on_c, 2, 72, 0
5, 16440, Note_on_c, 2, 68, 74
5, 16440, Note_on_c, 2, 80, 74
5, 16498, Note_on_c, 2, 80, 0
5, 16498, Note_on_c, 2, 68, 0
5, 16560, Note_on_c, 2, 63, 84
5, 16560, Note_on_c, 2, 75, 84
5, 16618, Note_on_c, 2, 75, 0
5, 16618, Note_on_c, 2, 63, 0
5, 16680, Note_on_c, 2, 60, 85
5, 16680, Note_on_c, 2, 80, 85
5, 16680, Note_on_c, 2, 92, 85
5, 16738, Note_on_c, 2, 92, 0
5, 16738, Note_on_c, 2, 80, 0
5, 16738, Note_on_c, 2, 60, 0
5, 16800, Note_on_c, 2, 75, 79
5, 16800, Note_on_c, 2, 87, 79
5, 16858, Note_on_c, 2, 87, 0
5, 16858, Note_on_c, 2, 75, 0
5, 16920, Note_on_c, 2, 72, 75
5, 16920, Note_on_c, 2, 84, 75
5, 16978, Note_on_c, 2, 84, 0
5, 16978, Note_on_c, 2, 72, 0
5, 17040, Note_on_c, 2, 68, 74
5, 17040, Note_on_c, 2, 80, 74
5, 17098, Note_on_c, 2, 80, 0
5, 17098, Note_on_c, 2, 68, 0
5, 17160, Note_on_c, 2, 75, 84
5, 17218, Note_on_c, 2, 75, 0
5, 17280, Note_on_c, 2, 79, 86
5, 17280, Note_on_c, 2, 91, 86
5, 17338, Note_on_c, 2, 91, 0
5, 17338, Note_on_c, 2, 79, 0
5, 17400, Note_on_c, 2, 75, 79
5, 17400, Note_on_c, 2, 87, 79
5, 17458, Note_on_c, 2, 87, 0
5, 17458, Note_on_c, 2, 75, 0
5, 17520, Note_on_c, 2, 70, 75
5, 17520, Note_on_c, 2, 82, 75
5, 17578, Note_on_c, 2, 82, 0
5, 17578, Note_on_c, 2, 70, 0
5, 17640, Note_on_c, 2, 67, 74
5, 17640, Note_on_c, 2, 79, 74
5, 17698, Note_on_c, 2, 79, 0
5, 17698, Note_on_c, 2, 67, 0
5, 17760, Note_on_c, 2, 63, 84
5, 17760, Note_on_c, 2, 75, 84
5, 17818, Note_on_c, 2, 75, 0
5, 17818, Note_on_c, 2, 63, 0
5, 17880, Note_on_c, 2, 58, 84
5, 17880, Note_on_c, 2, 70, 84
5, 17938, Note_on_c, 2, 70, 0
5, 17938, Note_on_c, 2, 58, 0
5, 18000, Note_on_c, 2, 79, 88
5, 18000, Note_on_c, 2, 91, 88
5, 18058, Note_on_c, 2, 91, 0
5, 18058, Note_on_c, 2, 79, 0
5, 18120, Note_on_c, 2, 70, 79
5, 18120, Note_on_c, 2, 82, 79
5, 18178, Note_on_c, 2, 82, 0
5, 18178, Note_on_c, 2, 70, 0
5, 18240, Note_on_c, 2, 67, 75
5, 18240, Note_on_c, 2, 79, 75
5, 18298, Note_on_c, 2, 79, 0
5, 18298, Note_on_c, 2, 67, 0
5, 18360, Note_on_c, 2, 62, 74
5, 18360, Note_on_c, 2, 74, 74
5, 18418, Note_on_c, 2, 74, 0
5, 18418, Note_on_c, 2, 62, 0
5, 18480, Note_on_c, 2, 58, 84
5, 18480, Note_on_c, 2, 70, 84
5, 18538, Note_on_c, 2, 70, 0
5, 18538, Note_on_c, 2, 58, 0
5, 18600, Note_on_c, 2, 79, 87
5, 18600, Note_on_c, 2, 91, 87
5, 18658, Note_on_c, 2, 91, 0
5, 18658, Note_on_c, 2, 79, 0
5, 18720, Note_on_c, 2, 74, 79
5, 18720, Note_on_c, 2, 86, 79
5, 18778, Note_on_c, 2, 86, 0
5, 18778, Note_on_c, 2, 74, 0
5, 18840, Note_on_c, 2, 70, 75
5, 18840, Note_on_c, 2, 82, 75
5, 18898, Note_on_c, 2, 82, 0
5, 18898, Note_on_c, 2, 70, 0
5, 18960, Note_on_c, 2, 67, 74
5, 18960, Note_on_c, 2, 79, 74
5, 19018, Note_on_c, 2, 79, 0
5, 19018, Note_on_c, 2, 67, 0
5, 19080, Note_on_c, 2, 62, 84
5, 19080, Note_on_c, 2, 74, 84
5, 19138, Note_on_c, 2, 74, 0
5, 19138, Note_on_c, 2, 62, 0
5, 19200, Note_on_c, 2, 79, 74
5, 19258, Note_on_c, 2, 79, 0
5, 19320, Note_on_c, 2, 75, 69
5, 19378, Note_on_c, 2, 75, 0
5, 19440, Note_on_c, 2, 72, 66
5, 19498, Note_on_c, 2, 72, 0
5, 19560, Note_on_c, 2, 67, 64
5, 19618, Note_on_c, 2, 67, 0
5, 19680, Note_on_c, 2, 63, 70
5, 19738, Note_on_c, 2, 63, 0
5, 19800, Note_on_c, 2, 60, 68
5, 19858, Note_on_c, 2, 60, 0
5, 19920, Note_on_c, 2, 80, 72
5, 19978, Note_on_c, 2, 80, 0
5, 20040, Note_on_c, 2, 75, 69
5, 20098, Note_on_c, 2, 75, 0
5, 20160, Note_on_c, 2, 72, 65
5, 20218, Note_on_c, 2, 72, 0
5, 20280, Note_on_c, 2, 68, 64
5, 20338, Note_on_c, 2, 68, 0
5, 20400, Note_on_c, 2, 63, 74
5, 20458, Note_on_c, 2, 63, 0
5, 20520, Note_on_c, 2, 60, 82
5, 20520, Note_on_c, 2, 80, 74
5, 20578, Note_on_c, 2, 80, 0
5, 20578, Note_on_c, 2, 60, 0
5, 20640, Note_on_c, 2, 75, 69
5, 20698, Note_on_c, 2, 75, 0
5, 20760, Note_on_c, 2, 72, 65
5, 20818, Note_on_c, 2, 72, 0
5, 20880, Note_on_c, 2, 68, 64
5, 20938, Note_on_c, 2, 68, 0
5, 21000, Note_on_c, 2, 75, 74
5, 21058, Note_on_c, 2, 75, 0
5, 21120, Note_on_c, 2, 79, 84
5, 21178, Note_on_c, 2, 79, 0
5, 21240, Note_on_c, 2, 75, 69
5, 21298, Note_on_c, 2, 75, 0
5, 21360, Note_on_c, 2, 70, 65
5, 21418, Note_on_c, 2, 70, 0
5, 21480, Note_on_c, 2, 67, 64
5, 21538, Note_on_c, 2, 67, 0
5, 21600, Note_on_c, 2, 63, 74
5, 21658, Note_on_c, 2, 63, 0
5, 21720, Note_on_c, 2, 58, 74
5, 21778, Note_on_c, 2, 58, 0
5, 21840, Note_on_c, 2, 79, 78
5, 21898, Note_on_c, 2, 79, 0
5, 21960, Note_on_c, 2, 70, 69
5, 22018, Note_on_c, 2, 70, 0
5, 22080, Note_on_c, 2, 67, 65
5, 22138, Note_on_c, 2, 67, 0
5, 22200, Note_on_c, 2, 62, 64
5, 22258, Note_on_c, 2, 62, 0
5, 22320, Note_on_c, 2, 58, 74
5, 22378, Note_on_c, 2, 58, 0
5, 22440, Note_on_c, 2, 79, 87
5, 22498, Note_on_c, 2, 79, 0
5, 22560, Note_on_c, 2, 74, 69
5, 22618, Note_on_c, 2, 74, 0
5, 22680, Note_on_c, 2, 70, 65
5, 22738, Note_on_c, 2, 70, 0
5, 22800, Note_on_c, 2, 67, 64
5, 22858, Note_on_c, 2, 67, 0
5, 22920, Note_on_c, 2, 62, 74
5, 22978, Note_on_c, 2, 62, 0
5, 23040, Note_on_c, 2, 79, 74
5, 23098, Note_on_c, 2, 79, 0
5, 23160, Note_on_c, 2, 75, 69
5, 23218, Note_on_c, 2, 75, 0
5, 23280, Note_on_c, 2, 72, 66
5, 23338, Note_on_c, 2, 72, 0
5, 23400, Note_on_c, 2, 67, 64
5, 23458, Note_on_c, 2, 67, 0
5, 23520, Note_on_c, 2, 63, 70
5, 23578, Note_on_c, 2, 63, 0
5, 23640, Note_on_c, 2, 60, 68
5, 23698, Note_on_c, 2, 60, 0
5, 23760, Note_on_c, 2, 80, 72
5, 23818, Note_on_c, 2, 80, 0
5, 23880, Note_on_c, 2, 75, 69
5, 23938, Note_on_c, 2, 75, 0
5, 24000, Note_on_c, 2, 72, 65
5, 24058, Note_on_c, 2, 72, 0
5, 24120, Note_on_c, 2, 68, 64
5, 24178, Note_on_c, 2, 68, 0
5, 24240, Note_on_c, 2, 63, 74
5, 24298, Note_on_c, 2, 63, 0
5, 24360, Note_on_c, 2, 60, 82
5, 24360, Note_on_c, 2, 80, 82
5, 24418, Note_on_c, 2, 80, 0
5, 24418, Note_on_c, 2, 60, 0
5, 24480, Note_on_c, 2, 75, 69
5, 24538, Note_on_c, 2, 75, 0
5, 24600, Note_on_c, 2, 72, 65
5, 24658, Note_on_c, 2, 72, 0
5, 24720, Note_on_c, 2, 68, 64
5, 24778, Note_on_c, 2, 68, 0
5, 24840, Note_on_c, 2, 75, 74
5, 24898, Note_on_c, 2, 75, 0
5, 24960, Note_on_c, 2, 79, 84
5, 25018, Note_on_c, 2, 79, 0
5, 25080, Note_on_c, 2, 75, 69
5, 25138, Note_on_c, 2, 75, 0
5, 25200, Note_on_c, 2, 70, 65
5, 25258, Note_on_c, 2, 70, 0
5, 25320, Note_on_c, 2, 67, 64
5, 25378, Note_on_c, 2, 67, 0
5, 25440, Note_on_c, 2, 63, 74
5, 25498, Note_on_c, 2, 63, 0
5, 25560, Note_on_c, 2, 58, 74
5, 25618, Note_on_c, 2, 58, 0
5, 25680, Note_on_c, 2, 79, 78
5, 25738, Note_on_c, 2, 79, 0
5, 25800, Note_on_c, 2, 70, 69
5, 25858, Note_on_c, 2, 70, 0
5, 25920, Note_on_c, 2, 67, 65
5, 25978, Note_on_c, 2, 67, 0
5, 26040, Note_on_c, 2, 62, 64
5, 26098, Note_on_c, 2, 62, 0
5, 26160, Note_on_c, 2, 58, 74
5, 26218, Note_on_c, 2, 58, 0
5, 26280, Note_on_c, 2, 79, 87
5, 26338, Note_on_c, 2, 79, 0
5, 26400, Note_on_c, 2, 74, 69
5, 26458, Note_on_c, 2, 74, 0
5, 26520, Note_on_c, 2, 70, 65
5, 26578, Note_on_c, 2, 70, 0
5, 26640, Note_on_c, 2, 67, 64
5, 26698, Note_on_c, 2, 67, 0
5, 26760, Note_on_c, 2, 62, 74
5, 26818, Note_on_c, 2, 62, 0
5, 26880, Note_on_c, 2, 79, 74
5, 26938, Note_on_c, 2, 79, 0
5, 27000, Note_on_c, 2, 75, 69
5, 27058, Note_on_c, 2, 75, 0
5, 27120, Note_on_c, 2, 72, 66
5, 27178, Note_on_c, 2, 72, 0
5, 27240, Note_on_c, 2, 67, 64
5, 27298, Note_on_c, 2, 67, 0
5, 27360, Note_on_c, 2, 63, 70
5, 27418, Note_on_c, 2, 63, 0
5, 27480, Note_on_c, 2, 60, 68
5, 27538, Note_on_c, 2, 60, 0
5, 27600, Note_on_c, 2, 80, 72
5, 27658, Note_on_c, 2, 80, 0
5, 27720, Note_on_c, 2, 75, 69
5, 27778, Note_on_c, 2, 75, 0
5, 27840, Note_on_c, 2, 72, 65
5, 27898, Note_on_c, 2, 72, 0
5, 27960, Note_on_c, 2, 68, 64
5, 28018, Note_on_c, 2, 68, 0
5, 28080, Note_on_c, 2, 63, 74
5, 28138, Note_on_c, 2, 63, 0
5, 28200, Note_on_c, 2, 60, 82
5, 28200, Note_on_c, 2, 80, 82
5, 28258, Note_on_c, 2, 80, 0
5, 28258, Note_on_c, 2, 60, 0
5, 28320, Note_on_c, 2, 75, 69
5, 28378, Note_on_c, 2, 75, 0
5, 28440, Note_on_c, 2, 72, 65
5, 28498, Note_on_c, 2, 72, 0
5, 28560, Note_on_c, 2, 68, 64
5, 28618, Note_on_c, 2, 68, 0
5, 28680, Note_on_c, 2, 75, 74
5, 28738, Note_on_c, 2, 75, 0
5, 28800, Note_on_c, 2, 79, 84
5, 28858, Note_on_c, 2, 79, 0
5, 28920, Note_on_c, 2, 75, 69
5, 28978, Note_on_c, 2, 75, 0
5, 29040, Note_on_c, 2, 70, 65
5, 29098, Note_on_c, 2, 70, 0
5, 29160, Note_on_c, 2, 67, 64
5, 29218, Note_on_c, 2, 67, 0
5, 29280, Note_on_c, 2, 63, 74
5, 29338, Note_on_c, 2, 63, 0
5, 29400, Note_on_c, 2, 58, 74
5, 29458, Note_on_c, 2, 58, 0
5, 29520, Note_on_c, 2, 79, 78
5, 29578, Note_on_c, 2, 79, 0
5, 29640, Note_on_c, 2, 70, 69
5, 29698, Note_on_c, 2, 70, 0
5, 29760, Note_on_c, 2, 67, 65
5, 29818, Note_on_c, 2, 67, 0
5, 29880, Note_on_c, 2, 62, 64
5, 29938, Note_on_c, 2, 62, 0
5, 30000, Note_on_c, 2, 58, 74
5, 30058, Note_on_c, 2, 58, 0
5, 30120, Note_on_c, 2, 79, 87
5, 30178, Note_on_c, 2, 79, 0
5, 30240, Note_on_c, 2, 74, 69
5, 30298, Note_on_c, 2, 74, 0
5, 30360, Note_on_c, 2, 70, 65
5, 30418, Note_on_c, 2, 70, 0
5, 30480, Note_on_c, 2, 67, 64
5, 30538, Note_on_c, 2, 67, 0
5, 30600, Note_on_c, 2, 62, 74
5, 30658, Note_on_c, 2, 62, 0
5, 30720, Note_on_c, 2, 79, 74
5, 30778, Note_on_c, 2, 79, 0
5, 30840, Note_on_c, 2, 75, 69
5, 30898, Note_on_c, 2, 75, 0
5, 30960, Note_on_c, 2, 72, 66
5, 31018, Note_on_c, 2, 72, 0
5, 31080, Note_on_c, 2, 67, 64
5, 31138, Note_on_c, 2, 67, 0
5, 31200, Note_on_c, 2, 63, 70
5, 31258, Note_on_c, 2, 63, 0
5, 31320, Note_on_c, 2, 60, 68
5, 31378, Note_on_c, 2, 60, 0
5, 31440, Note_on_c, 2, 80, 72
5, 31498, Note_on_c, 2, 80, 0
5, 31560, Note_on_c, 2, 75, 69
5, 31618, Note_on_c, 2, 75, 0
5, 31680, Note_on_c, 2, 72, 65
5, 31738, Note_on_c, 2, 72, 0
5, 31800, Note_on_c, 2, 68, 64
5, 31858, Note_on_c, 2, 68, 0
5, 31920, Note_on_c, 2, 63, 74
5, 31978, Note_on_c, 2, 63, 0
5, 32040, Note_on_c, 2, 60, 82
5, 32040, Note_on_c, 2, 80, 82
5, 32098, Note_on_c, 2, 80, 0
5, 32098, Note_on_c, 2, 60, 0
5, 32160, Note_on_c, 2, 75, 69
5, 32218, Note_on_c, 2, 75, 0
5, 32280, Note_on_c, 2, 72, 65
5, 32338, Note_on_c, 2, 72, 0
5, 32400, Note_on_c, 2, 68, 64
5, 32458, Note_on_c, 2, 68, 0
5, 32520, Note_on_c, 2, 75, 74
5, 32578, Note_on_c, 2, 75, 0
5, 32640, Note_on_c, 2, 79, 84
5, 32698, Note_on_c, 2, 79, 0
5, 32760, Note_on_c, 2, 75, 69
5, 32818, Note_on_c, 2, 75, 0
5, 32880, Note_on_c, 2, 70, 65
5, 32938, Note_on_c, 2, 70, 0
5, 33000, Note_on_c, 2, 67, 64
5, 33058, Note_on_c, 2, 67, 0
5, 33120, Note_on_c, 2, 63, 74
5, 33178, Note_on_c, 2, 63, 0
5, 33240, Note_on_c, 2, 58, 74
5, 33298, Note_on_c, 2, 58, 0
5, 33360, Note_on_c, 2, 79, 78
5, 33418, Note_on_c, 2, 79, 0
5, 33480, Note_on_c, 2, 70, 69
5, 33538, Note_on_c, 2, 70, 0
5, 33600, Note_on_c, 2, 67, 65
5, 33658, Note_on_c, 2, 67, 0
5, 33720, Note_on_c, 2, 62, 64
5, 33778, Note_on_c, 2, 62, 0
5, 33840, Note_on_c, 2, 58, 74
5, 33898, Note_on_c, 2, 58, 0
5, 33960, Note_on_c, 2, 79, 87
5, 34018, Note_on_c, 2, 79, 0
5, 34080, Note_on_c, 2, 74, 69
5, 34138, Note_on_c, 2, 74, 0
5, 34200, Note_on_c, 2, 70, 65
5, 34258, Note_on_c, 2, 70, 0
5, 34320, Note_on_c, 2, 67, 64
5, 34378, Note_on_c, 2, 67, 0
5, 34440, Note_on_c, 2, 62, 74
5, 34498, Note_on_c, 2, 62, 0
5, 34560, Note_on_c, 2, 79, 74
5, 34618, Note_on_c, 2, 79, 0
5, 34680, Note_on_c, 2, 75, 69
5, 34738, Note_on_c, 2, 75, 0
5, 34800, Note_on_c, 2, 72, 66
5, 34858, Note_on_c, 2, 72, 0
5, 34920, Note_on_c, 2, 67, 64
5, 34978, Note_on_c, 2, 67, 0
5, 35040, Note_on_c, 2, 63, 70
5, 35098, Note_on_c, 2, 63, 0
5, 35160, Note_on_c, 2, 60, 68
5, 35218, Note_on_c, 2, 60, 0
5, 35280, Note_on_c, 2, 79, 72
5, 35338, Note_on_c, 2, 79, 0
5, 35400, Note_on_c, 2, 75, 69
5, 35458, Note_on_c, 2, 75, 0
5, 35520, Note_on_c, 2, 72, 65
5, 35578, Note_on_c, 2, 72, 0
5, 35640, Note_on_c, 2, 67, 64
5, 35698, Note_on_c, 2, 67, 0
5, 35760, Note_on_c, 2, 63, 74
5, 35818, Note_on_c, 2, 63, 0
5, 35880, Note_on_c, 2, 60, 82
5, 35938, Note_on_c, 2, 60, 0
5, 36000, Note_on_c, 2, 79, 72
5, 36058, Note_on_c, 2, 79, 0
5, 36120, Note_on_c, 2, 75, 69
5, 36178, Note_on_c, 2, 75, 0
5, 36240, Note_on_c, 2, 72, 65
5, 36298, Note_on_c, 2, 72, 0
5, 36360, Note_on_c, 2, 67, 64
5, 36418, Note_on_c, 2, 67, 0
5, 36480, Note_on_c, 2, 63, 74
5, 36538, Note_on_c, 2, 63, 0
5, 36600, Note_on_c, 2, 79, 72
5, 36658, Note_on_c, 2, 79, 0
5, 36720, Note_on_c, 2, 80, 74
5, 36778, Note_on_c, 2, 80, 0
5, 36840, Note_on_c, 2, 75, 69
5, 36898, Note_on_c, 2, 75, 0
5, 36960, Note_on_c, 2, 72, 66
5, 37018, Note_on_c, 2, 72, 0
5, 37080, Note_on_c, 2, 68, 64
5, 37138, Note_on_c, 2, 68, 0
5, 37200, Note_on_c, 2, 63, 70
5, 37258, Note_on_c, 2, 63, 0
5, 37320, Note_on_c, 2, 60, 68
5, 37378, Note_on_c, 2, 60, 0
5, 37440, Note_on_c, 2, 80, 72
5, 37498, Note_on_c, 2, 80, 0
5, 37560, Note_on_c, 2, 75, 69
5, 37618, Note_on_c, 2, 75, 0
5, 37680, Note_on_c, 2, 72, 65
5, 37738, Note_on_c, 2, 72, 0
5, 37800, Note_on_c, 2, 68, 64
5, 37858, Note_on_c, 2, 68, 0
5, 37920, Note_on_c, 2, 63, 74
5, 37978, Note_on_c, 2, 63, 0
5, 38040, Note_on_c, 2, 60, 82
5, 38098, Note_on_c, 2, 60, 0
5, 38160, Note_on_c, 2, 80, 72
5, 38218, Note_on_c, 2, 80, 0
5, 38280, Note_on_c, 2, 75, 69
5, 38338, Note_on_c, 2, 75, 0
5, 38400, Note_on_c, 2, 79, 74
5, 38458, Note_on_c, 2, 79, 0
5, 38520, Note_on_c, 2, 75, 69
5, 38578, Note_on_c, 2, 75, 0
5, 38640, Note_on_c, 2, 70, 66
5, 38698, Note_on_c, 2, 70, 0
5, 38760, Note_on_c, 2, 67, 64
5, 38818, Note_on_c, 2, 67, 0
5, 38880, Note_on_c, 2, 62, 70
5, 38938, Note_on_c, 2, 62, 0
5, 39000, Note_on_c, 2, 58, 68
5, 39058, Note_on_c, 2, 58, 0
5, 39120, Note_on_c, 2, 79, 72
5, 39178, Note_on_c, 2, 79, 0
5, 39240, Note_on_c, 2, 75, 69
5, 39298, Note_on_c, 2, 75, 0
5, 39360, Note_on_c, 2, 70, 65
5, 39418, Note_on_c, 2, 70, 0
5, 39480, Note_on_c, 2, 67, 64
5, 39538, Note_on_c, 2, 67, 0
5, 39600, Note_on_c, 2, 62, 74
5, 39658, Note_on_c, 2, 62, 0
5, 39720, Note_on_c, 2, 58, 82
5, 39778, Note_on_c, 2, 58, 0
5, 39840, Note_on_c, 2, 79, 72
5, 39898, Note_on_c, 2, 79, 0
5, 39960, Note_on_c, 2, 75, 69
5, 40018, Note_on_c, 2, 75, 0
5, 40080, Note_on_c, 2, 70, 65
5, 40138, Note_on_c, 2, 70, 0
5, 40200, Note_on_c, 2, 67, 64
5, 40258, Note_on_c, 2, 67, 0
5, 40320, Note_on_c, 2, 79, 74
5, 40378, Note_on_c, 2, 79, 0
5, 40440, Note_on_c, 2, 74, 69
5, 40498, Note_on_c, 2, 74, 0
5, 40560, Note_on_c, 2, 70, 66
5, 40618, Note_on_c, 2, 70, 0
5, 40680, Note_on_c, 2, 67, 64
5, 40738, Note_on_c, 2, 67, 0
5, 40800, Note_on_c, 2, 62, 70
5, 40858, Note_on_c, 2, 62, 0
5, 40920, Note_on_c, 2, 58, 68
5, 40978, Note_on_c, 2, 58, 0
5, 41040, Note_on_c, 2, 79, 72
5, 41098, Note_on_c, 2, 79, 0
5, 41160, Note_on_c, 2, 74, 69
5, 41218, Note_on_c, 2, 74, 0
5, 41280, Note_on_c, 2, 70, 65
5, 41338, Note_on_c, 2, 70, 0
5, 41400, Note_on_c, 2, 67, 64
5, 41458, Note_on_c, 2, 67, 0
5, 41520, Note_on_c, 2, 62, 74
5, 41578, Note_on_c, 2, 62, 0
5, 41640, Note_on_c, 2, 58, 82
5, 41698, Note_on_c, 2, 58, 0
5, 41760, Note_on_c, 2, 79, 72
5, 41818, Note_on_c, 2, 79, 0
5, 41880, Note_on_c, 2, 74, 69
5, 41938, Note_on_c, 2, 74, 0
5, 42000, Note_on_c, 2, 70, 65
5, 42058, Note_on_c, 2, 70, 0
5, 42120, Note_on_c, 2, 67, 64
5, 42178, Note_on_c, 2, 67, 0
5, 42240, Note_on_c, 2, 79, 74
5, 42298, Note_on_c, 2, 79, 0
5, 42360, Note_on_c, 2, 75, 69
5, 42418, Note_on_c, 2, 75, 0
5, 42480, Note_on_c, 2, 72, 66
5, 42538, Note_on_c, 2, 72, 0
5, 42600, Note_on_c, 2, 67, 64
5, 42658, Note_on_c, 2, 67, 0
5, 42720, Note_on_c, 2, 63, 70
5, 42778, Note_on_c, 2, 63, 0
5, 42840, Note_on_c, 2, 60, 68
5, 42898, Note_on_c, 2, 60, 0
5, 42960, Note_on_c, 2, 79, 72
5, 43018, Note_on_c, 2, 79, 0
5, 43080, Note_on_c, 2, 75, 69
5, 43138, Note_on_c, 2, 75, 0
5, 43200, Note_on_c, 2, 72, 65
5, 43258, Note_on_c, 2, 72, 0
5, 43320, Note_on_c, 2, 67, 64
5, 43378, Note_on_c, 2, 67, 0
5, 43440, Note_on_c, 2, 63, 74
5, 43498, Note_on_c, 2, 63, 0
5, 43560, Note_on_c, 2, 60, 82
5, 43618, Note_on_c, 2, 60, 0
5, 43680, Note_on_c, 2, 79, 72
5, 43738, Note_on_c, 2, 79, 0
5, 43800, Note_on_c, 2, 75, 69
5, 43858, Note_on_c, 2, 75, 0
5, 43920, Note_on_c, 2, 72, 65
5, 43978, Note_on_c, 2, 72, 0
5, 44040, Note_on_c, 2, 67, 64
5, 44098, Note_on_c, 2, 67, 0
5, 44160, Note_on_c, 2, 63, 74
5, 44218, Note_on_c, 2, 63, 0
5, 44280, Note_on_c, 2, 79, 72
5, 44338, Note_on_c, 2, 79, 0
5, 44400, Note_on_c, 2, 80, 74
5, 44458, Note_on_c, 2, 80, 0
5, 44520, Note_on_c, 2, 75, 69
5, 44578, Note_on_c, 2, 75, 0
5, 44640, Note_on_c, 2, 72, 66
5, 44698, Note_on_c, 2, 72, 0
5, 44760, Note_on_c, 2, 68, 64
5, 44818, Note_on_c, 2, 68, 0
5, 44880, Note_on_c, 2, 63, 70
5, 44938, Note_on_c, 2, 63, 0
5, 45000, Note_on_c, 2, 60, 68
5, 45058, Note_on_c, 2, 60, 0
5, 45120, Note_on_c, 2, 80, 72
5, 45178, Note_on_c, 2, 80, 0
5, 45240, Note_on_c, 2, 75, 69
5, 45298, Note_on_c, 2, 75, 0
5, 45360, Note_on_c, 2, 72, 65
5, 45418, Note_on_c, 2, 72, 0
5, 45480, Note_on_c, 2, 68, 64
5, 45538, Note_on_c, 2, 68, 0
5, 45600, Note_on_c, 2, 63, 74
5, 45658, Note_on_c, 2, 63, 0
5, 45720, Note_on_c, 2, 60, 82
5, 45778, Note_on_c, 2, 60, 0
5, 45840, Note_on_c, 2, 80, 72
5, 45898, Note_on_c, 2, 80, 0
5, 45960, Note_on_c, 2, 75, 69
5, 46018, Note_on_c, 2, 75, 0
5, 46080, Note_on_c, 2, 79, 74
5, 46138, Note_on_c, 2, 79, 0
5, 46200, Note_on_c, 2, 75, 69
5, 46258, Note_on_c, 2, 75, 0
5, 46320, Note_on_c, 2, 70, 66
5, 46378, Note_on_c, 2, 70, 0
5, 46440, Note_on_c, 2, 67, 64
5, 46498, Note_on_c, 2, 67, 0
5, 46560, Note_on_c, 2, 62, 70
5, 46618, Note_on_c, 2, 62, 0
5, 46680, Note_on_c, 2, 58, 68
5, 46738, Note_on_c, 2, 58, 0
5, 46800, Note_on_c, 2, 79, 72
5, 46858, Note_on_c, 2, 79, 0
5, 46920, Note_on_c, 2, 75, 69
5, 46978, Note_on_c, 2, 75, 0
5, 47040, Note_on_c, 2, 70, 65
5, 47098, Note_on_c, 2, 70, 0
5, 47160, Note_on_c, 2, 67, 64
5, 47218, Note_on_c, 2, 67, 0
5, 47280, Note_on_c, 2, 62, 74
5, 47338, Note_on_c, 2, 62, 0
5, 47400, Note_on_c, 2, 58, 82
5, 47458, Note_on_c, 2, 58, 0
5, 47520, Note_on_c, 2, 79, 72
5, 47578, Note_on_c, 2, 79, 0
5, 47640, Note_on_c, 2, 75, 69
5, 47698, Note_on_c, 2, 75, 0
5, 47760, Note_on_c, 2, 70, 65
5, 47818, Note_on_c, 2, 70, 0
5, 47880, Note_on_c, 2, 67, 64
5, 47938, Note_on_c, 2, 67, 0
5, 48000, Note_on_c, 2, 79, 74
5, 48058, Note_on_c, 2, 79, 0
5, 48120, Note_on_c, 2, 74, 69
5, 48178, Note_on_c, 2, 74, 0
5, 48240, Note_on_c, 2, 70, 66
5, 48298, Note_on_c, 2, 70, 0
5, 48360, Note_on_c, 2, 67, 64
5, 48418, Note_on_c, 2, 67, 0
5, 48480, Note_on_c, 2, 62, 70
5, 48538, Note_on_c, 2, 62, 0
5, 48600, Note_on_c, 2, 58, 68
5, 48658, Note_on_c, 2, 58, 0
5, 48720, Note_on_c, 2, 79, 72
5, 48778, Note_on_c, 2, 79, 0
5, 48840, Note_on_c, 2, 74, 69
5, 48898, Note_on_c, 2, 74, 0
5, 48960, Note_on_c, 2, 70, 65
5, 49018, Note_on_c, 2, 70, 0
5, 49080, Note_on_c, 2, 67, 64
5, 49138, Note_on_c, 2, 67, 0
5, 49200, Note_on_c, 2, 62, 74
5, 49258, Note_on_c, 2, 62, 0
5, 49320, Note_on_c, 2, 58, 82
5, 49378, Note_on_c, 2, 58, 0
5, 49440, Note_on_c, 2, 79, 72
5, 49498, Note_on_c, 2, 79, 0
5, 49560, Note_on_c, 2, 74, 69
5, 49618, Note_on_c, 2, 74, 0
5, 49680, Note_on_c, 2, 70, 65
5, 49738, Note_on_c, 2, 70, 0
5, 49800, Note_on_c, 2, 67, 64
5, 49858, Note_on_c, 2, 67, 0
5, 49920, Note_on_c, 2, 79, 84
5, 49920, Note_on_c, 2, 91, 84
5, 49978, Note_on_c, 2, 91, 0
5, 49978, Note_on_c, 2, 79, 0
5, 50040, Note_on_c, 2, 75, 79
5, 50040, Note_on_c, 2, 87, 79
5, 50098, Note_on_c, 2, 87, 0
5, 50098, Note_on_c, 2, 75, 0
5, 50160, Note_on_c, 2, 72, 76
5, 50160, Note_on_c, 2, 84, 76
5, 50218, Note_on_c, 2, 84, 0
5, 50218, Note_on_c, 2, 72, 0
5, 50280, Note_on_c, 2, 67, 74
5, 50280, Note_on_c, 2, 79, 74
5, 50338, Note_on_c, 2, 79, 0
5, 50338, Note_on_c, 2, 67, 0
5, 50400, Note_on_c, 2, 63, 80
5, 50400, Note_on_c, 2, 75, 80
5, 50458, Note_on_c, 2, 75, 0
5, 50458, Note_on_c, 2, 63, 0
5, 50520, Note_on_c, 2, 60, 78
5, 50520, Note_on_c, 2, 72, 78
5, 50578, Note_on_c, 2, 72, 0
5, 50578, Note_on_c, 2, 60, 0
5, 50640, Note_on_c, 2, 80, 82
5, 50640, Note_on_c, 2, 92, 82
5, 50698, Note_on_c, 2, 92, 0
5, 50698, Note_on_c, 2, 80, 0
5, 50760, Note_on_c, 2, 75, 79
5, 50760, Note_on_c, 2, 87, 79
5, 50818, Note_on_c, 2, 87, 0
5, 50818, Note_on_c, 2, 75, 0
5, 50880, Note_on_c, 2, 72, 75
5, 50880, Note_on_c, 2, 84, 75
5, 50938, Note_on_c, 2, 84, 0
5, 50938, Note_on_c, 2, 72, 0
5, 51000, Note_on_c, 2, 68, 74
5, 51000, Note_on_c, 2, 80, 74
5, 51058, Note_on_c, 2, 80, 0
5, 51058, Note_on_c, 2, 68, 0
5, 51120, Note_on_c, 2, 63, 84
5, 51120, Note_on_c, 2, 75, 84
5, 51178, Note_on_c, 2, 75, 0
5, 51178, Note_on_c, 2, 63, 0
5, 51240, Note_on_c, 2, 60, 92
5, 51240, Note_on_c, 2, 80, 92
5, 51240, Note_on_c, 2, 92, 92
5, 51298, Note_on_c, 2, 92, 0
5, 51298, Note_on_c, 2, 80, 0
5, 51298, Note_on_c, 2, 60, 0
5, 51360, Note_on_c, 2, 75, 79
5, 51360, Note_on_c, 2, 87, 79
5, 51418, Note_on_c, 2, 87, 0
5, 51418, Note_on_c, 2, 75, 0
5, 51480, Note_on_c, 2, 72, 75
5, 51480, Note_on_c, 2, 84, 75
5, 51538, Note_on_c, 2, 84, 0
5, 51538, Note_on_c, 2, 72, 0
5, 51600, Note_on_c, 2, 68, 74
5, 51600, Note_on_c, 2, 80, 74
5, 51658, Note_on_c, 2, 80, 0
5, 51658, Note_on_c, 2, 68, 0
5, 51720, Note_on_c, 2, 75, 84
5, 51778, Note_on_c, 2, 75, 0
5, 51840, Note_on_c, 2, 79, 94
5, 51840, Note_on_c, 2, 91, 90
5, 51898, Note_on_c, 2, 91, 0
5, 51898, Note_on_c, 2, 79, 0
5, 51960, Note_on_c, 2, 75, 79
5, 51960, Note_on_c, 2, 87, 79
5, 52018, Note_on_c, 2, 87, 0
5, 52018, Note_on_c, 2, 75, 0
5, 52080, Note_on_c, 2, 70, 75
5, 52080, Note_on_c, 2, 82, 75
5, 52138, Note_on_c, 2, 82, 0
5, 52138, Note_on_c, 2, 70, 0
5, 52200, Note_on_c, 2, 67, 74
5, 52200, Note_on_c, 2, 79, 74
5, 52258, Note_on_c, 2, 79, 0
5, 52258, Note_on_c, 2, 67, 0
5, 52320, Note_on_c, 2, 63, 84
5, 52320, Note_on_c, 2, 75, 84
5, 52378, Note_on_c, 2, 75, 0
5, 52378, Note_on_c, 2, 63, 0
5, 52440, Note_on_c, 2, 58, 84
5, 52440, Note_on_c, 2, 70, 84
5, 52498, Note_on_c, 2, 70, 0
5, 52498, Note_on_c, 2, 58, 0
5, 52560, Note_on_c, 2, 79, 88
5, 52560, Note_on_c, 2, 91, 88
5, 52618, Note_on_c, 2, 91, 0
5, 52618, Note_on_c, 2, 79, 0
5, 52680, Note_on_c, 2, 70, 79
5, 52680, Note_on_c, 2, 82, 79
5, 52738, Note_on_c, 2, 82, 0
5, 52738, Note_on_c, 2, 70, 0
5, 52800, Note_on_c, 2, 67, 75
5, 52800, Note_on_c, 2, 79, 75
5, 52858, Note_on_c, 2, 79, 0
5, 52858, Note_on_c, 2, 67, 0
5, 52920, Note_on_c, 2, 62, 74
5, 52920, Note_on_c, 2, 74, 74
5, 52978, Note_on_c, 2, 74, 0
5, 52978, Note_on_c, 2, 62, 0
5, 53040, Note_on_c, 2, 58, 84
5, 53040, Note_on_c, 2, 70, 84
5, 53098, Note_on_c, 2, 70, 0
5, 53098, Note_on_c, 2, 58, 0
5, 53160, Note_on_c, 2, 79, 97
5, 53160, Note_on_c, 2, 91, 90
5, 53218, Note_on_c, 2, 91, 0
5, 53218, Note_on_c, 2, 79, 0
5, 53280, Note_on_c, 2, 74, 79
5, 53280, Note_on_c, 2, 86, 79
5, 53338, Note_on_c, 2, 86, 0
5, 53338, Note_on_c, 2, 74, 0
5, 53400, Note_on_c, 2, 70, 75
5, 53400, Note_on_c, 2, 82, 75
5, 53458, Note_on_c, 2, 82, 0
5, 53458, Note_on_c, 2, 70, 0
5, 53520, Note_on_c, 2, 67, 74
5, 53520, Note_on_c, 2, 79, 74
5, 53578, Note_on_c, 2, 79, 0
5, 53578, Note_on_c, 2, 67, 0
5, 53640, Note_on_c, 2, 62, 84
5, 53640, Note_on_c, 2, 74, 84
5, 53698, Note_on_c, 2, 74, 0
5, 53698, Note_on_c, 2, 62, 0
5, 53760, Note_on_c, 2, 79, 84
5, 53760, Note_on_c, 2, 91, 84
5, 53818, Note_on_c, 2, 91, 0
5, 53818, Note_on_c, 2, 79, 0
5, 53880, Note_on_c, 2, 75, 79
5, 53880, Note_on_c, 2, 87, 79
5, 53938, Note_on_c, 2, 87, 0
5, 53938, Note_on_c, 2, 75, 0
5, 54000, Note_on_c, 2, 72, 76
5, 54000, Note_on_c, 2, 84, 76
5, 54058, Note_on_c, 2, 84, 0
5, 54058, Note_on_c, 2, 72, 0
5, 54120, Note_on_c, 2, 67, 74
5, 54120, Note_on_c, 2, 79, 74
5, 54178, Note_on_c, 2, 79, 0
5, 54178, Note_on_c, 2, 67, 0
5, 54240, Note_on_c, 2, 63, 80
5, 54240, Note_on_c, 2, 75, 80
5, 54298, Note_on_c, 2, 75, 0
5, 54298, Note_on_c, 2, 63, 0
5, 54360, Note_on_c, 2, 60, 78
5, 54360, Note_on_c, 2, 72, 78
5, 54418, Note_on_c, 2, 72, 0
5, 54418, Note_on_c, 2, 60, 0
5, 54480, Note_on_c, 2, 80, 82
5, 54480, Note_on_c, 2, 92, 82
5, 54538, Note_on_c, 2, 92, 0
5, 54538, Note_on_c, 2, 80, 0
5, 54600, Note_on_c, 2, 75, 79
5, 54600, Note_on_c, 2, 87, 79
5, 54658, Note_on_c, 2, 87, 0
5, 54658, Note_on_c, 2, 75, 0
5, 54720, Note_on_c, 2, 72, 75
5, 54720, Note_on_c, 2, 84, 75
5, 54778, Note_on_c, 2, 84, 0
5, 54778, Note_on_c, 2, 72, 0
5, 54840, Note_on_c, 2, 68, 74
5, 54840, Note_on_c, 2, 80, 74
5, 54898, Note_on_c, 2, 80, 0
5, 54898, Note_on_c, 2, 68, 0
5, 54960, Note_on_c, 2, 63, 84
5, 54960, Note_on_c, 2, 75, 84
5, 55018, Note_on_c, 2, 75, 0
5, 55018, Note_on_c, 2, 63, 0
5, 55080, Note_on_c, 2, 60, 92
5, 55080, Note_on_c, 2, 80, 92
5, 55080, Note_on_c, 2, 92, 92
5, 55138, Note_on_c, 2, 92, 0
5, 55138, Note_on_c, 2, 80, 0
5, 55138, Note_on_c, 2, 60, 0
5, 55200, Note_on_c, 2, 75, 79
5, 55200, Note_on_c, 2, 87, 79
5, 55258, Note_on_c, 2, 87, 0
5, 55258, Note_on_c, 2, 75, 0
5, 55320, Note_on_c, 2, 72, 75
5, 55320, Note_on_c, 2, 84, 75
5, 55378, Note_on_c, 2, 84, 0
5, 55378, Note_on_c, 2, 72, 0
5, 55440, Note_on_c, 2, 68, 74
5, 55440, Note_on_c, 2, 80, 74
5, 55498, Note_on_c, 2, 80, 0
5, 55498, Note_on_c, 2, 68, 0
5, 55560, Note_on_c, 2, 75, 84
5, 55618, Note_on_c, 2, 75, 0
5, 55680, Note_on_c, 2, 79, 94
5, 55680, Note_on_c, 2, 91, 90
5, 55738, Note_on_c, 2, 91, 0
5, 55738, Note_on_c, 2, 79, 0
5, 55800, Note_on_c, 2, 75, 79
5, 55800, Note_on_c, 2, 87, 79
5, 55858, Note_on_c, 2, 87, 0
5, 55858, Note_on_c, 2, 75, 0
5, 55920, Note_on_c, 2, 70, 75
5, 55920, Note_on_c, 2, 82, 75
5, 55978, Note_on_c, 2, 82, 0
5, 55978, Note_on_c, 2, 70, 0
5, 56040, Note_on_c, 2, 67, 74
5, 56040, Note_on_c, 2, 79, 74
5, 56098, Note_on_c, 2, 79, 0
5, 56098, Note_on_c, 2, 67, 0
5, 56160, Note_on_c, 2, 63, 84
5, 56160, Note_on_c, 2, 75, 84
5, 56218, Note_on_c, 2, 75, 0
5, 56218, Note_on_c, 2, 63, 0
5, 56280, Note_on_c, 2, 58, 84
5, 56280, Note_on_c, 2, 70, 84
5, 56338, Note_on_c, 2, 70, 0
5, 56338, Note_on_c, 2, 58, 0
5, 56400, Note_on_c, 2, 79, 88
5, 56400, Note_on_c, 2, 91, 88
5, 56458, Note_on_c, 2, 91, 0
5, 56458, Note_on_c, 2, 79, 0
5, 56520, Note_on_c, 2, 70, 79
5, 56520, Note_on_c, 2, 82, 79
5, 56578, Note_on_c, 2, 82, 0
5, 56578, Note_on_c, 2, 70, 0
5, 56640, Note_on_c, 2, 67, 75
5, 56640, Note_on_c, 2, 79, 75
5, 56698, Note_on_c, 2, 79, 0
5, 56698, Note_on_c, 2, 67, 0
5, 56760, Note_on_c, 2, 62, 74
5, 56760, Note_on_c, 2, 74, 74
5, 56818, Note_on_c, 2, 74, 0
5, 56818, Note_on_c, 2, 62, 0
5, 56880, Note_on_c, 2, 58, 84
5, 56880, Note_on_c, 2, 70, 84
5, 56938, Note_on_c, 2, 70, 0
5, 56938, Note_on_c, 2, 58, 0
5, 57000, Note_on_c, 2, 79, 97
5, 57000, Note_on_c, 2, 91, 90
5, 57058, Note_on_c, 2, 91, 0
5, 57058, Note_on_c, 2, 79, 0
5, 57120, Note_on_c, 2, 74, 79
5, 57120, Note_on_c, 2, 86, 79
5, 57178, Note_on_c, 2, 86, 0
5, 57178, Note_on_c, 2, 74, 0
5, 57240, Note_on_c, 2, 70, 75
5, 57240, Note_on_c, 2, 82, 75
5, 57298, Note_on_c, 2, 82, 0
5, 57298, Note_on_c, 2, 70, 0
5, 57360, Note_on_c, 2, 67, 74
5, 57360, Note_on_c, 2, 79, 74
5, 57418, Note_on_c, 2, 79, 0
5, 57418, Note_on_c, 2, 67, 0
5, 57480, Note_on_c, 2, 62, 84
5, 57480, Note_on_c, 2, 74, 84
5, 57538, Note_on_c, 2, 74, 0
5, 57538, Note_on_c, 2, 62, 0
5, 57600, Note_on_c, 2, 79, 84
5, 57600, Note_on_c, 2, 91, 84
5, 57658, Note_on_c, 2, 91, 0
5, 57658, Note_on_c, 2, 79, 0
5, 57720, Note_on_c, 2, 75, 79
5, 57720, Note_on_c, 2, 87, 79
5, 57778, Note_on_c, 2, 87, 0
5, 57778, Note_on_c, 2, 75, 0
5, 57840, Note_on_c, 2, 72, 76
5, 57840, Note_on_c, 2, 84, 76
5, 57898, Note_on_c, 2, 84, 0
5, 57898, Note_on_c, 2, 72, 0
5, 57960, Note_on_c, 2, 67, 74
5, 57960, Note_on_c, 2, 79, 74
5, 58018, Note_on_c, 2, 79, 0
5, 58018, Note_on_c, 2, 67, 0
5, 58080, Note_on_c, 2, 63, 80
5, 58080, Note_on_c, 2, 75, 80
5, 58138, Note_on_c, 2, 75, 0
5, 58138, Note_on_c, 2, 63, 0
5, 58200, Note_on_c, 2, 60, 78
5, 58200, Note_on_c, 2, 72, 78
5, 58258, Note_on_c, 2, 72, 0
5, 58258, Note_on_c, 2, 60, 0
5, 58320, Note_on_c, 2, 80, 82
5, 58320, Note_on_c, 2, 92, 82
5, 58378, Note_on_c, 2, 92, 0
5, 58378, Note_on_c, 2, 80, 0
5, 58440, Note_on_c, 2, 75, 79
5, 58440, Note_on_c, 2, 87, 79
5, 58498, Note_on_c, 2, 87, 0
5, 58498, Note_on_c, 2, 75, 0
5, 58560, Note_on_c, 2, 72, 75
5, 58560, Note_on_c, 2, 84, 75
5, 58618, Note_on_c, 2, 84, 0
5, 58618, Note_on_c, 2, 72, 0
5, 58680, Note_on_c, 2, 68, 74
5, 58680, Note_on_c, 2, 80, 74
5, 58738, Note_on_c, 2, 80, 0
5, 58738, Note_on_c, 2, 68, 0
5, 58800, Note_on_c, 2, 63, 84
5, 58800, Note_on_c, 2, 75, 84
5, 58858, Note_on_c, 2, 75, 0
5, 58858, Note_on_c, 2, 63, 0
5, 58920, Note_on_c, 2, 60, 92
5, 58920, Note_on_c, 2, 80, 92
5, 58920, Note_on_c, 2, 92, 92
5, 58978, Note_on_c, 2, 92, 0
5, 58978, Note_on_c, 2, 80, 0
5, 58978, Note_on_c, 2, 60, 0
5, 59040, Note_on_c, 2, 75, 79
5, 59040, Note_on_c, 2, 87, 79
5, 59098, Note_on_c, 2, 87, 0
5, 59098, Note_on_c, 2, 75, 0
5, 59160, Note_on_c, 2, 72, 75
5, 59160, Note_on_c, 2, 84, 75
5, 59218, Note_on_c, 2, 84, 0
5, 59218, Note_on_c, 2, 72, 0
5, 59280, Note_on_c, 2, 68, 74
5, 59280, Note_on_c, 2, 80, 74
5, 59338, Note_on_c, 2, 80, 0
5, 59338, Note_on_c, 2, 68, 0
5, 59400, Note_on_c, 2, 75, 84
5, 59458, Note_on_c, 2, 75, 0
5, 59520, Note_on_c, 2, 79, 94
5, 59520, Note_on_c, 2, 91, 90
5, 59578, Note_on_c, 2, 91, 0
5, 59578, Note_on_c, 2, 79, 0
5, 59640, Note_on_c, 2, 75, 79
5, 59640, Note_on_c, 2, 87, 79
5, 59698, Note_on_c, 2, 87, 0
5, 59698, Note_on_c, 2, 75, 0
5, 59760, Note_on_c, 2, 70, 75
5, 59760, Note_on_c, 2, 82, 75
5, 59818, Note_on_c, 2, 82, 0
5, 59818, Note_on_c, 2, 70, 0
5, 59880, Note_on_c, 2, 67, 74
5, 59880, Note_on_c, 2, 79, 74
5, 59938, Note_on_c, 2, 79, 0
5, 59938, Note_on_c, 2, 67, 0
5, 60000, Note_on_c, 2, 63, 84
5, 60000, Note_on_c, 2, 75, 84
5, 60058, Note_on_c, 2, 75, 0
5, 60058, Note_on_c, 2, 63, 0
5, 60120, Note_on_c, 2, 58, 84
5, 60120, Note_on_c, 2, 70, 84
5, 60178, Note_on_c, 2, 70, 0
5, 60178, Note_on_c, 2, 58, 0
5, 60240, Note_on_c, 2, 79, 88
5, 60240, Note_on_c, 2, 91, 88
5, 60298, Note_on_c, 2, 91, 0
5, 60298, Note_on_c, 2, 79, 0
5, 60360, Note_on_c, 2, 70, 79
5, 60360, Note_on_c, 2, 82, 79
5, 60418, Note_on_c, 2, 82, 0
5, 60418, Note_on_c, 2, 70, 0
5, 60480, Note_on_c, 2, 67, 75
5, 60480, Note_on_c, 2, 79, 75
5, 60538, Note_on_c, 2, 79, 0
5, 60538, Note_on_c, 2, 67, 0
5, 60600, Note_on_c, 2, 62, 74
5, 60600, Note_on_c, 2, 74, 74
5, 60658, Note_on_c, 2, 74, 0
5, 60658, Note_on_c, 2, 62, 0
5, 60720, Note_on_c, 2, 58, 84
5, 60720, Note_on_c, 2, 70, 84
5, 60778, Note_on_c, 2, 70, 0
5, 60778, Note_on_c, 2, 58, 0
5, 60840, Note_on_c, 2, 79, 97
5, 60840, Note_on_c, 2, 91, 90
5, 60898, Note_on_c, 2, 91, 0
5, 60898, Note_on_c, 2, 79, 0
5, 60960, Note_on_c, 2, 74, 79
5, 60960, Note_on_c, 2, 86, 79
5, 61018, Note_on_c, 2, 86, 0
5, 61018, Note_on_c, 2, 74, 0
5, 61080, Note_on_c, 2, 70, 75
5, 61080, Note_on_c, 2, 82, 75
5, 61138, Note_on_c, 2, 82, 0
5, 61138, Note_on_c, 2, 70, 0
5, 61200, Note_on_c, 2, 67, 74
5, 61200, Note_on_c, 2, 79, 74
5, 61258, Note_on_c, 2, 79, 0
5, 61258, Note_on_c, 2, 67, 0
5, 61320, Note_on_c, 2, 62, 84
5, 61320, Note_on_c, 2, 74, 84
5, 61378, Note_on_c, 2, 74, 0
5, 61378, Note_on_c, 2, 62, 0
5, 61440, Note_on_c, 2, 79, 84
5, 61440, Note_on_c, 2, 91, 84
5, 61498, Note_on_c, 2, 91, 0
5, 61498, Note_on_c, 2, 79, 0
5, 61560, Note_on_c, 2, 75, 79
5, 61560, Note_on_c, 2, 87, 79
5, 61618, Note_on_c, 2, 87, 0
5, 61618, Note_on_c, 2, 75, 0
5, 61680, Note_on_c, 2, 72, 76
5, 61680, Note_on_c, 2, 84, 76
5, 61738, Note_on_c, 2, 84, 0
5, 61738, Note_on_c, 2, 72, 0
5, 61800, Note_on_c, 2, 67, 74
5, 61800, Note_on_c, 2, 79, 74
5, 61858, Note_on_c, 2, 79, 0
5, 61858, Note_on_c, 2, 67, 0
5, 61920, Note_on_c, 2, 63, 80
5, 61920, Note_on_c, 2, 75, 80
5, 61978, Note_on_c, 2, 75, 0
5, 61978, Note_on_c, 2, 63, 0
5, 62040, Note_on_c, 2, 60, 78
5, 62040, Note_on_c, 2, 72, 78
5, 62098, Note_on_c, 2, 72, 0
5, 62098, Note_on_c, 2, 60, 0
5, 62160, Note_on_c, 2, 80, 82
5, 62160, Note_on_c, 2, 92, 82
5, 62218, Note_on_c, 2, 92, 0
5, 62218, Note_on_c, 2, 80, 0
5, 62280, Note_on_c, 2, 75, 79
5, 62280, Note_on_c, 2, 87, 79
5, 62338, Note_on_c, 2, 87, 0
5, 62338, Note_on_c, 2, 75, 0
5, 62400, Note_on_c, 2, 72, 75
5, 62400, Note_on_c, 2, 84, 75
5, 62458, Note_on_c, 2, 84, 0
5, 62458, Note_on_c, 2, 72, 0
5, 62520, Note_on_c, 2, 68, 74
5, 62520, Note_on_c, 2, 80, 74
5, 62578, Note_on_c, 2, 80, 0
5, 62578, Note_on_c, 2, 68, 0
5, 62640, Note_on_c, 2, 63, 84
5, 62640, Note_on_c, 2, 75, 84
5, 62698, Note_on_c, 2, 75, 0
5, 62698, Note_on_c, 2, 63, 0
5, 62760, Note_on_c, 2, 60, 92
5, 62760, Note_on_c, 2, 80, 92
5, 62760, Note_on_c, 2, 92, 92
5, 62818, Note_on_c, 2, 92, 0
5, 62818, Note_on_c, 2, 80, 0
5, 62818, Note_on_c, 2, 60, 0
5, 62880, Note_on_c, 2, 75, 79
5, 62880, Note_on_c, 2, 87, 79
5, 62938, Note_on_c, 2, 87, 0
5, 62938, Note_on_c, 2, 75, 0
5, 63000, Note_on_c, 2, 72, 75
5, 63000, Note_on_c, 2, 84, 75
5, 63058, Note_on_c, 2, 84, 0
5, 63058, Note_on_c, 2, 72, 0
5, 63120, Note_on_c, 2, 68, 74
5, 63120, Note_on_c, 2, 80, 74
5, 63178, Note_on_c, 2, 80, 0
5, 63178, Note_on_c, 2, 68, 0
5, 63240, Note_on_c, 2, 75, 84
5, 63298, Note_on_c, 2, 75, 0
5, 63360, Note_on_c, 2, 79, 94
5, 63360, Note_on_c, 2, 91, 90
5, 63418, Note_on_c, 2, 91, 0
5, 63418, Note_on_c, 2, 79, 0
5, 63480, Note_on_c, 2, 75, 79
5, 63480, Note_on_c, 2, 87, 79
5, 63538, Note_on_c, 2, 87, 0
5, 63538, Note_on_c, 2, 75, 0
5, 63600, Note_on_c, 2, 70, 75
5, 63600, Note_on_c, 2, 82, 75
5, 63658, Note_on_c, 2, 82, 0
5, 63658, Note_on_c, 2, 70, 0
5, 63720, Note_on_c, 2, 67, 74
5, 63720, Note_on_c, 2, 79, 74
5, 63778, Note_on_c, 2, 79, 0
5, 63778, Note_on_c, 2, 67, 0
5, 63840, Note_on_c, 2, 63, 84
5, 63840, Note_on_c, 2, 75, 84
5, 63898, Note_on_c, 2, 75, 0
5, 63898, Note_on_c, 2, 63, 0
5, 63960, Note_on_c, 2, 58, 84
5, 63960, Note_on_c, 2, 70, 84
5, 64018, Note_on_c, 2, 70, 0
5, 64018, Note_on_c, 2, 58, 0
5, 64080, Note_on_c, 2, 79, 88
5, 64080, Note_on_c, 2, 91, 88
5, 64138, Note_on_c, 2, 91, 0
5, 64138, Note_on_c, 2, 79, 0
5, 64200, Note_on_c, 2, 70, 79
5, 64200, Note_on_c, 2, 82, 79
5, 64258, Note_on_c, 2, 82, 0
5, 64258, Note_on_c, 2, 70, 0
5, 64320, Note_on_c, 2, 67, 75
5, 64320, Note_on_c, 2, 79, 75
5, 64378, Note_on_c, 2, 79, 0
5, 64378, Note_on_c, 2, 67, 0
5, 64440, Note_on_c, 2, 62, 74
5, 64440, Note_on_c, 2, 74, 74
5, 64498, Note_on_c, 2, 74, 0
5, 64498, Note_on_c, 2, 62, 0
5, 64560, Note_on_c, 2, 58, 84
5, 64560, Note_on_c, 2, 70, 84
5, 64618, Note_on_c, 2, 70, 0
5, 64618, Note_on_c, 2, 58, 0
5, 64680, Note_on_c, 2, 79, 97
5, 64680, Note_on_c, 2, 91, 90
5, 64738, Note_on_c, 2, 91, 0
5, 64738, Note_on_c, 2, 79, 0
5, 64800, Note_on_c, 2, 74, 79
5, 64800, Note_on_c, 2, 86, 79
5, 64858, Note_on_c, 2, 86, 0
5, 64858, Note_on_c, 2, 74, 0
5, 64920, Note_on_c, 2, 70, 75
5, 64920, Note_on_c, 2, 82, 75
5, 64978, Note_on_c, 2, 82, 0
5, 64978, Note_on_c, 2, 70, 0
5, 65040, Note_on_c, 2, 67, 74
5, 65040, Note_on_c, 2, 79, 74
5, 65098, Note_on_c, 2, 79, 0
5, 65098, Note_on_c, 2, 67, 0
5, 65160, Note_on_c, 2, 62, 84
5, 65160, Note_on_c, 2, 74, 84
5, 65218, Note_on_c, 2, 74, 0
5, 65218, Note_on_c, 2, 62, 0
5, 65280, Note_on_c, 2, 79, 84
5, 65280, Note_on_c, 2, 91, 84
5, 65338, Note_on_c, 2, 91, 0
5, 65338, Note_on_c, 2, 79, 0
5, 65400, Note_on_c, 2, 75, 79
5, 65400, Note_on_c, 2, 87, 79
5, 65458, Note_on_c, 2, 87, 0
5, 65458, Note_on_c, 2, 75, 0
5, 65520, Note_on_c, 2, 72, 76
5, 65520, Note_on_c, 2, 84, 76
5, 65578, Note_on_c, 2, 84, 0
5, 65578, Note_on_c, 2, 72, 0
5, 65640, Note_on_c, 2, 67, 74
5, 65640, Note_on_c, 2, 79, 74
5, 65698, Note_on_c, 2, 79, 0
5, 65698, Note_on_c, 2, 67, 0
5, 65760, Note_on_c, 2, 63, 80
5, 65760, Note_on_c, 2, 75, 80
5, 65818, Note_on_c, 2, 75, 0
5, 65818, Note_on_c, 2, 63, 0
5, 65880, Note_on_c, 2, 60, 78
5, 65880, Note_on_c, 2, 72, 78
5, 65938, Note_on_c, 2, 72, 0
5, 65938, Note_on_c, 2, 60, 0
5, 66000, Note_on_c, 2, 80, 82
5, 66000, Note_on_c, 2, 92, 82
5, 66058, Note_on_c, 2, 92, 0
5, 66058, Note_on_c, 2, 80, 0
5, 66120, Note_on_c, 2, 75, 79
5, 66120, Note_on_c, 2, 87, 79
5, 66178, Note_on_c, 2, 87, 0
5, 66178, Note_on_c, 2, 75, 0
5, 66240, Note_on_c, 2, 72, 75
5, 66240, Note_on_c, 2, 84, 75
5, 66298, Note_on_c, 2, 84, 0
5, 66298, Note_on_c, 2, 72, 0
5, 66360, Note_on_c, 2, 68, 74
5, 66360, Note_on_c, 2, 80, 74
5, 66418, Note_on_c, 2, 80, 0
5, 66418, Note_on_c, 2, 68, 0
5, 66480, Note_on_c, 2, 63, 84
5, 66480, Note_on_c, 2, 75, 84
5, 66538, Note_on_c, 2, 75, 0
5, 66538, Note_on_c, 2, 63, 0
5, 66600, Note_on_c, 2, 60, 92
5, 66600, Note_on_c, 2, 80, 92
5, 66600, Note_on_c, 2, 92, 92
5, 66658, Note_on_c, 2, 92, 0
5, 66658, Note_on_c, 2, 80, 0
5, 66658, Note_on_c, 2, 60, 0
5, 66720, Note_on_c, 2, 75, 79
5, 66720, Note_on_c, 2, 87, 79
5, 66778, Note_on_c, 2, 87, 0
5, 66778, Note_on_c, 2, 75, 0
5, 66840, Note_on_c, 2, 72, 75
5, 66840, Note_on_c, 2, 84, 75
5, 66898, Note_on_c, 2, 84, 0
5, 66898, Note_on_c, 2, 72, 0
5, 66960, Note_on_c, 2, 68, 74
5, 66960, Note_on_c, 2, 80, 74
5, 67018, Note_on_c, 2, 80, 0
5, 67018, Note_on_c, 2, 68, 0
5, 67080, Note_on_c, 2, 75, 84
5, 67138, Note_on_c, 2, 75, 0
5, 67200, Note_on_c, 2, 79, 94
5, 67200, Note_on_c, 2, 91, 90
5, 67258, Note_on_c, 2, 91, 0
5, 67258, Note_on_c, 2, 79, 0
5, 67320, Note_on_c, 2, 75, 79
5, 67320, Note_on_c, 2, 87, 79
5, 67378, Note_on_c, 2, 87, 0
5, 67378, Note_on_c, 2, 75, 0
5, 67440, Note_on_c, 2, 70, 75
5, 67440, Note_on_c, 2, 82, 75
5, 67498, Note_on_c, 2, 82, 0
5, 67498, Note_on_c, 2, 70, 0
5, 67560, Note_on_c, 2, 67, 74
5, 67560, Note_on_c, 2, 79, 74
5, 67618, Note_on_c, 2, 79, 0
5, 67618, Note_on_c, 2, 67, 0
5, 67680, Note_on_c, 2, 63, 84
5, 67680, Note_on_c, 2, 75, 84
5, 67738, Note_on_c, 2, 75, 0
5, 67738, Note_on_c, 2, 63, 0
5, 67800, Note_on_c, 2, 58, 84
5, 67800, Note_on_c, 2, 70, 84
5, 67858, Note_on_c, 2, 70, 0
5, 67858, Note_on_c, 2, 58, 0
5, 67920, Note_on_c, 2, 79, 88
5, 67920, Note_on_c, 2, 91, 88
5, 67978, Note_on_c, 2, 91, 0
5, 67978, Note_on_c, 2, 79, 0
5, 68040, Note_on_c, 2, 70, 79
5, 68040, Note_on_c, 2, 82, 79
5, 68098, Note_on_c, 2, 82, 0
5, 68098, Note_on_c, 2, 70, 0
5, 68160, Note_on_c, 2, 67, 75
5, 68160, Note_on_c, 2, 79, 75
5, 68218, Note_on_c, 2, 79, 0
5, 68218, Note_on_c, 2, 67, 0
5, 68280, Note_on_c, 2, 62, 74
5, 68280, Note_on_c, 2, 74, 74
5, 68338, Note_on_c, 2, 74, 0
5, 68338, Note_on_c, 2, 62, 0
5, 68400, Note_on_c, 2, 58, 84
5, 68400, Note_on_c, 2, 70, 84
5, 68458, Note_on_c, 2, 70, 0
5, 68458, Note_on_c, 2, 58, 0
5, 68520, Note_on_c, 2, 79, 97
5, 68520, Note_on_c, 2, 91, 90
5, 68578, Note_on_c, 2, 91, 0
5, 68578, Note_on_c, 2, 79, 0
5, 68640, Note_on_c, 2, 74, 79
5, 68640, Note_on_c, 2, 86, 79
5, 68698, Note_on_c, 2, 86, 0
5, 68698, Note_on_c, 2, 74, 0
5, 68760, Note_on_c, 2, 70, 75
5, 68760, Note_on_c, 2, 82, 75
5, 68818, Note_on_c, 2, 82, 0
5, 68818, Note_on_c, 2, 70, 0
5, 68880, Note_on_c, 2, 67, 74
5, 68880, Note_on_c, 2, 79, 74
5, 68938, Note_on_c, 2, 79, 0
5, 68938, Note_on_c, 2, 67, 0
5, 69000, Note_on_c, 2, 62, 84
5, 69000, Note_on_c, 2, 74, 84
5, 69058, Note_on_c, 2, 74, 0
5, 69058, Note_on_c, 2, 62, 0
5, 69120, Note_on_c, 2, 79, 84
5, 69120, Note_on_c, 2, 91, 84
5, 69178, Note_on_c, 2, 91, 0
5, 69178, Note_on_c, 2, 79, 0
5, 69240, Note_on_c, 2, 75, 79
5, 69240, Note_on_c, 2, 87, 79
5, 69298, Note_on_c, 2, 87, 0
5, 69298, Note_on_c, 2, 75, 0
5, 69360, Note_on_c, 2, 72, 76
5, 69360, Note_on_c, 2, 84, 76
5, 69418, Note_on_c, 2, 84, 0
5, 69418, Note_on_c, 2, 72, 0
5, 69480, Note_on_c, 2, 67, 74
5, 69480, Note_on_c, 2, 79, 74
5, 69538, Note_on_c, 2, 79, 0
5, 69538, Note_on_c, 2, 67, 0
5, 69600, Note_on_c, 2, 63, 80
5, 69600, Note_on_c, 2, 75, 80
5, 69658, Note_on_c, 2, 75, 0
5, 69658, Note_on_c, 2, 63, 0
5, 69720, Note_on_c, 2, 60, 78
5, 69720, Note_on_c, 2, 72, 78
5, 69778, Note_on_c, 2, 72, 0
5, 69778, Note_on_c, 2, 60, 0
5, 69840, Note_on_c, 2, 80, 82
5, 69840, Note_on_c, 2, 92, 82
5, 69898, Note_on_c, 2, 92, 0
5, 69898, Note_on_c, 2, 80, 0
5, 69960, Note_on_c, 2, 75, 79
5, 69960, Note_on_c, 2, 87, 79
5, 70018, Note_on_c, 2, 87, 0
5, 70018, Note_on_c, 2, 75, 0
5, 70080, Note_on_c, 2, 72, 75
5, 70080, Note_on_c, 2, 84, 75
5, 70138, Note_on_c, 2, 84, 0
5, 70138, Note_on_c, 2, 72, 0
5, 70200, Note_on_c, 2, 68, 74
5, 70200, Note_on_c, 2, 80, 74
5, 70258, Note_on_c, 2, 80, 0
5, 70258, Note_on_c, 2, 68, 0
5, 70320, Note_on_c, 2, 63, 84
5, 70320, Note_on_c, 2, 75, 84
5, 70378, Note_on_c, 2, 75, 0
5, 70378, Note_on_c, 2, 63, 0
5, 70440, Note_on_c, 2, 60, 92
5, 70440, Note_on_c, 2, 80, 92
5, 70440, Note_on_c, 2, 92, 92
5, 70498, Note_on_c, 2, 92, 0
5, 70498, Note_on_c, 2, 80, 0
5, 70498, Note_on_c, 2, 60, 0
5, 70560, Note_on_c, 2, 75, 79
5, 70560, Note_on_c, 2, 87, 79
5, 70618, Note_on_c, 2, 87, 0
5, 70618, Note_on_c, 2, 75, 0
5, 70680, Note_on_c, 2, 72, 75
5, 70680, Note_on_c, 2, 84, 75
5, 70738, Note_on_c, 2, 84, 0
5, 70738, Note_on_c, 2, 72, 0
5, 70800, Note_on_c, 2, 68, 74
5, 70800, Note_on_c, 2, 80, 74
5, 70858, Note_on_c, 2, 80, 0
5, 70858, Note_on_c, 2, 68, 0
5, 70920, Note_on_c, 2, 75, 84
5, 70978, Note_on_c, 2, 75, 0
5, 71040, Note_on_c, 2, 79, 94
5, 71040, Note_on_c, 2, 91, 90
5, 71098, Note_on_c, 2, 91, 0
5, 71098, Note_on_c, 2, 79, 0
5, 71160, Note_on_c, 2, 75, 79
5, 71160, Note_on_c, 2, 87, 79
5, 71218, Note_on_c, 2, 87, 0
5, 71218, Note_on_c, 2, 75, 0
5, 71280, Note_on_c, 2, 70, 75
5, 71280, Note_on_c, 2, 82, 75
5, 71338, Note_on_c, 2, 82, 0
5, 71338, Note_on_c, 2, 70, 0
5, 71400, Note_on_c, 2, 67, 74
5, 71400, Note_on_c, 2, 79, 74
5, 71458, Note_on_c, 2, 79, 0
5, 71458, Note_on_c, 2, 67, 0
5, 71520, Note_on_c, 2, 63, 84
5, 71520, Note_on_c, 2, 75, 84
5, 71578, Note_on_c, 2, 75, 0
5, 71578, Note_on_c, 2, 63, 0
5, 71640, Note_on_c, 2, 58, 84
5, 71640, Note_on_c, 2, 70, 84
5, 71698, Note_on_c, 2, 70, 0
5, 71698, Note_on_c, 2, 58, 0
5, 71760, Note_on_c, 2, 79, 88
5, 71760, Note_on_c, 2, 91, 88
5, 71818, Note_on_c, 2, 91, 0
5, 71818, Note_on_c, 2, 79, 0
5, 71880, Note_on_c, 2, 70, 79
5, 71880, Note_on_c, 2, 82, 79
5, 71938, Note_on_c, 2, 82, 0
5, 71938, Note_on_c, 2, 70, 0
5, 72000, Note_on_c, 2, 67, 75
5, 72000, Note_on_c, 2, 79, 75
5, 72058, Note_on_c, 2, 79, 0
5, 72058, Note_on_c, 2, 67, 0
5, 72120, Note_on_c, 2, 62, 74
5, 72120, Note_on_c, 2, 74, 74
5, 72178, Note_on_c, 2, 74, 0
5, 72178, Note_on_c, 2, 62, 0
5, 72240, Note_on_c, 2, 58, 84
5, 72240, Note_on_c, 2, 70, 84
5, 72298, Note_on_c, 2, 70, 0
5, 72298, Note_on_c, 2, 58, 0
5, 72360, Note_on_c, 2, 79, 97
5, 72360, Note_on_c, 2, 91, 90
5, 72418, Note_on_c, 2, 91, 0
5, 72418, Note_on_c, 2, 79, 0
5, 72480, Note_on_c, 2, 74, 79
5, 72480, Note_on_c, 2, 86, 79
5, 72538, Note_on_c, 2, 86, 0
5, 72538, Note_on_c, 2, 74, 0
5, 72600, Note_on_c, 2, 70, 75
5, 72600, Note_on_c, 2, 82, 75
5, 72658, Note_on_c, 2, 82, 0
5, 72658, Note_on_c, 2, 70, 0
5, 72720, Note_on_c, 2, 67, 74
5, 72720, Note_on_c, 2, 79, 74
5, 72778, Note_on_c, 2, 79, 0
5, 72778, Note_on_c, 2, 67, 0
5, 72840, Note_on_c, 2, 62, 84
5, 72840, Note_on_c, 2, 74, 84
5, 72898, Note_on_c, 2, 74, 0
5, 72898, Note_on_c, 2, 62, 0
5, 72960, Note_on_c, 2, 79, 74
5, 73018, Note_on_c, 2, 79, 0
5, 73080, Note_on_c, 2, 75, 69
5, 73138, Note_on_c, 2, 75, 0
5, 73200, Note_on_c, 2, 72, 66
5, 73258, Note_on_c, 2, 72, 0
5, 73320, Note_on_c, 2, 67, 64
5, 73378, Note_on_c, 2, 67, 0
5, 73440, Note_on_c, 2, 63, 70
5, 73498, Note_on_c, 2, 63, 0
5, 73560, Note_on_c, 2, 60, 68
5, 73618, Note_on_c, 2, 60, 0
5, 73680, Note_on_c, 2, 80, 72
5, 73738, Note_on_c, 2, 80, 0
5, 73800, Note_on_c, 2, 75, 69
5, 73858, Note_on_c, 2, 75, 0
5, 73920, Note_on_c, 2, 72, 65
5, 73978, Note_on_c, 2, 72, 0
5, 74040, Note_on_c, 2, 68, 64
5, 74098, Note_on_c, 2, 68, 0
5, 74160, Note_on_c, 2, 63, 74
5, 74218, Note_on_c, 2, 63, 0
5, 74280, Note_on_c, 2, 60, 82
5, 74280, Note_on_c, 2, 80, 74
5, 74338, Note_on_c, 2, 80, 0
5, 74338, Note_on_c, 2, 60, 0
5, 74400, Note_on_c, 2, 75, 69
5, 74458, Note_on_c, 2, 75, 0
5, 74520, Note_on_c, 2, 72, 65
5, 74578, Note_on_c, 2, 72, 0
5, 74640, Note_on_c, 2, 68, 64
5, 74698, Note_on_c, 2, 68, 0
5, 74760, Note_on_c, 2, 75, 74
5, 74818, Note_on_c, 2, 75, 0
5, 74880, Note_on_c, 2, 79, 84
5, 74938, Note_on_c, 2, 79, 0
5, 75000, Note_on_c, 2, 75, 69
5, 75058, Note_on_c, 2, 75, 0
5, 75120, Note_on_c, 2, 70, 65
5, 75178, Note_on_c, 2, 70, 0
5, 75240, Note_on_c, 2, 67, 64
5, 75298, Note_on_c, 2, 67, 0
5, 75360, Note_on_c, 2, 63, 74
5, 75418, Note_on_c, 2, 63, 0
5, 75480, Note_on_c, 2, 58, 74
5, 75538, Note_on_c, 2, 58, 0
5, 75600, Note_on_c, 2, 79, 78
5, 75658, Note_on_c, 2, 79, 0
5, 75720, Note_on_c, 2, 70, 69
5, 75778, Note_on_c, 2, 70, 0
5, 75840, Note_on_c, 2, 67, 65
5, 75898, Note_on_c, 2, 67, 0
5, 75960, Note_on_c, 2, 62, 64
5, 76018, Note_on_c, 2, 62, 0
5, 76080, Note_on_c, 2, 58, 74
5, 76138, Note_on_c, 2, 58, 0
5, 76200, Note_on_c, 2, 79, 87
5, 76258, Note_on_c, 2, 79, 0
5, 76320, Note_on_c, 2, 74, 69
5, 76378, Note_on_c, 2, 74, 0
5, 76440, Note_on_c, 2, 70, 65
5, 76498, Note_on_c, 2, 70, 0
5, 76560, Note_on_c, 2, 67, 64
5, 76618, Note_on_c, 2, 67, 0
5, 76680, Note_on_c, 2, 62, 74
5, 76738, Note_on_c, 2, 62, 0
5, 76800, Note_on_c, 2, 79, 74
5, 76858, Note_on_c, 2, 79, 0
5, 76920, Note_on_c, 2, 75, 69
5, 76978, Note_on_c, 2, 75, 0
5, 77040, Note_on_c, 2, 72, 66
5, 77098, Note_on_c, 2, 72, 0
5, 77160, Note_on_c, 2, 67, 64
5, 77218, Note_on_c, 2, 67, 0
5, 77280, Note_on_c, 2, 63, 70
5, 77338, Note_on_c, 2, 63, 0
5, 77400, Note_on_c, 2, 60, 68
5, 77458, Note_on_c, 2, 60, 0
5, 77520, Note_on_c, 2, 80, 72
5, 77578, Note_on_c, 2, 80, 0
5, 77640, Note_on_c, 2, 75, 69
5, 77698, Note_on_c, 2, 75, 0
5, 77760, Note_on_c, 2, 72, 65
5, 77818, Note_on_c, 2, 72, 0
5, 77880, Note_on_c, 2, 68, 64
5, 77938, Note_on_c, 2, 68, 0
5, 78000, Note_on_c, 2, 63, 74
5, 78058, Note_on_c, 2, 63, 0
5, 78120, Note_on_c, 2, 60, 82
5, 78120, Note_on_c, 2, 80, 82
5, 78178, Note_on_c, 2, 80, 0
5, 78178, Note_on_c, 2, 60, 0
5, 78240, Note_on_c, 2, 75, 69
5, 78298, Note_on_c, 2, 75, 0
5, 78360, Note_on_c, 2, 72, 65
5, 78418, Note_on_c, 2, 72, 0
5, 78480, Note_on_c, 2, 68, 64
5, 78538, Note_on_c, 2, 68, 0
5, 78600, Note_on_c, 2, 75, 74
5, 78658, Note_on_c, 2, 75, 0
5, 78720, Note_on_c, 2, 79, 84
5, 78778, Note_on_c, 2, 79, 0
5, 78840, Note_on_c, 2, 75, 69
5, 78898, Note_on_c, 2, 75, 0
5, 78960, Note_on_c, 2, 70, 65
5, 79018, Note_on_c, 2, 70, 0
5, 79080, Note_on_c, 2, 67, 64
5, 79138, Note_on_c, 2, 67, 0
5, 79200, Note_on_c, 2, 63, 74
5, 79258, Note_on_c, 2, 63, 0
5, 79320, Note_on_c, 2, 58, 74
5, 79378, Note_on_c, 2, 58, 0
5, 79440, Note_on_c, 2, 79, 78
5, 79498, Note_on_c, 2, 79, 0
5, 79560, Note_on_c, 2, 70, 69
5, 79618, Note_on_c, 2, 70, 0
5, 79680, Note_on_c, 2, 67, 65
5, 79738, Note_on_c, 2, 67, 0
5, 79800, Note_on_c, 2, 62, 64
5, 79858, Note_on_c, 2, 62, 0
5, 79920, Note_on_c, 2, 58, 74
5, 79978, Note_on_c, 2, 58, 0
5, 80040, Note_on_c, 2, 79, 87
5, 80098, Note_on_c, 2, 79, 0
5, 80160, Note_on_c, 2, 74, 69
5, 80218, Note_on_c, 2, 74, 0
5, 80280, Note_on_c, 2, 70, 65
5, 80338, Note_on_c, 2, 70, 0
5, 80400, Note_on_c, 2, 67, 64
5, 80458, Note_on_c, 2, 67, 0
5, 80520, Note_on_c, 2, 62, 74
5, 80578, Note_on_c, 2, 62, 0
5, 80640, Note_on_c, 2, 79, 74
5, 80698, Note_on_c, 2, 79, 0
5, 80760, Note_on_c, 2, 75, 69
5, 80818, Note_on_c, 2, 75, 0
5, 80880, Note_on_c, 2, 72, 66
5, 80938, Note_on_c, 2, 72, 0
5, 81000, Note_on_c, 2, 67, 64
5, 81058, Note_on_c, 2, 67, 0
5, 81120, Note_on_c, 2, 63, 70
5, 81178, Note_on_c, 2, 63, 0
5, 81240, Note_on_c, 2, 60, 68
5, 81298, Note_on_c, 2, 60, 0
5, 81360, Note_on_c, 2, 80, 72
5, 81418, Note_on_c, 2, 80, 0
5, 81480, Note_on_c, 2, 75, 69
5, 81538, Note_on_c, 2, 75, 0
5, 81600, Note_on_c, 2, 72, 65
5, 81658, Note_on_c, 2, 72, 0
5, 81720, Note_on_c, 2, 68, 64
5, 81778, Note_on_c, 2, 68, 0
5, 81840, Note_on_c, 2, 63, 74
5, 81898, Note_on_c, 2, 63, 0
5, 81960, Note_on_c, 2, 60, 82
5, 81960, Note_on_c, 2, 80, 82
5, 82018, Note_on_c, 2, 80, 0
5, 82018, Note_on_c, 2, 60, 0
5, 82080, Note_on_c, 2, 75, 69
5, 82138, Note_on_c, 2, 75, 0
5, 82200, Note_on_c, 2, 72, 65
5, 82258, Note_on_c, 2, 72, 0
5, 82320, Note_on_c, 2, 68, 64
5, 82378, Note_on_c, 2, 68, 0
5, 82440, Note_on_c, 2, 75, 74
5, 82498, Note_on_c, 2, 75, 0
5, 82560, Note_on_c, 2, 79, 84
5, 82618, Note_on_c, 2, 79, 0
5, 82680, Note_on_c, 2, 75, 69
5, 82738, Note_on_c, 2, 75, 0
5, 82800, Note_on_c, 2, 70, 65
5, 82858, Note_on_c, 2, 70, 0
5, 82920, Note_on_c, 2, 67, 64
5, 82978, Note_on_c, 2, 67, 0
5, 83040, Note_on_c, 2, 63, 74
5, 83098, Note_on_c, 2, 63, 0
5, 83160, Note_on_c, 2, 58, 74
5, 83218, Note_on_c, 2, 58, 0
5, 83280, Note_on_c, 2, 79, 78
5, 83338, Note_on_c, 2, 79, 0
5, 83400, Note_on_c, 2, 70, 69
5, 83458, Note_on_c, 2, 70, 0
5, 83520, Note_on_c, 2, 67, 65
5, 83578, Note_on_c, 2, 67, 0
5, 83640, Note_on_c, 2, 62, 64
5, 83698, Note_on_c, 2, 62, 0
5, 83760, Note_on_c, 2, 58, 74
5, 83818, Note_on_c, 2, 58, 0
5, 83880, Note_on_c, 2, 79, 87
5, 83938, Note_on_c, 2, 79, 0
5, 84000, Note_on_c, 2, 74, 69
5, 84058, Note_on_c, 2, 74, 0
5, 84120, Note_on_c, 2, 70, 65
5, 84178, Note_on_c, 2, 70, 0
5, 84240, Note_on_c, 2, 67, 64
5, 84298, Note_on_c, 2, 67, 0
5, 84360, Note_on_c, 2, 62, 74
5, 84418, Note_on_c, 2, 62, 0
5, 84480, Note_on_c, 2, 79, 74
5, 84538, Note_on_c, 2, 79, 0
5, 84600, Note_on_c, 2, 75, 69
5, 84658, Note_on_c, 2, 75, 0
5, 84720, Note_on_c, 2, 72, 66
5, 84778, Note_on_c, 2, 72, 0
5, 84840, Note_on_c, 2, 67, 64
5, 84898, Note_on_c, 2, 67, 0
5, 84960, Note_on_c, 2, 63, 70
5, 85018, Note_on_c, 2, 63, 0
5, 85080, Note_on_c, 2, 60, 68
5, 85138, Note_on_c, 2, 60, 0
5, 85200, Note_on_c, 2, 80, 72
5, 85258, Note_on_c, 2, 80, 0
5, 85320, Note_on_c, 2, 75, 69
5, 85378, Note_on_c, 2, 75, 0
5, 85440, Note_on_c, 2, 72, 65
5, 85498, Note_on_c, 2, 72, 0
5, 85560, Note_on_c, 2, 68, 64
5, 85618, Note_on_c, 2, 68, 0
5, 85680, Note_on_c, 2, 63, 74
5, 85738, Note_on_c, 2, 63, 0
5, 85800, Note_on_c, 2, 60, 82
5, 85800, Note_on_c, 2, 80, 82
5, 85858, Note_on_c, 2, 80, 0
5, 85858, Note_on_c, 2, 60, 0
5, 85920, Note_on_c, 2, 75, 69
5, 85978, Note_on_c, 2, 75, 0
5, 86040, Note_on_c, 2, 72, 65
5, 86098, Note_on_c, 2, 72, 0
5, 86160, Note_on_c, 2, 68, 64
5, 86218, Note_on_c, 2, 68, 0
5, 86280, Note_on_c, 2, 75, 74
5, 86338, Note_on_c, 2, 75, 0
5, 88320, Note_on_c, 2, 79, 74
5, 88378, Note_on_c, 2, 79, 0
5, 88440, Note_on_c, 2, 75, 69
5, 88498, Note_on_c, 2, 75, 0
5, 88560, Note_on_c, 2, 72, 66
5, 88618, Note_on_c, 2, 72, 0
5, 88680, Note_on_c, 2, 67, 64
5, 88738, Note_on_c, 2, 67, 0
5, 88800, Note_on_c, 2, 63, 70
5, 88858, Note_on_c, 2, 63, 0
5, 88920, Note_on_c, 2, 60, 68
5, 88978, Note_on_c, 2, 60, 0
5, 89040, Note_on_c, 2, 79, 72
5, 89098, Note_on_c, 2, 79, 0
5, 89160, Note_on_c, 2, 75, 69
5, 89218, Note_on_c, 2, 75, 0
5, 89280, Note_on_c, 2, 72, 65
5, 89338, Note_on_c, 2, 72, 0
5, 89400, Note_on_c, 2, 67, 64
5, 89458, Note_on_c, 2, 67, 0
5, 89520, Note_on_c, 2, 63, 74
5, 89578, Note_on_c, 2, 63, 0
5, 89640, Note_on_c, 2, 60, 82
5, 89698, Note_on_c, 2, 60, 0
5, 89760, Note_on_c, 2, 79, 72
5, 89818, Note_on_c, 2, 79, 0
5, 89880, Note_on_c, 2, 75, 69
5, 89938, Note_on_c, 2, 75, 0
5, 90000, Note_on_c, 2, 72, 65
5, 90058, Note_on_c, 2, 72, 0
5, 90120, Note_on_c, 2, 67, 64
5, 90178, Note_on_c, 2, 67, 0
5, 90240, Note_on_c, 2, 63, 74
5, 90298, Note_on_c, 2, 63, 0
5, 90360, Note_on_c, 2, 79, 72
5, 90418, Note_on_c, 2, 79, 0
5, 90480, Note_on_c, 2, 80, 74
5, 90538, Note_on_c, 2, 80, 0
5, 90600, Note_on_c, 2, 75, 69
5, 90658, Note_on_c, 2, 75, 0
5, 90720, Note_on_c, 2, 72, 66
5, 90778, Note_on_c, 2, 72, 0
5, 90840, Note_on_c, 2, 68, 64
5, 90898, Note_on_c, 2, 68, 0
5, 90960, Note_on_c, 2, 63, 70
5, 91018, Note_on_c, 2, 63, 0
5, 91080, Note_on_c, 2, 60, 68
5, 91138, Note_on_c, 2, 60, 0
5, 91200, Note_on_c, 2, 80, 72
5, 91258, Note_on_c, 2, 80, 0
5, 91320, Note_on_c, 2, 75, 69
5, 91378, Note_on_c, 2, 75, 0
5, 91440, Note_on_c, 2, 72, 65
5, 91498, Note_on_c, 2, 72, 0
5, 91560, Note_on_c, 2, 68, 64
5, 91618, Note_on_c, 2, 68, 0
5, 91680, Note_on_c, 2, 63, 74
5, 91738, Note_on_c, 2, 63, 0
5, 91800, Note_on_c, 2, 60, 82
5, 91858, Note_on_c, 2, 60, 0
5, 91920, Note_on_c, 2, 80, 72
5, 91978, Note_on_c, 2, 80, 0
5, 92040, Note_on_c, 2, 75, 69
5, 92098, Note_on_c, 2, 75, 0
5, 92160, Note_on_c, 2, 79, 74
5, 92218, Note_on_c, 2, 79, 0
5, 92280, Note_on_c, 2, 75, 69
5, 92338, Note_on_c, 2, 75, 0
5, 92400, Note_on_c, 2, 70, 66
5, 92458, Note_on_c, 2, 70, 0
5, 92520, Note_on_c, 2, 67, 64
5, 92578, Note_on_c, 2, 67, 0
5, 92640, Note_on_c, 2, 62, 70
5, 92698, Note_on_c, 2, 62, 0
5, 92760, Note_on_c, 2, 58, 68
5, 92818, Note_on_c, 2, 58, 0
5, 92880, Note_on_c, 2, 79, 72
5, 92938, Note_on_c, 2, 79, 0
5, 93000, Note_on_c, 2, 75, 69
5, 93058, Note_on_c, 2, 75, 0
5, 93120, Note_on_c, 2, 70, 65
5, 93178, Note_on_c, 2, 70, 0
5, 93240, Note_on_c, 2, 67, 64
5, 93298, Note_on_c, 2, 67, 0
5, 93360, Note_on_c, 2, 62, 74
5, 93418, Note_on_c, 2, 62, 0
5, 93480, Note_on_c, 2, 58, 82
5, 93538, Note_on_c, 2, 58, 0
5, 93600, Note_on_c, 2, 79, 72
5, 93658, Note_on_c, 2, 79, 0
5, 93720, Note_on_c, 2, 75, 69
5, 93778, Note_on_c, 2, 75, 0
5, 93840, Note_on_c, 2, 70, 65
5, 93898, Note_on_c, 2, 70, 0
5, 93960, Note_on_c, 2, 67, 64
5, 94018, Note_on_c, 2, 67, 0
5, 94080, Note_on_c, 2, 79, 74
5, 94138, Note_on_c, 2, 79, 0
5, 94200, Note_on_c, 2, 74, 69
5, 94258, Note_on_c, 2, 74, 0
5, 94320, Note_on_c, 2, 70, 66
5, 94378, Note_on_c, 2, 70, 0
5, 94440, Note_on_c, 2, 67, 64
5, 94498, Note_on_c, 2, 67, 0
5, 94560, Note_on_c, 2, 62, 70
5, 94618, Note_on_c, 2, 62, 0
5, 94680, Note_on_c, 2, 58, 68
5, 94738, Note_on_c, 2, 58, 0
5, 94800, Note_on_c, 2, 79, 72
5, 94858, Note_on_c, 2, 79, 0
5, 94920, Note_on_c, 2, 74, 69
5, 94978, Note_on_c, 2, 74, 0
5, 95040, Note_on_c, 2, 70, 65
5, 95098, Note_on_c, 2, 70, 0
5, 95160, Note_on_c, 2, 67, 64
5, 95218, Note_on_c, 2, 67, 0
5, 95280, Note_on_c, 2, 62, 74
5, 95338, Note_on_c, 2, 62, 0
5, 95400, Note_on_c, 2, 58, 82
5, 95458, Note_on_c, 2, 58, 0
5, 95520, Note_on_c, 2, 79, 72
5, 95578, Note_on_c, 2, 79, 0
5, 95640, Note_on_c, 2, 74, 69
5, 95698, Note_on_c, 2, 74, 0
5, 95760, Note_on_c, 2, 70, 65
5, 95818, Note_on_c, 2, 70, 0
5, 95880, Note_on_c, 2, 67, 64
5, 95938, Note_on_c, 2, 67, 0
5, 96000, Note_on_c, 2, 79, 74
5, 96058, Note_on_c, 2, 79, 0
5, 96120, Note_on_c, 2, 75, 69
5, 96178, Note_on_c, 2, 75, 0
5, 96240, Note_on_c, 2, 72, 66
5, 96298, Note_on_c, 2, 72, 0
5, 96360, Note_on_c, 2, 67, 64
5, 96418, Note_on_c, 2, 67, 0
5, 96480, Note_on_c, 2, 63, 70
5, 96538, Note_on_c, 2, 63, 0
5, 96600, Note_on_c, 2, 60, 68
5, 96658, Note_on_c, 2, 60, 0
5, 96720, Note_on_c, 2, 79, 72
5, 96778, Note_on_c, 2, 79, 0
5, 96840, Note_on_c, 2, 75, 69
5, 96898, Note_on_c, 2, 75, 0
5, 96960, Note_on_c, 2, 72, 65
5, 97018, Note_on_c, 2, 72, 0
5, 97080, Note_on_c, 2, 67, 64
5, 97138, Note_on_c, 2, 67, 0
5, 97200, Note_on_c, 2, 63, 74
5, 97258, Note_on_c, 2, 63, 0
5, 97320, Note_on_c, 2, 60, 82
5, 97378, Note_on_c, 2, 60, 0
5, 97440, Note_on_c, 2, 79, 72
5, 97498, Note_on_c, 2, 79, 0
5, 97560, Note_on_c, 2, 75, 69
5, 97618, Note_on_c, 2, 75, 0
5, 97680, Note_on_c, 2, 72, 65
5, 97738, Note_on_c, 2, 72, 0
5, 97800, Note_on_c, 2, 67, 64
5, 97858, Note_on_c, 2, 67, 0
5, 97920, Note_on_c, 2, 63, 74
5, 97978, Note_on_c, 2, 63, 0
5, 98040, Note_on_c, 2, 79, 72
5, 98098, Note_on_c, 2, 79, 0
5, 98160, Note_on_c, 2, 80, 74
5, 98218, Note_on_c, 2, 80, 0
5, 98280, Note_on_c, 2, 75, 69
5, 98338, Note_on_c, 2, 75, 0
5, 98400, Note_on_c, 2, 72, 66
5, 98458, Note_on_c, 2, 72, 0
5, 98520, Note_on_c, 2, 68, 64
5, 98578, Note_on_c, 2, 68, 0
5, 98640, Note_on_c, 2, 63, 70
5, 98698, Note_on_c, 2, 63, 0
5, 98760, Note_on_c, 2, 60, 68
5, 98818, Note_on_c, 2, 60, 0
5, 98880, Note_on_c, 2, 80, 72
5, 98938, Note_on_c, 2, 80, 0
5, 99000, Note_on_c, 2, 75, 69
5, 99058, Note_on_c, 2, 75, 0
5, 99120, Note_on_c, 2, 72, 65
5, 99178, Note_on_c, 2, 72, 0
5, 99240, Note_on_c, 2, 68, 64
5, 99298, Note_on_c, 2, 68, 0
5, 99360, Note_on_c, 2, 63, 74
5, 99418, Note_on_c, 2, 63, 0
5, 99480, Note_on_c, 2, 60, 82
5, 99538, Note_on_c, 2, 60, 0
5, 99600, Note_on_c, 2, 80, 72
5, 99658, Note_on_c, 2, 80, 0
5, 99720, Note_on_c, 2, 75, 69
5, 99778, Note_on_c, 2, 75, 0
5, 99840, Note_on_c, 2, 79, 74
5, 99898, Note_on_c, 2, 79, 0
5, 99960, Note_on_c, 2, 75, 69
5, 100018, Note_on_c, 2, 75, 0
5, 100080, Note_on_c, 2, 70, 66
5, 100138, Note_on_c, 2, 70, 0
5, 100200, Note_on_c, 2, 67, 64
5, 100258, Note_on_c, 2, 67, 0
5, 100320, Note_on_c, 2, 62, 70
5, 100378, Note_on_c, 2, 62, 0
5, 100440, Note_on_c, 2, 58, 68
5, 100498, Note_on_c, 2, 58, 0
5, 100560, Note_on_c, 2, 79, 72
5, 100618, Note_on_c, 2, 79, 0
5, 100680, Note_on_c, 2, 75, 69
5, 100738, Note_on_c, 2, 75, 0
5, 100800, Note_on_c, 2, 70, 65
5, 100858, Note_on_c, 2, 70, 0
5, 100920, Note_on_c, 2, 67, 64
5, 100978, Note_on_c, 2, 67, 0
5, 101040, Note_on_c, 2, 62, 74
5, 101098, Note_on_c, 2, 62, 0
5, 101160, Note_on_c, 2, 58, 82
5, 101218, Note_on_c, 2, 58, 0
5, 101280, Note_on_c, 2, 79, 72
5, 101338, Note_on_c, 2, 79, 0
5, 101400, Note_on_c, 2, 75, 69
5, 101458, Note_on_c, 2, 75, 0
5, 101520, Note_on_c, 2, 70, 65
5, 101578, Note_on_c, 2, 70, 0
5, 101640, Note_on_c, 2, 67, 64
5, 101698, Note_on_c, 2, 67, 0
5, 101760, Note_on_c, 2, 79, 74
5, 101818, Note_on_c, 2, 79, 0
5, 101880, Note_on_c, 2, 74, 69
5, 101938, Note_on_c, 2, 74, 0
5, 102000, Note_on_c, 2, 70, 66
5, 102058, Note_on_c, 2, 70, 0
5, 102120, Note_on_c, 2, 67, 64
5, 102178, Note_on_c, 2, 67, 0
5, 102240, Note_on_c, 2, 62, 70
5, 102298, Note_on_c, 2, 62, 0
5, 102360, Note_on_c, 2, 58, 68
5, 102418, Note_on_c, 2, 58, 0
5, 102480, Note_on_c, 2, 79, 72
5, 102538, Note_on_c, 2, 79, 0
5, 102600, Note_on_c, 2, 74, 69
5, 102658, Note_on_c, 2, 74, 0
5, 102720, Note_on_c, 2, 70, 65
5, 102778, Note_on_c, 2, 70, 0
5, 102840, Note_on_c, 2, 67, 64
5, 102898, Note_on_c, 2, 67, 0
5, 102960, Note_on_c, 2, 62, 74
5, 103018, Note_on_c, 2, 62, 0
5, 103080, Note_on_c, 2, 58, 82
5, 103138, Note_on_c, 2, 58, 0
5, 103200, Note_on_c, 2, 79, 72
5, 103258, Note_on_c, 2, 79, 0
5, 103320, Note_on_c, 2, 74, 69
5, 103378, Note_on_c, 2, 74, 0
5, 103440, Note_on_c, 2, 70, 65
5, 103498, Note_on_c, 2, 70, 0
5, 103560, Note_on_c, 2, 67, 64
5, 103618, Note_on_c, 2, 67, 0
5, 103680, Note_on_c, 2, 79, 84
5, 103680, Note_on_c, 2, 91, 84
5, 103738, Note_on_c, 2, 91, 0
5, 103738, Note_on_c, 2, 79, 0
5, 103800, Note_on_c, 2, 75, 79
5, 103800, Note_on_c, 2, 87, 79
5, 103858, Note_on_c, 2, 87, 0
5, 103858, Note_on_c, 2, 75, 0
5, 103920, Note_on_c, 2, 72, 76
5, 103920, Note_on_c, 2, 84, 76
5, 103978, Note_on_c, 2, 84, 0
5, 103978, Note_on_c, 2, 72, 0
5, 104040, Note_on_c, 2, 67, 74
5, 104040, Note_on_c, 2, 79, 74
5, 104098, Note_on_c, 2, 79, 0
5, 104098, Note_on_c, 2, 67, 0
5, 104160, Note_on_c, 2, 63, 80
5, 104160, Note_on_c, 2, 75, 80
5, 104218, Note_on_c, 2, 75, 0
5, 104218, Note_on_c, 2, 63, 0
5, 104280, Note_on_c, 2, 60, 78
5, 104280, Note_on_c, 2, 72, 78
5, 104338, Note_on_c, 2, 72, 0
5, 104338, Note_on_c, 2, 60, 0
5, 104400, Note_on_c, 2, 80, 82
5, 104400, Note_on_c, 2, 92, 82
5, 104458, Note_on_c, 2, 92, 0
5, 104458, Note_on_c, 2, 80, 0
5, 104520, Note_on_c, 2, 75, 79
5, 104520, Note_on_c, 2, 87, 79
5, 104578, Note_on_c, 2, 87, 0
5, 104578, Note_on_c, 2, 75, 0
5, 104640, Note_on_c, 2, 72, 75
5, 104640, Note_on_c, 2, 84, 75
5, 104698, Note_on_c, 2, 84, 0
5, 104698, Note_on_c, 2, 72, 0
5, 104760, Note_on_c, 2, 68, 74
5, 104760, Note_on_c, 2, 80, 74
5, 104818, Note_on_c, 2, 80, 0
5, 104818, Note_on_c, 2, 68, 0
5, 104880, Note_on_c, 2, 63, 84
5, 104880, Note_on_c, 2, 75, 84
5, 104938, Note_on_c, 2, 75, 0
5, 104938, Note_on_c, 2, 63, 0
5, 105000, Note_on_c, 2, 60, 92
5, 105000, Note_on_c, 2, 80, 92
5, 105000, Note_on_c, 2, 92, 92
5, 105058, Note_on_c, 2, 92, 0
5, 105058, Note_on_c, 2, 80, 0
5, 105058, Note_on_c, 2, 60, 0
5, 105120, Note_on_c, 2, 75, 79
5, 105120, Note_on_c, 2, 87, 79
5, 105178, Note_on_c, 2, 87, 0
5, 105178, Note_on_c, 2, 75, 0
5, 105240, Note_on_c, 2, 72, 75
5, 105240, Note_on_c, 2, 84, 75
5, 105298, Note_on_c, 2, 84, 0
5, 105298, Note_on_c, 2, 72, 0
5, 105360, Note_on_c, 2, 68, 74
5, 105360, Note_on_c, 2, 80, 74
5, 105418, Note_on_c, 2, 80, 0
5, 105418, Note_on_c, 2, 68, 0
5, 105480, Note_on_c, 2, 75, 84
5, 105538, Note_on_c, 2, 75, 0
5, 105600, Note_on_c, 2, 79, 94
5, 105600, Note_on_c, 2, 91, 90
5, 105658, Note_on_c, 2, 91, 0
5, 105658, Note_on_c, 2, 79, 0
5, 105720, Note_on_c, 2, 75, 79
5, 105720, Note_on_c, 2, 87, 79
5, 105778, Note_on_c, 2, 87, 0
5, 105778, Note_on_c, 2, 75, 0
5, 105840, Note_on_c, 2, 70, 75
5, 105840, Note_on_c, 2, 82, 75
5, 105898, Note_on_c, 2, 82, 0
5, 105898, Note_on_c, 2, 70, 0
5, 105960, Note_on_c, 2, 67, 74
5, 105960, Note_on_c, 2, 79, 74
5, 106018, Note_on_c, 2, 79, 0
5, 106018, Note_on_c, 2, 67, 0
5, 106080, Note_on_c, 2, 63, 84
5, 106080, Note_on_c, 2, 75, 84
5, 106138, Note_on_c, 2, 75, 0
5, 106138, Note_on_c, 2, 63, 0
5, 106200, Note_on_c, 2, 58, 84
5, 106200, Note_on_c, 2, 70, 84
5, 106258, Note_on_c, 2, 70, 0
5, 106258, Note_on_c, 2, 58, 0
5, 106320, Note_on_c, 2, 79, 88
5, 106320, Note_on_c, 2, 91, 88
5, 106378, Note_on_c, 2, 91, 0
5, 106378, Note_on_c, 2, 79, 0
5, 106440, Note_on_c, 2, 70, 79
5, 106440, Note_on_c, 2, 82, 79
5, 106498, Note_on_c, 2, 82, 0
5, 106498, Note_on_c, 2, 70, 0
5, 106560, Note_on_c, 2, 67, 75
5, 106560, Note_on_c, 2, 79, 75
5, 106618, Note_on_c, 2, 79, 0
5, 106618, Note_on_c, 2, 67, 0
5, 106680, Note_on_c, 2, 62, 74
5, 106680, Note_on_c, 2, 74, 74
5, 106738, Note_on_c, 2, 74, 0
5, 106738, Note_on_c, 2, 62, 0
5, 106800, Note_on_c, 2, 58, 84
5, 106800, Note_on_c, 2, 70, 84
5, 106858, Note_on_c, 2, 70, 0
5, 106858, Note_on_c, 2, 58, 0
5, 106920, Note_on_c, 2, 79, 97
5, 106920, Note_on_c, 2, 91, 90
5, 106978, Note_on_c, 2, 91, 0
5, 106978, Note_on_c, 2, 79, 0
5, 107040, Note_on_c, 2, 74, 79
5, 107040, Note_on_c, 2, 86, 79
5, 107098, Note_on_c, 2, 86, 0
5, 107098, Note_on_c, 2, 74, 0
5, 107160, Note_on_c, 2, 70, 75
5, 107160, Note_on_c, 2, 82, 75
5, 107218, Note_on_c, 2, 82, 0
5, 107218, Note_on_c, 2, 70, 0
5, 107280, Note_on_c, 2, 67, 74
5, 107280, Note_on_c, 2, 79, 74
5, 107338, Note_on_c, 2, 79, 0
5, 107338, Note_on_c, 2, 67, 0
5, 107400, Note_on_c, 2, 62, 84
5, 107400, Note_on_c, 2, 74, 84
5, 107458, Note_on_c, 2, 74, 0
5, 107458, Note_on_c, 2, 62, 0
5, 107520, Note_on_c, 2, 79, 84
5, 107520, Note_on_c, 2, 91, 84
5, 107578, Note_on_c, 2, 91, 0
5, 107578, Note_on_c, 2, 79, 0
5, 107640, Note_on_c, 2, 75, 79
5, 107640, Note_on_c, 2, 87, 79
5, 107698, Note_on_c, 2, 87, 0
5, 107698, Note_on_c, 2, 75, 0
5, 107760, Note_on_c, 2, 72, 76
5, 107760, Note_on_c, 2, 84, 76
5, 107818, Note_on_c, 2, 84, 0
5, 107818, Note_on_c, 2, 72, 0
5, 107880, Note_on_c, 2, 67, 74
5, 107880, Note_on_c, 2, 79, 74
5, 107938, Note_on_c, 2, 79, 0
5, 107938, Note_on_c, 2, 67, 0
5, 108000, Note_on_c, 2, 63, 80
5, 108000, Note_on_c, 2, 75, 80
5, 108058, Note_on_c, 2, 75, 0
5, 108058, Note_on_c, 2, 63, 0
5, 108120, Note_on_c, 2, 60, 78
5, 108120, Note_on_c, 2, 72, 78
5, 108178, Note_on_c, 2, 72, 0
5, 108178, Note_on_c, 2, 60, 0
5, 108240, Note_on_c, 2, 80, 82
5, 108240, Note_on_c, 2, 92, 82
5, 108298, Note_on_c, 2, 92, 0
5, 108298, Note_on_c, 2, 80, 0
5, 108360, Note_on_c, 2, 75, 79
5, 108360, Note_on_c, 2, 87, 79
5, 108418, Note_on_c, 2, 87, 0
5, 108418, Note_on_c, 2, 75, 0
5, 108480, Note_on_c, 2, 72, 75
5, 108480, Note_on_c, 2, 84, 75
5, 108538, Note_on_c, 2, 84, 0
5, 108538, Note_on_c, 2, 72, 0
5, 108600, Note_on_c, 2, 68, 74
5, 108600, Note_on_c, 2, 80, 74
5, 108658, Note_on_c, 2, 80, 0
5, 108658, Note_on_c, 2, 68, 0
5, 108720, Note_on_c, 2, 63, 84
5, 108720, Note_on_c, 2, 75, 84
5, 108778, Note_on_c, 2, 75, 0
5, 108778, Note_on_c, 2, 63, 0
5, 108840, Note_on_c, 2, 60, 92
5, 108840, Note_on_c, 2, 80, 92
5, 108840, Note_on_c, 2, 92, 92
5, 108898, Note_on_c, 2, 92, 0
5, 108898, Note_on_c, 2, 80, 0
5, 108898, Note_on_c, 2, 60, 0
5, 108960, Note_on_c, 2, 75, 79
5, 108960, Note_on_c, 2, 87, 79
5, 109018, Note_on_c, 2, 87, 0
5, 109018, Note_on_c, 2, 75, 0
5, 109080, Note_on_c, 2, 72, 75
5, 109080, Note_on_c, 2, 84, 75
5, 109138, Note_on_c, 2, 84, 0
5, 109138, Note_on_c, 2, 72, 0
5, 109200, Note_on_c, 2, 68, 74
5, 109200, Note_on_c, 2, 80, 74
5, 109258, Note_on_c, 2, 80, 0
5, 109258, Note_on_c, 2, 68, 0
5, 109320, Note_on_c, 2, 75, 84
5, 109378, Note_on_c, 2, 75, 0
5, 109440, Note_on_c, 2, 79, 94
5, 109440, Note_on_c, 2, 91, 90
5, 109498, Note_on_c, 2, 91, 0
5, 109498, Note_on_c, 2, 79, 0
5, 109560, Note_on_c, 2, 75, 79
5, 109560, Note_on_c, 2, 87, 79
5, 109618, Note_on_c, 2, 87, 0
5, 109618, Note_on_c, 2, 75, 0
5, 109680, Note_on_c, 2, 70, 75
5, 109680, Note_on_c, 2, 82, 75
5, 109738, Note_on_c, 2, 82, 0
5, 109738, Note_on_c, 2, 70, 0
5, 109800, Note_on_c, 2, 67, 74
5, 109800, Note_on_c, 2, 79, 74
5, 109858, Note_on_c, 2, 79, 0
5, 109858, Note_on_c, 2, 67, 0
5, 109920, Note_on_c, 2, 63, 84
5, 109920, Note_on_c, 2, 75, 84
5, 109978, Note_on_c, 2, 75, 0
5, 109978, Note_on_c, 2, 63, 0
5, 110040, Note_on_c, 2, 58, 84
5, 110040, Note_on_c, 2, 70, 84
5, 110098, Note_on_c, 2, 70, 0
5, 110098, Note_on_c, 2, 58, 0
5, 110160, Note_on_c, 2, 79, 88
5, 110160, Note_on_c, 2, 91, 88
5, 110218, Note_on_c, 2, 91, 0
5, 110218, Note_on_c, 2, 79, 0
5, 110280, Note_on_c, 2, 70, 79
5, 110280, Note_on_c, 2, 82, 79
5, 110338, Note_on_c, 2, 82, 0
5, 110338, Note_on_c, 2, 70, 0
5, 110400, Note_on_c, 2, 67, 75
5, 110400, Note_on_c, 2, 79, 75
5, 110458, Note_on_c, 2, 79, 0
5, 110458, Note_on_c, 2, 67, 0
5, 110520, Note_on_c, 2, 62, 74
5, 110520, Note_on_c, 2, 74, 74
5, 110578, Note_on_c, 2, 74, 0
5, 110578, Note_on_c, 2, 62, 0
5, 110640, Note_on_c, 2, 58, 84
5, 110640, Note_on_c, 2, 70, 84
5, 110698, Note_on_c, 2, 70, 0
5, 110698, Note_on_c, 2, 58, 0
5, 110760, Note_on_c, 2, 79, 97
5, 110760, Note_on_c, 2, 91, 90
5, 110818, Note_on_c, 2, 91, 0
5, 110818, Note_on_c, 2, 79, 0
5, 110880, Note_on_c, 2, 74, 79
5, 110880, Note_on_c, 2, 86, 79
5, 110938, Note_on_c, 2, 86, 0
5, 110938, Note_on_c, 2, 74, 0
5, 111000, Note_on_c, 2, 70, 75
5, 111000, Note_on_c, 2, 82, 75
5, 111058, Note_on_c, 2, 82, 0
5, 111058, Note_on_c, 2, 70, 0
5, 111120, Note_on_c, 2, 67, 74
5, 111120, Note_on_c, 2, 79, 74
5, 111178, Note_on_c, 2, 79, 0
5, 111178, Note_on_c, 2, 67, 0
5, 111240, Note_on_c, 2, 62, 84
5, 111240, Note_on_c, 2, 74, 84
5, 111298, Note_on_c, 2, 74, 0
5, 111298, Note_on_c, 2, 62, 0
5, 111360, Note_on_c, 2, 79, 84
5, 111360, Note_on_c, 2, 91, 84
5, 111418, Note_on_c, 2, 91, 0
5, 111418, Note_on_c, 2, 79, 0
5, 111480, Note_on_c, 2, 75, 79
5, 111480, Note_on_c, 2, 87, 79
5, 111538, Note_on_c, 2, 87, 0
5, 111538, Note_on_c, 2, 75, 0
5, 111600, Note_on_c, 2, 72, 76
5, 111600, Note_on_c, 2, 84, 76
5, 111658, Note_on_c, 2, 84, 0
5, 111658, Note_on_c, 2, 72, 0
5, 111720, Note_on_c, 2, 67, 74
5, 111720, Note_on_c, 2, 79, 74
5, 111778, Note_on_c, 2, 79, 0
5, 111778, Note_on_c, 2, 67, 0
5, 111840, Note_on_c, 2, 63, 80
5, 111840, Note_on_c, 2, 75, 80
5, 111898, Note_on_c, 2, 75, 0
5, 111898, Note_on_c, 2, 63, 0
5, 111960, Note_on_c, 2, 60, 78
5, 111960, Note_on_c, 2, 72, 78
5, 112018, Note_on_c, 2, 72, 0
5, 112018, Note_on_c, 2, 60, 0
5, 112080, Note_on_c, 2, 80, 82
5, 112080, Note_on_c, 2, 92, 82
5, 112138, Note_on_c, 2, 92, 0
5, 112138, Note_on_c, 2, 80, 0
5, 112200, Note_on_c, 2, 75, 79
5, 112200, Note_on_c, 2, 87, 79
5, 112258, Note_on_c, 2, 87, 0
5, 112258, Note_on_c, 2, 75, 0
5, 112320, Note_on_c, 2, 72, 75
5, 112320, Note_on_c, 2, 84, 75
5, 112378, Note_on_c, 2, 84, 0
5, 112378, Note_on_c, 2, 72, 0
5, 112440, Note_on_c, 2, 68, 74
5, 112440, Note_on_c, 2, 80, 74
5, 112498, Note_on_c, 2, 80, 0
5, 112498, Note_on_c, 2, 68, 0
5, 112560, Note_on_c, 2, 63, 84
5, 112560, Note_on_c, 2, 75, 84
5, 112618, Note_on_c, 2, 75, 0
5, 112618, Note_on_c, 2, 63, 0
5, 112680, Note_on_c, 2, 60, 92
5, 112680, Note_on_c, 2, 80, 92
5, 112680, Note_on_c, 2, 92, 92
5, 112738, Note_on_c, 2, 92, 0
5, 112738, Note_on_c, 2, 80, 0
5, 112738, Note_on_c, 2, 60, 0
5, 112800, Note_on_c, 2, 75, 79
5, 112800, Note_on_c, 2, 87, 79
5, 112858, Note_on_c, 2, 87, 0
5, 112858, Note_on_c, 2, 75, 0
5, 112920, Note_on_c, 2, 72, 75
5, 112920, Note_on_c, 2, 84, 75
5, 112978, Note_on_c, 2, 84, 0
5, 112978, Note_on_c, 2, 72, 0
5, 113040, Note_on_c, 2, 68, 74
5, 113040, Note_on_c, 2, 80, 74
5, 113098, Note_on_c, 2, 80, 0
5, 113098, Note_on_c, 2, 68, 0
5, 113160, Note_on_c, 2, 75, 84
5, 113218, Note_on_c, 2, 75, 0
5, 113280, Note_on_c, 2, 79, 94
5, 113280, Note_on_c, 2, 91, 90
5, 113338, Note_on_c, 2, 91, 0
5, 113338, Note_on_c, 2, 79, 0
5, 113400, Note_on_c, 2, 75, 79
5, 113400, Note_on_c, 2, 87, 79
5, 113458, Note_on_c, 2, 87, 0
5, 113458, Note_on_c, 2, 75, 0
5, 113520, Note_on_c, 2, 70, 75
5, 113520, Note_on_c, 2, 82, 75
5, 113578, Note_on_c, 2, 82, 0
5, 113578, Note_on_c, 2, 70, 0
5, 113640, Note_on_c, 2, 67, 74
5, 113640, Note_on_c, 2, 79, 74
5, 113698, Note_on_c, 2, 79, 0
5, 113698, Note_on_c, 2, 67, 0
5, 113760, Note_on_c, 2, 63, 84
5, 113760, Note_on_c, 2, 75, 84
5, 113818, Note_on_c, 2, 75, 0
5, 113818, Note_on_c, 2, 63, 0
5, 113880, Note_on_c, 2, 58, 84
5, 113880, Note_on_c, 2, 70, 84
5, 113938, Note_on_c, 2, 70, 0
5, 113938, Note_on_c, 2, 58, 0
5, 114000, Note_on_c, 2, 79, 88
5, 114000, Note_on_c, 2, 91, 88
5, 114058, Note_on_c, 2, 91, 0
5, 114058, Note_on_c, 2, 79, 0
5, 114120, Note_on_c, 2, 70, 79
5, 114120, Note_on_c, 2, 82, 79
5, 114178, Note_on_c, 2, 82, 0
5, 114178, Note_on_c, 2, 70, 0
5, 114240, Note_on_c, 2, 67, 75
5, 114240, Note_on_c, 2, 79, 75
5, 114298, Note_on_c, 2, 79, 0
5, 114298, Note_on_c, 2, 67, 0
5, 114360, Note_on_c, 2, 62, 74
5, 114360, Note_on_c, 2, 74, 74
5, 114418, Note_on_c, 2, 74, 0
5, 114418, Note_on_c, 2, 62, 0
5, 114480, Note_on_c, 2, 58, 84
5, 114480, Note_on_c, 2, 70, 84
5, 114538, Note_on_c, 2, 70, 0
5, 114538, Note_on_c, 2, 58, 0
5, 114600, Note_on_c, 2, 79, 97
5, 114600, Note_on_c, 2, 91, 90
5, 114658, Note_on_c, 2, 91, 0
5, 114658, Note_on_c, 2, 79, 0
5, 114720, Note_on_c, 2, 74, 79
5, 114720, Note_on_c, 2, 86, 79
5, 114778, Note_on_c, 2, 86, 0
5, 114778, Note_on_c, 2, 74, 0
5, 114840, Note_on_c, 2, 70, 75
5, 114840, Note_on_c, 2, 82, 75
5, 114898, Note_on_c, 2, 82, 0
5, 114898, Note_on_c, 2, 70, 0
5, 114960, Note_on_c, 2, 67, 74
5, 114960, Note_on_c, 2, 79, 74
5, 115018, Note_on_c, 2, 79, 0
5, 115018, Note_on_c, 2, 67, 0
5, 115080, Note_on_c, 2, 62, 84
5, 115080, Note_on_c, 2, 74, 84
5, 115138, Note_on_c, 2, 74, 0
5, 115138, Note_on_c, 2, 62, 0
5, 115200, Note_on_c, 2, 79, 84
5, 115200, Note_on_c, 2, 91, 84
5, 115258, Note_on_c, 2, 91, 0
5, 115258, Note_on_c, 2, 79, 0
5, 115320, Note_on_c, 2, 75, 79
5, 115320, Note_on_c, 2, 87, 79
5, 115378, Note_on_c, 2, 87, 0
5, 115378, Note_on_c, 2, 75, 0
5, 115440, Note_on_c, 2, 72, 76
5, 115440, Note_on_c, 2, 84, 76
5, 115498, Note_on_c, 2, 84, 0
5, 115498, Note_on_c, 2, 72, 0
5, 115560, Note_on_c, 2, 67, 74
5, 115560, Note_on_c, 2, 79, 74
5, 115618, Note_on_c, 2, 79, 0
5, 115618, Note_on_c, 2, 67, 0
5, 115680, Note_on_c, 2, 63, 80
5, 115680, Note_on_c, 2, 75, 80
5, 115738, Note_on_c, 2, 75, 0
5, 115738, Note_on_c, 2, 63, 0
5, 115800, Note_on_c, 2, 60, 78
5, 115800, Note_on_c, 2, 72, 78
5, 115858, Note_on_c, 2, 72, 0
5, 115858, Note_on_c, 2, 60, 0
5, 115920, Note_on_c, 2, 80, 82
5, 115920, Note_on_c, 2, 92, 82
5, 115978, Note_on_c, 2, 92, 0
5, 115978, Note_on_c, 2, 80, 0
5, 116040, Note_on_c, 2, 75, 79
5, 116040, Note_on_c, 2, 87, 79
5, 116098, Note_on_c, 2, 87, 0
5, 116098, Note_on_c, 2, 75, 0
5, 116160, Note_on_c, 2, 72, 75
5, 116160, Note_on_c, 2, 84, 75
5, 116218, Note_on_c, 2, 84, 0
5, 116218, Note_on_c, 2, 72, 0
5, 116280, Note_on_c, 2, 68, 74
5, 116280, Note_on_c, 2, 80, 74
5, 116338, Note_on_c, 2, 80, 0
5, 116338, Note_on_c, 2, 68, 0
5, 116400, Note_on_c, 2, 63, 84
5, 116400, Note_on_c, 2, 75, 84
5, 116458, Note_on_c, 2, 75, 0
5, 116458, Note_on_c, 2, 63, 0
5, 116520, Note_on_c, 2, 60, 92
5, 116520, Note_on_c, 2, 80, 92
5, 116520, Note_on_c, 2, 92, 92
5, 116578, Note_on_c, 2, 92, 0
5, 116578, Note_on_c, 2, 80, 0
5, 116578, Note_on_c, 2, 60, 0
5, 116640, Note_on_c, 2, 75, 79
5, 116640, Note_on_c, 2, 87, 79
5, 116698, Note_on_c, 2, 87, 0
5, 116698, Note_on_c, 2, 75, 0
5, 116760, Note_on_c, 2, 72, 75
5, 116760, Note_on_c, 2, 84, 75
5, 116818, Note_on_c, 2, 84, 0
5, 116818, Note_on_c, 2, 72, 0
5, 116880, Note_on_c, 2, 68, 74
5, 116880, Note_on_c, 2, 80, 74
5, 116938, Note_on_c, 2, 80, 0
5, 116938, Note_on_c, 2, 68, 0
5, 117000, Note_on_c, 2, 75, 84
5, 117058, Note_on_c, 2, 75, 0
5, 117120, Note_on_c, 2, 79, 94
5, 117120, Note_on_c, 2, 91, 90
5, 117178, Note_on_c, 2, 91, 0
5, 117178, Note_on_c, 2, 79, 0
5, 117240, Note_on_c, 2, 75, 79
5, 117240, Note_on_c, 2, 87, 79
5, 117298, Note_on_c, 2, 87, 0
5, 117298, Note_on_c, 2, 75, 0
5, 117360, Note_on_c, 2, 70, 75
5, 117360, Note_on_c, 2, 82, 75
5, 117418, Note_on_c, 2, 82, 0
5, 117418, Note_on_c, 2, 70, 0
5, 117480, Note_on_c, 2, 67, 74
5, 117480, Note_on_c, 2, 79, 74
5, 117538, Note_on_c, 2, 79, 0
5, 117538, Note_on_c, 2, 67, 0
5, 117600, Note_on_c, 2, 63, 84
5, 117600, Note_on_c, 2, 75, 84
5, 117658, Note_on_c, 2, 75, 0
5, 117658, Note_on_c, 2, 63, 0
5, 117720, Note_on_c, 2, 58, 84
5, 117720, Note_on_c, 2, 70, 84
5, 117778, Note_on_c, 2, 70, 0
5, 117778, Note_on_c, 2, 58, 0
5, 117840, Note_on_c, 2, 79, 88
5, 117840, Note_on_c, 2, 91, 88
5, 117898, Note_on_c, 2, 91, 0
5, 117898, Note_on_c, 2, 79, 0
5, 117960, Note_on_c, 2, 70, 79
5, 117960, Note_on_c, 2, 82, 79
5, 118018, Note_on_c, 2, 82, 0
5, 118018, Note_on_c, 2, 70, 0
5, 118080, Note_on_c, 2, 67, 75
5, 118080, Note_on_c, 2, 79, 75
5, 118138, Note_on_c, 2, 79, 0
5, 118138, Note_on_c, 2, 67, 0
5, 118200, Note_on_c, 2, 62, 74
5, 118200, Note_on_c, 2, 74, 74
5, 118258, Note_on_c, 2, 74, 0
5, 118258, Note_on_c, 2, 62, 0
5, 118320, Note_on_c, 2, 58, 84
5, 118320, Note_on_c, 2, 70, 84
5, 118378, Note_on_c, 2, 70, 0
5, 118378, Note_on_c, 2, 58, 0
5, 118440, Note_on_c, 2, 79, 97
5, 118440, Note_on_c, 2, 91, 90
5, 118498, Note_on_c, 2, 91, 0
5, 118498, Note_on_c, 2, 79, 0
5, 118560, Note_on_c, 2, 74, 79
5, 118560, Note_on_c, 2, 86, 79
5, 118618, Note_on_c, 2, 86, 0
5, 118618, Note_on_c, 2, 74, 0
5, 118680, Note_on_c, 2, 70, 75
5, 118680, Note_on_c, 2, 82, 75
5, 118738, Note_on_c, 2, 82, 0
5, 118738, Note_on_c, 2, 70, 0
5, 118800, Note_on_c, 2, 67, 74
5, 118800, Note_on_c, 2, 79, 74
5, 118858, Note_on_c, 2, 79, 0
5, 118858, Note_on_c, 2, 67, 0
5, 118920, Note_on_c, 2, 62, 84
5, 118920, Note_on_c, 2, 74, 84
5, 118978, Note_on_c, 2, 74, 0
5, 118978, Note_on_c, 2, 62, 0
5, 119040, Note_on_c, 2, 79, 84
5, 119040, Note_on_c, 2, 91, 84
5, 119098, Note_on_c, 2, 91, 0
5, 119098, Note_on_c, 2, 79, 0
5, 119160, Note_on_c, 2, 75, 79
5, 119160, Note_on_c, 2, 87, 79
5, 119218, Note_on_c, 2, 87, 0
5, 119218, Note_on_c, 2, 75, 0
5, 119280, Note_on_c, 2, 72, 76
5, 119280, Note_on_c, 2, 84, 76
5, 119338, Note_on_c, 2, 84, 0
5, 119338, Note_on_c, 2, 72, 0
5, 119400, Note_on_c, 2, 67, 74
5, 119400, Note_on_c, 2, 79, 74
5, 119458, Note_on_c, 2, 79, 0
5, 119458, Note_on_c, 2, 67, 0
5, 119520, Note_on_c, 2, 63, 80
5, 119520, Note_on_c, 2, 75, 80
5, 119578, Note_on_c, 2, 75, 0
5, 119578, Note_on_c, 2, 63, 0
5, 119640, Note_on_c, 2, 60, 78
5, 119640, Note_on_c, 2, 72, 78
5, 119698, Note_on_c, 2, 72, 0
5, 119698, Note_on_c, 2, 60, 0
5, 119760, Note_on_c, 2, 80, 82
5, 119760, Note_on_c, 2, 92, 82
5, 119818, Note_on_c, 2, 92, 0
5, 119818, Note_on_c, 2, 80, 0
5, 119880, Note_on_c, 2, 75, 79
5, 119880, Note_on_c, 2, 87, 79
5, 119938, Note_on_c, 2, 87, 0
5, 119938, Note_on_c, 2, 75, 0
5, 120000, Note_on_c, 2, 72, 75
5, 120000, Note_on_c, 2, 84, 75
5, 120058, Note_on_c, 2, 84, 0
5, 120058, Note_on_c, 2, 72, 0
5, 120120, Note_on_c, 2, 68, 74
5, 120120, Note_on_c, 2, 80, 74
5, 120178, Note_on_c, 2, 80, 0
5, 120178, Note_on_c, 2, 68, 0
5, 120240, Note_on_c, 2, 63, 84
5, 120240, Note_on_c, 2, 75, 84
5, 120298, Note_on_c, 2, 75, 0
5, 120298, Note_on_c, 2, 63, 0
5, 120360, Note_on_c, 2, 60, 92
5, 120360, Note_on_c, 2, 80, 92
5, 120360, Note_on_c, 2, 92, 92
5, 120418, Note_on_c, 2, 92, 0
5, 120418, Note_on_c, 2, 80, 0
5, 120418, Note_on_c, 2, 60, 0
5, 120480, Note_on_c, 2, 75, 79
5, 120480, Note_on_c, 2, 87, 79
5, 120538, Note_on_c, 2, 87, 0
5, 120538, Note_on_c, 2, 75, 0
5, 120600, Note_on_c, 2, 72, 75
5, 120600, Note_on_c, 2, 84, 75
5, 120658, Note_on_c, 2, 84, 0
5, 120658, Note_on_c, 2, 72, 0
5, 120720, Note_on_c, 2, 68, 74
5, 120720, Note_on_c, 2, 80, 74
5, 120778, Note_on_c, 2, 80, 0
5, 120778, Note_on_c, 2, 68, 0
5, 120840, Note_on_c, 2, 75, 84
5, 120898, Note_on_c, 2, 75, 0
5, 120960, Note_on_c, 2, 79, 94
5, 120960, Note_on_c, 2, 91, 90
5, 121018, Note_on_c, 2, 91, 0
5, 121018, Note_on_c, 2, 79, 0
5, 121080, Note_on_c, 2, 75, 79
5, 121080, Note_on_c, 2, 87, 79
5, 121138, Note_on_c, 2, 87, 0
5, 121138, Note_on_c, 2, 75, 0
5, 121200, Note_on_c, 2, 70, 75
5, 121200, Note_on_c, 2, 82, 75
5, 121258, Note_on_c, 2, 82, 0
5, 121258, Note_on_c, 2, 70, 0
5, 121320, Note_on_c, 2, 67, 74
5, 121320, Note_on_c, 2, 79, 74
5, 121378, Note_on_c, 2, 79, 0
5, 121378, Note_on_c, 2, 67, 0
5, 121440, Note_on_c, 2, 63, 84
5, 121440, Note_on_c, 2, 75, 84
5, 121498, Note_on_c, 2, 75, 0
5, 121498, Note_on_c, 2, 63, 0
5, 121560, Note_on_c, 2, 58, 84
5, 121560, Note_on_c, 2, 70, 84
5, 121618, Note_on_c, 2, 70, 0
5, 121618, Note_on_c, 2, 58, 0
5, 121680, Note_on_c, 2, 79, 88
5, 121680, Note_on_c, 2, 91, 88
5, 121738, Note_on_c, 2, 91, 0
5, 121738, Note_on_c, 2, 79, 0
5, 121800, Note_on_c, 2, 70, 79
5, 121800, Note_on_c, 2, 82, 79
5, 121858, Note_on_c, 2, 82, 0
5, 121858, Note_on_c, 2, 70, 0
5, 121920, Note_on_c, 2, 67, 75
5, 121920, Note_on_c, 2, 79, 75
5, 121978, Note_on_c, 2, 79, 0
5, 121978, Note_on_c, 2, 67, 0
5, 122040, Note_on_c, 2, 62, 74
5, 122040, Note_on_c, 2, 74, 74
5, 122098, Note_on_c, 2, 74, 0
5, 122098, Note_on_c, 2, 62, 0
5, 122160, Note_on_c, 2, 58, 84
5, 122160, Note_on_c, 2, 70, 84
5, 122218, Note_on_c, 2, 70, 0
5, 122218, Note_on_c, 2, 58, 0
5, 122280, Note_on_c, 2, 79, 97
5, 122280, Note_on_c, 2, 91, 90
5, 122338, Note_on_c, 2, 91, 0
5, 122338, Note_on_c, 2, 79, 0
5, 122400, Note_on_c, 2, 74, 79
5, 122400, Note_on_c, 2, 86, 79
5, 122458, Note_on_c, 2, 86, 0
5, 122458, Note_on_c, 2, 74, 0
5, 122520, Note_on_c, 2, 70, 75
5, 122520, Note_on_c, 2, 82, 75
5, 122578, Note_on_c, 2, 82, 0
5, 122578, Note_on_c, 2, 70, 0
5, 122640, Note_on_c, 2, 67, 74
5, 122640, Note_on_c, 2, 79, 74
5, 122698, Note_on_c, 2, 79, 0
5, 122698, Note_on_c, 2, 67, 0
5, 122760, Note_on_c, 2, 62, 84
5, 122760, Note_on_c, 2, 74, 84
5, 122818, Note_on_c, 2, 74, 0
5, 122818, Note_on_c, 2, 62, 0
5, 122880, Note_on_c, 2, 79, 84
5, 122880, Note_on_c, 2, 91, 84
5, 122938, Note_on_c, 2, 91, 0
5, 122938, Note_on_c, 2, 79, 0
5, 123000, Note_on_c, 2, 75, 79
5, 123000, Note_on_c, 2, 87, 79
5, 123058, Note_on_c, 2, 87, 0
5, 123058, Note_on_c, 2, 75, 0
5, 123120, Note_on_c, 2, 72, 76
5, 123120, Note_on_c, 2, 84, 76
5, 123178, Note_on_c, 2, 84, 0
5, 123178, Note_on_c, 2, 72, 0
5, 123240, Note_on_c, 2, 67, 74
5, 123240, Note_on_c, 2, 79, 74
5, 123298, Note_on_c, 2, 79, 0
5, 123298, Note_on_c, 2, 67, 0
5, 123360, Note_on_c, 2, 63, 80
5, 123360, Note_on_c, 2, 75, 80
5, 123418, Note_on_c, 2, 75, 0
5, 123418, Note_on_c, 2, 63, 0
5, 123480, Note_on_c, 2, 60, 78
5, 123480, Note_on_c, 2, 72, 78
5, 123538, Note_on_c, 2, 72, 0
5, 123538, Note_on_c, 2, 60, 0
5, 123600, Note_on_c, 2, 80, 82
5, 123600, Note_on_c, 2, 92, 82
5, 123658, Note_on_c, 2, 92, 0
5, 123658, Note_on_c, 2, 80, 0
5, 123720, Note_on_c, 2, 75, 79
5, 123720, Note_on_c, 2, 87, 79
5, 123778, Note_on_c, 2, 87, 0
5, 123778, Note_on_c, 2, 75, 0
5, 123840, Note_on_c, 2, 72, 75
5, 123840, Note_on_c, 2, 84, 75
5, 123898, Note_on_c, 2, 84, 0
5, 123898, Note_on_c, 2, 72, 0
5, 123960, Note_on_c, 2, 68, 74
5, 123960, Note_on_c, 2, 80, 74
5, 124018, Note_on_c, 2, 80, 0
5, 124018, Note_on_c, 2, 68, 0
5, 124080, Note_on_c, 2, 63, 84
5, 124080, Note_on_c, 2, 75, 84
5, 124138, Note_on_c, 2, 75, 0
5, 124138, Note_on_c, 2, 63, 0
5, 124200, Note_on_c, 2, 60, 92
5, 124200, Note_on_c, 2, 80, 92
5, 124200, Note_on_c, 2, 92, 92
5, 124258, Note_on_c, 2, 92, 0
5, 124258, Note_on_c, 2, 80, 0
5, 124258, Note_on_c, 2, 60, 0
5, 124320, Note_on_c, 2, 75, 79
5, 124320, Note_on_c, 2, 87, 79
5, 124378, Note_on_c, 2, 87, 0
5, 124378, Note_on_c, 2, 75, 0
5, 124440, Note_on_c, 2, 72, 75
5, 124440, Note_on_c, 2, 84, 75
5, 124498, Note_on_c, 2, 84, 0
5, 124498, Note_on_c, 2, 72, 0
5, 124560, Note_on_c, 2, 68, 74
5, 124560, Note_on_c, 2, 80, 74
5, 124618, Note_on_c, 2, 80, 0
5, 124618, Note_on_c, 2, 68, 0
5, 124680, Note_on_c, 2, 75, 84
5, 124738, Note_on_c, 2, 75, 0
5, 124800, Note_on_c, 2, 79, 94
5, 124800, Note_on_c, 2, 91, 90
5, 124858, Note_on_c, 2, 91, 0
5, 124858, Note_on_c, 2, 79, 0
5, 124920, Note_on_c, 2, 75, 79
5, 124920, Note_on_c, 2, 87, 79
5, 124978, Note_on_c, 2, 87, 0
5, 124978, Note_on_c, 2, 75, 0
5, 125040, Note_on_c, 2, 70, 75
5, 125040, Note_on_c, 2, 82, 75
5, 125098, Note_on_c, 2, 82, 0
5, 125098, Note_on_c, 2, 70, 0
5, 125160, Note_on_c, 2, 67, 74
5, 125160, Note_on_c, 2, 79, 74
5, 125218, Note_on_c, 2, 79, 0
5, 125218, Note_on_c, 2, 67, 0
5, 125280, Note_on_c, 2, 63, 84
5, 125280, Note_on_c, 2, 75, 84
5, 125338, Note_on_c, 2, 75, 0
5, 125338, Note_on_c, 2, 63, 0
5, 125400, Note_on_c, 2, 58, 84
5, 125400, Note_on_c, 2, 70, 84
5, 125458, Note_on_c, 2, 70, 0
5, 125458, Note_on_c, 2, 58, 0
5, 125520, Note_on_c, 2, 79, 88
5, 125520, Note_on_c, 2, 91, 88
5, 125578, Note_on_c, 2, 91, 0
5, 125578, Note_on_c, 2, 79, 0
5, 125640, Note_on_c, 2, 70, 79
5, 125640, Note_on_c, 2, 82, 79
5, 125698, Note_on_c, 2, 82, 0
5, 125698, Note_on_c, 2, 70, 0
5, 125760, Note_on_c, 2, 67, 75
5, 125760, Note_on_c, 2, 79, 75
5, 125818, Note_on_c, 2, 79, 0
5, 125818, Note_on_c, 2, 67, 0
5, 125880, Note_on_c, 2, 62, 74
5, 125880, Note_on_c, 2, 74, 74
5, 125938, Note_on_c, 2, 74, 0
5, 125938, Note_on_c, 2, 62, 0
5, 126000, Note_on_c, 2, 58, 84
5, 126000, Note_on_c, 2, 70, 84
5, 126058, Note_on_c, 2, 70, 0
5, 126058, Note_on_c, 2, 58, 0
5, 126120, Note_on_c, 2, 79, 97
5, 126120, Note_on_c, 2, 91, 90
5, 126178, Note_on_c, 2, 91, 0
5, 126178, Note_on_c, 2, 79, 0
5, 126240, Note_on_c, 2, 74, 79
5, 126240, Note_on_c, 2, 86, 79
5, 126298, Note_on_c, 2, 86, 0
5, 126298, Note_on_c, 2, 74, 0
5, 126360, Note_on_c, 2, 70, 75
5, 126360, Note_on_c, 2, 82, 75
5, 126418, Note_on_c, 2, 82, 0
5, 126418, Note_on_c, 2, 70, 0
5, 126480, Note_on_c, 2, 67, 74
5, 126480, Note_on_c, 2, 79, 74
5, 126538, Note_on_c, 2, 79, 0
5, 126538, Note_on_c, 2, 67, 0
5, 126600, Note_on_c, 2, 62, 84
5, 126600, Note_on_c, 2, 74, 84
5, 126658, Note_on_c, 2, 74, 0
5, 126658, Note_on_c, 2, 62, 0
5, 126720, Note_on_c, 2, 79, 84
5, 126720, Note_on_c, 2, 91, 84
5, 126778, Note_on_c, 2, 91, 0
5, 126778, Note_on_c, 2, 79, 0
5, 126840, Note_on_c, 2, 75, 79
5, 126840, Note_on_c, 2, 87, 79
5, 126898, Note_on_c, 2, 87, 0
5, 126898, Note_on_c, 2, 75, 0
5, 126960, Note_on_c, 2, 72, 76
5, 126960, Note_on_c, 2, 84, 76
5, 127018, Note_on_c, 2, 84, 0
5, 127018, Note_on_c, 2, 72, 0
5, 127080, Note_on_c, 2, 67, 74
5, 127080, Note_on_c, 2, 79, 74
5, 127138, Note_on_c, 2, 79, 0
5, 127138, Note_on_c, 2, 67, 0
5, 127200, Note_on_c, 2, 63, 80
5, 127200, Note_on_c, 2, 75, 80
5, 127258, Note_on_c, 2, 75, 0
5, 127258, Note_on_c, 2, 63, 0
5, 127320, Note_on_c, 2, 60, 78
5, 127320, Note_on_c, 2, 72, 78
5, 127378, Note_on_c, 2, 72, 0
5, 127378, Note_on_c, 2, 60, 0
5, 127440, Note_on_c, 2, 80, 82
5, 127440, Note_on_c, 2, 92, 82
5, 127498, Note_on_c, 2, 92, 0
5, 127498, Note_on_c, 2, 80, 0
5, 127560, Note_on_c, 2, 75, 79
5, 127560, Note_on_c, 2, 87, 79
5, 127618, Note_on_c, 2, 87, 0
5, 127618, Note_on_c, 2, 75, 0
5, 127680, Note_on_c, 2, 72, 75
5, 127680, Note_on_c, 2, 84, 75
5, 127738, Note_on_c, 2, 84, 0
5, 127738, Note_on_c, 2, 72, 0
5, 127800, Note_on_c, 2, 68, 74
5, 127800, Note_on_c, 2, 80, 74
5, 127858, Note_on_c, 2, 80, 0
5, 127858, Note_on_c, 2, 68, 0
5, 127920, Note_on_c, 2, 63, 84
5, 127920, Note_on_c, 2, 75, 84
5, 127978, Note_on_c, 2, 75, 0
5, 127978, Note_on_c, 2, 63, 0
5, 128040, Note_on_c, 2, 60, 92
5, 128040, Note_on_c, 2, 80, 92
5, 128040, Note_on_c, 2, 92, 92
5, 128098, Note_on_c, 2, 92, 0
5, 128098, Note_on_c, 2, 80, 0
5, 128098, Note_on_c, 2, 60, 0
5, 128160, Note_on_c, 2, 75, 79
5, 128160, Note_on_c, 2, 87, 79
5, 128218, Note_on_c, 2, 87, 0
5, 128218, Note_on_c, 2, 75, 0
5, 128280, Note_on_c, 2, 72, 75
5, 128280, Note_on_c, 2, 84, 75
5, 128338, Note_on_c, 2, 84, 0
5, 128338, Note_on_c, 2, 72, 0
5, 128400, Note_on_c, 2, 68, 74
5, 128400, Note_on_c, 2, 80, 74
5, 128458, Note_on_c, 2, 80, 0
5, 128458, Note_on_c, 2, 68, 0
5, 128520, Note_on_c, 2, 75, 84
5, 128578, Note_on_c, 2, 75, 0
5, 128640, Note_on_c, 2, 79, 94
5, 128640, Note_on_c, 2, 91, 90
5, 128698, Note_on_c, 2, 91, 0
5, 128698, Note_on_c, 2, 79, 0
5, 128760, Note_on_c, 2, 75, 79
5, 128760, Note_on_c, 2, 87, 79
5, 128818, Note_on_c, 2, 87, 0
5, 128818, Note_on_c, 2, 75, 0
5, 128880, Note_on_c, 2, 70, 75
5, 128880, Note_on_c, 2, 82, 75
5, 128938, Note_on_c, 2, 82, 0
5, 128938, Note_on_c, 2, 70, 0
5, 129000, Note_on_c, 2, 67, 74
5, 129000, Note_on_c, 2, 79, 74
5, 129058, Note_on_c, 2, 79, 0
5, 129058, Note_on_c, 2, 67, 0
5, 129120, Note_on_c, 2, 63, 84
5, 129120, Note_on_c, 2, 75, 84
5, 129178, Note_on_c, 2, 75, 0
5, 129178, Note_on_c, 2, 63, 0
5, 129240, Note_on_c, 2, 58, 84
5, 129240, Note_on_c, 2, 70, 84
5, 129298, Note_on_c, 2, 70, 0
5, 129298, Note_on_c, 2, 58, 0
5, 129360, Note_on_c, 2, 79, 88
5, 129360, Note_on_c, 2, 91, 88
5, 129418, Note_on_c, 2, 91, 0
5, 129418, Note_on_c, 2, 79, 0
5, 129480, Note_on_c, 2, 70, 79
5, 129480, Note_on_c, 2, 82, 79
5, 129538, Note_on_c, 2, 82, 0
5, 129538, Note_on_c, 2, 70, 0
5, 129600, Note_on_c, 2, 67, 75
5, 129600, Note_on_c, 2, 79, 75
5, 129658, Note_on_c, 2, 79, 0
5, 129658, Note_on_c, 2, 67, 0
5, 129720, Note_on_c, 2, 62, 74
5, 129720, Note_on_c, 2, 74, 74
5, 129778, Note_on_c, 2, 74, 0
5, 129778, Note_on_c, 2, 62, 0
5, 129840, Note_on_c, 2, 58, 84
5, 129840, Note_on_c, 2, 70, 84
5, 129898, Note_on_c, 2, 70, 0
5, 129898, Note_on_c, 2, 58, 0
5, 129960, Note_on_c, 2, 79, 97
5, 129960, Note_on_c, 2, 91, 90
5, 130018, Note_on_c, 2, 91, 0
5, 130018, Note_on_c, 2, 79, 0
5, 130080, Note_on_c, 2, 74, 79
5, 130080, Note_on_c, 2, 86, 79
5, 130138, Note_on_c, 2, 86, 0
5, 130138, Note_on_c, 2, 74, 0
5, 130200, Note_on_c, 2, 70, 75
5, 130200, Note_on_c, 2, 82, 75
5, 130258, Note_on_c, 2, 82, 0
5, 130258, Note_on_c, 2, 70, 0
5, 130320, Note_on_c, 2, 67, 74
5, 130320, Note_on_c, 2, 79, 74
5, 130378, Note_on_c, 2, 79, 0
5, 130378, Note_on_c, 2, 67, 0
5, 130440, Note_on_c, 2, 62, 84
5, 130440, Note_on_c, 2, 74, 84
5, 130498, Note_on_c, 2, 74, 0
5, 130498, Note_on_c, 2, 62, 0
5, 130560, Note_on_c, 2, 79, 84
5, 130560, Note_on_c, 2, 91, 84
5, 130618, Note_on_c, 2, 91, 0
5, 130618, Note_on_c, 2, 79, 0
5, 130680, Note_on_c, 2, 75, 79
5, 130680, Note_on_c, 2, 87, 79
5, 130738, Note_on_c, 2, 87, 0
5, 130738, Note_on_c, 2, 75, 0
5, 130800, Note_on_c, 2, 72, 76
5, 130800, Note_on_c, 2, 84, 76
5, 130858, Note_on_c, 2, 84, 0
5, 130858, Note_on_c, 2, 72, 0
5, 130920, Note_on_c, 2, 67, 74
5, 130920, Note_on_c, 2, 79, 74
5, 130978, Note_on_c, 2, 79, 0
5, 130978, Note_on_c, 2, 67, 0
5, 131040, Note_on_c, 2, 63, 80
5, 131040, Note_on_c, 2, 75, 80
5, 131098, Note_on_c, 2, 75, 0
5, 131098, Note_on_c, 2, 63, 0
5, 131160, Note_on_c, 2, 60, 78
5, 131160, Note_on_c, 2, 72, 78
5, 131218, Note_on_c, 2, 72, 0
5, 131218, Note_on_c, 2, 60, 0
5, 131280, Note_on_c, 2, 80, 82
5, 131280, Note_on_c, 2, 92, 82
5, 131338, Note_on_c, 2, 92, 0
5, 131338, Note_on_c, 2, 80, 0
5, 131400, Note_on_c, 2, 75, 79
5, 131400, Note_on_c, 2, 87, 79
5, 131458, Note_on_c, 2, 87, 0
5, 131458, Note_on_c, 2, 75, 0
5, 131520, Note_on_c, 2, 72, 75
5, 131520, Note_on_c, 2, 84, 75
5, 131578, Note_on_c, 2, 84, 0
5, 131578, Note_on_c, 2, 72, 0
5, 131640, Note_on_c, 2, 68, 74
5, 131640, Note_on_c, 2, 80, 74
5, 131698, Note_on_c, 2, 80, 0
5, 131698, Note_on_c, 2, 68, 0
5, 131760, Note_on_c, 2, 63, 84
5, 131760, Note_on_c, 2, 75, 84
5, 131818, Note_on_c, 2, 75, 0
5, 131818, Note_on_c, 2, 63, 0
5, 131880, Note_on_c, 2, 60, 92
5, 131880, Note_on_c, 2, 80, 92
5, 131880, Note_on_c, 2, 92, 92
5, 131938, Note_on_c, 2, 92, 0
5, 131938, Note_on_c, 2, 80, 0
5, 131938, Note_on_c, 2, 60, 0
5, 132000, Note_on_c, 2, 75, 79
5, 132000, Note_on_c, 2, 87, 79
5, 132058, Note_on_c, 2, 87, 0
5, 132058, Note_on_c, 2, 75, 0
5, 132120, Note_on_c, 2, 72, 75
5, 132120, Note_on_c, 2, 84, 75
5, 132178, Note_on_c, 2, 84, 0
5, 132178, Note_on_c, 2, 72, 0
5, 132240, Note_on_c, 2, 68, 74
5, 132240, Note_on_c, 2, 80, 74
5, 132298, Note_on_c, 2, 80, 0
5, 132298, Note_on_c, 2, 68, 0
5, 132360, Note_on_c, 2, 75, 84
5, 132418, Note_on_c, 2, 75, 0
5, 132480, Note_on_c, 2, 79, 94
5, 132480, Note_on_c, 2, 91, 90
5, 132538, Note_on_c, 2, 91, 0
5, 132538, Note_on_c, 2, 79, 0
5, 132600, Note_on_c, 2, 75, 79
5, 132600, Note_on_c, 2, 87, 79
5, 132658, Note_on_c, 2, 87, 0
5, 132658, Note_on_c, 2, 75, 0
5, 132720, Note_on_c, 2, 70, 75
5, 132720, Note_on_c, 2, 82, 75
5, 132778, Note_on_c, 2, 82, 0
5, 132778, Note_on_c, 2, 70, 0
5, 132840, Note_on_c, 2, 67, 74
5, 132840, Note_on_c, 2, 79, 74
5, 132898, Note_on_c, 2, 79, 0
5, 132898, Note_on_c, 2, 67, 0
5, 132960, Note_on_c, 2, 63, 84
5, 132960, Note_on_c, 2, 75, 84
5, 133018, Note_on_c, 2, 75, 0
5, 133018, Note_on_c, 2, 63, 0
5, 133080, Note_on_c, 2, 58, 84
5, 133080, Note_on_c, 2, 70, 84
5, 133138, Note_on_c, 2, 70, 0
5, 133138, Note_on_c, 2, 58, 0
5, 133200, Note_on_c, 2, 79, 88
5, 133200, Note_on_c, 2, 91, 88
5, 133258, Note_on_c, 2, 91, 0
5, 133258, Note_on_c, 2, 79, 0
5, 133320, Note_on_c, 2, 70, 79
5, 133320, Note_on_c, 2, 82, 79
5, 133378, Note_on_c, 2, 82, 0
5, 133378, Note_on_c, 2, 70, 0
5, 133440, Note_on_c, 2, 67, 75
5, 133440, Note_on_c, 2, 79, 75
5, 133498, Note_on_c, 2, 79, 0
5, 133498, Note_on_c, 2, 67, 0
5, 133560, Note_on_c, 2, 62, 74
5, 133560, Note_on_c, 2, 74, 74
5, 133618, Note_on_c, 2, 74, 0
5, 133618, Note_on_c, 2, 62, 0
5, 133680, Note_on_c, 2, 58, 84
5, 133680, Note_on_c, 2, 70, 84
5, 133738, Note_on_c, 2, 70, 0
5, 133738, Note_on_c, 2, 58, 0
5, 133800, Note_on_c, 2, 79, 97
5, 133800, Note_on_c, 2, 91, 90
5, 133858, Note_on_c, 2, 91, 0
5, 133858, Note_on_c, 2, 79, 0
5, 133920, Note_on_c, 2, 74, 79
5, 133920, Note_on_c, 2, 86, 79
5, 133978, Note_on_c, 2, 86, 0
5, 133978, Note_on_c, 2, 74, 0
5, 134040, Note_on_c, 2, 70, 75
5, 134040, Note_on_c, 2, 82, 75
5, 134098, Note_on_c, 2, 82, 0
5, 134098, Note_on_c, 2, 70, 0
5, 134160, Note_on_c, 2, 67, 74
5, 134160, Note_on_c, 2, 79, 74
5, 134218, Note_on_c, 2, 79, 0
5, 134218, Note_on_c, 2, 67, 0
5, 134280, Note_on_c, 2, 62, 84
5, 134280, Note_on_c, 2, 74, 84
5, 134338, Note_on_c, 2, 74, 0
5, 134338, Note_on_c, 2, 62, 0
5, 134400, Note_on_c, 2, 79, 74
5, 134458, Note_on_c, 2, 79, 0
5, 134520, Note_on_c, 2, 75, 69
5, 134578, Note_on_c, 2, 75, 0
5, 134640, Note_on_c, 2, 72, 66
5, 134698, Note_on_c, 2, 72, 0
5, 134760, Note_on_c, 2, 67, 64
5, 134818, Note_on_c, 2, 67, 0
5, 134880, Note_on_c, 2, 63, 70
5, 134938, Note_on_c, 2, 63, 0
5, 135000, Note_on_c, 2, 60, 68
5, 135058, Note_on_c, 2, 60, 0
5, 135120, Note_on_c, 2, 79, 72
5, 135178, Note_on_c, 2, 79, 0
5, 135240, Note_on_c, 2, 75, 69
5, 135298, Note_on_c, 2, 75, 0
5, 135360, Note_on_c, 2, 72, 65
5, 135418, Note_on_c, 2, 72, 0
5, 135480, Note_on_c, 2, 67, 64
5, 135538, Note_on_c, 2, 67, 0
5, 135600, Note_on_c, 2, 63, 74
5, 135658, Note_on_c, 2, 63, 0
5, 135720, Note_on_c, 2, 60, 82
5, 135778, Note_on_c, 2, 60, 0
5, 135840, Note_on_c, 2, 79, 72
5, 135898, Note_on_c, 2, 79, 0
5, 135960, Note_on_c, 2, 75, 69
5, 136018, Note_on_c, 2, 75, 0
5, 136080, Note_on_c, 2, 72, 65
5, 136138, Note_on_c, 2, 72, 0
5, 136200, Note_on_c, 2, 67, 64
5, 136258, Note_on_c, 2, 67, 0
5, 136320, Note_on_c, 2, 63, 74
5, 136378, Note_on_c, 2, 63, 0
5, 136440, Note_on_c, 2, 79, 72
5, 136498, Note_on_c, 2, 79, 0
5, 136560, Note_on_c, 2, 80, 74
5, 136618, Note_on_c, 2, 80, 0
5, 136680, Note_on_c, 2, 75, 69
5, 136738, Note_on_c, 2, 75, 0
5, 136800, Note_on_c, 2, 72, 66
5, 136858, Note_on_c, 2, 72, 0
5, 136920, Note_on_c, 2, 68, 64
5, 136978, Note_on_c, 2, 68, 0
5, 137040, Note_on_c, 2, 63, 70
5, 137098, Note_on_c, 2, 63, 0
5, 137160, Note_on_c, 2, 60, 68
5, 137218, Note_on_c, 2, 60, 0
5, 137280, Note_on_c, 2, 80, 72
5, 137338, Note_on_c, 2, 80, 0
5, 137400, Note_on_c, 2, 75, 69
5, 137458, Note_on_c, 2, 75, 0
5, 137520, Note_on_c, 2, 72, 65
5, 137578, Note_on_c, 2, 72, 0
5, 137640, Note_on_c, 2, 68, 64
5, 137698, Note_on_c, 2, 68, 0
5, 137760, Note_on_c, 2, 63, 74
5, 137818, Note_on_c, 2, 63, 0
5, 137880, Note_on_c, 2, 60, 82
5, 137938, Note_on_c, 2, 60, 0
5, 138000, Note_on_c, 2, 80, 72
5, 138058, Note_on_c, 2, 80, 0
5, 138120, Note_on_c, 2, 75, 69
5, 138178, Note_on_c, 2, 75, 0
5, 138240, Note_on_c, 2, 79, 74
5, 138298, Note_on_c, 2, 79, 0
5, 138360, Note_on_c, 2, 75, 69
5, 138418, Note_on_c, 2, 75, 0
5, 138480, Note_on_c, 2, 70, 66
5, 138538, Note_on_c, 2, 70, 0
5, 138600, Note_on_c, 2, 67, 64
5, 138658, Note_on_c, 2, 67, 0
5, 138720, Note_on_c, 2, 62, 70
5, 138778, Note_on_c, 2, 62, 0
5, 138840, Note_on_c, 2, 58, 68
5, 138898, Note_on_c, 2, 58, 0
5, 138960, Note_on_c, 2, 79, 72
5, 139018, Note_on_c, 2, 79, 0
5, 139080, Note_on_c, 2, 75, 69
5, 139138, Note_on_c, 2, 75, 0
5, 139200, Note_on_c, 2, 70, 65
5, 139258, Note_on_c, 2, 70, 0
5, 139320, Note_on_c, 2, 67, 64
5, 139378, Note_on_c, 2, 67, 0
5, 139440, Note_on_c, 2, 62, 74
5, 139498, Note_on_c, 2, 62, 0
5, 139560, Note_on_c, 2, 58, 82
5, 139618, Note_on_c, 2, 58, 0
5, 139680, Note_on_c, 2, 79, 72
5, 139738, Note_on_c, 2, 79, 0
5, 139800, Note_on_c, 2, 75, 69
5, 139858, Note_on_c, 2, 75, 0
5, 139920, Note_on_c, 2, 70, 65
5, 139978, Note_on_c, 2, 70, 0
5, 140040, Note_on_c, 2, 67, 64
5, 140098, Note_on_c, 2, 67, 0
5, 140160, Note_on_c, 2, 79, 74
5, 140218, Note_on_c, 2, 79, 0
5, 140280, Note_on_c, 2, 74, 69
5, 140338, Note_on_c, 2, 74, 0
5, 140400, Note_on_c, 2, 70, 66
5, 140458, Note_on_c, 2, 70, 0
5, 140520, Note_on_c, 2, 67, 64
5, 140578, Note_on_c, 2, 67, 0
5, 140640, Note_on_c, 2, 62, 70
5, 140698, Note_on_c, 2, 62, 0
5, 140760, Note_on_c, 2, 58, 68
5, 140818, Note_on_c, 2, 58, 0
5, 140880, Note_on_c, 2, 79, 72
5, 140938, Note_on_c, 2, 79, 0
5, 141000, Note_on_c, 2, 74, 69
5, 141058, Note_on_c, 2, 74, 0
5, 141120, Note_on_c, 2, 70, 65
5, 141178, Note_on_c, 2, 70, 0
5, 141240, Note_on_c, 2, 67, 64
5, 141298, Note_on_c, 2, 67, 0
5, 141360, Note_on_c, 2, 62, 74
5, 141418, Note_on_c, 2, 62, 0
5, 141480, Note_on_c, 2, 58, 82
5, 141538, Note_on_c, 2, 58, 0
5, 141600, Note_on_c, 2, 79, 72
5, 141658, Note_on_c, 2, 79, 0
5, 141720, Note_on_c, 2, 74, 69
5, 141778, Note_on_c, 2, 74, 0
5, 141840, Note_on_c, 2, 70, 65
5, 141898, Note_on_c, 2, 70, 0
5, 141960, Note_on_c, 2, 67, 64
5, 142018, Note_on_c, 2, 67, 0
5, 142080, Note_on_c, 2, 79, 74
5, 142138, Note_on_c, 2, 79, 0
5, 142200, Note_on_c, 2, 75, 69
5, 142258, Note_on_c, 2, 75, 0
5, 142320, Note_on_c, 2, 72, 66
5, 142378, Note_on_c, 2, 72, 0
5, 142440, Note_on_c, 2, 67, 64
5, 142498, Note_on_c, 2, 67, 0
5, 142560, Note_on_c, 2, 63, 70
5, 142618, Note_on_c, 2, 63, 0
5, 142680, Note_on_c, 2, 60, 68
5, 142738, Note_on_c, 2, 60, 0
5, 142800, Note_on_c, 2, 79, 72
5, 142858, Note_on_c, 2, 79, 0
5, 142920, Note_on_c, 2, 75, 69
5, 142978, Note_on_c, 2, 75, 0
5, 143040, Note_on_c, 2, 72, 65
5, 143098, Note_on_c, 2, 72, 0
5, 143160, Note_on_c, 2, 67, 64
5, 143218, Note_on_c, 2, 67, 0
5, 143280, Note_on_c, 2, 63, 74
5, 143338, Note_on_c, 2, 63, 0
5, 143400, Note_on_c, 2, 60, 82
5, 143458, Note_on_c, 2, 60, 0
5, 143520, Note_on_c, 2, 79, 72
5, 143578, Note_on_c, 2, 79, 0
5, 143640, Note_on_c, 2, 75, 69
5, 143698, Note_on_c, 2, 75, 0
5, 143760, Note_on_c, 2, 72, 65
5, 143818, Note_on_c, 2, 72, 0
5, 143880, Note_on_c, 2, 67, 64
5, 143938, Note_on_c, 2, 67, 0
5, 144000, Note_on_c, 2, 63, 74
5, 144058, Note_on_c, 2, 63, 0
5, 144120, Note_on_c, 2, 79, 72
5, 144178, Note_on_c, 2, 79, 0
5, 144240, Note_on_c, 2, 80, 74
5, 144298, Note_on_c, 2, 80, 0
5, 144360, Note_on_c, 2, 75, 69
5, 144418, Note_on_c, 2, 75, 0
5, 144480, Note_on_c, 2, 72, 66
5, 144538, Note_on_c, 2, 72, 0
5, 144600, Note_on_c, 2, 68, 64
5, 144658, Note_on_c, 2, 68, 0
5, 144720, Note_on_c, 2, 63, 70
5, 144778, Note_on_c, 2, 63, 0
5, 144840, Note_on_c, 2, 60, 68
5, 144898, Note_on_c, 2, 60, 0
5, 144960, Note_on_c, 2, 80, 72
5, 145018, Note_on_c, 2, 80, 0
5, 145080, Note_on_c, 2, 75, 69
5, 145138, Note_on_c, 2, 75, 0
5, 145200, Note_on_c, 2, 72, 65
5, 145258, Note_on_c, 2, 72, 0
5, 145320, Note_on_c, 2, 68, 64
5, 145378, Note_on_c, 2, 68, 0
5, 145440, Note_on_c, 2, 63, 74
5, 145498, Note_on_c, 2, 63, 0
5, 145560, Note_on_c, 2, 60, 82
5, 145618, Note_on_c, 2, 60, 0
5, 145680, Note_on_c, 2, 80, 72
5, 145738, Note_on_c, 2, 80, 0
5, 145800, Note_on_c, 2, 75, 69
5, 145858, Note_on_c, 2, 75, 0
5, 145920, Note_on_c, 2, 79, 74
5, 145978, Note_on_c, 2, 79, 0
5, 146040, Note_on_c, 2, 75, 69
5, 146098, Note_on_c, 2, 75, 0
5, 146160, Note_on_c, 2, 70, 66
5, 146218, Note_on_c, 2, 70, 0
5, 146280, Note_on_c, 2, 67, 64
5, 146338, Note_on_c, 2, 67, 0
5, 146400, Note_on_c, 2, 62, 70
5, 146458, Note_on_c, 2, 62, 0
5, 146520, Note_on_c, 2, 58, 68
5, 146578, Note_on_c, 2, 58, 0
5, 146640, Note_on_c, 2, 79, 72
5, 146698, Note_on_c, 2, 79, 0
5, 146760, Note_on_c, 2, 75, 69
5, 146818, Note_on_c, 2, 75, 0
5, 146880, Note_on_c, 2, 70, 65
5, 146938, Note_on_c, 2, 70, 0
5, 147000, Note_on_c, 2, 67, 64
5, 147058, Note_on_c, 2, 67, 0
5, 147120, Note_on_c, 2, 62, 74
5, 147178, Note_on_c, 2, 62, 0
5, 147240, Note_on_c, 2, 58, 82
5, 147298, Note_on_c, 2, 58, 0
5, 147360, Note_on_c, 2, 79, 72
5, 147418, Note_on_c, 2, 79, 0
5, 147480, Note_on_c, 2, 75, 69
5, 147538, Note_on_c, 2, 75, 0
5, 147600, Note_on_c, 2, 70, 65
5, 147658, Note_on_c, 2, 70, 0
5, 147720, Note_on_c, 2, 67, 64
5, 147778, Note_on_c, 2, 67, 0
5, 147840, Note_on_c, 2, 79, 74
5, 147898, Note_on_c, 2, 79, 0
5, 147960, Note_on_c, 2, 74, 69
5, 148018, Note_on_c, 2, 74, 0
5, 148080, Note_on_c, 2, 70, 66
5, 148138, Note_on_c, 2, 70, 0
5, 148200, Note_on_c, 2, 67, 64
5, 148258, Note_on_c, 2, 67, 0
5, 148320, Note_on_c, 2, 62, 70
5, 148378, Note_on_c, 2, 62, 0
5, 148440, Note_on_c, 2, 58, 68
5, 148498, Note_on_c, 2, 58, 0
5, 148560, Note_on_c, 2, 79, 72
5, 148618, Note_on_c, 2, 79, 0
5, 148680, Note_on_c, 2, 74, 69
5, 148738, Note_on_c, 2, 74, 0
5, 148800, Note_on_c, 2, 70, 65
5, 148858, Note_on_c, 2, 70, 0
5, 148920, Note_on_c, 2, 67, 64
5, 148978, Note_on_c, 2, 67, 0
5, 149040, Note_on_c, 2, 62, 74
5, 149098, Note_on_c, 2, 62, 0
5, 149160, Note_on_c, 2, 58, 82
5, 149218, Note_on_c, 2, 58, 0
5, 149280, Note_on_c, 2, 79, 72
5, 149338, Note_on_c, 2, 79, 0
5, 149400, Note_on_c, 2, 74, 69
5, 149458, Note_on_c, 2, 74, 0
5, 149520, Note_on_c, 2, 70, 65
5, 149578, Note_on_c, 2, 70, 0
5, 149640, Note_on_c, 2, 67, 64
5, 149698, Note_on_c, 2, 67, 0
5, 149760, Note_on_c, 2, 79, 84
5, 149760, Note_on_c, 2, 91, 84
5, 149818, Note_on_c, 2, 91, 0
5, 149818, Note_on_c, 2, 79, 0
5, 149880, Note_on_c, 2, 75, 79
5, 149880, Note_on_c, 2, 87, 79
5, 149938, Note_on_c, 2, 87, 0
5, 149938, Note_on_c, 2, 75, 0
5, 150000, Note_on_c, 2, 72, 76
5, 150000, Note_on_c, 2, 84, 76
5, 150058, Note_on_c, 2, 84, 0
5, 150058, Note_on_c, 2, 72, 0
5, 150120, Note_on_c, 2, 67, 74
5, 150120, Note_on_c, 2, 79, 74
5, 150178, Note_on_c, 2, 79, 0
5, 150178, Note_on_c, 2, 67, 0
5, 150240, Note_on_c, 2, 63, 80
5, 150240, Note_on_c, 2, 75, 80
5, 150298, Note_on_c, 2, 75, 0
5, 150298, Note_on_c, 2, 63, 0
5, 150360, Note_on_c, 2, 60, 78
5, 150360, Note_on_c, 2, 72, 78
5, 150418, Note_on_c, 2, 72, 0
5, 150418, Note_on_c, 2, 60, 0
5, 150480, Note_on_c, 2, 80, 82
5, 150480, Note_on_c, 2, 92, 82
5, 150538, Note_on_c, 2, 92, 0
5, 150538, Note_on_c, 2, 80, 0
5, 150600, Note_on_c, 2, 75, 79
5, 150600, Note_on_c, 2, 87, 79
5, 150658, Note_on_c, 2, 87, 0
5, 150658, Note_on_c, 2, 75, 0
5, 150720, Note_on_c, 2, 72, 75
5, 150720, Note_on_c, 2, 84, 75
5, 150778, Note_on_c, 2, 84, 0
5, 150778, Note_on_c, 2, 72, 0
5, 150840, Note_on_c, 2, 68, 74
5, 150840, Note_on_c, 2, 80, 74
5, 150898, Note_on_c, 2, 80, 0
5, 150898, Note_on_c, 2, 68, 0
5, 150960, Note_on_c, 2, 63, 84
5, 150960, Note_on_c, 2, 75, 84
5, 151018, Note_on_c, 2, 75, 0
5, 151018, Note_on_c, 2, 63, 0
5, 151080, Note_on_c, 2, 60, 92
5, 151080, Note_on_c, 2, 80, 92
5, 151080, Note_on_c, 2, 92, 92
5, 151138, Note_on_c, 2, 92, 0
5, 151138, Note_on_c, 2, 80, 0
5, 151138, Note_on_c, 2, 60, 0
5, 151200, Note_on_c, 2, 75, 79
5, 151200, Note_on_c, 2, 87, 79
5, 151258, Note_on_c, 2, 87, 0
5, 151258, Note_on_c, 2, 75, 0
5, 151320, Note_on_c, 2, 72, 75
5, 151320, Note_on_c, 2, 84, 75
5, 151378, Note_on_c, 2, 84, 0
5, 151378, Note_on_c, 2, 72, 0
5, 151440, Note_on_c, 2, 68, 74
5, 151440, Note_on_c, 2, 80, 74
5, 151498, Note_on_c, 2, 80, 0
5, 151498, Note_on_c, 2, 68, 0
5, 151560, Note_on_c, 2, 75, 84
5, 151618, Note_on_c, 2, 75, 0
5, 151680, Note_on_c, 2, 79, 94
5, 151680, Note_on_c, 2, 91, 90
5, 151738, Note_on_c, 2, 91, 0
5, 151738, Note_on_c, 2, 79, 0
5, 151800, Note_on_c, 2, 75, 79
5, 151800, Note_on_c, 2, 87, 79
5, 151858, Note_on_c, 2, 87, 0
5, 151858, Note_on_c, 2, 75, 0
5, 151920, Note_on_c, 2, 70, 75
5, 151920, Note_on_c, 2, 82, 75
5, 151978, Note_on_c, 2, 82, 0
5, 151978, Note_on_c, 2, 70, 0
5, 152040, Note_on_c, 2, 67, 74
5, 152040, Note_on_c, 2, 79, 74
5, 152098, Note_on_c, 2, 79, 0
5, 152098, Note_on_c, 2, 67, 0
5, 152160, Note_on_c, 2, 63, 84
5, 152160, Note_on_c, 2, 75, 84
5, 152218, Note_on_c, 2, 75, 0
5, 152218, Note_on_c, 2, 63, 0
5, 152280, Note_on_c, 2, 58, 84
5, 152280, Note_on_c, 2, 70, 84
5, 152338, Note_on_c, 2, 70, 0
5, 152338, Note_on_c, 2, 58, 0
5, 152400, Note_on_c, 2, 79, 88
5, 152400, Note_on_c, 2, 91, 88
5, 152458, Note_on_c, 2, 91, 0
5, 152458, Note_on_c, 2, 79, 0
5, 152520, Note_on_c, 2, 70, 79
5, 152520, Note_on_c, 2, 82, 79
5, 152578, Note_on_c, 2, 82, 0
5, 152578, Note_on_c, 2, 70, 0
5, 152640, Note_on_c, 2, 67, 75
5, 152640, Note_on_c, 2, 79, 75
5, 152698, Note_on_c, 2, 79, 0
5, 152698, Note_on_c, 2, 67, 0
5, 152760, Note_on_c, 2, 62, 74
5, 152760, Note_on_c, 2, 74, 74
5, 152818, Note_on_c, 2, 74, 0
5, 152818, Note_on_c, 2, 62, 0
5, 152880, Note_on_c, 2, 58, 84
5, 152880, Note_on_c, 2, 70, 84
5, 152938, Note_on_c, 2, 70, 0
5, 152938, Note_on_c, 2, 58, 0
5, 153000, Note_on_c, 2, 79, 97
5, 153000, Note_on_c, 2, 91, 90
5, 153058, Note_on_c, 2, 91, 0
5, 153058, Note_on_c, 2, 79, 0
5, 153120, Note_on_c, 2, 74, 79
5, 153120, Note_on_c, 2, 86, 79
5, 153178, Note_on_c, 2, 86, 0
5, 153178, Note_on_c, 2, 74, 0
5, 153240, Note_on_c, 2, 70, 75
5, 153240, Note_on_c, 2, 82, 75
5, 153298, Note_on_c, 2, 82, 0
5, 153298, Note_on_c, 2, 70, 0
5, 153360, Note_on_c, 2, 67, 74
5, 153360, Note_on_c, 2, 79, 74
5, 153418, Note_on_c, 2, 79, 0
5, 153418, Note_on_c, 2, 67, 0
5, 153480, Note_on_c, 2, 62, 84
5, 153480, Note_on_c, 2, 74, 84
5, 153538, Note_on_c, 2, 74, 0
5, 153538, Note_on_c, 2, 62, 0
5, 153600, Note_on_c, 2, 79, 84
5, 153600, Note_on_c, 2, 91, 84
5, 153658, Note_on_c, 2, 91, 0
5, 153658, Note_on_c, 2, 79, 0
5, 153720, Note_on_c, 2, 75, 79
5, 153720, Note_on_c, 2, 87, 79
5, 153778, Note_on_c, 2, 87, 0
5, 153778, Note_on_c, 2, 75, 0
5, 153840, Note_on_c, 2, 72, 76
5, 153840, Note_on_c, 2, 84, 76
5, 153898, Note_on_c, 2, 84, 0
5, 153898, Note_on_c, 2, 72, 0
5, 153960, Note_on_c, 2, 67, 74
5, 153960, Note_on_c, 2, 79, 74
5, 154018, Note_on_c, 2, 79, 0
5, 154018, Note_on_c, 2, 67, 0
5, 154080, Note_on_c, 2, 63, 80
5, 154080, Note_on_c, 2, 75, 80
5, 154138, Note_on_c, 2, 75, 0
5, 154138, Note_on_c, 2, 63, 0
5, 154200, Note_on_c, 2, 60, 78
5, 154200, Note_on_c, 2, 72, 78
5, 154258, Note_on_c, 2, 72, 0
5, 154258, Note_on_c, 2, 60, 0
5, 154320, Note_on_c, 2, 80, 82
5, 154320, Note_on_c, 2, 92, 82
5, 154378, Note_on_c, 2, 92, 0
5, 154378, Note_on_c, 2, 80, 0
5, 154440, Note_on_c, 2, 75, 79
5, 154440, Note_on_c, 2, 87, 79
5, 154498, Note_on_c, 2, 87, 0
5, 154498, Note_on_c, 2, 75, 0
5, 154560, Note_on_c, 2, 72, 75
5, 154560, Note_on_c, 2, 84, 75
5, 154618, Note_on_c, 2, 84, 0
5, 154618, Note_on_c, 2, 72, 0
5, 154680, Note_on_c, 2, 68, 74
5, 154680, Note_on_c, 2, 80, 74
5, 154738, Note_on_c, 2, 80, 0
5, 154738, Note_on_c, 2, 68, 0
5, 154800, Note_on_c, 2, 63, 84
5, 154800, Note_on_c, 2, 75, 84
5, 154858, Note_on_c, 2, 75, 0
5, 154858, Note_on_c, 2, 63, 0
5, 154920, Note_on_c, 2, 60, 92
5, 154920, Note_on_c, 2, 80, 92
5, 154920, Note_on_c, 2, 92, 92
5, 154978, Note_on_c, 2, 92, 0
5, 154978, Note_on_c, 2, 80, 0
5, 154978, Note_on_c, 2, 60, 0
5, 155040, Note_on_c, 2, 75, 79
5, 155040, Note_on_c, 2, 87, 79
5, 155098, Note_on_c, 2, 87, 0
5, 155098, Note_on_c, 2, 75, 0
5, 155160, Note_on_c, 2, 72, 75
5, 155160, Note_on_c, 2, 84, 75
5, 155218, Note_on_c, 2, 84, 0
5, 155218, Note_on_c, 2, 72, 0
5, 155280, Note_on_c, 2, 68, 74
5, 155280, Note_on_c, 2, 80, 74
5, 155338, Note_on_c, 2, 80, 0
5, 155338, Note_on_c, 2, 68, 0
5, 155400, Note_on_c, 2, 75, 84
5, 155458, Note_on_c, 2, 75, 0
5, 155520, Note_on_c, 2, 79, 94
5, 155520, Note_on_c, 2, 91, 90
5, 155578, Note_on_c, 2, 91, 0
5, 155578, Note_on_c, 2, 79, 0
5, 155640, Note_on_c, 2, 75, 79
5, 155640, Note_on_c, 2, 87, 79
5, 155698, Note_on_c, 2, 87, 0
5, 155698, Note_on_c, 2, 75, 0
5, 155760, Note_on_c, 2, 70, 75
5, 155760, Note_on_c, 2, 82, 75
5, 155818, Note_on_c, 2, 82, 0
5, 155818, Note_on_c, 2, 70, 0
5, 155880, Note_on_c, 2, 67, 74
5, 155880, Note_on_c, 2, 79, 74
5, 155938, Note_on_c, 2, 79, 0
5, 155938, Note_on_c, 2, 67, 0
5, 156000, Note_on_c, 2, 63, 84
5, 156000, Note_on_c, 2, 75, 84
5, 156058, Note_on_c, 2, 75, 0
5, 156058, Note_on_c, 2, 63, 0
5, 156120, Note_on_c, 2, 58, 84
5, 156120, Note_on_c, 2, 70, 84
5, 156178, Note_on_c, 2, 70, 0
5, 156178, Note_on_c, 2, 58, 0
5, 156240, Note_on_c, 2, 79, 88
5, 156240, Note_on_c, 2, 91, 88
5, 156298, Note_on_c, 2, 91, 0
5, 156298, Note_on_c, 2, 79, 0
5, 156360, Note_on_c, 2, 70, 79
5, 156360, Note_on_c, 2, 82, 79
5, 156418, Note_on_c, 2, 82, 0
5, 156418, Note_on_c, 2, 70, 0
5, 156480, Note_on_c, 2, 67, 75
5, 156480, Note_on_c, 2, 79, 75
5, 156538, Note_on_c, 2, 79, 0
5, 156538, Note_on_c, 2, 67, 0
5, 156600, Note_on_c, 2, 62, 74
5, 156600, Note_on_c, 2, 74, 74
5, 156658, Note_on_c, 2, 74, 0
5, 156658, Note_on_c, 2, 62, 0
5, 156720, Note_on_c, 2, 58, 84
5, 156720, Note_on_c, 2, 70, 84
5, 156778, Note_on_c, 2, 70, 0
5, 156778, Note_on_c, 2, 58, 0
5, 156840, Note_on_c, 2, 79, 97
5, 156840, Note_on_c, 2, 91, 90
5, 156898, Note_on_c, 2, 91, 0
5, 156898, Note_on_c, 2, 79, 0
5, 156960, Note_on_c, 2, 74, 79
5, 156960, Note_on_c, 2, 86, 79
5, 157018, Note_on_c, 2, 86, 0
5, 157018, Note_on_c, 2, 74, 0
5, 157080, Note_on_c, 2, 70, 75
5, 157080, Note_on_c, 2, 82, 75
5, 157138, Note_on_c, 2, 82, 0
5, 157138, Note_on_c, 2, 70, 0
5, 157200, Note_on_c, 2, 67, 74
5, 157200, Note_on_c, 2, 79, 74
5, 157258, Note_on_c, 2, 79, 0
5, 157258, Note_on_c, 2, 67, 0
5, 157320, Note_on_c, 2, 62, 84
5, 157320, Note_on_c, 2, 74, 84
5, 157378, Note_on_c, 2, 74, 0
5, 157378, Note_on_c, 2, 62, 0
5, 157440, Note_on_c, 2, 79, 84
5, 157440, Note_on_c, 2, 91, 84
5, 157498, Note_on_c, 2, 91, 0
5, 157498, Note_on_c, 2, 79, 0
5, 157560, Note_on_c, 2, 75, 79
5, 157560, Note_on_c, 2, 87, 79
5, 157618, Note_on_c, 2, 87, 0
5, 157618, Note_on_c, 2, 75, 0
5, 157680, Note_on_c, 2, 72, 76
5, 157680, Note_on_c, 2, 84, 76
5, 157738, Note_on_c, 2, 84, 0
5, 157738, Note_on_c, 2, 72, 0
5, 157800, Note_on_c, 2, 67, 74
5, 157800, Note_on_c, 2, 79, 74
5, 157858, Note_on_c, 2, 79, 0
5, 157858, Note_on_c, 2, 67, 0
5, 157920, Note_on_c, 2, 63, 80
5, 157920, Note_on_c, 2, 75, 80
5, 157978, Note_on_c, 2, 75, 0
5, 157978, Note_on_c, 2, 63, 0
5, 158040, Note_on_c, 2, 60, 78
5, 158040, Note_on_c, 2, 72, 78
5, 158098, Note_on_c, 2, 72, 0
5, 158098, Note_on_c, 2, 60, 0
5, 158160, Note_on_c, 2, 80, 82
5, 158160, Note_on_c, 2, 92, 82
5, 158218, Note_on_c, 2, 92, 0
5, 158218, Note_on_c, 2, 80, 0
5, 158280, Note_on_c, 2, 75, 79
5, 158280, Note_on_c, 2, 87, 79
5, 158338, Note_on_c, 2, 87, 0
5, 158338, Note_on_c, 2, 75, 0
5, 158400, Note_on_c, 2, 72, 75
5, 158400, Note_on_c, 2, 84, 75
5, 158458, Note_on_c, 2, 84, 0
5, 158458, Note_on_c, 2, 72, 0
5, 158520, Note_on_c, 2, 68, 74
5, 158520, Note_on_c, 2, 80, 74
5, 158578, Note_on_c, 2, 80, 0
5, 158578, Note_on_c, 2, 68, 0
5, 158640, Note_on_c, 2, 63, 84
5, 158640, Note_on_c, 2, 75, 84
5, 158698, Note_on_c, 2, 75, 0
5, 158698, Note_on_c, 2, 63, 0
5, 158760, Note_on_c, 2, 60, 92
5, 158760, Note_on_c, 2, 80, 92
5, 158760, Note_on_c, 2, 92, 92
5, 158818, Note_on_c, 2, 92, 0
5, 158818, Note_on_c, 2, 80, 0
5, 158818, Note_on_c, 2, 60, 0
5, 158880, Note_on_c, 2, 75, 79
5, 158880, Note_on_c, 2, 87, 79
5, 158938, Note_on_c, 2, 87, 0
5, 158938, Note_on_c, 2, 75, 0
5, 159000, Note_on_c, 2, 72, 75
5, 159000, Note_on_c, 2, 84, 75
5, 159058, Note_on_c, 2, 84, 0
5, 159058, Note_on_c, 2, 72, 0
5, 159120, Note_on_c, 2, 68, 74
5, 159120, Note_on_c, 2, 80, 74
5, 159178, Note_on_c, 2, 80, 0
5, 159178, Note_on_c, 2, 68, 0
5, 159240, Note_on_c, 2, 75, 84
5, 159298, Note_on_c, 2, 75, 0
5, 159360, Note_on_c, 2, 79, 94
5, 159360, Note_on_c, 2, 91, 90
5, 159418, Note_on_c, 2, 91, 0
5, 159418, Note_on_c, 2, 79, 0
5, 159480, Note_on_c, 2, 75, 79
5, 159480, Note_on_c, 2, 87, 79
5, 159538, Note_on_c, 2, 87, 0
5, 159538, Note_on_c, 2, 75, 0
5, 159600, Note_on_c, 2, 70, 75
5, 159600, Note_on_c, 2, 82, 75
5, 159658, Note_on_c, 2, 82, 0
5, 159658, Note_on_c, 2, 70, 0
5, 159720, Note_on_c, 2, 67, 74
5, 159720, Note_on_c, 2, 79, 74
5, 159778, Note_on_c, 2, 79, 0
5, 159778, Note_on_c, 2, 67, 0
5, 159840, Note_on_c, 2, 63, 84
5, 159840, Note_on_c, 2, 75, 84
5, 159898, Note_on_c, 2, 75, 0
5, 159898, Note_on_c, 2, 63, 0
5, 159960, Note_on_c, 2, 58, 84
5, 159960, Note_on_c, 2, 70, 84
5, 160018, Note_on_c, 2, 70, 0
5, 160018, Note_on_c, 2, 58, 0
5, 160080, Note_on_c, 2, 79, 88
5, 160080, Note_on_c, 2, 91, 88
5, 160138, Note_on_c, 2, 91, 0
5, 160138, Note_on_c, 2, 79, 0
5, 160200, Note_on_c, 2, 70, 79
5, 160200, Note_on_c, 2, 82, 79
5, 160258, Note_on_c, 2, 82, 0
5, 160258, Note_on_c, 2, 70, 0
5, 160320, Note_on_c, 2, 67, 75
5, 160320, Note_on_c, 2, 79, 75
5, 160378, Note_on_c, 2, 79, 0
5, 160378, Note_on_c, 2, 67, 0
5, 160440, Note_on_c, 2, 62, 74
5, 160440, Note_on_c, 2, 74, 74
5, 160498, Note_on_c, 2, 74, 0
5, 160498, Note_on_c, 2, 62, 0
5, 160560, Note_on_c, 2, 58, 84
5, 160560, Note_on_c, 2, 70, 84
5, 160618, Note_on_c, 2, 70, 0
5, 160618, Note_on_c, 2, 58, 0
5, 160680, Note_on_c, 2, 79, 97
5, 160680, Note_on_c, 2, 91, 90
5, 160738, Note_on_c, 2, 91, 0
5, 160738, Note_on_c, 2, 79, 0
5, 160800, Note_on_c, 2, 74, 79
5, 160800, Note_on_c, 2, 86, 79
5, 160858, Note_on_c, 2, 86, 0
5, 160858, Note_on_c, 2, 74, 0
5, 160920, Note_on_c, 2, 70, 75
5, 160920, Note_on_c, 2, 82, 75
5, 160978, Note_on_c, 2, 82, 0
5, 160978, Note_on_c, 2, 70, 0
5, 161040, Note_on_c, 2, 67, 74
5, 161040, Note_on_c, 2, 79, 74
5, 161098, Note_on_c, 2, 79, 0
5, 161098, Note_on_c, 2, 67, 0
5, 161160, Note_on_c, 2, 62, 84
5, 161160, Note_on_c, 2, 74, 84
5, 161218, Note_on_c, 2, 74, 0
5, 161218, Note_on_c, 2, 62, 0
5, 161280, Note_on_c, 2, 79, 84
5, 161280, Note_on_c, 2, 91, 84
5, 161338, Note_on_c, 2, 91, 0
5, 161338, Note_on_c, 2, 79, 0
5, 161400, Note_on_c, 2, 75, 79
5, 161400, Note_on_c, 2, 87, 79
5, 161458, Note_on_c, 2, 87, 0
5, 161458, Note_on_c, 2, 75, 0
5, 161520, Note_on_c, 2, 72, 76
5, 161520, Note_on_c, 2, 84, 76
5, 161578, Note_on_c, 2, 84, 0
5, 161578, Note_on_c, 2, 72, 0
5, 161640, Note_on_c, 2, 67, 74
5, 161640, Note_on_c, 2, 79, 74
5, 161698, Note_on_c, 2, 79, 0
5, 161698, Note_on_c, 2, 67, 0
5, 161760, Note_on_c, 2, 63, 80
5, 161760, Note_on_c, 2, 75, 80
5, 161818, Note_on_c, 2, 75, 0
5, 161818, Note_on_c, 2, 63, 0
5, 161880, Note_on_c, 2, 60, 78
5, 161880, Note_on_c, 2, 72, 78
5, 161938, Note_on_c, 2, 72, 0
5, 161938, Note_on_c, 2, 60, 0
5, 162000, Note_on_c, 2, 80, 82
5, 162000, Note_on_c, 2, 92, 82
5, 162058, Note_on_c, 2, 92, 0
5, 162058, Note_on_c, 2, 80, 0
5, 162120, Note_on_c, 2, 75, 79
5, 162120, Note_on_c, 2, 87, 79
5, 162178, Note_on_c, 2, 87, 0
5, 162178, Note_on_c, 2, 75, 0
5, 162240, Note_on_c, 2, 72, 75
5, 162240, Note_on_c, 2, 84, 75
5, 162298, Note_on_c, 2, 84, 0
5, 162298, Note_on_c, 2, 72, 0
5, 162360, Note_on_c, 2, 68, 74
5, 162360, Note_on_c, 2, 80, 74
5, 162418, Note_on_c, 2, 80, 0
5, 162418, Note_on_c, 2, 68, 0
5, 162480, Note_on_c, 2, 63, 84
5, 162480, Note_on_c, 2, 75, 84
5, 162538, Note_on_c, 2, 75, 0
5, 162538, Note_on_c, 2, 63, 0
5, 162600, Note_on_c, 2, 60, 92
5, 162600, Note_on_c, 2, 80, 92
5, 162600, Note_on_c, 2, 92, 92
5, 162658, Note_on_c, 2, 92, 0
5, 162658, Note_on_c, 2, 80, 0
5, 162658, Note_on_c, 2, 60, 0
5, 162720, Note_on_c, 2, 75, 79
5, 162720, Note_on_c, 2, 87, 79
5, 162778, Note_on_c, 2, 87, 0
5, 162778, Note_on_c, 2, 75, 0
5, 162840, Note_on_c, 2, 72, 75
5, 162840, Note_on_c, 2, 84, 75
5, 162898, Note_on_c, 2, 84, 0
5, 162898, Note_on_c, 2, 72, 0
5, 162960, Note_on_c, 2, 68, 74
5, 162960, Note_on_c, 2, 80, 74
5, 163018, Note_on_c, 2, 80, 0
5, 163018, Note_on_c, 2, 68, 0
5, 163080, Note_on_c, 2, 75, 84
5, 163138, Note_on_c, 2, 75, 0
5, 163200, Note_on_c, 2, 79, 94
5, 163200, Note_on_c, 2, 91, 90
5, 163258, Note_on_c, 2, 91, 0
5, 163258, Note_on_c, 2, 79, 0
5, 163320, Note_on_c, 2, 75, 79
5, 163320, Note_on_c, 2, 87, 79
5, 163378, Note_on_c, 2, 87, 0
5, 163378, Note_on_c, 2, 75, 0
5, 163440, Note_on_c, 2, 70, 75
5, 163440, Note_on_c, 2, 82, 75
5, 163498, Note_on_c, 2, 82, 0
5, 163498, Note_on_c, 2, 70, 0
5, 163560, Note_on_c, 2, 67, 74
5, 163560, Note_on_c, 2, 79, 74
5, 163618, Note_on_c, 2, 79, 0
5, 163618, Note_on_c, 2, 67, 0
5, 163680, Note_on_c, 2, 63, 84
5, 163680, Note_on_c, 2, 75, 84
5, 163738, Note_on_c, 2, 75, 0
5, 163738, Note_on_c, 2, 63, 0
5, 163800, Note_on_c, 2, 58, 84
5, 163800, Note_on_c, 2, 70, 84
5, 163858, Note_on_c, 2, 70, 0
5, 163858, Note_on_c, 2, 58, 0
5, 163920, Note_on_c, 2, 79, 88
5, 163920, Note_on_c, 2, 91, 88
5, 163978, Note_on_c, 2, 91, 0
5, 163978, Note_on_c, 2, 79, 0
5, 164040, Note_on_c, 2, 70, 79
5, 164040, Note_on_c, 2, 82, 79
5, 164098, Note_on_c, 2, 82, 0
5, 164098, Note_on_c, 2, 70, 0
5, 164160, Note_on_c, 2, 67, 75
5, 164160, Note_on_c, 2, 79, 75
5, 164218, Note_on_c, 2, 79, 0
5, 164218, Note_on_c, 2, 67, 0
5, 164280, Note_on_c, 2, 62, 74
5, 164280, Note_on_c, 2, 74, 74
5, 164338, Note_on_c, 2, 74, 0
5, 164338, Note_on_c, 2, 62, 0
5, 164400, Note_on_c, 2, 58, 84
5, 164400, Note_on_c, 2, 70, 84
5, 164458, Note_on_c, 2, 70, 0
5, 164458, Note_on_c, 2, 58, 0
5, 164520, Note_on_c, 2, 79, 97
5, 164520, Note_on_c, 2, 91, 90
5, 164578, Note_on_c, 2, 91, 0
5, 164578, Note_on_c, 2, 79, 0
5, 164640, Note_on_c, 2, 74, 79
5, 164640, Note_on_c, 2, 86, 79
5, 164698, Note_on_c, 2, 86, 0
5, 164698, Note_on_c, 2, 74, 0
5, 164760, Note_on_c, 2, 70, 75
5, 164760, Note_on_c, 2, 82, 75
5, 164818, Note_on_c, 2, 82, 0
5, 164818, Note_on_c, 2, 70, 0
5, 164880, Note_on_c, 2, 67, 74
5, 164880, Note_on_c, 2, 79, 74
5, 164938, Note_on_c, 2, 79, 0
5, 164938, Note_on_c, 2, 67, 0
5, 165000, Note_on_c, 2, 62, 84
5, 165000, Note_on_c, 2, 74, 84
5, 165058, Note_on_c, 2, 74, 0
5, 165058, Note_on_c, 2, 62, 0
5, 165120, Note_on_c, 2, 79, 84
5, 165120, Note_on_c, 2, 91, 84
5, 165178, Note_on_c, 2, 91, 0
5, 165178, Note_on_c, 2, 79, 0
5, 165240, Note_on_c, 2, 75, 79
5, 165240, Note_on_c, 2, 87, 79
5, 165298, Note_on_c, 2, 87, 0
5, 165298, Note_on_c, 2, 75, 0
5, 165360, Note_on_c, 2, 72, 76
5, 165360, Note_on_c, 2, 84, 76
5, 165418, Note_on_c, 2, 84, 0
5, 165418, Note_on_c, 2, 72, 0
5, 165480, Note_on_c, 2, 67, 74
5, 165480, Note_on_c, 2, 79, 74
5, 165538, Note_on_c, 2, 79, 0
5, 165538, Note_on_c, 2, 67, 0
5, 165600, Note_on_c, 2, 63, 80
5, 165600, Note_on_c, 2, 75, 80
5, 165658, Note_on_c, 2, 75, 0
5, 165658, Note_on_c, 2, 63, 0
5, 165720, Note_on_c, 2, 60, 78
5, 165720, Note_on_c, 2, 72, 78
5, 165778, Note_on_c, 2, 72, 0
5, 165778, Note_on_c, 2, 60, 0
5, 165840, Note_on_c, 2, 80, 82
5, 165840, Note_on_c, 2, 92, 82
5, 165898, Note_on_c, 2, 92, 0
5, 165898, Note_on_c, 2, 80, 0
5, 165960, Note_on_c, 2, 75, 79
5, 165960, Note_on_c, 2, 87, 79
5, 166018, Note_on_c, 2, 87, 0
5, 166018, Note_on_c, 2, 75, 0
5, 166080, Note_on_c, 2, 72, 75
5, 166080, Note_on_c, 2, 84, 75
5, 166138, Note_on_c, 2, 84, 0
5, 166138, Note_on_c, 2, 72, 0
5, 166200, Note_on_c, 2, 68, 74
5, 166200, Note_on_c, 2, 80, 74
5, 166258, Note_on_c, 2, 80, 0
5, 166258, Note_on_c, 2, 68, 0
5, 166320, Note_on_c, 2, 63, 84
5, 166320, Note_on_c, 2, 75, 84
5, 166378, Note_on_c, 2, 75, 0
5, 166378, Note_on_c, 2, 63, 0
5, 166440, Note_on_c, 2, 60, 92
5, 166440, Note_on_c, 2, 80, 92
5, 166440, Note_on_c, 2, 92, 92
5, 166498, Note_on_c, 2, 92, 0
5, 166498, Note_on_c, 2, 80, 0
5, 166498, Note_on_c, 2, 60, 0
5, 166560, Note_on_c, 2, 75, 79
5, 166560, Note_on_c, 2, 87, 79
5, 166618, Note_on_c, 2, 87, 0
5, 166618, Note_on_c, 2, 75, 0
5, 166680, Note_on_c, 2, 72, 75
5, 166680, Note_on_c, 2, 84, 75
5, 166738, Note_on_c, 2, 84, 0
5, 166738, Note_on_c, 2, 72, 0
5, 166800, Note_on_c, 2, 68, 74
5, 166800, Note_on_c, 2, 80, 74
5, 166858, Note_on_c, 2, 80, 0
5, 166858, Note_on_c, 2, 68, 0
5, 166920, Note_on_c, 2, 75, 84
5, 166978, Note_on_c, 2, 75, 0
5, 167040, Note_on_c, 2, 79, 94
5, 167040, Note_on_c, 2, 91, 90
5, 167098, Note_on_c, 2, 91, 0
5, 167098, Note_on_c, 2, 79, 0
5, 167160, Note_on_c, 2, 75, 79
5, 167160, Note_on_c, 2, 87, 79
5, 167218, Note_on_c, 2, 87, 0
5, 167218, Note_on_c, 2, 75, 0
5, 167280, Note_on_c, 2, 70, 75
5, 167280, Note_on_c, 2, 82, 75
5, 167338, Note_on_c, 2, 82, 0
5, 167338, Note_on_c, 2, 70, 0
5, 167400, Note_on_c, 2, 67, 74
5, 167400, Note_on_c, 2, 79, 74
5, 167458, Note_on_c, 2, 79, 0
5, 167458, Note_on_c, 2, 67, 0
5, 167520, Note_on_c, 2, 63, 84
5, 167520, Note_on_c, 2, 75, 84
5, 167578, Note_on_c, 2, 75, 0
5, 167578, Note_on_c, 2, 63, 0
5, 167640, Note_on_c, 2, 58, 84
5, 167640, Note_on_c, 2, 70, 84
5, 167698, Note_on_c, 2, 70, 0
5, 167698, Note_on_c, 2, 58, 0
5, 167760, Note_on_c, 2, 79, 88
5, 167760, Note_on_c, 2, 91, 88
5, 167818, Note_on_c, 2, 91, 0
5, 167818, Note_on_c, 2, 79, 0
5, 167880, Note_on_c, 2, 70, 79
5, 167880, Note_on_c, 2, 82, 79
5, 167938, Note_on_c, 2, 82, 0
5, 167938, Note_on_c, 2, 70, 0
5, 168000, Note_on_c, 2, 67, 75
5, 168000, Note_on_c, 2, 79, 75
5, 168058, Note_on_c, 2, 79, 0
5, 168058, Note_on_c, 2, 67, 0
5, 168120, Note_on_c, 2, 62, 74
5, 168120, Note_on_c, 2, 74, 74
5, 168178, Note_on_c, 2, 74, 0
5, 168178, Note_on_c, 2, 62, 0
5, 168240, Note_on_c, 2, 58, 84
5, 168240, Note_on_c, 2, 70, 84
5, 168298, Note_on_c, 2, 70, 0
5, 168298, Note_on_c, 2, 58, 0
5, 168360, Note_on_c, 2, 79, 97
5, 168360, Note_on_c, 2, 91, 90
5, 168418, Note_on_c, 2, 91, 0
5, 168418, Note_on_c, 2, 79, 0
5, 168480, Note_on_c, 2, 74, 79
5, 168480, Note_on_c, 2, 86, 79
5, 168538, Note_on_c, 2, 86, 0
5, 168538, Note_on_c, 2, 74, 0
5, 168600, Note_on_c, 2, 70, 75
5, 168600, Note_on_c, 2, 82, 75
5, 168658, Note_on_c, 2, 82, 0
5, 168658, Note_on_c, 2, 70, 0
5, 168720, Note_on_c, 2, 67, 74
5, 168720, Note_on_c, 2, 79, 74
5, 168778, Note_on_c, 2, 79, 0
5, 168778, Note_on_c, 2, 67, 0
5, 168840, Note_on_c, 2, 62, 84
5, 168840, Note_on_c, 2, 74, 84
5, 168898, Note_on_c, 2, 74, 0
5, 168898, Note_on_c, 2, 62, 0
5, 168960, Note_on_c, 2, 79, 84
5, 168960, Note_on_c, 2, 91, 84
5, 169018, Note_on_c, 2, 91, 0
5, 169018, Note_on_c, 2, 79, 0
5, 169080, Note_on_c, 2, 75, 79
5, 169080, Note_on_c, 2, 87, 79
5, 169138, Note_on_c, 2, 87, 0
5, 169138, Note_on_c, 2, 75, 0
5, 169200, Note_on_c, 2, 72, 76
5, 169200, Note_on_c, 2, 84, 76
5, 169258, Note_on_c, 2, 84, 0
5, 169258, Note_on_c, 2, 72, 0
5, 169320, Note_on_c, 2, 67, 74
5, 169320, Note_on_c, 2, 79, 74
5, 169378, Note_on_c, 2, 79, 0
5, 169378, Note_on_c, 2, 67, 0
5, 169440, Note_on_c, 2, 63, 80
5, 169440, Note_on_c, 2, 75, 80
5, 169498, Note_on_c, 2, 75, 0
5, 169498, Note_on_c, 2, 63, 0
5, 169560, Note_on_c, 2, 60, 78
5, 169560, Note_on_c, 2, 72, 78
5, 169618, Note_on_c, 2, 72, 0
5, 169618, Note_on_c, 2, 60, 0
5, 169680, Note_on_c, 2, 80, 82
5, 169680, Note_on_c, 2, 92, 82
5, 169738, Note_on_c, 2, 92, 0
5, 169738, Note_on_c, 2, 80, 0
5, 169800, Note_on_c, 2, 75, 79
5, 169800, Note_on_c, 2, 87, 79
5, 169858, Note_on_c, 2, 87, 0
5, 169858, Note_on_c, 2, 75, 0
5, 169920, Note_on_c, 2, 72, 75
5, 169920, Note_on_c, 2, 84, 75
5, 169978, Note_on_c, 2, 84, 0
5, 169978, Note_on_c, 2, 72, 0
5, 170040, Note_on_c, 2, 68, 74
5, 170040, Note_on_c, 2, 80, 74
5, 170098, Note_on_c, 2, 80, 0
5, 170098, Note_on_c, 2, 68, 0
5, 170160, Note_on_c, 2, 63, 84
5, 170160, Note_on_c, 2, 75, 84
5, 170218, Note_on_c, 2, 75, 0
5, 170218, Note_on_c, 2, 63, 0
5, 170280, Note_on_c, 2, 60, 92
5, 170280, Note_on_c, 2, 80, 92
5, 170280, Note_on_c, 2, 92, 92
5, 170338, Note_on_c, 2, 92, 0
5, 170338, Note_on_c, 2, 80, 0
5, 170338, Note_on_c, 2, 60, 0
5, 170400, Note_on_c, 2, 75, 79
5, 170400, Note_on_c, 2, 87, 79
5, 170458, Note_on_c, 2, 87, 0
5, 170458, Note_on_c, 2, 75, 0
5, 170520, Note_on_c, 2, 72, 75
5, 170520, Note_on_c, 2, 84, 75
5, 170578, Note_on_c, 2, 84, 0
5, 170578, Note_on_c, 2, 72, 0
5, 170640, Note_on_c, 2, 68, 74
5, 170640, Note_on_c, 2, 80, 74
5, 170698, Note_on_c, 2, 80, 0
5, 170698, Note_on_c, 2, 68, 0
5, 170760, Note_on_c, 2, 75, 84
5, 170818, Note_on_c, 2, 75, 0
5, 170880, Note_on_c, 2, 79, 94
5, 170880, Note_on_c, 2, 91, 90
5, 170938, Note_on_c, 2, 91, 0
5, 170938, Note_on_c, 2, 79, 0
5, 171000, Note_on_c, 2, 75, 79
5, 171000, Note_on_c, 2, 87, 79
5, 171058, Note_on_c, 2, 87, 0
5, 171058, Note_on_c, 2, 75, 0
5, 171120, Note_on_c, 2, 70, 75
5, 171120, Note_on_c, 2, 82, 75
5, 171178, Note_on_c, 2, 82, 0
5, 171178, Note_on_c, 2, 70, 0
5, 171240, Note_on_c, 2, 67, 74
5, 171240, Note_on_c, 2, 79, 74
5, 171298, Note_on_c, 2, 79, 0
5, 171298, Note_on_c, 2, 67, 0
5, 171360, Note_on_c, 2, 63, 84
5, 171360, Note_on_c, 2, 75, 84
5, 171418, Note_on_c, 2, 75, 0
5, 171418, Note_on_c, 2, 63, 0
5, 171480, Note_on_c, 2, 58, 84
5, 171480, Note_on_c, 2, 70, 84
5, 171538, Note_on_c, 2, 70, 0
5, 171538, Note_on_c, 2, 58, 0
5, 171600, Note_on_c, 2, 79, 88
5, 171600, Note_on_c, 2, 91, 88
5, 171658, Note_on_c, 2, 91, 0
5, 171658, Note_on_c, 2, 79, 0
5, 171720, Note_on_c, 2, 70, 79
5, 171720, Note_on_c, 2, 82, 79
5, 171778, Note_on_c, 2, 82, 0
5, 171778, Note_on_c, 2, 70, 0
5, 171840, Note_on_c, 2, 67, 75
5, 171840, Note_on_c, 2, 79, 75
5, 171898, Note_on_c, 2, 79, 0
5, 171898, Note_on_c, 2, 67, 0
5, 171960, Note_on_c, 2, 62, 74
5, 171960, Note_on_c, 2, 74, 74
5, 172018, Note_on_c, 2, 74, 0
5, 172018, Note_on_c, 2, 62, 0
5, 172080, Note_on_c, 2, 58, 84
5, 172080, Note_on_c, 2, 70, 84
5, 172138, Note_on_c, 2, 70, 0
5, 172138, Note_on_c, 2, 58, 0
5, 172200, Note_on_c, 2, 79, 97
5, 172200, Note_on_c, 2, 91, 90
5, 172258, Note_on_c, 2, 91, 0
5, 172258, Note_on_c, 2, 79, 0
5, 172320, Note_on_c, 2, 74, 79
5, 172320, Note_on_c, 2, 86, 79
5, 172378, Note_on_c, 2, 86, 0
5, 172378, Note_on_c, 2, 74, 0
5, 172440, Note_on_c, 2, 70, 75
5, 172440, Note_on_c, 2, 82, 75
5, 172498, Note_on_c, 2, 82, 0
5, 172498, Note_on_c, 2, 70, 0
5, 172560, Note_on_c, 2, 67, 74
5, 172560, Note_on_c, 2, 79, 74
5, 172618, Note_on_c, 2, 79, 0
5, 172618, Note_on_c, 2, 67, 0
5, 172680, Note_on_c, 2, 62, 84
5, 172680, Note_on_c, 2, 74, 84
5, 172738, Note_on_c, 2, 74, 0
5, 172738, Note_on_c, 2, 62, 0
5, 172800, Note_on_c, 2, 79, 84
5, 172800, Note_on_c, 2, 91, 84
5, 172858, Note_on_c, 2, 91, 0
5, 172858, Note_on_c, 2, 79, 0
5, 172920, Note_on_c, 2, 75, 79
5, 172920, Note_on_c, 2, 87, 79
5, 172978, Note_on_c, 2, 87, 0
5, 172978, Note_on_c, 2, 75, 0
5, 173040, Note_on_c, 2, 72, 76
5, 173040, Note_on_c, 2, 84, 76
5, 173098, Note_on_c, 2, 84, 0
5, 173098, Note_on_c, 2, 72, 0
5, 173160, Note_on_c, 2, 67, 74
5, 173160, Note_on_c, 2, 79, 74
5, 173218, Note_on_c, 2, 79, 0
5, 173218, Note_on_c, 2, 67, 0
5, 173280, Note_on_c, 2, 63, 80
5, 173280, Note_on_c, 2, 75, 80
5, 173338, Note_on_c, 2, 75, 0
5, 173338, Note_on_c, 2, 63, 0
5, 173400, Note_on_c, 2, 60, 78
5, 173400, Note_on_c, 2, 72, 78
5, 173458, Note_on_c, 2, 72, 0
5, 173458, Note_on_c, 2, 60, 0
5, 173520, Note_on_c, 2, 80, 82
5, 173520, Note_on_c, 2, 92, 82
5, 173578, Note_on_c, 2, 92, 0
5, 173578, Note_on_c, 2, 80, 0
5, 173640, Note_on_c, 2, 75, 79
5, 173640, Note_on_c, 2, 87, 79
5, 173698, Note_on_c, 2, 87, 0
5, 173698, Note_on_c, 2, 75, 0
5, 173760, Note_on_c, 2, 72, 75
5, 173760, Note_on_c, 2, 84, 75
5, 173818, Note_on_c, 2, 84, 0
5, 173818, Note_on_c, 2, 72, 0
5, 173880, Note_on_c, 2, 68, 74
5, 173880, Note_on_c, 2, 80, 74
5, 173938, Note_on_c, 2, 80, 0
5, 173938, Note_on_c, 2, 68, 0
5, 174000, Note_on_c, 2, 63, 84
5, 174000, Note_on_c, 2, 75, 84
5, 174058, Note_on_c, 2, 75, 0
5, 174058, Note_on_c, 2, 63, 0
5, 174120, Note_on_c, 2, 60, 92
5, 174120, Note_on_c, 2, 80, 92
5, 174120, Note_on_c, 2, 92, 92
5, 174178, Note_on_c, 2, 92, 0
5, 174178, Note_on_c, 2, 80, 0
5, 174178, Note_on_c, 2, 60, 0
5, 174240, Note_on_c, 2, 75, 79
5, 174240, Note_on_c, 2, 87, 79
5, 174298, Note_on_c, 2, 87, 0
5, 174298, Note_on_c, 2, 75, 0
5, 174360, Note_on_c, 2, 72, 75
5, 174360, Note_on_c, 2, 84, 75
5, 174418, Note_on_c, 2, 84, 0
5, 174418, Note_on_c, 2, 72, 0
5, 174480, Note_on_c, 2, 68, 74
5, 174480, Note_on_c, 2, 80, 74
5, 174538, Note_on_c, 2, 80, 0
5, 174538, Note_on_c, 2, 68, 0
5, 174600, Note_on_c, 2, 75, 84
5, 174658, Note_on_c, 2, 75, 0
5, 174720, Note_on_c, 2, 79, 94
5, 174720, Note_on_c, 2, 91, 90
5, 174778, Note_on_c, 2, 91, 0
5, 174778, Note_on_c, 2, 79, 0
5, 174840, Note_on_c, 2, 75, 79
5, 174840, Note_on_c, 2, 87, 79
5, 174898, Note_on_c, 2, 87, 0
5, 174898, Note_on_c, 2, 75, 0
5, 174960, Note_on_c, 2, 70, 75
5, 174960, Note_on_c, 2, 82, 75
5, 175018, Note_on_c, 2, 82, 0
5, 175018, Note_on_c, 2, 70, 0
5, 175080, Note_on_c, 2, 67, 74
5, 175080, Note_on_c, 2, 79, 74
5, 175138, Note_on_c, 2, 79, 0
5, 175138, Note_on_c, 2, 67, 0
5, 175200, Note_on_c, 2, 63, 84
5, 175200, Note_on_c, 2, 75, 84
5, 175258, Note_on_c, 2, 75, 0
5, 175258, Note_on_c, 2, 63, 0
5, 175320, Note_on_c, 2, 58, 84
5, 175320, Note_on_c, 2, 70, 84
5, 175378, Note_on_c, 2, 70, 0
5, 175378, Note_on_c, 2, 58, 0
5, 175440, Note_on_c, 2, 79, 88
5, 175440, Note_on_c, 2, 91, 88
5, 175498, Note_on_c, 2, 91, 0
5, 175498, Note_on_c, 2, 79, 0
5, 175560, Note_on_c, 2, 70, 79
5, 175560, Note_on_c, 2, 82, 79
5, 175618, Note_on_c, 2, 82, 0
5, 175618, Note_on_c, 2, 70, 0
5, 175680, Note_on_c, 2, 67, 75
5, 175680, Note_on_c, 2, 79, 75
5, 175738, Note_on_c, 2, 79, 0
5, 175738, Note_on_c, 2, 67, 0
5, 175800, Note_on_c, 2, 62, 74
5, 175800, Note_on_c, 2, 74, 74
5, 175858, Note_on_c, 2, 74, 0
5, 175858, Note_on_c, 2, 62, 0
5, 175920, Note_on_c, 2, 58, 84
5, 175920, Note_on_c, 2, 70, 84
5, 175978, Note_on_c, 2, 70, 0
5, 175978, Note_on_c, 2, 58, 0
5, 176040, Note_on_c, 2, 79, 97
5, 176040, Note_on_c, 2, 91, 90
5, 176098, Note_on_c, 2, 91, 0
5, 176098, Note_on_c, 2, 79, 0
5, 176160, Note_on_c, 2, 74, 79
5, 176160, Note_on_c, 2, 86, 79
5, 176218, Note_on_c, 2, 86, 0
5, 176218, Note_on_c, 2, 74, 0
5, 176280, Note_on_c, 2, 70, 75
5, 176280, Note_on_c, 2, 82, 75
5, 176338, Note_on_c, 2, 82, 0
5, 176338, Note_on_c, 2, 70, 0
5, 176400, Note_on_c, 2, 67, 74
5, 176400, Note_on_c, 2, 79, 74
5, 176458, Note_on_c, 2, 79, 0
5, 176458, Note_on_c, 2, 67, 0
5, 176520, Note_on_c, 2, 62, 84
5, 176520, Note_on_c, 2, 74, 84
5, 176578, Note_on_c, 2, 74, 0
5, 176578, Note_on_c, 2, 62, 0
5, 176640, Note_on_c, 2, 79, 84
5, 176640, Note_on_c, 2, 91, 84
5, 176698, Note_on_c, 2, 91, 0
5, 176698, Note_on_c, 2, 79, 0
5, 176760, Note_on_c, 2, 75, 79
5, 176760, Note_on_c, 2, 87, 79
5, 176818, Note_on_c, 2, 87, 0
5, 176818, Note_on_c, 2, 75, 0
5, 176880, Note_on_c, 2, 72, 76
5, 176880, Note_on_c, 2, 84, 76
5, 176938, Note_on_c, 2, 84, 0
5, 176938, Note_on_c, 2, 72, 0
5, 177000, Note_on_c, 2, 67, 74
5, 177000, Note_on_c, 2, 79, 74
5, 177058, Note_on_c, 2, 79, 0
5, 177058, Note_on_c, 2, 67, 0
5, 177120, Note_on_c, 2, 63, 80
5, 177120, Note_on_c, 2, 75, 80
5, 177178, Note_on_c, 2, 75, 0
5, 177178, Note_on_c, 2, 63, 0
5, 177240, Note_on_c, 2, 60, 78
5, 177240, Note_on_c, 2, 72, 78
5, 177298, Note_on_c, 2, 72, 0
5, 177298, Note_on_c, 2, 60, 0
5, 177360, Note_on_c, 2, 80, 82
5, 177360, Note_on_c, 2, 92, 82
5, 177418, Note_on_c, 2, 92, 0
5, 177418, Note_on_c, 2, 80, 0
5, 177480, Note_on_c, 2, 75, 79
5, 177480, Note_on_c, 2, 87, 79
5, 177538, Note_on_c, 2, 87, 0
5, 177538, Note_on_c, 2, 75, 0
5, 177600, Note_on_c, 2, 72, 75
5, 177600, Note_on_c, 2, 84, 75
5, 177658, Note_on_c, 2, 84, 0
5, 177658, Note_on_c, 2, 72, 0
5, 177720, Note_on_c, 2, 68, 74
5, 177720, Note_on_c, 2, 80, 74
5, 177778, Note_on_c, 2, 80, 0
5, 177778, Note_on_c, 2, 68, 0
5, 177840, Note_on_c, 2, 63, 84
5, 177840, Note_on_c, 2, 75, 84
5, 177898, Note_on_c, 2, 75, 0
5, 177898, Note_on_c, 2, 63, 0
5, 177960, Note_on_c, 2, 60, 92
5, 177960, Note_on_c, 2, 80, 92
5, 177960, Note_on_c, 2, 92, 92
5, 178018, Note_on_c, 2, 92, 0
5, 178018, Note_on_c, 2, 80, 0
5, 178018, Note_on_c, 2, 60, 0
5, 178080, Note_on_c, 2, 75, 79
5, 178080, Note_on_c, 2, 87, 79
5, 178138, Note_on_c, 2, 87, 0
5, 178138, Note_on_c, 2, 75, 0
5, 178200, Note_on_c, 2, 72, 75
5, 178200, Note_on_c, 2, 84, 75
5, 178258, Note_on_c, 2, 84, 0
5, 178258, Note_on_c, 2, 72, 0
5, 178320, Note_on_c, 2, 68, 74
5, 178320, Note_on_c, 2, 80, 74
5, 178378, Note_on_c, 2, 80, 0
5, 178378, Note_on_c, 2, 68, 0
5, 178440, Note_on_c, 2, 75, 84
5, 178498, Note_on_c, 2, 75, 0
5, 178560, Note_on_c, 2, 79, 94
5, 178560, Note_on_c, 2, 91, 90
5, 178618, Note_on_c, 2, 91, 0
5, 178618, Note_on_c, 2, 79, 0
5, 178680, Note_on_c, 2, 75, 79
5, 178680, Note_on_c, 2, 87, 79
5, 178738, Note_on_c, 2, 87, 0
5, 178738, Note_on_c, 2, 75, 0
5, 178800, Note_on_c, 2, 70, 75
5, 178800, Note_on_c, 2, 82, 75
5, 178858, Note_on_c, 2, 82, 0
5, 178858, Note_on_c, 2, 70, 0
5, 178920, Note_on_c, 2, 67, 74
5, 178920, Note_on_c, 2, 79, 74
5, 178978, Note_on_c, 2, 79, 0
5, 178978, Note_on_c, 2, 67, 0
5, 179040, Note_on_c, 2, 63, 84
5, 179040, Note_on_c, 2, 75, 84
5, 179098, Note_on_c, 2, 75, 0
5, 179098, Note_on_c, 2, 63, 0
5, 179160, Note_on_c, 2, 58, 84
5, 179160, Note_on_c, 2, 70, 84
5, 179218, Note_on_c, 2, 70, 0
5, 179218, Note_on_c, 2, 58, 0
5, 179280, Note_on_c, 2, 79, 88
5, 179280, Note_on_c, 2, 91, 88
5, 179338, Note_on_c, 2, 91, 0
5, 179338, Note_on_c, 2, 79, 0
5, 179400, Note_on_c, 2, 70, 79
5, 179400, Note_on_c, 2, 82, 79
5, 179458, Note_on_c, 2, 82, 0
5, 179458, Note_on_c, 2, 70, 0
5, 179520, Note_on_c, 2, 67, 75
5, 179520, Note_on_c, 2, 79, 75
5, 179578, Note_on_c, 2, 79, 0
5, 179578, Note_on_c, 2, 67, 0
5, 179640, Note_on_c, 2, 62, 74
5, 179640, Note_on_c, 2, 74, 74
5, 179698, Note_on_c, 2, 74, 0
5, 179698, Note_on_c, 2, 62, 0
5, 179760, Note_on_c, 2, 58, 84
5, 179760, Note_on_c, 2, 70, 84
5, 179818, Note_on_c, 2, 70, 0
5, 179818, Note_on_c, 2, 58, 0
5, 179880, Note_on_c, 2, 79, 97
5, 179880, Note_on_c, 2, 91, 90
5, 179938, Note_on_c, 2, 91, 0
5, 179938, Note_on_c, 2, 79, 0
5, 180000, Note_on_c, 2, 74, 79
5, 180000, Note_on_c, 2, 86, 79
5, 180058, Note_on_c, 2, 86, 0
5, 180058, Note_on_c, 2, 74, 0
5, 180120, Note_on_c, 2, 70, 75
5, 180120, Note_on_c, 2, 82, 75
5, 180178, Note_on_c, 2, 82, 0
5, 180178, Note_on_c, 2, 70, 0
5, 180240, Note_on_c, 2, 67, 74
5, 180240, Note_on_c, 2, 79, 74
5, 180298, Note_on_c, 2, 79, 0
5, 180298, Note_on_c, 2, 67, 0
5, 180360, Note_on_c, 2, 62, 84
5, 180360, Note_on_c, 2, 74, 84
5, 180418, Note_on_c, 2, 74, 0
5, 180418, Note_on_c, 2, 62, 0
5, 180480, Note_on_c, 2, 79, 84
5, 180480, Note_on_c, 2, 91, 84
5, 180538, Note_on_c, 2, 91, 0
5, 180538, Note_on_c, 2, 79, 0
5, 180600, Note_on_c, 2, 75, 79
5, 180600, Note_on_c, 2, 87, 79
5, 180658, Note_on_c, 2, 87, 0
5, 180658, Note_on_c, 2, 75, 0
5, 180720, Note_on_c, 2, 72, 76
5, 180720, Note_on_c, 2, 84, 76
5, 180778, Note_on_c, 2, 84, 0
5, 180778, Note_on_c, 2, 72, 0
5, 180840, Note_on_c, 2, 67, 74
5, 180840, Note_on_c, 2, 79, 74
5, 180898, Note_on_c, 2, 79, 0
5, 180898, Note_on_c, 2, 67, 0
5, 180960, Note_on_c, 2, 63, 80
5, 180960, Note_on_c, 2, 75, 80
5, 181018, Note_on_c, 2, 75, 0
5, 181018, Note_on_c, 2, 63, 0
5, 181080, Note_on_c, 2, 60, 78
5, 181080, Note_on_c, 2, 72, 78
5, 181138, Note_on_c, 2, 72, 0
5, 181138, Note_on_c, 2, 60, 0
5, 181200, Note_on_c, 2, 80, 82
5, 181200, Note_on_c, 2, 92, 82
5, 181258, Note_on_c, 2, 92, 0
5, 181258, Note_on_c, 2, 80, 0
5, 181320, Note_on_c, 2, 75, 79
5, 181320, Note_on_c, 2, 87, 79
5, 181378, Note_on_c, 2, 87, 0
5, 181378, Note_on_c, 2, 75, 0
5, 181440, Note_on_c, 2, 72, 75
5, 181440, Note_on_c, 2, 84, 75
5, 181498, Note_on_c, 2, 84, 0
5, 181498, Note_on_c, 2, 72, 0
5, 181560, Note_on_c, 2, 68, 74
5, 181560, Note_on_c, 2, 80, 74
5, 181618, Note_on_c, 2, 80, 0
5, 181618, Note_on_c, 2, 68, 0
5, 181680, Note_on_c, 2, 63, 84
5, 181680, Note_on_c, 2, 75, 84
5, 181738, Note_on_c, 2, 75, 0
5, 181738, Note_on_c, 2, 63, 0
5, 181800, Note_on_c, 2, 60, 92
5, 181800, Note_on_c, 2, 80, 92
5, 181800, Note_on_c, 2, 92, 92
5, 181858, Note_on_c, 2, 92, 0
5, 181858, Note_on_c, 2, 80, 0
5, 181858, Note_on_c, 2, 60, 0
5, 181920, Note_on_c, 2, 75, 79
5, 181920, Note_on_c, 2, 87, 79
5, 181978, Note_on_c, 2, 87, 0
5, 181978, Note_on_c, 2, 75, 0
5, 182040, Note_on_c, 2, 72, 75
5, 182040, Note_on_c, 2, 84, 75
5, 182098, Note_on_c, 2, 84, 0
5, 182098, Note_on_c, 2, 72, 0
5, 182160, Note_on_c, 2, 68, 74
5, 182160, Note_on_c, 2, 80, 74
5, 182218, Note_on_c, 2, 80, 0
5, 182218, Note_on_c, 2, 68, 0
5, 182280, Note_on_c, 2, 75, 84
5, 182338, Note_on_c, 2, 75, 0
5, 182400, Note_on_c, 2, 79, 94
5, 182400, Note_on_c, 2, 91, 90
5, 182458, Note_on_c, 2, 91, 0
5, 182458, Note_on_c, 2, 79, 0
5, 182520, Note_on_c, 2, 75, 79
5, 182520, Note_on_c, 2, 87, 79
5, 182578, Note_on_c, 2, 87, 0
5, 182578, Note_on_c, 2, 75, 0
5, 182640, Note_on_c, 2, 70, 75
5, 182640, Note_on_c, 2, 82, 75
5, 182698, Note_on_c, 2, 82, 0
5, 182698, Note_on_c, 2, 70, 0
5, 182760, Note_on_c, 2, 67, 74
5, 182760, Note_on_c, 2, 79, 74
5, 182818, Note_on_c, 2, 79, 0
5, 182818, Note_on_c, 2, 67, 0
5, 182880, Note_on_c, 2, 63, 84
5, 182880, Note_on_c, 2, 75, 84
5, 182938, Note_on_c, 2, 75, 0
5, 182938, Note_on_c, 2, 63, 0
5, 183000, Note_on_c, 2, 58, 84
5, 183000, Note_on_c, 2, 70, 84
5, 183058, Note_on_c, 2, 70, 0
5, 183058, Note_on_c, 2, 58, 0
5, 183120, Note_on_c, 2, 79, 88
5, 183120, Note_on_c, 2, 91, 88
5, 183178, Note_on_c, 2, 91, 0
5, 183178, Note_on_c, 2, 79, 0
5, 183240, Note_on_c, 2, 70, 79
5, 183240, Note_on_c, 2, 82, 79
5, 183298, Note_on_c, 2, 82, 0
5, 183298, Note_on_c, 2, 70, 0
5, 183360, Note_on_c, 2, 67, 75
5, 183360, Note_on_c, 2, 79, 75
5, 183418, Note_on_c, 2, 79, 0
5, 183418, Note_on_c, 2, 67, 0
5, 183480, Note_on_c, 2, 62, 74
5, 183480, Note_on_c, 2, 74, 74
5, 183538, Note_on_c, 2, 74, 0
5, 183538, Note_on_c, 2, 62, 0
5, 183600, Note_on_c, 2, 58, 84
5, 183600, Note_on_c, 2, 70, 84
5, 183658, Note_on_c, 2, 70, 0
5, 183658, Note_on_c, 2, 58, 0
5, 183720, Note_on_c, 2, 79, 97
5, 183720, Note_on_c, 2, 91, 90
5, 183778, Note_on_c, 2, 91, 0
5, 183778, Note_on_c, 2, 79, 0
5, 183840, Note_on_c, 2, 74, 79
5, 183840, Note_on_c, 2, 86, 79
5, 183898, Note_on_c, 2, 86, 0
5, 183898, Note_on_c, 2, 74, 0
5, 183960, Note_on_c, 2, 70, 75
5, 183960, Note_on_c, 2, 82, 75
5, 184018, Note_on_c, 2, 82, 0
5, 184018, Note_on_c, 2, 70, 0
5, 184080, Note_on_c, 2, 67, 74
5, 184080, Note_on_c, 2, 79, 74
5, 184138, Note_on_c, 2, 79, 0
5, 184138, Note_on_c, 2, 67, 0
5, 184200, Note_on_c, 2, 62, 84
5, 184200, Note_on_c, 2, 74, 84
5, 184258, Note_on_c, 2, 74, 0
5, 184258, Note_on_c, 2, 62, 0
5, 184320, Note_on_c, 2, 79, 84
5, 184320, Note_on_c, 2, 91, 84
5, 184378, Note_on_c, 2, 91, 0
5, 184378, Note_on_c, 2, 79, 0
5, 184440, Note_on_c, 2, 75, 79
5, 184440, Note_on_c, 2, 87, 79
5, 184498, Note_on_c, 2, 87, 0
5, 184498, Note_on_c, 2, 75, 0
5, 184560, Note_on_c, 2, 72, 76
5, 184560, Note_on_c, 2, 84, 76
5, 184618, Note_on_c, 2, 84, 0
5, 184618, Note_on_c, 2, 72, 0
5, 184680, Note_on_c, 2, 67, 74
5, 184680, Note_on_c, 2, 79, 74
5, 184738, Note_on_c, 2, 79, 0
5, 184738, Note_on_c, 2, 67, 0
5, 184800, Note_on_c, 2, 63, 80
5, 184800, Note_on_c, 2, 75, 80
5, 184858, Note_on_c, 2, 75, 0
5, 184858, Note_on_c, 2, 63, 0
5, 184920, Note_on_c, 2, 60, 78
5, 184920, Note_on_c, 2, 72, 78
5, 184978, Note_on_c, 2, 72, 0
5, 184978, Note_on_c, 2, 60, 0
5, 185040, Note_on_c, 2, 80, 82
5, 185040, Note_on_c, 2, 92, 82
5, 185098, Note_on_c, 2, 92, 0
5, 185098, Note_on_c, 2, 80, 0
5, 185160, Note_on_c, 2, 75, 79
5, 185160, Note_on_c, 2, 87, 79
5, 185218, Note_on_c, 2, 87, 0
5, 185218, Note_on_c, 2, 75, 0
5, 185280, Note_on_c, 2, 72, 75
5, 185280, Note_on_c, 2, 84, 75
5, 185338, Note_on_c, 2, 84, 0
5, 185338, Note_on_c, 2, 72, 0
5, 185400, Note_on_c, 2, 68, 74
5, 185400, Note_on_c, 2, 80, 74
5, 185458, Note_on_c, 2, 80, 0
5, 185458, Note_on_c, 2, 68, 0
5, 185520, Note_on_c, 2, 63, 84
5, 185520, Note_on_c, 2, 75, 84
5, 185578, Note_on_c, 2, 75, 0
5, 185578, Note_on_c, 2, 63, 0
5, 185640, Note_on_c, 2, 60, 92
5, 185640, Note_on_c, 2, 80, 92
5, 185640, Note_on_c, 2, 92, 92
5, 185698, Note_on_c, 2, 92, 0
5, 185698, Note_on_c, 2, 80, 0
5, 185698, Note_on_c, 2, 60, 0
5, 185760, Note_on_c, 2, 75, 79
5, 185760, Note_on_c, 2, 87, 79
5, 185818, Note_on_c, 2, 87, 0
5, 185818, Note_on_c, 2, 75, 0
5, 185880, Note_on_c, 2, 72, 75
5, 185880, Note_on_c, 2, 84, 75
5, 185938, Note_on_c, 2, 84, 0
5, 185938, Note_on_c, 2, 72, 0
5, 186000, Note_on_c, 2, 68, 74
5, 186000, Note_on_c, 2, 80, 74
5, 186058, Note_on_c, 2, 80, 0
5, 186058, Note_on_c, 2, 68, 0
5, 186120, Note_on_c, 2, 75, 84
5, 186178, Note_on_c, 2, 75, 0
5, 186240, Note_on_c, 2, 79, 94
5, 186240, Note_on_c, 2, 91, 90
5, 186298, Note_on_c, 2, 91, 0
5, 186298, Note_on_c, 2, 79, 0
5, 186360, Note_on_c, 2, 75, 79
5, 186360, Note_on_c, 2, 87, 79
5, 186418, Note_on_c, 2, 87, 0
5, 186418, Note_on_c, 2, 75, 0
5, 186480, Note_on_c, 2, 70, 75
5, 186480, Note_on_c, 2, 82, 75
5, 186538, Note_on_c, 2, 82, 0
5, 186538, Note_on_c, 2, 70, 0
5, 186600, Note_on_c, 2, 67, 74
5, 186600, Note_on_c, 2, 79, 74
5, 186658, Note_on_c, 2, 79, 0
5, 186658, Note_on_c, 2, 67, 0
5, 186720, Note_on_c, 2, 63, 84
5, 186720, Note_on_c, 2, 75, 84
5, 186778, Note_on_c, 2, 75, 0
5, 186778, Note_on_c, 2, 63, 0
5, 186840, Note_on_c, 2, 58, 84
5, 186840, Note_on_c, 2, 70, 84
5, 186898, Note_on_c, 2, 70, 0
5, 186898, Note_on_c, 2, 58, 0
5, 186960, Note_on_c, 2, 79, 88
5, 186960, Note_on_c, 2, 91, 88
5, 187018, Note_on_c, 2, 91, 0
5, 187018, Note_on_c, 2, 79, 0
5, 187080, Note_on_c, 2, 70, 79
5, 187080, Note_on_c, 2, 82, 79
5, 187138, Note_on_c, 2, 82, 0
5, 187138, Note_on_c, 2, 70, 0
5, 187200, Note_on_c, 2, 67, 75
5, 187200, Note_on_c, 2, 79, 75
5, 187258, Note_on_c, 2, 79, 0
5, 187258, Note_on_c, 2, 67, 0
5, 187320, Note_on_c, 2, 62, 74
5, 187320, Note_on_c, 2, 74, 74
5, 187378, Note_on_c, 2, 74, 0
5, 187378, Note_on_c, 2, 62, 0
5, 187440, Note_on_c, 2, 58, 84
5, 187440, Note_on_c, 2, 70, 84
5, 187498, Note_on_c, 2, 70, 0
5, 187498, Note_on_c, 2, 58, 0
5, 187560, Note_on_c, 2, 79, 97
5, 187560, Note_on_c, 2, 91, 90
5, 187618, Note_on_c, 2, 91, 0
5, 187618, Note_on_c, 2, 79, 0
5, 187680, Note_on_c, 2, 74, 79
5, 187680, Note_on_c, 2, 86, 79
5, 187738, Note_on_c, 2, 86, 0
5, 187738, Note_on_c, 2, 74, 0
5, 187800, Note_on_c, 2, 70, 75
5, 187800, Note_on_c, 2, 82, 75
5, 187858, Note_on_c, 2, 82, 0
5, 187858, Note_on_c, 2, 70, 0
5, 187920, Note_on_c, 2, 67, 74
5, 187920, Note_on_c, 2, 79, 74
5, 187978, Note_on_c, 2, 79, 0
5, 187978, Note_on_c, 2, 67, 0
5, 188040, Note_on_c, 2, 62, 84
5, 188040, Note_on_c, 2, 74, 84
5, 188098, Note_on_c, 2, 74, 0
5, 188098, Note_on_c, 2, 62, 0
5, 188160, Note_on_c, 2, 79, 84
5, 188160, Note_on_c, 2, 91, 84
5, 188218, Note_on_c, 2, 91, 0
5, 188218, Note_on_c, 2, 79, 0
5, 188280, Note_on_c, 2, 75, 79
5, 188280, Note_on_c, 2, 87, 79
5, 188338, Note_on_c, 2, 87, 0
5, 188338, Note_on_c, 2, 75, 0
5, 188400, Note_on_c, 2, 72, 76
5, 188400, Note_on_c, 2, 84, 76
5, 188458, Note_on_c, 2, 84, 0
5, 188458, Note_on_c, 2, 72, 0
5, 188520, Note_on_c, 2, 67, 74
5, 188520, Note_on_c, 2, 79, 74
5, 188578, Note_on_c, 2, 79, 0
5, 188578, Note_on_c, 2, 67, 0
5, 188640, Note_on_c, 2, 63, 80
5, 188640, Note_on_c, 2, 75, 80
5, 188698, Note_on_c, 2, 75, 0
5, 188698, Note_on_c, 2, 63, 0
5, 188760, Note_on_c, 2, 60, 78
5, 188760, Note_on_c, 2, 72, 78
5, 188818, Note_on_c, 2, 72, 0
5, 188818, Note_on_c, 2, 60, 0
5, 188880, Note_on_c, 2, 80, 82
5, 188880, Note_on_c, 2, 92, 82
5, 188938, Note_on_c, 2, 92, 0
5, 188938, Note_on_c, 2, 80, 0
5, 189000, Note_on_c, 2, 75, 79
5, 189000, Note_on_c, 2, 87, 79
5, 189058, Note_on_c, 2, 87, 0
5, 189058, Note_on_c, 2, 75, 0
5, 189120, Note_on_c, 2, 72, 75
5, 189120, Note_on_c, 2, 84, 75
5, 189178, Note_on_c, 2, 84, 0
5, 189178, Note_on_c, 2, 72, 0
5, 189240, Note_on_c, 2, 68, 74
5, 189240, Note_on_c, 2, 80, 74
5, 189298, Note_on_c, 2, 80, 0
5, 189298, Note_on_c, 2, 68, 0
5, 189360, Note_on_c, 2, 63, 84
5, 189360, Note_on_c, 2, 75, 84
5, 189418, Note_on_c, 2, 75, 0
5, 189418, Note_on_c, 2, 63, 0
5, 189480, Note_on_c, 2, 60, 92
5, 189480, Note_on_c, 2, 80, 92
5, 189480, Note_on_c, 2, 92, 92
5, 189538, Note_on_c, 2, 92, 0
5, 189538, Note_on_c, 2, 80, 0
5, 189538, Note_on_c, 2, 60, 0
5, 189600, Note_on_c, 2, 75, 79
5, 189600, Note_on_c, 2, 87, 79
5, 189658, Note_on_c, 2, 87, 0
5, 189658, Note_on_c, 2, 75, 0
5, 189720, Note_on_c, 2, 72, 75
5, 189720, Note_on_c, 2, 84, 75
5, 189778, Note_on_c, 2, 84, 0
5, 189778, Note_on_c, 2, 72, 0
5, 189840, Note_on_c, 2, 68, 74
5, 189840, Note_on_c, 2, 80, 74
5, 189898, Note_on_c, 2, 80, 0
5, 189898, Note_on_c, 2, 68, 0
5, 189960, Note_on_c, 2, 75, 84
5, 190018, Note_on_c, 2, 75, 0
5, 190080, Note_on_c, 2, 79, 94
5, 190080, Note_on_c, 2, 91, 90
5, 190138, Note_on_c, 2, 91, 0
5, 190138, Note_on_c, 2, 79, 0
5, 190200, Note_on_c, 2, 75, 79
5, 190200, Note_on_c, 2, 87, 79
5, 190258, Note_on_c, 2, 87, 0
5, 190258, Note_on_c, 2, 75, 0
5, 190320, Note_on_c, 2, 70, 75
5, 190320, Note_on_c, 2, 82, 75
5, 190378, Note_on_c, 2, 82, 0
5, 190378, Note_on_c, 2, 70, 0
5, 190440, Note_on_c, 2, 67, 74
5, 190440, Note_on_c, 2, 79, 74
5, 190498, Note_on_c, 2, 79, 0
5, 190498, Note_on_c, 2, 67, 0
5, 190560, Note_on_c, 2, 63, 84
5, 190560, Note_on_c, 2, 75, 84
5, 190618, Note_on_c, 2, 75, 0
5, 190618, Note_on_c, 2, 63, 0
5, 190680, Note_on_c, 2, 58, 84
5, 190680, Note_on_c, 2, 70, 84
5, 190738, Note_on_c, 2, 70, 0
5, 190738, Note_on_c, 2, 58, 0
5, 190800, Note_on_c, 2, 79, 88
5, 190800, Note_on_c, 2, 91, 88
5, 190858, Note_on_c, 2, 91, 0
5, 190858, Note_on_c, 2, 79, 0
5, 190920, Note_on_c, 2, 70, 79
5, 190920, Note_on_c, 2, 82, 79
5, 190978, Note_on_c, 2, 82, 0
5, 190978, Note_on_c, 2, 70, 0
5, 191040, Note_on_c, 2, 67, 75
5, 191040, Note_on_c, 2, 79, 75
5, 191098, Note_on_c, 2, 79, 0
5, 191098, Note_on_c, 2, 67, 0
5, 191160, Note_on_c, 2, 62, 74
5, 191160, Note_on_c, 2, 74, 74
5, 191218, Note_on_c, 2, 74, 0
5, 191218, Note_on_c, 2, 62, 0
5, 191280, Note_on_c, 2, 58, 84
5, 191280, Note_on_c, 2, 70, 84
5, 191338, Note_on_c, 2, 70, 0
5, 191338, Note_on_c, 2, 58, 0
5, 191400, Note_on_c, 2, 79, 97
5, 191400, Note_on_c, 2, 91, 90
5, 191458, Note_on_c, 2, 91, 0
5, 191458, Note_on_c, 2, 79, 0
5, 191520, Note_on_c, 2, 74, 79
5, 191520, Note_on_c, 2, 86, 79
5, 191578, Note_on_c, 2, 86, 0
5, 191578, Note_on_c, 2, 74, 0
5, 191640, Note_on_c, 2, 70, 75
5, 191640, Note_on_c, 2, 82, 75
5, 191698, Note_on_c, 2, 82, 0
5, 191698, Note_on_c, 2, 70, 0
5, 191760, Note_on_c, 2, 67, 74
5, 191760, Note_on_c, 2, 79, 74
5, 191818, Note_on_c, 2, 79, 0
5, 191818, Note_on_c, 2, 67, 0
5, 191880, Note_on_c, 2, 62, 84
5, 191880, Note_on_c, 2, 74, 84
5, 191938, Note_on_c, 2, 74, 0
5, 191938, Note_on_c, 2, 62, 0
5, 192000, Note_on_c, 2, 79, 84
5, 192000, Note_on_c, 2, 91, 84
5, 192058, Note_on_c, 2, 91, 0
5, 192058, Note_on_c, 2, 79, 0
5, 192120, Note_on_c, 2, 75, 69
5, 192120, Note_on_c, 2, 87, 69
5, 192178, Note_on_c, 2, 87, 0
5, 192178, Note_on_c, 2, 75, 0
5, 192178, End_track
6, 0, Start_track
6, 0, MIDI_port, 0
6, 0, Title_t, "Chant"
6, 495, Control_c, 3, 0, 0
6, 497, Program_c, 3, 73
6, 498, Control_c, 3, 7, 100
6, 498, Control_c, 3, 10, 64
6, 1110, Control_c, 3, 121, 0
6, 1117, Control_c, 3, 91, 50
6, 1118, Control_c, 3, 93, 20
6, 1120, Control_c, 3, 94, 0
6, 1121, Control_c, 3, 11, 127
6, 1125, Control_c, 3, 101, 0
6, 1125, Control_c, 3, 100, 0
6, 1125, Control_c, 3, 6, 2
6, 1125, Control_c, 3, 38, 0
6, 1126, Control_c, 3, 71, 64
6, 1127, Control_c, 3, 72, 64
6, 1128, Control_c, 3, 73, 64
6, 1130, Control_c, 3, 74, 64
6, 3120, Note_on_c, 3, 75, 127
6, 3120, Lyric_t, "WOAH "
6, 3360, Note_on_c, 3, 74, 118
6, 3360, Lyric_t, "OAH "
6, 3378, Note_on_c, 3, 75, 0
6, 3600, Note_on_c, 3, 72, 115
6, 3600, Lyric_t, "OAH "
6, 3610, Note_on_c, 3, 74, 0
6, 4475, Note_on_c, 3, 72, 0
6, 4560, Note_on_c, 3, 70, 104
6, 4560, Lyric_t, "OAH "
6, 5484, Note_on_c, 3, 70, 0
6, 5520, Note_on_c, 3, 70, 102
6, 5520, Lyric_t, "OAH "
6, 5520, Lyric_t, "\015"
6, 6726, Note_on_c, 3, 70, 0
6, 6960, Note_on_c, 3, 75, 127
6, 6960, Lyric_t, "WOAH "
6, 7200, Note_on_c, 3, 74, 118
6, 7200, Lyric_t, "OAH "
6, 7218, Note_on_c, 3, 75, 0
6, 7440, Note_on_c, 3, 72, 115
6, 7440, Lyric_t, "OAH "
6, 7450, Note_on_c, 3, 74, 0
6, 8315, Note_on_c, 3, 72, 0
6, 8400, Note_on_c, 3, 70, 104
6, 8400, Lyric_t, "OAH "
6, 9324, Note_on_c, 3, 70, 0
6, 9360, Note_on_c, 3, 70, 102
6, 9360, Lyric_t, "OAH "
6, 9360, Lyric_t, "\015"
6, 10566, Note_on_c, 3, 70, 0
6, 10800, Note_on_c, 3, 75, 127
6, 10800, Lyric_t, "WOAH "
6, 11040, Note_on_c, 3, 74, 118
6, 11040, Lyric_t, "OAH "
6, 11058, Note_on_c, 3, 75, 0
6, 11280, Note_on_c, 3, 72, 115
6, 11280, Lyric_t, "OAH "
6, 11290, Note_on_c, 3, 74, 0
6, 12155, Note_on_c, 3, 72, 0
6, 12240, Note_on_c, 3, 70, 104
6, 12240, Lyric_t, "OAH "
6, 13164, Note_on_c, 3, 70, 0
6, 13200, Note_on_c, 3, 70, 102
6, 13200, Lyric_t, "OAH "
6, 13200, Lyric_t, "\015"
6, 14406, Note_on_c, 3, 70, 0
6, 14640, Note_on_c, 3, 75, 127
6, 14640, Lyric_t, "WOAH "
6, 14880, Note_on_c, 3, 74, 118
6, 14880, Lyric_t, "OAH "
6, 14898, Note_on_c, 3, 75, 0
6, 15120, Note_on_c, 3, 72, 115
6, 15120, Lyric_t, "OAH "
6, 15130, Note_on_c, 3, 74, 0
6, 15995, Note_on_c, 3, 72, 0
6, 16080, Note_on_c, 3, 70, 104
6, 16080, Lyric_t, "OAH "
6, 17004, Note_on_c, 3, 70, 0
6, 17040, Note_on_c, 3, 70, 102
6, 17040, Lyric_t, "OAH "
6, 17040, Lyric_t, "\015"
6, 17040, Lyric_t, "\012"
6, 17970, Note_on_c, 3, 70, 120
6, 17970, Lyric_t, "NOW "
6, 18091, Note_on_c, 3, 70, 0
6, 18236, Note_on_c, 3, 70, 127
6, 18236, Lyric_t, "LIS"
6, 18246, Note_on_c, 3, 70, 0
6, 18435, Note_on_c, 3, 70, 0
6, 18462, Note_on_c, 3, 75, 127
6, 18462, Lyric_t, "TEN "
6, 18599, Note_on_c, 3, 75, 0
6, 18698, Note_on_c, 3, 74, 127
6, 18698, Lyric_t, "TO "
6, 18921, Note_on_c, 3, 70, 113
6, 18921, Lyric_t, "ME "
6, 18923, Note_on_c, 3, 74, 0
6, 19108, Note_on_c, 3, 70, 0
6, 19168, Note_on_c, 3, 72, 127
6, 19168, Lyric_t, "BA"
6, 19376, Note_on_c, 3, 72, 0
6, 19426, Note_on_c, 3, 72, 124
6, 19426, Lyric_t, "BY "
6, 19426, Lyric_t, "\015"
6, 19643, Note_on_c, 3, 72, 0
6, 21835, Note_on_c, 3, 75, 127
6, 21835, Lyric_t, "BE"
6, 21939, Note_on_c, 3, 75, 0
6, 22080, Note_on_c, 3, 75, 127
6, 22080, Lyric_t, "FORE "
6, 22226, Note_on_c, 3, 75, 0
6, 22313, Note_on_c, 3, 75, 127
6, 22313, Lyric_t, "I "
6, 22455, Note_on_c, 3, 75, 0
6, 22552, Note_on_c, 3, 74, 115
6, 22552, Lyric_t, "LOVE "
6, 22770, Note_on_c, 3, 70, 104
6, 22770, Lyric_t, "AND "
6, 22790, Note_on_c, 3, 74, 0
6, 22987, Note_on_c, 3, 70, 0
6, 23031, Note_on_c, 3, 72, 121
6, 23031, Lyric_t, "LEAVE "
6, 23476, Note_on_c, 3, 72, 0
6, 23523, Note_on_c, 3, 72, 113
6, 23523, Lyric_t, "YOU "
6, 23523, Lyric_t, "\015"
6, 23907, Note_on_c, 3, 72, 0
6, 25682, Note_on_c, 3, 75, 106
6, 25682, Lyric_t, "THEY "
6, 25802, Note_on_c, 3, 75, 0
6, 25921, Note_on_c, 3, 75, 127
6, 25921, Lyric_t, "CALL "
6, 26076, Note_on_c, 3, 75, 0
6, 26156, Note_on_c, 3, 75, 120
6, 26156, Lyric_t, "ME "
6, 26342, Note_on_c, 3, 75, 0
6, 26388, Note_on_c, 3, 74, 124
6, 26388, Lyric_t, "HEART "
6, 26717, Note_on_c, 3, 74, 0
6, 26861, Note_on_c, 3, 72, 127
6, 26861, Lyric_t, "BREA"
6, 27038, Note_on_c, 3, 72, 0
6, 27103, Note_on_c, 3, 72, 118
6, 27103, Lyric_t, "KER "
6, 27103, Lyric_t, "\015"
6, 27298, Note_on_c, 3, 72, 0
6, 29520, Note_on_c, 3, 75, 127
6, 29520, Lyric_t, "I "
6, 29625, Note_on_c, 3, 75, 0
6, 29765, Note_on_c, 3, 75, 127
6, 29765, Lyric_t, "DON'T "
6, 29911, Note_on_c, 3, 75, 0
6, 29998, Note_on_c, 3, 75, 127
6, 29998, Lyric_t, "WAN"
6, 30140, Note_on_c, 3, 75, 0
6, 30238, Note_on_c, 3, 74, 115
6, 30238, Lyric_t, "NA "
6, 30456, Note_on_c, 3, 70, 104
6, 30456, Lyric_t, "DE"
6, 30476, Note_on_c, 3, 74, 0
6, 30673, Note_on_c, 3, 70, 0
6, 30716, Note_on_c, 3, 72, 121
6, 30716, Lyric_t, "CIEVE "
6, 31161, Note_on_c, 3, 72, 0
6, 31209, Note_on_c, 3, 72, 113
6, 31209, Lyric_t, "YOU "
6, 31209, Lyric_t, "\015"
6, 31209, Lyric_t, "\012"
6, 31592, Note_on_c, 3, 72, 0
6, 33840, Note_on_c, 3, 70, 113
6, 33840, Lyric_t, "IF "
6, 33926, Note_on_c, 3, 70, 0
6, 34080, Note_on_c, 3, 70, 127
6, 34080, Lyric_t, "YOU "
6, 34314, Note_on_c, 3, 70, 0
6, 34320, Note_on_c, 3, 82, 120
6, 34320, Lyric_t, "FALL "
6, 35246, Note_on_c, 3, 82, 0
6, 35280, Note_on_c, 3, 79, 127
6, 35280, Lyric_t, "FOR "
6, 35962, Note_on_c, 3, 79, 0
6, 36000, Note_on_c, 3, 77, 127
6, 36000, Lyric_t, "ME "
6, 36000, Lyric_t, "\015"
6, 37007, Note_on_c, 3, 77, 0
6, 37680, Note_on_c, 3, 70, 113
6, 37680, Lyric_t, "I'M "
6, 37766, Note_on_c, 3, 70, 0
6, 37920, Note_on_c, 3, 70, 127
6, 37920, Lyric_t, "NOT "
6, 38154, Note_on_c, 3, 70, 0
6, 38160, Note_on_c, 3, 82, 127
6, 38160, Lyric_t, "EA"
6, 39086, Note_on_c, 3, 82, 0
6, 39120, Note_on_c, 3, 79, 127
6, 39120, Lyric_t, "SY "
6, 39802, Note_on_c, 3, 79, 0
6, 39840, Note_on_c, 3, 75, 127
6, 39840, Lyric_t, "TO "
6, 40047, Note_on_c, 3, 75, 0
6, 40080, Note_on_c, 3, 77, 127
6, 40080, Lyric_t, "PLEASE "
6, 40080, Lyric_t, "\015"
6, 41236, Note_on_c, 3, 77, 0
6, 41520, Note_on_c, 3, 70, 113
6, 41520, Lyric_t, "I'M"
6, 41606, Note_on_c, 3, 70, 0
6, 41760, Note_on_c, 3, 70, 127
6, 41760, Lyric_t, "MA "
6, 41994, Note_on_c, 3, 70, 0
6, 42000, Note_on_c, 3, 82, 127
6, 42000, Lyric_t, "TEAR "
6, 42926, Note_on_c, 3, 82, 0
6, 42960, Note_on_c, 3, 79, 127
6, 42960, Lyric_t, "YOU "
6, 43642, Note_on_c, 3, 79, 0
6, 43680, Note_on_c, 3, 75, 127
6, 43680, Lyric_t, "A"
6, 43887, Note_on_c, 3, 75, 0
6, 43920, Note_on_c, 3, 77, 127
6, 43920, Lyric_t, "PART "
6, 43920, Lyric_t, "\015"
6, 45076, Note_on_c, 3, 77, 0
6, 45331, Note_on_c, 3, 75, 113
6, 45331, Lyric_t, "TOLD "
6, 45433, Note_on_c, 3, 75, 0
6, 45571, Note_on_c, 3, 75, 127
6, 45571, Lyric_t, "YOU "
6, 45784, Note_on_c, 3, 75, 0
6, 45808, Note_on_c, 3, 77, 118
6, 45808, Lyric_t, "FROM "
6, 46049, Note_on_c, 3, 79, 118
6, 46049, Lyric_t, "THE "
6, 46081, Note_on_c, 3, 77, 0
6, 46200, Note_on_c, 3, 79, 0
6, 46300, Note_on_c, 3, 79, 118
6, 46300, Lyric_t, "START, "
6, 46703, Note_on_c, 3, 79, 0
6, 47283, Note_on_c, 3, 75, 127
6, 47283, Lyric_t, "BA"
6, 47362, Note_on_c, 3, 75, 0
6, 47512, Note_on_c, 3, 75, 127
6, 47512, Lyric_t, "BY "
6, 47731, Note_on_c, 3, 75, 0
6, 47742, Note_on_c, 3, 77, 124
6, 47742, Lyric_t, "FROM "
6, 47974, Note_on_c, 3, 79, 118
6, 47974, Lyric_t, "THE "
6, 48006, Note_on_c, 3, 77, 0
6, 48107, Note_on_c, 3, 79, 0
6, 48225, Note_on_c, 3, 79, 121
6, 48225, Lyric_t, "START. "
6, 48225, Lyric_t, "\015"
6, 48225, Lyric_t, "\012"
6, 48585, Note_on_c, 3, 79, 0
6, 48750, Note_on_c, 3, 74, 121
6, 48750, Lyric_t, "I'M "
6, 48839, Note_on_c, 3, 74, 0
6, 48982, Note_on_c, 3, 74, 127
6, 48982, Lyric_t, "ON"
6, 49142, Note_on_c, 3, 74, 0
6, 49208, Note_on_c, 3, 74, 127
6, 49208, Lyric_t, "LY "
6, 49412, Note_on_c, 3, 74, 0
6, 49431, Note_on_c, 3, 72, 115
6, 49431, Lyric_t, "GON"
6, 49661, Note_on_c, 3, 74, 124
6, 49661, Lyric_t, "NA "
6, 49674, Note_on_c, 3, 72, 0
6, 49860, Note_on_c, 3, 74, 0
6, 49920, Note_on_c, 3, 75, 113
6, 49920, Lyric_t, "BREAK "
6, 50090, Note_on_c, 3, 75, 0
6, 50280, Note_on_c, 3, 75, 113
6, 50280, Lyric_t, "BREAK "
6, 50507, Note_on_c, 3, 75, 0
6, 50640, Note_on_c, 3, 74, 118
6, 50640, Lyric_t, "YA "
6, 50857, Note_on_c, 3, 74, 0
6, 50880, Note_on_c, 3, 75, 120
6, 50880, Lyric_t, "BREAK "
6, 51099, Note_on_c, 3, 75, 0
6, 51240, Note_on_c, 3, 75, 127
6, 51240, Lyric_t, "BREAK "
6, 51448, Note_on_c, 3, 75, 0
6, 51600, Note_on_c, 3, 74, 121
6, 51600, Lyric_t, "YA "
6, 51815, Note_on_c, 3, 74, 0
6, 51840, Note_on_c, 3, 70, 101
6, 51840, Lyric_t, "HEART. "
6, 51840, Lyric_t, "\015"
6, 52176, Note_on_c, 3, 70, 0
6, 52560, Note_on_c, 3, 74, 115
6, 52560, Lyric_t, "I'M "
6, 52659, Note_on_c, 3, 74, 0
6, 52800, Note_on_c, 3, 74, 127
6, 52800, Lyric_t, "ON"
6, 52962, Note_on_c, 3, 74, 0
6, 53040, Note_on_c, 3, 74, 121
6, 53040, Lyric_t, "LY "
6, 53172, Note_on_c, 3, 74, 0
6, 53280, Note_on_c, 3, 72, 121
6, 53280, Lyric_t, "GON"
6, 53520, Note_on_c, 3, 74, 121
6, 53520, Lyric_t, "NA "
6, 53551, Note_on_c, 3, 72, 0
6, 53745, Note_on_c, 3, 74, 0
6, 53760, Note_on_c, 3, 75, 113
6, 53760, Lyric_t, "BREAK "
6, 53930, Note_on_c, 3, 75, 0
6, 54120, Note_on_c, 3, 75, 113
6, 54120, Lyric_t, "BREAK "
6, 54347, Note_on_c, 3, 75, 0
6, 54480, Note_on_c, 3, 74, 118
6, 54480, Lyric_t, "YA "
6, 54697, Note_on_c, 3, 74, 0
6, 54720, Note_on_c, 3, 75, 120
6, 54720, Lyric_t, "BREAK "
6, 54939, Note_on_c, 3, 75, 0
6, 55080, Note_on_c, 3, 75, 127
6, 55080, Lyric_t, "BREAK "
6, 55288, Note_on_c, 3, 75, 0
6, 55440, Note_on_c, 3, 74, 121
6, 55440, Lyric_t, "YA "
6, 55655, Note_on_c, 3, 74, 0
6, 55680, Note_on_c, 3, 75, 121
6, 55680, Lyric_t, "HEART "
6, 55895, Note_on_c, 3, 75, 0
6, 55920, Note_on_c, 3, 77, 121
6, 55920, Lyric_t, "_ "
6, 55920, Lyric_t, "\015"
6, 56135, Note_on_c, 3, 77, 0
6, 56400, Note_on_c, 3, 74, 115
6, 56400, Lyric_t, "I'M "
6, 56499, Note_on_c, 3, 74, 0
6, 56640, Note_on_c, 3, 74, 127
6, 56640, Lyric_t, "ON"
6, 56802, Note_on_c, 3, 74, 0
6, 56880, Note_on_c, 3, 74, 121
6, 56880, Lyric_t, "LY "
6, 57012, Note_on_c, 3, 74, 0
6, 57120, Note_on_c, 3, 72, 121
6, 57120, Lyric_t, "GON"
6, 57360, Note_on_c, 3, 74, 121
6, 57360, Lyric_t, "NA "
6, 57391, Note_on_c, 3, 72, 0
6, 57585, Note_on_c, 3, 74, 0
6, 57600, Note_on_c, 3, 75, 113
6, 57600, Lyric_t, "BREAK "
6, 57770, Note_on_c, 3, 75, 0
6, 57960, Note_on_c, 3, 75, 113
6, 57960, Lyric_t, "BREAK "
6, 58187, Note_on_c, 3, 75, 0
6, 58320, Note_on_c, 3, 74, 118
6, 58320, Lyric_t, "YA "
6, 58537, Note_on_c, 3, 74, 0
6, 58560, Note_on_c, 3, 75, 120
6, 58560, Lyric_t, "BREAK "
6, 58779, Note_on_c, 3, 75, 0
6, 58920, Note_on_c, 3, 75, 127
6, 58920, Lyric_t, "BREAK "
6, 59128, Note_on_c, 3, 75, 0
6, 59280, Note_on_c, 3, 74, 121
6, 59280, Lyric_t, "YA "
6, 59495, Note_on_c, 3, 74, 0
6, 59520, Note_on_c, 3, 70, 101
6, 59520, Lyric_t, "HEART "
6, 59520, Lyric_t, "\015"
6, 59856, Note_on_c, 3, 70, 0
6, 60240, Note_on_c, 3, 74, 115
6, 60240, Lyric_t, "I'M "
6, 60339, Note_on_c, 3, 74, 0
6, 60480, Note_on_c, 3, 74, 127
6, 60480, Lyric_t, "ON"
6, 60642, Note_on_c, 3, 74, 0
6, 60720, Note_on_c, 3, 74, 121
6, 60720, Lyric_t, "LY "
6, 60852, Note_on_c, 3, 74, 0
6, 60960, Note_on_c, 3, 72, 121
6, 60960, Lyric_t, "GON"
6, 61200, Note_on_c, 3, 74, 121
6, 61200, Lyric_t, "NA "
6, 61231, Note_on_c, 3, 72, 0
6, 61425, Note_on_c, 3, 74, 0
6, 61440, Note_on_c, 3, 75, 113
6, 61440, Lyric_t, "BREAK "
6, 61610, Note_on_c, 3, 75, 0
6, 61800, Note_on_c, 3, 75, 113
6, 61800, Lyric_t, "BREAK "
6, 62027, Note_on_c, 3, 75, 0
6, 62160, Note_on_c, 3, 74, 118
6, 62160, Lyric_t, "YA "
6, 62377, Note_on_c, 3, 74, 0
6, 62400, Note_on_c, 3, 75, 120
6, 62400, Lyric_t, "BREAK "
6, 62619, Note_on_c, 3, 75, 0
6, 62760, Note_on_c, 3, 75, 127
6, 62760, Lyric_t, "BREAK "
6, 62968, Note_on_c, 3, 75, 0
6, 63120, Note_on_c, 3, 74, 121
6, 63120, Lyric_t, "YA "
6, 63335, Note_on_c, 3, 74, 0
6, 63360, Note_on_c, 3, 75, 121
6, 63360, Lyric_t, "HEART "
6, 63575, Note_on_c, 3, 75, 0
6, 63600, Note_on_c, 3, 77, 121
6, 63600, Lyric_t, "_ "
6, 63600, Lyric_t, "\015"
6, 63815, Note_on_c, 3, 77, 0
6, 64560, Note_on_c, 3, 75, 127
6, 64560, Lyric_t, "WOAH "
6, 64800, Note_on_c, 3, 74, 118
6, 64800, Lyric_t, "OAH "
6, 64818, Note_on_c, 3, 75, 0
6, 65040, Note_on_c, 3, 72, 115
6, 65040, Lyric_t, "OAH "
6, 65050, Note_on_c, 3, 74, 0
6, 65915, Note_on_c, 3, 72, 0
6, 66000, Note_on_c, 3, 70, 104
6, 66000, Lyric_t, "OAH "
6, 66924, Note_on_c, 3, 70, 0
6, 66960, Note_on_c, 3, 70, 102
6, 66960, Lyric_t, "OAH "
6, 66960, Lyric_t, "\015"
6, 68166, Note_on_c, 3, 70, 0
6, 68400, Note_on_c, 3, 75, 127
6, 68400, Lyric_t, "WOAH "
6, 68640, Note_on_c, 3, 74, 118
6, 68640, Lyric_t, "OAH "
6, 68658, Note_on_c, 3, 75, 0
6, 68880, Note_on_c, 3, 72, 115
6, 68880, Lyric_t, "OAH "
6, 68890, Note_on_c, 3, 74, 0
6, 69755, Note_on_c, 3, 72, 0
6, 69840, Note_on_c, 3, 70, 104
6, 69840, Lyric_t, "OAH "
6, 70764, Note_on_c, 3, 70, 0
6, 70800, Note_on_c, 3, 70, 102
6, 70800, Lyric_t, "OAH "
6, 70800, Lyric_t, "\015"
6, 70800, Lyric_t, "\012"
6, 71518, Note_on_c, 3, 70, 0
6, 71730, Note_on_c, 3, 70, 120
6, 71730, Lyric_t, "THERES "
6, 71851, Note_on_c, 3, 70, 0
6, 71996, Note_on_c, 3, 70, 127
6, 71996, Lyric_t, "NOT "
6, 72195, Note_on_c, 3, 70, 0
6, 72222, Note_on_c, 3, 75, 127
6, 72222, Lyric_t, "POINT "
6, 72359, Note_on_c, 3, 75, 0
6, 72458, Note_on_c, 3, 74, 127
6, 72458, Lyric_t, "TRYING "
6, 72681, Note_on_c, 3, 70, 113
6, 72681, Lyric_t, "TO "
6, 72683, Note_on_c, 3, 74, 0
6, 72868, Note_on_c, 3, 70, 0
6, 72928, Note_on_c, 3, 72, 127
6, 72928, Lyric_t, "HIDE "
6, 73136, Note_on_c, 3, 72, 0
6, 73186, Note_on_c, 3, 72, 124
6, 73186, Lyric_t, "IT "
6, 73186, Lyric_t, "\015"
6, 73403, Note_on_c, 3, 72, 0
6, 75595, Note_on_c, 3, 75, 127
6, 75595, Lyric_t, "NO "
6, 75699, Note_on_c, 3, 75, 0
6, 75840, Note_on_c, 3, 75, 127
6, 75840, Lyric_t, "POINT "
6, 75986, Note_on_c, 3, 75, 0
6, 76073, Note_on_c, 3, 75, 127
6, 76073, Lyric_t, "TRYING "
6, 76215, Note_on_c, 3, 75, 0
6, 76312, Note_on_c, 3, 74, 115
6, 76312, Lyric_t, "TO "
6, 76530, Note_on_c, 3, 70, 104
6, 76530, Lyric_t, "E"
6, 76550, Note_on_c, 3, 74, 0
6, 76747, Note_on_c, 3, 70, 0
6, 76791, Note_on_c, 3, 72, 121
6, 76791, Lyric_t, "RASE "
6, 77236, Note_on_c, 3, 72, 0
6, 77283, Note_on_c, 3, 72, 113
6, 77283, Lyric_t, "ME "
6, 77283, Lyric_t, "\015"
6, 77667, Note_on_c, 3, 72, 0
6, 79442, Note_on_c, 3, 75, 106
6, 79442, Lyric_t, "I "
6, 79562, Note_on_c, 3, 75, 0
6, 79681, Note_on_c, 3, 75, 127
6, 79681, Lyric_t, "KNOW "
6, 79836, Note_on_c, 3, 75, 0
6, 79916, Note_on_c, 3, 75, 120
6, 79916, Lyric_t, "I "
6, 80102, Note_on_c, 3, 75, 0
6, 80148, Note_on_c, 3, 74, 124
6, 80148, Lyric_t, "GOT "
6, 80477, Note_on_c, 3, 74, 0
6, 80621, Note_on_c, 3, 72, 127
6, 80621, Lyric_t, "PRO"
6, 80798, Note_on_c, 3, 72, 0
6, 80863, Note_on_c, 3, 72, 118
6, 80863, Lyric_t, "BLEM "
6, 80863, Lyric_t, "\015"
6, 81058, Note_on_c, 3, 72, 0
6, 83280, Note_on_c, 3, 75, 127
6, 83280, Lyric_t, "BY "
6, 83385, Note_on_c, 3, 75, 0
6, 83525, Note_on_c, 3, 75, 127
6, 83525, Lyric_t, "DO"
6, 83671, Note_on_c, 3, 75, 0
6, 83758, Note_on_c, 3, 75, 127
6, 83758, Lyric_t, "ING "
6, 83900, Note_on_c, 3, 75, 0
6, 83998, Note_on_c, 3, 74, 115
6, 83998, Lyric_t, "THIS "
6, 84216, Note_on_c, 3, 70, 104
6, 84216, Lyric_t, "BE"
6, 84236, Note_on_c, 3, 74, 0
6, 84433, Note_on_c, 3, 70, 0
6, 84476, Note_on_c, 3, 72, 121
6, 84476, Lyric_t, "HA"
6, 84921, Note_on_c, 3, 72, 0
6, 84969, Note_on_c, 3, 72, 113
6, 84969, Lyric_t, "VIOUR "
6, 84969, Lyric_t, "\015"
6, 84969, Lyric_t, "\012"
6, 85352, Note_on_c, 3, 72, 0
6, 87600, Note_on_c, 3, 70, 113
6, 87600, Lyric_t, "IF "
6, 87686, Note_on_c, 3, 70, 0
6, 87840, Note_on_c, 3, 70, 127
6, 87840, Lyric_t, "YOU "
6, 88074, Note_on_c, 3, 70, 0
6, 88080, Note_on_c, 3, 82, 120
6, 88080, Lyric_t, "FALL "
6, 89006, Note_on_c, 3, 82, 0
6, 89040, Note_on_c, 3, 79, 127
6, 89040, Lyric_t, "FOR "
6, 89722, Note_on_c, 3, 79, 0
6, 89760, Note_on_c, 3, 77, 127
6, 89760, Lyric_t, "ME "
6, 89760, Lyric_t, "\015"
6, 90561, Note_on_c, 3, 77, 0
6, 91440, Note_on_c, 3, 70, 113
6, 91440, Lyric_t, "I'M "
6, 91526, Note_on_c, 3, 70, 0
6, 91680, Note_on_c, 3, 70, 127
6, 91680, Lyric_t, "NOT "
6, 91914, Note_on_c, 3, 70, 0
6, 91920, Note_on_c, 3, 82, 127
6, 91920, Lyric_t, "EA"
6, 92846, Note_on_c, 3, 82, 0
6, 92880, Note_on_c, 3, 79, 127
6, 92880, Lyric_t, "SY "
6, 93562, Note_on_c, 3, 79, 0
6, 93600, Note_on_c, 3, 75, 127
6, 93600, Lyric_t, "TO "
6, 93807, Note_on_c, 3, 75, 0
6, 93840, Note_on_c, 3, 77, 127
6, 93840, Lyric_t, "PLEASE "
6, 93840, Lyric_t, "\015"
6, 94996, Note_on_c, 3, 77, 0
6, 95280, Note_on_c, 3, 70, 113
6, 95280, Lyric_t, "I'M"
6, 95366, Note_on_c, 3, 70, 0
6, 95520, Note_on_c, 3, 70, 127
6, 95520, Lyric_t, "MA "
6, 95754, Note_on_c, 3, 70, 0
6, 95760, Note_on_c, 3, 82, 127
6, 95760, Lyric_t, "TEAR "
6, 96686, Note_on_c, 3, 82, 0
6, 96720, Note_on_c, 3, 79, 127
6, 96720, Lyric_t, "YOU "
6, 97402, Note_on_c, 3, 79, 0
6, 97440, Note_on_c, 3, 75, 127
6, 97440, Lyric_t, "A"
6, 97647, Note_on_c, 3, 75, 0
6, 97680, Note_on_c, 3, 77, 127
6, 97680, Lyric_t, "PART "
6, 97680, Lyric_t, "\015"
6, 98836, Note_on_c, 3, 77, 0
6, 99091, Note_on_c, 3, 75, 113
6, 99091, Lyric_t, "TOLD "
6, 99193, Note_on_c, 3, 75, 0
6, 99331, Note_on_c, 3, 75, 127
6, 99331, Lyric_t, "YOU "
6, 99544, Note_on_c, 3, 75, 0
6, 99568, Note_on_c, 3, 77, 118
6, 99568, Lyric_t, "FROM "
6, 99809, Note_on_c, 3, 79, 118
6, 99809, Lyric_t, "THE "
6, 99841, Note_on_c, 3, 77, 0
6, 99960, Note_on_c, 3, 79, 0
6, 100060, Note_on_c, 3, 79, 118
6, 100060, Lyric_t, "START, "
6, 100463, Note_on_c, 3, 79, 0
6, 101043, Note_on_c, 3, 75, 127
6, 101043, Lyric_t, "BA"
6, 101122, Note_on_c, 3, 75, 0
6, 101272, Note_on_c, 3, 75, 127
6, 101272, Lyric_t, "BY "
6, 101491, Note_on_c, 3, 75, 0
6, 101502, Note_on_c, 3, 77, 124
6, 101502, Lyric_t, "FROM "
6, 101734, Note_on_c, 3, 79, 118
6, 101734, Lyric_t, "THE "
6, 101766, Note_on_c, 3, 77, 0
6, 101867, Note_on_c, 3, 79, 0
6, 101985, Note_on_c, 3, 79, 121
6, 101985, Lyric_t, "START. "
6, 101985, Lyric_t, "\015"
6, 101985, Lyric_t, "\012"
6, 102345, Note_on_c, 3, 79, 0
6, 102510, Note_on_c, 3, 74, 121
6, 102510, Lyric_t, "I'M "
6, 102599, Note_on_c, 3, 74, 0
6, 102742, Note_on_c, 3, 74, 127
6, 102742, Lyric_t, "ON"
6, 102902, Note_on_c, 3, 74, 0
6, 102968, Note_on_c, 3, 74, 127
6, 102968, Lyric_t, "LY "
6, 103172, Note_on_c, 3, 74, 0
6, 103191, Note_on_c, 3, 72, 115
6, 103191, Lyric_t, "GON"
6, 103421, Note_on_c, 3, 74, 124
6, 103421, Lyric_t, "NA "
6, 103434, Note_on_c, 3, 72, 0
6, 103620, Note_on_c, 3, 74, 0
6, 103680, Note_on_c, 3, 75, 113
6, 103680, Lyric_t, "BREAK "
6, 103850, Note_on_c, 3, 75, 0
6, 104040, Note_on_c, 3, 75, 113
6, 104040, Lyric_t, "BREAK "
6, 104267, Note_on_c, 3, 75, 0
6, 104400, Note_on_c, 3, 74, 118
6, 104400, Lyric_t, "YA "
6, 104617, Note_on_c, 3, 74, 0
6, 104640, Note_on_c, 3, 75, 120
6, 104640, Lyric_t, "BREAK "
6, 104859, Note_on_c, 3, 75, 0
6, 105000, Note_on_c, 3, 75, 127
6, 105000, Lyric_t, "BREAK "
6, 105208, Note_on_c, 3, 75, 0
6, 105360, Note_on_c, 3, 74, 121
6, 105360, Lyric_t, "YA "
6, 105575, Note_on_c, 3, 74, 0
6, 105600, Note_on_c, 3, 70, 101
6, 105600, Lyric_t, "HEART. "
6, 105600, Lyric_t, "\015"
6, 105936, Note_on_c, 3, 70, 0
6, 106320, Note_on_c, 3, 74, 115
6, 106320, Lyric_t, "I'M "
6, 106419, Note_on_c, 3, 74, 0
6, 106560, Note_on_c, 3, 74, 127
6, 106560, Lyric_t, "ON"
6, 106722, Note_on_c, 3, 74, 0
6, 106800, Note_on_c, 3, 74, 121
6, 106800, Lyric_t, "LY "
6, 106932, Note_on_c, 3, 74, 0
6, 107040, Note_on_c, 3, 72, 121
6, 107040, Lyric_t, "GON"
6, 107280, Note_on_c, 3, 74, 121
6, 107280, Lyric_t, "NA "
6, 107311, Note_on_c, 3, 72, 0
6, 107505, Note_on_c, 3, 74, 0
6, 107520, Note_on_c, 3, 75, 113
6, 107520, Lyric_t, "BREAK "
6, 107690, Note_on_c, 3, 75, 0
6, 107880, Note_on_c, 3, 75, 113
6, 107880, Lyric_t, "BREAK "
6, 108107, Note_on_c, 3, 75, 0
6, 108240, Note_on_c, 3, 74, 118
6, 108240, Lyric_t, "YA "
6, 108457, Note_on_c, 3, 74, 0
6, 108480, Note_on_c, 3, 75, 120
6, 108480, Lyric_t, "BREAK "
6, 108699, Note_on_c, 3, 75, 0
6, 108840, Note_on_c, 3, 75, 127
6, 108840, Lyric_t, "BREAK "
6, 109048, Note_on_c, 3, 75, 0
6, 109200, Note_on_c, 3, 74, 121
6, 109200, Lyric_t, "YA "
6, 109415, Note_on_c, 3, 74, 0
6, 109440, Note_on_c, 3, 75, 121
6, 109440, Lyric_t, "HEART "
6, 109655, Note_on_c, 3, 75, 0
6, 109680, Note_on_c, 3, 77, 121
6, 109680, Lyric_t, "_ "
6, 109680, Lyric_t, "\015"
6, 109895, Note_on_c, 3, 77, 0
6, 110160, Note_on_c, 3, 74, 115
6, 110160, Lyric_t, "I'M "
6, 110259, Note_on_c, 3, 74, 0
6, 110400, Note_on_c, 3, 74, 127
6, 110400, Lyric_t, "ON"
6, 110562, Note_on_c, 3, 74, 0
6, 110640, Note_on_c, 3, 74, 121
6, 110640, Lyric_t, "LY "
6, 110772, Note_on_c, 3, 74, 0
6, 110880, Note_on_c, 3, 72, 121
6, 110880, Lyric_t, "GON"
6, 111120, Note_on_c, 3, 74, 121
6, 111120, Lyric_t, "NA "
6, 111151, Note_on_c, 3, 72, 0
6, 111345, Note_on_c, 3, 74, 0
6, 111360, Note_on_c, 3, 75, 113
6, 111360, Lyric_t, "BREAK "
6, 111530, Note_on_c, 3, 75, 0
6, 111720, Note_on_c, 3, 75, 113
6, 111720, Lyric_t, "BREAK "
6, 111947, Note_on_c, 3, 75, 0
6, 112080, Note_on_c, 3, 74, 118
6, 112080, Lyric_t, "YA "
6, 112297, Note_on_c, 3, 74, 0
6, 112320, Note_on_c, 3, 75, 120
6, 112320, Lyric_t, "BREAK "
6, 112539, Note_on_c, 3, 75, 0
6, 112680, Note_on_c, 3, 75, 127
6, 112680, Lyric_t, "BREAK "
6, 112888, Note_on_c, 3, 75, 0
6, 113040, Note_on_c, 3, 74, 121
6, 113040, Lyric_t, "YA "
6, 113255, Note_on_c, 3, 74, 0
6, 113280, Note_on_c, 3, 70, 101
6, 113280, Lyric_t, "HEART "
6, 113280, Lyric_t, "\015"
6, 113616, Note_on_c, 3, 70, 0
6, 114000, Note_on_c, 3, 74, 115
6, 114000, Lyric_t, "I'M "
6, 114099, Note_on_c, 3, 74, 0
6, 114240, Note_on_c, 3, 74, 127
6, 114240, Lyric_t, "ON"
6, 114402, Note_on_c, 3, 74, 0
6, 114480, Note_on_c, 3, 74, 121
6, 114480, Lyric_t, "LY "
6, 114612, Note_on_c, 3, 74, 0
6, 114720, Note_on_c, 3, 72, 121
6, 114720, Lyric_t, "GON"
6, 114960, Note_on_c, 3, 74, 121
6, 114960, Lyric_t, "NA "
6, 114991, Note_on_c, 3, 72, 0
6, 115185, Note_on_c, 3, 74, 0
6, 115200, Note_on_c, 3, 75, 113
6, 115200, Lyric_t, "BREAK "
6, 115370, Note_on_c, 3, 75, 0
6, 115560, Note_on_c, 3, 75, 113
6, 115560, Lyric_t, "BREAK "
6, 115787, Note_on_c, 3, 75, 0
6, 115920, Note_on_c, 3, 74, 118
6, 115920, Lyric_t, "YA "
6, 116137, Note_on_c, 3, 74, 0
6, 116160, Note_on_c, 3, 75, 120
6, 116160, Lyric_t, "BREAK "
6, 116379, Note_on_c, 3, 75, 0
6, 116520, Note_on_c, 3, 75, 127
6, 116520, Lyric_t, "BREAK "
6, 116728, Note_on_c, 3, 75, 0
6, 116880, Note_on_c, 3, 74, 121
6, 116880, Lyric_t, "YA "
6, 117095, Note_on_c, 3, 74, 0
6, 117120, Note_on_c, 3, 75, 121
6, 117120, Lyric_t, "HEART "
6, 117335, Note_on_c, 3, 75, 0
6, 117360, Note_on_c, 3, 77, 121
6, 117360, Lyric_t, "_ "
6, 117360, Lyric_t, "\015"
6, 117575, Note_on_c, 3, 77, 0
6, 118320, Note_on_c, 3, 75, 127
6, 118320, Lyric_t, "WOAH "
6, 118560, Note_on_c, 3, 74, 118
6, 118560, Lyric_t, "OAH "
6, 118578, Note_on_c, 3, 75, 0
6, 118800, Note_on_c, 3, 72, 115
6, 118800, Lyric_t, "OAH "
6, 118810, Note_on_c, 3, 74, 0
6, 119675, Note_on_c, 3, 72, 0
6, 119760, Note_on_c, 3, 70, 104
6, 119760, Lyric_t, "OAH "
6, 120684, Note_on_c, 3, 70, 0
6, 120720, Note_on_c, 3, 70, 102
6, 120720, Lyric_t, "OAH "
6, 120720, Lyric_t, "\015"
6, 121926, Note_on_c, 3, 70, 0
6, 122160, Note_on_c, 3, 75, 127
6, 122160, Lyric_t, "WOAH "
6, 122400, Note_on_c, 3, 74, 118
6, 122400, Lyric_t, "OAH "
6, 122418, Note_on_c, 3, 75, 0
6, 122640, Note_on_c, 3, 72, 115
6, 122640, Lyric_t, "OAH "
6, 122650, Note_on_c, 3, 74, 0
6, 123515, Note_on_c, 3, 72, 0
6, 123600, Note_on_c, 3, 70, 104
6, 123600, Lyric_t, "OAH "
6, 124524, Note_on_c, 3, 70, 0
6, 124560, Note_on_c, 3, 70, 102
6, 124560, Lyric_t, "OAH "
6, 124560, Lyric_t, "\015"
6, 125766, Note_on_c, 3, 70, 0
6, 126000, Note_on_c, 3, 75, 127
6, 126000, Lyric_t, "WOAH "
6, 126240, Note_on_c, 3, 74, 118
6, 126240, Lyric_t, "OAH "
6, 126258, Note_on_c, 3, 75, 0
6, 126480, Note_on_c, 3, 72, 115
6, 126480, Lyric_t, "OAH "
6, 126490, Note_on_c, 3, 74, 0
6, 127355, Note_on_c, 3, 72, 0
6, 127440, Note_on_c, 3, 70, 104
6, 127440, Lyric_t, "OAH "
6, 128364, Note_on_c, 3, 70, 0
6, 128400, Note_on_c, 3, 70, 102
6, 128400, Lyric_t, "OAH "
6, 128400, Lyric_t, "\015"
6, 129606, Note_on_c, 3, 70, 0
6, 129840, Note_on_c, 3, 75, 127
6, 129840, Lyric_t, "WOAH "
6, 130080, Note_on_c, 3, 74, 118
6, 130080, Lyric_t, "OAH "
6, 130098, Note_on_c, 3, 75, 0
6, 130320, Note_on_c, 3, 72, 115
6, 130320, Lyric_t, "OAH "
6, 130330, Note_on_c, 3, 74, 0
6, 131195, Note_on_c, 3, 72, 0
6, 131280, Note_on_c, 3, 70, 104
6, 131280, Lyric_t, "OAH "
6, 132204, Note_on_c, 3, 70, 0
6, 132240, Note_on_c, 3, 70, 102
6, 132240, Lyric_t, "OAH "
6, 132240, Lyric_t, "\015"
6, 132240, Lyric_t, "\012"
6, 133446, Note_on_c, 3, 70, 0
6, 134640, Note_on_c, 3, 72, 124
6, 134640, Lyric_t, "HA "
6, 134640, Lyric_t, "\015"
6, 134846, Note_on_c, 3, 72, 0
6, 135120, Note_on_c, 3, 72, 121
6, 135120, Lyric_t, "AND "
6, 135181, Note_on_c, 3, 72, 0
6, 135240, Note_on_c, 3, 72, 121
6, 135240, Lyric_t, "I "
6, 135322, Note_on_c, 3, 72, 0
6, 135360, Note_on_c, 3, 72, 124
6, 135360, Lyric_t, "KNOW "
6, 135538, Note_on_c, 3, 72, 0
6, 135600, Note_on_c, 3, 72, 118
6, 135600, Lyric_t, "KAR"
6, 135728, Note_on_c, 3, 72, 0
6, 135840, Note_on_c, 3, 72, 127
6, 135840, Lyric_t, "MAS "
6, 135989, Note_on_c, 3, 72, 0
6, 136080, Note_on_c, 3, 72, 124
6, 136080, Lyric_t, "GON"
6, 136156, Note_on_c, 3, 72, 0
6, 136200, Note_on_c, 3, 72, 103
6, 136200, Lyric_t, "NA "
6, 136287, Note_on_c, 3, 72, 0
6, 136320, Note_on_c, 3, 72, 96
6, 136320, Lyric_t, "GET "
6, 136320, Lyric_t, "\015"
6, 136506, Note_on_c, 3, 72, 0
6, 136560, Note_on_c, 3, 72, 124
6, 136560, Lyric_t, "ME "
6, 136652, Note_on_c, 3, 72, 0
6, 136800, Note_on_c, 3, 72, 121
6, 136800, Lyric_t, "BACK "
6, 136965, Note_on_c, 3, 72, 0
6, 137040, Note_on_c, 3, 72, 115
6, 137040, Lyric_t, "FOR "
6, 137127, Note_on_c, 3, 72, 0
6, 137280, Note_on_c, 3, 72, 124
6, 137280, Lyric_t, "BEING "
6, 137486, Note_on_c, 3, 72, 0
6, 137520, Note_on_c, 3, 74, 115
6, 137520, Lyric_t, "SO "
6, 137760, Note_on_c, 3, 75, 127
6, 137760, Lyric_t, "COLD. "
6, 137760, Lyric_t, "\015"
6, 137766, Note_on_c, 3, 74, 0
6, 138358, Note_on_c, 3, 75, 0
6, 138480, Note_on_c, 3, 75, 127
6, 138480, Lyric_t, "HE "
6, 138480, Lyric_t, "\015"
6, 138725, Note_on_c, 3, 75, 0
6, 138960, Note_on_c, 3, 75, 113
6, 138960, Lyric_t, "LIKE "
6, 139008, Note_on_c, 3, 75, 0
6, 139080, Note_on_c, 3, 75, 106
6, 139080, Lyric_t, "A "
6, 139150, Note_on_c, 3, 75, 0
6, 139200, Note_on_c, 3, 75, 113
6, 139200, Lyric_t, "BIG "
6, 139379, Note_on_c, 3, 75, 0
6, 139440, Note_on_c, 3, 75, 106
6, 139440, Lyric_t, "BAD "
6, 139565, Note_on_c, 3, 75, 0
6, 139680, Note_on_c, 3, 75, 127
6, 139680, Lyric_t, "WOLF "
6, 139813, Note_on_c, 3, 75, 0
6, 139920, Note_on_c, 3, 75, 109
6, 139920, Lyric_t, "IM "
6, 140109, Note_on_c, 3, 75, 0
6, 140160, Note_on_c, 3, 74, 124
6, 140160, Lyric_t, "BORN "
6, 140160, Lyric_t, "\015"
6, 140299, Note_on_c, 3, 74, 0
6, 140400, Note_on_c, 3, 74, 115
6, 140400, Lyric_t, "TO "
6, 140458, Note_on_c, 3, 74, 0
6, 140520, Note_on_c, 3, 74, 121
6, 140520, Lyric_t, "BE "
6, 140599, Note_on_c, 3, 74, 0
6, 140640, Note_on_c, 3, 74, 118
6, 140640, Lyric_t, "BAD "
6, 140827, Note_on_c, 3, 74, 0
6, 140880, Note_on_c, 3, 74, 113
6, 140880, Lyric_t, "AN "
6, 140998, Note_on_c, 3, 74, 0
6, 141120, Note_on_c, 3, 74, 118
6, 141120, Lyric_t, "BAD "
6, 141238, Note_on_c, 3, 74, 0
6, 141360, Note_on_c, 3, 74, 127
6, 141360, Lyric_t, "TO "
6, 141458, Note_on_c, 3, 74, 0
6, 141480, Note_on_c, 3, 72, 115
6, 141480, Lyric_t, "THE "
6, 141596, Note_on_c, 3, 72, 0
6, 141600, Note_on_c, 3, 75, 127
6, 141600, Lyric_t, "BONE. "
6, 141600, Lyric_t, "\015"
6, 142025, Note_on_c, 3, 75, 0
6, 142328, Note_on_c, 3, 72, 121
6, 142328, Lyric_t, "HE "
6, 142328, Lyric_t, "\015"
6, 142540, Note_on_c, 3, 72, 0
6, 142800, Note_on_c, 3, 72, 118
6, 142800, Lyric_t, "IF "
6, 142864, Note_on_c, 3, 72, 0
6, 142920, Note_on_c, 3, 72, 98
6, 142920, Lyric_t, "YOU "
6, 142977, Note_on_c, 3, 72, 0
6, 143040, Note_on_c, 3, 75, 127
6, 143040, Lyric_t, "FALL "
6, 143250, Note_on_c, 3, 75, 0
6, 143280, Note_on_c, 3, 72, 115
6, 143280, Lyric_t, "FOR "
6, 143393, Note_on_c, 3, 72, 0
6, 143520, Note_on_c, 3, 72, 124
6, 143520, Lyric_t, "ME "
6, 143520, Lyric_t, "\015"
6, 143747, Note_on_c, 3, 72, 0
6, 143760, Note_on_c, 3, 75, 127
6, 143760, Lyric_t, "I "
6, 143989, Note_on_c, 3, 75, 0
6, 144000, Note_on_c, 3, 72, 127
6, 144000, Lyric_t, "AM"
6, 144037, Note_on_c, 3, 72, 0
6, 144120, Note_on_c, 3, 72, 127
6, 144120, Lyric_t, "MA "
6, 144220, Note_on_c, 3, 72, 0
6, 144240, Note_on_c, 3, 70, 120
6, 144240, Lyric_t, "GON"
6, 144342, Note_on_c, 3, 70, 0
6, 144480, Note_on_c, 3, 70, 127
6, 144480, Lyric_t, "NA "
6, 144693, Note_on_c, 3, 70, 0
6, 144720, Note_on_c, 3, 75, 127
6, 144720, Lyric_t, "TEAR "
6, 144818, Note_on_c, 3, 75, 0
6, 144960, Note_on_c, 3, 72, 124
6, 144960, Lyric_t, "YOU "
6, 145170, Note_on_c, 3, 72, 0
6, 145200, Note_on_c, 3, 70, 109
6, 145200, Lyric_t, "A"
6, 145440, Note_on_c, 3, 75, 127
6, 145440, Lyric_t, "PART "
6, 145440, Lyric_t, "\015"
6, 145446, Note_on_c, 3, 70, 0
6, 145854, Note_on_c, 3, 75, 0
6, 146188, Note_on_c, 3, 70, 102
6, 146188, Lyric_t, "HE "
6, 146188, Lyric_t, "\015"
6, 146430, Note_on_c, 3, 70, 0
6, 146638, Note_on_c, 3, 70, 113
6, 146638, Lyric_t, "TOLD "
6, 146689, Note_on_c, 3, 70, 0
6, 146764, Note_on_c, 3, 70, 104
6, 146764, Lyric_t, "YOU "
6, 146880, Note_on_c, 3, 75, 127
6, 146880, Lyric_t, "FROM "
6, 146887, Note_on_c, 3, 70, 0
6, 147113, Note_on_c, 3, 74, 118
6, 147113, Lyric_t, "THE "
6, 147116, Note_on_c, 3, 75, 0
6, 147228, Note_on_c, 3, 74, 0
6, 147343, Note_on_c, 3, 77, 109
6, 147343, Lyric_t, "START "
6, 147343, Lyric_t, "\015"
6, 148061, Note_on_c, 3, 77, 0
6, 148089, Note_on_c, 3, 74, 127
6, 148089, Lyric_t, "HE "
6, 148089, Lyric_t, "\015"
6, 148341, Note_on_c, 3, 74, 0
6, 148565, Note_on_c, 3, 74, 121
6, 148565, Lyric_t, "I'M "
6, 148651, Note_on_c, 3, 74, 0
6, 148811, Note_on_c, 3, 74, 115
6, 148811, Lyric_t, "ON"
6, 148990, Note_on_c, 3, 74, 0
6, 149049, Note_on_c, 3, 74, 127
6, 149049, Lyric_t, "LY "
6, 149180, Note_on_c, 3, 74, 0
6, 149275, Note_on_c, 3, 72, 124
6, 149275, Lyric_t, "GON"
6, 149527, Note_on_c, 3, 74, 127
6, 149527, Lyric_t, "NA "
6, 149557, Note_on_c, 3, 72, 0
6, 149714, Note_on_c, 3, 74, 0
6, 149760, Note_on_c, 3, 75, 113
6, 149760, Lyric_t, "BREAK "
6, 149930, Note_on_c, 3, 75, 0
6, 150120, Note_on_c, 3, 75, 113
6, 150120, Lyric_t, "BREAK "
6, 150347, Note_on_c, 3, 75, 0
6, 150480, Note_on_c, 3, 74, 118
6, 150480, Lyric_t, "YA "
6, 150697, Note_on_c, 3, 74, 0
6, 150720, Note_on_c, 3, 75, 120
6, 150720, Lyric_t, "BREAK "
6, 150939, Note_on_c, 3, 75, 0
6, 151080, Note_on_c, 3, 75, 127
6, 151080, Lyric_t, "BREAK "
6, 151288, Note_on_c, 3, 75, 0
6, 151440, Note_on_c, 3, 74, 121
6, 151440, Lyric_t, "YA "
6, 151655, Note_on_c, 3, 74, 0
6, 151680, Note_on_c, 3, 70, 101
6, 151680, Lyric_t, "HEART. "
6, 151680, Lyric_t, "\015"
6, 152016, Note_on_c, 3, 70, 0
6, 152400, Note_on_c, 3, 74, 115
6, 152400, Lyric_t, "I'M "
6, 152499, Note_on_c, 3, 74, 0
6, 152640, Note_on_c, 3, 74, 127
6, 152640, Lyric_t, "ON"
6, 152802, Note_on_c, 3, 74, 0
6, 152880, Note_on_c, 3, 74, 121
6, 152880, Lyric_t, "LY "
6, 153012, Note_on_c, 3, 74, 0
6, 153120, Note_on_c, 3, 72, 121
6, 153120, Lyric_t, "GON"
6, 153360, Note_on_c, 3, 74, 121
6, 153360, Lyric_t, "NA "
6, 153391, Note_on_c, 3, 72, 0
6, 153585, Note_on_c, 3, 74, 0
6, 153600, Note_on_c, 3, 75, 113
6, 153600, Lyric_t, "BREAK "
6, 153770, Note_on_c, 3, 75, 0
6, 153960, Note_on_c, 3, 75, 113
6, 153960, Lyric_t, "BREAK "
6, 154187, Note_on_c, 3, 75, 0
6, 154320, Note_on_c, 3, 74, 118
6, 154320, Lyric_t, "YA "
6, 154537, Note_on_c, 3, 74, 0
6, 154560, Note_on_c, 3, 75, 120
6, 154560, Lyric_t, "BREAK "
6, 154779, Note_on_c, 3, 75, 0
6, 154920, Note_on_c, 3, 75, 127
6, 154920, Lyric_t, "BREAK "
6, 155128, Note_on_c, 3, 75, 0
6, 155280, Note_on_c, 3, 74, 121
6, 155280, Lyric_t, "YA "
6, 155495, Note_on_c, 3, 74, 0
6, 155520, Note_on_c, 3, 75, 121
6, 155520, Lyric_t, "HEART "
6, 155735, Note_on_c, 3, 75, 0
6, 155760, Note_on_c, 3, 77, 121
6, 155760, Lyric_t, "_ "
6, 155760, Lyric_t, "\015"
6, 155975, Note_on_c, 3, 77, 0
6, 156240, Note_on_c, 3, 74, 115
6, 156240, Lyric_t, "I'M "
6, 156339, Note_on_c, 3, 74, 0
6, 156480, Note_on_c, 3, 74, 127
6, 156480, Lyric_t, "ON"
6, 156642, Note_on_c, 3, 74, 0
6, 156720, Note_on_c, 3, 74, 121
6, 156720, Lyric_t, "LY "
6, 156852, Note_on_c, 3, 74, 0
6, 156960, Note_on_c, 3, 72, 121
6, 156960, Lyric_t, "GON"
6, 157200, Note_on_c, 3, 74, 121
6, 157200, Lyric_t, "NA "
6, 157231, Note_on_c, 3, 72, 0
6, 157425, Note_on_c, 3, 74, 0
6, 157440, Note_on_c, 3, 75, 113
6, 157440, Lyric_t, "BREAK "
6, 157610, Note_on_c, 3, 75, 0
6, 157800, Note_on_c, 3, 75, 113
6, 157800, Lyric_t, "BREAK "
6, 158027, Note_on_c, 3, 75, 0
6, 158160, Note_on_c, 3, 74, 118
6, 158160, Lyric_t, "YA "
6, 158377, Note_on_c, 3, 74, 0
6, 158400, Note_on_c, 3, 75, 120
6, 158400, Lyric_t, "BREAK "
6, 158619, Note_on_c, 3, 75, 0
6, 158760, Note_on_c, 3, 75, 127
6, 158760, Lyric_t, "BREAK "
6, 158968, Note_on_c, 3, 75, 0
6, 159120, Note_on_c, 3, 74, 121
6, 159120, Lyric_t, "YA "
6, 159335, Note_on_c, 3, 74, 0
6, 159360, Note_on_c, 3, 70, 101
6, 159360, Lyric_t, "HEART "
6, 159360, Lyric_t, "\015"
6, 159696, Note_on_c, 3, 70, 0
6, 160080, Note_on_c, 3, 74, 115
6, 160080, Lyric_t, "I'M "
6, 160179, Note_on_c, 3, 74, 0
6, 160320, Note_on_c, 3, 74, 127
6, 160320, Lyric_t, "ON"
6, 160482, Note_on_c, 3, 74, 0
6, 160560, Note_on_c, 3, 74, 121
6, 160560, Lyric_t, "LY "
6, 160692, Note_on_c, 3, 74, 0
6, 160800, Note_on_c, 3, 72, 121
6, 160800, Lyric_t, "GON"
6, 161040, Note_on_c, 3, 74, 121
6, 161040, Lyric_t, "NA "
6, 161071, Note_on_c, 3, 72, 0
6, 161265, Note_on_c, 3, 74, 0
6, 161280, Note_on_c, 3, 75, 113
6, 161280, Lyric_t, "BREAK "
6, 161450, Note_on_c, 3, 75, 0
6, 161640, Note_on_c, 3, 75, 113
6, 161640, Lyric_t, "BREAK "
6, 161867, Note_on_c, 3, 75, 0
6, 162000, Note_on_c, 3, 74, 118
6, 162000, Lyric_t, "YA "
6, 162217, Note_on_c, 3, 74, 0
6, 162240, Note_on_c, 3, 75, 120
6, 162240, Lyric_t, "BREAK "
6, 162459, Note_on_c, 3, 75, 0
6, 162600, Note_on_c, 3, 75, 127
6, 162600, Lyric_t, "BREAK "
6, 162808, Note_on_c, 3, 75, 0
6, 162960, Note_on_c, 3, 74, 121
6, 162960, Lyric_t, "YA "
6, 163175, Note_on_c, 3, 74, 0
6, 163200, Note_on_c, 3, 75, 121
6, 163200, Lyric_t, "HEART "
6, 163415, Note_on_c, 3, 75, 0
6, 163440, Note_on_c, 3, 77, 121
6, 163440, Lyric_t, "_ "
6, 163440, Lyric_t, "\015"
6, 163655, Note_on_c, 3, 77, 0
6, 163939, Note_on_c, 3, 75, 120
6, 163939, Lyric_t, "I'M "
6, 164008, Note_on_c, 3, 75, 0
6, 164157, Note_on_c, 3, 74, 118
6, 164157, Lyric_t, "ON"
6, 164331, Note_on_c, 3, 74, 0
6, 164396, Note_on_c, 3, 74, 118
6, 164396, Lyric_t, "LY "
6, 164602, Note_on_c, 3, 74, 0
6, 164624, Note_on_c, 3, 72, 115
6, 164624, Lyric_t, "GON"
6, 164864, Note_on_c, 3, 74, 124
6, 164864, Lyric_t, "NA "
6, 164891, Note_on_c, 3, 72, 0
6, 165105, Note_on_c, 3, 74, 0
6, 165120, Note_on_c, 3, 75, 113
6, 165120, Lyric_t, "BREAK "
6, 165290, Note_on_c, 3, 75, 0
6, 165480, Note_on_c, 3, 75, 113
6, 165480, Lyric_t, "BREAK "
6, 165707, Note_on_c, 3, 75, 0
6, 165840, Note_on_c, 3, 74, 118
6, 165840, Lyric_t, "YA "
6, 166057, Note_on_c, 3, 74, 0
6, 166080, Note_on_c, 3, 75, 120
6, 166080, Lyric_t, "BREAK "
6, 166299, Note_on_c, 3, 75, 0
6, 166440, Note_on_c, 3, 75, 127
6, 166440, Lyric_t, "BREAK "
6, 166648, Note_on_c, 3, 75, 0
6, 166800, Note_on_c, 3, 74, 121
6, 166800, Lyric_t, "YA "
6, 167015, Note_on_c, 3, 74, 0
6, 167040, Note_on_c, 3, 70, 101
6, 167040, Lyric_t, "HEART. "
6, 167040, Lyric_t, "\015"
6, 167376, Note_on_c, 3, 70, 0
6, 167760, Note_on_c, 3, 74, 115
6, 167760, Lyric_t, "I'M "
6, 167859, Note_on_c, 3, 74, 0
6, 168000, Note_on_c, 3, 74, 127
6, 168000, Lyric_t, "ON"
6, 168162, Note_on_c, 3, 74, 0
6, 168240, Note_on_c, 3, 74, 121
6, 168240, Lyric_t, "LY "
6, 168372, Note_on_c, 3, 74, 0
6, 168480, Note_on_c, 3, 72, 121
6, 168480, Lyric_t, "GON"
6, 168720, Note_on_c, 3, 74, 121
6, 168720, Lyric_t, "NA "
6, 168751, Note_on_c, 3, 72, 0
6, 168945, Note_on_c, 3, 74, 0
6, 168960, Note_on_c, 3, 75, 113
6, 168960, Lyric_t, "BREAK "
6, 169130, Note_on_c, 3, 75, 0
6, 169320, Note_on_c, 3, 75, 113
6, 169320, Lyric_t, "BREAK "
6, 169547, Note_on_c, 3, 75, 0
6, 169680, Note_on_c, 3, 74, 118
6, 169680, Lyric_t, "YA "
6, 169897, Note_on_c, 3, 74, 0
6, 169920, Note_on_c, 3, 75, 120
6, 169920, Lyric_t, "BREAK "
6, 170139, Note_on_c, 3, 75, 0
6, 170280, Note_on_c, 3, 75, 127
6, 170280, Lyric_t, "BREAK "
6, 170488, Note_on_c, 3, 75, 0
6, 170640, Note_on_c, 3, 74, 121
6, 170640, Lyric_t, "YA "
6, 170855, Note_on_c, 3, 74, 0
6, 170880, Note_on_c, 3, 75, 121
6, 170880, Lyric_t, "HEART "
6, 171095, Note_on_c, 3, 75, 0
6, 171120, Note_on_c, 3, 77, 121
6, 171120, Lyric_t, "_ "
6, 171120, Lyric_t, "\015"
6, 171335, Note_on_c, 3, 77, 0
6, 171600, Note_on_c, 3, 74, 115
6, 171600, Lyric_t, "I'M "
6, 171699, Note_on_c, 3, 74, 0
6, 171840, Note_on_c, 3, 74, 127
6, 171840, Lyric_t, "ON"
6, 172002, Note_on_c, 3, 74, 0
6, 172080, Note_on_c, 3, 74, 121
6, 172080, Lyric_t, "LY "
6, 172212, Note_on_c, 3, 74, 0
6, 172320, Note_on_c, 3, 72, 121
6, 172320, Lyric_t, "GON"
6, 172560, Note_on_c, 3, 74, 121
6, 172560, Lyric_t, "NA "
6, 172591, Note_on_c, 3, 72, 0
6, 172785, Note_on_c, 3, 74, 0
6, 172800, Note_on_c, 3, 75, 113
6, 172800, Lyric_t, "BREAK "
6, 172970, Note_on_c, 3, 75, 0
6, 173160, Note_on_c, 3, 75, 113
6, 173160, Lyric_t, "BREAK "
6, 173387, Note_on_c, 3, 75, 0
6, 173520, Note_on_c, 3, 74, 118
6, 173520, Lyric_t, "YA "
6, 173737, Note_on_c, 3, 74, 0
6, 173760, Note_on_c, 3, 75, 120
6, 173760, Lyric_t, "BREAK "
6, 173979, Note_on_c, 3, 75, 0
6, 174120, Note_on_c, 3, 75, 127
6, 174120, Lyric_t, "BREAK "
6, 174328, Note_on_c, 3, 75, 0
6, 174480, Note_on_c, 3, 74, 121
6, 174480, Lyric_t, "YA "
6, 174695, Note_on_c, 3, 74, 0
6, 174720, Note_on_c, 3, 70, 101
6, 174720, Lyric_t, "HEART "
6, 174720, Lyric_t, "\015"
6, 175056, Note_on_c, 3, 70, 0
6, 175440, Note_on_c, 3, 74, 115
6, 175440, Lyric_t, "I'M "
6, 175539, Note_on_c, 3, 74, 0
6, 175680, Note_on_c, 3, 74, 127
6, 175680, Lyric_t, "ON"
6, 175842, Note_on_c, 3, 74, 0
6, 175920, Note_on_c, 3, 74, 121
6, 175920, Lyric_t, "LY "
6, 176052, Note_on_c, 3, 74, 0
6, 176160, Note_on_c, 3, 72, 121
6, 176160, Lyric_t, "GON"
6, 176400, Note_on_c, 3, 74, 121
6, 176400, Lyric_t, "NA "
6, 176431, Note_on_c, 3, 72, 0
6, 176625, Note_on_c, 3, 74, 0
6, 176640, Note_on_c, 3, 75, 113
6, 176640, Lyric_t, "BREAK "
6, 176810, Note_on_c, 3, 75, 0
6, 177000, Note_on_c, 3, 75, 113
6, 177000, Lyric_t, "BREAK "
6, 177227, Note_on_c, 3, 75, 0
6, 177360, Note_on_c, 3, 74, 118
6, 177360, Lyric_t, "YA "
6, 177577, Note_on_c, 3, 74, 0
6, 177600, Note_on_c, 3, 75, 120
6, 177600, Lyric_t, "BREAK "
6, 177819, Note_on_c, 3, 75, 0
6, 177960, Note_on_c, 3, 75, 127
6, 177960, Lyric_t, "BREAK "
6, 178168, Note_on_c, 3, 75, 0
6, 178320, Note_on_c, 3, 74, 121
6, 178320, Lyric_t, "YA "
6, 178535, Note_on_c, 3, 74, 0
6, 178560, Note_on_c, 3, 75, 121
6, 178560, Lyric_t, "HEART "
6, 178775, Note_on_c, 3, 75, 0
6, 178800, Note_on_c, 3, 77, 121
6, 178800, Lyric_t, "_ "
6, 178800, Lyric_t, "\015"
6, 178800, Lyric_t, "\012"
6, 179015, Note_on_c, 3, 77, 0
6, 179760, Note_on_c, 3, 75, 127
6, 179760, Lyric_t, "WOAH "
6, 180000, Note_on_c, 3, 74, 118
6, 180000, Lyric_t, "OAH "
6, 180018, Note_on_c, 3, 75, 0
6, 180240, Note_on_c, 3, 72, 115
6, 180240, Lyric_t, "OAH "
6, 180250, Note_on_c, 3, 74, 0
6, 181115, Note_on_c, 3, 72, 0
6, 181200, Note_on_c, 3, 70, 104
6, 181200, Lyric_t, "OAH "
6, 182124, Note_on_c, 3, 70, 0
6, 182160, Note_on_c, 3, 70, 102
6, 182160, Lyric_t, "OAH "
6, 182160, Lyric_t, "\015"
6, 183366, Note_on_c, 3, 70, 0
6, 183600, Note_on_c, 3, 75, 127
6, 183600, Lyric_t, "WOAH "
6, 183840, Note_on_c, 3, 74, 118
6, 183840, Lyric_t, "OAH "
6, 183858, Note_on_c, 3, 75, 0
6, 184080, Note_on_c, 3, 72, 115
6, 184080, Lyric_t, "OAH "
6, 184090, Note_on_c, 3, 74, 0
6, 184955, Note_on_c, 3, 72, 0
6, 185040, Note_on_c, 3, 70, 104
6, 185040, Lyric_t, "OAH "
6, 185964, Note_on_c, 3, 70, 0
6, 186000, Note_on_c, 3, 70, 102
6, 186000, Lyric_t, "OAH "
6, 186000, Lyric_t, "\015"
6, 187206, Note_on_c, 3, 70, 0
6, 187440, Note_on_c, 3, 75, 127
6, 187440, Lyric_t, "WOAH "
6, 187680, Note_on_c, 3, 74, 118
6, 187680, Lyric_t, "OAH "
6, 187698, Note_on_c, 3, 75, 0
6, 187920, Note_on_c, 3, 72, 115
6, 187920, Lyric_t, "OAH "
6, 187930, Note_on_c, 3, 74, 0
6, 188795, Note_on_c, 3, 72, 0
6, 188880, Note_on_c, 3, 70, 104
6, 188880, Lyric_t, "OAH "
6, 189804, Note_on_c, 3, 70, 0
6, 189840, Note_on_c, 3, 70, 102
6, 189840, Lyric_t, "OAH "
6, 189840, Lyric_t, "\015"
6, 191046, Note_on_c, 3, 70, 0
6, 191280, Note_on_c, 3, 75, 127
6, 191280, Lyric_t, "WOAH "
6, 191520, Note_on_c, 3, 74, 118
6, 191520, Lyric_t, "OAH "
6, 191538, Note_on_c, 3, 75, 0
6, 191760, Note_on_c, 3, 72, 115
6, 191760, Lyric_t, "OAH "
6, 191770, Note_on_c, 3, 74, 0
6, 192635, Note_on_c, 3, 72, 0
6, 192720, Note_on_c, 3, 70, 104
6, 192720, Lyric_t, "OAH "
6, 193644, Note_on_c, 3, 70, 0
6, 193680, Note_on_c, 3, 70, 102
6, 193680, Lyric_t, "OAH. "
6, 193680, Lyric_t, "\015"
6, 193680, Lyric_t, "\012"
6, 194886, Note_on_c, 3, 70, 0
6, 194886, End_track
7, 0, Start_track
7, 0, MIDI_port, 0
7, 0, Title_t, "Nappes "
7, 500, Control_c, 4, 0, 1
7, 502, Program_c, 4, 90
7, 503, Control_c, 4, 7, 100
7, 503, Control_c, 4, 10, 74
7, 1185, Control_c, 4, 121, 0
7, 1192, Control_c, 4, 91, 60
7, 1193, Control_c, 4, 93, 30
7, 1195, Control_c, 4, 94, 5
7, 1196, Control_c, 4, 11, 127
7, 1200, Control_c, 4, 101, 0
7, 1200, Control_c, 4, 100, 0
7, 1200, Control_c, 4, 6, 2
7, 1200, Control_c, 4, 38, 0
7, 1201, Control_c, 4, 71, 64
7, 1202, Control_c, 4, 72, 64
7, 1203, Control_c, 4, 73, 64
7, 1205, Control_c, 4, 74, 64
7, 3840, Note_on_c, 4, 48, 100
7, 3840, Note_on_c, 4, 55, 100
7, 3840, Note_on_c, 4, 60, 100
7, 3840, Note_on_c, 4, 63, 100
7, 4547, Note_on_c, 4, 63, 0
7, 4547, Note_on_c, 4, 48, 0
7, 4547, Note_on_c, 4, 55, 0
7, 4560, Note_on_c, 4, 44, 100
7, 4560, Note_on_c, 4, 56, 100
7, 4560, Note_on_c, 4, 63, 100
7, 5507, Note_on_c, 4, 63, 0
7, 5507, Note_on_c, 4, 60, 0
7, 5507, Note_on_c, 4, 44, 0
7, 5507, Note_on_c, 4, 56, 0
7, 5520, Note_on_c, 4, 46, 100
7, 5520, Note_on_c, 4, 55, 100
7, 5520, Note_on_c, 4, 58, 100
7, 5520, Note_on_c, 4, 63, 100
7, 6467, Note_on_c, 4, 63, 0
7, 6467, Note_on_c, 4, 46, 0
7, 6467, Note_on_c, 4, 55, 0
7, 6467, Note_on_c, 4, 58, 0
7, 6480, Note_on_c, 4, 55, 100
7, 6480, Note_on_c, 4, 58, 100
7, 6480, Note_on_c, 4, 62, 100
7, 6960, Note_on_c, 4, 51, 100
7, 6960, Note_on_c, 4, 67, 100
7, 7198, Note_on_c, 4, 67, 0
7, 7198, Note_on_c, 4, 51, 0
7, 7200, Note_on_c, 4, 50, 100
7, 7200, Note_on_c, 4, 65, 100
7, 7436, Note_on_c, 4, 65, 0
7, 7436, Note_on_c, 4, 50, 0
7, 7438, Note_on_c, 4, 62, 0
7, 7438, Note_on_c, 4, 58, 0
7, 7438, Note_on_c, 4, 55, 0
7, 7440, Note_on_c, 4, 48, 100
7, 7440, Note_on_c, 4, 55, 100
7, 7440, Note_on_c, 4, 58, 100
7, 7440, Note_on_c, 4, 63, 100
7, 7653, Note_on_c, 4, 63, 0
7, 7653, Note_on_c, 4, 48, 0
7, 7653, Note_on_c, 4, 55, 0
7, 7653, Note_on_c, 4, 58, 0
7, 7680, Note_on_c, 4, 48, 100
7, 7680, Note_on_c, 4, 55, 100
7, 7680, Note_on_c, 4, 60, 100
7, 7680, Note_on_c, 4, 63, 100
7, 8387, Note_on_c, 4, 63, 0
7, 8387, Note_on_c, 4, 48, 0
7, 8387, Note_on_c, 4, 55, 0
7, 8400, Note_on_c, 4, 44, 100
7, 8400, Note_on_c, 4, 56, 100
7, 8400, Note_on_c, 4, 63, 100
7, 9347, Note_on_c, 4, 63, 0
7, 9347, Note_on_c, 4, 60, 0
7, 9347, Note_on_c, 4, 44, 0
7, 9347, Note_on_c, 4, 56, 0
7, 9360, Note_on_c, 4, 46, 100
7, 9360, Note_on_c, 4, 55, 100
7, 9360, Note_on_c, 4, 58, 100
7, 9360, Note_on_c, 4, 63, 100
7, 10307, Note_on_c, 4, 63, 0
7, 10307, Note_on_c, 4, 46, 0
7, 10307, Note_on_c, 4, 55, 0
7, 10307, Note_on_c, 4, 58, 0
7, 10320, Note_on_c, 4, 55, 100
7, 10320, Note_on_c, 4, 58, 100
7, 10320, Note_on_c, 4, 62, 100
7, 10800, Note_on_c, 4, 51, 100
7, 10800, Note_on_c, 4, 67, 100
7, 11038, Note_on_c, 4, 67, 0
7, 11038, Note_on_c, 4, 51, 0
7, 11040, Note_on_c, 4, 50, 100
7, 11040, Note_on_c, 4, 65, 100
7, 11276, Note_on_c, 4, 65, 0
7, 11276, Note_on_c, 4, 50, 0
7, 11278, Note_on_c, 4, 62, 0
7, 11278, Note_on_c, 4, 58, 0
7, 11278, Note_on_c, 4, 55, 0
7, 11280, Note_on_c, 4, 48, 100
7, 11280, Note_on_c, 4, 55, 100
7, 11280, Note_on_c, 4, 58, 100
7, 11280, Note_on_c, 4, 63, 100
7, 11493, Note_on_c, 4, 63, 0
7, 11493, Note_on_c, 4, 48, 0
7, 11493, Note_on_c, 4, 55, 0
7, 11493, Note_on_c, 4, 58, 0
7, 11520, Note_on_c, 4, 48, 100
7, 11520, Note_on_c, 4, 55, 100
7, 11520, Note_on_c, 4, 60, 100
7, 11520, Note_on_c, 4, 63, 100
7, 12227, Note_on_c, 4, 63, 0
7, 12227, Note_on_c, 4, 48, 0
7, 12227, Note_on_c, 4, 55, 0
7, 12240, Note_on_c, 4, 44, 100
7, 12240, Note_on_c, 4, 56, 100
7, 12240, Note_on_c, 4, 63, 100
7, 13187, Note_on_c, 4, 63, 0
7, 13187, Note_on_c, 4, 60, 0
7, 13187, Note_on_c, 4, 44, 0
7, 13187, Note_on_c, 4, 56, 0
7, 13200, Note_on_c, 4, 46, 100
7, 13200, Note_on_c, 4, 55, 100
7, 13200, Note_on_c, 4, 58, 100
7, 13200, Note_on_c, 4, 63, 100
7, 14147, Note_on_c, 4, 63, 0
7, 14147, Note_on_c, 4, 46, 0
7, 14147, Note_on_c, 4, 55, 0
7, 14147, Note_on_c, 4, 58, 0
7, 14160, Note_on_c, 4, 55, 100
7, 14160, Note_on_c, 4, 58, 100
7, 14160, Note_on_c, 4, 62, 100
7, 14640, Note_on_c, 4, 51, 100
7, 14640, Note_on_c, 4, 67, 100
7, 14878, Note_on_c, 4, 67, 0
7, 14878, Note_on_c, 4, 51, 0
7, 14880, Note_on_c, 4, 50, 100
7, 14880, Note_on_c, 4, 65, 100
7, 15116, Note_on_c, 4, 65, 0
7, 15116, Note_on_c, 4, 50, 0
7, 15118, Note_on_c, 4, 62, 0
7, 15118, Note_on_c, 4, 58, 0
7, 15118, Note_on_c, 4, 55, 0
7, 15120, Note_on_c, 4, 48, 100
7, 15120, Note_on_c, 4, 55, 100
7, 15120, Note_on_c, 4, 58, 100
7, 15120, Note_on_c, 4, 63, 100
7, 15333, Note_on_c, 4, 63, 0
7, 15333, Note_on_c, 4, 48, 0
7, 15333, Note_on_c, 4, 55, 0
7, 15333, Note_on_c, 4, 58, 0
7, 15360, Note_on_c, 4, 48, 100
7, 15360, Note_on_c, 4, 55, 100
7, 15360, Note_on_c, 4, 60, 100
7, 15360, Note_on_c, 4, 63, 100
7, 16067, Note_on_c, 4, 63, 0
7, 16067, Note_on_c, 4, 48, 0
7, 16067, Note_on_c, 4, 55, 0
7, 16080, Note_on_c, 4, 44, 100
7, 16080, Note_on_c, 4, 56, 100
7, 16080, Note_on_c, 4, 63, 100
7, 17027, Note_on_c, 4, 63, 0
7, 17027, Note_on_c, 4, 60, 0
7, 17027, Note_on_c, 4, 44, 0
7, 17027, Note_on_c, 4, 56, 0
7, 17040, Note_on_c, 4, 46, 100
7, 17040, Note_on_c, 4, 55, 100
7, 17040, Note_on_c, 4, 58, 100
7, 17040, Note_on_c, 4, 63, 100
7, 17987, Note_on_c, 4, 63, 0
7, 17987, Note_on_c, 4, 46, 0
7, 17987, Note_on_c, 4, 55, 0
7, 17987, Note_on_c, 4, 58, 0
7, 18000, Note_on_c, 4, 55, 100
7, 18000, Note_on_c, 4, 58, 100
7, 18000, Note_on_c, 4, 62, 100
7, 18480, Note_on_c, 4, 51, 100
7, 18480, Note_on_c, 4, 67, 100
7, 18718, Note_on_c, 4, 67, 0
7, 18718, Note_on_c, 4, 51, 0
7, 18720, Note_on_c, 4, 50, 100
7, 18720, Note_on_c, 4, 65, 100
7, 18956, Note_on_c, 4, 65, 0
7, 18956, Note_on_c, 4, 50, 0
7, 18958, Note_on_c, 4, 62, 0
7, 18958, Note_on_c, 4, 58, 0
7, 18958, Note_on_c, 4, 55, 0
7, 18960, Note_on_c, 4, 48, 100
7, 18960, Note_on_c, 4, 55, 100
7, 18960, Note_on_c, 4, 58, 100
7, 18960, Note_on_c, 4, 63, 100
7, 19173, Note_on_c, 4, 63, 0
7, 19173, Note_on_c, 4, 48, 0
7, 19173, Note_on_c, 4, 55, 0
7, 19173, Note_on_c, 4, 58, 0
7, 34560, Note_on_c, 4, 55, 88
7, 34560, Note_on_c, 4, 60, 88
7, 34560, Note_on_c, 4, 63, 88
7, 34560, Note_on_c, 4, 67, 88
7, 34560, Note_on_c, 4, 72, 88
7, 34560, Note_on_c, 4, 75, 88
7, 36156, Note_on_c, 4, 75, 0
7, 36156, Note_on_c, 4, 63, 0
7, 36167, Note_on_c, 4, 72, 0
7, 36167, Note_on_c, 4, 60, 0
7, 36240, Note_on_c, 4, 56, 86
7, 36240, Note_on_c, 4, 60, 86
7, 36240, Note_on_c, 4, 63, 86
7, 36240, Note_on_c, 4, 68, 86
7, 36240, Note_on_c, 4, 72, 86
7, 36240, Note_on_c, 4, 75, 86
7, 36258, Note_on_c, 4, 55, 0
7, 36258, Note_on_c, 4, 67, 0
7, 38249, Note_on_c, 4, 75, 0
7, 38249, Note_on_c, 4, 63, 0
7, 38271, Note_on_c, 4, 60, 0
7, 38271, Note_on_c, 4, 72, 0
7, 38289, Note_on_c, 4, 56, 0
7, 38289, Note_on_c, 4, 68, 0
7, 38400, Note_on_c, 4, 55, 85
7, 38400, Note_on_c, 4, 58, 85
7, 38400, Note_on_c, 4, 63, 85
7, 38400, Note_on_c, 4, 67, 85
7, 38400, Note_on_c, 4, 70, 85
7, 38400, Note_on_c, 4, 75, 85
7, 39993, Note_on_c, 4, 67, 0
7, 39993, Note_on_c, 4, 55, 0
7, 40003, Note_on_c, 4, 70, 0
7, 40003, Note_on_c, 4, 58, 0
7, 40015, Note_on_c, 4, 75, 0
7, 40015, Note_on_c, 4, 63, 0
7, 40080, Note_on_c, 4, 53, 84
7, 40080, Note_on_c, 4, 58, 84
7, 40080, Note_on_c, 4, 62, 84
7, 40080, Note_on_c, 4, 65, 84
7, 40080, Note_on_c, 4, 70, 84
7, 40080, Note_on_c, 4, 74, 84
7, 42103, Note_on_c, 4, 70, 0
7, 42103, Note_on_c, 4, 58, 0
7, 42123, Note_on_c, 4, 65, 0
7, 42123, Note_on_c, 4, 53, 0
7, 42129, Note_on_c, 4, 74, 0
7, 42129, Note_on_c, 4, 62, 0
7, 42240, Note_on_c, 4, 55, 88
7, 42240, Note_on_c, 4, 60, 88
7, 42240, Note_on_c, 4, 63, 88
7, 42240, Note_on_c, 4, 67, 88
7, 42240, Note_on_c, 4, 72, 88
7, 42240, Note_on_c, 4, 75, 88
7, 43836, Note_on_c, 4, 75, 0
7, 43836, Note_on_c, 4, 63, 0
7, 43847, Note_on_c, 4, 72, 0
7, 43847, Note_on_c, 4, 60, 0
7, 43920, Note_on_c, 4, 56, 86
7, 43920, Note_on_c, 4, 60, 86
7, 43920, Note_on_c, 4, 63, 86
7, 43920, Note_on_c, 4, 68, 86
7, 43920, Note_on_c, 4, 72, 86
7, 43920, Note_on_c, 4, 75, 86
7, 43938, Note_on_c, 4, 55, 0
7, 43938, Note_on_c, 4, 67, 0
7, 45929, Note_on_c, 4, 75, 0
7, 45929, Note_on_c, 4, 63, 0
7, 45951, Note_on_c, 4, 60, 0
7, 45951, Note_on_c, 4, 72, 0
7, 45969, Note_on_c, 4, 56, 0
7, 45969, Note_on_c, 4, 68, 0
7, 46080, Note_on_c, 4, 55, 85
7, 46080, Note_on_c, 4, 58, 85
7, 46080, Note_on_c, 4, 63, 85
7, 46080, Note_on_c, 4, 67, 85
7, 46080, Note_on_c, 4, 70, 85
7, 46080, Note_on_c, 4, 75, 85
7, 47673, Note_on_c, 4, 67, 0
7, 47673, Note_on_c, 4, 55, 0
7, 47683, Note_on_c, 4, 70, 0
7, 47683, Note_on_c, 4, 58, 0
7, 47695, Note_on_c, 4, 75, 0
7, 47695, Note_on_c, 4, 63, 0
7, 47760, Note_on_c, 4, 53, 84
7, 47760, Note_on_c, 4, 58, 84
7, 47760, Note_on_c, 4, 62, 84
7, 47760, Note_on_c, 4, 65, 84
7, 47760, Note_on_c, 4, 70, 84
7, 47760, Note_on_c, 4, 74, 84
7, 49783, Note_on_c, 4, 70, 0
7, 49783, Note_on_c, 4, 58, 0
7, 49803, Note_on_c, 4, 65, 0
7, 49803, Note_on_c, 4, 53, 0
7, 49809, Note_on_c, 4, 74, 0
7, 49809, Note_on_c, 4, 62, 0
7, 49920, Note_on_c, 4, 67, 100
7, 49920, Note_on_c, 4, 72, 100
7, 49920, Note_on_c, 4, 75, 100
7, 50138, Note_on_c, 4, 75, 0
7, 50138, Note_on_c, 4, 72, 0
7, 50138, Note_on_c, 4, 67, 0
7, 50160, Note_on_c, 4, 67, 100
7, 50160, Note_on_c, 4, 72, 100
7, 50160, Note_on_c, 4, 75, 100
7, 50476, Note_on_c, 4, 75, 0
7, 50476, Note_on_c, 4, 72, 0
7, 50476, Note_on_c, 4, 67, 0
7, 50640, Note_on_c, 4, 68, 100
7, 50640, Note_on_c, 4, 72, 100
7, 50640, Note_on_c, 4, 75, 100
7, 50956, Note_on_c, 4, 75, 0
7, 50956, Note_on_c, 4, 72, 0
7, 50956, Note_on_c, 4, 68, 0
7, 51120, Note_on_c, 4, 68, 100
7, 51120, Note_on_c, 4, 72, 100
7, 51120, Note_on_c, 4, 75, 100
7, 51436, Note_on_c, 4, 75, 0
7, 51436, Note_on_c, 4, 72, 0
7, 51436, Note_on_c, 4, 68, 0
7, 51600, Note_on_c, 4, 67, 100
7, 51600, Note_on_c, 4, 70, 100
7, 51600, Note_on_c, 4, 75, 100
7, 51916, Note_on_c, 4, 75, 0
7, 51916, Note_on_c, 4, 70, 0
7, 51916, Note_on_c, 4, 67, 0
7, 52080, Note_on_c, 4, 67, 100
7, 52080, Note_on_c, 4, 70, 100
7, 52080, Note_on_c, 4, 75, 100
7, 52396, Note_on_c, 4, 75, 0
7, 52396, Note_on_c, 4, 70, 0
7, 52396, Note_on_c, 4, 67, 0
7, 52560, Note_on_c, 4, 67, 100
7, 52560, Note_on_c, 4, 70, 100
7, 52560, Note_on_c, 4, 75, 100
7, 52777, Note_on_c, 4, 75, 0
7, 52777, Note_on_c, 4, 70, 0
7, 52777, Note_on_c, 4, 67, 0
7, 52800, Note_on_c, 4, 67, 100
7, 52800, Note_on_c, 4, 70, 100
7, 52800, Note_on_c, 4, 74, 100
7, 53017, Note_on_c, 4, 74, 0
7, 53017, Note_on_c, 4, 70, 0
7, 53017, Note_on_c, 4, 67, 0
7, 53040, Note_on_c, 4, 67, 100
7, 53040, Note_on_c, 4, 70, 100
7, 53040, Note_on_c, 4, 74, 100
7, 53356, Note_on_c, 4, 74, 0
7, 53356, Note_on_c, 4, 70, 0
7, 53356, Note_on_c, 4, 67, 0
7, 53520, Note_on_c, 4, 67, 100
7, 53520, Note_on_c, 4, 70, 100
7, 53520, Note_on_c, 4, 74, 100
7, 53751, Note_on_c, 4, 74, 0
7, 53751, Note_on_c, 4, 70, 0
7, 53751, Note_on_c, 4, 67, 0
7, 53760, Note_on_c, 4, 67, 100
7, 53760, Note_on_c, 4, 72, 100
7, 53760, Note_on_c, 4, 75, 100
7, 53978, Note_on_c, 4, 75, 0
7, 53978, Note_on_c, 4, 72, 0
7, 53978, Note_on_c, 4, 67, 0
7, 54000, Note_on_c, 4, 67, 100
7, 54000, Note_on_c, 4, 72, 100
7, 54000, Note_on_c, 4, 75, 100
7, 54316, Note_on_c, 4, 75, 0
7, 54316, Note_on_c, 4, 72, 0
7, 54316, Note_on_c, 4, 67, 0
7, 54480, Note_on_c, 4, 68, 100
7, 54480, Note_on_c, 4, 72, 100
7, 54480, Note_on_c, 4, 75, 100
7, 54796, Note_on_c, 4, 75, 0
7, 54796, Note_on_c, 4, 72, 0
7, 54796, Note_on_c, 4, 68, 0
7, 54960, Note_on_c, 4, 68, 100
7, 54960, Note_on_c, 4, 72, 100
7, 54960, Note_on_c, 4, 75, 100
7, 55276, Note_on_c, 4, 75, 0
7, 55276, Note_on_c, 4, 72, 0
7, 55276, Note_on_c, 4, 68, 0
7, 55440, Note_on_c, 4, 67, 100
7, 55440, Note_on_c, 4, 70, 100
7, 55440, Note_on_c, 4, 75, 100
7, 55756, Note_on_c, 4, 75, 0
7, 55756, Note_on_c, 4, 70, 0
7, 55756, Note_on_c, 4, 67, 0
7, 55920, Note_on_c, 4, 67, 100
7, 55920, Note_on_c, 4, 70, 100
7, 55920, Note_on_c, 4, 75, 100
7, 56236, Note_on_c, 4, 75, 0
7, 56236, Note_on_c, 4, 70, 0
7, 56236, Note_on_c, 4, 67, 0
7, 56400, Note_on_c, 4, 67, 100
7, 56400, Note_on_c, 4, 70, 100
7, 56400, Note_on_c, 4, 75, 100
7, 56617, Note_on_c, 4, 75, 0
7, 56617, Note_on_c, 4, 70, 0
7, 56617, Note_on_c, 4, 67, 0
7, 56640, Note_on_c, 4, 67, 100
7, 56640, Note_on_c, 4, 70, 100
7, 56640, Note_on_c, 4, 74, 100
7, 56857, Note_on_c, 4, 74, 0
7, 56857, Note_on_c, 4, 70, 0
7, 56857, Note_on_c, 4, 67, 0
7, 56880, Note_on_c, 4, 67, 100
7, 56880, Note_on_c, 4, 70, 100
7, 56880, Note_on_c, 4, 74, 100
7, 57196, Note_on_c, 4, 74, 0
7, 57196, Note_on_c, 4, 70, 0
7, 57196, Note_on_c, 4, 67, 0
7, 57360, Note_on_c, 4, 67, 100
7, 57360, Note_on_c, 4, 70, 100
7, 57360, Note_on_c, 4, 74, 100
7, 57591, Note_on_c, 4, 74, 0
7, 57591, Note_on_c, 4, 70, 0
7, 57591, Note_on_c, 4, 67, 0
7, 57600, Note_on_c, 4, 67, 100
7, 57600, Note_on_c, 4, 72, 100
7, 57600, Note_on_c, 4, 75, 100
7, 57818, Note_on_c, 4, 75, 0
7, 57818, Note_on_c, 4, 72, 0
7, 57818, Note_on_c, 4, 67, 0
7, 57840, Note_on_c, 4, 67, 100
7, 57840, Note_on_c, 4, 72, 100
7, 57840, Note_on_c, 4, 75, 100
7, 58156, Note_on_c, 4, 75, 0
7, 58156, Note_on_c, 4, 72, 0
7, 58156, Note_on_c, 4, 67, 0
7, 58320, Note_on_c, 4, 68, 100
7, 58320, Note_on_c, 4, 72, 100
7, 58320, Note_on_c, 4, 75, 100
7, 58636, Note_on_c, 4, 75, 0
7, 58636, Note_on_c, 4, 72, 0
7, 58636, Note_on_c, 4, 68, 0
7, 58800, Note_on_c, 4, 68, 100
7, 58800, Note_on_c, 4, 72, 100
7, 58800, Note_on_c, 4, 75, 100
7, 59116, Note_on_c, 4, 75, 0
7, 59116, Note_on_c, 4, 72, 0
7, 59116, Note_on_c, 4, 68, 0
7, 59280, Note_on_c, 4, 67, 100
7, 59280, Note_on_c, 4, 70, 100
7, 59280, Note_on_c, 4, 75, 100
7, 59596, Note_on_c, 4, 75, 0
7, 59596, Note_on_c, 4, 70, 0
7, 59596, Note_on_c, 4, 67, 0
7, 59760, Note_on_c, 4, 67, 100
7, 59760, Note_on_c, 4, 70, 100
7, 59760, Note_on_c, 4, 75, 100
7, 60076, Note_on_c, 4, 75, 0
7, 60076, Note_on_c, 4, 70, 0
7, 60076, Note_on_c, 4, 67, 0
7, 60240, Note_on_c, 4, 67, 100
7, 60240, Note_on_c, 4, 70, 100
7, 60240, Note_on_c, 4, 75, 100
7, 60457, Note_on_c, 4, 75, 0
7, 60457, Note_on_c, 4, 70, 0
7, 60457, Note_on_c, 4, 67, 0
7, 60480, Note_on_c, 4, 67, 100
7, 60480, Note_on_c, 4, 70, 100
7, 60480, Note_on_c, 4, 74, 100
7, 60697, Note_on_c, 4, 74, 0
7, 60697, Note_on_c, 4, 70, 0
7, 60697, Note_on_c, 4, 67, 0
7, 60720, Note_on_c, 4, 67, 100
7, 60720, Note_on_c, 4, 70, 100
7, 60720, Note_on_c, 4, 74, 100
7, 61036, Note_on_c, 4, 74, 0
7, 61036, Note_on_c, 4, 70, 0
7, 61036, Note_on_c, 4, 67, 0
7, 61200, Note_on_c, 4, 67, 100
7, 61200, Note_on_c, 4, 70, 100
7, 61200, Note_on_c, 4, 74, 100
7, 61431, Note_on_c, 4, 74, 0
7, 61431, Note_on_c, 4, 70, 0
7, 61431, Note_on_c, 4, 67, 0
7, 61440, Note_on_c, 4, 67, 100
7, 61440, Note_on_c, 4, 72, 100
7, 61440, Note_on_c, 4, 75, 100
7, 61658, Note_on_c, 4, 75, 0
7, 61658, Note_on_c, 4, 72, 0
7, 61658, Note_on_c, 4, 67, 0
7, 61680, Note_on_c, 4, 67, 100
7, 61680, Note_on_c, 4, 72, 100
7, 61680, Note_on_c, 4, 75, 100
7, 61996, Note_on_c, 4, 75, 0
7, 61996, Note_on_c, 4, 72, 0
7, 61996, Note_on_c, 4, 67, 0
7, 62160, Note_on_c, 4, 68, 100
7, 62160, Note_on_c, 4, 72, 100
7, 62160, Note_on_c, 4, 75, 100
7, 62476, Note_on_c, 4, 75, 0
7, 62476, Note_on_c, 4, 72, 0
7, 62476, Note_on_c, 4, 68, 0
7, 62640, Note_on_c, 4, 68, 100
7, 62640, Note_on_c, 4, 72, 100
7, 62640, Note_on_c, 4, 75, 100
7, 62956, Note_on_c, 4, 75, 0
7, 62956, Note_on_c, 4, 72, 0
7, 62956, Note_on_c, 4, 68, 0
7, 63120, Note_on_c, 4, 67, 100
7, 63120, Note_on_c, 4, 70, 100
7, 63120, Note_on_c, 4, 75, 100
7, 63436, Note_on_c, 4, 75, 0
7, 63436, Note_on_c, 4, 70, 0
7, 63436, Note_on_c, 4, 67, 0
7, 63600, Note_on_c, 4, 67, 100
7, 63600, Note_on_c, 4, 70, 100
7, 63600, Note_on_c, 4, 75, 100
7, 63916, Note_on_c, 4, 75, 0
7, 63916, Note_on_c, 4, 70, 0
7, 63916, Note_on_c, 4, 67, 0
7, 64080, Note_on_c, 4, 67, 100
7, 64080, Note_on_c, 4, 70, 100
7, 64080, Note_on_c, 4, 75, 100
7, 64297, Note_on_c, 4, 75, 0
7, 64297, Note_on_c, 4, 70, 0
7, 64297, Note_on_c, 4, 67, 0
7, 64320, Note_on_c, 4, 67, 100
7, 64320, Note_on_c, 4, 70, 100
7, 64320, Note_on_c, 4, 74, 100
7, 64537, Note_on_c, 4, 74, 0
7, 64537, Note_on_c, 4, 70, 0
7, 64537, Note_on_c, 4, 67, 0
7, 64560, Note_on_c, 4, 67, 100
7, 64560, Note_on_c, 4, 70, 100
7, 64560, Note_on_c, 4, 74, 100
7, 64876, Note_on_c, 4, 74, 0
7, 64876, Note_on_c, 4, 70, 0
7, 64876, Note_on_c, 4, 67, 0
7, 65040, Note_on_c, 4, 67, 100
7, 65040, Note_on_c, 4, 70, 100
7, 65040, Note_on_c, 4, 74, 100
7, 65271, Note_on_c, 4, 74, 0
7, 65271, Note_on_c, 4, 70, 0
7, 65271, Note_on_c, 4, 67, 0
7, 65280, Note_on_c, 4, 67, 100
7, 65280, Note_on_c, 4, 72, 100
7, 65280, Note_on_c, 4, 75, 100
7, 65498, Note_on_c, 4, 75, 0
7, 65498, Note_on_c, 4, 72, 0
7, 65498, Note_on_c, 4, 67, 0
7, 65520, Note_on_c, 4, 67, 100
7, 65520, Note_on_c, 4, 72, 100
7, 65520, Note_on_c, 4, 75, 100
7, 65836, Note_on_c, 4, 75, 0
7, 65836, Note_on_c, 4, 72, 0
7, 65836, Note_on_c, 4, 67, 0
7, 66000, Note_on_c, 4, 68, 100
7, 66000, Note_on_c, 4, 72, 100
7, 66000, Note_on_c, 4, 75, 100
7, 66316, Note_on_c, 4, 75, 0
7, 66316, Note_on_c, 4, 72, 0
7, 66316, Note_on_c, 4, 68, 0
7, 66480, Note_on_c, 4, 68, 100
7, 66480, Note_on_c, 4, 72, 100
7, 66480, Note_on_c, 4, 75, 100
7, 66796, Note_on_c, 4, 75, 0
7, 66796, Note_on_c, 4, 72, 0
7, 66796, Note_on_c, 4, 68, 0
7, 66960, Note_on_c, 4, 67, 100
7, 66960, Note_on_c, 4, 70, 100
7, 66960, Note_on_c, 4, 75, 100
7, 67276, Note_on_c, 4, 75, 0
7, 67276, Note_on_c, 4, 70, 0
7, 67276, Note_on_c, 4, 67, 0
7, 67440, Note_on_c, 4, 67, 100
7, 67440, Note_on_c, 4, 70, 100
7, 67440, Note_on_c, 4, 75, 100
7, 67756, Note_on_c, 4, 75, 0
7, 67756, Note_on_c, 4, 70, 0
7, 67756, Note_on_c, 4, 67, 0
7, 67920, Note_on_c, 4, 67, 100
7, 67920, Note_on_c, 4, 70, 100
7, 67920, Note_on_c, 4, 75, 100
7, 68137, Note_on_c, 4, 75, 0
7, 68137, Note_on_c, 4, 70, 0
7, 68137, Note_on_c, 4, 67, 0
7, 68160, Note_on_c, 4, 67, 100
7, 68160, Note_on_c, 4, 70, 100
7, 68160, Note_on_c, 4, 74, 100
7, 68377, Note_on_c, 4, 74, 0
7, 68377, Note_on_c, 4, 70, 0
7, 68377, Note_on_c, 4, 67, 0
7, 68400, Note_on_c, 4, 67, 100
7, 68400, Note_on_c, 4, 70, 100
7, 68400, Note_on_c, 4, 74, 100
7, 68716, Note_on_c, 4, 74, 0
7, 68716, Note_on_c, 4, 70, 0
7, 68716, Note_on_c, 4, 67, 0
7, 68880, Note_on_c, 4, 67, 100
7, 68880, Note_on_c, 4, 70, 100
7, 68880, Note_on_c, 4, 74, 100
7, 69111, Note_on_c, 4, 74, 0
7, 69111, Note_on_c, 4, 70, 0
7, 69111, Note_on_c, 4, 67, 0
7, 69120, Note_on_c, 4, 67, 100
7, 69120, Note_on_c, 4, 72, 100
7, 69120, Note_on_c, 4, 75, 100
7, 69338, Note_on_c, 4, 75, 0
7, 69338, Note_on_c, 4, 72, 0
7, 69338, Note_on_c, 4, 67, 0
7, 69360, Note_on_c, 4, 67, 100
7, 69360, Note_on_c, 4, 72, 100
7, 69360, Note_on_c, 4, 75, 100
7, 69676, Note_on_c, 4, 75, 0
7, 69676, Note_on_c, 4, 72, 0
7, 69676, Note_on_c, 4, 67, 0
7, 69840, Note_on_c, 4, 68, 100
7, 69840, Note_on_c, 4, 72, 100
7, 69840, Note_on_c, 4, 75, 100
7, 70156, Note_on_c, 4, 75, 0
7, 70156, Note_on_c, 4, 72, 0
7, 70156, Note_on_c, 4, 68, 0
7, 70320, Note_on_c, 4, 68, 100
7, 70320, Note_on_c, 4, 72, 100
7, 70320, Note_on_c, 4, 75, 100
7, 70636, Note_on_c, 4, 75, 0
7, 70636, Note_on_c, 4, 72, 0
7, 70636, Note_on_c, 4, 68, 0
7, 70800, Note_on_c, 4, 67, 100
7, 70800, Note_on_c, 4, 70, 100
7, 70800, Note_on_c, 4, 75, 100
7, 71116, Note_on_c, 4, 75, 0
7, 71116, Note_on_c, 4, 70, 0
7, 71116, Note_on_c, 4, 67, 0
7, 71280, Note_on_c, 4, 67, 100
7, 71280, Note_on_c, 4, 70, 100
7, 71280, Note_on_c, 4, 75, 100
7, 71596, Note_on_c, 4, 75, 0
7, 71596, Note_on_c, 4, 70, 0
7, 71596, Note_on_c, 4, 67, 0
7, 71760, Note_on_c, 4, 67, 100
7, 71760, Note_on_c, 4, 70, 100
7, 71760, Note_on_c, 4, 75, 100
7, 71977, Note_on_c, 4, 75, 0
7, 71977, Note_on_c, 4, 70, 0
7, 71977, Note_on_c, 4, 67, 0
7, 72000, Note_on_c, 4, 67, 100
7, 72000, Note_on_c, 4, 70, 100
7, 72000, Note_on_c, 4, 74, 100
7, 72217, Note_on_c, 4, 74, 0
7, 72217, Note_on_c, 4, 70, 0
7, 72217, Note_on_c, 4, 67, 0
7, 72240, Note_on_c, 4, 67, 100
7, 72240, Note_on_c, 4, 70, 100
7, 72240, Note_on_c, 4, 74, 100
7, 72556, Note_on_c, 4, 74, 0
7, 72556, Note_on_c, 4, 70, 0
7, 72556, Note_on_c, 4, 67, 0
7, 72720, Note_on_c, 4, 67, 100
7, 72720, Note_on_c, 4, 70, 100
7, 72720, Note_on_c, 4, 74, 100
7, 72951, Note_on_c, 4, 74, 0
7, 72951, Note_on_c, 4, 70, 0
7, 72951, Note_on_c, 4, 67, 0
7, 88320, Note_on_c, 4, 55, 88
7, 88320, Note_on_c, 4, 60, 88
7, 88320, Note_on_c, 4, 63, 88
7, 88320, Note_on_c, 4, 67, 88
7, 88320, Note_on_c, 4, 72, 88
7, 88320, Note_on_c, 4, 75, 88
7, 89916, Note_on_c, 4, 75, 0
7, 89916, Note_on_c, 4, 63, 0
7, 89927, Note_on_c, 4, 72, 0
7, 89927, Note_on_c, 4, 60, 0
7, 90000, Note_on_c, 4, 56, 86
7, 90000, Note_on_c, 4, 60, 86
7, 90000, Note_on_c, 4, 63, 86
7, 90000, Note_on_c, 4, 68, 86
7, 90000, Note_on_c, 4, 72, 86
7, 90000, Note_on_c, 4, 75, 86
7, 90018, Note_on_c, 4, 55, 0
7, 90018, Note_on_c, 4, 67, 0
7, 92009, Note_on_c, 4, 75, 0
7, 92009, Note_on_c, 4, 63, 0
7, 92031, Note_on_c, 4, 60, 0
7, 92031, Note_on_c, 4, 72, 0
7, 92049, Note_on_c, 4, 56, 0
7, 92049, Note_on_c, 4, 68, 0
7, 92160, Note_on_c, 4, 55, 85
7, 92160, Note_on_c, 4, 58, 85
7, 92160, Note_on_c, 4, 63, 85
7, 92160, Note_on_c, 4, 67, 85
7, 92160, Note_on_c, 4, 70, 85
7, 92160, Note_on_c, 4, 75, 85
7, 93753, Note_on_c, 4, 67, 0
7, 93753, Note_on_c, 4, 55, 0
7, 93763, Note_on_c, 4, 70, 0
7, 93763, Note_on_c, 4, 58, 0
7, 93775, Note_on_c, 4, 75, 0
7, 93775, Note_on_c, 4, 63, 0
7, 93840, Note_on_c, 4, 53, 84
7, 93840, Note_on_c, 4, 58, 84
7, 93840, Note_on_c, 4, 62, 84
7, 93840, Note_on_c, 4, 65, 84
7, 93840, Note_on_c, 4, 70, 84
7, 93840, Note_on_c, 4, 74, 84
7, 95863, Note_on_c, 4, 70, 0
7, 95863, Note_on_c, 4, 58, 0
7, 95883, Note_on_c, 4, 65, 0
7, 95883, Note_on_c, 4, 53, 0
7, 95889, Note_on_c, 4, 74, 0
7, 95889, Note_on_c, 4, 62, 0
7, 96000, Note_on_c, 4, 55, 88
7, 96000, Note_on_c, 4, 60, 88
7, 96000, Note_on_c, 4, 63, 88
7, 96000, Note_on_c, 4, 67, 88
7, 96000, Note_on_c, 4, 72, 88
7, 96000, Note_on_c, 4, 75, 88
7, 97596, Note_on_c, 4, 75, 0
7, 97596, Note_on_c, 4, 63, 0
7, 97607, Note_on_c, 4, 72, 0
7, 97607, Note_on_c, 4, 60, 0
7, 97680, Note_on_c, 4, 56, 86
7, 97680, Note_on_c, 4, 60, 86
7, 97680, Note_on_c, 4, 63, 86
7, 97680, Note_on_c, 4, 68, 86
7, 97680, Note_on_c, 4, 72, 86
7, 97680, Note_on_c, 4, 75, 86
7, 97698, Note_on_c, 4, 55, 0
7, 97698, Note_on_c, 4, 67, 0
7, 99689, Note_on_c, 4, 75, 0
7, 99689, Note_on_c, 4, 63, 0
7, 99711, Note_on_c, 4, 60, 0
7, 99711, Note_on_c, 4, 72, 0
7, 99729, Note_on_c, 4, 56, 0
7, 99729, Note_on_c, 4, 68, 0
7, 99840, Note_on_c, 4, 55, 85
7, 99840, Note_on_c, 4, 58, 85
7, 99840, Note_on_c, 4, 63, 85
7, 99840, Note_on_c, 4, 67, 85
7, 99840, Note_on_c, 4, 70, 85
7, 99840, Note_on_c, 4, 75, 85
7, 101433, Note_on_c, 4, 67, 0
7, 101433, Note_on_c, 4, 55, 0
7, 101443, Note_on_c, 4, 70, 0
7, 101443, Note_on_c, 4, 58, 0
7, 101455, Note_on_c, 4, 75, 0
7, 101455, Note_on_c, 4, 63, 0
7, 101520, Note_on_c, 4, 53, 84
7, 101520, Note_on_c, 4, 58, 84
7, 101520, Note_on_c, 4, 62, 84
7, 101520, Note_on_c, 4, 65, 84
7, 101520, Note_on_c, 4, 70, 84
7, 101520, Note_on_c, 4, 74, 84
7, 103543, Note_on_c, 4, 70, 0
7, 103543, Note_on_c, 4, 58, 0
7, 103563, Note_on_c, 4, 65, 0
7, 103563, Note_on_c, 4, 53, 0
7, 103569, Note_on_c, 4, 74, 0
7, 103569, Note_on_c, 4, 62, 0
7, 103680, Note_on_c, 4, 67, 100
7, 103680, Note_on_c, 4, 72, 100
7, 103680, Note_on_c, 4, 75, 100
7, 103898, Note_on_c, 4, 75, 0
7, 103898, Note_on_c, 4, 72, 0
7, 103898, Note_on_c, 4, 67, 0
7, 103920, Note_on_c, 4, 67, 100
7, 103920, Note_on_c, 4, 72, 100
7, 103920, Note_on_c, 4, 75, 100
7, 104236, Note_on_c, 4, 75, 0
7, 104236, Note_on_c, 4, 72, 0
7, 104236, Note_on_c, 4, 67, 0
7, 104400, Note_on_c, 4, 68, 100
7, 104400, Note_on_c, 4, 72, 100
7, 104400, Note_on_c, 4, 75, 100
7, 104716, Note_on_c, 4, 75, 0
7, 104716, Note_on_c, 4, 72, 0
7, 104716, Note_on_c, 4, 68, 0
7, 104880, Note_on_c, 4, 68, 100
7, 104880, Note_on_c, 4, 72, 100
7, 104880, Note_on_c, 4, 75, 100
7, 105196, Note_on_c, 4, 75, 0
7, 105196, Note_on_c, 4, 72, 0
7, 105196, Note_on_c, 4, 68, 0
7, 105360, Note_on_c, 4, 67, 100
7, 105360, Note_on_c, 4, 70, 100
7, 105360, Note_on_c, 4, 75, 100
7, 105676, Note_on_c, 4, 75, 0
7, 105676, Note_on_c, 4, 70, 0
7, 105676, Note_on_c, 4, 67, 0
7, 105840, Note_on_c, 4, 67, 100
7, 105840, Note_on_c, 4, 70, 100
7, 105840, Note_on_c, 4, 75, 100
7, 106156, Note_on_c, 4, 75, 0
7, 106156, Note_on_c, 4, 70, 0
7, 106156, Note_on_c, 4, 67, 0
7, 106320, Note_on_c, 4, 67, 100
7, 106320, Note_on_c, 4, 70, 100
7, 106320, Note_on_c, 4, 75, 100
7, 106537, Note_on_c, 4, 75, 0
7, 106537, Note_on_c, 4, 70, 0
7, 106537, Note_on_c, 4, 67, 0
7, 106560, Note_on_c, 4, 67, 100
7, 106560, Note_on_c, 4, 70, 100
7, 106560, Note_on_c, 4, 74, 100
7, 106777, Note_on_c, 4, 74, 0
7, 106777, Note_on_c, 4, 70, 0
7, 106777, Note_on_c, 4, 67, 0
7, 106800, Note_on_c, 4, 67, 100
7, 106800, Note_on_c, 4, 70, 100
7, 106800, Note_on_c, 4, 74, 100
7, 107116, Note_on_c, 4, 74, 0
7, 107116, Note_on_c, 4, 70, 0
7, 107116, Note_on_c, 4, 67, 0
7, 107280, Note_on_c, 4, 67, 100
7, 107280, Note_on_c, 4, 70, 100
7, 107280, Note_on_c, 4, 74, 100
7, 107511, Note_on_c, 4, 74, 0
7, 107511, Note_on_c, 4, 70, 0
7, 107511, Note_on_c, 4, 67, 0
7, 107520, Note_on_c, 4, 67, 100
7, 107520, Note_on_c, 4, 72, 100
7, 107520, Note_on_c, 4, 75, 100
7, 107738, Note_on_c, 4, 75, 0
7, 107738, Note_on_c, 4, 72, 0
7, 107738, Note_on_c, 4, 67, 0
7, 107760, Note_on_c, 4, 67, 100
7, 107760, Note_on_c, 4, 72, 100
7, 107760, Note_on_c, 4, 75, 100
7, 108076, Note_on_c, 4, 75, 0
7, 108076, Note_on_c, 4, 72, 0
7, 108076, Note_on_c, 4, 67, 0
7, 108240, Note_on_c, 4, 68, 100
7, 108240, Note_on_c, 4, 72, 100
7, 108240, Note_on_c, 4, 75, 100
7, 108556, Note_on_c, 4, 75, 0
7, 108556, Note_on_c, 4, 72, 0
7, 108556, Note_on_c, 4, 68, 0
7, 108720, Note_on_c, 4, 68, 100
7, 108720, Note_on_c, 4, 72, 100
7, 108720, Note_on_c, 4, 75, 100
7, 109036, Note_on_c, 4, 75, 0
7, 109036, Note_on_c, 4, 72, 0
7, 109036, Note_on_c, 4, 68, 0
7, 109200, Note_on_c, 4, 67, 100
7, 109200, Note_on_c, 4, 70, 100
7, 109200, Note_on_c, 4, 75, 100
7, 109516, Note_on_c, 4, 75, 0
7, 109516, Note_on_c, 4, 70, 0
7, 109516, Note_on_c, 4, 67, 0
7, 109680, Note_on_c, 4, 67, 100
7, 109680, Note_on_c, 4, 70, 100
7, 109680, Note_on_c, 4, 75, 100
7, 109996, Note_on_c, 4, 75, 0
7, 109996, Note_on_c, 4, 70, 0
7, 109996, Note_on_c, 4, 67, 0
7, 110160, Note_on_c, 4, 67, 100
7, 110160, Note_on_c, 4, 70, 100
7, 110160, Note_on_c, 4, 75, 100
7, 110377, Note_on_c, 4, 75, 0
7, 110377, Note_on_c, 4, 70, 0
7, 110377, Note_on_c, 4, 67, 0
7, 110400, Note_on_c, 4, 67, 100
7, 110400, Note_on_c, 4, 70, 100
7, 110400, Note_on_c, 4, 74, 100
7, 110617, Note_on_c, 4, 74, 0
7, 110617, Note_on_c, 4, 70, 0
7, 110617, Note_on_c, 4, 67, 0
7, 110640, Note_on_c, 4, 67, 100
7, 110640, Note_on_c, 4, 70, 100
7, 110640, Note_on_c, 4, 74, 100
7, 110956, Note_on_c, 4, 74, 0
7, 110956, Note_on_c, 4, 70, 0
7, 110956, Note_on_c, 4, 67, 0
7, 111120, Note_on_c, 4, 67, 100
7, 111120, Note_on_c, 4, 70, 100
7, 111120, Note_on_c, 4, 74, 100
7, 111351, Note_on_c, 4, 74, 0
7, 111351, Note_on_c, 4, 70, 0
7, 111351, Note_on_c, 4, 67, 0
7, 111360, Note_on_c, 4, 67, 100
7, 111360, Note_on_c, 4, 72, 100
7, 111360, Note_on_c, 4, 75, 100
7, 111578, Note_on_c, 4, 75, 0
7, 111578, Note_on_c, 4, 72, 0
7, 111578, Note_on_c, 4, 67, 0
7, 111600, Note_on_c, 4, 67, 100
7, 111600, Note_on_c, 4, 72, 100
7, 111600, Note_on_c, 4, 75, 100
7, 111916, Note_on_c, 4, 75, 0
7, 111916, Note_on_c, 4, 72, 0
7, 111916, Note_on_c, 4, 67, 0
7, 112080, Note_on_c, 4, 68, 100
7, 112080, Note_on_c, 4, 72, 100
7, 112080, Note_on_c, 4, 75, 100
7, 112396, Note_on_c, 4, 75, 0
7, 112396, Note_on_c, 4, 72, 0
7, 112396, Note_on_c, 4, 68, 0
7, 112560, Note_on_c, 4, 68, 100
7, 112560, Note_on_c, 4, 72, 100
7, 112560, Note_on_c, 4, 75, 100
7, 112876, Note_on_c, 4, 75, 0
7, 112876, Note_on_c, 4, 72, 0
7, 112876, Note_on_c, 4, 68, 0
7, 113040, Note_on_c, 4, 67, 100
7, 113040, Note_on_c, 4, 70, 100
7, 113040, Note_on_c, 4, 75, 100
7, 113356, Note_on_c, 4, 75, 0
7, 113356, Note_on_c, 4, 70, 0
7, 113356, Note_on_c, 4, 67, 0
7, 113520, Note_on_c, 4, 67, 100
7, 113520, Note_on_c, 4, 70, 100
7, 113520, Note_on_c, 4, 75, 100
7, 113836, Note_on_c, 4, 75, 0
7, 113836, Note_on_c, 4, 70, 0
7, 113836, Note_on_c, 4, 67, 0
7, 114000, Note_on_c, 4, 67, 100
7, 114000, Note_on_c, 4, 70, 100
7, 114000, Note_on_c, 4, 75, 100
7, 114217, Note_on_c, 4, 75, 0
7, 114217, Note_on_c, 4, 70, 0
7, 114217, Note_on_c, 4, 67, 0
7, 114240, Note_on_c, 4, 67, 100
7, 114240, Note_on_c, 4, 70, 100
7, 114240, Note_on_c, 4, 74, 100
7, 114457, Note_on_c, 4, 74, 0
7, 114457, Note_on_c, 4, 70, 0
7, 114457, Note_on_c, 4, 67, 0
7, 114480, Note_on_c, 4, 67, 100
7, 114480, Note_on_c, 4, 70, 100
7, 114480, Note_on_c, 4, 74, 100
7, 114796, Note_on_c, 4, 74, 0
7, 114796, Note_on_c, 4, 70, 0
7, 114796, Note_on_c, 4, 67, 0
7, 114960, Note_on_c, 4, 67, 100
7, 114960, Note_on_c, 4, 70, 100
7, 114960, Note_on_c, 4, 74, 100
7, 115191, Note_on_c, 4, 74, 0
7, 115191, Note_on_c, 4, 70, 0
7, 115191, Note_on_c, 4, 67, 0
7, 115200, Note_on_c, 4, 67, 100
7, 115200, Note_on_c, 4, 72, 100
7, 115200, Note_on_c, 4, 75, 100
7, 115418, Note_on_c, 4, 75, 0
7, 115418, Note_on_c, 4, 72, 0
7, 115418, Note_on_c, 4, 67, 0
7, 115440, Note_on_c, 4, 67, 100
7, 115440, Note_on_c, 4, 72, 100
7, 115440, Note_on_c, 4, 75, 100
7, 115756, Note_on_c, 4, 75, 0
7, 115756, Note_on_c, 4, 72, 0
7, 115756, Note_on_c, 4, 67, 0
7, 115920, Note_on_c, 4, 68, 100
7, 115920, Note_on_c, 4, 72, 100
7, 115920, Note_on_c, 4, 75, 100
7, 116236, Note_on_c, 4, 75, 0
7, 116236, Note_on_c, 4, 72, 0
7, 116236, Note_on_c, 4, 68, 0
7, 116400, Note_on_c, 4, 68, 100
7, 116400, Note_on_c, 4, 72, 100
7, 116400, Note_on_c, 4, 75, 100
7, 116716, Note_on_c, 4, 75, 0
7, 116716, Note_on_c, 4, 72, 0
7, 116716, Note_on_c, 4, 68, 0
7, 116880, Note_on_c, 4, 67, 100
7, 116880, Note_on_c, 4, 70, 100
7, 116880, Note_on_c, 4, 75, 100
7, 117196, Note_on_c, 4, 75, 0
7, 117196, Note_on_c, 4, 70, 0
7, 117196, Note_on_c, 4, 67, 0
7, 117360, Note_on_c, 4, 67, 100
7, 117360, Note_on_c, 4, 70, 100
7, 117360, Note_on_c, 4, 75, 100
7, 117676, Note_on_c, 4, 75, 0
7, 117676, Note_on_c, 4, 70, 0
7, 117676, Note_on_c, 4, 67, 0
7, 117840, Note_on_c, 4, 67, 100
7, 117840, Note_on_c, 4, 70, 100
7, 117840, Note_on_c, 4, 75, 100
7, 118057, Note_on_c, 4, 75, 0
7, 118057, Note_on_c, 4, 70, 0
7, 118057, Note_on_c, 4, 67, 0
7, 118080, Note_on_c, 4, 67, 100
7, 118080, Note_on_c, 4, 70, 100
7, 118080, Note_on_c, 4, 74, 100
7, 118297, Note_on_c, 4, 74, 0
7, 118297, Note_on_c, 4, 70, 0
7, 118297, Note_on_c, 4, 67, 0
7, 118320, Note_on_c, 4, 67, 100
7, 118320, Note_on_c, 4, 70, 100
7, 118320, Note_on_c, 4, 74, 100
7, 118636, Note_on_c, 4, 74, 0
7, 118636, Note_on_c, 4, 70, 0
7, 118636, Note_on_c, 4, 67, 0
7, 118800, Note_on_c, 4, 67, 100
7, 118800, Note_on_c, 4, 70, 100
7, 118800, Note_on_c, 4, 74, 100
7, 119031, Note_on_c, 4, 74, 0
7, 119031, Note_on_c, 4, 70, 0
7, 119031, Note_on_c, 4, 67, 0
7, 119040, Note_on_c, 4, 67, 100
7, 119040, Note_on_c, 4, 72, 100
7, 119040, Note_on_c, 4, 75, 100
7, 119258, Note_on_c, 4, 75, 0
7, 119258, Note_on_c, 4, 72, 0
7, 119258, Note_on_c, 4, 67, 0
7, 119280, Note_on_c, 4, 67, 100
7, 119280, Note_on_c, 4, 72, 100
7, 119280, Note_on_c, 4, 75, 100
7, 119596, Note_on_c, 4, 75, 0
7, 119596, Note_on_c, 4, 72, 0
7, 119596, Note_on_c, 4, 67, 0
7, 119760, Note_on_c, 4, 68, 100
7, 119760, Note_on_c, 4, 72, 100
7, 119760, Note_on_c, 4, 75, 100
7, 120076, Note_on_c, 4, 75, 0
7, 120076, Note_on_c, 4, 72, 0
7, 120076, Note_on_c, 4, 68, 0
7, 120240, Note_on_c, 4, 68, 100
7, 120240, Note_on_c, 4, 72, 100
7, 120240, Note_on_c, 4, 75, 100
7, 120556, Note_on_c, 4, 75, 0
7, 120556, Note_on_c, 4, 72, 0
7, 120556, Note_on_c, 4, 68, 0
7, 120720, Note_on_c, 4, 67, 100
7, 120720, Note_on_c, 4, 70, 100
7, 120720, Note_on_c, 4, 75, 100
7, 121036, Note_on_c, 4, 75, 0
7, 121036, Note_on_c, 4, 70, 0
7, 121036, Note_on_c, 4, 67, 0
7, 121200, Note_on_c, 4, 67, 100
7, 121200, Note_on_c, 4, 70, 100
7, 121200, Note_on_c, 4, 75, 100
7, 121516, Note_on_c, 4, 75, 0
7, 121516, Note_on_c, 4, 70, 0
7, 121516, Note_on_c, 4, 67, 0
7, 121680, Note_on_c, 4, 67, 100
7, 121680, Note_on_c, 4, 70, 100
7, 121680, Note_on_c, 4, 75, 100
7, 121897, Note_on_c, 4, 75, 0
7, 121897, Note_on_c, 4, 70, 0
7, 121897, Note_on_c, 4, 67, 0
7, 121920, Note_on_c, 4, 67, 100
7, 121920, Note_on_c, 4, 70, 100
7, 121920, Note_on_c, 4, 74, 100
7, 122137, Note_on_c, 4, 74, 0
7, 122137, Note_on_c, 4, 70, 0
7, 122137, Note_on_c, 4, 67, 0
7, 122160, Note_on_c, 4, 67, 100
7, 122160, Note_on_c, 4, 70, 100
7, 122160, Note_on_c, 4, 74, 100
7, 122476, Note_on_c, 4, 74, 0
7, 122476, Note_on_c, 4, 70, 0
7, 122476, Note_on_c, 4, 67, 0
7, 122640, Note_on_c, 4, 67, 100
7, 122640, Note_on_c, 4, 70, 100
7, 122640, Note_on_c, 4, 74, 100
7, 122871, Note_on_c, 4, 74, 0
7, 122871, Note_on_c, 4, 70, 0
7, 122871, Note_on_c, 4, 67, 0
7, 122880, Note_on_c, 4, 67, 100
7, 122880, Note_on_c, 4, 72, 100
7, 122880, Note_on_c, 4, 75, 100
7, 123098, Note_on_c, 4, 75, 0
7, 123098, Note_on_c, 4, 72, 0
7, 123098, Note_on_c, 4, 67, 0
7, 123120, Note_on_c, 4, 67, 100
7, 123120, Note_on_c, 4, 72, 100
7, 123120, Note_on_c, 4, 75, 100
7, 123436, Note_on_c, 4, 75, 0
7, 123436, Note_on_c, 4, 72, 0
7, 123436, Note_on_c, 4, 67, 0
7, 123600, Note_on_c, 4, 68, 100
7, 123600, Note_on_c, 4, 72, 100
7, 123600, Note_on_c, 4, 75, 100
7, 123916, Note_on_c, 4, 75, 0
7, 123916, Note_on_c, 4, 72, 0
7, 123916, Note_on_c, 4, 68, 0
7, 124080, Note_on_c, 4, 68, 100
7, 124080, Note_on_c, 4, 72, 100
7, 124080, Note_on_c, 4, 75, 100
7, 124396, Note_on_c, 4, 75, 0
7, 124396, Note_on_c, 4, 72, 0
7, 124396, Note_on_c, 4, 68, 0
7, 124560, Note_on_c, 4, 67, 100
7, 124560, Note_on_c, 4, 70, 100
7, 124560, Note_on_c, 4, 75, 100
7, 124876, Note_on_c, 4, 75, 0
7, 124876, Note_on_c, 4, 70, 0
7, 124876, Note_on_c, 4, 67, 0
7, 125040, Note_on_c, 4, 67, 100
7, 125040, Note_on_c, 4, 70, 100
7, 125040, Note_on_c, 4, 75, 100
7, 125356, Note_on_c, 4, 75, 0
7, 125356, Note_on_c, 4, 70, 0
7, 125356, Note_on_c, 4, 67, 0
7, 125520, Note_on_c, 4, 67, 100
7, 125520, Note_on_c, 4, 70, 100
7, 125520, Note_on_c, 4, 75, 100
7, 125737, Note_on_c, 4, 75, 0
7, 125737, Note_on_c, 4, 70, 0
7, 125737, Note_on_c, 4, 67, 0
7, 125760, Note_on_c, 4, 67, 100
7, 125760, Note_on_c, 4, 70, 100
7, 125760, Note_on_c, 4, 74, 100
7, 125977, Note_on_c, 4, 74, 0
7, 125977, Note_on_c, 4, 70, 0
7, 125977, Note_on_c, 4, 67, 0
7, 126000, Note_on_c, 4, 67, 100
7, 126000, Note_on_c, 4, 70, 100
7, 126000, Note_on_c, 4, 74, 100
7, 126316, Note_on_c, 4, 74, 0
7, 126316, Note_on_c, 4, 70, 0
7, 126316, Note_on_c, 4, 67, 0
7, 126480, Note_on_c, 4, 67, 100
7, 126480, Note_on_c, 4, 70, 100
7, 126480, Note_on_c, 4, 74, 100
7, 126711, Note_on_c, 4, 74, 0
7, 126711, Note_on_c, 4, 70, 0
7, 126711, Note_on_c, 4, 67, 0
7, 126720, Note_on_c, 4, 67, 100
7, 126720, Note_on_c, 4, 72, 100
7, 126720, Note_on_c, 4, 75, 100
7, 126938, Note_on_c, 4, 75, 0
7, 126938, Note_on_c, 4, 72, 0
7, 126938, Note_on_c, 4, 67, 0
7, 126960, Note_on_c, 4, 67, 100
7, 126960, Note_on_c, 4, 72, 100
7, 126960, Note_on_c, 4, 75, 100
7, 127276, Note_on_c, 4, 75, 0
7, 127276, Note_on_c, 4, 72, 0
7, 127276, Note_on_c, 4, 67, 0
7, 127440, Note_on_c, 4, 68, 100
7, 127440, Note_on_c, 4, 72, 100
7, 127440, Note_on_c, 4, 75, 100
7, 127756, Note_on_c, 4, 75, 0
7, 127756, Note_on_c, 4, 72, 0
7, 127756, Note_on_c, 4, 68, 0
7, 127920, Note_on_c, 4, 68, 100
7, 127920, Note_on_c, 4, 72, 100
7, 127920, Note_on_c, 4, 75, 100
7, 128236, Note_on_c, 4, 75, 0
7, 128236, Note_on_c, 4, 72, 0
7, 128236, Note_on_c, 4, 68, 0
7, 128400, Note_on_c, 4, 67, 100
7, 128400, Note_on_c, 4, 70, 100
7, 128400, Note_on_c, 4, 75, 100
7, 128716, Note_on_c, 4, 75, 0
7, 128716, Note_on_c, 4, 70, 0
7, 128716, Note_on_c, 4, 67, 0
7, 128880, Note_on_c, 4, 67, 100
7, 128880, Note_on_c, 4, 70, 100
7, 128880, Note_on_c, 4, 75, 100
7, 129196, Note_on_c, 4, 75, 0
7, 129196, Note_on_c, 4, 70, 0
7, 129196, Note_on_c, 4, 67, 0
7, 129360, Note_on_c, 4, 67, 100
7, 129360, Note_on_c, 4, 70, 100
7, 129360, Note_on_c, 4, 75, 100
7, 129577, Note_on_c, 4, 75, 0
7, 129577, Note_on_c, 4, 70, 0
7, 129577, Note_on_c, 4, 67, 0
7, 129600, Note_on_c, 4, 67, 100
7, 129600, Note_on_c, 4, 70, 100
7, 129600, Note_on_c, 4, 74, 100
7, 129817, Note_on_c, 4, 74, 0
7, 129817, Note_on_c, 4, 70, 0
7, 129817, Note_on_c, 4, 67, 0
7, 129840, Note_on_c, 4, 67, 100
7, 129840, Note_on_c, 4, 70, 100
7, 129840, Note_on_c, 4, 74, 100
7, 130156, Note_on_c, 4, 74, 0
7, 130156, Note_on_c, 4, 70, 0
7, 130156, Note_on_c, 4, 67, 0
7, 130320, Note_on_c, 4, 67, 100
7, 130320, Note_on_c, 4, 70, 100
7, 130320, Note_on_c, 4, 74, 100
7, 130551, Note_on_c, 4, 74, 0
7, 130551, Note_on_c, 4, 70, 0
7, 130551, Note_on_c, 4, 67, 0
7, 130560, Note_on_c, 4, 67, 100
7, 130560, Note_on_c, 4, 72, 100
7, 130560, Note_on_c, 4, 75, 100
7, 130778, Note_on_c, 4, 75, 0
7, 130778, Note_on_c, 4, 72, 0
7, 130778, Note_on_c, 4, 67, 0
7, 130800, Note_on_c, 4, 67, 100
7, 130800, Note_on_c, 4, 72, 100
7, 130800, Note_on_c, 4, 75, 100
7, 131116, Note_on_c, 4, 75, 0
7, 131116, Note_on_c, 4, 72, 0
7, 131116, Note_on_c, 4, 67, 0
7, 131280, Note_on_c, 4, 68, 100
7, 131280, Note_on_c, 4, 72, 100
7, 131280, Note_on_c, 4, 75, 100
7, 131596, Note_on_c, 4, 75, 0
7, 131596, Note_on_c, 4, 72, 0
7, 131596, Note_on_c, 4, 68, 0
7, 131760, Note_on_c, 4, 68, 100
7, 131760, Note_on_c, 4, 72, 100
7, 131760, Note_on_c, 4, 75, 100
7, 132076, Note_on_c, 4, 75, 0
7, 132076, Note_on_c, 4, 72, 0
7, 132076, Note_on_c, 4, 68, 0
7, 132240, Note_on_c, 4, 67, 100
7, 132240, Note_on_c, 4, 70, 100
7, 132240, Note_on_c, 4, 75, 100
7, 132556, Note_on_c, 4, 75, 0
7, 132556, Note_on_c, 4, 70, 0
7, 132556, Note_on_c, 4, 67, 0
7, 132720, Note_on_c, 4, 67, 100
7, 132720, Note_on_c, 4, 70, 100
7, 132720, Note_on_c, 4, 75, 100
7, 133036, Note_on_c, 4, 75, 0
7, 133036, Note_on_c, 4, 70, 0
7, 133036, Note_on_c, 4, 67, 0
7, 133200, Note_on_c, 4, 67, 100
7, 133200, Note_on_c, 4, 70, 100
7, 133200, Note_on_c, 4, 75, 100
7, 133417, Note_on_c, 4, 75, 0
7, 133417, Note_on_c, 4, 70, 0
7, 133417, Note_on_c, 4, 67, 0
7, 133440, Note_on_c, 4, 67, 100
7, 133440, Note_on_c, 4, 70, 100
7, 133440, Note_on_c, 4, 74, 100
7, 133657, Note_on_c, 4, 74, 0
7, 133657, Note_on_c, 4, 70, 0
7, 133657, Note_on_c, 4, 67, 0
7, 133680, Note_on_c, 4, 67, 100
7, 133680, Note_on_c, 4, 70, 100
7, 133680, Note_on_c, 4, 74, 100
7, 133996, Note_on_c, 4, 74, 0
7, 133996, Note_on_c, 4, 70, 0
7, 133996, Note_on_c, 4, 67, 0
7, 134160, Note_on_c, 4, 67, 100
7, 134160, Note_on_c, 4, 70, 100
7, 134160, Note_on_c, 4, 74, 100
7, 134391, Note_on_c, 4, 74, 0
7, 134391, Note_on_c, 4, 70, 0
7, 134391, Note_on_c, 4, 67, 0
7, 134400, Note_on_c, 4, 55, 107
7, 134400, Note_on_c, 4, 60, 107
7, 134400, Note_on_c, 4, 63, 107
7, 135935, Note_on_c, 4, 63, 0
7, 135963, Note_on_c, 4, 60, 0
7, 135968, Note_on_c, 4, 55, 0
7, 136080, Note_on_c, 4, 56, 107
7, 136080, Note_on_c, 4, 60, 107
7, 136080, Note_on_c, 4, 63, 107
7, 137990, Note_on_c, 4, 56, 0
7, 137998, Note_on_c, 4, 63, 0
7, 137998, Note_on_c, 4, 60, 0
7, 138000, Note_on_c, 4, 55, 104
7, 138000, Note_on_c, 4, 58, 104
7, 138000, Note_on_c, 4, 63, 104
7, 139819, Note_on_c, 4, 58, 0
7, 139827, Note_on_c, 4, 63, 0
7, 139827, Note_on_c, 4, 55, 0
7, 139920, Note_on_c, 4, 55, 103
7, 139920, Note_on_c, 4, 58, 103
7, 139920, Note_on_c, 4, 62, 103
7, 142003, Note_on_c, 4, 58, 0
7, 142016, Note_on_c, 4, 62, 0
7, 142016, Note_on_c, 4, 55, 0
7, 142080, Note_on_c, 4, 55, 107
7, 142080, Note_on_c, 4, 60, 107
7, 142080, Note_on_c, 4, 63, 107
7, 143615, Note_on_c, 4, 63, 0
7, 143643, Note_on_c, 4, 60, 0
7, 143648, Note_on_c, 4, 55, 0
7, 143760, Note_on_c, 4, 56, 107
7, 143760, Note_on_c, 4, 60, 107
7, 143760, Note_on_c, 4, 63, 107
7, 145670, Note_on_c, 4, 56, 0
7, 145678, Note_on_c, 4, 63, 0
7, 145678, Note_on_c, 4, 60, 0
7, 145680, Note_on_c, 4, 55, 104
7, 145680, Note_on_c, 4, 58, 104
7, 145680, Note_on_c, 4, 63, 104
7, 147499, Note_on_c, 4, 58, 0
7, 147507, Note_on_c, 4, 63, 0
7, 147507, Note_on_c, 4, 55, 0
7, 147600, Note_on_c, 4, 55, 103
7, 147600, Note_on_c, 4, 58, 103
7, 147600, Note_on_c, 4, 62, 103
7, 149683, Note_on_c, 4, 58, 0
7, 149696, Note_on_c, 4, 62, 0
7, 149696, Note_on_c, 4, 55, 0
7, 149760, Note_on_c, 4, 67, 100
7, 149760, Note_on_c, 4, 72, 100
7, 149760, Note_on_c, 4, 75, 100
7, 149978, Note_on_c, 4, 75, 0
7, 149978, Note_on_c, 4, 72, 0
7, 149978, Note_on_c, 4, 67, 0
7, 150000, Note_on_c, 4, 67, 100
7, 150000, Note_on_c, 4, 72, 100
7, 150000, Note_on_c, 4, 75, 100
7, 150316, Note_on_c, 4, 75, 0
7, 150316, Note_on_c, 4, 72, 0
7, 150316, Note_on_c, 4, 67, 0
7, 150480, Note_on_c, 4, 68, 100
7, 150480, Note_on_c, 4, 72, 100
7, 150480, Note_on_c, 4, 75, 100
7, 150796, Note_on_c, 4, 75, 0
7, 150796, Note_on_c, 4, 72, 0
7, 150796, Note_on_c, 4, 68, 0
7, 150960, Note_on_c, 4, 68, 100
7, 150960, Note_on_c, 4, 72, 100
7, 150960, Note_on_c, 4, 75, 100
7, 151276, Note_on_c, 4, 75, 0
7, 151276, Note_on_c, 4, 72, 0
7, 151276, Note_on_c, 4, 68, 0
7, 151440, Note_on_c, 4, 67, 100
7, 151440, Note_on_c, 4, 70, 100
7, 151440, Note_on_c, 4, 75, 100
7, 151756, Note_on_c, 4, 75, 0
7, 151756, Note_on_c, 4, 70, 0
7, 151756, Note_on_c, 4, 67, 0
7, 151920, Note_on_c, 4, 67, 100
7, 151920, Note_on_c, 4, 70, 100
7, 151920, Note_on_c, 4, 75, 100
7, 152236, Note_on_c, 4, 75, 0
7, 152236, Note_on_c, 4, 70, 0
7, 152236, Note_on_c, 4, 67, 0
7, 152400, Note_on_c, 4, 67, 100
7, 152400, Note_on_c, 4, 70, 100
7, 152400, Note_on_c, 4, 75, 100
7, 152617, Note_on_c, 4, 75, 0
7, 152617, Note_on_c, 4, 70, 0
7, 152617, Note_on_c, 4, 67, 0
7, 152640, Note_on_c, 4, 67, 100
7, 152640, Note_on_c, 4, 70, 100
7, 152640, Note_on_c, 4, 74, 100
7, 152857, Note_on_c, 4, 74, 0
7, 152857, Note_on_c, 4, 70, 0
7, 152857, Note_on_c, 4, 67, 0
7, 152880, Note_on_c, 4, 67, 100
7, 152880, Note_on_c, 4, 70, 100
7, 152880, Note_on_c, 4, 74, 100
7, 153196, Note_on_c, 4, 74, 0
7, 153196, Note_on_c, 4, 70, 0
7, 153196, Note_on_c, 4, 67, 0
7, 153360, Note_on_c, 4, 67, 100
7, 153360, Note_on_c, 4, 70, 100
7, 153360, Note_on_c, 4, 74, 100
7, 153591, Note_on_c, 4, 74, 0
7, 153591, Note_on_c, 4, 70, 0
7, 153591, Note_on_c, 4, 67, 0
7, 153600, Note_on_c, 4, 67, 100
7, 153600, Note_on_c, 4, 72, 100
7, 153600, Note_on_c, 4, 75, 100
7, 153818, Note_on_c, 4, 75, 0
7, 153818, Note_on_c, 4, 72, 0
7, 153818, Note_on_c, 4, 67, 0
7, 153840, Note_on_c, 4, 67, 100
7, 153840, Note_on_c, 4, 72, 100
7, 153840, Note_on_c, 4, 75, 100
7, 154156, Note_on_c, 4, 75, 0
7, 154156, Note_on_c, 4, 72, 0
7, 154156, Note_on_c, 4, 67, 0
7, 154320, Note_on_c, 4, 68, 100
7, 154320, Note_on_c, 4, 72, 100
7, 154320, Note_on_c, 4, 75, 100
7, 154636, Note_on_c, 4, 75, 0
7, 154636, Note_on_c, 4, 72, 0
7, 154636, Note_on_c, 4, 68, 0
7, 154800, Note_on_c, 4, 68, 100
7, 154800, Note_on_c, 4, 72, 100
7, 154800, Note_on_c, 4, 75, 100
7, 155116, Note_on_c, 4, 75, 0
7, 155116, Note_on_c, 4, 72, 0
7, 155116, Note_on_c, 4, 68, 0
7, 155280, Note_on_c, 4, 67, 100
7, 155280, Note_on_c, 4, 70, 100
7, 155280, Note_on_c, 4, 75, 100
7, 155596, Note_on_c, 4, 75, 0
7, 155596, Note_on_c, 4, 70, 0
7, 155596, Note_on_c, 4, 67, 0
7, 155760, Note_on_c, 4, 67, 100
7, 155760, Note_on_c, 4, 70, 100
7, 155760, Note_on_c, 4, 75, 100
7, 156076, Note_on_c, 4, 75, 0
7, 156076, Note_on_c, 4, 70, 0
7, 156076, Note_on_c, 4, 67, 0
7, 156240, Note_on_c, 4, 67, 100
7, 156240, Note_on_c, 4, 70, 100
7, 156240, Note_on_c, 4, 75, 100
7, 156457, Note_on_c, 4, 75, 0
7, 156457, Note_on_c, 4, 70, 0
7, 156457, Note_on_c, 4, 67, 0
7, 156480, Note_on_c, 4, 67, 100
7, 156480, Note_on_c, 4, 70, 100
7, 156480, Note_on_c, 4, 74, 100
7, 156697, Note_on_c, 4, 74, 0
7, 156697, Note_on_c, 4, 70, 0
7, 156697, Note_on_c, 4, 67, 0
7, 156720, Note_on_c, 4, 67, 100
7, 156720, Note_on_c, 4, 70, 100
7, 156720, Note_on_c, 4, 74, 100
7, 157036, Note_on_c, 4, 74, 0
7, 157036, Note_on_c, 4, 70, 0
7, 157036, Note_on_c, 4, 67, 0
7, 157200, Note_on_c, 4, 67, 100
7, 157200, Note_on_c, 4, 70, 100
7, 157200, Note_on_c, 4, 74, 100
7, 157431, Note_on_c, 4, 74, 0
7, 157431, Note_on_c, 4, 70, 0
7, 157431, Note_on_c, 4, 67, 0
7, 157440, Note_on_c, 4, 67, 100
7, 157440, Note_on_c, 4, 72, 100
7, 157440, Note_on_c, 4, 75, 100
7, 157658, Note_on_c, 4, 75, 0
7, 157658, Note_on_c, 4, 72, 0
7, 157658, Note_on_c, 4, 67, 0
7, 157680, Note_on_c, 4, 67, 100
7, 157680, Note_on_c, 4, 72, 100
7, 157680, Note_on_c, 4, 75, 100
7, 157996, Note_on_c, 4, 75, 0
7, 157996, Note_on_c, 4, 72, 0
7, 157996, Note_on_c, 4, 67, 0
7, 158160, Note_on_c, 4, 68, 100
7, 158160, Note_on_c, 4, 72, 100
7, 158160, Note_on_c, 4, 75, 100
7, 158476, Note_on_c, 4, 75, 0
7, 158476, Note_on_c, 4, 72, 0
7, 158476, Note_on_c, 4, 68, 0
7, 158640, Note_on_c, 4, 68, 100
7, 158640, Note_on_c, 4, 72, 100
7, 158640, Note_on_c, 4, 75, 100
7, 158956, Note_on_c, 4, 75, 0
7, 158956, Note_on_c, 4, 72, 0
7, 158956, Note_on_c, 4, 68, 0
7, 159120, Note_on_c, 4, 67, 100
7, 159120, Note_on_c, 4, 70, 100
7, 159120, Note_on_c, 4, 75, 100
7, 159436, Note_on_c, 4, 75, 0
7, 159436, Note_on_c, 4, 70, 0
7, 159436, Note_on_c, 4, 67, 0
7, 159600, Note_on_c, 4, 67, 100
7, 159600, Note_on_c, 4, 70, 100
7, 159600, Note_on_c, 4, 75, 100
7, 159916, Note_on_c, 4, 75, 0
7, 159916, Note_on_c, 4, 70, 0
7, 159916, Note_on_c, 4, 67, 0
7, 160080, Note_on_c, 4, 67, 100
7, 160080, Note_on_c, 4, 70, 100
7, 160080, Note_on_c, 4, 75, 100
7, 160297, Note_on_c, 4, 75, 0
7, 160297, Note_on_c, 4, 70, 0
7, 160297, Note_on_c, 4, 67, 0
7, 160320, Note_on_c, 4, 67, 100
7, 160320, Note_on_c, 4, 70, 100
7, 160320, Note_on_c, 4, 74, 100
7, 160537, Note_on_c, 4, 74, 0
7, 160537, Note_on_c, 4, 70, 0
7, 160537, Note_on_c, 4, 67, 0
7, 160560, Note_on_c, 4, 67, 100
7, 160560, Note_on_c, 4, 70, 100
7, 160560, Note_on_c, 4, 74, 100
7, 160876, Note_on_c, 4, 74, 0
7, 160876, Note_on_c, 4, 70, 0
7, 160876, Note_on_c, 4, 67, 0
7, 161040, Note_on_c, 4, 67, 100
7, 161040, Note_on_c, 4, 70, 100
7, 161040, Note_on_c, 4, 74, 100
7, 161271, Note_on_c, 4, 74, 0
7, 161271, Note_on_c, 4, 70, 0
7, 161271, Note_on_c, 4, 67, 0
7, 161280, Note_on_c, 4, 67, 100
7, 161280, Note_on_c, 4, 72, 100
7, 161280, Note_on_c, 4, 75, 100
7, 161498, Note_on_c, 4, 75, 0
7, 161498, Note_on_c, 4, 72, 0
7, 161498, Note_on_c, 4, 67, 0
7, 161520, Note_on_c, 4, 67, 100
7, 161520, Note_on_c, 4, 72, 100
7, 161520, Note_on_c, 4, 75, 100
7, 161836, Note_on_c, 4, 75, 0
7, 161836, Note_on_c, 4, 72, 0
7, 161836, Note_on_c, 4, 67, 0
7, 162000, Note_on_c, 4, 68, 100
7, 162000, Note_on_c, 4, 72, 100
7, 162000, Note_on_c, 4, 75, 100
7, 162316, Note_on_c, 4, 75, 0
7, 162316, Note_on_c, 4, 72, 0
7, 162316, Note_on_c, 4, 68, 0
7, 162480, Note_on_c, 4, 68, 100
7, 162480, Note_on_c, 4, 72, 100
7, 162480, Note_on_c, 4, 75, 100
7, 162796, Note_on_c, 4, 75, 0
7, 162796, Note_on_c, 4, 72, 0
7, 162796, Note_on_c, 4, 68, 0
7, 162960, Note_on_c, 4, 67, 100
7, 162960, Note_on_c, 4, 70, 100
7, 162960, Note_on_c, 4, 75, 100
7, 163276, Note_on_c, 4, 75, 0
7, 163276, Note_on_c, 4, 70, 0
7, 163276, Note_on_c, 4, 67, 0
7, 163440, Note_on_c, 4, 67, 100
7, 163440, Note_on_c, 4, 70, 100
7, 163440, Note_on_c, 4, 75, 100
7, 163756, Note_on_c, 4, 75, 0
7, 163756, Note_on_c, 4, 70, 0
7, 163756, Note_on_c, 4, 67, 0
7, 163920, Note_on_c, 4, 67, 100
7, 163920, Note_on_c, 4, 70, 100
7, 163920, Note_on_c, 4, 75, 100
7, 164137, Note_on_c, 4, 75, 0
7, 164137, Note_on_c, 4, 70, 0
7, 164137, Note_on_c, 4, 67, 0
7, 164160, Note_on_c, 4, 67, 100
7, 164160, Note_on_c, 4, 70, 100
7, 164160, Note_on_c, 4, 74, 100
7, 164377, Note_on_c, 4, 74, 0
7, 164377, Note_on_c, 4, 70, 0
7, 164377, Note_on_c, 4, 67, 0
7, 164400, Note_on_c, 4, 67, 100
7, 164400, Note_on_c, 4, 70, 100
7, 164400, Note_on_c, 4, 74, 100
7, 164716, Note_on_c, 4, 74, 0
7, 164716, Note_on_c, 4, 70, 0
7, 164716, Note_on_c, 4, 67, 0
7, 164880, Note_on_c, 4, 67, 100
7, 164880, Note_on_c, 4, 70, 100
7, 164880, Note_on_c, 4, 74, 100
7, 165111, Note_on_c, 4, 74, 0
7, 165111, Note_on_c, 4, 70, 0
7, 165111, Note_on_c, 4, 67, 0
7, 165120, Note_on_c, 4, 67, 100
7, 165120, Note_on_c, 4, 72, 100
7, 165120, Note_on_c, 4, 75, 100
7, 165338, Note_on_c, 4, 75, 0
7, 165338, Note_on_c, 4, 72, 0
7, 165338, Note_on_c, 4, 67, 0
7, 165360, Note_on_c, 4, 67, 100
7, 165360, Note_on_c, 4, 72, 100
7, 165360, Note_on_c, 4, 75, 100
7, 165676, Note_on_c, 4, 75, 0
7, 165676, Note_on_c, 4, 72, 0
7, 165676, Note_on_c, 4, 67, 0
7, 165840, Note_on_c, 4, 68, 100
7, 165840, Note_on_c, 4, 72, 100
7, 165840, Note_on_c, 4, 75, 100
7, 166156, Note_on_c, 4, 75, 0
7, 166156, Note_on_c, 4, 72, 0
7, 166156, Note_on_c, 4, 68, 0
7, 166320, Note_on_c, 4, 68, 100
7, 166320, Note_on_c, 4, 72, 100
7, 166320, Note_on_c, 4, 75, 100
7, 166636, Note_on_c, 4, 75, 0
7, 166636, Note_on_c, 4, 72, 0
7, 166636, Note_on_c, 4, 68, 0
7, 166800, Note_on_c, 4, 67, 100
7, 166800, Note_on_c, 4, 70, 100
7, 166800, Note_on_c, 4, 75, 100
7, 167116, Note_on_c, 4, 75, 0
7, 167116, Note_on_c, 4, 70, 0
7, 167116, Note_on_c, 4, 67, 0
7, 167280, Note_on_c, 4, 67, 100
7, 167280, Note_on_c, 4, 70, 100
7, 167280, Note_on_c, 4, 75, 100
7, 167596, Note_on_c, 4, 75, 0
7, 167596, Note_on_c, 4, 70, 0
7, 167596, Note_on_c, 4, 67, 0
7, 167760, Note_on_c, 4, 67, 100
7, 167760, Note_on_c, 4, 70, 100
7, 167760, Note_on_c, 4, 75, 100
7, 167977, Note_on_c, 4, 75, 0
7, 167977, Note_on_c, 4, 70, 0
7, 167977, Note_on_c, 4, 67, 0
7, 168000, Note_on_c, 4, 67, 100
7, 168000, Note_on_c, 4, 70, 100
7, 168000, Note_on_c, 4, 74, 100
7, 168217, Note_on_c, 4, 74, 0
7, 168217, Note_on_c, 4, 70, 0
7, 168217, Note_on_c, 4, 67, 0
7, 168240, Note_on_c, 4, 67, 100
7, 168240, Note_on_c, 4, 70, 100
7, 168240, Note_on_c, 4, 74, 100
7, 168556, Note_on_c, 4, 74, 0
7, 168556, Note_on_c, 4, 70, 0
7, 168556, Note_on_c, 4, 67, 0
7, 168720, Note_on_c, 4, 67, 100
7, 168720, Note_on_c, 4, 70, 100
7, 168720, Note_on_c, 4, 74, 100
7, 168951, Note_on_c, 4, 74, 0
7, 168951, Note_on_c, 4, 70, 0
7, 168951, Note_on_c, 4, 67, 0
7, 168960, Note_on_c, 4, 67, 100
7, 168960, Note_on_c, 4, 72, 100
7, 168960, Note_on_c, 4, 75, 100
7, 169178, Note_on_c, 4, 75, 0
7, 169178, Note_on_c, 4, 72, 0
7, 169178, Note_on_c, 4, 67, 0
7, 169200, Note_on_c, 4, 67, 100
7, 169200, Note_on_c, 4, 72, 100
7, 169200, Note_on_c, 4, 75, 100
7, 169516, Note_on_c, 4, 75, 0
7, 169516, Note_on_c, 4, 72, 0
7, 169516, Note_on_c, 4, 67, 0
7, 169680, Note_on_c, 4, 68, 100
7, 169680, Note_on_c, 4, 72, 100
7, 169680, Note_on_c, 4, 75, 100
7, 169996, Note_on_c, 4, 75, 0
7, 169996, Note_on_c, 4, 72, 0
7, 169996, Note_on_c, 4, 68, 0
7, 170160, Note_on_c, 4, 68, 100
7, 170160, Note_on_c, 4, 72, 100
7, 170160, Note_on_c, 4, 75, 100
7, 170476, Note_on_c, 4, 75, 0
7, 170476, Note_on_c, 4, 72, 0
7, 170476, Note_on_c, 4, 68, 0
7, 170640, Note_on_c, 4, 67, 100
7, 170640, Note_on_c, 4, 70, 100
7, 170640, Note_on_c, 4, 75, 100
7, 170956, Note_on_c, 4, 75, 0
7, 170956, Note_on_c, 4, 70, 0
7, 170956, Note_on_c, 4, 67, 0
7, 171120, Note_on_c, 4, 67, 100
7, 171120, Note_on_c, 4, 70, 100
7, 171120, Note_on_c, 4, 75, 100
7, 171436, Note_on_c, 4, 75, 0
7, 171436, Note_on_c, 4, 70, 0
7, 171436, Note_on_c, 4, 67, 0
7, 171600, Note_on_c, 4, 67, 100
7, 171600, Note_on_c, 4, 70, 100
7, 171600, Note_on_c, 4, 75, 100
7, 171817, Note_on_c, 4, 75, 0
7, 171817, Note_on_c, 4, 70, 0
7, 171817, Note_on_c, 4, 67, 0
7, 171840, Note_on_c, 4, 67, 100
7, 171840, Note_on_c, 4, 70, 100
7, 171840, Note_on_c, 4, 74, 100
7, 172057, Note_on_c, 4, 74, 0
7, 172057, Note_on_c, 4, 70, 0
7, 172057, Note_on_c, 4, 67, 0
7, 172080, Note_on_c, 4, 67, 100
7, 172080, Note_on_c, 4, 70, 100
7, 172080, Note_on_c, 4, 74, 100
7, 172396, Note_on_c, 4, 74, 0
7, 172396, Note_on_c, 4, 70, 0
7, 172396, Note_on_c, 4, 67, 0
7, 172560, Note_on_c, 4, 67, 100
7, 172560, Note_on_c, 4, 70, 100
7, 172560, Note_on_c, 4, 74, 100
7, 172791, Note_on_c, 4, 74, 0
7, 172791, Note_on_c, 4, 70, 0
7, 172791, Note_on_c, 4, 67, 0
7, 172800, Note_on_c, 4, 67, 100
7, 172800, Note_on_c, 4, 72, 100
7, 172800, Note_on_c, 4, 75, 100
7, 173018, Note_on_c, 4, 75, 0
7, 173018, Note_on_c, 4, 72, 0
7, 173018, Note_on_c, 4, 67, 0
7, 173040, Note_on_c, 4, 67, 100
7, 173040, Note_on_c, 4, 72, 100
7, 173040, Note_on_c, 4, 75, 100
7, 173356, Note_on_c, 4, 75, 0
7, 173356, Note_on_c, 4, 72, 0
7, 173356, Note_on_c, 4, 67, 0
7, 173520, Note_on_c, 4, 68, 100
7, 173520, Note_on_c, 4, 72, 100
7, 173520, Note_on_c, 4, 75, 100
7, 173836, Note_on_c, 4, 75, 0
7, 173836, Note_on_c, 4, 72, 0
7, 173836, Note_on_c, 4, 68, 0
7, 174000, Note_on_c, 4, 68, 100
7, 174000, Note_on_c, 4, 72, 100
7, 174000, Note_on_c, 4, 75, 100
7, 174316, Note_on_c, 4, 75, 0
7, 174316, Note_on_c, 4, 72, 0
7, 174316, Note_on_c, 4, 68, 0
7, 174480, Note_on_c, 4, 67, 100
7, 174480, Note_on_c, 4, 70, 100
7, 174480, Note_on_c, 4, 75, 100
7, 174796, Note_on_c, 4, 75, 0
7, 174796, Note_on_c, 4, 70, 0
7, 174796, Note_on_c, 4, 67, 0
7, 174960, Note_on_c, 4, 67, 100
7, 174960, Note_on_c, 4, 70, 100
7, 174960, Note_on_c, 4, 75, 100
7, 175276, Note_on_c, 4, 75, 0
7, 175276, Note_on_c, 4, 70, 0
7, 175276, Note_on_c, 4, 67, 0
7, 175440, Note_on_c, 4, 67, 100
7, 175440, Note_on_c, 4, 70, 100
7, 175440, Note_on_c, 4, 75, 100
7, 175657, Note_on_c, 4, 75, 0
7, 175657, Note_on_c, 4, 70, 0
7, 175657, Note_on_c, 4, 67, 0
7, 175680, Note_on_c, 4, 67, 100
7, 175680, Note_on_c, 4, 70, 100
7, 175680, Note_on_c, 4, 74, 100
7, 175897, Note_on_c, 4, 74, 0
7, 175897, Note_on_c, 4, 70, 0
7, 175897, Note_on_c, 4, 67, 0
7, 175920, Note_on_c, 4, 67, 100
7, 175920, Note_on_c, 4, 70, 100
7, 175920, Note_on_c, 4, 74, 100
7, 176236, Note_on_c, 4, 74, 0
7, 176236, Note_on_c, 4, 70, 0
7, 176236, Note_on_c, 4, 67, 0
7, 176400, Note_on_c, 4, 67, 100
7, 176400, Note_on_c, 4, 70, 100
7, 176400, Note_on_c, 4, 74, 100
7, 176631, Note_on_c, 4, 74, 0
7, 176631, Note_on_c, 4, 70, 0
7, 176631, Note_on_c, 4, 67, 0
7, 176640, Note_on_c, 4, 67, 100
7, 176640, Note_on_c, 4, 72, 100
7, 176640, Note_on_c, 4, 75, 100
7, 176858, Note_on_c, 4, 75, 0
7, 176858, Note_on_c, 4, 72, 0
7, 176858, Note_on_c, 4, 67, 0
7, 176880, Note_on_c, 4, 67, 100
7, 176880, Note_on_c, 4, 72, 100
7, 176880, Note_on_c, 4, 75, 100
7, 177196, Note_on_c, 4, 75, 0
7, 177196, Note_on_c, 4, 72, 0
7, 177196, Note_on_c, 4, 67, 0
7, 177360, Note_on_c, 4, 68, 100
7, 177360, Note_on_c, 4, 72, 100
7, 177360, Note_on_c, 4, 75, 100
7, 177676, Note_on_c, 4, 75, 0
7, 177676, Note_on_c, 4, 72, 0
7, 177676, Note_on_c, 4, 68, 0
7, 177840, Note_on_c, 4, 68, 100
7, 177840, Note_on_c, 4, 72, 100
7, 177840, Note_on_c, 4, 75, 100
7, 178156, Note_on_c, 4, 75, 0
7, 178156, Note_on_c, 4, 72, 0
7, 178156, Note_on_c, 4, 68, 0
7, 178320, Note_on_c, 4, 67, 100
7, 178320, Note_on_c, 4, 70, 100
7, 178320, Note_on_c, 4, 75, 100
7, 178636, Note_on_c, 4, 75, 0
7, 178636, Note_on_c, 4, 70, 0
7, 178636, Note_on_c, 4, 67, 0
7, 178800, Note_on_c, 4, 67, 100
7, 178800, Note_on_c, 4, 70, 100
7, 178800, Note_on_c, 4, 75, 100
7, 179116, Note_on_c, 4, 75, 0
7, 179116, Note_on_c, 4, 70, 0
7, 179116, Note_on_c, 4, 67, 0
7, 179280, Note_on_c, 4, 67, 100
7, 179280, Note_on_c, 4, 70, 100
7, 179280, Note_on_c, 4, 75, 100
7, 179497, Note_on_c, 4, 75, 0
7, 179497, Note_on_c, 4, 70, 0
7, 179497, Note_on_c, 4, 67, 0
7, 179520, Note_on_c, 4, 67, 100
7, 179520, Note_on_c, 4, 70, 100
7, 179520, Note_on_c, 4, 74, 100
7, 179737, Note_on_c, 4, 74, 0
7, 179737, Note_on_c, 4, 70, 0
7, 179737, Note_on_c, 4, 67, 0
7, 179760, Note_on_c, 4, 67, 100
7, 179760, Note_on_c, 4, 70, 100
7, 179760, Note_on_c, 4, 74, 100
7, 180076, Note_on_c, 4, 74, 0
7, 180076, Note_on_c, 4, 70, 0
7, 180076, Note_on_c, 4, 67, 0
7, 180240, Note_on_c, 4, 67, 100
7, 180240, Note_on_c, 4, 70, 100
7, 180240, Note_on_c, 4, 74, 100
7, 180471, Note_on_c, 4, 74, 0
7, 180471, Note_on_c, 4, 70, 0
7, 180471, Note_on_c, 4, 67, 0
7, 180480, Note_on_c, 4, 67, 100
7, 180480, Note_on_c, 4, 72, 100
7, 180480, Note_on_c, 4, 75, 100
7, 180698, Note_on_c, 4, 75, 0
7, 180698, Note_on_c, 4, 72, 0
7, 180698, Note_on_c, 4, 67, 0
7, 180720, Note_on_c, 4, 67, 100
7, 180720, Note_on_c, 4, 72, 100
7, 180720, Note_on_c, 4, 75, 100
7, 181036, Note_on_c, 4, 75, 0
7, 181036, Note_on_c, 4, 72, 0
7, 181036, Note_on_c, 4, 67, 0
7, 181200, Note_on_c, 4, 68, 100
7, 181200, Note_on_c, 4, 72, 100
7, 181200, Note_on_c, 4, 75, 100
7, 181516, Note_on_c, 4, 75, 0
7, 181516, Note_on_c, 4, 72, 0
7, 181516, Note_on_c, 4, 68, 0
7, 181680, Note_on_c, 4, 68, 100
7, 181680, Note_on_c, 4, 72, 100
7, 181680, Note_on_c, 4, 75, 100
7, 181996, Note_on_c, 4, 75, 0
7, 181996, Note_on_c, 4, 72, 0
7, 181996, Note_on_c, 4, 68, 0
7, 182160, Note_on_c, 4, 67, 100
7, 182160, Note_on_c, 4, 70, 100
7, 182160, Note_on_c, 4, 75, 100
7, 182476, Note_on_c, 4, 75, 0
7, 182476, Note_on_c, 4, 70, 0
7, 182476, Note_on_c, 4, 67, 0
7, 182640, Note_on_c, 4, 67, 100
7, 182640, Note_on_c, 4, 70, 100
7, 182640, Note_on_c, 4, 75, 100
7, 182956, Note_on_c, 4, 75, 0
7, 182956, Note_on_c, 4, 70, 0
7, 182956, Note_on_c, 4, 67, 0
7, 183120, Note_on_c, 4, 67, 100
7, 183120, Note_on_c, 4, 70, 100
7, 183120, Note_on_c, 4, 75, 100
7, 183337, Note_on_c, 4, 75, 0
7, 183337, Note_on_c, 4, 70, 0
7, 183337, Note_on_c, 4, 67, 0
7, 183360, Note_on_c, 4, 67, 100
7, 183360, Note_on_c, 4, 70, 100
7, 183360, Note_on_c, 4, 74, 100
7, 183577, Note_on_c, 4, 74, 0
7, 183577, Note_on_c, 4, 70, 0
7, 183577, Note_on_c, 4, 67, 0
7, 183600, Note_on_c, 4, 67, 100
7, 183600, Note_on_c, 4, 70, 100
7, 183600, Note_on_c, 4, 74, 100
7, 183916, Note_on_c, 4, 74, 0
7, 183916, Note_on_c, 4, 70, 0
7, 183916, Note_on_c, 4, 67, 0
7, 184080, Note_on_c, 4, 67, 100
7, 184080, Note_on_c, 4, 70, 100
7, 184080, Note_on_c, 4, 74, 100
7, 184311, Note_on_c, 4, 74, 0
7, 184311, Note_on_c, 4, 70, 0
7, 184311, Note_on_c, 4, 67, 0
7, 184320, Note_on_c, 4, 67, 100
7, 184320, Note_on_c, 4, 72, 100
7, 184320, Note_on_c, 4, 75, 100
7, 184538, Note_on_c, 4, 75, 0
7, 184538, Note_on_c, 4, 72, 0
7, 184538, Note_on_c, 4, 67, 0
7, 184560, Note_on_c, 4, 67, 100
7, 184560, Note_on_c, 4, 72, 100
7, 184560, Note_on_c, 4, 75, 100
7, 184876, Note_on_c, 4, 75, 0
7, 184876, Note_on_c, 4, 72, 0
7, 184876, Note_on_c, 4, 67, 0
7, 185040, Note_on_c, 4, 68, 100
7, 185040, Note_on_c, 4, 72, 100
7, 185040, Note_on_c, 4, 75, 100
7, 185356, Note_on_c, 4, 75, 0
7, 185356, Note_on_c, 4, 72, 0
7, 185356, Note_on_c, 4, 68, 0
7, 185520, Note_on_c, 4, 68, 100
7, 185520, Note_on_c, 4, 72, 100
7, 185520, Note_on_c, 4, 75, 100
7, 185836, Note_on_c, 4, 75, 0
7, 185836, Note_on_c, 4, 72, 0
7, 185836, Note_on_c, 4, 68, 0
7, 186000, Note_on_c, 4, 67, 100
7, 186000, Note_on_c, 4, 70, 100
7, 186000, Note_on_c, 4, 75, 100
7, 186316, Note_on_c, 4, 75, 0
7, 186316, Note_on_c, 4, 70, 0
7, 186316, Note_on_c, 4, 67, 0
7, 186480, Note_on_c, 4, 67, 100
7, 186480, Note_on_c, 4, 70, 100
7, 186480, Note_on_c, 4, 75, 100
7, 186796, Note_on_c, 4, 75, 0
7, 186796, Note_on_c, 4, 70, 0
7, 186796, Note_on_c, 4, 67, 0
7, 186960, Note_on_c, 4, 67, 100
7, 186960, Note_on_c, 4, 70, 100
7, 186960, Note_on_c, 4, 75, 100
7, 187177, Note_on_c, 4, 75, 0
7, 187177, Note_on_c, 4, 70, 0
7, 187177, Note_on_c, 4, 67, 0
7, 187200, Note_on_c, 4, 67, 100
7, 187200, Note_on_c, 4, 70, 100
7, 187200, Note_on_c, 4, 74, 100
7, 187417, Note_on_c, 4, 74, 0
7, 187417, Note_on_c, 4, 70, 0
7, 187417, Note_on_c, 4, 67, 0
7, 187440, Note_on_c, 4, 67, 100
7, 187440, Note_on_c, 4, 70, 100
7, 187440, Note_on_c, 4, 74, 100
7, 187756, Note_on_c, 4, 74, 0
7, 187756, Note_on_c, 4, 70, 0
7, 187756, Note_on_c, 4, 67, 0
7, 187920, Note_on_c, 4, 67, 100
7, 187920, Note_on_c, 4, 70, 100
7, 187920, Note_on_c, 4, 74, 100
7, 188151, Note_on_c, 4, 74, 0
7, 188151, Note_on_c, 4, 70, 0
7, 188151, Note_on_c, 4, 67, 0
7, 188160, Note_on_c, 4, 67, 100
7, 188160, Note_on_c, 4, 72, 100
7, 188160, Note_on_c, 4, 75, 100
7, 188378, Note_on_c, 4, 75, 0
7, 188378, Note_on_c, 4, 72, 0
7, 188378, Note_on_c, 4, 67, 0
7, 188400, Note_on_c, 4, 67, 100
7, 188400, Note_on_c, 4, 72, 100
7, 188400, Note_on_c, 4, 75, 100
7, 188716, Note_on_c, 4, 75, 0
7, 188716, Note_on_c, 4, 72, 0
7, 188716, Note_on_c, 4, 67, 0
7, 188880, Note_on_c, 4, 68, 100
7, 188880, Note_on_c, 4, 72, 100
7, 188880, Note_on_c, 4, 75, 100
7, 189196, Note_on_c, 4, 75, 0
7, 189196, Note_on_c, 4, 72, 0
7, 189196, Note_on_c, 4, 68, 0
7, 189360, Note_on_c, 4, 68, 100
7, 189360, Note_on_c, 4, 72, 100
7, 189360, Note_on_c, 4, 75, 100
7, 189676, Note_on_c, 4, 75, 0
7, 189676, Note_on_c, 4, 72, 0
7, 189676, Note_on_c, 4, 68, 0
7, 189840, Note_on_c, 4, 67, 100
7, 189840, Note_on_c, 4, 70, 100
7, 189840, Note_on_c, 4, 75, 100
7, 190156, Note_on_c, 4, 75, 0
7, 190156, Note_on_c, 4, 70, 0
7, 190156, Note_on_c, 4, 67, 0
7, 190320, Note_on_c, 4, 67, 100
7, 190320, Note_on_c, 4, 70, 100
7, 190320, Note_on_c, 4, 75, 100
7, 190636, Note_on_c, 4, 75, 0
7, 190636, Note_on_c, 4, 70, 0
7, 190636, Note_on_c, 4, 67, 0
7, 190800, Note_on_c, 4, 67, 100
7, 190800, Note_on_c, 4, 70, 100
7, 190800, Note_on_c, 4, 75, 100
7, 191017, Note_on_c, 4, 75, 0
7, 191017, Note_on_c, 4, 70, 0
7, 191017, Note_on_c, 4, 67, 0
7, 191040, Note_on_c, 4, 67, 100
7, 191040, Note_on_c, 4, 70, 100
7, 191040, Note_on_c, 4, 74, 100
7, 191257, Note_on_c, 4, 74, 0
7, 191257, Note_on_c, 4, 70, 0
7, 191257, Note_on_c, 4, 67, 0
7, 191280, Note_on_c, 4, 67, 100
7, 191280, Note_on_c, 4, 70, 100
7, 191280, Note_on_c, 4, 74, 100
7, 191596, Note_on_c, 4, 74, 0
7, 191596, Note_on_c, 4, 70, 0
7, 191596, Note_on_c, 4, 67, 0
7, 191760, Note_on_c, 4, 67, 100
7, 191760, Note_on_c, 4, 70, 100
7, 191760, Note_on_c, 4, 74, 100
7, 191991, Note_on_c, 4, 74, 0
7, 191991, Note_on_c, 4, 70, 0
7, 191991, Note_on_c, 4, 67, 0
7, 192000, Note_on_c, 4, 60, 100
7, 192000, Note_on_c, 4, 63, 100
7, 192000, Note_on_c, 4, 67, 100
7, 192620, Note_on_c, 4, 63, 0
7, 192632, Note_on_c, 4, 60, 0
7, 192678, Note_on_c, 4, 67, 0
7, 192720, Note_on_c, 4, 56, 100
7, 192720, Note_on_c, 4, 60, 100
7, 192720, Note_on_c, 4, 63, 100
7, 193597, Note_on_c, 4, 60, 0
7, 193642, Note_on_c, 4, 63, 0
7, 193663, Note_on_c, 4, 56, 0
7, 193680, Note_on_c, 4, 51, 100
7, 193680, Note_on_c, 4, 55, 100
7, 193680, Note_on_c, 4, 58, 100
7, 195805, Note_on_c, 4, 51, 0
7, 195808, Note_on_c, 4, 58, 0
7, 195818, Note_on_c, 4, 55, 0
7, 195818, End_track
8, 0, Start_track
8, 0, MIDI_port, 0
8, 0, Title_t, "Choeurs"
8, 505, Control_c, 5, 0, 0
8, 507, Program_c, 5, 82
8, 508, Control_c, 5, 7, 100
8, 508, Control_c, 5, 10, 84
8, 1215, Control_c, 5, 121, 0
8, 1222, Control_c, 5, 91, 80
8, 1223, Control_c, 5, 93, 20
8, 1225, Control_c, 5, 94, 5
8, 1226, Control_c, 5, 11, 127
8, 1230, Control_c, 5, 101, 0
8, 1230, Control_c, 5, 100, 0
8, 1230, Control_c, 5, 6, 2
8, 1230, Control_c, 5, 38, 0
8, 1231, Control_c, 5, 71, 64
8, 1232, Control_c, 5, 72, 64
8, 1233, Control_c, 5, 73, 64
8, 1235, Control_c, 5, 74, 64
8, 3120, Note_on_c, 5, 67, 96
8, 3360, Note_on_c, 5, 65, 80
8, 3393, Note_on_c, 5, 67, 0
8, 3600, Note_on_c, 5, 63, 78
8, 3617, Note_on_c, 5, 65, 0
8, 6710, Note_on_c, 5, 63, 0
8, 6960, Note_on_c, 5, 67, 96
8, 7200, Note_on_c, 5, 65, 80
8, 7233, Note_on_c, 5, 67, 0
8, 7440, Note_on_c, 5, 63, 78
8, 7457, Note_on_c, 5, 65, 0
8, 10550, Note_on_c, 5, 63, 0
8, 10800, Note_on_c, 5, 67, 96
8, 11040, Note_on_c, 5, 65, 80
8, 11073, Note_on_c, 5, 67, 0
8, 11280, Note_on_c, 5, 63, 78
8, 11297, Note_on_c, 5, 65, 0
8, 14390, Note_on_c, 5, 63, 0
8, 14640, Note_on_c, 5, 67, 96
8, 14880, Note_on_c, 5, 65, 80
8, 14913, Note_on_c, 5, 67, 0
8, 15120, Note_on_c, 5, 63, 78
8, 15137, Note_on_c, 5, 65, 0
8, 18230, Note_on_c, 5, 63, 0
8, 20160, Note_on_c, 5, 62, 115
8, 20345, Note_on_c, 5, 62, 0
8, 20640, Note_on_c, 5, 62, 106
8, 20797, Note_on_c, 5, 62, 0
8, 20880, Note_on_c, 5, 63, 102
8, 21058, Note_on_c, 5, 63, 0
8, 21360, Note_on_c, 5, 63, 78
8, 21577, Note_on_c, 5, 63, 0
8, 21840, Note_on_c, 5, 58, 56
8, 22052, Note_on_c, 5, 58, 0
8, 24000, Note_on_c, 5, 62, 115
8, 24185, Note_on_c, 5, 62, 0
8, 24480, Note_on_c, 5, 62, 106
8, 24637, Note_on_c, 5, 62, 0
8, 24720, Note_on_c, 5, 63, 102
8, 24898, Note_on_c, 5, 63, 0
8, 25200, Note_on_c, 5, 63, 78
8, 25417, Note_on_c, 5, 63, 0
8, 25560, Note_on_c, 5, 58, 69
8, 25751, Note_on_c, 5, 58, 0
8, 26040, Note_on_c, 5, 55, 49
8, 26252, Note_on_c, 5, 55, 0
8, 27840, Note_on_c, 5, 62, 109
8, 28032, Note_on_c, 5, 62, 0
8, 28320, Note_on_c, 5, 62, 111
8, 28493, Note_on_c, 5, 62, 0
8, 28560, Note_on_c, 5, 63, 97
8, 28752, Note_on_c, 5, 63, 0
8, 29040, Note_on_c, 5, 63, 74
8, 29239, Note_on_c, 5, 63, 0
8, 29520, Note_on_c, 5, 58, 78
8, 29732, Note_on_c, 5, 58, 0
8, 31680, Note_on_c, 5, 62, 105
8, 31896, Note_on_c, 5, 62, 0
8, 32160, Note_on_c, 5, 62, 100
8, 32335, Note_on_c, 5, 62, 0
8, 32400, Note_on_c, 5, 63, 101
8, 32616, Note_on_c, 5, 63, 0
8, 32880, Control_c, 5, 10, 113
8, 32880, Note_on_c, 5, 58, 85
8, 33000, Control_c, 5, 10, 113
8, 33071, Note_on_c, 5, 58, 0
8, 33360, Note_on_c, 5, 55, 78
8, 33572, Note_on_c, 5, 55, 0
8, 34200, Control_c, 5, 10, 75
8, 34320, Note_on_c, 5, 58, 83
8, 34320, Note_on_c, 5, 67, 83
8, 35261, Note_on_c, 5, 67, 0
8, 35261, Note_on_c, 5, 58, 0
8, 35280, Note_on_c, 5, 55, 69
8, 35280, Note_on_c, 5, 63, 69
8, 35946, Note_on_c, 5, 63, 0
8, 35946, Note_on_c, 5, 55, 0
8, 36000, Note_on_c, 5, 56, 74
8, 36000, Note_on_c, 5, 60, 74
8, 36192, Note_on_c, 5, 60, 0
8, 36192, Note_on_c, 5, 56, 0
8, 36240, Note_on_c, 5, 56, 74
8, 36240, Note_on_c, 5, 60, 74
8, 37373, Note_on_c, 5, 60, 0
8, 37373, Note_on_c, 5, 56, 0
8, 38160, Note_on_c, 5, 58, 83
8, 38160, Note_on_c, 5, 67, 83
8, 39101, Note_on_c, 5, 67, 0
8, 39101, Note_on_c, 5, 58, 0
8, 39120, Note_on_c, 5, 55, 69
8, 39120, Note_on_c, 5, 63, 69
8, 39786, Note_on_c, 5, 63, 0
8, 39786, Note_on_c, 5, 55, 0
8, 39840, Note_on_c, 5, 55, 74
8, 39840, Note_on_c, 5, 62, 74
8, 40032, Note_on_c, 5, 62, 0
8, 40032, Note_on_c, 5, 55, 0
8, 40080, Note_on_c, 5, 53, 74
8, 40080, Note_on_c, 5, 62, 74
8, 41213, Note_on_c, 5, 62, 0
8, 41213, Note_on_c, 5, 53, 0
8, 42000, Note_on_c, 5, 58, 83
8, 42000, Note_on_c, 5, 67, 83
8, 42941, Note_on_c, 5, 67, 0
8, 42941, Note_on_c, 5, 58, 0
8, 42960, Note_on_c, 5, 55, 69
8, 42960, Note_on_c, 5, 63, 69
8, 43626, Note_on_c, 5, 63, 0
8, 43626, Note_on_c, 5, 55, 0
8, 43680, Note_on_c, 5, 56, 74
8, 43680, Note_on_c, 5, 60, 74
8, 43872, Note_on_c, 5, 60, 0
8, 43872, Note_on_c, 5, 56, 0
8, 43920, Note_on_c, 5, 56, 74
8, 43920, Note_on_c, 5, 60, 74
8, 45053, Note_on_c, 5, 60, 0
8, 45053, Note_on_c, 5, 56, 0
8, 45360, Note_on_c, 5, 51, 74
8, 45360, Note_on_c, 5, 60, 86
8, 45360, Note_on_c, 5, 63, 67
8, 45445, Note_on_c, 5, 63, 0
8, 45446, Note_on_c, 5, 60, 0
8, 45469, Note_on_c, 5, 51, 0
8, 45600, Note_on_c, 5, 51, 85
8, 45600, Note_on_c, 5, 60, 80
8, 45600, Note_on_c, 5, 63, 67
8, 45682, Note_on_c, 5, 63, 0
8, 45712, Note_on_c, 5, 60, 0
8, 45755, Note_on_c, 5, 51, 0
8, 45840, Note_on_c, 5, 53, 78
8, 45840, Note_on_c, 5, 60, 86
8, 45840, Note_on_c, 5, 63, 85
8, 46019, Note_on_c, 5, 63, 0
8, 46041, Note_on_c, 5, 60, 0
8, 46059, Note_on_c, 5, 53, 0
8, 46080, Note_on_c, 5, 55, 80
8, 46080, Note_on_c, 5, 58, 69
8, 46080, Note_on_c, 5, 63, 69
8, 46185, Note_on_c, 5, 63, 0
8, 46233, Note_on_c, 5, 55, 0
8, 46238, Note_on_c, 5, 58, 0
8, 46320, Note_on_c, 5, 55, 80
8, 46320, Note_on_c, 5, 58, 78
8, 46320, Note_on_c, 5, 63, 71
8, 46657, Note_on_c, 5, 63, 0
8, 46714, Note_on_c, 5, 58, 0
8, 46738, Note_on_c, 5, 55, 0
8, 47280, Note_on_c, 5, 51, 85
8, 47280, Note_on_c, 5, 60, 78
8, 47280, Note_on_c, 5, 63, 66
8, 47355, Note_on_c, 5, 60, 0
8, 47363, Note_on_c, 5, 63, 0
8, 47365, Note_on_c, 5, 51, 0
8, 47520, Note_on_c, 5, 51, 85
8, 47520, Note_on_c, 5, 60, 78
8, 47520, Note_on_c, 5, 63, 67
8, 47612, Note_on_c, 5, 63, 0
8, 47668, Note_on_c, 5, 60, 0
8, 47698, Note_on_c, 5, 51, 0
8, 47760, Note_on_c, 5, 53, 78
8, 47760, Note_on_c, 5, 60, 89
8, 47760, Note_on_c, 5, 63, 78
8, 47964, Note_on_c, 5, 63, 0
8, 47970, Note_on_c, 5, 53, 0
8, 47975, Note_on_c, 5, 60, 0
8, 48000, Note_on_c, 5, 55, 74
8, 48000, Note_on_c, 5, 58, 66
8, 48000, Note_on_c, 5, 62, 72
8, 48167, Note_on_c, 5, 58, 0
8, 48168, Note_on_c, 5, 62, 0
8, 48193, Note_on_c, 5, 55, 0
8, 48240, Note_on_c, 5, 55, 80
8, 48240, Note_on_c, 5, 58, 74
8, 48240, Note_on_c, 5, 62, 83
8, 48500, Note_on_c, 5, 62, 0
8, 48547, Note_on_c, 5, 58, 0
8, 48567, Note_on_c, 5, 55, 0
8, 66240, Note_on_c, 5, 62, 115
8, 66425, Note_on_c, 5, 62, 0
8, 66720, Note_on_c, 5, 62, 106
8, 66877, Note_on_c, 5, 62, 0
8, 66960, Note_on_c, 5, 63, 102
8, 67138, Note_on_c, 5, 63, 0
8, 67440, Note_on_c, 5, 63, 78
8, 67657, Note_on_c, 5, 63, 0
8, 67920, Note_on_c, 5, 58, 56
8, 68132, Note_on_c, 5, 58, 0
8, 70080, Note_on_c, 5, 62, 115
8, 70265, Note_on_c, 5, 62, 0
8, 70560, Note_on_c, 5, 62, 106
8, 70717, Note_on_c, 5, 62, 0
8, 70800, Note_on_c, 5, 63, 102
8, 70978, Note_on_c, 5, 63, 0
8, 71280, Note_on_c, 5, 63, 78
8, 71497, Note_on_c, 5, 63, 0
8, 71640, Note_on_c, 5, 58, 69
8, 71831, Note_on_c, 5, 58, 0
8, 72120, Note_on_c, 5, 55, 49
8, 72332, Note_on_c, 5, 55, 0
8, 73920, Note_on_c, 5, 62, 115
8, 74105, Note_on_c, 5, 62, 0
8, 74400, Note_on_c, 5, 62, 106
8, 74557, Note_on_c, 5, 62, 0
8, 74640, Note_on_c, 5, 63, 102
8, 74818, Note_on_c, 5, 63, 0
8, 75120, Note_on_c, 5, 63, 78
8, 75337, Note_on_c, 5, 63, 0
8, 75600, Note_on_c, 5, 58, 56
8, 75812, Note_on_c, 5, 58, 0
8, 77760, Note_on_c, 5, 62, 115
8, 77945, Note_on_c, 5, 62, 0
8, 78240, Note_on_c, 5, 62, 106
8, 78397, Note_on_c, 5, 62, 0
8, 78480, Note_on_c, 5, 63, 102
8, 78658, Note_on_c, 5, 63, 0
8, 78960, Note_on_c, 5, 63, 78
8, 79177, Note_on_c, 5, 63, 0
8, 79320, Note_on_c, 5, 58, 69
8, 79440, Note_on_c, 5, 67, 72
8, 79511, Note_on_c, 5, 58, 0
8, 79525, Note_on_c, 5, 67, 0
8, 79680, Note_on_c, 5, 67, 100
8, 79800, Note_on_c, 5, 55, 49
8, 79824, Note_on_c, 5, 67, 0
8, 79920, Note_on_c, 5, 67, 89
8, 80012, Note_on_c, 5, 55, 0
8, 80123, Note_on_c, 5, 67, 0
8, 80160, Note_on_c, 5, 65, 76
8, 80375, Note_on_c, 5, 65, 0
8, 80400, Note_on_c, 5, 63, 69
8, 80525, Note_on_c, 5, 63, 0
8, 80640, Note_on_c, 5, 63, 71
8, 80830, Note_on_c, 5, 63, 0
8, 80880, Note_on_c, 5, 63, 63
8, 81028, Note_on_c, 5, 63, 0
8, 81600, Note_on_c, 5, 62, 109
8, 81792, Note_on_c, 5, 62, 0
8, 82080, Note_on_c, 5, 62, 111
8, 82253, Note_on_c, 5, 62, 0
8, 82320, Note_on_c, 5, 63, 97
8, 82512, Note_on_c, 5, 63, 0
8, 82800, Note_on_c, 5, 63, 74
8, 82999, Note_on_c, 5, 63, 0
8, 83280, Note_on_c, 5, 58, 78
8, 83492, Note_on_c, 5, 58, 0
8, 83528, Note_on_c, 5, 67, 74
8, 83695, Note_on_c, 5, 67, 0
8, 83770, Note_on_c, 5, 67, 78
8, 83936, Note_on_c, 5, 67, 0
8, 84006, Note_on_c, 5, 65, 78
8, 84226, Note_on_c, 5, 65, 0
8, 84238, Note_on_c, 5, 62, 70
8, 84468, Note_on_c, 5, 62, 0
8, 84486, Note_on_c, 5, 63, 66
8, 84875, Note_on_c, 5, 63, 0
8, 84963, Note_on_c, 5, 63, 67
8, 85235, Note_on_c, 5, 63, 0
8, 85440, Note_on_c, 5, 62, 105
8, 85656, Note_on_c, 5, 62, 0
8, 85920, Note_on_c, 5, 62, 100
8, 86095, Note_on_c, 5, 62, 0
8, 86160, Note_on_c, 5, 63, 101
8, 86376, Note_on_c, 5, 63, 0
8, 86640, Control_c, 5, 10, 113
8, 86640, Note_on_c, 5, 63, 85
8, 86760, Control_c, 5, 10, 113
8, 86831, Note_on_c, 5, 63, 0
8, 87120, Note_on_c, 5, 55, 78
8, 87332, Note_on_c, 5, 55, 0
8, 87360, Note_on_c, 5, 53, 65
8, 87572, Note_on_c, 5, 53, 0
8, 87840, Note_on_c, 5, 53, 46
8, 87960, Control_c, 5, 10, 75
8, 88052, Note_on_c, 5, 53, 0
8, 88080, Note_on_c, 5, 58, 83
8, 88080, Note_on_c, 5, 67, 83
8, 89021, Note_on_c, 5, 67, 0
8, 89021, Note_on_c, 5, 58, 0
8, 89040, Note_on_c, 5, 55, 69
8, 89040, Note_on_c, 5, 63, 69
8, 89706, Note_on_c, 5, 63, 0
8, 89706, Note_on_c, 5, 55, 0
8, 89760, Note_on_c, 5, 56, 74
8, 89760, Note_on_c, 5, 60, 74
8, 89952, Note_on_c, 5, 60, 0
8, 89952, Note_on_c, 5, 56, 0
8, 90000, Note_on_c, 5, 56, 74
8, 90000, Note_on_c, 5, 60, 74
8, 91133, Note_on_c, 5, 60, 0
8, 91133, Note_on_c, 5, 56, 0
8, 91920, Note_on_c, 5, 58, 83
8, 91920, Note_on_c, 5, 67, 83
8, 92861, Note_on_c, 5, 67, 0
8, 92861, Note_on_c, 5, 58, 0
8, 92880, Note_on_c, 5, 55, 69
8, 92880, Note_on_c, 5, 63, 69
8, 93546, Note_on_c, 5, 63, 0
8, 93546, Note_on_c, 5, 55, 0
8, 93600, Note_on_c, 5, 55, 74
8, 93600, Note_on_c, 5, 62, 74
8, 93792, Note_on_c, 5, 62, 0
8, 93792, Note_on_c, 5, 55, 0
8, 93840, Note_on_c, 5, 53, 74
8, 93840, Note_on_c, 5, 62, 74
8, 94973, Note_on_c, 5, 62, 0
8, 94973, Note_on_c, 5, 53, 0
8, 95760, Note_on_c, 5, 58, 83
8, 95760, Note_on_c, 5, 67, 83
8, 96701, Note_on_c, 5, 67, 0
8, 96701, Note_on_c, 5, 58, 0
8, 96720, Note_on_c, 5, 55, 69
8, 96720, Note_on_c, 5, 63, 69
8, 97386, Note_on_c, 5, 63, 0
8, 97386, Note_on_c, 5, 55, 0
8, 97440, Note_on_c, 5, 56, 74
8, 97440, Note_on_c, 5, 60, 74
8, 97632, Note_on_c, 5, 60, 0
8, 97632, Note_on_c, 5, 56, 0
8, 97680, Note_on_c, 5, 56, 74
8, 97680, Note_on_c, 5, 60, 74
8, 98813, Note_on_c, 5, 60, 0
8, 98813, Note_on_c, 5, 56, 0
8, 99120, Note_on_c, 5, 51, 74
8, 99120, Note_on_c, 5, 60, 86
8, 99120, Note_on_c, 5, 63, 67
8, 99205, Note_on_c, 5, 63, 0
8, 99206, Note_on_c, 5, 60, 0
8, 99229, Note_on_c, 5, 51, 0
8, 99360, Note_on_c, 5, 51, 85
8, 99360, Note_on_c, 5, 60, 80
8, 99360, Note_on_c, 5, 63, 67
8, 99442, Note_on_c, 5, 63, 0
8, 99472, Note_on_c, 5, 60, 0
8, 99515, Note_on_c, 5, 51, 0
8, 99600, Note_on_c, 5, 53, 78
8, 99600, Note_on_c, 5, 60, 86
8, 99600, Note_on_c, 5, 63, 85
8, 99779, Note_on_c, 5, 63, 0
8, 99801, Note_on_c, 5, 60, 0
8, 99819, Note_on_c, 5, 53, 0
8, 99840, Note_on_c, 5, 55, 80
8, 99840, Note_on_c, 5, 58, 69
8, 99840, Note_on_c, 5, 63, 69
8, 99945, Note_on_c, 5, 63, 0
8, 99993, Note_on_c, 5, 55, 0
8, 99998, Note_on_c, 5, 58, 0
8, 100080, Note_on_c, 5, 55, 80
8, 100080, Note_on_c, 5, 58, 78
8, 100080, Note_on_c, 5, 63, 71
8, 100417, Note_on_c, 5, 63, 0
8, 100474, Note_on_c, 5, 58, 0
8, 100498, Note_on_c, 5, 55, 0
8, 101040, Note_on_c, 5, 51, 85
8, 101040, Note_on_c, 5, 60, 78
8, 101040, Note_on_c, 5, 63, 66
8, 101115, Note_on_c, 5, 60, 0
8, 101123, Note_on_c, 5, 63, 0
8, 101125, Note_on_c, 5, 51, 0
8, 101280, Note_on_c, 5, 51, 85
8, 101280, Note_on_c, 5, 60, 78
8, 101280, Note_on_c, 5, 63, 67
8, 101372, Note_on_c, 5, 63, 0
8, 101428, Note_on_c, 5, 60, 0
8, 101458, Note_on_c, 5, 51, 0
8, 101520, Note_on_c, 5, 53, 78
8, 101520, Note_on_c, 5, 60, 89
8, 101520, Note_on_c, 5, 63, 78
8, 101724, Note_on_c, 5, 63, 0
8, 101730, Note_on_c, 5, 53, 0
8, 101735, Note_on_c, 5, 60, 0
8, 101760, Note_on_c, 5, 55, 74
8, 101760, Note_on_c, 5, 58, 66
8, 101760, Note_on_c, 5, 62, 72
8, 101927, Note_on_c, 5, 58, 0
8, 101928, Note_on_c, 5, 62, 0
8, 101953, Note_on_c, 5, 55, 0
8, 102000, Note_on_c, 5, 55, 80
8, 102000, Note_on_c, 5, 58, 74
8, 102000, Note_on_c, 5, 62, 83
8, 102260, Note_on_c, 5, 62, 0
8, 102307, Note_on_c, 5, 58, 0
8, 102327, Note_on_c, 5, 55, 0
8, 118320, Note_on_c, 5, 67, 96
8, 118560, Note_on_c, 5, 65, 80
8, 118593, Note_on_c, 5, 67, 0
8, 118800, Note_on_c, 5, 63, 78
8, 118817, Note_on_c, 5, 65, 0
8, 121910, Note_on_c, 5, 63, 0
8, 122160, Note_on_c, 5, 67, 96
8, 122400, Note_on_c, 5, 65, 80
8, 122433, Note_on_c, 5, 67, 0
8, 122640, Note_on_c, 5, 63, 78
8, 122657, Note_on_c, 5, 65, 0
8, 125750, Note_on_c, 5, 63, 0
8, 126000, Note_on_c, 5, 67, 96
8, 126240, Note_on_c, 5, 65, 80
8, 126273, Note_on_c, 5, 67, 0
8, 126480, Note_on_c, 5, 63, 78
8, 126497, Note_on_c, 5, 65, 0
8, 129590, Note_on_c, 5, 63, 0
8, 129840, Note_on_c, 5, 67, 96
8, 130080, Note_on_c, 5, 65, 80
8, 130113, Note_on_c, 5, 67, 0
8, 130320, Note_on_c, 5, 63, 78
8, 130337, Note_on_c, 5, 65, 0
8, 133430, Note_on_c, 5, 63, 0
8, 138960, Note_on_c, 5, 67, 78
8, 139008, Note_on_c, 5, 67, 0
8, 139080, Note_on_c, 5, 67, 71
8, 139150, Note_on_c, 5, 67, 0
8, 139200, Note_on_c, 5, 67, 78
8, 139379, Note_on_c, 5, 67, 0
8, 139440, Note_on_c, 5, 67, 71
8, 139565, Note_on_c, 5, 67, 0
8, 139680, Note_on_c, 5, 67, 101
8, 139813, Note_on_c, 5, 67, 0
8, 139920, Note_on_c, 5, 67, 74
8, 140109, Note_on_c, 5, 67, 0
8, 140160, Note_on_c, 5, 65, 89
8, 140299, Note_on_c, 5, 65, 0
8, 140400, Note_on_c, 5, 65, 80
8, 140458, Note_on_c, 5, 65, 0
8, 140520, Note_on_c, 5, 65, 86
8, 140599, Note_on_c, 5, 65, 0
8, 140640, Note_on_c, 5, 65, 83
8, 140827, Note_on_c, 5, 65, 0
8, 140880, Note_on_c, 5, 65, 78
8, 140998, Note_on_c, 5, 65, 0
8, 141120, Note_on_c, 5, 65, 83
8, 141238, Note_on_c, 5, 65, 0
8, 141360, Note_on_c, 5, 65, 92
8, 141458, Note_on_c, 5, 65, 0
8, 141480, Note_on_c, 5, 63, 80
8, 141596, Note_on_c, 5, 63, 0
8, 141600, Note_on_c, 5, 67, 93
8, 142025, Note_on_c, 5, 67, 0
8, 142800, Note_on_c, 5, 63, 83
8, 142864, Note_on_c, 5, 63, 0
8, 142920, Note_on_c, 5, 63, 63
8, 142977, Note_on_c, 5, 63, 0
8, 143040, Note_on_c, 5, 70, 101
8, 143250, Note_on_c, 5, 70, 0
8, 143280, Note_on_c, 5, 63, 80
8, 143393, Note_on_c, 5, 63, 0
8, 143520, Note_on_c, 5, 63, 89
8, 143747, Note_on_c, 5, 63, 0
8, 143760, Note_on_c, 5, 70, 93
8, 143989, Note_on_c, 5, 70, 0
8, 144000, Note_on_c, 5, 63, 92
8, 144037, Note_on_c, 5, 63, 0
8, 144120, Note_on_c, 5, 63, 96
8, 144220, Note_on_c, 5, 63, 0
8, 144240, Note_on_c, 5, 63, 85
8, 144342, Note_on_c, 5, 63, 0
8, 144480, Note_on_c, 5, 63, 93
8, 144693, Note_on_c, 5, 63, 0
8, 144720, Note_on_c, 5, 70, 109
8, 144818, Note_on_c, 5, 70, 0
8, 144960, Note_on_c, 5, 63, 89
8, 145170, Note_on_c, 5, 63, 0
8, 145200, Note_on_c, 5, 63, 74
8, 145440, Note_on_c, 5, 70, 93
8, 145446, Note_on_c, 5, 63, 0
8, 145854, Note_on_c, 5, 70, 0
8, 146638, Note_on_c, 5, 63, 78
8, 146689, Note_on_c, 5, 63, 0
8, 146764, Note_on_c, 5, 63, 69
8, 146880, Note_on_c, 5, 70, 95
8, 146887, Note_on_c, 5, 63, 0
8, 147113, Note_on_c, 5, 63, 83
8, 147116, Note_on_c, 5, 70, 0
8, 147228, Note_on_c, 5, 63, 0
8, 147343, Note_on_c, 5, 70, 74
8, 148061, Note_on_c, 5, 70, 0
8, 179760, Note_on_c, 5, 67, 96
8, 180000, Note_on_c, 5, 65, 80
8, 180033, Note_on_c, 5, 67, 0
8, 180240, Note_on_c, 5, 63, 78
8, 180257, Note_on_c, 5, 65, 0
8, 183350, Note_on_c, 5, 63, 0
8, 183600, Note_on_c, 5, 67, 96
8, 183840, Note_on_c, 5, 65, 80
8, 183873, Note_on_c, 5, 67, 0
8, 184080, Note_on_c, 5, 63, 78
8, 184097, Note_on_c, 5, 65, 0
8, 187190, Note_on_c, 5, 63, 0
8, 187440, Note_on_c, 5, 67, 96
8, 187680, Note_on_c, 5, 65, 80
8, 187713, Note_on_c, 5, 67, 0
8, 187920, Note_on_c, 5, 63, 78
8, 187937, Note_on_c, 5, 65, 0
8, 191030, Note_on_c, 5, 63, 0
8, 191280, Note_on_c, 5, 67, 96
8, 191520, Note_on_c, 5, 65, 80
8, 191553, Note_on_c, 5, 67, 0
8, 191760, Note_on_c, 5, 63, 78
8, 191777, Note_on_c, 5, 65, 0
8, 194870, Note_on_c, 5, 63, 0
8, 194870, End_track
9, 0, Start_track
9, 0, MIDI_port, 0
9, 0, Title_t, "Saw"
9, 510, Control_c, 6, 0, 0
9, 512, Program_c, 6, 81
9, 513, Control_c, 6, 7, 100
9, 513, Control_c, 6, 10, 64
9, 1245, Control_c, 6, 121, 0
9, 1252, Control_c, 6, 91, 10
9, 1253, Control_c, 6, 93, 40
9, 1255, Control_c, 6, 94, 0
9, 1256, Control_c, 6, 11, 127
9, 1260, Control_c, 6, 101, 0
9, 1260, Control_c, 6, 100, 0
9, 1260, Control_c, 6, 6, 2
9, 1260, Control_c, 6, 38, 0
9, 1261, Control_c, 6, 71, 64
9, 1262, Control_c, 6, 72, 64
9, 1263, Control_c, 6, 73, 64
9, 1265, Control_c, 6, 74, 64
9, 19200, Note_on_c, 6, 36, 98
9, 19438, Note_on_c, 6, 36, 0
9, 19440, Note_on_c, 6, 48, 92
9, 19678, Note_on_c, 6, 48, 0
9, 19680, Note_on_c, 6, 31, 94
9, 19918, Note_on_c, 6, 31, 0
9, 19920, Note_on_c, 6, 32, 101
9, 20366, Note_on_c, 6, 32, 0
9, 20400, Note_on_c, 6, 44, 96
9, 20638, Note_on_c, 6, 44, 0
9, 20880, Note_on_c, 6, 39, 98
9, 21118, Note_on_c, 6, 39, 0
9, 21120, Note_on_c, 6, 39, 98
9, 21358, Note_on_c, 6, 39, 0
9, 21360, Note_on_c, 6, 51, 92
9, 21598, Note_on_c, 6, 51, 0
9, 21840, Note_on_c, 6, 31, 99
9, 22078, Note_on_c, 6, 31, 0
9, 22080, Note_on_c, 6, 31, 100
9, 22318, Note_on_c, 6, 31, 0
9, 22320, Note_on_c, 6, 43, 96
9, 22558, Note_on_c, 6, 43, 0
9, 22560, Note_on_c, 6, 34, 96
9, 22798, Note_on_c, 6, 34, 0
9, 22800, Note_on_c, 6, 46, 96
9, 23038, Note_on_c, 6, 46, 0
9, 23040, Note_on_c, 6, 36, 98
9, 23278, Note_on_c, 6, 36, 0
9, 23280, Note_on_c, 6, 48, 92
9, 23518, Note_on_c, 6, 48, 0
9, 23520, Note_on_c, 6, 31, 94
9, 23758, Note_on_c, 6, 31, 0
9, 23760, Note_on_c, 6, 32, 101
9, 24206, Note_on_c, 6, 32, 0
9, 24240, Note_on_c, 6, 44, 96
9, 24478, Note_on_c, 6, 44, 0
9, 24720, Note_on_c, 6, 39, 98
9, 24958, Note_on_c, 6, 39, 0
9, 24960, Note_on_c, 6, 39, 98
9, 25198, Note_on_c, 6, 39, 0
9, 25200, Note_on_c, 6, 51, 92
9, 25438, Note_on_c, 6, 51, 0
9, 25680, Note_on_c, 6, 31, 99
9, 25918, Note_on_c, 6, 31, 0
9, 25923, Note_on_c, 6, 53, 92
9, 26046, Note_on_c, 6, 55, 70
9, 26119, Note_on_c, 6, 53, 0
9, 26218, Note_on_c, 6, 55, 0
9, 26400, Note_on_c, 6, 53, 89
9, 26638, Note_on_c, 6, 53, 0
9, 26640, Note_on_c, 6, 51, 85
9, 26878, Note_on_c, 6, 51, 0
9, 26880, Note_on_c, 6, 36, 98
9, 27118, Note_on_c, 6, 36, 0
9, 27120, Note_on_c, 6, 48, 92
9, 27358, Note_on_c, 6, 48, 0
9, 27360, Note_on_c, 6, 31, 94
9, 27598, Note_on_c, 6, 31, 0
9, 27600, Note_on_c, 6, 32, 101
9, 28046, Note_on_c, 6, 32, 0
9, 28080, Note_on_c, 6, 44, 96
9, 28318, Note_on_c, 6, 44, 0
9, 28560, Note_on_c, 6, 39, 98
9, 28798, Note_on_c, 6, 39, 0
9, 28800, Note_on_c, 6, 39, 98
9, 29038, Note_on_c, 6, 39, 0
9, 29040, Note_on_c, 6, 51, 92
9, 29278, Note_on_c, 6, 51, 0
9, 29520, Note_on_c, 6, 31, 99
9, 29758, Note_on_c, 6, 31, 0
9, 29760, Note_on_c, 6, 31, 100
9, 29998, Note_on_c, 6, 31, 0
9, 30000, Note_on_c, 6, 43, 96
9, 30238, Note_on_c, 6, 43, 0
9, 30240, Note_on_c, 6, 34, 96
9, 30478, Note_on_c, 6, 34, 0
9, 30480, Note_on_c, 6, 46, 96
9, 30718, Note_on_c, 6, 46, 0
9, 30720, Note_on_c, 6, 36, 98
9, 30958, Note_on_c, 6, 36, 0
9, 30960, Note_on_c, 6, 48, 92
9, 31198, Note_on_c, 6, 48, 0
9, 31200, Note_on_c, 6, 31, 94
9, 31438, Note_on_c, 6, 31, 0
9, 31440, Note_on_c, 6, 32, 101
9, 31886, Note_on_c, 6, 32, 0
9, 31920, Note_on_c, 6, 44, 96
9, 32158, Note_on_c, 6, 44, 0
9, 32400, Note_on_c, 6, 39, 98
9, 32638, Note_on_c, 6, 39, 0
9, 32640, Note_on_c, 6, 39, 98
9, 32878, Note_on_c, 6, 39, 0
9, 32880, Note_on_c, 6, 51, 92
9, 33118, Note_on_c, 6, 51, 0
9, 33603, Note_on_c, 6, 53, 92
9, 33726, Note_on_c, 6, 55, 70
9, 33799, Note_on_c, 6, 53, 0
9, 33898, Note_on_c, 6, 55, 0
9, 34080, Note_on_c, 6, 53, 89
9, 34318, Note_on_c, 6, 53, 0
9, 34320, Note_on_c, 6, 51, 85
9, 34558, Note_on_c, 6, 51, 0
9, 34560, Note_on_c, 6, 36, 98
9, 34798, Note_on_c, 6, 36, 0
9, 34800, Note_on_c, 6, 48, 92
9, 35278, Note_on_c, 6, 48, 0
9, 35280, Note_on_c, 6, 36, 98
9, 35518, Note_on_c, 6, 36, 0
9, 35760, Note_on_c, 6, 48, 92
9, 36238, Note_on_c, 6, 48, 0
9, 36240, Note_on_c, 6, 32, 98
9, 36718, Note_on_c, 6, 32, 0
9, 36720, Note_on_c, 6, 44, 92
9, 37198, Note_on_c, 6, 44, 0
9, 37200, Note_on_c, 6, 32, 98
9, 37438, Note_on_c, 6, 32, 0
9, 37680, Note_on_c, 6, 44, 92
9, 38158, Note_on_c, 6, 44, 0
9, 38160, Note_on_c, 6, 39, 98
9, 38638, Note_on_c, 6, 39, 0
9, 38640, Note_on_c, 6, 51, 92
9, 40078, Note_on_c, 6, 51, 0
9, 40080, Note_on_c, 6, 31, 98
9, 40558, Note_on_c, 6, 31, 0
9, 40560, Note_on_c, 6, 43, 92
9, 41758, Note_on_c, 6, 43, 0
9, 41760, Note_on_c, 6, 34, 92
9, 41998, Note_on_c, 6, 34, 0
9, 42000, Note_on_c, 6, 46, 92
9, 42238, Note_on_c, 6, 46, 0
9, 42240, Note_on_c, 6, 36, 98
9, 42478, Note_on_c, 6, 36, 0
9, 42480, Note_on_c, 6, 48, 92
9, 43918, Note_on_c, 6, 48, 0
9, 43920, Note_on_c, 6, 32, 98
9, 44398, Note_on_c, 6, 32, 0
9, 44400, Note_on_c, 6, 44, 92
9, 45838, Note_on_c, 6, 44, 0
9, 45840, Note_on_c, 6, 39, 98
9, 46318, Note_on_c, 6, 39, 0
9, 46320, Note_on_c, 6, 51, 92
9, 47758, Note_on_c, 6, 51, 0
9, 47760, Note_on_c, 6, 31, 98
9, 48238, Note_on_c, 6, 31, 0
9, 48240, Note_on_c, 6, 43, 92
9, 48958, Note_on_c, 6, 43, 0
9, 48963, Note_on_c, 6, 53, 92
9, 49086, Note_on_c, 6, 55, 70
9, 49159, Note_on_c, 6, 53, 0
9, 49258, Note_on_c, 6, 55, 0
9, 49440, Note_on_c, 6, 53, 89
9, 49678, Note_on_c, 6, 53, 0
9, 49680, Note_on_c, 6, 51, 85
9, 49918, Note_on_c, 6, 51, 0
9, 49920, Note_on_c, 6, 36, 98
9, 50158, Note_on_c, 6, 36, 0
9, 50160, Note_on_c, 6, 48, 92
9, 50398, Note_on_c, 6, 48, 0
9, 50400, Note_on_c, 6, 31, 94
9, 50638, Note_on_c, 6, 31, 0
9, 50640, Note_on_c, 6, 32, 101
9, 51086, Note_on_c, 6, 32, 0
9, 51120, Note_on_c, 6, 44, 96
9, 51358, Note_on_c, 6, 44, 0
9, 51600, Note_on_c, 6, 39, 98
9, 51838, Note_on_c, 6, 39, 0
9, 51840, Note_on_c, 6, 39, 98
9, 52078, Note_on_c, 6, 39, 0
9, 52080, Note_on_c, 6, 51, 92
9, 52318, Note_on_c, 6, 51, 0
9, 52560, Note_on_c, 6, 31, 99
9, 52798, Note_on_c, 6, 31, 0
9, 52800, Note_on_c, 6, 31, 100
9, 53038, Note_on_c, 6, 31, 0
9, 53040, Note_on_c, 6, 43, 96
9, 53278, Note_on_c, 6, 43, 0
9, 53280, Note_on_c, 6, 34, 96
9, 53518, Note_on_c, 6, 34, 0
9, 53520, Note_on_c, 6, 46, 96
9, 53758, Note_on_c, 6, 46, 0
9, 53760, Note_on_c, 6, 36, 98
9, 53998, Note_on_c, 6, 36, 0
9, 54000, Note_on_c, 6, 48, 92
9, 54238, Note_on_c, 6, 48, 0
9, 54240, Note_on_c, 6, 31, 94
9, 54478, Note_on_c, 6, 31, 0
9, 54480, Note_on_c, 6, 32, 101
9, 54926, Note_on_c, 6, 32, 0
9, 54960, Note_on_c, 6, 44, 96
9, 55198, Note_on_c, 6, 44, 0
9, 55440, Note_on_c, 6, 39, 98
9, 55678, Note_on_c, 6, 39, 0
9, 55680, Note_on_c, 6, 39, 98
9, 55918, Note_on_c, 6, 39, 0
9, 55920, Note_on_c, 6, 51, 92
9, 56158, Note_on_c, 6, 51, 0
9, 56400, Note_on_c, 6, 31, 99
9, 56638, Note_on_c, 6, 31, 0
9, 56643, Note_on_c, 6, 53, 92
9, 56766, Note_on_c, 6, 55, 70
9, 56839, Note_on_c, 6, 53, 0
9, 56938, Note_on_c, 6, 55, 0
9, 57120, Note_on_c, 6, 53, 89
9, 57358, Note_on_c, 6, 53, 0
9, 57360, Note_on_c, 6, 51, 85
9, 57598, Note_on_c, 6, 51, 0
9, 57600, Note_on_c, 6, 36, 98
9, 57838, Note_on_c, 6, 36, 0
9, 57840, Note_on_c, 6, 48, 92
9, 58078, Note_on_c, 6, 48, 0
9, 58080, Note_on_c, 6, 31, 94
9, 58318, Note_on_c, 6, 31, 0
9, 58320, Note_on_c, 6, 32, 101
9, 58766, Note_on_c, 6, 32, 0
9, 58800, Note_on_c, 6, 44, 96
9, 59038, Note_on_c, 6, 44, 0
9, 59280, Note_on_c, 6, 39, 98
9, 59518, Note_on_c, 6, 39, 0
9, 59520, Note_on_c, 6, 39, 98
9, 59758, Note_on_c, 6, 39, 0
9, 59760, Note_on_c, 6, 51, 92
9, 59998, Note_on_c, 6, 51, 0
9, 60240, Note_on_c, 6, 31, 99
9, 60478, Note_on_c, 6, 31, 0
9, 60480, Note_on_c, 6, 31, 100
9, 60718, Note_on_c, 6, 31, 0
9, 60720, Note_on_c, 6, 43, 96
9, 60958, Note_on_c, 6, 43, 0
9, 60960, Note_on_c, 6, 34, 96
9, 61198, Note_on_c, 6, 34, 0
9, 61200, Note_on_c, 6, 46, 96
9, 61438, Note_on_c, 6, 46, 0
9, 61440, Note_on_c, 6, 36, 98
9, 61678, Note_on_c, 6, 36, 0
9, 61680, Note_on_c, 6, 48, 92
9, 61918, Note_on_c, 6, 48, 0
9, 61920, Note_on_c, 6, 31, 94
9, 62158, Note_on_c, 6, 31, 0
9, 62160, Note_on_c, 6, 32, 101
9, 62606, Note_on_c, 6, 32, 0
9, 62640, Note_on_c, 6, 44, 96
9, 62878, Note_on_c, 6, 44, 0
9, 63120, Note_on_c, 6, 39, 98
9, 63358, Note_on_c, 6, 39, 0
9, 63360, Note_on_c, 6, 39, 98
9, 63598, Note_on_c, 6, 39, 0
9, 63600, Note_on_c, 6, 51, 92
9, 63838, Note_on_c, 6, 51, 0
9, 64323, Note_on_c, 6, 53, 92
9, 64446, Note_on_c, 6, 55, 70
9, 64519, Note_on_c, 6, 53, 0
9, 64618, Note_on_c, 6, 55, 0
9, 64800, Note_on_c, 6, 53, 89
9, 65038, Note_on_c, 6, 53, 0
9, 65040, Note_on_c, 6, 51, 85
9, 65278, Note_on_c, 6, 51, 0
9, 65280, Note_on_c, 6, 36, 98
9, 65518, Note_on_c, 6, 36, 0
9, 65520, Note_on_c, 6, 48, 92
9, 65758, Note_on_c, 6, 48, 0
9, 65760, Note_on_c, 6, 31, 94
9, 65998, Note_on_c, 6, 31, 0
9, 66000, Note_on_c, 6, 32, 101
9, 66446, Note_on_c, 6, 32, 0
9, 66480, Note_on_c, 6, 44, 96
9, 66718, Note_on_c, 6, 44, 0
9, 66960, Note_on_c, 6, 39, 98
9, 67198, Note_on_c, 6, 39, 0
9, 67200, Note_on_c, 6, 39, 98
9, 67438, Note_on_c, 6, 39, 0
9, 67440, Note_on_c, 6, 51, 92
9, 67678, Note_on_c, 6, 51, 0
9, 67920, Note_on_c, 6, 31, 99
9, 68158, Note_on_c, 6, 31, 0
9, 68160, Note_on_c, 6, 31, 100
9, 68398, Note_on_c, 6, 31, 0
9, 68400, Note_on_c, 6, 43, 96
9, 68638, Note_on_c, 6, 43, 0
9, 68640, Note_on_c, 6, 34, 96
9, 68878, Note_on_c, 6, 34, 0
9, 68880, Note_on_c, 6, 46, 96
9, 69118, Note_on_c, 6, 46, 0
9, 69120, Note_on_c, 6, 36, 98
9, 69358, Note_on_c, 6, 36, 0
9, 69360, Note_on_c, 6, 48, 92
9, 69598, Note_on_c, 6, 48, 0
9, 69600, Note_on_c, 6, 31, 94
9, 69838, Note_on_c, 6, 31, 0
9, 69840, Note_on_c, 6, 32, 101
9, 70286, Note_on_c, 6, 32, 0
9, 70320, Note_on_c, 6, 44, 96
9, 70558, Note_on_c, 6, 44, 0
9, 70800, Note_on_c, 6, 39, 98
9, 71038, Note_on_c, 6, 39, 0
9, 71040, Note_on_c, 6, 39, 98
9, 71278, Note_on_c, 6, 39, 0
9, 71280, Note_on_c, 6, 51, 92
9, 71518, Note_on_c, 6, 51, 0
9, 71760, Note_on_c, 6, 31, 99
9, 71998, Note_on_c, 6, 31, 0
9, 72003, Note_on_c, 6, 53, 92
9, 72126, Note_on_c, 6, 55, 70
9, 72199, Note_on_c, 6, 53, 0
9, 72298, Note_on_c, 6, 55, 0
9, 72480, Note_on_c, 6, 53, 89
9, 72718, Note_on_c, 6, 53, 0
9, 72720, Note_on_c, 6, 51, 85
9, 72958, Note_on_c, 6, 51, 0
9, 72960, Note_on_c, 6, 36, 98
9, 73198, Note_on_c, 6, 36, 0
9, 73200, Note_on_c, 6, 48, 92
9, 73438, Note_on_c, 6, 48, 0
9, 73440, Note_on_c, 6, 31, 94
9, 73678, Note_on_c, 6, 31, 0
9, 73680, Note_on_c, 6, 32, 101
9, 74126, Note_on_c, 6, 32, 0
9, 74160, Note_on_c, 6, 44, 96
9, 74398, Note_on_c, 6, 44, 0
9, 74640, Note_on_c, 6, 39, 98
9, 74878, Note_on_c, 6, 39, 0
9, 74880, Note_on_c, 6, 39, 98
9, 75118, Note_on_c, 6, 39, 0
9, 75120, Note_on_c, 6, 51, 92
9, 75358, Note_on_c, 6, 51, 0
9, 75600, Note_on_c, 6, 31, 99
9, 75838, Note_on_c, 6, 31, 0
9, 75840, Note_on_c, 6, 31, 100
9, 76078, Note_on_c, 6, 31, 0
9, 76080, Note_on_c, 6, 43, 96
9, 76318, Note_on_c, 6, 43, 0
9, 76320, Note_on_c, 6, 34, 96
9, 76558, Note_on_c, 6, 34, 0
9, 76560, Note_on_c, 6, 46, 96
9, 76798, Note_on_c, 6, 46, 0
9, 76800, Note_on_c, 6, 36, 98
9, 77038, Note_on_c, 6, 36, 0
9, 77040, Note_on_c, 6, 48, 92
9, 77278, Note_on_c, 6, 48, 0
9, 77280, Note_on_c, 6, 31, 94
9, 77518, Note_on_c, 6, 31, 0
9, 77520, Note_on_c, 6, 32, 101
9, 77966, Note_on_c, 6, 32, 0
9, 78000, Note_on_c, 6, 44, 96
9, 78238, Note_on_c, 6, 44, 0
9, 78480, Note_on_c, 6, 39, 98
9, 78718, Note_on_c, 6, 39, 0
9, 78720, Note_on_c, 6, 39, 98
9, 78958, Note_on_c, 6, 39, 0
9, 78960, Note_on_c, 6, 51, 92
9, 79198, Note_on_c, 6, 51, 0
9, 79440, Note_on_c, 6, 31, 99
9, 79678, Note_on_c, 6, 31, 0
9, 79683, Note_on_c, 6, 53, 92
9, 79806, Note_on_c, 6, 55, 70
9, 79879, Note_on_c, 6, 53, 0
9, 79978, Note_on_c, 6, 55, 0
9, 80160, Note_on_c, 6, 53, 89
9, 80398, Note_on_c, 6, 53, 0
9, 80400, Note_on_c, 6, 51, 85
9, 80638, Note_on_c, 6, 51, 0
9, 80640, Note_on_c, 6, 36, 98
9, 80878, Note_on_c, 6, 36, 0
9, 80880, Note_on_c, 6, 48, 92
9, 81118, Note_on_c, 6, 48, 0
9, 81120, Note_on_c, 6, 31, 94
9, 81358, Note_on_c, 6, 31, 0
9, 81360, Note_on_c, 6, 32, 101
9, 81806, Note_on_c, 6, 32, 0
9, 81840, Note_on_c, 6, 44, 96
9, 82078, Note_on_c, 6, 44, 0
9, 82320, Note_on_c, 6, 39, 98
9, 82558, Note_on_c, 6, 39, 0
9, 82560, Note_on_c, 6, 39, 98
9, 82798, Note_on_c, 6, 39, 0
9, 82800, Note_on_c, 6, 51, 92
9, 83038, Note_on_c, 6, 51, 0
9, 83280, Note_on_c, 6, 31, 99
9, 83518, Note_on_c, 6, 31, 0
9, 83520, Note_on_c, 6, 31, 100
9, 83758, Note_on_c, 6, 31, 0
9, 83760, Note_on_c, 6, 43, 96
9, 83998, Note_on_c, 6, 43, 0
9, 84000, Note_on_c, 6, 34, 96
9, 84238, Note_on_c, 6, 34, 0
9, 84240, Note_on_c, 6, 46, 96
9, 84478, Note_on_c, 6, 46, 0
9, 84480, Note_on_c, 6, 36, 98
9, 84718, Note_on_c, 6, 36, 0
9, 84720, Note_on_c, 6, 48, 92
9, 84958, Note_on_c, 6, 48, 0
9, 84960, Note_on_c, 6, 31, 94
9, 85198, Note_on_c, 6, 31, 0
9, 85200, Note_on_c, 6, 32, 101
9, 85646, Note_on_c, 6, 32, 0
9, 85680, Note_on_c, 6, 44, 96
9, 85918, Note_on_c, 6, 44, 0
9, 86160, Note_on_c, 6, 39, 98
9, 86398, Note_on_c, 6, 39, 0
9, 88320, Note_on_c, 6, 36, 98
9, 88558, Note_on_c, 6, 36, 0
9, 88560, Note_on_c, 6, 48, 92
9, 89038, Note_on_c, 6, 48, 0
9, 89040, Note_on_c, 6, 36, 98
9, 89278, Note_on_c, 6, 36, 0
9, 89520, Note_on_c, 6, 48, 92
9, 89998, Note_on_c, 6, 48, 0
9, 90000, Note_on_c, 6, 32, 98
9, 90478, Note_on_c, 6, 32, 0
9, 90480, Note_on_c, 6, 44, 92
9, 90958, Note_on_c, 6, 44, 0
9, 90960, Note_on_c, 6, 32, 98
9, 91198, Note_on_c, 6, 32, 0
9, 91440, Note_on_c, 6, 44, 92
9, 91918, Note_on_c, 6, 44, 0
9, 91920, Note_on_c, 6, 39, 98
9, 92398, Note_on_c, 6, 39, 0
9, 92400, Note_on_c, 6, 51, 92
9, 93838, Note_on_c, 6, 51, 0
9, 93840, Note_on_c, 6, 31, 98
9, 94318, Note_on_c, 6, 31, 0
9, 94320, Note_on_c, 6, 43, 92
9, 95518, Note_on_c, 6, 43, 0
9, 95520, Note_on_c, 6, 34, 92
9, 95758, Note_on_c, 6, 34, 0
9, 95760, Note_on_c, 6, 46, 92
9, 95998, Note_on_c, 6, 46, 0
9, 96000, Note_on_c, 6, 36, 98
9, 96238, Note_on_c, 6, 36, 0
9, 96240, Note_on_c, 6, 48, 92
9, 97678, Note_on_c, 6, 48, 0
9, 97680, Note_on_c, 6, 32, 98
9, 98158, Note_on_c, 6, 32, 0
9, 98160, Note_on_c, 6, 44, 92
9, 99598, Note_on_c, 6, 44, 0
9, 99600, Note_on_c, 6, 39, 98
9, 100078, Note_on_c, 6, 39, 0
9, 100080, Note_on_c, 6, 51, 92
9, 101518, Note_on_c, 6, 51, 0
9, 101520, Note_on_c, 6, 31, 98
9, 101998, Note_on_c, 6, 31, 0
9, 102000, Note_on_c, 6, 43, 92
9, 102718, Note_on_c, 6, 43, 0
9, 102723, Note_on_c, 6, 53, 92
9, 102846, Note_on_c, 6, 55, 70
9, 102919, Note_on_c, 6, 53, 0
9, 103018, Note_on_c, 6, 55, 0
9, 103200, Note_on_c, 6, 53, 89
9, 103438, Note_on_c, 6, 53, 0
9, 103440, Note_on_c, 6, 51, 85
9, 103678, Note_on_c, 6, 51, 0
9, 103680, Note_on_c, 6, 36, 98
9, 103918, Note_on_c, 6, 36, 0
9, 103920, Note_on_c, 6, 48, 92
9, 104158, Note_on_c, 6, 48, 0
9, 104160, Note_on_c, 6, 31, 94
9, 104398, Note_on_c, 6, 31, 0
9, 104400, Note_on_c, 6, 32, 101
9, 104846, Note_on_c, 6, 32, 0
9, 104880, Note_on_c, 6, 44, 96
9, 105118, Note_on_c, 6, 44, 0
9, 105360, Note_on_c, 6, 39, 98
9, 105598, Note_on_c, 6, 39, 0
9, 105600, Note_on_c, 6, 39, 98
9, 105838, Note_on_c, 6, 39, 0
9, 105840, Note_on_c, 6, 51, 92
9, 106078, Note_on_c, 6, 51, 0
9, 106320, Note_on_c, 6, 31, 99
9, 106558, Note_on_c, 6, 31, 0
9, 106560, Note_on_c, 6, 31, 100
9, 106798, Note_on_c, 6, 31, 0
9, 106800, Note_on_c, 6, 43, 96
9, 107038, Note_on_c, 6, 43, 0
9, 107040, Note_on_c, 6, 34, 96
9, 107278, Note_on_c, 6, 34, 0
9, 107280, Note_on_c, 6, 46, 96
9, 107518, Note_on_c, 6, 46, 0
9, 107520, Note_on_c, 6, 36, 98
9, 107758, Note_on_c, 6, 36, 0
9, 107760, Note_on_c, 6, 48, 92
9, 107998, Note_on_c, 6, 48, 0
9, 108000, Note_on_c, 6, 31, 94
9, 108238, Note_on_c, 6, 31, 0
9, 108240, Note_on_c, 6, 32, 101
9, 108686, Note_on_c, 6, 32, 0
9, 108720, Note_on_c, 6, 44, 96
9, 108958, Note_on_c, 6, 44, 0
9, 109200, Note_on_c, 6, 39, 98
9, 109438, Note_on_c, 6, 39, 0
9, 109440, Note_on_c, 6, 39, 98
9, 109678, Note_on_c, 6, 39, 0
9, 109680, Note_on_c, 6, 51, 92
9, 109918, Note_on_c, 6, 51, 0
9, 110160, Note_on_c, 6, 31, 99
9, 110398, Note_on_c, 6, 31, 0
9, 110403, Note_on_c, 6, 53, 92
9, 110526, Note_on_c, 6, 55, 70
9, 110599, Note_on_c, 6, 53, 0
9, 110698, Note_on_c, 6, 55, 0
9, 110880, Note_on_c, 6, 53, 89
9, 111118, Note_on_c, 6, 53, 0
9, 111120, Note_on_c, 6, 51, 85
9, 111358, Note_on_c, 6, 51, 0
9, 111360, Note_on_c, 6, 36, 98
9, 111598, Note_on_c, 6, 36, 0
9, 111600, Note_on_c, 6, 48, 92
9, 111838, Note_on_c, 6, 48, 0
9, 111840, Note_on_c, 6, 31, 94
9, 112078, Note_on_c, 6, 31, 0
9, 112080, Note_on_c, 6, 32, 101
9, 112526, Note_on_c, 6, 32, 0
9, 112560, Note_on_c, 6, 44, 96
9, 112798, Note_on_c, 6, 44, 0
9, 113040, Note_on_c, 6, 39, 98
9, 113278, Note_on_c, 6, 39, 0
9, 113280, Note_on_c, 6, 39, 98
9, 113518, Note_on_c, 6, 39, 0
9, 113520, Note_on_c, 6, 51, 92
9, 113758, Note_on_c, 6, 51, 0
9, 114000, Note_on_c, 6, 31, 99
9, 114238, Note_on_c, 6, 31, 0
9, 114240, Note_on_c, 6, 31, 100
9, 114478, Note_on_c, 6, 31, 0
9, 114480, Note_on_c, 6, 43, 96
9, 114718, Note_on_c, 6, 43, 0
9, 114720, Note_on_c, 6, 34, 96
9, 114958, Note_on_c, 6, 34, 0
9, 114960, Note_on_c, 6, 46, 96
9, 115198, Note_on_c, 6, 46, 0
9, 115200, Note_on_c, 6, 36, 98
9, 115438, Note_on_c, 6, 36, 0
9, 115440, Note_on_c, 6, 48, 92
9, 115678, Note_on_c, 6, 48, 0
9, 115680, Note_on_c, 6, 31, 94
9, 115918, Note_on_c, 6, 31, 0
9, 115920, Note_on_c, 6, 32, 101
9, 116366, Note_on_c, 6, 32, 0
9, 116400, Note_on_c, 6, 44, 96
9, 116638, Note_on_c, 6, 44, 0
9, 116880, Note_on_c, 6, 39, 98
9, 117118, Note_on_c, 6, 39, 0
9, 117120, Note_on_c, 6, 39, 98
9, 117358, Note_on_c, 6, 39, 0
9, 117360, Note_on_c, 6, 51, 92
9, 117598, Note_on_c, 6, 51, 0
9, 118083, Note_on_c, 6, 53, 92
9, 118206, Note_on_c, 6, 55, 70
9, 118279, Note_on_c, 6, 53, 0
9, 118378, Note_on_c, 6, 55, 0
9, 118560, Note_on_c, 6, 53, 89
9, 118798, Note_on_c, 6, 53, 0
9, 118800, Note_on_c, 6, 51, 85
9, 119038, Note_on_c, 6, 51, 0
9, 119040, Note_on_c, 6, 36, 98
9, 119278, Note_on_c, 6, 36, 0
9, 119280, Note_on_c, 6, 48, 92
9, 119518, Note_on_c, 6, 48, 0
9, 119520, Note_on_c, 6, 31, 94
9, 119758, Note_on_c, 6, 31, 0
9, 119760, Note_on_c, 6, 32, 101
9, 120206, Note_on_c, 6, 32, 0
9, 120240, Note_on_c, 6, 44, 96
9, 120478, Note_on_c, 6, 44, 0
9, 120720, Note_on_c, 6, 39, 98
9, 120958, Note_on_c, 6, 39, 0
9, 120960, Note_on_c, 6, 39, 98
9, 121198, Note_on_c, 6, 39, 0
9, 121200, Note_on_c, 6, 51, 92
9, 121438, Note_on_c, 6, 51, 0
9, 121680, Note_on_c, 6, 31, 99
9, 121918, Note_on_c, 6, 31, 0
9, 121920, Note_on_c, 6, 31, 100
9, 122158, Note_on_c, 6, 31, 0
9, 122160, Note_on_c, 6, 43, 96
9, 122398, Note_on_c, 6, 43, 0
9, 122400, Note_on_c, 6, 34, 96
9, 122638, Note_on_c, 6, 34, 0
9, 122640, Note_on_c, 6, 46, 96
9, 122878, Note_on_c, 6, 46, 0
9, 122880, Note_on_c, 6, 36, 98
9, 123118, Note_on_c, 6, 36, 0
9, 123120, Note_on_c, 6, 48, 92
9, 123358, Note_on_c, 6, 48, 0
9, 123360, Note_on_c, 6, 31, 94
9, 123598, Note_on_c, 6, 31, 0
9, 123600, Note_on_c, 6, 32, 101
9, 124046, Note_on_c, 6, 32, 0
9, 124080, Note_on_c, 6, 44, 96
9, 124318, Note_on_c, 6, 44, 0
9, 124560, Note_on_c, 6, 39, 98
9, 124798, Note_on_c, 6, 39, 0
9, 124800, Note_on_c, 6, 39, 98
9, 125038, Note_on_c, 6, 39, 0
9, 125040, Note_on_c, 6, 51, 92
9, 125278, Note_on_c, 6, 51, 0
9, 125520, Note_on_c, 6, 31, 99
9, 125758, Note_on_c, 6, 31, 0
9, 125763, Note_on_c, 6, 53, 92
9, 125886, Note_on_c, 6, 55, 70
9, 125959, Note_on_c, 6, 53, 0
9, 126058, Note_on_c, 6, 55, 0
9, 126240, Note_on_c, 6, 53, 89
9, 126478, Note_on_c, 6, 53, 0
9, 126480, Note_on_c, 6, 51, 85
9, 126718, Note_on_c, 6, 51, 0
9, 126720, Note_on_c, 6, 36, 98
9, 126958, Note_on_c, 6, 36, 0
9, 126960, Note_on_c, 6, 48, 92
9, 127198, Note_on_c, 6, 48, 0
9, 127200, Note_on_c, 6, 31, 94
9, 127438, Note_on_c, 6, 31, 0
9, 127440, Note_on_c, 6, 32, 101
9, 127886, Note_on_c, 6, 32, 0
9, 127920, Note_on_c, 6, 44, 96
9, 128158, Note_on_c, 6, 44, 0
9, 128400, Note_on_c, 6, 39, 98
9, 128638, Note_on_c, 6, 39, 0
9, 128640, Note_on_c, 6, 39, 98
9, 128878, Note_on_c, 6, 39, 0
9, 128880, Note_on_c, 6, 51, 92
9, 129118, Note_on_c, 6, 51, 0
9, 129360, Note_on_c, 6, 31, 99
9, 129598, Note_on_c, 6, 31, 0
9, 129600, Note_on_c, 6, 31, 100
9, 129838, Note_on_c, 6, 31, 0
9, 129840, Note_on_c, 6, 43, 96
9, 130078, Note_on_c, 6, 43, 0
9, 130080, Note_on_c, 6, 34, 96
9, 130318, Note_on_c, 6, 34, 0
9, 130320, Note_on_c, 6, 46, 96
9, 130558, Note_on_c, 6, 46, 0
9, 130560, Note_on_c, 6, 36, 98
9, 130798, Note_on_c, 6, 36, 0
9, 130800, Note_on_c, 6, 48, 92
9, 131038, Note_on_c, 6, 48, 0
9, 131040, Note_on_c, 6, 31, 94
9, 131278, Note_on_c, 6, 31, 0
9, 131280, Note_on_c, 6, 32, 101
9, 131726, Note_on_c, 6, 32, 0
9, 131760, Note_on_c, 6, 44, 96
9, 131998, Note_on_c, 6, 44, 0
9, 132240, Note_on_c, 6, 39, 98
9, 132478, Note_on_c, 6, 39, 0
9, 132480, Note_on_c, 6, 39, 98
9, 132718, Note_on_c, 6, 39, 0
9, 132720, Note_on_c, 6, 51, 92
9, 132958, Note_on_c, 6, 51, 0
9, 133443, Note_on_c, 6, 53, 92
9, 133566, Note_on_c, 6, 55, 70
9, 133639, Note_on_c, 6, 53, 0
9, 133738, Note_on_c, 6, 55, 0
9, 133920, Note_on_c, 6, 53, 89
9, 134158, Note_on_c, 6, 53, 0
9, 134160, Note_on_c, 6, 51, 85
9, 134398, Note_on_c, 6, 51, 0
9, 134400, Note_on_c, 6, 36, 98
9, 134638, Note_on_c, 6, 36, 0
9, 134640, Note_on_c, 6, 48, 92
9, 135118, Note_on_c, 6, 48, 0
9, 135120, Note_on_c, 6, 36, 98
9, 135358, Note_on_c, 6, 36, 0
9, 135600, Note_on_c, 6, 48, 92
9, 136078, Note_on_c, 6, 48, 0
9, 136080, Note_on_c, 6, 32, 98
9, 136558, Note_on_c, 6, 32, 0
9, 136560, Note_on_c, 6, 44, 92
9, 137038, Note_on_c, 6, 44, 0
9, 137040, Note_on_c, 6, 32, 98
9, 137278, Note_on_c, 6, 32, 0
9, 137520, Note_on_c, 6, 44, 92
9, 137998, Note_on_c, 6, 44, 0
9, 138000, Note_on_c, 6, 39, 98
9, 138478, Note_on_c, 6, 39, 0
9, 138480, Note_on_c, 6, 51, 92
9, 139918, Note_on_c, 6, 51, 0
9, 139920, Note_on_c, 6, 31, 98
9, 140398, Note_on_c, 6, 31, 0
9, 140400, Note_on_c, 6, 43, 92
9, 141598, Note_on_c, 6, 43, 0
9, 141600, Note_on_c, 6, 34, 92
9, 141838, Note_on_c, 6, 34, 0
9, 141840, Note_on_c, 6, 46, 92
9, 142078, Note_on_c, 6, 46, 0
9, 142080, Note_on_c, 6, 36, 98
9, 142318, Note_on_c, 6, 36, 0
9, 142320, Note_on_c, 6, 48, 92
9, 143758, Note_on_c, 6, 48, 0
9, 143760, Note_on_c, 6, 32, 98
9, 144238, Note_on_c, 6, 32, 0
9, 144240, Note_on_c, 6, 44, 92
9, 145678, Note_on_c, 6, 44, 0
9, 145680, Note_on_c, 6, 39, 98
9, 146158, Note_on_c, 6, 39, 0
9, 146160, Note_on_c, 6, 51, 92
9, 147598, Note_on_c, 6, 51, 0
9, 147600, Note_on_c, 6, 31, 98
9, 148078, Note_on_c, 6, 31, 0
9, 148080, Note_on_c, 6, 43, 92
9, 148798, Note_on_c, 6, 43, 0
9, 148803, Note_on_c, 6, 53, 92
9, 148926, Note_on_c, 6, 55, 70
9, 148999, Note_on_c, 6, 53, 0
9, 149098, Note_on_c, 6, 55, 0
9, 149280, Note_on_c, 6, 53, 89
9, 149518, Note_on_c, 6, 53, 0
9, 149520, Note_on_c, 6, 51, 85
9, 149758, Note_on_c, 6, 51, 0
9, 165120, Note_on_c, 6, 36, 98
9, 165358, Note_on_c, 6, 36, 0
9, 165360, Note_on_c, 6, 48, 92
9, 165598, Note_on_c, 6, 48, 0
9, 165600, Note_on_c, 6, 31, 94
9, 165838, Note_on_c, 6, 31, 0
9, 165840, Note_on_c, 6, 32, 101
9, 166286, Note_on_c, 6, 32, 0
9, 166320, Note_on_c, 6, 44, 96
9, 166558, Note_on_c, 6, 44, 0
9, 166800, Note_on_c, 6, 39, 98
9, 167038, Note_on_c, 6, 39, 0
9, 167040, Note_on_c, 6, 39, 98
9, 167278, Note_on_c, 6, 39, 0
9, 167280, Note_on_c, 6, 51, 92
9, 167518, Note_on_c, 6, 51, 0
9, 167760, Note_on_c, 6, 31, 99
9, 167998, Note_on_c, 6, 31, 0
9, 168000, Note_on_c, 6, 31, 100
9, 168238, Note_on_c, 6, 31, 0
9, 168240, Note_on_c, 6, 43, 96
9, 168478, Note_on_c, 6, 43, 0
9, 168480, Note_on_c, 6, 34, 96
9, 168718, Note_on_c, 6, 34, 0
9, 168720, Note_on_c, 6, 46, 96
9, 168958, Note_on_c, 6, 46, 0
9, 168960, Note_on_c, 6, 36, 98
9, 169198, Note_on_c, 6, 36, 0
9, 169200, Note_on_c, 6, 48, 92
9, 169438, Note_on_c, 6, 48, 0
9, 169440, Note_on_c, 6, 31, 94
9, 169678, Note_on_c, 6, 31, 0
9, 169680, Note_on_c, 6, 32, 101
9, 170126, Note_on_c, 6, 32, 0
9, 170160, Note_on_c, 6, 44, 96
9, 170398, Note_on_c, 6, 44, 0
9, 170640, Note_on_c, 6, 39, 98
9, 170878, Note_on_c, 6, 39, 0
9, 170880, Note_on_c, 6, 39, 98
9, 171118, Note_on_c, 6, 39, 0
9, 171120, Note_on_c, 6, 51, 92
9, 171358, Note_on_c, 6, 51, 0
9, 171600, Note_on_c, 6, 31, 99
9, 171838, Note_on_c, 6, 31, 0
9, 171843, Note_on_c, 6, 53, 92
9, 171966, Note_on_c, 6, 55, 70
9, 172039, Note_on_c, 6, 53, 0
9, 172138, Note_on_c, 6, 55, 0
9, 172320, Note_on_c, 6, 53, 89
9, 172558, Note_on_c, 6, 53, 0
9, 172560, Note_on_c, 6, 51, 85
9, 172798, Note_on_c, 6, 51, 0
9, 172800, Note_on_c, 6, 36, 98
9, 173038, Note_on_c, 6, 36, 0
9, 173040, Note_on_c, 6, 48, 92
9, 173278, Note_on_c, 6, 48, 0
9, 173280, Note_on_c, 6, 31, 94
9, 173518, Note_on_c, 6, 31, 0
9, 173520, Note_on_c, 6, 32, 101
9, 173966, Note_on_c, 6, 32, 0
9, 174000, Note_on_c, 6, 44, 96
9, 174238, Note_on_c, 6, 44, 0
9, 174480, Note_on_c, 6, 39, 98
9, 174718, Note_on_c, 6, 39, 0
9, 174720, Note_on_c, 6, 39, 98
9, 174958, Note_on_c, 6, 39, 0
9, 174960, Note_on_c, 6, 51, 92
9, 175198, Note_on_c, 6, 51, 0
9, 175440, Note_on_c, 6, 31, 99
9, 175678, Note_on_c, 6, 31, 0
9, 175680, Note_on_c, 6, 31, 100
9, 175918, Note_on_c, 6, 31, 0
9, 175920, Note_on_c, 6, 43, 96
9, 176158, Note_on_c, 6, 43, 0
9, 176160, Note_on_c, 6, 34, 96
9, 176398, Note_on_c, 6, 34, 0
9, 176400, Note_on_c, 6, 46, 96
9, 176638, Note_on_c, 6, 46, 0
9, 176640, Note_on_c, 6, 36, 98
9, 176878, Note_on_c, 6, 36, 0
9, 176880, Note_on_c, 6, 48, 92
9, 177118, Note_on_c, 6, 48, 0
9, 177120, Note_on_c, 6, 31, 94
9, 177358, Note_on_c, 6, 31, 0
9, 177360, Note_on_c, 6, 32, 101
9, 177806, Note_on_c, 6, 32, 0
9, 177840, Note_on_c, 6, 44, 96
9, 178078, Note_on_c, 6, 44, 0
9, 178320, Note_on_c, 6, 39, 98
9, 178558, Note_on_c, 6, 39, 0
9, 178560, Note_on_c, 6, 39, 98
9, 178798, Note_on_c, 6, 39, 0
9, 178800, Note_on_c, 6, 51, 92
9, 179038, Note_on_c, 6, 51, 0
9, 179523, Note_on_c, 6, 53, 92
9, 179646, Note_on_c, 6, 55, 70
9, 179719, Note_on_c, 6, 53, 0
9, 179818, Note_on_c, 6, 55, 0
9, 180000, Note_on_c, 6, 53, 89
9, 180238, Note_on_c, 6, 53, 0
9, 180240, Note_on_c, 6, 51, 85
9, 180478, Note_on_c, 6, 51, 0
9, 180480, Note_on_c, 6, 36, 98
9, 180718, Note_on_c, 6, 36, 0
9, 180720, Note_on_c, 6, 48, 92
9, 180958, Note_on_c, 6, 48, 0
9, 180960, Note_on_c, 6, 31, 94
9, 181198, Note_on_c, 6, 31, 0
9, 181200, Note_on_c, 6, 32, 101
9, 181646, Note_on_c, 6, 32, 0
9, 181680, Note_on_c, 6, 44, 96
9, 181918, Note_on_c, 6, 44, 0
9, 182160, Note_on_c, 6, 39, 98
9, 182398, Note_on_c, 6, 39, 0
9, 182400, Note_on_c, 6, 39, 98
9, 182638, Note_on_c, 6, 39, 0
9, 182640, Note_on_c, 6, 51, 92
9, 182878, Note_on_c, 6, 51, 0
9, 183120, Note_on_c, 6, 31, 99
9, 183358, Note_on_c, 6, 31, 0
9, 183360, Note_on_c, 6, 31, 100
9, 183598, Note_on_c, 6, 31, 0
9, 183600, Note_on_c, 6, 43, 96
9, 183838, Note_on_c, 6, 43, 0
9, 183840, Note_on_c, 6, 34, 96
9, 184078, Note_on_c, 6, 34, 0
9, 184080, Note_on_c, 6, 46, 96
9, 184318, Note_on_c, 6, 46, 0
9, 184320, Note_on_c, 6, 36, 98
9, 184558, Note_on_c, 6, 36, 0
9, 184560, Note_on_c, 6, 48, 92
9, 184798, Note_on_c, 6, 48, 0
9, 184800, Note_on_c, 6, 31, 94
9, 185038, Note_on_c, 6, 31, 0
9, 185040, Note_on_c, 6, 32, 101
9, 185486, Note_on_c, 6, 32, 0
9, 185520, Note_on_c, 6, 44, 96
9, 185758, Note_on_c, 6, 44, 0
9, 186000, Note_on_c, 6, 39, 98
9, 186238, Note_on_c, 6, 39, 0
9, 186240, Note_on_c, 6, 39, 98
9, 186478, Note_on_c, 6, 39, 0
9, 186480, Note_on_c, 6, 51, 92
9, 186718, Note_on_c, 6, 51, 0
9, 186960, Note_on_c, 6, 31, 99
9, 187198, Note_on_c, 6, 31, 0
9, 187203, Note_on_c, 6, 53, 92
9, 187326, Note_on_c, 6, 55, 70
9, 187399, Note_on_c, 6, 53, 0
9, 187498, Note_on_c, 6, 55, 0
9, 187680, Note_on_c, 6, 53, 89
9, 187918, Note_on_c, 6, 53, 0
9, 187920, Note_on_c, 6, 51, 85
9, 188158, Note_on_c, 6, 51, 0
9, 188160, Note_on_c, 6, 36, 98
9, 188398, Note_on_c, 6, 36, 0
9, 188400, Note_on_c, 6, 48, 92
9, 188638, Note_on_c, 6, 48, 0
9, 188640, Note_on_c, 6, 31, 94
9, 188878, Note_on_c, 6, 31, 0
9, 188880, Note_on_c, 6, 32, 101
9, 189326, Note_on_c, 6, 32, 0
9, 189360, Note_on_c, 6, 44, 96
9, 189598, Note_on_c, 6, 44, 0
9, 189840, Note_on_c, 6, 39, 98
9, 190078, Note_on_c, 6, 39, 0
9, 190080, Note_on_c, 6, 39, 98
9, 190318, Note_on_c, 6, 39, 0
9, 190320, Note_on_c, 6, 51, 92
9, 190558, Note_on_c, 6, 51, 0
9, 190800, Note_on_c, 6, 31, 99
9, 191038, Note_on_c, 6, 31, 0
9, 191040, Note_on_c, 6, 31, 100
9, 191278, Note_on_c, 6, 31, 0
9, 191280, Note_on_c, 6, 43, 96
9, 191518, Note_on_c, 6, 43, 0
9, 191520, Note_on_c, 6, 34, 96
9, 191758, Note_on_c, 6, 34, 0
9, 191760, Note_on_c, 6, 46, 96
9, 191998, Note_on_c, 6, 46, 0
9, 192000, Note_on_c, 6, 36, 98
9, 192238, Note_on_c, 6, 36, 0
9, 192238, End_track
10, 0, Start_track
10, 0, MIDI_port, 0
10, 0, Title_t, "POly"
10, 515, Control_c, 7, 0, 0
10, 517, Program_c, 7, 90
10, 518, Control_c, 7, 7, 100
10, 518, Control_c, 7, 10, 64
10, 1290, Control_c, 7, 121, 0
10, 1297, Control_c, 7, 91, 50
10, 1298, Control_c, 7, 93, 35
10, 1300, Control_c, 7, 94, 10
10, 1301, Control_c, 7, 11, 127
10, 1305, Control_c, 7, 101, 0
10, 1305, Control_c, 7, 100, 0
10, 1305, Control_c, 7, 6, 2
10, 1305, Control_c, 7, 38, 0
10, 1306, Control_c, 7, 71, 64
10, 1307, Control_c, 7, 72, 64
10, 1308, Control_c, 7, 73, 64
10, 1310, Control_c, 7, 74, 64
10, 179760, Note_on_c, 7, 75, 101
10, 179760, Note_on_c, 7, 87, 101
10, 179998, Note_on_c, 7, 87, 0
10, 179998, Note_on_c, 7, 75, 0
10, 180000, Note_on_c, 7, 74, 92
10, 180000, Note_on_c, 7, 86, 92
10, 180240, Note_on_c, 7, 72, 86
10, 180240, Note_on_c, 7, 84, 86
10, 180243, Note_on_c, 7, 86, 0
10, 180243, Note_on_c, 7, 74, 0
10, 181200, Note_on_c, 7, 70, 85
10, 181200, Note_on_c, 7, 82, 85
10, 181213, Note_on_c, 7, 72, 0
10, 181213, Note_on_c, 7, 84, 0
10, 182080, Note_on_c, 7, 70, 0
10, 182080, Note_on_c, 7, 82, 0
10, 182160, Note_on_c, 7, 70, 78
10, 182160, Note_on_c, 7, 82, 78
10, 183358, Note_on_c, 7, 82, 0
10, 183358, Note_on_c, 7, 70, 0
10, 183600, Note_on_c, 7, 75, 101
10, 183600, Note_on_c, 7, 87, 101
10, 183838, Note_on_c, 7, 87, 0
10, 183838, Note_on_c, 7, 75, 0
10, 183840, Note_on_c, 7, 74, 92
10, 183840, Note_on_c, 7, 86, 92
10, 184080, Note_on_c, 7, 72, 86
10, 184080, Note_on_c, 7, 84, 86
10, 184083, Note_on_c, 7, 86, 0
10, 184083, Note_on_c, 7, 74, 0
10, 185040, Note_on_c, 7, 70, 85
10, 185040, Note_on_c, 7, 82, 85
10, 185053, Note_on_c, 7, 72, 0
10, 185053, Note_on_c, 7, 84, 0
10, 185920, Note_on_c, 7, 70, 0
10, 185920, Note_on_c, 7, 82, 0
10, 186000, Note_on_c, 7, 70, 78
10, 186000, Note_on_c, 7, 82, 78
10, 187438, Note_on_c, 7, 82, 0
10, 187438, Note_on_c, 7, 70, 0
10, 187440, Note_on_c, 7, 75, 101
10, 187440, Note_on_c, 7, 87, 101
10, 187678, Note_on_c, 7, 87, 0
10, 187678, Note_on_c, 7, 75, 0
10, 187680, Note_on_c, 7, 74, 92
10, 187680, Note_on_c, 7, 86, 92
10, 187920, Note_on_c, 7, 72, 86
10, 187920, Note_on_c, 7, 84, 86
10, 187923, Note_on_c, 7, 86, 0
10, 187923, Note_on_c, 7, 74, 0
10, 188880, Note_on_c, 7, 70, 85
10, 188880, Note_on_c, 7, 82, 85
10, 188893, Note_on_c, 7, 72, 0
10, 188893, Note_on_c, 7, 84, 0
10, 189760, Note_on_c, 7, 70, 0
10, 189760, Note_on_c, 7, 82, 0
10, 189840, Note_on_c, 7, 70, 78
10, 189840, Note_on_c, 7, 82, 78
10, 191038, Note_on_c, 7, 82, 0
10, 191038, Note_on_c, 7, 70, 0
10, 191038, End_track
11, 0, Start_track
11, 0, MIDI_port, 0
11, 0, Title_t, "Sweep"
11, 520, Control_c, 8, 0, 0
11, 522, Program_c, 8, 95
11, 523, Control_c, 8, 7, 100
11, 523, Control_c, 8, 10, 64
11, 1320, Control_c, 8, 121, 0
11, 1327, Control_c, 8, 91, 50
11, 1328, Control_c, 8, 93, 20
11, 1330, Control_c, 8, 94, 0
11, 1331, Control_c, 8, 11, 127
11, 1335, Control_c, 8, 101, 0
11, 1335, Control_c, 8, 100, 0
11, 1335, Control_c, 8, 6, 2
11, 1335, Control_c, 8, 38, 0
11, 1336, Control_c, 8, 71, 64
11, 1337, Control_c, 8, 72, 64
11, 1338, Control_c, 8, 73, 64
11, 1340, Control_c, 8, 74, 64
11, 1920, Note_on_c, 8, 55, 35
11, 1920, Note_on_c, 8, 60, 62
11, 1920, Note_on_c, 8, 62, 55
11, 1920, Note_on_c, 8, 63, 58
11, 3828, Note_on_c, 8, 55, 0
11, 3837, Note_on_c, 8, 60, 0
11, 3838, Note_on_c, 8, 63, 0
11, 3842, Note_on_c, 8, 62, 0
11, 3842, End_track
12, 0, Start_track
12, 0, MIDI_port, 0
12, 0, Title_t, "Drums"
12, 527, Program_c, 9, 1
12, 528, Control_c, 9, 7, 127
12, 528, Control_c, 9, 10, 64
12, 1350, Control_c, 9, 121, 0
12, 1356, Control_c, 9, 91, 50
12, 1357, Control_c, 9, 93, 0
12, 1358, Control_c, 9, 11, 127
12, 1362, Control_c, 9, 99, 29
12, 1362, Control_c, 9, 98, 0
12, 1362, Control_c, 9, 6, 0
12, 1362, Control_c, 9, 38, 0
12, 1920, Note_on_c, 9, 42, 91
12, 1978, Note_on_c, 9, 42, 0
12, 2400, Note_on_c, 9, 42, 83
12, 2458, Note_on_c, 9, 42, 0
12, 2880, Note_on_c, 9, 42, 75
12, 2938, Note_on_c, 9, 42, 0
12, 3360, Note_on_c, 9, 42, 83
12, 3418, Note_on_c, 9, 42, 0
12, 3840, Note_on_c, 9, 35, 125
12, 3840, Note_on_c, 9, 41, 100
12, 3840, Note_on_c, 9, 57, 60
12, 3898, Note_on_c, 9, 57, 0
12, 3898, Note_on_c, 9, 41, 0
12, 3898, Note_on_c, 9, 35, 0
12, 12000, Note_on_c, 9, 39, 100
12, 12058, Note_on_c, 9, 39, 0
12, 12960, Note_on_c, 9, 39, 100
12, 13018, Note_on_c, 9, 39, 0
12, 13920, Note_on_c, 9, 39, 100
12, 13978, Note_on_c, 9, 39, 0
12, 14880, Note_on_c, 9, 39, 100
12, 14938, Note_on_c, 9, 39, 0
12, 15840, Note_on_c, 9, 39, 100
12, 15898, Note_on_c, 9, 39, 0
12, 16800, Note_on_c, 9, 39, 100
12, 16858, Note_on_c, 9, 39, 0
12, 17760, Note_on_c, 9, 39, 100
12, 17818, Note_on_c, 9, 39, 0
12, 18720, Note_on_c, 9, 35, 125
12, 18720, Note_on_c, 9, 39, 100
12, 18778, Note_on_c, 9, 39, 0
12, 18778, Note_on_c, 9, 35, 0
12, 19200, Note_on_c, 9, 35, 125
12, 19200, Note_on_c, 9, 42, 91
12, 19258, Note_on_c, 9, 42, 0
12, 19258, Note_on_c, 9, 35, 0
12, 19680, Note_on_c, 9, 35, 125
12, 19680, Note_on_c, 9, 39, 100
12, 19680, Note_on_c, 9, 40, 100
12, 19680, Note_on_c, 9, 42, 83
12, 19738, Note_on_c, 9, 42, 0
12, 19738, Note_on_c, 9, 35, 0
12, 19738, Note_on_c, 9, 39, 0
12, 19738, Note_on_c, 9, 40, 0
12, 20160, Note_on_c, 9, 35, 125
12, 20160, Note_on_c, 9, 42, 75
12, 20218, Note_on_c, 9, 42, 0
12, 20218, Note_on_c, 9, 35, 0
12, 20640, Note_on_c, 9, 35, 125
12, 20640, Note_on_c, 9, 39, 100
12, 20640, Note_on_c, 9, 40, 100
12, 20640, Note_on_c, 9, 42, 83
12, 20698, Note_on_c, 9, 42, 0
12, 20698, Note_on_c, 9, 35, 0
12, 20698, Note_on_c, 9, 39, 0
12, 20698, Note_on_c, 9, 40, 0
12, 21120, Note_on_c, 9, 35, 125
12, 21120, Note_on_c, 9, 42, 91
12, 21178, Note_on_c, 9, 42, 0
12, 21178, Note_on_c, 9, 35, 0
12, 21600, Note_on_c, 9, 35, 125
12, 21600, Note_on_c, 9, 39, 100
12, 21600, Note_on_c, 9, 40, 100
12, 21600, Note_on_c, 9, 42, 83
12, 21658, Note_on_c, 9, 42, 0
12, 21658, Note_on_c, 9, 35, 0
12, 21658, Note_on_c, 9, 39, 0
12, 21658, Note_on_c, 9, 40, 0
12, 22080, Note_on_c, 9, 35, 125
12, 22080, Note_on_c, 9, 42, 75
12, 22138, Note_on_c, 9, 42, 0
12, 22138, Note_on_c, 9, 35, 0
12, 22560, Note_on_c, 9, 35, 125
12, 22560, Note_on_c, 9, 39, 100
12, 22560, Note_on_c, 9, 40, 100
12, 22560, Note_on_c, 9, 42, 83
12, 22618, Note_on_c, 9, 42, 0
12, 22618, Note_on_c, 9, 35, 0
12, 22618, Note_on_c, 9, 39, 0
12, 22618, Note_on_c, 9, 40, 0
12, 23040, Note_on_c, 9, 35, 125
12, 23040, Note_on_c, 9, 42, 91
12, 23098, Note_on_c, 9, 42, 0
12, 23098, Note_on_c, 9, 35, 0
12, 23520, Note_on_c, 9, 35, 125
12, 23520, Note_on_c, 9, 39, 100
12, 23520, Note_on_c, 9, 40, 100
12, 23520, Note_on_c, 9, 42, 83
12, 23578, Note_on_c, 9, 42, 0
12, 23578, Note_on_c, 9, 35, 0
12, 23578, Note_on_c, 9, 39, 0
12, 23578, Note_on_c, 9, 40, 0
12, 24000, Note_on_c, 9, 35, 125
12, 24000, Note_on_c, 9, 42, 75
12, 24058, Note_on_c, 9, 42, 0
12, 24058, Note_on_c, 9, 35, 0
12, 24480, Note_on_c, 9, 35, 125
12, 24480, Note_on_c, 9, 39, 100
12, 24480, Note_on_c, 9, 40, 100
12, 24480, Note_on_c, 9, 42, 83
12, 24538, Note_on_c, 9, 42, 0
12, 24538, Note_on_c, 9, 35, 0
12, 24538, Note_on_c, 9, 39, 0
12, 24538, Note_on_c, 9, 40, 0
12, 24960, Note_on_c, 9, 35, 125
12, 24960, Note_on_c, 9, 42, 91
12, 25018, Note_on_c, 9, 42, 0
12, 25018, Note_on_c, 9, 35, 0
12, 25440, Note_on_c, 9, 35, 125
12, 25440, Note_on_c, 9, 39, 100
12, 25440, Note_on_c, 9, 40, 100
12, 25440, Note_on_c, 9, 42, 83
12, 25498, Note_on_c, 9, 42, 0
12, 25498, Note_on_c, 9, 35, 0
12, 25498, Note_on_c, 9, 39, 0
12, 25498, Note_on_c, 9, 40, 0
12, 25920, Note_on_c, 9, 35, 125
12, 25920, Note_on_c, 9, 42, 75
12, 25978, Note_on_c, 9, 42, 0
12, 25978, Note_on_c, 9, 35, 0
12, 26400, Note_on_c, 9, 35, 125
12, 26400, Note_on_c, 9, 39, 100
12, 26400, Note_on_c, 9, 40, 100
12, 26400, Note_on_c, 9, 42, 83
12, 26458, Note_on_c, 9, 42, 0
12, 26458, Note_on_c, 9, 35, 0
12, 26458, Note_on_c, 9, 39, 0
12, 26458, Note_on_c, 9, 40, 0
12, 26880, Note_on_c, 9, 35, 125
12, 26880, Note_on_c, 9, 42, 91
12, 26938, Note_on_c, 9, 42, 0
12, 26938, Note_on_c, 9, 35, 0
12, 27360, Note_on_c, 9, 35, 125
12, 27360, Note_on_c, 9, 39, 100
12, 27360, Note_on_c, 9, 40, 100
12, 27360, Note_on_c, 9, 42, 83
12, 27418, Note_on_c, 9, 42, 0
12, 27418, Note_on_c, 9, 35, 0
12, 27418, Note_on_c, 9, 39, 0
12, 27418, Note_on_c, 9, 40, 0
12, 27840, Note_on_c, 9, 35, 125
12, 27840, Note_on_c, 9, 42, 75
12, 27898, Note_on_c, 9, 42, 0
12, 27898, Note_on_c, 9, 35, 0
12, 28320, Note_on_c, 9, 35, 125
12, 28320, Note_on_c, 9, 39, 100
12, 28320, Note_on_c, 9, 40, 100
12, 28320, Note_on_c, 9, 42, 83
12, 28378, Note_on_c, 9, 42, 0
12, 28378, Note_on_c, 9, 35, 0
12, 28378, Note_on_c, 9, 39, 0
12, 28378, Note_on_c, 9, 40, 0
12, 28800, Note_on_c, 9, 35, 125
12, 28800, Note_on_c, 9, 42, 91
12, 28858, Note_on_c, 9, 42, 0
12, 28858, Note_on_c, 9, 35, 0
12, 29280, Note_on_c, 9, 35, 125
12, 29280, Note_on_c, 9, 39, 100
12, 29280, Note_on_c, 9, 40, 100
12, 29280, Note_on_c, 9, 42, 83
12, 29338, Note_on_c, 9, 42, 0
12, 29338, Note_on_c, 9, 35, 0
12, 29338, Note_on_c, 9, 39, 0
12, 29338, Note_on_c, 9, 40, 0
12, 29760, Note_on_c, 9, 35, 125
12, 29760, Note_on_c, 9, 42, 75
12, 29818, Note_on_c, 9, 42, 0
12, 29818, Note_on_c, 9, 35, 0
12, 30240, Note_on_c, 9, 35, 125
12, 30240, Note_on_c, 9, 39, 100
12, 30240, Note_on_c, 9, 40, 100
12, 30240, Note_on_c, 9, 42, 83
12, 30298, Note_on_c, 9, 42, 0
12, 30298, Note_on_c, 9, 35, 0
12, 30298, Note_on_c, 9, 39, 0
12, 30298, Note_on_c, 9, 40, 0
12, 30720, Note_on_c, 9, 35, 125
12, 30720, Note_on_c, 9, 42, 91
12, 30778, Note_on_c, 9, 42, 0
12, 30778, Note_on_c, 9, 35, 0
12, 31200, Note_on_c, 9, 35, 125
12, 31200, Note_on_c, 9, 39, 100
12, 31200, Note_on_c, 9, 40, 100
12, 31200, Note_on_c, 9, 42, 83
12, 31258, Note_on_c, 9, 42, 0
12, 31258, Note_on_c, 9, 35, 0
12, 31258, Note_on_c, 9, 39, 0
12, 31258, Note_on_c, 9, 40, 0
12, 31680, Note_on_c, 9, 35, 125
12, 31680, Note_on_c, 9, 42, 75
12, 31738, Note_on_c, 9, 42, 0
12, 31738, Note_on_c, 9, 35, 0
12, 32160, Note_on_c, 9, 35, 125
12, 32160, Note_on_c, 9, 39, 100
12, 32160, Note_on_c, 9, 40, 100
12, 32160, Note_on_c, 9, 42, 83
12, 32218, Note_on_c, 9, 42, 0
12, 32218, Note_on_c, 9, 35, 0
12, 32218, Note_on_c, 9, 39, 0
12, 32218, Note_on_c, 9, 40, 0
12, 32640, Note_on_c, 9, 35, 125
12, 32640, Note_on_c, 9, 42, 91
12, 32698, Note_on_c, 9, 42, 0
12, 32698, Note_on_c, 9, 35, 0
12, 33120, Note_on_c, 9, 35, 125
12, 33120, Note_on_c, 9, 39, 100
12, 33120, Note_on_c, 9, 40, 100
12, 33120, Note_on_c, 9, 42, 83
12, 33178, Note_on_c, 9, 42, 0
12, 33178, Note_on_c, 9, 35, 0
12, 33178, Note_on_c, 9, 39, 0
12, 33178, Note_on_c, 9, 40, 0
12, 33600, Note_on_c, 9, 35, 125
12, 33600, Note_on_c, 9, 42, 75
12, 33658, Note_on_c, 9, 42, 0
12, 33658, Note_on_c, 9, 35, 0
12, 34080, Note_on_c, 9, 35, 125
12, 34080, Note_on_c, 9, 39, 100
12, 34080, Note_on_c, 9, 40, 100
12, 34080, Note_on_c, 9, 42, 83
12, 34138, Note_on_c, 9, 42, 0
12, 34138, Note_on_c, 9, 35, 0
12, 34138, Note_on_c, 9, 39, 0
12, 34138, Note_on_c, 9, 40, 0
12, 34560, Note_on_c, 9, 35, 125
12, 34560, Note_on_c, 9, 42, 91
12, 34618, Note_on_c, 9, 42, 0
12, 34618, Note_on_c, 9, 35, 0
12, 35040, Note_on_c, 9, 35, 125
12, 35040, Note_on_c, 9, 39, 100
12, 35040, Note_on_c, 9, 40, 100
12, 35040, Note_on_c, 9, 42, 83
12, 35098, Note_on_c, 9, 42, 0
12, 35098, Note_on_c, 9, 35, 0
12, 35098, Note_on_c, 9, 39, 0
12, 35098, Note_on_c, 9, 40, 0
12, 35520, Note_on_c, 9, 35, 125
12, 35520, Note_on_c, 9, 42, 75
12, 35578, Note_on_c, 9, 42, 0
12, 35578, Note_on_c, 9, 35, 0
12, 36000, Note_on_c, 9, 35, 125
12, 36000, Note_on_c, 9, 39, 100
12, 36000, Note_on_c, 9, 40, 100
12, 36000, Note_on_c, 9, 42, 83
12, 36058, Note_on_c, 9, 42, 0
12, 36058, Note_on_c, 9, 35, 0
12, 36058, Note_on_c, 9, 39, 0
12, 36058, Note_on_c, 9, 40, 0
12, 36480, Note_on_c, 9, 35, 125
12, 36480, Note_on_c, 9, 42, 91
12, 36538, Note_on_c, 9, 42, 0
12, 36538, Note_on_c, 9, 35, 0
12, 36960, Note_on_c, 9, 35, 125
12, 36960, Note_on_c, 9, 39, 100
12, 36960, Note_on_c, 9, 40, 100
12, 36960, Note_on_c, 9, 42, 83
12, 37018, Note_on_c, 9, 42, 0
12, 37018, Note_on_c, 9, 35, 0
12, 37018, Note_on_c, 9, 39, 0
12, 37018, Note_on_c, 9, 40, 0
12, 37440, Note_on_c, 9, 35, 125
12, 37440, Note_on_c, 9, 42, 75
12, 37498, Note_on_c, 9, 42, 0
12, 37498, Note_on_c, 9, 35, 0
12, 37920, Note_on_c, 9, 35, 125
12, 37920, Note_on_c, 9, 39, 100
12, 37920, Note_on_c, 9, 40, 100
12, 37920, Note_on_c, 9, 42, 83
12, 37978, Note_on_c, 9, 42, 0
12, 37978, Note_on_c, 9, 35, 0
12, 37978, Note_on_c, 9, 39, 0
12, 37978, Note_on_c, 9, 40, 0
12, 38400, Note_on_c, 9, 35, 125
12, 38400, Note_on_c, 9, 42, 91
12, 38458, Note_on_c, 9, 42, 0
12, 38458, Note_on_c, 9, 35, 0
12, 38880, Note_on_c, 9, 35, 125
12, 38880, Note_on_c, 9, 39, 100
12, 38880, Note_on_c, 9, 40, 100
12, 38880, Note_on_c, 9, 42, 83
12, 38938, Note_on_c, 9, 42, 0
12, 38938, Note_on_c, 9, 35, 0
12, 38938, Note_on_c, 9, 39, 0
12, 38938, Note_on_c, 9, 40, 0
12, 39360, Note_on_c, 9, 35, 125
12, 39360, Note_on_c, 9, 42, 75
12, 39418, Note_on_c, 9, 42, 0
12, 39418, Note_on_c, 9, 35, 0
12, 39840, Note_on_c, 9, 35, 125
12, 39840, Note_on_c, 9, 39, 100
12, 39840, Note_on_c, 9, 40, 100
12, 39840, Note_on_c, 9, 42, 83
12, 39898, Note_on_c, 9, 42, 0
12, 39898, Note_on_c, 9, 35, 0
12, 39898, Note_on_c, 9, 39, 0
12, 39898, Note_on_c, 9, 40, 0
12, 40320, Note_on_c, 9, 35, 125
12, 40320, Note_on_c, 9, 42, 91
12, 40378, Note_on_c, 9, 42, 0
12, 40378, Note_on_c, 9, 35, 0
12, 40800, Note_on_c, 9, 35, 125
12, 40800, Note_on_c, 9, 39, 100
12, 40800, Note_on_c, 9, 40, 100
12, 40800, Note_on_c, 9, 42, 83
12, 40858, Note_on_c, 9, 42, 0
12, 40858, Note_on_c, 9, 35, 0
12, 40858, Note_on_c, 9, 39, 0
12, 40858, Note_on_c, 9, 40, 0
12, 41280, Note_on_c, 9, 35, 125
12, 41280, Note_on_c, 9, 42, 75
12, 41338, Note_on_c, 9, 42, 0
12, 41338, Note_on_c, 9, 35, 0
12, 41760, Note_on_c, 9, 35, 125
12, 41760, Note_on_c, 9, 39, 100
12, 41760, Note_on_c, 9, 40, 100
12, 41760, Note_on_c, 9, 42, 83
12, 41818, Note_on_c, 9, 42, 0
12, 41818, Note_on_c, 9, 35, 0
12, 41818, Note_on_c, 9, 39, 0
12, 41818, Note_on_c, 9, 40, 0
12, 42240, Note_on_c, 9, 35, 125
12, 42240, Note_on_c, 9, 42, 91
12, 42298, Note_on_c, 9, 42, 0
12, 42298, Note_on_c, 9, 35, 0
12, 42720, Note_on_c, 9, 35, 125
12, 42720, Note_on_c, 9, 39, 100
12, 42720, Note_on_c, 9, 40, 100
12, 42720, Note_on_c, 9, 42, 83
12, 42778, Note_on_c, 9, 42, 0
12, 42778, Note_on_c, 9, 35, 0
12, 42778, Note_on_c, 9, 39, 0
12, 42778, Note_on_c, 9, 40, 0
12, 43200, Note_on_c, 9, 35, 125
12, 43200, Note_on_c, 9, 42, 75
12, 43258, Note_on_c, 9, 42, 0
12, 43258, Note_on_c, 9, 35, 0
12, 43680, Note_on_c, 9, 35, 125
12, 43680, Note_on_c, 9, 39, 100
12, 43680, Note_on_c, 9, 40, 100
12, 43680, Note_on_c, 9, 42, 83
12, 43738, Note_on_c, 9, 42, 0
12, 43738, Note_on_c, 9, 35, 0
12, 43738, Note_on_c, 9, 39, 0
12, 43738, Note_on_c, 9, 40, 0
12, 44160, Note_on_c, 9, 35, 125
12, 44160, Note_on_c, 9, 42, 91
12, 44218, Note_on_c, 9, 42, 0
12, 44218, Note_on_c, 9, 35, 0
12, 44640, Note_on_c, 9, 35, 125
12, 44640, Note_on_c, 9, 39, 100
12, 44640, Note_on_c, 9, 40, 100
12, 44640, Note_on_c, 9, 42, 83
12, 44698, Note_on_c, 9, 42, 0
12, 44698, Note_on_c, 9, 35, 0
12, 44698, Note_on_c, 9, 39, 0
12, 44698, Note_on_c, 9, 40, 0
12, 45120, Note_on_c, 9, 35, 125
12, 45120, Note_on_c, 9, 42, 75
12, 45178, Note_on_c, 9, 42, 0
12, 45178, Note_on_c, 9, 35, 0
12, 45600, Note_on_c, 9, 35, 125
12, 45600, Note_on_c, 9, 39, 100
12, 45600, Note_on_c, 9, 40, 100
12, 45600, Note_on_c, 9, 42, 83
12, 45658, Note_on_c, 9, 42, 0
12, 45658, Note_on_c, 9, 35, 0
12, 45658, Note_on_c, 9, 39, 0
12, 45658, Note_on_c, 9, 40, 0
12, 46080, Note_on_c, 9, 35, 125
12, 46080, Note_on_c, 9, 42, 91
12, 46138, Note_on_c, 9, 42, 0
12, 46138, Note_on_c, 9, 35, 0
12, 46560, Note_on_c, 9, 35, 125
12, 46560, Note_on_c, 9, 39, 100
12, 46560, Note_on_c, 9, 40, 100
12, 46560, Note_on_c, 9, 42, 83
12, 46618, Note_on_c, 9, 42, 0
12, 46618, Note_on_c, 9, 35, 0
12, 46618, Note_on_c, 9, 39, 0
12, 46618, Note_on_c, 9, 40, 0
12, 47040, Note_on_c, 9, 35, 125
12, 47040, Note_on_c, 9, 42, 75
12, 47098, Note_on_c, 9, 42, 0
12, 47098, Note_on_c, 9, 35, 0
12, 47520, Note_on_c, 9, 35, 125
12, 47520, Note_on_c, 9, 39, 100
12, 47520, Note_on_c, 9, 40, 100
12, 47520, Note_on_c, 9, 42, 83
12, 47578, Note_on_c, 9, 42, 0
12, 47578, Note_on_c, 9, 35, 0
12, 47578, Note_on_c, 9, 39, 0
12, 47578, Note_on_c, 9, 40, 0
12, 48000, Note_on_c, 9, 35, 125
12, 48000, Note_on_c, 9, 42, 91
12, 48058, Note_on_c, 9, 42, 0
12, 48058, Note_on_c, 9, 35, 0
12, 48480, Note_on_c, 9, 35, 125
12, 48480, Note_on_c, 9, 42, 83
12, 48538, Note_on_c, 9, 42, 0
12, 48538, Note_on_c, 9, 35, 0
12, 48960, Note_on_c, 9, 35, 125
12, 48960, Note_on_c, 9, 42, 75
12, 49018, Note_on_c, 9, 42, 0
12, 49018, Note_on_c, 9, 35, 0
12, 49440, Note_on_c, 9, 35, 125
12, 49440, Note_on_c, 9, 39, 100
12, 49440, Note_on_c, 9, 40, 100
12, 49440, Note_on_c, 9, 42, 83
12, 49498, Note_on_c, 9, 42, 0
12, 49498, Note_on_c, 9, 35, 0
12, 49498, Note_on_c, 9, 39, 0
12, 49498, Note_on_c, 9, 40, 0
12, 49920, Note_on_c, 9, 35, 125
12, 49920, Note_on_c, 9, 42, 91
12, 49920, Note_on_c, 9, 57, 60
12, 49978, Note_on_c, 9, 57, 0
12, 49978, Note_on_c, 9, 42, 0
12, 49978, Note_on_c, 9, 35, 0
12, 50040, Note_on_c, 9, 42, 70
12, 50098, Note_on_c, 9, 42, 0
12, 50160, Note_on_c, 9, 42, 70
12, 50218, Note_on_c, 9, 42, 0
12, 50280, Note_on_c, 9, 42, 70
12, 50338, Note_on_c, 9, 42, 0
12, 50400, Note_on_c, 9, 35, 125
12, 50400, Note_on_c, 9, 39, 100
12, 50400, Note_on_c, 9, 40, 100
12, 50400, Note_on_c, 9, 42, 83
12, 50458, Note_on_c, 9, 42, 0
12, 50458, Note_on_c, 9, 35, 0
12, 50458, Note_on_c, 9, 39, 0
12, 50458, Note_on_c, 9, 40, 0
12, 50520, Note_on_c, 9, 42, 62
12, 50578, Note_on_c, 9, 42, 0
12, 50640, Note_on_c, 9, 42, 62
12, 50698, Note_on_c, 9, 42, 0
12, 50760, Note_on_c, 9, 42, 62
12, 50818, Note_on_c, 9, 42, 0
12, 50880, Note_on_c, 9, 35, 125
12, 50880, Note_on_c, 9, 42, 75
12, 50938, Note_on_c, 9, 42, 0
12, 50938, Note_on_c, 9, 35, 0
12, 51000, Note_on_c, 9, 42, 54
12, 51058, Note_on_c, 9, 42, 0
12, 51120, Note_on_c, 9, 42, 54
12, 51178, Note_on_c, 9, 42, 0
12, 51240, Note_on_c, 9, 42, 54
12, 51298, Note_on_c, 9, 42, 0
12, 51360, Note_on_c, 9, 35, 125
12, 51360, Note_on_c, 9, 39, 100
12, 51360, Note_on_c, 9, 40, 100
12, 51360, Note_on_c, 9, 42, 83
12, 51418, Note_on_c, 9, 42, 0
12, 51418, Note_on_c, 9, 35, 0
12, 51418, Note_on_c, 9, 39, 0
12, 51418, Note_on_c, 9, 40, 0
12, 51480, Note_on_c, 9, 42, 62
12, 51538, Note_on_c, 9, 42, 0
12, 51600, Note_on_c, 9, 42, 62
12, 51658, Note_on_c, 9, 42, 0
12, 51720, Note_on_c, 9, 42, 62
12, 51778, Note_on_c, 9, 42, 0
12, 51840, Note_on_c, 9, 35, 125
12, 51840, Note_on_c, 9, 42, 91
12, 51898, Note_on_c, 9, 42, 0
12, 51898, Note_on_c, 9, 35, 0
12, 51960, Note_on_c, 9, 42, 70
12, 52018, Note_on_c, 9, 42, 0
12, 52080, Note_on_c, 9, 42, 70
12, 52138, Note_on_c, 9, 42, 0
12, 52200, Note_on_c, 9, 42, 70
12, 52258, Note_on_c, 9, 42, 0
12, 52320, Note_on_c, 9, 35, 125
12, 52320, Note_on_c, 9, 39, 100
12, 52320, Note_on_c, 9, 40, 100
12, 52320, Note_on_c, 9, 42, 83
12, 52378, Note_on_c, 9, 42, 0
12, 52378, Note_on_c, 9, 35, 0
12, 52378, Note_on_c, 9, 39, 0
12, 52378, Note_on_c, 9, 40, 0
12, 52440, Note_on_c, 9, 42, 62
12, 52498, Note_on_c, 9, 42, 0
12, 52560, Note_on_c, 9, 42, 62
12, 52618, Note_on_c, 9, 42, 0
12, 52680, Note_on_c, 9, 42, 62
12, 52738, Note_on_c, 9, 42, 0
12, 52800, Note_on_c, 9, 35, 125
12, 52800, Note_on_c, 9, 42, 75
12, 52858, Note_on_c, 9, 42, 0
12, 52858, Note_on_c, 9, 35, 0
12, 52920, Note_on_c, 9, 42, 54
12, 52978, Note_on_c, 9, 42, 0
12, 53040, Note_on_c, 9, 42, 54
12, 53098, Note_on_c, 9, 42, 0
12, 53160, Note_on_c, 9, 42, 54
12, 53218, Note_on_c, 9, 42, 0
12, 53280, Note_on_c, 9, 35, 125
12, 53280, Note_on_c, 9, 39, 100
12, 53280, Note_on_c, 9, 40, 100
12, 53280, Note_on_c, 9, 42, 83
12, 53338, Note_on_c, 9, 42, 0
12, 53338, Note_on_c, 9, 35, 0
12, 53338, Note_on_c, 9, 39, 0
12, 53338, Note_on_c, 9, 40, 0
12, 53400, Note_on_c, 9, 42, 62
12, 53458, Note_on_c, 9, 42, 0
12, 53520, Note_on_c, 9, 42, 62
12, 53578, Note_on_c, 9, 42, 0
12, 53640, Note_on_c, 9, 42, 62
12, 53698, Note_on_c, 9, 42, 0
12, 53760, Note_on_c, 9, 35, 125
12, 53760, Note_on_c, 9, 42, 91
12, 53818, Note_on_c, 9, 42, 0
12, 53818, Note_on_c, 9, 35, 0
12, 53880, Note_on_c, 9, 42, 70
12, 53938, Note_on_c, 9, 42, 0
12, 54000, Note_on_c, 9, 42, 70
12, 54058, Note_on_c, 9, 42, 0
12, 54120, Note_on_c, 9, 42, 70
12, 54178, Note_on_c, 9, 42, 0
12, 54240, Note_on_c, 9, 35, 125
12, 54240, Note_on_c, 9, 39, 100
12, 54240, Note_on_c, 9, 40, 100
12, 54240, Note_on_c, 9, 42, 83
12, 54298, Note_on_c, 9, 42, 0
12, 54298, Note_on_c, 9, 35, 0
12, 54298, Note_on_c, 9, 39, 0
12, 54298, Note_on_c, 9, 40, 0
12, 54360, Note_on_c, 9, 42, 62
12, 54418, Note_on_c, 9, 42, 0
12, 54480, Note_on_c, 9, 42, 62
12, 54538, Note_on_c, 9, 42, 0
12, 54600, Note_on_c, 9, 42, 62
12, 54658, Note_on_c, 9, 42, 0
12, 54720, Note_on_c, 9, 35, 125
12, 54720, Note_on_c, 9, 42, 75
12, 54778, Note_on_c, 9, 42, 0
12, 54778, Note_on_c, 9, 35, 0
12, 54840, Note_on_c, 9, 42, 54
12, 54898, Note_on_c, 9, 42, 0
12, 54960, Note_on_c, 9, 42, 54
12, 55018, Note_on_c, 9, 42, 0
12, 55080, Note_on_c, 9, 42, 54
12, 55138, Note_on_c, 9, 42, 0
12, 55200, Note_on_c, 9, 35, 125
12, 55200, Note_on_c, 9, 39, 100
12, 55200, Note_on_c, 9, 40, 100
12, 55200, Note_on_c, 9, 42, 83
12, 55258, Note_on_c, 9, 42, 0
12, 55258, Note_on_c, 9, 35, 0
12, 55258, Note_on_c, 9, 39, 0
12, 55258, Note_on_c, 9, 40, 0
12, 55320, Note_on_c, 9, 42, 62
12, 55378, Note_on_c, 9, 42, 0
12, 55440, Note_on_c, 9, 42, 62
12, 55498, Note_on_c, 9, 42, 0
12, 55560, Note_on_c, 9, 42, 62
12, 55618, Note_on_c, 9, 42, 0
12, 55680, Note_on_c, 9, 35, 125
12, 55680, Note_on_c, 9, 42, 91
12, 55738, Note_on_c, 9, 42, 0
12, 55738, Note_on_c, 9, 35, 0
12, 55800, Note_on_c, 9, 42, 70
12, 55858, Note_on_c, 9, 42, 0
12, 55920, Note_on_c, 9, 42, 70
12, 55978, Note_on_c, 9, 42, 0
12, 56040, Note_on_c, 9, 42, 70
12, 56098, Note_on_c, 9, 42, 0
12, 56160, Note_on_c, 9, 35, 125
12, 56160, Note_on_c, 9, 39, 100
12, 56160, Note_on_c, 9, 40, 100
12, 56160, Note_on_c, 9, 42, 83
12, 56218, Note_on_c, 9, 42, 0
12, 56218, Note_on_c, 9, 35, 0
12, 56218, Note_on_c, 9, 39, 0
12, 56218, Note_on_c, 9, 40, 0
12, 56280, Note_on_c, 9, 42, 62
12, 56338, Note_on_c, 9, 42, 0
12, 56400, Note_on_c, 9, 42, 62
12, 56458, Note_on_c, 9, 42, 0
12, 56520, Note_on_c, 9, 42, 62
12, 56578, Note_on_c, 9, 42, 0
12, 56640, Note_on_c, 9, 35, 125
12, 56640, Note_on_c, 9, 42, 75
12, 56698, Note_on_c, 9, 42, 0
12, 56698, Note_on_c, 9, 35, 0
12, 56760, Note_on_c, 9, 42, 54
12, 56818, Note_on_c, 9, 42, 0
12, 56880, Note_on_c, 9, 42, 54
12, 56938, Note_on_c, 9, 42, 0
12, 57000, Note_on_c, 9, 42, 54
12, 57058, Note_on_c, 9, 42, 0
12, 57120, Note_on_c, 9, 35, 125
12, 57120, Note_on_c, 9, 39, 100
12, 57120, Note_on_c, 9, 40, 100
12, 57120, Note_on_c, 9, 42, 83
12, 57178, Note_on_c, 9, 42, 0
12, 57178, Note_on_c, 9, 35, 0
12, 57178, Note_on_c, 9, 39, 0
12, 57178, Note_on_c, 9, 40, 0
12, 57240, Note_on_c, 9, 42, 62
12, 57298, Note_on_c, 9, 42, 0
12, 57360, Note_on_c, 9, 42, 62
12, 57418, Note_on_c, 9, 42, 0
12, 57480, Note_on_c, 9, 42, 62
12, 57538, Note_on_c, 9, 42, 0
12, 57600, Note_on_c, 9, 35, 125
12, 57600, Note_on_c, 9, 42, 91
12, 57658, Note_on_c, 9, 42, 0
12, 57658, Note_on_c, 9, 35, 0
12, 57720, Note_on_c, 9, 42, 70
12, 57778, Note_on_c, 9, 42, 0
12, 57840, Note_on_c, 9, 42, 70
12, 57898, Note_on_c, 9, 42, 0
12, 57960, Note_on_c, 9, 42, 70
12, 58018, Note_on_c, 9, 42, 0
12, 58080, Note_on_c, 9, 35, 125
12, 58080, Note_on_c, 9, 39, 100
12, 58080, Note_on_c, 9, 40, 100
12, 58080, Note_on_c, 9, 42, 83
12, 58138, Note_on_c, 9, 42, 0
12, 58138, Note_on_c, 9, 35, 0
12, 58138, Note_on_c, 9, 39, 0
12, 58138, Note_on_c, 9, 40, 0
12, 58200, Note_on_c, 9, 42, 62
12, 58258, Note_on_c, 9, 42, 0
12, 58320, Note_on_c, 9, 42, 62
12, 58378, Note_on_c, 9, 42, 0
12, 58440, Note_on_c, 9, 42, 62
12, 58498, Note_on_c, 9, 42, 0
12, 58560, Note_on_c, 9, 35, 125
12, 58560, Note_on_c, 9, 42, 75
12, 58618, Note_on_c, 9, 42, 0
12, 58618, Note_on_c, 9, 35, 0
12, 58680, Note_on_c, 9, 42, 54
12, 58738, Note_on_c, 9, 42, 0
12, 58800, Note_on_c, 9, 42, 54
12, 58858, Note_on_c, 9, 42, 0
12, 58920, Note_on_c, 9, 42, 54
12, 58978, Note_on_c, 9, 42, 0
12, 59040, Note_on_c, 9, 35, 125
12, 59040, Note_on_c, 9, 39, 100
12, 59040, Note_on_c, 9, 40, 100
12, 59040, Note_on_c, 9, 42, 83
12, 59098, Note_on_c, 9, 42, 0
12, 59098, Note_on_c, 9, 35, 0
12, 59098, Note_on_c, 9, 39, 0
12, 59098, Note_on_c, 9, 40, 0
12, 59160, Note_on_c, 9, 42, 62
12, 59218, Note_on_c, 9, 42, 0
12, 59280, Note_on_c, 9, 42, 62
12, 59338, Note_on_c, 9, 42, 0
12, 59400, Note_on_c, 9, 42, 62
12, 59458, Note_on_c, 9, 42, 0
12, 59520, Note_on_c, 9, 35, 125
12, 59520, Note_on_c, 9, 42, 91
12, 59578, Note_on_c, 9, 42, 0
12, 59578, Note_on_c, 9, 35, 0
12, 59640, Note_on_c, 9, 42, 70
12, 59698, Note_on_c, 9, 42, 0
12, 59760, Note_on_c, 9, 42, 70
12, 59818, Note_on_c, 9, 42, 0
12, 59880, Note_on_c, 9, 42, 70
12, 59938, Note_on_c, 9, 42, 0
12, 60000, Note_on_c, 9, 35, 125
12, 60000, Note_on_c, 9, 39, 100
12, 60000, Note_on_c, 9, 40, 100
12, 60000, Note_on_c, 9, 42, 83
12, 60058, Note_on_c, 9, 42, 0
12, 60058, Note_on_c, 9, 35, 0
12, 60058, Note_on_c, 9, 39, 0
12, 60058, Note_on_c, 9, 40, 0
12, 60120, Note_on_c, 9, 42, 62
12, 60178, Note_on_c, 9, 42, 0
12, 60240, Note_on_c, 9, 42, 62
12, 60298, Note_on_c, 9, 42, 0
12, 60360, Note_on_c, 9, 42, 62
12, 60418, Note_on_c, 9, 42, 0
12, 60480, Note_on_c, 9, 35, 125
12, 60480, Note_on_c, 9, 42, 75
12, 60538, Note_on_c, 9, 42, 0
12, 60538, Note_on_c, 9, 35, 0
12, 60600, Note_on_c, 9, 42, 54
12, 60658, Note_on_c, 9, 42, 0
12, 60720, Note_on_c, 9, 42, 54
12, 60778, Note_on_c, 9, 42, 0
12, 60840, Note_on_c, 9, 42, 54
12, 60898, Note_on_c, 9, 42, 0
12, 60960, Note_on_c, 9, 35, 125
12, 60960, Note_on_c, 9, 39, 100
12, 60960, Note_on_c, 9, 40, 100
12, 60960, Note_on_c, 9, 42, 83
12, 61018, Note_on_c, 9, 42, 0
12, 61018, Note_on_c, 9, 35, 0
12, 61018, Note_on_c, 9, 39, 0
12, 61018, Note_on_c, 9, 40, 0
12, 61080, Note_on_c, 9, 42, 62
12, 61138, Note_on_c, 9, 42, 0
12, 61200, Note_on_c, 9, 42, 62
12, 61258, Note_on_c, 9, 42, 0
12, 61320, Note_on_c, 9, 42, 62
12, 61378, Note_on_c, 9, 42, 0
12, 61440, Note_on_c, 9, 35, 125
12, 61440, Note_on_c, 9, 42, 91
12, 61498, Note_on_c, 9, 42, 0
12, 61498, Note_on_c, 9, 35, 0
12, 61560, Note_on_c, 9, 42, 70
12, 61618, Note_on_c, 9, 42, 0
12, 61680, Note_on_c, 9, 42, 70
12, 61738, Note_on_c, 9, 42, 0
12, 61800, Note_on_c, 9, 42, 70
12, 61858, Note_on_c, 9, 42, 0
12, 61920, Note_on_c, 9, 35, 125
12, 61920, Note_on_c, 9, 39, 100
12, 61920, Note_on_c, 9, 40, 100
12, 61920, Note_on_c, 9, 42, 83
12, 61978, Note_on_c, 9, 42, 0
12, 61978, Note_on_c, 9, 35, 0
12, 61978, Note_on_c, 9, 39, 0
12, 61978, Note_on_c, 9, 40, 0
12, 62040, Note_on_c, 9, 42, 62
12, 62098, Note_on_c, 9, 42, 0
12, 62160, Note_on_c, 9, 42, 62
12, 62218, Note_on_c, 9, 42, 0
12, 62280, Note_on_c, 9, 42, 62
12, 62338, Note_on_c, 9, 42, 0
12, 62400, Note_on_c, 9, 35, 125
12, 62400, Note_on_c, 9, 42, 75
12, 62458, Note_on_c, 9, 42, 0
12, 62458, Note_on_c, 9, 35, 0
12, 62520, Note_on_c, 9, 42, 54
12, 62578, Note_on_c, 9, 42, 0
12, 62640, Note_on_c, 9, 42, 54
12, 62698, Note_on_c, 9, 42, 0
12, 62760, Note_on_c, 9, 42, 54
12, 62818, Note_on_c, 9, 42, 0
12, 62880, Note_on_c, 9, 35, 125
12, 62880, Note_on_c, 9, 39, 100
12, 62880, Note_on_c, 9, 40, 100
12, 62880, Note_on_c, 9, 42, 83
12, 62938, Note_on_c, 9, 42, 0
12, 62938, Note_on_c, 9, 35, 0
12, 62938, Note_on_c, 9, 39, 0
12, 62938, Note_on_c, 9, 40, 0
12, 63000, Note_on_c, 9, 42, 62
12, 63058, Note_on_c, 9, 42, 0
12, 63120, Note_on_c, 9, 42, 62
12, 63178, Note_on_c, 9, 42, 0
12, 63240, Note_on_c, 9, 42, 62
12, 63298, Note_on_c, 9, 42, 0
12, 63360, Note_on_c, 9, 35, 125
12, 63360, Note_on_c, 9, 42, 91
12, 63418, Note_on_c, 9, 42, 0
12, 63418, Note_on_c, 9, 35, 0
12, 63480, Note_on_c, 9, 42, 70
12, 63538, Note_on_c, 9, 42, 0
12, 63600, Note_on_c, 9, 42, 70
12, 63658, Note_on_c, 9, 42, 0
12, 63720, Note_on_c, 9, 42, 70
12, 63778, Note_on_c, 9, 42, 0
12, 63840, Note_on_c, 9, 35, 125
12, 63840, Note_on_c, 9, 39, 100
12, 63840, Note_on_c, 9, 40, 100
12, 63840, Note_on_c, 9, 42, 83
12, 63898, Note_on_c, 9, 42, 0
12, 63898, Note_on_c, 9, 35, 0
12, 63898, Note_on_c, 9, 39, 0
12, 63898, Note_on_c, 9, 40, 0
12, 63960, Note_on_c, 9, 42, 62
12, 64018, Note_on_c, 9, 42, 0
12, 64080, Note_on_c, 9, 42, 62
12, 64138, Note_on_c, 9, 42, 0
12, 64200, Note_on_c, 9, 42, 62
12, 64258, Note_on_c, 9, 42, 0
12, 64320, Note_on_c, 9, 35, 125
12, 64320, Note_on_c, 9, 42, 75
12, 64378, Note_on_c, 9, 42, 0
12, 64378, Note_on_c, 9, 35, 0
12, 64440, Note_on_c, 9, 42, 54
12, 64498, Note_on_c, 9, 42, 0
12, 64560, Note_on_c, 9, 42, 54
12, 64618, Note_on_c, 9, 42, 0
12, 64680, Note_on_c, 9, 42, 54
12, 64738, Note_on_c, 9, 42, 0
12, 64800, Note_on_c, 9, 35, 125
12, 64800, Note_on_c, 9, 39, 100
12, 64800, Note_on_c, 9, 40, 100
12, 64800, Note_on_c, 9, 42, 83
12, 64858, Note_on_c, 9, 42, 0
12, 64858, Note_on_c, 9, 35, 0
12, 64858, Note_on_c, 9, 39, 0
12, 64858, Note_on_c, 9, 40, 0
12, 64920, Note_on_c, 9, 42, 62
12, 64978, Note_on_c, 9, 42, 0
12, 65040, Note_on_c, 9, 42, 62
12, 65098, Note_on_c, 9, 42, 0
12, 65160, Note_on_c, 9, 42, 62
12, 65218, Note_on_c, 9, 42, 0
12, 65280, Note_on_c, 9, 35, 125
12, 65280, Note_on_c, 9, 57, 60
12, 65280, Note_on_c, 9, 42, 91
12, 65338, Note_on_c, 9, 42, 0
12, 65338, Note_on_c, 9, 57, 0
12, 65338, Note_on_c, 9, 35, 0
12, 65400, Note_on_c, 9, 42, 70
12, 65458, Note_on_c, 9, 42, 0
12, 65520, Note_on_c, 9, 42, 70
12, 65578, Note_on_c, 9, 42, 0
12, 65640, Note_on_c, 9, 42, 70
12, 65698, Note_on_c, 9, 42, 0
12, 65760, Note_on_c, 9, 35, 125
12, 65760, Note_on_c, 9, 39, 100
12, 65760, Note_on_c, 9, 40, 100
12, 65760, Note_on_c, 9, 42, 83
12, 65818, Note_on_c, 9, 42, 0
12, 65818, Note_on_c, 9, 35, 0
12, 65818, Note_on_c, 9, 39, 0
12, 65818, Note_on_c, 9, 40, 0
12, 65880, Note_on_c, 9, 42, 62
12, 65938, Note_on_c, 9, 42, 0
12, 66000, Note_on_c, 9, 42, 62
12, 66058, Note_on_c, 9, 42, 0
12, 66120, Note_on_c, 9, 42, 62
12, 66178, Note_on_c, 9, 42, 0
12, 66240, Note_on_c, 9, 35, 125
12, 66240, Note_on_c, 9, 42, 75
12, 66298, Note_on_c, 9, 42, 0
12, 66298, Note_on_c, 9, 35, 0
12, 66360, Note_on_c, 9, 42, 54
12, 66418, Note_on_c, 9, 42, 0
12, 66480, Note_on_c, 9, 42, 54
12, 66538, Note_on_c, 9, 42, 0
12, 66600, Note_on_c, 9, 42, 54
12, 66658, Note_on_c, 9, 42, 0
12, 66720, Note_on_c, 9, 35, 125
12, 66720, Note_on_c, 9, 39, 100
12, 66720, Note_on_c, 9, 40, 100
12, 66720, Note_on_c, 9, 42, 83
12, 66778, Note_on_c, 9, 42, 0
12, 66778, Note_on_c, 9, 35, 0
12, 66778, Note_on_c, 9, 39, 0
12, 66778, Note_on_c, 9, 40, 0
12, 66840, Note_on_c, 9, 42, 62
12, 66898, Note_on_c, 9, 42, 0
12, 66960, Note_on_c, 9, 42, 62
12, 67018, Note_on_c, 9, 42, 0
12, 67080, Note_on_c, 9, 42, 62
12, 67138, Note_on_c, 9, 42, 0
12, 67200, Note_on_c, 9, 35, 125
12, 67200, Note_on_c, 9, 42, 91
12, 67258, Note_on_c, 9, 42, 0
12, 67258, Note_on_c, 9, 35, 0
12, 67320, Note_on_c, 9, 42, 70
12, 67378, Note_on_c, 9, 42, 0
12, 67440, Note_on_c, 9, 42, 70
12, 67498, Note_on_c, 9, 42, 0
12, 67560, Note_on_c, 9, 42, 70
12, 67618, Note_on_c, 9, 42, 0
12, 67680, Note_on_c, 9, 35, 125
12, 67680, Note_on_c, 9, 39, 100
12, 67680, Note_on_c, 9, 40, 100
12, 67680, Note_on_c, 9, 42, 83
12, 67738, Note_on_c, 9, 42, 0
12, 67738, Note_on_c, 9, 35, 0
12, 67738, Note_on_c, 9, 39, 0
12, 67738, Note_on_c, 9, 40, 0
12, 67800, Note_on_c, 9, 42, 62
12, 67858, Note_on_c, 9, 42, 0
12, 67920, Note_on_c, 9, 42, 62
12, 67978, Note_on_c, 9, 42, 0
12, 68040, Note_on_c, 9, 42, 62
12, 68098, Note_on_c, 9, 42, 0
12, 68160, Note_on_c, 9, 35, 125
12, 68160, Note_on_c, 9, 42, 75
12, 68218, Note_on_c, 9, 42, 0
12, 68218, Note_on_c, 9, 35, 0
12, 68280, Note_on_c, 9, 42, 54
12, 68338, Note_on_c, 9, 42, 0
12, 68400, Note_on_c, 9, 42, 54
12, 68458, Note_on_c, 9, 42, 0
12, 68520, Note_on_c, 9, 42, 54
12, 68578, Note_on_c, 9, 42, 0
12, 68640, Note_on_c, 9, 35, 125
12, 68640, Note_on_c, 9, 39, 100
12, 68640, Note_on_c, 9, 40, 100
12, 68640, Note_on_c, 9, 42, 83
12, 68698, Note_on_c, 9, 42, 0
12, 68698, Note_on_c, 9, 35, 0
12, 68698, Note_on_c, 9, 39, 0
12, 68698, Note_on_c, 9, 40, 0
12, 68760, Note_on_c, 9, 42, 62
12, 68818, Note_on_c, 9, 42, 0
12, 68880, Note_on_c, 9, 42, 62
12, 68938, Note_on_c, 9, 42, 0
12, 69000, Note_on_c, 9, 42, 62
12, 69058, Note_on_c, 9, 42, 0
12, 69120, Note_on_c, 9, 35, 125
12, 69120, Note_on_c, 9, 42, 91
12, 69178, Note_on_c, 9, 42, 0
12, 69178, Note_on_c, 9, 35, 0
12, 69240, Note_on_c, 9, 42, 70
12, 69298, Note_on_c, 9, 42, 0
12, 69360, Note_on_c, 9, 42, 70
12, 69418, Note_on_c, 9, 42, 0
12, 69480, Note_on_c, 9, 42, 70
12, 69538, Note_on_c, 9, 42, 0
12, 69600, Note_on_c, 9, 35, 125
12, 69600, Note_on_c, 9, 39, 100
12, 69600, Note_on_c, 9, 40, 100
12, 69600, Note_on_c, 9, 42, 83
12, 69658, Note_on_c, 9, 42, 0
12, 69658, Note_on_c, 9, 35, 0
12, 69658, Note_on_c, 9, 39, 0
12, 69658, Note_on_c, 9, 40, 0
12, 69720, Note_on_c, 9, 42, 62
12, 69778, Note_on_c, 9, 42, 0
12, 69840, Note_on_c, 9, 42, 62
12, 69898, Note_on_c, 9, 42, 0
12, 69960, Note_on_c, 9, 42, 62
12, 70018, Note_on_c, 9, 42, 0
12, 70080, Note_on_c, 9, 35, 125
12, 70080, Note_on_c, 9, 42, 75
12, 70138, Note_on_c, 9, 42, 0
12, 70138, Note_on_c, 9, 35, 0
12, 70200, Note_on_c, 9, 42, 54
12, 70258, Note_on_c, 9, 42, 0
12, 70320, Note_on_c, 9, 42, 54
12, 70378, Note_on_c, 9, 42, 0
12, 70440, Note_on_c, 9, 42, 54
12, 70498, Note_on_c, 9, 42, 0
12, 70560, Note_on_c, 9, 35, 125
12, 70560, Note_on_c, 9, 39, 100
12, 70560, Note_on_c, 9, 40, 100
12, 70560, Note_on_c, 9, 42, 83
12, 70618, Note_on_c, 9, 42, 0
12, 70618, Note_on_c, 9, 35, 0
12, 70618, Note_on_c, 9, 39, 0
12, 70618, Note_on_c, 9, 40, 0
12, 70680, Note_on_c, 9, 42, 62
12, 70738, Note_on_c, 9, 42, 0
12, 70800, Note_on_c, 9, 42, 62
12, 70858, Note_on_c, 9, 42, 0
12, 70920, Note_on_c, 9, 42, 62
12, 70978, Note_on_c, 9, 42, 0
12, 71040, Note_on_c, 9, 35, 125
12, 71040, Note_on_c, 9, 42, 91
12, 71098, Note_on_c, 9, 42, 0
12, 71098, Note_on_c, 9, 35, 0
12, 71160, Note_on_c, 9, 42, 70
12, 71218, Note_on_c, 9, 42, 0
12, 71280, Note_on_c, 9, 42, 70
12, 71338, Note_on_c, 9, 42, 0
12, 71400, Note_on_c, 9, 42, 70
12, 71458, Note_on_c, 9, 42, 0
12, 71520, Note_on_c, 9, 35, 125
12, 71520, Note_on_c, 9, 39, 100
12, 71520, Note_on_c, 9, 40, 100
12, 71520, Note_on_c, 9, 42, 83
12, 71578, Note_on_c, 9, 42, 0
12, 71578, Note_on_c, 9, 35, 0
12, 71578, Note_on_c, 9, 39, 0
12, 71578, Note_on_c, 9, 40, 0
12, 71640, Note_on_c, 9, 42, 62
12, 71698, Note_on_c, 9, 42, 0
12, 71760, Note_on_c, 9, 42, 62
12, 71818, Note_on_c, 9, 42, 0
12, 71880, Note_on_c, 9, 42, 62
12, 71938, Note_on_c, 9, 42, 0
12, 72000, Note_on_c, 9, 35, 125
12, 72000, Note_on_c, 9, 42, 75
12, 72058, Note_on_c, 9, 42, 0
12, 72058, Note_on_c, 9, 35, 0
12, 72120, Note_on_c, 9, 42, 54
12, 72178, Note_on_c, 9, 42, 0
12, 72240, Note_on_c, 9, 42, 54
12, 72298, Note_on_c, 9, 42, 0
12, 72360, Note_on_c, 9, 42, 54
12, 72418, Note_on_c, 9, 42, 0
12, 72480, Note_on_c, 9, 35, 125
12, 72480, Note_on_c, 9, 39, 100
12, 72480, Note_on_c, 9, 40, 100
12, 72480, Note_on_c, 9, 42, 83
12, 72538, Note_on_c, 9, 42, 0
12, 72538, Note_on_c, 9, 35, 0
12, 72538, Note_on_c, 9, 39, 0
12, 72538, Note_on_c, 9, 40, 0
12, 72600, Note_on_c, 9, 42, 62
12, 72658, Note_on_c, 9, 42, 0
12, 72720, Note_on_c, 9, 42, 62
12, 72778, Note_on_c, 9, 42, 0
12, 72840, Note_on_c, 9, 42, 62
12, 72898, Note_on_c, 9, 42, 0
12, 72960, Note_on_c, 9, 35, 125
12, 72960, Note_on_c, 9, 42, 91
12, 73018, Note_on_c, 9, 42, 0
12, 73018, Note_on_c, 9, 35, 0
12, 73440, Note_on_c, 9, 35, 125
12, 73440, Note_on_c, 9, 39, 100
12, 73440, Note_on_c, 9, 40, 100
12, 73440, Note_on_c, 9, 42, 83
12, 73498, Note_on_c, 9, 42, 0
12, 73498, Note_on_c, 9, 35, 0
12, 73498, Note_on_c, 9, 39, 0
12, 73498, Note_on_c, 9, 40, 0
12, 73920, Note_on_c, 9, 35, 125
12, 73920, Note_on_c, 9, 42, 75
12, 73978, Note_on_c, 9, 42, 0
12, 73978, Note_on_c, 9, 35, 0
12, 74400, Note_on_c, 9, 35, 125
12, 74400, Note_on_c, 9, 39, 100
12, 74400, Note_on_c, 9, 40, 100
12, 74400, Note_on_c, 9, 42, 83
12, 74458, Note_on_c, 9, 42, 0
12, 74458, Note_on_c, 9, 35, 0
12, 74458, Note_on_c, 9, 39, 0
12, 74458, Note_on_c, 9, 40, 0
12, 74880, Note_on_c, 9, 35, 125
12, 74880, Note_on_c, 9, 42, 91
12, 74938, Note_on_c, 9, 42, 0
12, 74938, Note_on_c, 9, 35, 0
12, 75360, Note_on_c, 9, 35, 125
12, 75360, Note_on_c, 9, 39, 100
12, 75360, Note_on_c, 9, 40, 100
12, 75360, Note_on_c, 9, 42, 83
12, 75418, Note_on_c, 9, 42, 0
12, 75418, Note_on_c, 9, 35, 0
12, 75418, Note_on_c, 9, 39, 0
12, 75418, Note_on_c, 9, 40, 0
12, 75840, Note_on_c, 9, 35, 125
12, 75840, Note_on_c, 9, 42, 75
12, 75898, Note_on_c, 9, 42, 0
12, 75898, Note_on_c, 9, 35, 0
12, 76320, Note_on_c, 9, 35, 125
12, 76320, Note_on_c, 9, 39, 100
12, 76320, Note_on_c, 9, 40, 100
12, 76320, Note_on_c, 9, 42, 83
12, 76378, Note_on_c, 9, 42, 0
12, 76378, Note_on_c, 9, 35, 0
12, 76378, Note_on_c, 9, 39, 0
12, 76378, Note_on_c, 9, 40, 0
12, 76800, Note_on_c, 9, 35, 125
12, 76800, Note_on_c, 9, 42, 91
12, 76858, Note_on_c, 9, 42, 0
12, 76858, Note_on_c, 9, 35, 0
12, 77280, Note_on_c, 9, 35, 125
12, 77280, Note_on_c, 9, 39, 100
12, 77280, Note_on_c, 9, 40, 100
12, 77280, Note_on_c, 9, 42, 83
12, 77338, Note_on_c, 9, 42, 0
12, 77338, Note_on_c, 9, 35, 0
12, 77338, Note_on_c, 9, 39, 0
12, 77338, Note_on_c, 9, 40, 0
12, 77760, Note_on_c, 9, 35, 125
12, 77760, Note_on_c, 9, 42, 75
12, 77818, Note_on_c, 9, 42, 0
12, 77818, Note_on_c, 9, 35, 0
12, 78240, Note_on_c, 9, 35, 125
12, 78240, Note_on_c, 9, 39, 100
12, 78240, Note_on_c, 9, 40, 100
12, 78240, Note_on_c, 9, 42, 83
12, 78298, Note_on_c, 9, 42, 0
12, 78298, Note_on_c, 9, 35, 0
12, 78298, Note_on_c, 9, 39, 0
12, 78298, Note_on_c, 9, 40, 0
12, 78720, Note_on_c, 9, 35, 125
12, 78720, Note_on_c, 9, 42, 91
12, 78778, Note_on_c, 9, 42, 0
12, 78778, Note_on_c, 9, 35, 0
12, 79200, Note_on_c, 9, 35, 125
12, 79200, Note_on_c, 9, 39, 100
12, 79200, Note_on_c, 9, 40, 100
12, 79200, Note_on_c, 9, 42, 83
12, 79258, Note_on_c, 9, 42, 0
12, 79258, Note_on_c, 9, 35, 0
12, 79258, Note_on_c, 9, 39, 0
12, 79258, Note_on_c, 9, 40, 0
12, 79680, Note_on_c, 9, 35, 125
12, 79680, Note_on_c, 9, 42, 75
12, 79738, Note_on_c, 9, 42, 0
12, 79738, Note_on_c, 9, 35, 0
12, 80160, Note_on_c, 9, 35, 125
12, 80160, Note_on_c, 9, 39, 100
12, 80160, Note_on_c, 9, 40, 100
12, 80160, Note_on_c, 9, 42, 83
12, 80218, Note_on_c, 9, 42, 0
12, 80218, Note_on_c, 9, 35, 0
12, 80218, Note_on_c, 9, 39, 0
12, 80218, Note_on_c, 9, 40, 0
12, 80640, Note_on_c, 9, 35, 125
12, 80640, Note_on_c, 9, 42, 91
12, 80698, Note_on_c, 9, 42, 0
12, 80698, Note_on_c, 9, 35, 0
12, 81120, Note_on_c, 9, 35, 125
12, 81120, Note_on_c, 9, 39, 100
12, 81120, Note_on_c, 9, 40, 100
12, 81120, Note_on_c, 9, 42, 83
12, 81178, Note_on_c, 9, 42, 0
12, 81178, Note_on_c, 9, 35, 0
12, 81178, Note_on_c, 9, 39, 0
12, 81178, Note_on_c, 9, 40, 0
12, 81600, Note_on_c, 9, 35, 125
12, 81600, Note_on_c, 9, 42, 75
12, 81658, Note_on_c, 9, 42, 0
12, 81658, Note_on_c, 9, 35, 0
12, 82080, Note_on_c, 9, 35, 125
12, 82080, Note_on_c, 9, 39, 100
12, 82080, Note_on_c, 9, 40, 100
12, 82080, Note_on_c, 9, 42, 83
12, 82138, Note_on_c, 9, 42, 0
12, 82138, Note_on_c, 9, 35, 0
12, 82138, Note_on_c, 9, 39, 0
12, 82138, Note_on_c, 9, 40, 0
12, 82560, Note_on_c, 9, 35, 125
12, 82560, Note_on_c, 9, 42, 91
12, 82618, Note_on_c, 9, 42, 0
12, 82618, Note_on_c, 9, 35, 0
12, 83040, Note_on_c, 9, 35, 125
12, 83040, Note_on_c, 9, 39, 100
12, 83040, Note_on_c, 9, 40, 100
12, 83040, Note_on_c, 9, 42, 83
12, 83098, Note_on_c, 9, 42, 0
12, 83098, Note_on_c, 9, 35, 0
12, 83098, Note_on_c, 9, 39, 0
12, 83098, Note_on_c, 9, 40, 0
12, 83520, Note_on_c, 9, 35, 125
12, 83520, Note_on_c, 9, 42, 75
12, 83578, Note_on_c, 9, 42, 0
12, 83578, Note_on_c, 9, 35, 0
12, 84000, Note_on_c, 9, 35, 125
12, 84000, Note_on_c, 9, 39, 100
12, 84000, Note_on_c, 9, 40, 100
12, 84000, Note_on_c, 9, 42, 83
12, 84058, Note_on_c, 9, 42, 0
12, 84058, Note_on_c, 9, 35, 0
12, 84058, Note_on_c, 9, 39, 0
12, 84058, Note_on_c, 9, 40, 0
12, 84480, Note_on_c, 9, 35, 125
12, 84480, Note_on_c, 9, 42, 91
12, 84538, Note_on_c, 9, 42, 0
12, 84538, Note_on_c, 9, 35, 0
12, 84960, Note_on_c, 9, 35, 125
12, 84960, Note_on_c, 9, 39, 100
12, 84960, Note_on_c, 9, 40, 100
12, 84960, Note_on_c, 9, 42, 83
12, 85018, Note_on_c, 9, 42, 0
12, 85018, Note_on_c, 9, 35, 0
12, 85018, Note_on_c, 9, 39, 0
12, 85018, Note_on_c, 9, 40, 0
12, 85440, Note_on_c, 9, 35, 125
12, 85440, Note_on_c, 9, 42, 75
12, 85498, Note_on_c, 9, 42, 0
12, 85498, Note_on_c, 9, 35, 0
12, 85920, Note_on_c, 9, 35, 125
12, 85920, Note_on_c, 9, 39, 100
12, 85920, Note_on_c, 9, 40, 100
12, 85920, Note_on_c, 9, 42, 83
12, 85978, Note_on_c, 9, 42, 0
12, 85978, Note_on_c, 9, 35, 0
12, 85978, Note_on_c, 9, 39, 0
12, 85978, Note_on_c, 9, 40, 0
12, 88320, Note_on_c, 9, 35, 125
12, 88320, Note_on_c, 9, 42, 91
12, 88378, Note_on_c, 9, 42, 0
12, 88378, Note_on_c, 9, 35, 0
12, 88800, Note_on_c, 9, 35, 125
12, 88800, Note_on_c, 9, 39, 100
12, 88800, Note_on_c, 9, 40, 100
12, 88800, Note_on_c, 9, 42, 83
12, 88858, Note_on_c, 9, 42, 0
12, 88858, Note_on_c, 9, 35, 0
12, 88858, Note_on_c, 9, 39, 0
12, 88858, Note_on_c, 9, 40, 0
12, 89280, Note_on_c, 9, 35, 125
12, 89280, Note_on_c, 9, 42, 75
12, 89338, Note_on_c, 9, 42, 0
12, 89338, Note_on_c, 9, 35, 0
12, 89760, Note_on_c, 9, 35, 125
12, 89760, Note_on_c, 9, 39, 100
12, 89760, Note_on_c, 9, 40, 100
12, 89760, Note_on_c, 9, 42, 83
12, 89818, Note_on_c, 9, 42, 0
12, 89818, Note_on_c, 9, 35, 0
12, 89818, Note_on_c, 9, 39, 0
12, 89818, Note_on_c, 9, 40, 0
12, 90240, Note_on_c, 9, 35, 125
12, 90240, Note_on_c, 9, 42, 91
12, 90298, Note_on_c, 9, 42, 0
12, 90298, Note_on_c, 9, 35, 0
12, 90720, Note_on_c, 9, 35, 125
12, 90720, Note_on_c, 9, 39, 100
12, 90720, Note_on_c, 9, 40, 100
12, 90720, Note_on_c, 9, 42, 83
12, 90778, Note_on_c, 9, 42, 0
12, 90778, Note_on_c, 9, 35, 0
12, 90778, Note_on_c, 9, 39, 0
12, 90778, Note_on_c, 9, 40, 0
12, 91200, Note_on_c, 9, 35, 125
12, 91200, Note_on_c, 9, 42, 75
12, 91258, Note_on_c, 9, 42, 0
12, 91258, Note_on_c, 9, 35, 0
12, 91680, Note_on_c, 9, 35, 125
12, 91680, Note_on_c, 9, 39, 100
12, 91680, Note_on_c, 9, 40, 100
12, 91680, Note_on_c, 9, 42, 83
12, 91738, Note_on_c, 9, 42, 0
12, 91738, Note_on_c, 9, 35, 0
12, 91738, Note_on_c, 9, 39, 0
12, 91738, Note_on_c, 9, 40, 0
12, 92160, Note_on_c, 9, 35, 125
12, 92160, Note_on_c, 9, 42, 91
12, 92218, Note_on_c, 9, 42, 0
12, 92218, Note_on_c, 9, 35, 0
12, 92640, Note_on_c, 9, 35, 125
12, 92640, Note_on_c, 9, 39, 100
12, 92640, Note_on_c, 9, 40, 100
12, 92640, Note_on_c, 9, 42, 83
12, 92698, Note_on_c, 9, 42, 0
12, 92698, Note_on_c, 9, 35, 0
12, 92698, Note_on_c, 9, 39, 0
12, 92698, Note_on_c, 9, 40, 0
12, 93120, Note_on_c, 9, 35, 125
12, 93120, Note_on_c, 9, 42, 75
12, 93178, Note_on_c, 9, 42, 0
12, 93178, Note_on_c, 9, 35, 0
12, 93600, Note_on_c, 9, 35, 125
12, 93600, Note_on_c, 9, 39, 100
12, 93600, Note_on_c, 9, 40, 100
12, 93600, Note_on_c, 9, 42, 83
12, 93658, Note_on_c, 9, 42, 0
12, 93658, Note_on_c, 9, 35, 0
12, 93658, Note_on_c, 9, 39, 0
12, 93658, Note_on_c, 9, 40, 0
12, 94080, Note_on_c, 9, 35, 125
12, 94080, Note_on_c, 9, 42, 91
12, 94138, Note_on_c, 9, 42, 0
12, 94138, Note_on_c, 9, 35, 0
12, 94560, Note_on_c, 9, 35, 125
12, 94560, Note_on_c, 9, 39, 100
12, 94560, Note_on_c, 9, 40, 100
12, 94560, Note_on_c, 9, 42, 83
12, 94618, Note_on_c, 9, 42, 0
12, 94618, Note_on_c, 9, 35, 0
12, 94618, Note_on_c, 9, 39, 0
12, 94618, Note_on_c, 9, 40, 0
12, 95040, Note_on_c, 9, 35, 125
12, 95040, Note_on_c, 9, 42, 75
12, 95098, Note_on_c, 9, 42, 0
12, 95098, Note_on_c, 9, 35, 0
12, 95520, Note_on_c, 9, 35, 125
12, 95520, Note_on_c, 9, 39, 100
12, 95520, Note_on_c, 9, 40, 100
12, 95520, Note_on_c, 9, 42, 83
12, 95578, Note_on_c, 9, 42, 0
12, 95578, Note_on_c, 9, 35, 0
12, 95578, Note_on_c, 9, 39, 0
12, 95578, Note_on_c, 9, 40, 0
12, 96000, Note_on_c, 9, 35, 125
12, 96000, Note_on_c, 9, 42, 91
12, 96058, Note_on_c, 9, 42, 0
12, 96058, Note_on_c, 9, 35, 0
12, 96480, Note_on_c, 9, 35, 125
12, 96480, Note_on_c, 9, 39, 100
12, 96480, Note_on_c, 9, 40, 100
12, 96480, Note_on_c, 9, 42, 83
12, 96538, Note_on_c, 9, 42, 0
12, 96538, Note_on_c, 9, 35, 0
12, 96538, Note_on_c, 9, 39, 0
12, 96538, Note_on_c, 9, 40, 0
12, 96960, Note_on_c, 9, 35, 125
12, 96960, Note_on_c, 9, 42, 75
12, 97018, Note_on_c, 9, 42, 0
12, 97018, Note_on_c, 9, 35, 0
12, 97440, Note_on_c, 9, 35, 125
12, 97440, Note_on_c, 9, 39, 100
12, 97440, Note_on_c, 9, 40, 100
12, 97440, Note_on_c, 9, 42, 83
12, 97498, Note_on_c, 9, 42, 0
12, 97498, Note_on_c, 9, 35, 0
12, 97498, Note_on_c, 9, 39, 0
12, 97498, Note_on_c, 9, 40, 0
12, 97920, Note_on_c, 9, 35, 125
12, 97920, Note_on_c, 9, 42, 91
12, 97978, Note_on_c, 9, 42, 0
12, 97978, Note_on_c, 9, 35, 0
12, 98400, Note_on_c, 9, 35, 125
12, 98400, Note_on_c, 9, 39, 100
12, 98400, Note_on_c, 9, 40, 100
12, 98400, Note_on_c, 9, 42, 83
12, 98458, Note_on_c, 9, 42, 0
12, 98458, Note_on_c, 9, 35, 0
12, 98458, Note_on_c, 9, 39, 0
12, 98458, Note_on_c, 9, 40, 0
12, 98880, Note_on_c, 9, 35, 125
12, 98880, Note_on_c, 9, 42, 75
12, 98938, Note_on_c, 9, 42, 0
12, 98938, Note_on_c, 9, 35, 0
12, 99360, Note_on_c, 9, 35, 125
12, 99360, Note_on_c, 9, 39, 100
12, 99360, Note_on_c, 9, 40, 100
12, 99360, Note_on_c, 9, 42, 83
12, 99418, Note_on_c, 9, 42, 0
12, 99418, Note_on_c, 9, 35, 0
12, 99418, Note_on_c, 9, 39, 0
12, 99418, Note_on_c, 9, 40, 0
12, 99840, Note_on_c, 9, 35, 125
12, 99840, Note_on_c, 9, 42, 91
12, 99898, Note_on_c, 9, 42, 0
12, 99898, Note_on_c, 9, 35, 0
12, 100320, Note_on_c, 9, 35, 125
12, 100320, Note_on_c, 9, 39, 100
12, 100320, Note_on_c, 9, 40, 100
12, 100320, Note_on_c, 9, 42, 83
12, 100378, Note_on_c, 9, 42, 0
12, 100378, Note_on_c, 9, 35, 0
12, 100378, Note_on_c, 9, 39, 0
12, 100378, Note_on_c, 9, 40, 0
12, 100800, Note_on_c, 9, 35, 125
12, 100800, Note_on_c, 9, 42, 75
12, 100858, Note_on_c, 9, 42, 0
12, 100858, Note_on_c, 9, 35, 0
12, 101280, Note_on_c, 9, 35, 125
12, 101280, Note_on_c, 9, 39, 100
12, 101280, Note_on_c, 9, 40, 100
12, 101280, Note_on_c, 9, 42, 83
12, 101338, Note_on_c, 9, 42, 0
12, 101338, Note_on_c, 9, 35, 0
12, 101338, Note_on_c, 9, 39, 0
12, 101338, Note_on_c, 9, 40, 0
12, 101760, Note_on_c, 9, 35, 125
12, 101760, Note_on_c, 9, 42, 91
12, 101818, Note_on_c, 9, 42, 0
12, 101818, Note_on_c, 9, 35, 0
12, 102240, Note_on_c, 9, 35, 125
12, 102240, Note_on_c, 9, 42, 83
12, 102298, Note_on_c, 9, 42, 0
12, 102298, Note_on_c, 9, 35, 0
12, 102720, Note_on_c, 9, 35, 125
12, 102720, Note_on_c, 9, 42, 75
12, 102778, Note_on_c, 9, 42, 0
12, 102778, Note_on_c, 9, 35, 0
12, 103200, Note_on_c, 9, 35, 125
12, 103200, Note_on_c, 9, 39, 100
12, 103200, Note_on_c, 9, 40, 100
12, 103200, Note_on_c, 9, 42, 83
12, 103258, Note_on_c, 9, 42, 0
12, 103258, Note_on_c, 9, 35, 0
12, 103258, Note_on_c, 9, 39, 0
12, 103258, Note_on_c, 9, 40, 0
12, 103680, Note_on_c, 9, 35, 125
12, 103680, Note_on_c, 9, 57, 60
12, 103680, Note_on_c, 9, 42, 91
12, 103738, Note_on_c, 9, 42, 0
12, 103738, Note_on_c, 9, 57, 0
12, 103738, Note_on_c, 9, 35, 0
12, 103800, Note_on_c, 9, 42, 70
12, 103858, Note_on_c, 9, 42, 0
12, 103920, Note_on_c, 9, 42, 70
12, 103978, Note_on_c, 9, 42, 0
12, 104040, Note_on_c, 9, 42, 70
12, 104098, Note_on_c, 9, 42, 0
12, 104160, Note_on_c, 9, 35, 125
12, 104160, Note_on_c, 9, 39, 100
12, 104160, Note_on_c, 9, 40, 100
12, 104160, Note_on_c, 9, 42, 83
12, 104218, Note_on_c, 9, 42, 0
12, 104218, Note_on_c, 9, 35, 0
12, 104218, Note_on_c, 9, 39, 0
12, 104218, Note_on_c, 9, 40, 0
12, 104280, Note_on_c, 9, 42, 62
12, 104338, Note_on_c, 9, 42, 0
12, 104400, Note_on_c, 9, 42, 62
12, 104458, Note_on_c, 9, 42, 0
12, 104520, Note_on_c, 9, 42, 62
12, 104578, Note_on_c, 9, 42, 0
12, 104640, Note_on_c, 9, 35, 125
12, 104640, Note_on_c, 9, 42, 75
12, 104698, Note_on_c, 9, 42, 0
12, 104698, Note_on_c, 9, 35, 0
12, 104760, Note_on_c, 9, 42, 54
12, 104818, Note_on_c, 9, 42, 0
12, 104880, Note_on_c, 9, 42, 54
12, 104938, Note_on_c, 9, 42, 0
12, 105000, Note_on_c, 9, 42, 54
12, 105058, Note_on_c, 9, 42, 0
12, 105120, Note_on_c, 9, 35, 125
12, 105120, Note_on_c, 9, 39, 100
12, 105120, Note_on_c, 9, 40, 100
12, 105120, Note_on_c, 9, 42, 83
12, 105178, Note_on_c, 9, 42, 0
12, 105178, Note_on_c, 9, 35, 0
12, 105178, Note_on_c, 9, 39, 0
12, 105178, Note_on_c, 9, 40, 0
12, 105240, Note_on_c, 9, 42, 62
12, 105298, Note_on_c, 9, 42, 0
12, 105360, Note_on_c, 9, 42, 62
12, 105418, Note_on_c, 9, 42, 0
12, 105480, Note_on_c, 9, 42, 62
12, 105538, Note_on_c, 9, 42, 0
12, 105600, Note_on_c, 9, 35, 125
12, 105600, Note_on_c, 9, 42, 91
12, 105658, Note_on_c, 9, 42, 0
12, 105658, Note_on_c, 9, 35, 0
12, 105720, Note_on_c, 9, 42, 70
12, 105778, Note_on_c, 9, 42, 0
12, 105840, Note_on_c, 9, 42, 70
12, 105898, Note_on_c, 9, 42, 0
12, 105960, Note_on_c, 9, 42, 70
12, 106018, Note_on_c, 9, 42, 0
12, 106080, Note_on_c, 9, 35, 125
12, 106080, Note_on_c, 9, 39, 100
12, 106080, Note_on_c, 9, 40, 100
12, 106080, Note_on_c, 9, 42, 83
12, 106138, Note_on_c, 9, 42, 0
12, 106138, Note_on_c, 9, 35, 0
12, 106138, Note_on_c, 9, 39, 0
12, 106138, Note_on_c, 9, 40, 0
12, 106200, Note_on_c, 9, 42, 62
12, 106258, Note_on_c, 9, 42, 0
12, 106320, Note_on_c, 9, 42, 62
12, 106378, Note_on_c, 9, 42, 0
12, 106440, Note_on_c, 9, 42, 62
12, 106498, Note_on_c, 9, 42, 0
12, 106560, Note_on_c, 9, 35, 125
12, 106560, Note_on_c, 9, 42, 75
12, 106618, Note_on_c, 9, 42, 0
12, 106618, Note_on_c, 9, 35, 0
12, 106680, Note_on_c, 9, 42, 54
12, 106738, Note_on_c, 9, 42, 0
12, 106800, Note_on_c, 9, 42, 54
12, 106858, Note_on_c, 9, 42, 0
12, 106920, Note_on_c, 9, 42, 54
12, 106978, Note_on_c, 9, 42, 0
12, 107040, Note_on_c, 9, 35, 125
12, 107040, Note_on_c, 9, 39, 100
12, 107040, Note_on_c, 9, 40, 100
12, 107040, Note_on_c, 9, 42, 83
12, 107098, Note_on_c, 9, 42, 0
12, 107098, Note_on_c, 9, 35, 0
12, 107098, Note_on_c, 9, 39, 0
12, 107098, Note_on_c, 9, 40, 0
12, 107160, Note_on_c, 9, 42, 62
12, 107218, Note_on_c, 9, 42, 0
12, 107280, Note_on_c, 9, 42, 62
12, 107338, Note_on_c, 9, 42, 0
12, 107400, Note_on_c, 9, 42, 62
12, 107458, Note_on_c, 9, 42, 0
12, 107520, Note_on_c, 9, 35, 125
12, 107520, Note_on_c, 9, 42, 91
12, 107578, Note_on_c, 9, 42, 0
12, 107578, Note_on_c, 9, 35, 0
12, 107640, Note_on_c, 9, 42, 70
12, 107698, Note_on_c, 9, 42, 0
12, 107760, Note_on_c, 9, 42, 70
12, 107818, Note_on_c, 9, 42, 0
12, 107880, Note_on_c, 9, 42, 70
12, 107938, Note_on_c, 9, 42, 0
12, 108000, Note_on_c, 9, 35, 125
12, 108000, Note_on_c, 9, 39, 100
12, 108000, Note_on_c, 9, 40, 100
12, 108000, Note_on_c, 9, 42, 83
12, 108058, Note_on_c, 9, 42, 0
12, 108058, Note_on_c, 9, 35, 0
12, 108058, Note_on_c, 9, 39, 0
12, 108058, Note_on_c, 9, 40, 0
12, 108120, Note_on_c, 9, 42, 62
12, 108178, Note_on_c, 9, 42, 0
12, 108240, Note_on_c, 9, 42, 62
12, 108298, Note_on_c, 9, 42, 0
12, 108360, Note_on_c, 9, 42, 62
12, 108418, Note_on_c, 9, 42, 0
12, 108480, Note_on_c, 9, 35, 125
12, 108480, Note_on_c, 9, 42, 75
12, 108538, Note_on_c, 9, 42, 0
12, 108538, Note_on_c, 9, 35, 0
12, 108600, Note_on_c, 9, 42, 54
12, 108658, Note_on_c, 9, 42, 0
12, 108720, Note_on_c, 9, 42, 54
12, 108778, Note_on_c, 9, 42, 0
12, 108840, Note_on_c, 9, 42, 54
12, 108898, Note_on_c, 9, 42, 0
12, 108960, Note_on_c, 9, 35, 125
12, 108960, Note_on_c, 9, 39, 100
12, 108960, Note_on_c, 9, 40, 100
12, 108960, Note_on_c, 9, 42, 83
12, 109018, Note_on_c, 9, 42, 0
12, 109018, Note_on_c, 9, 35, 0
12, 109018, Note_on_c, 9, 39, 0
12, 109018, Note_on_c, 9, 40, 0
12, 109080, Note_on_c, 9, 42, 62
12, 109138, Note_on_c, 9, 42, 0
12, 109200, Note_on_c, 9, 42, 62
12, 109258, Note_on_c, 9, 42, 0
12, 109320, Note_on_c, 9, 42, 62
12, 109378, Note_on_c, 9, 42, 0
12, 109440, Note_on_c, 9, 35, 125
12, 109440, Note_on_c, 9, 42, 91
12, 109498, Note_on_c, 9, 42, 0
12, 109498, Note_on_c, 9, 35, 0
12, 109560, Note_on_c, 9, 42, 70
12, 109618, Note_on_c, 9, 42, 0
12, 109680, Note_on_c, 9, 42, 70
12, 109738, Note_on_c, 9, 42, 0
12, 109800, Note_on_c, 9, 42, 70
12, 109858, Note_on_c, 9, 42, 0
12, 109920, Note_on_c, 9, 35, 125
12, 109920, Note_on_c, 9, 39, 100
12, 109920, Note_on_c, 9, 40, 100
12, 109920, Note_on_c, 9, 42, 83
12, 109978, Note_on_c, 9, 42, 0
12, 109978, Note_on_c, 9, 35, 0
12, 109978, Note_on_c, 9, 39, 0
12, 109978, Note_on_c, 9, 40, 0
12, 110040, Note_on_c, 9, 42, 62
12, 110098, Note_on_c, 9, 42, 0
12, 110160, Note_on_c, 9, 42, 62
12, 110218, Note_on_c, 9, 42, 0
12, 110280, Note_on_c, 9, 42, 62
12, 110338, Note_on_c, 9, 42, 0
12, 110400, Note_on_c, 9, 35, 125
12, 110400, Note_on_c, 9, 42, 75
12, 110458, Note_on_c, 9, 42, 0
12, 110458, Note_on_c, 9, 35, 0
12, 110520, Note_on_c, 9, 42, 54
12, 110578, Note_on_c, 9, 42, 0
12, 110640, Note_on_c, 9, 42, 54
12, 110698, Note_on_c, 9, 42, 0
12, 110760, Note_on_c, 9, 42, 54
12, 110818, Note_on_c, 9, 42, 0
12, 110880, Note_on_c, 9, 35, 125
12, 110880, Note_on_c, 9, 39, 100
12, 110880, Note_on_c, 9, 40, 100
12, 110880, Note_on_c, 9, 42, 83
12, 110938, Note_on_c, 9, 42, 0
12, 110938, Note_on_c, 9, 35, 0
12, 110938, Note_on_c, 9, 39, 0
12, 110938, Note_on_c, 9, 40, 0
12, 111000, Note_on_c, 9, 42, 62
12, 111058, Note_on_c, 9, 42, 0
12, 111120, Note_on_c, 9, 42, 62
12, 111178, Note_on_c, 9, 42, 0
12, 111240, Note_on_c, 9, 42, 62
12, 111298, Note_on_c, 9, 42, 0
12, 111360, Note_on_c, 9, 35, 125
12, 111360, Note_on_c, 9, 42, 91
12, 111418, Note_on_c, 9, 42, 0
12, 111418, Note_on_c, 9, 35, 0
12, 111480, Note_on_c, 9, 42, 70
12, 111538, Note_on_c, 9, 42, 0
12, 111600, Note_on_c, 9, 42, 70
12, 111658, Note_on_c, 9, 42, 0
12, 111720, Note_on_c, 9, 42, 70
12, 111778, Note_on_c, 9, 42, 0
12, 111840, Note_on_c, 9, 35, 125
12, 111840, Note_on_c, 9, 39, 100
12, 111840, Note_on_c, 9, 40, 100
12, 111840, Note_on_c, 9, 42, 83
12, 111898, Note_on_c, 9, 42, 0
12, 111898, Note_on_c, 9, 35, 0
12, 111898, Note_on_c, 9, 39, 0
12, 111898, Note_on_c, 9, 40, 0
12, 111960, Note_on_c, 9, 42, 62
12, 112018, Note_on_c, 9, 42, 0
12, 112080, Note_on_c, 9, 42, 62
12, 112138, Note_on_c, 9, 42, 0
12, 112200, Note_on_c, 9, 42, 62
12, 112258, Note_on_c, 9, 42, 0
12, 112320, Note_on_c, 9, 35, 125
12, 112320, Note_on_c, 9, 42, 75
12, 112378, Note_on_c, 9, 42, 0
12, 112378, Note_on_c, 9, 35, 0
12, 112440, Note_on_c, 9, 42, 54
12, 112498, Note_on_c, 9, 42, 0
12, 112560, Note_on_c, 9, 42, 54
12, 112618, Note_on_c, 9, 42, 0
12, 112680, Note_on_c, 9, 42, 54
12, 112738, Note_on_c, 9, 42, 0
12, 112800, Note_on_c, 9, 35, 125
12, 112800, Note_on_c, 9, 39, 100
12, 112800, Note_on_c, 9, 40, 100
12, 112800, Note_on_c, 9, 42, 83
12, 112858, Note_on_c, 9, 42, 0
12, 112858, Note_on_c, 9, 35, 0
12, 112858, Note_on_c, 9, 39, 0
12, 112858, Note_on_c, 9, 40, 0
12, 112920, Note_on_c, 9, 42, 62
12, 112978, Note_on_c, 9, 42, 0
12, 113040, Note_on_c, 9, 42, 62
12, 113098, Note_on_c, 9, 42, 0
12, 113160, Note_on_c, 9, 42, 62
12, 113218, Note_on_c, 9, 42, 0
12, 113280, Note_on_c, 9, 35, 125
12, 113280, Note_on_c, 9, 42, 91
12, 113338, Note_on_c, 9, 42, 0
12, 113338, Note_on_c, 9, 35, 0
12, 113400, Note_on_c, 9, 42, 70
12, 113458, Note_on_c, 9, 42, 0
12, 113520, Note_on_c, 9, 42, 70
12, 113578, Note_on_c, 9, 42, 0
12, 113640, Note_on_c, 9, 42, 70
12, 113698, Note_on_c, 9, 42, 0
12, 113760, Note_on_c, 9, 35, 125
12, 113760, Note_on_c, 9, 39, 100
12, 113760, Note_on_c, 9, 40, 100
12, 113760, Note_on_c, 9, 42, 83
12, 113818, Note_on_c, 9, 42, 0
12, 113818, Note_on_c, 9, 35, 0
12, 113818, Note_on_c, 9, 39, 0
12, 113818, Note_on_c, 9, 40, 0
12, 113880, Note_on_c, 9, 42, 62
12, 113938, Note_on_c, 9, 42, 0
12, 114000, Note_on_c, 9, 42, 62
12, 114058, Note_on_c, 9, 42, 0
12, 114120, Note_on_c, 9, 42, 62
12, 114178, Note_on_c, 9, 42, 0
12, 114240, Note_on_c, 9, 35, 125
12, 114240, Note_on_c, 9, 42, 75
12, 114298, Note_on_c, 9, 42, 0
12, 114298, Note_on_c, 9, 35, 0
12, 114360, Note_on_c, 9, 42, 54
12, 114418, Note_on_c, 9, 42, 0
12, 114480, Note_on_c, 9, 42, 54
12, 114538, Note_on_c, 9, 42, 0
12, 114600, Note_on_c, 9, 42, 54
12, 114658, Note_on_c, 9, 42, 0
12, 114720, Note_on_c, 9, 35, 125
12, 114720, Note_on_c, 9, 39, 100
12, 114720, Note_on_c, 9, 40, 100
12, 114720, Note_on_c, 9, 42, 83
12, 114778, Note_on_c, 9, 42, 0
12, 114778, Note_on_c, 9, 35, 0
12, 114778, Note_on_c, 9, 39, 0
12, 114778, Note_on_c, 9, 40, 0
12, 114840, Note_on_c, 9, 42, 62
12, 114898, Note_on_c, 9, 42, 0
12, 114960, Note_on_c, 9, 42, 62
12, 115018, Note_on_c, 9, 42, 0
12, 115080, Note_on_c, 9, 42, 62
12, 115138, Note_on_c, 9, 42, 0
12, 115200, Note_on_c, 9, 35, 125
12, 115200, Note_on_c, 9, 42, 91
12, 115258, Note_on_c, 9, 42, 0
12, 115258, Note_on_c, 9, 35, 0
12, 115320, Note_on_c, 9, 42, 70
12, 115378, Note_on_c, 9, 42, 0
12, 115440, Note_on_c, 9, 42, 70
12, 115498, Note_on_c, 9, 42, 0
12, 115560, Note_on_c, 9, 42, 70
12, 115618, Note_on_c, 9, 42, 0
12, 115680, Note_on_c, 9, 35, 125
12, 115680, Note_on_c, 9, 39, 100
12, 115680, Note_on_c, 9, 40, 100
12, 115680, Note_on_c, 9, 42, 83
12, 115738, Note_on_c, 9, 42, 0
12, 115738, Note_on_c, 9, 35, 0
12, 115738, Note_on_c, 9, 39, 0
12, 115738, Note_on_c, 9, 40, 0
12, 115800, Note_on_c, 9, 42, 62
12, 115858, Note_on_c, 9, 42, 0
12, 115920, Note_on_c, 9, 42, 62
12, 115978, Note_on_c, 9, 42, 0
12, 116040, Note_on_c, 9, 42, 62
12, 116098, Note_on_c, 9, 42, 0
12, 116160, Note_on_c, 9, 35, 125
12, 116160, Note_on_c, 9, 42, 75
12, 116218, Note_on_c, 9, 42, 0
12, 116218, Note_on_c, 9, 35, 0
12, 116280, Note_on_c, 9, 42, 54
12, 116338, Note_on_c, 9, 42, 0
12, 116400, Note_on_c, 9, 42, 54
12, 116458, Note_on_c, 9, 42, 0
12, 116520, Note_on_c, 9, 42, 54
12, 116578, Note_on_c, 9, 42, 0
12, 116640, Note_on_c, 9, 35, 125
12, 116640, Note_on_c, 9, 39, 100
12, 116640, Note_on_c, 9, 40, 100
12, 116640, Note_on_c, 9, 42, 83
12, 116698, Note_on_c, 9, 42, 0
12, 116698, Note_on_c, 9, 35, 0
12, 116698, Note_on_c, 9, 39, 0
12, 116698, Note_on_c, 9, 40, 0
12, 116760, Note_on_c, 9, 42, 62
12, 116818, Note_on_c, 9, 42, 0
12, 116880, Note_on_c, 9, 42, 62
12, 116938, Note_on_c, 9, 42, 0
12, 117000, Note_on_c, 9, 42, 62
12, 117058, Note_on_c, 9, 42, 0
12, 117120, Note_on_c, 9, 35, 125
12, 117120, Note_on_c, 9, 42, 91
12, 117178, Note_on_c, 9, 42, 0
12, 117178, Note_on_c, 9, 35, 0
12, 117240, Note_on_c, 9, 42, 70
12, 117298, Note_on_c, 9, 42, 0
12, 117360, Note_on_c, 9, 42, 70
12, 117418, Note_on_c, 9, 42, 0
12, 117480, Note_on_c, 9, 42, 70
12, 117538, Note_on_c, 9, 42, 0
12, 117600, Note_on_c, 9, 35, 125
12, 117600, Note_on_c, 9, 39, 100
12, 117600, Note_on_c, 9, 40, 100
12, 117600, Note_on_c, 9, 42, 83
12, 117658, Note_on_c, 9, 42, 0
12, 117658, Note_on_c, 9, 35, 0
12, 117658, Note_on_c, 9, 39, 0
12, 117658, Note_on_c, 9, 40, 0
12, 117720, Note_on_c, 9, 42, 62
12, 117778, Note_on_c, 9, 42, 0
12, 117840, Note_on_c, 9, 42, 62
12, 117898, Note_on_c, 9, 42, 0
12, 117960, Note_on_c, 9, 42, 62
12, 118018, Note_on_c, 9, 42, 0
12, 118080, Note_on_c, 9, 35, 125
12, 118080, Note_on_c, 9, 42, 75
12, 118138, Note_on_c, 9, 42, 0
12, 118138, Note_on_c, 9, 35, 0
12, 118200, Note_on_c, 9, 42, 54
12, 118258, Note_on_c, 9, 42, 0
12, 118320, Note_on_c, 9, 42, 54
12, 118378, Note_on_c, 9, 42, 0
12, 118440, Note_on_c, 9, 42, 54
12, 118498, Note_on_c, 9, 42, 0
12, 118560, Note_on_c, 9, 35, 125
12, 118560, Note_on_c, 9, 39, 100
12, 118560, Note_on_c, 9, 40, 100
12, 118560, Note_on_c, 9, 42, 83
12, 118618, Note_on_c, 9, 42, 0
12, 118618, Note_on_c, 9, 35, 0
12, 118618, Note_on_c, 9, 39, 0
12, 118618, Note_on_c, 9, 40, 0
12, 118680, Note_on_c, 9, 42, 62
12, 118738, Note_on_c, 9, 42, 0
12, 118800, Note_on_c, 9, 42, 62
12, 118858, Note_on_c, 9, 42, 0
12, 118920, Note_on_c, 9, 42, 62
12, 118978, Note_on_c, 9, 42, 0
12, 119040, Note_on_c, 9, 35, 125
12, 119040, Note_on_c, 9, 57, 60
12, 119040, Note_on_c, 9, 42, 91
12, 119098, Note_on_c, 9, 42, 0
12, 119098, Note_on_c, 9, 57, 0
12, 119098, Note_on_c, 9, 35, 0
12, 119160, Note_on_c, 9, 42, 70
12, 119218, Note_on_c, 9, 42, 0
12, 119280, Note_on_c, 9, 42, 70
12, 119338, Note_on_c, 9, 42, 0
12, 119400, Note_on_c, 9, 42, 70
12, 119458, Note_on_c, 9, 42, 0
12, 119520, Note_on_c, 9, 35, 125
12, 119520, Note_on_c, 9, 39, 100
12, 119520, Note_on_c, 9, 40, 100
12, 119520, Note_on_c, 9, 42, 83
12, 119578, Note_on_c, 9, 42, 0
12, 119578, Note_on_c, 9, 35, 0
12, 119578, Note_on_c, 9, 39, 0
12, 119578, Note_on_c, 9, 40, 0
12, 119640, Note_on_c, 9, 42, 62
12, 119698, Note_on_c, 9, 42, 0
12, 119760, Note_on_c, 9, 42, 62
12, 119818, Note_on_c, 9, 42, 0
12, 119880, Note_on_c, 9, 42, 62
12, 119938, Note_on_c, 9, 42, 0
12, 120000, Note_on_c, 9, 35, 125
12, 120000, Note_on_c, 9, 42, 75
12, 120058, Note_on_c, 9, 42, 0
12, 120058, Note_on_c, 9, 35, 0
12, 120120, Note_on_c, 9, 42, 54
12, 120178, Note_on_c, 9, 42, 0
12, 120240, Note_on_c, 9, 42, 54
12, 120298, Note_on_c, 9, 42, 0
12, 120360, Note_on_c, 9, 42, 54
12, 120418, Note_on_c, 9, 42, 0
12, 120480, Note_on_c, 9, 35, 125
12, 120480, Note_on_c, 9, 39, 100
12, 120480, Note_on_c, 9, 40, 100
12, 120480, Note_on_c, 9, 42, 83
12, 120538, Note_on_c, 9, 42, 0
12, 120538, Note_on_c, 9, 35, 0
12, 120538, Note_on_c, 9, 39, 0
12, 120538, Note_on_c, 9, 40, 0
12, 120600, Note_on_c, 9, 42, 62
12, 120658, Note_on_c, 9, 42, 0
12, 120720, Note_on_c, 9, 42, 62
12, 120778, Note_on_c, 9, 42, 0
12, 120840, Note_on_c, 9, 42, 62
12, 120898, Note_on_c, 9, 42, 0
12, 120960, Note_on_c, 9, 35, 125
12, 120960, Note_on_c, 9, 42, 91
12, 121018, Note_on_c, 9, 42, 0
12, 121018, Note_on_c, 9, 35, 0
12, 121080, Note_on_c, 9, 42, 70
12, 121138, Note_on_c, 9, 42, 0
12, 121200, Note_on_c, 9, 42, 70
12, 121258, Note_on_c, 9, 42, 0
12, 121320, Note_on_c, 9, 42, 70
12, 121378, Note_on_c, 9, 42, 0
12, 121440, Note_on_c, 9, 35, 125
12, 121440, Note_on_c, 9, 39, 100
12, 121440, Note_on_c, 9, 40, 100
12, 121440, Note_on_c, 9, 42, 83
12, 121498, Note_on_c, 9, 42, 0
12, 121498, Note_on_c, 9, 35, 0
12, 121498, Note_on_c, 9, 39, 0
12, 121498, Note_on_c, 9, 40, 0
12, 121560, Note_on_c, 9, 42, 62
12, 121618, Note_on_c, 9, 42, 0
12, 121680, Note_on_c, 9, 42, 62
12, 121738, Note_on_c, 9, 42, 0
12, 121800, Note_on_c, 9, 42, 62
12, 121858, Note_on_c, 9, 42, 0
12, 121920, Note_on_c, 9, 35, 125
12, 121920, Note_on_c, 9, 42, 75
12, 121978, Note_on_c, 9, 42, 0
12, 121978, Note_on_c, 9, 35, 0
12, 122040, Note_on_c, 9, 42, 54
12, 122098, Note_on_c, 9, 42, 0
12, 122160, Note_on_c, 9, 42, 54
12, 122218, Note_on_c, 9, 42, 0
12, 122280, Note_on_c, 9, 42, 54
12, 122338, Note_on_c, 9, 42, 0
12, 122400, Note_on_c, 9, 35, 125
12, 122400, Note_on_c, 9, 39, 100
12, 122400, Note_on_c, 9, 40, 100
12, 122400, Note_on_c, 9, 42, 83
12, 122458, Note_on_c, 9, 42, 0
12, 122458, Note_on_c, 9, 35, 0
12, 122458, Note_on_c, 9, 39, 0
12, 122458, Note_on_c, 9, 40, 0
12, 122520, Note_on_c, 9, 42, 62
12, 122578, Note_on_c, 9, 42, 0
12, 122640, Note_on_c, 9, 42, 62
12, 122698, Note_on_c, 9, 42, 0
12, 122760, Note_on_c, 9, 42, 62
12, 122818, Note_on_c, 9, 42, 0
12, 122880, Note_on_c, 9, 35, 125
12, 122880, Note_on_c, 9, 42, 91
12, 122938, Note_on_c, 9, 42, 0
12, 122938, Note_on_c, 9, 35, 0
12, 123000, Note_on_c, 9, 42, 70
12, 123058, Note_on_c, 9, 42, 0
12, 123120, Note_on_c, 9, 42, 70
12, 123178, Note_on_c, 9, 42, 0
12, 123240, Note_on_c, 9, 42, 70
12, 123298, Note_on_c, 9, 42, 0
12, 123360, Note_on_c, 9, 35, 125
12, 123360, Note_on_c, 9, 39, 100
12, 123360, Note_on_c, 9, 40, 100
12, 123360, Note_on_c, 9, 42, 83
12, 123418, Note_on_c, 9, 42, 0
12, 123418, Note_on_c, 9, 35, 0
12, 123418, Note_on_c, 9, 39, 0
12, 123418, Note_on_c, 9, 40, 0
12, 123480, Note_on_c, 9, 42, 62
12, 123538, Note_on_c, 9, 42, 0
12, 123600, Note_on_c, 9, 42, 62
12, 123658, Note_on_c, 9, 42, 0
12, 123720, Note_on_c, 9, 42, 62
12, 123778, Note_on_c, 9, 42, 0
12, 123840, Note_on_c, 9, 35, 125
12, 123840, Note_on_c, 9, 42, 75
12, 123898, Note_on_c, 9, 42, 0
12, 123898, Note_on_c, 9, 35, 0
12, 123960, Note_on_c, 9, 42, 54
12, 124018, Note_on_c, 9, 42, 0
12, 124080, Note_on_c, 9, 42, 54
12, 124138, Note_on_c, 9, 42, 0
12, 124200, Note_on_c, 9, 42, 54
12, 124258, Note_on_c, 9, 42, 0
12, 124320, Note_on_c, 9, 35, 125
12, 124320, Note_on_c, 9, 39, 100
12, 124320, Note_on_c, 9, 40, 100
12, 124320, Note_on_c, 9, 42, 83
12, 124378, Note_on_c, 9, 42, 0
12, 124378, Note_on_c, 9, 35, 0
12, 124378, Note_on_c, 9, 39, 0
12, 124378, Note_on_c, 9, 40, 0
12, 124440, Note_on_c, 9, 42, 62
12, 124498, Note_on_c, 9, 42, 0
12, 124560, Note_on_c, 9, 42, 62
12, 124618, Note_on_c, 9, 42, 0
12, 124680, Note_on_c, 9, 42, 62
12, 124738, Note_on_c, 9, 42, 0
12, 124800, Note_on_c, 9, 35, 125
12, 124800, Note_on_c, 9, 42, 91
12, 124858, Note_on_c, 9, 42, 0
12, 124858, Note_on_c, 9, 35, 0
12, 124920, Note_on_c, 9, 42, 70
12, 124978, Note_on_c, 9, 42, 0
12, 125040, Note_on_c, 9, 42, 70
12, 125098, Note_on_c, 9, 42, 0
12, 125160, Note_on_c, 9, 42, 70
12, 125218, Note_on_c, 9, 42, 0
12, 125280, Note_on_c, 9, 35, 125
12, 125280, Note_on_c, 9, 39, 100
12, 125280, Note_on_c, 9, 40, 100
12, 125280, Note_on_c, 9, 42, 83
12, 125338, Note_on_c, 9, 42, 0
12, 125338, Note_on_c, 9, 35, 0
12, 125338, Note_on_c, 9, 39, 0
12, 125338, Note_on_c, 9, 40, 0
12, 125400, Note_on_c, 9, 42, 62
12, 125458, Note_on_c, 9, 42, 0
12, 125520, Note_on_c, 9, 42, 62
12, 125578, Note_on_c, 9, 42, 0
12, 125640, Note_on_c, 9, 42, 62
12, 125698, Note_on_c, 9, 42, 0
12, 125760, Note_on_c, 9, 35, 125
12, 125760, Note_on_c, 9, 42, 75
12, 125818, Note_on_c, 9, 42, 0
12, 125818, Note_on_c, 9, 35, 0
12, 125880, Note_on_c, 9, 42, 54
12, 125938, Note_on_c, 9, 42, 0
12, 126000, Note_on_c, 9, 42, 54
12, 126058, Note_on_c, 9, 42, 0
12, 126120, Note_on_c, 9, 42, 54
12, 126178, Note_on_c, 9, 42, 0
12, 126240, Note_on_c, 9, 35, 125
12, 126240, Note_on_c, 9, 39, 100
12, 126240, Note_on_c, 9, 40, 100
12, 126240, Note_on_c, 9, 42, 83
12, 126298, Note_on_c, 9, 42, 0
12, 126298, Note_on_c, 9, 35, 0
12, 126298, Note_on_c, 9, 39, 0
12, 126298, Note_on_c, 9, 40, 0
12, 126360, Note_on_c, 9, 42, 62
12, 126418, Note_on_c, 9, 42, 0
12, 126480, Note_on_c, 9, 42, 62
12, 126538, Note_on_c, 9, 42, 0
12, 126600, Note_on_c, 9, 42, 62
12, 126658, Note_on_c, 9, 42, 0
12, 126720, Note_on_c, 9, 35, 125
12, 126720, Note_on_c, 9, 42, 91
12, 126778, Note_on_c, 9, 42, 0
12, 126778, Note_on_c, 9, 35, 0
12, 126840, Note_on_c, 9, 42, 70
12, 126898, Note_on_c, 9, 42, 0
12, 126960, Note_on_c, 9, 42, 70
12, 127018, Note_on_c, 9, 42, 0
12, 127080, Note_on_c, 9, 42, 70
12, 127138, Note_on_c, 9, 42, 0
12, 127200, Note_on_c, 9, 35, 125
12, 127200, Note_on_c, 9, 39, 100
12, 127200, Note_on_c, 9, 40, 100
12, 127200, Note_on_c, 9, 42, 83
12, 127258, Note_on_c, 9, 42, 0
12, 127258, Note_on_c, 9, 35, 0
12, 127258, Note_on_c, 9, 39, 0
12, 127258, Note_on_c, 9, 40, 0
12, 127320, Note_on_c, 9, 42, 62
12, 127378, Note_on_c, 9, 42, 0
12, 127440, Note_on_c, 9, 42, 62
12, 127498, Note_on_c, 9, 42, 0
12, 127560, Note_on_c, 9, 42, 62
12, 127618, Note_on_c, 9, 42, 0
12, 127680, Note_on_c, 9, 35, 125
12, 127680, Note_on_c, 9, 42, 75
12, 127738, Note_on_c, 9, 42, 0
12, 127738, Note_on_c, 9, 35, 0
12, 127800, Note_on_c, 9, 42, 54
12, 127858, Note_on_c, 9, 42, 0
12, 127920, Note_on_c, 9, 42, 54
12, 127978, Note_on_c, 9, 42, 0
12, 128040, Note_on_c, 9, 42, 54
12, 128098, Note_on_c, 9, 42, 0
12, 128160, Note_on_c, 9, 35, 125
12, 128160, Note_on_c, 9, 39, 100
12, 128160, Note_on_c, 9, 40, 100
12, 128160, Note_on_c, 9, 42, 83
12, 128218, Note_on_c, 9, 42, 0
12, 128218, Note_on_c, 9, 35, 0
12, 128218, Note_on_c, 9, 39, 0
12, 128218, Note_on_c, 9, 40, 0
12, 128280, Note_on_c, 9, 42, 62
12, 128338, Note_on_c, 9, 42, 0
12, 128400, Note_on_c, 9, 42, 62
12, 128458, Note_on_c, 9, 42, 0
12, 128520, Note_on_c, 9, 42, 62
12, 128578, Note_on_c, 9, 42, 0
12, 128640, Note_on_c, 9, 35, 125
12, 128640, Note_on_c, 9, 42, 91
12, 128698, Note_on_c, 9, 42, 0
12, 128698, Note_on_c, 9, 35, 0
12, 128760, Note_on_c, 9, 42, 70
12, 128818, Note_on_c, 9, 42, 0
12, 128880, Note_on_c, 9, 42, 70
12, 128938, Note_on_c, 9, 42, 0
12, 129000, Note_on_c, 9, 42, 70
12, 129058, Note_on_c, 9, 42, 0
12, 129120, Note_on_c, 9, 35, 125
12, 129120, Note_on_c, 9, 39, 100
12, 129120, Note_on_c, 9, 40, 100
12, 129120, Note_on_c, 9, 42, 83
12, 129178, Note_on_c, 9, 42, 0
12, 129178, Note_on_c, 9, 35, 0
12, 129178, Note_on_c, 9, 39, 0
12, 129178, Note_on_c, 9, 40, 0
12, 129240, Note_on_c, 9, 42, 62
12, 129298, Note_on_c, 9, 42, 0
12, 129360, Note_on_c, 9, 42, 62
12, 129418, Note_on_c, 9, 42, 0
12, 129480, Note_on_c, 9, 42, 62
12, 129538, Note_on_c, 9, 42, 0
12, 129600, Note_on_c, 9, 35, 125
12, 129600, Note_on_c, 9, 42, 75
12, 129658, Note_on_c, 9, 42, 0
12, 129658, Note_on_c, 9, 35, 0
12, 129720, Note_on_c, 9, 42, 54
12, 129778, Note_on_c, 9, 42, 0
12, 129840, Note_on_c, 9, 42, 54
12, 129898, Note_on_c, 9, 42, 0
12, 129960, Note_on_c, 9, 42, 54
12, 130018, Note_on_c, 9, 42, 0
12, 130080, Note_on_c, 9, 35, 125
12, 130080, Note_on_c, 9, 39, 100
12, 130080, Note_on_c, 9, 40, 100
12, 130080, Note_on_c, 9, 42, 83
12, 130138, Note_on_c, 9, 42, 0
12, 130138, Note_on_c, 9, 35, 0
12, 130138, Note_on_c, 9, 39, 0
12, 130138, Note_on_c, 9, 40, 0
12, 130200, Note_on_c, 9, 42, 62
12, 130258, Note_on_c, 9, 42, 0
12, 130320, Note_on_c, 9, 42, 62
12, 130378, Note_on_c, 9, 42, 0
12, 130440, Note_on_c, 9, 42, 62
12, 130498, Note_on_c, 9, 42, 0
12, 130560, Note_on_c, 9, 35, 125
12, 130560, Note_on_c, 9, 42, 91
12, 130618, Note_on_c, 9, 42, 0
12, 130618, Note_on_c, 9, 35, 0
12, 130680, Note_on_c, 9, 42, 70
12, 130738, Note_on_c, 9, 42, 0
12, 130800, Note_on_c, 9, 42, 70
12, 130858, Note_on_c, 9, 42, 0
12, 130920, Note_on_c, 9, 42, 70
12, 130978, Note_on_c, 9, 42, 0
12, 131040, Note_on_c, 9, 35, 125
12, 131040, Note_on_c, 9, 39, 100
12, 131040, Note_on_c, 9, 40, 100
12, 131040, Note_on_c, 9, 42, 83
12, 131098, Note_on_c, 9, 42, 0
12, 131098, Note_on_c, 9, 35, 0
12, 131098, Note_on_c, 9, 39, 0
12, 131098, Note_on_c, 9, 40, 0
12, 131160, Note_on_c, 9, 42, 62
12, 131218, Note_on_c, 9, 42, 0
12, 131280, Note_on_c, 9, 42, 62
12, 131338, Note_on_c, 9, 42, 0
12, 131400, Note_on_c, 9, 42, 62
12, 131458, Note_on_c, 9, 42, 0
12, 131520, Note_on_c, 9, 35, 125
12, 131520, Note_on_c, 9, 42, 75
12, 131578, Note_on_c, 9, 42, 0
12, 131578, Note_on_c, 9, 35, 0
12, 131640, Note_on_c, 9, 42, 54
12, 131698, Note_on_c, 9, 42, 0
12, 131760, Note_on_c, 9, 42, 54
12, 131818, Note_on_c, 9, 42, 0
12, 131880, Note_on_c, 9, 42, 54
12, 131938, Note_on_c, 9, 42, 0
12, 132000, Note_on_c, 9, 35, 125
12, 132000, Note_on_c, 9, 39, 100
12, 132000, Note_on_c, 9, 40, 100
12, 132000, Note_on_c, 9, 42, 83
12, 132058, Note_on_c, 9, 42, 0
12, 132058, Note_on_c, 9, 35, 0
12, 132058, Note_on_c, 9, 39, 0
12, 132058, Note_on_c, 9, 40, 0
12, 132120, Note_on_c, 9, 42, 62
12, 132178, Note_on_c, 9, 42, 0
12, 132240, Note_on_c, 9, 42, 62
12, 132298, Note_on_c, 9, 42, 0
12, 132360, Note_on_c, 9, 42, 62
12, 132418, Note_on_c, 9, 42, 0
12, 132480, Note_on_c, 9, 35, 125
12, 132480, Note_on_c, 9, 42, 91
12, 132538, Note_on_c, 9, 42, 0
12, 132538, Note_on_c, 9, 35, 0
12, 132600, Note_on_c, 9, 42, 70
12, 132658, Note_on_c, 9, 42, 0
12, 132720, Note_on_c, 9, 42, 70
12, 132778, Note_on_c, 9, 42, 0
12, 132840, Note_on_c, 9, 42, 70
12, 132898, Note_on_c, 9, 42, 0
12, 132960, Note_on_c, 9, 35, 125
12, 132960, Note_on_c, 9, 39, 100
12, 132960, Note_on_c, 9, 40, 100
12, 132960, Note_on_c, 9, 42, 83
12, 133018, Note_on_c, 9, 42, 0
12, 133018, Note_on_c, 9, 35, 0
12, 133018, Note_on_c, 9, 39, 0
12, 133018, Note_on_c, 9, 40, 0
12, 133080, Note_on_c, 9, 42, 62
12, 133138, Note_on_c, 9, 42, 0
12, 133200, Note_on_c, 9, 42, 62
12, 133258, Note_on_c, 9, 42, 0
12, 133320, Note_on_c, 9, 42, 62
12, 133378, Note_on_c, 9, 42, 0
12, 133440, Note_on_c, 9, 35, 125
12, 133440, Note_on_c, 9, 42, 75
12, 133498, Note_on_c, 9, 42, 0
12, 133498, Note_on_c, 9, 35, 0
12, 133560, Note_on_c, 9, 42, 54
12, 133618, Note_on_c, 9, 42, 0
12, 133680, Note_on_c, 9, 42, 54
12, 133738, Note_on_c, 9, 42, 0
12, 133800, Note_on_c, 9, 42, 54
12, 133858, Note_on_c, 9, 42, 0
12, 133920, Note_on_c, 9, 35, 125
12, 133920, Note_on_c, 9, 39, 100
12, 133920, Note_on_c, 9, 40, 100
12, 133920, Note_on_c, 9, 42, 83
12, 133978, Note_on_c, 9, 42, 0
12, 133978, Note_on_c, 9, 35, 0
12, 133978, Note_on_c, 9, 39, 0
12, 133978, Note_on_c, 9, 40, 0
12, 134040, Note_on_c, 9, 42, 62
12, 134098, Note_on_c, 9, 42, 0
12, 134160, Note_on_c, 9, 42, 62
12, 134218, Note_on_c, 9, 42, 0
12, 134280, Note_on_c, 9, 42, 62
12, 134338, Note_on_c, 9, 42, 0
12, 134400, Note_on_c, 9, 35, 125
12, 134400, Note_on_c, 9, 42, 91
12, 134400, Note_on_c, 9, 57, 60
12, 134458, Note_on_c, 9, 57, 0
12, 134458, Note_on_c, 9, 42, 0
12, 134458, Note_on_c, 9, 35, 0
12, 134520, Note_on_c, 9, 42, 70
12, 134578, Note_on_c, 9, 42, 0
12, 134640, Note_on_c, 9, 42, 70
12, 134698, Note_on_c, 9, 42, 0
12, 134760, Note_on_c, 9, 42, 70
12, 134818, Note_on_c, 9, 42, 0
12, 134880, Note_on_c, 9, 42, 83
12, 134938, Note_on_c, 9, 42, 0
12, 135000, Note_on_c, 9, 42, 62
12, 135058, Note_on_c, 9, 42, 0
12, 135120, Note_on_c, 9, 42, 62
12, 135178, Note_on_c, 9, 42, 0
12, 135240, Note_on_c, 9, 42, 62
12, 135298, Note_on_c, 9, 42, 0
12, 135360, Note_on_c, 9, 39, 100
12, 135360, Note_on_c, 9, 40, 100
12, 135360, Note_on_c, 9, 42, 75
12, 135418, Note_on_c, 9, 42, 0
12, 135418, Note_on_c, 9, 40, 0
12, 135418, Note_on_c, 9, 39, 0
12, 135480, Note_on_c, 9, 42, 54
12, 135538, Note_on_c, 9, 42, 0
12, 135600, Note_on_c, 9, 42, 54
12, 135658, Note_on_c, 9, 42, 0
12, 135720, Note_on_c, 9, 42, 54
12, 135778, Note_on_c, 9, 42, 0
12, 135840, Note_on_c, 9, 42, 83
12, 135898, Note_on_c, 9, 42, 0
12, 135960, Note_on_c, 9, 42, 62
12, 136018, Note_on_c, 9, 42, 0
12, 136080, Note_on_c, 9, 42, 62
12, 136138, Note_on_c, 9, 42, 0
12, 136200, Note_on_c, 9, 42, 62
12, 136258, Note_on_c, 9, 42, 0
12, 136320, Note_on_c, 9, 42, 91
12, 136378, Note_on_c, 9, 42, 0
12, 136440, Note_on_c, 9, 42, 70
12, 136498, Note_on_c, 9, 42, 0
12, 136560, Note_on_c, 9, 42, 70
12, 136560, Note_on_c, 9, 35, 125
12, 136618, Note_on_c, 9, 35, 0
12, 136618, Note_on_c, 9, 42, 0
12, 136680, Note_on_c, 9, 42, 70
12, 136680, Note_on_c, 9, 35, 125
12, 136738, Note_on_c, 9, 35, 0
12, 136738, Note_on_c, 9, 42, 0
12, 136800, Note_on_c, 9, 42, 83
12, 136858, Note_on_c, 9, 42, 0
12, 136920, Note_on_c, 9, 42, 62
12, 136920, Note_on_c, 9, 35, 125
12, 136978, Note_on_c, 9, 35, 0
12, 136978, Note_on_c, 9, 42, 0
12, 137040, Note_on_c, 9, 42, 62
12, 137040, Note_on_c, 9, 35, 125
12, 137098, Note_on_c, 9, 35, 0
12, 137098, Note_on_c, 9, 42, 0
12, 137160, Note_on_c, 9, 42, 62
12, 137218, Note_on_c, 9, 42, 0
12, 137280, Note_on_c, 9, 39, 100
12, 137280, Note_on_c, 9, 40, 100
12, 137280, Note_on_c, 9, 42, 75
12, 137338, Note_on_c, 9, 42, 0
12, 137338, Note_on_c, 9, 40, 0
12, 137338, Note_on_c, 9, 39, 0
12, 137400, Note_on_c, 9, 42, 54
12, 137458, Note_on_c, 9, 42, 0
12, 137520, Note_on_c, 9, 42, 54
12, 137578, Note_on_c, 9, 42, 0
12, 137640, Note_on_c, 9, 42, 54
12, 137698, Note_on_c, 9, 42, 0
12, 137760, Note_on_c, 9, 42, 83
12, 137818, Note_on_c, 9, 42, 0
12, 137880, Note_on_c, 9, 42, 62
12, 137938, Note_on_c, 9, 42, 0
12, 138000, Note_on_c, 9, 42, 62
12, 138058, Note_on_c, 9, 42, 0
12, 138120, Note_on_c, 9, 42, 62
12, 138178, Note_on_c, 9, 42, 0
12, 138240, Note_on_c, 9, 35, 125
12, 138240, Note_on_c, 9, 42, 91
12, 138298, Note_on_c, 9, 42, 0
12, 138298, Note_on_c, 9, 35, 0
12, 138360, Note_on_c, 9, 42, 70
12, 138418, Note_on_c, 9, 42, 0
12, 138480, Note_on_c, 9, 42, 70
12, 138480, Note_on_c, 9, 35, 125
12, 138538, Note_on_c, 9, 35, 0
12, 138538, Note_on_c, 9, 42, 0
12, 138600, Note_on_c, 9, 42, 70
12, 138658, Note_on_c, 9, 42, 0
12, 138720, Note_on_c, 9, 35, 125
12, 138720, Note_on_c, 9, 42, 83
12, 138778, Note_on_c, 9, 42, 0
12, 138778, Note_on_c, 9, 35, 0
12, 138840, Note_on_c, 9, 42, 62
12, 138898, Note_on_c, 9, 42, 0
12, 138960, Note_on_c, 9, 42, 62
12, 139018, Note_on_c, 9, 42, 0
12, 139080, Note_on_c, 9, 42, 62
12, 139138, Note_on_c, 9, 42, 0
12, 139200, Note_on_c, 9, 39, 100
12, 139200, Note_on_c, 9, 40, 100
12, 139200, Note_on_c, 9, 42, 75
12, 139258, Note_on_c, 9, 42, 0
12, 139258, Note_on_c, 9, 40, 0
12, 139258, Note_on_c, 9, 39, 0
12, 139320, Note_on_c, 9, 42, 54
12, 139378, Note_on_c, 9, 42, 0
12, 139440, Note_on_c, 9, 42, 54
12, 139498, Note_on_c, 9, 42, 0
12, 139560, Note_on_c, 9, 42, 54
12, 139618, Note_on_c, 9, 42, 0
12, 139680, Note_on_c, 9, 42, 83
12, 139738, Note_on_c, 9, 42, 0
12, 139800, Note_on_c, 9, 42, 62
12, 139858, Note_on_c, 9, 42, 0
12, 139920, Note_on_c, 9, 42, 62
12, 139978, Note_on_c, 9, 42, 0
12, 140040, Note_on_c, 9, 42, 62
12, 140098, Note_on_c, 9, 42, 0
12, 140160, Note_on_c, 9, 42, 91
12, 140218, Note_on_c, 9, 42, 0
12, 140280, Note_on_c, 9, 42, 70
12, 140338, Note_on_c, 9, 42, 0
12, 140400, Note_on_c, 9, 42, 70
12, 140400, Note_on_c, 9, 35, 125
12, 140458, Note_on_c, 9, 35, 0
12, 140458, Note_on_c, 9, 42, 0
12, 140520, Note_on_c, 9, 42, 70
12, 140520, Note_on_c, 9, 35, 125
12, 140578, Note_on_c, 9, 35, 0
12, 140578, Note_on_c, 9, 42, 0
12, 140640, Note_on_c, 9, 42, 83
12, 140698, Note_on_c, 9, 42, 0
12, 140760, Note_on_c, 9, 42, 62
12, 140760, Note_on_c, 9, 35, 125
12, 140818, Note_on_c, 9, 35, 0
12, 140818, Note_on_c, 9, 42, 0
12, 140880, Note_on_c, 9, 42, 62
12, 140880, Note_on_c, 9, 35, 125
12, 140938, Note_on_c, 9, 35, 0
12, 140938, Note_on_c, 9, 42, 0
12, 141000, Note_on_c, 9, 42, 62
12, 141058, Note_on_c, 9, 42, 0
12, 141120, Note_on_c, 9, 39, 100
12, 141120, Note_on_c, 9, 40, 100
12, 141120, Note_on_c, 9, 42, 75
12, 141178, Note_on_c, 9, 42, 0
12, 141178, Note_on_c, 9, 40, 0
12, 141178, Note_on_c, 9, 39, 0
12, 141240, Note_on_c, 9, 42, 54
12, 141298, Note_on_c, 9, 42, 0
12, 141360, Note_on_c, 9, 42, 54
12, 141360, Note_on_c, 9, 35, 125
12, 141418, Note_on_c, 9, 35, 0
12, 141418, Note_on_c, 9, 42, 0
12, 141480, Note_on_c, 9, 42, 54
12, 141538, Note_on_c, 9, 42, 0
12, 141600, Note_on_c, 9, 35, 125
12, 141600, Note_on_c, 9, 42, 83
12, 141658, Note_on_c, 9, 42, 0
12, 141658, Note_on_c, 9, 35, 0
12, 141720, Note_on_c, 9, 42, 62
12, 141778, Note_on_c, 9, 42, 0
12, 141840, Note_on_c, 9, 42, 62
12, 141840, Note_on_c, 9, 35, 125
12, 141898, Note_on_c, 9, 35, 0
12, 141898, Note_on_c, 9, 42, 0
12, 141960, Note_on_c, 9, 42, 62
12, 142018, Note_on_c, 9, 42, 0
12, 142080, Note_on_c, 9, 35, 125
12, 142080, Note_on_c, 9, 42, 91
12, 142138, Note_on_c, 9, 42, 0
12, 142138, Note_on_c, 9, 35, 0
12, 142200, Note_on_c, 9, 42, 70
12, 142258, Note_on_c, 9, 42, 0
12, 142320, Note_on_c, 9, 42, 70
12, 142378, Note_on_c, 9, 42, 0
12, 142440, Note_on_c, 9, 42, 70
12, 142498, Note_on_c, 9, 42, 0
12, 142560, Note_on_c, 9, 42, 83
12, 142618, Note_on_c, 9, 42, 0
12, 142680, Note_on_c, 9, 42, 62
12, 142738, Note_on_c, 9, 42, 0
12, 142800, Note_on_c, 9, 42, 62
12, 142858, Note_on_c, 9, 42, 0
12, 142920, Note_on_c, 9, 42, 62
12, 142978, Note_on_c, 9, 42, 0
12, 143040, Note_on_c, 9, 39, 100
12, 143040, Note_on_c, 9, 40, 100
12, 143040, Note_on_c, 9, 42, 75
12, 143098, Note_on_c, 9, 42, 0
12, 143098, Note_on_c, 9, 40, 0
12, 143098, Note_on_c, 9, 39, 0
12, 143160, Note_on_c, 9, 42, 54
12, 143218, Note_on_c, 9, 42, 0
12, 143280, Note_on_c, 9, 42, 54
12, 143338, Note_on_c, 9, 42, 0
12, 143400, Note_on_c, 9, 42, 54
12, 143458, Note_on_c, 9, 42, 0
12, 143520, Note_on_c, 9, 42, 83
12, 143578, Note_on_c, 9, 42, 0
12, 143640, Note_on_c, 9, 42, 62
12, 143698, Note_on_c, 9, 42, 0
12, 143760, Note_on_c, 9, 42, 62
12, 143818, Note_on_c, 9, 42, 0
12, 143880, Note_on_c, 9, 42, 62
12, 143938, Note_on_c, 9, 42, 0
12, 144000, Note_on_c, 9, 42, 91
12, 144058, Note_on_c, 9, 42, 0
12, 144120, Note_on_c, 9, 42, 70
12, 144178, Note_on_c, 9, 42, 0
12, 144240, Note_on_c, 9, 42, 70
12, 144240, Note_on_c, 9, 35, 125
12, 144298, Note_on_c, 9, 35, 0
12, 144298, Note_on_c, 9, 42, 0
12, 144360, Note_on_c, 9, 42, 70
12, 144360, Note_on_c, 9, 35, 125
12, 144418, Note_on_c, 9, 35, 0
12, 144418, Note_on_c, 9, 42, 0
12, 144480, Note_on_c, 9, 42, 83
12, 144538, Note_on_c, 9, 42, 0
12, 144600, Note_on_c, 9, 42, 62
12, 144600, Note_on_c, 9, 35, 125
12, 144658, Note_on_c, 9, 35, 0
12, 144658, Note_on_c, 9, 42, 0
12, 144720, Note_on_c, 9, 42, 62
12, 144720, Note_on_c, 9, 35, 125
12, 144778, Note_on_c, 9, 35, 0
12, 144778, Note_on_c, 9, 42, 0
12, 144840, Note_on_c, 9, 42, 62
12, 144898, Note_on_c, 9, 42, 0
12, 144960, Note_on_c, 9, 39, 100
12, 144960, Note_on_c, 9, 40, 100
12, 144960, Note_on_c, 9, 42, 75
12, 145018, Note_on_c, 9, 42, 0
12, 145018, Note_on_c, 9, 40, 0
12, 145018, Note_on_c, 9, 39, 0
12, 145080, Note_on_c, 9, 42, 54
12, 145138, Note_on_c, 9, 42, 0
12, 145200, Note_on_c, 9, 42, 54
12, 145200, Note_on_c, 9, 35, 125
12, 145258, Note_on_c, 9, 35, 0
12, 145258, Note_on_c, 9, 42, 0
12, 145320, Note_on_c, 9, 42, 54
12, 145378, Note_on_c, 9, 42, 0
12, 145440, Note_on_c, 9, 42, 83
12, 145498, Note_on_c, 9, 42, 0
12, 145560, Note_on_c, 9, 42, 62
12, 145618, Note_on_c, 9, 42, 0
12, 145680, Note_on_c, 9, 42, 62
12, 145738, Note_on_c, 9, 42, 0
12, 145800, Note_on_c, 9, 42, 62
12, 145858, Note_on_c, 9, 42, 0
12, 145920, Note_on_c, 9, 35, 125
12, 145920, Note_on_c, 9, 42, 91
12, 145978, Note_on_c, 9, 42, 0
12, 145978, Note_on_c, 9, 35, 0
12, 146040, Note_on_c, 9, 42, 70
12, 146098, Note_on_c, 9, 42, 0
12, 146160, Note_on_c, 9, 42, 70
12, 146160, Note_on_c, 9, 35, 125
12, 146218, Note_on_c, 9, 35, 0
12, 146218, Note_on_c, 9, 42, 0
12, 146280, Note_on_c, 9, 42, 70
12, 146338, Note_on_c, 9, 42, 0
12, 146400, Note_on_c, 9, 35, 125
12, 146400, Note_on_c, 9, 42, 83
12, 146458, Note_on_c, 9, 42, 0
12, 146458, Note_on_c, 9, 35, 0
12, 146520, Note_on_c, 9, 42, 62
12, 146578, Note_on_c, 9, 42, 0
12, 146640, Note_on_c, 9, 42, 62
12, 146698, Note_on_c, 9, 42, 0
12, 146760, Note_on_c, 9, 42, 62
12, 146818, Note_on_c, 9, 42, 0
12, 146880, Note_on_c, 9, 39, 100
12, 146880, Note_on_c, 9, 40, 100
12, 146880, Note_on_c, 9, 42, 75
12, 146938, Note_on_c, 9, 42, 0
12, 146938, Note_on_c, 9, 40, 0
12, 146938, Note_on_c, 9, 39, 0
12, 147000, Note_on_c, 9, 42, 54
12, 147058, Note_on_c, 9, 42, 0
12, 147120, Note_on_c, 9, 42, 54
12, 147178, Note_on_c, 9, 42, 0
12, 147240, Note_on_c, 9, 42, 54
12, 147298, Note_on_c, 9, 42, 0
12, 147360, Note_on_c, 9, 42, 83
12, 147418, Note_on_c, 9, 42, 0
12, 147480, Note_on_c, 9, 42, 62
12, 147538, Note_on_c, 9, 42, 0
12, 147600, Note_on_c, 9, 42, 62
12, 147658, Note_on_c, 9, 42, 0
12, 147720, Note_on_c, 9, 42, 62
12, 147778, Note_on_c, 9, 42, 0
12, 147840, Note_on_c, 9, 42, 91
12, 147898, Note_on_c, 9, 42, 0
12, 147960, Note_on_c, 9, 42, 70
12, 148018, Note_on_c, 9, 42, 0
12, 148080, Note_on_c, 9, 42, 70
12, 148138, Note_on_c, 9, 42, 0
12, 148200, Note_on_c, 9, 42, 59
12, 148258, Note_on_c, 9, 42, 0
12, 148320, Note_on_c, 9, 42, 59
12, 148378, Note_on_c, 9, 42, 0
12, 148440, Note_on_c, 9, 42, 50
12, 148498, Note_on_c, 9, 42, 0
12, 148560, Note_on_c, 9, 42, 44
12, 148618, Note_on_c, 9, 42, 0
12, 148680, Note_on_c, 9, 42, 41
12, 148738, Note_on_c, 9, 42, 0
12, 148800, Note_on_c, 9, 42, 38
12, 148858, Note_on_c, 9, 42, 0
12, 148920, Note_on_c, 9, 42, 31
12, 148978, Note_on_c, 9, 42, 0
12, 149040, Note_on_c, 9, 42, 25
12, 149098, Note_on_c, 9, 42, 0
12, 149160, Note_on_c, 9, 42, 20
12, 149218, Note_on_c, 9, 42, 0
12, 149280, Note_on_c, 9, 42, 13
12, 149338, Note_on_c, 9, 42, 0
12, 149400, Note_on_c, 9, 42, 8
12, 149458, Note_on_c, 9, 42, 0
12, 149520, Note_on_c, 9, 42, 1
12, 149578, Note_on_c, 9, 42, 0
12, 149640, Note_on_c, 9, 42, 1
12, 149698, Note_on_c, 9, 42, 0
12, 149760, Note_on_c, 9, 35, 125
12, 149760, Note_on_c, 9, 42, 91
12, 149760, Note_on_c, 9, 57, 60
12, 149818, Note_on_c, 9, 57, 0
12, 149818, Note_on_c, 9, 42, 0
12, 149818, Note_on_c, 9, 35, 0
12, 149880, Note_on_c, 9, 42, 70
12, 149938, Note_on_c, 9, 42, 0
12, 150000, Note_on_c, 9, 42, 70
12, 150058, Note_on_c, 9, 42, 0
12, 150120, Note_on_c, 9, 42, 70
12, 150178, Note_on_c, 9, 42, 0
12, 150240, Note_on_c, 9, 39, 100
12, 150240, Note_on_c, 9, 42, 83
12, 150298, Note_on_c, 9, 42, 0
12, 150298, Note_on_c, 9, 39, 0
12, 150360, Note_on_c, 9, 42, 62
12, 150418, Note_on_c, 9, 42, 0
12, 150480, Note_on_c, 9, 42, 62
12, 150538, Note_on_c, 9, 42, 0
12, 150600, Note_on_c, 9, 42, 62
12, 150658, Note_on_c, 9, 42, 0
12, 150720, Note_on_c, 9, 42, 75
12, 150778, Note_on_c, 9, 42, 0
12, 150840, Note_on_c, 9, 42, 54
12, 150898, Note_on_c, 9, 42, 0
12, 150960, Note_on_c, 9, 42, 54
12, 151018, Note_on_c, 9, 42, 0
12, 151080, Note_on_c, 9, 42, 54
12, 151138, Note_on_c, 9, 42, 0
12, 151200, Note_on_c, 9, 39, 100
12, 151200, Note_on_c, 9, 42, 83
12, 151258, Note_on_c, 9, 42, 0
12, 151258, Note_on_c, 9, 39, 0
12, 151320, Note_on_c, 9, 42, 62
12, 151378, Note_on_c, 9, 42, 0
12, 151440, Note_on_c, 9, 42, 62
12, 151498, Note_on_c, 9, 42, 0
12, 151560, Note_on_c, 9, 42, 62
12, 151618, Note_on_c, 9, 42, 0
12, 151680, Note_on_c, 9, 42, 91
12, 151738, Note_on_c, 9, 42, 0
12, 151800, Note_on_c, 9, 42, 70
12, 151858, Note_on_c, 9, 42, 0
12, 151920, Note_on_c, 9, 42, 70
12, 151978, Note_on_c, 9, 42, 0
12, 152040, Note_on_c, 9, 42, 70
12, 152098, Note_on_c, 9, 42, 0
12, 152160, Note_on_c, 9, 39, 100
12, 152160, Note_on_c, 9, 42, 83
12, 152218, Note_on_c, 9, 42, 0
12, 152218, Note_on_c, 9, 39, 0
12, 152280, Note_on_c, 9, 42, 62
12, 152338, Note_on_c, 9, 42, 0
12, 152400, Note_on_c, 9, 42, 62
12, 152458, Note_on_c, 9, 42, 0
12, 152520, Note_on_c, 9, 42, 62
12, 152578, Note_on_c, 9, 42, 0
12, 152640, Note_on_c, 9, 42, 75
12, 152698, Note_on_c, 9, 42, 0
12, 152760, Note_on_c, 9, 42, 54
12, 152818, Note_on_c, 9, 42, 0
12, 152880, Note_on_c, 9, 42, 54
12, 152938, Note_on_c, 9, 42, 0
12, 153000, Note_on_c, 9, 42, 54
12, 153058, Note_on_c, 9, 42, 0
12, 153120, Note_on_c, 9, 39, 100
12, 153120, Note_on_c, 9, 42, 83
12, 153178, Note_on_c, 9, 42, 0
12, 153178, Note_on_c, 9, 39, 0
12, 153240, Note_on_c, 9, 42, 62
12, 153298, Note_on_c, 9, 42, 0
12, 153360, Note_on_c, 9, 42, 62
12, 153418, Note_on_c, 9, 42, 0
12, 153480, Note_on_c, 9, 42, 62
12, 153538, Note_on_c, 9, 42, 0
12, 153600, Note_on_c, 9, 42, 91
12, 153658, Note_on_c, 9, 42, 0
12, 153720, Note_on_c, 9, 42, 70
12, 153778, Note_on_c, 9, 42, 0
12, 153840, Note_on_c, 9, 42, 70
12, 153898, Note_on_c, 9, 42, 0
12, 153960, Note_on_c, 9, 42, 70
12, 154018, Note_on_c, 9, 42, 0
12, 154080, Note_on_c, 9, 39, 100
12, 154080, Note_on_c, 9, 42, 83
12, 154138, Note_on_c, 9, 42, 0
12, 154138, Note_on_c, 9, 39, 0
12, 154200, Note_on_c, 9, 42, 62
12, 154258, Note_on_c, 9, 42, 0
12, 154320, Note_on_c, 9, 42, 62
12, 154378, Note_on_c, 9, 42, 0
12, 154440, Note_on_c, 9, 42, 62
12, 154498, Note_on_c, 9, 42, 0
12, 154560, Note_on_c, 9, 42, 75
12, 154618, Note_on_c, 9, 42, 0
12, 154680, Note_on_c, 9, 42, 54
12, 154738, Note_on_c, 9, 42, 0
12, 154800, Note_on_c, 9, 42, 54
12, 154858, Note_on_c, 9, 42, 0
12, 154920, Note_on_c, 9, 42, 54
12, 154978, Note_on_c, 9, 42, 0
12, 155040, Note_on_c, 9, 39, 100
12, 155040, Note_on_c, 9, 42, 83
12, 155098, Note_on_c, 9, 42, 0
12, 155098, Note_on_c, 9, 39, 0
12, 155160, Note_on_c, 9, 42, 62
12, 155218, Note_on_c, 9, 42, 0
12, 155280, Note_on_c, 9, 42, 62
12, 155338, Note_on_c, 9, 42, 0
12, 155400, Note_on_c, 9, 42, 62
12, 155458, Note_on_c, 9, 42, 0
12, 155520, Note_on_c, 9, 42, 91
12, 155578, Note_on_c, 9, 42, 0
12, 155640, Note_on_c, 9, 42, 70
12, 155698, Note_on_c, 9, 42, 0
12, 155760, Note_on_c, 9, 42, 70
12, 155818, Note_on_c, 9, 42, 0
12, 155880, Note_on_c, 9, 42, 70
12, 155938, Note_on_c, 9, 42, 0
12, 156000, Note_on_c, 9, 39, 100
12, 156000, Note_on_c, 9, 42, 83
12, 156058, Note_on_c, 9, 42, 0
12, 156058, Note_on_c, 9, 39, 0
12, 156120, Note_on_c, 9, 42, 62
12, 156178, Note_on_c, 9, 42, 0
12, 156240, Note_on_c, 9, 42, 62
12, 156298, Note_on_c, 9, 42, 0
12, 156360, Note_on_c, 9, 42, 62
12, 156418, Note_on_c, 9, 42, 0
12, 156480, Note_on_c, 9, 42, 75
12, 156538, Note_on_c, 9, 42, 0
12, 156600, Note_on_c, 9, 42, 54
12, 156658, Note_on_c, 9, 42, 0
12, 156720, Note_on_c, 9, 42, 54
12, 156778, Note_on_c, 9, 42, 0
12, 156840, Note_on_c, 9, 42, 54
12, 156898, Note_on_c, 9, 42, 0
12, 156960, Note_on_c, 9, 39, 100
12, 156960, Note_on_c, 9, 42, 83
12, 157018, Note_on_c, 9, 42, 0
12, 157018, Note_on_c, 9, 39, 0
12, 157080, Note_on_c, 9, 42, 62
12, 157138, Note_on_c, 9, 42, 0
12, 157200, Note_on_c, 9, 42, 62
12, 157258, Note_on_c, 9, 42, 0
12, 157320, Note_on_c, 9, 42, 62
12, 157378, Note_on_c, 9, 42, 0
12, 157440, Note_on_c, 9, 42, 91
12, 157498, Note_on_c, 9, 42, 0
12, 157560, Note_on_c, 9, 42, 70
12, 157618, Note_on_c, 9, 42, 0
12, 157680, Note_on_c, 9, 42, 70
12, 157738, Note_on_c, 9, 42, 0
12, 157800, Note_on_c, 9, 42, 70
12, 157858, Note_on_c, 9, 42, 0
12, 157920, Note_on_c, 9, 39, 100
12, 157920, Note_on_c, 9, 42, 83
12, 157978, Note_on_c, 9, 42, 0
12, 157978, Note_on_c, 9, 39, 0
12, 158040, Note_on_c, 9, 42, 62
12, 158098, Note_on_c, 9, 42, 0
12, 158160, Note_on_c, 9, 42, 62
12, 158218, Note_on_c, 9, 42, 0
12, 158280, Note_on_c, 9, 42, 62
12, 158338, Note_on_c, 9, 42, 0
12, 158400, Note_on_c, 9, 42, 75
12, 158458, Note_on_c, 9, 42, 0
12, 158520, Note_on_c, 9, 42, 54
12, 158578, Note_on_c, 9, 42, 0
12, 158640, Note_on_c, 9, 42, 54
12, 158698, Note_on_c, 9, 42, 0
12, 158760, Note_on_c, 9, 42, 54
12, 158818, Note_on_c, 9, 42, 0
12, 158880, Note_on_c, 9, 39, 100
12, 158880, Note_on_c, 9, 42, 83
12, 158938, Note_on_c, 9, 42, 0
12, 158938, Note_on_c, 9, 39, 0
12, 159000, Note_on_c, 9, 42, 62
12, 159058, Note_on_c, 9, 42, 0
12, 159120, Note_on_c, 9, 42, 62
12, 159178, Note_on_c, 9, 42, 0
12, 159240, Note_on_c, 9, 42, 62
12, 159298, Note_on_c, 9, 42, 0
12, 159360, Note_on_c, 9, 42, 91
12, 159418, Note_on_c, 9, 42, 0
12, 159480, Note_on_c, 9, 42, 70
12, 159538, Note_on_c, 9, 42, 0
12, 159600, Note_on_c, 9, 42, 70
12, 159658, Note_on_c, 9, 42, 0
12, 159720, Note_on_c, 9, 42, 70
12, 159778, Note_on_c, 9, 42, 0
12, 159840, Note_on_c, 9, 39, 100
12, 159840, Note_on_c, 9, 42, 83
12, 159898, Note_on_c, 9, 42, 0
12, 159898, Note_on_c, 9, 39, 0
12, 159960, Note_on_c, 9, 42, 62
12, 160018, Note_on_c, 9, 42, 0
12, 160080, Note_on_c, 9, 42, 62
12, 160138, Note_on_c, 9, 42, 0
12, 160200, Note_on_c, 9, 42, 62
12, 160258, Note_on_c, 9, 42, 0
12, 160320, Note_on_c, 9, 42, 75
12, 160378, Note_on_c, 9, 42, 0
12, 160440, Note_on_c, 9, 42, 54
12, 160498, Note_on_c, 9, 42, 0
12, 160560, Note_on_c, 9, 42, 54
12, 160618, Note_on_c, 9, 42, 0
12, 160680, Note_on_c, 9, 42, 54
12, 160738, Note_on_c, 9, 42, 0
12, 160800, Note_on_c, 9, 39, 100
12, 160800, Note_on_c, 9, 42, 83
12, 160858, Note_on_c, 9, 42, 0
12, 160858, Note_on_c, 9, 39, 0
12, 160920, Note_on_c, 9, 42, 62
12, 160978, Note_on_c, 9, 42, 0
12, 161040, Note_on_c, 9, 42, 62
12, 161098, Note_on_c, 9, 42, 0
12, 161160, Note_on_c, 9, 42, 62
12, 161218, Note_on_c, 9, 42, 0
12, 161280, Note_on_c, 9, 42, 91
12, 161338, Note_on_c, 9, 42, 0
12, 161400, Note_on_c, 9, 42, 70
12, 161458, Note_on_c, 9, 42, 0
12, 161520, Note_on_c, 9, 42, 70
12, 161578, Note_on_c, 9, 42, 0
12, 161640, Note_on_c, 9, 42, 70
12, 161698, Note_on_c, 9, 42, 0
12, 161760, Note_on_c, 9, 39, 100
12, 161760, Note_on_c, 9, 42, 83
12, 161818, Note_on_c, 9, 42, 0
12, 161818, Note_on_c, 9, 39, 0
12, 161880, Note_on_c, 9, 42, 62
12, 161938, Note_on_c, 9, 42, 0
12, 162000, Note_on_c, 9, 42, 62
12, 162058, Note_on_c, 9, 42, 0
12, 162120, Note_on_c, 9, 42, 62
12, 162178, Note_on_c, 9, 42, 0
12, 162240, Note_on_c, 9, 42, 75
12, 162298, Note_on_c, 9, 42, 0
12, 162360, Note_on_c, 9, 42, 54
12, 162418, Note_on_c, 9, 42, 0
12, 162480, Note_on_c, 9, 42, 54
12, 162538, Note_on_c, 9, 42, 0
12, 162600, Note_on_c, 9, 42, 54
12, 162658, Note_on_c, 9, 42, 0
12, 162720, Note_on_c, 9, 39, 100
12, 162720, Note_on_c, 9, 42, 83
12, 162778, Note_on_c, 9, 42, 0
12, 162778, Note_on_c, 9, 39, 0
12, 162840, Note_on_c, 9, 42, 62
12, 162898, Note_on_c, 9, 42, 0
12, 162960, Note_on_c, 9, 42, 62
12, 163018, Note_on_c, 9, 42, 0
12, 163080, Note_on_c, 9, 42, 62
12, 163138, Note_on_c, 9, 42, 0
12, 163200, Note_on_c, 9, 42, 91
12, 163258, Note_on_c, 9, 42, 0
12, 163320, Note_on_c, 9, 42, 70
12, 163378, Note_on_c, 9, 42, 0
12, 163440, Note_on_c, 9, 42, 70
12, 163498, Note_on_c, 9, 42, 0
12, 163560, Note_on_c, 9, 42, 70
12, 163618, Note_on_c, 9, 42, 0
12, 163680, Note_on_c, 9, 39, 100
12, 163680, Note_on_c, 9, 42, 83
12, 163738, Note_on_c, 9, 42, 0
12, 163738, Note_on_c, 9, 39, 0
12, 163800, Note_on_c, 9, 42, 62
12, 163858, Note_on_c, 9, 42, 0
12, 163920, Note_on_c, 9, 42, 62
12, 163978, Note_on_c, 9, 42, 0
12, 164040, Note_on_c, 9, 42, 62
12, 164098, Note_on_c, 9, 42, 0
12, 164160, Note_on_c, 9, 42, 75
12, 164218, Note_on_c, 9, 42, 0
12, 164280, Note_on_c, 9, 42, 54
12, 164338, Note_on_c, 9, 42, 0
12, 164400, Note_on_c, 9, 42, 54
12, 164458, Note_on_c, 9, 42, 0
12, 164520, Note_on_c, 9, 42, 54
12, 164578, Note_on_c, 9, 42, 0
12, 164640, Note_on_c, 9, 35, 125
12, 164640, Note_on_c, 9, 39, 100
12, 164640, Note_on_c, 9, 42, 83
12, 164698, Note_on_c, 9, 42, 0
12, 164698, Note_on_c, 9, 39, 0
12, 164698, Note_on_c, 9, 35, 0
12, 164760, Note_on_c, 9, 42, 62
12, 164818, Note_on_c, 9, 42, 0
12, 164880, Note_on_c, 9, 42, 62
12, 164938, Note_on_c, 9, 42, 0
12, 165000, Note_on_c, 9, 42, 62
12, 165058, Note_on_c, 9, 42, 0
12, 165120, Note_on_c, 9, 35, 125
12, 165120, Note_on_c, 9, 42, 91
12, 165120, Note_on_c, 9, 57, 60
12, 165178, Note_on_c, 9, 57, 0
12, 165178, Note_on_c, 9, 42, 0
12, 165178, Note_on_c, 9, 35, 0
12, 165240, Note_on_c, 9, 42, 70
12, 165298, Note_on_c, 9, 42, 0
12, 165360, Note_on_c, 9, 42, 70
12, 165418, Note_on_c, 9, 42, 0
12, 165480, Note_on_c, 9, 42, 70
12, 165538, Note_on_c, 9, 42, 0
12, 165600, Note_on_c, 9, 35, 125
12, 165600, Note_on_c, 9, 39, 100
12, 165600, Note_on_c, 9, 40, 100
12, 165600, Note_on_c, 9, 42, 83
12, 165658, Note_on_c, 9, 42, 0
12, 165658, Note_on_c, 9, 35, 0
12, 165658, Note_on_c, 9, 39, 0
12, 165658, Note_on_c, 9, 40, 0
12, 165720, Note_on_c, 9, 42, 62
12, 165778, Note_on_c, 9, 42, 0
12, 165840, Note_on_c, 9, 42, 62
12, 165898, Note_on_c, 9, 42, 0
12, 165960, Note_on_c, 9, 42, 62
12, 166018, Note_on_c, 9, 42, 0
12, 166080, Note_on_c, 9, 35, 125
12, 166080, Note_on_c, 9, 42, 75
12, 166138, Note_on_c, 9, 42, 0
12, 166138, Note_on_c, 9, 35, 0
12, 166200, Note_on_c, 9, 42, 54
12, 166258, Note_on_c, 9, 42, 0
12, 166320, Note_on_c, 9, 42, 54
12, 166378, Note_on_c, 9, 42, 0
12, 166440, Note_on_c, 9, 42, 54
12, 166498, Note_on_c, 9, 42, 0
12, 166560, Note_on_c, 9, 35, 125
12, 166560, Note_on_c, 9, 39, 100
12, 166560, Note_on_c, 9, 40, 100
12, 166560, Note_on_c, 9, 42, 83
12, 166618, Note_on_c, 9, 42, 0
12, 166618, Note_on_c, 9, 35, 0
12, 166618, Note_on_c, 9, 39, 0
12, 166618, Note_on_c, 9, 40, 0
12, 166680, Note_on_c, 9, 42, 62
12, 166738, Note_on_c, 9, 42, 0
12, 166800, Note_on_c, 9, 42, 62
12, 166858, Note_on_c, 9, 42, 0
12, 166920, Note_on_c, 9, 42, 62
12, 166978, Note_on_c, 9, 42, 0
12, 167040, Note_on_c, 9, 35, 125
12, 167040, Note_on_c, 9, 42, 91
12, 167098, Note_on_c, 9, 42, 0
12, 167098, Note_on_c, 9, 35, 0
12, 167160, Note_on_c, 9, 42, 70
12, 167218, Note_on_c, 9, 42, 0
12, 167280, Note_on_c, 9, 42, 70
12, 167338, Note_on_c, 9, 42, 0
12, 167400, Note_on_c, 9, 42, 70
12, 167458, Note_on_c, 9, 42, 0
12, 167520, Note_on_c, 9, 35, 125
12, 167520, Note_on_c, 9, 39, 100
12, 167520, Note_on_c, 9, 40, 100
12, 167520, Note_on_c, 9, 42, 83
12, 167578, Note_on_c, 9, 42, 0
12, 167578, Note_on_c, 9, 35, 0
12, 167578, Note_on_c, 9, 39, 0
12, 167578, Note_on_c, 9, 40, 0
12, 167640, Note_on_c, 9, 42, 62
12, 167698, Note_on_c, 9, 42, 0
12, 167760, Note_on_c, 9, 42, 62
12, 167818, Note_on_c, 9, 42, 0
12, 167880, Note_on_c, 9, 42, 62
12, 167938, Note_on_c, 9, 42, 0
12, 168000, Note_on_c, 9, 35, 125
12, 168000, Note_on_c, 9, 42, 75
12, 168058, Note_on_c, 9, 42, 0
12, 168058, Note_on_c, 9, 35, 0
12, 168120, Note_on_c, 9, 42, 54
12, 168178, Note_on_c, 9, 42, 0
12, 168240, Note_on_c, 9, 42, 54
12, 168298, Note_on_c, 9, 42, 0
12, 168360, Note_on_c, 9, 42, 54
12, 168418, Note_on_c, 9, 42, 0
12, 168480, Note_on_c, 9, 35, 125
12, 168480, Note_on_c, 9, 39, 100
12, 168480, Note_on_c, 9, 40, 100
12, 168480, Note_on_c, 9, 42, 83
12, 168538, Note_on_c, 9, 42, 0
12, 168538, Note_on_c, 9, 35, 0
12, 168538, Note_on_c, 9, 39, 0
12, 168538, Note_on_c, 9, 40, 0
12, 168600, Note_on_c, 9, 42, 62
12, 168658, Note_on_c, 9, 42, 0
12, 168720, Note_on_c, 9, 42, 62
12, 168778, Note_on_c, 9, 42, 0
12, 168840, Note_on_c, 9, 42, 62
12, 168898, Note_on_c, 9, 42, 0
12, 168960, Note_on_c, 9, 35, 125
12, 168960, Note_on_c, 9, 42, 91
12, 169018, Note_on_c, 9, 42, 0
12, 169018, Note_on_c, 9, 35, 0
12, 169080, Note_on_c, 9, 42, 70
12, 169138, Note_on_c, 9, 42, 0
12, 169200, Note_on_c, 9, 42, 70
12, 169258, Note_on_c, 9, 42, 0
12, 169320, Note_on_c, 9, 42, 70
12, 169378, Note_on_c, 9, 42, 0
12, 169440, Note_on_c, 9, 35, 125
12, 169440, Note_on_c, 9, 39, 100
12, 169440, Note_on_c, 9, 40, 100
12, 169440, Note_on_c, 9, 42, 83
12, 169498, Note_on_c, 9, 42, 0
12, 169498, Note_on_c, 9, 35, 0
12, 169498, Note_on_c, 9, 39, 0
12, 169498, Note_on_c, 9, 40, 0
12, 169560, Note_on_c, 9, 42, 62
12, 169618, Note_on_c, 9, 42, 0
12, 169680, Note_on_c, 9, 42, 62
12, 169738, Note_on_c, 9, 42, 0
12, 169800, Note_on_c, 9, 42, 62
12, 169858, Note_on_c, 9, 42, 0
12, 169920, Note_on_c, 9, 35, 125
12, 169920, Note_on_c, 9, 42, 75
12, 169978, Note_on_c, 9, 42, 0
12, 169978, Note_on_c, 9, 35, 0
12, 170040, Note_on_c, 9, 42, 54
12, 170098, Note_on_c, 9, 42, 0
12, 170160, Note_on_c, 9, 42, 54
12, 170218, Note_on_c, 9, 42, 0
12, 170280, Note_on_c, 9, 42, 54
12, 170338, Note_on_c, 9, 42, 0
12, 170400, Note_on_c, 9, 35, 125
12, 170400, Note_on_c, 9, 39, 100
12, 170400, Note_on_c, 9, 40, 100
12, 170400, Note_on_c, 9, 42, 83
12, 170458, Note_on_c, 9, 42, 0
12, 170458, Note_on_c, 9, 35, 0
12, 170458, Note_on_c, 9, 39, 0
12, 170458, Note_on_c, 9, 40, 0
12, 170520, Note_on_c, 9, 42, 62
12, 170578, Note_on_c, 9, 42, 0
12, 170640, Note_on_c, 9, 42, 62
12, 170698, Note_on_c, 9, 42, 0
12, 170760, Note_on_c, 9, 42, 62
12, 170818, Note_on_c, 9, 42, 0
12, 170880, Note_on_c, 9, 35, 125
12, 170880, Note_on_c, 9, 42, 91
12, 170938, Note_on_c, 9, 42, 0
12, 170938, Note_on_c, 9, 35, 0
12, 171000, Note_on_c, 9, 42, 70
12, 171058, Note_on_c, 9, 42, 0
12, 171120, Note_on_c, 9, 42, 70
12, 171178, Note_on_c, 9, 42, 0
12, 171240, Note_on_c, 9, 42, 70
12, 171298, Note_on_c, 9, 42, 0
12, 171360, Note_on_c, 9, 35, 125
12, 171360, Note_on_c, 9, 39, 100
12, 171360, Note_on_c, 9, 40, 100
12, 171360, Note_on_c, 9, 42, 83
12, 171418, Note_on_c, 9, 42, 0
12, 171418, Note_on_c, 9, 35, 0
12, 171418, Note_on_c, 9, 39, 0
12, 171418, Note_on_c, 9, 40, 0
12, 171480, Note_on_c, 9, 42, 62
12, 171538, Note_on_c, 9, 42, 0
12, 171600, Note_on_c, 9, 42, 62
12, 171658, Note_on_c, 9, 42, 0
12, 171720, Note_on_c, 9, 42, 62
12, 171778, Note_on_c, 9, 42, 0
12, 171840, Note_on_c, 9, 35, 125
12, 171840, Note_on_c, 9, 42, 75
12, 171898, Note_on_c, 9, 42, 0
12, 171898, Note_on_c, 9, 35, 0
12, 171960, Note_on_c, 9, 42, 54
12, 172018, Note_on_c, 9, 42, 0
12, 172080, Note_on_c, 9, 42, 54
12, 172138, Note_on_c, 9, 42, 0
12, 172200, Note_on_c, 9, 42, 54
12, 172258, Note_on_c, 9, 42, 0
12, 172320, Note_on_c, 9, 35, 125
12, 172320, Note_on_c, 9, 39, 100
12, 172320, Note_on_c, 9, 40, 100
12, 172320, Note_on_c, 9, 42, 83
12, 172378, Note_on_c, 9, 42, 0
12, 172378, Note_on_c, 9, 35, 0
12, 172378, Note_on_c, 9, 39, 0
12, 172378, Note_on_c, 9, 40, 0
12, 172440, Note_on_c, 9, 42, 62
12, 172498, Note_on_c, 9, 42, 0
12, 172560, Note_on_c, 9, 42, 62
12, 172618, Note_on_c, 9, 42, 0
12, 172680, Note_on_c, 9, 42, 62
12, 172738, Note_on_c, 9, 42, 0
12, 172800, Note_on_c, 9, 35, 125
12, 172800, Note_on_c, 9, 42, 91
12, 172858, Note_on_c, 9, 42, 0
12, 172858, Note_on_c, 9, 35, 0
12, 172920, Note_on_c, 9, 42, 70
12, 172978, Note_on_c, 9, 42, 0
12, 173040, Note_on_c, 9, 42, 70
12, 173098, Note_on_c, 9, 42, 0
12, 173160, Note_on_c, 9, 42, 70
12, 173218, Note_on_c, 9, 42, 0
12, 173280, Note_on_c, 9, 35, 125
12, 173280, Note_on_c, 9, 39, 100
12, 173280, Note_on_c, 9, 40, 100
12, 173280, Note_on_c, 9, 42, 83
12, 173338, Note_on_c, 9, 42, 0
12, 173338, Note_on_c, 9, 35, 0
12, 173338, Note_on_c, 9, 39, 0
12, 173338, Note_on_c, 9, 40, 0
12, 173400, Note_on_c, 9, 42, 62
12, 173458, Note_on_c, 9, 42, 0
12, 173520, Note_on_c, 9, 42, 62
12, 173578, Note_on_c, 9, 42, 0
12, 173640, Note_on_c, 9, 42, 62
12, 173698, Note_on_c, 9, 42, 0
12, 173760, Note_on_c, 9, 35, 125
12, 173760, Note_on_c, 9, 42, 75
12, 173818, Note_on_c, 9, 42, 0
12, 173818, Note_on_c, 9, 35, 0
12, 173880, Note_on_c, 9, 42, 54
12, 173938, Note_on_c, 9, 42, 0
12, 174000, Note_on_c, 9, 42, 54
12, 174058, Note_on_c, 9, 42, 0
12, 174120, Note_on_c, 9, 42, 54
12, 174178, Note_on_c, 9, 42, 0
12, 174240, Note_on_c, 9, 35, 125
12, 174240, Note_on_c, 9, 39, 100
12, 174240, Note_on_c, 9, 40, 100
12, 174240, Note_on_c, 9, 42, 83
12, 174298, Note_on_c, 9, 42, 0
12, 174298, Note_on_c, 9, 35, 0
12, 174298, Note_on_c, 9, 39, 0
12, 174298, Note_on_c, 9, 40, 0
12, 174360, Note_on_c, 9, 42, 62
12, 174418, Note_on_c, 9, 42, 0
12, 174480, Note_on_c, 9, 42, 62
12, 174538, Note_on_c, 9, 42, 0
12, 174600, Note_on_c, 9, 42, 62
12, 174658, Note_on_c, 9, 42, 0
12, 174720, Note_on_c, 9, 35, 125
12, 174720, Note_on_c, 9, 42, 91
12, 174778, Note_on_c, 9, 42, 0
12, 174778, Note_on_c, 9, 35, 0
12, 174840, Note_on_c, 9, 42, 70
12, 174898, Note_on_c, 9, 42, 0
12, 174960, Note_on_c, 9, 42, 70
12, 175018, Note_on_c, 9, 42, 0
12, 175080, Note_on_c, 9, 42, 70
12, 175138, Note_on_c, 9, 42, 0
12, 175200, Note_on_c, 9, 35, 125
12, 175200, Note_on_c, 9, 39, 100
12, 175200, Note_on_c, 9, 40, 100
12, 175200, Note_on_c, 9, 42, 83
12, 175258, Note_on_c, 9, 42, 0
12, 175258, Note_on_c, 9, 35, 0
12, 175258, Note_on_c, 9, 39, 0
12, 175258, Note_on_c, 9, 40, 0
12, 175320, Note_on_c, 9, 42, 62
12, 175378, Note_on_c, 9, 42, 0
12, 175440, Note_on_c, 9, 42, 62
12, 175498, Note_on_c, 9, 42, 0
12, 175560, Note_on_c, 9, 42, 62
12, 175618, Note_on_c, 9, 42, 0
12, 175680, Note_on_c, 9, 35, 125
12, 175680, Note_on_c, 9, 42, 75
12, 175738, Note_on_c, 9, 42, 0
12, 175738, Note_on_c, 9, 35, 0
12, 175800, Note_on_c, 9, 42, 54
12, 175858, Note_on_c, 9, 42, 0
12, 175920, Note_on_c, 9, 42, 54
12, 175978, Note_on_c, 9, 42, 0
12, 176040, Note_on_c, 9, 42, 54
12, 176098, Note_on_c, 9, 42, 0
12, 176160, Note_on_c, 9, 35, 125
12, 176160, Note_on_c, 9, 39, 100
12, 176160, Note_on_c, 9, 40, 100
12, 176160, Note_on_c, 9, 42, 83
12, 176218, Note_on_c, 9, 42, 0
12, 176218, Note_on_c, 9, 35, 0
12, 176218, Note_on_c, 9, 39, 0
12, 176218, Note_on_c, 9, 40, 0
12, 176280, Note_on_c, 9, 42, 62
12, 176338, Note_on_c, 9, 42, 0
12, 176400, Note_on_c, 9, 42, 62
12, 176458, Note_on_c, 9, 42, 0
12, 176520, Note_on_c, 9, 42, 62
12, 176578, Note_on_c, 9, 42, 0
12, 176640, Note_on_c, 9, 35, 125
12, 176640, Note_on_c, 9, 42, 91
12, 176698, Note_on_c, 9, 42, 0
12, 176698, Note_on_c, 9, 35, 0
12, 176760, Note_on_c, 9, 42, 70
12, 176818, Note_on_c, 9, 42, 0
12, 176880, Note_on_c, 9, 42, 70
12, 176938, Note_on_c, 9, 42, 0
12, 177000, Note_on_c, 9, 42, 70
12, 177058, Note_on_c, 9, 42, 0
12, 177120, Note_on_c, 9, 35, 125
12, 177120, Note_on_c, 9, 39, 100
12, 177120, Note_on_c, 9, 40, 100
12, 177120, Note_on_c, 9, 42, 83
12, 177178, Note_on_c, 9, 42, 0
12, 177178, Note_on_c, 9, 35, 0
12, 177178, Note_on_c, 9, 39, 0
12, 177178, Note_on_c, 9, 40, 0
12, 177240, Note_on_c, 9, 42, 62
12, 177298, Note_on_c, 9, 42, 0
12, 177360, Note_on_c, 9, 42, 62
12, 177418, Note_on_c, 9, 42, 0
12, 177480, Note_on_c, 9, 42, 62
12, 177538, Note_on_c, 9, 42, 0
12, 177600, Note_on_c, 9, 35, 125
12, 177600, Note_on_c, 9, 42, 75
12, 177658, Note_on_c, 9, 42, 0
12, 177658, Note_on_c, 9, 35, 0
12, 177720, Note_on_c, 9, 42, 54
12, 177778, Note_on_c, 9, 42, 0
12, 177840, Note_on_c, 9, 42, 54
12, 177898, Note_on_c, 9, 42, 0
12, 177960, Note_on_c, 9, 42, 54
12, 178018, Note_on_c, 9, 42, 0
12, 178080, Note_on_c, 9, 35, 125
12, 178080, Note_on_c, 9, 39, 100
12, 178080, Note_on_c, 9, 40, 100
12, 178080, Note_on_c, 9, 42, 83
12, 178138, Note_on_c, 9, 42, 0
12, 178138, Note_on_c, 9, 35, 0
12, 178138, Note_on_c, 9, 39, 0
12, 178138, Note_on_c, 9, 40, 0
12, 178200, Note_on_c, 9, 42, 62
12, 178258, Note_on_c, 9, 42, 0
12, 178320, Note_on_c, 9, 42, 62
12, 178378, Note_on_c, 9, 42, 0
12, 178440, Note_on_c, 9, 42, 62
12, 178498, Note_on_c, 9, 42, 0
12, 178560, Note_on_c, 9, 35, 125
12, 178560, Note_on_c, 9, 42, 91
12, 178618, Note_on_c, 9, 42, 0
12, 178618, Note_on_c, 9, 35, 0
12, 178680, Note_on_c, 9, 42, 70
12, 178738, Note_on_c, 9, 42, 0
12, 178800, Note_on_c, 9, 42, 70
12, 178858, Note_on_c, 9, 42, 0
12, 178920, Note_on_c, 9, 42, 70
12, 178978, Note_on_c, 9, 42, 0
12, 179040, Note_on_c, 9, 35, 125
12, 179040, Note_on_c, 9, 39, 100
12, 179040, Note_on_c, 9, 40, 100
12, 179040, Note_on_c, 9, 42, 83
12, 179098, Note_on_c, 9, 42, 0
12, 179098, Note_on_c, 9, 35, 0
12, 179098, Note_on_c, 9, 39, 0
12, 179098, Note_on_c, 9, 40, 0
12, 179160, Note_on_c, 9, 42, 62
12, 179218, Note_on_c, 9, 42, 0
12, 179280, Note_on_c, 9, 42, 62
12, 179338, Note_on_c, 9, 42, 0
12, 179400, Note_on_c, 9, 42, 62
12, 179458, Note_on_c, 9, 42, 0
12, 179520, Note_on_c, 9, 35, 125
12, 179520, Note_on_c, 9, 42, 75
12, 179578, Note_on_c, 9, 42, 0
12, 179578, Note_on_c, 9, 35, 0
12, 179640, Note_on_c, 9, 42, 54
12, 179698, Note_on_c, 9, 42, 0
12, 179760, Note_on_c, 9, 42, 54
12, 179818, Note_on_c, 9, 42, 0
12, 179880, Note_on_c, 9, 42, 54
12, 179938, Note_on_c, 9, 42, 0
12, 180000, Note_on_c, 9, 35, 125
12, 180000, Note_on_c, 9, 39, 100
12, 180000, Note_on_c, 9, 40, 100
12, 180000, Note_on_c, 9, 42, 83
12, 180058, Note_on_c, 9, 42, 0
12, 180058, Note_on_c, 9, 35, 0
12, 180058, Note_on_c, 9, 39, 0
12, 180058, Note_on_c, 9, 40, 0
12, 180120, Note_on_c, 9, 42, 62
12, 180178, Note_on_c, 9, 42, 0
12, 180240, Note_on_c, 9, 42, 62
12, 180298, Note_on_c, 9, 42, 0
12, 180360, Note_on_c, 9, 42, 62
12, 180418, Note_on_c, 9, 42, 0
12, 180480, Note_on_c, 9, 35, 125
12, 180480, Note_on_c, 9, 42, 91
12, 180480, Note_on_c, 9, 57, 60
12, 180538, Note_on_c, 9, 57, 0
12, 180538, Note_on_c, 9, 42, 0
12, 180538, Note_on_c, 9, 35, 0
12, 180600, Note_on_c, 9, 42, 70
12, 180658, Note_on_c, 9, 42, 0
12, 180720, Note_on_c, 9, 42, 70
12, 180778, Note_on_c, 9, 42, 0
12, 180840, Note_on_c, 9, 42, 70
12, 180898, Note_on_c, 9, 42, 0
12, 180960, Note_on_c, 9, 35, 125
12, 180960, Note_on_c, 9, 39, 100
12, 180960, Note_on_c, 9, 40, 100
12, 180960, Note_on_c, 9, 42, 83
12, 181018, Note_on_c, 9, 42, 0
12, 181018, Note_on_c, 9, 35, 0
12, 181018, Note_on_c, 9, 39, 0
12, 181018, Note_on_c, 9, 40, 0
12, 181080, Note_on_c, 9, 42, 62
12, 181138, Note_on_c, 9, 42, 0
12, 181200, Note_on_c, 9, 42, 62
12, 181258, Note_on_c, 9, 42, 0
12, 181320, Note_on_c, 9, 42, 62
12, 181378, Note_on_c, 9, 42, 0
12, 181440, Note_on_c, 9, 35, 125
12, 181440, Note_on_c, 9, 42, 75
12, 181498, Note_on_c, 9, 42, 0
12, 181498, Note_on_c, 9, 35, 0
12, 181560, Note_on_c, 9, 42, 54
12, 181618, Note_on_c, 9, 42, 0
12, 181680, Note_on_c, 9, 42, 54
12, 181738, Note_on_c, 9, 42, 0
12, 181800, Note_on_c, 9, 42, 54
12, 181858, Note_on_c, 9, 42, 0
12, 181920, Note_on_c, 9, 35, 125
12, 181920, Note_on_c, 9, 39, 100
12, 181920, Note_on_c, 9, 40, 100
12, 181920, Note_on_c, 9, 42, 83
12, 181978, Note_on_c, 9, 42, 0
12, 181978, Note_on_c, 9, 35, 0
12, 181978, Note_on_c, 9, 39, 0
12, 181978, Note_on_c, 9, 40, 0
12, 182040, Note_on_c, 9, 42, 62
12, 182098, Note_on_c, 9, 42, 0
12, 182160, Note_on_c, 9, 42, 62
12, 182218, Note_on_c, 9, 42, 0
12, 182280, Note_on_c, 9, 42, 62
12, 182338, Note_on_c, 9, 42, 0
12, 182400, Note_on_c, 9, 35, 125
12, 182400, Note_on_c, 9, 42, 91
12, 182458, Note_on_c, 9, 42, 0
12, 182458, Note_on_c, 9, 35, 0
12, 182520, Note_on_c, 9, 42, 70
12, 182578, Note_on_c, 9, 42, 0
12, 182640, Note_on_c, 9, 42, 70
12, 182698, Note_on_c, 9, 42, 0
12, 182760, Note_on_c, 9, 42, 70
12, 182818, Note_on_c, 9, 42, 0
12, 182880, Note_on_c, 9, 35, 125
12, 182880, Note_on_c, 9, 39, 100
12, 182880, Note_on_c, 9, 40, 100
12, 182880, Note_on_c, 9, 42, 83
12, 182938, Note_on_c, 9, 42, 0
12, 182938, Note_on_c, 9, 35, 0
12, 182938, Note_on_c, 9, 39, 0
12, 182938, Note_on_c, 9, 40, 0
12, 183000, Note_on_c, 9, 42, 62
12, 183058, Note_on_c, 9, 42, 0
12, 183120, Note_on_c, 9, 42, 62
12, 183178, Note_on_c, 9, 42, 0
12, 183240, Note_on_c, 9, 42, 62
12, 183298, Note_on_c, 9, 42, 0
12, 183360, Note_on_c, 9, 35, 125
12, 183360, Note_on_c, 9, 42, 75
12, 183418, Note_on_c, 9, 42, 0
12, 183418, Note_on_c, 9, 35, 0
12, 183480, Note_on_c, 9, 42, 54
12, 183538, Note_on_c, 9, 42, 0
12, 183600, Note_on_c, 9, 42, 54
12, 183658, Note_on_c, 9, 42, 0
12, 183720, Note_on_c, 9, 42, 54
12, 183778, Note_on_c, 9, 42, 0
12, 183840, Note_on_c, 9, 35, 125
12, 183840, Note_on_c, 9, 39, 100
12, 183840, Note_on_c, 9, 40, 100
12, 183840, Note_on_c, 9, 42, 83
12, 183898, Note_on_c, 9, 42, 0
12, 183898, Note_on_c, 9, 35, 0
12, 183898, Note_on_c, 9, 39, 0
12, 183898, Note_on_c, 9, 40, 0
12, 183960, Note_on_c, 9, 42, 62
12, 184018, Note_on_c, 9, 42, 0
12, 184080, Note_on_c, 9, 42, 62
12, 184138, Note_on_c, 9, 42, 0
12, 184200, Note_on_c, 9, 42, 62
12, 184258, Note_on_c, 9, 42, 0
12, 184320, Note_on_c, 9, 35, 125
12, 184320, Note_on_c, 9, 42, 91
12, 184378, Note_on_c, 9, 42, 0
12, 184378, Note_on_c, 9, 35, 0
12, 184440, Note_on_c, 9, 42, 70
12, 184498, Note_on_c, 9, 42, 0
12, 184560, Note_on_c, 9, 42, 70
12, 184618, Note_on_c, 9, 42, 0
12, 184680, Note_on_c, 9, 42, 70
12, 184738, Note_on_c, 9, 42, 0
12, 184800, Note_on_c, 9, 35, 125
12, 184800, Note_on_c, 9, 39, 100
12, 184800, Note_on_c, 9, 40, 100
12, 184800, Note_on_c, 9, 42, 83
12, 184858, Note_on_c, 9, 42, 0
12, 184858, Note_on_c, 9, 35, 0
12, 184858, Note_on_c, 9, 39, 0
12, 184858, Note_on_c, 9, 40, 0
12, 184920, Note_on_c, 9, 42, 62
12, 184978, Note_on_c, 9, 42, 0
12, 185040, Note_on_c, 9, 42, 62
12, 185098, Note_on_c, 9, 42, 0
12, 185160, Note_on_c, 9, 42, 62
12, 185218, Note_on_c, 9, 42, 0
12, 185280, Note_on_c, 9, 35, 125
12, 185280, Note_on_c, 9, 42, 75
12, 185338, Note_on_c, 9, 42, 0
12, 185338, Note_on_c, 9, 35, 0
12, 185400, Note_on_c, 9, 42, 54
12, 185458, Note_on_c, 9, 42, 0
12, 185520, Note_on_c, 9, 42, 54
12, 185578, Note_on_c, 9, 42, 0
12, 185640, Note_on_c, 9, 42, 54
12, 185698, Note_on_c, 9, 42, 0
12, 185760, Note_on_c, 9, 35, 125
12, 185760, Note_on_c, 9, 39, 100
12, 185760, Note_on_c, 9, 40, 100
12, 185760, Note_on_c, 9, 42, 83
12, 185818, Note_on_c, 9, 42, 0
12, 185818, Note_on_c, 9, 35, 0
12, 185818, Note_on_c, 9, 39, 0
12, 185818, Note_on_c, 9, 40, 0
12, 185880, Note_on_c, 9, 42, 62
12, 185938, Note_on_c, 9, 42, 0
12, 186000, Note_on_c, 9, 42, 62
12, 186058, Note_on_c, 9, 42, 0
12, 186120, Note_on_c, 9, 42, 62
12, 186178, Note_on_c, 9, 42, 0
12, 186240, Note_on_c, 9, 35, 125
12, 186240, Note_on_c, 9, 42, 91
12, 186298, Note_on_c, 9, 42, 0
12, 186298, Note_on_c, 9, 35, 0
12, 186360, Note_on_c, 9, 42, 70
12, 186418, Note_on_c, 9, 42, 0
12, 186480, Note_on_c, 9, 42, 70
12, 186538, Note_on_c, 9, 42, 0
12, 186600, Note_on_c, 9, 42, 70
12, 186658, Note_on_c, 9, 42, 0
12, 186720, Note_on_c, 9, 35, 125
12, 186720, Note_on_c, 9, 39, 100
12, 186720, Note_on_c, 9, 40, 100
12, 186720, Note_on_c, 9, 42, 83
12, 186778, Note_on_c, 9, 42, 0
12, 186778, Note_on_c, 9, 35, 0
12, 186778, Note_on_c, 9, 39, 0
12, 186778, Note_on_c, 9, 40, 0
12, 186840, Note_on_c, 9, 42, 62
12, 186898, Note_on_c, 9, 42, 0
12, 186960, Note_on_c, 9, 42, 62
12, 187018, Note_on_c, 9, 42, 0
12, 187080, Note_on_c, 9, 42, 62
12, 187138, Note_on_c, 9, 42, 0
12, 187200, Note_on_c, 9, 35, 125
12, 187200, Note_on_c, 9, 42, 75
12, 187258, Note_on_c, 9, 42, 0
12, 187258, Note_on_c, 9, 35, 0
12, 187320, Note_on_c, 9, 42, 54
12, 187378, Note_on_c, 9, 42, 0
12, 187440, Note_on_c, 9, 42, 54
12, 187498, Note_on_c, 9, 42, 0
12, 187560, Note_on_c, 9, 42, 54
12, 187618, Note_on_c, 9, 42, 0
12, 187680, Note_on_c, 9, 35, 125
12, 187680, Note_on_c, 9, 39, 100
12, 187680, Note_on_c, 9, 40, 100
12, 187680, Note_on_c, 9, 42, 83
12, 187738, Note_on_c, 9, 42, 0
12, 187738, Note_on_c, 9, 35, 0
12, 187738, Note_on_c, 9, 39, 0
12, 187738, Note_on_c, 9, 40, 0
12, 187800, Note_on_c, 9, 42, 62
12, 187858, Note_on_c, 9, 42, 0
12, 187920, Note_on_c, 9, 42, 62
12, 187978, Note_on_c, 9, 42, 0
12, 188040, Note_on_c, 9, 42, 62
12, 188098, Note_on_c, 9, 42, 0
12, 188160, Note_on_c, 9, 35, 125
12, 188160, Note_on_c, 9, 42, 91
12, 188218, Note_on_c, 9, 42, 0
12, 188218, Note_on_c, 9, 35, 0
12, 188280, Note_on_c, 9, 42, 70
12, 188338, Note_on_c, 9, 42, 0
12, 188400, Note_on_c, 9, 42, 70
12, 188458, Note_on_c, 9, 42, 0
12, 188520, Note_on_c, 9, 42, 70
12, 188578, Note_on_c, 9, 42, 0
12, 188640, Note_on_c, 9, 35, 125
12, 188640, Note_on_c, 9, 39, 100
12, 188640, Note_on_c, 9, 40, 100
12, 188640, Note_on_c, 9, 42, 83
12, 188698, Note_on_c, 9, 42, 0
12, 188698, Note_on_c, 9, 35, 0
12, 188698, Note_on_c, 9, 39, 0
12, 188698, Note_on_c, 9, 40, 0
12, 188760, Note_on_c, 9, 42, 62
12, 188818, Note_on_c, 9, 42, 0
12, 188880, Note_on_c, 9, 42, 62
12, 188938, Note_on_c, 9, 42, 0
12, 189000, Note_on_c, 9, 42, 62
12, 189058, Note_on_c, 9, 42, 0
12, 189120, Note_on_c, 9, 35, 125
12, 189120, Note_on_c, 9, 42, 75
12, 189178, Note_on_c, 9, 42, 0
12, 189178, Note_on_c, 9, 35, 0
12, 189240, Note_on_c, 9, 42, 54
12, 189298, Note_on_c, 9, 42, 0
12, 189360, Note_on_c, 9, 42, 54
12, 189418, Note_on_c, 9, 42, 0
12, 189480, Note_on_c, 9, 42, 54
12, 189538, Note_on_c, 9, 42, 0
12, 189600, Note_on_c, 9, 35, 125
12, 189600, Note_on_c, 9, 39, 100
12, 189600, Note_on_c, 9, 40, 100
12, 189600, Note_on_c, 9, 42, 83
12, 189658, Note_on_c, 9, 42, 0
12, 189658, Note_on_c, 9, 35, 0
12, 189658, Note_on_c, 9, 39, 0
12, 189658, Note_on_c, 9, 40, 0
12, 189720, Note_on_c, 9, 42, 62
12, 189778, Note_on_c, 9, 42, 0
12, 189840, Note_on_c, 9, 42, 62
12, 189898, Note_on_c, 9, 42, 0
12, 189960, Note_on_c, 9, 42, 62
12, 190018, Note_on_c, 9, 42, 0
12, 190080, Note_on_c, 9, 35, 125
12, 190080, Note_on_c, 9, 42, 91
12, 190138, Note_on_c, 9, 42, 0
12, 190138, Note_on_c, 9, 35, 0
12, 190200, Note_on_c, 9, 42, 70
12, 190258, Note_on_c, 9, 42, 0
12, 190320, Note_on_c, 9, 42, 70
12, 190378, Note_on_c, 9, 42, 0
12, 190440, Note_on_c, 9, 42, 70
12, 190498, Note_on_c, 9, 42, 0
12, 190560, Note_on_c, 9, 35, 125
12, 190560, Note_on_c, 9, 39, 100
12, 190560, Note_on_c, 9, 40, 100
12, 190560, Note_on_c, 9, 42, 83
12, 190618, Note_on_c, 9, 42, 0
12, 190618, Note_on_c, 9, 35, 0
12, 190618, Note_on_c, 9, 39, 0
12, 190618, Note_on_c, 9, 40, 0
12, 190680, Note_on_c, 9, 42, 62
12, 190738, Note_on_c, 9, 42, 0
12, 190800, Note_on_c, 9, 42, 62
12, 190858, Note_on_c, 9, 42, 0
12, 190920, Note_on_c, 9, 42, 62
12, 190978, Note_on_c, 9, 42, 0
12, 191040, Note_on_c, 9, 35, 125
12, 191040, Note_on_c, 9, 42, 75
12, 191098, Note_on_c, 9, 42, 0
12, 191098, Note_on_c, 9, 35, 0
12, 191160, Note_on_c, 9, 42, 54
12, 191218, Note_on_c, 9, 42, 0
12, 191280, Note_on_c, 9, 42, 54
12, 191338, Note_on_c, 9, 42, 0
12, 191400, Note_on_c, 9, 42, 54
12, 191458, Note_on_c, 9, 42, 0
12, 191520, Note_on_c, 9, 35, 125
12, 191520, Note_on_c, 9, 39, 100
12, 191520, Note_on_c, 9, 40, 100
12, 191520, Note_on_c, 9, 42, 83
12, 191578, Note_on_c, 9, 42, 0
12, 191578, Note_on_c, 9, 35, 0
12, 191578, Note_on_c, 9, 39, 0
12, 191578, Note_on_c, 9, 40, 0
12, 191640, Note_on_c, 9, 42, 62
12, 191698, Note_on_c, 9, 42, 0
12, 191760, Note_on_c, 9, 42, 62
12, 191818, Note_on_c, 9, 42, 0
12, 191880, Note_on_c, 9, 42, 62
12, 191938, Note_on_c, 9, 42, 0
12, 192000, Note_on_c, 9, 35, 125
12, 192000, Note_on_c, 9, 41, 80
12, 192000, Note_on_c, 9, 42, 91
12, 192000, Note_on_c, 9, 57, 60
12, 192058, Note_on_c, 9, 57, 0
12, 192058, Note_on_c, 9, 35, 0
12, 192058, Note_on_c, 9, 41, 0
12, 192058, Note_on_c, 9, 42, 0
12, 192058, End_track
13, 0, Start_track
13, 0, MIDI_port, 0
13, 0, Title_t, "Rev"
13, 530, Control_c, 10, 0, 0
13, 532, Program_c, 10, 119
13, 533, Control_c, 10, 7, 100
13, 533, Control_c, 10, 10, 64
13, 1365, Control_c, 10, 121, 0
13, 1372, Control_c, 10, 91, 50
13, 1373, Control_c, 10, 93, 50
13, 1375, Control_c, 10, 94, 0
13, 1376, Control_c, 10, 11, 127
13, 1380, Control_c, 10, 101, 0
13, 1380, Control_c, 10, 100, 0
13, 1380, Control_c, 10, 6, 2
13, 1380, Control_c, 10, 38, 0
13, 1381, Control_c, 10, 71, 64
13, 1382, Control_c, 10, 72, 64
13, 1383, Control_c, 10, 73, 64
13, 1385, Control_c, 10, 74, 64
13, 3000, Note_on_c, 10, 72, 111
13, 3838, Note_on_c, 10, 72, 0
13, 79800, Note_on_c, 10, 72, 111
13, 80638, Note_on_c, 10, 72, 0
13, 148920, Note_on_c, 10, 72, 111
13, 149758, Note_on_c, 10, 72, 0
13, 164280, Note_on_c, 10, 72, 111
13, 165118, Note_on_c, 10, 72, 0
13, 191160, Note_on_c, 10, 72, 111
13, 191998, Note_on_c, 10, 72, 0
13, 191998, End_track
14, 0, Start_track
14, 0, MIDI_port, 0
14, 0, Title_t, "Square"
14, 535, Control_c, 11, 0, 0
14, 537, Program_c, 11, 80
14, 538, Control_c, 11, 7, 100
14, 538, Control_c, 11, 10, 34
14, 1545, Control_c, 11, 121, 0
14, 1552, Control_c, 11, 91, 50
14, 1553, Control_c, 11, 93, 50
14, 1555, Control_c, 11, 94, 0
14, 1556, Control_c, 11, 11, 127
14, 1560, Control_c, 11, 101, 0
14, 1560, Control_c, 11, 100, 0
14, 1560, Control_c, 11, 6, 2
14, 1560, Control_c, 11, 38, 0
14, 1561, Control_c, 11, 71, 64
14, 1562, Control_c, 11, 72, 64
14, 1563, Control_c, 11, 73, 64
14, 1565, Control_c, 11, 74, 64
14, 80880, Note_on_c, 11, 60, 89
14, 80880, Note_on_c, 11, 67, 89
14, 80938, Note_on_c, 11, 67, 0
14, 80938, Note_on_c, 11, 60, 0
14, 81000, Note_on_c, 11, 60, 84
14, 81000, Note_on_c, 11, 67, 84
14, 81058, Note_on_c, 11, 67, 0
14, 81058, Note_on_c, 11, 60, 0
14, 81120, Note_on_c, 11, 60, 89
14, 81120, Note_on_c, 11, 67, 89
14, 81178, Note_on_c, 11, 67, 0
14, 81178, Note_on_c, 11, 60, 0
14, 81240, Note_on_c, 11, 60, 92
14, 81240, Note_on_c, 11, 67, 92
14, 81298, Note_on_c, 11, 67, 0
14, 81298, Note_on_c, 11, 60, 0
14, 81600, Note_on_c, 11, 56, 85
14, 81600, Note_on_c, 11, 63, 85
14, 81658, Note_on_c, 11, 63, 0
14, 81658, Note_on_c, 11, 56, 0
14, 81720, Note_on_c, 11, 56, 82
14, 81720, Note_on_c, 11, 63, 82
14, 81778, Note_on_c, 11, 63, 0
14, 81778, Note_on_c, 11, 56, 0
14, 81840, Note_on_c, 11, 56, 86
14, 81840, Note_on_c, 11, 63, 86
14, 81898, Note_on_c, 11, 63, 0
14, 81898, Note_on_c, 11, 56, 0
14, 81960, Note_on_c, 11, 56, 85
14, 81960, Note_on_c, 11, 63, 85
14, 82018, Note_on_c, 11, 63, 0
14, 82018, Note_on_c, 11, 56, 0
14, 82200, Note_on_c, 11, 63, 87
14, 82200, Note_on_c, 11, 70, 87
14, 82258, Note_on_c, 11, 70, 0
14, 82258, Note_on_c, 11, 63, 0
14, 82320, Note_on_c, 11, 63, 81
14, 82320, Note_on_c, 11, 70, 81
14, 82378, Note_on_c, 11, 70, 0
14, 82378, Note_on_c, 11, 63, 0
14, 82440, Note_on_c, 11, 63, 89
14, 82440, Note_on_c, 11, 70, 89
14, 82498, Note_on_c, 11, 70, 0
14, 82498, Note_on_c, 11, 63, 0
14, 82800, Note_on_c, 11, 63, 93
14, 82800, Note_on_c, 11, 70, 93
14, 82858, Note_on_c, 11, 70, 0
14, 82858, Note_on_c, 11, 63, 0
14, 82920, Note_on_c, 11, 63, 85
14, 82920, Note_on_c, 11, 70, 85
14, 82978, Note_on_c, 11, 70, 0
14, 82978, Note_on_c, 11, 63, 0
14, 83040, Note_on_c, 11, 63, 89
14, 83040, Note_on_c, 11, 70, 89
14, 83098, Note_on_c, 11, 70, 0
14, 83098, Note_on_c, 11, 63, 0
14, 83160, Note_on_c, 11, 63, 95
14, 83160, Note_on_c, 11, 70, 95
14, 83218, Note_on_c, 11, 70, 0
14, 83218, Note_on_c, 11, 63, 0
14, 83520, Note_on_c, 11, 55, 94
14, 83520, Note_on_c, 11, 62, 94
14, 83578, Note_on_c, 11, 62, 0
14, 83578, Note_on_c, 11, 55, 0
14, 83640, Note_on_c, 11, 55, 89
14, 83640, Note_on_c, 11, 62, 89
14, 83698, Note_on_c, 11, 62, 0
14, 83698, Note_on_c, 11, 55, 0
14, 83760, Note_on_c, 11, 55, 94
14, 83760, Note_on_c, 11, 62, 94
14, 83818, Note_on_c, 11, 62, 0
14, 83818, Note_on_c, 11, 55, 0
14, 83880, Note_on_c, 11, 55, 98
14, 83880, Note_on_c, 11, 62, 98
14, 83938, Note_on_c, 11, 62, 0
14, 83938, Note_on_c, 11, 55, 0
14, 84120, Note_on_c, 11, 55, 92
14, 84120, Note_on_c, 11, 62, 92
14, 84178, Note_on_c, 11, 62, 0
14, 84178, Note_on_c, 11, 55, 0
14, 84240, Note_on_c, 11, 55, 86
14, 84240, Note_on_c, 11, 62, 86
14, 84298, Note_on_c, 11, 62, 0
14, 84298, Note_on_c, 11, 55, 0
14, 84360, Note_on_c, 11, 55, 92
14, 84360, Note_on_c, 11, 62, 92
14, 84418, Note_on_c, 11, 62, 0
14, 84418, Note_on_c, 11, 55, 0
14, 84720, Note_on_c, 11, 60, 89
14, 84720, Note_on_c, 11, 67, 89
14, 84778, Note_on_c, 11, 67, 0
14, 84778, Note_on_c, 11, 60, 0
14, 84840, Note_on_c, 11, 60, 84
14, 84840, Note_on_c, 11, 67, 84
14, 84898, Note_on_c, 11, 67, 0
14, 84898, Note_on_c, 11, 60, 0
14, 84960, Note_on_c, 11, 60, 89
14, 84960, Note_on_c, 11, 67, 89
14, 85018, Note_on_c, 11, 67, 0
14, 85018, Note_on_c, 11, 60, 0
14, 85080, Note_on_c, 11, 60, 92
14, 85080, Note_on_c, 11, 67, 92
14, 85138, Note_on_c, 11, 67, 0
14, 85138, Note_on_c, 11, 60, 0
14, 85440, Note_on_c, 11, 56, 85
14, 85440, Note_on_c, 11, 63, 85
14, 85498, Note_on_c, 11, 63, 0
14, 85498, Note_on_c, 11, 56, 0
14, 85560, Note_on_c, 11, 56, 82
14, 85560, Note_on_c, 11, 63, 82
14, 85618, Note_on_c, 11, 63, 0
14, 85618, Note_on_c, 11, 56, 0
14, 85680, Note_on_c, 11, 56, 86
14, 85680, Note_on_c, 11, 63, 86
14, 85738, Note_on_c, 11, 63, 0
14, 85738, Note_on_c, 11, 56, 0
14, 85800, Note_on_c, 11, 56, 85
14, 85800, Note_on_c, 11, 63, 85
14, 85858, Note_on_c, 11, 63, 0
14, 85858, Note_on_c, 11, 56, 0
14, 86040, Note_on_c, 11, 63, 87
14, 86040, Note_on_c, 11, 70, 87
14, 86098, Note_on_c, 11, 70, 0
14, 86098, Note_on_c, 11, 63, 0
14, 86160, Note_on_c, 11, 63, 81
14, 86160, Note_on_c, 11, 70, 81
14, 86218, Note_on_c, 11, 70, 0
14, 86218, Note_on_c, 11, 63, 0
14, 86280, Note_on_c, 11, 63, 89
14, 86280, Note_on_c, 11, 70, 89
14, 86338, Note_on_c, 11, 70, 0
14, 86338, Note_on_c, 11, 63, 0
14, 86640, Note_on_c, 11, 63, 93
14, 86640, Note_on_c, 11, 70, 93
14, 86698, Note_on_c, 11, 70, 0
14, 86698, Note_on_c, 11, 63, 0
14, 86760, Note_on_c, 11, 63, 85
14, 86760, Note_on_c, 11, 70, 85
14, 86818, Note_on_c, 11, 70, 0
14, 86818, Note_on_c, 11, 63, 0
14, 86880, Note_on_c, 11, 63, 89
14, 86880, Note_on_c, 11, 70, 89
14, 86938, Note_on_c, 11, 70, 0
14, 86938, Note_on_c, 11, 63, 0
14, 87000, Note_on_c, 11, 63, 95
14, 87000, Note_on_c, 11, 70, 95
14, 87058, Note_on_c, 11, 70, 0
14, 87058, Note_on_c, 11, 63, 0
14, 87360, Note_on_c, 11, 55, 94
14, 87360, Note_on_c, 11, 62, 94
14, 87418, Note_on_c, 11, 62, 0
14, 87418, Note_on_c, 11, 55, 0
14, 87480, Note_on_c, 11, 55, 89
14, 87480, Note_on_c, 11, 62, 89
14, 87538, Note_on_c, 11, 62, 0
14, 87538, Note_on_c, 11, 55, 0
14, 87600, Note_on_c, 11, 55, 94
14, 87600, Note_on_c, 11, 62, 94
14, 87658, Note_on_c, 11, 62, 0
14, 87658, Note_on_c, 11, 55, 0
14, 87720, Note_on_c, 11, 55, 98
14, 87720, Note_on_c, 11, 62, 98
14, 87778, Note_on_c, 11, 62, 0
14, 87778, Note_on_c, 11, 55, 0
14, 87960, Note_on_c, 11, 55, 92
14, 87960, Note_on_c, 11, 62, 92
14, 88018, Note_on_c, 11, 62, 0
14, 88018, Note_on_c, 11, 55, 0
14, 88080, Note_on_c, 11, 55, 86
14, 88080, Note_on_c, 11, 62, 86
14, 88138, Note_on_c, 11, 62, 0
14, 88138, Note_on_c, 11, 55, 0
14, 88200, Note_on_c, 11, 55, 92
14, 88200, Note_on_c, 11, 62, 92
14, 88258, Note_on_c, 11, 62, 0
14, 88258, Note_on_c, 11, 55, 0
14, 88258, End_track
15, 0, Start_track
15, 0, MIDI_port, 0
15, 0, Title_t, "SynStr"
15, 540, Control_c, 12, 0, 0
15, 542, Program_c, 12, 50
15, 543, Control_c, 12, 7, 100
15, 543, Control_c, 12, 10, 64
15, 1575, Control_c, 12, 121, 0
15, 1582, Control_c, 12, 91, 50
15, 1583, Control_c, 12, 93, 50
15, 1585, Control_c, 12, 94, 0
15, 1586, Control_c, 12, 11, 127
15, 1590, Control_c, 12, 101, 0
15, 1590, Control_c, 12, 100, 0
15, 1590, Control_c, 12, 6, 2
15, 1590, Control_c, 12, 38, 0
15, 1591, Control_c, 12, 71, 64
15, 1592, Control_c, 12, 72, 64
15, 1593, Control_c, 12, 73, 64
15, 1595, Control_c, 12, 74, 64
15, 3840, Note_on_c, 12, 55, 45
15, 3840, Note_on_c, 12, 60, 45
15, 3840, Note_on_c, 12, 63, 45
15, 4473, Note_on_c, 12, 63, 0
15, 4477, Note_on_c, 12, 60, 0
15, 4481, Note_on_c, 12, 55, 0
15, 4560, Note_on_c, 12, 56, 45
15, 4560, Note_on_c, 12, 60, 45
15, 4560, Note_on_c, 12, 63, 45
15, 5382, Note_on_c, 12, 56, 0
15, 5390, Note_on_c, 12, 63, 0
15, 5419, Note_on_c, 12, 60, 0
15, 5520, Note_on_c, 12, 55, 45
15, 5520, Note_on_c, 12, 58, 45
15, 5520, Note_on_c, 12, 63, 45
15, 6407, Note_on_c, 12, 58, 0
15, 6411, Note_on_c, 12, 55, 0
15, 6427, Note_on_c, 12, 63, 0
15, 6480, Note_on_c, 12, 55, 45
15, 6480, Note_on_c, 12, 58, 45
15, 6480, Note_on_c, 12, 62, 45
15, 7548, Note_on_c, 12, 62, 0
15, 7552, Note_on_c, 12, 55, 0
15, 7560, Note_on_c, 12, 58, 0
15, 7680, Note_on_c, 12, 55, 45
15, 7680, Note_on_c, 12, 60, 45
15, 7680, Note_on_c, 12, 63, 45
15, 8313, Note_on_c, 12, 63, 0
15, 8317, Note_on_c, 12, 60, 0
15, 8321, Note_on_c, 12, 55, 0
15, 8400, Note_on_c, 12, 56, 45
15, 8400, Note_on_c, 12, 60, 45
15, 8400, Note_on_c, 12, 63, 45
15, 9222, Note_on_c, 12, 56, 0
15, 9230, Note_on_c, 12, 63, 0
15, 9259, Note_on_c, 12, 60, 0
15, 9360, Note_on_c, 12, 55, 45
15, 9360, Note_on_c, 12, 58, 45
15, 9360, Note_on_c, 12, 63, 45
15, 10247, Note_on_c, 12, 58, 0
15, 10251, Note_on_c, 12, 55, 0
15, 10267, Note_on_c, 12, 63, 0
15, 10320, Note_on_c, 12, 55, 45
15, 10320, Note_on_c, 12, 58, 45
15, 10320, Note_on_c, 12, 62, 45
15, 11388, Note_on_c, 12, 62, 0
15, 11392, Note_on_c, 12, 55, 0
15, 11400, Note_on_c, 12, 58, 0
15, 11520, Note_on_c, 12, 55, 45
15, 11520, Note_on_c, 12, 60, 45
15, 11520, Note_on_c, 12, 63, 45
15, 12167, Note_on_c, 12, 63, 0
15, 12176, Note_on_c, 12, 60, 0
15, 12186, Note_on_c, 12, 55, 0
15, 12240, Note_on_c, 12, 56, 45
15, 12240, Note_on_c, 12, 60, 45
15, 12240, Note_on_c, 12, 63, 45
15, 13095, Note_on_c, 12, 63, 0
15, 13097, Note_on_c, 12, 56, 0
15, 13133, Note_on_c, 12, 60, 0
15, 13200, Note_on_c, 12, 55, 45
15, 13200, Note_on_c, 12, 58, 45
15, 13200, Note_on_c, 12, 63, 45
15, 14034, Note_on_c, 12, 55, 0
15, 14041, Note_on_c, 12, 58, 0
15, 14057, Note_on_c, 12, 63, 0
15, 14160, Note_on_c, 12, 55, 45
15, 14160, Note_on_c, 12, 58, 45
15, 14160, Note_on_c, 12, 62, 45
15, 15248, Note_on_c, 12, 62, 0
15, 15250, Note_on_c, 12, 55, 0
15, 15293, Note_on_c, 12, 58, 0
15, 15360, Note_on_c, 12, 55, 45
15, 15360, Note_on_c, 12, 60, 45
15, 15360, Note_on_c, 12, 63, 45
15, 15998, Note_on_c, 12, 63, 0
15, 16005, Note_on_c, 12, 55, 0
15, 16011, Note_on_c, 12, 60, 0
15, 16080, Note_on_c, 12, 56, 45
15, 16080, Note_on_c, 12, 60, 45
15, 16080, Note_on_c, 12, 63, 45
15, 16929, Note_on_c, 12, 56, 0
15, 16949, Note_on_c, 12, 63, 0
15, 16957, Note_on_c, 12, 60, 0
15, 17040, Note_on_c, 12, 55, 45
15, 17040, Note_on_c, 12, 58, 45
15, 17040, Note_on_c, 12, 63, 45
15, 17848, Note_on_c, 12, 55, 0
15, 17853, Note_on_c, 12, 58, 0
15, 17869, Note_on_c, 12, 63, 0
15, 18000, Note_on_c, 12, 55, 45
15, 18000, Note_on_c, 12, 58, 45
15, 18000, Note_on_c, 12, 62, 45
15, 19185, Note_on_c, 12, 58, 0
15, 19196, Note_on_c, 12, 55, 0
15, 19212, Note_on_c, 12, 62, 0
15, 34560, Note_on_c, 12, 60, 45
15, 34560, Note_on_c, 12, 63, 45
15, 34560, Note_on_c, 12, 67, 45
15, 36130, Note_on_c, 12, 63, 0
15, 36140, Note_on_c, 12, 60, 0
15, 36147, Note_on_c, 12, 67, 0
15, 36240, Note_on_c, 12, 60, 45
15, 36240, Note_on_c, 12, 63, 45
15, 36240, Note_on_c, 12, 68, 45
15, 38178, Note_on_c, 12, 60, 0
15, 38237, Note_on_c, 12, 68, 0
15, 38246, Note_on_c, 12, 63, 0
15, 38400, Note_on_c, 12, 58, 45
15, 38400, Note_on_c, 12, 63, 45
15, 38400, Note_on_c, 12, 67, 45
15, 39890, Note_on_c, 12, 67, 0
15, 39941, Note_on_c, 12, 58, 0
15, 39987, Note_on_c, 12, 63, 0
15, 40080, Note_on_c, 12, 58, 45
15, 40080, Note_on_c, 12, 62, 45
15, 40080, Note_on_c, 12, 65, 45
15, 42141, Note_on_c, 12, 62, 0
15, 42141, Note_on_c, 12, 58, 0
15, 42181, Note_on_c, 12, 65, 0
15, 42240, Note_on_c, 12, 60, 45
15, 42240, Note_on_c, 12, 63, 45
15, 42240, Note_on_c, 12, 67, 45
15, 43810, Note_on_c, 12, 63, 0
15, 43820, Note_on_c, 12, 60, 0
15, 43827, Note_on_c, 12, 67, 0
15, 43920, Note_on_c, 12, 60, 45
15, 43920, Note_on_c, 12, 63, 45
15, 43920, Note_on_c, 12, 68, 45
15, 45858, Note_on_c, 12, 60, 0
15, 45917, Note_on_c, 12, 68, 0
15, 45926, Note_on_c, 12, 63, 0
15, 46080, Note_on_c, 12, 58, 45
15, 46080, Note_on_c, 12, 63, 45
15, 46080, Note_on_c, 12, 67, 45
15, 47570, Note_on_c, 12, 67, 0
15, 47621, Note_on_c, 12, 58, 0
15, 47667, Note_on_c, 12, 63, 0
15, 47760, Note_on_c, 12, 58, 45
15, 47760, Note_on_c, 12, 62, 45
15, 47760, Note_on_c, 12, 65, 45
15, 49821, Note_on_c, 12, 62, 0
15, 49821, Note_on_c, 12, 58, 0
15, 49861, Note_on_c, 12, 65, 0
15, 49920, Note_on_c, 12, 55, 45
15, 49920, Note_on_c, 12, 60, 45
15, 49920, Note_on_c, 12, 63, 45
15, 50517, Note_on_c, 12, 55, 0
15, 50518, Note_on_c, 12, 63, 0
15, 50521, Note_on_c, 12, 60, 0
15, 50640, Note_on_c, 12, 56, 45
15, 50640, Note_on_c, 12, 60, 45
15, 50640, Note_on_c, 12, 63, 45
15, 51507, Note_on_c, 12, 56, 0
15, 51535, Note_on_c, 12, 63, 0
15, 51564, Note_on_c, 12, 60, 0
15, 51600, Note_on_c, 12, 55, 45
15, 51600, Note_on_c, 12, 58, 45
15, 51600, Note_on_c, 12, 63, 45
15, 52706, Note_on_c, 12, 55, 0
15, 52718, Note_on_c, 12, 58, 0
15, 52733, Note_on_c, 12, 63, 0
15, 52800, Note_on_c, 12, 53, 45
15, 52800, Note_on_c, 12, 58, 45
15, 52800, Note_on_c, 12, 62, 45
15, 53588, Note_on_c, 12, 53, 0
15, 53607, Note_on_c, 12, 62, 0
15, 53646, Note_on_c, 12, 58, 0
15, 53760, Note_on_c, 12, 55, 45
15, 53760, Note_on_c, 12, 60, 45
15, 53760, Note_on_c, 12, 63, 45
15, 54391, Note_on_c, 12, 63, 0
15, 54394, Note_on_c, 12, 55, 0
15, 54396, Note_on_c, 12, 60, 0
15, 54480, Note_on_c, 12, 56, 45
15, 54480, Note_on_c, 12, 60, 45
15, 54480, Note_on_c, 12, 63, 45
15, 55326, Note_on_c, 12, 56, 0
15, 55386, Note_on_c, 12, 63, 0
15, 55397, Note_on_c, 12, 60, 0
15, 55440, Note_on_c, 12, 55, 45
15, 55440, Note_on_c, 12, 58, 45
15, 55440, Note_on_c, 12, 63, 45
15, 56519, Note_on_c, 12, 55, 0
15, 56533, Note_on_c, 12, 58, 0
15, 56534, Note_on_c, 12, 63, 0
15, 56640, Note_on_c, 12, 53, 45
15, 56640, Note_on_c, 12, 58, 45
15, 56640, Note_on_c, 12, 62, 45
15, 57499, Note_on_c, 12, 53, 0
15, 57509, Note_on_c, 12, 58, 0
15, 57530, Note_on_c, 12, 62, 0
15, 57600, Note_on_c, 12, 55, 45
15, 57600, Note_on_c, 12, 60, 45
15, 57600, Note_on_c, 12, 63, 45
15, 58197, Note_on_c, 12, 55, 0
15, 58198, Note_on_c, 12, 63, 0
15, 58201, Note_on_c, 12, 60, 0
15, 58320, Note_on_c, 12, 56, 45
15, 58320, Note_on_c, 12, 60, 45
15, 58320, Note_on_c, 12, 63, 45
15, 59187, Note_on_c, 12, 56, 0
15, 59215, Note_on_c, 12, 63, 0
15, 59244, Note_on_c, 12, 60, 0
15, 59280, Note_on_c, 12, 55, 45
15, 59280, Note_on_c, 12, 58, 45
15, 59280, Note_on_c, 12, 63, 45
15, 60386, Note_on_c, 12, 55, 0
15, 60398, Note_on_c, 12, 58, 0
15, 60413, Note_on_c, 12, 63, 0
15, 60480, Note_on_c, 12, 53, 45
15, 60480, Note_on_c, 12, 58, 45
15, 60480, Note_on_c, 12, 62, 45
15, 61268, Note_on_c, 12, 53, 0
15, 61287, Note_on_c, 12, 62, 0
15, 61326, Note_on_c, 12, 58, 0
15, 61440, Note_on_c, 12, 55, 45
15, 61440, Note_on_c, 12, 60, 45
15, 61440, Note_on_c, 12, 63, 45
15, 62071, Note_on_c, 12, 63, 0
15, 62074, Note_on_c, 12, 55, 0
15, 62076, Note_on_c, 12, 60, 0
15, 62160, Note_on_c, 12, 56, 45
15, 62160, Note_on_c, 12, 60, 45
15, 62160, Note_on_c, 12, 63, 45
15, 63006, Note_on_c, 12, 56, 0
15, 63066, Note_on_c, 12, 63, 0
15, 63077, Note_on_c, 12, 60, 0
15, 63120, Note_on_c, 12, 55, 45
15, 63120, Note_on_c, 12, 58, 45
15, 63120, Note_on_c, 12, 63, 45
15, 64199, Note_on_c, 12, 55, 0
15, 64213, Note_on_c, 12, 58, 0
15, 64214, Note_on_c, 12, 63, 0
15, 64320, Note_on_c, 12, 53, 45
15, 64320, Note_on_c, 12, 58, 45
15, 64320, Note_on_c, 12, 62, 45
15, 65179, Note_on_c, 12, 53, 0
15, 65189, Note_on_c, 12, 58, 0
15, 65210, Note_on_c, 12, 62, 0
15, 65280, Note_on_c, 12, 55, 45
15, 65280, Note_on_c, 12, 60, 45
15, 65280, Note_on_c, 12, 63, 45
15, 65877, Note_on_c, 12, 55, 0
15, 65878, Note_on_c, 12, 63, 0
15, 65881, Note_on_c, 12, 60, 0
15, 66000, Note_on_c, 12, 56, 45
15, 66000, Note_on_c, 12, 60, 45
15, 66000, Note_on_c, 12, 63, 45
15, 66867, Note_on_c, 12, 56, 0
15, 66895, Note_on_c, 12, 63, 0
15, 66924, Note_on_c, 12, 60, 0
15, 66960, Note_on_c, 12, 55, 45
15, 66960, Note_on_c, 12, 58, 45
15, 66960, Note_on_c, 12, 63, 45
15, 68066, Note_on_c, 12, 55, 0
15, 68078, Note_on_c, 12, 58, 0
15, 68093, Note_on_c, 12, 63, 0
15, 68160, Note_on_c, 12, 53, 45
15, 68160, Note_on_c, 12, 58, 45
15, 68160, Note_on_c, 12, 62, 45
15, 68948, Note_on_c, 12, 53, 0
15, 68967, Note_on_c, 12, 62, 0
15, 69006, Note_on_c, 12, 58, 0
15, 69120, Note_on_c, 12, 55, 45
15, 69120, Note_on_c, 12, 60, 45
15, 69120, Note_on_c, 12, 63, 45
15, 69751, Note_on_c, 12, 63, 0
15, 69754, Note_on_c, 12, 55, 0
15, 69756, Note_on_c, 12, 60, 0
15, 69840, Note_on_c, 12, 56, 45
15, 69840, Note_on_c, 12, 60, 45
15, 69840, Note_on_c, 12, 63, 45
15, 70686, Note_on_c, 12, 56, 0
15, 70746, Note_on_c, 12, 63, 0
15, 70757, Note_on_c, 12, 60, 0
15, 70800, Note_on_c, 12, 55, 45
15, 70800, Note_on_c, 12, 58, 45
15, 70800, Note_on_c, 12, 63, 45
15, 71879, Note_on_c, 12, 55, 0
15, 71893, Note_on_c, 12, 58, 0
15, 71894, Note_on_c, 12, 63, 0
15, 72000, Note_on_c, 12, 53, 45
15, 72000, Note_on_c, 12, 58, 45
15, 72000, Note_on_c, 12, 62, 45
15, 72859, Note_on_c, 12, 53, 0
15, 72869, Note_on_c, 12, 58, 0
15, 72890, Note_on_c, 12, 62, 0
15, 88320, Note_on_c, 12, 60, 45
15, 88320, Note_on_c, 12, 63, 45
15, 88320, Note_on_c, 12, 67, 45
15, 89890, Note_on_c, 12, 63, 0
15, 89900, Note_on_c, 12, 60, 0
15, 89907, Note_on_c, 12, 67, 0
15, 90000, Note_on_c, 12, 60, 45
15, 90000, Note_on_c, 12, 63, 45
15, 90000, Note_on_c, 12, 68, 45
15, 91938, Note_on_c, 12, 60, 0
15, 91997, Note_on_c, 12, 68, 0
15, 92006, Note_on_c, 12, 63, 0
15, 92160, Note_on_c, 12, 58, 45
15, 92160, Note_on_c, 12, 63, 45
15, 92160, Note_on_c, 12, 67, 45
15, 93650, Note_on_c, 12, 67, 0
15, 93701, Note_on_c, 12, 58, 0
15, 93747, Note_on_c, 12, 63, 0
15, 93840, Note_on_c, 12, 58, 45
15, 93840, Note_on_c, 12, 62, 45
15, 93840, Note_on_c, 12, 65, 45
15, 95901, Note_on_c, 12, 62, 0
15, 95901, Note_on_c, 12, 58, 0
15, 95941, Note_on_c, 12, 65, 0
15, 96000, Note_on_c, 12, 60, 45
15, 96000, Note_on_c, 12, 63, 45
15, 96000, Note_on_c, 12, 67, 45
15, 97570, Note_on_c, 12, 63, 0
15, 97580, Note_on_c, 12, 60, 0
15, 97587, Note_on_c, 12, 67, 0
15, 97680, Note_on_c, 12, 60, 45
15, 97680, Note_on_c, 12, 63, 45
15, 97680, Note_on_c, 12, 68, 45
15, 99618, Note_on_c, 12, 60, 0
15, 99677, Note_on_c, 12, 68, 0
15, 99686, Note_on_c, 12, 63, 0
15, 99840, Note_on_c, 12, 58, 45
15, 99840, Note_on_c, 12, 63, 45
15, 99840, Note_on_c, 12, 67, 45
15, 101330, Note_on_c, 12, 67, 0
15, 101381, Note_on_c, 12, 58, 0
15, 101427, Note_on_c, 12, 63, 0
15, 101520, Note_on_c, 12, 58, 45
15, 101520, Note_on_c, 12, 62, 45
15, 101520, Note_on_c, 12, 65, 45
15, 103581, Note_on_c, 12, 62, 0
15, 103581, Note_on_c, 12, 58, 0
15, 103621, Note_on_c, 12, 65, 0
15, 103680, Note_on_c, 12, 55, 45
15, 103680, Note_on_c, 12, 60, 45
15, 103680, Note_on_c, 12, 63, 45
15, 104277, Note_on_c, 12, 55, 0
15, 104278, Note_on_c, 12, 63, 0
15, 104281, Note_on_c, 12, 60, 0
15, 104400, Note_on_c, 12, 56, 45
15, 104400, Note_on_c, 12, 60, 45
15, 104400, Note_on_c, 12, 63, 45
15, 105267, Note_on_c, 12, 56, 0
15, 105295, Note_on_c, 12, 63, 0
15, 105324, Note_on_c, 12, 60, 0
15, 105360, Note_on_c, 12, 55, 45
15, 105360, Note_on_c, 12, 58, 45
15, 105360, Note_on_c, 12, 63, 45
15, 106466, Note_on_c, 12, 55, 0
15, 106478, Note_on_c, 12, 58, 0
15, 106493, Note_on_c, 12, 63, 0
15, 106560, Note_on_c, 12, 53, 45
15, 106560, Note_on_c, 12, 58, 45
15, 106560, Note_on_c, 12, 62, 45
15, 107348, Note_on_c, 12, 53, 0
15, 107367, Note_on_c, 12, 62, 0
15, 107406, Note_on_c, 12, 58, 0
15, 107520, Note_on_c, 12, 55, 45
15, 107520, Note_on_c, 12, 60, 45
15, 107520, Note_on_c, 12, 63, 45
15, 108151, Note_on_c, 12, 63, 0
15, 108154, Note_on_c, 12, 55, 0
15, 108156, Note_on_c, 12, 60, 0
15, 108240, Note_on_c, 12, 56, 45
15, 108240, Note_on_c, 12, 60, 45
15, 108240, Note_on_c, 12, 63, 45
15, 109086, Note_on_c, 12, 56, 0
15, 109146, Note_on_c, 12, 63, 0
15, 109157, Note_on_c, 12, 60, 0
15, 109200, Note_on_c, 12, 55, 45
15, 109200, Note_on_c, 12, 58, 45
15, 109200, Note_on_c, 12, 63, 45
15, 110279, Note_on_c, 12, 55, 0
15, 110293, Note_on_c, 12, 58, 0
15, 110294, Note_on_c, 12, 63, 0
15, 110400, Note_on_c, 12, 53, 45
15, 110400, Note_on_c, 12, 58, 45
15, 110400, Note_on_c, 12, 62, 45
15, 111259, Note_on_c, 12, 53, 0
15, 111269, Note_on_c, 12, 58, 0
15, 111290, Note_on_c, 12, 62, 0
15, 111360, Note_on_c, 12, 55, 45
15, 111360, Note_on_c, 12, 60, 45
15, 111360, Note_on_c, 12, 63, 45
15, 111957, Note_on_c, 12, 55, 0
15, 111958, Note_on_c, 12, 63, 0
15, 111961, Note_on_c, 12, 60, 0
15, 112080, Note_on_c, 12, 56, 45
15, 112080, Note_on_c, 12, 60, 45
15, 112080, Note_on_c, 12, 63, 45
15, 112947, Note_on_c, 12, 56, 0
15, 112975, Note_on_c, 12, 63, 0
15, 113004, Note_on_c, 12, 60, 0
15, 113040, Note_on_c, 12, 55, 45
15, 113040, Note_on_c, 12, 58, 45
15, 113040, Note_on_c, 12, 63, 45
15, 114146, Note_on_c, 12, 55, 0
15, 114158, Note_on_c, 12, 58, 0
15, 114173, Note_on_c, 12, 63, 0
15, 114240, Note_on_c, 12, 53, 45
15, 114240, Note_on_c, 12, 58, 45
15, 114240, Note_on_c, 12, 62, 45
15, 115028, Note_on_c, 12, 53, 0
15, 115047, Note_on_c, 12, 62, 0
15, 115086, Note_on_c, 12, 58, 0
15, 115200, Note_on_c, 12, 55, 45
15, 115200, Note_on_c, 12, 60, 45
15, 115200, Note_on_c, 12, 63, 45
15, 115831, Note_on_c, 12, 63, 0
15, 115834, Note_on_c, 12, 55, 0
15, 115836, Note_on_c, 12, 60, 0
15, 115920, Note_on_c, 12, 56, 45
15, 115920, Note_on_c, 12, 60, 45
15, 115920, Note_on_c, 12, 63, 45
15, 116766, Note_on_c, 12, 56, 0
15, 116826, Note_on_c, 12, 63, 0
15, 116837, Note_on_c, 12, 60, 0
15, 116880, Note_on_c, 12, 55, 45
15, 116880, Note_on_c, 12, 58, 45
15, 116880, Note_on_c, 12, 63, 45
15, 117959, Note_on_c, 12, 55, 0
15, 117973, Note_on_c, 12, 58, 0
15, 117974, Note_on_c, 12, 63, 0
15, 118080, Note_on_c, 12, 53, 45
15, 118080, Note_on_c, 12, 58, 45
15, 118080, Note_on_c, 12, 62, 45
15, 118939, Note_on_c, 12, 53, 0
15, 118949, Note_on_c, 12, 58, 0
15, 118970, Note_on_c, 12, 62, 0
15, 119040, Note_on_c, 12, 55, 45
15, 119040, Note_on_c, 12, 60, 45
15, 119040, Note_on_c, 12, 63, 45
15, 119673, Note_on_c, 12, 63, 0
15, 119677, Note_on_c, 12, 60, 0
15, 119681, Note_on_c, 12, 55, 0
15, 119760, Note_on_c, 12, 56, 45
15, 119760, Note_on_c, 12, 60, 45
15, 119760, Note_on_c, 12, 63, 45
15, 120582, Note_on_c, 12, 56, 0
15, 120590, Note_on_c, 12, 63, 0
15, 120619, Note_on_c, 12, 60, 0
15, 120720, Note_on_c, 12, 55, 45
15, 120720, Note_on_c, 12, 58, 45
15, 120720, Note_on_c, 12, 63, 45
15, 121607, Note_on_c, 12, 58, 0
15, 121611, Note_on_c, 12, 55, 0
15, 121627, Note_on_c, 12, 63, 0
15, 121680, Note_on_c, 12, 55, 45
15, 121680, Note_on_c, 12, 58, 45
15, 121680, Note_on_c, 12, 62, 45
15, 122748, Note_on_c, 12, 62, 0
15, 122752, Note_on_c, 12, 55, 0
15, 122760, Note_on_c, 12, 58, 0
15, 122880, Note_on_c, 12, 55, 45
15, 122880, Note_on_c, 12, 60, 45
15, 122880, Note_on_c, 12, 63, 45
15, 123513, Note_on_c, 12, 63, 0
15, 123517, Note_on_c, 12, 60, 0
15, 123521, Note_on_c, 12, 55, 0
15, 123600, Note_on_c, 12, 56, 45
15, 123600, Note_on_c, 12, 60, 45
15, 123600, Note_on_c, 12, 63, 45
15, 124422, Note_on_c, 12, 56, 0
15, 124430, Note_on_c, 12, 63, 0
15, 124459, Note_on_c, 12, 60, 0
15, 124560, Note_on_c, 12, 55, 45
15, 124560, Note_on_c, 12, 58, 45
15, 124560, Note_on_c, 12, 63, 45
15, 125447, Note_on_c, 12, 58, 0
15, 125451, Note_on_c, 12, 55, 0
15, 125467, Note_on_c, 12, 63, 0
15, 125520, Note_on_c, 12, 55, 45
15, 125520, Note_on_c, 12, 58, 45
15, 125520, Note_on_c, 12, 62, 45
15, 126588, Note_on_c, 12, 62, 0
15, 126592, Note_on_c, 12, 55, 0
15, 126600, Note_on_c, 12, 58, 0
15, 126720, Note_on_c, 12, 55, 45
15, 126720, Note_on_c, 12, 60, 45
15, 126720, Note_on_c, 12, 63, 45
15, 127367, Note_on_c, 12, 63, 0
15, 127376, Note_on_c, 12, 60, 0
15, 127386, Note_on_c, 12, 55, 0
15, 127440, Note_on_c, 12, 56, 45
15, 127440, Note_on_c, 12, 60, 45
15, 127440, Note_on_c, 12, 63, 45
15, 128295, Note_on_c, 12, 63, 0
15, 128297, Note_on_c, 12, 56, 0
15, 128333, Note_on_c, 12, 60, 0
15, 128400, Note_on_c, 12, 55, 45
15, 128400, Note_on_c, 12, 58, 45
15, 128400, Note_on_c, 12, 63, 45
15, 129234, Note_on_c, 12, 55, 0
15, 129241, Note_on_c, 12, 58, 0
15, 129257, Note_on_c, 12, 63, 0
15, 129360, Note_on_c, 12, 55, 45
15, 129360, Note_on_c, 12, 58, 45
15, 129360, Note_on_c, 12, 62, 45
15, 130448, Note_on_c, 12, 62, 0
15, 130450, Note_on_c, 12, 55, 0
15, 130493, Note_on_c, 12, 58, 0
15, 130560, Note_on_c, 12, 55, 45
15, 130560, Note_on_c, 12, 60, 45
15, 130560, Note_on_c, 12, 63, 45
15, 131198, Note_on_c, 12, 63, 0
15, 131205, Note_on_c, 12, 55, 0
15, 131211, Note_on_c, 12, 60, 0
15, 131280, Note_on_c, 12, 56, 45
15, 131280, Note_on_c, 12, 60, 45
15, 131280, Note_on_c, 12, 63, 45
15, 132129, Note_on_c, 12, 56, 0
15, 132149, Note_on_c, 12, 63, 0
15, 132157, Note_on_c, 12, 60, 0
15, 132240, Note_on_c, 12, 55, 45
15, 132240, Note_on_c, 12, 58, 45
15, 132240, Note_on_c, 12, 63, 45
15, 133048, Note_on_c, 12, 55, 0
15, 133053, Note_on_c, 12, 58, 0
15, 133069, Note_on_c, 12, 63, 0
15, 133200, Note_on_c, 12, 55, 45
15, 133200, Note_on_c, 12, 58, 45
15, 133200, Note_on_c, 12, 62, 45
15, 134385, Note_on_c, 12, 58, 0
15, 134396, Note_on_c, 12, 55, 0
15, 134400, Note_on_c, 12, 55, 45
15, 134400, Note_on_c, 12, 60, 45
15, 134400, Note_on_c, 12, 63, 45
15, 134412, Note_on_c, 12, 62, 0
15, 135935, Note_on_c, 12, 63, 0
15, 135963, Note_on_c, 12, 60, 0
15, 135968, Note_on_c, 12, 55, 0
15, 136080, Note_on_c, 12, 56, 45
15, 136080, Note_on_c, 12, 60, 45
15, 136080, Note_on_c, 12, 63, 45
15, 137990, Note_on_c, 12, 56, 0
15, 137998, Note_on_c, 12, 63, 0
15, 137998, Note_on_c, 12, 60, 0
15, 138000, Note_on_c, 12, 55, 45
15, 138000, Note_on_c, 12, 58, 45
15, 138000, Note_on_c, 12, 63, 45
15, 139819, Note_on_c, 12, 58, 0
15, 139827, Note_on_c, 12, 63, 0
15, 139827, Note_on_c, 12, 55, 0
15, 139920, Note_on_c, 12, 55, 45
15, 139920, Note_on_c, 12, 58, 45
15, 139920, Note_on_c, 12, 62, 45
15, 142003, Note_on_c, 12, 58, 0
15, 142016, Note_on_c, 12, 62, 0
15, 142016, Note_on_c, 12, 55, 0
15, 142080, Note_on_c, 12, 55, 45
15, 142080, Note_on_c, 12, 60, 45
15, 142080, Note_on_c, 12, 63, 45
15, 143615, Note_on_c, 12, 63, 0
15, 143643, Note_on_c, 12, 60, 0
15, 143648, Note_on_c, 12, 55, 0
15, 143760, Note_on_c, 12, 56, 45
15, 143760, Note_on_c, 12, 60, 45
15, 143760, Note_on_c, 12, 63, 45
15, 145670, Note_on_c, 12, 56, 0
15, 145678, Note_on_c, 12, 63, 0
15, 145678, Note_on_c, 12, 60, 0
15, 145680, Note_on_c, 12, 55, 45
15, 145680, Note_on_c, 12, 58, 45
15, 145680, Note_on_c, 12, 63, 45
15, 147499, Note_on_c, 12, 58, 0
15, 147507, Note_on_c, 12, 63, 0
15, 147507, Note_on_c, 12, 55, 0
15, 147600, Note_on_c, 12, 55, 45
15, 147600, Note_on_c, 12, 58, 45
15, 147600, Note_on_c, 12, 62, 45
15, 149683, Note_on_c, 12, 58, 0
15, 149696, Note_on_c, 12, 62, 0
15, 149696, Note_on_c, 12, 55, 0
15, 149760, Note_on_c, 12, 55, 45
15, 149760, Note_on_c, 12, 60, 45
15, 149760, Note_on_c, 12, 63, 45
15, 150357, Note_on_c, 12, 55, 0
15, 150358, Note_on_c, 12, 63, 0
15, 150361, Note_on_c, 12, 60, 0
15, 150480, Note_on_c, 12, 56, 45
15, 150480, Note_on_c, 12, 60, 45
15, 150480, Note_on_c, 12, 63, 45
15, 151347, Note_on_c, 12, 56, 0
15, 151375, Note_on_c, 12, 63, 0
15, 151404, Note_on_c, 12, 60, 0
15, 151440, Note_on_c, 12, 55, 45
15, 151440, Note_on_c, 12, 58, 45
15, 151440, Note_on_c, 12, 63, 45
15, 152546, Note_on_c, 12, 55, 0
15, 152558, Note_on_c, 12, 58, 0
15, 152573, Note_on_c, 12, 63, 0
15, 152640, Note_on_c, 12, 55, 45
15, 152640, Note_on_c, 12, 58, 45
15, 152640, Note_on_c, 12, 62, 45
15, 153428, Note_on_c, 12, 55, 0
15, 153447, Note_on_c, 12, 62, 0
15, 153486, Note_on_c, 12, 58, 0
15, 153600, Note_on_c, 12, 55, 45
15, 153600, Note_on_c, 12, 60, 45
15, 153600, Note_on_c, 12, 63, 45
15, 154231, Note_on_c, 12, 63, 0
15, 154234, Note_on_c, 12, 55, 0
15, 154236, Note_on_c, 12, 60, 0
15, 154320, Note_on_c, 12, 56, 45
15, 154320, Note_on_c, 12, 60, 45
15, 154320, Note_on_c, 12, 63, 45
15, 155166, Note_on_c, 12, 56, 0
15, 155226, Note_on_c, 12, 63, 0
15, 155237, Note_on_c, 12, 60, 0
15, 155280, Note_on_c, 12, 55, 45
15, 155280, Note_on_c, 12, 58, 45
15, 155280, Note_on_c, 12, 63, 45
15, 156359, Note_on_c, 12, 55, 0
15, 156373, Note_on_c, 12, 58, 0
15, 156374, Note_on_c, 12, 63, 0
15, 156480, Note_on_c, 12, 55, 45
15, 156480, Note_on_c, 12, 58, 45
15, 156480, Note_on_c, 12, 62, 45
15, 157339, Note_on_c, 12, 55, 0
15, 157349, Note_on_c, 12, 58, 0
15, 157370, Note_on_c, 12, 62, 0
15, 157440, Note_on_c, 12, 55, 45
15, 157440, Note_on_c, 12, 60, 45
15, 157440, Note_on_c, 12, 63, 45
15, 158037, Note_on_c, 12, 55, 0
15, 158038, Note_on_c, 12, 63, 0
15, 158041, Note_on_c, 12, 60, 0
15, 158160, Note_on_c, 12, 56, 45
15, 158160, Note_on_c, 12, 60, 45
15, 158160, Note_on_c, 12, 63, 45
15, 159027, Note_on_c, 12, 56, 0
15, 159055, Note_on_c, 12, 63, 0
15, 159084, Note_on_c, 12, 60, 0
15, 159120, Note_on_c, 12, 55, 45
15, 159120, Note_on_c, 12, 58, 45
15, 159120, Note_on_c, 12, 63, 45
15, 160226, Note_on_c, 12, 55, 0
15, 160238, Note_on_c, 12, 58, 0
15, 160253, Note_on_c, 12, 63, 0
15, 160320, Note_on_c, 12, 55, 45
15, 160320, Note_on_c, 12, 58, 45
15, 160320, Note_on_c, 12, 62, 45
15, 161108, Note_on_c, 12, 55, 0
15, 161127, Note_on_c, 12, 62, 0
15, 161166, Note_on_c, 12, 58, 0
15, 161280, Note_on_c, 12, 55, 45
15, 161280, Note_on_c, 12, 60, 45
15, 161280, Note_on_c, 12, 63, 45
15, 161911, Note_on_c, 12, 63, 0
15, 161914, Note_on_c, 12, 55, 0
15, 161916, Note_on_c, 12, 60, 0
15, 162000, Note_on_c, 12, 56, 45
15, 162000, Note_on_c, 12, 60, 45
15, 162000, Note_on_c, 12, 63, 45
15, 162846, Note_on_c, 12, 56, 0
15, 162906, Note_on_c, 12, 63, 0
15, 162917, Note_on_c, 12, 60, 0
15, 162960, Note_on_c, 12, 55, 45
15, 162960, Note_on_c, 12, 58, 45
15, 162960, Note_on_c, 12, 63, 45
15, 164039, Note_on_c, 12, 55, 0
15, 164053, Note_on_c, 12, 58, 0
15, 164054, Note_on_c, 12, 63, 0
15, 164160, Note_on_c, 12, 55, 45
15, 164160, Note_on_c, 12, 58, 45
15, 164160, Note_on_c, 12, 62, 45
15, 165019, Note_on_c, 12, 55, 0
15, 165029, Note_on_c, 12, 58, 0
15, 165050, Note_on_c, 12, 62, 0
15, 165120, Note_on_c, 12, 55, 45
15, 165120, Note_on_c, 12, 60, 45
15, 165120, Note_on_c, 12, 63, 45
15, 165717, Note_on_c, 12, 55, 0
15, 165718, Note_on_c, 12, 63, 0
15, 165721, Note_on_c, 12, 60, 0
15, 165840, Note_on_c, 12, 56, 45
15, 165840, Note_on_c, 12, 60, 45
15, 165840, Note_on_c, 12, 63, 45
15, 166707, Note_on_c, 12, 56, 0
15, 166735, Note_on_c, 12, 63, 0
15, 166764, Note_on_c, 12, 60, 0
15, 166800, Note_on_c, 12, 55, 45
15, 166800, Note_on_c, 12, 58, 45
15, 166800, Note_on_c, 12, 63, 45
15, 167906, Note_on_c, 12, 55, 0
15, 167918, Note_on_c, 12, 58, 0
15, 167933, Note_on_c, 12, 63, 0
15, 168000, Note_on_c, 12, 53, 45
15, 168000, Note_on_c, 12, 58, 45
15, 168000, Note_on_c, 12, 62, 45
15, 168788, Note_on_c, 12, 53, 0
15, 168807, Note_on_c, 12, 62, 0
15, 168846, Note_on_c, 12, 58, 0
15, 168960, Note_on_c, 12, 55, 45
15, 168960, Note_on_c, 12, 60, 45
15, 168960, Note_on_c, 12, 63, 45
15, 169591, Note_on_c, 12, 63, 0
15, 169594, Note_on_c, 12, 55, 0
15, 169596, Note_on_c, 12, 60, 0
15, 169680, Note_on_c, 12, 56, 45
15, 169680, Note_on_c, 12, 60, 45
15, 169680, Note_on_c, 12, 63, 45
15, 170526, Note_on_c, 12, 56, 0
15, 170586, Note_on_c, 12, 63, 0
15, 170597, Note_on_c, 12, 60, 0
15, 170640, Note_on_c, 12, 55, 45
15, 170640, Note_on_c, 12, 58, 45
15, 170640, Note_on_c, 12, 63, 45
15, 171719, Note_on_c, 12, 55, 0
15, 171733, Note_on_c, 12, 58, 0
15, 171734, Note_on_c, 12, 63, 0
15, 171840, Note_on_c, 12, 53, 45
15, 171840, Note_on_c, 12, 58, 45
15, 171840, Note_on_c, 12, 62, 45
15, 172699, Note_on_c, 12, 53, 0
15, 172709, Note_on_c, 12, 58, 0
15, 172730, Note_on_c, 12, 62, 0
15, 172800, Note_on_c, 12, 55, 45
15, 172800, Note_on_c, 12, 60, 45
15, 172800, Note_on_c, 12, 63, 45
15, 173397, Note_on_c, 12, 55, 0
15, 173398, Note_on_c, 12, 63, 0
15, 173401, Note_on_c, 12, 60, 0
15, 173520, Note_on_c, 12, 56, 45
15, 173520, Note_on_c, 12, 60, 45
15, 173520, Note_on_c, 12, 63, 45
15, 174387, Note_on_c, 12, 56, 0
15, 174415, Note_on_c, 12, 63, 0
15, 174444, Note_on_c, 12, 60, 0
15, 174480, Note_on_c, 12, 55, 45
15, 174480, Note_on_c, 12, 58, 45
15, 174480, Note_on_c, 12, 63, 45
15, 175586, Note_on_c, 12, 55, 0
15, 175598, Note_on_c, 12, 58, 0
15, 175613, Note_on_c, 12, 63, 0
15, 175680, Note_on_c, 12, 53, 45
15, 175680, Note_on_c, 12, 58, 45
15, 175680, Note_on_c, 12, 62, 45
15, 176468, Note_on_c, 12, 53, 0
15, 176487, Note_on_c, 12, 62, 0
15, 176526, Note_on_c, 12, 58, 0
15, 176640, Note_on_c, 12, 55, 45
15, 176640, Note_on_c, 12, 60, 45
15, 176640, Note_on_c, 12, 63, 45
15, 177271, Note_on_c, 12, 63, 0
15, 177274, Note_on_c, 12, 55, 0
15, 177276, Note_on_c, 12, 60, 0
15, 177360, Note_on_c, 12, 56, 45
15, 177360, Note_on_c, 12, 60, 45
15, 177360, Note_on_c, 12, 63, 45
15, 178206, Note_on_c, 12, 56, 0
15, 178266, Note_on_c, 12, 63, 0
15, 178277, Note_on_c, 12, 60, 0
15, 178320, Note_on_c, 12, 55, 45
15, 178320, Note_on_c, 12, 58, 45
15, 178320, Note_on_c, 12, 63, 45
15, 179399, Note_on_c, 12, 55, 0
15, 179413, Note_on_c, 12, 58, 0
15, 179414, Note_on_c, 12, 63, 0
15, 179520, Note_on_c, 12, 53, 45
15, 179520, Note_on_c, 12, 58, 45
15, 179520, Note_on_c, 12, 62, 45
15, 180379, Note_on_c, 12, 53, 0
15, 180389, Note_on_c, 12, 58, 0
15, 180410, Note_on_c, 12, 62, 0
15, 180480, Note_on_c, 12, 55, 45
15, 180480, Note_on_c, 12, 60, 45
15, 180480, Note_on_c, 12, 63, 45
15, 181113, Note_on_c, 12, 63, 0
15, 181117, Note_on_c, 12, 60, 0
15, 181121, Note_on_c, 12, 55, 0
15, 181200, Note_on_c, 12, 56, 45
15, 181200, Note_on_c, 12, 60, 45
15, 181200, Note_on_c, 12, 63, 45
15, 182022, Note_on_c, 12, 56, 0
15, 182030, Note_on_c, 12, 63, 0
15, 182059, Note_on_c, 12, 60, 0
15, 182160, Note_on_c, 12, 55, 45
15, 182160, Note_on_c, 12, 58, 45
15, 182160, Note_on_c, 12, 63, 45
15, 183047, Note_on_c, 12, 58, 0
15, 183051, Note_on_c, 12, 55, 0
15, 183067, Note_on_c, 12, 63, 0
15, 183120, Note_on_c, 12, 55, 45
15, 183120, Note_on_c, 12, 58, 45
15, 183120, Note_on_c, 12, 62, 45
15, 184188, Note_on_c, 12, 62, 0
15, 184192, Note_on_c, 12, 55, 0
15, 184200, Note_on_c, 12, 58, 0
15, 184320, Note_on_c, 12, 55, 45
15, 184320, Note_on_c, 12, 60, 45
15, 184320, Note_on_c, 12, 63, 45
15, 184953, Note_on_c, 12, 63, 0
15, 184957, Note_on_c, 12, 60, 0
15, 184961, Note_on_c, 12, 55, 0
15, 185040, Note_on_c, 12, 56, 45
15, 185040, Note_on_c, 12, 60, 45
15, 185040, Note_on_c, 12, 63, 45
15, 185862, Note_on_c, 12, 56, 0
15, 185870, Note_on_c, 12, 63, 0
15, 185899, Note_on_c, 12, 60, 0
15, 186000, Note_on_c, 12, 55, 45
15, 186000, Note_on_c, 12, 58, 45
15, 186000, Note_on_c, 12, 63, 45
15, 186887, Note_on_c, 12, 58, 0
15, 186891, Note_on_c, 12, 55, 0
15, 186907, Note_on_c, 12, 63, 0
15, 186960, Note_on_c, 12, 55, 45
15, 186960, Note_on_c, 12, 58, 45
15, 186960, Note_on_c, 12, 62, 45
15, 188028, Note_on_c, 12, 62, 0
15, 188032, Note_on_c, 12, 55, 0
15, 188040, Note_on_c, 12, 58, 0
15, 188160, Note_on_c, 12, 55, 45
15, 188160, Note_on_c, 12, 60, 45
15, 188160, Note_on_c, 12, 63, 45
15, 188807, Note_on_c, 12, 63, 0
15, 188816, Note_on_c, 12, 60, 0
15, 188826, Note_on_c, 12, 55, 0
15, 188880, Note_on_c, 12, 56, 45
15, 188880, Note_on_c, 12, 60, 45
15, 188880, Note_on_c, 12, 63, 45
15, 189735, Note_on_c, 12, 63, 0
15, 189737, Note_on_c, 12, 56, 0
15, 189773, Note_on_c, 12, 60, 0
15, 189840, Note_on_c, 12, 55, 45
15, 189840, Note_on_c, 12, 58, 45
15, 189840, Note_on_c, 12, 63, 45
15, 190674, Note_on_c, 12, 55, 0
15, 190681, Note_on_c, 12, 58, 0
15, 190697, Note_on_c, 12, 63, 0
15, 190800, Note_on_c, 12, 55, 45
15, 190800, Note_on_c, 12, 58, 45
15, 190800, Note_on_c, 12, 62, 45
15, 191888, Note_on_c, 12, 62, 0
15, 191890, Note_on_c, 12, 55, 0
15, 191933, Note_on_c, 12, 58, 0
15, 192000, Note_on_c, 12, 55, 45
15, 192000, Note_on_c, 12, 60, 45
15, 192000, Note_on_c, 12, 63, 45
15, 192638, Note_on_c, 12, 63, 0
15, 192645, Note_on_c, 12, 55, 0
15, 192651, Note_on_c, 12, 60, 0
15, 192720, Note_on_c, 12, 56, 45
15, 192720, Note_on_c, 12, 60, 45
15, 192720, Note_on_c, 12, 63, 45
15, 193569, Note_on_c, 12, 56, 0
15, 193589, Note_on_c, 12, 63, 0
15, 193597, Note_on_c, 12, 60, 0
15, 193680, Note_on_c, 12, 55, 45
15, 193680, Note_on_c, 12, 58, 45
15, 193680, Note_on_c, 12, 63, 45
15, 195577, Note_on_c, 12, 55, 0
15, 195582, Note_on_c, 12, 58, 0
15, 195598, Note_on_c, 12, 63, 0
15, 195598, End_track
0, 0, End_of_file
