0, 0, Header, 1, 5, 96
1, 0, Start_track
1, 0, Time_signature, 4, 2, 24, 8
1, 0, Key_signature, 0, "major"
1, 0, Tempo, 480000
1, 0, End_track
2, 0, Start_track
2, 0, MIDI_port, 0
2, 0, Control_c, 2, 7, 127
2, 0, Control_c, 2, 10, 30
2, 0, Control_c, 2, 0, 1
2, 3, Control_c, 2, 0, 0
2, 3, Program_c, 2, 61
2, 9, Control_c, 2, 7, 127
2, 10, Control_c, 2, 7, 127
2, 11, Control_c, 2, 7, 127
2, 12, Control_c, 2, 7, 127
2, 13, Control_c, 2, 7, 127
2, 384, Control_c, 2, 0, 0
2, 384, Program_c, 2, 61
2, 4268, Note_on_c, 2, 81, 127
2, 4269, Note_on_c, 2, 69, 127
2, 4384, Note_on_c, 2, 69, 0
2, 4385, Note_on_c, 2, 81, 0
2, 5710, Note_on_c, 2, 76, 127
2, 5724, Note_on_c, 2, 76, 0
2, 5761, Note_on_c, 2, 74, 127
2, 5824, Note_on_c, 2, 74, 0
2, 5839, Note_on_c, 2, 76, 127
2, 5852, Note_on_c, 2, 76, 0
2, 5865, Note_on_c, 2, 74, 127
2, 5877, Note_on_c, 2, 74, 0
2, 5892, Note_on_c, 2, 74, 127
2, 5903, Note_on_c, 2, 74, 0
2, 7416, Note_on_c, 2, 76, 127
2, 7431, Note_on_c, 2, 76, 0
2, 7469, Note_on_c, 2, 74, 127
2, 7530, Note_on_c, 2, 74, 0
2, 7545, Note_on_c, 2, 76, 127
2, 7559, Note_on_c, 2, 76, 0
2, 7571, Note_on_c, 2, 74, 127
2, 7583, Note_on_c, 2, 74, 0
2, 7597, Note_on_c, 2, 74, 127
2, 7609, Note_on_c, 2, 74, 0
2, 9121, Note_on_c, 2, 76, 127
2, 9137, Note_on_c, 2, 76, 0
2, 9177, Note_on_c, 2, 74, 127
2, 9239, Note_on_c, 2, 74, 0
2, 9255, Note_on_c, 2, 76, 127
2, 9268, Note_on_c, 2, 76, 0
2, 9281, Note_on_c, 2, 74, 127
2, 9293, Note_on_c, 2, 74, 0
2, 9306, Note_on_c, 2, 74, 127
2, 9317, Note_on_c, 2, 74, 0
2, 10137, Note_on_c, 2, 67, 127
2, 10154, Note_on_c, 2, 67, 0
2, 10163, Note_on_c, 2, 69, 127
2, 10184, Note_on_c, 2, 69, 0
2, 10220, Note_on_c, 2, 69, 127
2, 10283, Note_on_c, 2, 69, 0
2, 10297, Note_on_c, 2, 69, 127
2, 10309, Note_on_c, 2, 69, 0
2, 10938, Note_on_c, 2, 67, 127
2, 10953, Note_on_c, 2, 67, 0
2, 10991, Note_on_c, 2, 72, 127
2, 11012, Note_on_c, 2, 72, 0
2, 11015, Note_on_c, 2, 69, 127
2, 11066, Note_on_c, 2, 69, 0
2, 11736, Note_on_c, 2, 72, 127
2, 11760, Note_on_c, 2, 72, 0
2, 11762, Note_on_c, 2, 69, 127
2, 11782, Note_on_c, 2, 69, 0
2, 11820, Note_on_c, 2, 69, 127
2, 11868, Note_on_c, 2, 69, 0
2, 12432, Note_on_c, 2, 81, 127
2, 12433, Note_on_c, 2, 69, 127
2, 12443, Note_on_c, 2, 81, 0
2, 12445, Note_on_c, 2, 69, 0
2, 12507, Note_on_c, 2, 81, 127
2, 12508, Note_on_c, 2, 69, 127
2, 12521, Note_on_c, 2, 69, 0
2, 12522, Note_on_c, 2, 81, 0
2, 12589, Note_on_c, 2, 81, 127
2, 12590, Note_on_c, 2, 69, 127
2, 12593, Note_on_c, 2, 67, 127
2, 12597, Note_on_c, 2, 67, 0
2, 12601, Note_on_c, 2, 81, 0
2, 12603, Note_on_c, 2, 69, 0
2, 12703, Note_on_c, 2, 67, 127
2, 12703, Note_on_c, 2, 55, 127
2, 12709, Note_on_c, 2, 69, 127
2, 12712, Note_on_c, 2, 57, 127
2, 12722, Note_on_c, 2, 55, 0
2, 12728, Note_on_c, 2, 67, 0
2, 12745, Note_on_c, 2, 57, 0
2, 12774, Note_on_c, 2, 69, 0
2, 12809, Note_on_c, 2, 81, 127
2, 12809, Note_on_c, 2, 69, 127
2, 12924, Note_on_c, 2, 69, 0
2, 12925, Note_on_c, 2, 81, 0
2, 14250, Note_on_c, 2, 76, 127
2, 14264, Note_on_c, 2, 76, 0
2, 14301, Note_on_c, 2, 74, 127
2, 14364, Note_on_c, 2, 74, 0
2, 14379, Note_on_c, 2, 76, 127
2, 14392, Note_on_c, 2, 76, 0
2, 14406, Note_on_c, 2, 74, 127
2, 14417, Note_on_c, 2, 74, 0
2, 14432, Note_on_c, 2, 74, 127
2, 14443, Note_on_c, 2, 74, 0
2, 15956, Note_on_c, 2, 76, 127
2, 15971, Note_on_c, 2, 76, 0
2, 16009, Note_on_c, 2, 74, 127
2, 16070, Note_on_c, 2, 74, 0
2, 16085, Note_on_c, 2, 76, 127
2, 16099, Note_on_c, 2, 76, 0
2, 16111, Note_on_c, 2, 74, 127
2, 16124, Note_on_c, 2, 74, 0
2, 16137, Note_on_c, 2, 74, 127
2, 16149, Note_on_c, 2, 74, 0
2, 17661, Note_on_c, 2, 76, 127
2, 17677, Note_on_c, 2, 76, 0
2, 17717, Note_on_c, 2, 74, 127
2, 17779, Note_on_c, 2, 74, 0
2, 17795, Note_on_c, 2, 76, 127
2, 17808, Note_on_c, 2, 76, 0
2, 17822, Note_on_c, 2, 74, 127
2, 17833, Note_on_c, 2, 74, 0
2, 17846, Note_on_c, 2, 74, 127
2, 17857, Note_on_c, 2, 74, 0
2, 18677, Note_on_c, 2, 67, 127
2, 18694, Note_on_c, 2, 67, 0
2, 18703, Note_on_c, 2, 69, 127
2, 18724, Note_on_c, 2, 69, 0
2, 18760, Note_on_c, 2, 69, 127
2, 18823, Note_on_c, 2, 69, 0
2, 18837, Note_on_c, 2, 69, 127
2, 18849, Note_on_c, 2, 69, 0
2, 19478, Note_on_c, 2, 67, 127
2, 19493, Note_on_c, 2, 67, 0
2, 19531, Note_on_c, 2, 72, 127
2, 19552, Note_on_c, 2, 72, 0
2, 19555, Note_on_c, 2, 69, 127
2, 19606, Note_on_c, 2, 69, 0
2, 20276, Note_on_c, 2, 72, 127
2, 20300, Note_on_c, 2, 72, 0
2, 20302, Note_on_c, 2, 69, 127
2, 20322, Note_on_c, 2, 69, 0
2, 20360, Note_on_c, 2, 69, 127
2, 20408, Note_on_c, 2, 69, 0
2, 20972, Note_on_c, 2, 81, 127
2, 20973, Note_on_c, 2, 69, 127
2, 20983, Note_on_c, 2, 81, 0
2, 20985, Note_on_c, 2, 69, 0
2, 21047, Note_on_c, 2, 81, 127
2, 21048, Note_on_c, 2, 69, 127
2, 21061, Note_on_c, 2, 69, 0
2, 21062, Note_on_c, 2, 81, 0
2, 21129, Note_on_c, 2, 81, 127
2, 21130, Note_on_c, 2, 69, 127
2, 21133, Note_on_c, 2, 67, 127
2, 21138, Note_on_c, 2, 67, 0
2, 21141, Note_on_c, 2, 81, 0
2, 21143, Note_on_c, 2, 69, 0
2, 21243, Note_on_c, 2, 67, 127
2, 21244, Note_on_c, 2, 55, 127
2, 21249, Note_on_c, 2, 69, 127
2, 21252, Note_on_c, 2, 57, 127
2, 21262, Note_on_c, 2, 55, 0
2, 21268, Note_on_c, 2, 67, 0
2, 21285, Note_on_c, 2, 57, 0
2, 21314, Note_on_c, 2, 69, 0
2, 21349, Note_on_c, 2, 81, 127
2, 21349, Note_on_c, 2, 69, 127
2, 21464, Note_on_c, 2, 69, 0
2, 21466, Note_on_c, 2, 81, 0
2, 22790, Note_on_c, 2, 76, 127
2, 22804, Note_on_c, 2, 76, 0
2, 22841, Note_on_c, 2, 74, 127
2, 22904, Note_on_c, 2, 74, 0
2, 22919, Note_on_c, 2, 76, 127
2, 22932, Note_on_c, 2, 76, 0
2, 22946, Note_on_c, 2, 74, 127
2, 22957, Note_on_c, 2, 74, 0
2, 22972, Note_on_c, 2, 74, 127
2, 22983, Note_on_c, 2, 74, 0
2, 24494, Note_on_c, 2, 76, 127
2, 24509, Note_on_c, 2, 76, 0
2, 24549, Note_on_c, 2, 74, 127
2, 24611, Note_on_c, 2, 74, 0
2, 24627, Note_on_c, 2, 76, 127
2, 24640, Note_on_c, 2, 76, 0
2, 24654, Note_on_c, 2, 74, 127
2, 24665, Note_on_c, 2, 74, 0
2, 24678, Note_on_c, 2, 74, 127
2, 24690, Note_on_c, 2, 74, 0
2, 24765, Note_on_c, 2, 69, 127
2, 24765, Note_on_c, 2, 67, 127
2, 24765, Note_on_c, 2, 55, 127
2, 24765, Note_on_c, 2, 57, 127
2, 24765, Note_on_c, 2, 62, 127
2, 24765, Note_on_c, 2, 45, 127
2, 24826, Note_on_c, 2, 62, 0
2, 24826, Note_on_c, 2, 57, 0
2, 24827, Note_on_c, 2, 55, 0
2, 24827, Note_on_c, 2, 69, 0
2, 24829, Note_on_c, 2, 45, 0
2, 24830, Note_on_c, 2, 67, 0
2, 24840, Note_on_c, 2, 57, 127
2, 24841, Note_on_c, 2, 55, 127
2, 24842, Note_on_c, 2, 62, 127
2, 24844, Note_on_c, 2, 45, 127
2, 24845, Note_on_c, 2, 67, 127
2, 24845, Note_on_c, 2, 69, 127
2, 24850, Note_on_c, 2, 62, 0
2, 24851, Note_on_c, 2, 57, 0
2, 24851, Note_on_c, 2, 55, 0
2, 24857, Note_on_c, 2, 69, 0
2, 24858, Note_on_c, 2, 67, 0
2, 24864, Note_on_c, 2, 45, 0
2, 25185, Note_on_c, 2, 45, 127
2, 25189, Note_on_c, 2, 69, 127
2, 25190, Note_on_c, 2, 67, 127
2, 25190, Note_on_c, 2, 55, 127
2, 25191, Note_on_c, 2, 57, 127
2, 25192, Note_on_c, 2, 62, 127
2, 25250, Note_on_c, 2, 45, 0
2, 25251, Note_on_c, 2, 57, 0
2, 25252, Note_on_c, 2, 55, 0
2, 25252, Note_on_c, 2, 62, 0
2, 25256, Note_on_c, 2, 69, 0
2, 25257, Note_on_c, 2, 67, 0
2, 25262, Note_on_c, 2, 45, 127
2, 25269, Note_on_c, 2, 57, 127
2, 25270, Note_on_c, 2, 55, 127
2, 25271, Note_on_c, 2, 67, 127
2, 25271, Note_on_c, 2, 69, 127
2, 25271, Note_on_c, 2, 62, 127
2, 25280, Note_on_c, 2, 55, 0
2, 25280, Note_on_c, 2, 57, 0
2, 25281, Note_on_c, 2, 62, 0
2, 25282, Note_on_c, 2, 45, 0
2, 25284, Note_on_c, 2, 69, 0
2, 25284, Note_on_c, 2, 67, 0
2, 25613, Note_on_c, 2, 45, 127
2, 25619, Note_on_c, 2, 67, 127
2, 25620, Note_on_c, 2, 69, 127
2, 25621, Note_on_c, 2, 57, 127
2, 25622, Note_on_c, 2, 62, 127
2, 25622, Note_on_c, 2, 55, 127
2, 25679, Note_on_c, 2, 55, 0
2, 25679, Note_on_c, 2, 45, 0
2, 25680, Note_on_c, 2, 57, 0
2, 25680, Note_on_c, 2, 62, 0
2, 25687, Note_on_c, 2, 69, 0
2, 25687, Note_on_c, 2, 67, 0
2, 25691, Note_on_c, 2, 45, 127
2, 25697, Note_on_c, 2, 57, 127
2, 25697, Note_on_c, 2, 55, 127
2, 25698, Note_on_c, 2, 62, 127
2, 25701, Note_on_c, 2, 67, 127
2, 25702, Note_on_c, 2, 69, 127
2, 25707, Note_on_c, 2, 55, 0
2, 25707, Note_on_c, 2, 57, 0
2, 25708, Note_on_c, 2, 62, 0
2, 25709, Note_on_c, 2, 45, 0
2, 25716, Note_on_c, 2, 69, 0
2, 25717, Note_on_c, 2, 67, 0
2, 26038, Note_on_c, 2, 45, 127
2, 26041, Note_on_c, 2, 67, 127
2, 26042, Note_on_c, 2, 69, 127
2, 26045, Note_on_c, 2, 57, 127
2, 26046, Note_on_c, 2, 55, 127
2, 26047, Note_on_c, 2, 62, 127
2, 26105, Note_on_c, 2, 45, 0
2, 26108, Note_on_c, 2, 57, 0
2, 26109, Note_on_c, 2, 55, 0
2, 26109, Note_on_c, 2, 69, 0
2, 26109, Note_on_c, 2, 62, 0
2, 26110, Note_on_c, 2, 67, 0
2, 26119, Note_on_c, 2, 45, 127
2, 26121, Note_on_c, 2, 57, 127
2, 26123, Note_on_c, 2, 55, 127
2, 26124, Note_on_c, 2, 62, 127
2, 26126, Note_on_c, 2, 67, 127
2, 26126, Note_on_c, 2, 69, 127
2, 26133, Note_on_c, 2, 62, 0
2, 26133, Note_on_c, 2, 57, 0
2, 26134, Note_on_c, 2, 55, 0
2, 26136, Note_on_c, 2, 45, 0
2, 26137, Note_on_c, 2, 69, 0
2, 26138, Note_on_c, 2, 67, 0
2, 26470, Note_on_c, 2, 45, 127
2, 26471, Note_on_c, 2, 62, 127
2, 26473, Note_on_c, 2, 69, 127
2, 26473, Note_on_c, 2, 67, 127
2, 26473, Note_on_c, 2, 57, 127
2, 26473, Note_on_c, 2, 55, 127
2, 26532, Note_on_c, 2, 57, 0
2, 26533, Note_on_c, 2, 62, 0
2, 26533, Note_on_c, 2, 55, 0
2, 26536, Note_on_c, 2, 45, 0
2, 26539, Note_on_c, 2, 69, 0
2, 26540, Note_on_c, 2, 67, 0
2, 26547, Note_on_c, 2, 57, 127
2, 26548, Note_on_c, 2, 62, 127
2, 26550, Note_on_c, 2, 55, 127
2, 26550, Note_on_c, 2, 45, 127
2, 26552, Note_on_c, 2, 69, 127
2, 26553, Note_on_c, 2, 67, 127
2, 26558, Note_on_c, 2, 55, 0
2, 26559, Note_on_c, 2, 57, 0
2, 26560, Note_on_c, 2, 62, 0
2, 26564, Note_on_c, 2, 45, 0
2, 26565, Note_on_c, 2, 69, 0
2, 26566, Note_on_c, 2, 67, 0
2, 26893, Note_on_c, 2, 45, 127
2, 26898, Note_on_c, 2, 57, 127
2, 26899, Note_on_c, 2, 62, 127
2, 26900, Note_on_c, 2, 55, 127
2, 26902, Note_on_c, 2, 67, 127
2, 26902, Note_on_c, 2, 69, 127
2, 26959, Note_on_c, 2, 62, 0
2, 26959, Note_on_c, 2, 57, 0
2, 26960, Note_on_c, 2, 55, 0
2, 26961, Note_on_c, 2, 45, 0
2, 26963, Note_on_c, 2, 69, 0
2, 26966, Note_on_c, 2, 67, 0
2, 26974, Note_on_c, 2, 45, 127
2, 26977, Note_on_c, 2, 57, 127
2, 26977, Note_on_c, 2, 62, 127
2, 26977, Note_on_c, 2, 55, 127
2, 26981, Note_on_c, 2, 67, 127
2, 26982, Note_on_c, 2, 69, 127
2, 26987, Note_on_c, 2, 62, 0
2, 26987, Note_on_c, 2, 57, 0
2, 26988, Note_on_c, 2, 55, 0
2, 26989, Note_on_c, 2, 45, 0
2, 26992, Note_on_c, 2, 69, 0
2, 26993, Note_on_c, 2, 67, 0
2, 27319, Note_on_c, 2, 45, 127
2, 27327, Note_on_c, 2, 57, 127
2, 27327, Note_on_c, 2, 69, 127
2, 27327, Note_on_c, 2, 67, 127
2, 27327, Note_on_c, 2, 55, 127
2, 27328, Note_on_c, 2, 62, 127
2, 27388, Note_on_c, 2, 55, 0
2, 27389, Note_on_c, 2, 57, 0
2, 27389, Note_on_c, 2, 45, 0
2, 27389, Note_on_c, 2, 69, 0
2, 27389, Note_on_c, 2, 62, 0
2, 27390, Note_on_c, 2, 67, 0
2, 27400, Note_on_c, 2, 45, 127
2, 27405, Note_on_c, 2, 57, 127
2, 27406, Note_on_c, 2, 69, 127
2, 27406, Note_on_c, 2, 67, 127
2, 27406, Note_on_c, 2, 62, 127
2, 27407, Note_on_c, 2, 55, 127
2, 27415, Note_on_c, 2, 57, 0
2, 27416, Note_on_c, 2, 55, 0
2, 27417, Note_on_c, 2, 62, 0
2, 27418, Note_on_c, 2, 67, 0
2, 27418, Note_on_c, 2, 69, 0
2, 27419, Note_on_c, 2, 45, 0
2, 27747, Note_on_c, 2, 45, 127
2, 27752, Note_on_c, 2, 69, 127
2, 27753, Note_on_c, 2, 67, 127
2, 27754, Note_on_c, 2, 62, 127
2, 27754, Note_on_c, 2, 55, 127
2, 27754, Note_on_c, 2, 57, 127
2, 27812, Note_on_c, 2, 45, 0
2, 27814, Note_on_c, 2, 67, 0
2, 27814, Note_on_c, 2, 69, 0
2, 27814, Note_on_c, 2, 57, 0
2, 27815, Note_on_c, 2, 62, 0
2, 27815, Note_on_c, 2, 55, 0
2, 27825, Note_on_c, 2, 45, 127
2, 27833, Note_on_c, 2, 69, 127
2, 27833, Note_on_c, 2, 57, 127
2, 27833, Note_on_c, 2, 62, 127
2, 27834, Note_on_c, 2, 67, 127
2, 27834, Note_on_c, 2, 55, 127
2, 27843, Note_on_c, 2, 45, 0
2, 27845, Note_on_c, 2, 57, 0
2, 27845, Note_on_c, 2, 55, 0
2, 27846, Note_on_c, 2, 67, 0
2, 27846, Note_on_c, 2, 69, 0
2, 27848, Note_on_c, 2, 62, 0
2, 27863, Note_on_c, 2, 67, 127
2, 27864, Note_on_c, 2, 55, 127
2, 27878, Note_on_c, 2, 67, 0
2, 27880, Note_on_c, 2, 55, 0
2, 27888, Note_on_c, 2, 69, 127
2, 27891, Note_on_c, 2, 57, 127
2, 27907, Note_on_c, 2, 69, 0
2, 27911, Note_on_c, 2, 57, 0
2, 27942, Note_on_c, 2, 57, 127
2, 27943, Note_on_c, 2, 69, 127
2, 27958, Note_on_c, 2, 69, 0
2, 27962, Note_on_c, 2, 57, 0
2, 27995, Note_on_c, 2, 57, 127
2, 27997, Note_on_c, 2, 69, 127
2, 28012, Note_on_c, 2, 69, 0
2, 28014, Note_on_c, 2, 57, 0
2, 28047, Note_on_c, 2, 57, 127
2, 28049, Note_on_c, 2, 69, 127
2, 28062, Note_on_c, 2, 57, 0
2, 28064, Note_on_c, 2, 69, 0
2, 28070, Note_on_c, 2, 55, 127
2, 28074, Note_on_c, 2, 67, 127
2, 28074, Note_on_c, 2, 65, 127
2, 28089, Note_on_c, 2, 65, 0
2, 28091, Note_on_c, 2, 67, 0
2, 28111, Note_on_c, 2, 55, 0
2, 28121, Note_on_c, 2, 57, 127
2, 28122, Note_on_c, 2, 69, 127
2, 28151, Note_on_c, 2, 69, 0
2, 28153, Note_on_c, 2, 57, 0
2, 28181, Note_on_c, 2, 81, 127
2, 28181, Note_on_c, 2, 69, 127
2, 28297, Note_on_c, 2, 69, 0
2, 28298, Note_on_c, 2, 81, 0
2, 29622, Note_on_c, 2, 76, 127
2, 29636, Note_on_c, 2, 76, 0
2, 29673, Note_on_c, 2, 74, 127
2, 29737, Note_on_c, 2, 74, 0
2, 29751, Note_on_c, 2, 76, 127
2, 29764, Note_on_c, 2, 76, 0
2, 29778, Note_on_c, 2, 74, 127
2, 29789, Note_on_c, 2, 74, 0
2, 29804, Note_on_c, 2, 74, 127
2, 29815, Note_on_c, 2, 74, 0
2, 31328, Note_on_c, 2, 76, 127
2, 31343, Note_on_c, 2, 76, 0
2, 31381, Note_on_c, 2, 74, 127
2, 31442, Note_on_c, 2, 74, 0
2, 31457, Note_on_c, 2, 76, 127
2, 31471, Note_on_c, 2, 76, 0
2, 31483, Note_on_c, 2, 74, 127
2, 31496, Note_on_c, 2, 74, 0
2, 31509, Note_on_c, 2, 74, 127
2, 31521, Note_on_c, 2, 74, 0
2, 31597, Note_on_c, 2, 81, 127
2, 31597, Note_on_c, 2, 69, 127
2, 31713, Note_on_c, 2, 69, 0
2, 31714, Note_on_c, 2, 81, 0
2, 33038, Note_on_c, 2, 76, 127
2, 33053, Note_on_c, 2, 76, 0
2, 33089, Note_on_c, 2, 74, 127
2, 33153, Note_on_c, 2, 74, 0
2, 33167, Note_on_c, 2, 76, 127
2, 33180, Note_on_c, 2, 76, 0
2, 33194, Note_on_c, 2, 74, 127
2, 33205, Note_on_c, 2, 74, 0
2, 33220, Note_on_c, 2, 74, 127
2, 33232, Note_on_c, 2, 74, 0
2, 34744, Note_on_c, 2, 76, 127
2, 34759, Note_on_c, 2, 76, 0
2, 34797, Note_on_c, 2, 74, 127
2, 34858, Note_on_c, 2, 74, 0
2, 34873, Note_on_c, 2, 76, 127
2, 34887, Note_on_c, 2, 76, 0
2, 34900, Note_on_c, 2, 74, 127
2, 34912, Note_on_c, 2, 74, 0
2, 34925, Note_on_c, 2, 74, 127
2, 34937, Note_on_c, 2, 74, 0
2, 35013, Note_on_c, 2, 69, 127
2, 35013, Note_on_c, 2, 67, 127
2, 35013, Note_on_c, 2, 55, 127
2, 35013, Note_on_c, 2, 57, 127
2, 35013, Note_on_c, 2, 62, 127
2, 35014, Note_on_c, 2, 45, 127
2, 35074, Note_on_c, 2, 62, 0
2, 35075, Note_on_c, 2, 57, 0
2, 35075, Note_on_c, 2, 55, 0
2, 35076, Note_on_c, 2, 69, 0
2, 35077, Note_on_c, 2, 45, 0
2, 35078, Note_on_c, 2, 67, 0
2, 35089, Note_on_c, 2, 57, 127
2, 35089, Note_on_c, 2, 55, 127
2, 35090, Note_on_c, 2, 62, 127
2, 35092, Note_on_c, 2, 45, 127
2, 35093, Note_on_c, 2, 67, 127
2, 35093, Note_on_c, 2, 69, 127
2, 35099, Note_on_c, 2, 62, 0
2, 35099, Note_on_c, 2, 57, 0
2, 35099, Note_on_c, 2, 55, 0
2, 35105, Note_on_c, 2, 69, 0
2, 35106, Note_on_c, 2, 67, 0
2, 35112, Note_on_c, 2, 45, 0
2, 35433, Note_on_c, 2, 45, 127
2, 35437, Note_on_c, 2, 69, 127
2, 35438, Note_on_c, 2, 67, 127
2, 35438, Note_on_c, 2, 55, 127
2, 35440, Note_on_c, 2, 57, 127
2, 35440, Note_on_c, 2, 62, 127
2, 35498, Note_on_c, 2, 45, 0
2, 35499, Note_on_c, 2, 57, 0
2, 35500, Note_on_c, 2, 55, 0
2, 35500, Note_on_c, 2, 62, 0
2, 35504, Note_on_c, 2, 69, 0
2, 35506, Note_on_c, 2, 67, 0
2, 35510, Note_on_c, 2, 45, 127
2, 35517, Note_on_c, 2, 57, 127
2, 35518, Note_on_c, 2, 55, 127
2, 35519, Note_on_c, 2, 67, 127
2, 35519, Note_on_c, 2, 69, 127
2, 35519, Note_on_c, 2, 62, 127
2, 35528, Note_on_c, 2, 55, 0
2, 35528, Note_on_c, 2, 57, 0
2, 35529, Note_on_c, 2, 62, 0
2, 35530, Note_on_c, 2, 45, 0
2, 35532, Note_on_c, 2, 69, 0
2, 35532, Note_on_c, 2, 67, 0
2, 35861, Note_on_c, 2, 45, 127
2, 35867, Note_on_c, 2, 67, 127
2, 35868, Note_on_c, 2, 69, 127
2, 35869, Note_on_c, 2, 57, 127
2, 35870, Note_on_c, 2, 62, 127
2, 35870, Note_on_c, 2, 55, 127
2, 35927, Note_on_c, 2, 55, 0
2, 35927, Note_on_c, 2, 45, 0
2, 35928, Note_on_c, 2, 62, 0
2, 35929, Note_on_c, 2, 57, 0
2, 35935, Note_on_c, 2, 69, 0
2, 35935, Note_on_c, 2, 67, 0
2, 35939, Note_on_c, 2, 45, 127
2, 35945, Note_on_c, 2, 57, 127
2, 35945, Note_on_c, 2, 55, 127
2, 35946, Note_on_c, 2, 62, 127
2, 35949, Note_on_c, 2, 67, 127
2, 35950, Note_on_c, 2, 69, 127
2, 35955, Note_on_c, 2, 55, 0
2, 35955, Note_on_c, 2, 57, 0
2, 35956, Note_on_c, 2, 62, 0
2, 35957, Note_on_c, 2, 45, 0
2, 35964, Note_on_c, 2, 69, 0
2, 35965, Note_on_c, 2, 67, 0
2, 36286, Note_on_c, 2, 45, 127
2, 36290, Note_on_c, 2, 67, 127
2, 36290, Note_on_c, 2, 69, 127
2, 36294, Note_on_c, 2, 57, 127
2, 36294, Note_on_c, 2, 55, 127
2, 36295, Note_on_c, 2, 62, 127
2, 36353, Note_on_c, 2, 45, 0
2, 36357, Note_on_c, 2, 69, 0
2, 36357, Note_on_c, 2, 57, 0
2, 36357, Note_on_c, 2, 62, 0
2, 36358, Note_on_c, 2, 67, 0
2, 36358, Note_on_c, 2, 55, 0
2, 36367, Note_on_c, 2, 45, 127
2, 36370, Note_on_c, 2, 57, 127
2, 36371, Note_on_c, 2, 55, 127
2, 36372, Note_on_c, 2, 62, 127
2, 36374, Note_on_c, 2, 67, 127
2, 36374, Note_on_c, 2, 69, 127
2, 36381, Note_on_c, 2, 62, 0
2, 36381, Note_on_c, 2, 57, 0
2, 36382, Note_on_c, 2, 55, 0
2, 36384, Note_on_c, 2, 45, 0
2, 36385, Note_on_c, 2, 69, 0
2, 36386, Note_on_c, 2, 67, 0
2, 36718, Note_on_c, 2, 45, 127
2, 36719, Note_on_c, 2, 62, 127
2, 36721, Note_on_c, 2, 69, 127
2, 36721, Note_on_c, 2, 67, 127
2, 36721, Note_on_c, 2, 57, 127
2, 36721, Note_on_c, 2, 55, 127
2, 36780, Note_on_c, 2, 57, 0
2, 36781, Note_on_c, 2, 62, 0
2, 36781, Note_on_c, 2, 55, 0
2, 36784, Note_on_c, 2, 45, 0
2, 36787, Note_on_c, 2, 69, 0
2, 36788, Note_on_c, 2, 67, 0
2, 36795, Note_on_c, 2, 57, 127
2, 36797, Note_on_c, 2, 62, 127
2, 36798, Note_on_c, 2, 55, 127
2, 36798, Note_on_c, 2, 45, 127
2, 36800, Note_on_c, 2, 69, 127
2, 36801, Note_on_c, 2, 67, 127
2, 36807, Note_on_c, 2, 55, 0
2, 36807, Note_on_c, 2, 57, 0
2, 36808, Note_on_c, 2, 62, 0
2, 36812, Note_on_c, 2, 45, 0
2, 36813, Note_on_c, 2, 69, 0
2, 36814, Note_on_c, 2, 67, 0
2, 37141, Note_on_c, 2, 45, 127
2, 37146, Note_on_c, 2, 57, 127
2, 37148, Note_on_c, 2, 62, 127
2, 37148, Note_on_c, 2, 55, 127
2, 37150, Note_on_c, 2, 67, 127
2, 37150, Note_on_c, 2, 69, 127
2, 37207, Note_on_c, 2, 62, 0
2, 37207, Note_on_c, 2, 57, 0
2, 37208, Note_on_c, 2, 55, 0
2, 37209, Note_on_c, 2, 45, 0
2, 37211, Note_on_c, 2, 69, 0
2, 37214, Note_on_c, 2, 67, 0
2, 37222, Note_on_c, 2, 45, 127
2, 37225, Note_on_c, 2, 57, 127
2, 37225, Note_on_c, 2, 62, 127
2, 37225, Note_on_c, 2, 55, 127
2, 37229, Note_on_c, 2, 67, 127
2, 37230, Note_on_c, 2, 69, 127
2, 37235, Note_on_c, 2, 62, 0
2, 37235, Note_on_c, 2, 57, 0
2, 37236, Note_on_c, 2, 55, 0
2, 37237, Note_on_c, 2, 45, 0
2, 37240, Note_on_c, 2, 69, 0
2, 37241, Note_on_c, 2, 67, 0
2, 37567, Note_on_c, 2, 45, 127
2, 37575, Note_on_c, 2, 57, 127
2, 37575, Note_on_c, 2, 69, 127
2, 37575, Note_on_c, 2, 67, 127
2, 37575, Note_on_c, 2, 55, 127
2, 37576, Note_on_c, 2, 62, 127
2, 37636, Note_on_c, 2, 55, 0
2, 37637, Note_on_c, 2, 57, 0
2, 37637, Note_on_c, 2, 45, 0
2, 37637, Note_on_c, 2, 69, 0
2, 37637, Note_on_c, 2, 62, 0
2, 37638, Note_on_c, 2, 67, 0
2, 37648, Note_on_c, 2, 45, 127
2, 37653, Note_on_c, 2, 57, 127
2, 37654, Note_on_c, 2, 69, 127
2, 37654, Note_on_c, 2, 67, 127
2, 37654, Note_on_c, 2, 62, 127
2, 37655, Note_on_c, 2, 55, 127
2, 37663, Note_on_c, 2, 57, 0
2, 37664, Note_on_c, 2, 55, 0
2, 37665, Note_on_c, 2, 62, 0
2, 37666, Note_on_c, 2, 67, 0
2, 37666, Note_on_c, 2, 69, 0
2, 37667, Note_on_c, 2, 45, 0
2, 37995, Note_on_c, 2, 45, 127
2, 38000, Note_on_c, 2, 69, 127
2, 38002, Note_on_c, 2, 67, 127
2, 38002, Note_on_c, 2, 62, 127
2, 38002, Note_on_c, 2, 55, 127
2, 38002, Note_on_c, 2, 57, 127
2, 38060, Note_on_c, 2, 45, 0
2, 38062, Note_on_c, 2, 67, 0
2, 38062, Note_on_c, 2, 69, 0
2, 38062, Note_on_c, 2, 57, 0
2, 38063, Note_on_c, 2, 62, 0
2, 38063, Note_on_c, 2, 55, 0
2, 38073, Note_on_c, 2, 45, 127
2, 38081, Note_on_c, 2, 69, 127
2, 38081, Note_on_c, 2, 57, 127
2, 38082, Note_on_c, 2, 62, 127
2, 38082, Note_on_c, 2, 67, 127
2, 38082, Note_on_c, 2, 55, 127
2, 38091, Note_on_c, 2, 45, 0
2, 38093, Note_on_c, 2, 57, 0
2, 38093, Note_on_c, 2, 55, 0
2, 38094, Note_on_c, 2, 67, 0
2, 38094, Note_on_c, 2, 69, 0
2, 38097, Note_on_c, 2, 62, 0
2, 38111, Note_on_c, 2, 67, 127
2, 38112, Note_on_c, 2, 55, 127
2, 38127, Note_on_c, 2, 67, 0
2, 38128, Note_on_c, 2, 55, 0
2, 38137, Note_on_c, 2, 69, 127
2, 38139, Note_on_c, 2, 57, 127
2, 38155, Note_on_c, 2, 69, 0
2, 38159, Note_on_c, 2, 57, 0
2, 38190, Note_on_c, 2, 57, 127
2, 38191, Note_on_c, 2, 69, 127
2, 38207, Note_on_c, 2, 69, 0
2, 38210, Note_on_c, 2, 57, 0
2, 38243, Note_on_c, 2, 57, 127
2, 38246, Note_on_c, 2, 69, 127
2, 38260, Note_on_c, 2, 69, 0
2, 38262, Note_on_c, 2, 57, 0
2, 38295, Note_on_c, 2, 57, 127
2, 38297, Note_on_c, 2, 69, 127
2, 38310, Note_on_c, 2, 57, 0
2, 38312, Note_on_c, 2, 69, 0
2, 38318, Note_on_c, 2, 55, 127
2, 38322, Note_on_c, 2, 67, 127
2, 38322, Note_on_c, 2, 65, 127
2, 38337, Note_on_c, 2, 65, 0
2, 38339, Note_on_c, 2, 67, 0
2, 38359, Note_on_c, 2, 55, 0
2, 38369, Note_on_c, 2, 57, 127
2, 38370, Note_on_c, 2, 69, 127
2, 38399, Note_on_c, 2, 69, 0
2, 38401, Note_on_c, 2, 57, 0
2, 38429, Note_on_c, 2, 81, 127
2, 38429, Note_on_c, 2, 69, 127
2, 38545, Note_on_c, 2, 69, 0
2, 38546, Note_on_c, 2, 81, 0
2, 39870, Note_on_c, 2, 76, 127
2, 39885, Note_on_c, 2, 76, 0
2, 39921, Note_on_c, 2, 74, 127
2, 39985, Note_on_c, 2, 74, 0
2, 39999, Note_on_c, 2, 76, 127
2, 40012, Note_on_c, 2, 76, 0
2, 40026, Note_on_c, 2, 74, 127
2, 40037, Note_on_c, 2, 74, 0
2, 40052, Note_on_c, 2, 74, 127
2, 40064, Note_on_c, 2, 74, 0
2, 41576, Note_on_c, 2, 76, 127
2, 41591, Note_on_c, 2, 76, 0
2, 41629, Note_on_c, 2, 74, 127
2, 41690, Note_on_c, 2, 74, 0
2, 41705, Note_on_c, 2, 76, 127
2, 41719, Note_on_c, 2, 76, 0
2, 41732, Note_on_c, 2, 74, 127
2, 41744, Note_on_c, 2, 74, 0
2, 41757, Note_on_c, 2, 74, 127
2, 41769, Note_on_c, 2, 74, 0
2, 43282, Note_on_c, 2, 76, 127
2, 43298, Note_on_c, 2, 76, 0
2, 43337, Note_on_c, 2, 74, 127
2, 43400, Note_on_c, 2, 74, 0
2, 43415, Note_on_c, 2, 76, 127
2, 43428, Note_on_c, 2, 76, 0
2, 43442, Note_on_c, 2, 74, 127
2, 43453, Note_on_c, 2, 74, 0
2, 43466, Note_on_c, 2, 74, 127
2, 43478, Note_on_c, 2, 74, 0
2, 43553, Note_on_c, 2, 81, 127
2, 43553, Note_on_c, 2, 69, 127
2, 43669, Note_on_c, 2, 69, 0
2, 43670, Note_on_c, 2, 81, 0
2, 44994, Note_on_c, 2, 76, 127
2, 45009, Note_on_c, 2, 76, 0
2, 45045, Note_on_c, 2, 74, 127
2, 45109, Note_on_c, 2, 74, 0
2, 45123, Note_on_c, 2, 76, 127
2, 45136, Note_on_c, 2, 76, 0
2, 45150, Note_on_c, 2, 74, 127
2, 45161, Note_on_c, 2, 74, 0
2, 45177, Note_on_c, 2, 74, 127
2, 45188, Note_on_c, 2, 74, 0
2, 46700, Note_on_c, 2, 76, 127
2, 46716, Note_on_c, 2, 76, 0
2, 46753, Note_on_c, 2, 74, 127
2, 46815, Note_on_c, 2, 74, 0
2, 46829, Note_on_c, 2, 76, 127
2, 46843, Note_on_c, 2, 76, 0
2, 46856, Note_on_c, 2, 74, 127
2, 46868, Note_on_c, 2, 74, 0
2, 46881, Note_on_c, 2, 74, 127
2, 46893, Note_on_c, 2, 74, 0
2, 48406, Note_on_c, 2, 76, 127
2, 48422, Note_on_c, 2, 76, 0
2, 48461, Note_on_c, 2, 74, 127
2, 48524, Note_on_c, 2, 74, 0
2, 48539, Note_on_c, 2, 76, 127
2, 48553, Note_on_c, 2, 76, 0
2, 48566, Note_on_c, 2, 74, 127
2, 48577, Note_on_c, 2, 74, 0
2, 48590, Note_on_c, 2, 74, 127
2, 48602, Note_on_c, 2, 74, 0
2, 48677, Note_on_c, 2, 81, 127
2, 48677, Note_on_c, 2, 69, 127
2, 48793, Note_on_c, 2, 69, 0
2, 48794, Note_on_c, 2, 81, 0
2, 50118, Note_on_c, 2, 76, 127
2, 50133, Note_on_c, 2, 76, 0
2, 50169, Note_on_c, 2, 74, 127
2, 50233, Note_on_c, 2, 74, 0
2, 50247, Note_on_c, 2, 76, 127
2, 50261, Note_on_c, 2, 76, 0
2, 50274, Note_on_c, 2, 74, 127
2, 50285, Note_on_c, 2, 74, 0
2, 50301, Note_on_c, 2, 74, 127
2, 50312, Note_on_c, 2, 74, 0
2, 51824, Note_on_c, 2, 76, 127
2, 51840, Note_on_c, 2, 76, 0
2, 51877, Note_on_c, 2, 74, 127
2, 51939, Note_on_c, 2, 74, 0
2, 51953, Note_on_c, 2, 76, 127
2, 51967, Note_on_c, 2, 76, 0
2, 51980, Note_on_c, 2, 74, 127
2, 51992, Note_on_c, 2, 74, 0
2, 52005, Note_on_c, 2, 74, 127
2, 52018, Note_on_c, 2, 74, 0
2, 53530, Note_on_c, 2, 76, 127
2, 53546, Note_on_c, 2, 76, 0
2, 53585, Note_on_c, 2, 74, 127
2, 53648, Note_on_c, 2, 74, 0
2, 53663, Note_on_c, 2, 76, 127
2, 53677, Note_on_c, 2, 76, 0
2, 53690, Note_on_c, 2, 74, 127
2, 53701, Note_on_c, 2, 74, 0
2, 53714, Note_on_c, 2, 74, 127
2, 53726, Note_on_c, 2, 74, 0
2, 53801, Note_on_c, 2, 81, 127
2, 53801, Note_on_c, 2, 69, 127
2, 53917, Note_on_c, 2, 69, 0
2, 53918, Note_on_c, 2, 81, 0
2, 55242, Note_on_c, 2, 76, 127
2, 55257, Note_on_c, 2, 76, 0
2, 55293, Note_on_c, 2, 74, 127
2, 55357, Note_on_c, 2, 74, 0
2, 55371, Note_on_c, 2, 76, 127
2, 55385, Note_on_c, 2, 76, 0
2, 55398, Note_on_c, 2, 74, 127
2, 55409, Note_on_c, 2, 74, 0
2, 55425, Note_on_c, 2, 74, 127
2, 55436, Note_on_c, 2, 74, 0
2, 56948, Note_on_c, 2, 76, 127
2, 56964, Note_on_c, 2, 76, 0
2, 57001, Note_on_c, 2, 74, 127
2, 57063, Note_on_c, 2, 74, 0
2, 57077, Note_on_c, 2, 76, 127
2, 57092, Note_on_c, 2, 76, 0
2, 57104, Note_on_c, 2, 74, 127
2, 57116, Note_on_c, 2, 74, 0
2, 57129, Note_on_c, 2, 74, 127
2, 57142, Note_on_c, 2, 74, 0
2, 58654, Note_on_c, 2, 76, 127
2, 58670, Note_on_c, 2, 76, 0
2, 58709, Note_on_c, 2, 74, 127
2, 58772, Note_on_c, 2, 74, 0
2, 58787, Note_on_c, 2, 76, 127
2, 58801, Note_on_c, 2, 76, 0
2, 58814, Note_on_c, 2, 74, 127
2, 58825, Note_on_c, 2, 74, 0
2, 58838, Note_on_c, 2, 74, 127
2, 58850, Note_on_c, 2, 74, 0
2, 58925, Note_on_c, 2, 57, 127
2, 58925, Note_on_c, 2, 69, 127
2, 58925, Note_on_c, 2, 69, 127
2, 58926, Note_on_c, 2, 81, 127
2, 58926, Note_on_c, 2, 57, 127
2, 58962, Note_on_c, 2, 57, 0
2, 58963, Note_on_c, 2, 69, 0
2, 58970, Note_on_c, 2, 57, 0
2, 59010, Note_on_c, 2, 69, 0
2, 59012, Note_on_c, 2, 81, 0
2, 59012, End_track
3, 0, Start_track
3, 0, MIDI_port, 0
3, 0, Control_c, 1, 7, 127
3, 0, Control_c, 1, 10, 100
3, 2, Control_c, 1, 0, 0
3, 2, Program_c, 1, 61
3, 2560, Note_on_c, 1, 69, 127
3, 2574, Note_on_c, 1, 69, 0
3, 2667, Note_on_c, 1, 72, 127
3, 2680, Note_on_c, 1, 72, 0
3, 2720, Note_on_c, 1, 74, 127
3, 2733, Note_on_c, 1, 74, 0
3, 2774, Note_on_c, 1, 67, 127
3, 2786, Note_on_c, 1, 67, 0
3, 2853, Note_on_c, 1, 68, 127
3, 2864, Note_on_c, 1, 68, 0
3, 2934, Note_on_c, 1, 69, 127
3, 2946, Note_on_c, 1, 69, 0
3, 3467, Note_on_c, 1, 67, 127
3, 3494, Note_on_c, 1, 69, 127
3, 3500, Note_on_c, 1, 67, 0
3, 3521, Note_on_c, 1, 72, 127
3, 3527, Note_on_c, 1, 69, 0
3, 3547, Note_on_c, 1, 69, 127
3, 3556, Note_on_c, 1, 72, 0
3, 3629, Note_on_c, 1, 69, 0
3, 3681, Note_on_c, 1, 69, 127
3, 3707, Note_on_c, 1, 72, 127
3, 3710, Note_on_c, 1, 69, 0
3, 3734, Note_on_c, 1, 74, 127
3, 3738, Note_on_c, 1, 72, 0
3, 3760, Note_on_c, 1, 72, 127
3, 3770, Note_on_c, 1, 74, 0
3, 3812, Note_on_c, 1, 72, 0
3, 3894, Note_on_c, 1, 79, 127
3, 3894, Note_on_c, 1, 81, 127
3, 3902, Note_on_c, 1, 81, 0
3, 3904, Note_on_c, 1, 79, 0
3, 3974, Note_on_c, 1, 81, 127
3, 3974, Note_on_c, 1, 79, 127
3, 3984, Note_on_c, 1, 79, 0
3, 3985, Note_on_c, 1, 81, 0
3, 4055, Note_on_c, 1, 79, 127
3, 4055, Note_on_c, 1, 81, 127
3, 4064, Note_on_c, 1, 81, 0
3, 4064, Note_on_c, 1, 79, 0
3, 4161, Note_on_c, 1, 79, 127
3, 4188, Note_on_c, 1, 81, 127
3, 4194, Note_on_c, 1, 79, 0
3, 4247, Note_on_c, 1, 81, 0
3, 4269, Note_on_c, 1, 81, 127
3, 4269, Note_on_c, 1, 57, 127
3, 4269, Note_on_c, 1, 69, 127
3, 4270, Note_on_c, 1, 78, 127
3, 4293, Note_on_c, 1, 78, 0
3, 4298, Note_on_c, 1, 57, 0
3, 4301, Note_on_c, 1, 69, 0
3, 4304, Note_on_c, 1, 81, 0
3, 4428, Note_on_c, 1, 67, 127
3, 4455, Note_on_c, 1, 69, 127
3, 4460, Note_on_c, 1, 67, 0
3, 4480, Note_on_c, 1, 71, 127
3, 4488, Note_on_c, 1, 69, 0
3, 4554, Note_on_c, 1, 71, 0
3, 4557, Note_on_c, 1, 69, 127
3, 4568, Note_on_c, 1, 69, 0
3, 4855, Note_on_c, 1, 76, 127
3, 4872, Note_on_c, 1, 76, 0
3, 4909, Note_on_c, 1, 71, 127
3, 4974, Note_on_c, 1, 71, 0
3, 4988, Note_on_c, 1, 69, 127
3, 5009, Note_on_c, 1, 69, 0
3, 5282, Note_on_c, 1, 67, 127
3, 5306, Note_on_c, 1, 69, 127
3, 5312, Note_on_c, 1, 67, 0
3, 5334, Note_on_c, 1, 71, 127
3, 5341, Note_on_c, 1, 69, 0
3, 5414, Note_on_c, 1, 69, 127
3, 5416, Note_on_c, 1, 71, 0
3, 5428, Note_on_c, 1, 69, 0
3, 5708, Note_on_c, 1, 76, 127
3, 5725, Note_on_c, 1, 76, 0
3, 5763, Note_on_c, 1, 78, 127
3, 5822, Note_on_c, 1, 78, 0
3, 5840, Note_on_c, 1, 76, 127
3, 5853, Note_on_c, 1, 76, 0
3, 5867, Note_on_c, 1, 78, 127
3, 5881, Note_on_c, 1, 78, 0
3, 5890, Note_on_c, 1, 78, 127
3, 5905, Note_on_c, 1, 78, 0
3, 6136, Note_on_c, 1, 67, 127
3, 6159, Note_on_c, 1, 69, 127
3, 6168, Note_on_c, 1, 67, 0
3, 6182, Note_on_c, 1, 71, 127
3, 6191, Note_on_c, 1, 69, 0
3, 6264, Note_on_c, 1, 69, 127
3, 6265, Note_on_c, 1, 71, 0
3, 6276, Note_on_c, 1, 69, 0
3, 6563, Note_on_c, 1, 76, 127
3, 6579, Note_on_c, 1, 76, 0
3, 6617, Note_on_c, 1, 71, 127
3, 6688, Note_on_c, 1, 71, 0
3, 6696, Note_on_c, 1, 69, 127
3, 6714, Note_on_c, 1, 69, 0
3, 6990, Note_on_c, 1, 67, 127
3, 7011, Note_on_c, 1, 69, 127
3, 7019, Note_on_c, 1, 67, 0
3, 7036, Note_on_c, 1, 71, 127
3, 7045, Note_on_c, 1, 69, 0
3, 7115, Note_on_c, 1, 69, 127
3, 7116, Note_on_c, 1, 71, 0
3, 7130, Note_on_c, 1, 69, 0
3, 7418, Note_on_c, 1, 76, 127
3, 7432, Note_on_c, 1, 76, 0
3, 7468, Note_on_c, 1, 78, 127
3, 7529, Note_on_c, 1, 78, 0
3, 7551, Note_on_c, 1, 76, 127
3, 7561, Note_on_c, 1, 76, 0
3, 7575, Note_on_c, 1, 78, 127
3, 7588, Note_on_c, 1, 78, 0
3, 7598, Note_on_c, 1, 78, 127
3, 7612, Note_on_c, 1, 78, 0
3, 7844, Note_on_c, 1, 67, 127
3, 7867, Note_on_c, 1, 69, 127
3, 7876, Note_on_c, 1, 67, 0
3, 7890, Note_on_c, 1, 71, 127
3, 7899, Note_on_c, 1, 69, 0
3, 7972, Note_on_c, 1, 69, 127
3, 7973, Note_on_c, 1, 71, 0
3, 7984, Note_on_c, 1, 69, 0
3, 8271, Note_on_c, 1, 76, 127
3, 8287, Note_on_c, 1, 76, 0
3, 8325, Note_on_c, 1, 71, 127
3, 8400, Note_on_c, 1, 71, 0
3, 8405, Note_on_c, 1, 69, 127
3, 8420, Note_on_c, 1, 69, 0
3, 8698, Note_on_c, 1, 67, 127
3, 8719, Note_on_c, 1, 69, 127
3, 8727, Note_on_c, 1, 67, 0
3, 8744, Note_on_c, 1, 71, 127
3, 8753, Note_on_c, 1, 69, 0
3, 8823, Note_on_c, 1, 69, 127
3, 8824, Note_on_c, 1, 71, 0
3, 8838, Note_on_c, 1, 69, 0
3, 9126, Note_on_c, 1, 76, 127
3, 9137, Note_on_c, 1, 76, 0
3, 9179, Note_on_c, 1, 78, 127
3, 9231, Note_on_c, 1, 78, 0
3, 9253, Note_on_c, 1, 76, 127
3, 9264, Note_on_c, 1, 76, 0
3, 9279, Note_on_c, 1, 78, 127
3, 9291, Note_on_c, 1, 78, 0
3, 9306, Note_on_c, 1, 78, 127
3, 9309, Note_on_c, 1, 79, 127
3, 9316, Note_on_c, 1, 79, 0
3, 9317, Note_on_c, 1, 78, 0
3, 10142, Note_on_c, 1, 67, 127
3, 10158, Note_on_c, 1, 67, 0
3, 10164, Note_on_c, 1, 69, 127
3, 10190, Note_on_c, 1, 69, 0
3, 10213, Note_on_c, 1, 69, 127
3, 10284, Note_on_c, 1, 69, 0
3, 10296, Note_on_c, 1, 69, 127
3, 10307, Note_on_c, 1, 69, 0
3, 10937, Note_on_c, 1, 67, 127
3, 10952, Note_on_c, 1, 67, 0
3, 10992, Note_on_c, 1, 72, 127
3, 11014, Note_on_c, 1, 72, 0
3, 11015, Note_on_c, 1, 69, 127
3, 11055, Note_on_c, 1, 69, 0
3, 11738, Note_on_c, 1, 72, 127
3, 11758, Note_on_c, 1, 72, 0
3, 11761, Note_on_c, 1, 69, 127
3, 11778, Note_on_c, 1, 69, 0
3, 11816, Note_on_c, 1, 69, 127
3, 11872, Note_on_c, 1, 69, 0
3, 12435, Note_on_c, 1, 81, 127
3, 12436, Note_on_c, 1, 69, 127
3, 12445, Note_on_c, 1, 81, 0
3, 12446, Note_on_c, 1, 69, 0
3, 12513, Note_on_c, 1, 81, 127
3, 12514, Note_on_c, 1, 69, 127
3, 12524, Note_on_c, 1, 69, 0
3, 12524, Note_on_c, 1, 81, 0
3, 12595, Note_on_c, 1, 81, 127
3, 12596, Note_on_c, 1, 69, 127
3, 12604, Note_on_c, 1, 81, 0
3, 12605, Note_on_c, 1, 69, 0
3, 12703, Note_on_c, 1, 67, 127
3, 12704, Note_on_c, 1, 79, 127
3, 12710, Note_on_c, 1, 81, 127
3, 12719, Note_on_c, 1, 79, 0
3, 12723, Note_on_c, 1, 67, 0
3, 12725, Note_on_c, 1, 69, 127
3, 12751, Note_on_c, 1, 69, 0
3, 12755, Note_on_c, 1, 81, 0
3, 12809, Note_on_c, 1, 81, 127
3, 12809, Note_on_c, 1, 57, 127
3, 12809, Note_on_c, 1, 69, 127
3, 12810, Note_on_c, 1, 78, 127
3, 12833, Note_on_c, 1, 78, 0
3, 12838, Note_on_c, 1, 57, 0
3, 12841, Note_on_c, 1, 69, 0
3, 12844, Note_on_c, 1, 81, 0
3, 12968, Note_on_c, 1, 67, 127
3, 12996, Note_on_c, 1, 69, 127
3, 13000, Note_on_c, 1, 67, 0
3, 13020, Note_on_c, 1, 71, 127
3, 13028, Note_on_c, 1, 69, 0
3, 13094, Note_on_c, 1, 71, 0
3, 13097, Note_on_c, 1, 69, 127
3, 13108, Note_on_c, 1, 69, 0
3, 13395, Note_on_c, 1, 76, 127
3, 13413, Note_on_c, 1, 76, 0
3, 13449, Note_on_c, 1, 71, 127
3, 13514, Note_on_c, 1, 71, 0
3, 13529, Note_on_c, 1, 69, 127
3, 13549, Note_on_c, 1, 69, 0
3, 13822, Note_on_c, 1, 67, 127
3, 13846, Note_on_c, 1, 69, 127
3, 13852, Note_on_c, 1, 67, 0
3, 13874, Note_on_c, 1, 71, 127
3, 13881, Note_on_c, 1, 69, 0
3, 13954, Note_on_c, 1, 69, 127
3, 13956, Note_on_c, 1, 71, 0
3, 13969, Note_on_c, 1, 69, 0
3, 14248, Note_on_c, 1, 76, 127
3, 14265, Note_on_c, 1, 76, 0
3, 14303, Note_on_c, 1, 78, 127
3, 14362, Note_on_c, 1, 78, 0
3, 14380, Note_on_c, 1, 76, 127
3, 14393, Note_on_c, 1, 76, 0
3, 14407, Note_on_c, 1, 78, 127
3, 14421, Note_on_c, 1, 78, 0
3, 14430, Note_on_c, 1, 78, 127
3, 14446, Note_on_c, 1, 78, 0
3, 14676, Note_on_c, 1, 67, 127
3, 14699, Note_on_c, 1, 69, 127
3, 14708, Note_on_c, 1, 67, 0
3, 14722, Note_on_c, 1, 71, 127
3, 14731, Note_on_c, 1, 69, 0
3, 14804, Note_on_c, 1, 69, 127
3, 14805, Note_on_c, 1, 71, 0
3, 14816, Note_on_c, 1, 69, 0
3, 15103, Note_on_c, 1, 76, 127
3, 15119, Note_on_c, 1, 76, 0
3, 15157, Note_on_c, 1, 71, 127
3, 15228, Note_on_c, 1, 71, 0
3, 15237, Note_on_c, 1, 69, 127
3, 15254, Note_on_c, 1, 69, 0
3, 15530, Note_on_c, 1, 67, 127
3, 15551, Note_on_c, 1, 69, 127
3, 15559, Note_on_c, 1, 67, 0
3, 15576, Note_on_c, 1, 71, 127
3, 15585, Note_on_c, 1, 69, 0
3, 15655, Note_on_c, 1, 69, 127
3, 15657, Note_on_c, 1, 71, 0
3, 15670, Note_on_c, 1, 69, 0
3, 15958, Note_on_c, 1, 76, 127
3, 15972, Note_on_c, 1, 76, 0
3, 16008, Note_on_c, 1, 78, 127
3, 16069, Note_on_c, 1, 78, 0
3, 16091, Note_on_c, 1, 76, 127
3, 16101, Note_on_c, 1, 76, 0
3, 16115, Note_on_c, 1, 78, 127
3, 16128, Note_on_c, 1, 78, 0
3, 16138, Note_on_c, 1, 78, 127
3, 16152, Note_on_c, 1, 78, 0
3, 16384, Note_on_c, 1, 67, 127
3, 16407, Note_on_c, 1, 69, 127
3, 16416, Note_on_c, 1, 67, 0
3, 16431, Note_on_c, 1, 71, 127
3, 16439, Note_on_c, 1, 69, 0
3, 16512, Note_on_c, 1, 69, 127
3, 16513, Note_on_c, 1, 71, 0
3, 16524, Note_on_c, 1, 69, 0
3, 16811, Note_on_c, 1, 76, 127
3, 16827, Note_on_c, 1, 76, 0
3, 16865, Note_on_c, 1, 71, 127
3, 16940, Note_on_c, 1, 71, 0
3, 16945, Note_on_c, 1, 69, 127
3, 16960, Note_on_c, 1, 69, 0
3, 17238, Note_on_c, 1, 67, 127
3, 17259, Note_on_c, 1, 69, 127
3, 17267, Note_on_c, 1, 67, 0
3, 17284, Note_on_c, 1, 71, 127
3, 17293, Note_on_c, 1, 69, 0
3, 17363, Note_on_c, 1, 69, 127
3, 17365, Note_on_c, 1, 71, 0
3, 17378, Note_on_c, 1, 69, 0
3, 17666, Note_on_c, 1, 76, 127
3, 17677, Note_on_c, 1, 76, 0
3, 17719, Note_on_c, 1, 78, 127
3, 17772, Note_on_c, 1, 78, 0
3, 17793, Note_on_c, 1, 76, 127
3, 17804, Note_on_c, 1, 76, 0
3, 17819, Note_on_c, 1, 78, 127
3, 17832, Note_on_c, 1, 78, 0
3, 17846, Note_on_c, 1, 78, 127
3, 17849, Note_on_c, 1, 79, 127
3, 17856, Note_on_c, 1, 79, 0
3, 17857, Note_on_c, 1, 78, 0
3, 18682, Note_on_c, 1, 67, 127
3, 18698, Note_on_c, 1, 67, 0
3, 18704, Note_on_c, 1, 69, 127
3, 18730, Note_on_c, 1, 69, 0
3, 18753, Note_on_c, 1, 69, 127
3, 18824, Note_on_c, 1, 69, 0
3, 18836, Note_on_c, 1, 69, 127
3, 18847, Note_on_c, 1, 69, 0
3, 19477, Note_on_c, 1, 67, 127
3, 19492, Note_on_c, 1, 67, 0
3, 19532, Note_on_c, 1, 72, 127
3, 19554, Note_on_c, 1, 72, 0
3, 19555, Note_on_c, 1, 69, 127
3, 19595, Note_on_c, 1, 69, 0
3, 20278, Note_on_c, 1, 72, 127
3, 20298, Note_on_c, 1, 72, 0
3, 20301, Note_on_c, 1, 69, 127
3, 20318, Note_on_c, 1, 69, 0
3, 20356, Note_on_c, 1, 69, 127
3, 20412, Note_on_c, 1, 69, 0
3, 20975, Note_on_c, 1, 81, 127
3, 20976, Note_on_c, 1, 69, 127
3, 20985, Note_on_c, 1, 81, 0
3, 20986, Note_on_c, 1, 69, 0
3, 21053, Note_on_c, 1, 81, 127
3, 21054, Note_on_c, 1, 69, 127
3, 21064, Note_on_c, 1, 69, 0
3, 21064, Note_on_c, 1, 81, 0
3, 21135, Note_on_c, 1, 81, 127
3, 21136, Note_on_c, 1, 69, 127
3, 21144, Note_on_c, 1, 81, 0
3, 21145, Note_on_c, 1, 69, 0
3, 21243, Note_on_c, 1, 67, 127
3, 21244, Note_on_c, 1, 79, 127
3, 21250, Note_on_c, 1, 81, 127
3, 21259, Note_on_c, 1, 79, 0
3, 21263, Note_on_c, 1, 67, 0
3, 21265, Note_on_c, 1, 69, 127
3, 21291, Note_on_c, 1, 69, 0
3, 21295, Note_on_c, 1, 81, 0
3, 21349, Note_on_c, 1, 81, 127
3, 21349, Note_on_c, 1, 57, 127
3, 21349, Note_on_c, 1, 69, 127
3, 21350, Note_on_c, 1, 78, 127
3, 21373, Note_on_c, 1, 78, 0
3, 21378, Note_on_c, 1, 57, 0
3, 21381, Note_on_c, 1, 69, 0
3, 21384, Note_on_c, 1, 81, 0
3, 21508, Note_on_c, 1, 67, 127
3, 21536, Note_on_c, 1, 69, 127
3, 21540, Note_on_c, 1, 67, 0
3, 21560, Note_on_c, 1, 71, 127
3, 21568, Note_on_c, 1, 69, 0
3, 21635, Note_on_c, 1, 71, 0
3, 21637, Note_on_c, 1, 69, 127
3, 21648, Note_on_c, 1, 69, 0
3, 21935, Note_on_c, 1, 76, 127
3, 21953, Note_on_c, 1, 76, 0
3, 21989, Note_on_c, 1, 71, 127
3, 22054, Note_on_c, 1, 71, 0
3, 22069, Note_on_c, 1, 69, 127
3, 22089, Note_on_c, 1, 69, 0
3, 22362, Note_on_c, 1, 67, 127
3, 22386, Note_on_c, 1, 69, 127
3, 22392, Note_on_c, 1, 67, 0
3, 22414, Note_on_c, 1, 71, 127
3, 22421, Note_on_c, 1, 69, 0
3, 22494, Note_on_c, 1, 69, 127
3, 22496, Note_on_c, 1, 71, 0
3, 22509, Note_on_c, 1, 69, 0
3, 22788, Note_on_c, 1, 76, 127
3, 22805, Note_on_c, 1, 76, 0
3, 22843, Note_on_c, 1, 78, 127
3, 22902, Note_on_c, 1, 78, 0
3, 22920, Note_on_c, 1, 76, 127
3, 22933, Note_on_c, 1, 76, 0
3, 22947, Note_on_c, 1, 78, 127
3, 22961, Note_on_c, 1, 78, 0
3, 22970, Note_on_c, 1, 78, 127
3, 22986, Note_on_c, 1, 78, 0
3, 23216, Note_on_c, 1, 67, 127
3, 23239, Note_on_c, 1, 69, 127
3, 23248, Note_on_c, 1, 67, 0
3, 23263, Note_on_c, 1, 71, 127
3, 23271, Note_on_c, 1, 69, 0
3, 23344, Note_on_c, 1, 69, 127
3, 23345, Note_on_c, 1, 71, 0
3, 23356, Note_on_c, 1, 69, 0
3, 23643, Note_on_c, 1, 76, 127
3, 23660, Note_on_c, 1, 76, 0
3, 23697, Note_on_c, 1, 71, 127
3, 23772, Note_on_c, 1, 71, 0
3, 23777, Note_on_c, 1, 69, 127
3, 23792, Note_on_c, 1, 69, 0
3, 24070, Note_on_c, 1, 67, 127
3, 24091, Note_on_c, 1, 69, 127
3, 24099, Note_on_c, 1, 67, 0
3, 24117, Note_on_c, 1, 71, 127
3, 24125, Note_on_c, 1, 69, 0
3, 24195, Note_on_c, 1, 69, 127
3, 24197, Note_on_c, 1, 71, 0
3, 24210, Note_on_c, 1, 69, 0
3, 24498, Note_on_c, 1, 76, 127
3, 24509, Note_on_c, 1, 76, 0
3, 24551, Note_on_c, 1, 78, 127
3, 24604, Note_on_c, 1, 78, 0
3, 24625, Note_on_c, 1, 76, 127
3, 24636, Note_on_c, 1, 76, 0
3, 24651, Note_on_c, 1, 78, 127
3, 24664, Note_on_c, 1, 78, 0
3, 24678, Note_on_c, 1, 78, 127
3, 24681, Note_on_c, 1, 79, 127
3, 24688, Note_on_c, 1, 79, 0
3, 24689, Note_on_c, 1, 78, 0
3, 24765, Note_on_c, 1, 74, 127
3, 24834, Note_on_c, 1, 74, 0
3, 24847, Note_on_c, 1, 74, 127
3, 24863, Note_on_c, 1, 74, 0
3, 25192, Note_on_c, 1, 74, 127
3, 25254, Note_on_c, 1, 74, 0
3, 25271, Note_on_c, 1, 74, 127
3, 25285, Note_on_c, 1, 74, 0
3, 25619, Note_on_c, 1, 74, 127
3, 25683, Note_on_c, 1, 74, 0
3, 25701, Note_on_c, 1, 74, 127
3, 25712, Note_on_c, 1, 74, 0
3, 26044, Note_on_c, 1, 74, 127
3, 26105, Note_on_c, 1, 74, 0
3, 26127, Note_on_c, 1, 74, 127
3, 26140, Note_on_c, 1, 74, 0
3, 26470, Note_on_c, 1, 74, 127
3, 26533, Note_on_c, 1, 74, 0
3, 26552, Note_on_c, 1, 74, 127
3, 26563, Note_on_c, 1, 74, 0
3, 26898, Note_on_c, 1, 74, 127
3, 26964, Note_on_c, 1, 74, 0
3, 26981, Note_on_c, 1, 74, 127
3, 26994, Note_on_c, 1, 74, 0
3, 27327, Note_on_c, 1, 74, 127
3, 27390, Note_on_c, 1, 74, 0
3, 27404, Note_on_c, 1, 74, 127
3, 27418, Note_on_c, 1, 74, 0
3, 27751, Note_on_c, 1, 74, 127
3, 27818, Note_on_c, 1, 74, 0
3, 27833, Note_on_c, 1, 74, 127
3, 27847, Note_on_c, 1, 74, 0
3, 27860, Note_on_c, 1, 67, 127
3, 27860, Note_on_c, 1, 79, 127
3, 27874, Note_on_c, 1, 79, 0
3, 27875, Note_on_c, 1, 67, 0
3, 27884, Note_on_c, 1, 69, 127
3, 27885, Note_on_c, 1, 81, 127
3, 27903, Note_on_c, 1, 69, 0
3, 27905, Note_on_c, 1, 81, 0
3, 27938, Note_on_c, 1, 81, 127
3, 27940, Note_on_c, 1, 69, 127
3, 27955, Note_on_c, 1, 69, 0
3, 27955, Note_on_c, 1, 81, 0
3, 27993, Note_on_c, 1, 81, 127
3, 27993, Note_on_c, 1, 69, 127
3, 28006, Note_on_c, 1, 69, 0
3, 28007, Note_on_c, 1, 81, 0
3, 28050, Note_on_c, 1, 81, 127
3, 28051, Note_on_c, 1, 69, 127
3, 28074, Note_on_c, 1, 79, 127
3, 28076, Note_on_c, 1, 67, 127
3, 28079, Note_on_c, 1, 81, 0
3, 28089, Note_on_c, 1, 69, 0
3, 28105, Note_on_c, 1, 67, 0
3, 28106, Note_on_c, 1, 79, 0
3, 28125, Note_on_c, 1, 81, 127
3, 28127, Note_on_c, 1, 69, 127
3, 28151, Note_on_c, 1, 69, 0
3, 28151, Note_on_c, 1, 81, 0
3, 28181, Note_on_c, 1, 81, 127
3, 28181, Note_on_c, 1, 57, 127
3, 28181, Note_on_c, 1, 69, 127
3, 28182, Note_on_c, 1, 78, 127
3, 28205, Note_on_c, 1, 78, 0
3, 28210, Note_on_c, 1, 57, 0
3, 28213, Note_on_c, 1, 69, 0
3, 28216, Note_on_c, 1, 81, 0
3, 28340, Note_on_c, 1, 67, 127
3, 28368, Note_on_c, 1, 69, 127
3, 28372, Note_on_c, 1, 67, 0
3, 28392, Note_on_c, 1, 71, 127
3, 28400, Note_on_c, 1, 69, 0
3, 28467, Note_on_c, 1, 71, 0
3, 28469, Note_on_c, 1, 69, 127
3, 28480, Note_on_c, 1, 69, 0
3, 28767, Note_on_c, 1, 76, 127
3, 28785, Note_on_c, 1, 76, 0
3, 28821, Note_on_c, 1, 71, 127
3, 28886, Note_on_c, 1, 71, 0
3, 28901, Note_on_c, 1, 69, 127
3, 28921, Note_on_c, 1, 69, 0
3, 29194, Note_on_c, 1, 67, 127
3, 29218, Note_on_c, 1, 69, 127
3, 29224, Note_on_c, 1, 67, 0
3, 29246, Note_on_c, 1, 71, 127
3, 29253, Note_on_c, 1, 69, 0
3, 29326, Note_on_c, 1, 69, 127
3, 29328, Note_on_c, 1, 71, 0
3, 29341, Note_on_c, 1, 69, 0
3, 29620, Note_on_c, 1, 76, 127
3, 29637, Note_on_c, 1, 76, 0
3, 29675, Note_on_c, 1, 78, 127
3, 29734, Note_on_c, 1, 78, 0
3, 29752, Note_on_c, 1, 76, 127
3, 29765, Note_on_c, 1, 76, 0
3, 29779, Note_on_c, 1, 78, 127
3, 29793, Note_on_c, 1, 78, 0
3, 29802, Note_on_c, 1, 78, 127
3, 29818, Note_on_c, 1, 78, 0
3, 30048, Note_on_c, 1, 67, 127
3, 30071, Note_on_c, 1, 69, 127
3, 30080, Note_on_c, 1, 67, 0
3, 30095, Note_on_c, 1, 71, 127
3, 30104, Note_on_c, 1, 69, 0
3, 30176, Note_on_c, 1, 69, 127
3, 30177, Note_on_c, 1, 71, 0
3, 30188, Note_on_c, 1, 69, 0
3, 30475, Note_on_c, 1, 76, 127
3, 30492, Note_on_c, 1, 76, 0
3, 30529, Note_on_c, 1, 71, 127
3, 30601, Note_on_c, 1, 71, 0
3, 30609, Note_on_c, 1, 69, 127
3, 30626, Note_on_c, 1, 69, 0
3, 30902, Note_on_c, 1, 67, 127
3, 30923, Note_on_c, 1, 69, 127
3, 30931, Note_on_c, 1, 67, 0
3, 30949, Note_on_c, 1, 71, 127
3, 30958, Note_on_c, 1, 69, 0
3, 31028, Note_on_c, 1, 69, 127
3, 31029, Note_on_c, 1, 71, 0
3, 31042, Note_on_c, 1, 69, 0
3, 31330, Note_on_c, 1, 76, 127
3, 31344, Note_on_c, 1, 76, 0
3, 31380, Note_on_c, 1, 78, 127
3, 31441, Note_on_c, 1, 78, 0
3, 31463, Note_on_c, 1, 76, 127
3, 31473, Note_on_c, 1, 76, 0
3, 31487, Note_on_c, 1, 78, 127
3, 31500, Note_on_c, 1, 78, 0
3, 31510, Note_on_c, 1, 78, 127
3, 31525, Note_on_c, 1, 78, 0
3, 31597, Note_on_c, 1, 81, 127
3, 31597, Note_on_c, 1, 57, 127
3, 31597, Note_on_c, 1, 69, 127
3, 31598, Note_on_c, 1, 78, 127
3, 31621, Note_on_c, 1, 78, 0
3, 31626, Note_on_c, 1, 57, 0
3, 31629, Note_on_c, 1, 69, 0
3, 31632, Note_on_c, 1, 81, 0
3, 31756, Note_on_c, 1, 67, 127
3, 31784, Note_on_c, 1, 69, 127
3, 31788, Note_on_c, 1, 67, 0
3, 31808, Note_on_c, 1, 71, 127
3, 31816, Note_on_c, 1, 69, 0
3, 31883, Note_on_c, 1, 71, 0
3, 31885, Note_on_c, 1, 69, 127
3, 31896, Note_on_c, 1, 69, 0
3, 32183, Note_on_c, 1, 76, 127
3, 32201, Note_on_c, 1, 76, 0
3, 32237, Note_on_c, 1, 71, 127
3, 32302, Note_on_c, 1, 71, 0
3, 32317, Note_on_c, 1, 69, 127
3, 32337, Note_on_c, 1, 69, 0
3, 32610, Note_on_c, 1, 67, 127
3, 32634, Note_on_c, 1, 69, 127
3, 32640, Note_on_c, 1, 67, 0
3, 32662, Note_on_c, 1, 71, 127
3, 32669, Note_on_c, 1, 69, 0
3, 32742, Note_on_c, 1, 69, 127
3, 32744, Note_on_c, 1, 71, 0
3, 32757, Note_on_c, 1, 69, 0
3, 33036, Note_on_c, 1, 76, 127
3, 33053, Note_on_c, 1, 76, 0
3, 33091, Note_on_c, 1, 78, 127
3, 33150, Note_on_c, 1, 78, 0
3, 33168, Note_on_c, 1, 76, 127
3, 33181, Note_on_c, 1, 76, 0
3, 33195, Note_on_c, 1, 78, 127
3, 33209, Note_on_c, 1, 78, 0
3, 33218, Note_on_c, 1, 78, 127
3, 33234, Note_on_c, 1, 78, 0
3, 33464, Note_on_c, 1, 67, 127
3, 33487, Note_on_c, 1, 69, 127
3, 33496, Note_on_c, 1, 67, 0
3, 33511, Note_on_c, 1, 71, 127
3, 33520, Note_on_c, 1, 69, 0
3, 33592, Note_on_c, 1, 69, 127
3, 33593, Note_on_c, 1, 71, 0
3, 33604, Note_on_c, 1, 69, 0
3, 33891, Note_on_c, 1, 76, 127
3, 33908, Note_on_c, 1, 76, 0
3, 33945, Note_on_c, 1, 71, 127
3, 34017, Note_on_c, 1, 71, 0
3, 34025, Note_on_c, 1, 69, 127
3, 34042, Note_on_c, 1, 69, 0
3, 34318, Note_on_c, 1, 67, 127
3, 34339, Note_on_c, 1, 69, 127
3, 34347, Note_on_c, 1, 67, 0
3, 34365, Note_on_c, 1, 71, 127
3, 34374, Note_on_c, 1, 69, 0
3, 34444, Note_on_c, 1, 69, 127
3, 34445, Note_on_c, 1, 71, 0
3, 34458, Note_on_c, 1, 69, 0
3, 34746, Note_on_c, 1, 76, 127
3, 34761, Note_on_c, 1, 76, 0
3, 34796, Note_on_c, 1, 78, 127
3, 34857, Note_on_c, 1, 78, 0
3, 34879, Note_on_c, 1, 76, 127
3, 34890, Note_on_c, 1, 76, 0
3, 34903, Note_on_c, 1, 78, 127
3, 34916, Note_on_c, 1, 78, 0
3, 34926, Note_on_c, 1, 78, 127
3, 34941, Note_on_c, 1, 78, 0
3, 35013, Note_on_c, 1, 74, 127
3, 35082, Note_on_c, 1, 74, 0
3, 35095, Note_on_c, 1, 74, 127
3, 35111, Note_on_c, 1, 74, 0
3, 35440, Note_on_c, 1, 74, 127
3, 35503, Note_on_c, 1, 74, 0
3, 35519, Note_on_c, 1, 74, 127
3, 35533, Note_on_c, 1, 74, 0
3, 35867, Note_on_c, 1, 74, 127
3, 35931, Note_on_c, 1, 74, 0
3, 35949, Note_on_c, 1, 74, 127
3, 35960, Note_on_c, 1, 74, 0
3, 36292, Note_on_c, 1, 74, 127
3, 36353, Note_on_c, 1, 74, 0
3, 36375, Note_on_c, 1, 74, 127
3, 36388, Note_on_c, 1, 74, 0
3, 36718, Note_on_c, 1, 74, 127
3, 36781, Note_on_c, 1, 74, 0
3, 36800, Note_on_c, 1, 74, 127
3, 36811, Note_on_c, 1, 74, 0
3, 37146, Note_on_c, 1, 74, 127
3, 37212, Note_on_c, 1, 74, 0
3, 37229, Note_on_c, 1, 74, 127
3, 37242, Note_on_c, 1, 74, 0
3, 37575, Note_on_c, 1, 74, 127
3, 37638, Note_on_c, 1, 74, 0
3, 37652, Note_on_c, 1, 74, 127
3, 37666, Note_on_c, 1, 74, 0
3, 37999, Note_on_c, 1, 74, 127
3, 38066, Note_on_c, 1, 74, 0
3, 38081, Note_on_c, 1, 74, 127
3, 38095, Note_on_c, 1, 74, 0
3, 38108, Note_on_c, 1, 67, 127
3, 38109, Note_on_c, 1, 79, 127
3, 38122, Note_on_c, 1, 79, 0
3, 38123, Note_on_c, 1, 67, 0
3, 38132, Note_on_c, 1, 69, 127
3, 38133, Note_on_c, 1, 81, 127
3, 38151, Note_on_c, 1, 69, 0
3, 38153, Note_on_c, 1, 81, 0
3, 38187, Note_on_c, 1, 81, 127
3, 38188, Note_on_c, 1, 69, 127
3, 38203, Note_on_c, 1, 69, 0
3, 38203, Note_on_c, 1, 81, 0
3, 38241, Note_on_c, 1, 81, 127
3, 38241, Note_on_c, 1, 69, 127
3, 38254, Note_on_c, 1, 69, 0
3, 38256, Note_on_c, 1, 81, 0
3, 38298, Note_on_c, 1, 81, 127
3, 38299, Note_on_c, 1, 69, 127
3, 38322, Note_on_c, 1, 79, 127
3, 38324, Note_on_c, 1, 67, 127
3, 38327, Note_on_c, 1, 81, 0
3, 38337, Note_on_c, 1, 69, 0
3, 38353, Note_on_c, 1, 67, 0
3, 38354, Note_on_c, 1, 79, 0
3, 38373, Note_on_c, 1, 81, 127
3, 38376, Note_on_c, 1, 69, 127
3, 38399, Note_on_c, 1, 69, 0
3, 38399, Note_on_c, 1, 81, 0
3, 38429, Note_on_c, 1, 81, 127
3, 38429, Note_on_c, 1, 57, 127
3, 38429, Note_on_c, 1, 69, 127
3, 38430, Note_on_c, 1, 78, 127
3, 38453, Note_on_c, 1, 78, 0
3, 38458, Note_on_c, 1, 57, 0
3, 38461, Note_on_c, 1, 69, 0
3, 38465, Note_on_c, 1, 81, 0
3, 38589, Note_on_c, 1, 67, 127
3, 38616, Note_on_c, 1, 69, 127
3, 38620, Note_on_c, 1, 67, 0
3, 38640, Note_on_c, 1, 71, 127
3, 38648, Note_on_c, 1, 69, 0
3, 38715, Note_on_c, 1, 71, 0
3, 38717, Note_on_c, 1, 69, 127
3, 38728, Note_on_c, 1, 69, 0
3, 39016, Note_on_c, 1, 76, 127
3, 39033, Note_on_c, 1, 76, 0
3, 39069, Note_on_c, 1, 71, 127
3, 39134, Note_on_c, 1, 71, 0
3, 39149, Note_on_c, 1, 69, 127
3, 39170, Note_on_c, 1, 69, 0
3, 39443, Note_on_c, 1, 67, 127
3, 39466, Note_on_c, 1, 69, 127
3, 39472, Note_on_c, 1, 67, 0
3, 39494, Note_on_c, 1, 71, 127
3, 39501, Note_on_c, 1, 69, 0
3, 39574, Note_on_c, 1, 69, 127
3, 39577, Note_on_c, 1, 71, 0
3, 39589, Note_on_c, 1, 69, 0
3, 39868, Note_on_c, 1, 76, 127
3, 39885, Note_on_c, 1, 76, 0
3, 39923, Note_on_c, 1, 78, 127
3, 39982, Note_on_c, 1, 78, 0
3, 40000, Note_on_c, 1, 76, 127
3, 40014, Note_on_c, 1, 76, 0
3, 40027, Note_on_c, 1, 78, 127
3, 40041, Note_on_c, 1, 78, 0
3, 40050, Note_on_c, 1, 78, 127
3, 40066, Note_on_c, 1, 78, 0
3, 40297, Note_on_c, 1, 67, 127
3, 40319, Note_on_c, 1, 69, 127
3, 40328, Note_on_c, 1, 67, 0
3, 40343, Note_on_c, 1, 71, 127
3, 40352, Note_on_c, 1, 69, 0
3, 40424, Note_on_c, 1, 69, 127
3, 40425, Note_on_c, 1, 71, 0
3, 40436, Note_on_c, 1, 69, 0
3, 40724, Note_on_c, 1, 76, 127
3, 40740, Note_on_c, 1, 76, 0
3, 40777, Note_on_c, 1, 71, 127
3, 40849, Note_on_c, 1, 71, 0
3, 40857, Note_on_c, 1, 69, 127
3, 40874, Note_on_c, 1, 69, 0
3, 41151, Note_on_c, 1, 67, 127
3, 41171, Note_on_c, 1, 69, 127
3, 41179, Note_on_c, 1, 67, 0
3, 41197, Note_on_c, 1, 71, 127
3, 41206, Note_on_c, 1, 69, 0
3, 41276, Note_on_c, 1, 69, 127
3, 41277, Note_on_c, 1, 71, 0
3, 41290, Note_on_c, 1, 69, 0
3, 41578, Note_on_c, 1, 76, 127
3, 41593, Note_on_c, 1, 76, 0
3, 41628, Note_on_c, 1, 78, 127
3, 41689, Note_on_c, 1, 78, 0
3, 41711, Note_on_c, 1, 76, 127
3, 41722, Note_on_c, 1, 76, 0
3, 41735, Note_on_c, 1, 78, 127
3, 41748, Note_on_c, 1, 78, 0
3, 41758, Note_on_c, 1, 78, 127
3, 41773, Note_on_c, 1, 78, 0
3, 42005, Note_on_c, 1, 67, 127
3, 42027, Note_on_c, 1, 69, 127
3, 42036, Note_on_c, 1, 67, 0
3, 42051, Note_on_c, 1, 71, 127
3, 42060, Note_on_c, 1, 69, 0
3, 42132, Note_on_c, 1, 69, 127
3, 42133, Note_on_c, 1, 71, 0
3, 42144, Note_on_c, 1, 69, 0
3, 42432, Note_on_c, 1, 76, 127
3, 42448, Note_on_c, 1, 76, 0
3, 42485, Note_on_c, 1, 71, 127
3, 42560, Note_on_c, 1, 71, 0
3, 42565, Note_on_c, 1, 69, 127
3, 42580, Note_on_c, 1, 69, 0
3, 42859, Note_on_c, 1, 67, 127
3, 42879, Note_on_c, 1, 69, 127
3, 42887, Note_on_c, 1, 67, 0
3, 42905, Note_on_c, 1, 71, 127
3, 42914, Note_on_c, 1, 69, 0
3, 42984, Note_on_c, 1, 69, 127
3, 42985, Note_on_c, 1, 71, 0
3, 42998, Note_on_c, 1, 69, 0
3, 43286, Note_on_c, 1, 76, 127
3, 43297, Note_on_c, 1, 76, 0
3, 43340, Note_on_c, 1, 78, 127
3, 43392, Note_on_c, 1, 78, 0
3, 43413, Note_on_c, 1, 76, 127
3, 43424, Note_on_c, 1, 76, 0
3, 43440, Note_on_c, 1, 78, 127
3, 43452, Note_on_c, 1, 78, 0
3, 43467, Note_on_c, 1, 78, 127
3, 43470, Note_on_c, 1, 79, 127
3, 43476, Note_on_c, 1, 79, 0
3, 43477, Note_on_c, 1, 78, 0
3, 43553, Note_on_c, 1, 81, 127
3, 43553, Note_on_c, 1, 57, 127
3, 43554, Note_on_c, 1, 69, 127
3, 43554, Note_on_c, 1, 78, 127
3, 43578, Note_on_c, 1, 78, 0
3, 43582, Note_on_c, 1, 57, 0
3, 43585, Note_on_c, 1, 69, 0
3, 43589, Note_on_c, 1, 81, 0
3, 43713, Note_on_c, 1, 67, 127
3, 43740, Note_on_c, 1, 69, 127
3, 43744, Note_on_c, 1, 67, 0
3, 43764, Note_on_c, 1, 71, 127
3, 43772, Note_on_c, 1, 69, 0
3, 43839, Note_on_c, 1, 71, 0
3, 43841, Note_on_c, 1, 69, 127
3, 43852, Note_on_c, 1, 69, 0
3, 44140, Note_on_c, 1, 76, 127
3, 44157, Note_on_c, 1, 76, 0
3, 44193, Note_on_c, 1, 71, 127
3, 44258, Note_on_c, 1, 71, 0
3, 44273, Note_on_c, 1, 69, 127
3, 44294, Note_on_c, 1, 69, 0
3, 44567, Note_on_c, 1, 67, 127
3, 44591, Note_on_c, 1, 69, 127
3, 44596, Note_on_c, 1, 67, 0
3, 44618, Note_on_c, 1, 71, 127
3, 44625, Note_on_c, 1, 69, 0
3, 44698, Note_on_c, 1, 69, 127
3, 44701, Note_on_c, 1, 71, 0
3, 44713, Note_on_c, 1, 69, 0
3, 44992, Note_on_c, 1, 76, 127
3, 45009, Note_on_c, 1, 76, 0
3, 45047, Note_on_c, 1, 78, 127
3, 45106, Note_on_c, 1, 78, 0
3, 45124, Note_on_c, 1, 76, 127
3, 45138, Note_on_c, 1, 76, 0
3, 45151, Note_on_c, 1, 78, 127
3, 45165, Note_on_c, 1, 78, 0
3, 45174, Note_on_c, 1, 78, 127
3, 45190, Note_on_c, 1, 78, 0
3, 45421, Note_on_c, 1, 67, 127
3, 45443, Note_on_c, 1, 69, 127
3, 45452, Note_on_c, 1, 67, 0
3, 45467, Note_on_c, 1, 71, 127
3, 45476, Note_on_c, 1, 69, 0
3, 45548, Note_on_c, 1, 69, 127
3, 45549, Note_on_c, 1, 71, 0
3, 45560, Note_on_c, 1, 69, 0
3, 45848, Note_on_c, 1, 76, 127
3, 45864, Note_on_c, 1, 76, 0
3, 45901, Note_on_c, 1, 71, 127
3, 45973, Note_on_c, 1, 71, 0
3, 45981, Note_on_c, 1, 69, 127
3, 45998, Note_on_c, 1, 69, 0
3, 46275, Note_on_c, 1, 67, 127
3, 46295, Note_on_c, 1, 69, 127
3, 46303, Note_on_c, 1, 67, 0
3, 46321, Note_on_c, 1, 71, 127
3, 46330, Note_on_c, 1, 69, 0
3, 46400, Note_on_c, 1, 69, 127
3, 46401, Note_on_c, 1, 71, 0
3, 46414, Note_on_c, 1, 69, 0
3, 46702, Note_on_c, 1, 76, 127
3, 46717, Note_on_c, 1, 76, 0
3, 46752, Note_on_c, 1, 78, 127
3, 46813, Note_on_c, 1, 78, 0
3, 46835, Note_on_c, 1, 76, 127
3, 46846, Note_on_c, 1, 76, 0
3, 46859, Note_on_c, 1, 78, 127
3, 46872, Note_on_c, 1, 78, 0
3, 46882, Note_on_c, 1, 78, 127
3, 46897, Note_on_c, 1, 78, 0
3, 47129, Note_on_c, 1, 67, 127
3, 47151, Note_on_c, 1, 69, 127
3, 47160, Note_on_c, 1, 67, 0
3, 47175, Note_on_c, 1, 71, 127
3, 47184, Note_on_c, 1, 69, 0
3, 47256, Note_on_c, 1, 69, 127
3, 47257, Note_on_c, 1, 71, 0
3, 47268, Note_on_c, 1, 69, 0
3, 47556, Note_on_c, 1, 76, 127
3, 47572, Note_on_c, 1, 76, 0
3, 47609, Note_on_c, 1, 71, 127
3, 47684, Note_on_c, 1, 71, 0
3, 47689, Note_on_c, 1, 69, 127
3, 47704, Note_on_c, 1, 69, 0
3, 47983, Note_on_c, 1, 67, 127
3, 48003, Note_on_c, 1, 69, 127
3, 48011, Note_on_c, 1, 67, 0
3, 48029, Note_on_c, 1, 71, 127
3, 48038, Note_on_c, 1, 69, 0
3, 48108, Note_on_c, 1, 69, 127
3, 48109, Note_on_c, 1, 71, 0
3, 48122, Note_on_c, 1, 69, 0
3, 48410, Note_on_c, 1, 76, 127
3, 48421, Note_on_c, 1, 76, 0
3, 48464, Note_on_c, 1, 78, 127
3, 48516, Note_on_c, 1, 78, 0
3, 48537, Note_on_c, 1, 76, 127
3, 48548, Note_on_c, 1, 76, 0
3, 48564, Note_on_c, 1, 78, 127
3, 48576, Note_on_c, 1, 78, 0
3, 48591, Note_on_c, 1, 78, 127
3, 48594, Note_on_c, 1, 79, 127
3, 48600, Note_on_c, 1, 79, 0
3, 48601, Note_on_c, 1, 78, 0
3, 48677, Note_on_c, 1, 81, 127
3, 48677, Note_on_c, 1, 57, 127
3, 48677, Note_on_c, 1, 69, 127
3, 48678, Note_on_c, 1, 78, 127
3, 48702, Note_on_c, 1, 78, 0
3, 48706, Note_on_c, 1, 57, 0
3, 48709, Note_on_c, 1, 69, 0
3, 48713, Note_on_c, 1, 81, 0
3, 48837, Note_on_c, 1, 67, 127
3, 48864, Note_on_c, 1, 69, 127
3, 48868, Note_on_c, 1, 67, 0
3, 48888, Note_on_c, 1, 71, 127
3, 48896, Note_on_c, 1, 69, 0
3, 48963, Note_on_c, 1, 71, 0
3, 48965, Note_on_c, 1, 69, 127
3, 48976, Note_on_c, 1, 69, 0
3, 49264, Note_on_c, 1, 76, 127
3, 49281, Note_on_c, 1, 76, 0
3, 49317, Note_on_c, 1, 71, 127
3, 49382, Note_on_c, 1, 71, 0
3, 49397, Note_on_c, 1, 69, 127
3, 49418, Note_on_c, 1, 69, 0
3, 49691, Note_on_c, 1, 67, 127
3, 49715, Note_on_c, 1, 69, 127
3, 49720, Note_on_c, 1, 67, 0
3, 49742, Note_on_c, 1, 71, 127
3, 49749, Note_on_c, 1, 69, 0
3, 49822, Note_on_c, 1, 69, 127
3, 49825, Note_on_c, 1, 71, 0
3, 49837, Note_on_c, 1, 69, 0
3, 50116, Note_on_c, 1, 76, 127
3, 50133, Note_on_c, 1, 76, 0
3, 50171, Note_on_c, 1, 78, 127
3, 50231, Note_on_c, 1, 78, 0
3, 50248, Note_on_c, 1, 76, 127
3, 50262, Note_on_c, 1, 76, 0
3, 50275, Note_on_c, 1, 78, 127
3, 50289, Note_on_c, 1, 78, 0
3, 50298, Note_on_c, 1, 78, 127
3, 50314, Note_on_c, 1, 78, 0
3, 50545, Note_on_c, 1, 67, 127
3, 50568, Note_on_c, 1, 69, 127
3, 50576, Note_on_c, 1, 67, 0
3, 50591, Note_on_c, 1, 71, 127
3, 50600, Note_on_c, 1, 69, 0
3, 50672, Note_on_c, 1, 69, 127
3, 50673, Note_on_c, 1, 71, 0
3, 50684, Note_on_c, 1, 69, 0
3, 50972, Note_on_c, 1, 76, 127
3, 50988, Note_on_c, 1, 76, 0
3, 51025, Note_on_c, 1, 71, 127
3, 51097, Note_on_c, 1, 71, 0
3, 51105, Note_on_c, 1, 69, 127
3, 51122, Note_on_c, 1, 69, 0
3, 51399, Note_on_c, 1, 67, 127
3, 51419, Note_on_c, 1, 69, 127
3, 51427, Note_on_c, 1, 67, 0
3, 51445, Note_on_c, 1, 71, 127
3, 51454, Note_on_c, 1, 69, 0
3, 51524, Note_on_c, 1, 69, 127
3, 51525, Note_on_c, 1, 71, 0
3, 51538, Note_on_c, 1, 69, 0
3, 51826, Note_on_c, 1, 76, 127
3, 51841, Note_on_c, 1, 76, 0
3, 51876, Note_on_c, 1, 78, 127
3, 51937, Note_on_c, 1, 78, 0
3, 51959, Note_on_c, 1, 76, 127
3, 51970, Note_on_c, 1, 76, 0
3, 51983, Note_on_c, 1, 78, 127
3, 51996, Note_on_c, 1, 78, 0
3, 52006, Note_on_c, 1, 78, 127
3, 52021, Note_on_c, 1, 78, 0
3, 52253, Note_on_c, 1, 67, 127
3, 52276, Note_on_c, 1, 69, 127
3, 52284, Note_on_c, 1, 67, 0
3, 52299, Note_on_c, 1, 71, 127
3, 52308, Note_on_c, 1, 69, 0
3, 52380, Note_on_c, 1, 69, 127
3, 52381, Note_on_c, 1, 71, 0
3, 52392, Note_on_c, 1, 69, 0
3, 52680, Note_on_c, 1, 76, 127
3, 52696, Note_on_c, 1, 76, 0
3, 52733, Note_on_c, 1, 71, 127
3, 52808, Note_on_c, 1, 71, 0
3, 52813, Note_on_c, 1, 69, 127
3, 52828, Note_on_c, 1, 69, 0
3, 53107, Note_on_c, 1, 67, 127
3, 53127, Note_on_c, 1, 69, 127
3, 53135, Note_on_c, 1, 67, 0
3, 53153, Note_on_c, 1, 71, 127
3, 53162, Note_on_c, 1, 69, 0
3, 53232, Note_on_c, 1, 69, 127
3, 53233, Note_on_c, 1, 71, 0
3, 53246, Note_on_c, 1, 69, 0
3, 53534, Note_on_c, 1, 76, 127
3, 53545, Note_on_c, 1, 76, 0
3, 53588, Note_on_c, 1, 78, 127
3, 53640, Note_on_c, 1, 78, 0
3, 53661, Note_on_c, 1, 76, 127
3, 53672, Note_on_c, 1, 76, 0
3, 53688, Note_on_c, 1, 78, 127
3, 53700, Note_on_c, 1, 78, 0
3, 53715, Note_on_c, 1, 78, 127
3, 53718, Note_on_c, 1, 79, 127
3, 53724, Note_on_c, 1, 79, 0
3, 53726, Note_on_c, 1, 78, 0
3, 53801, Note_on_c, 1, 81, 127
3, 53802, Note_on_c, 1, 57, 127
3, 53802, Note_on_c, 1, 69, 127
3, 53802, Note_on_c, 1, 78, 127
3, 53826, Note_on_c, 1, 78, 0
3, 53830, Note_on_c, 1, 57, 0
3, 53833, Note_on_c, 1, 69, 0
3, 53837, Note_on_c, 1, 81, 0
3, 53961, Note_on_c, 1, 67, 127
3, 53988, Note_on_c, 1, 69, 127
3, 53992, Note_on_c, 1, 67, 0
3, 54012, Note_on_c, 1, 71, 127
3, 54020, Note_on_c, 1, 69, 0
3, 54087, Note_on_c, 1, 71, 0
3, 54089, Note_on_c, 1, 69, 127
3, 54100, Note_on_c, 1, 69, 0
3, 54388, Note_on_c, 1, 76, 127
3, 54405, Note_on_c, 1, 76, 0
3, 54441, Note_on_c, 1, 71, 127
3, 54506, Note_on_c, 1, 71, 0
3, 54521, Note_on_c, 1, 69, 127
3, 54542, Note_on_c, 1, 69, 0
3, 54815, Note_on_c, 1, 67, 127
3, 54839, Note_on_c, 1, 69, 127
3, 54844, Note_on_c, 1, 67, 0
3, 54866, Note_on_c, 1, 71, 127
3, 54873, Note_on_c, 1, 69, 0
3, 54946, Note_on_c, 1, 69, 127
3, 54949, Note_on_c, 1, 71, 0
3, 54961, Note_on_c, 1, 69, 0
3, 55240, Note_on_c, 1, 76, 127
3, 55257, Note_on_c, 1, 76, 0
3, 55295, Note_on_c, 1, 78, 127
3, 55355, Note_on_c, 1, 78, 0
3, 55372, Note_on_c, 1, 76, 127
3, 55386, Note_on_c, 1, 76, 0
3, 55399, Note_on_c, 1, 78, 127
3, 55414, Note_on_c, 1, 78, 0
3, 55422, Note_on_c, 1, 78, 127
3, 55438, Note_on_c, 1, 78, 0
3, 55669, Note_on_c, 1, 67, 127
3, 55692, Note_on_c, 1, 69, 127
3, 55700, Note_on_c, 1, 67, 0
3, 55715, Note_on_c, 1, 71, 127
3, 55724, Note_on_c, 1, 69, 0
3, 55796, Note_on_c, 1, 69, 127
3, 55797, Note_on_c, 1, 71, 0
3, 55808, Note_on_c, 1, 69, 0
3, 56096, Note_on_c, 1, 76, 127
3, 56112, Note_on_c, 1, 76, 0
3, 56149, Note_on_c, 1, 71, 127
3, 56221, Note_on_c, 1, 71, 0
3, 56229, Note_on_c, 1, 69, 127
3, 56246, Note_on_c, 1, 69, 0
3, 56523, Note_on_c, 1, 67, 127
3, 56543, Note_on_c, 1, 69, 127
3, 56551, Note_on_c, 1, 67, 0
3, 56569, Note_on_c, 1, 71, 127
3, 56578, Note_on_c, 1, 69, 0
3, 56648, Note_on_c, 1, 69, 127
3, 56649, Note_on_c, 1, 71, 0
3, 56662, Note_on_c, 1, 69, 0
3, 56950, Note_on_c, 1, 76, 127
3, 56965, Note_on_c, 1, 76, 0
3, 57000, Note_on_c, 1, 78, 127
3, 57061, Note_on_c, 1, 78, 0
3, 57083, Note_on_c, 1, 76, 127
3, 57094, Note_on_c, 1, 76, 0
3, 57107, Note_on_c, 1, 78, 127
3, 57120, Note_on_c, 1, 78, 0
3, 57130, Note_on_c, 1, 78, 127
3, 57145, Note_on_c, 1, 78, 0
3, 57377, Note_on_c, 1, 67, 127
3, 57400, Note_on_c, 1, 69, 127
3, 57408, Note_on_c, 1, 67, 0
3, 57423, Note_on_c, 1, 71, 127
3, 57432, Note_on_c, 1, 69, 0
3, 57504, Note_on_c, 1, 69, 127
3, 57505, Note_on_c, 1, 71, 0
3, 57516, Note_on_c, 1, 69, 0
3, 57804, Note_on_c, 1, 76, 127
3, 57820, Note_on_c, 1, 76, 0
3, 57857, Note_on_c, 1, 71, 127
3, 57932, Note_on_c, 1, 71, 0
3, 57937, Note_on_c, 1, 69, 127
3, 57952, Note_on_c, 1, 69, 0
3, 58231, Note_on_c, 1, 67, 127
3, 58251, Note_on_c, 1, 69, 127
3, 58259, Note_on_c, 1, 67, 0
3, 58277, Note_on_c, 1, 71, 127
3, 58286, Note_on_c, 1, 69, 0
3, 58356, Note_on_c, 1, 69, 127
3, 58357, Note_on_c, 1, 71, 0
3, 58370, Note_on_c, 1, 69, 0
3, 58658, Note_on_c, 1, 76, 127
3, 58669, Note_on_c, 1, 76, 0
3, 58712, Note_on_c, 1, 78, 127
3, 58764, Note_on_c, 1, 78, 0
3, 58785, Note_on_c, 1, 76, 127
3, 58796, Note_on_c, 1, 76, 0
3, 58812, Note_on_c, 1, 78, 127
3, 58824, Note_on_c, 1, 78, 0
3, 58839, Note_on_c, 1, 78, 127
3, 58842, Note_on_c, 1, 79, 127
3, 58848, Note_on_c, 1, 79, 0
3, 58850, Note_on_c, 1, 78, 0
3, 58925, Note_on_c, 1, 57, 127
3, 58925, Note_on_c, 1, 81, 127
3, 58925, Note_on_c, 1, 69, 127
3, 58969, Note_on_c, 1, 57, 0
3, 58970, Note_on_c, 1, 69, 0
3, 58972, Note_on_c, 1, 81, 0
3, 58972, End_track
4, 0, Start_track
4, 0, MIDI_port, 0
4, 0, Program_c, 9, 8
4, 0, Control_c, 9, 7, 127
4, 0, Control_c, 9, 10, 64
4, 0, Control_c, 9, 91, 50
4, 0, Note_on_c, 9, 42, 127
4, 1, Note_on_c, 9, 42, 0
4, 104, Note_on_c, 9, 42, 127
4, 105, Note_on_c, 9, 42, 0
4, 211, Note_on_c, 9, 42, 127
4, 212, Note_on_c, 9, 42, 0
4, 318, Note_on_c, 9, 42, 127
4, 319, Note_on_c, 9, 42, 0
4, 371, Note_on_c, 9, 38, 127
4, 372, Note_on_c, 9, 38, 0
4, 384, Note_on_c, 9, 38, 127
4, 385, Note_on_c, 9, 38, 0
4, 398, Note_on_c, 9, 38, 127
4, 399, Note_on_c, 9, 38, 0
4, 411, Note_on_c, 9, 38, 127
4, 412, Note_on_c, 9, 38, 0
4, 425, Note_on_c, 9, 40, 127
4, 432, Note_on_c, 9, 40, 0
4, 451, Note_on_c, 9, 40, 127
4, 467, Note_on_c, 9, 40, 0
4, 478, Note_on_c, 9, 50, 127
4, 490, Note_on_c, 9, 50, 0
4, 505, Note_on_c, 9, 50, 127
4, 517, Note_on_c, 9, 50, 0
4, 531, Note_on_c, 9, 50, 127
4, 542, Note_on_c, 9, 50, 0
4, 558, Note_on_c, 9, 50, 127
4, 569, Note_on_c, 9, 50, 0
4, 611, Note_on_c, 9, 47, 127
4, 624, Note_on_c, 9, 47, 0
4, 665, Note_on_c, 9, 47, 127
4, 678, Note_on_c, 9, 47, 0
4, 691, Note_on_c, 9, 47, 127
4, 702, Note_on_c, 9, 47, 0
4, 718, Note_on_c, 9, 47, 127
4, 725, Note_on_c, 9, 47, 0
4, 745, Note_on_c, 9, 43, 127
4, 757, Note_on_c, 9, 43, 0
4, 771, Note_on_c, 9, 43, 127
4, 783, Note_on_c, 9, 43, 0
4, 852, Note_on_c, 9, 49, 127
4, 852, Note_on_c, 9, 42, 127
4, 852, Note_on_c, 9, 36, 127
4, 863, Note_on_c, 9, 42, 0
4, 905, Note_on_c, 9, 42, 127
4, 906, Note_on_c, 9, 36, 0
4, 906, Note_on_c, 9, 49, 0
4, 919, Note_on_c, 9, 42, 0
4, 958, Note_on_c, 9, 40, 127
4, 958, Note_on_c, 9, 42, 127
4, 970, Note_on_c, 9, 42, 0
4, 1012, Note_on_c, 9, 42, 127
4, 1012, Note_on_c, 9, 36, 127
4, 1014, Note_on_c, 9, 40, 0
4, 1022, Note_on_c, 9, 42, 0
4, 1033, Note_on_c, 9, 36, 0
4, 1065, Note_on_c, 9, 42, 127
4, 1065, Note_on_c, 9, 36, 127
4, 1078, Note_on_c, 9, 42, 0
4, 1118, Note_on_c, 9, 42, 127
4, 1123, Note_on_c, 9, 36, 0
4, 1128, Note_on_c, 9, 42, 0
4, 1145, Note_on_c, 9, 36, 127
4, 1172, Note_on_c, 9, 40, 127
4, 1172, Note_on_c, 9, 42, 127
4, 1183, Note_on_c, 9, 42, 0
4, 1193, Note_on_c, 9, 36, 0
4, 1225, Note_on_c, 9, 46, 127
4, 1225, Note_on_c, 9, 36, 127
4, 1235, Note_on_c, 9, 40, 0
4, 1266, Note_on_c, 9, 46, 0
4, 1279, Note_on_c, 9, 36, 0
4, 1279, Note_on_c, 9, 42, 127
4, 1292, Note_on_c, 9, 42, 0
4, 1332, Note_on_c, 9, 42, 127
4, 1343, Note_on_c, 9, 42, 0
4, 1385, Note_on_c, 9, 40, 127
4, 1385, Note_on_c, 9, 42, 127
4, 1401, Note_on_c, 9, 42, 0
4, 1439, Note_on_c, 9, 42, 127
4, 1439, Note_on_c, 9, 36, 127
4, 1441, Note_on_c, 9, 40, 0
4, 1452, Note_on_c, 9, 42, 0
4, 1455, Note_on_c, 9, 36, 0
4, 1492, Note_on_c, 9, 42, 127
4, 1492, Note_on_c, 9, 36, 127
4, 1508, Note_on_c, 9, 42, 0
4, 1540, Note_on_c, 9, 36, 0
4, 1545, Note_on_c, 9, 42, 127
4, 1558, Note_on_c, 9, 42, 0
4, 1572, Note_on_c, 9, 36, 127
4, 1599, Note_on_c, 9, 40, 127
4, 1599, Note_on_c, 9, 42, 127
4, 1614, Note_on_c, 9, 42, 0
4, 1618, Note_on_c, 9, 36, 0
4, 1652, Note_on_c, 9, 46, 127
4, 1652, Note_on_c, 9, 36, 127
4, 1655, Note_on_c, 9, 40, 0
4, 1691, Note_on_c, 9, 46, 0
4, 1706, Note_on_c, 9, 42, 127
4, 1708, Note_on_c, 9, 36, 0
4, 1721, Note_on_c, 9, 42, 0
4, 1759, Note_on_c, 9, 42, 127
4, 1772, Note_on_c, 9, 42, 0
4, 1812, Note_on_c, 9, 40, 127
4, 1812, Note_on_c, 9, 42, 127
4, 1829, Note_on_c, 9, 42, 0
4, 1851, Note_on_c, 9, 40, 0
4, 1866, Note_on_c, 9, 42, 127
4, 1866, Note_on_c, 9, 36, 127
4, 1880, Note_on_c, 9, 42, 0
4, 1883, Note_on_c, 9, 36, 0
4, 1919, Note_on_c, 9, 42, 127
4, 1919, Note_on_c, 9, 36, 127
4, 1938, Note_on_c, 9, 42, 0
4, 1967, Note_on_c, 9, 36, 0
4, 1972, Note_on_c, 9, 42, 127
4, 1989, Note_on_c, 9, 42, 0
4, 1999, Note_on_c, 9, 36, 127
4, 2026, Note_on_c, 9, 40, 127
4, 2026, Note_on_c, 9, 42, 127
4, 2039, Note_on_c, 9, 36, 0
4, 2045, Note_on_c, 9, 42, 0
4, 2079, Note_on_c, 9, 46, 127
4, 2079, Note_on_c, 9, 36, 127
4, 2088, Note_on_c, 9, 40, 0
4, 2126, Note_on_c, 9, 46, 0
4, 2130, Note_on_c, 9, 36, 0
4, 2133, Note_on_c, 9, 42, 127
4, 2157, Note_on_c, 9, 42, 0
4, 2186, Note_on_c, 9, 42, 127
4, 2201, Note_on_c, 9, 42, 0
4, 2239, Note_on_c, 9, 40, 127
4, 2239, Note_on_c, 9, 42, 127
4, 2256, Note_on_c, 9, 42, 0
4, 2286, Note_on_c, 9, 40, 0
4, 2293, Note_on_c, 9, 42, 127
4, 2293, Note_on_c, 9, 36, 127
4, 2306, Note_on_c, 9, 42, 0
4, 2313, Note_on_c, 9, 36, 0
4, 2346, Note_on_c, 9, 42, 127
4, 2346, Note_on_c, 9, 36, 127
4, 2365, Note_on_c, 9, 42, 0
4, 2395, Note_on_c, 9, 36, 0
4, 2399, Note_on_c, 9, 42, 127
4, 2416, Note_on_c, 9, 42, 0
4, 2426, Note_on_c, 9, 36, 127
4, 2453, Note_on_c, 9, 40, 127
4, 2453, Note_on_c, 9, 42, 127
4, 2467, Note_on_c, 9, 36, 0
4, 2471, Note_on_c, 9, 42, 0
4, 2506, Note_on_c, 9, 40, 127
4, 2506, Note_on_c, 9, 46, 127
4, 2507, Note_on_c, 9, 40, 0
4, 2507, Note_on_c, 9, 36, 127
4, 2518, Note_on_c, 9, 40, 0
4, 2529, Note_on_c, 9, 36, 0
4, 2533, Note_on_c, 9, 40, 127
4, 2543, Note_on_c, 9, 46, 0
4, 2546, Note_on_c, 9, 40, 0
4, 2560, Note_on_c, 9, 49, 127
4, 2560, Note_on_c, 9, 42, 127
4, 2560, Note_on_c, 9, 36, 127
4, 2571, Note_on_c, 9, 42, 0
4, 2601, Note_on_c, 9, 49, 0
4, 2613, Note_on_c, 9, 42, 127
4, 2614, Note_on_c, 9, 36, 0
4, 2627, Note_on_c, 9, 42, 0
4, 2666, Note_on_c, 9, 40, 127
4, 2666, Note_on_c, 9, 42, 127
4, 2678, Note_on_c, 9, 42, 0
4, 2720, Note_on_c, 9, 42, 127
4, 2720, Note_on_c, 9, 36, 127
4, 2722, Note_on_c, 9, 40, 0
4, 2730, Note_on_c, 9, 42, 0
4, 2741, Note_on_c, 9, 36, 0
4, 2773, Note_on_c, 9, 42, 127
4, 2773, Note_on_c, 9, 36, 127
4, 2787, Note_on_c, 9, 42, 0
4, 2826, Note_on_c, 9, 42, 127
4, 2831, Note_on_c, 9, 36, 0
4, 2836, Note_on_c, 9, 42, 0
4, 2853, Note_on_c, 9, 36, 127
4, 2880, Note_on_c, 9, 40, 127
4, 2880, Note_on_c, 9, 42, 127
4, 2891, Note_on_c, 9, 42, 0
4, 2901, Note_on_c, 9, 36, 0
4, 2933, Note_on_c, 9, 46, 127
4, 2933, Note_on_c, 9, 36, 127
4, 2943, Note_on_c, 9, 40, 0
4, 2974, Note_on_c, 9, 46, 0
4, 2987, Note_on_c, 9, 36, 0
4, 2987, Note_on_c, 9, 42, 127
4, 3000, Note_on_c, 9, 42, 0
4, 3040, Note_on_c, 9, 42, 127
4, 3051, Note_on_c, 9, 42, 0
4, 3093, Note_on_c, 9, 40, 127
4, 3093, Note_on_c, 9, 42, 127
4, 3109, Note_on_c, 9, 42, 0
4, 3147, Note_on_c, 9, 42, 127
4, 3147, Note_on_c, 9, 36, 127
4, 3149, Note_on_c, 9, 40, 0
4, 3160, Note_on_c, 9, 42, 0
4, 3163, Note_on_c, 9, 36, 0
4, 3200, Note_on_c, 9, 42, 127
4, 3200, Note_on_c, 9, 36, 127
4, 3216, Note_on_c, 9, 42, 0
4, 3248, Note_on_c, 9, 36, 0
4, 3253, Note_on_c, 9, 42, 127
4, 3266, Note_on_c, 9, 42, 0
4, 3280, Note_on_c, 9, 36, 127
4, 3307, Note_on_c, 9, 40, 127
4, 3307, Note_on_c, 9, 42, 127
4, 3322, Note_on_c, 9, 42, 0
4, 3326, Note_on_c, 9, 36, 0
4, 3360, Note_on_c, 9, 46, 127
4, 3360, Note_on_c, 9, 36, 127
4, 3363, Note_on_c, 9, 40, 0
4, 3399, Note_on_c, 9, 46, 0
4, 3414, Note_on_c, 9, 42, 127
4, 3416, Note_on_c, 9, 36, 0
4, 3429, Note_on_c, 9, 42, 0
4, 3467, Note_on_c, 9, 42, 127
4, 3480, Note_on_c, 9, 42, 0
4, 3520, Note_on_c, 9, 40, 127
4, 3520, Note_on_c, 9, 42, 127
4, 3537, Note_on_c, 9, 42, 0
4, 3559, Note_on_c, 9, 40, 0
4, 3574, Note_on_c, 9, 42, 127
4, 3574, Note_on_c, 9, 36, 127
4, 3588, Note_on_c, 9, 42, 0
4, 3591, Note_on_c, 9, 36, 0
4, 3627, Note_on_c, 9, 42, 127
4, 3627, Note_on_c, 9, 36, 127
4, 3646, Note_on_c, 9, 42, 0
4, 3675, Note_on_c, 9, 36, 0
4, 3680, Note_on_c, 9, 42, 127
4, 3697, Note_on_c, 9, 42, 0
4, 3707, Note_on_c, 9, 36, 127
4, 3734, Note_on_c, 9, 40, 127
4, 3734, Note_on_c, 9, 42, 127
4, 3747, Note_on_c, 9, 36, 0
4, 3753, Note_on_c, 9, 42, 0
4, 3787, Note_on_c, 9, 46, 127
4, 3787, Note_on_c, 9, 36, 127
4, 3796, Note_on_c, 9, 40, 0
4, 3834, Note_on_c, 9, 46, 0
4, 3838, Note_on_c, 9, 36, 0
4, 3841, Note_on_c, 9, 42, 127
4, 3865, Note_on_c, 9, 42, 0
4, 3894, Note_on_c, 9, 42, 127
4, 3909, Note_on_c, 9, 42, 0
4, 3947, Note_on_c, 9, 40, 127
4, 3947, Note_on_c, 9, 42, 127
4, 3964, Note_on_c, 9, 42, 0
4, 3994, Note_on_c, 9, 40, 0
4, 4001, Note_on_c, 9, 42, 127
4, 4001, Note_on_c, 9, 36, 127
4, 4014, Note_on_c, 9, 42, 0
4, 4021, Note_on_c, 9, 36, 0
4, 4054, Note_on_c, 9, 42, 127
4, 4054, Note_on_c, 9, 36, 127
4, 4073, Note_on_c, 9, 42, 0
4, 4103, Note_on_c, 9, 36, 0
4, 4107, Note_on_c, 9, 42, 127
4, 4124, Note_on_c, 9, 42, 0
4, 4134, Note_on_c, 9, 36, 127
4, 4161, Note_on_c, 9, 50, 127
4, 4161, Note_on_c, 9, 40, 127
4, 4161, Note_on_c, 9, 42, 127
4, 4173, Note_on_c, 9, 50, 0
4, 4175, Note_on_c, 9, 36, 0
4, 4179, Note_on_c, 9, 42, 0
4, 4188, Note_on_c, 9, 47, 127
4, 4200, Note_on_c, 9, 47, 0
4, 4214, Note_on_c, 9, 47, 127
4, 4214, Note_on_c, 9, 46, 127
4, 4214, Note_on_c, 9, 36, 127
4, 4216, Note_on_c, 9, 40, 0
4, 4225, Note_on_c, 9, 47, 0
4, 4237, Note_on_c, 9, 36, 0
4, 4241, Note_on_c, 9, 43, 127
4, 4251, Note_on_c, 9, 46, 0
4, 4252, Note_on_c, 9, 43, 0
4, 4268, Note_on_c, 9, 49, 127
4, 4268, Note_on_c, 9, 42, 127
4, 4268, Note_on_c, 9, 36, 127
4, 4277, Note_on_c, 9, 49, 0
4, 4279, Note_on_c, 9, 42, 0
4, 4321, Note_on_c, 9, 42, 127
4, 4322, Note_on_c, 9, 36, 0
4, 4335, Note_on_c, 9, 42, 0
4, 4374, Note_on_c, 9, 40, 127
4, 4374, Note_on_c, 9, 42, 127
4, 4386, Note_on_c, 9, 42, 0
4, 4428, Note_on_c, 9, 42, 127
4, 4428, Note_on_c, 9, 36, 127
4, 4430, Note_on_c, 9, 40, 0
4, 4438, Note_on_c, 9, 42, 0
4, 4449, Note_on_c, 9, 36, 0
4, 4481, Note_on_c, 9, 42, 127
4, 4481, Note_on_c, 9, 36, 127
4, 4494, Note_on_c, 9, 42, 0
4, 4534, Note_on_c, 9, 42, 127
4, 4539, Note_on_c, 9, 36, 0
4, 4544, Note_on_c, 9, 42, 0
4, 4561, Note_on_c, 9, 36, 127
4, 4588, Note_on_c, 9, 40, 127
4, 4588, Note_on_c, 9, 42, 127
4, 4599, Note_on_c, 9, 42, 0
4, 4609, Note_on_c, 9, 36, 0
4, 4641, Note_on_c, 9, 46, 127
4, 4641, Note_on_c, 9, 36, 127
4, 4651, Note_on_c, 9, 40, 0
4, 4682, Note_on_c, 9, 46, 0
4, 4695, Note_on_c, 9, 36, 0
4, 4695, Note_on_c, 9, 42, 127
4, 4708, Note_on_c, 9, 42, 0
4, 4748, Note_on_c, 9, 42, 127
4, 4759, Note_on_c, 9, 42, 0
4, 4801, Note_on_c, 9, 40, 127
4, 4802, Note_on_c, 9, 42, 127
4, 4817, Note_on_c, 9, 42, 0
4, 4855, Note_on_c, 9, 42, 127
4, 4855, Note_on_c, 9, 36, 127
4, 4857, Note_on_c, 9, 40, 0
4, 4868, Note_on_c, 9, 42, 0
4, 4871, Note_on_c, 9, 36, 0
4, 4908, Note_on_c, 9, 42, 127
4, 4908, Note_on_c, 9, 36, 127
4, 4924, Note_on_c, 9, 42, 0
4, 4956, Note_on_c, 9, 36, 0
4, 4961, Note_on_c, 9, 42, 127
4, 4974, Note_on_c, 9, 42, 0
4, 4988, Note_on_c, 9, 36, 127
4, 5015, Note_on_c, 9, 40, 127
4, 5015, Note_on_c, 9, 42, 127
4, 5030, Note_on_c, 9, 42, 0
4, 5034, Note_on_c, 9, 36, 0
4, 5068, Note_on_c, 9, 46, 127
4, 5068, Note_on_c, 9, 36, 127
4, 5071, Note_on_c, 9, 40, 0
4, 5107, Note_on_c, 9, 46, 0
4, 5122, Note_on_c, 9, 42, 127
4, 5124, Note_on_c, 9, 36, 0
4, 5137, Note_on_c, 9, 42, 0
4, 5175, Note_on_c, 9, 42, 127
4, 5188, Note_on_c, 9, 42, 0
4, 5228, Note_on_c, 9, 40, 127
4, 5229, Note_on_c, 9, 42, 127
4, 5245, Note_on_c, 9, 42, 0
4, 5267, Note_on_c, 9, 40, 0
4, 5282, Note_on_c, 9, 42, 127
4, 5282, Note_on_c, 9, 36, 127
4, 5296, Note_on_c, 9, 42, 0
4, 5299, Note_on_c, 9, 36, 0
4, 5335, Note_on_c, 9, 42, 127
4, 5335, Note_on_c, 9, 36, 127
4, 5354, Note_on_c, 9, 42, 0
4, 5383, Note_on_c, 9, 36, 0
4, 5388, Note_on_c, 9, 42, 127
4, 5405, Note_on_c, 9, 42, 0
4, 5415, Note_on_c, 9, 36, 127
4, 5442, Note_on_c, 9, 40, 127
4, 5442, Note_on_c, 9, 42, 127
4, 5455, Note_on_c, 9, 36, 0
4, 5461, Note_on_c, 9, 42, 0
4, 5495, Note_on_c, 9, 46, 127
4, 5495, Note_on_c, 9, 36, 127
4, 5504, Note_on_c, 9, 40, 0
4, 5542, Note_on_c, 9, 46, 0
4, 5546, Note_on_c, 9, 36, 0
4, 5549, Note_on_c, 9, 42, 127
4, 5573, Note_on_c, 9, 42, 0
4, 5602, Note_on_c, 9, 42, 127
4, 5617, Note_on_c, 9, 42, 0
4, 5655, Note_on_c, 9, 40, 127
4, 5656, Note_on_c, 9, 42, 127
4, 5672, Note_on_c, 9, 42, 0
4, 5702, Note_on_c, 9, 40, 0
4, 5709, Note_on_c, 9, 42, 127
4, 5709, Note_on_c, 9, 36, 127
4, 5722, Note_on_c, 9, 42, 0
4, 5729, Note_on_c, 9, 36, 0
4, 5762, Note_on_c, 9, 42, 127
4, 5762, Note_on_c, 9, 36, 127
4, 5781, Note_on_c, 9, 42, 0
4, 5811, Note_on_c, 9, 36, 0
4, 5815, Note_on_c, 9, 42, 127
4, 5832, Note_on_c, 9, 42, 0
4, 5842, Note_on_c, 9, 36, 127
4, 5869, Note_on_c, 9, 40, 127
4, 5869, Note_on_c, 9, 42, 127
4, 5883, Note_on_c, 9, 36, 0
4, 5887, Note_on_c, 9, 42, 0
4, 5922, Note_on_c, 9, 40, 127
4, 5922, Note_on_c, 9, 46, 127
4, 5923, Note_on_c, 9, 40, 0
4, 5923, Note_on_c, 9, 36, 127
4, 5933, Note_on_c, 9, 40, 0
4, 5945, Note_on_c, 9, 36, 0
4, 5949, Note_on_c, 9, 40, 127
4, 5959, Note_on_c, 9, 46, 0
4, 5961, Note_on_c, 9, 40, 0
4, 5976, Note_on_c, 9, 49, 127
4, 5976, Note_on_c, 9, 42, 127
4, 5976, Note_on_c, 9, 36, 127
4, 5986, Note_on_c, 9, 49, 0
4, 5987, Note_on_c, 9, 42, 0
4, 6029, Note_on_c, 9, 42, 127
4, 6030, Note_on_c, 9, 36, 0
4, 6043, Note_on_c, 9, 42, 0
4, 6082, Note_on_c, 9, 40, 127
4, 6083, Note_on_c, 9, 42, 127
4, 6095, Note_on_c, 9, 42, 0
4, 6136, Note_on_c, 9, 42, 127
4, 6136, Note_on_c, 9, 36, 127
4, 6138, Note_on_c, 9, 40, 0
4, 6146, Note_on_c, 9, 42, 0
4, 6157, Note_on_c, 9, 36, 0
4, 6189, Note_on_c, 9, 42, 127
4, 6189, Note_on_c, 9, 36, 127
4, 6202, Note_on_c, 9, 42, 0
4, 6242, Note_on_c, 9, 42, 127
4, 6247, Note_on_c, 9, 36, 0
4, 6252, Note_on_c, 9, 42, 0
4, 6269, Note_on_c, 9, 36, 127
4, 6296, Note_on_c, 9, 40, 127
4, 6296, Note_on_c, 9, 42, 127
4, 6307, Note_on_c, 9, 42, 0
4, 6317, Note_on_c, 9, 36, 0
4, 6349, Note_on_c, 9, 46, 127
4, 6349, Note_on_c, 9, 36, 127
4, 6359, Note_on_c, 9, 40, 0
4, 6390, Note_on_c, 9, 46, 0
4, 6403, Note_on_c, 9, 36, 0
4, 6403, Note_on_c, 9, 42, 127
4, 6416, Note_on_c, 9, 42, 0
4, 6456, Note_on_c, 9, 42, 127
4, 6467, Note_on_c, 9, 42, 0
4, 6509, Note_on_c, 9, 40, 127
4, 6510, Note_on_c, 9, 42, 127
4, 6525, Note_on_c, 9, 42, 0
4, 6563, Note_on_c, 9, 42, 127
4, 6563, Note_on_c, 9, 36, 127
4, 6565, Note_on_c, 9, 40, 0
4, 6576, Note_on_c, 9, 42, 0
4, 6580, Note_on_c, 9, 36, 0
4, 6616, Note_on_c, 9, 42, 127
4, 6616, Note_on_c, 9, 36, 127
4, 6632, Note_on_c, 9, 42, 0
4, 6664, Note_on_c, 9, 36, 0
4, 6669, Note_on_c, 9, 42, 127
4, 6682, Note_on_c, 9, 42, 0
4, 6696, Note_on_c, 9, 36, 127
4, 6723, Note_on_c, 9, 40, 127
4, 6723, Note_on_c, 9, 42, 127
4, 6738, Note_on_c, 9, 42, 0
4, 6742, Note_on_c, 9, 36, 0
4, 6776, Note_on_c, 9, 46, 127
4, 6776, Note_on_c, 9, 36, 127
4, 6779, Note_on_c, 9, 40, 0
4, 6815, Note_on_c, 9, 46, 0
4, 6830, Note_on_c, 9, 42, 127
4, 6832, Note_on_c, 9, 36, 0
4, 6845, Note_on_c, 9, 42, 0
4, 6883, Note_on_c, 9, 42, 127
4, 6896, Note_on_c, 9, 42, 0
4, 6936, Note_on_c, 9, 40, 127
4, 6937, Note_on_c, 9, 42, 127
4, 6953, Note_on_c, 9, 42, 0
4, 6975, Note_on_c, 9, 40, 0
4, 6990, Note_on_c, 9, 42, 127
4, 6990, Note_on_c, 9, 36, 127
4, 7004, Note_on_c, 9, 42, 0
4, 7007, Note_on_c, 9, 36, 0
4, 7043, Note_on_c, 9, 42, 127
4, 7043, Note_on_c, 9, 36, 127
4, 7062, Note_on_c, 9, 42, 0
4, 7091, Note_on_c, 9, 36, 0
4, 7096, Note_on_c, 9, 42, 127
4, 7113, Note_on_c, 9, 42, 0
4, 7123, Note_on_c, 9, 36, 127
4, 7150, Note_on_c, 9, 40, 127
4, 7150, Note_on_c, 9, 42, 127
4, 7163, Note_on_c, 9, 36, 0
4, 7169, Note_on_c, 9, 42, 0
4, 7203, Note_on_c, 9, 46, 127
4, 7203, Note_on_c, 9, 36, 127
4, 7212, Note_on_c, 9, 40, 0
4, 7250, Note_on_c, 9, 46, 0
4, 7254, Note_on_c, 9, 36, 0
4, 7257, Note_on_c, 9, 42, 127
4, 7281, Note_on_c, 9, 42, 0
4, 7310, Note_on_c, 9, 42, 127
4, 7325, Note_on_c, 9, 42, 0
4, 7363, Note_on_c, 9, 40, 127
4, 7364, Note_on_c, 9, 42, 127
4, 7380, Note_on_c, 9, 42, 0
4, 7410, Note_on_c, 9, 40, 0
4, 7417, Note_on_c, 9, 42, 127
4, 7417, Note_on_c, 9, 36, 127
4, 7430, Note_on_c, 9, 42, 0
4, 7437, Note_on_c, 9, 36, 0
4, 7470, Note_on_c, 9, 42, 127
4, 7470, Note_on_c, 9, 36, 127
4, 7489, Note_on_c, 9, 42, 0
4, 7519, Note_on_c, 9, 36, 0
4, 7523, Note_on_c, 9, 42, 127
4, 7540, Note_on_c, 9, 42, 0
4, 7550, Note_on_c, 9, 36, 127
4, 7577, Note_on_c, 9, 47, 127
4, 7577, Note_on_c, 9, 40, 127
4, 7577, Note_on_c, 9, 42, 127
4, 7588, Note_on_c, 9, 47, 0
4, 7591, Note_on_c, 9, 36, 0
4, 7595, Note_on_c, 9, 42, 0
4, 7604, Note_on_c, 9, 47, 127
4, 7615, Note_on_c, 9, 47, 0
4, 7630, Note_on_c, 9, 43, 127
4, 7630, Note_on_c, 9, 46, 127
4, 7630, Note_on_c, 9, 36, 127
4, 7632, Note_on_c, 9, 40, 0
4, 7640, Note_on_c, 9, 43, 0
4, 7654, Note_on_c, 9, 36, 0
4, 7657, Note_on_c, 9, 43, 127
4, 7667, Note_on_c, 9, 43, 0
4, 7667, Note_on_c, 9, 46, 0
4, 7684, Note_on_c, 9, 49, 127
4, 7684, Note_on_c, 9, 48, 127
4, 7684, Note_on_c, 9, 42, 127
4, 7684, Note_on_c, 9, 36, 127
4, 7692, Note_on_c, 9, 48, 0
4, 7695, Note_on_c, 9, 49, 0
4, 7695, Note_on_c, 9, 42, 0
4, 7737, Note_on_c, 9, 42, 127
4, 7738, Note_on_c, 9, 36, 0
4, 7751, Note_on_c, 9, 42, 0
4, 7790, Note_on_c, 9, 40, 127
4, 7791, Note_on_c, 9, 42, 127
4, 7803, Note_on_c, 9, 42, 0
4, 7844, Note_on_c, 9, 42, 127
4, 7844, Note_on_c, 9, 36, 127
4, 7846, Note_on_c, 9, 40, 0
4, 7854, Note_on_c, 9, 42, 0
4, 7865, Note_on_c, 9, 36, 0
4, 7897, Note_on_c, 9, 42, 127
4, 7897, Note_on_c, 9, 36, 127
4, 7910, Note_on_c, 9, 42, 0
4, 7950, Note_on_c, 9, 42, 127
4, 7955, Note_on_c, 9, 36, 0
4, 7960, Note_on_c, 9, 42, 0
4, 7977, Note_on_c, 9, 36, 127
4, 8004, Note_on_c, 9, 40, 127
4, 8004, Note_on_c, 9, 42, 127
4, 8015, Note_on_c, 9, 42, 0
4, 8025, Note_on_c, 9, 36, 0
4, 8057, Note_on_c, 9, 46, 127
4, 8057, Note_on_c, 9, 36, 127
4, 8067, Note_on_c, 9, 40, 0
4, 8098, Note_on_c, 9, 46, 0
4, 8111, Note_on_c, 9, 36, 0
4, 8111, Note_on_c, 9, 42, 127
4, 8124, Note_on_c, 9, 42, 0
4, 8164, Note_on_c, 9, 42, 127
4, 8175, Note_on_c, 9, 42, 0
4, 8217, Note_on_c, 9, 40, 127
4, 8218, Note_on_c, 9, 42, 127
4, 8233, Note_on_c, 9, 42, 0
4, 8271, Note_on_c, 9, 42, 127
4, 8271, Note_on_c, 9, 36, 127
4, 8273, Note_on_c, 9, 40, 0
4, 8284, Note_on_c, 9, 42, 0
4, 8288, Note_on_c, 9, 36, 0
4, 8324, Note_on_c, 9, 42, 127
4, 8324, Note_on_c, 9, 36, 127
4, 8340, Note_on_c, 9, 42, 0
4, 8372, Note_on_c, 9, 36, 0
4, 8377, Note_on_c, 9, 42, 127
4, 8390, Note_on_c, 9, 42, 0
4, 8404, Note_on_c, 9, 36, 127
4, 8431, Note_on_c, 9, 40, 127
4, 8431, Note_on_c, 9, 42, 127
4, 8446, Note_on_c, 9, 42, 0
4, 8450, Note_on_c, 9, 36, 0
4, 8484, Note_on_c, 9, 46, 127
4, 8484, Note_on_c, 9, 36, 127
4, 8488, Note_on_c, 9, 40, 0
4, 8523, Note_on_c, 9, 46, 0
4, 8538, Note_on_c, 9, 42, 127
4, 8540, Note_on_c, 9, 36, 0
4, 8553, Note_on_c, 9, 42, 0
4, 8591, Note_on_c, 9, 42, 127
4, 8604, Note_on_c, 9, 42, 0
4, 8644, Note_on_c, 9, 40, 127
4, 8645, Note_on_c, 9, 42, 127
4, 8661, Note_on_c, 9, 42, 0
4, 8683, Note_on_c, 9, 40, 0
4, 8698, Note_on_c, 9, 42, 127
4, 8698, Note_on_c, 9, 36, 127
4, 8712, Note_on_c, 9, 42, 0
4, 8716, Note_on_c, 9, 36, 0
4, 8751, Note_on_c, 9, 42, 127
4, 8751, Note_on_c, 9, 36, 127
4, 8770, Note_on_c, 9, 42, 0
4, 8799, Note_on_c, 9, 36, 0
4, 8804, Note_on_c, 9, 42, 127
4, 8821, Note_on_c, 9, 42, 0
4, 8831, Note_on_c, 9, 36, 127
4, 8858, Note_on_c, 9, 40, 127
4, 8858, Note_on_c, 9, 42, 127
4, 8871, Note_on_c, 9, 36, 0
4, 8877, Note_on_c, 9, 42, 0
4, 8911, Note_on_c, 9, 46, 127
4, 8911, Note_on_c, 9, 36, 127
4, 8920, Note_on_c, 9, 40, 0
4, 8958, Note_on_c, 9, 46, 0
4, 8962, Note_on_c, 9, 36, 0
4, 8965, Note_on_c, 9, 42, 127
4, 8989, Note_on_c, 9, 42, 0
4, 9018, Note_on_c, 9, 42, 127
4, 9033, Note_on_c, 9, 42, 0
4, 9071, Note_on_c, 9, 40, 127
4, 9072, Note_on_c, 9, 42, 127
4, 9088, Note_on_c, 9, 42, 0
4, 9118, Note_on_c, 9, 40, 0
4, 9125, Note_on_c, 9, 42, 127
4, 9125, Note_on_c, 9, 36, 127
4, 9138, Note_on_c, 9, 42, 0
4, 9145, Note_on_c, 9, 36, 0
4, 9178, Note_on_c, 9, 42, 127
4, 9178, Note_on_c, 9, 36, 127
4, 9197, Note_on_c, 9, 42, 0
4, 9227, Note_on_c, 9, 36, 0
4, 9232, Note_on_c, 9, 42, 127
4, 9248, Note_on_c, 9, 42, 0
4, 9258, Note_on_c, 9, 36, 127
4, 9285, Note_on_c, 9, 40, 127
4, 9285, Note_on_c, 9, 42, 127
4, 9299, Note_on_c, 9, 36, 0
4, 9303, Note_on_c, 9, 42, 0
4, 9338, Note_on_c, 9, 40, 127
4, 9339, Note_on_c, 9, 40, 0
4, 9339, Note_on_c, 9, 46, 127
4, 9339, Note_on_c, 9, 36, 127
4, 9347, Note_on_c, 9, 40, 0
4, 9362, Note_on_c, 9, 36, 0
4, 9365, Note_on_c, 9, 40, 127
4, 9375, Note_on_c, 9, 40, 0
4, 9375, Note_on_c, 9, 46, 0
4, 9392, Note_on_c, 9, 49, 127
4, 9392, Note_on_c, 9, 42, 127
4, 9392, Note_on_c, 9, 36, 127
4, 9399, Note_on_c, 9, 42, 0
4, 9402, Note_on_c, 9, 49, 0
4, 9426, Note_on_c, 9, 36, 0
4, 9445, Note_on_c, 9, 42, 127
4, 9450, Note_on_c, 9, 42, 0
4, 9498, Note_on_c, 9, 40, 127
4, 9499, Note_on_c, 9, 42, 127
4, 9517, Note_on_c, 9, 42, 0
4, 9552, Note_on_c, 9, 46, 127
4, 9552, Note_on_c, 9, 36, 127
4, 9553, Note_on_c, 9, 40, 0
4, 9567, Note_on_c, 9, 36, 0
4, 9567, Note_on_c, 9, 46, 0
4, 9605, Note_on_c, 9, 42, 127
4, 9605, Note_on_c, 9, 36, 127
4, 9620, Note_on_c, 9, 42, 0
4, 9621, Note_on_c, 9, 36, 0
4, 9658, Note_on_c, 9, 42, 127
4, 9670, Note_on_c, 9, 42, 0
4, 9712, Note_on_c, 9, 40, 127
4, 9712, Note_on_c, 9, 42, 127
4, 9724, Note_on_c, 9, 42, 0
4, 9755, Note_on_c, 9, 40, 0
4, 9765, Note_on_c, 9, 42, 127
4, 9765, Note_on_c, 9, 36, 127
4, 9775, Note_on_c, 9, 42, 0
4, 9781, Note_on_c, 9, 36, 0
4, 9819, Note_on_c, 9, 42, 127
4, 9819, Note_on_c, 9, 36, 127
4, 9830, Note_on_c, 9, 42, 0
4, 9834, Note_on_c, 9, 36, 0
4, 9872, Note_on_c, 9, 42, 127
4, 9882, Note_on_c, 9, 42, 0
4, 9925, Note_on_c, 9, 40, 127
4, 9926, Note_on_c, 9, 42, 127
4, 9940, Note_on_c, 9, 42, 0
4, 9963, Note_on_c, 9, 40, 0
4, 9979, Note_on_c, 9, 46, 127
4, 9979, Note_on_c, 9, 36, 127
4, 9993, Note_on_c, 9, 46, 0
4, 9994, Note_on_c, 9, 36, 0
4, 10032, Note_on_c, 9, 42, 127
4, 10032, Note_on_c, 9, 36, 127
4, 10045, Note_on_c, 9, 42, 0
4, 10047, Note_on_c, 9, 36, 0
4, 10085, Note_on_c, 9, 42, 127
4, 10095, Note_on_c, 9, 42, 0
4, 10139, Note_on_c, 9, 40, 127
4, 10139, Note_on_c, 9, 42, 127
4, 10151, Note_on_c, 9, 42, 0
4, 10178, Note_on_c, 9, 40, 0
4, 10192, Note_on_c, 9, 42, 127
4, 10192, Note_on_c, 9, 36, 127
4, 10202, Note_on_c, 9, 42, 0
4, 10206, Note_on_c, 9, 36, 0
4, 10246, Note_on_c, 9, 42, 127
4, 10246, Note_on_c, 9, 36, 127
4, 10258, Note_on_c, 9, 42, 0
4, 10261, Note_on_c, 9, 36, 0
4, 10299, Note_on_c, 9, 42, 127
4, 10308, Note_on_c, 9, 42, 0
4, 10352, Note_on_c, 9, 40, 127
4, 10353, Note_on_c, 9, 42, 127
4, 10367, Note_on_c, 9, 42, 0
4, 10378, Note_on_c, 9, 40, 0
4, 10406, Note_on_c, 9, 46, 127
4, 10406, Note_on_c, 9, 36, 127
4, 10420, Note_on_c, 9, 36, 0
4, 10421, Note_on_c, 9, 46, 0
4, 10459, Note_on_c, 9, 42, 127
4, 10459, Note_on_c, 9, 36, 127
4, 10475, Note_on_c, 9, 42, 0
4, 10476, Note_on_c, 9, 36, 0
4, 10512, Note_on_c, 9, 42, 127
4, 10521, Note_on_c, 9, 42, 0
4, 10566, Note_on_c, 9, 40, 127
4, 10566, Note_on_c, 9, 42, 127
4, 10580, Note_on_c, 9, 42, 0
4, 10599, Note_on_c, 9, 40, 0
4, 10619, Note_on_c, 9, 42, 127
4, 10619, Note_on_c, 9, 36, 127
4, 10625, Note_on_c, 9, 42, 0
4, 10634, Note_on_c, 9, 36, 0
4, 10673, Note_on_c, 9, 42, 127
4, 10673, Note_on_c, 9, 36, 127
4, 10681, Note_on_c, 9, 42, 0
4, 10687, Note_on_c, 9, 36, 0
4, 10726, Note_on_c, 9, 42, 127
4, 10733, Note_on_c, 9, 42, 0
4, 10779, Note_on_c, 9, 40, 127
4, 10780, Note_on_c, 9, 42, 127
4, 10790, Note_on_c, 9, 42, 0
4, 10812, Note_on_c, 9, 40, 0
4, 10833, Note_on_c, 9, 46, 127
4, 10833, Note_on_c, 9, 36, 127
4, 10845, Note_on_c, 9, 46, 0
4, 10846, Note_on_c, 9, 36, 0
4, 10886, Note_on_c, 9, 42, 127
4, 10886, Note_on_c, 9, 36, 127
4, 10898, Note_on_c, 9, 36, 0
4, 10899, Note_on_c, 9, 42, 0
4, 10939, Note_on_c, 9, 42, 127
4, 10947, Note_on_c, 9, 42, 0
4, 10993, Note_on_c, 9, 40, 127
4, 10993, Note_on_c, 9, 42, 127
4, 11003, Note_on_c, 9, 42, 0
4, 11014, Note_on_c, 9, 40, 0
4, 11046, Note_on_c, 9, 42, 127
4, 11046, Note_on_c, 9, 36, 127
4, 11053, Note_on_c, 9, 42, 0
4, 11061, Note_on_c, 9, 36, 0
4, 11100, Note_on_c, 9, 42, 127
4, 11100, Note_on_c, 9, 36, 127
4, 11107, Note_on_c, 9, 42, 0
4, 11134, Note_on_c, 9, 36, 0
4, 11153, Note_on_c, 9, 42, 127
4, 11159, Note_on_c, 9, 42, 0
4, 11206, Note_on_c, 9, 40, 127
4, 11207, Note_on_c, 9, 42, 127
4, 11225, Note_on_c, 9, 42, 0
4, 11260, Note_on_c, 9, 46, 127
4, 11260, Note_on_c, 9, 36, 127
4, 11261, Note_on_c, 9, 40, 0
4, 11275, Note_on_c, 9, 36, 0
4, 11275, Note_on_c, 9, 46, 0
4, 11313, Note_on_c, 9, 42, 127
4, 11313, Note_on_c, 9, 36, 127
4, 11328, Note_on_c, 9, 42, 0
4, 11329, Note_on_c, 9, 36, 0
4, 11366, Note_on_c, 9, 42, 127
4, 11378, Note_on_c, 9, 42, 0
4, 11420, Note_on_c, 9, 40, 127
4, 11420, Note_on_c, 9, 42, 127
4, 11432, Note_on_c, 9, 42, 0
4, 11463, Note_on_c, 9, 40, 0
4, 11473, Note_on_c, 9, 42, 127
4, 11473, Note_on_c, 9, 36, 127
4, 11483, Note_on_c, 9, 42, 0
4, 11489, Note_on_c, 9, 36, 0
4, 11527, Note_on_c, 9, 42, 127
4, 11527, Note_on_c, 9, 36, 127
4, 11538, Note_on_c, 9, 42, 0
4, 11542, Note_on_c, 9, 36, 0
4, 11580, Note_on_c, 9, 42, 127
4, 11590, Note_on_c, 9, 42, 0
4, 11633, Note_on_c, 9, 40, 127
4, 11634, Note_on_c, 9, 42, 127
4, 11648, Note_on_c, 9, 42, 0
4, 11671, Note_on_c, 9, 40, 0
4, 11687, Note_on_c, 9, 46, 127
4, 11687, Note_on_c, 9, 36, 127
4, 11701, Note_on_c, 9, 46, 0
4, 11702, Note_on_c, 9, 36, 0
4, 11740, Note_on_c, 9, 42, 127
4, 11740, Note_on_c, 9, 36, 127
4, 11753, Note_on_c, 9, 42, 0
4, 11755, Note_on_c, 9, 36, 0
4, 11793, Note_on_c, 9, 42, 127
4, 11803, Note_on_c, 9, 42, 0
4, 11847, Note_on_c, 9, 40, 127
4, 11847, Note_on_c, 9, 42, 127
4, 11859, Note_on_c, 9, 42, 0
4, 11886, Note_on_c, 9, 40, 0
4, 11900, Note_on_c, 9, 42, 127
4, 11900, Note_on_c, 9, 36, 127
4, 11910, Note_on_c, 9, 42, 0
4, 11914, Note_on_c, 9, 36, 0
4, 11954, Note_on_c, 9, 42, 127
4, 11954, Note_on_c, 9, 36, 127
4, 11966, Note_on_c, 9, 42, 0
4, 11969, Note_on_c, 9, 36, 0
4, 12007, Note_on_c, 9, 42, 127
4, 12016, Note_on_c, 9, 42, 0
4, 12060, Note_on_c, 9, 40, 127
4, 12061, Note_on_c, 9, 42, 127
4, 12075, Note_on_c, 9, 42, 0
4, 12086, Note_on_c, 9, 40, 0
4, 12114, Note_on_c, 9, 46, 127
4, 12114, Note_on_c, 9, 36, 127
4, 12128, Note_on_c, 9, 36, 0
4, 12129, Note_on_c, 9, 46, 0
4, 12167, Note_on_c, 9, 42, 127
4, 12167, Note_on_c, 9, 36, 127
4, 12183, Note_on_c, 9, 42, 0
4, 12184, Note_on_c, 9, 36, 0
4, 12220, Note_on_c, 9, 42, 127
4, 12229, Note_on_c, 9, 42, 0
4, 12274, Note_on_c, 9, 40, 127
4, 12274, Note_on_c, 9, 42, 127
4, 12288, Note_on_c, 9, 42, 0
4, 12307, Note_on_c, 9, 40, 0
4, 12327, Note_on_c, 9, 42, 127
4, 12327, Note_on_c, 9, 36, 127
4, 12333, Note_on_c, 9, 42, 0
4, 12342, Note_on_c, 9, 36, 0
4, 12381, Note_on_c, 9, 42, 127
4, 12381, Note_on_c, 9, 36, 127
4, 12390, Note_on_c, 9, 42, 0
4, 12395, Note_on_c, 9, 36, 0
4, 12434, Note_on_c, 9, 42, 127
4, 12441, Note_on_c, 9, 42, 0
4, 12487, Note_on_c, 9, 40, 127
4, 12488, Note_on_c, 9, 42, 127
4, 12498, Note_on_c, 9, 42, 0
4, 12520, Note_on_c, 9, 40, 0
4, 12541, Note_on_c, 9, 46, 127
4, 12541, Note_on_c, 9, 36, 127
4, 12553, Note_on_c, 9, 46, 0
4, 12554, Note_on_c, 9, 36, 0
4, 12594, Note_on_c, 9, 42, 127
4, 12595, Note_on_c, 9, 36, 127
4, 12606, Note_on_c, 9, 36, 0
4, 12607, Note_on_c, 9, 42, 0
4, 12647, Note_on_c, 9, 42, 127
4, 12655, Note_on_c, 9, 42, 0
4, 12701, Note_on_c, 9, 40, 127
4, 12701, Note_on_c, 9, 42, 127
4, 12711, Note_on_c, 9, 42, 0
4, 12722, Note_on_c, 9, 40, 0
4, 12754, Note_on_c, 9, 40, 127
4, 12754, Note_on_c, 9, 42, 127
4, 12755, Note_on_c, 9, 36, 127
4, 12761, Note_on_c, 9, 42, 0
4, 12763, Note_on_c, 9, 40, 0
4, 12769, Note_on_c, 9, 36, 0
4, 12781, Note_on_c, 9, 40, 127
4, 12792, Note_on_c, 9, 40, 0
4, 12808, Note_on_c, 9, 49, 127
4, 12808, Note_on_c, 9, 42, 127
4, 12808, Note_on_c, 9, 36, 127
4, 12817, Note_on_c, 9, 49, 0
4, 12819, Note_on_c, 9, 42, 0
4, 12861, Note_on_c, 9, 42, 127
4, 12862, Note_on_c, 9, 36, 0
4, 12875, Note_on_c, 9, 42, 0
4, 12914, Note_on_c, 9, 40, 127
4, 12915, Note_on_c, 9, 42, 127
4, 12927, Note_on_c, 9, 42, 0
4, 12968, Note_on_c, 9, 42, 127
4, 12968, Note_on_c, 9, 36, 127
4, 12970, Note_on_c, 9, 40, 0
4, 12978, Note_on_c, 9, 42, 0
4, 12989, Note_on_c, 9, 36, 0
4, 13021, Note_on_c, 9, 42, 127
4, 13021, Note_on_c, 9, 36, 127
4, 13034, Note_on_c, 9, 42, 0
4, 13075, Note_on_c, 9, 42, 127
4, 13079, Note_on_c, 9, 36, 0
4, 13084, Note_on_c, 9, 42, 0
4, 13101, Note_on_c, 9, 36, 127
4, 13128, Note_on_c, 9, 40, 127
4, 13128, Note_on_c, 9, 42, 127
4, 13139, Note_on_c, 9, 42, 0
4, 13149, Note_on_c, 9, 36, 0
4, 13181, Note_on_c, 9, 46, 127
4, 13181, Note_on_c, 9, 36, 127
4, 13191, Note_on_c, 9, 40, 0
4, 13222, Note_on_c, 9, 46, 0
4, 13235, Note_on_c, 9, 36, 0
4, 13235, Note_on_c, 9, 42, 127
4, 13248, Note_on_c, 9, 42, 0
4, 13288, Note_on_c, 9, 42, 127
4, 13299, Note_on_c, 9, 42, 0
4, 13341, Note_on_c, 9, 40, 127
4, 13342, Note_on_c, 9, 42, 127
4, 13357, Note_on_c, 9, 42, 0
4, 13395, Note_on_c, 9, 42, 127
4, 13395, Note_on_c, 9, 36, 127
4, 13397, Note_on_c, 9, 40, 0
4, 13408, Note_on_c, 9, 42, 0
4, 13411, Note_on_c, 9, 36, 0
4, 13448, Note_on_c, 9, 42, 127
4, 13448, Note_on_c, 9, 36, 127
4, 13464, Note_on_c, 9, 42, 0
4, 13496, Note_on_c, 9, 36, 0
4, 13501, Note_on_c, 9, 42, 127
4, 13514, Note_on_c, 9, 42, 0
4, 13528, Note_on_c, 9, 36, 127
4, 13555, Note_on_c, 9, 40, 127
4, 13555, Note_on_c, 9, 42, 127
4, 13570, Note_on_c, 9, 42, 0
4, 13574, Note_on_c, 9, 36, 0
4, 13608, Note_on_c, 9, 46, 127
4, 13608, Note_on_c, 9, 36, 127
4, 13612, Note_on_c, 9, 40, 0
4, 13647, Note_on_c, 9, 46, 0
4, 13662, Note_on_c, 9, 42, 127
4, 13664, Note_on_c, 9, 36, 0
4, 13677, Note_on_c, 9, 42, 0
4, 13715, Note_on_c, 9, 42, 127
4, 13728, Note_on_c, 9, 42, 0
4, 13768, Note_on_c, 9, 40, 127
4, 13769, Note_on_c, 9, 42, 127
4, 13785, Note_on_c, 9, 42, 0
4, 13807, Note_on_c, 9, 40, 0
4, 13822, Note_on_c, 9, 42, 127
4, 13822, Note_on_c, 9, 36, 127
4, 13836, Note_on_c, 9, 42, 0
4, 13840, Note_on_c, 9, 36, 0
4, 13875, Note_on_c, 9, 42, 127
4, 13875, Note_on_c, 9, 36, 127
4, 13894, Note_on_c, 9, 42, 0
4, 13923, Note_on_c, 9, 36, 0
4, 13929, Note_on_c, 9, 42, 127
4, 13945, Note_on_c, 9, 42, 0
4, 13955, Note_on_c, 9, 36, 127
4, 13982, Note_on_c, 9, 40, 127
4, 13982, Note_on_c, 9, 42, 127
4, 13995, Note_on_c, 9, 36, 0
4, 14001, Note_on_c, 9, 42, 0
4, 14035, Note_on_c, 9, 46, 127
4, 14035, Note_on_c, 9, 36, 127
4, 14044, Note_on_c, 9, 40, 0
4, 14082, Note_on_c, 9, 46, 0
4, 14086, Note_on_c, 9, 36, 0
4, 14089, Note_on_c, 9, 42, 127
4, 14113, Note_on_c, 9, 42, 0
4, 14142, Note_on_c, 9, 42, 127
4, 14158, Note_on_c, 9, 42, 0
4, 14195, Note_on_c, 9, 40, 127
4, 14196, Note_on_c, 9, 42, 127
4, 14212, Note_on_c, 9, 42, 0
4, 14242, Note_on_c, 9, 40, 0
4, 14249, Note_on_c, 9, 42, 127
4, 14249, Note_on_c, 9, 36, 127
4, 14262, Note_on_c, 9, 42, 0
4, 14269, Note_on_c, 9, 36, 0
4, 14302, Note_on_c, 9, 42, 127
4, 14302, Note_on_c, 9, 36, 127
4, 14321, Note_on_c, 9, 42, 0
4, 14351, Note_on_c, 9, 36, 0
4, 14356, Note_on_c, 9, 42, 127
4, 14372, Note_on_c, 9, 42, 0
4, 14382, Note_on_c, 9, 36, 127
4, 14409, Note_on_c, 9, 50, 127
4, 14409, Note_on_c, 9, 40, 127
4, 14409, Note_on_c, 9, 42, 127
4, 14420, Note_on_c, 9, 50, 0
4, 14423, Note_on_c, 9, 36, 0
4, 14427, Note_on_c, 9, 42, 0
4, 14436, Note_on_c, 9, 47, 127
4, 14443, Note_on_c, 9, 47, 0
4, 14462, Note_on_c, 9, 47, 127
4, 14462, Note_on_c, 9, 46, 127
4, 14463, Note_on_c, 9, 36, 127
4, 14464, Note_on_c, 9, 40, 0
4, 14472, Note_on_c, 9, 47, 0
4, 14486, Note_on_c, 9, 36, 0
4, 14489, Note_on_c, 9, 43, 127
4, 14499, Note_on_c, 9, 43, 0
4, 14499, Note_on_c, 9, 46, 0
4, 14516, Note_on_c, 9, 49, 127
4, 14516, Note_on_c, 9, 42, 127
4, 14516, Note_on_c, 9, 36, 127
4, 14525, Note_on_c, 9, 49, 0
4, 14527, Note_on_c, 9, 42, 0
4, 14569, Note_on_c, 9, 42, 127
4, 14570, Note_on_c, 9, 36, 0
4, 14583, Note_on_c, 9, 42, 0
4, 14622, Note_on_c, 9, 40, 127
4, 14623, Note_on_c, 9, 42, 127
4, 14635, Note_on_c, 9, 42, 0
4, 14676, Note_on_c, 9, 42, 127
4, 14676, Note_on_c, 9, 36, 127
4, 14678, Note_on_c, 9, 40, 0
4, 14686, Note_on_c, 9, 42, 0
4, 14697, Note_on_c, 9, 36, 0
4, 14729, Note_on_c, 9, 42, 127
4, 14729, Note_on_c, 9, 36, 127
4, 14742, Note_on_c, 9, 42, 0
4, 14783, Note_on_c, 9, 42, 127
4, 14787, Note_on_c, 9, 36, 0
4, 14792, Note_on_c, 9, 42, 0
4, 14809, Note_on_c, 9, 36, 127
4, 14836, Note_on_c, 9, 40, 127
4, 14836, Note_on_c, 9, 42, 127
4, 14847, Note_on_c, 9, 42, 0
4, 14857, Note_on_c, 9, 36, 0
4, 14889, Note_on_c, 9, 46, 127
4, 14889, Note_on_c, 9, 36, 127
4, 14899, Note_on_c, 9, 40, 0
4, 14930, Note_on_c, 9, 46, 0
4, 14943, Note_on_c, 9, 36, 0
4, 14943, Note_on_c, 9, 42, 127
4, 14956, Note_on_c, 9, 42, 0
4, 14996, Note_on_c, 9, 42, 127
4, 15007, Note_on_c, 9, 42, 0
4, 15049, Note_on_c, 9, 40, 127
4, 15050, Note_on_c, 9, 42, 127
4, 15065, Note_on_c, 9, 42, 0
4, 15103, Note_on_c, 9, 42, 127
4, 15103, Note_on_c, 9, 36, 127
4, 15105, Note_on_c, 9, 40, 0
4, 15116, Note_on_c, 9, 42, 0
4, 15120, Note_on_c, 9, 36, 0
4, 15156, Note_on_c, 9, 42, 127
4, 15156, Note_on_c, 9, 36, 127
4, 15172, Note_on_c, 9, 42, 0
4, 15204, Note_on_c, 9, 36, 0
4, 15210, Note_on_c, 9, 42, 127
4, 15222, Note_on_c, 9, 42, 0
4, 15236, Note_on_c, 9, 36, 127
4, 15263, Note_on_c, 9, 40, 127
4, 15263, Note_on_c, 9, 42, 127
4, 15278, Note_on_c, 9, 42, 0
4, 15282, Note_on_c, 9, 36, 0
4, 15316, Note_on_c, 9, 46, 127
4, 15316, Note_on_c, 9, 36, 127
4, 15320, Note_on_c, 9, 40, 0
4, 15356, Note_on_c, 9, 46, 0
4, 15370, Note_on_c, 9, 42, 127
4, 15372, Note_on_c, 9, 36, 0
4, 15385, Note_on_c, 9, 42, 0
4, 15423, Note_on_c, 9, 42, 127
4, 15436, Note_on_c, 9, 42, 0
4, 15476, Note_on_c, 9, 40, 127
4, 15477, Note_on_c, 9, 42, 127
4, 15493, Note_on_c, 9, 42, 0
4, 15515, Note_on_c, 9, 40, 0
4, 15530, Note_on_c, 9, 42, 127
4, 15530, Note_on_c, 9, 36, 127
4, 15544, Note_on_c, 9, 42, 0
4, 15548, Note_on_c, 9, 36, 0
4, 15583, Note_on_c, 9, 42, 127
4, 15583, Note_on_c, 9, 36, 127
4, 15602, Note_on_c, 9, 42, 0
4, 15631, Note_on_c, 9, 36, 0
4, 15637, Note_on_c, 9, 42, 127
4, 15653, Note_on_c, 9, 42, 0
4, 15663, Note_on_c, 9, 36, 127
4, 15690, Note_on_c, 9, 40, 127
4, 15690, Note_on_c, 9, 42, 127
4, 15703, Note_on_c, 9, 36, 0
4, 15709, Note_on_c, 9, 42, 0
4, 15743, Note_on_c, 9, 46, 127
4, 15743, Note_on_c, 9, 36, 127
4, 15752, Note_on_c, 9, 40, 0
4, 15790, Note_on_c, 9, 46, 0
4, 15794, Note_on_c, 9, 36, 0
4, 15797, Note_on_c, 9, 42, 127
4, 15821, Note_on_c, 9, 42, 0
4, 15850, Note_on_c, 9, 42, 127
4, 15866, Note_on_c, 9, 42, 0
4, 15903, Note_on_c, 9, 40, 127
4, 15904, Note_on_c, 9, 42, 127
4, 15920, Note_on_c, 9, 42, 0
4, 15950, Note_on_c, 9, 40, 0
4, 15957, Note_on_c, 9, 42, 127
4, 15957, Note_on_c, 9, 36, 127
4, 15970, Note_on_c, 9, 42, 0
4, 15977, Note_on_c, 9, 36, 0
4, 16010, Note_on_c, 9, 42, 127
4, 16010, Note_on_c, 9, 36, 127
4, 16029, Note_on_c, 9, 42, 0
4, 16059, Note_on_c, 9, 36, 0
4, 16064, Note_on_c, 9, 42, 127
4, 16080, Note_on_c, 9, 42, 0
4, 16090, Note_on_c, 9, 36, 127
4, 16117, Note_on_c, 9, 40, 127
4, 16117, Note_on_c, 9, 42, 127
4, 16131, Note_on_c, 9, 36, 0
4, 16135, Note_on_c, 9, 42, 0
4, 16170, Note_on_c, 9, 40, 127
4, 16171, Note_on_c, 9, 40, 0
4, 16171, Note_on_c, 9, 46, 127
4, 16171, Note_on_c, 9, 36, 127
4, 16181, Note_on_c, 9, 40, 0
4, 16194, Note_on_c, 9, 36, 0
4, 16197, Note_on_c, 9, 40, 127
4, 16207, Note_on_c, 9, 46, 0
4, 16208, Note_on_c, 9, 40, 0
4, 16224, Note_on_c, 9, 49, 127
4, 16224, Note_on_c, 9, 42, 127
4, 16224, Note_on_c, 9, 36, 127
4, 16234, Note_on_c, 9, 49, 0
4, 16235, Note_on_c, 9, 42, 0
4, 16277, Note_on_c, 9, 42, 127
4, 16278, Note_on_c, 9, 36, 0
4, 16291, Note_on_c, 9, 42, 0
4, 16330, Note_on_c, 9, 40, 127
4, 16331, Note_on_c, 9, 42, 127
4, 16343, Note_on_c, 9, 42, 0
4, 16384, Note_on_c, 9, 42, 127
4, 16384, Note_on_c, 9, 36, 127
4, 16386, Note_on_c, 9, 40, 0
4, 16394, Note_on_c, 9, 42, 0
4, 16405, Note_on_c, 9, 36, 0
4, 16437, Note_on_c, 9, 42, 127
4, 16437, Note_on_c, 9, 36, 127
4, 16450, Note_on_c, 9, 42, 0
4, 16491, Note_on_c, 9, 42, 127
4, 16495, Note_on_c, 9, 36, 0
4, 16501, Note_on_c, 9, 42, 0
4, 16517, Note_on_c, 9, 36, 127
4, 16544, Note_on_c, 9, 40, 127
4, 16544, Note_on_c, 9, 42, 127
4, 16555, Note_on_c, 9, 42, 0
4, 16565, Note_on_c, 9, 36, 0
4, 16597, Note_on_c, 9, 46, 127
4, 16597, Note_on_c, 9, 36, 127
4, 16607, Note_on_c, 9, 40, 0
4, 16638, Note_on_c, 9, 46, 0
4, 16651, Note_on_c, 9, 36, 0
4, 16651, Note_on_c, 9, 42, 127
4, 16664, Note_on_c, 9, 42, 0
4, 16704, Note_on_c, 9, 42, 127
4, 16715, Note_on_c, 9, 42, 0
4, 16757, Note_on_c, 9, 40, 127
4, 16758, Note_on_c, 9, 42, 127
4, 16773, Note_on_c, 9, 42, 0
4, 16811, Note_on_c, 9, 42, 127
4, 16811, Note_on_c, 9, 36, 127
4, 16813, Note_on_c, 9, 40, 0
4, 16824, Note_on_c, 9, 42, 0
4, 16828, Note_on_c, 9, 36, 0
4, 16864, Note_on_c, 9, 42, 127
4, 16864, Note_on_c, 9, 36, 127
4, 16880, Note_on_c, 9, 42, 0
4, 16912, Note_on_c, 9, 36, 0
4, 16918, Note_on_c, 9, 42, 127
4, 16930, Note_on_c, 9, 42, 0
4, 16944, Note_on_c, 9, 36, 127
4, 16971, Note_on_c, 9, 40, 127
4, 16971, Note_on_c, 9, 42, 127
4, 16986, Note_on_c, 9, 42, 0
4, 16990, Note_on_c, 9, 36, 0
4, 17024, Note_on_c, 9, 46, 127
4, 17024, Note_on_c, 9, 36, 127
4, 17028, Note_on_c, 9, 40, 0
4, 17064, Note_on_c, 9, 46, 0
4, 17078, Note_on_c, 9, 42, 127
4, 17080, Note_on_c, 9, 36, 0
4, 17093, Note_on_c, 9, 42, 0
4, 17131, Note_on_c, 9, 42, 127
4, 17144, Note_on_c, 9, 42, 0
4, 17184, Note_on_c, 9, 40, 127
4, 17185, Note_on_c, 9, 42, 127
4, 17201, Note_on_c, 9, 42, 0
4, 17223, Note_on_c, 9, 40, 0
4, 17238, Note_on_c, 9, 42, 127
4, 17238, Note_on_c, 9, 36, 127
4, 17252, Note_on_c, 9, 42, 0
4, 17256, Note_on_c, 9, 36, 0
4, 17291, Note_on_c, 9, 42, 127
4, 17291, Note_on_c, 9, 36, 127
4, 17310, Note_on_c, 9, 42, 0
4, 17339, Note_on_c, 9, 36, 0
4, 17345, Note_on_c, 9, 42, 127
4, 17361, Note_on_c, 9, 42, 0
4, 17371, Note_on_c, 9, 36, 127
4, 17398, Note_on_c, 9, 40, 127
4, 17398, Note_on_c, 9, 42, 127
4, 17411, Note_on_c, 9, 36, 0
4, 17417, Note_on_c, 9, 42, 0
4, 17451, Note_on_c, 9, 46, 127
4, 17451, Note_on_c, 9, 36, 127
4, 17460, Note_on_c, 9, 40, 0
4, 17498, Note_on_c, 9, 46, 0
4, 17502, Note_on_c, 9, 36, 0
4, 17505, Note_on_c, 9, 42, 127
4, 17529, Note_on_c, 9, 42, 0
4, 17558, Note_on_c, 9, 42, 127
4, 17574, Note_on_c, 9, 42, 0
4, 17611, Note_on_c, 9, 40, 127
4, 17612, Note_on_c, 9, 42, 127
4, 17628, Note_on_c, 9, 42, 0
4, 17658, Note_on_c, 9, 40, 0
4, 17665, Note_on_c, 9, 42, 127
4, 17665, Note_on_c, 9, 36, 127
4, 17678, Note_on_c, 9, 42, 0
4, 17685, Note_on_c, 9, 36, 0
4, 17718, Note_on_c, 9, 42, 127
4, 17718, Note_on_c, 9, 36, 127
4, 17737, Note_on_c, 9, 42, 0
4, 17767, Note_on_c, 9, 36, 0
4, 17772, Note_on_c, 9, 50, 127
4, 17772, Note_on_c, 9, 42, 127
4, 17784, Note_on_c, 9, 50, 0
4, 17788, Note_on_c, 9, 42, 0
4, 17798, Note_on_c, 9, 47, 127
4, 17798, Note_on_c, 9, 36, 127
4, 17809, Note_on_c, 9, 47, 0
4, 17825, Note_on_c, 9, 40, 127
4, 17825, Note_on_c, 9, 42, 127
4, 17839, Note_on_c, 9, 36, 0
4, 17843, Note_on_c, 9, 42, 0
4, 17878, Note_on_c, 9, 47, 127
4, 17878, Note_on_c, 9, 46, 127
4, 17879, Note_on_c, 9, 36, 127
4, 17881, Note_on_c, 9, 40, 0
4, 17888, Note_on_c, 9, 47, 0
4, 17902, Note_on_c, 9, 36, 0
4, 17905, Note_on_c, 9, 43, 127
4, 17915, Note_on_c, 9, 46, 0
4, 17916, Note_on_c, 9, 43, 0
4, 17932, Note_on_c, 9, 49, 127
4, 17932, Note_on_c, 9, 42, 127
4, 17932, Note_on_c, 9, 36, 127
4, 17939, Note_on_c, 9, 42, 0
4, 17942, Note_on_c, 9, 49, 0
4, 17966, Note_on_c, 9, 36, 0
4, 17985, Note_on_c, 9, 42, 127
4, 17991, Note_on_c, 9, 42, 0
4, 18038, Note_on_c, 9, 40, 127
4, 18039, Note_on_c, 9, 42, 127
4, 18057, Note_on_c, 9, 42, 0
4, 18092, Note_on_c, 9, 46, 127
4, 18092, Note_on_c, 9, 36, 127
4, 18093, Note_on_c, 9, 40, 0
4, 18107, Note_on_c, 9, 36, 0
4, 18107, Note_on_c, 9, 46, 0
4, 18145, Note_on_c, 9, 42, 127
4, 18145, Note_on_c, 9, 36, 127
4, 18160, Note_on_c, 9, 42, 0
4, 18161, Note_on_c, 9, 36, 0
4, 18199, Note_on_c, 9, 42, 127
4, 18210, Note_on_c, 9, 42, 0
4, 18252, Note_on_c, 9, 40, 127
4, 18252, Note_on_c, 9, 42, 127
4, 18264, Note_on_c, 9, 42, 0
4, 18295, Note_on_c, 9, 40, 0
4, 18305, Note_on_c, 9, 42, 127
4, 18305, Note_on_c, 9, 36, 127
4, 18315, Note_on_c, 9, 42, 0
4, 18321, Note_on_c, 9, 36, 0
4, 18359, Note_on_c, 9, 42, 127
4, 18359, Note_on_c, 9, 36, 127
4, 18370, Note_on_c, 9, 42, 0
4, 18374, Note_on_c, 9, 36, 0
4, 18412, Note_on_c, 9, 42, 127
4, 18422, Note_on_c, 9, 42, 0
4, 18465, Note_on_c, 9, 40, 127
4, 18466, Note_on_c, 9, 42, 127
4, 18480, Note_on_c, 9, 42, 0
4, 18503, Note_on_c, 9, 40, 0
4, 18519, Note_on_c, 9, 46, 127
4, 18519, Note_on_c, 9, 36, 127
4, 18533, Note_on_c, 9, 46, 0
4, 18534, Note_on_c, 9, 36, 0
4, 18572, Note_on_c, 9, 42, 127
4, 18572, Note_on_c, 9, 36, 127
4, 18586, Note_on_c, 9, 42, 0
4, 18587, Note_on_c, 9, 36, 0
4, 18626, Note_on_c, 9, 42, 127
4, 18636, Note_on_c, 9, 42, 0
4, 18679, Note_on_c, 9, 40, 127
4, 18679, Note_on_c, 9, 42, 127
4, 18691, Note_on_c, 9, 42, 0
4, 18718, Note_on_c, 9, 40, 0
4, 18732, Note_on_c, 9, 42, 127
4, 18732, Note_on_c, 9, 36, 127
4, 18742, Note_on_c, 9, 42, 0
4, 18746, Note_on_c, 9, 36, 0
4, 18786, Note_on_c, 9, 42, 127
4, 18786, Note_on_c, 9, 36, 127
4, 18798, Note_on_c, 9, 42, 0
4, 18801, Note_on_c, 9, 36, 0
4, 18839, Note_on_c, 9, 42, 127
4, 18848, Note_on_c, 9, 42, 0
4, 18892, Note_on_c, 9, 40, 127
4, 18893, Note_on_c, 9, 42, 127
4, 18907, Note_on_c, 9, 42, 0
4, 18918, Note_on_c, 9, 40, 0
4, 18946, Note_on_c, 9, 46, 127
4, 18946, Note_on_c, 9, 36, 127
4, 18960, Note_on_c, 9, 36, 0
4, 18961, Note_on_c, 9, 46, 0
4, 18999, Note_on_c, 9, 42, 127
4, 18999, Note_on_c, 9, 36, 127
4, 19015, Note_on_c, 9, 42, 0
4, 19016, Note_on_c, 9, 36, 0
4, 19053, Note_on_c, 9, 42, 127
4, 19061, Note_on_c, 9, 42, 0
4, 19106, Note_on_c, 9, 40, 127
4, 19106, Note_on_c, 9, 42, 127
4, 19120, Note_on_c, 9, 42, 0
4, 19139, Note_on_c, 9, 40, 0
4, 19159, Note_on_c, 9, 42, 127
4, 19160, Note_on_c, 9, 36, 127
4, 19165, Note_on_c, 9, 42, 0
4, 19174, Note_on_c, 9, 36, 0
4, 19213, Note_on_c, 9, 42, 127
4, 19213, Note_on_c, 9, 36, 127
4, 19222, Note_on_c, 9, 42, 0
4, 19227, Note_on_c, 9, 36, 0
4, 19266, Note_on_c, 9, 42, 127
4, 19273, Note_on_c, 9, 42, 0
4, 19319, Note_on_c, 9, 40, 127
4, 19320, Note_on_c, 9, 42, 127
4, 19331, Note_on_c, 9, 42, 0
4, 19352, Note_on_c, 9, 40, 0
4, 19373, Note_on_c, 9, 46, 127
4, 19373, Note_on_c, 9, 36, 127
4, 19385, Note_on_c, 9, 46, 0
4, 19386, Note_on_c, 9, 36, 0
4, 19426, Note_on_c, 9, 42, 127
4, 19426, Note_on_c, 9, 36, 127
4, 19438, Note_on_c, 9, 36, 0
4, 19440, Note_on_c, 9, 42, 0
4, 19480, Note_on_c, 9, 42, 127
4, 19487, Note_on_c, 9, 42, 0
4, 19533, Note_on_c, 9, 40, 127
4, 19533, Note_on_c, 9, 42, 127
4, 19543, Note_on_c, 9, 42, 0
4, 19554, Note_on_c, 9, 40, 0
4, 19586, Note_on_c, 9, 42, 127
4, 19587, Note_on_c, 9, 36, 127
4, 19593, Note_on_c, 9, 42, 0
4, 19601, Note_on_c, 9, 36, 0
4, 19640, Note_on_c, 9, 42, 127
4, 19640, Note_on_c, 9, 36, 127
4, 19647, Note_on_c, 9, 42, 0
4, 19674, Note_on_c, 9, 36, 0
4, 19693, Note_on_c, 9, 42, 127
4, 19699, Note_on_c, 9, 42, 0
4, 19746, Note_on_c, 9, 40, 127
4, 19747, Note_on_c, 9, 42, 127
4, 19765, Note_on_c, 9, 42, 0
4, 19800, Note_on_c, 9, 46, 127
4, 19800, Note_on_c, 9, 36, 127
4, 19801, Note_on_c, 9, 40, 0
4, 19815, Note_on_c, 9, 36, 0
4, 19815, Note_on_c, 9, 46, 0
4, 19853, Note_on_c, 9, 42, 127
4, 19853, Note_on_c, 9, 36, 127
4, 19868, Note_on_c, 9, 42, 0
4, 19869, Note_on_c, 9, 36, 0
4, 19907, Note_on_c, 9, 42, 127
4, 19918, Note_on_c, 9, 42, 0
4, 19960, Note_on_c, 9, 40, 127
4, 19960, Note_on_c, 9, 42, 127
4, 19972, Note_on_c, 9, 42, 0
4, 20003, Note_on_c, 9, 40, 0
4, 20013, Note_on_c, 9, 42, 127
4, 20014, Note_on_c, 9, 36, 127
4, 20023, Note_on_c, 9, 42, 0
4, 20029, Note_on_c, 9, 36, 0
4, 20067, Note_on_c, 9, 42, 127
4, 20067, Note_on_c, 9, 36, 127
4, 20078, Note_on_c, 9, 42, 0
4, 20082, Note_on_c, 9, 36, 0
4, 20120, Note_on_c, 9, 42, 127
4, 20130, Note_on_c, 9, 42, 0
4, 20173, Note_on_c, 9, 40, 127
4, 20174, Note_on_c, 9, 42, 127
4, 20188, Note_on_c, 9, 42, 0
4, 20211, Note_on_c, 9, 40, 0
4, 20227, Note_on_c, 9, 46, 127
4, 20227, Note_on_c, 9, 36, 127
4, 20241, Note_on_c, 9, 46, 0
4, 20242, Note_on_c, 9, 36, 0
4, 20280, Note_on_c, 9, 42, 127
4, 20280, Note_on_c, 9, 36, 127
4, 20294, Note_on_c, 9, 42, 0
4, 20295, Note_on_c, 9, 36, 0
4, 20334, Note_on_c, 9, 42, 127
4, 20344, Note_on_c, 9, 42, 0
4, 20387, Note_on_c, 9, 40, 127
4, 20387, Note_on_c, 9, 42, 127
4, 20399, Note_on_c, 9, 42, 0
4, 20426, Note_on_c, 9, 40, 0
4, 20440, Note_on_c, 9, 42, 127
4, 20441, Note_on_c, 9, 36, 127
4, 20450, Note_on_c, 9, 42, 0
4, 20454, Note_on_c, 9, 36, 0
4, 20494, Note_on_c, 9, 42, 127
4, 20494, Note_on_c, 9, 36, 127
4, 20506, Note_on_c, 9, 42, 0
4, 20509, Note_on_c, 9, 36, 0
4, 20547, Note_on_c, 9, 42, 127
4, 20556, Note_on_c, 9, 42, 0
4, 20600, Note_on_c, 9, 40, 127
4, 20601, Note_on_c, 9, 42, 127
4, 20615, Note_on_c, 9, 42, 0
4, 20626, Note_on_c, 9, 40, 0
4, 20654, Note_on_c, 9, 46, 127
4, 20654, Note_on_c, 9, 36, 127
4, 20668, Note_on_c, 9, 36, 0
4, 20669, Note_on_c, 9, 46, 0
4, 20707, Note_on_c, 9, 42, 127
4, 20707, Note_on_c, 9, 36, 127
4, 20723, Note_on_c, 9, 42, 0
4, 20724, Note_on_c, 9, 36, 0
4, 20761, Note_on_c, 9, 42, 127
4, 20769, Note_on_c, 9, 42, 0
4, 20814, Note_on_c, 9, 40, 127
4, 20814, Note_on_c, 9, 42, 127
4, 20828, Note_on_c, 9, 42, 0
4, 20847, Note_on_c, 9, 40, 0
4, 20867, Note_on_c, 9, 42, 127
4, 20868, Note_on_c, 9, 36, 127
4, 20873, Note_on_c, 9, 42, 0
4, 20882, Note_on_c, 9, 36, 0
4, 20921, Note_on_c, 9, 42, 127
4, 20921, Note_on_c, 9, 36, 127
4, 20930, Note_on_c, 9, 42, 0
4, 20935, Note_on_c, 9, 36, 0
4, 20974, Note_on_c, 9, 42, 127
4, 20981, Note_on_c, 9, 42, 0
4, 21027, Note_on_c, 9, 40, 127
4, 21028, Note_on_c, 9, 42, 127
4, 21039, Note_on_c, 9, 42, 0
4, 21060, Note_on_c, 9, 40, 0
4, 21081, Note_on_c, 9, 46, 127
4, 21081, Note_on_c, 9, 36, 127
4, 21093, Note_on_c, 9, 46, 0
4, 21094, Note_on_c, 9, 36, 0
4, 21135, Note_on_c, 9, 42, 127
4, 21135, Note_on_c, 9, 36, 127
4, 21146, Note_on_c, 9, 36, 0
4, 21148, Note_on_c, 9, 42, 0
4, 21188, Note_on_c, 9, 42, 127
4, 21195, Note_on_c, 9, 42, 0
4, 21241, Note_on_c, 9, 40, 127
4, 21241, Note_on_c, 9, 42, 127
4, 21251, Note_on_c, 9, 42, 0
4, 21262, Note_on_c, 9, 40, 0
4, 21294, Note_on_c, 9, 40, 127
4, 21295, Note_on_c, 9, 42, 127
4, 21295, Note_on_c, 9, 36, 127
4, 21301, Note_on_c, 9, 42, 0
4, 21305, Note_on_c, 9, 40, 0
4, 21309, Note_on_c, 9, 36, 0
4, 21321, Note_on_c, 9, 40, 127
4, 21333, Note_on_c, 9, 40, 0
4, 21348, Note_on_c, 9, 49, 127
4, 21348, Note_on_c, 9, 42, 127
4, 21348, Note_on_c, 9, 36, 127
4, 21358, Note_on_c, 9, 49, 0
4, 21359, Note_on_c, 9, 42, 0
4, 21401, Note_on_c, 9, 42, 127
4, 21402, Note_on_c, 9, 36, 0
4, 21416, Note_on_c, 9, 42, 0
4, 21455, Note_on_c, 9, 40, 127
4, 21455, Note_on_c, 9, 42, 127
4, 21467, Note_on_c, 9, 42, 0
4, 21508, Note_on_c, 9, 42, 127
4, 21508, Note_on_c, 9, 36, 127
4, 21510, Note_on_c, 9, 40, 0
4, 21518, Note_on_c, 9, 42, 0
4, 21529, Note_on_c, 9, 36, 0
4, 21561, Note_on_c, 9, 42, 127
4, 21561, Note_on_c, 9, 36, 127
4, 21575, Note_on_c, 9, 42, 0
4, 21615, Note_on_c, 9, 42, 127
4, 21619, Note_on_c, 9, 36, 0
4, 21625, Note_on_c, 9, 42, 0
4, 21641, Note_on_c, 9, 36, 127
4, 21668, Note_on_c, 9, 40, 127
4, 21668, Note_on_c, 9, 42, 127
4, 21679, Note_on_c, 9, 42, 0
4, 21689, Note_on_c, 9, 36, 0
4, 21721, Note_on_c, 9, 46, 127
4, 21722, Note_on_c, 9, 36, 127
4, 21731, Note_on_c, 9, 40, 0
4, 21762, Note_on_c, 9, 46, 0
4, 21775, Note_on_c, 9, 36, 0
4, 21775, Note_on_c, 9, 42, 127
4, 21788, Note_on_c, 9, 42, 0
4, 21828, Note_on_c, 9, 42, 127
4, 21839, Note_on_c, 9, 42, 0
4, 21881, Note_on_c, 9, 40, 127
4, 21882, Note_on_c, 9, 42, 127
4, 21897, Note_on_c, 9, 42, 0
4, 21935, Note_on_c, 9, 42, 127
4, 21935, Note_on_c, 9, 36, 127
4, 21937, Note_on_c, 9, 40, 0
4, 21948, Note_on_c, 9, 42, 0
4, 21952, Note_on_c, 9, 36, 0
4, 21988, Note_on_c, 9, 42, 127
4, 21988, Note_on_c, 9, 36, 127
4, 22004, Note_on_c, 9, 42, 0
4, 22036, Note_on_c, 9, 36, 0
4, 22042, Note_on_c, 9, 42, 127
4, 22054, Note_on_c, 9, 42, 0
4, 22068, Note_on_c, 9, 36, 127
4, 22095, Note_on_c, 9, 40, 127
4, 22095, Note_on_c, 9, 42, 127
4, 22111, Note_on_c, 9, 42, 0
4, 22114, Note_on_c, 9, 36, 0
4, 22148, Note_on_c, 9, 46, 127
4, 22149, Note_on_c, 9, 36, 127
4, 22152, Note_on_c, 9, 40, 0
4, 22187, Note_on_c, 9, 46, 0
4, 22202, Note_on_c, 9, 42, 127
4, 22204, Note_on_c, 9, 36, 0
4, 22217, Note_on_c, 9, 42, 0
4, 22255, Note_on_c, 9, 42, 127
4, 22268, Note_on_c, 9, 42, 0
4, 22308, Note_on_c, 9, 40, 127
4, 22309, Note_on_c, 9, 42, 127
4, 22325, Note_on_c, 9, 42, 0
4, 22347, Note_on_c, 9, 40, 0
4, 22362, Note_on_c, 9, 42, 127
4, 22362, Note_on_c, 9, 36, 127
4, 22376, Note_on_c, 9, 42, 0
4, 22380, Note_on_c, 9, 36, 0
4, 22415, Note_on_c, 9, 42, 127
4, 22415, Note_on_c, 9, 36, 127
4, 22434, Note_on_c, 9, 42, 0
4, 22463, Note_on_c, 9, 36, 0
4, 22469, Note_on_c, 9, 42, 127
4, 22485, Note_on_c, 9, 42, 0
4, 22495, Note_on_c, 9, 36, 127
4, 22522, Note_on_c, 9, 40, 127
4, 22522, Note_on_c, 9, 42, 127
4, 22535, Note_on_c, 9, 36, 0
4, 22541, Note_on_c, 9, 42, 0
4, 22575, Note_on_c, 9, 46, 127
4, 22576, Note_on_c, 9, 36, 127
4, 22584, Note_on_c, 9, 40, 0
4, 22622, Note_on_c, 9, 46, 0
4, 22626, Note_on_c, 9, 36, 0
4, 22629, Note_on_c, 9, 42, 127
4, 22653, Note_on_c, 9, 42, 0
4, 22682, Note_on_c, 9, 42, 127
4, 22698, Note_on_c, 9, 42, 0
4, 22736, Note_on_c, 9, 40, 127
4, 22736, Note_on_c, 9, 42, 127
4, 22752, Note_on_c, 9, 42, 0
4, 22782, Note_on_c, 9, 40, 0
4, 22789, Note_on_c, 9, 42, 127
4, 22789, Note_on_c, 9, 36, 127
4, 22802, Note_on_c, 9, 42, 0
4, 22809, Note_on_c, 9, 36, 0
4, 22842, Note_on_c, 9, 42, 127
4, 22842, Note_on_c, 9, 36, 127
4, 22861, Note_on_c, 9, 42, 0
4, 22891, Note_on_c, 9, 36, 0
4, 22896, Note_on_c, 9, 42, 127
4, 22912, Note_on_c, 9, 42, 0
4, 22922, Note_on_c, 9, 36, 127
4, 22949, Note_on_c, 9, 40, 127
4, 22949, Note_on_c, 9, 42, 127
4, 22963, Note_on_c, 9, 36, 0
4, 22967, Note_on_c, 9, 42, 0
4, 23002, Note_on_c, 9, 40, 0
4, 23003, Note_on_c, 9, 40, 127
4, 23003, Note_on_c, 9, 46, 127
4, 23003, Note_on_c, 9, 36, 127
4, 23011, Note_on_c, 9, 40, 0
4, 23026, Note_on_c, 9, 36, 0
4, 23029, Note_on_c, 9, 40, 127
4, 23036, Note_on_c, 9, 40, 0
4, 23039, Note_on_c, 9, 46, 0
4, 23056, Note_on_c, 9, 49, 127
4, 23056, Note_on_c, 9, 42, 127
4, 23056, Note_on_c, 9, 36, 127
4, 23066, Note_on_c, 9, 49, 0
4, 23067, Note_on_c, 9, 42, 0
4, 23109, Note_on_c, 9, 42, 127
4, 23110, Note_on_c, 9, 36, 0
4, 23124, Note_on_c, 9, 42, 0
4, 23162, Note_on_c, 9, 40, 127
4, 23163, Note_on_c, 9, 42, 127
4, 23175, Note_on_c, 9, 42, 0
4, 23216, Note_on_c, 9, 42, 127
4, 23216, Note_on_c, 9, 36, 127
4, 23218, Note_on_c, 9, 40, 0
4, 23226, Note_on_c, 9, 42, 0
4, 23237, Note_on_c, 9, 36, 0
4, 23269, Note_on_c, 9, 42, 127
4, 23269, Note_on_c, 9, 36, 127
4, 23283, Note_on_c, 9, 42, 0
4, 23323, Note_on_c, 9, 42, 127
4, 23327, Note_on_c, 9, 36, 0
4, 23333, Note_on_c, 9, 42, 0
4, 23349, Note_on_c, 9, 36, 127
4, 23376, Note_on_c, 9, 40, 127
4, 23376, Note_on_c, 9, 42, 127
4, 23387, Note_on_c, 9, 42, 0
4, 23397, Note_on_c, 9, 36, 0
4, 23429, Note_on_c, 9, 46, 127
4, 23430, Note_on_c, 9, 36, 127
4, 23439, Note_on_c, 9, 40, 0
4, 23470, Note_on_c, 9, 46, 0
4, 23483, Note_on_c, 9, 36, 0
4, 23483, Note_on_c, 9, 42, 127
4, 23496, Note_on_c, 9, 42, 0
4, 23536, Note_on_c, 9, 42, 127
4, 23547, Note_on_c, 9, 42, 0
4, 23590, Note_on_c, 9, 40, 127
4, 23590, Note_on_c, 9, 42, 127
4, 23605, Note_on_c, 9, 42, 0
4, 23643, Note_on_c, 9, 42, 127
4, 23643, Note_on_c, 9, 36, 127
4, 23645, Note_on_c, 9, 40, 0
4, 23656, Note_on_c, 9, 42, 0
4, 23660, Note_on_c, 9, 36, 0
4, 23696, Note_on_c, 9, 42, 127
4, 23696, Note_on_c, 9, 36, 127
4, 23712, Note_on_c, 9, 42, 0
4, 23744, Note_on_c, 9, 36, 0
4, 23750, Note_on_c, 9, 42, 127
4, 23762, Note_on_c, 9, 42, 0
4, 23776, Note_on_c, 9, 36, 127
4, 23803, Note_on_c, 9, 40, 127
4, 23803, Note_on_c, 9, 42, 127
4, 23819, Note_on_c, 9, 42, 0
4, 23822, Note_on_c, 9, 36, 0
4, 23856, Note_on_c, 9, 46, 127
4, 23857, Note_on_c, 9, 36, 127
4, 23860, Note_on_c, 9, 40, 0
4, 23896, Note_on_c, 9, 46, 0
4, 23910, Note_on_c, 9, 42, 127
4, 23912, Note_on_c, 9, 36, 0
4, 23925, Note_on_c, 9, 42, 0
4, 23963, Note_on_c, 9, 42, 127
4, 23976, Note_on_c, 9, 42, 0
4, 24017, Note_on_c, 9, 40, 127
4, 24017, Note_on_c, 9, 42, 127
4, 24033, Note_on_c, 9, 42, 0
4, 24055, Note_on_c, 9, 40, 0
4, 24070, Note_on_c, 9, 42, 127
4, 24070, Note_on_c, 9, 36, 127
4, 24084, Note_on_c, 9, 42, 0
4, 24088, Note_on_c, 9, 36, 0
4, 24123, Note_on_c, 9, 42, 127
4, 24123, Note_on_c, 9, 36, 127
4, 24142, Note_on_c, 9, 42, 0
4, 24171, Note_on_c, 9, 36, 0
4, 24177, Note_on_c, 9, 42, 127
4, 24193, Note_on_c, 9, 42, 0
4, 24203, Note_on_c, 9, 36, 127
4, 24230, Note_on_c, 9, 40, 127
4, 24230, Note_on_c, 9, 42, 127
4, 24243, Note_on_c, 9, 36, 0
4, 24249, Note_on_c, 9, 42, 0
4, 24283, Note_on_c, 9, 46, 127
4, 24284, Note_on_c, 9, 36, 127
4, 24292, Note_on_c, 9, 40, 0
4, 24330, Note_on_c, 9, 46, 0
4, 24335, Note_on_c, 9, 36, 0
4, 24337, Note_on_c, 9, 42, 127
4, 24361, Note_on_c, 9, 42, 0
4, 24390, Note_on_c, 9, 42, 127
4, 24406, Note_on_c, 9, 42, 0
4, 24444, Note_on_c, 9, 40, 127
4, 24444, Note_on_c, 9, 42, 127
4, 24460, Note_on_c, 9, 42, 0
4, 24490, Note_on_c, 9, 40, 0
4, 24497, Note_on_c, 9, 42, 127
4, 24497, Note_on_c, 9, 36, 127
4, 24510, Note_on_c, 9, 42, 0
4, 24517, Note_on_c, 9, 36, 0
4, 24550, Note_on_c, 9, 42, 127
4, 24550, Note_on_c, 9, 36, 127
4, 24569, Note_on_c, 9, 42, 0
4, 24599, Note_on_c, 9, 36, 0
4, 24604, Note_on_c, 9, 50, 127
4, 24604, Note_on_c, 9, 42, 127
4, 24615, Note_on_c, 9, 50, 0
4, 24620, Note_on_c, 9, 42, 0
4, 24630, Note_on_c, 9, 50, 127
4, 24630, Note_on_c, 9, 36, 127
4, 24644, Note_on_c, 9, 50, 0
4, 24657, Note_on_c, 9, 47, 127
4, 24657, Note_on_c, 9, 40, 127
4, 24657, Note_on_c, 9, 42, 127
4, 24666, Note_on_c, 9, 47, 0
4, 24671, Note_on_c, 9, 36, 0
4, 24675, Note_on_c, 9, 42, 0
4, 24684, Note_on_c, 9, 47, 127
4, 24690, Note_on_c, 9, 47, 0
4, 24710, Note_on_c, 9, 43, 127
4, 24710, Note_on_c, 9, 46, 127
4, 24711, Note_on_c, 9, 36, 127
4, 24713, Note_on_c, 9, 40, 0
4, 24717, Note_on_c, 9, 43, 0
4, 24734, Note_on_c, 9, 36, 0
4, 24737, Note_on_c, 9, 43, 127
4, 24743, Note_on_c, 9, 43, 0
4, 24747, Note_on_c, 9, 46, 0
4, 24764, Note_on_c, 9, 42, 127
4, 24764, Note_on_c, 9, 49, 127
4, 24764, Note_on_c, 9, 62, 127
4, 24764, Note_on_c, 9, 36, 127
4, 24765, Note_on_c, 9, 42, 0
4, 24766, Note_on_c, 9, 56, 127
4, 24774, Note_on_c, 9, 62, 0
4, 24779, Note_on_c, 9, 36, 0
4, 24790, Note_on_c, 9, 62, 127
4, 24798, Note_on_c, 9, 56, 0
4, 24802, Note_on_c, 9, 62, 0
4, 24817, Note_on_c, 9, 42, 127
4, 24817, Note_on_c, 9, 62, 127
4, 24818, Note_on_c, 9, 42, 0
4, 24819, Note_on_c, 9, 49, 0
4, 24826, Note_on_c, 9, 62, 0
4, 24844, Note_on_c, 9, 62, 127
4, 24855, Note_on_c, 9, 62, 0
4, 24870, Note_on_c, 9, 42, 127
4, 24871, Note_on_c, 9, 42, 0
4, 24871, Note_on_c, 9, 64, 127
4, 24871, Note_on_c, 9, 39, 127
4, 24871, Note_on_c, 9, 37, 127
4, 24871, Note_on_c, 9, 56, 127
4, 24882, Note_on_c, 9, 64, 0
4, 24897, Note_on_c, 9, 62, 127
4, 24907, Note_on_c, 9, 62, 0
4, 24911, Note_on_c, 9, 56, 0
4, 24924, Note_on_c, 9, 42, 127
4, 24924, Note_on_c, 9, 62, 127
4, 24924, Note_on_c, 9, 36, 127
4, 24925, Note_on_c, 9, 42, 0
4, 24927, Note_on_c, 9, 39, 0
4, 24928, Note_on_c, 9, 37, 0
4, 24933, Note_on_c, 9, 62, 0
4, 24937, Note_on_c, 9, 42, 127
4, 24937, Note_on_c, 9, 62, 127
4, 24938, Note_on_c, 9, 42, 0
4, 24938, Note_on_c, 9, 36, 0
4, 24947, Note_on_c, 9, 62, 0
4, 24951, Note_on_c, 9, 42, 127
4, 24951, Note_on_c, 9, 62, 127
4, 24952, Note_on_c, 9, 42, 0
4, 24959, Note_on_c, 9, 62, 0
4, 24977, Note_on_c, 9, 42, 127
4, 24977, Note_on_c, 9, 62, 127
4, 24978, Note_on_c, 9, 42, 0
4, 24978, Note_on_c, 9, 36, 127
4, 24978, Note_on_c, 9, 56, 127
4, 24989, Note_on_c, 9, 62, 0
4, 24992, Note_on_c, 9, 36, 0
4, 25004, Note_on_c, 9, 42, 127
4, 25004, Note_on_c, 9, 62, 127
4, 25004, Note_on_c, 9, 64, 127
4, 25005, Note_on_c, 9, 42, 0
4, 25011, Note_on_c, 9, 64, 0
4, 25013, Note_on_c, 9, 62, 0
4, 25022, Note_on_c, 9, 56, 0
4, 25031, Note_on_c, 9, 42, 127
4, 25031, Note_on_c, 9, 62, 127
4, 25031, Note_on_c, 9, 36, 127
4, 25032, Note_on_c, 9, 42, 0
4, 25045, Note_on_c, 9, 36, 0
4, 25045, Note_on_c, 9, 62, 0
4, 25057, Note_on_c, 9, 42, 127
4, 25058, Note_on_c, 9, 42, 0
4, 25058, Note_on_c, 9, 64, 127
4, 25065, Note_on_c, 9, 64, 0
4, 25084, Note_on_c, 9, 42, 127
4, 25084, Note_on_c, 9, 62, 127
4, 25084, Note_on_c, 9, 37, 127
4, 25085, Note_on_c, 9, 42, 0
4, 25085, Note_on_c, 9, 39, 127
4, 25085, Note_on_c, 9, 56, 127
4, 25095, Note_on_c, 9, 62, 0
4, 25111, Note_on_c, 9, 64, 127
4, 25117, Note_on_c, 9, 64, 0
4, 25132, Note_on_c, 9, 39, 0
4, 25133, Note_on_c, 9, 56, 0
4, 25134, Note_on_c, 9, 37, 0
4, 25137, Note_on_c, 9, 46, 127
4, 25138, Note_on_c, 9, 46, 0
4, 25138, Note_on_c, 9, 62, 127
4, 25138, Note_on_c, 9, 60, 127
4, 25138, Note_on_c, 9, 36, 127
4, 25144, Note_on_c, 9, 60, 0
4, 25147, Note_on_c, 9, 62, 0
4, 25150, Note_on_c, 9, 36, 0
4, 25164, Note_on_c, 9, 42, 127
4, 25164, Note_on_c, 9, 62, 127
4, 25165, Note_on_c, 9, 42, 0
4, 25176, Note_on_c, 9, 62, 0
4, 25177, Note_on_c, 9, 42, 127
4, 25178, Note_on_c, 9, 42, 0
4, 25191, Note_on_c, 9, 42, 127
4, 25191, Note_on_c, 9, 62, 127
4, 25191, Note_on_c, 9, 36, 127
4, 25192, Note_on_c, 9, 42, 0
4, 25192, Note_on_c, 9, 56, 127
4, 25200, Note_on_c, 9, 62, 0
4, 25206, Note_on_c, 9, 36, 0
4, 25217, Note_on_c, 9, 62, 127
4, 25225, Note_on_c, 9, 62, 0
4, 25244, Note_on_c, 9, 42, 127
4, 25244, Note_on_c, 9, 62, 127
4, 25245, Note_on_c, 9, 42, 0
4, 25246, Note_on_c, 9, 56, 0
4, 25254, Note_on_c, 9, 62, 0
4, 25297, Note_on_c, 9, 42, 127
4, 25298, Note_on_c, 9, 42, 0
4, 25298, Note_on_c, 9, 64, 127
4, 25298, Note_on_c, 9, 37, 127
4, 25298, Note_on_c, 9, 39, 127
4, 25298, Note_on_c, 9, 56, 127
4, 25310, Note_on_c, 9, 64, 0
4, 25324, Note_on_c, 9, 62, 127
4, 25336, Note_on_c, 9, 62, 0
4, 25337, Note_on_c, 9, 56, 0
4, 25348, Note_on_c, 9, 39, 0
4, 25348, Note_on_c, 9, 37, 0
4, 25351, Note_on_c, 9, 42, 127
4, 25351, Note_on_c, 9, 62, 127
4, 25351, Note_on_c, 9, 36, 127
4, 25352, Note_on_c, 9, 42, 0
4, 25361, Note_on_c, 9, 62, 0
4, 25364, Note_on_c, 9, 36, 0
4, 25378, Note_on_c, 9, 62, 127
4, 25389, Note_on_c, 9, 62, 0
4, 25404, Note_on_c, 9, 42, 127
4, 25405, Note_on_c, 9, 42, 0
4, 25405, Note_on_c, 9, 62, 127
4, 25405, Note_on_c, 9, 36, 127
4, 25405, Note_on_c, 9, 56, 127
4, 25414, Note_on_c, 9, 62, 0
4, 25420, Note_on_c, 9, 36, 0
4, 25430, Note_on_c, 9, 56, 0
4, 25431, Note_on_c, 9, 62, 127
4, 25441, Note_on_c, 9, 62, 0
4, 25458, Note_on_c, 9, 42, 127
4, 25458, Note_on_c, 9, 62, 127
4, 25458, Note_on_c, 9, 36, 127
4, 25459, Note_on_c, 9, 42, 0
4, 25469, Note_on_c, 9, 62, 0
4, 25475, Note_on_c, 9, 36, 0
4, 25484, Note_on_c, 9, 62, 127
4, 25495, Note_on_c, 9, 62, 0
4, 25511, Note_on_c, 9, 42, 127
4, 25511, Note_on_c, 9, 64, 127
4, 25511, Note_on_c, 9, 37, 127
4, 25512, Note_on_c, 9, 42, 0
4, 25512, Note_on_c, 9, 39, 127
4, 25512, Note_on_c, 9, 56, 127
4, 25525, Note_on_c, 9, 64, 0
4, 25538, Note_on_c, 9, 62, 127
4, 25548, Note_on_c, 9, 62, 0
4, 25550, Note_on_c, 9, 56, 0
4, 25551, Note_on_c, 9, 39, 0
4, 25553, Note_on_c, 9, 37, 0
4, 25564, Note_on_c, 9, 46, 127
4, 25565, Note_on_c, 9, 46, 0
4, 25565, Note_on_c, 9, 62, 127
4, 25565, Note_on_c, 9, 36, 127
4, 25574, Note_on_c, 9, 62, 0
4, 25580, Note_on_c, 9, 36, 0
4, 25591, Note_on_c, 9, 62, 127
4, 25600, Note_on_c, 9, 62, 0
4, 25618, Note_on_c, 9, 42, 127
4, 25618, Note_on_c, 9, 62, 127
4, 25618, Note_on_c, 9, 36, 127
4, 25619, Note_on_c, 9, 42, 0
4, 25619, Note_on_c, 9, 56, 127
4, 25628, Note_on_c, 9, 62, 0
4, 25634, Note_on_c, 9, 36, 0
4, 25644, Note_on_c, 9, 62, 127
4, 25656, Note_on_c, 9, 62, 0
4, 25671, Note_on_c, 9, 42, 127
4, 25671, Note_on_c, 9, 62, 127
4, 25672, Note_on_c, 9, 42, 0
4, 25680, Note_on_c, 9, 62, 0
4, 25682, Note_on_c, 9, 56, 0
4, 25698, Note_on_c, 9, 62, 127
4, 25709, Note_on_c, 9, 62, 0
4, 25724, Note_on_c, 9, 42, 127
4, 25725, Note_on_c, 9, 42, 0
4, 25725, Note_on_c, 9, 64, 127
4, 25725, Note_on_c, 9, 37, 127
4, 25725, Note_on_c, 9, 39, 127
4, 25725, Note_on_c, 9, 56, 127
4, 25736, Note_on_c, 9, 64, 0
4, 25751, Note_on_c, 9, 62, 127
4, 25761, Note_on_c, 9, 62, 0
4, 25762, Note_on_c, 9, 37, 0
4, 25762, Note_on_c, 9, 39, 0
4, 25777, Note_on_c, 9, 56, 0
4, 25778, Note_on_c, 9, 42, 127
4, 25778, Note_on_c, 9, 62, 127
4, 25778, Note_on_c, 9, 36, 127
4, 25779, Note_on_c, 9, 42, 0
4, 25787, Note_on_c, 9, 62, 0
4, 25791, Note_on_c, 9, 42, 127
4, 25791, Note_on_c, 9, 62, 127
4, 25792, Note_on_c, 9, 42, 0
4, 25792, Note_on_c, 9, 36, 0
4, 25801, Note_on_c, 9, 62, 0
4, 25805, Note_on_c, 9, 42, 127
4, 25805, Note_on_c, 9, 62, 127
4, 25806, Note_on_c, 9, 42, 0
4, 25813, Note_on_c, 9, 62, 0
4, 25831, Note_on_c, 9, 42, 127
4, 25832, Note_on_c, 9, 42, 0
4, 25832, Note_on_c, 9, 62, 127
4, 25832, Note_on_c, 9, 36, 127
4, 25832, Note_on_c, 9, 56, 127
4, 25843, Note_on_c, 9, 62, 0
4, 25847, Note_on_c, 9, 36, 0
4, 25858, Note_on_c, 9, 42, 127
4, 25858, Note_on_c, 9, 62, 127
4, 25858, Note_on_c, 9, 64, 127
4, 25859, Note_on_c, 9, 42, 0
4, 25865, Note_on_c, 9, 64, 0
4, 25867, Note_on_c, 9, 62, 0
4, 25877, Note_on_c, 9, 56, 0
4, 25885, Note_on_c, 9, 42, 127
4, 25885, Note_on_c, 9, 62, 127
4, 25885, Note_on_c, 9, 36, 127
4, 25886, Note_on_c, 9, 42, 0
4, 25899, Note_on_c, 9, 62, 0
4, 25900, Note_on_c, 9, 36, 0
4, 25911, Note_on_c, 9, 42, 127
4, 25912, Note_on_c, 9, 42, 0
4, 25912, Note_on_c, 9, 64, 127
4, 25919, Note_on_c, 9, 64, 0
4, 25938, Note_on_c, 9, 42, 127
4, 25938, Note_on_c, 9, 62, 127
4, 25938, Note_on_c, 9, 37, 127
4, 25939, Note_on_c, 9, 42, 0
4, 25939, Note_on_c, 9, 39, 127
4, 25939, Note_on_c, 9, 56, 127
4, 25949, Note_on_c, 9, 62, 0
4, 25965, Note_on_c, 9, 64, 127
4, 25971, Note_on_c, 9, 64, 0
4, 25982, Note_on_c, 9, 37, 0
4, 25984, Note_on_c, 9, 39, 0
4, 25987, Note_on_c, 9, 56, 0
4, 25991, Note_on_c, 9, 46, 127
4, 25992, Note_on_c, 9, 46, 0
4, 25992, Note_on_c, 9, 62, 127
4, 25992, Note_on_c, 9, 60, 127
4, 25992, Note_on_c, 9, 36, 127
4, 25998, Note_on_c, 9, 60, 0
4, 26001, Note_on_c, 9, 62, 0
4, 26006, Note_on_c, 9, 36, 0
4, 26018, Note_on_c, 9, 42, 127
4, 26018, Note_on_c, 9, 62, 127
4, 26019, Note_on_c, 9, 42, 0
4, 26030, Note_on_c, 9, 62, 0
4, 26031, Note_on_c, 9, 42, 127
4, 26032, Note_on_c, 9, 42, 0
4, 26045, Note_on_c, 9, 42, 127
4, 26045, Note_on_c, 9, 62, 127
4, 26045, Note_on_c, 9, 36, 127
4, 26046, Note_on_c, 9, 42, 0
4, 26046, Note_on_c, 9, 56, 127
4, 26054, Note_on_c, 9, 62, 0
4, 26061, Note_on_c, 9, 36, 0
4, 26071, Note_on_c, 9, 62, 127
4, 26079, Note_on_c, 9, 62, 0
4, 26098, Note_on_c, 9, 42, 127
4, 26098, Note_on_c, 9, 62, 127
4, 26099, Note_on_c, 9, 42, 0
4, 26101, Note_on_c, 9, 56, 0
4, 26108, Note_on_c, 9, 62, 0
4, 26151, Note_on_c, 9, 42, 127
4, 26152, Note_on_c, 9, 42, 0
4, 26152, Note_on_c, 9, 64, 127
4, 26152, Note_on_c, 9, 37, 127
4, 26152, Note_on_c, 9, 39, 127
4, 26152, Note_on_c, 9, 56, 127
4, 26164, Note_on_c, 9, 64, 0
4, 26178, Note_on_c, 9, 62, 127
4, 26179, Note_on_c, 9, 37, 0
4, 26180, Note_on_c, 9, 39, 0
4, 26190, Note_on_c, 9, 62, 0
4, 26196, Note_on_c, 9, 56, 0
4, 26205, Note_on_c, 9, 42, 127
4, 26205, Note_on_c, 9, 62, 127
4, 26205, Note_on_c, 9, 36, 127
4, 26206, Note_on_c, 9, 42, 0
4, 26215, Note_on_c, 9, 62, 0
4, 26219, Note_on_c, 9, 36, 0
4, 26232, Note_on_c, 9, 62, 127
4, 26243, Note_on_c, 9, 62, 0
4, 26258, Note_on_c, 9, 42, 127
4, 26259, Note_on_c, 9, 42, 0
4, 26259, Note_on_c, 9, 62, 127
4, 26259, Note_on_c, 9, 36, 127
4, 26259, Note_on_c, 9, 56, 127
4, 26268, Note_on_c, 9, 62, 0
4, 26270, Note_on_c, 9, 36, 0
4, 26285, Note_on_c, 9, 62, 127
4, 26295, Note_on_c, 9, 62, 0
4, 26304, Note_on_c, 9, 56, 0
4, 26312, Note_on_c, 9, 42, 127
4, 26312, Note_on_c, 9, 62, 127
4, 26312, Note_on_c, 9, 36, 127
4, 26313, Note_on_c, 9, 42, 0
4, 26323, Note_on_c, 9, 62, 0
4, 26325, Note_on_c, 9, 36, 0
4, 26338, Note_on_c, 9, 62, 127
4, 26349, Note_on_c, 9, 62, 0
4, 26365, Note_on_c, 9, 42, 127
4, 26365, Note_on_c, 9, 47, 127
4, 26365, Note_on_c, 9, 64, 127
4, 26366, Note_on_c, 9, 42, 0
4, 26366, Note_on_c, 9, 39, 127
4, 26366, Note_on_c, 9, 37, 127
4, 26366, Note_on_c, 9, 56, 127
4, 26377, Note_on_c, 9, 47, 0
4, 26379, Note_on_c, 9, 64, 0
4, 26392, Note_on_c, 9, 47, 127
4, 26392, Note_on_c, 9, 62, 127
4, 26393, Note_on_c, 9, 37, 0
4, 26397, Note_on_c, 9, 39, 0
4, 26398, Note_on_c, 9, 47, 0
4, 26402, Note_on_c, 9, 62, 0
4, 26413, Note_on_c, 9, 56, 0
4, 26418, Note_on_c, 9, 46, 127
4, 26419, Note_on_c, 9, 46, 0
4, 26419, Note_on_c, 9, 43, 127
4, 26419, Note_on_c, 9, 62, 127
4, 26419, Note_on_c, 9, 36, 127
4, 26427, Note_on_c, 9, 43, 0
4, 26428, Note_on_c, 9, 62, 0
4, 26432, Note_on_c, 9, 36, 0
4, 26445, Note_on_c, 9, 43, 127
4, 26445, Note_on_c, 9, 62, 127
4, 26451, Note_on_c, 9, 43, 0
4, 26454, Note_on_c, 9, 62, 0
4, 26472, Note_on_c, 9, 42, 127
4, 26472, Note_on_c, 9, 49, 127
4, 26472, Note_on_c, 9, 62, 127
4, 26472, Note_on_c, 9, 36, 127
4, 26473, Note_on_c, 9, 42, 0
4, 26473, Note_on_c, 9, 39, 127
4, 26473, Note_on_c, 9, 56, 127
4, 26478, Note_on_c, 9, 39, 0
4, 26482, Note_on_c, 9, 49, 0
4, 26482, Note_on_c, 9, 62, 0
4, 26487, Note_on_c, 9, 36, 0
4, 26498, Note_on_c, 9, 62, 127
4, 26510, Note_on_c, 9, 62, 0
4, 26523, Note_on_c, 9, 56, 0
4, 26525, Note_on_c, 9, 42, 127
4, 26525, Note_on_c, 9, 62, 127
4, 26526, Note_on_c, 9, 42, 0
4, 26534, Note_on_c, 9, 62, 0
4, 26552, Note_on_c, 9, 62, 127
4, 26563, Note_on_c, 9, 62, 0
4, 26578, Note_on_c, 9, 42, 127
4, 26579, Note_on_c, 9, 42, 0
4, 26579, Note_on_c, 9, 64, 127
4, 26579, Note_on_c, 9, 37, 127
4, 26579, Note_on_c, 9, 39, 127
4, 26579, Note_on_c, 9, 56, 127
4, 26590, Note_on_c, 9, 64, 0
4, 26605, Note_on_c, 9, 62, 127
4, 26607, Note_on_c, 9, 37, 0
4, 26610, Note_on_c, 9, 39, 0
4, 26615, Note_on_c, 9, 62, 0
4, 26629, Note_on_c, 9, 56, 0
4, 26632, Note_on_c, 9, 42, 127
4, 26632, Note_on_c, 9, 62, 127
4, 26632, Note_on_c, 9, 36, 127
4, 26633, Note_on_c, 9, 42, 0
4, 26641, Note_on_c, 9, 62, 0
4, 26645, Note_on_c, 9, 36, 0
4, 26645, Note_on_c, 9, 42, 127
4, 26646, Note_on_c, 9, 42, 0
4, 26646, Note_on_c, 9, 62, 127
4, 26655, Note_on_c, 9, 62, 0
4, 26659, Note_on_c, 9, 42, 127
4, 26659, Note_on_c, 9, 62, 127
4, 26660, Note_on_c, 9, 42, 0
4, 26667, Note_on_c, 9, 62, 0
4, 26685, Note_on_c, 9, 42, 127
4, 26686, Note_on_c, 9, 42, 0
4, 26686, Note_on_c, 9, 62, 127
4, 26686, Note_on_c, 9, 36, 127
4, 26686, Note_on_c, 9, 56, 127
4, 26697, Note_on_c, 9, 62, 0
4, 26700, Note_on_c, 9, 36, 0
4, 26712, Note_on_c, 9, 42, 127
4, 26712, Note_on_c, 9, 62, 127
4, 26712, Note_on_c, 9, 64, 127
4, 26713, Note_on_c, 9, 42, 0
4, 26719, Note_on_c, 9, 64, 0
4, 26721, Note_on_c, 9, 62, 0
4, 26734, Note_on_c, 9, 56, 0
4, 26739, Note_on_c, 9, 42, 127
4, 26739, Note_on_c, 9, 62, 127
4, 26739, Note_on_c, 9, 36, 127
4, 26740, Note_on_c, 9, 42, 0
4, 26753, Note_on_c, 9, 62, 0
4, 26754, Note_on_c, 9, 36, 0
4, 26765, Note_on_c, 9, 42, 127
4, 26766, Note_on_c, 9, 42, 0
4, 26766, Note_on_c, 9, 64, 127
4, 26773, Note_on_c, 9, 64, 0
4, 26792, Note_on_c, 9, 42, 127
4, 26792, Note_on_c, 9, 62, 127
4, 26792, Note_on_c, 9, 39, 127
4, 26793, Note_on_c, 9, 42, 0
4, 26793, Note_on_c, 9, 37, 127
4, 26793, Note_on_c, 9, 56, 127
4, 26803, Note_on_c, 9, 62, 0
4, 26816, Note_on_c, 9, 37, 0
4, 26819, Note_on_c, 9, 64, 127
4, 26822, Note_on_c, 9, 39, 0
4, 26825, Note_on_c, 9, 64, 0
4, 26840, Note_on_c, 9, 56, 0
4, 26845, Note_on_c, 9, 46, 127
4, 26846, Note_on_c, 9, 46, 0
4, 26846, Note_on_c, 9, 62, 127
4, 26846, Note_on_c, 9, 60, 127
4, 26846, Note_on_c, 9, 36, 127
4, 26852, Note_on_c, 9, 60, 0
4, 26855, Note_on_c, 9, 62, 0
4, 26861, Note_on_c, 9, 36, 0
4, 26872, Note_on_c, 9, 42, 127
4, 26872, Note_on_c, 9, 62, 127
4, 26873, Note_on_c, 9, 42, 0
4, 26884, Note_on_c, 9, 62, 0
4, 26885, Note_on_c, 9, 42, 127
4, 26886, Note_on_c, 9, 42, 0
4, 26899, Note_on_c, 9, 42, 127
4, 26899, Note_on_c, 9, 62, 127
4, 26899, Note_on_c, 9, 36, 127
4, 26900, Note_on_c, 9, 42, 0
4, 26900, Note_on_c, 9, 56, 127
4, 26908, Note_on_c, 9, 62, 0
4, 26914, Note_on_c, 9, 36, 0
4, 26925, Note_on_c, 9, 62, 127
4, 26933, Note_on_c, 9, 62, 0
4, 26952, Note_on_c, 9, 42, 127
4, 26952, Note_on_c, 9, 62, 127
4, 26953, Note_on_c, 9, 42, 0
4, 26954, Note_on_c, 9, 56, 0
4, 26962, Note_on_c, 9, 62, 0
4, 27005, Note_on_c, 9, 42, 127
4, 27006, Note_on_c, 9, 42, 0
4, 27006, Note_on_c, 9, 64, 127
4, 27006, Note_on_c, 9, 39, 127
4, 27006, Note_on_c, 9, 37, 127
4, 27006, Note_on_c, 9, 56, 127
4, 27018, Note_on_c, 9, 64, 0
4, 27032, Note_on_c, 9, 62, 127
4, 27036, Note_on_c, 9, 37, 0
4, 27037, Note_on_c, 9, 39, 0
4, 27044, Note_on_c, 9, 62, 0
4, 27059, Note_on_c, 9, 56, 0
4, 27059, Note_on_c, 9, 42, 127
4, 27059, Note_on_c, 9, 62, 127
4, 27060, Note_on_c, 9, 42, 0
4, 27060, Note_on_c, 9, 36, 127
4, 27069, Note_on_c, 9, 62, 0
4, 27076, Note_on_c, 9, 36, 0
4, 27086, Note_on_c, 9, 62, 127
4, 27097, Note_on_c, 9, 62, 0
4, 27112, Note_on_c, 9, 42, 127
4, 27113, Note_on_c, 9, 42, 0
4, 27113, Note_on_c, 9, 62, 127
4, 27113, Note_on_c, 9, 36, 127
4, 27113, Note_on_c, 9, 56, 127
4, 27122, Note_on_c, 9, 62, 0
4, 27126, Note_on_c, 9, 36, 0
4, 27139, Note_on_c, 9, 62, 127
4, 27149, Note_on_c, 9, 62, 0
4, 27161, Note_on_c, 9, 56, 0
4, 27166, Note_on_c, 9, 42, 127
4, 27166, Note_on_c, 9, 62, 127
4, 27166, Note_on_c, 9, 36, 127
4, 27167, Note_on_c, 9, 42, 0
4, 27177, Note_on_c, 9, 62, 0
4, 27181, Note_on_c, 9, 36, 0
4, 27192, Note_on_c, 9, 62, 127
4, 27203, Note_on_c, 9, 62, 0
4, 27219, Note_on_c, 9, 42, 127
4, 27219, Note_on_c, 9, 64, 127
4, 27219, Note_on_c, 9, 39, 127
4, 27220, Note_on_c, 9, 42, 0
4, 27220, Note_on_c, 9, 37, 127
4, 27220, Note_on_c, 9, 56, 127
4, 27233, Note_on_c, 9, 64, 0
4, 27246, Note_on_c, 9, 62, 127
4, 27249, Note_on_c, 9, 37, 0
4, 27252, Note_on_c, 9, 39, 0
4, 27256, Note_on_c, 9, 62, 0
4, 27269, Note_on_c, 9, 56, 0
4, 27272, Note_on_c, 9, 46, 127
4, 27273, Note_on_c, 9, 46, 0
4, 27273, Note_on_c, 9, 62, 127
4, 27273, Note_on_c, 9, 36, 127
4, 27282, Note_on_c, 9, 62, 0
4, 27288, Note_on_c, 9, 36, 0
4, 27299, Note_on_c, 9, 62, 127
4, 27308, Note_on_c, 9, 62, 0
4, 27326, Note_on_c, 9, 42, 127
4, 27326, Note_on_c, 9, 62, 127
4, 27327, Note_on_c, 9, 42, 0
4, 27327, Note_on_c, 9, 36, 127
4, 27327, Note_on_c, 9, 56, 127
4, 27336, Note_on_c, 9, 62, 0
4, 27341, Note_on_c, 9, 36, 0
4, 27352, Note_on_c, 9, 62, 127
4, 27364, Note_on_c, 9, 62, 0
4, 27379, Note_on_c, 9, 42, 127
4, 27379, Note_on_c, 9, 62, 127
4, 27380, Note_on_c, 9, 42, 0
4, 27384, Note_on_c, 9, 56, 0
4, 27388, Note_on_c, 9, 62, 0
4, 27406, Note_on_c, 9, 62, 127
4, 27417, Note_on_c, 9, 62, 0
4, 27432, Note_on_c, 9, 42, 127
4, 27433, Note_on_c, 9, 42, 0
4, 27433, Note_on_c, 9, 64, 127
4, 27433, Note_on_c, 9, 39, 127
4, 27433, Note_on_c, 9, 37, 127
4, 27433, Note_on_c, 9, 56, 127
4, 27444, Note_on_c, 9, 64, 0
4, 27459, Note_on_c, 9, 62, 127
4, 27461, Note_on_c, 9, 37, 0
4, 27462, Note_on_c, 9, 39, 0
4, 27469, Note_on_c, 9, 62, 0
4, 27484, Note_on_c, 9, 56, 0
4, 27486, Note_on_c, 9, 42, 127
4, 27486, Note_on_c, 9, 62, 127
4, 27486, Note_on_c, 9, 36, 127
4, 27487, Note_on_c, 9, 42, 0
4, 27495, Note_on_c, 9, 62, 0
4, 27499, Note_on_c, 9, 36, 0
4, 27499, Note_on_c, 9, 42, 127
4, 27500, Note_on_c, 9, 42, 0
4, 27500, Note_on_c, 9, 62, 127
4, 27509, Note_on_c, 9, 62, 0
4, 27513, Note_on_c, 9, 42, 127
4, 27513, Note_on_c, 9, 62, 127
4, 27514, Note_on_c, 9, 42, 0
4, 27521, Note_on_c, 9, 62, 0
4, 27539, Note_on_c, 9, 42, 127
4, 27540, Note_on_c, 9, 42, 0
4, 27540, Note_on_c, 9, 62, 127
4, 27540, Note_on_c, 9, 36, 127
4, 27540, Note_on_c, 9, 56, 127
4, 27551, Note_on_c, 9, 62, 0
4, 27554, Note_on_c, 9, 36, 0
4, 27566, Note_on_c, 9, 42, 127
4, 27566, Note_on_c, 9, 62, 127
4, 27566, Note_on_c, 9, 64, 127
4, 27567, Note_on_c, 9, 42, 0
4, 27573, Note_on_c, 9, 64, 0
4, 27575, Note_on_c, 9, 62, 0
4, 27588, Note_on_c, 9, 56, 0
4, 27593, Note_on_c, 9, 42, 127
4, 27593, Note_on_c, 9, 62, 127
4, 27593, Note_on_c, 9, 36, 127
4, 27594, Note_on_c, 9, 42, 0
4, 27607, Note_on_c, 9, 62, 0
4, 27608, Note_on_c, 9, 36, 0
4, 27619, Note_on_c, 9, 42, 127
4, 27620, Note_on_c, 9, 42, 0
4, 27620, Note_on_c, 9, 64, 127
4, 27627, Note_on_c, 9, 64, 0
4, 27646, Note_on_c, 9, 42, 127
4, 27646, Note_on_c, 9, 62, 127
4, 27646, Note_on_c, 9, 39, 127
4, 27647, Note_on_c, 9, 42, 0
4, 27647, Note_on_c, 9, 37, 127
4, 27647, Note_on_c, 9, 56, 127
4, 27657, Note_on_c, 9, 62, 0
4, 27666, Note_on_c, 9, 37, 0
4, 27669, Note_on_c, 9, 39, 0
4, 27673, Note_on_c, 9, 64, 127
4, 27679, Note_on_c, 9, 64, 0
4, 27697, Note_on_c, 9, 56, 0
4, 27699, Note_on_c, 9, 46, 127
4, 27700, Note_on_c, 9, 46, 0
4, 27700, Note_on_c, 9, 62, 127
4, 27700, Note_on_c, 9, 60, 127
4, 27700, Note_on_c, 9, 36, 127
4, 27706, Note_on_c, 9, 60, 0
4, 27709, Note_on_c, 9, 62, 0
4, 27714, Note_on_c, 9, 36, 0
4, 27726, Note_on_c, 9, 42, 127
4, 27726, Note_on_c, 9, 62, 127
4, 27727, Note_on_c, 9, 42, 0
4, 27738, Note_on_c, 9, 62, 0
4, 27739, Note_on_c, 9, 42, 127
4, 27740, Note_on_c, 9, 42, 0
4, 27753, Note_on_c, 9, 42, 127
4, 27753, Note_on_c, 9, 62, 127
4, 27753, Note_on_c, 9, 36, 127
4, 27754, Note_on_c, 9, 42, 0
4, 27754, Note_on_c, 9, 56, 127
4, 27762, Note_on_c, 9, 62, 0
4, 27769, Note_on_c, 9, 36, 0
4, 27779, Note_on_c, 9, 62, 127
4, 27787, Note_on_c, 9, 62, 0
4, 27806, Note_on_c, 9, 42, 127
4, 27806, Note_on_c, 9, 62, 127
4, 27807, Note_on_c, 9, 42, 0
4, 27816, Note_on_c, 9, 62, 0
4, 27817, Note_on_c, 9, 56, 0
4, 27859, Note_on_c, 9, 42, 127
4, 27860, Note_on_c, 9, 42, 0
4, 27860, Note_on_c, 9, 64, 127
4, 27860, Note_on_c, 9, 37, 127
4, 27860, Note_on_c, 9, 39, 127
4, 27860, Note_on_c, 9, 56, 127
4, 27872, Note_on_c, 9, 64, 0
4, 27876, Note_on_c, 9, 37, 0
4, 27876, Note_on_c, 9, 39, 0
4, 27886, Note_on_c, 9, 62, 127
4, 27898, Note_on_c, 9, 62, 0
4, 27913, Note_on_c, 9, 42, 127
4, 27913, Note_on_c, 9, 62, 127
4, 27913, Note_on_c, 9, 36, 127
4, 27914, Note_on_c, 9, 42, 0
4, 27916, Note_on_c, 9, 56, 0
4, 27923, Note_on_c, 9, 62, 0
4, 27927, Note_on_c, 9, 36, 0
4, 27940, Note_on_c, 9, 62, 127
4, 27951, Note_on_c, 9, 62, 0
4, 27966, Note_on_c, 9, 42, 127
4, 27967, Note_on_c, 9, 42, 0
4, 27967, Note_on_c, 9, 62, 127
4, 27967, Note_on_c, 9, 36, 127
4, 27967, Note_on_c, 9, 56, 127
4, 27976, Note_on_c, 9, 62, 0
4, 27982, Note_on_c, 9, 36, 0
4, 27993, Note_on_c, 9, 62, 127
4, 27995, Note_on_c, 9, 56, 0
4, 28003, Note_on_c, 9, 62, 0
4, 28020, Note_on_c, 9, 42, 127
4, 28020, Note_on_c, 9, 62, 127
4, 28020, Note_on_c, 9, 36, 127
4, 28021, Note_on_c, 9, 42, 0
4, 28031, Note_on_c, 9, 62, 0
4, 28036, Note_on_c, 9, 36, 0
4, 28046, Note_on_c, 9, 62, 127
4, 28057, Note_on_c, 9, 62, 0
4, 28073, Note_on_c, 9, 42, 127
4, 28073, Note_on_c, 9, 64, 127
4, 28073, Note_on_c, 9, 39, 127
4, 28074, Note_on_c, 9, 42, 0
4, 28074, Note_on_c, 9, 37, 127
4, 28074, Note_on_c, 9, 40, 127
4, 28083, Note_on_c, 9, 40, 0
4, 28084, Note_on_c, 9, 37, 0
4, 28085, Note_on_c, 9, 39, 0
4, 28087, Note_on_c, 9, 64, 0
4, 28100, Note_on_c, 9, 62, 127
4, 28100, Note_on_c, 9, 40, 127
4, 28110, Note_on_c, 9, 40, 0
4, 28110, Note_on_c, 9, 62, 0
4, 28126, Note_on_c, 9, 46, 127
4, 28127, Note_on_c, 9, 46, 0
4, 28127, Note_on_c, 9, 62, 127
4, 28127, Note_on_c, 9, 36, 127
4, 28127, Note_on_c, 9, 40, 127
4, 28136, Note_on_c, 9, 40, 0
4, 28137, Note_on_c, 9, 62, 0
4, 28138, Note_on_c, 9, 36, 0
4, 28153, Note_on_c, 9, 62, 127
4, 28154, Note_on_c, 9, 40, 127
4, 28161, Note_on_c, 9, 40, 0
4, 28162, Note_on_c, 9, 62, 0
4, 28180, Note_on_c, 9, 49, 127
4, 28180, Note_on_c, 9, 42, 127
4, 28180, Note_on_c, 9, 36, 127
4, 28191, Note_on_c, 9, 42, 0
4, 28224, Note_on_c, 9, 49, 0
4, 28233, Note_on_c, 9, 42, 127
4, 28234, Note_on_c, 9, 36, 0
4, 28248, Note_on_c, 9, 42, 0
4, 28287, Note_on_c, 9, 40, 127
4, 28287, Note_on_c, 9, 42, 127
4, 28299, Note_on_c, 9, 42, 0
4, 28340, Note_on_c, 9, 42, 127
4, 28340, Note_on_c, 9, 36, 127
4, 28342, Note_on_c, 9, 40, 0
4, 28350, Note_on_c, 9, 42, 0
4, 28361, Note_on_c, 9, 36, 0
4, 28393, Note_on_c, 9, 42, 127
4, 28393, Note_on_c, 9, 36, 127
4, 28407, Note_on_c, 9, 42, 0
4, 28447, Note_on_c, 9, 42, 127
4, 28451, Note_on_c, 9, 36, 0
4, 28457, Note_on_c, 9, 42, 0
4, 28473, Note_on_c, 9, 36, 127
4, 28500, Note_on_c, 9, 40, 127
4, 28500, Note_on_c, 9, 42, 127
4, 28511, Note_on_c, 9, 42, 0
4, 28521, Note_on_c, 9, 36, 0
4, 28553, Note_on_c, 9, 46, 127
4, 28554, Note_on_c, 9, 36, 127
4, 28563, Note_on_c, 9, 40, 0
4, 28595, Note_on_c, 9, 46, 0
4, 28607, Note_on_c, 9, 36, 0
4, 28608, Note_on_c, 9, 42, 127
4, 28620, Note_on_c, 9, 42, 0
4, 28660, Note_on_c, 9, 42, 127
4, 28671, Note_on_c, 9, 42, 0
4, 28714, Note_on_c, 9, 40, 127
4, 28714, Note_on_c, 9, 42, 127
4, 28729, Note_on_c, 9, 42, 0
4, 28767, Note_on_c, 9, 42, 127
4, 28767, Note_on_c, 9, 36, 127
4, 28769, Note_on_c, 9, 40, 0
4, 28780, Note_on_c, 9, 42, 0
4, 28784, Note_on_c, 9, 36, 0
4, 28820, Note_on_c, 9, 42, 127
4, 28820, Note_on_c, 9, 36, 127
4, 28836, Note_on_c, 9, 42, 0
4, 28868, Note_on_c, 9, 36, 0
4, 28874, Note_on_c, 9, 42, 127
4, 28886, Note_on_c, 9, 42, 0
4, 28900, Note_on_c, 9, 36, 127
4, 28927, Note_on_c, 9, 40, 127
4, 28927, Note_on_c, 9, 42, 127
4, 28943, Note_on_c, 9, 42, 0
4, 28946, Note_on_c, 9, 36, 0
4, 28980, Note_on_c, 9, 46, 127
4, 28981, Note_on_c, 9, 36, 127
4, 28984, Note_on_c, 9, 40, 0
4, 29019, Note_on_c, 9, 46, 0
4, 29034, Note_on_c, 9, 42, 127
4, 29036, Note_on_c, 9, 36, 0
4, 29049, Note_on_c, 9, 42, 0
4, 29087, Note_on_c, 9, 42, 127
4, 29100, Note_on_c, 9, 42, 0
4, 29141, Note_on_c, 9, 40, 127
4, 29141, Note_on_c, 9, 42, 127
4, 29157, Note_on_c, 9, 42, 0
4, 29179, Note_on_c, 9, 40, 0
4, 29194, Note_on_c, 9, 42, 127
4, 29194, Note_on_c, 9, 36, 127
4, 29208, Note_on_c, 9, 42, 0
4, 29212, Note_on_c, 9, 36, 0
4, 29247, Note_on_c, 9, 42, 127
4, 29247, Note_on_c, 9, 36, 127
4, 29266, Note_on_c, 9, 42, 0
4, 29295, Note_on_c, 9, 36, 0
4, 29301, Note_on_c, 9, 42, 127
4, 29317, Note_on_c, 9, 42, 0
4, 29327, Note_on_c, 9, 36, 127
4, 29354, Note_on_c, 9, 40, 127
4, 29354, Note_on_c, 9, 42, 127
4, 29367, Note_on_c, 9, 36, 0
4, 29373, Note_on_c, 9, 42, 0
4, 29407, Note_on_c, 9, 46, 127
4, 29408, Note_on_c, 9, 36, 127
4, 29416, Note_on_c, 9, 40, 0
4, 29454, Note_on_c, 9, 46, 0
4, 29459, Note_on_c, 9, 36, 0
4, 29461, Note_on_c, 9, 42, 127
4, 29485, Note_on_c, 9, 42, 0
4, 29514, Note_on_c, 9, 42, 127
4, 29530, Note_on_c, 9, 42, 0
4, 29568, Note_on_c, 9, 40, 127
4, 29568, Note_on_c, 9, 42, 127
4, 29584, Note_on_c, 9, 42, 0
4, 29614, Note_on_c, 9, 40, 0
4, 29621, Note_on_c, 9, 42, 127
4, 29621, Note_on_c, 9, 36, 127
4, 29634, Note_on_c, 9, 42, 0
4, 29641, Note_on_c, 9, 36, 0
4, 29674, Note_on_c, 9, 42, 127
4, 29674, Note_on_c, 9, 36, 127
4, 29693, Note_on_c, 9, 42, 0
4, 29723, Note_on_c, 9, 36, 0
4, 29728, Note_on_c, 9, 42, 127
4, 29744, Note_on_c, 9, 42, 0
4, 29754, Note_on_c, 9, 36, 127
4, 29781, Note_on_c, 9, 40, 127
4, 29781, Note_on_c, 9, 42, 127
4, 29795, Note_on_c, 9, 36, 0
4, 29799, Note_on_c, 9, 42, 0
4, 29834, Note_on_c, 9, 40, 0
4, 29835, Note_on_c, 9, 40, 127
4, 29835, Note_on_c, 9, 46, 127
4, 29835, Note_on_c, 9, 36, 127
4, 29847, Note_on_c, 9, 40, 0
4, 29858, Note_on_c, 9, 36, 0
4, 29861, Note_on_c, 9, 40, 127
4, 29861, Note_on_c, 9, 38, 127
4, 29866, Note_on_c, 9, 38, 0
4, 29871, Note_on_c, 9, 46, 0
4, 29872, Note_on_c, 9, 40, 0
4, 29888, Note_on_c, 9, 49, 127
4, 29888, Note_on_c, 9, 42, 127
4, 29888, Note_on_c, 9, 36, 127
4, 29899, Note_on_c, 9, 42, 0
4, 29899, Note_on_c, 9, 49, 0
4, 29941, Note_on_c, 9, 42, 127
4, 29942, Note_on_c, 9, 36, 0
4, 29956, Note_on_c, 9, 42, 0
4, 29995, Note_on_c, 9, 40, 127
4, 29995, Note_on_c, 9, 42, 127
4, 30007, Note_on_c, 9, 42, 0
4, 30048, Note_on_c, 9, 42, 127
4, 30048, Note_on_c, 9, 36, 127
4, 30050, Note_on_c, 9, 40, 0
4, 30058, Note_on_c, 9, 42, 0
4, 30069, Note_on_c, 9, 36, 0
4, 30101, Note_on_c, 9, 42, 127
4, 30101, Note_on_c, 9, 36, 127
4, 30115, Note_on_c, 9, 42, 0
4, 30155, Note_on_c, 9, 42, 127
4, 30159, Note_on_c, 9, 36, 0
4, 30165, Note_on_c, 9, 42, 0
4, 30181, Note_on_c, 9, 36, 127
4, 30208, Note_on_c, 9, 40, 127
4, 30208, Note_on_c, 9, 42, 127
4, 30219, Note_on_c, 9, 42, 0
4, 30229, Note_on_c, 9, 36, 0
4, 30261, Note_on_c, 9, 46, 127
4, 30262, Note_on_c, 9, 36, 127
4, 30271, Note_on_c, 9, 40, 0
4, 30303, Note_on_c, 9, 46, 0
4, 30315, Note_on_c, 9, 36, 0
4, 30316, Note_on_c, 9, 42, 127
4, 30328, Note_on_c, 9, 42, 0
4, 30368, Note_on_c, 9, 42, 127
4, 30379, Note_on_c, 9, 42, 0
4, 30422, Note_on_c, 9, 40, 127
4, 30422, Note_on_c, 9, 42, 127
4, 30437, Note_on_c, 9, 42, 0
4, 30475, Note_on_c, 9, 42, 127
4, 30475, Note_on_c, 9, 36, 127
4, 30477, Note_on_c, 9, 40, 0
4, 30488, Note_on_c, 9, 42, 0
4, 30492, Note_on_c, 9, 36, 0
4, 30528, Note_on_c, 9, 42, 127
4, 30528, Note_on_c, 9, 36, 127
4, 30544, Note_on_c, 9, 42, 0
4, 30576, Note_on_c, 9, 36, 0
4, 30582, Note_on_c, 9, 42, 127
4, 30594, Note_on_c, 9, 42, 0
4, 30608, Note_on_c, 9, 36, 127
4, 30635, Note_on_c, 9, 40, 127
4, 30635, Note_on_c, 9, 42, 127
4, 30651, Note_on_c, 9, 42, 0
4, 30654, Note_on_c, 9, 36, 0
4, 30688, Note_on_c, 9, 46, 127
4, 30689, Note_on_c, 9, 36, 127
4, 30692, Note_on_c, 9, 40, 0
4, 30728, Note_on_c, 9, 46, 0
4, 30742, Note_on_c, 9, 42, 127
4, 30744, Note_on_c, 9, 36, 0
4, 30757, Note_on_c, 9, 42, 0
4, 30795, Note_on_c, 9, 42, 127
4, 30809, Note_on_c, 9, 42, 0
4, 30849, Note_on_c, 9, 40, 127
4, 30849, Note_on_c, 9, 42, 127
4, 30865, Note_on_c, 9, 42, 0
4, 30887, Note_on_c, 9, 40, 0
4, 30902, Note_on_c, 9, 42, 127
4, 30902, Note_on_c, 9, 36, 127
4, 30916, Note_on_c, 9, 42, 0
4, 30920, Note_on_c, 9, 36, 0
4, 30955, Note_on_c, 9, 42, 127
4, 30956, Note_on_c, 9, 36, 127
4, 30974, Note_on_c, 9, 42, 0
4, 31003, Note_on_c, 9, 36, 0
4, 31009, Note_on_c, 9, 42, 127
4, 31025, Note_on_c, 9, 42, 0
4, 31035, Note_on_c, 9, 36, 127
4, 31062, Note_on_c, 9, 40, 127
4, 31062, Note_on_c, 9, 42, 127
4, 31075, Note_on_c, 9, 36, 0
4, 31081, Note_on_c, 9, 42, 0
4, 31115, Note_on_c, 9, 46, 127
4, 31116, Note_on_c, 9, 36, 127
4, 31124, Note_on_c, 9, 40, 0
4, 31162, Note_on_c, 9, 46, 0
4, 31167, Note_on_c, 9, 36, 0
4, 31169, Note_on_c, 9, 42, 127
4, 31193, Note_on_c, 9, 42, 0
4, 31222, Note_on_c, 9, 42, 127
4, 31238, Note_on_c, 9, 42, 0
4, 31276, Note_on_c, 9, 40, 127
4, 31276, Note_on_c, 9, 42, 127
4, 31292, Note_on_c, 9, 42, 0
4, 31322, Note_on_c, 9, 40, 0
4, 31329, Note_on_c, 9, 42, 127
4, 31329, Note_on_c, 9, 36, 127
4, 31342, Note_on_c, 9, 42, 0
4, 31349, Note_on_c, 9, 36, 0
4, 31382, Note_on_c, 9, 42, 127
4, 31383, Note_on_c, 9, 36, 127
4, 31401, Note_on_c, 9, 42, 0
4, 31431, Note_on_c, 9, 36, 0
4, 31436, Note_on_c, 9, 47, 127
4, 31436, Note_on_c, 9, 42, 127
4, 31449, Note_on_c, 9, 47, 0
4, 31452, Note_on_c, 9, 42, 0
4, 31462, Note_on_c, 9, 36, 127
4, 31489, Note_on_c, 9, 40, 127
4, 31489, Note_on_c, 9, 42, 127
4, 31503, Note_on_c, 9, 36, 0
4, 31507, Note_on_c, 9, 42, 0
4, 31516, Note_on_c, 9, 43, 127
4, 31527, Note_on_c, 9, 43, 0
4, 31542, Note_on_c, 9, 46, 127
4, 31543, Note_on_c, 9, 36, 127
4, 31545, Note_on_c, 9, 40, 0
4, 31566, Note_on_c, 9, 36, 0
4, 31579, Note_on_c, 9, 46, 0
4, 31596, Note_on_c, 9, 49, 127
4, 31596, Note_on_c, 9, 42, 127
4, 31596, Note_on_c, 9, 36, 127
4, 31606, Note_on_c, 9, 49, 0
4, 31607, Note_on_c, 9, 42, 0
4, 31649, Note_on_c, 9, 42, 127
4, 31650, Note_on_c, 9, 36, 0
4, 31664, Note_on_c, 9, 42, 0
4, 31703, Note_on_c, 9, 40, 127
4, 31703, Note_on_c, 9, 42, 127
4, 31715, Note_on_c, 9, 42, 0
4, 31756, Note_on_c, 9, 42, 127
4, 31756, Note_on_c, 9, 36, 127
4, 31758, Note_on_c, 9, 40, 0
4, 31766, Note_on_c, 9, 42, 0
4, 31777, Note_on_c, 9, 36, 0
4, 31809, Note_on_c, 9, 42, 127
4, 31810, Note_on_c, 9, 36, 127
4, 31823, Note_on_c, 9, 42, 0
4, 31863, Note_on_c, 9, 42, 127
4, 31867, Note_on_c, 9, 36, 0
4, 31873, Note_on_c, 9, 42, 0
4, 31889, Note_on_c, 9, 36, 127
4, 31916, Note_on_c, 9, 40, 127
4, 31916, Note_on_c, 9, 42, 127
4, 31927, Note_on_c, 9, 42, 0
4, 31937, Note_on_c, 9, 36, 0
4, 31969, Note_on_c, 9, 46, 127
4, 31970, Note_on_c, 9, 36, 127
4, 31979, Note_on_c, 9, 40, 0
4, 32011, Note_on_c, 9, 46, 0
4, 32023, Note_on_c, 9, 36, 0
4, 32024, Note_on_c, 9, 42, 127
4, 32036, Note_on_c, 9, 42, 0
4, 32076, Note_on_c, 9, 42, 127
4, 32087, Note_on_c, 9, 42, 0
4, 32130, Note_on_c, 9, 40, 127
4, 32130, Note_on_c, 9, 42, 127
4, 32145, Note_on_c, 9, 42, 0
4, 32183, Note_on_c, 9, 42, 127
4, 32183, Note_on_c, 9, 36, 127
4, 32185, Note_on_c, 9, 40, 0
4, 32196, Note_on_c, 9, 42, 0
4, 32200, Note_on_c, 9, 36, 0
4, 32236, Note_on_c, 9, 42, 127
4, 32237, Note_on_c, 9, 36, 127
4, 32252, Note_on_c, 9, 42, 0
4, 32284, Note_on_c, 9, 36, 0
4, 32290, Note_on_c, 9, 42, 127
4, 32302, Note_on_c, 9, 42, 0
4, 32316, Note_on_c, 9, 36, 127
4, 32343, Note_on_c, 9, 40, 127
4, 32343, Note_on_c, 9, 42, 127
4, 32359, Note_on_c, 9, 42, 0
4, 32362, Note_on_c, 9, 36, 0
4, 32396, Note_on_c, 9, 46, 127
4, 32397, Note_on_c, 9, 36, 127
4, 32400, Note_on_c, 9, 40, 0
4, 32435, Note_on_c, 9, 46, 0
4, 32450, Note_on_c, 9, 42, 127
4, 32452, Note_on_c, 9, 36, 0
4, 32465, Note_on_c, 9, 42, 0
4, 32503, Note_on_c, 9, 42, 127
4, 32517, Note_on_c, 9, 42, 0
4, 32557, Note_on_c, 9, 40, 127
4, 32557, Note_on_c, 9, 42, 127
4, 32573, Note_on_c, 9, 42, 0
4, 32595, Note_on_c, 9, 40, 0
4, 32610, Note_on_c, 9, 42, 127
4, 32610, Note_on_c, 9, 36, 127
4, 32624, Note_on_c, 9, 42, 0
4, 32628, Note_on_c, 9, 36, 0
4, 32663, Note_on_c, 9, 42, 127
4, 32664, Note_on_c, 9, 36, 127
4, 32682, Note_on_c, 9, 42, 0
4, 32711, Note_on_c, 9, 36, 0
4, 32717, Note_on_c, 9, 42, 127
4, 32733, Note_on_c, 9, 42, 0
4, 32743, Note_on_c, 9, 36, 127
4, 32770, Note_on_c, 9, 40, 127
4, 32770, Note_on_c, 9, 42, 127
4, 32783, Note_on_c, 9, 36, 0
4, 32789, Note_on_c, 9, 42, 0
4, 32823, Note_on_c, 9, 46, 127
4, 32824, Note_on_c, 9, 36, 127
4, 32832, Note_on_c, 9, 40, 0
4, 32870, Note_on_c, 9, 46, 0
4, 32875, Note_on_c, 9, 36, 0
4, 32877, Note_on_c, 9, 42, 127
4, 32901, Note_on_c, 9, 42, 0
4, 32930, Note_on_c, 9, 42, 127
4, 32946, Note_on_c, 9, 42, 0
4, 32984, Note_on_c, 9, 40, 127
4, 32984, Note_on_c, 9, 42, 127
4, 33000, Note_on_c, 9, 42, 0
4, 33030, Note_on_c, 9, 40, 0
4, 33037, Note_on_c, 9, 42, 127
4, 33037, Note_on_c, 9, 36, 127
4, 33050, Note_on_c, 9, 42, 0
4, 33057, Note_on_c, 9, 36, 0
4, 33090, Note_on_c, 9, 42, 127
4, 33091, Note_on_c, 9, 36, 127
4, 33109, Note_on_c, 9, 42, 0
4, 33139, Note_on_c, 9, 36, 0
4, 33144, Note_on_c, 9, 42, 127
4, 33160, Note_on_c, 9, 42, 0
4, 33170, Note_on_c, 9, 36, 127
4, 33197, Note_on_c, 9, 40, 127
4, 33197, Note_on_c, 9, 42, 127
4, 33211, Note_on_c, 9, 36, 0
4, 33215, Note_on_c, 9, 42, 0
4, 33224, Note_on_c, 9, 40, 127
4, 33225, Note_on_c, 9, 40, 0
4, 33250, Note_on_c, 9, 40, 0
4, 33251, Note_on_c, 9, 40, 127
4, 33251, Note_on_c, 9, 46, 127
4, 33251, Note_on_c, 9, 36, 127
4, 33264, Note_on_c, 9, 40, 0
4, 33274, Note_on_c, 9, 36, 0
4, 33287, Note_on_c, 9, 46, 0
4, 33304, Note_on_c, 9, 49, 127
4, 33304, Note_on_c, 9, 42, 127
4, 33304, Note_on_c, 9, 36, 127
4, 33315, Note_on_c, 9, 42, 0
4, 33316, Note_on_c, 9, 49, 0
4, 33357, Note_on_c, 9, 42, 127
4, 33358, Note_on_c, 9, 36, 0
4, 33372, Note_on_c, 9, 42, 0
4, 33411, Note_on_c, 9, 40, 127
4, 33411, Note_on_c, 9, 42, 127
4, 33423, Note_on_c, 9, 42, 0
4, 33464, Note_on_c, 9, 42, 127
4, 33464, Note_on_c, 9, 36, 127
4, 33466, Note_on_c, 9, 40, 0
4, 33474, Note_on_c, 9, 42, 0
4, 33485, Note_on_c, 9, 36, 0
4, 33517, Note_on_c, 9, 42, 127
4, 33518, Note_on_c, 9, 36, 127
4, 33531, Note_on_c, 9, 42, 0
4, 33571, Note_on_c, 9, 42, 127
4, 33576, Note_on_c, 9, 36, 0
4, 33581, Note_on_c, 9, 42, 0
4, 33597, Note_on_c, 9, 36, 127
4, 33624, Note_on_c, 9, 40, 127
4, 33624, Note_on_c, 9, 42, 127
4, 33635, Note_on_c, 9, 42, 0
4, 33645, Note_on_c, 9, 36, 0
4, 33677, Note_on_c, 9, 46, 127
4, 33678, Note_on_c, 9, 36, 127
4, 33687, Note_on_c, 9, 40, 0
4, 33719, Note_on_c, 9, 46, 0
4, 33731, Note_on_c, 9, 36, 0
4, 33732, Note_on_c, 9, 42, 127
4, 33744, Note_on_c, 9, 42, 0
4, 33784, Note_on_c, 9, 42, 127
4, 33795, Note_on_c, 9, 42, 0
4, 33838, Note_on_c, 9, 40, 127
4, 33838, Note_on_c, 9, 42, 127
4, 33853, Note_on_c, 9, 42, 0
4, 33891, Note_on_c, 9, 42, 127
4, 33891, Note_on_c, 9, 36, 127
4, 33893, Note_on_c, 9, 40, 0
4, 33904, Note_on_c, 9, 42, 0
4, 33908, Note_on_c, 9, 36, 0
4, 33944, Note_on_c, 9, 42, 127
4, 33945, Note_on_c, 9, 36, 127
4, 33960, Note_on_c, 9, 42, 0
4, 33992, Note_on_c, 9, 36, 0
4, 33998, Note_on_c, 9, 42, 127
4, 34010, Note_on_c, 9, 42, 0
4, 34024, Note_on_c, 9, 36, 127
4, 34051, Note_on_c, 9, 40, 127
4, 34051, Note_on_c, 9, 42, 127
4, 34067, Note_on_c, 9, 42, 0
4, 34070, Note_on_c, 9, 36, 0
4, 34104, Note_on_c, 9, 46, 127
4, 34105, Note_on_c, 9, 36, 127
4, 34108, Note_on_c, 9, 40, 0
4, 34144, Note_on_c, 9, 46, 0
4, 34158, Note_on_c, 9, 42, 127
4, 34160, Note_on_c, 9, 36, 0
4, 34173, Note_on_c, 9, 42, 0
4, 34211, Note_on_c, 9, 42, 127
4, 34225, Note_on_c, 9, 42, 0
4, 34265, Note_on_c, 9, 40, 127
4, 34265, Note_on_c, 9, 42, 127
4, 34281, Note_on_c, 9, 42, 0
4, 34303, Note_on_c, 9, 40, 0
4, 34318, Note_on_c, 9, 42, 127
4, 34318, Note_on_c, 9, 36, 127
4, 34332, Note_on_c, 9, 42, 0
4, 34336, Note_on_c, 9, 36, 0
4, 34371, Note_on_c, 9, 42, 127
4, 34372, Note_on_c, 9, 36, 127
4, 34390, Note_on_c, 9, 42, 0
4, 34420, Note_on_c, 9, 36, 0
4, 34425, Note_on_c, 9, 42, 127
4, 34441, Note_on_c, 9, 42, 0
4, 34451, Note_on_c, 9, 36, 127
4, 34478, Note_on_c, 9, 40, 127
4, 34478, Note_on_c, 9, 42, 127
4, 34491, Note_on_c, 9, 36, 0
4, 34497, Note_on_c, 9, 42, 0
4, 34531, Note_on_c, 9, 46, 127
4, 34532, Note_on_c, 9, 36, 127
4, 34540, Note_on_c, 9, 40, 0
4, 34578, Note_on_c, 9, 46, 0
4, 34583, Note_on_c, 9, 36, 0
4, 34585, Note_on_c, 9, 42, 127
4, 34609, Note_on_c, 9, 42, 0
4, 34638, Note_on_c, 9, 42, 127
4, 34654, Note_on_c, 9, 42, 0
4, 34692, Note_on_c, 9, 40, 127
4, 34692, Note_on_c, 9, 42, 127
4, 34708, Note_on_c, 9, 42, 0
4, 34738, Note_on_c, 9, 40, 0
4, 34745, Note_on_c, 9, 50, 127
4, 34745, Note_on_c, 9, 42, 127
4, 34745, Note_on_c, 9, 36, 127
4, 34754, Note_on_c, 9, 50, 0
4, 34758, Note_on_c, 9, 42, 0
4, 34765, Note_on_c, 9, 36, 0
4, 34772, Note_on_c, 9, 50, 127
4, 34782, Note_on_c, 9, 50, 0
4, 34798, Note_on_c, 9, 42, 127
4, 34799, Note_on_c, 9, 36, 127
4, 34817, Note_on_c, 9, 42, 0
4, 34847, Note_on_c, 9, 36, 0
4, 34852, Note_on_c, 9, 47, 127
4, 34852, Note_on_c, 9, 42, 127
4, 34861, Note_on_c, 9, 47, 0
4, 34868, Note_on_c, 9, 42, 0
4, 34878, Note_on_c, 9, 47, 127
4, 34879, Note_on_c, 9, 36, 127
4, 34887, Note_on_c, 9, 47, 0
4, 34905, Note_on_c, 9, 40, 127
4, 34905, Note_on_c, 9, 42, 127
4, 34920, Note_on_c, 9, 36, 0
4, 34923, Note_on_c, 9, 42, 0
4, 34958, Note_on_c, 9, 43, 127
4, 34959, Note_on_c, 9, 46, 127
4, 34959, Note_on_c, 9, 36, 127
4, 34961, Note_on_c, 9, 40, 0
4, 34966, Note_on_c, 9, 43, 0
4, 34982, Note_on_c, 9, 36, 0
4, 34985, Note_on_c, 9, 43, 127
4, 34995, Note_on_c, 9, 46, 0
4, 34996, Note_on_c, 9, 43, 0
4, 35012, Note_on_c, 9, 42, 127
4, 35012, Note_on_c, 9, 49, 127
4, 35012, Note_on_c, 9, 62, 127
4, 35013, Note_on_c, 9, 42, 0
4, 35013, Note_on_c, 9, 36, 127
4, 35014, Note_on_c, 9, 56, 127
4, 35022, Note_on_c, 9, 62, 0
4, 35022, Note_on_c, 9, 49, 0
4, 35027, Note_on_c, 9, 36, 0
4, 35039, Note_on_c, 9, 62, 127
4, 35046, Note_on_c, 9, 56, 0
4, 35050, Note_on_c, 9, 62, 0
4, 35065, Note_on_c, 9, 42, 127
4, 35066, Note_on_c, 9, 42, 0
4, 35066, Note_on_c, 9, 62, 127
4, 35074, Note_on_c, 9, 62, 0
4, 35092, Note_on_c, 9, 62, 127
4, 35103, Note_on_c, 9, 62, 0
4, 35119, Note_on_c, 9, 42, 127
4, 35119, Note_on_c, 9, 64, 127
4, 35119, Note_on_c, 9, 39, 127
4, 35119, Note_on_c, 9, 37, 127
4, 35119, Note_on_c, 9, 56, 127
4, 35120, Note_on_c, 9, 42, 0
4, 35130, Note_on_c, 9, 64, 0
4, 35145, Note_on_c, 9, 62, 127
4, 35155, Note_on_c, 9, 62, 0
4, 35159, Note_on_c, 9, 56, 0
4, 35172, Note_on_c, 9, 42, 127
4, 35172, Note_on_c, 9, 62, 127
4, 35172, Note_on_c, 9, 36, 127
4, 35173, Note_on_c, 9, 42, 0
4, 35175, Note_on_c, 9, 39, 0
4, 35176, Note_on_c, 9, 37, 0
4, 35181, Note_on_c, 9, 62, 0
4, 35185, Note_on_c, 9, 42, 127
4, 35186, Note_on_c, 9, 42, 0
4, 35186, Note_on_c, 9, 36, 0
4, 35186, Note_on_c, 9, 62, 127
4, 35195, Note_on_c, 9, 62, 0
4, 35199, Note_on_c, 9, 42, 127
4, 35199, Note_on_c, 9, 62, 127
4, 35200, Note_on_c, 9, 42, 0
4, 35208, Note_on_c, 9, 62, 0
4, 35225, Note_on_c, 9, 42, 127
4, 35226, Note_on_c, 9, 42, 0
4, 35226, Note_on_c, 9, 62, 127
4, 35226, Note_on_c, 9, 36, 127
4, 35226, Note_on_c, 9, 56, 127
4, 35238, Note_on_c, 9, 62, 0
4, 35240, Note_on_c, 9, 36, 0
4, 35252, Note_on_c, 9, 42, 127
4, 35252, Note_on_c, 9, 62, 127
4, 35252, Note_on_c, 9, 64, 127
4, 35253, Note_on_c, 9, 42, 0
4, 35259, Note_on_c, 9, 64, 0
4, 35261, Note_on_c, 9, 62, 0
4, 35270, Note_on_c, 9, 56, 0
4, 35279, Note_on_c, 9, 42, 127
4, 35279, Note_on_c, 9, 62, 127
4, 35279, Note_on_c, 9, 36, 127
4, 35280, Note_on_c, 9, 42, 0
4, 35293, Note_on_c, 9, 36, 0
4, 35293, Note_on_c, 9, 62, 0
4, 35305, Note_on_c, 9, 42, 127
4, 35306, Note_on_c, 9, 42, 0
4, 35306, Note_on_c, 9, 64, 127
4, 35313, Note_on_c, 9, 64, 0
4, 35332, Note_on_c, 9, 42, 127
4, 35332, Note_on_c, 9, 62, 127
4, 35333, Note_on_c, 9, 42, 0
4, 35333, Note_on_c, 9, 37, 127
4, 35333, Note_on_c, 9, 39, 127
4, 35333, Note_on_c, 9, 56, 127
4, 35343, Note_on_c, 9, 62, 0
4, 35359, Note_on_c, 9, 64, 127
4, 35365, Note_on_c, 9, 64, 0
4, 35380, Note_on_c, 9, 39, 0
4, 35381, Note_on_c, 9, 56, 0
4, 35382, Note_on_c, 9, 37, 0
4, 35385, Note_on_c, 9, 46, 127
4, 35386, Note_on_c, 9, 46, 0
4, 35386, Note_on_c, 9, 62, 127
4, 35386, Note_on_c, 9, 60, 127
4, 35386, Note_on_c, 9, 36, 127
4, 35392, Note_on_c, 9, 60, 0
4, 35395, Note_on_c, 9, 62, 0
4, 35398, Note_on_c, 9, 36, 0
4, 35412, Note_on_c, 9, 42, 127
4, 35412, Note_on_c, 9, 62, 127
4, 35413, Note_on_c, 9, 42, 0
4, 35424, Note_on_c, 9, 62, 0
4, 35425, Note_on_c, 9, 42, 127
4, 35426, Note_on_c, 9, 42, 0
4, 35439, Note_on_c, 9, 42, 127
4, 35439, Note_on_c, 9, 62, 127
4, 35439, Note_on_c, 9, 36, 127
4, 35440, Note_on_c, 9, 42, 0
4, 35440, Note_on_c, 9, 56, 127
4, 35448, Note_on_c, 9, 62, 0
4, 35454, Note_on_c, 9, 36, 0
4, 35466, Note_on_c, 9, 62, 127
4, 35473, Note_on_c, 9, 62, 0
4, 35492, Note_on_c, 9, 42, 127
4, 35492, Note_on_c, 9, 62, 127
4, 35493, Note_on_c, 9, 42, 0
4, 35494, Note_on_c, 9, 56, 0
4, 35502, Note_on_c, 9, 62, 0
4, 35546, Note_on_c, 9, 42, 127
4, 35546, Note_on_c, 9, 64, 127
4, 35546, Note_on_c, 9, 37, 127
4, 35546, Note_on_c, 9, 39, 127
4, 35546, Note_on_c, 9, 56, 127
4, 35547, Note_on_c, 9, 42, 0
4, 35558, Note_on_c, 9, 64, 0
4, 35572, Note_on_c, 9, 62, 127
4, 35584, Note_on_c, 9, 62, 0
4, 35586, Note_on_c, 9, 56, 0
4, 35596, Note_on_c, 9, 37, 0
4, 35596, Note_on_c, 9, 39, 0
4, 35599, Note_on_c, 9, 42, 127
4, 35599, Note_on_c, 9, 62, 127
4, 35599, Note_on_c, 9, 36, 127
4, 35600, Note_on_c, 9, 42, 0
4, 35609, Note_on_c, 9, 62, 0
4, 35612, Note_on_c, 9, 36, 0
4, 35626, Note_on_c, 9, 62, 127
4, 35637, Note_on_c, 9, 62, 0
4, 35652, Note_on_c, 9, 42, 127
4, 35653, Note_on_c, 9, 42, 0
4, 35653, Note_on_c, 9, 62, 127
4, 35653, Note_on_c, 9, 36, 127
4, 35653, Note_on_c, 9, 56, 127
4, 35662, Note_on_c, 9, 62, 0
4, 35668, Note_on_c, 9, 36, 0
4, 35678, Note_on_c, 9, 56, 0
4, 35679, Note_on_c, 9, 62, 127
4, 35689, Note_on_c, 9, 62, 0
4, 35706, Note_on_c, 9, 42, 127
4, 35706, Note_on_c, 9, 62, 127
4, 35706, Note_on_c, 9, 36, 127
4, 35707, Note_on_c, 9, 42, 0
4, 35717, Note_on_c, 9, 62, 0
4, 35723, Note_on_c, 9, 36, 0
4, 35732, Note_on_c, 9, 62, 127
4, 35744, Note_on_c, 9, 62, 0
4, 35759, Note_on_c, 9, 42, 127
4, 35759, Note_on_c, 9, 64, 127
4, 35760, Note_on_c, 9, 42, 0
4, 35760, Note_on_c, 9, 37, 127
4, 35760, Note_on_c, 9, 39, 127
4, 35760, Note_on_c, 9, 56, 127
4, 35774, Note_on_c, 9, 64, 0
4, 35786, Note_on_c, 9, 62, 127
4, 35796, Note_on_c, 9, 62, 0
4, 35798, Note_on_c, 9, 56, 0
4, 35799, Note_on_c, 9, 39, 0
4, 35801, Note_on_c, 9, 37, 0
4, 35812, Note_on_c, 9, 46, 127
4, 35813, Note_on_c, 9, 46, 0
4, 35813, Note_on_c, 9, 62, 127
4, 35813, Note_on_c, 9, 36, 127
4, 35822, Note_on_c, 9, 62, 0
4, 35828, Note_on_c, 9, 36, 0
4, 35839, Note_on_c, 9, 62, 127
4, 35848, Note_on_c, 9, 62, 0
4, 35866, Note_on_c, 9, 42, 127
4, 35866, Note_on_c, 9, 62, 127
4, 35866, Note_on_c, 9, 36, 127
4, 35867, Note_on_c, 9, 42, 0
4, 35867, Note_on_c, 9, 56, 127
4, 35876, Note_on_c, 9, 62, 0
4, 35883, Note_on_c, 9, 36, 0
4, 35893, Note_on_c, 9, 62, 127
4, 35904, Note_on_c, 9, 62, 0
4, 35919, Note_on_c, 9, 42, 127
4, 35919, Note_on_c, 9, 62, 127
4, 35920, Note_on_c, 9, 42, 0
4, 35928, Note_on_c, 9, 62, 0
4, 35930, Note_on_c, 9, 56, 0
4, 35946, Note_on_c, 9, 62, 127
4, 35957, Note_on_c, 9, 62, 0
4, 35973, Note_on_c, 9, 42, 127
4, 35973, Note_on_c, 9, 64, 127
4, 35973, Note_on_c, 9, 37, 127
4, 35973, Note_on_c, 9, 39, 127
4, 35973, Note_on_c, 9, 56, 127
4, 35974, Note_on_c, 9, 42, 0
4, 35984, Note_on_c, 9, 64, 0
4, 35999, Note_on_c, 9, 62, 127
4, 36009, Note_on_c, 9, 62, 0
4, 36010, Note_on_c, 9, 39, 0
4, 36011, Note_on_c, 9, 37, 0
4, 36025, Note_on_c, 9, 56, 0
4, 36026, Note_on_c, 9, 42, 127
4, 36026, Note_on_c, 9, 62, 127
4, 36026, Note_on_c, 9, 36, 127
4, 36027, Note_on_c, 9, 42, 0
4, 36035, Note_on_c, 9, 62, 0
4, 36039, Note_on_c, 9, 42, 127
4, 36040, Note_on_c, 9, 42, 0
4, 36040, Note_on_c, 9, 36, 0
4, 36040, Note_on_c, 9, 62, 127
4, 36049, Note_on_c, 9, 62, 0
4, 36053, Note_on_c, 9, 42, 127
4, 36053, Note_on_c, 9, 62, 127
4, 36054, Note_on_c, 9, 42, 0
4, 36062, Note_on_c, 9, 62, 0
4, 36079, Note_on_c, 9, 42, 127
4, 36080, Note_on_c, 9, 42, 0
4, 36080, Note_on_c, 9, 62, 127
4, 36080, Note_on_c, 9, 36, 127
4, 36080, Note_on_c, 9, 56, 127
4, 36092, Note_on_c, 9, 62, 0
4, 36095, Note_on_c, 9, 36, 0
4, 36106, Note_on_c, 9, 42, 127
4, 36106, Note_on_c, 9, 62, 127
4, 36106, Note_on_c, 9, 64, 127
4, 36107, Note_on_c, 9, 42, 0
4, 36113, Note_on_c, 9, 64, 0
4, 36115, Note_on_c, 9, 62, 0
4, 36125, Note_on_c, 9, 56, 0
4, 36133, Note_on_c, 9, 42, 127
4, 36133, Note_on_c, 9, 62, 127
4, 36133, Note_on_c, 9, 36, 127
4, 36134, Note_on_c, 9, 42, 0
4, 36147, Note_on_c, 9, 62, 0
4, 36148, Note_on_c, 9, 36, 0
4, 36159, Note_on_c, 9, 42, 127
4, 36160, Note_on_c, 9, 42, 0
4, 36160, Note_on_c, 9, 64, 127
4, 36167, Note_on_c, 9, 64, 0
4, 36186, Note_on_c, 9, 42, 127
4, 36186, Note_on_c, 9, 62, 127
4, 36186, Note_on_c, 9, 37, 127
4, 36187, Note_on_c, 9, 42, 0
4, 36187, Note_on_c, 9, 39, 127
4, 36187, Note_on_c, 9, 56, 127
4, 36197, Note_on_c, 9, 62, 0
4, 36213, Note_on_c, 9, 64, 127
4, 36219, Note_on_c, 9, 64, 0
4, 36231, Note_on_c, 9, 37, 0
4, 36232, Note_on_c, 9, 39, 0
4, 36235, Note_on_c, 9, 56, 0
4, 36239, Note_on_c, 9, 46, 127
4, 36240, Note_on_c, 9, 46, 0
4, 36240, Note_on_c, 9, 62, 127
4, 36240, Note_on_c, 9, 60, 127
4, 36240, Note_on_c, 9, 36, 127
4, 36246, Note_on_c, 9, 60, 0
4, 36249, Note_on_c, 9, 62, 0
4, 36254, Note_on_c, 9, 36, 0
4, 36266, Note_on_c, 9, 42, 127
4, 36266, Note_on_c, 9, 62, 127
4, 36267, Note_on_c, 9, 42, 0
4, 36278, Note_on_c, 9, 62, 0
4, 36279, Note_on_c, 9, 42, 127
4, 36280, Note_on_c, 9, 42, 0
4, 36293, Note_on_c, 9, 42, 127
4, 36293, Note_on_c, 9, 62, 127
4, 36293, Note_on_c, 9, 36, 127
4, 36294, Note_on_c, 9, 42, 0
4, 36294, Note_on_c, 9, 56, 127
4, 36302, Note_on_c, 9, 62, 0
4, 36310, Note_on_c, 9, 36, 0
4, 36320, Note_on_c, 9, 62, 127
4, 36327, Note_on_c, 9, 62, 0
4, 36346, Note_on_c, 9, 42, 127
4, 36346, Note_on_c, 9, 62, 127
4, 36347, Note_on_c, 9, 42, 0
4, 36350, Note_on_c, 9, 56, 0
4, 36356, Note_on_c, 9, 62, 0
4, 36400, Note_on_c, 9, 42, 127
4, 36400, Note_on_c, 9, 64, 127
4, 36400, Note_on_c, 9, 37, 127
4, 36400, Note_on_c, 9, 39, 127
4, 36400, Note_on_c, 9, 56, 127
4, 36401, Note_on_c, 9, 42, 0
4, 36412, Note_on_c, 9, 64, 0
4, 36426, Note_on_c, 9, 62, 127
4, 36427, Note_on_c, 9, 37, 0
4, 36429, Note_on_c, 9, 39, 0
4, 36438, Note_on_c, 9, 62, 0
4, 36444, Note_on_c, 9, 56, 0
4, 36453, Note_on_c, 9, 42, 127
4, 36453, Note_on_c, 9, 62, 127
4, 36453, Note_on_c, 9, 36, 127
4, 36454, Note_on_c, 9, 42, 0
4, 36463, Note_on_c, 9, 62, 0
4, 36467, Note_on_c, 9, 36, 0
4, 36480, Note_on_c, 9, 62, 127
4, 36491, Note_on_c, 9, 62, 0
4, 36506, Note_on_c, 9, 42, 127
4, 36507, Note_on_c, 9, 42, 0
4, 36507, Note_on_c, 9, 62, 127
4, 36507, Note_on_c, 9, 36, 127
4, 36507, Note_on_c, 9, 56, 127
4, 36516, Note_on_c, 9, 62, 0
4, 36519, Note_on_c, 9, 36, 0
4, 36533, Note_on_c, 9, 62, 127
4, 36543, Note_on_c, 9, 62, 0
4, 36552, Note_on_c, 9, 56, 0
4, 36560, Note_on_c, 9, 42, 127
4, 36560, Note_on_c, 9, 62, 127
4, 36560, Note_on_c, 9, 36, 127
4, 36561, Note_on_c, 9, 42, 0
4, 36571, Note_on_c, 9, 62, 0
4, 36573, Note_on_c, 9, 36, 0
4, 36586, Note_on_c, 9, 62, 127
4, 36598, Note_on_c, 9, 62, 0
4, 36613, Note_on_c, 9, 42, 127
4, 36613, Note_on_c, 9, 64, 127
4, 36614, Note_on_c, 9, 42, 0
4, 36614, Note_on_c, 9, 39, 127
4, 36614, Note_on_c, 9, 37, 127
4, 36614, Note_on_c, 9, 56, 127
4, 36628, Note_on_c, 9, 64, 0
4, 36640, Note_on_c, 9, 62, 127
4, 36641, Note_on_c, 9, 37, 0
4, 36645, Note_on_c, 9, 39, 0
4, 36650, Note_on_c, 9, 62, 0
4, 36661, Note_on_c, 9, 56, 0
4, 36666, Note_on_c, 9, 46, 127
4, 36667, Note_on_c, 9, 46, 0
4, 36667, Note_on_c, 9, 62, 127
4, 36667, Note_on_c, 9, 36, 127
4, 36676, Note_on_c, 9, 62, 0
4, 36680, Note_on_c, 9, 36, 0
4, 36693, Note_on_c, 9, 62, 127
4, 36702, Note_on_c, 9, 62, 0
4, 36720, Note_on_c, 9, 42, 127
4, 36720, Note_on_c, 9, 49, 127
4, 36720, Note_on_c, 9, 62, 127
4, 36721, Note_on_c, 9, 42, 0
4, 36721, Note_on_c, 9, 36, 127
4, 36721, Note_on_c, 9, 39, 127
4, 36721, Note_on_c, 9, 56, 127
4, 36727, Note_on_c, 9, 39, 0
4, 36730, Note_on_c, 9, 62, 0
4, 36732, Note_on_c, 9, 49, 0
4, 36735, Note_on_c, 9, 36, 0
4, 36747, Note_on_c, 9, 62, 127
4, 36758, Note_on_c, 9, 62, 0
4, 36771, Note_on_c, 9, 56, 0
4, 36773, Note_on_c, 9, 42, 127
4, 36774, Note_on_c, 9, 42, 0
4, 36774, Note_on_c, 9, 62, 127
4, 36782, Note_on_c, 9, 62, 0
4, 36800, Note_on_c, 9, 62, 127
4, 36811, Note_on_c, 9, 62, 0
4, 36827, Note_on_c, 9, 42, 127
4, 36827, Note_on_c, 9, 64, 127
4, 36827, Note_on_c, 9, 37, 127
4, 36827, Note_on_c, 9, 39, 127
4, 36827, Note_on_c, 9, 56, 127
4, 36828, Note_on_c, 9, 42, 0
4, 36838, Note_on_c, 9, 64, 0
4, 36853, Note_on_c, 9, 62, 127
4, 36856, Note_on_c, 9, 37, 0
4, 36858, Note_on_c, 9, 39, 0
4, 36863, Note_on_c, 9, 62, 0
4, 36877, Note_on_c, 9, 56, 0
4, 36880, Note_on_c, 9, 42, 127
4, 36880, Note_on_c, 9, 62, 127
4, 36880, Note_on_c, 9, 36, 127
4, 36881, Note_on_c, 9, 42, 0
4, 36889, Note_on_c, 9, 62, 0
4, 36893, Note_on_c, 9, 42, 127
4, 36894, Note_on_c, 9, 42, 0
4, 36894, Note_on_c, 9, 36, 0
4, 36894, Note_on_c, 9, 62, 127
4, 36903, Note_on_c, 9, 62, 0
4, 36907, Note_on_c, 9, 42, 127
4, 36907, Note_on_c, 9, 62, 127
4, 36908, Note_on_c, 9, 42, 0
4, 36916, Note_on_c, 9, 62, 0
4, 36933, Note_on_c, 9, 42, 127
4, 36934, Note_on_c, 9, 42, 0
4, 36934, Note_on_c, 9, 62, 127
4, 36934, Note_on_c, 9, 36, 127
4, 36934, Note_on_c, 9, 56, 127
4, 36946, Note_on_c, 9, 62, 0
4, 36948, Note_on_c, 9, 36, 0
4, 36960, Note_on_c, 9, 42, 127
4, 36960, Note_on_c, 9, 62, 127
4, 36960, Note_on_c, 9, 64, 127
4, 36961, Note_on_c, 9, 42, 0
4, 36967, Note_on_c, 9, 64, 0
4, 36969, Note_on_c, 9, 62, 0
4, 36982, Note_on_c, 9, 56, 0
4, 36987, Note_on_c, 9, 42, 127
4, 36987, Note_on_c, 9, 62, 127
4, 36987, Note_on_c, 9, 36, 127
4, 36988, Note_on_c, 9, 42, 0
4, 37001, Note_on_c, 9, 62, 0
4, 37002, Note_on_c, 9, 36, 0
4, 37013, Note_on_c, 9, 42, 127
4, 37014, Note_on_c, 9, 42, 0
4, 37014, Note_on_c, 9, 64, 127
4, 37021, Note_on_c, 9, 64, 0
4, 37040, Note_on_c, 9, 42, 127
4, 37040, Note_on_c, 9, 62, 127
4, 37041, Note_on_c, 9, 42, 0
4, 37041, Note_on_c, 9, 39, 127
4, 37041, Note_on_c, 9, 37, 127
4, 37041, Note_on_c, 9, 56, 127
4, 37051, Note_on_c, 9, 62, 0
4, 37065, Note_on_c, 9, 37, 0
4, 37067, Note_on_c, 9, 64, 127
4, 37070, Note_on_c, 9, 39, 0
4, 37073, Note_on_c, 9, 64, 0
4, 37088, Note_on_c, 9, 56, 0
4, 37093, Note_on_c, 9, 46, 127
4, 37094, Note_on_c, 9, 46, 0
4, 37094, Note_on_c, 9, 62, 127
4, 37094, Note_on_c, 9, 60, 127
4, 37094, Note_on_c, 9, 36, 127
4, 37100, Note_on_c, 9, 60, 0
4, 37103, Note_on_c, 9, 62, 0
4, 37109, Note_on_c, 9, 36, 0
4, 37120, Note_on_c, 9, 42, 127
4, 37120, Note_on_c, 9, 62, 127
4, 37121, Note_on_c, 9, 42, 0
4, 37132, Note_on_c, 9, 62, 0
4, 37134, Note_on_c, 9, 42, 127
4, 37135, Note_on_c, 9, 42, 0
4, 37147, Note_on_c, 9, 42, 127
4, 37147, Note_on_c, 9, 62, 127
4, 37147, Note_on_c, 9, 36, 127
4, 37148, Note_on_c, 9, 42, 0
4, 37148, Note_on_c, 9, 56, 127
4, 37156, Note_on_c, 9, 62, 0
4, 37162, Note_on_c, 9, 36, 0
4, 37174, Note_on_c, 9, 62, 127
4, 37181, Note_on_c, 9, 62, 0
4, 37200, Note_on_c, 9, 42, 127
4, 37201, Note_on_c, 9, 42, 0
4, 37201, Note_on_c, 9, 62, 127
4, 37202, Note_on_c, 9, 56, 0
4, 37210, Note_on_c, 9, 62, 0
4, 37254, Note_on_c, 9, 42, 127
4, 37254, Note_on_c, 9, 64, 127
4, 37254, Note_on_c, 9, 39, 127
4, 37254, Note_on_c, 9, 37, 127
4, 37254, Note_on_c, 9, 56, 127
4, 37255, Note_on_c, 9, 42, 0
4, 37266, Note_on_c, 9, 64, 0
4, 37280, Note_on_c, 9, 62, 127
4, 37284, Note_on_c, 9, 37, 0
4, 37285, Note_on_c, 9, 39, 0
4, 37293, Note_on_c, 9, 62, 0
4, 37307, Note_on_c, 9, 56, 0
4, 37307, Note_on_c, 9, 42, 127
4, 37308, Note_on_c, 9, 42, 0
4, 37308, Note_on_c, 9, 62, 127
4, 37308, Note_on_c, 9, 36, 127
4, 37317, Note_on_c, 9, 62, 0
4, 37324, Note_on_c, 9, 36, 0
4, 37334, Note_on_c, 9, 62, 127
4, 37345, Note_on_c, 9, 62, 0
4, 37360, Note_on_c, 9, 42, 127
4, 37361, Note_on_c, 9, 42, 0
4, 37361, Note_on_c, 9, 62, 127
4, 37361, Note_on_c, 9, 36, 127
4, 37361, Note_on_c, 9, 56, 127
4, 37370, Note_on_c, 9, 62, 0
4, 37374, Note_on_c, 9, 36, 0
4, 37387, Note_on_c, 9, 62, 127
4, 37397, Note_on_c, 9, 62, 0
4, 37409, Note_on_c, 9, 56, 0
4, 37414, Note_on_c, 9, 42, 127
4, 37414, Note_on_c, 9, 62, 127
4, 37414, Note_on_c, 9, 36, 127
4, 37415, Note_on_c, 9, 42, 0
4, 37425, Note_on_c, 9, 62, 0
4, 37429, Note_on_c, 9, 36, 0
4, 37440, Note_on_c, 9, 62, 127
4, 37452, Note_on_c, 9, 62, 0
4, 37467, Note_on_c, 9, 42, 127
4, 37467, Note_on_c, 9, 64, 127
4, 37468, Note_on_c, 9, 42, 0
4, 37468, Note_on_c, 9, 39, 127
4, 37468, Note_on_c, 9, 37, 127
4, 37468, Note_on_c, 9, 56, 127
4, 37482, Note_on_c, 9, 64, 0
4, 37494, Note_on_c, 9, 62, 127
4, 37497, Note_on_c, 9, 37, 0
4, 37500, Note_on_c, 9, 39, 0
4, 37504, Note_on_c, 9, 62, 0
4, 37517, Note_on_c, 9, 56, 0
4, 37520, Note_on_c, 9, 46, 127
4, 37521, Note_on_c, 9, 46, 0
4, 37521, Note_on_c, 9, 62, 127
4, 37521, Note_on_c, 9, 36, 127
4, 37530, Note_on_c, 9, 62, 0
4, 37536, Note_on_c, 9, 36, 0
4, 37547, Note_on_c, 9, 62, 127
4, 37556, Note_on_c, 9, 62, 0
4, 37574, Note_on_c, 9, 42, 127
4, 37574, Note_on_c, 9, 62, 127
4, 37574, Note_on_c, 9, 36, 127
4, 37575, Note_on_c, 9, 42, 0
4, 37575, Note_on_c, 9, 56, 127
4, 37584, Note_on_c, 9, 62, 0
4, 37589, Note_on_c, 9, 36, 0
4, 37601, Note_on_c, 9, 62, 127
4, 37612, Note_on_c, 9, 62, 0
4, 37627, Note_on_c, 9, 42, 127
4, 37627, Note_on_c, 9, 62, 127
4, 37628, Note_on_c, 9, 42, 0
4, 37632, Note_on_c, 9, 56, 0
4, 37636, Note_on_c, 9, 62, 0
4, 37654, Note_on_c, 9, 62, 127
4, 37665, Note_on_c, 9, 62, 0
4, 37681, Note_on_c, 9, 42, 127
4, 37681, Note_on_c, 9, 64, 127
4, 37681, Note_on_c, 9, 39, 127
4, 37681, Note_on_c, 9, 37, 127
4, 37681, Note_on_c, 9, 56, 127
4, 37682, Note_on_c, 9, 42, 0
4, 37692, Note_on_c, 9, 64, 0
4, 37707, Note_on_c, 9, 62, 127
4, 37710, Note_on_c, 9, 37, 0
4, 37710, Note_on_c, 9, 39, 0
4, 37717, Note_on_c, 9, 62, 0
4, 37732, Note_on_c, 9, 56, 0
4, 37734, Note_on_c, 9, 42, 127
4, 37734, Note_on_c, 9, 62, 127
4, 37734, Note_on_c, 9, 36, 127
4, 37735, Note_on_c, 9, 42, 0
4, 37743, Note_on_c, 9, 62, 0
4, 37747, Note_on_c, 9, 42, 127
4, 37748, Note_on_c, 9, 42, 0
4, 37748, Note_on_c, 9, 36, 0
4, 37748, Note_on_c, 9, 62, 127
4, 37757, Note_on_c, 9, 62, 0
4, 37761, Note_on_c, 9, 42, 127
4, 37761, Note_on_c, 9, 62, 127
4, 37762, Note_on_c, 9, 42, 0
4, 37770, Note_on_c, 9, 62, 0
4, 37787, Note_on_c, 9, 42, 127
4, 37788, Note_on_c, 9, 42, 0
4, 37788, Note_on_c, 9, 62, 127
4, 37788, Note_on_c, 9, 36, 127
4, 37788, Note_on_c, 9, 56, 127
4, 37800, Note_on_c, 9, 62, 0
4, 37802, Note_on_c, 9, 36, 0
4, 37814, Note_on_c, 9, 42, 127
4, 37814, Note_on_c, 9, 62, 127
4, 37814, Note_on_c, 9, 64, 127
4, 37815, Note_on_c, 9, 42, 0
4, 37821, Note_on_c, 9, 64, 0
4, 37823, Note_on_c, 9, 62, 0
4, 37836, Note_on_c, 9, 56, 0
4, 37841, Note_on_c, 9, 42, 127
4, 37841, Note_on_c, 9, 62, 127
4, 37841, Note_on_c, 9, 36, 127
4, 37842, Note_on_c, 9, 42, 0
4, 37855, Note_on_c, 9, 62, 0
4, 37856, Note_on_c, 9, 36, 0
4, 37867, Note_on_c, 9, 42, 127
4, 37868, Note_on_c, 9, 42, 0
4, 37868, Note_on_c, 9, 64, 127
4, 37875, Note_on_c, 9, 64, 0
4, 37894, Note_on_c, 9, 42, 127
4, 37894, Note_on_c, 9, 62, 127
4, 37895, Note_on_c, 9, 42, 0
4, 37895, Note_on_c, 9, 39, 127
4, 37895, Note_on_c, 9, 37, 127
4, 37895, Note_on_c, 9, 56, 127
4, 37905, Note_on_c, 9, 62, 0
4, 37914, Note_on_c, 9, 37, 0
4, 37917, Note_on_c, 9, 39, 0
4, 37921, Note_on_c, 9, 64, 127
4, 37927, Note_on_c, 9, 64, 0
4, 37945, Note_on_c, 9, 56, 0
4, 37947, Note_on_c, 9, 46, 127
4, 37948, Note_on_c, 9, 46, 0
4, 37948, Note_on_c, 9, 62, 127
4, 37948, Note_on_c, 9, 60, 127
4, 37948, Note_on_c, 9, 36, 127
4, 37954, Note_on_c, 9, 60, 0
4, 37957, Note_on_c, 9, 62, 0
4, 37962, Note_on_c, 9, 36, 0
4, 37974, Note_on_c, 9, 42, 127
4, 37974, Note_on_c, 9, 62, 127
4, 37975, Note_on_c, 9, 42, 0
4, 37986, Note_on_c, 9, 62, 0
4, 37987, Note_on_c, 9, 42, 127
4, 37988, Note_on_c, 9, 42, 0
4, 38001, Note_on_c, 9, 42, 127
4, 38001, Note_on_c, 9, 62, 127
4, 38001, Note_on_c, 9, 36, 127
4, 38002, Note_on_c, 9, 42, 0
4, 38002, Note_on_c, 9, 56, 127
4, 38010, Note_on_c, 9, 62, 0
4, 38018, Note_on_c, 9, 36, 0
4, 38028, Note_on_c, 9, 62, 127
4, 38035, Note_on_c, 9, 62, 0
4, 38054, Note_on_c, 9, 42, 127
4, 38055, Note_on_c, 9, 42, 0
4, 38055, Note_on_c, 9, 62, 127
4, 38064, Note_on_c, 9, 62, 0
4, 38065, Note_on_c, 9, 56, 0
4, 38108, Note_on_c, 9, 42, 127
4, 38108, Note_on_c, 9, 64, 127
4, 38108, Note_on_c, 9, 37, 127
4, 38108, Note_on_c, 9, 39, 127
4, 38108, Note_on_c, 9, 56, 127
4, 38109, Note_on_c, 9, 42, 0
4, 38120, Note_on_c, 9, 64, 0
4, 38124, Note_on_c, 9, 39, 0
4, 38124, Note_on_c, 9, 37, 0
4, 38134, Note_on_c, 9, 62, 127
4, 38147, Note_on_c, 9, 62, 0
4, 38161, Note_on_c, 9, 42, 127
4, 38161, Note_on_c, 9, 62, 127
4, 38161, Note_on_c, 9, 36, 127
4, 38162, Note_on_c, 9, 42, 0
4, 38164, Note_on_c, 9, 56, 0
4, 38171, Note_on_c, 9, 62, 0
4, 38175, Note_on_c, 9, 36, 0
4, 38188, Note_on_c, 9, 62, 127
4, 38199, Note_on_c, 9, 62, 0
4, 38214, Note_on_c, 9, 42, 127
4, 38215, Note_on_c, 9, 42, 0
4, 38215, Note_on_c, 9, 62, 127
4, 38215, Note_on_c, 9, 36, 127
4, 38215, Note_on_c, 9, 56, 127
4, 38224, Note_on_c, 9, 62, 0
4, 38230, Note_on_c, 9, 36, 0
4, 38241, Note_on_c, 9, 62, 127
4, 38243, Note_on_c, 9, 56, 0
4, 38251, Note_on_c, 9, 62, 0
4, 38268, Note_on_c, 9, 42, 127
4, 38268, Note_on_c, 9, 62, 127
4, 38268, Note_on_c, 9, 36, 127
4, 38269, Note_on_c, 9, 42, 0
4, 38279, Note_on_c, 9, 62, 0
4, 38284, Note_on_c, 9, 36, 0
4, 38294, Note_on_c, 9, 62, 127
4, 38306, Note_on_c, 9, 62, 0
4, 38321, Note_on_c, 9, 42, 127
4, 38321, Note_on_c, 9, 64, 127
4, 38322, Note_on_c, 9, 42, 0
4, 38322, Note_on_c, 9, 39, 127
4, 38322, Note_on_c, 9, 37, 127
4, 38322, Note_on_c, 9, 40, 127
4, 38331, Note_on_c, 9, 40, 0
4, 38332, Note_on_c, 9, 37, 0
4, 38333, Note_on_c, 9, 39, 0
4, 38336, Note_on_c, 9, 64, 0
4, 38348, Note_on_c, 9, 62, 127
4, 38348, Note_on_c, 9, 40, 127
4, 38358, Note_on_c, 9, 40, 0
4, 38358, Note_on_c, 9, 62, 0
4, 38374, Note_on_c, 9, 46, 127
4, 38375, Note_on_c, 9, 46, 0
4, 38375, Note_on_c, 9, 62, 127
4, 38375, Note_on_c, 9, 36, 127
4, 38375, Note_on_c, 9, 40, 127
4, 38384, Note_on_c, 9, 40, 0
4, 38385, Note_on_c, 9, 62, 0
4, 38386, Note_on_c, 9, 36, 0
4, 38402, Note_on_c, 9, 62, 127
4, 38402, Note_on_c, 9, 40, 127
4, 38409, Note_on_c, 9, 40, 0
4, 38410, Note_on_c, 9, 62, 0
4, 38428, Note_on_c, 9, 49, 127
4, 38428, Note_on_c, 9, 42, 127
4, 38429, Note_on_c, 9, 36, 127
4, 38439, Note_on_c, 9, 42, 0
4, 38458, Note_on_c, 9, 49, 0
4, 38481, Note_on_c, 9, 42, 127
4, 38482, Note_on_c, 9, 36, 0
4, 38496, Note_on_c, 9, 42, 0
4, 38535, Note_on_c, 9, 40, 127
4, 38535, Note_on_c, 9, 42, 127
4, 38547, Note_on_c, 9, 42, 0
4, 38588, Note_on_c, 9, 42, 127
4, 38588, Note_on_c, 9, 36, 127
4, 38590, Note_on_c, 9, 40, 0
4, 38598, Note_on_c, 9, 42, 0
4, 38609, Note_on_c, 9, 36, 0
4, 38641, Note_on_c, 9, 42, 127
4, 38642, Note_on_c, 9, 36, 127
4, 38655, Note_on_c, 9, 42, 0
4, 38695, Note_on_c, 9, 42, 127
4, 38699, Note_on_c, 9, 36, 0
4, 38705, Note_on_c, 9, 42, 0
4, 38721, Note_on_c, 9, 36, 127
4, 38748, Note_on_c, 9, 40, 127
4, 38748, Note_on_c, 9, 42, 127
4, 38759, Note_on_c, 9, 42, 0
4, 38769, Note_on_c, 9, 36, 0
4, 38802, Note_on_c, 9, 46, 127
4, 38802, Note_on_c, 9, 36, 127
4, 38812, Note_on_c, 9, 40, 0
4, 38843, Note_on_c, 9, 46, 0
4, 38855, Note_on_c, 9, 36, 0
4, 38856, Note_on_c, 9, 42, 127
4, 38868, Note_on_c, 9, 42, 0
4, 38908, Note_on_c, 9, 42, 127
4, 38919, Note_on_c, 9, 42, 0
4, 38962, Note_on_c, 9, 40, 127
4, 38962, Note_on_c, 9, 42, 127
4, 38977, Note_on_c, 9, 42, 0
4, 39015, Note_on_c, 9, 42, 127
4, 39015, Note_on_c, 9, 36, 127
4, 39017, Note_on_c, 9, 40, 0
4, 39028, Note_on_c, 9, 42, 0
4, 39032, Note_on_c, 9, 36, 0
4, 39068, Note_on_c, 9, 42, 127
4, 39069, Note_on_c, 9, 36, 127
4, 39084, Note_on_c, 9, 42, 0
4, 39116, Note_on_c, 9, 36, 0
4, 39122, Note_on_c, 9, 42, 127
4, 39134, Note_on_c, 9, 42, 0
4, 39148, Note_on_c, 9, 36, 127
4, 39175, Note_on_c, 9, 40, 127
4, 39175, Note_on_c, 9, 42, 127
4, 39191, Note_on_c, 9, 42, 0
4, 39194, Note_on_c, 9, 36, 0
4, 39229, Note_on_c, 9, 46, 127
4, 39229, Note_on_c, 9, 36, 127
4, 39232, Note_on_c, 9, 40, 0
4, 39267, Note_on_c, 9, 46, 0
4, 39282, Note_on_c, 9, 42, 127
4, 39284, Note_on_c, 9, 36, 0
4, 39297, Note_on_c, 9, 42, 0
4, 39335, Note_on_c, 9, 42, 127
4, 39349, Note_on_c, 9, 42, 0
4, 39389, Note_on_c, 9, 40, 127
4, 39389, Note_on_c, 9, 42, 127
4, 39405, Note_on_c, 9, 42, 0
4, 39428, Note_on_c, 9, 40, 0
4, 39442, Note_on_c, 9, 42, 127
4, 39442, Note_on_c, 9, 36, 127
4, 39456, Note_on_c, 9, 42, 0
4, 39460, Note_on_c, 9, 36, 0
4, 39495, Note_on_c, 9, 42, 127
4, 39496, Note_on_c, 9, 36, 127
4, 39514, Note_on_c, 9, 42, 0
4, 39544, Note_on_c, 9, 36, 0
4, 39549, Note_on_c, 9, 42, 127
4, 39565, Note_on_c, 9, 42, 0
4, 39575, Note_on_c, 9, 36, 127
4, 39602, Note_on_c, 9, 40, 127
4, 39602, Note_on_c, 9, 42, 127
4, 39615, Note_on_c, 9, 36, 0
4, 39621, Note_on_c, 9, 42, 0
4, 39656, Note_on_c, 9, 46, 127
4, 39656, Note_on_c, 9, 36, 127
4, 39664, Note_on_c, 9, 40, 0
4, 39702, Note_on_c, 9, 46, 0
4, 39707, Note_on_c, 9, 36, 0
4, 39709, Note_on_c, 9, 42, 127
4, 39733, Note_on_c, 9, 42, 0
4, 39762, Note_on_c, 9, 42, 127
4, 39778, Note_on_c, 9, 42, 0
4, 39816, Note_on_c, 9, 40, 127
4, 39816, Note_on_c, 9, 42, 127
4, 39832, Note_on_c, 9, 42, 0
4, 39862, Note_on_c, 9, 40, 0
4, 39869, Note_on_c, 9, 42, 127
4, 39869, Note_on_c, 9, 36, 127
4, 39882, Note_on_c, 9, 42, 0
4, 39889, Note_on_c, 9, 36, 0
4, 39922, Note_on_c, 9, 42, 127
4, 39923, Note_on_c, 9, 36, 127
4, 39941, Note_on_c, 9, 42, 0
4, 39971, Note_on_c, 9, 36, 0
4, 39976, Note_on_c, 9, 42, 127
4, 39992, Note_on_c, 9, 42, 0
4, 40002, Note_on_c, 9, 36, 127
4, 40029, Note_on_c, 9, 40, 127
4, 40029, Note_on_c, 9, 42, 127
4, 40044, Note_on_c, 9, 36, 0
4, 40047, Note_on_c, 9, 42, 0
4, 40056, Note_on_c, 9, 40, 127
4, 40057, Note_on_c, 9, 40, 0
4, 40083, Note_on_c, 9, 40, 127
4, 40083, Note_on_c, 9, 46, 127
4, 40083, Note_on_c, 9, 36, 127
4, 40084, Note_on_c, 9, 40, 0
4, 40096, Note_on_c, 9, 40, 0
4, 40106, Note_on_c, 9, 36, 0
4, 40119, Note_on_c, 9, 46, 0
4, 40136, Note_on_c, 9, 49, 127
4, 40136, Note_on_c, 9, 42, 127
4, 40137, Note_on_c, 9, 36, 127
4, 40146, Note_on_c, 9, 49, 0
4, 40147, Note_on_c, 9, 42, 0
4, 40189, Note_on_c, 9, 42, 127
4, 40190, Note_on_c, 9, 36, 0
4, 40204, Note_on_c, 9, 42, 0
4, 40243, Note_on_c, 9, 40, 127
4, 40243, Note_on_c, 9, 42, 127
4, 40255, Note_on_c, 9, 42, 0
4, 40296, Note_on_c, 9, 42, 127
4, 40296, Note_on_c, 9, 36, 127
4, 40298, Note_on_c, 9, 40, 0
4, 40306, Note_on_c, 9, 42, 0
4, 40317, Note_on_c, 9, 36, 0
4, 40349, Note_on_c, 9, 42, 127
4, 40350, Note_on_c, 9, 36, 127
4, 40363, Note_on_c, 9, 42, 0
4, 40403, Note_on_c, 9, 42, 127
4, 40408, Note_on_c, 9, 36, 0
4, 40413, Note_on_c, 9, 42, 0
4, 40429, Note_on_c, 9, 36, 127
4, 40456, Note_on_c, 9, 40, 127
4, 40456, Note_on_c, 9, 42, 127
4, 40467, Note_on_c, 9, 42, 0
4, 40477, Note_on_c, 9, 36, 0
4, 40510, Note_on_c, 9, 46, 127
4, 40510, Note_on_c, 9, 36, 127
4, 40520, Note_on_c, 9, 40, 0
4, 40551, Note_on_c, 9, 46, 0
4, 40563, Note_on_c, 9, 36, 0
4, 40564, Note_on_c, 9, 42, 127
4, 40576, Note_on_c, 9, 42, 0
4, 40616, Note_on_c, 9, 42, 127
4, 40627, Note_on_c, 9, 42, 0
4, 40670, Note_on_c, 9, 40, 127
4, 40670, Note_on_c, 9, 42, 127
4, 40685, Note_on_c, 9, 42, 0
4, 40723, Note_on_c, 9, 42, 127
4, 40723, Note_on_c, 9, 36, 127
4, 40725, Note_on_c, 9, 40, 0
4, 40736, Note_on_c, 9, 42, 0
4, 40740, Note_on_c, 9, 36, 0
4, 40776, Note_on_c, 9, 42, 127
4, 40777, Note_on_c, 9, 36, 127
4, 40792, Note_on_c, 9, 42, 0
4, 40824, Note_on_c, 9, 36, 0
4, 40830, Note_on_c, 9, 42, 127
4, 40842, Note_on_c, 9, 42, 0
4, 40856, Note_on_c, 9, 36, 127
4, 40883, Note_on_c, 9, 40, 127
4, 40883, Note_on_c, 9, 42, 127
4, 40899, Note_on_c, 9, 42, 0
4, 40902, Note_on_c, 9, 36, 0
4, 40937, Note_on_c, 9, 46, 127
4, 40937, Note_on_c, 9, 36, 127
4, 40940, Note_on_c, 9, 40, 0
4, 40976, Note_on_c, 9, 46, 0
4, 40990, Note_on_c, 9, 42, 127
4, 40992, Note_on_c, 9, 36, 0
4, 41005, Note_on_c, 9, 42, 0
4, 41043, Note_on_c, 9, 42, 127
4, 41057, Note_on_c, 9, 42, 0
4, 41097, Note_on_c, 9, 40, 127
4, 41097, Note_on_c, 9, 42, 127
4, 41113, Note_on_c, 9, 42, 0
4, 41136, Note_on_c, 9, 40, 0
4, 41150, Note_on_c, 9, 42, 127
4, 41150, Note_on_c, 9, 36, 127
4, 41164, Note_on_c, 9, 42, 0
4, 41168, Note_on_c, 9, 36, 0
4, 41203, Note_on_c, 9, 42, 127
4, 41204, Note_on_c, 9, 36, 127
4, 41222, Note_on_c, 9, 42, 0
4, 41252, Note_on_c, 9, 36, 0
4, 41257, Note_on_c, 9, 42, 127
4, 41273, Note_on_c, 9, 42, 0
4, 41284, Note_on_c, 9, 36, 127
4, 41310, Note_on_c, 9, 40, 127
4, 41310, Note_on_c, 9, 42, 127
4, 41324, Note_on_c, 9, 36, 0
4, 41329, Note_on_c, 9, 42, 0
4, 41364, Note_on_c, 9, 46, 127
4, 41364, Note_on_c, 9, 36, 127
4, 41372, Note_on_c, 9, 40, 0
4, 41410, Note_on_c, 9, 46, 0
4, 41415, Note_on_c, 9, 36, 0
4, 41417, Note_on_c, 9, 42, 127
4, 41441, Note_on_c, 9, 42, 0
4, 41470, Note_on_c, 9, 50, 127
4, 41470, Note_on_c, 9, 42, 127
4, 41481, Note_on_c, 9, 50, 0
4, 41486, Note_on_c, 9, 42, 0
4, 41524, Note_on_c, 9, 40, 127
4, 41524, Note_on_c, 9, 42, 127
4, 41540, Note_on_c, 9, 42, 0
4, 41550, Note_on_c, 9, 47, 127
4, 41561, Note_on_c, 9, 47, 0
4, 41570, Note_on_c, 9, 40, 0
4, 41577, Note_on_c, 9, 42, 127
4, 41577, Note_on_c, 9, 36, 127
4, 41590, Note_on_c, 9, 42, 0
4, 41597, Note_on_c, 9, 36, 0
4, 41630, Note_on_c, 9, 50, 127
4, 41631, Note_on_c, 9, 42, 127
4, 41631, Note_on_c, 9, 36, 127
4, 41640, Note_on_c, 9, 50, 0
4, 41649, Note_on_c, 9, 42, 0
4, 41679, Note_on_c, 9, 36, 0
4, 41684, Note_on_c, 9, 42, 127
4, 41700, Note_on_c, 9, 42, 0
4, 41711, Note_on_c, 9, 47, 127
4, 41711, Note_on_c, 9, 36, 127
4, 41722, Note_on_c, 9, 47, 0
4, 41737, Note_on_c, 9, 40, 127
4, 41737, Note_on_c, 9, 42, 127
4, 41752, Note_on_c, 9, 36, 0
4, 41755, Note_on_c, 9, 42, 0
4, 41791, Note_on_c, 9, 43, 127
4, 41791, Note_on_c, 9, 46, 127
4, 41791, Note_on_c, 9, 36, 127
4, 41793, Note_on_c, 9, 40, 0
4, 41796, Note_on_c, 9, 43, 0
4, 41814, Note_on_c, 9, 36, 0
4, 41817, Note_on_c, 9, 43, 127
4, 41826, Note_on_c, 9, 43, 0
4, 41827, Note_on_c, 9, 46, 0
4, 41844, Note_on_c, 9, 49, 127
4, 41844, Note_on_c, 9, 42, 127
4, 41845, Note_on_c, 9, 36, 127
4, 41852, Note_on_c, 9, 49, 0
4, 41855, Note_on_c, 9, 42, 0
4, 41897, Note_on_c, 9, 42, 127
4, 41898, Note_on_c, 9, 36, 0
4, 41912, Note_on_c, 9, 42, 0
4, 41951, Note_on_c, 9, 40, 127
4, 41951, Note_on_c, 9, 42, 127
4, 41963, Note_on_c, 9, 42, 0
4, 42004, Note_on_c, 9, 42, 127
4, 42004, Note_on_c, 9, 36, 127
4, 42006, Note_on_c, 9, 40, 0
4, 42014, Note_on_c, 9, 42, 0
4, 42025, Note_on_c, 9, 36, 0
4, 42057, Note_on_c, 9, 42, 127
4, 42058, Note_on_c, 9, 36, 127
4, 42071, Note_on_c, 9, 42, 0
4, 42111, Note_on_c, 9, 42, 127
4, 42116, Note_on_c, 9, 36, 0
4, 42121, Note_on_c, 9, 42, 0
4, 42138, Note_on_c, 9, 36, 127
4, 42164, Note_on_c, 9, 40, 127
4, 42164, Note_on_c, 9, 42, 127
4, 42175, Note_on_c, 9, 42, 0
4, 42185, Note_on_c, 9, 36, 0
4, 42218, Note_on_c, 9, 46, 127
4, 42218, Note_on_c, 9, 36, 127
4, 42228, Note_on_c, 9, 40, 0
4, 42259, Note_on_c, 9, 46, 0
4, 42271, Note_on_c, 9, 36, 0
4, 42272, Note_on_c, 9, 42, 127
4, 42284, Note_on_c, 9, 42, 0
4, 42324, Note_on_c, 9, 42, 127
4, 42335, Note_on_c, 9, 42, 0
4, 42378, Note_on_c, 9, 40, 127
4, 42378, Note_on_c, 9, 42, 127
4, 42393, Note_on_c, 9, 42, 0
4, 42431, Note_on_c, 9, 42, 127
4, 42431, Note_on_c, 9, 36, 127
4, 42433, Note_on_c, 9, 40, 0
4, 42444, Note_on_c, 9, 42, 0
4, 42448, Note_on_c, 9, 36, 0
4, 42484, Note_on_c, 9, 42, 127
4, 42485, Note_on_c, 9, 36, 127
4, 42500, Note_on_c, 9, 42, 0
4, 42532, Note_on_c, 9, 36, 0
4, 42538, Note_on_c, 9, 42, 127
4, 42550, Note_on_c, 9, 42, 0
4, 42565, Note_on_c, 9, 36, 127
4, 42591, Note_on_c, 9, 40, 127
4, 42591, Note_on_c, 9, 42, 127
4, 42607, Note_on_c, 9, 42, 0
4, 42610, Note_on_c, 9, 36, 0
4, 42645, Note_on_c, 9, 46, 127
4, 42645, Note_on_c, 9, 36, 127
4, 42648, Note_on_c, 9, 40, 0
4, 42684, Note_on_c, 9, 46, 0
4, 42698, Note_on_c, 9, 42, 127
4, 42700, Note_on_c, 9, 36, 0
4, 42713, Note_on_c, 9, 42, 0
4, 42751, Note_on_c, 9, 42, 127
4, 42765, Note_on_c, 9, 42, 0
4, 42805, Note_on_c, 9, 40, 127
4, 42805, Note_on_c, 9, 42, 127
4, 42821, Note_on_c, 9, 42, 0
4, 42844, Note_on_c, 9, 40, 0
4, 42858, Note_on_c, 9, 42, 127
4, 42858, Note_on_c, 9, 36, 127
4, 42872, Note_on_c, 9, 42, 0
4, 42876, Note_on_c, 9, 36, 0
4, 42911, Note_on_c, 9, 42, 127
4, 42912, Note_on_c, 9, 36, 127
4, 42930, Note_on_c, 9, 42, 0
4, 42960, Note_on_c, 9, 36, 0
4, 42965, Note_on_c, 9, 42, 127
4, 42981, Note_on_c, 9, 42, 0
4, 42992, Note_on_c, 9, 36, 127
4, 43018, Note_on_c, 9, 40, 127
4, 43018, Note_on_c, 9, 42, 127
4, 43032, Note_on_c, 9, 36, 0
4, 43037, Note_on_c, 9, 42, 0
4, 43072, Note_on_c, 9, 46, 127
4, 43072, Note_on_c, 9, 36, 127
4, 43080, Note_on_c, 9, 40, 0
4, 43118, Note_on_c, 9, 46, 0
4, 43123, Note_on_c, 9, 36, 0
4, 43125, Note_on_c, 9, 42, 127
4, 43149, Note_on_c, 9, 42, 0
4, 43178, Note_on_c, 9, 42, 127
4, 43194, Note_on_c, 9, 42, 0
4, 43232, Note_on_c, 9, 40, 127
4, 43232, Note_on_c, 9, 42, 127
4, 43248, Note_on_c, 9, 42, 0
4, 43278, Note_on_c, 9, 40, 0
4, 43285, Note_on_c, 9, 42, 127
4, 43285, Note_on_c, 9, 36, 127
4, 43298, Note_on_c, 9, 42, 0
4, 43305, Note_on_c, 9, 36, 0
4, 43338, Note_on_c, 9, 42, 127
4, 43339, Note_on_c, 9, 36, 127
4, 43357, Note_on_c, 9, 42, 0
4, 43387, Note_on_c, 9, 36, 0
4, 43392, Note_on_c, 9, 42, 127
4, 43408, Note_on_c, 9, 42, 0
4, 43419, Note_on_c, 9, 36, 127
4, 43445, Note_on_c, 9, 40, 127
4, 43445, Note_on_c, 9, 42, 127
4, 43460, Note_on_c, 9, 36, 0
4, 43463, Note_on_c, 9, 42, 0
4, 43472, Note_on_c, 9, 40, 127
4, 43473, Note_on_c, 9, 40, 0
4, 43499, Note_on_c, 9, 40, 127
4, 43499, Note_on_c, 9, 46, 127
4, 43499, Note_on_c, 9, 36, 127
4, 43500, Note_on_c, 9, 40, 0
4, 43512, Note_on_c, 9, 40, 0
4, 43522, Note_on_c, 9, 36, 0
4, 43535, Note_on_c, 9, 46, 0
4, 43552, Note_on_c, 9, 49, 127
4, 43552, Note_on_c, 9, 42, 127
4, 43553, Note_on_c, 9, 36, 127
4, 43562, Note_on_c, 9, 49, 0
4, 43563, Note_on_c, 9, 42, 0
4, 43605, Note_on_c, 9, 42, 127
4, 43606, Note_on_c, 9, 36, 0
4, 43620, Note_on_c, 9, 42, 0
4, 43659, Note_on_c, 9, 40, 127
4, 43659, Note_on_c, 9, 42, 127
4, 43671, Note_on_c, 9, 42, 0
4, 43712, Note_on_c, 9, 42, 127
4, 43712, Note_on_c, 9, 36, 127
4, 43714, Note_on_c, 9, 40, 0
4, 43722, Note_on_c, 9, 42, 0
4, 43733, Note_on_c, 9, 36, 0
4, 43765, Note_on_c, 9, 42, 127
4, 43766, Note_on_c, 9, 36, 127
4, 43779, Note_on_c, 9, 42, 0
4, 43819, Note_on_c, 9, 42, 127
4, 43823, Note_on_c, 9, 36, 0
4, 43829, Note_on_c, 9, 42, 0
4, 43846, Note_on_c, 9, 36, 127
4, 43872, Note_on_c, 9, 40, 127
4, 43872, Note_on_c, 9, 42, 127
4, 43883, Note_on_c, 9, 42, 0
4, 43893, Note_on_c, 9, 36, 0
4, 43926, Note_on_c, 9, 46, 127
4, 43926, Note_on_c, 9, 36, 127
4, 43936, Note_on_c, 9, 40, 0
4, 43967, Note_on_c, 9, 46, 0
4, 43979, Note_on_c, 9, 36, 0
4, 43980, Note_on_c, 9, 42, 127
4, 43992, Note_on_c, 9, 42, 0
4, 44032, Note_on_c, 9, 42, 127
4, 44043, Note_on_c, 9, 42, 0
4, 44086, Note_on_c, 9, 40, 127
4, 44086, Note_on_c, 9, 42, 127
4, 44101, Note_on_c, 9, 42, 0
4, 44139, Note_on_c, 9, 42, 127
4, 44139, Note_on_c, 9, 36, 127
4, 44141, Note_on_c, 9, 40, 0
4, 44152, Note_on_c, 9, 42, 0
4, 44156, Note_on_c, 9, 36, 0
4, 44192, Note_on_c, 9, 42, 127
4, 44193, Note_on_c, 9, 36, 127
4, 44208, Note_on_c, 9, 42, 0
4, 44240, Note_on_c, 9, 36, 0
4, 44246, Note_on_c, 9, 42, 127
4, 44258, Note_on_c, 9, 42, 0
4, 44273, Note_on_c, 9, 36, 127
4, 44299, Note_on_c, 9, 40, 127
4, 44299, Note_on_c, 9, 42, 127
4, 44315, Note_on_c, 9, 42, 0
4, 44318, Note_on_c, 9, 36, 0
4, 44353, Note_on_c, 9, 46, 127
4, 44353, Note_on_c, 9, 36, 127
4, 44356, Note_on_c, 9, 40, 0
4, 44391, Note_on_c, 9, 46, 0
4, 44406, Note_on_c, 9, 42, 127
4, 44408, Note_on_c, 9, 36, 0
4, 44422, Note_on_c, 9, 42, 0
4, 44459, Note_on_c, 9, 42, 127
4, 44473, Note_on_c, 9, 42, 0
4, 44513, Note_on_c, 9, 40, 127
4, 44513, Note_on_c, 9, 42, 127
4, 44529, Note_on_c, 9, 42, 0
4, 44552, Note_on_c, 9, 40, 0
4, 44566, Note_on_c, 9, 42, 127
4, 44566, Note_on_c, 9, 36, 127
4, 44580, Note_on_c, 9, 42, 0
4, 44584, Note_on_c, 9, 36, 0
4, 44619, Note_on_c, 9, 42, 127
4, 44620, Note_on_c, 9, 36, 127
4, 44638, Note_on_c, 9, 42, 0
4, 44668, Note_on_c, 9, 36, 0
4, 44673, Note_on_c, 9, 42, 127
4, 44689, Note_on_c, 9, 42, 0
4, 44700, Note_on_c, 9, 36, 127
4, 44726, Note_on_c, 9, 40, 127
4, 44726, Note_on_c, 9, 42, 127
4, 44740, Note_on_c, 9, 36, 0
4, 44745, Note_on_c, 9, 42, 0
4, 44780, Note_on_c, 9, 46, 127
4, 44780, Note_on_c, 9, 36, 127
4, 44788, Note_on_c, 9, 40, 0
4, 44826, Note_on_c, 9, 46, 0
4, 44831, Note_on_c, 9, 36, 0
4, 44833, Note_on_c, 9, 42, 127
4, 44857, Note_on_c, 9, 42, 0
4, 44886, Note_on_c, 9, 42, 127
4, 44902, Note_on_c, 9, 42, 0
4, 44940, Note_on_c, 9, 40, 127
4, 44940, Note_on_c, 9, 42, 127
4, 44956, Note_on_c, 9, 42, 0
4, 44986, Note_on_c, 9, 40, 0
4, 44993, Note_on_c, 9, 42, 127
4, 44993, Note_on_c, 9, 36, 127
4, 45006, Note_on_c, 9, 42, 0
4, 45013, Note_on_c, 9, 36, 0
4, 45046, Note_on_c, 9, 42, 127
4, 45047, Note_on_c, 9, 36, 127
4, 45065, Note_on_c, 9, 42, 0
4, 45095, Note_on_c, 9, 36, 0
4, 45100, Note_on_c, 9, 42, 127
4, 45116, Note_on_c, 9, 42, 0
4, 45127, Note_on_c, 9, 36, 127
4, 45153, Note_on_c, 9, 47, 127
4, 45153, Note_on_c, 9, 40, 127
4, 45154, Note_on_c, 9, 42, 127
4, 45164, Note_on_c, 9, 47, 0
4, 45168, Note_on_c, 9, 36, 0
4, 45171, Note_on_c, 9, 42, 0
4, 45180, Note_on_c, 9, 47, 127
4, 45190, Note_on_c, 9, 47, 0
4, 45207, Note_on_c, 9, 43, 127
4, 45207, Note_on_c, 9, 46, 127
4, 45207, Note_on_c, 9, 36, 127
4, 45209, Note_on_c, 9, 40, 0
4, 45217, Note_on_c, 9, 43, 0
4, 45230, Note_on_c, 9, 36, 0
4, 45233, Note_on_c, 9, 43, 127
4, 45243, Note_on_c, 9, 46, 0
4, 45244, Note_on_c, 9, 43, 0
4, 45260, Note_on_c, 9, 49, 127
4, 45261, Note_on_c, 9, 42, 127
4, 45261, Note_on_c, 9, 36, 127
4, 45270, Note_on_c, 9, 49, 0
4, 45271, Note_on_c, 9, 42, 0
4, 45313, Note_on_c, 9, 42, 127
4, 45314, Note_on_c, 9, 36, 0
4, 45328, Note_on_c, 9, 42, 0
4, 45367, Note_on_c, 9, 40, 127
4, 45367, Note_on_c, 9, 42, 127
4, 45379, Note_on_c, 9, 42, 0
4, 45420, Note_on_c, 9, 42, 127
4, 45420, Note_on_c, 9, 36, 127
4, 45422, Note_on_c, 9, 40, 0
4, 45430, Note_on_c, 9, 42, 0
4, 45441, Note_on_c, 9, 36, 0
4, 45473, Note_on_c, 9, 42, 127
4, 45474, Note_on_c, 9, 36, 127
4, 45487, Note_on_c, 9, 42, 0
4, 45527, Note_on_c, 9, 42, 127
4, 45532, Note_on_c, 9, 36, 0
4, 45537, Note_on_c, 9, 42, 0
4, 45554, Note_on_c, 9, 36, 127
4, 45580, Note_on_c, 9, 40, 127
4, 45580, Note_on_c, 9, 42, 127
4, 45591, Note_on_c, 9, 42, 0
4, 45601, Note_on_c, 9, 36, 0
4, 45634, Note_on_c, 9, 46, 127
4, 45634, Note_on_c, 9, 36, 127
4, 45644, Note_on_c, 9, 40, 0
4, 45675, Note_on_c, 9, 46, 0
4, 45687, Note_on_c, 9, 36, 0
4, 45688, Note_on_c, 9, 42, 127
4, 45700, Note_on_c, 9, 42, 0
4, 45740, Note_on_c, 9, 42, 127
4, 45751, Note_on_c, 9, 42, 0
4, 45794, Note_on_c, 9, 40, 127
4, 45794, Note_on_c, 9, 42, 127
4, 45809, Note_on_c, 9, 42, 0
4, 45847, Note_on_c, 9, 42, 127
4, 45847, Note_on_c, 9, 36, 127
4, 45849, Note_on_c, 9, 40, 0
4, 45860, Note_on_c, 9, 42, 0
4, 45864, Note_on_c, 9, 36, 0
4, 45900, Note_on_c, 9, 42, 127
4, 45901, Note_on_c, 9, 36, 127
4, 45916, Note_on_c, 9, 42, 0
4, 45948, Note_on_c, 9, 36, 0
4, 45954, Note_on_c, 9, 42, 127
4, 45966, Note_on_c, 9, 42, 0
4, 45981, Note_on_c, 9, 36, 127
4, 46007, Note_on_c, 9, 40, 127
4, 46007, Note_on_c, 9, 42, 127
4, 46023, Note_on_c, 9, 42, 0
4, 46026, Note_on_c, 9, 36, 0
4, 46061, Note_on_c, 9, 46, 127
4, 46061, Note_on_c, 9, 36, 127
4, 46064, Note_on_c, 9, 40, 0
4, 46100, Note_on_c, 9, 46, 0
4, 46114, Note_on_c, 9, 42, 127
4, 46116, Note_on_c, 9, 36, 0
4, 46130, Note_on_c, 9, 42, 0
4, 46167, Note_on_c, 9, 42, 127
4, 46181, Note_on_c, 9, 42, 0
4, 46221, Note_on_c, 9, 40, 127
4, 46221, Note_on_c, 9, 42, 127
4, 46237, Note_on_c, 9, 42, 0
4, 46260, Note_on_c, 9, 40, 0
4, 46274, Note_on_c, 9, 42, 127
4, 46274, Note_on_c, 9, 36, 127
4, 46289, Note_on_c, 9, 42, 0
4, 46292, Note_on_c, 9, 36, 0
4, 46328, Note_on_c, 9, 42, 127
4, 46328, Note_on_c, 9, 36, 127
4, 46346, Note_on_c, 9, 42, 0
4, 46376, Note_on_c, 9, 36, 0
4, 46381, Note_on_c, 9, 42, 127
4, 46397, Note_on_c, 9, 42, 0
4, 46408, Note_on_c, 9, 36, 127
4, 46434, Note_on_c, 9, 40, 127
4, 46434, Note_on_c, 9, 42, 127
4, 46448, Note_on_c, 9, 36, 0
4, 46453, Note_on_c, 9, 42, 0
4, 46488, Note_on_c, 9, 46, 127
4, 46488, Note_on_c, 9, 36, 127
4, 46496, Note_on_c, 9, 40, 0
4, 46534, Note_on_c, 9, 46, 0
4, 46539, Note_on_c, 9, 36, 0
4, 46541, Note_on_c, 9, 42, 127
4, 46565, Note_on_c, 9, 42, 0
4, 46594, Note_on_c, 9, 42, 127
4, 46610, Note_on_c, 9, 42, 0
4, 46648, Note_on_c, 9, 40, 127
4, 46648, Note_on_c, 9, 42, 127
4, 46664, Note_on_c, 9, 42, 0
4, 46694, Note_on_c, 9, 40, 0
4, 46701, Note_on_c, 9, 42, 127
4, 46701, Note_on_c, 9, 36, 127
4, 46714, Note_on_c, 9, 42, 0
4, 46721, Note_on_c, 9, 36, 0
4, 46754, Note_on_c, 9, 42, 127
4, 46755, Note_on_c, 9, 36, 127
4, 46773, Note_on_c, 9, 42, 0
4, 46803, Note_on_c, 9, 36, 0
4, 46808, Note_on_c, 9, 42, 127
4, 46825, Note_on_c, 9, 42, 0
4, 46835, Note_on_c, 9, 36, 127
4, 46861, Note_on_c, 9, 40, 127
4, 46861, Note_on_c, 9, 42, 127
4, 46876, Note_on_c, 9, 36, 0
4, 46879, Note_on_c, 9, 42, 0
4, 46915, Note_on_c, 9, 40, 127
4, 46915, Note_on_c, 9, 46, 127
4, 46915, Note_on_c, 9, 36, 127
4, 46916, Note_on_c, 9, 40, 0
4, 46927, Note_on_c, 9, 40, 0
4, 46938, Note_on_c, 9, 36, 0
4, 46951, Note_on_c, 9, 46, 0
4, 46968, Note_on_c, 9, 49, 127
4, 46969, Note_on_c, 9, 42, 127
4, 46969, Note_on_c, 9, 36, 127
4, 46979, Note_on_c, 9, 42, 0
4, 46979, Note_on_c, 9, 49, 0
4, 47021, Note_on_c, 9, 42, 127
4, 47022, Note_on_c, 9, 36, 0
4, 47036, Note_on_c, 9, 42, 0
4, 47075, Note_on_c, 9, 40, 127
4, 47075, Note_on_c, 9, 42, 127
4, 47087, Note_on_c, 9, 42, 0
4, 47128, Note_on_c, 9, 42, 127
4, 47128, Note_on_c, 9, 36, 127
4, 47130, Note_on_c, 9, 40, 0
4, 47138, Note_on_c, 9, 42, 0
4, 47149, Note_on_c, 9, 36, 0
4, 47182, Note_on_c, 9, 42, 127
4, 47182, Note_on_c, 9, 36, 127
4, 47195, Note_on_c, 9, 42, 0
4, 47235, Note_on_c, 9, 42, 127
4, 47240, Note_on_c, 9, 36, 0
4, 47245, Note_on_c, 9, 42, 0
4, 47262, Note_on_c, 9, 36, 127
4, 47288, Note_on_c, 9, 40, 127
4, 47288, Note_on_c, 9, 42, 127
4, 47299, Note_on_c, 9, 42, 0
4, 47309, Note_on_c, 9, 36, 0
4, 47342, Note_on_c, 9, 46, 127
4, 47342, Note_on_c, 9, 36, 127
4, 47352, Note_on_c, 9, 40, 0
4, 47383, Note_on_c, 9, 46, 0
4, 47395, Note_on_c, 9, 36, 0
4, 47396, Note_on_c, 9, 42, 127
4, 47408, Note_on_c, 9, 42, 0
4, 47448, Note_on_c, 9, 42, 127
4, 47459, Note_on_c, 9, 42, 0
4, 47502, Note_on_c, 9, 40, 127
4, 47502, Note_on_c, 9, 42, 127
4, 47517, Note_on_c, 9, 42, 0
4, 47555, Note_on_c, 9, 42, 127
4, 47555, Note_on_c, 9, 36, 127
4, 47557, Note_on_c, 9, 40, 0
4, 47568, Note_on_c, 9, 42, 0
4, 47572, Note_on_c, 9, 36, 0
4, 47608, Note_on_c, 9, 42, 127
4, 47609, Note_on_c, 9, 36, 127
4, 47624, Note_on_c, 9, 42, 0
4, 47656, Note_on_c, 9, 36, 0
4, 47662, Note_on_c, 9, 42, 127
4, 47674, Note_on_c, 9, 42, 0
4, 47689, Note_on_c, 9, 36, 127
4, 47715, Note_on_c, 9, 40, 127
4, 47715, Note_on_c, 9, 42, 127
4, 47731, Note_on_c, 9, 42, 0
4, 47734, Note_on_c, 9, 36, 0
4, 47769, Note_on_c, 9, 46, 127
4, 47769, Note_on_c, 9, 36, 127
4, 47772, Note_on_c, 9, 40, 0
4, 47808, Note_on_c, 9, 46, 0
4, 47822, Note_on_c, 9, 42, 127
4, 47824, Note_on_c, 9, 36, 0
4, 47838, Note_on_c, 9, 42, 0
4, 47875, Note_on_c, 9, 42, 127
4, 47889, Note_on_c, 9, 42, 0
4, 47929, Note_on_c, 9, 40, 127
4, 47929, Note_on_c, 9, 42, 127
4, 47945, Note_on_c, 9, 42, 0
4, 47968, Note_on_c, 9, 40, 0
4, 47982, Note_on_c, 9, 42, 127
4, 47982, Note_on_c, 9, 36, 127
4, 47997, Note_on_c, 9, 42, 0
4, 48000, Note_on_c, 9, 36, 0
4, 48036, Note_on_c, 9, 42, 127
4, 48036, Note_on_c, 9, 36, 127
4, 48054, Note_on_c, 9, 42, 0
4, 48084, Note_on_c, 9, 36, 0
4, 48089, Note_on_c, 9, 42, 127
4, 48106, Note_on_c, 9, 42, 0
4, 48116, Note_on_c, 9, 36, 127
4, 48142, Note_on_c, 9, 40, 127
4, 48142, Note_on_c, 9, 42, 127
4, 48156, Note_on_c, 9, 36, 0
4, 48161, Note_on_c, 9, 42, 0
4, 48196, Note_on_c, 9, 46, 127
4, 48196, Note_on_c, 9, 36, 127
4, 48204, Note_on_c, 9, 40, 0
4, 48242, Note_on_c, 9, 46, 0
4, 48247, Note_on_c, 9, 36, 0
4, 48249, Note_on_c, 9, 42, 127
4, 48273, Note_on_c, 9, 42, 0
4, 48302, Note_on_c, 9, 50, 127
4, 48303, Note_on_c, 9, 42, 127
4, 48315, Note_on_c, 9, 50, 0
4, 48318, Note_on_c, 9, 42, 0
4, 48356, Note_on_c, 9, 40, 127
4, 48356, Note_on_c, 9, 42, 127
4, 48372, Note_on_c, 9, 42, 0
4, 48382, Note_on_c, 9, 47, 127
4, 48383, Note_on_c, 9, 45, 127
4, 48388, Note_on_c, 9, 45, 0
4, 48395, Note_on_c, 9, 47, 0
4, 48402, Note_on_c, 9, 40, 0
4, 48409, Note_on_c, 9, 42, 127
4, 48409, Note_on_c, 9, 36, 127
4, 48422, Note_on_c, 9, 42, 0
4, 48429, Note_on_c, 9, 36, 0
4, 48463, Note_on_c, 9, 50, 127
4, 48463, Note_on_c, 9, 42, 127
4, 48463, Note_on_c, 9, 36, 127
4, 48475, Note_on_c, 9, 50, 0
4, 48481, Note_on_c, 9, 42, 0
4, 48511, Note_on_c, 9, 36, 0
4, 48516, Note_on_c, 9, 42, 127
4, 48533, Note_on_c, 9, 42, 0
4, 48543, Note_on_c, 9, 47, 127
4, 48543, Note_on_c, 9, 36, 127
4, 48551, Note_on_c, 9, 47, 0
4, 48569, Note_on_c, 9, 40, 127
4, 48569, Note_on_c, 9, 42, 127
4, 48584, Note_on_c, 9, 36, 0
4, 48587, Note_on_c, 9, 42, 0
4, 48623, Note_on_c, 9, 43, 127
4, 48623, Note_on_c, 9, 46, 127
4, 48623, Note_on_c, 9, 36, 127
4, 48625, Note_on_c, 9, 40, 0
4, 48632, Note_on_c, 9, 43, 0
4, 48646, Note_on_c, 9, 36, 0
4, 48649, Note_on_c, 9, 43, 127
4, 48649, Note_on_c, 9, 49, 127
4, 48655, Note_on_c, 9, 43, 0
4, 48659, Note_on_c, 9, 49, 0
4, 48659, Note_on_c, 9, 46, 0
4, 48676, Note_on_c, 9, 42, 127
4, 48677, Note_on_c, 9, 36, 127
4, 48687, Note_on_c, 9, 42, 0
4, 48729, Note_on_c, 9, 42, 127
4, 48730, Note_on_c, 9, 36, 0
4, 48744, Note_on_c, 9, 42, 0
4, 48783, Note_on_c, 9, 40, 127
4, 48783, Note_on_c, 9, 42, 127
4, 48795, Note_on_c, 9, 42, 0
4, 48836, Note_on_c, 9, 42, 127
4, 48836, Note_on_c, 9, 36, 127
4, 48838, Note_on_c, 9, 40, 0
4, 48846, Note_on_c, 9, 42, 0
4, 48857, Note_on_c, 9, 36, 0
4, 48890, Note_on_c, 9, 42, 127
4, 48890, Note_on_c, 9, 36, 127
4, 48903, Note_on_c, 9, 42, 0
4, 48943, Note_on_c, 9, 42, 127
4, 48947, Note_on_c, 9, 36, 0
4, 48953, Note_on_c, 9, 42, 0
4, 48970, Note_on_c, 9, 36, 127
4, 48996, Note_on_c, 9, 40, 127
4, 48996, Note_on_c, 9, 42, 127
4, 49007, Note_on_c, 9, 42, 0
4, 49017, Note_on_c, 9, 36, 0
4, 49050, Note_on_c, 9, 46, 127
4, 49050, Note_on_c, 9, 36, 127
4, 49060, Note_on_c, 9, 40, 0
4, 49091, Note_on_c, 9, 46, 0
4, 49103, Note_on_c, 9, 36, 0
4, 49104, Note_on_c, 9, 42, 127
4, 49116, Note_on_c, 9, 42, 0
4, 49156, Note_on_c, 9, 42, 127
4, 49167, Note_on_c, 9, 42, 0
4, 49210, Note_on_c, 9, 40, 127
4, 49210, Note_on_c, 9, 42, 127
4, 49225, Note_on_c, 9, 42, 0
4, 49263, Note_on_c, 9, 42, 127
4, 49263, Note_on_c, 9, 36, 127
4, 49265, Note_on_c, 9, 40, 0
4, 49276, Note_on_c, 9, 42, 0
4, 49280, Note_on_c, 9, 36, 0
4, 49317, Note_on_c, 9, 42, 127
4, 49317, Note_on_c, 9, 36, 127
4, 49332, Note_on_c, 9, 42, 0
4, 49364, Note_on_c, 9, 36, 0
4, 49370, Note_on_c, 9, 42, 127
4, 49382, Note_on_c, 9, 42, 0
4, 49397, Note_on_c, 9, 36, 127
4, 49423, Note_on_c, 9, 40, 127
4, 49423, Note_on_c, 9, 42, 127
4, 49439, Note_on_c, 9, 42, 0
4, 49442, Note_on_c, 9, 36, 0
4, 49477, Note_on_c, 9, 46, 127
4, 49477, Note_on_c, 9, 36, 127
4, 49480, Note_on_c, 9, 40, 0
4, 49516, Note_on_c, 9, 46, 0
4, 49530, Note_on_c, 9, 42, 127
4, 49532, Note_on_c, 9, 36, 0
4, 49546, Note_on_c, 9, 42, 0
4, 49583, Note_on_c, 9, 42, 127
4, 49597, Note_on_c, 9, 42, 0
4, 49637, Note_on_c, 9, 40, 127
4, 49637, Note_on_c, 9, 42, 127
4, 49653, Note_on_c, 9, 42, 0
4, 49676, Note_on_c, 9, 40, 0
4, 49690, Note_on_c, 9, 42, 127
4, 49690, Note_on_c, 9, 36, 127
4, 49705, Note_on_c, 9, 42, 0
4, 49708, Note_on_c, 9, 36, 0
4, 49744, Note_on_c, 9, 42, 127
4, 49744, Note_on_c, 9, 36, 127
4, 49762, Note_on_c, 9, 42, 0
4, 49792, Note_on_c, 9, 36, 0
4, 49797, Note_on_c, 9, 42, 127
4, 49814, Note_on_c, 9, 42, 0
4, 49824, Note_on_c, 9, 36, 127
4, 49850, Note_on_c, 9, 40, 127
4, 49850, Note_on_c, 9, 42, 127
4, 49864, Note_on_c, 9, 36, 0
4, 49869, Note_on_c, 9, 42, 0
4, 49904, Note_on_c, 9, 46, 127
4, 49904, Note_on_c, 9, 36, 127
4, 49913, Note_on_c, 9, 40, 0
4, 49950, Note_on_c, 9, 46, 0
4, 49955, Note_on_c, 9, 36, 0
4, 49957, Note_on_c, 9, 42, 127
4, 49981, Note_on_c, 9, 42, 0
4, 50010, Note_on_c, 9, 42, 127
4, 50026, Note_on_c, 9, 42, 0
4, 50064, Note_on_c, 9, 40, 127
4, 50064, Note_on_c, 9, 42, 127
4, 50080, Note_on_c, 9, 42, 0
4, 50110, Note_on_c, 9, 40, 0
4, 50117, Note_on_c, 9, 42, 127
4, 50117, Note_on_c, 9, 36, 127
4, 50130, Note_on_c, 9, 42, 0
4, 50137, Note_on_c, 9, 36, 0
4, 50171, Note_on_c, 9, 50, 127
4, 50171, Note_on_c, 9, 42, 127
4, 50171, Note_on_c, 9, 36, 127
4, 50180, Note_on_c, 9, 50, 0
4, 50189, Note_on_c, 9, 42, 0
4, 50197, Note_on_c, 9, 50, 127
4, 50197, Note_on_c, 9, 50, 127
4, 50198, Note_on_c, 9, 50, 0
4, 50209, Note_on_c, 9, 50, 0
4, 50219, Note_on_c, 9, 36, 0
4, 50224, Note_on_c, 9, 50, 127
4, 50224, Note_on_c, 9, 50, 127
4, 50224, Note_on_c, 9, 42, 127
4, 50225, Note_on_c, 9, 50, 0
4, 50234, Note_on_c, 9, 50, 0
4, 50241, Note_on_c, 9, 42, 0
4, 50251, Note_on_c, 9, 50, 127
4, 50251, Note_on_c, 9, 36, 127
4, 50258, Note_on_c, 9, 50, 0
4, 50277, Note_on_c, 9, 47, 127
4, 50277, Note_on_c, 9, 40, 127
4, 50278, Note_on_c, 9, 42, 127
4, 50286, Note_on_c, 9, 47, 0
4, 50292, Note_on_c, 9, 36, 0
4, 50295, Note_on_c, 9, 42, 0
4, 50304, Note_on_c, 9, 47, 127
4, 50305, Note_on_c, 9, 47, 127
4, 50306, Note_on_c, 9, 47, 0
4, 50313, Note_on_c, 9, 47, 0
4, 50331, Note_on_c, 9, 47, 127
4, 50331, Note_on_c, 9, 47, 127
4, 50331, Note_on_c, 9, 46, 127
4, 50331, Note_on_c, 9, 36, 127
4, 50332, Note_on_c, 9, 47, 0
4, 50333, Note_on_c, 9, 40, 0
4, 50340, Note_on_c, 9, 47, 0
4, 50354, Note_on_c, 9, 36, 0
4, 50357, Note_on_c, 9, 43, 127
4, 50366, Note_on_c, 9, 43, 0
4, 50367, Note_on_c, 9, 46, 0
4, 50384, Note_on_c, 9, 49, 127
4, 50385, Note_on_c, 9, 42, 127
4, 50385, Note_on_c, 9, 36, 127
4, 50393, Note_on_c, 9, 49, 0
4, 50395, Note_on_c, 9, 42, 0
4, 50437, Note_on_c, 9, 42, 127
4, 50438, Note_on_c, 9, 36, 0
4, 50452, Note_on_c, 9, 42, 0
4, 50491, Note_on_c, 9, 40, 127
4, 50491, Note_on_c, 9, 42, 127
4, 50503, Note_on_c, 9, 42, 0
4, 50544, Note_on_c, 9, 42, 127
4, 50544, Note_on_c, 9, 36, 127
4, 50546, Note_on_c, 9, 40, 0
4, 50554, Note_on_c, 9, 42, 0
4, 50565, Note_on_c, 9, 36, 0
4, 50598, Note_on_c, 9, 42, 127
4, 50598, Note_on_c, 9, 36, 127
4, 50611, Note_on_c, 9, 42, 0
4, 50651, Note_on_c, 9, 42, 127
4, 50656, Note_on_c, 9, 36, 0
4, 50661, Note_on_c, 9, 42, 0
4, 50678, Note_on_c, 9, 36, 127
4, 50704, Note_on_c, 9, 40, 127
4, 50704, Note_on_c, 9, 42, 127
4, 50715, Note_on_c, 9, 42, 0
4, 50725, Note_on_c, 9, 36, 0
4, 50758, Note_on_c, 9, 46, 127
4, 50758, Note_on_c, 9, 36, 127
4, 50768, Note_on_c, 9, 40, 0
4, 50799, Note_on_c, 9, 46, 0
4, 50811, Note_on_c, 9, 36, 0
4, 50812, Note_on_c, 9, 42, 127
4, 50824, Note_on_c, 9, 42, 0
4, 50864, Note_on_c, 9, 42, 127
4, 50875, Note_on_c, 9, 42, 0
4, 50918, Note_on_c, 9, 40, 127
4, 50918, Note_on_c, 9, 42, 127
4, 50933, Note_on_c, 9, 42, 0
4, 50971, Note_on_c, 9, 42, 127
4, 50971, Note_on_c, 9, 36, 127
4, 50973, Note_on_c, 9, 40, 0
4, 50984, Note_on_c, 9, 42, 0
4, 50988, Note_on_c, 9, 36, 0
4, 51025, Note_on_c, 9, 42, 127
4, 51025, Note_on_c, 9, 36, 127
4, 51040, Note_on_c, 9, 42, 0
4, 51072, Note_on_c, 9, 36, 0
4, 51078, Note_on_c, 9, 42, 127
4, 51090, Note_on_c, 9, 42, 0
4, 51105, Note_on_c, 9, 36, 127
4, 51131, Note_on_c, 9, 40, 127
4, 51132, Note_on_c, 9, 42, 127
4, 51147, Note_on_c, 9, 42, 0
4, 51150, Note_on_c, 9, 36, 0
4, 51185, Note_on_c, 9, 46, 127
4, 51185, Note_on_c, 9, 36, 127
4, 51188, Note_on_c, 9, 40, 0
4, 51224, Note_on_c, 9, 46, 0
4, 51238, Note_on_c, 9, 42, 127
4, 51240, Note_on_c, 9, 36, 0
4, 51254, Note_on_c, 9, 42, 0
4, 51291, Note_on_c, 9, 42, 127
4, 51305, Note_on_c, 9, 42, 0
4, 51345, Note_on_c, 9, 40, 127
4, 51345, Note_on_c, 9, 42, 127
4, 51361, Note_on_c, 9, 42, 0
4, 51384, Note_on_c, 9, 40, 0
4, 51398, Note_on_c, 9, 42, 127
4, 51398, Note_on_c, 9, 36, 127
4, 51413, Note_on_c, 9, 42, 0
4, 51416, Note_on_c, 9, 36, 0
4, 51452, Note_on_c, 9, 42, 127
4, 51452, Note_on_c, 9, 36, 127
4, 51470, Note_on_c, 9, 42, 0
4, 51500, Note_on_c, 9, 36, 0
4, 51505, Note_on_c, 9, 42, 127
4, 51522, Note_on_c, 9, 42, 0
4, 51532, Note_on_c, 9, 36, 127
4, 51558, Note_on_c, 9, 40, 127
4, 51558, Note_on_c, 9, 42, 127
4, 51572, Note_on_c, 9, 36, 0
4, 51577, Note_on_c, 9, 42, 0
4, 51612, Note_on_c, 9, 46, 127
4, 51612, Note_on_c, 9, 36, 127
4, 51621, Note_on_c, 9, 40, 0
4, 51658, Note_on_c, 9, 46, 0
4, 51663, Note_on_c, 9, 36, 0
4, 51665, Note_on_c, 9, 42, 127
4, 51689, Note_on_c, 9, 42, 0
4, 51718, Note_on_c, 9, 42, 127
4, 51734, Note_on_c, 9, 42, 0
4, 51772, Note_on_c, 9, 40, 127
4, 51772, Note_on_c, 9, 42, 127
4, 51788, Note_on_c, 9, 42, 0
4, 51818, Note_on_c, 9, 40, 0
4, 51825, Note_on_c, 9, 40, 127
4, 51825, Note_on_c, 9, 42, 127
4, 51825, Note_on_c, 9, 36, 127
4, 51835, Note_on_c, 9, 40, 0
4, 51838, Note_on_c, 9, 42, 0
4, 51845, Note_on_c, 9, 36, 0
4, 51879, Note_on_c, 9, 42, 127
4, 51879, Note_on_c, 9, 36, 127
4, 51897, Note_on_c, 9, 42, 0
4, 51927, Note_on_c, 9, 36, 0
4, 51932, Note_on_c, 9, 40, 127
4, 51932, Note_on_c, 9, 42, 127
4, 51941, Note_on_c, 9, 40, 0
4, 51949, Note_on_c, 9, 42, 0
4, 51959, Note_on_c, 9, 36, 127
4, 51985, Note_on_c, 9, 40, 127
4, 51985, Note_on_c, 9, 42, 127
4, 52000, Note_on_c, 9, 36, 0
4, 52003, Note_on_c, 9, 42, 0
4, 52039, Note_on_c, 9, 46, 127
4, 52039, Note_on_c, 9, 36, 127
4, 52041, Note_on_c, 9, 40, 0
4, 52062, Note_on_c, 9, 36, 0
4, 52075, Note_on_c, 9, 46, 0
4, 52092, Note_on_c, 9, 49, 127
4, 52093, Note_on_c, 9, 42, 127
4, 52093, Note_on_c, 9, 36, 127
4, 52103, Note_on_c, 9, 42, 0
4, 52103, Note_on_c, 9, 49, 0
4, 52145, Note_on_c, 9, 42, 127
4, 52146, Note_on_c, 9, 36, 0
4, 52160, Note_on_c, 9, 42, 0
4, 52199, Note_on_c, 9, 40, 127
4, 52199, Note_on_c, 9, 42, 127
4, 52211, Note_on_c, 9, 42, 0
4, 52252, Note_on_c, 9, 42, 127
4, 52252, Note_on_c, 9, 36, 127
4, 52254, Note_on_c, 9, 40, 0
4, 52262, Note_on_c, 9, 42, 0
4, 52273, Note_on_c, 9, 36, 0
4, 52306, Note_on_c, 9, 42, 127
4, 52306, Note_on_c, 9, 36, 127
4, 52319, Note_on_c, 9, 42, 0
4, 52359, Note_on_c, 9, 42, 127
4, 52364, Note_on_c, 9, 36, 0
4, 52369, Note_on_c, 9, 42, 0
4, 52386, Note_on_c, 9, 36, 127
4, 52412, Note_on_c, 9, 40, 127
4, 52412, Note_on_c, 9, 42, 127
4, 52423, Note_on_c, 9, 42, 0
4, 52433, Note_on_c, 9, 36, 0
4, 52466, Note_on_c, 9, 46, 127
4, 52466, Note_on_c, 9, 36, 127
4, 52476, Note_on_c, 9, 40, 0
4, 52507, Note_on_c, 9, 46, 0
4, 52519, Note_on_c, 9, 36, 0
4, 52520, Note_on_c, 9, 42, 127
4, 52532, Note_on_c, 9, 42, 0
4, 52572, Note_on_c, 9, 42, 127
4, 52584, Note_on_c, 9, 42, 0
4, 52626, Note_on_c, 9, 40, 127
4, 52626, Note_on_c, 9, 42, 127
4, 52641, Note_on_c, 9, 42, 0
4, 52679, Note_on_c, 9, 42, 127
4, 52679, Note_on_c, 9, 36, 127
4, 52681, Note_on_c, 9, 40, 0
4, 52692, Note_on_c, 9, 42, 0
4, 52696, Note_on_c, 9, 36, 0
4, 52733, Note_on_c, 9, 42, 127
4, 52733, Note_on_c, 9, 36, 127
4, 52748, Note_on_c, 9, 42, 0
4, 52780, Note_on_c, 9, 36, 0
4, 52786, Note_on_c, 9, 42, 127
4, 52798, Note_on_c, 9, 42, 0
4, 52813, Note_on_c, 9, 36, 127
4, 52839, Note_on_c, 9, 40, 127
4, 52840, Note_on_c, 9, 42, 127
4, 52855, Note_on_c, 9, 42, 0
4, 52858, Note_on_c, 9, 36, 0
4, 52893, Note_on_c, 9, 46, 127
4, 52893, Note_on_c, 9, 36, 127
4, 52896, Note_on_c, 9, 40, 0
4, 52932, Note_on_c, 9, 46, 0
4, 52946, Note_on_c, 9, 42, 127
4, 52948, Note_on_c, 9, 36, 0
4, 52962, Note_on_c, 9, 42, 0
4, 52999, Note_on_c, 9, 42, 127
4, 53013, Note_on_c, 9, 42, 0
4, 53053, Note_on_c, 9, 40, 127
4, 53053, Note_on_c, 9, 42, 127
4, 53069, Note_on_c, 9, 42, 0
4, 53092, Note_on_c, 9, 40, 0
4, 53106, Note_on_c, 9, 42, 127
4, 53106, Note_on_c, 9, 36, 127
4, 53121, Note_on_c, 9, 42, 0
4, 53124, Note_on_c, 9, 36, 0
4, 53160, Note_on_c, 9, 42, 127
4, 53160, Note_on_c, 9, 36, 127
4, 53178, Note_on_c, 9, 42, 0
4, 53208, Note_on_c, 9, 36, 0
4, 53213, Note_on_c, 9, 42, 127
4, 53230, Note_on_c, 9, 42, 0
4, 53240, Note_on_c, 9, 36, 127
4, 53266, Note_on_c, 9, 40, 127
4, 53267, Note_on_c, 9, 42, 127
4, 53280, Note_on_c, 9, 36, 0
4, 53285, Note_on_c, 9, 42, 0
4, 53320, Note_on_c, 9, 46, 127
4, 53320, Note_on_c, 9, 36, 127
4, 53329, Note_on_c, 9, 40, 0
4, 53366, Note_on_c, 9, 46, 0
4, 53371, Note_on_c, 9, 36, 0
4, 53373, Note_on_c, 9, 50, 127
4, 53374, Note_on_c, 9, 42, 127
4, 53381, Note_on_c, 9, 50, 0
4, 53397, Note_on_c, 9, 42, 0
4, 53400, Note_on_c, 9, 50, 127
4, 53409, Note_on_c, 9, 50, 0
4, 53426, Note_on_c, 9, 50, 127
4, 53427, Note_on_c, 9, 42, 127
4, 53432, Note_on_c, 9, 50, 0
4, 53442, Note_on_c, 9, 42, 0
4, 53453, Note_on_c, 9, 50, 127
4, 53461, Note_on_c, 9, 50, 0
4, 53480, Note_on_c, 9, 47, 127
4, 53480, Note_on_c, 9, 40, 127
4, 53480, Note_on_c, 9, 42, 127
4, 53488, Note_on_c, 9, 47, 0
4, 53496, Note_on_c, 9, 42, 0
4, 53507, Note_on_c, 9, 47, 127
4, 53513, Note_on_c, 9, 47, 0
4, 53526, Note_on_c, 9, 40, 0
4, 53533, Note_on_c, 9, 47, 127
4, 53533, Note_on_c, 9, 42, 127
4, 53533, Note_on_c, 9, 36, 127
4, 53541, Note_on_c, 9, 47, 0
4, 53546, Note_on_c, 9, 42, 0
4, 53553, Note_on_c, 9, 36, 0
4, 53560, Note_on_c, 9, 47, 127
4, 53564, Note_on_c, 9, 47, 0
4, 53587, Note_on_c, 9, 47, 127
4, 53587, Note_on_c, 9, 42, 127
4, 53587, Note_on_c, 9, 36, 127
4, 53594, Note_on_c, 9, 47, 0
4, 53605, Note_on_c, 9, 42, 0
4, 53613, Note_on_c, 9, 47, 127
4, 53620, Note_on_c, 9, 47, 0
4, 53635, Note_on_c, 9, 36, 0
4, 53640, Note_on_c, 9, 47, 127
4, 53640, Note_on_c, 9, 42, 127
4, 53644, Note_on_c, 9, 47, 0
4, 53657, Note_on_c, 9, 42, 0
4, 53667, Note_on_c, 9, 47, 127
4, 53667, Note_on_c, 9, 36, 127
4, 53671, Note_on_c, 9, 47, 0
4, 53693, Note_on_c, 9, 43, 127
4, 53694, Note_on_c, 9, 40, 127
4, 53694, Note_on_c, 9, 42, 127
4, 53703, Note_on_c, 9, 43, 0
4, 53708, Note_on_c, 9, 36, 0
4, 53711, Note_on_c, 9, 42, 0
4, 53720, Note_on_c, 9, 43, 127
4, 53727, Note_on_c, 9, 43, 0
4, 53747, Note_on_c, 9, 43, 127
4, 53747, Note_on_c, 9, 46, 127
4, 53747, Note_on_c, 9, 36, 127
4, 53749, Note_on_c, 9, 40, 0
4, 53753, Note_on_c, 9, 43, 0
4, 53770, Note_on_c, 9, 36, 0
4, 53773, Note_on_c, 9, 43, 127
4, 53783, Note_on_c, 9, 43, 0
4, 53783, Note_on_c, 9, 46, 0
4, 53800, Note_on_c, 9, 49, 127
4, 53801, Note_on_c, 9, 42, 127
4, 53801, Note_on_c, 9, 36, 127
4, 53810, Note_on_c, 9, 49, 0
4, 53811, Note_on_c, 9, 42, 0
4, 53853, Note_on_c, 9, 42, 127
4, 53855, Note_on_c, 9, 36, 0
4, 53868, Note_on_c, 9, 42, 0
4, 53907, Note_on_c, 9, 40, 127
4, 53907, Note_on_c, 9, 42, 127
4, 53919, Note_on_c, 9, 42, 0
4, 53960, Note_on_c, 9, 42, 127
4, 53960, Note_on_c, 9, 36, 127
4, 53962, Note_on_c, 9, 40, 0
4, 53970, Note_on_c, 9, 42, 0
4, 53981, Note_on_c, 9, 36, 0
4, 54014, Note_on_c, 9, 42, 127
4, 54014, Note_on_c, 9, 36, 127
4, 54027, Note_on_c, 9, 42, 0
4, 54067, Note_on_c, 9, 42, 127
4, 54071, Note_on_c, 9, 36, 0
4, 54077, Note_on_c, 9, 42, 0
4, 54094, Note_on_c, 9, 36, 127
4, 54120, Note_on_c, 9, 40, 127
4, 54121, Note_on_c, 9, 42, 127
4, 54131, Note_on_c, 9, 42, 0
4, 54141, Note_on_c, 9, 36, 0
4, 54174, Note_on_c, 9, 46, 127
4, 54174, Note_on_c, 9, 36, 127
4, 54184, Note_on_c, 9, 40, 0
4, 54215, Note_on_c, 9, 46, 0
4, 54227, Note_on_c, 9, 36, 0
4, 54228, Note_on_c, 9, 42, 127
4, 54240, Note_on_c, 9, 42, 0
4, 54280, Note_on_c, 9, 42, 127
4, 54292, Note_on_c, 9, 42, 0
4, 54334, Note_on_c, 9, 40, 127
4, 54334, Note_on_c, 9, 42, 127
4, 54349, Note_on_c, 9, 42, 0
4, 54387, Note_on_c, 9, 42, 127
4, 54387, Note_on_c, 9, 36, 127
4, 54389, Note_on_c, 9, 40, 0
4, 54401, Note_on_c, 9, 42, 0
4, 54404, Note_on_c, 9, 36, 0
4, 54441, Note_on_c, 9, 42, 127
4, 54441, Note_on_c, 9, 36, 127
4, 54456, Note_on_c, 9, 42, 0
4, 54488, Note_on_c, 9, 36, 0
4, 54494, Note_on_c, 9, 42, 127
4, 54506, Note_on_c, 9, 42, 0
4, 54521, Note_on_c, 9, 36, 127
4, 54547, Note_on_c, 9, 40, 127
4, 54548, Note_on_c, 9, 42, 127
4, 54563, Note_on_c, 9, 42, 0
4, 54566, Note_on_c, 9, 36, 0
4, 54601, Note_on_c, 9, 46, 127
4, 54601, Note_on_c, 9, 36, 127
4, 54604, Note_on_c, 9, 40, 0
4, 54640, Note_on_c, 9, 46, 0
4, 54654, Note_on_c, 9, 42, 127
4, 54656, Note_on_c, 9, 36, 0
4, 54670, Note_on_c, 9, 42, 0
4, 54707, Note_on_c, 9, 42, 127
4, 54721, Note_on_c, 9, 42, 0
4, 54761, Note_on_c, 9, 40, 127
4, 54761, Note_on_c, 9, 42, 127
4, 54777, Note_on_c, 9, 42, 0
4, 54800, Note_on_c, 9, 40, 0
4, 54814, Note_on_c, 9, 42, 127
4, 54814, Note_on_c, 9, 36, 127
4, 54829, Note_on_c, 9, 42, 0
4, 54832, Note_on_c, 9, 36, 0
4, 54868, Note_on_c, 9, 42, 127
4, 54868, Note_on_c, 9, 36, 127
4, 54886, Note_on_c, 9, 42, 0
4, 54916, Note_on_c, 9, 36, 0
4, 54921, Note_on_c, 9, 42, 127
4, 54938, Note_on_c, 9, 42, 0
4, 54948, Note_on_c, 9, 36, 127
4, 54974, Note_on_c, 9, 40, 127
4, 54975, Note_on_c, 9, 42, 127
4, 54988, Note_on_c, 9, 36, 0
4, 54993, Note_on_c, 9, 42, 0
4, 55028, Note_on_c, 9, 46, 127
4, 55028, Note_on_c, 9, 36, 127
4, 55037, Note_on_c, 9, 40, 0
4, 55074, Note_on_c, 9, 46, 0
4, 55079, Note_on_c, 9, 36, 0
4, 55081, Note_on_c, 9, 42, 127
4, 55106, Note_on_c, 9, 42, 0
4, 55134, Note_on_c, 9, 42, 127
4, 55150, Note_on_c, 9, 42, 0
4, 55188, Note_on_c, 9, 40, 127
4, 55188, Note_on_c, 9, 42, 127
4, 55204, Note_on_c, 9, 42, 0
4, 55235, Note_on_c, 9, 40, 0
4, 55241, Note_on_c, 9, 40, 127
4, 55241, Note_on_c, 9, 42, 127
4, 55241, Note_on_c, 9, 36, 127
4, 55255, Note_on_c, 9, 42, 0
4, 55258, Note_on_c, 9, 40, 0
4, 55261, Note_on_c, 9, 36, 0
4, 55295, Note_on_c, 9, 42, 127
4, 55295, Note_on_c, 9, 36, 127
4, 55313, Note_on_c, 9, 42, 0
4, 55343, Note_on_c, 9, 36, 0
4, 55348, Note_on_c, 9, 42, 127
4, 55365, Note_on_c, 9, 42, 0
4, 55375, Note_on_c, 9, 36, 127
4, 55401, Note_on_c, 9, 40, 127
4, 55402, Note_on_c, 9, 42, 127
4, 55416, Note_on_c, 9, 36, 0
4, 55419, Note_on_c, 9, 42, 0
4, 55455, Note_on_c, 9, 40, 127
4, 55455, Note_on_c, 9, 46, 127
4, 55455, Note_on_c, 9, 36, 127
4, 55456, Note_on_c, 9, 40, 0
4, 55467, Note_on_c, 9, 40, 0
4, 55478, Note_on_c, 9, 36, 0
4, 55491, Note_on_c, 9, 46, 0
4, 55508, Note_on_c, 9, 49, 127
4, 55509, Note_on_c, 9, 42, 127
4, 55509, Note_on_c, 9, 36, 127
4, 55519, Note_on_c, 9, 42, 0
4, 55520, Note_on_c, 9, 49, 0
4, 55561, Note_on_c, 9, 42, 127
4, 55563, Note_on_c, 9, 36, 0
4, 55576, Note_on_c, 9, 42, 0
4, 55615, Note_on_c, 9, 40, 127
4, 55615, Note_on_c, 9, 42, 127
4, 55627, Note_on_c, 9, 42, 0
4, 55668, Note_on_c, 9, 42, 127
4, 55668, Note_on_c, 9, 36, 127
4, 55670, Note_on_c, 9, 40, 0
4, 55678, Note_on_c, 9, 42, 0
4, 55689, Note_on_c, 9, 36, 0
4, 55722, Note_on_c, 9, 42, 127
4, 55722, Note_on_c, 9, 36, 127
4, 55735, Note_on_c, 9, 42, 0
4, 55775, Note_on_c, 9, 42, 127
4, 55780, Note_on_c, 9, 36, 0
4, 55785, Note_on_c, 9, 42, 0
4, 55802, Note_on_c, 9, 36, 127
4, 55828, Note_on_c, 9, 40, 127
4, 55829, Note_on_c, 9, 42, 127
4, 55839, Note_on_c, 9, 42, 0
4, 55849, Note_on_c, 9, 36, 0
4, 55882, Note_on_c, 9, 46, 127
4, 55882, Note_on_c, 9, 36, 127
4, 55892, Note_on_c, 9, 40, 0
4, 55923, Note_on_c, 9, 46, 0
4, 55935, Note_on_c, 9, 36, 0
4, 55936, Note_on_c, 9, 42, 127
4, 55948, Note_on_c, 9, 42, 0
4, 55988, Note_on_c, 9, 42, 127
4, 56000, Note_on_c, 9, 42, 0
4, 56042, Note_on_c, 9, 40, 127
4, 56042, Note_on_c, 9, 42, 127
4, 56057, Note_on_c, 9, 42, 0
4, 56095, Note_on_c, 9, 42, 127
4, 56095, Note_on_c, 9, 36, 127
4, 56097, Note_on_c, 9, 40, 0
4, 56109, Note_on_c, 9, 42, 0
4, 56112, Note_on_c, 9, 36, 0
4, 56149, Note_on_c, 9, 42, 127
4, 56149, Note_on_c, 9, 36, 127
4, 56164, Note_on_c, 9, 42, 0
4, 56196, Note_on_c, 9, 36, 0
4, 56202, Note_on_c, 9, 42, 127
4, 56214, Note_on_c, 9, 42, 0
4, 56229, Note_on_c, 9, 36, 127
4, 56255, Note_on_c, 9, 40, 127
4, 56256, Note_on_c, 9, 42, 127
4, 56271, Note_on_c, 9, 42, 0
4, 56274, Note_on_c, 9, 36, 0
4, 56309, Note_on_c, 9, 46, 127
4, 56309, Note_on_c, 9, 36, 127
4, 56312, Note_on_c, 9, 40, 0
4, 56348, Note_on_c, 9, 46, 0
4, 56362, Note_on_c, 9, 42, 127
4, 56364, Note_on_c, 9, 36, 0
4, 56378, Note_on_c, 9, 42, 0
4, 56415, Note_on_c, 9, 42, 127
4, 56429, Note_on_c, 9, 42, 0
4, 56469, Note_on_c, 9, 40, 127
4, 56469, Note_on_c, 9, 42, 127
4, 56485, Note_on_c, 9, 42, 0
4, 56508, Note_on_c, 9, 40, 0
4, 56522, Note_on_c, 9, 42, 127
4, 56522, Note_on_c, 9, 36, 127
4, 56537, Note_on_c, 9, 42, 0
4, 56540, Note_on_c, 9, 36, 0
4, 56576, Note_on_c, 9, 42, 127
4, 56576, Note_on_c, 9, 36, 127
4, 56594, Note_on_c, 9, 42, 0
4, 56624, Note_on_c, 9, 36, 0
4, 56629, Note_on_c, 9, 42, 127
4, 56646, Note_on_c, 9, 42, 0
4, 56656, Note_on_c, 9, 36, 127
4, 56682, Note_on_c, 9, 40, 127
4, 56683, Note_on_c, 9, 42, 127
4, 56696, Note_on_c, 9, 36, 0
4, 56701, Note_on_c, 9, 42, 0
4, 56736, Note_on_c, 9, 46, 127
4, 56736, Note_on_c, 9, 36, 127
4, 56745, Note_on_c, 9, 40, 0
4, 56782, Note_on_c, 9, 46, 0
4, 56787, Note_on_c, 9, 36, 0
4, 56789, Note_on_c, 9, 42, 127
4, 56814, Note_on_c, 9, 42, 0
4, 56842, Note_on_c, 9, 50, 127
4, 56843, Note_on_c, 9, 42, 127
4, 56855, Note_on_c, 9, 50, 0
4, 56858, Note_on_c, 9, 42, 0
4, 56896, Note_on_c, 9, 40, 127
4, 56896, Note_on_c, 9, 42, 127
4, 56912, Note_on_c, 9, 42, 0
4, 56923, Note_on_c, 9, 47, 127
4, 56934, Note_on_c, 9, 47, 0
4, 56943, Note_on_c, 9, 40, 0
4, 56949, Note_on_c, 9, 42, 127
4, 56949, Note_on_c, 9, 36, 127
4, 56963, Note_on_c, 9, 42, 0
4, 56969, Note_on_c, 9, 36, 0
4, 57003, Note_on_c, 9, 50, 127
4, 57003, Note_on_c, 9, 42, 127
4, 57003, Note_on_c, 9, 36, 127
4, 57013, Note_on_c, 9, 50, 0
4, 57021, Note_on_c, 9, 42, 0
4, 57051, Note_on_c, 9, 36, 0
4, 57056, Note_on_c, 9, 42, 127
4, 57073, Note_on_c, 9, 42, 0
4, 57083, Note_on_c, 9, 47, 127
4, 57083, Note_on_c, 9, 36, 127
4, 57093, Note_on_c, 9, 47, 0
4, 57109, Note_on_c, 9, 40, 127
4, 57110, Note_on_c, 9, 42, 127
4, 57124, Note_on_c, 9, 36, 0
4, 57127, Note_on_c, 9, 42, 0
4, 57163, Note_on_c, 9, 43, 127
4, 57163, Note_on_c, 9, 46, 127
4, 57163, Note_on_c, 9, 36, 127
4, 57165, Note_on_c, 9, 40, 0
4, 57173, Note_on_c, 9, 43, 0
4, 57186, Note_on_c, 9, 36, 0
4, 57189, Note_on_c, 9, 43, 127
4, 57199, Note_on_c, 9, 43, 0
4, 57199, Note_on_c, 9, 46, 0
4, 57216, Note_on_c, 9, 49, 127
4, 57217, Note_on_c, 9, 42, 127
4, 57217, Note_on_c, 9, 36, 127
4, 57225, Note_on_c, 9, 49, 0
4, 57227, Note_on_c, 9, 42, 0
4, 57269, Note_on_c, 9, 42, 127
4, 57271, Note_on_c, 9, 36, 0
4, 57284, Note_on_c, 9, 42, 0
4, 57323, Note_on_c, 9, 40, 127
4, 57323, Note_on_c, 9, 42, 127
4, 57335, Note_on_c, 9, 42, 0
4, 57376, Note_on_c, 9, 42, 127
4, 57376, Note_on_c, 9, 36, 127
4, 57378, Note_on_c, 9, 40, 0
4, 57386, Note_on_c, 9, 42, 0
4, 57397, Note_on_c, 9, 36, 0
4, 57430, Note_on_c, 9, 42, 127
4, 57430, Note_on_c, 9, 36, 127
4, 57443, Note_on_c, 9, 42, 0
4, 57483, Note_on_c, 9, 42, 127
4, 57488, Note_on_c, 9, 36, 0
4, 57493, Note_on_c, 9, 42, 0
4, 57510, Note_on_c, 9, 36, 127
4, 57536, Note_on_c, 9, 40, 127
4, 57537, Note_on_c, 9, 42, 127
4, 57547, Note_on_c, 9, 42, 0
4, 57557, Note_on_c, 9, 36, 0
4, 57590, Note_on_c, 9, 46, 127
4, 57590, Note_on_c, 9, 36, 127
4, 57600, Note_on_c, 9, 40, 0
4, 57631, Note_on_c, 9, 46, 0
4, 57643, Note_on_c, 9, 36, 0
4, 57644, Note_on_c, 9, 42, 127
4, 57656, Note_on_c, 9, 42, 0
4, 57696, Note_on_c, 9, 42, 127
4, 57708, Note_on_c, 9, 42, 0
4, 57750, Note_on_c, 9, 40, 127
4, 57750, Note_on_c, 9, 42, 127
4, 57765, Note_on_c, 9, 42, 0
4, 57803, Note_on_c, 9, 42, 127
4, 57803, Note_on_c, 9, 36, 127
4, 57805, Note_on_c, 9, 40, 0
4, 57817, Note_on_c, 9, 42, 0
4, 57820, Note_on_c, 9, 36, 0
4, 57857, Note_on_c, 9, 42, 127
4, 57857, Note_on_c, 9, 36, 127
4, 57872, Note_on_c, 9, 42, 0
4, 57904, Note_on_c, 9, 36, 0
4, 57910, Note_on_c, 9, 42, 127
4, 57922, Note_on_c, 9, 42, 0
4, 57937, Note_on_c, 9, 36, 127
4, 57963, Note_on_c, 9, 40, 127
4, 57964, Note_on_c, 9, 42, 127
4, 57979, Note_on_c, 9, 42, 0
4, 57982, Note_on_c, 9, 36, 0
4, 58017, Note_on_c, 9, 46, 127
4, 58017, Note_on_c, 9, 36, 127
4, 58020, Note_on_c, 9, 40, 0
4, 58056, Note_on_c, 9, 46, 0
4, 58070, Note_on_c, 9, 42, 127
4, 58072, Note_on_c, 9, 36, 0
4, 58086, Note_on_c, 9, 42, 0
4, 58123, Note_on_c, 9, 42, 127
4, 58137, Note_on_c, 9, 42, 0
4, 58177, Note_on_c, 9, 40, 127
4, 58177, Note_on_c, 9, 42, 127
4, 58193, Note_on_c, 9, 42, 0
4, 58216, Note_on_c, 9, 40, 0
4, 58230, Note_on_c, 9, 42, 127
4, 58230, Note_on_c, 9, 36, 127
4, 58245, Note_on_c, 9, 42, 0
4, 58248, Note_on_c, 9, 36, 0
4, 58284, Note_on_c, 9, 42, 127
4, 58284, Note_on_c, 9, 36, 127
4, 58302, Note_on_c, 9, 42, 0
4, 58332, Note_on_c, 9, 36, 0
4, 58337, Note_on_c, 9, 42, 127
4, 58354, Note_on_c, 9, 42, 0
4, 58364, Note_on_c, 9, 36, 127
4, 58390, Note_on_c, 9, 40, 127
4, 58391, Note_on_c, 9, 42, 127
4, 58404, Note_on_c, 9, 36, 0
4, 58409, Note_on_c, 9, 42, 0
4, 58444, Note_on_c, 9, 46, 127
4, 58444, Note_on_c, 9, 36, 127
4, 58453, Note_on_c, 9, 40, 0
4, 58490, Note_on_c, 9, 46, 0
4, 58495, Note_on_c, 9, 36, 0
4, 58497, Note_on_c, 9, 42, 127
4, 58522, Note_on_c, 9, 42, 0
4, 58550, Note_on_c, 9, 43, 127
4, 58551, Note_on_c, 9, 42, 127
4, 58558, Note_on_c, 9, 43, 0
4, 58566, Note_on_c, 9, 42, 0
4, 58604, Note_on_c, 9, 40, 127
4, 58604, Note_on_c, 9, 42, 127
4, 58621, Note_on_c, 9, 42, 0
4, 58631, Note_on_c, 9, 47, 127
4, 58639, Note_on_c, 9, 47, 0
4, 58651, Note_on_c, 9, 40, 0
4, 58657, Note_on_c, 9, 42, 127
4, 58657, Note_on_c, 9, 36, 127
4, 58671, Note_on_c, 9, 42, 0
4, 58677, Note_on_c, 9, 36, 0
4, 58711, Note_on_c, 9, 43, 127
4, 58711, Note_on_c, 9, 42, 127
4, 58711, Note_on_c, 9, 36, 127
4, 58721, Note_on_c, 9, 43, 0
4, 58729, Note_on_c, 9, 42, 0
4, 58760, Note_on_c, 9, 36, 0
4, 58764, Note_on_c, 9, 42, 127
4, 58781, Note_on_c, 9, 42, 0
4, 58791, Note_on_c, 9, 47, 127
4, 58791, Note_on_c, 9, 36, 127
4, 58801, Note_on_c, 9, 47, 0
4, 58817, Note_on_c, 9, 40, 127
4, 58818, Note_on_c, 9, 42, 127
4, 58832, Note_on_c, 9, 36, 0
4, 58835, Note_on_c, 9, 42, 0
4, 58871, Note_on_c, 9, 50, 127
4, 58871, Note_on_c, 9, 46, 127
4, 58871, Note_on_c, 9, 36, 127
4, 58873, Note_on_c, 9, 40, 0
4, 58881, Note_on_c, 9, 50, 0
4, 58894, Note_on_c, 9, 36, 0
4, 58897, Note_on_c, 9, 50, 127
4, 58907, Note_on_c, 9, 50, 0
4, 58908, Note_on_c, 9, 46, 0
4, 58924, Note_on_c, 9, 49, 127
4, 58926, Note_on_c, 9, 36, 127
4, 58926, Note_on_c, 9, 49, 127
4, 58927, Note_on_c, 9, 49, 0
4, 58982, Note_on_c, 9, 49, 0
4, 58985, Note_on_c, 9, 36, 0
4, 58985, End_track
5, 0, Start_track
5, 0, MIDI_port, 0
5, 0, Control_c, 10, 0, 0
5, 0, Program_c, 10, 37
5, 0, Control_c, 10, 7, 115
5, 0, Control_c, 10, 10, 64
5, 7, Control_c, 10, 0, 0
5, 7, Program_c, 10, 37
5, 14, Control_c, 10, 7, 115
5, 852, Note_on_c, 10, 33, 127
5, 907, Note_on_c, 10, 33, 0
5, 959, Note_on_c, 10, 36, 127
5, 992, Note_on_c, 10, 36, 0
5, 1012, Note_on_c, 10, 38, 127
5, 1038, Note_on_c, 10, 38, 0
5, 1065, Note_on_c, 10, 31, 127
5, 1113, Note_on_c, 10, 31, 0
5, 1145, Note_on_c, 10, 32, 127
5, 1186, Note_on_c, 10, 32, 0
5, 1225, Note_on_c, 10, 33, 127
5, 1271, Note_on_c, 10, 33, 0
5, 1332, Note_on_c, 10, 33, 127
5, 1357, Note_on_c, 10, 33, 0
5, 1386, Note_on_c, 10, 36, 127
5, 1407, Note_on_c, 10, 36, 0
5, 1439, Note_on_c, 10, 38, 127
5, 1461, Note_on_c, 10, 38, 0
5, 1492, Note_on_c, 10, 38, 127
5, 1492, Note_on_c, 10, 40, 127
5, 1510, Note_on_c, 10, 38, 0
5, 1550, Note_on_c, 10, 40, 0
5, 1572, Note_on_c, 10, 38, 127
5, 1625, Note_on_c, 10, 38, 0
5, 1652, Note_on_c, 10, 36, 127
5, 1690, Note_on_c, 10, 36, 0
5, 1706, Note_on_c, 10, 33, 127
5, 1761, Note_on_c, 10, 33, 0
5, 1813, Note_on_c, 10, 36, 127
5, 1846, Note_on_c, 10, 36, 0
5, 1866, Note_on_c, 10, 38, 127
5, 1892, Note_on_c, 10, 38, 0
5, 1919, Note_on_c, 10, 31, 127
5, 1967, Note_on_c, 10, 31, 0
5, 1999, Note_on_c, 10, 32, 127
5, 2040, Note_on_c, 10, 32, 0
5, 2079, Note_on_c, 10, 33, 127
5, 2125, Note_on_c, 10, 33, 0
5, 2186, Note_on_c, 10, 33, 127
5, 2211, Note_on_c, 10, 33, 0
5, 2240, Note_on_c, 10, 36, 127
5, 2261, Note_on_c, 10, 36, 0
5, 2293, Note_on_c, 10, 38, 127
5, 2315, Note_on_c, 10, 38, 0
5, 2346, Note_on_c, 10, 38, 127
5, 2347, Note_on_c, 10, 40, 127
5, 2364, Note_on_c, 10, 38, 0
5, 2404, Note_on_c, 10, 40, 0
5, 2426, Note_on_c, 10, 38, 127
5, 2479, Note_on_c, 10, 38, 0
5, 2507, Note_on_c, 10, 36, 127
5, 2544, Note_on_c, 10, 36, 0
5, 2560, Note_on_c, 10, 33, 127
5, 2615, Note_on_c, 10, 33, 0
5, 2667, Note_on_c, 10, 36, 127
5, 2700, Note_on_c, 10, 36, 0
5, 2720, Note_on_c, 10, 38, 127
5, 2746, Note_on_c, 10, 38, 0
5, 2773, Note_on_c, 10, 31, 127
5, 2821, Note_on_c, 10, 31, 0
5, 2853, Note_on_c, 10, 32, 127
5, 2894, Note_on_c, 10, 32, 0
5, 2933, Note_on_c, 10, 33, 127
5, 2979, Note_on_c, 10, 33, 0
5, 3040, Note_on_c, 10, 33, 127
5, 3065, Note_on_c, 10, 33, 0
5, 3094, Note_on_c, 10, 36, 127
5, 3116, Note_on_c, 10, 36, 0
5, 3147, Note_on_c, 10, 38, 127
5, 3169, Note_on_c, 10, 38, 0
5, 3200, Note_on_c, 10, 38, 127
5, 3201, Note_on_c, 10, 40, 127
5, 3218, Note_on_c, 10, 38, 0
5, 3258, Note_on_c, 10, 40, 0
5, 3280, Note_on_c, 10, 38, 127
5, 3333, Note_on_c, 10, 38, 0
5, 3360, Note_on_c, 10, 36, 127
5, 3398, Note_on_c, 10, 36, 0
5, 3414, Note_on_c, 10, 33, 127
5, 3469, Note_on_c, 10, 33, 0
5, 3521, Note_on_c, 10, 36, 127
5, 3554, Note_on_c, 10, 36, 0
5, 3574, Note_on_c, 10, 38, 127
5, 3600, Note_on_c, 10, 38, 0
5, 3627, Note_on_c, 10, 31, 127
5, 3675, Note_on_c, 10, 31, 0
5, 3707, Note_on_c, 10, 32, 127
5, 3748, Note_on_c, 10, 32, 0
5, 3787, Note_on_c, 10, 33, 127
5, 3833, Note_on_c, 10, 33, 0
5, 3894, Note_on_c, 10, 33, 127
5, 3919, Note_on_c, 10, 33, 0
5, 3948, Note_on_c, 10, 36, 127
5, 3969, Note_on_c, 10, 36, 0
5, 4001, Note_on_c, 10, 38, 127
5, 4023, Note_on_c, 10, 38, 0
5, 4054, Note_on_c, 10, 38, 127
5, 4055, Note_on_c, 10, 40, 127
5, 4072, Note_on_c, 10, 38, 0
5, 4112, Note_on_c, 10, 40, 0
5, 4134, Note_on_c, 10, 38, 127
5, 4187, Note_on_c, 10, 38, 0
5, 4215, Note_on_c, 10, 36, 127
5, 4252, Note_on_c, 10, 36, 0
5, 4268, Note_on_c, 10, 33, 127
5, 4323, Note_on_c, 10, 33, 0
5, 4375, Note_on_c, 10, 36, 127
5, 4408, Note_on_c, 10, 36, 0
5, 4428, Note_on_c, 10, 38, 127
5, 4454, Note_on_c, 10, 38, 0
5, 4481, Note_on_c, 10, 31, 127
5, 4529, Note_on_c, 10, 31, 0
5, 4561, Note_on_c, 10, 32, 127
5, 4602, Note_on_c, 10, 32, 0
5, 4641, Note_on_c, 10, 33, 127
5, 4687, Note_on_c, 10, 33, 0
5, 4748, Note_on_c, 10, 33, 127
5, 4773, Note_on_c, 10, 33, 0
5, 4802, Note_on_c, 10, 36, 127
5, 4823, Note_on_c, 10, 36, 0
5, 4855, Note_on_c, 10, 38, 127
5, 4877, Note_on_c, 10, 38, 0
5, 4908, Note_on_c, 10, 38, 127
5, 4909, Note_on_c, 10, 40, 127
5, 4926, Note_on_c, 10, 38, 0
5, 4966, Note_on_c, 10, 40, 0
5, 4988, Note_on_c, 10, 38, 127
5, 5041, Note_on_c, 10, 38, 0
5, 5068, Note_on_c, 10, 36, 127
5, 5106, Note_on_c, 10, 36, 0
5, 5122, Note_on_c, 10, 33, 127
5, 5177, Note_on_c, 10, 33, 0
5, 5229, Note_on_c, 10, 36, 127
5, 5262, Note_on_c, 10, 36, 0
5, 5282, Note_on_c, 10, 38, 127
5, 5308, Note_on_c, 10, 38, 0
5, 5335, Note_on_c, 10, 31, 127
5, 5383, Note_on_c, 10, 31, 0
5, 5415, Note_on_c, 10, 32, 127
5, 5456, Note_on_c, 10, 32, 0
5, 5495, Note_on_c, 10, 33, 127
5, 5541, Note_on_c, 10, 33, 0
5, 5602, Note_on_c, 10, 33, 127
5, 5627, Note_on_c, 10, 33, 0
5, 5656, Note_on_c, 10, 36, 127
5, 5678, Note_on_c, 10, 36, 0
5, 5709, Note_on_c, 10, 38, 127
5, 5731, Note_on_c, 10, 38, 0
5, 5762, Note_on_c, 10, 38, 127
5, 5763, Note_on_c, 10, 40, 127
5, 5780, Note_on_c, 10, 38, 0
5, 5820, Note_on_c, 10, 40, 0
5, 5842, Note_on_c, 10, 38, 127
5, 5895, Note_on_c, 10, 38, 0
5, 5923, Note_on_c, 10, 36, 127
5, 5960, Note_on_c, 10, 36, 0
5, 5976, Note_on_c, 10, 33, 127
5, 6023, Note_on_c, 10, 33, 0
5, 6083, Note_on_c, 10, 36, 127
5, 6108, Note_on_c, 10, 36, 0
5, 6136, Note_on_c, 10, 38, 127
5, 6162, Note_on_c, 10, 38, 0
5, 6189, Note_on_c, 10, 31, 127
5, 6247, Note_on_c, 10, 31, 0
5, 6269, Note_on_c, 10, 32, 127
5, 6306, Note_on_c, 10, 32, 0
5, 6349, Note_on_c, 10, 33, 127
5, 6392, Note_on_c, 10, 33, 0
5, 6456, Note_on_c, 10, 33, 127
5, 6479, Note_on_c, 10, 33, 0
5, 6510, Note_on_c, 10, 36, 127
5, 6535, Note_on_c, 10, 36, 0
5, 6563, Note_on_c, 10, 38, 127
5, 6586, Note_on_c, 10, 38, 0
5, 6616, Note_on_c, 10, 38, 127
5, 6617, Note_on_c, 10, 40, 127
5, 6639, Note_on_c, 10, 38, 0
5, 6673, Note_on_c, 10, 40, 0
5, 6696, Note_on_c, 10, 38, 127
5, 6752, Note_on_c, 10, 38, 0
5, 6776, Note_on_c, 10, 36, 127
5, 6815, Note_on_c, 10, 36, 0
5, 6830, Note_on_c, 10, 33, 127
5, 6885, Note_on_c, 10, 33, 0
5, 6937, Note_on_c, 10, 36, 127
5, 6970, Note_on_c, 10, 36, 0
5, 6990, Note_on_c, 10, 38, 127
5, 7016, Note_on_c, 10, 38, 0
5, 7043, Note_on_c, 10, 31, 127
5, 7091, Note_on_c, 10, 31, 0
5, 7123, Note_on_c, 10, 32, 127
5, 7164, Note_on_c, 10, 32, 0
5, 7204, Note_on_c, 10, 33, 127
5, 7249, Note_on_c, 10, 33, 0
5, 7310, Note_on_c, 10, 33, 127
5, 7335, Note_on_c, 10, 33, 0
5, 7364, Note_on_c, 10, 36, 127
5, 7386, Note_on_c, 10, 36, 0
5, 7417, Note_on_c, 10, 38, 127
5, 7439, Note_on_c, 10, 38, 0
5, 7470, Note_on_c, 10, 38, 127
5, 7471, Note_on_c, 10, 40, 127
5, 7488, Note_on_c, 10, 38, 0
5, 7528, Note_on_c, 10, 40, 0
5, 7550, Note_on_c, 10, 38, 127
5, 7603, Note_on_c, 10, 38, 0
5, 7631, Note_on_c, 10, 36, 127
5, 7668, Note_on_c, 10, 36, 0
5, 7684, Note_on_c, 10, 33, 127
5, 7731, Note_on_c, 10, 33, 0
5, 7791, Note_on_c, 10, 36, 127
5, 7816, Note_on_c, 10, 36, 0
5, 7844, Note_on_c, 10, 38, 127
5, 7870, Note_on_c, 10, 38, 0
5, 7897, Note_on_c, 10, 31, 127
5, 7955, Note_on_c, 10, 31, 0
5, 7977, Note_on_c, 10, 32, 127
5, 8014, Note_on_c, 10, 32, 0
5, 8058, Note_on_c, 10, 33, 127
5, 8101, Note_on_c, 10, 33, 0
5, 8164, Note_on_c, 10, 33, 127
5, 8187, Note_on_c, 10, 33, 0
5, 8218, Note_on_c, 10, 36, 127
5, 8243, Note_on_c, 10, 36, 0
5, 8271, Note_on_c, 10, 38, 127
5, 8294, Note_on_c, 10, 38, 0
5, 8324, Note_on_c, 10, 38, 127
5, 8325, Note_on_c, 10, 40, 127
5, 8347, Note_on_c, 10, 38, 0
5, 8381, Note_on_c, 10, 40, 0
5, 8404, Note_on_c, 10, 38, 127
5, 8460, Note_on_c, 10, 38, 0
5, 8485, Note_on_c, 10, 36, 127
5, 8523, Note_on_c, 10, 36, 0
5, 8538, Note_on_c, 10, 33, 127
5, 8593, Note_on_c, 10, 33, 0
5, 8645, Note_on_c, 10, 36, 127
5, 8678, Note_on_c, 10, 36, 0
5, 8698, Note_on_c, 10, 38, 127
5, 8724, Note_on_c, 10, 38, 0
5, 8751, Note_on_c, 10, 31, 127
5, 8799, Note_on_c, 10, 31, 0
5, 8831, Note_on_c, 10, 32, 127
5, 8872, Note_on_c, 10, 32, 0
5, 8912, Note_on_c, 10, 33, 127
5, 8957, Note_on_c, 10, 33, 0
5, 9018, Note_on_c, 10, 33, 127
5, 9043, Note_on_c, 10, 33, 0
5, 9072, Note_on_c, 10, 36, 127
5, 9094, Note_on_c, 10, 36, 0
5, 9125, Note_on_c, 10, 38, 127
5, 9147, Note_on_c, 10, 38, 0
5, 9178, Note_on_c, 10, 38, 127
5, 9179, Note_on_c, 10, 40, 127
5, 9196, Note_on_c, 10, 38, 0
5, 9236, Note_on_c, 10, 40, 0
5, 9258, Note_on_c, 10, 38, 127
5, 9312, Note_on_c, 10, 38, 0
5, 9339, Note_on_c, 10, 36, 127
5, 9376, Note_on_c, 10, 36, 0
5, 9392, Note_on_c, 10, 33, 127
5, 9497, Note_on_c, 10, 33, 0
5, 9552, Note_on_c, 10, 33, 127
5, 9591, Note_on_c, 10, 33, 0
5, 9605, Note_on_c, 10, 33, 127
5, 9710, Note_on_c, 10, 33, 0
5, 9766, Note_on_c, 10, 33, 127
5, 9805, Note_on_c, 10, 33, 0
5, 9819, Note_on_c, 10, 33, 127
5, 9923, Note_on_c, 10, 33, 0
5, 9979, Note_on_c, 10, 33, 127
5, 10019, Note_on_c, 10, 33, 0
5, 10032, Note_on_c, 10, 33, 127
5, 10126, Note_on_c, 10, 33, 0
5, 10193, Note_on_c, 10, 33, 127
5, 10230, Note_on_c, 10, 33, 0
5, 10246, Note_on_c, 10, 33, 127
5, 10338, Note_on_c, 10, 33, 0
5, 10406, Note_on_c, 10, 33, 127
5, 10433, Note_on_c, 10, 33, 0
5, 10459, Note_on_c, 10, 33, 127
5, 10545, Note_on_c, 10, 33, 0
5, 10620, Note_on_c, 10, 33, 127
5, 10658, Note_on_c, 10, 33, 0
5, 10673, Note_on_c, 10, 33, 127
5, 10769, Note_on_c, 10, 33, 0
5, 10833, Note_on_c, 10, 33, 127
5, 10886, Note_on_c, 10, 31, 127
5, 10889, Note_on_c, 10, 33, 0
5, 10912, Note_on_c, 10, 31, 0
5, 10940, Note_on_c, 10, 31, 127
5, 10991, Note_on_c, 10, 31, 0
5, 10993, Note_on_c, 10, 32, 127
5, 11028, Note_on_c, 10, 32, 0
5, 11047, Note_on_c, 10, 32, 127
5, 11100, Note_on_c, 10, 33, 127
5, 11101, Note_on_c, 10, 32, 0
5, 11192, Note_on_c, 10, 33, 0
5, 11260, Note_on_c, 10, 33, 127
5, 11296, Note_on_c, 10, 33, 0
5, 11313, Note_on_c, 10, 33, 127
5, 11406, Note_on_c, 10, 33, 0
5, 11474, Note_on_c, 10, 33, 127
5, 11511, Note_on_c, 10, 33, 0
5, 11527, Note_on_c, 10, 33, 127
5, 11642, Note_on_c, 10, 33, 0
5, 11687, Note_on_c, 10, 33, 127
5, 11729, Note_on_c, 10, 33, 0
5, 11740, Note_on_c, 10, 33, 127
5, 11854, Note_on_c, 10, 33, 0
5, 11901, Note_on_c, 10, 33, 127
5, 11939, Note_on_c, 10, 33, 0
5, 11954, Note_on_c, 10, 33, 127
5, 12081, Note_on_c, 10, 33, 0
5, 12114, Note_on_c, 10, 33, 127
5, 12156, Note_on_c, 10, 33, 0
5, 12167, Note_on_c, 10, 33, 127
5, 12305, Note_on_c, 10, 33, 0
5, 12328, Note_on_c, 10, 33, 127
5, 12353, Note_on_c, 10, 33, 0
5, 12381, Note_on_c, 10, 33, 127
5, 12500, Note_on_c, 10, 33, 0
5, 12541, Note_on_c, 10, 33, 127
5, 12594, Note_on_c, 10, 33, 0
5, 12595, Note_on_c, 10, 31, 127
5, 12610, Note_on_c, 10, 31, 0
5, 12648, Note_on_c, 10, 31, 127
5, 12701, Note_on_c, 10, 32, 127
5, 12711, Note_on_c, 10, 31, 0
5, 12728, Note_on_c, 10, 32, 0
5, 12755, Note_on_c, 10, 32, 127
5, 12801, Note_on_c, 10, 32, 0
5, 12808, Note_on_c, 10, 33, 127
5, 12863, Note_on_c, 10, 33, 0
5, 12915, Note_on_c, 10, 36, 127
5, 12948, Note_on_c, 10, 36, 0
5, 12968, Note_on_c, 10, 38, 127
5, 12994, Note_on_c, 10, 38, 0
5, 13021, Note_on_c, 10, 31, 127
5, 13069, Note_on_c, 10, 31, 0
5, 13101, Note_on_c, 10, 32, 127
5, 13142, Note_on_c, 10, 32, 0
5, 13182, Note_on_c, 10, 33, 127
5, 13227, Note_on_c, 10, 33, 0
5, 13288, Note_on_c, 10, 33, 127
5, 13314, Note_on_c, 10, 33, 0
5, 13342, Note_on_c, 10, 36, 127
5, 13364, Note_on_c, 10, 36, 0
5, 13395, Note_on_c, 10, 38, 127
5, 13417, Note_on_c, 10, 38, 0
5, 13448, Note_on_c, 10, 38, 127
5, 13449, Note_on_c, 10, 40, 127
5, 13466, Note_on_c, 10, 38, 0
5, 13506, Note_on_c, 10, 40, 0
5, 13528, Note_on_c, 10, 38, 127
5, 13582, Note_on_c, 10, 38, 0
5, 13609, Note_on_c, 10, 36, 127
5, 13646, Note_on_c, 10, 36, 0
5, 13662, Note_on_c, 10, 33, 127
5, 13717, Note_on_c, 10, 33, 0
5, 13769, Note_on_c, 10, 36, 127
5, 13802, Note_on_c, 10, 36, 0
5, 13822, Note_on_c, 10, 38, 127
5, 13848, Note_on_c, 10, 38, 0
5, 13875, Note_on_c, 10, 31, 127
5, 13923, Note_on_c, 10, 31, 0
5, 13955, Note_on_c, 10, 32, 127
5, 13996, Note_on_c, 10, 32, 0
5, 14036, Note_on_c, 10, 33, 127
5, 14081, Note_on_c, 10, 33, 0
5, 14142, Note_on_c, 10, 33, 127
5, 14168, Note_on_c, 10, 33, 0
5, 14196, Note_on_c, 10, 36, 127
5, 14218, Note_on_c, 10, 36, 0
5, 14249, Note_on_c, 10, 38, 127
5, 14271, Note_on_c, 10, 38, 0
5, 14302, Note_on_c, 10, 38, 127
5, 14303, Note_on_c, 10, 40, 127
5, 14320, Note_on_c, 10, 38, 0
5, 14360, Note_on_c, 10, 40, 0
5, 14382, Note_on_c, 10, 38, 127
5, 14436, Note_on_c, 10, 38, 0
5, 14463, Note_on_c, 10, 36, 127
5, 14500, Note_on_c, 10, 36, 0
5, 14516, Note_on_c, 10, 33, 127
5, 14563, Note_on_c, 10, 33, 0
5, 14623, Note_on_c, 10, 36, 127
5, 14648, Note_on_c, 10, 36, 0
5, 14676, Note_on_c, 10, 38, 127
5, 14702, Note_on_c, 10, 38, 0
5, 14729, Note_on_c, 10, 31, 127
5, 14787, Note_on_c, 10, 31, 0
5, 14809, Note_on_c, 10, 32, 127
5, 14846, Note_on_c, 10, 32, 0
5, 14890, Note_on_c, 10, 33, 127
5, 14933, Note_on_c, 10, 33, 0
5, 14996, Note_on_c, 10, 33, 127
5, 15019, Note_on_c, 10, 33, 0
5, 15050, Note_on_c, 10, 36, 127
5, 15075, Note_on_c, 10, 36, 0
5, 15103, Note_on_c, 10, 38, 127
5, 15126, Note_on_c, 10, 38, 0
5, 15156, Note_on_c, 10, 38, 127
5, 15157, Note_on_c, 10, 40, 127
5, 15179, Note_on_c, 10, 38, 0
5, 15213, Note_on_c, 10, 40, 0
5, 15236, Note_on_c, 10, 38, 127
5, 15292, Note_on_c, 10, 38, 0
5, 15317, Note_on_c, 10, 36, 127
5, 15355, Note_on_c, 10, 36, 0
5, 15370, Note_on_c, 10, 33, 127
5, 15425, Note_on_c, 10, 33, 0
5, 15477, Note_on_c, 10, 36, 127
5, 15510, Note_on_c, 10, 36, 0
5, 15530, Note_on_c, 10, 38, 127
5, 15556, Note_on_c, 10, 38, 0
5, 15583, Note_on_c, 10, 31, 127
5, 15631, Note_on_c, 10, 31, 0
5, 15663, Note_on_c, 10, 32, 127
5, 15704, Note_on_c, 10, 32, 0
5, 15744, Note_on_c, 10, 33, 127
5, 15789, Note_on_c, 10, 33, 0
5, 15850, Note_on_c, 10, 33, 127
5, 15876, Note_on_c, 10, 33, 0
5, 15904, Note_on_c, 10, 36, 127
5, 15926, Note_on_c, 10, 36, 0
5, 15957, Note_on_c, 10, 38, 127
5, 15979, Note_on_c, 10, 38, 0
5, 16010, Note_on_c, 10, 38, 127
5, 16011, Note_on_c, 10, 40, 127
5, 16028, Note_on_c, 10, 38, 0
5, 16068, Note_on_c, 10, 40, 0
5, 16090, Note_on_c, 10, 38, 127
5, 16144, Note_on_c, 10, 38, 0
5, 16171, Note_on_c, 10, 36, 127
5, 16208, Note_on_c, 10, 36, 0
5, 16224, Note_on_c, 10, 33, 127
5, 16271, Note_on_c, 10, 33, 0
5, 16331, Note_on_c, 10, 36, 127
5, 16356, Note_on_c, 10, 36, 0
5, 16384, Note_on_c, 10, 38, 127
5, 16410, Note_on_c, 10, 38, 0
5, 16437, Note_on_c, 10, 31, 127
5, 16495, Note_on_c, 10, 31, 0
5, 16517, Note_on_c, 10, 32, 127
5, 16554, Note_on_c, 10, 32, 0
5, 16598, Note_on_c, 10, 33, 127
5, 16641, Note_on_c, 10, 33, 0
5, 16704, Note_on_c, 10, 33, 127
5, 16727, Note_on_c, 10, 33, 0
5, 16758, Note_on_c, 10, 36, 127
5, 16783, Note_on_c, 10, 36, 0
5, 16811, Note_on_c, 10, 38, 127
5, 16834, Note_on_c, 10, 38, 0
5, 16864, Note_on_c, 10, 38, 127
5, 16865, Note_on_c, 10, 40, 127
5, 16887, Note_on_c, 10, 38, 0
5, 16921, Note_on_c, 10, 40, 0
5, 16944, Note_on_c, 10, 38, 127
5, 17000, Note_on_c, 10, 38, 0
5, 17025, Note_on_c, 10, 36, 127
5, 17063, Note_on_c, 10, 36, 0
5, 17078, Note_on_c, 10, 33, 127
5, 17133, Note_on_c, 10, 33, 0
5, 17185, Note_on_c, 10, 36, 127
5, 17218, Note_on_c, 10, 36, 0
5, 17238, Note_on_c, 10, 38, 127
5, 17264, Note_on_c, 10, 38, 0
5, 17292, Note_on_c, 10, 31, 127
5, 17339, Note_on_c, 10, 31, 0
5, 17371, Note_on_c, 10, 32, 127
5, 17412, Note_on_c, 10, 32, 0
5, 17452, Note_on_c, 10, 33, 127
5, 17497, Note_on_c, 10, 33, 0
5, 17558, Note_on_c, 10, 33, 127
5, 17584, Note_on_c, 10, 33, 0
5, 17612, Note_on_c, 10, 36, 127
5, 17634, Note_on_c, 10, 36, 0
5, 17665, Note_on_c, 10, 38, 127
5, 17687, Note_on_c, 10, 38, 0
5, 17718, Note_on_c, 10, 38, 127
5, 17719, Note_on_c, 10, 40, 127
5, 17736, Note_on_c, 10, 38, 0
5, 17776, Note_on_c, 10, 40, 0
5, 17799, Note_on_c, 10, 38, 127
5, 17852, Note_on_c, 10, 38, 0
5, 17879, Note_on_c, 10, 36, 127
5, 17916, Note_on_c, 10, 36, 0
5, 17932, Note_on_c, 10, 33, 127
5, 18037, Note_on_c, 10, 33, 0
5, 18092, Note_on_c, 10, 33, 127
5, 18131, Note_on_c, 10, 33, 0
5, 18145, Note_on_c, 10, 33, 127
5, 18250, Note_on_c, 10, 33, 0
5, 18306, Note_on_c, 10, 33, 127
5, 18345, Note_on_c, 10, 33, 0
5, 18359, Note_on_c, 10, 33, 127
5, 18463, Note_on_c, 10, 33, 0
5, 18519, Note_on_c, 10, 33, 127
5, 18559, Note_on_c, 10, 33, 0
5, 18573, Note_on_c, 10, 33, 127
5, 18666, Note_on_c, 10, 33, 0
5, 18733, Note_on_c, 10, 33, 127
5, 18770, Note_on_c, 10, 33, 0
5, 18786, Note_on_c, 10, 33, 127
5, 18878, Note_on_c, 10, 33, 0
5, 18946, Note_on_c, 10, 33, 127
5, 18974, Note_on_c, 10, 33, 0
5, 19000, Note_on_c, 10, 33, 127
5, 19085, Note_on_c, 10, 33, 0
5, 19160, Note_on_c, 10, 33, 127
5, 19198, Note_on_c, 10, 33, 0
5, 19213, Note_on_c, 10, 33, 127
5, 19309, Note_on_c, 10, 33, 0
5, 19373, Note_on_c, 10, 33, 127
5, 19427, Note_on_c, 10, 31, 127
5, 19430, Note_on_c, 10, 33, 0
5, 19452, Note_on_c, 10, 31, 0
5, 19480, Note_on_c, 10, 31, 127
5, 19531, Note_on_c, 10, 31, 0
5, 19533, Note_on_c, 10, 32, 127
5, 19569, Note_on_c, 10, 32, 0
5, 19587, Note_on_c, 10, 32, 127
5, 19640, Note_on_c, 10, 33, 127
5, 19641, Note_on_c, 10, 32, 0
5, 19732, Note_on_c, 10, 33, 0
5, 19800, Note_on_c, 10, 33, 127
5, 19836, Note_on_c, 10, 33, 0
5, 19854, Note_on_c, 10, 33, 127
5, 19947, Note_on_c, 10, 33, 0
5, 20014, Note_on_c, 10, 33, 127
5, 20051, Note_on_c, 10, 33, 0
5, 20067, Note_on_c, 10, 33, 127
5, 20182, Note_on_c, 10, 33, 0
5, 20227, Note_on_c, 10, 33, 127
5, 20269, Note_on_c, 10, 33, 0
5, 20281, Note_on_c, 10, 33, 127
5, 20394, Note_on_c, 10, 33, 0
5, 20441, Note_on_c, 10, 33, 127
5, 20479, Note_on_c, 10, 33, 0
5, 20494, Note_on_c, 10, 33, 127
5, 20622, Note_on_c, 10, 33, 0
5, 20654, Note_on_c, 10, 33, 127
5, 20696, Note_on_c, 10, 33, 0
5, 20708, Note_on_c, 10, 33, 127
5, 20845, Note_on_c, 10, 33, 0
5, 20868, Note_on_c, 10, 33, 127
5, 20893, Note_on_c, 10, 33, 0
5, 20921, Note_on_c, 10, 33, 127
5, 21040, Note_on_c, 10, 33, 0
5, 21081, Note_on_c, 10, 33, 127
5, 21134, Note_on_c, 10, 33, 0
5, 21135, Note_on_c, 10, 31, 127
5, 21150, Note_on_c, 10, 31, 0
5, 21188, Note_on_c, 10, 31, 127
5, 21241, Note_on_c, 10, 32, 127
5, 21251, Note_on_c, 10, 31, 0
5, 21268, Note_on_c, 10, 32, 0
5, 21295, Note_on_c, 10, 32, 127
5, 21341, Note_on_c, 10, 32, 0
5, 21348, Note_on_c, 10, 33, 127
5, 21403, Note_on_c, 10, 33, 0
5, 21455, Note_on_c, 10, 36, 127
5, 21488, Note_on_c, 10, 36, 0
5, 21508, Note_on_c, 10, 38, 127
5, 21535, Note_on_c, 10, 38, 0
5, 21562, Note_on_c, 10, 31, 127
5, 21609, Note_on_c, 10, 31, 0
5, 21641, Note_on_c, 10, 32, 127
5, 21682, Note_on_c, 10, 32, 0
5, 21722, Note_on_c, 10, 33, 127
5, 21767, Note_on_c, 10, 33, 0
5, 21828, Note_on_c, 10, 33, 127
5, 21854, Note_on_c, 10, 33, 0
5, 21882, Note_on_c, 10, 36, 127
5, 21904, Note_on_c, 10, 36, 0
5, 21935, Note_on_c, 10, 38, 127
5, 21957, Note_on_c, 10, 38, 0
5, 21989, Note_on_c, 10, 38, 127
5, 21989, Note_on_c, 10, 40, 127
5, 22006, Note_on_c, 10, 38, 0
5, 22046, Note_on_c, 10, 40, 0
5, 22068, Note_on_c, 10, 38, 127
5, 22122, Note_on_c, 10, 38, 0
5, 22149, Note_on_c, 10, 36, 127
5, 22186, Note_on_c, 10, 36, 0
5, 22202, Note_on_c, 10, 33, 127
5, 22257, Note_on_c, 10, 33, 0
5, 22309, Note_on_c, 10, 36, 127
5, 22342, Note_on_c, 10, 36, 0
5, 22362, Note_on_c, 10, 38, 127
5, 22389, Note_on_c, 10, 38, 0
5, 22416, Note_on_c, 10, 31, 127
5, 22463, Note_on_c, 10, 31, 0
5, 22495, Note_on_c, 10, 32, 127
5, 22536, Note_on_c, 10, 32, 0
5, 22576, Note_on_c, 10, 33, 127
5, 22621, Note_on_c, 10, 33, 0
5, 22682, Note_on_c, 10, 33, 127
5, 22708, Note_on_c, 10, 33, 0
5, 22736, Note_on_c, 10, 36, 127
5, 22758, Note_on_c, 10, 36, 0
5, 22789, Note_on_c, 10, 38, 127
5, 22811, Note_on_c, 10, 38, 0
5, 22843, Note_on_c, 10, 38, 127
5, 22843, Note_on_c, 10, 40, 127
5, 22860, Note_on_c, 10, 38, 0
5, 22900, Note_on_c, 10, 40, 0
5, 22922, Note_on_c, 10, 38, 127
5, 22976, Note_on_c, 10, 38, 0
5, 23003, Note_on_c, 10, 36, 127
5, 23040, Note_on_c, 10, 36, 0
5, 23057, Note_on_c, 10, 33, 127
5, 23104, Note_on_c, 10, 33, 0
5, 23163, Note_on_c, 10, 36, 127
5, 23188, Note_on_c, 10, 36, 0
5, 23216, Note_on_c, 10, 38, 127
5, 23243, Note_on_c, 10, 38, 0
5, 23270, Note_on_c, 10, 31, 127
5, 23327, Note_on_c, 10, 31, 0
5, 23349, Note_on_c, 10, 32, 127
5, 23386, Note_on_c, 10, 32, 0
5, 23430, Note_on_c, 10, 33, 127
5, 23473, Note_on_c, 10, 33, 0
5, 23536, Note_on_c, 10, 33, 127
5, 23559, Note_on_c, 10, 33, 0
5, 23590, Note_on_c, 10, 36, 127
5, 23615, Note_on_c, 10, 36, 0
5, 23643, Note_on_c, 10, 38, 127
5, 23666, Note_on_c, 10, 38, 0
5, 23697, Note_on_c, 10, 38, 127
5, 23697, Note_on_c, 10, 40, 127
5, 23720, Note_on_c, 10, 38, 0
5, 23753, Note_on_c, 10, 40, 0
5, 23777, Note_on_c, 10, 38, 127
5, 23832, Note_on_c, 10, 38, 0
5, 23857, Note_on_c, 10, 36, 127
5, 23895, Note_on_c, 10, 36, 0
5, 23910, Note_on_c, 10, 33, 127
5, 23965, Note_on_c, 10, 33, 0
5, 24017, Note_on_c, 10, 36, 127
5, 24050, Note_on_c, 10, 36, 0
5, 24070, Note_on_c, 10, 38, 127
5, 24097, Note_on_c, 10, 38, 0
5, 24124, Note_on_c, 10, 31, 127
5, 24171, Note_on_c, 10, 31, 0
5, 24203, Note_on_c, 10, 32, 127
5, 24244, Note_on_c, 10, 32, 0
5, 24284, Note_on_c, 10, 33, 127
5, 24329, Note_on_c, 10, 33, 0
5, 24390, Note_on_c, 10, 33, 127
5, 24416, Note_on_c, 10, 33, 0
5, 24444, Note_on_c, 10, 36, 127
5, 24466, Note_on_c, 10, 36, 0
5, 24497, Note_on_c, 10, 38, 127
5, 24519, Note_on_c, 10, 38, 0
5, 24551, Note_on_c, 10, 38, 127
5, 24551, Note_on_c, 10, 40, 127
5, 24568, Note_on_c, 10, 38, 0
5, 24608, Note_on_c, 10, 40, 0
5, 24631, Note_on_c, 10, 38, 127
5, 24684, Note_on_c, 10, 38, 0
5, 24711, Note_on_c, 10, 36, 127
5, 24748, Note_on_c, 10, 36, 0
5, 28181, Note_on_c, 10, 33, 127
5, 28235, Note_on_c, 10, 33, 0
5, 28287, Note_on_c, 10, 36, 127
5, 28320, Note_on_c, 10, 36, 0
5, 28340, Note_on_c, 10, 38, 127
5, 28367, Note_on_c, 10, 38, 0
5, 28394, Note_on_c, 10, 31, 127
5, 28441, Note_on_c, 10, 31, 0
5, 28474, Note_on_c, 10, 32, 127
5, 28514, Note_on_c, 10, 32, 0
5, 28554, Note_on_c, 10, 33, 127
5, 28599, Note_on_c, 10, 33, 0
5, 28660, Note_on_c, 10, 33, 127
5, 28686, Note_on_c, 10, 33, 0
5, 28714, Note_on_c, 10, 36, 127
5, 28736, Note_on_c, 10, 36, 0
5, 28767, Note_on_c, 10, 38, 127
5, 28789, Note_on_c, 10, 38, 0
5, 28821, Note_on_c, 10, 38, 127
5, 28821, Note_on_c, 10, 40, 127
5, 28838, Note_on_c, 10, 38, 0
5, 28878, Note_on_c, 10, 40, 0
5, 28901, Note_on_c, 10, 38, 127
5, 28954, Note_on_c, 10, 38, 0
5, 28981, Note_on_c, 10, 36, 127
5, 29018, Note_on_c, 10, 36, 0
5, 29034, Note_on_c, 10, 33, 127
5, 29089, Note_on_c, 10, 33, 0
5, 29141, Note_on_c, 10, 36, 127
5, 29174, Note_on_c, 10, 36, 0
5, 29194, Note_on_c, 10, 38, 127
5, 29221, Note_on_c, 10, 38, 0
5, 29248, Note_on_c, 10, 31, 127
5, 29295, Note_on_c, 10, 31, 0
5, 29328, Note_on_c, 10, 32, 127
5, 29368, Note_on_c, 10, 32, 0
5, 29408, Note_on_c, 10, 33, 127
5, 29453, Note_on_c, 10, 33, 0
5, 29514, Note_on_c, 10, 33, 127
5, 29540, Note_on_c, 10, 33, 0
5, 29568, Note_on_c, 10, 36, 127
5, 29590, Note_on_c, 10, 36, 0
5, 29621, Note_on_c, 10, 38, 127
5, 29643, Note_on_c, 10, 38, 0
5, 29675, Note_on_c, 10, 38, 127
5, 29675, Note_on_c, 10, 40, 127
5, 29692, Note_on_c, 10, 38, 0
5, 29732, Note_on_c, 10, 40, 0
5, 29755, Note_on_c, 10, 38, 127
5, 29808, Note_on_c, 10, 38, 0
5, 29835, Note_on_c, 10, 36, 127
5, 29873, Note_on_c, 10, 36, 0
5, 29889, Note_on_c, 10, 33, 127
5, 29936, Note_on_c, 10, 33, 0
5, 29995, Note_on_c, 10, 36, 127
5, 30020, Note_on_c, 10, 36, 0
5, 30048, Note_on_c, 10, 38, 127
5, 30075, Note_on_c, 10, 38, 0
5, 30102, Note_on_c, 10, 31, 127
5, 30159, Note_on_c, 10, 31, 0
5, 30182, Note_on_c, 10, 32, 127
5, 30218, Note_on_c, 10, 32, 0
5, 30262, Note_on_c, 10, 33, 127
5, 30305, Note_on_c, 10, 33, 0
5, 30368, Note_on_c, 10, 33, 127
5, 30392, Note_on_c, 10, 33, 0
5, 30422, Note_on_c, 10, 36, 127
5, 30447, Note_on_c, 10, 36, 0
5, 30475, Note_on_c, 10, 38, 127
5, 30498, Note_on_c, 10, 38, 0
5, 30529, Note_on_c, 10, 38, 127
5, 30529, Note_on_c, 10, 40, 127
5, 30552, Note_on_c, 10, 38, 0
5, 30585, Note_on_c, 10, 40, 0
5, 30609, Note_on_c, 10, 38, 127
5, 30664, Note_on_c, 10, 38, 0
5, 30689, Note_on_c, 10, 36, 127
5, 30727, Note_on_c, 10, 36, 0
5, 30742, Note_on_c, 10, 33, 127
5, 30797, Note_on_c, 10, 33, 0
5, 30849, Note_on_c, 10, 36, 127
5, 30882, Note_on_c, 10, 36, 0
5, 30902, Note_on_c, 10, 38, 127
5, 30929, Note_on_c, 10, 38, 0
5, 30956, Note_on_c, 10, 31, 127
5, 31003, Note_on_c, 10, 31, 0
5, 31036, Note_on_c, 10, 32, 127
5, 31076, Note_on_c, 10, 32, 0
5, 31116, Note_on_c, 10, 33, 127
5, 31161, Note_on_c, 10, 33, 0
5, 31222, Note_on_c, 10, 33, 127
5, 31248, Note_on_c, 10, 33, 0
5, 31276, Note_on_c, 10, 36, 127
5, 31298, Note_on_c, 10, 36, 0
5, 31329, Note_on_c, 10, 38, 127
5, 31351, Note_on_c, 10, 38, 0
5, 31383, Note_on_c, 10, 38, 127
5, 31383, Note_on_c, 10, 40, 127
5, 31400, Note_on_c, 10, 38, 0
5, 31440, Note_on_c, 10, 40, 0
5, 31463, Note_on_c, 10, 38, 127
5, 31516, Note_on_c, 10, 38, 0
5, 31543, Note_on_c, 10, 36, 127
5, 31580, Note_on_c, 10, 36, 0
5, 31597, Note_on_c, 10, 33, 127
5, 31651, Note_on_c, 10, 33, 0
5, 31703, Note_on_c, 10, 36, 127
5, 31736, Note_on_c, 10, 36, 0
5, 31756, Note_on_c, 10, 38, 127
5, 31783, Note_on_c, 10, 38, 0
5, 31810, Note_on_c, 10, 31, 127
5, 31857, Note_on_c, 10, 31, 0
5, 31890, Note_on_c, 10, 32, 127
5, 31930, Note_on_c, 10, 32, 0
5, 31970, Note_on_c, 10, 33, 127
5, 32015, Note_on_c, 10, 33, 0
5, 32076, Note_on_c, 10, 33, 127
5, 32102, Note_on_c, 10, 33, 0
5, 32130, Note_on_c, 10, 36, 127
5, 32152, Note_on_c, 10, 36, 0
5, 32183, Note_on_c, 10, 38, 127
5, 32205, Note_on_c, 10, 38, 0
5, 32237, Note_on_c, 10, 38, 127
5, 32237, Note_on_c, 10, 40, 127
5, 32254, Note_on_c, 10, 38, 0
5, 32294, Note_on_c, 10, 40, 0
5, 32317, Note_on_c, 10, 38, 127
5, 32370, Note_on_c, 10, 38, 0
5, 32397, Note_on_c, 10, 36, 127
5, 32434, Note_on_c, 10, 36, 0
5, 32450, Note_on_c, 10, 33, 127
5, 32505, Note_on_c, 10, 33, 0
5, 32557, Note_on_c, 10, 36, 127
5, 32590, Note_on_c, 10, 36, 0
5, 32610, Note_on_c, 10, 38, 127
5, 32637, Note_on_c, 10, 38, 0
5, 32664, Note_on_c, 10, 31, 127
5, 32711, Note_on_c, 10, 31, 0
5, 32744, Note_on_c, 10, 32, 127
5, 32785, Note_on_c, 10, 32, 0
5, 32824, Note_on_c, 10, 33, 127
5, 32869, Note_on_c, 10, 33, 0
5, 32930, Note_on_c, 10, 33, 127
5, 32956, Note_on_c, 10, 33, 0
5, 32984, Note_on_c, 10, 36, 127
5, 33006, Note_on_c, 10, 36, 0
5, 33037, Note_on_c, 10, 38, 127
5, 33059, Note_on_c, 10, 38, 0
5, 33091, Note_on_c, 10, 38, 127
5, 33091, Note_on_c, 10, 40, 127
5, 33108, Note_on_c, 10, 38, 0
5, 33148, Note_on_c, 10, 40, 0
5, 33171, Note_on_c, 10, 38, 127
5, 33224, Note_on_c, 10, 38, 0
5, 33251, Note_on_c, 10, 36, 127
5, 33288, Note_on_c, 10, 36, 0
5, 33305, Note_on_c, 10, 33, 127
5, 33352, Note_on_c, 10, 33, 0
5, 33411, Note_on_c, 10, 36, 127
5, 33436, Note_on_c, 10, 36, 0
5, 33464, Note_on_c, 10, 38, 127
5, 33491, Note_on_c, 10, 38, 0
5, 33518, Note_on_c, 10, 31, 127
5, 33575, Note_on_c, 10, 31, 0
5, 33598, Note_on_c, 10, 32, 127
5, 33634, Note_on_c, 10, 32, 0
5, 33678, Note_on_c, 10, 33, 127
5, 33721, Note_on_c, 10, 33, 0
5, 33784, Note_on_c, 10, 33, 127
5, 33808, Note_on_c, 10, 33, 0
5, 33838, Note_on_c, 10, 36, 127
5, 33863, Note_on_c, 10, 36, 0
5, 33891, Note_on_c, 10, 38, 127
5, 33914, Note_on_c, 10, 38, 0
5, 33945, Note_on_c, 10, 38, 127
5, 33945, Note_on_c, 10, 40, 127
5, 33968, Note_on_c, 10, 38, 0
5, 34001, Note_on_c, 10, 40, 0
5, 34025, Note_on_c, 10, 38, 127
5, 34080, Note_on_c, 10, 38, 0
5, 34105, Note_on_c, 10, 36, 127
5, 34143, Note_on_c, 10, 36, 0
5, 34158, Note_on_c, 10, 33, 127
5, 34213, Note_on_c, 10, 33, 0
5, 34265, Note_on_c, 10, 36, 127
5, 34298, Note_on_c, 10, 36, 0
5, 34318, Note_on_c, 10, 38, 127
5, 34345, Note_on_c, 10, 38, 0
5, 34372, Note_on_c, 10, 31, 127
5, 34419, Note_on_c, 10, 31, 0
5, 34452, Note_on_c, 10, 32, 127
5, 34493, Note_on_c, 10, 32, 0
5, 34532, Note_on_c, 10, 33, 127
5, 34577, Note_on_c, 10, 33, 0
5, 34638, Note_on_c, 10, 33, 127
5, 34664, Note_on_c, 10, 33, 0
5, 34692, Note_on_c, 10, 36, 127
5, 34714, Note_on_c, 10, 36, 0
5, 34745, Note_on_c, 10, 38, 127
5, 34767, Note_on_c, 10, 38, 0
5, 34799, Note_on_c, 10, 38, 127
5, 34799, Note_on_c, 10, 40, 127
5, 34816, Note_on_c, 10, 38, 0
5, 34856, Note_on_c, 10, 40, 0
5, 34879, Note_on_c, 10, 38, 127
5, 34932, Note_on_c, 10, 38, 0
5, 34959, Note_on_c, 10, 36, 127
5, 34997, Note_on_c, 10, 36, 0
5, 38429, Note_on_c, 10, 33, 127
5, 38483, Note_on_c, 10, 33, 0
5, 38535, Note_on_c, 10, 36, 127
5, 38568, Note_on_c, 10, 36, 0
5, 38588, Note_on_c, 10, 38, 127
5, 38615, Note_on_c, 10, 38, 0
5, 38642, Note_on_c, 10, 31, 127
5, 38689, Note_on_c, 10, 31, 0
5, 38722, Note_on_c, 10, 32, 127
5, 38763, Note_on_c, 10, 32, 0
5, 38802, Note_on_c, 10, 33, 127
5, 38847, Note_on_c, 10, 33, 0
5, 38908, Note_on_c, 10, 33, 127
5, 38934, Note_on_c, 10, 33, 0
5, 38962, Note_on_c, 10, 36, 127
5, 38984, Note_on_c, 10, 36, 0
5, 39015, Note_on_c, 10, 38, 127
5, 39037, Note_on_c, 10, 38, 0
5, 39069, Note_on_c, 10, 38, 127
5, 39069, Note_on_c, 10, 40, 127
5, 39086, Note_on_c, 10, 38, 0
5, 39126, Note_on_c, 10, 40, 0
5, 39149, Note_on_c, 10, 38, 127
5, 39202, Note_on_c, 10, 38, 0
5, 39229, Note_on_c, 10, 36, 127
5, 39266, Note_on_c, 10, 36, 0
5, 39282, Note_on_c, 10, 33, 127
5, 39337, Note_on_c, 10, 33, 0
5, 39389, Note_on_c, 10, 36, 127
5, 39422, Note_on_c, 10, 36, 0
5, 39442, Note_on_c, 10, 38, 127
5, 39469, Note_on_c, 10, 38, 0
5, 39496, Note_on_c, 10, 31, 127
5, 39543, Note_on_c, 10, 31, 0
5, 39576, Note_on_c, 10, 32, 127
5, 39617, Note_on_c, 10, 32, 0
5, 39656, Note_on_c, 10, 33, 127
5, 39701, Note_on_c, 10, 33, 0
5, 39762, Note_on_c, 10, 33, 127
5, 39788, Note_on_c, 10, 33, 0
5, 39816, Note_on_c, 10, 36, 127
5, 39838, Note_on_c, 10, 36, 0
5, 39869, Note_on_c, 10, 38, 127
5, 39891, Note_on_c, 10, 38, 0
5, 39923, Note_on_c, 10, 38, 127
5, 39923, Note_on_c, 10, 40, 127
5, 39940, Note_on_c, 10, 38, 0
5, 39980, Note_on_c, 10, 40, 0
5, 40003, Note_on_c, 10, 38, 127
5, 40056, Note_on_c, 10, 38, 0
5, 40083, Note_on_c, 10, 36, 127
5, 40120, Note_on_c, 10, 36, 0
5, 40137, Note_on_c, 10, 33, 127
5, 40184, Note_on_c, 10, 33, 0
5, 40243, Note_on_c, 10, 36, 127
5, 40268, Note_on_c, 10, 36, 0
5, 40296, Note_on_c, 10, 38, 127
5, 40323, Note_on_c, 10, 38, 0
5, 40350, Note_on_c, 10, 31, 127
5, 40407, Note_on_c, 10, 31, 0
5, 40430, Note_on_c, 10, 32, 127
5, 40466, Note_on_c, 10, 32, 0
5, 40510, Note_on_c, 10, 33, 127
5, 40553, Note_on_c, 10, 33, 0
5, 40616, Note_on_c, 10, 33, 127
5, 40640, Note_on_c, 10, 33, 0
5, 40670, Note_on_c, 10, 36, 127
5, 40695, Note_on_c, 10, 36, 0
5, 40723, Note_on_c, 10, 38, 127
5, 40746, Note_on_c, 10, 38, 0
5, 40777, Note_on_c, 10, 38, 127
5, 40777, Note_on_c, 10, 40, 127
5, 40800, Note_on_c, 10, 38, 0
5, 40833, Note_on_c, 10, 40, 0
5, 40857, Note_on_c, 10, 38, 127
5, 40912, Note_on_c, 10, 38, 0
5, 40937, Note_on_c, 10, 36, 127
5, 40975, Note_on_c, 10, 36, 0
5, 40990, Note_on_c, 10, 33, 127
5, 41045, Note_on_c, 10, 33, 0
5, 41097, Note_on_c, 10, 36, 127
5, 41130, Note_on_c, 10, 36, 0
5, 41150, Note_on_c, 10, 38, 127
5, 41177, Note_on_c, 10, 38, 0
5, 41204, Note_on_c, 10, 31, 127
5, 41251, Note_on_c, 10, 31, 0
5, 41284, Note_on_c, 10, 32, 127
5, 41325, Note_on_c, 10, 32, 0
5, 41364, Note_on_c, 10, 33, 127
5, 41409, Note_on_c, 10, 33, 0
5, 41471, Note_on_c, 10, 33, 127
5, 41496, Note_on_c, 10, 33, 0
5, 41524, Note_on_c, 10, 36, 127
5, 41546, Note_on_c, 10, 36, 0
5, 41577, Note_on_c, 10, 38, 127
5, 41599, Note_on_c, 10, 38, 0
5, 41631, Note_on_c, 10, 38, 127
5, 41631, Note_on_c, 10, 40, 127
5, 41648, Note_on_c, 10, 38, 0
5, 41688, Note_on_c, 10, 40, 0
5, 41711, Note_on_c, 10, 38, 127
5, 41764, Note_on_c, 10, 38, 0
5, 41791, Note_on_c, 10, 36, 127
5, 41828, Note_on_c, 10, 36, 0
5, 41845, Note_on_c, 10, 33, 127
5, 41892, Note_on_c, 10, 33, 0
5, 41951, Note_on_c, 10, 36, 127
5, 41976, Note_on_c, 10, 36, 0
5, 42004, Note_on_c, 10, 38, 127
5, 42031, Note_on_c, 10, 38, 0
5, 42058, Note_on_c, 10, 31, 127
5, 42115, Note_on_c, 10, 31, 0
5, 42138, Note_on_c, 10, 32, 127
5, 42174, Note_on_c, 10, 32, 0
5, 42218, Note_on_c, 10, 33, 127
5, 42261, Note_on_c, 10, 33, 0
5, 42325, Note_on_c, 10, 33, 127
5, 42348, Note_on_c, 10, 33, 0
5, 42378, Note_on_c, 10, 36, 127
5, 42403, Note_on_c, 10, 36, 0
5, 42431, Note_on_c, 10, 38, 127
5, 42454, Note_on_c, 10, 38, 0
5, 42485, Note_on_c, 10, 38, 127
5, 42485, Note_on_c, 10, 40, 127
5, 42508, Note_on_c, 10, 38, 0
5, 42541, Note_on_c, 10, 40, 0
5, 42565, Note_on_c, 10, 38, 127
5, 42620, Note_on_c, 10, 38, 0
5, 42645, Note_on_c, 10, 36, 127
5, 42683, Note_on_c, 10, 36, 0
5, 42698, Note_on_c, 10, 33, 127
5, 42754, Note_on_c, 10, 33, 0
5, 42805, Note_on_c, 10, 36, 127
5, 42838, Note_on_c, 10, 36, 0
5, 42858, Note_on_c, 10, 38, 127
5, 42885, Note_on_c, 10, 38, 0
5, 42912, Note_on_c, 10, 31, 127
5, 42959, Note_on_c, 10, 31, 0
5, 42992, Note_on_c, 10, 32, 127
5, 43033, Note_on_c, 10, 32, 0
5, 43072, Note_on_c, 10, 33, 127
5, 43117, Note_on_c, 10, 33, 0
5, 43179, Note_on_c, 10, 33, 127
5, 43204, Note_on_c, 10, 33, 0
5, 43232, Note_on_c, 10, 36, 127
5, 43254, Note_on_c, 10, 36, 0
5, 43285, Note_on_c, 10, 38, 127
5, 43307, Note_on_c, 10, 38, 0
5, 43339, Note_on_c, 10, 38, 127
5, 43339, Note_on_c, 10, 40, 127
5, 43356, Note_on_c, 10, 38, 0
5, 43396, Note_on_c, 10, 40, 0
5, 43419, Note_on_c, 10, 38, 127
5, 43472, Note_on_c, 10, 38, 0
5, 43499, Note_on_c, 10, 36, 127
5, 43536, Note_on_c, 10, 36, 0
5, 43553, Note_on_c, 10, 33, 127
5, 43608, Note_on_c, 10, 33, 0
5, 43659, Note_on_c, 10, 36, 127
5, 43692, Note_on_c, 10, 36, 0
5, 43712, Note_on_c, 10, 38, 127
5, 43739, Note_on_c, 10, 38, 0
5, 43766, Note_on_c, 10, 31, 127
5, 43813, Note_on_c, 10, 31, 0
5, 43846, Note_on_c, 10, 32, 127
5, 43887, Note_on_c, 10, 32, 0
5, 43926, Note_on_c, 10, 33, 127
5, 43971, Note_on_c, 10, 33, 0
5, 44033, Note_on_c, 10, 33, 127
5, 44058, Note_on_c, 10, 33, 0
5, 44086, Note_on_c, 10, 36, 127
5, 44108, Note_on_c, 10, 36, 0
5, 44139, Note_on_c, 10, 38, 127
5, 44161, Note_on_c, 10, 38, 0
5, 44193, Note_on_c, 10, 38, 127
5, 44193, Note_on_c, 10, 40, 127
5, 44210, Note_on_c, 10, 38, 0
5, 44250, Note_on_c, 10, 40, 0
5, 44273, Note_on_c, 10, 38, 127
5, 44326, Note_on_c, 10, 38, 0
5, 44353, Note_on_c, 10, 36, 127
5, 44390, Note_on_c, 10, 36, 0
5, 44406, Note_on_c, 10, 33, 127
5, 44462, Note_on_c, 10, 33, 0
5, 44513, Note_on_c, 10, 36, 127
5, 44546, Note_on_c, 10, 36, 0
5, 44566, Note_on_c, 10, 38, 127
5, 44593, Note_on_c, 10, 38, 0
5, 44620, Note_on_c, 10, 31, 127
5, 44667, Note_on_c, 10, 31, 0
5, 44700, Note_on_c, 10, 32, 127
5, 44741, Note_on_c, 10, 32, 0
5, 44780, Note_on_c, 10, 33, 127
5, 44825, Note_on_c, 10, 33, 0
5, 44887, Note_on_c, 10, 33, 127
5, 44912, Note_on_c, 10, 33, 0
5, 44940, Note_on_c, 10, 36, 127
5, 44962, Note_on_c, 10, 36, 0
5, 44993, Note_on_c, 10, 38, 127
5, 45015, Note_on_c, 10, 38, 0
5, 45047, Note_on_c, 10, 38, 127
5, 45047, Note_on_c, 10, 40, 127
5, 45064, Note_on_c, 10, 38, 0
5, 45104, Note_on_c, 10, 40, 0
5, 45127, Note_on_c, 10, 38, 127
5, 45180, Note_on_c, 10, 38, 0
5, 45207, Note_on_c, 10, 36, 127
5, 45245, Note_on_c, 10, 36, 0
5, 45261, Note_on_c, 10, 33, 127
5, 45308, Note_on_c, 10, 33, 0
5, 45367, Note_on_c, 10, 36, 127
5, 45392, Note_on_c, 10, 36, 0
5, 45420, Note_on_c, 10, 38, 127
5, 45447, Note_on_c, 10, 38, 0
5, 45474, Note_on_c, 10, 31, 127
5, 45531, Note_on_c, 10, 31, 0
5, 45554, Note_on_c, 10, 32, 127
5, 45590, Note_on_c, 10, 32, 0
5, 45634, Note_on_c, 10, 33, 127
5, 45677, Note_on_c, 10, 33, 0
5, 45741, Note_on_c, 10, 33, 127
5, 45764, Note_on_c, 10, 33, 0
5, 45794, Note_on_c, 10, 36, 127
5, 45819, Note_on_c, 10, 36, 0
5, 45847, Note_on_c, 10, 38, 127
5, 45870, Note_on_c, 10, 38, 0
5, 45901, Note_on_c, 10, 38, 127
5, 45901, Note_on_c, 10, 40, 127
5, 45924, Note_on_c, 10, 38, 0
5, 45957, Note_on_c, 10, 40, 0
5, 45981, Note_on_c, 10, 38, 127
5, 46036, Note_on_c, 10, 38, 0
5, 46061, Note_on_c, 10, 36, 127
5, 46099, Note_on_c, 10, 36, 0
5, 46115, Note_on_c, 10, 33, 127
5, 46170, Note_on_c, 10, 33, 0
5, 46221, Note_on_c, 10, 36, 127
5, 46254, Note_on_c, 10, 36, 0
5, 46274, Note_on_c, 10, 38, 127
5, 46301, Note_on_c, 10, 38, 0
5, 46328, Note_on_c, 10, 31, 127
5, 46375, Note_on_c, 10, 31, 0
5, 46408, Note_on_c, 10, 32, 127
5, 46449, Note_on_c, 10, 32, 0
5, 46488, Note_on_c, 10, 33, 127
5, 46533, Note_on_c, 10, 33, 0
5, 46595, Note_on_c, 10, 33, 127
5, 46620, Note_on_c, 10, 33, 0
5, 46648, Note_on_c, 10, 36, 127
5, 46670, Note_on_c, 10, 36, 0
5, 46701, Note_on_c, 10, 38, 127
5, 46723, Note_on_c, 10, 38, 0
5, 46755, Note_on_c, 10, 38, 127
5, 46755, Note_on_c, 10, 40, 127
5, 46772, Note_on_c, 10, 38, 0
5, 46812, Note_on_c, 10, 40, 0
5, 46835, Note_on_c, 10, 38, 127
5, 46888, Note_on_c, 10, 38, 0
5, 46915, Note_on_c, 10, 36, 127
5, 46952, Note_on_c, 10, 36, 0
5, 46969, Note_on_c, 10, 33, 127
5, 47016, Note_on_c, 10, 33, 0
5, 47075, Note_on_c, 10, 36, 127
5, 47100, Note_on_c, 10, 36, 0
5, 47128, Note_on_c, 10, 38, 127
5, 47155, Note_on_c, 10, 38, 0
5, 47182, Note_on_c, 10, 31, 127
5, 47239, Note_on_c, 10, 31, 0
5, 47262, Note_on_c, 10, 32, 127
5, 47298, Note_on_c, 10, 32, 0
5, 47342, Note_on_c, 10, 33, 127
5, 47385, Note_on_c, 10, 33, 0
5, 47449, Note_on_c, 10, 33, 127
5, 47472, Note_on_c, 10, 33, 0
5, 47502, Note_on_c, 10, 36, 127
5, 47527, Note_on_c, 10, 36, 0
5, 47555, Note_on_c, 10, 38, 127
5, 47578, Note_on_c, 10, 38, 0
5, 47609, Note_on_c, 10, 38, 127
5, 47609, Note_on_c, 10, 40, 127
5, 47632, Note_on_c, 10, 38, 0
5, 47665, Note_on_c, 10, 40, 0
5, 47689, Note_on_c, 10, 38, 127
5, 47744, Note_on_c, 10, 38, 0
5, 47769, Note_on_c, 10, 36, 127
5, 47808, Note_on_c, 10, 36, 0
5, 47823, Note_on_c, 10, 33, 127
5, 47878, Note_on_c, 10, 33, 0
5, 47929, Note_on_c, 10, 36, 127
5, 47962, Note_on_c, 10, 36, 0
5, 47982, Note_on_c, 10, 38, 127
5, 48009, Note_on_c, 10, 38, 0
5, 48036, Note_on_c, 10, 31, 127
5, 48083, Note_on_c, 10, 31, 0
5, 48116, Note_on_c, 10, 32, 127
5, 48157, Note_on_c, 10, 32, 0
5, 48196, Note_on_c, 10, 33, 127
5, 48241, Note_on_c, 10, 33, 0
5, 48303, Note_on_c, 10, 33, 127
5, 48328, Note_on_c, 10, 33, 0
5, 48356, Note_on_c, 10, 36, 127
5, 48378, Note_on_c, 10, 36, 0
5, 48409, Note_on_c, 10, 38, 127
5, 48431, Note_on_c, 10, 38, 0
5, 48463, Note_on_c, 10, 38, 127
5, 48463, Note_on_c, 10, 40, 127
5, 48480, Note_on_c, 10, 38, 0
5, 48520, Note_on_c, 10, 40, 0
5, 48543, Note_on_c, 10, 38, 127
5, 48596, Note_on_c, 10, 38, 0
5, 48623, Note_on_c, 10, 36, 127
5, 48660, Note_on_c, 10, 36, 0
5, 48677, Note_on_c, 10, 33, 127
5, 48732, Note_on_c, 10, 33, 0
5, 48783, Note_on_c, 10, 36, 127
5, 48816, Note_on_c, 10, 36, 0
5, 48836, Note_on_c, 10, 38, 127
5, 48863, Note_on_c, 10, 38, 0
5, 48890, Note_on_c, 10, 31, 127
5, 48937, Note_on_c, 10, 31, 0
5, 48970, Note_on_c, 10, 32, 127
5, 49011, Note_on_c, 10, 32, 0
5, 49050, Note_on_c, 10, 33, 127
5, 49095, Note_on_c, 10, 33, 0
5, 49157, Note_on_c, 10, 33, 127
5, 49182, Note_on_c, 10, 33, 0
5, 49210, Note_on_c, 10, 36, 127
5, 49232, Note_on_c, 10, 36, 0
5, 49263, Note_on_c, 10, 38, 127
5, 49285, Note_on_c, 10, 38, 0
5, 49317, Note_on_c, 10, 38, 127
5, 49317, Note_on_c, 10, 40, 127
5, 49334, Note_on_c, 10, 38, 0
5, 49374, Note_on_c, 10, 40, 0
5, 49397, Note_on_c, 10, 38, 127
5, 49450, Note_on_c, 10, 38, 0
5, 49477, Note_on_c, 10, 36, 127
5, 49514, Note_on_c, 10, 36, 0
5, 49531, Note_on_c, 10, 33, 127
5, 49586, Note_on_c, 10, 33, 0
5, 49637, Note_on_c, 10, 36, 127
5, 49670, Note_on_c, 10, 36, 0
5, 49690, Note_on_c, 10, 38, 127
5, 49717, Note_on_c, 10, 38, 0
5, 49744, Note_on_c, 10, 31, 127
5, 49791, Note_on_c, 10, 31, 0
5, 49824, Note_on_c, 10, 32, 127
5, 49865, Note_on_c, 10, 32, 0
5, 49904, Note_on_c, 10, 33, 127
5, 49949, Note_on_c, 10, 33, 0
5, 50011, Note_on_c, 10, 33, 127
5, 50036, Note_on_c, 10, 33, 0
5, 50064, Note_on_c, 10, 36, 127
5, 50086, Note_on_c, 10, 36, 0
5, 50117, Note_on_c, 10, 38, 127
5, 50139, Note_on_c, 10, 38, 0
5, 50171, Note_on_c, 10, 38, 127
5, 50171, Note_on_c, 10, 40, 127
5, 50188, Note_on_c, 10, 38, 0
5, 50228, Note_on_c, 10, 40, 0
5, 50251, Note_on_c, 10, 38, 127
5, 50304, Note_on_c, 10, 38, 0
5, 50331, Note_on_c, 10, 36, 127
5, 50368, Note_on_c, 10, 36, 0
5, 50385, Note_on_c, 10, 33, 127
5, 50432, Note_on_c, 10, 33, 0
5, 50491, Note_on_c, 10, 36, 127
5, 50516, Note_on_c, 10, 36, 0
5, 50544, Note_on_c, 10, 38, 127
5, 50571, Note_on_c, 10, 38, 0
5, 50598, Note_on_c, 10, 31, 127
5, 50655, Note_on_c, 10, 31, 0
5, 50678, Note_on_c, 10, 32, 127
5, 50714, Note_on_c, 10, 32, 0
5, 50758, Note_on_c, 10, 33, 127
5, 50801, Note_on_c, 10, 33, 0
5, 50865, Note_on_c, 10, 33, 127
5, 50888, Note_on_c, 10, 33, 0
5, 50918, Note_on_c, 10, 36, 127
5, 50943, Note_on_c, 10, 36, 0
5, 50971, Note_on_c, 10, 38, 127
5, 50994, Note_on_c, 10, 38, 0
5, 51025, Note_on_c, 10, 38, 127
5, 51025, Note_on_c, 10, 40, 127
5, 51048, Note_on_c, 10, 38, 0
5, 51081, Note_on_c, 10, 40, 0
5, 51105, Note_on_c, 10, 38, 127
5, 51160, Note_on_c, 10, 38, 0
5, 51185, Note_on_c, 10, 36, 127
5, 51224, Note_on_c, 10, 36, 0
5, 51239, Note_on_c, 10, 33, 127
5, 51294, Note_on_c, 10, 33, 0
5, 51345, Note_on_c, 10, 36, 127
5, 51378, Note_on_c, 10, 36, 0
5, 51398, Note_on_c, 10, 38, 127
5, 51425, Note_on_c, 10, 38, 0
5, 51452, Note_on_c, 10, 31, 127
5, 51499, Note_on_c, 10, 31, 0
5, 51532, Note_on_c, 10, 32, 127
5, 51573, Note_on_c, 10, 32, 0
5, 51612, Note_on_c, 10, 33, 127
5, 51657, Note_on_c, 10, 33, 0
5, 51719, Note_on_c, 10, 33, 127
5, 51744, Note_on_c, 10, 33, 0
5, 51772, Note_on_c, 10, 36, 127
5, 51794, Note_on_c, 10, 36, 0
5, 51826, Note_on_c, 10, 38, 127
5, 51847, Note_on_c, 10, 38, 0
5, 51879, Note_on_c, 10, 38, 127
5, 51879, Note_on_c, 10, 40, 127
5, 51896, Note_on_c, 10, 38, 0
5, 51936, Note_on_c, 10, 40, 0
5, 51959, Note_on_c, 10, 38, 127
5, 52012, Note_on_c, 10, 38, 0
5, 52039, Note_on_c, 10, 36, 127
5, 52076, Note_on_c, 10, 36, 0
5, 52093, Note_on_c, 10, 33, 127
5, 52140, Note_on_c, 10, 33, 0
5, 52199, Note_on_c, 10, 36, 127
5, 52224, Note_on_c, 10, 36, 0
5, 52252, Note_on_c, 10, 38, 127
5, 52279, Note_on_c, 10, 38, 0
5, 52306, Note_on_c, 10, 31, 127
5, 52363, Note_on_c, 10, 31, 0
5, 52386, Note_on_c, 10, 32, 127
5, 52422, Note_on_c, 10, 32, 0
5, 52466, Note_on_c, 10, 33, 127
5, 52509, Note_on_c, 10, 33, 0
5, 52573, Note_on_c, 10, 33, 127
5, 52596, Note_on_c, 10, 33, 0
5, 52626, Note_on_c, 10, 36, 127
5, 52651, Note_on_c, 10, 36, 0
5, 52679, Note_on_c, 10, 38, 127
5, 52702, Note_on_c, 10, 38, 0
5, 52733, Note_on_c, 10, 38, 127
5, 52733, Note_on_c, 10, 40, 127
5, 52756, Note_on_c, 10, 38, 0
5, 52789, Note_on_c, 10, 40, 0
5, 52813, Note_on_c, 10, 38, 127
5, 52868, Note_on_c, 10, 38, 0
5, 52893, Note_on_c, 10, 36, 127
5, 52932, Note_on_c, 10, 36, 0
5, 52947, Note_on_c, 10, 33, 127
5, 53002, Note_on_c, 10, 33, 0
5, 53053, Note_on_c, 10, 36, 127
5, 53086, Note_on_c, 10, 36, 0
5, 53106, Note_on_c, 10, 38, 127
5, 53133, Note_on_c, 10, 38, 0
5, 53160, Note_on_c, 10, 31, 127
5, 53207, Note_on_c, 10, 31, 0
5, 53240, Note_on_c, 10, 32, 127
5, 53281, Note_on_c, 10, 32, 0
5, 53320, Note_on_c, 10, 33, 127
5, 53365, Note_on_c, 10, 33, 0
5, 53427, Note_on_c, 10, 33, 127
5, 53452, Note_on_c, 10, 33, 0
5, 53480, Note_on_c, 10, 36, 127
5, 53502, Note_on_c, 10, 36, 0
5, 53534, Note_on_c, 10, 38, 127
5, 53555, Note_on_c, 10, 38, 0
5, 53587, Note_on_c, 10, 38, 127
5, 53587, Note_on_c, 10, 40, 127
5, 53604, Note_on_c, 10, 38, 0
5, 53644, Note_on_c, 10, 40, 0
5, 53667, Note_on_c, 10, 38, 127
5, 53720, Note_on_c, 10, 38, 0
5, 53747, Note_on_c, 10, 36, 127
5, 53784, Note_on_c, 10, 36, 0
5, 53801, Note_on_c, 10, 33, 127
5, 53856, Note_on_c, 10, 33, 0
5, 53907, Note_on_c, 10, 36, 127
5, 53940, Note_on_c, 10, 36, 0
5, 53960, Note_on_c, 10, 38, 127
5, 53987, Note_on_c, 10, 38, 0
5, 54014, Note_on_c, 10, 31, 127
5, 54061, Note_on_c, 10, 31, 0
5, 54094, Note_on_c, 10, 32, 127
5, 54135, Note_on_c, 10, 32, 0
5, 54174, Note_on_c, 10, 33, 127
5, 54219, Note_on_c, 10, 33, 0
5, 54281, Note_on_c, 10, 33, 127
5, 54306, Note_on_c, 10, 33, 0
5, 54334, Note_on_c, 10, 36, 127
5, 54356, Note_on_c, 10, 36, 0
5, 54387, Note_on_c, 10, 38, 127
5, 54409, Note_on_c, 10, 38, 0
5, 54441, Note_on_c, 10, 38, 127
5, 54441, Note_on_c, 10, 40, 127
5, 54458, Note_on_c, 10, 38, 0
5, 54498, Note_on_c, 10, 40, 0
5, 54521, Note_on_c, 10, 38, 127
5, 54574, Note_on_c, 10, 38, 0
5, 54601, Note_on_c, 10, 36, 127
5, 54638, Note_on_c, 10, 36, 0
5, 54655, Note_on_c, 10, 33, 127
5, 54710, Note_on_c, 10, 33, 0
5, 54761, Note_on_c, 10, 36, 127
5, 54794, Note_on_c, 10, 36, 0
5, 54815, Note_on_c, 10, 38, 127
5, 54841, Note_on_c, 10, 38, 0
5, 54868, Note_on_c, 10, 31, 127
5, 54915, Note_on_c, 10, 31, 0
5, 54948, Note_on_c, 10, 32, 127
5, 54989, Note_on_c, 10, 32, 0
5, 55028, Note_on_c, 10, 33, 127
5, 55073, Note_on_c, 10, 33, 0
5, 55135, Note_on_c, 10, 33, 127
5, 55160, Note_on_c, 10, 33, 0
5, 55188, Note_on_c, 10, 36, 127
5, 55210, Note_on_c, 10, 36, 0
5, 55242, Note_on_c, 10, 38, 127
5, 55263, Note_on_c, 10, 38, 0
5, 55295, Note_on_c, 10, 38, 127
5, 55295, Note_on_c, 10, 40, 127
5, 55312, Note_on_c, 10, 38, 0
5, 55352, Note_on_c, 10, 40, 0
5, 55375, Note_on_c, 10, 38, 127
5, 55428, Note_on_c, 10, 38, 0
5, 55455, Note_on_c, 10, 36, 127
5, 55492, Note_on_c, 10, 36, 0
5, 55509, Note_on_c, 10, 33, 127
5, 55556, Note_on_c, 10, 33, 0
5, 55615, Note_on_c, 10, 36, 127
5, 55640, Note_on_c, 10, 36, 0
5, 55668, Note_on_c, 10, 38, 127
5, 55695, Note_on_c, 10, 38, 0
5, 55722, Note_on_c, 10, 31, 127
5, 55779, Note_on_c, 10, 31, 0
5, 55802, Note_on_c, 10, 32, 127
5, 55838, Note_on_c, 10, 32, 0
5, 55882, Note_on_c, 10, 33, 127
5, 55925, Note_on_c, 10, 33, 0
5, 55989, Note_on_c, 10, 33, 127
5, 56012, Note_on_c, 10, 33, 0
5, 56042, Note_on_c, 10, 36, 127
5, 56067, Note_on_c, 10, 36, 0
5, 56096, Note_on_c, 10, 38, 127
5, 56119, Note_on_c, 10, 38, 0
5, 56149, Note_on_c, 10, 38, 127
5, 56149, Note_on_c, 10, 40, 127
5, 56172, Note_on_c, 10, 38, 0
5, 56205, Note_on_c, 10, 40, 0
5, 56229, Note_on_c, 10, 38, 127
5, 56284, Note_on_c, 10, 38, 0
5, 56309, Note_on_c, 10, 36, 127
5, 56348, Note_on_c, 10, 36, 0
5, 56363, Note_on_c, 10, 33, 127
5, 56418, Note_on_c, 10, 33, 0
5, 56469, Note_on_c, 10, 36, 127
5, 56502, Note_on_c, 10, 36, 0
5, 56523, Note_on_c, 10, 38, 127
5, 56549, Note_on_c, 10, 38, 0
5, 56576, Note_on_c, 10, 31, 127
5, 56623, Note_on_c, 10, 31, 0
5, 56656, Note_on_c, 10, 32, 127
5, 56697, Note_on_c, 10, 32, 0
5, 56736, Note_on_c, 10, 33, 127
5, 56781, Note_on_c, 10, 33, 0
5, 56843, Note_on_c, 10, 33, 127
5, 56868, Note_on_c, 10, 33, 0
5, 56896, Note_on_c, 10, 36, 127
5, 56918, Note_on_c, 10, 36, 0
5, 56950, Note_on_c, 10, 38, 127
5, 56971, Note_on_c, 10, 38, 0
5, 57003, Note_on_c, 10, 38, 127
5, 57003, Note_on_c, 10, 40, 127
5, 57020, Note_on_c, 10, 38, 0
5, 57060, Note_on_c, 10, 40, 0
5, 57083, Note_on_c, 10, 38, 127
5, 57136, Note_on_c, 10, 38, 0
5, 57163, Note_on_c, 10, 36, 127
5, 57201, Note_on_c, 10, 36, 0
5, 57217, Note_on_c, 10, 33, 127
5, 57264, Note_on_c, 10, 33, 0
5, 57323, Note_on_c, 10, 36, 127
5, 57348, Note_on_c, 10, 36, 0
5, 57377, Note_on_c, 10, 38, 127
5, 57403, Note_on_c, 10, 38, 0
5, 57430, Note_on_c, 10, 31, 127
5, 57487, Note_on_c, 10, 31, 0
5, 57510, Note_on_c, 10, 32, 127
5, 57546, Note_on_c, 10, 32, 0
5, 57590, Note_on_c, 10, 33, 127
5, 57633, Note_on_c, 10, 33, 0
5, 57697, Note_on_c, 10, 33, 127
5, 57720, Note_on_c, 10, 33, 0
5, 57750, Note_on_c, 10, 36, 127
5, 57775, Note_on_c, 10, 36, 0
5, 57804, Note_on_c, 10, 38, 127
5, 57827, Note_on_c, 10, 38, 0
5, 57857, Note_on_c, 10, 38, 127
5, 57857, Note_on_c, 10, 40, 127
5, 57880, Note_on_c, 10, 38, 0
5, 57913, Note_on_c, 10, 40, 0
5, 57937, Note_on_c, 10, 38, 127
5, 57992, Note_on_c, 10, 38, 0
5, 58017, Note_on_c, 10, 36, 127
5, 58056, Note_on_c, 10, 36, 0
5, 58071, Note_on_c, 10, 33, 127
5, 58126, Note_on_c, 10, 33, 0
5, 58177, Note_on_c, 10, 36, 127
5, 58210, Note_on_c, 10, 36, 0
5, 58231, Note_on_c, 10, 38, 127
5, 58257, Note_on_c, 10, 38, 0
5, 58284, Note_on_c, 10, 31, 127
5, 58331, Note_on_c, 10, 31, 0
5, 58364, Note_on_c, 10, 32, 127
5, 58405, Note_on_c, 10, 32, 0
5, 58444, Note_on_c, 10, 33, 127
5, 58489, Note_on_c, 10, 33, 0
5, 58551, Note_on_c, 10, 33, 127
5, 58576, Note_on_c, 10, 33, 0
5, 58604, Note_on_c, 10, 36, 127
5, 58626, Note_on_c, 10, 36, 0
5, 58658, Note_on_c, 10, 38, 127
5, 58679, Note_on_c, 10, 38, 0
5, 58711, Note_on_c, 10, 38, 127
5, 58711, Note_on_c, 10, 40, 127
5, 58728, Note_on_c, 10, 38, 0
5, 58768, Note_on_c, 10, 40, 0
5, 58791, Note_on_c, 10, 38, 127
5, 58844, Note_on_c, 10, 38, 0
5, 58871, Note_on_c, 10, 36, 127
5, 58909, Note_on_c, 10, 36, 0
5, 58909, End_track
0, 0, End_of_file
