0, 0, Header, 0, 1, 384
1, 0, Start_track
1, 0, Title_t, "© Co-Created & Edited by Nokio :Þ"
1, 0, Control_c, 2, 0, 0
1, 0, Program_c, 2, 1
1, 0, Control_c, 2, 7, 116
1, 0, Control_c, 6, 0, 0
1, 0, Program_c, 6, 48
1, 0, Control_c, 6, 7, 116
1, 0, Control_c, 6, 10, 84
1, 0, Control_c, 6, 91, 67
1, 0, Control_c, 6, 93, 0
1, 0, Control_c, 7, 0, 0
1, 0, Program_c, 7, 81
1, 0, Control_c, 7, 7, 116
1, 0, Control_c, 7, 10, 64
1, 0, Control_c, 7, 91, 67
1, 0, Control_c, 7, 93, 20
1, 0, Control_c, 8, 0, 0
1, 0, Program_c, 8, 50
1, 0, Control_c, 8, 7, 116
1, 0, Control_c, 8, 10, 64
1, 0, Control_c, 8, 91, 67
1, 0, Control_c, 8, 93, 20
1, 0, Control_c, 0, 7, 116
1, 0, Time_signature, 4, 2, 96, 8
1, 0, Sequencer_specific, 3, 0, 0, 65
1, 0, Tempo, 674157
1, 0, Note_on_c, 2, 43, 109
1, 0, Note_on_c, 2, 53, 102
1, 0, Note_on_c, 2, 58, 105
1, 0, Note_on_c, 2, 62, 105
1, 0, Note_on_c, 6, 60, 82
1, 0, Note_on_c, 9, 36, 121
1, 0, Note_on_c, 9, 49, 97
1, 0, Note_on_c, 9, 70, 97
1, 0, Note_on_c, 1, 31, 125
1, 56, Note_off_c, 9, 70, 0
1, 112, Note_off_c, 9, 49, 0
1, 120, Note_off_c, 9, 36, 0
1, 160, Note_off_c, 2, 62, 0
1, 164, Note_off_c, 2, 53, 0
1, 168, Note_off_c, 2, 58, 0
1, 188, Note_off_c, 2, 43, 0
1, 192, Note_on_c, 9, 69, 121
1, 192, Note_on_c, 9, 70, 83
1, 200, Note_off_c, 1, 31, 0
1, 228, Note_off_c, 9, 69, 0
1, 240, Note_off_c, 9, 70, 0
1, 288, Note_on_c, 9, 69, 70
1, 320, Note_off_c, 9, 69, 0
1, 384, Note_on_c, 7, 67, 121
1, 384, Note_on_c, 9, 38, 121
1, 384, Note_on_c, 9, 70, 75
1, 428, Note_off_c, 9, 70, 0
1, 468, Note_off_c, 9, 38, 0
1, 576, Note_on_c, 2, 41, 107
1, 576, Note_on_c, 2, 53, 105
1, 576, Note_on_c, 2, 57, 109
1, 576, Note_on_c, 2, 60, 107
1, 576, Note_on_c, 9, 36, 121
1, 576, Note_on_c, 9, 70, 85
1, 576, Note_on_c, 9, 81, 111
1, 576, Note_on_c, 1, 29, 121
1, 620, Note_off_c, 7, 67, 0
1, 620, Note_off_c, 9, 70, 0
1, 636, Note_off_c, 9, 36, 0
1, 636, Note_off_c, 9, 81, 0
1, 708, Note_off_c, 2, 53, 0
1, 740, Note_off_c, 2, 41, 0
1, 744, Note_off_c, 2, 60, 0
1, 752, Note_off_c, 2, 57, 0
1, 752, Note_off_c, 1, 29, 0
1, 768, Note_on_c, 2, 43, 105
1, 768, Note_on_c, 2, 53, 103
1, 768, Note_on_c, 2, 58, 95
1, 768, Note_on_c, 2, 62, 107
1, 768, Pitch_bend_c, 7, 9984
1, 768, Note_on_c, 9, 36, 121
1, 768, Note_on_c, 9, 70, 100
1, 768, Note_on_c, 1, 31, 121
1, 772, Pitch_bend_c, 7, 12416
1, 776, Pitch_bend_c, 7, 14720
1, 780, Pitch_bend_c, 7, 16383
1, 784, Pitch_bend_c, 7, 14336
1, 788, Pitch_bend_c, 7, 12160
1, 792, Pitch_bend_c, 7, 9984
1, 796, Pitch_bend_c, 7, 8192
1, 812, Note_off_c, 9, 70, 0
1, 828, Note_off_c, 9, 36, 0
1, 864, Note_on_c, 9, 70, 89
1, 904, Note_off_c, 9, 70, 0
1, 916, Note_off_c, 2, 58, 0
1, 920, Note_off_c, 2, 62, 0
1, 924, Note_off_c, 2, 53, 0
1, 940, Note_off_c, 2, 43, 0
1, 960, Note_on_c, 9, 69, 116
1, 960, Note_on_c, 9, 70, 72
1, 976, Note_off_c, 1, 31, 0
1, 1000, Note_off_c, 9, 70, 0
1, 1008, Note_off_c, 9, 69, 0
1, 1056, Note_on_c, 9, 36, 116
1, 1056, Note_on_c, 9, 69, 79
1, 1088, Note_off_c, 9, 36, 0
1, 1096, Note_off_c, 9, 69, 0
1, 1144, Note_on_c, 7, 67, 118
1, 1152, Note_on_c, 9, 38, 121
1, 1152, Note_on_c, 9, 70, 94
1, 1160, Pitch_bend_c, 7, 8448
1, 1172, Pitch_bend_c, 7, 10880
1, 1180, Pitch_bend_c, 7, 14080
1, 1192, Pitch_bend_c, 7, 16383
1, 1196, Note_off_c, 9, 70, 0
1, 1272, Note_off_c, 9, 38, 0
1, 1344, Note_on_c, 9, 36, 111
1, 1344, Note_on_c, 9, 70, 94
1, 1344, Note_on_c, 9, 81, 107
1, 1376, Pitch_bend_c, 7, 15872
1, 1388, Pitch_bend_c, 7, 13952
1, 1396, Note_off_c, 9, 70, 0
1, 1400, Pitch_bend_c, 7, 11008
1, 1404, Note_off_c, 9, 36, 0
1, 1408, Note_off_c, 7, 67, 0
1, 1408, Pitch_bend_c, 7, 8192
1, 1408, Note_off_c, 9, 81, 0
1, 1412, Note_on_c, 7, 65, 92
1, 1460, Note_off_c, 7, 65, 0
1, 1464, Note_on_c, 7, 62, 112
1, 1532, Note_off_c, 7, 62, 0
1, 1536, Note_on_c, 2, 48, 109
1, 1536, Note_on_c, 2, 55, 105
1, 1536, Note_on_c, 2, 60, 107
1, 1536, Note_on_c, 2, 64, 103
1, 1536, Note_on_c, 7, 60, 112
1, 1536, Note_on_c, 9, 36, 121
1, 1536, Note_on_c, 9, 70, 104
1, 1536, Note_on_c, 1, 36, 123
1, 1584, Note_off_c, 9, 70, 0
1, 1632, Note_on_c, 9, 70, 94
1, 1656, Note_off_c, 9, 36, 0
1, 1684, Note_off_c, 9, 70, 0
1, 1728, Note_on_c, 9, 69, 111
1, 1728, Note_on_c, 9, 70, 81
1, 1772, Note_off_c, 9, 69, 0
1, 1788, Note_off_c, 9, 70, 0
1, 1824, Note_on_c, 9, 69, 70
1, 1880, Note_off_c, 9, 69, 0
1, 1920, Note_on_c, 9, 38, 121
1, 1920, Note_on_c, 9, 70, 85
1, 1976, Note_off_c, 9, 70, 0
1, 2004, Note_off_c, 9, 38, 0
1, 2112, Note_on_c, 9, 36, 121
1, 2112, Note_on_c, 9, 70, 71
1, 2112, Note_on_c, 9, 81, 116
1, 2168, Note_off_c, 9, 70, 0
1, 2172, Note_off_c, 9, 36, 0
1, 2172, Note_off_c, 9, 81, 0
1, 2304, Note_on_c, 9, 36, 121
1, 2304, Note_on_c, 9, 42, 97
1, 2304, Note_on_c, 9, 70, 104
1, 2336, Note_off_c, 9, 42, 0
1, 2352, Note_off_c, 9, 70, 0
1, 2364, Note_off_c, 9, 36, 0
1, 2400, Note_on_c, 9, 70, 92
1, 2444, Note_off_c, 9, 70, 0
1, 2496, Note_on_c, 9, 36, 116
1, 2496, Note_on_c, 9, 46, 107
1, 2496, Note_on_c, 9, 69, 111
1, 2496, Note_on_c, 9, 70, 104
1, 2528, Note_off_c, 9, 36, 0
1, 2544, Note_off_c, 9, 46, 0
1, 2544, Note_off_c, 9, 69, 0
1, 2544, Note_off_c, 9, 70, 0
1, 2592, Note_on_c, 9, 69, 74
1, 2592, Note_on_c, 9, 70, 92
1, 2628, Note_off_c, 9, 69, 0
1, 2636, Note_off_c, 9, 70, 0
1, 2684, Note_off_c, 6, 60, 64
1, 2688, Note_on_c, 6, 62, 82
1, 2688, Note_on_c, 9, 38, 121
1, 2688, Note_on_c, 9, 42, 89
1, 2688, Note_on_c, 9, 70, 104
1, 2724, Note_off_c, 9, 42, 0
1, 2736, Note_off_c, 9, 70, 0
1, 2784, Note_on_c, 9, 70, 104
1, 2808, Note_off_c, 9, 38, 0
1, 2832, Note_off_c, 9, 70, 0
1, 2848, Note_off_c, 7, 60, 0
1, 2880, Note_on_c, 9, 36, 111
1, 2880, Note_on_c, 9, 46, 104
1, 2880, Note_on_c, 9, 70, 100
1, 2880, Note_on_c, 9, 81, 111
1, 2912, Note_off_c, 2, 64, 0
1, 2924, Note_off_c, 9, 46, 0
1, 2932, Note_off_c, 9, 70, 0
1, 2940, Note_off_c, 9, 36, 0
1, 2940, Note_off_c, 9, 81, 0
1, 2976, Note_on_c, 9, 70, 94
1, 2980, Note_off_c, 2, 60, 0
1, 2992, Note_off_c, 2, 55, 0
1, 3024, Note_off_c, 2, 48, 0
1, 3024, Note_off_c, 9, 70, 0
1, 3040, Note_off_c, 1, 36, 0
1, 3068, Note_off_c, 6, 62, 0
1, 3072, Note_on_c, 2, 43, 112
1, 3072, Note_on_c, 2, 53, 103
1, 3072, Note_on_c, 2, 58, 103
1, 3072, Note_on_c, 2, 62, 107
1, 3072, Note_on_c, 6, 60, 83
1, 3072, Note_on_c, 7, 60, 121
1, 3072, Note_on_c, 9, 36, 121
1, 3072, Note_on_c, 9, 70, 97
1, 3072, Note_on_c, 1, 31, 125
1, 3128, Note_off_c, 9, 70, 0
1, 3192, Note_off_c, 9, 36, 0
1, 3252, Note_off_c, 7, 60, 0
1, 3256, Note_off_c, 2, 53, 0
1, 3256, Note_off_c, 2, 62, 0
1, 3264, Note_on_c, 7, 62, 116
1, 3264, Note_on_c, 9, 69, 121
1, 3264, Note_on_c, 9, 70, 83
1, 3268, Note_off_c, 2, 58, 0
1, 3272, Note_off_c, 1, 31, 0
1, 3276, Note_off_c, 2, 43, 0
1, 3300, Note_off_c, 9, 69, 0
1, 3312, Note_off_c, 9, 70, 0
1, 3360, Note_on_c, 9, 69, 70
1, 3392, Note_off_c, 9, 69, 0
1, 3448, Note_off_c, 7, 62, 0
1, 3456, Note_on_c, 7, 67, 124
1, 3456, Note_on_c, 9, 38, 121
1, 3456, Note_on_c, 9, 70, 75
1, 3500, Note_off_c, 9, 70, 0
1, 3508, Pitch_bend_c, 7, 8704
1, 3516, Pitch_bend_c, 7, 11392
1, 3524, Pitch_bend_c, 7, 13696
1, 3536, Pitch_bend_c, 7, 16383
1, 3540, Note_off_c, 9, 38, 0
1, 3648, Note_on_c, 2, 41, 103
1, 3648, Note_on_c, 2, 53, 105
1, 3648, Note_on_c, 2, 57, 107
1, 3648, Note_on_c, 2, 60, 105
1, 3648, Note_on_c, 9, 36, 121
1, 3648, Note_on_c, 9, 70, 85
1, 3648, Note_on_c, 9, 81, 111
1, 3648, Note_on_c, 1, 29, 121
1, 3660, Note_off_c, 7, 67, 0
1, 3692, Pitch_bend_c, 7, 14848
1, 3692, Note_off_c, 9, 70, 0
1, 3704, Pitch_bend_c, 7, 12928
1, 3708, Note_off_c, 9, 36, 0
1, 3708, Note_off_c, 9, 81, 0
1, 3716, Pitch_bend_c, 7, 11392
1, 3724, Pitch_bend_c, 7, 10240
1, 3736, Pitch_bend_c, 7, 9344
1, 3744, Pitch_bend_c, 7, 8704
1, 3756, Pitch_bend_c, 7, 8192
1, 3780, Note_off_c, 2, 53, 0
1, 3824, Note_off_c, 1, 29, 0
1, 3828, Note_off_c, 2, 60, 0
1, 3836, Note_off_c, 2, 41, 0
1, 3836, Note_off_c, 2, 57, 0
1, 3840, Note_on_c, 2, 43, 112
1, 3840, Note_on_c, 2, 53, 103
1, 3840, Note_on_c, 2, 58, 95
1, 3840, Note_on_c, 2, 62, 105
1, 3840, Note_on_c, 9, 36, 121
1, 3840, Note_on_c, 9, 70, 100
1, 3840, Note_on_c, 1, 31, 121
1, 3884, Note_off_c, 9, 70, 0
1, 3900, Note_off_c, 9, 36, 0
1, 3936, Note_on_c, 9, 70, 89
1, 3976, Note_off_c, 9, 70, 0
1, 3996, Note_off_c, 2, 53, 0
1, 3996, Note_off_c, 2, 62, 0
1, 4004, Note_off_c, 2, 58, 0
1, 4024, Note_off_c, 2, 43, 0
1, 4032, Note_on_c, 9, 69, 116
1, 4032, Note_on_c, 9, 70, 72
1, 4048, Note_off_c, 1, 31, 0
1, 4072, Note_off_c, 9, 70, 0
1, 4080, Note_off_c, 9, 69, 0
1, 4128, Note_on_c, 9, 36, 116
1, 4128, Note_on_c, 9, 69, 79
1, 4160, Note_off_c, 9, 36, 0
1, 4168, Note_off_c, 9, 69, 0
1, 4224, Note_on_c, 7, 67, 121
1, 4224, Note_on_c, 9, 38, 121
1, 4224, Note_on_c, 9, 70, 94
1, 4248, Pitch_bend_c, 7, 10752
1, 4256, Pitch_bend_c, 7, 13568
1, 4268, Pitch_bend_c, 7, 16383
1, 4268, Note_off_c, 9, 70, 0
1, 4344, Note_off_c, 9, 38, 0
1, 4416, Note_on_c, 9, 36, 111
1, 4416, Note_on_c, 9, 70, 94
1, 4416, Note_on_c, 9, 81, 107
1, 4468, Note_off_c, 9, 70, 0
1, 4476, Note_off_c, 9, 36, 0
1, 4480, Note_off_c, 9, 81, 0
1, 4492, Note_off_c, 7, 67, 0
1, 4556, Pitch_bend_c, 7, 14464
1, 4564, Pitch_bend_c, 7, 11776
1, 4576, Pitch_bend_c, 7, 9344
1, 4584, Pitch_bend_c, 7, 8192
1, 4604, Note_off_c, 6, 60, 0
1, 4608, Note_on_c, 2, 50, 107
1, 4608, Note_on_c, 2, 57, 107
1, 4608, Note_on_c, 2, 62, 107
1, 4608, Note_on_c, 2, 66, 100
1, 4608, Note_on_c, 6, 62, 82
1, 4608, Note_on_c, 6, 66, 69
1, 4608, Note_on_c, 7, 67, 124
1, 4608, Note_on_c, 9, 36, 121
1, 4608, Note_on_c, 9, 70, 104
1, 4608, Note_on_c, 1, 38, 123
1, 4624, Pitch_bend_c, 7, 9472
1, 4632, Pitch_bend_c, 7, 11392
1, 4640, Pitch_bend_c, 7, 13312
1, 4652, Pitch_bend_c, 7, 14720
1, 4656, Note_off_c, 9, 70, 0
1, 4660, Pitch_bend_c, 7, 16383
1, 4704, Note_on_c, 9, 70, 94
1, 4728, Note_off_c, 9, 36, 0
1, 4756, Note_off_c, 9, 70, 0
1, 4800, Note_on_c, 9, 69, 111
1, 4800, Note_on_c, 9, 70, 81
1, 4844, Note_off_c, 9, 69, 0
1, 4860, Note_off_c, 9, 70, 0
1, 4896, Note_on_c, 9, 69, 70
1, 4952, Note_off_c, 9, 69, 0
1, 4992, Note_on_c, 9, 38, 121
1, 4992, Note_on_c, 9, 70, 85
1, 5048, Note_off_c, 9, 70, 0
1, 5076, Note_off_c, 9, 38, 0
1, 5184, Note_on_c, 9, 36, 121
1, 5184, Note_on_c, 9, 70, 71
1, 5184, Note_on_c, 9, 81, 116
1, 5240, Note_off_c, 9, 70, 0
1, 5244, Note_off_c, 9, 36, 0
1, 5244, Note_off_c, 9, 81, 0
1, 5376, Note_on_c, 9, 36, 121
1, 5376, Note_on_c, 9, 42, 97
1, 5376, Note_on_c, 9, 70, 104
1, 5408, Note_off_c, 9, 42, 0
1, 5424, Note_off_c, 9, 70, 0
1, 5436, Note_off_c, 9, 36, 0
1, 5472, Note_on_c, 9, 70, 92
1, 5516, Note_off_c, 9, 70, 0
1, 5568, Note_on_c, 9, 36, 116
1, 5568, Note_on_c, 9, 46, 107
1, 5568, Note_on_c, 9, 69, 111
1, 5568, Note_on_c, 9, 70, 104
1, 5600, Note_off_c, 9, 36, 0
1, 5616, Note_off_c, 9, 46, 0
1, 5616, Note_off_c, 9, 69, 0
1, 5616, Note_off_c, 9, 70, 0
1, 5664, Note_on_c, 9, 69, 74
1, 5664, Note_on_c, 9, 70, 92
1, 5700, Note_off_c, 9, 69, 0
1, 5708, Note_off_c, 9, 70, 0
1, 5760, Note_on_c, 2, 57, 113
1, 5760, Note_on_c, 9, 38, 121
1, 5760, Note_on_c, 9, 42, 89
1, 5760, Note_on_c, 9, 70, 104
1, 5796, Note_off_c, 9, 42, 0
1, 5808, Note_off_c, 9, 70, 0
1, 5852, Note_off_c, 2, 57, 0
1, 5856, Note_on_c, 2, 58, 103
1, 5856, Note_on_c, 9, 70, 104
1, 5880, Note_off_c, 9, 38, 0
1, 5900, Note_off_c, 7, 67, 0
1, 5904, Note_off_c, 9, 70, 0
1, 5944, Note_off_c, 2, 58, 0
1, 5952, Note_on_c, 2, 55, 107
1, 5952, Note_on_c, 9, 36, 111
1, 5952, Note_on_c, 9, 46, 104
1, 5952, Note_on_c, 9, 70, 100
1, 5952, Note_on_c, 9, 81, 111
1, 5964, Pitch_bend_c, 7, 14976
1, 5972, Pitch_bend_c, 7, 13440
1, 5980, Pitch_bend_c, 7, 11776
1, 5992, Pitch_bend_c, 7, 9856
1, 5996, Note_off_c, 9, 46, 0
1, 6004, Pitch_bend_c, 7, 8192
1, 6004, Note_off_c, 9, 70, 0
1, 6012, Note_off_c, 9, 36, 0
1, 6012, Note_off_c, 9, 81, 0
1, 6044, Note_off_c, 2, 55, 0
1, 6048, Note_on_c, 2, 53, 105
1, 6048, Note_on_c, 9, 70, 94
1, 6068, Note_off_c, 2, 66, 0
1, 6076, Note_off_c, 6, 66, 0
1, 6080, Note_off_c, 2, 62, 0
1, 6088, Note_off_c, 2, 57, 0
1, 6096, Note_off_c, 9, 70, 0
1, 6112, Note_off_c, 2, 50, 0
1, 6112, Note_off_c, 1, 38, 0
1, 6128, Note_off_c, 2, 53, 0
1, 6140, Note_off_c, 6, 62, 0
1, 6144, Note_on_c, 2, 43, 109
1, 6144, Note_on_c, 2, 53, 102
1, 6144, Note_on_c, 2, 58, 105
1, 6144, Note_on_c, 2, 62, 105
1, 6144, Note_on_c, 6, 60, 82
1, 6144, Note_on_c, 9, 36, 121
1, 6144, Note_on_c, 9, 70, 97
1, 6144, Note_on_c, 1, 31, 125
1, 6200, Note_off_c, 9, 70, 0
1, 6264, Note_off_c, 9, 36, 0
1, 6304, Note_off_c, 2, 62, 0
1, 6308, Note_off_c, 2, 53, 0
1, 6312, Note_off_c, 2, 58, 0
1, 6332, Note_off_c, 2, 43, 0
1, 6336, Note_on_c, 9, 69, 121
1, 6336, Note_on_c, 9, 70, 83
1, 6344, Note_off_c, 1, 31, 0
1, 6372, Note_off_c, 9, 69, 0
1, 6384, Note_off_c, 9, 70, 0
1, 6432, Note_on_c, 9, 69, 70
1, 6464, Note_off_c, 9, 69, 0
1, 6528, Note_on_c, 7, 67, 121
1, 6528, Note_on_c, 9, 38, 121
1, 6528, Note_on_c, 9, 70, 75
1, 6572, Pitch_bend_c, 7, 9984
1, 6572, Note_off_c, 9, 70, 0
1, 6584, Pitch_bend_c, 7, 12416
1, 6596, Pitch_bend_c, 7, 14720
1, 6604, Pitch_bend_c, 7, 16383
1, 6612, Note_off_c, 9, 38, 0
1, 6720, Note_on_c, 2, 41, 107
1, 6720, Note_on_c, 2, 53, 105
1, 6720, Note_on_c, 2, 57, 109
1, 6720, Note_on_c, 2, 60, 107
1, 6720, Note_on_c, 9, 36, 121
1, 6720, Note_on_c, 9, 70, 85
1, 6720, Note_on_c, 9, 81, 111
1, 6720, Note_on_c, 1, 29, 121
1, 6764, Note_off_c, 7, 67, 0
1, 6764, Note_off_c, 9, 70, 0
1, 6780, Note_off_c, 9, 36, 0
1, 6780, Note_off_c, 9, 81, 0
1, 6804, Pitch_bend_c, 7, 14336
1, 6816, Pitch_bend_c, 7, 12160
1, 6824, Pitch_bend_c, 7, 9984
1, 6836, Pitch_bend_c, 7, 8192
1, 6852, Note_off_c, 2, 53, 0
1, 6884, Note_off_c, 2, 41, 0
1, 6888, Note_off_c, 2, 60, 0
1, 6896, Note_off_c, 2, 57, 0
1, 6896, Note_off_c, 1, 29, 0
1, 6912, Note_on_c, 2, 43, 105
1, 6912, Note_on_c, 2, 53, 103
1, 6912, Note_on_c, 2, 58, 95
1, 6912, Note_on_c, 2, 62, 107
1, 6912, Note_on_c, 9, 36, 121
1, 6912, Note_on_c, 9, 70, 100
1, 6912, Note_on_c, 1, 31, 121
1, 6956, Note_off_c, 9, 70, 0
1, 6972, Note_off_c, 9, 36, 0
1, 7008, Note_on_c, 9, 70, 89
1, 7048, Note_off_c, 9, 70, 0
1, 7060, Note_off_c, 2, 58, 0
1, 7064, Note_off_c, 2, 62, 0
1, 7068, Note_off_c, 2, 53, 0
1, 7084, Note_off_c, 2, 43, 0
1, 7104, Note_on_c, 9, 69, 116
1, 7104, Note_on_c, 9, 70, 72
1, 7120, Note_off_c, 1, 31, 0
1, 7144, Note_off_c, 9, 70, 0
1, 7152, Note_off_c, 9, 69, 0
1, 7200, Note_on_c, 9, 36, 116
1, 7200, Note_on_c, 9, 69, 79
1, 7232, Note_off_c, 9, 36, 0
1, 7240, Note_off_c, 9, 69, 0
1, 7288, Note_on_c, 7, 67, 118
1, 7296, Note_on_c, 9, 38, 121
1, 7296, Note_on_c, 9, 70, 94
1, 7304, Pitch_bend_c, 7, 8448
1, 7316, Pitch_bend_c, 7, 10880
1, 7324, Pitch_bend_c, 7, 14080
1, 7336, Pitch_bend_c, 7, 16383
1, 7340, Note_off_c, 9, 70, 0
1, 7416, Note_off_c, 9, 38, 0
1, 7488, Note_on_c, 9, 36, 111
1, 7488, Note_on_c, 9, 70, 94
1, 7488, Note_on_c, 9, 81, 107
1, 7520, Pitch_bend_c, 7, 15872
1, 7532, Pitch_bend_c, 7, 13952
1, 7540, Note_off_c, 9, 70, 0
1, 7544, Pitch_bend_c, 7, 11008
1, 7548, Note_off_c, 9, 36, 0
1, 7552, Note_off_c, 7, 67, 0
1, 7552, Pitch_bend_c, 7, 8192
1, 7552, Note_off_c, 9, 81, 0
1, 7556, Note_on_c, 7, 65, 92
1, 7604, Note_off_c, 7, 65, 0
1, 7608, Note_on_c, 7, 62, 112
1, 7676, Note_off_c, 7, 62, 0
1, 7680, Note_on_c, 2, 48, 109
1, 7680, Note_on_c, 2, 55, 105
1, 7680, Note_on_c, 2, 60, 107
1, 7680, Note_on_c, 2, 64, 103
1, 7680, Note_on_c, 7, 60, 112
1, 7680, Note_on_c, 9, 36, 121
1, 7680, Note_on_c, 9, 70, 104
1, 7680, Note_on_c, 1, 36, 123
1, 7728, Note_off_c, 9, 70, 0
1, 7776, Note_on_c, 9, 70, 94
1, 7800, Note_off_c, 9, 36, 0
1, 7828, Note_off_c, 9, 70, 0
1, 7872, Note_on_c, 9, 69, 111
1, 7872, Note_on_c, 9, 70, 81
1, 7916, Note_off_c, 9, 69, 0
1, 7932, Note_off_c, 9, 70, 0
1, 7968, Note_on_c, 9, 69, 70
1, 8024, Note_off_c, 9, 69, 0
1, 8064, Note_on_c, 9, 38, 121
1, 8064, Note_on_c, 9, 70, 85
1, 8120, Note_off_c, 9, 70, 0
1, 8148, Note_off_c, 9, 38, 0
1, 8256, Note_on_c, 9, 36, 121
1, 8256, Note_on_c, 9, 70, 71
1, 8256, Note_on_c, 9, 81, 116
1, 8312, Note_off_c, 9, 70, 0
1, 8316, Note_off_c, 9, 36, 0
1, 8316, Note_off_c, 9, 81, 0
1, 8448, Note_on_c, 9, 36, 121
1, 8448, Note_on_c, 9, 42, 97
1, 8448, Note_on_c, 9, 70, 104
1, 8480, Note_off_c, 9, 42, 0
1, 8496, Note_off_c, 9, 70, 0
1, 8508, Note_off_c, 9, 36, 0
1, 8544, Note_on_c, 9, 70, 92
1, 8588, Note_off_c, 9, 70, 0
1, 8640, Note_on_c, 9, 36, 116
1, 8640, Note_on_c, 9, 46, 107
1, 8640, Note_on_c, 9, 69, 111
1, 8640, Note_on_c, 9, 70, 104
1, 8672, Note_off_c, 9, 36, 0
1, 8688, Note_off_c, 9, 46, 0
1, 8688, Note_off_c, 9, 69, 0
1, 8688, Note_off_c, 9, 70, 0
1, 8736, Note_on_c, 9, 69, 74
1, 8736, Note_on_c, 9, 70, 92
1, 8772, Note_off_c, 9, 69, 0
1, 8780, Note_off_c, 9, 70, 0
1, 8828, Note_off_c, 6, 60, 64
1, 8832, Note_on_c, 6, 62, 82
1, 8832, Note_on_c, 9, 38, 121
1, 8832, Note_on_c, 9, 42, 89
1, 8832, Note_on_c, 9, 70, 104
1, 8868, Note_off_c, 9, 42, 0
1, 8880, Note_off_c, 9, 70, 0
1, 8928, Note_on_c, 9, 70, 104
1, 8952, Note_off_c, 9, 38, 0
1, 8976, Note_off_c, 9, 70, 0
1, 8992, Note_off_c, 7, 60, 0
1, 9024, Note_on_c, 9, 36, 111
1, 9024, Note_on_c, 9, 46, 104
1, 9024, Note_on_c, 9, 70, 100
1, 9024, Note_on_c, 9, 81, 111
1, 9056, Note_off_c, 2, 64, 0
1, 9068, Note_off_c, 9, 46, 0
1, 9076, Note_off_c, 9, 70, 0
1, 9084, Note_off_c, 9, 36, 0
1, 9084, Note_off_c, 9, 81, 0
1, 9120, Note_on_c, 9, 70, 94
1, 9124, Note_off_c, 2, 60, 0
1, 9136, Note_off_c, 2, 55, 0
1, 9168, Note_off_c, 2, 48, 0
1, 9168, Note_off_c, 9, 70, 0
1, 9184, Note_off_c, 1, 36, 0
1, 9212, Note_off_c, 6, 62, 0
1, 9216, Note_on_c, 2, 43, 112
1, 9216, Note_on_c, 2, 53, 103
1, 9216, Note_on_c, 2, 58, 103
1, 9216, Note_on_c, 2, 62, 107
1, 9216, Note_on_c, 6, 60, 83
1, 9216, Note_on_c, 7, 60, 121
1, 9216, Note_on_c, 9, 36, 121
1, 9216, Note_on_c, 9, 70, 97
1, 9216, Note_on_c, 1, 31, 125
1, 9272, Note_off_c, 9, 70, 0
1, 9336, Note_off_c, 9, 36, 0
1, 9396, Note_off_c, 7, 60, 0
1, 9400, Note_off_c, 2, 53, 0
1, 9400, Note_off_c, 2, 62, 0
1, 9408, Note_on_c, 7, 62, 116
1, 9408, Note_on_c, 9, 69, 121
1, 9408, Note_on_c, 9, 70, 83
1, 9412, Note_off_c, 2, 58, 0
1, 9416, Note_off_c, 1, 31, 0
1, 9420, Note_off_c, 2, 43, 0
1, 9444, Note_off_c, 9, 69, 0
1, 9456, Note_off_c, 9, 70, 0
1, 9504, Note_on_c, 9, 69, 70
1, 9536, Note_off_c, 9, 69, 0
1, 9592, Note_off_c, 7, 62, 0
1, 9600, Note_on_c, 7, 67, 124
1, 9600, Note_on_c, 9, 38, 121
1, 9600, Note_on_c, 9, 70, 75
1, 9644, Note_off_c, 9, 70, 0
1, 9652, Pitch_bend_c, 7, 8704
1, 9660, Pitch_bend_c, 7, 11392
1, 9668, Pitch_bend_c, 7, 13696
1, 9680, Pitch_bend_c, 7, 16383
1, 9684, Note_off_c, 9, 38, 0
1, 9792, Note_on_c, 2, 41, 103
1, 9792, Note_on_c, 2, 53, 105
1, 9792, Note_on_c, 2, 57, 107
1, 9792, Note_on_c, 2, 60, 105
1, 9792, Note_on_c, 9, 36, 121
1, 9792, Note_on_c, 9, 70, 85
1, 9792, Note_on_c, 9, 81, 111
1, 9792, Note_on_c, 1, 29, 121
1, 9804, Note_off_c, 7, 67, 0
1, 9836, Pitch_bend_c, 7, 14848
1, 9836, Note_off_c, 9, 70, 0
1, 9848, Pitch_bend_c, 7, 12928
1, 9852, Note_off_c, 9, 36, 0
1, 9852, Note_off_c, 9, 81, 0
1, 9860, Pitch_bend_c, 7, 11392
1, 9868, Pitch_bend_c, 7, 10240
1, 9880, Pitch_bend_c, 7, 9344
1, 9888, Pitch_bend_c, 7, 8704
1, 9900, Pitch_bend_c, 7, 8192
1, 9924, Note_off_c, 2, 53, 0
1, 9968, Note_off_c, 1, 29, 0
1, 9972, Note_off_c, 2, 60, 0
1, 9980, Note_off_c, 2, 41, 0
1, 9980, Note_off_c, 2, 57, 0
1, 9984, Note_on_c, 2, 43, 112
1, 9984, Note_on_c, 2, 53, 103
1, 9984, Note_on_c, 2, 58, 95
1, 9984, Note_on_c, 2, 62, 105
1, 9984, Note_on_c, 9, 36, 121
1, 9984, Note_on_c, 9, 70, 100
1, 9984, Note_on_c, 1, 31, 121
1, 10028, Note_off_c, 9, 70, 0
1, 10044, Note_off_c, 9, 36, 0
1, 10080, Note_on_c, 9, 70, 89
1, 10120, Note_off_c, 9, 70, 0
1, 10140, Note_off_c, 2, 53, 0
1, 10140, Note_off_c, 2, 62, 0
1, 10148, Note_off_c, 2, 58, 0
1, 10168, Note_off_c, 2, 43, 0
1, 10176, Note_on_c, 9, 69, 116
1, 10176, Note_on_c, 9, 70, 72
1, 10192, Note_off_c, 1, 31, 0
1, 10216, Note_off_c, 9, 70, 0
1, 10224, Note_off_c, 9, 69, 0
1, 10272, Note_on_c, 9, 36, 116
1, 10272, Note_on_c, 9, 69, 79
1, 10304, Note_off_c, 9, 36, 0
1, 10312, Note_off_c, 9, 69, 0
1, 10368, Note_on_c, 7, 67, 121
1, 10368, Note_on_c, 9, 38, 121
1, 10368, Note_on_c, 9, 70, 94
1, 10392, Pitch_bend_c, 7, 10752
1, 10400, Pitch_bend_c, 7, 13568
1, 10412, Pitch_bend_c, 7, 16383
1, 10412, Note_off_c, 9, 70, 0
1, 10488, Note_off_c, 9, 38, 0
1, 10560, Note_on_c, 9, 36, 111
1, 10560, Note_on_c, 9, 70, 94
1, 10560, Note_on_c, 9, 81, 107
1, 10612, Note_off_c, 9, 70, 0
1, 10620, Note_off_c, 9, 36, 0
1, 10624, Note_off_c, 9, 81, 0
1, 10636, Note_off_c, 7, 67, 0
1, 10700, Pitch_bend_c, 7, 14464
1, 10708, Pitch_bend_c, 7, 11776
1, 10720, Pitch_bend_c, 7, 9344
1, 10728, Pitch_bend_c, 7, 8192
1, 10748, Note_off_c, 6, 60, 0
1, 10752, Note_on_c, 2, 50, 107
1, 10752, Note_on_c, 2, 57, 107
1, 10752, Note_on_c, 2, 62, 107
1, 10752, Note_on_c, 2, 66, 100
1, 10752, Note_on_c, 6, 62, 82
1, 10752, Note_on_c, 6, 66, 69
1, 10752, Note_on_c, 7, 67, 124
1, 10752, Note_on_c, 9, 36, 121
1, 10752, Note_on_c, 9, 70, 104
1, 10752, Note_on_c, 1, 38, 123
1, 10768, Pitch_bend_c, 7, 9472
1, 10776, Pitch_bend_c, 7, 11392
1, 10784, Pitch_bend_c, 7, 13312
1, 10796, Pitch_bend_c, 7, 14720
1, 10800, Note_off_c, 9, 70, 0
1, 10804, Pitch_bend_c, 7, 16383
1, 10848, Note_on_c, 9, 70, 94
1, 10872, Note_off_c, 9, 36, 0
1, 10900, Note_off_c, 9, 70, 0
1, 10944, Note_on_c, 9, 69, 111
1, 10944, Note_on_c, 9, 70, 81
1, 10988, Note_off_c, 9, 69, 0
1, 11004, Note_off_c, 9, 70, 0
1, 11040, Note_on_c, 9, 69, 70
1, 11096, Note_off_c, 9, 69, 0
1, 11136, Note_on_c, 9, 38, 121
1, 11136, Note_on_c, 9, 70, 85
1, 11192, Note_off_c, 9, 70, 0
1, 11220, Note_off_c, 9, 38, 0
1, 11328, Note_on_c, 9, 36, 121
1, 11328, Note_on_c, 9, 70, 71
1, 11328, Note_on_c, 9, 81, 116
1, 11384, Note_off_c, 9, 70, 0
1, 11388, Note_off_c, 9, 36, 0
1, 11388, Note_off_c, 9, 81, 0
1, 11520, Note_on_c, 9, 36, 121
1, 11520, Note_on_c, 9, 42, 97
1, 11520, Note_on_c, 9, 70, 104
1, 11552, Note_off_c, 9, 42, 0
1, 11568, Note_off_c, 9, 70, 0
1, 11580, Note_off_c, 9, 36, 0
1, 11616, Note_on_c, 9, 70, 92
1, 11660, Note_off_c, 9, 70, 0
1, 11712, Note_on_c, 9, 36, 116
1, 11712, Note_on_c, 9, 46, 107
1, 11712, Note_on_c, 9, 69, 111
1, 11712, Note_on_c, 9, 70, 104
1, 11744, Note_off_c, 9, 36, 0
1, 11760, Note_off_c, 9, 46, 0
1, 11760, Note_off_c, 9, 69, 0
1, 11760, Note_off_c, 9, 70, 0
1, 11808, Note_on_c, 9, 69, 74
1, 11808, Note_on_c, 9, 70, 92
1, 11844, Note_off_c, 9, 69, 0
1, 11852, Note_off_c, 9, 70, 0
1, 11904, Note_on_c, 2, 57, 113
1, 11904, Note_on_c, 9, 38, 121
1, 11904, Note_on_c, 9, 42, 89
1, 11904, Note_on_c, 9, 70, 104
1, 11940, Note_off_c, 9, 42, 0
1, 11952, Note_off_c, 9, 70, 0
1, 11996, Note_off_c, 2, 57, 0
1, 12000, Note_on_c, 2, 58, 103
1, 12000, Note_on_c, 9, 70, 104
1, 12024, Note_off_c, 9, 38, 0
1, 12044, Note_off_c, 7, 67, 0
1, 12048, Note_off_c, 9, 70, 0
1, 12088, Note_off_c, 2, 58, 0
1, 12096, Note_on_c, 2, 55, 107
1, 12096, Note_on_c, 9, 36, 111
1, 12096, Note_on_c, 9, 46, 104
1, 12096, Note_on_c, 9, 70, 100
1, 12096, Note_on_c, 9, 81, 111
1, 12108, Pitch_bend_c, 7, 14976
1, 12116, Pitch_bend_c, 7, 13440
1, 12124, Pitch_bend_c, 7, 11776
1, 12136, Pitch_bend_c, 7, 9856
1, 12140, Note_off_c, 9, 46, 0
1, 12148, Pitch_bend_c, 7, 8192
1, 12148, Note_off_c, 9, 70, 0
1, 12156, Note_off_c, 9, 36, 0
1, 12156, Note_off_c, 9, 81, 0
1, 12188, Note_off_c, 2, 55, 0
1, 12192, Note_on_c, 2, 53, 105
1, 12192, Note_on_c, 9, 70, 94
1, 12212, Note_off_c, 2, 66, 0
1, 12220, Note_off_c, 6, 66, 0
1, 12224, Note_off_c, 2, 62, 0
1, 12232, Note_off_c, 2, 57, 0
1, 12240, Note_off_c, 9, 70, 0
1, 12256, Note_off_c, 2, 50, 0
1, 12256, Note_off_c, 1, 38, 0
1, 12272, Note_off_c, 2, 53, 0
1, 12284, Note_off_c, 6, 62, 0
1, 12288, Note_on_c, 2, 43, 109
1, 12288, Note_on_c, 2, 53, 102
1, 12288, Note_on_c, 2, 58, 105
1, 12288, Note_on_c, 2, 62, 105
1, 12288, Note_on_c, 9, 36, 121
1, 12288, Note_on_c, 9, 70, 97
1, 12288, Note_on_c, 1, 31, 125
1, 12344, Note_off_c, 9, 70, 0
1, 12408, Note_off_c, 9, 36, 0
1, 12448, Note_off_c, 2, 62, 0
1, 12452, Note_off_c, 2, 53, 0
1, 12456, Note_off_c, 2, 58, 0
1, 12476, Note_off_c, 2, 43, 0
1, 12480, Note_on_c, 9, 69, 121
1, 12488, Note_off_c, 1, 31, 0
1, 12516, Note_off_c, 9, 69, 0
1, 12576, Note_on_c, 9, 69, 70
1, 12608, Note_off_c, 9, 69, 0
1, 12864, Note_on_c, 2, 41, 107
1, 12864, Note_on_c, 2, 53, 105
1, 12864, Note_on_c, 2, 57, 109
1, 12864, Note_on_c, 2, 60, 107
1, 12864, Note_on_c, 9, 81, 111
1, 12864, Note_on_c, 1, 29, 121
1, 12924, Note_off_c, 9, 81, 0
1, 12996, Note_off_c, 2, 53, 0
1, 13028, Note_off_c, 2, 41, 0
1, 13032, Note_off_c, 2, 60, 0
1, 13040, Note_off_c, 2, 57, 0
1, 13040, Note_off_c, 1, 29, 0
1, 13056, Note_on_c, 2, 43, 105
1, 13056, Note_on_c, 2, 53, 103
1, 13056, Note_on_c, 2, 58, 95
1, 13056, Note_on_c, 2, 62, 107
1, 13056, Note_on_c, 1, 31, 121
1, 13204, Note_off_c, 2, 58, 0
1, 13208, Note_off_c, 2, 62, 0
1, 13212, Note_off_c, 2, 53, 0
1, 13228, Note_off_c, 2, 43, 0
1, 13248, Note_on_c, 9, 69, 116
1, 13264, Note_off_c, 1, 31, 0
1, 13296, Note_off_c, 9, 69, 0
1, 13344, Note_on_c, 9, 69, 79
1, 13384, Note_off_c, 9, 69, 0
1, 13440, Note_on_c, 9, 38, 121
1, 13560, Note_off_c, 9, 38, 0
1, 13632, Note_on_c, 9, 36, 111
1, 13632, Note_on_c, 9, 81, 107
1, 13692, Note_off_c, 9, 36, 0
1, 13696, Note_off_c, 9, 81, 0
1, 13824, Note_on_c, 2, 48, 109
1, 13824, Note_on_c, 2, 55, 105
1, 13824, Note_on_c, 2, 60, 107
1, 13824, Note_on_c, 2, 64, 103
1, 13824, Note_on_c, 8, 55, 81
1, 13824, Note_on_c, 8, 60, 82
1, 13824, Note_on_c, 8, 64, 79
1, 13824, Note_on_c, 9, 36, 121
1, 13824, Note_on_c, 9, 70, 104
1, 13824, Note_on_c, 1, 36, 123
1, 13872, Note_off_c, 9, 70, 0
1, 13920, Note_on_c, 9, 70, 94
1, 13944, Note_off_c, 9, 36, 0
1, 13972, Note_off_c, 9, 70, 0
1, 14016, Note_on_c, 9, 69, 111
1, 14016, Note_on_c, 9, 70, 81
1, 14060, Note_off_c, 9, 69, 0
1, 14076, Note_off_c, 9, 70, 0
1, 14112, Note_on_c, 9, 69, 70
1, 14168, Note_off_c, 9, 69, 0
1, 14208, Note_on_c, 9, 38, 121
1, 14208, Note_on_c, 9, 70, 85
1, 14264, Note_off_c, 9, 70, 0
1, 14292, Note_off_c, 9, 38, 0
1, 14400, Note_on_c, 9, 36, 121
1, 14400, Note_on_c, 9, 70, 71
1, 14400, Note_on_c, 9, 81, 116
1, 14456, Note_off_c, 9, 70, 0
1, 14460, Note_off_c, 9, 36, 0
1, 14460, Note_off_c, 9, 81, 0
1, 14592, Note_on_c, 9, 36, 121
1, 14592, Note_on_c, 9, 42, 97
1, 14592, Note_on_c, 9, 70, 104
1, 14624, Note_off_c, 9, 42, 0
1, 14640, Note_off_c, 9, 70, 0
1, 14652, Note_off_c, 9, 36, 0
1, 14688, Note_on_c, 9, 70, 92
1, 14732, Note_off_c, 9, 70, 0
1, 14784, Note_on_c, 9, 36, 116
1, 14784, Note_on_c, 9, 46, 107
1, 14784, Note_on_c, 9, 69, 111
1, 14784, Note_on_c, 9, 70, 104
1, 14816, Note_off_c, 9, 36, 0
1, 14832, Note_off_c, 9, 46, 0
1, 14832, Note_off_c, 9, 69, 0
1, 14832, Note_off_c, 9, 70, 0
1, 14880, Note_on_c, 9, 69, 74
1, 14880, Note_on_c, 9, 70, 92
1, 14916, Note_off_c, 9, 69, 0
1, 14924, Note_off_c, 9, 70, 0
1, 14976, Note_on_c, 9, 38, 121
1, 14976, Note_on_c, 9, 42, 89
1, 14976, Note_on_c, 9, 70, 104
1, 15012, Note_off_c, 9, 42, 0
1, 15024, Note_off_c, 9, 70, 0
1, 15072, Note_on_c, 9, 70, 104
1, 15096, Note_off_c, 9, 38, 0
1, 15120, Note_off_c, 9, 70, 0
1, 15168, Note_on_c, 9, 36, 111
1, 15168, Note_on_c, 9, 46, 104
1, 15168, Note_on_c, 9, 70, 100
1, 15168, Note_on_c, 9, 81, 111
1, 15200, Note_off_c, 2, 64, 0
1, 15212, Note_off_c, 9, 46, 0
1, 15220, Note_off_c, 9, 70, 0
1, 15228, Note_off_c, 9, 36, 0
1, 15228, Note_off_c, 9, 81, 0
1, 15264, Note_on_c, 9, 70, 94
1, 15268, Note_off_c, 2, 60, 0
1, 15280, Note_off_c, 2, 55, 0
1, 15312, Note_off_c, 2, 48, 0
1, 15312, Note_off_c, 9, 70, 0
1, 15328, Note_off_c, 8, 60, 0
1, 15328, Note_off_c, 1, 36, 0
1, 15332, Note_off_c, 8, 55, 0
1, 15332, Note_off_c, 8, 64, 0
1, 15360, Note_on_c, 2, 43, 112
1, 15360, Note_on_c, 2, 53, 103
1, 15360, Note_on_c, 2, 58, 103
1, 15360, Note_on_c, 2, 62, 107
1, 15360, Note_on_c, 9, 36, 121
1, 15360, Note_on_c, 9, 70, 97
1, 15360, Note_on_c, 1, 31, 125
1, 15416, Note_off_c, 9, 70, 0
1, 15480, Note_off_c, 9, 36, 0
1, 15544, Note_off_c, 2, 53, 0
1, 15544, Note_off_c, 2, 62, 0
1, 15552, Note_on_c, 9, 69, 121
1, 15552, Note_on_c, 9, 70, 83
1, 15556, Note_off_c, 2, 58, 0
1, 15560, Note_off_c, 1, 31, 0
1, 15564, Note_off_c, 2, 43, 0
1, 15588, Note_off_c, 9, 69, 0
1, 15600, Note_off_c, 9, 70, 0
1, 15648, Note_on_c, 9, 69, 70
1, 15680, Note_off_c, 9, 69, 0
1, 15744, Note_on_c, 9, 38, 121
1, 15744, Note_on_c, 9, 70, 75
1, 15788, Note_off_c, 9, 70, 0
1, 15828, Note_off_c, 9, 38, 0
1, 15936, Note_on_c, 2, 41, 103
1, 15936, Note_on_c, 2, 53, 105
1, 15936, Note_on_c, 2, 57, 107
1, 15936, Note_on_c, 2, 60, 105
1, 15936, Note_on_c, 9, 36, 121
1, 15936, Note_on_c, 9, 70, 85
1, 15936, Note_on_c, 9, 81, 111
1, 15936, Note_on_c, 1, 29, 121
1, 15980, Note_off_c, 9, 70, 0
1, 15996, Note_off_c, 9, 36, 0
1, 15996, Note_off_c, 9, 81, 0
1, 16068, Note_off_c, 2, 53, 0
1, 16112, Note_off_c, 1, 29, 0
1, 16116, Note_off_c, 2, 60, 0
1, 16124, Note_off_c, 2, 41, 0
1, 16124, Note_off_c, 2, 57, 0
1, 16128, Note_on_c, 2, 43, 112
1, 16128, Note_on_c, 2, 53, 103
1, 16128, Note_on_c, 2, 58, 95
1, 16128, Note_on_c, 2, 62, 105
1, 16128, Note_on_c, 9, 36, 121
1, 16128, Note_on_c, 9, 70, 100
1, 16128, Note_on_c, 1, 31, 121
1, 16172, Note_off_c, 9, 70, 0
1, 16188, Note_off_c, 9, 36, 0
1, 16224, Note_on_c, 9, 70, 89
1, 16264, Note_off_c, 9, 70, 0
1, 16284, Note_off_c, 2, 53, 0
1, 16284, Note_off_c, 2, 62, 0
1, 16292, Note_off_c, 2, 58, 0
1, 16312, Note_off_c, 2, 43, 0
1, 16320, Note_on_c, 9, 69, 116
1, 16320, Note_on_c, 9, 70, 72
1, 16336, Note_off_c, 1, 31, 0
1, 16360, Note_off_c, 9, 70, 0
1, 16368, Note_off_c, 9, 69, 0
1, 16416, Note_on_c, 9, 36, 116
1, 16416, Note_on_c, 9, 69, 79
1, 16448, Note_off_c, 9, 36, 0
1, 16456, Note_off_c, 9, 69, 0
1, 16512, Note_on_c, 9, 38, 121
1, 16512, Note_on_c, 9, 70, 94
1, 16556, Note_off_c, 9, 70, 0
1, 16632, Note_off_c, 9, 38, 0
1, 16704, Note_on_c, 9, 36, 111
1, 16704, Note_on_c, 9, 70, 94
1, 16704, Note_on_c, 9, 81, 107
1, 16756, Note_off_c, 9, 70, 0
1, 16764, Note_off_c, 9, 36, 0
1, 16768, Note_off_c, 9, 81, 0
1, 16896, Note_on_c, 2, 50, 107
1, 16896, Note_on_c, 2, 57, 107
1, 16896, Note_on_c, 2, 62, 107
1, 16896, Note_on_c, 2, 66, 100
1, 16896, Note_on_c, 8, 57, 84
1, 16896, Note_on_c, 8, 62, 83
1, 16896, Note_on_c, 8, 66, 76
1, 16896, Note_on_c, 9, 36, 121
1, 16896, Note_on_c, 9, 70, 104
1, 16896, Note_on_c, 1, 38, 123
1, 16944, Note_off_c, 9, 70, 0
1, 16992, Note_on_c, 9, 70, 94
1, 17016, Note_off_c, 9, 36, 0
1, 17044, Note_off_c, 9, 70, 0
1, 17088, Note_on_c, 9, 69, 111
1, 17088, Note_on_c, 9, 70, 81
1, 17132, Note_off_c, 9, 69, 0
1, 17148, Note_off_c, 9, 70, 0
1, 17184, Note_on_c, 9, 69, 70
1, 17240, Note_off_c, 9, 69, 0
1, 17280, Note_on_c, 9, 38, 121
1, 17280, Note_on_c, 9, 70, 85
1, 17336, Note_off_c, 9, 70, 0
1, 17364, Note_off_c, 9, 38, 0
1, 17472, Note_on_c, 9, 36, 121
1, 17472, Note_on_c, 9, 70, 71
1, 17472, Note_on_c, 9, 81, 116
1, 17528, Note_off_c, 9, 70, 0
1, 17532, Note_off_c, 9, 36, 0
1, 17532, Note_off_c, 9, 81, 0
1, 17664, Note_on_c, 9, 36, 121
1, 17664, Note_on_c, 9, 42, 97
1, 17664, Note_on_c, 9, 70, 104
1, 17696, Note_off_c, 9, 42, 0
1, 17712, Note_off_c, 9, 70, 0
1, 17724, Note_off_c, 9, 36, 0
1, 17760, Note_on_c, 9, 70, 92
1, 17804, Note_off_c, 9, 70, 0
1, 17856, Note_on_c, 9, 36, 116
1, 17856, Note_on_c, 9, 46, 107
1, 17856, Note_on_c, 9, 69, 111
1, 17856, Note_on_c, 9, 70, 104
1, 17888, Note_off_c, 9, 36, 0
1, 17904, Note_off_c, 9, 46, 0
1, 17904, Note_off_c, 9, 69, 0
1, 17904, Note_off_c, 9, 70, 0
1, 17952, Note_on_c, 9, 69, 74
1, 17952, Note_on_c, 9, 70, 92
1, 17988, Note_off_c, 9, 69, 0
1, 17996, Note_off_c, 9, 70, 0
1, 18048, Note_on_c, 2, 57, 113
1, 18048, Note_on_c, 9, 38, 121
1, 18048, Note_on_c, 9, 42, 89
1, 18048, Note_on_c, 9, 70, 104
1, 18084, Note_off_c, 9, 42, 0
1, 18096, Note_off_c, 9, 70, 0
1, 18140, Note_off_c, 2, 57, 0
1, 18144, Note_on_c, 2, 58, 103
1, 18144, Note_on_c, 9, 70, 104
1, 18168, Note_off_c, 9, 38, 0
1, 18192, Note_off_c, 9, 70, 0
1, 18232, Note_off_c, 2, 58, 0
1, 18240, Note_on_c, 2, 55, 107
1, 18240, Note_on_c, 9, 36, 111
1, 18240, Note_on_c, 9, 46, 104
1, 18240, Note_on_c, 9, 70, 100
1, 18240, Note_on_c, 9, 81, 111
1, 18284, Note_off_c, 9, 46, 0
1, 18292, Note_off_c, 9, 70, 0
1, 18300, Note_off_c, 9, 36, 0
1, 18300, Note_off_c, 9, 81, 0
1, 18332, Note_off_c, 2, 55, 0
1, 18336, Note_on_c, 2, 53, 105
1, 18336, Note_on_c, 9, 70, 94
1, 18356, Note_off_c, 2, 66, 0
1, 18368, Note_off_c, 2, 62, 0
1, 18376, Note_off_c, 2, 57, 0
1, 18384, Note_off_c, 8, 66, 0
1, 18384, Note_off_c, 9, 70, 0
1, 18388, Note_off_c, 8, 62, 0
1, 18396, Note_off_c, 8, 57, 0
1, 18400, Note_off_c, 2, 50, 0
1, 18400, Note_off_c, 1, 38, 0
1, 18416, Note_off_c, 2, 53, 0
1, 18432, Note_on_c, 2, 43, 109
1, 18432, Note_on_c, 2, 53, 102
1, 18432, Note_on_c, 2, 58, 105
1, 18432, Note_on_c, 2, 62, 105
1, 18432, Note_on_c, 9, 36, 121
1, 18432, Note_on_c, 9, 70, 97
1, 18432, Note_on_c, 1, 31, 125
1, 18488, Note_off_c, 9, 70, 0
1, 18552, Note_off_c, 9, 36, 0
1, 18592, Note_off_c, 2, 62, 0
1, 18596, Note_off_c, 2, 53, 0
1, 18600, Note_off_c, 2, 58, 0
1, 18620, Note_off_c, 2, 43, 0
1, 18624, Note_on_c, 9, 69, 121
1, 18624, Note_on_c, 9, 70, 83
1, 18632, Note_off_c, 1, 31, 0
1, 18660, Note_off_c, 9, 69, 0
1, 18672, Note_off_c, 9, 70, 0
1, 18720, Note_on_c, 9, 69, 70
1, 18752, Note_off_c, 9, 69, 0
1, 18816, Note_on_c, 9, 38, 121
1, 18816, Note_on_c, 9, 70, 75
1, 18860, Note_off_c, 9, 70, 0
1, 18900, Note_off_c, 9, 38, 0
1, 19008, Note_on_c, 2, 41, 107
1, 19008, Note_on_c, 2, 53, 105
1, 19008, Note_on_c, 2, 57, 109
1, 19008, Note_on_c, 2, 60, 107
1, 19008, Note_on_c, 9, 36, 121
1, 19008, Note_on_c, 9, 70, 85
1, 19008, Note_on_c, 9, 81, 111
1, 19008, Note_on_c, 1, 29, 121
1, 19052, Note_off_c, 9, 70, 0
1, 19068, Note_off_c, 9, 36, 0
1, 19068, Note_off_c, 9, 81, 0
1, 19140, Note_off_c, 2, 53, 0
1, 19172, Note_off_c, 2, 41, 0
1, 19176, Note_off_c, 2, 60, 0
1, 19184, Note_off_c, 2, 57, 0
1, 19184, Note_off_c, 1, 29, 0
1, 19200, Note_on_c, 2, 43, 105
1, 19200, Note_on_c, 2, 53, 103
1, 19200, Note_on_c, 2, 58, 95
1, 19200, Note_on_c, 2, 62, 107
1, 19200, Note_on_c, 9, 36, 121
1, 19200, Note_on_c, 9, 70, 100
1, 19200, Note_on_c, 1, 31, 121
1, 19244, Note_off_c, 9, 70, 0
1, 19260, Note_off_c, 9, 36, 0
1, 19296, Note_on_c, 9, 70, 89
1, 19336, Note_off_c, 9, 70, 0
1, 19348, Note_off_c, 2, 58, 0
1, 19352, Note_off_c, 2, 62, 0
1, 19356, Note_off_c, 2, 53, 0
1, 19372, Note_off_c, 2, 43, 0
1, 19392, Note_on_c, 9, 69, 116
1, 19392, Note_on_c, 9, 70, 72
1, 19408, Note_off_c, 1, 31, 0
1, 19432, Note_off_c, 9, 70, 0
1, 19440, Note_off_c, 9, 69, 0
1, 19488, Note_on_c, 9, 36, 116
1, 19488, Note_on_c, 9, 69, 79
1, 19520, Note_off_c, 9, 36, 0
1, 19528, Note_off_c, 9, 69, 0
1, 19584, Note_on_c, 9, 38, 121
1, 19584, Note_on_c, 9, 70, 94
1, 19628, Note_off_c, 9, 70, 0
1, 19704, Note_off_c, 9, 38, 0
1, 19776, Note_on_c, 9, 36, 111
1, 19776, Note_on_c, 9, 70, 94
1, 19776, Note_on_c, 9, 81, 107
1, 19828, Note_off_c, 9, 70, 0
1, 19836, Note_off_c, 9, 36, 0
1, 19840, Note_off_c, 9, 81, 0
1, 19968, Note_on_c, 2, 48, 109
1, 19968, Note_on_c, 2, 55, 105
1, 19968, Note_on_c, 2, 60, 107
1, 19968, Note_on_c, 2, 64, 103
1, 19968, Note_on_c, 8, 55, 81
1, 19968, Note_on_c, 8, 60, 82
1, 19968, Note_on_c, 8, 64, 79
1, 19968, Note_on_c, 9, 36, 121
1, 19968, Note_on_c, 9, 70, 104
1, 19968, Note_on_c, 1, 36, 123
1, 20016, Note_off_c, 9, 70, 0
1, 20064, Note_on_c, 9, 70, 94
1, 20088, Note_off_c, 9, 36, 0
1, 20116, Note_off_c, 9, 70, 0
1, 20160, Note_on_c, 9, 69, 111
1, 20160, Note_on_c, 9, 70, 81
1, 20204, Note_off_c, 9, 69, 0
1, 20220, Note_off_c, 9, 70, 0
1, 20256, Note_on_c, 9, 69, 70
1, 20312, Note_off_c, 9, 69, 0
1, 20352, Note_on_c, 9, 38, 121
1, 20352, Note_on_c, 9, 70, 85
1, 20408, Note_off_c, 9, 70, 0
1, 20436, Note_off_c, 9, 38, 0
1, 20544, Note_on_c, 9, 36, 121
1, 20544, Note_on_c, 9, 70, 71
1, 20544, Note_on_c, 9, 81, 116
1, 20600, Note_off_c, 9, 70, 0
1, 20604, Note_off_c, 9, 36, 0
1, 20604, Note_off_c, 9, 81, 0
1, 20736, Note_on_c, 9, 36, 121
1, 20736, Note_on_c, 9, 42, 97
1, 20736, Note_on_c, 9, 70, 104
1, 20768, Note_off_c, 9, 42, 0
1, 20784, Note_off_c, 9, 70, 0
1, 20796, Note_off_c, 9, 36, 0
1, 20832, Note_on_c, 9, 70, 92
1, 20876, Note_off_c, 9, 70, 0
1, 20928, Note_on_c, 9, 36, 116
1, 20928, Note_on_c, 9, 46, 107
1, 20928, Note_on_c, 9, 69, 111
1, 20928, Note_on_c, 9, 70, 104
1, 20960, Note_off_c, 9, 36, 0
1, 20976, Note_off_c, 9, 46, 0
1, 20976, Note_off_c, 9, 69, 0
1, 20976, Note_off_c, 9, 70, 0
1, 21024, Note_on_c, 9, 69, 74
1, 21024, Note_on_c, 9, 70, 92
1, 21060, Note_off_c, 9, 69, 0
1, 21068, Note_off_c, 9, 70, 0
1, 21120, Note_on_c, 9, 38, 121
1, 21120, Note_on_c, 9, 42, 89
1, 21120, Note_on_c, 9, 70, 104
1, 21156, Note_off_c, 9, 42, 0
1, 21168, Note_off_c, 9, 70, 0
1, 21216, Note_on_c, 9, 70, 104
1, 21240, Note_off_c, 9, 38, 0
1, 21264, Note_off_c, 9, 70, 0
1, 21312, Note_on_c, 9, 36, 111
1, 21312, Note_on_c, 9, 46, 104
1, 21312, Note_on_c, 9, 70, 100
1, 21312, Note_on_c, 9, 81, 111
1, 21344, Note_off_c, 2, 64, 0
1, 21356, Note_off_c, 9, 46, 0
1, 21364, Note_off_c, 9, 70, 0
1, 21372, Note_off_c, 9, 36, 0
1, 21372, Note_off_c, 9, 81, 0
1, 21408, Note_on_c, 9, 70, 94
1, 21412, Note_off_c, 2, 60, 0
1, 21424, Note_off_c, 2, 55, 0
1, 21456, Note_off_c, 2, 48, 0
1, 21456, Note_off_c, 9, 70, 0
1, 21472, Note_off_c, 8, 60, 0
1, 21472, Note_off_c, 1, 36, 0
1, 21476, Note_off_c, 8, 55, 0
1, 21476, Note_off_c, 8, 64, 0
1, 21504, Note_on_c, 2, 43, 112
1, 21504, Note_on_c, 2, 53, 103
1, 21504, Note_on_c, 2, 58, 103
1, 21504, Note_on_c, 2, 62, 107
1, 21504, Note_on_c, 9, 36, 121
1, 21504, Note_on_c, 9, 70, 97
1, 21504, Note_on_c, 1, 31, 125
1, 21560, Note_off_c, 9, 70, 0
1, 21608, Control_c, 0, 123, 0
1, 21612, Control_c, 0, 120, 0
1, 21616, Control_c, 0, 121, 0
1, 21624, Note_off_c, 9, 36, 0
1, 21688, Note_off_c, 2, 53, 0
1, 21688, Note_off_c, 2, 62, 0
1, 21696, Note_on_c, 9, 69, 121
1, 21696, Note_on_c, 9, 70, 83
1, 21700, Note_off_c, 2, 58, 0
1, 21704, Note_off_c, 1, 31, 0
1, 21708, Note_off_c, 2, 43, 0
1, 21720, Control_c, 7, 123, 0
1, 21724, Control_c, 7, 120, 0
1, 21728, Control_c, 7, 121, 0
1, 21732, Control_c, 7, 7, 127
1, 21732, Note_off_c, 9, 69, 0
1, 21736, Control_c, 8, 123, 0
1, 21740, Control_c, 8, 120, 0
1, 21744, Control_c, 8, 121, 0
1, 21744, Note_off_c, 9, 70, 0
1, 21748, Control_c, 8, 7, 127
1, 21792, Note_on_c, 9, 69, 70
1, 21824, Note_off_c, 9, 69, 0
1, 21888, Note_on_c, 9, 38, 121
1, 21888, Note_on_c, 9, 70, 75
1, 21932, Note_off_c, 9, 70, 0
1, 21972, Note_off_c, 9, 38, 0
1, 22080, Note_on_c, 2, 41, 103
1, 22080, Note_on_c, 2, 53, 105
1, 22080, Note_on_c, 2, 57, 107
1, 22080, Note_on_c, 2, 60, 105
1, 22080, Note_on_c, 9, 36, 121
1, 22080, Note_on_c, 9, 70, 85
1, 22080, Note_on_c, 9, 81, 111
1, 22080, Note_on_c, 1, 29, 121
1, 22124, Note_off_c, 9, 70, 0
1, 22140, Note_off_c, 9, 36, 0
1, 22140, Note_off_c, 9, 81, 0
1, 22212, Note_off_c, 2, 53, 0
1, 22256, Note_off_c, 1, 29, 0
1, 22260, Note_off_c, 2, 60, 0
1, 22268, Note_off_c, 2, 41, 0
1, 22268, Note_off_c, 2, 57, 0
1, 22272, Note_on_c, 2, 43, 112
1, 22272, Note_on_c, 2, 53, 103
1, 22272, Note_on_c, 2, 58, 95
1, 22272, Note_on_c, 2, 62, 105
1, 22272, Note_on_c, 9, 36, 121
1, 22272, Note_on_c, 9, 70, 100
1, 22272, Note_on_c, 1, 31, 121
1, 22316, Note_off_c, 9, 70, 0
1, 22332, Note_off_c, 9, 36, 0
1, 22368, Note_on_c, 9, 70, 89
1, 22408, Note_off_c, 9, 70, 0
1, 22428, Note_off_c, 2, 53, 0
1, 22428, Note_off_c, 2, 62, 0
1, 22436, Note_off_c, 2, 58, 0
1, 22456, Note_off_c, 2, 43, 0
1, 22464, Note_on_c, 9, 69, 116
1, 22464, Note_on_c, 9, 70, 72
1, 22480, Note_off_c, 1, 31, 0
1, 22504, Note_off_c, 9, 70, 0
1, 22512, Note_off_c, 9, 69, 0
1, 22560, Note_on_c, 9, 36, 116
1, 22560, Note_on_c, 9, 69, 79
1, 22592, Note_off_c, 9, 36, 0
1, 22600, Note_off_c, 9, 69, 0
1, 22656, Note_on_c, 9, 38, 121
1, 22656, Note_on_c, 9, 70, 94
1, 22700, Note_off_c, 9, 70, 0
1, 22776, Note_off_c, 9, 38, 0
1, 22848, Note_on_c, 9, 36, 111
1, 22848, Note_on_c, 9, 70, 94
1, 22848, Note_on_c, 9, 81, 107
1, 22900, Note_off_c, 9, 70, 0
1, 22908, Note_off_c, 9, 36, 0
1, 22912, Note_off_c, 9, 81, 0
1, 23040, Note_on_c, 2, 50, 107
1, 23040, Note_on_c, 2, 57, 107
1, 23040, Note_on_c, 2, 62, 107
1, 23040, Note_on_c, 2, 66, 100
1, 23040, Note_on_c, 8, 57, 84
1, 23040, Note_on_c, 8, 62, 83
1, 23040, Note_on_c, 8, 66, 76
1, 23040, Note_on_c, 9, 36, 121
1, 23040, Note_on_c, 9, 70, 104
1, 23040, Note_on_c, 1, 38, 123
1, 23088, Note_off_c, 9, 70, 0
1, 23136, Note_on_c, 9, 70, 94
1, 23160, Note_off_c, 9, 36, 0
1, 23188, Note_off_c, 9, 70, 0
1, 23232, Note_on_c, 9, 69, 111
1, 23232, Note_on_c, 9, 70, 81
1, 23276, Note_off_c, 9, 69, 0
1, 23292, Note_off_c, 9, 70, 0
1, 23328, Note_on_c, 9, 69, 70
1, 23384, Note_off_c, 9, 69, 0
1, 23424, Note_on_c, 9, 38, 121
1, 23424, Note_on_c, 9, 70, 85
1, 23480, Note_off_c, 9, 70, 0
1, 23508, Note_off_c, 9, 38, 0
1, 23616, Note_on_c, 9, 36, 121
1, 23616, Note_on_c, 9, 70, 71
1, 23616, Note_on_c, 9, 81, 116
1, 23672, Note_off_c, 9, 70, 0
1, 23676, Note_off_c, 9, 36, 0
1, 23676, Note_off_c, 9, 81, 0
1, 23808, Note_on_c, 9, 36, 121
1, 23808, Note_on_c, 9, 42, 97
1, 23808, Note_on_c, 9, 70, 104
1, 23840, Note_off_c, 9, 42, 0
1, 23856, Note_off_c, 9, 70, 0
1, 23868, Note_off_c, 9, 36, 0
1, 23904, Note_on_c, 9, 70, 92
1, 23948, Note_off_c, 9, 70, 0
1, 24000, Note_on_c, 9, 36, 116
1, 24000, Note_on_c, 9, 46, 107
1, 24000, Note_on_c, 9, 69, 111
1, 24000, Note_on_c, 9, 70, 104
1, 24032, Note_off_c, 9, 36, 0
1, 24048, Note_off_c, 9, 46, 0
1, 24048, Note_off_c, 9, 69, 0
1, 24048, Note_off_c, 9, 70, 0
1, 24096, Note_on_c, 9, 69, 74
1, 24096, Note_on_c, 9, 70, 92
1, 24132, Note_off_c, 9, 69, 0
1, 24140, Note_off_c, 9, 70, 0
1, 24192, Note_on_c, 2, 57, 113
1, 24192, Note_on_c, 9, 38, 121
1, 24192, Note_on_c, 9, 42, 89
1, 24192, Note_on_c, 9, 70, 104
1, 24228, Note_off_c, 9, 42, 0
1, 24240, Note_off_c, 9, 70, 0
1, 24284, Note_off_c, 2, 57, 0
1, 24288, Note_on_c, 2, 58, 103
1, 24288, Note_on_c, 9, 70, 104
1, 24312, Note_off_c, 9, 38, 0
1, 24336, Note_off_c, 9, 70, 0
1, 24376, Note_off_c, 2, 58, 0
1, 24384, Note_on_c, 2, 55, 107
1, 24384, Note_on_c, 9, 36, 111
1, 24384, Note_on_c, 9, 46, 104
1, 24384, Note_on_c, 9, 70, 100
1, 24384, Note_on_c, 9, 81, 111
1, 24428, Note_off_c, 9, 46, 0
1, 24436, Note_off_c, 9, 70, 0
1, 24444, Note_off_c, 9, 36, 0
1, 24444, Note_off_c, 9, 81, 0
1, 24476, Note_off_c, 2, 55, 0
1, 24480, Note_on_c, 2, 53, 105
1, 24480, Note_on_c, 9, 70, 94
1, 24500, Note_off_c, 2, 66, 0
1, 24512, Note_off_c, 2, 62, 0
1, 24520, Note_off_c, 2, 57, 0
1, 24528, Note_off_c, 8, 66, 0
1, 24528, Note_off_c, 9, 70, 0
1, 24532, Note_off_c, 8, 62, 0
1, 24540, Note_off_c, 8, 57, 0
1, 24544, Note_off_c, 2, 50, 0
1, 24544, Note_off_c, 1, 38, 0
1, 24560, Note_off_c, 2, 53, 0
1, 24576, Note_on_c, 2, 43, 109
1, 24576, Note_on_c, 2, 53, 102
1, 24576, Note_on_c, 2, 58, 105
1, 24576, Note_on_c, 2, 62, 105
1, 24576, Note_on_c, 6, 60, 82
1, 24576, Note_on_c, 9, 36, 121
1, 24576, Note_on_c, 9, 49, 97
1, 24576, Note_on_c, 9, 70, 97
1, 24576, Note_on_c, 1, 31, 125
1, 24632, Note_off_c, 9, 70, 0
1, 24688, Note_off_c, 9, 49, 0
1, 24696, Note_off_c, 9, 36, 0
1, 24736, Note_off_c, 2, 62, 0
1, 24740, Note_off_c, 2, 53, 0
1, 24744, Note_off_c, 2, 58, 0
1, 24764, Note_off_c, 2, 43, 0
1, 24768, Note_on_c, 9, 69, 121
1, 24768, Note_on_c, 9, 70, 83
1, 24776, Note_off_c, 1, 31, 0
1, 24804, Note_off_c, 9, 69, 0
1, 24816, Note_off_c, 9, 70, 0
1, 24864, Note_on_c, 9, 69, 70
1, 24896, Note_off_c, 9, 69, 0
1, 24960, Note_on_c, 9, 38, 121
1, 24960, Note_on_c, 9, 70, 75
1, 25004, Note_off_c, 9, 70, 0
1, 25044, Note_off_c, 9, 38, 0
1, 25152, Note_on_c, 2, 41, 107
1, 25152, Note_on_c, 2, 53, 105
1, 25152, Note_on_c, 2, 57, 109
1, 25152, Note_on_c, 2, 60, 107
1, 25152, Note_on_c, 9, 36, 121
1, 25152, Note_on_c, 9, 70, 85
1, 25152, Note_on_c, 9, 81, 111
1, 25152, Note_on_c, 1, 29, 121
1, 25196, Note_off_c, 9, 70, 0
1, 25212, Note_off_c, 9, 36, 0
1, 25212, Note_off_c, 9, 81, 0
1, 25284, Note_off_c, 2, 53, 0
1, 25316, Note_off_c, 2, 41, 0
1, 25320, Note_off_c, 2, 60, 0
1, 25328, Note_off_c, 2, 57, 0
1, 25328, Note_off_c, 1, 29, 0
1, 25344, Note_on_c, 2, 43, 105
1, 25344, Note_on_c, 2, 53, 103
1, 25344, Note_on_c, 2, 58, 95
1, 25344, Note_on_c, 2, 62, 107
1, 25344, Note_on_c, 9, 36, 121
1, 25344, Note_on_c, 9, 70, 100
1, 25344, Note_on_c, 1, 31, 121
1, 25388, Note_off_c, 9, 70, 0
1, 25404, Note_off_c, 9, 36, 0
1, 25440, Note_on_c, 9, 70, 89
1, 25480, Note_off_c, 9, 70, 0
1, 25492, Note_off_c, 2, 58, 0
1, 25496, Note_off_c, 2, 62, 0
1, 25500, Note_off_c, 2, 53, 0
1, 25516, Note_off_c, 2, 43, 0
1, 25536, Note_on_c, 9, 69, 116
1, 25536, Note_on_c, 9, 70, 72
1, 25552, Note_off_c, 1, 31, 0
1, 25576, Note_off_c, 9, 70, 0
1, 25584, Note_off_c, 9, 69, 0
1, 25632, Note_on_c, 9, 36, 116
1, 25632, Note_on_c, 9, 69, 79
1, 25664, Note_off_c, 9, 36, 0
1, 25672, Note_off_c, 9, 69, 0
1, 25728, Note_on_c, 9, 38, 121
1, 25728, Note_on_c, 9, 70, 94
1, 25772, Note_off_c, 9, 70, 0
1, 25848, Note_off_c, 9, 38, 0
1, 25920, Note_on_c, 9, 36, 111
1, 25920, Note_on_c, 9, 70, 94
1, 25920, Note_on_c, 9, 81, 107
1, 25972, Note_off_c, 9, 70, 0
1, 25980, Note_off_c, 9, 36, 0
1, 25984, Note_off_c, 9, 81, 0
1, 26112, Note_on_c, 2, 48, 109
1, 26112, Note_on_c, 2, 55, 105
1, 26112, Note_on_c, 2, 60, 107
1, 26112, Note_on_c, 2, 64, 103
1, 26112, Note_on_c, 9, 36, 121
1, 26112, Note_on_c, 9, 70, 104
1, 26112, Note_on_c, 1, 36, 123
1, 26160, Note_off_c, 9, 70, 0
1, 26208, Note_on_c, 9, 70, 94
1, 26232, Note_off_c, 9, 36, 0
1, 26260, Note_off_c, 9, 70, 0
1, 26304, Note_on_c, 9, 69, 111
1, 26304, Note_on_c, 9, 70, 81
1, 26348, Note_off_c, 9, 69, 0
1, 26364, Note_off_c, 9, 70, 0
1, 26400, Note_on_c, 9, 69, 70
1, 26456, Note_off_c, 9, 69, 0
1, 26496, Note_on_c, 9, 38, 121
1, 26496, Note_on_c, 9, 70, 85
1, 26552, Note_off_c, 9, 70, 0
1, 26580, Note_off_c, 9, 38, 0
1, 26688, Note_on_c, 9, 36, 121
1, 26688, Note_on_c, 9, 70, 71
1, 26688, Note_on_c, 9, 81, 116
1, 26744, Note_off_c, 9, 70, 0
1, 26748, Note_off_c, 9, 36, 0
1, 26748, Note_off_c, 9, 81, 0
1, 26880, Note_on_c, 9, 36, 121
1, 26880, Note_on_c, 9, 42, 97
1, 26880, Note_on_c, 9, 70, 104
1, 26912, Note_off_c, 9, 42, 0
1, 26928, Note_off_c, 9, 70, 0
1, 26940, Note_off_c, 9, 36, 0
1, 26976, Note_on_c, 9, 70, 92
1, 27020, Note_off_c, 9, 70, 0
1, 27072, Note_on_c, 9, 36, 116
1, 27072, Note_on_c, 9, 46, 107
1, 27072, Note_on_c, 9, 69, 111
1, 27072, Note_on_c, 9, 70, 104
1, 27104, Note_off_c, 9, 36, 0
1, 27120, Note_off_c, 9, 46, 0
1, 27120, Note_off_c, 9, 69, 0
1, 27120, Note_off_c, 9, 70, 0
1, 27168, Note_on_c, 9, 69, 74
1, 27168, Note_on_c, 9, 70, 92
1, 27204, Note_off_c, 9, 69, 0
1, 27212, Note_off_c, 9, 70, 0
1, 27260, Note_off_c, 6, 60, 64
1, 27264, Note_on_c, 6, 62, 82
1, 27264, Note_on_c, 9, 38, 121
1, 27264, Note_on_c, 9, 42, 89
1, 27264, Note_on_c, 9, 70, 104
1, 27300, Note_off_c, 9, 42, 0
1, 27312, Note_off_c, 9, 70, 0
1, 27360, Note_on_c, 9, 70, 104
1, 27384, Note_off_c, 9, 38, 0
1, 27408, Note_off_c, 9, 70, 0
1, 27456, Note_on_c, 9, 36, 111
1, 27456, Note_on_c, 9, 46, 104
1, 27456, Note_on_c, 9, 70, 100
1, 27456, Note_on_c, 9, 81, 111
1, 27488, Note_off_c, 2, 64, 0
1, 27500, Note_off_c, 9, 46, 0
1, 27508, Note_off_c, 9, 70, 0
1, 27516, Note_off_c, 9, 36, 0
1, 27516, Note_off_c, 9, 81, 0
1, 27552, Note_on_c, 9, 70, 94
1, 27556, Note_off_c, 2, 60, 0
1, 27568, Note_off_c, 2, 55, 0
1, 27600, Note_off_c, 2, 48, 0
1, 27600, Note_off_c, 9, 70, 0
1, 27616, Note_off_c, 1, 36, 0
1, 27644, Note_off_c, 6, 62, 0
1, 27648, Note_on_c, 2, 43, 112
1, 27648, Note_on_c, 2, 53, 103
1, 27648, Note_on_c, 2, 58, 103
1, 27648, Note_on_c, 2, 62, 107
1, 27648, Note_on_c, 6, 60, 83
1, 27648, Note_on_c, 9, 36, 121
1, 27648, Note_on_c, 9, 70, 97
1, 27648, Note_on_c, 1, 31, 125
1, 27704, Note_off_c, 9, 70, 0
1, 27768, Note_off_c, 9, 36, 0
1, 27832, Note_off_c, 2, 53, 0
1, 27832, Note_off_c, 2, 62, 0
1, 27840, Note_on_c, 9, 69, 121
1, 27840, Note_on_c, 9, 70, 83
1, 27844, Note_off_c, 2, 58, 0
1, 27848, Note_off_c, 1, 31, 0
1, 27852, Note_off_c, 2, 43, 0
1, 27876, Note_off_c, 9, 69, 0
1, 27888, Note_off_c, 9, 70, 0
1, 27936, Note_on_c, 9, 69, 70
1, 27968, Note_off_c, 9, 69, 0
1, 28032, Note_on_c, 9, 38, 121
1, 28032, Note_on_c, 9, 70, 75
1, 28076, Note_off_c, 9, 70, 0
1, 28116, Note_off_c, 9, 38, 0
1, 28224, Note_on_c, 2, 41, 103
1, 28224, Note_on_c, 2, 53, 105
1, 28224, Note_on_c, 2, 57, 107
1, 28224, Note_on_c, 2, 60, 105
1, 28224, Note_on_c, 9, 36, 121
1, 28224, Note_on_c, 9, 70, 85
1, 28224, Note_on_c, 9, 81, 111
1, 28224, Note_on_c, 1, 29, 121
1, 28268, Note_off_c, 9, 70, 0
1, 28284, Note_off_c, 9, 36, 0
1, 28284, Note_off_c, 9, 81, 0
1, 28356, Note_off_c, 2, 53, 0
1, 28400, Note_off_c, 1, 29, 0
1, 28404, Note_off_c, 2, 60, 0
1, 28412, Note_off_c, 2, 41, 0
1, 28412, Note_off_c, 2, 57, 0
1, 28416, Note_on_c, 2, 43, 112
1, 28416, Note_on_c, 2, 53, 103
1, 28416, Note_on_c, 2, 58, 95
1, 28416, Note_on_c, 2, 62, 105
1, 28416, Note_on_c, 9, 36, 121
1, 28416, Note_on_c, 9, 70, 100
1, 28416, Note_on_c, 1, 31, 121
1, 28460, Note_off_c, 9, 70, 0
1, 28476, Note_off_c, 9, 36, 0
1, 28512, Note_on_c, 9, 70, 89
1, 28552, Note_off_c, 9, 70, 0
1, 28572, Note_off_c, 2, 53, 0
1, 28572, Note_off_c, 2, 62, 0
1, 28580, Note_off_c, 2, 58, 0
1, 28600, Note_off_c, 2, 43, 0
1, 28608, Note_on_c, 9, 69, 116
1, 28608, Note_on_c, 9, 70, 72
1, 28624, Note_off_c, 1, 31, 0
1, 28648, Note_off_c, 9, 70, 0
1, 28656, Note_off_c, 9, 69, 0
1, 28704, Note_on_c, 9, 36, 116
1, 28704, Note_on_c, 9, 69, 79
1, 28736, Note_off_c, 9, 36, 0
1, 28744, Note_off_c, 9, 69, 0
1, 28800, Note_on_c, 9, 38, 121
1, 28800, Note_on_c, 9, 70, 94
1, 28844, Note_off_c, 9, 70, 0
1, 28920, Note_off_c, 9, 38, 0
1, 28992, Note_on_c, 9, 36, 111
1, 28992, Note_on_c, 9, 70, 94
1, 28992, Note_on_c, 9, 81, 107
1, 29044, Note_off_c, 9, 70, 0
1, 29052, Note_off_c, 9, 36, 0
1, 29056, Note_off_c, 9, 81, 0
1, 29140, Pitch_bend_c, 7, 11776
1, 29152, Pitch_bend_c, 7, 9344
1, 29160, Pitch_bend_c, 7, 8192
1, 29180, Note_off_c, 6, 60, 0
1, 29184, Note_on_c, 2, 50, 107
1, 29184, Note_on_c, 2, 57, 107
1, 29184, Note_on_c, 2, 62, 107
1, 29184, Note_on_c, 2, 66, 100
1, 29184, Note_on_c, 6, 62, 82
1, 29184, Note_on_c, 6, 66, 69
1, 29184, Note_on_c, 9, 36, 121
1, 29184, Note_on_c, 9, 70, 104
1, 29184, Note_on_c, 1, 38, 123
1, 29232, Note_off_c, 9, 70, 0
1, 29280, Note_on_c, 9, 70, 94
1, 29304, Note_off_c, 9, 36, 0
1, 29332, Note_off_c, 9, 70, 0
1, 29376, Note_on_c, 9, 69, 111
1, 29376, Note_on_c, 9, 70, 81
1, 29420, Note_off_c, 9, 69, 0
1, 29436, Note_off_c, 9, 70, 0
1, 29472, Note_on_c, 9, 69, 70
1, 29528, Note_off_c, 9, 69, 0
1, 29568, Note_on_c, 9, 38, 121
1, 29568, Note_on_c, 9, 70, 85
1, 29624, Note_off_c, 9, 70, 0
1, 29652, Note_off_c, 9, 38, 0
1, 29760, Note_on_c, 9, 36, 121
1, 29760, Note_on_c, 9, 70, 71
1, 29760, Note_on_c, 9, 81, 116
1, 29816, Note_off_c, 9, 70, 0
1, 29820, Note_off_c, 9, 36, 0
1, 29820, Note_off_c, 9, 81, 0
1, 29952, Note_on_c, 9, 36, 121
1, 29952, Note_on_c, 9, 42, 97
1, 29952, Note_on_c, 9, 70, 104
1, 29984, Note_off_c, 9, 42, 0
1, 30000, Note_off_c, 9, 70, 0
1, 30012, Note_off_c, 9, 36, 0
1, 30048, Note_on_c, 9, 70, 92
1, 30092, Note_off_c, 9, 70, 0
1, 30144, Note_on_c, 9, 36, 116
1, 30144, Note_on_c, 9, 46, 107
1, 30144, Note_on_c, 9, 69, 111
1, 30144, Note_on_c, 9, 70, 104
1, 30176, Note_off_c, 9, 36, 0
1, 30192, Note_off_c, 9, 46, 0
1, 30192, Note_off_c, 9, 69, 0
1, 30192, Note_off_c, 9, 70, 0
1, 30240, Note_on_c, 9, 69, 74
1, 30240, Note_on_c, 9, 70, 92
1, 30276, Note_off_c, 9, 69, 0
1, 30284, Note_off_c, 9, 70, 0
1, 30336, Note_on_c, 2, 57, 113
1, 30336, Note_on_c, 9, 38, 121
1, 30336, Note_on_c, 9, 42, 89
1, 30336, Note_on_c, 9, 70, 104
1, 30372, Note_off_c, 9, 42, 0
1, 30384, Note_off_c, 9, 70, 0
1, 30428, Note_off_c, 2, 57, 0
1, 30432, Note_on_c, 2, 58, 103
1, 30432, Note_on_c, 9, 70, 104
1, 30456, Note_off_c, 9, 38, 0
1, 30480, Note_off_c, 9, 70, 0
1, 30520, Note_off_c, 2, 58, 0
1, 30528, Note_on_c, 2, 55, 107
1, 30528, Note_on_c, 9, 36, 111
1, 30528, Note_on_c, 9, 46, 104
1, 30528, Note_on_c, 9, 70, 100
1, 30528, Note_on_c, 9, 81, 111
1, 30572, Note_off_c, 9, 46, 0
1, 30580, Note_off_c, 9, 70, 0
1, 30588, Note_off_c, 9, 36, 0
1, 30588, Note_off_c, 9, 81, 0
1, 30620, Note_off_c, 2, 55, 0
1, 30624, Note_on_c, 2, 53, 105
1, 30624, Note_on_c, 9, 70, 94
1, 30644, Note_off_c, 2, 66, 0
1, 30652, Note_off_c, 6, 66, 0
1, 30656, Note_off_c, 2, 62, 0
1, 30664, Note_off_c, 2, 57, 0
1, 30672, Note_off_c, 9, 70, 0
1, 30688, Note_off_c, 2, 50, 0
1, 30688, Note_off_c, 1, 38, 0
1, 30704, Note_off_c, 2, 53, 0
1, 30716, Note_off_c, 6, 62, 0
1, 30720, Note_on_c, 2, 43, 109
1, 30720, Note_on_c, 2, 53, 102
1, 30720, Note_on_c, 2, 58, 105
1, 30720, Note_on_c, 2, 62, 105
1, 30720, Note_on_c, 6, 60, 82
1, 30720, Note_on_c, 9, 36, 121
1, 30720, Note_on_c, 9, 70, 97
1, 30720, Note_on_c, 1, 31, 125
1, 30776, Note_off_c, 9, 70, 0
1, 30840, Note_off_c, 9, 36, 0
1, 30880, Note_off_c, 2, 62, 0
1, 30884, Note_off_c, 2, 53, 0
1, 30888, Note_off_c, 2, 58, 0
1, 30908, Note_off_c, 2, 43, 0
1, 30912, Note_on_c, 9, 69, 121
1, 30912, Note_on_c, 9, 70, 83
1, 30920, Note_off_c, 1, 31, 0
1, 30948, Note_off_c, 9, 69, 0
1, 30960, Note_off_c, 9, 70, 0
1, 31008, Note_on_c, 9, 69, 70
1, 31040, Note_off_c, 9, 69, 0
1, 31104, Note_on_c, 9, 38, 121
1, 31104, Note_on_c, 9, 70, 75
1, 31148, Note_off_c, 9, 70, 0
1, 31188, Note_off_c, 9, 38, 0
1, 31296, Note_on_c, 2, 41, 107
1, 31296, Note_on_c, 2, 53, 105
1, 31296, Note_on_c, 2, 57, 109
1, 31296, Note_on_c, 2, 60, 107
1, 31296, Note_on_c, 9, 36, 121
1, 31296, Note_on_c, 9, 70, 85
1, 31296, Note_on_c, 9, 81, 111
1, 31296, Note_on_c, 1, 29, 121
1, 31340, Note_off_c, 9, 70, 0
1, 31356, Note_off_c, 9, 36, 0
1, 31356, Note_off_c, 9, 81, 0
1, 31428, Note_off_c, 2, 53, 0
1, 31460, Note_off_c, 2, 41, 0
1, 31464, Note_off_c, 2, 60, 0
1, 31472, Note_off_c, 2, 57, 0
1, 31472, Note_off_c, 1, 29, 0
1, 31488, Note_on_c, 2, 43, 105
1, 31488, Note_on_c, 2, 53, 103
1, 31488, Note_on_c, 2, 58, 95
1, 31488, Note_on_c, 2, 62, 107
1, 31488, Note_on_c, 9, 36, 121
1, 31488, Note_on_c, 9, 70, 100
1, 31488, Note_on_c, 1, 31, 121
1, 31532, Note_off_c, 9, 70, 0
1, 31548, Note_off_c, 9, 36, 0
1, 31584, Note_on_c, 9, 70, 89
1, 31624, Note_off_c, 9, 70, 0
1, 31636, Note_off_c, 2, 58, 0
1, 31640, Note_off_c, 2, 62, 0
1, 31644, Note_off_c, 2, 53, 0
1, 31660, Note_off_c, 2, 43, 0
1, 31680, Note_on_c, 9, 69, 116
1, 31680, Note_on_c, 9, 70, 72
1, 31696, Note_off_c, 1, 31, 0
1, 31720, Note_off_c, 9, 70, 0
1, 31728, Note_off_c, 9, 69, 0
1, 31776, Note_on_c, 9, 36, 116
1, 31776, Note_on_c, 9, 69, 79
1, 31808, Note_off_c, 9, 36, 0
1, 31816, Note_off_c, 9, 69, 0
1, 31872, Note_on_c, 9, 38, 121
1, 31872, Note_on_c, 9, 70, 94
1, 31916, Note_off_c, 9, 70, 0
1, 31992, Note_off_c, 9, 38, 0
1, 32064, Note_on_c, 9, 36, 111
1, 32064, Note_on_c, 9, 70, 94
1, 32064, Note_on_c, 9, 81, 107
1, 32116, Note_off_c, 9, 70, 0
1, 32124, Note_off_c, 9, 36, 0
1, 32128, Note_off_c, 9, 81, 0
1, 32256, Note_on_c, 2, 48, 109
1, 32256, Note_on_c, 2, 55, 105
1, 32256, Note_on_c, 2, 60, 107
1, 32256, Note_on_c, 2, 64, 103
1, 32256, Note_on_c, 9, 36, 121
1, 32256, Note_on_c, 9, 70, 104
1, 32256, Note_on_c, 1, 36, 123
1, 32304, Note_off_c, 9, 70, 0
1, 32352, Note_on_c, 9, 70, 94
1, 32376, Note_off_c, 9, 36, 0
1, 32404, Note_off_c, 9, 70, 0
1, 32448, Note_on_c, 9, 69, 111
1, 32448, Note_on_c, 9, 70, 81
1, 32492, Note_off_c, 9, 69, 0
1, 32508, Note_off_c, 9, 70, 0
1, 32544, Note_on_c, 9, 69, 70
1, 32600, Note_off_c, 9, 69, 0
1, 32640, Note_on_c, 9, 38, 121
1, 32640, Note_on_c, 9, 70, 85
1, 32696, Note_off_c, 9, 70, 0
1, 32724, Note_off_c, 9, 38, 0
1, 32832, Note_on_c, 9, 36, 121
1, 32832, Note_on_c, 9, 70, 71
1, 32832, Note_on_c, 9, 81, 116
1, 32888, Note_off_c, 9, 70, 0
1, 32892, Note_off_c, 9, 36, 0
1, 32892, Note_off_c, 9, 81, 0
1, 33024, Note_on_c, 9, 36, 121
1, 33024, Note_on_c, 9, 42, 97
1, 33024, Note_on_c, 9, 70, 104
1, 33056, Note_off_c, 9, 42, 0
1, 33072, Note_off_c, 9, 70, 0
1, 33084, Note_off_c, 9, 36, 0
1, 33120, Note_on_c, 9, 70, 92
1, 33164, Note_off_c, 9, 70, 0
1, 33216, Note_on_c, 9, 36, 116
1, 33216, Note_on_c, 9, 46, 107
1, 33216, Note_on_c, 9, 69, 111
1, 33216, Note_on_c, 9, 70, 104
1, 33248, Note_off_c, 9, 36, 0
1, 33264, Note_off_c, 9, 46, 0
1, 33264, Note_off_c, 9, 69, 0
1, 33264, Note_off_c, 9, 70, 0
1, 33312, Note_on_c, 9, 69, 74
1, 33312, Note_on_c, 9, 70, 92
1, 33348, Note_off_c, 9, 69, 0
1, 33356, Note_off_c, 9, 70, 0
1, 33404, Note_off_c, 6, 60, 64
1, 33408, Note_on_c, 6, 62, 82
1, 33408, Note_on_c, 9, 38, 121
1, 33408, Note_on_c, 9, 42, 89
1, 33408, Note_on_c, 9, 70, 104
1, 33444, Note_off_c, 9, 42, 0
1, 33456, Note_off_c, 9, 70, 0
1, 33504, Note_on_c, 9, 70, 104
1, 33528, Note_off_c, 9, 38, 0
1, 33552, Note_off_c, 9, 70, 0
1, 33600, Note_on_c, 9, 36, 111
1, 33600, Note_on_c, 9, 46, 104
1, 33600, Note_on_c, 9, 70, 100
1, 33600, Note_on_c, 9, 81, 111
1, 33632, Note_off_c, 2, 64, 0
1, 33644, Note_off_c, 9, 46, 0
1, 33652, Note_off_c, 9, 70, 0
1, 33660, Note_off_c, 9, 36, 0
1, 33660, Note_off_c, 9, 81, 0
1, 33696, Note_on_c, 9, 70, 94
1, 33700, Note_off_c, 2, 60, 0
1, 33712, Note_off_c, 2, 55, 0
1, 33744, Note_off_c, 2, 48, 0
1, 33744, Note_off_c, 9, 70, 0
1, 33760, Note_off_c, 1, 36, 0
1, 33788, Note_off_c, 6, 62, 0
1, 33792, Note_on_c, 2, 43, 112
1, 33792, Note_on_c, 2, 53, 103
1, 33792, Note_on_c, 2, 58, 103
1, 33792, Note_on_c, 2, 62, 107
1, 33792, Note_on_c, 6, 60, 83
1, 33792, Note_on_c, 9, 36, 121
1, 33792, Note_on_c, 9, 70, 97
1, 33792, Note_on_c, 1, 31, 125
1, 33848, Note_off_c, 9, 70, 0
1, 33912, Note_off_c, 9, 36, 0
1, 33976, Note_off_c, 2, 53, 0
1, 33976, Note_off_c, 2, 62, 0
1, 33984, Note_on_c, 9, 69, 121
1, 33984, Note_on_c, 9, 70, 83
1, 33988, Note_off_c, 2, 58, 0
1, 33992, Note_off_c, 1, 31, 0
1, 33996, Note_off_c, 2, 43, 0
1, 34020, Note_off_c, 9, 69, 0
1, 34032, Note_off_c, 9, 70, 0
1, 34080, Note_on_c, 9, 69, 70
1, 34112, Note_off_c, 9, 69, 0
1, 34176, Note_on_c, 9, 38, 121
1, 34176, Note_on_c, 9, 70, 75
1, 34220, Note_off_c, 9, 70, 0
1, 34260, Note_off_c, 9, 38, 0
1, 34368, Note_on_c, 2, 41, 103
1, 34368, Note_on_c, 2, 53, 105
1, 34368, Note_on_c, 2, 57, 107
1, 34368, Note_on_c, 2, 60, 105
1, 34368, Note_on_c, 9, 36, 121
1, 34368, Note_on_c, 9, 70, 85
1, 34368, Note_on_c, 9, 81, 111
1, 34368, Note_on_c, 1, 29, 121
1, 34412, Note_off_c, 9, 70, 0
1, 34428, Note_off_c, 9, 36, 0
1, 34428, Note_off_c, 9, 81, 0
1, 34500, Note_off_c, 2, 53, 0
1, 34544, Note_off_c, 1, 29, 0
1, 34548, Note_off_c, 2, 60, 0
1, 34556, Note_off_c, 2, 41, 0
1, 34556, Note_off_c, 2, 57, 0
1, 34560, Note_on_c, 2, 43, 112
1, 34560, Note_on_c, 2, 53, 103
1, 34560, Note_on_c, 2, 58, 95
1, 34560, Note_on_c, 2, 62, 105
1, 34560, Note_on_c, 9, 36, 121
1, 34560, Note_on_c, 9, 70, 100
1, 34560, Note_on_c, 1, 31, 121
1, 34604, Note_off_c, 9, 70, 0
1, 34620, Note_off_c, 9, 36, 0
1, 34656, Note_on_c, 9, 70, 89
1, 34696, Note_off_c, 9, 70, 0
1, 34716, Note_off_c, 2, 53, 0
1, 34716, Note_off_c, 2, 62, 0
1, 34724, Note_off_c, 2, 58, 0
1, 34744, Note_off_c, 2, 43, 0
1, 34752, Note_on_c, 9, 69, 116
1, 34752, Note_on_c, 9, 70, 72
1, 34768, Note_off_c, 1, 31, 0
1, 34792, Note_off_c, 9, 70, 0
1, 34800, Note_off_c, 9, 69, 0
1, 34848, Note_on_c, 9, 36, 116
1, 34848, Note_on_c, 9, 69, 79
1, 34880, Note_off_c, 9, 36, 0
1, 34888, Note_off_c, 9, 69, 0
1, 34944, Note_on_c, 9, 38, 121
1, 34944, Note_on_c, 9, 70, 94
1, 34988, Note_off_c, 9, 70, 0
1, 35064, Note_off_c, 9, 38, 0
1, 35136, Note_on_c, 9, 36, 111
1, 35136, Note_on_c, 9, 70, 94
1, 35136, Note_on_c, 9, 81, 107
1, 35188, Note_off_c, 9, 70, 0
1, 35196, Note_off_c, 9, 36, 0
1, 35200, Note_off_c, 9, 81, 0
1, 35324, Note_off_c, 6, 60, 0
1, 35328, Note_on_c, 2, 50, 107
1, 35328, Note_on_c, 2, 57, 107
1, 35328, Note_on_c, 2, 62, 107
1, 35328, Note_on_c, 2, 66, 100
1, 35328, Note_on_c, 6, 62, 82
1, 35328, Note_on_c, 6, 66, 69
1, 35328, Note_on_c, 9, 36, 121
1, 35328, Note_on_c, 9, 70, 104
1, 35328, Note_on_c, 1, 38, 123
1, 35376, Note_off_c, 9, 70, 0
1, 35424, Note_on_c, 9, 70, 94
1, 35448, Note_off_c, 9, 36, 0
1, 35476, Note_off_c, 9, 70, 0
1, 35520, Note_on_c, 9, 69, 111
1, 35520, Note_on_c, 9, 70, 81
1, 35564, Note_off_c, 9, 69, 0
1, 35580, Note_off_c, 9, 70, 0
1, 35616, Note_on_c, 9, 69, 70
1, 35672, Note_off_c, 9, 69, 0
1, 35712, Note_on_c, 9, 38, 121
1, 35712, Note_on_c, 9, 70, 85
1, 35768, Note_off_c, 9, 70, 0
1, 35796, Note_off_c, 9, 38, 0
1, 35904, Note_on_c, 9, 36, 121
1, 35904, Note_on_c, 9, 70, 71
1, 35904, Note_on_c, 9, 81, 116
1, 35960, Note_off_c, 9, 70, 0
1, 35964, Note_off_c, 9, 36, 0
1, 35964, Note_off_c, 9, 81, 0
1, 36096, Note_on_c, 9, 36, 121
1, 36096, Note_on_c, 9, 42, 97
1, 36096, Note_on_c, 9, 70, 104
1, 36128, Note_off_c, 9, 42, 0
1, 36144, Note_off_c, 9, 70, 0
1, 36156, Note_off_c, 9, 36, 0
1, 36192, Note_on_c, 9, 70, 92
1, 36236, Note_off_c, 9, 70, 0
1, 36288, Note_on_c, 9, 36, 116
1, 36288, Note_on_c, 9, 46, 107
1, 36288, Note_on_c, 9, 69, 111
1, 36288, Note_on_c, 9, 70, 104
1, 36320, Note_off_c, 9, 36, 0
1, 36336, Note_off_c, 9, 46, 0
1, 36336, Note_off_c, 9, 69, 0
1, 36336, Note_off_c, 9, 70, 0
1, 36384, Note_on_c, 9, 69, 74
1, 36384, Note_on_c, 9, 70, 92
1, 36420, Note_off_c, 9, 69, 0
1, 36428, Note_off_c, 9, 70, 0
1, 36480, Note_on_c, 2, 57, 113
1, 36480, Note_on_c, 9, 38, 121
1, 36480, Note_on_c, 9, 42, 89
1, 36480, Note_on_c, 9, 70, 104
1, 36516, Note_off_c, 9, 42, 0
1, 36528, Note_off_c, 9, 70, 0
1, 36572, Note_off_c, 2, 57, 0
1, 36576, Note_on_c, 2, 58, 103
1, 36576, Note_on_c, 9, 70, 104
1, 36600, Note_off_c, 9, 38, 0
1, 36624, Note_off_c, 9, 70, 0
1, 36664, Note_off_c, 2, 58, 0
1, 36672, Note_on_c, 2, 55, 107
1, 36672, Note_on_c, 9, 36, 111
1, 36672, Note_on_c, 9, 46, 104
1, 36672, Note_on_c, 9, 70, 100
1, 36672, Note_on_c, 9, 81, 111
1, 36716, Note_off_c, 9, 46, 0
1, 36724, Note_off_c, 9, 70, 0
1, 36732, Note_off_c, 9, 36, 0
1, 36732, Note_off_c, 9, 81, 0
1, 36764, Note_off_c, 2, 55, 0
1, 36768, Note_on_c, 2, 53, 105
1, 36768, Note_on_c, 9, 70, 94
1, 36788, Note_off_c, 2, 66, 0
1, 36796, Note_off_c, 6, 66, 0
1, 36800, Note_off_c, 2, 62, 0
1, 36808, Note_off_c, 2, 57, 0
1, 36816, Note_off_c, 9, 70, 0
1, 36832, Note_off_c, 2, 50, 0
1, 36832, Note_off_c, 1, 38, 0
1, 36848, Note_off_c, 2, 53, 0
1, 36860, Note_off_c, 6, 62, 0
1, 36864, Note_on_c, 2, 43, 109
1, 36864, Note_on_c, 2, 53, 102
1, 36864, Note_on_c, 2, 58, 105
1, 36864, Note_on_c, 2, 62, 105
1, 36864, Note_on_c, 9, 36, 121
1, 36864, Note_on_c, 9, 70, 97
1, 36864, Note_on_c, 1, 31, 125
1, 36920, Note_off_c, 9, 70, 0
1, 36984, Note_off_c, 9, 36, 0
1, 37024, Note_off_c, 2, 62, 0
1, 37028, Note_off_c, 2, 53, 0
1, 37032, Note_off_c, 2, 58, 0
1, 37052, Note_off_c, 2, 43, 0
1, 37056, Note_on_c, 9, 69, 121
1, 37064, Note_off_c, 1, 31, 0
1, 37092, Note_off_c, 9, 69, 0
1, 37152, Note_on_c, 9, 69, 70
1, 37184, Note_off_c, 9, 69, 0
1, 37440, Note_on_c, 2, 41, 107
1, 37440, Note_on_c, 2, 53, 105
1, 37440, Note_on_c, 2, 57, 109
1, 37440, Note_on_c, 2, 60, 107
1, 37440, Note_on_c, 9, 81, 111
1, 37440, Note_on_c, 1, 29, 121
1, 37500, Note_off_c, 9, 81, 0
1, 37572, Note_off_c, 2, 53, 0
1, 37604, Note_off_c, 2, 41, 0
1, 37608, Note_off_c, 2, 60, 0
1, 37616, Note_off_c, 2, 57, 0
1, 37616, Note_off_c, 1, 29, 0
1, 37632, Note_on_c, 2, 43, 105
1, 37632, Note_on_c, 2, 53, 103
1, 37632, Note_on_c, 2, 58, 95
1, 37632, Note_on_c, 2, 62, 107
1, 37632, Note_on_c, 1, 31, 121
1, 37780, Note_off_c, 2, 58, 0
1, 37784, Note_off_c, 2, 62, 0
1, 37788, Note_off_c, 2, 53, 0
1, 37804, Note_off_c, 2, 43, 0
1, 37824, Note_on_c, 9, 69, 116
1, 37840, Note_off_c, 1, 31, 0
1, 37872, Note_off_c, 9, 69, 0
1, 37920, Note_on_c, 9, 69, 79
1, 37960, Note_off_c, 9, 69, 0
1, 38016, Note_on_c, 9, 38, 121
1, 38136, Note_off_c, 9, 38, 0
1, 38208, Note_on_c, 9, 36, 111
1, 38208, Note_on_c, 9, 81, 107
1, 38268, Note_off_c, 9, 36, 0
1, 38272, Note_off_c, 9, 81, 0
1, 38400, Note_on_c, 2, 48, 109
1, 38400, Note_on_c, 2, 55, 105
1, 38400, Note_on_c, 2, 60, 107
1, 38400, Note_on_c, 2, 64, 103
1, 38400, Note_on_c, 8, 55, 81
1, 38400, Note_on_c, 8, 60, 82
1, 38400, Note_on_c, 8, 64, 79
1, 38400, Note_on_c, 9, 36, 121
1, 38400, Note_on_c, 9, 70, 104
1, 38400, Note_on_c, 1, 36, 123
1, 38448, Note_off_c, 9, 70, 0
1, 38496, Note_on_c, 9, 70, 94
1, 38520, Note_off_c, 9, 36, 0
1, 38548, Note_off_c, 9, 70, 0
1, 38592, Note_on_c, 9, 69, 111
1, 38592, Note_on_c, 9, 70, 81
1, 38636, Note_off_c, 9, 69, 0
1, 38652, Note_off_c, 9, 70, 0
1, 38688, Note_on_c, 9, 69, 70
1, 38744, Note_off_c, 9, 69, 0
1, 38784, Note_on_c, 9, 38, 121
1, 38784, Note_on_c, 9, 70, 85
1, 38840, Note_off_c, 9, 70, 0
1, 38868, Note_off_c, 9, 38, 0
1, 38976, Note_on_c, 9, 36, 121
1, 38976, Note_on_c, 9, 70, 71
1, 38976, Note_on_c, 9, 81, 116
1, 39032, Note_off_c, 9, 70, 0
1, 39036, Note_off_c, 9, 36, 0
1, 39036, Note_off_c, 9, 81, 0
1, 39168, Note_on_c, 9, 36, 121
1, 39168, Note_on_c, 9, 42, 97
1, 39168, Note_on_c, 9, 70, 104
1, 39200, Note_off_c, 9, 42, 0
1, 39216, Note_off_c, 9, 70, 0
1, 39228, Note_off_c, 9, 36, 0
1, 39264, Note_on_c, 9, 70, 92
1, 39308, Note_off_c, 9, 70, 0
1, 39360, Note_on_c, 9, 36, 116
1, 39360, Note_on_c, 9, 46, 107
1, 39360, Note_on_c, 9, 69, 111
1, 39360, Note_on_c, 9, 70, 104
1, 39392, Note_off_c, 9, 36, 0
1, 39408, Note_off_c, 9, 46, 0
1, 39408, Note_off_c, 9, 69, 0
1, 39408, Note_off_c, 9, 70, 0
1, 39456, Note_on_c, 9, 69, 74
1, 39456, Note_on_c, 9, 70, 92
1, 39492, Note_off_c, 9, 69, 0
1, 39500, Note_off_c, 9, 70, 0
1, 39552, Note_on_c, 9, 38, 121
1, 39552, Note_on_c, 9, 42, 89
1, 39552, Note_on_c, 9, 70, 104
1, 39588, Note_off_c, 9, 42, 0
1, 39600, Note_off_c, 9, 70, 0
1, 39648, Note_on_c, 9, 70, 104
1, 39672, Note_off_c, 9, 38, 0
1, 39696, Note_off_c, 9, 70, 0
1, 39744, Note_on_c, 9, 36, 111
1, 39744, Note_on_c, 9, 46, 104
1, 39744, Note_on_c, 9, 70, 100
1, 39744, Note_on_c, 9, 81, 111
1, 39776, Note_off_c, 2, 64, 0
1, 39788, Note_off_c, 9, 46, 0
1, 39796, Note_off_c, 9, 70, 0
1, 39804, Note_off_c, 9, 36, 0
1, 39804, Note_off_c, 9, 81, 0
1, 39840, Note_on_c, 9, 70, 94
1, 39844, Note_off_c, 2, 60, 0
1, 39856, Note_off_c, 2, 55, 0
1, 39888, Note_off_c, 2, 48, 0
1, 39888, Note_off_c, 9, 70, 0
1, 39904, Note_off_c, 8, 60, 0
1, 39904, Note_off_c, 1, 36, 0
1, 39908, Note_off_c, 8, 55, 0
1, 39908, Note_off_c, 8, 64, 0
1, 39936, Note_on_c, 2, 43, 112
1, 39936, Note_on_c, 2, 53, 103
1, 39936, Note_on_c, 2, 58, 103
1, 39936, Note_on_c, 2, 62, 107
1, 39936, Note_on_c, 9, 36, 121
1, 39936, Note_on_c, 9, 70, 97
1, 39936, Note_on_c, 1, 31, 125
1, 39992, Note_off_c, 9, 70, 0
1, 40056, Note_off_c, 9, 36, 0
1, 40120, Note_off_c, 2, 53, 0
1, 40120, Note_off_c, 2, 62, 0
1, 40128, Note_on_c, 9, 69, 121
1, 40128, Note_on_c, 9, 70, 83
1, 40132, Note_off_c, 2, 58, 0
1, 40136, Note_off_c, 1, 31, 0
1, 40140, Note_off_c, 2, 43, 0
1, 40164, Note_off_c, 9, 69, 0
1, 40176, Note_off_c, 9, 70, 0
1, 40224, Note_on_c, 9, 69, 70
1, 40256, Note_off_c, 9, 69, 0
1, 40320, Note_on_c, 9, 38, 121
1, 40320, Note_on_c, 9, 70, 75
1, 40364, Note_off_c, 9, 70, 0
1, 40404, Note_off_c, 9, 38, 0
1, 40512, Note_on_c, 2, 41, 103
1, 40512, Note_on_c, 2, 53, 105
1, 40512, Note_on_c, 2, 57, 107
1, 40512, Note_on_c, 2, 60, 105
1, 40512, Note_on_c, 9, 36, 121
1, 40512, Note_on_c, 9, 70, 85
1, 40512, Note_on_c, 9, 81, 111
1, 40512, Note_on_c, 1, 29, 121
1, 40556, Note_off_c, 9, 70, 0
1, 40572, Note_off_c, 9, 36, 0
1, 40572, Note_off_c, 9, 81, 0
1, 40644, Note_off_c, 2, 53, 0
1, 40688, Note_off_c, 1, 29, 0
1, 40692, Note_off_c, 2, 60, 0
1, 40700, Note_off_c, 2, 41, 0
1, 40700, Note_off_c, 2, 57, 0
1, 40704, Note_on_c, 2, 43, 112
1, 40704, Note_on_c, 2, 53, 103
1, 40704, Note_on_c, 2, 58, 95
1, 40704, Note_on_c, 2, 62, 105
1, 40704, Note_on_c, 9, 36, 121
1, 40704, Note_on_c, 9, 70, 100
1, 40704, Note_on_c, 1, 31, 121
1, 40748, Note_off_c, 9, 70, 0
1, 40764, Note_off_c, 9, 36, 0
1, 40800, Note_on_c, 9, 70, 89
1, 40840, Note_off_c, 9, 70, 0
1, 40860, Note_off_c, 2, 53, 0
1, 40860, Note_off_c, 2, 62, 0
1, 40868, Note_off_c, 2, 58, 0
1, 40888, Note_off_c, 2, 43, 0
1, 40896, Note_on_c, 9, 69, 116
1, 40896, Note_on_c, 9, 70, 72
1, 40912, Note_off_c, 1, 31, 0
1, 40936, Note_off_c, 9, 70, 0
1, 40944, Note_off_c, 9, 69, 0
1, 40992, Note_on_c, 9, 36, 116
1, 40992, Note_on_c, 9, 69, 79
1, 41024, Note_off_c, 9, 36, 0
1, 41032, Note_off_c, 9, 69, 0
1, 41088, Note_on_c, 9, 38, 121
1, 41088, Note_on_c, 9, 70, 94
1, 41132, Note_off_c, 9, 70, 0
1, 41208, Note_off_c, 9, 38, 0
1, 41280, Note_on_c, 9, 36, 111
1, 41280, Note_on_c, 9, 70, 94
1, 41280, Note_on_c, 9, 81, 107
1, 41332, Note_off_c, 9, 70, 0
1, 41340, Note_off_c, 9, 36, 0
1, 41344, Note_off_c, 9, 81, 0
1, 41472, Note_on_c, 2, 50, 107
1, 41472, Note_on_c, 2, 57, 107
1, 41472, Note_on_c, 2, 62, 107
1, 41472, Note_on_c, 2, 66, 100
1, 41472, Note_on_c, 8, 57, 84
1, 41472, Note_on_c, 8, 62, 83
1, 41472, Note_on_c, 8, 66, 76
1, 41472, Note_on_c, 9, 36, 121
1, 41472, Note_on_c, 9, 70, 104
1, 41472, Note_on_c, 1, 38, 123
1, 41520, Note_off_c, 9, 70, 0
1, 41568, Note_on_c, 9, 70, 94
1, 41592, Note_off_c, 9, 36, 0
1, 41620, Note_off_c, 9, 70, 0
1, 41664, Note_on_c, 9, 69, 111
1, 41664, Note_on_c, 9, 70, 81
1, 41708, Note_off_c, 9, 69, 0
1, 41724, Note_off_c, 9, 70, 0
1, 41760, Note_on_c, 9, 69, 70
1, 41816, Note_off_c, 9, 69, 0
1, 41856, Note_on_c, 9, 38, 121
1, 41856, Note_on_c, 9, 70, 85
1, 41912, Note_off_c, 9, 70, 0
1, 41940, Note_off_c, 9, 38, 0
1, 42048, Note_on_c, 9, 36, 121
1, 42048, Note_on_c, 9, 70, 71
1, 42048, Note_on_c, 9, 81, 116
1, 42104, Note_off_c, 9, 70, 0
1, 42108, Note_off_c, 9, 36, 0
1, 42108, Note_off_c, 9, 81, 0
1, 42240, Note_on_c, 9, 36, 121
1, 42240, Note_on_c, 9, 42, 97
1, 42240, Note_on_c, 9, 70, 104
1, 42272, Note_off_c, 9, 42, 0
1, 42288, Note_off_c, 9, 70, 0
1, 42300, Note_off_c, 9, 36, 0
1, 42336, Note_on_c, 9, 70, 92
1, 42380, Note_off_c, 9, 70, 0
1, 42432, Note_on_c, 9, 36, 116
1, 42432, Note_on_c, 9, 46, 107
1, 42432, Note_on_c, 9, 69, 111
1, 42432, Note_on_c, 9, 70, 104
1, 42464, Note_off_c, 9, 36, 0
1, 42480, Note_off_c, 9, 46, 0
1, 42480, Note_off_c, 9, 69, 0
1, 42480, Note_off_c, 9, 70, 0
1, 42528, Note_on_c, 9, 69, 74
1, 42528, Note_on_c, 9, 70, 92
1, 42564, Note_off_c, 9, 69, 0
1, 42572, Note_off_c, 9, 70, 0
1, 42624, Note_on_c, 2, 57, 113
1, 42624, Note_on_c, 9, 38, 121
1, 42624, Note_on_c, 9, 42, 89
1, 42624, Note_on_c, 9, 70, 104
1, 42660, Note_off_c, 9, 42, 0
1, 42672, Note_off_c, 9, 70, 0
1, 42716, Note_off_c, 2, 57, 0
1, 42720, Note_on_c, 2, 58, 103
1, 42720, Note_on_c, 9, 70, 104
1, 42744, Note_off_c, 9, 38, 0
1, 42768, Note_off_c, 9, 70, 0
1, 42808, Note_off_c, 2, 58, 0
1, 42816, Note_on_c, 2, 55, 107
1, 42816, Note_on_c, 9, 36, 111
1, 42816, Note_on_c, 9, 46, 104
1, 42816, Note_on_c, 9, 70, 100
1, 42816, Note_on_c, 9, 81, 111
1, 42860, Note_off_c, 9, 46, 0
1, 42868, Note_off_c, 9, 70, 0
1, 42876, Note_off_c, 9, 36, 0
1, 42876, Note_off_c, 9, 81, 0
1, 42908, Note_off_c, 2, 55, 0
1, 42912, Note_on_c, 2, 53, 105
1, 42912, Note_on_c, 9, 70, 94
1, 42932, Note_off_c, 2, 66, 0
1, 42944, Note_off_c, 2, 62, 0
1, 42952, Note_off_c, 2, 57, 0
1, 42960, Note_off_c, 8, 66, 0
1, 42960, Note_off_c, 9, 70, 0
1, 42964, Note_off_c, 8, 62, 0
1, 42972, Note_off_c, 8, 57, 0
1, 42976, Note_off_c, 2, 50, 0
1, 42976, Note_off_c, 1, 38, 0
1, 42992, Note_off_c, 2, 53, 0
1, 43008, Note_on_c, 2, 43, 109
1, 43008, Note_on_c, 2, 53, 102
1, 43008, Note_on_c, 2, 58, 105
1, 43008, Note_on_c, 2, 62, 105
1, 43008, Note_on_c, 9, 36, 121
1, 43008, Note_on_c, 9, 70, 97
1, 43008, Note_on_c, 1, 31, 125
1, 43064, Note_off_c, 9, 70, 0
1, 43128, Note_off_c, 9, 36, 0
1, 43168, Note_off_c, 2, 62, 0
1, 43172, Note_off_c, 2, 53, 0
1, 43176, Note_off_c, 2, 58, 0
1, 43196, Note_off_c, 2, 43, 0
1, 43200, Note_on_c, 9, 69, 121
1, 43200, Note_on_c, 9, 70, 83
1, 43208, Note_off_c, 1, 31, 0
1, 43236, Note_off_c, 9, 69, 0
1, 43248, Note_off_c, 9, 70, 0
1, 43296, Note_on_c, 9, 69, 70
1, 43328, Note_off_c, 9, 69, 0
1, 43392, Note_on_c, 9, 38, 121
1, 43392, Note_on_c, 9, 70, 75
1, 43436, Note_off_c, 9, 70, 0
1, 43476, Note_off_c, 9, 38, 0
1, 43584, Note_on_c, 2, 41, 107
1, 43584, Note_on_c, 2, 53, 105
1, 43584, Note_on_c, 2, 57, 109
1, 43584, Note_on_c, 2, 60, 107
1, 43584, Note_on_c, 9, 36, 121
1, 43584, Note_on_c, 9, 70, 85
1, 43584, Note_on_c, 9, 81, 111
1, 43584, Note_on_c, 1, 29, 121
1, 43628, Note_off_c, 9, 70, 0
1, 43644, Note_off_c, 9, 36, 0
1, 43644, Note_off_c, 9, 81, 0
1, 43716, Note_off_c, 2, 53, 0
1, 43748, Note_off_c, 2, 41, 0
1, 43752, Note_off_c, 2, 60, 0
1, 43760, Note_off_c, 2, 57, 0
1, 43760, Note_off_c, 1, 29, 0
1, 43776, Note_on_c, 2, 43, 105
1, 43776, Note_on_c, 2, 53, 103
1, 43776, Note_on_c, 2, 58, 95
1, 43776, Note_on_c, 2, 62, 107
1, 43776, Note_on_c, 9, 36, 121
1, 43776, Note_on_c, 9, 70, 100
1, 43776, Note_on_c, 1, 31, 121
1, 43820, Note_off_c, 9, 70, 0
1, 43836, Note_off_c, 9, 36, 0
1, 43872, Note_on_c, 9, 70, 89
1, 43912, Note_off_c, 9, 70, 0
1, 43924, Note_off_c, 2, 58, 0
1, 43928, Note_off_c, 2, 62, 0
1, 43932, Note_off_c, 2, 53, 0
1, 43948, Note_off_c, 2, 43, 0
1, 43968, Note_on_c, 9, 69, 116
1, 43968, Note_on_c, 9, 70, 72
1, 43984, Note_off_c, 1, 31, 0
1, 44008, Note_off_c, 9, 70, 0
1, 44016, Note_off_c, 9, 69, 0
1, 44064, Note_on_c, 9, 36, 116
1, 44064, Note_on_c, 9, 69, 79
1, 44096, Note_off_c, 9, 36, 0
1, 44104, Note_off_c, 9, 69, 0
1, 44160, Note_on_c, 9, 38, 121
1, 44160, Note_on_c, 9, 70, 94
1, 44204, Note_off_c, 9, 70, 0
1, 44280, Note_off_c, 9, 38, 0
1, 44352, Note_on_c, 9, 36, 111
1, 44352, Note_on_c, 9, 70, 94
1, 44352, Note_on_c, 9, 81, 107
1, 44404, Note_off_c, 9, 70, 0
1, 44412, Note_off_c, 9, 36, 0
1, 44416, Note_off_c, 9, 81, 0
1, 44544, Note_on_c, 2, 48, 109
1, 44544, Note_on_c, 2, 55, 105
1, 44544, Note_on_c, 2, 60, 107
1, 44544, Note_on_c, 2, 64, 103
1, 44544, Note_on_c, 8, 55, 81
1, 44544, Note_on_c, 8, 60, 82
1, 44544, Note_on_c, 8, 64, 79
1, 44544, Note_on_c, 9, 36, 121
1, 44544, Note_on_c, 9, 70, 104
1, 44544, Note_on_c, 1, 36, 123
1, 44592, Note_off_c, 9, 70, 0
1, 44640, Note_on_c, 9, 70, 94
1, 44664, Note_off_c, 9, 36, 0
1, 44692, Note_off_c, 9, 70, 0
1, 44736, Note_on_c, 9, 69, 111
1, 44736, Note_on_c, 9, 70, 81
1, 44780, Note_off_c, 9, 69, 0
1, 44796, Note_off_c, 9, 70, 0
1, 44832, Note_on_c, 9, 69, 70
1, 44888, Note_off_c, 9, 69, 0
1, 44928, Note_on_c, 9, 38, 121
1, 44928, Note_on_c, 9, 70, 85
1, 44984, Note_off_c, 9, 70, 0
1, 45012, Note_off_c, 9, 38, 0
1, 45120, Note_on_c, 9, 36, 121
1, 45120, Note_on_c, 9, 70, 71
1, 45120, Note_on_c, 9, 81, 116
1, 45176, Note_off_c, 9, 70, 0
1, 45180, Note_off_c, 9, 36, 0
1, 45180, Note_off_c, 9, 81, 0
1, 45312, Note_on_c, 9, 36, 121
1, 45312, Note_on_c, 9, 42, 97
1, 45312, Note_on_c, 9, 70, 104
1, 45344, Note_off_c, 9, 42, 0
1, 45360, Note_off_c, 9, 70, 0
1, 45372, Note_off_c, 9, 36, 0
1, 45408, Note_on_c, 9, 70, 92
1, 45452, Note_off_c, 9, 70, 0
1, 45504, Note_on_c, 9, 36, 116
1, 45504, Note_on_c, 9, 46, 107
1, 45504, Note_on_c, 9, 69, 111
1, 45504, Note_on_c, 9, 70, 104
1, 45536, Note_off_c, 9, 36, 0
1, 45552, Note_off_c, 9, 46, 0
1, 45552, Note_off_c, 9, 69, 0
1, 45552, Note_off_c, 9, 70, 0
1, 45600, Note_on_c, 9, 69, 74
1, 45600, Note_on_c, 9, 70, 92
1, 45636, Note_off_c, 9, 69, 0
1, 45644, Note_off_c, 9, 70, 0
1, 45696, Note_on_c, 9, 38, 121
1, 45696, Note_on_c, 9, 42, 89
1, 45696, Note_on_c, 9, 70, 104
1, 45732, Note_off_c, 9, 42, 0
1, 45744, Note_off_c, 9, 70, 0
1, 45792, Note_on_c, 9, 70, 104
1, 45816, Note_off_c, 9, 38, 0
1, 45840, Note_off_c, 9, 70, 0
1, 45888, Note_on_c, 9, 36, 111
1, 45888, Note_on_c, 9, 46, 104
1, 45888, Note_on_c, 9, 70, 100
1, 45888, Note_on_c, 9, 81, 111
1, 45920, Note_off_c, 2, 64, 0
1, 45932, Note_off_c, 9, 46, 0
1, 45940, Note_off_c, 9, 70, 0
1, 45948, Note_off_c, 9, 36, 0
1, 45948, Note_off_c, 9, 81, 0
1, 45984, Note_on_c, 9, 70, 94
1, 45988, Note_off_c, 2, 60, 0
1, 46000, Note_off_c, 2, 55, 0
1, 46032, Note_off_c, 2, 48, 0
1, 46032, Note_off_c, 9, 70, 0
1, 46048, Note_off_c, 8, 60, 0
1, 46048, Note_off_c, 1, 36, 0
1, 46052, Note_off_c, 8, 55, 0
1, 46052, Note_off_c, 8, 64, 0
1, 46080, Note_on_c, 2, 43, 112
1, 46080, Note_on_c, 2, 53, 103
1, 46080, Note_on_c, 2, 58, 103
1, 46080, Note_on_c, 2, 62, 107
1, 46080, Note_on_c, 9, 36, 121
1, 46080, Note_on_c, 9, 70, 97
1, 46080, Note_on_c, 1, 31, 125
1, 46136, Note_off_c, 9, 70, 0
1, 46184, Control_c, 0, 123, 0
1, 46188, Control_c, 0, 120, 0
1, 46192, Control_c, 0, 121, 0
1, 46200, Note_off_c, 9, 36, 0
1, 46264, Note_off_c, 2, 53, 0
1, 46264, Note_off_c, 2, 62, 0
1, 46272, Note_on_c, 9, 69, 121
1, 46272, Note_on_c, 9, 70, 83
1, 46276, Note_off_c, 2, 58, 0
1, 46280, Note_off_c, 1, 31, 0
1, 46284, Note_off_c, 2, 43, 0
1, 46296, Control_c, 7, 123, 0
1, 46300, Control_c, 7, 120, 0
1, 46304, Control_c, 7, 121, 0
1, 46308, Control_c, 7, 7, 127
1, 46308, Note_off_c, 9, 69, 0
1, 46312, Control_c, 8, 123, 0
1, 46316, Control_c, 8, 120, 0
1, 46320, Control_c, 8, 121, 0
1, 46320, Note_off_c, 9, 70, 0
1, 46324, Control_c, 8, 7, 127
1, 46368, Note_on_c, 9, 69, 70
1, 46400, Note_off_c, 9, 69, 0
1, 46464, Note_on_c, 9, 38, 121
1, 46464, Note_on_c, 9, 70, 75
1, 46508, Note_off_c, 9, 70, 0
1, 46548, Note_off_c, 9, 38, 0
1, 46656, Note_on_c, 2, 41, 103
1, 46656, Note_on_c, 2, 53, 105
1, 46656, Note_on_c, 2, 57, 107
1, 46656, Note_on_c, 2, 60, 105
1, 46656, Note_on_c, 9, 36, 121
1, 46656, Note_on_c, 9, 70, 85
1, 46656, Note_on_c, 9, 81, 111
1, 46656, Note_on_c, 1, 29, 121
1, 46700, Note_off_c, 9, 70, 0
1, 46716, Note_off_c, 9, 36, 0
1, 46716, Note_off_c, 9, 81, 0
1, 46788, Note_off_c, 2, 53, 0
1, 46832, Note_off_c, 1, 29, 0
1, 46836, Note_off_c, 2, 60, 0
1, 46844, Note_off_c, 2, 41, 0
1, 46844, Note_off_c, 2, 57, 0
1, 46848, Note_on_c, 2, 43, 112
1, 46848, Note_on_c, 2, 53, 103
1, 46848, Note_on_c, 2, 58, 95
1, 46848, Note_on_c, 2, 62, 105
1, 46848, Note_on_c, 9, 36, 121
1, 46848, Note_on_c, 9, 70, 100
1, 46848, Note_on_c, 1, 31, 121
1, 46892, Note_off_c, 9, 70, 0
1, 46908, Note_off_c, 9, 36, 0
1, 46944, Note_on_c, 9, 70, 89
1, 46984, Note_off_c, 9, 70, 0
1, 47004, Note_off_c, 2, 53, 0
1, 47004, Note_off_c, 2, 62, 0
1, 47012, Note_off_c, 2, 58, 0
1, 47032, Note_off_c, 2, 43, 0
1, 47040, Note_on_c, 9, 69, 116
1, 47040, Note_on_c, 9, 70, 72
1, 47056, Note_off_c, 1, 31, 0
1, 47080, Note_off_c, 9, 70, 0
1, 47088, Note_off_c, 9, 69, 0
1, 47136, Note_on_c, 9, 36, 116
1, 47136, Note_on_c, 9, 69, 79
1, 47168, Note_off_c, 9, 36, 0
1, 47176, Note_off_c, 9, 69, 0
1, 47232, Note_on_c, 9, 38, 121
1, 47232, Note_on_c, 9, 70, 94
1, 47276, Note_off_c, 9, 70, 0
1, 47352, Note_off_c, 9, 38, 0
1, 47424, Note_on_c, 9, 36, 111
1, 47424, Note_on_c, 9, 70, 94
1, 47424, Note_on_c, 9, 81, 107
1, 47476, Note_off_c, 9, 70, 0
1, 47484, Note_off_c, 9, 36, 0
1, 47488, Note_off_c, 9, 81, 0
1, 47616, Note_on_c, 2, 50, 107
1, 47616, Note_on_c, 2, 57, 107
1, 47616, Note_on_c, 2, 62, 107
1, 47616, Note_on_c, 2, 66, 100
1, 47616, Note_on_c, 8, 57, 84
1, 47616, Note_on_c, 8, 62, 83
1, 47616, Note_on_c, 8, 66, 76
1, 47616, Note_on_c, 9, 36, 121
1, 47616, Note_on_c, 9, 70, 104
1, 47616, Note_on_c, 1, 38, 123
1, 47664, Note_off_c, 9, 70, 0
1, 47712, Note_on_c, 9, 70, 94
1, 47736, Note_off_c, 9, 36, 0
1, 47764, Note_off_c, 9, 70, 0
1, 47808, Note_on_c, 9, 69, 111
1, 47808, Note_on_c, 9, 70, 81
1, 47852, Note_off_c, 9, 69, 0
1, 47868, Note_off_c, 9, 70, 0
1, 47904, Note_on_c, 9, 69, 70
1, 47960, Note_off_c, 9, 69, 0
1, 48000, Note_on_c, 9, 38, 121
1, 48000, Note_on_c, 9, 70, 85
1, 48056, Note_off_c, 9, 70, 0
1, 48084, Note_off_c, 9, 38, 0
1, 48192, Note_on_c, 9, 36, 121
1, 48192, Note_on_c, 9, 70, 71
1, 48192, Note_on_c, 9, 81, 116
1, 48248, Note_off_c, 9, 70, 0
1, 48252, Note_off_c, 9, 36, 0
1, 48252, Note_off_c, 9, 81, 0
1, 48384, Note_on_c, 9, 36, 121
1, 48384, Note_on_c, 9, 42, 97
1, 48384, Note_on_c, 9, 70, 104
1, 48416, Note_off_c, 9, 42, 0
1, 48432, Note_off_c, 9, 70, 0
1, 48444, Note_off_c, 9, 36, 0
1, 48480, Note_on_c, 9, 70, 92
1, 48524, Note_off_c, 9, 70, 0
1, 48576, Note_on_c, 9, 36, 116
1, 48576, Note_on_c, 9, 46, 107
1, 48576, Note_on_c, 9, 69, 111
1, 48576, Note_on_c, 9, 70, 104
1, 48608, Note_off_c, 9, 36, 0
1, 48624, Note_off_c, 9, 46, 0
1, 48624, Note_off_c, 9, 69, 0
1, 48624, Note_off_c, 9, 70, 0
1, 48672, Note_on_c, 9, 69, 74
1, 48672, Note_on_c, 9, 70, 92
1, 48708, Note_off_c, 9, 69, 0
1, 48716, Note_off_c, 9, 70, 0
1, 48768, Note_on_c, 2, 57, 113
1, 48768, Note_on_c, 9, 38, 121
1, 48768, Note_on_c, 9, 42, 89
1, 48768, Note_on_c, 9, 70, 104
1, 48804, Note_off_c, 9, 42, 0
1, 48816, Note_off_c, 9, 70, 0
1, 48860, Note_off_c, 2, 57, 0
1, 48864, Note_on_c, 2, 58, 103
1, 48864, Note_on_c, 9, 70, 104
1, 48888, Note_off_c, 9, 38, 0
1, 48912, Note_off_c, 9, 70, 0
1, 48952, Note_off_c, 2, 58, 0
1, 48960, Note_on_c, 2, 55, 107
1, 48960, Note_on_c, 9, 36, 111
1, 48960, Note_on_c, 9, 46, 104
1, 48960, Note_on_c, 9, 70, 100
1, 48960, Note_on_c, 9, 81, 111
1, 49004, Note_off_c, 9, 46, 0
1, 49012, Note_off_c, 9, 70, 0
1, 49020, Note_off_c, 9, 36, 0
1, 49020, Note_off_c, 9, 81, 0
1, 49052, Note_off_c, 2, 55, 0
1, 49056, Note_on_c, 2, 53, 105
1, 49056, Note_on_c, 9, 70, 94
1, 49076, Note_off_c, 2, 66, 0
1, 49088, Note_off_c, 2, 62, 0
1, 49096, Note_off_c, 2, 57, 0
1, 49104, Note_off_c, 8, 66, 0
1, 49104, Note_off_c, 9, 70, 0
1, 49108, Note_off_c, 8, 62, 0
1, 49116, Note_off_c, 8, 57, 0
1, 49120, Note_off_c, 2, 50, 0
1, 49120, Note_off_c, 1, 38, 0
1, 49136, Note_off_c, 2, 53, 0
1, 49152, Note_on_c, 2, 43, 109
1, 49152, Note_on_c, 2, 53, 102
1, 49152, Note_on_c, 2, 58, 105
1, 49152, Note_on_c, 2, 62, 105
1, 49152, Note_on_c, 6, 60, 82
1, 49152, Note_on_c, 9, 36, 121
1, 49152, Note_on_c, 9, 49, 97
1, 49152, Note_on_c, 9, 70, 97
1, 49152, Note_on_c, 1, 31, 125
1, 49208, Note_off_c, 9, 70, 0
1, 49264, Note_off_c, 9, 49, 0
1, 49272, Note_off_c, 9, 36, 0
1, 49312, Note_off_c, 2, 62, 0
1, 49316, Note_off_c, 2, 53, 0
1, 49320, Note_off_c, 2, 58, 0
1, 49340, Note_off_c, 2, 43, 0
1, 49344, Note_on_c, 9, 69, 121
1, 49344, Note_on_c, 9, 70, 83
1, 49352, Note_off_c, 1, 31, 0
1, 49380, Note_off_c, 9, 69, 0
1, 49392, Note_off_c, 9, 70, 0
1, 49440, Note_on_c, 9, 69, 70
1, 49472, Note_off_c, 9, 69, 0
1, 49536, Note_on_c, 9, 38, 121
1, 49536, Note_on_c, 9, 70, 75
1, 49580, Note_off_c, 9, 70, 0
1, 49620, Note_off_c, 9, 38, 0
1, 49728, Note_on_c, 2, 41, 107
1, 49728, Note_on_c, 2, 53, 105
1, 49728, Note_on_c, 2, 57, 109
1, 49728, Note_on_c, 2, 60, 107
1, 49728, Note_on_c, 9, 36, 121
1, 49728, Note_on_c, 9, 70, 85
1, 49728, Note_on_c, 9, 81, 111
1, 49728, Note_on_c, 1, 29, 121
1, 49772, Note_off_c, 9, 70, 0
1, 49788, Note_off_c, 9, 36, 0
1, 49788, Note_off_c, 9, 81, 0
1, 49860, Note_off_c, 2, 53, 0
1, 49892, Note_off_c, 2, 41, 0
1, 49896, Note_off_c, 2, 60, 0
1, 49904, Note_off_c, 2, 57, 0
1, 49904, Note_off_c, 1, 29, 0
1, 49920, Note_on_c, 2, 43, 105
1, 49920, Note_on_c, 2, 53, 103
1, 49920, Note_on_c, 2, 58, 95
1, 49920, Note_on_c, 2, 62, 107
1, 49920, Note_on_c, 9, 36, 121
1, 49920, Note_on_c, 9, 70, 100
1, 49920, Note_on_c, 1, 31, 121
1, 49964, Note_off_c, 9, 70, 0
1, 49980, Note_off_c, 9, 36, 0
1, 50016, Note_on_c, 9, 70, 89
1, 50056, Note_off_c, 9, 70, 0
1, 50068, Note_off_c, 2, 58, 0
1, 50072, Note_off_c, 2, 62, 0
1, 50076, Note_off_c, 2, 53, 0
1, 50092, Note_off_c, 2, 43, 0
1, 50112, Note_on_c, 9, 69, 116
1, 50112, Note_on_c, 9, 70, 72
1, 50128, Note_off_c, 1, 31, 0
1, 50152, Note_off_c, 9, 70, 0
1, 50160, Note_off_c, 9, 69, 0
1, 50208, Note_on_c, 9, 36, 116
1, 50208, Note_on_c, 9, 69, 79
1, 50240, Note_off_c, 9, 36, 0
1, 50248, Note_off_c, 9, 69, 0
1, 50304, Note_on_c, 9, 38, 121
1, 50304, Note_on_c, 9, 70, 94
1, 50348, Note_off_c, 9, 70, 0
1, 50424, Note_off_c, 9, 38, 0
1, 50496, Note_on_c, 9, 36, 111
1, 50496, Note_on_c, 9, 70, 94
1, 50496, Note_on_c, 9, 81, 107
1, 50548, Note_off_c, 9, 70, 0
1, 50556, Note_off_c, 9, 36, 0
1, 50560, Note_off_c, 9, 81, 0
1, 50688, Note_on_c, 2, 48, 109
1, 50688, Note_on_c, 2, 55, 105
1, 50688, Note_on_c, 2, 60, 107
1, 50688, Note_on_c, 2, 64, 103
1, 50688, Note_on_c, 9, 36, 121
1, 50688, Note_on_c, 9, 70, 104
1, 50688, Note_on_c, 1, 36, 123
1, 50736, Note_off_c, 9, 70, 0
1, 50784, Note_on_c, 9, 70, 94
1, 50808, Note_off_c, 9, 36, 0
1, 50836, Note_off_c, 9, 70, 0
1, 50880, Note_on_c, 9, 69, 111
1, 50880, Note_on_c, 9, 70, 81
1, 50924, Note_off_c, 9, 69, 0
1, 50940, Note_off_c, 9, 70, 0
1, 50976, Note_on_c, 9, 69, 70
1, 51032, Note_off_c, 9, 69, 0
1, 51072, Note_on_c, 9, 38, 121
1, 51072, Note_on_c, 9, 70, 85
1, 51128, Note_off_c, 9, 70, 0
1, 51156, Note_off_c, 9, 38, 0
1, 51264, Note_on_c, 9, 36, 121
1, 51264, Note_on_c, 9, 70, 71
1, 51264, Note_on_c, 9, 81, 116
1, 51320, Note_off_c, 9, 70, 0
1, 51324, Note_off_c, 9, 36, 0
1, 51324, Note_off_c, 9, 81, 0
1, 51456, Note_on_c, 9, 36, 121
1, 51456, Note_on_c, 9, 42, 97
1, 51456, Note_on_c, 9, 70, 104
1, 51488, Note_off_c, 9, 42, 0
1, 51504, Note_off_c, 9, 70, 0
1, 51516, Note_off_c, 9, 36, 0
1, 51552, Note_on_c, 9, 70, 92
1, 51596, Note_off_c, 9, 70, 0
1, 51648, Note_on_c, 9, 36, 116
1, 51648, Note_on_c, 9, 46, 107
1, 51648, Note_on_c, 9, 69, 111
1, 51648, Note_on_c, 9, 70, 104
1, 51680, Note_off_c, 9, 36, 0
1, 51696, Note_off_c, 9, 46, 0
1, 51696, Note_off_c, 9, 69, 0
1, 51696, Note_off_c, 9, 70, 0
1, 51744, Note_on_c, 9, 69, 74
1, 51744, Note_on_c, 9, 70, 92
1, 51780, Note_off_c, 9, 69, 0
1, 51788, Note_off_c, 9, 70, 0
1, 51836, Note_off_c, 6, 60, 64
1, 51840, Note_on_c, 6, 62, 82
1, 51840, Note_on_c, 9, 38, 121
1, 51840, Note_on_c, 9, 42, 89
1, 51840, Note_on_c, 9, 70, 104
1, 51876, Note_off_c, 9, 42, 0
1, 51888, Note_off_c, 9, 70, 0
1, 51936, Note_on_c, 9, 70, 104
1, 51960, Note_off_c, 9, 38, 0
1, 51984, Note_off_c, 9, 70, 0
1, 52032, Note_on_c, 9, 36, 111
1, 52032, Note_on_c, 9, 46, 104
1, 52032, Note_on_c, 9, 70, 100
1, 52032, Note_on_c, 9, 81, 111
1, 52064, Note_off_c, 2, 64, 0
1, 52076, Note_off_c, 9, 46, 0
1, 52084, Note_off_c, 9, 70, 0
1, 52092, Note_off_c, 9, 36, 0
1, 52092, Note_off_c, 9, 81, 0
1, 52128, Note_on_c, 9, 70, 94
1, 52132, Note_off_c, 2, 60, 0
1, 52144, Note_off_c, 2, 55, 0
1, 52176, Note_off_c, 2, 48, 0
1, 52176, Note_off_c, 9, 70, 0
1, 52192, Note_off_c, 1, 36, 0
1, 52220, Note_off_c, 6, 62, 0
1, 52224, Note_on_c, 2, 43, 112
1, 52224, Note_on_c, 2, 53, 103
1, 52224, Note_on_c, 2, 58, 103
1, 52224, Note_on_c, 2, 62, 107
1, 52224, Note_on_c, 6, 60, 83
1, 52224, Note_on_c, 9, 36, 121
1, 52224, Note_on_c, 9, 70, 97
1, 52224, Note_on_c, 1, 31, 125
1, 52280, Note_off_c, 9, 70, 0
1, 52344, Note_off_c, 9, 36, 0
1, 52408, Note_off_c, 2, 53, 0
1, 52408, Note_off_c, 2, 62, 0
1, 52416, Note_on_c, 9, 69, 121
1, 52416, Note_on_c, 9, 70, 83
1, 52420, Note_off_c, 2, 58, 0
1, 52424, Note_off_c, 1, 31, 0
1, 52428, Note_off_c, 2, 43, 0
1, 52452, Note_off_c, 9, 69, 0
1, 52464, Note_off_c, 9, 70, 0
1, 52512, Note_on_c, 9, 69, 70
1, 52544, Note_off_c, 9, 69, 0
1, 52608, Note_on_c, 9, 38, 121
1, 52608, Note_on_c, 9, 70, 75
1, 52652, Note_off_c, 9, 70, 0
1, 52692, Note_off_c, 9, 38, 0
1, 52800, Note_on_c, 2, 41, 103
1, 52800, Note_on_c, 2, 53, 105
1, 52800, Note_on_c, 2, 57, 107
1, 52800, Note_on_c, 2, 60, 105
1, 52800, Note_on_c, 9, 36, 121
1, 52800, Note_on_c, 9, 70, 85
1, 52800, Note_on_c, 9, 81, 111
1, 52800, Note_on_c, 1, 29, 121
1, 52844, Note_off_c, 9, 70, 0
1, 52860, Note_off_c, 9, 36, 0
1, 52860, Note_off_c, 9, 81, 0
1, 52932, Note_off_c, 2, 53, 0
1, 52976, Note_off_c, 1, 29, 0
1, 52980, Note_off_c, 2, 60, 0
1, 52988, Note_off_c, 2, 41, 0
1, 52988, Note_off_c, 2, 57, 0
1, 52992, Note_on_c, 2, 43, 112
1, 52992, Note_on_c, 2, 53, 103
1, 52992, Note_on_c, 2, 58, 95
1, 52992, Note_on_c, 2, 62, 105
1, 52992, Note_on_c, 9, 36, 121
1, 52992, Note_on_c, 9, 70, 100
1, 52992, Note_on_c, 1, 31, 121
1, 53036, Note_off_c, 9, 70, 0
1, 53052, Note_off_c, 9, 36, 0
1, 53088, Note_on_c, 9, 70, 89
1, 53128, Note_off_c, 9, 70, 0
1, 53148, Note_off_c, 2, 53, 0
1, 53148, Note_off_c, 2, 62, 0
1, 53156, Note_off_c, 2, 58, 0
1, 53176, Note_off_c, 2, 43, 0
1, 53184, Note_on_c, 9, 69, 116
1, 53184, Note_on_c, 9, 70, 72
1, 53200, Note_off_c, 1, 31, 0
1, 53224, Note_off_c, 9, 70, 0
1, 53232, Note_off_c, 9, 69, 0
1, 53280, Note_on_c, 9, 36, 116
1, 53280, Note_on_c, 9, 69, 79
1, 53312, Note_off_c, 9, 36, 0
1, 53320, Note_off_c, 9, 69, 0
1, 53376, Note_on_c, 9, 38, 121
1, 53376, Note_on_c, 9, 70, 94
1, 53420, Note_off_c, 9, 70, 0
1, 53496, Note_off_c, 9, 38, 0
1, 53568, Note_on_c, 9, 36, 111
1, 53568, Note_on_c, 9, 70, 94
1, 53568, Note_on_c, 9, 81, 107
1, 53620, Note_off_c, 9, 70, 0
1, 53628, Note_off_c, 9, 36, 0
1, 53632, Note_off_c, 9, 81, 0
1, 53716, Pitch_bend_c, 7, 11776
1, 53728, Pitch_bend_c, 7, 9344
1, 53736, Pitch_bend_c, 7, 8192
1, 53756, Note_off_c, 6, 60, 0
1, 53760, Note_on_c, 2, 50, 107
1, 53760, Note_on_c, 2, 57, 107
1, 53760, Note_on_c, 2, 62, 107
1, 53760, Note_on_c, 2, 66, 100
1, 53760, Note_on_c, 6, 62, 82
1, 53760, Note_on_c, 6, 66, 69
1, 53760, Note_on_c, 9, 36, 121
1, 53760, Note_on_c, 9, 70, 104
1, 53760, Note_on_c, 1, 38, 123
1, 53808, Note_off_c, 9, 70, 0
1, 53856, Note_on_c, 9, 70, 94
1, 53880, Note_off_c, 9, 36, 0
1, 53908, Note_off_c, 9, 70, 0
1, 53952, Note_on_c, 9, 69, 111
1, 53952, Note_on_c, 9, 70, 81
1, 53996, Note_off_c, 9, 69, 0
1, 54012, Note_off_c, 9, 70, 0
1, 54048, Note_on_c, 9, 69, 70
1, 54104, Note_off_c, 9, 69, 0
1, 54144, Note_on_c, 9, 38, 121
1, 54144, Note_on_c, 9, 70, 85
1, 54200, Note_off_c, 9, 70, 0
1, 54228, Note_off_c, 9, 38, 0
1, 54336, Note_on_c, 9, 36, 121
1, 54336, Note_on_c, 9, 70, 71
1, 54336, Note_on_c, 9, 81, 116
1, 54392, Note_off_c, 9, 70, 0
1, 54396, Note_off_c, 9, 36, 0
1, 54396, Note_off_c, 9, 81, 0
1, 54528, Note_on_c, 9, 36, 121
1, 54528, Note_on_c, 9, 42, 97
1, 54528, Note_on_c, 9, 70, 104
1, 54560, Note_off_c, 9, 42, 0
1, 54576, Note_off_c, 9, 70, 0
1, 54588, Note_off_c, 9, 36, 0
1, 54624, Note_on_c, 9, 70, 92
1, 54668, Note_off_c, 9, 70, 0
1, 54720, Note_on_c, 9, 36, 116
1, 54720, Note_on_c, 9, 46, 107
1, 54720, Note_on_c, 9, 69, 111
1, 54720, Note_on_c, 9, 70, 104
1, 54752, Note_off_c, 9, 36, 0
1, 54768, Note_off_c, 9, 46, 0
1, 54768, Note_off_c, 9, 69, 0
1, 54768, Note_off_c, 9, 70, 0
1, 54816, Note_on_c, 9, 69, 74
1, 54816, Note_on_c, 9, 70, 92
1, 54852, Note_off_c, 9, 69, 0
1, 54860, Note_off_c, 9, 70, 0
1, 54912, Note_on_c, 2, 57, 113
1, 54912, Note_on_c, 9, 38, 121
1, 54912, Note_on_c, 9, 42, 89
1, 54912, Note_on_c, 9, 70, 104
1, 54948, Note_off_c, 9, 42, 0
1, 54960, Note_off_c, 9, 70, 0
1, 55004, Note_off_c, 2, 57, 0
1, 55008, Note_on_c, 2, 58, 103
1, 55008, Note_on_c, 9, 70, 104
1, 55032, Note_off_c, 9, 38, 0
1, 55056, Note_off_c, 9, 70, 0
1, 55096, Note_off_c, 2, 58, 0
1, 55104, Note_on_c, 2, 55, 107
1, 55104, Note_on_c, 9, 36, 111
1, 55104, Note_on_c, 9, 46, 104
1, 55104, Note_on_c, 9, 70, 100
1, 55104, Note_on_c, 9, 81, 111
1, 55148, Note_off_c, 9, 46, 0
1, 55156, Note_off_c, 9, 70, 0
1, 55164, Note_off_c, 9, 36, 0
1, 55164, Note_off_c, 9, 81, 0
1, 55196, Note_off_c, 2, 55, 0
1, 55200, Note_on_c, 2, 53, 105
1, 55200, Note_on_c, 9, 70, 94
1, 55220, Note_off_c, 2, 66, 0
1, 55228, Note_off_c, 6, 66, 0
1, 55232, Note_off_c, 2, 62, 0
1, 55240, Note_off_c, 2, 57, 0
1, 55248, Note_off_c, 9, 70, 0
1, 55264, Note_off_c, 2, 50, 0
1, 55264, Note_off_c, 1, 38, 0
1, 55280, Note_off_c, 2, 53, 0
1, 55292, Note_off_c, 6, 62, 0
1, 55296, Note_on_c, 2, 43, 109
1, 55296, Note_on_c, 2, 53, 102
1, 55296, Note_on_c, 2, 58, 105
1, 55296, Note_on_c, 2, 62, 105
1, 55296, Note_on_c, 6, 60, 82
1, 55296, Note_on_c, 9, 36, 121
1, 55296, Note_on_c, 9, 70, 97
1, 55296, Note_on_c, 1, 31, 125
1, 55352, Note_off_c, 9, 70, 0
1, 55416, Note_off_c, 9, 36, 0
1, 55456, Note_off_c, 2, 62, 0
1, 55460, Note_off_c, 2, 53, 0
1, 55464, Note_off_c, 2, 58, 0
1, 55484, Note_off_c, 2, 43, 0
1, 55488, Note_on_c, 9, 69, 121
1, 55488, Note_on_c, 9, 70, 83
1, 55496, Note_off_c, 1, 31, 0
1, 55524, Note_off_c, 9, 69, 0
1, 55536, Note_off_c, 9, 70, 0
1, 55584, Note_on_c, 9, 69, 70
1, 55616, Note_off_c, 9, 69, 0
1, 55680, Note_on_c, 9, 38, 121
1, 55680, Note_on_c, 9, 70, 75
1, 55724, Note_off_c, 9, 70, 0
1, 55764, Note_off_c, 9, 38, 0
1, 55872, Note_on_c, 2, 41, 107
1, 55872, Note_on_c, 2, 53, 105
1, 55872, Note_on_c, 2, 57, 109
1, 55872, Note_on_c, 2, 60, 107
1, 55872, Note_on_c, 9, 36, 121
1, 55872, Note_on_c, 9, 70, 85
1, 55872, Note_on_c, 9, 81, 111
1, 55872, Note_on_c, 1, 29, 121
1, 55916, Note_off_c, 9, 70, 0
1, 55932, Note_off_c, 9, 36, 0
1, 55932, Note_off_c, 9, 81, 0
1, 56004, Note_off_c, 2, 53, 0
1, 56036, Note_off_c, 2, 41, 0
1, 56040, Note_off_c, 2, 60, 0
1, 56048, Note_off_c, 2, 57, 0
1, 56048, Note_off_c, 1, 29, 0
1, 56064, Note_on_c, 2, 43, 105
1, 56064, Note_on_c, 2, 53, 103
1, 56064, Note_on_c, 2, 58, 95
1, 56064, Note_on_c, 2, 62, 107
1, 56064, Note_on_c, 9, 36, 121
1, 56064, Note_on_c, 9, 70, 100
1, 56064, Note_on_c, 1, 31, 121
1, 56108, Note_off_c, 9, 70, 0
1, 56124, Note_off_c, 9, 36, 0
1, 56160, Note_on_c, 9, 70, 89
1, 56200, Note_off_c, 9, 70, 0
1, 56212, Note_off_c, 2, 58, 0
1, 56216, Note_off_c, 2, 62, 0
1, 56220, Note_off_c, 2, 53, 0
1, 56236, Note_off_c, 2, 43, 0
1, 56256, Note_on_c, 9, 69, 116
1, 56256, Note_on_c, 9, 70, 72
1, 56272, Note_off_c, 1, 31, 0
1, 56296, Note_off_c, 9, 70, 0
1, 56304, Note_off_c, 9, 69, 0
1, 56352, Note_on_c, 9, 36, 116
1, 56352, Note_on_c, 9, 69, 79
1, 56384, Note_off_c, 9, 36, 0
1, 56392, Note_off_c, 9, 69, 0
1, 56448, Note_on_c, 9, 38, 121
1, 56448, Note_on_c, 9, 70, 94
1, 56492, Note_off_c, 9, 70, 0
1, 56568, Note_off_c, 9, 38, 0
1, 56640, Note_on_c, 9, 36, 111
1, 56640, Note_on_c, 9, 70, 94
1, 56640, Note_on_c, 9, 81, 107
1, 56692, Note_off_c, 9, 70, 0
1, 56700, Note_off_c, 9, 36, 0
1, 56704, Note_off_c, 9, 81, 0
1, 56832, Note_on_c, 2, 48, 109
1, 56832, Note_on_c, 2, 55, 105
1, 56832, Note_on_c, 2, 60, 107
1, 56832, Note_on_c, 2, 64, 103
1, 56832, Note_on_c, 9, 36, 121
1, 56832, Note_on_c, 9, 70, 104
1, 56832, Note_on_c, 1, 36, 123
1, 56880, Note_off_c, 9, 70, 0
1, 56928, Note_on_c, 9, 70, 94
1, 56952, Note_off_c, 9, 36, 0
1, 56980, Note_off_c, 9, 70, 0
1, 57024, Note_on_c, 9, 69, 111
1, 57024, Note_on_c, 9, 70, 81
1, 57068, Note_off_c, 9, 69, 0
1, 57084, Note_off_c, 9, 70, 0
1, 57120, Note_on_c, 9, 69, 70
1, 57176, Note_off_c, 9, 69, 0
1, 57216, Note_on_c, 9, 38, 121
1, 57216, Note_on_c, 9, 70, 85
1, 57272, Note_off_c, 9, 70, 0
1, 57300, Note_off_c, 9, 38, 0
1, 57408, Note_on_c, 9, 36, 121
1, 57408, Note_on_c, 9, 70, 71
1, 57408, Note_on_c, 9, 81, 116
1, 57464, Note_off_c, 9, 70, 0
1, 57468, Note_off_c, 9, 36, 0
1, 57468, Note_off_c, 9, 81, 0
1, 57600, Note_on_c, 9, 36, 121
1, 57600, Note_on_c, 9, 42, 97
1, 57600, Note_on_c, 9, 70, 104
1, 57632, Note_off_c, 9, 42, 0
1, 57648, Note_off_c, 9, 70, 0
1, 57660, Note_off_c, 9, 36, 0
1, 57696, Note_on_c, 9, 70, 92
1, 57740, Note_off_c, 9, 70, 0
1, 57792, Note_on_c, 9, 36, 116
1, 57792, Note_on_c, 9, 46, 107
1, 57792, Note_on_c, 9, 69, 111
1, 57792, Note_on_c, 9, 70, 104
1, 57824, Note_off_c, 9, 36, 0
1, 57840, Note_off_c, 9, 46, 0
1, 57840, Note_off_c, 9, 69, 0
1, 57840, Note_off_c, 9, 70, 0
1, 57888, Note_on_c, 9, 69, 74
1, 57888, Note_on_c, 9, 70, 92
1, 57924, Note_off_c, 9, 69, 0
1, 57932, Note_off_c, 9, 70, 0
1, 57980, Note_off_c, 6, 60, 64
1, 57984, Note_on_c, 6, 62, 82
1, 57984, Note_on_c, 9, 38, 121
1, 57984, Note_on_c, 9, 42, 89
1, 57984, Note_on_c, 9, 70, 104
1, 58020, Note_off_c, 9, 42, 0
1, 58032, Note_off_c, 9, 70, 0
1, 58080, Note_on_c, 9, 70, 104
1, 58104, Note_off_c, 9, 38, 0
1, 58128, Note_off_c, 9, 70, 0
1, 58176, Note_on_c, 9, 36, 111
1, 58176, Note_on_c, 9, 46, 104
1, 58176, Note_on_c, 9, 70, 100
1, 58176, Note_on_c, 9, 81, 111
1, 58208, Note_off_c, 2, 64, 0
1, 58220, Note_off_c, 9, 46, 0
1, 58228, Note_off_c, 9, 70, 0
1, 58236, Note_off_c, 9, 36, 0
1, 58236, Note_off_c, 9, 81, 0
1, 58272, Note_on_c, 9, 70, 94
1, 58276, Note_off_c, 2, 60, 0
1, 58288, Note_off_c, 2, 55, 0
1, 58320, Note_off_c, 2, 48, 0
1, 58320, Note_off_c, 9, 70, 0
1, 58336, Note_off_c, 1, 36, 0
1, 58364, Note_off_c, 6, 62, 0
1, 58368, Note_on_c, 2, 43, 112
1, 58368, Note_on_c, 2, 53, 103
1, 58368, Note_on_c, 2, 58, 103
1, 58368, Note_on_c, 2, 62, 107
1, 58368, Note_on_c, 6, 60, 83
1, 58368, Note_on_c, 9, 36, 121
1, 58368, Note_on_c, 9, 70, 97
1, 58368, Note_on_c, 1, 31, 125
1, 58424, Note_off_c, 9, 70, 0
1, 58488, Note_off_c, 9, 36, 0
1, 58552, Note_off_c, 2, 53, 0
1, 58552, Note_off_c, 2, 62, 0
1, 58560, Note_on_c, 9, 69, 121
1, 58560, Note_on_c, 9, 70, 83
1, 58564, Note_off_c, 2, 58, 0
1, 58568, Note_off_c, 1, 31, 0
1, 58572, Note_off_c, 2, 43, 0
1, 58596, Note_off_c, 9, 69, 0
1, 58608, Note_off_c, 9, 70, 0
1, 58656, Note_on_c, 9, 69, 70
1, 58688, Note_off_c, 9, 69, 0
1, 58752, Note_on_c, 9, 38, 121
1, 58752, Note_on_c, 9, 70, 75
1, 58796, Note_off_c, 9, 70, 0
1, 58836, Note_off_c, 9, 38, 0
1, 58944, Note_on_c, 2, 41, 103
1, 58944, Note_on_c, 2, 53, 105
1, 58944, Note_on_c, 2, 57, 107
1, 58944, Note_on_c, 2, 60, 105
1, 58944, Note_on_c, 9, 36, 121
1, 58944, Note_on_c, 9, 70, 85
1, 58944, Note_on_c, 9, 81, 111
1, 58944, Note_on_c, 1, 29, 121
1, 58988, Note_off_c, 9, 70, 0
1, 59004, Note_off_c, 9, 36, 0
1, 59004, Note_off_c, 9, 81, 0
1, 59076, Note_off_c, 2, 53, 0
1, 59120, Note_off_c, 1, 29, 0
1, 59124, Note_off_c, 2, 60, 0
1, 59132, Note_off_c, 2, 41, 0
1, 59132, Note_off_c, 2, 57, 0
1, 59136, Note_on_c, 2, 43, 112
1, 59136, Note_on_c, 2, 53, 103
1, 59136, Note_on_c, 2, 58, 95
1, 59136, Note_on_c, 2, 62, 105
1, 59136, Note_on_c, 9, 36, 121
1, 59136, Note_on_c, 9, 70, 100
1, 59136, Note_on_c, 1, 31, 121
1, 59180, Note_off_c, 9, 70, 0
1, 59196, Note_off_c, 9, 36, 0
1, 59232, Note_on_c, 9, 70, 89
1, 59272, Note_off_c, 9, 70, 0
1, 59292, Note_off_c, 2, 53, 0
1, 59292, Note_off_c, 2, 62, 0
1, 59300, Note_off_c, 2, 58, 0
1, 59320, Note_off_c, 2, 43, 0
1, 59328, Note_on_c, 9, 69, 116
1, 59328, Note_on_c, 9, 70, 72
1, 59344, Note_off_c, 1, 31, 0
1, 59368, Note_off_c, 9, 70, 0
1, 59376, Note_off_c, 9, 69, 0
1, 59424, Note_on_c, 9, 36, 116
1, 59424, Note_on_c, 9, 69, 79
1, 59456, Note_off_c, 9, 36, 0
1, 59464, Note_off_c, 9, 69, 0
1, 59520, Note_on_c, 9, 38, 121
1, 59520, Note_on_c, 9, 70, 94
1, 59564, Note_off_c, 9, 70, 0
1, 59640, Note_off_c, 9, 38, 0
1, 59712, Note_on_c, 9, 36, 111
1, 59712, Note_on_c, 9, 70, 94
1, 59712, Note_on_c, 9, 81, 107
1, 59764, Note_off_c, 9, 70, 0
1, 59772, Note_off_c, 9, 36, 0
1, 59776, Note_off_c, 9, 81, 0
1, 59900, Note_off_c, 6, 60, 0
1, 59904, Note_on_c, 2, 50, 107
1, 59904, Note_on_c, 2, 57, 107
1, 59904, Note_on_c, 2, 62, 107
1, 59904, Note_on_c, 2, 66, 100
1, 59904, Note_on_c, 6, 62, 82
1, 59904, Note_on_c, 6, 66, 69
1, 59904, Note_on_c, 9, 36, 121
1, 59904, Note_on_c, 9, 70, 104
1, 59904, Note_on_c, 1, 38, 123
1, 59952, Note_off_c, 9, 70, 0
1, 60000, Note_on_c, 9, 70, 94
1, 60024, Note_off_c, 9, 36, 0
1, 60052, Note_off_c, 9, 70, 0
1, 60096, Note_on_c, 9, 69, 111
1, 60096, Note_on_c, 9, 70, 81
1, 60140, Note_off_c, 9, 69, 0
1, 60156, Note_off_c, 9, 70, 0
1, 60192, Note_on_c, 9, 69, 70
1, 60248, Note_off_c, 9, 69, 0
1, 60288, Note_on_c, 9, 38, 121
1, 60288, Note_on_c, 9, 70, 85
1, 60344, Note_off_c, 9, 70, 0
1, 60372, Note_off_c, 9, 38, 0
1, 60480, Note_on_c, 9, 36, 121
1, 60480, Note_on_c, 9, 70, 71
1, 60480, Note_on_c, 9, 81, 116
1, 60536, Note_off_c, 9, 70, 0
1, 60540, Note_off_c, 9, 36, 0
1, 60540, Note_off_c, 9, 81, 0
1, 60672, Note_on_c, 9, 36, 121
1, 60672, Note_on_c, 9, 42, 97
1, 60672, Note_on_c, 9, 70, 104
1, 60704, Note_off_c, 9, 42, 0
1, 60720, Note_off_c, 9, 70, 0
1, 60732, Note_off_c, 9, 36, 0
1, 60768, Note_on_c, 9, 70, 92
1, 60812, Note_off_c, 9, 70, 0
1, 60864, Note_on_c, 9, 36, 116
1, 60864, Note_on_c, 9, 46, 107
1, 60864, Note_on_c, 9, 69, 111
1, 60864, Note_on_c, 9, 70, 104
1, 60896, Note_off_c, 9, 36, 0
1, 60912, Note_off_c, 9, 46, 0
1, 60912, Note_off_c, 9, 69, 0
1, 60912, Note_off_c, 9, 70, 0
1, 60960, Note_on_c, 9, 69, 74
1, 60960, Note_on_c, 9, 70, 92
1, 60996, Note_off_c, 9, 69, 0
1, 61004, Note_off_c, 9, 70, 0
1, 61056, Note_on_c, 2, 57, 113
1, 61056, Note_on_c, 9, 38, 121
1, 61056, Note_on_c, 9, 42, 89
1, 61056, Note_on_c, 9, 70, 104
1, 61092, Note_off_c, 9, 42, 0
1, 61104, Note_off_c, 9, 70, 0
1, 61148, Note_off_c, 2, 57, 0
1, 61152, Note_on_c, 2, 58, 103
1, 61152, Note_on_c, 9, 70, 104
1, 61176, Note_off_c, 9, 38, 0
1, 61200, Note_off_c, 9, 70, 0
1, 61240, Note_off_c, 2, 58, 0
1, 61248, Note_on_c, 2, 55, 107
1, 61248, Note_on_c, 9, 36, 111
1, 61248, Note_on_c, 9, 46, 104
1, 61248, Note_on_c, 9, 70, 100
1, 61248, Note_on_c, 9, 81, 111
1, 61292, Note_off_c, 9, 46, 0
1, 61300, Note_off_c, 9, 70, 0
1, 61308, Note_off_c, 9, 36, 0
1, 61308, Note_off_c, 9, 81, 0
1, 61340, Note_off_c, 2, 55, 0
1, 61344, Note_on_c, 2, 53, 105
1, 61344, Note_on_c, 9, 70, 94
1, 61364, Note_off_c, 2, 66, 0
1, 61372, Note_off_c, 6, 66, 0
1, 61376, Note_off_c, 2, 62, 0
1, 61384, Note_off_c, 2, 57, 0
1, 61392, Note_off_c, 9, 70, 0
1, 61408, Note_off_c, 2, 50, 0
1, 61408, Note_off_c, 1, 38, 0
1, 61424, Note_off_c, 2, 53, 0
1, 61436, Note_off_c, 6, 62, 0
1, 61440, Note_on_c, 2, 43, 109
1, 61440, Note_on_c, 2, 53, 102
1, 61440, Note_on_c, 2, 58, 105
1, 61440, Note_on_c, 2, 62, 105
1, 61440, Note_on_c, 6, 60, 82
1, 61440, Note_on_c, 9, 36, 121
1, 61440, Note_on_c, 9, 49, 97
1, 61440, Note_on_c, 9, 70, 97
1, 61440, Note_on_c, 1, 31, 125
1, 61496, Note_off_c, 9, 70, 0
1, 61552, Note_off_c, 9, 49, 0
1, 61560, Note_off_c, 9, 36, 0
1, 61600, Note_off_c, 2, 62, 0
1, 61604, Note_off_c, 2, 53, 0
1, 61608, Note_off_c, 2, 58, 0
1, 61628, Note_off_c, 2, 43, 0
1, 61632, Note_on_c, 9, 69, 121
1, 61632, Note_on_c, 9, 70, 83
1, 61640, Note_off_c, 1, 31, 0
1, 61668, Note_off_c, 9, 69, 0
1, 61680, Note_off_c, 9, 70, 0
1, 61728, Note_on_c, 9, 69, 70
1, 61760, Note_off_c, 9, 69, 0
1, 61824, Note_on_c, 9, 38, 121
1, 61824, Note_on_c, 9, 70, 75
1, 61868, Note_off_c, 9, 70, 0
1, 61908, Note_off_c, 9, 38, 0
1, 62016, Note_on_c, 2, 41, 107
1, 62016, Note_on_c, 2, 53, 105
1, 62016, Note_on_c, 2, 57, 109
1, 62016, Note_on_c, 2, 60, 107
1, 62016, Note_on_c, 9, 36, 121
1, 62016, Note_on_c, 9, 70, 85
1, 62016, Note_on_c, 9, 81, 111
1, 62016, Note_on_c, 1, 29, 121
1, 62060, Note_off_c, 9, 70, 0
1, 62076, Note_off_c, 9, 36, 0
1, 62076, Note_off_c, 9, 81, 0
1, 62148, Note_off_c, 2, 53, 0
1, 62180, Note_off_c, 2, 41, 0
1, 62184, Note_off_c, 2, 60, 0
1, 62192, Note_off_c, 2, 57, 0
1, 62192, Note_off_c, 1, 29, 0
1, 62208, Note_on_c, 2, 43, 105
1, 62208, Note_on_c, 2, 53, 103
1, 62208, Note_on_c, 2, 58, 95
1, 62208, Note_on_c, 2, 62, 107
1, 62208, Note_on_c, 9, 36, 121
1, 62208, Note_on_c, 9, 70, 100
1, 62208, Note_on_c, 1, 31, 121
1, 62252, Note_off_c, 9, 70, 0
1, 62268, Note_off_c, 9, 36, 0
1, 62304, Note_on_c, 9, 70, 89
1, 62344, Note_off_c, 9, 70, 0
1, 62356, Note_off_c, 2, 58, 0
1, 62360, Note_off_c, 2, 62, 0
1, 62364, Note_off_c, 2, 53, 0
1, 62380, Note_off_c, 2, 43, 0
1, 62400, Note_on_c, 9, 69, 116
1, 62400, Note_on_c, 9, 70, 72
1, 62416, Note_off_c, 1, 31, 0
1, 62440, Note_off_c, 9, 70, 0
1, 62448, Note_off_c, 9, 69, 0
1, 62496, Note_on_c, 9, 36, 116
1, 62496, Note_on_c, 9, 69, 79
1, 62528, Note_off_c, 9, 36, 0
1, 62536, Note_off_c, 9, 69, 0
1, 62592, Note_on_c, 9, 38, 121
1, 62592, Note_on_c, 9, 70, 94
1, 62636, Note_off_c, 9, 70, 0
1, 62712, Note_off_c, 9, 38, 0
1, 62784, Note_on_c, 9, 36, 111
1, 62784, Note_on_c, 9, 70, 94
1, 62784, Note_on_c, 9, 81, 107
1, 62836, Note_off_c, 9, 70, 0
1, 62844, Note_off_c, 9, 36, 0
1, 62848, Note_off_c, 9, 81, 0
1, 62976, Note_on_c, 2, 48, 109
1, 62976, Note_on_c, 2, 55, 105
1, 62976, Note_on_c, 2, 60, 107
1, 62976, Note_on_c, 2, 64, 103
1, 62976, Note_on_c, 9, 36, 121
1, 62976, Note_on_c, 9, 70, 104
1, 62976, Note_on_c, 1, 36, 123
1, 63024, Note_off_c, 9, 70, 0
1, 63072, Note_on_c, 9, 70, 94
1, 63096, Note_off_c, 9, 36, 0
1, 63124, Note_off_c, 9, 70, 0
1, 63168, Note_on_c, 9, 69, 111
1, 63168, Note_on_c, 9, 70, 81
1, 63212, Note_off_c, 9, 69, 0
1, 63228, Note_off_c, 9, 70, 0
1, 63264, Note_on_c, 9, 69, 70
1, 63320, Note_off_c, 9, 69, 0
1, 63360, Note_on_c, 9, 38, 121
1, 63360, Note_on_c, 9, 70, 85
1, 63416, Note_off_c, 9, 70, 0
1, 63444, Note_off_c, 9, 38, 0
1, 63552, Note_on_c, 9, 36, 121
1, 63552, Note_on_c, 9, 70, 71
1, 63552, Note_on_c, 9, 81, 116
1, 63608, Note_off_c, 9, 70, 0
1, 63612, Note_off_c, 9, 36, 0
1, 63612, Note_off_c, 9, 81, 0
1, 63744, Note_on_c, 9, 36, 121
1, 63744, Note_on_c, 9, 42, 97
1, 63744, Note_on_c, 9, 70, 104
1, 63776, Note_off_c, 9, 42, 0
1, 63792, Note_off_c, 9, 70, 0
1, 63804, Note_off_c, 9, 36, 0
1, 63840, Note_on_c, 9, 70, 92
1, 63884, Note_off_c, 9, 70, 0
1, 63936, Note_on_c, 9, 36, 116
1, 63936, Note_on_c, 9, 46, 107
1, 63936, Note_on_c, 9, 69, 111
1, 63936, Note_on_c, 9, 70, 104
1, 63968, Note_off_c, 9, 36, 0
1, 63984, Note_off_c, 9, 46, 0
1, 63984, Note_off_c, 9, 69, 0
1, 63984, Note_off_c, 9, 70, 0
1, 64032, Note_on_c, 9, 69, 74
1, 64032, Note_on_c, 9, 70, 92
1, 64068, Note_off_c, 9, 69, 0
1, 64076, Note_off_c, 9, 70, 0
1, 64124, Note_off_c, 6, 60, 64
1, 64128, Note_on_c, 6, 62, 82
1, 64128, Note_on_c, 9, 38, 121
1, 64128, Note_on_c, 9, 42, 89
1, 64128, Note_on_c, 9, 70, 104
1, 64164, Note_off_c, 9, 42, 0
1, 64176, Note_off_c, 9, 70, 0
1, 64224, Note_on_c, 9, 70, 104
1, 64248, Note_off_c, 9, 38, 0
1, 64272, Note_off_c, 9, 70, 0
1, 64320, Note_on_c, 9, 36, 111
1, 64320, Note_on_c, 9, 46, 104
1, 64320, Note_on_c, 9, 70, 100
1, 64320, Note_on_c, 9, 81, 111
1, 64352, Note_off_c, 2, 64, 0
1, 64364, Note_off_c, 9, 46, 0
1, 64372, Note_off_c, 9, 70, 0
1, 64380, Note_off_c, 9, 36, 0
1, 64380, Note_off_c, 9, 81, 0
1, 64416, Note_on_c, 9, 70, 94
1, 64420, Note_off_c, 2, 60, 0
1, 64432, Note_off_c, 2, 55, 0
1, 64464, Note_off_c, 2, 48, 0
1, 64464, Note_off_c, 9, 70, 0
1, 64480, Note_off_c, 1, 36, 0
1, 64508, Note_off_c, 6, 62, 0
1, 64512, Note_on_c, 2, 43, 112
1, 64512, Note_on_c, 2, 53, 103
1, 64512, Note_on_c, 2, 58, 103
1, 64512, Note_on_c, 2, 62, 107
1, 64512, Note_on_c, 6, 60, 83
1, 64512, Note_on_c, 9, 36, 121
1, 64512, Note_on_c, 9, 70, 97
1, 64512, Note_on_c, 1, 31, 125
1, 64568, Note_off_c, 9, 70, 0
1, 64632, Note_off_c, 9, 36, 0
1, 64696, Note_off_c, 2, 53, 0
1, 64696, Note_off_c, 2, 62, 0
1, 64704, Note_on_c, 9, 69, 121
1, 64704, Note_on_c, 9, 70, 83
1, 64708, Note_off_c, 2, 58, 0
1, 64712, Note_off_c, 1, 31, 0
1, 64716, Note_off_c, 2, 43, 0
1, 64740, Note_off_c, 9, 69, 0
1, 64752, Note_off_c, 9, 70, 0
1, 64800, Note_on_c, 9, 69, 70
1, 64832, Note_off_c, 9, 69, 0
1, 64896, Note_on_c, 9, 38, 121
1, 64896, Note_on_c, 9, 70, 75
1, 64940, Note_off_c, 9, 70, 0
1, 64980, Note_off_c, 9, 38, 0
1, 65088, Note_on_c, 2, 41, 103
1, 65088, Note_on_c, 2, 53, 105
1, 65088, Note_on_c, 2, 57, 107
1, 65088, Note_on_c, 2, 60, 105
1, 65088, Note_on_c, 9, 36, 121
1, 65088, Note_on_c, 9, 70, 85
1, 65088, Note_on_c, 9, 81, 111
1, 65088, Note_on_c, 1, 29, 121
1, 65132, Note_off_c, 9, 70, 0
1, 65148, Note_off_c, 9, 36, 0
1, 65148, Note_off_c, 9, 81, 0
1, 65220, Note_off_c, 2, 53, 0
1, 65264, Note_off_c, 1, 29, 0
1, 65268, Note_off_c, 2, 60, 0
1, 65276, Note_off_c, 2, 41, 0
1, 65276, Note_off_c, 2, 57, 0
1, 65280, Note_on_c, 2, 43, 112
1, 65280, Note_on_c, 2, 53, 103
1, 65280, Note_on_c, 2, 58, 95
1, 65280, Note_on_c, 2, 62, 105
1, 65280, Note_on_c, 9, 36, 121
1, 65280, Note_on_c, 9, 70, 100
1, 65280, Note_on_c, 1, 31, 121
1, 65324, Note_off_c, 9, 70, 0
1, 65340, Note_off_c, 9, 36, 0
1, 65376, Note_on_c, 9, 70, 89
1, 65416, Note_off_c, 9, 70, 0
1, 65436, Note_off_c, 2, 53, 0
1, 65436, Note_off_c, 2, 62, 0
1, 65444, Note_off_c, 2, 58, 0
1, 65464, Note_off_c, 2, 43, 0
1, 65472, Note_on_c, 9, 69, 116
1, 65472, Note_on_c, 9, 70, 72
1, 65488, Note_off_c, 1, 31, 0
1, 65512, Note_off_c, 9, 70, 0
1, 65520, Note_off_c, 9, 69, 0
1, 65568, Note_on_c, 9, 36, 116
1, 65568, Note_on_c, 9, 69, 79
1, 65600, Note_off_c, 9, 36, 0
1, 65608, Note_off_c, 9, 69, 0
1, 65664, Note_on_c, 9, 38, 121
1, 65664, Note_on_c, 9, 70, 94
1, 65708, Note_off_c, 9, 70, 0
1, 65784, Note_off_c, 9, 38, 0
1, 65856, Note_on_c, 9, 36, 111
1, 65856, Note_on_c, 9, 70, 94
1, 65856, Note_on_c, 9, 81, 107
1, 65908, Note_off_c, 9, 70, 0
1, 65916, Note_off_c, 9, 36, 0
1, 65920, Note_off_c, 9, 81, 0
1, 66004, Pitch_bend_c, 7, 11776
1, 66016, Pitch_bend_c, 7, 9344
1, 66024, Pitch_bend_c, 7, 8192
1, 66044, Note_off_c, 6, 60, 0
1, 66048, Note_on_c, 2, 50, 107
1, 66048, Note_on_c, 2, 57, 107
1, 66048, Note_on_c, 2, 62, 107
1, 66048, Note_on_c, 2, 66, 100
1, 66048, Note_on_c, 6, 62, 82
1, 66048, Note_on_c, 6, 66, 69
1, 66048, Note_on_c, 9, 36, 121
1, 66048, Note_on_c, 9, 70, 104
1, 66048, Note_on_c, 1, 38, 123
1, 66096, Note_off_c, 9, 70, 0
1, 66144, Note_on_c, 9, 70, 94
1, 66168, Note_off_c, 9, 36, 0
1, 66196, Note_off_c, 9, 70, 0
1, 66240, Note_on_c, 9, 69, 111
1, 66240, Note_on_c, 9, 70, 81
1, 66284, Note_off_c, 9, 69, 0
1, 66300, Note_off_c, 9, 70, 0
1, 66336, Note_on_c, 9, 69, 70
1, 66392, Note_off_c, 9, 69, 0
1, 66432, Note_on_c, 9, 38, 121
1, 66432, Note_on_c, 9, 70, 85
1, 66488, Note_off_c, 9, 70, 0
1, 66516, Note_off_c, 9, 38, 0
1, 66624, Note_on_c, 9, 36, 121
1, 66624, Note_on_c, 9, 70, 71
1, 66624, Note_on_c, 9, 81, 116
1, 66680, Note_off_c, 9, 70, 0
1, 66684, Note_off_c, 9, 36, 0
1, 66684, Note_off_c, 9, 81, 0
1, 66816, Note_on_c, 9, 36, 121
1, 66816, Note_on_c, 9, 42, 97
1, 66816, Note_on_c, 9, 70, 104
1, 66848, Note_off_c, 9, 42, 0
1, 66864, Note_off_c, 9, 70, 0
1, 66876, Note_off_c, 9, 36, 0
1, 66912, Note_on_c, 9, 70, 92
1, 66956, Note_off_c, 9, 70, 0
1, 67008, Note_on_c, 9, 36, 116
1, 67008, Note_on_c, 9, 46, 107
1, 67008, Note_on_c, 9, 69, 111
1, 67008, Note_on_c, 9, 70, 104
1, 67040, Note_off_c, 9, 36, 0
1, 67056, Note_off_c, 9, 46, 0
1, 67056, Note_off_c, 9, 69, 0
1, 67056, Note_off_c, 9, 70, 0
1, 67104, Note_on_c, 9, 69, 74
1, 67104, Note_on_c, 9, 70, 92
1, 67140, Note_off_c, 9, 69, 0
1, 67148, Note_off_c, 9, 70, 0
1, 67200, Note_on_c, 2, 57, 113
1, 67200, Note_on_c, 9, 38, 121
1, 67200, Note_on_c, 9, 42, 89
1, 67200, Note_on_c, 9, 70, 104
1, 67236, Note_off_c, 9, 42, 0
1, 67248, Note_off_c, 9, 70, 0
1, 67292, Note_off_c, 2, 57, 0
1, 67296, Note_on_c, 2, 58, 103
1, 67296, Note_on_c, 9, 70, 104
1, 67320, Note_off_c, 9, 38, 0
1, 67344, Note_off_c, 9, 70, 0
1, 67384, Note_off_c, 2, 58, 0
1, 67392, Note_on_c, 2, 55, 107
1, 67392, Note_on_c, 9, 36, 111
1, 67392, Note_on_c, 9, 46, 104
1, 67392, Note_on_c, 9, 70, 100
1, 67392, Note_on_c, 9, 81, 111
1, 67436, Note_off_c, 9, 46, 0
1, 67444, Note_off_c, 9, 70, 0
1, 67452, Note_off_c, 9, 36, 0
1, 67452, Note_off_c, 9, 81, 0
1, 67484, Note_off_c, 2, 55, 0
1, 67488, Note_on_c, 2, 53, 105
1, 67488, Note_on_c, 9, 70, 94
1, 67508, Note_off_c, 2, 66, 0
1, 67516, Note_off_c, 6, 66, 0
1, 67520, Note_off_c, 2, 62, 0
1, 67528, Note_off_c, 2, 57, 0
1, 67536, Note_off_c, 9, 70, 0
1, 67552, Note_off_c, 2, 50, 0
1, 67552, Note_off_c, 1, 38, 0
1, 67568, Note_off_c, 2, 53, 0
1, 67580, Note_off_c, 6, 62, 0
1, 67584, Note_on_c, 2, 43, 109
1, 67584, Note_on_c, 2, 53, 102
1, 67584, Note_on_c, 2, 58, 105
1, 67584, Note_on_c, 2, 62, 105
1, 67584, Note_on_c, 6, 60, 82
1, 67584, Note_on_c, 9, 36, 121
1, 67584, Note_on_c, 9, 70, 97
1, 67584, Note_on_c, 1, 31, 125
1, 67640, Note_off_c, 9, 70, 0
1, 67704, Note_off_c, 9, 36, 0
1, 67744, Note_off_c, 2, 62, 0
1, 67748, Note_off_c, 2, 53, 0
1, 67752, Note_off_c, 2, 58, 0
1, 67772, Note_off_c, 2, 43, 0
1, 67776, Note_on_c, 9, 69, 121
1, 67776, Note_on_c, 9, 70, 83
1, 67784, Note_off_c, 1, 31, 0
1, 67812, Note_off_c, 9, 69, 0
1, 67824, Note_off_c, 9, 70, 0
1, 67872, Note_on_c, 9, 69, 70
1, 67904, Note_off_c, 9, 69, 0
1, 67968, Note_on_c, 9, 38, 121
1, 67968, Note_on_c, 9, 70, 75
1, 68012, Note_off_c, 9, 70, 0
1, 68052, Note_off_c, 9, 38, 0
1, 68160, Note_on_c, 2, 41, 107
1, 68160, Note_on_c, 2, 53, 105
1, 68160, Note_on_c, 2, 57, 109
1, 68160, Note_on_c, 2, 60, 107
1, 68160, Note_on_c, 9, 36, 121
1, 68160, Note_on_c, 9, 70, 85
1, 68160, Note_on_c, 9, 81, 111
1, 68160, Note_on_c, 1, 29, 121
1, 68204, Note_off_c, 9, 70, 0
1, 68220, Note_off_c, 9, 36, 0
1, 68220, Note_off_c, 9, 81, 0
1, 68292, Note_off_c, 2, 53, 0
1, 68324, Note_off_c, 2, 41, 0
1, 68328, Note_off_c, 2, 60, 0
1, 68336, Note_off_c, 2, 57, 0
1, 68336, Note_off_c, 1, 29, 0
1, 68352, Note_on_c, 2, 43, 105
1, 68352, Note_on_c, 2, 53, 103
1, 68352, Note_on_c, 2, 58, 95
1, 68352, Note_on_c, 2, 62, 107
1, 68352, Note_on_c, 9, 36, 121
1, 68352, Note_on_c, 9, 70, 100
1, 68352, Note_on_c, 1, 31, 121
1, 68396, Note_off_c, 9, 70, 0
1, 68412, Note_off_c, 9, 36, 0
1, 68448, Note_on_c, 9, 70, 89
1, 68488, Note_off_c, 9, 70, 0
1, 68500, Note_off_c, 2, 58, 0
1, 68504, Note_off_c, 2, 62, 0
1, 68508, Note_off_c, 2, 53, 0
1, 68524, Note_off_c, 2, 43, 0
1, 68544, Note_on_c, 9, 69, 116
1, 68544, Note_on_c, 9, 70, 72
1, 68560, Note_off_c, 1, 31, 0
1, 68584, Note_off_c, 9, 70, 0
1, 68592, Note_off_c, 9, 69, 0
1, 68640, Note_on_c, 9, 36, 116
1, 68640, Note_on_c, 9, 69, 79
1, 68672, Note_off_c, 9, 36, 0
1, 68680, Note_off_c, 9, 69, 0
1, 68736, Note_on_c, 9, 38, 121
1, 68736, Note_on_c, 9, 70, 94
1, 68780, Note_off_c, 9, 70, 0
1, 68856, Note_off_c, 9, 38, 0
1, 68928, Note_on_c, 9, 36, 111
1, 68928, Note_on_c, 9, 70, 94
1, 68928, Note_on_c, 9, 81, 107
1, 68980, Note_off_c, 9, 70, 0
1, 68988, Note_off_c, 9, 36, 0
1, 68992, Note_off_c, 9, 81, 0
1, 69120, Note_on_c, 2, 48, 109
1, 69120, Note_on_c, 2, 55, 105
1, 69120, Note_on_c, 2, 60, 107
1, 69120, Note_on_c, 2, 64, 103
1, 69120, Note_on_c, 9, 36, 121
1, 69120, Note_on_c, 9, 70, 104
1, 69120, Note_on_c, 1, 36, 123
1, 69168, Note_off_c, 9, 70, 0
1, 69216, Note_on_c, 9, 70, 94
1, 69240, Note_off_c, 9, 36, 0
1, 69268, Note_off_c, 9, 70, 0
1, 69312, Note_on_c, 9, 69, 111
1, 69312, Note_on_c, 9, 70, 81
1, 69356, Note_off_c, 9, 69, 0
1, 69372, Note_off_c, 9, 70, 0
1, 69408, Note_on_c, 9, 69, 70
1, 69464, Note_off_c, 9, 69, 0
1, 69504, Note_on_c, 9, 38, 121
1, 69504, Note_on_c, 9, 70, 85
1, 69560, Note_off_c, 9, 70, 0
1, 69588, Note_off_c, 9, 38, 0
1, 69696, Note_on_c, 9, 36, 121
1, 69696, Note_on_c, 9, 70, 71
1, 69696, Note_on_c, 9, 81, 116
1, 69752, Note_off_c, 9, 70, 0
1, 69756, Note_off_c, 9, 36, 0
1, 69756, Note_off_c, 9, 81, 0
1, 69888, Note_on_c, 9, 36, 121
1, 69888, Note_on_c, 9, 42, 97
1, 69888, Note_on_c, 9, 70, 104
1, 69920, Note_off_c, 9, 42, 0
1, 69936, Note_off_c, 9, 70, 0
1, 69948, Note_off_c, 9, 36, 0
1, 69984, Note_on_c, 9, 70, 92
1, 70028, Note_off_c, 9, 70, 0
1, 70080, Note_on_c, 9, 36, 116
1, 70080, Note_on_c, 9, 46, 107
1, 70080, Note_on_c, 9, 69, 111
1, 70080, Note_on_c, 9, 70, 104
1, 70112, Note_off_c, 9, 36, 0
1, 70128, Note_off_c, 9, 46, 0
1, 70128, Note_off_c, 9, 69, 0
1, 70128, Note_off_c, 9, 70, 0
1, 70176, Note_on_c, 9, 69, 74
1, 70176, Note_on_c, 9, 70, 92
1, 70212, Note_off_c, 9, 69, 0
1, 70220, Note_off_c, 9, 70, 0
1, 70268, Note_off_c, 6, 60, 64
1, 70272, Note_on_c, 6, 62, 82
1, 70272, Note_on_c, 9, 38, 121
1, 70272, Note_on_c, 9, 42, 89
1, 70272, Note_on_c, 9, 70, 104
1, 70308, Note_off_c, 9, 42, 0
1, 70320, Note_off_c, 9, 70, 0
1, 70368, Note_on_c, 9, 70, 104
1, 70392, Note_off_c, 9, 38, 0
1, 70416, Note_off_c, 9, 70, 0
1, 70464, Note_on_c, 9, 36, 111
1, 70464, Note_on_c, 9, 46, 104
1, 70464, Note_on_c, 9, 70, 100
1, 70464, Note_on_c, 9, 81, 111
1, 70496, Note_off_c, 2, 64, 0
1, 70508, Note_off_c, 9, 46, 0
1, 70516, Note_off_c, 9, 70, 0
1, 70524, Note_off_c, 9, 36, 0
1, 70524, Note_off_c, 9, 81, 0
1, 70560, Note_on_c, 9, 70, 94
1, 70564, Note_off_c, 2, 60, 0
1, 70576, Note_off_c, 2, 55, 0
1, 70608, Note_off_c, 2, 48, 0
1, 70608, Note_off_c, 9, 70, 0
1, 70624, Note_off_c, 1, 36, 0
1, 70652, Note_off_c, 6, 62, 0
1, 70656, Note_on_c, 2, 43, 112
1, 70656, Note_on_c, 2, 53, 103
1, 70656, Note_on_c, 2, 58, 103
1, 70656, Note_on_c, 2, 62, 107
1, 70656, Note_on_c, 6, 60, 83
1, 70656, Note_on_c, 9, 36, 121
1, 70656, Note_on_c, 9, 70, 97
1, 70656, Note_on_c, 1, 31, 125
1, 70712, Note_off_c, 9, 70, 0
1, 70776, Note_off_c, 9, 36, 0
1, 70840, Note_off_c, 2, 53, 0
1, 70840, Note_off_c, 2, 62, 0
1, 70848, Note_on_c, 9, 69, 121
1, 70848, Note_on_c, 9, 70, 83
1, 70852, Note_off_c, 2, 58, 0
1, 70856, Note_off_c, 1, 31, 0
1, 70860, Note_off_c, 2, 43, 0
1, 70884, Note_off_c, 9, 69, 0
1, 70896, Note_off_c, 9, 70, 0
1, 70944, Note_on_c, 9, 69, 70
1, 70976, Note_off_c, 9, 69, 0
1, 71040, Note_on_c, 9, 38, 121
1, 71040, Note_on_c, 9, 70, 75
1, 71084, Note_off_c, 9, 70, 0
1, 71124, Note_off_c, 9, 38, 0
1, 71232, Note_on_c, 2, 41, 103
1, 71232, Note_on_c, 2, 53, 105
1, 71232, Note_on_c, 2, 57, 107
1, 71232, Note_on_c, 2, 60, 105
1, 71232, Note_on_c, 9, 36, 121
1, 71232, Note_on_c, 9, 70, 85
1, 71232, Note_on_c, 9, 81, 111
1, 71232, Note_on_c, 1, 29, 121
1, 71276, Note_off_c, 9, 70, 0
1, 71292, Note_off_c, 9, 36, 0
1, 71292, Note_off_c, 9, 81, 0
1, 71364, Note_off_c, 2, 53, 0
1, 71408, Note_off_c, 1, 29, 0
1, 71412, Note_off_c, 2, 60, 0
1, 71420, Note_off_c, 2, 41, 0
1, 71420, Note_off_c, 2, 57, 0
1, 71424, Note_on_c, 2, 43, 112
1, 71424, Note_on_c, 2, 53, 103
1, 71424, Note_on_c, 2, 58, 95
1, 71424, Note_on_c, 2, 62, 105
1, 71424, Note_on_c, 9, 36, 121
1, 71424, Note_on_c, 9, 70, 100
1, 71424, Note_on_c, 1, 31, 121
1, 71468, Note_off_c, 9, 70, 0
1, 71484, Note_off_c, 9, 36, 0
1, 71520, Note_on_c, 9, 70, 89
1, 71560, Note_off_c, 9, 70, 0
1, 71580, Note_off_c, 2, 53, 0
1, 71580, Note_off_c, 2, 62, 0
1, 71588, Note_off_c, 2, 58, 0
1, 71608, Note_off_c, 2, 43, 0
1, 71616, Note_on_c, 9, 69, 116
1, 71616, Note_on_c, 9, 70, 72
1, 71632, Note_off_c, 1, 31, 0
1, 71656, Note_off_c, 9, 70, 0
1, 71664, Note_off_c, 9, 69, 0
1, 71712, Note_on_c, 9, 36, 116
1, 71712, Note_on_c, 9, 69, 79
1, 71744, Note_off_c, 9, 36, 0
1, 71752, Note_off_c, 9, 69, 0
1, 71808, Note_on_c, 9, 38, 121
1, 71808, Note_on_c, 9, 70, 94
1, 71852, Note_off_c, 9, 70, 0
1, 71928, Note_off_c, 9, 38, 0
1, 72000, Note_on_c, 9, 36, 111
1, 72000, Note_on_c, 9, 70, 94
1, 72000, Note_on_c, 9, 81, 107
1, 72052, Note_off_c, 9, 70, 0
1, 72060, Note_off_c, 9, 36, 0
1, 72064, Note_off_c, 9, 81, 0
1, 72188, Tempo, 674157
1, 72188, Note_off_c, 6, 60, 0
1, 72188, Tempo, 674157
1, 72188, Note_on_c, 2, 50, 107
1, 72188, Note_on_c, 2, 57, 107
1, 72188, Note_on_c, 2, 62, 107
1, 72188, Note_on_c, 2, 66, 100
1, 72188, Note_on_c, 6, 62, 82
1, 72188, Note_on_c, 6, 66, 69
1, 72188, Note_on_c, 9, 36, 121
1, 72188, Note_on_c, 9, 70, 104
1, 72188, Note_on_c, 1, 38, 123
1, 72236, Note_off_c, 9, 70, 0
1, 72284, Note_on_c, 9, 70, 94
1, 72308, Note_off_c, 9, 36, 0
1, 72336, Note_off_c, 9, 70, 0
1, 72380, Note_on_c, 9, 69, 111
1, 72380, Note_on_c, 9, 70, 81
1, 72424, Note_off_c, 9, 69, 0
1, 72440, Note_off_c, 9, 70, 0
1, 72476, Note_on_c, 9, 69, 70
1, 72532, Note_off_c, 9, 69, 0
1, 72572, Note_on_c, 9, 38, 121
1, 72572, Note_on_c, 9, 70, 85
1, 72628, Note_off_c, 9, 70, 0
1, 72656, Note_off_c, 9, 38, 0
1, 72764, Note_on_c, 9, 36, 121
1, 72764, Note_on_c, 9, 70, 71
1, 72764, Note_on_c, 9, 81, 116
1, 72820, Note_off_c, 9, 70, 0
1, 72824, Note_off_c, 9, 36, 0
1, 72824, Note_off_c, 9, 81, 0
1, 72956, Note_on_c, 9, 36, 121
1, 72956, Note_on_c, 9, 42, 97
1, 72956, Note_on_c, 9, 70, 104
1, 72988, Note_off_c, 9, 42, 0
1, 73004, Note_off_c, 9, 70, 0
1, 73016, Note_off_c, 9, 36, 0
1, 73052, Note_on_c, 9, 70, 92
1, 73096, Note_off_c, 9, 70, 0
1, 73148, Note_on_c, 9, 36, 116
1, 73148, Note_on_c, 9, 46, 107
1, 73148, Note_on_c, 9, 69, 111
1, 73148, Note_on_c, 9, 70, 104
1, 73180, Note_off_c, 9, 36, 0
1, 73196, Note_off_c, 9, 46, 0
1, 73196, Note_off_c, 9, 69, 0
1, 73196, Note_off_c, 9, 70, 0
1, 73244, Note_on_c, 9, 69, 74
1, 73244, Note_on_c, 9, 70, 92
1, 73280, Note_off_c, 9, 69, 0
1, 73288, Note_off_c, 9, 70, 0
1, 73340, Note_on_c, 2, 57, 113
1, 73340, Note_on_c, 9, 38, 121
1, 73340, Note_on_c, 9, 42, 89
1, 73340, Note_on_c, 9, 70, 104
1, 73376, Note_off_c, 9, 42, 0
1, 73388, Note_off_c, 9, 70, 0
1, 73432, Note_off_c, 2, 57, 0
1, 73436, Note_on_c, 2, 58, 103
1, 73436, Note_on_c, 9, 70, 104
1, 73460, Note_off_c, 9, 38, 0
1, 73484, Note_off_c, 9, 70, 0
1, 73524, Note_off_c, 2, 58, 0
1, 73532, Note_on_c, 2, 55, 107
1, 73532, Note_on_c, 9, 36, 111
1, 73532, Note_on_c, 9, 46, 104
1, 73532, Note_on_c, 9, 70, 100
1, 73532, Note_on_c, 9, 81, 111
1, 73576, Note_off_c, 9, 46, 0
1, 73584, Note_off_c, 9, 70, 0
1, 73592, Note_off_c, 9, 36, 0
1, 73592, Note_off_c, 9, 81, 0
1, 73624, Note_off_c, 2, 55, 0
1, 73628, Note_on_c, 2, 53, 105
1, 73628, Note_on_c, 9, 70, 94
1, 73648, Note_off_c, 2, 66, 0
1, 73656, Note_off_c, 6, 66, 0
1, 73660, Note_off_c, 2, 62, 0
1, 73668, Note_off_c, 2, 57, 0
1, 73676, Note_off_c, 9, 70, 0
1, 73692, Note_off_c, 2, 50, 0
1, 73692, Note_off_c, 1, 38, 0
1, 73708, Note_off_c, 2, 53, 0
1, 73720, Note_off_c, 6, 62, 0
1, 73724, Note_on_c, 2, 43, 109
1, 73724, Note_on_c, 2, 53, 102
1, 73724, Note_on_c, 2, 58, 105
1, 73724, Note_on_c, 2, 62, 105
1, 73724, Note_on_c, 6, 60, 82
1, 73724, Note_on_c, 9, 36, 121
1, 73724, Note_on_c, 9, 49, 97
1, 73724, Note_on_c, 9, 70, 97
1, 73724, Note_on_c, 1, 31, 125
1, 73780, Note_off_c, 9, 70, 0
1, 73836, Note_off_c, 9, 49, 0
1, 73844, Note_off_c, 9, 36, 0
1, 73884, Note_off_c, 2, 62, 0
1, 73888, Note_off_c, 2, 53, 0
1, 73892, Note_off_c, 2, 58, 0
1, 73912, Note_off_c, 2, 43, 0
1, 73916, Note_on_c, 9, 69, 121
1, 73916, Note_on_c, 9, 70, 83
1, 73924, Note_off_c, 1, 31, 0
1, 73952, Note_off_c, 9, 69, 0
1, 73964, Note_off_c, 9, 70, 0
1, 74012, Note_on_c, 9, 69, 70
1, 74044, Note_off_c, 9, 69, 0
1, 74108, Note_on_c, 9, 38, 121
1, 74108, Note_on_c, 9, 70, 75
1, 74152, Note_off_c, 9, 70, 0
1, 74192, Note_off_c, 9, 38, 0
1, 74300, Note_on_c, 2, 41, 107
1, 74300, Note_on_c, 2, 53, 105
1, 74300, Note_on_c, 2, 57, 109
1, 74300, Note_on_c, 2, 60, 107
1, 74300, Note_on_c, 9, 36, 121
1, 74300, Note_on_c, 9, 70, 85
1, 74300, Note_on_c, 9, 81, 111
1, 74300, Note_on_c, 1, 29, 121
1, 74344, Note_off_c, 9, 70, 0
1, 74360, Note_off_c, 9, 36, 0
1, 74360, Note_off_c, 9, 81, 0
1, 74432, Note_off_c, 2, 53, 0
1, 74464, Note_off_c, 2, 41, 0
1, 74468, Note_off_c, 2, 60, 0
1, 74476, Note_off_c, 2, 57, 0
1, 74476, Note_off_c, 1, 29, 0
1, 74492, Note_on_c, 2, 43, 105
1, 74492, Note_on_c, 2, 53, 103
1, 74492, Note_on_c, 2, 58, 95
1, 74492, Note_on_c, 2, 62, 107
1, 74492, Note_on_c, 9, 36, 121
1, 74492, Note_on_c, 9, 70, 100
1, 74492, Note_on_c, 1, 31, 121
1, 74536, Note_off_c, 9, 70, 0
1, 74552, Note_off_c, 9, 36, 0
1, 74588, Note_on_c, 9, 70, 89
1, 74628, Note_off_c, 9, 70, 0
1, 74640, Note_off_c, 2, 58, 0
1, 74644, Note_off_c, 2, 62, 0
1, 74648, Note_off_c, 2, 53, 0
1, 74664, Note_off_c, 2, 43, 0
1, 74684, Note_on_c, 9, 69, 116
1, 74684, Note_on_c, 9, 70, 72
1, 74700, Note_off_c, 1, 31, 0
1, 74724, Note_off_c, 9, 70, 0
1, 74732, Note_off_c, 9, 69, 0
1, 74780, Note_on_c, 9, 36, 116
1, 74780, Note_on_c, 9, 69, 79
1, 74812, Note_off_c, 9, 36, 0
1, 74820, Note_off_c, 9, 69, 0
1, 74876, Note_on_c, 9, 38, 121
1, 74876, Note_on_c, 9, 70, 94
1, 74920, Note_off_c, 9, 70, 0
1, 74996, Note_off_c, 9, 38, 0
1, 75068, Note_on_c, 9, 36, 111
1, 75068, Note_on_c, 9, 70, 94
1, 75068, Note_on_c, 9, 81, 107
1, 75120, Note_off_c, 9, 70, 0
1, 75128, Note_off_c, 9, 36, 0
1, 75132, Note_off_c, 9, 81, 0
1, 75260, Note_on_c, 2, 48, 109
1, 75260, Note_on_c, 2, 55, 105
1, 75260, Note_on_c, 2, 60, 107
1, 75260, Note_on_c, 2, 64, 103
1, 75260, Note_on_c, 9, 36, 121
1, 75260, Note_on_c, 9, 70, 104
1, 75260, Note_on_c, 1, 36, 123
1, 75308, Note_off_c, 9, 70, 0
1, 75356, Note_on_c, 9, 70, 94
1, 75380, Note_off_c, 9, 36, 0
1, 75408, Note_off_c, 9, 70, 0
1, 75452, Note_on_c, 9, 69, 111
1, 75452, Note_on_c, 9, 70, 81
1, 75496, Note_off_c, 9, 69, 0
1, 75512, Note_off_c, 9, 70, 0
1, 75548, Note_on_c, 9, 69, 70
1, 75604, Note_off_c, 9, 69, 0
1, 75644, Note_on_c, 9, 38, 121
1, 75644, Note_on_c, 9, 70, 85
1, 75700, Note_off_c, 9, 70, 0
1, 75728, Note_off_c, 9, 38, 0
1, 75836, Note_on_c, 9, 36, 121
1, 75836, Note_on_c, 9, 70, 71
1, 75836, Note_on_c, 9, 81, 116
1, 75892, Note_off_c, 9, 70, 0
1, 75896, Note_off_c, 9, 36, 0
1, 75896, Note_off_c, 9, 81, 0
1, 76028, Note_on_c, 9, 36, 121
1, 76028, Note_on_c, 9, 42, 97
1, 76028, Note_on_c, 9, 70, 104
1, 76060, Note_off_c, 9, 42, 0
1, 76076, Note_off_c, 9, 70, 0
1, 76088, Note_off_c, 9, 36, 0
1, 76124, Note_on_c, 9, 70, 92
1, 76168, Note_off_c, 9, 70, 0
1, 76220, Note_on_c, 9, 36, 116
1, 76220, Note_on_c, 9, 46, 107
1, 76220, Note_on_c, 9, 69, 111
1, 76220, Note_on_c, 9, 70, 104
1, 76252, Note_off_c, 9, 36, 0
1, 76268, Note_off_c, 9, 46, 0
1, 76268, Note_off_c, 9, 69, 0
1, 76268, Note_off_c, 9, 70, 0
1, 76316, Note_on_c, 9, 69, 74
1, 76316, Note_on_c, 9, 70, 92
1, 76352, Note_off_c, 9, 69, 0
1, 76360, Note_off_c, 9, 70, 0
1, 76408, Note_off_c, 6, 60, 64
1, 76412, Note_on_c, 6, 62, 82
1, 76412, Note_on_c, 9, 38, 121
1, 76412, Note_on_c, 9, 42, 89
1, 76412, Note_on_c, 9, 70, 104
1, 76448, Note_off_c, 9, 42, 0
1, 76460, Note_off_c, 9, 70, 0
1, 76508, Note_on_c, 9, 70, 104
1, 76532, Note_off_c, 9, 38, 0
1, 76556, Note_off_c, 9, 70, 0
1, 76604, Note_on_c, 9, 36, 111
1, 76604, Note_on_c, 9, 46, 104
1, 76604, Note_on_c, 9, 70, 100
1, 76604, Note_on_c, 9, 81, 111
1, 76636, Note_off_c, 2, 64, 0
1, 76648, Note_off_c, 9, 46, 0
1, 76656, Note_off_c, 9, 70, 0
1, 76664, Note_off_c, 9, 36, 0
1, 76664, Note_off_c, 9, 81, 0
1, 76700, Note_on_c, 9, 70, 94
1, 76704, Note_off_c, 2, 60, 0
1, 76716, Note_off_c, 2, 55, 0
1, 76748, Note_off_c, 2, 48, 0
1, 76748, Note_off_c, 9, 70, 0
1, 76764, Note_off_c, 1, 36, 0
1, 76792, Note_off_c, 6, 62, 0
1, 76796, Note_on_c, 2, 43, 112
1, 76796, Note_on_c, 2, 53, 103
1, 76796, Note_on_c, 2, 58, 103
1, 76796, Note_on_c, 2, 62, 107
1, 76796, Note_on_c, 6, 60, 83
1, 76796, Note_on_c, 9, 36, 121
1, 76796, Note_on_c, 9, 70, 97
1, 76796, Note_on_c, 1, 31, 125
1, 76852, Note_off_c, 9, 70, 0
1, 76916, Note_off_c, 9, 36, 0
1, 76980, Note_off_c, 2, 53, 0
1, 76980, Note_off_c, 2, 62, 0
1, 76988, Note_on_c, 9, 69, 121
1, 76988, Note_on_c, 9, 70, 83
1, 76992, Note_off_c, 2, 58, 0
1, 76996, Note_off_c, 1, 31, 0
1, 77000, Note_off_c, 2, 43, 0
1, 77024, Note_off_c, 9, 69, 0
1, 77036, Note_off_c, 9, 70, 0
1, 77084, Note_on_c, 9, 69, 70
1, 77116, Note_off_c, 9, 69, 0
1, 77180, Note_on_c, 9, 38, 121
1, 77180, Note_on_c, 9, 70, 75
1, 77224, Note_off_c, 9, 70, 0
1, 77264, Note_off_c, 9, 38, 0
1, 77372, Note_on_c, 2, 41, 103
1, 77372, Note_on_c, 2, 53, 105
1, 77372, Note_on_c, 2, 57, 107
1, 77372, Note_on_c, 2, 60, 105
1, 77372, Note_on_c, 9, 36, 121
1, 77372, Note_on_c, 9, 70, 85
1, 77372, Note_on_c, 9, 81, 111
1, 77372, Note_on_c, 1, 29, 121
1, 77416, Note_off_c, 9, 70, 0
1, 77432, Note_off_c, 9, 36, 0
1, 77432, Note_off_c, 9, 81, 0
1, 77504, Note_off_c, 2, 53, 0
1, 77548, Note_off_c, 1, 29, 0
1, 77552, Note_off_c, 2, 60, 0
1, 77560, Note_off_c, 2, 41, 0
1, 77560, Note_off_c, 2, 57, 0
1, 77564, Note_on_c, 2, 43, 112
1, 77564, Note_on_c, 2, 53, 103
1, 77564, Note_on_c, 2, 58, 95
1, 77564, Note_on_c, 2, 62, 105
1, 77564, Note_on_c, 9, 36, 121
1, 77564, Note_on_c, 9, 70, 100
1, 77564, Note_on_c, 1, 31, 121
1, 77608, Note_off_c, 9, 70, 0
1, 77624, Note_off_c, 9, 36, 0
1, 77660, Note_on_c, 9, 70, 89
1, 77700, Note_off_c, 9, 70, 0
1, 77720, Note_off_c, 2, 53, 0
1, 77720, Note_off_c, 2, 62, 0
1, 77728, Note_off_c, 2, 58, 0
1, 77748, Note_off_c, 2, 43, 0
1, 77756, Note_on_c, 9, 69, 116
1, 77756, Note_on_c, 9, 70, 72
1, 77772, Note_off_c, 1, 31, 0
1, 77796, Note_off_c, 9, 70, 0
1, 77804, Note_off_c, 9, 69, 0
1, 77852, Note_on_c, 9, 36, 116
1, 77852, Note_on_c, 9, 69, 79
1, 77884, Note_off_c, 9, 36, 0
1, 77892, Note_off_c, 9, 69, 0
1, 77948, Note_on_c, 9, 38, 121
1, 77948, Note_on_c, 9, 70, 94
1, 77992, Note_off_c, 9, 70, 0
1, 78068, Note_off_c, 9, 38, 0
1, 78140, Note_on_c, 9, 36, 111
1, 78140, Note_on_c, 9, 70, 94
1, 78140, Note_on_c, 9, 81, 107
1, 78192, Note_off_c, 9, 70, 0
1, 78200, Note_off_c, 9, 36, 0
1, 78204, Note_off_c, 9, 81, 0
1, 78288, Pitch_bend_c, 7, 11776
1, 78300, Pitch_bend_c, 7, 9344
1, 78308, Pitch_bend_c, 7, 8192
1, 78328, Note_off_c, 6, 60, 0
1, 78332, Note_on_c, 2, 50, 107
1, 78332, Note_on_c, 2, 57, 107
1, 78332, Note_on_c, 2, 62, 107
1, 78332, Note_on_c, 2, 66, 100
1, 78332, Note_on_c, 6, 62, 82
1, 78332, Note_on_c, 6, 66, 69
1, 78332, Note_on_c, 9, 36, 121
1, 78332, Note_on_c, 9, 70, 104
1, 78332, Note_on_c, 1, 38, 123
1, 78380, Note_off_c, 9, 70, 0
1, 78428, Note_on_c, 9, 70, 94
1, 78452, Note_off_c, 9, 36, 0
1, 78480, Note_off_c, 9, 70, 0
1, 78524, Note_on_c, 9, 69, 111
1, 78524, Note_on_c, 9, 70, 81
1, 78568, Note_off_c, 9, 69, 0
1, 78584, Note_off_c, 9, 70, 0
1, 78620, Note_on_c, 9, 69, 70
1, 78676, Note_off_c, 9, 69, 0
1, 78716, Note_on_c, 9, 38, 121
1, 78716, Note_on_c, 9, 70, 85
1, 78772, Note_off_c, 9, 70, 0
1, 78800, Note_off_c, 9, 38, 0
1, 78908, Note_on_c, 9, 36, 121
1, 78908, Note_on_c, 9, 70, 71
1, 78908, Note_on_c, 9, 81, 116
1, 78964, Note_off_c, 9, 70, 0
1, 78968, Note_off_c, 9, 36, 0
1, 78968, Note_off_c, 9, 81, 0
1, 79100, Note_on_c, 9, 36, 121
1, 79100, Note_on_c, 9, 42, 97
1, 79100, Note_on_c, 9, 70, 104
1, 79132, Note_off_c, 9, 42, 0
1, 79148, Note_off_c, 9, 70, 0
1, 79160, Note_off_c, 9, 36, 0
1, 79196, Note_on_c, 9, 70, 92
1, 79240, Note_off_c, 9, 70, 0
1, 79292, Note_on_c, 9, 36, 116
1, 79292, Note_on_c, 9, 46, 107
1, 79292, Note_on_c, 9, 69, 111
1, 79292, Note_on_c, 9, 70, 104
1, 79324, Note_off_c, 9, 36, 0
1, 79340, Note_off_c, 9, 46, 0
1, 79340, Note_off_c, 9, 69, 0
1, 79340, Note_off_c, 9, 70, 0
1, 79388, Note_on_c, 9, 69, 74
1, 79388, Note_on_c, 9, 70, 92
1, 79424, Note_off_c, 9, 69, 0
1, 79432, Note_off_c, 9, 70, 0
1, 79484, Note_on_c, 2, 57, 113
1, 79484, Note_on_c, 9, 38, 121
1, 79484, Note_on_c, 9, 42, 89
1, 79484, Note_on_c, 9, 70, 104
1, 79520, Note_off_c, 9, 42, 0
1, 79532, Note_off_c, 9, 70, 0
1, 79576, Note_off_c, 2, 57, 0
1, 79580, Note_on_c, 2, 58, 103
1, 79580, Note_on_c, 9, 70, 104
1, 79604, Note_off_c, 9, 38, 0
1, 79628, Note_off_c, 9, 70, 0
1, 79668, Note_off_c, 2, 58, 0
1, 79676, Note_on_c, 2, 55, 107
1, 79676, Note_on_c, 9, 36, 111
1, 79676, Note_on_c, 9, 46, 104
1, 79676, Note_on_c, 9, 70, 100
1, 79676, Note_on_c, 9, 81, 111
1, 79720, Note_off_c, 9, 46, 0
1, 79728, Note_off_c, 9, 70, 0
1, 79736, Note_off_c, 9, 36, 0
1, 79736, Note_off_c, 9, 81, 0
1, 79768, Note_off_c, 2, 55, 0
1, 79772, Note_on_c, 2, 53, 105
1, 79772, Note_on_c, 9, 70, 94
1, 79792, Note_off_c, 2, 66, 0
1, 79800, Note_off_c, 6, 66, 0
1, 79804, Note_off_c, 2, 62, 0
1, 79812, Note_off_c, 2, 57, 0
1, 79820, Note_off_c, 9, 70, 0
1, 79836, Note_off_c, 2, 50, 0
1, 79836, Note_off_c, 1, 38, 0
1, 79852, Note_off_c, 2, 53, 0
1, 79864, Note_off_c, 6, 62, 0
1, 79868, Note_on_c, 2, 43, 109
1, 79868, Note_on_c, 2, 53, 102
1, 79868, Note_on_c, 2, 58, 105
1, 79868, Note_on_c, 2, 62, 105
1, 79868, Note_on_c, 6, 60, 82
1, 79868, Note_on_c, 9, 36, 121
1, 79868, Note_on_c, 9, 70, 97
1, 79868, Note_on_c, 1, 31, 125
1, 79924, Note_off_c, 9, 70, 0
1, 79988, Note_off_c, 9, 36, 0
1, 80028, Note_off_c, 2, 62, 0
1, 80032, Note_off_c, 2, 53, 0
1, 80036, Note_off_c, 2, 58, 0
1, 80056, Note_off_c, 2, 43, 0
1, 80060, Note_on_c, 9, 69, 121
1, 80060, Note_on_c, 9, 70, 83
1, 80068, Note_off_c, 1, 31, 0
1, 80096, Note_off_c, 9, 69, 0
1, 80108, Note_off_c, 9, 70, 0
1, 80156, Note_on_c, 9, 69, 70
1, 80188, Note_off_c, 9, 69, 0
1, 80252, Note_on_c, 9, 38, 121
1, 80252, Note_on_c, 9, 70, 75
1, 80296, Note_off_c, 9, 70, 0
1, 80336, Note_off_c, 9, 38, 0
1, 80444, Note_on_c, 2, 41, 107
1, 80444, Note_on_c, 2, 53, 105
1, 80444, Note_on_c, 2, 57, 109
1, 80444, Note_on_c, 2, 60, 107
1, 80444, Note_on_c, 9, 36, 121
1, 80444, Note_on_c, 9, 70, 85
1, 80444, Note_on_c, 9, 81, 111
1, 80444, Note_on_c, 1, 29, 121
1, 80488, Note_off_c, 9, 70, 0
1, 80504, Note_off_c, 9, 36, 0
1, 80504, Note_off_c, 9, 81, 0
1, 80576, Note_off_c, 2, 53, 0
1, 80608, Note_off_c, 2, 41, 0
1, 80612, Note_off_c, 2, 60, 0
1, 80620, Note_off_c, 2, 57, 0
1, 80620, Note_off_c, 1, 29, 0
1, 80636, Note_on_c, 2, 43, 105
1, 80636, Note_on_c, 2, 53, 103
1, 80636, Note_on_c, 2, 58, 95
1, 80636, Note_on_c, 2, 62, 107
1, 80636, Note_on_c, 9, 36, 121
1, 80636, Note_on_c, 9, 70, 100
1, 80636, Note_on_c, 1, 31, 121
1, 80680, Note_off_c, 9, 70, 0
1, 80696, Note_off_c, 9, 36, 0
1, 80732, Note_on_c, 9, 70, 89
1, 80772, Note_off_c, 9, 70, 0
1, 80784, Note_off_c, 2, 58, 0
1, 80788, Note_off_c, 2, 62, 0
1, 80792, Note_off_c, 2, 53, 0
1, 80808, Note_off_c, 2, 43, 0
1, 80828, Note_on_c, 9, 69, 116
1, 80828, Note_on_c, 9, 70, 72
1, 80844, Note_off_c, 1, 31, 0
1, 80868, Note_off_c, 9, 70, 0
1, 80876, Note_off_c, 9, 69, 0
1, 80924, Note_on_c, 9, 36, 116
1, 80924, Note_on_c, 9, 69, 79
1, 80956, Note_off_c, 9, 36, 0
1, 80964, Note_off_c, 9, 69, 0
1, 81020, Note_on_c, 9, 38, 121
1, 81020, Note_on_c, 9, 70, 94
1, 81064, Note_off_c, 9, 70, 0
1, 81140, Note_off_c, 9, 38, 0
1, 81212, Note_on_c, 9, 36, 111
1, 81212, Note_on_c, 9, 70, 94
1, 81212, Note_on_c, 9, 81, 107
1, 81264, Note_off_c, 9, 70, 0
1, 81272, Note_off_c, 9, 36, 0
1, 81276, Note_off_c, 9, 81, 0
1, 81404, Note_on_c, 2, 48, 109
1, 81404, Note_on_c, 2, 55, 105
1, 81404, Note_on_c, 2, 60, 107
1, 81404, Note_on_c, 2, 64, 103
1, 81404, Note_on_c, 9, 36, 121
1, 81404, Note_on_c, 9, 70, 104
1, 81404, Note_on_c, 1, 36, 123
1, 81452, Note_off_c, 9, 70, 0
1, 81500, Note_on_c, 9, 70, 94
1, 81524, Note_off_c, 9, 36, 0
1, 81552, Note_off_c, 9, 70, 0
1, 81596, Note_on_c, 9, 69, 111
1, 81596, Note_on_c, 9, 70, 81
1, 81640, Note_off_c, 9, 69, 0
1, 81656, Note_off_c, 9, 70, 0
1, 81692, Note_on_c, 9, 69, 70
1, 81748, Note_off_c, 9, 69, 0
1, 81788, Note_on_c, 9, 38, 121
1, 81788, Note_on_c, 9, 70, 85
1, 81844, Note_off_c, 9, 70, 0
1, 81872, Note_off_c, 9, 38, 0
1, 81980, Note_on_c, 9, 36, 121
1, 81980, Note_on_c, 9, 70, 71
1, 81980, Note_on_c, 9, 81, 116
1, 82036, Note_off_c, 9, 70, 0
1, 82040, Note_off_c, 9, 36, 0
1, 82040, Note_off_c, 9, 81, 0
1, 82172, Note_on_c, 9, 36, 121
1, 82172, Note_on_c, 9, 42, 97
1, 82172, Note_on_c, 9, 70, 104
1, 82204, Note_off_c, 9, 42, 0
1, 82220, Note_off_c, 9, 70, 0
1, 82232, Note_off_c, 9, 36, 0
1, 82268, Note_on_c, 9, 70, 92
1, 82312, Note_off_c, 9, 70, 0
1, 82364, Note_on_c, 9, 36, 116
1, 82364, Note_on_c, 9, 46, 107
1, 82364, Note_on_c, 9, 69, 111
1, 82364, Note_on_c, 9, 70, 104
1, 82396, Note_off_c, 9, 36, 0
1, 82412, Note_off_c, 9, 46, 0
1, 82412, Note_off_c, 9, 69, 0
1, 82412, Note_off_c, 9, 70, 0
1, 82460, Note_on_c, 9, 69, 74
1, 82460, Note_on_c, 9, 70, 92
1, 82496, Note_off_c, 9, 69, 0
1, 82504, Note_off_c, 9, 70, 0
1, 82552, Note_off_c, 6, 60, 64
1, 82556, Note_on_c, 6, 62, 82
1, 82556, Note_on_c, 9, 38, 121
1, 82556, Note_on_c, 9, 42, 89
1, 82556, Note_on_c, 9, 70, 104
1, 82592, Note_off_c, 9, 42, 0
1, 82604, Note_off_c, 9, 70, 0
1, 82652, Note_on_c, 9, 70, 104
1, 82676, Note_off_c, 9, 38, 0
1, 82700, Note_off_c, 9, 70, 0
1, 82748, Note_on_c, 9, 36, 111
1, 82748, Note_on_c, 9, 46, 104
1, 82748, Note_on_c, 9, 70, 100
1, 82748, Note_on_c, 9, 81, 111
1, 82780, Note_off_c, 2, 64, 0
1, 82792, Note_off_c, 9, 46, 0
1, 82800, Note_off_c, 9, 70, 0
1, 82808, Note_off_c, 9, 36, 0
1, 82808, Note_off_c, 9, 81, 0
1, 82844, Note_on_c, 9, 70, 94
1, 82848, Note_off_c, 2, 60, 0
1, 82860, Note_off_c, 2, 55, 0
1, 82892, Note_off_c, 2, 48, 0
1, 82892, Note_off_c, 9, 70, 0
1, 82908, Note_off_c, 1, 36, 0
1, 82936, Note_off_c, 6, 62, 0
1, 82940, Note_on_c, 2, 43, 112
1, 82940, Note_on_c, 2, 53, 103
1, 82940, Note_on_c, 2, 58, 103
1, 82940, Note_on_c, 2, 62, 107
1, 82940, Note_on_c, 6, 60, 83
1, 82940, Note_on_c, 9, 36, 121
1, 82940, Note_on_c, 9, 70, 97
1, 82940, Note_on_c, 1, 31, 125
1, 82996, Note_off_c, 9, 70, 0
1, 83060, Note_off_c, 9, 36, 0
1, 83124, Note_off_c, 2, 53, 0
1, 83124, Note_off_c, 2, 62, 0
1, 83132, Note_on_c, 9, 69, 121
1, 83132, Note_on_c, 9, 70, 83
1, 83136, Note_off_c, 2, 58, 0
1, 83140, Note_off_c, 1, 31, 0
1, 83144, Note_off_c, 2, 43, 0
1, 83168, Note_off_c, 9, 69, 0
1, 83180, Note_off_c, 9, 70, 0
1, 83228, Note_on_c, 9, 69, 70
1, 83260, Note_off_c, 9, 69, 0
1, 83324, Note_on_c, 9, 38, 121
1, 83324, Note_on_c, 9, 70, 75
1, 83368, Note_off_c, 9, 70, 0
1, 83408, Note_off_c, 9, 38, 0
1, 83516, Note_on_c, 2, 41, 103
1, 83516, Note_on_c, 2, 53, 105
1, 83516, Note_on_c, 2, 57, 107
1, 83516, Note_on_c, 2, 60, 105
1, 83516, Note_on_c, 9, 36, 121
1, 83516, Note_on_c, 9, 70, 85
1, 83516, Note_on_c, 9, 81, 111
1, 83516, Note_on_c, 1, 29, 121
1, 83560, Note_off_c, 9, 70, 0
1, 83576, Note_off_c, 9, 36, 0
1, 83576, Note_off_c, 9, 81, 0
1, 83648, Note_off_c, 2, 53, 0
1, 83692, Note_off_c, 1, 29, 0
1, 83696, Note_off_c, 2, 60, 0
1, 83704, Note_off_c, 2, 41, 0
1, 83704, Note_off_c, 2, 57, 0
1, 83708, Note_on_c, 2, 43, 112
1, 83708, Note_on_c, 2, 53, 103
1, 83708, Note_on_c, 2, 58, 95
1, 83708, Note_on_c, 2, 62, 105
1, 83708, Note_on_c, 9, 36, 121
1, 83708, Note_on_c, 9, 70, 100
1, 83708, Note_on_c, 1, 31, 121
1, 83752, Note_off_c, 9, 70, 0
1, 83768, Note_off_c, 9, 36, 0
1, 83804, Note_on_c, 9, 70, 89
1, 83844, Note_off_c, 9, 70, 0
1, 83864, Note_off_c, 2, 53, 0
1, 83864, Note_off_c, 2, 62, 0
1, 83872, Note_off_c, 2, 58, 0
1, 83892, Note_off_c, 2, 43, 0
1, 83900, Note_on_c, 9, 69, 116
1, 83900, Note_on_c, 9, 70, 72
1, 83916, Note_off_c, 1, 31, 0
1, 83940, Note_off_c, 9, 70, 0
1, 83948, Note_off_c, 9, 69, 0
1, 83996, Note_on_c, 9, 36, 116
1, 83996, Note_on_c, 9, 69, 79
1, 84028, Note_off_c, 9, 36, 0
1, 84036, Note_off_c, 9, 69, 0
1, 84092, Note_on_c, 9, 38, 121
1, 84092, Note_on_c, 9, 70, 94
1, 84136, Note_off_c, 9, 70, 0
1, 84212, Note_off_c, 9, 38, 0
1, 84284, Note_on_c, 9, 36, 111
1, 84284, Note_on_c, 9, 70, 94
1, 84284, Note_on_c, 9, 81, 107
1, 84336, Note_off_c, 9, 70, 0
1, 84344, Note_off_c, 9, 36, 0
1, 84348, Note_off_c, 9, 81, 0
1, 84472, Note_off_c, 6, 60, 0
1, 84476, Note_on_c, 2, 50, 107
1, 84476, Note_on_c, 2, 57, 107
1, 84476, Note_on_c, 2, 62, 107
1, 84476, Note_on_c, 2, 66, 100
1, 84476, Note_on_c, 6, 62, 82
1, 84476, Note_on_c, 6, 66, 69
1, 84476, Note_on_c, 9, 36, 121
1, 84476, Note_on_c, 9, 70, 104
1, 84476, Note_on_c, 1, 38, 123
1, 84524, Note_off_c, 9, 70, 0
1, 84572, Note_on_c, 9, 70, 94
1, 84596, Note_off_c, 9, 36, 0
1, 84624, Note_off_c, 9, 70, 0
1, 84668, Note_on_c, 9, 69, 111
1, 84668, Note_on_c, 9, 70, 81
1, 84712, Note_off_c, 9, 69, 0
1, 84728, Note_off_c, 9, 70, 0
1, 84764, Note_on_c, 9, 69, 70
1, 84820, Note_off_c, 9, 69, 0
1, 84860, Note_on_c, 9, 38, 121
1, 84860, Note_on_c, 9, 70, 85
1, 84916, Note_off_c, 9, 70, 0
1, 84944, Note_off_c, 9, 38, 0
1, 85052, Note_on_c, 9, 36, 121
1, 85052, Note_on_c, 9, 70, 71
1, 85052, Note_on_c, 9, 81, 116
1, 85108, Note_off_c, 9, 70, 0
1, 85112, Note_off_c, 9, 36, 0
1, 85112, Note_off_c, 9, 81, 0
1, 85244, Note_on_c, 9, 36, 121
1, 85244, Note_on_c, 9, 42, 97
1, 85244, Note_on_c, 9, 70, 104
1, 85276, Note_off_c, 9, 42, 0
1, 85292, Note_off_c, 9, 70, 0
1, 85304, Note_off_c, 9, 36, 0
1, 85340, Note_on_c, 9, 70, 92
1, 85384, Note_off_c, 9, 70, 0
1, 85436, Note_on_c, 9, 36, 116
1, 85436, Note_on_c, 9, 46, 107
1, 85436, Note_on_c, 9, 69, 111
1, 85436, Note_on_c, 9, 70, 104
1, 85468, Note_off_c, 9, 36, 0
1, 85484, Note_off_c, 9, 46, 0
1, 85484, Note_off_c, 9, 69, 0
1, 85484, Note_off_c, 9, 70, 0
1, 85532, Note_on_c, 9, 69, 74
1, 85532, Note_on_c, 9, 70, 92
1, 85568, Note_off_c, 9, 69, 0
1, 85576, Note_off_c, 9, 70, 0
1, 85628, Note_on_c, 2, 57, 113
1, 85628, Note_on_c, 9, 38, 121
1, 85628, Note_on_c, 9, 42, 89
1, 85628, Note_on_c, 9, 70, 104
1, 85664, Note_off_c, 9, 42, 0
1, 85676, Note_off_c, 9, 70, 0
1, 85720, Note_off_c, 2, 57, 0
1, 85724, Note_on_c, 2, 58, 103
1, 85724, Note_on_c, 9, 70, 104
1, 85748, Note_off_c, 9, 38, 0
1, 85772, Note_off_c, 9, 70, 0
1, 85812, Note_off_c, 2, 58, 0
1, 85820, Note_on_c, 2, 55, 107
1, 85820, Note_on_c, 9, 36, 111
1, 85820, Note_on_c, 9, 46, 104
1, 85820, Note_on_c, 9, 70, 100
1, 85820, Note_on_c, 9, 81, 111
1, 85864, Note_off_c, 9, 46, 0
1, 85872, Note_off_c, 9, 70, 0
1, 85880, Note_off_c, 9, 36, 0
1, 85880, Note_off_c, 9, 81, 0
1, 85912, Note_off_c, 2, 55, 0
1, 85916, Note_on_c, 2, 53, 105
1, 85916, Note_on_c, 9, 70, 94
1, 85936, Note_off_c, 2, 66, 0
1, 85944, Note_off_c, 6, 66, 0
1, 85948, Note_off_c, 2, 62, 0
1, 85956, Note_off_c, 2, 57, 0
1, 85964, Note_off_c, 9, 70, 0
1, 85980, Note_off_c, 2, 50, 0
1, 85980, Note_off_c, 1, 38, 0
1, 85996, Note_off_c, 2, 53, 0
1, 86008, Note_off_c, 6, 62, 0
1, 86012, Note_on_c, 2, 43, 109
1, 86012, Note_on_c, 2, 53, 102
1, 86012, Note_on_c, 2, 58, 105
1, 86012, Note_on_c, 2, 62, 105
1, 86012, Note_on_c, 6, 60, 82
1, 86012, Note_on_c, 9, 36, 121
1, 86012, Note_on_c, 9, 49, 97
1, 86012, Note_on_c, 9, 70, 97
1, 86012, Note_on_c, 1, 31, 125
1, 86068, Note_off_c, 9, 70, 0
1, 86124, Note_off_c, 9, 49, 0
1, 86132, Note_off_c, 9, 36, 0
1, 86172, Note_off_c, 2, 62, 0
1, 86176, Note_off_c, 2, 53, 0
1, 86180, Note_off_c, 2, 58, 0
1, 86200, Note_off_c, 2, 43, 0
1, 86204, Note_on_c, 9, 69, 121
1, 86204, Note_on_c, 9, 70, 83
1, 86212, Note_off_c, 1, 31, 0
1, 86240, Note_off_c, 9, 69, 0
1, 86252, Note_off_c, 9, 70, 0
1, 86300, Note_on_c, 9, 69, 70
1, 86332, Note_off_c, 9, 69, 0
1, 86396, Note_on_c, 9, 38, 121
1, 86396, Note_on_c, 9, 70, 75
1, 86440, Note_off_c, 9, 70, 0
1, 86480, Note_off_c, 9, 38, 0
1, 86588, Note_on_c, 2, 41, 107
1, 86588, Note_on_c, 2, 53, 105
1, 86588, Note_on_c, 2, 57, 109
1, 86588, Note_on_c, 2, 60, 107
1, 86588, Note_on_c, 9, 36, 121
1, 86588, Note_on_c, 9, 70, 85
1, 86588, Note_on_c, 9, 81, 111
1, 86588, Note_on_c, 1, 29, 121
1, 86632, Note_off_c, 9, 70, 0
1, 86648, Note_off_c, 9, 36, 0
1, 86648, Note_off_c, 9, 81, 0
1, 86720, Note_off_c, 2, 53, 0
1, 86752, Note_off_c, 2, 41, 0
1, 86756, Note_off_c, 2, 60, 0
1, 86764, Note_off_c, 2, 57, 0
1, 86764, Note_off_c, 1, 29, 0
1, 86780, Note_on_c, 2, 43, 105
1, 86780, Note_on_c, 2, 53, 103
1, 86780, Note_on_c, 2, 58, 95
1, 86780, Note_on_c, 2, 62, 107
1, 86780, Note_on_c, 9, 36, 121
1, 86780, Note_on_c, 9, 70, 100
1, 86780, Note_on_c, 1, 31, 121
1, 86824, Note_off_c, 9, 70, 0
1, 86840, Note_off_c, 9, 36, 0
1, 86876, Note_on_c, 9, 70, 89
1, 86916, Note_off_c, 9, 70, 0
1, 86928, Note_off_c, 2, 58, 0
1, 86932, Note_off_c, 2, 62, 0
1, 86936, Note_off_c, 2, 53, 0
1, 86952, Note_off_c, 2, 43, 0
1, 86972, Note_on_c, 9, 69, 116
1, 86972, Note_on_c, 9, 70, 72
1, 86988, Note_off_c, 1, 31, 0
1, 87012, Note_off_c, 9, 70, 0
1, 87020, Note_off_c, 9, 69, 0
1, 87068, Note_on_c, 9, 36, 116
1, 87068, Note_on_c, 9, 69, 79
1, 87100, Note_off_c, 9, 36, 0
1, 87108, Note_off_c, 9, 69, 0
1, 87164, Note_on_c, 9, 38, 121
1, 87164, Note_on_c, 9, 70, 94
1, 87208, Note_off_c, 9, 70, 0
1, 87284, Note_off_c, 9, 38, 0
1, 87356, Note_on_c, 9, 36, 111
1, 87356, Note_on_c, 9, 70, 94
1, 87356, Note_on_c, 9, 81, 107
1, 87408, Note_off_c, 9, 70, 0
1, 87416, Note_off_c, 9, 36, 0
1, 87420, Note_off_c, 9, 81, 0
1, 87548, Note_on_c, 2, 48, 109
1, 87548, Note_on_c, 2, 55, 105
1, 87548, Note_on_c, 2, 60, 107
1, 87548, Note_on_c, 2, 64, 103
1, 87548, Note_on_c, 9, 36, 121
1, 87548, Note_on_c, 9, 70, 104
1, 87548, Note_on_c, 1, 36, 123
1, 87596, Note_off_c, 9, 70, 0
1, 87644, Note_on_c, 9, 70, 94
1, 87668, Note_off_c, 9, 36, 0
1, 87696, Note_off_c, 9, 70, 0
1, 87740, Note_on_c, 9, 69, 111
1, 87740, Note_on_c, 9, 70, 81
1, 87784, Note_off_c, 9, 69, 0
1, 87800, Note_off_c, 9, 70, 0
1, 87836, Note_on_c, 9, 69, 70
1, 87892, Note_off_c, 9, 69, 0
1, 87932, Note_on_c, 9, 38, 121
1, 87932, Note_on_c, 9, 70, 85
1, 87988, Note_off_c, 9, 70, 0
1, 88016, Note_off_c, 9, 38, 0
1, 88124, Note_on_c, 9, 36, 121
1, 88124, Note_on_c, 9, 70, 71
1, 88124, Note_on_c, 9, 81, 116
1, 88180, Note_off_c, 9, 70, 0
1, 88184, Note_off_c, 9, 36, 0
1, 88184, Note_off_c, 9, 81, 0
1, 88316, Note_on_c, 9, 36, 121
1, 88316, Note_on_c, 9, 42, 97
1, 88316, Note_on_c, 9, 70, 104
1, 88348, Note_off_c, 9, 42, 0
1, 88364, Note_off_c, 9, 70, 0
1, 88376, Note_off_c, 9, 36, 0
1, 88412, Note_on_c, 9, 70, 92
1, 88456, Note_off_c, 9, 70, 0
1, 88508, Note_on_c, 9, 36, 116
1, 88508, Note_on_c, 9, 46, 107
1, 88508, Note_on_c, 9, 69, 111
1, 88508, Note_on_c, 9, 70, 104
1, 88540, Note_off_c, 9, 36, 0
1, 88556, Note_off_c, 9, 46, 0
1, 88556, Note_off_c, 9, 69, 0
1, 88556, Note_off_c, 9, 70, 0
1, 88604, Note_on_c, 9, 69, 74
1, 88604, Note_on_c, 9, 70, 92
1, 88640, Note_off_c, 9, 69, 0
1, 88648, Note_off_c, 9, 70, 0
1, 88696, Note_off_c, 6, 60, 64
1, 88700, Note_on_c, 6, 62, 82
1, 88700, Note_on_c, 9, 38, 121
1, 88700, Note_on_c, 9, 42, 89
1, 88700, Note_on_c, 9, 70, 104
1, 88736, Note_off_c, 9, 42, 0
1, 88748, Note_off_c, 9, 70, 0
1, 88796, Note_on_c, 9, 70, 104
1, 88820, Note_off_c, 9, 38, 0
1, 88844, Note_off_c, 9, 70, 0
1, 88892, Note_on_c, 9, 36, 111
1, 88892, Note_on_c, 9, 46, 104
1, 88892, Note_on_c, 9, 70, 100
1, 88892, Note_on_c, 9, 81, 111
1, 88924, Note_off_c, 2, 64, 0
1, 88936, Note_off_c, 9, 46, 0
1, 88944, Note_off_c, 9, 70, 0
1, 88952, Note_off_c, 9, 36, 0
1, 88952, Note_off_c, 9, 81, 0
1, 88988, Note_on_c, 9, 70, 94
1, 88992, Note_off_c, 2, 60, 0
1, 89004, Note_off_c, 2, 55, 0
1, 89036, Note_off_c, 2, 48, 0
1, 89036, Note_off_c, 9, 70, 0
1, 89052, Note_off_c, 1, 36, 0
1, 89080, Note_off_c, 6, 62, 0
1, 89084, Note_on_c, 2, 43, 112
1, 89084, Note_on_c, 2, 53, 103
1, 89084, Note_on_c, 2, 58, 103
1, 89084, Note_on_c, 2, 62, 107
1, 89084, Note_on_c, 6, 60, 83
1, 89084, Note_on_c, 9, 36, 121
1, 89084, Note_on_c, 9, 70, 97
1, 89084, Note_on_c, 1, 31, 125
1, 89140, Note_off_c, 9, 70, 0
1, 89204, Note_off_c, 9, 36, 0
1, 89268, Note_off_c, 2, 53, 0
1, 89268, Note_off_c, 2, 62, 0
1, 89276, Note_on_c, 9, 69, 121
1, 89276, Note_on_c, 9, 70, 83
1, 89280, Note_off_c, 2, 58, 0
1, 89284, Note_off_c, 1, 31, 0
1, 89288, Note_off_c, 2, 43, 0
1, 89312, Note_off_c, 9, 69, 0
1, 89324, Note_off_c, 9, 70, 0
1, 89372, Note_on_c, 9, 69, 70
1, 89404, Note_off_c, 9, 69, 0
1, 89468, Note_on_c, 9, 38, 121
1, 89468, Note_on_c, 9, 70, 75
1, 89512, Note_off_c, 9, 70, 0
1, 89552, Note_off_c, 9, 38, 0
1, 89660, Note_on_c, 2, 41, 103
1, 89660, Note_on_c, 2, 53, 105
1, 89660, Note_on_c, 2, 57, 107
1, 89660, Note_on_c, 2, 60, 105
1, 89660, Note_on_c, 9, 36, 121
1, 89660, Note_on_c, 9, 70, 85
1, 89660, Note_on_c, 9, 81, 111
1, 89660, Note_on_c, 1, 29, 121
1, 89704, Note_off_c, 9, 70, 0
1, 89720, Note_off_c, 9, 36, 0
1, 89720, Note_off_c, 9, 81, 0
1, 89792, Note_off_c, 2, 53, 0
1, 89836, Note_off_c, 1, 29, 0
1, 89840, Note_off_c, 2, 60, 0
1, 89848, Note_off_c, 2, 41, 0
1, 89848, Note_off_c, 2, 57, 0
1, 89852, Note_on_c, 2, 43, 112
1, 89852, Note_on_c, 2, 53, 103
1, 89852, Note_on_c, 2, 58, 95
1, 89852, Note_on_c, 2, 62, 105
1, 89852, Note_on_c, 9, 36, 121
1, 89852, Note_on_c, 9, 70, 100
1, 89852, Note_on_c, 1, 31, 121
1, 89896, Note_off_c, 9, 70, 0
1, 89912, Note_off_c, 9, 36, 0
1, 89948, Note_on_c, 9, 70, 89
1, 89988, Note_off_c, 9, 70, 0
1, 90008, Note_off_c, 2, 53, 0
1, 90008, Note_off_c, 2, 62, 0
1, 90016, Note_off_c, 2, 58, 0
1, 90036, Note_off_c, 2, 43, 0
1, 90044, Note_on_c, 9, 69, 116
1, 90044, Note_on_c, 9, 70, 72
1, 90060, Note_off_c, 1, 31, 0
1, 90084, Note_off_c, 9, 70, 0
1, 90092, Note_off_c, 9, 69, 0
1, 90140, Note_on_c, 9, 36, 116
1, 90140, Note_on_c, 9, 69, 79
1, 90172, Note_off_c, 9, 36, 0
1, 90180, Note_off_c, 9, 69, 0
1, 90236, Note_on_c, 9, 38, 121
1, 90236, Note_on_c, 9, 70, 94
1, 90280, Note_off_c, 9, 70, 0
1, 90356, Note_off_c, 9, 38, 0
1, 90428, Note_on_c, 9, 36, 111
1, 90428, Note_on_c, 9, 70, 94
1, 90428, Note_on_c, 9, 81, 107
1, 90480, Note_off_c, 9, 70, 0
1, 90488, Note_off_c, 9, 36, 0
1, 90492, Note_off_c, 9, 81, 0
1, 90576, Pitch_bend_c, 7, 11776
1, 90588, Pitch_bend_c, 7, 9344
1, 90596, Pitch_bend_c, 7, 8192
1, 90616, Note_off_c, 6, 60, 0
1, 90620, Note_on_c, 2, 50, 107
1, 90620, Note_on_c, 2, 57, 107
1, 90620, Note_on_c, 2, 62, 107
1, 90620, Note_on_c, 2, 66, 100
1, 90620, Note_on_c, 6, 62, 82
1, 90620, Note_on_c, 6, 66, 69
1, 90620, Note_on_c, 9, 36, 121
1, 90620, Note_on_c, 9, 70, 104
1, 90620, Note_on_c, 1, 38, 123
1, 90668, Note_off_c, 9, 70, 0
1, 90716, Note_on_c, 9, 70, 94
1, 90740, Note_off_c, 9, 36, 0
1, 90768, Note_off_c, 9, 70, 0
1, 90812, Note_on_c, 9, 69, 111
1, 90812, Note_on_c, 9, 70, 81
1, 90856, Note_off_c, 9, 69, 0
1, 90872, Note_off_c, 9, 70, 0
1, 90908, Note_on_c, 9, 69, 70
1, 90964, Note_off_c, 9, 69, 0
1, 91004, Note_on_c, 9, 38, 121
1, 91004, Note_on_c, 9, 70, 85
1, 91060, Note_off_c, 9, 70, 0
1, 91088, Note_off_c, 9, 38, 0
1, 91196, Note_on_c, 9, 36, 121
1, 91196, Note_on_c, 9, 70, 71
1, 91196, Note_on_c, 9, 81, 116
1, 91252, Note_off_c, 9, 70, 0
1, 91256, Note_off_c, 9, 36, 0
1, 91256, Note_off_c, 9, 81, 0
1, 91388, Note_on_c, 9, 36, 121
1, 91388, Note_on_c, 9, 42, 97
1, 91388, Note_on_c, 9, 70, 104
1, 91420, Note_off_c, 9, 42, 0
1, 91436, Note_off_c, 9, 70, 0
1, 91448, Note_off_c, 9, 36, 0
1, 91484, Note_on_c, 9, 70, 92
1, 91528, Note_off_c, 9, 70, 0
1, 91580, Note_on_c, 9, 36, 116
1, 91580, Note_on_c, 9, 46, 107
1, 91580, Note_on_c, 9, 69, 111
1, 91580, Note_on_c, 9, 70, 104
1, 91612, Note_off_c, 9, 36, 0
1, 91628, Note_off_c, 9, 46, 0
1, 91628, Note_off_c, 9, 69, 0
1, 91628, Note_off_c, 9, 70, 0
1, 91676, Note_on_c, 9, 69, 74
1, 91676, Note_on_c, 9, 70, 92
1, 91712, Note_off_c, 9, 69, 0
1, 91720, Note_off_c, 9, 70, 0
1, 91772, Note_on_c, 2, 57, 113
1, 91772, Note_on_c, 9, 38, 121
1, 91772, Note_on_c, 9, 42, 89
1, 91772, Note_on_c, 9, 70, 104
1, 91808, Note_off_c, 9, 42, 0
1, 91820, Note_off_c, 9, 70, 0
1, 91864, Note_off_c, 2, 57, 0
1, 91868, Note_on_c, 2, 58, 103
1, 91868, Note_on_c, 9, 70, 104
1, 91892, Note_off_c, 9, 38, 0
1, 91916, Note_off_c, 9, 70, 0
1, 91956, Note_off_c, 2, 58, 0
1, 91964, Note_on_c, 2, 55, 107
1, 91964, Note_on_c, 9, 36, 111
1, 91964, Note_on_c, 9, 46, 104
1, 91964, Note_on_c, 9, 70, 100
1, 91964, Note_on_c, 9, 81, 111
1, 92008, Note_off_c, 9, 46, 0
1, 92016, Note_off_c, 9, 70, 0
1, 92024, Note_off_c, 9, 36, 0
1, 92024, Note_off_c, 9, 81, 0
1, 92056, Note_off_c, 2, 55, 0
1, 92060, Note_on_c, 2, 53, 105
1, 92060, Note_on_c, 9, 70, 94
1, 92080, Note_off_c, 2, 66, 0
1, 92088, Note_off_c, 6, 66, 0
1, 92092, Note_off_c, 2, 62, 0
1, 92100, Note_off_c, 2, 57, 0
1, 92108, Note_off_c, 9, 70, 0
1, 92124, Note_off_c, 2, 50, 0
1, 92124, Note_off_c, 1, 38, 0
1, 92140, Note_off_c, 2, 53, 0
1, 92152, Note_off_c, 6, 62, 0
1, 92156, Note_on_c, 2, 43, 109
1, 92156, Note_on_c, 2, 53, 102
1, 92156, Note_on_c, 2, 58, 105
1, 92156, Note_on_c, 2, 62, 105
1, 92156, Note_on_c, 6, 60, 82
1, 92156, Note_on_c, 9, 36, 121
1, 92156, Note_on_c, 9, 70, 97
1, 92156, Note_on_c, 1, 31, 125
1, 92212, Note_off_c, 9, 70, 0
1, 92276, Note_off_c, 9, 36, 0
1, 92316, Note_off_c, 2, 62, 0
1, 92320, Note_off_c, 2, 53, 0
1, 92324, Note_off_c, 2, 58, 0
1, 92344, Note_off_c, 2, 43, 0
1, 92348, Note_on_c, 9, 69, 121
1, 92348, Note_on_c, 9, 70, 83
1, 92356, Note_off_c, 1, 31, 0
1, 92384, Note_off_c, 9, 69, 0
1, 92396, Note_off_c, 9, 70, 0
1, 92444, Note_on_c, 9, 69, 70
1, 92476, Note_off_c, 9, 69, 0
1, 92540, Note_on_c, 9, 38, 121
1, 92540, Note_on_c, 9, 70, 75
1, 92584, Note_off_c, 9, 70, 0
1, 92624, Note_off_c, 9, 38, 0
1, 92732, Note_on_c, 2, 41, 107
1, 92732, Note_on_c, 2, 53, 105
1, 92732, Note_on_c, 2, 57, 109
1, 92732, Note_on_c, 2, 60, 107
1, 92732, Note_on_c, 9, 36, 121
1, 92732, Note_on_c, 9, 70, 85
1, 92732, Note_on_c, 9, 81, 111
1, 92732, Note_on_c, 1, 29, 121
1, 92776, Note_off_c, 9, 70, 0
1, 92792, Note_off_c, 9, 36, 0
1, 92792, Note_off_c, 9, 81, 0
1, 92864, Note_off_c, 2, 53, 0
1, 92896, Note_off_c, 2, 41, 0
1, 92900, Note_off_c, 2, 60, 0
1, 92908, Note_off_c, 2, 57, 0
1, 92908, Note_off_c, 1, 29, 0
1, 92924, Note_on_c, 2, 43, 105
1, 92924, Note_on_c, 2, 53, 103
1, 92924, Note_on_c, 2, 58, 95
1, 92924, Note_on_c, 2, 62, 107
1, 92924, Note_on_c, 9, 36, 121
1, 92924, Note_on_c, 9, 70, 100
1, 92924, Note_on_c, 1, 31, 121
1, 92968, Note_off_c, 9, 70, 0
1, 92984, Note_off_c, 9, 36, 0
1, 93020, Note_on_c, 9, 70, 89
1, 93060, Note_off_c, 9, 70, 0
1, 93072, Note_off_c, 2, 58, 0
1, 93076, Note_off_c, 2, 62, 0
1, 93080, Note_off_c, 2, 53, 0
1, 93096, Note_off_c, 2, 43, 0
1, 93116, Note_on_c, 9, 69, 116
1, 93116, Note_on_c, 9, 70, 72
1, 93132, Note_off_c, 1, 31, 0
1, 93156, Note_off_c, 9, 70, 0
1, 93164, Note_off_c, 9, 69, 0
1, 93212, Note_on_c, 9, 36, 116
1, 93212, Note_on_c, 9, 69, 79
1, 93244, Note_off_c, 9, 36, 0
1, 93252, Note_off_c, 9, 69, 0
1, 93308, Note_on_c, 9, 38, 121
1, 93308, Note_on_c, 9, 70, 94
1, 93352, Note_off_c, 9, 70, 0
1, 93428, Note_off_c, 9, 38, 0
1, 93500, Note_on_c, 9, 36, 111
1, 93500, Note_on_c, 9, 70, 94
1, 93500, Note_on_c, 9, 81, 107
1, 93552, Note_off_c, 9, 70, 0
1, 93560, Note_off_c, 9, 36, 0
1, 93564, Note_off_c, 9, 81, 0
1, 93692, Note_on_c, 2, 48, 109
1, 93692, Note_on_c, 2, 55, 105
1, 93692, Note_on_c, 2, 60, 107
1, 93692, Note_on_c, 2, 64, 103
1, 93692, Note_on_c, 9, 36, 121
1, 93692, Note_on_c, 9, 70, 104
1, 93692, Note_on_c, 1, 36, 123
1, 93740, Note_off_c, 9, 70, 0
1, 93788, Note_on_c, 9, 70, 94
1, 93812, Note_off_c, 9, 36, 0
1, 93840, Note_off_c, 9, 70, 0
1, 93884, Note_on_c, 9, 69, 111
1, 93884, Note_on_c, 9, 70, 81
1, 93928, Note_off_c, 9, 69, 0
1, 93944, Note_off_c, 9, 70, 0
1, 93980, Note_on_c, 9, 69, 70
1, 94036, Note_off_c, 9, 69, 0
1, 94076, Note_on_c, 9, 38, 121
1, 94076, Note_on_c, 9, 70, 85
1, 94132, Note_off_c, 9, 70, 0
1, 94160, Note_off_c, 9, 38, 0
1, 94268, Note_on_c, 9, 36, 121
1, 94268, Note_on_c, 9, 70, 71
1, 94268, Note_on_c, 9, 81, 116
1, 94324, Note_off_c, 9, 70, 0
1, 94328, Note_off_c, 9, 36, 0
1, 94328, Note_off_c, 9, 81, 0
1, 94460, Note_on_c, 9, 36, 121
1, 94460, Note_on_c, 9, 42, 97
1, 94460, Note_on_c, 9, 70, 104
1, 94492, Note_off_c, 9, 42, 0
1, 94508, Note_off_c, 9, 70, 0
1, 94520, Note_off_c, 9, 36, 0
1, 94556, Note_on_c, 9, 70, 92
1, 94600, Note_off_c, 9, 70, 0
1, 94652, Note_on_c, 9, 36, 116
1, 94652, Note_on_c, 9, 46, 107
1, 94652, Note_on_c, 9, 69, 111
1, 94652, Note_on_c, 9, 70, 104
1, 94684, Note_off_c, 9, 36, 0
1, 94700, Note_off_c, 9, 46, 0
1, 94700, Note_off_c, 9, 69, 0
1, 94700, Note_off_c, 9, 70, 0
1, 94748, Note_on_c, 9, 69, 74
1, 94748, Note_on_c, 9, 70, 92
1, 94784, Note_off_c, 9, 69, 0
1, 94792, Note_off_c, 9, 70, 0
1, 94840, Note_off_c, 6, 60, 64
1, 94844, Note_on_c, 6, 62, 82
1, 94844, Note_on_c, 9, 38, 121
1, 94844, Note_on_c, 9, 42, 89
1, 94844, Note_on_c, 9, 70, 104
1, 94880, Note_off_c, 9, 42, 0
1, 94892, Note_off_c, 9, 70, 0
1, 94940, Note_on_c, 9, 70, 104
1, 94964, Note_off_c, 9, 38, 0
1, 94988, Note_off_c, 9, 70, 0
1, 95036, Note_on_c, 9, 36, 111
1, 95036, Note_on_c, 9, 46, 104
1, 95036, Note_on_c, 9, 70, 100
1, 95036, Note_on_c, 9, 81, 111
1, 95068, Note_off_c, 2, 64, 0
1, 95080, Note_off_c, 9, 46, 0
1, 95088, Note_off_c, 9, 70, 0
1, 95096, Note_off_c, 9, 36, 0
1, 95096, Note_off_c, 9, 81, 0
1, 95132, Note_on_c, 9, 70, 94
1, 95136, Note_off_c, 2, 60, 0
1, 95148, Note_off_c, 2, 55, 0
1, 95180, Note_off_c, 2, 48, 0
1, 95180, Note_off_c, 9, 70, 0
1, 95196, Note_off_c, 1, 36, 0
1, 95224, Note_off_c, 6, 62, 0
1, 95228, Note_on_c, 2, 43, 112
1, 95228, Note_on_c, 2, 53, 103
1, 95228, Note_on_c, 2, 58, 103
1, 95228, Note_on_c, 2, 62, 107
1, 95228, Note_on_c, 6, 60, 83
1, 95228, Note_on_c, 9, 36, 121
1, 95228, Note_on_c, 9, 70, 97
1, 95228, Note_on_c, 1, 31, 125
1, 95284, Note_off_c, 9, 70, 0
1, 95348, Note_off_c, 9, 36, 0
1, 95412, Note_off_c, 2, 53, 0
1, 95412, Note_off_c, 2, 62, 0
1, 95420, Note_on_c, 9, 69, 121
1, 95420, Note_on_c, 9, 70, 83
1, 95424, Note_off_c, 2, 58, 0
1, 95428, Note_off_c, 1, 31, 0
1, 95432, Note_off_c, 2, 43, 0
1, 95456, Note_off_c, 9, 69, 0
1, 95468, Note_off_c, 9, 70, 0
1, 95516, Note_on_c, 9, 69, 70
1, 95548, Note_off_c, 9, 69, 0
1, 95612, Note_on_c, 9, 38, 121
1, 95612, Note_on_c, 9, 70, 75
1, 95656, Note_off_c, 9, 70, 0
1, 95696, Note_off_c, 9, 38, 0
1, 95804, Note_on_c, 2, 41, 103
1, 95804, Note_on_c, 2, 53, 105
1, 95804, Note_on_c, 2, 57, 107
1, 95804, Note_on_c, 2, 60, 105
1, 95804, Note_on_c, 9, 36, 121
1, 95804, Note_on_c, 9, 70, 85
1, 95804, Note_on_c, 9, 81, 111
1, 95804, Note_on_c, 1, 29, 121
1, 95848, Note_off_c, 9, 70, 0
1, 95864, Note_off_c, 9, 36, 0
1, 95864, Note_off_c, 9, 81, 0
1, 95936, Note_off_c, 2, 53, 0
1, 95980, Note_off_c, 1, 29, 0
1, 95984, Note_off_c, 2, 60, 0
1, 95992, Note_off_c, 2, 41, 0
1, 95992, Note_off_c, 2, 57, 0
1, 95996, Note_on_c, 2, 43, 112
1, 95996, Note_on_c, 2, 53, 103
1, 95996, Note_on_c, 2, 58, 95
1, 95996, Note_on_c, 2, 62, 105
1, 95996, Note_on_c, 9, 36, 121
1, 95996, Note_on_c, 9, 70, 100
1, 95996, Note_on_c, 1, 31, 121
1, 96040, Note_off_c, 9, 70, 0
1, 96056, Note_off_c, 9, 36, 0
1, 96092, Note_on_c, 9, 70, 89
1, 96132, Note_off_c, 9, 70, 0
1, 96152, Note_off_c, 2, 53, 0
1, 96152, Note_off_c, 2, 62, 0
1, 96160, Note_off_c, 2, 58, 0
1, 96180, Note_off_c, 2, 43, 0
1, 96188, Note_on_c, 9, 69, 116
1, 96188, Note_on_c, 9, 70, 72
1, 96204, Note_off_c, 1, 31, 0
1, 96228, Note_off_c, 9, 70, 0
1, 96236, Note_off_c, 9, 69, 0
1, 96284, Note_on_c, 9, 36, 116
1, 96284, Note_on_c, 9, 69, 79
1, 96316, Note_off_c, 9, 36, 0
1, 96324, Note_off_c, 9, 69, 0
1, 96380, Note_on_c, 9, 38, 121
1, 96380, Note_on_c, 9, 70, 94
1, 96424, Note_off_c, 9, 70, 0
1, 96500, Note_off_c, 9, 38, 0
1, 96572, Note_on_c, 9, 36, 111
1, 96572, Note_on_c, 9, 70, 94
1, 96572, Note_on_c, 9, 81, 107
1, 96624, Note_off_c, 9, 70, 0
1, 96632, Note_off_c, 9, 36, 0
1, 96636, Note_off_c, 9, 81, 0
1, 96760, Note_off_c, 6, 60, 0
1, 96764, Note_on_c, 2, 50, 107
1, 96764, Note_on_c, 2, 57, 107
1, 96764, Note_on_c, 2, 62, 107
1, 96764, Note_on_c, 2, 66, 100
1, 96764, Note_on_c, 6, 62, 82
1, 96764, Note_on_c, 6, 66, 69
1, 96764, Note_on_c, 9, 36, 121
1, 96764, Note_on_c, 9, 70, 104
1, 96764, Note_on_c, 1, 38, 123
1, 96812, Note_off_c, 9, 70, 0
1, 96860, Note_on_c, 9, 70, 94
1, 96884, Note_off_c, 9, 36, 0
1, 96912, Note_off_c, 9, 70, 0
1, 96956, Note_on_c, 9, 69, 111
1, 96956, Note_on_c, 9, 70, 81
1, 97000, Note_off_c, 9, 69, 0
1, 97016, Note_off_c, 9, 70, 0
1, 97052, Note_on_c, 9, 69, 70
1, 97108, Note_off_c, 9, 69, 0
1, 97148, Note_on_c, 9, 38, 121
1, 97148, Note_on_c, 9, 70, 85
1, 97204, Note_off_c, 9, 70, 0
1, 97232, Note_off_c, 9, 38, 0
1, 97340, Note_on_c, 9, 36, 121
1, 97340, Note_on_c, 9, 70, 71
1, 97340, Note_on_c, 9, 81, 116
1, 97396, Note_off_c, 9, 70, 0
1, 97400, Note_off_c, 9, 36, 0
1, 97400, Note_off_c, 9, 81, 0
1, 97532, Note_on_c, 9, 36, 121
1, 97532, Note_on_c, 9, 42, 97
1, 97532, Note_on_c, 9, 70, 104
1, 97564, Note_off_c, 9, 42, 0
1, 97580, Note_off_c, 9, 70, 0
1, 97592, Note_off_c, 9, 36, 0
1, 97628, Note_on_c, 9, 70, 92
1, 97672, Note_off_c, 9, 70, 0
1, 97724, Note_on_c, 9, 36, 116
1, 97724, Note_on_c, 9, 46, 107
1, 97724, Note_on_c, 9, 69, 111
1, 97724, Note_on_c, 9, 70, 104
1, 97756, Note_off_c, 9, 36, 0
1, 97772, Note_off_c, 9, 46, 0
1, 97772, Note_off_c, 9, 69, 0
1, 97772, Note_off_c, 9, 70, 0
1, 97820, Note_on_c, 9, 69, 74
1, 97820, Note_on_c, 9, 70, 92
1, 97856, Note_off_c, 9, 69, 0
1, 97864, Note_off_c, 9, 70, 0
1, 97916, Note_on_c, 2, 57, 113
1, 97916, Note_on_c, 9, 38, 121
1, 97916, Note_on_c, 9, 42, 89
1, 97916, Note_on_c, 9, 70, 104
1, 97952, Note_off_c, 9, 42, 0
1, 97964, Note_off_c, 9, 70, 0
1, 98008, Note_off_c, 2, 57, 0
1, 98012, Note_on_c, 2, 58, 103
1, 98012, Note_on_c, 9, 70, 104
1, 98036, Note_off_c, 9, 38, 0
1, 98060, Note_off_c, 9, 70, 0
1, 98100, Note_off_c, 2, 58, 0
1, 98108, Note_on_c, 2, 55, 107
1, 98108, Note_on_c, 9, 36, 111
1, 98108, Note_on_c, 9, 46, 104
1, 98108, Note_on_c, 9, 70, 100
1, 98108, Note_on_c, 9, 81, 111
1, 98152, Note_off_c, 9, 46, 0
1, 98160, Note_off_c, 9, 70, 0
1, 98168, Note_off_c, 9, 36, 0
1, 98168, Note_off_c, 9, 81, 0
1, 98200, Note_off_c, 2, 55, 0
1, 98204, Note_on_c, 2, 53, 105
1, 98204, Note_on_c, 9, 70, 94
1, 98224, Note_off_c, 2, 66, 0
1, 98232, Note_off_c, 6, 66, 0
1, 98236, Note_off_c, 2, 62, 0
1, 98244, Note_off_c, 2, 57, 0
1, 98252, Note_off_c, 9, 70, 0
1, 98268, Note_off_c, 2, 50, 0
1, 98268, Note_off_c, 1, 38, 0
1, 98284, Note_off_c, 2, 53, 0
1, 98296, Note_off_c, 6, 62, 0
1, 98300, Note_on_c, 2, 43, 109
1, 98300, Note_on_c, 2, 53, 102
1, 98300, Note_on_c, 2, 58, 105
1, 98300, Note_on_c, 2, 62, 105
1, 98300, Note_on_c, 6, 60, 82
1, 98300, Note_on_c, 9, 36, 121
1, 98300, Note_on_c, 9, 49, 97
1, 98300, Note_on_c, 9, 70, 97
1, 98300, Note_on_c, 1, 31, 125
1, 98356, Note_off_c, 9, 70, 0
1, 98412, Note_off_c, 9, 49, 0
1, 98420, Note_off_c, 9, 36, 0
1, 98460, Note_off_c, 2, 62, 0
1, 98464, Note_off_c, 2, 53, 0
1, 98468, Note_off_c, 2, 58, 0
1, 98488, Note_off_c, 2, 43, 0
1, 98492, Note_on_c, 9, 69, 121
1, 98492, Note_on_c, 9, 70, 83
1, 98500, Note_off_c, 1, 31, 0
1, 98528, Note_off_c, 9, 69, 0
1, 98540, Note_off_c, 9, 70, 0
1, 98588, Note_on_c, 9, 69, 70
1, 98620, Note_off_c, 9, 69, 0
1, 98684, Note_on_c, 9, 38, 121
1, 98684, Note_on_c, 9, 70, 75
1, 98728, Note_off_c, 9, 70, 0
1, 98768, Note_off_c, 9, 38, 0
1, 98876, Note_on_c, 2, 41, 107
1, 98876, Note_on_c, 2, 53, 105
1, 98876, Note_on_c, 2, 57, 109
1, 98876, Note_on_c, 2, 60, 107
1, 98876, Note_on_c, 9, 36, 121
1, 98876, Note_on_c, 9, 70, 85
1, 98876, Note_on_c, 9, 81, 111
1, 98876, Note_on_c, 1, 29, 121
1, 98920, Note_off_c, 9, 70, 0
1, 98936, Note_off_c, 9, 36, 0
1, 98936, Note_off_c, 9, 81, 0
1, 99008, Note_off_c, 2, 53, 0
1, 99040, Note_off_c, 2, 41, 0
1, 99044, Note_off_c, 2, 60, 0
1, 99052, Note_off_c, 2, 57, 0
1, 99052, Note_off_c, 1, 29, 0
1, 99068, Note_on_c, 2, 43, 105
1, 99068, Note_on_c, 2, 53, 103
1, 99068, Note_on_c, 2, 58, 95
1, 99068, Note_on_c, 2, 62, 107
1, 99068, Note_on_c, 9, 36, 121
1, 99068, Note_on_c, 9, 70, 100
1, 99068, Note_on_c, 1, 31, 121
1, 99112, Note_off_c, 9, 70, 0
1, 99128, Note_off_c, 9, 36, 0
1, 99164, Note_on_c, 9, 70, 89
1, 99204, Note_off_c, 9, 70, 0
1, 99216, Note_off_c, 2, 58, 0
1, 99220, Note_off_c, 2, 62, 0
1, 99224, Note_off_c, 2, 53, 0
1, 99240, Note_off_c, 2, 43, 0
1, 99260, Note_on_c, 9, 69, 116
1, 99260, Note_on_c, 9, 70, 72
1, 99276, Note_off_c, 1, 31, 0
1, 99300, Note_off_c, 9, 70, 0
1, 99308, Note_off_c, 9, 69, 0
1, 99356, Note_on_c, 9, 36, 116
1, 99356, Note_on_c, 9, 69, 79
1, 99388, Note_off_c, 9, 36, 0
1, 99396, Note_off_c, 9, 69, 0
1, 99452, Note_on_c, 9, 38, 121
1, 99452, Note_on_c, 9, 70, 94
1, 99496, Note_off_c, 9, 70, 0
1, 99572, Note_off_c, 9, 38, 0
1, 99644, Note_on_c, 9, 36, 111
1, 99644, Note_on_c, 9, 70, 94
1, 99644, Note_on_c, 9, 81, 107
1, 99696, Note_off_c, 9, 70, 0
1, 99704, Note_off_c, 9, 36, 0
1, 99708, Note_off_c, 9, 81, 0
1, 99836, Note_on_c, 2, 48, 109
1, 99836, Note_on_c, 2, 55, 105
1, 99836, Note_on_c, 2, 60, 107
1, 99836, Note_on_c, 2, 64, 103
1, 99836, Note_on_c, 9, 36, 121
1, 99836, Note_on_c, 9, 70, 104
1, 99836, Note_on_c, 1, 36, 123
1, 99884, Note_off_c, 9, 70, 0
1, 99932, Note_on_c, 9, 70, 94
1, 99956, Note_off_c, 9, 36, 0
1, 99984, Note_off_c, 9, 70, 0
1, 100028, Note_on_c, 9, 69, 111
1, 100028, Note_on_c, 9, 70, 81
1, 100072, Note_off_c, 9, 69, 0
1, 100088, Note_off_c, 9, 70, 0
1, 100124, Note_on_c, 9, 69, 70
1, 100180, Note_off_c, 9, 69, 0
1, 100220, Note_on_c, 9, 38, 121
1, 100220, Note_on_c, 9, 70, 85
1, 100276, Note_off_c, 9, 70, 0
1, 100304, Note_off_c, 9, 38, 0
1, 100412, Note_on_c, 9, 36, 121
1, 100412, Note_on_c, 9, 70, 71
1, 100412, Note_on_c, 9, 81, 116
1, 100468, Note_off_c, 9, 70, 0
1, 100472, Note_off_c, 9, 36, 0
1, 100472, Note_off_c, 9, 81, 0
1, 100604, Note_on_c, 9, 36, 121
1, 100604, Note_on_c, 9, 42, 97
1, 100604, Note_on_c, 9, 70, 104
1, 100636, Note_off_c, 9, 42, 0
1, 100652, Note_off_c, 9, 70, 0
1, 100664, Note_off_c, 9, 36, 0
1, 100700, Note_on_c, 9, 70, 92
1, 100744, Note_off_c, 9, 70, 0
1, 100796, Note_on_c, 9, 36, 116
1, 100796, Note_on_c, 9, 46, 107
1, 100796, Note_on_c, 9, 69, 111
1, 100796, Note_on_c, 9, 70, 104
1, 100828, Note_off_c, 9, 36, 0
1, 100844, Note_off_c, 9, 46, 0
1, 100844, Note_off_c, 9, 69, 0
1, 100844, Note_off_c, 9, 70, 0
1, 100892, Note_on_c, 9, 69, 74
1, 100892, Note_on_c, 9, 70, 92
1, 100928, Note_off_c, 9, 69, 0
1, 100936, Note_off_c, 9, 70, 0
1, 100984, Note_off_c, 6, 60, 64
1, 100988, Note_on_c, 6, 62, 82
1, 100988, Note_on_c, 9, 38, 121
1, 100988, Note_on_c, 9, 42, 89
1, 100988, Note_on_c, 9, 70, 104
1, 101024, Note_off_c, 9, 42, 0
1, 101036, Note_off_c, 9, 70, 0
1, 101084, Note_on_c, 9, 70, 104
1, 101108, Note_off_c, 9, 38, 0
1, 101132, Note_off_c, 9, 70, 0
1, 101180, Note_on_c, 9, 36, 111
1, 101180, Note_on_c, 9, 46, 104
1, 101180, Note_on_c, 9, 70, 100
1, 101180, Note_on_c, 9, 81, 111
1, 101212, Note_off_c, 2, 64, 0
1, 101224, Note_off_c, 9, 46, 0
1, 101232, Note_off_c, 9, 70, 0
1, 101240, Note_off_c, 9, 36, 0
1, 101240, Note_off_c, 9, 81, 0
1, 101276, Note_on_c, 9, 70, 94
1, 101280, Note_off_c, 2, 60, 0
1, 101292, Note_off_c, 2, 55, 0
1, 101324, Note_off_c, 2, 48, 0
1, 101324, Note_off_c, 9, 70, 0
1, 101340, Note_off_c, 1, 36, 0
1, 101368, Note_off_c, 6, 62, 0
1, 101372, Note_on_c, 2, 43, 112
1, 101372, Note_on_c, 2, 53, 103
1, 101372, Note_on_c, 2, 58, 103
1, 101372, Note_on_c, 2, 62, 107
1, 101372, Note_on_c, 6, 60, 83
1, 101372, Note_on_c, 9, 36, 121
1, 101372, Note_on_c, 9, 70, 97
1, 101372, Note_on_c, 1, 31, 125
1, 101428, Note_off_c, 9, 70, 0
1, 101492, Note_off_c, 9, 36, 0
1, 101556, Note_off_c, 2, 53, 0
1, 101556, Note_off_c, 2, 62, 0
1, 101564, Note_on_c, 9, 69, 121
1, 101564, Note_on_c, 9, 70, 83
1, 101568, Note_off_c, 2, 58, 0
1, 101572, Note_off_c, 1, 31, 0
1, 101576, Note_off_c, 2, 43, 0
1, 101600, Note_off_c, 9, 69, 0
1, 101612, Note_off_c, 9, 70, 0
1, 101660, Note_on_c, 9, 69, 70
1, 101692, Note_off_c, 9, 69, 0
1, 101756, Note_on_c, 9, 38, 121
1, 101756, Note_on_c, 9, 70, 75
1, 101800, Note_off_c, 9, 70, 0
1, 101840, Note_off_c, 9, 38, 0
1, 101948, Note_on_c, 2, 41, 103
1, 101948, Note_on_c, 2, 53, 105
1, 101948, Note_on_c, 2, 57, 107
1, 101948, Note_on_c, 2, 60, 105
1, 101948, Note_on_c, 9, 36, 121
1, 101948, Note_on_c, 9, 70, 85
1, 101948, Note_on_c, 9, 81, 111
1, 101948, Note_on_c, 1, 29, 121
1, 101992, Note_off_c, 9, 70, 0
1, 102008, Note_off_c, 9, 36, 0
1, 102008, Note_off_c, 9, 81, 0
1, 102080, Note_off_c, 2, 53, 0
1, 102124, Note_off_c, 1, 29, 0
1, 102128, Note_off_c, 2, 60, 0
1, 102136, Note_off_c, 2, 41, 0
1, 102136, Note_off_c, 2, 57, 0
1, 102140, Note_on_c, 2, 43, 112
1, 102140, Note_on_c, 2, 53, 103
1, 102140, Note_on_c, 2, 58, 95
1, 102140, Note_on_c, 2, 62, 105
1, 102140, Note_on_c, 9, 36, 121
1, 102140, Note_on_c, 9, 70, 100
1, 102140, Note_on_c, 1, 31, 121
1, 102184, Note_off_c, 9, 70, 0
1, 102200, Note_off_c, 9, 36, 0
1, 102236, Note_on_c, 9, 70, 89
1, 102276, Note_off_c, 9, 70, 0
1, 102296, Note_off_c, 2, 53, 0
1, 102296, Note_off_c, 2, 62, 0
1, 102304, Note_off_c, 2, 58, 0
1, 102324, Note_off_c, 2, 43, 0
1, 102332, Note_on_c, 9, 69, 116
1, 102332, Note_on_c, 9, 70, 72
1, 102348, Note_off_c, 1, 31, 0
1, 102372, Note_off_c, 9, 70, 0
1, 102380, Note_off_c, 9, 69, 0
1, 102428, Note_on_c, 9, 36, 116
1, 102428, Note_on_c, 9, 69, 79
1, 102460, Note_off_c, 9, 36, 0
1, 102468, Note_off_c, 9, 69, 0
1, 102524, Note_on_c, 9, 38, 121
1, 102524, Note_on_c, 9, 70, 94
1, 102568, Note_off_c, 9, 70, 0
1, 102644, Note_off_c, 9, 38, 0
1, 102716, Note_on_c, 9, 36, 111
1, 102716, Note_on_c, 9, 70, 94
1, 102716, Note_on_c, 9, 81, 107
1, 102768, Note_off_c, 9, 70, 0
1, 102776, Note_off_c, 9, 36, 0
1, 102780, Note_off_c, 9, 81, 0
1, 102864, Pitch_bend_c, 7, 11776
1, 102876, Pitch_bend_c, 7, 9344
1, 102884, Pitch_bend_c, 7, 8192
1, 102904, Note_off_c, 6, 60, 0
1, 102908, Note_on_c, 2, 50, 107
1, 102908, Note_on_c, 2, 57, 107
1, 102908, Note_on_c, 2, 62, 107
1, 102908, Note_on_c, 2, 66, 100
1, 102908, Note_on_c, 6, 62, 82
1, 102908, Note_on_c, 6, 66, 69
1, 102908, Note_on_c, 9, 36, 121
1, 102908, Note_on_c, 9, 70, 104
1, 102908, Note_on_c, 1, 38, 123
1, 102956, Note_off_c, 9, 70, 0
1, 103004, Note_on_c, 9, 70, 94
1, 103028, Note_off_c, 9, 36, 0
1, 103056, Note_off_c, 9, 70, 0
1, 103100, Note_on_c, 9, 69, 111
1, 103100, Note_on_c, 9, 70, 81
1, 103144, Note_off_c, 9, 69, 0
1, 103160, Note_off_c, 9, 70, 0
1, 103196, Note_on_c, 9, 69, 70
1, 103252, Note_off_c, 9, 69, 0
1, 103292, Note_on_c, 9, 38, 121
1, 103292, Note_on_c, 9, 70, 85
1, 103348, Note_off_c, 9, 70, 0
1, 103376, Note_off_c, 9, 38, 0
1, 103484, Note_on_c, 9, 36, 121
1, 103484, Note_on_c, 9, 70, 71
1, 103484, Note_on_c, 9, 81, 116
1, 103540, Note_off_c, 9, 70, 0
1, 103544, Note_off_c, 9, 36, 0
1, 103544, Note_off_c, 9, 81, 0
1, 103676, Note_on_c, 9, 36, 121
1, 103676, Note_on_c, 9, 42, 97
1, 103676, Note_on_c, 9, 70, 104
1, 103708, Note_off_c, 9, 42, 0
1, 103724, Note_off_c, 9, 70, 0
1, 103736, Note_off_c, 9, 36, 0
1, 103772, Note_on_c, 9, 70, 92
1, 103816, Note_off_c, 9, 70, 0
1, 103868, Note_on_c, 9, 36, 116
1, 103868, Note_on_c, 9, 46, 107
1, 103868, Note_on_c, 9, 69, 111
1, 103868, Note_on_c, 9, 70, 104
1, 103900, Note_off_c, 9, 36, 0
1, 103916, Note_off_c, 9, 46, 0
1, 103916, Note_off_c, 9, 69, 0
1, 103916, Note_off_c, 9, 70, 0
1, 103964, Note_on_c, 9, 69, 74
1, 103964, Note_on_c, 9, 70, 92
1, 104000, Note_off_c, 9, 69, 0
1, 104008, Note_off_c, 9, 70, 0
1, 104060, Note_on_c, 2, 57, 113
1, 104060, Note_on_c, 9, 38, 121
1, 104060, Note_on_c, 9, 42, 89
1, 104060, Note_on_c, 9, 70, 104
1, 104096, Note_off_c, 9, 42, 0
1, 104108, Note_off_c, 9, 70, 0
1, 104152, Note_off_c, 2, 57, 0
1, 104156, Note_on_c, 2, 58, 103
1, 104156, Note_on_c, 9, 70, 104
1, 104180, Note_off_c, 9, 38, 0
1, 104204, Note_off_c, 9, 70, 0
1, 104244, Note_off_c, 2, 58, 0
1, 104252, Note_on_c, 2, 55, 107
1, 104252, Note_on_c, 9, 36, 111
1, 104252, Note_on_c, 9, 46, 104
1, 104252, Note_on_c, 9, 70, 100
1, 104252, Note_on_c, 9, 81, 111
1, 104296, Note_off_c, 9, 46, 0
1, 104304, Note_off_c, 9, 70, 0
1, 104312, Note_off_c, 9, 36, 0
1, 104312, Note_off_c, 9, 81, 0
1, 104344, Note_off_c, 2, 55, 0
1, 104348, Note_on_c, 2, 53, 105
1, 104348, Note_on_c, 9, 70, 94
1, 104368, Note_off_c, 2, 66, 0
1, 104376, Note_off_c, 6, 66, 0
1, 104380, Note_off_c, 2, 62, 0
1, 104388, Note_off_c, 2, 57, 0
1, 104396, Note_off_c, 9, 70, 0
1, 104412, Note_off_c, 2, 50, 0
1, 104412, Note_off_c, 1, 38, 0
1, 104428, Note_off_c, 2, 53, 0
1, 104440, Note_off_c, 6, 62, 0
1, 104444, Note_on_c, 2, 43, 109
1, 104444, Note_on_c, 2, 53, 102
1, 104444, Note_on_c, 2, 58, 105
1, 104444, Note_on_c, 2, 62, 105
1, 104444, Note_on_c, 6, 60, 82
1, 104444, Note_on_c, 9, 36, 121
1, 104444, Note_on_c, 9, 70, 97
1, 104444, Note_on_c, 1, 31, 125
1, 104500, Note_off_c, 9, 70, 0
1, 104564, Note_off_c, 9, 36, 0
1, 104604, Note_off_c, 2, 62, 0
1, 104608, Note_off_c, 2, 53, 0
1, 104612, Note_off_c, 2, 58, 0
1, 104632, Note_off_c, 2, 43, 0
1, 104636, Note_on_c, 9, 69, 121
1, 104636, Note_on_c, 9, 70, 83
1, 104644, Note_off_c, 1, 31, 0
1, 104672, Note_off_c, 9, 69, 0
1, 104684, Note_off_c, 9, 70, 0
1, 104732, Note_on_c, 9, 69, 70
1, 104764, Note_off_c, 9, 69, 0
1, 104828, Note_on_c, 9, 38, 121
1, 104828, Note_on_c, 9, 70, 75
1, 104872, Note_off_c, 9, 70, 0
1, 104912, Note_off_c, 9, 38, 0
1, 105020, Note_on_c, 2, 41, 107
1, 105020, Note_on_c, 2, 53, 105
1, 105020, Note_on_c, 2, 57, 109
1, 105020, Note_on_c, 2, 60, 107
1, 105020, Note_on_c, 9, 36, 121
1, 105020, Note_on_c, 9, 70, 85
1, 105020, Note_on_c, 9, 81, 111
1, 105020, Note_on_c, 1, 29, 121
1, 105064, Note_off_c, 9, 70, 0
1, 105080, Note_off_c, 9, 36, 0
1, 105080, Note_off_c, 9, 81, 0
1, 105152, Note_off_c, 2, 53, 0
1, 105184, Note_off_c, 2, 41, 0
1, 105188, Note_off_c, 2, 60, 0
1, 105196, Note_off_c, 2, 57, 0
1, 105196, Note_off_c, 1, 29, 0
1, 105212, Note_on_c, 2, 43, 105
1, 105212, Note_on_c, 2, 53, 103
1, 105212, Note_on_c, 2, 58, 95
1, 105212, Note_on_c, 2, 62, 107
1, 105212, Note_on_c, 9, 36, 121
1, 105212, Note_on_c, 9, 70, 100
1, 105212, Note_on_c, 1, 31, 121
1, 105256, Note_off_c, 9, 70, 0
1, 105272, Note_off_c, 9, 36, 0
1, 105308, Note_on_c, 9, 70, 89
1, 105348, Note_off_c, 9, 70, 0
1, 105360, Note_off_c, 2, 58, 0
1, 105364, Note_off_c, 2, 62, 0
1, 105368, Note_off_c, 2, 53, 0
1, 105384, Note_off_c, 2, 43, 0
1, 105404, Note_on_c, 9, 69, 116
1, 105404, Note_on_c, 9, 70, 72
1, 105420, Note_off_c, 1, 31, 0
1, 105444, Note_off_c, 9, 70, 0
1, 105452, Note_off_c, 9, 69, 0
1, 105500, Note_on_c, 9, 36, 116
1, 105500, Note_on_c, 9, 69, 79
1, 105532, Note_off_c, 9, 36, 0
1, 105540, Note_off_c, 9, 69, 0
1, 105596, Note_on_c, 9, 38, 121
1, 105596, Note_on_c, 9, 70, 94
1, 105640, Note_off_c, 9, 70, 0
1, 105716, Note_off_c, 9, 38, 0
1, 105788, Note_on_c, 9, 36, 111
1, 105788, Note_on_c, 9, 70, 94
1, 105788, Note_on_c, 9, 81, 107
1, 105840, Note_off_c, 9, 70, 0
1, 105848, Note_off_c, 9, 36, 0
1, 105852, Note_off_c, 9, 81, 0
1, 105980, Note_on_c, 2, 48, 109
1, 105980, Note_on_c, 2, 55, 105
1, 105980, Note_on_c, 2, 60, 107
1, 105980, Note_on_c, 2, 64, 103
1, 105980, Note_on_c, 9, 36, 121
1, 105980, Note_on_c, 9, 70, 104
1, 105980, Note_on_c, 1, 36, 123
1, 106028, Note_off_c, 9, 70, 0
1, 106076, Note_on_c, 9, 70, 94
1, 106100, Note_off_c, 9, 36, 0
1, 106128, Note_off_c, 9, 70, 0
1, 106172, Note_on_c, 9, 69, 111
1, 106172, Note_on_c, 9, 70, 81
1, 106216, Note_off_c, 9, 69, 0
1, 106232, Note_off_c, 9, 70, 0
1, 106268, Note_on_c, 9, 69, 70
1, 106324, Note_off_c, 9, 69, 0
1, 106364, Note_on_c, 9, 38, 121
1, 106364, Note_on_c, 9, 70, 85
1, 106420, Note_off_c, 9, 70, 0
1, 106448, Note_off_c, 9, 38, 0
1, 106556, Note_on_c, 9, 36, 121
1, 106556, Note_on_c, 9, 70, 71
1, 106556, Note_on_c, 9, 81, 116
1, 106612, Note_off_c, 9, 70, 0
1, 106616, Note_off_c, 9, 36, 0
1, 106616, Note_off_c, 9, 81, 0
1, 106748, Note_on_c, 9, 36, 121
1, 106748, Note_on_c, 9, 42, 97
1, 106748, Note_on_c, 9, 70, 104
1, 106780, Note_off_c, 9, 42, 0
1, 106796, Note_off_c, 9, 70, 0
1, 106808, Note_off_c, 9, 36, 0
1, 106844, Note_on_c, 9, 70, 92
1, 106888, Note_off_c, 9, 70, 0
1, 106940, Note_on_c, 9, 36, 116
1, 106940, Note_on_c, 9, 46, 107
1, 106940, Note_on_c, 9, 69, 111
1, 106940, Note_on_c, 9, 70, 104
1, 106972, Note_off_c, 9, 36, 0
1, 106988, Note_off_c, 9, 46, 0
1, 106988, Note_off_c, 9, 69, 0
1, 106988, Note_off_c, 9, 70, 0
1, 107036, Note_on_c, 9, 69, 74
1, 107036, Note_on_c, 9, 70, 92
1, 107072, Note_off_c, 9, 69, 0
1, 107080, Note_off_c, 9, 70, 0
1, 107128, Note_off_c, 6, 60, 64
1, 107132, Note_on_c, 6, 62, 82
1, 107132, Note_on_c, 9, 38, 121
1, 107132, Note_on_c, 9, 42, 89
1, 107132, Note_on_c, 9, 70, 104
1, 107168, Note_off_c, 9, 42, 0
1, 107180, Note_off_c, 9, 70, 0
1, 107228, Note_on_c, 9, 70, 104
1, 107252, Note_off_c, 9, 38, 0
1, 107276, Note_off_c, 9, 70, 0
1, 107324, Note_on_c, 9, 36, 111
1, 107324, Note_on_c, 9, 46, 104
1, 107324, Note_on_c, 9, 70, 100
1, 107324, Note_on_c, 9, 81, 111
1, 107356, Note_off_c, 2, 64, 0
1, 107368, Note_off_c, 9, 46, 0
1, 107376, Note_off_c, 9, 70, 0
1, 107384, Note_off_c, 9, 36, 0
1, 107384, Note_off_c, 9, 81, 0
1, 107420, Note_on_c, 9, 70, 94
1, 107424, Note_off_c, 2, 60, 0
1, 107436, Note_off_c, 2, 55, 0
1, 107468, Note_off_c, 2, 48, 0
1, 107468, Note_off_c, 9, 70, 0
1, 107484, Note_off_c, 1, 36, 0
1, 107512, Note_off_c, 6, 62, 0
1, 107516, Note_on_c, 2, 43, 112
1, 107516, Note_on_c, 2, 53, 103
1, 107516, Note_on_c, 2, 58, 103
1, 107516, Note_on_c, 2, 62, 107
1, 107516, Note_on_c, 6, 60, 83
1, 107516, Note_on_c, 9, 36, 121
1, 107516, Note_on_c, 9, 70, 97
1, 107516, Note_on_c, 1, 31, 125
1, 107572, Note_off_c, 9, 70, 0
1, 107636, Note_off_c, 9, 36, 0
1, 107700, Note_off_c, 2, 53, 0
1, 107700, Note_off_c, 2, 62, 0
1, 107708, Note_on_c, 9, 69, 121
1, 107708, Note_on_c, 9, 70, 83
1, 107712, Note_off_c, 2, 58, 0
1, 107716, Note_off_c, 1, 31, 0
1, 107720, Note_off_c, 2, 43, 0
1, 107744, Note_off_c, 9, 69, 0
1, 107756, Note_off_c, 9, 70, 0
1, 107804, Note_on_c, 9, 69, 70
1, 107836, Note_off_c, 9, 69, 0
1, 107900, Note_on_c, 9, 38, 121
1, 107900, Note_on_c, 9, 70, 75
1, 107944, Note_off_c, 9, 70, 0
1, 107984, Note_off_c, 9, 38, 0
1, 108092, Note_on_c, 2, 41, 103
1, 108092, Note_on_c, 2, 53, 105
1, 108092, Note_on_c, 2, 57, 107
1, 108092, Note_on_c, 2, 60, 105
1, 108092, Note_on_c, 9, 36, 121
1, 108092, Note_on_c, 9, 70, 85
1, 108092, Note_on_c, 9, 81, 111
1, 108092, Note_on_c, 1, 29, 121
1, 108136, Note_off_c, 9, 70, 0
1, 108152, Note_off_c, 9, 36, 0
1, 108152, Note_off_c, 9, 81, 0
1, 108224, Note_off_c, 2, 53, 0
1, 108268, Note_off_c, 1, 29, 0
1, 108272, Note_off_c, 2, 60, 0
1, 108280, Note_off_c, 2, 41, 0
1, 108280, Note_off_c, 2, 57, 0
1, 108284, Note_on_c, 2, 43, 112
1, 108284, Note_on_c, 2, 53, 103
1, 108284, Note_on_c, 2, 58, 95
1, 108284, Note_on_c, 2, 62, 105
1, 108284, Note_on_c, 9, 36, 121
1, 108284, Note_on_c, 9, 70, 100
1, 108284, Note_on_c, 1, 31, 121
1, 108328, Note_off_c, 9, 70, 0
1, 108344, Note_off_c, 9, 36, 0
1, 108380, Note_on_c, 9, 70, 89
1, 108420, Note_off_c, 9, 70, 0
1, 108440, Note_off_c, 2, 53, 0
1, 108440, Note_off_c, 2, 62, 0
1, 108448, Note_off_c, 2, 58, 0
1, 108468, Note_off_c, 2, 43, 0
1, 108476, Note_on_c, 9, 69, 116
1, 108476, Note_on_c, 9, 70, 72
1, 108492, Note_off_c, 1, 31, 0
1, 108516, Note_off_c, 9, 70, 0
1, 108524, Note_off_c, 9, 69, 0
1, 108572, Note_on_c, 9, 36, 116
1, 108572, Note_on_c, 9, 69, 79
1, 108604, Note_off_c, 9, 36, 0
1, 108612, Note_off_c, 9, 69, 0
1, 108668, Note_on_c, 9, 38, 121
1, 108668, Note_on_c, 9, 70, 94
1, 108712, Note_off_c, 9, 70, 0
1, 108788, Note_off_c, 9, 38, 0
1, 108860, Note_on_c, 9, 36, 111
1, 108860, Note_on_c, 9, 70, 94
1, 108860, Note_on_c, 9, 81, 107
1, 108912, Note_off_c, 9, 70, 0
1, 108920, Note_off_c, 9, 36, 0
1, 108924, Note_off_c, 9, 81, 0
1, 109048, Note_off_c, 6, 60, 0
1, 109052, Note_on_c, 2, 50, 107
1, 109052, Note_on_c, 2, 57, 107
1, 109052, Note_on_c, 2, 62, 107
1, 109052, Note_on_c, 2, 66, 100
1, 109052, Note_on_c, 6, 62, 82
1, 109052, Note_on_c, 6, 66, 69
1, 109052, Note_on_c, 9, 36, 121
1, 109052, Note_on_c, 9, 70, 104
1, 109052, Note_on_c, 1, 38, 123
1, 109100, Note_off_c, 9, 70, 0
1, 109148, Note_on_c, 9, 70, 94
1, 109172, Note_off_c, 9, 36, 0
1, 109200, Note_off_c, 9, 70, 0
1, 109244, Note_on_c, 9, 69, 111
1, 109244, Note_on_c, 9, 70, 81
1, 109288, Note_off_c, 9, 69, 0
1, 109304, Note_off_c, 9, 70, 0
1, 109340, Note_on_c, 9, 69, 70
1, 109396, Note_off_c, 9, 69, 0
1, 109436, Note_on_c, 9, 38, 121
1, 109436, Note_on_c, 9, 70, 85
1, 109492, Note_off_c, 9, 70, 0
1, 109520, Note_off_c, 9, 38, 0
1, 109628, Note_on_c, 9, 36, 121
1, 109628, Note_on_c, 9, 70, 71
1, 109628, Note_on_c, 9, 81, 116
1, 109684, Note_off_c, 9, 70, 0
1, 109688, Note_off_c, 9, 36, 0
1, 109688, Note_off_c, 9, 81, 0
1, 109820, Note_on_c, 9, 36, 121
1, 109820, Note_on_c, 9, 42, 97
1, 109820, Note_on_c, 9, 70, 104
1, 109852, Note_off_c, 9, 42, 0
1, 109868, Note_off_c, 9, 70, 0
1, 109880, Note_off_c, 9, 36, 0
1, 109916, Note_on_c, 9, 70, 92
1, 109960, Note_off_c, 9, 70, 0
1, 110012, Note_on_c, 9, 36, 116
1, 110012, Note_on_c, 9, 46, 107
1, 110012, Note_on_c, 9, 69, 111
1, 110012, Note_on_c, 9, 70, 104
1, 110044, Note_off_c, 9, 36, 0
1, 110060, Note_off_c, 9, 46, 0
1, 110060, Note_off_c, 9, 69, 0
1, 110060, Note_off_c, 9, 70, 0
1, 110108, Note_on_c, 9, 69, 74
1, 110108, Note_on_c, 9, 70, 92
1, 110144, Note_off_c, 9, 69, 0
1, 110152, Note_off_c, 9, 70, 0
1, 110204, Note_on_c, 2, 57, 113
1, 110204, Note_on_c, 9, 38, 121
1, 110204, Note_on_c, 9, 42, 89
1, 110204, Note_on_c, 9, 70, 104
1, 110240, Note_off_c, 9, 42, 0
1, 110252, Note_off_c, 9, 70, 0
1, 110296, Note_off_c, 2, 57, 0
1, 110300, Note_on_c, 2, 58, 103
1, 110300, Note_on_c, 9, 70, 104
1, 110324, Note_off_c, 9, 38, 0
1, 110348, Note_off_c, 9, 70, 0
1, 110388, Note_off_c, 2, 58, 0
1, 110396, Note_on_c, 2, 55, 107
1, 110396, Note_on_c, 9, 36, 111
1, 110396, Note_on_c, 9, 46, 104
1, 110396, Note_on_c, 9, 70, 100
1, 110396, Note_on_c, 9, 81, 111
1, 110440, Note_off_c, 9, 46, 0
1, 110448, Note_off_c, 9, 70, 0
1, 110456, Note_off_c, 9, 36, 0
1, 110456, Note_off_c, 9, 81, 0
1, 110488, Note_off_c, 2, 55, 0
1, 110492, Note_on_c, 2, 53, 105
1, 110492, Note_on_c, 9, 70, 94
1, 110512, Note_off_c, 2, 66, 0
1, 110520, Note_off_c, 6, 66, 0
1, 110524, Note_off_c, 2, 62, 0
1, 110532, Note_off_c, 2, 57, 0
1, 110540, Note_off_c, 9, 70, 0
1, 110556, Note_off_c, 2, 50, 0
1, 110556, Note_off_c, 1, 38, 0
1, 110572, Note_off_c, 2, 53, 0
1, 110584, Note_off_c, 6, 62, 0
1, 110588, Note_on_c, 2, 43, 109
1, 110588, Note_on_c, 2, 53, 102
1, 110588, Note_on_c, 2, 58, 105
1, 110588, Note_on_c, 2, 62, 105
1, 110588, Note_on_c, 6, 60, 82
1, 110588, Note_on_c, 9, 36, 121
1, 110588, Note_on_c, 9, 49, 97
1, 110588, Note_on_c, 9, 70, 97
1, 110588, Note_on_c, 1, 31, 125
1, 110644, Note_off_c, 9, 70, 0
1, 110700, Note_off_c, 9, 49, 0
1, 110708, Note_off_c, 9, 36, 0
1, 110748, Note_off_c, 2, 62, 0
1, 110752, Note_off_c, 2, 53, 0
1, 110756, Note_off_c, 2, 58, 0
1, 110776, Note_off_c, 2, 43, 0
1, 110780, Note_on_c, 9, 69, 121
1, 110780, Note_on_c, 9, 70, 83
1, 110788, Note_off_c, 1, 31, 0
1, 110816, Note_off_c, 9, 69, 0
1, 110828, Note_off_c, 9, 70, 0
1, 110876, Note_on_c, 9, 69, 70
1, 110908, Note_off_c, 9, 69, 0
1, 110972, Note_on_c, 9, 38, 121
1, 110972, Note_on_c, 9, 70, 75
1, 111016, Note_off_c, 9, 70, 0
1, 111056, Note_off_c, 9, 38, 0
1, 111164, Note_on_c, 2, 41, 107
1, 111164, Note_on_c, 2, 53, 105
1, 111164, Note_on_c, 2, 57, 109
1, 111164, Note_on_c, 2, 60, 107
1, 111164, Note_on_c, 9, 36, 121
1, 111164, Note_on_c, 9, 70, 85
1, 111164, Note_on_c, 9, 81, 111
1, 111164, Note_on_c, 1, 29, 121
1, 111208, Note_off_c, 9, 70, 0
1, 111224, Note_off_c, 9, 36, 0
1, 111224, Note_off_c, 9, 81, 0
1, 111296, Note_off_c, 2, 53, 0
1, 111328, Note_off_c, 2, 41, 0
1, 111332, Note_off_c, 2, 60, 0
1, 111340, Note_off_c, 2, 57, 0
1, 111340, Note_off_c, 1, 29, 0
1, 111356, Note_on_c, 2, 43, 105
1, 111356, Note_on_c, 2, 53, 103
1, 111356, Note_on_c, 2, 58, 95
1, 111356, Note_on_c, 2, 62, 107
1, 111356, Note_on_c, 9, 36, 121
1, 111356, Note_on_c, 9, 70, 100
1, 111356, Note_on_c, 1, 31, 121
1, 111400, Note_off_c, 9, 70, 0
1, 111416, Note_off_c, 9, 36, 0
1, 111452, Note_on_c, 9, 70, 89
1, 111492, Note_off_c, 9, 70, 0
1, 111504, Note_off_c, 2, 58, 0
1, 111508, Note_off_c, 2, 62, 0
1, 111512, Note_off_c, 2, 53, 0
1, 111528, Note_off_c, 2, 43, 0
1, 111548, Note_on_c, 9, 69, 116
1, 111548, Note_on_c, 9, 70, 72
1, 111564, Note_off_c, 1, 31, 0
1, 111588, Note_off_c, 9, 70, 0
1, 111596, Note_off_c, 9, 69, 0
1, 111644, Note_on_c, 9, 36, 116
1, 111644, Note_on_c, 9, 69, 79
1, 111676, Note_off_c, 9, 36, 0
1, 111684, Note_off_c, 9, 69, 0
1, 111740, Note_on_c, 9, 38, 121
1, 111740, Note_on_c, 9, 70, 94
1, 111784, Note_off_c, 9, 70, 0
1, 111860, Note_off_c, 9, 38, 0
1, 111932, Note_on_c, 9, 36, 111
1, 111932, Note_on_c, 9, 70, 94
1, 111932, Note_on_c, 9, 81, 107
1, 111984, Note_off_c, 9, 70, 0
1, 111992, Note_off_c, 9, 36, 0
1, 111996, Note_off_c, 9, 81, 0
1, 112124, Note_on_c, 2, 48, 109
1, 112124, Note_on_c, 2, 55, 105
1, 112124, Note_on_c, 2, 60, 107
1, 112124, Note_on_c, 2, 64, 103
1, 112124, Note_on_c, 9, 36, 121
1, 112124, Note_on_c, 9, 70, 104
1, 112124, Note_on_c, 1, 36, 123
1, 112172, Note_off_c, 9, 70, 0
1, 112220, Note_on_c, 9, 70, 94
1, 112244, Note_off_c, 9, 36, 0
1, 112272, Note_off_c, 9, 70, 0
1, 112316, Note_on_c, 9, 69, 111
1, 112316, Note_on_c, 9, 70, 81
1, 112360, Note_off_c, 9, 69, 0
1, 112376, Note_off_c, 9, 70, 0
1, 112412, Note_on_c, 9, 69, 70
1, 112468, Note_off_c, 9, 69, 0
1, 112508, Note_on_c, 9, 38, 121
1, 112508, Note_on_c, 9, 70, 85
1, 112564, Note_off_c, 9, 70, 0
1, 112592, Note_off_c, 9, 38, 0
1, 112700, Note_on_c, 9, 36, 121
1, 112700, Note_on_c, 9, 70, 71
1, 112700, Note_on_c, 9, 81, 116
1, 112756, Note_off_c, 9, 70, 0
1, 112760, Note_off_c, 9, 36, 0
1, 112760, Note_off_c, 9, 81, 0
1, 112892, Note_on_c, 9, 36, 121
1, 112892, Note_on_c, 9, 42, 97
1, 112892, Note_on_c, 9, 70, 104
1, 112924, Note_off_c, 9, 42, 0
1, 112940, Note_off_c, 9, 70, 0
1, 112952, Note_off_c, 9, 36, 0
1, 112988, Note_on_c, 9, 70, 92
1, 113032, Note_off_c, 9, 70, 0
1, 113084, Note_on_c, 9, 36, 116
1, 113084, Note_on_c, 9, 46, 107
1, 113084, Note_on_c, 9, 69, 111
1, 113084, Note_on_c, 9, 70, 104
1, 113116, Note_off_c, 9, 36, 0
1, 113132, Note_off_c, 9, 46, 0
1, 113132, Note_off_c, 9, 69, 0
1, 113132, Note_off_c, 9, 70, 0
1, 113180, Note_on_c, 9, 69, 74
1, 113180, Note_on_c, 9, 70, 92
1, 113216, Note_off_c, 9, 69, 0
1, 113224, Note_off_c, 9, 70, 0
1, 113272, Note_off_c, 6, 60, 64
1, 113276, Note_on_c, 6, 62, 82
1, 113276, Note_on_c, 9, 38, 121
1, 113276, Note_on_c, 9, 42, 89
1, 113276, Note_on_c, 9, 70, 104
1, 113312, Note_off_c, 9, 42, 0
1, 113324, Note_off_c, 9, 70, 0
1, 113372, Note_on_c, 9, 70, 104
1, 113396, Note_off_c, 9, 38, 0
1, 113420, Note_off_c, 9, 70, 0
1, 113468, Note_on_c, 9, 36, 111
1, 113468, Note_on_c, 9, 46, 104
1, 113468, Note_on_c, 9, 70, 100
1, 113468, Note_on_c, 9, 81, 111
1, 113500, Note_off_c, 2, 64, 0
1, 113512, Note_off_c, 9, 46, 0
1, 113520, Note_off_c, 9, 70, 0
1, 113528, Note_off_c, 9, 36, 0
1, 113528, Note_off_c, 9, 81, 0
1, 113564, Note_on_c, 9, 70, 94
1, 113568, Note_off_c, 2, 60, 0
1, 113580, Note_off_c, 2, 55, 0
1, 113612, Note_off_c, 2, 48, 0
1, 113612, Note_off_c, 9, 70, 0
1, 113628, Note_off_c, 1, 36, 0
1, 113656, Note_off_c, 6, 62, 0
1, 113660, Note_on_c, 2, 43, 112
1, 113660, Note_on_c, 2, 53, 103
1, 113660, Note_on_c, 2, 58, 103
1, 113660, Note_on_c, 2, 62, 107
1, 113660, Note_on_c, 6, 60, 83
1, 113660, Note_on_c, 9, 36, 121
1, 113660, Note_on_c, 9, 70, 97
1, 113660, Note_on_c, 1, 31, 125
1, 113716, Note_off_c, 9, 70, 0
1, 113780, Note_off_c, 9, 36, 0
1, 113844, Note_off_c, 2, 53, 0
1, 113844, Note_off_c, 2, 62, 0
1, 113852, Note_on_c, 9, 69, 121
1, 113852, Note_on_c, 9, 70, 83
1, 113856, Note_off_c, 2, 58, 0
1, 113860, Note_off_c, 1, 31, 0
1, 113864, Note_off_c, 2, 43, 0
1, 113888, Note_off_c, 9, 69, 0
1, 113900, Note_off_c, 9, 70, 0
1, 113948, Note_on_c, 9, 69, 70
1, 113980, Note_off_c, 9, 69, 0
1, 114044, Note_on_c, 9, 38, 121
1, 114044, Note_on_c, 9, 70, 75
1, 114088, Note_off_c, 9, 70, 0
1, 114128, Note_off_c, 9, 38, 0
1, 114236, Note_on_c, 2, 41, 103
1, 114236, Note_on_c, 2, 53, 105
1, 114236, Note_on_c, 2, 57, 107
1, 114236, Note_on_c, 2, 60, 105
1, 114236, Note_on_c, 9, 36, 121
1, 114236, Note_on_c, 9, 70, 85
1, 114236, Note_on_c, 9, 81, 111
1, 114236, Note_on_c, 1, 29, 121
1, 114280, Note_off_c, 9, 70, 0
1, 114296, Note_off_c, 9, 36, 0
1, 114296, Note_off_c, 9, 81, 0
1, 114368, Note_off_c, 2, 53, 0
1, 114412, Note_off_c, 1, 29, 0
1, 114416, Note_off_c, 2, 60, 0
1, 114424, Note_off_c, 2, 41, 0
1, 114424, Note_off_c, 2, 57, 0
1, 114428, Note_on_c, 2, 43, 112
1, 114428, Note_on_c, 2, 53, 103
1, 114428, Note_on_c, 2, 58, 95
1, 114428, Note_on_c, 2, 62, 105
1, 114428, Note_on_c, 9, 36, 121
1, 114428, Note_on_c, 9, 70, 100
1, 114428, Note_on_c, 1, 31, 121
1, 114472, Note_off_c, 9, 70, 0
1, 114488, Note_off_c, 9, 36, 0
1, 114524, Note_on_c, 9, 70, 89
1, 114564, Note_off_c, 9, 70, 0
1, 114584, Note_off_c, 2, 53, 0
1, 114584, Note_off_c, 2, 62, 0
1, 114592, Note_off_c, 2, 58, 0
1, 114612, Note_off_c, 2, 43, 0
1, 114620, Note_on_c, 9, 69, 116
1, 114620, Note_on_c, 9, 70, 72
1, 114636, Note_off_c, 1, 31, 0
1, 114660, Note_off_c, 9, 70, 0
1, 114668, Note_off_c, 9, 69, 0
1, 114716, Note_on_c, 9, 36, 116
1, 114716, Note_on_c, 9, 69, 79
1, 114748, Note_off_c, 9, 36, 0
1, 114756, Note_off_c, 9, 69, 0
1, 114812, Note_on_c, 9, 38, 121
1, 114812, Note_on_c, 9, 70, 94
1, 114856, Note_off_c, 9, 70, 0
1, 114932, Note_off_c, 9, 38, 0
1, 115004, Note_on_c, 9, 36, 111
1, 115004, Note_on_c, 9, 70, 94
1, 115004, Note_on_c, 9, 81, 107
1, 115056, Note_off_c, 9, 70, 0
1, 115064, Note_off_c, 9, 36, 0
1, 115068, Note_off_c, 9, 81, 0
1, 115152, Pitch_bend_c, 7, 11776
1, 115164, Pitch_bend_c, 7, 9344
1, 115172, Pitch_bend_c, 7, 8192
1, 115192, Note_off_c, 6, 60, 0
1, 115196, Note_on_c, 2, 50, 107
1, 115196, Note_on_c, 2, 57, 107
1, 115196, Note_on_c, 2, 62, 107
1, 115196, Note_on_c, 2, 66, 100
1, 115196, Note_on_c, 6, 62, 82
1, 115196, Note_on_c, 6, 66, 69
1, 115196, Note_on_c, 9, 36, 121
1, 115196, Note_on_c, 9, 70, 104
1, 115196, Note_on_c, 1, 38, 123
1, 115244, Note_off_c, 9, 70, 0
1, 115292, Note_on_c, 9, 70, 94
1, 115316, Note_off_c, 9, 36, 0
1, 115344, Note_off_c, 9, 70, 0
1, 115388, Note_on_c, 9, 69, 111
1, 115388, Note_on_c, 9, 70, 81
1, 115432, Note_off_c, 9, 69, 0
1, 115448, Note_off_c, 9, 70, 0
1, 115484, Note_on_c, 9, 69, 70
1, 115540, Note_off_c, 9, 69, 0
1, 115580, Note_on_c, 9, 38, 121
1, 115580, Note_on_c, 9, 70, 85
1, 115636, Note_off_c, 9, 70, 0
1, 115664, Note_off_c, 9, 38, 0
1, 115772, Note_on_c, 9, 36, 121
1, 115772, Note_on_c, 9, 70, 71
1, 115772, Note_on_c, 9, 81, 116
1, 115828, Note_off_c, 9, 70, 0
1, 115832, Note_off_c, 9, 36, 0
1, 115832, Note_off_c, 9, 81, 0
1, 115964, Note_on_c, 9, 36, 121
1, 115964, Note_on_c, 9, 42, 97
1, 115964, Note_on_c, 9, 70, 104
1, 115996, Note_off_c, 9, 42, 0
1, 116012, Note_off_c, 9, 70, 0
1, 116024, Note_off_c, 9, 36, 0
1, 116060, Note_on_c, 9, 70, 92
1, 116104, Note_off_c, 9, 70, 0
1, 116156, Note_on_c, 9, 36, 116
1, 116156, Note_on_c, 9, 46, 107
1, 116156, Note_on_c, 9, 69, 111
1, 116156, Note_on_c, 9, 70, 104
1, 116188, Note_off_c, 9, 36, 0
1, 116204, Note_off_c, 9, 46, 0
1, 116204, Note_off_c, 9, 69, 0
1, 116204, Note_off_c, 9, 70, 0
1, 116252, Note_on_c, 9, 69, 74
1, 116252, Note_on_c, 9, 70, 92
1, 116288, Note_off_c, 9, 69, 0
1, 116296, Note_off_c, 9, 70, 0
1, 116348, Note_on_c, 2, 57, 113
1, 116348, Note_on_c, 9, 38, 121
1, 116348, Note_on_c, 9, 42, 89
1, 116348, Note_on_c, 9, 70, 104
1, 116384, Note_off_c, 9, 42, 0
1, 116396, Note_off_c, 9, 70, 0
1, 116440, Note_off_c, 2, 57, 0
1, 116444, Note_on_c, 2, 58, 103
1, 116444, Note_on_c, 9, 70, 104
1, 116468, Note_off_c, 9, 38, 0
1, 116492, Note_off_c, 9, 70, 0
1, 116532, Note_off_c, 2, 58, 0
1, 116540, Note_on_c, 2, 55, 107
1, 116540, Note_on_c, 9, 36, 111
1, 116540, Note_on_c, 9, 46, 104
1, 116540, Note_on_c, 9, 70, 100
1, 116540, Note_on_c, 9, 81, 111
1, 116584, Note_off_c, 9, 46, 0
1, 116592, Note_off_c, 9, 70, 0
1, 116600, Note_off_c, 9, 36, 0
1, 116600, Note_off_c, 9, 81, 0
1, 116632, Note_off_c, 2, 55, 0
1, 116636, Note_on_c, 2, 53, 105
1, 116636, Note_on_c, 9, 70, 94
1, 116656, Note_off_c, 2, 66, 0
1, 116664, Note_off_c, 6, 66, 0
1, 116668, Note_off_c, 2, 62, 0
1, 116676, Note_off_c, 2, 57, 0
1, 116684, Note_off_c, 9, 70, 0
1, 116700, Note_off_c, 2, 50, 0
1, 116700, Note_off_c, 1, 38, 0
1, 116716, Note_off_c, 2, 53, 0
1, 116728, Note_off_c, 6, 62, 0
1, 116732, Note_on_c, 2, 43, 109
1, 116732, Note_on_c, 2, 53, 102
1, 116732, Note_on_c, 2, 58, 105
1, 116732, Note_on_c, 2, 62, 105
1, 116732, Note_on_c, 6, 60, 82
1, 116732, Note_on_c, 9, 36, 121
1, 116732, Note_on_c, 9, 70, 97
1, 116732, Note_on_c, 1, 31, 125
1, 116788, Note_off_c, 9, 70, 0
1, 116852, Note_off_c, 9, 36, 0
1, 116892, Note_off_c, 2, 62, 0
1, 116896, Note_off_c, 2, 53, 0
1, 116900, Note_off_c, 2, 58, 0
1, 116920, Note_off_c, 2, 43, 0
1, 116924, Note_on_c, 9, 69, 121
1, 116924, Note_on_c, 9, 70, 83
1, 116932, Note_off_c, 1, 31, 0
1, 116960, Note_off_c, 9, 69, 0
1, 116972, Note_off_c, 9, 70, 0
1, 117020, Note_on_c, 9, 69, 70
1, 117052, Note_off_c, 9, 69, 0
1, 117116, Note_on_c, 9, 38, 121
1, 117116, Note_on_c, 9, 70, 75
1, 117160, Note_off_c, 9, 70, 0
1, 117200, Note_off_c, 9, 38, 0
1, 117308, Note_on_c, 2, 41, 107
1, 117308, Note_on_c, 2, 53, 105
1, 117308, Note_on_c, 2, 57, 109
1, 117308, Note_on_c, 2, 60, 107
1, 117308, Note_on_c, 9, 36, 121
1, 117308, Note_on_c, 9, 70, 85
1, 117308, Note_on_c, 9, 81, 111
1, 117308, Note_on_c, 1, 29, 121
1, 117352, Note_off_c, 9, 70, 0
1, 117368, Note_off_c, 9, 36, 0
1, 117368, Note_off_c, 9, 81, 0
1, 117440, Note_off_c, 2, 53, 0
1, 117472, Note_off_c, 2, 41, 0
1, 117476, Note_off_c, 2, 60, 0
1, 117484, Note_off_c, 2, 57, 0
1, 117484, Note_off_c, 1, 29, 0
1, 117500, Note_on_c, 2, 43, 105
1, 117500, Note_on_c, 2, 53, 103
1, 117500, Note_on_c, 2, 58, 95
1, 117500, Note_on_c, 2, 62, 107
1, 117500, Note_on_c, 9, 36, 121
1, 117500, Note_on_c, 9, 70, 100
1, 117500, Note_on_c, 1, 31, 121
1, 117544, Note_off_c, 9, 70, 0
1, 117560, Note_off_c, 9, 36, 0
1, 117596, Note_on_c, 9, 70, 89
1, 117636, Note_off_c, 9, 70, 0
1, 117648, Note_off_c, 2, 58, 0
1, 117652, Note_off_c, 2, 62, 0
1, 117656, Note_off_c, 2, 53, 0
1, 117672, Note_off_c, 2, 43, 0
1, 117692, Note_on_c, 9, 69, 116
1, 117692, Note_on_c, 9, 70, 72
1, 117708, Note_off_c, 1, 31, 0
1, 117732, Note_off_c, 9, 70, 0
1, 117740, Note_off_c, 9, 69, 0
1, 117788, Note_on_c, 9, 36, 116
1, 117788, Note_on_c, 9, 69, 79
1, 117820, Note_off_c, 9, 36, 0
1, 117828, Note_off_c, 9, 69, 0
1, 117884, Note_on_c, 9, 38, 121
1, 117884, Note_on_c, 9, 70, 94
1, 117928, Note_off_c, 9, 70, 0
1, 118004, Note_off_c, 9, 38, 0
1, 118076, Note_on_c, 9, 36, 111
1, 118076, Note_on_c, 9, 70, 94
1, 118076, Note_on_c, 9, 81, 107
1, 118128, Note_off_c, 9, 70, 0
1, 118136, Note_off_c, 9, 36, 0
1, 118140, Note_off_c, 9, 81, 0
1, 118268, Note_on_c, 2, 48, 109
1, 118268, Note_on_c, 2, 55, 105
1, 118268, Note_on_c, 2, 60, 107
1, 118268, Note_on_c, 2, 64, 103
1, 118268, Note_on_c, 9, 36, 121
1, 118268, Note_on_c, 9, 70, 104
1, 118268, Note_on_c, 1, 36, 123
1, 118316, Note_off_c, 9, 70, 0
1, 118364, Note_on_c, 9, 70, 94
1, 118388, Note_off_c, 9, 36, 0
1, 118416, Note_off_c, 9, 70, 0
1, 118460, Note_on_c, 9, 69, 111
1, 118460, Note_on_c, 9, 70, 81
1, 118504, Note_off_c, 9, 69, 0
1, 118520, Note_off_c, 9, 70, 0
1, 118556, Note_on_c, 9, 69, 70
1, 118612, Note_off_c, 9, 69, 0
1, 118652, Note_on_c, 9, 38, 121
1, 118652, Note_on_c, 9, 70, 85
1, 118708, Note_off_c, 9, 70, 0
1, 118736, Note_off_c, 9, 38, 0
1, 118844, Note_on_c, 9, 36, 121
1, 118844, Note_on_c, 9, 70, 71
1, 118844, Note_on_c, 9, 81, 116
1, 118900, Note_off_c, 9, 70, 0
1, 118904, Note_off_c, 9, 36, 0
1, 118904, Note_off_c, 9, 81, 0
1, 119036, Note_on_c, 9, 36, 121
1, 119036, Note_on_c, 9, 42, 97
1, 119036, Note_on_c, 9, 70, 104
1, 119068, Note_off_c, 9, 42, 0
1, 119084, Note_off_c, 9, 70, 0
1, 119096, Note_off_c, 9, 36, 0
1, 119132, Note_on_c, 9, 70, 92
1, 119176, Note_off_c, 9, 70, 0
1, 119228, Note_on_c, 9, 36, 116
1, 119228, Note_on_c, 9, 46, 107
1, 119228, Note_on_c, 9, 69, 111
1, 119228, Note_on_c, 9, 70, 104
1, 119260, Note_off_c, 9, 36, 0
1, 119276, Note_off_c, 9, 46, 0
1, 119276, Note_off_c, 9, 69, 0
1, 119276, Note_off_c, 9, 70, 0
1, 119324, Note_on_c, 9, 69, 74
1, 119324, Note_on_c, 9, 70, 92
1, 119360, Note_off_c, 9, 69, 0
1, 119368, Note_off_c, 9, 70, 0
1, 119416, Note_off_c, 6, 60, 64
1, 119420, Note_on_c, 6, 62, 82
1, 119420, Note_on_c, 9, 38, 121
1, 119420, Note_on_c, 9, 42, 89
1, 119420, Note_on_c, 9, 70, 104
1, 119456, Note_off_c, 9, 42, 0
1, 119468, Note_off_c, 9, 70, 0
1, 119516, Note_on_c, 9, 70, 104
1, 119540, Note_off_c, 9, 38, 0
1, 119564, Note_off_c, 9, 70, 0
1, 119612, Note_on_c, 9, 36, 111
1, 119612, Note_on_c, 9, 46, 104
1, 119612, Note_on_c, 9, 70, 100
1, 119612, Note_on_c, 9, 81, 111
1, 119644, Note_off_c, 2, 64, 0
1, 119656, Note_off_c, 9, 46, 0
1, 119664, Note_off_c, 9, 70, 0
1, 119672, Note_off_c, 9, 36, 0
1, 119672, Note_off_c, 9, 81, 0
1, 119708, Note_on_c, 9, 70, 94
1, 119712, Note_off_c, 2, 60, 0
1, 119724, Note_off_c, 2, 55, 0
1, 119756, Note_off_c, 2, 48, 0
1, 119756, Note_off_c, 9, 70, 0
1, 119772, Note_off_c, 1, 36, 0
1, 119800, Note_off_c, 6, 62, 0
1, 119804, Note_on_c, 2, 43, 112
1, 119804, Note_on_c, 2, 53, 103
1, 119804, Note_on_c, 2, 58, 103
1, 119804, Note_on_c, 2, 62, 107
1, 119804, Note_on_c, 6, 60, 83
1, 119804, Note_on_c, 9, 36, 121
1, 119804, Note_on_c, 9, 70, 97
1, 119804, Note_on_c, 1, 31, 125
1, 119860, Note_off_c, 9, 70, 0
1, 119924, Note_off_c, 9, 36, 0
1, 119988, Note_off_c, 2, 53, 0
1, 119988, Note_off_c, 2, 62, 0
1, 119996, Note_on_c, 9, 69, 121
1, 119996, Note_on_c, 9, 70, 83
1, 120000, Note_off_c, 2, 58, 0
1, 120004, Note_off_c, 1, 31, 0
1, 120008, Note_off_c, 2, 43, 0
1, 120032, Note_off_c, 9, 69, 0
1, 120044, Note_off_c, 9, 70, 0
1, 120092, Note_on_c, 9, 69, 70
1, 120124, Note_off_c, 9, 69, 0
1, 120188, Note_on_c, 9, 38, 121
1, 120188, Note_on_c, 9, 70, 75
1, 120232, Note_off_c, 9, 70, 0
1, 120272, Note_off_c, 9, 38, 0
1, 120380, Note_on_c, 2, 41, 103
1, 120380, Note_on_c, 2, 53, 105
1, 120380, Note_on_c, 2, 57, 107
1, 120380, Note_on_c, 2, 60, 105
1, 120380, Note_on_c, 9, 36, 121
1, 120380, Note_on_c, 9, 70, 85
1, 120380, Note_on_c, 9, 81, 111
1, 120380, Note_on_c, 1, 29, 121
1, 120424, Note_off_c, 9, 70, 0
1, 120440, Note_off_c, 9, 36, 0
1, 120440, Note_off_c, 9, 81, 0
1, 120512, Note_off_c, 2, 53, 0
1, 120556, Note_off_c, 1, 29, 0
1, 120560, Note_off_c, 2, 60, 0
1, 120568, Note_off_c, 2, 41, 0
1, 120568, Note_off_c, 2, 57, 0
1, 120572, Note_on_c, 2, 43, 112
1, 120572, Note_on_c, 2, 53, 103
1, 120572, Note_on_c, 2, 58, 95
1, 120572, Note_on_c, 2, 62, 105
1, 120572, Note_on_c, 9, 36, 121
1, 120572, Note_on_c, 9, 70, 100
1, 120572, Note_on_c, 1, 31, 121
1, 120616, Note_off_c, 9, 70, 0
1, 120632, Note_off_c, 9, 36, 0
1, 120668, Note_on_c, 9, 70, 89
1, 120708, Note_off_c, 9, 70, 0
1, 120728, Note_off_c, 2, 53, 0
1, 120728, Note_off_c, 2, 62, 0
1, 120736, Note_off_c, 2, 58, 0
1, 120756, Note_off_c, 2, 43, 0
1, 120764, Note_on_c, 9, 69, 116
1, 120764, Note_on_c, 9, 70, 72
1, 120780, Note_off_c, 1, 31, 0
1, 120804, Note_off_c, 9, 70, 0
1, 120812, Note_off_c, 9, 69, 0
1, 120860, Note_on_c, 9, 36, 116
1, 120860, Note_on_c, 9, 69, 79
1, 120892, Note_off_c, 9, 36, 0
1, 120900, Note_off_c, 9, 69, 0
1, 120956, Note_on_c, 9, 38, 121
1, 120956, Note_on_c, 9, 70, 94
1, 121000, Note_off_c, 9, 70, 0
1, 121076, Note_off_c, 9, 38, 0
1, 121148, Note_on_c, 9, 36, 111
1, 121148, Note_on_c, 9, 70, 94
1, 121148, Note_on_c, 9, 81, 107
1, 121200, Note_off_c, 9, 70, 0
1, 121208, Note_off_c, 9, 36, 0
1, 121212, Note_off_c, 9, 81, 0
1, 121336, Note_off_c, 6, 60, 0
1, 121340, Note_on_c, 2, 50, 107
1, 121340, Note_on_c, 2, 57, 107
1, 121340, Note_on_c, 2, 62, 107
1, 121340, Note_on_c, 2, 66, 100
1, 121340, Note_on_c, 6, 62, 82
1, 121340, Note_on_c, 6, 66, 69
1, 121340, Note_on_c, 9, 36, 121
1, 121340, Note_on_c, 9, 70, 104
1, 121340, Note_on_c, 1, 38, 123
1, 121388, Note_off_c, 9, 70, 0
1, 121436, Note_on_c, 9, 70, 94
1, 121460, Note_off_c, 9, 36, 0
1, 121488, Note_off_c, 9, 70, 0
1, 121532, Note_on_c, 9, 69, 111
1, 121532, Note_on_c, 9, 70, 81
1, 121576, Note_off_c, 9, 69, 0
1, 121592, Note_off_c, 9, 70, 0
1, 121628, Note_on_c, 9, 69, 70
1, 121684, Note_off_c, 9, 69, 0
1, 121724, Note_on_c, 9, 38, 121
1, 121724, Note_on_c, 9, 70, 85
1, 121780, Note_off_c, 9, 70, 0
1, 121808, Note_off_c, 9, 38, 0
1, 121916, Note_on_c, 9, 36, 121
1, 121916, Note_on_c, 9, 70, 71
1, 121916, Note_on_c, 9, 81, 116
1, 121972, Note_off_c, 9, 70, 0
1, 121976, Note_off_c, 9, 36, 0
1, 121976, Note_off_c, 9, 81, 0
1, 122108, Note_on_c, 9, 36, 121
1, 122108, Note_on_c, 9, 42, 97
1, 122108, Note_on_c, 9, 70, 104
1, 122140, Note_off_c, 9, 42, 0
1, 122156, Note_off_c, 9, 70, 0
1, 122168, Note_off_c, 9, 36, 0
1, 122204, Note_on_c, 9, 70, 92
1, 122248, Note_off_c, 9, 70, 0
1, 122300, Note_on_c, 9, 36, 116
1, 122300, Note_on_c, 9, 46, 107
1, 122300, Note_on_c, 9, 69, 111
1, 122300, Note_on_c, 9, 70, 104
1, 122332, Note_off_c, 9, 36, 0
1, 122348, Note_off_c, 9, 46, 0
1, 122348, Note_off_c, 9, 69, 0
1, 122348, Note_off_c, 9, 70, 0
1, 122396, Note_on_c, 9, 69, 74
1, 122396, Note_on_c, 9, 70, 92
1, 122432, Note_off_c, 9, 69, 0
1, 122440, Note_off_c, 9, 70, 0
1, 122492, Note_on_c, 2, 57, 113
1, 122492, Note_on_c, 9, 38, 121
1, 122492, Note_on_c, 9, 42, 89
1, 122492, Note_on_c, 9, 70, 104
1, 122528, Note_off_c, 9, 42, 0
1, 122540, Note_off_c, 9, 70, 0
1, 122584, Note_off_c, 2, 57, 0
1, 122588, Note_on_c, 2, 58, 103
1, 122588, Note_on_c, 9, 70, 104
1, 122612, Note_off_c, 9, 38, 0
1, 122636, Note_off_c, 9, 70, 0
1, 122676, Note_off_c, 2, 58, 0
1, 122684, Note_on_c, 2, 55, 107
1, 122684, Note_on_c, 9, 36, 111
1, 122684, Note_on_c, 9, 46, 104
1, 122684, Note_on_c, 9, 70, 100
1, 122684, Note_on_c, 9, 81, 111
1, 122728, Note_off_c, 9, 46, 0
1, 122736, Note_off_c, 9, 70, 0
1, 122744, Note_off_c, 9, 36, 0
1, 122744, Note_off_c, 9, 81, 0
1, 122776, Note_off_c, 2, 55, 0
1, 122780, Note_on_c, 2, 53, 105
1, 122780, Note_on_c, 9, 70, 94
1, 122800, Note_off_c, 2, 66, 0
1, 122808, Note_off_c, 6, 66, 0
1, 122812, Note_off_c, 2, 62, 0
1, 122820, Note_off_c, 2, 57, 0
1, 122828, Note_off_c, 9, 70, 0
1, 122844, Note_off_c, 2, 50, 0
1, 122844, Note_off_c, 1, 38, 0
1, 122860, Note_off_c, 2, 53, 0
1, 122872, Note_off_c, 6, 62, 0
1, 122872, End_track
0, 0, End_of_file
