0, 0, Header, 1, 14, 480
1, 0, Start_track
1, 0, Title_t, "Budapest"
1, 0, Text_t, "My \012"
1, 0, Time_signature, 4, 2, 24, 8
1, 0, Key_signature, 0, "major"
1, 0, Tempo, 937500
1, 0, End_track
2, 0, Start_track
2, 0, Title_t, "Track 1"
2, 3840, Text_t, "\\George Ezra"
2, 4320, Text_t, "/Budapest"
2, 7800, Text_t, "\\My"
2, 7860, Text_t, "house"
2, 8040, Text_t, "in"
2, 8160, Text_t, "Budapest"
2, 8520, Text_t, "my ,"
2, 8760, Text_t, "/My"
2, 8820, Text_t, "hidden"
2, 9120, Text_t, "treasure"
2, 9360, Text_t, "chest"
2, 9840, Text_t, "\\Golden"
2, 10080, Text_t, "grand"
2, 10200, Text_t, "piano"
2, 10680, Text_t, "/My"
2, 10800, Text_t, "beautiful"
2, 11160, Text_t, "Castillo"
2, 11520, Text_t, "\\You-ooh ,"
2, 12480, Text_t, "You-ooh"
2, 13080, Text_t, "/I'd"
2, 13200, Text_t, "leave"
2, 13320, Text_t, "it"
2, 13440, Text_t, "all"
2, 15480, Text_t, "\\My"
2, 15600, Text_t, "acres"
2, 15840, Text_t, "of"
2, 15960, Text_t, "a"
2, 16080, Text_t, "land"
2, 16440, Text_t, "/That"
2, 16560, Text_t, "I've"
2, 16680, Text_t, "achieved"
2, 17400, Text_t, "\\It"
2, 17520, Text_t, "may"
2, 17640, Text_t, "be"
2, 17760, Text_t, "hard"
2, 17880, Text_t, "for"
2, 18000, Text_t, "you"
2, 18120, Text_t, "to"
2, 18360, Text_t, "/Stop"
2, 18480, Text_t, "and"
2, 18600, Text_t, "believe"
2, 18960, Text_t, "but"
2, 19080, Text_t, "for"
2, 19200, Text_t, "\\You-ooh"
2, 20160, Text_t, "You-ooh"
2, 20760, Text_t, "/I'd"
2, 20880, Text_t, "leave"
2, 21000, Text_t, "it"
2, 21120, Text_t, "all"
2, 22800, Text_t, "\\Over"
2, 23040, Text_t, "You-ooh"
2, 24000, Text_t, "You-ooh"
2, 24600, Text_t, "/I'd"
2, 24720, Text_t, "leave"
2, 24840, Text_t, "it"
2, 24960, Text_t, "all"
2, 26880, Text_t, "\\Give"
2, 27000, Text_t, "me"
2, 27120, Text_t, "one"
2, 27240, Text_t, "good"
2, 27360, Text_t, "reason"
2, 27600, Text_t, "/Why"
2, 27720, Text_t, "I"
2, 27960, Text_t, "should"
2, 28080, Text_t, "never"
2, 28200, Text_t, "make"
2, 28560, Text_t, "a"
2, 28680, Text_t, "change"
2, 30720, Text_t, "\\Baby"
2, 30960, Text_t, "if"
2, 31080, Text_t, "you"
2, 31200, Text_t, "hold"
2, 31320, Text_t, "me"
2, 31440, Text_t, "/Then"
2, 31560, Text_t, "all"
2, 31800, Text_t, "of"
2, 31920, Text_t, "this"
2, 32040, Text_t, "will"
2, 32160, Text_t, "go"
2, 32520, Text_t, "away"
2, 34680, Text_t, "\\My"
2, 34800, Text_t, "many"
2, 35040, Text_t, "artifacts"
2, 35640, Text_t, "/The"
2, 35760, Text_t, "list"
2, 35880, Text_t, "goes"
2, 36000, Text_t, "on"
2, 36600, Text_t, "\\If"
2, 36720, Text_t, "you"
2, 36840, Text_t, "just"
2, 36960, Text_t, "say"
2, 37080, Text_t, "the"
2, 37200, Text_t, "words"
2, 37320, Text_t, "I"
2, 37560, Text_t, "/I'll"
2, 37680, Text_t, "up"
2, 37800, Text_t, "and"
2, 37920, Text_t, "run"
2, 38160, Text_t, "\\Oh"
2, 38280, Text_t, "to"
2, 38400, Text_t, "You-ooh"
2, 39360, Text_t, "You-ooh"
2, 39960, Text_t, "/I'd"
2, 40080, Text_t, "leave"
2, 40200, Text_t, "it"
2, 40320, Text_t, "all"
2, 42000, Text_t, "\\Oh"
2, 42120, Text_t, "to"
2, 42240, Text_t, "You-ooh"
2, 43200, Text_t, "You-ooh"
2, 43800, Text_t, "/I'd"
2, 43920, Text_t, "leave"
2, 44040, Text_t, "it"
2, 44160, Text_t, "all"
2, 46080, Text_t, "\\Give"
2, 46200, Text_t, "me"
2, 46320, Text_t, "one"
2, 46440, Text_t, "good"
2, 46560, Text_t, "reason"
2, 46800, Text_t, "/Why"
2, 46920, Text_t, "I"
2, 47160, Text_t, "should"
2, 47280, Text_t, "never"
2, 47400, Text_t, "make"
2, 47760, Text_t, "a"
2, 47880, Text_t, "change"
2, 49920, Text_t, "\\Baby"
2, 50160, Text_t, "if"
2, 50280, Text_t, "you"
2, 50400, Text_t, "hold"
2, 50520, Text_t, "me"
2, 50640, Text_t, "/Then"
2, 50760, Text_t, "all"
2, 51000, Text_t, "of"
2, 51120, Text_t, "this"
2, 51240, Text_t, "will"
2, 51360, Text_t, "go"
2, 51720, Text_t, "away"
2, 53760, Text_t, "\\Give"
2, 53880, Text_t, "me"
2, 54000, Text_t, "one"
2, 54120, Text_t, "good"
2, 54240, Text_t, "reason"
2, 54480, Text_t, "/Why"
2, 54600, Text_t, "I"
2, 54840, Text_t, "should"
2, 54960, Text_t, "never"
2, 55080, Text_t, "make"
2, 55440, Text_t, "a"
2, 55560, Text_t, "change"
2, 57600, Text_t, "\\Baby"
2, 57840, Text_t, "if"
2, 57960, Text_t, "you"
2, 58080, Text_t, "hold"
2, 58200, Text_t, "me"
2, 58320, Text_t, "/Then"
2, 58440, Text_t, "all"
2, 58680, Text_t, "of"
2, 58800, Text_t, "this"
2, 58920, Text_t, "will"
2, 59040, Text_t, "go"
2, 59400, Text_t, "away"
2, 59520, Text_t, "\\Instrumental"
2, 69240, Text_t, "/My"
2, 69360, Text_t, "friends"
2, 69480, Text_t, "and"
2, 69600, Text_t, "family"
2, 69960, Text_t, "they"
2, 70200, Text_t, "\\Don't"
2, 70320, Text_t, "understand"
2, 71160, Text_t, "/They"
2, 71280, Text_t, "fear"
2, 71400, Text_t, "they'll"
2, 71520, Text_t, "lose"
2, 71640, Text_t, "so"
2, 71760, Text_t, "much"
2, 71880, Text_t, "if"
2, 72120, Text_t, "\\You"
2, 72240, Text_t, "take"
2, 72360, Text_t, "my"
2, 72480, Text_t, "hand"
2, 72720, Text_t, "/But"
2, 72840, Text_t, "for"
2, 72960, Text_t, "You-ooh"
2, 73920, Text_t, "You-ooh"
2, 74520, Text_t, "\\I'd"
2, 74640, Text_t, "lose"
2, 74760, Text_t, "it"
2, 74880, Text_t, "all"
2, 76560, Text_t, "\\Over"
2, 76800, Text_t, "You-ooh"
2, 77760, Text_t, "You-ooh"
2, 78360, Text_t, "/I'd"
2, 78480, Text_t, "leave"
2, 78600, Text_t, "it"
2, 78720, Text_t, "all"
2, 80640, Text_t, "\\Give"
2, 80760, Text_t, "me"
2, 80880, Text_t, "one"
2, 81000, Text_t, "good"
2, 81120, Text_t, "reason"
2, 81360, Text_t, "/Why"
2, 81480, Text_t, "I"
2, 81720, Text_t, "should"
2, 81840, Text_t, "never"
2, 81960, Text_t, "make"
2, 82320, Text_t, "a"
2, 82440, Text_t, "change"
2, 84480, Text_t, "\\Baby"
2, 84720, Text_t, "if"
2, 84840, Text_t, "you"
2, 84960, Text_t, "hold"
2, 85080, Text_t, "me"
2, 85200, Text_t, "/Then"
2, 85320, Text_t, "all"
2, 85560, Text_t, "of"
2, 85680, Text_t, "this"
2, 85800, Text_t, "will"
2, 85920, Text_t, "go"
2, 86280, Text_t, "away"
2, 88320, Text_t, "\\Give"
2, 88440, Text_t, "me"
2, 88560, Text_t, "one"
2, 88680, Text_t, "good"
2, 88800, Text_t, "reason"
2, 89040, Text_t, "/Why"
2, 89160, Text_t, "I"
2, 89400, Text_t, "should"
2, 89520, Text_t, "never"
2, 89640, Text_t, "make"
2, 90000, Text_t, "a"
2, 90120, Text_t, "change"
2, 92160, Text_t, "\\Baby"
2, 92400, Text_t, "if"
2, 92520, Text_t, "you"
2, 92640, Text_t, "hold"
2, 92760, Text_t, "me"
2, 92880, Text_t, "/Then"
2, 93000, Text_t, "all"
2, 93240, Text_t, "of"
2, 93360, Text_t, "this"
2, 93480, Text_t, "will"
2, 93600, Text_t, "go"
2, 93960, Text_t, "away"
2, 96120, Text_t, "\\My"
2, 96180, Text_t, "house"
2, 96360, Text_t, "in"
2, 96480, Text_t, "Budapest"
2, 96840, Text_t, "my ,"
2, 97080, Text_t, "/My"
2, 97140, Text_t, "hidden"
2, 97440, Text_t, "treasure"
2, 97680, Text_t, "chest"
2, 98160, Text_t, "\\Golden"
2, 98400, Text_t, "grand"
2, 98520, Text_t, "piano"
2, 99000, Text_t, "/My"
2, 99120, Text_t, "beautiful"
2, 99480, Text_t, "Castillo"
2, 99840, Text_t, "\\You-ooh ,"
2, 100800, Text_t, "You-ooh"
2, 101400, Text_t, "/I'd"
2, 101520, Text_t, "leave"
2, 101640, Text_t, "it"
2, 101760, Text_t, "all"
2, 103440, Text_t, "\\Oh"
2, 103560, Text_t, "for"
2, 103680, Text_t, "You-ooh"
2, 104640, Text_t, "You-ooh"
2, 105240, Text_t, "/I'd"
2, 105360, Text_t, "leave"
2, 105480, Text_t, "it"
2, 105600, Text_t, "all"
2, 105720, Text_t, "\\Midi by Peter Grant-Oliver"
2, 105840, Text_t, "/petergrantoliver@yahoo.com"
2, 105840, End_track
3, 0, Start_track
3, 0, Title_t, "Bass"
3, 0, Program_c, 1, 32
3, 3840, Note_on_c, 1, 29, 100
3, 4176, Note_on_c, 1, 29, 0
3, 4200, Note_on_c, 1, 29, 100
3, 4306, Note_on_c, 1, 29, 0
3, 4320, Note_on_c, 1, 29, 100
3, 4772, Note_on_c, 1, 29, 0
3, 4800, Note_on_c, 1, 29, 100
3, 5131, Note_on_c, 1, 29, 0
3, 5160, Note_on_c, 1, 29, 100
3, 5266, Note_on_c, 1, 29, 0
3, 5280, Note_on_c, 1, 29, 100
3, 5728, Note_on_c, 1, 29, 0
3, 5760, Note_on_c, 1, 29, 100
3, 6096, Note_on_c, 1, 29, 0
3, 6120, Note_on_c, 1, 29, 100
3, 6226, Note_on_c, 1, 29, 0
3, 6240, Note_on_c, 1, 29, 100
3, 6692, Note_on_c, 1, 29, 0
3, 6720, Note_on_c, 1, 29, 100
3, 7051, Note_on_c, 1, 29, 0
3, 7080, Note_on_c, 1, 29, 100
3, 7186, Note_on_c, 1, 29, 0
3, 7200, Note_on_c, 1, 29, 100
3, 7648, Note_on_c, 1, 29, 0
3, 7680, Note_on_c, 1, 29, 100
3, 8016, Note_on_c, 1, 29, 0
3, 8040, Note_on_c, 1, 29, 100
3, 8146, Note_on_c, 1, 29, 0
3, 8160, Note_on_c, 1, 29, 100
3, 8612, Note_on_c, 1, 29, 0
3, 8640, Note_on_c, 1, 29, 100
3, 8971, Note_on_c, 1, 29, 0
3, 9000, Note_on_c, 1, 29, 100
3, 9106, Note_on_c, 1, 29, 0
3, 9120, Note_on_c, 1, 29, 100
3, 9568, Note_on_c, 1, 29, 0
3, 9600, Note_on_c, 1, 29, 100
3, 9934, Note_on_c, 1, 29, 0
3, 9960, Note_on_c, 1, 29, 100
3, 10068, Note_on_c, 1, 29, 0
3, 10080, Note_on_c, 1, 29, 100
3, 10529, Note_on_c, 1, 29, 0
3, 10560, Note_on_c, 1, 29, 100
3, 10890, Note_on_c, 1, 29, 0
3, 10920, Note_on_c, 1, 29, 100
3, 11026, Note_on_c, 1, 29, 0
3, 11040, Note_on_c, 1, 29, 100
3, 11240, Note_on_c, 1, 29, 0
3, 11280, Note_on_c, 1, 29, 100
3, 11398, Note_on_c, 1, 29, 0
3, 11400, Note_on_c, 1, 33, 100
3, 11518, Note_on_c, 1, 33, 0
3, 11520, Note_on_c, 1, 34, 100
3, 11818, Note_on_c, 1, 34, 0
3, 11880, Note_on_c, 1, 34, 100
3, 12418, Note_on_c, 1, 34, 0
3, 12480, Note_on_c, 1, 34, 100
3, 12778, Note_on_c, 1, 34, 0
3, 12840, Note_on_c, 1, 34, 100
3, 13138, Note_on_c, 1, 34, 0
3, 13200, Note_on_c, 1, 34, 100
3, 13318, Note_on_c, 1, 34, 0
3, 13320, Note_on_c, 1, 31, 100
3, 13438, Note_on_c, 1, 31, 0
3, 13440, Note_on_c, 1, 29, 100
3, 13776, Note_on_c, 1, 29, 0
3, 13800, Note_on_c, 1, 29, 100
3, 13906, Note_on_c, 1, 29, 0
3, 13920, Note_on_c, 1, 29, 100
3, 14372, Note_on_c, 1, 29, 0
3, 14400, Note_on_c, 1, 29, 100
3, 14731, Note_on_c, 1, 29, 0
3, 14760, Note_on_c, 1, 29, 100
3, 14866, Note_on_c, 1, 29, 0
3, 14880, Note_on_c, 1, 29, 100
3, 15328, Note_on_c, 1, 29, 0
3, 15360, Note_on_c, 1, 29, 100
3, 15696, Note_on_c, 1, 29, 0
3, 15720, Note_on_c, 1, 29, 100
3, 15826, Note_on_c, 1, 29, 0
3, 15840, Note_on_c, 1, 29, 100
3, 16292, Note_on_c, 1, 29, 0
3, 16320, Note_on_c, 1, 29, 100
3, 16651, Note_on_c, 1, 29, 0
3, 16680, Note_on_c, 1, 29, 100
3, 16786, Note_on_c, 1, 29, 0
3, 16800, Note_on_c, 1, 29, 100
3, 17248, Note_on_c, 1, 29, 0
3, 17280, Note_on_c, 1, 29, 100
3, 17614, Note_on_c, 1, 29, 0
3, 17640, Note_on_c, 1, 29, 100
3, 17748, Note_on_c, 1, 29, 0
3, 17760, Note_on_c, 1, 29, 100
3, 18209, Note_on_c, 1, 29, 0
3, 18240, Note_on_c, 1, 29, 100
3, 18570, Note_on_c, 1, 29, 0
3, 18600, Note_on_c, 1, 29, 100
3, 18706, Note_on_c, 1, 29, 0
3, 18720, Note_on_c, 1, 29, 100
3, 18920, Note_on_c, 1, 29, 0
3, 18960, Note_on_c, 1, 29, 100
3, 19078, Note_on_c, 1, 29, 0
3, 19080, Note_on_c, 1, 33, 100
3, 19198, Note_on_c, 1, 33, 0
3, 19200, Note_on_c, 1, 34, 100
3, 19498, Note_on_c, 1, 34, 0
3, 19560, Note_on_c, 1, 34, 100
3, 20098, Note_on_c, 1, 34, 0
3, 20160, Note_on_c, 1, 34, 100
3, 20458, Note_on_c, 1, 34, 0
3, 20520, Note_on_c, 1, 34, 100
3, 20818, Note_on_c, 1, 34, 0
3, 20880, Note_on_c, 1, 34, 100
3, 20998, Note_on_c, 1, 34, 0
3, 21000, Note_on_c, 1, 31, 100
3, 21118, Note_on_c, 1, 31, 0
3, 21120, Note_on_c, 1, 29, 100
3, 21454, Note_on_c, 1, 29, 0
3, 21480, Note_on_c, 1, 29, 100
3, 21588, Note_on_c, 1, 29, 0
3, 21600, Note_on_c, 1, 29, 100
3, 22049, Note_on_c, 1, 29, 0
3, 22080, Note_on_c, 1, 29, 100
3, 22410, Note_on_c, 1, 29, 0
3, 22440, Note_on_c, 1, 29, 100
3, 22546, Note_on_c, 1, 29, 0
3, 22560, Note_on_c, 1, 29, 100
3, 22760, Note_on_c, 1, 29, 0
3, 22800, Note_on_c, 1, 29, 100
3, 22918, Note_on_c, 1, 29, 0
3, 22920, Note_on_c, 1, 33, 100
3, 23038, Note_on_c, 1, 33, 0
3, 23040, Note_on_c, 1, 34, 100
3, 23338, Note_on_c, 1, 34, 0
3, 23400, Note_on_c, 1, 34, 100
3, 23938, Note_on_c, 1, 34, 0
3, 24000, Note_on_c, 1, 34, 100
3, 24298, Note_on_c, 1, 34, 0
3, 24360, Note_on_c, 1, 34, 100
3, 24658, Note_on_c, 1, 34, 0
3, 24720, Note_on_c, 1, 34, 100
3, 24838, Note_on_c, 1, 34, 0
3, 24840, Note_on_c, 1, 31, 100
3, 24958, Note_on_c, 1, 31, 0
3, 24960, Note_on_c, 1, 29, 100
3, 25294, Note_on_c, 1, 29, 0
3, 25320, Note_on_c, 1, 29, 100
3, 25428, Note_on_c, 1, 29, 0
3, 25440, Note_on_c, 1, 29, 100
3, 25889, Note_on_c, 1, 29, 0
3, 25920, Note_on_c, 1, 29, 100
3, 26250, Note_on_c, 1, 29, 0
3, 26280, Note_on_c, 1, 29, 100
3, 26386, Note_on_c, 1, 29, 0
3, 26400, Note_on_c, 1, 29, 100
3, 26600, Note_on_c, 1, 29, 0
3, 26640, Note_on_c, 1, 29, 100
3, 26758, Note_on_c, 1, 29, 0
3, 26760, Note_on_c, 1, 31, 100
3, 26878, Note_on_c, 1, 31, 0
3, 26880, Note_on_c, 1, 36, 100
3, 27213, Note_on_c, 1, 36, 0
3, 27240, Note_on_c, 1, 36, 100
3, 27336, Note_on_c, 1, 36, 0
3, 27360, Note_on_c, 1, 36, 100
3, 27573, Note_on_c, 1, 36, 0
3, 27600, Note_on_c, 1, 36, 100
3, 27819, Note_on_c, 1, 36, 0
3, 27840, Note_on_c, 1, 34, 100
3, 28172, Note_on_c, 1, 34, 0
3, 28200, Note_on_c, 1, 34, 100
3, 28299, Note_on_c, 1, 34, 0
3, 28320, Note_on_c, 1, 34, 100
3, 28528, Note_on_c, 1, 34, 0
3, 28560, Note_on_c, 1, 34, 100
3, 28774, Note_on_c, 1, 34, 0
3, 28800, Note_on_c, 1, 29, 100
3, 29134, Note_on_c, 1, 29, 0
3, 29160, Note_on_c, 1, 29, 100
3, 29268, Note_on_c, 1, 29, 0
3, 29280, Note_on_c, 1, 29, 100
3, 29729, Note_on_c, 1, 29, 0
3, 29760, Note_on_c, 1, 29, 100
3, 30090, Note_on_c, 1, 29, 0
3, 30120, Note_on_c, 1, 29, 100
3, 30226, Note_on_c, 1, 29, 0
3, 30240, Note_on_c, 1, 29, 100
3, 30440, Note_on_c, 1, 29, 0
3, 30480, Note_on_c, 1, 29, 100
3, 30598, Note_on_c, 1, 29, 0
3, 30600, Note_on_c, 1, 31, 100
3, 30718, Note_on_c, 1, 31, 0
3, 30720, Note_on_c, 1, 36, 100
3, 31053, Note_on_c, 1, 36, 0
3, 31080, Note_on_c, 1, 36, 100
3, 31176, Note_on_c, 1, 36, 0
3, 31200, Note_on_c, 1, 36, 100
3, 31413, Note_on_c, 1, 36, 0
3, 31440, Note_on_c, 1, 36, 100
3, 31659, Note_on_c, 1, 36, 0
3, 31680, Note_on_c, 1, 34, 100
3, 32012, Note_on_c, 1, 34, 0
3, 32040, Note_on_c, 1, 34, 100
3, 32139, Note_on_c, 1, 34, 0
3, 32160, Note_on_c, 1, 34, 100
3, 32368, Note_on_c, 1, 34, 0
3, 32400, Note_on_c, 1, 34, 100
3, 32614, Note_on_c, 1, 34, 0
3, 32640, Note_on_c, 1, 29, 100
3, 32976, Note_on_c, 1, 29, 0
3, 33000, Note_on_c, 1, 29, 100
3, 33106, Note_on_c, 1, 29, 0
3, 33120, Note_on_c, 1, 29, 100
3, 33572, Note_on_c, 1, 29, 0
3, 33600, Note_on_c, 1, 29, 100
3, 33931, Note_on_c, 1, 29, 0
3, 33960, Note_on_c, 1, 29, 100
3, 34066, Note_on_c, 1, 29, 0
3, 34080, Note_on_c, 1, 29, 100
3, 34528, Note_on_c, 1, 29, 0
3, 34560, Note_on_c, 1, 29, 100
3, 34896, Note_on_c, 1, 29, 0
3, 34920, Note_on_c, 1, 29, 100
3, 35026, Note_on_c, 1, 29, 0
3, 35040, Note_on_c, 1, 29, 100
3, 35492, Note_on_c, 1, 29, 0
3, 35520, Note_on_c, 1, 29, 100
3, 35851, Note_on_c, 1, 29, 0
3, 35880, Note_on_c, 1, 29, 100
3, 35986, Note_on_c, 1, 29, 0
3, 36000, Note_on_c, 1, 29, 100
3, 36448, Note_on_c, 1, 29, 0
3, 36480, Note_on_c, 1, 29, 100
3, 36814, Note_on_c, 1, 29, 0
3, 36840, Note_on_c, 1, 29, 100
3, 36948, Note_on_c, 1, 29, 0
3, 36960, Note_on_c, 1, 29, 100
3, 37409, Note_on_c, 1, 29, 0
3, 37440, Note_on_c, 1, 29, 100
3, 37770, Note_on_c, 1, 29, 0
3, 37800, Note_on_c, 1, 29, 100
3, 37906, Note_on_c, 1, 29, 0
3, 37920, Note_on_c, 1, 29, 100
3, 38120, Note_on_c, 1, 29, 0
3, 38160, Note_on_c, 1, 29, 100
3, 38278, Note_on_c, 1, 29, 0
3, 38280, Note_on_c, 1, 33, 100
3, 38398, Note_on_c, 1, 33, 0
3, 38400, Note_on_c, 1, 34, 100
3, 38698, Note_on_c, 1, 34, 0
3, 38760, Note_on_c, 1, 34, 100
3, 39298, Note_on_c, 1, 34, 0
3, 39360, Note_on_c, 1, 34, 100
3, 39658, Note_on_c, 1, 34, 0
3, 39720, Note_on_c, 1, 34, 100
3, 40018, Note_on_c, 1, 34, 0
3, 40080, Note_on_c, 1, 34, 100
3, 40198, Note_on_c, 1, 34, 0
3, 40200, Note_on_c, 1, 31, 100
3, 40318, Note_on_c, 1, 31, 0
3, 40320, Note_on_c, 1, 29, 100
3, 40654, Note_on_c, 1, 29, 0
3, 40680, Note_on_c, 1, 29, 100
3, 40788, Note_on_c, 1, 29, 0
3, 40800, Note_on_c, 1, 29, 100
3, 41249, Note_on_c, 1, 29, 0
3, 41280, Note_on_c, 1, 29, 100
3, 41610, Note_on_c, 1, 29, 0
3, 41640, Note_on_c, 1, 29, 100
3, 41746, Note_on_c, 1, 29, 0
3, 41760, Note_on_c, 1, 29, 100
3, 41960, Note_on_c, 1, 29, 0
3, 42000, Note_on_c, 1, 29, 100
3, 42118, Note_on_c, 1, 29, 0
3, 42120, Note_on_c, 1, 33, 100
3, 42238, Note_on_c, 1, 33, 0
3, 42240, Note_on_c, 1, 34, 100
3, 42538, Note_on_c, 1, 34, 0
3, 42600, Note_on_c, 1, 34, 100
3, 43138, Note_on_c, 1, 34, 0
3, 43200, Note_on_c, 1, 34, 100
3, 43498, Note_on_c, 1, 34, 0
3, 43560, Note_on_c, 1, 34, 100
3, 43858, Note_on_c, 1, 34, 0
3, 43920, Note_on_c, 1, 34, 100
3, 44038, Note_on_c, 1, 34, 0
3, 44040, Note_on_c, 1, 31, 100
3, 44158, Note_on_c, 1, 31, 0
3, 44160, Note_on_c, 1, 29, 100
3, 44494, Note_on_c, 1, 29, 0
3, 44520, Note_on_c, 1, 29, 100
3, 44628, Note_on_c, 1, 29, 0
3, 44640, Note_on_c, 1, 29, 100
3, 45089, Note_on_c, 1, 29, 0
3, 45120, Note_on_c, 1, 29, 100
3, 45450, Note_on_c, 1, 29, 0
3, 45480, Note_on_c, 1, 29, 100
3, 45586, Note_on_c, 1, 29, 0
3, 45600, Note_on_c, 1, 29, 100
3, 45800, Note_on_c, 1, 29, 0
3, 45840, Note_on_c, 1, 29, 100
3, 45958, Note_on_c, 1, 29, 0
3, 45960, Note_on_c, 1, 31, 100
3, 46078, Note_on_c, 1, 31, 0
3, 46080, Note_on_c, 1, 36, 100
3, 46413, Note_on_c, 1, 36, 0
3, 46440, Note_on_c, 1, 36, 100
3, 46536, Note_on_c, 1, 36, 0
3, 46560, Note_on_c, 1, 36, 100
3, 46773, Note_on_c, 1, 36, 0
3, 46800, Note_on_c, 1, 36, 100
3, 47019, Note_on_c, 1, 36, 0
3, 47040, Note_on_c, 1, 34, 100
3, 47372, Note_on_c, 1, 34, 0
3, 47400, Note_on_c, 1, 34, 100
3, 47499, Note_on_c, 1, 34, 0
3, 47520, Note_on_c, 1, 34, 100
3, 47728, Note_on_c, 1, 34, 0
3, 47760, Note_on_c, 1, 34, 100
3, 47974, Note_on_c, 1, 34, 0
3, 48000, Note_on_c, 1, 29, 100
3, 48334, Note_on_c, 1, 29, 0
3, 48360, Note_on_c, 1, 29, 100
3, 48468, Note_on_c, 1, 29, 0
3, 48480, Note_on_c, 1, 29, 100
3, 48929, Note_on_c, 1, 29, 0
3, 48960, Note_on_c, 1, 29, 100
3, 49290, Note_on_c, 1, 29, 0
3, 49320, Note_on_c, 1, 29, 100
3, 49426, Note_on_c, 1, 29, 0
3, 49440, Note_on_c, 1, 29, 100
3, 49640, Note_on_c, 1, 29, 0
3, 49680, Note_on_c, 1, 29, 100
3, 49798, Note_on_c, 1, 29, 0
3, 49800, Note_on_c, 1, 31, 100
3, 49918, Note_on_c, 1, 31, 0
3, 49920, Note_on_c, 1, 36, 100
3, 50253, Note_on_c, 1, 36, 0
3, 50280, Note_on_c, 1, 36, 100
3, 50376, Note_on_c, 1, 36, 0
3, 50400, Note_on_c, 1, 36, 100
3, 50613, Note_on_c, 1, 36, 0
3, 50640, Note_on_c, 1, 36, 100
3, 50859, Note_on_c, 1, 36, 0
3, 50880, Note_on_c, 1, 34, 100
3, 51212, Note_on_c, 1, 34, 0
3, 51240, Note_on_c, 1, 34, 100
3, 51339, Note_on_c, 1, 34, 0
3, 51360, Note_on_c, 1, 34, 100
3, 51568, Note_on_c, 1, 34, 0
3, 51600, Note_on_c, 1, 34, 100
3, 51814, Note_on_c, 1, 34, 0
3, 51840, Note_on_c, 1, 29, 100
3, 52174, Note_on_c, 1, 29, 0
3, 52200, Note_on_c, 1, 29, 100
3, 52308, Note_on_c, 1, 29, 0
3, 52320, Note_on_c, 1, 29, 100
3, 52769, Note_on_c, 1, 29, 0
3, 52800, Note_on_c, 1, 29, 100
3, 53130, Note_on_c, 1, 29, 0
3, 53160, Note_on_c, 1, 29, 100
3, 53266, Note_on_c, 1, 29, 0
3, 53280, Note_on_c, 1, 29, 100
3, 53480, Note_on_c, 1, 29, 0
3, 53520, Note_on_c, 1, 29, 100
3, 53638, Note_on_c, 1, 29, 0
3, 53640, Note_on_c, 1, 31, 100
3, 53758, Note_on_c, 1, 31, 0
3, 53760, Note_on_c, 1, 36, 100
3, 54093, Note_on_c, 1, 36, 0
3, 54120, Note_on_c, 1, 36, 100
3, 54216, Note_on_c, 1, 36, 0
3, 54240, Note_on_c, 1, 36, 100
3, 54453, Note_on_c, 1, 36, 0
3, 54480, Note_on_c, 1, 36, 100
3, 54699, Note_on_c, 1, 36, 0
3, 54720, Note_on_c, 1, 34, 100
3, 55052, Note_on_c, 1, 34, 0
3, 55080, Note_on_c, 1, 34, 100
3, 55179, Note_on_c, 1, 34, 0
3, 55200, Note_on_c, 1, 34, 100
3, 55408, Note_on_c, 1, 34, 0
3, 55440, Note_on_c, 1, 34, 100
3, 55654, Note_on_c, 1, 34, 0
3, 55680, Note_on_c, 1, 29, 100
3, 56014, Note_on_c, 1, 29, 0
3, 56040, Note_on_c, 1, 29, 100
3, 56148, Note_on_c, 1, 29, 0
3, 56160, Note_on_c, 1, 29, 100
3, 56609, Note_on_c, 1, 29, 0
3, 56640, Note_on_c, 1, 29, 100
3, 56970, Note_on_c, 1, 29, 0
3, 57000, Note_on_c, 1, 29, 100
3, 57106, Note_on_c, 1, 29, 0
3, 57120, Note_on_c, 1, 29, 100
3, 57320, Note_on_c, 1, 29, 0
3, 57360, Note_on_c, 1, 29, 100
3, 57478, Note_on_c, 1, 29, 0
3, 57480, Note_on_c, 1, 31, 100
3, 57598, Note_on_c, 1, 31, 0
3, 57600, Note_on_c, 1, 36, 100
3, 57933, Note_on_c, 1, 36, 0
3, 57960, Note_on_c, 1, 36, 100
3, 58056, Note_on_c, 1, 36, 0
3, 58080, Note_on_c, 1, 36, 100
3, 58293, Note_on_c, 1, 36, 0
3, 58320, Note_on_c, 1, 36, 100
3, 58539, Note_on_c, 1, 36, 0
3, 58560, Note_on_c, 1, 34, 100
3, 58892, Note_on_c, 1, 34, 0
3, 58920, Note_on_c, 1, 34, 100
3, 59019, Note_on_c, 1, 34, 0
3, 59040, Note_on_c, 1, 34, 100
3, 59248, Note_on_c, 1, 34, 0
3, 59280, Note_on_c, 1, 34, 100
3, 59494, Note_on_c, 1, 34, 0
3, 59520, Note_on_c, 1, 29, 100
3, 59856, Note_on_c, 1, 29, 0
3, 59880, Note_on_c, 1, 29, 100
3, 59986, Note_on_c, 1, 29, 0
3, 60000, Note_on_c, 1, 29, 100
3, 60452, Note_on_c, 1, 29, 0
3, 60480, Note_on_c, 1, 29, 100
3, 60811, Note_on_c, 1, 29, 0
3, 60840, Note_on_c, 1, 29, 100
3, 60946, Note_on_c, 1, 29, 0
3, 60960, Note_on_c, 1, 29, 100
3, 61408, Note_on_c, 1, 29, 0
3, 61440, Note_on_c, 1, 29, 100
3, 61776, Note_on_c, 1, 29, 0
3, 61800, Note_on_c, 1, 29, 100
3, 61906, Note_on_c, 1, 29, 0
3, 61920, Note_on_c, 1, 29, 100
3, 62372, Note_on_c, 1, 29, 0
3, 62400, Note_on_c, 1, 29, 100
3, 62731, Note_on_c, 1, 29, 0
3, 62760, Note_on_c, 1, 29, 100
3, 62866, Note_on_c, 1, 29, 0
3, 62880, Note_on_c, 1, 29, 100
3, 63328, Note_on_c, 1, 29, 0
3, 63360, Note_on_c, 1, 29, 100
3, 63694, Note_on_c, 1, 29, 0
3, 63720, Note_on_c, 1, 29, 100
3, 63828, Note_on_c, 1, 29, 0
3, 63840, Note_on_c, 1, 29, 100
3, 64289, Note_on_c, 1, 29, 0
3, 64320, Note_on_c, 1, 29, 100
3, 64650, Note_on_c, 1, 29, 0
3, 64680, Note_on_c, 1, 29, 100
3, 64786, Note_on_c, 1, 29, 0
3, 64800, Note_on_c, 1, 29, 100
3, 65000, Note_on_c, 1, 29, 0
3, 65040, Note_on_c, 1, 29, 100
3, 65158, Note_on_c, 1, 29, 0
3, 65160, Note_on_c, 1, 33, 100
3, 65278, Note_on_c, 1, 33, 0
3, 65280, Note_on_c, 1, 34, 100
3, 65578, Note_on_c, 1, 34, 0
3, 65640, Note_on_c, 1, 34, 100
3, 66178, Note_on_c, 1, 34, 0
3, 66240, Note_on_c, 1, 34, 100
3, 66538, Note_on_c, 1, 34, 0
3, 66600, Note_on_c, 1, 34, 100
3, 66898, Note_on_c, 1, 34, 0
3, 66960, Note_on_c, 1, 34, 100
3, 67078, Note_on_c, 1, 34, 0
3, 67080, Note_on_c, 1, 31, 100
3, 67198, Note_on_c, 1, 31, 0
3, 67200, Note_on_c, 1, 29, 100
3, 67536, Note_on_c, 1, 29, 0
3, 67560, Note_on_c, 1, 29, 100
3, 67666, Note_on_c, 1, 29, 0
3, 67680, Note_on_c, 1, 29, 100
3, 68132, Note_on_c, 1, 29, 0
3, 68160, Note_on_c, 1, 29, 100
3, 68491, Note_on_c, 1, 29, 0
3, 68520, Note_on_c, 1, 29, 100
3, 68626, Note_on_c, 1, 29, 0
3, 68640, Note_on_c, 1, 29, 100
3, 69088, Note_on_c, 1, 29, 0
3, 69120, Note_on_c, 1, 29, 100
3, 69456, Note_on_c, 1, 29, 0
3, 69480, Note_on_c, 1, 29, 100
3, 69586, Note_on_c, 1, 29, 0
3, 69600, Note_on_c, 1, 29, 100
3, 70052, Note_on_c, 1, 29, 0
3, 70080, Note_on_c, 1, 29, 100
3, 70411, Note_on_c, 1, 29, 0
3, 70440, Note_on_c, 1, 29, 100
3, 70546, Note_on_c, 1, 29, 0
3, 70560, Note_on_c, 1, 29, 100
3, 71008, Note_on_c, 1, 29, 0
3, 71040, Note_on_c, 1, 29, 100
3, 71374, Note_on_c, 1, 29, 0
3, 71400, Note_on_c, 1, 29, 100
3, 71508, Note_on_c, 1, 29, 0
3, 71520, Note_on_c, 1, 29, 100
3, 71969, Note_on_c, 1, 29, 0
3, 72000, Note_on_c, 1, 29, 100
3, 72330, Note_on_c, 1, 29, 0
3, 72360, Note_on_c, 1, 29, 100
3, 72466, Note_on_c, 1, 29, 0
3, 72480, Note_on_c, 1, 29, 100
3, 72680, Note_on_c, 1, 29, 0
3, 72720, Note_on_c, 1, 29, 100
3, 72838, Note_on_c, 1, 29, 0
3, 72840, Note_on_c, 1, 33, 100
3, 72958, Note_on_c, 1, 33, 0
3, 72960, Note_on_c, 1, 34, 100
3, 73258, Note_on_c, 1, 34, 0
3, 73320, Note_on_c, 1, 34, 100
3, 73858, Note_on_c, 1, 34, 0
3, 73920, Note_on_c, 1, 34, 100
3, 74218, Note_on_c, 1, 34, 0
3, 74280, Note_on_c, 1, 34, 100
3, 74578, Note_on_c, 1, 34, 0
3, 74640, Note_on_c, 1, 34, 100
3, 74758, Note_on_c, 1, 34, 0
3, 74760, Note_on_c, 1, 31, 100
3, 74878, Note_on_c, 1, 31, 0
3, 74880, Note_on_c, 1, 29, 100
3, 75214, Note_on_c, 1, 29, 0
3, 75240, Note_on_c, 1, 29, 100
3, 75348, Note_on_c, 1, 29, 0
3, 75360, Note_on_c, 1, 29, 100
3, 75809, Note_on_c, 1, 29, 0
3, 75840, Note_on_c, 1, 29, 100
3, 76170, Note_on_c, 1, 29, 0
3, 76200, Note_on_c, 1, 29, 100
3, 76306, Note_on_c, 1, 29, 0
3, 76320, Note_on_c, 1, 29, 100
3, 76520, Note_on_c, 1, 29, 0
3, 76560, Note_on_c, 1, 29, 100
3, 76678, Note_on_c, 1, 29, 0
3, 76680, Note_on_c, 1, 33, 100
3, 76798, Note_on_c, 1, 33, 0
3, 76800, Note_on_c, 1, 34, 100
3, 77098, Note_on_c, 1, 34, 0
3, 77160, Note_on_c, 1, 34, 100
3, 77698, Note_on_c, 1, 34, 0
3, 77760, Note_on_c, 1, 34, 100
3, 78058, Note_on_c, 1, 34, 0
3, 78120, Note_on_c, 1, 34, 100
3, 78418, Note_on_c, 1, 34, 0
3, 78480, Note_on_c, 1, 34, 100
3, 78598, Note_on_c, 1, 34, 0
3, 78600, Note_on_c, 1, 31, 100
3, 78718, Note_on_c, 1, 31, 0
3, 78720, Note_on_c, 1, 29, 100
3, 79054, Note_on_c, 1, 29, 0
3, 79080, Note_on_c, 1, 29, 100
3, 79188, Note_on_c, 1, 29, 0
3, 79200, Note_on_c, 1, 29, 100
3, 79649, Note_on_c, 1, 29, 0
3, 79680, Note_on_c, 1, 29, 100
3, 80010, Note_on_c, 1, 29, 0
3, 80040, Note_on_c, 1, 29, 100
3, 80146, Note_on_c, 1, 29, 0
3, 80160, Note_on_c, 1, 29, 100
3, 80360, Note_on_c, 1, 29, 0
3, 80400, Note_on_c, 1, 29, 100
3, 80518, Note_on_c, 1, 29, 0
3, 80520, Note_on_c, 1, 31, 100
3, 80638, Note_on_c, 1, 31, 0
3, 80640, Note_on_c, 1, 36, 100
3, 80973, Note_on_c, 1, 36, 0
3, 81000, Note_on_c, 1, 36, 100
3, 81096, Note_on_c, 1, 36, 0
3, 81120, Note_on_c, 1, 36, 100
3, 81333, Note_on_c, 1, 36, 0
3, 81360, Note_on_c, 1, 36, 100
3, 81579, Note_on_c, 1, 36, 0
3, 81600, Note_on_c, 1, 34, 100
3, 81932, Note_on_c, 1, 34, 0
3, 81960, Note_on_c, 1, 34, 100
3, 82059, Note_on_c, 1, 34, 0
3, 82080, Note_on_c, 1, 34, 100
3, 82288, Note_on_c, 1, 34, 0
3, 82320, Note_on_c, 1, 34, 100
3, 82534, Note_on_c, 1, 34, 0
3, 82560, Note_on_c, 1, 29, 100
3, 82894, Note_on_c, 1, 29, 0
3, 82920, Note_on_c, 1, 29, 100
3, 83028, Note_on_c, 1, 29, 0
3, 83040, Note_on_c, 1, 29, 100
3, 83489, Note_on_c, 1, 29, 0
3, 83520, Note_on_c, 1, 29, 100
3, 83850, Note_on_c, 1, 29, 0
3, 83880, Note_on_c, 1, 29, 100
3, 83986, Note_on_c, 1, 29, 0
3, 84000, Note_on_c, 1, 29, 100
3, 84200, Note_on_c, 1, 29, 0
3, 84240, Note_on_c, 1, 29, 100
3, 84358, Note_on_c, 1, 29, 0
3, 84360, Note_on_c, 1, 31, 100
3, 84478, Note_on_c, 1, 31, 0
3, 84480, Note_on_c, 1, 36, 100
3, 84813, Note_on_c, 1, 36, 0
3, 84840, Note_on_c, 1, 36, 100
3, 84936, Note_on_c, 1, 36, 0
3, 84960, Note_on_c, 1, 36, 100
3, 85173, Note_on_c, 1, 36, 0
3, 85200, Note_on_c, 1, 36, 100
3, 85419, Note_on_c, 1, 36, 0
3, 85440, Note_on_c, 1, 34, 100
3, 85772, Note_on_c, 1, 34, 0
3, 85800, Note_on_c, 1, 34, 100
3, 85899, Note_on_c, 1, 34, 0
3, 85920, Note_on_c, 1, 34, 100
3, 86128, Note_on_c, 1, 34, 0
3, 86160, Note_on_c, 1, 34, 100
3, 86374, Note_on_c, 1, 34, 0
3, 86400, Note_on_c, 1, 29, 100
3, 86734, Note_on_c, 1, 29, 0
3, 86760, Note_on_c, 1, 29, 100
3, 86868, Note_on_c, 1, 29, 0
3, 86880, Note_on_c, 1, 29, 100
3, 87329, Note_on_c, 1, 29, 0
3, 87360, Note_on_c, 1, 29, 100
3, 87690, Note_on_c, 1, 29, 0
3, 87720, Note_on_c, 1, 29, 100
3, 87826, Note_on_c, 1, 29, 0
3, 87840, Note_on_c, 1, 29, 100
3, 88040, Note_on_c, 1, 29, 0
3, 88080, Note_on_c, 1, 29, 100
3, 88198, Note_on_c, 1, 29, 0
3, 88200, Note_on_c, 1, 31, 100
3, 88318, Note_on_c, 1, 31, 0
3, 88320, Note_on_c, 1, 36, 100
3, 88653, Note_on_c, 1, 36, 0
3, 88680, Note_on_c, 1, 36, 100
3, 88776, Note_on_c, 1, 36, 0
3, 88800, Note_on_c, 1, 36, 100
3, 89013, Note_on_c, 1, 36, 0
3, 89040, Note_on_c, 1, 36, 100
3, 89259, Note_on_c, 1, 36, 0
3, 89280, Note_on_c, 1, 34, 100
3, 89612, Note_on_c, 1, 34, 0
3, 89640, Note_on_c, 1, 34, 100
3, 89739, Note_on_c, 1, 34, 0
3, 89760, Note_on_c, 1, 34, 100
3, 89968, Note_on_c, 1, 34, 0
3, 90000, Note_on_c, 1, 34, 100
3, 90214, Note_on_c, 1, 34, 0
3, 90240, Note_on_c, 1, 29, 100
3, 90574, Note_on_c, 1, 29, 0
3, 90600, Note_on_c, 1, 29, 100
3, 90708, Note_on_c, 1, 29, 0
3, 90720, Note_on_c, 1, 29, 100
3, 91169, Note_on_c, 1, 29, 0
3, 91200, Note_on_c, 1, 29, 100
3, 91530, Note_on_c, 1, 29, 0
3, 91560, Note_on_c, 1, 29, 100
3, 91666, Note_on_c, 1, 29, 0
3, 91680, Note_on_c, 1, 29, 100
3, 91880, Note_on_c, 1, 29, 0
3, 91920, Note_on_c, 1, 29, 100
3, 92038, Note_on_c, 1, 29, 0
3, 92040, Note_on_c, 1, 31, 100
3, 92158, Note_on_c, 1, 31, 0
3, 92160, Note_on_c, 1, 36, 100
3, 92493, Note_on_c, 1, 36, 0
3, 92520, Note_on_c, 1, 36, 100
3, 92616, Note_on_c, 1, 36, 0
3, 92640, Note_on_c, 1, 36, 100
3, 92853, Note_on_c, 1, 36, 0
3, 92880, Note_on_c, 1, 36, 100
3, 93099, Note_on_c, 1, 36, 0
3, 93120, Note_on_c, 1, 34, 100
3, 93452, Note_on_c, 1, 34, 0
3, 93480, Note_on_c, 1, 34, 100
3, 93579, Note_on_c, 1, 34, 0
3, 93600, Note_on_c, 1, 34, 100
3, 93808, Note_on_c, 1, 34, 0
3, 93840, Note_on_c, 1, 34, 100
3, 94054, Note_on_c, 1, 34, 0
3, 94080, Note_on_c, 1, 29, 100
3, 94414, Note_on_c, 1, 29, 0
3, 94440, Note_on_c, 1, 29, 100
3, 94548, Note_on_c, 1, 29, 0
3, 94560, Note_on_c, 1, 29, 100
3, 95009, Note_on_c, 1, 29, 0
3, 95040, Note_on_c, 1, 29, 100
3, 95370, Note_on_c, 1, 29, 0
3, 95400, Note_on_c, 1, 29, 100
3, 95506, Note_on_c, 1, 29, 0
3, 95520, Note_on_c, 1, 29, 100
3, 95720, Note_on_c, 1, 29, 0
3, 95760, Note_on_c, 1, 29, 100
3, 95977, Note_on_c, 1, 29, 0
3, 96000, Note_on_c, 1, 29, 100
3, 96298, Note_on_c, 1, 29, 0
3, 96360, Note_on_c, 1, 29, 100
3, 96898, Note_on_c, 1, 29, 0
3, 96960, Note_on_c, 1, 29, 100
3, 97258, Note_on_c, 1, 29, 0
3, 97320, Note_on_c, 1, 29, 100
3, 97858, Note_on_c, 1, 29, 0
3, 97920, Note_on_c, 1, 29, 100
3, 98218, Note_on_c, 1, 29, 0
3, 98280, Note_on_c, 1, 29, 100
3, 98818, Note_on_c, 1, 29, 0
3, 98880, Note_on_c, 1, 29, 100
3, 99178, Note_on_c, 1, 29, 0
3, 99240, Note_on_c, 1, 29, 100
3, 99538, Note_on_c, 1, 29, 0
3, 99600, Note_on_c, 1, 29, 100
3, 99718, Note_on_c, 1, 29, 0
3, 99720, Note_on_c, 1, 33, 100
3, 99838, Note_on_c, 1, 33, 0
3, 99840, Note_on_c, 1, 34, 100
3, 100138, Note_on_c, 1, 34, 0
3, 100200, Note_on_c, 1, 34, 100
3, 100738, Note_on_c, 1, 34, 0
3, 100800, Note_on_c, 1, 34, 100
3, 101098, Note_on_c, 1, 34, 0
3, 101160, Note_on_c, 1, 34, 100
3, 101458, Note_on_c, 1, 34, 0
3, 101520, Note_on_c, 1, 34, 100
3, 101638, Note_on_c, 1, 34, 0
3, 101640, Note_on_c, 1, 31, 100
3, 101758, Note_on_c, 1, 31, 0
3, 101760, Note_on_c, 1, 29, 100
3, 102058, Note_on_c, 1, 29, 0
3, 102120, Note_on_c, 1, 29, 100
3, 102658, Note_on_c, 1, 29, 0
3, 102720, Note_on_c, 1, 29, 100
3, 103018, Note_on_c, 1, 29, 0
3, 103080, Note_on_c, 1, 29, 100
3, 103378, Note_on_c, 1, 29, 0
3, 103440, Note_on_c, 1, 29, 100
3, 103558, Note_on_c, 1, 29, 0
3, 103560, Note_on_c, 1, 33, 100
3, 103678, Note_on_c, 1, 33, 0
3, 103680, Note_on_c, 1, 34, 100
3, 103978, Note_on_c, 1, 34, 0
3, 104040, Note_on_c, 1, 34, 100
3, 104578, Note_on_c, 1, 34, 0
3, 104640, Note_on_c, 1, 34, 100
3, 104938, Note_on_c, 1, 34, 0
3, 105000, Note_on_c, 1, 34, 100
3, 105298, Note_on_c, 1, 34, 0
3, 105360, Note_on_c, 1, 34, 100
3, 105478, Note_on_c, 1, 34, 0
3, 105480, Note_on_c, 1, 31, 100
3, 105598, Note_on_c, 1, 31, 0
3, 105600, Note_on_c, 1, 29, 100
3, 106318, Note_on_c, 1, 29, 0
3, 106318, End_track
4, 0, Start_track
4, 0, Title_t, "Male Backing Vox"
4, 0, Program_c, 2, 70
4, 0, Control_c, 2, 7, 84
4, 0, Control_c, 2, 91, 47
4, 0, Control_c, 2, 93, 38
4, 80520, Note_on_c, 2, 46, 90
4, 80638, Note_on_c, 2, 46, 0
4, 80640, Note_on_c, 2, 48, 90
4, 81078, Note_on_c, 2, 48, 0
4, 81480, Note_on_c, 2, 48, 90
4, 81598, Note_on_c, 2, 48, 0
4, 81600, Note_on_c, 2, 46, 90
4, 82038, Note_on_c, 2, 46, 0
4, 82440, Note_on_c, 2, 46, 90
4, 82558, Note_on_c, 2, 46, 0
4, 82560, Note_on_c, 2, 41, 90
4, 83058, Note_on_c, 2, 41, 0
4, 83400, Note_on_c, 2, 46, 90
4, 83518, Note_on_c, 2, 46, 0
4, 83520, Note_on_c, 2, 41, 90
4, 84018, Note_on_c, 2, 41, 0
4, 84360, Note_on_c, 2, 46, 90
4, 84478, Note_on_c, 2, 46, 0
4, 84480, Note_on_c, 2, 48, 90
4, 84918, Note_on_c, 2, 48, 0
4, 85320, Note_on_c, 2, 48, 90
4, 85438, Note_on_c, 2, 48, 0
4, 85440, Note_on_c, 2, 46, 90
4, 85878, Note_on_c, 2, 46, 0
4, 86280, Note_on_c, 2, 46, 90
4, 86398, Note_on_c, 2, 46, 0
4, 86400, Note_on_c, 2, 41, 90
4, 86898, Note_on_c, 2, 41, 0
4, 87240, Note_on_c, 2, 46, 90
4, 87358, Note_on_c, 2, 46, 0
4, 87360, Note_on_c, 2, 41, 90
4, 87858, Note_on_c, 2, 41, 0
4, 88200, Note_on_c, 2, 46, 90
4, 88318, Note_on_c, 2, 46, 0
4, 88320, Note_on_c, 2, 48, 90
4, 88758, Note_on_c, 2, 48, 0
4, 89160, Note_on_c, 2, 48, 90
4, 89278, Note_on_c, 2, 48, 0
4, 89280, Note_on_c, 2, 46, 90
4, 89718, Note_on_c, 2, 46, 0
4, 90120, Note_on_c, 2, 46, 90
4, 90238, Note_on_c, 2, 46, 0
4, 90240, Note_on_c, 2, 41, 90
4, 90738, Note_on_c, 2, 41, 0
4, 91080, Note_on_c, 2, 46, 90
4, 91198, Note_on_c, 2, 46, 0
4, 91200, Note_on_c, 2, 41, 90
4, 91698, Note_on_c, 2, 41, 0
4, 92040, Note_on_c, 2, 46, 90
4, 92158, Note_on_c, 2, 46, 0
4, 92160, Note_on_c, 2, 48, 90
4, 92598, Note_on_c, 2, 48, 0
4, 93000, Note_on_c, 2, 48, 90
4, 93118, Note_on_c, 2, 48, 0
4, 93120, Note_on_c, 2, 46, 90
4, 93558, Note_on_c, 2, 46, 0
4, 93960, Note_on_c, 2, 46, 90
4, 94078, Note_on_c, 2, 46, 0
4, 94080, Note_on_c, 2, 41, 90
4, 94578, Note_on_c, 2, 41, 0
4, 94920, Note_on_c, 2, 46, 90
4, 95038, Note_on_c, 2, 46, 0
4, 95040, Note_on_c, 2, 41, 90
4, 95538, Note_on_c, 2, 41, 0
4, 95880, Note_on_c, 2, 46, 90
4, 95998, Note_on_c, 2, 46, 0
4, 96000, Note_on_c, 2, 41, 90
4, 96307, Note_on_c, 2, 41, 0
4, 96307, End_track
5, 0, Start_track
5, 0, Title_t, "Melody"
5, 0, Program_c, 3, 66
5, 0, Control_c, 3, 91, 31
5, 0, Control_c, 3, 93, 22
5, 7800, Note_on_c, 3, 72, 100
5, 7848, Note_on_c, 3, 72, 0
5, 7860, Note_on_c, 3, 72, 100
5, 8013, Note_on_c, 3, 72, 0
5, 8040, Note_on_c, 3, 69, 100
5, 8144, Note_on_c, 3, 69, 0
5, 8160, Note_on_c, 3, 70, 100
5, 8268, Note_on_c, 3, 70, 0
5, 8280, Note_on_c, 3, 69, 100
5, 8385, Note_on_c, 3, 69, 0
5, 8400, Note_on_c, 3, 67, 100
5, 8506, Note_on_c, 3, 67, 0
5, 8520, Note_on_c, 3, 65, 100
5, 8616, Note_on_c, 3, 65, 0
5, 8760, Note_on_c, 3, 72, 100
5, 8807, Note_on_c, 3, 72, 0
5, 8820, Note_on_c, 3, 72, 100
5, 8980, Note_on_c, 3, 72, 0
5, 9000, Note_on_c, 3, 69, 100
5, 9104, Note_on_c, 3, 69, 0
5, 9120, Note_on_c, 3, 70, 100
5, 9224, Note_on_c, 3, 70, 0
5, 9240, Note_on_c, 3, 69, 100
5, 9344, Note_on_c, 3, 69, 0
5, 9360, Note_on_c, 3, 67, 100
5, 9557, Note_on_c, 3, 67, 0
5, 9840, Note_on_c, 3, 72, 100
5, 9958, Note_on_c, 3, 72, 0
5, 9960, Note_on_c, 3, 69, 100
5, 10060, Note_on_c, 3, 69, 0
5, 10080, Note_on_c, 3, 70, 100
5, 10181, Note_on_c, 3, 70, 0
5, 10200, Note_on_c, 3, 69, 100
5, 10318, Note_on_c, 3, 69, 0
5, 10320, Note_on_c, 3, 67, 100
5, 10438, Note_on_c, 3, 67, 0
5, 10440, Note_on_c, 3, 65, 100
5, 10558, Note_on_c, 3, 65, 0
5, 10680, Note_on_c, 3, 72, 100
5, 10780, Note_on_c, 3, 72, 0
5, 10800, Note_on_c, 3, 72, 100
5, 10899, Note_on_c, 3, 72, 0
5, 10920, Note_on_c, 3, 69, 100
5, 11022, Note_on_c, 3, 69, 0
5, 11040, Note_on_c, 3, 70, 100
5, 11158, Note_on_c, 3, 70, 0
5, 11160, Note_on_c, 3, 69, 100
5, 11258, Note_on_c, 3, 69, 0
5, 11280, Note_on_c, 3, 67, 100
5, 11398, Note_on_c, 3, 67, 0
5, 11400, Note_on_c, 3, 65, 100
5, 11518, Note_on_c, 3, 65, 0
5, 11520, Note_on_c, 3, 65, 100
5, 11857, Note_on_c, 3, 65, 0
5, 11880, Note_on_c, 3, 76, 100
5, 11998, Note_on_c, 3, 76, 0
5, 12000, Note_on_c, 3, 77, 100
5, 12445, Note_on_c, 3, 77, 0
5, 12480, Note_on_c, 3, 65, 100
5, 12811, Note_on_c, 3, 65, 0
5, 12840, Note_on_c, 3, 76, 100
5, 12958, Note_on_c, 3, 76, 0
5, 12960, Note_on_c, 3, 77, 100
5, 13068, Note_on_c, 3, 77, 0
5, 13080, Note_on_c, 3, 65, 100
5, 13184, Note_on_c, 3, 65, 0
5, 13200, Note_on_c, 3, 67, 100
5, 13304, Note_on_c, 3, 67, 0
5, 13320, Note_on_c, 3, 69, 100
5, 13424, Note_on_c, 3, 69, 0
5, 13440, Note_on_c, 3, 65, 100
5, 13632, Note_on_c, 3, 65, 0
5, 15480, Note_on_c, 3, 72, 100
5, 15584, Note_on_c, 3, 72, 0
5, 15599, Note_on_c, 3, 72, 100
5, 15693, Note_on_c, 3, 72, 0
5, 15720, Note_on_c, 3, 69, 100
5, 15824, Note_on_c, 3, 69, 0
5, 15840, Note_on_c, 3, 70, 100
5, 15948, Note_on_c, 3, 70, 0
5, 15960, Note_on_c, 3, 69, 100
5, 16065, Note_on_c, 3, 69, 0
5, 16080, Note_on_c, 3, 67, 100
5, 16318, Note_on_c, 3, 67, 0
5, 16440, Note_on_c, 3, 72, 100
5, 16660, Note_on_c, 3, 72, 0
5, 16680, Note_on_c, 3, 69, 100
5, 16784, Note_on_c, 3, 69, 0
5, 16800, Note_on_c, 3, 70, 100
5, 17098, Note_on_c, 3, 70, 0
5, 17400, Note_on_c, 3, 70, 100
5, 17518, Note_on_c, 3, 70, 0
5, 17520, Note_on_c, 3, 72, 100
5, 17638, Note_on_c, 3, 72, 0
5, 17640, Note_on_c, 3, 69, 100
5, 17740, Note_on_c, 3, 69, 0
5, 17760, Note_on_c, 3, 70, 100
5, 17861, Note_on_c, 3, 70, 0
5, 17880, Note_on_c, 3, 69, 100
5, 17998, Note_on_c, 3, 69, 0
5, 18000, Note_on_c, 3, 67, 100
5, 18118, Note_on_c, 3, 67, 0
5, 18120, Note_on_c, 3, 65, 100
5, 18238, Note_on_c, 3, 65, 0
5, 18360, Note_on_c, 3, 72, 100
5, 18460, Note_on_c, 3, 72, 0
5, 18480, Note_on_c, 3, 72, 100
5, 18579, Note_on_c, 3, 72, 0
5, 18600, Note_on_c, 3, 69, 100
5, 18702, Note_on_c, 3, 69, 0
5, 18720, Note_on_c, 3, 70, 100
5, 18838, Note_on_c, 3, 70, 0
5, 18840, Note_on_c, 3, 69, 100
5, 18938, Note_on_c, 3, 69, 0
5, 18960, Note_on_c, 3, 67, 100
5, 19078, Note_on_c, 3, 67, 0
5, 19080, Note_on_c, 3, 65, 100
5, 19198, Note_on_c, 3, 65, 0
5, 19200, Note_on_c, 3, 65, 100
5, 19537, Note_on_c, 3, 65, 0
5, 19560, Note_on_c, 3, 76, 100
5, 19678, Note_on_c, 3, 76, 0
5, 19680, Note_on_c, 3, 77, 100
5, 20125, Note_on_c, 3, 77, 0
5, 20160, Note_on_c, 3, 65, 100
5, 20491, Note_on_c, 3, 65, 0
5, 20520, Note_on_c, 3, 76, 100
5, 20638, Note_on_c, 3, 76, 0
5, 20640, Note_on_c, 3, 77, 100
5, 20748, Note_on_c, 3, 77, 0
5, 20760, Note_on_c, 3, 65, 100
5, 20864, Note_on_c, 3, 65, 0
5, 20880, Note_on_c, 3, 67, 100
5, 20984, Note_on_c, 3, 67, 0
5, 21000, Note_on_c, 3, 69, 100
5, 21104, Note_on_c, 3, 69, 0
5, 21120, Note_on_c, 3, 65, 100
5, 21312, Note_on_c, 3, 65, 0
5, 22800, Note_on_c, 3, 67, 100
5, 22918, Note_on_c, 3, 67, 0
5, 22920, Note_on_c, 3, 65, 100
5, 23038, Note_on_c, 3, 65, 0
5, 23040, Note_on_c, 3, 65, 100
5, 23377, Note_on_c, 3, 65, 0
5, 23400, Note_on_c, 3, 76, 100
5, 23518, Note_on_c, 3, 76, 0
5, 23520, Note_on_c, 3, 77, 100
5, 23965, Note_on_c, 3, 77, 0
5, 24000, Note_on_c, 3, 65, 100
5, 24331, Note_on_c, 3, 65, 0
5, 24360, Note_on_c, 3, 76, 100
5, 24478, Note_on_c, 3, 76, 0
5, 24480, Note_on_c, 3, 77, 100
5, 24588, Note_on_c, 3, 77, 0
5, 24600, Note_on_c, 3, 65, 100
5, 24704, Note_on_c, 3, 65, 0
5, 24720, Note_on_c, 3, 67, 100
5, 24824, Note_on_c, 3, 67, 0
5, 24840, Note_on_c, 3, 69, 100
5, 24944, Note_on_c, 3, 69, 0
5, 24960, Note_on_c, 3, 65, 100
5, 25198, Note_on_c, 3, 65, 0
5, 26880, Note_on_c, 3, 77, 100
5, 26982, Note_on_c, 3, 77, 0
5, 27000, Note_on_c, 3, 76, 100
5, 27102, Note_on_c, 3, 76, 0
5, 27120, Note_on_c, 3, 76, 100
5, 27222, Note_on_c, 3, 76, 0
5, 27240, Note_on_c, 3, 74, 100
5, 27342, Note_on_c, 3, 74, 0
5, 27360, Note_on_c, 3, 74, 100
5, 27478, Note_on_c, 3, 74, 0
5, 27480, Note_on_c, 3, 72, 100
5, 27578, Note_on_c, 3, 72, 0
5, 27600, Note_on_c, 3, 72, 100
5, 27695, Note_on_c, 3, 72, 0
5, 27720, Note_on_c, 3, 74, 100
5, 27947, Note_on_c, 3, 74, 0
5, 27960, Note_on_c, 3, 72, 100
5, 28064, Note_on_c, 3, 72, 0
5, 28080, Note_on_c, 3, 72, 100
5, 28198, Note_on_c, 3, 72, 0
5, 28200, Note_on_c, 3, 69, 100
5, 28299, Note_on_c, 3, 69, 0
5, 28320, Note_on_c, 3, 70, 100
5, 28547, Note_on_c, 3, 70, 0
5, 28560, Note_on_c, 3, 72, 100
5, 28669, Note_on_c, 3, 72, 0
5, 28680, Note_on_c, 3, 69, 100
5, 28929, Note_on_c, 3, 69, 0
5, 30720, Note_on_c, 3, 77, 100
5, 30822, Note_on_c, 3, 77, 0
5, 30840, Note_on_c, 3, 76, 100
5, 30942, Note_on_c, 3, 76, 0
5, 30960, Note_on_c, 3, 76, 100
5, 31062, Note_on_c, 3, 76, 0
5, 31080, Note_on_c, 3, 74, 100
5, 31182, Note_on_c, 3, 74, 0
5, 31200, Note_on_c, 3, 74, 100
5, 31318, Note_on_c, 3, 74, 0
5, 31320, Note_on_c, 3, 72, 100
5, 31418, Note_on_c, 3, 72, 0
5, 31440, Note_on_c, 3, 72, 100
5, 31535, Note_on_c, 3, 72, 0
5, 31560, Note_on_c, 3, 74, 100
5, 31787, Note_on_c, 3, 74, 0
5, 31800, Note_on_c, 3, 72, 100
5, 31904, Note_on_c, 3, 72, 0
5, 31920, Note_on_c, 3, 72, 100
5, 32038, Note_on_c, 3, 72, 0
5, 32040, Note_on_c, 3, 69, 100
5, 32139, Note_on_c, 3, 69, 0
5, 32160, Note_on_c, 3, 70, 100
5, 32278, Note_on_c, 3, 70, 0
5, 32280, Note_on_c, 3, 69, 100
5, 32398, Note_on_c, 3, 69, 0
5, 32400, Note_on_c, 3, 67, 100
5, 32509, Note_on_c, 3, 67, 0
5, 32520, Note_on_c, 3, 65, 100
5, 32769, Note_on_c, 3, 65, 0
5, 34680, Note_on_c, 3, 72, 100
5, 34780, Note_on_c, 3, 72, 0
5, 34800, Note_on_c, 3, 72, 100
5, 34893, Note_on_c, 3, 72, 0
5, 34920, Note_on_c, 3, 69, 100
5, 35024, Note_on_c, 3, 69, 0
5, 35040, Note_on_c, 3, 70, 100
5, 35148, Note_on_c, 3, 70, 0
5, 35160, Note_on_c, 3, 69, 100
5, 35265, Note_on_c, 3, 69, 0
5, 35280, Note_on_c, 3, 67, 100
5, 35386, Note_on_c, 3, 67, 0
5, 35400, Note_on_c, 3, 65, 100
5, 35496, Note_on_c, 3, 65, 0
5, 35640, Note_on_c, 3, 72, 100
5, 35722, Note_on_c, 3, 72, 0
5, 35738, Note_on_c, 3, 72, 100
5, 35860, Note_on_c, 3, 72, 0
5, 35880, Note_on_c, 3, 69, 100
5, 35984, Note_on_c, 3, 69, 0
5, 36000, Note_on_c, 3, 70, 100
5, 36238, Note_on_c, 3, 70, 0
5, 36600, Note_on_c, 3, 72, 100
5, 36702, Note_on_c, 3, 72, 0
5, 36720, Note_on_c, 3, 72, 100
5, 36838, Note_on_c, 3, 72, 0
5, 36840, Note_on_c, 3, 69, 100
5, 36940, Note_on_c, 3, 69, 0
5, 36960, Note_on_c, 3, 70, 100
5, 37061, Note_on_c, 3, 70, 0
5, 37080, Note_on_c, 3, 69, 100
5, 37198, Note_on_c, 3, 69, 0
5, 37200, Note_on_c, 3, 67, 100
5, 37318, Note_on_c, 3, 67, 0
5, 37320, Note_on_c, 3, 65, 100
5, 37438, Note_on_c, 3, 65, 0
5, 37560, Note_on_c, 3, 72, 100
5, 37660, Note_on_c, 3, 72, 0
5, 37680, Note_on_c, 3, 72, 100
5, 37779, Note_on_c, 3, 72, 0
5, 37800, Note_on_c, 3, 69, 100
5, 37902, Note_on_c, 3, 69, 0
5, 37920, Note_on_c, 3, 70, 100
5, 38038, Note_on_c, 3, 70, 0
5, 38040, Note_on_c, 3, 69, 100
5, 38138, Note_on_c, 3, 69, 0
5, 38160, Note_on_c, 3, 67, 100
5, 38278, Note_on_c, 3, 67, 0
5, 38280, Note_on_c, 3, 65, 100
5, 38398, Note_on_c, 3, 65, 0
5, 38400, Note_on_c, 3, 65, 100
5, 38737, Note_on_c, 3, 65, 0
5, 38760, Note_on_c, 3, 76, 100
5, 38878, Note_on_c, 3, 76, 0
5, 38880, Note_on_c, 3, 77, 100
5, 39325, Note_on_c, 3, 77, 0
5, 39360, Note_on_c, 3, 65, 100
5, 39691, Note_on_c, 3, 65, 0
5, 39720, Note_on_c, 3, 76, 100
5, 39838, Note_on_c, 3, 76, 0
5, 39840, Note_on_c, 3, 77, 100
5, 39948, Note_on_c, 3, 77, 0
5, 39960, Note_on_c, 3, 65, 100
5, 40064, Note_on_c, 3, 65, 0
5, 40080, Note_on_c, 3, 67, 100
5, 40184, Note_on_c, 3, 67, 0
5, 40200, Note_on_c, 3, 69, 100
5, 40304, Note_on_c, 3, 69, 0
5, 40320, Note_on_c, 3, 65, 100
5, 40512, Note_on_c, 3, 65, 0
5, 42000, Note_on_c, 3, 67, 100
5, 42118, Note_on_c, 3, 67, 0
5, 42120, Note_on_c, 3, 65, 100
5, 42238, Note_on_c, 3, 65, 0
5, 42240, Note_on_c, 3, 65, 100
5, 42577, Note_on_c, 3, 65, 0
5, 42600, Note_on_c, 3, 76, 100
5, 42718, Note_on_c, 3, 76, 0
5, 42720, Note_on_c, 3, 77, 100
5, 43165, Note_on_c, 3, 77, 0
5, 43200, Note_on_c, 3, 65, 100
5, 43531, Note_on_c, 3, 65, 0
5, 43560, Note_on_c, 3, 76, 100
5, 43678, Note_on_c, 3, 76, 0
5, 43680, Note_on_c, 3, 77, 100
5, 43788, Note_on_c, 3, 77, 0
5, 43800, Note_on_c, 3, 65, 100
5, 43904, Note_on_c, 3, 65, 0
5, 43920, Note_on_c, 3, 67, 100
5, 44024, Note_on_c, 3, 67, 0
5, 44040, Note_on_c, 3, 69, 100
5, 44144, Note_on_c, 3, 69, 0
5, 44160, Note_on_c, 3, 65, 100
5, 44352, Note_on_c, 3, 65, 0
5, 46080, Note_on_c, 3, 77, 100
5, 46182, Note_on_c, 3, 77, 0
5, 46200, Note_on_c, 3, 76, 100
5, 46302, Note_on_c, 3, 76, 0
5, 46320, Note_on_c, 3, 76, 100
5, 46422, Note_on_c, 3, 76, 0
5, 46440, Note_on_c, 3, 74, 100
5, 46542, Note_on_c, 3, 74, 0
5, 46560, Note_on_c, 3, 74, 100
5, 46678, Note_on_c, 3, 74, 0
5, 46680, Note_on_c, 3, 72, 100
5, 46778, Note_on_c, 3, 72, 0
5, 46800, Note_on_c, 3, 72, 100
5, 46895, Note_on_c, 3, 72, 0
5, 46920, Note_on_c, 3, 74, 100
5, 47147, Note_on_c, 3, 74, 0
5, 47160, Note_on_c, 3, 72, 100
5, 47264, Note_on_c, 3, 72, 0
5, 47280, Note_on_c, 3, 72, 100
5, 47398, Note_on_c, 3, 72, 0
5, 47400, Note_on_c, 3, 69, 100
5, 47499, Note_on_c, 3, 69, 0
5, 47520, Note_on_c, 3, 70, 100
5, 47747, Note_on_c, 3, 70, 0
5, 47760, Note_on_c, 3, 72, 100
5, 47869, Note_on_c, 3, 72, 0
5, 47880, Note_on_c, 3, 69, 100
5, 48129, Note_on_c, 3, 69, 0
5, 49920, Note_on_c, 3, 77, 100
5, 50022, Note_on_c, 3, 77, 0
5, 50040, Note_on_c, 3, 76, 100
5, 50142, Note_on_c, 3, 76, 0
5, 50160, Note_on_c, 3, 76, 100
5, 50262, Note_on_c, 3, 76, 0
5, 50280, Note_on_c, 3, 74, 100
5, 50382, Note_on_c, 3, 74, 0
5, 50400, Note_on_c, 3, 74, 100
5, 50518, Note_on_c, 3, 74, 0
5, 50520, Note_on_c, 3, 72, 100
5, 50618, Note_on_c, 3, 72, 0
5, 50640, Note_on_c, 3, 72, 100
5, 50735, Note_on_c, 3, 72, 0
5, 50760, Note_on_c, 3, 74, 100
5, 50987, Note_on_c, 3, 74, 0
5, 51000, Note_on_c, 3, 72, 100
5, 51104, Note_on_c, 3, 72, 0
5, 51120, Note_on_c, 3, 72, 100
5, 51238, Note_on_c, 3, 72, 0
5, 51240, Note_on_c, 3, 69, 100
5, 51339, Note_on_c, 3, 69, 0
5, 51360, Note_on_c, 3, 70, 100
5, 51478, Note_on_c, 3, 70, 0
5, 51480, Note_on_c, 3, 69, 100
5, 51598, Note_on_c, 3, 69, 0
5, 51600, Note_on_c, 3, 67, 100
5, 51709, Note_on_c, 3, 67, 0
5, 51720, Note_on_c, 3, 65, 100
5, 51969, Note_on_c, 3, 65, 0
5, 53760, Note_on_c, 3, 77, 100
5, 53862, Note_on_c, 3, 77, 0
5, 53880, Note_on_c, 3, 76, 100
5, 53982, Note_on_c, 3, 76, 0
5, 54000, Note_on_c, 3, 76, 100
5, 54102, Note_on_c, 3, 76, 0
5, 54120, Note_on_c, 3, 74, 100
5, 54222, Note_on_c, 3, 74, 0
5, 54240, Note_on_c, 3, 74, 100
5, 54358, Note_on_c, 3, 74, 0
5, 54360, Note_on_c, 3, 72, 100
5, 54458, Note_on_c, 3, 72, 0
5, 54480, Note_on_c, 3, 72, 100
5, 54575, Note_on_c, 3, 72, 0
5, 54600, Note_on_c, 3, 74, 100
5, 54827, Note_on_c, 3, 74, 0
5, 54840, Note_on_c, 3, 72, 100
5, 54944, Note_on_c, 3, 72, 0
5, 54960, Note_on_c, 3, 72, 100
5, 55078, Note_on_c, 3, 72, 0
5, 55080, Note_on_c, 3, 69, 100
5, 55179, Note_on_c, 3, 69, 0
5, 55200, Note_on_c, 3, 70, 100
5, 55427, Note_on_c, 3, 70, 0
5, 55440, Note_on_c, 3, 72, 100
5, 55549, Note_on_c, 3, 72, 0
5, 55560, Note_on_c, 3, 69, 100
5, 55809, Note_on_c, 3, 69, 0
5, 57600, Note_on_c, 3, 77, 100
5, 57702, Note_on_c, 3, 77, 0
5, 57720, Note_on_c, 3, 76, 100
5, 57822, Note_on_c, 3, 76, 0
5, 57840, Note_on_c, 3, 76, 100
5, 57942, Note_on_c, 3, 76, 0
5, 57960, Note_on_c, 3, 74, 100
5, 58062, Note_on_c, 3, 74, 0
5, 58080, Note_on_c, 3, 74, 100
5, 58198, Note_on_c, 3, 74, 0
5, 58200, Note_on_c, 3, 72, 100
5, 58298, Note_on_c, 3, 72, 0
5, 58320, Note_on_c, 3, 72, 100
5, 58415, Note_on_c, 3, 72, 0
5, 58440, Note_on_c, 3, 74, 100
5, 58667, Note_on_c, 3, 74, 0
5, 58680, Note_on_c, 3, 72, 100
5, 58784, Note_on_c, 3, 72, 0
5, 58800, Note_on_c, 3, 72, 100
5, 58918, Note_on_c, 3, 72, 0
5, 58920, Note_on_c, 3, 69, 100
5, 59019, Note_on_c, 3, 69, 0
5, 59040, Note_on_c, 3, 70, 100
5, 59158, Note_on_c, 3, 70, 0
5, 59160, Note_on_c, 3, 69, 100
5, 59278, Note_on_c, 3, 69, 0
5, 59280, Note_on_c, 3, 67, 100
5, 59389, Note_on_c, 3, 67, 0
5, 59400, Note_on_c, 3, 65, 100
5, 59649, Note_on_c, 3, 65, 0
5, 69240, Note_on_c, 3, 72, 100
5, 69340, Note_on_c, 3, 72, 0
5, 69360, Note_on_c, 3, 72, 100
5, 69453, Note_on_c, 3, 72, 0
5, 69480, Note_on_c, 3, 69, 100
5, 69584, Note_on_c, 3, 69, 0
5, 69600, Note_on_c, 3, 70, 100
5, 69708, Note_on_c, 3, 70, 0
5, 69720, Note_on_c, 3, 69, 100
5, 69825, Note_on_c, 3, 69, 0
5, 69840, Note_on_c, 3, 67, 100
5, 69946, Note_on_c, 3, 67, 0
5, 69960, Note_on_c, 3, 65, 100
5, 70056, Note_on_c, 3, 65, 0
5, 70200, Note_on_c, 3, 72, 100
5, 70282, Note_on_c, 3, 72, 0
5, 70298, Note_on_c, 3, 72, 100
5, 70432, Note_on_c, 3, 72, 0
5, 70440, Note_on_c, 3, 69, 100
5, 70544, Note_on_c, 3, 69, 0
5, 70560, Note_on_c, 3, 70, 100
5, 70798, Note_on_c, 3, 70, 0
5, 71160, Note_on_c, 3, 72, 100
5, 71262, Note_on_c, 3, 72, 0
5, 71280, Note_on_c, 3, 72, 100
5, 71398, Note_on_c, 3, 72, 0
5, 71400, Note_on_c, 3, 69, 100
5, 71500, Note_on_c, 3, 69, 0
5, 71520, Note_on_c, 3, 70, 100
5, 71621, Note_on_c, 3, 70, 0
5, 71640, Note_on_c, 3, 69, 100
5, 71758, Note_on_c, 3, 69, 0
5, 71760, Note_on_c, 3, 67, 100
5, 71878, Note_on_c, 3, 67, 0
5, 71880, Note_on_c, 3, 65, 100
5, 71998, Note_on_c, 3, 65, 0
5, 72120, Note_on_c, 3, 72, 100
5, 72220, Note_on_c, 3, 72, 0
5, 72240, Note_on_c, 3, 72, 100
5, 72339, Note_on_c, 3, 72, 0
5, 72360, Note_on_c, 3, 69, 100
5, 72478, Note_on_c, 3, 69, 0
5, 72480, Note_on_c, 3, 70, 100
5, 72598, Note_on_c, 3, 70, 0
5, 72600, Note_on_c, 3, 69, 100
5, 72698, Note_on_c, 3, 69, 0
5, 72720, Note_on_c, 3, 67, 100
5, 72838, Note_on_c, 3, 67, 0
5, 72840, Note_on_c, 3, 65, 100
5, 72958, Note_on_c, 3, 65, 0
5, 72960, Note_on_c, 3, 65, 100
5, 73297, Note_on_c, 3, 65, 0
5, 73320, Note_on_c, 3, 76, 100
5, 73438, Note_on_c, 3, 76, 0
5, 73440, Note_on_c, 3, 77, 100
5, 73885, Note_on_c, 3, 77, 0
5, 73920, Note_on_c, 3, 65, 100
5, 74251, Note_on_c, 3, 65, 0
5, 74280, Note_on_c, 3, 76, 100
5, 74398, Note_on_c, 3, 76, 0
5, 74400, Note_on_c, 3, 77, 100
5, 74508, Note_on_c, 3, 77, 0
5, 74520, Note_on_c, 3, 65, 100
5, 74624, Note_on_c, 3, 65, 0
5, 74640, Note_on_c, 3, 67, 100
5, 74744, Note_on_c, 3, 67, 0
5, 74760, Note_on_c, 3, 69, 100
5, 74864, Note_on_c, 3, 69, 0
5, 74880, Note_on_c, 3, 65, 100
5, 75072, Note_on_c, 3, 65, 0
5, 76560, Note_on_c, 3, 67, 100
5, 76678, Note_on_c, 3, 67, 0
5, 76680, Note_on_c, 3, 65, 100
5, 76798, Note_on_c, 3, 65, 0
5, 76800, Note_on_c, 3, 65, 100
5, 77137, Note_on_c, 3, 65, 0
5, 77160, Note_on_c, 3, 76, 100
5, 77278, Note_on_c, 3, 76, 0
5, 77280, Note_on_c, 3, 77, 100
5, 77725, Note_on_c, 3, 77, 0
5, 77760, Note_on_c, 3, 65, 100
5, 78091, Note_on_c, 3, 65, 0
5, 78120, Note_on_c, 3, 76, 100
5, 78238, Note_on_c, 3, 76, 0
5, 78240, Note_on_c, 3, 77, 100
5, 78348, Note_on_c, 3, 77, 0
5, 78360, Note_on_c, 3, 65, 100
5, 78464, Note_on_c, 3, 65, 0
5, 78480, Note_on_c, 3, 67, 100
5, 78584, Note_on_c, 3, 67, 0
5, 78600, Note_on_c, 3, 69, 100
5, 78704, Note_on_c, 3, 69, 0
5, 78720, Note_on_c, 3, 65, 100
5, 78912, Note_on_c, 3, 65, 0
5, 80640, Note_on_c, 3, 77, 100
5, 80742, Note_on_c, 3, 77, 0
5, 80760, Note_on_c, 3, 76, 100
5, 80862, Note_on_c, 3, 76, 0
5, 80880, Note_on_c, 3, 76, 100
5, 80982, Note_on_c, 3, 76, 0
5, 81000, Note_on_c, 3, 74, 100
5, 81102, Note_on_c, 3, 74, 0
5, 81120, Note_on_c, 3, 74, 100
5, 81238, Note_on_c, 3, 74, 0
5, 81240, Note_on_c, 3, 72, 100
5, 81338, Note_on_c, 3, 72, 0
5, 81360, Note_on_c, 3, 72, 100
5, 81455, Note_on_c, 3, 72, 0
5, 81480, Note_on_c, 3, 74, 100
5, 81707, Note_on_c, 3, 74, 0
5, 81720, Note_on_c, 3, 72, 100
5, 81824, Note_on_c, 3, 72, 0
5, 81840, Note_on_c, 3, 72, 100
5, 81958, Note_on_c, 3, 72, 0
5, 81960, Note_on_c, 3, 69, 100
5, 82059, Note_on_c, 3, 69, 0
5, 82080, Note_on_c, 3, 70, 100
5, 82307, Note_on_c, 3, 70, 0
5, 82320, Note_on_c, 3, 72, 100
5, 82429, Note_on_c, 3, 72, 0
5, 82440, Note_on_c, 3, 69, 100
5, 82689, Note_on_c, 3, 69, 0
5, 84480, Note_on_c, 3, 77, 100
5, 84582, Note_on_c, 3, 77, 0
5, 84600, Note_on_c, 3, 76, 100
5, 84702, Note_on_c, 3, 76, 0
5, 84720, Note_on_c, 3, 76, 100
5, 84822, Note_on_c, 3, 76, 0
5, 84840, Note_on_c, 3, 74, 100
5, 84942, Note_on_c, 3, 74, 0
5, 84960, Note_on_c, 3, 74, 100
5, 85078, Note_on_c, 3, 74, 0
5, 85080, Note_on_c, 3, 72, 100
5, 85178, Note_on_c, 3, 72, 0
5, 85200, Note_on_c, 3, 72, 100
5, 85295, Note_on_c, 3, 72, 0
5, 85320, Note_on_c, 3, 74, 100
5, 85547, Note_on_c, 3, 74, 0
5, 85560, Note_on_c, 3, 72, 100
5, 85664, Note_on_c, 3, 72, 0
5, 85680, Note_on_c, 3, 72, 100
5, 85798, Note_on_c, 3, 72, 0
5, 85800, Note_on_c, 3, 69, 100
5, 85899, Note_on_c, 3, 69, 0
5, 85920, Note_on_c, 3, 70, 100
5, 86038, Note_on_c, 3, 70, 0
5, 86040, Note_on_c, 3, 69, 100
5, 86158, Note_on_c, 3, 69, 0
5, 86160, Note_on_c, 3, 67, 100
5, 86269, Note_on_c, 3, 67, 0
5, 86280, Note_on_c, 3, 65, 100
5, 86529, Note_on_c, 3, 65, 0
5, 88320, Note_on_c, 3, 77, 100
5, 88422, Note_on_c, 3, 77, 0
5, 88440, Note_on_c, 3, 76, 100
5, 88542, Note_on_c, 3, 76, 0
5, 88560, Note_on_c, 3, 76, 100
5, 88662, Note_on_c, 3, 76, 0
5, 88680, Note_on_c, 3, 74, 100
5, 88782, Note_on_c, 3, 74, 0
5, 88800, Note_on_c, 3, 74, 100
5, 88918, Note_on_c, 3, 74, 0
5, 88920, Note_on_c, 3, 72, 100
5, 89018, Note_on_c, 3, 72, 0
5, 89040, Note_on_c, 3, 72, 100
5, 89135, Note_on_c, 3, 72, 0
5, 89160, Note_on_c, 3, 74, 100
5, 89387, Note_on_c, 3, 74, 0
5, 89400, Note_on_c, 3, 72, 100
5, 89504, Note_on_c, 3, 72, 0
5, 89520, Note_on_c, 3, 72, 100
5, 89638, Note_on_c, 3, 72, 0
5, 89640, Note_on_c, 3, 69, 100
5, 89739, Note_on_c, 3, 69, 0
5, 89760, Note_on_c, 3, 70, 100
5, 89987, Note_on_c, 3, 70, 0
5, 90000, Note_on_c, 3, 72, 100
5, 90109, Note_on_c, 3, 72, 0
5, 90120, Note_on_c, 3, 69, 100
5, 90718, Note_on_c, 3, 69, 0
5, 92160, Note_on_c, 3, 77, 100
5, 92262, Note_on_c, 3, 77, 0
5, 92280, Note_on_c, 3, 76, 100
5, 92382, Note_on_c, 3, 76, 0
5, 92400, Note_on_c, 3, 76, 100
5, 92502, Note_on_c, 3, 76, 0
5, 92520, Note_on_c, 3, 74, 100
5, 92622, Note_on_c, 3, 74, 0
5, 92640, Note_on_c, 3, 74, 100
5, 92758, Note_on_c, 3, 74, 0
5, 92760, Note_on_c, 3, 72, 100
5, 92858, Note_on_c, 3, 72, 0
5, 92880, Note_on_c, 3, 72, 100
5, 92975, Note_on_c, 3, 72, 0
5, 93000, Note_on_c, 3, 74, 100
5, 93227, Note_on_c, 3, 74, 0
5, 93240, Note_on_c, 3, 72, 100
5, 93344, Note_on_c, 3, 72, 0
5, 93360, Note_on_c, 3, 72, 100
5, 93478, Note_on_c, 3, 72, 0
5, 93480, Note_on_c, 3, 69, 100
5, 93579, Note_on_c, 3, 69, 0
5, 93600, Note_on_c, 3, 70, 100
5, 93718, Note_on_c, 3, 70, 0
5, 93720, Note_on_c, 3, 69, 100
5, 93838, Note_on_c, 3, 69, 0
5, 93840, Note_on_c, 3, 67, 100
5, 93949, Note_on_c, 3, 67, 0
5, 93960, Note_on_c, 3, 65, 100
5, 94438, Note_on_c, 3, 65, 0
5, 96120, Note_on_c, 3, 72, 100
5, 96168, Note_on_c, 3, 72, 0
5, 96180, Note_on_c, 3, 72, 100
5, 96333, Note_on_c, 3, 72, 0
5, 96360, Note_on_c, 3, 69, 100
5, 96464, Note_on_c, 3, 69, 0
5, 96480, Note_on_c, 3, 70, 100
5, 96588, Note_on_c, 3, 70, 0
5, 96600, Note_on_c, 3, 69, 100
5, 96705, Note_on_c, 3, 69, 0
5, 96720, Note_on_c, 3, 67, 100
5, 96826, Note_on_c, 3, 67, 0
5, 96840, Note_on_c, 3, 65, 100
5, 96936, Note_on_c, 3, 65, 0
5, 97080, Note_on_c, 3, 72, 100
5, 97127, Note_on_c, 3, 72, 0
5, 97140, Note_on_c, 3, 72, 100
5, 97300, Note_on_c, 3, 72, 0
5, 97320, Note_on_c, 3, 69, 100
5, 97424, Note_on_c, 3, 69, 0
5, 97440, Note_on_c, 3, 70, 100
5, 97544, Note_on_c, 3, 70, 0
5, 97560, Note_on_c, 3, 69, 100
5, 97664, Note_on_c, 3, 69, 0
5, 97680, Note_on_c, 3, 67, 100
5, 97877, Note_on_c, 3, 67, 0
5, 98160, Note_on_c, 3, 72, 100
5, 98278, Note_on_c, 3, 72, 0
5, 98280, Note_on_c, 3, 69, 100
5, 98380, Note_on_c, 3, 69, 0
5, 98400, Note_on_c, 3, 70, 100
5, 98501, Note_on_c, 3, 70, 0
5, 98520, Note_on_c, 3, 69, 100
5, 98638, Note_on_c, 3, 69, 0
5, 98640, Note_on_c, 3, 67, 100
5, 98758, Note_on_c, 3, 67, 0
5, 98760, Note_on_c, 3, 65, 100
5, 98878, Note_on_c, 3, 65, 0
5, 99000, Note_on_c, 3, 72, 100
5, 99100, Note_on_c, 3, 72, 0
5, 99120, Note_on_c, 3, 72, 100
5, 99219, Note_on_c, 3, 72, 0
5, 99240, Note_on_c, 3, 69, 100
5, 99342, Note_on_c, 3, 69, 0
5, 99360, Note_on_c, 3, 70, 100
5, 99478, Note_on_c, 3, 70, 0
5, 99480, Note_on_c, 3, 69, 100
5, 99578, Note_on_c, 3, 69, 0
5, 99600, Note_on_c, 3, 67, 100
5, 99718, Note_on_c, 3, 67, 0
5, 99720, Note_on_c, 3, 65, 100
5, 99838, Note_on_c, 3, 65, 0
5, 99840, Note_on_c, 3, 65, 100
5, 100177, Note_on_c, 3, 65, 0
5, 100200, Note_on_c, 3, 76, 100
5, 100318, Note_on_c, 3, 76, 0
5, 100320, Note_on_c, 3, 77, 100
5, 100765, Note_on_c, 3, 77, 0
5, 100800, Note_on_c, 3, 65, 100
5, 101131, Note_on_c, 3, 65, 0
5, 101160, Note_on_c, 3, 76, 100
5, 101278, Note_on_c, 3, 76, 0
5, 101280, Note_on_c, 3, 77, 100
5, 101388, Note_on_c, 3, 77, 0
5, 101400, Note_on_c, 3, 65, 100
5, 101504, Note_on_c, 3, 65, 0
5, 101520, Note_on_c, 3, 67, 100
5, 101624, Note_on_c, 3, 67, 0
5, 101640, Note_on_c, 3, 69, 100
5, 101744, Note_on_c, 3, 69, 0
5, 101760, Note_on_c, 3, 65, 100
5, 101952, Note_on_c, 3, 65, 0
5, 103440, Note_on_c, 3, 67, 100
5, 103558, Note_on_c, 3, 67, 0
5, 103560, Note_on_c, 3, 65, 100
5, 103678, Note_on_c, 3, 65, 0
5, 103680, Note_on_c, 3, 65, 100
5, 104017, Note_on_c, 3, 65, 0
5, 104040, Note_on_c, 3, 76, 100
5, 104158, Note_on_c, 3, 76, 0
5, 104160, Note_on_c, 3, 77, 100
5, 104605, Note_on_c, 3, 77, 0
5, 104640, Note_on_c, 3, 65, 100
5, 104971, Note_on_c, 3, 65, 0
5, 105000, Note_on_c, 3, 76, 100
5, 105118, Note_on_c, 3, 76, 0
5, 105120, Note_on_c, 3, 77, 100
5, 105228, Note_on_c, 3, 77, 0
5, 105240, Note_on_c, 3, 65, 100
5, 105344, Note_on_c, 3, 65, 0
5, 105360, Note_on_c, 3, 67, 100
5, 105464, Note_on_c, 3, 67, 0
5, 105480, Note_on_c, 3, 69, 100
5, 105584, Note_on_c, 3, 69, 0
5, 105600, Note_on_c, 3, 65, 100
5, 105838, Note_on_c, 3, 65, 0
5, 106080, Lyric_t, "you"
5, 106560, Lyric_t, "ooh "
5, 107040, Lyric_t, "you"
5, 107520, Lyric_t, "ooh "
5, 108000, Lyric_t, ", "
5, 108480, Lyric_t, "I'd "
5, 108960, Lyric_t, "leave "
5, 109440, Lyric_t, "it "
5, 109920, Lyric_t, "all "
5, 109920, End_track
6, 0, Start_track
6, 0, Title_t, "Overdrive Gtr"
6, 0, Program_c, 4, 29
6, 26880, Note_on_c, 4, 55, 63
6, 26880, Note_on_c, 4, 60, 63
6, 27823, Note_on_c, 4, 60, 0
6, 27823, Note_on_c, 4, 55, 0
6, 27840, Note_on_c, 4, 53, 66
6, 27840, Note_on_c, 4, 58, 66
6, 28783, Note_on_c, 4, 58, 0
6, 28783, Note_on_c, 4, 53, 0
6, 30720, Note_on_c, 4, 55, 63
6, 30720, Note_on_c, 4, 60, 63
6, 31663, Note_on_c, 4, 60, 0
6, 31663, Note_on_c, 4, 55, 0
6, 31680, Note_on_c, 4, 53, 66
6, 31680, Note_on_c, 4, 58, 66
6, 32623, Note_on_c, 4, 58, 0
6, 32623, Note_on_c, 4, 53, 0
6, 46080, Note_on_c, 4, 55, 63
6, 46080, Note_on_c, 4, 60, 63
6, 47023, Note_on_c, 4, 60, 0
6, 47023, Note_on_c, 4, 55, 0
6, 47040, Note_on_c, 4, 53, 66
6, 47040, Note_on_c, 4, 58, 66
6, 47983, Note_on_c, 4, 58, 0
6, 47983, Note_on_c, 4, 53, 0
6, 49920, Note_on_c, 4, 55, 63
6, 49920, Note_on_c, 4, 60, 63
6, 50863, Note_on_c, 4, 60, 0
6, 50863, Note_on_c, 4, 55, 0
6, 50880, Note_on_c, 4, 53, 66
6, 50880, Note_on_c, 4, 58, 66
6, 51823, Note_on_c, 4, 58, 0
6, 51823, Note_on_c, 4, 53, 0
6, 53760, Note_on_c, 4, 55, 63
6, 53760, Note_on_c, 4, 60, 63
6, 54703, Note_on_c, 4, 60, 0
6, 54703, Note_on_c, 4, 55, 0
6, 54720, Note_on_c, 4, 53, 66
6, 54720, Note_on_c, 4, 58, 66
6, 55663, Note_on_c, 4, 58, 0
6, 55663, Note_on_c, 4, 53, 0
6, 57600, Note_on_c, 4, 55, 63
6, 57600, Note_on_c, 4, 60, 63
6, 58543, Note_on_c, 4, 60, 0
6, 58543, Note_on_c, 4, 55, 0
6, 58560, Note_on_c, 4, 53, 66
6, 58560, Note_on_c, 4, 58, 66
6, 59503, Note_on_c, 4, 58, 0
6, 59503, Note_on_c, 4, 53, 0
6, 61440, Note_on_c, 4, 65, 70
6, 61798, Note_on_c, 4, 65, 0
6, 61800, Note_on_c, 4, 67, 70
6, 62158, Note_on_c, 4, 67, 0
6, 62160, Note_on_c, 4, 65, 70
6, 62338, Note_on_c, 4, 65, 0
6, 62400, Note_on_c, 4, 60, 70
6, 62758, Note_on_c, 4, 60, 0
6, 62760, Note_on_c, 4, 65, 70
6, 63238, Note_on_c, 4, 65, 0
6, 63360, Note_on_c, 4, 65, 70
6, 63718, Note_on_c, 4, 65, 0
6, 63720, Note_on_c, 4, 67, 70
6, 64078, Note_on_c, 4, 67, 0
6, 64080, Note_on_c, 4, 65, 70
6, 64258, Note_on_c, 4, 65, 0
6, 64320, Note_on_c, 4, 60, 70
6, 64678, Note_on_c, 4, 60, 0
6, 64680, Note_on_c, 4, 65, 70
6, 65158, Note_on_c, 4, 65, 0
6, 65280, Note_on_c, 4, 65, 70
6, 65638, Note_on_c, 4, 65, 0
6, 65640, Note_on_c, 4, 67, 70
6, 65998, Note_on_c, 4, 67, 0
6, 66000, Note_on_c, 4, 65, 70
6, 66178, Note_on_c, 4, 65, 0
6, 66240, Note_on_c, 4, 62, 70
6, 66598, Note_on_c, 4, 62, 0
6, 66600, Note_on_c, 4, 65, 70
6, 67078, Note_on_c, 4, 65, 0
6, 67200, Note_on_c, 4, 65, 70
6, 67558, Note_on_c, 4, 65, 0
6, 67560, Note_on_c, 4, 67, 70
6, 67918, Note_on_c, 4, 67, 0
6, 67920, Note_on_c, 4, 65, 70
6, 68098, Note_on_c, 4, 65, 0
6, 68160, Note_on_c, 4, 60, 70
6, 68518, Note_on_c, 4, 60, 0
6, 68520, Note_on_c, 4, 65, 70
6, 68998, Note_on_c, 4, 65, 0
6, 80640, Note_on_c, 4, 55, 63
6, 80640, Note_on_c, 4, 60, 63
6, 81583, Note_on_c, 4, 60, 0
6, 81583, Note_on_c, 4, 55, 0
6, 81600, Note_on_c, 4, 53, 66
6, 81600, Note_on_c, 4, 58, 66
6, 82543, Note_on_c, 4, 58, 0
6, 82543, Note_on_c, 4, 53, 0
6, 84480, Note_on_c, 4, 55, 63
6, 84480, Note_on_c, 4, 60, 63
6, 85423, Note_on_c, 4, 60, 0
6, 85423, Note_on_c, 4, 55, 0
6, 85440, Note_on_c, 4, 53, 66
6, 85440, Note_on_c, 4, 58, 66
6, 86383, Note_on_c, 4, 58, 0
6, 86383, Note_on_c, 4, 53, 0
6, 88320, Note_on_c, 4, 55, 63
6, 88320, Note_on_c, 4, 60, 63
6, 89263, Note_on_c, 4, 60, 0
6, 89263, Note_on_c, 4, 55, 0
6, 89280, Note_on_c, 4, 53, 66
6, 89280, Note_on_c, 4, 58, 66
6, 90223, Note_on_c, 4, 58, 0
6, 90223, Note_on_c, 4, 53, 0
6, 92160, Note_on_c, 4, 55, 63
6, 92160, Note_on_c, 4, 60, 63
6, 93103, Note_on_c, 4, 60, 0
6, 93103, Note_on_c, 4, 55, 0
6, 93120, Note_on_c, 4, 53, 66
6, 93120, Note_on_c, 4, 58, 66
6, 94063, Note_on_c, 4, 58, 0
6, 94063, Note_on_c, 4, 53, 0
6, 94063, End_track
7, 0, Start_track
7, 0, Title_t, "Organ"
7, 0, Program_c, 5, 17
7, 26880, Note_on_c, 5, 60, 12
7, 26880, Note_on_c, 5, 67, 12
7, 27838, Note_on_c, 5, 67, 0
7, 27838, Note_on_c, 5, 60, 0
7, 27840, Note_on_c, 5, 58, 12
7, 27840, Note_on_c, 5, 65, 12
7, 28558, Note_on_c, 5, 65, 0
7, 28558, Note_on_c, 5, 58, 0
7, 28560, Note_on_c, 5, 72, 63
7, 28798, Note_on_c, 5, 72, 0
7, 28800, Note_on_c, 5, 69, 63
7, 30658, Note_on_c, 5, 69, 0
7, 30720, Note_on_c, 5, 60, 12
7, 30720, Note_on_c, 5, 67, 12
7, 31678, Note_on_c, 5, 67, 0
7, 31678, Note_on_c, 5, 60, 0
7, 31680, Note_on_c, 5, 58, 12
7, 31680, Note_on_c, 5, 65, 12
7, 32398, Note_on_c, 5, 65, 0
7, 32398, Note_on_c, 5, 58, 0
7, 32400, Note_on_c, 5, 72, 63
7, 32638, Note_on_c, 5, 72, 0
7, 32640, Note_on_c, 5, 69, 63
7, 34498, Note_on_c, 5, 69, 0
7, 46080, Note_on_c, 5, 60, 12
7, 46080, Note_on_c, 5, 67, 12
7, 47038, Note_on_c, 5, 67, 0
7, 47038, Note_on_c, 5, 60, 0
7, 47040, Note_on_c, 5, 58, 12
7, 47040, Note_on_c, 5, 65, 12
7, 47758, Note_on_c, 5, 65, 0
7, 47758, Note_on_c, 5, 58, 0
7, 47760, Note_on_c, 5, 72, 63
7, 47998, Note_on_c, 5, 72, 0
7, 48000, Note_on_c, 5, 69, 63
7, 49858, Note_on_c, 5, 69, 0
7, 49920, Note_on_c, 5, 60, 12
7, 49920, Note_on_c, 5, 67, 12
7, 50878, Note_on_c, 5, 67, 0
7, 50878, Note_on_c, 5, 60, 0
7, 50880, Note_on_c, 5, 58, 12
7, 50880, Note_on_c, 5, 65, 12
7, 51598, Note_on_c, 5, 65, 0
7, 51598, Note_on_c, 5, 58, 0
7, 51600, Note_on_c, 5, 72, 63
7, 51838, Note_on_c, 5, 72, 0
7, 51840, Note_on_c, 5, 69, 63
7, 53698, Note_on_c, 5, 69, 0
7, 53760, Note_on_c, 5, 60, 12
7, 53760, Note_on_c, 5, 67, 12
7, 54718, Note_on_c, 5, 67, 0
7, 54718, Note_on_c, 5, 60, 0
7, 54720, Note_on_c, 5, 58, 12
7, 54720, Note_on_c, 5, 65, 12
7, 55438, Note_on_c, 5, 65, 0
7, 55438, Note_on_c, 5, 58, 0
7, 55440, Note_on_c, 5, 72, 63
7, 55678, Note_on_c, 5, 72, 0
7, 55680, Note_on_c, 5, 69, 63
7, 57538, Note_on_c, 5, 69, 0
7, 57600, Note_on_c, 5, 60, 12
7, 57600, Note_on_c, 5, 67, 12
7, 58558, Note_on_c, 5, 67, 0
7, 58558, Note_on_c, 5, 60, 0
7, 58560, Note_on_c, 5, 58, 12
7, 58560, Note_on_c, 5, 65, 12
7, 59278, Note_on_c, 5, 65, 0
7, 59278, Note_on_c, 5, 58, 0
7, 59280, Note_on_c, 5, 72, 63
7, 59518, Note_on_c, 5, 72, 0
7, 59520, Note_on_c, 5, 69, 63
7, 61378, Note_on_c, 5, 69, 0
7, 61440, Note_on_c, 5, 65, 100
7, 61798, Note_on_c, 5, 65, 0
7, 61800, Note_on_c, 5, 67, 100
7, 62158, Note_on_c, 5, 67, 0
7, 62160, Note_on_c, 5, 65, 100
7, 62338, Note_on_c, 5, 65, 0
7, 62400, Note_on_c, 5, 60, 100
7, 62758, Note_on_c, 5, 60, 0
7, 62760, Note_on_c, 5, 65, 100
7, 63238, Note_on_c, 5, 65, 0
7, 63360, Note_on_c, 5, 65, 100
7, 63718, Note_on_c, 5, 65, 0
7, 63720, Note_on_c, 5, 67, 100
7, 64078, Note_on_c, 5, 67, 0
7, 64080, Note_on_c, 5, 65, 100
7, 64258, Note_on_c, 5, 65, 0
7, 64320, Note_on_c, 5, 60, 100
7, 64678, Note_on_c, 5, 60, 0
7, 64680, Note_on_c, 5, 65, 100
7, 65158, Note_on_c, 5, 65, 0
7, 65280, Note_on_c, 5, 65, 100
7, 65638, Note_on_c, 5, 65, 0
7, 65640, Note_on_c, 5, 67, 100
7, 65998, Note_on_c, 5, 67, 0
7, 66000, Note_on_c, 5, 65, 100
7, 66178, Note_on_c, 5, 65, 0
7, 66240, Note_on_c, 5, 62, 100
7, 66598, Note_on_c, 5, 62, 0
7, 66600, Note_on_c, 5, 65, 100
7, 67078, Note_on_c, 5, 65, 0
7, 67200, Note_on_c, 5, 65, 100
7, 67558, Note_on_c, 5, 65, 0
7, 67560, Note_on_c, 5, 67, 100
7, 67918, Note_on_c, 5, 67, 0
7, 67920, Note_on_c, 5, 65, 100
7, 68098, Note_on_c, 5, 65, 0
7, 68160, Note_on_c, 5, 60, 100
7, 68518, Note_on_c, 5, 60, 0
7, 68520, Note_on_c, 5, 65, 100
7, 68998, Note_on_c, 5, 65, 0
7, 80640, Note_on_c, 5, 60, 12
7, 80640, Note_on_c, 5, 67, 12
7, 81598, Note_on_c, 5, 67, 0
7, 81598, Note_on_c, 5, 60, 0
7, 81600, Note_on_c, 5, 58, 12
7, 81600, Note_on_c, 5, 65, 12
7, 82318, Note_on_c, 5, 65, 0
7, 82318, Note_on_c, 5, 58, 0
7, 82320, Note_on_c, 5, 72, 63
7, 82558, Note_on_c, 5, 72, 0
7, 82560, Note_on_c, 5, 69, 63
7, 84418, Note_on_c, 5, 69, 0
7, 84480, Note_on_c, 5, 60, 12
7, 84480, Note_on_c, 5, 67, 12
7, 85438, Note_on_c, 5, 67, 0
7, 85438, Note_on_c, 5, 60, 0
7, 85440, Note_on_c, 5, 58, 12
7, 85440, Note_on_c, 5, 65, 12
7, 86158, Note_on_c, 5, 65, 0
7, 86158, Note_on_c, 5, 58, 0
7, 86160, Note_on_c, 5, 72, 63
7, 86398, Note_on_c, 5, 72, 0
7, 86400, Note_on_c, 5, 69, 63
7, 88258, Note_on_c, 5, 69, 0
7, 88320, Note_on_c, 5, 60, 12
7, 88320, Note_on_c, 5, 67, 12
7, 89278, Note_on_c, 5, 67, 0
7, 89278, Note_on_c, 5, 60, 0
7, 89280, Note_on_c, 5, 58, 12
7, 89280, Note_on_c, 5, 65, 12
7, 89998, Note_on_c, 5, 65, 0
7, 89998, Note_on_c, 5, 58, 0
7, 90000, Note_on_c, 5, 72, 63
7, 90238, Note_on_c, 5, 72, 0
7, 90240, Note_on_c, 5, 69, 63
7, 92098, Note_on_c, 5, 69, 0
7, 92160, Note_on_c, 5, 60, 12
7, 92160, Note_on_c, 5, 67, 12
7, 93118, Note_on_c, 5, 67, 0
7, 93118, Note_on_c, 5, 60, 0
7, 93120, Note_on_c, 5, 58, 12
7, 93120, Note_on_c, 5, 65, 12
7, 93838, Note_on_c, 5, 65, 0
7, 93838, Note_on_c, 5, 58, 0
7, 93840, Note_on_c, 5, 72, 63
7, 94078, Note_on_c, 5, 72, 0
7, 94080, Note_on_c, 5, 69, 63
7, 95938, Note_on_c, 5, 69, 0
7, 95938, End_track
8, 0, Start_track
8, 0, Title_t, "Strings"
8, 0, Program_c, 6, 49
8, 0, Control_c, 6, 10, 127
8, 61440, Note_on_c, 6, 65, 100
8, 61798, Note_on_c, 6, 65, 0
8, 61800, Note_on_c, 6, 67, 100
8, 62158, Note_on_c, 6, 67, 0
8, 62160, Note_on_c, 6, 65, 100
8, 62338, Note_on_c, 6, 65, 0
8, 62400, Note_on_c, 6, 60, 100
8, 62758, Note_on_c, 6, 60, 0
8, 62760, Note_on_c, 6, 65, 100
8, 63238, Note_on_c, 6, 65, 0
8, 63360, Note_on_c, 6, 65, 100
8, 63718, Note_on_c, 6, 65, 0
8, 63720, Note_on_c, 6, 67, 100
8, 64078, Note_on_c, 6, 67, 0
8, 64080, Note_on_c, 6, 65, 100
8, 64258, Note_on_c, 6, 65, 0
8, 64320, Note_on_c, 6, 60, 100
8, 64678, Note_on_c, 6, 60, 0
8, 64680, Note_on_c, 6, 65, 100
8, 65158, Note_on_c, 6, 65, 0
8, 65280, Note_on_c, 6, 65, 100
8, 65638, Note_on_c, 6, 65, 0
8, 65640, Note_on_c, 6, 67, 100
8, 65998, Note_on_c, 6, 67, 0
8, 66000, Note_on_c, 6, 65, 100
8, 66178, Note_on_c, 6, 65, 0
8, 66240, Note_on_c, 6, 62, 100
8, 66598, Note_on_c, 6, 62, 0
8, 66600, Note_on_c, 6, 65, 100
8, 67078, Note_on_c, 6, 65, 0
8, 67200, Note_on_c, 6, 65, 100
8, 67558, Note_on_c, 6, 65, 0
8, 67560, Note_on_c, 6, 67, 100
8, 67918, Note_on_c, 6, 67, 0
8, 67920, Note_on_c, 6, 65, 100
8, 68098, Note_on_c, 6, 65, 0
8, 68160, Note_on_c, 6, 60, 100
8, 68518, Note_on_c, 6, 60, 0
8, 68520, Note_on_c, 6, 65, 100
8, 68998, Note_on_c, 6, 65, 0
8, 68998, End_track
9, 0, Start_track
9, 0, Title_t, "Strings widening"
9, 0, Program_c, 7, 49
9, 0, Control_c, 7, 10, 0
9, 61491, Note_on_c, 7, 65, 72
9, 61849, Note_on_c, 7, 65, 0
9, 61851, Note_on_c, 7, 67, 72
9, 62209, Note_on_c, 7, 67, 0
9, 62211, Note_on_c, 7, 65, 72
9, 62389, Note_on_c, 7, 65, 0
9, 62451, Note_on_c, 7, 60, 72
9, 62809, Note_on_c, 7, 60, 0
9, 62811, Note_on_c, 7, 65, 72
9, 63289, Note_on_c, 7, 65, 0
9, 63411, Note_on_c, 7, 65, 72
9, 63769, Note_on_c, 7, 65, 0
9, 63771, Note_on_c, 7, 67, 72
9, 64129, Note_on_c, 7, 67, 0
9, 64131, Note_on_c, 7, 65, 72
9, 64309, Note_on_c, 7, 65, 0
9, 64371, Note_on_c, 7, 60, 72
9, 64729, Note_on_c, 7, 60, 0
9, 64731, Note_on_c, 7, 65, 72
9, 65209, Note_on_c, 7, 65, 0
9, 65331, Note_on_c, 7, 65, 72
9, 65689, Note_on_c, 7, 65, 0
9, 65691, Note_on_c, 7, 67, 72
9, 66049, Note_on_c, 7, 67, 0
9, 66051, Note_on_c, 7, 65, 72
9, 66229, Note_on_c, 7, 65, 0
9, 66291, Note_on_c, 7, 62, 72
9, 66649, Note_on_c, 7, 62, 0
9, 66651, Note_on_c, 7, 65, 72
9, 67129, Note_on_c, 7, 65, 0
9, 67251, Note_on_c, 7, 65, 72
9, 67609, Note_on_c, 7, 65, 0
9, 67611, Note_on_c, 7, 67, 72
9, 67969, Note_on_c, 7, 67, 0
9, 67971, Note_on_c, 7, 65, 72
9, 68149, Note_on_c, 7, 65, 0
9, 68211, Note_on_c, 7, 60, 72
9, 68569, Note_on_c, 7, 60, 0
9, 68571, Note_on_c, 7, 65, 72
9, 69049, Note_on_c, 7, 65, 0
9, 69049, End_track
10, 0, Start_track
10, 0, Title_t, "Guitar bits"
10, 0, Program_c, 8, 26
10, 0, Control_c, 8, 7, 93
10, 29160, Note_on_c, 8, 60, 100
10, 29207, Note_on_c, 8, 60, 0
10, 29220, Note_on_c, 8, 60, 100
10, 29267, Note_on_c, 8, 60, 0
10, 29280, Note_on_c, 8, 60, 100
10, 29398, Note_on_c, 8, 60, 0
10, 29400, Note_on_c, 8, 58, 100
10, 29512, Note_on_c, 8, 58, 0
10, 29520, Note_on_c, 8, 57, 100
10, 29758, Note_on_c, 8, 57, 0
10, 30120, Note_on_c, 8, 60, 100
10, 30170, Note_on_c, 8, 60, 0
10, 30180, Note_on_c, 8, 60, 100
10, 30230, Note_on_c, 8, 60, 0
10, 30240, Note_on_c, 8, 60, 100
10, 30350, Note_on_c, 8, 60, 0
10, 30360, Note_on_c, 8, 58, 100
10, 30465, Note_on_c, 8, 58, 0
10, 30480, Note_on_c, 8, 57, 100
10, 30718, Note_on_c, 8, 57, 0
10, 33000, Note_on_c, 8, 60, 100
10, 33047, Note_on_c, 8, 60, 0
10, 33060, Note_on_c, 8, 60, 100
10, 33107, Note_on_c, 8, 60, 0
10, 33120, Note_on_c, 8, 60, 100
10, 33238, Note_on_c, 8, 60, 0
10, 33240, Note_on_c, 8, 58, 100
10, 33352, Note_on_c, 8, 58, 0
10, 33360, Note_on_c, 8, 57, 100
10, 33598, Note_on_c, 8, 57, 0
10, 33960, Note_on_c, 8, 60, 100
10, 34010, Note_on_c, 8, 60, 0
10, 34020, Note_on_c, 8, 60, 100
10, 34070, Note_on_c, 8, 60, 0
10, 34080, Note_on_c, 8, 60, 100
10, 34190, Note_on_c, 8, 60, 0
10, 34200, Note_on_c, 8, 58, 100
10, 34305, Note_on_c, 8, 58, 0
10, 34320, Note_on_c, 8, 57, 100
10, 34558, Note_on_c, 8, 57, 0
10, 48360, Note_on_c, 8, 60, 100
10, 48407, Note_on_c, 8, 60, 0
10, 48420, Note_on_c, 8, 60, 100
10, 48467, Note_on_c, 8, 60, 0
10, 48480, Note_on_c, 8, 60, 100
10, 48598, Note_on_c, 8, 60, 0
10, 48600, Note_on_c, 8, 58, 100
10, 48712, Note_on_c, 8, 58, 0
10, 48720, Note_on_c, 8, 57, 100
10, 48958, Note_on_c, 8, 57, 0
10, 49320, Note_on_c, 8, 60, 100
10, 49370, Note_on_c, 8, 60, 0
10, 49380, Note_on_c, 8, 60, 100
10, 49430, Note_on_c, 8, 60, 0
10, 49440, Note_on_c, 8, 60, 100
10, 49550, Note_on_c, 8, 60, 0
10, 49560, Note_on_c, 8, 58, 100
10, 49665, Note_on_c, 8, 58, 0
10, 49680, Note_on_c, 8, 57, 100
10, 49918, Note_on_c, 8, 57, 0
10, 52200, Note_on_c, 8, 60, 100
10, 52247, Note_on_c, 8, 60, 0
10, 52260, Note_on_c, 8, 60, 100
10, 52307, Note_on_c, 8, 60, 0
10, 52320, Note_on_c, 8, 60, 100
10, 52438, Note_on_c, 8, 60, 0
10, 52440, Note_on_c, 8, 58, 100
10, 52552, Note_on_c, 8, 58, 0
10, 52560, Note_on_c, 8, 57, 100
10, 52798, Note_on_c, 8, 57, 0
10, 53160, Note_on_c, 8, 60, 100
10, 53210, Note_on_c, 8, 60, 0
10, 53220, Note_on_c, 8, 60, 100
10, 53270, Note_on_c, 8, 60, 0
10, 53280, Note_on_c, 8, 60, 100
10, 53390, Note_on_c, 8, 60, 0
10, 53400, Note_on_c, 8, 58, 100
10, 53505, Note_on_c, 8, 58, 0
10, 53520, Note_on_c, 8, 57, 100
10, 53758, Note_on_c, 8, 57, 0
10, 56040, Note_on_c, 8, 60, 100
10, 56087, Note_on_c, 8, 60, 0
10, 56100, Note_on_c, 8, 60, 100
10, 56147, Note_on_c, 8, 60, 0
10, 56160, Note_on_c, 8, 60, 100
10, 56278, Note_on_c, 8, 60, 0
10, 56280, Note_on_c, 8, 58, 100
10, 56392, Note_on_c, 8, 58, 0
10, 56400, Note_on_c, 8, 57, 100
10, 56638, Note_on_c, 8, 57, 0
10, 57000, Note_on_c, 8, 60, 100
10, 57050, Note_on_c, 8, 60, 0
10, 57060, Note_on_c, 8, 60, 100
10, 57110, Note_on_c, 8, 60, 0
10, 57120, Note_on_c, 8, 60, 100
10, 57230, Note_on_c, 8, 60, 0
10, 57240, Note_on_c, 8, 58, 100
10, 57345, Note_on_c, 8, 58, 0
10, 57360, Note_on_c, 8, 57, 100
10, 57598, Note_on_c, 8, 57, 0
10, 59880, Note_on_c, 8, 60, 100
10, 59927, Note_on_c, 8, 60, 0
10, 59940, Note_on_c, 8, 60, 100
10, 59987, Note_on_c, 8, 60, 0
10, 60000, Note_on_c, 8, 60, 100
10, 60118, Note_on_c, 8, 60, 0
10, 60120, Note_on_c, 8, 58, 100
10, 60232, Note_on_c, 8, 58, 0
10, 60240, Note_on_c, 8, 57, 100
10, 60478, Note_on_c, 8, 57, 0
10, 60840, Note_on_c, 8, 60, 100
10, 60890, Note_on_c, 8, 60, 0
10, 60900, Note_on_c, 8, 60, 100
10, 60950, Note_on_c, 8, 60, 0
10, 60960, Note_on_c, 8, 60, 100
10, 61070, Note_on_c, 8, 60, 0
10, 61080, Note_on_c, 8, 58, 100
10, 61185, Note_on_c, 8, 58, 0
10, 61200, Note_on_c, 8, 57, 100
10, 61438, Note_on_c, 8, 57, 0
10, 82920, Note_on_c, 8, 60, 100
10, 82967, Note_on_c, 8, 60, 0
10, 82980, Note_on_c, 8, 60, 100
10, 83027, Note_on_c, 8, 60, 0
10, 83040, Note_on_c, 8, 60, 100
10, 83158, Note_on_c, 8, 60, 0
10, 83160, Note_on_c, 8, 58, 100
10, 83272, Note_on_c, 8, 58, 0
10, 83280, Note_on_c, 8, 57, 100
10, 83518, Note_on_c, 8, 57, 0
10, 83880, Note_on_c, 8, 60, 100
10, 83930, Note_on_c, 8, 60, 0
10, 83940, Note_on_c, 8, 60, 100
10, 83990, Note_on_c, 8, 60, 0
10, 84000, Note_on_c, 8, 60, 100
10, 84110, Note_on_c, 8, 60, 0
10, 84120, Note_on_c, 8, 58, 100
10, 84225, Note_on_c, 8, 58, 0
10, 84240, Note_on_c, 8, 57, 100
10, 84478, Note_on_c, 8, 57, 0
10, 86760, Note_on_c, 8, 60, 100
10, 86807, Note_on_c, 8, 60, 0
10, 86820, Note_on_c, 8, 60, 100
10, 86867, Note_on_c, 8, 60, 0
10, 86880, Note_on_c, 8, 60, 100
10, 86998, Note_on_c, 8, 60, 0
10, 87000, Note_on_c, 8, 58, 100
10, 87112, Note_on_c, 8, 58, 0
10, 87120, Note_on_c, 8, 57, 100
10, 87358, Note_on_c, 8, 57, 0
10, 87720, Note_on_c, 8, 60, 100
10, 87770, Note_on_c, 8, 60, 0
10, 87780, Note_on_c, 8, 60, 100
10, 87830, Note_on_c, 8, 60, 0
10, 87840, Note_on_c, 8, 60, 100
10, 87950, Note_on_c, 8, 60, 0
10, 87960, Note_on_c, 8, 58, 100
10, 88065, Note_on_c, 8, 58, 0
10, 88080, Note_on_c, 8, 57, 100
10, 88318, Note_on_c, 8, 57, 0
10, 90600, Note_on_c, 8, 60, 100
10, 90647, Note_on_c, 8, 60, 0
10, 90660, Note_on_c, 8, 60, 100
10, 90707, Note_on_c, 8, 60, 0
10, 90720, Note_on_c, 8, 60, 100
10, 90838, Note_on_c, 8, 60, 0
10, 90840, Note_on_c, 8, 58, 100
10, 90952, Note_on_c, 8, 58, 0
10, 90960, Note_on_c, 8, 57, 100
10, 91198, Note_on_c, 8, 57, 0
10, 91560, Note_on_c, 8, 60, 100
10, 91610, Note_on_c, 8, 60, 0
10, 91620, Note_on_c, 8, 60, 100
10, 91670, Note_on_c, 8, 60, 0
10, 91680, Note_on_c, 8, 60, 100
10, 91790, Note_on_c, 8, 60, 0
10, 91800, Note_on_c, 8, 58, 100
10, 91905, Note_on_c, 8, 58, 0
10, 91920, Note_on_c, 8, 57, 100
10, 92158, Note_on_c, 8, 57, 0
10, 94440, Note_on_c, 8, 60, 100
10, 94487, Note_on_c, 8, 60, 0
10, 94500, Note_on_c, 8, 60, 100
10, 94547, Note_on_c, 8, 60, 0
10, 94560, Note_on_c, 8, 60, 100
10, 94678, Note_on_c, 8, 60, 0
10, 94680, Note_on_c, 8, 58, 100
10, 94792, Note_on_c, 8, 58, 0
10, 94800, Note_on_c, 8, 57, 100
10, 95038, Note_on_c, 8, 57, 0
10, 95400, Note_on_c, 8, 60, 100
10, 95450, Note_on_c, 8, 60, 0
10, 95460, Note_on_c, 8, 60, 100
10, 95510, Note_on_c, 8, 60, 0
10, 95520, Note_on_c, 8, 60, 100
10, 95630, Note_on_c, 8, 60, 0
10, 95640, Note_on_c, 8, 58, 100
10, 95745, Note_on_c, 8, 58, 0
10, 95760, Note_on_c, 8, 57, 100
10, 95998, Note_on_c, 8, 57, 0
10, 95998, End_track
11, 0, Start_track
11, 0, Title_t, "Drums"
11, 1920, Note_on_c, 9, 42, 100
11, 1978, Note_on_c, 9, 42, 0
11, 2400, Note_on_c, 9, 42, 100
11, 2458, Note_on_c, 9, 42, 0
11, 2880, Note_on_c, 9, 42, 100
11, 2938, Note_on_c, 9, 42, 0
11, 3120, Note_on_c, 9, 42, 100
11, 3178, Note_on_c, 9, 42, 0
11, 3360, Note_on_c, 9, 42, 100
11, 3418, Note_on_c, 9, 42, 0
11, 3600, Note_on_c, 9, 42, 100
11, 3658, Note_on_c, 9, 42, 0
11, 3840, Note_on_c, 9, 33, 100
11, 3894, Note_on_c, 9, 33, 0
11, 4200, Note_on_c, 9, 33, 100
11, 4254, Note_on_c, 9, 33, 0
11, 4320, Note_on_c, 9, 33, 100
11, 4374, Note_on_c, 9, 33, 0
11, 4800, Note_on_c, 9, 33, 100
11, 4854, Note_on_c, 9, 33, 0
11, 5160, Note_on_c, 9, 33, 100
11, 5214, Note_on_c, 9, 33, 0
11, 5280, Note_on_c, 9, 33, 100
11, 5334, Note_on_c, 9, 33, 0
11, 5760, Note_on_c, 9, 33, 100
11, 5814, Note_on_c, 9, 33, 0
11, 6120, Note_on_c, 9, 33, 100
11, 6174, Note_on_c, 9, 33, 0
11, 6240, Note_on_c, 9, 33, 100
11, 6294, Note_on_c, 9, 33, 0
11, 6720, Note_on_c, 9, 33, 100
11, 6774, Note_on_c, 9, 33, 0
11, 7080, Note_on_c, 9, 33, 100
11, 7134, Note_on_c, 9, 33, 0
11, 7200, Note_on_c, 9, 33, 100
11, 7254, Note_on_c, 9, 33, 0
11, 7680, Note_on_c, 9, 33, 100
11, 7734, Note_on_c, 9, 33, 0
11, 8040, Note_on_c, 9, 33, 100
11, 8094, Note_on_c, 9, 33, 0
11, 8160, Note_on_c, 9, 33, 100
11, 8214, Note_on_c, 9, 33, 0
11, 8640, Note_on_c, 9, 33, 100
11, 8694, Note_on_c, 9, 33, 0
11, 9000, Note_on_c, 9, 33, 100
11, 9054, Note_on_c, 9, 33, 0
11, 9120, Note_on_c, 9, 33, 100
11, 9174, Note_on_c, 9, 33, 0
11, 9600, Note_on_c, 9, 33, 100
11, 9654, Note_on_c, 9, 33, 0
11, 9960, Note_on_c, 9, 33, 100
11, 10014, Note_on_c, 9, 33, 0
11, 10080, Note_on_c, 9, 33, 100
11, 10134, Note_on_c, 9, 33, 0
11, 10560, Note_on_c, 9, 33, 100
11, 10614, Note_on_c, 9, 33, 0
11, 10920, Note_on_c, 9, 33, 100
11, 10974, Note_on_c, 9, 33, 0
11, 11040, Note_on_c, 9, 33, 100
11, 11094, Note_on_c, 9, 33, 0
11, 11520, Note_on_c, 9, 33, 100
11, 11574, Note_on_c, 9, 33, 0
11, 11880, Note_on_c, 9, 33, 100
11, 11934, Note_on_c, 9, 33, 0
11, 12000, Note_on_c, 9, 33, 100
11, 12054, Note_on_c, 9, 33, 0
11, 12480, Note_on_c, 9, 33, 100
11, 12534, Note_on_c, 9, 33, 0
11, 12840, Note_on_c, 9, 33, 100
11, 12894, Note_on_c, 9, 33, 0
11, 12960, Note_on_c, 9, 33, 100
11, 13014, Note_on_c, 9, 33, 0
11, 13440, Note_on_c, 9, 33, 100
11, 13494, Note_on_c, 9, 33, 0
11, 13680, Note_on_c, 9, 25, 100
11, 13680, Note_on_c, 9, 32, 62
11, 13738, Note_on_c, 9, 32, 0
11, 13798, Note_on_c, 9, 25, 0
11, 13800, Note_on_c, 9, 33, 100
11, 13854, Note_on_c, 9, 33, 0
11, 13920, Note_on_c, 9, 33, 100
11, 13974, Note_on_c, 9, 33, 0
11, 14160, Note_on_c, 9, 25, 100
11, 14160, Note_on_c, 9, 32, 62
11, 14218, Note_on_c, 9, 32, 0
11, 14278, Note_on_c, 9, 25, 0
11, 14400, Note_on_c, 9, 33, 100
11, 14454, Note_on_c, 9, 33, 0
11, 14640, Note_on_c, 9, 25, 100
11, 14640, Note_on_c, 9, 32, 62
11, 14698, Note_on_c, 9, 32, 0
11, 14758, Note_on_c, 9, 25, 0
11, 14760, Note_on_c, 9, 33, 100
11, 14814, Note_on_c, 9, 33, 0
11, 14880, Note_on_c, 9, 33, 100
11, 14934, Note_on_c, 9, 33, 0
11, 15120, Note_on_c, 9, 25, 100
11, 15120, Note_on_c, 9, 32, 62
11, 15178, Note_on_c, 9, 32, 0
11, 15238, Note_on_c, 9, 25, 0
11, 15360, Note_on_c, 9, 33, 100
11, 15361, Note_on_c, 9, 69, 75
11, 15389, Note_on_c, 9, 69, 0
11, 15414, Note_on_c, 9, 33, 0
11, 15478, Note_on_c, 9, 69, 75
11, 15506, Note_on_c, 9, 69, 0
11, 15538, Note_on_c, 9, 69, 75
11, 15566, Note_on_c, 9, 69, 0
11, 15598, Note_on_c, 9, 69, 75
11, 15600, Note_on_c, 9, 25, 78
11, 15600, Note_on_c, 9, 54, 70
11, 15626, Note_on_c, 9, 69, 0
11, 15628, Note_on_c, 9, 54, 0
11, 15628, Note_on_c, 9, 25, 0
11, 15719, Note_on_c, 9, 69, 75
11, 15720, Note_on_c, 9, 33, 100
11, 15747, Note_on_c, 9, 69, 0
11, 15774, Note_on_c, 9, 33, 0
11, 15779, Note_on_c, 9, 69, 75
11, 15807, Note_on_c, 9, 69, 0
11, 15840, Note_on_c, 9, 33, 100
11, 15841, Note_on_c, 9, 69, 75
11, 15869, Note_on_c, 9, 69, 0
11, 15894, Note_on_c, 9, 33, 0
11, 15958, Note_on_c, 9, 69, 75
11, 15986, Note_on_c, 9, 69, 0
11, 16018, Note_on_c, 9, 69, 75
11, 16046, Note_on_c, 9, 69, 0
11, 16078, Note_on_c, 9, 69, 75
11, 16080, Note_on_c, 9, 25, 78
11, 16080, Note_on_c, 9, 54, 70
11, 16106, Note_on_c, 9, 69, 0
11, 16108, Note_on_c, 9, 54, 0
11, 16108, Note_on_c, 9, 25, 0
11, 16200, Note_on_c, 9, 69, 75
11, 16228, Note_on_c, 9, 69, 0
11, 16258, Note_on_c, 9, 69, 75
11, 16286, Note_on_c, 9, 69, 0
11, 16320, Note_on_c, 9, 33, 100
11, 16320, Note_on_c, 9, 69, 75
11, 16348, Note_on_c, 9, 69, 0
11, 16374, Note_on_c, 9, 33, 0
11, 16438, Note_on_c, 9, 69, 75
11, 16466, Note_on_c, 9, 69, 0
11, 16498, Note_on_c, 9, 69, 75
11, 16526, Note_on_c, 9, 69, 0
11, 16558, Note_on_c, 9, 69, 75
11, 16560, Note_on_c, 9, 25, 78
11, 16560, Note_on_c, 9, 54, 70
11, 16586, Note_on_c, 9, 69, 0
11, 16588, Note_on_c, 9, 54, 0
11, 16588, Note_on_c, 9, 25, 0
11, 16679, Note_on_c, 9, 69, 75
11, 16680, Note_on_c, 9, 33, 100
11, 16707, Note_on_c, 9, 69, 0
11, 16734, Note_on_c, 9, 33, 0
11, 16738, Note_on_c, 9, 69, 75
11, 16766, Note_on_c, 9, 69, 0
11, 16800, Note_on_c, 9, 33, 100
11, 16801, Note_on_c, 9, 69, 75
11, 16829, Note_on_c, 9, 69, 0
11, 16854, Note_on_c, 9, 33, 0
11, 16918, Note_on_c, 9, 69, 75
11, 16946, Note_on_c, 9, 69, 0
11, 16978, Note_on_c, 9, 69, 75
11, 17006, Note_on_c, 9, 69, 0
11, 17038, Note_on_c, 9, 69, 75
11, 17040, Note_on_c, 9, 25, 78
11, 17040, Note_on_c, 9, 54, 70
11, 17066, Note_on_c, 9, 69, 0
11, 17068, Note_on_c, 9, 54, 0
11, 17068, Note_on_c, 9, 25, 0
11, 17160, Note_on_c, 9, 69, 75
11, 17188, Note_on_c, 9, 69, 0
11, 17219, Note_on_c, 9, 69, 75
11, 17247, Note_on_c, 9, 69, 0
11, 17280, Note_on_c, 9, 33, 100
11, 17281, Note_on_c, 9, 69, 75
11, 17309, Note_on_c, 9, 69, 0
11, 17334, Note_on_c, 9, 33, 0
11, 17398, Note_on_c, 9, 69, 75
11, 17426, Note_on_c, 9, 69, 0
11, 17458, Note_on_c, 9, 69, 75
11, 17486, Note_on_c, 9, 69, 0
11, 17518, Note_on_c, 9, 69, 75
11, 17520, Note_on_c, 9, 25, 78
11, 17520, Note_on_c, 9, 54, 70
11, 17546, Note_on_c, 9, 69, 0
11, 17548, Note_on_c, 9, 54, 0
11, 17548, Note_on_c, 9, 25, 0
11, 17639, Note_on_c, 9, 69, 75
11, 17640, Note_on_c, 9, 33, 100
11, 17667, Note_on_c, 9, 69, 0
11, 17694, Note_on_c, 9, 33, 0
11, 17699, Note_on_c, 9, 69, 75
11, 17727, Note_on_c, 9, 69, 0
11, 17760, Note_on_c, 9, 33, 100
11, 17761, Note_on_c, 9, 69, 75
11, 17789, Note_on_c, 9, 69, 0
11, 17814, Note_on_c, 9, 33, 0
11, 17878, Note_on_c, 9, 69, 75
11, 17906, Note_on_c, 9, 69, 0
11, 17938, Note_on_c, 9, 69, 75
11, 17966, Note_on_c, 9, 69, 0
11, 17998, Note_on_c, 9, 69, 75
11, 18000, Note_on_c, 9, 25, 78
11, 18000, Note_on_c, 9, 54, 70
11, 18026, Note_on_c, 9, 69, 0
11, 18028, Note_on_c, 9, 54, 0
11, 18028, Note_on_c, 9, 25, 0
11, 18120, Note_on_c, 9, 69, 75
11, 18148, Note_on_c, 9, 69, 0
11, 18178, Note_on_c, 9, 69, 75
11, 18206, Note_on_c, 9, 69, 0
11, 18240, Note_on_c, 9, 33, 100
11, 18240, Note_on_c, 9, 69, 75
11, 18268, Note_on_c, 9, 69, 0
11, 18294, Note_on_c, 9, 33, 0
11, 18358, Note_on_c, 9, 69, 75
11, 18386, Note_on_c, 9, 69, 0
11, 18418, Note_on_c, 9, 69, 75
11, 18446, Note_on_c, 9, 69, 0
11, 18478, Note_on_c, 9, 69, 75
11, 18480, Note_on_c, 9, 25, 78
11, 18480, Note_on_c, 9, 54, 70
11, 18506, Note_on_c, 9, 69, 0
11, 18508, Note_on_c, 9, 54, 0
11, 18508, Note_on_c, 9, 25, 0
11, 18599, Note_on_c, 9, 69, 75
11, 18600, Note_on_c, 9, 33, 100
11, 18627, Note_on_c, 9, 69, 0
11, 18654, Note_on_c, 9, 33, 0
11, 18658, Note_on_c, 9, 69, 75
11, 18686, Note_on_c, 9, 69, 0
11, 18720, Note_on_c, 9, 33, 100
11, 18721, Note_on_c, 9, 69, 75
11, 18749, Note_on_c, 9, 69, 0
11, 18774, Note_on_c, 9, 33, 0
11, 18838, Note_on_c, 9, 69, 75
11, 18866, Note_on_c, 9, 69, 0
11, 18898, Note_on_c, 9, 69, 75
11, 18926, Note_on_c, 9, 69, 0
11, 18958, Note_on_c, 9, 69, 75
11, 18960, Note_on_c, 9, 25, 78
11, 18960, Note_on_c, 9, 54, 70
11, 18986, Note_on_c, 9, 69, 0
11, 18988, Note_on_c, 9, 54, 0
11, 18988, Note_on_c, 9, 25, 0
11, 19080, Note_on_c, 9, 69, 75
11, 19108, Note_on_c, 9, 69, 0
11, 19139, Note_on_c, 9, 69, 75
11, 19167, Note_on_c, 9, 69, 0
11, 19200, Note_on_c, 9, 33, 100
11, 19201, Note_on_c, 9, 69, 75
11, 19229, Note_on_c, 9, 69, 0
11, 19254, Note_on_c, 9, 33, 0
11, 19318, Note_on_c, 9, 69, 75
11, 19346, Note_on_c, 9, 69, 0
11, 19378, Note_on_c, 9, 69, 75
11, 19406, Note_on_c, 9, 69, 0
11, 19438, Note_on_c, 9, 69, 75
11, 19440, Note_on_c, 9, 25, 78
11, 19440, Note_on_c, 9, 54, 70
11, 19466, Note_on_c, 9, 69, 0
11, 19468, Note_on_c, 9, 54, 0
11, 19468, Note_on_c, 9, 25, 0
11, 19559, Note_on_c, 9, 69, 75
11, 19560, Note_on_c, 9, 33, 100
11, 19587, Note_on_c, 9, 69, 0
11, 19614, Note_on_c, 9, 33, 0
11, 19619, Note_on_c, 9, 69, 75
11, 19647, Note_on_c, 9, 69, 0
11, 19680, Note_on_c, 9, 33, 100
11, 19681, Note_on_c, 9, 69, 75
11, 19709, Note_on_c, 9, 69, 0
11, 19734, Note_on_c, 9, 33, 0
11, 19798, Note_on_c, 9, 69, 75
11, 19826, Note_on_c, 9, 69, 0
11, 19858, Note_on_c, 9, 69, 75
11, 19886, Note_on_c, 9, 69, 0
11, 19918, Note_on_c, 9, 69, 75
11, 19920, Note_on_c, 9, 25, 78
11, 19920, Note_on_c, 9, 54, 70
11, 19946, Note_on_c, 9, 69, 0
11, 19948, Note_on_c, 9, 54, 0
11, 19948, Note_on_c, 9, 25, 0
11, 20040, Note_on_c, 9, 69, 75
11, 20068, Note_on_c, 9, 69, 0
11, 20098, Note_on_c, 9, 69, 75
11, 20126, Note_on_c, 9, 69, 0
11, 20160, Note_on_c, 9, 33, 100
11, 20160, Note_on_c, 9, 69, 75
11, 20188, Note_on_c, 9, 69, 0
11, 20214, Note_on_c, 9, 33, 0
11, 20278, Note_on_c, 9, 69, 75
11, 20306, Note_on_c, 9, 69, 0
11, 20338, Note_on_c, 9, 69, 75
11, 20366, Note_on_c, 9, 69, 0
11, 20398, Note_on_c, 9, 69, 75
11, 20400, Note_on_c, 9, 25, 78
11, 20400, Note_on_c, 9, 54, 70
11, 20426, Note_on_c, 9, 69, 0
11, 20428, Note_on_c, 9, 54, 0
11, 20428, Note_on_c, 9, 25, 0
11, 20519, Note_on_c, 9, 69, 75
11, 20520, Note_on_c, 9, 33, 100
11, 20547, Note_on_c, 9, 69, 0
11, 20574, Note_on_c, 9, 33, 0
11, 20578, Note_on_c, 9, 69, 75
11, 20606, Note_on_c, 9, 69, 0
11, 20640, Note_on_c, 9, 33, 100
11, 20641, Note_on_c, 9, 69, 75
11, 20669, Note_on_c, 9, 69, 0
11, 20694, Note_on_c, 9, 33, 0
11, 20758, Note_on_c, 9, 69, 75
11, 20786, Note_on_c, 9, 69, 0
11, 20818, Note_on_c, 9, 69, 75
11, 20846, Note_on_c, 9, 69, 0
11, 20878, Note_on_c, 9, 69, 75
11, 20880, Note_on_c, 9, 25, 78
11, 20880, Note_on_c, 9, 54, 70
11, 20906, Note_on_c, 9, 69, 0
11, 20908, Note_on_c, 9, 54, 0
11, 20908, Note_on_c, 9, 25, 0
11, 21000, Note_on_c, 9, 69, 75
11, 21028, Note_on_c, 9, 69, 0
11, 21059, Note_on_c, 9, 69, 75
11, 21087, Note_on_c, 9, 69, 0
11, 21120, Note_on_c, 9, 33, 100
11, 21121, Note_on_c, 9, 69, 75
11, 21149, Note_on_c, 9, 69, 0
11, 21174, Note_on_c, 9, 33, 0
11, 21238, Note_on_c, 9, 69, 75
11, 21266, Note_on_c, 9, 69, 0
11, 21298, Note_on_c, 9, 69, 75
11, 21326, Note_on_c, 9, 69, 0
11, 21358, Note_on_c, 9, 69, 75
11, 21360, Note_on_c, 9, 25, 78
11, 21360, Note_on_c, 9, 54, 70
11, 21386, Note_on_c, 9, 69, 0
11, 21388, Note_on_c, 9, 54, 0
11, 21388, Note_on_c, 9, 25, 0
11, 21479, Note_on_c, 9, 69, 75
11, 21480, Note_on_c, 9, 33, 100
11, 21507, Note_on_c, 9, 69, 0
11, 21534, Note_on_c, 9, 33, 0
11, 21539, Note_on_c, 9, 69, 75
11, 21567, Note_on_c, 9, 69, 0
11, 21600, Note_on_c, 9, 33, 100
11, 21601, Note_on_c, 9, 69, 75
11, 21629, Note_on_c, 9, 69, 0
11, 21654, Note_on_c, 9, 33, 0
11, 21718, Note_on_c, 9, 69, 75
11, 21746, Note_on_c, 9, 69, 0
11, 21778, Note_on_c, 9, 69, 75
11, 21806, Note_on_c, 9, 69, 0
11, 21838, Note_on_c, 9, 69, 75
11, 21840, Note_on_c, 9, 25, 78
11, 21840, Note_on_c, 9, 54, 70
11, 21866, Note_on_c, 9, 69, 0
11, 21868, Note_on_c, 9, 54, 0
11, 21868, Note_on_c, 9, 25, 0
11, 21960, Note_on_c, 9, 69, 75
11, 21988, Note_on_c, 9, 69, 0
11, 22018, Note_on_c, 9, 69, 75
11, 22046, Note_on_c, 9, 69, 0
11, 22080, Note_on_c, 9, 33, 100
11, 22080, Note_on_c, 9, 69, 75
11, 22108, Note_on_c, 9, 69, 0
11, 22134, Note_on_c, 9, 33, 0
11, 22198, Note_on_c, 9, 69, 75
11, 22226, Note_on_c, 9, 69, 0
11, 22258, Note_on_c, 9, 69, 75
11, 22286, Note_on_c, 9, 69, 0
11, 22318, Note_on_c, 9, 69, 75
11, 22320, Note_on_c, 9, 25, 78
11, 22320, Note_on_c, 9, 54, 70
11, 22346, Note_on_c, 9, 69, 0
11, 22348, Note_on_c, 9, 54, 0
11, 22348, Note_on_c, 9, 25, 0
11, 22439, Note_on_c, 9, 69, 75
11, 22440, Note_on_c, 9, 33, 100
11, 22467, Note_on_c, 9, 69, 0
11, 22494, Note_on_c, 9, 33, 0
11, 22498, Note_on_c, 9, 69, 75
11, 22526, Note_on_c, 9, 69, 0
11, 22560, Note_on_c, 9, 33, 100
11, 22561, Note_on_c, 9, 69, 75
11, 22589, Note_on_c, 9, 69, 0
11, 22614, Note_on_c, 9, 33, 0
11, 22678, Note_on_c, 9, 69, 75
11, 22706, Note_on_c, 9, 69, 0
11, 22738, Note_on_c, 9, 69, 75
11, 22766, Note_on_c, 9, 69, 0
11, 22798, Note_on_c, 9, 69, 75
11, 22800, Note_on_c, 9, 25, 78
11, 22800, Note_on_c, 9, 54, 70
11, 22826, Note_on_c, 9, 69, 0
11, 22828, Note_on_c, 9, 54, 0
11, 22828, Note_on_c, 9, 25, 0
11, 22920, Note_on_c, 9, 69, 75
11, 22948, Note_on_c, 9, 69, 0
11, 22979, Note_on_c, 9, 69, 75
11, 23007, Note_on_c, 9, 69, 0
11, 23040, Note_on_c, 9, 33, 100
11, 23041, Note_on_c, 9, 69, 75
11, 23069, Note_on_c, 9, 69, 0
11, 23094, Note_on_c, 9, 33, 0
11, 23158, Note_on_c, 9, 69, 75
11, 23186, Note_on_c, 9, 69, 0
11, 23218, Note_on_c, 9, 69, 75
11, 23246, Note_on_c, 9, 69, 0
11, 23278, Note_on_c, 9, 69, 75
11, 23280, Note_on_c, 9, 25, 78
11, 23280, Note_on_c, 9, 54, 70
11, 23306, Note_on_c, 9, 69, 0
11, 23308, Note_on_c, 9, 54, 0
11, 23308, Note_on_c, 9, 25, 0
11, 23399, Note_on_c, 9, 69, 75
11, 23400, Note_on_c, 9, 33, 100
11, 23427, Note_on_c, 9, 69, 0
11, 23454, Note_on_c, 9, 33, 0
11, 23459, Note_on_c, 9, 69, 75
11, 23487, Note_on_c, 9, 69, 0
11, 23520, Note_on_c, 9, 33, 100
11, 23521, Note_on_c, 9, 69, 75
11, 23549, Note_on_c, 9, 69, 0
11, 23574, Note_on_c, 9, 33, 0
11, 23638, Note_on_c, 9, 69, 75
11, 23666, Note_on_c, 9, 69, 0
11, 23698, Note_on_c, 9, 69, 75
11, 23726, Note_on_c, 9, 69, 0
11, 23758, Note_on_c, 9, 69, 75
11, 23760, Note_on_c, 9, 25, 78
11, 23760, Note_on_c, 9, 54, 70
11, 23786, Note_on_c, 9, 69, 0
11, 23788, Note_on_c, 9, 54, 0
11, 23788, Note_on_c, 9, 25, 0
11, 23880, Note_on_c, 9, 69, 75
11, 23908, Note_on_c, 9, 69, 0
11, 23938, Note_on_c, 9, 69, 75
11, 23966, Note_on_c, 9, 69, 0
11, 24000, Note_on_c, 9, 33, 100
11, 24000, Note_on_c, 9, 69, 75
11, 24028, Note_on_c, 9, 69, 0
11, 24054, Note_on_c, 9, 33, 0
11, 24118, Note_on_c, 9, 69, 75
11, 24146, Note_on_c, 9, 69, 0
11, 24178, Note_on_c, 9, 69, 75
11, 24206, Note_on_c, 9, 69, 0
11, 24238, Note_on_c, 9, 69, 75
11, 24240, Note_on_c, 9, 25, 78
11, 24240, Note_on_c, 9, 54, 70
11, 24266, Note_on_c, 9, 69, 0
11, 24268, Note_on_c, 9, 54, 0
11, 24268, Note_on_c, 9, 25, 0
11, 24359, Note_on_c, 9, 69, 75
11, 24360, Note_on_c, 9, 33, 100
11, 24387, Note_on_c, 9, 69, 0
11, 24414, Note_on_c, 9, 33, 0
11, 24418, Note_on_c, 9, 69, 75
11, 24446, Note_on_c, 9, 69, 0
11, 24480, Note_on_c, 9, 33, 100
11, 24481, Note_on_c, 9, 69, 75
11, 24509, Note_on_c, 9, 69, 0
11, 24534, Note_on_c, 9, 33, 0
11, 24598, Note_on_c, 9, 69, 75
11, 24626, Note_on_c, 9, 69, 0
11, 24658, Note_on_c, 9, 69, 75
11, 24686, Note_on_c, 9, 69, 0
11, 24718, Note_on_c, 9, 69, 75
11, 24720, Note_on_c, 9, 25, 78
11, 24720, Note_on_c, 9, 54, 70
11, 24746, Note_on_c, 9, 69, 0
11, 24748, Note_on_c, 9, 54, 0
11, 24748, Note_on_c, 9, 25, 0
11, 24840, Note_on_c, 9, 69, 75
11, 24868, Note_on_c, 9, 69, 0
11, 24899, Note_on_c, 9, 69, 75
11, 24927, Note_on_c, 9, 69, 0
11, 24960, Note_on_c, 9, 33, 100
11, 24961, Note_on_c, 9, 69, 75
11, 24989, Note_on_c, 9, 69, 0
11, 25014, Note_on_c, 9, 33, 0
11, 25078, Note_on_c, 9, 69, 75
11, 25106, Note_on_c, 9, 69, 0
11, 25138, Note_on_c, 9, 69, 75
11, 25166, Note_on_c, 9, 69, 0
11, 25198, Note_on_c, 9, 69, 75
11, 25200, Note_on_c, 9, 25, 78
11, 25200, Note_on_c, 9, 54, 70
11, 25226, Note_on_c, 9, 69, 0
11, 25228, Note_on_c, 9, 54, 0
11, 25228, Note_on_c, 9, 25, 0
11, 25319, Note_on_c, 9, 69, 75
11, 25320, Note_on_c, 9, 33, 100
11, 25347, Note_on_c, 9, 69, 0
11, 25374, Note_on_c, 9, 33, 0
11, 25379, Note_on_c, 9, 69, 75
11, 25407, Note_on_c, 9, 69, 0
11, 25440, Note_on_c, 9, 33, 100
11, 25441, Note_on_c, 9, 69, 75
11, 25469, Note_on_c, 9, 69, 0
11, 25494, Note_on_c, 9, 33, 0
11, 25558, Note_on_c, 9, 69, 75
11, 25586, Note_on_c, 9, 69, 0
11, 25618, Note_on_c, 9, 69, 75
11, 25646, Note_on_c, 9, 69, 0
11, 25678, Note_on_c, 9, 69, 75
11, 25680, Note_on_c, 9, 25, 78
11, 25680, Note_on_c, 9, 54, 70
11, 25706, Note_on_c, 9, 69, 0
11, 25708, Note_on_c, 9, 54, 0
11, 25708, Note_on_c, 9, 25, 0
11, 25800, Note_on_c, 9, 69, 75
11, 25828, Note_on_c, 9, 69, 0
11, 25858, Note_on_c, 9, 69, 75
11, 25886, Note_on_c, 9, 69, 0
11, 25920, Note_on_c, 9, 33, 100
11, 25920, Note_on_c, 9, 69, 75
11, 25948, Note_on_c, 9, 69, 0
11, 25974, Note_on_c, 9, 33, 0
11, 26038, Note_on_c, 9, 69, 75
11, 26066, Note_on_c, 9, 69, 0
11, 26098, Note_on_c, 9, 69, 75
11, 26126, Note_on_c, 9, 69, 0
11, 26158, Note_on_c, 9, 69, 75
11, 26160, Note_on_c, 9, 25, 78
11, 26160, Note_on_c, 9, 54, 70
11, 26186, Note_on_c, 9, 69, 0
11, 26188, Note_on_c, 9, 54, 0
11, 26188, Note_on_c, 9, 25, 0
11, 26279, Note_on_c, 9, 69, 75
11, 26280, Note_on_c, 9, 33, 100
11, 26307, Note_on_c, 9, 69, 0
11, 26334, Note_on_c, 9, 33, 0
11, 26338, Note_on_c, 9, 69, 75
11, 26366, Note_on_c, 9, 69, 0
11, 26400, Note_on_c, 9, 33, 100
11, 26401, Note_on_c, 9, 69, 75
11, 26429, Note_on_c, 9, 69, 0
11, 26454, Note_on_c, 9, 33, 0
11, 26518, Note_on_c, 9, 69, 75
11, 26546, Note_on_c, 9, 69, 0
11, 26578, Note_on_c, 9, 69, 75
11, 26606, Note_on_c, 9, 69, 0
11, 26638, Note_on_c, 9, 69, 75
11, 26640, Note_on_c, 9, 25, 78
11, 26640, Note_on_c, 9, 54, 70
11, 26666, Note_on_c, 9, 69, 0
11, 26668, Note_on_c, 9, 54, 0
11, 26668, Note_on_c, 9, 25, 0
11, 26760, Note_on_c, 9, 69, 75
11, 26788, Note_on_c, 9, 69, 0
11, 26819, Note_on_c, 9, 69, 75
11, 26847, Note_on_c, 9, 69, 0
11, 26880, Note_on_c, 9, 33, 100
11, 26881, Note_on_c, 9, 69, 75
11, 26909, Note_on_c, 9, 69, 0
11, 26934, Note_on_c, 9, 33, 0
11, 26998, Note_on_c, 9, 69, 75
11, 27026, Note_on_c, 9, 69, 0
11, 27058, Note_on_c, 9, 69, 75
11, 27086, Note_on_c, 9, 69, 0
11, 27118, Note_on_c, 9, 69, 75
11, 27120, Note_on_c, 9, 25, 78
11, 27120, Note_on_c, 9, 54, 70
11, 27146, Note_on_c, 9, 69, 0
11, 27148, Note_on_c, 9, 54, 0
11, 27148, Note_on_c, 9, 25, 0
11, 27239, Note_on_c, 9, 69, 75
11, 27240, Note_on_c, 9, 33, 100
11, 27267, Note_on_c, 9, 69, 0
11, 27294, Note_on_c, 9, 33, 0
11, 27299, Note_on_c, 9, 69, 75
11, 27327, Note_on_c, 9, 69, 0
11, 27360, Note_on_c, 9, 33, 100
11, 27361, Note_on_c, 9, 69, 75
11, 27389, Note_on_c, 9, 69, 0
11, 27414, Note_on_c, 9, 33, 0
11, 27478, Note_on_c, 9, 69, 75
11, 27506, Note_on_c, 9, 69, 0
11, 27538, Note_on_c, 9, 69, 75
11, 27566, Note_on_c, 9, 69, 0
11, 27598, Note_on_c, 9, 69, 75
11, 27600, Note_on_c, 9, 25, 78
11, 27600, Note_on_c, 9, 54, 70
11, 27626, Note_on_c, 9, 69, 0
11, 27628, Note_on_c, 9, 54, 0
11, 27628, Note_on_c, 9, 25, 0
11, 27720, Note_on_c, 9, 69, 75
11, 27748, Note_on_c, 9, 69, 0
11, 27778, Note_on_c, 9, 69, 75
11, 27806, Note_on_c, 9, 69, 0
11, 27840, Note_on_c, 9, 33, 100
11, 27840, Note_on_c, 9, 69, 75
11, 27868, Note_on_c, 9, 69, 0
11, 27894, Note_on_c, 9, 33, 0
11, 27958, Note_on_c, 9, 69, 75
11, 27986, Note_on_c, 9, 69, 0
11, 28018, Note_on_c, 9, 69, 75
11, 28046, Note_on_c, 9, 69, 0
11, 28078, Note_on_c, 9, 69, 75
11, 28080, Note_on_c, 9, 25, 78
11, 28080, Note_on_c, 9, 54, 70
11, 28106, Note_on_c, 9, 69, 0
11, 28108, Note_on_c, 9, 54, 0
11, 28108, Note_on_c, 9, 25, 0
11, 28199, Note_on_c, 9, 69, 75
11, 28200, Note_on_c, 9, 33, 100
11, 28227, Note_on_c, 9, 69, 0
11, 28254, Note_on_c, 9, 33, 0
11, 28258, Note_on_c, 9, 69, 75
11, 28286, Note_on_c, 9, 69, 0
11, 28320, Note_on_c, 9, 33, 100
11, 28321, Note_on_c, 9, 69, 75
11, 28349, Note_on_c, 9, 69, 0
11, 28374, Note_on_c, 9, 33, 0
11, 28438, Note_on_c, 9, 69, 75
11, 28466, Note_on_c, 9, 69, 0
11, 28498, Note_on_c, 9, 69, 75
11, 28526, Note_on_c, 9, 69, 0
11, 28558, Note_on_c, 9, 69, 75
11, 28560, Note_on_c, 9, 25, 78
11, 28560, Note_on_c, 9, 54, 70
11, 28586, Note_on_c, 9, 69, 0
11, 28588, Note_on_c, 9, 54, 0
11, 28588, Note_on_c, 9, 25, 0
11, 28680, Note_on_c, 9, 69, 75
11, 28708, Note_on_c, 9, 69, 0
11, 28739, Note_on_c, 9, 69, 75
11, 28767, Note_on_c, 9, 69, 0
11, 28800, Note_on_c, 9, 33, 100
11, 28801, Note_on_c, 9, 69, 75
11, 28829, Note_on_c, 9, 69, 0
11, 28854, Note_on_c, 9, 33, 0
11, 28918, Note_on_c, 9, 69, 75
11, 28946, Note_on_c, 9, 69, 0
11, 28978, Note_on_c, 9, 69, 75
11, 29006, Note_on_c, 9, 69, 0
11, 29038, Note_on_c, 9, 69, 75
11, 29040, Note_on_c, 9, 25, 78
11, 29040, Note_on_c, 9, 54, 70
11, 29066, Note_on_c, 9, 69, 0
11, 29068, Note_on_c, 9, 54, 0
11, 29068, Note_on_c, 9, 25, 0
11, 29159, Note_on_c, 9, 69, 75
11, 29160, Note_on_c, 9, 33, 100
11, 29187, Note_on_c, 9, 69, 0
11, 29214, Note_on_c, 9, 33, 0
11, 29219, Note_on_c, 9, 69, 75
11, 29247, Note_on_c, 9, 69, 0
11, 29280, Note_on_c, 9, 33, 100
11, 29281, Note_on_c, 9, 69, 75
11, 29309, Note_on_c, 9, 69, 0
11, 29334, Note_on_c, 9, 33, 0
11, 29398, Note_on_c, 9, 69, 75
11, 29426, Note_on_c, 9, 69, 0
11, 29458, Note_on_c, 9, 69, 75
11, 29486, Note_on_c, 9, 69, 0
11, 29518, Note_on_c, 9, 69, 75
11, 29520, Note_on_c, 9, 25, 78
11, 29520, Note_on_c, 9, 54, 70
11, 29546, Note_on_c, 9, 69, 0
11, 29548, Note_on_c, 9, 54, 0
11, 29548, Note_on_c, 9, 25, 0
11, 29640, Note_on_c, 9, 69, 75
11, 29668, Note_on_c, 9, 69, 0
11, 29698, Note_on_c, 9, 69, 75
11, 29726, Note_on_c, 9, 69, 0
11, 29760, Note_on_c, 9, 33, 100
11, 29760, Note_on_c, 9, 69, 75
11, 29788, Note_on_c, 9, 69, 0
11, 29814, Note_on_c, 9, 33, 0
11, 29878, Note_on_c, 9, 69, 75
11, 29906, Note_on_c, 9, 69, 0
11, 29938, Note_on_c, 9, 69, 75
11, 29966, Note_on_c, 9, 69, 0
11, 29998, Note_on_c, 9, 69, 75
11, 30000, Note_on_c, 9, 25, 78
11, 30000, Note_on_c, 9, 54, 70
11, 30026, Note_on_c, 9, 69, 0
11, 30028, Note_on_c, 9, 54, 0
11, 30028, Note_on_c, 9, 25, 0
11, 30119, Note_on_c, 9, 69, 75
11, 30120, Note_on_c, 9, 33, 100
11, 30147, Note_on_c, 9, 69, 0
11, 30174, Note_on_c, 9, 33, 0
11, 30178, Note_on_c, 9, 69, 75
11, 30206, Note_on_c, 9, 69, 0
11, 30240, Note_on_c, 9, 33, 100
11, 30241, Note_on_c, 9, 69, 75
11, 30269, Note_on_c, 9, 69, 0
11, 30294, Note_on_c, 9, 33, 0
11, 30358, Note_on_c, 9, 69, 75
11, 30386, Note_on_c, 9, 69, 0
11, 30418, Note_on_c, 9, 69, 75
11, 30446, Note_on_c, 9, 69, 0
11, 30478, Note_on_c, 9, 69, 75
11, 30480, Note_on_c, 9, 25, 78
11, 30480, Note_on_c, 9, 54, 70
11, 30506, Note_on_c, 9, 69, 0
11, 30508, Note_on_c, 9, 54, 0
11, 30508, Note_on_c, 9, 25, 0
11, 30600, Note_on_c, 9, 69, 75
11, 30628, Note_on_c, 9, 69, 0
11, 30659, Note_on_c, 9, 69, 75
11, 30687, Note_on_c, 9, 69, 0
11, 30720, Note_on_c, 9, 33, 100
11, 30721, Note_on_c, 9, 69, 75
11, 30749, Note_on_c, 9, 69, 0
11, 30774, Note_on_c, 9, 33, 0
11, 30838, Note_on_c, 9, 69, 75
11, 30866, Note_on_c, 9, 69, 0
11, 30898, Note_on_c, 9, 69, 75
11, 30926, Note_on_c, 9, 69, 0
11, 30958, Note_on_c, 9, 69, 75
11, 30960, Note_on_c, 9, 25, 78
11, 30960, Note_on_c, 9, 54, 70
11, 30986, Note_on_c, 9, 69, 0
11, 30988, Note_on_c, 9, 54, 0
11, 30988, Note_on_c, 9, 25, 0
11, 31079, Note_on_c, 9, 69, 75
11, 31080, Note_on_c, 9, 33, 100
11, 31107, Note_on_c, 9, 69, 0
11, 31134, Note_on_c, 9, 33, 0
11, 31139, Note_on_c, 9, 69, 75
11, 31167, Note_on_c, 9, 69, 0
11, 31200, Note_on_c, 9, 33, 100
11, 31201, Note_on_c, 9, 69, 75
11, 31229, Note_on_c, 9, 69, 0
11, 31254, Note_on_c, 9, 33, 0
11, 31318, Note_on_c, 9, 69, 75
11, 31346, Note_on_c, 9, 69, 0
11, 31378, Note_on_c, 9, 69, 75
11, 31406, Note_on_c, 9, 69, 0
11, 31438, Note_on_c, 9, 69, 75
11, 31440, Note_on_c, 9, 25, 78
11, 31440, Note_on_c, 9, 54, 70
11, 31466, Note_on_c, 9, 69, 0
11, 31468, Note_on_c, 9, 54, 0
11, 31468, Note_on_c, 9, 25, 0
11, 31560, Note_on_c, 9, 69, 75
11, 31588, Note_on_c, 9, 69, 0
11, 31618, Note_on_c, 9, 69, 75
11, 31646, Note_on_c, 9, 69, 0
11, 31680, Note_on_c, 9, 33, 100
11, 31680, Note_on_c, 9, 69, 75
11, 31708, Note_on_c, 9, 69, 0
11, 31734, Note_on_c, 9, 33, 0
11, 31798, Note_on_c, 9, 69, 75
11, 31826, Note_on_c, 9, 69, 0
11, 31858, Note_on_c, 9, 69, 75
11, 31886, Note_on_c, 9, 69, 0
11, 31918, Note_on_c, 9, 69, 75
11, 31920, Note_on_c, 9, 25, 78
11, 31920, Note_on_c, 9, 54, 70
11, 31946, Note_on_c, 9, 69, 0
11, 31948, Note_on_c, 9, 54, 0
11, 31948, Note_on_c, 9, 25, 0
11, 32039, Note_on_c, 9, 69, 75
11, 32040, Note_on_c, 9, 33, 100
11, 32067, Note_on_c, 9, 69, 0
11, 32094, Note_on_c, 9, 33, 0
11, 32098, Note_on_c, 9, 69, 75
11, 32126, Note_on_c, 9, 69, 0
11, 32160, Note_on_c, 9, 33, 100
11, 32161, Note_on_c, 9, 69, 75
11, 32189, Note_on_c, 9, 69, 0
11, 32214, Note_on_c, 9, 33, 0
11, 32278, Note_on_c, 9, 69, 75
11, 32306, Note_on_c, 9, 69, 0
11, 32338, Note_on_c, 9, 69, 75
11, 32366, Note_on_c, 9, 69, 0
11, 32398, Note_on_c, 9, 69, 75
11, 32400, Note_on_c, 9, 25, 78
11, 32400, Note_on_c, 9, 54, 70
11, 32426, Note_on_c, 9, 69, 0
11, 32428, Note_on_c, 9, 54, 0
11, 32428, Note_on_c, 9, 25, 0
11, 32520, Note_on_c, 9, 69, 75
11, 32548, Note_on_c, 9, 69, 0
11, 32579, Note_on_c, 9, 69, 75
11, 32607, Note_on_c, 9, 69, 0
11, 32640, Note_on_c, 9, 33, 100
11, 32641, Note_on_c, 9, 69, 75
11, 32669, Note_on_c, 9, 69, 0
11, 32694, Note_on_c, 9, 33, 0
11, 32758, Note_on_c, 9, 69, 75
11, 32786, Note_on_c, 9, 69, 0
11, 32818, Note_on_c, 9, 69, 75
11, 32846, Note_on_c, 9, 69, 0
11, 32878, Note_on_c, 9, 69, 75
11, 32880, Note_on_c, 9, 25, 78
11, 32880, Note_on_c, 9, 54, 70
11, 32906, Note_on_c, 9, 69, 0
11, 32908, Note_on_c, 9, 54, 0
11, 32908, Note_on_c, 9, 25, 0
11, 32999, Note_on_c, 9, 69, 75
11, 33000, Note_on_c, 9, 33, 100
11, 33027, Note_on_c, 9, 69, 0
11, 33054, Note_on_c, 9, 33, 0
11, 33059, Note_on_c, 9, 69, 75
11, 33087, Note_on_c, 9, 69, 0
11, 33120, Note_on_c, 9, 33, 100
11, 33121, Note_on_c, 9, 69, 75
11, 33149, Note_on_c, 9, 69, 0
11, 33174, Note_on_c, 9, 33, 0
11, 33238, Note_on_c, 9, 69, 75
11, 33266, Note_on_c, 9, 69, 0
11, 33298, Note_on_c, 9, 69, 75
11, 33326, Note_on_c, 9, 69, 0
11, 33358, Note_on_c, 9, 69, 75
11, 33360, Note_on_c, 9, 25, 78
11, 33360, Note_on_c, 9, 54, 70
11, 33386, Note_on_c, 9, 69, 0
11, 33388, Note_on_c, 9, 54, 0
11, 33388, Note_on_c, 9, 25, 0
11, 33480, Note_on_c, 9, 69, 75
11, 33508, Note_on_c, 9, 69, 0
11, 33538, Note_on_c, 9, 69, 75
11, 33566, Note_on_c, 9, 69, 0
11, 33600, Note_on_c, 9, 33, 100
11, 33600, Note_on_c, 9, 69, 75
11, 33628, Note_on_c, 9, 69, 0
11, 33654, Note_on_c, 9, 33, 0
11, 33718, Note_on_c, 9, 69, 75
11, 33746, Note_on_c, 9, 69, 0
11, 33778, Note_on_c, 9, 69, 75
11, 33806, Note_on_c, 9, 69, 0
11, 33838, Note_on_c, 9, 69, 75
11, 33840, Note_on_c, 9, 25, 78
11, 33840, Note_on_c, 9, 54, 70
11, 33866, Note_on_c, 9, 69, 0
11, 33868, Note_on_c, 9, 54, 0
11, 33868, Note_on_c, 9, 25, 0
11, 33959, Note_on_c, 9, 69, 75
11, 33960, Note_on_c, 9, 33, 100
11, 33987, Note_on_c, 9, 69, 0
11, 34014, Note_on_c, 9, 33, 0
11, 34018, Note_on_c, 9, 69, 75
11, 34046, Note_on_c, 9, 69, 0
11, 34080, Note_on_c, 9, 33, 100
11, 34081, Note_on_c, 9, 69, 75
11, 34109, Note_on_c, 9, 69, 0
11, 34134, Note_on_c, 9, 33, 0
11, 34198, Note_on_c, 9, 69, 75
11, 34226, Note_on_c, 9, 69, 0
11, 34258, Note_on_c, 9, 69, 75
11, 34286, Note_on_c, 9, 69, 0
11, 34318, Note_on_c, 9, 69, 75
11, 34320, Note_on_c, 9, 25, 78
11, 34320, Note_on_c, 9, 54, 70
11, 34346, Note_on_c, 9, 69, 0
11, 34348, Note_on_c, 9, 54, 0
11, 34348, Note_on_c, 9, 25, 0
11, 34440, Note_on_c, 9, 69, 75
11, 34468, Note_on_c, 9, 69, 0
11, 34499, Note_on_c, 9, 69, 75
11, 34527, Note_on_c, 9, 69, 0
11, 34560, Note_on_c, 9, 33, 100
11, 34561, Note_on_c, 9, 69, 75
11, 34589, Note_on_c, 9, 69, 0
11, 34614, Note_on_c, 9, 33, 0
11, 34678, Note_on_c, 9, 69, 75
11, 34706, Note_on_c, 9, 69, 0
11, 34738, Note_on_c, 9, 69, 75
11, 34766, Note_on_c, 9, 69, 0
11, 34798, Note_on_c, 9, 69, 75
11, 34800, Note_on_c, 9, 25, 78
11, 34800, Note_on_c, 9, 54, 70
11, 34826, Note_on_c, 9, 69, 0
11, 34828, Note_on_c, 9, 54, 0
11, 34828, Note_on_c, 9, 25, 0
11, 34919, Note_on_c, 9, 69, 75
11, 34920, Note_on_c, 9, 33, 100
11, 34947, Note_on_c, 9, 69, 0
11, 34974, Note_on_c, 9, 33, 0
11, 34979, Note_on_c, 9, 69, 75
11, 35007, Note_on_c, 9, 69, 0
11, 35040, Note_on_c, 9, 33, 100
11, 35041, Note_on_c, 9, 69, 75
11, 35069, Note_on_c, 9, 69, 0
11, 35094, Note_on_c, 9, 33, 0
11, 35158, Note_on_c, 9, 69, 75
11, 35186, Note_on_c, 9, 69, 0
11, 35218, Note_on_c, 9, 69, 75
11, 35246, Note_on_c, 9, 69, 0
11, 35278, Note_on_c, 9, 69, 75
11, 35280, Note_on_c, 9, 25, 78
11, 35280, Note_on_c, 9, 54, 70
11, 35306, Note_on_c, 9, 69, 0
11, 35308, Note_on_c, 9, 54, 0
11, 35308, Note_on_c, 9, 25, 0
11, 35400, Note_on_c, 9, 69, 75
11, 35428, Note_on_c, 9, 69, 0
11, 35458, Note_on_c, 9, 69, 75
11, 35486, Note_on_c, 9, 69, 0
11, 35520, Note_on_c, 9, 33, 100
11, 35520, Note_on_c, 9, 69, 75
11, 35548, Note_on_c, 9, 69, 0
11, 35574, Note_on_c, 9, 33, 0
11, 35638, Note_on_c, 9, 69, 75
11, 35666, Note_on_c, 9, 69, 0
11, 35698, Note_on_c, 9, 69, 75
11, 35726, Note_on_c, 9, 69, 0
11, 35758, Note_on_c, 9, 69, 75
11, 35760, Note_on_c, 9, 25, 78
11, 35760, Note_on_c, 9, 54, 70
11, 35786, Note_on_c, 9, 69, 0
11, 35788, Note_on_c, 9, 54, 0
11, 35788, Note_on_c, 9, 25, 0
11, 35879, Note_on_c, 9, 69, 75
11, 35880, Note_on_c, 9, 33, 100
11, 35907, Note_on_c, 9, 69, 0
11, 35934, Note_on_c, 9, 33, 0
11, 35938, Note_on_c, 9, 69, 75
11, 35966, Note_on_c, 9, 69, 0
11, 36000, Note_on_c, 9, 33, 100
11, 36001, Note_on_c, 9, 69, 75
11, 36029, Note_on_c, 9, 69, 0
11, 36054, Note_on_c, 9, 33, 0
11, 36118, Note_on_c, 9, 69, 75
11, 36146, Note_on_c, 9, 69, 0
11, 36178, Note_on_c, 9, 69, 75
11, 36206, Note_on_c, 9, 69, 0
11, 36238, Note_on_c, 9, 69, 75
11, 36240, Note_on_c, 9, 25, 78
11, 36240, Note_on_c, 9, 54, 70
11, 36266, Note_on_c, 9, 69, 0
11, 36268, Note_on_c, 9, 54, 0
11, 36268, Note_on_c, 9, 25, 0
11, 36360, Note_on_c, 9, 69, 75
11, 36388, Note_on_c, 9, 69, 0
11, 36419, Note_on_c, 9, 69, 75
11, 36447, Note_on_c, 9, 69, 0
11, 36480, Note_on_c, 9, 33, 100
11, 36481, Note_on_c, 9, 69, 75
11, 36509, Note_on_c, 9, 69, 0
11, 36534, Note_on_c, 9, 33, 0
11, 36598, Note_on_c, 9, 69, 75
11, 36626, Note_on_c, 9, 69, 0
11, 36658, Note_on_c, 9, 69, 75
11, 36686, Note_on_c, 9, 69, 0
11, 36718, Note_on_c, 9, 69, 75
11, 36720, Note_on_c, 9, 25, 78
11, 36720, Note_on_c, 9, 54, 70
11, 36746, Note_on_c, 9, 69, 0
11, 36748, Note_on_c, 9, 54, 0
11, 36748, Note_on_c, 9, 25, 0
11, 36839, Note_on_c, 9, 69, 75
11, 36840, Note_on_c, 9, 33, 100
11, 36867, Note_on_c, 9, 69, 0
11, 36894, Note_on_c, 9, 33, 0
11, 36899, Note_on_c, 9, 69, 75
11, 36927, Note_on_c, 9, 69, 0
11, 36960, Note_on_c, 9, 33, 100
11, 36961, Note_on_c, 9, 69, 75
11, 36989, Note_on_c, 9, 69, 0
11, 37014, Note_on_c, 9, 33, 0
11, 37078, Note_on_c, 9, 69, 75
11, 37106, Note_on_c, 9, 69, 0
11, 37138, Note_on_c, 9, 69, 75
11, 37166, Note_on_c, 9, 69, 0
11, 37198, Note_on_c, 9, 69, 75
11, 37200, Note_on_c, 9, 25, 78
11, 37200, Note_on_c, 9, 54, 70
11, 37226, Note_on_c, 9, 69, 0
11, 37228, Note_on_c, 9, 54, 0
11, 37228, Note_on_c, 9, 25, 0
11, 37320, Note_on_c, 9, 69, 75
11, 37348, Note_on_c, 9, 69, 0
11, 37378, Note_on_c, 9, 69, 75
11, 37406, Note_on_c, 9, 69, 0
11, 37440, Note_on_c, 9, 33, 100
11, 37440, Note_on_c, 9, 69, 75
11, 37468, Note_on_c, 9, 69, 0
11, 37494, Note_on_c, 9, 33, 0
11, 37558, Note_on_c, 9, 69, 75
11, 37586, Note_on_c, 9, 69, 0
11, 37618, Note_on_c, 9, 69, 75
11, 37646, Note_on_c, 9, 69, 0
11, 37678, Note_on_c, 9, 69, 75
11, 37680, Note_on_c, 9, 25, 78
11, 37680, Note_on_c, 9, 54, 70
11, 37706, Note_on_c, 9, 69, 0
11, 37708, Note_on_c, 9, 54, 0
11, 37708, Note_on_c, 9, 25, 0
11, 37799, Note_on_c, 9, 69, 75
11, 37800, Note_on_c, 9, 33, 100
11, 37827, Note_on_c, 9, 69, 0
11, 37854, Note_on_c, 9, 33, 0
11, 37858, Note_on_c, 9, 69, 75
11, 37886, Note_on_c, 9, 69, 0
11, 37920, Note_on_c, 9, 33, 100
11, 37921, Note_on_c, 9, 69, 75
11, 37949, Note_on_c, 9, 69, 0
11, 37974, Note_on_c, 9, 33, 0
11, 38038, Note_on_c, 9, 69, 75
11, 38066, Note_on_c, 9, 69, 0
11, 38098, Note_on_c, 9, 69, 75
11, 38126, Note_on_c, 9, 69, 0
11, 38158, Note_on_c, 9, 69, 75
11, 38160, Note_on_c, 9, 25, 78
11, 38160, Note_on_c, 9, 54, 70
11, 38186, Note_on_c, 9, 69, 0
11, 38188, Note_on_c, 9, 54, 0
11, 38188, Note_on_c, 9, 25, 0
11, 38280, Note_on_c, 9, 69, 75
11, 38308, Note_on_c, 9, 69, 0
11, 38339, Note_on_c, 9, 69, 75
11, 38367, Note_on_c, 9, 69, 0
11, 38400, Note_on_c, 9, 33, 100
11, 38401, Note_on_c, 9, 69, 75
11, 38429, Note_on_c, 9, 69, 0
11, 38454, Note_on_c, 9, 33, 0
11, 38518, Note_on_c, 9, 69, 75
11, 38546, Note_on_c, 9, 69, 0
11, 38578, Note_on_c, 9, 69, 75
11, 38606, Note_on_c, 9, 69, 0
11, 38638, Note_on_c, 9, 69, 75
11, 38640, Note_on_c, 9, 25, 78
11, 38640, Note_on_c, 9, 54, 70
11, 38666, Note_on_c, 9, 69, 0
11, 38668, Note_on_c, 9, 54, 0
11, 38668, Note_on_c, 9, 25, 0
11, 38759, Note_on_c, 9, 69, 75
11, 38760, Note_on_c, 9, 33, 100
11, 38787, Note_on_c, 9, 69, 0
11, 38814, Note_on_c, 9, 33, 0
11, 38819, Note_on_c, 9, 69, 75
11, 38847, Note_on_c, 9, 69, 0
11, 38880, Note_on_c, 9, 33, 100
11, 38881, Note_on_c, 9, 69, 75
11, 38909, Note_on_c, 9, 69, 0
11, 38934, Note_on_c, 9, 33, 0
11, 38998, Note_on_c, 9, 69, 75
11, 39026, Note_on_c, 9, 69, 0
11, 39058, Note_on_c, 9, 69, 75
11, 39086, Note_on_c, 9, 69, 0
11, 39118, Note_on_c, 9, 69, 75
11, 39120, Note_on_c, 9, 25, 78
11, 39120, Note_on_c, 9, 54, 70
11, 39146, Note_on_c, 9, 69, 0
11, 39148, Note_on_c, 9, 54, 0
11, 39148, Note_on_c, 9, 25, 0
11, 39240, Note_on_c, 9, 69, 75
11, 39268, Note_on_c, 9, 69, 0
11, 39298, Note_on_c, 9, 69, 75
11, 39326, Note_on_c, 9, 69, 0
11, 39360, Note_on_c, 9, 33, 100
11, 39360, Note_on_c, 9, 69, 75
11, 39388, Note_on_c, 9, 69, 0
11, 39414, Note_on_c, 9, 33, 0
11, 39478, Note_on_c, 9, 69, 75
11, 39506, Note_on_c, 9, 69, 0
11, 39538, Note_on_c, 9, 69, 75
11, 39566, Note_on_c, 9, 69, 0
11, 39598, Note_on_c, 9, 69, 75
11, 39600, Note_on_c, 9, 25, 78
11, 39600, Note_on_c, 9, 54, 70
11, 39626, Note_on_c, 9, 69, 0
11, 39628, Note_on_c, 9, 54, 0
11, 39628, Note_on_c, 9, 25, 0
11, 39719, Note_on_c, 9, 69, 75
11, 39720, Note_on_c, 9, 33, 100
11, 39747, Note_on_c, 9, 69, 0
11, 39774, Note_on_c, 9, 33, 0
11, 39778, Note_on_c, 9, 69, 75
11, 39806, Note_on_c, 9, 69, 0
11, 39840, Note_on_c, 9, 33, 100
11, 39841, Note_on_c, 9, 69, 75
11, 39869, Note_on_c, 9, 69, 0
11, 39894, Note_on_c, 9, 33, 0
11, 39958, Note_on_c, 9, 69, 75
11, 39986, Note_on_c, 9, 69, 0
11, 40018, Note_on_c, 9, 69, 75
11, 40046, Note_on_c, 9, 69, 0
11, 40078, Note_on_c, 9, 69, 75
11, 40080, Note_on_c, 9, 25, 78
11, 40080, Note_on_c, 9, 54, 70
11, 40106, Note_on_c, 9, 69, 0
11, 40108, Note_on_c, 9, 54, 0
11, 40108, Note_on_c, 9, 25, 0
11, 40200, Note_on_c, 9, 69, 75
11, 40228, Note_on_c, 9, 69, 0
11, 40259, Note_on_c, 9, 69, 75
11, 40287, Note_on_c, 9, 69, 0
11, 40320, Note_on_c, 9, 33, 100
11, 40321, Note_on_c, 9, 69, 75
11, 40349, Note_on_c, 9, 69, 0
11, 40374, Note_on_c, 9, 33, 0
11, 40438, Note_on_c, 9, 69, 75
11, 40466, Note_on_c, 9, 69, 0
11, 40498, Note_on_c, 9, 69, 75
11, 40526, Note_on_c, 9, 69, 0
11, 40558, Note_on_c, 9, 69, 75
11, 40560, Note_on_c, 9, 25, 78
11, 40560, Note_on_c, 9, 54, 70
11, 40586, Note_on_c, 9, 69, 0
11, 40588, Note_on_c, 9, 54, 0
11, 40588, Note_on_c, 9, 25, 0
11, 40679, Note_on_c, 9, 69, 75
11, 40680, Note_on_c, 9, 33, 100
11, 40707, Note_on_c, 9, 69, 0
11, 40734, Note_on_c, 9, 33, 0
11, 40739, Note_on_c, 9, 69, 75
11, 40767, Note_on_c, 9, 69, 0
11, 40800, Note_on_c, 9, 33, 100
11, 40801, Note_on_c, 9, 69, 75
11, 40829, Note_on_c, 9, 69, 0
11, 40854, Note_on_c, 9, 33, 0
11, 40918, Note_on_c, 9, 69, 75
11, 40946, Note_on_c, 9, 69, 0
11, 40978, Note_on_c, 9, 69, 75
11, 41006, Note_on_c, 9, 69, 0
11, 41038, Note_on_c, 9, 69, 75
11, 41040, Note_on_c, 9, 25, 78
11, 41040, Note_on_c, 9, 54, 70
11, 41066, Note_on_c, 9, 69, 0
11, 41068, Note_on_c, 9, 54, 0
11, 41068, Note_on_c, 9, 25, 0
11, 41160, Note_on_c, 9, 69, 75
11, 41188, Note_on_c, 9, 69, 0
11, 41218, Note_on_c, 9, 69, 75
11, 41246, Note_on_c, 9, 69, 0
11, 41280, Note_on_c, 9, 33, 100
11, 41280, Note_on_c, 9, 69, 75
11, 41308, Note_on_c, 9, 69, 0
11, 41334, Note_on_c, 9, 33, 0
11, 41398, Note_on_c, 9, 69, 75
11, 41426, Note_on_c, 9, 69, 0
11, 41458, Note_on_c, 9, 69, 75
11, 41486, Note_on_c, 9, 69, 0
11, 41518, Note_on_c, 9, 69, 75
11, 41520, Note_on_c, 9, 25, 78
11, 41520, Note_on_c, 9, 54, 70
11, 41546, Note_on_c, 9, 69, 0
11, 41548, Note_on_c, 9, 54, 0
11, 41548, Note_on_c, 9, 25, 0
11, 41639, Note_on_c, 9, 69, 75
11, 41640, Note_on_c, 9, 33, 100
11, 41667, Note_on_c, 9, 69, 0
11, 41694, Note_on_c, 9, 33, 0
11, 41698, Note_on_c, 9, 69, 75
11, 41726, Note_on_c, 9, 69, 0
11, 41760, Note_on_c, 9, 33, 100
11, 41761, Note_on_c, 9, 69, 75
11, 41789, Note_on_c, 9, 69, 0
11, 41814, Note_on_c, 9, 33, 0
11, 41878, Note_on_c, 9, 69, 75
11, 41906, Note_on_c, 9, 69, 0
11, 41938, Note_on_c, 9, 69, 75
11, 41966, Note_on_c, 9, 69, 0
11, 41998, Note_on_c, 9, 69, 75
11, 42000, Note_on_c, 9, 25, 78
11, 42000, Note_on_c, 9, 54, 70
11, 42026, Note_on_c, 9, 69, 0
11, 42028, Note_on_c, 9, 54, 0
11, 42028, Note_on_c, 9, 25, 0
11, 42120, Note_on_c, 9, 69, 75
11, 42148, Note_on_c, 9, 69, 0
11, 42179, Note_on_c, 9, 69, 75
11, 42207, Note_on_c, 9, 69, 0
11, 42240, Note_on_c, 9, 33, 100
11, 42241, Note_on_c, 9, 69, 75
11, 42269, Note_on_c, 9, 69, 0
11, 42294, Note_on_c, 9, 33, 0
11, 42358, Note_on_c, 9, 69, 75
11, 42386, Note_on_c, 9, 69, 0
11, 42418, Note_on_c, 9, 69, 75
11, 42446, Note_on_c, 9, 69, 0
11, 42478, Note_on_c, 9, 69, 75
11, 42480, Note_on_c, 9, 25, 78
11, 42480, Note_on_c, 9, 54, 70
11, 42506, Note_on_c, 9, 69, 0
11, 42508, Note_on_c, 9, 54, 0
11, 42508, Note_on_c, 9, 25, 0
11, 42599, Note_on_c, 9, 69, 75
11, 42600, Note_on_c, 9, 33, 100
11, 42627, Note_on_c, 9, 69, 0
11, 42654, Note_on_c, 9, 33, 0
11, 42659, Note_on_c, 9, 69, 75
11, 42687, Note_on_c, 9, 69, 0
11, 42720, Note_on_c, 9, 33, 100
11, 42721, Note_on_c, 9, 69, 75
11, 42749, Note_on_c, 9, 69, 0
11, 42774, Note_on_c, 9, 33, 0
11, 42838, Note_on_c, 9, 69, 75
11, 42866, Note_on_c, 9, 69, 0
11, 42898, Note_on_c, 9, 69, 75
11, 42926, Note_on_c, 9, 69, 0
11, 42958, Note_on_c, 9, 69, 75
11, 42960, Note_on_c, 9, 25, 78
11, 42960, Note_on_c, 9, 54, 70
11, 42986, Note_on_c, 9, 69, 0
11, 42988, Note_on_c, 9, 54, 0
11, 42988, Note_on_c, 9, 25, 0
11, 43080, Note_on_c, 9, 69, 75
11, 43108, Note_on_c, 9, 69, 0
11, 43138, Note_on_c, 9, 69, 75
11, 43166, Note_on_c, 9, 69, 0
11, 43200, Note_on_c, 9, 33, 100
11, 43200, Note_on_c, 9, 69, 75
11, 43228, Note_on_c, 9, 69, 0
11, 43254, Note_on_c, 9, 33, 0
11, 43318, Note_on_c, 9, 69, 75
11, 43346, Note_on_c, 9, 69, 0
11, 43378, Note_on_c, 9, 69, 75
11, 43406, Note_on_c, 9, 69, 0
11, 43438, Note_on_c, 9, 69, 75
11, 43440, Note_on_c, 9, 25, 78
11, 43440, Note_on_c, 9, 54, 70
11, 43466, Note_on_c, 9, 69, 0
11, 43468, Note_on_c, 9, 54, 0
11, 43468, Note_on_c, 9, 25, 0
11, 43559, Note_on_c, 9, 69, 75
11, 43560, Note_on_c, 9, 33, 100
11, 43587, Note_on_c, 9, 69, 0
11, 43614, Note_on_c, 9, 33, 0
11, 43618, Note_on_c, 9, 69, 75
11, 43646, Note_on_c, 9, 69, 0
11, 43680, Note_on_c, 9, 33, 100
11, 43681, Note_on_c, 9, 69, 75
11, 43709, Note_on_c, 9, 69, 0
11, 43734, Note_on_c, 9, 33, 0
11, 43798, Note_on_c, 9, 69, 75
11, 43826, Note_on_c, 9, 69, 0
11, 43858, Note_on_c, 9, 69, 75
11, 43886, Note_on_c, 9, 69, 0
11, 43918, Note_on_c, 9, 69, 75
11, 43920, Note_on_c, 9, 25, 78
11, 43920, Note_on_c, 9, 54, 70
11, 43946, Note_on_c, 9, 69, 0
11, 43948, Note_on_c, 9, 54, 0
11, 43948, Note_on_c, 9, 25, 0
11, 44040, Note_on_c, 9, 69, 75
11, 44068, Note_on_c, 9, 69, 0
11, 44099, Note_on_c, 9, 69, 75
11, 44127, Note_on_c, 9, 69, 0
11, 44160, Note_on_c, 9, 33, 100
11, 44161, Note_on_c, 9, 69, 75
11, 44189, Note_on_c, 9, 69, 0
11, 44214, Note_on_c, 9, 33, 0
11, 44278, Note_on_c, 9, 69, 75
11, 44306, Note_on_c, 9, 69, 0
11, 44338, Note_on_c, 9, 69, 75
11, 44366, Note_on_c, 9, 69, 0
11, 44398, Note_on_c, 9, 69, 75
11, 44400, Note_on_c, 9, 25, 78
11, 44400, Note_on_c, 9, 54, 70
11, 44426, Note_on_c, 9, 69, 0
11, 44428, Note_on_c, 9, 54, 0
11, 44428, Note_on_c, 9, 25, 0
11, 44519, Note_on_c, 9, 69, 75
11, 44520, Note_on_c, 9, 33, 100
11, 44547, Note_on_c, 9, 69, 0
11, 44574, Note_on_c, 9, 33, 0
11, 44579, Note_on_c, 9, 69, 75
11, 44607, Note_on_c, 9, 69, 0
11, 44640, Note_on_c, 9, 33, 100
11, 44641, Note_on_c, 9, 69, 75
11, 44669, Note_on_c, 9, 69, 0
11, 44694, Note_on_c, 9, 33, 0
11, 44758, Note_on_c, 9, 69, 75
11, 44786, Note_on_c, 9, 69, 0
11, 44818, Note_on_c, 9, 69, 75
11, 44846, Note_on_c, 9, 69, 0
11, 44878, Note_on_c, 9, 69, 75
11, 44880, Note_on_c, 9, 25, 78
11, 44880, Note_on_c, 9, 54, 70
11, 44906, Note_on_c, 9, 69, 0
11, 44908, Note_on_c, 9, 54, 0
11, 44908, Note_on_c, 9, 25, 0
11, 45000, Note_on_c, 9, 69, 75
11, 45028, Note_on_c, 9, 69, 0
11, 45058, Note_on_c, 9, 69, 75
11, 45086, Note_on_c, 9, 69, 0
11, 45120, Note_on_c, 9, 33, 100
11, 45120, Note_on_c, 9, 69, 75
11, 45148, Note_on_c, 9, 69, 0
11, 45174, Note_on_c, 9, 33, 0
11, 45238, Note_on_c, 9, 69, 75
11, 45266, Note_on_c, 9, 69, 0
11, 45298, Note_on_c, 9, 69, 75
11, 45326, Note_on_c, 9, 69, 0
11, 45358, Note_on_c, 9, 69, 75
11, 45360, Note_on_c, 9, 25, 78
11, 45360, Note_on_c, 9, 54, 70
11, 45386, Note_on_c, 9, 69, 0
11, 45388, Note_on_c, 9, 54, 0
11, 45388, Note_on_c, 9, 25, 0
11, 45479, Note_on_c, 9, 69, 75
11, 45480, Note_on_c, 9, 33, 100
11, 45507, Note_on_c, 9, 69, 0
11, 45534, Note_on_c, 9, 33, 0
11, 45538, Note_on_c, 9, 69, 75
11, 45566, Note_on_c, 9, 69, 0
11, 45600, Note_on_c, 9, 33, 100
11, 45601, Note_on_c, 9, 69, 75
11, 45629, Note_on_c, 9, 69, 0
11, 45654, Note_on_c, 9, 33, 0
11, 45718, Note_on_c, 9, 69, 75
11, 45746, Note_on_c, 9, 69, 0
11, 45778, Note_on_c, 9, 69, 75
11, 45806, Note_on_c, 9, 69, 0
11, 45838, Note_on_c, 9, 69, 75
11, 45840, Note_on_c, 9, 25, 78
11, 45840, Note_on_c, 9, 54, 70
11, 45866, Note_on_c, 9, 69, 0
11, 45868, Note_on_c, 9, 54, 0
11, 45868, Note_on_c, 9, 25, 0
11, 45960, Note_on_c, 9, 69, 75
11, 45988, Note_on_c, 9, 69, 0
11, 46019, Note_on_c, 9, 69, 75
11, 46047, Note_on_c, 9, 69, 0
11, 46080, Note_on_c, 9, 33, 100
11, 46081, Note_on_c, 9, 69, 75
11, 46109, Note_on_c, 9, 69, 0
11, 46134, Note_on_c, 9, 33, 0
11, 46198, Note_on_c, 9, 69, 75
11, 46226, Note_on_c, 9, 69, 0
11, 46258, Note_on_c, 9, 69, 75
11, 46286, Note_on_c, 9, 69, 0
11, 46318, Note_on_c, 9, 69, 75
11, 46320, Note_on_c, 9, 25, 78
11, 46320, Note_on_c, 9, 54, 70
11, 46346, Note_on_c, 9, 69, 0
11, 46348, Note_on_c, 9, 54, 0
11, 46348, Note_on_c, 9, 25, 0
11, 46439, Note_on_c, 9, 69, 75
11, 46440, Note_on_c, 9, 33, 100
11, 46467, Note_on_c, 9, 69, 0
11, 46494, Note_on_c, 9, 33, 0
11, 46499, Note_on_c, 9, 69, 75
11, 46527, Note_on_c, 9, 69, 0
11, 46560, Note_on_c, 9, 33, 100
11, 46561, Note_on_c, 9, 69, 75
11, 46589, Note_on_c, 9, 69, 0
11, 46614, Note_on_c, 9, 33, 0
11, 46678, Note_on_c, 9, 69, 75
11, 46706, Note_on_c, 9, 69, 0
11, 46738, Note_on_c, 9, 69, 75
11, 46766, Note_on_c, 9, 69, 0
11, 46798, Note_on_c, 9, 69, 75
11, 46800, Note_on_c, 9, 25, 78
11, 46800, Note_on_c, 9, 54, 70
11, 46826, Note_on_c, 9, 69, 0
11, 46828, Note_on_c, 9, 54, 0
11, 46828, Note_on_c, 9, 25, 0
11, 46920, Note_on_c, 9, 69, 75
11, 46948, Note_on_c, 9, 69, 0
11, 46978, Note_on_c, 9, 69, 75
11, 47006, Note_on_c, 9, 69, 0
11, 47040, Note_on_c, 9, 33, 100
11, 47040, Note_on_c, 9, 69, 75
11, 47068, Note_on_c, 9, 69, 0
11, 47094, Note_on_c, 9, 33, 0
11, 47158, Note_on_c, 9, 69, 75
11, 47186, Note_on_c, 9, 69, 0
11, 47218, Note_on_c, 9, 69, 75
11, 47246, Note_on_c, 9, 69, 0
11, 47278, Note_on_c, 9, 69, 75
11, 47280, Note_on_c, 9, 25, 78
11, 47280, Note_on_c, 9, 54, 70
11, 47306, Note_on_c, 9, 69, 0
11, 47308, Note_on_c, 9, 54, 0
11, 47308, Note_on_c, 9, 25, 0
11, 47399, Note_on_c, 9, 69, 75
11, 47400, Note_on_c, 9, 33, 100
11, 47427, Note_on_c, 9, 69, 0
11, 47454, Note_on_c, 9, 33, 0
11, 47458, Note_on_c, 9, 69, 75
11, 47486, Note_on_c, 9, 69, 0
11, 47520, Note_on_c, 9, 33, 100
11, 47521, Note_on_c, 9, 69, 75
11, 47549, Note_on_c, 9, 69, 0
11, 47574, Note_on_c, 9, 33, 0
11, 47638, Note_on_c, 9, 69, 75
11, 47666, Note_on_c, 9, 69, 0
11, 47698, Note_on_c, 9, 69, 75
11, 47726, Note_on_c, 9, 69, 0
11, 47758, Note_on_c, 9, 69, 75
11, 47760, Note_on_c, 9, 25, 78
11, 47760, Note_on_c, 9, 54, 70
11, 47786, Note_on_c, 9, 69, 0
11, 47788, Note_on_c, 9, 54, 0
11, 47788, Note_on_c, 9, 25, 0
11, 47880, Note_on_c, 9, 69, 75
11, 47908, Note_on_c, 9, 69, 0
11, 47939, Note_on_c, 9, 69, 75
11, 47967, Note_on_c, 9, 69, 0
11, 48000, Note_on_c, 9, 33, 100
11, 48001, Note_on_c, 9, 69, 75
11, 48029, Note_on_c, 9, 69, 0
11, 48054, Note_on_c, 9, 33, 0
11, 48118, Note_on_c, 9, 69, 75
11, 48146, Note_on_c, 9, 69, 0
11, 48178, Note_on_c, 9, 69, 75
11, 48206, Note_on_c, 9, 69, 0
11, 48238, Note_on_c, 9, 69, 75
11, 48240, Note_on_c, 9, 25, 78
11, 48240, Note_on_c, 9, 54, 70
11, 48266, Note_on_c, 9, 69, 0
11, 48268, Note_on_c, 9, 54, 0
11, 48268, Note_on_c, 9, 25, 0
11, 48359, Note_on_c, 9, 69, 75
11, 48360, Note_on_c, 9, 33, 100
11, 48387, Note_on_c, 9, 69, 0
11, 48414, Note_on_c, 9, 33, 0
11, 48419, Note_on_c, 9, 69, 75
11, 48447, Note_on_c, 9, 69, 0
11, 48480, Note_on_c, 9, 33, 100
11, 48481, Note_on_c, 9, 69, 75
11, 48509, Note_on_c, 9, 69, 0
11, 48534, Note_on_c, 9, 33, 0
11, 48598, Note_on_c, 9, 69, 75
11, 48626, Note_on_c, 9, 69, 0
11, 48658, Note_on_c, 9, 69, 75
11, 48686, Note_on_c, 9, 69, 0
11, 48718, Note_on_c, 9, 69, 75
11, 48720, Note_on_c, 9, 25, 78
11, 48720, Note_on_c, 9, 54, 70
11, 48746, Note_on_c, 9, 69, 0
11, 48748, Note_on_c, 9, 54, 0
11, 48748, Note_on_c, 9, 25, 0
11, 48840, Note_on_c, 9, 69, 75
11, 48868, Note_on_c, 9, 69, 0
11, 48898, Note_on_c, 9, 69, 75
11, 48926, Note_on_c, 9, 69, 0
11, 48960, Note_on_c, 9, 33, 100
11, 48960, Note_on_c, 9, 69, 75
11, 48988, Note_on_c, 9, 69, 0
11, 49014, Note_on_c, 9, 33, 0
11, 49078, Note_on_c, 9, 69, 75
11, 49106, Note_on_c, 9, 69, 0
11, 49138, Note_on_c, 9, 69, 75
11, 49166, Note_on_c, 9, 69, 0
11, 49198, Note_on_c, 9, 69, 75
11, 49200, Note_on_c, 9, 25, 78
11, 49200, Note_on_c, 9, 54, 70
11, 49226, Note_on_c, 9, 69, 0
11, 49228, Note_on_c, 9, 54, 0
11, 49228, Note_on_c, 9, 25, 0
11, 49319, Note_on_c, 9, 69, 75
11, 49320, Note_on_c, 9, 33, 100
11, 49347, Note_on_c, 9, 69, 0
11, 49374, Note_on_c, 9, 33, 0
11, 49378, Note_on_c, 9, 69, 75
11, 49406, Note_on_c, 9, 69, 0
11, 49440, Note_on_c, 9, 33, 100
11, 49441, Note_on_c, 9, 69, 75
11, 49469, Note_on_c, 9, 69, 0
11, 49494, Note_on_c, 9, 33, 0
11, 49558, Note_on_c, 9, 69, 75
11, 49586, Note_on_c, 9, 69, 0
11, 49618, Note_on_c, 9, 69, 75
11, 49646, Note_on_c, 9, 69, 0
11, 49678, Note_on_c, 9, 69, 75
11, 49680, Note_on_c, 9, 25, 78
11, 49680, Note_on_c, 9, 54, 70
11, 49706, Note_on_c, 9, 69, 0
11, 49708, Note_on_c, 9, 54, 0
11, 49708, Note_on_c, 9, 25, 0
11, 49800, Note_on_c, 9, 69, 75
11, 49828, Note_on_c, 9, 69, 0
11, 49859, Note_on_c, 9, 69, 75
11, 49887, Note_on_c, 9, 69, 0
11, 49920, Note_on_c, 9, 33, 100
11, 49921, Note_on_c, 9, 69, 75
11, 49949, Note_on_c, 9, 69, 0
11, 49974, Note_on_c, 9, 33, 0
11, 50038, Note_on_c, 9, 69, 75
11, 50066, Note_on_c, 9, 69, 0
11, 50098, Note_on_c, 9, 69, 75
11, 50126, Note_on_c, 9, 69, 0
11, 50158, Note_on_c, 9, 69, 75
11, 50160, Note_on_c, 9, 25, 78
11, 50160, Note_on_c, 9, 54, 70
11, 50186, Note_on_c, 9, 69, 0
11, 50188, Note_on_c, 9, 54, 0
11, 50188, Note_on_c, 9, 25, 0
11, 50279, Note_on_c, 9, 69, 75
11, 50280, Note_on_c, 9, 33, 100
11, 50307, Note_on_c, 9, 69, 0
11, 50334, Note_on_c, 9, 33, 0
11, 50339, Note_on_c, 9, 69, 75
11, 50367, Note_on_c, 9, 69, 0
11, 50400, Note_on_c, 9, 33, 100
11, 50401, Note_on_c, 9, 69, 75
11, 50429, Note_on_c, 9, 69, 0
11, 50454, Note_on_c, 9, 33, 0
11, 50518, Note_on_c, 9, 69, 75
11, 50546, Note_on_c, 9, 69, 0
11, 50578, Note_on_c, 9, 69, 75
11, 50606, Note_on_c, 9, 69, 0
11, 50638, Note_on_c, 9, 69, 75
11, 50640, Note_on_c, 9, 25, 78
11, 50640, Note_on_c, 9, 54, 70
11, 50666, Note_on_c, 9, 69, 0
11, 50668, Note_on_c, 9, 54, 0
11, 50668, Note_on_c, 9, 25, 0
11, 50760, Note_on_c, 9, 69, 75
11, 50788, Note_on_c, 9, 69, 0
11, 50818, Note_on_c, 9, 69, 75
11, 50846, Note_on_c, 9, 69, 0
11, 50880, Note_on_c, 9, 33, 100
11, 50880, Note_on_c, 9, 69, 75
11, 50908, Note_on_c, 9, 69, 0
11, 50934, Note_on_c, 9, 33, 0
11, 50998, Note_on_c, 9, 69, 75
11, 51026, Note_on_c, 9, 69, 0
11, 51058, Note_on_c, 9, 69, 75
11, 51086, Note_on_c, 9, 69, 0
11, 51118, Note_on_c, 9, 69, 75
11, 51120, Note_on_c, 9, 25, 78
11, 51120, Note_on_c, 9, 54, 70
11, 51146, Note_on_c, 9, 69, 0
11, 51148, Note_on_c, 9, 54, 0
11, 51148, Note_on_c, 9, 25, 0
11, 51239, Note_on_c, 9, 69, 75
11, 51240, Note_on_c, 9, 33, 100
11, 51267, Note_on_c, 9, 69, 0
11, 51294, Note_on_c, 9, 33, 0
11, 51298, Note_on_c, 9, 69, 75
11, 51326, Note_on_c, 9, 69, 0
11, 51360, Note_on_c, 9, 33, 100
11, 51361, Note_on_c, 9, 69, 75
11, 51389, Note_on_c, 9, 69, 0
11, 51414, Note_on_c, 9, 33, 0
11, 51478, Note_on_c, 9, 69, 75
11, 51506, Note_on_c, 9, 69, 0
11, 51538, Note_on_c, 9, 69, 75
11, 51566, Note_on_c, 9, 69, 0
11, 51598, Note_on_c, 9, 69, 75
11, 51600, Note_on_c, 9, 25, 78
11, 51600, Note_on_c, 9, 54, 70
11, 51626, Note_on_c, 9, 69, 0
11, 51628, Note_on_c, 9, 54, 0
11, 51628, Note_on_c, 9, 25, 0
11, 51720, Note_on_c, 9, 69, 75
11, 51748, Note_on_c, 9, 69, 0
11, 51779, Note_on_c, 9, 69, 75
11, 51807, Note_on_c, 9, 69, 0
11, 51840, Note_on_c, 9, 33, 100
11, 51841, Note_on_c, 9, 69, 75
11, 51869, Note_on_c, 9, 69, 0
11, 51894, Note_on_c, 9, 33, 0
11, 51958, Note_on_c, 9, 69, 75
11, 51986, Note_on_c, 9, 69, 0
11, 52018, Note_on_c, 9, 69, 75
11, 52046, Note_on_c, 9, 69, 0
11, 52078, Note_on_c, 9, 69, 75
11, 52080, Note_on_c, 9, 25, 78
11, 52080, Note_on_c, 9, 54, 70
11, 52106, Note_on_c, 9, 69, 0
11, 52108, Note_on_c, 9, 54, 0
11, 52108, Note_on_c, 9, 25, 0
11, 52199, Note_on_c, 9, 69, 75
11, 52200, Note_on_c, 9, 33, 100
11, 52227, Note_on_c, 9, 69, 0
11, 52254, Note_on_c, 9, 33, 0
11, 52259, Note_on_c, 9, 69, 75
11, 52287, Note_on_c, 9, 69, 0
11, 52320, Note_on_c, 9, 33, 100
11, 52321, Note_on_c, 9, 69, 75
11, 52349, Note_on_c, 9, 69, 0
11, 52374, Note_on_c, 9, 33, 0
11, 52438, Note_on_c, 9, 69, 75
11, 52466, Note_on_c, 9, 69, 0
11, 52498, Note_on_c, 9, 69, 75
11, 52526, Note_on_c, 9, 69, 0
11, 52558, Note_on_c, 9, 69, 75
11, 52560, Note_on_c, 9, 25, 78
11, 52560, Note_on_c, 9, 54, 70
11, 52586, Note_on_c, 9, 69, 0
11, 52588, Note_on_c, 9, 54, 0
11, 52588, Note_on_c, 9, 25, 0
11, 52680, Note_on_c, 9, 69, 75
11, 52708, Note_on_c, 9, 69, 0
11, 52738, Note_on_c, 9, 69, 75
11, 52766, Note_on_c, 9, 69, 0
11, 52800, Note_on_c, 9, 33, 100
11, 52800, Note_on_c, 9, 69, 75
11, 52828, Note_on_c, 9, 69, 0
11, 52854, Note_on_c, 9, 33, 0
11, 52918, Note_on_c, 9, 69, 75
11, 52946, Note_on_c, 9, 69, 0
11, 52978, Note_on_c, 9, 69, 75
11, 53006, Note_on_c, 9, 69, 0
11, 53038, Note_on_c, 9, 69, 75
11, 53040, Note_on_c, 9, 25, 78
11, 53040, Note_on_c, 9, 54, 70
11, 53066, Note_on_c, 9, 69, 0
11, 53068, Note_on_c, 9, 54, 0
11, 53068, Note_on_c, 9, 25, 0
11, 53159, Note_on_c, 9, 69, 75
11, 53160, Note_on_c, 9, 33, 100
11, 53187, Note_on_c, 9, 69, 0
11, 53214, Note_on_c, 9, 33, 0
11, 53218, Note_on_c, 9, 69, 75
11, 53246, Note_on_c, 9, 69, 0
11, 53280, Note_on_c, 9, 33, 100
11, 53281, Note_on_c, 9, 69, 75
11, 53309, Note_on_c, 9, 69, 0
11, 53334, Note_on_c, 9, 33, 0
11, 53398, Note_on_c, 9, 69, 75
11, 53426, Note_on_c, 9, 69, 0
11, 53458, Note_on_c, 9, 69, 75
11, 53486, Note_on_c, 9, 69, 0
11, 53518, Note_on_c, 9, 69, 75
11, 53520, Note_on_c, 9, 25, 78
11, 53520, Note_on_c, 9, 54, 70
11, 53546, Note_on_c, 9, 69, 0
11, 53548, Note_on_c, 9, 54, 0
11, 53548, Note_on_c, 9, 25, 0
11, 53640, Note_on_c, 9, 69, 75
11, 53668, Note_on_c, 9, 69, 0
11, 53699, Note_on_c, 9, 69, 75
11, 53727, Note_on_c, 9, 69, 0
11, 53760, Note_on_c, 9, 33, 100
11, 53761, Note_on_c, 9, 69, 75
11, 53789, Note_on_c, 9, 69, 0
11, 53814, Note_on_c, 9, 33, 0
11, 53878, Note_on_c, 9, 69, 75
11, 53906, Note_on_c, 9, 69, 0
11, 53938, Note_on_c, 9, 69, 75
11, 53966, Note_on_c, 9, 69, 0
11, 53998, Note_on_c, 9, 69, 75
11, 54000, Note_on_c, 9, 25, 78
11, 54000, Note_on_c, 9, 54, 70
11, 54026, Note_on_c, 9, 69, 0
11, 54028, Note_on_c, 9, 54, 0
11, 54028, Note_on_c, 9, 25, 0
11, 54119, Note_on_c, 9, 69, 75
11, 54120, Note_on_c, 9, 33, 100
11, 54147, Note_on_c, 9, 69, 0
11, 54174, Note_on_c, 9, 33, 0
11, 54179, Note_on_c, 9, 69, 75
11, 54207, Note_on_c, 9, 69, 0
11, 54240, Note_on_c, 9, 33, 100
11, 54241, Note_on_c, 9, 69, 75
11, 54269, Note_on_c, 9, 69, 0
11, 54294, Note_on_c, 9, 33, 0
11, 54358, Note_on_c, 9, 69, 75
11, 54386, Note_on_c, 9, 69, 0
11, 54418, Note_on_c, 9, 69, 75
11, 54446, Note_on_c, 9, 69, 0
11, 54478, Note_on_c, 9, 69, 75
11, 54480, Note_on_c, 9, 25, 78
11, 54480, Note_on_c, 9, 54, 70
11, 54506, Note_on_c, 9, 69, 0
11, 54508, Note_on_c, 9, 54, 0
11, 54508, Note_on_c, 9, 25, 0
11, 54600, Note_on_c, 9, 69, 75
11, 54628, Note_on_c, 9, 69, 0
11, 54658, Note_on_c, 9, 69, 75
11, 54686, Note_on_c, 9, 69, 0
11, 54720, Note_on_c, 9, 33, 100
11, 54720, Note_on_c, 9, 69, 75
11, 54748, Note_on_c, 9, 69, 0
11, 54774, Note_on_c, 9, 33, 0
11, 54838, Note_on_c, 9, 69, 75
11, 54866, Note_on_c, 9, 69, 0
11, 54898, Note_on_c, 9, 69, 75
11, 54926, Note_on_c, 9, 69, 0
11, 54958, Note_on_c, 9, 69, 75
11, 54960, Note_on_c, 9, 25, 78
11, 54960, Note_on_c, 9, 54, 70
11, 54986, Note_on_c, 9, 69, 0
11, 54988, Note_on_c, 9, 54, 0
11, 54988, Note_on_c, 9, 25, 0
11, 55079, Note_on_c, 9, 69, 75
11, 55080, Note_on_c, 9, 33, 100
11, 55107, Note_on_c, 9, 69, 0
11, 55134, Note_on_c, 9, 33, 0
11, 55138, Note_on_c, 9, 69, 75
11, 55166, Note_on_c, 9, 69, 0
11, 55200, Note_on_c, 9, 33, 100
11, 55201, Note_on_c, 9, 69, 75
11, 55229, Note_on_c, 9, 69, 0
11, 55254, Note_on_c, 9, 33, 0
11, 55318, Note_on_c, 9, 69, 75
11, 55346, Note_on_c, 9, 69, 0
11, 55378, Note_on_c, 9, 69, 75
11, 55406, Note_on_c, 9, 69, 0
11, 55438, Note_on_c, 9, 69, 75
11, 55440, Note_on_c, 9, 25, 78
11, 55440, Note_on_c, 9, 54, 70
11, 55466, Note_on_c, 9, 69, 0
11, 55468, Note_on_c, 9, 54, 0
11, 55468, Note_on_c, 9, 25, 0
11, 55560, Note_on_c, 9, 69, 75
11, 55588, Note_on_c, 9, 69, 0
11, 55619, Note_on_c, 9, 69, 75
11, 55647, Note_on_c, 9, 69, 0
11, 55680, Note_on_c, 9, 33, 100
11, 55681, Note_on_c, 9, 69, 75
11, 55709, Note_on_c, 9, 69, 0
11, 55734, Note_on_c, 9, 33, 0
11, 55798, Note_on_c, 9, 69, 75
11, 55826, Note_on_c, 9, 69, 0
11, 55858, Note_on_c, 9, 69, 75
11, 55886, Note_on_c, 9, 69, 0
11, 55918, Note_on_c, 9, 69, 75
11, 55920, Note_on_c, 9, 25, 78
11, 55920, Note_on_c, 9, 54, 70
11, 55946, Note_on_c, 9, 69, 0
11, 55948, Note_on_c, 9, 54, 0
11, 55948, Note_on_c, 9, 25, 0
11, 56039, Note_on_c, 9, 69, 75
11, 56040, Note_on_c, 9, 33, 100
11, 56067, Note_on_c, 9, 69, 0
11, 56094, Note_on_c, 9, 33, 0
11, 56099, Note_on_c, 9, 69, 75
11, 56127, Note_on_c, 9, 69, 0
11, 56160, Note_on_c, 9, 33, 100
11, 56161, Note_on_c, 9, 69, 75
11, 56189, Note_on_c, 9, 69, 0
11, 56214, Note_on_c, 9, 33, 0
11, 56278, Note_on_c, 9, 69, 75
11, 56306, Note_on_c, 9, 69, 0
11, 56338, Note_on_c, 9, 69, 75
11, 56366, Note_on_c, 9, 69, 0
11, 56398, Note_on_c, 9, 69, 75
11, 56400, Note_on_c, 9, 25, 78
11, 56400, Note_on_c, 9, 54, 70
11, 56426, Note_on_c, 9, 69, 0
11, 56428, Note_on_c, 9, 54, 0
11, 56428, Note_on_c, 9, 25, 0
11, 56520, Note_on_c, 9, 69, 75
11, 56548, Note_on_c, 9, 69, 0
11, 56578, Note_on_c, 9, 69, 75
11, 56606, Note_on_c, 9, 69, 0
11, 56640, Note_on_c, 9, 33, 100
11, 56640, Note_on_c, 9, 69, 75
11, 56668, Note_on_c, 9, 69, 0
11, 56694, Note_on_c, 9, 33, 0
11, 56758, Note_on_c, 9, 69, 75
11, 56786, Note_on_c, 9, 69, 0
11, 56818, Note_on_c, 9, 69, 75
11, 56846, Note_on_c, 9, 69, 0
11, 56878, Note_on_c, 9, 69, 75
11, 56880, Note_on_c, 9, 25, 78
11, 56880, Note_on_c, 9, 54, 70
11, 56906, Note_on_c, 9, 69, 0
11, 56908, Note_on_c, 9, 54, 0
11, 56908, Note_on_c, 9, 25, 0
11, 56999, Note_on_c, 9, 69, 75
11, 57000, Note_on_c, 9, 33, 100
11, 57027, Note_on_c, 9, 69, 0
11, 57054, Note_on_c, 9, 33, 0
11, 57058, Note_on_c, 9, 69, 75
11, 57086, Note_on_c, 9, 69, 0
11, 57120, Note_on_c, 9, 33, 100
11, 57121, Note_on_c, 9, 69, 75
11, 57149, Note_on_c, 9, 69, 0
11, 57174, Note_on_c, 9, 33, 0
11, 57238, Note_on_c, 9, 69, 75
11, 57266, Note_on_c, 9, 69, 0
11, 57298, Note_on_c, 9, 69, 75
11, 57326, Note_on_c, 9, 69, 0
11, 57358, Note_on_c, 9, 69, 75
11, 57360, Note_on_c, 9, 25, 78
11, 57360, Note_on_c, 9, 54, 70
11, 57386, Note_on_c, 9, 69, 0
11, 57388, Note_on_c, 9, 54, 0
11, 57388, Note_on_c, 9, 25, 0
11, 57480, Note_on_c, 9, 69, 75
11, 57508, Note_on_c, 9, 69, 0
11, 57539, Note_on_c, 9, 69, 75
11, 57567, Note_on_c, 9, 69, 0
11, 57600, Note_on_c, 9, 33, 100
11, 57601, Note_on_c, 9, 69, 75
11, 57629, Note_on_c, 9, 69, 0
11, 57654, Note_on_c, 9, 33, 0
11, 57718, Note_on_c, 9, 69, 75
11, 57746, Note_on_c, 9, 69, 0
11, 57778, Note_on_c, 9, 69, 75
11, 57806, Note_on_c, 9, 69, 0
11, 57838, Note_on_c, 9, 69, 75
11, 57840, Note_on_c, 9, 25, 78
11, 57840, Note_on_c, 9, 54, 70
11, 57866, Note_on_c, 9, 69, 0
11, 57868, Note_on_c, 9, 54, 0
11, 57868, Note_on_c, 9, 25, 0
11, 57959, Note_on_c, 9, 69, 75
11, 57960, Note_on_c, 9, 33, 100
11, 57987, Note_on_c, 9, 69, 0
11, 58014, Note_on_c, 9, 33, 0
11, 58019, Note_on_c, 9, 69, 75
11, 58047, Note_on_c, 9, 69, 0
11, 58080, Note_on_c, 9, 33, 100
11, 58081, Note_on_c, 9, 69, 75
11, 58109, Note_on_c, 9, 69, 0
11, 58134, Note_on_c, 9, 33, 0
11, 58198, Note_on_c, 9, 69, 75
11, 58226, Note_on_c, 9, 69, 0
11, 58258, Note_on_c, 9, 69, 75
11, 58286, Note_on_c, 9, 69, 0
11, 58318, Note_on_c, 9, 69, 75
11, 58320, Note_on_c, 9, 25, 78
11, 58320, Note_on_c, 9, 54, 70
11, 58346, Note_on_c, 9, 69, 0
11, 58348, Note_on_c, 9, 54, 0
11, 58348, Note_on_c, 9, 25, 0
11, 58440, Note_on_c, 9, 69, 75
11, 58468, Note_on_c, 9, 69, 0
11, 58498, Note_on_c, 9, 69, 75
11, 58526, Note_on_c, 9, 69, 0
11, 58560, Note_on_c, 9, 33, 100
11, 58560, Note_on_c, 9, 69, 75
11, 58588, Note_on_c, 9, 69, 0
11, 58614, Note_on_c, 9, 33, 0
11, 58678, Note_on_c, 9, 69, 75
11, 58706, Note_on_c, 9, 69, 0
11, 58738, Note_on_c, 9, 69, 75
11, 58766, Note_on_c, 9, 69, 0
11, 58798, Note_on_c, 9, 69, 75
11, 58800, Note_on_c, 9, 25, 78
11, 58800, Note_on_c, 9, 54, 70
11, 58826, Note_on_c, 9, 69, 0
11, 58828, Note_on_c, 9, 54, 0
11, 58828, Note_on_c, 9, 25, 0
11, 58919, Note_on_c, 9, 69, 75
11, 58920, Note_on_c, 9, 33, 100
11, 58947, Note_on_c, 9, 69, 0
11, 58974, Note_on_c, 9, 33, 0
11, 58978, Note_on_c, 9, 69, 75
11, 59006, Note_on_c, 9, 69, 0
11, 59040, Note_on_c, 9, 33, 100
11, 59041, Note_on_c, 9, 69, 75
11, 59069, Note_on_c, 9, 69, 0
11, 59094, Note_on_c, 9, 33, 0
11, 59158, Note_on_c, 9, 69, 75
11, 59186, Note_on_c, 9, 69, 0
11, 59218, Note_on_c, 9, 69, 75
11, 59246, Note_on_c, 9, 69, 0
11, 59278, Note_on_c, 9, 69, 75
11, 59280, Note_on_c, 9, 25, 78
11, 59280, Note_on_c, 9, 54, 70
11, 59306, Note_on_c, 9, 69, 0
11, 59308, Note_on_c, 9, 54, 0
11, 59308, Note_on_c, 9, 25, 0
11, 59400, Note_on_c, 9, 69, 75
11, 59428, Note_on_c, 9, 69, 0
11, 59459, Note_on_c, 9, 69, 75
11, 59487, Note_on_c, 9, 69, 0
11, 59520, Note_on_c, 9, 33, 100
11, 59521, Note_on_c, 9, 69, 75
11, 59549, Note_on_c, 9, 69, 0
11, 59574, Note_on_c, 9, 33, 0
11, 59638, Note_on_c, 9, 69, 75
11, 59666, Note_on_c, 9, 69, 0
11, 59698, Note_on_c, 9, 69, 75
11, 59726, Note_on_c, 9, 69, 0
11, 59758, Note_on_c, 9, 69, 75
11, 59760, Note_on_c, 9, 25, 78
11, 59760, Note_on_c, 9, 54, 70
11, 59786, Note_on_c, 9, 69, 0
11, 59788, Note_on_c, 9, 54, 0
11, 59788, Note_on_c, 9, 25, 0
11, 59879, Note_on_c, 9, 69, 75
11, 59880, Note_on_c, 9, 33, 100
11, 59907, Note_on_c, 9, 69, 0
11, 59934, Note_on_c, 9, 33, 0
11, 59939, Note_on_c, 9, 69, 75
11, 59967, Note_on_c, 9, 69, 0
11, 60000, Note_on_c, 9, 33, 100
11, 60001, Note_on_c, 9, 69, 75
11, 60029, Note_on_c, 9, 69, 0
11, 60054, Note_on_c, 9, 33, 0
11, 60118, Note_on_c, 9, 69, 75
11, 60146, Note_on_c, 9, 69, 0
11, 60178, Note_on_c, 9, 69, 75
11, 60206, Note_on_c, 9, 69, 0
11, 60238, Note_on_c, 9, 69, 75
11, 60240, Note_on_c, 9, 25, 78
11, 60240, Note_on_c, 9, 54, 70
11, 60266, Note_on_c, 9, 69, 0
11, 60268, Note_on_c, 9, 54, 0
11, 60268, Note_on_c, 9, 25, 0
11, 60360, Note_on_c, 9, 69, 75
11, 60388, Note_on_c, 9, 69, 0
11, 60418, Note_on_c, 9, 69, 75
11, 60446, Note_on_c, 9, 69, 0
11, 60480, Note_on_c, 9, 33, 100
11, 60480, Note_on_c, 9, 69, 75
11, 60508, Note_on_c, 9, 69, 0
11, 60534, Note_on_c, 9, 33, 0
11, 60598, Note_on_c, 9, 69, 75
11, 60626, Note_on_c, 9, 69, 0
11, 60658, Note_on_c, 9, 69, 75
11, 60686, Note_on_c, 9, 69, 0
11, 60718, Note_on_c, 9, 69, 75
11, 60720, Note_on_c, 9, 25, 78
11, 60720, Note_on_c, 9, 54, 70
11, 60746, Note_on_c, 9, 69, 0
11, 60748, Note_on_c, 9, 54, 0
11, 60748, Note_on_c, 9, 25, 0
11, 60839, Note_on_c, 9, 69, 75
11, 60840, Note_on_c, 9, 33, 100
11, 60867, Note_on_c, 9, 69, 0
11, 60894, Note_on_c, 9, 33, 0
11, 60898, Note_on_c, 9, 69, 75
11, 60926, Note_on_c, 9, 69, 0
11, 60960, Note_on_c, 9, 33, 100
11, 60961, Note_on_c, 9, 69, 75
11, 60989, Note_on_c, 9, 69, 0
11, 61014, Note_on_c, 9, 33, 0
11, 61078, Note_on_c, 9, 69, 75
11, 61106, Note_on_c, 9, 69, 0
11, 61138, Note_on_c, 9, 69, 75
11, 61166, Note_on_c, 9, 69, 0
11, 61198, Note_on_c, 9, 69, 75
11, 61200, Note_on_c, 9, 25, 78
11, 61200, Note_on_c, 9, 54, 70
11, 61226, Note_on_c, 9, 69, 0
11, 61228, Note_on_c, 9, 54, 0
11, 61228, Note_on_c, 9, 25, 0
11, 61320, Note_on_c, 9, 69, 75
11, 61348, Note_on_c, 9, 69, 0
11, 61379, Note_on_c, 9, 69, 75
11, 61407, Note_on_c, 9, 69, 0
11, 61440, Note_on_c, 9, 33, 100
11, 61441, Note_on_c, 9, 69, 75
11, 61469, Note_on_c, 9, 69, 0
11, 61494, Note_on_c, 9, 33, 0
11, 61558, Note_on_c, 9, 69, 75
11, 61586, Note_on_c, 9, 69, 0
11, 61618, Note_on_c, 9, 69, 75
11, 61646, Note_on_c, 9, 69, 0
11, 61678, Note_on_c, 9, 69, 75
11, 61680, Note_on_c, 9, 25, 78
11, 61680, Note_on_c, 9, 54, 70
11, 61706, Note_on_c, 9, 69, 0
11, 61708, Note_on_c, 9, 54, 0
11, 61708, Note_on_c, 9, 25, 0
11, 61799, Note_on_c, 9, 69, 75
11, 61800, Note_on_c, 9, 33, 100
11, 61827, Note_on_c, 9, 69, 0
11, 61854, Note_on_c, 9, 33, 0
11, 61859, Note_on_c, 9, 69, 75
11, 61887, Note_on_c, 9, 69, 0
11, 61920, Note_on_c, 9, 33, 100
11, 61921, Note_on_c, 9, 69, 75
11, 61949, Note_on_c, 9, 69, 0
11, 61974, Note_on_c, 9, 33, 0
11, 62038, Note_on_c, 9, 69, 75
11, 62066, Note_on_c, 9, 69, 0
11, 62098, Note_on_c, 9, 69, 75
11, 62126, Note_on_c, 9, 69, 0
11, 62158, Note_on_c, 9, 69, 75
11, 62160, Note_on_c, 9, 25, 78
11, 62160, Note_on_c, 9, 54, 70
11, 62186, Note_on_c, 9, 69, 0
11, 62188, Note_on_c, 9, 54, 0
11, 62188, Note_on_c, 9, 25, 0
11, 62280, Note_on_c, 9, 69, 75
11, 62308, Note_on_c, 9, 69, 0
11, 62338, Note_on_c, 9, 69, 75
11, 62366, Note_on_c, 9, 69, 0
11, 62400, Note_on_c, 9, 33, 100
11, 62400, Note_on_c, 9, 69, 75
11, 62428, Note_on_c, 9, 69, 0
11, 62454, Note_on_c, 9, 33, 0
11, 62518, Note_on_c, 9, 69, 75
11, 62546, Note_on_c, 9, 69, 0
11, 62578, Note_on_c, 9, 69, 75
11, 62606, Note_on_c, 9, 69, 0
11, 62638, Note_on_c, 9, 69, 75
11, 62640, Note_on_c, 9, 25, 78
11, 62640, Note_on_c, 9, 54, 70
11, 62666, Note_on_c, 9, 69, 0
11, 62668, Note_on_c, 9, 54, 0
11, 62668, Note_on_c, 9, 25, 0
11, 62759, Note_on_c, 9, 69, 75
11, 62760, Note_on_c, 9, 33, 100
11, 62787, Note_on_c, 9, 69, 0
11, 62814, Note_on_c, 9, 33, 0
11, 62818, Note_on_c, 9, 69, 75
11, 62846, Note_on_c, 9, 69, 0
11, 62880, Note_on_c, 9, 33, 100
11, 62881, Note_on_c, 9, 69, 75
11, 62909, Note_on_c, 9, 69, 0
11, 62934, Note_on_c, 9, 33, 0
11, 62998, Note_on_c, 9, 69, 75
11, 63026, Note_on_c, 9, 69, 0
11, 63058, Note_on_c, 9, 69, 75
11, 63086, Note_on_c, 9, 69, 0
11, 63118, Note_on_c, 9, 69, 75
11, 63120, Note_on_c, 9, 25, 78
11, 63120, Note_on_c, 9, 54, 70
11, 63146, Note_on_c, 9, 69, 0
11, 63148, Note_on_c, 9, 54, 0
11, 63148, Note_on_c, 9, 25, 0
11, 63240, Note_on_c, 9, 69, 75
11, 63268, Note_on_c, 9, 69, 0
11, 63299, Note_on_c, 9, 69, 75
11, 63327, Note_on_c, 9, 69, 0
11, 63360, Note_on_c, 9, 33, 100
11, 63361, Note_on_c, 9, 69, 75
11, 63389, Note_on_c, 9, 69, 0
11, 63414, Note_on_c, 9, 33, 0
11, 63478, Note_on_c, 9, 69, 75
11, 63506, Note_on_c, 9, 69, 0
11, 63538, Note_on_c, 9, 69, 75
11, 63566, Note_on_c, 9, 69, 0
11, 63598, Note_on_c, 9, 69, 75
11, 63600, Note_on_c, 9, 25, 78
11, 63600, Note_on_c, 9, 54, 70
11, 63626, Note_on_c, 9, 69, 0
11, 63628, Note_on_c, 9, 54, 0
11, 63628, Note_on_c, 9, 25, 0
11, 63719, Note_on_c, 9, 69, 75
11, 63720, Note_on_c, 9, 33, 100
11, 63747, Note_on_c, 9, 69, 0
11, 63774, Note_on_c, 9, 33, 0
11, 63779, Note_on_c, 9, 69, 75
11, 63807, Note_on_c, 9, 69, 0
11, 63840, Note_on_c, 9, 33, 100
11, 63841, Note_on_c, 9, 69, 75
11, 63869, Note_on_c, 9, 69, 0
11, 63894, Note_on_c, 9, 33, 0
11, 63958, Note_on_c, 9, 69, 75
11, 63986, Note_on_c, 9, 69, 0
11, 64018, Note_on_c, 9, 69, 75
11, 64046, Note_on_c, 9, 69, 0
11, 64078, Note_on_c, 9, 69, 75
11, 64080, Note_on_c, 9, 25, 78
11, 64080, Note_on_c, 9, 54, 70
11, 64106, Note_on_c, 9, 69, 0
11, 64108, Note_on_c, 9, 54, 0
11, 64108, Note_on_c, 9, 25, 0
11, 64200, Note_on_c, 9, 69, 75
11, 64228, Note_on_c, 9, 69, 0
11, 64258, Note_on_c, 9, 69, 75
11, 64286, Note_on_c, 9, 69, 0
11, 64320, Note_on_c, 9, 33, 100
11, 64320, Note_on_c, 9, 69, 75
11, 64348, Note_on_c, 9, 69, 0
11, 64374, Note_on_c, 9, 33, 0
11, 64438, Note_on_c, 9, 69, 75
11, 64466, Note_on_c, 9, 69, 0
11, 64498, Note_on_c, 9, 69, 75
11, 64526, Note_on_c, 9, 69, 0
11, 64558, Note_on_c, 9, 69, 75
11, 64560, Note_on_c, 9, 25, 78
11, 64560, Note_on_c, 9, 54, 70
11, 64586, Note_on_c, 9, 69, 0
11, 64588, Note_on_c, 9, 54, 0
11, 64588, Note_on_c, 9, 25, 0
11, 64679, Note_on_c, 9, 69, 75
11, 64680, Note_on_c, 9, 33, 100
11, 64707, Note_on_c, 9, 69, 0
11, 64734, Note_on_c, 9, 33, 0
11, 64738, Note_on_c, 9, 69, 75
11, 64766, Note_on_c, 9, 69, 0
11, 64800, Note_on_c, 9, 33, 100
11, 64801, Note_on_c, 9, 69, 75
11, 64829, Note_on_c, 9, 69, 0
11, 64854, Note_on_c, 9, 33, 0
11, 64918, Note_on_c, 9, 69, 75
11, 64946, Note_on_c, 9, 69, 0
11, 64978, Note_on_c, 9, 69, 75
11, 65006, Note_on_c, 9, 69, 0
11, 65038, Note_on_c, 9, 69, 75
11, 65040, Note_on_c, 9, 25, 78
11, 65040, Note_on_c, 9, 54, 70
11, 65066, Note_on_c, 9, 69, 0
11, 65068, Note_on_c, 9, 54, 0
11, 65068, Note_on_c, 9, 25, 0
11, 65160, Note_on_c, 9, 69, 75
11, 65188, Note_on_c, 9, 69, 0
11, 65219, Note_on_c, 9, 69, 75
11, 65247, Note_on_c, 9, 69, 0
11, 65280, Note_on_c, 9, 33, 100
11, 65281, Note_on_c, 9, 69, 75
11, 65309, Note_on_c, 9, 69, 0
11, 65334, Note_on_c, 9, 33, 0
11, 65398, Note_on_c, 9, 69, 75
11, 65426, Note_on_c, 9, 69, 0
11, 65458, Note_on_c, 9, 69, 75
11, 65486, Note_on_c, 9, 69, 0
11, 65518, Note_on_c, 9, 69, 75
11, 65520, Note_on_c, 9, 25, 78
11, 65520, Note_on_c, 9, 54, 70
11, 65546, Note_on_c, 9, 69, 0
11, 65548, Note_on_c, 9, 54, 0
11, 65548, Note_on_c, 9, 25, 0
11, 65639, Note_on_c, 9, 69, 75
11, 65640, Note_on_c, 9, 33, 100
11, 65667, Note_on_c, 9, 69, 0
11, 65694, Note_on_c, 9, 33, 0
11, 65699, Note_on_c, 9, 69, 75
11, 65727, Note_on_c, 9, 69, 0
11, 65760, Note_on_c, 9, 33, 100
11, 65761, Note_on_c, 9, 69, 75
11, 65789, Note_on_c, 9, 69, 0
11, 65814, Note_on_c, 9, 33, 0
11, 65878, Note_on_c, 9, 69, 75
11, 65906, Note_on_c, 9, 69, 0
11, 65938, Note_on_c, 9, 69, 75
11, 65966, Note_on_c, 9, 69, 0
11, 65998, Note_on_c, 9, 69, 75
11, 66000, Note_on_c, 9, 25, 78
11, 66000, Note_on_c, 9, 54, 70
11, 66026, Note_on_c, 9, 69, 0
11, 66028, Note_on_c, 9, 54, 0
11, 66028, Note_on_c, 9, 25, 0
11, 66120, Note_on_c, 9, 69, 75
11, 66148, Note_on_c, 9, 69, 0
11, 66178, Note_on_c, 9, 69, 75
11, 66206, Note_on_c, 9, 69, 0
11, 66240, Note_on_c, 9, 33, 100
11, 66240, Note_on_c, 9, 69, 75
11, 66268, Note_on_c, 9, 69, 0
11, 66294, Note_on_c, 9, 33, 0
11, 66358, Note_on_c, 9, 69, 75
11, 66386, Note_on_c, 9, 69, 0
11, 66418, Note_on_c, 9, 69, 75
11, 66446, Note_on_c, 9, 69, 0
11, 66478, Note_on_c, 9, 69, 75
11, 66480, Note_on_c, 9, 25, 78
11, 66480, Note_on_c, 9, 54, 70
11, 66506, Note_on_c, 9, 69, 0
11, 66508, Note_on_c, 9, 54, 0
11, 66508, Note_on_c, 9, 25, 0
11, 66599, Note_on_c, 9, 69, 75
11, 66600, Note_on_c, 9, 33, 100
11, 66627, Note_on_c, 9, 69, 0
11, 66654, Note_on_c, 9, 33, 0
11, 66658, Note_on_c, 9, 69, 75
11, 66686, Note_on_c, 9, 69, 0
11, 66720, Note_on_c, 9, 33, 100
11, 66721, Note_on_c, 9, 69, 75
11, 66749, Note_on_c, 9, 69, 0
11, 66774, Note_on_c, 9, 33, 0
11, 66838, Note_on_c, 9, 69, 75
11, 66866, Note_on_c, 9, 69, 0
11, 66898, Note_on_c, 9, 69, 75
11, 66926, Note_on_c, 9, 69, 0
11, 66958, Note_on_c, 9, 69, 75
11, 66960, Note_on_c, 9, 25, 78
11, 66960, Note_on_c, 9, 54, 70
11, 66986, Note_on_c, 9, 69, 0
11, 66988, Note_on_c, 9, 54, 0
11, 66988, Note_on_c, 9, 25, 0
11, 67080, Note_on_c, 9, 69, 75
11, 67108, Note_on_c, 9, 69, 0
11, 67139, Note_on_c, 9, 69, 75
11, 67167, Note_on_c, 9, 69, 0
11, 67200, Note_on_c, 9, 33, 100
11, 67201, Note_on_c, 9, 69, 75
11, 67229, Note_on_c, 9, 69, 0
11, 67254, Note_on_c, 9, 33, 0
11, 67318, Note_on_c, 9, 69, 75
11, 67346, Note_on_c, 9, 69, 0
11, 67378, Note_on_c, 9, 69, 75
11, 67406, Note_on_c, 9, 69, 0
11, 67438, Note_on_c, 9, 69, 75
11, 67440, Note_on_c, 9, 25, 78
11, 67440, Note_on_c, 9, 54, 70
11, 67466, Note_on_c, 9, 69, 0
11, 67468, Note_on_c, 9, 54, 0
11, 67468, Note_on_c, 9, 25, 0
11, 67559, Note_on_c, 9, 69, 75
11, 67560, Note_on_c, 9, 33, 100
11, 67587, Note_on_c, 9, 69, 0
11, 67614, Note_on_c, 9, 33, 0
11, 67619, Note_on_c, 9, 69, 75
11, 67647, Note_on_c, 9, 69, 0
11, 67680, Note_on_c, 9, 33, 100
11, 67681, Note_on_c, 9, 69, 75
11, 67709, Note_on_c, 9, 69, 0
11, 67734, Note_on_c, 9, 33, 0
11, 67798, Note_on_c, 9, 69, 75
11, 67826, Note_on_c, 9, 69, 0
11, 67858, Note_on_c, 9, 69, 75
11, 67886, Note_on_c, 9, 69, 0
11, 67918, Note_on_c, 9, 69, 75
11, 67920, Note_on_c, 9, 25, 78
11, 67920, Note_on_c, 9, 54, 70
11, 67946, Note_on_c, 9, 69, 0
11, 67948, Note_on_c, 9, 54, 0
11, 67948, Note_on_c, 9, 25, 0
11, 68040, Note_on_c, 9, 69, 75
11, 68068, Note_on_c, 9, 69, 0
11, 68098, Note_on_c, 9, 69, 75
11, 68126, Note_on_c, 9, 69, 0
11, 68160, Note_on_c, 9, 33, 100
11, 68160, Note_on_c, 9, 69, 75
11, 68188, Note_on_c, 9, 69, 0
11, 68214, Note_on_c, 9, 33, 0
11, 68278, Note_on_c, 9, 69, 75
11, 68306, Note_on_c, 9, 69, 0
11, 68338, Note_on_c, 9, 69, 75
11, 68366, Note_on_c, 9, 69, 0
11, 68398, Note_on_c, 9, 69, 75
11, 68400, Note_on_c, 9, 25, 78
11, 68400, Note_on_c, 9, 54, 70
11, 68426, Note_on_c, 9, 69, 0
11, 68428, Note_on_c, 9, 54, 0
11, 68428, Note_on_c, 9, 25, 0
11, 68519, Note_on_c, 9, 69, 75
11, 68520, Note_on_c, 9, 33, 100
11, 68547, Note_on_c, 9, 69, 0
11, 68574, Note_on_c, 9, 33, 0
11, 68578, Note_on_c, 9, 69, 75
11, 68606, Note_on_c, 9, 69, 0
11, 68640, Note_on_c, 9, 33, 100
11, 68641, Note_on_c, 9, 69, 75
11, 68669, Note_on_c, 9, 69, 0
11, 68694, Note_on_c, 9, 33, 0
11, 68758, Note_on_c, 9, 69, 75
11, 68786, Note_on_c, 9, 69, 0
11, 68818, Note_on_c, 9, 69, 75
11, 68846, Note_on_c, 9, 69, 0
11, 68878, Note_on_c, 9, 69, 75
11, 68880, Note_on_c, 9, 25, 78
11, 68880, Note_on_c, 9, 54, 70
11, 68906, Note_on_c, 9, 69, 0
11, 68908, Note_on_c, 9, 54, 0
11, 68908, Note_on_c, 9, 25, 0
11, 69000, Note_on_c, 9, 69, 75
11, 69028, Note_on_c, 9, 69, 0
11, 69059, Note_on_c, 9, 69, 75
11, 69087, Note_on_c, 9, 69, 0
11, 69120, Note_on_c, 9, 33, 100
11, 69174, Note_on_c, 9, 33, 0
11, 69360, Note_on_c, 9, 54, 100
11, 69388, Note_on_c, 9, 54, 0
11, 69480, Note_on_c, 9, 33, 100
11, 69534, Note_on_c, 9, 33, 0
11, 69600, Note_on_c, 9, 33, 100
11, 69654, Note_on_c, 9, 33, 0
11, 69840, Note_on_c, 9, 54, 100
11, 69868, Note_on_c, 9, 54, 0
11, 70080, Note_on_c, 9, 33, 100
11, 70134, Note_on_c, 9, 33, 0
11, 70320, Note_on_c, 9, 54, 100
11, 70348, Note_on_c, 9, 54, 0
11, 70440, Note_on_c, 9, 33, 100
11, 70494, Note_on_c, 9, 33, 0
11, 70560, Note_on_c, 9, 33, 100
11, 70614, Note_on_c, 9, 33, 0
11, 70800, Note_on_c, 9, 54, 100
11, 70828, Note_on_c, 9, 54, 0
11, 71040, Note_on_c, 9, 33, 100
11, 71094, Note_on_c, 9, 33, 0
11, 71280, Note_on_c, 9, 54, 100
11, 71308, Note_on_c, 9, 54, 0
11, 71400, Note_on_c, 9, 33, 100
11, 71454, Note_on_c, 9, 33, 0
11, 71520, Note_on_c, 9, 33, 100
11, 71574, Note_on_c, 9, 33, 0
11, 71760, Note_on_c, 9, 54, 100
11, 71788, Note_on_c, 9, 54, 0
11, 72000, Note_on_c, 9, 33, 100
11, 72054, Note_on_c, 9, 33, 0
11, 72240, Note_on_c, 9, 54, 100
11, 72268, Note_on_c, 9, 54, 0
11, 72360, Note_on_c, 9, 33, 100
11, 72414, Note_on_c, 9, 33, 0
11, 72480, Note_on_c, 9, 33, 100
11, 72534, Note_on_c, 9, 33, 0
11, 72720, Note_on_c, 9, 54, 100
11, 72748, Note_on_c, 9, 54, 0
11, 72960, Note_on_c, 9, 33, 100
11, 73014, Note_on_c, 9, 33, 0
11, 73200, Note_on_c, 9, 54, 100
11, 73228, Note_on_c, 9, 54, 0
11, 73320, Note_on_c, 9, 33, 100
11, 73374, Note_on_c, 9, 33, 0
11, 73440, Note_on_c, 9, 33, 100
11, 73494, Note_on_c, 9, 33, 0
11, 73680, Note_on_c, 9, 54, 100
11, 73708, Note_on_c, 9, 54, 0
11, 73920, Note_on_c, 9, 33, 100
11, 73974, Note_on_c, 9, 33, 0
11, 74160, Note_on_c, 9, 54, 100
11, 74188, Note_on_c, 9, 54, 0
11, 74280, Note_on_c, 9, 33, 100
11, 74334, Note_on_c, 9, 33, 0
11, 74400, Note_on_c, 9, 33, 100
11, 74454, Note_on_c, 9, 33, 0
11, 74640, Note_on_c, 9, 54, 100
11, 74668, Note_on_c, 9, 54, 0
11, 74880, Note_on_c, 9, 33, 100
11, 74934, Note_on_c, 9, 33, 0
11, 75120, Note_on_c, 9, 54, 100
11, 75148, Note_on_c, 9, 54, 0
11, 75240, Note_on_c, 9, 33, 100
11, 75294, Note_on_c, 9, 33, 0
11, 75360, Note_on_c, 9, 33, 100
11, 75414, Note_on_c, 9, 33, 0
11, 75570, Note_on_c, 9, 25, 100
11, 75598, Note_on_c, 9, 25, 0
11, 75840, Note_on_c, 9, 33, 100
11, 75894, Note_on_c, 9, 33, 0
11, 76080, Note_on_c, 9, 25, 100
11, 76108, Note_on_c, 9, 25, 0
11, 76200, Note_on_c, 9, 33, 100
11, 76254, Note_on_c, 9, 33, 0
11, 76320, Note_on_c, 9, 33, 100
11, 76374, Note_on_c, 9, 33, 0
11, 76560, Note_on_c, 9, 25, 100
11, 76588, Note_on_c, 9, 25, 0
11, 76800, Note_on_c, 9, 33, 100
11, 76854, Note_on_c, 9, 33, 0
11, 77040, Note_on_c, 9, 25, 100
11, 77068, Note_on_c, 9, 25, 0
11, 77160, Note_on_c, 9, 33, 100
11, 77214, Note_on_c, 9, 33, 0
11, 77280, Note_on_c, 9, 33, 100
11, 77334, Note_on_c, 9, 33, 0
11, 77520, Note_on_c, 9, 25, 100
11, 77548, Note_on_c, 9, 25, 0
11, 77760, Note_on_c, 9, 33, 100
11, 77814, Note_on_c, 9, 33, 0
11, 78000, Note_on_c, 9, 25, 100
11, 78028, Note_on_c, 9, 25, 0
11, 78120, Note_on_c, 9, 33, 100
11, 78174, Note_on_c, 9, 33, 0
11, 78240, Note_on_c, 9, 33, 100
11, 78294, Note_on_c, 9, 33, 0
11, 78480, Note_on_c, 9, 25, 100
11, 78508, Note_on_c, 9, 25, 0
11, 78600, Note_on_c, 9, 69, 75
11, 78628, Note_on_c, 9, 69, 0
11, 78659, Note_on_c, 9, 69, 75
11, 78687, Note_on_c, 9, 69, 0
11, 78720, Note_on_c, 9, 33, 100
11, 78721, Note_on_c, 9, 69, 75
11, 78749, Note_on_c, 9, 69, 0
11, 78774, Note_on_c, 9, 33, 0
11, 78838, Note_on_c, 9, 69, 75
11, 78866, Note_on_c, 9, 69, 0
11, 78898, Note_on_c, 9, 69, 75
11, 78926, Note_on_c, 9, 69, 0
11, 78958, Note_on_c, 9, 69, 75
11, 78960, Note_on_c, 9, 25, 78
11, 78960, Note_on_c, 9, 54, 70
11, 78986, Note_on_c, 9, 69, 0
11, 78988, Note_on_c, 9, 54, 0
11, 78988, Note_on_c, 9, 25, 0
11, 79079, Note_on_c, 9, 69, 75
11, 79080, Note_on_c, 9, 33, 100
11, 79107, Note_on_c, 9, 69, 0
11, 79134, Note_on_c, 9, 33, 0
11, 79139, Note_on_c, 9, 69, 75
11, 79167, Note_on_c, 9, 69, 0
11, 79200, Note_on_c, 9, 33, 100
11, 79201, Note_on_c, 9, 69, 75
11, 79229, Note_on_c, 9, 69, 0
11, 79254, Note_on_c, 9, 33, 0
11, 79318, Note_on_c, 9, 69, 75
11, 79346, Note_on_c, 9, 69, 0
11, 79378, Note_on_c, 9, 69, 75
11, 79406, Note_on_c, 9, 69, 0
11, 79438, Note_on_c, 9, 69, 75
11, 79440, Note_on_c, 9, 25, 78
11, 79440, Note_on_c, 9, 54, 70
11, 79466, Note_on_c, 9, 69, 0
11, 79468, Note_on_c, 9, 54, 0
11, 79468, Note_on_c, 9, 25, 0
11, 79560, Note_on_c, 9, 69, 75
11, 79588, Note_on_c, 9, 69, 0
11, 79618, Note_on_c, 9, 69, 75
11, 79646, Note_on_c, 9, 69, 0
11, 79680, Note_on_c, 9, 33, 100
11, 79680, Note_on_c, 9, 69, 75
11, 79708, Note_on_c, 9, 69, 0
11, 79734, Note_on_c, 9, 33, 0
11, 79798, Note_on_c, 9, 69, 75
11, 79826, Note_on_c, 9, 69, 0
11, 79858, Note_on_c, 9, 69, 75
11, 79886, Note_on_c, 9, 69, 0
11, 79918, Note_on_c, 9, 69, 75
11, 79920, Note_on_c, 9, 25, 78
11, 79920, Note_on_c, 9, 54, 70
11, 79946, Note_on_c, 9, 69, 0
11, 79948, Note_on_c, 9, 54, 0
11, 79948, Note_on_c, 9, 25, 0
11, 80039, Note_on_c, 9, 69, 75
11, 80040, Note_on_c, 9, 33, 100
11, 80067, Note_on_c, 9, 69, 0
11, 80094, Note_on_c, 9, 33, 0
11, 80098, Note_on_c, 9, 69, 75
11, 80126, Note_on_c, 9, 69, 0
11, 80160, Note_on_c, 9, 33, 100
11, 80161, Note_on_c, 9, 69, 75
11, 80189, Note_on_c, 9, 69, 0
11, 80214, Note_on_c, 9, 33, 0
11, 80278, Note_on_c, 9, 69, 75
11, 80306, Note_on_c, 9, 69, 0
11, 80338, Note_on_c, 9, 69, 75
11, 80366, Note_on_c, 9, 69, 0
11, 80398, Note_on_c, 9, 69, 75
11, 80400, Note_on_c, 9, 25, 78
11, 80400, Note_on_c, 9, 54, 70
11, 80426, Note_on_c, 9, 69, 0
11, 80428, Note_on_c, 9, 54, 0
11, 80428, Note_on_c, 9, 25, 0
11, 80520, Note_on_c, 9, 69, 75
11, 80548, Note_on_c, 9, 69, 0
11, 80579, Note_on_c, 9, 69, 75
11, 80607, Note_on_c, 9, 69, 0
11, 80640, Note_on_c, 9, 33, 100
11, 80641, Note_on_c, 9, 69, 75
11, 80669, Note_on_c, 9, 69, 0
11, 80694, Note_on_c, 9, 33, 0
11, 80758, Note_on_c, 9, 69, 75
11, 80786, Note_on_c, 9, 69, 0
11, 80818, Note_on_c, 9, 69, 75
11, 80846, Note_on_c, 9, 69, 0
11, 80878, Note_on_c, 9, 69, 75
11, 80880, Note_on_c, 9, 25, 78
11, 80880, Note_on_c, 9, 54, 70
11, 80906, Note_on_c, 9, 69, 0
11, 80908, Note_on_c, 9, 54, 0
11, 80908, Note_on_c, 9, 25, 0
11, 80999, Note_on_c, 9, 69, 75
11, 81000, Note_on_c, 9, 33, 100
11, 81027, Note_on_c, 9, 69, 0
11, 81054, Note_on_c, 9, 33, 0
11, 81059, Note_on_c, 9, 69, 75
11, 81087, Note_on_c, 9, 69, 0
11, 81120, Note_on_c, 9, 33, 100
11, 81121, Note_on_c, 9, 69, 75
11, 81149, Note_on_c, 9, 69, 0
11, 81174, Note_on_c, 9, 33, 0
11, 81238, Note_on_c, 9, 69, 75
11, 81266, Note_on_c, 9, 69, 0
11, 81298, Note_on_c, 9, 69, 75
11, 81326, Note_on_c, 9, 69, 0
11, 81358, Note_on_c, 9, 69, 75
11, 81360, Note_on_c, 9, 25, 78
11, 81360, Note_on_c, 9, 54, 70
11, 81386, Note_on_c, 9, 69, 0
11, 81388, Note_on_c, 9, 54, 0
11, 81388, Note_on_c, 9, 25, 0
11, 81480, Note_on_c, 9, 69, 75
11, 81508, Note_on_c, 9, 69, 0
11, 81538, Note_on_c, 9, 69, 75
11, 81566, Note_on_c, 9, 69, 0
11, 81600, Note_on_c, 9, 33, 100
11, 81600, Note_on_c, 9, 69, 75
11, 81628, Note_on_c, 9, 69, 0
11, 81654, Note_on_c, 9, 33, 0
11, 81718, Note_on_c, 9, 69, 75
11, 81746, Note_on_c, 9, 69, 0
11, 81778, Note_on_c, 9, 69, 75
11, 81806, Note_on_c, 9, 69, 0
11, 81838, Note_on_c, 9, 69, 75
11, 81840, Note_on_c, 9, 25, 78
11, 81840, Note_on_c, 9, 54, 70
11, 81866, Note_on_c, 9, 69, 0
11, 81868, Note_on_c, 9, 54, 0
11, 81868, Note_on_c, 9, 25, 0
11, 81959, Note_on_c, 9, 69, 75
11, 81960, Note_on_c, 9, 33, 100
11, 81987, Note_on_c, 9, 69, 0
11, 82014, Note_on_c, 9, 33, 0
11, 82018, Note_on_c, 9, 69, 75
11, 82046, Note_on_c, 9, 69, 0
11, 82080, Note_on_c, 9, 33, 100
11, 82081, Note_on_c, 9, 69, 75
11, 82109, Note_on_c, 9, 69, 0
11, 82134, Note_on_c, 9, 33, 0
11, 82198, Note_on_c, 9, 69, 75
11, 82226, Note_on_c, 9, 69, 0
11, 82258, Note_on_c, 9, 69, 75
11, 82286, Note_on_c, 9, 69, 0
11, 82318, Note_on_c, 9, 69, 75
11, 82320, Note_on_c, 9, 25, 78
11, 82320, Note_on_c, 9, 54, 70
11, 82346, Note_on_c, 9, 69, 0
11, 82348, Note_on_c, 9, 54, 0
11, 82348, Note_on_c, 9, 25, 0
11, 82440, Note_on_c, 9, 69, 75
11, 82468, Note_on_c, 9, 69, 0
11, 82499, Note_on_c, 9, 69, 75
11, 82527, Note_on_c, 9, 69, 0
11, 82560, Note_on_c, 9, 33, 100
11, 82561, Note_on_c, 9, 69, 75
11, 82589, Note_on_c, 9, 69, 0
11, 82614, Note_on_c, 9, 33, 0
11, 82678, Note_on_c, 9, 69, 75
11, 82706, Note_on_c, 9, 69, 0
11, 82738, Note_on_c, 9, 69, 75
11, 82766, Note_on_c, 9, 69, 0
11, 82798, Note_on_c, 9, 69, 75
11, 82800, Note_on_c, 9, 25, 78
11, 82800, Note_on_c, 9, 54, 70
11, 82826, Note_on_c, 9, 69, 0
11, 82828, Note_on_c, 9, 54, 0
11, 82828, Note_on_c, 9, 25, 0
11, 82919, Note_on_c, 9, 69, 75
11, 82920, Note_on_c, 9, 33, 100
11, 82947, Note_on_c, 9, 69, 0
11, 82974, Note_on_c, 9, 33, 0
11, 82979, Note_on_c, 9, 69, 75
11, 83007, Note_on_c, 9, 69, 0
11, 83040, Note_on_c, 9, 33, 100
11, 83041, Note_on_c, 9, 69, 75
11, 83069, Note_on_c, 9, 69, 0
11, 83094, Note_on_c, 9, 33, 0
11, 83158, Note_on_c, 9, 69, 75
11, 83186, Note_on_c, 9, 69, 0
11, 83218, Note_on_c, 9, 69, 75
11, 83246, Note_on_c, 9, 69, 0
11, 83278, Note_on_c, 9, 69, 75
11, 83280, Note_on_c, 9, 25, 78
11, 83280, Note_on_c, 9, 54, 70
11, 83306, Note_on_c, 9, 69, 0
11, 83308, Note_on_c, 9, 54, 0
11, 83308, Note_on_c, 9, 25, 0
11, 83400, Note_on_c, 9, 69, 75
11, 83428, Note_on_c, 9, 69, 0
11, 83458, Note_on_c, 9, 69, 75
11, 83486, Note_on_c, 9, 69, 0
11, 83520, Note_on_c, 9, 33, 100
11, 83520, Note_on_c, 9, 69, 75
11, 83548, Note_on_c, 9, 69, 0
11, 83574, Note_on_c, 9, 33, 0
11, 83638, Note_on_c, 9, 69, 75
11, 83666, Note_on_c, 9, 69, 0
11, 83698, Note_on_c, 9, 69, 75
11, 83726, Note_on_c, 9, 69, 0
11, 83758, Note_on_c, 9, 69, 75
11, 83760, Note_on_c, 9, 25, 78
11, 83760, Note_on_c, 9, 54, 70
11, 83786, Note_on_c, 9, 69, 0
11, 83788, Note_on_c, 9, 54, 0
11, 83788, Note_on_c, 9, 25, 0
11, 83879, Note_on_c, 9, 69, 75
11, 83880, Note_on_c, 9, 33, 100
11, 83907, Note_on_c, 9, 69, 0
11, 83934, Note_on_c, 9, 33, 0
11, 83938, Note_on_c, 9, 69, 75
11, 83966, Note_on_c, 9, 69, 0
11, 84000, Note_on_c, 9, 33, 100
11, 84001, Note_on_c, 9, 69, 75
11, 84029, Note_on_c, 9, 69, 0
11, 84054, Note_on_c, 9, 33, 0
11, 84118, Note_on_c, 9, 69, 75
11, 84146, Note_on_c, 9, 69, 0
11, 84178, Note_on_c, 9, 69, 75
11, 84206, Note_on_c, 9, 69, 0
11, 84238, Note_on_c, 9, 69, 75
11, 84240, Note_on_c, 9, 25, 78
11, 84240, Note_on_c, 9, 54, 70
11, 84266, Note_on_c, 9, 69, 0
11, 84268, Note_on_c, 9, 54, 0
11, 84268, Note_on_c, 9, 25, 0
11, 84360, Note_on_c, 9, 69, 75
11, 84388, Note_on_c, 9, 69, 0
11, 84419, Note_on_c, 9, 69, 75
11, 84447, Note_on_c, 9, 69, 0
11, 84480, Note_on_c, 9, 33, 100
11, 84481, Note_on_c, 9, 69, 75
11, 84509, Note_on_c, 9, 69, 0
11, 84534, Note_on_c, 9, 33, 0
11, 84598, Note_on_c, 9, 69, 75
11, 84626, Note_on_c, 9, 69, 0
11, 84658, Note_on_c, 9, 69, 75
11, 84686, Note_on_c, 9, 69, 0
11, 84718, Note_on_c, 9, 69, 75
11, 84720, Note_on_c, 9, 25, 78
11, 84720, Note_on_c, 9, 54, 70
11, 84746, Note_on_c, 9, 69, 0
11, 84748, Note_on_c, 9, 54, 0
11, 84748, Note_on_c, 9, 25, 0
11, 84839, Note_on_c, 9, 69, 75
11, 84840, Note_on_c, 9, 33, 100
11, 84867, Note_on_c, 9, 69, 0
11, 84894, Note_on_c, 9, 33, 0
11, 84899, Note_on_c, 9, 69, 75
11, 84927, Note_on_c, 9, 69, 0
11, 84960, Note_on_c, 9, 33, 100
11, 84961, Note_on_c, 9, 69, 75
11, 84989, Note_on_c, 9, 69, 0
11, 85014, Note_on_c, 9, 33, 0
11, 85078, Note_on_c, 9, 69, 75
11, 85106, Note_on_c, 9, 69, 0
11, 85138, Note_on_c, 9, 69, 75
11, 85166, Note_on_c, 9, 69, 0
11, 85198, Note_on_c, 9, 69, 75
11, 85200, Note_on_c, 9, 25, 78
11, 85200, Note_on_c, 9, 54, 70
11, 85226, Note_on_c, 9, 69, 0
11, 85228, Note_on_c, 9, 54, 0
11, 85228, Note_on_c, 9, 25, 0
11, 85320, Note_on_c, 9, 69, 75
11, 85348, Note_on_c, 9, 69, 0
11, 85378, Note_on_c, 9, 69, 75
11, 85406, Note_on_c, 9, 69, 0
11, 85440, Note_on_c, 9, 33, 100
11, 85440, Note_on_c, 9, 69, 75
11, 85468, Note_on_c, 9, 69, 0
11, 85494, Note_on_c, 9, 33, 0
11, 85558, Note_on_c, 9, 69, 75
11, 85586, Note_on_c, 9, 69, 0
11, 85618, Note_on_c, 9, 69, 75
11, 85646, Note_on_c, 9, 69, 0
11, 85678, Note_on_c, 9, 69, 75
11, 85680, Note_on_c, 9, 25, 78
11, 85680, Note_on_c, 9, 54, 70
11, 85706, Note_on_c, 9, 69, 0
11, 85708, Note_on_c, 9, 54, 0
11, 85708, Note_on_c, 9, 25, 0
11, 85799, Note_on_c, 9, 69, 75
11, 85800, Note_on_c, 9, 33, 100
11, 85827, Note_on_c, 9, 69, 0
11, 85854, Note_on_c, 9, 33, 0
11, 85858, Note_on_c, 9, 69, 75
11, 85886, Note_on_c, 9, 69, 0
11, 85920, Note_on_c, 9, 33, 100
11, 85921, Note_on_c, 9, 69, 75
11, 85949, Note_on_c, 9, 69, 0
11, 85974, Note_on_c, 9, 33, 0
11, 86038, Note_on_c, 9, 69, 75
11, 86066, Note_on_c, 9, 69, 0
11, 86098, Note_on_c, 9, 69, 75
11, 86126, Note_on_c, 9, 69, 0
11, 86158, Note_on_c, 9, 69, 75
11, 86160, Note_on_c, 9, 25, 78
11, 86160, Note_on_c, 9, 54, 70
11, 86186, Note_on_c, 9, 69, 0
11, 86188, Note_on_c, 9, 54, 0
11, 86188, Note_on_c, 9, 25, 0
11, 86280, Note_on_c, 9, 69, 75
11, 86308, Note_on_c, 9, 69, 0
11, 86339, Note_on_c, 9, 69, 75
11, 86367, Note_on_c, 9, 69, 0
11, 86400, Note_on_c, 9, 33, 100
11, 86401, Note_on_c, 9, 69, 75
11, 86429, Note_on_c, 9, 69, 0
11, 86454, Note_on_c, 9, 33, 0
11, 86518, Note_on_c, 9, 69, 75
11, 86546, Note_on_c, 9, 69, 0
11, 86578, Note_on_c, 9, 69, 75
11, 86606, Note_on_c, 9, 69, 0
11, 86638, Note_on_c, 9, 69, 75
11, 86640, Note_on_c, 9, 25, 78
11, 86640, Note_on_c, 9, 54, 70
11, 86666, Note_on_c, 9, 69, 0
11, 86668, Note_on_c, 9, 54, 0
11, 86668, Note_on_c, 9, 25, 0
11, 86759, Note_on_c, 9, 69, 75
11, 86760, Note_on_c, 9, 33, 100
11, 86787, Note_on_c, 9, 69, 0
11, 86814, Note_on_c, 9, 33, 0
11, 86819, Note_on_c, 9, 69, 75
11, 86847, Note_on_c, 9, 69, 0
11, 86880, Note_on_c, 9, 33, 100
11, 86881, Note_on_c, 9, 69, 75
11, 86909, Note_on_c, 9, 69, 0
11, 86934, Note_on_c, 9, 33, 0
11, 86998, Note_on_c, 9, 69, 75
11, 87026, Note_on_c, 9, 69, 0
11, 87058, Note_on_c, 9, 69, 75
11, 87086, Note_on_c, 9, 69, 0
11, 87118, Note_on_c, 9, 69, 75
11, 87120, Note_on_c, 9, 25, 78
11, 87120, Note_on_c, 9, 54, 70
11, 87146, Note_on_c, 9, 69, 0
11, 87148, Note_on_c, 9, 54, 0
11, 87148, Note_on_c, 9, 25, 0
11, 87240, Note_on_c, 9, 69, 75
11, 87268, Note_on_c, 9, 69, 0
11, 87298, Note_on_c, 9, 69, 75
11, 87326, Note_on_c, 9, 69, 0
11, 87360, Note_on_c, 9, 33, 100
11, 87360, Note_on_c, 9, 69, 75
11, 87388, Note_on_c, 9, 69, 0
11, 87414, Note_on_c, 9, 33, 0
11, 87478, Note_on_c, 9, 69, 75
11, 87506, Note_on_c, 9, 69, 0
11, 87538, Note_on_c, 9, 69, 75
11, 87566, Note_on_c, 9, 69, 0
11, 87598, Note_on_c, 9, 69, 75
11, 87600, Note_on_c, 9, 25, 78
11, 87600, Note_on_c, 9, 54, 70
11, 87626, Note_on_c, 9, 69, 0
11, 87628, Note_on_c, 9, 54, 0
11, 87628, Note_on_c, 9, 25, 0
11, 87719, Note_on_c, 9, 69, 75
11, 87720, Note_on_c, 9, 33, 100
11, 87747, Note_on_c, 9, 69, 0
11, 87774, Note_on_c, 9, 33, 0
11, 87778, Note_on_c, 9, 69, 75
11, 87806, Note_on_c, 9, 69, 0
11, 87840, Note_on_c, 9, 33, 100
11, 87841, Note_on_c, 9, 69, 75
11, 87869, Note_on_c, 9, 69, 0
11, 87894, Note_on_c, 9, 33, 0
11, 87958, Note_on_c, 9, 69, 75
11, 87986, Note_on_c, 9, 69, 0
11, 88018, Note_on_c, 9, 69, 75
11, 88046, Note_on_c, 9, 69, 0
11, 88078, Note_on_c, 9, 69, 75
11, 88080, Note_on_c, 9, 25, 78
11, 88080, Note_on_c, 9, 54, 70
11, 88106, Note_on_c, 9, 69, 0
11, 88108, Note_on_c, 9, 54, 0
11, 88108, Note_on_c, 9, 25, 0
11, 88200, Note_on_c, 9, 69, 75
11, 88228, Note_on_c, 9, 69, 0
11, 88259, Note_on_c, 9, 69, 75
11, 88287, Note_on_c, 9, 69, 0
11, 88320, Note_on_c, 9, 33, 100
11, 88321, Note_on_c, 9, 69, 75
11, 88349, Note_on_c, 9, 69, 0
11, 88374, Note_on_c, 9, 33, 0
11, 88438, Note_on_c, 9, 69, 75
11, 88466, Note_on_c, 9, 69, 0
11, 88498, Note_on_c, 9, 69, 75
11, 88526, Note_on_c, 9, 69, 0
11, 88558, Note_on_c, 9, 69, 75
11, 88560, Note_on_c, 9, 25, 78
11, 88560, Note_on_c, 9, 54, 70
11, 88586, Note_on_c, 9, 69, 0
11, 88588, Note_on_c, 9, 54, 0
11, 88588, Note_on_c, 9, 25, 0
11, 88679, Note_on_c, 9, 69, 75
11, 88680, Note_on_c, 9, 33, 100
11, 88707, Note_on_c, 9, 69, 0
11, 88734, Note_on_c, 9, 33, 0
11, 88739, Note_on_c, 9, 69, 75
11, 88767, Note_on_c, 9, 69, 0
11, 88800, Note_on_c, 9, 33, 100
11, 88801, Note_on_c, 9, 69, 75
11, 88829, Note_on_c, 9, 69, 0
11, 88854, Note_on_c, 9, 33, 0
11, 88918, Note_on_c, 9, 69, 75
11, 88946, Note_on_c, 9, 69, 0
11, 88978, Note_on_c, 9, 69, 75
11, 89006, Note_on_c, 9, 69, 0
11, 89038, Note_on_c, 9, 69, 75
11, 89040, Note_on_c, 9, 25, 78
11, 89040, Note_on_c, 9, 54, 70
11, 89066, Note_on_c, 9, 69, 0
11, 89068, Note_on_c, 9, 54, 0
11, 89068, Note_on_c, 9, 25, 0
11, 89160, Note_on_c, 9, 69, 75
11, 89188, Note_on_c, 9, 69, 0
11, 89218, Note_on_c, 9, 69, 75
11, 89246, Note_on_c, 9, 69, 0
11, 89280, Note_on_c, 9, 33, 100
11, 89280, Note_on_c, 9, 69, 75
11, 89308, Note_on_c, 9, 69, 0
11, 89334, Note_on_c, 9, 33, 0
11, 89398, Note_on_c, 9, 69, 75
11, 89426, Note_on_c, 9, 69, 0
11, 89458, Note_on_c, 9, 69, 75
11, 89486, Note_on_c, 9, 69, 0
11, 89518, Note_on_c, 9, 69, 75
11, 89520, Note_on_c, 9, 25, 78
11, 89520, Note_on_c, 9, 54, 70
11, 89546, Note_on_c, 9, 69, 0
11, 89548, Note_on_c, 9, 54, 0
11, 89548, Note_on_c, 9, 25, 0
11, 89639, Note_on_c, 9, 69, 75
11, 89640, Note_on_c, 9, 33, 100
11, 89667, Note_on_c, 9, 69, 0
11, 89694, Note_on_c, 9, 33, 0
11, 89698, Note_on_c, 9, 69, 75
11, 89726, Note_on_c, 9, 69, 0
11, 89760, Note_on_c, 9, 33, 100
11, 89761, Note_on_c, 9, 69, 75
11, 89789, Note_on_c, 9, 69, 0
11, 89814, Note_on_c, 9, 33, 0
11, 89878, Note_on_c, 9, 69, 75
11, 89906, Note_on_c, 9, 69, 0
11, 89938, Note_on_c, 9, 69, 75
11, 89966, Note_on_c, 9, 69, 0
11, 89998, Note_on_c, 9, 69, 75
11, 90000, Note_on_c, 9, 25, 78
11, 90000, Note_on_c, 9, 54, 70
11, 90026, Note_on_c, 9, 69, 0
11, 90028, Note_on_c, 9, 54, 0
11, 90028, Note_on_c, 9, 25, 0
11, 90120, Note_on_c, 9, 69, 75
11, 90148, Note_on_c, 9, 69, 0
11, 90179, Note_on_c, 9, 69, 75
11, 90207, Note_on_c, 9, 69, 0
11, 90240, Note_on_c, 9, 33, 100
11, 90241, Note_on_c, 9, 69, 75
11, 90269, Note_on_c, 9, 69, 0
11, 90294, Note_on_c, 9, 33, 0
11, 90358, Note_on_c, 9, 69, 75
11, 90386, Note_on_c, 9, 69, 0
11, 90418, Note_on_c, 9, 69, 75
11, 90446, Note_on_c, 9, 69, 0
11, 90478, Note_on_c, 9, 69, 75
11, 90480, Note_on_c, 9, 25, 78
11, 90480, Note_on_c, 9, 54, 70
11, 90506, Note_on_c, 9, 69, 0
11, 90508, Note_on_c, 9, 54, 0
11, 90508, Note_on_c, 9, 25, 0
11, 90599, Note_on_c, 9, 69, 75
11, 90600, Note_on_c, 9, 33, 100
11, 90627, Note_on_c, 9, 69, 0
11, 90654, Note_on_c, 9, 33, 0
11, 90659, Note_on_c, 9, 69, 75
11, 90687, Note_on_c, 9, 69, 0
11, 90720, Note_on_c, 9, 33, 100
11, 90721, Note_on_c, 9, 69, 75
11, 90749, Note_on_c, 9, 69, 0
11, 90774, Note_on_c, 9, 33, 0
11, 90838, Note_on_c, 9, 69, 75
11, 90866, Note_on_c, 9, 69, 0
11, 90898, Note_on_c, 9, 69, 75
11, 90926, Note_on_c, 9, 69, 0
11, 90958, Note_on_c, 9, 69, 75
11, 90960, Note_on_c, 9, 25, 78
11, 90960, Note_on_c, 9, 54, 70
11, 90986, Note_on_c, 9, 69, 0
11, 90988, Note_on_c, 9, 54, 0
11, 90988, Note_on_c, 9, 25, 0
11, 91080, Note_on_c, 9, 69, 75
11, 91108, Note_on_c, 9, 69, 0
11, 91138, Note_on_c, 9, 69, 75
11, 91166, Note_on_c, 9, 69, 0
11, 91200, Note_on_c, 9, 33, 100
11, 91200, Note_on_c, 9, 69, 75
11, 91228, Note_on_c, 9, 69, 0
11, 91254, Note_on_c, 9, 33, 0
11, 91318, Note_on_c, 9, 69, 75
11, 91346, Note_on_c, 9, 69, 0
11, 91378, Note_on_c, 9, 69, 75
11, 91406, Note_on_c, 9, 69, 0
11, 91438, Note_on_c, 9, 69, 75
11, 91440, Note_on_c, 9, 25, 78
11, 91440, Note_on_c, 9, 54, 70
11, 91466, Note_on_c, 9, 69, 0
11, 91468, Note_on_c, 9, 54, 0
11, 91468, Note_on_c, 9, 25, 0
11, 91559, Note_on_c, 9, 69, 75
11, 91560, Note_on_c, 9, 33, 100
11, 91587, Note_on_c, 9, 69, 0
11, 91614, Note_on_c, 9, 33, 0
11, 91618, Note_on_c, 9, 69, 75
11, 91646, Note_on_c, 9, 69, 0
11, 91680, Note_on_c, 9, 33, 100
11, 91681, Note_on_c, 9, 69, 75
11, 91709, Note_on_c, 9, 69, 0
11, 91734, Note_on_c, 9, 33, 0
11, 91798, Note_on_c, 9, 69, 75
11, 91826, Note_on_c, 9, 69, 0
11, 91858, Note_on_c, 9, 69, 75
11, 91886, Note_on_c, 9, 69, 0
11, 91918, Note_on_c, 9, 69, 75
11, 91920, Note_on_c, 9, 25, 78
11, 91920, Note_on_c, 9, 54, 70
11, 91946, Note_on_c, 9, 69, 0
11, 91948, Note_on_c, 9, 54, 0
11, 91948, Note_on_c, 9, 25, 0
11, 92040, Note_on_c, 9, 69, 75
11, 92068, Note_on_c, 9, 69, 0
11, 92099, Note_on_c, 9, 69, 75
11, 92127, Note_on_c, 9, 69, 0
11, 92160, Note_on_c, 9, 33, 100
11, 92161, Note_on_c, 9, 69, 75
11, 92189, Note_on_c, 9, 69, 0
11, 92214, Note_on_c, 9, 33, 0
11, 92278, Note_on_c, 9, 69, 75
11, 92306, Note_on_c, 9, 69, 0
11, 92338, Note_on_c, 9, 69, 75
11, 92366, Note_on_c, 9, 69, 0
11, 92398, Note_on_c, 9, 69, 75
11, 92400, Note_on_c, 9, 25, 78
11, 92400, Note_on_c, 9, 54, 70
11, 92426, Note_on_c, 9, 69, 0
11, 92428, Note_on_c, 9, 54, 0
11, 92428, Note_on_c, 9, 25, 0
11, 92519, Note_on_c, 9, 69, 75
11, 92520, Note_on_c, 9, 33, 100
11, 92547, Note_on_c, 9, 69, 0
11, 92574, Note_on_c, 9, 33, 0
11, 92579, Note_on_c, 9, 69, 75
11, 92607, Note_on_c, 9, 69, 0
11, 92640, Note_on_c, 9, 33, 100
11, 92641, Note_on_c, 9, 69, 75
11, 92669, Note_on_c, 9, 69, 0
11, 92694, Note_on_c, 9, 33, 0
11, 92758, Note_on_c, 9, 69, 75
11, 92786, Note_on_c, 9, 69, 0
11, 92818, Note_on_c, 9, 69, 75
11, 92846, Note_on_c, 9, 69, 0
11, 92878, Note_on_c, 9, 69, 75
11, 92880, Note_on_c, 9, 25, 78
11, 92880, Note_on_c, 9, 54, 70
11, 92906, Note_on_c, 9, 69, 0
11, 92908, Note_on_c, 9, 54, 0
11, 92908, Note_on_c, 9, 25, 0
11, 93000, Note_on_c, 9, 69, 75
11, 93028, Note_on_c, 9, 69, 0
11, 93058, Note_on_c, 9, 69, 75
11, 93086, Note_on_c, 9, 69, 0
11, 93120, Note_on_c, 9, 33, 100
11, 93120, Note_on_c, 9, 69, 75
11, 93148, Note_on_c, 9, 69, 0
11, 93174, Note_on_c, 9, 33, 0
11, 93238, Note_on_c, 9, 69, 75
11, 93266, Note_on_c, 9, 69, 0
11, 93298, Note_on_c, 9, 69, 75
11, 93326, Note_on_c, 9, 69, 0
11, 93358, Note_on_c, 9, 69, 75
11, 93360, Note_on_c, 9, 25, 78
11, 93360, Note_on_c, 9, 54, 70
11, 93386, Note_on_c, 9, 69, 0
11, 93388, Note_on_c, 9, 54, 0
11, 93388, Note_on_c, 9, 25, 0
11, 93479, Note_on_c, 9, 69, 75
11, 93480, Note_on_c, 9, 33, 100
11, 93507, Note_on_c, 9, 69, 0
11, 93534, Note_on_c, 9, 33, 0
11, 93538, Note_on_c, 9, 69, 75
11, 93566, Note_on_c, 9, 69, 0
11, 93600, Note_on_c, 9, 33, 100
11, 93601, Note_on_c, 9, 69, 75
11, 93629, Note_on_c, 9, 69, 0
11, 93654, Note_on_c, 9, 33, 0
11, 93718, Note_on_c, 9, 69, 75
11, 93746, Note_on_c, 9, 69, 0
11, 93778, Note_on_c, 9, 69, 75
11, 93806, Note_on_c, 9, 69, 0
11, 93838, Note_on_c, 9, 69, 75
11, 93840, Note_on_c, 9, 25, 78
11, 93840, Note_on_c, 9, 54, 70
11, 93866, Note_on_c, 9, 69, 0
11, 93868, Note_on_c, 9, 54, 0
11, 93868, Note_on_c, 9, 25, 0
11, 93960, Note_on_c, 9, 69, 75
11, 93988, Note_on_c, 9, 69, 0
11, 94019, Note_on_c, 9, 69, 75
11, 94047, Note_on_c, 9, 69, 0
11, 94080, Note_on_c, 9, 33, 100
11, 94081, Note_on_c, 9, 69, 75
11, 94109, Note_on_c, 9, 69, 0
11, 94134, Note_on_c, 9, 33, 0
11, 94198, Note_on_c, 9, 69, 75
11, 94226, Note_on_c, 9, 69, 0
11, 94258, Note_on_c, 9, 69, 75
11, 94286, Note_on_c, 9, 69, 0
11, 94318, Note_on_c, 9, 69, 75
11, 94320, Note_on_c, 9, 25, 78
11, 94320, Note_on_c, 9, 54, 70
11, 94346, Note_on_c, 9, 69, 0
11, 94348, Note_on_c, 9, 54, 0
11, 94348, Note_on_c, 9, 25, 0
11, 94439, Note_on_c, 9, 69, 75
11, 94440, Note_on_c, 9, 33, 100
11, 94467, Note_on_c, 9, 69, 0
11, 94494, Note_on_c, 9, 33, 0
11, 94499, Note_on_c, 9, 69, 75
11, 94527, Note_on_c, 9, 69, 0
11, 94560, Note_on_c, 9, 33, 100
11, 94561, Note_on_c, 9, 69, 75
11, 94589, Note_on_c, 9, 69, 0
11, 94614, Note_on_c, 9, 33, 0
11, 94678, Note_on_c, 9, 69, 75
11, 94706, Note_on_c, 9, 69, 0
11, 94738, Note_on_c, 9, 69, 75
11, 94766, Note_on_c, 9, 69, 0
11, 94798, Note_on_c, 9, 69, 75
11, 94800, Note_on_c, 9, 25, 78
11, 94800, Note_on_c, 9, 54, 70
11, 94826, Note_on_c, 9, 69, 0
11, 94828, Note_on_c, 9, 54, 0
11, 94828, Note_on_c, 9, 25, 0
11, 94920, Note_on_c, 9, 69, 75
11, 94948, Note_on_c, 9, 69, 0
11, 94978, Note_on_c, 9, 69, 75
11, 95006, Note_on_c, 9, 69, 0
11, 95040, Note_on_c, 9, 33, 100
11, 95040, Note_on_c, 9, 69, 75
11, 95068, Note_on_c, 9, 69, 0
11, 95094, Note_on_c, 9, 33, 0
11, 95158, Note_on_c, 9, 69, 75
11, 95186, Note_on_c, 9, 69, 0
11, 95218, Note_on_c, 9, 69, 75
11, 95246, Note_on_c, 9, 69, 0
11, 95278, Note_on_c, 9, 69, 75
11, 95280, Note_on_c, 9, 25, 78
11, 95280, Note_on_c, 9, 54, 70
11, 95306, Note_on_c, 9, 69, 0
11, 95308, Note_on_c, 9, 54, 0
11, 95308, Note_on_c, 9, 25, 0
11, 95399, Note_on_c, 9, 69, 75
11, 95400, Note_on_c, 9, 33, 100
11, 95427, Note_on_c, 9, 69, 0
11, 95454, Note_on_c, 9, 33, 0
11, 95458, Note_on_c, 9, 69, 75
11, 95486, Note_on_c, 9, 69, 0
11, 95520, Note_on_c, 9, 33, 100
11, 95521, Note_on_c, 9, 69, 75
11, 95549, Note_on_c, 9, 69, 0
11, 95574, Note_on_c, 9, 33, 0
11, 95638, Note_on_c, 9, 69, 75
11, 95666, Note_on_c, 9, 69, 0
11, 95698, Note_on_c, 9, 69, 75
11, 95726, Note_on_c, 9, 69, 0
11, 95758, Note_on_c, 9, 69, 75
11, 95760, Note_on_c, 9, 25, 78
11, 95760, Note_on_c, 9, 54, 70
11, 95786, Note_on_c, 9, 69, 0
11, 95788, Note_on_c, 9, 54, 0
11, 95788, Note_on_c, 9, 25, 0
11, 95880, Note_on_c, 9, 69, 75
11, 95908, Note_on_c, 9, 69, 0
11, 95939, Note_on_c, 9, 69, 75
11, 95967, Note_on_c, 9, 69, 0
11, 96000, Note_on_c, 9, 33, 100
11, 96054, Note_on_c, 9, 33, 0
11, 96360, Note_on_c, 9, 33, 100
11, 96414, Note_on_c, 9, 33, 0
11, 96960, Note_on_c, 9, 33, 100
11, 97014, Note_on_c, 9, 33, 0
11, 97320, Note_on_c, 9, 33, 100
11, 97374, Note_on_c, 9, 33, 0
11, 97920, Note_on_c, 9, 33, 100
11, 97974, Note_on_c, 9, 33, 0
11, 98280, Note_on_c, 9, 33, 100
11, 98334, Note_on_c, 9, 33, 0
11, 98880, Note_on_c, 9, 33, 100
11, 98934, Note_on_c, 9, 33, 0
11, 99240, Note_on_c, 9, 33, 100
11, 99294, Note_on_c, 9, 33, 0
11, 99840, Note_on_c, 9, 33, 100
11, 99894, Note_on_c, 9, 33, 0
11, 100200, Note_on_c, 9, 33, 100
11, 100254, Note_on_c, 9, 33, 0
11, 100800, Note_on_c, 9, 33, 100
11, 100854, Note_on_c, 9, 33, 0
11, 101160, Note_on_c, 9, 33, 100
11, 101214, Note_on_c, 9, 33, 0
11, 101760, Note_on_c, 9, 33, 100
11, 101814, Note_on_c, 9, 33, 0
11, 102120, Note_on_c, 9, 33, 100
11, 102174, Note_on_c, 9, 33, 0
11, 102720, Note_on_c, 9, 33, 100
11, 102774, Note_on_c, 9, 33, 0
11, 103080, Note_on_c, 9, 33, 100
11, 103134, Note_on_c, 9, 33, 0
11, 103680, Note_on_c, 9, 33, 100
11, 103734, Note_on_c, 9, 33, 0
11, 104040, Note_on_c, 9, 33, 100
11, 104094, Note_on_c, 9, 33, 0
11, 104640, Note_on_c, 9, 33, 100
11, 104694, Note_on_c, 9, 33, 0
11, 105000, Note_on_c, 9, 33, 100
11, 105054, Note_on_c, 9, 33, 0
11, 105600, Note_on_c, 9, 33, 100
11, 105654, Note_on_c, 9, 33, 0
11, 105654, End_track
12, 0, Start_track
12, 0, Title_t, "Nylon Gtr Pick"
12, 0, Program_c, 10, 24
12, 3840, Note_on_c, 10, 41, 100
12, 4077, Note_on_c, 10, 41, 0
12, 4080, Note_on_c, 10, 43, 100
12, 4121, Note_on_c, 10, 43, 0
12, 4122, Note_on_c, 10, 45, 100
12, 4198, Note_on_c, 10, 45, 0
12, 4200, Note_on_c, 10, 48, 100
12, 4318, Note_on_c, 10, 48, 0
12, 4320, Note_on_c, 10, 41, 100
12, 4558, Note_on_c, 10, 41, 0
12, 4560, Note_on_c, 10, 43, 100
12, 4601, Note_on_c, 10, 43, 0
12, 4602, Note_on_c, 10, 45, 100
12, 4678, Note_on_c, 10, 45, 0
12, 4680, Note_on_c, 10, 48, 100
12, 4798, Note_on_c, 10, 48, 0
12, 4800, Note_on_c, 10, 41, 100
12, 5037, Note_on_c, 10, 41, 0
12, 5040, Note_on_c, 10, 43, 100
12, 5081, Note_on_c, 10, 43, 0
12, 5082, Note_on_c, 10, 45, 100
12, 5158, Note_on_c, 10, 45, 0
12, 5160, Note_on_c, 10, 48, 100
12, 5278, Note_on_c, 10, 48, 0
12, 5280, Note_on_c, 10, 41, 100
12, 5518, Note_on_c, 10, 41, 0
12, 5520, Note_on_c, 10, 43, 100
12, 5561, Note_on_c, 10, 43, 0
12, 5562, Note_on_c, 10, 45, 100
12, 5638, Note_on_c, 10, 45, 0
12, 5640, Note_on_c, 10, 48, 100
12, 5758, Note_on_c, 10, 48, 0
12, 5760, Note_on_c, 10, 41, 100
12, 5997, Note_on_c, 10, 41, 0
12, 6000, Note_on_c, 10, 43, 100
12, 6041, Note_on_c, 10, 43, 0
12, 6042, Note_on_c, 10, 45, 100
12, 6118, Note_on_c, 10, 45, 0
12, 6120, Note_on_c, 10, 48, 100
12, 6238, Note_on_c, 10, 48, 0
12, 6240, Note_on_c, 10, 41, 100
12, 6478, Note_on_c, 10, 41, 0
12, 6480, Note_on_c, 10, 43, 100
12, 6521, Note_on_c, 10, 43, 0
12, 6522, Note_on_c, 10, 45, 100
12, 6598, Note_on_c, 10, 45, 0
12, 6600, Note_on_c, 10, 48, 100
12, 6718, Note_on_c, 10, 48, 0
12, 6720, Note_on_c, 10, 41, 100
12, 6957, Note_on_c, 10, 41, 0
12, 6960, Note_on_c, 10, 43, 100
12, 7001, Note_on_c, 10, 43, 0
12, 7002, Note_on_c, 10, 45, 100
12, 7078, Note_on_c, 10, 45, 0
12, 7080, Note_on_c, 10, 48, 100
12, 7198, Note_on_c, 10, 48, 0
12, 7200, Note_on_c, 10, 41, 100
12, 7438, Note_on_c, 10, 41, 0
12, 7440, Note_on_c, 10, 43, 100
12, 7481, Note_on_c, 10, 43, 0
12, 7482, Note_on_c, 10, 45, 100
12, 7558, Note_on_c, 10, 45, 0
12, 7560, Note_on_c, 10, 48, 100
12, 7678, Note_on_c, 10, 48, 0
12, 7680, Note_on_c, 10, 41, 100
12, 7917, Note_on_c, 10, 41, 0
12, 7920, Note_on_c, 10, 43, 100
12, 7961, Note_on_c, 10, 43, 0
12, 7962, Note_on_c, 10, 45, 100
12, 8038, Note_on_c, 10, 45, 0
12, 8040, Note_on_c, 10, 48, 100
12, 8158, Note_on_c, 10, 48, 0
12, 8160, Note_on_c, 10, 41, 100
12, 8398, Note_on_c, 10, 41, 0
12, 8400, Note_on_c, 10, 43, 100
12, 8441, Note_on_c, 10, 43, 0
12, 8442, Note_on_c, 10, 45, 100
12, 8518, Note_on_c, 10, 45, 0
12, 8520, Note_on_c, 10, 48, 100
12, 8638, Note_on_c, 10, 48, 0
12, 8640, Note_on_c, 10, 41, 100
12, 8877, Note_on_c, 10, 41, 0
12, 8880, Note_on_c, 10, 43, 100
12, 8921, Note_on_c, 10, 43, 0
12, 8922, Note_on_c, 10, 45, 100
12, 8998, Note_on_c, 10, 45, 0
12, 9000, Note_on_c, 10, 48, 100
12, 9118, Note_on_c, 10, 48, 0
12, 9120, Note_on_c, 10, 41, 100
12, 9358, Note_on_c, 10, 41, 0
12, 9360, Note_on_c, 10, 43, 100
12, 9401, Note_on_c, 10, 43, 0
12, 9402, Note_on_c, 10, 45, 100
12, 9478, Note_on_c, 10, 45, 0
12, 9480, Note_on_c, 10, 48, 100
12, 9598, Note_on_c, 10, 48, 0
12, 9600, Note_on_c, 10, 41, 100
12, 9837, Note_on_c, 10, 41, 0
12, 9840, Note_on_c, 10, 43, 100
12, 9881, Note_on_c, 10, 43, 0
12, 9882, Note_on_c, 10, 45, 100
12, 9958, Note_on_c, 10, 45, 0
12, 9960, Note_on_c, 10, 48, 100
12, 10078, Note_on_c, 10, 48, 0
12, 10080, Note_on_c, 10, 41, 100
12, 10318, Note_on_c, 10, 41, 0
12, 10320, Note_on_c, 10, 43, 100
12, 10361, Note_on_c, 10, 43, 0
12, 10362, Note_on_c, 10, 45, 100
12, 10438, Note_on_c, 10, 45, 0
12, 10440, Note_on_c, 10, 48, 100
12, 10558, Note_on_c, 10, 48, 0
12, 10560, Note_on_c, 10, 41, 100
12, 10797, Note_on_c, 10, 41, 0
12, 10800, Note_on_c, 10, 43, 100
12, 10841, Note_on_c, 10, 43, 0
12, 10842, Note_on_c, 10, 45, 100
12, 10918, Note_on_c, 10, 45, 0
12, 10920, Note_on_c, 10, 48, 100
12, 11038, Note_on_c, 10, 48, 0
12, 11040, Note_on_c, 10, 41, 100
12, 11278, Note_on_c, 10, 41, 0
12, 11280, Note_on_c, 10, 43, 100
12, 11321, Note_on_c, 10, 43, 0
12, 11322, Note_on_c, 10, 45, 100
12, 11398, Note_on_c, 10, 45, 0
12, 11400, Note_on_c, 10, 48, 100
12, 11518, Note_on_c, 10, 48, 0
12, 11520, Note_on_c, 10, 46, 100
12, 11728, Note_on_c, 10, 46, 0
12, 11760, Note_on_c, 10, 46, 100
12, 11968, Note_on_c, 10, 46, 0
12, 12000, Note_on_c, 10, 46, 100
12, 12208, Note_on_c, 10, 46, 0
12, 12240, Note_on_c, 10, 46, 100
12, 12448, Note_on_c, 10, 46, 0
12, 12480, Note_on_c, 10, 46, 100
12, 12688, Note_on_c, 10, 46, 0
12, 12720, Note_on_c, 10, 46, 100
12, 12928, Note_on_c, 10, 46, 0
12, 12960, Note_on_c, 10, 46, 100
12, 13168, Note_on_c, 10, 46, 0
12, 13200, Note_on_c, 10, 46, 100
12, 13408, Note_on_c, 10, 46, 0
12, 13440, Note_on_c, 10, 41, 100
12, 13677, Note_on_c, 10, 41, 0
12, 13680, Note_on_c, 10, 43, 100
12, 13721, Note_on_c, 10, 43, 0
12, 13722, Note_on_c, 10, 45, 100
12, 13798, Note_on_c, 10, 45, 0
12, 13800, Note_on_c, 10, 48, 100
12, 13918, Note_on_c, 10, 48, 0
12, 13920, Note_on_c, 10, 41, 100
12, 14158, Note_on_c, 10, 41, 0
12, 14160, Note_on_c, 10, 43, 100
12, 14201, Note_on_c, 10, 43, 0
12, 14202, Note_on_c, 10, 45, 100
12, 14278, Note_on_c, 10, 45, 0
12, 14280, Note_on_c, 10, 48, 100
12, 14398, Note_on_c, 10, 48, 0
12, 14400, Note_on_c, 10, 41, 100
12, 14637, Note_on_c, 10, 41, 0
12, 14640, Note_on_c, 10, 43, 100
12, 14681, Note_on_c, 10, 43, 0
12, 14682, Note_on_c, 10, 45, 100
12, 14758, Note_on_c, 10, 45, 0
12, 14760, Note_on_c, 10, 48, 100
12, 14878, Note_on_c, 10, 48, 0
12, 14880, Note_on_c, 10, 41, 100
12, 15118, Note_on_c, 10, 41, 0
12, 15120, Note_on_c, 10, 43, 100
12, 15161, Note_on_c, 10, 43, 0
12, 15162, Note_on_c, 10, 45, 100
12, 15238, Note_on_c, 10, 45, 0
12, 15240, Note_on_c, 10, 48, 100
12, 15358, Note_on_c, 10, 48, 0
12, 15360, Note_on_c, 10, 41, 100
12, 15597, Note_on_c, 10, 41, 0
12, 15600, Note_on_c, 10, 43, 100
12, 15641, Note_on_c, 10, 43, 0
12, 15642, Note_on_c, 10, 45, 100
12, 15718, Note_on_c, 10, 45, 0
12, 15720, Note_on_c, 10, 48, 100
12, 15838, Note_on_c, 10, 48, 0
12, 15840, Note_on_c, 10, 41, 100
12, 16078, Note_on_c, 10, 41, 0
12, 16080, Note_on_c, 10, 43, 100
12, 16121, Note_on_c, 10, 43, 0
12, 16122, Note_on_c, 10, 45, 100
12, 16198, Note_on_c, 10, 45, 0
12, 16200, Note_on_c, 10, 48, 100
12, 16318, Note_on_c, 10, 48, 0
12, 16320, Note_on_c, 10, 41, 100
12, 16557, Note_on_c, 10, 41, 0
12, 16560, Note_on_c, 10, 43, 100
12, 16601, Note_on_c, 10, 43, 0
12, 16602, Note_on_c, 10, 45, 100
12, 16678, Note_on_c, 10, 45, 0
12, 16680, Note_on_c, 10, 48, 100
12, 16798, Note_on_c, 10, 48, 0
12, 16800, Note_on_c, 10, 41, 100
12, 17038, Note_on_c, 10, 41, 0
12, 17040, Note_on_c, 10, 43, 100
12, 17081, Note_on_c, 10, 43, 0
12, 17082, Note_on_c, 10, 45, 100
12, 17158, Note_on_c, 10, 45, 0
12, 17160, Note_on_c, 10, 48, 100
12, 17278, Note_on_c, 10, 48, 0
12, 17280, Note_on_c, 10, 41, 100
12, 17517, Note_on_c, 10, 41, 0
12, 17520, Note_on_c, 10, 43, 100
12, 17561, Note_on_c, 10, 43, 0
12, 17562, Note_on_c, 10, 45, 100
12, 17638, Note_on_c, 10, 45, 0
12, 17640, Note_on_c, 10, 48, 100
12, 17758, Note_on_c, 10, 48, 0
12, 17760, Note_on_c, 10, 41, 100
12, 17998, Note_on_c, 10, 41, 0
12, 18000, Note_on_c, 10, 43, 100
12, 18041, Note_on_c, 10, 43, 0
12, 18042, Note_on_c, 10, 45, 100
12, 18118, Note_on_c, 10, 45, 0
12, 18120, Note_on_c, 10, 48, 100
12, 18238, Note_on_c, 10, 48, 0
12, 18240, Note_on_c, 10, 41, 100
12, 18477, Note_on_c, 10, 41, 0
12, 18480, Note_on_c, 10, 43, 100
12, 18521, Note_on_c, 10, 43, 0
12, 18522, Note_on_c, 10, 45, 100
12, 18598, Note_on_c, 10, 45, 0
12, 18600, Note_on_c, 10, 48, 100
12, 18718, Note_on_c, 10, 48, 0
12, 18720, Note_on_c, 10, 41, 100
12, 18958, Note_on_c, 10, 41, 0
12, 18960, Note_on_c, 10, 43, 100
12, 19001, Note_on_c, 10, 43, 0
12, 19002, Note_on_c, 10, 45, 100
12, 19078, Note_on_c, 10, 45, 0
12, 19080, Note_on_c, 10, 48, 100
12, 19198, Note_on_c, 10, 48, 0
12, 19200, Note_on_c, 10, 46, 100
12, 19408, Note_on_c, 10, 46, 0
12, 19440, Note_on_c, 10, 46, 100
12, 19648, Note_on_c, 10, 46, 0
12, 19680, Note_on_c, 10, 46, 100
12, 19888, Note_on_c, 10, 46, 0
12, 19920, Note_on_c, 10, 46, 100
12, 20128, Note_on_c, 10, 46, 0
12, 20160, Note_on_c, 10, 46, 100
12, 20368, Note_on_c, 10, 46, 0
12, 20400, Note_on_c, 10, 46, 100
12, 20608, Note_on_c, 10, 46, 0
12, 20640, Note_on_c, 10, 46, 100
12, 20848, Note_on_c, 10, 46, 0
12, 20880, Note_on_c, 10, 46, 100
12, 21088, Note_on_c, 10, 46, 0
12, 21120, Note_on_c, 10, 41, 100
12, 21357, Note_on_c, 10, 41, 0
12, 21360, Note_on_c, 10, 43, 100
12, 21401, Note_on_c, 10, 43, 0
12, 21402, Note_on_c, 10, 45, 100
12, 21478, Note_on_c, 10, 45, 0
12, 21480, Note_on_c, 10, 48, 100
12, 21598, Note_on_c, 10, 48, 0
12, 21600, Note_on_c, 10, 41, 100
12, 21838, Note_on_c, 10, 41, 0
12, 21840, Note_on_c, 10, 43, 100
12, 21881, Note_on_c, 10, 43, 0
12, 21882, Note_on_c, 10, 45, 100
12, 21958, Note_on_c, 10, 45, 0
12, 21960, Note_on_c, 10, 48, 100
12, 22078, Note_on_c, 10, 48, 0
12, 22080, Note_on_c, 10, 41, 100
12, 22317, Note_on_c, 10, 41, 0
12, 22320, Note_on_c, 10, 43, 100
12, 22361, Note_on_c, 10, 43, 0
12, 22362, Note_on_c, 10, 45, 100
12, 22438, Note_on_c, 10, 45, 0
12, 22440, Note_on_c, 10, 48, 100
12, 22558, Note_on_c, 10, 48, 0
12, 22560, Note_on_c, 10, 41, 100
12, 22798, Note_on_c, 10, 41, 0
12, 22800, Note_on_c, 10, 43, 100
12, 22841, Note_on_c, 10, 43, 0
12, 22842, Note_on_c, 10, 45, 100
12, 22918, Note_on_c, 10, 45, 0
12, 22920, Note_on_c, 10, 48, 100
12, 23038, Note_on_c, 10, 48, 0
12, 23040, Note_on_c, 10, 46, 100
12, 23248, Note_on_c, 10, 46, 0
12, 23280, Note_on_c, 10, 46, 100
12, 23488, Note_on_c, 10, 46, 0
12, 23520, Note_on_c, 10, 46, 100
12, 23728, Note_on_c, 10, 46, 0
12, 23760, Note_on_c, 10, 46, 100
12, 23968, Note_on_c, 10, 46, 0
12, 24000, Note_on_c, 10, 46, 100
12, 24208, Note_on_c, 10, 46, 0
12, 24240, Note_on_c, 10, 46, 100
12, 24448, Note_on_c, 10, 46, 0
12, 24480, Note_on_c, 10, 46, 100
12, 24688, Note_on_c, 10, 46, 0
12, 24720, Note_on_c, 10, 46, 100
12, 24928, Note_on_c, 10, 46, 0
12, 24960, Note_on_c, 10, 41, 100
12, 25197, Note_on_c, 10, 41, 0
12, 25200, Note_on_c, 10, 43, 100
12, 25241, Note_on_c, 10, 43, 0
12, 25242, Note_on_c, 10, 45, 100
12, 25318, Note_on_c, 10, 45, 0
12, 25320, Note_on_c, 10, 48, 100
12, 25438, Note_on_c, 10, 48, 0
12, 25440, Note_on_c, 10, 41, 100
12, 25678, Note_on_c, 10, 41, 0
12, 25680, Note_on_c, 10, 43, 100
12, 25721, Note_on_c, 10, 43, 0
12, 25722, Note_on_c, 10, 45, 100
12, 25798, Note_on_c, 10, 45, 0
12, 25800, Note_on_c, 10, 48, 100
12, 25918, Note_on_c, 10, 48, 0
12, 25920, Note_on_c, 10, 41, 100
12, 26157, Note_on_c, 10, 41, 0
12, 26160, Note_on_c, 10, 43, 100
12, 26201, Note_on_c, 10, 43, 0
12, 26202, Note_on_c, 10, 45, 100
12, 26278, Note_on_c, 10, 45, 0
12, 26280, Note_on_c, 10, 48, 100
12, 26398, Note_on_c, 10, 48, 0
12, 26400, Note_on_c, 10, 41, 100
12, 26638, Note_on_c, 10, 41, 0
12, 26640, Note_on_c, 10, 43, 100
12, 26681, Note_on_c, 10, 43, 0
12, 26682, Note_on_c, 10, 45, 100
12, 26758, Note_on_c, 10, 45, 0
12, 26760, Note_on_c, 10, 48, 100
12, 26878, Note_on_c, 10, 48, 0
12, 26880, Note_on_c, 10, 48, 100
12, 27088, Note_on_c, 10, 48, 0
12, 27120, Note_on_c, 10, 48, 100
12, 27328, Note_on_c, 10, 48, 0
12, 27360, Note_on_c, 10, 48, 100
12, 27568, Note_on_c, 10, 48, 0
12, 27600, Note_on_c, 10, 48, 100
12, 27808, Note_on_c, 10, 48, 0
12, 27840, Note_on_c, 10, 46, 100
12, 28048, Note_on_c, 10, 46, 0
12, 28080, Note_on_c, 10, 46, 100
12, 28288, Note_on_c, 10, 46, 0
12, 28320, Note_on_c, 10, 46, 100
12, 28528, Note_on_c, 10, 46, 0
12, 28560, Note_on_c, 10, 46, 100
12, 28768, Note_on_c, 10, 46, 0
12, 28800, Note_on_c, 10, 41, 100
12, 29037, Note_on_c, 10, 41, 0
12, 29040, Note_on_c, 10, 43, 100
12, 29081, Note_on_c, 10, 43, 0
12, 29082, Note_on_c, 10, 45, 100
12, 29158, Note_on_c, 10, 45, 0
12, 29160, Note_on_c, 10, 48, 100
12, 29278, Note_on_c, 10, 48, 0
12, 29280, Note_on_c, 10, 41, 100
12, 29518, Note_on_c, 10, 41, 0
12, 29520, Note_on_c, 10, 43, 100
12, 29561, Note_on_c, 10, 43, 0
12, 29562, Note_on_c, 10, 45, 100
12, 29638, Note_on_c, 10, 45, 0
12, 29640, Note_on_c, 10, 48, 100
12, 29758, Note_on_c, 10, 48, 0
12, 29760, Note_on_c, 10, 41, 100
12, 29997, Note_on_c, 10, 41, 0
12, 30000, Note_on_c, 10, 43, 100
12, 30041, Note_on_c, 10, 43, 0
12, 30042, Note_on_c, 10, 45, 100
12, 30118, Note_on_c, 10, 45, 0
12, 30120, Note_on_c, 10, 48, 100
12, 30238, Note_on_c, 10, 48, 0
12, 30240, Note_on_c, 10, 41, 100
12, 30478, Note_on_c, 10, 41, 0
12, 30480, Note_on_c, 10, 43, 100
12, 30521, Note_on_c, 10, 43, 0
12, 30522, Note_on_c, 10, 45, 100
12, 30598, Note_on_c, 10, 45, 0
12, 30600, Note_on_c, 10, 48, 100
12, 30718, Note_on_c, 10, 48, 0
12, 30720, Note_on_c, 10, 48, 100
12, 30928, Note_on_c, 10, 48, 0
12, 30960, Note_on_c, 10, 48, 100
12, 31168, Note_on_c, 10, 48, 0
12, 31200, Note_on_c, 10, 48, 100
12, 31408, Note_on_c, 10, 48, 0
12, 31440, Note_on_c, 10, 48, 100
12, 31648, Note_on_c, 10, 48, 0
12, 31680, Note_on_c, 10, 46, 100
12, 31888, Note_on_c, 10, 46, 0
12, 31920, Note_on_c, 10, 46, 100
12, 32128, Note_on_c, 10, 46, 0
12, 32160, Note_on_c, 10, 46, 100
12, 32368, Note_on_c, 10, 46, 0
12, 32400, Note_on_c, 10, 46, 100
12, 32608, Note_on_c, 10, 46, 0
12, 32640, Note_on_c, 10, 41, 100
12, 32877, Note_on_c, 10, 41, 0
12, 32880, Note_on_c, 10, 43, 100
12, 32921, Note_on_c, 10, 43, 0
12, 32922, Note_on_c, 10, 45, 100
12, 32998, Note_on_c, 10, 45, 0
12, 33000, Note_on_c, 10, 48, 100
12, 33118, Note_on_c, 10, 48, 0
12, 33120, Note_on_c, 10, 41, 100
12, 33358, Note_on_c, 10, 41, 0
12, 33360, Note_on_c, 10, 43, 100
12, 33401, Note_on_c, 10, 43, 0
12, 33402, Note_on_c, 10, 45, 100
12, 33478, Note_on_c, 10, 45, 0
12, 33480, Note_on_c, 10, 48, 100
12, 33598, Note_on_c, 10, 48, 0
12, 33600, Note_on_c, 10, 41, 100
12, 33837, Note_on_c, 10, 41, 0
12, 33840, Note_on_c, 10, 43, 100
12, 33881, Note_on_c, 10, 43, 0
12, 33882, Note_on_c, 10, 45, 100
12, 33958, Note_on_c, 10, 45, 0
12, 33960, Note_on_c, 10, 48, 100
12, 34078, Note_on_c, 10, 48, 0
12, 34080, Note_on_c, 10, 41, 100
12, 34318, Note_on_c, 10, 41, 0
12, 34320, Note_on_c, 10, 43, 100
12, 34361, Note_on_c, 10, 43, 0
12, 34362, Note_on_c, 10, 45, 100
12, 34438, Note_on_c, 10, 45, 0
12, 34440, Note_on_c, 10, 48, 100
12, 34558, Note_on_c, 10, 48, 0
12, 34560, Note_on_c, 10, 41, 100
12, 34797, Note_on_c, 10, 41, 0
12, 34800, Note_on_c, 10, 43, 100
12, 34841, Note_on_c, 10, 43, 0
12, 34842, Note_on_c, 10, 45, 100
12, 34918, Note_on_c, 10, 45, 0
12, 34920, Note_on_c, 10, 48, 100
12, 35038, Note_on_c, 10, 48, 0
12, 35040, Note_on_c, 10, 41, 100
12, 35278, Note_on_c, 10, 41, 0
12, 35280, Note_on_c, 10, 43, 100
12, 35321, Note_on_c, 10, 43, 0
12, 35322, Note_on_c, 10, 45, 100
12, 35398, Note_on_c, 10, 45, 0
12, 35400, Note_on_c, 10, 48, 100
12, 35518, Note_on_c, 10, 48, 0
12, 35520, Note_on_c, 10, 41, 100
12, 35757, Note_on_c, 10, 41, 0
12, 35760, Note_on_c, 10, 43, 100
12, 35801, Note_on_c, 10, 43, 0
12, 35802, Note_on_c, 10, 45, 100
12, 35878, Note_on_c, 10, 45, 0
12, 35880, Note_on_c, 10, 48, 100
12, 35998, Note_on_c, 10, 48, 0
12, 36000, Note_on_c, 10, 41, 100
12, 36238, Note_on_c, 10, 41, 0
12, 36240, Note_on_c, 10, 43, 100
12, 36281, Note_on_c, 10, 43, 0
12, 36282, Note_on_c, 10, 45, 100
12, 36358, Note_on_c, 10, 45, 0
12, 36360, Note_on_c, 10, 48, 100
12, 36478, Note_on_c, 10, 48, 0
12, 36480, Note_on_c, 10, 41, 100
12, 36717, Note_on_c, 10, 41, 0
12, 36720, Note_on_c, 10, 43, 100
12, 36761, Note_on_c, 10, 43, 0
12, 36762, Note_on_c, 10, 45, 100
12, 36838, Note_on_c, 10, 45, 0
12, 36840, Note_on_c, 10, 48, 100
12, 36958, Note_on_c, 10, 48, 0
12, 36960, Note_on_c, 10, 41, 100
12, 37198, Note_on_c, 10, 41, 0
12, 37200, Note_on_c, 10, 43, 100
12, 37241, Note_on_c, 10, 43, 0
12, 37242, Note_on_c, 10, 45, 100
12, 37318, Note_on_c, 10, 45, 0
12, 37320, Note_on_c, 10, 48, 100
12, 37438, Note_on_c, 10, 48, 0
12, 37440, Note_on_c, 10, 41, 100
12, 37677, Note_on_c, 10, 41, 0
12, 37680, Note_on_c, 10, 43, 100
12, 37721, Note_on_c, 10, 43, 0
12, 37722, Note_on_c, 10, 45, 100
12, 37798, Note_on_c, 10, 45, 0
12, 37800, Note_on_c, 10, 48, 100
12, 37918, Note_on_c, 10, 48, 0
12, 37920, Note_on_c, 10, 41, 100
12, 38158, Note_on_c, 10, 41, 0
12, 38160, Note_on_c, 10, 43, 100
12, 38201, Note_on_c, 10, 43, 0
12, 38202, Note_on_c, 10, 45, 100
12, 38278, Note_on_c, 10, 45, 0
12, 38280, Note_on_c, 10, 48, 100
12, 38398, Note_on_c, 10, 48, 0
12, 38400, Note_on_c, 10, 46, 100
12, 38608, Note_on_c, 10, 46, 0
12, 38640, Note_on_c, 10, 46, 100
12, 38848, Note_on_c, 10, 46, 0
12, 38880, Note_on_c, 10, 46, 100
12, 39088, Note_on_c, 10, 46, 0
12, 39120, Note_on_c, 10, 46, 100
12, 39328, Note_on_c, 10, 46, 0
12, 39360, Note_on_c, 10, 46, 100
12, 39568, Note_on_c, 10, 46, 0
12, 39600, Note_on_c, 10, 46, 100
12, 39808, Note_on_c, 10, 46, 0
12, 39840, Note_on_c, 10, 46, 100
12, 40048, Note_on_c, 10, 46, 0
12, 40080, Note_on_c, 10, 46, 100
12, 40288, Note_on_c, 10, 46, 0
12, 40320, Note_on_c, 10, 41, 100
12, 40557, Note_on_c, 10, 41, 0
12, 40560, Note_on_c, 10, 43, 100
12, 40601, Note_on_c, 10, 43, 0
12, 40602, Note_on_c, 10, 45, 100
12, 40678, Note_on_c, 10, 45, 0
12, 40680, Note_on_c, 10, 48, 100
12, 40798, Note_on_c, 10, 48, 0
12, 40800, Note_on_c, 10, 41, 100
12, 41038, Note_on_c, 10, 41, 0
12, 41040, Note_on_c, 10, 43, 100
12, 41081, Note_on_c, 10, 43, 0
12, 41082, Note_on_c, 10, 45, 100
12, 41158, Note_on_c, 10, 45, 0
12, 41160, Note_on_c, 10, 48, 100
12, 41278, Note_on_c, 10, 48, 0
12, 41280, Note_on_c, 10, 41, 100
12, 41517, Note_on_c, 10, 41, 0
12, 41520, Note_on_c, 10, 43, 100
12, 41561, Note_on_c, 10, 43, 0
12, 41562, Note_on_c, 10, 45, 100
12, 41638, Note_on_c, 10, 45, 0
12, 41640, Note_on_c, 10, 48, 100
12, 41758, Note_on_c, 10, 48, 0
12, 41760, Note_on_c, 10, 41, 100
12, 41998, Note_on_c, 10, 41, 0
12, 42000, Note_on_c, 10, 43, 100
12, 42041, Note_on_c, 10, 43, 0
12, 42042, Note_on_c, 10, 45, 100
12, 42118, Note_on_c, 10, 45, 0
12, 42120, Note_on_c, 10, 48, 100
12, 42238, Note_on_c, 10, 48, 0
12, 42240, Note_on_c, 10, 46, 100
12, 42448, Note_on_c, 10, 46, 0
12, 42480, Note_on_c, 10, 46, 100
12, 42688, Note_on_c, 10, 46, 0
12, 42720, Note_on_c, 10, 46, 100
12, 42928, Note_on_c, 10, 46, 0
12, 42960, Note_on_c, 10, 46, 100
12, 43168, Note_on_c, 10, 46, 0
12, 43200, Note_on_c, 10, 46, 100
12, 43408, Note_on_c, 10, 46, 0
12, 43440, Note_on_c, 10, 46, 100
12, 43648, Note_on_c, 10, 46, 0
12, 43680, Note_on_c, 10, 46, 100
12, 43888, Note_on_c, 10, 46, 0
12, 43920, Note_on_c, 10, 46, 100
12, 44128, Note_on_c, 10, 46, 0
12, 44160, Note_on_c, 10, 41, 100
12, 44397, Note_on_c, 10, 41, 0
12, 44400, Note_on_c, 10, 43, 100
12, 44441, Note_on_c, 10, 43, 0
12, 44442, Note_on_c, 10, 45, 100
12, 44518, Note_on_c, 10, 45, 0
12, 44520, Note_on_c, 10, 48, 100
12, 44638, Note_on_c, 10, 48, 0
12, 44640, Note_on_c, 10, 41, 100
12, 44878, Note_on_c, 10, 41, 0
12, 44880, Note_on_c, 10, 43, 100
12, 44921, Note_on_c, 10, 43, 0
12, 44922, Note_on_c, 10, 45, 100
12, 44998, Note_on_c, 10, 45, 0
12, 45000, Note_on_c, 10, 48, 100
12, 45118, Note_on_c, 10, 48, 0
12, 45120, Note_on_c, 10, 41, 100
12, 45357, Note_on_c, 10, 41, 0
12, 45360, Note_on_c, 10, 43, 100
12, 45401, Note_on_c, 10, 43, 0
12, 45402, Note_on_c, 10, 45, 100
12, 45478, Note_on_c, 10, 45, 0
12, 45480, Note_on_c, 10, 48, 100
12, 45598, Note_on_c, 10, 48, 0
12, 45600, Note_on_c, 10, 41, 100
12, 45838, Note_on_c, 10, 41, 0
12, 45840, Note_on_c, 10, 43, 100
12, 45881, Note_on_c, 10, 43, 0
12, 45882, Note_on_c, 10, 45, 100
12, 45958, Note_on_c, 10, 45, 0
12, 45960, Note_on_c, 10, 48, 100
12, 46078, Note_on_c, 10, 48, 0
12, 46080, Note_on_c, 10, 48, 100
12, 46288, Note_on_c, 10, 48, 0
12, 46320, Note_on_c, 10, 48, 100
12, 46528, Note_on_c, 10, 48, 0
12, 46560, Note_on_c, 10, 48, 100
12, 46768, Note_on_c, 10, 48, 0
12, 46800, Note_on_c, 10, 48, 100
12, 47008, Note_on_c, 10, 48, 0
12, 47040, Note_on_c, 10, 46, 100
12, 47248, Note_on_c, 10, 46, 0
12, 47280, Note_on_c, 10, 46, 100
12, 47488, Note_on_c, 10, 46, 0
12, 47520, Note_on_c, 10, 46, 100
12, 47728, Note_on_c, 10, 46, 0
12, 47760, Note_on_c, 10, 46, 100
12, 47968, Note_on_c, 10, 46, 0
12, 48000, Note_on_c, 10, 41, 100
12, 48237, Note_on_c, 10, 41, 0
12, 48240, Note_on_c, 10, 43, 100
12, 48281, Note_on_c, 10, 43, 0
12, 48282, Note_on_c, 10, 45, 100
12, 48358, Note_on_c, 10, 45, 0
12, 48360, Note_on_c, 10, 48, 100
12, 48478, Note_on_c, 10, 48, 0
12, 48480, Note_on_c, 10, 41, 100
12, 48718, Note_on_c, 10, 41, 0
12, 48720, Note_on_c, 10, 43, 100
12, 48761, Note_on_c, 10, 43, 0
12, 48762, Note_on_c, 10, 45, 100
12, 48838, Note_on_c, 10, 45, 0
12, 48840, Note_on_c, 10, 48, 100
12, 48958, Note_on_c, 10, 48, 0
12, 48960, Note_on_c, 10, 41, 100
12, 49197, Note_on_c, 10, 41, 0
12, 49200, Note_on_c, 10, 43, 100
12, 49241, Note_on_c, 10, 43, 0
12, 49242, Note_on_c, 10, 45, 100
12, 49318, Note_on_c, 10, 45, 0
12, 49320, Note_on_c, 10, 48, 100
12, 49438, Note_on_c, 10, 48, 0
12, 49440, Note_on_c, 10, 41, 100
12, 49678, Note_on_c, 10, 41, 0
12, 49680, Note_on_c, 10, 43, 100
12, 49721, Note_on_c, 10, 43, 0
12, 49722, Note_on_c, 10, 45, 100
12, 49798, Note_on_c, 10, 45, 0
12, 49800, Note_on_c, 10, 48, 100
12, 49918, Note_on_c, 10, 48, 0
12, 49920, Note_on_c, 10, 48, 100
12, 50128, Note_on_c, 10, 48, 0
12, 50160, Note_on_c, 10, 48, 100
12, 50368, Note_on_c, 10, 48, 0
12, 50400, Note_on_c, 10, 48, 100
12, 50608, Note_on_c, 10, 48, 0
12, 50640, Note_on_c, 10, 48, 100
12, 50848, Note_on_c, 10, 48, 0
12, 50880, Note_on_c, 10, 46, 100
12, 51088, Note_on_c, 10, 46, 0
12, 51120, Note_on_c, 10, 46, 100
12, 51328, Note_on_c, 10, 46, 0
12, 51360, Note_on_c, 10, 46, 100
12, 51568, Note_on_c, 10, 46, 0
12, 51600, Note_on_c, 10, 46, 100
12, 51808, Note_on_c, 10, 46, 0
12, 51840, Note_on_c, 10, 41, 100
12, 52077, Note_on_c, 10, 41, 0
12, 52080, Note_on_c, 10, 43, 100
12, 52121, Note_on_c, 10, 43, 0
12, 52122, Note_on_c, 10, 45, 100
12, 52198, Note_on_c, 10, 45, 0
12, 52200, Note_on_c, 10, 48, 100
12, 52318, Note_on_c, 10, 48, 0
12, 52320, Note_on_c, 10, 41, 100
12, 52558, Note_on_c, 10, 41, 0
12, 52560, Note_on_c, 10, 43, 100
12, 52601, Note_on_c, 10, 43, 0
12, 52602, Note_on_c, 10, 45, 100
12, 52678, Note_on_c, 10, 45, 0
12, 52680, Note_on_c, 10, 48, 100
12, 52798, Note_on_c, 10, 48, 0
12, 52800, Note_on_c, 10, 41, 100
12, 53037, Note_on_c, 10, 41, 0
12, 53040, Note_on_c, 10, 43, 100
12, 53081, Note_on_c, 10, 43, 0
12, 53082, Note_on_c, 10, 45, 100
12, 53158, Note_on_c, 10, 45, 0
12, 53160, Note_on_c, 10, 48, 100
12, 53278, Note_on_c, 10, 48, 0
12, 53280, Note_on_c, 10, 41, 100
12, 53518, Note_on_c, 10, 41, 0
12, 53520, Note_on_c, 10, 43, 100
12, 53561, Note_on_c, 10, 43, 0
12, 53562, Note_on_c, 10, 45, 100
12, 53638, Note_on_c, 10, 45, 0
12, 53640, Note_on_c, 10, 48, 100
12, 53758, Note_on_c, 10, 48, 0
12, 53760, Note_on_c, 10, 48, 100
12, 53968, Note_on_c, 10, 48, 0
12, 54000, Note_on_c, 10, 48, 100
12, 54208, Note_on_c, 10, 48, 0
12, 54240, Note_on_c, 10, 48, 100
12, 54448, Note_on_c, 10, 48, 0
12, 54480, Note_on_c, 10, 48, 100
12, 54688, Note_on_c, 10, 48, 0
12, 54720, Note_on_c, 10, 46, 100
12, 54928, Note_on_c, 10, 46, 0
12, 54960, Note_on_c, 10, 46, 100
12, 55168, Note_on_c, 10, 46, 0
12, 55200, Note_on_c, 10, 46, 100
12, 55408, Note_on_c, 10, 46, 0
12, 55440, Note_on_c, 10, 46, 100
12, 55648, Note_on_c, 10, 46, 0
12, 55680, Note_on_c, 10, 41, 100
12, 55917, Note_on_c, 10, 41, 0
12, 55920, Note_on_c, 10, 43, 100
12, 55961, Note_on_c, 10, 43, 0
12, 55962, Note_on_c, 10, 45, 100
12, 56038, Note_on_c, 10, 45, 0
12, 56040, Note_on_c, 10, 48, 100
12, 56158, Note_on_c, 10, 48, 0
12, 56160, Note_on_c, 10, 41, 100
12, 56398, Note_on_c, 10, 41, 0
12, 56400, Note_on_c, 10, 43, 100
12, 56441, Note_on_c, 10, 43, 0
12, 56442, Note_on_c, 10, 45, 100
12, 56518, Note_on_c, 10, 45, 0
12, 56520, Note_on_c, 10, 48, 100
12, 56638, Note_on_c, 10, 48, 0
12, 56640, Note_on_c, 10, 41, 100
12, 56877, Note_on_c, 10, 41, 0
12, 56880, Note_on_c, 10, 43, 100
12, 56921, Note_on_c, 10, 43, 0
12, 56922, Note_on_c, 10, 45, 100
12, 56998, Note_on_c, 10, 45, 0
12, 57000, Note_on_c, 10, 48, 100
12, 57118, Note_on_c, 10, 48, 0
12, 57120, Note_on_c, 10, 41, 100
12, 57358, Note_on_c, 10, 41, 0
12, 57360, Note_on_c, 10, 43, 100
12, 57401, Note_on_c, 10, 43, 0
12, 57402, Note_on_c, 10, 45, 100
12, 57478, Note_on_c, 10, 45, 0
12, 57480, Note_on_c, 10, 48, 100
12, 57598, Note_on_c, 10, 48, 0
12, 57600, Note_on_c, 10, 48, 100
12, 57808, Note_on_c, 10, 48, 0
12, 57840, Note_on_c, 10, 48, 100
12, 58048, Note_on_c, 10, 48, 0
12, 58080, Note_on_c, 10, 48, 100
12, 58288, Note_on_c, 10, 48, 0
12, 58320, Note_on_c, 10, 48, 100
12, 58528, Note_on_c, 10, 48, 0
12, 58560, Note_on_c, 10, 46, 100
12, 58768, Note_on_c, 10, 46, 0
12, 58800, Note_on_c, 10, 46, 100
12, 59008, Note_on_c, 10, 46, 0
12, 59040, Note_on_c, 10, 46, 100
12, 59248, Note_on_c, 10, 46, 0
12, 59280, Note_on_c, 10, 46, 100
12, 59488, Note_on_c, 10, 46, 0
12, 59520, Note_on_c, 10, 41, 100
12, 59757, Note_on_c, 10, 41, 0
12, 59760, Note_on_c, 10, 43, 100
12, 59801, Note_on_c, 10, 43, 0
12, 59802, Note_on_c, 10, 45, 100
12, 59878, Note_on_c, 10, 45, 0
12, 59880, Note_on_c, 10, 48, 100
12, 59998, Note_on_c, 10, 48, 0
12, 60000, Note_on_c, 10, 41, 100
12, 60238, Note_on_c, 10, 41, 0
12, 60240, Note_on_c, 10, 43, 100
12, 60281, Note_on_c, 10, 43, 0
12, 60282, Note_on_c, 10, 45, 100
12, 60358, Note_on_c, 10, 45, 0
12, 60360, Note_on_c, 10, 48, 100
12, 60478, Note_on_c, 10, 48, 0
12, 60480, Note_on_c, 10, 41, 100
12, 60717, Note_on_c, 10, 41, 0
12, 60720, Note_on_c, 10, 43, 100
12, 60761, Note_on_c, 10, 43, 0
12, 60762, Note_on_c, 10, 45, 100
12, 60838, Note_on_c, 10, 45, 0
12, 60840, Note_on_c, 10, 48, 100
12, 60958, Note_on_c, 10, 48, 0
12, 60960, Note_on_c, 10, 41, 100
12, 61198, Note_on_c, 10, 41, 0
12, 61200, Note_on_c, 10, 43, 100
12, 61241, Note_on_c, 10, 43, 0
12, 61242, Note_on_c, 10, 45, 100
12, 61318, Note_on_c, 10, 45, 0
12, 61320, Note_on_c, 10, 48, 100
12, 61438, Note_on_c, 10, 48, 0
12, 61440, Note_on_c, 10, 41, 100
12, 61677, Note_on_c, 10, 41, 0
12, 61680, Note_on_c, 10, 43, 100
12, 61721, Note_on_c, 10, 43, 0
12, 61722, Note_on_c, 10, 45, 100
12, 61798, Note_on_c, 10, 45, 0
12, 61800, Note_on_c, 10, 48, 100
12, 61918, Note_on_c, 10, 48, 0
12, 61920, Note_on_c, 10, 41, 100
12, 62158, Note_on_c, 10, 41, 0
12, 62160, Note_on_c, 10, 43, 100
12, 62201, Note_on_c, 10, 43, 0
12, 62202, Note_on_c, 10, 45, 100
12, 62278, Note_on_c, 10, 45, 0
12, 62280, Note_on_c, 10, 48, 100
12, 62398, Note_on_c, 10, 48, 0
12, 62400, Note_on_c, 10, 41, 100
12, 62637, Note_on_c, 10, 41, 0
12, 62640, Note_on_c, 10, 43, 100
12, 62681, Note_on_c, 10, 43, 0
12, 62682, Note_on_c, 10, 45, 100
12, 62758, Note_on_c, 10, 45, 0
12, 62760, Note_on_c, 10, 48, 100
12, 62878, Note_on_c, 10, 48, 0
12, 62880, Note_on_c, 10, 41, 100
12, 63118, Note_on_c, 10, 41, 0
12, 63120, Note_on_c, 10, 43, 100
12, 63161, Note_on_c, 10, 43, 0
12, 63162, Note_on_c, 10, 45, 100
12, 63238, Note_on_c, 10, 45, 0
12, 63240, Note_on_c, 10, 48, 100
12, 63358, Note_on_c, 10, 48, 0
12, 63360, Note_on_c, 10, 41, 100
12, 63597, Note_on_c, 10, 41, 0
12, 63600, Note_on_c, 10, 43, 100
12, 63641, Note_on_c, 10, 43, 0
12, 63642, Note_on_c, 10, 45, 100
12, 63718, Note_on_c, 10, 45, 0
12, 63720, Note_on_c, 10, 48, 100
12, 63838, Note_on_c, 10, 48, 0
12, 63840, Note_on_c, 10, 41, 100
12, 64078, Note_on_c, 10, 41, 0
12, 64080, Note_on_c, 10, 43, 100
12, 64121, Note_on_c, 10, 43, 0
12, 64122, Note_on_c, 10, 45, 100
12, 64198, Note_on_c, 10, 45, 0
12, 64200, Note_on_c, 10, 48, 100
12, 64318, Note_on_c, 10, 48, 0
12, 64320, Note_on_c, 10, 41, 100
12, 64557, Note_on_c, 10, 41, 0
12, 64560, Note_on_c, 10, 43, 100
12, 64601, Note_on_c, 10, 43, 0
12, 64602, Note_on_c, 10, 45, 100
12, 64678, Note_on_c, 10, 45, 0
12, 64680, Note_on_c, 10, 48, 100
12, 64798, Note_on_c, 10, 48, 0
12, 64800, Note_on_c, 10, 41, 100
12, 65038, Note_on_c, 10, 41, 0
12, 65040, Note_on_c, 10, 43, 100
12, 65081, Note_on_c, 10, 43, 0
12, 65082, Note_on_c, 10, 45, 100
12, 65158, Note_on_c, 10, 45, 0
12, 65160, Note_on_c, 10, 48, 100
12, 65278, Note_on_c, 10, 48, 0
12, 65280, Note_on_c, 10, 46, 100
12, 65488, Note_on_c, 10, 46, 0
12, 65520, Note_on_c, 10, 46, 100
12, 65728, Note_on_c, 10, 46, 0
12, 65760, Note_on_c, 10, 46, 100
12, 65968, Note_on_c, 10, 46, 0
12, 66000, Note_on_c, 10, 46, 100
12, 66208, Note_on_c, 10, 46, 0
12, 66240, Note_on_c, 10, 46, 100
12, 66448, Note_on_c, 10, 46, 0
12, 66480, Note_on_c, 10, 46, 100
12, 66688, Note_on_c, 10, 46, 0
12, 66720, Note_on_c, 10, 46, 100
12, 66928, Note_on_c, 10, 46, 0
12, 66960, Note_on_c, 10, 46, 100
12, 67168, Note_on_c, 10, 46, 0
12, 67200, Note_on_c, 10, 41, 100
12, 67437, Note_on_c, 10, 41, 0
12, 67440, Note_on_c, 10, 43, 100
12, 67481, Note_on_c, 10, 43, 0
12, 67482, Note_on_c, 10, 45, 100
12, 67558, Note_on_c, 10, 45, 0
12, 67560, Note_on_c, 10, 48, 100
12, 67678, Note_on_c, 10, 48, 0
12, 67680, Note_on_c, 10, 41, 100
12, 67918, Note_on_c, 10, 41, 0
12, 67920, Note_on_c, 10, 43, 100
12, 67961, Note_on_c, 10, 43, 0
12, 67962, Note_on_c, 10, 45, 100
12, 68038, Note_on_c, 10, 45, 0
12, 68040, Note_on_c, 10, 48, 100
12, 68158, Note_on_c, 10, 48, 0
12, 68160, Note_on_c, 10, 41, 100
12, 68397, Note_on_c, 10, 41, 0
12, 68400, Note_on_c, 10, 43, 100
12, 68441, Note_on_c, 10, 43, 0
12, 68442, Note_on_c, 10, 45, 100
12, 68518, Note_on_c, 10, 45, 0
12, 68520, Note_on_c, 10, 48, 100
12, 68638, Note_on_c, 10, 48, 0
12, 68640, Note_on_c, 10, 41, 100
12, 68878, Note_on_c, 10, 41, 0
12, 68880, Note_on_c, 10, 43, 100
12, 68921, Note_on_c, 10, 43, 0
12, 68922, Note_on_c, 10, 45, 100
12, 68998, Note_on_c, 10, 45, 0
12, 69000, Note_on_c, 10, 48, 100
12, 69118, Note_on_c, 10, 48, 0
12, 69120, Note_on_c, 10, 41, 100
12, 69357, Note_on_c, 10, 41, 0
12, 69360, Note_on_c, 10, 43, 100
12, 69401, Note_on_c, 10, 43, 0
12, 69402, Note_on_c, 10, 45, 100
12, 69478, Note_on_c, 10, 45, 0
12, 69480, Note_on_c, 10, 48, 100
12, 69598, Note_on_c, 10, 48, 0
12, 69600, Note_on_c, 10, 41, 100
12, 69838, Note_on_c, 10, 41, 0
12, 69840, Note_on_c, 10, 43, 100
12, 69881, Note_on_c, 10, 43, 0
12, 69882, Note_on_c, 10, 45, 100
12, 69958, Note_on_c, 10, 45, 0
12, 69960, Note_on_c, 10, 48, 100
12, 70078, Note_on_c, 10, 48, 0
12, 70080, Note_on_c, 10, 41, 100
12, 70317, Note_on_c, 10, 41, 0
12, 70320, Note_on_c, 10, 43, 100
12, 70361, Note_on_c, 10, 43, 0
12, 70362, Note_on_c, 10, 45, 100
12, 70438, Note_on_c, 10, 45, 0
12, 70440, Note_on_c, 10, 48, 100
12, 70558, Note_on_c, 10, 48, 0
12, 70560, Note_on_c, 10, 41, 100
12, 70798, Note_on_c, 10, 41, 0
12, 70800, Note_on_c, 10, 43, 100
12, 70841, Note_on_c, 10, 43, 0
12, 70842, Note_on_c, 10, 45, 100
12, 70918, Note_on_c, 10, 45, 0
12, 70920, Note_on_c, 10, 48, 100
12, 71038, Note_on_c, 10, 48, 0
12, 71040, Note_on_c, 10, 41, 100
12, 71277, Note_on_c, 10, 41, 0
12, 71280, Note_on_c, 10, 43, 100
12, 71321, Note_on_c, 10, 43, 0
12, 71322, Note_on_c, 10, 45, 100
12, 71398, Note_on_c, 10, 45, 0
12, 71400, Note_on_c, 10, 48, 100
12, 71518, Note_on_c, 10, 48, 0
12, 71520, Note_on_c, 10, 41, 100
12, 71758, Note_on_c, 10, 41, 0
12, 71760, Note_on_c, 10, 43, 100
12, 71801, Note_on_c, 10, 43, 0
12, 71802, Note_on_c, 10, 45, 100
12, 71878, Note_on_c, 10, 45, 0
12, 71880, Note_on_c, 10, 48, 100
12, 71998, Note_on_c, 10, 48, 0
12, 72000, Note_on_c, 10, 41, 100
12, 72237, Note_on_c, 10, 41, 0
12, 72240, Note_on_c, 10, 43, 100
12, 72281, Note_on_c, 10, 43, 0
12, 72282, Note_on_c, 10, 45, 100
12, 72358, Note_on_c, 10, 45, 0
12, 72360, Note_on_c, 10, 48, 100
12, 72478, Note_on_c, 10, 48, 0
12, 72480, Note_on_c, 10, 41, 100
12, 72718, Note_on_c, 10, 41, 0
12, 72720, Note_on_c, 10, 43, 100
12, 72761, Note_on_c, 10, 43, 0
12, 72762, Note_on_c, 10, 45, 100
12, 72838, Note_on_c, 10, 45, 0
12, 72840, Note_on_c, 10, 48, 100
12, 72958, Note_on_c, 10, 48, 0
12, 72960, Note_on_c, 10, 46, 100
12, 73168, Note_on_c, 10, 46, 0
12, 73200, Note_on_c, 10, 46, 100
12, 73408, Note_on_c, 10, 46, 0
12, 73440, Note_on_c, 10, 46, 100
12, 73648, Note_on_c, 10, 46, 0
12, 73680, Note_on_c, 10, 46, 100
12, 73888, Note_on_c, 10, 46, 0
12, 73920, Note_on_c, 10, 46, 100
12, 74128, Note_on_c, 10, 46, 0
12, 74160, Note_on_c, 10, 46, 100
12, 74368, Note_on_c, 10, 46, 0
12, 74400, Note_on_c, 10, 46, 100
12, 74608, Note_on_c, 10, 46, 0
12, 74640, Note_on_c, 10, 46, 100
12, 74848, Note_on_c, 10, 46, 0
12, 74880, Note_on_c, 10, 41, 100
12, 75117, Note_on_c, 10, 41, 0
12, 75120, Note_on_c, 10, 43, 100
12, 75161, Note_on_c, 10, 43, 0
12, 75162, Note_on_c, 10, 45, 100
12, 75238, Note_on_c, 10, 45, 0
12, 75240, Note_on_c, 10, 48, 100
12, 75358, Note_on_c, 10, 48, 0
12, 75360, Note_on_c, 10, 41, 100
12, 75598, Note_on_c, 10, 41, 0
12, 75600, Note_on_c, 10, 43, 100
12, 75641, Note_on_c, 10, 43, 0
12, 75642, Note_on_c, 10, 45, 100
12, 75718, Note_on_c, 10, 45, 0
12, 75720, Note_on_c, 10, 48, 100
12, 75838, Note_on_c, 10, 48, 0
12, 75840, Note_on_c, 10, 41, 100
12, 76077, Note_on_c, 10, 41, 0
12, 76080, Note_on_c, 10, 43, 100
12, 76121, Note_on_c, 10, 43, 0
12, 76122, Note_on_c, 10, 45, 100
12, 76198, Note_on_c, 10, 45, 0
12, 76200, Note_on_c, 10, 48, 100
12, 76318, Note_on_c, 10, 48, 0
12, 76320, Note_on_c, 10, 41, 100
12, 76558, Note_on_c, 10, 41, 0
12, 76560, Note_on_c, 10, 43, 100
12, 76601, Note_on_c, 10, 43, 0
12, 76602, Note_on_c, 10, 45, 100
12, 76678, Note_on_c, 10, 45, 0
12, 76680, Note_on_c, 10, 48, 100
12, 76798, Note_on_c, 10, 48, 0
12, 76800, Note_on_c, 10, 46, 100
12, 77008, Note_on_c, 10, 46, 0
12, 77040, Note_on_c, 10, 46, 100
12, 77248, Note_on_c, 10, 46, 0
12, 77280, Note_on_c, 10, 46, 100
12, 77488, Note_on_c, 10, 46, 0
12, 77520, Note_on_c, 10, 46, 100
12, 77728, Note_on_c, 10, 46, 0
12, 77760, Note_on_c, 10, 46, 100
12, 77968, Note_on_c, 10, 46, 0
12, 78000, Note_on_c, 10, 46, 100
12, 78208, Note_on_c, 10, 46, 0
12, 78240, Note_on_c, 10, 46, 100
12, 78448, Note_on_c, 10, 46, 0
12, 78480, Note_on_c, 10, 46, 100
12, 78688, Note_on_c, 10, 46, 0
12, 78720, Note_on_c, 10, 41, 100
12, 78957, Note_on_c, 10, 41, 0
12, 78960, Note_on_c, 10, 43, 100
12, 79001, Note_on_c, 10, 43, 0
12, 79002, Note_on_c, 10, 45, 100
12, 79078, Note_on_c, 10, 45, 0
12, 79080, Note_on_c, 10, 48, 100
12, 79198, Note_on_c, 10, 48, 0
12, 79200, Note_on_c, 10, 41, 100
12, 79438, Note_on_c, 10, 41, 0
12, 79440, Note_on_c, 10, 43, 100
12, 79481, Note_on_c, 10, 43, 0
12, 79482, Note_on_c, 10, 45, 100
12, 79558, Note_on_c, 10, 45, 0
12, 79560, Note_on_c, 10, 48, 100
12, 79678, Note_on_c, 10, 48, 0
12, 79680, Note_on_c, 10, 41, 100
12, 79917, Note_on_c, 10, 41, 0
12, 79920, Note_on_c, 10, 43, 100
12, 79961, Note_on_c, 10, 43, 0
12, 79962, Note_on_c, 10, 45, 100
12, 80038, Note_on_c, 10, 45, 0
12, 80040, Note_on_c, 10, 48, 100
12, 80158, Note_on_c, 10, 48, 0
12, 80160, Note_on_c, 10, 41, 100
12, 80398, Note_on_c, 10, 41, 0
12, 80400, Note_on_c, 10, 43, 100
12, 80441, Note_on_c, 10, 43, 0
12, 80442, Note_on_c, 10, 45, 100
12, 80518, Note_on_c, 10, 45, 0
12, 80520, Note_on_c, 10, 48, 100
12, 80638, Note_on_c, 10, 48, 0
12, 80640, Note_on_c, 10, 48, 100
12, 80848, Note_on_c, 10, 48, 0
12, 80880, Note_on_c, 10, 48, 100
12, 81088, Note_on_c, 10, 48, 0
12, 81120, Note_on_c, 10, 48, 100
12, 81328, Note_on_c, 10, 48, 0
12, 81360, Note_on_c, 10, 48, 100
12, 81568, Note_on_c, 10, 48, 0
12, 81600, Note_on_c, 10, 46, 100
12, 81808, Note_on_c, 10, 46, 0
12, 81840, Note_on_c, 10, 46, 100
12, 82048, Note_on_c, 10, 46, 0
12, 82080, Note_on_c, 10, 46, 100
12, 82288, Note_on_c, 10, 46, 0
12, 82320, Note_on_c, 10, 46, 100
12, 82528, Note_on_c, 10, 46, 0
12, 82560, Note_on_c, 10, 41, 100
12, 82797, Note_on_c, 10, 41, 0
12, 82800, Note_on_c, 10, 43, 100
12, 82841, Note_on_c, 10, 43, 0
12, 82842, Note_on_c, 10, 45, 100
12, 82918, Note_on_c, 10, 45, 0
12, 82920, Note_on_c, 10, 48, 100
12, 83038, Note_on_c, 10, 48, 0
12, 83040, Note_on_c, 10, 41, 100
12, 83278, Note_on_c, 10, 41, 0
12, 83280, Note_on_c, 10, 43, 100
12, 83321, Note_on_c, 10, 43, 0
12, 83322, Note_on_c, 10, 45, 100
12, 83398, Note_on_c, 10, 45, 0
12, 83400, Note_on_c, 10, 48, 100
12, 83518, Note_on_c, 10, 48, 0
12, 83520, Note_on_c, 10, 41, 100
12, 83757, Note_on_c, 10, 41, 0
12, 83760, Note_on_c, 10, 43, 100
12, 83801, Note_on_c, 10, 43, 0
12, 83802, Note_on_c, 10, 45, 100
12, 83878, Note_on_c, 10, 45, 0
12, 83880, Note_on_c, 10, 48, 100
12, 83998, Note_on_c, 10, 48, 0
12, 84000, Note_on_c, 10, 41, 100
12, 84238, Note_on_c, 10, 41, 0
12, 84240, Note_on_c, 10, 43, 100
12, 84281, Note_on_c, 10, 43, 0
12, 84282, Note_on_c, 10, 45, 100
12, 84358, Note_on_c, 10, 45, 0
12, 84360, Note_on_c, 10, 48, 100
12, 84478, Note_on_c, 10, 48, 0
12, 84480, Note_on_c, 10, 48, 100
12, 84688, Note_on_c, 10, 48, 0
12, 84720, Note_on_c, 10, 48, 100
12, 84928, Note_on_c, 10, 48, 0
12, 84960, Note_on_c, 10, 48, 100
12, 85168, Note_on_c, 10, 48, 0
12, 85200, Note_on_c, 10, 48, 100
12, 85408, Note_on_c, 10, 48, 0
12, 85440, Note_on_c, 10, 46, 100
12, 85648, Note_on_c, 10, 46, 0
12, 85680, Note_on_c, 10, 46, 100
12, 85888, Note_on_c, 10, 46, 0
12, 85920, Note_on_c, 10, 46, 100
12, 86128, Note_on_c, 10, 46, 0
12, 86160, Note_on_c, 10, 46, 100
12, 86368, Note_on_c, 10, 46, 0
12, 86400, Note_on_c, 10, 41, 100
12, 86637, Note_on_c, 10, 41, 0
12, 86640, Note_on_c, 10, 43, 100
12, 86681, Note_on_c, 10, 43, 0
12, 86682, Note_on_c, 10, 45, 100
12, 86758, Note_on_c, 10, 45, 0
12, 86760, Note_on_c, 10, 48, 100
12, 86878, Note_on_c, 10, 48, 0
12, 86880, Note_on_c, 10, 41, 100
12, 87118, Note_on_c, 10, 41, 0
12, 87120, Note_on_c, 10, 43, 100
12, 87161, Note_on_c, 10, 43, 0
12, 87162, Note_on_c, 10, 45, 100
12, 87238, Note_on_c, 10, 45, 0
12, 87240, Note_on_c, 10, 48, 100
12, 87358, Note_on_c, 10, 48, 0
12, 87360, Note_on_c, 10, 41, 100
12, 87597, Note_on_c, 10, 41, 0
12, 87600, Note_on_c, 10, 43, 100
12, 87641, Note_on_c, 10, 43, 0
12, 87642, Note_on_c, 10, 45, 100
12, 87718, Note_on_c, 10, 45, 0
12, 87720, Note_on_c, 10, 48, 100
12, 87838, Note_on_c, 10, 48, 0
12, 87840, Note_on_c, 10, 41, 100
12, 88078, Note_on_c, 10, 41, 0
12, 88080, Note_on_c, 10, 43, 100
12, 88121, Note_on_c, 10, 43, 0
12, 88122, Note_on_c, 10, 45, 100
12, 88198, Note_on_c, 10, 45, 0
12, 88200, Note_on_c, 10, 48, 100
12, 88318, Note_on_c, 10, 48, 0
12, 88320, Note_on_c, 10, 48, 100
12, 88528, Note_on_c, 10, 48, 0
12, 88560, Note_on_c, 10, 48, 100
12, 88768, Note_on_c, 10, 48, 0
12, 88800, Note_on_c, 10, 48, 100
12, 89008, Note_on_c, 10, 48, 0
12, 89040, Note_on_c, 10, 48, 100
12, 89248, Note_on_c, 10, 48, 0
12, 89280, Note_on_c, 10, 46, 100
12, 89488, Note_on_c, 10, 46, 0
12, 89520, Note_on_c, 10, 46, 100
12, 89728, Note_on_c, 10, 46, 0
12, 89760, Note_on_c, 10, 46, 100
12, 89968, Note_on_c, 10, 46, 0
12, 90000, Note_on_c, 10, 46, 100
12, 90208, Note_on_c, 10, 46, 0
12, 90240, Note_on_c, 10, 41, 100
12, 90477, Note_on_c, 10, 41, 0
12, 90480, Note_on_c, 10, 43, 100
12, 90521, Note_on_c, 10, 43, 0
12, 90522, Note_on_c, 10, 45, 100
12, 90598, Note_on_c, 10, 45, 0
12, 90600, Note_on_c, 10, 48, 100
12, 90718, Note_on_c, 10, 48, 0
12, 90720, Note_on_c, 10, 41, 100
12, 90958, Note_on_c, 10, 41, 0
12, 90960, Note_on_c, 10, 43, 100
12, 91001, Note_on_c, 10, 43, 0
12, 91002, Note_on_c, 10, 45, 100
12, 91078, Note_on_c, 10, 45, 0
12, 91080, Note_on_c, 10, 48, 100
12, 91198, Note_on_c, 10, 48, 0
12, 91200, Note_on_c, 10, 41, 100
12, 91437, Note_on_c, 10, 41, 0
12, 91440, Note_on_c, 10, 43, 100
12, 91481, Note_on_c, 10, 43, 0
12, 91482, Note_on_c, 10, 45, 100
12, 91558, Note_on_c, 10, 45, 0
12, 91560, Note_on_c, 10, 48, 100
12, 91678, Note_on_c, 10, 48, 0
12, 91680, Note_on_c, 10, 41, 100
12, 91918, Note_on_c, 10, 41, 0
12, 91920, Note_on_c, 10, 43, 100
12, 91961, Note_on_c, 10, 43, 0
12, 91962, Note_on_c, 10, 45, 100
12, 92038, Note_on_c, 10, 45, 0
12, 92040, Note_on_c, 10, 48, 100
12, 92158, Note_on_c, 10, 48, 0
12, 92160, Note_on_c, 10, 48, 100
12, 92368, Note_on_c, 10, 48, 0
12, 92400, Note_on_c, 10, 48, 100
12, 92608, Note_on_c, 10, 48, 0
12, 92640, Note_on_c, 10, 48, 100
12, 92848, Note_on_c, 10, 48, 0
12, 92880, Note_on_c, 10, 48, 100
12, 93088, Note_on_c, 10, 48, 0
12, 93120, Note_on_c, 10, 46, 100
12, 93328, Note_on_c, 10, 46, 0
12, 93360, Note_on_c, 10, 46, 100
12, 93568, Note_on_c, 10, 46, 0
12, 93600, Note_on_c, 10, 46, 100
12, 93808, Note_on_c, 10, 46, 0
12, 93840, Note_on_c, 10, 46, 100
12, 94048, Note_on_c, 10, 46, 0
12, 94080, Note_on_c, 10, 41, 100
12, 94317, Note_on_c, 10, 41, 0
12, 94320, Note_on_c, 10, 43, 100
12, 94361, Note_on_c, 10, 43, 0
12, 94362, Note_on_c, 10, 45, 100
12, 94438, Note_on_c, 10, 45, 0
12, 94440, Note_on_c, 10, 48, 100
12, 94558, Note_on_c, 10, 48, 0
12, 94560, Note_on_c, 10, 41, 100
12, 94798, Note_on_c, 10, 41, 0
12, 94800, Note_on_c, 10, 43, 100
12, 94841, Note_on_c, 10, 43, 0
12, 94842, Note_on_c, 10, 45, 100
12, 94918, Note_on_c, 10, 45, 0
12, 94920, Note_on_c, 10, 48, 100
12, 95038, Note_on_c, 10, 48, 0
12, 95040, Note_on_c, 10, 41, 100
12, 95277, Note_on_c, 10, 41, 0
12, 95280, Note_on_c, 10, 43, 100
12, 95321, Note_on_c, 10, 43, 0
12, 95322, Note_on_c, 10, 45, 100
12, 95398, Note_on_c, 10, 45, 0
12, 95400, Note_on_c, 10, 48, 100
12, 95518, Note_on_c, 10, 48, 0
12, 95520, Note_on_c, 10, 41, 100
12, 95758, Note_on_c, 10, 41, 0
12, 95760, Note_on_c, 10, 43, 100
12, 95801, Note_on_c, 10, 43, 0
12, 95802, Note_on_c, 10, 45, 100
12, 95878, Note_on_c, 10, 45, 0
12, 95880, Note_on_c, 10, 48, 100
12, 95998, Note_on_c, 10, 48, 0
12, 96000, Note_on_c, 10, 41, 100
12, 96237, Note_on_c, 10, 41, 0
12, 96237, End_track
13, 0, Start_track
13, 0, Title_t, "Nylon gtr Strum"
13, 0, Program_c, 11, 24
13, 3957, Note_on_c, 11, 65, 37
13, 3965, Note_on_c, 11, 60, 71
13, 3970, Note_on_c, 11, 57, 66
13, 3975, Note_on_c, 11, 53, 39
13, 4315, Note_on_c, 11, 65, 0
13, 4323, Note_on_c, 11, 60, 0
13, 4328, Note_on_c, 11, 57, 0
13, 4333, Note_on_c, 11, 53, 0
13, 4437, Note_on_c, 11, 65, 37
13, 4445, Note_on_c, 11, 60, 71
13, 4450, Note_on_c, 11, 57, 66
13, 4455, Note_on_c, 11, 53, 39
13, 4795, Note_on_c, 11, 65, 0
13, 4803, Note_on_c, 11, 60, 0
13, 4808, Note_on_c, 11, 57, 0
13, 4813, Note_on_c, 11, 53, 0
13, 4917, Note_on_c, 11, 65, 37
13, 4925, Note_on_c, 11, 60, 71
13, 4930, Note_on_c, 11, 57, 66
13, 4935, Note_on_c, 11, 53, 39
13, 5275, Note_on_c, 11, 65, 0
13, 5283, Note_on_c, 11, 60, 0
13, 5288, Note_on_c, 11, 57, 0
13, 5293, Note_on_c, 11, 53, 0
13, 5397, Note_on_c, 11, 65, 37
13, 5405, Note_on_c, 11, 60, 71
13, 5410, Note_on_c, 11, 57, 66
13, 5415, Note_on_c, 11, 53, 39
13, 5755, Note_on_c, 11, 65, 0
13, 5763, Note_on_c, 11, 60, 0
13, 5768, Note_on_c, 11, 57, 0
13, 5773, Note_on_c, 11, 53, 0
13, 5877, Note_on_c, 11, 65, 37
13, 5885, Note_on_c, 11, 60, 71
13, 5890, Note_on_c, 11, 57, 66
13, 5895, Note_on_c, 11, 53, 39
13, 6235, Note_on_c, 11, 65, 0
13, 6243, Note_on_c, 11, 60, 0
13, 6248, Note_on_c, 11, 57, 0
13, 6253, Note_on_c, 11, 53, 0
13, 6357, Note_on_c, 11, 65, 37
13, 6365, Note_on_c, 11, 60, 71
13, 6370, Note_on_c, 11, 57, 66
13, 6375, Note_on_c, 11, 53, 39
13, 6715, Note_on_c, 11, 65, 0
13, 6723, Note_on_c, 11, 60, 0
13, 6728, Note_on_c, 11, 57, 0
13, 6733, Note_on_c, 11, 53, 0
13, 6837, Note_on_c, 11, 65, 37
13, 6845, Note_on_c, 11, 60, 71
13, 6850, Note_on_c, 11, 57, 66
13, 6855, Note_on_c, 11, 53, 39
13, 7195, Note_on_c, 11, 65, 0
13, 7203, Note_on_c, 11, 60, 0
13, 7208, Note_on_c, 11, 57, 0
13, 7213, Note_on_c, 11, 53, 0
13, 7317, Note_on_c, 11, 65, 37
13, 7325, Note_on_c, 11, 60, 71
13, 7330, Note_on_c, 11, 57, 66
13, 7335, Note_on_c, 11, 53, 39
13, 7675, Note_on_c, 11, 65, 0
13, 7683, Note_on_c, 11, 60, 0
13, 7688, Note_on_c, 11, 57, 0
13, 7693, Note_on_c, 11, 53, 0
13, 7797, Note_on_c, 11, 65, 37
13, 7805, Note_on_c, 11, 60, 71
13, 7810, Note_on_c, 11, 57, 66
13, 7815, Note_on_c, 11, 53, 39
13, 8155, Note_on_c, 11, 65, 0
13, 8163, Note_on_c, 11, 60, 0
13, 8168, Note_on_c, 11, 57, 0
13, 8173, Note_on_c, 11, 53, 0
13, 8277, Note_on_c, 11, 65, 37
13, 8285, Note_on_c, 11, 60, 71
13, 8290, Note_on_c, 11, 57, 66
13, 8295, Note_on_c, 11, 53, 39
13, 8635, Note_on_c, 11, 65, 0
13, 8643, Note_on_c, 11, 60, 0
13, 8648, Note_on_c, 11, 57, 0
13, 8653, Note_on_c, 11, 53, 0
13, 8757, Note_on_c, 11, 65, 37
13, 8765, Note_on_c, 11, 60, 71
13, 8770, Note_on_c, 11, 57, 66
13, 8775, Note_on_c, 11, 53, 39
13, 9115, Note_on_c, 11, 65, 0
13, 9123, Note_on_c, 11, 60, 0
13, 9128, Note_on_c, 11, 57, 0
13, 9133, Note_on_c, 11, 53, 0
13, 9237, Note_on_c, 11, 65, 37
13, 9245, Note_on_c, 11, 60, 71
13, 9250, Note_on_c, 11, 57, 66
13, 9255, Note_on_c, 11, 53, 39
13, 9595, Note_on_c, 11, 65, 0
13, 9603, Note_on_c, 11, 60, 0
13, 9608, Note_on_c, 11, 57, 0
13, 9613, Note_on_c, 11, 53, 0
13, 9717, Note_on_c, 11, 65, 37
13, 9725, Note_on_c, 11, 60, 71
13, 9730, Note_on_c, 11, 57, 66
13, 9735, Note_on_c, 11, 53, 39
13, 10075, Note_on_c, 11, 65, 0
13, 10083, Note_on_c, 11, 60, 0
13, 10088, Note_on_c, 11, 57, 0
13, 10093, Note_on_c, 11, 53, 0
13, 10197, Note_on_c, 11, 65, 37
13, 10205, Note_on_c, 11, 60, 71
13, 10210, Note_on_c, 11, 57, 66
13, 10215, Note_on_c, 11, 53, 39
13, 10555, Note_on_c, 11, 65, 0
13, 10563, Note_on_c, 11, 60, 0
13, 10568, Note_on_c, 11, 57, 0
13, 10573, Note_on_c, 11, 53, 0
13, 10677, Note_on_c, 11, 65, 37
13, 10685, Note_on_c, 11, 60, 71
13, 10690, Note_on_c, 11, 57, 66
13, 10695, Note_on_c, 11, 53, 39
13, 11035, Note_on_c, 11, 65, 0
13, 11043, Note_on_c, 11, 60, 0
13, 11048, Note_on_c, 11, 57, 0
13, 11053, Note_on_c, 11, 53, 0
13, 11157, Note_on_c, 11, 65, 37
13, 11165, Note_on_c, 11, 60, 71
13, 11170, Note_on_c, 11, 57, 66
13, 11175, Note_on_c, 11, 53, 39
13, 11515, Note_on_c, 11, 65, 0
13, 11523, Note_on_c, 11, 60, 0
13, 11528, Note_on_c, 11, 57, 0
13, 11533, Note_on_c, 11, 53, 0
13, 11637, Note_on_c, 11, 65, 37
13, 11645, Note_on_c, 11, 62, 71
13, 11650, Note_on_c, 11, 58, 66
13, 11655, Note_on_c, 11, 53, 39
13, 11850, Note_on_c, 11, 65, 0
13, 11858, Note_on_c, 11, 62, 0
13, 11863, Note_on_c, 11, 58, 0
13, 11868, Note_on_c, 11, 53, 0
13, 11878, Note_on_c, 11, 65, 37
13, 11886, Note_on_c, 11, 62, 71
13, 11891, Note_on_c, 11, 58, 66
13, 11896, Note_on_c, 11, 53, 39
13, 12091, Note_on_c, 11, 65, 0
13, 12098, Note_on_c, 11, 62, 0
13, 12104, Note_on_c, 11, 58, 0
13, 12109, Note_on_c, 11, 53, 0
13, 12117, Note_on_c, 11, 65, 37
13, 12125, Note_on_c, 11, 62, 71
13, 12130, Note_on_c, 11, 58, 66
13, 12135, Note_on_c, 11, 53, 39
13, 12330, Note_on_c, 11, 65, 0
13, 12338, Note_on_c, 11, 62, 0
13, 12343, Note_on_c, 11, 58, 0
13, 12348, Note_on_c, 11, 53, 0
13, 12358, Note_on_c, 11, 65, 37
13, 12366, Note_on_c, 11, 62, 71
13, 12371, Note_on_c, 11, 58, 66
13, 12376, Note_on_c, 11, 53, 39
13, 12571, Note_on_c, 11, 65, 0
13, 12578, Note_on_c, 11, 62, 0
13, 12584, Note_on_c, 11, 58, 0
13, 12589, Note_on_c, 11, 53, 0
13, 12597, Note_on_c, 11, 65, 37
13, 12605, Note_on_c, 11, 62, 71
13, 12610, Note_on_c, 11, 58, 66
13, 12615, Note_on_c, 11, 53, 39
13, 12810, Note_on_c, 11, 65, 0
13, 12818, Note_on_c, 11, 62, 0
13, 12823, Note_on_c, 11, 58, 0
13, 12828, Note_on_c, 11, 53, 0
13, 12838, Note_on_c, 11, 65, 37
13, 12846, Note_on_c, 11, 62, 71
13, 12851, Note_on_c, 11, 58, 66
13, 12856, Note_on_c, 11, 53, 39
13, 13051, Note_on_c, 11, 65, 0
13, 13058, Note_on_c, 11, 62, 0
13, 13064, Note_on_c, 11, 58, 0
13, 13069, Note_on_c, 11, 53, 0
13, 13077, Note_on_c, 11, 65, 37
13, 13085, Note_on_c, 11, 62, 71
13, 13090, Note_on_c, 11, 58, 66
13, 13095, Note_on_c, 11, 53, 39
13, 13290, Note_on_c, 11, 65, 0
13, 13298, Note_on_c, 11, 62, 0
13, 13303, Note_on_c, 11, 58, 0
13, 13308, Note_on_c, 11, 53, 0
13, 13318, Note_on_c, 11, 65, 37
13, 13326, Note_on_c, 11, 62, 71
13, 13331, Note_on_c, 11, 58, 66
13, 13336, Note_on_c, 11, 53, 39
13, 13531, Note_on_c, 11, 65, 0
13, 13538, Note_on_c, 11, 62, 0
13, 13544, Note_on_c, 11, 58, 0
13, 13549, Note_on_c, 11, 53, 0
13, 13557, Note_on_c, 11, 65, 37
13, 13565, Note_on_c, 11, 60, 71
13, 13570, Note_on_c, 11, 57, 66
13, 13575, Note_on_c, 11, 53, 39
13, 13915, Note_on_c, 11, 65, 0
13, 13923, Note_on_c, 11, 60, 0
13, 13928, Note_on_c, 11, 57, 0
13, 13933, Note_on_c, 11, 53, 0
13, 14037, Note_on_c, 11, 65, 37
13, 14045, Note_on_c, 11, 60, 71
13, 14050, Note_on_c, 11, 57, 66
13, 14055, Note_on_c, 11, 53, 39
13, 14395, Note_on_c, 11, 65, 0
13, 14403, Note_on_c, 11, 60, 0
13, 14408, Note_on_c, 11, 57, 0
13, 14413, Note_on_c, 11, 53, 0
13, 14517, Note_on_c, 11, 65, 37
13, 14525, Note_on_c, 11, 60, 71
13, 14530, Note_on_c, 11, 57, 66
13, 14535, Note_on_c, 11, 53, 39
13, 14875, Note_on_c, 11, 65, 0
13, 14883, Note_on_c, 11, 60, 0
13, 14888, Note_on_c, 11, 57, 0
13, 14893, Note_on_c, 11, 53, 0
13, 14997, Note_on_c, 11, 65, 37
13, 15005, Note_on_c, 11, 60, 71
13, 15010, Note_on_c, 11, 57, 66
13, 15015, Note_on_c, 11, 53, 39
13, 15355, Note_on_c, 11, 65, 0
13, 15363, Note_on_c, 11, 60, 0
13, 15368, Note_on_c, 11, 57, 0
13, 15373, Note_on_c, 11, 53, 0
13, 15477, Note_on_c, 11, 65, 37
13, 15485, Note_on_c, 11, 60, 71
13, 15490, Note_on_c, 11, 57, 66
13, 15495, Note_on_c, 11, 53, 39
13, 15835, Note_on_c, 11, 65, 0
13, 15843, Note_on_c, 11, 60, 0
13, 15848, Note_on_c, 11, 57, 0
13, 15853, Note_on_c, 11, 53, 0
13, 15957, Note_on_c, 11, 65, 37
13, 15965, Note_on_c, 11, 60, 71
13, 15970, Note_on_c, 11, 57, 66
13, 15975, Note_on_c, 11, 53, 39
13, 16315, Note_on_c, 11, 65, 0
13, 16323, Note_on_c, 11, 60, 0
13, 16328, Note_on_c, 11, 57, 0
13, 16333, Note_on_c, 11, 53, 0
13, 16437, Note_on_c, 11, 65, 37
13, 16445, Note_on_c, 11, 60, 71
13, 16450, Note_on_c, 11, 57, 66
13, 16455, Note_on_c, 11, 53, 39
13, 16795, Note_on_c, 11, 65, 0
13, 16803, Note_on_c, 11, 60, 0
13, 16808, Note_on_c, 11, 57, 0
13, 16813, Note_on_c, 11, 53, 0
13, 16917, Note_on_c, 11, 65, 37
13, 16925, Note_on_c, 11, 60, 71
13, 16930, Note_on_c, 11, 57, 66
13, 16935, Note_on_c, 11, 53, 39
13, 17275, Note_on_c, 11, 65, 0
13, 17283, Note_on_c, 11, 60, 0
13, 17288, Note_on_c, 11, 57, 0
13, 17293, Note_on_c, 11, 53, 0
13, 17397, Note_on_c, 11, 65, 37
13, 17405, Note_on_c, 11, 60, 71
13, 17410, Note_on_c, 11, 57, 66
13, 17415, Note_on_c, 11, 53, 39
13, 17755, Note_on_c, 11, 65, 0
13, 17763, Note_on_c, 11, 60, 0
13, 17768, Note_on_c, 11, 57, 0
13, 17773, Note_on_c, 11, 53, 0
13, 17877, Note_on_c, 11, 65, 37
13, 17885, Note_on_c, 11, 60, 71
13, 17890, Note_on_c, 11, 57, 66
13, 17895, Note_on_c, 11, 53, 39
13, 18235, Note_on_c, 11, 65, 0
13, 18243, Note_on_c, 11, 60, 0
13, 18248, Note_on_c, 11, 57, 0
13, 18253, Note_on_c, 11, 53, 0
13, 18357, Note_on_c, 11, 65, 37
13, 18365, Note_on_c, 11, 60, 71
13, 18370, Note_on_c, 11, 57, 66
13, 18375, Note_on_c, 11, 53, 39
13, 18715, Note_on_c, 11, 65, 0
13, 18723, Note_on_c, 11, 60, 0
13, 18728, Note_on_c, 11, 57, 0
13, 18733, Note_on_c, 11, 53, 0
13, 18837, Note_on_c, 11, 65, 37
13, 18845, Note_on_c, 11, 60, 71
13, 18850, Note_on_c, 11, 57, 66
13, 18855, Note_on_c, 11, 53, 39
13, 19195, Note_on_c, 11, 65, 0
13, 19203, Note_on_c, 11, 60, 0
13, 19208, Note_on_c, 11, 57, 0
13, 19213, Note_on_c, 11, 53, 0
13, 19317, Note_on_c, 11, 65, 37
13, 19325, Note_on_c, 11, 62, 71
13, 19330, Note_on_c, 11, 58, 66
13, 19335, Note_on_c, 11, 53, 39
13, 19530, Note_on_c, 11, 65, 0
13, 19538, Note_on_c, 11, 62, 0
13, 19543, Note_on_c, 11, 58, 0
13, 19548, Note_on_c, 11, 53, 0
13, 19558, Note_on_c, 11, 65, 37
13, 19566, Note_on_c, 11, 62, 71
13, 19571, Note_on_c, 11, 58, 66
13, 19576, Note_on_c, 11, 53, 39
13, 19771, Note_on_c, 11, 65, 0
13, 19778, Note_on_c, 11, 62, 0
13, 19784, Note_on_c, 11, 58, 0
13, 19789, Note_on_c, 11, 53, 0
13, 19797, Note_on_c, 11, 65, 37
13, 19805, Note_on_c, 11, 62, 71
13, 19810, Note_on_c, 11, 58, 66
13, 19815, Note_on_c, 11, 53, 39
13, 20010, Note_on_c, 11, 65, 0
13, 20018, Note_on_c, 11, 62, 0
13, 20023, Note_on_c, 11, 58, 0
13, 20028, Note_on_c, 11, 53, 0
13, 20038, Note_on_c, 11, 65, 37
13, 20046, Note_on_c, 11, 62, 71
13, 20051, Note_on_c, 11, 58, 66
13, 20056, Note_on_c, 11, 53, 39
13, 20251, Note_on_c, 11, 65, 0
13, 20258, Note_on_c, 11, 62, 0
13, 20264, Note_on_c, 11, 58, 0
13, 20269, Note_on_c, 11, 53, 0
13, 20277, Note_on_c, 11, 65, 37
13, 20285, Note_on_c, 11, 62, 71
13, 20290, Note_on_c, 11, 58, 66
13, 20295, Note_on_c, 11, 53, 39
13, 20490, Note_on_c, 11, 65, 0
13, 20498, Note_on_c, 11, 62, 0
13, 20503, Note_on_c, 11, 58, 0
13, 20508, Note_on_c, 11, 53, 0
13, 20518, Note_on_c, 11, 65, 37
13, 20526, Note_on_c, 11, 62, 71
13, 20531, Note_on_c, 11, 58, 66
13, 20536, Note_on_c, 11, 53, 39
13, 20731, Note_on_c, 11, 65, 0
13, 20738, Note_on_c, 11, 62, 0
13, 20744, Note_on_c, 11, 58, 0
13, 20749, Note_on_c, 11, 53, 0
13, 20757, Note_on_c, 11, 65, 37
13, 20765, Note_on_c, 11, 62, 71
13, 20770, Note_on_c, 11, 58, 66
13, 20775, Note_on_c, 11, 53, 39
13, 20970, Note_on_c, 11, 65, 0
13, 20978, Note_on_c, 11, 62, 0
13, 20983, Note_on_c, 11, 58, 0
13, 20988, Note_on_c, 11, 53, 0
13, 20998, Note_on_c, 11, 65, 37
13, 21006, Note_on_c, 11, 62, 71
13, 21011, Note_on_c, 11, 58, 66
13, 21016, Note_on_c, 11, 53, 39
13, 21211, Note_on_c, 11, 65, 0
13, 21218, Note_on_c, 11, 62, 0
13, 21224, Note_on_c, 11, 58, 0
13, 21229, Note_on_c, 11, 53, 0
13, 21237, Note_on_c, 11, 65, 37
13, 21245, Note_on_c, 11, 60, 71
13, 21250, Note_on_c, 11, 57, 66
13, 21255, Note_on_c, 11, 53, 39
13, 21595, Note_on_c, 11, 65, 0
13, 21603, Note_on_c, 11, 60, 0
13, 21608, Note_on_c, 11, 57, 0
13, 21613, Note_on_c, 11, 53, 0
13, 21717, Note_on_c, 11, 65, 37
13, 21725, Note_on_c, 11, 60, 71
13, 21730, Note_on_c, 11, 57, 66
13, 21735, Note_on_c, 11, 53, 39
13, 22075, Note_on_c, 11, 65, 0
13, 22083, Note_on_c, 11, 60, 0
13, 22088, Note_on_c, 11, 57, 0
13, 22093, Note_on_c, 11, 53, 0
13, 22197, Note_on_c, 11, 65, 37
13, 22205, Note_on_c, 11, 60, 71
13, 22210, Note_on_c, 11, 57, 66
13, 22215, Note_on_c, 11, 53, 39
13, 22555, Note_on_c, 11, 65, 0
13, 22563, Note_on_c, 11, 60, 0
13, 22568, Note_on_c, 11, 57, 0
13, 22573, Note_on_c, 11, 53, 0
13, 22677, Note_on_c, 11, 65, 37
13, 22685, Note_on_c, 11, 60, 71
13, 22690, Note_on_c, 11, 57, 66
13, 22695, Note_on_c, 11, 53, 39
13, 23035, Note_on_c, 11, 65, 0
13, 23043, Note_on_c, 11, 60, 0
13, 23048, Note_on_c, 11, 57, 0
13, 23053, Note_on_c, 11, 53, 0
13, 23157, Note_on_c, 11, 65, 37
13, 23165, Note_on_c, 11, 62, 71
13, 23170, Note_on_c, 11, 58, 66
13, 23175, Note_on_c, 11, 53, 39
13, 23370, Note_on_c, 11, 65, 0
13, 23378, Note_on_c, 11, 62, 0
13, 23383, Note_on_c, 11, 58, 0
13, 23388, Note_on_c, 11, 53, 0
13, 23398, Note_on_c, 11, 65, 37
13, 23406, Note_on_c, 11, 62, 71
13, 23411, Note_on_c, 11, 58, 66
13, 23416, Note_on_c, 11, 53, 39
13, 23611, Note_on_c, 11, 65, 0
13, 23618, Note_on_c, 11, 62, 0
13, 23624, Note_on_c, 11, 58, 0
13, 23629, Note_on_c, 11, 53, 0
13, 23637, Note_on_c, 11, 65, 37
13, 23645, Note_on_c, 11, 62, 71
13, 23650, Note_on_c, 11, 58, 66
13, 23655, Note_on_c, 11, 53, 39
13, 23850, Note_on_c, 11, 65, 0
13, 23858, Note_on_c, 11, 62, 0
13, 23863, Note_on_c, 11, 58, 0
13, 23868, Note_on_c, 11, 53, 0
13, 23878, Note_on_c, 11, 65, 37
13, 23886, Note_on_c, 11, 62, 71
13, 23891, Note_on_c, 11, 58, 66
13, 23896, Note_on_c, 11, 53, 39
13, 24091, Note_on_c, 11, 65, 0
13, 24098, Note_on_c, 11, 62, 0
13, 24104, Note_on_c, 11, 58, 0
13, 24109, Note_on_c, 11, 53, 0
13, 24117, Note_on_c, 11, 65, 37
13, 24125, Note_on_c, 11, 62, 71
13, 24130, Note_on_c, 11, 58, 66
13, 24135, Note_on_c, 11, 53, 39
13, 24330, Note_on_c, 11, 65, 0
13, 24338, Note_on_c, 11, 62, 0
13, 24343, Note_on_c, 11, 58, 0
13, 24348, Note_on_c, 11, 53, 0
13, 24358, Note_on_c, 11, 65, 37
13, 24366, Note_on_c, 11, 62, 71
13, 24371, Note_on_c, 11, 58, 66
13, 24376, Note_on_c, 11, 53, 39
13, 24571, Note_on_c, 11, 65, 0
13, 24578, Note_on_c, 11, 62, 0
13, 24584, Note_on_c, 11, 58, 0
13, 24589, Note_on_c, 11, 53, 0
13, 24597, Note_on_c, 11, 65, 37
13, 24605, Note_on_c, 11, 62, 71
13, 24610, Note_on_c, 11, 58, 66
13, 24615, Note_on_c, 11, 53, 39
13, 24810, Note_on_c, 11, 65, 0
13, 24818, Note_on_c, 11, 62, 0
13, 24823, Note_on_c, 11, 58, 0
13, 24828, Note_on_c, 11, 53, 0
13, 24838, Note_on_c, 11, 65, 37
13, 24846, Note_on_c, 11, 62, 71
13, 24851, Note_on_c, 11, 58, 66
13, 24856, Note_on_c, 11, 53, 39
13, 25051, Note_on_c, 11, 65, 0
13, 25058, Note_on_c, 11, 62, 0
13, 25064, Note_on_c, 11, 58, 0
13, 25069, Note_on_c, 11, 53, 0
13, 25077, Note_on_c, 11, 65, 37
13, 25085, Note_on_c, 11, 60, 71
13, 25090, Note_on_c, 11, 57, 66
13, 25095, Note_on_c, 11, 53, 39
13, 25435, Note_on_c, 11, 65, 0
13, 25443, Note_on_c, 11, 60, 0
13, 25448, Note_on_c, 11, 57, 0
13, 25453, Note_on_c, 11, 53, 0
13, 25557, Note_on_c, 11, 65, 37
13, 25565, Note_on_c, 11, 60, 71
13, 25570, Note_on_c, 11, 57, 66
13, 25575, Note_on_c, 11, 53, 39
13, 25915, Note_on_c, 11, 65, 0
13, 25923, Note_on_c, 11, 60, 0
13, 25928, Note_on_c, 11, 57, 0
13, 25933, Note_on_c, 11, 53, 0
13, 26037, Note_on_c, 11, 65, 37
13, 26045, Note_on_c, 11, 60, 71
13, 26050, Note_on_c, 11, 57, 66
13, 26055, Note_on_c, 11, 53, 39
13, 26395, Note_on_c, 11, 65, 0
13, 26403, Note_on_c, 11, 60, 0
13, 26408, Note_on_c, 11, 57, 0
13, 26413, Note_on_c, 11, 53, 0
13, 26517, Note_on_c, 11, 65, 37
13, 26525, Note_on_c, 11, 60, 71
13, 26530, Note_on_c, 11, 57, 66
13, 26535, Note_on_c, 11, 53, 39
13, 26875, Note_on_c, 11, 65, 0
13, 26883, Note_on_c, 11, 60, 0
13, 26888, Note_on_c, 11, 57, 0
13, 26893, Note_on_c, 11, 53, 0
13, 26997, Note_on_c, 11, 67, 37
13, 27005, Note_on_c, 11, 64, 71
13, 27010, Note_on_c, 11, 60, 66
13, 27015, Note_on_c, 11, 55, 39
13, 27210, Note_on_c, 11, 67, 0
13, 27218, Note_on_c, 11, 64, 0
13, 27223, Note_on_c, 11, 60, 0
13, 27228, Note_on_c, 11, 55, 0
13, 27238, Note_on_c, 11, 67, 37
13, 27246, Note_on_c, 11, 64, 71
13, 27251, Note_on_c, 11, 60, 66
13, 27256, Note_on_c, 11, 55, 39
13, 27451, Note_on_c, 11, 67, 0
13, 27458, Note_on_c, 11, 64, 0
13, 27464, Note_on_c, 11, 60, 0
13, 27469, Note_on_c, 11, 55, 0
13, 27477, Note_on_c, 11, 67, 37
13, 27485, Note_on_c, 11, 64, 71
13, 27490, Note_on_c, 11, 60, 66
13, 27495, Note_on_c, 11, 55, 39
13, 27690, Note_on_c, 11, 67, 0
13, 27698, Note_on_c, 11, 64, 0
13, 27703, Note_on_c, 11, 60, 0
13, 27708, Note_on_c, 11, 55, 0
13, 27718, Note_on_c, 11, 67, 37
13, 27726, Note_on_c, 11, 64, 71
13, 27731, Note_on_c, 11, 60, 66
13, 27736, Note_on_c, 11, 55, 39
13, 27931, Note_on_c, 11, 67, 0
13, 27938, Note_on_c, 11, 64, 0
13, 27944, Note_on_c, 11, 60, 0
13, 27949, Note_on_c, 11, 55, 0
13, 27957, Note_on_c, 11, 65, 37
13, 27965, Note_on_c, 11, 62, 71
13, 27970, Note_on_c, 11, 58, 66
13, 27975, Note_on_c, 11, 53, 39
13, 28170, Note_on_c, 11, 65, 0
13, 28178, Note_on_c, 11, 62, 0
13, 28183, Note_on_c, 11, 58, 0
13, 28188, Note_on_c, 11, 53, 0
13, 28198, Note_on_c, 11, 65, 37
13, 28206, Note_on_c, 11, 62, 71
13, 28211, Note_on_c, 11, 58, 66
13, 28216, Note_on_c, 11, 53, 39
13, 28411, Note_on_c, 11, 65, 0
13, 28418, Note_on_c, 11, 62, 0
13, 28424, Note_on_c, 11, 58, 0
13, 28429, Note_on_c, 11, 53, 0
13, 28437, Note_on_c, 11, 65, 37
13, 28445, Note_on_c, 11, 62, 71
13, 28450, Note_on_c, 11, 58, 66
13, 28455, Note_on_c, 11, 53, 39
13, 28650, Note_on_c, 11, 65, 0
13, 28658, Note_on_c, 11, 62, 0
13, 28663, Note_on_c, 11, 58, 0
13, 28668, Note_on_c, 11, 53, 0
13, 28678, Note_on_c, 11, 65, 37
13, 28686, Note_on_c, 11, 62, 71
13, 28691, Note_on_c, 11, 58, 66
13, 28696, Note_on_c, 11, 53, 39
13, 28891, Note_on_c, 11, 65, 0
13, 28898, Note_on_c, 11, 62, 0
13, 28904, Note_on_c, 11, 58, 0
13, 28909, Note_on_c, 11, 53, 0
13, 28917, Note_on_c, 11, 65, 37
13, 28925, Note_on_c, 11, 60, 71
13, 28930, Note_on_c, 11, 57, 66
13, 28935, Note_on_c, 11, 53, 39
13, 29275, Note_on_c, 11, 65, 0
13, 29283, Note_on_c, 11, 60, 0
13, 29288, Note_on_c, 11, 57, 0
13, 29293, Note_on_c, 11, 53, 0
13, 29397, Note_on_c, 11, 65, 37
13, 29405, Note_on_c, 11, 60, 71
13, 29410, Note_on_c, 11, 57, 66
13, 29415, Note_on_c, 11, 53, 39
13, 29755, Note_on_c, 11, 65, 0
13, 29763, Note_on_c, 11, 60, 0
13, 29768, Note_on_c, 11, 57, 0
13, 29773, Note_on_c, 11, 53, 0
13, 29877, Note_on_c, 11, 65, 37
13, 29885, Note_on_c, 11, 60, 71
13, 29890, Note_on_c, 11, 57, 66
13, 29895, Note_on_c, 11, 53, 39
13, 30235, Note_on_c, 11, 65, 0
13, 30243, Note_on_c, 11, 60, 0
13, 30248, Note_on_c, 11, 57, 0
13, 30253, Note_on_c, 11, 53, 0
13, 30357, Note_on_c, 11, 65, 37
13, 30365, Note_on_c, 11, 60, 71
13, 30370, Note_on_c, 11, 57, 66
13, 30375, Note_on_c, 11, 53, 39
13, 30715, Note_on_c, 11, 65, 0
13, 30723, Note_on_c, 11, 60, 0
13, 30728, Note_on_c, 11, 57, 0
13, 30733, Note_on_c, 11, 53, 0
13, 30837, Note_on_c, 11, 67, 37
13, 30845, Note_on_c, 11, 64, 71
13, 30850, Note_on_c, 11, 60, 66
13, 30855, Note_on_c, 11, 55, 39
13, 31050, Note_on_c, 11, 67, 0
13, 31058, Note_on_c, 11, 64, 0
13, 31063, Note_on_c, 11, 60, 0
13, 31068, Note_on_c, 11, 55, 0
13, 31078, Note_on_c, 11, 67, 37
13, 31086, Note_on_c, 11, 64, 71
13, 31091, Note_on_c, 11, 60, 66
13, 31096, Note_on_c, 11, 55, 39
13, 31291, Note_on_c, 11, 67, 0
13, 31298, Note_on_c, 11, 64, 0
13, 31304, Note_on_c, 11, 60, 0
13, 31309, Note_on_c, 11, 55, 0
13, 31317, Note_on_c, 11, 67, 37
13, 31325, Note_on_c, 11, 64, 71
13, 31330, Note_on_c, 11, 60, 66
13, 31335, Note_on_c, 11, 55, 39
13, 31530, Note_on_c, 11, 67, 0
13, 31538, Note_on_c, 11, 64, 0
13, 31543, Note_on_c, 11, 60, 0
13, 31548, Note_on_c, 11, 55, 0
13, 31558, Note_on_c, 11, 67, 37
13, 31566, Note_on_c, 11, 64, 71
13, 31571, Note_on_c, 11, 60, 66
13, 31576, Note_on_c, 11, 55, 39
13, 31771, Note_on_c, 11, 67, 0
13, 31778, Note_on_c, 11, 64, 0
13, 31784, Note_on_c, 11, 60, 0
13, 31789, Note_on_c, 11, 55, 0
13, 31797, Note_on_c, 11, 65, 37
13, 31805, Note_on_c, 11, 62, 71
13, 31810, Note_on_c, 11, 58, 66
13, 31815, Note_on_c, 11, 53, 39
13, 32010, Note_on_c, 11, 65, 0
13, 32018, Note_on_c, 11, 62, 0
13, 32023, Note_on_c, 11, 58, 0
13, 32028, Note_on_c, 11, 53, 0
13, 32038, Note_on_c, 11, 65, 37
13, 32046, Note_on_c, 11, 62, 71
13, 32051, Note_on_c, 11, 58, 66
13, 32056, Note_on_c, 11, 53, 39
13, 32251, Note_on_c, 11, 65, 0
13, 32258, Note_on_c, 11, 62, 0
13, 32264, Note_on_c, 11, 58, 0
13, 32269, Note_on_c, 11, 53, 0
13, 32277, Note_on_c, 11, 65, 37
13, 32285, Note_on_c, 11, 62, 71
13, 32290, Note_on_c, 11, 58, 66
13, 32295, Note_on_c, 11, 53, 39
13, 32490, Note_on_c, 11, 65, 0
13, 32498, Note_on_c, 11, 62, 0
13, 32503, Note_on_c, 11, 58, 0
13, 32508, Note_on_c, 11, 53, 0
13, 32518, Note_on_c, 11, 65, 37
13, 32526, Note_on_c, 11, 62, 71
13, 32531, Note_on_c, 11, 58, 66
13, 32536, Note_on_c, 11, 53, 39
13, 32731, Note_on_c, 11, 65, 0
13, 32738, Note_on_c, 11, 62, 0
13, 32744, Note_on_c, 11, 58, 0
13, 32749, Note_on_c, 11, 53, 0
13, 32757, Note_on_c, 11, 65, 37
13, 32765, Note_on_c, 11, 60, 71
13, 32770, Note_on_c, 11, 57, 66
13, 32775, Note_on_c, 11, 53, 39
13, 33115, Note_on_c, 11, 65, 0
13, 33123, Note_on_c, 11, 60, 0
13, 33128, Note_on_c, 11, 57, 0
13, 33133, Note_on_c, 11, 53, 0
13, 33237, Note_on_c, 11, 65, 37
13, 33245, Note_on_c, 11, 60, 71
13, 33250, Note_on_c, 11, 57, 66
13, 33255, Note_on_c, 11, 53, 39
13, 33595, Note_on_c, 11, 65, 0
13, 33603, Note_on_c, 11, 60, 0
13, 33608, Note_on_c, 11, 57, 0
13, 33613, Note_on_c, 11, 53, 0
13, 33717, Note_on_c, 11, 65, 37
13, 33725, Note_on_c, 11, 60, 71
13, 33730, Note_on_c, 11, 57, 66
13, 33735, Note_on_c, 11, 53, 39
13, 34075, Note_on_c, 11, 65, 0
13, 34083, Note_on_c, 11, 60, 0
13, 34088, Note_on_c, 11, 57, 0
13, 34093, Note_on_c, 11, 53, 0
13, 34197, Note_on_c, 11, 65, 37
13, 34205, Note_on_c, 11, 60, 71
13, 34210, Note_on_c, 11, 57, 66
13, 34215, Note_on_c, 11, 53, 39
13, 34555, Note_on_c, 11, 65, 0
13, 34563, Note_on_c, 11, 60, 0
13, 34568, Note_on_c, 11, 57, 0
13, 34573, Note_on_c, 11, 53, 0
13, 34677, Note_on_c, 11, 65, 37
13, 34685, Note_on_c, 11, 60, 71
13, 34690, Note_on_c, 11, 57, 66
13, 34695, Note_on_c, 11, 53, 39
13, 35035, Note_on_c, 11, 65, 0
13, 35043, Note_on_c, 11, 60, 0
13, 35048, Note_on_c, 11, 57, 0
13, 35053, Note_on_c, 11, 53, 0
13, 35157, Note_on_c, 11, 65, 37
13, 35165, Note_on_c, 11, 60, 71
13, 35170, Note_on_c, 11, 57, 66
13, 35175, Note_on_c, 11, 53, 39
13, 35515, Note_on_c, 11, 65, 0
13, 35523, Note_on_c, 11, 60, 0
13, 35528, Note_on_c, 11, 57, 0
13, 35533, Note_on_c, 11, 53, 0
13, 35637, Note_on_c, 11, 65, 37
13, 35645, Note_on_c, 11, 60, 71
13, 35650, Note_on_c, 11, 57, 66
13, 35655, Note_on_c, 11, 53, 39
13, 35995, Note_on_c, 11, 65, 0
13, 36003, Note_on_c, 11, 60, 0
13, 36008, Note_on_c, 11, 57, 0
13, 36013, Note_on_c, 11, 53, 0
13, 36117, Note_on_c, 11, 65, 37
13, 36125, Note_on_c, 11, 60, 71
13, 36130, Note_on_c, 11, 57, 66
13, 36135, Note_on_c, 11, 53, 39
13, 36475, Note_on_c, 11, 65, 0
13, 36483, Note_on_c, 11, 60, 0
13, 36488, Note_on_c, 11, 57, 0
13, 36493, Note_on_c, 11, 53, 0
13, 36597, Note_on_c, 11, 65, 37
13, 36605, Note_on_c, 11, 60, 71
13, 36610, Note_on_c, 11, 57, 66
13, 36615, Note_on_c, 11, 53, 39
13, 36955, Note_on_c, 11, 65, 0
13, 36963, Note_on_c, 11, 60, 0
13, 36968, Note_on_c, 11, 57, 0
13, 36973, Note_on_c, 11, 53, 0
13, 37077, Note_on_c, 11, 65, 37
13, 37085, Note_on_c, 11, 60, 71
13, 37090, Note_on_c, 11, 57, 66
13, 37095, Note_on_c, 11, 53, 39
13, 37435, Note_on_c, 11, 65, 0
13, 37443, Note_on_c, 11, 60, 0
13, 37448, Note_on_c, 11, 57, 0
13, 37453, Note_on_c, 11, 53, 0
13, 37557, Note_on_c, 11, 65, 37
13, 37565, Note_on_c, 11, 60, 71
13, 37570, Note_on_c, 11, 57, 66
13, 37575, Note_on_c, 11, 53, 39
13, 37915, Note_on_c, 11, 65, 0
13, 37923, Note_on_c, 11, 60, 0
13, 37928, Note_on_c, 11, 57, 0
13, 37933, Note_on_c, 11, 53, 0
13, 38037, Note_on_c, 11, 65, 37
13, 38045, Note_on_c, 11, 60, 71
13, 38050, Note_on_c, 11, 57, 66
13, 38055, Note_on_c, 11, 53, 39
13, 38395, Note_on_c, 11, 65, 0
13, 38403, Note_on_c, 11, 60, 0
13, 38408, Note_on_c, 11, 57, 0
13, 38413, Note_on_c, 11, 53, 0
13, 38517, Note_on_c, 11, 65, 37
13, 38525, Note_on_c, 11, 62, 71
13, 38530, Note_on_c, 11, 58, 66
13, 38535, Note_on_c, 11, 53, 39
13, 38730, Note_on_c, 11, 65, 0
13, 38738, Note_on_c, 11, 62, 0
13, 38743, Note_on_c, 11, 58, 0
13, 38748, Note_on_c, 11, 53, 0
13, 38758, Note_on_c, 11, 65, 37
13, 38766, Note_on_c, 11, 62, 71
13, 38771, Note_on_c, 11, 58, 66
13, 38776, Note_on_c, 11, 53, 39
13, 38971, Note_on_c, 11, 65, 0
13, 38978, Note_on_c, 11, 62, 0
13, 38984, Note_on_c, 11, 58, 0
13, 38989, Note_on_c, 11, 53, 0
13, 38997, Note_on_c, 11, 65, 37
13, 39005, Note_on_c, 11, 62, 71
13, 39010, Note_on_c, 11, 58, 66
13, 39015, Note_on_c, 11, 53, 39
13, 39210, Note_on_c, 11, 65, 0
13, 39218, Note_on_c, 11, 62, 0
13, 39223, Note_on_c, 11, 58, 0
13, 39228, Note_on_c, 11, 53, 0
13, 39238, Note_on_c, 11, 65, 37
13, 39246, Note_on_c, 11, 62, 71
13, 39251, Note_on_c, 11, 58, 66
13, 39256, Note_on_c, 11, 53, 39
13, 39451, Note_on_c, 11, 65, 0
13, 39458, Note_on_c, 11, 62, 0
13, 39464, Note_on_c, 11, 58, 0
13, 39469, Note_on_c, 11, 53, 0
13, 39477, Note_on_c, 11, 65, 37
13, 39485, Note_on_c, 11, 62, 71
13, 39490, Note_on_c, 11, 58, 66
13, 39495, Note_on_c, 11, 53, 39
13, 39690, Note_on_c, 11, 65, 0
13, 39698, Note_on_c, 11, 62, 0
13, 39703, Note_on_c, 11, 58, 0
13, 39708, Note_on_c, 11, 53, 0
13, 39718, Note_on_c, 11, 65, 37
13, 39726, Note_on_c, 11, 62, 71
13, 39731, Note_on_c, 11, 58, 66
13, 39736, Note_on_c, 11, 53, 39
13, 39931, Note_on_c, 11, 65, 0
13, 39938, Note_on_c, 11, 62, 0
13, 39944, Note_on_c, 11, 58, 0
13, 39949, Note_on_c, 11, 53, 0
13, 39957, Note_on_c, 11, 65, 37
13, 39965, Note_on_c, 11, 62, 71
13, 39970, Note_on_c, 11, 58, 66
13, 39975, Note_on_c, 11, 53, 39
13, 40170, Note_on_c, 11, 65, 0
13, 40178, Note_on_c, 11, 62, 0
13, 40183, Note_on_c, 11, 58, 0
13, 40188, Note_on_c, 11, 53, 0
13, 40198, Note_on_c, 11, 65, 37
13, 40206, Note_on_c, 11, 62, 71
13, 40211, Note_on_c, 11, 58, 66
13, 40216, Note_on_c, 11, 53, 39
13, 40411, Note_on_c, 11, 65, 0
13, 40418, Note_on_c, 11, 62, 0
13, 40424, Note_on_c, 11, 58, 0
13, 40429, Note_on_c, 11, 53, 0
13, 40437, Note_on_c, 11, 65, 37
13, 40445, Note_on_c, 11, 60, 71
13, 40450, Note_on_c, 11, 57, 66
13, 40455, Note_on_c, 11, 53, 39
13, 40795, Note_on_c, 11, 65, 0
13, 40803, Note_on_c, 11, 60, 0
13, 40808, Note_on_c, 11, 57, 0
13, 40813, Note_on_c, 11, 53, 0
13, 40917, Note_on_c, 11, 65, 37
13, 40925, Note_on_c, 11, 60, 71
13, 40930, Note_on_c, 11, 57, 66
13, 40935, Note_on_c, 11, 53, 39
13, 41275, Note_on_c, 11, 65, 0
13, 41283, Note_on_c, 11, 60, 0
13, 41288, Note_on_c, 11, 57, 0
13, 41293, Note_on_c, 11, 53, 0
13, 41397, Note_on_c, 11, 65, 37
13, 41405, Note_on_c, 11, 60, 71
13, 41410, Note_on_c, 11, 57, 66
13, 41415, Note_on_c, 11, 53, 39
13, 41755, Note_on_c, 11, 65, 0
13, 41763, Note_on_c, 11, 60, 0
13, 41768, Note_on_c, 11, 57, 0
13, 41773, Note_on_c, 11, 53, 0
13, 41877, Note_on_c, 11, 65, 37
13, 41885, Note_on_c, 11, 60, 71
13, 41890, Note_on_c, 11, 57, 66
13, 41895, Note_on_c, 11, 53, 39
13, 42235, Note_on_c, 11, 65, 0
13, 42243, Note_on_c, 11, 60, 0
13, 42248, Note_on_c, 11, 57, 0
13, 42253, Note_on_c, 11, 53, 0
13, 42357, Note_on_c, 11, 65, 37
13, 42365, Note_on_c, 11, 62, 71
13, 42370, Note_on_c, 11, 58, 66
13, 42375, Note_on_c, 11, 53, 39
13, 42570, Note_on_c, 11, 65, 0
13, 42578, Note_on_c, 11, 62, 0
13, 42583, Note_on_c, 11, 58, 0
13, 42588, Note_on_c, 11, 53, 0
13, 42598, Note_on_c, 11, 65, 37
13, 42606, Note_on_c, 11, 62, 71
13, 42611, Note_on_c, 11, 58, 66
13, 42616, Note_on_c, 11, 53, 39
13, 42811, Note_on_c, 11, 65, 0
13, 42818, Note_on_c, 11, 62, 0
13, 42824, Note_on_c, 11, 58, 0
13, 42829, Note_on_c, 11, 53, 0
13, 42837, Note_on_c, 11, 65, 37
13, 42845, Note_on_c, 11, 62, 71
13, 42850, Note_on_c, 11, 58, 66
13, 42855, Note_on_c, 11, 53, 39
13, 43050, Note_on_c, 11, 65, 0
13, 43058, Note_on_c, 11, 62, 0
13, 43063, Note_on_c, 11, 58, 0
13, 43068, Note_on_c, 11, 53, 0
13, 43078, Note_on_c, 11, 65, 37
13, 43086, Note_on_c, 11, 62, 71
13, 43091, Note_on_c, 11, 58, 66
13, 43096, Note_on_c, 11, 53, 39
13, 43291, Note_on_c, 11, 65, 0
13, 43298, Note_on_c, 11, 62, 0
13, 43304, Note_on_c, 11, 58, 0
13, 43309, Note_on_c, 11, 53, 0
13, 43317, Note_on_c, 11, 65, 37
13, 43325, Note_on_c, 11, 62, 71
13, 43330, Note_on_c, 11, 58, 66
13, 43335, Note_on_c, 11, 53, 39
13, 43530, Note_on_c, 11, 65, 0
13, 43538, Note_on_c, 11, 62, 0
13, 43543, Note_on_c, 11, 58, 0
13, 43548, Note_on_c, 11, 53, 0
13, 43558, Note_on_c, 11, 65, 37
13, 43566, Note_on_c, 11, 62, 71
13, 43571, Note_on_c, 11, 58, 66
13, 43576, Note_on_c, 11, 53, 39
13, 43771, Note_on_c, 11, 65, 0
13, 43778, Note_on_c, 11, 62, 0
13, 43784, Note_on_c, 11, 58, 0
13, 43789, Note_on_c, 11, 53, 0
13, 43797, Note_on_c, 11, 65, 37
13, 43805, Note_on_c, 11, 62, 71
13, 43810, Note_on_c, 11, 58, 66
13, 43815, Note_on_c, 11, 53, 39
13, 44010, Note_on_c, 11, 65, 0
13, 44018, Note_on_c, 11, 62, 0
13, 44023, Note_on_c, 11, 58, 0
13, 44028, Note_on_c, 11, 53, 0
13, 44038, Note_on_c, 11, 65, 37
13, 44046, Note_on_c, 11, 62, 71
13, 44051, Note_on_c, 11, 58, 66
13, 44056, Note_on_c, 11, 53, 39
13, 44251, Note_on_c, 11, 65, 0
13, 44258, Note_on_c, 11, 62, 0
13, 44264, Note_on_c, 11, 58, 0
13, 44269, Note_on_c, 11, 53, 0
13, 44277, Note_on_c, 11, 65, 37
13, 44285, Note_on_c, 11, 60, 71
13, 44290, Note_on_c, 11, 57, 66
13, 44295, Note_on_c, 11, 53, 39
13, 44635, Note_on_c, 11, 65, 0
13, 44643, Note_on_c, 11, 60, 0
13, 44648, Note_on_c, 11, 57, 0
13, 44653, Note_on_c, 11, 53, 0
13, 44757, Note_on_c, 11, 65, 37
13, 44765, Note_on_c, 11, 60, 71
13, 44770, Note_on_c, 11, 57, 66
13, 44775, Note_on_c, 11, 53, 39
13, 45115, Note_on_c, 11, 65, 0
13, 45123, Note_on_c, 11, 60, 0
13, 45128, Note_on_c, 11, 57, 0
13, 45133, Note_on_c, 11, 53, 0
13, 45237, Note_on_c, 11, 65, 37
13, 45245, Note_on_c, 11, 60, 71
13, 45250, Note_on_c, 11, 57, 66
13, 45255, Note_on_c, 11, 53, 39
13, 45595, Note_on_c, 11, 65, 0
13, 45603, Note_on_c, 11, 60, 0
13, 45608, Note_on_c, 11, 57, 0
13, 45613, Note_on_c, 11, 53, 0
13, 45717, Note_on_c, 11, 65, 37
13, 45725, Note_on_c, 11, 60, 71
13, 45730, Note_on_c, 11, 57, 66
13, 45735, Note_on_c, 11, 53, 39
13, 46075, Note_on_c, 11, 65, 0
13, 46083, Note_on_c, 11, 60, 0
13, 46088, Note_on_c, 11, 57, 0
13, 46093, Note_on_c, 11, 53, 0
13, 46197, Note_on_c, 11, 67, 37
13, 46205, Note_on_c, 11, 64, 71
13, 46210, Note_on_c, 11, 60, 66
13, 46215, Note_on_c, 11, 55, 39
13, 46410, Note_on_c, 11, 67, 0
13, 46418, Note_on_c, 11, 64, 0
13, 46423, Note_on_c, 11, 60, 0
13, 46428, Note_on_c, 11, 55, 0
13, 46438, Note_on_c, 11, 67, 37
13, 46446, Note_on_c, 11, 64, 71
13, 46451, Note_on_c, 11, 60, 66
13, 46456, Note_on_c, 11, 55, 39
13, 46651, Note_on_c, 11, 67, 0
13, 46658, Note_on_c, 11, 64, 0
13, 46664, Note_on_c, 11, 60, 0
13, 46669, Note_on_c, 11, 55, 0
13, 46677, Note_on_c, 11, 67, 37
13, 46685, Note_on_c, 11, 64, 71
13, 46690, Note_on_c, 11, 60, 66
13, 46695, Note_on_c, 11, 55, 39
13, 46890, Note_on_c, 11, 67, 0
13, 46898, Note_on_c, 11, 64, 0
13, 46903, Note_on_c, 11, 60, 0
13, 46908, Note_on_c, 11, 55, 0
13, 46918, Note_on_c, 11, 67, 37
13, 46926, Note_on_c, 11, 64, 71
13, 46931, Note_on_c, 11, 60, 66
13, 46936, Note_on_c, 11, 55, 39
13, 47131, Note_on_c, 11, 67, 0
13, 47138, Note_on_c, 11, 64, 0
13, 47144, Note_on_c, 11, 60, 0
13, 47149, Note_on_c, 11, 55, 0
13, 47157, Note_on_c, 11, 65, 37
13, 47165, Note_on_c, 11, 62, 71
13, 47170, Note_on_c, 11, 58, 66
13, 47175, Note_on_c, 11, 53, 39
13, 47370, Note_on_c, 11, 65, 0
13, 47378, Note_on_c, 11, 62, 0
13, 47383, Note_on_c, 11, 58, 0
13, 47388, Note_on_c, 11, 53, 0
13, 47398, Note_on_c, 11, 65, 37
13, 47406, Note_on_c, 11, 62, 71
13, 47411, Note_on_c, 11, 58, 66
13, 47416, Note_on_c, 11, 53, 39
13, 47611, Note_on_c, 11, 65, 0
13, 47618, Note_on_c, 11, 62, 0
13, 47624, Note_on_c, 11, 58, 0
13, 47629, Note_on_c, 11, 53, 0
13, 47637, Note_on_c, 11, 65, 37
13, 47645, Note_on_c, 11, 62, 71
13, 47650, Note_on_c, 11, 58, 66
13, 47655, Note_on_c, 11, 53, 39
13, 47850, Note_on_c, 11, 65, 0
13, 47858, Note_on_c, 11, 62, 0
13, 47863, Note_on_c, 11, 58, 0
13, 47868, Note_on_c, 11, 53, 0
13, 47878, Note_on_c, 11, 65, 37
13, 47886, Note_on_c, 11, 62, 71
13, 47891, Note_on_c, 11, 58, 66
13, 47896, Note_on_c, 11, 53, 39
13, 48091, Note_on_c, 11, 65, 0
13, 48098, Note_on_c, 11, 62, 0
13, 48104, Note_on_c, 11, 58, 0
13, 48109, Note_on_c, 11, 53, 0
13, 48117, Note_on_c, 11, 65, 37
13, 48125, Note_on_c, 11, 60, 71
13, 48130, Note_on_c, 11, 57, 66
13, 48135, Note_on_c, 11, 53, 39
13, 48475, Note_on_c, 11, 65, 0
13, 48483, Note_on_c, 11, 60, 0
13, 48488, Note_on_c, 11, 57, 0
13, 48493, Note_on_c, 11, 53, 0
13, 48597, Note_on_c, 11, 65, 37
13, 48605, Note_on_c, 11, 60, 71
13, 48610, Note_on_c, 11, 57, 66
13, 48615, Note_on_c, 11, 53, 39
13, 48955, Note_on_c, 11, 65, 0
13, 48963, Note_on_c, 11, 60, 0
13, 48968, Note_on_c, 11, 57, 0
13, 48973, Note_on_c, 11, 53, 0
13, 49077, Note_on_c, 11, 65, 37
13, 49085, Note_on_c, 11, 60, 71
13, 49090, Note_on_c, 11, 57, 66
13, 49095, Note_on_c, 11, 53, 39
13, 49435, Note_on_c, 11, 65, 0
13, 49443, Note_on_c, 11, 60, 0
13, 49448, Note_on_c, 11, 57, 0
13, 49453, Note_on_c, 11, 53, 0
13, 49557, Note_on_c, 11, 65, 37
13, 49565, Note_on_c, 11, 60, 71
13, 49570, Note_on_c, 11, 57, 66
13, 49575, Note_on_c, 11, 53, 39
13, 49915, Note_on_c, 11, 65, 0
13, 49923, Note_on_c, 11, 60, 0
13, 49928, Note_on_c, 11, 57, 0
13, 49933, Note_on_c, 11, 53, 0
13, 50037, Note_on_c, 11, 67, 37
13, 50045, Note_on_c, 11, 64, 71
13, 50050, Note_on_c, 11, 60, 66
13, 50055, Note_on_c, 11, 55, 39
13, 50250, Note_on_c, 11, 67, 0
13, 50258, Note_on_c, 11, 64, 0
13, 50263, Note_on_c, 11, 60, 0
13, 50268, Note_on_c, 11, 55, 0
13, 50278, Note_on_c, 11, 67, 37
13, 50286, Note_on_c, 11, 64, 71
13, 50291, Note_on_c, 11, 60, 66
13, 50296, Note_on_c, 11, 55, 39
13, 50491, Note_on_c, 11, 67, 0
13, 50498, Note_on_c, 11, 64, 0
13, 50504, Note_on_c, 11, 60, 0
13, 50509, Note_on_c, 11, 55, 0
13, 50517, Note_on_c, 11, 67, 37
13, 50525, Note_on_c, 11, 64, 71
13, 50530, Note_on_c, 11, 60, 66
13, 50535, Note_on_c, 11, 55, 39
13, 50730, Note_on_c, 11, 67, 0
13, 50738, Note_on_c, 11, 64, 0
13, 50743, Note_on_c, 11, 60, 0
13, 50748, Note_on_c, 11, 55, 0
13, 50758, Note_on_c, 11, 67, 37
13, 50766, Note_on_c, 11, 64, 71
13, 50771, Note_on_c, 11, 60, 66
13, 50776, Note_on_c, 11, 55, 39
13, 50971, Note_on_c, 11, 67, 0
13, 50978, Note_on_c, 11, 64, 0
13, 50984, Note_on_c, 11, 60, 0
13, 50989, Note_on_c, 11, 55, 0
13, 50997, Note_on_c, 11, 65, 37
13, 51005, Note_on_c, 11, 62, 71
13, 51010, Note_on_c, 11, 58, 66
13, 51015, Note_on_c, 11, 53, 39
13, 51210, Note_on_c, 11, 65, 0
13, 51218, Note_on_c, 11, 62, 0
13, 51223, Note_on_c, 11, 58, 0
13, 51228, Note_on_c, 11, 53, 0
13, 51238, Note_on_c, 11, 65, 37
13, 51246, Note_on_c, 11, 62, 71
13, 51251, Note_on_c, 11, 58, 66
13, 51256, Note_on_c, 11, 53, 39
13, 51451, Note_on_c, 11, 65, 0
13, 51458, Note_on_c, 11, 62, 0
13, 51464, Note_on_c, 11, 58, 0
13, 51469, Note_on_c, 11, 53, 0
13, 51477, Note_on_c, 11, 65, 37
13, 51485, Note_on_c, 11, 62, 71
13, 51490, Note_on_c, 11, 58, 66
13, 51495, Note_on_c, 11, 53, 39
13, 51690, Note_on_c, 11, 65, 0
13, 51698, Note_on_c, 11, 62, 0
13, 51703, Note_on_c, 11, 58, 0
13, 51708, Note_on_c, 11, 53, 0
13, 51718, Note_on_c, 11, 65, 37
13, 51726, Note_on_c, 11, 62, 71
13, 51731, Note_on_c, 11, 58, 66
13, 51736, Note_on_c, 11, 53, 39
13, 51931, Note_on_c, 11, 65, 0
13, 51938, Note_on_c, 11, 62, 0
13, 51944, Note_on_c, 11, 58, 0
13, 51949, Note_on_c, 11, 53, 0
13, 51957, Note_on_c, 11, 65, 37
13, 51965, Note_on_c, 11, 60, 71
13, 51970, Note_on_c, 11, 57, 66
13, 51975, Note_on_c, 11, 53, 39
13, 52315, Note_on_c, 11, 65, 0
13, 52323, Note_on_c, 11, 60, 0
13, 52328, Note_on_c, 11, 57, 0
13, 52333, Note_on_c, 11, 53, 0
13, 52437, Note_on_c, 11, 65, 37
13, 52445, Note_on_c, 11, 60, 71
13, 52450, Note_on_c, 11, 57, 66
13, 52455, Note_on_c, 11, 53, 39
13, 52795, Note_on_c, 11, 65, 0
13, 52803, Note_on_c, 11, 60, 0
13, 52808, Note_on_c, 11, 57, 0
13, 52813, Note_on_c, 11, 53, 0
13, 52917, Note_on_c, 11, 65, 37
13, 52925, Note_on_c, 11, 60, 71
13, 52930, Note_on_c, 11, 57, 66
13, 52935, Note_on_c, 11, 53, 39
13, 53275, Note_on_c, 11, 65, 0
13, 53283, Note_on_c, 11, 60, 0
13, 53288, Note_on_c, 11, 57, 0
13, 53293, Note_on_c, 11, 53, 0
13, 53397, Note_on_c, 11, 65, 37
13, 53405, Note_on_c, 11, 60, 71
13, 53410, Note_on_c, 11, 57, 66
13, 53415, Note_on_c, 11, 53, 39
13, 53755, Note_on_c, 11, 65, 0
13, 53763, Note_on_c, 11, 60, 0
13, 53768, Note_on_c, 11, 57, 0
13, 53773, Note_on_c, 11, 53, 0
13, 53877, Note_on_c, 11, 67, 37
13, 53885, Note_on_c, 11, 64, 71
13, 53890, Note_on_c, 11, 60, 66
13, 53895, Note_on_c, 11, 55, 39
13, 54090, Note_on_c, 11, 67, 0
13, 54098, Note_on_c, 11, 64, 0
13, 54103, Note_on_c, 11, 60, 0
13, 54108, Note_on_c, 11, 55, 0
13, 54118, Note_on_c, 11, 67, 37
13, 54126, Note_on_c, 11, 64, 71
13, 54131, Note_on_c, 11, 60, 66
13, 54136, Note_on_c, 11, 55, 39
13, 54331, Note_on_c, 11, 67, 0
13, 54338, Note_on_c, 11, 64, 0
13, 54344, Note_on_c, 11, 60, 0
13, 54349, Note_on_c, 11, 55, 0
13, 54357, Note_on_c, 11, 67, 37
13, 54365, Note_on_c, 11, 64, 71
13, 54370, Note_on_c, 11, 60, 66
13, 54375, Note_on_c, 11, 55, 39
13, 54570, Note_on_c, 11, 67, 0
13, 54578, Note_on_c, 11, 64, 0
13, 54583, Note_on_c, 11, 60, 0
13, 54588, Note_on_c, 11, 55, 0
13, 54598, Note_on_c, 11, 67, 37
13, 54606, Note_on_c, 11, 64, 71
13, 54611, Note_on_c, 11, 60, 66
13, 54616, Note_on_c, 11, 55, 39
13, 54811, Note_on_c, 11, 67, 0
13, 54818, Note_on_c, 11, 64, 0
13, 54824, Note_on_c, 11, 60, 0
13, 54829, Note_on_c, 11, 55, 0
13, 54837, Note_on_c, 11, 65, 37
13, 54845, Note_on_c, 11, 62, 71
13, 54850, Note_on_c, 11, 58, 66
13, 54855, Note_on_c, 11, 53, 39
13, 55050, Note_on_c, 11, 65, 0
13, 55058, Note_on_c, 11, 62, 0
13, 55063, Note_on_c, 11, 58, 0
13, 55068, Note_on_c, 11, 53, 0
13, 55078, Note_on_c, 11, 65, 37
13, 55086, Note_on_c, 11, 62, 71
13, 55091, Note_on_c, 11, 58, 66
13, 55096, Note_on_c, 11, 53, 39
13, 55291, Note_on_c, 11, 65, 0
13, 55298, Note_on_c, 11, 62, 0
13, 55304, Note_on_c, 11, 58, 0
13, 55309, Note_on_c, 11, 53, 0
13, 55317, Note_on_c, 11, 65, 37
13, 55325, Note_on_c, 11, 62, 71
13, 55330, Note_on_c, 11, 58, 66
13, 55335, Note_on_c, 11, 53, 39
13, 55530, Note_on_c, 11, 65, 0
13, 55538, Note_on_c, 11, 62, 0
13, 55543, Note_on_c, 11, 58, 0
13, 55548, Note_on_c, 11, 53, 0
13, 55558, Note_on_c, 11, 65, 37
13, 55566, Note_on_c, 11, 62, 71
13, 55571, Note_on_c, 11, 58, 66
13, 55576, Note_on_c, 11, 53, 39
13, 55771, Note_on_c, 11, 65, 0
13, 55778, Note_on_c, 11, 62, 0
13, 55784, Note_on_c, 11, 58, 0
13, 55789, Note_on_c, 11, 53, 0
13, 55797, Note_on_c, 11, 65, 37
13, 55805, Note_on_c, 11, 60, 71
13, 55810, Note_on_c, 11, 57, 66
13, 55815, Note_on_c, 11, 53, 39
13, 56155, Note_on_c, 11, 65, 0
13, 56163, Note_on_c, 11, 60, 0
13, 56168, Note_on_c, 11, 57, 0
13, 56173, Note_on_c, 11, 53, 0
13, 56277, Note_on_c, 11, 65, 37
13, 56285, Note_on_c, 11, 60, 71
13, 56290, Note_on_c, 11, 57, 66
13, 56295, Note_on_c, 11, 53, 39
13, 56635, Note_on_c, 11, 65, 0
13, 56643, Note_on_c, 11, 60, 0
13, 56648, Note_on_c, 11, 57, 0
13, 56653, Note_on_c, 11, 53, 0
13, 56757, Note_on_c, 11, 65, 37
13, 56765, Note_on_c, 11, 60, 71
13, 56770, Note_on_c, 11, 57, 66
13, 56775, Note_on_c, 11, 53, 39
13, 57115, Note_on_c, 11, 65, 0
13, 57123, Note_on_c, 11, 60, 0
13, 57128, Note_on_c, 11, 57, 0
13, 57133, Note_on_c, 11, 53, 0
13, 57237, Note_on_c, 11, 65, 37
13, 57245, Note_on_c, 11, 60, 71
13, 57250, Note_on_c, 11, 57, 66
13, 57255, Note_on_c, 11, 53, 39
13, 57595, Note_on_c, 11, 65, 0
13, 57603, Note_on_c, 11, 60, 0
13, 57608, Note_on_c, 11, 57, 0
13, 57613, Note_on_c, 11, 53, 0
13, 57717, Note_on_c, 11, 67, 37
13, 57725, Note_on_c, 11, 64, 71
13, 57730, Note_on_c, 11, 60, 66
13, 57735, Note_on_c, 11, 55, 39
13, 57930, Note_on_c, 11, 67, 0
13, 57938, Note_on_c, 11, 64, 0
13, 57943, Note_on_c, 11, 60, 0
13, 57948, Note_on_c, 11, 55, 0
13, 57958, Note_on_c, 11, 67, 37
13, 57966, Note_on_c, 11, 64, 71
13, 57971, Note_on_c, 11, 60, 66
13, 57976, Note_on_c, 11, 55, 39
13, 58171, Note_on_c, 11, 67, 0
13, 58178, Note_on_c, 11, 64, 0
13, 58184, Note_on_c, 11, 60, 0
13, 58189, Note_on_c, 11, 55, 0
13, 58197, Note_on_c, 11, 67, 37
13, 58205, Note_on_c, 11, 64, 71
13, 58210, Note_on_c, 11, 60, 66
13, 58215, Note_on_c, 11, 55, 39
13, 58410, Note_on_c, 11, 67, 0
13, 58418, Note_on_c, 11, 64, 0
13, 58423, Note_on_c, 11, 60, 0
13, 58428, Note_on_c, 11, 55, 0
13, 58438, Note_on_c, 11, 67, 37
13, 58446, Note_on_c, 11, 64, 71
13, 58451, Note_on_c, 11, 60, 66
13, 58456, Note_on_c, 11, 55, 39
13, 58651, Note_on_c, 11, 67, 0
13, 58658, Note_on_c, 11, 64, 0
13, 58664, Note_on_c, 11, 60, 0
13, 58669, Note_on_c, 11, 55, 0
13, 58677, Note_on_c, 11, 65, 37
13, 58685, Note_on_c, 11, 62, 71
13, 58690, Note_on_c, 11, 58, 66
13, 58695, Note_on_c, 11, 53, 39
13, 58890, Note_on_c, 11, 65, 0
13, 58898, Note_on_c, 11, 62, 0
13, 58903, Note_on_c, 11, 58, 0
13, 58908, Note_on_c, 11, 53, 0
13, 58918, Note_on_c, 11, 65, 37
13, 58926, Note_on_c, 11, 62, 71
13, 58931, Note_on_c, 11, 58, 66
13, 58936, Note_on_c, 11, 53, 39
13, 59131, Note_on_c, 11, 65, 0
13, 59138, Note_on_c, 11, 62, 0
13, 59144, Note_on_c, 11, 58, 0
13, 59149, Note_on_c, 11, 53, 0
13, 59157, Note_on_c, 11, 65, 37
13, 59165, Note_on_c, 11, 62, 71
13, 59170, Note_on_c, 11, 58, 66
13, 59175, Note_on_c, 11, 53, 39
13, 59370, Note_on_c, 11, 65, 0
13, 59378, Note_on_c, 11, 62, 0
13, 59383, Note_on_c, 11, 58, 0
13, 59388, Note_on_c, 11, 53, 0
13, 59398, Note_on_c, 11, 65, 37
13, 59406, Note_on_c, 11, 62, 71
13, 59411, Note_on_c, 11, 58, 66
13, 59416, Note_on_c, 11, 53, 39
13, 59611, Note_on_c, 11, 65, 0
13, 59618, Note_on_c, 11, 62, 0
13, 59624, Note_on_c, 11, 58, 0
13, 59629, Note_on_c, 11, 53, 0
13, 59637, Note_on_c, 11, 65, 37
13, 59645, Note_on_c, 11, 60, 71
13, 59650, Note_on_c, 11, 57, 66
13, 59655, Note_on_c, 11, 53, 39
13, 59995, Note_on_c, 11, 65, 0
13, 60003, Note_on_c, 11, 60, 0
13, 60008, Note_on_c, 11, 57, 0
13, 60013, Note_on_c, 11, 53, 0
13, 60117, Note_on_c, 11, 65, 37
13, 60125, Note_on_c, 11, 60, 71
13, 60130, Note_on_c, 11, 57, 66
13, 60135, Note_on_c, 11, 53, 39
13, 60475, Note_on_c, 11, 65, 0
13, 60483, Note_on_c, 11, 60, 0
13, 60488, Note_on_c, 11, 57, 0
13, 60493, Note_on_c, 11, 53, 0
13, 60597, Note_on_c, 11, 65, 37
13, 60605, Note_on_c, 11, 60, 71
13, 60610, Note_on_c, 11, 57, 66
13, 60615, Note_on_c, 11, 53, 39
13, 60955, Note_on_c, 11, 65, 0
13, 60963, Note_on_c, 11, 60, 0
13, 60968, Note_on_c, 11, 57, 0
13, 60973, Note_on_c, 11, 53, 0
13, 61077, Note_on_c, 11, 65, 37
13, 61085, Note_on_c, 11, 60, 71
13, 61090, Note_on_c, 11, 57, 66
13, 61095, Note_on_c, 11, 53, 39
13, 61435, Note_on_c, 11, 65, 0
13, 61443, Note_on_c, 11, 60, 0
13, 61448, Note_on_c, 11, 57, 0
13, 61453, Note_on_c, 11, 53, 0
13, 61557, Note_on_c, 11, 65, 37
13, 61565, Note_on_c, 11, 60, 71
13, 61570, Note_on_c, 11, 57, 66
13, 61575, Note_on_c, 11, 53, 39
13, 61915, Note_on_c, 11, 65, 0
13, 61923, Note_on_c, 11, 60, 0
13, 61928, Note_on_c, 11, 57, 0
13, 61933, Note_on_c, 11, 53, 0
13, 62037, Note_on_c, 11, 65, 37
13, 62045, Note_on_c, 11, 60, 71
13, 62050, Note_on_c, 11, 57, 66
13, 62055, Note_on_c, 11, 53, 39
13, 62395, Note_on_c, 11, 65, 0
13, 62403, Note_on_c, 11, 60, 0
13, 62408, Note_on_c, 11, 57, 0
13, 62413, Note_on_c, 11, 53, 0
13, 62517, Note_on_c, 11, 65, 37
13, 62525, Note_on_c, 11, 60, 71
13, 62530, Note_on_c, 11, 57, 66
13, 62535, Note_on_c, 11, 53, 39
13, 62875, Note_on_c, 11, 65, 0
13, 62883, Note_on_c, 11, 60, 0
13, 62888, Note_on_c, 11, 57, 0
13, 62893, Note_on_c, 11, 53, 0
13, 62997, Note_on_c, 11, 65, 37
13, 63005, Note_on_c, 11, 60, 71
13, 63010, Note_on_c, 11, 57, 66
13, 63015, Note_on_c, 11, 53, 39
13, 63355, Note_on_c, 11, 65, 0
13, 63363, Note_on_c, 11, 60, 0
13, 63368, Note_on_c, 11, 57, 0
13, 63373, Note_on_c, 11, 53, 0
13, 63477, Note_on_c, 11, 65, 37
13, 63485, Note_on_c, 11, 60, 71
13, 63490, Note_on_c, 11, 57, 66
13, 63495, Note_on_c, 11, 53, 39
13, 63835, Note_on_c, 11, 65, 0
13, 63843, Note_on_c, 11, 60, 0
13, 63848, Note_on_c, 11, 57, 0
13, 63853, Note_on_c, 11, 53, 0
13, 63957, Note_on_c, 11, 65, 37
13, 63965, Note_on_c, 11, 60, 71
13, 63970, Note_on_c, 11, 57, 66
13, 63975, Note_on_c, 11, 53, 39
13, 64315, Note_on_c, 11, 65, 0
13, 64323, Note_on_c, 11, 60, 0
13, 64328, Note_on_c, 11, 57, 0
13, 64333, Note_on_c, 11, 53, 0
13, 64437, Note_on_c, 11, 65, 37
13, 64445, Note_on_c, 11, 60, 71
13, 64450, Note_on_c, 11, 57, 66
13, 64455, Note_on_c, 11, 53, 39
13, 64795, Note_on_c, 11, 65, 0
13, 64803, Note_on_c, 11, 60, 0
13, 64808, Note_on_c, 11, 57, 0
13, 64813, Note_on_c, 11, 53, 0
13, 64917, Note_on_c, 11, 65, 37
13, 64925, Note_on_c, 11, 60, 71
13, 64930, Note_on_c, 11, 57, 66
13, 64935, Note_on_c, 11, 53, 39
13, 65275, Note_on_c, 11, 65, 0
13, 65283, Note_on_c, 11, 60, 0
13, 65288, Note_on_c, 11, 57, 0
13, 65293, Note_on_c, 11, 53, 0
13, 65397, Note_on_c, 11, 65, 37
13, 65405, Note_on_c, 11, 62, 71
13, 65410, Note_on_c, 11, 58, 66
13, 65415, Note_on_c, 11, 53, 39
13, 65610, Note_on_c, 11, 65, 0
13, 65618, Note_on_c, 11, 62, 0
13, 65623, Note_on_c, 11, 58, 0
13, 65628, Note_on_c, 11, 53, 0
13, 65638, Note_on_c, 11, 65, 37
13, 65646, Note_on_c, 11, 62, 71
13, 65651, Note_on_c, 11, 58, 66
13, 65656, Note_on_c, 11, 53, 39
13, 65851, Note_on_c, 11, 65, 0
13, 65858, Note_on_c, 11, 62, 0
13, 65864, Note_on_c, 11, 58, 0
13, 65869, Note_on_c, 11, 53, 0
13, 65877, Note_on_c, 11, 65, 37
13, 65885, Note_on_c, 11, 62, 71
13, 65890, Note_on_c, 11, 58, 66
13, 65895, Note_on_c, 11, 53, 39
13, 66090, Note_on_c, 11, 65, 0
13, 66098, Note_on_c, 11, 62, 0
13, 66103, Note_on_c, 11, 58, 0
13, 66108, Note_on_c, 11, 53, 0
13, 66118, Note_on_c, 11, 65, 37
13, 66126, Note_on_c, 11, 62, 71
13, 66131, Note_on_c, 11, 58, 66
13, 66136, Note_on_c, 11, 53, 39
13, 66331, Note_on_c, 11, 65, 0
13, 66338, Note_on_c, 11, 62, 0
13, 66344, Note_on_c, 11, 58, 0
13, 66349, Note_on_c, 11, 53, 0
13, 66357, Note_on_c, 11, 65, 37
13, 66365, Note_on_c, 11, 62, 71
13, 66370, Note_on_c, 11, 58, 66
13, 66375, Note_on_c, 11, 53, 39
13, 66570, Note_on_c, 11, 65, 0
13, 66578, Note_on_c, 11, 62, 0
13, 66583, Note_on_c, 11, 58, 0
13, 66588, Note_on_c, 11, 53, 0
13, 66598, Note_on_c, 11, 65, 37
13, 66606, Note_on_c, 11, 62, 71
13, 66611, Note_on_c, 11, 58, 66
13, 66616, Note_on_c, 11, 53, 39
13, 66811, Note_on_c, 11, 65, 0
13, 66818, Note_on_c, 11, 62, 0
13, 66824, Note_on_c, 11, 58, 0
13, 66829, Note_on_c, 11, 53, 0
13, 66837, Note_on_c, 11, 65, 37
13, 66845, Note_on_c, 11, 62, 71
13, 66850, Note_on_c, 11, 58, 66
13, 66855, Note_on_c, 11, 53, 39
13, 67050, Note_on_c, 11, 65, 0
13, 67058, Note_on_c, 11, 62, 0
13, 67063, Note_on_c, 11, 58, 0
13, 67068, Note_on_c, 11, 53, 0
13, 67078, Note_on_c, 11, 65, 37
13, 67086, Note_on_c, 11, 62, 71
13, 67091, Note_on_c, 11, 58, 66
13, 67096, Note_on_c, 11, 53, 39
13, 67291, Note_on_c, 11, 65, 0
13, 67298, Note_on_c, 11, 62, 0
13, 67304, Note_on_c, 11, 58, 0
13, 67309, Note_on_c, 11, 53, 0
13, 67317, Note_on_c, 11, 65, 37
13, 67325, Note_on_c, 11, 60, 71
13, 67330, Note_on_c, 11, 57, 66
13, 67335, Note_on_c, 11, 53, 39
13, 67675, Note_on_c, 11, 65, 0
13, 67683, Note_on_c, 11, 60, 0
13, 67688, Note_on_c, 11, 57, 0
13, 67693, Note_on_c, 11, 53, 0
13, 67797, Note_on_c, 11, 65, 37
13, 67805, Note_on_c, 11, 60, 71
13, 67810, Note_on_c, 11, 57, 66
13, 67815, Note_on_c, 11, 53, 39
13, 68155, Note_on_c, 11, 65, 0
13, 68163, Note_on_c, 11, 60, 0
13, 68168, Note_on_c, 11, 57, 0
13, 68173, Note_on_c, 11, 53, 0
13, 68277, Note_on_c, 11, 65, 37
13, 68285, Note_on_c, 11, 60, 71
13, 68290, Note_on_c, 11, 57, 66
13, 68295, Note_on_c, 11, 53, 39
13, 68635, Note_on_c, 11, 65, 0
13, 68643, Note_on_c, 11, 60, 0
13, 68648, Note_on_c, 11, 57, 0
13, 68653, Note_on_c, 11, 53, 0
13, 68757, Note_on_c, 11, 65, 37
13, 68765, Note_on_c, 11, 60, 71
13, 68770, Note_on_c, 11, 57, 66
13, 68775, Note_on_c, 11, 53, 39
13, 69115, Note_on_c, 11, 65, 0
13, 69123, Note_on_c, 11, 60, 0
13, 69128, Note_on_c, 11, 57, 0
13, 69133, Note_on_c, 11, 53, 0
13, 69237, Note_on_c, 11, 65, 37
13, 69245, Note_on_c, 11, 60, 71
13, 69250, Note_on_c, 11, 57, 66
13, 69255, Note_on_c, 11, 53, 39
13, 69595, Note_on_c, 11, 65, 0
13, 69603, Note_on_c, 11, 60, 0
13, 69608, Note_on_c, 11, 57, 0
13, 69613, Note_on_c, 11, 53, 0
13, 69717, Note_on_c, 11, 65, 37
13, 69725, Note_on_c, 11, 60, 71
13, 69730, Note_on_c, 11, 57, 66
13, 69735, Note_on_c, 11, 53, 39
13, 70075, Note_on_c, 11, 65, 0
13, 70083, Note_on_c, 11, 60, 0
13, 70088, Note_on_c, 11, 57, 0
13, 70093, Note_on_c, 11, 53, 0
13, 70197, Note_on_c, 11, 65, 37
13, 70205, Note_on_c, 11, 60, 71
13, 70210, Note_on_c, 11, 57, 66
13, 70215, Note_on_c, 11, 53, 39
13, 70555, Note_on_c, 11, 65, 0
13, 70563, Note_on_c, 11, 60, 0
13, 70568, Note_on_c, 11, 57, 0
13, 70573, Note_on_c, 11, 53, 0
13, 70677, Note_on_c, 11, 65, 37
13, 70685, Note_on_c, 11, 60, 71
13, 70690, Note_on_c, 11, 57, 66
13, 70695, Note_on_c, 11, 53, 39
13, 71035, Note_on_c, 11, 65, 0
13, 71043, Note_on_c, 11, 60, 0
13, 71048, Note_on_c, 11, 57, 0
13, 71053, Note_on_c, 11, 53, 0
13, 71157, Note_on_c, 11, 65, 37
13, 71165, Note_on_c, 11, 60, 71
13, 71170, Note_on_c, 11, 57, 66
13, 71175, Note_on_c, 11, 53, 39
13, 71515, Note_on_c, 11, 65, 0
13, 71523, Note_on_c, 11, 60, 0
13, 71528, Note_on_c, 11, 57, 0
13, 71533, Note_on_c, 11, 53, 0
13, 71637, Note_on_c, 11, 65, 37
13, 71645, Note_on_c, 11, 60, 71
13, 71650, Note_on_c, 11, 57, 66
13, 71655, Note_on_c, 11, 53, 39
13, 71995, Note_on_c, 11, 65, 0
13, 72003, Note_on_c, 11, 60, 0
13, 72008, Note_on_c, 11, 57, 0
13, 72013, Note_on_c, 11, 53, 0
13, 72117, Note_on_c, 11, 65, 37
13, 72125, Note_on_c, 11, 60, 71
13, 72130, Note_on_c, 11, 57, 66
13, 72135, Note_on_c, 11, 53, 39
13, 72475, Note_on_c, 11, 65, 0
13, 72483, Note_on_c, 11, 60, 0
13, 72488, Note_on_c, 11, 57, 0
13, 72493, Note_on_c, 11, 53, 0
13, 72597, Note_on_c, 11, 65, 37
13, 72605, Note_on_c, 11, 60, 71
13, 72610, Note_on_c, 11, 57, 66
13, 72615, Note_on_c, 11, 53, 39
13, 72955, Note_on_c, 11, 65, 0
13, 72963, Note_on_c, 11, 60, 0
13, 72968, Note_on_c, 11, 57, 0
13, 72973, Note_on_c, 11, 53, 0
13, 73077, Note_on_c, 11, 65, 37
13, 73085, Note_on_c, 11, 62, 71
13, 73090, Note_on_c, 11, 58, 66
13, 73095, Note_on_c, 11, 53, 39
13, 73290, Note_on_c, 11, 65, 0
13, 73298, Note_on_c, 11, 62, 0
13, 73303, Note_on_c, 11, 58, 0
13, 73308, Note_on_c, 11, 53, 0
13, 73318, Note_on_c, 11, 65, 37
13, 73326, Note_on_c, 11, 62, 71
13, 73331, Note_on_c, 11, 58, 66
13, 73336, Note_on_c, 11, 53, 39
13, 73531, Note_on_c, 11, 65, 0
13, 73538, Note_on_c, 11, 62, 0
13, 73544, Note_on_c, 11, 58, 0
13, 73549, Note_on_c, 11, 53, 0
13, 73557, Note_on_c, 11, 65, 37
13, 73565, Note_on_c, 11, 62, 71
13, 73570, Note_on_c, 11, 58, 66
13, 73575, Note_on_c, 11, 53, 39
13, 73770, Note_on_c, 11, 65, 0
13, 73778, Note_on_c, 11, 62, 0
13, 73783, Note_on_c, 11, 58, 0
13, 73788, Note_on_c, 11, 53, 0
13, 73798, Note_on_c, 11, 65, 37
13, 73806, Note_on_c, 11, 62, 71
13, 73811, Note_on_c, 11, 58, 66
13, 73816, Note_on_c, 11, 53, 39
13, 74011, Note_on_c, 11, 65, 0
13, 74018, Note_on_c, 11, 62, 0
13, 74024, Note_on_c, 11, 58, 0
13, 74029, Note_on_c, 11, 53, 0
13, 74037, Note_on_c, 11, 65, 37
13, 74045, Note_on_c, 11, 62, 71
13, 74050, Note_on_c, 11, 58, 66
13, 74055, Note_on_c, 11, 53, 39
13, 74250, Note_on_c, 11, 65, 0
13, 74258, Note_on_c, 11, 62, 0
13, 74263, Note_on_c, 11, 58, 0
13, 74268, Note_on_c, 11, 53, 0
13, 74278, Note_on_c, 11, 65, 37
13, 74286, Note_on_c, 11, 62, 71
13, 74291, Note_on_c, 11, 58, 66
13, 74296, Note_on_c, 11, 53, 39
13, 74491, Note_on_c, 11, 65, 0
13, 74498, Note_on_c, 11, 62, 0
13, 74504, Note_on_c, 11, 58, 0
13, 74509, Note_on_c, 11, 53, 0
13, 74517, Note_on_c, 11, 65, 37
13, 74525, Note_on_c, 11, 62, 71
13, 74530, Note_on_c, 11, 58, 66
13, 74535, Note_on_c, 11, 53, 39
13, 74730, Note_on_c, 11, 65, 0
13, 74738, Note_on_c, 11, 62, 0
13, 74743, Note_on_c, 11, 58, 0
13, 74748, Note_on_c, 11, 53, 0
13, 74758, Note_on_c, 11, 65, 37
13, 74766, Note_on_c, 11, 62, 71
13, 74771, Note_on_c, 11, 58, 66
13, 74776, Note_on_c, 11, 53, 39
13, 74971, Note_on_c, 11, 65, 0
13, 74978, Note_on_c, 11, 62, 0
13, 74984, Note_on_c, 11, 58, 0
13, 74989, Note_on_c, 11, 53, 0
13, 74997, Note_on_c, 11, 65, 37
13, 75005, Note_on_c, 11, 60, 71
13, 75010, Note_on_c, 11, 57, 66
13, 75015, Note_on_c, 11, 53, 39
13, 75355, Note_on_c, 11, 65, 0
13, 75363, Note_on_c, 11, 60, 0
13, 75368, Note_on_c, 11, 57, 0
13, 75373, Note_on_c, 11, 53, 0
13, 75477, Note_on_c, 11, 65, 37
13, 75485, Note_on_c, 11, 60, 71
13, 75490, Note_on_c, 11, 57, 66
13, 75495, Note_on_c, 11, 53, 39
13, 75835, Note_on_c, 11, 65, 0
13, 75843, Note_on_c, 11, 60, 0
13, 75848, Note_on_c, 11, 57, 0
13, 75853, Note_on_c, 11, 53, 0
13, 75957, Note_on_c, 11, 65, 37
13, 75965, Note_on_c, 11, 60, 71
13, 75970, Note_on_c, 11, 57, 66
13, 75975, Note_on_c, 11, 53, 39
13, 76315, Note_on_c, 11, 65, 0
13, 76323, Note_on_c, 11, 60, 0
13, 76328, Note_on_c, 11, 57, 0
13, 76333, Note_on_c, 11, 53, 0
13, 76437, Note_on_c, 11, 65, 37
13, 76445, Note_on_c, 11, 60, 71
13, 76450, Note_on_c, 11, 57, 66
13, 76455, Note_on_c, 11, 53, 39
13, 76795, Note_on_c, 11, 65, 0
13, 76803, Note_on_c, 11, 60, 0
13, 76808, Note_on_c, 11, 57, 0
13, 76813, Note_on_c, 11, 53, 0
13, 76917, Note_on_c, 11, 65, 37
13, 76925, Note_on_c, 11, 62, 71
13, 76930, Note_on_c, 11, 58, 66
13, 76935, Note_on_c, 11, 53, 39
13, 77130, Note_on_c, 11, 65, 0
13, 77138, Note_on_c, 11, 62, 0
13, 77143, Note_on_c, 11, 58, 0
13, 77148, Note_on_c, 11, 53, 0
13, 77158, Note_on_c, 11, 65, 37
13, 77166, Note_on_c, 11, 62, 71
13, 77171, Note_on_c, 11, 58, 66
13, 77176, Note_on_c, 11, 53, 39
13, 77371, Note_on_c, 11, 65, 0
13, 77378, Note_on_c, 11, 62, 0
13, 77384, Note_on_c, 11, 58, 0
13, 77389, Note_on_c, 11, 53, 0
13, 77397, Note_on_c, 11, 65, 37
13, 77405, Note_on_c, 11, 62, 71
13, 77410, Note_on_c, 11, 58, 66
13, 77415, Note_on_c, 11, 53, 39
13, 77610, Note_on_c, 11, 65, 0
13, 77618, Note_on_c, 11, 62, 0
13, 77623, Note_on_c, 11, 58, 0
13, 77628, Note_on_c, 11, 53, 0
13, 77638, Note_on_c, 11, 65, 37
13, 77646, Note_on_c, 11, 62, 71
13, 77651, Note_on_c, 11, 58, 66
13, 77656, Note_on_c, 11, 53, 39
13, 77851, Note_on_c, 11, 65, 0
13, 77858, Note_on_c, 11, 62, 0
13, 77864, Note_on_c, 11, 58, 0
13, 77869, Note_on_c, 11, 53, 0
13, 77877, Note_on_c, 11, 65, 37
13, 77885, Note_on_c, 11, 62, 71
13, 77890, Note_on_c, 11, 58, 66
13, 77895, Note_on_c, 11, 53, 39
13, 78090, Note_on_c, 11, 65, 0
13, 78098, Note_on_c, 11, 62, 0
13, 78103, Note_on_c, 11, 58, 0
13, 78108, Note_on_c, 11, 53, 0
13, 78118, Note_on_c, 11, 65, 37
13, 78126, Note_on_c, 11, 62, 71
13, 78131, Note_on_c, 11, 58, 66
13, 78136, Note_on_c, 11, 53, 39
13, 78331, Note_on_c, 11, 65, 0
13, 78338, Note_on_c, 11, 62, 0
13, 78344, Note_on_c, 11, 58, 0
13, 78349, Note_on_c, 11, 53, 0
13, 78357, Note_on_c, 11, 65, 37
13, 78365, Note_on_c, 11, 62, 71
13, 78370, Note_on_c, 11, 58, 66
13, 78375, Note_on_c, 11, 53, 39
13, 78570, Note_on_c, 11, 65, 0
13, 78578, Note_on_c, 11, 62, 0
13, 78583, Note_on_c, 11, 58, 0
13, 78588, Note_on_c, 11, 53, 0
13, 78598, Note_on_c, 11, 65, 37
13, 78606, Note_on_c, 11, 62, 71
13, 78611, Note_on_c, 11, 58, 66
13, 78616, Note_on_c, 11, 53, 39
13, 78811, Note_on_c, 11, 65, 0
13, 78818, Note_on_c, 11, 62, 0
13, 78824, Note_on_c, 11, 58, 0
13, 78829, Note_on_c, 11, 53, 0
13, 78837, Note_on_c, 11, 65, 37
13, 78845, Note_on_c, 11, 60, 71
13, 78850, Note_on_c, 11, 57, 66
13, 78855, Note_on_c, 11, 53, 39
13, 79195, Note_on_c, 11, 65, 0
13, 79203, Note_on_c, 11, 60, 0
13, 79208, Note_on_c, 11, 57, 0
13, 79213, Note_on_c, 11, 53, 0
13, 79317, Note_on_c, 11, 65, 37
13, 79325, Note_on_c, 11, 60, 71
13, 79330, Note_on_c, 11, 57, 66
13, 79335, Note_on_c, 11, 53, 39
13, 79675, Note_on_c, 11, 65, 0
13, 79683, Note_on_c, 11, 60, 0
13, 79688, Note_on_c, 11, 57, 0
13, 79693, Note_on_c, 11, 53, 0
13, 79797, Note_on_c, 11, 65, 37
13, 79805, Note_on_c, 11, 60, 71
13, 79810, Note_on_c, 11, 57, 66
13, 79815, Note_on_c, 11, 53, 39
13, 80155, Note_on_c, 11, 65, 0
13, 80163, Note_on_c, 11, 60, 0
13, 80168, Note_on_c, 11, 57, 0
13, 80173, Note_on_c, 11, 53, 0
13, 80277, Note_on_c, 11, 65, 37
13, 80285, Note_on_c, 11, 60, 71
13, 80290, Note_on_c, 11, 57, 66
13, 80295, Note_on_c, 11, 53, 39
13, 80635, Note_on_c, 11, 65, 0
13, 80643, Note_on_c, 11, 60, 0
13, 80648, Note_on_c, 11, 57, 0
13, 80653, Note_on_c, 11, 53, 0
13, 80757, Note_on_c, 11, 67, 37
13, 80765, Note_on_c, 11, 64, 71
13, 80770, Note_on_c, 11, 60, 66
13, 80775, Note_on_c, 11, 55, 39
13, 80970, Note_on_c, 11, 67, 0
13, 80978, Note_on_c, 11, 64, 0
13, 80983, Note_on_c, 11, 60, 0
13, 80988, Note_on_c, 11, 55, 0
13, 80998, Note_on_c, 11, 67, 37
13, 81006, Note_on_c, 11, 64, 71
13, 81011, Note_on_c, 11, 60, 66
13, 81016, Note_on_c, 11, 55, 39
13, 81211, Note_on_c, 11, 67, 0
13, 81218, Note_on_c, 11, 64, 0
13, 81224, Note_on_c, 11, 60, 0
13, 81229, Note_on_c, 11, 55, 0
13, 81237, Note_on_c, 11, 67, 37
13, 81245, Note_on_c, 11, 64, 71
13, 81250, Note_on_c, 11, 60, 66
13, 81255, Note_on_c, 11, 55, 39
13, 81450, Note_on_c, 11, 67, 0
13, 81458, Note_on_c, 11, 64, 0
13, 81463, Note_on_c, 11, 60, 0
13, 81468, Note_on_c, 11, 55, 0
13, 81478, Note_on_c, 11, 67, 37
13, 81486, Note_on_c, 11, 64, 71
13, 81491, Note_on_c, 11, 60, 66
13, 81496, Note_on_c, 11, 55, 39
13, 81691, Note_on_c, 11, 67, 0
13, 81698, Note_on_c, 11, 64, 0
13, 81704, Note_on_c, 11, 60, 0
13, 81709, Note_on_c, 11, 55, 0
13, 81717, Note_on_c, 11, 65, 37
13, 81725, Note_on_c, 11, 62, 71
13, 81730, Note_on_c, 11, 58, 66
13, 81735, Note_on_c, 11, 53, 39
13, 81930, Note_on_c, 11, 65, 0
13, 81938, Note_on_c, 11, 62, 0
13, 81943, Note_on_c, 11, 58, 0
13, 81948, Note_on_c, 11, 53, 0
13, 81958, Note_on_c, 11, 65, 37
13, 81966, Note_on_c, 11, 62, 71
13, 81971, Note_on_c, 11, 58, 66
13, 81976, Note_on_c, 11, 53, 39
13, 82171, Note_on_c, 11, 65, 0
13, 82178, Note_on_c, 11, 62, 0
13, 82184, Note_on_c, 11, 58, 0
13, 82189, Note_on_c, 11, 53, 0
13, 82197, Note_on_c, 11, 65, 37
13, 82205, Note_on_c, 11, 62, 71
13, 82210, Note_on_c, 11, 58, 66
13, 82215, Note_on_c, 11, 53, 39
13, 82410, Note_on_c, 11, 65, 0
13, 82418, Note_on_c, 11, 62, 0
13, 82423, Note_on_c, 11, 58, 0
13, 82428, Note_on_c, 11, 53, 0
13, 82438, Note_on_c, 11, 65, 37
13, 82446, Note_on_c, 11, 62, 71
13, 82451, Note_on_c, 11, 58, 66
13, 82456, Note_on_c, 11, 53, 39
13, 82651, Note_on_c, 11, 65, 0
13, 82658, Note_on_c, 11, 62, 0
13, 82664, Note_on_c, 11, 58, 0
13, 82669, Note_on_c, 11, 53, 0
13, 82677, Note_on_c, 11, 65, 37
13, 82685, Note_on_c, 11, 60, 71
13, 82690, Note_on_c, 11, 57, 66
13, 82695, Note_on_c, 11, 53, 39
13, 83035, Note_on_c, 11, 65, 0
13, 83043, Note_on_c, 11, 60, 0
13, 83048, Note_on_c, 11, 57, 0
13, 83053, Note_on_c, 11, 53, 0
13, 83157, Note_on_c, 11, 65, 37
13, 83165, Note_on_c, 11, 60, 71
13, 83170, Note_on_c, 11, 57, 66
13, 83175, Note_on_c, 11, 53, 39
13, 83515, Note_on_c, 11, 65, 0
13, 83523, Note_on_c, 11, 60, 0
13, 83528, Note_on_c, 11, 57, 0
13, 83533, Note_on_c, 11, 53, 0
13, 83637, Note_on_c, 11, 65, 37
13, 83645, Note_on_c, 11, 60, 71
13, 83650, Note_on_c, 11, 57, 66
13, 83655, Note_on_c, 11, 53, 39
13, 83995, Note_on_c, 11, 65, 0
13, 84003, Note_on_c, 11, 60, 0
13, 84008, Note_on_c, 11, 57, 0
13, 84013, Note_on_c, 11, 53, 0
13, 84117, Note_on_c, 11, 65, 37
13, 84125, Note_on_c, 11, 60, 71
13, 84130, Note_on_c, 11, 57, 66
13, 84135, Note_on_c, 11, 53, 39
13, 84475, Note_on_c, 11, 65, 0
13, 84483, Note_on_c, 11, 60, 0
13, 84488, Note_on_c, 11, 57, 0
13, 84493, Note_on_c, 11, 53, 0
13, 84597, Note_on_c, 11, 67, 37
13, 84605, Note_on_c, 11, 64, 71
13, 84610, Note_on_c, 11, 60, 66
13, 84615, Note_on_c, 11, 55, 39
13, 84810, Note_on_c, 11, 67, 0
13, 84818, Note_on_c, 11, 64, 0
13, 84823, Note_on_c, 11, 60, 0
13, 84828, Note_on_c, 11, 55, 0
13, 84838, Note_on_c, 11, 67, 37
13, 84846, Note_on_c, 11, 64, 71
13, 84851, Note_on_c, 11, 60, 66
13, 84856, Note_on_c, 11, 55, 39
13, 85051, Note_on_c, 11, 67, 0
13, 85058, Note_on_c, 11, 64, 0
13, 85064, Note_on_c, 11, 60, 0
13, 85069, Note_on_c, 11, 55, 0
13, 85077, Note_on_c, 11, 67, 37
13, 85085, Note_on_c, 11, 64, 71
13, 85090, Note_on_c, 11, 60, 66
13, 85095, Note_on_c, 11, 55, 39
13, 85290, Note_on_c, 11, 67, 0
13, 85298, Note_on_c, 11, 64, 0
13, 85303, Note_on_c, 11, 60, 0
13, 85308, Note_on_c, 11, 55, 0
13, 85318, Note_on_c, 11, 67, 37
13, 85326, Note_on_c, 11, 64, 71
13, 85331, Note_on_c, 11, 60, 66
13, 85336, Note_on_c, 11, 55, 39
13, 85531, Note_on_c, 11, 67, 0
13, 85538, Note_on_c, 11, 64, 0
13, 85544, Note_on_c, 11, 60, 0
13, 85549, Note_on_c, 11, 55, 0
13, 85557, Note_on_c, 11, 65, 37
13, 85565, Note_on_c, 11, 62, 71
13, 85570, Note_on_c, 11, 58, 66
13, 85575, Note_on_c, 11, 53, 39
13, 85770, Note_on_c, 11, 65, 0
13, 85778, Note_on_c, 11, 62, 0
13, 85783, Note_on_c, 11, 58, 0
13, 85788, Note_on_c, 11, 53, 0
13, 85798, Note_on_c, 11, 65, 37
13, 85806, Note_on_c, 11, 62, 71
13, 85811, Note_on_c, 11, 58, 66
13, 85816, Note_on_c, 11, 53, 39
13, 86011, Note_on_c, 11, 65, 0
13, 86018, Note_on_c, 11, 62, 0
13, 86024, Note_on_c, 11, 58, 0
13, 86029, Note_on_c, 11, 53, 0
13, 86037, Note_on_c, 11, 65, 37
13, 86045, Note_on_c, 11, 62, 71
13, 86050, Note_on_c, 11, 58, 66
13, 86055, Note_on_c, 11, 53, 39
13, 86250, Note_on_c, 11, 65, 0
13, 86258, Note_on_c, 11, 62, 0
13, 86263, Note_on_c, 11, 58, 0
13, 86268, Note_on_c, 11, 53, 0
13, 86278, Note_on_c, 11, 65, 37
13, 86286, Note_on_c, 11, 62, 71
13, 86291, Note_on_c, 11, 58, 66
13, 86296, Note_on_c, 11, 53, 39
13, 86491, Note_on_c, 11, 65, 0
13, 86498, Note_on_c, 11, 62, 0
13, 86504, Note_on_c, 11, 58, 0
13, 86509, Note_on_c, 11, 53, 0
13, 86517, Note_on_c, 11, 65, 37
13, 86525, Note_on_c, 11, 60, 71
13, 86530, Note_on_c, 11, 57, 66
13, 86535, Note_on_c, 11, 53, 39
13, 86875, Note_on_c, 11, 65, 0
13, 86883, Note_on_c, 11, 60, 0
13, 86888, Note_on_c, 11, 57, 0
13, 86893, Note_on_c, 11, 53, 0
13, 86997, Note_on_c, 11, 65, 37
13, 87005, Note_on_c, 11, 60, 71
13, 87010, Note_on_c, 11, 57, 66
13, 87015, Note_on_c, 11, 53, 39
13, 87355, Note_on_c, 11, 65, 0
13, 87363, Note_on_c, 11, 60, 0
13, 87368, Note_on_c, 11, 57, 0
13, 87373, Note_on_c, 11, 53, 0
13, 87477, Note_on_c, 11, 65, 37
13, 87485, Note_on_c, 11, 60, 71
13, 87490, Note_on_c, 11, 57, 66
13, 87495, Note_on_c, 11, 53, 39
13, 87835, Note_on_c, 11, 65, 0
13, 87843, Note_on_c, 11, 60, 0
13, 87848, Note_on_c, 11, 57, 0
13, 87853, Note_on_c, 11, 53, 0
13, 87957, Note_on_c, 11, 65, 37
13, 87965, Note_on_c, 11, 60, 71
13, 87970, Note_on_c, 11, 57, 66
13, 87975, Note_on_c, 11, 53, 39
13, 88315, Note_on_c, 11, 65, 0
13, 88323, Note_on_c, 11, 60, 0
13, 88328, Note_on_c, 11, 57, 0
13, 88333, Note_on_c, 11, 53, 0
13, 88437, Note_on_c, 11, 67, 37
13, 88445, Note_on_c, 11, 64, 71
13, 88450, Note_on_c, 11, 60, 66
13, 88455, Note_on_c, 11, 55, 39
13, 88650, Note_on_c, 11, 67, 0
13, 88658, Note_on_c, 11, 64, 0
13, 88663, Note_on_c, 11, 60, 0
13, 88668, Note_on_c, 11, 55, 0
13, 88678, Note_on_c, 11, 67, 37
13, 88686, Note_on_c, 11, 64, 71
13, 88691, Note_on_c, 11, 60, 66
13, 88696, Note_on_c, 11, 55, 39
13, 88891, Note_on_c, 11, 67, 0
13, 88898, Note_on_c, 11, 64, 0
13, 88904, Note_on_c, 11, 60, 0
13, 88909, Note_on_c, 11, 55, 0
13, 88917, Note_on_c, 11, 67, 37
13, 88925, Note_on_c, 11, 64, 71
13, 88930, Note_on_c, 11, 60, 66
13, 88935, Note_on_c, 11, 55, 39
13, 89130, Note_on_c, 11, 67, 0
13, 89138, Note_on_c, 11, 64, 0
13, 89143, Note_on_c, 11, 60, 0
13, 89148, Note_on_c, 11, 55, 0
13, 89158, Note_on_c, 11, 67, 37
13, 89166, Note_on_c, 11, 64, 71
13, 89171, Note_on_c, 11, 60, 66
13, 89176, Note_on_c, 11, 55, 39
13, 89371, Note_on_c, 11, 67, 0
13, 89378, Note_on_c, 11, 64, 0
13, 89384, Note_on_c, 11, 60, 0
13, 89389, Note_on_c, 11, 55, 0
13, 89397, Note_on_c, 11, 65, 37
13, 89405, Note_on_c, 11, 62, 71
13, 89410, Note_on_c, 11, 58, 66
13, 89415, Note_on_c, 11, 53, 39
13, 89610, Note_on_c, 11, 65, 0
13, 89618, Note_on_c, 11, 62, 0
13, 89623, Note_on_c, 11, 58, 0
13, 89628, Note_on_c, 11, 53, 0
13, 89638, Note_on_c, 11, 65, 37
13, 89646, Note_on_c, 11, 62, 71
13, 89651, Note_on_c, 11, 58, 66
13, 89656, Note_on_c, 11, 53, 39
13, 89851, Note_on_c, 11, 65, 0
13, 89858, Note_on_c, 11, 62, 0
13, 89864, Note_on_c, 11, 58, 0
13, 89869, Note_on_c, 11, 53, 0
13, 89877, Note_on_c, 11, 65, 37
13, 89885, Note_on_c, 11, 62, 71
13, 89890, Note_on_c, 11, 58, 66
13, 89895, Note_on_c, 11, 53, 39
13, 90090, Note_on_c, 11, 65, 0
13, 90098, Note_on_c, 11, 62, 0
13, 90103, Note_on_c, 11, 58, 0
13, 90108, Note_on_c, 11, 53, 0
13, 90118, Note_on_c, 11, 65, 37
13, 90126, Note_on_c, 11, 62, 71
13, 90131, Note_on_c, 11, 58, 66
13, 90136, Note_on_c, 11, 53, 39
13, 90331, Note_on_c, 11, 65, 0
13, 90338, Note_on_c, 11, 62, 0
13, 90344, Note_on_c, 11, 58, 0
13, 90349, Note_on_c, 11, 53, 0
13, 90357, Note_on_c, 11, 65, 37
13, 90365, Note_on_c, 11, 60, 71
13, 90370, Note_on_c, 11, 57, 66
13, 90375, Note_on_c, 11, 53, 39
13, 90715, Note_on_c, 11, 65, 0
13, 90723, Note_on_c, 11, 60, 0
13, 90728, Note_on_c, 11, 57, 0
13, 90733, Note_on_c, 11, 53, 0
13, 90837, Note_on_c, 11, 65, 37
13, 90845, Note_on_c, 11, 60, 71
13, 90850, Note_on_c, 11, 57, 66
13, 90855, Note_on_c, 11, 53, 39
13, 91195, Note_on_c, 11, 65, 0
13, 91203, Note_on_c, 11, 60, 0
13, 91208, Note_on_c, 11, 57, 0
13, 91213, Note_on_c, 11, 53, 0
13, 91317, Note_on_c, 11, 65, 37
13, 91325, Note_on_c, 11, 60, 71
13, 91330, Note_on_c, 11, 57, 66
13, 91335, Note_on_c, 11, 53, 39
13, 91675, Note_on_c, 11, 65, 0
13, 91683, Note_on_c, 11, 60, 0
13, 91688, Note_on_c, 11, 57, 0
13, 91693, Note_on_c, 11, 53, 0
13, 91797, Note_on_c, 11, 65, 37
13, 91805, Note_on_c, 11, 60, 71
13, 91810, Note_on_c, 11, 57, 66
13, 91815, Note_on_c, 11, 53, 39
13, 92155, Note_on_c, 11, 65, 0
13, 92163, Note_on_c, 11, 60, 0
13, 92168, Note_on_c, 11, 57, 0
13, 92173, Note_on_c, 11, 53, 0
13, 92277, Note_on_c, 11, 67, 37
13, 92285, Note_on_c, 11, 64, 71
13, 92290, Note_on_c, 11, 60, 66
13, 92295, Note_on_c, 11, 55, 39
13, 92490, Note_on_c, 11, 67, 0
13, 92498, Note_on_c, 11, 64, 0
13, 92503, Note_on_c, 11, 60, 0
13, 92508, Note_on_c, 11, 55, 0
13, 92518, Note_on_c, 11, 67, 37
13, 92526, Note_on_c, 11, 64, 71
13, 92531, Note_on_c, 11, 60, 66
13, 92536, Note_on_c, 11, 55, 39
13, 92731, Note_on_c, 11, 67, 0
13, 92738, Note_on_c, 11, 64, 0
13, 92744, Note_on_c, 11, 60, 0
13, 92749, Note_on_c, 11, 55, 0
13, 92757, Note_on_c, 11, 67, 37
13, 92765, Note_on_c, 11, 64, 71
13, 92770, Note_on_c, 11, 60, 66
13, 92775, Note_on_c, 11, 55, 39
13, 92970, Note_on_c, 11, 67, 0
13, 92978, Note_on_c, 11, 64, 0
13, 92983, Note_on_c, 11, 60, 0
13, 92988, Note_on_c, 11, 55, 0
13, 92998, Note_on_c, 11, 67, 37
13, 93006, Note_on_c, 11, 64, 71
13, 93011, Note_on_c, 11, 60, 66
13, 93016, Note_on_c, 11, 55, 39
13, 93211, Note_on_c, 11, 67, 0
13, 93218, Note_on_c, 11, 64, 0
13, 93224, Note_on_c, 11, 60, 0
13, 93229, Note_on_c, 11, 55, 0
13, 93237, Note_on_c, 11, 65, 37
13, 93245, Note_on_c, 11, 62, 71
13, 93250, Note_on_c, 11, 58, 66
13, 93255, Note_on_c, 11, 53, 39
13, 93450, Note_on_c, 11, 65, 0
13, 93458, Note_on_c, 11, 62, 0
13, 93463, Note_on_c, 11, 58, 0
13, 93468, Note_on_c, 11, 53, 0
13, 93478, Note_on_c, 11, 65, 37
13, 93486, Note_on_c, 11, 62, 71
13, 93491, Note_on_c, 11, 58, 66
13, 93496, Note_on_c, 11, 53, 39
13, 93691, Note_on_c, 11, 65, 0
13, 93698, Note_on_c, 11, 62, 0
13, 93704, Note_on_c, 11, 58, 0
13, 93709, Note_on_c, 11, 53, 0
13, 93717, Note_on_c, 11, 65, 37
13, 93725, Note_on_c, 11, 62, 71
13, 93730, Note_on_c, 11, 58, 66
13, 93735, Note_on_c, 11, 53, 39
13, 93930, Note_on_c, 11, 65, 0
13, 93938, Note_on_c, 11, 62, 0
13, 93943, Note_on_c, 11, 58, 0
13, 93948, Note_on_c, 11, 53, 0
13, 93958, Note_on_c, 11, 65, 37
13, 93966, Note_on_c, 11, 62, 71
13, 93971, Note_on_c, 11, 58, 66
13, 93976, Note_on_c, 11, 53, 39
13, 94171, Note_on_c, 11, 65, 0
13, 94178, Note_on_c, 11, 62, 0
13, 94184, Note_on_c, 11, 58, 0
13, 94189, Note_on_c, 11, 53, 0
13, 94197, Note_on_c, 11, 65, 37
13, 94205, Note_on_c, 11, 60, 71
13, 94210, Note_on_c, 11, 57, 66
13, 94215, Note_on_c, 11, 53, 39
13, 94555, Note_on_c, 11, 65, 0
13, 94563, Note_on_c, 11, 60, 0
13, 94568, Note_on_c, 11, 57, 0
13, 94573, Note_on_c, 11, 53, 0
13, 94677, Note_on_c, 11, 65, 37
13, 94685, Note_on_c, 11, 60, 71
13, 94690, Note_on_c, 11, 57, 66
13, 94695, Note_on_c, 11, 53, 39
13, 95035, Note_on_c, 11, 65, 0
13, 95043, Note_on_c, 11, 60, 0
13, 95048, Note_on_c, 11, 57, 0
13, 95053, Note_on_c, 11, 53, 0
13, 95157, Note_on_c, 11, 65, 37
13, 95165, Note_on_c, 11, 60, 71
13, 95170, Note_on_c, 11, 57, 66
13, 95175, Note_on_c, 11, 53, 39
13, 95515, Note_on_c, 11, 65, 0
13, 95523, Note_on_c, 11, 60, 0
13, 95528, Note_on_c, 11, 57, 0
13, 95533, Note_on_c, 11, 53, 0
13, 95637, Note_on_c, 11, 65, 37
13, 95645, Note_on_c, 11, 60, 71
13, 95650, Note_on_c, 11, 57, 66
13, 95655, Note_on_c, 11, 53, 39
13, 95989, Note_on_c, 11, 65, 0
13, 95993, Note_on_c, 11, 65, 37
13, 95997, Note_on_c, 11, 60, 0
13, 96001, Note_on_c, 11, 60, 71
13, 96002, Note_on_c, 11, 57, 0
13, 96007, Note_on_c, 11, 53, 0
13, 96007, Note_on_c, 11, 57, 66
13, 96012, Note_on_c, 11, 53, 39
13, 96351, Note_on_c, 11, 65, 0
13, 96359, Note_on_c, 11, 60, 0
13, 96365, Note_on_c, 11, 57, 0
13, 96370, Note_on_c, 11, 53, 0
13, 96370, End_track
14, 0, Start_track
14, 0, Title_t, "Crystal"
14, 0, Program_c, 12, 98
14, 0, Control_c, 12, 7, 58
14, 15360, Note_on_c, 12, 77, 100
14, 15718, Note_on_c, 12, 77, 0
14, 15720, Note_on_c, 12, 79, 100
14, 16078, Note_on_c, 12, 79, 0
14, 16080, Note_on_c, 12, 77, 100
14, 16258, Note_on_c, 12, 77, 0
14, 16320, Note_on_c, 12, 72, 100
14, 16678, Note_on_c, 12, 72, 0
14, 16680, Note_on_c, 12, 77, 100
14, 17158, Note_on_c, 12, 77, 0
14, 17280, Note_on_c, 12, 77, 100
14, 17638, Note_on_c, 12, 77, 0
14, 17640, Note_on_c, 12, 79, 100
14, 17998, Note_on_c, 12, 79, 0
14, 18000, Note_on_c, 12, 77, 100
14, 18178, Note_on_c, 12, 77, 0
14, 18240, Note_on_c, 12, 72, 100
14, 18598, Note_on_c, 12, 72, 0
14, 18600, Note_on_c, 12, 77, 100
14, 19078, Note_on_c, 12, 77, 0
14, 19200, Note_on_c, 12, 77, 100
14, 19558, Note_on_c, 12, 77, 0
14, 19560, Note_on_c, 12, 79, 100
14, 19918, Note_on_c, 12, 79, 0
14, 19920, Note_on_c, 12, 77, 100
14, 20098, Note_on_c, 12, 77, 0
14, 20160, Note_on_c, 12, 74, 100
14, 20518, Note_on_c, 12, 74, 0
14, 20520, Note_on_c, 12, 77, 100
14, 20998, Note_on_c, 12, 77, 0
14, 21120, Note_on_c, 12, 77, 100
14, 21478, Note_on_c, 12, 77, 0
14, 21480, Note_on_c, 12, 79, 100
14, 21838, Note_on_c, 12, 79, 0
14, 21840, Note_on_c, 12, 77, 100
14, 22018, Note_on_c, 12, 77, 0
14, 22080, Note_on_c, 12, 72, 100
14, 22438, Note_on_c, 12, 72, 0
14, 22440, Note_on_c, 12, 77, 100
14, 22918, Note_on_c, 12, 77, 0
14, 23040, Note_on_c, 12, 77, 100
14, 23398, Note_on_c, 12, 77, 0
14, 23400, Note_on_c, 12, 79, 100
14, 23758, Note_on_c, 12, 79, 0
14, 23760, Note_on_c, 12, 77, 100
14, 23938, Note_on_c, 12, 77, 0
14, 24000, Note_on_c, 12, 74, 100
14, 24358, Note_on_c, 12, 74, 0
14, 24360, Note_on_c, 12, 77, 100
14, 24838, Note_on_c, 12, 77, 0
14, 24960, Note_on_c, 12, 77, 100
14, 25318, Note_on_c, 12, 77, 0
14, 25320, Note_on_c, 12, 79, 100
14, 25678, Note_on_c, 12, 79, 0
14, 25680, Note_on_c, 12, 77, 100
14, 25858, Note_on_c, 12, 77, 0
14, 25920, Note_on_c, 12, 72, 100
14, 26278, Note_on_c, 12, 72, 0
14, 26280, Note_on_c, 12, 77, 100
14, 26758, Note_on_c, 12, 77, 0
14, 34560, Note_on_c, 12, 77, 100
14, 34918, Note_on_c, 12, 77, 0
14, 34920, Note_on_c, 12, 79, 100
14, 35278, Note_on_c, 12, 79, 0
14, 35280, Note_on_c, 12, 77, 100
14, 35458, Note_on_c, 12, 77, 0
14, 35520, Note_on_c, 12, 72, 100
14, 35878, Note_on_c, 12, 72, 0
14, 35880, Note_on_c, 12, 77, 100
14, 36358, Note_on_c, 12, 77, 0
14, 36480, Note_on_c, 12, 77, 100
14, 36838, Note_on_c, 12, 77, 0
14, 36840, Note_on_c, 12, 79, 100
14, 37198, Note_on_c, 12, 79, 0
14, 37200, Note_on_c, 12, 77, 100
14, 37378, Note_on_c, 12, 77, 0
14, 37440, Note_on_c, 12, 72, 100
14, 37798, Note_on_c, 12, 72, 0
14, 37800, Note_on_c, 12, 77, 100
14, 38278, Note_on_c, 12, 77, 0
14, 38400, Note_on_c, 12, 77, 100
14, 38758, Note_on_c, 12, 77, 0
14, 38760, Note_on_c, 12, 79, 100
14, 39118, Note_on_c, 12, 79, 0
14, 39120, Note_on_c, 12, 77, 100
14, 39298, Note_on_c, 12, 77, 0
14, 39360, Note_on_c, 12, 74, 100
14, 39718, Note_on_c, 12, 74, 0
14, 39720, Note_on_c, 12, 77, 100
14, 40198, Note_on_c, 12, 77, 0
14, 40320, Note_on_c, 12, 77, 100
14, 40678, Note_on_c, 12, 77, 0
14, 40680, Note_on_c, 12, 79, 100
14, 41038, Note_on_c, 12, 79, 0
14, 41040, Note_on_c, 12, 77, 100
14, 41218, Note_on_c, 12, 77, 0
14, 41280, Note_on_c, 12, 72, 100
14, 41638, Note_on_c, 12, 72, 0
14, 41640, Note_on_c, 12, 77, 100
14, 42118, Note_on_c, 12, 77, 0
14, 42240, Note_on_c, 12, 77, 100
14, 42598, Note_on_c, 12, 77, 0
14, 42600, Note_on_c, 12, 79, 100
14, 42958, Note_on_c, 12, 79, 0
14, 42960, Note_on_c, 12, 77, 100
14, 43138, Note_on_c, 12, 77, 0
14, 43200, Note_on_c, 12, 74, 100
14, 43558, Note_on_c, 12, 74, 0
14, 43560, Note_on_c, 12, 77, 100
14, 44038, Note_on_c, 12, 77, 0
14, 44160, Note_on_c, 12, 77, 100
14, 44518, Note_on_c, 12, 77, 0
14, 44520, Note_on_c, 12, 79, 100
14, 44878, Note_on_c, 12, 79, 0
14, 44880, Note_on_c, 12, 77, 100
14, 45058, Note_on_c, 12, 77, 0
14, 45120, Note_on_c, 12, 72, 100
14, 45478, Note_on_c, 12, 72, 0
14, 45480, Note_on_c, 12, 77, 100
14, 45958, Note_on_c, 12, 77, 0
14, 61440, Note_on_c, 12, 77, 100
14, 61798, Note_on_c, 12, 77, 0
14, 61800, Note_on_c, 12, 79, 100
14, 62158, Note_on_c, 12, 79, 0
14, 62160, Note_on_c, 12, 77, 100
14, 62338, Note_on_c, 12, 77, 0
14, 62400, Note_on_c, 12, 72, 100
14, 62758, Note_on_c, 12, 72, 0
14, 62760, Note_on_c, 12, 77, 100
14, 63238, Note_on_c, 12, 77, 0
14, 63360, Note_on_c, 12, 77, 100
14, 63718, Note_on_c, 12, 77, 0
14, 63720, Note_on_c, 12, 79, 100
14, 64078, Note_on_c, 12, 79, 0
14, 64080, Note_on_c, 12, 77, 100
14, 64258, Note_on_c, 12, 77, 0
14, 64320, Note_on_c, 12, 72, 100
14, 64678, Note_on_c, 12, 72, 0
14, 64680, Note_on_c, 12, 77, 100
14, 65158, Note_on_c, 12, 77, 0
14, 65280, Note_on_c, 12, 77, 100
14, 65638, Note_on_c, 12, 77, 0
14, 65640, Note_on_c, 12, 79, 100
14, 65998, Note_on_c, 12, 79, 0
14, 66000, Note_on_c, 12, 77, 100
14, 66178, Note_on_c, 12, 77, 0
14, 66240, Note_on_c, 12, 74, 100
14, 66598, Note_on_c, 12, 74, 0
14, 66600, Note_on_c, 12, 77, 100
14, 67078, Note_on_c, 12, 77, 0
14, 67200, Note_on_c, 12, 77, 100
14, 67558, Note_on_c, 12, 77, 0
14, 67560, Note_on_c, 12, 79, 100
14, 67918, Note_on_c, 12, 79, 0
14, 67920, Note_on_c, 12, 77, 100
14, 68098, Note_on_c, 12, 77, 0
14, 68160, Note_on_c, 12, 72, 100
14, 68518, Note_on_c, 12, 72, 0
14, 68520, Note_on_c, 12, 77, 100
14, 68998, Note_on_c, 12, 77, 0
14, 68998, End_track
0, 0, End_of_file
