0, 0, Header, 1, 18, 480
1, 0, Start_track
1, 0, Tempo, 285714
1, 0, Time_signature, 4, 2, 24, 8
1, 0, Key_signature, 0, "major"
1, 0, End_track
2, 0, Start_track
2, 0, Title_t, "Orchestra"
2, 0, MIDI_port, 0
2, 0, Channel_prefix, 0
2, 0, Control_c, 0, 7, 74
2, 0, Control_c, 0, 10, 64
2, 0, Control_c, 0, 91, 0
2, 0, Control_c, 0, 93, 0
2, 0, Program_c, 0, 55
2, 240, Note_on_c, 0, 97, 100
2, 240, Note_on_c, 0, 92, 100
2, 240, Note_on_c, 0, 100, 127
2, 480, Note_off_c, 0, 100, 80
2, 480, Note_off_c, 0, 92, 80
2, 480, Note_off_c, 0, 97, 80
2, 480, Note_on_c, 0, 100, 127
2, 480, Note_on_c, 0, 92, 100
2, 480, Note_on_c, 0, 97, 100
2, 720, Note_off_c, 0, 97, 80
2, 720, Note_off_c, 0, 92, 80
2, 720, Note_off_c, 0, 100, 80
2, 720, Note_on_c, 0, 100, 127
2, 720, Note_on_c, 0, 97, 100
2, 720, Note_on_c, 0, 92, 100
2, 960, Note_off_c, 0, 92, 80
2, 960, Note_off_c, 0, 97, 80
2, 960, Note_off_c, 0, 100, 80
2, 960, Note_on_c, 0, 100, 127
2, 960, Note_on_c, 0, 97, 127
2, 960, Note_on_c, 0, 92, 127
2, 1080, Note_off_c, 0, 92, 80
2, 1080, Note_off_c, 0, 97, 80
2, 1080, Note_off_c, 0, 100, 80
2, 1440, Note_on_c, 0, 92, 100
2, 1440, Note_on_c, 0, 100, 127
2, 1440, Note_on_c, 0, 97, 100
2, 1920, Note_off_c, 0, 97, 80
2, 1920, Note_off_c, 0, 100, 80
2, 1920, Note_off_c, 0, 92, 80
2, 1920, Note_on_c, 0, 92, 127
2, 1920, Note_on_c, 0, 99, 127
2, 2400, Note_off_c, 0, 99, 80
2, 2400, Note_off_c, 0, 92, 80
2, 3840, Note_on_c, 0, 97, 127
2, 3840, Note_on_c, 0, 95, 100
2, 3840, Note_on_c, 0, 92, 100
2, 4080, Note_off_c, 0, 92, 80
2, 4080, Note_off_c, 0, 95, 80
2, 4080, Note_off_c, 0, 97, 80
2, 4080, Note_on_c, 0, 92, 100
2, 4080, Note_on_c, 0, 97, 100
2, 4320, Note_off_c, 0, 97, 80
2, 4320, Note_off_c, 0, 92, 80
2, 4320, Note_on_c, 0, 92, 100
2, 4320, Note_on_c, 0, 95, 100
2, 4320, Note_on_c, 0, 97, 127
2, 4560, Note_off_c, 0, 97, 80
2, 4560, Note_off_c, 0, 95, 80
2, 4560, Note_off_c, 0, 92, 80
2, 4560, Note_on_c, 0, 92, 100
2, 4560, Note_on_c, 0, 97, 100
2, 4800, Note_off_c, 0, 97, 80
2, 4800, Note_off_c, 0, 92, 80
2, 4800, Note_on_c, 0, 92, 100
2, 4800, Note_on_c, 0, 95, 100
2, 4800, Note_on_c, 0, 97, 127
2, 5040, Note_off_c, 0, 97, 80
2, 5040, Note_off_c, 0, 95, 80
2, 5040, Note_off_c, 0, 92, 80
2, 5040, Note_on_c, 0, 92, 100
2, 5040, Note_on_c, 0, 97, 100
2, 5280, Note_off_c, 0, 97, 80
2, 5280, Note_off_c, 0, 92, 80
2, 5280, Note_on_c, 0, 92, 100
2, 5280, Note_on_c, 0, 95, 100
2, 5280, Note_on_c, 0, 97, 127
2, 5520, Note_off_c, 0, 97, 80
2, 5520, Note_off_c, 0, 95, 80
2, 5520, Note_off_c, 0, 92, 80
2, 5760, Note_on_c, 0, 92, 100
2, 5760, Note_on_c, 0, 95, 127
2, 6240, Note_off_c, 0, 95, 80
2, 6240, Note_off_c, 0, 92, 80
2, 7920, Note_on_c, 0, 100, 127
2, 7920, Note_on_c, 0, 92, 100
2, 7920, Note_on_c, 0, 97, 100
2, 8160, Note_off_c, 0, 97, 80
2, 8160, Note_off_c, 0, 92, 80
2, 8160, Note_off_c, 0, 100, 80
2, 8160, Note_on_c, 0, 100, 127
2, 8160, Note_on_c, 0, 92, 100
2, 8160, Note_on_c, 0, 97, 100
2, 8400, Note_off_c, 0, 97, 80
2, 8400, Note_off_c, 0, 92, 80
2, 8400, Note_off_c, 0, 100, 80
2, 8400, Note_on_c, 0, 100, 127
2, 8400, Note_on_c, 0, 97, 100
2, 8400, Note_on_c, 0, 92, 100
2, 8640, Note_off_c, 0, 92, 80
2, 8640, Note_off_c, 0, 97, 80
2, 8640, Note_off_c, 0, 100, 80
2, 8640, Note_on_c, 0, 100, 127
2, 8640, Note_on_c, 0, 97, 127
2, 8640, Note_on_c, 0, 92, 127
2, 8760, Note_off_c, 0, 92, 80
2, 8760, Note_off_c, 0, 97, 80
2, 8760, Note_off_c, 0, 100, 80
2, 9120, Note_on_c, 0, 92, 100
2, 9120, Note_on_c, 0, 100, 127
2, 9120, Note_on_c, 0, 97, 100
2, 9600, Note_off_c, 0, 97, 80
2, 9600, Note_off_c, 0, 100, 80
2, 9600, Note_off_c, 0, 92, 80
2, 9600, Note_on_c, 0, 92, 127
2, 9600, Note_on_c, 0, 99, 127
2, 10080, Note_off_c, 0, 99, 80
2, 10080, Note_off_c, 0, 92, 80
2, 11520, Note_on_c, 0, 97, 127
2, 11520, Note_on_c, 0, 95, 100
2, 11520, Note_on_c, 0, 92, 100
2, 11760, Note_off_c, 0, 92, 80
2, 11760, Note_off_c, 0, 95, 80
2, 11760, Note_off_c, 0, 97, 80
2, 11760, Note_on_c, 0, 92, 100
2, 11760, Note_on_c, 0, 97, 100
2, 12000, Note_off_c, 0, 97, 80
2, 12000, Note_off_c, 0, 92, 80
2, 12000, Note_on_c, 0, 92, 100
2, 12000, Note_on_c, 0, 95, 100
2, 12000, Note_on_c, 0, 97, 127
2, 12240, Note_off_c, 0, 97, 80
2, 12240, Note_off_c, 0, 95, 80
2, 12240, Note_off_c, 0, 92, 80
2, 12240, Note_on_c, 0, 92, 100
2, 12240, Note_on_c, 0, 97, 100
2, 12480, Note_off_c, 0, 97, 80
2, 12480, Note_off_c, 0, 92, 80
2, 12480, Note_on_c, 0, 92, 100
2, 12480, Note_on_c, 0, 95, 100
2, 12480, Note_on_c, 0, 97, 127
2, 12720, Note_off_c, 0, 97, 80
2, 12720, Note_off_c, 0, 95, 80
2, 12720, Note_off_c, 0, 92, 80
2, 12720, Note_on_c, 0, 92, 100
2, 12720, Note_on_c, 0, 97, 100
2, 12960, Note_off_c, 0, 97, 80
2, 12960, Note_off_c, 0, 92, 80
2, 12960, Note_on_c, 0, 92, 100
2, 12960, Note_on_c, 0, 95, 100
2, 12960, Note_on_c, 0, 97, 127
2, 13200, Note_off_c, 0, 97, 80
2, 13200, Note_off_c, 0, 95, 80
2, 13200, Note_off_c, 0, 92, 80
2, 13440, Note_on_c, 0, 92, 100
2, 13440, Note_on_c, 0, 95, 127
2, 13920, Note_off_c, 0, 95, 80
2, 13920, Note_off_c, 0, 92, 80
2, 15600, Note_on_c, 0, 100, 127
2, 15600, Note_on_c, 0, 92, 100
2, 15600, Note_on_c, 0, 97, 100
2, 15840, Note_off_c, 0, 97, 80
2, 15840, Note_off_c, 0, 92, 80
2, 15840, Note_off_c, 0, 100, 80
2, 15840, Note_on_c, 0, 100, 127
2, 15840, Note_on_c, 0, 92, 100
2, 15840, Note_on_c, 0, 97, 100
2, 16080, Note_off_c, 0, 97, 80
2, 16080, Note_off_c, 0, 92, 80
2, 16080, Note_off_c, 0, 100, 80
2, 16080, Note_on_c, 0, 100, 127
2, 16080, Note_on_c, 0, 97, 100
2, 16080, Note_on_c, 0, 92, 100
2, 16320, Note_off_c, 0, 92, 80
2, 16320, Note_off_c, 0, 97, 80
2, 16320, Note_off_c, 0, 100, 80
2, 16320, Note_on_c, 0, 100, 127
2, 16320, Note_on_c, 0, 97, 127
2, 16320, Note_on_c, 0, 92, 127
2, 16440, Note_off_c, 0, 92, 80
2, 16440, Note_off_c, 0, 97, 80
2, 16440, Note_off_c, 0, 100, 80
2, 16800, Note_on_c, 0, 92, 100
2, 16800, Note_on_c, 0, 100, 127
2, 16800, Note_on_c, 0, 97, 100
2, 17280, Note_off_c, 0, 97, 80
2, 17280, Note_off_c, 0, 100, 80
2, 17280, Note_off_c, 0, 92, 80
2, 17280, Note_on_c, 0, 92, 127
2, 17280, Note_on_c, 0, 99, 127
2, 17760, Note_off_c, 0, 99, 80
2, 17760, Note_off_c, 0, 92, 80
2, 19200, Note_on_c, 0, 97, 127
2, 19200, Note_on_c, 0, 95, 100
2, 19200, Note_on_c, 0, 92, 100
2, 19440, Note_off_c, 0, 92, 80
2, 19440, Note_off_c, 0, 95, 80
2, 19440, Note_off_c, 0, 97, 80
2, 19440, Note_on_c, 0, 92, 100
2, 19440, Note_on_c, 0, 97, 100
2, 19680, Note_off_c, 0, 97, 80
2, 19680, Note_off_c, 0, 92, 80
2, 19680, Note_on_c, 0, 92, 100
2, 19680, Note_on_c, 0, 95, 100
2, 19680, Note_on_c, 0, 97, 127
2, 19920, Note_off_c, 0, 97, 80
2, 19920, Note_off_c, 0, 95, 80
2, 19920, Note_off_c, 0, 92, 80
2, 19920, Note_on_c, 0, 92, 100
2, 19920, Note_on_c, 0, 97, 100
2, 20160, Note_off_c, 0, 97, 80
2, 20160, Note_off_c, 0, 92, 80
2, 20160, Note_on_c, 0, 92, 100
2, 20160, Note_on_c, 0, 95, 100
2, 20160, Note_on_c, 0, 97, 127
2, 20400, Note_off_c, 0, 97, 80
2, 20400, Note_off_c, 0, 95, 80
2, 20400, Note_off_c, 0, 92, 80
2, 20400, Note_on_c, 0, 92, 100
2, 20400, Note_on_c, 0, 97, 100
2, 20640, Note_off_c, 0, 97, 80
2, 20640, Note_off_c, 0, 92, 80
2, 20640, Note_on_c, 0, 92, 100
2, 20640, Note_on_c, 0, 95, 100
2, 20640, Note_on_c, 0, 97, 127
2, 20880, Note_off_c, 0, 97, 80
2, 20880, Note_off_c, 0, 95, 80
2, 20880, Note_off_c, 0, 92, 80
2, 21120, Note_on_c, 0, 92, 100
2, 21120, Note_on_c, 0, 95, 127
2, 21600, Note_off_c, 0, 95, 80
2, 21600, Note_off_c, 0, 92, 80
2, 23280, Note_on_c, 0, 100, 127
2, 23280, Note_on_c, 0, 92, 100
2, 23280, Note_on_c, 0, 97, 100
2, 23520, Note_off_c, 0, 97, 80
2, 23520, Note_off_c, 0, 92, 80
2, 23520, Note_off_c, 0, 100, 80
2, 23520, Note_on_c, 0, 100, 127
2, 23520, Note_on_c, 0, 92, 100
2, 23520, Note_on_c, 0, 97, 100
2, 23760, Note_off_c, 0, 97, 80
2, 23760, Note_off_c, 0, 92, 80
2, 23760, Note_off_c, 0, 100, 80
2, 23760, Note_on_c, 0, 100, 127
2, 23760, Note_on_c, 0, 97, 100
2, 23760, Note_on_c, 0, 92, 100
2, 24000, Note_off_c, 0, 92, 80
2, 24000, Note_off_c, 0, 97, 80
2, 24000, Note_off_c, 0, 100, 80
2, 24000, Note_on_c, 0, 100, 127
2, 24000, Note_on_c, 0, 97, 127
2, 24000, Note_on_c, 0, 92, 127
2, 24120, Note_off_c, 0, 92, 80
2, 24120, Note_off_c, 0, 97, 80
2, 24120, Note_off_c, 0, 100, 80
2, 24480, Note_on_c, 0, 92, 100
2, 24480, Note_on_c, 0, 100, 127
2, 24480, Note_on_c, 0, 97, 100
2, 24960, Note_off_c, 0, 97, 80
2, 24960, Note_off_c, 0, 100, 80
2, 24960, Note_off_c, 0, 92, 80
2, 24960, Note_on_c, 0, 92, 127
2, 24960, Note_on_c, 0, 99, 127
2, 25440, Note_off_c, 0, 99, 80
2, 25440, Note_off_c, 0, 92, 80
2, 26880, Note_on_c, 0, 97, 127
2, 26880, Note_on_c, 0, 95, 100
2, 26880, Note_on_c, 0, 92, 100
2, 27120, Note_off_c, 0, 92, 80
2, 27120, Note_off_c, 0, 95, 80
2, 27120, Note_off_c, 0, 97, 80
2, 27120, Note_on_c, 0, 92, 100
2, 27120, Note_on_c, 0, 97, 100
2, 27360, Note_off_c, 0, 97, 80
2, 27360, Note_off_c, 0, 92, 80
2, 27360, Note_on_c, 0, 92, 100
2, 27360, Note_on_c, 0, 95, 100
2, 27360, Note_on_c, 0, 97, 127
2, 27600, Note_off_c, 0, 97, 80
2, 27600, Note_off_c, 0, 95, 80
2, 27600, Note_off_c, 0, 92, 80
2, 27600, Note_on_c, 0, 92, 100
2, 27600, Note_on_c, 0, 97, 100
2, 27840, Note_off_c, 0, 97, 80
2, 27840, Note_off_c, 0, 92, 80
2, 27840, Note_on_c, 0, 92, 100
2, 27840, Note_on_c, 0, 95, 100
2, 27840, Note_on_c, 0, 97, 127
2, 28080, Note_off_c, 0, 97, 80
2, 28080, Note_off_c, 0, 95, 80
2, 28080, Note_off_c, 0, 92, 80
2, 28080, Note_on_c, 0, 92, 100
2, 28080, Note_on_c, 0, 97, 100
2, 28320, Note_off_c, 0, 97, 80
2, 28320, Note_off_c, 0, 92, 80
2, 28320, Note_on_c, 0, 92, 100
2, 28320, Note_on_c, 0, 95, 100
2, 28320, Note_on_c, 0, 97, 127
2, 28560, Note_off_c, 0, 97, 80
2, 28560, Note_off_c, 0, 95, 80
2, 28560, Note_off_c, 0, 92, 80
2, 28800, Note_on_c, 0, 92, 100
2, 28800, Note_on_c, 0, 95, 127
2, 29280, Note_off_c, 0, 95, 80
2, 29280, Note_off_c, 0, 92, 80
2, 30960, Note_on_c, 0, 100, 127
2, 30960, Note_on_c, 0, 92, 100
2, 30960, Note_on_c, 0, 97, 100
2, 31200, Note_off_c, 0, 97, 80
2, 31200, Note_off_c, 0, 92, 80
2, 31200, Note_off_c, 0, 100, 80
2, 31200, Note_on_c, 0, 100, 127
2, 31200, Note_on_c, 0, 92, 100
2, 31200, Note_on_c, 0, 97, 100
2, 31440, Note_off_c, 0, 97, 80
2, 31440, Note_off_c, 0, 92, 80
2, 31440, Note_off_c, 0, 100, 80
2, 31440, Note_on_c, 0, 100, 127
2, 31440, Note_on_c, 0, 97, 100
2, 31440, Note_on_c, 0, 92, 100
2, 31680, Note_off_c, 0, 92, 80
2, 31680, Note_off_c, 0, 97, 80
2, 31680, Note_off_c, 0, 100, 80
2, 31680, Note_on_c, 0, 100, 127
2, 31680, Note_on_c, 0, 97, 127
2, 31680, Note_on_c, 0, 92, 127
2, 31800, Note_off_c, 0, 92, 80
2, 31800, Note_off_c, 0, 97, 80
2, 31800, Note_off_c, 0, 100, 80
2, 32160, Note_on_c, 0, 92, 100
2, 32160, Note_on_c, 0, 100, 127
2, 32160, Note_on_c, 0, 97, 100
2, 32640, Note_off_c, 0, 97, 80
2, 32640, Note_off_c, 0, 100, 80
2, 32640, Note_off_c, 0, 92, 80
2, 32640, Note_on_c, 0, 92, 127
2, 32640, Note_on_c, 0, 99, 127
2, 33120, Note_off_c, 0, 99, 80
2, 33120, Note_off_c, 0, 92, 80
2, 34560, Note_on_c, 0, 97, 127
2, 34560, Note_on_c, 0, 95, 100
2, 34560, Note_on_c, 0, 92, 100
2, 34800, Note_off_c, 0, 92, 80
2, 34800, Note_off_c, 0, 95, 80
2, 34800, Note_off_c, 0, 97, 80
2, 34800, Note_on_c, 0, 92, 100
2, 34800, Note_on_c, 0, 97, 100
2, 35040, Note_off_c, 0, 97, 80
2, 35040, Note_off_c, 0, 92, 80
2, 35040, Note_on_c, 0, 92, 100
2, 35040, Note_on_c, 0, 95, 100
2, 35040, Note_on_c, 0, 97, 127
2, 35280, Note_off_c, 0, 97, 80
2, 35280, Note_off_c, 0, 95, 80
2, 35280, Note_off_c, 0, 92, 80
2, 35280, Note_on_c, 0, 92, 100
2, 35280, Note_on_c, 0, 97, 100
2, 35520, Note_off_c, 0, 97, 80
2, 35520, Note_off_c, 0, 92, 80
2, 35520, Note_on_c, 0, 92, 100
2, 35520, Note_on_c, 0, 95, 100
2, 35520, Note_on_c, 0, 97, 127
2, 35760, Note_off_c, 0, 97, 80
2, 35760, Note_off_c, 0, 95, 80
2, 35760, Note_off_c, 0, 92, 80
2, 35760, Note_on_c, 0, 92, 100
2, 35760, Note_on_c, 0, 97, 100
2, 36000, Note_off_c, 0, 97, 80
2, 36000, Note_off_c, 0, 92, 80
2, 36000, Note_on_c, 0, 92, 100
2, 36000, Note_on_c, 0, 95, 100
2, 36000, Note_on_c, 0, 97, 127
2, 36240, Note_off_c, 0, 97, 80
2, 36240, Note_off_c, 0, 95, 80
2, 36240, Note_off_c, 0, 92, 80
2, 36480, Note_on_c, 0, 92, 100
2, 36480, Note_on_c, 0, 95, 127
2, 36960, Note_off_c, 0, 95, 80
2, 36960, Note_off_c, 0, 92, 80
2, 38640, Note_on_c, 0, 100, 127
2, 38640, Note_on_c, 0, 92, 100
2, 38640, Note_on_c, 0, 97, 100
2, 38880, Note_off_c, 0, 97, 80
2, 38880, Note_off_c, 0, 92, 80
2, 38880, Note_off_c, 0, 100, 80
2, 38880, Note_on_c, 0, 100, 127
2, 38880, Note_on_c, 0, 92, 100
2, 38880, Note_on_c, 0, 97, 100
2, 39120, Note_off_c, 0, 97, 80
2, 39120, Note_off_c, 0, 92, 80
2, 39120, Note_off_c, 0, 100, 80
2, 39120, Note_on_c, 0, 100, 127
2, 39120, Note_on_c, 0, 97, 100
2, 39120, Note_on_c, 0, 92, 100
2, 39360, Note_off_c, 0, 92, 80
2, 39360, Note_off_c, 0, 97, 80
2, 39360, Note_off_c, 0, 100, 80
2, 39360, Note_on_c, 0, 100, 127
2, 39360, Note_on_c, 0, 97, 127
2, 39360, Note_on_c, 0, 92, 127
2, 39480, Note_off_c, 0, 92, 80
2, 39480, Note_off_c, 0, 97, 80
2, 39480, Note_off_c, 0, 100, 80
2, 39840, Note_on_c, 0, 92, 100
2, 39840, Note_on_c, 0, 100, 127
2, 39840, Note_on_c, 0, 97, 100
2, 40320, Note_off_c, 0, 97, 80
2, 40320, Note_off_c, 0, 100, 80
2, 40320, Note_off_c, 0, 92, 80
2, 40320, Note_on_c, 0, 92, 127
2, 40320, Note_on_c, 0, 99, 127
2, 40800, Note_off_c, 0, 99, 80
2, 40800, Note_off_c, 0, 92, 80
2, 42240, Note_on_c, 0, 97, 127
2, 42240, Note_on_c, 0, 95, 100
2, 42240, Note_on_c, 0, 92, 100
2, 42480, Note_off_c, 0, 92, 80
2, 42480, Note_off_c, 0, 95, 80
2, 42480, Note_off_c, 0, 97, 80
2, 42480, Note_on_c, 0, 92, 100
2, 42480, Note_on_c, 0, 97, 100
2, 42720, Note_off_c, 0, 97, 80
2, 42720, Note_off_c, 0, 92, 80
2, 42720, Note_on_c, 0, 92, 100
2, 42720, Note_on_c, 0, 95, 100
2, 42720, Note_on_c, 0, 97, 127
2, 42960, Note_off_c, 0, 97, 80
2, 42960, Note_off_c, 0, 95, 80
2, 42960, Note_off_c, 0, 92, 80
2, 42960, Note_on_c, 0, 92, 100
2, 42960, Note_on_c, 0, 97, 100
2, 43200, Note_off_c, 0, 97, 80
2, 43200, Note_off_c, 0, 92, 80
2, 43200, Note_on_c, 0, 92, 100
2, 43200, Note_on_c, 0, 95, 100
2, 43200, Note_on_c, 0, 97, 127
2, 43440, Note_off_c, 0, 97, 80
2, 43440, Note_off_c, 0, 95, 80
2, 43440, Note_off_c, 0, 92, 80
2, 43440, Note_on_c, 0, 92, 100
2, 43440, Note_on_c, 0, 97, 100
2, 43680, Note_off_c, 0, 97, 80
2, 43680, Note_off_c, 0, 92, 80
2, 43680, Note_on_c, 0, 92, 100
2, 43680, Note_on_c, 0, 95, 100
2, 43680, Note_on_c, 0, 97, 127
2, 43920, Note_off_c, 0, 97, 80
2, 43920, Note_off_c, 0, 95, 80
2, 43920, Note_off_c, 0, 92, 80
2, 44160, Note_on_c, 0, 92, 100
2, 44160, Note_on_c, 0, 95, 127
2, 44640, Note_off_c, 0, 95, 80
2, 44640, Note_off_c, 0, 92, 80
2, 46320, Note_on_c, 0, 100, 127
2, 46320, Note_on_c, 0, 92, 100
2, 46320, Note_on_c, 0, 97, 100
2, 46560, Note_off_c, 0, 97, 80
2, 46560, Note_off_c, 0, 92, 80
2, 46560, Note_off_c, 0, 100, 80
2, 46560, Note_on_c, 0, 100, 127
2, 46560, Note_on_c, 0, 92, 100
2, 46560, Note_on_c, 0, 97, 100
2, 46800, Note_off_c, 0, 97, 80
2, 46800, Note_off_c, 0, 92, 80
2, 46800, Note_off_c, 0, 100, 80
2, 46800, Note_on_c, 0, 100, 127
2, 46800, Note_on_c, 0, 97, 100
2, 46800, Note_on_c, 0, 92, 100
2, 47040, Note_off_c, 0, 92, 80
2, 47040, Note_off_c, 0, 97, 80
2, 47040, Note_off_c, 0, 100, 80
2, 47040, Note_on_c, 0, 100, 127
2, 47040, Note_on_c, 0, 97, 127
2, 47040, Note_on_c, 0, 92, 127
2, 47160, Note_off_c, 0, 92, 80
2, 47160, Note_off_c, 0, 97, 80
2, 47160, Note_off_c, 0, 100, 80
2, 47520, Note_on_c, 0, 92, 100
2, 47520, Note_on_c, 0, 100, 127
2, 47520, Note_on_c, 0, 97, 100
2, 48000, Note_off_c, 0, 97, 80
2, 48000, Note_off_c, 0, 100, 80
2, 48000, Note_off_c, 0, 92, 80
2, 48000, Note_on_c, 0, 92, 127
2, 48000, Note_on_c, 0, 99, 127
2, 48480, Note_off_c, 0, 99, 80
2, 48480, Note_off_c, 0, 92, 80
2, 49920, Note_on_c, 0, 97, 127
2, 49920, Note_on_c, 0, 95, 100
2, 49920, Note_on_c, 0, 92, 100
2, 50160, Note_off_c, 0, 92, 80
2, 50160, Note_off_c, 0, 95, 80
2, 50160, Note_off_c, 0, 97, 80
2, 50160, Note_on_c, 0, 92, 100
2, 50160, Note_on_c, 0, 97, 100
2, 50400, Note_off_c, 0, 97, 80
2, 50400, Note_off_c, 0, 92, 80
2, 50400, Note_on_c, 0, 92, 100
2, 50400, Note_on_c, 0, 95, 100
2, 50400, Note_on_c, 0, 97, 127
2, 50640, Note_off_c, 0, 97, 80
2, 50640, Note_off_c, 0, 95, 80
2, 50640, Note_off_c, 0, 92, 80
2, 50640, Note_on_c, 0, 92, 100
2, 50640, Note_on_c, 0, 97, 100
2, 50880, Note_off_c, 0, 97, 80
2, 50880, Note_off_c, 0, 92, 80
2, 50880, Note_on_c, 0, 92, 100
2, 50880, Note_on_c, 0, 95, 100
2, 50880, Note_on_c, 0, 97, 127
2, 51120, Note_off_c, 0, 97, 80
2, 51120, Note_off_c, 0, 95, 80
2, 51120, Note_off_c, 0, 92, 80
2, 51120, Note_on_c, 0, 92, 100
2, 51120, Note_on_c, 0, 97, 100
2, 51360, Note_off_c, 0, 97, 80
2, 51360, Note_off_c, 0, 92, 80
2, 51360, Note_on_c, 0, 92, 100
2, 51360, Note_on_c, 0, 95, 100
2, 51360, Note_on_c, 0, 97, 127
2, 51600, Note_off_c, 0, 97, 80
2, 51600, Note_off_c, 0, 95, 80
2, 51600, Note_off_c, 0, 92, 80
2, 51840, Note_on_c, 0, 92, 100
2, 51840, Note_on_c, 0, 95, 127
2, 52320, Note_off_c, 0, 95, 80
2, 52320, Note_off_c, 0, 92, 80
2, 54000, Note_on_c, 0, 100, 127
2, 54000, Note_on_c, 0, 92, 100
2, 54000, Note_on_c, 0, 97, 100
2, 54240, Note_off_c, 0, 97, 80
2, 54240, Note_off_c, 0, 92, 80
2, 54240, Note_off_c, 0, 100, 80
2, 54240, Note_on_c, 0, 100, 127
2, 54240, Note_on_c, 0, 92, 100
2, 54240, Note_on_c, 0, 97, 100
2, 54480, Note_off_c, 0, 97, 80
2, 54480, Note_off_c, 0, 92, 80
2, 54480, Note_off_c, 0, 100, 80
2, 54480, Note_on_c, 0, 100, 127
2, 54480, Note_on_c, 0, 97, 100
2, 54480, Note_on_c, 0, 92, 100
2, 54720, Note_off_c, 0, 92, 80
2, 54720, Note_off_c, 0, 97, 80
2, 54720, Note_off_c, 0, 100, 80
2, 54720, Note_on_c, 0, 100, 127
2, 54720, Note_on_c, 0, 97, 127
2, 54720, Note_on_c, 0, 92, 127
2, 54840, Note_off_c, 0, 92, 80
2, 54840, Note_off_c, 0, 97, 80
2, 54840, Note_off_c, 0, 100, 80
2, 55200, Note_on_c, 0, 92, 100
2, 55200, Note_on_c, 0, 100, 127
2, 55200, Note_on_c, 0, 97, 100
2, 55680, Note_off_c, 0, 97, 80
2, 55680, Note_off_c, 0, 100, 80
2, 55680, Note_off_c, 0, 92, 80
2, 55680, Note_on_c, 0, 92, 127
2, 55680, Note_on_c, 0, 99, 127
2, 56160, Note_off_c, 0, 99, 80
2, 56160, Note_off_c, 0, 92, 80
2, 57600, Note_on_c, 0, 97, 127
2, 57600, Note_on_c, 0, 95, 100
2, 57600, Note_on_c, 0, 92, 100
2, 57840, Note_off_c, 0, 92, 80
2, 57840, Note_off_c, 0, 95, 80
2, 57840, Note_off_c, 0, 97, 80
2, 57840, Note_on_c, 0, 92, 100
2, 57840, Note_on_c, 0, 97, 100
2, 58080, Note_off_c, 0, 97, 80
2, 58080, Note_off_c, 0, 92, 80
2, 58080, Note_on_c, 0, 92, 100
2, 58080, Note_on_c, 0, 95, 100
2, 58080, Note_on_c, 0, 97, 127
2, 58320, Note_off_c, 0, 97, 80
2, 58320, Note_off_c, 0, 95, 80
2, 58320, Note_off_c, 0, 92, 80
2, 58320, Note_on_c, 0, 92, 100
2, 58320, Note_on_c, 0, 97, 100
2, 58560, Note_off_c, 0, 97, 80
2, 58560, Note_off_c, 0, 92, 80
2, 58560, Note_on_c, 0, 92, 100
2, 58560, Note_on_c, 0, 95, 100
2, 58560, Note_on_c, 0, 97, 127
2, 58800, Note_off_c, 0, 97, 80
2, 58800, Note_off_c, 0, 95, 80
2, 58800, Note_off_c, 0, 92, 80
2, 58800, Note_on_c, 0, 92, 100
2, 58800, Note_on_c, 0, 97, 100
2, 59040, Note_off_c, 0, 97, 80
2, 59040, Note_off_c, 0, 92, 80
2, 59040, Note_on_c, 0, 92, 100
2, 59040, Note_on_c, 0, 95, 100
2, 59040, Note_on_c, 0, 97, 127
2, 59280, Note_off_c, 0, 97, 80
2, 59280, Note_off_c, 0, 95, 80
2, 59280, Note_off_c, 0, 92, 80
2, 59520, Note_on_c, 0, 92, 100
2, 59520, Note_on_c, 0, 95, 127
2, 60000, Note_off_c, 0, 95, 80
2, 60000, Note_off_c, 0, 92, 80
2, 61680, Note_on_c, 0, 100, 127
2, 61680, Note_on_c, 0, 92, 100
2, 61680, Note_on_c, 0, 97, 100
2, 61920, Note_off_c, 0, 97, 80
2, 61920, Note_off_c, 0, 92, 80
2, 61920, Note_off_c, 0, 100, 80
2, 61920, Note_on_c, 0, 100, 127
2, 61920, Note_on_c, 0, 92, 100
2, 61920, Note_on_c, 0, 97, 100
2, 62160, Note_off_c, 0, 97, 80
2, 62160, Note_off_c, 0, 92, 80
2, 62160, Note_off_c, 0, 100, 80
2, 62160, Note_on_c, 0, 100, 127
2, 62160, Note_on_c, 0, 97, 100
2, 62160, Note_on_c, 0, 92, 100
2, 62400, Note_off_c, 0, 92, 80
2, 62400, Note_off_c, 0, 97, 80
2, 62400, Note_off_c, 0, 100, 80
2, 62400, Note_on_c, 0, 100, 127
2, 62400, Note_on_c, 0, 97, 127
2, 62400, Note_on_c, 0, 92, 127
2, 62520, Note_off_c, 0, 92, 80
2, 62520, Note_off_c, 0, 97, 80
2, 62520, Note_off_c, 0, 100, 80
2, 62880, Note_on_c, 0, 92, 100
2, 62880, Note_on_c, 0, 100, 127
2, 62880, Note_on_c, 0, 97, 100
2, 63360, Note_off_c, 0, 97, 80
2, 63360, Note_off_c, 0, 100, 80
2, 63360, Note_off_c, 0, 92, 80
2, 63360, Note_on_c, 0, 92, 127
2, 63360, Note_on_c, 0, 99, 127
2, 63840, Note_off_c, 0, 99, 80
2, 63840, Note_off_c, 0, 92, 80
2, 65280, Note_on_c, 0, 97, 127
2, 65280, Note_on_c, 0, 95, 100
2, 65280, Note_on_c, 0, 92, 100
2, 65520, Note_off_c, 0, 92, 80
2, 65520, Note_off_c, 0, 95, 80
2, 65520, Note_off_c, 0, 97, 80
2, 65520, Note_on_c, 0, 92, 100
2, 65520, Note_on_c, 0, 97, 100
2, 65760, Note_off_c, 0, 97, 80
2, 65760, Note_off_c, 0, 92, 80
2, 65760, Note_on_c, 0, 92, 100
2, 65760, Note_on_c, 0, 95, 100
2, 65760, Note_on_c, 0, 97, 127
2, 66000, Note_off_c, 0, 97, 80
2, 66000, Note_off_c, 0, 95, 80
2, 66000, Note_off_c, 0, 92, 80
2, 66000, Note_on_c, 0, 92, 100
2, 66000, Note_on_c, 0, 97, 100
2, 66240, Note_off_c, 0, 97, 80
2, 66240, Note_off_c, 0, 92, 80
2, 66240, Note_on_c, 0, 92, 100
2, 66240, Note_on_c, 0, 95, 100
2, 66240, Note_on_c, 0, 97, 127
2, 66480, Note_off_c, 0, 97, 80
2, 66480, Note_off_c, 0, 95, 80
2, 66480, Note_off_c, 0, 92, 80
2, 66480, Note_on_c, 0, 92, 100
2, 66480, Note_on_c, 0, 97, 100
2, 66720, Note_off_c, 0, 97, 80
2, 66720, Note_off_c, 0, 92, 80
2, 66720, Note_on_c, 0, 92, 100
2, 66720, Note_on_c, 0, 95, 100
2, 66720, Note_on_c, 0, 97, 127
2, 66960, Note_off_c, 0, 97, 80
2, 66960, Note_off_c, 0, 95, 80
2, 66960, Note_off_c, 0, 92, 80
2, 67200, Note_on_c, 0, 92, 100
2, 67200, Note_on_c, 0, 95, 127
2, 67680, Note_off_c, 0, 95, 80
2, 67680, Note_off_c, 0, 92, 80
2, 69360, Note_on_c, 0, 100, 127
2, 69360, Note_on_c, 0, 92, 100
2, 69360, Note_on_c, 0, 97, 100
2, 69600, Note_off_c, 0, 97, 80
2, 69600, Note_off_c, 0, 92, 80
2, 69600, Note_off_c, 0, 100, 80
2, 69600, Note_on_c, 0, 100, 127
2, 69600, Note_on_c, 0, 92, 100
2, 69600, Note_on_c, 0, 97, 100
2, 69840, Note_off_c, 0, 97, 80
2, 69840, Note_off_c, 0, 92, 80
2, 69840, Note_off_c, 0, 100, 80
2, 69840, Note_on_c, 0, 100, 127
2, 69840, Note_on_c, 0, 97, 100
2, 69840, Note_on_c, 0, 92, 100
2, 70080, Note_off_c, 0, 92, 80
2, 70080, Note_off_c, 0, 97, 80
2, 70080, Note_off_c, 0, 100, 80
2, 70080, Note_on_c, 0, 100, 127
2, 70080, Note_on_c, 0, 97, 127
2, 70080, Note_on_c, 0, 92, 127
2, 70200, Note_off_c, 0, 92, 80
2, 70200, Note_off_c, 0, 97, 80
2, 70200, Note_off_c, 0, 100, 80
2, 70560, Note_on_c, 0, 92, 100
2, 70560, Note_on_c, 0, 100, 127
2, 70560, Note_on_c, 0, 97, 100
2, 71040, Note_off_c, 0, 97, 80
2, 71040, Note_off_c, 0, 100, 80
2, 71040, Note_off_c, 0, 92, 80
2, 71040, Note_on_c, 0, 92, 127
2, 71040, Note_on_c, 0, 99, 127
2, 71520, Note_off_c, 0, 99, 80
2, 71520, Note_off_c, 0, 92, 80
2, 72960, Note_on_c, 0, 97, 127
2, 72960, Note_on_c, 0, 95, 100
2, 72960, Note_on_c, 0, 92, 100
2, 73200, Note_off_c, 0, 92, 80
2, 73200, Note_off_c, 0, 95, 80
2, 73200, Note_off_c, 0, 97, 80
2, 73200, Note_on_c, 0, 92, 100
2, 73200, Note_on_c, 0, 97, 100
2, 73440, Note_off_c, 0, 97, 80
2, 73440, Note_off_c, 0, 92, 80
2, 73440, Note_on_c, 0, 92, 100
2, 73440, Note_on_c, 0, 95, 100
2, 73440, Note_on_c, 0, 97, 127
2, 73680, Note_off_c, 0, 97, 80
2, 73680, Note_off_c, 0, 95, 80
2, 73680, Note_off_c, 0, 92, 80
2, 73680, Note_on_c, 0, 92, 100
2, 73680, Note_on_c, 0, 97, 100
2, 73920, Note_off_c, 0, 97, 80
2, 73920, Note_off_c, 0, 92, 80
2, 73920, Note_on_c, 0, 92, 100
2, 73920, Note_on_c, 0, 95, 100
2, 73920, Note_on_c, 0, 97, 127
2, 74160, Note_off_c, 0, 97, 80
2, 74160, Note_off_c, 0, 95, 80
2, 74160, Note_off_c, 0, 92, 80
2, 74160, Note_on_c, 0, 92, 100
2, 74160, Note_on_c, 0, 97, 100
2, 74400, Note_off_c, 0, 97, 80
2, 74400, Note_off_c, 0, 92, 80
2, 74400, Note_on_c, 0, 92, 100
2, 74400, Note_on_c, 0, 95, 100
2, 74400, Note_on_c, 0, 97, 127
2, 74640, Note_off_c, 0, 97, 80
2, 74640, Note_off_c, 0, 95, 80
2, 74640, Note_off_c, 0, 92, 80
2, 74880, Note_on_c, 0, 92, 100
2, 74880, Note_on_c, 0, 95, 127
2, 75360, Note_off_c, 0, 95, 80
2, 75360, Note_off_c, 0, 92, 80
2, 77040, Note_on_c, 0, 100, 127
2, 77040, Note_on_c, 0, 92, 100
2, 77040, Note_on_c, 0, 97, 100
2, 77280, Note_off_c, 0, 97, 80
2, 77280, Note_off_c, 0, 92, 80
2, 77280, Note_off_c, 0, 100, 80
2, 77280, Note_on_c, 0, 100, 127
2, 77280, Note_on_c, 0, 92, 100
2, 77280, Note_on_c, 0, 97, 100
2, 77520, Note_off_c, 0, 97, 80
2, 77520, Note_off_c, 0, 92, 80
2, 77520, Note_off_c, 0, 100, 80
2, 77520, Note_on_c, 0, 100, 127
2, 77520, Note_on_c, 0, 97, 100
2, 77520, Note_on_c, 0, 92, 100
2, 77760, Note_off_c, 0, 92, 80
2, 77760, Note_off_c, 0, 97, 80
2, 77760, Note_off_c, 0, 100, 80
2, 77760, Note_on_c, 0, 100, 127
2, 77760, Note_on_c, 0, 97, 127
2, 77760, Note_on_c, 0, 92, 127
2, 77880, Note_off_c, 0, 92, 80
2, 77880, Note_off_c, 0, 97, 80
2, 77880, Note_off_c, 0, 100, 80
2, 78240, Note_on_c, 0, 92, 100
2, 78240, Note_on_c, 0, 100, 127
2, 78240, Note_on_c, 0, 97, 100
2, 78720, Note_off_c, 0, 97, 80
2, 78720, Note_off_c, 0, 100, 80
2, 78720, Note_off_c, 0, 92, 80
2, 78720, Note_on_c, 0, 92, 127
2, 78720, Note_on_c, 0, 99, 127
2, 79200, Note_off_c, 0, 99, 80
2, 79200, Note_off_c, 0, 92, 80
2, 80640, Note_on_c, 0, 97, 127
2, 80640, Note_on_c, 0, 95, 100
2, 80640, Note_on_c, 0, 92, 100
2, 80880, Note_off_c, 0, 92, 80
2, 80880, Note_off_c, 0, 95, 80
2, 80880, Note_off_c, 0, 97, 80
2, 80880, Note_on_c, 0, 92, 100
2, 80880, Note_on_c, 0, 97, 100
2, 81120, Note_off_c, 0, 97, 80
2, 81120, Note_off_c, 0, 92, 80
2, 81120, Note_on_c, 0, 92, 100
2, 81120, Note_on_c, 0, 95, 100
2, 81120, Note_on_c, 0, 97, 127
2, 81360, Note_off_c, 0, 97, 80
2, 81360, Note_off_c, 0, 95, 80
2, 81360, Note_off_c, 0, 92, 80
2, 81360, Note_on_c, 0, 92, 100
2, 81360, Note_on_c, 0, 97, 100
2, 81600, Note_off_c, 0, 97, 80
2, 81600, Note_off_c, 0, 92, 80
2, 81600, Note_on_c, 0, 92, 100
2, 81600, Note_on_c, 0, 95, 100
2, 81600, Note_on_c, 0, 97, 127
2, 81840, Note_off_c, 0, 97, 80
2, 81840, Note_off_c, 0, 95, 80
2, 81840, Note_off_c, 0, 92, 80
2, 81840, Note_on_c, 0, 92, 100
2, 81840, Note_on_c, 0, 97, 100
2, 82080, Note_off_c, 0, 97, 80
2, 82080, Note_off_c, 0, 92, 80
2, 82080, Note_on_c, 0, 92, 100
2, 82080, Note_on_c, 0, 95, 100
2, 82080, Note_on_c, 0, 97, 127
2, 82320, Note_off_c, 0, 97, 80
2, 82320, Note_off_c, 0, 95, 80
2, 82320, Note_off_c, 0, 92, 80
2, 82560, Note_on_c, 0, 92, 100
2, 82560, Note_on_c, 0, 95, 127
2, 83040, Note_off_c, 0, 95, 80
2, 83040, Note_off_c, 0, 92, 80
2, 84720, Note_on_c, 0, 100, 127
2, 84720, Note_on_c, 0, 92, 100
2, 84720, Note_on_c, 0, 97, 100
2, 84960, Note_off_c, 0, 97, 80
2, 84960, Note_off_c, 0, 92, 80
2, 84960, Note_off_c, 0, 100, 80
2, 84960, Note_on_c, 0, 100, 127
2, 84960, Note_on_c, 0, 92, 100
2, 84960, Note_on_c, 0, 97, 100
2, 85200, Note_off_c, 0, 97, 80
2, 85200, Note_off_c, 0, 92, 80
2, 85200, Note_off_c, 0, 100, 80
2, 85200, Note_on_c, 0, 100, 127
2, 85200, Note_on_c, 0, 97, 100
2, 85200, Note_on_c, 0, 92, 100
2, 85440, Note_off_c, 0, 92, 80
2, 85440, Note_off_c, 0, 97, 80
2, 85440, Note_off_c, 0, 100, 80
2, 85440, Note_on_c, 0, 100, 127
2, 85440, Note_on_c, 0, 97, 127
2, 85440, Note_on_c, 0, 92, 127
2, 85560, Note_off_c, 0, 92, 80
2, 85560, Note_off_c, 0, 97, 80
2, 85560, Note_off_c, 0, 100, 80
2, 85920, Note_on_c, 0, 92, 100
2, 85920, Note_on_c, 0, 100, 127
2, 85920, Note_on_c, 0, 97, 100
2, 86400, Note_off_c, 0, 97, 80
2, 86400, Note_off_c, 0, 100, 80
2, 86400, Note_off_c, 0, 92, 80
2, 86400, Note_on_c, 0, 92, 127
2, 86400, Note_on_c, 0, 99, 127
2, 86880, Note_off_c, 0, 99, 80
2, 86880, Note_off_c, 0, 92, 80
2, 88320, Note_on_c, 0, 97, 127
2, 88320, Note_on_c, 0, 95, 100
2, 88320, Note_on_c, 0, 92, 100
2, 88560, Note_off_c, 0, 92, 80
2, 88560, Note_off_c, 0, 95, 80
2, 88560, Note_off_c, 0, 97, 80
2, 88560, Note_on_c, 0, 92, 100
2, 88560, Note_on_c, 0, 97, 100
2, 88800, Note_off_c, 0, 97, 80
2, 88800, Note_off_c, 0, 92, 80
2, 88800, Note_on_c, 0, 92, 100
2, 88800, Note_on_c, 0, 95, 100
2, 88800, Note_on_c, 0, 97, 127
2, 89040, Note_off_c, 0, 97, 80
2, 89040, Note_off_c, 0, 95, 80
2, 89040, Note_off_c, 0, 92, 80
2, 89040, Note_on_c, 0, 92, 100
2, 89040, Note_on_c, 0, 97, 100
2, 89280, Note_off_c, 0, 97, 80
2, 89280, Note_off_c, 0, 92, 80
2, 89280, Note_on_c, 0, 92, 100
2, 89280, Note_on_c, 0, 95, 100
2, 89280, Note_on_c, 0, 97, 127
2, 89520, Note_off_c, 0, 97, 80
2, 89520, Note_off_c, 0, 95, 80
2, 89520, Note_off_c, 0, 92, 80
2, 89520, Note_on_c, 0, 92, 100
2, 89520, Note_on_c, 0, 97, 100
2, 89760, Note_off_c, 0, 97, 80
2, 89760, Note_off_c, 0, 92, 80
2, 89760, Note_on_c, 0, 92, 100
2, 89760, Note_on_c, 0, 95, 100
2, 89760, Note_on_c, 0, 97, 127
2, 90000, Note_off_c, 0, 97, 80
2, 90000, Note_off_c, 0, 95, 80
2, 90000, Note_off_c, 0, 92, 80
2, 90240, Note_on_c, 0, 92, 100
2, 90240, Note_on_c, 0, 95, 127
2, 90720, Note_off_c, 0, 95, 80
2, 90720, Note_off_c, 0, 92, 80
2, 92400, Note_on_c, 0, 100, 127
2, 92400, Note_on_c, 0, 92, 100
2, 92400, Note_on_c, 0, 97, 100
2, 92640, Note_off_c, 0, 97, 80
2, 92640, Note_off_c, 0, 92, 80
2, 92640, Note_off_c, 0, 100, 80
2, 92640, Note_on_c, 0, 100, 127
2, 92640, Note_on_c, 0, 92, 100
2, 92640, Note_on_c, 0, 97, 100
2, 92880, Note_off_c, 0, 97, 80
2, 92880, Note_off_c, 0, 92, 80
2, 92880, Note_off_c, 0, 100, 80
2, 92880, Note_on_c, 0, 100, 127
2, 92880, Note_on_c, 0, 97, 100
2, 92880, Note_on_c, 0, 92, 100
2, 93120, Note_off_c, 0, 92, 80
2, 93120, Note_off_c, 0, 97, 80
2, 93120, Note_off_c, 0, 100, 80
2, 93120, Note_on_c, 0, 100, 127
2, 93120, Note_on_c, 0, 97, 127
2, 93120, Note_on_c, 0, 92, 127
2, 93240, Note_off_c, 0, 92, 80
2, 93240, Note_off_c, 0, 97, 80
2, 93240, Note_off_c, 0, 100, 80
2, 93600, Note_on_c, 0, 92, 100
2, 93600, Note_on_c, 0, 100, 127
2, 93600, Note_on_c, 0, 97, 100
2, 94080, Note_off_c, 0, 97, 80
2, 94080, Note_off_c, 0, 100, 80
2, 94080, Note_off_c, 0, 92, 80
2, 94080, Note_on_c, 0, 92, 127
2, 94080, Note_on_c, 0, 99, 127
2, 94560, Note_off_c, 0, 99, 80
2, 94560, Note_off_c, 0, 92, 80
2, 96000, Note_on_c, 0, 97, 127
2, 96000, Note_on_c, 0, 95, 100
2, 96000, Note_on_c, 0, 92, 100
2, 96240, Note_off_c, 0, 92, 80
2, 96240, Note_off_c, 0, 95, 80
2, 96240, Note_off_c, 0, 97, 80
2, 96240, Note_on_c, 0, 92, 100
2, 96240, Note_on_c, 0, 97, 100
2, 96480, Note_off_c, 0, 97, 80
2, 96480, Note_off_c, 0, 92, 80
2, 96480, Note_on_c, 0, 92, 100
2, 96480, Note_on_c, 0, 95, 100
2, 96480, Note_on_c, 0, 97, 127
2, 96720, Note_off_c, 0, 97, 80
2, 96720, Note_off_c, 0, 95, 80
2, 96720, Note_off_c, 0, 92, 80
2, 96720, Note_on_c, 0, 92, 100
2, 96720, Note_on_c, 0, 97, 100
2, 96960, Note_off_c, 0, 97, 80
2, 96960, Note_off_c, 0, 92, 80
2, 96960, Note_on_c, 0, 92, 100
2, 96960, Note_on_c, 0, 95, 100
2, 96960, Note_on_c, 0, 97, 127
2, 97200, Note_off_c, 0, 97, 80
2, 97200, Note_off_c, 0, 95, 80
2, 97200, Note_off_c, 0, 92, 80
2, 97200, Note_on_c, 0, 92, 100
2, 97200, Note_on_c, 0, 97, 100
2, 97440, Note_off_c, 0, 97, 80
2, 97440, Note_off_c, 0, 92, 80
2, 97440, Note_on_c, 0, 92, 100
2, 97440, Note_on_c, 0, 95, 100
2, 97440, Note_on_c, 0, 97, 127
2, 97680, Note_off_c, 0, 97, 80
2, 97680, Note_off_c, 0, 95, 80
2, 97680, Note_off_c, 0, 92, 80
2, 97920, Note_on_c, 0, 92, 100
2, 97920, Note_on_c, 0, 95, 127
2, 98400, Note_off_c, 0, 95, 80
2, 98400, Note_off_c, 0, 92, 80
2, 100080, Note_on_c, 0, 100, 127
2, 100080, Note_on_c, 0, 92, 100
2, 100080, Note_on_c, 0, 97, 100
2, 100320, Note_off_c, 0, 97, 80
2, 100320, Note_off_c, 0, 92, 80
2, 100320, Note_off_c, 0, 100, 80
2, 100320, Note_on_c, 0, 100, 127
2, 100320, Note_on_c, 0, 92, 100
2, 100320, Note_on_c, 0, 97, 100
2, 100560, Note_off_c, 0, 97, 80
2, 100560, Note_off_c, 0, 92, 80
2, 100560, Note_off_c, 0, 100, 80
2, 100560, Note_on_c, 0, 100, 127
2, 100560, Note_on_c, 0, 97, 100
2, 100560, Note_on_c, 0, 92, 100
2, 100800, Note_off_c, 0, 92, 80
2, 100800, Note_off_c, 0, 97, 80
2, 100800, Note_off_c, 0, 100, 80
2, 100800, Note_on_c, 0, 100, 127
2, 100800, Note_on_c, 0, 97, 127
2, 100800, Note_on_c, 0, 92, 127
2, 100920, Note_off_c, 0, 92, 80
2, 100920, Note_off_c, 0, 97, 80
2, 100920, Note_off_c, 0, 100, 80
2, 101280, Note_on_c, 0, 92, 100
2, 101280, Note_on_c, 0, 100, 127
2, 101280, Note_on_c, 0, 97, 100
2, 101760, Note_off_c, 0, 97, 80
2, 101760, Note_off_c, 0, 100, 80
2, 101760, Note_off_c, 0, 92, 80
2, 101760, Note_on_c, 0, 92, 127
2, 101760, Note_on_c, 0, 99, 127
2, 102240, Note_off_c, 0, 99, 80
2, 102240, Note_off_c, 0, 92, 80
2, 103680, Note_on_c, 0, 97, 127
2, 103680, Note_on_c, 0, 95, 100
2, 103680, Note_on_c, 0, 92, 100
2, 103920, Note_off_c, 0, 92, 80
2, 103920, Note_off_c, 0, 95, 80
2, 103920, Note_off_c, 0, 97, 80
2, 103920, Note_on_c, 0, 92, 100
2, 103920, Note_on_c, 0, 97, 100
2, 104160, Note_off_c, 0, 97, 80
2, 104160, Note_off_c, 0, 92, 80
2, 104160, Note_on_c, 0, 92, 100
2, 104160, Note_on_c, 0, 95, 100
2, 104160, Note_on_c, 0, 97, 127
2, 104400, Note_off_c, 0, 97, 80
2, 104400, Note_off_c, 0, 95, 80
2, 104400, Note_off_c, 0, 92, 80
2, 104400, Note_on_c, 0, 92, 100
2, 104400, Note_on_c, 0, 97, 100
2, 104640, Note_off_c, 0, 97, 80
2, 104640, Note_off_c, 0, 92, 80
2, 104640, Note_on_c, 0, 92, 100
2, 104640, Note_on_c, 0, 95, 100
2, 104640, Note_on_c, 0, 97, 127
2, 104880, Note_off_c, 0, 97, 80
2, 104880, Note_off_c, 0, 95, 80
2, 104880, Note_off_c, 0, 92, 80
2, 104880, Note_on_c, 0, 92, 100
2, 104880, Note_on_c, 0, 97, 100
2, 105120, Note_off_c, 0, 97, 80
2, 105120, Note_off_c, 0, 92, 80
2, 105120, Note_on_c, 0, 92, 100
2, 105120, Note_on_c, 0, 95, 100
2, 105120, Note_on_c, 0, 97, 127
2, 105360, Note_off_c, 0, 97, 80
2, 105360, Note_off_c, 0, 95, 80
2, 105360, Note_off_c, 0, 92, 80
2, 105600, Note_on_c, 0, 92, 100
2, 105600, Note_on_c, 0, 95, 127
2, 106080, Note_off_c, 0, 95, 80
2, 106080, Note_off_c, 0, 92, 80
2, 107760, Note_on_c, 0, 100, 127
2, 107760, Note_on_c, 0, 92, 100
2, 107760, Note_on_c, 0, 97, 100
2, 108000, Note_off_c, 0, 97, 80
2, 108000, Note_off_c, 0, 92, 80
2, 108000, Note_off_c, 0, 100, 80
2, 108000, Note_on_c, 0, 100, 127
2, 108000, Note_on_c, 0, 92, 100
2, 108000, Note_on_c, 0, 97, 100
2, 108240, Note_off_c, 0, 97, 80
2, 108240, Note_off_c, 0, 92, 80
2, 108240, Note_off_c, 0, 100, 80
2, 108240, Note_on_c, 0, 100, 127
2, 108240, Note_on_c, 0, 97, 100
2, 108240, Note_on_c, 0, 92, 100
2, 108480, Note_off_c, 0, 92, 80
2, 108480, Note_off_c, 0, 97, 80
2, 108480, Note_off_c, 0, 100, 80
2, 108480, Note_on_c, 0, 100, 127
2, 108480, Note_on_c, 0, 97, 127
2, 108480, Note_on_c, 0, 92, 127
2, 108600, Note_off_c, 0, 92, 80
2, 108600, Note_off_c, 0, 97, 80
2, 108600, Note_off_c, 0, 100, 80
2, 108960, Note_on_c, 0, 92, 100
2, 108960, Note_on_c, 0, 100, 127
2, 108960, Note_on_c, 0, 97, 100
2, 109440, Note_off_c, 0, 97, 80
2, 109440, Note_off_c, 0, 100, 80
2, 109440, Note_off_c, 0, 92, 80
2, 109440, Note_on_c, 0, 92, 127
2, 109440, Note_on_c, 0, 99, 127
2, 109920, Note_off_c, 0, 99, 80
2, 109920, Note_off_c, 0, 92, 80
2, 111360, Note_on_c, 0, 97, 127
2, 111360, Note_on_c, 0, 95, 100
2, 111360, Note_on_c, 0, 92, 100
2, 111600, Note_off_c, 0, 92, 80
2, 111600, Note_off_c, 0, 95, 80
2, 111600, Note_off_c, 0, 97, 80
2, 111600, Note_on_c, 0, 92, 100
2, 111600, Note_on_c, 0, 97, 100
2, 111840, Note_off_c, 0, 97, 80
2, 111840, Note_off_c, 0, 92, 80
2, 111840, Note_on_c, 0, 92, 100
2, 111840, Note_on_c, 0, 95, 100
2, 111840, Note_on_c, 0, 97, 127
2, 112080, Note_off_c, 0, 97, 80
2, 112080, Note_off_c, 0, 95, 80
2, 112080, Note_off_c, 0, 92, 80
2, 112080, Note_on_c, 0, 92, 100
2, 112080, Note_on_c, 0, 97, 100
2, 112320, Note_off_c, 0, 97, 80
2, 112320, Note_off_c, 0, 92, 80
2, 112320, Note_on_c, 0, 92, 100
2, 112320, Note_on_c, 0, 95, 100
2, 112320, Note_on_c, 0, 97, 127
2, 112560, Note_off_c, 0, 97, 80
2, 112560, Note_off_c, 0, 95, 80
2, 112560, Note_off_c, 0, 92, 80
2, 112560, Note_on_c, 0, 92, 100
2, 112560, Note_on_c, 0, 97, 100
2, 112800, Note_off_c, 0, 97, 80
2, 112800, Note_off_c, 0, 92, 80
2, 112800, Note_on_c, 0, 92, 100
2, 112800, Note_on_c, 0, 95, 100
2, 112800, Note_on_c, 0, 97, 127
2, 113040, Note_off_c, 0, 97, 80
2, 113040, Note_off_c, 0, 95, 80
2, 113040, Note_off_c, 0, 92, 80
2, 113280, Note_on_c, 0, 92, 100
2, 113280, Note_on_c, 0, 95, 127
2, 113760, Note_off_c, 0, 95, 80
2, 113760, Note_off_c, 0, 92, 80
2, 115440, Note_on_c, 0, 100, 127
2, 115440, Note_on_c, 0, 92, 100
2, 115440, Note_on_c, 0, 97, 100
2, 115680, Note_off_c, 0, 97, 80
2, 115680, Note_off_c, 0, 92, 80
2, 115680, Note_off_c, 0, 100, 80
2, 115680, Note_on_c, 0, 100, 127
2, 115680, Note_on_c, 0, 92, 100
2, 115680, Note_on_c, 0, 97, 100
2, 115920, Note_off_c, 0, 97, 80
2, 115920, Note_off_c, 0, 92, 80
2, 115920, Note_off_c, 0, 100, 80
2, 115920, Note_on_c, 0, 100, 127
2, 115920, Note_on_c, 0, 97, 100
2, 115920, Note_on_c, 0, 92, 100
2, 116160, Note_off_c, 0, 92, 80
2, 116160, Note_off_c, 0, 97, 80
2, 116160, Note_off_c, 0, 100, 80
2, 116160, Note_on_c, 0, 100, 127
2, 116160, Note_on_c, 0, 97, 127
2, 116160, Note_on_c, 0, 92, 127
2, 116280, Note_off_c, 0, 92, 80
2, 116280, Note_off_c, 0, 97, 80
2, 116280, Note_off_c, 0, 100, 80
2, 116640, Note_on_c, 0, 92, 100
2, 116640, Note_on_c, 0, 100, 127
2, 116640, Note_on_c, 0, 97, 100
2, 117120, Note_off_c, 0, 97, 80
2, 117120, Note_off_c, 0, 100, 80
2, 117120, Note_off_c, 0, 92, 80
2, 117120, Note_on_c, 0, 92, 127
2, 117120, Note_on_c, 0, 99, 127
2, 117600, Note_off_c, 0, 99, 80
2, 117600, Note_off_c, 0, 92, 80
2, 119040, Note_on_c, 0, 97, 127
2, 119040, Note_on_c, 0, 95, 100
2, 119040, Note_on_c, 0, 92, 100
2, 119280, Note_off_c, 0, 92, 80
2, 119280, Note_off_c, 0, 95, 80
2, 119280, Note_off_c, 0, 97, 80
2, 119280, Note_on_c, 0, 92, 100
2, 119280, Note_on_c, 0, 97, 100
2, 119520, Note_off_c, 0, 97, 80
2, 119520, Note_off_c, 0, 92, 80
2, 119520, Note_on_c, 0, 92, 100
2, 119520, Note_on_c, 0, 95, 100
2, 119520, Note_on_c, 0, 97, 127
2, 119760, Note_off_c, 0, 97, 80
2, 119760, Note_off_c, 0, 95, 80
2, 119760, Note_off_c, 0, 92, 80
2, 119760, Note_on_c, 0, 92, 100
2, 119760, Note_on_c, 0, 97, 100
2, 120000, Note_off_c, 0, 97, 80
2, 120000, Note_off_c, 0, 92, 80
2, 120000, Note_on_c, 0, 92, 100
2, 120000, Note_on_c, 0, 95, 100
2, 120000, Note_on_c, 0, 97, 127
2, 120240, Note_off_c, 0, 97, 80
2, 120240, Note_off_c, 0, 95, 80
2, 120240, Note_off_c, 0, 92, 80
2, 120240, Note_on_c, 0, 92, 100
2, 120240, Note_on_c, 0, 97, 100
2, 120480, Note_off_c, 0, 97, 80
2, 120480, Note_off_c, 0, 92, 80
2, 120480, Note_on_c, 0, 92, 100
2, 120480, Note_on_c, 0, 95, 100
2, 120480, Note_on_c, 0, 97, 127
2, 120720, Note_off_c, 0, 97, 80
2, 120720, Note_off_c, 0, 95, 80
2, 120720, Note_off_c, 0, 92, 80
2, 120960, Note_on_c, 0, 92, 100
2, 120960, Note_on_c, 0, 95, 127
2, 121440, Note_off_c, 0, 95, 80
2, 121440, Note_off_c, 0, 92, 80
2, 123120, Note_on_c, 0, 100, 127
2, 123120, Note_on_c, 0, 92, 100
2, 123120, Note_on_c, 0, 97, 100
2, 123360, Note_off_c, 0, 97, 80
2, 123360, Note_off_c, 0, 92, 80
2, 123360, Note_off_c, 0, 100, 80
2, 123360, Note_on_c, 0, 100, 127
2, 123360, Note_on_c, 0, 92, 100
2, 123360, Note_on_c, 0, 97, 100
2, 123600, Note_off_c, 0, 97, 80
2, 123600, Note_off_c, 0, 92, 80
2, 123600, Note_off_c, 0, 100, 80
2, 123600, Note_on_c, 0, 100, 127
2, 123600, Note_on_c, 0, 97, 100
2, 123600, Note_on_c, 0, 92, 100
2, 123840, Note_off_c, 0, 92, 80
2, 123840, Note_off_c, 0, 97, 80
2, 123840, Note_off_c, 0, 100, 80
2, 123840, Note_on_c, 0, 100, 127
2, 123840, Note_on_c, 0, 97, 127
2, 123840, Note_on_c, 0, 92, 127
2, 123960, Note_off_c, 0, 92, 80
2, 123960, Note_off_c, 0, 97, 80
2, 123960, Note_off_c, 0, 100, 80
2, 124320, Note_on_c, 0, 92, 100
2, 124320, Note_on_c, 0, 100, 127
2, 124320, Note_on_c, 0, 97, 100
2, 124800, Note_off_c, 0, 97, 80
2, 124800, Note_off_c, 0, 100, 80
2, 124800, Note_off_c, 0, 92, 80
2, 124800, Note_on_c, 0, 92, 127
2, 124800, Note_on_c, 0, 99, 127
2, 125280, Note_off_c, 0, 99, 80
2, 125280, Note_off_c, 0, 92, 80
2, 126720, Note_on_c, 0, 97, 127
2, 126720, Note_on_c, 0, 95, 100
2, 126720, Note_on_c, 0, 92, 100
2, 126960, Note_off_c, 0, 92, 80
2, 126960, Note_off_c, 0, 95, 80
2, 126960, Note_off_c, 0, 97, 80
2, 126960, Note_on_c, 0, 92, 100
2, 126960, Note_on_c, 0, 97, 100
2, 127200, Note_off_c, 0, 97, 80
2, 127200, Note_off_c, 0, 92, 80
2, 127200, Note_on_c, 0, 92, 100
2, 127200, Note_on_c, 0, 95, 100
2, 127200, Note_on_c, 0, 97, 127
2, 127440, Note_off_c, 0, 97, 80
2, 127440, Note_off_c, 0, 95, 80
2, 127440, Note_off_c, 0, 92, 80
2, 127440, Note_on_c, 0, 92, 100
2, 127440, Note_on_c, 0, 97, 100
2, 127680, Note_off_c, 0, 97, 80
2, 127680, Note_off_c, 0, 92, 80
2, 127680, Note_on_c, 0, 92, 100
2, 127680, Note_on_c, 0, 95, 100
2, 127680, Note_on_c, 0, 97, 127
2, 127920, Note_off_c, 0, 97, 80
2, 127920, Note_off_c, 0, 95, 80
2, 127920, Note_off_c, 0, 92, 80
2, 127920, Note_on_c, 0, 92, 100
2, 127920, Note_on_c, 0, 97, 100
2, 128160, Note_off_c, 0, 97, 80
2, 128160, Note_off_c, 0, 92, 80
2, 128160, Note_on_c, 0, 92, 100
2, 128160, Note_on_c, 0, 95, 100
2, 128160, Note_on_c, 0, 97, 127
2, 128400, Note_off_c, 0, 97, 80
2, 128400, Note_off_c, 0, 95, 80
2, 128400, Note_off_c, 0, 92, 80
2, 128640, Note_on_c, 0, 92, 100
2, 128640, Note_on_c, 0, 95, 127
2, 129120, Note_off_c, 0, 95, 80
2, 129120, Note_off_c, 0, 92, 80
2, 130800, Note_on_c, 0, 100, 127
2, 130800, Note_on_c, 0, 92, 100
2, 130800, Note_on_c, 0, 97, 100
2, 131040, Note_off_c, 0, 97, 80
2, 131040, Note_off_c, 0, 92, 80
2, 131040, Note_off_c, 0, 100, 80
2, 131040, Note_on_c, 0, 100, 127
2, 131040, Note_on_c, 0, 92, 100
2, 131040, Note_on_c, 0, 97, 100
2, 131280, Note_off_c, 0, 97, 80
2, 131280, Note_off_c, 0, 92, 80
2, 131280, Note_off_c, 0, 100, 80
2, 131280, Note_on_c, 0, 100, 127
2, 131280, Note_on_c, 0, 97, 100
2, 131280, Note_on_c, 0, 92, 100
2, 131520, Note_off_c, 0, 92, 80
2, 131520, Note_off_c, 0, 97, 80
2, 131520, Note_off_c, 0, 100, 80
2, 131520, Note_on_c, 0, 100, 127
2, 131520, Note_on_c, 0, 97, 127
2, 131520, Note_on_c, 0, 92, 127
2, 131640, Note_off_c, 0, 92, 80
2, 131640, Note_off_c, 0, 97, 80
2, 131640, Note_off_c, 0, 100, 80
2, 132000, Note_on_c, 0, 92, 100
2, 132000, Note_on_c, 0, 100, 127
2, 132000, Note_on_c, 0, 97, 100
2, 132480, Note_off_c, 0, 97, 80
2, 132480, Note_off_c, 0, 100, 80
2, 132480, Note_off_c, 0, 92, 80
2, 132480, Note_on_c, 0, 92, 127
2, 132480, Note_on_c, 0, 99, 127
2, 132960, Note_off_c, 0, 99, 80
2, 132960, Note_off_c, 0, 92, 80
2, 134400, Note_on_c, 0, 97, 127
2, 134400, Note_on_c, 0, 95, 100
2, 134400, Note_on_c, 0, 92, 100
2, 134640, Note_off_c, 0, 92, 80
2, 134640, Note_off_c, 0, 95, 80
2, 134640, Note_off_c, 0, 97, 80
2, 134640, Note_on_c, 0, 92, 100
2, 134640, Note_on_c, 0, 97, 100
2, 134880, Note_off_c, 0, 97, 80
2, 134880, Note_off_c, 0, 92, 80
2, 134880, Note_on_c, 0, 92, 100
2, 134880, Note_on_c, 0, 95, 100
2, 134880, Note_on_c, 0, 97, 127
2, 135120, Note_off_c, 0, 97, 80
2, 135120, Note_off_c, 0, 95, 80
2, 135120, Note_off_c, 0, 92, 80
2, 135120, Note_on_c, 0, 92, 100
2, 135120, Note_on_c, 0, 97, 100
2, 135360, Note_off_c, 0, 97, 80
2, 135360, Note_off_c, 0, 92, 80
2, 135360, Note_on_c, 0, 92, 100
2, 135360, Note_on_c, 0, 95, 100
2, 135360, Note_on_c, 0, 97, 127
2, 135600, Note_off_c, 0, 97, 80
2, 135600, Note_off_c, 0, 95, 80
2, 135600, Note_off_c, 0, 92, 80
2, 135600, Note_on_c, 0, 92, 100
2, 135600, Note_on_c, 0, 97, 100
2, 135840, Note_off_c, 0, 97, 80
2, 135840, Note_off_c, 0, 92, 80
2, 135840, Note_on_c, 0, 92, 100
2, 135840, Note_on_c, 0, 95, 100
2, 135840, Note_on_c, 0, 97, 127
2, 136080, Note_off_c, 0, 97, 80
2, 136080, Note_off_c, 0, 95, 80
2, 136080, Note_off_c, 0, 92, 80
2, 136320, Note_on_c, 0, 92, 100
2, 136320, Note_on_c, 0, 95, 127
2, 136800, Note_off_c, 0, 95, 80
2, 136800, Note_off_c, 0, 92, 80
2, 138480, Note_on_c, 0, 100, 127
2, 138480, Note_on_c, 0, 92, 100
2, 138480, Note_on_c, 0, 97, 100
2, 138720, Note_off_c, 0, 97, 80
2, 138720, Note_off_c, 0, 92, 80
2, 138720, Note_off_c, 0, 100, 80
2, 138720, Note_on_c, 0, 100, 127
2, 138720, Note_on_c, 0, 92, 100
2, 138720, Note_on_c, 0, 97, 100
2, 138960, Note_off_c, 0, 97, 80
2, 138960, Note_off_c, 0, 92, 80
2, 138960, Note_off_c, 0, 100, 80
2, 138960, Note_on_c, 0, 100, 127
2, 138960, Note_on_c, 0, 97, 100
2, 138960, Note_on_c, 0, 92, 100
2, 139200, Note_off_c, 0, 92, 80
2, 139200, Note_off_c, 0, 97, 80
2, 139200, Note_off_c, 0, 100, 80
2, 139200, Note_on_c, 0, 100, 127
2, 139200, Note_on_c, 0, 97, 127
2, 139200, Note_on_c, 0, 92, 127
2, 139320, Note_off_c, 0, 92, 80
2, 139320, Note_off_c, 0, 97, 80
2, 139320, Note_off_c, 0, 100, 80
2, 139680, Note_on_c, 0, 92, 100
2, 139680, Note_on_c, 0, 100, 127
2, 139680, Note_on_c, 0, 97, 100
2, 140160, Note_off_c, 0, 97, 80
2, 140160, Note_off_c, 0, 100, 80
2, 140160, Note_off_c, 0, 92, 80
2, 140160, Note_on_c, 0, 92, 127
2, 140160, Note_on_c, 0, 99, 127
2, 140640, Note_off_c, 0, 99, 80
2, 140640, Note_off_c, 0, 92, 80
2, 142080, Note_on_c, 0, 97, 127
2, 142080, Note_on_c, 0, 95, 100
2, 142080, Note_on_c, 0, 92, 100
2, 142320, Note_off_c, 0, 92, 80
2, 142320, Note_off_c, 0, 95, 80
2, 142320, Note_off_c, 0, 97, 80
2, 142320, Note_on_c, 0, 92, 100
2, 142320, Note_on_c, 0, 97, 100
2, 142560, Note_off_c, 0, 97, 80
2, 142560, Note_off_c, 0, 92, 80
2, 142560, Note_on_c, 0, 92, 100
2, 142560, Note_on_c, 0, 95, 100
2, 142560, Note_on_c, 0, 97, 127
2, 142800, Note_off_c, 0, 97, 80
2, 142800, Note_off_c, 0, 95, 80
2, 142800, Note_off_c, 0, 92, 80
2, 142800, Note_on_c, 0, 92, 100
2, 142800, Note_on_c, 0, 97, 100
2, 143040, Note_off_c, 0, 97, 80
2, 143040, Note_off_c, 0, 92, 80
2, 143040, Note_on_c, 0, 92, 100
2, 143040, Note_on_c, 0, 95, 100
2, 143040, Note_on_c, 0, 97, 127
2, 143280, Note_off_c, 0, 97, 80
2, 143280, Note_off_c, 0, 95, 80
2, 143280, Note_off_c, 0, 92, 80
2, 143280, Note_on_c, 0, 92, 100
2, 143280, Note_on_c, 0, 97, 100
2, 143520, Note_off_c, 0, 97, 80
2, 143520, Note_off_c, 0, 92, 80
2, 143520, Note_on_c, 0, 92, 100
2, 143520, Note_on_c, 0, 95, 100
2, 143520, Note_on_c, 0, 97, 127
2, 143760, Note_off_c, 0, 97, 80
2, 143760, Note_off_c, 0, 95, 80
2, 143760, Note_off_c, 0, 92, 80
2, 144000, Note_on_c, 0, 92, 100
2, 144000, Note_on_c, 0, 95, 127
2, 144480, Note_off_c, 0, 95, 80
2, 144480, Note_off_c, 0, 92, 80
2, 146160, Note_on_c, 0, 100, 127
2, 146160, Note_on_c, 0, 92, 100
2, 146160, Note_on_c, 0, 97, 100
2, 146400, Note_off_c, 0, 97, 80
2, 146400, Note_off_c, 0, 92, 80
2, 146400, Note_off_c, 0, 100, 80
2, 146400, Note_on_c, 0, 100, 127
2, 146400, Note_on_c, 0, 92, 100
2, 146400, Note_on_c, 0, 97, 100
2, 146640, Note_off_c, 0, 97, 80
2, 146640, Note_off_c, 0, 92, 80
2, 146640, Note_off_c, 0, 100, 80
2, 146640, Note_on_c, 0, 100, 127
2, 146640, Note_on_c, 0, 97, 100
2, 146640, Note_on_c, 0, 92, 100
2, 146880, Note_off_c, 0, 92, 80
2, 146880, Note_off_c, 0, 97, 80
2, 146880, Note_off_c, 0, 100, 80
2, 146880, Note_on_c, 0, 100, 127
2, 146880, Note_on_c, 0, 97, 127
2, 146880, Note_on_c, 0, 92, 127
2, 147000, Note_off_c, 0, 92, 80
2, 147000, Note_off_c, 0, 97, 80
2, 147000, Note_off_c, 0, 100, 80
2, 147360, Note_on_c, 0, 92, 100
2, 147360, Note_on_c, 0, 100, 127
2, 147360, Note_on_c, 0, 97, 100
2, 147840, Note_off_c, 0, 97, 80
2, 147840, Note_off_c, 0, 100, 80
2, 147840, Note_off_c, 0, 92, 80
2, 147840, Note_on_c, 0, 92, 127
2, 147840, Note_on_c, 0, 99, 127
2, 148320, Note_off_c, 0, 99, 80
2, 148320, Note_off_c, 0, 92, 80
2, 149760, Note_on_c, 0, 97, 127
2, 149760, Note_on_c, 0, 95, 100
2, 149760, Note_on_c, 0, 92, 100
2, 150000, Note_off_c, 0, 92, 80
2, 150000, Note_off_c, 0, 95, 80
2, 150000, Note_off_c, 0, 97, 80
2, 150000, Note_on_c, 0, 92, 100
2, 150000, Note_on_c, 0, 97, 100
2, 150240, Note_off_c, 0, 97, 80
2, 150240, Note_off_c, 0, 92, 80
2, 150240, Note_on_c, 0, 92, 100
2, 150240, Note_on_c, 0, 95, 100
2, 150240, Note_on_c, 0, 97, 127
2, 150480, Note_off_c, 0, 97, 80
2, 150480, Note_off_c, 0, 95, 80
2, 150480, Note_off_c, 0, 92, 80
2, 150480, Note_on_c, 0, 92, 100
2, 150480, Note_on_c, 0, 97, 100
2, 150720, Note_off_c, 0, 97, 80
2, 150720, Note_off_c, 0, 92, 80
2, 150720, Note_on_c, 0, 92, 100
2, 150720, Note_on_c, 0, 95, 100
2, 150720, Note_on_c, 0, 97, 127
2, 150960, Note_off_c, 0, 97, 80
2, 150960, Note_off_c, 0, 95, 80
2, 150960, Note_off_c, 0, 92, 80
2, 150960, Note_on_c, 0, 92, 100
2, 150960, Note_on_c, 0, 97, 100
2, 151200, Note_off_c, 0, 97, 80
2, 151200, Note_off_c, 0, 92, 80
2, 151200, Note_on_c, 0, 92, 100
2, 151200, Note_on_c, 0, 95, 100
2, 151200, Note_on_c, 0, 97, 127
2, 151440, Note_off_c, 0, 97, 80
2, 151440, Note_off_c, 0, 95, 80
2, 151440, Note_off_c, 0, 92, 80
2, 151680, Note_on_c, 0, 92, 100
2, 151680, Note_on_c, 0, 95, 127
2, 152160, Note_off_c, 0, 95, 80
2, 152160, Note_off_c, 0, 92, 80
2, 153840, Note_on_c, 0, 100, 127
2, 153840, Note_on_c, 0, 92, 100
2, 153840, Note_on_c, 0, 97, 100
2, 154080, Note_off_c, 0, 97, 80
2, 154080, Note_off_c, 0, 92, 80
2, 154080, Note_off_c, 0, 100, 80
2, 154080, Note_on_c, 0, 100, 127
2, 154080, Note_on_c, 0, 92, 100
2, 154080, Note_on_c, 0, 97, 100
2, 154320, Note_off_c, 0, 97, 80
2, 154320, Note_off_c, 0, 92, 80
2, 154320, Note_off_c, 0, 100, 80
2, 154320, Note_on_c, 0, 100, 127
2, 154320, Note_on_c, 0, 97, 100
2, 154320, Note_on_c, 0, 92, 100
2, 154560, Note_off_c, 0, 92, 80
2, 154560, Note_off_c, 0, 97, 80
2, 154560, Note_off_c, 0, 100, 80
2, 154560, Note_on_c, 0, 100, 127
2, 154560, Note_on_c, 0, 97, 127
2, 154560, Note_on_c, 0, 92, 127
2, 154680, Note_off_c, 0, 92, 80
2, 154680, Note_off_c, 0, 97, 80
2, 154680, Note_off_c, 0, 100, 80
2, 155040, Note_on_c, 0, 92, 100
2, 155040, Note_on_c, 0, 100, 127
2, 155040, Note_on_c, 0, 97, 100
2, 155520, Note_off_c, 0, 97, 80
2, 155520, Note_off_c, 0, 100, 80
2, 155520, Note_off_c, 0, 92, 80
2, 155520, Note_on_c, 0, 92, 127
2, 155520, Note_on_c, 0, 99, 127
2, 156000, Note_off_c, 0, 99, 80
2, 156000, Note_off_c, 0, 92, 80
2, 157440, Note_on_c, 0, 97, 127
2, 157440, Note_on_c, 0, 95, 100
2, 157440, Note_on_c, 0, 92, 100
2, 157680, Note_off_c, 0, 92, 80
2, 157680, Note_off_c, 0, 95, 80
2, 157680, Note_off_c, 0, 97, 80
2, 157680, Note_on_c, 0, 92, 100
2, 157680, Note_on_c, 0, 97, 100
2, 157920, Note_off_c, 0, 97, 80
2, 157920, Note_off_c, 0, 92, 80
2, 157920, Note_on_c, 0, 92, 100
2, 157920, Note_on_c, 0, 95, 100
2, 157920, Note_on_c, 0, 97, 127
2, 158160, Note_off_c, 0, 97, 80
2, 158160, Note_off_c, 0, 95, 80
2, 158160, Note_off_c, 0, 92, 80
2, 158160, Note_on_c, 0, 92, 100
2, 158160, Note_on_c, 0, 97, 100
2, 158400, Note_off_c, 0, 97, 80
2, 158400, Note_off_c, 0, 92, 80
2, 158400, Note_on_c, 0, 92, 100
2, 158400, Note_on_c, 0, 95, 100
2, 158400, Note_on_c, 0, 97, 127
2, 158640, Note_off_c, 0, 97, 80
2, 158640, Note_off_c, 0, 95, 80
2, 158640, Note_off_c, 0, 92, 80
2, 158640, Note_on_c, 0, 92, 100
2, 158640, Note_on_c, 0, 97, 100
2, 158880, Note_off_c, 0, 97, 80
2, 158880, Note_off_c, 0, 92, 80
2, 158880, Note_on_c, 0, 92, 100
2, 158880, Note_on_c, 0, 95, 100
2, 158880, Note_on_c, 0, 97, 127
2, 159120, Note_off_c, 0, 97, 80
2, 159120, Note_off_c, 0, 95, 80
2, 159120, Note_off_c, 0, 92, 80
2, 159360, Note_on_c, 0, 92, 100
2, 159360, Note_on_c, 0, 95, 127
2, 159840, Note_off_c, 0, 95, 80
2, 159840, Note_off_c, 0, 92, 80
2, 161520, Note_on_c, 0, 100, 127
2, 161520, Note_on_c, 0, 92, 100
2, 161520, Note_on_c, 0, 97, 100
2, 161760, Note_off_c, 0, 97, 80
2, 161760, Note_off_c, 0, 92, 80
2, 161760, Note_off_c, 0, 100, 80
2, 161760, Note_on_c, 0, 100, 127
2, 161760, Note_on_c, 0, 92, 100
2, 161760, Note_on_c, 0, 97, 100
2, 162000, Note_off_c, 0, 97, 80
2, 162000, Note_off_c, 0, 92, 80
2, 162000, Note_off_c, 0, 100, 80
2, 162000, Note_on_c, 0, 100, 127
2, 162000, Note_on_c, 0, 97, 100
2, 162000, Note_on_c, 0, 92, 100
2, 162240, Note_off_c, 0, 92, 80
2, 162240, Note_off_c, 0, 97, 80
2, 162240, Note_off_c, 0, 100, 80
2, 162240, Note_on_c, 0, 100, 127
2, 162240, Note_on_c, 0, 97, 127
2, 162240, Note_on_c, 0, 92, 127
2, 162360, Note_off_c, 0, 92, 80
2, 162360, Note_off_c, 0, 97, 80
2, 162360, Note_off_c, 0, 100, 80
2, 162720, Note_on_c, 0, 92, 100
2, 162720, Note_on_c, 0, 100, 127
2, 162720, Note_on_c, 0, 97, 100
2, 163200, Note_off_c, 0, 97, 80
2, 163200, Note_off_c, 0, 100, 80
2, 163200, Note_off_c, 0, 92, 80
2, 163200, Note_on_c, 0, 92, 127
2, 163200, Note_on_c, 0, 99, 127
2, 163680, Note_off_c, 0, 99, 80
2, 163680, Note_off_c, 0, 92, 80
2, 165120, Note_on_c, 0, 97, 127
2, 165120, Note_on_c, 0, 95, 100
2, 165120, Note_on_c, 0, 92, 100
2, 165360, Note_off_c, 0, 92, 80
2, 165360, Note_off_c, 0, 95, 80
2, 165360, Note_off_c, 0, 97, 80
2, 165360, Note_on_c, 0, 92, 100
2, 165360, Note_on_c, 0, 97, 100
2, 165600, Note_off_c, 0, 97, 80
2, 165600, Note_off_c, 0, 92, 80
2, 165600, Note_on_c, 0, 92, 100
2, 165600, Note_on_c, 0, 95, 100
2, 165600, Note_on_c, 0, 97, 127
2, 165840, Note_off_c, 0, 97, 80
2, 165840, Note_off_c, 0, 95, 80
2, 165840, Note_off_c, 0, 92, 80
2, 165840, Note_on_c, 0, 92, 100
2, 165840, Note_on_c, 0, 97, 100
2, 166080, Note_off_c, 0, 97, 80
2, 166080, Note_off_c, 0, 92, 80
2, 166080, Note_on_c, 0, 92, 100
2, 166080, Note_on_c, 0, 95, 100
2, 166080, Note_on_c, 0, 97, 127
2, 166320, Note_off_c, 0, 97, 80
2, 166320, Note_off_c, 0, 95, 80
2, 166320, Note_off_c, 0, 92, 80
2, 166320, Note_on_c, 0, 92, 100
2, 166320, Note_on_c, 0, 97, 100
2, 166560, Note_off_c, 0, 97, 80
2, 166560, Note_off_c, 0, 92, 80
2, 166560, Note_on_c, 0, 92, 100
2, 166560, Note_on_c, 0, 95, 100
2, 166560, Note_on_c, 0, 97, 127
2, 166800, Note_off_c, 0, 97, 80
2, 166800, Note_off_c, 0, 95, 80
2, 166800, Note_off_c, 0, 92, 80
2, 167040, Note_on_c, 0, 92, 100
2, 167040, Note_on_c, 0, 95, 127
2, 167520, Note_off_c, 0, 95, 80
2, 167520, Note_off_c, 0, 92, 80
2, 169200, Note_on_c, 0, 100, 127
2, 169200, Note_on_c, 0, 92, 100
2, 169200, Note_on_c, 0, 97, 100
2, 169440, Note_off_c, 0, 97, 80
2, 169440, Note_off_c, 0, 92, 80
2, 169440, Note_off_c, 0, 100, 80
2, 169440, Note_on_c, 0, 100, 127
2, 169440, Note_on_c, 0, 92, 100
2, 169440, Note_on_c, 0, 97, 100
2, 169680, Note_off_c, 0, 97, 80
2, 169680, Note_off_c, 0, 92, 80
2, 169680, Note_off_c, 0, 100, 80
2, 169680, Note_on_c, 0, 100, 127
2, 169680, Note_on_c, 0, 97, 100
2, 169680, Note_on_c, 0, 92, 100
2, 169920, Note_off_c, 0, 92, 80
2, 169920, Note_off_c, 0, 97, 80
2, 169920, Note_off_c, 0, 100, 80
2, 169920, Note_on_c, 0, 100, 127
2, 169920, Note_on_c, 0, 97, 127
2, 169920, Note_on_c, 0, 92, 127
2, 170040, Note_off_c, 0, 92, 80
2, 170040, Note_off_c, 0, 97, 80
2, 170040, Note_off_c, 0, 100, 80
2, 170400, Note_on_c, 0, 92, 100
2, 170400, Note_on_c, 0, 100, 127
2, 170400, Note_on_c, 0, 97, 100
2, 170880, Note_off_c, 0, 97, 80
2, 170880, Note_off_c, 0, 100, 80
2, 170880, Note_off_c, 0, 92, 80
2, 170880, Note_on_c, 0, 92, 127
2, 170880, Note_on_c, 0, 99, 127
2, 171360, Note_off_c, 0, 99, 80
2, 171360, Note_off_c, 0, 92, 80
2, 172800, Note_on_c, 0, 97, 127
2, 172800, Note_on_c, 0, 95, 100
2, 172800, Note_on_c, 0, 92, 100
2, 173040, Note_off_c, 0, 92, 80
2, 173040, Note_off_c, 0, 95, 80
2, 173040, Note_off_c, 0, 97, 80
2, 173040, Note_on_c, 0, 92, 100
2, 173040, Note_on_c, 0, 97, 100
2, 173280, Note_off_c, 0, 97, 80
2, 173280, Note_off_c, 0, 92, 80
2, 173280, Note_on_c, 0, 92, 100
2, 173280, Note_on_c, 0, 95, 100
2, 173280, Note_on_c, 0, 97, 127
2, 173520, Note_off_c, 0, 97, 80
2, 173520, Note_off_c, 0, 95, 80
2, 173520, Note_off_c, 0, 92, 80
2, 173520, Note_on_c, 0, 92, 100
2, 173520, Note_on_c, 0, 97, 100
2, 173760, Note_off_c, 0, 97, 80
2, 173760, Note_off_c, 0, 92, 80
2, 173760, Note_on_c, 0, 92, 100
2, 173760, Note_on_c, 0, 95, 100
2, 173760, Note_on_c, 0, 97, 127
2, 174000, Note_off_c, 0, 97, 80
2, 174000, Note_off_c, 0, 95, 80
2, 174000, Note_off_c, 0, 92, 80
2, 174000, Note_on_c, 0, 92, 100
2, 174000, Note_on_c, 0, 97, 100
2, 174240, Note_off_c, 0, 97, 80
2, 174240, Note_off_c, 0, 92, 80
2, 174240, Note_on_c, 0, 92, 100
2, 174240, Note_on_c, 0, 95, 100
2, 174240, Note_on_c, 0, 97, 127
2, 174480, Note_off_c, 0, 97, 80
2, 174480, Note_off_c, 0, 95, 80
2, 174480, Note_off_c, 0, 92, 80
2, 174720, Note_on_c, 0, 92, 100
2, 174720, Note_on_c, 0, 95, 127
2, 175200, Note_off_c, 0, 95, 80
2, 175200, Note_off_c, 0, 92, 80
2, 176880, Note_on_c, 0, 100, 127
2, 176880, Note_on_c, 0, 92, 100
2, 176880, Note_on_c, 0, 97, 100
2, 177120, Note_off_c, 0, 97, 80
2, 177120, Note_off_c, 0, 92, 80
2, 177120, Note_off_c, 0, 100, 80
2, 177120, Note_on_c, 0, 100, 127
2, 177120, Note_on_c, 0, 92, 100
2, 177120, Note_on_c, 0, 97, 100
2, 177360, Note_off_c, 0, 97, 80
2, 177360, Note_off_c, 0, 92, 80
2, 177360, Note_off_c, 0, 100, 80
2, 177360, Note_on_c, 0, 100, 127
2, 177360, Note_on_c, 0, 97, 100
2, 177360, Note_on_c, 0, 92, 100
2, 177600, Note_off_c, 0, 92, 80
2, 177600, Note_off_c, 0, 97, 80
2, 177600, Note_off_c, 0, 100, 80
2, 177600, Note_on_c, 0, 100, 127
2, 177600, Note_on_c, 0, 97, 127
2, 177600, Note_on_c, 0, 92, 127
2, 177720, Note_off_c, 0, 92, 80
2, 177720, Note_off_c, 0, 97, 80
2, 177720, Note_off_c, 0, 100, 80
2, 178080, Note_on_c, 0, 92, 100
2, 178080, Note_on_c, 0, 100, 127
2, 178080, Note_on_c, 0, 97, 100
2, 178560, Note_off_c, 0, 97, 80
2, 178560, Note_off_c, 0, 100, 80
2, 178560, Note_off_c, 0, 92, 80
2, 178560, Note_on_c, 0, 92, 127
2, 178560, Note_on_c, 0, 99, 127
2, 179040, Note_off_c, 0, 99, 80
2, 179040, Note_off_c, 0, 92, 80
2, 180480, Note_on_c, 0, 97, 127
2, 180480, Note_on_c, 0, 95, 100
2, 180480, Note_on_c, 0, 92, 100
2, 180720, Note_off_c, 0, 92, 80
2, 180720, Note_off_c, 0, 95, 80
2, 180720, Note_off_c, 0, 97, 80
2, 180720, Note_on_c, 0, 92, 100
2, 180720, Note_on_c, 0, 97, 100
2, 180960, Note_off_c, 0, 97, 80
2, 180960, Note_off_c, 0, 92, 80
2, 180960, Note_on_c, 0, 92, 100
2, 180960, Note_on_c, 0, 95, 100
2, 180960, Note_on_c, 0, 97, 127
2, 181200, Note_off_c, 0, 97, 80
2, 181200, Note_off_c, 0, 95, 80
2, 181200, Note_off_c, 0, 92, 80
2, 181200, Note_on_c, 0, 92, 100
2, 181200, Note_on_c, 0, 97, 100
2, 181440, Note_off_c, 0, 97, 80
2, 181440, Note_off_c, 0, 92, 80
2, 181440, Note_on_c, 0, 92, 100
2, 181440, Note_on_c, 0, 95, 100
2, 181440, Note_on_c, 0, 97, 127
2, 181680, Note_off_c, 0, 97, 80
2, 181680, Note_off_c, 0, 95, 80
2, 181680, Note_off_c, 0, 92, 80
2, 181680, Note_on_c, 0, 92, 100
2, 181680, Note_on_c, 0, 97, 100
2, 181920, Note_off_c, 0, 97, 80
2, 181920, Note_off_c, 0, 92, 80
2, 181920, Note_on_c, 0, 92, 100
2, 181920, Note_on_c, 0, 95, 100
2, 181920, Note_on_c, 0, 97, 127
2, 182160, Note_off_c, 0, 97, 80
2, 182160, Note_off_c, 0, 95, 80
2, 182160, Note_off_c, 0, 92, 80
2, 182400, Note_on_c, 0, 92, 100
2, 182400, Note_on_c, 0, 95, 127
2, 182880, Note_off_c, 0, 95, 80
2, 182880, Note_off_c, 0, 92, 80
2, 184560, Note_on_c, 0, 100, 127
2, 184560, Note_on_c, 0, 92, 100
2, 184560, Note_on_c, 0, 97, 100
2, 184800, Note_off_c, 0, 97, 80
2, 184800, Note_off_c, 0, 92, 80
2, 184800, Note_off_c, 0, 100, 80
2, 184800, Note_on_c, 0, 100, 127
2, 184800, Note_on_c, 0, 92, 100
2, 184800, Note_on_c, 0, 97, 100
2, 185040, Note_off_c, 0, 97, 80
2, 185040, Note_off_c, 0, 92, 80
2, 185040, Note_off_c, 0, 100, 80
2, 185040, Note_on_c, 0, 100, 127
2, 185040, Note_on_c, 0, 97, 100
2, 185040, Note_on_c, 0, 92, 100
2, 185280, Note_off_c, 0, 92, 80
2, 185280, Note_off_c, 0, 97, 80
2, 185280, Note_off_c, 0, 100, 80
2, 185280, Note_on_c, 0, 100, 127
2, 185280, Note_on_c, 0, 97, 127
2, 185280, Note_on_c, 0, 92, 127
2, 185400, Note_off_c, 0, 92, 80
2, 185400, Note_off_c, 0, 97, 80
2, 185400, Note_off_c, 0, 100, 80
2, 185760, Note_on_c, 0, 92, 100
2, 185760, Note_on_c, 0, 100, 127
2, 185760, Note_on_c, 0, 97, 100
2, 186240, Note_off_c, 0, 97, 80
2, 186240, Note_off_c, 0, 100, 80
2, 186240, Note_off_c, 0, 92, 80
2, 186240, Note_on_c, 0, 92, 127
2, 186240, Note_on_c, 0, 99, 127
2, 186720, Note_off_c, 0, 99, 80
2, 186720, Note_off_c, 0, 92, 80
2, 188160, Note_on_c, 0, 97, 127
2, 188160, Note_on_c, 0, 95, 100
2, 188160, Note_on_c, 0, 92, 100
2, 188400, Note_off_c, 0, 92, 80
2, 188400, Note_off_c, 0, 95, 80
2, 188400, Note_off_c, 0, 97, 80
2, 188400, Note_on_c, 0, 92, 100
2, 188400, Note_on_c, 0, 97, 100
2, 188640, Note_off_c, 0, 97, 80
2, 188640, Note_off_c, 0, 92, 80
2, 188640, Note_on_c, 0, 92, 100
2, 188640, Note_on_c, 0, 95, 100
2, 188640, Note_on_c, 0, 97, 127
2, 188880, Note_off_c, 0, 97, 80
2, 188880, Note_off_c, 0, 95, 80
2, 188880, Note_off_c, 0, 92, 80
2, 188880, Note_on_c, 0, 92, 100
2, 188880, Note_on_c, 0, 97, 100
2, 189120, Note_off_c, 0, 97, 80
2, 189120, Note_off_c, 0, 92, 80
2, 189120, Note_on_c, 0, 92, 100
2, 189120, Note_on_c, 0, 95, 100
2, 189120, Note_on_c, 0, 97, 127
2, 189360, Note_off_c, 0, 97, 80
2, 189360, Note_off_c, 0, 95, 80
2, 189360, Note_off_c, 0, 92, 80
2, 189360, Note_on_c, 0, 92, 100
2, 189360, Note_on_c, 0, 97, 100
2, 189600, Note_off_c, 0, 97, 80
2, 189600, Note_off_c, 0, 92, 80
2, 189600, Note_on_c, 0, 92, 100
2, 189600, Note_on_c, 0, 95, 100
2, 189600, Note_on_c, 0, 97, 127
2, 189840, Note_off_c, 0, 97, 80
2, 189840, Note_off_c, 0, 95, 80
2, 189840, Note_off_c, 0, 92, 80
2, 190080, Note_on_c, 0, 92, 100
2, 190080, Note_on_c, 0, 95, 127
2, 190560, Note_off_c, 0, 95, 80
2, 190560, Note_off_c, 0, 92, 80
2, 192240, Note_on_c, 0, 100, 127
2, 192240, Note_on_c, 0, 92, 100
2, 192240, Note_on_c, 0, 97, 100
2, 192480, Note_off_c, 0, 97, 80
2, 192480, Note_off_c, 0, 92, 80
2, 192480, Note_off_c, 0, 100, 80
2, 192480, Note_on_c, 0, 100, 127
2, 192480, Note_on_c, 0, 92, 100
2, 192480, Note_on_c, 0, 97, 100
2, 192720, Note_off_c, 0, 97, 80
2, 192720, Note_off_c, 0, 92, 80
2, 192720, Note_off_c, 0, 100, 80
2, 192720, Note_on_c, 0, 100, 127
2, 192720, Note_on_c, 0, 97, 100
2, 192720, Note_on_c, 0, 92, 100
2, 192960, Note_off_c, 0, 92, 80
2, 192960, Note_off_c, 0, 97, 80
2, 192960, Note_off_c, 0, 100, 80
2, 192960, Note_on_c, 0, 100, 127
2, 192960, Note_on_c, 0, 97, 127
2, 192960, Note_on_c, 0, 92, 127
2, 193080, Note_off_c, 0, 92, 80
2, 193080, Note_off_c, 0, 97, 80
2, 193080, Note_off_c, 0, 100, 80
2, 193440, Note_on_c, 0, 92, 100
2, 193440, Note_on_c, 0, 100, 127
2, 193440, Note_on_c, 0, 97, 100
2, 193920, Note_off_c, 0, 97, 80
2, 193920, Note_off_c, 0, 100, 80
2, 193920, Note_off_c, 0, 92, 80
2, 193920, Note_on_c, 0, 92, 127
2, 193920, Note_on_c, 0, 99, 127
2, 194400, Note_off_c, 0, 99, 80
2, 194400, Note_off_c, 0, 92, 80
2, 195840, Note_on_c, 0, 97, 127
2, 195840, Note_on_c, 0, 95, 100
2, 195840, Note_on_c, 0, 92, 100
2, 196080, Note_off_c, 0, 92, 80
2, 196080, Note_off_c, 0, 95, 80
2, 196080, Note_off_c, 0, 97, 80
2, 196080, Note_on_c, 0, 92, 100
2, 196080, Note_on_c, 0, 97, 100
2, 196320, Note_off_c, 0, 97, 80
2, 196320, Note_off_c, 0, 92, 80
2, 196320, Note_on_c, 0, 92, 100
2, 196320, Note_on_c, 0, 95, 100
2, 196320, Note_on_c, 0, 97, 127
2, 196560, Note_off_c, 0, 97, 80
2, 196560, Note_off_c, 0, 95, 80
2, 196560, Note_off_c, 0, 92, 80
2, 196560, Note_on_c, 0, 92, 100
2, 196560, Note_on_c, 0, 97, 100
2, 196800, Note_off_c, 0, 97, 80
2, 196800, Note_off_c, 0, 92, 80
2, 196800, Note_on_c, 0, 92, 100
2, 196800, Note_on_c, 0, 95, 100
2, 196800, Note_on_c, 0, 97, 127
2, 197040, Note_off_c, 0, 97, 80
2, 197040, Note_off_c, 0, 95, 80
2, 197040, Note_off_c, 0, 92, 80
2, 197040, Note_on_c, 0, 92, 100
2, 197040, Note_on_c, 0, 97, 100
2, 197280, Note_off_c, 0, 97, 80
2, 197280, Note_off_c, 0, 92, 80
2, 197280, Note_on_c, 0, 92, 100
2, 197280, Note_on_c, 0, 95, 100
2, 197280, Note_on_c, 0, 97, 127
2, 197520, Note_off_c, 0, 97, 80
2, 197520, Note_off_c, 0, 95, 80
2, 197520, Note_off_c, 0, 92, 80
2, 197760, Note_on_c, 0, 92, 100
2, 197760, Note_on_c, 0, 95, 127
2, 198240, Note_off_c, 0, 95, 80
2, 198240, Note_off_c, 0, 92, 80
2, 199920, Note_on_c, 0, 100, 127
2, 199920, Note_on_c, 0, 92, 100
2, 199920, Note_on_c, 0, 97, 100
2, 200160, Note_off_c, 0, 97, 80
2, 200160, Note_off_c, 0, 92, 80
2, 200160, Note_off_c, 0, 100, 80
2, 200160, Note_on_c, 0, 100, 127
2, 200160, Note_on_c, 0, 92, 100
2, 200160, Note_on_c, 0, 97, 100
2, 200400, Note_off_c, 0, 97, 80
2, 200400, Note_off_c, 0, 92, 80
2, 200400, Note_off_c, 0, 100, 80
2, 200400, Note_on_c, 0, 100, 127
2, 200400, Note_on_c, 0, 97, 100
2, 200400, Note_on_c, 0, 92, 100
2, 200640, Note_off_c, 0, 92, 80
2, 200640, Note_off_c, 0, 97, 80
2, 200640, Note_off_c, 0, 100, 80
2, 200640, Note_on_c, 0, 100, 127
2, 200640, Note_on_c, 0, 97, 127
2, 200640, Note_on_c, 0, 92, 127
2, 200760, Note_off_c, 0, 92, 80
2, 200760, Note_off_c, 0, 97, 80
2, 200760, Note_off_c, 0, 100, 80
2, 201120, Note_on_c, 0, 92, 100
2, 201120, Note_on_c, 0, 100, 127
2, 201120, Note_on_c, 0, 97, 100
2, 201600, Note_off_c, 0, 97, 80
2, 201600, Note_off_c, 0, 100, 80
2, 201600, Note_off_c, 0, 92, 80
2, 201600, Note_on_c, 0, 92, 127
2, 201600, Note_on_c, 0, 99, 127
2, 202080, Note_off_c, 0, 99, 80
2, 202080, Note_off_c, 0, 92, 80
2, 203520, Note_on_c, 0, 97, 127
2, 203520, Note_on_c, 0, 95, 100
2, 203520, Note_on_c, 0, 92, 100
2, 203760, Note_off_c, 0, 92, 80
2, 203760, Note_off_c, 0, 95, 80
2, 203760, Note_off_c, 0, 97, 80
2, 203760, Note_on_c, 0, 92, 100
2, 203760, Note_on_c, 0, 97, 100
2, 204000, Note_off_c, 0, 97, 80
2, 204000, Note_off_c, 0, 92, 80
2, 204000, Note_on_c, 0, 92, 100
2, 204000, Note_on_c, 0, 95, 100
2, 204000, Note_on_c, 0, 97, 127
2, 204240, Note_off_c, 0, 97, 80
2, 204240, Note_off_c, 0, 95, 80
2, 204240, Note_off_c, 0, 92, 80
2, 204240, Note_on_c, 0, 92, 100
2, 204240, Note_on_c, 0, 97, 100
2, 204480, Note_off_c, 0, 97, 80
2, 204480, Note_off_c, 0, 92, 80
2, 204480, Note_on_c, 0, 92, 100
2, 204480, Note_on_c, 0, 95, 100
2, 204480, Note_on_c, 0, 97, 127
2, 204720, Note_off_c, 0, 97, 80
2, 204720, Note_off_c, 0, 95, 80
2, 204720, Note_off_c, 0, 92, 80
2, 204720, Note_on_c, 0, 92, 100
2, 204720, Note_on_c, 0, 97, 100
2, 204960, Note_off_c, 0, 97, 80
2, 204960, Note_off_c, 0, 92, 80
2, 204960, Note_on_c, 0, 92, 100
2, 204960, Note_on_c, 0, 95, 100
2, 204960, Note_on_c, 0, 97, 127
2, 205200, Note_off_c, 0, 97, 80
2, 205200, Note_off_c, 0, 95, 80
2, 205200, Note_off_c, 0, 92, 80
2, 205440, Note_on_c, 0, 92, 100
2, 205440, Note_on_c, 0, 95, 127
2, 205920, Note_off_c, 0, 95, 80
2, 205920, Note_off_c, 0, 92, 80
2, 207600, Note_on_c, 0, 100, 127
2, 207600, Note_on_c, 0, 92, 100
2, 207600, Note_on_c, 0, 97, 100
2, 207840, Note_off_c, 0, 97, 80
2, 207840, Note_off_c, 0, 92, 80
2, 207840, Note_off_c, 0, 100, 80
2, 207840, Note_on_c, 0, 100, 127
2, 207840, Note_on_c, 0, 92, 100
2, 207840, Note_on_c, 0, 97, 100
2, 208080, Note_off_c, 0, 97, 80
2, 208080, Note_off_c, 0, 92, 80
2, 208080, Note_off_c, 0, 100, 80
2, 208080, Note_on_c, 0, 100, 127
2, 208080, Note_on_c, 0, 97, 100
2, 208080, Note_on_c, 0, 92, 100
2, 208320, Note_off_c, 0, 92, 80
2, 208320, Note_off_c, 0, 97, 80
2, 208320, Note_off_c, 0, 100, 80
2, 208320, Note_on_c, 0, 100, 127
2, 208320, Note_on_c, 0, 97, 127
2, 208320, Note_on_c, 0, 92, 127
2, 208440, Note_off_c, 0, 92, 80
2, 208440, Note_off_c, 0, 97, 80
2, 208440, Note_off_c, 0, 100, 80
2, 208800, Note_on_c, 0, 92, 100
2, 208800, Note_on_c, 0, 100, 127
2, 208800, Note_on_c, 0, 97, 100
2, 209280, Note_off_c, 0, 97, 80
2, 209280, Note_off_c, 0, 100, 80
2, 209280, Note_off_c, 0, 92, 80
2, 209280, Note_on_c, 0, 92, 127
2, 209280, Note_on_c, 0, 99, 127
2, 209760, Note_off_c, 0, 99, 80
2, 209760, Note_off_c, 0, 92, 80
2, 211200, Note_on_c, 0, 97, 127
2, 211200, Note_on_c, 0, 95, 100
2, 211200, Note_on_c, 0, 92, 100
2, 211440, Note_off_c, 0, 92, 80
2, 211440, Note_off_c, 0, 95, 80
2, 211440, Note_off_c, 0, 97, 80
2, 211440, Note_on_c, 0, 92, 100
2, 211440, Note_on_c, 0, 97, 100
2, 211680, Note_off_c, 0, 97, 80
2, 211680, Note_off_c, 0, 92, 80
2, 211680, Note_on_c, 0, 92, 100
2, 211680, Note_on_c, 0, 95, 100
2, 211680, Note_on_c, 0, 97, 127
2, 211920, Note_off_c, 0, 97, 80
2, 211920, Note_off_c, 0, 95, 80
2, 211920, Note_off_c, 0, 92, 80
2, 211920, Note_on_c, 0, 92, 100
2, 211920, Note_on_c, 0, 97, 100
2, 212160, Note_off_c, 0, 97, 80
2, 212160, Note_off_c, 0, 92, 80
2, 212160, Note_on_c, 0, 92, 100
2, 212160, Note_on_c, 0, 95, 100
2, 212160, Note_on_c, 0, 97, 127
2, 212400, Note_off_c, 0, 97, 80
2, 212400, Note_off_c, 0, 95, 80
2, 212400, Note_off_c, 0, 92, 80
2, 212400, Note_on_c, 0, 92, 100
2, 212400, Note_on_c, 0, 97, 100
2, 212640, Note_off_c, 0, 97, 80
2, 212640, Note_off_c, 0, 92, 80
2, 212640, Note_on_c, 0, 92, 100
2, 212640, Note_on_c, 0, 95, 100
2, 212640, Note_on_c, 0, 97, 127
2, 212880, Note_off_c, 0, 97, 80
2, 212880, Note_off_c, 0, 95, 80
2, 212880, Note_off_c, 0, 92, 80
2, 213120, Note_on_c, 0, 92, 100
2, 213120, Note_on_c, 0, 95, 127
2, 213600, Note_off_c, 0, 95, 80
2, 213600, Note_off_c, 0, 92, 80
2, 215280, Note_on_c, 0, 100, 127
2, 215280, Note_on_c, 0, 92, 100
2, 215280, Note_on_c, 0, 97, 100
2, 215520, Note_off_c, 0, 97, 80
2, 215520, Note_off_c, 0, 92, 80
2, 215520, Note_off_c, 0, 100, 80
2, 215520, Note_on_c, 0, 100, 127
2, 215520, Note_on_c, 0, 92, 100
2, 215520, Note_on_c, 0, 97, 100
2, 215760, Note_off_c, 0, 97, 80
2, 215760, Note_off_c, 0, 92, 80
2, 215760, Note_off_c, 0, 100, 80
2, 215760, Note_on_c, 0, 100, 127
2, 215760, Note_on_c, 0, 97, 100
2, 215760, Note_on_c, 0, 92, 100
2, 216000, Note_off_c, 0, 92, 80
2, 216000, Note_off_c, 0, 97, 80
2, 216000, Note_off_c, 0, 100, 80
2, 216000, Note_on_c, 0, 100, 127
2, 216000, Note_on_c, 0, 97, 127
2, 216000, Note_on_c, 0, 92, 127
2, 216120, Note_off_c, 0, 92, 80
2, 216120, Note_off_c, 0, 97, 80
2, 216120, Note_off_c, 0, 100, 80
2, 216480, Note_on_c, 0, 92, 100
2, 216480, Note_on_c, 0, 100, 127
2, 216480, Note_on_c, 0, 97, 100
2, 216960, Note_off_c, 0, 97, 80
2, 216960, Note_off_c, 0, 100, 80
2, 216960, Note_off_c, 0, 92, 80
2, 216960, Note_on_c, 0, 92, 127
2, 216960, Note_on_c, 0, 99, 127
2, 217440, Note_off_c, 0, 99, 80
2, 217440, Note_off_c, 0, 92, 80
2, 218880, Note_on_c, 0, 97, 127
2, 218880, Note_on_c, 0, 95, 100
2, 218880, Note_on_c, 0, 92, 100
2, 219120, Note_off_c, 0, 92, 80
2, 219120, Note_off_c, 0, 95, 80
2, 219120, Note_off_c, 0, 97, 80
2, 219120, Note_on_c, 0, 92, 100
2, 219120, Note_on_c, 0, 97, 100
2, 219360, Note_off_c, 0, 97, 80
2, 219360, Note_off_c, 0, 92, 80
2, 219360, Note_on_c, 0, 92, 100
2, 219360, Note_on_c, 0, 95, 100
2, 219360, Note_on_c, 0, 97, 127
2, 219600, Note_off_c, 0, 97, 80
2, 219600, Note_off_c, 0, 95, 80
2, 219600, Note_off_c, 0, 92, 80
2, 219600, Note_on_c, 0, 92, 100
2, 219600, Note_on_c, 0, 97, 100
2, 219840, Note_off_c, 0, 97, 80
2, 219840, Note_off_c, 0, 92, 80
2, 219840, Note_on_c, 0, 92, 100
2, 219840, Note_on_c, 0, 95, 100
2, 219840, Note_on_c, 0, 97, 127
2, 220080, Note_off_c, 0, 97, 80
2, 220080, Note_off_c, 0, 95, 80
2, 220080, Note_off_c, 0, 92, 80
2, 220080, Note_on_c, 0, 92, 100
2, 220080, Note_on_c, 0, 97, 100
2, 220320, Note_off_c, 0, 97, 80
2, 220320, Note_off_c, 0, 92, 80
2, 220320, Note_on_c, 0, 92, 100
2, 220320, Note_on_c, 0, 95, 100
2, 220320, Note_on_c, 0, 97, 127
2, 220560, Note_off_c, 0, 97, 80
2, 220560, Note_off_c, 0, 95, 80
2, 220560, Note_off_c, 0, 92, 80
2, 220800, Note_on_c, 0, 92, 100
2, 220800, Note_on_c, 0, 95, 127
2, 221280, Note_off_c, 0, 95, 80
2, 221280, Note_off_c, 0, 92, 80
2, 222960, Note_on_c, 0, 100, 127
2, 222960, Note_on_c, 0, 92, 100
2, 222960, Note_on_c, 0, 97, 100
2, 223200, Note_off_c, 0, 97, 80
2, 223200, Note_off_c, 0, 92, 80
2, 223200, Note_off_c, 0, 100, 80
2, 223200, Note_on_c, 0, 100, 127
2, 223200, Note_on_c, 0, 92, 100
2, 223200, Note_on_c, 0, 97, 100
2, 223440, Note_off_c, 0, 97, 80
2, 223440, Note_off_c, 0, 92, 80
2, 223440, Note_off_c, 0, 100, 80
2, 223440, Note_on_c, 0, 100, 127
2, 223440, Note_on_c, 0, 97, 100
2, 223440, Note_on_c, 0, 92, 100
2, 223680, Note_off_c, 0, 92, 80
2, 223680, Note_off_c, 0, 97, 80
2, 223680, Note_off_c, 0, 100, 80
2, 223680, Note_on_c, 0, 100, 127
2, 223680, Note_on_c, 0, 97, 127
2, 223680, Note_on_c, 0, 92, 127
2, 223800, Note_off_c, 0, 92, 80
2, 223800, Note_off_c, 0, 97, 80
2, 223800, Note_off_c, 0, 100, 80
2, 224160, Note_on_c, 0, 92, 100
2, 224160, Note_on_c, 0, 100, 127
2, 224160, Note_on_c, 0, 97, 100
2, 224640, Note_off_c, 0, 97, 80
2, 224640, Note_off_c, 0, 100, 80
2, 224640, Note_off_c, 0, 92, 80
2, 224640, Note_on_c, 0, 92, 127
2, 224640, Note_on_c, 0, 99, 127
2, 225120, Note_off_c, 0, 99, 80
2, 225120, Note_off_c, 0, 92, 80
2, 226560, Note_on_c, 0, 97, 127
2, 226560, Note_on_c, 0, 95, 100
2, 226560, Note_on_c, 0, 92, 100
2, 226800, Note_off_c, 0, 92, 80
2, 226800, Note_off_c, 0, 95, 80
2, 226800, Note_off_c, 0, 97, 80
2, 226800, Note_on_c, 0, 92, 100
2, 226800, Note_on_c, 0, 97, 100
2, 227040, Note_off_c, 0, 97, 80
2, 227040, Note_off_c, 0, 92, 80
2, 227040, Note_on_c, 0, 92, 100
2, 227040, Note_on_c, 0, 95, 100
2, 227040, Note_on_c, 0, 97, 127
2, 227280, Note_off_c, 0, 97, 80
2, 227280, Note_off_c, 0, 95, 80
2, 227280, Note_off_c, 0, 92, 80
2, 227280, Note_on_c, 0, 92, 100
2, 227280, Note_on_c, 0, 97, 100
2, 227520, Note_off_c, 0, 97, 80
2, 227520, Note_off_c, 0, 92, 80
2, 227520, Note_on_c, 0, 92, 100
2, 227520, Note_on_c, 0, 95, 100
2, 227520, Note_on_c, 0, 97, 127
2, 227760, Note_off_c, 0, 97, 80
2, 227760, Note_off_c, 0, 95, 80
2, 227760, Note_off_c, 0, 92, 80
2, 227760, Note_on_c, 0, 92, 100
2, 227760, Note_on_c, 0, 97, 100
2, 228000, Note_off_c, 0, 97, 80
2, 228000, Note_off_c, 0, 92, 80
2, 228000, Note_on_c, 0, 92, 100
2, 228000, Note_on_c, 0, 95, 100
2, 228000, Note_on_c, 0, 97, 127
2, 228240, Note_off_c, 0, 97, 80
2, 228240, Note_off_c, 0, 95, 80
2, 228240, Note_off_c, 0, 92, 80
2, 228480, Note_on_c, 0, 92, 100
2, 228480, Note_on_c, 0, 95, 127
2, 228960, Note_off_c, 0, 95, 80
2, 228960, Note_off_c, 0, 92, 80
2, 261360, Note_on_c, 0, 100, 127
2, 261360, Note_on_c, 0, 92, 100
2, 261360, Note_on_c, 0, 97, 100
2, 261600, Note_off_c, 0, 97, 80
2, 261600, Note_off_c, 0, 92, 80
2, 261600, Note_off_c, 0, 100, 80
2, 261600, Note_on_c, 0, 100, 127
2, 261600, Note_on_c, 0, 92, 100
2, 261600, Note_on_c, 0, 97, 100
2, 261840, Note_off_c, 0, 97, 80
2, 261840, Note_off_c, 0, 92, 80
2, 261840, Note_off_c, 0, 100, 80
2, 261840, Note_on_c, 0, 100, 127
2, 261840, Note_on_c, 0, 97, 100
2, 261840, Note_on_c, 0, 92, 100
2, 262080, Note_off_c, 0, 92, 80
2, 262080, Note_off_c, 0, 97, 80
2, 262080, Note_off_c, 0, 100, 80
2, 262080, Note_on_c, 0, 100, 127
2, 262080, Note_on_c, 0, 97, 127
2, 262080, Note_on_c, 0, 92, 127
2, 262200, Note_off_c, 0, 92, 80
2, 262200, Note_off_c, 0, 97, 80
2, 262200, Note_off_c, 0, 100, 80
2, 262560, Note_on_c, 0, 92, 100
2, 262560, Note_on_c, 0, 100, 127
2, 262560, Note_on_c, 0, 97, 100
2, 263040, Note_off_c, 0, 97, 80
2, 263040, Note_off_c, 0, 100, 80
2, 263040, Note_off_c, 0, 92, 80
2, 263040, Note_on_c, 0, 92, 127
2, 263040, Note_on_c, 0, 99, 127
2, 263520, Note_off_c, 0, 99, 80
2, 263520, Note_off_c, 0, 92, 80
2, 264960, Note_on_c, 0, 97, 127
2, 264960, Note_on_c, 0, 95, 100
2, 264960, Note_on_c, 0, 92, 100
2, 265200, Note_off_c, 0, 92, 80
2, 265200, Note_off_c, 0, 95, 80
2, 265200, Note_off_c, 0, 97, 80
2, 265200, Note_on_c, 0, 92, 100
2, 265200, Note_on_c, 0, 97, 100
2, 265440, Note_off_c, 0, 97, 80
2, 265440, Note_off_c, 0, 92, 80
2, 265440, Note_on_c, 0, 92, 100
2, 265440, Note_on_c, 0, 95, 100
2, 265440, Note_on_c, 0, 97, 127
2, 265680, Note_off_c, 0, 97, 80
2, 265680, Note_off_c, 0, 95, 80
2, 265680, Note_off_c, 0, 92, 80
2, 265680, Note_on_c, 0, 92, 100
2, 265680, Note_on_c, 0, 97, 100
2, 265920, Note_off_c, 0, 97, 80
2, 265920, Note_off_c, 0, 92, 80
2, 265920, Note_on_c, 0, 92, 100
2, 265920, Note_on_c, 0, 95, 100
2, 265920, Note_on_c, 0, 97, 127
2, 266160, Note_off_c, 0, 97, 80
2, 266160, Note_off_c, 0, 95, 80
2, 266160, Note_off_c, 0, 92, 80
2, 266160, Note_on_c, 0, 92, 100
2, 266160, Note_on_c, 0, 97, 100
2, 266400, Note_off_c, 0, 97, 80
2, 266400, Note_off_c, 0, 92, 80
2, 266400, Note_on_c, 0, 92, 100
2, 266400, Note_on_c, 0, 95, 100
2, 266400, Note_on_c, 0, 97, 127
2, 266640, Note_off_c, 0, 97, 80
2, 266640, Note_off_c, 0, 95, 80
2, 266640, Note_off_c, 0, 92, 80
2, 266880, Note_on_c, 0, 92, 100
2, 266880, Note_on_c, 0, 95, 127
2, 267360, Note_off_c, 0, 95, 80
2, 267360, Note_off_c, 0, 92, 80
2, 269040, Note_on_c, 0, 100, 127
2, 269040, Note_on_c, 0, 92, 100
2, 269040, Note_on_c, 0, 97, 100
2, 269280, Note_off_c, 0, 97, 80
2, 269280, Note_off_c, 0, 92, 80
2, 269280, Note_off_c, 0, 100, 80
2, 269280, Note_on_c, 0, 100, 127
2, 269280, Note_on_c, 0, 92, 100
2, 269280, Note_on_c, 0, 97, 100
2, 269520, Note_off_c, 0, 97, 80
2, 269520, Note_off_c, 0, 92, 80
2, 269520, Note_off_c, 0, 100, 80
2, 269520, Note_on_c, 0, 100, 127
2, 269520, Note_on_c, 0, 97, 100
2, 269520, Note_on_c, 0, 92, 100
2, 269760, Note_off_c, 0, 92, 80
2, 269760, Note_off_c, 0, 97, 80
2, 269760, Note_off_c, 0, 100, 80
2, 269760, Note_on_c, 0, 100, 127
2, 269760, Note_on_c, 0, 97, 127
2, 269760, Note_on_c, 0, 92, 127
2, 269880, Note_off_c, 0, 92, 80
2, 269880, Note_off_c, 0, 97, 80
2, 269880, Note_off_c, 0, 100, 80
2, 270240, Note_on_c, 0, 92, 100
2, 270240, Note_on_c, 0, 100, 127
2, 270240, Note_on_c, 0, 97, 100
2, 270720, Note_off_c, 0, 97, 80
2, 270720, Note_off_c, 0, 100, 80
2, 270720, Note_off_c, 0, 92, 80
2, 270720, Note_on_c, 0, 92, 127
2, 270720, Note_on_c, 0, 99, 127
2, 271200, Note_off_c, 0, 99, 80
2, 271200, Note_off_c, 0, 92, 80
2, 272640, Note_on_c, 0, 97, 127
2, 272640, Note_on_c, 0, 95, 100
2, 272640, Note_on_c, 0, 92, 100
2, 272880, Note_off_c, 0, 92, 80
2, 272880, Note_off_c, 0, 95, 80
2, 272880, Note_off_c, 0, 97, 80
2, 272880, Note_on_c, 0, 92, 100
2, 272880, Note_on_c, 0, 97, 100
2, 273120, Note_off_c, 0, 97, 80
2, 273120, Note_off_c, 0, 92, 80
2, 273120, Note_on_c, 0, 92, 100
2, 273120, Note_on_c, 0, 95, 100
2, 273120, Note_on_c, 0, 97, 127
2, 273360, Note_off_c, 0, 97, 80
2, 273360, Note_off_c, 0, 95, 80
2, 273360, Note_off_c, 0, 92, 80
2, 273360, Note_on_c, 0, 92, 100
2, 273360, Note_on_c, 0, 97, 100
2, 273600, Note_off_c, 0, 97, 80
2, 273600, Note_off_c, 0, 92, 80
2, 273600, Note_on_c, 0, 92, 100
2, 273600, Note_on_c, 0, 95, 100
2, 273600, Note_on_c, 0, 97, 127
2, 273840, Note_off_c, 0, 97, 80
2, 273840, Note_off_c, 0, 95, 80
2, 273840, Note_off_c, 0, 92, 80
2, 273840, Note_on_c, 0, 92, 100
2, 273840, Note_on_c, 0, 97, 100
2, 274080, Note_off_c, 0, 97, 80
2, 274080, Note_off_c, 0, 92, 80
2, 274080, Note_on_c, 0, 92, 100
2, 274080, Note_on_c, 0, 95, 100
2, 274080, Note_on_c, 0, 97, 127
2, 274320, Note_off_c, 0, 97, 80
2, 274320, Note_off_c, 0, 95, 80
2, 274320, Note_off_c, 0, 92, 80
2, 274560, Note_on_c, 0, 92, 100
2, 274560, Note_on_c, 0, 95, 127
2, 275040, Note_off_c, 0, 95, 80
2, 275040, Note_off_c, 0, 92, 80
2, 276720, Note_on_c, 0, 100, 127
2, 276720, Note_on_c, 0, 92, 100
2, 276720, Note_on_c, 0, 97, 100
2, 276960, Note_off_c, 0, 97, 80
2, 276960, Note_off_c, 0, 92, 80
2, 276960, Note_off_c, 0, 100, 80
2, 276960, Note_on_c, 0, 100, 127
2, 276960, Note_on_c, 0, 92, 100
2, 276960, Note_on_c, 0, 97, 100
2, 277200, Note_off_c, 0, 97, 80
2, 277200, Note_off_c, 0, 92, 80
2, 277200, Note_off_c, 0, 100, 80
2, 277200, Note_on_c, 0, 100, 127
2, 277200, Note_on_c, 0, 97, 100
2, 277200, Note_on_c, 0, 92, 100
2, 277440, Note_off_c, 0, 92, 80
2, 277440, Note_off_c, 0, 97, 80
2, 277440, Note_off_c, 0, 100, 80
2, 277440, Note_on_c, 0, 100, 127
2, 277440, Note_on_c, 0, 97, 127
2, 277440, Note_on_c, 0, 92, 127
2, 277560, Note_off_c, 0, 92, 80
2, 277560, Note_off_c, 0, 97, 80
2, 277560, Note_off_c, 0, 100, 80
2, 277920, Note_on_c, 0, 92, 100
2, 277920, Note_on_c, 0, 100, 127
2, 277920, Note_on_c, 0, 97, 100
2, 278400, Note_off_c, 0, 97, 80
2, 278400, Note_off_c, 0, 100, 80
2, 278400, Note_off_c, 0, 92, 80
2, 278400, Note_on_c, 0, 92, 127
2, 278400, Note_on_c, 0, 99, 127
2, 278880, Note_off_c, 0, 99, 80
2, 278880, Note_off_c, 0, 92, 80
2, 280320, Note_on_c, 0, 97, 127
2, 280320, Note_on_c, 0, 95, 100
2, 280320, Note_on_c, 0, 92, 100
2, 280560, Note_off_c, 0, 92, 80
2, 280560, Note_off_c, 0, 95, 80
2, 280560, Note_off_c, 0, 97, 80
2, 280560, Note_on_c, 0, 92, 100
2, 280560, Note_on_c, 0, 97, 100
2, 280800, Note_off_c, 0, 97, 80
2, 280800, Note_off_c, 0, 92, 80
2, 280800, Note_on_c, 0, 92, 100
2, 280800, Note_on_c, 0, 95, 100
2, 280800, Note_on_c, 0, 97, 127
2, 281040, Note_off_c, 0, 97, 80
2, 281040, Note_off_c, 0, 95, 80
2, 281040, Note_off_c, 0, 92, 80
2, 281040, Note_on_c, 0, 92, 100
2, 281040, Note_on_c, 0, 97, 100
2, 281280, Note_off_c, 0, 97, 80
2, 281280, Note_off_c, 0, 92, 80
2, 281280, Note_on_c, 0, 92, 100
2, 281280, Note_on_c, 0, 95, 100
2, 281280, Note_on_c, 0, 97, 127
2, 281520, Note_off_c, 0, 97, 80
2, 281520, Note_off_c, 0, 95, 80
2, 281520, Note_off_c, 0, 92, 80
2, 281520, Note_on_c, 0, 92, 100
2, 281520, Note_on_c, 0, 97, 100
2, 281760, Note_off_c, 0, 97, 80
2, 281760, Note_off_c, 0, 92, 80
2, 281760, Note_on_c, 0, 92, 100
2, 281760, Note_on_c, 0, 95, 100
2, 281760, Note_on_c, 0, 97, 127
2, 282000, Note_off_c, 0, 97, 80
2, 282000, Note_off_c, 0, 95, 80
2, 282000, Note_off_c, 0, 92, 80
2, 282240, Note_on_c, 0, 92, 100
2, 282240, Note_on_c, 0, 95, 127
2, 282720, Note_off_c, 0, 95, 80
2, 282720, Note_off_c, 0, 92, 80
2, 284400, Note_on_c, 0, 100, 127
2, 284400, Note_on_c, 0, 92, 100
2, 284400, Note_on_c, 0, 97, 100
2, 284640, Note_off_c, 0, 97, 80
2, 284640, Note_off_c, 0, 92, 80
2, 284640, Note_off_c, 0, 100, 80
2, 284640, Note_on_c, 0, 100, 127
2, 284640, Note_on_c, 0, 92, 100
2, 284640, Note_on_c, 0, 97, 100
2, 284880, Note_off_c, 0, 97, 80
2, 284880, Note_off_c, 0, 92, 80
2, 284880, Note_off_c, 0, 100, 80
2, 284880, Note_on_c, 0, 100, 127
2, 284880, Note_on_c, 0, 97, 100
2, 284880, Note_on_c, 0, 92, 100
2, 285120, Note_off_c, 0, 92, 80
2, 285120, Note_off_c, 0, 97, 80
2, 285120, Note_off_c, 0, 100, 80
2, 285120, Note_on_c, 0, 100, 127
2, 285120, Note_on_c, 0, 97, 127
2, 285120, Note_on_c, 0, 92, 127
2, 285240, Note_off_c, 0, 92, 80
2, 285240, Note_off_c, 0, 97, 80
2, 285240, Note_off_c, 0, 100, 80
2, 285600, Note_on_c, 0, 92, 100
2, 285600, Note_on_c, 0, 100, 127
2, 285600, Note_on_c, 0, 97, 100
2, 286080, Note_off_c, 0, 97, 80
2, 286080, Note_off_c, 0, 100, 80
2, 286080, Note_off_c, 0, 92, 80
2, 286080, Note_on_c, 0, 92, 127
2, 286080, Note_on_c, 0, 99, 127
2, 286560, Note_off_c, 0, 99, 80
2, 286560, Note_off_c, 0, 92, 80
2, 288000, Note_on_c, 0, 97, 127
2, 288000, Note_on_c, 0, 95, 100
2, 288000, Note_on_c, 0, 92, 100
2, 288240, Note_off_c, 0, 92, 80
2, 288240, Note_off_c, 0, 95, 80
2, 288240, Note_off_c, 0, 97, 80
2, 288240, Note_on_c, 0, 92, 100
2, 288240, Note_on_c, 0, 97, 100
2, 288480, Note_off_c, 0, 97, 80
2, 288480, Note_off_c, 0, 92, 80
2, 288480, Note_on_c, 0, 92, 100
2, 288480, Note_on_c, 0, 95, 100
2, 288480, Note_on_c, 0, 97, 127
2, 288720, Note_off_c, 0, 97, 80
2, 288720, Note_off_c, 0, 95, 80
2, 288720, Note_off_c, 0, 92, 80
2, 288720, Note_on_c, 0, 92, 100
2, 288720, Note_on_c, 0, 97, 100
2, 288960, Note_off_c, 0, 97, 80
2, 288960, Note_off_c, 0, 92, 80
2, 288960, Note_on_c, 0, 92, 100
2, 288960, Note_on_c, 0, 95, 100
2, 288960, Note_on_c, 0, 97, 127
2, 289200, Note_off_c, 0, 97, 80
2, 289200, Note_off_c, 0, 95, 80
2, 289200, Note_off_c, 0, 92, 80
2, 289200, Note_on_c, 0, 92, 100
2, 289200, Note_on_c, 0, 97, 100
2, 289440, Note_off_c, 0, 97, 80
2, 289440, Note_off_c, 0, 92, 80
2, 289440, Note_on_c, 0, 92, 100
2, 289440, Note_on_c, 0, 95, 100
2, 289440, Note_on_c, 0, 97, 127
2, 289680, Note_off_c, 0, 97, 80
2, 289680, Note_off_c, 0, 95, 80
2, 289680, Note_off_c, 0, 92, 80
2, 289920, Note_on_c, 0, 92, 100
2, 289920, Note_on_c, 0, 95, 127
2, 290400, Note_off_c, 0, 95, 80
2, 290400, Note_off_c, 0, 92, 80
2, 292080, Note_on_c, 0, 100, 127
2, 292080, Note_on_c, 0, 92, 100
2, 292080, Note_on_c, 0, 97, 100
2, 292320, Note_off_c, 0, 97, 80
2, 292320, Note_off_c, 0, 92, 80
2, 292320, Note_off_c, 0, 100, 80
2, 292320, Note_on_c, 0, 100, 127
2, 292320, Note_on_c, 0, 92, 100
2, 292320, Note_on_c, 0, 97, 100
2, 292560, Note_off_c, 0, 97, 80
2, 292560, Note_off_c, 0, 92, 80
2, 292560, Note_off_c, 0, 100, 80
2, 292560, Note_on_c, 0, 100, 127
2, 292560, Note_on_c, 0, 97, 100
2, 292560, Note_on_c, 0, 92, 100
2, 292800, Note_off_c, 0, 92, 80
2, 292800, Note_off_c, 0, 97, 80
2, 292800, Note_off_c, 0, 100, 80
2, 292800, Note_on_c, 0, 100, 127
2, 292800, Note_on_c, 0, 97, 127
2, 292800, Note_on_c, 0, 92, 127
2, 292920, Note_off_c, 0, 92, 80
2, 292920, Note_off_c, 0, 97, 80
2, 292920, Note_off_c, 0, 100, 80
2, 293280, Note_on_c, 0, 92, 100
2, 293280, Note_on_c, 0, 100, 127
2, 293280, Note_on_c, 0, 97, 100
2, 293760, Note_off_c, 0, 97, 80
2, 293760, Note_off_c, 0, 100, 80
2, 293760, Note_off_c, 0, 92, 80
2, 293760, Note_on_c, 0, 92, 127
2, 293760, Note_on_c, 0, 99, 127
2, 294240, Note_off_c, 0, 99, 80
2, 294240, Note_off_c, 0, 92, 80
2, 295680, Note_on_c, 0, 97, 127
2, 295680, Note_on_c, 0, 95, 100
2, 295680, Note_on_c, 0, 92, 100
2, 295920, Note_off_c, 0, 92, 80
2, 295920, Note_off_c, 0, 95, 80
2, 295920, Note_off_c, 0, 97, 80
2, 295920, Note_on_c, 0, 92, 100
2, 295920, Note_on_c, 0, 97, 100
2, 296160, Note_off_c, 0, 97, 80
2, 296160, Note_off_c, 0, 92, 80
2, 296160, Note_on_c, 0, 92, 100
2, 296160, Note_on_c, 0, 95, 100
2, 296160, Note_on_c, 0, 97, 127
2, 296400, Note_off_c, 0, 97, 80
2, 296400, Note_off_c, 0, 95, 80
2, 296400, Note_off_c, 0, 92, 80
2, 296400, Note_on_c, 0, 92, 100
2, 296400, Note_on_c, 0, 97, 100
2, 296640, Note_off_c, 0, 97, 80
2, 296640, Note_off_c, 0, 92, 80
2, 296640, Note_on_c, 0, 92, 100
2, 296640, Note_on_c, 0, 95, 100
2, 296640, Note_on_c, 0, 97, 127
2, 296880, Note_off_c, 0, 97, 80
2, 296880, Note_off_c, 0, 95, 80
2, 296880, Note_off_c, 0, 92, 80
2, 296880, Note_on_c, 0, 92, 100
2, 296880, Note_on_c, 0, 97, 100
2, 297120, Note_off_c, 0, 97, 80
2, 297120, Note_off_c, 0, 92, 80
2, 297120, Note_on_c, 0, 92, 100
2, 297120, Note_on_c, 0, 95, 100
2, 297120, Note_on_c, 0, 97, 127
2, 297360, Note_off_c, 0, 97, 80
2, 297360, Note_off_c, 0, 95, 80
2, 297360, Note_off_c, 0, 92, 80
2, 297600, Note_on_c, 0, 92, 100
2, 297600, Note_on_c, 0, 95, 127
2, 298080, Note_off_c, 0, 95, 80
2, 298080, Note_off_c, 0, 92, 80
2, 299760, Note_on_c, 0, 100, 127
2, 299760, Note_on_c, 0, 92, 100
2, 299760, Note_on_c, 0, 97, 100
2, 300000, Note_off_c, 0, 97, 80
2, 300000, Note_off_c, 0, 92, 80
2, 300000, Note_off_c, 0, 100, 80
2, 300000, Note_on_c, 0, 100, 127
2, 300000, Note_on_c, 0, 92, 100
2, 300000, Note_on_c, 0, 97, 100
2, 300240, Note_off_c, 0, 97, 80
2, 300240, Note_off_c, 0, 92, 80
2, 300240, Note_off_c, 0, 100, 80
2, 300240, Note_on_c, 0, 100, 127
2, 300240, Note_on_c, 0, 97, 100
2, 300240, Note_on_c, 0, 92, 100
2, 300480, Note_off_c, 0, 92, 80
2, 300480, Note_off_c, 0, 97, 80
2, 300480, Note_off_c, 0, 100, 80
2, 300480, Note_on_c, 0, 100, 127
2, 300480, Note_on_c, 0, 97, 127
2, 300480, Note_on_c, 0, 92, 127
2, 300600, Note_off_c, 0, 92, 80
2, 300600, Note_off_c, 0, 97, 80
2, 300600, Note_off_c, 0, 100, 80
2, 300960, Note_on_c, 0, 92, 100
2, 300960, Note_on_c, 0, 100, 127
2, 300960, Note_on_c, 0, 97, 100
2, 301440, Note_off_c, 0, 97, 80
2, 301440, Note_off_c, 0, 100, 80
2, 301440, Note_off_c, 0, 92, 80
2, 301440, Note_on_c, 0, 92, 127
2, 301440, Note_on_c, 0, 99, 127
2, 301920, Note_off_c, 0, 99, 80
2, 301920, Note_off_c, 0, 92, 80
2, 303360, Note_on_c, 0, 97, 127
2, 303360, Note_on_c, 0, 95, 100
2, 303360, Note_on_c, 0, 92, 100
2, 303600, Note_off_c, 0, 92, 80
2, 303600, Note_off_c, 0, 95, 80
2, 303600, Note_off_c, 0, 97, 80
2, 303600, Note_on_c, 0, 92, 100
2, 303600, Note_on_c, 0, 97, 100
2, 303840, Note_off_c, 0, 97, 80
2, 303840, Note_off_c, 0, 92, 80
2, 303840, Note_on_c, 0, 92, 100
2, 303840, Note_on_c, 0, 95, 100
2, 303840, Note_on_c, 0, 97, 127
2, 304080, Note_off_c, 0, 97, 80
2, 304080, Note_off_c, 0, 95, 80
2, 304080, Note_off_c, 0, 92, 80
2, 304080, Note_on_c, 0, 92, 100
2, 304080, Note_on_c, 0, 97, 100
2, 304320, Note_off_c, 0, 97, 80
2, 304320, Note_off_c, 0, 92, 80
2, 304320, Note_on_c, 0, 92, 100
2, 304320, Note_on_c, 0, 95, 100
2, 304320, Note_on_c, 0, 97, 127
2, 304560, Note_off_c, 0, 97, 80
2, 304560, Note_off_c, 0, 95, 80
2, 304560, Note_off_c, 0, 92, 80
2, 304560, Note_on_c, 0, 92, 100
2, 304560, Note_on_c, 0, 97, 100
2, 304800, Note_off_c, 0, 97, 80
2, 304800, Note_off_c, 0, 92, 80
2, 304800, Note_on_c, 0, 92, 100
2, 304800, Note_on_c, 0, 95, 100
2, 304800, Note_on_c, 0, 97, 127
2, 305040, Note_off_c, 0, 97, 80
2, 305040, Note_off_c, 0, 95, 80
2, 305040, Note_off_c, 0, 92, 80
2, 305280, Note_on_c, 0, 92, 100
2, 305280, Note_on_c, 0, 95, 127
2, 305760, Note_off_c, 0, 95, 80
2, 305760, Note_off_c, 0, 92, 80
2, 307440, Note_on_c, 0, 100, 127
2, 307440, Note_on_c, 0, 92, 100
2, 307440, Note_on_c, 0, 97, 100
2, 307680, Note_off_c, 0, 97, 80
2, 307680, Note_off_c, 0, 92, 80
2, 307680, Note_off_c, 0, 100, 80
2, 307680, Note_on_c, 0, 100, 127
2, 307680, Note_on_c, 0, 92, 100
2, 307680, Note_on_c, 0, 97, 100
2, 307920, Note_off_c, 0, 97, 80
2, 307920, Note_off_c, 0, 92, 80
2, 307920, Note_off_c, 0, 100, 80
2, 307920, Note_on_c, 0, 100, 127
2, 307920, Note_on_c, 0, 97, 100
2, 307920, Note_on_c, 0, 92, 100
2, 308160, Note_off_c, 0, 92, 80
2, 308160, Note_off_c, 0, 97, 80
2, 308160, Note_off_c, 0, 100, 80
2, 308160, Note_on_c, 0, 100, 127
2, 308160, Note_on_c, 0, 97, 127
2, 308160, Note_on_c, 0, 92, 127
2, 308280, Note_off_c, 0, 92, 80
2, 308280, Note_off_c, 0, 97, 80
2, 308280, Note_off_c, 0, 100, 80
2, 308640, Note_on_c, 0, 92, 100
2, 308640, Note_on_c, 0, 100, 127
2, 308640, Note_on_c, 0, 97, 100
2, 309120, Note_off_c, 0, 97, 80
2, 309120, Note_off_c, 0, 100, 80
2, 309120, Note_off_c, 0, 92, 80
2, 309120, Note_on_c, 0, 92, 127
2, 309120, Note_on_c, 0, 99, 127
2, 309600, Note_off_c, 0, 99, 80
2, 309600, Note_off_c, 0, 92, 80
2, 311040, Note_on_c, 0, 97, 127
2, 311040, Note_on_c, 0, 95, 100
2, 311040, Note_on_c, 0, 92, 100
2, 311280, Note_off_c, 0, 92, 80
2, 311280, Note_off_c, 0, 95, 80
2, 311280, Note_off_c, 0, 97, 80
2, 311280, Note_on_c, 0, 92, 100
2, 311280, Note_on_c, 0, 97, 100
2, 311520, Note_off_c, 0, 97, 80
2, 311520, Note_off_c, 0, 92, 80
2, 311520, Note_on_c, 0, 92, 100
2, 311520, Note_on_c, 0, 95, 100
2, 311520, Note_on_c, 0, 97, 127
2, 311760, Note_off_c, 0, 97, 80
2, 311760, Note_off_c, 0, 95, 80
2, 311760, Note_off_c, 0, 92, 80
2, 311760, Note_on_c, 0, 92, 100
2, 311760, Note_on_c, 0, 97, 100
2, 312000, Note_off_c, 0, 97, 80
2, 312000, Note_off_c, 0, 92, 80
2, 312000, Note_on_c, 0, 92, 100
2, 312000, Note_on_c, 0, 95, 100
2, 312000, Note_on_c, 0, 97, 127
2, 312240, Note_off_c, 0, 97, 80
2, 312240, Note_off_c, 0, 95, 80
2, 312240, Note_off_c, 0, 92, 80
2, 312240, Note_on_c, 0, 92, 100
2, 312240, Note_on_c, 0, 97, 100
2, 312480, Note_off_c, 0, 97, 80
2, 312480, Note_off_c, 0, 92, 80
2, 312480, Note_on_c, 0, 92, 100
2, 312480, Note_on_c, 0, 95, 100
2, 312480, Note_on_c, 0, 97, 127
2, 312720, Note_off_c, 0, 97, 80
2, 312720, Note_off_c, 0, 95, 80
2, 312720, Note_off_c, 0, 92, 80
2, 312960, Note_on_c, 0, 92, 100
2, 312960, Note_on_c, 0, 95, 127
2, 313440, Note_off_c, 0, 95, 80
2, 313440, Note_off_c, 0, 92, 80
2, 315120, Note_on_c, 0, 100, 127
2, 315120, Note_on_c, 0, 92, 100
2, 315120, Note_on_c, 0, 97, 100
2, 315360, Note_off_c, 0, 97, 80
2, 315360, Note_off_c, 0, 92, 80
2, 315360, Note_off_c, 0, 100, 80
2, 315360, Note_on_c, 0, 100, 127
2, 315360, Note_on_c, 0, 92, 100
2, 315360, Note_on_c, 0, 97, 100
2, 315600, Note_off_c, 0, 97, 80
2, 315600, Note_off_c, 0, 92, 80
2, 315600, Note_off_c, 0, 100, 80
2, 315600, Note_on_c, 0, 100, 127
2, 315600, Note_on_c, 0, 97, 100
2, 315600, Note_on_c, 0, 92, 100
2, 315840, Note_off_c, 0, 92, 80
2, 315840, Note_off_c, 0, 97, 80
2, 315840, Note_off_c, 0, 100, 80
2, 315840, Note_on_c, 0, 100, 127
2, 315840, Note_on_c, 0, 97, 127
2, 315840, Note_on_c, 0, 92, 127
2, 315960, Note_off_c, 0, 92, 80
2, 315960, Note_off_c, 0, 97, 80
2, 315960, Note_off_c, 0, 100, 80
2, 316320, Note_on_c, 0, 92, 100
2, 316320, Note_on_c, 0, 100, 127
2, 316320, Note_on_c, 0, 97, 100
2, 316800, Note_off_c, 0, 97, 80
2, 316800, Note_off_c, 0, 100, 80
2, 316800, Note_off_c, 0, 92, 80
2, 316800, Note_on_c, 0, 92, 127
2, 316800, Note_on_c, 0, 99, 127
2, 317280, Note_off_c, 0, 99, 80
2, 317280, Note_off_c, 0, 92, 80
2, 318720, Note_on_c, 0, 97, 127
2, 318720, Note_on_c, 0, 95, 100
2, 318720, Note_on_c, 0, 92, 100
2, 318960, Note_off_c, 0, 92, 80
2, 318960, Note_off_c, 0, 95, 80
2, 318960, Note_off_c, 0, 97, 80
2, 318960, Note_on_c, 0, 92, 100
2, 318960, Note_on_c, 0, 97, 100
2, 319200, Note_off_c, 0, 97, 80
2, 319200, Note_off_c, 0, 92, 80
2, 319200, Note_on_c, 0, 92, 100
2, 319200, Note_on_c, 0, 95, 100
2, 319200, Note_on_c, 0, 97, 127
2, 319440, Note_off_c, 0, 97, 80
2, 319440, Note_off_c, 0, 95, 80
2, 319440, Note_off_c, 0, 92, 80
2, 319440, Note_on_c, 0, 92, 100
2, 319440, Note_on_c, 0, 97, 100
2, 319680, Note_off_c, 0, 97, 80
2, 319680, Note_off_c, 0, 92, 80
2, 319680, Note_on_c, 0, 92, 100
2, 319680, Note_on_c, 0, 95, 100
2, 319680, Note_on_c, 0, 97, 127
2, 319920, Note_off_c, 0, 97, 80
2, 319920, Note_off_c, 0, 95, 80
2, 319920, Note_off_c, 0, 92, 80
2, 319920, Note_on_c, 0, 92, 100
2, 319920, Note_on_c, 0, 97, 100
2, 320160, Note_off_c, 0, 97, 80
2, 320160, Note_off_c, 0, 92, 80
2, 320160, Note_on_c, 0, 92, 100
2, 320160, Note_on_c, 0, 95, 100
2, 320160, Note_on_c, 0, 97, 127
2, 320400, Note_off_c, 0, 97, 80
2, 320400, Note_off_c, 0, 95, 80
2, 320400, Note_off_c, 0, 92, 80
2, 320640, Note_on_c, 0, 92, 100
2, 320640, Note_on_c, 0, 95, 127
2, 321120, Note_off_c, 0, 95, 80
2, 321120, Note_off_c, 0, 92, 80
2, 322800, Note_on_c, 0, 100, 127
2, 322800, Note_on_c, 0, 92, 100
2, 322800, Note_on_c, 0, 97, 100
2, 323040, Note_off_c, 0, 97, 80
2, 323040, Note_off_c, 0, 92, 80
2, 323040, Note_off_c, 0, 100, 80
2, 323040, Note_on_c, 0, 100, 127
2, 323040, Note_on_c, 0, 92, 100
2, 323040, Note_on_c, 0, 97, 100
2, 323280, Note_off_c, 0, 97, 80
2, 323280, Note_off_c, 0, 92, 80
2, 323280, Note_off_c, 0, 100, 80
2, 323280, Note_on_c, 0, 100, 127
2, 323280, Note_on_c, 0, 97, 100
2, 323280, Note_on_c, 0, 92, 100
2, 323520, Note_off_c, 0, 92, 80
2, 323520, Note_off_c, 0, 97, 80
2, 323520, Note_off_c, 0, 100, 80
2, 323520, Note_on_c, 0, 100, 127
2, 323520, Note_on_c, 0, 97, 127
2, 323520, Note_on_c, 0, 92, 127
2, 323640, Note_off_c, 0, 92, 80
2, 323640, Note_off_c, 0, 97, 80
2, 323640, Note_off_c, 0, 100, 80
2, 324000, Note_on_c, 0, 92, 100
2, 324000, Note_on_c, 0, 100, 127
2, 324000, Note_on_c, 0, 97, 100
2, 324480, Note_off_c, 0, 97, 80
2, 324480, Note_off_c, 0, 100, 80
2, 324480, Note_off_c, 0, 92, 80
2, 324480, Note_on_c, 0, 99, 119
2, 324480, Note_on_c, 0, 92, 119
2, 324960, Note_off_c, 0, 92, 80
2, 324960, Note_off_c, 0, 99, 80
2, 326400, Note_on_c, 0, 92, 84
2, 326400, Note_on_c, 0, 95, 84
2, 326400, Note_on_c, 0, 97, 111
2, 326640, Note_off_c, 0, 97, 80
2, 326640, Note_off_c, 0, 95, 80
2, 326640, Note_off_c, 0, 92, 80
2, 326640, Note_on_c, 0, 92, 84
2, 326640, Note_on_c, 0, 97, 84
2, 326880, Note_off_c, 0, 97, 80
2, 326880, Note_off_c, 0, 92, 80
2, 326880, Note_on_c, 0, 92, 84
2, 326880, Note_on_c, 0, 95, 84
2, 326880, Note_on_c, 0, 97, 111
2, 327120, Note_off_c, 0, 97, 80
2, 327120, Note_off_c, 0, 95, 80
2, 327120, Note_off_c, 0, 92, 80
2, 327120, Note_on_c, 0, 92, 84
2, 327120, Note_on_c, 0, 97, 84
2, 327360, Note_off_c, 0, 97, 80
2, 327360, Note_off_c, 0, 92, 80
2, 327360, Note_on_c, 0, 92, 84
2, 327360, Note_on_c, 0, 95, 84
2, 327360, Note_on_c, 0, 97, 111
2, 327600, Note_off_c, 0, 97, 80
2, 327600, Note_off_c, 0, 95, 80
2, 327600, Note_off_c, 0, 92, 80
2, 327600, Note_on_c, 0, 92, 84
2, 327600, Note_on_c, 0, 97, 84
2, 327840, Note_off_c, 0, 97, 80
2, 327840, Note_off_c, 0, 92, 80
2, 327840, Note_on_c, 0, 92, 84
2, 327840, Note_on_c, 0, 95, 84
2, 327840, Note_on_c, 0, 97, 111
2, 328080, Note_off_c, 0, 97, 80
2, 328080, Note_off_c, 0, 95, 80
2, 328080, Note_off_c, 0, 92, 80
2, 328320, Note_on_c, 0, 95, 103
2, 328320, Note_on_c, 0, 92, 76
2, 328800, Note_off_c, 0, 92, 80
2, 328800, Note_off_c, 0, 95, 80
2, 330480, Note_on_c, 0, 97, 68
2, 330480, Note_on_c, 0, 92, 68
2, 330480, Note_on_c, 0, 100, 95
2, 330720, Note_off_c, 0, 100, 80
2, 330720, Note_off_c, 0, 92, 80
2, 330720, Note_off_c, 0, 97, 80
2, 330720, Note_on_c, 0, 100, 95
2, 330720, Note_on_c, 0, 92, 68
2, 330720, Note_on_c, 0, 97, 68
2, 330960, Note_off_c, 0, 97, 80
2, 330960, Note_off_c, 0, 92, 80
2, 330960, Note_off_c, 0, 100, 80
2, 330960, Note_on_c, 0, 100, 95
2, 330960, Note_on_c, 0, 97, 68
2, 330960, Note_on_c, 0, 92, 68
2, 331200, Note_off_c, 0, 92, 80
2, 331200, Note_off_c, 0, 97, 80
2, 331200, Note_off_c, 0, 100, 80
2, 331200, Note_on_c, 0, 100, 95
2, 331200, Note_on_c, 0, 97, 95
2, 331200, Note_on_c, 0, 92, 95
2, 331320, Note_off_c, 0, 92, 80
2, 331320, Note_off_c, 0, 97, 80
2, 331320, Note_off_c, 0, 100, 80
2, 331680, Note_on_c, 0, 92, 68
2, 331680, Note_on_c, 0, 100, 95
2, 331680, Note_on_c, 0, 97, 68
2, 332160, Note_off_c, 0, 97, 80
2, 332160, Note_off_c, 0, 100, 80
2, 332160, Note_off_c, 0, 92, 80
2, 332160, Note_on_c, 0, 99, 87
2, 332160, Note_on_c, 0, 92, 87
2, 332640, Note_off_c, 0, 92, 80
2, 332640, Note_off_c, 0, 99, 80
2, 334080, Note_on_c, 0, 92, 52
2, 334080, Note_on_c, 0, 95, 52
2, 334080, Note_on_c, 0, 97, 79
2, 334320, Note_off_c, 0, 97, 80
2, 334320, Note_off_c, 0, 95, 80
2, 334320, Note_off_c, 0, 92, 80
2, 334320, Note_on_c, 0, 92, 52
2, 334320, Note_on_c, 0, 97, 52
2, 334560, Note_off_c, 0, 97, 80
2, 334560, Note_off_c, 0, 92, 80
2, 334560, Note_on_c, 0, 92, 52
2, 334560, Note_on_c, 0, 95, 52
2, 334560, Note_on_c, 0, 97, 79
2, 334800, Note_off_c, 0, 97, 80
2, 334800, Note_off_c, 0, 95, 80
2, 334800, Note_off_c, 0, 92, 80
2, 334800, Note_on_c, 0, 92, 52
2, 334800, Note_on_c, 0, 97, 52
2, 335040, Note_off_c, 0, 97, 80
2, 335040, Note_off_c, 0, 92, 80
2, 335040, Note_on_c, 0, 92, 52
2, 335040, Note_on_c, 0, 95, 52
2, 335040, Note_on_c, 0, 97, 79
2, 335280, Note_off_c, 0, 97, 80
2, 335280, Note_off_c, 0, 95, 80
2, 335280, Note_off_c, 0, 92, 80
2, 335280, Note_on_c, 0, 92, 52
2, 335280, Note_on_c, 0, 97, 52
2, 335520, Note_off_c, 0, 97, 80
2, 335520, Note_off_c, 0, 92, 80
2, 335520, Note_on_c, 0, 92, 52
2, 335520, Note_on_c, 0, 95, 52
2, 335520, Note_on_c, 0, 97, 79
2, 335760, Note_off_c, 0, 97, 80
2, 335760, Note_off_c, 0, 95, 80
2, 335760, Note_off_c, 0, 92, 80
2, 336000, Note_on_c, 0, 95, 71
2, 336000, Note_on_c, 0, 92, 44
2, 336480, Note_off_c, 0, 92, 80
2, 336480, Note_off_c, 0, 95, 80
2, 338160, Note_on_c, 0, 97, 36
2, 338160, Note_on_c, 0, 92, 36
2, 338160, Note_on_c, 0, 100, 63
2, 338400, Note_off_c, 0, 100, 80
2, 338400, Note_off_c, 0, 92, 80
2, 338400, Note_off_c, 0, 97, 80
2, 338400, Note_on_c, 0, 100, 63
2, 338400, Note_on_c, 0, 92, 36
2, 338400, Note_on_c, 0, 97, 36
2, 338640, Note_off_c, 0, 97, 80
2, 338640, Note_off_c, 0, 92, 80
2, 338640, Note_off_c, 0, 100, 80
2, 338640, Note_on_c, 0, 100, 63
2, 338640, Note_on_c, 0, 97, 36
2, 338640, Note_on_c, 0, 92, 36
2, 338880, Note_off_c, 0, 92, 80
2, 338880, Note_off_c, 0, 97, 80
2, 338880, Note_off_c, 0, 100, 80
2, 338880, Note_on_c, 0, 100, 63
2, 338880, Note_on_c, 0, 97, 63
2, 338880, Note_on_c, 0, 92, 63
2, 339000, Note_off_c, 0, 92, 80
2, 339000, Note_off_c, 0, 97, 80
2, 339000, Note_off_c, 0, 100, 80
2, 339360, Note_on_c, 0, 92, 36
2, 339360, Note_on_c, 0, 100, 63
2, 339360, Note_on_c, 0, 97, 36
2, 339840, Note_off_c, 0, 97, 80
2, 339840, Note_off_c, 0, 100, 80
2, 339840, Note_off_c, 0, 92, 80
2, 339840, Note_on_c, 0, 99, 55
2, 339840, Note_on_c, 0, 92, 55
2, 340320, Note_off_c, 0, 92, 80
2, 340320, Note_off_c, 0, 99, 80
2, 341760, Note_on_c, 0, 92, 20
2, 341760, Note_on_c, 0, 95, 20
2, 341760, Note_on_c, 0, 97, 47
2, 342000, Note_off_c, 0, 97, 80
2, 342000, Note_off_c, 0, 95, 80
2, 342000, Note_off_c, 0, 92, 80
2, 342000, Note_on_c, 0, 92, 20
2, 342000, Note_on_c, 0, 97, 20
2, 342240, Note_off_c, 0, 97, 80
2, 342240, Note_off_c, 0, 92, 80
2, 342240, Note_on_c, 0, 92, 20
2, 342240, Note_on_c, 0, 95, 20
2, 342240, Note_on_c, 0, 97, 47
2, 342480, Note_off_c, 0, 97, 80
2, 342480, Note_off_c, 0, 95, 80
2, 342480, Note_off_c, 0, 92, 80
2, 342480, Note_on_c, 0, 92, 20
2, 342480, Note_on_c, 0, 97, 20
2, 342720, Note_off_c, 0, 97, 80
2, 342720, Note_off_c, 0, 92, 80
2, 342720, Note_on_c, 0, 92, 20
2, 342720, Note_on_c, 0, 95, 20
2, 342720, Note_on_c, 0, 97, 47
2, 342960, Note_off_c, 0, 97, 80
2, 342960, Note_off_c, 0, 95, 80
2, 342960, Note_off_c, 0, 92, 80
2, 342960, Note_on_c, 0, 92, 20
2, 342960, Note_on_c, 0, 97, 20
2, 343200, Note_off_c, 0, 97, 80
2, 343200, Note_off_c, 0, 92, 80
2, 343200, Note_on_c, 0, 92, 20
2, 343200, Note_on_c, 0, 95, 20
2, 343200, Note_on_c, 0, 97, 47
2, 343440, Note_off_c, 0, 97, 80
2, 343440, Note_off_c, 0, 95, 80
2, 343440, Note_off_c, 0, 92, 80
2, 343680, Note_on_c, 0, 95, 39
2, 343680, Note_on_c, 0, 92, 12
2, 344160, Note_off_c, 0, 92, 80
2, 344160, Note_off_c, 0, 95, 80
2, 345840, Note_on_c, 0, 97, 4
2, 345840, Note_on_c, 0, 92, 4
2, 345840, Note_on_c, 0, 100, 31
2, 346080, Note_off_c, 0, 100, 80
2, 346080, Note_off_c, 0, 92, 80
2, 346080, Note_off_c, 0, 97, 80
2, 346080, Note_on_c, 0, 100, 31
2, 346080, Note_on_c, 0, 92, 4
2, 346080, Note_on_c, 0, 97, 4
2, 346320, Note_off_c, 0, 97, 80
2, 346320, Note_off_c, 0, 92, 80
2, 346320, Note_off_c, 0, 100, 80
2, 346320, Note_on_c, 0, 100, 31
2, 346320, Note_on_c, 0, 97, 4
2, 346320, Note_on_c, 0, 92, 4
2, 346560, Note_off_c, 0, 92, 80
2, 346560, Note_off_c, 0, 97, 80
2, 346560, Note_off_c, 0, 100, 80
2, 346560, Note_on_c, 0, 100, 31
2, 346560, Note_on_c, 0, 97, 31
2, 346560, Note_on_c, 0, 92, 31
2, 346680, Note_off_c, 0, 92, 80
2, 346680, Note_off_c, 0, 97, 80
2, 346680, Note_off_c, 0, 100, 80
2, 347040, Note_on_c, 0, 92, 4
2, 347040, Note_on_c, 0, 100, 31
2, 347040, Note_on_c, 0, 97, 4
2, 347520, Note_off_c, 0, 97, 80
2, 347520, Note_off_c, 0, 100, 80
2, 347520, Note_off_c, 0, 92, 80
2, 347520, Note_on_c, 0, 99, 23
2, 347520, Note_on_c, 0, 92, 23
2, 348000, Note_off_c, 0, 92, 80
2, 348000, Note_off_c, 0, 99, 80
2, 349440, Note_on_c, 0, 92, 1
2, 349440, Note_on_c, 0, 95, 1
2, 349440, Note_on_c, 0, 97, 15
2, 349680, Note_off_c, 0, 97, 80
2, 349680, Note_off_c, 0, 95, 80
2, 349680, Note_off_c, 0, 92, 80
2, 349680, Note_on_c, 0, 92, 1
2, 349680, Note_on_c, 0, 97, 1
2, 349920, Note_off_c, 0, 97, 80
2, 349920, Note_off_c, 0, 92, 80
2, 349920, Note_on_c, 0, 92, 1
2, 349920, Note_on_c, 0, 95, 1
2, 349920, Note_on_c, 0, 97, 15
2, 350160, Note_off_c, 0, 97, 80
2, 350160, Note_off_c, 0, 95, 80
2, 350160, Note_off_c, 0, 92, 80
2, 350160, Note_on_c, 0, 92, 1
2, 350160, Note_on_c, 0, 97, 1
2, 350400, Note_off_c, 0, 97, 80
2, 350400, Note_off_c, 0, 92, 80
2, 350400, Note_on_c, 0, 92, 1
2, 350400, Note_on_c, 0, 95, 1
2, 350400, Note_on_c, 0, 97, 15
2, 350640, Note_off_c, 0, 97, 80
2, 350640, Note_off_c, 0, 95, 80
2, 350640, Note_off_c, 0, 92, 80
2, 350640, Note_on_c, 0, 92, 1
2, 350640, Note_on_c, 0, 97, 1
2, 350880, Note_off_c, 0, 97, 80
2, 350880, Note_off_c, 0, 92, 80
2, 350880, Note_on_c, 0, 92, 1
2, 350880, Note_on_c, 0, 95, 1
2, 350880, Note_on_c, 0, 97, 15
2, 351120, Note_off_c, 0, 97, 80
2, 351120, Note_off_c, 0, 95, 80
2, 351120, Note_off_c, 0, 92, 80
2, 351360, Note_on_c, 0, 95, 7
2, 351360, Note_on_c, 0, 92, 1
2, 351840, Note_off_c, 0, 92, 80
2, 351840, Note_off_c, 0, 95, 80
2, 351840, End_track
3, 0, Start_track
3, 0, Title_t, "Voices"
3, 0, MIDI_port, 0
3, 0, Channel_prefix, 1
3, 0, Control_c, 1, 7, 109
3, 0, Control_c, 1, 10, 64
3, 0, Control_c, 1, 91, 0
3, 0, Control_c, 1, 93, 0
3, 0, Program_c, 1, 65
3, 14160, Note_on_c, 1, 63, 127
3, 14400, Note_off_c, 1, 63, 80
3, 14400, Note_on_c, 1, 61, 127
3, 14640, Note_off_c, 1, 61, 80
3, 14640, Note_on_c, 1, 59, 127
3, 14880, Note_off_c, 1, 59, 80
3, 14880, Note_on_c, 1, 56, 127
3, 15120, Note_off_c, 1, 56, 80
3, 15120, Note_on_c, 1, 54, 127
3, 15360, Note_off_c, 1, 54, 80
3, 15360, Note_on_c, 1, 61, 127
3, 15600, Note_off_c, 1, 61, 80
3, 15840, Note_on_c, 1, 59, 127
3, 16080, Note_off_c, 1, 59, 80
3, 16320, Note_on_c, 1, 61, 127
3, 16560, Note_off_c, 1, 61, 80
3, 16800, Note_on_c, 1, 59, 127
3, 17040, Note_off_c, 1, 59, 80
3, 17040, Note_on_c, 1, 61, 127
3, 17160, Note_off_c, 1, 61, 80
3, 17520, Note_on_c, 1, 59, 127
3, 17640, Note_off_c, 1, 59, 80
3, 17760, Note_on_c, 1, 63, 127
3, 17760, Note_on_c, 1, 59, 70
3, 18120, Note_off_c, 1, 59, 80
3, 18120, Note_off_c, 1, 63, 80
3, 18240, Note_on_c, 1, 63, 127
3, 18240, Note_on_c, 1, 59, 70
3, 18480, Note_off_c, 1, 59, 80
3, 18480, Note_off_c, 1, 63, 80
3, 19320, Note_on_c, 1, 61, 127
3, 19560, Note_off_c, 1, 61, 80
3, 19680, Note_on_c, 1, 61, 127
3, 19920, Note_off_c, 1, 61, 80
3, 20160, Note_on_c, 1, 59, 127
3, 20400, Note_off_c, 1, 59, 80
3, 20400, Note_on_c, 1, 61, 127
3, 20640, Note_off_c, 1, 61, 80
3, 20880, Note_on_c, 1, 59, 127
3, 21120, Note_off_c, 1, 59, 80
3, 21120, Note_on_c, 1, 61, 127
3, 21360, Note_off_c, 1, 61, 80
3, 21600, Note_on_c, 1, 59, 127
3, 21840, Note_off_c, 1, 59, 80
3, 21840, Note_on_c, 1, 63, 127
3, 21840, Note_on_c, 1, 56, 70
3, 22080, Note_off_c, 1, 56, 80
3, 22080, Note_off_c, 1, 63, 80
3, 22320, Note_on_c, 1, 59, 127
3, 22320, Note_on_c, 1, 54, 70
3, 22560, Note_off_c, 1, 54, 80
3, 22560, Note_off_c, 1, 59, 80
3, 23040, Note_on_c, 1, 61, 127
3, 23280, Note_off_c, 1, 61, 80
3, 23520, Note_on_c, 1, 59, 127
3, 23760, Note_off_c, 1, 59, 80
3, 24000, Note_on_c, 1, 61, 127
3, 24240, Note_off_c, 1, 61, 80
3, 24480, Note_on_c, 1, 59, 127
3, 24720, Note_off_c, 1, 59, 80
3, 24960, Note_on_c, 1, 61, 127
3, 24960, Note_on_c, 1, 59, 70
3, 25200, Note_off_c, 1, 59, 80
3, 25200, Note_off_c, 1, 61, 80
3, 25440, Note_on_c, 1, 59, 127
3, 25680, Note_off_c, 1, 59, 80
3, 25920, Note_on_c, 1, 63, 127
3, 25920, Note_on_c, 1, 59, 70
3, 26160, Note_off_c, 1, 59, 80
3, 26160, Note_off_c, 1, 63, 80
3, 26400, Note_on_c, 1, 56, 127
3, 26640, Note_off_c, 1, 56, 80
3, 26640, Note_on_c, 1, 61, 127
3, 26880, Note_off_c, 1, 61, 80
3, 26880, Note_on_c, 1, 59, 127
3, 27000, Note_off_c, 1, 59, 80
3, 27120, Note_on_c, 1, 61, 127
3, 27360, Note_off_c, 1, 61, 80
3, 27360, Note_on_c, 1, 59, 127
3, 27600, Note_off_c, 1, 59, 80
3, 27600, Note_on_c, 1, 61, 127
3, 27960, Note_off_c, 1, 61, 80
3, 28320, Note_on_c, 1, 59, 127
3, 28560, Note_off_c, 1, 59, 80
3, 28560, Note_on_c, 1, 61, 127
3, 28800, Note_off_c, 1, 61, 80
3, 28800, Note_on_c, 1, 59, 127
3, 29040, Note_off_c, 1, 59, 80
3, 29040, Note_on_c, 1, 56, 127
3, 29400, Note_off_c, 1, 56, 80
3, 30000, Note_on_c, 1, 59, 127
3, 30240, Note_off_c, 1, 59, 80
3, 30240, Note_on_c, 1, 56, 127
3, 30480, Note_off_c, 1, 56, 80
3, 30480, Note_on_c, 1, 54, 127
3, 30720, Note_off_c, 1, 54, 80
3, 30720, Note_on_c, 1, 61, 127
3, 30960, Note_off_c, 1, 61, 80
3, 31200, Note_on_c, 1, 59, 127
3, 31440, Note_off_c, 1, 59, 80
3, 31680, Note_on_c, 1, 61, 127
3, 31920, Note_off_c, 1, 61, 80
3, 32160, Note_on_c, 1, 59, 127
3, 32400, Note_off_c, 1, 59, 80
3, 32400, Note_on_c, 1, 61, 127
3, 32520, Note_off_c, 1, 61, 80
3, 32880, Note_on_c, 1, 59, 127
3, 33000, Note_off_c, 1, 59, 80
3, 33120, Note_on_c, 1, 63, 127
3, 33120, Note_on_c, 1, 59, 70
3, 33480, Note_off_c, 1, 59, 80
3, 33480, Note_off_c, 1, 63, 80
3, 33600, Note_on_c, 1, 63, 127
3, 33600, Note_on_c, 1, 59, 70
3, 33840, Note_off_c, 1, 59, 80
3, 33840, Note_off_c, 1, 63, 80
3, 34680, Note_on_c, 1, 61, 127
3, 34920, Note_off_c, 1, 61, 80
3, 35040, Note_on_c, 1, 61, 127
3, 35280, Note_off_c, 1, 61, 80
3, 35520, Note_on_c, 1, 59, 127
3, 35760, Note_off_c, 1, 59, 80
3, 35760, Note_on_c, 1, 61, 127
3, 36000, Note_off_c, 1, 61, 80
3, 36240, Note_on_c, 1, 61, 127
3, 36480, Note_off_c, 1, 61, 80
3, 36480, Note_on_c, 1, 59, 127
3, 36720, Note_off_c, 1, 59, 80
3, 36720, Note_on_c, 1, 56, 70
3, 36720, Note_on_c, 1, 63, 127
3, 36960, Note_off_c, 1, 63, 80
3, 36960, Note_off_c, 1, 56, 80
3, 36960, Note_on_c, 1, 59, 127
3, 36960, Note_on_c, 1, 54, 70
3, 37200, Note_off_c, 1, 54, 80
3, 37200, Note_off_c, 1, 59, 80
3, 37440, Note_on_c, 1, 56, 127
3, 37680, Note_off_c, 1, 56, 80
3, 37920, Note_on_c, 1, 56, 127
3, 38160, Note_off_c, 1, 56, 80
3, 38160, Note_on_c, 1, 61, 127
3, 38400, Note_off_c, 1, 61, 80
3, 38400, Note_on_c, 1, 59, 127
3, 38520, Note_off_c, 1, 59, 80
3, 38640, Note_on_c, 1, 61, 127
3, 38880, Note_off_c, 1, 61, 80
3, 38880, Note_on_c, 1, 59, 127
3, 39120, Note_off_c, 1, 59, 80
3, 39120, Note_on_c, 1, 61, 127
3, 39480, Note_off_c, 1, 61, 80
3, 39840, Note_on_c, 1, 59, 127
3, 39840, Note_on_c, 1, 64, 70
3, 40080, Note_off_c, 1, 64, 80
3, 40080, Note_off_c, 1, 59, 80
3, 40080, Note_on_c, 1, 61, 127
3, 40080, Note_on_c, 1, 64, 70
3, 40320, Note_off_c, 1, 64, 80
3, 40320, Note_off_c, 1, 61, 80
3, 40320, Note_on_c, 1, 59, 127
3, 40320, Note_on_c, 1, 63, 70
3, 40560, Note_off_c, 1, 63, 80
3, 40560, Note_off_c, 1, 59, 80
3, 40560, Note_on_c, 1, 61, 127
3, 40560, Note_on_c, 1, 64, 70
3, 40800, Note_off_c, 1, 64, 80
3, 40800, Note_off_c, 1, 61, 80
3, 40800, Note_on_c, 1, 59, 127
3, 40800, Note_on_c, 1, 63, 70
3, 41040, Note_off_c, 1, 63, 80
3, 41040, Note_off_c, 1, 59, 80
3, 41040, Note_on_c, 1, 61, 127
3, 41040, Note_on_c, 1, 64, 70
3, 41280, Note_off_c, 1, 64, 80
3, 41280, Note_off_c, 1, 61, 80
3, 41280, Note_on_c, 1, 59, 127
3, 41280, Note_on_c, 1, 63, 70
3, 41520, Note_off_c, 1, 63, 80
3, 41520, Note_off_c, 1, 59, 80
3, 41520, Note_on_c, 1, 61, 127
3, 41520, Note_on_c, 1, 64, 70
3, 41760, Note_off_c, 1, 64, 80
3, 41760, Note_off_c, 1, 61, 80
3, 41760, Note_on_c, 1, 59, 127
3, 41760, Note_on_c, 1, 63, 70
3, 42000, Note_off_c, 1, 63, 80
3, 42000, Note_off_c, 1, 59, 80
3, 42000, Note_on_c, 1, 61, 127
3, 42000, Note_on_c, 1, 64, 70
3, 42240, Note_off_c, 1, 64, 80
3, 42240, Note_off_c, 1, 61, 80
3, 42240, Note_on_c, 1, 59, 127
3, 42240, Note_on_c, 1, 63, 70
3, 42480, Note_off_c, 1, 63, 80
3, 42480, Note_off_c, 1, 59, 80
3, 42480, Note_on_c, 1, 61, 127
3, 42480, Note_on_c, 1, 64, 70
3, 42720, Note_off_c, 1, 64, 80
3, 42720, Note_off_c, 1, 61, 80
3, 42720, Note_on_c, 1, 59, 127
3, 42960, Note_off_c, 1, 59, 80
3, 42960, Note_on_c, 1, 61, 127
3, 43200, Note_off_c, 1, 61, 80
3, 43200, Note_on_c, 1, 59, 127
3, 43440, Note_off_c, 1, 59, 80
3, 43440, Note_on_c, 1, 61, 127
3, 43680, Note_off_c, 1, 61, 80
3, 43680, Note_on_c, 1, 59, 127
3, 43920, Note_off_c, 1, 59, 80
3, 43920, Note_on_c, 1, 61, 127
3, 44400, Note_off_c, 1, 61, 80
3, 44400, Note_on_c, 1, 59, 127
3, 44760, Note_off_c, 1, 59, 80
3, 45840, Note_on_c, 1, 59, 127
3, 46080, Note_off_c, 1, 59, 80
3, 46080, Note_on_c, 1, 63, 127
3, 46440, Note_off_c, 1, 63, 80
3, 46560, Note_on_c, 1, 63, 127
3, 46920, Note_off_c, 1, 63, 80
3, 47280, Note_on_c, 1, 59, 127
3, 47520, Note_off_c, 1, 59, 80
3, 47520, Note_on_c, 1, 59, 127
3, 47760, Note_off_c, 1, 59, 80
3, 47760, Note_on_c, 1, 61, 127
3, 48000, Note_off_c, 1, 61, 80
3, 48000, Note_on_c, 1, 61, 127
3, 48240, Note_off_c, 1, 61, 80
3, 48240, Note_on_c, 1, 59, 127
3, 48480, Note_off_c, 1, 59, 80
3, 48480, Note_on_c, 1, 59, 127
3, 48720, Note_off_c, 1, 59, 80
3, 48720, Note_on_c, 1, 61, 127
3, 48960, Note_off_c, 1, 61, 80
3, 48960, Note_on_c, 1, 59, 127
3, 49200, Note_off_c, 1, 59, 80
3, 49200, Note_on_c, 1, 59, 127
3, 49440, Note_off_c, 1, 59, 80
3, 49440, Note_on_c, 1, 61, 127
3, 49680, Note_off_c, 1, 61, 80
3, 49680, Note_on_c, 1, 59, 127
3, 49920, Note_off_c, 1, 59, 80
3, 49920, Note_on_c, 1, 59, 127
3, 50160, Note_off_c, 1, 59, 80
3, 50160, Note_on_c, 1, 61, 127
3, 50400, Note_off_c, 1, 61, 80
3, 50400, Note_on_c, 1, 59, 127
3, 50640, Note_off_c, 1, 59, 80
3, 50640, Note_on_c, 1, 59, 127
3, 50880, Note_off_c, 1, 59, 80
3, 50880, Note_on_c, 1, 61, 127
3, 51120, Note_off_c, 1, 61, 80
3, 51360, Note_on_c, 1, 63, 127
3, 51600, Note_off_c, 1, 63, 80
3, 51840, Note_on_c, 1, 63, 127
3, 52080, Note_off_c, 1, 63, 80
3, 53520, Note_on_c, 1, 59, 127
3, 53760, Note_off_c, 1, 59, 80
3, 53760, Note_on_c, 1, 63, 127
3, 54120, Note_off_c, 1, 63, 80
3, 54240, Note_on_c, 1, 63, 127
3, 54600, Note_off_c, 1, 63, 80
3, 54960, Note_on_c, 1, 59, 127
3, 55200, Note_off_c, 1, 59, 80
3, 55200, Note_on_c, 1, 59, 127
3, 55440, Note_off_c, 1, 59, 80
3, 55440, Note_on_c, 1, 61, 127
3, 55680, Note_off_c, 1, 61, 80
3, 55680, Note_on_c, 1, 61, 127
3, 55920, Note_off_c, 1, 61, 80
3, 55920, Note_on_c, 1, 59, 127
3, 56160, Note_off_c, 1, 59, 80
3, 56160, Note_on_c, 1, 59, 127
3, 56400, Note_off_c, 1, 59, 80
3, 56400, Note_on_c, 1, 61, 127
3, 56640, Note_off_c, 1, 61, 80
3, 56640, Note_on_c, 1, 59, 127
3, 56880, Note_off_c, 1, 59, 80
3, 56880, Note_on_c, 1, 59, 127
3, 57120, Note_off_c, 1, 59, 80
3, 57120, Note_on_c, 1, 61, 127
3, 57360, Note_off_c, 1, 61, 80
3, 57360, Note_on_c, 1, 59, 127
3, 57600, Note_off_c, 1, 59, 80
3, 57600, Note_on_c, 1, 59, 127
3, 57840, Note_off_c, 1, 59, 80
3, 57840, Note_on_c, 1, 61, 127
3, 58080, Note_off_c, 1, 61, 80
3, 58320, Note_on_c, 1, 59, 127
3, 58560, Note_off_c, 1, 59, 80
3, 58560, Note_on_c, 1, 61, 127
3, 58800, Note_off_c, 1, 61, 80
3, 58800, Note_on_c, 1, 59, 127
3, 59040, Note_off_c, 1, 59, 80
3, 59040, Note_on_c, 1, 63, 127
3, 59280, Note_off_c, 1, 63, 80
3, 59520, Note_on_c, 1, 63, 127
3, 59760, Note_off_c, 1, 63, 80
3, 60720, Note_on_c, 1, 59, 127
3, 60960, Note_off_c, 1, 59, 80
3, 60960, Note_on_c, 1, 61, 127
3, 61200, Note_off_c, 1, 61, 80
3, 61200, Note_on_c, 1, 63, 127
3, 61440, Note_off_c, 1, 63, 80
3, 61440, Note_on_c, 1, 63, 127
3, 61680, Note_off_c, 1, 63, 80
3, 61920, Note_on_c, 1, 66, 127
3, 62160, Note_off_c, 1, 66, 80
3, 62400, Note_on_c, 1, 64, 127
3, 62640, Note_off_c, 1, 64, 80
3, 62880, Note_on_c, 1, 63, 127
3, 63120, Note_off_c, 1, 63, 80
3, 63360, Note_on_c, 1, 61, 127
3, 63960, Note_off_c, 1, 61, 80
3, 64560, Note_on_c, 1, 59, 127
3, 64800, Note_off_c, 1, 59, 80
3, 64800, Note_on_c, 1, 61, 127
3, 65040, Note_off_c, 1, 61, 80
3, 65040, Note_on_c, 1, 63, 127
3, 65280, Note_off_c, 1, 63, 80
3, 65280, Note_on_c, 1, 63, 127
3, 65520, Note_off_c, 1, 63, 80
3, 65760, Note_on_c, 1, 66, 127
3, 66000, Note_off_c, 1, 66, 80
3, 66240, Note_on_c, 1, 64, 127
3, 66480, Note_off_c, 1, 64, 80
3, 66720, Note_on_c, 1, 63, 127
3, 66960, Note_off_c, 1, 63, 80
3, 67200, Note_on_c, 1, 61, 127
3, 67680, Note_off_c, 1, 61, 80
3, 68400, Note_on_c, 1, 59, 127
3, 68640, Note_off_c, 1, 59, 80
3, 68640, Note_on_c, 1, 61, 127
3, 68880, Note_off_c, 1, 61, 80
3, 68880, Note_on_c, 1, 63, 127
3, 69120, Note_off_c, 1, 63, 80
3, 69120, Note_on_c, 1, 63, 127
3, 69360, Note_off_c, 1, 63, 80
3, 69600, Note_on_c, 1, 66, 127
3, 69840, Note_off_c, 1, 66, 80
3, 70080, Note_on_c, 1, 64, 127
3, 70320, Note_off_c, 1, 64, 80
3, 70560, Note_on_c, 1, 63, 127
3, 70800, Note_off_c, 1, 63, 80
3, 71040, Note_on_c, 1, 61, 127
3, 71520, Note_off_c, 1, 61, 80
3, 71520, Note_on_c, 1, 59, 127
3, 71760, Note_off_c, 1, 59, 80
3, 71760, Note_on_c, 1, 59, 127
3, 72000, Note_off_c, 1, 59, 80
3, 72000, Note_on_c, 1, 61, 127
3, 72240, Note_off_c, 1, 61, 80
3, 72240, Note_on_c, 1, 61, 127
3, 72480, Note_off_c, 1, 61, 80
3, 72480, Note_on_c, 1, 61, 127
3, 72720, Note_off_c, 1, 61, 80
3, 72720, Note_on_c, 1, 59, 127
3, 72960, Note_off_c, 1, 59, 80
3, 72960, Note_on_c, 1, 59, 127
3, 73200, Note_off_c, 1, 59, 80
3, 73200, Note_on_c, 1, 61, 127
3, 73440, Note_off_c, 1, 61, 80
3, 73440, Note_on_c, 1, 59, 127
3, 73680, Note_off_c, 1, 59, 80
3, 73680, Note_on_c, 1, 61, 127
3, 73920, Note_off_c, 1, 61, 80
3, 73920, Note_on_c, 1, 59, 127
3, 74160, Note_off_c, 1, 59, 80
3, 74160, Note_on_c, 1, 61, 127
3, 74400, Note_off_c, 1, 61, 80
3, 74640, Note_on_c, 1, 63, 127
3, 74880, Note_off_c, 1, 63, 80
3, 75120, Note_on_c, 1, 59, 127
3, 75360, Note_off_c, 1, 59, 80
3, 76320, Note_on_c, 1, 68, 127
3, 76320, Note_on_c, 1, 63, 127
3, 76800, Note_off_c, 1, 63, 80
3, 76800, Note_off_c, 1, 68, 80
3, 76800, Note_on_c, 1, 68, 127
3, 76800, Note_on_c, 1, 63, 127
3, 77040, Note_off_c, 1, 63, 80
3, 77040, Note_off_c, 1, 68, 80
3, 77520, Note_on_c, 1, 59, 127
3, 77760, Note_off_c, 1, 59, 80
3, 77760, Note_on_c, 1, 61, 127
3, 78000, Note_off_c, 1, 61, 80
3, 78000, Note_on_c, 1, 59, 127
3, 78240, Note_off_c, 1, 59, 80
3, 78240, Note_on_c, 1, 61, 127
3, 78480, Note_off_c, 1, 61, 80
3, 78480, Note_on_c, 1, 63, 127
3, 78720, Note_off_c, 1, 63, 80
3, 78720, Note_on_c, 1, 59, 127
3, 78960, Note_off_c, 1, 59, 80
3, 79680, Note_on_c, 1, 61, 127
3, 79920, Note_off_c, 1, 61, 80
3, 80160, Note_on_c, 1, 61, 127
3, 80400, Note_off_c, 1, 61, 80
3, 80400, Note_on_c, 1, 59, 127
3, 80640, Note_off_c, 1, 59, 80
3, 80640, Note_on_c, 1, 61, 127
3, 80880, Note_off_c, 1, 61, 80
3, 80880, Note_on_c, 1, 59, 127
3, 81120, Note_off_c, 1, 59, 80
3, 81120, Note_on_c, 1, 61, 127
3, 81360, Note_off_c, 1, 61, 80
3, 81600, Note_on_c, 1, 61, 127
3, 81840, Note_off_c, 1, 61, 80
3, 82080, Note_on_c, 1, 66, 127
3, 82320, Note_off_c, 1, 66, 80
3, 82560, Note_on_c, 1, 63, 127
3, 82800, Note_off_c, 1, 63, 80
3, 83040, Note_on_c, 1, 61, 127
3, 83400, Note_off_c, 1, 61, 80
3, 83520, Note_on_c, 1, 61, 127
3, 83760, Note_off_c, 1, 61, 80
3, 83760, Note_on_c, 1, 59, 127
3, 84000, Note_off_c, 1, 59, 80
3, 84000, Note_on_c, 1, 56, 127
3, 84000, Note_on_c, 1, 61, 127
3, 84240, Note_off_c, 1, 61, 80
3, 84240, Note_off_c, 1, 56, 80
3, 84240, Note_on_c, 1, 59, 127
3, 84480, Note_off_c, 1, 59, 80
3, 84480, Note_on_c, 1, 61, 127
3, 84720, Note_off_c, 1, 61, 80
3, 84960, Note_on_c, 1, 61, 127
3, 85200, Note_off_c, 1, 61, 80
3, 85440, Note_on_c, 1, 61, 127
3, 85680, Note_off_c, 1, 61, 80
3, 85680, Note_on_c, 1, 59, 127
3, 85920, Note_off_c, 1, 59, 80
3, 85920, Note_on_c, 1, 63, 127
3, 86160, Note_off_c, 1, 63, 80
3, 86400, Note_on_c, 1, 59, 127
3, 86880, Note_off_c, 1, 59, 80
3, 87360, Note_on_c, 1, 61, 127
3, 87600, Note_off_c, 1, 61, 80
3, 87840, Note_on_c, 1, 61, 127
3, 88080, Note_off_c, 1, 61, 80
3, 88080, Note_on_c, 1, 59, 127
3, 88320, Note_off_c, 1, 59, 80
3, 88320, Note_on_c, 1, 61, 127
3, 88560, Note_off_c, 1, 61, 80
3, 88800, Note_on_c, 1, 61, 127
3, 89040, Note_off_c, 1, 61, 80
3, 89040, Note_on_c, 1, 59, 127
3, 89280, Note_off_c, 1, 59, 80
3, 89280, Note_on_c, 1, 63, 127
3, 89640, Note_off_c, 1, 63, 80
3, 89760, Note_on_c, 1, 56, 127
3, 90000, Note_off_c, 1, 56, 80
3, 90000, Note_on_c, 1, 59, 127
3, 90240, Note_off_c, 1, 59, 80
3, 91200, Note_on_c, 1, 63, 127
3, 91560, Note_off_c, 1, 63, 80
3, 91680, Note_on_c, 1, 68, 127
3, 91680, Note_on_c, 1, 63, 127
3, 92040, Note_off_c, 1, 63, 80
3, 92040, Note_off_c, 1, 68, 80
3, 92160, Note_on_c, 1, 68, 127
3, 92160, Note_on_c, 1, 63, 127
3, 92400, Note_off_c, 1, 63, 80
3, 92400, Note_off_c, 1, 68, 80
3, 92880, Note_on_c, 1, 56, 127
3, 93120, Note_off_c, 1, 56, 80
3, 93120, Note_on_c, 1, 61, 127
3, 93360, Note_off_c, 1, 61, 80
3, 93360, Note_on_c, 1, 59, 127
3, 93600, Note_off_c, 1, 59, 80
3, 93600, Note_on_c, 1, 63, 127
3, 94080, Note_off_c, 1, 63, 80
3, 94080, Note_on_c, 1, 59, 127
3, 94320, Note_off_c, 1, 59, 80
3, 94560, Note_on_c, 1, 63, 127
3, 94800, Note_off_c, 1, 63, 80
3, 95040, Note_on_c, 1, 66, 127
3, 95040, Note_on_c, 1, 61, 127
3, 95280, Note_off_c, 1, 61, 80
3, 95280, Note_off_c, 1, 66, 80
3, 95520, Note_on_c, 1, 61, 127
3, 95760, Note_off_c, 1, 61, 80
3, 95760, Note_on_c, 1, 59, 127
3, 96000, Note_off_c, 1, 59, 80
3, 96000, Note_on_c, 1, 61, 127
3, 96240, Note_off_c, 1, 61, 80
3, 96240, Note_on_c, 1, 59, 127
3, 96480, Note_off_c, 1, 59, 80
3, 96480, Note_on_c, 1, 61, 127
3, 96720, Note_off_c, 1, 61, 80
3, 96960, Note_on_c, 1, 61, 127
3, 97200, Note_off_c, 1, 61, 80
3, 97440, Note_on_c, 1, 66, 127
3, 97680, Note_off_c, 1, 66, 80
3, 97920, Note_on_c, 1, 63, 127
3, 98160, Note_off_c, 1, 63, 80
3, 98400, Note_on_c, 1, 61, 127
3, 98760, Note_off_c, 1, 61, 80
3, 98880, Note_on_c, 1, 61, 127
3, 99120, Note_off_c, 1, 61, 80
3, 99120, Note_on_c, 1, 59, 127
3, 99360, Note_off_c, 1, 59, 80
3, 99360, Note_on_c, 1, 56, 127
3, 99360, Note_on_c, 1, 61, 127
3, 99600, Note_off_c, 1, 61, 80
3, 99600, Note_off_c, 1, 56, 80
3, 99600, Note_on_c, 1, 59, 127
3, 99840, Note_off_c, 1, 59, 80
3, 99840, Note_on_c, 1, 61, 127
3, 100080, Note_off_c, 1, 61, 80
3, 100320, Note_on_c, 1, 61, 127
3, 100560, Note_off_c, 1, 61, 80
3, 100800, Note_on_c, 1, 59, 127
3, 101040, Note_off_c, 1, 59, 80
3, 101280, Note_on_c, 1, 63, 127
3, 101520, Note_off_c, 1, 63, 80
3, 101760, Note_on_c, 1, 56, 127
3, 102000, Note_off_c, 1, 56, 80
3, 102000, Note_on_c, 1, 59, 127
3, 102240, Note_off_c, 1, 59, 80
3, 102720, Note_on_c, 1, 61, 127
3, 102960, Note_off_c, 1, 61, 80
3, 102960, Note_on_c, 1, 59, 127
3, 103200, Note_off_c, 1, 59, 80
3, 103200, Note_on_c, 1, 61, 127
3, 103440, Note_off_c, 1, 61, 80
3, 103440, Note_on_c, 1, 59, 127
3, 103680, Note_off_c, 1, 59, 80
3, 103680, Note_on_c, 1, 61, 127
3, 103920, Note_off_c, 1, 61, 80
3, 103920, Note_on_c, 1, 59, 127
3, 104160, Note_off_c, 1, 59, 80
3, 104160, Note_on_c, 1, 61, 127
3, 104400, Note_off_c, 1, 61, 80
3, 104400, Note_on_c, 1, 59, 127
3, 104640, Note_off_c, 1, 59, 80
3, 104640, Note_on_c, 1, 64, 127
3, 104880, Note_off_c, 1, 64, 80
3, 104880, Note_on_c, 1, 66, 127
3, 105120, Note_off_c, 1, 66, 80
3, 105120, Note_on_c, 1, 68, 127
3, 105360, Note_off_c, 1, 68, 80
3, 105360, Note_on_c, 1, 70, 127
3, 105840, Note_off_c, 1, 70, 80
3, 105840, Note_on_c, 1, 71, 127
3, 106080, Note_off_c, 1, 71, 80
3, 106080, Note_on_c, 1, 69, 127
3, 106320, Note_off_c, 1, 69, 80
3, 106320, Note_on_c, 1, 63, 127
3, 106320, Note_on_c, 1, 68, 127
3, 106560, Note_off_c, 1, 68, 80
3, 106560, Note_off_c, 1, 63, 80
3, 106560, Note_on_c, 1, 61, 127
3, 106560, Note_on_c, 1, 71, 127
3, 106680, Note_off_c, 1, 71, 80
3, 106800, Note_off_c, 1, 61, 80
3, 106800, Note_on_c, 1, 59, 127
3, 107040, Note_off_c, 1, 59, 80
3, 107040, Note_on_c, 1, 56, 127
3, 107280, Note_off_c, 1, 56, 80
3, 107280, Note_on_c, 1, 54, 127
3, 107520, Note_off_c, 1, 54, 80
3, 107520, Note_on_c, 1, 61, 127
3, 107760, Note_off_c, 1, 61, 80
3, 108000, Note_on_c, 1, 59, 127
3, 108240, Note_off_c, 1, 59, 80
3, 108480, Note_on_c, 1, 61, 127
3, 108720, Note_off_c, 1, 61, 80
3, 108960, Note_on_c, 1, 59, 127
3, 109200, Note_off_c, 1, 59, 80
3, 109200, Note_on_c, 1, 61, 127
3, 109320, Note_off_c, 1, 61, 80
3, 109680, Note_on_c, 1, 59, 127
3, 109800, Note_off_c, 1, 59, 80
3, 109920, Note_on_c, 1, 63, 127
3, 109920, Note_on_c, 1, 59, 70
3, 110280, Note_off_c, 1, 59, 80
3, 110280, Note_off_c, 1, 63, 80
3, 110400, Note_on_c, 1, 63, 127
3, 110400, Note_on_c, 1, 59, 70
3, 110640, Note_off_c, 1, 59, 80
3, 110640, Note_off_c, 1, 63, 80
3, 111480, Note_on_c, 1, 61, 127
3, 111720, Note_off_c, 1, 61, 80
3, 111840, Note_on_c, 1, 61, 127
3, 112080, Note_off_c, 1, 61, 80
3, 112320, Note_on_c, 1, 59, 127
3, 112560, Note_off_c, 1, 59, 80
3, 112560, Note_on_c, 1, 61, 127
3, 112800, Note_off_c, 1, 61, 80
3, 113040, Note_on_c, 1, 59, 127
3, 113280, Note_off_c, 1, 59, 80
3, 113280, Note_on_c, 1, 61, 127
3, 113520, Note_off_c, 1, 61, 80
3, 113760, Note_on_c, 1, 59, 127
3, 114000, Note_off_c, 1, 59, 80
3, 114000, Note_on_c, 1, 63, 127
3, 114000, Note_on_c, 1, 56, 70
3, 114240, Note_off_c, 1, 56, 80
3, 114240, Note_off_c, 1, 63, 80
3, 114480, Note_on_c, 1, 59, 127
3, 114480, Note_on_c, 1, 54, 70
3, 114720, Note_off_c, 1, 54, 80
3, 114720, Note_off_c, 1, 59, 80
3, 115200, Note_on_c, 1, 61, 127
3, 115440, Note_off_c, 1, 61, 80
3, 115680, Note_on_c, 1, 59, 127
3, 115920, Note_off_c, 1, 59, 80
3, 116160, Note_on_c, 1, 61, 127
3, 116400, Note_off_c, 1, 61, 80
3, 116640, Note_on_c, 1, 59, 127
3, 116880, Note_off_c, 1, 59, 80
3, 117120, Note_on_c, 1, 61, 127
3, 117120, Note_on_c, 1, 59, 70
3, 117360, Note_off_c, 1, 59, 80
3, 117360, Note_off_c, 1, 61, 80
3, 117600, Note_on_c, 1, 59, 127
3, 117840, Note_off_c, 1, 59, 80
3, 118080, Note_on_c, 1, 63, 127
3, 118080, Note_on_c, 1, 59, 70
3, 118320, Note_off_c, 1, 59, 80
3, 118320, Note_off_c, 1, 63, 80
3, 118560, Note_on_c, 1, 56, 127
3, 118800, Note_off_c, 1, 56, 80
3, 118800, Note_on_c, 1, 61, 127
3, 119040, Note_off_c, 1, 61, 80
3, 119040, Note_on_c, 1, 59, 127
3, 119160, Note_off_c, 1, 59, 80
3, 119280, Note_on_c, 1, 61, 127
3, 119520, Note_off_c, 1, 61, 80
3, 119520, Note_on_c, 1, 59, 127
3, 119760, Note_off_c, 1, 59, 80
3, 119760, Note_on_c, 1, 61, 127
3, 120120, Note_off_c, 1, 61, 80
3, 120480, Note_on_c, 1, 59, 127
3, 120720, Note_off_c, 1, 59, 80
3, 120720, Note_on_c, 1, 61, 127
3, 120960, Note_off_c, 1, 61, 80
3, 120960, Note_on_c, 1, 59, 127
3, 121200, Note_off_c, 1, 59, 80
3, 121200, Note_on_c, 1, 56, 127
3, 121560, Note_off_c, 1, 56, 80
3, 122160, Note_on_c, 1, 59, 127
3, 122400, Note_off_c, 1, 59, 80
3, 122400, Note_on_c, 1, 56, 127
3, 122640, Note_off_c, 1, 56, 80
3, 122640, Note_on_c, 1, 54, 127
3, 122880, Note_off_c, 1, 54, 80
3, 122880, Note_on_c, 1, 61, 127
3, 123120, Note_off_c, 1, 61, 80
3, 123360, Note_on_c, 1, 59, 127
3, 123600, Note_off_c, 1, 59, 80
3, 123840, Note_on_c, 1, 61, 127
3, 124080, Note_off_c, 1, 61, 80
3, 124320, Note_on_c, 1, 59, 127
3, 124560, Note_off_c, 1, 59, 80
3, 124560, Note_on_c, 1, 61, 127
3, 124680, Note_off_c, 1, 61, 80
3, 125040, Note_on_c, 1, 59, 127
3, 125160, Note_off_c, 1, 59, 80
3, 125280, Note_on_c, 1, 63, 127
3, 125280, Note_on_c, 1, 59, 70
3, 125640, Note_off_c, 1, 59, 80
3, 125640, Note_off_c, 1, 63, 80
3, 125760, Note_on_c, 1, 63, 127
3, 125760, Note_on_c, 1, 59, 70
3, 126000, Note_off_c, 1, 59, 80
3, 126000, Note_off_c, 1, 63, 80
3, 126840, Note_on_c, 1, 61, 127
3, 127080, Note_off_c, 1, 61, 80
3, 127200, Note_on_c, 1, 61, 127
3, 127440, Note_off_c, 1, 61, 80
3, 127680, Note_on_c, 1, 59, 127
3, 127920, Note_off_c, 1, 59, 80
3, 127920, Note_on_c, 1, 61, 127
3, 128160, Note_off_c, 1, 61, 80
3, 128400, Note_on_c, 1, 61, 127
3, 128640, Note_off_c, 1, 61, 80
3, 128640, Note_on_c, 1, 59, 127
3, 128880, Note_off_c, 1, 59, 80
3, 128880, Note_on_c, 1, 56, 70
3, 128880, Note_on_c, 1, 63, 127
3, 129120, Note_off_c, 1, 63, 80
3, 129120, Note_off_c, 1, 56, 80
3, 129120, Note_on_c, 1, 59, 127
3, 129120, Note_on_c, 1, 54, 70
3, 129360, Note_off_c, 1, 54, 80
3, 129360, Note_off_c, 1, 59, 80
3, 129600, Note_on_c, 1, 56, 127
3, 129840, Note_off_c, 1, 56, 80
3, 130080, Note_on_c, 1, 56, 127
3, 130320, Note_off_c, 1, 56, 80
3, 130320, Note_on_c, 1, 61, 127
3, 130560, Note_off_c, 1, 61, 80
3, 130560, Note_on_c, 1, 59, 127
3, 130680, Note_off_c, 1, 59, 80
3, 130800, Note_on_c, 1, 61, 127
3, 131040, Note_off_c, 1, 61, 80
3, 131040, Note_on_c, 1, 59, 127
3, 131280, Note_off_c, 1, 59, 80
3, 131280, Note_on_c, 1, 61, 127
3, 131640, Note_off_c, 1, 61, 80
3, 132000, Note_on_c, 1, 59, 127
3, 132000, Note_on_c, 1, 64, 70
3, 132000, Note_on_c, 1, 66, 127
3, 132240, Note_off_c, 1, 66, 80
3, 132240, Note_off_c, 1, 64, 80
3, 132240, Note_off_c, 1, 59, 80
3, 132240, Note_on_c, 1, 61, 127
3, 132240, Note_on_c, 1, 64, 70
3, 132240, Note_on_c, 1, 66, 127
3, 132480, Note_off_c, 1, 66, 80
3, 132480, Note_off_c, 1, 64, 80
3, 132480, Note_off_c, 1, 61, 80
3, 132480, Note_on_c, 1, 59, 127
3, 132480, Note_on_c, 1, 63, 70
3, 132480, Note_on_c, 1, 66, 127
3, 132720, Note_off_c, 1, 66, 80
3, 132720, Note_off_c, 1, 63, 80
3, 132720, Note_off_c, 1, 59, 80
3, 132720, Note_on_c, 1, 61, 127
3, 132720, Note_on_c, 1, 64, 70
3, 132720, Note_on_c, 1, 68, 127
3, 132960, Note_off_c, 1, 68, 80
3, 132960, Note_off_c, 1, 64, 80
3, 132960, Note_off_c, 1, 61, 80
3, 132960, Note_on_c, 1, 59, 127
3, 132960, Note_on_c, 1, 63, 70
3, 132960, Note_on_c, 1, 66, 127
3, 133200, Note_off_c, 1, 66, 80
3, 133200, Note_off_c, 1, 63, 80
3, 133200, Note_off_c, 1, 59, 80
3, 133200, Note_on_c, 1, 61, 127
3, 133200, Note_on_c, 1, 64, 70
3, 133200, Note_on_c, 1, 66, 127
3, 133440, Note_off_c, 1, 66, 80
3, 133440, Note_off_c, 1, 64, 80
3, 133440, Note_off_c, 1, 61, 80
3, 133440, Note_on_c, 1, 59, 127
3, 133440, Note_on_c, 1, 63, 70
3, 133440, Note_on_c, 1, 66, 127
3, 133680, Note_off_c, 1, 66, 80
3, 133680, Note_off_c, 1, 63, 80
3, 133680, Note_off_c, 1, 59, 80
3, 133680, Note_on_c, 1, 61, 127
3, 133680, Note_on_c, 1, 64, 70
3, 133680, Note_on_c, 1, 68, 127
3, 133920, Note_off_c, 1, 68, 80
3, 133920, Note_off_c, 1, 64, 80
3, 133920, Note_off_c, 1, 61, 80
3, 133920, Note_on_c, 1, 59, 127
3, 133920, Note_on_c, 1, 63, 70
3, 133920, Note_on_c, 1, 66, 127
3, 134160, Note_off_c, 1, 66, 80
3, 134160, Note_off_c, 1, 63, 80
3, 134160, Note_off_c, 1, 59, 80
3, 134160, Note_on_c, 1, 61, 127
3, 134160, Note_on_c, 1, 64, 70
3, 134160, Note_on_c, 1, 66, 127
3, 134400, Note_off_c, 1, 66, 80
3, 134400, Note_off_c, 1, 64, 80
3, 134400, Note_off_c, 1, 61, 80
3, 134400, Note_on_c, 1, 59, 127
3, 134400, Note_on_c, 1, 63, 70
3, 134400, Note_on_c, 1, 66, 127
3, 134640, Note_off_c, 1, 66, 80
3, 134640, Note_off_c, 1, 63, 80
3, 134640, Note_off_c, 1, 59, 80
3, 134640, Note_on_c, 1, 61, 127
3, 134640, Note_on_c, 1, 64, 70
3, 134640, Note_on_c, 1, 68, 127
3, 134880, Note_off_c, 1, 68, 80
3, 134880, Note_off_c, 1, 64, 80
3, 134880, Note_off_c, 1, 61, 80
3, 134880, Note_on_c, 1, 59, 127
3, 135120, Note_off_c, 1, 59, 80
3, 135120, Note_on_c, 1, 61, 127
3, 135360, Note_off_c, 1, 61, 80
3, 135360, Note_on_c, 1, 59, 127
3, 135600, Note_off_c, 1, 59, 80
3, 135600, Note_on_c, 1, 61, 127
3, 135840, Note_off_c, 1, 61, 80
3, 135840, Note_on_c, 1, 59, 127
3, 136080, Note_off_c, 1, 59, 80
3, 136080, Note_on_c, 1, 61, 127
3, 136080, Note_on_c, 1, 71, 127
3, 136320, Note_off_c, 1, 71, 80
3, 136320, Note_on_c, 1, 71, 127
3, 136560, Note_off_c, 1, 61, 80
3, 136560, Note_off_c, 1, 71, 80
3, 136560, Note_on_c, 1, 59, 127
3, 136560, Note_on_c, 1, 68, 127
3, 136800, Note_off_c, 1, 68, 80
3, 136800, Note_on_c, 1, 66, 127
3, 136920, Note_off_c, 1, 59, 80
3, 137040, Note_off_c, 1, 66, 80
3, 137040, Note_on_c, 1, 63, 127
3, 137280, Note_off_c, 1, 63, 80
3, 138000, Note_on_c, 1, 59, 127
3, 138240, Note_off_c, 1, 59, 80
3, 138240, Note_on_c, 1, 63, 127
3, 138600, Note_off_c, 1, 63, 80
3, 138720, Note_on_c, 1, 63, 127
3, 139080, Note_off_c, 1, 63, 80
3, 139440, Note_on_c, 1, 59, 127
3, 139680, Note_off_c, 1, 59, 80
3, 139680, Note_on_c, 1, 59, 127
3, 139920, Note_off_c, 1, 59, 80
3, 139920, Note_on_c, 1, 61, 127
3, 140160, Note_off_c, 1, 61, 80
3, 140160, Note_on_c, 1, 61, 127
3, 140400, Note_off_c, 1, 61, 80
3, 140400, Note_on_c, 1, 59, 127
3, 140640, Note_off_c, 1, 59, 80
3, 140640, Note_on_c, 1, 59, 127
3, 140880, Note_off_c, 1, 59, 80
3, 140880, Note_on_c, 1, 61, 127
3, 141120, Note_off_c, 1, 61, 80
3, 141120, Note_on_c, 1, 59, 127
3, 141360, Note_off_c, 1, 59, 80
3, 141360, Note_on_c, 1, 59, 127
3, 141600, Note_off_c, 1, 59, 80
3, 141600, Note_on_c, 1, 61, 127
3, 141840, Note_off_c, 1, 61, 80
3, 141840, Note_on_c, 1, 59, 127
3, 142080, Note_off_c, 1, 59, 80
3, 142080, Note_on_c, 1, 59, 127
3, 142320, Note_off_c, 1, 59, 80
3, 142320, Note_on_c, 1, 61, 127
3, 142560, Note_off_c, 1, 61, 80
3, 142560, Note_on_c, 1, 59, 127
3, 142800, Note_off_c, 1, 59, 80
3, 142800, Note_on_c, 1, 59, 127
3, 143040, Note_off_c, 1, 59, 80
3, 143040, Note_on_c, 1, 61, 127
3, 143280, Note_off_c, 1, 61, 80
3, 143520, Note_on_c, 1, 63, 127
3, 143760, Note_off_c, 1, 63, 80
3, 144000, Note_on_c, 1, 63, 127
3, 144240, Note_off_c, 1, 63, 80
3, 145440, Note_on_c, 1, 59, 127
3, 145680, Note_off_c, 1, 59, 80
3, 145680, Note_on_c, 1, 61, 127
3, 145920, Note_off_c, 1, 61, 80
3, 145920, Note_on_c, 1, 63, 127
3, 146280, Note_off_c, 1, 63, 80
3, 146400, Note_on_c, 1, 63, 127
3, 146760, Note_off_c, 1, 63, 80
3, 147120, Note_on_c, 1, 59, 127
3, 147360, Note_off_c, 1, 59, 80
3, 147360, Note_on_c, 1, 59, 127
3, 147600, Note_off_c, 1, 59, 80
3, 147600, Note_on_c, 1, 61, 127
3, 147840, Note_off_c, 1, 61, 80
3, 147840, Note_on_c, 1, 61, 127
3, 148080, Note_off_c, 1, 61, 80
3, 148080, Note_on_c, 1, 59, 127
3, 148320, Note_off_c, 1, 59, 80
3, 148320, Note_on_c, 1, 59, 127
3, 148560, Note_off_c, 1, 59, 80
3, 148560, Note_on_c, 1, 61, 127
3, 148800, Note_off_c, 1, 61, 80
3, 148800, Note_on_c, 1, 59, 127
3, 149040, Note_off_c, 1, 59, 80
3, 149040, Note_on_c, 1, 59, 127
3, 149280, Note_off_c, 1, 59, 80
3, 149280, Note_on_c, 1, 61, 127
3, 149520, Note_off_c, 1, 61, 80
3, 149520, Note_on_c, 1, 59, 127
3, 149760, Note_off_c, 1, 59, 80
3, 149760, Note_on_c, 1, 59, 127
3, 150000, Note_off_c, 1, 59, 80
3, 150000, Note_on_c, 1, 61, 127
3, 150240, Note_off_c, 1, 61, 80
3, 150480, Note_on_c, 1, 59, 127
3, 150720, Note_off_c, 1, 59, 80
3, 150720, Note_on_c, 1, 61, 127
3, 150960, Note_off_c, 1, 61, 80
3, 150960, Note_on_c, 1, 59, 127
3, 151200, Note_off_c, 1, 59, 80
3, 151200, Note_on_c, 1, 63, 127
3, 151440, Note_off_c, 1, 63, 80
3, 151680, Note_on_c, 1, 63, 127
3, 151920, Note_off_c, 1, 63, 80
3, 152880, Note_on_c, 1, 59, 127
3, 153120, Note_off_c, 1, 59, 80
3, 153120, Note_on_c, 1, 61, 127
3, 153360, Note_off_c, 1, 61, 80
3, 153360, Note_on_c, 1, 63, 127
3, 153600, Note_off_c, 1, 63, 80
3, 153600, Note_on_c, 1, 63, 127
3, 153840, Note_off_c, 1, 63, 80
3, 154080, Note_on_c, 1, 66, 127
3, 154320, Note_off_c, 1, 66, 80
3, 154560, Note_on_c, 1, 64, 127
3, 154800, Note_off_c, 1, 64, 80
3, 155040, Note_on_c, 1, 63, 127
3, 155280, Note_off_c, 1, 63, 80
3, 155520, Note_on_c, 1, 61, 127
3, 156120, Note_off_c, 1, 61, 80
3, 156720, Note_on_c, 1, 59, 127
3, 156960, Note_off_c, 1, 59, 80
3, 156960, Note_on_c, 1, 61, 127
3, 157200, Note_off_c, 1, 61, 80
3, 157200, Note_on_c, 1, 63, 127
3, 157440, Note_off_c, 1, 63, 80
3, 157440, Note_on_c, 1, 63, 127
3, 157680, Note_off_c, 1, 63, 80
3, 157920, Note_on_c, 1, 66, 127
3, 158160, Note_off_c, 1, 66, 80
3, 158400, Note_on_c, 1, 64, 127
3, 158640, Note_off_c, 1, 64, 80
3, 158880, Note_on_c, 1, 63, 127
3, 159120, Note_off_c, 1, 63, 80
3, 159360, Note_on_c, 1, 61, 127
3, 159840, Note_off_c, 1, 61, 80
3, 160560, Note_on_c, 1, 59, 127
3, 160800, Note_off_c, 1, 59, 80
3, 160800, Note_on_c, 1, 61, 127
3, 161040, Note_off_c, 1, 61, 80
3, 161040, Note_on_c, 1, 63, 127
3, 161280, Note_off_c, 1, 63, 80
3, 161280, Note_on_c, 1, 63, 127
3, 161520, Note_off_c, 1, 63, 80
3, 161760, Note_on_c, 1, 66, 127
3, 162000, Note_off_c, 1, 66, 80
3, 162240, Note_on_c, 1, 64, 127
3, 162480, Note_off_c, 1, 64, 80
3, 162720, Note_on_c, 1, 63, 127
3, 162960, Note_off_c, 1, 63, 80
3, 163200, Note_on_c, 1, 61, 127
3, 163680, Note_off_c, 1, 61, 80
3, 163680, Note_on_c, 1, 59, 127
3, 163920, Note_off_c, 1, 59, 80
3, 163920, Note_on_c, 1, 59, 127
3, 164160, Note_off_c, 1, 59, 80
3, 164160, Note_on_c, 1, 61, 127
3, 164400, Note_off_c, 1, 61, 80
3, 164400, Note_on_c, 1, 61, 127
3, 164640, Note_off_c, 1, 61, 80
3, 164640, Note_on_c, 1, 61, 127
3, 164880, Note_off_c, 1, 61, 80
3, 164880, Note_on_c, 1, 59, 127
3, 165120, Note_off_c, 1, 59, 80
3, 165120, Note_on_c, 1, 59, 127
3, 165360, Note_off_c, 1, 59, 80
3, 165360, Note_on_c, 1, 61, 127
3, 165600, Note_off_c, 1, 61, 80
3, 165600, Note_on_c, 1, 59, 127
3, 165840, Note_off_c, 1, 59, 80
3, 165840, Note_on_c, 1, 61, 127
3, 166080, Note_off_c, 1, 61, 80
3, 166080, Note_on_c, 1, 59, 127
3, 166320, Note_off_c, 1, 59, 80
3, 166320, Note_on_c, 1, 61, 127
3, 166560, Note_off_c, 1, 61, 80
3, 166800, Note_on_c, 1, 63, 127
3, 167040, Note_off_c, 1, 63, 80
3, 167280, Note_on_c, 1, 59, 127
3, 167520, Note_off_c, 1, 59, 80
3, 168480, Note_on_c, 1, 68, 127
3, 168480, Note_on_c, 1, 63, 127
3, 168960, Note_off_c, 1, 63, 80
3, 168960, Note_off_c, 1, 68, 80
3, 168960, Note_on_c, 1, 68, 127
3, 168960, Note_on_c, 1, 63, 127
3, 169200, Note_off_c, 1, 63, 80
3, 169200, Note_off_c, 1, 68, 80
3, 169680, Note_on_c, 1, 59, 127
3, 169920, Note_off_c, 1, 59, 80
3, 169920, Note_on_c, 1, 61, 127
3, 170160, Note_off_c, 1, 61, 80
3, 170160, Note_on_c, 1, 59, 127
3, 170400, Note_off_c, 1, 59, 80
3, 170400, Note_on_c, 1, 61, 127
3, 170640, Note_off_c, 1, 61, 80
3, 170640, Note_on_c, 1, 63, 127
3, 170880, Note_off_c, 1, 63, 80
3, 170880, Note_on_c, 1, 59, 127
3, 171120, Note_off_c, 1, 59, 80
3, 171840, Note_on_c, 1, 61, 127
3, 172080, Note_off_c, 1, 61, 80
3, 172320, Note_on_c, 1, 61, 127
3, 172560, Note_off_c, 1, 61, 80
3, 172560, Note_on_c, 1, 59, 127
3, 172800, Note_off_c, 1, 59, 80
3, 172800, Note_on_c, 1, 61, 127
3, 173040, Note_off_c, 1, 61, 80
3, 173040, Note_on_c, 1, 59, 127
3, 173280, Note_off_c, 1, 59, 80
3, 173280, Note_on_c, 1, 61, 127
3, 173520, Note_off_c, 1, 61, 80
3, 173760, Note_on_c, 1, 61, 127
3, 174000, Note_off_c, 1, 61, 80
3, 174240, Note_on_c, 1, 66, 127
3, 174480, Note_off_c, 1, 66, 80
3, 174720, Note_on_c, 1, 63, 127
3, 174960, Note_off_c, 1, 63, 80
3, 175200, Note_on_c, 1, 61, 127
3, 175560, Note_off_c, 1, 61, 80
3, 175680, Note_on_c, 1, 61, 127
3, 175920, Note_off_c, 1, 61, 80
3, 175920, Note_on_c, 1, 59, 127
3, 176160, Note_off_c, 1, 59, 80
3, 176160, Note_on_c, 1, 56, 127
3, 176160, Note_on_c, 1, 61, 127
3, 176400, Note_off_c, 1, 61, 80
3, 176400, Note_off_c, 1, 56, 80
3, 176400, Note_on_c, 1, 59, 127
3, 176640, Note_off_c, 1, 59, 80
3, 176640, Note_on_c, 1, 61, 127
3, 176880, Note_off_c, 1, 61, 80
3, 177120, Note_on_c, 1, 61, 127
3, 177360, Note_off_c, 1, 61, 80
3, 177600, Note_on_c, 1, 61, 127
3, 177840, Note_off_c, 1, 61, 80
3, 177840, Note_on_c, 1, 59, 127
3, 178080, Note_off_c, 1, 59, 80
3, 178080, Note_on_c, 1, 63, 127
3, 178320, Note_off_c, 1, 63, 80
3, 178560, Note_on_c, 1, 59, 127
3, 179040, Note_off_c, 1, 59, 80
3, 179520, Note_on_c, 1, 61, 127
3, 179760, Note_off_c, 1, 61, 80
3, 180000, Note_on_c, 1, 61, 127
3, 180240, Note_off_c, 1, 61, 80
3, 180240, Note_on_c, 1, 59, 127
3, 180480, Note_off_c, 1, 59, 80
3, 180480, Note_on_c, 1, 61, 127
3, 180720, Note_off_c, 1, 61, 80
3, 180960, Note_on_c, 1, 61, 127
3, 181200, Note_off_c, 1, 61, 80
3, 181200, Note_on_c, 1, 59, 127
3, 181440, Note_off_c, 1, 59, 80
3, 181440, Note_on_c, 1, 63, 127
3, 181800, Note_off_c, 1, 63, 80
3, 181920, Note_on_c, 1, 56, 127
3, 182160, Note_off_c, 1, 56, 80
3, 182160, Note_on_c, 1, 59, 127
3, 182400, Note_off_c, 1, 59, 80
3, 183360, Note_on_c, 1, 63, 127
3, 183720, Note_off_c, 1, 63, 80
3, 183840, Note_on_c, 1, 68, 127
3, 183840, Note_on_c, 1, 63, 127
3, 184200, Note_off_c, 1, 63, 80
3, 184200, Note_off_c, 1, 68, 80
3, 184320, Note_on_c, 1, 68, 127
3, 184320, Note_on_c, 1, 63, 127
3, 184560, Note_off_c, 1, 63, 80
3, 184560, Note_off_c, 1, 68, 80
3, 185040, Note_on_c, 1, 56, 127
3, 185280, Note_off_c, 1, 56, 80
3, 185280, Note_on_c, 1, 61, 127
3, 185520, Note_off_c, 1, 61, 80
3, 185520, Note_on_c, 1, 59, 127
3, 185760, Note_off_c, 1, 59, 80
3, 185760, Note_on_c, 1, 63, 127
3, 186240, Note_off_c, 1, 63, 80
3, 186240, Note_on_c, 1, 59, 127
3, 186480, Note_off_c, 1, 59, 80
3, 186720, Note_on_c, 1, 63, 127
3, 186960, Note_off_c, 1, 63, 80
3, 187200, Note_on_c, 1, 66, 127
3, 187200, Note_on_c, 1, 61, 127
3, 187440, Note_off_c, 1, 61, 80
3, 187440, Note_off_c, 1, 66, 80
3, 187680, Note_on_c, 1, 61, 127
3, 187920, Note_off_c, 1, 61, 80
3, 187920, Note_on_c, 1, 59, 127
3, 188160, Note_off_c, 1, 59, 80
3, 188160, Note_on_c, 1, 61, 127
3, 188400, Note_off_c, 1, 61, 80
3, 188400, Note_on_c, 1, 59, 127
3, 188640, Note_off_c, 1, 59, 80
3, 188640, Note_on_c, 1, 61, 127
3, 188880, Note_off_c, 1, 61, 80
3, 189120, Note_on_c, 1, 61, 127
3, 189360, Note_off_c, 1, 61, 80
3, 189600, Note_on_c, 1, 66, 127
3, 189840, Note_off_c, 1, 66, 80
3, 190080, Note_on_c, 1, 63, 127
3, 190320, Note_off_c, 1, 63, 80
3, 190560, Note_on_c, 1, 61, 127
3, 190920, Note_off_c, 1, 61, 80
3, 191040, Note_on_c, 1, 61, 127
3, 191280, Note_off_c, 1, 61, 80
3, 191280, Note_on_c, 1, 59, 127
3, 191520, Note_off_c, 1, 59, 80
3, 191520, Note_on_c, 1, 56, 127
3, 191520, Note_on_c, 1, 61, 127
3, 191760, Note_off_c, 1, 61, 80
3, 191760, Note_off_c, 1, 56, 80
3, 191760, Note_on_c, 1, 59, 127
3, 192000, Note_off_c, 1, 59, 80
3, 192000, Note_on_c, 1, 61, 127
3, 192240, Note_off_c, 1, 61, 80
3, 192480, Note_on_c, 1, 61, 127
3, 192720, Note_off_c, 1, 61, 80
3, 192960, Note_on_c, 1, 59, 127
3, 193200, Note_off_c, 1, 59, 80
3, 193440, Note_on_c, 1, 63, 127
3, 193680, Note_off_c, 1, 63, 80
3, 193920, Note_on_c, 1, 56, 127
3, 194160, Note_off_c, 1, 56, 80
3, 194160, Note_on_c, 1, 59, 127
3, 194400, Note_off_c, 1, 59, 80
3, 194880, Note_on_c, 1, 68, 127
3, 195120, Note_off_c, 1, 68, 80
3, 195120, Note_on_c, 1, 66, 127
3, 195360, Note_off_c, 1, 66, 80
3, 195360, Note_on_c, 1, 68, 127
3, 195600, Note_off_c, 1, 68, 80
3, 195600, Note_on_c, 1, 66, 127
3, 195840, Note_off_c, 1, 66, 80
3, 195840, Note_on_c, 1, 68, 127
3, 196080, Note_off_c, 1, 68, 80
3, 196080, Note_on_c, 1, 66, 127
3, 196320, Note_off_c, 1, 66, 80
3, 196320, Note_on_c, 1, 68, 127
3, 196560, Note_off_c, 1, 68, 80
3, 196560, Note_on_c, 1, 71, 127
3, 196800, Note_off_c, 1, 71, 80
3, 196800, Note_on_c, 1, 73, 127
3, 197280, Note_off_c, 1, 73, 80
3, 197280, Note_on_c, 1, 71, 127
3, 197520, Note_off_c, 1, 71, 80
3, 197520, Note_on_c, 1, 75, 127
3, 198000, Note_off_c, 1, 75, 80
3, 198000, Note_on_c, 1, 73, 127
3, 198240, Note_off_c, 1, 73, 80
3, 198240, Note_on_c, 1, 71, 127
3, 198480, Note_off_c, 1, 71, 80
3, 198480, Note_on_c, 1, 68, 127
3, 198720, Note_off_c, 1, 68, 80
3, 198720, Note_on_c, 1, 66, 127
3, 198960, Note_off_c, 1, 66, 80
3, 198960, Note_on_c, 1, 63, 127
3, 199200, Note_off_c, 1, 63, 80
3, 199200, Note_on_c, 1, 61, 127
3, 199440, Note_off_c, 1, 61, 80
3, 199440, Note_on_c, 1, 59, 127
3, 199680, Note_off_c, 1, 59, 80
3, 199680, Note_on_c, 1, 56, 127
3, 199680, Note_on_c, 1, 61, 127
3, 199920, Note_off_c, 1, 61, 80
3, 200160, Note_off_c, 1, 56, 80
3, 200160, Note_on_c, 1, 59, 127
3, 200160, Note_on_c, 1, 59, 127
3, 200400, Note_off_c, 1, 59, 80
3, 200400, Note_off_c, 1, 59, 80
3, 200640, Note_on_c, 1, 61, 127
3, 200880, Note_off_c, 1, 61, 80
3, 201120, Note_on_c, 1, 59, 127
3, 201360, Note_off_c, 1, 59, 80
3, 201360, Note_on_c, 1, 61, 127
3, 201480, Note_off_c, 1, 61, 80
3, 201840, Note_on_c, 1, 59, 127
3, 201960, Note_off_c, 1, 59, 80
3, 202080, Note_on_c, 1, 63, 127
3, 202080, Note_on_c, 1, 59, 70
3, 202440, Note_off_c, 1, 59, 80
3, 202440, Note_off_c, 1, 63, 80
3, 202560, Note_on_c, 1, 63, 127
3, 202560, Note_on_c, 1, 59, 70
3, 202800, Note_off_c, 1, 59, 80
3, 202800, Note_off_c, 1, 63, 80
3, 203640, Note_on_c, 1, 61, 127
3, 203880, Note_off_c, 1, 61, 80
3, 204000, Note_on_c, 1, 61, 127
3, 204240, Note_off_c, 1, 61, 80
3, 204480, Note_on_c, 1, 59, 127
3, 204720, Note_off_c, 1, 59, 80
3, 204720, Note_on_c, 1, 61, 127
3, 204960, Note_off_c, 1, 61, 80
3, 205200, Note_on_c, 1, 59, 127
3, 205440, Note_off_c, 1, 59, 80
3, 205440, Note_on_c, 1, 61, 127
3, 205680, Note_off_c, 1, 61, 80
3, 205920, Note_on_c, 1, 59, 127
3, 206160, Note_off_c, 1, 59, 80
3, 206160, Note_on_c, 1, 63, 127
3, 206160, Note_on_c, 1, 56, 70
3, 206400, Note_off_c, 1, 56, 80
3, 206400, Note_off_c, 1, 63, 80
3, 206640, Note_on_c, 1, 59, 127
3, 206640, Note_on_c, 1, 54, 70
3, 206880, Note_off_c, 1, 54, 80
3, 206880, Note_off_c, 1, 59, 80
3, 207360, Note_on_c, 1, 61, 127
3, 207600, Note_off_c, 1, 61, 80
3, 207840, Note_on_c, 1, 59, 127
3, 208080, Note_off_c, 1, 59, 80
3, 208320, Note_on_c, 1, 61, 127
3, 208560, Note_off_c, 1, 61, 80
3, 208800, Note_on_c, 1, 59, 127
3, 209040, Note_off_c, 1, 59, 80
3, 209280, Note_on_c, 1, 61, 127
3, 209280, Note_on_c, 1, 59, 70
3, 209520, Note_off_c, 1, 59, 80
3, 209520, Note_off_c, 1, 61, 80
3, 209760, Note_on_c, 1, 59, 127
3, 210000, Note_off_c, 1, 59, 80
3, 210240, Note_on_c, 1, 63, 127
3, 210240, Note_on_c, 1, 59, 70
3, 210480, Note_off_c, 1, 59, 80
3, 210480, Note_off_c, 1, 63, 80
3, 210720, Note_on_c, 1, 56, 127
3, 210960, Note_off_c, 1, 56, 80
3, 210960, Note_on_c, 1, 61, 127
3, 211200, Note_off_c, 1, 61, 80
3, 211200, Note_on_c, 1, 59, 127
3, 211320, Note_off_c, 1, 59, 80
3, 211440, Note_on_c, 1, 61, 127
3, 211680, Note_off_c, 1, 61, 80
3, 211680, Note_on_c, 1, 59, 127
3, 211920, Note_off_c, 1, 59, 80
3, 211920, Note_on_c, 1, 61, 127
3, 212280, Note_off_c, 1, 61, 80
3, 212640, Note_on_c, 1, 59, 127
3, 212880, Note_off_c, 1, 59, 80
3, 212880, Note_on_c, 1, 61, 127
3, 213120, Note_off_c, 1, 61, 80
3, 213120, Note_on_c, 1, 59, 127
3, 213360, Note_off_c, 1, 59, 80
3, 213360, Note_on_c, 1, 56, 127
3, 213720, Note_off_c, 1, 56, 80
3, 214320, Note_on_c, 1, 59, 127
3, 214560, Note_off_c, 1, 59, 80
3, 214560, Note_on_c, 1, 56, 127
3, 214800, Note_off_c, 1, 56, 80
3, 214800, Note_on_c, 1, 54, 127
3, 215040, Note_off_c, 1, 54, 80
3, 215040, Note_on_c, 1, 61, 127
3, 215280, Note_off_c, 1, 61, 80
3, 215520, Note_on_c, 1, 59, 127
3, 215760, Note_off_c, 1, 59, 80
3, 216000, Note_on_c, 1, 61, 127
3, 216240, Note_off_c, 1, 61, 80
3, 216480, Note_on_c, 1, 59, 127
3, 216720, Note_off_c, 1, 59, 80
3, 216720, Note_on_c, 1, 61, 127
3, 216840, Note_off_c, 1, 61, 80
3, 217200, Note_on_c, 1, 59, 127
3, 217320, Note_off_c, 1, 59, 80
3, 217440, Note_on_c, 1, 63, 127
3, 217440, Note_on_c, 1, 59, 70
3, 217800, Note_off_c, 1, 59, 80
3, 217800, Note_off_c, 1, 63, 80
3, 217920, Note_on_c, 1, 63, 127
3, 217920, Note_on_c, 1, 59, 70
3, 218160, Note_off_c, 1, 59, 80
3, 218160, Note_off_c, 1, 63, 80
3, 219000, Note_on_c, 1, 61, 127
3, 219240, Note_off_c, 1, 61, 80
3, 219360, Note_on_c, 1, 61, 127
3, 219600, Note_off_c, 1, 61, 80
3, 219840, Note_on_c, 1, 59, 127
3, 220080, Note_off_c, 1, 59, 80
3, 220080, Note_on_c, 1, 61, 127
3, 220320, Note_off_c, 1, 61, 80
3, 220560, Note_on_c, 1, 61, 127
3, 220800, Note_off_c, 1, 61, 80
3, 220800, Note_on_c, 1, 59, 127
3, 221040, Note_off_c, 1, 59, 80
3, 221040, Note_on_c, 1, 56, 70
3, 221040, Note_on_c, 1, 63, 127
3, 221280, Note_off_c, 1, 63, 80
3, 221280, Note_off_c, 1, 56, 80
3, 221280, Note_on_c, 1, 59, 127
3, 221280, Note_on_c, 1, 54, 70
3, 221520, Note_off_c, 1, 54, 80
3, 221520, Note_off_c, 1, 59, 80
3, 221760, Note_on_c, 1, 56, 127
3, 222000, Note_off_c, 1, 56, 80
3, 222240, Note_on_c, 1, 56, 127
3, 222480, Note_off_c, 1, 56, 80
3, 222480, Note_on_c, 1, 61, 127
3, 222720, Note_off_c, 1, 61, 80
3, 222720, Note_on_c, 1, 59, 127
3, 222840, Note_off_c, 1, 59, 80
3, 222960, Note_on_c, 1, 61, 127
3, 223200, Note_off_c, 1, 61, 80
3, 223200, Note_on_c, 1, 59, 127
3, 223440, Note_off_c, 1, 59, 80
3, 223440, Note_on_c, 1, 61, 127
3, 223800, Note_off_c, 1, 61, 80
3, 224160, Note_on_c, 1, 59, 127
3, 224160, Note_on_c, 1, 64, 70
3, 224160, Note_on_c, 1, 66, 127
3, 224400, Note_off_c, 1, 66, 80
3, 224400, Note_off_c, 1, 64, 80
3, 224400, Note_off_c, 1, 59, 80
3, 224400, Note_on_c, 1, 61, 127
3, 224400, Note_on_c, 1, 64, 70
3, 224400, Note_on_c, 1, 66, 127
3, 224640, Note_off_c, 1, 66, 80
3, 224640, Note_off_c, 1, 64, 80
3, 224640, Note_off_c, 1, 61, 80
3, 224640, Note_on_c, 1, 59, 127
3, 224640, Note_on_c, 1, 63, 70
3, 224640, Note_on_c, 1, 66, 127
3, 224880, Note_off_c, 1, 66, 80
3, 224880, Note_off_c, 1, 63, 80
3, 224880, Note_off_c, 1, 59, 80
3, 224880, Note_on_c, 1, 61, 127
3, 224880, Note_on_c, 1, 64, 70
3, 224880, Note_on_c, 1, 68, 127
3, 225120, Note_off_c, 1, 68, 80
3, 225120, Note_off_c, 1, 64, 80
3, 225120, Note_off_c, 1, 61, 80
3, 225120, Note_on_c, 1, 59, 127
3, 225120, Note_on_c, 1, 63, 70
3, 225120, Note_on_c, 1, 66, 127
3, 225360, Note_off_c, 1, 66, 80
3, 225360, Note_off_c, 1, 63, 80
3, 225360, Note_off_c, 1, 59, 80
3, 225360, Note_on_c, 1, 61, 127
3, 225360, Note_on_c, 1, 64, 70
3, 225360, Note_on_c, 1, 66, 127
3, 225600, Note_off_c, 1, 66, 80
3, 225600, Note_off_c, 1, 64, 80
3, 225600, Note_off_c, 1, 61, 80
3, 225600, Note_on_c, 1, 59, 127
3, 225600, Note_on_c, 1, 63, 70
3, 225600, Note_on_c, 1, 66, 127
3, 225840, Note_off_c, 1, 66, 80
3, 225840, Note_off_c, 1, 63, 80
3, 225840, Note_off_c, 1, 59, 80
3, 225840, Note_on_c, 1, 61, 127
3, 225840, Note_on_c, 1, 64, 70
3, 225840, Note_on_c, 1, 68, 127
3, 226080, Note_off_c, 1, 68, 80
3, 226080, Note_off_c, 1, 64, 80
3, 226080, Note_off_c, 1, 61, 80
3, 226080, Note_on_c, 1, 59, 127
3, 226080, Note_on_c, 1, 63, 70
3, 226080, Note_on_c, 1, 66, 127
3, 226320, Note_off_c, 1, 66, 80
3, 226320, Note_off_c, 1, 63, 80
3, 226320, Note_off_c, 1, 59, 80
3, 226320, Note_on_c, 1, 61, 127
3, 226320, Note_on_c, 1, 64, 70
3, 226320, Note_on_c, 1, 66, 127
3, 226560, Note_off_c, 1, 66, 80
3, 226560, Note_off_c, 1, 64, 80
3, 226560, Note_off_c, 1, 61, 80
3, 226560, Note_on_c, 1, 59, 127
3, 226560, Note_on_c, 1, 63, 70
3, 226560, Note_on_c, 1, 66, 127
3, 226800, Note_off_c, 1, 66, 80
3, 226800, Note_off_c, 1, 63, 80
3, 226800, Note_off_c, 1, 59, 80
3, 226800, Note_on_c, 1, 61, 127
3, 226800, Note_on_c, 1, 64, 70
3, 226800, Note_on_c, 1, 68, 127
3, 227040, Note_off_c, 1, 68, 80
3, 227040, Note_off_c, 1, 64, 80
3, 227040, Note_off_c, 1, 61, 80
3, 227040, Note_on_c, 1, 59, 127
3, 227280, Note_off_c, 1, 59, 80
3, 227280, Note_on_c, 1, 61, 127
3, 227520, Note_off_c, 1, 61, 80
3, 227520, Note_on_c, 1, 59, 127
3, 227760, Note_off_c, 1, 59, 80
3, 227760, Note_on_c, 1, 61, 127
3, 228000, Note_off_c, 1, 61, 80
3, 228000, Note_on_c, 1, 59, 127
3, 228240, Note_off_c, 1, 59, 80
3, 228240, Note_on_c, 1, 61, 127
3, 228240, Note_on_c, 1, 71, 127
3, 228480, Note_off_c, 1, 71, 80
3, 228480, Note_on_c, 1, 71, 127
3, 228720, Note_off_c, 1, 61, 80
3, 228720, Note_off_c, 1, 71, 80
3, 228720, Note_on_c, 1, 59, 127
3, 228720, Note_on_c, 1, 68, 127
3, 228960, Note_off_c, 1, 68, 80
3, 228960, Note_on_c, 1, 66, 127
3, 229080, Note_off_c, 1, 59, 80
3, 229200, Note_off_c, 1, 66, 80
3, 229200, Note_on_c, 1, 63, 127
3, 229440, Note_off_c, 1, 63, 80
3, 230400, Note_on_c, 1, 56, 127
3, 230640, Note_off_c, 1, 56, 80
3, 230640, Note_on_c, 1, 56, 127
3, 230880, Note_off_c, 1, 56, 80
3, 230880, Note_on_c, 1, 63, 127
3, 231120, Note_off_c, 1, 63, 80
3, 231120, Note_on_c, 1, 63, 127
3, 231360, Note_off_c, 1, 63, 80
3, 231360, Note_on_c, 1, 63, 127
3, 231600, Note_off_c, 1, 63, 80
3, 231600, Note_on_c, 1, 63, 127
3, 231840, Note_off_c, 1, 63, 80
3, 231840, Note_on_c, 1, 63, 127
3, 232320, Note_off_c, 1, 63, 80
3, 232320, Note_on_c, 1, 63, 127
3, 232560, Note_off_c, 1, 63, 80
3, 232560, Note_on_c, 1, 63, 127
3, 233040, Note_off_c, 1, 63, 80
3, 233040, Note_on_c, 1, 61, 127
3, 233280, Note_off_c, 1, 61, 80
3, 233280, Note_on_c, 1, 61, 127
3, 233520, Note_off_c, 1, 61, 80
3, 234240, Note_on_c, 1, 54, 127
3, 234480, Note_off_c, 1, 54, 80
3, 234480, Note_on_c, 1, 54, 127
3, 234720, Note_off_c, 1, 54, 80
3, 234720, Note_on_c, 1, 61, 127
3, 234960, Note_off_c, 1, 61, 80
3, 234960, Note_on_c, 1, 61, 127
3, 235200, Note_off_c, 1, 61, 80
3, 235200, Note_on_c, 1, 61, 127
3, 235440, Note_off_c, 1, 61, 80
3, 235440, Note_on_c, 1, 61, 127
3, 235680, Note_off_c, 1, 61, 80
3, 235680, Note_on_c, 1, 61, 127
3, 236160, Note_off_c, 1, 61, 80
3, 236160, Note_on_c, 1, 61, 127
3, 236400, Note_off_c, 1, 61, 80
3, 236400, Note_on_c, 1, 61, 127
3, 236880, Note_off_c, 1, 61, 80
3, 236880, Note_on_c, 1, 59, 127
3, 237120, Note_off_c, 1, 59, 80
3, 237120, Note_on_c, 1, 59, 127
3, 237360, Note_off_c, 1, 59, 80
3, 238560, Note_on_c, 1, 63, 127
3, 238800, Note_off_c, 1, 63, 80
3, 238800, Note_on_c, 1, 63, 127
3, 239040, Note_off_c, 1, 63, 80
3, 239040, Note_on_c, 1, 63, 127
3, 239280, Note_off_c, 1, 63, 80
3, 239280, Note_on_c, 1, 63, 127
3, 239520, Note_off_c, 1, 63, 80
3, 239520, Note_on_c, 1, 63, 127
3, 239760, Note_off_c, 1, 63, 80
3, 239760, Note_on_c, 1, 63, 127
3, 240000, Note_off_c, 1, 63, 80
3, 240000, Note_on_c, 1, 63, 127
3, 240240, Note_off_c, 1, 63, 80
3, 240240, Note_on_c, 1, 63, 127
3, 240720, Note_off_c, 1, 63, 80
3, 240720, Note_on_c, 1, 61, 127
3, 240960, Note_off_c, 1, 61, 80
3, 240960, Note_on_c, 1, 61, 127
3, 241200, Note_off_c, 1, 61, 80
3, 241920, Note_on_c, 1, 61, 127
3, 242160, Note_off_c, 1, 61, 80
3, 242160, Note_on_c, 1, 61, 127
3, 242640, Note_off_c, 1, 61, 80
3, 242640, Note_on_c, 1, 59, 127
3, 242880, Note_off_c, 1, 59, 80
3, 242880, Note_on_c, 1, 59, 127
3, 243120, Note_off_c, 1, 59, 80
3, 243840, Note_on_c, 1, 61, 127
3, 244080, Note_off_c, 1, 61, 80
3, 244080, Note_on_c, 1, 61, 127
3, 244560, Note_off_c, 1, 61, 80
3, 244560, Note_on_c, 1, 59, 127
3, 244800, Note_off_c, 1, 59, 80
3, 244800, Note_on_c, 1, 59, 127
3, 245040, Note_off_c, 1, 59, 80
3, 245760, Note_on_c, 1, 56, 127
3, 246000, Note_off_c, 1, 56, 80
3, 246000, Note_on_c, 1, 56, 127
3, 246240, Note_off_c, 1, 56, 80
3, 246240, Note_on_c, 1, 63, 100
3, 246240, Note_on_c, 1, 59, 100
3, 246240, Note_on_c, 1, 66, 100
3, 246480, Note_off_c, 1, 66, 80
3, 246480, Note_off_c, 1, 59, 80
3, 246480, Note_off_c, 1, 63, 80
3, 246480, Note_on_c, 1, 63, 100
3, 246480, Note_on_c, 1, 66, 100
3, 246480, Note_on_c, 1, 59, 100
3, 246720, Note_off_c, 1, 59, 80
3, 246720, Note_off_c, 1, 66, 80
3, 246720, Note_off_c, 1, 63, 80
3, 246720, Note_on_c, 1, 63, 100
3, 246720, Note_on_c, 1, 66, 100
3, 246720, Note_on_c, 1, 59, 100
3, 246960, Note_off_c, 1, 59, 80
3, 246960, Note_off_c, 1, 66, 80
3, 246960, Note_off_c, 1, 63, 80
3, 246960, Note_on_c, 1, 63, 100
3, 246960, Note_on_c, 1, 66, 100
3, 246960, Note_on_c, 1, 59, 100
3, 247200, Note_off_c, 1, 59, 80
3, 247200, Note_off_c, 1, 66, 80
3, 247200, Note_off_c, 1, 63, 80
3, 247200, Note_on_c, 1, 63, 100
3, 247200, Note_on_c, 1, 66, 100
3, 247200, Note_on_c, 1, 59, 100
3, 247680, Note_off_c, 1, 59, 80
3, 247680, Note_off_c, 1, 66, 80
3, 247680, Note_off_c, 1, 63, 80
3, 247680, Note_on_c, 1, 63, 100
3, 247680, Note_on_c, 1, 66, 100
3, 247680, Note_on_c, 1, 59, 100
3, 247920, Note_off_c, 1, 59, 80
3, 247920, Note_off_c, 1, 66, 80
3, 247920, Note_off_c, 1, 63, 80
3, 247920, Note_on_c, 1, 63, 100
3, 247920, Note_on_c, 1, 66, 100
3, 247920, Note_on_c, 1, 59, 100
3, 248400, Note_off_c, 1, 59, 80
3, 248400, Note_off_c, 1, 66, 80
3, 248400, Note_off_c, 1, 63, 80
3, 248400, Note_on_c, 1, 61, 100
3, 248400, Note_on_c, 1, 68, 100
3, 248400, Note_on_c, 1, 58, 100
3, 248640, Note_off_c, 1, 58, 80
3, 248640, Note_off_c, 1, 68, 80
3, 248640, Note_off_c, 1, 61, 80
3, 248640, Note_on_c, 1, 66, 100
3, 248640, Note_on_c, 1, 61, 100
3, 248640, Note_on_c, 1, 58, 100
3, 249000, Note_off_c, 1, 58, 80
3, 249000, Note_off_c, 1, 61, 80
3, 249000, Note_off_c, 1, 66, 80
3, 249600, Note_on_c, 1, 54, 127
3, 249840, Note_off_c, 1, 54, 80
3, 249840, Note_on_c, 1, 54, 127
3, 250080, Note_off_c, 1, 54, 80
3, 250080, Note_on_c, 1, 61, 100
3, 250080, Note_on_c, 1, 64, 100
3, 250080, Note_on_c, 1, 58, 100
3, 250080, Note_on_c, 1, 70, 80
3, 250320, Note_off_c, 1, 70, 80
3, 250320, Note_off_c, 1, 58, 80
3, 250320, Note_off_c, 1, 64, 80
3, 250320, Note_off_c, 1, 61, 80
3, 250320, Note_on_c, 1, 61, 100
3, 250320, Note_on_c, 1, 64, 100
3, 250320, Note_on_c, 1, 58, 100
3, 250320, Note_on_c, 1, 70, 80
3, 250560, Note_off_c, 1, 70, 80
3, 250560, Note_off_c, 1, 58, 80
3, 250560, Note_off_c, 1, 64, 80
3, 250560, Note_off_c, 1, 61, 80
3, 250560, Note_on_c, 1, 61, 100
3, 250560, Note_on_c, 1, 58, 100
3, 250560, Note_on_c, 1, 64, 100
3, 250560, Note_on_c, 1, 70, 80
3, 250800, Note_off_c, 1, 70, 80
3, 250800, Note_off_c, 1, 64, 80
3, 250800, Note_off_c, 1, 58, 80
3, 250800, Note_off_c, 1, 61, 80
3, 250800, Note_on_c, 1, 61, 100
3, 250800, Note_on_c, 1, 64, 100
3, 250800, Note_on_c, 1, 58, 100
3, 250800, Note_on_c, 1, 70, 80
3, 251040, Note_off_c, 1, 70, 80
3, 251040, Note_off_c, 1, 58, 80
3, 251040, Note_off_c, 1, 64, 80
3, 251040, Note_off_c, 1, 61, 80
3, 251040, Note_on_c, 1, 61, 100
3, 251040, Note_on_c, 1, 64, 100
3, 251040, Note_on_c, 1, 58, 100
3, 251040, Note_on_c, 1, 70, 80
3, 251520, Note_off_c, 1, 70, 80
3, 251520, Note_off_c, 1, 58, 80
3, 251520, Note_off_c, 1, 64, 80
3, 251520, Note_off_c, 1, 61, 80
3, 251520, Note_on_c, 1, 61, 100
3, 251520, Note_on_c, 1, 64, 100
3, 251520, Note_on_c, 1, 58, 100
3, 251520, Note_on_c, 1, 70, 80
3, 251760, Note_off_c, 1, 70, 80
3, 251760, Note_off_c, 1, 58, 80
3, 251760, Note_off_c, 1, 64, 80
3, 251760, Note_off_c, 1, 61, 80
3, 251760, Note_on_c, 1, 58, 100
3, 251760, Note_on_c, 1, 64, 100
3, 251760, Note_on_c, 1, 61, 100
3, 251760, Note_on_c, 1, 70, 80
3, 252240, Note_off_c, 1, 70, 80
3, 252240, Note_off_c, 1, 61, 80
3, 252240, Note_off_c, 1, 64, 80
3, 252240, Note_off_c, 1, 58, 80
3, 252240, Note_on_c, 1, 71, 100
3, 252240, Note_on_c, 1, 59, 100
3, 252240, Note_on_c, 1, 63, 100
3, 252480, Note_off_c, 1, 63, 80
3, 252480, Note_off_c, 1, 59, 80
3, 252480, Note_off_c, 1, 71, 80
3, 252480, Note_on_c, 1, 59, 100
3, 252480, Note_on_c, 1, 71, 100
3, 252480, Note_on_c, 1, 63, 100
3, 252720, Note_off_c, 1, 63, 80
3, 252720, Note_off_c, 1, 71, 80
3, 252720, Note_off_c, 1, 59, 80
3, 253440, Note_on_c, 1, 56, 127
3, 253680, Note_off_c, 1, 56, 80
3, 253680, Note_on_c, 1, 56, 127
3, 253920, Note_off_c, 1, 56, 80
3, 253920, Note_on_c, 1, 63, 100
3, 253920, Note_on_c, 1, 59, 100
3, 253920, Note_on_c, 1, 71, 80
3, 254160, Note_off_c, 1, 71, 80
3, 254160, Note_off_c, 1, 59, 80
3, 254160, Note_off_c, 1, 63, 80
3, 254160, Note_on_c, 1, 63, 100
3, 254160, Note_on_c, 1, 59, 100
3, 254160, Note_on_c, 1, 71, 80
3, 254400, Note_off_c, 1, 71, 80
3, 254400, Note_off_c, 1, 59, 80
3, 254400, Note_off_c, 1, 63, 80
3, 254400, Note_on_c, 1, 63, 100
3, 254400, Note_on_c, 1, 59, 100
3, 254400, Note_on_c, 1, 71, 80
3, 254640, Note_off_c, 1, 71, 80
3, 254640, Note_off_c, 1, 59, 80
3, 254640, Note_off_c, 1, 63, 80
3, 254640, Note_on_c, 1, 63, 100
3, 254640, Note_on_c, 1, 59, 100
3, 254640, Note_on_c, 1, 71, 80
3, 254880, Note_off_c, 1, 71, 80
3, 254880, Note_off_c, 1, 59, 80
3, 254880, Note_off_c, 1, 63, 80
3, 254880, Note_on_c, 1, 63, 100
3, 254880, Note_on_c, 1, 59, 100
3, 254880, Note_on_c, 1, 71, 80
3, 255360, Note_off_c, 1, 71, 80
3, 255360, Note_off_c, 1, 59, 80
3, 255360, Note_off_c, 1, 63, 80
3, 255360, Note_on_c, 1, 63, 100
3, 255360, Note_on_c, 1, 59, 100
3, 255360, Note_on_c, 1, 71, 80
3, 255600, Note_off_c, 1, 71, 80
3, 255600, Note_off_c, 1, 59, 80
3, 255600, Note_off_c, 1, 63, 80
3, 255600, Note_on_c, 1, 63, 100
3, 255600, Note_on_c, 1, 59, 100
3, 255600, Note_on_c, 1, 71, 80
3, 256080, Note_off_c, 1, 71, 80
3, 256080, Note_off_c, 1, 59, 80
3, 256080, Note_off_c, 1, 63, 80
3, 256080, Note_on_c, 1, 61, 100
3, 256080, Note_on_c, 1, 58, 100
3, 256080, Note_on_c, 1, 70, 100
3, 256320, Note_off_c, 1, 70, 80
3, 256320, Note_off_c, 1, 58, 80
3, 256320, Note_off_c, 1, 61, 80
3, 256320, Note_on_c, 1, 61, 100
3, 256320, Note_on_c, 1, 58, 100
3, 256320, Note_on_c, 1, 70, 100
3, 256680, Note_off_c, 1, 70, 80
3, 256680, Note_off_c, 1, 58, 80
3, 256680, Note_off_c, 1, 61, 80
3, 257280, Note_on_c, 1, 70, 100
3, 257280, Note_on_c, 1, 61, 100
3, 257280, Note_on_c, 1, 59, 80
3, 257520, Note_off_c, 1, 59, 80
3, 257520, Note_off_c, 1, 61, 80
3, 257520, Note_off_c, 1, 70, 80
3, 257520, Note_on_c, 1, 70, 100
3, 257520, Note_on_c, 1, 61, 100
3, 257520, Note_on_c, 1, 59, 80
3, 257760, Note_off_c, 1, 61, 80
3, 258000, Note_off_c, 1, 70, 80
3, 258000, Note_off_c, 1, 59, 80
3, 258000, Note_on_c, 1, 59, 100
3, 258000, Note_on_c, 1, 68, 100
3, 258240, Note_off_c, 1, 68, 80
3, 258240, Note_off_c, 1, 59, 80
3, 258240, Note_on_c, 1, 59, 100
3, 258240, Note_on_c, 1, 68, 100
3, 258480, Note_off_c, 1, 68, 80
3, 258480, Note_off_c, 1, 59, 80
3, 259200, Note_on_c, 1, 59, 80
3, 259200, Note_on_c, 1, 61, 100
3, 259200, Note_on_c, 1, 70, 100
3, 259440, Note_off_c, 1, 70, 80
3, 259440, Note_off_c, 1, 61, 80
3, 259440, Note_off_c, 1, 59, 80
3, 259440, Note_on_c, 1, 70, 100
3, 259440, Note_on_c, 1, 61, 100
3, 259440, Note_on_c, 1, 59, 80
3, 259680, Note_off_c, 1, 61, 80
3, 259920, Note_off_c, 1, 70, 80
3, 259920, Note_off_c, 1, 59, 80
3, 259920, Note_on_c, 1, 59, 100
3, 259920, Note_on_c, 1, 68, 100
3, 259920, Note_on_c, 1, 63, 127
3, 260160, Note_off_c, 1, 63, 80
3, 260160, Note_off_c, 1, 68, 80
3, 260160, Note_off_c, 1, 59, 80
3, 260160, Note_on_c, 1, 59, 100
3, 260160, Note_on_c, 1, 68, 100
3, 260160, Note_on_c, 1, 61, 127
3, 260400, Note_off_c, 1, 61, 80
3, 260400, Note_off_c, 1, 68, 80
3, 260400, Note_off_c, 1, 59, 80
3, 260400, Note_on_c, 1, 59, 127
3, 260640, Note_off_c, 1, 59, 80
3, 260640, Note_on_c, 1, 56, 127
3, 260880, Note_off_c, 1, 56, 80
3, 260880, Note_on_c, 1, 54, 127
3, 261120, Note_off_c, 1, 54, 80
3, 261120, Note_on_c, 1, 61, 127
3, 261120, Note_on_c, 1, 73, 127
3, 261360, Note_off_c, 1, 61, 80
3, 261600, Note_on_c, 1, 59, 127
3, 261600, Note_on_c, 1, 59, 127
3, 261840, Note_off_c, 1, 59, 80
3, 261840, Note_off_c, 1, 73, 80
3, 261840, Note_off_c, 1, 59, 80
3, 261840, Note_on_c, 1, 71, 127
3, 262080, Note_on_c, 1, 61, 127
3, 262320, Note_off_c, 1, 61, 80
3, 262560, Note_off_c, 1, 71, 80
3, 262560, Note_on_c, 1, 59, 127
3, 262560, Note_on_c, 1, 73, 127
3, 262800, Note_off_c, 1, 59, 80
3, 262800, Note_on_c, 1, 61, 127
3, 262920, Note_off_c, 1, 61, 80
3, 263040, Note_off_c, 1, 73, 80
3, 263040, Note_on_c, 1, 75, 127
3, 263280, Note_on_c, 1, 59, 127
3, 263400, Note_off_c, 1, 59, 80
3, 263400, Note_off_c, 1, 75, 80
3, 263520, Note_on_c, 1, 63, 127
3, 263520, Note_on_c, 1, 59, 70
3, 263520, Note_on_c, 1, 75, 127
3, 263760, Note_off_c, 1, 75, 80
3, 263880, Note_off_c, 1, 59, 80
3, 263880, Note_off_c, 1, 63, 80
3, 264000, Note_on_c, 1, 63, 127
3, 264000, Note_on_c, 1, 59, 70
3, 264240, Note_off_c, 1, 59, 80
3, 264240, Note_off_c, 1, 63, 80
3, 264960, Note_on_c, 1, 73, 127
3, 265080, Note_on_c, 1, 61, 127
3, 265320, Note_off_c, 1, 61, 80
3, 265440, Note_on_c, 1, 61, 127
3, 265680, Note_off_c, 1, 73, 80
3, 265680, Note_off_c, 1, 61, 80
3, 265680, Note_on_c, 1, 71, 127
3, 265920, Note_on_c, 1, 59, 127
3, 266160, Note_off_c, 1, 59, 80
3, 266160, Note_on_c, 1, 61, 127
3, 266400, Note_off_c, 1, 71, 80
3, 266400, Note_off_c, 1, 61, 80
3, 266400, Note_on_c, 1, 73, 127
3, 266640, Note_on_c, 1, 59, 127
3, 266880, Note_off_c, 1, 59, 80
3, 266880, Note_off_c, 1, 73, 80
3, 266880, Note_on_c, 1, 61, 127
3, 266880, Note_on_c, 1, 75, 127
3, 267120, Note_off_c, 1, 61, 80
3, 267240, Note_off_c, 1, 75, 80
3, 267360, Note_on_c, 1, 59, 127
3, 267600, Note_off_c, 1, 59, 80
3, 267600, Note_on_c, 1, 63, 127
3, 267600, Note_on_c, 1, 56, 70
3, 267840, Note_off_c, 1, 56, 80
3, 267840, Note_off_c, 1, 63, 80
3, 268080, Note_on_c, 1, 59, 127
3, 268080, Note_on_c, 1, 54, 70
3, 268320, Note_off_c, 1, 54, 80
3, 268320, Note_off_c, 1, 59, 80
3, 268800, Note_on_c, 1, 61, 127
3, 268800, Note_on_c, 1, 76, 127
3, 269040, Note_off_c, 1, 61, 80
3, 269150, Note_off_c, 1, 76, 80
3, 269280, Note_on_c, 1, 59, 127
3, 269280, Note_on_c, 1, 75, 127
3, 269520, Note_off_c, 1, 59, 80
3, 269630, Note_off_c, 1, 75, 80
3, 269760, Note_on_c, 1, 61, 127
3, 269760, Note_on_c, 1, 73, 127
3, 270000, Note_off_c, 1, 61, 80
3, 270110, Note_off_c, 1, 73, 80
3, 270240, Note_on_c, 1, 59, 127
3, 270240, Note_on_c, 1, 71, 127
3, 270480, Note_off_c, 1, 59, 80
3, 270590, Note_off_c, 1, 71, 80
3, 270720, Note_on_c, 1, 61, 127
3, 270720, Note_on_c, 1, 59, 70
3, 270720, Note_on_c, 1, 73, 127
3, 270960, Note_off_c, 1, 59, 80
3, 270960, Note_off_c, 1, 61, 80
3, 271070, Note_off_c, 1, 73, 80
3, 271200, Note_on_c, 1, 59, 127
3, 271200, Note_on_c, 1, 71, 127
3, 271440, Note_off_c, 1, 59, 80
3, 271550, Note_off_c, 1, 71, 80
3, 271680, Note_on_c, 1, 63, 127
3, 271680, Note_on_c, 1, 59, 70
3, 271680, Note_on_c, 1, 71, 127
3, 271920, Note_off_c, 1, 71, 80
3, 271920, Note_off_c, 1, 59, 80
3, 271920, Note_off_c, 1, 63, 80
3, 272160, Note_on_c, 1, 56, 127
3, 272400, Note_off_c, 1, 56, 80
3, 272400, Note_on_c, 1, 61, 127
3, 272640, Note_off_c, 1, 61, 80
3, 272640, Note_on_c, 1, 59, 127
3, 272760, Note_off_c, 1, 59, 80
3, 272880, Note_on_c, 1, 61, 127
3, 273120, Note_off_c, 1, 61, 80
3, 273120, Note_on_c, 1, 59, 127
3, 273360, Note_off_c, 1, 59, 80
3, 273360, Note_on_c, 1, 61, 127
3, 273600, Note_on_c, 1, 73, 127
3, 273720, Note_off_c, 1, 61, 80
3, 273840, Note_off_c, 1, 73, 80
3, 273840, Note_on_c, 1, 73, 127
3, 274080, Note_off_c, 1, 73, 80
3, 274080, Note_on_c, 1, 59, 127
3, 274080, Note_on_c, 1, 71, 127
3, 274313, Note_off_c, 1, 71, 80
3, 274320, Note_off_c, 1, 59, 80
3, 274320, Note_on_c, 1, 61, 127
3, 274560, Note_off_c, 1, 61, 80
3, 274560, Note_on_c, 1, 59, 127
3, 274560, Note_on_c, 1, 73, 127
3, 274800, Note_off_c, 1, 73, 80
3, 274800, Note_off_c, 1, 59, 80
3, 274800, Note_on_c, 1, 56, 127
3, 274800, Note_on_c, 1, 73, 127
3, 275040, Note_off_c, 1, 73, 80
3, 275040, Note_on_c, 1, 71, 127
3, 275160, Note_off_c, 1, 56, 80
3, 275273, Note_off_c, 1, 71, 80
3, 275280, Note_on_c, 1, 68, 127
3, 275520, Note_off_c, 1, 68, 80
3, 275760, Note_on_c, 1, 59, 127
3, 276000, Note_off_c, 1, 59, 80
3, 276000, Note_on_c, 1, 56, 127
3, 276240, Note_off_c, 1, 56, 80
3, 276240, Note_on_c, 1, 54, 127
3, 276480, Note_off_c, 1, 54, 80
3, 276480, Note_on_c, 1, 61, 127
3, 276720, Note_off_c, 1, 61, 80
3, 276960, Note_on_c, 1, 59, 127
3, 277200, Note_off_c, 1, 59, 80
3, 277440, Note_on_c, 1, 61, 127
3, 277680, Note_off_c, 1, 61, 80
3, 277920, Note_on_c, 1, 59, 127
3, 278160, Note_off_c, 1, 59, 80
3, 278160, Note_on_c, 1, 61, 127
3, 278280, Note_off_c, 1, 61, 80
3, 278640, Note_on_c, 1, 59, 127
3, 278760, Note_off_c, 1, 59, 80
3, 278880, Note_on_c, 1, 63, 127
3, 278880, Note_on_c, 1, 59, 70
3, 279240, Note_off_c, 1, 59, 80
3, 279240, Note_off_c, 1, 63, 80
3, 279360, Note_on_c, 1, 63, 127
3, 279360, Note_on_c, 1, 59, 70
3, 279600, Note_off_c, 1, 59, 80
3, 279600, Note_off_c, 1, 63, 80
3, 280440, Note_on_c, 1, 61, 127
3, 280680, Note_off_c, 1, 61, 80
3, 280800, Note_on_c, 1, 61, 127
3, 281040, Note_off_c, 1, 61, 80
3, 281280, Note_on_c, 1, 59, 127
3, 281520, Note_off_c, 1, 59, 80
3, 281520, Note_on_c, 1, 61, 127
3, 281760, Note_off_c, 1, 61, 80
3, 282000, Note_on_c, 1, 61, 127
3, 282240, Note_off_c, 1, 61, 80
3, 282240, Note_on_c, 1, 59, 127
3, 282480, Note_off_c, 1, 59, 80
3, 282480, Note_on_c, 1, 56, 70
3, 282480, Note_on_c, 1, 63, 127
3, 282720, Note_off_c, 1, 63, 80
3, 282720, Note_off_c, 1, 56, 80
3, 282720, Note_on_c, 1, 59, 127
3, 282720, Note_on_c, 1, 54, 70
3, 282960, Note_off_c, 1, 54, 80
3, 282960, Note_off_c, 1, 59, 80
3, 283200, Note_on_c, 1, 56, 127
3, 283440, Note_off_c, 1, 56, 80
3, 283680, Note_on_c, 1, 56, 127
3, 283920, Note_off_c, 1, 56, 80
3, 283920, Note_on_c, 1, 61, 127
3, 284160, Note_off_c, 1, 61, 80
3, 284160, Note_on_c, 1, 59, 127
3, 284280, Note_off_c, 1, 59, 80
3, 284400, Note_on_c, 1, 61, 127
3, 284640, Note_off_c, 1, 61, 80
3, 284640, Note_on_c, 1, 59, 127
3, 284880, Note_off_c, 1, 59, 80
3, 284880, Note_on_c, 1, 61, 127
3, 285240, Note_off_c, 1, 61, 80
3, 285600, Note_on_c, 1, 59, 127
3, 285600, Note_on_c, 1, 64, 70
3, 285600, Note_on_c, 1, 66, 127
3, 285840, Note_off_c, 1, 66, 80
3, 285840, Note_off_c, 1, 64, 80
3, 285840, Note_off_c, 1, 59, 80
3, 285840, Note_on_c, 1, 61, 127
3, 285840, Note_on_c, 1, 64, 70
3, 285840, Note_on_c, 1, 66, 127
3, 286080, Note_off_c, 1, 66, 80
3, 286080, Note_off_c, 1, 64, 80
3, 286080, Note_off_c, 1, 61, 80
3, 286080, Note_on_c, 1, 59, 127
3, 286080, Note_on_c, 1, 63, 70
3, 286080, Note_on_c, 1, 66, 127
3, 286320, Note_off_c, 1, 66, 80
3, 286320, Note_off_c, 1, 63, 80
3, 286320, Note_off_c, 1, 59, 80
3, 286320, Note_on_c, 1, 61, 127
3, 286320, Note_on_c, 1, 64, 70
3, 286320, Note_on_c, 1, 68, 127
3, 286560, Note_off_c, 1, 68, 80
3, 286560, Note_off_c, 1, 64, 80
3, 286560, Note_off_c, 1, 61, 80
3, 286560, Note_on_c, 1, 59, 127
3, 286560, Note_on_c, 1, 63, 70
3, 286560, Note_on_c, 1, 66, 127
3, 286800, Note_off_c, 1, 66, 80
3, 286800, Note_off_c, 1, 63, 80
3, 286800, Note_off_c, 1, 59, 80
3, 286800, Note_on_c, 1, 61, 127
3, 286800, Note_on_c, 1, 64, 70
3, 286800, Note_on_c, 1, 66, 127
3, 287040, Note_off_c, 1, 66, 80
3, 287040, Note_off_c, 1, 64, 80
3, 287040, Note_off_c, 1, 61, 80
3, 287040, Note_on_c, 1, 59, 127
3, 287040, Note_on_c, 1, 63, 70
3, 287040, Note_on_c, 1, 66, 127
3, 287280, Note_off_c, 1, 66, 80
3, 287280, Note_off_c, 1, 63, 80
3, 287280, Note_off_c, 1, 59, 80
3, 287280, Note_on_c, 1, 61, 127
3, 287280, Note_on_c, 1, 64, 70
3, 287280, Note_on_c, 1, 68, 127
3, 287520, Note_off_c, 1, 68, 80
3, 287520, Note_off_c, 1, 64, 80
3, 287520, Note_off_c, 1, 61, 80
3, 287520, Note_on_c, 1, 59, 127
3, 287520, Note_on_c, 1, 63, 70
3, 287520, Note_on_c, 1, 66, 127
3, 287760, Note_off_c, 1, 66, 80
3, 287760, Note_off_c, 1, 63, 80
3, 287760, Note_off_c, 1, 59, 80
3, 287760, Note_on_c, 1, 61, 127
3, 287760, Note_on_c, 1, 64, 70
3, 287760, Note_on_c, 1, 66, 127
3, 288000, Note_off_c, 1, 66, 80
3, 288000, Note_off_c, 1, 64, 80
3, 288000, Note_off_c, 1, 61, 80
3, 288000, Note_on_c, 1, 59, 127
3, 288000, Note_on_c, 1, 63, 70
3, 288000, Note_on_c, 1, 66, 127
3, 288240, Note_off_c, 1, 66, 80
3, 288240, Note_off_c, 1, 63, 80
3, 288240, Note_off_c, 1, 59, 80
3, 288240, Note_on_c, 1, 61, 127
3, 288240, Note_on_c, 1, 64, 70
3, 288240, Note_on_c, 1, 68, 127
3, 288480, Note_off_c, 1, 68, 80
3, 288480, Note_off_c, 1, 64, 80
3, 288480, Note_off_c, 1, 61, 80
3, 288480, Note_on_c, 1, 59, 127
3, 288720, Note_off_c, 1, 59, 80
3, 288720, Note_on_c, 1, 61, 127
3, 288960, Note_off_c, 1, 61, 80
3, 288960, Note_on_c, 1, 59, 127
3, 289200, Note_off_c, 1, 59, 80
3, 289200, Note_on_c, 1, 61, 127
3, 289440, Note_off_c, 1, 61, 80
3, 289440, Note_on_c, 1, 59, 127
3, 289680, Note_off_c, 1, 59, 80
3, 289680, Note_on_c, 1, 61, 127
3, 289680, Note_on_c, 1, 71, 127
3, 289920, Note_off_c, 1, 71, 80
3, 289920, Note_on_c, 1, 71, 127
3, 290160, Note_off_c, 1, 61, 80
3, 290160, Note_off_c, 1, 71, 80
3, 290160, Note_on_c, 1, 59, 127
3, 290160, Note_on_c, 1, 68, 127
3, 290400, Note_off_c, 1, 68, 80
3, 290400, Note_on_c, 1, 66, 127
3, 290520, Note_off_c, 1, 59, 80
3, 290640, Note_off_c, 1, 66, 80
3, 290640, Note_on_c, 1, 63, 127
3, 290880, Note_off_c, 1, 63, 80
3, 291840, Note_on_c, 1, 61, 127
3, 291840, Note_on_c, 1, 73, 127
3, 292080, Note_off_c, 1, 61, 80
3, 292320, Note_on_c, 1, 59, 127
3, 292320, Note_on_c, 1, 59, 127
3, 292560, Note_off_c, 1, 59, 80
3, 292560, Note_off_c, 1, 73, 80
3, 292560, Note_off_c, 1, 59, 80
3, 292560, Note_on_c, 1, 71, 127
3, 292800, Note_on_c, 1, 61, 127
3, 293040, Note_off_c, 1, 61, 80
3, 293280, Note_off_c, 1, 71, 80
3, 293280, Note_on_c, 1, 59, 127
3, 293280, Note_on_c, 1, 73, 127
3, 293520, Note_off_c, 1, 59, 80
3, 293520, Note_on_c, 1, 61, 127
3, 293640, Note_off_c, 1, 61, 80
3, 293760, Note_off_c, 1, 73, 80
3, 293760, Note_on_c, 1, 75, 127
3, 294000, Note_on_c, 1, 59, 127
3, 294120, Note_off_c, 1, 59, 80
3, 294120, Note_off_c, 1, 75, 80
3, 294240, Note_on_c, 1, 63, 127
3, 294240, Note_on_c, 1, 59, 70
3, 294240, Note_on_c, 1, 75, 127
3, 294480, Note_off_c, 1, 75, 80
3, 294600, Note_off_c, 1, 59, 80
3, 294600, Note_off_c, 1, 63, 80
3, 294720, Note_on_c, 1, 63, 127
3, 294720, Note_on_c, 1, 59, 70
3, 294960, Note_off_c, 1, 59, 80
3, 294960, Note_off_c, 1, 63, 80
3, 295680, Note_on_c, 1, 73, 127
3, 295800, Note_on_c, 1, 61, 127
3, 296040, Note_off_c, 1, 61, 80
3, 296160, Note_on_c, 1, 61, 127
3, 296400, Note_off_c, 1, 73, 80
3, 296400, Note_off_c, 1, 61, 80
3, 296400, Note_on_c, 1, 71, 127
3, 296640, Note_on_c, 1, 59, 127
3, 296880, Note_off_c, 1, 59, 80
3, 296880, Note_on_c, 1, 61, 127
3, 297120, Note_off_c, 1, 71, 80
3, 297120, Note_off_c, 1, 61, 80
3, 297120, Note_on_c, 1, 73, 127
3, 297360, Note_on_c, 1, 59, 127
3, 297600, Note_off_c, 1, 59, 80
3, 297600, Note_off_c, 1, 73, 80
3, 297600, Note_on_c, 1, 61, 127
3, 297600, Note_on_c, 1, 75, 127
3, 297840, Note_off_c, 1, 61, 80
3, 297960, Note_off_c, 1, 75, 80
3, 298080, Note_on_c, 1, 59, 127
3, 298320, Note_off_c, 1, 59, 80
3, 298320, Note_on_c, 1, 63, 127
3, 298320, Note_on_c, 1, 56, 70
3, 298560, Note_off_c, 1, 56, 80
3, 298560, Note_off_c, 1, 63, 80
3, 298800, Note_on_c, 1, 59, 127
3, 298800, Note_on_c, 1, 54, 70
3, 299040, Note_off_c, 1, 54, 80
3, 299040, Note_off_c, 1, 59, 80
3, 299520, Note_on_c, 1, 61, 127
3, 299520, Note_on_c, 1, 76, 127
3, 299760, Note_off_c, 1, 61, 80
3, 299870, Note_off_c, 1, 76, 80
3, 300000, Note_on_c, 1, 59, 127
3, 300000, Note_on_c, 1, 75, 127
3, 300240, Note_off_c, 1, 59, 80
3, 300350, Note_off_c, 1, 75, 80
3, 300480, Note_on_c, 1, 61, 127
3, 300480, Note_on_c, 1, 73, 127
3, 300720, Note_off_c, 1, 61, 80
3, 300830, Note_off_c, 1, 73, 80
3, 300960, Note_on_c, 1, 59, 127
3, 300960, Note_on_c, 1, 71, 127
3, 301200, Note_off_c, 1, 59, 80
3, 301310, Note_off_c, 1, 71, 80
3, 301440, Note_on_c, 1, 61, 127
3, 301440, Note_on_c, 1, 59, 70
3, 301440, Note_on_c, 1, 73, 127
3, 301680, Note_off_c, 1, 59, 80
3, 301680, Note_off_c, 1, 61, 80
3, 301790, Note_off_c, 1, 73, 80
3, 301920, Note_on_c, 1, 59, 127
3, 301920, Note_on_c, 1, 71, 127
3, 302160, Note_off_c, 1, 59, 80
3, 302270, Note_off_c, 1, 71, 80
3, 302400, Note_on_c, 1, 63, 127
3, 302400, Note_on_c, 1, 59, 70
3, 302400, Note_on_c, 1, 71, 127
3, 302640, Note_off_c, 1, 71, 80
3, 302640, Note_off_c, 1, 59, 80
3, 302640, Note_off_c, 1, 63, 80
3, 302880, Note_on_c, 1, 56, 127
3, 303120, Note_off_c, 1, 56, 80
3, 303120, Note_on_c, 1, 61, 127
3, 303360, Note_off_c, 1, 61, 80
3, 303360, Note_on_c, 1, 59, 127
3, 303480, Note_off_c, 1, 59, 80
3, 303600, Note_on_c, 1, 61, 127
3, 303840, Note_off_c, 1, 61, 80
3, 303840, Note_on_c, 1, 59, 127
3, 304080, Note_off_c, 1, 59, 80
3, 304080, Note_on_c, 1, 61, 127
3, 304320, Note_on_c, 1, 73, 127
3, 304440, Note_off_c, 1, 61, 80
3, 304560, Note_off_c, 1, 73, 80
3, 304560, Note_on_c, 1, 73, 127
3, 304800, Note_off_c, 1, 73, 80
3, 304800, Note_on_c, 1, 59, 127
3, 304800, Note_on_c, 1, 71, 127
3, 305033, Note_off_c, 1, 71, 80
3, 305040, Note_off_c, 1, 59, 80
3, 305040, Note_on_c, 1, 61, 127
3, 305280, Note_off_c, 1, 61, 80
3, 305280, Note_on_c, 1, 59, 127
3, 305280, Note_on_c, 1, 73, 127
3, 305520, Note_off_c, 1, 73, 80
3, 305520, Note_off_c, 1, 59, 80
3, 305520, Note_on_c, 1, 56, 127
3, 305520, Note_on_c, 1, 73, 127
3, 305760, Note_off_c, 1, 73, 80
3, 305760, Note_on_c, 1, 71, 127
3, 305880, Note_off_c, 1, 56, 80
3, 305993, Note_off_c, 1, 71, 80
3, 306000, Note_on_c, 1, 68, 127
3, 306240, Note_off_c, 1, 68, 80
3, 306480, Note_on_c, 1, 59, 127
3, 306720, Note_off_c, 1, 59, 80
3, 306720, Note_on_c, 1, 56, 127
3, 306960, Note_off_c, 1, 56, 80
3, 306960, Note_on_c, 1, 54, 127
3, 307200, Note_off_c, 1, 54, 80
3, 307200, Note_on_c, 1, 61, 127
3, 307440, Note_off_c, 1, 61, 80
3, 307680, Note_on_c, 1, 59, 127
3, 307920, Note_off_c, 1, 59, 80
3, 308160, Note_on_c, 1, 61, 127
3, 308400, Note_off_c, 1, 61, 80
3, 308640, Note_on_c, 1, 59, 127
3, 308880, Note_off_c, 1, 59, 80
3, 308880, Note_on_c, 1, 61, 127
3, 309000, Note_off_c, 1, 61, 80
3, 309360, Note_on_c, 1, 59, 127
3, 309480, Note_off_c, 1, 59, 80
3, 309600, Note_on_c, 1, 63, 127
3, 309600, Note_on_c, 1, 59, 70
3, 309960, Note_off_c, 1, 59, 80
3, 309960, Note_off_c, 1, 63, 80
3, 310080, Note_on_c, 1, 63, 127
3, 310080, Note_on_c, 1, 59, 70
3, 310320, Note_off_c, 1, 59, 80
3, 310320, Note_off_c, 1, 63, 80
3, 311160, Note_on_c, 1, 61, 127
3, 311400, Note_off_c, 1, 61, 80
3, 311520, Note_on_c, 1, 61, 127
3, 311760, Note_off_c, 1, 61, 80
3, 312000, Note_on_c, 1, 59, 127
3, 312240, Note_off_c, 1, 59, 80
3, 312240, Note_on_c, 1, 61, 127
3, 312480, Note_off_c, 1, 61, 80
3, 312720, Note_on_c, 1, 61, 127
3, 312960, Note_off_c, 1, 61, 80
3, 312960, Note_on_c, 1, 59, 127
3, 313200, Note_off_c, 1, 59, 80
3, 313200, Note_on_c, 1, 56, 70
3, 313200, Note_on_c, 1, 63, 127
3, 313440, Note_off_c, 1, 63, 80
3, 313440, Note_off_c, 1, 56, 80
3, 313440, Note_on_c, 1, 59, 127
3, 313440, Note_on_c, 1, 54, 70
3, 313680, Note_off_c, 1, 54, 80
3, 313680, Note_off_c, 1, 59, 80
3, 313920, Note_on_c, 1, 56, 127
3, 314160, Note_off_c, 1, 56, 80
3, 314400, Note_on_c, 1, 56, 127
3, 314640, Note_off_c, 1, 56, 80
3, 314640, Note_on_c, 1, 61, 127
3, 314880, Note_off_c, 1, 61, 80
3, 314880, Note_on_c, 1, 59, 127
3, 315000, Note_off_c, 1, 59, 80
3, 315120, Note_on_c, 1, 61, 127
3, 315360, Note_off_c, 1, 61, 80
3, 315360, Note_on_c, 1, 59, 127
3, 315600, Note_off_c, 1, 59, 80
3, 315600, Note_on_c, 1, 61, 127
3, 315960, Note_off_c, 1, 61, 80
3, 316320, Note_on_c, 1, 59, 127
3, 316320, Note_on_c, 1, 64, 70
3, 316320, Note_on_c, 1, 66, 127
3, 316560, Note_off_c, 1, 66, 80
3, 316560, Note_off_c, 1, 64, 80
3, 316560, Note_off_c, 1, 59, 80
3, 316560, Note_on_c, 1, 61, 127
3, 316560, Note_on_c, 1, 64, 70
3, 316560, Note_on_c, 1, 66, 127
3, 316800, Note_off_c, 1, 66, 80
3, 316800, Note_off_c, 1, 64, 80
3, 316800, Note_off_c, 1, 61, 80
3, 316800, Note_on_c, 1, 59, 127
3, 316800, Note_on_c, 1, 63, 70
3, 316800, Note_on_c, 1, 66, 127
3, 317040, Note_off_c, 1, 66, 80
3, 317040, Note_off_c, 1, 63, 80
3, 317040, Note_off_c, 1, 59, 80
3, 317040, Note_on_c, 1, 61, 127
3, 317040, Note_on_c, 1, 64, 70
3, 317040, Note_on_c, 1, 68, 127
3, 317280, Note_off_c, 1, 68, 80
3, 317280, Note_off_c, 1, 64, 80
3, 317280, Note_off_c, 1, 61, 80
3, 317280, Note_on_c, 1, 59, 127
3, 317280, Note_on_c, 1, 63, 70
3, 317280, Note_on_c, 1, 66, 127
3, 317520, Note_off_c, 1, 66, 80
3, 317520, Note_off_c, 1, 63, 80
3, 317520, Note_off_c, 1, 59, 80
3, 317520, Note_on_c, 1, 61, 127
3, 317520, Note_on_c, 1, 64, 70
3, 317520, Note_on_c, 1, 66, 127
3, 317760, Note_off_c, 1, 66, 80
3, 317760, Note_off_c, 1, 64, 80
3, 317760, Note_off_c, 1, 61, 80
3, 317760, Note_on_c, 1, 59, 127
3, 317760, Note_on_c, 1, 63, 70
3, 317760, Note_on_c, 1, 66, 127
3, 318000, Note_off_c, 1, 66, 80
3, 318000, Note_off_c, 1, 63, 80
3, 318000, Note_off_c, 1, 59, 80
3, 318000, Note_on_c, 1, 61, 127
3, 318000, Note_on_c, 1, 64, 70
3, 318000, Note_on_c, 1, 68, 127
3, 318240, Note_off_c, 1, 68, 80
3, 318240, Note_off_c, 1, 64, 80
3, 318240, Note_off_c, 1, 61, 80
3, 318240, Note_on_c, 1, 59, 127
3, 318240, Note_on_c, 1, 63, 70
3, 318240, Note_on_c, 1, 66, 127
3, 318480, Note_off_c, 1, 66, 80
3, 318480, Note_off_c, 1, 63, 80
3, 318480, Note_off_c, 1, 59, 80
3, 318480, Note_on_c, 1, 61, 127
3, 318480, Note_on_c, 1, 64, 70
3, 318480, Note_on_c, 1, 66, 127
3, 318720, Note_off_c, 1, 66, 80
3, 318720, Note_off_c, 1, 64, 80
3, 318720, Note_off_c, 1, 61, 80
3, 318720, Note_on_c, 1, 59, 127
3, 318720, Note_on_c, 1, 63, 70
3, 318720, Note_on_c, 1, 66, 127
3, 318960, Note_off_c, 1, 66, 80
3, 318960, Note_off_c, 1, 63, 80
3, 318960, Note_off_c, 1, 59, 80
3, 318960, Note_on_c, 1, 61, 127
3, 318960, Note_on_c, 1, 64, 70
3, 318960, Note_on_c, 1, 68, 127
3, 319200, Note_off_c, 1, 68, 80
3, 319200, Note_off_c, 1, 64, 80
3, 319200, Note_off_c, 1, 61, 80
3, 319200, Note_on_c, 1, 59, 127
3, 319440, Note_off_c, 1, 59, 80
3, 319440, Note_on_c, 1, 61, 127
3, 319680, Note_off_c, 1, 61, 80
3, 319680, Note_on_c, 1, 59, 127
3, 319920, Note_off_c, 1, 59, 80
3, 319920, Note_on_c, 1, 61, 127
3, 320160, Note_off_c, 1, 61, 80
3, 320160, Note_on_c, 1, 59, 127
3, 320400, Note_off_c, 1, 59, 80
3, 320400, Note_on_c, 1, 61, 127
3, 320400, Note_on_c, 1, 71, 127
3, 320640, Note_off_c, 1, 71, 80
3, 320640, Note_on_c, 1, 71, 127
3, 320880, Note_off_c, 1, 61, 80
3, 320880, Note_off_c, 1, 71, 80
3, 320880, Note_on_c, 1, 59, 127
3, 320880, Note_on_c, 1, 68, 127
3, 321120, Note_off_c, 1, 68, 80
3, 321120, Note_on_c, 1, 66, 127
3, 321240, Note_off_c, 1, 59, 80
3, 321360, Note_off_c, 1, 66, 80
3, 321360, Note_on_c, 1, 63, 127
3, 321600, Note_off_c, 1, 63, 80
3, 321600, End_track
4, 0, Start_track
4, 0, Title_t, "Rev Cymbal"
4, 0, MIDI_port, 0
4, 0, Channel_prefix, 2
4, 0, Control_c, 2, 7, 109
4, 0, Control_c, 2, 10, 64
4, 0, Control_c, 2, 91, 0
4, 0, Control_c, 2, 93, 0
4, 0, Program_c, 2, 119
4, 12960, Note_on_c, 2, 70, 127
4, 15360, Note_off_c, 2, 70, 80
4, 28320, Note_on_c, 2, 70, 127
4, 30720, Note_off_c, 2, 70, 80
4, 43680, Note_on_c, 2, 70, 127
4, 46080, Note_off_c, 2, 70, 80
4, 74400, Note_on_c, 2, 70, 127
4, 76800, Note_off_c, 2, 70, 80
4, 105120, Note_on_c, 2, 70, 127
4, 107520, Note_off_c, 2, 70, 80
4, 120480, Note_on_c, 2, 70, 127
4, 122880, Note_off_c, 2, 70, 80
4, 135840, Note_on_c, 2, 70, 127
4, 138240, Note_off_c, 2, 70, 80
4, 166560, Note_on_c, 2, 70, 127
4, 168960, Note_off_c, 2, 70, 80
4, 197280, Note_on_c, 2, 70, 127
4, 199680, Note_off_c, 2, 70, 80
4, 212640, Note_on_c, 2, 70, 127
4, 215040, Note_off_c, 2, 70, 80
4, 228000, Note_on_c, 2, 70, 127
4, 230400, Note_off_c, 2, 70, 80
4, 258720, Note_on_c, 2, 70, 127
4, 261120, Note_off_c, 2, 70, 80
4, 274080, Note_on_c, 2, 70, 127
4, 276480, Note_off_c, 2, 70, 80
4, 289440, Note_on_c, 2, 70, 127
4, 291840, Note_off_c, 2, 70, 80
4, 304800, Note_on_c, 2, 70, 127
4, 307200, Note_off_c, 2, 70, 80
4, 320160, Note_on_c, 2, 70, 127
4, 322560, Note_off_c, 2, 70, 80
4, 335520, Note_on_c, 2, 70, 79
4, 337920, Note_off_c, 2, 70, 80
4, 350880, Note_on_c, 2, 70, 15
4, 353280, Note_off_c, 2, 70, 80
4, 353280, End_track
5, 0, Start_track
5, 0, Title_t, "Percussion"
5, 0, MIDI_port, 0
5, 0, Channel_prefix, 9
5, 0, Control_c, 9, 7, 109
5, 0, Control_c, 9, 10, 64
5, 0, Control_c, 9, 91, 0
5, 0, Control_c, 9, 93, 0
5, 0, Program_c, 9, 0
5, 14400, Note_on_c, 9, 44, 127
5, 14640, Note_off_c, 9, 44, 80
5, 15360, Note_on_c, 9, 35, 127
5, 15360, Note_on_c, 9, 36, 127
5, 15360, Note_on_c, 9, 35, 127
5, 15360, Note_on_c, 9, 36, 127
5, 15360, Note_on_c, 9, 57, 127
5, 15600, Note_off_c, 9, 57, 80
5, 15600, Note_off_c, 9, 36, 80
5, 15600, Note_off_c, 9, 35, 80
5, 15600, Note_off_c, 9, 36, 80
5, 15600, Note_off_c, 9, 35, 80
5, 15840, Note_on_c, 9, 36, 127
5, 15840, Note_on_c, 9, 35, 127
5, 15840, Note_on_c, 9, 36, 127
5, 15840, Note_on_c, 9, 35, 127
5, 16080, Note_off_c, 9, 35, 80
5, 16080, Note_off_c, 9, 36, 80
5, 16080, Note_off_c, 9, 35, 80
5, 16080, Note_off_c, 9, 36, 80
5, 16320, Note_on_c, 9, 44, 127
5, 16560, Note_off_c, 9, 44, 80
5, 16800, Note_on_c, 9, 36, 127
5, 16800, Note_on_c, 9, 35, 127
5, 16800, Note_on_c, 9, 35, 127
5, 16800, Note_on_c, 9, 36, 127
5, 17040, Note_off_c, 9, 36, 80
5, 17040, Note_off_c, 9, 35, 80
5, 17040, Note_off_c, 9, 35, 80
5, 17040, Note_off_c, 9, 36, 80
5, 17280, Note_on_c, 9, 36, 127
5, 17280, Note_on_c, 9, 35, 127
5, 17280, Note_on_c, 9, 35, 127
5, 17280, Note_on_c, 9, 36, 127
5, 17520, Note_off_c, 9, 36, 80
5, 17520, Note_off_c, 9, 35, 80
5, 17520, Note_off_c, 9, 35, 80
5, 17520, Note_off_c, 9, 36, 80
5, 18240, Note_on_c, 9, 44, 127
5, 18480, Note_off_c, 9, 44, 80
5, 19200, Note_on_c, 9, 35, 127
5, 19200, Note_on_c, 9, 36, 127
5, 19200, Note_on_c, 9, 36, 127
5, 19200, Note_on_c, 9, 35, 127
5, 19440, Note_off_c, 9, 35, 80
5, 19440, Note_off_c, 9, 36, 80
5, 19440, Note_off_c, 9, 36, 80
5, 19440, Note_off_c, 9, 35, 80
5, 19680, Note_on_c, 9, 36, 127
5, 19680, Note_on_c, 9, 36, 127
5, 19680, Note_on_c, 9, 35, 127
5, 19680, Note_on_c, 9, 35, 127
5, 19920, Note_off_c, 9, 35, 80
5, 19920, Note_off_c, 9, 35, 80
5, 19920, Note_off_c, 9, 36, 80
5, 19920, Note_off_c, 9, 36, 80
5, 20160, Note_on_c, 9, 44, 127
5, 20400, Note_off_c, 9, 44, 80
5, 21120, Note_on_c, 9, 36, 127
5, 21120, Note_on_c, 9, 35, 127
5, 21120, Note_on_c, 9, 35, 127
5, 21120, Note_on_c, 9, 36, 127
5, 21360, Note_off_c, 9, 36, 80
5, 21360, Note_off_c, 9, 35, 80
5, 21360, Note_off_c, 9, 35, 80
5, 21360, Note_off_c, 9, 36, 80
5, 22080, Note_on_c, 9, 44, 127
5, 22320, Note_off_c, 9, 44, 80
5, 23040, Note_on_c, 9, 35, 127
5, 23040, Note_on_c, 9, 36, 127
5, 23040, Note_on_c, 9, 36, 127
5, 23040, Note_on_c, 9, 35, 127
5, 23280, Note_off_c, 9, 35, 80
5, 23280, Note_off_c, 9, 36, 80
5, 23280, Note_off_c, 9, 36, 80
5, 23280, Note_off_c, 9, 35, 80
5, 23520, Note_on_c, 9, 36, 127
5, 23520, Note_on_c, 9, 36, 127
5, 23520, Note_on_c, 9, 35, 127
5, 23520, Note_on_c, 9, 35, 127
5, 23760, Note_off_c, 9, 35, 80
5, 23760, Note_off_c, 9, 35, 80
5, 23760, Note_off_c, 9, 36, 80
5, 23760, Note_off_c, 9, 36, 80
5, 24000, Note_on_c, 9, 44, 127
5, 24240, Note_off_c, 9, 44, 80
5, 24960, Note_on_c, 9, 36, 127
5, 24960, Note_on_c, 9, 35, 127
5, 24960, Note_on_c, 9, 35, 127
5, 24960, Note_on_c, 9, 36, 127
5, 25200, Note_off_c, 9, 36, 80
5, 25200, Note_off_c, 9, 35, 80
5, 25200, Note_off_c, 9, 35, 80
5, 25200, Note_off_c, 9, 36, 80
5, 25920, Note_on_c, 9, 44, 127
5, 26160, Note_off_c, 9, 44, 80
5, 26880, Note_on_c, 9, 35, 127
5, 26880, Note_on_c, 9, 36, 127
5, 26880, Note_on_c, 9, 36, 127
5, 26880, Note_on_c, 9, 35, 127
5, 27120, Note_off_c, 9, 35, 80
5, 27120, Note_off_c, 9, 36, 80
5, 27120, Note_off_c, 9, 36, 80
5, 27120, Note_off_c, 9, 35, 80
5, 27360, Note_on_c, 9, 36, 127
5, 27360, Note_on_c, 9, 36, 127
5, 27360, Note_on_c, 9, 35, 127
5, 27360, Note_on_c, 9, 35, 127
5, 27600, Note_off_c, 9, 35, 80
5, 27600, Note_off_c, 9, 35, 80
5, 27600, Note_off_c, 9, 36, 80
5, 27600, Note_off_c, 9, 36, 80
5, 27840, Note_on_c, 9, 44, 127
5, 28080, Note_off_c, 9, 44, 80
5, 28800, Note_on_c, 9, 36, 127
5, 28800, Note_on_c, 9, 35, 127
5, 28800, Note_on_c, 9, 35, 127
5, 28800, Note_on_c, 9, 36, 127
5, 29040, Note_off_c, 9, 36, 80
5, 29040, Note_off_c, 9, 35, 80
5, 29040, Note_off_c, 9, 35, 80
5, 29040, Note_off_c, 9, 36, 80
5, 29760, Note_on_c, 9, 44, 127
5, 30000, Note_off_c, 9, 44, 80
5, 30720, Note_on_c, 9, 35, 127
5, 30720, Note_on_c, 9, 36, 127
5, 30720, Note_on_c, 9, 35, 127
5, 30720, Note_on_c, 9, 36, 127
5, 30720, Note_on_c, 9, 57, 127
5, 30960, Note_off_c, 9, 57, 80
5, 30960, Note_off_c, 9, 36, 80
5, 30960, Note_off_c, 9, 35, 80
5, 30960, Note_off_c, 9, 36, 80
5, 30960, Note_off_c, 9, 35, 80
5, 31200, Note_on_c, 9, 36, 127
5, 31200, Note_on_c, 9, 35, 127
5, 31200, Note_on_c, 9, 36, 127
5, 31200, Note_on_c, 9, 35, 127
5, 31440, Note_off_c, 9, 35, 80
5, 31440, Note_off_c, 9, 36, 80
5, 31440, Note_off_c, 9, 35, 80
5, 31440, Note_off_c, 9, 36, 80
5, 31680, Note_on_c, 9, 44, 127
5, 31920, Note_off_c, 9, 44, 80
5, 32160, Note_on_c, 9, 36, 127
5, 32160, Note_on_c, 9, 35, 127
5, 32160, Note_on_c, 9, 35, 127
5, 32160, Note_on_c, 9, 36, 127
5, 32400, Note_off_c, 9, 36, 80
5, 32400, Note_off_c, 9, 35, 80
5, 32400, Note_off_c, 9, 35, 80
5, 32400, Note_off_c, 9, 36, 80
5, 32640, Note_on_c, 9, 36, 127
5, 32640, Note_on_c, 9, 35, 127
5, 32640, Note_on_c, 9, 35, 127
5, 32640, Note_on_c, 9, 36, 127
5, 32880, Note_off_c, 9, 36, 80
5, 32880, Note_off_c, 9, 35, 80
5, 32880, Note_off_c, 9, 35, 80
5, 32880, Note_off_c, 9, 36, 80
5, 33600, Note_on_c, 9, 44, 127
5, 33840, Note_off_c, 9, 44, 80
5, 34560, Note_on_c, 9, 35, 127
5, 34560, Note_on_c, 9, 36, 127
5, 34560, Note_on_c, 9, 36, 127
5, 34560, Note_on_c, 9, 35, 127
5, 34800, Note_off_c, 9, 35, 80
5, 34800, Note_off_c, 9, 36, 80
5, 34800, Note_off_c, 9, 36, 80
5, 34800, Note_off_c, 9, 35, 80
5, 35040, Note_on_c, 9, 36, 127
5, 35040, Note_on_c, 9, 36, 127
5, 35040, Note_on_c, 9, 35, 127
5, 35040, Note_on_c, 9, 35, 127
5, 35280, Note_off_c, 9, 35, 80
5, 35280, Note_off_c, 9, 35, 80
5, 35280, Note_off_c, 9, 36, 80
5, 35280, Note_off_c, 9, 36, 80
5, 35520, Note_on_c, 9, 44, 127
5, 35760, Note_off_c, 9, 44, 80
5, 36480, Note_on_c, 9, 36, 127
5, 36480, Note_on_c, 9, 35, 127
5, 36480, Note_on_c, 9, 35, 127
5, 36480, Note_on_c, 9, 36, 127
5, 36720, Note_off_c, 9, 36, 80
5, 36720, Note_off_c, 9, 35, 80
5, 36720, Note_off_c, 9, 35, 80
5, 36720, Note_off_c, 9, 36, 80
5, 37440, Note_on_c, 9, 44, 127
5, 37680, Note_off_c, 9, 44, 80
5, 38400, Note_on_c, 9, 35, 127
5, 38400, Note_on_c, 9, 36, 127
5, 38400, Note_on_c, 9, 36, 127
5, 38400, Note_on_c, 9, 35, 127
5, 38640, Note_off_c, 9, 35, 80
5, 38640, Note_off_c, 9, 36, 80
5, 38640, Note_off_c, 9, 36, 80
5, 38640, Note_off_c, 9, 35, 80
5, 38880, Note_on_c, 9, 36, 127
5, 38880, Note_on_c, 9, 36, 127
5, 38880, Note_on_c, 9, 35, 127
5, 38880, Note_on_c, 9, 35, 127
5, 39120, Note_off_c, 9, 35, 80
5, 39120, Note_off_c, 9, 35, 80
5, 39120, Note_off_c, 9, 36, 80
5, 39120, Note_off_c, 9, 36, 80
5, 39360, Note_on_c, 9, 44, 127
5, 39600, Note_off_c, 9, 44, 80
5, 40320, Note_on_c, 9, 36, 127
5, 40320, Note_on_c, 9, 35, 127
5, 40320, Note_on_c, 9, 35, 127
5, 40320, Note_on_c, 9, 36, 127
5, 40560, Note_off_c, 9, 36, 80
5, 40560, Note_off_c, 9, 35, 80
5, 40560, Note_off_c, 9, 35, 80
5, 40560, Note_off_c, 9, 36, 80
5, 41280, Note_on_c, 9, 44, 127
5, 41520, Note_off_c, 9, 44, 80
5, 42240, Note_on_c, 9, 35, 127
5, 42240, Note_on_c, 9, 36, 127
5, 42240, Note_on_c, 9, 36, 127
5, 42240, Note_on_c, 9, 35, 127
5, 42480, Note_off_c, 9, 35, 80
5, 42480, Note_off_c, 9, 36, 80
5, 42480, Note_off_c, 9, 36, 80
5, 42480, Note_off_c, 9, 35, 80
5, 42720, Note_on_c, 9, 36, 127
5, 42720, Note_on_c, 9, 36, 127
5, 42720, Note_on_c, 9, 35, 127
5, 42720, Note_on_c, 9, 35, 127
5, 42960, Note_off_c, 9, 35, 80
5, 42960, Note_off_c, 9, 35, 80
5, 42960, Note_off_c, 9, 36, 80
5, 42960, Note_off_c, 9, 36, 80
5, 43200, Note_on_c, 9, 44, 127
5, 43440, Note_off_c, 9, 44, 80
5, 44160, Note_on_c, 9, 36, 127
5, 44160, Note_on_c, 9, 35, 127
5, 44160, Note_on_c, 9, 35, 127
5, 44160, Note_on_c, 9, 36, 127
5, 44400, Note_off_c, 9, 36, 80
5, 44400, Note_off_c, 9, 35, 80
5, 44400, Note_off_c, 9, 35, 80
5, 44400, Note_off_c, 9, 36, 80
5, 45120, Note_on_c, 9, 44, 127
5, 45360, Note_off_c, 9, 44, 80
5, 46080, Note_on_c, 9, 35, 127
5, 46080, Note_on_c, 9, 36, 127
5, 46080, Note_on_c, 9, 35, 127
5, 46080, Note_on_c, 9, 36, 127
5, 46080, Note_on_c, 9, 57, 127
5, 46320, Note_off_c, 9, 57, 80
5, 46320, Note_off_c, 9, 36, 80
5, 46320, Note_off_c, 9, 35, 80
5, 46320, Note_off_c, 9, 36, 80
5, 46320, Note_off_c, 9, 35, 80
5, 46560, Note_on_c, 9, 36, 127
5, 46560, Note_on_c, 9, 35, 127
5, 46560, Note_on_c, 9, 36, 127
5, 46560, Note_on_c, 9, 35, 127
5, 46800, Note_off_c, 9, 35, 80
5, 46800, Note_off_c, 9, 36, 80
5, 46800, Note_off_c, 9, 35, 80
5, 46800, Note_off_c, 9, 36, 80
5, 47040, Note_on_c, 9, 44, 127
5, 47280, Note_off_c, 9, 44, 80
5, 47520, Note_on_c, 9, 36, 127
5, 47520, Note_on_c, 9, 35, 127
5, 47520, Note_on_c, 9, 35, 127
5, 47520, Note_on_c, 9, 36, 127
5, 47760, Note_off_c, 9, 36, 80
5, 47760, Note_off_c, 9, 35, 80
5, 47760, Note_off_c, 9, 35, 80
5, 47760, Note_off_c, 9, 36, 80
5, 48000, Note_on_c, 9, 36, 127
5, 48000, Note_on_c, 9, 35, 127
5, 48000, Note_on_c, 9, 35, 127
5, 48000, Note_on_c, 9, 36, 127
5, 48240, Note_off_c, 9, 36, 80
5, 48240, Note_off_c, 9, 35, 80
5, 48240, Note_off_c, 9, 35, 80
5, 48240, Note_off_c, 9, 36, 80
5, 48960, Note_on_c, 9, 44, 127
5, 49200, Note_off_c, 9, 44, 80
5, 49920, Note_on_c, 9, 35, 127
5, 49920, Note_on_c, 9, 36, 127
5, 49920, Note_on_c, 9, 36, 127
5, 49920, Note_on_c, 9, 35, 127
5, 50160, Note_off_c, 9, 35, 80
5, 50160, Note_off_c, 9, 36, 80
5, 50160, Note_off_c, 9, 36, 80
5, 50160, Note_off_c, 9, 35, 80
5, 50400, Note_on_c, 9, 36, 127
5, 50400, Note_on_c, 9, 36, 127
5, 50400, Note_on_c, 9, 35, 127
5, 50400, Note_on_c, 9, 35, 127
5, 50640, Note_off_c, 9, 35, 80
5, 50640, Note_off_c, 9, 35, 80
5, 50640, Note_off_c, 9, 36, 80
5, 50640, Note_off_c, 9, 36, 80
5, 50880, Note_on_c, 9, 44, 127
5, 51120, Note_off_c, 9, 44, 80
5, 51840, Note_on_c, 9, 36, 127
5, 51840, Note_on_c, 9, 35, 127
5, 51840, Note_on_c, 9, 35, 127
5, 51840, Note_on_c, 9, 36, 127
5, 52080, Note_off_c, 9, 36, 80
5, 52080, Note_off_c, 9, 35, 80
5, 52080, Note_off_c, 9, 35, 80
5, 52080, Note_off_c, 9, 36, 80
5, 52800, Note_on_c, 9, 44, 127
5, 53040, Note_off_c, 9, 44, 80
5, 53760, Note_on_c, 9, 35, 127
5, 53760, Note_on_c, 9, 36, 127
5, 53760, Note_on_c, 9, 36, 127
5, 53760, Note_on_c, 9, 35, 127
5, 54000, Note_off_c, 9, 35, 80
5, 54000, Note_off_c, 9, 36, 80
5, 54000, Note_off_c, 9, 36, 80
5, 54000, Note_off_c, 9, 35, 80
5, 54240, Note_on_c, 9, 36, 127
5, 54240, Note_on_c, 9, 36, 127
5, 54240, Note_on_c, 9, 35, 127
5, 54240, Note_on_c, 9, 35, 127
5, 54480, Note_off_c, 9, 35, 80
5, 54480, Note_off_c, 9, 35, 80
5, 54480, Note_off_c, 9, 36, 80
5, 54480, Note_off_c, 9, 36, 80
5, 54720, Note_on_c, 9, 44, 127
5, 54960, Note_off_c, 9, 44, 80
5, 55680, Note_on_c, 9, 36, 127
5, 55680, Note_on_c, 9, 35, 127
5, 55680, Note_on_c, 9, 35, 127
5, 55680, Note_on_c, 9, 36, 127
5, 55920, Note_off_c, 9, 36, 80
5, 55920, Note_off_c, 9, 35, 80
5, 55920, Note_off_c, 9, 35, 80
5, 55920, Note_off_c, 9, 36, 80
5, 56640, Note_on_c, 9, 44, 127
5, 56880, Note_off_c, 9, 44, 80
5, 57600, Note_on_c, 9, 35, 127
5, 57600, Note_on_c, 9, 36, 127
5, 57600, Note_on_c, 9, 36, 127
5, 57600, Note_on_c, 9, 35, 127
5, 57840, Note_off_c, 9, 35, 80
5, 57840, Note_off_c, 9, 36, 80
5, 57840, Note_off_c, 9, 36, 80
5, 57840, Note_off_c, 9, 35, 80
5, 58080, Note_on_c, 9, 36, 127
5, 58080, Note_on_c, 9, 36, 127
5, 58080, Note_on_c, 9, 35, 127
5, 58080, Note_on_c, 9, 35, 127
5, 58320, Note_off_c, 9, 35, 80
5, 58320, Note_off_c, 9, 35, 80
5, 58320, Note_off_c, 9, 36, 80
5, 58320, Note_off_c, 9, 36, 80
5, 58560, Note_on_c, 9, 44, 127
5, 58800, Note_off_c, 9, 44, 80
5, 59520, Note_on_c, 9, 36, 127
5, 59520, Note_on_c, 9, 35, 127
5, 59520, Note_on_c, 9, 35, 127
5, 59520, Note_on_c, 9, 36, 127
5, 59760, Note_off_c, 9, 36, 80
5, 59760, Note_off_c, 9, 35, 80
5, 59760, Note_off_c, 9, 35, 80
5, 59760, Note_off_c, 9, 36, 80
5, 60480, Note_on_c, 9, 44, 127
5, 60720, Note_off_c, 9, 44, 80
5, 61440, Note_on_c, 9, 35, 127
5, 61440, Note_on_c, 9, 36, 127
5, 61440, Note_on_c, 9, 35, 127
5, 61440, Note_on_c, 9, 36, 127
5, 61440, Note_on_c, 9, 57, 127
5, 61680, Note_off_c, 9, 57, 80
5, 61680, Note_off_c, 9, 36, 80
5, 61680, Note_off_c, 9, 35, 80
5, 61680, Note_off_c, 9, 36, 80
5, 61680, Note_off_c, 9, 35, 80
5, 61920, Note_on_c, 9, 36, 127
5, 61920, Note_on_c, 9, 35, 127
5, 61920, Note_on_c, 9, 36, 127
5, 61920, Note_on_c, 9, 35, 127
5, 62160, Note_off_c, 9, 35, 80
5, 62160, Note_off_c, 9, 36, 80
5, 62160, Note_off_c, 9, 35, 80
5, 62160, Note_off_c, 9, 36, 80
5, 62400, Note_on_c, 9, 44, 127
5, 62640, Note_off_c, 9, 44, 80
5, 62880, Note_on_c, 9, 36, 127
5, 62880, Note_on_c, 9, 35, 127
5, 62880, Note_on_c, 9, 35, 127
5, 62880, Note_on_c, 9, 36, 127
5, 63120, Note_off_c, 9, 36, 80
5, 63120, Note_off_c, 9, 35, 80
5, 63120, Note_off_c, 9, 35, 80
5, 63120, Note_off_c, 9, 36, 80
5, 63360, Note_on_c, 9, 36, 127
5, 63360, Note_on_c, 9, 35, 127
5, 63360, Note_on_c, 9, 35, 127
5, 63360, Note_on_c, 9, 36, 127
5, 63600, Note_off_c, 9, 36, 80
5, 63600, Note_off_c, 9, 35, 80
5, 63600, Note_off_c, 9, 35, 80
5, 63600, Note_off_c, 9, 36, 80
5, 64320, Note_on_c, 9, 44, 127
5, 64560, Note_off_c, 9, 44, 80
5, 65280, Note_on_c, 9, 35, 127
5, 65280, Note_on_c, 9, 36, 127
5, 65280, Note_on_c, 9, 36, 127
5, 65280, Note_on_c, 9, 35, 127
5, 65520, Note_off_c, 9, 35, 80
5, 65520, Note_off_c, 9, 36, 80
5, 65520, Note_off_c, 9, 36, 80
5, 65520, Note_off_c, 9, 35, 80
5, 65760, Note_on_c, 9, 36, 127
5, 65760, Note_on_c, 9, 36, 127
5, 65760, Note_on_c, 9, 35, 127
5, 65760, Note_on_c, 9, 35, 127
5, 66000, Note_off_c, 9, 35, 80
5, 66000, Note_off_c, 9, 35, 80
5, 66000, Note_off_c, 9, 36, 80
5, 66000, Note_off_c, 9, 36, 80
5, 66240, Note_on_c, 9, 44, 127
5, 66480, Note_off_c, 9, 44, 80
5, 67200, Note_on_c, 9, 36, 127
5, 67200, Note_on_c, 9, 35, 127
5, 67200, Note_on_c, 9, 35, 127
5, 67200, Note_on_c, 9, 36, 127
5, 67440, Note_off_c, 9, 36, 80
5, 67440, Note_off_c, 9, 35, 80
5, 67440, Note_off_c, 9, 35, 80
5, 67440, Note_off_c, 9, 36, 80
5, 68160, Note_on_c, 9, 44, 127
5, 68400, Note_off_c, 9, 44, 80
5, 69120, Note_on_c, 9, 35, 127
5, 69120, Note_on_c, 9, 36, 127
5, 69120, Note_on_c, 9, 36, 127
5, 69120, Note_on_c, 9, 35, 127
5, 69360, Note_off_c, 9, 35, 80
5, 69360, Note_off_c, 9, 36, 80
5, 69360, Note_off_c, 9, 36, 80
5, 69360, Note_off_c, 9, 35, 80
5, 69600, Note_on_c, 9, 36, 127
5, 69600, Note_on_c, 9, 36, 127
5, 69600, Note_on_c, 9, 35, 127
5, 69600, Note_on_c, 9, 35, 127
5, 69840, Note_off_c, 9, 35, 80
5, 69840, Note_off_c, 9, 35, 80
5, 69840, Note_off_c, 9, 36, 80
5, 69840, Note_off_c, 9, 36, 80
5, 70080, Note_on_c, 9, 44, 127
5, 70320, Note_off_c, 9, 44, 80
5, 71040, Note_on_c, 9, 36, 127
5, 71040, Note_on_c, 9, 35, 127
5, 71040, Note_on_c, 9, 35, 127
5, 71040, Note_on_c, 9, 36, 127
5, 71280, Note_off_c, 9, 36, 80
5, 71280, Note_off_c, 9, 35, 80
5, 71280, Note_off_c, 9, 35, 80
5, 71280, Note_off_c, 9, 36, 80
5, 72000, Note_on_c, 9, 44, 127
5, 72240, Note_off_c, 9, 44, 80
5, 72960, Note_on_c, 9, 35, 127
5, 72960, Note_on_c, 9, 36, 127
5, 72960, Note_on_c, 9, 36, 127
5, 72960, Note_on_c, 9, 35, 127
5, 73200, Note_off_c, 9, 35, 80
5, 73200, Note_off_c, 9, 36, 80
5, 73200, Note_off_c, 9, 36, 80
5, 73200, Note_off_c, 9, 35, 80
5, 73440, Note_on_c, 9, 36, 127
5, 73440, Note_on_c, 9, 36, 127
5, 73440, Note_on_c, 9, 35, 127
5, 73440, Note_on_c, 9, 35, 127
5, 73680, Note_off_c, 9, 35, 80
5, 73680, Note_off_c, 9, 35, 80
5, 73680, Note_off_c, 9, 36, 80
5, 73680, Note_off_c, 9, 36, 80
5, 73920, Note_on_c, 9, 44, 127
5, 74160, Note_off_c, 9, 44, 80
5, 74880, Note_on_c, 9, 36, 127
5, 74880, Note_on_c, 9, 35, 127
5, 74880, Note_on_c, 9, 35, 127
5, 74880, Note_on_c, 9, 36, 127
5, 75120, Note_off_c, 9, 36, 80
5, 75120, Note_off_c, 9, 35, 80
5, 75120, Note_off_c, 9, 35, 80
5, 75120, Note_off_c, 9, 36, 80
5, 75840, Note_on_c, 9, 44, 127
5, 76080, Note_off_c, 9, 44, 80
5, 76800, Note_on_c, 9, 35, 127
5, 76800, Note_on_c, 9, 36, 127
5, 76800, Note_on_c, 9, 35, 127
5, 76800, Note_on_c, 9, 36, 127
5, 76800, Note_on_c, 9, 57, 127
5, 77040, Note_off_c, 9, 57, 80
5, 77040, Note_off_c, 9, 36, 80
5, 77040, Note_off_c, 9, 35, 80
5, 77040, Note_off_c, 9, 36, 80
5, 77040, Note_off_c, 9, 35, 80
5, 77280, Note_on_c, 9, 36, 127
5, 77280, Note_on_c, 9, 35, 127
5, 77280, Note_on_c, 9, 36, 127
5, 77280, Note_on_c, 9, 35, 127
5, 77520, Note_off_c, 9, 35, 80
5, 77520, Note_off_c, 9, 36, 80
5, 77520, Note_off_c, 9, 35, 80
5, 77520, Note_off_c, 9, 36, 80
5, 77760, Note_on_c, 9, 44, 127
5, 78000, Note_off_c, 9, 44, 80
5, 78240, Note_on_c, 9, 36, 127
5, 78240, Note_on_c, 9, 35, 127
5, 78240, Note_on_c, 9, 35, 127
5, 78240, Note_on_c, 9, 36, 127
5, 78480, Note_off_c, 9, 36, 80
5, 78480, Note_off_c, 9, 35, 80
5, 78480, Note_off_c, 9, 35, 80
5, 78480, Note_off_c, 9, 36, 80
5, 78720, Note_on_c, 9, 36, 127
5, 78720, Note_on_c, 9, 35, 127
5, 78720, Note_on_c, 9, 35, 127
5, 78720, Note_on_c, 9, 36, 127
5, 78960, Note_off_c, 9, 36, 80
5, 78960, Note_off_c, 9, 35, 80
5, 78960, Note_off_c, 9, 35, 80
5, 78960, Note_off_c, 9, 36, 80
5, 79680, Note_on_c, 9, 44, 127
5, 79920, Note_off_c, 9, 44, 80
5, 80640, Note_on_c, 9, 35, 127
5, 80640, Note_on_c, 9, 36, 127
5, 80640, Note_on_c, 9, 36, 127
5, 80640, Note_on_c, 9, 35, 127
5, 80880, Note_off_c, 9, 35, 80
5, 80880, Note_off_c, 9, 36, 80
5, 80880, Note_off_c, 9, 36, 80
5, 80880, Note_off_c, 9, 35, 80
5, 81120, Note_on_c, 9, 36, 127
5, 81120, Note_on_c, 9, 36, 127
5, 81120, Note_on_c, 9, 35, 127
5, 81120, Note_on_c, 9, 35, 127
5, 81360, Note_off_c, 9, 35, 80
5, 81360, Note_off_c, 9, 35, 80
5, 81360, Note_off_c, 9, 36, 80
5, 81360, Note_off_c, 9, 36, 80
5, 81600, Note_on_c, 9, 44, 127
5, 81840, Note_off_c, 9, 44, 80
5, 82560, Note_on_c, 9, 36, 127
5, 82560, Note_on_c, 9, 35, 127
5, 82560, Note_on_c, 9, 35, 127
5, 82560, Note_on_c, 9, 36, 127
5, 82800, Note_off_c, 9, 36, 80
5, 82800, Note_off_c, 9, 35, 80
5, 82800, Note_off_c, 9, 35, 80
5, 82800, Note_off_c, 9, 36, 80
5, 83520, Note_on_c, 9, 44, 127
5, 83760, Note_off_c, 9, 44, 80
5, 84480, Note_on_c, 9, 35, 127
5, 84480, Note_on_c, 9, 36, 127
5, 84480, Note_on_c, 9, 36, 127
5, 84480, Note_on_c, 9, 35, 127
5, 84720, Note_off_c, 9, 35, 80
5, 84720, Note_off_c, 9, 36, 80
5, 84720, Note_off_c, 9, 36, 80
5, 84720, Note_off_c, 9, 35, 80
5, 84960, Note_on_c, 9, 36, 127
5, 84960, Note_on_c, 9, 36, 127
5, 84960, Note_on_c, 9, 35, 127
5, 84960, Note_on_c, 9, 35, 127
5, 85200, Note_off_c, 9, 35, 80
5, 85200, Note_off_c, 9, 35, 80
5, 85200, Note_off_c, 9, 36, 80
5, 85200, Note_off_c, 9, 36, 80
5, 85440, Note_on_c, 9, 44, 127
5, 85680, Note_off_c, 9, 44, 80
5, 86400, Note_on_c, 9, 36, 127
5, 86400, Note_on_c, 9, 35, 127
5, 86400, Note_on_c, 9, 35, 127
5, 86400, Note_on_c, 9, 36, 127
5, 86640, Note_off_c, 9, 36, 80
5, 86640, Note_off_c, 9, 35, 80
5, 86640, Note_off_c, 9, 35, 80
5, 86640, Note_off_c, 9, 36, 80
5, 87360, Note_on_c, 9, 44, 127
5, 87600, Note_off_c, 9, 44, 80
5, 88320, Note_on_c, 9, 35, 127
5, 88320, Note_on_c, 9, 36, 127
5, 88320, Note_on_c, 9, 36, 127
5, 88320, Note_on_c, 9, 35, 127
5, 88560, Note_off_c, 9, 35, 80
5, 88560, Note_off_c, 9, 36, 80
5, 88560, Note_off_c, 9, 36, 80
5, 88560, Note_off_c, 9, 35, 80
5, 88800, Note_on_c, 9, 36, 127
5, 88800, Note_on_c, 9, 36, 127
5, 88800, Note_on_c, 9, 35, 127
5, 88800, Note_on_c, 9, 35, 127
5, 89040, Note_off_c, 9, 35, 80
5, 89040, Note_off_c, 9, 35, 80
5, 89040, Note_off_c, 9, 36, 80
5, 89040, Note_off_c, 9, 36, 80
5, 89280, Note_on_c, 9, 44, 127
5, 89520, Note_off_c, 9, 44, 80
5, 90240, Note_on_c, 9, 36, 127
5, 90240, Note_on_c, 9, 35, 127
5, 90240, Note_on_c, 9, 35, 127
5, 90240, Note_on_c, 9, 36, 127
5, 90480, Note_off_c, 9, 36, 80
5, 90480, Note_off_c, 9, 35, 80
5, 90480, Note_off_c, 9, 35, 80
5, 90480, Note_off_c, 9, 36, 80
5, 91200, Note_on_c, 9, 44, 127
5, 91440, Note_off_c, 9, 44, 80
5, 92160, Note_on_c, 9, 35, 127
5, 92160, Note_on_c, 9, 36, 127
5, 92160, Note_on_c, 9, 35, 127
5, 92160, Note_on_c, 9, 36, 127
5, 92160, Note_on_c, 9, 57, 127
5, 92400, Note_off_c, 9, 57, 80
5, 92400, Note_off_c, 9, 36, 80
5, 92400, Note_off_c, 9, 35, 80
5, 92400, Note_off_c, 9, 36, 80
5, 92400, Note_off_c, 9, 35, 80
5, 92640, Note_on_c, 9, 36, 127
5, 92640, Note_on_c, 9, 35, 127
5, 92640, Note_on_c, 9, 36, 127
5, 92640, Note_on_c, 9, 35, 127
5, 92880, Note_off_c, 9, 35, 80
5, 92880, Note_off_c, 9, 36, 80
5, 92880, Note_off_c, 9, 35, 80
5, 92880, Note_off_c, 9, 36, 80
5, 93120, Note_on_c, 9, 44, 127
5, 93360, Note_off_c, 9, 44, 80
5, 93600, Note_on_c, 9, 36, 127
5, 93600, Note_on_c, 9, 35, 127
5, 93600, Note_on_c, 9, 35, 127
5, 93600, Note_on_c, 9, 36, 127
5, 93840, Note_off_c, 9, 36, 80
5, 93840, Note_off_c, 9, 35, 80
5, 93840, Note_off_c, 9, 35, 80
5, 93840, Note_off_c, 9, 36, 80
5, 94080, Note_on_c, 9, 36, 127
5, 94080, Note_on_c, 9, 35, 127
5, 94080, Note_on_c, 9, 35, 127
5, 94080, Note_on_c, 9, 36, 127
5, 94320, Note_off_c, 9, 36, 80
5, 94320, Note_off_c, 9, 35, 80
5, 94320, Note_off_c, 9, 35, 80
5, 94320, Note_off_c, 9, 36, 80
5, 95040, Note_on_c, 9, 44, 127
5, 95280, Note_off_c, 9, 44, 80
5, 96000, Note_on_c, 9, 35, 127
5, 96000, Note_on_c, 9, 36, 127
5, 96000, Note_on_c, 9, 36, 127
5, 96000, Note_on_c, 9, 35, 127
5, 96240, Note_off_c, 9, 35, 80
5, 96240, Note_off_c, 9, 36, 80
5, 96240, Note_off_c, 9, 36, 80
5, 96240, Note_off_c, 9, 35, 80
5, 96480, Note_on_c, 9, 36, 127
5, 96480, Note_on_c, 9, 36, 127
5, 96480, Note_on_c, 9, 35, 127
5, 96480, Note_on_c, 9, 35, 127
5, 96720, Note_off_c, 9, 35, 80
5, 96720, Note_off_c, 9, 35, 80
5, 96720, Note_off_c, 9, 36, 80
5, 96720, Note_off_c, 9, 36, 80
5, 96960, Note_on_c, 9, 44, 127
5, 97200, Note_off_c, 9, 44, 80
5, 97920, Note_on_c, 9, 36, 127
5, 97920, Note_on_c, 9, 35, 127
5, 97920, Note_on_c, 9, 35, 127
5, 97920, Note_on_c, 9, 36, 127
5, 98160, Note_off_c, 9, 36, 80
5, 98160, Note_off_c, 9, 35, 80
5, 98160, Note_off_c, 9, 35, 80
5, 98160, Note_off_c, 9, 36, 80
5, 98880, Note_on_c, 9, 44, 127
5, 99120, Note_off_c, 9, 44, 80
5, 99840, Note_on_c, 9, 35, 127
5, 99840, Note_on_c, 9, 36, 127
5, 99840, Note_on_c, 9, 36, 127
5, 99840, Note_on_c, 9, 35, 127
5, 100080, Note_off_c, 9, 35, 80
5, 100080, Note_off_c, 9, 36, 80
5, 100080, Note_off_c, 9, 36, 80
5, 100080, Note_off_c, 9, 35, 80
5, 100320, Note_on_c, 9, 36, 127
5, 100320, Note_on_c, 9, 36, 127
5, 100320, Note_on_c, 9, 35, 127
5, 100320, Note_on_c, 9, 35, 127
5, 100560, Note_off_c, 9, 35, 80
5, 100560, Note_off_c, 9, 35, 80
5, 100560, Note_off_c, 9, 36, 80
5, 100560, Note_off_c, 9, 36, 80
5, 100800, Note_on_c, 9, 44, 127
5, 101040, Note_off_c, 9, 44, 80
5, 101760, Note_on_c, 9, 36, 127
5, 101760, Note_on_c, 9, 35, 127
5, 101760, Note_on_c, 9, 35, 127
5, 101760, Note_on_c, 9, 36, 127
5, 102000, Note_off_c, 9, 36, 80
5, 102000, Note_off_c, 9, 35, 80
5, 102000, Note_off_c, 9, 35, 80
5, 102000, Note_off_c, 9, 36, 80
5, 102720, Note_on_c, 9, 44, 127
5, 102960, Note_off_c, 9, 44, 80
5, 103680, Note_on_c, 9, 35, 127
5, 103680, Note_on_c, 9, 36, 127
5, 103680, Note_on_c, 9, 36, 127
5, 103680, Note_on_c, 9, 35, 127
5, 103920, Note_off_c, 9, 35, 80
5, 103920, Note_off_c, 9, 36, 80
5, 103920, Note_off_c, 9, 36, 80
5, 103920, Note_off_c, 9, 35, 80
5, 104160, Note_on_c, 9, 36, 127
5, 104160, Note_on_c, 9, 36, 127
5, 104160, Note_on_c, 9, 35, 127
5, 104160, Note_on_c, 9, 35, 127
5, 104400, Note_off_c, 9, 35, 80
5, 104400, Note_off_c, 9, 35, 80
5, 104400, Note_off_c, 9, 36, 80
5, 104400, Note_off_c, 9, 36, 80
5, 104640, Note_on_c, 9, 44, 127
5, 104880, Note_off_c, 9, 44, 80
5, 105600, Note_on_c, 9, 36, 127
5, 105600, Note_on_c, 9, 35, 127
5, 105600, Note_on_c, 9, 35, 127
5, 105600, Note_on_c, 9, 36, 127
5, 105840, Note_off_c, 9, 36, 80
5, 105840, Note_off_c, 9, 35, 80
5, 105840, Note_off_c, 9, 35, 80
5, 105840, Note_off_c, 9, 36, 80
5, 106560, Note_on_c, 9, 44, 127
5, 106800, Note_off_c, 9, 44, 80
5, 107520, Note_on_c, 9, 35, 127
5, 107520, Note_on_c, 9, 36, 127
5, 107520, Note_on_c, 9, 35, 127
5, 107520, Note_on_c, 9, 36, 127
5, 107520, Note_on_c, 9, 57, 127
5, 107760, Note_off_c, 9, 57, 80
5, 107760, Note_off_c, 9, 36, 80
5, 107760, Note_off_c, 9, 35, 80
5, 107760, Note_off_c, 9, 36, 80
5, 107760, Note_off_c, 9, 35, 80
5, 108000, Note_on_c, 9, 36, 127
5, 108000, Note_on_c, 9, 35, 127
5, 108000, Note_on_c, 9, 36, 127
5, 108000, Note_on_c, 9, 35, 127
5, 108240, Note_off_c, 9, 35, 80
5, 108240, Note_off_c, 9, 36, 80
5, 108240, Note_off_c, 9, 35, 80
5, 108240, Note_off_c, 9, 36, 80
5, 108480, Note_on_c, 9, 44, 127
5, 108720, Note_off_c, 9, 44, 80
5, 108960, Note_on_c, 9, 36, 127
5, 108960, Note_on_c, 9, 35, 127
5, 108960, Note_on_c, 9, 35, 127
5, 108960, Note_on_c, 9, 36, 127
5, 109200, Note_off_c, 9, 36, 80
5, 109200, Note_off_c, 9, 35, 80
5, 109200, Note_off_c, 9, 35, 80
5, 109200, Note_off_c, 9, 36, 80
5, 109440, Note_on_c, 9, 36, 127
5, 109440, Note_on_c, 9, 35, 127
5, 109440, Note_on_c, 9, 35, 127
5, 109440, Note_on_c, 9, 36, 127
5, 109680, Note_off_c, 9, 36, 80
5, 109680, Note_off_c, 9, 35, 80
5, 109680, Note_off_c, 9, 35, 80
5, 109680, Note_off_c, 9, 36, 80
5, 110400, Note_on_c, 9, 44, 127
5, 110640, Note_off_c, 9, 44, 80
5, 111360, Note_on_c, 9, 35, 127
5, 111360, Note_on_c, 9, 36, 127
5, 111360, Note_on_c, 9, 36, 127
5, 111360, Note_on_c, 9, 35, 127
5, 111600, Note_off_c, 9, 35, 80
5, 111600, Note_off_c, 9, 36, 80
5, 111600, Note_off_c, 9, 36, 80
5, 111600, Note_off_c, 9, 35, 80
5, 111840, Note_on_c, 9, 36, 127
5, 111840, Note_on_c, 9, 36, 127
5, 111840, Note_on_c, 9, 35, 127
5, 111840, Note_on_c, 9, 35, 127
5, 112080, Note_off_c, 9, 35, 80
5, 112080, Note_off_c, 9, 35, 80
5, 112080, Note_off_c, 9, 36, 80
5, 112080, Note_off_c, 9, 36, 80
5, 112320, Note_on_c, 9, 44, 127
5, 112560, Note_off_c, 9, 44, 80
5, 113280, Note_on_c, 9, 36, 127
5, 113280, Note_on_c, 9, 35, 127
5, 113280, Note_on_c, 9, 35, 127
5, 113280, Note_on_c, 9, 36, 127
5, 113520, Note_off_c, 9, 36, 80
5, 113520, Note_off_c, 9, 35, 80
5, 113520, Note_off_c, 9, 35, 80
5, 113520, Note_off_c, 9, 36, 80
5, 114240, Note_on_c, 9, 44, 127
5, 114480, Note_off_c, 9, 44, 80
5, 115200, Note_on_c, 9, 35, 127
5, 115200, Note_on_c, 9, 36, 127
5, 115200, Note_on_c, 9, 36, 127
5, 115200, Note_on_c, 9, 35, 127
5, 115440, Note_off_c, 9, 35, 80
5, 115440, Note_off_c, 9, 36, 80
5, 115440, Note_off_c, 9, 36, 80
5, 115440, Note_off_c, 9, 35, 80
5, 115680, Note_on_c, 9, 36, 127
5, 115680, Note_on_c, 9, 36, 127
5, 115680, Note_on_c, 9, 35, 127
5, 115680, Note_on_c, 9, 35, 127
5, 115920, Note_off_c, 9, 35, 80
5, 115920, Note_off_c, 9, 35, 80
5, 115920, Note_off_c, 9, 36, 80
5, 115920, Note_off_c, 9, 36, 80
5, 116160, Note_on_c, 9, 44, 127
5, 116400, Note_off_c, 9, 44, 80
5, 117120, Note_on_c, 9, 36, 127
5, 117120, Note_on_c, 9, 35, 127
5, 117120, Note_on_c, 9, 35, 127
5, 117120, Note_on_c, 9, 36, 127
5, 117360, Note_off_c, 9, 36, 80
5, 117360, Note_off_c, 9, 35, 80
5, 117360, Note_off_c, 9, 35, 80
5, 117360, Note_off_c, 9, 36, 80
5, 118080, Note_on_c, 9, 44, 127
5, 118320, Note_off_c, 9, 44, 80
5, 119040, Note_on_c, 9, 35, 127
5, 119040, Note_on_c, 9, 36, 127
5, 119040, Note_on_c, 9, 36, 127
5, 119040, Note_on_c, 9, 35, 127
5, 119280, Note_off_c, 9, 35, 80
5, 119280, Note_off_c, 9, 36, 80
5, 119280, Note_off_c, 9, 36, 80
5, 119280, Note_off_c, 9, 35, 80
5, 119520, Note_on_c, 9, 36, 127
5, 119520, Note_on_c, 9, 36, 127
5, 119520, Note_on_c, 9, 35, 127
5, 119520, Note_on_c, 9, 35, 127
5, 119760, Note_off_c, 9, 35, 80
5, 119760, Note_off_c, 9, 35, 80
5, 119760, Note_off_c, 9, 36, 80
5, 119760, Note_off_c, 9, 36, 80
5, 120000, Note_on_c, 9, 44, 127
5, 120240, Note_off_c, 9, 44, 80
5, 120960, Note_on_c, 9, 36, 127
5, 120960, Note_on_c, 9, 35, 127
5, 120960, Note_on_c, 9, 35, 127
5, 120960, Note_on_c, 9, 36, 127
5, 121200, Note_off_c, 9, 36, 80
5, 121200, Note_off_c, 9, 35, 80
5, 121200, Note_off_c, 9, 35, 80
5, 121200, Note_off_c, 9, 36, 80
5, 121920, Note_on_c, 9, 44, 127
5, 122160, Note_off_c, 9, 44, 80
5, 122880, Note_on_c, 9, 35, 127
5, 122880, Note_on_c, 9, 36, 127
5, 122880, Note_on_c, 9, 35, 127
5, 122880, Note_on_c, 9, 36, 127
5, 122880, Note_on_c, 9, 57, 127
5, 123120, Note_off_c, 9, 57, 80
5, 123120, Note_off_c, 9, 36, 80
5, 123120, Note_off_c, 9, 35, 80
5, 123120, Note_off_c, 9, 36, 80
5, 123120, Note_off_c, 9, 35, 80
5, 123360, Note_on_c, 9, 36, 127
5, 123360, Note_on_c, 9, 35, 127
5, 123360, Note_on_c, 9, 36, 127
5, 123360, Note_on_c, 9, 35, 127
5, 123600, Note_off_c, 9, 35, 80
5, 123600, Note_off_c, 9, 36, 80
5, 123600, Note_off_c, 9, 35, 80
5, 123600, Note_off_c, 9, 36, 80
5, 123840, Note_on_c, 9, 44, 127
5, 124080, Note_off_c, 9, 44, 80
5, 124320, Note_on_c, 9, 36, 127
5, 124320, Note_on_c, 9, 35, 127
5, 124320, Note_on_c, 9, 35, 127
5, 124320, Note_on_c, 9, 36, 127
5, 124560, Note_off_c, 9, 36, 80
5, 124560, Note_off_c, 9, 35, 80
5, 124560, Note_off_c, 9, 35, 80
5, 124560, Note_off_c, 9, 36, 80
5, 124800, Note_on_c, 9, 36, 127
5, 124800, Note_on_c, 9, 35, 127
5, 124800, Note_on_c, 9, 35, 127
5, 124800, Note_on_c, 9, 36, 127
5, 125040, Note_off_c, 9, 36, 80
5, 125040, Note_off_c, 9, 35, 80
5, 125040, Note_off_c, 9, 35, 80
5, 125040, Note_off_c, 9, 36, 80
5, 125760, Note_on_c, 9, 44, 127
5, 126000, Note_off_c, 9, 44, 80
5, 126720, Note_on_c, 9, 35, 127
5, 126720, Note_on_c, 9, 36, 127
5, 126720, Note_on_c, 9, 36, 127
5, 126720, Note_on_c, 9, 35, 127
5, 126960, Note_off_c, 9, 35, 80
5, 126960, Note_off_c, 9, 36, 80
5, 126960, Note_off_c, 9, 36, 80
5, 126960, Note_off_c, 9, 35, 80
5, 127200, Note_on_c, 9, 36, 127
5, 127200, Note_on_c, 9, 36, 127
5, 127200, Note_on_c, 9, 35, 127
5, 127200, Note_on_c, 9, 35, 127
5, 127440, Note_off_c, 9, 35, 80
5, 127440, Note_off_c, 9, 35, 80
5, 127440, Note_off_c, 9, 36, 80
5, 127440, Note_off_c, 9, 36, 80
5, 127680, Note_on_c, 9, 44, 127
5, 127920, Note_off_c, 9, 44, 80
5, 128640, Note_on_c, 9, 36, 127
5, 128640, Note_on_c, 9, 35, 127
5, 128640, Note_on_c, 9, 35, 127
5, 128640, Note_on_c, 9, 36, 127
5, 128880, Note_off_c, 9, 36, 80
5, 128880, Note_off_c, 9, 35, 80
5, 128880, Note_off_c, 9, 35, 80
5, 128880, Note_off_c, 9, 36, 80
5, 129600, Note_on_c, 9, 44, 127
5, 129840, Note_off_c, 9, 44, 80
5, 130560, Note_on_c, 9, 35, 127
5, 130560, Note_on_c, 9, 36, 127
5, 130560, Note_on_c, 9, 36, 127
5, 130560, Note_on_c, 9, 35, 127
5, 130800, Note_off_c, 9, 35, 80
5, 130800, Note_off_c, 9, 36, 80
5, 130800, Note_off_c, 9, 36, 80
5, 130800, Note_off_c, 9, 35, 80
5, 131040, Note_on_c, 9, 36, 127
5, 131040, Note_on_c, 9, 36, 127
5, 131040, Note_on_c, 9, 35, 127
5, 131040, Note_on_c, 9, 35, 127
5, 131280, Note_off_c, 9, 35, 80
5, 131280, Note_off_c, 9, 35, 80
5, 131280, Note_off_c, 9, 36, 80
5, 131280, Note_off_c, 9, 36, 80
5, 131520, Note_on_c, 9, 44, 127
5, 131760, Note_off_c, 9, 44, 80
5, 132480, Note_on_c, 9, 36, 127
5, 132480, Note_on_c, 9, 35, 127
5, 132480, Note_on_c, 9, 35, 127
5, 132480, Note_on_c, 9, 36, 127
5, 132720, Note_off_c, 9, 36, 80
5, 132720, Note_off_c, 9, 35, 80
5, 132720, Note_off_c, 9, 35, 80
5, 132720, Note_off_c, 9, 36, 80
5, 133440, Note_on_c, 9, 44, 127
5, 133680, Note_off_c, 9, 44, 80
5, 134400, Note_on_c, 9, 35, 127
5, 134400, Note_on_c, 9, 36, 127
5, 134400, Note_on_c, 9, 36, 127
5, 134400, Note_on_c, 9, 35, 127
5, 134640, Note_off_c, 9, 35, 80
5, 134640, Note_off_c, 9, 36, 80
5, 134640, Note_off_c, 9, 36, 80
5, 134640, Note_off_c, 9, 35, 80
5, 134880, Note_on_c, 9, 36, 127
5, 134880, Note_on_c, 9, 36, 127
5, 134880, Note_on_c, 9, 35, 127
5, 134880, Note_on_c, 9, 35, 127
5, 135120, Note_off_c, 9, 35, 80
5, 135120, Note_off_c, 9, 35, 80
5, 135120, Note_off_c, 9, 36, 80
5, 135120, Note_off_c, 9, 36, 80
5, 135360, Note_on_c, 9, 44, 127
5, 135600, Note_off_c, 9, 44, 80
5, 136320, Note_on_c, 9, 36, 127
5, 136320, Note_on_c, 9, 35, 127
5, 136320, Note_on_c, 9, 35, 127
5, 136320, Note_on_c, 9, 36, 127
5, 136560, Note_off_c, 9, 36, 80
5, 136560, Note_off_c, 9, 35, 80
5, 136560, Note_off_c, 9, 35, 80
5, 136560, Note_off_c, 9, 36, 80
5, 137280, Note_on_c, 9, 44, 127
5, 137520, Note_off_c, 9, 44, 80
5, 144960, Note_on_c, 9, 44, 127
5, 145200, Note_off_c, 9, 44, 80
5, 145920, Note_on_c, 9, 35, 127
5, 145920, Note_on_c, 9, 36, 127
5, 145920, Note_on_c, 9, 36, 127
5, 145920, Note_on_c, 9, 35, 127
5, 146160, Note_off_c, 9, 35, 80
5, 146160, Note_off_c, 9, 36, 80
5, 146160, Note_off_c, 9, 36, 80
5, 146160, Note_off_c, 9, 35, 80
5, 146400, Note_on_c, 9, 36, 127
5, 146400, Note_on_c, 9, 36, 127
5, 146400, Note_on_c, 9, 35, 127
5, 146400, Note_on_c, 9, 35, 127
5, 146640, Note_off_c, 9, 35, 80
5, 146640, Note_off_c, 9, 35, 80
5, 146640, Note_off_c, 9, 36, 80
5, 146640, Note_off_c, 9, 36, 80
5, 146880, Note_on_c, 9, 44, 127
5, 147120, Note_off_c, 9, 44, 80
5, 147840, Note_on_c, 9, 36, 127
5, 147840, Note_on_c, 9, 35, 127
5, 147840, Note_on_c, 9, 35, 127
5, 147840, Note_on_c, 9, 36, 127
5, 148080, Note_off_c, 9, 36, 80
5, 148080, Note_off_c, 9, 35, 80
5, 148080, Note_off_c, 9, 35, 80
5, 148080, Note_off_c, 9, 36, 80
5, 148800, Note_on_c, 9, 44, 127
5, 149040, Note_off_c, 9, 44, 80
5, 149760, Note_on_c, 9, 35, 127
5, 149760, Note_on_c, 9, 36, 127
5, 149760, Note_on_c, 9, 36, 127
5, 149760, Note_on_c, 9, 35, 127
5, 150000, Note_off_c, 9, 35, 80
5, 150000, Note_off_c, 9, 36, 80
5, 150000, Note_off_c, 9, 36, 80
5, 150000, Note_off_c, 9, 35, 80
5, 150240, Note_on_c, 9, 36, 127
5, 150240, Note_on_c, 9, 36, 127
5, 150240, Note_on_c, 9, 35, 127
5, 150240, Note_on_c, 9, 35, 127
5, 150480, Note_off_c, 9, 35, 80
5, 150480, Note_off_c, 9, 35, 80
5, 150480, Note_off_c, 9, 36, 80
5, 150480, Note_off_c, 9, 36, 80
5, 150720, Note_on_c, 9, 44, 127
5, 150960, Note_off_c, 9, 44, 80
5, 151680, Note_on_c, 9, 36, 127
5, 151680, Note_on_c, 9, 35, 127
5, 151680, Note_on_c, 9, 35, 127
5, 151680, Note_on_c, 9, 36, 127
5, 151920, Note_off_c, 9, 36, 80
5, 151920, Note_off_c, 9, 35, 80
5, 151920, Note_off_c, 9, 35, 80
5, 151920, Note_off_c, 9, 36, 80
5, 152640, Note_on_c, 9, 44, 127
5, 152880, Note_off_c, 9, 44, 80
5, 153600, Note_on_c, 9, 35, 127
5, 153600, Note_on_c, 9, 36, 127
5, 153600, Note_on_c, 9, 35, 127
5, 153600, Note_on_c, 9, 36, 127
5, 153600, Note_on_c, 9, 57, 127
5, 153840, Note_off_c, 9, 57, 80
5, 153840, Note_off_c, 9, 36, 80
5, 153840, Note_off_c, 9, 35, 80
5, 153840, Note_off_c, 9, 36, 80
5, 153840, Note_off_c, 9, 35, 80
5, 154080, Note_on_c, 9, 36, 127
5, 154080, Note_on_c, 9, 35, 127
5, 154080, Note_on_c, 9, 36, 127
5, 154080, Note_on_c, 9, 35, 127
5, 154320, Note_off_c, 9, 35, 80
5, 154320, Note_off_c, 9, 36, 80
5, 154320, Note_off_c, 9, 35, 80
5, 154320, Note_off_c, 9, 36, 80
5, 154560, Note_on_c, 9, 44, 127
5, 154800, Note_off_c, 9, 44, 80
5, 155040, Note_on_c, 9, 36, 127
5, 155040, Note_on_c, 9, 35, 127
5, 155040, Note_on_c, 9, 35, 127
5, 155040, Note_on_c, 9, 36, 127
5, 155280, Note_off_c, 9, 36, 80
5, 155280, Note_off_c, 9, 35, 80
5, 155280, Note_off_c, 9, 35, 80
5, 155280, Note_off_c, 9, 36, 80
5, 155520, Note_on_c, 9, 36, 127
5, 155520, Note_on_c, 9, 35, 127
5, 155520, Note_on_c, 9, 35, 127
5, 155520, Note_on_c, 9, 36, 127
5, 155760, Note_off_c, 9, 36, 80
5, 155760, Note_off_c, 9, 35, 80
5, 155760, Note_off_c, 9, 35, 80
5, 155760, Note_off_c, 9, 36, 80
5, 156480, Note_on_c, 9, 44, 127
5, 156720, Note_off_c, 9, 44, 80
5, 157440, Note_on_c, 9, 35, 127
5, 157440, Note_on_c, 9, 36, 127
5, 157440, Note_on_c, 9, 36, 127
5, 157440, Note_on_c, 9, 35, 127
5, 157680, Note_off_c, 9, 35, 80
5, 157680, Note_off_c, 9, 36, 80
5, 157680, Note_off_c, 9, 36, 80
5, 157680, Note_off_c, 9, 35, 80
5, 157920, Note_on_c, 9, 36, 127
5, 157920, Note_on_c, 9, 36, 127
5, 157920, Note_on_c, 9, 35, 127
5, 157920, Note_on_c, 9, 35, 127
5, 158160, Note_off_c, 9, 35, 80
5, 158160, Note_off_c, 9, 35, 80
5, 158160, Note_off_c, 9, 36, 80
5, 158160, Note_off_c, 9, 36, 80
5, 158400, Note_on_c, 9, 44, 127
5, 158640, Note_off_c, 9, 44, 80
5, 159360, Note_on_c, 9, 36, 127
5, 159360, Note_on_c, 9, 35, 127
5, 159360, Note_on_c, 9, 35, 127
5, 159360, Note_on_c, 9, 36, 127
5, 159600, Note_off_c, 9, 36, 80
5, 159600, Note_off_c, 9, 35, 80
5, 159600, Note_off_c, 9, 35, 80
5, 159600, Note_off_c, 9, 36, 80
5, 160320, Note_on_c, 9, 44, 127
5, 160560, Note_off_c, 9, 44, 80
5, 161280, Note_on_c, 9, 35, 127
5, 161280, Note_on_c, 9, 36, 127
5, 161280, Note_on_c, 9, 36, 127
5, 161280, Note_on_c, 9, 35, 127
5, 161520, Note_off_c, 9, 35, 80
5, 161520, Note_off_c, 9, 36, 80
5, 161520, Note_off_c, 9, 36, 80
5, 161520, Note_off_c, 9, 35, 80
5, 161760, Note_on_c, 9, 36, 127
5, 161760, Note_on_c, 9, 36, 127
5, 161760, Note_on_c, 9, 35, 127
5, 161760, Note_on_c, 9, 35, 127
5, 162000, Note_off_c, 9, 35, 80
5, 162000, Note_off_c, 9, 35, 80
5, 162000, Note_off_c, 9, 36, 80
5, 162000, Note_off_c, 9, 36, 80
5, 162240, Note_on_c, 9, 44, 127
5, 162480, Note_off_c, 9, 44, 80
5, 163200, Note_on_c, 9, 36, 127
5, 163200, Note_on_c, 9, 35, 127
5, 163200, Note_on_c, 9, 35, 127
5, 163200, Note_on_c, 9, 36, 127
5, 163440, Note_off_c, 9, 36, 80
5, 163440, Note_off_c, 9, 35, 80
5, 163440, Note_off_c, 9, 35, 80
5, 163440, Note_off_c, 9, 36, 80
5, 164160, Note_on_c, 9, 44, 127
5, 164400, Note_off_c, 9, 44, 80
5, 165120, Note_on_c, 9, 35, 127
5, 165120, Note_on_c, 9, 36, 127
5, 165120, Note_on_c, 9, 36, 127
5, 165120, Note_on_c, 9, 35, 127
5, 165360, Note_off_c, 9, 35, 80
5, 165360, Note_off_c, 9, 36, 80
5, 165360, Note_off_c, 9, 36, 80
5, 165360, Note_off_c, 9, 35, 80
5, 165600, Note_on_c, 9, 36, 127
5, 165600, Note_on_c, 9, 36, 127
5, 165600, Note_on_c, 9, 35, 127
5, 165600, Note_on_c, 9, 35, 127
5, 165840, Note_off_c, 9, 35, 80
5, 165840, Note_off_c, 9, 35, 80
5, 165840, Note_off_c, 9, 36, 80
5, 165840, Note_off_c, 9, 36, 80
5, 166080, Note_on_c, 9, 44, 127
5, 166320, Note_off_c, 9, 44, 80
5, 167040, Note_on_c, 9, 36, 127
5, 167040, Note_on_c, 9, 35, 127
5, 167040, Note_on_c, 9, 35, 127
5, 167040, Note_on_c, 9, 36, 127
5, 167280, Note_off_c, 9, 36, 80
5, 167280, Note_off_c, 9, 35, 80
5, 167280, Note_off_c, 9, 35, 80
5, 167280, Note_off_c, 9, 36, 80
5, 168000, Note_on_c, 9, 44, 127
5, 168240, Note_off_c, 9, 44, 80
5, 168960, Note_on_c, 9, 35, 127
5, 168960, Note_on_c, 9, 36, 127
5, 168960, Note_on_c, 9, 35, 127
5, 168960, Note_on_c, 9, 36, 127
5, 168960, Note_on_c, 9, 57, 127
5, 169200, Note_off_c, 9, 57, 80
5, 169200, Note_off_c, 9, 36, 80
5, 169200, Note_off_c, 9, 35, 80
5, 169200, Note_off_c, 9, 36, 80
5, 169200, Note_off_c, 9, 35, 80
5, 169440, Note_on_c, 9, 36, 127
5, 169440, Note_on_c, 9, 35, 127
5, 169440, Note_on_c, 9, 36, 127
5, 169440, Note_on_c, 9, 35, 127
5, 169680, Note_off_c, 9, 35, 80
5, 169680, Note_off_c, 9, 36, 80
5, 169680, Note_off_c, 9, 35, 80
5, 169680, Note_off_c, 9, 36, 80
5, 169920, Note_on_c, 9, 44, 127
5, 170160, Note_off_c, 9, 44, 80
5, 170400, Note_on_c, 9, 36, 127
5, 170400, Note_on_c, 9, 35, 127
5, 170400, Note_on_c, 9, 35, 127
5, 170400, Note_on_c, 9, 36, 127
5, 170640, Note_off_c, 9, 36, 80
5, 170640, Note_off_c, 9, 35, 80
5, 170640, Note_off_c, 9, 35, 80
5, 170640, Note_off_c, 9, 36, 80
5, 170880, Note_on_c, 9, 36, 127
5, 170880, Note_on_c, 9, 35, 127
5, 170880, Note_on_c, 9, 35, 127
5, 170880, Note_on_c, 9, 36, 127
5, 171120, Note_off_c, 9, 36, 80
5, 171120, Note_off_c, 9, 35, 80
5, 171120, Note_off_c, 9, 35, 80
5, 171120, Note_off_c, 9, 36, 80
5, 171840, Note_on_c, 9, 44, 127
5, 172080, Note_off_c, 9, 44, 80
5, 172800, Note_on_c, 9, 35, 127
5, 172800, Note_on_c, 9, 36, 127
5, 172800, Note_on_c, 9, 36, 127
5, 172800, Note_on_c, 9, 35, 127
5, 173040, Note_off_c, 9, 35, 80
5, 173040, Note_off_c, 9, 36, 80
5, 173040, Note_off_c, 9, 36, 80
5, 173040, Note_off_c, 9, 35, 80
5, 173280, Note_on_c, 9, 36, 127
5, 173280, Note_on_c, 9, 36, 127
5, 173280, Note_on_c, 9, 35, 127
5, 173280, Note_on_c, 9, 35, 127
5, 173520, Note_off_c, 9, 35, 80
5, 173520, Note_off_c, 9, 35, 80
5, 173520, Note_off_c, 9, 36, 80
5, 173520, Note_off_c, 9, 36, 80
5, 173760, Note_on_c, 9, 44, 127
5, 174000, Note_off_c, 9, 44, 80
5, 174720, Note_on_c, 9, 36, 127
5, 174720, Note_on_c, 9, 35, 127
5, 174720, Note_on_c, 9, 35, 127
5, 174720, Note_on_c, 9, 36, 127
5, 174960, Note_off_c, 9, 36, 80
5, 174960, Note_off_c, 9, 35, 80
5, 174960, Note_off_c, 9, 35, 80
5, 174960, Note_off_c, 9, 36, 80
5, 175680, Note_on_c, 9, 44, 127
5, 175920, Note_off_c, 9, 44, 80
5, 176640, Note_on_c, 9, 35, 127
5, 176640, Note_on_c, 9, 36, 127
5, 176640, Note_on_c, 9, 36, 127
5, 176640, Note_on_c, 9, 35, 127
5, 176880, Note_off_c, 9, 35, 80
5, 176880, Note_off_c, 9, 36, 80
5, 176880, Note_off_c, 9, 36, 80
5, 176880, Note_off_c, 9, 35, 80
5, 177120, Note_on_c, 9, 36, 127
5, 177120, Note_on_c, 9, 36, 127
5, 177120, Note_on_c, 9, 35, 127
5, 177120, Note_on_c, 9, 35, 127
5, 177360, Note_off_c, 9, 35, 80
5, 177360, Note_off_c, 9, 35, 80
5, 177360, Note_off_c, 9, 36, 80
5, 177360, Note_off_c, 9, 36, 80
5, 177600, Note_on_c, 9, 44, 127
5, 177840, Note_off_c, 9, 44, 80
5, 178560, Note_on_c, 9, 36, 127
5, 178560, Note_on_c, 9, 35, 127
5, 178560, Note_on_c, 9, 35, 127
5, 178560, Note_on_c, 9, 36, 127
5, 178800, Note_off_c, 9, 36, 80
5, 178800, Note_off_c, 9, 35, 80
5, 178800, Note_off_c, 9, 35, 80
5, 178800, Note_off_c, 9, 36, 80
5, 179520, Note_on_c, 9, 44, 127
5, 179760, Note_off_c, 9, 44, 80
5, 180480, Note_on_c, 9, 35, 127
5, 180480, Note_on_c, 9, 36, 127
5, 180480, Note_on_c, 9, 36, 127
5, 180480, Note_on_c, 9, 35, 127
5, 180720, Note_off_c, 9, 35, 80
5, 180720, Note_off_c, 9, 36, 80
5, 180720, Note_off_c, 9, 36, 80
5, 180720, Note_off_c, 9, 35, 80
5, 180960, Note_on_c, 9, 36, 127
5, 180960, Note_on_c, 9, 36, 127
5, 180960, Note_on_c, 9, 35, 127
5, 180960, Note_on_c, 9, 35, 127
5, 181200, Note_off_c, 9, 35, 80
5, 181200, Note_off_c, 9, 35, 80
5, 181200, Note_off_c, 9, 36, 80
5, 181200, Note_off_c, 9, 36, 80
5, 181440, Note_on_c, 9, 44, 127
5, 181680, Note_off_c, 9, 44, 80
5, 182400, Note_on_c, 9, 36, 127
5, 182400, Note_on_c, 9, 35, 127
5, 182400, Note_on_c, 9, 35, 127
5, 182400, Note_on_c, 9, 36, 127
5, 182640, Note_off_c, 9, 36, 80
5, 182640, Note_off_c, 9, 35, 80
5, 182640, Note_off_c, 9, 35, 80
5, 182640, Note_off_c, 9, 36, 80
5, 183360, Note_on_c, 9, 44, 127
5, 183600, Note_off_c, 9, 44, 80
5, 184320, Note_on_c, 9, 35, 127
5, 184320, Note_on_c, 9, 36, 127
5, 184320, Note_on_c, 9, 35, 127
5, 184320, Note_on_c, 9, 36, 127
5, 184320, Note_on_c, 9, 57, 127
5, 184560, Note_off_c, 9, 57, 80
5, 184560, Note_off_c, 9, 36, 80
5, 184560, Note_off_c, 9, 35, 80
5, 184560, Note_off_c, 9, 36, 80
5, 184560, Note_off_c, 9, 35, 80
5, 184800, Note_on_c, 9, 36, 127
5, 184800, Note_on_c, 9, 35, 127
5, 184800, Note_on_c, 9, 36, 127
5, 184800, Note_on_c, 9, 35, 127
5, 185040, Note_off_c, 9, 35, 80
5, 185040, Note_off_c, 9, 36, 80
5, 185040, Note_off_c, 9, 35, 80
5, 185040, Note_off_c, 9, 36, 80
5, 185280, Note_on_c, 9, 44, 127
5, 185520, Note_off_c, 9, 44, 80
5, 185760, Note_on_c, 9, 36, 127
5, 185760, Note_on_c, 9, 35, 127
5, 185760, Note_on_c, 9, 35, 127
5, 185760, Note_on_c, 9, 36, 127
5, 186000, Note_off_c, 9, 36, 80
5, 186000, Note_off_c, 9, 35, 80
5, 186000, Note_off_c, 9, 35, 80
5, 186000, Note_off_c, 9, 36, 80
5, 186240, Note_on_c, 9, 36, 127
5, 186240, Note_on_c, 9, 35, 127
5, 186240, Note_on_c, 9, 35, 127
5, 186240, Note_on_c, 9, 36, 127
5, 186480, Note_off_c, 9, 36, 80
5, 186480, Note_off_c, 9, 35, 80
5, 186480, Note_off_c, 9, 35, 80
5, 186480, Note_off_c, 9, 36, 80
5, 187200, Note_on_c, 9, 44, 127
5, 187440, Note_off_c, 9, 44, 80
5, 188160, Note_on_c, 9, 35, 127
5, 188160, Note_on_c, 9, 36, 127
5, 188160, Note_on_c, 9, 36, 127
5, 188160, Note_on_c, 9, 35, 127
5, 188400, Note_off_c, 9, 35, 80
5, 188400, Note_off_c, 9, 36, 80
5, 188400, Note_off_c, 9, 36, 80
5, 188400, Note_off_c, 9, 35, 80
5, 188640, Note_on_c, 9, 36, 127
5, 188640, Note_on_c, 9, 36, 127
5, 188640, Note_on_c, 9, 35, 127
5, 188640, Note_on_c, 9, 35, 127
5, 188880, Note_off_c, 9, 35, 80
5, 188880, Note_off_c, 9, 35, 80
5, 188880, Note_off_c, 9, 36, 80
5, 188880, Note_off_c, 9, 36, 80
5, 189120, Note_on_c, 9, 44, 127
5, 189360, Note_off_c, 9, 44, 80
5, 190080, Note_on_c, 9, 36, 127
5, 190080, Note_on_c, 9, 35, 127
5, 190080, Note_on_c, 9, 35, 127
5, 190080, Note_on_c, 9, 36, 127
5, 190320, Note_off_c, 9, 36, 80
5, 190320, Note_off_c, 9, 35, 80
5, 190320, Note_off_c, 9, 35, 80
5, 190320, Note_off_c, 9, 36, 80
5, 191040, Note_on_c, 9, 44, 127
5, 191280, Note_off_c, 9, 44, 80
5, 192000, Note_on_c, 9, 35, 127
5, 192000, Note_on_c, 9, 36, 127
5, 192000, Note_on_c, 9, 36, 127
5, 192000, Note_on_c, 9, 35, 127
5, 192240, Note_off_c, 9, 35, 80
5, 192240, Note_off_c, 9, 36, 80
5, 192240, Note_off_c, 9, 36, 80
5, 192240, Note_off_c, 9, 35, 80
5, 192480, Note_on_c, 9, 36, 127
5, 192480, Note_on_c, 9, 36, 127
5, 192480, Note_on_c, 9, 35, 127
5, 192480, Note_on_c, 9, 35, 127
5, 192720, Note_off_c, 9, 35, 80
5, 192720, Note_off_c, 9, 35, 80
5, 192720, Note_off_c, 9, 36, 80
5, 192720, Note_off_c, 9, 36, 80
5, 192960, Note_on_c, 9, 44, 127
5, 193200, Note_off_c, 9, 44, 80
5, 193920, Note_on_c, 9, 36, 127
5, 193920, Note_on_c, 9, 35, 127
5, 193920, Note_on_c, 9, 35, 127
5, 193920, Note_on_c, 9, 36, 127
5, 194160, Note_off_c, 9, 36, 80
5, 194160, Note_off_c, 9, 35, 80
5, 194160, Note_off_c, 9, 35, 80
5, 194160, Note_off_c, 9, 36, 80
5, 194880, Note_on_c, 9, 44, 127
5, 195120, Note_off_c, 9, 44, 80
5, 195840, Note_on_c, 9, 35, 127
5, 195840, Note_on_c, 9, 36, 127
5, 195840, Note_on_c, 9, 36, 127
5, 195840, Note_on_c, 9, 35, 127
5, 196080, Note_off_c, 9, 35, 80
5, 196080, Note_off_c, 9, 36, 80
5, 196080, Note_off_c, 9, 36, 80
5, 196080, Note_off_c, 9, 35, 80
5, 196320, Note_on_c, 9, 36, 127
5, 196320, Note_on_c, 9, 36, 127
5, 196320, Note_on_c, 9, 35, 127
5, 196320, Note_on_c, 9, 35, 127
5, 196560, Note_off_c, 9, 35, 80
5, 196560, Note_off_c, 9, 35, 80
5, 196560, Note_off_c, 9, 36, 80
5, 196560, Note_off_c, 9, 36, 80
5, 196800, Note_on_c, 9, 44, 127
5, 197040, Note_off_c, 9, 44, 80
5, 197760, Note_on_c, 9, 36, 127
5, 197760, Note_on_c, 9, 35, 127
5, 197760, Note_on_c, 9, 35, 127
5, 197760, Note_on_c, 9, 36, 127
5, 198000, Note_off_c, 9, 36, 80
5, 198000, Note_off_c, 9, 35, 80
5, 198000, Note_off_c, 9, 35, 80
5, 198000, Note_off_c, 9, 36, 80
5, 198720, Note_on_c, 9, 44, 127
5, 198960, Note_off_c, 9, 44, 80
5, 199680, Note_on_c, 9, 35, 127
5, 199680, Note_on_c, 9, 36, 127
5, 199680, Note_on_c, 9, 35, 127
5, 199680, Note_on_c, 9, 36, 127
5, 199680, Note_on_c, 9, 57, 127
5, 199920, Note_off_c, 9, 57, 80
5, 199920, Note_off_c, 9, 36, 80
5, 199920, Note_off_c, 9, 35, 80
5, 199920, Note_off_c, 9, 36, 80
5, 199920, Note_off_c, 9, 35, 80
5, 200160, Note_on_c, 9, 36, 127
5, 200160, Note_on_c, 9, 35, 127
5, 200160, Note_on_c, 9, 36, 127
5, 200160, Note_on_c, 9, 35, 127
5, 200400, Note_off_c, 9, 35, 80
5, 200400, Note_off_c, 9, 36, 80
5, 200400, Note_off_c, 9, 35, 80
5, 200400, Note_off_c, 9, 36, 80
5, 200640, Note_on_c, 9, 44, 127
5, 200880, Note_off_c, 9, 44, 80
5, 201120, Note_on_c, 9, 36, 127
5, 201120, Note_on_c, 9, 35, 127
5, 201120, Note_on_c, 9, 35, 127
5, 201120, Note_on_c, 9, 36, 127
5, 201360, Note_off_c, 9, 36, 80
5, 201360, Note_off_c, 9, 35, 80
5, 201360, Note_off_c, 9, 35, 80
5, 201360, Note_off_c, 9, 36, 80
5, 201600, Note_on_c, 9, 36, 127
5, 201600, Note_on_c, 9, 35, 127
5, 201600, Note_on_c, 9, 35, 127
5, 201600, Note_on_c, 9, 36, 127
5, 201840, Note_off_c, 9, 36, 80
5, 201840, Note_off_c, 9, 35, 80
5, 201840, Note_off_c, 9, 35, 80
5, 201840, Note_off_c, 9, 36, 80
5, 202560, Note_on_c, 9, 44, 127
5, 202800, Note_off_c, 9, 44, 80
5, 203520, Note_on_c, 9, 35, 127
5, 203520, Note_on_c, 9, 36, 127
5, 203520, Note_on_c, 9, 36, 127
5, 203520, Note_on_c, 9, 35, 127
5, 203760, Note_off_c, 9, 35, 80
5, 203760, Note_off_c, 9, 36, 80
5, 203760, Note_off_c, 9, 36, 80
5, 203760, Note_off_c, 9, 35, 80
5, 204000, Note_on_c, 9, 36, 127
5, 204000, Note_on_c, 9, 36, 127
5, 204000, Note_on_c, 9, 35, 127
5, 204000, Note_on_c, 9, 35, 127
5, 204240, Note_off_c, 9, 35, 80
5, 204240, Note_off_c, 9, 35, 80
5, 204240, Note_off_c, 9, 36, 80
5, 204240, Note_off_c, 9, 36, 80
5, 204480, Note_on_c, 9, 44, 127
5, 204720, Note_off_c, 9, 44, 80
5, 205440, Note_on_c, 9, 36, 127
5, 205440, Note_on_c, 9, 35, 127
5, 205440, Note_on_c, 9, 35, 127
5, 205440, Note_on_c, 9, 36, 127
5, 205680, Note_off_c, 9, 36, 80
5, 205680, Note_off_c, 9, 35, 80
5, 205680, Note_off_c, 9, 35, 80
5, 205680, Note_off_c, 9, 36, 80
5, 206400, Note_on_c, 9, 44, 127
5, 206640, Note_off_c, 9, 44, 80
5, 207360, Note_on_c, 9, 35, 127
5, 207360, Note_on_c, 9, 36, 127
5, 207360, Note_on_c, 9, 36, 127
5, 207360, Note_on_c, 9, 35, 127
5, 207600, Note_off_c, 9, 35, 80
5, 207600, Note_off_c, 9, 36, 80
5, 207600, Note_off_c, 9, 36, 80
5, 207600, Note_off_c, 9, 35, 80
5, 207840, Note_on_c, 9, 36, 127
5, 207840, Note_on_c, 9, 36, 127
5, 207840, Note_on_c, 9, 35, 127
5, 207840, Note_on_c, 9, 35, 127
5, 208080, Note_off_c, 9, 35, 80
5, 208080, Note_off_c, 9, 35, 80
5, 208080, Note_off_c, 9, 36, 80
5, 208080, Note_off_c, 9, 36, 80
5, 208320, Note_on_c, 9, 44, 127
5, 208560, Note_off_c, 9, 44, 80
5, 209280, Note_on_c, 9, 36, 127
5, 209280, Note_on_c, 9, 35, 127
5, 209280, Note_on_c, 9, 35, 127
5, 209280, Note_on_c, 9, 36, 127
5, 209520, Note_off_c, 9, 36, 80
5, 209520, Note_off_c, 9, 35, 80
5, 209520, Note_off_c, 9, 35, 80
5, 209520, Note_off_c, 9, 36, 80
5, 210240, Note_on_c, 9, 44, 127
5, 210480, Note_off_c, 9, 44, 80
5, 211200, Note_on_c, 9, 35, 127
5, 211200, Note_on_c, 9, 36, 127
5, 211200, Note_on_c, 9, 36, 127
5, 211200, Note_on_c, 9, 35, 127
5, 211440, Note_off_c, 9, 35, 80
5, 211440, Note_off_c, 9, 36, 80
5, 211440, Note_off_c, 9, 36, 80
5, 211440, Note_off_c, 9, 35, 80
5, 211680, Note_on_c, 9, 36, 127
5, 211680, Note_on_c, 9, 36, 127
5, 211680, Note_on_c, 9, 35, 127
5, 211680, Note_on_c, 9, 35, 127
5, 211920, Note_off_c, 9, 35, 80
5, 211920, Note_off_c, 9, 35, 80
5, 211920, Note_off_c, 9, 36, 80
5, 211920, Note_off_c, 9, 36, 80
5, 212160, Note_on_c, 9, 44, 127
5, 212400, Note_off_c, 9, 44, 80
5, 213120, Note_on_c, 9, 36, 127
5, 213120, Note_on_c, 9, 35, 127
5, 213120, Note_on_c, 9, 35, 127
5, 213120, Note_on_c, 9, 36, 127
5, 213360, Note_off_c, 9, 36, 80
5, 213360, Note_off_c, 9, 35, 80
5, 213360, Note_off_c, 9, 35, 80
5, 213360, Note_off_c, 9, 36, 80
5, 214080, Note_on_c, 9, 44, 127
5, 214320, Note_off_c, 9, 44, 80
5, 215040, Note_on_c, 9, 35, 127
5, 215040, Note_on_c, 9, 36, 127
5, 215040, Note_on_c, 9, 35, 127
5, 215040, Note_on_c, 9, 36, 127
5, 215040, Note_on_c, 9, 57, 127
5, 215280, Note_off_c, 9, 57, 80
5, 215280, Note_off_c, 9, 36, 80
5, 215280, Note_off_c, 9, 35, 80
5, 215280, Note_off_c, 9, 36, 80
5, 215280, Note_off_c, 9, 35, 80
5, 215520, Note_on_c, 9, 36, 127
5, 215520, Note_on_c, 9, 35, 127
5, 215520, Note_on_c, 9, 36, 127
5, 215520, Note_on_c, 9, 35, 127
5, 215760, Note_off_c, 9, 35, 80
5, 215760, Note_off_c, 9, 36, 80
5, 215760, Note_off_c, 9, 35, 80
5, 215760, Note_off_c, 9, 36, 80
5, 216000, Note_on_c, 9, 44, 127
5, 216240, Note_off_c, 9, 44, 80
5, 216480, Note_on_c, 9, 36, 127
5, 216480, Note_on_c, 9, 35, 127
5, 216480, Note_on_c, 9, 35, 127
5, 216480, Note_on_c, 9, 36, 127
5, 216720, Note_off_c, 9, 36, 80
5, 216720, Note_off_c, 9, 35, 80
5, 216720, Note_off_c, 9, 35, 80
5, 216720, Note_off_c, 9, 36, 80
5, 216960, Note_on_c, 9, 36, 127
5, 216960, Note_on_c, 9, 35, 127
5, 216960, Note_on_c, 9, 35, 127
5, 216960, Note_on_c, 9, 36, 127
5, 217200, Note_off_c, 9, 36, 80
5, 217200, Note_off_c, 9, 35, 80
5, 217200, Note_off_c, 9, 35, 80
5, 217200, Note_off_c, 9, 36, 80
5, 217920, Note_on_c, 9, 44, 127
5, 218160, Note_off_c, 9, 44, 80
5, 218880, Note_on_c, 9, 35, 127
5, 218880, Note_on_c, 9, 36, 127
5, 218880, Note_on_c, 9, 36, 127
5, 218880, Note_on_c, 9, 35, 127
5, 219120, Note_off_c, 9, 35, 80
5, 219120, Note_off_c, 9, 36, 80
5, 219120, Note_off_c, 9, 36, 80
5, 219120, Note_off_c, 9, 35, 80
5, 219360, Note_on_c, 9, 36, 127
5, 219360, Note_on_c, 9, 36, 127
5, 219360, Note_on_c, 9, 35, 127
5, 219360, Note_on_c, 9, 35, 127
5, 219600, Note_off_c, 9, 35, 80
5, 219600, Note_off_c, 9, 35, 80
5, 219600, Note_off_c, 9, 36, 80
5, 219600, Note_off_c, 9, 36, 80
5, 219840, Note_on_c, 9, 44, 127
5, 220080, Note_off_c, 9, 44, 80
5, 220800, Note_on_c, 9, 36, 127
5, 220800, Note_on_c, 9, 35, 127
5, 220800, Note_on_c, 9, 35, 127
5, 220800, Note_on_c, 9, 36, 127
5, 221040, Note_off_c, 9, 36, 80
5, 221040, Note_off_c, 9, 35, 80
5, 221040, Note_off_c, 9, 35, 80
5, 221040, Note_off_c, 9, 36, 80
5, 221760, Note_on_c, 9, 44, 127
5, 222000, Note_off_c, 9, 44, 80
5, 222720, Note_on_c, 9, 35, 127
5, 222720, Note_on_c, 9, 36, 127
5, 222720, Note_on_c, 9, 36, 127
5, 222720, Note_on_c, 9, 35, 127
5, 222960, Note_off_c, 9, 35, 80
5, 222960, Note_off_c, 9, 36, 80
5, 222960, Note_off_c, 9, 36, 80
5, 222960, Note_off_c, 9, 35, 80
5, 223200, Note_on_c, 9, 36, 127
5, 223200, Note_on_c, 9, 36, 127
5, 223200, Note_on_c, 9, 35, 127
5, 223200, Note_on_c, 9, 35, 127
5, 223440, Note_off_c, 9, 35, 80
5, 223440, Note_off_c, 9, 35, 80
5, 223440, Note_off_c, 9, 36, 80
5, 223440, Note_off_c, 9, 36, 80
5, 223680, Note_on_c, 9, 44, 127
5, 223920, Note_off_c, 9, 44, 80
5, 224640, Note_on_c, 9, 36, 127
5, 224640, Note_on_c, 9, 35, 127
5, 224640, Note_on_c, 9, 35, 127
5, 224640, Note_on_c, 9, 36, 127
5, 224880, Note_off_c, 9, 36, 80
5, 224880, Note_off_c, 9, 35, 80
5, 224880, Note_off_c, 9, 35, 80
5, 224880, Note_off_c, 9, 36, 80
5, 225600, Note_on_c, 9, 44, 127
5, 225840, Note_off_c, 9, 44, 80
5, 226560, Note_on_c, 9, 35, 127
5, 226560, Note_on_c, 9, 36, 127
5, 226560, Note_on_c, 9, 36, 127
5, 226560, Note_on_c, 9, 35, 127
5, 226800, Note_off_c, 9, 35, 80
5, 226800, Note_off_c, 9, 36, 80
5, 226800, Note_off_c, 9, 36, 80
5, 226800, Note_off_c, 9, 35, 80
5, 227040, Note_on_c, 9, 36, 127
5, 227040, Note_on_c, 9, 36, 127
5, 227040, Note_on_c, 9, 35, 127
5, 227040, Note_on_c, 9, 35, 127
5, 227280, Note_off_c, 9, 35, 80
5, 227280, Note_off_c, 9, 35, 80
5, 227280, Note_off_c, 9, 36, 80
5, 227280, Note_off_c, 9, 36, 80
5, 227520, Note_on_c, 9, 44, 127
5, 227760, Note_off_c, 9, 44, 80
5, 228480, Note_on_c, 9, 36, 127
5, 228480, Note_on_c, 9, 35, 127
5, 228480, Note_on_c, 9, 35, 127
5, 228480, Note_on_c, 9, 36, 127
5, 228720, Note_off_c, 9, 36, 80
5, 228720, Note_off_c, 9, 35, 80
5, 228720, Note_off_c, 9, 35, 80
5, 228720, Note_off_c, 9, 36, 80
5, 229440, Note_on_c, 9, 44, 127
5, 229680, Note_off_c, 9, 44, 80
5, 230400, Note_on_c, 9, 35, 127
5, 230400, Note_on_c, 9, 36, 127
5, 230400, Note_on_c, 9, 35, 127
5, 230400, Note_on_c, 9, 36, 127
5, 230400, Note_on_c, 9, 57, 127
5, 230640, Note_off_c, 9, 57, 80
5, 230640, Note_off_c, 9, 36, 80
5, 230640, Note_off_c, 9, 35, 80
5, 230640, Note_off_c, 9, 36, 80
5, 230640, Note_off_c, 9, 35, 80
5, 230880, Note_on_c, 9, 36, 127
5, 230880, Note_on_c, 9, 35, 127
5, 230880, Note_on_c, 9, 36, 127
5, 230880, Note_on_c, 9, 35, 127
5, 231120, Note_off_c, 9, 35, 80
5, 231120, Note_off_c, 9, 36, 80
5, 231120, Note_off_c, 9, 35, 80
5, 231120, Note_off_c, 9, 36, 80
5, 231360, Note_on_c, 9, 44, 127
5, 231600, Note_off_c, 9, 44, 80
5, 231840, Note_on_c, 9, 36, 127
5, 231840, Note_on_c, 9, 35, 127
5, 231840, Note_on_c, 9, 35, 127
5, 231840, Note_on_c, 9, 36, 127
5, 232080, Note_off_c, 9, 36, 80
5, 232080, Note_off_c, 9, 35, 80
5, 232080, Note_off_c, 9, 35, 80
5, 232080, Note_off_c, 9, 36, 80
5, 232320, Note_on_c, 9, 36, 127
5, 232320, Note_on_c, 9, 35, 127
5, 232320, Note_on_c, 9, 35, 127
5, 232320, Note_on_c, 9, 36, 127
5, 232560, Note_off_c, 9, 36, 80
5, 232560, Note_off_c, 9, 35, 80
5, 232560, Note_off_c, 9, 35, 80
5, 232560, Note_off_c, 9, 36, 80
5, 233280, Note_on_c, 9, 44, 127
5, 233520, Note_off_c, 9, 44, 80
5, 234240, Note_on_c, 9, 35, 127
5, 234240, Note_on_c, 9, 36, 127
5, 234240, Note_on_c, 9, 36, 127
5, 234240, Note_on_c, 9, 35, 127
5, 234480, Note_off_c, 9, 35, 80
5, 234480, Note_off_c, 9, 36, 80
5, 234480, Note_off_c, 9, 36, 80
5, 234480, Note_off_c, 9, 35, 80
5, 234720, Note_on_c, 9, 36, 127
5, 234720, Note_on_c, 9, 36, 127
5, 234720, Note_on_c, 9, 35, 127
5, 234720, Note_on_c, 9, 35, 127
5, 234960, Note_off_c, 9, 35, 80
5, 234960, Note_off_c, 9, 35, 80
5, 234960, Note_off_c, 9, 36, 80
5, 234960, Note_off_c, 9, 36, 80
5, 235200, Note_on_c, 9, 44, 127
5, 235440, Note_off_c, 9, 44, 80
5, 236160, Note_on_c, 9, 36, 127
5, 236160, Note_on_c, 9, 35, 127
5, 236160, Note_on_c, 9, 35, 127
5, 236160, Note_on_c, 9, 36, 127
5, 236400, Note_off_c, 9, 36, 80
5, 236400, Note_off_c, 9, 35, 80
5, 236400, Note_off_c, 9, 35, 80
5, 236400, Note_off_c, 9, 36, 80
5, 237120, Note_on_c, 9, 44, 127
5, 237360, Note_off_c, 9, 44, 80
5, 238080, Note_on_c, 9, 35, 127
5, 238080, Note_on_c, 9, 36, 127
5, 238080, Note_on_c, 9, 36, 127
5, 238080, Note_on_c, 9, 35, 127
5, 238320, Note_off_c, 9, 35, 80
5, 238320, Note_off_c, 9, 36, 80
5, 238320, Note_off_c, 9, 36, 80
5, 238320, Note_off_c, 9, 35, 80
5, 238560, Note_on_c, 9, 36, 127
5, 238560, Note_on_c, 9, 36, 127
5, 238560, Note_on_c, 9, 35, 127
5, 238560, Note_on_c, 9, 35, 127
5, 238800, Note_off_c, 9, 35, 80
5, 238800, Note_off_c, 9, 35, 80
5, 238800, Note_off_c, 9, 36, 80
5, 238800, Note_off_c, 9, 36, 80
5, 239040, Note_on_c, 9, 44, 127
5, 239280, Note_off_c, 9, 44, 80
5, 240000, Note_on_c, 9, 36, 127
5, 240000, Note_on_c, 9, 35, 127
5, 240000, Note_on_c, 9, 35, 127
5, 240000, Note_on_c, 9, 36, 127
5, 240240, Note_off_c, 9, 36, 80
5, 240240, Note_off_c, 9, 35, 80
5, 240240, Note_off_c, 9, 35, 80
5, 240240, Note_off_c, 9, 36, 80
5, 240960, Note_on_c, 9, 44, 127
5, 241200, Note_off_c, 9, 44, 80
5, 241920, Note_on_c, 9, 35, 127
5, 241920, Note_on_c, 9, 36, 127
5, 241920, Note_on_c, 9, 36, 127
5, 241920, Note_on_c, 9, 35, 127
5, 242160, Note_off_c, 9, 35, 80
5, 242160, Note_off_c, 9, 36, 80
5, 242160, Note_off_c, 9, 36, 80
5, 242160, Note_off_c, 9, 35, 80
5, 242400, Note_on_c, 9, 36, 127
5, 242400, Note_on_c, 9, 36, 127
5, 242400, Note_on_c, 9, 35, 127
5, 242400, Note_on_c, 9, 35, 127
5, 242640, Note_off_c, 9, 35, 80
5, 242640, Note_off_c, 9, 35, 80
5, 242640, Note_off_c, 9, 36, 80
5, 242640, Note_off_c, 9, 36, 80
5, 242880, Note_on_c, 9, 44, 127
5, 243120, Note_off_c, 9, 44, 80
5, 243840, Note_on_c, 9, 36, 127
5, 243840, Note_on_c, 9, 35, 127
5, 243840, Note_on_c, 9, 35, 127
5, 243840, Note_on_c, 9, 36, 127
5, 244080, Note_off_c, 9, 36, 80
5, 244080, Note_off_c, 9, 35, 80
5, 244080, Note_off_c, 9, 35, 80
5, 244080, Note_off_c, 9, 36, 80
5, 244800, Note_on_c, 9, 44, 127
5, 245040, Note_off_c, 9, 44, 80
5, 245760, Note_on_c, 9, 35, 127
5, 245760, Note_on_c, 9, 36, 127
5, 245760, Note_on_c, 9, 35, 127
5, 245760, Note_on_c, 9, 36, 127
5, 245760, Note_on_c, 9, 57, 127
5, 246000, Note_off_c, 9, 57, 80
5, 246000, Note_off_c, 9, 36, 80
5, 246000, Note_off_c, 9, 35, 80
5, 246000, Note_off_c, 9, 36, 80
5, 246000, Note_off_c, 9, 35, 80
5, 246240, Note_on_c, 9, 36, 127
5, 246240, Note_on_c, 9, 35, 127
5, 246240, Note_on_c, 9, 36, 127
5, 246240, Note_on_c, 9, 35, 127
5, 246480, Note_off_c, 9, 35, 80
5, 246480, Note_off_c, 9, 36, 80
5, 246480, Note_off_c, 9, 35, 80
5, 246480, Note_off_c, 9, 36, 80
5, 246720, Note_on_c, 9, 44, 127
5, 246960, Note_off_c, 9, 44, 80
5, 247200, Note_on_c, 9, 36, 127
5, 247200, Note_on_c, 9, 35, 127
5, 247200, Note_on_c, 9, 35, 127
5, 247200, Note_on_c, 9, 36, 127
5, 247440, Note_off_c, 9, 36, 80
5, 247440, Note_off_c, 9, 35, 80
5, 247440, Note_off_c, 9, 35, 80
5, 247440, Note_off_c, 9, 36, 80
5, 247680, Note_on_c, 9, 36, 127
5, 247680, Note_on_c, 9, 35, 127
5, 247680, Note_on_c, 9, 35, 127
5, 247680, Note_on_c, 9, 36, 127
5, 247920, Note_off_c, 9, 36, 80
5, 247920, Note_off_c, 9, 35, 80
5, 247920, Note_off_c, 9, 35, 80
5, 247920, Note_off_c, 9, 36, 80
5, 248640, Note_on_c, 9, 44, 127
5, 248880, Note_off_c, 9, 44, 80
5, 249600, Note_on_c, 9, 35, 127
5, 249600, Note_on_c, 9, 36, 127
5, 249600, Note_on_c, 9, 36, 127
5, 249600, Note_on_c, 9, 35, 127
5, 249840, Note_off_c, 9, 35, 80
5, 249840, Note_off_c, 9, 36, 80
5, 249840, Note_off_c, 9, 36, 80
5, 249840, Note_off_c, 9, 35, 80
5, 250080, Note_on_c, 9, 36, 127
5, 250080, Note_on_c, 9, 36, 127
5, 250080, Note_on_c, 9, 35, 127
5, 250080, Note_on_c, 9, 35, 127
5, 250320, Note_off_c, 9, 35, 80
5, 250320, Note_off_c, 9, 35, 80
5, 250320, Note_off_c, 9, 36, 80
5, 250320, Note_off_c, 9, 36, 80
5, 250560, Note_on_c, 9, 44, 127
5, 250800, Note_off_c, 9, 44, 80
5, 251520, Note_on_c, 9, 36, 127
5, 251520, Note_on_c, 9, 35, 127
5, 251520, Note_on_c, 9, 35, 127
5, 251520, Note_on_c, 9, 36, 127
5, 251760, Note_off_c, 9, 36, 80
5, 251760, Note_off_c, 9, 35, 80
5, 251760, Note_off_c, 9, 35, 80
5, 251760, Note_off_c, 9, 36, 80
5, 252480, Note_on_c, 9, 44, 127
5, 252720, Note_off_c, 9, 44, 80
5, 253440, Note_on_c, 9, 35, 127
5, 253440, Note_on_c, 9, 36, 127
5, 253440, Note_on_c, 9, 36, 127
5, 253440, Note_on_c, 9, 35, 127
5, 253680, Note_off_c, 9, 35, 80
5, 253680, Note_off_c, 9, 36, 80
5, 253680, Note_off_c, 9, 36, 80
5, 253680, Note_off_c, 9, 35, 80
5, 253920, Note_on_c, 9, 36, 127
5, 253920, Note_on_c, 9, 36, 127
5, 253920, Note_on_c, 9, 35, 127
5, 253920, Note_on_c, 9, 35, 127
5, 254160, Note_off_c, 9, 35, 80
5, 254160, Note_off_c, 9, 35, 80
5, 254160, Note_off_c, 9, 36, 80
5, 254160, Note_off_c, 9, 36, 80
5, 254400, Note_on_c, 9, 44, 127
5, 254640, Note_off_c, 9, 44, 80
5, 255360, Note_on_c, 9, 36, 127
5, 255360, Note_on_c, 9, 35, 127
5, 255360, Note_on_c, 9, 35, 127
5, 255360, Note_on_c, 9, 36, 127
5, 255600, Note_off_c, 9, 36, 80
5, 255600, Note_off_c, 9, 35, 80
5, 255600, Note_off_c, 9, 35, 80
5, 255600, Note_off_c, 9, 36, 80
5, 256320, Note_on_c, 9, 44, 127
5, 256560, Note_off_c, 9, 44, 80
5, 257280, Note_on_c, 9, 35, 127
5, 257280, Note_on_c, 9, 36, 127
5, 257280, Note_on_c, 9, 36, 127
5, 257280, Note_on_c, 9, 35, 127
5, 257520, Note_off_c, 9, 35, 80
5, 257520, Note_off_c, 9, 36, 80
5, 257520, Note_off_c, 9, 36, 80
5, 257520, Note_off_c, 9, 35, 80
5, 257760, Note_on_c, 9, 36, 127
5, 257760, Note_on_c, 9, 36, 127
5, 257760, Note_on_c, 9, 35, 127
5, 257760, Note_on_c, 9, 35, 127
5, 258000, Note_off_c, 9, 35, 80
5, 258000, Note_off_c, 9, 35, 80
5, 258000, Note_off_c, 9, 36, 80
5, 258000, Note_off_c, 9, 36, 80
5, 258240, Note_on_c, 9, 44, 127
5, 258480, Note_off_c, 9, 44, 80
5, 259200, Note_on_c, 9, 36, 127
5, 259200, Note_on_c, 9, 35, 127
5, 259200, Note_on_c, 9, 35, 127
5, 259200, Note_on_c, 9, 36, 127
5, 259440, Note_off_c, 9, 36, 80
5, 259440, Note_off_c, 9, 35, 80
5, 259440, Note_off_c, 9, 35, 80
5, 259440, Note_off_c, 9, 36, 80
5, 260160, Note_on_c, 9, 44, 127
5, 260400, Note_off_c, 9, 44, 80
5, 261120, Note_on_c, 9, 35, 127
5, 261120, Note_on_c, 9, 36, 127
5, 261120, Note_on_c, 9, 35, 127
5, 261120, Note_on_c, 9, 36, 127
5, 261120, Note_on_c, 9, 57, 127
5, 261360, Note_off_c, 9, 57, 80
5, 261360, Note_off_c, 9, 36, 80
5, 261360, Note_off_c, 9, 35, 80
5, 261360, Note_off_c, 9, 36, 80
5, 261360, Note_off_c, 9, 35, 80
5, 261600, Note_on_c, 9, 36, 127
5, 261600, Note_on_c, 9, 35, 127
5, 261600, Note_on_c, 9, 36, 127
5, 261600, Note_on_c, 9, 35, 127
5, 261840, Note_off_c, 9, 35, 80
5, 261840, Note_off_c, 9, 36, 80
5, 261840, Note_off_c, 9, 35, 80
5, 261840, Note_off_c, 9, 36, 80
5, 262080, Note_on_c, 9, 44, 127
5, 262320, Note_off_c, 9, 44, 80
5, 262560, Note_on_c, 9, 36, 127
5, 262560, Note_on_c, 9, 35, 127
5, 262560, Note_on_c, 9, 35, 127
5, 262560, Note_on_c, 9, 36, 127
5, 262800, Note_off_c, 9, 36, 80
5, 262800, Note_off_c, 9, 35, 80
5, 262800, Note_off_c, 9, 35, 80
5, 262800, Note_off_c, 9, 36, 80
5, 263040, Note_on_c, 9, 36, 127
5, 263040, Note_on_c, 9, 35, 127
5, 263040, Note_on_c, 9, 35, 127
5, 263040, Note_on_c, 9, 36, 127
5, 263280, Note_off_c, 9, 36, 80
5, 263280, Note_off_c, 9, 35, 80
5, 263280, Note_off_c, 9, 35, 80
5, 263280, Note_off_c, 9, 36, 80
5, 264000, Note_on_c, 9, 44, 127
5, 264240, Note_off_c, 9, 44, 80
5, 264960, Note_on_c, 9, 35, 127
5, 264960, Note_on_c, 9, 36, 127
5, 264960, Note_on_c, 9, 36, 127
5, 264960, Note_on_c, 9, 35, 127
5, 265200, Note_off_c, 9, 35, 80
5, 265200, Note_off_c, 9, 36, 80
5, 265200, Note_off_c, 9, 36, 80
5, 265200, Note_off_c, 9, 35, 80
5, 265440, Note_on_c, 9, 36, 127
5, 265440, Note_on_c, 9, 36, 127
5, 265440, Note_on_c, 9, 35, 127
5, 265440, Note_on_c, 9, 35, 127
5, 265680, Note_off_c, 9, 35, 80
5, 265680, Note_off_c, 9, 35, 80
5, 265680, Note_off_c, 9, 36, 80
5, 265680, Note_off_c, 9, 36, 80
5, 265920, Note_on_c, 9, 44, 127
5, 266160, Note_off_c, 9, 44, 80
5, 266880, Note_on_c, 9, 36, 127
5, 266880, Note_on_c, 9, 35, 127
5, 266880, Note_on_c, 9, 35, 127
5, 266880, Note_on_c, 9, 36, 127
5, 267120, Note_off_c, 9, 36, 80
5, 267120, Note_off_c, 9, 35, 80
5, 267120, Note_off_c, 9, 35, 80
5, 267120, Note_off_c, 9, 36, 80
5, 267840, Note_on_c, 9, 44, 127
5, 268080, Note_off_c, 9, 44, 80
5, 268800, Note_on_c, 9, 35, 127
5, 268800, Note_on_c, 9, 36, 127
5, 268800, Note_on_c, 9, 36, 127
5, 268800, Note_on_c, 9, 35, 127
5, 269040, Note_off_c, 9, 35, 80
5, 269040, Note_off_c, 9, 36, 80
5, 269040, Note_off_c, 9, 36, 80
5, 269040, Note_off_c, 9, 35, 80
5, 269280, Note_on_c, 9, 36, 127
5, 269280, Note_on_c, 9, 36, 127
5, 269280, Note_on_c, 9, 35, 127
5, 269280, Note_on_c, 9, 35, 127
5, 269520, Note_off_c, 9, 35, 80
5, 269520, Note_off_c, 9, 35, 80
5, 269520, Note_off_c, 9, 36, 80
5, 269520, Note_off_c, 9, 36, 80
5, 269760, Note_on_c, 9, 44, 127
5, 270000, Note_off_c, 9, 44, 80
5, 270720, Note_on_c, 9, 36, 127
5, 270720, Note_on_c, 9, 35, 127
5, 270720, Note_on_c, 9, 35, 127
5, 270720, Note_on_c, 9, 36, 127
5, 270960, Note_off_c, 9, 36, 80
5, 270960, Note_off_c, 9, 35, 80
5, 270960, Note_off_c, 9, 35, 80
5, 270960, Note_off_c, 9, 36, 80
5, 271680, Note_on_c, 9, 44, 127
5, 271920, Note_off_c, 9, 44, 80
5, 272640, Note_on_c, 9, 35, 127
5, 272640, Note_on_c, 9, 36, 127
5, 272640, Note_on_c, 9, 36, 127
5, 272640, Note_on_c, 9, 35, 127
5, 272880, Note_off_c, 9, 35, 80
5, 272880, Note_off_c, 9, 36, 80
5, 272880, Note_off_c, 9, 36, 80
5, 272880, Note_off_c, 9, 35, 80
5, 273120, Note_on_c, 9, 36, 127
5, 273120, Note_on_c, 9, 36, 127
5, 273120, Note_on_c, 9, 35, 127
5, 273120, Note_on_c, 9, 35, 127
5, 273360, Note_off_c, 9, 35, 80
5, 273360, Note_off_c, 9, 35, 80
5, 273360, Note_off_c, 9, 36, 80
5, 273360, Note_off_c, 9, 36, 80
5, 273600, Note_on_c, 9, 44, 127
5, 273840, Note_off_c, 9, 44, 80
5, 274560, Note_on_c, 9, 36, 127
5, 274560, Note_on_c, 9, 35, 127
5, 274560, Note_on_c, 9, 35, 127
5, 274560, Note_on_c, 9, 36, 127
5, 274800, Note_off_c, 9, 36, 80
5, 274800, Note_off_c, 9, 35, 80
5, 274800, Note_off_c, 9, 35, 80
5, 274800, Note_off_c, 9, 36, 80
5, 275520, Note_on_c, 9, 44, 127
5, 275760, Note_off_c, 9, 44, 80
5, 276480, Note_on_c, 9, 35, 127
5, 276480, Note_on_c, 9, 36, 127
5, 276480, Note_on_c, 9, 35, 127
5, 276480, Note_on_c, 9, 36, 127
5, 276480, Note_on_c, 9, 57, 127
5, 276720, Note_off_c, 9, 57, 80
5, 276720, Note_off_c, 9, 36, 80
5, 276720, Note_off_c, 9, 35, 80
5, 276720, Note_off_c, 9, 36, 80
5, 276720, Note_off_c, 9, 35, 80
5, 276960, Note_on_c, 9, 36, 127
5, 276960, Note_on_c, 9, 35, 127
5, 276960, Note_on_c, 9, 36, 127
5, 276960, Note_on_c, 9, 35, 127
5, 277200, Note_off_c, 9, 35, 80
5, 277200, Note_off_c, 9, 36, 80
5, 277200, Note_off_c, 9, 35, 80
5, 277200, Note_off_c, 9, 36, 80
5, 277440, Note_on_c, 9, 44, 127
5, 277680, Note_off_c, 9, 44, 80
5, 277920, Note_on_c, 9, 36, 127
5, 277920, Note_on_c, 9, 35, 127
5, 277920, Note_on_c, 9, 35, 127
5, 277920, Note_on_c, 9, 36, 127
5, 278160, Note_off_c, 9, 36, 80
5, 278160, Note_off_c, 9, 35, 80
5, 278160, Note_off_c, 9, 35, 80
5, 278160, Note_off_c, 9, 36, 80
5, 278400, Note_on_c, 9, 36, 127
5, 278400, Note_on_c, 9, 35, 127
5, 278400, Note_on_c, 9, 35, 127
5, 278400, Note_on_c, 9, 36, 127
5, 278640, Note_off_c, 9, 36, 80
5, 278640, Note_off_c, 9, 35, 80
5, 278640, Note_off_c, 9, 35, 80
5, 278640, Note_off_c, 9, 36, 80
5, 279360, Note_on_c, 9, 44, 127
5, 279600, Note_off_c, 9, 44, 80
5, 280320, Note_on_c, 9, 35, 127
5, 280320, Note_on_c, 9, 36, 127
5, 280320, Note_on_c, 9, 36, 127
5, 280320, Note_on_c, 9, 35, 127
5, 280560, Note_off_c, 9, 35, 80
5, 280560, Note_off_c, 9, 36, 80
5, 280560, Note_off_c, 9, 36, 80
5, 280560, Note_off_c, 9, 35, 80
5, 280800, Note_on_c, 9, 36, 127
5, 280800, Note_on_c, 9, 36, 127
5, 280800, Note_on_c, 9, 35, 127
5, 280800, Note_on_c, 9, 35, 127
5, 281040, Note_off_c, 9, 35, 80
5, 281040, Note_off_c, 9, 35, 80
5, 281040, Note_off_c, 9, 36, 80
5, 281040, Note_off_c, 9, 36, 80
5, 281280, Note_on_c, 9, 44, 127
5, 281520, Note_off_c, 9, 44, 80
5, 282240, Note_on_c, 9, 36, 127
5, 282240, Note_on_c, 9, 35, 127
5, 282240, Note_on_c, 9, 35, 127
5, 282240, Note_on_c, 9, 36, 127
5, 282480, Note_off_c, 9, 36, 80
5, 282480, Note_off_c, 9, 35, 80
5, 282480, Note_off_c, 9, 35, 80
5, 282480, Note_off_c, 9, 36, 80
5, 283200, Note_on_c, 9, 44, 127
5, 283440, Note_off_c, 9, 44, 80
5, 284160, Note_on_c, 9, 35, 127
5, 284160, Note_on_c, 9, 36, 127
5, 284160, Note_on_c, 9, 36, 127
5, 284160, Note_on_c, 9, 35, 127
5, 284400, Note_off_c, 9, 35, 80
5, 284400, Note_off_c, 9, 36, 80
5, 284400, Note_off_c, 9, 36, 80
5, 284400, Note_off_c, 9, 35, 80
5, 284640, Note_on_c, 9, 36, 127
5, 284640, Note_on_c, 9, 36, 127
5, 284640, Note_on_c, 9, 35, 127
5, 284640, Note_on_c, 9, 35, 127
5, 284880, Note_off_c, 9, 35, 80
5, 284880, Note_off_c, 9, 35, 80
5, 284880, Note_off_c, 9, 36, 80
5, 284880, Note_off_c, 9, 36, 80
5, 285120, Note_on_c, 9, 44, 127
5, 285360, Note_off_c, 9, 44, 80
5, 286080, Note_on_c, 9, 36, 127
5, 286080, Note_on_c, 9, 35, 127
5, 286080, Note_on_c, 9, 35, 127
5, 286080, Note_on_c, 9, 36, 127
5, 286320, Note_off_c, 9, 36, 80
5, 286320, Note_off_c, 9, 35, 80
5, 286320, Note_off_c, 9, 35, 80
5, 286320, Note_off_c, 9, 36, 80
5, 287040, Note_on_c, 9, 44, 127
5, 287280, Note_off_c, 9, 44, 80
5, 288000, Note_on_c, 9, 35, 127
5, 288000, Note_on_c, 9, 36, 127
5, 288000, Note_on_c, 9, 36, 127
5, 288000, Note_on_c, 9, 35, 127
5, 288240, Note_off_c, 9, 35, 80
5, 288240, Note_off_c, 9, 36, 80
5, 288240, Note_off_c, 9, 36, 80
5, 288240, Note_off_c, 9, 35, 80
5, 288480, Note_on_c, 9, 36, 127
5, 288480, Note_on_c, 9, 36, 127
5, 288480, Note_on_c, 9, 35, 127
5, 288480, Note_on_c, 9, 35, 127
5, 288720, Note_off_c, 9, 35, 80
5, 288720, Note_off_c, 9, 35, 80
5, 288720, Note_off_c, 9, 36, 80
5, 288720, Note_off_c, 9, 36, 80
5, 288960, Note_on_c, 9, 44, 127
5, 289200, Note_off_c, 9, 44, 80
5, 289920, Note_on_c, 9, 36, 127
5, 289920, Note_on_c, 9, 35, 127
5, 289920, Note_on_c, 9, 35, 127
5, 289920, Note_on_c, 9, 36, 127
5, 290160, Note_off_c, 9, 36, 80
5, 290160, Note_off_c, 9, 35, 80
5, 290160, Note_off_c, 9, 35, 80
5, 290160, Note_off_c, 9, 36, 80
5, 290880, Note_on_c, 9, 44, 127
5, 291120, Note_off_c, 9, 44, 80
5, 291840, Note_on_c, 9, 35, 127
5, 291840, Note_on_c, 9, 36, 127
5, 291840, Note_on_c, 9, 35, 127
5, 291840, Note_on_c, 9, 36, 127
5, 291840, Note_on_c, 9, 57, 127
5, 292080, Note_off_c, 9, 57, 80
5, 292080, Note_off_c, 9, 36, 80
5, 292080, Note_off_c, 9, 35, 80
5, 292080, Note_off_c, 9, 36, 80
5, 292080, Note_off_c, 9, 35, 80
5, 292320, Note_on_c, 9, 36, 127
5, 292320, Note_on_c, 9, 35, 127
5, 292320, Note_on_c, 9, 36, 127
5, 292320, Note_on_c, 9, 35, 127
5, 292560, Note_off_c, 9, 35, 80
5, 292560, Note_off_c, 9, 36, 80
5, 292560, Note_off_c, 9, 35, 80
5, 292560, Note_off_c, 9, 36, 80
5, 292800, Note_on_c, 9, 44, 127
5, 293040, Note_off_c, 9, 44, 80
5, 293280, Note_on_c, 9, 36, 127
5, 293280, Note_on_c, 9, 35, 127
5, 293280, Note_on_c, 9, 35, 127
5, 293280, Note_on_c, 9, 36, 127
5, 293520, Note_off_c, 9, 36, 80
5, 293520, Note_off_c, 9, 35, 80
5, 293520, Note_off_c, 9, 35, 80
5, 293520, Note_off_c, 9, 36, 80
5, 293760, Note_on_c, 9, 36, 127
5, 293760, Note_on_c, 9, 35, 127
5, 293760, Note_on_c, 9, 35, 127
5, 293760, Note_on_c, 9, 36, 127
5, 294000, Note_off_c, 9, 36, 80
5, 294000, Note_off_c, 9, 35, 80
5, 294000, Note_off_c, 9, 35, 80
5, 294000, Note_off_c, 9, 36, 80
5, 294720, Note_on_c, 9, 44, 127
5, 294960, Note_off_c, 9, 44, 80
5, 295680, Note_on_c, 9, 35, 127
5, 295680, Note_on_c, 9, 36, 127
5, 295680, Note_on_c, 9, 36, 127
5, 295680, Note_on_c, 9, 35, 127
5, 295920, Note_off_c, 9, 35, 80
5, 295920, Note_off_c, 9, 36, 80
5, 295920, Note_off_c, 9, 36, 80
5, 295920, Note_off_c, 9, 35, 80
5, 296160, Note_on_c, 9, 36, 127
5, 296160, Note_on_c, 9, 36, 127
5, 296160, Note_on_c, 9, 35, 127
5, 296160, Note_on_c, 9, 35, 127
5, 296400, Note_off_c, 9, 35, 80
5, 296400, Note_off_c, 9, 35, 80
5, 296400, Note_off_c, 9, 36, 80
5, 296400, Note_off_c, 9, 36, 80
5, 296640, Note_on_c, 9, 44, 127
5, 296880, Note_off_c, 9, 44, 80
5, 297600, Note_on_c, 9, 36, 127
5, 297600, Note_on_c, 9, 35, 127
5, 297600, Note_on_c, 9, 35, 127
5, 297600, Note_on_c, 9, 36, 127
5, 297840, Note_off_c, 9, 36, 80
5, 297840, Note_off_c, 9, 35, 80
5, 297840, Note_off_c, 9, 35, 80
5, 297840, Note_off_c, 9, 36, 80
5, 298560, Note_on_c, 9, 44, 127
5, 298800, Note_off_c, 9, 44, 80
5, 299520, Note_on_c, 9, 35, 127
5, 299520, Note_on_c, 9, 36, 127
5, 299520, Note_on_c, 9, 36, 127
5, 299520, Note_on_c, 9, 35, 127
5, 299760, Note_off_c, 9, 35, 80
5, 299760, Note_off_c, 9, 36, 80
5, 299760, Note_off_c, 9, 36, 80
5, 299760, Note_off_c, 9, 35, 80
5, 300000, Note_on_c, 9, 36, 127
5, 300000, Note_on_c, 9, 36, 127
5, 300000, Note_on_c, 9, 35, 127
5, 300000, Note_on_c, 9, 35, 127
5, 300240, Note_off_c, 9, 35, 80
5, 300240, Note_off_c, 9, 35, 80
5, 300240, Note_off_c, 9, 36, 80
5, 300240, Note_off_c, 9, 36, 80
5, 300480, Note_on_c, 9, 44, 127
5, 300720, Note_off_c, 9, 44, 80
5, 301440, Note_on_c, 9, 36, 127
5, 301440, Note_on_c, 9, 35, 127
5, 301440, Note_on_c, 9, 35, 127
5, 301440, Note_on_c, 9, 36, 127
5, 301680, Note_off_c, 9, 36, 80
5, 301680, Note_off_c, 9, 35, 80
5, 301680, Note_off_c, 9, 35, 80
5, 301680, Note_off_c, 9, 36, 80
5, 302400, Note_on_c, 9, 44, 127
5, 302640, Note_off_c, 9, 44, 80
5, 303360, Note_on_c, 9, 35, 127
5, 303360, Note_on_c, 9, 36, 127
5, 303360, Note_on_c, 9, 36, 127
5, 303360, Note_on_c, 9, 35, 127
5, 303600, Note_off_c, 9, 35, 80
5, 303600, Note_off_c, 9, 36, 80
5, 303600, Note_off_c, 9, 36, 80
5, 303600, Note_off_c, 9, 35, 80
5, 303840, Note_on_c, 9, 36, 127
5, 303840, Note_on_c, 9, 36, 127
5, 303840, Note_on_c, 9, 35, 127
5, 303840, Note_on_c, 9, 35, 127
5, 304080, Note_off_c, 9, 35, 80
5, 304080, Note_off_c, 9, 35, 80
5, 304080, Note_off_c, 9, 36, 80
5, 304080, Note_off_c, 9, 36, 80
5, 304320, Note_on_c, 9, 44, 127
5, 304560, Note_off_c, 9, 44, 80
5, 305280, Note_on_c, 9, 36, 127
5, 305280, Note_on_c, 9, 35, 127
5, 305280, Note_on_c, 9, 35, 127
5, 305280, Note_on_c, 9, 36, 127
5, 305520, Note_off_c, 9, 36, 80
5, 305520, Note_off_c, 9, 35, 80
5, 305520, Note_off_c, 9, 35, 80
5, 305520, Note_off_c, 9, 36, 80
5, 306240, Note_on_c, 9, 44, 127
5, 306480, Note_off_c, 9, 44, 80
5, 307200, Note_on_c, 9, 35, 127
5, 307200, Note_on_c, 9, 36, 127
5, 307200, Note_on_c, 9, 35, 127
5, 307200, Note_on_c, 9, 36, 127
5, 307200, Note_on_c, 9, 57, 127
5, 307440, Note_off_c, 9, 57, 80
5, 307440, Note_off_c, 9, 36, 80
5, 307440, Note_off_c, 9, 35, 80
5, 307440, Note_off_c, 9, 36, 80
5, 307440, Note_off_c, 9, 35, 80
5, 307680, Note_on_c, 9, 36, 127
5, 307680, Note_on_c, 9, 35, 127
5, 307680, Note_on_c, 9, 36, 127
5, 307680, Note_on_c, 9, 35, 127
5, 307920, Note_off_c, 9, 35, 80
5, 307920, Note_off_c, 9, 36, 80
5, 307920, Note_off_c, 9, 35, 80
5, 307920, Note_off_c, 9, 36, 80
5, 308160, Note_on_c, 9, 44, 127
5, 308400, Note_off_c, 9, 44, 80
5, 308640, Note_on_c, 9, 36, 127
5, 308640, Note_on_c, 9, 35, 127
5, 308640, Note_on_c, 9, 35, 127
5, 308640, Note_on_c, 9, 36, 127
5, 308880, Note_off_c, 9, 36, 80
5, 308880, Note_off_c, 9, 35, 80
5, 308880, Note_off_c, 9, 35, 80
5, 308880, Note_off_c, 9, 36, 80
5, 309120, Note_on_c, 9, 36, 127
5, 309120, Note_on_c, 9, 35, 127
5, 309120, Note_on_c, 9, 35, 127
5, 309120, Note_on_c, 9, 36, 127
5, 309360, Note_off_c, 9, 36, 80
5, 309360, Note_off_c, 9, 35, 80
5, 309360, Note_off_c, 9, 35, 80
5, 309360, Note_off_c, 9, 36, 80
5, 310080, Note_on_c, 9, 44, 127
5, 310320, Note_off_c, 9, 44, 80
5, 311040, Note_on_c, 9, 35, 127
5, 311040, Note_on_c, 9, 36, 127
5, 311040, Note_on_c, 9, 36, 127
5, 311040, Note_on_c, 9, 35, 127
5, 311280, Note_off_c, 9, 35, 80
5, 311280, Note_off_c, 9, 36, 80
5, 311280, Note_off_c, 9, 36, 80
5, 311280, Note_off_c, 9, 35, 80
5, 311520, Note_on_c, 9, 36, 127
5, 311520, Note_on_c, 9, 36, 127
5, 311520, Note_on_c, 9, 35, 127
5, 311520, Note_on_c, 9, 35, 127
5, 311760, Note_off_c, 9, 35, 80
5, 311760, Note_off_c, 9, 35, 80
5, 311760, Note_off_c, 9, 36, 80
5, 311760, Note_off_c, 9, 36, 80
5, 312000, Note_on_c, 9, 44, 127
5, 312240, Note_off_c, 9, 44, 80
5, 312960, Note_on_c, 9, 36, 127
5, 312960, Note_on_c, 9, 35, 127
5, 312960, Note_on_c, 9, 35, 127
5, 312960, Note_on_c, 9, 36, 127
5, 313200, Note_off_c, 9, 36, 80
5, 313200, Note_off_c, 9, 35, 80
5, 313200, Note_off_c, 9, 35, 80
5, 313200, Note_off_c, 9, 36, 80
5, 313920, Note_on_c, 9, 44, 127
5, 314160, Note_off_c, 9, 44, 80
5, 314880, Note_on_c, 9, 35, 127
5, 314880, Note_on_c, 9, 36, 127
5, 314880, Note_on_c, 9, 36, 127
5, 314880, Note_on_c, 9, 35, 127
5, 315120, Note_off_c, 9, 35, 80
5, 315120, Note_off_c, 9, 36, 80
5, 315120, Note_off_c, 9, 36, 80
5, 315120, Note_off_c, 9, 35, 80
5, 315360, Note_on_c, 9, 36, 127
5, 315360, Note_on_c, 9, 36, 127
5, 315360, Note_on_c, 9, 35, 127
5, 315360, Note_on_c, 9, 35, 127
5, 315600, Note_off_c, 9, 35, 80
5, 315600, Note_off_c, 9, 35, 80
5, 315600, Note_off_c, 9, 36, 80
5, 315600, Note_off_c, 9, 36, 80
5, 315840, Note_on_c, 9, 44, 127
5, 316080, Note_off_c, 9, 44, 80
5, 316800, Note_on_c, 9, 36, 127
5, 316800, Note_on_c, 9, 35, 127
5, 316800, Note_on_c, 9, 35, 127
5, 316800, Note_on_c, 9, 36, 127
5, 317040, Note_off_c, 9, 36, 80
5, 317040, Note_off_c, 9, 35, 80
5, 317040, Note_off_c, 9, 35, 80
5, 317040, Note_off_c, 9, 36, 80
5, 317760, Note_on_c, 9, 44, 127
5, 318000, Note_off_c, 9, 44, 80
5, 318720, Note_on_c, 9, 35, 127
5, 318720, Note_on_c, 9, 36, 127
5, 318720, Note_on_c, 9, 36, 127
5, 318720, Note_on_c, 9, 35, 127
5, 318960, Note_off_c, 9, 35, 80
5, 318960, Note_off_c, 9, 36, 80
5, 318960, Note_off_c, 9, 36, 80
5, 318960, Note_off_c, 9, 35, 80
5, 319200, Note_on_c, 9, 36, 127
5, 319200, Note_on_c, 9, 36, 127
5, 319200, Note_on_c, 9, 35, 127
5, 319200, Note_on_c, 9, 35, 127
5, 319440, Note_off_c, 9, 35, 80
5, 319440, Note_off_c, 9, 35, 80
5, 319440, Note_off_c, 9, 36, 80
5, 319440, Note_off_c, 9, 36, 80
5, 319680, Note_on_c, 9, 44, 127
5, 319920, Note_off_c, 9, 44, 80
5, 320640, Note_on_c, 9, 36, 127
5, 320640, Note_on_c, 9, 35, 127
5, 320640, Note_on_c, 9, 35, 127
5, 320640, Note_on_c, 9, 36, 127
5, 320880, Note_off_c, 9, 36, 80
5, 320880, Note_off_c, 9, 35, 80
5, 320880, Note_off_c, 9, 35, 80
5, 320880, Note_off_c, 9, 36, 80
5, 321600, Note_on_c, 9, 44, 127
5, 321840, Note_off_c, 9, 44, 80
5, 322560, Note_on_c, 9, 35, 127
5, 322560, Note_on_c, 9, 36, 127
5, 322560, Note_on_c, 9, 35, 127
5, 322560, Note_on_c, 9, 36, 127
5, 322560, Note_on_c, 9, 57, 127
5, 322800, Note_off_c, 9, 57, 80
5, 322800, Note_off_c, 9, 36, 80
5, 322800, Note_off_c, 9, 35, 80
5, 322800, Note_off_c, 9, 36, 80
5, 322800, Note_off_c, 9, 35, 80
5, 323040, Note_on_c, 9, 36, 127
5, 323040, Note_on_c, 9, 35, 127
5, 323040, Note_on_c, 9, 36, 127
5, 323040, Note_on_c, 9, 35, 127
5, 323280, Note_off_c, 9, 35, 80
5, 323280, Note_off_c, 9, 36, 80
5, 323280, Note_off_c, 9, 35, 80
5, 323280, Note_off_c, 9, 36, 80
5, 323520, Note_on_c, 9, 44, 127
5, 323760, Note_off_c, 9, 44, 80
5, 324000, Note_on_c, 9, 36, 127
5, 324000, Note_on_c, 9, 35, 127
5, 324000, Note_on_c, 9, 35, 127
5, 324000, Note_on_c, 9, 36, 127
5, 324240, Note_off_c, 9, 36, 80
5, 324240, Note_off_c, 9, 35, 80
5, 324240, Note_off_c, 9, 35, 80
5, 324240, Note_off_c, 9, 36, 80
5, 324480, Note_on_c, 9, 36, 119
5, 324480, Note_on_c, 9, 35, 119
5, 324480, Note_on_c, 9, 35, 119
5, 324480, Note_on_c, 9, 36, 119
5, 324720, Note_off_c, 9, 36, 80
5, 324720, Note_off_c, 9, 35, 80
5, 324720, Note_off_c, 9, 35, 80
5, 324720, Note_off_c, 9, 36, 80
5, 325440, Note_on_c, 9, 44, 119
5, 325680, Note_off_c, 9, 44, 80
5, 326400, Note_on_c, 9, 35, 111
5, 326400, Note_on_c, 9, 36, 111
5, 326400, Note_on_c, 9, 36, 111
5, 326400, Note_on_c, 9, 35, 111
5, 326640, Note_off_c, 9, 35, 80
5, 326640, Note_off_c, 9, 36, 80
5, 326640, Note_off_c, 9, 36, 80
5, 326640, Note_off_c, 9, 35, 80
5, 326880, Note_on_c, 9, 36, 111
5, 326880, Note_on_c, 9, 36, 111
5, 326880, Note_on_c, 9, 35, 111
5, 326880, Note_on_c, 9, 35, 111
5, 327120, Note_off_c, 9, 35, 80
5, 327120, Note_off_c, 9, 35, 80
5, 327120, Note_off_c, 9, 36, 80
5, 327120, Note_off_c, 9, 36, 80
5, 327360, Note_on_c, 9, 44, 111
5, 327600, Note_off_c, 9, 44, 80
5, 328320, Note_on_c, 9, 36, 103
5, 328320, Note_on_c, 9, 35, 103
5, 328320, Note_on_c, 9, 35, 103
5, 328320, Note_on_c, 9, 36, 103
5, 328560, Note_off_c, 9, 36, 80
5, 328560, Note_off_c, 9, 35, 80
5, 328560, Note_off_c, 9, 35, 80
5, 328560, Note_off_c, 9, 36, 80
5, 329280, Note_on_c, 9, 44, 103
5, 329520, Note_off_c, 9, 44, 80
5, 330240, Note_on_c, 9, 35, 95
5, 330240, Note_on_c, 9, 36, 95
5, 330240, Note_on_c, 9, 36, 95
5, 330240, Note_on_c, 9, 35, 95
5, 330480, Note_off_c, 9, 35, 80
5, 330480, Note_off_c, 9, 36, 80
5, 330480, Note_off_c, 9, 36, 80
5, 330480, Note_off_c, 9, 35, 80
5, 330720, Note_on_c, 9, 36, 95
5, 330720, Note_on_c, 9, 36, 95
5, 330720, Note_on_c, 9, 35, 95
5, 330720, Note_on_c, 9, 35, 95
5, 330960, Note_off_c, 9, 35, 80
5, 330960, Note_off_c, 9, 35, 80
5, 330960, Note_off_c, 9, 36, 80
5, 330960, Note_off_c, 9, 36, 80
5, 331200, Note_on_c, 9, 44, 95
5, 331440, Note_off_c, 9, 44, 80
5, 332160, Note_on_c, 9, 36, 87
5, 332160, Note_on_c, 9, 35, 87
5, 332160, Note_on_c, 9, 35, 87
5, 332160, Note_on_c, 9, 36, 87
5, 332400, Note_off_c, 9, 36, 80
5, 332400, Note_off_c, 9, 35, 80
5, 332400, Note_off_c, 9, 35, 80
5, 332400, Note_off_c, 9, 36, 80
5, 333120, Note_on_c, 9, 44, 87
5, 333360, Note_off_c, 9, 44, 80
5, 334080, Note_on_c, 9, 35, 79
5, 334080, Note_on_c, 9, 36, 79
5, 334080, Note_on_c, 9, 36, 79
5, 334080, Note_on_c, 9, 35, 79
5, 334320, Note_off_c, 9, 35, 80
5, 334320, Note_off_c, 9, 36, 80
5, 334320, Note_off_c, 9, 36, 80
5, 334320, Note_off_c, 9, 35, 80
5, 334560, Note_on_c, 9, 36, 79
5, 334560, Note_on_c, 9, 36, 79
5, 334560, Note_on_c, 9, 35, 79
5, 334560, Note_on_c, 9, 35, 79
5, 334800, Note_off_c, 9, 35, 80
5, 334800, Note_off_c, 9, 35, 80
5, 334800, Note_off_c, 9, 36, 80
5, 334800, Note_off_c, 9, 36, 80
5, 335040, Note_on_c, 9, 44, 79
5, 335280, Note_off_c, 9, 44, 80
5, 336000, Note_on_c, 9, 36, 71
5, 336000, Note_on_c, 9, 35, 71
5, 336000, Note_on_c, 9, 35, 71
5, 336000, Note_on_c, 9, 36, 71
5, 336240, Note_off_c, 9, 36, 80
5, 336240, Note_off_c, 9, 35, 80
5, 336240, Note_off_c, 9, 35, 80
5, 336240, Note_off_c, 9, 36, 80
5, 336960, Note_on_c, 9, 44, 71
5, 337200, Note_off_c, 9, 44, 80
5, 337920, Note_on_c, 9, 57, 63
5, 337920, Note_on_c, 9, 36, 63
5, 337920, Note_on_c, 9, 35, 63
5, 337920, Note_on_c, 9, 36, 63
5, 337920, Note_on_c, 9, 35, 63
5, 338160, Note_off_c, 9, 35, 80
5, 338160, Note_off_c, 9, 36, 80
5, 338160, Note_off_c, 9, 35, 80
5, 338160, Note_off_c, 9, 36, 80
5, 338160, Note_off_c, 9, 57, 80
5, 338400, Note_on_c, 9, 36, 63
5, 338400, Note_on_c, 9, 35, 63
5, 338400, Note_on_c, 9, 36, 63
5, 338400, Note_on_c, 9, 35, 63
5, 338640, Note_off_c, 9, 35, 80
5, 338640, Note_off_c, 9, 36, 80
5, 338640, Note_off_c, 9, 35, 80
5, 338640, Note_off_c, 9, 36, 80
5, 338880, Note_on_c, 9, 44, 63
5, 339120, Note_off_c, 9, 44, 80
5, 339360, Note_on_c, 9, 36, 63
5, 339360, Note_on_c, 9, 35, 63
5, 339360, Note_on_c, 9, 35, 63
5, 339360, Note_on_c, 9, 36, 63
5, 339600, Note_off_c, 9, 36, 80
5, 339600, Note_off_c, 9, 35, 80
5, 339600, Note_off_c, 9, 35, 80
5, 339600, Note_off_c, 9, 36, 80
5, 339840, Note_on_c, 9, 36, 55
5, 339840, Note_on_c, 9, 35, 55
5, 339840, Note_on_c, 9, 35, 55
5, 339840, Note_on_c, 9, 36, 55
5, 340080, Note_off_c, 9, 36, 80
5, 340080, Note_off_c, 9, 35, 80
5, 340080, Note_off_c, 9, 35, 80
5, 340080, Note_off_c, 9, 36, 80
5, 340800, Note_on_c, 9, 44, 55
5, 341040, Note_off_c, 9, 44, 80
5, 341760, Note_on_c, 9, 35, 47
5, 341760, Note_on_c, 9, 36, 47
5, 341760, Note_on_c, 9, 36, 47
5, 341760, Note_on_c, 9, 35, 47
5, 342000, Note_off_c, 9, 35, 80
5, 342000, Note_off_c, 9, 36, 80
5, 342000, Note_off_c, 9, 36, 80
5, 342000, Note_off_c, 9, 35, 80
5, 342240, Note_on_c, 9, 36, 47
5, 342240, Note_on_c, 9, 36, 47
5, 342240, Note_on_c, 9, 35, 47
5, 342240, Note_on_c, 9, 35, 47
5, 342480, Note_off_c, 9, 35, 80
5, 342480, Note_off_c, 9, 35, 80
5, 342480, Note_off_c, 9, 36, 80
5, 342480, Note_off_c, 9, 36, 80
5, 342720, Note_on_c, 9, 44, 47
5, 342960, Note_off_c, 9, 44, 80
5, 343680, Note_on_c, 9, 36, 39
5, 343680, Note_on_c, 9, 35, 39
5, 343680, Note_on_c, 9, 35, 39
5, 343680, Note_on_c, 9, 36, 39
5, 343920, Note_off_c, 9, 36, 80
5, 343920, Note_off_c, 9, 35, 80
5, 343920, Note_off_c, 9, 35, 80
5, 343920, Note_off_c, 9, 36, 80
5, 344640, Note_on_c, 9, 44, 39
5, 344880, Note_off_c, 9, 44, 80
5, 345600, Note_on_c, 9, 35, 31
5, 345600, Note_on_c, 9, 36, 31
5, 345600, Note_on_c, 9, 36, 31
5, 345600, Note_on_c, 9, 35, 31
5, 345840, Note_off_c, 9, 35, 80
5, 345840, Note_off_c, 9, 36, 80
5, 345840, Note_off_c, 9, 36, 80
5, 345840, Note_off_c, 9, 35, 80
5, 346080, Note_on_c, 9, 36, 31
5, 346080, Note_on_c, 9, 36, 31
5, 346080, Note_on_c, 9, 35, 31
5, 346080, Note_on_c, 9, 35, 31
5, 346320, Note_off_c, 9, 35, 80
5, 346320, Note_off_c, 9, 35, 80
5, 346320, Note_off_c, 9, 36, 80
5, 346320, Note_off_c, 9, 36, 80
5, 346560, Note_on_c, 9, 44, 31
5, 346800, Note_off_c, 9, 44, 80
5, 347520, Note_on_c, 9, 36, 23
5, 347520, Note_on_c, 9, 35, 23
5, 347520, Note_on_c, 9, 35, 23
5, 347520, Note_on_c, 9, 36, 23
5, 347760, Note_off_c, 9, 36, 80
5, 347760, Note_off_c, 9, 35, 80
5, 347760, Note_off_c, 9, 35, 80
5, 347760, Note_off_c, 9, 36, 80
5, 348480, Note_on_c, 9, 44, 23
5, 348720, Note_off_c, 9, 44, 80
5, 349440, Note_on_c, 9, 35, 15
5, 349440, Note_on_c, 9, 36, 15
5, 349440, Note_on_c, 9, 36, 15
5, 349440, Note_on_c, 9, 35, 15
5, 349680, Note_off_c, 9, 35, 80
5, 349680, Note_off_c, 9, 36, 80
5, 349680, Note_off_c, 9, 36, 80
5, 349680, Note_off_c, 9, 35, 80
5, 349920, Note_on_c, 9, 36, 15
5, 349920, Note_on_c, 9, 36, 15
5, 349920, Note_on_c, 9, 35, 15
5, 349920, Note_on_c, 9, 35, 15
5, 350160, Note_off_c, 9, 35, 80
5, 350160, Note_off_c, 9, 35, 80
5, 350160, Note_off_c, 9, 36, 80
5, 350160, Note_off_c, 9, 36, 80
5, 350400, Note_on_c, 9, 44, 15
5, 350640, Note_off_c, 9, 44, 80
5, 351360, Note_on_c, 9, 36, 7
5, 351360, Note_on_c, 9, 35, 7
5, 351360, Note_on_c, 9, 35, 7
5, 351360, Note_on_c, 9, 36, 7
5, 351600, Note_off_c, 9, 36, 80
5, 351600, Note_off_c, 9, 35, 80
5, 351600, Note_off_c, 9, 35, 80
5, 351600, Note_off_c, 9, 36, 80
5, 352320, Note_on_c, 9, 44, 7
5, 352560, Note_off_c, 9, 44, 80
5, 352560, End_track
6, 0, Start_track
6, 0, Title_t, "Bass"
6, 0, MIDI_port, 0
6, 0, Channel_prefix, 3
6, 0, Control_c, 3, 7, 109
6, 0, Control_c, 3, 10, 64
6, 0, Control_c, 3, 91, 0
6, 0, Control_c, 3, 93, 0
6, 0, Program_c, 3, 35
6, 15360, Note_on_c, 3, 32, 127
6, 15600, Note_off_c, 3, 32, 80
6, 15840, Note_on_c, 3, 32, 127
6, 16080, Note_off_c, 3, 32, 80
6, 16800, Note_on_c, 3, 32, 127
6, 17040, Note_off_c, 3, 32, 80
6, 17280, Note_on_c, 3, 32, 127
6, 17520, Note_off_c, 3, 32, 80
6, 19200, Note_on_c, 3, 32, 127
6, 19440, Note_off_c, 3, 32, 80
6, 19680, Note_on_c, 3, 32, 127
6, 19920, Note_off_c, 3, 32, 80
6, 20640, Note_on_c, 3, 32, 127
6, 20880, Note_off_c, 3, 32, 80
6, 21120, Note_on_c, 3, 32, 127
6, 21360, Note_off_c, 3, 32, 80
6, 23040, Note_on_c, 3, 32, 127
6, 23280, Note_off_c, 3, 32, 80
6, 23520, Note_on_c, 3, 32, 127
6, 23760, Note_off_c, 3, 32, 80
6, 24480, Note_on_c, 3, 32, 127
6, 24720, Note_off_c, 3, 32, 80
6, 24960, Note_on_c, 3, 32, 127
6, 25200, Note_off_c, 3, 32, 80
6, 26880, Note_on_c, 3, 32, 127
6, 27120, Note_off_c, 3, 32, 80
6, 27360, Note_on_c, 3, 32, 127
6, 27600, Note_off_c, 3, 32, 80
6, 28320, Note_on_c, 3, 32, 127
6, 28560, Note_off_c, 3, 32, 80
6, 28800, Note_on_c, 3, 32, 127
6, 29040, Note_off_c, 3, 32, 80
6, 30720, Note_on_c, 3, 32, 127
6, 30960, Note_off_c, 3, 32, 80
6, 31200, Note_on_c, 3, 32, 127
6, 31440, Note_off_c, 3, 32, 80
6, 32160, Note_on_c, 3, 32, 127
6, 32400, Note_off_c, 3, 32, 80
6, 32640, Note_on_c, 3, 32, 127
6, 32880, Note_off_c, 3, 32, 80
6, 34560, Note_on_c, 3, 32, 127
6, 34800, Note_off_c, 3, 32, 80
6, 35040, Note_on_c, 3, 32, 127
6, 35280, Note_off_c, 3, 32, 80
6, 36000, Note_on_c, 3, 32, 127
6, 36240, Note_off_c, 3, 32, 80
6, 36480, Note_on_c, 3, 32, 127
6, 36720, Note_off_c, 3, 32, 80
6, 38400, Note_on_c, 3, 32, 127
6, 38640, Note_off_c, 3, 32, 80
6, 38880, Note_on_c, 3, 32, 127
6, 39120, Note_off_c, 3, 32, 80
6, 39840, Note_on_c, 3, 32, 127
6, 40080, Note_off_c, 3, 32, 80
6, 40320, Note_on_c, 3, 32, 127
6, 40560, Note_off_c, 3, 32, 80
6, 42240, Note_on_c, 3, 32, 127
6, 42480, Note_off_c, 3, 32, 80
6, 42720, Note_on_c, 3, 32, 127
6, 42960, Note_off_c, 3, 32, 80
6, 43680, Note_on_c, 3, 32, 127
6, 43920, Note_off_c, 3, 32, 80
6, 44160, Note_on_c, 3, 32, 127
6, 44400, Note_off_c, 3, 32, 80
6, 46080, Note_on_c, 3, 32, 127
6, 46320, Note_off_c, 3, 32, 80
6, 46560, Note_on_c, 3, 32, 127
6, 46800, Note_off_c, 3, 32, 80
6, 47520, Note_on_c, 3, 32, 127
6, 47760, Note_off_c, 3, 32, 80
6, 48000, Note_on_c, 3, 32, 127
6, 48240, Note_off_c, 3, 32, 80
6, 49920, Note_on_c, 3, 32, 127
6, 50160, Note_off_c, 3, 32, 80
6, 50400, Note_on_c, 3, 32, 127
6, 50640, Note_off_c, 3, 32, 80
6, 51360, Note_on_c, 3, 32, 127
6, 51600, Note_off_c, 3, 32, 80
6, 51840, Note_on_c, 3, 32, 127
6, 52080, Note_off_c, 3, 32, 80
6, 53760, Note_on_c, 3, 32, 127
6, 54000, Note_off_c, 3, 32, 80
6, 54240, Note_on_c, 3, 32, 127
6, 54480, Note_off_c, 3, 32, 80
6, 55200, Note_on_c, 3, 32, 127
6, 55440, Note_off_c, 3, 32, 80
6, 55680, Note_on_c, 3, 32, 127
6, 55920, Note_off_c, 3, 32, 80
6, 57600, Note_on_c, 3, 32, 127
6, 57840, Note_off_c, 3, 32, 80
6, 58080, Note_on_c, 3, 32, 127
6, 58320, Note_off_c, 3, 32, 80
6, 59040, Note_on_c, 3, 32, 127
6, 59280, Note_off_c, 3, 32, 80
6, 59520, Note_on_c, 3, 32, 127
6, 59760, Note_off_c, 3, 32, 80
6, 61440, Note_on_c, 3, 32, 127
6, 61680, Note_off_c, 3, 32, 80
6, 61920, Note_on_c, 3, 32, 127
6, 62160, Note_off_c, 3, 32, 80
6, 62880, Note_on_c, 3, 32, 127
6, 63120, Note_off_c, 3, 32, 80
6, 63360, Note_on_c, 3, 32, 127
6, 63600, Note_off_c, 3, 32, 80
6, 65280, Note_on_c, 3, 32, 127
6, 65520, Note_off_c, 3, 32, 80
6, 65760, Note_on_c, 3, 32, 127
6, 66000, Note_off_c, 3, 32, 80
6, 66720, Note_on_c, 3, 32, 127
6, 66960, Note_off_c, 3, 32, 80
6, 67200, Note_on_c, 3, 32, 127
6, 67440, Note_off_c, 3, 32, 80
6, 69120, Note_on_c, 3, 32, 127
6, 69360, Note_off_c, 3, 32, 80
6, 69600, Note_on_c, 3, 32, 127
6, 69840, Note_off_c, 3, 32, 80
6, 70560, Note_on_c, 3, 32, 127
6, 70800, Note_off_c, 3, 32, 80
6, 71040, Note_on_c, 3, 32, 127
6, 71280, Note_off_c, 3, 32, 80
6, 72960, Note_on_c, 3, 32, 127
6, 73200, Note_off_c, 3, 32, 80
6, 73440, Note_on_c, 3, 32, 127
6, 73680, Note_off_c, 3, 32, 80
6, 74400, Note_on_c, 3, 32, 127
6, 74640, Note_off_c, 3, 32, 80
6, 74880, Note_on_c, 3, 32, 127
6, 75120, Note_off_c, 3, 32, 80
6, 76800, Note_on_c, 3, 32, 127
6, 77040, Note_off_c, 3, 32, 80
6, 77280, Note_on_c, 3, 32, 127
6, 77520, Note_off_c, 3, 32, 80
6, 78240, Note_on_c, 3, 32, 127
6, 78480, Note_off_c, 3, 32, 80
6, 78720, Note_on_c, 3, 32, 127
6, 78960, Note_off_c, 3, 32, 80
6, 80640, Note_on_c, 3, 32, 127
6, 80880, Note_off_c, 3, 32, 80
6, 81120, Note_on_c, 3, 32, 127
6, 81360, Note_off_c, 3, 32, 80
6, 82080, Note_on_c, 3, 32, 127
6, 82320, Note_off_c, 3, 32, 80
6, 82560, Note_on_c, 3, 32, 127
6, 82800, Note_off_c, 3, 32, 80
6, 84480, Note_on_c, 3, 32, 127
6, 84720, Note_off_c, 3, 32, 80
6, 84960, Note_on_c, 3, 32, 127
6, 85200, Note_off_c, 3, 32, 80
6, 85920, Note_on_c, 3, 32, 127
6, 86160, Note_off_c, 3, 32, 80
6, 86400, Note_on_c, 3, 32, 127
6, 86640, Note_off_c, 3, 32, 80
6, 88320, Note_on_c, 3, 32, 127
6, 88560, Note_off_c, 3, 32, 80
6, 88800, Note_on_c, 3, 32, 127
6, 89040, Note_off_c, 3, 32, 80
6, 89760, Note_on_c, 3, 32, 127
6, 90000, Note_off_c, 3, 32, 80
6, 90240, Note_on_c, 3, 32, 127
6, 90480, Note_off_c, 3, 32, 80
6, 92160, Note_on_c, 3, 32, 127
6, 92400, Note_off_c, 3, 32, 80
6, 92640, Note_on_c, 3, 32, 127
6, 92880, Note_off_c, 3, 32, 80
6, 93600, Note_on_c, 3, 32, 127
6, 93840, Note_off_c, 3, 32, 80
6, 94080, Note_on_c, 3, 32, 127
6, 94320, Note_off_c, 3, 32, 80
6, 96000, Note_on_c, 3, 32, 127
6, 96240, Note_off_c, 3, 32, 80
6, 96480, Note_on_c, 3, 32, 127
6, 96720, Note_off_c, 3, 32, 80
6, 97440, Note_on_c, 3, 32, 127
6, 97680, Note_off_c, 3, 32, 80
6, 97920, Note_on_c, 3, 32, 127
6, 98160, Note_off_c, 3, 32, 80
6, 99840, Note_on_c, 3, 32, 127
6, 100080, Note_off_c, 3, 32, 80
6, 100320, Note_on_c, 3, 32, 127
6, 100560, Note_off_c, 3, 32, 80
6, 101280, Note_on_c, 3, 32, 127
6, 101520, Note_off_c, 3, 32, 80
6, 101760, Note_on_c, 3, 32, 127
6, 102000, Note_off_c, 3, 32, 80
6, 103680, Note_on_c, 3, 32, 127
6, 103920, Note_off_c, 3, 32, 80
6, 104160, Note_on_c, 3, 32, 127
6, 104400, Note_off_c, 3, 32, 80
6, 105120, Note_on_c, 3, 32, 127
6, 105360, Note_off_c, 3, 32, 80
6, 105600, Note_on_c, 3, 32, 127
6, 105840, Note_off_c, 3, 32, 80
6, 107520, Note_on_c, 3, 32, 127
6, 107760, Note_off_c, 3, 32, 80
6, 108000, Note_on_c, 3, 32, 127
6, 108240, Note_off_c, 3, 32, 80
6, 108960, Note_on_c, 3, 32, 127
6, 109200, Note_off_c, 3, 32, 80
6, 109440, Note_on_c, 3, 32, 127
6, 109680, Note_off_c, 3, 32, 80
6, 111360, Note_on_c, 3, 32, 127
6, 111600, Note_off_c, 3, 32, 80
6, 111840, Note_on_c, 3, 32, 127
6, 112080, Note_off_c, 3, 32, 80
6, 112800, Note_on_c, 3, 32, 127
6, 113040, Note_off_c, 3, 32, 80
6, 113280, Note_on_c, 3, 32, 127
6, 113520, Note_off_c, 3, 32, 80
6, 115200, Note_on_c, 3, 32, 127
6, 115440, Note_off_c, 3, 32, 80
6, 115680, Note_on_c, 3, 32, 127
6, 115920, Note_off_c, 3, 32, 80
6, 116640, Note_on_c, 3, 32, 127
6, 116880, Note_off_c, 3, 32, 80
6, 117120, Note_on_c, 3, 32, 127
6, 117360, Note_off_c, 3, 32, 80
6, 119040, Note_on_c, 3, 32, 127
6, 119280, Note_off_c, 3, 32, 80
6, 119520, Note_on_c, 3, 32, 127
6, 119760, Note_off_c, 3, 32, 80
6, 120480, Note_on_c, 3, 32, 127
6, 120720, Note_off_c, 3, 32, 80
6, 120960, Note_on_c, 3, 32, 127
6, 121200, Note_off_c, 3, 32, 80
6, 122880, Note_on_c, 3, 32, 127
6, 123120, Note_off_c, 3, 32, 80
6, 123360, Note_on_c, 3, 32, 127
6, 123600, Note_off_c, 3, 32, 80
6, 124320, Note_on_c, 3, 32, 127
6, 124560, Note_off_c, 3, 32, 80
6, 124800, Note_on_c, 3, 32, 127
6, 125040, Note_off_c, 3, 32, 80
6, 126720, Note_on_c, 3, 32, 127
6, 126960, Note_off_c, 3, 32, 80
6, 127200, Note_on_c, 3, 32, 127
6, 127440, Note_off_c, 3, 32, 80
6, 128160, Note_on_c, 3, 32, 127
6, 128400, Note_off_c, 3, 32, 80
6, 128640, Note_on_c, 3, 32, 127
6, 128880, Note_off_c, 3, 32, 80
6, 130560, Note_on_c, 3, 32, 127
6, 130800, Note_off_c, 3, 32, 80
6, 131040, Note_on_c, 3, 32, 127
6, 131280, Note_off_c, 3, 32, 80
6, 132000, Note_on_c, 3, 32, 127
6, 132240, Note_off_c, 3, 32, 80
6, 132480, Note_on_c, 3, 32, 127
6, 132720, Note_off_c, 3, 32, 80
6, 134400, Note_on_c, 3, 32, 127
6, 134640, Note_off_c, 3, 32, 80
6, 134880, Note_on_c, 3, 32, 127
6, 135120, Note_off_c, 3, 32, 80
6, 135840, Note_on_c, 3, 32, 127
6, 136080, Note_off_c, 3, 32, 80
6, 136320, Note_on_c, 3, 32, 127
6, 136560, Note_off_c, 3, 32, 80
6, 145920, Note_on_c, 3, 32, 127
6, 146160, Note_off_c, 3, 32, 80
6, 146400, Note_on_c, 3, 32, 127
6, 146640, Note_off_c, 3, 32, 80
6, 147360, Note_on_c, 3, 32, 127
6, 147600, Note_off_c, 3, 32, 80
6, 147840, Note_on_c, 3, 32, 127
6, 148080, Note_off_c, 3, 32, 80
6, 149760, Note_on_c, 3, 32, 127
6, 150000, Note_off_c, 3, 32, 80
6, 150240, Note_on_c, 3, 32, 127
6, 150480, Note_off_c, 3, 32, 80
6, 151200, Note_on_c, 3, 32, 127
6, 151440, Note_off_c, 3, 32, 80
6, 151680, Note_on_c, 3, 32, 127
6, 151920, Note_off_c, 3, 32, 80
6, 153600, Note_on_c, 3, 32, 127
6, 153840, Note_off_c, 3, 32, 80
6, 154080, Note_on_c, 3, 32, 127
6, 154320, Note_off_c, 3, 32, 80
6, 155040, Note_on_c, 3, 32, 127
6, 155280, Note_off_c, 3, 32, 80
6, 155520, Note_on_c, 3, 32, 127
6, 155760, Note_off_c, 3, 32, 80
6, 157440, Note_on_c, 3, 32, 127
6, 157680, Note_off_c, 3, 32, 80
6, 157920, Note_on_c, 3, 32, 127
6, 158160, Note_off_c, 3, 32, 80
6, 158880, Note_on_c, 3, 32, 127
6, 159120, Note_off_c, 3, 32, 80
6, 159360, Note_on_c, 3, 32, 127
6, 159600, Note_off_c, 3, 32, 80
6, 161280, Note_on_c, 3, 32, 127
6, 161520, Note_off_c, 3, 32, 80
6, 161760, Note_on_c, 3, 32, 127
6, 162000, Note_off_c, 3, 32, 80
6, 162720, Note_on_c, 3, 32, 127
6, 162960, Note_off_c, 3, 32, 80
6, 163200, Note_on_c, 3, 32, 127
6, 163440, Note_off_c, 3, 32, 80
6, 165120, Note_on_c, 3, 32, 127
6, 165360, Note_off_c, 3, 32, 80
6, 165600, Note_on_c, 3, 32, 127
6, 165840, Note_off_c, 3, 32, 80
6, 166560, Note_on_c, 3, 32, 127
6, 166800, Note_off_c, 3, 32, 80
6, 167040, Note_on_c, 3, 32, 127
6, 167280, Note_off_c, 3, 32, 80
6, 168960, Note_on_c, 3, 32, 127
6, 169200, Note_off_c, 3, 32, 80
6, 169440, Note_on_c, 3, 32, 127
6, 169680, Note_off_c, 3, 32, 80
6, 170400, Note_on_c, 3, 32, 127
6, 170640, Note_off_c, 3, 32, 80
6, 170880, Note_on_c, 3, 32, 127
6, 171120, Note_off_c, 3, 32, 80
6, 172800, Note_on_c, 3, 32, 127
6, 173040, Note_off_c, 3, 32, 80
6, 173280, Note_on_c, 3, 32, 127
6, 173520, Note_off_c, 3, 32, 80
6, 174240, Note_on_c, 3, 32, 127
6, 174480, Note_off_c, 3, 32, 80
6, 174720, Note_on_c, 3, 32, 127
6, 174960, Note_off_c, 3, 32, 80
6, 176640, Note_on_c, 3, 32, 127
6, 176880, Note_off_c, 3, 32, 80
6, 177120, Note_on_c, 3, 32, 127
6, 177360, Note_off_c, 3, 32, 80
6, 178080, Note_on_c, 3, 32, 127
6, 178320, Note_off_c, 3, 32, 80
6, 178560, Note_on_c, 3, 32, 127
6, 178800, Note_off_c, 3, 32, 80
6, 180480, Note_on_c, 3, 32, 127
6, 180720, Note_off_c, 3, 32, 80
6, 180960, Note_on_c, 3, 32, 127
6, 181200, Note_off_c, 3, 32, 80
6, 181920, Note_on_c, 3, 32, 127
6, 182160, Note_off_c, 3, 32, 80
6, 182400, Note_on_c, 3, 32, 127
6, 182640, Note_off_c, 3, 32, 80
6, 184320, Note_on_c, 3, 32, 127
6, 184560, Note_off_c, 3, 32, 80
6, 184800, Note_on_c, 3, 32, 127
6, 185040, Note_off_c, 3, 32, 80
6, 185760, Note_on_c, 3, 32, 127
6, 186000, Note_off_c, 3, 32, 80
6, 186240, Note_on_c, 3, 32, 127
6, 186480, Note_off_c, 3, 32, 80
6, 188160, Note_on_c, 3, 32, 127
6, 188400, Note_off_c, 3, 32, 80
6, 188640, Note_on_c, 3, 32, 127
6, 188880, Note_off_c, 3, 32, 80
6, 189600, Note_on_c, 3, 32, 127
6, 189840, Note_off_c, 3, 32, 80
6, 190080, Note_on_c, 3, 32, 127
6, 190320, Note_off_c, 3, 32, 80
6, 192000, Note_on_c, 3, 32, 127
6, 192240, Note_off_c, 3, 32, 80
6, 192480, Note_on_c, 3, 32, 127
6, 192720, Note_off_c, 3, 32, 80
6, 193440, Note_on_c, 3, 32, 127
6, 193680, Note_off_c, 3, 32, 80
6, 193920, Note_on_c, 3, 32, 127
6, 194160, Note_off_c, 3, 32, 80
6, 195840, Note_on_c, 3, 32, 127
6, 196080, Note_off_c, 3, 32, 80
6, 196320, Note_on_c, 3, 32, 127
6, 196560, Note_off_c, 3, 32, 80
6, 197280, Note_on_c, 3, 32, 127
6, 197520, Note_off_c, 3, 32, 80
6, 197760, Note_on_c, 3, 32, 127
6, 198000, Note_off_c, 3, 32, 80
6, 199680, Note_on_c, 3, 32, 127
6, 199920, Note_off_c, 3, 32, 80
6, 200160, Note_on_c, 3, 32, 127
6, 200400, Note_off_c, 3, 32, 80
6, 201120, Note_on_c, 3, 32, 127
6, 201360, Note_off_c, 3, 32, 80
6, 201600, Note_on_c, 3, 32, 127
6, 201840, Note_off_c, 3, 32, 80
6, 203520, Note_on_c, 3, 32, 127
6, 203760, Note_off_c, 3, 32, 80
6, 204000, Note_on_c, 3, 32, 127
6, 204240, Note_off_c, 3, 32, 80
6, 204960, Note_on_c, 3, 32, 127
6, 205200, Note_off_c, 3, 32, 80
6, 205440, Note_on_c, 3, 32, 127
6, 205680, Note_off_c, 3, 32, 80
6, 207360, Note_on_c, 3, 32, 127
6, 207600, Note_off_c, 3, 32, 80
6, 207840, Note_on_c, 3, 32, 127
6, 208080, Note_off_c, 3, 32, 80
6, 208800, Note_on_c, 3, 32, 127
6, 209040, Note_off_c, 3, 32, 80
6, 209280, Note_on_c, 3, 32, 127
6, 209520, Note_off_c, 3, 32, 80
6, 211200, Note_on_c, 3, 32, 127
6, 211440, Note_off_c, 3, 32, 80
6, 211680, Note_on_c, 3, 32, 127
6, 211920, Note_off_c, 3, 32, 80
6, 212640, Note_on_c, 3, 32, 127
6, 212880, Note_off_c, 3, 32, 80
6, 213120, Note_on_c, 3, 32, 127
6, 213360, Note_off_c, 3, 32, 80
6, 215040, Note_on_c, 3, 32, 127
6, 215280, Note_off_c, 3, 32, 80
6, 215520, Note_on_c, 3, 32, 127
6, 215760, Note_off_c, 3, 32, 80
6, 216480, Note_on_c, 3, 32, 127
6, 216720, Note_off_c, 3, 32, 80
6, 216960, Note_on_c, 3, 32, 127
6, 217200, Note_off_c, 3, 32, 80
6, 218880, Note_on_c, 3, 32, 127
6, 219120, Note_off_c, 3, 32, 80
6, 219360, Note_on_c, 3, 32, 127
6, 219600, Note_off_c, 3, 32, 80
6, 220320, Note_on_c, 3, 32, 127
6, 220560, Note_off_c, 3, 32, 80
6, 220800, Note_on_c, 3, 32, 127
6, 221040, Note_off_c, 3, 32, 80
6, 222720, Note_on_c, 3, 32, 127
6, 222960, Note_off_c, 3, 32, 80
6, 223200, Note_on_c, 3, 32, 127
6, 223440, Note_off_c, 3, 32, 80
6, 224160, Note_on_c, 3, 32, 127
6, 224400, Note_off_c, 3, 32, 80
6, 224640, Note_on_c, 3, 32, 127
6, 224880, Note_off_c, 3, 32, 80
6, 226560, Note_on_c, 3, 32, 127
6, 226800, Note_off_c, 3, 32, 80
6, 227040, Note_on_c, 3, 32, 127
6, 227280, Note_off_c, 3, 32, 80
6, 228000, Note_on_c, 3, 32, 127
6, 228240, Note_off_c, 3, 32, 80
6, 228480, Note_on_c, 3, 32, 127
6, 228720, Note_off_c, 3, 32, 80
6, 230400, Note_on_c, 3, 32, 127
6, 230640, Note_off_c, 3, 32, 80
6, 230880, Note_on_c, 3, 32, 127
6, 231120, Note_off_c, 3, 32, 80
6, 231840, Note_on_c, 3, 32, 127
6, 232080, Note_off_c, 3, 32, 80
6, 232320, Note_on_c, 3, 32, 127
6, 232560, Note_off_c, 3, 32, 80
6, 234240, Note_on_c, 3, 32, 127
6, 234480, Note_off_c, 3, 32, 80
6, 234720, Note_on_c, 3, 32, 127
6, 234960, Note_off_c, 3, 32, 80
6, 235680, Note_on_c, 3, 32, 127
6, 235920, Note_off_c, 3, 32, 80
6, 236160, Note_on_c, 3, 32, 127
6, 236400, Note_off_c, 3, 32, 80
6, 238080, Note_on_c, 3, 32, 127
6, 238320, Note_off_c, 3, 32, 80
6, 238560, Note_on_c, 3, 32, 127
6, 238800, Note_off_c, 3, 32, 80
6, 239520, Note_on_c, 3, 32, 127
6, 239760, Note_off_c, 3, 32, 80
6, 240000, Note_on_c, 3, 32, 127
6, 240240, Note_off_c, 3, 32, 80
6, 241920, Note_on_c, 3, 32, 127
6, 242160, Note_off_c, 3, 32, 80
6, 242400, Note_on_c, 3, 32, 127
6, 242640, Note_off_c, 3, 32, 80
6, 243360, Note_on_c, 3, 32, 127
6, 243600, Note_off_c, 3, 32, 80
6, 243840, Note_on_c, 3, 32, 127
6, 244080, Note_off_c, 3, 32, 80
6, 245760, Note_on_c, 3, 32, 127
6, 246000, Note_off_c, 3, 32, 80
6, 246240, Note_on_c, 3, 32, 127
6, 246480, Note_off_c, 3, 32, 80
6, 247200, Note_on_c, 3, 32, 127
6, 247440, Note_off_c, 3, 32, 80
6, 247680, Note_on_c, 3, 32, 127
6, 247920, Note_off_c, 3, 32, 80
6, 249600, Note_on_c, 3, 32, 127
6, 249840, Note_off_c, 3, 32, 80
6, 250080, Note_on_c, 3, 32, 127
6, 250320, Note_off_c, 3, 32, 80
6, 251040, Note_on_c, 3, 32, 127
6, 251280, Note_off_c, 3, 32, 80
6, 251520, Note_on_c, 3, 32, 127
6, 251760, Note_off_c, 3, 32, 80
6, 253440, Note_on_c, 3, 32, 127
6, 253680, Note_off_c, 3, 32, 80
6, 253920, Note_on_c, 3, 32, 127
6, 254160, Note_off_c, 3, 32, 80
6, 254880, Note_on_c, 3, 32, 127
6, 255120, Note_off_c, 3, 32, 80
6, 255360, Note_on_c, 3, 32, 127
6, 255600, Note_off_c, 3, 32, 80
6, 257280, Note_on_c, 3, 32, 127
6, 257520, Note_off_c, 3, 32, 80
6, 257760, Note_on_c, 3, 32, 127
6, 258000, Note_off_c, 3, 32, 80
6, 258720, Note_on_c, 3, 32, 127
6, 258960, Note_off_c, 3, 32, 80
6, 259200, Note_on_c, 3, 32, 127
6, 259440, Note_off_c, 3, 32, 80
6, 261120, Note_on_c, 3, 32, 127
6, 261360, Note_off_c, 3, 32, 80
6, 261600, Note_on_c, 3, 32, 127
6, 261840, Note_off_c, 3, 32, 80
6, 262560, Note_on_c, 3, 32, 127
6, 262800, Note_off_c, 3, 32, 80
6, 263040, Note_on_c, 3, 32, 127
6, 263280, Note_off_c, 3, 32, 80
6, 264960, Note_on_c, 3, 32, 127
6, 265200, Note_off_c, 3, 32, 80
6, 265440, Note_on_c, 3, 32, 127
6, 265680, Note_off_c, 3, 32, 80
6, 266400, Note_on_c, 3, 32, 127
6, 266640, Note_off_c, 3, 32, 80
6, 266880, Note_on_c, 3, 32, 127
6, 267120, Note_off_c, 3, 32, 80
6, 268800, Note_on_c, 3, 32, 127
6, 269040, Note_off_c, 3, 32, 80
6, 269280, Note_on_c, 3, 32, 127
6, 269520, Note_off_c, 3, 32, 80
6, 270240, Note_on_c, 3, 32, 127
6, 270480, Note_off_c, 3, 32, 80
6, 270720, Note_on_c, 3, 32, 127
6, 270960, Note_off_c, 3, 32, 80
6, 272640, Note_on_c, 3, 32, 127
6, 272880, Note_off_c, 3, 32, 80
6, 273120, Note_on_c, 3, 32, 127
6, 273360, Note_off_c, 3, 32, 80
6, 274080, Note_on_c, 3, 32, 127
6, 274320, Note_off_c, 3, 32, 80
6, 274560, Note_on_c, 3, 32, 127
6, 274800, Note_off_c, 3, 32, 80
6, 276480, Note_on_c, 3, 32, 127
6, 276720, Note_off_c, 3, 32, 80
6, 276960, Note_on_c, 3, 32, 127
6, 277200, Note_off_c, 3, 32, 80
6, 277920, Note_on_c, 3, 32, 127
6, 278160, Note_off_c, 3, 32, 80
6, 278400, Note_on_c, 3, 32, 127
6, 278640, Note_off_c, 3, 32, 80
6, 280320, Note_on_c, 3, 32, 127
6, 280560, Note_off_c, 3, 32, 80
6, 280800, Note_on_c, 3, 32, 127
6, 281040, Note_off_c, 3, 32, 80
6, 281760, Note_on_c, 3, 32, 127
6, 282000, Note_off_c, 3, 32, 80
6, 282240, Note_on_c, 3, 32, 127
6, 282480, Note_off_c, 3, 32, 80
6, 284160, Note_on_c, 3, 32, 127
6, 284400, Note_off_c, 3, 32, 80
6, 284640, Note_on_c, 3, 32, 127
6, 284880, Note_off_c, 3, 32, 80
6, 285600, Note_on_c, 3, 32, 127
6, 285840, Note_off_c, 3, 32, 80
6, 286080, Note_on_c, 3, 32, 127
6, 286320, Note_off_c, 3, 32, 80
6, 288000, Note_on_c, 3, 32, 127
6, 288240, Note_off_c, 3, 32, 80
6, 288480, Note_on_c, 3, 32, 127
6, 288720, Note_off_c, 3, 32, 80
6, 289440, Note_on_c, 3, 32, 127
6, 289680, Note_off_c, 3, 32, 80
6, 289920, Note_on_c, 3, 32, 127
6, 290160, Note_off_c, 3, 32, 80
6, 291840, Note_on_c, 3, 32, 127
6, 292080, Note_off_c, 3, 32, 80
6, 292320, Note_on_c, 3, 32, 127
6, 292560, Note_off_c, 3, 32, 80
6, 293280, Note_on_c, 3, 32, 127
6, 293520, Note_off_c, 3, 32, 80
6, 293760, Note_on_c, 3, 32, 127
6, 294000, Note_off_c, 3, 32, 80
6, 295680, Note_on_c, 3, 32, 127
6, 295920, Note_off_c, 3, 32, 80
6, 296160, Note_on_c, 3, 32, 127
6, 296400, Note_off_c, 3, 32, 80
6, 297120, Note_on_c, 3, 32, 127
6, 297360, Note_off_c, 3, 32, 80
6, 297600, Note_on_c, 3, 32, 127
6, 297840, Note_off_c, 3, 32, 80
6, 299520, Note_on_c, 3, 32, 127
6, 299760, Note_off_c, 3, 32, 80
6, 300000, Note_on_c, 3, 32, 127
6, 300240, Note_off_c, 3, 32, 80
6, 300960, Note_on_c, 3, 32, 127
6, 301200, Note_off_c, 3, 32, 80
6, 301440, Note_on_c, 3, 32, 127
6, 301680, Note_off_c, 3, 32, 80
6, 303360, Note_on_c, 3, 32, 127
6, 303600, Note_off_c, 3, 32, 80
6, 303840, Note_on_c, 3, 32, 127
6, 304080, Note_off_c, 3, 32, 80
6, 304800, Note_on_c, 3, 32, 127
6, 305040, Note_off_c, 3, 32, 80
6, 305280, Note_on_c, 3, 32, 127
6, 305520, Note_off_c, 3, 32, 80
6, 307200, Note_on_c, 3, 32, 127
6, 307440, Note_off_c, 3, 32, 80
6, 307680, Note_on_c, 3, 32, 127
6, 307920, Note_off_c, 3, 32, 80
6, 308640, Note_on_c, 3, 32, 127
6, 308880, Note_off_c, 3, 32, 80
6, 309120, Note_on_c, 3, 32, 127
6, 309360, Note_off_c, 3, 32, 80
6, 311040, Note_on_c, 3, 32, 127
6, 311280, Note_off_c, 3, 32, 80
6, 311520, Note_on_c, 3, 32, 127
6, 311760, Note_off_c, 3, 32, 80
6, 312480, Note_on_c, 3, 32, 127
6, 312720, Note_off_c, 3, 32, 80
6, 312960, Note_on_c, 3, 32, 127
6, 313200, Note_off_c, 3, 32, 80
6, 314880, Note_on_c, 3, 32, 127
6, 315120, Note_off_c, 3, 32, 80
6, 315360, Note_on_c, 3, 32, 127
6, 315600, Note_off_c, 3, 32, 80
6, 316320, Note_on_c, 3, 32, 127
6, 316560, Note_off_c, 3, 32, 80
6, 316800, Note_on_c, 3, 32, 127
6, 317040, Note_off_c, 3, 32, 80
6, 318720, Note_on_c, 3, 32, 127
6, 318960, Note_off_c, 3, 32, 80
6, 319200, Note_on_c, 3, 32, 127
6, 319440, Note_off_c, 3, 32, 80
6, 320160, Note_on_c, 3, 32, 127
6, 320400, Note_off_c, 3, 32, 80
6, 320640, Note_on_c, 3, 32, 127
6, 320880, Note_off_c, 3, 32, 80
6, 322560, Note_on_c, 3, 32, 127
6, 322800, Note_off_c, 3, 32, 80
6, 323040, Note_on_c, 3, 32, 127
6, 323280, Note_off_c, 3, 32, 80
6, 324000, Note_on_c, 3, 32, 127
6, 324240, Note_off_c, 3, 32, 80
6, 324480, Note_on_c, 3, 32, 119
6, 324720, Note_off_c, 3, 32, 80
6, 326400, Note_on_c, 3, 32, 111
6, 326640, Note_off_c, 3, 32, 80
6, 326880, Note_on_c, 3, 32, 111
6, 327120, Note_off_c, 3, 32, 80
6, 327840, Note_on_c, 3, 32, 111
6, 328080, Note_off_c, 3, 32, 80
6, 328320, Note_on_c, 3, 32, 103
6, 328560, Note_off_c, 3, 32, 80
6, 330240, Note_on_c, 3, 32, 95
6, 330480, Note_off_c, 3, 32, 80
6, 330720, Note_on_c, 3, 32, 95
6, 330960, Note_off_c, 3, 32, 80
6, 331680, Note_on_c, 3, 32, 95
6, 331920, Note_off_c, 3, 32, 80
6, 332160, Note_on_c, 3, 32, 87
6, 332400, Note_off_c, 3, 32, 80
6, 334080, Note_on_c, 3, 32, 79
6, 334320, Note_off_c, 3, 32, 80
6, 334560, Note_on_c, 3, 32, 79
6, 334800, Note_off_c, 3, 32, 80
6, 335520, Note_on_c, 3, 32, 79
6, 335760, Note_off_c, 3, 32, 80
6, 336000, Note_on_c, 3, 32, 71
6, 336240, Note_off_c, 3, 32, 80
6, 337920, Note_on_c, 3, 32, 63
6, 338160, Note_off_c, 3, 32, 80
6, 338400, Note_on_c, 3, 32, 63
6, 338640, Note_off_c, 3, 32, 80
6, 339360, Note_on_c, 3, 32, 63
6, 339600, Note_off_c, 3, 32, 80
6, 339840, Note_on_c, 3, 32, 55
6, 340080, Note_off_c, 3, 32, 80
6, 341760, Note_on_c, 3, 32, 47
6, 342000, Note_off_c, 3, 32, 80
6, 342240, Note_on_c, 3, 32, 47
6, 342480, Note_off_c, 3, 32, 80
6, 343200, Note_on_c, 3, 32, 47
6, 343440, Note_off_c, 3, 32, 80
6, 343680, Note_on_c, 3, 32, 39
6, 343920, Note_off_c, 3, 32, 80
6, 345600, Note_on_c, 3, 32, 31
6, 345840, Note_off_c, 3, 32, 80
6, 346080, Note_on_c, 3, 32, 31
6, 346320, Note_off_c, 3, 32, 80
6, 347040, Note_on_c, 3, 32, 31
6, 347280, Note_off_c, 3, 32, 80
6, 347520, Note_on_c, 3, 32, 23
6, 347760, Note_off_c, 3, 32, 80
6, 349440, Note_on_c, 3, 32, 15
6, 349680, Note_off_c, 3, 32, 80
6, 349920, Note_on_c, 3, 32, 15
6, 350160, Note_off_c, 3, 32, 80
6, 350880, Note_on_c, 3, 32, 15
6, 351120, Note_off_c, 3, 32, 80
6, 351360, Note_on_c, 3, 32, 7
6, 351600, Note_off_c, 3, 32, 80
6, 351600, End_track
7, 0, Start_track
7, 0, Title_t, "Timps"
7, 0, MIDI_port, 0
7, 0, Channel_prefix, 4
7, 0, Control_c, 4, 7, 109
7, 0, Control_c, 4, 10, 64
7, 0, Control_c, 4, 91, 0
7, 0, Control_c, 4, 93, 0
7, 0, Program_c, 4, 47
7, 15360, Note_on_c, 4, 44, 127
7, 16800, Note_off_c, 4, 44, 80
7, 16800, Note_on_c, 4, 39, 127
7, 17280, Note_off_c, 4, 39, 80
7, 17280, Note_on_c, 4, 44, 127
7, 19200, Note_off_c, 4, 44, 80
7, 23040, Note_on_c, 4, 44, 127
7, 24480, Note_off_c, 4, 44, 80
7, 24480, Note_on_c, 4, 39, 127
7, 24960, Note_off_c, 4, 39, 80
7, 24960, Note_on_c, 4, 44, 127
7, 26880, Note_off_c, 4, 44, 80
7, 30720, Note_on_c, 4, 44, 127
7, 32160, Note_off_c, 4, 44, 80
7, 32160, Note_on_c, 4, 39, 127
7, 32640, Note_off_c, 4, 39, 80
7, 32640, Note_on_c, 4, 44, 127
7, 34560, Note_off_c, 4, 44, 80
7, 38400, Note_on_c, 4, 44, 127
7, 39840, Note_off_c, 4, 44, 80
7, 39840, Note_on_c, 4, 39, 127
7, 40320, Note_off_c, 4, 39, 80
7, 40320, Note_on_c, 4, 44, 127
7, 42240, Note_off_c, 4, 44, 80
7, 107520, Note_on_c, 4, 44, 127
7, 108960, Note_off_c, 4, 44, 80
7, 108960, Note_on_c, 4, 39, 127
7, 109440, Note_off_c, 4, 39, 80
7, 109440, Note_on_c, 4, 44, 127
7, 111360, Note_off_c, 4, 44, 80
7, 115200, Note_on_c, 4, 44, 127
7, 116640, Note_off_c, 4, 44, 80
7, 116640, Note_on_c, 4, 39, 127
7, 117120, Note_off_c, 4, 39, 80
7, 117120, Note_on_c, 4, 44, 127
7, 119040, Note_off_c, 4, 44, 80
7, 122880, Note_on_c, 4, 44, 127
7, 124320, Note_off_c, 4, 44, 80
7, 124320, Note_on_c, 4, 39, 127
7, 124800, Note_off_c, 4, 39, 80
7, 124800, Note_on_c, 4, 44, 127
7, 126720, Note_off_c, 4, 44, 80
7, 130560, Note_on_c, 4, 44, 127
7, 132000, Note_off_c, 4, 44, 80
7, 132000, Note_on_c, 4, 39, 127
7, 132480, Note_off_c, 4, 39, 80
7, 132480, Note_on_c, 4, 44, 127
7, 134400, Note_off_c, 4, 44, 80
7, 199680, Note_on_c, 4, 44, 127
7, 201120, Note_off_c, 4, 44, 80
7, 201120, Note_on_c, 4, 39, 127
7, 201600, Note_off_c, 4, 39, 80
7, 201600, Note_on_c, 4, 44, 127
7, 203520, Note_off_c, 4, 44, 80
7, 207360, Note_on_c, 4, 44, 127
7, 208800, Note_off_c, 4, 44, 80
7, 208800, Note_on_c, 4, 39, 127
7, 209280, Note_off_c, 4, 39, 80
7, 209280, Note_on_c, 4, 44, 127
7, 211200, Note_off_c, 4, 44, 80
7, 215040, Note_on_c, 4, 44, 127
7, 216480, Note_off_c, 4, 44, 80
7, 216480, Note_on_c, 4, 39, 127
7, 216960, Note_off_c, 4, 39, 80
7, 216960, Note_on_c, 4, 44, 127
7, 218880, Note_off_c, 4, 44, 80
7, 222720, Note_on_c, 4, 44, 127
7, 224160, Note_off_c, 4, 44, 80
7, 224160, Note_on_c, 4, 39, 127
7, 224640, Note_off_c, 4, 39, 80
7, 224640, Note_on_c, 4, 44, 127
7, 226560, Note_off_c, 4, 44, 80
7, 261120, Note_on_c, 4, 44, 127
7, 262560, Note_off_c, 4, 44, 80
7, 262560, Note_on_c, 4, 39, 127
7, 263040, Note_off_c, 4, 39, 80
7, 263040, Note_on_c, 4, 44, 127
7, 264960, Note_off_c, 4, 44, 80
7, 268800, Note_on_c, 4, 44, 127
7, 270240, Note_off_c, 4, 44, 80
7, 270240, Note_on_c, 4, 39, 127
7, 270720, Note_off_c, 4, 39, 80
7, 270720, Note_on_c, 4, 44, 127
7, 272640, Note_off_c, 4, 44, 80
7, 276480, Note_on_c, 4, 44, 127
7, 277920, Note_off_c, 4, 44, 80
7, 277920, Note_on_c, 4, 39, 127
7, 278400, Note_off_c, 4, 39, 80
7, 278400, Note_on_c, 4, 44, 127
7, 280320, Note_off_c, 4, 44, 80
7, 284160, Note_on_c, 4, 44, 127
7, 285600, Note_off_c, 4, 44, 80
7, 285600, Note_on_c, 4, 39, 127
7, 286080, Note_off_c, 4, 39, 80
7, 286080, Note_on_c, 4, 44, 127
7, 288000, Note_off_c, 4, 44, 80
7, 291840, Note_on_c, 4, 44, 127
7, 293280, Note_off_c, 4, 44, 80
7, 293280, Note_on_c, 4, 39, 127
7, 293760, Note_off_c, 4, 39, 80
7, 293760, Note_on_c, 4, 44, 127
7, 295680, Note_off_c, 4, 44, 80
7, 299520, Note_on_c, 4, 44, 127
7, 300960, Note_off_c, 4, 44, 80
7, 300960, Note_on_c, 4, 39, 127
7, 301440, Note_off_c, 4, 39, 80
7, 301440, Note_on_c, 4, 44, 127
7, 303360, Note_off_c, 4, 44, 80
7, 307200, Note_on_c, 4, 44, 127
7, 308640, Note_off_c, 4, 44, 80
7, 308640, Note_on_c, 4, 39, 127
7, 309120, Note_off_c, 4, 39, 80
7, 309120, Note_on_c, 4, 44, 127
7, 311040, Note_off_c, 4, 44, 80
7, 314880, Note_on_c, 4, 44, 127
7, 316320, Note_off_c, 4, 44, 80
7, 316320, Note_on_c, 4, 39, 127
7, 316800, Note_off_c, 4, 39, 80
7, 316800, Note_on_c, 4, 44, 127
7, 318720, Note_off_c, 4, 44, 80
7, 322560, Note_on_c, 4, 44, 127
7, 324000, Note_off_c, 4, 44, 80
7, 324000, Note_on_c, 4, 39, 127
7, 324480, Note_off_c, 4, 39, 80
7, 324480, Note_on_c, 4, 44, 119
7, 326400, Note_off_c, 4, 44, 80
7, 330240, Note_on_c, 4, 44, 95
7, 331680, Note_off_c, 4, 44, 80
7, 331680, Note_on_c, 4, 39, 95
7, 332160, Note_off_c, 4, 39, 80
7, 332160, Note_on_c, 4, 44, 87
7, 334080, Note_off_c, 4, 44, 80
7, 337920, Note_on_c, 4, 44, 63
7, 339360, Note_off_c, 4, 44, 80
7, 339360, Note_on_c, 4, 39, 63
7, 339840, Note_off_c, 4, 39, 80
7, 339840, Note_on_c, 4, 44, 55
7, 341760, Note_off_c, 4, 44, 80
7, 345600, Note_on_c, 4, 44, 31
7, 347040, Note_off_c, 4, 44, 80
7, 347040, Note_on_c, 4, 39, 31
7, 347520, Note_off_c, 4, 39, 80
7, 347520, Note_on_c, 4, 44, 23
7, 349440, Note_off_c, 4, 44, 80
7, 349440, End_track
8, 0, Start_track
8, 0, Title_t, "Vibes"
8, 0, MIDI_port, 0
8, 0, Channel_prefix, 5
8, 0, Control_c, 5, 7, 69
8, 0, Control_c, 5, 10, 64
8, 0, Control_c, 5, 91, 0
8, 0, Control_c, 5, 93, 0
8, 0, Program_c, 5, 11
8, 16320, Note_on_c, 5, 92, 127
8, 18120, Note_off_c, 5, 92, 80
8, 18240, Note_on_c, 5, 90, 127
8, 20040, Note_off_c, 5, 90, 80
8, 20160, Note_on_c, 5, 88, 127
8, 21960, Note_off_c, 5, 88, 80
8, 22080, Note_on_c, 5, 87, 127
8, 23880, Note_off_c, 5, 87, 80
8, 24000, Note_on_c, 5, 92, 127
8, 25800, Note_off_c, 5, 92, 80
8, 25920, Note_on_c, 5, 90, 127
8, 27720, Note_off_c, 5, 90, 80
8, 27840, Note_on_c, 5, 88, 127
8, 29640, Note_off_c, 5, 88, 80
8, 29760, Note_on_c, 5, 87, 127
8, 31560, Note_off_c, 5, 87, 80
8, 31680, Note_on_c, 5, 92, 127
8, 33480, Note_off_c, 5, 92, 80
8, 33600, Note_on_c, 5, 90, 127
8, 35400, Note_off_c, 5, 90, 80
8, 35520, Note_on_c, 5, 88, 127
8, 37320, Note_off_c, 5, 88, 80
8, 37440, Note_on_c, 5, 87, 127
8, 39240, Note_off_c, 5, 87, 80
8, 39360, Note_on_c, 5, 92, 127
8, 41160, Note_off_c, 5, 92, 80
8, 41280, Note_on_c, 5, 90, 127
8, 43080, Note_off_c, 5, 90, 80
8, 43200, Note_on_c, 5, 88, 127
8, 45000, Note_off_c, 5, 88, 80
8, 45120, Note_on_c, 5, 87, 127
8, 46920, Note_off_c, 5, 87, 80
8, 108480, Note_on_c, 5, 92, 127
8, 110280, Note_off_c, 5, 92, 80
8, 110400, Note_on_c, 5, 90, 127
8, 112200, Note_off_c, 5, 90, 80
8, 112320, Note_on_c, 5, 88, 127
8, 114120, Note_off_c, 5, 88, 80
8, 114240, Note_on_c, 5, 87, 127
8, 116040, Note_off_c, 5, 87, 80
8, 116160, Note_on_c, 5, 92, 127
8, 117960, Note_off_c, 5, 92, 80
8, 118080, Note_on_c, 5, 90, 127
8, 119880, Note_off_c, 5, 90, 80
8, 120000, Note_on_c, 5, 88, 127
8, 121800, Note_off_c, 5, 88, 80
8, 121920, Note_on_c, 5, 87, 127
8, 123720, Note_off_c, 5, 87, 80
8, 123840, Note_on_c, 5, 92, 127
8, 125640, Note_off_c, 5, 92, 80
8, 125760, Note_on_c, 5, 90, 127
8, 127560, Note_off_c, 5, 90, 80
8, 127680, Note_on_c, 5, 88, 127
8, 129480, Note_off_c, 5, 88, 80
8, 129600, Note_on_c, 5, 87, 127
8, 131400, Note_off_c, 5, 87, 80
8, 131520, Note_on_c, 5, 92, 127
8, 133320, Note_off_c, 5, 92, 80
8, 133440, Note_on_c, 5, 90, 127
8, 135240, Note_off_c, 5, 90, 80
8, 135360, Note_on_c, 5, 88, 127
8, 137160, Note_off_c, 5, 88, 80
8, 137280, Note_on_c, 5, 87, 127
8, 139080, Note_off_c, 5, 87, 80
8, 200640, Note_on_c, 5, 92, 127
8, 202440, Note_off_c, 5, 92, 80
8, 202560, Note_on_c, 5, 90, 127
8, 204360, Note_off_c, 5, 90, 80
8, 204480, Note_on_c, 5, 88, 127
8, 206280, Note_off_c, 5, 88, 80
8, 206400, Note_on_c, 5, 87, 127
8, 208200, Note_off_c, 5, 87, 80
8, 208320, Note_on_c, 5, 92, 127
8, 210120, Note_off_c, 5, 92, 80
8, 210240, Note_on_c, 5, 90, 127
8, 212040, Note_off_c, 5, 90, 80
8, 212160, Note_on_c, 5, 88, 127
8, 213960, Note_off_c, 5, 88, 80
8, 214080, Note_on_c, 5, 87, 127
8, 215880, Note_off_c, 5, 87, 80
8, 216000, Note_on_c, 5, 92, 127
8, 217800, Note_off_c, 5, 92, 80
8, 217920, Note_on_c, 5, 90, 127
8, 219720, Note_off_c, 5, 90, 80
8, 219840, Note_on_c, 5, 88, 127
8, 221640, Note_off_c, 5, 88, 80
8, 221760, Note_on_c, 5, 87, 127
8, 223560, Note_off_c, 5, 87, 80
8, 223680, Note_on_c, 5, 92, 127
8, 225480, Note_off_c, 5, 92, 80
8, 225600, Note_on_c, 5, 90, 127
8, 227400, Note_off_c, 5, 90, 80
8, 227520, Note_on_c, 5, 88, 127
8, 229320, Note_off_c, 5, 88, 80
8, 229440, Note_on_c, 5, 87, 127
8, 231240, Note_off_c, 5, 87, 80
8, 231360, Note_on_c, 5, 92, 127
8, 233160, Note_off_c, 5, 92, 80
8, 233280, Note_on_c, 5, 90, 127
8, 235080, Note_off_c, 5, 90, 80
8, 235200, Note_on_c, 5, 88, 127
8, 237000, Note_off_c, 5, 88, 80
8, 237120, Note_on_c, 5, 87, 127
8, 238920, Note_off_c, 5, 87, 80
8, 239040, Note_on_c, 5, 92, 127
8, 240840, Note_off_c, 5, 92, 80
8, 240960, Note_on_c, 5, 90, 127
8, 242760, Note_off_c, 5, 90, 80
8, 242880, Note_on_c, 5, 88, 127
8, 244680, Note_off_c, 5, 88, 80
8, 244800, Note_on_c, 5, 87, 127
8, 246600, Note_off_c, 5, 87, 80
8, 246720, Note_on_c, 5, 92, 127
8, 248520, Note_off_c, 5, 92, 80
8, 248640, Note_on_c, 5, 90, 127
8, 250440, Note_off_c, 5, 90, 80
8, 250560, Note_on_c, 5, 88, 127
8, 252360, Note_off_c, 5, 88, 80
8, 252480, Note_on_c, 5, 87, 127
8, 254280, Note_off_c, 5, 87, 80
8, 254400, Note_on_c, 5, 92, 127
8, 256200, Note_off_c, 5, 92, 80
8, 256320, Note_on_c, 5, 90, 127
8, 258120, Note_off_c, 5, 90, 80
8, 258240, Note_on_c, 5, 88, 127
8, 260040, Note_off_c, 5, 88, 80
8, 260160, Note_on_c, 5, 87, 127
8, 261960, Note_off_c, 5, 87, 80
8, 262080, Note_on_c, 5, 92, 127
8, 263880, Note_off_c, 5, 92, 80
8, 264000, Note_on_c, 5, 90, 127
8, 265800, Note_off_c, 5, 90, 80
8, 265920, Note_on_c, 5, 88, 127
8, 267720, Note_off_c, 5, 88, 80
8, 267840, Note_on_c, 5, 87, 127
8, 269640, Note_off_c, 5, 87, 80
8, 269760, Note_on_c, 5, 92, 127
8, 271560, Note_off_c, 5, 92, 80
8, 271680, Note_on_c, 5, 90, 127
8, 273480, Note_off_c, 5, 90, 80
8, 273600, Note_on_c, 5, 88, 127
8, 275400, Note_off_c, 5, 88, 80
8, 275520, Note_on_c, 5, 87, 127
8, 277320, Note_off_c, 5, 87, 80
8, 277440, Note_on_c, 5, 92, 127
8, 279240, Note_off_c, 5, 92, 80
8, 279360, Note_on_c, 5, 90, 127
8, 281160, Note_off_c, 5, 90, 80
8, 281280, Note_on_c, 5, 88, 127
8, 283080, Note_off_c, 5, 88, 80
8, 283200, Note_on_c, 5, 87, 127
8, 285000, Note_off_c, 5, 87, 80
8, 285120, Note_on_c, 5, 92, 127
8, 286920, Note_off_c, 5, 92, 80
8, 287040, Note_on_c, 5, 90, 127
8, 288840, Note_off_c, 5, 90, 80
8, 288960, Note_on_c, 5, 88, 127
8, 290760, Note_off_c, 5, 88, 80
8, 290880, Note_on_c, 5, 87, 127
8, 292680, Note_off_c, 5, 87, 80
8, 292800, Note_on_c, 5, 92, 127
8, 294600, Note_off_c, 5, 92, 80
8, 294720, Note_on_c, 5, 90, 127
8, 296520, Note_off_c, 5, 90, 80
8, 296640, Note_on_c, 5, 88, 127
8, 298440, Note_off_c, 5, 88, 80
8, 298560, Note_on_c, 5, 87, 127
8, 300360, Note_off_c, 5, 87, 80
8, 300480, Note_on_c, 5, 92, 127
8, 302280, Note_off_c, 5, 92, 80
8, 302400, Note_on_c, 5, 90, 127
8, 304200, Note_off_c, 5, 90, 80
8, 304320, Note_on_c, 5, 88, 127
8, 306120, Note_off_c, 5, 88, 80
8, 306240, Note_on_c, 5, 87, 127
8, 308040, Note_off_c, 5, 87, 80
8, 308160, Note_on_c, 5, 92, 127
8, 309960, Note_off_c, 5, 92, 80
8, 310080, Note_on_c, 5, 90, 127
8, 311880, Note_off_c, 5, 90, 80
8, 312000, Note_on_c, 5, 88, 127
8, 313800, Note_off_c, 5, 88, 80
8, 313920, Note_on_c, 5, 87, 127
8, 315720, Note_off_c, 5, 87, 80
8, 315840, Note_on_c, 5, 92, 127
8, 317640, Note_off_c, 5, 92, 80
8, 317760, Note_on_c, 5, 90, 127
8, 319560, Note_off_c, 5, 90, 80
8, 319680, Note_on_c, 5, 88, 127
8, 321480, Note_off_c, 5, 88, 80
8, 321600, Note_on_c, 5, 87, 127
8, 323400, Note_off_c, 5, 87, 80
8, 323520, Note_on_c, 5, 92, 127
8, 325320, Note_off_c, 5, 92, 80
8, 325440, Note_on_c, 5, 90, 119
8, 327240, Note_off_c, 5, 90, 80
8, 327360, Note_on_c, 5, 88, 111
8, 329160, Note_off_c, 5, 88, 80
8, 329280, Note_on_c, 5, 87, 103
8, 331080, Note_off_c, 5, 87, 80
8, 331200, Note_on_c, 5, 92, 95
8, 333000, Note_off_c, 5, 92, 80
8, 333120, Note_on_c, 5, 90, 87
8, 334920, Note_off_c, 5, 90, 80
8, 335040, Note_on_c, 5, 88, 79
8, 336840, Note_off_c, 5, 88, 80
8, 336960, Note_on_c, 5, 87, 71
8, 338760, Note_off_c, 5, 87, 80
8, 338880, Note_on_c, 5, 92, 63
8, 340680, Note_off_c, 5, 92, 80
8, 340800, Note_on_c, 5, 90, 55
8, 342600, Note_off_c, 5, 90, 80
8, 342720, Note_on_c, 5, 88, 47
8, 344520, Note_off_c, 5, 88, 80
8, 344640, Note_on_c, 5, 87, 39
8, 346440, Note_off_c, 5, 87, 80
8, 346560, Note_on_c, 5, 92, 31
8, 348360, Note_off_c, 5, 92, 80
8, 348480, Note_on_c, 5, 90, 23
8, 350280, Note_off_c, 5, 90, 80
8, 350400, Note_on_c, 5, 88, 15
8, 352200, Note_off_c, 5, 88, 80
8, 352320, Note_on_c, 5, 87, 7
8, 354120, Note_off_c, 5, 87, 80
8, 354120, End_track
9, 0, Start_track
9, 0, Title_t, "**********"
9, 0, MIDI_port, 0
9, 0, End_track
10, 0, Start_track
10, 0, Title_t, "Destiny's Child"
10, 0, MIDI_port, 0
10, 0, End_track
11, 0, Start_track
11, 0, Title_t, "Bug a Boo"
11, 0, MIDI_port, 0
11, 0, End_track
12, 0, Start_track
12, 0, Title_t, "**********"
12, 0, MIDI_port, 0
12, 0, End_track
13, 0, Start_track
13, 0, Title_t, "MIDIfied by DaveBulow"
13, 0, MIDI_port, 0
13, 0, End_track
14, 0, Start_track
14, 0, Title_t, "**********"
14, 0, MIDI_port, 0
14, 0, End_track
15, 0, Start_track
15, 0, Title_t, "visit FreshMIDIs"
15, 0, MIDI_port, 0
15, 0, End_track
16, 0, Start_track
16, 0, Title_t, "www.freshmidis.com"
16, 0, MIDI_port, 0
16, 0, End_track
17, 0, Start_track
17, 0, Title_t, "**********"
17, 0, MIDI_port, 0
17, 0, End_track
18, 0, Start_track
18, 0, Title_t, "davebulow@email.com"
18, 0, MIDI_port, 0
18, 0, End_track
0, 0, End_of_file
