0, 0, Header, 0, 1, 96
1, 0, Start_track
1, 0, MIDI_port, 0
1, 0, System_exclusive, 5, 126, 127, 9, 1, 247
1, 0, MIDI_port, 0
1, 0, Time_signature, 4, 2, 24, 8
1, 0, Key_signature, 1, "major"
1, 0, Tempo, 555556
1, 0, Marker_t, "BURN DOWN THE MISSION           ;Elton John / Bernie Taupin"
1, 0, Marker_t, "(C) 1994 Tune 1000 Corporation  ;1970, Songs of Polygram International, Inc."
1, 0, Lyric_t, "ALL rights reserved. Not for broadcast or "
1, 0, Lyric_t, ""
1, 0, Lyric_t, "\015"
1, 0, Lyric_t, "transmission of any kind. "
1, 0, Lyric_t, ""
1, 0, Lyric_t, "\015"
1, 0, Lyric_t, "DO NOT DUPLICATE. NOT FOR RENTAL. "
1, 0, Lyric_t, ""
1, 0, Lyric_t, "\015"
1, 98, Program_c, 0, 0
1, 99, Control_c, 0, 7, 105
1, 99, Control_c, 0, 10, 64
1, 99, Control_c, 0, 11, 127
1, 100, Control_c, 0, 91, 70
1, 100, Control_c, 0, 93, 10
1, 103, Program_c, 1, 35
1, 104, Control_c, 1, 7, 105
1, 104, Control_c, 1, 11, 127
1, 104, Control_c, 1, 10, 64
1, 105, Control_c, 1, 91, 0
1, 105, Control_c, 1, 93, 20
1, 108, Program_c, 2, 17
1, 109, Control_c, 2, 11, 127
1, 109, Control_c, 2, 10, 80
1, 109, Control_c, 2, 7, 92
1, 110, Control_c, 2, 91, 90
1, 110, Control_c, 2, 93, 60
1, 113, Program_c, 3, 26
1, 114, Control_c, 3, 7, 105
1, 114, Control_c, 3, 11, 127
1, 114, Control_c, 3, 10, 64
1, 115, Control_c, 3, 93, 30
1, 115, Control_c, 3, 91, 50
1, 118, Program_c, 4, 25
1, 119, Control_c, 4, 11, 127
1, 119, Control_c, 4, 10, 100
1, 119, Control_c, 4, 7, 93
1, 120, Control_c, 4, 91, 80
1, 120, Control_c, 4, 93, 50
1, 123, Program_c, 5, 56
1, 124, Control_c, 5, 11, 127
1, 124, Control_c, 5, 7, 105
1, 124, Control_c, 5, 10, 64
1, 125, Control_c, 5, 93, 40
1, 125, Control_c, 5, 91, 70
1, 128, Program_c, 6, 57
1, 129, Control_c, 6, 11, 127
1, 129, Control_c, 6, 7, 105
1, 129, Control_c, 6, 10, 64
1, 130, Control_c, 6, 93, 40
1, 130, Control_c, 6, 91, 70
1, 133, Program_c, 7, 60
1, 134, Control_c, 7, 11, 127
1, 134, Control_c, 7, 10, 64
1, 134, Control_c, 7, 7, 105
1, 135, Control_c, 7, 93, 40
1, 135, Control_c, 7, 91, 70
1, 138, Program_c, 8, 48
1, 139, Control_c, 8, 11, 42
1, 139, Control_c, 8, 7, 100
1, 139, Control_c, 8, 10, 64
1, 140, Control_c, 8, 93, 60
1, 140, Control_c, 8, 91, 80
1, 144, Control_c, 9, 11, 127
1, 144, Control_c, 9, 7, 105
1, 145, Control_c, 9, 93, 0
1, 145, Control_c, 9, 91, 60
1, 148, Program_c, 10, 35
1, 149, Control_c, 10, 11, 127
1, 149, Control_c, 10, 10, 100
1, 149, Control_c, 10, 7, 105
1, 150, Control_c, 10, 93, 0
1, 150, Control_c, 10, 91, 80
1, 726, Note_on_c, 0, 67, 47
1, 727, Pitch_bend_c, 0, 8192
1, 727, Control_c, 0, 1, 0
1, 739, Note_on_c, 0, 71, 68
1, 754, Note_on_c, 0, 74, 74
1, 767, Note_on_c, 0, 79, 88
1, 767, Note_on_c, 0, 62, 73
1, 768, Note_on_c, 0, 55, 62
1, 768, Note_on_c, 0, 59, 78
1, 953, Note_on_c, 0, 79, 0
1, 954, Note_on_c, 0, 79, 88
1, 955, Note_on_c, 0, 67, 0
1, 956, Note_on_c, 0, 67, 92
1, 959, Note_on_c, 0, 59, 0
1, 960, Note_on_c, 0, 59, 83
1, 1052, Note_on_c, 0, 81, 88
1, 1054, Note_on_c, 0, 69, 92
1, 1057, Note_on_c, 0, 59, 0
1, 1058, Note_on_c, 0, 59, 82
1, 1151, Note_on_c, 0, 62, 0
1, 1151, Note_on_c, 0, 55, 0
1, 1151, Note_on_c, 0, 74, 0
1, 1152, Note_on_c, 0, 62, 82
1, 1152, Note_on_c, 0, 52, 82
1, 1152, Note_on_c, 0, 55, 66
1, 1152, Note_on_c, 0, 74, 97
1, 1153, Note_on_c, 0, 59, 0
1, 1154, Note_on_c, 0, 69, 0
1, 1154, Note_on_c, 0, 81, 0
1, 1154, Note_on_c, 0, 67, 0
1, 1154, Note_on_c, 0, 71, 0
1, 1154, Note_on_c, 0, 79, 0
1, 1154, Note_on_c, 0, 59, 85
1, 1343, Note_on_c, 0, 74, 0
1, 1343, Note_on_c, 0, 62, 0
1, 1344, Note_on_c, 0, 62, 85
1, 1344, Note_on_c, 0, 74, 94
1, 1345, Note_on_c, 0, 55, 0
1, 1346, Note_on_c, 0, 59, 0
1, 1346, Note_on_c, 0, 55, 66
1, 1347, Note_on_c, 0, 59, 82
1, 1441, Note_on_c, 0, 64, 70
1, 1441, Note_on_c, 0, 76, 92
1, 1537, Note_on_c, 0, 55, 0
1, 1537, Note_on_c, 0, 62, 0
1, 1537, Note_on_c, 0, 65, 71
1, 1538, Note_on_c, 0, 74, 0
1, 1538, Note_on_c, 0, 64, 0
1, 1538, Note_on_c, 0, 59, 0
1, 1538, Note_on_c, 0, 52, 0
1, 1538, Note_on_c, 0, 76, 0
1, 1538, Note_on_c, 0, 48, 76
1, 1538, Note_on_c, 0, 36, 75
1, 1538, Note_on_c, 0, 58, 59
1, 1538, Note_on_c, 0, 55, 60
1, 1538, Note_on_c, 0, 62, 72
1, 1726, Note_on_c, 0, 65, 0
1, 1727, Note_on_c, 0, 55, 0
1, 1727, Note_on_c, 0, 58, 0
1, 1727, Note_on_c, 0, 62, 0
1, 1727, Note_on_c, 0, 65, 68
1, 1728, Note_on_c, 0, 58, 65
1, 1728, Note_on_c, 0, 62, 70
1, 1728, Note_on_c, 0, 55, 64
1, 1888, Note_on_c, 0, 48, 0
1, 1889, Note_on_c, 0, 48, 80
1, 1907, Note_on_c, 0, 65, 0
1, 1907, Note_on_c, 0, 62, 0
1, 1907, Note_on_c, 0, 58, 0
1, 1907, Note_on_c, 0, 36, 0
1, 1907, Note_on_c, 0, 55, 0
1, 1918, Note_on_c, 0, 36, 70
1, 1919, Note_on_c, 0, 55, 67
1, 1919, Note_on_c, 0, 62, 75
1, 1919, Note_on_c, 0, 65, 74
1, 1919, Note_on_c, 0, 58, 69
1, 2077, Note_on_c, 0, 36, 0
1, 2077, Note_on_c, 0, 48, 0
1, 2078, Note_on_c, 0, 48, 70
1, 2078, Note_on_c, 0, 36, 67
1, 2108, Note_on_c, 0, 36, 0
1, 2108, Note_on_c, 0, 48, 0
1, 2109, Note_on_c, 0, 48, 79
1, 2109, Note_on_c, 0, 36, 66
1, 2205, Note_on_c, 0, 36, 0
1, 2205, Note_on_c, 0, 58, 0
1, 2205, Note_on_c, 0, 65, 0
1, 2205, Note_on_c, 0, 62, 0
1, 2205, Note_on_c, 0, 48, 0
1, 2205, Note_on_c, 0, 55, 0
1, 2206, Note_on_c, 0, 36, 73
1, 2206, Note_on_c, 0, 62, 69
1, 2206, Note_on_c, 0, 65, 75
1, 2206, Note_on_c, 0, 55, 74
1, 2206, Note_on_c, 0, 48, 79
1, 2206, Note_on_c, 0, 58, 56
1, 2290, Note_on_c, 0, 67, 72
1, 2298, Note_on_c, 0, 71, 67
1, 2301, Note_on_c, 0, 55, 0
1, 2302, Note_on_c, 0, 74, 85
1, 2302, Note_on_c, 0, 55, 72
1, 2303, Note_on_c, 0, 62, 0
1, 2304, Note_on_c, 0, 59, 75
1, 2304, Note_on_c, 0, 62, 64
1, 2306, Note_on_c, 0, 36, 0
1, 2306, Note_on_c, 0, 48, 0
1, 2306, Note_on_c, 0, 58, 0
1, 2306, Note_on_c, 0, 65, 0
1, 2311, Note_on_c, 0, 79, 81
1, 2365, Note_on_c, 0, 67, 0
1, 2366, Note_on_c, 0, 67, 54
1, 2368, Note_on_c, 0, 71, 0
1, 2369, Note_on_c, 0, 59, 0
1, 2369, Note_on_c, 0, 71, 75
1, 2370, Note_on_c, 0, 59, 68
1, 2461, Note_on_c, 0, 67, 0
1, 2462, Note_on_c, 0, 59, 0
1, 2462, Note_on_c, 0, 67, 65
1, 2463, Note_on_c, 0, 59, 67
1, 2494, Note_on_c, 0, 79, 0
1, 2494, Note_on_c, 0, 71, 0
1, 2495, Note_on_c, 0, 62, 0
1, 2495, Note_on_c, 0, 79, 76
1, 2495, Note_on_c, 0, 71, 76
1, 2496, Note_on_c, 0, 62, 76
1, 2497, Note_on_c, 0, 74, 0
1, 2497, Note_on_c, 0, 59, 0
1, 2498, Note_on_c, 0, 74, 76
1, 2498, Note_on_c, 0, 59, 76
1, 2557, Note_on_c, 0, 67, 0
1, 2558, Note_on_c, 0, 67, 64
1, 2592, Note_on_c, 0, 59, 0
1, 2592, Note_on_c, 0, 69, 86
1, 2592, Note_on_c, 0, 81, 86
1, 2593, Note_on_c, 0, 59, 86
1, 2685, Note_on_c, 0, 74, 0
1, 2686, Note_on_c, 0, 55, 0
1, 2686, Note_on_c, 0, 62, 0
1, 2686, Note_on_c, 0, 74, 85
1, 2687, Note_on_c, 0, 59, 0
1, 2687, Note_on_c, 0, 52, 85
1, 2687, Note_on_c, 0, 55, 85
1, 2687, Note_on_c, 0, 62, 85
1, 2688, Note_on_c, 0, 59, 85
1, 2689, Note_on_c, 0, 69, 0
1, 2689, Note_on_c, 0, 81, 0
1, 2689, Note_on_c, 0, 79, 0
1, 2689, Note_on_c, 0, 71, 0
1, 2689, Note_on_c, 0, 67, 0
1, 2782, Note_on_c, 0, 62, 0
1, 2783, Note_on_c, 0, 62, 51
1, 2845, Note_on_c, 0, 55, 0
1, 2846, Note_on_c, 0, 55, 64
1, 2878, Note_on_c, 0, 62, 0
1, 2879, Note_on_c, 0, 62, 85
1, 2941, Note_on_c, 0, 59, 0
1, 2942, Note_on_c, 0, 67, 79
1, 2942, Note_on_c, 0, 59, 72
1, 2974, Note_on_c, 0, 76, 95
1, 2974, Note_on_c, 0, 64, 95
1, 3069, Note_on_c, 0, 55, 0
1, 3070, Note_on_c, 0, 62, 0
1, 3070, Note_on_c, 0, 55, 76
1, 3070, Note_on_c, 0, 65, 76
1, 3070, Note_on_c, 0, 58, 76
1, 3071, Note_on_c, 0, 59, 0
1, 3071, Note_on_c, 0, 74, 0
1, 3071, Note_on_c, 0, 64, 0
1, 3071, Note_on_c, 0, 67, 0
1, 3071, Note_on_c, 0, 52, 0
1, 3071, Note_on_c, 0, 76, 0
1, 3071, Note_on_c, 0, 48, 76
1, 3071, Note_on_c, 0, 62, 76
1, 3071, Note_on_c, 0, 36, 76
1, 3230, Note_on_c, 0, 48, 0
1, 3231, Note_on_c, 0, 48, 61
1, 3264, Note_on_c, 0, 58, 0
1, 3264, Note_on_c, 0, 55, 0
1, 3264, Note_on_c, 0, 65, 0
1, 3265, Note_on_c, 0, 62, 0
1, 3265, Note_on_c, 0, 58, 77
1, 3265, Note_on_c, 0, 55, 85
1, 3265, Note_on_c, 0, 65, 80
1, 3266, Note_on_c, 0, 62, 82
1, 3418, Note_on_c, 0, 48, 0
1, 3419, Note_on_c, 0, 48, 77
1, 3422, Lyric_t, ""
1, 3422, Lyric_t, "\015"
1, 3453, Note_on_c, 0, 58, 0
1, 3453, Note_on_c, 0, 65, 0
1, 3453, Note_on_c, 0, 55, 0
1, 3453, Note_on_c, 0, 36, 0
1, 3453, Note_on_c, 0, 62, 0
1, 3454, Note_on_c, 0, 55, 75
1, 3454, Note_on_c, 0, 62, 77
1, 3454, Note_on_c, 0, 65, 86
1, 3454, Note_on_c, 0, 36, 79
1, 3454, Note_on_c, 0, 58, 63
1, 3609, Note_on_c, 0, 36, 0
1, 3610, Note_on_c, 0, 36, 73
1, 3647, Note_on_c, 0, 48, 0
1, 3648, Note_on_c, 0, 48, 86
1, 3698, Note_on_c, 0, 62, 0
1, 3698, Note_on_c, 0, 55, 0
1, 3698, Note_on_c, 0, 65, 0
1, 3698, Note_on_c, 0, 58, 0
1, 3710, Note_on_c, 0, 65, 84
1, 3710, Note_on_c, 0, 62, 84
1, 3710, Note_on_c, 0, 58, 84
1, 3710, Note_on_c, 0, 55, 84
1, 3806, Note_on_c, 3, 55, 76
1, 3806, Lyric_t, "You "
1, 3807, Pitch_bend_c, 3, 8192
1, 3807, Control_c, 3, 1, 0
1, 3835, Note_on_c, 0, 55, 0
1, 3835, Note_on_c, 0, 62, 0
1, 3835, Note_on_c, 0, 36, 0
1, 3835, Note_on_c, 0, 65, 0
1, 3835, Note_on_c, 0, 48, 0
1, 3835, Note_on_c, 0, 58, 0
1, 3838, Note_on_c, 3, 55, 0
1, 3840, Tempo, 500000
1, 3840, Note_on_c, 0, 69, 88
1, 3840, Note_on_c, 0, 74, 86
1, 3840, Note_on_c, 0, 55, 83
1, 3840, Note_on_c, 0, 62, 87
1, 3840, Note_on_c, 0, 43, 70
1, 3841, Note_on_c, 3, 59, 85
1, 3841, Lyric_t, "tell "
1, 3843, Note_on_c, 0, 71, 89
1, 3904, Note_on_c, 3, 59, 0
1, 3905, Lyric_t, "me "
1, 3905, Note_on_c, 3, 62, 82
1, 4027, Note_on_c, 0, 74, 0
1, 4028, Note_on_c, 0, 74, 89
1, 4029, Note_on_c, 0, 62, 0
1, 4029, Note_on_c, 0, 71, 0
1, 4030, Note_on_c, 0, 62, 82
1, 4030, Note_on_c, 0, 67, 92
1, 4030, Note_on_c, 0, 71, 87
1, 4034, Note_on_c, 3, 62, 0
1, 4034, Note_on_c, 3, 64, 81
1, 4034, Lyric_t, "there's "
1, 4128, Note_on_c, 3, 64, 0
1, 4129, Lyric_t, "an "
1, 4129, Note_on_c, 3, 67, 79
1, 4205, Note_on_c, 3, 67, 0
1, 4218, Note_on_c, 0, 76, 70
1, 4219, Note_on_c, 0, 71, 0
1, 4219, Note_on_c, 0, 67, 0
1, 4220, Note_on_c, 0, 71, 93
1, 4220, Note_on_c, 0, 40, 68
1, 4220, Note_on_c, 0, 67, 82
1, 4221, Note_on_c, 0, 62, 0
1, 4222, Note_on_c, 0, 62, 72
1, 4222, Note_on_c, 0, 52, 72
1, 4223, Note_on_c, 0, 69, 0
1, 4223, Note_on_c, 0, 55, 0
1, 4223, Note_on_c, 0, 43, 0
1, 4223, Note_on_c, 0, 74, 0
1, 4225, Note_on_c, 3, 67, 85
1, 4225, Lyric_t, "an"
1, 4279, Note_on_c, 3, 67, 0
1, 4288, Note_on_c, 3, 64, 73
1, 4288, Lyric_t, "gel "
1, 4403, Note_on_c, 3, 64, 0
1, 4411, Note_on_c, 0, 71, 0
1, 4411, Note_on_c, 0, 67, 0
1, 4411, Note_on_c, 0, 62, 0
1, 4411, Note_on_c, 0, 76, 0
1, 4412, Note_on_c, 0, 71, 89
1, 4412, Note_on_c, 0, 67, 86
1, 4412, Note_on_c, 0, 62, 83
1, 4412, Note_on_c, 0, 76, 80
1, 4480, Note_on_c, 3, 59, 83
1, 4480, Lyric_t, "in "
1, 4514, Note_on_c, 3, 59, 0
1, 4546, Note_on_c, 3, 55, 74
1, 4546, Lyric_t, "your "
1, 4576, Note_on_c, 3, 55, 0
1, 4606, Note_on_c, 0, 58, 68
1, 4606, Note_on_c, 0, 65, 72
1, 4606, Note_on_c, 0, 36, 53
1, 4607, Note_on_c, 0, 62, 0
1, 4608, Note_on_c, 0, 62, 78
1, 4608, Note_on_c, 0, 55, 71
1, 4608, Note_on_c, 0, 48, 71
1, 4609, Lyric_t, ""
1, 4609, Lyric_t, "\015"
1, 4609, Note_on_c, 3, 57, 79
1, 4609, Lyric_t, "tree, "
1, 4610, Note_on_c, 0, 67, 0
1, 4610, Note_on_c, 0, 52, 0
1, 4610, Note_on_c, 0, 71, 0
1, 4610, Note_on_c, 0, 76, 0
1, 4610, Note_on_c, 0, 40, 0
1, 4710, Note_on_c, 3, 57, 0
1, 4738, Note_on_c, 3, 57, 80
1, 4762, Pitch_bend_c, 3, 8712
1, 4764, Pitch_bend_c, 3, 9102
1, 4766, Pitch_bend_c, 3, 9492
1, 4768, Pitch_bend_c, 3, 10012
1, 4770, Pitch_bend_c, 3, 10142
1, 4772, Pitch_bend_c, 3, 10662
1, 4774, Pitch_bend_c, 3, 10792
1, 4779, Pitch_bend_c, 3, 10532
1, 4782, Pitch_bend_c, 3, 8192
1, 4793, Note_on_c, 0, 58, 0
1, 4794, Note_on_c, 0, 58, 67
1, 4795, Note_on_c, 0, 62, 0
1, 4795, Note_on_c, 0, 65, 0
1, 4796, Note_on_c, 0, 65, 70
1, 4796, Note_on_c, 0, 62, 81
1, 4797, Note_on_c, 0, 55, 0
1, 4798, Note_on_c, 0, 55, 64
1, 4803, Note_on_c, 3, 57, 0
1, 4804, Note_on_c, 3, 55, 79
1, 4957, Note_on_c, 0, 36, 0
1, 4958, Note_on_c, 0, 36, 74
1, 4989, Note_on_c, 0, 48, 0
1, 4990, Note_on_c, 0, 48, 82
1, 5035, Note_on_c, 0, 55, 0
1, 5035, Note_on_c, 0, 62, 0
1, 5035, Note_on_c, 0, 58, 0
1, 5035, Note_on_c, 0, 65, 0
1, 5054, Note_on_c, 0, 58, 84
1, 5054, Note_on_c, 0, 62, 87
1, 5054, Note_on_c, 0, 55, 82
1, 5054, Note_on_c, 0, 65, 82
1, 5182, Note_on_c, 0, 48, 0
1, 5183, Note_on_c, 0, 48, 78
1, 5231, Note_on_c, 0, 55, 0
1, 5231, Note_on_c, 0, 62, 0
1, 5231, Note_on_c, 0, 36, 0
1, 5231, Note_on_c, 0, 58, 0
1, 5231, Note_on_c, 0, 65, 0
1, 5242, Note_on_c, 3, 55, 0
1, 5246, Note_on_c, 0, 55, 79
1, 5246, Note_on_c, 0, 36, 76
1, 5246, Note_on_c, 0, 65, 82
1, 5246, Note_on_c, 0, 62, 89
1, 5246, Note_on_c, 0, 58, 76
1, 5373, Note_on_c, 0, 58, 0
1, 5373, Note_on_c, 0, 55, 0
1, 5373, Note_on_c, 0, 36, 0
1, 5373, Note_on_c, 0, 48, 0
1, 5373, Note_on_c, 0, 62, 0
1, 5373, Note_on_c, 0, 65, 0
1, 5373, Note_on_c, 0, 51, 86
1, 5373, Note_on_c, 0, 39, 81
1, 5373, Note_on_c, 0, 67, 72
1, 5374, Note_on_c, 0, 58, 76
1, 5374, Note_on_c, 0, 63, 77
1, 5472, Note_on_c, 3, 63, 94
1, 5472, Lyric_t, "did "
1, 5522, Note_on_c, 3, 63, 0
1, 5534, Note_on_c, 3, 63, 81
1, 5534, Lyric_t, "he "
1, 5561, Note_on_c, 0, 67, 0
1, 5562, Note_on_c, 0, 67, 82
1, 5563, Note_on_c, 0, 63, 0
1, 5563, Note_on_c, 0, 58, 0
1, 5563, Note_on_c, 0, 51, 0
1, 5564, Note_on_c, 0, 51, 68
1, 5564, Note_on_c, 0, 63, 87
1, 5564, Note_on_c, 0, 58, 77
1, 5566, Note_on_c, 3, 63, 0
1, 5567, Lyric_t, "say "
1, 5567, Note_on_c, 3, 65, 86
1, 5661, Note_on_c, 3, 65, 0
1, 5662, Note_on_c, 3, 67, 85
1, 5662, Lyric_t, "he'd "
1, 5756, Note_on_c, 0, 38, 66
1, 5757, Note_on_c, 0, 58, 0
1, 5757, Note_on_c, 0, 63, 0
1, 5757, Note_on_c, 0, 39, 0
1, 5757, Note_on_c, 0, 51, 0
1, 5757, Note_on_c, 0, 67, 0
1, 5758, Note_on_c, 0, 67, 90
1, 5758, Note_on_c, 0, 62, 79
1, 5758, Note_on_c, 0, 50, 87
1, 5759, Note_on_c, 3, 67, 0
1, 5760, Note_on_c, 0, 59, 82
1, 5760, Note_on_c, 3, 62, 85
1, 5760, Lyric_t, "come "
1, 5915, Note_on_c, 3, 62, 0
1, 5922, Note_on_c, 3, 59, 72
1, 5922, Lyric_t, "to "
1, 5949, Note_on_c, 0, 50, 0
1, 5950, Note_on_c, 3, 59, 0
1, 5950, Note_on_c, 0, 50, 81
1, 5951, Note_on_c, 0, 62, 0
1, 5951, Note_on_c, 0, 59, 0
1, 5951, Note_on_c, 0, 67, 0
1, 5952, Lyric_t, "call "
1, 5952, Note_on_c, 3, 64, 88
1, 5952, Note_on_c, 0, 59, 82
1, 5952, Note_on_c, 0, 62, 85
1, 5952, Note_on_c, 0, 67, 83
1, 6047, Note_on_c, 3, 64, 0
1, 6048, Lyric_t, "on "
1, 6048, Note_on_c, 3, 67, 80
1, 6084, Note_on_c, 3, 67, 0
1, 6141, Note_on_c, 0, 67, 0
1, 6141, Note_on_c, 0, 59, 0
1, 6141, Note_on_c, 0, 50, 0
1, 6141, Note_on_c, 0, 38, 0
1, 6141, Note_on_c, 0, 62, 0
1, 6143, Lyric_t, ""
1, 6143, Lyric_t, "\015"
1, 6143, Note_on_c, 3, 64, 86
1, 6143, Lyric_t, "me? "
1, 6144, Note_on_c, 0, 49, 74
1, 6144, Note_on_c, 0, 37, 63
1, 6146, Note_on_c, 0, 64, 82
1, 6146, Note_on_c, 0, 67, 80
1, 6146, Note_on_c, 0, 57, 75
1, 6176, Pitch_bend_c, 3, 7808
1, 6178, Pitch_bend_c, 3, 7424
1, 6180, Pitch_bend_c, 3, 7168
1, 6182, Pitch_bend_c, 3, 6528
1, 6184, Pitch_bend_c, 3, 6144
1, 6186, Pitch_bend_c, 3, 5888
1, 6188, Pitch_bend_c, 3, 5760
1, 6190, Pitch_bend_c, 3, 5376
1, 6192, Pitch_bend_c, 3, 5120
1, 6199, Pitch_bend_c, 3, 5632
1, 6202, Pitch_bend_c, 3, 8192
1, 6273, Note_on_c, 3, 64, 0
1, 6274, Note_on_c, 3, 57, 75
1, 6288, Pitch_bend_c, 3, 8972
1, 6290, Note_on_c, 0, 37, 0
1, 6290, Pitch_bend_c, 3, 9492
1, 6291, Note_on_c, 0, 37, 49
1, 6291, Pitch_bend_c, 3, 10402
1, 6294, Pitch_bend_c, 3, 11312
1, 6295, Pitch_bend_c, 3, 11962
1, 6298, Pitch_bend_c, 3, 12482
1, 6299, Pitch_bend_c, 3, 12612
1, 6301, Pitch_bend_c, 3, 13132
1, 6303, Pitch_bend_c, 3, 13262
1, 6305, Pitch_bend_c, 3, 13392
1, 6309, Pitch_bend_c, 3, 12612
1, 6310, Pitch_bend_c, 3, 9882
1, 6313, Pitch_bend_c, 3, 8192
1, 6335, Note_on_c, 0, 49, 0
1, 6336, Note_on_c, 0, 49, 68
1, 6338, Note_on_c, 3, 57, 0
1, 6338, Note_on_c, 3, 55, 78
1, 6397, Note_on_c, 0, 57, 0
1, 6397, Note_on_c, 0, 64, 0
1, 6397, Note_on_c, 0, 67, 0
1, 6398, Note_on_c, 0, 64, 87
1, 6398, Note_on_c, 0, 57, 94
1, 6398, Note_on_c, 0, 67, 82
1, 6525, Note_on_c, 0, 67, 0
1, 6525, Note_on_c, 0, 57, 0
1, 6526, Note_on_c, 0, 50, 76
1, 6526, Note_on_c, 0, 67, 89
1, 6526, Note_on_c, 0, 38, 75
1, 6526, Note_on_c, 0, 62, 80
1, 6526, Note_on_c, 0, 57, 78
1, 6527, Note_on_c, 0, 37, 0
1, 6527, Note_on_c, 0, 64, 0
1, 6527, Note_on_c, 0, 49, 0
1, 6590, Lyric_t, ""
1, 6590, Lyric_t, "\015"
1, 6709, Note_on_c, 3, 55, 0
1, 6721, Note_on_c, 0, 50, 0
1, 6722, Note_on_c, 0, 50, 83
1, 6773, Note_on_c, 0, 38, 0
1, 6773, Note_on_c, 0, 67, 0
1, 6773, Note_on_c, 0, 57, 0
1, 6773, Note_on_c, 0, 62, 0
1, 6779, Note_on_c, 0, 38, 73
1, 6781, Note_on_c, 0, 60, 93
1, 6781, Note_on_c, 0, 57, 93
1, 6781, Note_on_c, 0, 67, 93
1, 6878, Note_on_c, 0, 57, 0
1, 6879, Note_on_c, 0, 57, 61
1, 6912, Note_on_c, 2, 79, 33
1, 6912, Note_on_c, 2, 74, 33
1, 6913, Note_on_c, 0, 57, 0
1, 6913, Note_on_c, 0, 60, 0
1, 6913, Note_on_c, 0, 50, 0
1, 6913, Note_on_c, 0, 67, 0
1, 6913, Note_on_c, 0, 38, 0
1, 6913, Control_c, 2, 1, 0
1, 6913, Note_on_c, 2, 71, 33
1, 6913, Pitch_bend_c, 2, 8192
1, 6914, Note_on_c, 0, 67, 82
1, 6914, Note_on_c, 0, 43, 81
1, 6914, Note_on_c, 0, 59, 93
1, 6915, Note_on_c, 0, 62, 94
1, 6974, Note_on_c, 3, 55, 78
1, 6974, Lyric_t, "For "
1, 7004, Note_on_c, 3, 55, 0
1, 7007, Lyric_t, "things "
1, 7007, Note_on_c, 3, 59, 83
1, 7070, Note_on_c, 3, 59, 0
1, 7070, Note_on_c, 3, 62, 84
1, 7070, Lyric_t, "are "
1, 7105, Note_on_c, 3, 62, 0
1, 7106, Lyric_t, "get"
1, 7106, Note_on_c, 3, 64, 85
1, 7110, Note_on_c, 0, 67, 0
1, 7111, Note_on_c, 0, 74, 93
1, 7111, Note_on_c, 0, 71, 93
1, 7111, Note_on_c, 0, 31, 93
1, 7111, Note_on_c, 0, 67, 93
1, 7113, Note_on_c, 0, 62, 0
1, 7113, Note_on_c, 0, 59, 0
1, 7125, Note_on_c, 0, 67, 0
1, 7136, Note_on_c, 0, 67, 55
1, 7168, Note_on_c, 3, 64, 0
1, 7169, Lyric_t, "tin' "
1, 7169, Note_on_c, 3, 67, 80
1, 7225, Note_on_c, 3, 67, 0
1, 7293, Note_on_c, 0, 67, 0
1, 7294, Note_on_c, 0, 40, 70
1, 7294, Note_on_c, 0, 62, 83
1, 7294, Lyric_t, "des"
1, 7294, Note_on_c, 3, 67, 84
1, 7294, Note_on_c, 0, 67, 77
1, 7295, Note_on_c, 0, 59, 68
1, 7298, Note_on_c, 0, 43, 0
1, 7298, Note_on_c, 0, 74, 0
1, 7298, Note_on_c, 0, 71, 0
1, 7298, Note_on_c, 0, 31, 0
1, 7353, Note_on_c, 3, 67, 0
1, 7354, Note_on_c, 3, 62, 70
1, 7354, Lyric_t, "per"
1, 7360, Note_on_c, 3, 62, 0
1, 7361, Note_on_c, 3, 64, 82
1, 7361, Lyric_t, "ate "
1, 7481, Note_on_c, 0, 62, 0
1, 7481, Note_on_c, 0, 67, 0
1, 7481, Note_on_c, 0, 59, 0
1, 7482, Note_on_c, 0, 67, 82
1, 7482, Note_on_c, 0, 62, 82
1, 7482, Note_on_c, 0, 59, 82
1, 7529, Note_on_c, 3, 64, 0
1, 7573, Note_on_c, 0, 40, 0
1, 7574, Note_on_c, 0, 40, 56
1, 7582, Lyric_t, "in "
1, 7582, Note_on_c, 3, 59, 80
1, 7609, Note_on_c, 3, 59, 0
1, 7612, Note_on_c, 3, 57, 76
1, 7612, Lyric_t, "our "
1, 7662, Note_on_c, 3, 57, 0
1, 7674, Note_on_c, 0, 36, 67
1, 7675, Note_on_c, 0, 62, 0
1, 7676, Note_on_c, 0, 65, 75
1, 7676, Note_on_c, 0, 58, 69
1, 7676, Note_on_c, 0, 55, 68
1, 7676, Note_on_c, 0, 62, 79
1, 7676, Note_on_c, 0, 48, 75
1, 7679, Note_on_c, 2, 74, 0
1, 7679, Note_on_c, 3, 57, 84
1, 7679, Lyric_t, "home, "
1, 7679, Lyric_t, ""
1, 7679, Lyric_t, "\015"
1, 7680, Note_on_c, 2, 77, 31
1, 7680, Note_on_c, 2, 74, 31
1, 7681, Note_on_c, 2, 70, 31
1, 7681, Note_on_c, 2, 67, 31
1, 7685, Note_on_c, 0, 59, 0
1, 7685, Note_on_c, 0, 67, 0
1, 7685, Note_on_c, 0, 40, 0
1, 7686, Note_on_c, 2, 79, 0
1, 7686, Note_on_c, 2, 71, 0
1, 7774, Note_on_c, 3, 57, 0
1, 7806, Note_on_c, 3, 57, 79
1, 7822, Pitch_bend_c, 3, 8322
1, 7824, Pitch_bend_c, 3, 8712
1, 7826, Pitch_bend_c, 3, 9362
1, 7827, Pitch_bend_c, 3, 9752
1, 7830, Pitch_bend_c, 3, 10012
1, 7831, Pitch_bend_c, 3, 10402
1, 7834, Pitch_bend_c, 3, 10662
1, 7837, Pitch_bend_c, 3, 10532
1, 7839, Pitch_bend_c, 3, 9362
1, 7841, Pitch_bend_c, 3, 8192
1, 7871, Note_on_c, 0, 58, 0
1, 7872, Note_on_c, 0, 55, 0
1, 7872, Note_on_c, 3, 57, 0
1, 7872, Note_on_c, 0, 65, 0
1, 7872, Note_on_c, 0, 62, 0
1, 7872, Note_on_c, 0, 48, 0
1, 7872, Note_on_c, 0, 58, 67
1, 7873, Note_on_c, 0, 48, 87
1, 7873, Note_on_c, 0, 62, 76
1, 7873, Note_on_c, 0, 55, 70
1, 7873, Note_on_c, 0, 65, 67
1, 7873, Note_on_c, 3, 55, 81
1, 8029, Note_on_c, 0, 48, 0
1, 8030, Note_on_c, 0, 48, 75
1, 8062, Note_on_c, 0, 36, 0
1, 8063, Note_on_c, 0, 36, 72
1, 8125, Note_on_c, 0, 65, 0
1, 8125, Note_on_c, 0, 62, 0
1, 8125, Note_on_c, 0, 55, 0
1, 8125, Note_on_c, 0, 58, 0
1, 8126, Note_on_c, 0, 62, 76
1, 8126, Note_on_c, 0, 65, 78
1, 8126, Note_on_c, 0, 58, 81
1, 8126, Note_on_c, 0, 55, 83
1, 8228, Note_on_c, 3, 55, 0
1, 8254, Note_on_c, 0, 48, 0
1, 8255, Note_on_c, 0, 48, 85
1, 8258, Lyric_t, "liv"
1, 8258, Note_on_c, 3, 58, 84
1, 8315, Note_on_c, 3, 58, 0
1, 8315, Note_on_c, 0, 55, 0
1, 8315, Note_on_c, 0, 48, 0
1, 8315, Note_on_c, 0, 65, 0
1, 8316, Note_on_c, 0, 65, 89
1, 8316, Note_on_c, 0, 48, 88
1, 8316, Note_on_c, 0, 55, 86
1, 8317, Note_on_c, 0, 62, 0
1, 8318, Note_on_c, 0, 62, 61
1, 8319, Lyric_t, "in' "
1, 8319, Note_on_c, 3, 57, 82
1, 8348, Note_on_c, 0, 58, 0
1, 8349, Note_on_c, 0, 58, 53
1, 8354, Note_on_c, 3, 57, 0
1, 8354, Note_on_c, 3, 55, 78
1, 8354, Lyric_t, "in "
1, 8412, Note_on_c, 3, 55, 0
1, 8414, Note_on_c, 0, 57, 70
1, 8415, Lyric_t, "the "
1, 8415, Note_on_c, 3, 57, 79
1, 8445, Note_on_c, 0, 58, 0
1, 8446, Note_on_c, 2, 70, 0
1, 8446, Note_on_c, 0, 58, 81
1, 8446, Note_on_c, 0, 67, 79
1, 8446, Note_on_c, 0, 64, 78
1, 8446, Note_on_c, 0, 37, 76
1, 8446, Note_on_c, 0, 49, 86
1, 8446, Note_on_c, 0, 61, 83
1, 8447, Note_on_c, 2, 73, 30
1, 8447, Note_on_c, 2, 70, 30
1, 8447, Note_on_c, 2, 76, 30
1, 8448, Note_on_c, 2, 79, 30
1, 8449, Note_on_c, 0, 62, 0
1, 8449, Note_on_c, 0, 57, 0
1, 8449, Note_on_c, 0, 48, 0
1, 8449, Note_on_c, 0, 65, 0
1, 8449, Note_on_c, 0, 36, 0
1, 8449, Note_on_c, 0, 55, 0
1, 8449, Note_on_c, 3, 57, 0
1, 8450, Lyric_t, "par"
1, 8450, Note_on_c, 3, 59, 85
1, 8454, Note_on_c, 2, 74, 0
1, 8454, Note_on_c, 2, 77, 0
1, 8454, Note_on_c, 2, 67, 0
1, 8479, Note_on_c, 3, 59, 0
1, 8480, Lyric_t, "ish "
1, 8480, Note_on_c, 3, 62, 72
1, 8512, Note_on_c, 3, 62, 0
1, 8513, Note_on_c, 3, 64, 80
1, 8570, Note_on_c, 3, 64, 0
1, 8629, Note_on_c, 0, 67, 0
1, 8630, Note_on_c, 0, 67, 75
1, 8631, Note_on_c, 0, 61, 0
1, 8631, Note_on_c, 0, 58, 0
1, 8631, Note_on_c, 0, 49, 0
1, 8631, Note_on_c, 0, 64, 0
1, 8632, Note_on_c, 0, 61, 81
1, 8632, Note_on_c, 0, 64, 94
1, 8632, Note_on_c, 0, 58, 89
1, 8632, Note_on_c, 0, 49, 91
1, 8734, Note_on_c, 3, 55, 79
1, 8734, Lyric_t, "of "
1, 8784, Note_on_c, 3, 55, 0
1, 8798, Lyric_t, "the "
1, 8798, Note_on_c, 3, 55, 78
1, 8825, Note_on_c, 0, 67, 0
1, 8826, Note_on_c, 0, 38, 75
1, 8826, Note_on_c, 0, 67, 88
1, 8828, Note_on_c, 0, 59, 81
1, 8828, Note_on_c, 0, 50, 81
1, 8828, Note_on_c, 0, 62, 81
1, 8829, Note_on_c, 3, 55, 0
1, 8830, Lyric_t, "rest"
1, 8830, Note_on_c, 3, 64, 81
1, 8831, Note_on_c, 0, 49, 0
1, 8831, Note_on_c, 0, 64, 0
1, 8831, Note_on_c, 0, 37, 0
1, 8831, Note_on_c, 2, 70, 0
1, 8831, Note_on_c, 0, 58, 0
1, 8831, Note_on_c, 0, 61, 0
1, 8831, Note_on_c, 2, 76, 0
1, 8831, Note_on_c, 2, 71, 31
1, 8831, Note_on_c, 2, 74, 31
1, 8837, Note_on_c, 2, 73, 0
1, 8894, Note_on_c, 3, 64, 0
1, 8894, Note_on_c, 3, 62, 80
1, 8894, Lyric_t, "less "
1, 8978, Note_on_c, 3, 62, 0
1, 8990, Note_on_c, 3, 59, 80
1, 8990, Lyric_t, "folks "
1, 9023, Note_on_c, 0, 50, 0
1, 9023, Note_on_c, 0, 38, 0
1, 9024, Note_on_c, 0, 50, 82
1, 9024, Note_on_c, 0, 38, 80
1, 9070, Note_on_c, 3, 59, 0
1, 9077, Note_on_c, 0, 62, 0
1, 9077, Note_on_c, 0, 67, 0
1, 9077, Note_on_c, 0, 59, 0
1, 9087, Note_on_c, 0, 57, 88
1, 9087, Note_on_c, 2, 78, 30
1, 9087, Note_on_c, 0, 62, 87
1, 9087, Note_on_c, 0, 66, 81
1, 9088, Note_on_c, 2, 74, 0
1, 9088, Note_on_c, 2, 71, 0
1, 9088, Note_on_c, 2, 79, 0
1, 9089, Note_on_c, 3, 57, 81
1, 9089, Note_on_c, 2, 69, 30
1, 9089, Note_on_c, 2, 74, 30
1, 9089, Lyric_t, "I "
1, 9141, Note_on_c, 3, 57, 0
1, 9180, Note_on_c, 0, 57, 0
1, 9181, Note_on_c, 0, 57, 53
1, 9185, Lyric_t, "know. "
1, 9185, Lyric_t, ""
1, 9185, Lyric_t, "\015"
1, 9186, Note_on_c, 3, 55, 79
1, 9189, Pitch_bend_c, 3, 8582
1, 9190, Pitch_bend_c, 3, 8842
1, 9193, Pitch_bend_c, 3, 9622
1, 9194, Pitch_bend_c, 3, 10272
1, 9197, Pitch_bend_c, 3, 10792
1, 9198, Pitch_bend_c, 3, 12222
1, 9200, Pitch_bend_c, 3, 12872
1, 9202, Pitch_bend_c, 3, 14302
1, 9204, Pitch_bend_c, 3, 14952
1, 9206, Pitch_bend_c, 3, 16252
1, 9208, Pitch_bend_c, 3, 16382
1, 9214, Note_on_c, 0, 48, 82
1, 9214, Note_on_c, 0, 67, 81
1, 9214, Note_on_c, 0, 36, 75
1, 9217, Note_on_c, 0, 57, 0
1, 9217, Note_on_c, 0, 62, 0
1, 9217, Note_on_c, 0, 66, 0
1, 9217, Note_on_c, 0, 50, 0
1, 9217, Note_on_c, 0, 38, 0
1, 9217, Note_on_c, 2, 79, 34
1, 9217, Note_on_c, 2, 76, 34
1, 9217, Note_on_c, 2, 72, 34
1, 9218, Note_on_c, 0, 60, 87
1, 9218, Note_on_c, 0, 64, 82
1, 9228, Note_on_c, 2, 69, 0
1, 9228, Note_on_c, 2, 78, 0
1, 9228, Note_on_c, 2, 74, 0
1, 9311, Note_on_c, 0, 60, 0
1, 9312, Note_on_c, 0, 60, 63
1, 9353, Note_on_c, 2, 76, 0
1, 9355, Lyric_t, ""
1, 9355, Lyric_t, "\015"
1, 9357, Note_on_c, 2, 72, 0
1, 9358, Pitch_bend_c, 3, 15992
1, 9360, Pitch_bend_c, 3, 15862
1, 9362, Pitch_bend_c, 3, 15082
1, 9363, Pitch_bend_c, 3, 14302
1, 9365, Note_on_c, 0, 67, 0
1, 9366, Note_on_c, 0, 62, 83
1, 9366, Pitch_bend_c, 3, 13262
1, 9366, Note_on_c, 0, 67, 90
1, 9367, Note_on_c, 0, 47, 86
1, 9367, Note_on_c, 0, 59, 82
1, 9367, Pitch_bend_c, 3, 11702
1, 9370, Note_on_c, 0, 60, 0
1, 9370, Note_on_c, 0, 36, 0
1, 9370, Note_on_c, 0, 48, 0
1, 9370, Note_on_c, 0, 64, 0
1, 9370, Pitch_bend_c, 3, 10402
1, 9371, Pitch_bend_c, 3, 8192
1, 9374, Note_on_c, 2, 71, 32
1, 9374, Note_on_c, 2, 74, 32
1, 9465, Note_on_c, 0, 59, 0
1, 9466, Note_on_c, 0, 59, 32
1, 9491, Note_on_c, 0, 59, 0
1, 9491, Note_on_c, 0, 62, 0
1, 9491, Note_on_c, 0, 47, 0
1, 9491, Note_on_c, 0, 67, 0
1, 9499, Note_on_c, 3, 55, 0
1, 9500, Note_on_c, 0, 64, 79
1, 9500, Note_on_c, 0, 60, 88
1, 9500, Note_on_c, 0, 67, 76
1, 9500, Note_on_c, 0, 45, 82
1, 9502, Note_on_c, 0, 57, 81
1, 9503, Note_on_c, 2, 74, 0
1, 9503, Note_on_c, 2, 71, 0
1, 9503, Note_on_c, 2, 69, 31
1, 9503, Note_on_c, 2, 72, 31
1, 9635, Note_on_c, 0, 67, 0
1, 9635, Note_on_c, 0, 64, 0
1, 9635, Note_on_c, 0, 57, 0
1, 9635, Note_on_c, 0, 60, 0
1, 9635, Note_on_c, 0, 45, 0
1, 9660, Note_on_c, 0, 67, 75
1, 9660, Note_on_c, 0, 31, 82
1, 9660, Note_on_c, 0, 43, 100
1, 9661, Note_on_c, 0, 55, 66
1, 9661, Note_on_c, 0, 62, 82
1, 9661, Note_on_c, 0, 59, 83
1, 9662, Note_on_c, 2, 69, 0
1, 9663, Note_on_c, 2, 74, 31
1, 9663, Note_on_c, 2, 71, 31
1, 9668, Note_on_c, 2, 72, 0
1, 9693, Note_on_c, 0, 59, 0
1, 9694, Note_on_c, 3, 64, 86
1, 9694, Note_on_c, 0, 71, 70
1, 9694, Note_on_c, 0, 59, 78
1, 9694, Lyric_t, "Ev"
1, 9755, Note_on_c, 3, 64, 0
1, 9756, Note_on_c, 0, 74, 94
1, 9757, Note_on_c, 0, 62, 0
1, 9757, Note_on_c, 0, 43, 0
1, 9758, Note_on_c, 0, 62, 67
1, 9758, Note_on_c, 3, 62, 80
1, 9758, Lyric_t, "'ry"
1, 9758, Note_on_c, 0, 43, 71
1, 9782, Note_on_c, 3, 62, 0
1, 9789, Note_on_c, 0, 67, 0
1, 9789, Note_on_c, 0, 43, 0
1, 9790, Note_on_c, 0, 79, 110
1, 9790, Note_on_c, 0, 43, 74
1, 9790, Note_on_c, 0, 67, 108
1, 9792, Note_on_c, 3, 59, 80
1, 9792, Lyric_t, "bod"
1, 9792, Note_on_c, 1, 55, 93
1, 9793, Pitch_bend_c, 1, 8192
1, 9793, Control_c, 1, 1, 0
1, 9846, Note_on_c, 1, 55, 0
1, 9846, Note_on_c, 3, 59, 0
1, 9853, Note_on_c, 0, 43, 0
1, 9854, Note_on_c, 0, 81, 96
1, 9854, Note_on_c, 3, 57, 77
1, 9854, Note_on_c, 0, 43, 74
1, 9854, Lyric_t, "y "
1, 9854, Note_on_c, 0, 69, 96
1, 9855, Note_on_c, 1, 50, 94
1, 9886, Note_on_c, 1, 50, 0
1, 9886, Note_on_c, 3, 57, 0
1, 9886, Note_on_c, 0, 79, 0
1, 9886, Note_on_c, 0, 67, 0
1, 9887, Note_on_c, 0, 67, 108
1, 9887, Note_on_c, 3, 55, 79
1, 9887, Lyric_t, "now, "
1, 9887, Note_on_c, 0, 79, 100
1, 9887, Lyric_t, ""
1, 9887, Lyric_t, "\015"
1, 9888, Note_on_c, 1, 43, 87
1, 9895, Pitch_bend_c, 3, 8322
1, 9898, Pitch_bend_c, 3, 8972
1, 9899, Pitch_bend_c, 3, 10272
1, 9901, Pitch_bend_c, 3, 12092
1, 9903, Pitch_bend_c, 3, 13912
1, 9905, Pitch_bend_c, 3, 15342
1, 9907, Pitch_bend_c, 3, 15992
1, 9909, Pitch_bend_c, 3, 16382
1, 9939, Note_on_c, 1, 43, 0
1, 9951, Note_on_c, 1, 38, 87
1, 9955, Pitch_bend_c, 3, 16252
1, 9957, Pitch_bend_c, 3, 14302
1, 9958, Pitch_bend_c, 3, 10792
1, 9961, Pitch_bend_c, 3, 8192
1, 9972, Note_on_c, 2, 79, 0
1, 9974, Note_on_c, 2, 71, 0
1, 9975, Note_on_c, 0, 69, 0
1, 9975, Note_on_c, 0, 59, 0
1, 9975, Note_on_c, 0, 43, 0
1, 9975, Note_on_c, 0, 71, 0
1, 9975, Note_on_c, 0, 62, 0
1, 9975, Note_on_c, 0, 74, 0
1, 9975, Note_on_c, 0, 31, 0
1, 9975, Note_on_c, 0, 81, 0
1, 9975, Note_on_c, 0, 67, 0
1, 9975, Note_on_c, 0, 55, 0
1, 9975, Note_on_c, 0, 79, 0
1, 9976, Note_on_c, 2, 74, 0
1, 9978, Note_on_c, 1, 38, 0
1, 9982, Note_on_c, 2, 72, 29
1, 9983, Note_on_c, 0, 53, 99
1, 9983, Note_on_c, 0, 41, 82
1, 9983, Note_on_c, 4, 42, 20
1, 9984, Note_on_c, 0, 65, 104
1, 9984, Note_on_c, 4, 60, 78
1, 9984, Note_on_c, 4, 57, 73
1, 9984, Note_on_c, 2, 69, 29
1, 9984, Pitch_bend_c, 4, 8192
1, 9984, Note_on_c, 1, 41, 100
1, 9984, Note_on_c, 2, 65, 29
1, 9984, Control_c, 4, 1, 0
1, 9984, Note_on_c, 0, 69, 93
1, 9984, Note_on_c, 0, 72, 96
1, 9986, Note_on_c, 4, 65, 52
1, 9987, Note_on_c, 3, 55, 0
1, 10082, Note_on_c, 3, 65, 88
1, 10082, Lyric_t, "bring "
1, 10082, Control_c, 2, 11, 126
1, 10090, Control_c, 2, 11, 125
1, 10096, Control_c, 2, 11, 124
1, 10101, Control_c, 2, 11, 123
1, 10106, Control_c, 2, 11, 122
1, 10112, Control_c, 2, 11, 121
1, 10114, Control_c, 2, 11, 120
1, 10120, Control_c, 2, 11, 119
1, 10122, Control_c, 2, 11, 118
1, 10125, Control_c, 2, 11, 117
1, 10130, Control_c, 2, 11, 116
1, 10136, Control_c, 2, 11, 115
1, 10138, Note_on_c, 3, 65, 0
1, 10145, Note_on_c, 3, 65, 79
1, 10145, Lyric_t, "your "
1, 10152, Control_c, 2, 11, 113
1, 10157, Control_c, 2, 11, 112
1, 10170, Note_on_c, 3, 65, 0
1, 10173, Control_c, 2, 11, 111
1, 10174, Note_on_c, 0, 72, 0
1, 10174, Note_on_c, 1, 41, 0
1, 10174, Note_on_c, 0, 65, 0
1, 10175, Note_on_c, 0, 69, 0
1, 10175, Note_on_c, 1, 46, 76
1, 10175, Note_on_c, 0, 65, 100
1, 10175, Note_on_c, 0, 72, 96
1, 10176, Note_on_c, 0, 69, 93
1, 10178, Note_on_c, 3, 67, 78
1, 10178, Control_c, 2, 11, 110
1, 10178, Lyric_t, "fam"
1, 10183, Pitch_bend_c, 1, 8777
1, 10184, Control_c, 2, 11, 109
1, 10187, Pitch_bend_c, 1, 10883
1, 10189, Pitch_bend_c, 1, 12521
1, 10189, Control_c, 2, 11, 108
1, 10193, Pitch_bend_c, 1, 14042
1, 10194, Control_c, 2, 11, 107
1, 10195, Pitch_bend_c, 1, 15680
1, 10198, Pitch_bend_c, 1, 16383
1, 10200, Control_c, 2, 11, 106
1, 10205, Control_c, 2, 11, 104
1, 10210, Control_c, 2, 11, 103
1, 10213, Control_c, 2, 11, 102
1, 10218, Control_c, 2, 11, 101
1, 10224, Control_c, 2, 11, 100
1, 10226, Note_on_c, 4, 65, 0
1, 10230, Note_on_c, 4, 60, 0
1, 10232, Note_on_c, 4, 57, 0
1, 10233, Note_on_c, 4, 42, 0
1, 10234, Note_on_c, 4, 65, 85
1, 10236, Note_on_c, 4, 57, 73
1, 10236, Note_on_c, 4, 60, 77
1, 10238, Note_on_c, 4, 53, 51
1, 10240, Control_c, 2, 11, 99
1, 10256, Control_c, 2, 11, 98
1, 10261, Control_c, 2, 11, 97
1, 10264, Note_on_c, 4, 65, 0
1, 10264, Control_c, 2, 11, 96
1, 10266, Note_on_c, 4, 60, 0
1, 10266, Note_on_c, 4, 57, 0
1, 10267, Note_on_c, 4, 53, 0
1, 10268, Note_on_c, 4, 57, 79
1, 10268, Note_on_c, 4, 53, 56
1, 10270, Note_on_c, 4, 60, 81
1, 10270, Note_on_c, 4, 65, 48
1, 10271, Note_on_c, 0, 65, 0
1, 10272, Control_c, 2, 11, 95
1, 10272, Note_on_c, 0, 65, 43
1, 10273, Note_on_c, 3, 67, 0
1, 10274, Lyric_t, "'ly "
1, 10274, Note_on_c, 3, 69, 81
1, 10274, Control_c, 2, 11, 94
1, 10290, Control_c, 2, 11, 93
1, 10293, Control_c, 2, 11, 92
1, 10295, Note_on_c, 3, 69, 0
1, 10298, Control_c, 2, 11, 91
1, 10304, Control_c, 2, 11, 89
1, 10306, Control_c, 2, 11, 88
1, 10309, Control_c, 2, 11, 87
1, 10313, Note_on_c, 4, 65, 0
1, 10314, Control_c, 2, 11, 86
1, 10319, Note_on_c, 4, 60, 0
1, 10321, Note_on_c, 4, 57, 0
1, 10321, Note_on_c, 4, 53, 0
1, 10322, Control_c, 2, 11, 85
1, 10325, Control_c, 2, 11, 84
1, 10329, Note_on_c, 4, 64, 49
1, 10330, Control_c, 2, 11, 83
1, 10331, Note_on_c, 4, 59, 56
1, 10333, Note_on_c, 0, 53, 0
1, 10333, Note_on_c, 4, 55, 30
1, 10334, Note_on_c, 0, 53, 62
1, 10335, Note_on_c, 3, 67, 86
1, 10335, Lyric_t, "down "
1, 10336, Control_c, 2, 11, 82
1, 10338, Control_c, 2, 11, 81
1, 10339, Pitch_bend_c, 1, 16382
1, 10342, Pitch_bend_c, 1, 15914
1, 10345, Pitch_bend_c, 1, 15212
1, 10346, Control_c, 2, 11, 80
1, 10349, Pitch_bend_c, 1, 14510
1, 10352, Pitch_bend_c, 1, 13574
1, 10354, Note_on_c, 4, 55, 0
1, 10354, Control_c, 2, 11, 79
1, 10354, Pitch_bend_c, 1, 12638
1, 10357, Note_on_c, 4, 59, 0
1, 10358, Note_on_c, 4, 64, 0
1, 10358, Pitch_bend_c, 1, 11468
1, 10359, Note_on_c, 0, 41, 0
1, 10359, Note_on_c, 0, 69, 0
1, 10359, Note_on_c, 0, 53, 0
1, 10359, Note_on_c, 0, 65, 0
1, 10359, Note_on_c, 0, 72, 0
1, 10360, Pitch_bend_c, 1, 9596
1, 10360, Control_c, 2, 11, 78
1, 10364, Note_on_c, 2, 65, 0
1, 10364, Pitch_bend_c, 1, 8192
1, 10364, Note_on_c, 4, 52, 57
1, 10365, Note_on_c, 4, 48, 46
1, 10366, Note_on_c, 4, 55, 61
1, 10366, Note_on_c, 0, 48, 80
1, 10366, Note_on_c, 4, 64, 58
1, 10367, Note_on_c, 1, 46, 0
1, 10367, Note_on_c, 3, 67, 0
1, 10367, Note_on_c, 0, 64, 97
1, 10367, Note_on_c, 0, 72, 97
1, 10367, Note_on_c, 0, 67, 97
1, 10368, Note_on_c, 2, 69, 0
1, 10368, Note_on_c, 3, 65, 78
1, 10368, Note_on_c, 2, 64, 30
1, 10368, Note_on_c, 2, 67, 30
1, 10369, Note_on_c, 1, 36, 77
1, 10369, Note_on_c, 4, 60, 72
1, 10370, Control_c, 2, 11, 77
1, 10398, Note_on_c, 3, 65, 0
1, 10399, Note_on_c, 3, 64, 76
1, 10457, Note_on_c, 4, 55, 0
1, 10461, Note_on_c, 0, 64, 0
1, 10462, Note_on_c, 0, 64, 52
1, 10463, Note_on_c, 3, 64, 0
1, 10464, Lyric_t, "to "
1, 10464, Note_on_c, 3, 60, 80
1, 10492, Note_on_c, 1, 36, 0
1, 10515, Note_on_c, 3, 60, 0
1, 10526, Note_on_c, 1, 36, 66
1, 10529, Lyric_t, "the "
1, 10529, Note_on_c, 3, 60, 78
1, 10551, Note_on_c, 4, 48, 0
1, 10552, Note_on_c, 4, 60, 0
1, 10554, Note_on_c, 4, 64, 0
1, 10555, Note_on_c, 4, 52, 0
1, 10556, Note_on_c, 4, 52, 52
1, 10556, Note_on_c, 4, 55, 67
1, 10556, Note_on_c, 4, 48, 49
1, 10557, Note_on_c, 4, 60, 77
1, 10558, Note_on_c, 4, 64, 73
1, 10559, Note_on_c, 0, 48, 0
1, 10559, Note_on_c, 1, 36, 0
1, 10560, Note_on_c, 3, 60, 0
1, 10560, Note_on_c, 1, 48, 87
1, 10560, Note_on_c, 0, 48, 69
1, 10562, Note_on_c, 3, 64, 79
1, 10562, Lyric_t, "riv"
1, 10618, Note_on_c, 1, 48, 0
1, 10620, Note_on_c, 0, 72, 0
1, 10620, Note_on_c, 0, 64, 0
1, 10620, Note_on_c, 0, 67, 0
1, 10621, Note_on_c, 0, 72, 102
1, 10621, Note_on_c, 0, 67, 102
1, 10621, Note_on_c, 0, 64, 106
1, 10622, Note_on_c, 3, 64, 0
1, 10622, Note_on_c, 3, 60, 76
1, 10622, Lyric_t, "er"
1, 10623, Note_on_c, 1, 36, 72
1, 10653, Note_on_c, 0, 48, 0
1, 10654, Note_on_c, 3, 60, 0
1, 10654, Note_on_c, 0, 48, 62
1, 10657, Lyric_t, ""
1, 10657, Lyric_t, "\015"
1, 10657, Lyric_t, "side, "
1, 10657, Note_on_c, 3, 62, 81
1, 10659, Note_on_c, 1, 36, 0
1, 10702, Note_on_c, 4, 48, 0
1, 10705, Note_on_c, 4, 64, 0
1, 10706, Note_on_c, 4, 60, 0
1, 10709, Note_on_c, 4, 52, 0
1, 10713, Note_on_c, 4, 64, 42
1, 10714, Note_on_c, 4, 59, 55
1, 10717, Note_on_c, 0, 67, 0
1, 10717, Note_on_c, 4, 55, 0
1, 10718, Note_on_c, 0, 67, 71
1, 10718, Note_on_c, 4, 55, 46
1, 10719, Note_on_c, 4, 39, 20
1, 10719, Note_on_c, 1, 45, 95
1, 10734, Note_on_c, 2, 72, 0
1, 10734, Note_on_c, 2, 67, 0
1, 10740, Note_on_c, 2, 64, 0
1, 10742, Note_on_c, 4, 64, 0
1, 10743, Note_on_c, 4, 39, 0
1, 10744, Note_on_c, 4, 59, 0
1, 10747, Note_on_c, 4, 55, 0
1, 10748, Note_on_c, 1, 45, 0
1, 10748, Note_on_c, 4, 34, 20
1, 10749, Note_on_c, 0, 64, 0
1, 10749, Note_on_c, 0, 72, 0
1, 10749, Note_on_c, 0, 67, 0
1, 10749, Note_on_c, 0, 48, 0
1, 10750, Note_on_c, 0, 55, 85
1, 10750, Note_on_c, 4, 59, 61
1, 10750, Note_on_c, 0, 43, 75
1, 10750, Note_on_c, 4, 55, 61
1, 10751, Note_on_c, 0, 67, 82
1, 10751, Note_on_c, 0, 71, 96
1, 10751, Note_on_c, 0, 62, 81
1, 10752, Note_on_c, 1, 43, 92
1, 10753, Note_on_c, 4, 50, 25
1, 10755, Note_on_c, 4, 67, 63
1, 10781, Control_c, 2, 11, 127
1, 10814, Note_on_c, 3, 62, 0
1, 10814, Note_on_c, 3, 57, 80
1, 10834, Pitch_bend_c, 3, 8582
1, 10836, Note_on_c, 1, 43, 0
1, 10836, Pitch_bend_c, 3, 8842
1, 10838, Pitch_bend_c, 3, 10012
1, 10842, Pitch_bend_c, 3, 11442
1, 10844, Pitch_bend_c, 3, 11962
1, 10846, Pitch_bend_c, 3, 13132
1, 10848, Pitch_bend_c, 3, 13652
1, 10850, Pitch_bend_c, 3, 14432
1, 10851, Pitch_bend_c, 3, 15212
1, 10854, Pitch_bend_c, 3, 15472
1, 10855, Pitch_bend_c, 3, 16122
1, 10858, Pitch_bend_c, 3, 16252
1, 10869, Pitch_bend_c, 3, 15992
1, 10870, Pitch_bend_c, 3, 15342
1, 10873, Pitch_bend_c, 3, 14562
1, 10874, Pitch_bend_c, 3, 13652
1, 10877, Pitch_bend_c, 3, 12482
1, 10878, Pitch_bend_c, 3, 11442
1, 10880, Pitch_bend_c, 3, 9752
1, 10884, Pitch_bend_c, 3, 8192
1, 10894, Pitch_bend_c, 3, 8322
1, 10896, Pitch_bend_c, 3, 9622
1, 10898, Pitch_bend_c, 3, 10142
1, 10899, Pitch_bend_c, 3, 11702
1, 10902, Pitch_bend_c, 3, 13132
1, 10903, Pitch_bend_c, 3, 14432
1, 10906, Pitch_bend_c, 3, 15342
1, 10907, Pitch_bend_c, 3, 16382
1, 10909, Note_on_c, 0, 71, 0
1, 10909, Note_on_c, 0, 62, 0
1, 10909, Note_on_c, 0, 67, 0
1, 10910, Note_on_c, 0, 62, 104
1, 10910, Note_on_c, 0, 71, 99
1, 10910, Note_on_c, 0, 67, 99
1, 10911, Note_on_c, 1, 43, 96
1, 10933, Note_on_c, 1, 43, 0
1, 10939, Note_on_c, 4, 50, 0
1, 10940, Note_on_c, 4, 67, 0
1, 10941, Note_on_c, 4, 59, 0
1, 10941, Note_on_c, 4, 55, 0
1, 10943, Note_on_c, 1, 31, 65
1, 10943, Note_on_c, 4, 67, 73
1, 10943, Note_on_c, 4, 50, 27
1, 10944, Note_on_c, 4, 55, 48
1, 10945, Note_on_c, 4, 59, 62
1, 11004, Note_on_c, 0, 55, 0
1, 11005, Note_on_c, 0, 55, 69
1, 11037, Note_on_c, 0, 62, 0
1, 11037, Note_on_c, 0, 67, 0
1, 11037, Note_on_c, 0, 71, 0
1, 11038, Note_on_c, 0, 62, 92
1, 11038, Note_on_c, 0, 71, 96
1, 11038, Note_on_c, 0, 67, 94
1, 11080, Note_on_c, 4, 67, 0
1, 11084, Note_on_c, 4, 59, 0
1, 11093, Note_on_c, 1, 31, 0
1, 11102, Note_on_c, 1, 38, 84
1, 11113, Pitch_bend_c, 3, 16122
1, 11114, Pitch_bend_c, 3, 15082
1, 11116, Note_on_c, 3, 57, 0
1, 11117, Pitch_bend_c, 3, 14432
1, 11118, Pitch_bend_c, 3, 12612
1, 11120, Pitch_bend_c, 3, 11832
1, 11122, Pitch_bend_c, 3, 9752
1, 11126, Pitch_bend_c, 3, 8192
1, 11133, Note_on_c, 0, 55, 0
1, 11134, Note_on_c, 1, 38, 0
1, 11134, Note_on_c, 0, 55, 92
1, 11135, Note_on_c, 1, 43, 92
1, 11136, Lyric_t, ""
1, 11136, Lyric_t, "\015"
1, 11190, Note_on_c, 4, 55, 0
1, 11191, Note_on_c, 4, 50, 0
1, 11195, Note_on_c, 4, 67, 81
1, 11195, Note_on_c, 4, 59, 81
1, 11195, Note_on_c, 4, 55, 76
1, 11196, Note_on_c, 4, 50, 61
1, 11197, Note_on_c, 0, 55, 0
1, 11197, Note_on_c, 0, 71, 0
1, 11197, Note_on_c, 0, 67, 0
1, 11197, Note_on_c, 0, 43, 0
1, 11198, Note_on_c, 1, 43, 0
1, 11198, Note_on_c, 0, 55, 82
1, 11198, Note_on_c, 0, 43, 78
1, 11198, Note_on_c, 0, 67, 93
1, 11198, Note_on_c, 0, 71, 104
1, 11198, Note_on_c, 0, 79, 94
1, 11199, Note_on_c, 1, 38, 81
1, 11224, Note_on_c, 1, 38, 0
1, 11228, Note_on_c, 0, 55, 0
1, 11228, Note_on_c, 0, 43, 0
1, 11229, Note_on_c, 0, 55, 80
1, 11229, Note_on_c, 0, 43, 65
1, 11230, Note_on_c, 0, 81, 108
1, 11230, Note_on_c, 0, 69, 93
1, 11231, Note_on_c, 1, 31, 68
1, 11286, Note_on_c, 4, 67, 0
1, 11292, Note_on_c, 0, 43, 0
1, 11292, Note_on_c, 0, 55, 0
1, 11293, Note_on_c, 0, 71, 0
1, 11293, Note_on_c, 0, 55, 82
1, 11293, Note_on_c, 0, 43, 72
1, 11294, Note_on_c, 0, 83, 112
1, 11294, Note_on_c, 4, 53, 20
1, 11294, Note_on_c, 0, 71, 110
1, 11323, Note_on_c, 4, 53, 0
1, 11324, Note_on_c, 4, 55, 0
1, 11324, Note_on_c, 4, 59, 0
1, 11325, Note_on_c, 4, 50, 0
1, 11330, Note_on_c, 4, 50, 52
1, 11330, Note_on_c, 4, 67, 72
1, 11330, Note_on_c, 4, 55, 64
1, 11331, Note_on_c, 4, 47, 37
1, 11331, Note_on_c, 4, 59, 65
1, 11385, Note_on_c, 1, 31, 0
1, 11389, Note_on_c, 0, 55, 0
1, 11390, Note_on_c, 0, 74, 104
1, 11390, Note_on_c, 0, 55, 74
1, 11390, Note_on_c, 0, 86, 110
1, 11391, Note_on_c, 1, 38, 85
1, 11410, Note_on_c, 1, 38, 0
1, 11421, Note_on_c, 0, 55, 0
1, 11421, Note_on_c, 0, 76, 97
1, 11422, Note_on_c, 0, 55, 81
1, 11422, Note_on_c, 0, 88, 106
1, 11423, Note_on_c, 1, 43, 87
1, 11427, Note_on_c, 4, 67, 0
1, 11429, Note_on_c, 4, 67, 32
1, 11454, Note_on_c, 1, 43, 0
1, 11455, Note_on_c, 1, 38, 87
1, 11465, Note_on_c, 1, 38, 0
1, 11468, Note_on_c, 4, 50, 0
1, 11468, Note_on_c, 4, 47, 0
1, 11475, Note_on_c, 4, 67, 0
1, 11475, Note_on_c, 4, 34, 0
1, 11486, Note_on_c, 1, 31, 76
1, 11501, Note_on_c, 4, 55, 0
1, 11502, Note_on_c, 4, 59, 0
1, 11513, Note_on_c, 0, 74, 0
1, 11513, Note_on_c, 0, 71, 0
1, 11513, Note_on_c, 0, 69, 0
1, 11513, Note_on_c, 0, 83, 0
1, 11513, Note_on_c, 0, 43, 0
1, 11513, Note_on_c, 0, 86, 0
1, 11513, Note_on_c, 0, 76, 0
1, 11513, Note_on_c, 0, 88, 0
1, 11513, Note_on_c, 0, 79, 0
1, 11513, Note_on_c, 0, 67, 0
1, 11513, Note_on_c, 0, 81, 0
1, 11513, Note_on_c, 0, 62, 0
1, 11516, Note_on_c, 0, 55, 0
1, 11517, Note_on_c, 1, 31, 0
1, 11518, Note_on_c, 0, 69, 96
1, 11518, Note_on_c, 0, 53, 94
1, 11518, Note_on_c, 0, 72, 100
1, 11518, Note_on_c, 0, 65, 90
1, 11519, Note_on_c, 4, 53, 26
1, 11519, Note_on_c, 1, 29, 84
1, 11520, Lyric_t, "look "
1, 11520, Note_on_c, 3, 65, 90
1, 11522, Note_on_c, 4, 57, 69
1, 11522, Note_on_c, 4, 65, 73
1, 11522, Note_on_c, 4, 60, 70
1, 11607, Note_on_c, 4, 57, 0
1, 11612, Note_on_c, 3, 65, 0
1, 11612, Note_on_c, 0, 65, 0
1, 11613, Note_on_c, 0, 65, 46
1, 11616, Lyric_t, "to "
1, 11616, Note_on_c, 3, 65, 80
1, 11634, Note_on_c, 1, 29, 0
1, 11656, Note_on_c, 4, 65, 0
1, 11658, Note_on_c, 3, 65, 0
1, 11673, Note_on_c, 4, 51, 20
1, 11677, Note_on_c, 0, 53, 0
1, 11678, Note_on_c, 0, 53, 68
1, 11679, Note_on_c, 1, 29, 87
1, 11682, Lyric_t, "the "
1, 11682, Note_on_c, 3, 65, 90
1, 11694, Note_on_c, 1, 29, 0
1, 11702, Note_on_c, 4, 51, 0
1, 11704, Note_on_c, 4, 60, 0
1, 11706, Note_on_c, 4, 53, 0
1, 11709, Note_on_c, 0, 65, 0
1, 11709, Note_on_c, 3, 65, 0
1, 11709, Note_on_c, 0, 72, 0
1, 11709, Note_on_c, 4, 53, 49
1, 11709, Note_on_c, 4, 57, 65
1, 11710, Note_on_c, 0, 72, 108
1, 11710, Note_on_c, 0, 65, 102
1, 11711, Note_on_c, 1, 29, 92
1, 11711, Note_on_c, 4, 60, 85
1, 11711, Note_on_c, 4, 65, 71
1, 11714, Lyric_t, "east "
1, 11714, Note_on_c, 3, 67, 83
1, 11774, Note_on_c, 0, 72, 0
1, 11775, Note_on_c, 0, 72, 50
1, 11776, Note_on_c, 0, 69, 0
1, 11777, Note_on_c, 0, 69, 75
1, 11791, Note_on_c, 3, 67, 0
1, 11800, Note_on_c, 1, 29, 0
1, 11807, Note_on_c, 0, 53, 0
1, 11808, Note_on_c, 0, 53, 67
1, 11810, Note_on_c, 3, 69, 80
1, 11810, Lyric_t, "to "
1, 11814, Note_on_c, 4, 57, 0
1, 11842, Note_on_c, 1, 41, 75
1, 11858, Note_on_c, 1, 41, 0
1, 11858, Note_on_c, 3, 69, 0
1, 11858, Note_on_c, 4, 65, 0
1, 11863, Note_on_c, 4, 60, 0
1, 11864, Note_on_c, 4, 53, 0
1, 11871, Note_on_c, 3, 67, 86
1, 11871, Lyric_t, "see "
1, 11871, Lyric_t, ""
1, 11871, Lyric_t, "\015"
1, 11872, Note_on_c, 0, 65, 0
1, 11873, Note_on_c, 0, 65, 35
1, 11874, Note_on_c, 1, 41, 88
1, 11899, Note_on_c, 0, 65, 0
1, 11899, Note_on_c, 0, 72, 0
1, 11899, Note_on_c, 0, 53, 0
1, 11899, Note_on_c, 0, 69, 0
1, 11903, Note_on_c, 0, 48, 63
1, 11904, Note_on_c, 0, 64, 97
1, 11904, Note_on_c, 0, 72, 89
1, 11904, Note_on_c, 0, 67, 83
1, 11905, Note_on_c, 1, 41, 0
1, 11905, Note_on_c, 4, 55, 46
1, 11905, Note_on_c, 4, 48, 39
1, 11906, Note_on_c, 1, 36, 87
1, 11906, Note_on_c, 4, 52, 50
1, 11906, Note_on_c, 4, 60, 62
1, 11906, Note_on_c, 4, 64, 56
1, 11950, Note_on_c, 1, 36, 0
1, 11969, Note_on_c, 1, 36, 84
1, 11988, Note_on_c, 1, 36, 0
1, 11990, Note_on_c, 3, 67, 0
1, 12001, Lyric_t, "where "
1, 12001, Note_on_c, 3, 64, 84
1, 12040, Note_on_c, 4, 64, 0
1, 12050, Note_on_c, 4, 60, 0
1, 12056, Note_on_c, 4, 50, 20
1, 12062, Note_on_c, 3, 64, 0
1, 12062, Lyric_t, "the "
1, 12062, Note_on_c, 3, 60, 77
1, 12063, Note_on_c, 1, 36, 77
1, 12090, Note_on_c, 1, 36, 0
1, 12091, Note_on_c, 3, 60, 0
1, 12091, Note_on_c, 4, 48, 0
1, 12091, Note_on_c, 4, 55, 0
1, 12092, Note_on_c, 4, 52, 0
1, 12094, Note_on_c, 4, 52, 47
1, 12094, Note_on_c, 4, 48, 41
1, 12095, Note_on_c, 0, 67, 0
1, 12095, Note_on_c, 0, 48, 0
1, 12095, Note_on_c, 4, 50, 0
1, 12095, Note_on_c, 0, 72, 0
1, 12095, Note_on_c, 0, 64, 0
1, 12096, Note_on_c, 0, 48, 68
1, 12096, Note_on_c, 0, 64, 108
1, 12096, Note_on_c, 0, 67, 102
1, 12096, Note_on_c, 0, 72, 104
1, 12097, Note_on_c, 4, 55, 73
1, 12097, Note_on_c, 4, 64, 72
1, 12098, Note_on_c, 4, 60, 77
1, 12098, Lyric_t, "fat "
1, 12098, Note_on_c, 3, 64, 79
1, 12154, Note_on_c, 3, 64, 0
1, 12159, Note_on_c, 1, 36, 98
1, 12190, Note_on_c, 1, 36, 0
1, 12191, Note_on_c, 1, 35, 90
1, 12192, Note_on_c, 0, 64, 0
1, 12193, Note_on_c, 0, 64, 54
1, 12194, Lyric_t, "stock "
1, 12194, Note_on_c, 3, 64, 85
1, 12239, Note_on_c, 4, 48, 0
1, 12241, Note_on_c, 4, 60, 0
1, 12242, Note_on_c, 4, 52, 0
1, 12242, Note_on_c, 4, 64, 0
1, 12242, Note_on_c, 3, 64, 0
1, 12250, Note_on_c, 4, 55, 0
1, 12253, Note_on_c, 1, 35, 0
1, 12253, Note_on_c, 0, 48, 0
1, 12254, Note_on_c, 0, 48, 67
1, 12255, Note_on_c, 1, 36, 84
1, 12277, Note_on_c, 0, 67, 0
1, 12277, Note_on_c, 0, 72, 0
1, 12277, Note_on_c, 0, 64, 0
1, 12280, Note_on_c, 4, 34, 20
1, 12281, Note_on_c, 0, 48, 0
1, 12284, Note_on_c, 1, 36, 0
1, 12286, Note_on_c, 0, 62, 86
1, 12287, Note_on_c, 0, 59, 85
1, 12287, Note_on_c, 0, 67, 85
1, 12287, Note_on_c, 4, 50, 34
1, 12287, Note_on_c, 0, 55, 71
1, 12287, Note_on_c, 0, 43, 72
1, 12288, Note_on_c, 4, 59, 76
1, 12288, Note_on_c, 1, 31, 84
1, 12289, Note_on_c, 3, 62, 84
1, 12289, Lyric_t, ""
1, 12289, Lyric_t, "\015"
1, 12289, Lyric_t, "hide. "
1, 12290, Note_on_c, 4, 67, 79
1, 12352, Note_on_c, 3, 62, 0
1, 12354, Note_on_c, 3, 57, 77
1, 12374, Pitch_bend_c, 3, 8452
1, 12376, Pitch_bend_c, 3, 9492
1, 12378, Pitch_bend_c, 3, 10532
1, 12380, Pitch_bend_c, 3, 11702
1, 12382, Pitch_bend_c, 3, 12742
1, 12384, Pitch_bend_c, 3, 13652
1, 12386, Pitch_bend_c, 3, 14172
1, 12387, Note_on_c, 1, 31, 0
1, 12387, Pitch_bend_c, 3, 15212
1, 12390, Pitch_bend_c, 3, 15602
1, 12391, Pitch_bend_c, 3, 15992
1, 12394, Pitch_bend_c, 3, 16382
1, 12446, Note_on_c, 0, 62, 0
1, 12447, Note_on_c, 0, 62, 69
1, 12447, Note_on_c, 1, 31, 81
1, 12473, Note_on_c, 1, 31, 0
1, 12473, Note_on_c, 4, 67, 0
1, 12474, Note_on_c, 4, 59, 0
1, 12475, Note_on_c, 4, 50, 0
1, 12477, Note_on_c, 0, 55, 0
1, 12477, Note_on_c, 4, 50, 66
1, 12477, Note_on_c, 4, 47, 47
1, 12478, Note_on_c, 4, 67, 75
1, 12478, Note_on_c, 0, 55, 81
1, 12479, Note_on_c, 0, 67, 0
1, 12479, Note_on_c, 0, 59, 0
1, 12480, Note_on_c, 4, 59, 83
1, 12480, Note_on_c, 4, 55, 76
1, 12480, Note_on_c, 0, 59, 78
1, 12480, Note_on_c, 0, 67, 86
1, 12480, Note_on_c, 1, 31, 87
1, 12481, Note_on_c, 0, 62, 0
1, 12482, Note_on_c, 0, 62, 73
1, 12541, Note_on_c, 0, 62, 0
1, 12541, Note_on_c, 0, 55, 0
1, 12541, Note_on_c, 0, 43, 0
1, 12541, Note_on_c, 0, 67, 0
1, 12542, Note_on_c, 0, 55, 81
1, 12542, Note_on_c, 0, 67, 86
1, 12542, Note_on_c, 0, 43, 70
1, 12542, Note_on_c, 0, 62, 87
1, 12542, Note_on_c, 0, 71, 88
1, 12576, Note_on_c, 1, 31, 0
1, 12584, Note_on_c, 3, 57, 0
1, 12598, Pitch_bend_c, 3, 16122
1, 12601, Pitch_bend_c, 3, 15472
1, 12602, Pitch_bend_c, 3, 14562
1, 12605, Pitch_bend_c, 3, 13912
1, 12606, Pitch_bend_c, 3, 13132
1, 12608, Pitch_bend_c, 3, 12092
1, 12610, Pitch_bend_c, 3, 10922
1, 12612, Pitch_bend_c, 3, 9882
1, 12614, Pitch_bend_c, 3, 8972
1, 12616, Pitch_bend_c, 3, 8192
1, 12620, Note_on_c, 4, 67, 0
1, 12632, Note_on_c, 4, 55, 0
1, 12636, Note_on_c, 0, 71, 0
1, 12636, Note_on_c, 0, 62, 0
1, 12637, Note_on_c, 0, 55, 0
1, 12637, Note_on_c, 0, 67, 0
1, 12637, Note_on_c, 0, 74, 78
1, 12637, Note_on_c, 0, 62, 72
1, 12637, Note_on_c, 0, 71, 93
1, 12638, Note_on_c, 0, 67, 88
1, 12638, Note_on_c, 0, 55, 82
1, 12639, Note_on_c, 1, 31, 76
1, 12641, Lyric_t, ""
1, 12641, Lyric_t, "\015"
1, 12669, Note_on_c, 4, 59, 0
1, 12670, Note_on_c, 4, 59, 32
1, 12670, Note_on_c, 4, 55, 27
1, 12672, Note_on_c, 1, 31, 0
1, 12673, Note_on_c, 1, 43, 92
1, 12673, Note_on_c, 4, 53, 20
1, 12719, Note_on_c, 1, 43, 0
1, 12732, Note_on_c, 0, 74, 0
1, 12733, Note_on_c, 0, 55, 0
1, 12733, Note_on_c, 0, 67, 0
1, 12733, Note_on_c, 0, 71, 0
1, 12733, Note_on_c, 0, 74, 94
1, 12734, Note_on_c, 0, 71, 94
1, 12734, Note_on_c, 0, 55, 82
1, 12734, Note_on_c, 0, 67, 81
1, 12734, Note_on_c, 0, 79, 99
1, 12735, Note_on_c, 1, 31, 83
1, 12756, Note_on_c, 1, 31, 0
1, 12766, Note_on_c, 0, 81, 94
1, 12766, Note_on_c, 0, 69, 81
1, 12811, Note_on_c, 4, 53, 0
1, 12822, Note_on_c, 4, 47, 0
1, 12824, Note_on_c, 4, 53, 20
1, 12827, Note_on_c, 0, 71, 0
1, 12827, Note_on_c, 0, 55, 0
1, 12828, Note_on_c, 0, 83, 110
1, 12828, Note_on_c, 0, 55, 81
1, 12828, Note_on_c, 0, 71, 104
1, 12831, Note_on_c, 1, 31, 84
1, 12856, Note_on_c, 1, 31, 0
1, 12863, Note_on_c, 1, 29, 99
1, 12870, Pitch_bend_c, 1, 11000
1, 12874, Pitch_bend_c, 1, 14042
1, 12875, Pitch_bend_c, 1, 15797
1, 12879, Pitch_bend_c, 1, 16382
1, 12915, Pitch_bend_c, 1, 16265
1, 12919, Note_on_c, 4, 50, 0
1, 12919, Pitch_bend_c, 1, 15914
1, 12921, Note_on_c, 4, 55, 0
1, 12921, Note_on_c, 4, 59, 0
1, 12922, Pitch_bend_c, 1, 15446
1, 12923, Note_on_c, 4, 53, 0
1, 12924, Note_on_c, 0, 43, 0
1, 12924, Note_on_c, 0, 74, 0
1, 12924, Note_on_c, 4, 59, 81
1, 12924, Note_on_c, 4, 67, 83
1, 12925, Note_on_c, 0, 74, 110
1, 12925, Note_on_c, 0, 43, 66
1, 12925, Pitch_bend_c, 1, 14627
1, 12926, Note_on_c, 0, 86, 114
1, 12926, Note_on_c, 4, 50, 63
1, 12926, Note_on_c, 4, 55, 81
1, 12927, Pitch_bend_c, 1, 13808
1, 12931, Pitch_bend_c, 1, 12989
1, 12933, Pitch_bend_c, 1, 11936
1, 12937, Pitch_bend_c, 1, 10883
1, 12941, Pitch_bend_c, 1, 9362
1, 12942, Pitch_bend_c, 1, 8192
1, 12950, Note_on_c, 1, 29, 0
1, 12956, Pitch_bend_c, 1, 9713
1, 12957, Note_on_c, 0, 55, 0
1, 12958, Pitch_bend_c, 1, 11936
1, 12958, Note_on_c, 0, 55, 99
1, 12959, Note_on_c, 1, 29, 94
1, 12962, Pitch_bend_c, 1, 13808
1, 12963, Pitch_bend_c, 1, 15329
1, 12967, Pitch_bend_c, 1, 16383
1, 13011, Note_on_c, 4, 67, 0
1, 13013, Note_on_c, 4, 34, 0
1, 13017, Note_on_c, 4, 53, 20
1, 13023, Pitch_bend_c, 1, 16148
1, 13025, Lyric_t, "Be"
1, 13025, Pitch_bend_c, 1, 14978
1, 13025, Note_on_c, 3, 55, 78
1, 13029, Pitch_bend_c, 1, 14042
1, 13030, Pitch_bend_c, 1, 13457
1, 13033, Note_on_c, 4, 50, 0
1, 13034, Pitch_bend_c, 1, 12755
1, 13038, Pitch_bend_c, 1, 11702
1, 13040, Pitch_bend_c, 1, 10298
1, 13044, Pitch_bend_c, 1, 8192
1, 13051, Note_on_c, 0, 86, 0
1, 13051, Note_on_c, 0, 55, 0
1, 13051, Note_on_c, 0, 71, 0
1, 13051, Note_on_c, 0, 74, 0
1, 13051, Note_on_c, 0, 83, 0
1, 13051, Note_on_c, 0, 67, 0
1, 13051, Note_on_c, 0, 79, 0
1, 13051, Note_on_c, 0, 81, 0
1, 13051, Note_on_c, 0, 62, 0
1, 13051, Note_on_c, 0, 59, 0
1, 13051, Note_on_c, 0, 69, 0
1, 13051, Note_on_c, 0, 43, 0
1, 13053, Note_on_c, 1, 29, 0
1, 13053, Note_on_c, 4, 59, 0
1, 13054, Note_on_c, 4, 55, 0
1, 13054, Note_on_c, 0, 74, 92
1, 13054, Note_on_c, 0, 47, 87
1, 13054, Note_on_c, 0, 79, 82
1, 13054, Note_on_c, 0, 35, 92
1, 13054, Note_on_c, 0, 71, 87
1, 13054, Note_on_c, 0, 77, 96
1, 13055, Note_on_c, 2, 71, 47
1, 13055, Note_on_c, 2, 74, 47
1, 13055, Note_on_c, 4, 47, 31
1, 13055, Note_on_c, 2, 77, 47
1, 13055, Note_on_c, 2, 79, 47
1, 13056, Note_on_c, 3, 55, 0
1, 13056, Note_on_c, 4, 53, 0
1, 13057, Note_on_c, 4, 59, 61
1, 13058, Note_on_c, 3, 65, 89
1, 13058, Lyric_t, "hind "
1, 13058, Note_on_c, 1, 35, 97
1, 13058, Note_on_c, 4, 55, 58
1, 13059, Note_on_c, 4, 50, 38
1, 13059, Note_on_c, 4, 65, 55
1, 13118, Note_on_c, 3, 65, 0
1, 13142, Note_on_c, 4, 55, 0
1, 13152, Lyric_t, "four "
1, 13152, Note_on_c, 3, 65, 91
1, 13188, Note_on_c, 4, 65, 0
1, 13207, Note_on_c, 3, 65, 0
1, 13214, Note_on_c, 3, 67, 82
1, 13214, Lyric_t, "walls "
1, 13238, Note_on_c, 1, 35, 0
1, 13239, Note_on_c, 4, 50, 0
1, 13240, Note_on_c, 4, 47, 0
1, 13242, Note_on_c, 4, 59, 0
1, 13245, Note_on_c, 0, 47, 0
1, 13245, Note_on_c, 4, 59, 55
1, 13245, Note_on_c, 4, 47, 41
1, 13246, Note_on_c, 0, 47, 82
1, 13246, Note_on_c, 4, 65, 56
1, 13246, Note_on_c, 0, 59, 86
1, 13246, Note_on_c, 4, 55, 67
1, 13246, Note_on_c, 0, 65, 88
1, 13246, Note_on_c, 0, 67, 83
1, 13246, Note_on_c, 4, 50, 54
1, 13246, Note_on_c, 0, 62, 92
1, 13248, Note_on_c, 1, 47, 92
1, 13266, Note_on_c, 3, 67, 0
1, 13278, Note_on_c, 1, 47, 0
1, 13279, Note_on_c, 1, 43, 83
1, 13310, Note_on_c, 1, 43, 0
1, 13310, Lyric_t, "of "
1, 13310, Note_on_c, 3, 69, 89
1, 13311, Note_on_c, 1, 38, 79
1, 13340, Note_on_c, 4, 59, 0
1, 13342, Note_on_c, 1, 38, 0
1, 13342, Note_on_c, 4, 50, 0
1, 13342, Note_on_c, 0, 59, 0
1, 13342, Note_on_c, 4, 59, 57
1, 13343, Note_on_c, 1, 35, 91
1, 13343, Note_on_c, 0, 59, 63
1, 13344, Note_on_c, 3, 69, 0
1, 13354, Note_on_c, 4, 47, 0
1, 13380, Note_on_c, 4, 65, 0
1, 13383, Note_on_c, 4, 65, 44
1, 13394, Note_on_c, 1, 35, 0
1, 13395, Note_on_c, 4, 59, 0
1, 13401, Note_on_c, 4, 59, 46
1, 13405, Note_on_c, 3, 67, 94
1, 13405, Lyric_t, "stone, "
1, 13407, Note_on_c, 1, 35, 92
1, 13422, Note_on_c, 4, 59, 0
1, 13426, Note_on_c, 4, 65, 0
1, 13435, Note_on_c, 0, 77, 0
1, 13435, Note_on_c, 0, 59, 0
1, 13435, Note_on_c, 0, 74, 0
1, 13435, Note_on_c, 0, 65, 0
1, 13435, Note_on_c, 0, 71, 0
1, 13435, Note_on_c, 0, 35, 0
1, 13435, Note_on_c, 0, 79, 0
1, 13435, Note_on_c, 0, 67, 0
1, 13435, Note_on_c, 0, 47, 0
1, 13435, Note_on_c, 0, 62, 0
1, 13436, Note_on_c, 4, 55, 0
1, 13436, Note_on_c, 1, 35, 0
1, 13436, Note_on_c, 4, 48, 54
1, 13437, Note_on_c, 4, 52, 56
1, 13438, Note_on_c, 0, 60, 93
1, 13438, Note_on_c, 0, 64, 83
1, 13438, Note_on_c, 4, 55, 73
1, 13438, Note_on_c, 0, 48, 97
1, 13438, Note_on_c, 0, 36, 76
1, 13438, Note_on_c, 4, 60, 76
1, 13438, Note_on_c, 0, 67, 80
1, 13439, Note_on_c, 1, 36, 92
1, 13439, Note_on_c, 4, 67, 73
1, 13440, Note_on_c, 2, 67, 47
1, 13441, Note_on_c, 2, 72, 47
1, 13441, Note_on_c, 2, 76, 47
1, 13450, Note_on_c, 2, 71, 0
1, 13450, Note_on_c, 2, 77, 0
1, 13454, Note_on_c, 2, 74, 0
1, 13469, Note_on_c, 3, 67, 0
1, 13474, Note_on_c, 3, 64, 80
1, 13506, Note_on_c, 3, 64, 0
1, 13507, Note_on_c, 3, 62, 81
1, 13532, Note_on_c, 0, 60, 0
1, 13533, Note_on_c, 0, 60, 29
1, 13537, Note_on_c, 3, 62, 0
1, 13537, Note_on_c, 4, 60, 0
1, 13538, Note_on_c, 3, 60, 81
1, 13585, Note_on_c, 4, 67, 0
1, 13586, Note_on_c, 3, 60, 0
1, 13594, Note_on_c, 4, 53, 20
1, 13595, Note_on_c, 4, 55, 0
1, 13597, Note_on_c, 0, 48, 0
1, 13598, Note_on_c, 0, 48, 88
1, 13599, Lyric_t, "the "
1, 13599, Note_on_c, 3, 60, 80
1, 13624, Note_on_c, 3, 60, 0
1, 13626, Note_on_c, 4, 48, 0
1, 13627, Note_on_c, 1, 36, 0
1, 13627, Note_on_c, 4, 52, 0
1, 13627, Note_on_c, 4, 53, 0
1, 13631, Note_on_c, 0, 60, 0
1, 13631, Note_on_c, 0, 67, 0
1, 13631, Note_on_c, 1, 48, 98
1, 13632, Note_on_c, 0, 60, 114
1, 13632, Note_on_c, 0, 67, 92
1, 13632, Note_on_c, 4, 48, 46
1, 13632, Note_on_c, 4, 52, 61
1, 13634, Note_on_c, 4, 60, 80
1, 13634, Note_on_c, 4, 67, 72
1, 13634, Note_on_c, 4, 55, 75
1, 13636, Lyric_t, "rich "
1, 13636, Note_on_c, 3, 64, 87
1, 13662, Note_on_c, 1, 48, 0
1, 13663, Note_on_c, 1, 43, 75
1, 13687, Note_on_c, 3, 64, 0
1, 13688, Note_on_c, 1, 43, 0
1, 13693, Note_on_c, 0, 64, 0
1, 13694, Note_on_c, 0, 64, 80
1, 13695, Note_on_c, 1, 36, 87
1, 13720, Note_on_c, 1, 36, 0
1, 13725, Note_on_c, 0, 48, 0
1, 13726, Note_on_c, 0, 48, 66
1, 13727, Note_on_c, 1, 28, 89
1, 13729, Note_on_c, 3, 64, 98
1, 13729, Lyric_t, "man "
1, 13774, Note_on_c, 4, 48, 0
1, 13776, Note_on_c, 4, 67, 0
1, 13779, Note_on_c, 4, 60, 0
1, 13782, Note_on_c, 4, 52, 0
1, 13788, Note_on_c, 4, 53, 20
1, 13790, Note_on_c, 3, 64, 0
1, 13790, Note_on_c, 1, 28, 0
1, 13790, Note_on_c, 0, 59, 58
1, 13790, Note_on_c, 4, 59, 25
1, 13791, Note_on_c, 1, 29, 84
1, 13791, Note_on_c, 4, 50, 30
1, 13795, Note_on_c, 3, 60, 78
1, 13817, Note_on_c, 0, 59, 0
1, 13817, Note_on_c, 0, 67, 0
1, 13817, Note_on_c, 0, 60, 0
1, 13817, Note_on_c, 0, 48, 0
1, 13817, Note_on_c, 0, 36, 0
1, 13817, Note_on_c, 0, 64, 0
1, 13818, Note_on_c, 4, 53, 0
1, 13818, Note_on_c, 4, 55, 0
1, 13819, Note_on_c, 4, 59, 0
1, 13822, Note_on_c, 2, 67, 0
1, 13822, Note_on_c, 2, 79, 0
1, 13822, Note_on_c, 0, 43, 80
1, 13823, Note_on_c, 2, 74, 46
1, 13823, Note_on_c, 0, 55, 93
1, 13823, Note_on_c, 2, 79, 46
1, 13823, Note_on_c, 0, 67, 83
1, 13823, Note_on_c, 2, 67, 46
1, 13823, Note_on_c, 0, 62, 81
1, 13824, Note_on_c, 1, 29, 0
1, 13824, Note_on_c, 0, 59, 81
1, 13824, Note_on_c, 2, 71, 46
1, 13825, Note_on_c, 4, 55, 63
1, 13825, Note_on_c, 1, 31, 96
1, 13826, Note_on_c, 4, 43, 20
1, 13826, Note_on_c, 4, 67, 73
1, 13826, Note_on_c, 4, 59, 76
1, 13828, Note_on_c, 4, 47, 22
1, 13833, Note_on_c, 2, 72, 0
1, 13833, Note_on_c, 2, 76, 0
1, 13847, Note_on_c, 3, 60, 0
1, 13886, Lyric_t, ""
1, 13886, Lyric_t, "\015"
1, 13886, Note_on_c, 3, 62, 85
1, 13886, Lyric_t, "sleeps; "
1, 13914, Note_on_c, 0, 59, 0
1, 13915, Note_on_c, 0, 59, 40
1, 13919, Note_on_c, 4, 55, 0
1, 13936, Note_on_c, 4, 67, 0
1, 13984, Note_on_c, 3, 62, 0
1, 13985, Note_on_c, 3, 57, 81
1, 13992, Note_on_c, 1, 31, 0
1, 14010, Pitch_bend_c, 3, 8582
1, 14011, Note_on_c, 4, 59, 0
1, 14012, Pitch_bend_c, 3, 8712
1, 14013, Note_on_c, 4, 50, 0
1, 14014, Note_on_c, 4, 59, 50
1, 14014, Note_on_c, 4, 50, 56
1, 14014, Pitch_bend_c, 3, 10142
1, 14015, Note_on_c, 0, 55, 0
1, 14016, Pitch_bend_c, 3, 11052
1, 14016, Note_on_c, 0, 55, 82
1, 14017, Note_on_c, 1, 31, 94
1, 14017, Note_on_c, 4, 55, 53
1, 14017, Note_on_c, 4, 67, 59
1, 14018, Pitch_bend_c, 3, 12092
1, 14019, Pitch_bend_c, 3, 13002
1, 14022, Pitch_bend_c, 3, 13912
1, 14023, Pitch_bend_c, 3, 15212
1, 14026, Pitch_bend_c, 3, 15992
1, 14027, Pitch_bend_c, 3, 16382
1, 14048, Pitch_bend_c, 3, 16252
1, 14050, Pitch_bend_c, 3, 15472
1, 14052, Pitch_bend_c, 3, 14172
1, 14054, Pitch_bend_c, 3, 13652
1, 14056, Pitch_bend_c, 3, 13002
1, 14058, Pitch_bend_c, 3, 12482
1, 14060, Pitch_bend_c, 3, 12352
1, 14064, Pitch_bend_c, 3, 12482
1, 14066, Pitch_bend_c, 3, 12612
1, 14067, Pitch_bend_c, 3, 13522
1, 14070, Pitch_bend_c, 3, 14562
1, 14071, Pitch_bend_c, 3, 15732
1, 14074, Pitch_bend_c, 3, 16382
1, 14077, Note_on_c, 0, 67, 0
1, 14077, Note_on_c, 0, 62, 0
1, 14078, Note_on_c, 0, 71, 97
1, 14078, Note_on_c, 0, 67, 93
1, 14078, Note_on_c, 0, 62, 96
1, 14107, Note_on_c, 4, 55, 0
1, 14109, Note_on_c, 0, 55, 0
1, 14110, Note_on_c, 0, 55, 55
1, 14111, Note_on_c, 1, 31, 0
1, 14173, Note_on_c, 0, 62, 0
1, 14173, Note_on_c, 0, 67, 0
1, 14173, Note_on_c, 0, 71, 0
1, 14173, Note_on_c, 0, 74, 90
1, 14174, Note_on_c, 0, 71, 96
1, 14174, Note_on_c, 0, 62, 87
1, 14174, Note_on_c, 0, 67, 90
1, 14175, Note_on_c, 1, 31, 89
1, 14184, Note_on_c, 4, 67, 0
1, 14194, Note_on_c, 4, 47, 0
1, 14203, Note_on_c, 4, 37, 20
1, 14205, Note_on_c, 0, 55, 0
1, 14206, Note_on_c, 1, 31, 0
1, 14206, Note_on_c, 0, 55, 86
1, 14208, Note_on_c, 1, 43, 99
1, 14244, Note_on_c, 1, 43, 0
1, 14258, Note_on_c, 4, 59, 0
1, 14263, Note_on_c, 4, 50, 0
1, 14265, Note_on_c, 4, 59, 82
1, 14265, Note_on_c, 4, 67, 83
1, 14266, Note_on_c, 4, 55, 77
1, 14267, Note_on_c, 0, 55, 0
1, 14267, Note_on_c, 0, 67, 0
1, 14267, Note_on_c, 4, 50, 44
1, 14268, Note_on_c, 0, 55, 76
1, 14268, Note_on_c, 0, 79, 87
1, 14268, Note_on_c, 0, 67, 75
1, 14271, Note_on_c, 1, 43, 91
1, 14281, Note_on_c, 4, 37, 0
1, 14292, Note_on_c, 4, 43, 0
1, 14294, Note_on_c, 4, 67, 0
1, 14296, Note_on_c, 3, 57, 0
1, 14298, Pitch_bend_c, 3, 16122
1, 14299, Note_on_c, 1, 43, 0
1, 14300, Note_on_c, 0, 55, 0
1, 14300, Pitch_bend_c, 3, 15472
1, 14301, Note_on_c, 0, 55, 82
1, 14301, Note_on_c, 0, 69, 99
1, 14301, Note_on_c, 0, 81, 110
1, 14302, Pitch_bend_c, 3, 14562
1, 14304, Pitch_bend_c, 3, 13782
1, 14306, Pitch_bend_c, 3, 13262
1, 14307, Pitch_bend_c, 3, 11832
1, 14310, Pitch_bend_c, 3, 11312
1, 14311, Pitch_bend_c, 3, 10792
1, 14314, Pitch_bend_c, 3, 9752
1, 14315, Pitch_bend_c, 3, 8192
1, 14362, Note_on_c, 4, 53, 20
1, 14363, Note_on_c, 0, 55, 0
1, 14363, Note_on_c, 0, 71, 0
1, 14363, Note_on_c, 0, 83, 99
1, 14364, Note_on_c, 0, 71, 100
1, 14364, Note_on_c, 0, 55, 90
1, 14365, Note_on_c, 4, 50, 0
1, 14367, Note_on_c, 1, 43, 89
1, 14369, Note_on_c, 4, 55, 0
1, 14373, Note_on_c, 4, 37, 20
1, 14394, Note_on_c, 4, 37, 0
1, 14394, Note_on_c, 1, 43, 0
1, 14394, Note_on_c, 4, 59, 0
1, 14398, Note_on_c, 4, 55, 64
1, 14398, Note_on_c, 1, 31, 84
1, 14399, Note_on_c, 4, 50, 51
1, 14399, Note_on_c, 4, 47, 53
1, 14401, Note_on_c, 4, 53, 0
1, 14402, Note_on_c, 4, 67, 73
1, 14402, Note_on_c, 4, 34, 20
1, 14402, Note_on_c, 4, 59, 76
1, 14452, Note_on_c, 1, 31, 0
1, 14458, Note_on_c, 0, 74, 0
1, 14459, Note_on_c, 0, 74, 108
1, 14462, Note_on_c, 1, 43, 93
1, 14464, Note_on_c, 0, 86, 102
1, 14482, Note_on_c, 1, 43, 0
1, 14490, Note_on_c, 0, 55, 0
1, 14491, Note_on_c, 4, 47, 0
1, 14491, Note_on_c, 0, 55, 93
1, 14555, Lyric_t, "it's "
1, 14555, Note_on_c, 3, 55, 83
1, 14559, Note_on_c, 1, 43, 104
1, 14575, Note_on_c, 0, 55, 0
1, 14575, Note_on_c, 0, 79, 0
1, 14575, Note_on_c, 0, 81, 0
1, 14575, Note_on_c, 0, 59, 0
1, 14575, Note_on_c, 0, 71, 0
1, 14575, Note_on_c, 0, 83, 0
1, 14575, Note_on_c, 0, 74, 0
1, 14575, Note_on_c, 0, 86, 0
1, 14575, Note_on_c, 0, 62, 0
1, 14575, Note_on_c, 0, 67, 0
1, 14575, Note_on_c, 0, 43, 0
1, 14575, Note_on_c, 0, 69, 0
1, 14584, Note_on_c, 1, 43, 0
1, 14584, Note_on_c, 4, 50, 0
1, 14586, Note_on_c, 4, 59, 0
1, 14589, Note_on_c, 4, 55, 0
1, 14590, Note_on_c, 0, 83, 108
1, 14590, Note_on_c, 0, 86, 110
1, 14590, Note_on_c, 0, 43, 75
1, 14590, Note_on_c, 0, 91, 97
1, 14590, Note_on_c, 0, 55, 108
1, 14591, Note_on_c, 3, 55, 0
1, 14591, Note_on_c, 1, 43, 105
1, 14593, Note_on_c, 4, 67, 0
1, 14593, Lyric_t, "time "
1, 14593, Note_on_c, 3, 59, 84
1, 14594, Note_on_c, 4, 50, 42
1, 14594, Note_on_c, 4, 55, 56
1, 14594, Note_on_c, 4, 59, 57
1, 14595, Note_on_c, 4, 67, 77
1, 14598, Note_on_c, 4, 47, 27
1, 14656, Note_on_c, 3, 62, 85
1, 14656, Lyric_t, "we "
1, 14660, Note_on_c, 3, 59, 0
1, 14680, Note_on_c, 4, 55, 0
1, 14688, Note_on_c, 3, 62, 0
1, 14692, Note_on_c, 3, 64, 90
1, 14692, Lyric_t, "put "
1, 14729, Note_on_c, 4, 67, 0
1, 14730, Note_on_c, 1, 43, 0
1, 14744, Note_on_c, 4, 53, 20
1, 14773, Note_on_c, 4, 47, 0
1, 14777, Note_on_c, 4, 59, 0
1, 14778, Note_on_c, 4, 53, 0
1, 14781, Note_on_c, 0, 86, 0
1, 14781, Note_on_c, 0, 83, 0
1, 14781, Note_on_c, 0, 55, 0
1, 14781, Note_on_c, 4, 47, 48
1, 14782, Note_on_c, 0, 55, 82
1, 14782, Note_on_c, 0, 86, 88
1, 14782, Note_on_c, 0, 79, 99
1, 14782, Note_on_c, 4, 67, 73
1, 14782, Note_on_c, 0, 83, 99
1, 14783, Note_on_c, 4, 59, 80
1, 14783, Note_on_c, 1, 43, 103
1, 14783, Note_on_c, 4, 55, 76
1, 14792, Note_on_c, 3, 64, 0
1, 14833, Note_on_c, 1, 43, 0
1, 14847, Note_on_c, 1, 43, 83
1, 14866, Note_on_c, 1, 43, 0
1, 14877, Note_on_c, 4, 55, 0
1, 14878, Note_on_c, 4, 67, 0
1, 14878, Note_on_c, 4, 55, 54
1, 14880, Note_on_c, 4, 67, 36
1, 14906, Note_on_c, 4, 47, 0
1, 14906, Note_on_c, 4, 34, 0
1, 14930, Note_on_c, 4, 67, 0
1, 14934, Note_on_c, 4, 59, 0
1, 14938, Note_on_c, 4, 67, 22
1, 14943, Note_on_c, 3, 55, 83
1, 14943, Lyric_t, "the "
1, 14943, Note_on_c, 1, 43, 93
1, 14958, Note_on_c, 4, 50, 0
1, 14966, Note_on_c, 4, 67, 0
1, 14968, Note_on_c, 1, 43, 0
1, 14971, Note_on_c, 0, 79, 0
1, 14971, Note_on_c, 0, 43, 0
1, 14971, Note_on_c, 0, 55, 0
1, 14971, Note_on_c, 0, 86, 0
1, 14971, Note_on_c, 0, 91, 0
1, 14971, Note_on_c, 0, 83, 0
1, 14974, Note_on_c, 4, 55, 0
1, 14974, Note_on_c, 3, 55, 0
1, 14974, Note_on_c, 0, 67, 77
1, 14974, Note_on_c, 0, 43, 67
1, 14974, Note_on_c, 0, 64, 77
1, 14974, Note_on_c, 0, 72, 88
1, 14974, Note_on_c, 0, 55, 76
1, 14975, Note_on_c, 1, 43, 100
1, 14976, Note_on_c, 4, 55, 64
1, 14976, Note_on_c, 4, 52, 25
1, 14977, Note_on_c, 4, 60, 80
1, 14977, Note_on_c, 2, 72, 44
1, 14977, Note_on_c, 2, 76, 44
1, 14977, Note_on_c, 4, 67, 82
1, 14979, Note_on_c, 2, 74, 0
1, 14982, Lyric_t, "flame "
1, 14982, Note_on_c, 3, 64, 86
1, 14986, Note_on_c, 2, 71, 0
1, 15027, Note_on_c, 1, 43, 0
1, 15039, Note_on_c, 1, 43, 99
1, 15041, Note_on_c, 3, 64, 0
1, 15058, Note_on_c, 1, 43, 0
1, 15066, Note_on_c, 0, 64, 0
1, 15067, Note_on_c, 0, 64, 39
1, 15068, Note_on_c, 4, 67, 0
1, 15070, Note_on_c, 4, 60, 0
1, 15072, Note_on_c, 4, 60, 39
1, 15074, Lyric_t, "torch "
1, 15074, Note_on_c, 3, 62, 88
1, 15125, Note_on_c, 4, 60, 0
1, 15130, Note_on_c, 4, 67, 57
1, 15131, Note_on_c, 4, 60, 61
1, 15133, Note_on_c, 0, 55, 0
1, 15134, Note_on_c, 0, 55, 76
1, 15135, Note_on_c, 1, 43, 99
1, 15158, Note_on_c, 1, 43, 0
1, 15160, Note_on_c, 4, 67, 0
1, 15161, Note_on_c, 4, 60, 0
1, 15162, Note_on_c, 4, 55, 0
1, 15165, Note_on_c, 4, 55, 73
1, 15165, Note_on_c, 4, 60, 81
1, 15166, Note_on_c, 0, 72, 0
1, 15166, Note_on_c, 0, 67, 0
1, 15166, Note_on_c, 0, 64, 0
1, 15167, Note_on_c, 0, 64, 95
1, 15167, Note_on_c, 0, 72, 95
1, 15167, Note_on_c, 1, 43, 79
1, 15167, Note_on_c, 0, 67, 95
1, 15168, Note_on_c, 4, 67, 84
1, 15170, Note_on_c, 3, 62, 0
1, 15219, Note_on_c, 1, 43, 0
1, 15220, Note_on_c, 3, 58, 86
1, 15220, Lyric_t, "to "
1, 15233, Note_on_c, 1, 43, 97
1, 15248, Note_on_c, 1, 43, 0
1, 15258, Note_on_c, 3, 57, 85
1, 15258, Lyric_t, "their "
1, 15260, Note_on_c, 4, 60, 0
1, 15263, Note_on_c, 4, 67, 0
1, 15266, Note_on_c, 4, 60, 50
1, 15266, Note_on_c, 4, 67, 47
1, 15287, Note_on_c, 3, 58, 0
1, 15295, Note_on_c, 4, 60, 0
1, 15296, Note_on_c, 4, 67, 0
1, 15311, Note_on_c, 4, 52, 0
1, 15327, Note_on_c, 1, 43, 97
1, 15338, Note_on_c, 4, 55, 0
1, 15349, Note_on_c, 1, 43, 0
1, 15350, Note_on_c, 3, 57, 0
1, 15357, Note_on_c, 4, 48, 35
1, 15358, Note_on_c, 4, 53, 58
1, 15359, Note_on_c, 4, 62, 61
1, 15359, Note_on_c, 2, 70, 43
1, 15359, Note_on_c, 1, 36, 92
1, 15359, Note_on_c, 4, 58, 75
1, 15360, Note_on_c, 2, 74, 52
1, 15360, Note_on_c, 2, 77, 52
1, 15360, Note_on_c, 2, 65, 62
1, 15360, Note_on_c, 0, 48, 80
1, 15360, Note_on_c, 0, 36, 78
1, 15362, Note_on_c, 4, 67, 70
1, 15363, Note_on_c, 3, 57, 94
1, 15363, Lyric_t, "keep. "
1, 15363, Lyric_t, ""
1, 15363, Lyric_t, "\015"
1, 15372, Note_on_c, 2, 72, 0
1, 15372, Note_on_c, 2, 76, 0
1, 15372, Note_on_c, 2, 79, 0
1, 15372, Note_on_c, 2, 67, 0
1, 15388, Note_on_c, 0, 43, 0
1, 15388, Note_on_c, 0, 67, 0
1, 15388, Note_on_c, 0, 55, 0
1, 15388, Note_on_c, 0, 64, 0
1, 15388, Note_on_c, 0, 72, 0
1, 15422, Note_on_c, 0, 58, 76
1, 15422, Note_on_c, 0, 55, 89
1, 15422, Note_on_c, 0, 65, 86
1, 15422, Note_on_c, 0, 62, 92
1, 15449, Note_on_c, 4, 58, 0
1, 15455, Note_on_c, 4, 62, 0
1, 15462, Note_on_c, 3, 57, 0
1, 15490, Note_on_c, 3, 57, 90
1, 15496, Note_on_c, 4, 49, 20
1, 15510, Pitch_bend_c, 3, 8322
1, 15511, Pitch_bend_c, 3, 8712
1, 15514, Pitch_bend_c, 3, 9102
1, 15515, Pitch_bend_c, 3, 9882
1, 15517, Pitch_bend_c, 3, 10402
1, 15519, Pitch_bend_c, 3, 11052
1, 15521, Pitch_bend_c, 3, 11572
1, 15523, Pitch_bend_c, 3, 11962
1, 15525, Pitch_bend_c, 3, 12482
1, 15526, Note_on_c, 4, 49, 0
1, 15526, Pitch_bend_c, 3, 12612
1, 15529, Pitch_bend_c, 3, 13132
1, 15530, Pitch_bend_c, 3, 13262
1, 15533, Pitch_bend_c, 3, 13522
1, 15534, Pitch_bend_c, 3, 13652
1, 15536, Pitch_bend_c, 3, 13782
1, 15537, Note_on_c, 4, 67, 0
1, 15538, Pitch_bend_c, 3, 13912
1, 15540, Pitch_bend_c, 3, 12872
1, 15542, Pitch_bend_c, 3, 9882
1, 15543, Note_on_c, 4, 48, 0
1, 15544, Pitch_bend_c, 3, 8192
1, 15549, Note_on_c, 0, 48, 0
1, 15550, Note_on_c, 0, 48, 96
1, 15554, Note_on_c, 4, 53, 0
1, 15571, Note_on_c, 3, 57, 0
1, 15573, Note_on_c, 3, 55, 83
1, 15609, Note_on_c, 4, 62, 78
1, 15611, Note_on_c, 4, 58, 75
1, 15612, Note_on_c, 4, 48, 36
1, 15612, Note_on_c, 4, 53, 63
1, 15613, Note_on_c, 0, 55, 0
1, 15613, Note_on_c, 0, 62, 0
1, 15613, Note_on_c, 0, 58, 0
1, 15613, Note_on_c, 0, 65, 0
1, 15614, Note_on_c, 0, 58, 86
1, 15614, Note_on_c, 0, 62, 100
1, 15614, Note_on_c, 0, 65, 90
1, 15614, Note_on_c, 0, 55, 92
1, 15638, Note_on_c, 4, 62, 0
1, 15641, Note_on_c, 4, 58, 0
1, 15642, Note_on_c, 4, 53, 0
1, 15644, Note_on_c, 4, 48, 0
1, 15706, Note_on_c, 4, 46, 20
1, 15709, Note_on_c, 0, 48, 0
1, 15709, Note_on_c, 4, 42, 20
1, 15710, Note_on_c, 0, 48, 100
1, 15711, Note_on_c, 4, 38, 20
1, 15737, Note_on_c, 4, 42, 0
1, 15739, Note_on_c, 4, 46, 0
1, 15740, Note_on_c, 4, 38, 0
1, 15741, Note_on_c, 0, 36, 0
1, 15741, Note_on_c, 4, 53, 31
1, 15742, Note_on_c, 0, 36, 75
1, 15742, Note_on_c, 4, 62, 70
1, 15742, Note_on_c, 4, 48, 75
1, 15744, Note_on_c, 1, 36, 0
1, 15745, Note_on_c, 4, 58, 73
1, 15745, Note_on_c, 1, 46, 80
1, 15745, Note_on_c, 2, 82, 48
1, 15746, Note_on_c, 4, 67, 70
1, 15757, Pitch_bend_c, 1, 9947
1, 15761, Pitch_bend_c, 1, 12755
1, 15765, Pitch_bend_c, 1, 15095
1, 15766, Pitch_bend_c, 1, 16383
1, 15791, Note_on_c, 0, 65, 0
1, 15791, Note_on_c, 0, 55, 0
1, 15791, Note_on_c, 0, 62, 0
1, 15791, Note_on_c, 0, 58, 0
1, 15791, Note_on_c, 0, 48, 0
1, 15805, Note_on_c, 0, 48, 108
1, 15805, Note_on_c, 0, 58, 86
1, 15805, Note_on_c, 0, 67, 89
1, 15806, Note_on_c, 0, 65, 93
1, 15806, Note_on_c, 0, 62, 102
1, 15834, Note_on_c, 4, 58, 0
1, 15840, Note_on_c, 9, 38, 58
1, 15841, Control_c, 9, 1, 0
1, 15841, Pitch_bend_c, 9, 8192
1, 15844, Note_on_c, 9, 38, 0
1, 15852, Note_on_c, 9, 38, 58
1, 15856, Note_on_c, 9, 38, 0
1, 15865, Note_on_c, 9, 38, 51
1, 15869, Note_on_c, 9, 38, 0
1, 15876, Note_on_c, 9, 38, 53
1, 15880, Note_on_c, 9, 38, 0
1, 15888, Note_on_c, 9, 38, 62
1, 15892, Note_on_c, 9, 38, 0
1, 15900, Note_on_c, 9, 38, 62
1, 15901, Note_on_c, 0, 48, 0
1, 15902, Note_on_c, 0, 48, 93
1, 15904, Note_on_c, 9, 38, 0
1, 15913, Note_on_c, 9, 38, 56
1, 15917, Note_on_c, 9, 38, 0
1, 15924, Note_on_c, 3, 55, 0
1, 15924, Note_on_c, 9, 38, 51
1, 15928, Note_on_c, 9, 38, 0
1, 15930, Note_on_c, 4, 48, 0
1, 15930, Note_on_c, 4, 53, 0
1, 15932, Note_on_c, 4, 62, 0
1, 15933, Note_on_c, 0, 36, 0
1, 15933, Note_on_c, 4, 53, 56
1, 15934, Note_on_c, 4, 67, 0
1, 15934, Note_on_c, 0, 36, 77
1, 15934, Note_on_c, 4, 48, 70
1, 15935, Note_on_c, 4, 62, 78
1, 15935, Note_on_c, 4, 58, 76
1, 15936, Note_on_c, 9, 38, 77
1, 15938, Note_on_c, 4, 67, 67
1, 15940, Note_on_c, 9, 38, 0
1, 15948, Note_on_c, 9, 38, 72
1, 15952, Note_on_c, 9, 38, 0
1, 15961, Note_on_c, 9, 38, 67
1, 15965, Note_on_c, 9, 38, 0
1, 15972, Note_on_c, 9, 38, 66
1, 15976, Note_on_c, 9, 38, 0
1, 15984, Note_on_c, 9, 38, 81
1, 15988, Note_on_c, 9, 38, 0
1, 15996, Note_on_c, 9, 38, 75
1, 15997, Note_on_c, 0, 36, 0
1, 15997, Note_on_c, 0, 48, 0
1, 15997, Note_on_c, 0, 65, 0
1, 15997, Note_on_c, 0, 62, 0
1, 15998, Note_on_c, 0, 48, 101
1, 15998, Note_on_c, 0, 70, 101
1, 15998, Note_on_c, 0, 65, 101
1, 15998, Note_on_c, 0, 36, 101
1, 15998, Note_on_c, 0, 62, 101
1, 16000, Note_on_c, 9, 38, 0
1, 16009, Note_on_c, 9, 38, 69
1, 16013, Note_on_c, 9, 38, 0
1, 16020, Note_on_c, 9, 38, 69
1, 16024, Note_on_c, 9, 38, 0
1, 16025, Note_on_c, 4, 62, 0
1, 16028, Note_on_c, 4, 48, 0
1, 16029, Note_on_c, 4, 48, 46
1, 16030, Note_on_c, 4, 58, 0
1, 16031, Note_on_c, 4, 62, 52
1, 16032, Note_on_c, 9, 38, 85
1, 16034, Note_on_c, 4, 58, 26
1, 16036, Note_on_c, 9, 38, 0
1, 16038, Note_on_c, 4, 67, 0
1, 16044, Note_on_c, 1, 46, 0
1, 16044, Note_on_c, 9, 38, 85
1, 16048, Note_on_c, 9, 38, 0
1, 16057, Note_on_c, 9, 38, 79
1, 16061, Note_on_c, 9, 38, 0
1, 16064, Pitch_bend_c, 1, 16382
1, 16066, Pitch_bend_c, 1, 16031
1, 16068, Note_on_c, 9, 38, 77
1, 16070, Pitch_bend_c, 1, 15563
1, 16072, Note_on_c, 9, 38, 0
1, 16072, Pitch_bend_c, 1, 14978
1, 16076, Pitch_bend_c, 1, 14159
1, 16080, Pitch_bend_c, 1, 13340
1, 16080, Note_on_c, 9, 38, 100
1, 16081, Note_on_c, 4, 58, 0
1, 16082, Pitch_bend_c, 1, 12404
1, 16084, Note_on_c, 9, 38, 0
1, 16086, Pitch_bend_c, 1, 11234
1, 16087, Pitch_bend_c, 1, 10064
1, 16091, Pitch_bend_c, 1, 9245
1, 16092, Note_on_c, 9, 38, 101
1, 16093, Note_on_c, 0, 48, 0
1, 16093, Pitch_bend_c, 1, 8777
1, 16094, Note_on_c, 0, 48, 87
1, 16096, Note_on_c, 9, 38, 0
1, 16097, Pitch_bend_c, 1, 8543
1, 16101, Pitch_bend_c, 1, 8309
1, 16102, Pitch_bend_c, 1, 8192
1, 16105, Note_on_c, 9, 38, 96
1, 16109, Note_on_c, 9, 38, 0
1, 16116, Note_on_c, 9, 38, 94
1, 16120, Note_on_c, 9, 38, 0
1, 16123, Note_on_c, 4, 48, 0
1, 16125, Note_on_c, 0, 36, 0
1, 16125, Note_on_c, 4, 53, 0
1, 16126, Note_on_c, 4, 62, 0
1, 16126, Note_on_c, 4, 48, 59
1, 16126, Note_on_c, 4, 53, 53
1, 16126, Note_on_c, 0, 36, 78
1, 16127, Note_on_c, 4, 62, 47
1, 16128, Note_on_c, 4, 58, 70
1, 16128, Note_on_c, 9, 38, 118
1, 16129, Note_on_c, 2, 86, 58
1, 16129, Note_on_c, 1, 60, 89
1, 16130, Note_on_c, 4, 53, 0
1, 16131, Note_on_c, 4, 53, 20
1, 16134, Note_on_c, 9, 38, 0
1, 16143, Note_on_c, 2, 65, 0
1, 16189, Note_on_c, 1, 60, 0
1, 16190, Note_on_c, 0, 65, 0
1, 16190, Note_on_c, 0, 48, 0
1, 16190, Note_on_c, 0, 70, 0
1, 16191, Note_on_c, 0, 65, 104
1, 16191, Note_on_c, 1, 58, 76
1, 16191, Note_on_c, 0, 70, 103
1, 16191, Note_on_c, 0, 48, 100
1, 16191, Note_on_c, 0, 74, 102
1, 16222, Note_on_c, 4, 58, 0
1, 16224, Note_on_c, 9, 44, 65
1, 16228, Note_on_c, 4, 62, 0
1, 16230, Note_on_c, 9, 44, 0
1, 16243, Note_on_c, 1, 58, 0
1, 16263, Note_on_c, 4, 62, 30
1, 16284, Note_on_c, 4, 58, 27
1, 16286, Note_on_c, 0, 48, 0
1, 16287, Note_on_c, 1, 55, 79
1, 16287, Note_on_c, 0, 48, 96
1, 16288, Note_on_c, 9, 41, 87
1, 16294, Note_on_c, 9, 41, 0
1, 16311, Note_on_c, 4, 48, 0
1, 16314, Note_on_c, 4, 58, 0
1, 16318, Note_on_c, 4, 62, 0
1, 16318, Note_on_c, 1, 55, 0
1, 16318, Note_on_c, 0, 36, 0
1, 16319, Note_on_c, 4, 53, 0
1, 16319, Note_on_c, 4, 48, 30
1, 16319, Note_on_c, 0, 36, 73
1, 16320, Note_on_c, 4, 53, 32
1, 16322, Note_on_c, 4, 58, 34
1, 16377, Note_on_c, 4, 58, 0
1, 16379, Note_on_c, 4, 48, 0
1, 16380, Note_on_c, 4, 53, 0
1, 16381, Note_on_c, 4, 53, 70
1, 16381, Note_on_c, 4, 48, 37
1, 16381, Note_on_c, 4, 58, 76
1, 16381, Note_on_c, 4, 62, 77
1, 16382, Note_on_c, 0, 48, 0
1, 16382, Note_on_c, 0, 74, 0
1, 16382, Note_on_c, 0, 65, 0
1, 16382, Note_on_c, 0, 70, 0
1, 16383, Note_on_c, 0, 48, 100
1, 16383, Note_on_c, 1, 53, 90
1, 16383, Note_on_c, 0, 65, 108
1, 16383, Note_on_c, 0, 74, 106
1, 16383, Note_on_c, 0, 77, 119
1, 16383, Note_on_c, 0, 70, 109
1, 16384, Note_on_c, 9, 38, 94
1, 16390, Note_on_c, 9, 38, 0
1, 16396, Note_on_c, 4, 62, 0
1, 16405, Note_on_c, 4, 48, 0
1, 16406, Note_on_c, 4, 58, 0
1, 16408, Note_on_c, 4, 53, 0
1, 16410, Note_on_c, 1, 53, 0
1, 16416, Note_on_c, 9, 44, 73
1, 16416, Note_on_c, 9, 38, 94
1, 16422, Note_on_c, 9, 38, 0
1, 16422, Note_on_c, 9, 44, 0
1, 16448, Note_on_c, 9, 38, 114
1, 16454, Note_on_c, 9, 38, 0
1, 16476, Note_on_c, 4, 58, 22
1, 16478, Note_on_c, 0, 48, 0
1, 16478, Note_on_c, 4, 53, 30
1, 16479, Note_on_c, 1, 48, 99
1, 16479, Note_on_c, 0, 48, 110
1, 16480, Note_on_c, 9, 45, 104
1, 16482, Note_on_c, 4, 48, 30
1, 16486, Note_on_c, 9, 45, 0
1, 16506, Note_on_c, 4, 58, 0
1, 16507, Note_on_c, 4, 53, 0
1, 16509, Note_on_c, 4, 48, 0
1, 16510, Note_on_c, 0, 36, 0
1, 16510, Note_on_c, 4, 48, 67
1, 16511, Note_on_c, 0, 36, 78
1, 16512, Note_on_c, 1, 48, 0
1, 16512, Note_on_c, 9, 36, 83
1, 16513, Note_on_c, 4, 53, 69
1, 16513, Note_on_c, 4, 58, 79
1, 16513, Note_on_c, 4, 67, 57
1, 16514, Note_on_c, 4, 62, 77
1, 16518, Note_on_c, 9, 36, 0
1, 16544, Note_on_c, 9, 43, 70
1, 16550, Note_on_c, 9, 43, 0
1, 16574, Note_on_c, 0, 48, 0
1, 16574, Note_on_c, 0, 74, 0
1, 16574, Note_on_c, 0, 70, 0
1, 16574, Note_on_c, 0, 77, 0
1, 16575, Note_on_c, 0, 74, 102
1, 16575, Note_on_c, 0, 48, 106
1, 16575, Note_on_c, 0, 77, 90
1, 16575, Note_on_c, 0, 70, 118
1, 16575, Note_on_c, 0, 82, 112
1, 16576, Note_on_c, 9, 45, 101
1, 16576, Note_on_c, 1, 46, 91
1, 16582, Note_on_c, 9, 45, 0
1, 16600, Note_on_c, 4, 48, 0
1, 16602, Note_on_c, 4, 58, 0
1, 16605, Note_on_c, 1, 46, 0
1, 16606, Note_on_c, 4, 58, 52
1, 16608, Note_on_c, 9, 44, 82
1, 16608, Note_on_c, 9, 45, 78
1, 16610, Lyric_t, ""
1, 16610, Lyric_t, "\015"
1, 16614, Note_on_c, 9, 45, 0
1, 16614, Note_on_c, 9, 44, 0
1, 16640, Note_on_c, 9, 43, 105
1, 16646, Note_on_c, 9, 43, 0
1, 16648, Note_on_c, 4, 62, 0
1, 16662, Note_on_c, 4, 58, 0
1, 16666, Note_on_c, 4, 53, 0
1, 16666, Note_on_c, 4, 62, 29
1, 16669, Note_on_c, 4, 58, 31
1, 16670, Note_on_c, 0, 48, 0
1, 16671, Note_on_c, 0, 48, 102
1, 16671, Note_on_c, 4, 53, 26
1, 16672, Note_on_c, 1, 43, 109
1, 16672, Note_on_c, 9, 45, 97
1, 16674, Note_on_c, 4, 48, 34
1, 16678, Note_on_c, 9, 45, 0
1, 16695, Note_on_c, 4, 62, 0
1, 16696, Note_on_c, 4, 48, 0
1, 16698, Note_on_c, 4, 58, 0
1, 16698, Note_on_c, 4, 53, 0
1, 16701, Note_on_c, 0, 58, 0
1, 16701, Note_on_c, 4, 48, 71
1, 16701, Note_on_c, 4, 53, 71
1, 16702, Note_on_c, 4, 67, 0
1, 16702, Note_on_c, 0, 36, 0
1, 16703, Note_on_c, 1, 43, 0
1, 16703, Note_on_c, 0, 36, 71
1, 16703, Note_on_c, 4, 58, 77
1, 16704, Note_on_c, 1, 41, 100
1, 16704, Note_on_c, 9, 43, 78
1, 16705, Note_on_c, 4, 67, 42
1, 16706, Note_on_c, 4, 62, 65
1, 16710, Note_on_c, 9, 43, 0
1, 16735, Note_on_c, 1, 41, 0
1, 16736, Note_on_c, 1, 43, 93
1, 16736, Note_on_c, 9, 45, 103
1, 16742, Note_on_c, 9, 45, 0
1, 16750, Note_on_c, 4, 62, 0
1, 16760, Note_on_c, 4, 58, 0
1, 16763, Note_on_c, 1, 43, 0
1, 16763, Note_on_c, 4, 62, 77
1, 16764, Note_on_c, 4, 53, 0
1, 16764, Note_on_c, 4, 48, 0
1, 16765, Note_on_c, 4, 58, 76
1, 16765, Note_on_c, 4, 48, 75
1, 16765, Note_on_c, 4, 53, 72
1, 16766, Note_on_c, 0, 77, 0
1, 16766, Note_on_c, 0, 82, 0
1, 16766, Note_on_c, 0, 48, 0
1, 16767, Note_on_c, 0, 89, 124
1, 16767, Note_on_c, 0, 84, 116
1, 16767, Note_on_c, 0, 48, 100
1, 16767, Note_on_c, 0, 82, 103
1, 16767, Note_on_c, 0, 77, 124
1, 16768, Note_on_c, 9, 43, 78
1, 16768, Note_on_c, 1, 46, 86
1, 16774, Note_on_c, 9, 43, 0
1, 16781, Note_on_c, 0, 70, 0
1, 16793, Note_on_c, 4, 62, 0
1, 16794, Note_on_c, 4, 58, 0
1, 16794, Note_on_c, 4, 53, 0
1, 16794, Note_on_c, 4, 67, 0
1, 16797, Note_on_c, 4, 58, 75
1, 16797, Note_on_c, 4, 53, 65
1, 16798, Note_on_c, 4, 67, 37
1, 16799, Note_on_c, 1, 46, 0
1, 16800, Note_on_c, 9, 38, 103
1, 16800, Note_on_c, 1, 43, 81
1, 16800, Note_on_c, 9, 44, 75
1, 16801, Note_on_c, 4, 62, 73
1, 16806, Note_on_c, 9, 44, 0
1, 16806, Note_on_c, 9, 38, 0
1, 16826, Note_on_c, 1, 43, 0
1, 16832, Note_on_c, 1, 41, 96
1, 16851, Note_on_c, 1, 41, 0
1, 16864, Note_on_c, 1, 36, 92
1, 16871, Note_on_c, 2, 82, 0
1, 16871, Note_on_c, 4, 62, 0
1, 16874, Note_on_c, 2, 86, 0
1, 16878, Note_on_c, 2, 74, 0
1, 16880, Note_on_c, 4, 67, 0
1, 16880, Note_on_c, 2, 70, 0
1, 16880, Note_on_c, 2, 77, 0
1, 16885, Note_on_c, 1, 36, 0
1, 16886, Note_on_c, 4, 58, 0
1, 16887, Note_on_c, 4, 53, 0
1, 16888, Note_on_c, 4, 48, 0
1, 16890, Note_on_c, 0, 36, 0
1, 16890, Note_on_c, 0, 84, 0
1, 16890, Note_on_c, 0, 65, 0
1, 16890, Note_on_c, 0, 82, 0
1, 16890, Note_on_c, 0, 89, 0
1, 16890, Note_on_c, 0, 74, 0
1, 16890, Note_on_c, 0, 67, 0
1, 16890, Note_on_c, 0, 62, 0
1, 16890, Note_on_c, 0, 77, 0
1, 16890, Note_on_c, 0, 48, 0
1, 16894, Note_on_c, 0, 37, 72
1, 16895, Note_on_c, 4, 49, 45
1, 16895, Note_on_c, 4, 56, 52
1, 16896, Note_on_c, 9, 36, 95
1, 16896, Note_on_c, 9, 49, 79
1, 16896, Note_on_c, 1, 37, 106
1, 16896, Note_on_c, 0, 61, 93
1, 16896, Note_on_c, 9, 42, 62
1, 16896, Note_on_c, 0, 56, 93
1, 16896, Note_on_c, 0, 49, 84
1, 16898, Note_on_c, 2, 77, 52
1, 16898, Note_on_c, 0, 65, 93
1, 16898, Note_on_c, 2, 68, 52
1, 16898, Note_on_c, 2, 73, 52
1, 16898, Note_on_c, 4, 65, 61
1, 16898, Note_on_c, 4, 61, 77
1, 16898, Note_on_c, 4, 53, 66
1, 16902, Note_on_c, 9, 42, 0
1, 16902, Note_on_c, 9, 49, 0
1, 16902, Note_on_c, 9, 36, 0
1, 16991, Note_on_c, 0, 56, 0
1, 16991, Note_on_c, 4, 65, 0
1, 16992, Note_on_c, 0, 56, 29
1, 16992, Note_on_c, 9, 42, 35
1, 16994, Note_on_c, 3, 65, 86
1, 16994, Lyric_t, "Burn "
1, 16998, Note_on_c, 9, 42, 0
1, 17042, Note_on_c, 4, 56, 0
1, 17044, Note_on_c, 1, 37, 0
1, 17046, Note_on_c, 3, 65, 0
1, 17056, Note_on_c, 9, 36, 73
1, 17056, Note_on_c, 1, 41, 83
1, 17057, Note_on_c, 0, 49, 0
1, 17057, Note_on_c, 3, 68, 85
1, 17057, Lyric_t, "down "
1, 17058, Note_on_c, 0, 49, 89
1, 17062, Note_on_c, 9, 36, 0
1, 17081, Note_on_c, 4, 53, 0
1, 17081, Note_on_c, 4, 61, 0
1, 17085, Note_on_c, 1, 41, 0
1, 17085, Note_on_c, 4, 53, 57
1, 17086, Note_on_c, 4, 61, 70
1, 17086, Note_on_c, 0, 68, 76
1, 17087, Note_on_c, 0, 61, 0
1, 17088, Note_on_c, 1, 44, 87
1, 17088, Note_on_c, 4, 65, 58
1, 17088, Note_on_c, 0, 61, 95
1, 17088, Note_on_c, 9, 38, 108
1, 17088, Note_on_c, 9, 42, 71
1, 17094, Note_on_c, 9, 42, 0
1, 17094, Note_on_c, 9, 38, 0
1, 17141, Note_on_c, 4, 65, 0
1, 17142, Note_on_c, 4, 61, 0
1, 17142, Note_on_c, 4, 49, 0
1, 17149, Note_on_c, 4, 61, 79
1, 17150, Note_on_c, 0, 65, 0
1, 17150, Note_on_c, 4, 65, 83
1, 17151, Note_on_c, 4, 49, 36
1, 17151, Note_on_c, 0, 65, 66
1, 17153, Note_on_c, 4, 56, 78
1, 17180, Note_on_c, 4, 65, 0
1, 17181, Note_on_c, 4, 49, 0
1, 17181, Note_on_c, 0, 49, 0
1, 17182, Note_on_c, 0, 49, 79
1, 17184, Note_on_c, 9, 42, 60
1, 17186, Note_on_c, 4, 65, 52
1, 17190, Note_on_c, 9, 42, 0
1, 17191, Note_on_c, 1, 44, 0
1, 17200, Note_on_c, 4, 65, 0
1, 17202, Note_on_c, 4, 56, 0
1, 17206, Note_on_c, 3, 68, 0
1, 17209, Note_on_c, 4, 61, 0
1, 17220, Note_on_c, 4, 53, 0
1, 17243, Note_on_c, 0, 61, 0
1, 17244, Note_on_c, 0, 61, 52
1, 17245, Lyric_t, "the "
1, 17245, Note_on_c, 3, 70, 83
1, 17248, Note_on_c, 9, 38, 107
1, 17248, Note_on_c, 1, 37, 95
1, 17254, Note_on_c, 9, 38, 0
1, 17265, Note_on_c, 0, 56, 0
1, 17265, Note_on_c, 0, 65, 0
1, 17265, Note_on_c, 0, 37, 0
1, 17265, Note_on_c, 0, 49, 0
1, 17265, Note_on_c, 0, 68, 0
1, 17269, Note_on_c, 0, 61, 0
1, 17277, Note_on_c, 4, 60, 66
1, 17277, Note_on_c, 4, 63, 72
1, 17277, Note_on_c, 4, 56, 57
1, 17278, Note_on_c, 0, 56, 97
1, 17278, Note_on_c, 0, 63, 95
1, 17278, Note_on_c, 0, 68, 84
1, 17278, Note_on_c, 0, 44, 86
1, 17279, Note_on_c, 2, 68, 0
1, 17279, Note_on_c, 1, 37, 0
1, 17280, Note_on_c, 9, 36, 82
1, 17280, Note_on_c, 1, 44, 99
1, 17280, Note_on_c, 9, 42, 85
1, 17280, Note_on_c, 2, 75, 57
1, 17280, Note_on_c, 2, 68, 57
1, 17280, Note_on_c, 0, 60, 89
1, 17280, Note_on_c, 2, 72, 57
1, 17281, Note_on_c, 4, 68, 34
1, 17282, Note_on_c, 3, 70, 0
1, 17282, Lyric_t, "mis"
1, 17282, Note_on_c, 3, 65, 85
1, 17286, Note_on_c, 9, 36, 0
1, 17286, Note_on_c, 9, 42, 0
1, 17289, Note_on_c, 2, 73, 0
1, 17289, Note_on_c, 2, 77, 0
1, 17310, Note_on_c, 3, 65, 0
1, 17312, Lyric_t, "sion "
1, 17312, Lyric_t, ""
1, 17312, Lyric_t, "\015"
1, 17312, Note_on_c, 3, 63, 86
1, 17342, Note_on_c, 3, 63, 0
1, 17342, Note_on_c, 3, 65, 82
1, 17343, Note_on_c, 1, 44, 0
1, 17344, Note_on_c, 1, 32, 82
1, 17344, Note_on_c, 9, 36, 66
1, 17350, Note_on_c, 9, 36, 0
1, 17364, Note_on_c, 4, 60, 0
1, 17376, Note_on_c, 9, 42, 51
1, 17377, Note_on_c, 1, 32, 0
1, 17382, Note_on_c, 9, 42, 0
1, 17411, Note_on_c, 4, 68, 0
1, 17413, Note_on_c, 4, 54, 20
1, 17419, Note_on_c, 4, 63, 0
1, 17430, Note_on_c, 4, 56, 0
1, 17432, Note_on_c, 4, 63, 54
1, 17434, Note_on_c, 0, 56, 0
1, 17434, Note_on_c, 0, 60, 0
1, 17434, Note_on_c, 0, 68, 0
1, 17434, Note_on_c, 0, 63, 0
1, 17434, Note_on_c, 4, 60, 35
1, 17434, Note_on_c, 4, 56, 39
1, 17438, Note_on_c, 3, 65, 0
1, 17438, Note_on_c, 0, 56, 91
1, 17438, Note_on_c, 3, 63, 85
1, 17440, Note_on_c, 9, 36, 72
1, 17440, Note_on_c, 1, 32, 82
1, 17446, Note_on_c, 9, 36, 0
1, 17459, Note_on_c, 4, 54, 0
1, 17462, Note_on_c, 4, 63, 0
1, 17465, Note_on_c, 4, 56, 0
1, 17466, Note_on_c, 4, 56, 35
1, 17468, Note_on_c, 4, 63, 54
1, 17469, Note_on_c, 0, 68, 86
1, 17469, Note_on_c, 4, 54, 20
1, 17470, Note_on_c, 0, 72, 99
1, 17470, Note_on_c, 0, 63, 89
1, 17470, Note_on_c, 0, 60, 96
1, 17471, Note_on_c, 1, 32, 0
1, 17472, Note_on_c, 9, 46, 85
1, 17472, Note_on_c, 1, 44, 100
1, 17472, Note_on_c, 9, 38, 110
1, 17478, Note_on_c, 9, 38, 0
1, 17478, Note_on_c, 9, 46, 0
1, 17513, Note_on_c, 1, 44, 0
1, 17524, Note_on_c, 4, 54, 0
1, 17527, Note_on_c, 4, 56, 0
1, 17529, Note_on_c, 4, 60, 0
1, 17531, Note_on_c, 4, 63, 0
1, 17533, Note_on_c, 4, 63, 77
1, 17533, Note_on_c, 4, 68, 67
1, 17534, Note_on_c, 3, 63, 0
1, 17534, Note_on_c, 4, 60, 70
1, 17534, Note_on_c, 3, 61, 80
1, 17535, Note_on_c, 4, 56, 62
1, 17536, Note_on_c, 1, 44, 82
1, 17557, Note_on_c, 1, 44, 0
1, 17562, Note_on_c, 4, 68, 0
1, 17562, Note_on_c, 4, 56, 0
1, 17562, Note_on_c, 4, 63, 0
1, 17564, Note_on_c, 0, 44, 0
1, 17565, Note_on_c, 0, 44, 55
1, 17566, Note_on_c, 4, 68, 64
1, 17566, Note_on_c, 4, 56, 62
1, 17567, Note_on_c, 4, 63, 74
1, 17568, Note_on_c, 9, 42, 65
1, 17574, Note_on_c, 9, 42, 0
1, 17610, Note_on_c, 4, 63, 0
1, 17611, Note_on_c, 4, 68, 0
1, 17618, Note_on_c, 4, 56, 0
1, 17619, Note_on_c, 4, 60, 0
1, 17632, Note_on_c, 9, 36, 59
1, 17632, Note_on_c, 1, 44, 89
1, 17638, Note_on_c, 9, 36, 0
1, 17653, Note_on_c, 0, 68, 0
1, 17653, Note_on_c, 0, 60, 0
1, 17653, Note_on_c, 0, 56, 0
1, 17653, Note_on_c, 0, 44, 0
1, 17653, Note_on_c, 0, 63, 0
1, 17653, Note_on_c, 0, 72, 0
1, 17662, Note_on_c, 1, 44, 0
1, 17663, Note_on_c, 3, 61, 0
1, 17664, Note_on_c, 9, 42, 88
1, 17664, Note_on_c, 0, 73, 83
1, 17664, Note_on_c, 9, 36, 86
1, 17664, Note_on_c, 0, 70, 89
1, 17664, Note_on_c, 0, 54, 95
1, 17664, Note_on_c, 1, 42, 92
1, 17664, Note_on_c, 0, 42, 95
1, 17664, Note_on_c, 0, 66, 93
1, 17665, Note_on_c, 4, 54, 30
1, 17666, Note_on_c, 2, 66, 51
1, 17666, Note_on_c, 4, 58, 50
1, 17666, Note_on_c, 2, 70, 51
1, 17667, Note_on_c, 4, 61, 70
1, 17667, Note_on_c, 4, 66, 52
1, 17667, Note_on_c, 2, 73, 51
1, 17668, Note_on_c, 3, 63, 89
1, 17668, Lyric_t, "if "
1, 17670, Note_on_c, 9, 36, 0
1, 17670, Note_on_c, 9, 42, 0
1, 17674, Note_on_c, 2, 68, 0
1, 17674, Note_on_c, 2, 72, 0
1, 17674, Note_on_c, 2, 75, 0
1, 17727, Note_on_c, 3, 61, 85
1, 17727, Lyric_t, "we're "
1, 17730, Note_on_c, 3, 63, 0
1, 17748, Note_on_c, 3, 61, 0
1, 17754, Note_on_c, 4, 58, 0
1, 17756, Note_on_c, 4, 61, 0
1, 17760, Note_on_c, 9, 42, 59
1, 17761, Lyric_t, "gon"
1, 17761, Note_on_c, 3, 61, 85
1, 17766, Note_on_c, 9, 42, 0
1, 17767, Note_on_c, 1, 42, 0
1, 17802, Note_on_c, 4, 66, 0
1, 17813, Note_on_c, 3, 61, 0
1, 17821, Note_on_c, 0, 54, 0
1, 17822, Note_on_c, 0, 54, 84
1, 17824, Note_on_c, 1, 42, 77
1, 17824, Note_on_c, 9, 36, 80
1, 17825, Note_on_c, 3, 61, 84
1, 17825, Lyric_t, "na "
1, 17830, Note_on_c, 9, 36, 0
1, 17853, Note_on_c, 0, 70, 0
1, 17853, Note_on_c, 0, 66, 0
1, 17853, Note_on_c, 0, 73, 0
1, 17854, Note_on_c, 0, 70, 101
1, 17854, Note_on_c, 0, 73, 93
1, 17854, Note_on_c, 0, 66, 115
1, 17855, Note_on_c, 1, 42, 0
1, 17855, Note_on_c, 4, 58, 49
1, 17855, Note_on_c, 4, 61, 54
1, 17856, Note_on_c, 9, 42, 88
1, 17856, Note_on_c, 9, 38, 107
1, 17856, Note_on_c, 1, 42, 83
1, 17858, Note_on_c, 3, 61, 0
1, 17858, Note_on_c, 4, 66, 46
1, 17859, Note_on_c, 3, 63, 83
1, 17859, Lyric_t, "stay "
1, 17862, Note_on_c, 9, 38, 0
1, 17862, Note_on_c, 9, 42, 0
1, 17908, Note_on_c, 4, 66, 0
1, 17917, Note_on_c, 4, 58, 0
1, 17917, Note_on_c, 4, 61, 0
1, 17917, Note_on_c, 4, 54, 0
1, 17917, Note_on_c, 4, 66, 83
1, 17918, Note_on_c, 4, 61, 79
1, 17920, Note_on_c, 4, 54, 50
1, 17920, Note_on_c, 4, 58, 76
1, 17922, Note_on_c, 3, 63, 0
1, 17923, Lyric_t, "a"
1, 17923, Note_on_c, 3, 65, 85
1, 17937, Note_on_c, 1, 42, 0
1, 17944, Note_on_c, 4, 54, 0
1, 17944, Note_on_c, 4, 61, 0
1, 17946, Note_on_c, 4, 66, 0
1, 17947, Note_on_c, 4, 58, 0
1, 17948, Note_on_c, 0, 73, 0
1, 17949, Note_on_c, 0, 73, 37
1, 17951, Note_on_c, 0, 54, 0
1, 17952, Note_on_c, 9, 42, 45
1, 17952, Note_on_c, 0, 54, 93
1, 17956, Note_on_c, 3, 65, 0
1, 17958, Note_on_c, 9, 42, 0
1, 18010, Note_on_c, 4, 52, 20
1, 18012, Note_on_c, 4, 61, 35
1, 18014, Lyric_t, ""
1, 18014, Lyric_t, "\015"
1, 18014, Lyric_t, "live; "
1, 18014, Note_on_c, 3, 61, 85
1, 18015, Note_on_c, 4, 46, 20
1, 18016, Note_on_c, 9, 38, 107
1, 18016, Note_on_c, 1, 42, 104
1, 18017, Note_on_c, 4, 43, 20
1, 18022, Note_on_c, 9, 38, 0
1, 18027, Note_on_c, 1, 42, 0
1, 18039, Note_on_c, 0, 66, 0
1, 18039, Note_on_c, 0, 42, 0
1, 18039, Note_on_c, 0, 73, 0
1, 18039, Note_on_c, 0, 54, 0
1, 18039, Note_on_c, 0, 70, 0
1, 18039, Note_on_c, 4, 52, 0
1, 18042, Note_on_c, 4, 61, 0
1, 18042, Note_on_c, 4, 43, 0
1, 18044, Note_on_c, 4, 46, 0
1, 18046, Note_on_c, 4, 58, 47
1, 18046, Note_on_c, 4, 66, 69
1, 18046, Note_on_c, 4, 54, 52
1, 18048, Note_on_c, 0, 42, 93
1, 18048, Note_on_c, 0, 54, 103
1, 18048, Note_on_c, 1, 42, 101
1, 18048, Note_on_c, 9, 36, 73
1, 18048, Note_on_c, 0, 61, 115
1, 18048, Note_on_c, 9, 42, 101
1, 18050, Note_on_c, 4, 61, 79
1, 18054, Note_on_c, 9, 42, 0
1, 18054, Note_on_c, 9, 36, 0
1, 18059, Note_on_c, 3, 61, 0
1, 18078, Note_on_c, 0, 66, 80
1, 18108, Note_on_c, 1, 42, 0
1, 18111, Note_on_c, 3, 56, 81
1, 18111, Note_on_c, 0, 68, 89
1, 18112, Note_on_c, 9, 36, 61
1, 18112, Note_on_c, 1, 37, 77
1, 18118, Note_on_c, 9, 36, 0
1, 18126, Pitch_bend_c, 3, 8452
1, 18128, Pitch_bend_c, 3, 8842
1, 18130, Pitch_bend_c, 3, 9492
1, 18132, Pitch_bend_c, 3, 9882
1, 18134, Note_on_c, 1, 37, 0
1, 18134, Pitch_bend_c, 3, 10532
1, 18136, Pitch_bend_c, 3, 11312
1, 18138, Pitch_bend_c, 3, 11702
1, 18140, Pitch_bend_c, 3, 11962
1, 18142, Note_on_c, 4, 61, 0
1, 18142, Pitch_bend_c, 3, 13132
1, 18144, Note_on_c, 0, 70, 89
1, 18144, Pitch_bend_c, 3, 13912
1, 18144, Note_on_c, 9, 42, 50
1, 18146, Note_on_c, 4, 66, 0
1, 18146, Pitch_bend_c, 3, 14302
1, 18146, Note_on_c, 4, 61, 52
1, 18147, Pitch_bend_c, 3, 14692
1, 18147, Note_on_c, 4, 52, 20
1, 18150, Note_on_c, 9, 42, 0
1, 18150, Pitch_bend_c, 3, 15732
1, 18151, Pitch_bend_c, 3, 16382
1, 18186, Lyric_t, ""
1, 18186, Lyric_t, "\015"
1, 18190, Note_on_c, 4, 52, 0
1, 18198, Note_on_c, 4, 61, 0
1, 18202, Note_on_c, 4, 52, 20
1, 18205, Note_on_c, 0, 54, 0
1, 18205, Note_on_c, 4, 61, 32
1, 18206, Note_on_c, 0, 54, 79
1, 18207, Note_on_c, 0, 73, 115
1, 18208, Note_on_c, 4, 58, 0
1, 18208, Note_on_c, 1, 42, 86
1, 18208, Note_on_c, 9, 36, 61
1, 18209, Note_on_c, 4, 58, 27
1, 18214, Note_on_c, 9, 36, 0
1, 18227, Note_on_c, 1, 42, 0
1, 18233, Note_on_c, 4, 52, 0
1, 18234, Note_on_c, 4, 61, 0
1, 18237, Note_on_c, 4, 54, 0
1, 18238, Note_on_c, 4, 58, 0
1, 18238, Note_on_c, 4, 54, 42
1, 18240, Note_on_c, 4, 58, 64
1, 18240, Note_on_c, 4, 61, 68
1, 18240, Note_on_c, 9, 38, 111
1, 18240, Note_on_c, 9, 46, 77
1, 18242, Note_on_c, 4, 66, 61
1, 18243, Note_on_c, 0, 75, 72
1, 18246, Note_on_c, 9, 46, 0
1, 18246, Note_on_c, 9, 38, 0
1, 18290, Note_on_c, 4, 66, 0
1, 18298, Note_on_c, 4, 61, 0
1, 18299, Note_on_c, 4, 54, 0
1, 18300, Note_on_c, 4, 58, 0
1, 18300, Note_on_c, 4, 66, 75
1, 18302, Note_on_c, 4, 61, 79
1, 18302, Note_on_c, 4, 58, 75
1, 18302, Note_on_c, 0, 78, 86
1, 18303, Note_on_c, 4, 54, 61
1, 18304, Note_on_c, 9, 36, 70
1, 18304, Note_on_c, 1, 37, 92
1, 18310, Note_on_c, 9, 36, 0
1, 18330, Note_on_c, 4, 66, 0
1, 18331, Note_on_c, 4, 61, 0
1, 18333, Note_on_c, 0, 54, 0
1, 18334, Note_on_c, 4, 54, 0
1, 18334, Note_on_c, 3, 56, 0
1, 18334, Note_on_c, 0, 80, 99
1, 18334, Pitch_bend_c, 3, 16252
1, 18334, Note_on_c, 0, 54, 87
1, 18335, Note_on_c, 4, 61, 62
1, 18335, Note_on_c, 4, 54, 51
1, 18336, Pitch_bend_c, 3, 14562
1, 18336, Note_on_c, 9, 42, 77
1, 18338, Note_on_c, 4, 66, 75
1, 18339, Pitch_bend_c, 3, 13782
1, 18340, Pitch_bend_c, 3, 8192
1, 18342, Note_on_c, 9, 42, 0
1, 18367, Note_on_c, 1, 37, 0
1, 18368, Note_on_c, 9, 45, 70
1, 18368, Note_on_c, 1, 42, 93
1, 18374, Note_on_c, 9, 45, 0
1, 18381, Note_on_c, 4, 66, 0
1, 18383, Note_on_c, 1, 42, 0
1, 18385, Note_on_c, 4, 61, 0
1, 18385, Note_on_c, 4, 58, 0
1, 18395, Note_on_c, 4, 54, 0
1, 18395, Note_on_c, 0, 73, 0
1, 18396, Note_on_c, 0, 73, 48
1, 18400, Note_on_c, 9, 45, 48
1, 18400, Note_on_c, 1, 42, 94
1, 18405, Note_on_c, 0, 66, 0
1, 18405, Note_on_c, 0, 80, 0
1, 18405, Note_on_c, 0, 75, 0
1, 18405, Note_on_c, 0, 68, 0
1, 18405, Note_on_c, 0, 42, 0
1, 18405, Note_on_c, 0, 61, 0
1, 18405, Note_on_c, 0, 70, 0
1, 18405, Note_on_c, 0, 78, 0
1, 18405, Note_on_c, 0, 54, 0
1, 18406, Note_on_c, 9, 45, 0
1, 18419, Note_on_c, 1, 42, 0
1, 18425, Note_on_c, 0, 73, 0
1, 18427, Note_on_c, 2, 73, 0
1, 18428, Note_on_c, 2, 73, 60
1, 18428, Note_on_c, 2, 68, 59
1, 18429, Note_on_c, 0, 49, 93
1, 18429, Note_on_c, 0, 73, 28
1, 18430, Note_on_c, 0, 77, 97
1, 18430, Note_on_c, 0, 37, 106
1, 18430, Note_on_c, 0, 80, 91
1, 18431, Note_on_c, 2, 66, 0
1, 18431, Note_on_c, 2, 70, 0
1, 18431, Note_on_c, 4, 53, 52
1, 18432, Note_on_c, 9, 36, 98
1, 18432, Note_on_c, 1, 37, 93
1, 18432, Note_on_c, 2, 65, 62
1, 18432, Note_on_c, 9, 42, 91
1, 18433, Note_on_c, 4, 56, 62
1, 18434, Note_on_c, 4, 61, 66
1, 18434, Note_on_c, 4, 65, 55
1, 18438, Note_on_c, 9, 42, 0
1, 18438, Note_on_c, 9, 36, 0
1, 18514, Note_on_c, 1, 37, 0
1, 18520, Note_on_c, 4, 56, 0
1, 18522, Note_on_c, 4, 61, 0
1, 18527, Note_on_c, 4, 65, 0
1, 18528, Note_on_c, 9, 42, 55
1, 18529, Lyric_t, "watch "
1, 18529, Note_on_c, 3, 65, 97
1, 18530, Note_on_c, 4, 51, 20
1, 18534, Note_on_c, 9, 42, 0
1, 18574, Note_on_c, 4, 51, 0
1, 18578, Note_on_c, 3, 65, 0
1, 18587, Note_on_c, 4, 51, 20
1, 18589, Note_on_c, 0, 49, 0
1, 18590, Note_on_c, 0, 49, 69
1, 18590, Note_on_c, 4, 48, 20
1, 18592, Note_on_c, 9, 36, 82
1, 18592, Note_on_c, 1, 41, 92
1, 18593, Note_on_c, 3, 65, 85
1, 18593, Lyric_t, "the "
1, 18598, Note_on_c, 9, 36, 0
1, 18616, Note_on_c, 4, 53, 0
1, 18621, Note_on_c, 0, 80, 0
1, 18621, Note_on_c, 4, 51, 0
1, 18621, Note_on_c, 0, 73, 0
1, 18622, Note_on_c, 4, 48, 0
1, 18622, Note_on_c, 0, 80, 97
1, 18622, Note_on_c, 4, 53, 49
1, 18622, Note_on_c, 0, 73, 112
1, 18623, Note_on_c, 1, 41, 0
1, 18624, Note_on_c, 1, 44, 86
1, 18624, Note_on_c, 9, 42, 97
1, 18624, Note_on_c, 9, 38, 109
1, 18625, Note_on_c, 3, 65, 0
1, 18625, Note_on_c, 4, 56, 72
1, 18625, Note_on_c, 4, 61, 78
1, 18626, Note_on_c, 3, 68, 95
1, 18626, Note_on_c, 4, 65, 81
1, 18626, Lyric_t, "black "
1, 18630, Note_on_c, 9, 38, 0
1, 18630, Note_on_c, 9, 42, 0
1, 18678, Note_on_c, 4, 65, 0
1, 18679, Note_on_c, 4, 61, 0
1, 18684, Note_on_c, 4, 65, 83
1, 18685, Note_on_c, 0, 77, 0
1, 18686, Note_on_c, 0, 77, 83
1, 18686, Note_on_c, 4, 61, 78
1, 18709, Note_on_c, 3, 68, 0
1, 18714, Note_on_c, 4, 65, 0
1, 18715, Note_on_c, 4, 61, 0
1, 18717, Note_on_c, 0, 61, 75
1, 18719, Note_on_c, 1, 44, 0
1, 18719, Note_on_c, 4, 56, 0
1, 18720, Note_on_c, 4, 56, 70
1, 18720, Note_on_c, 9, 42, 45
1, 18720, Note_on_c, 4, 61, 62
1, 18720, Note_on_c, 1, 37, 80
1, 18722, Note_on_c, 3, 70, 85
1, 18722, Note_on_c, 4, 65, 50
1, 18722, Lyric_t, "smoke "
1, 18726, Note_on_c, 9, 42, 0
1, 18748, Note_on_c, 4, 65, 0
1, 18749, Note_on_c, 4, 56, 0
1, 18750, Note_on_c, 4, 61, 0
1, 18766, Note_on_c, 4, 53, 0
1, 18778, Note_on_c, 3, 70, 0
1, 18779, Note_on_c, 0, 73, 0
1, 18780, Note_on_c, 0, 73, 57
1, 18784, Note_on_c, 9, 38, 103
1, 18790, Note_on_c, 9, 38, 0
1, 18797, Note_on_c, 0, 80, 0
1, 18797, Note_on_c, 0, 77, 0
1, 18797, Note_on_c, 0, 73, 0
1, 18797, Note_on_c, 0, 37, 0
1, 18797, Note_on_c, 0, 49, 0
1, 18797, Note_on_c, 0, 61, 0
1, 18805, Note_on_c, 1, 37, 0
1, 18813, Note_on_c, 0, 56, 93
1, 18813, Note_on_c, 0, 44, 89
1, 18814, Note_on_c, 4, 56, 57
1, 18814, Note_on_c, 0, 80, 77
1, 18814, Note_on_c, 0, 72, 100
1, 18814, Note_on_c, 4, 63, 61
1, 18814, Note_on_c, 4, 60, 30
1, 18814, Note_on_c, 2, 75, 59
1, 18814, Note_on_c, 0, 75, 75
1, 18815, Note_on_c, 2, 65, 0
1, 18815, Note_on_c, 2, 73, 0
1, 18815, Note_on_c, 2, 68, 0
1, 18815, Note_on_c, 3, 63, 85
1, 18815, Lyric_t, "fly "
1, 18816, Note_on_c, 9, 36, 63
1, 18816, Note_on_c, 1, 44, 85
1, 18816, Note_on_c, 9, 42, 97
1, 18818, Pitch_bend_c, 3, 8452
1, 18818, Note_on_c, 2, 72, 60
1, 18818, Note_on_c, 2, 68, 58
1, 18818, Note_on_c, 4, 68, 59
1, 18819, Pitch_bend_c, 3, 8842
1, 18822, Note_on_c, 9, 42, 0
1, 18822, Note_on_c, 9, 36, 0
1, 18822, Pitch_bend_c, 3, 9752
1, 18823, Pitch_bend_c, 3, 10402
1, 18826, Pitch_bend_c, 3, 11312
1, 18827, Pitch_bend_c, 3, 12092
1, 18829, Pitch_bend_c, 3, 12872
1, 18831, Pitch_bend_c, 3, 13392
1, 18833, Pitch_bend_c, 3, 14172
1, 18835, Pitch_bend_c, 3, 14562
1, 18837, Pitch_bend_c, 3, 15342
1, 18838, Pitch_bend_c, 3, 15732
1, 18841, Pitch_bend_c, 3, 16252
1, 18856, Note_on_c, 1, 44, 0
1, 18870, Pitch_bend_c, 3, 16122
1, 18871, Pitch_bend_c, 3, 15862
1, 18874, Pitch_bend_c, 3, 15212
1, 18875, Pitch_bend_c, 3, 14562
1, 18877, Pitch_bend_c, 3, 13782
1, 18879, Pitch_bend_c, 3, 13262
1, 18880, Note_on_c, 9, 36, 72
1, 18880, Note_on_c, 1, 44, 86
1, 18881, Pitch_bend_c, 3, 12222
1, 18883, Pitch_bend_c, 3, 11052
1, 18885, Pitch_bend_c, 3, 10012
1, 18886, Note_on_c, 9, 36, 0
1, 18886, Pitch_bend_c, 3, 9622
1, 18889, Pitch_bend_c, 3, 8192
1, 18897, Note_on_c, 4, 60, 0
1, 18900, Note_on_c, 4, 63, 0
1, 18902, Note_on_c, 1, 44, 0
1, 18906, Note_on_c, 3, 63, 0
1, 18912, Note_on_c, 9, 42, 82
1, 18914, Lyric_t, "to "
1, 18914, Note_on_c, 3, 63, 93
1, 18918, Note_on_c, 9, 42, 0
1, 18943, Note_on_c, 4, 68, 0
1, 18949, Note_on_c, 4, 68, 25
1, 18951, Note_on_c, 4, 63, 39
1, 18974, Note_on_c, 3, 63, 0
1, 18976, Note_on_c, 9, 36, 62
1, 18976, Note_on_c, 1, 44, 86
1, 18978, Note_on_c, 3, 65, 88
1, 18978, Lyric_t, "heav"
1, 18979, Note_on_c, 4, 68, 0
1, 18981, Note_on_c, 4, 63, 0
1, 18982, Note_on_c, 9, 36, 0
1, 18999, Note_on_c, 1, 44, 0
1, 19003, Note_on_c, 4, 56, 0
1, 19005, Note_on_c, 0, 56, 0
1, 19006, Note_on_c, 0, 63, 103
1, 19006, Note_on_c, 0, 68, 109
1, 19006, Note_on_c, 0, 56, 109
1, 19008, Note_on_c, 0, 60, 106
1, 19008, Note_on_c, 1, 44, 87
1, 19008, Note_on_c, 9, 51, 55
1, 19008, Note_on_c, 9, 38, 109
1, 19008, Note_on_c, 9, 46, 62
1, 19014, Note_on_c, 9, 46, 0
1, 19014, Note_on_c, 9, 38, 0
1, 19014, Note_on_c, 9, 51, 0
1, 19026, Note_on_c, 3, 65, 0
1, 19058, Note_on_c, 1, 44, 0
1, 19067, Note_on_c, 4, 68, 82
1, 19069, Note_on_c, 4, 63, 77
1, 19069, Note_on_c, 4, 56, 49
1, 19069, Note_on_c, 4, 60, 71
1, 19072, Note_on_c, 1, 44, 91
1, 19073, Note_on_c, 3, 63, 84
1, 19073, Lyric_t, ""
1, 19073, Lyric_t, "\015"
1, 19073, Lyric_t, "en, "
1, 19090, Note_on_c, 1, 44, 0
1, 19097, Note_on_c, 4, 68, 0
1, 19098, Note_on_c, 4, 60, 0
1, 19098, Note_on_c, 4, 63, 0
1, 19102, Note_on_c, 4, 60, 69
1, 19103, Note_on_c, 0, 44, 0
1, 19104, Note_on_c, 9, 42, 67
1, 19104, Note_on_c, 0, 44, 60
1, 19105, Note_on_c, 3, 63, 0
1, 19105, Note_on_c, 4, 63, 67
1, 19106, Note_on_c, 0, 60, 0
1, 19106, Lyric_t, "see "
1, 19106, Note_on_c, 3, 63, 90
1, 19106, Note_on_c, 4, 68, 54
1, 19107, Note_on_c, 0, 60, 65
1, 19110, Note_on_c, 9, 42, 0
1, 19134, Note_on_c, 4, 63, 0
1, 19135, Note_on_c, 4, 68, 0
1, 19152, Note_on_c, 4, 60, 0
1, 19165, Note_on_c, 4, 56, 0
1, 19168, Note_on_c, 3, 63, 0
1, 19168, Note_on_c, 9, 36, 59
1, 19168, Note_on_c, 1, 44, 85
1, 19169, Lyric_t, "the "
1, 19169, Note_on_c, 3, 61, 78
1, 19174, Note_on_c, 9, 36, 0
1, 19177, Note_on_c, 0, 63, 0
1, 19177, Note_on_c, 0, 60, 0
1, 19177, Note_on_c, 0, 56, 0
1, 19177, Note_on_c, 0, 80, 0
1, 19177, Note_on_c, 0, 68, 0
1, 19177, Note_on_c, 0, 44, 0
1, 19177, Note_on_c, 0, 72, 0
1, 19177, Note_on_c, 0, 75, 0
1, 19197, Note_on_c, 1, 44, 0
1, 19197, Note_on_c, 4, 61, 63
1, 19197, Note_on_c, 4, 58, 44
1, 19197, Note_on_c, 4, 54, 39
1, 19199, Note_on_c, 4, 66, 56
1, 19200, Note_on_c, 0, 70, 93
1, 19200, Note_on_c, 0, 54, 103
1, 19200, Note_on_c, 9, 36, 95
1, 19200, Note_on_c, 1, 42, 103
1, 19200, Note_on_c, 0, 61, 106
1, 19200, Note_on_c, 9, 42, 101
1, 19200, Note_on_c, 2, 78, 58
1, 19200, Note_on_c, 0, 66, 84
1, 19200, Note_on_c, 2, 73, 58
1, 19201, Note_on_c, 0, 42, 101
1, 19202, Note_on_c, 3, 61, 0
1, 19202, Note_on_c, 2, 70, 58
1, 19202, Note_on_c, 3, 63, 86
1, 19202, Lyric_t, "red "
1, 19206, Note_on_c, 9, 36, 0
1, 19206, Note_on_c, 2, 68, 0
1, 19206, Note_on_c, 2, 75, 0
1, 19206, Note_on_c, 9, 42, 0
1, 19206, Note_on_c, 2, 72, 0
1, 19293, Note_on_c, 3, 63, 0
1, 19294, Note_on_c, 1, 42, 0
1, 19296, Note_on_c, 4, 61, 0
1, 19296, Note_on_c, 9, 42, 43
1, 19298, Lyric_t, "flame "
1, 19298, Note_on_c, 3, 61, 78
1, 19302, Note_on_c, 9, 42, 0
1, 19338, Note_on_c, 4, 66, 0
1, 19352, Note_on_c, 4, 52, 20
1, 19354, Note_on_c, 3, 61, 0
1, 19356, Note_on_c, 4, 58, 0
1, 19357, Note_on_c, 0, 66, 0
1, 19357, Note_on_c, 0, 70, 0
1, 19357, Note_on_c, 0, 61, 0
1, 19358, Note_on_c, 0, 61, 99
1, 19358, Note_on_c, 0, 66, 89
1, 19358, Note_on_c, 0, 70, 86
1, 19360, Note_on_c, 1, 37, 84
1, 19360, Note_on_c, 9, 36, 58
1, 19366, Note_on_c, 9, 36, 0
1, 19389, Note_on_c, 1, 37, 0
1, 19390, Note_on_c, 4, 58, 44
1, 19391, Note_on_c, 0, 54, 0
1, 19391, Note_on_c, 4, 61, 32
1, 19392, Note_on_c, 0, 54, 74
1, 19392, Note_on_c, 9, 38, 110
1, 19392, Note_on_c, 9, 42, 105
1, 19392, Note_on_c, 1, 42, 86
1, 19394, Note_on_c, 3, 63, 87
1, 19394, Lyric_t, "light "
1, 19398, Note_on_c, 9, 42, 0
1, 19398, Note_on_c, 9, 38, 0
1, 19449, Note_on_c, 4, 54, 0
1, 19450, Note_on_c, 3, 63, 0
1, 19450, Note_on_c, 4, 61, 0
1, 19450, Note_on_c, 4, 52, 0
1, 19451, Note_on_c, 4, 58, 0
1, 19452, Note_on_c, 4, 66, 83
1, 19453, Note_on_c, 0, 61, 0
1, 19453, Note_on_c, 0, 66, 0
1, 19453, Note_on_c, 0, 70, 0
1, 19454, Note_on_c, 0, 70, 95
1, 19454, Note_on_c, 0, 61, 106
1, 19454, Note_on_c, 4, 61, 78
1, 19454, Note_on_c, 0, 66, 93
1, 19455, Note_on_c, 4, 54, 56
1, 19455, Note_on_c, 4, 58, 73
1, 19481, Note_on_c, 1, 42, 0
1, 19482, Note_on_c, 4, 66, 0
1, 19483, Note_on_c, 4, 61, 0
1, 19486, Note_on_c, 4, 58, 0
1, 19486, Note_on_c, 4, 54, 0
1, 19487, Note_on_c, 0, 54, 0
1, 19488, Note_on_c, 0, 54, 75
1, 19488, Note_on_c, 9, 42, 46
1, 19489, Lyric_t, "the "
1, 19489, Note_on_c, 3, 65, 87
1, 19494, Note_on_c, 9, 42, 0
1, 19547, Note_on_c, 0, 61, 0
1, 19548, Note_on_c, 3, 65, 0
1, 19548, Note_on_c, 0, 61, 57
1, 19550, Note_on_c, 4, 46, 20
1, 19552, Note_on_c, 1, 42, 86
1, 19552, Note_on_c, 4, 48, 20
1, 19553, Lyric_t, "sky. "
1, 19553, Note_on_c, 3, 61, 86
1, 19553, Lyric_t, ""
1, 19553, Lyric_t, "\015"
1, 19554, Note_on_c, 4, 43, 20
1, 19573, Note_on_c, 0, 61, 0
1, 19573, Note_on_c, 0, 70, 0
1, 19573, Note_on_c, 0, 42, 0
1, 19573, Note_on_c, 0, 54, 0
1, 19573, Note_on_c, 0, 66, 0
1, 19574, Note_on_c, 1, 42, 0
1, 19578, Note_on_c, 4, 43, 0
1, 19579, Note_on_c, 4, 48, 0
1, 19580, Note_on_c, 4, 46, 0
1, 19582, Note_on_c, 4, 54, 63
1, 19582, Note_on_c, 4, 61, 61
1, 19582, Note_on_c, 0, 54, 97
1, 19583, Note_on_c, 4, 58, 56
1, 19584, Note_on_c, 1, 42, 95
1, 19584, Note_on_c, 9, 42, 101
1, 19584, Note_on_c, 9, 36, 75
1, 19584, Note_on_c, 0, 61, 115
1, 19584, Note_on_c, 0, 42, 83
1, 19585, Note_on_c, 4, 66, 66
1, 19590, Note_on_c, 9, 36, 0
1, 19590, Note_on_c, 9, 42, 0
1, 19597, Note_on_c, 3, 61, 0
1, 19601, Note_on_c, 0, 61, 0
1, 19614, Note_on_c, 0, 66, 77
1, 19638, Note_on_c, 1, 42, 0
1, 19646, Note_on_c, 0, 68, 89
1, 19646, Note_on_c, 3, 56, 93
1, 19648, Note_on_c, 1, 37, 76
1, 19654, Note_on_c, 9, 38, 69
1, 19660, Note_on_c, 9, 38, 0
1, 19662, Pitch_bend_c, 3, 8452
1, 19664, Pitch_bend_c, 3, 9492
1, 19665, Note_on_c, 9, 38, 70
1, 19666, Pitch_bend_c, 3, 10012
1, 19667, Note_on_c, 1, 37, 0
1, 19668, Pitch_bend_c, 3, 11442
1, 19670, Pitch_bend_c, 3, 12092
1, 19671, Note_on_c, 9, 38, 0
1, 19672, Pitch_bend_c, 3, 13522
1, 19674, Pitch_bend_c, 3, 14172
1, 19674, Note_on_c, 9, 38, 73
1, 19676, Note_on_c, 4, 58, 0
1, 19676, Pitch_bend_c, 3, 15602
1, 19678, Pitch_bend_c, 3, 16122
1, 19679, Note_on_c, 9, 38, 0
1, 19680, Note_on_c, 9, 42, 69
1, 19680, Note_on_c, 0, 70, 99
1, 19680, Pitch_bend_c, 3, 16382
1, 19680, Note_on_c, 9, 38, 109
1, 19686, Note_on_c, 9, 38, 0
1, 19686, Note_on_c, 9, 42, 0
1, 19691, Note_on_c, 4, 66, 0
1, 19712, Note_on_c, 9, 38, 104
1, 19718, Note_on_c, 9, 38, 0
1, 19724, Lyric_t, ""
1, 19724, Lyric_t, "\015"
1, 19742, Note_on_c, 0, 73, 112
1, 19744, Note_on_c, 1, 42, 97
1, 19744, Note_on_c, 9, 38, 95
1, 19750, Note_on_c, 9, 38, 0
1, 19769, Note_on_c, 1, 42, 0
1, 19771, Note_on_c, 4, 54, 0
1, 19773, Note_on_c, 4, 61, 0
1, 19773, Note_on_c, 4, 54, 27
1, 19775, Note_on_c, 0, 54, 0
1, 19776, Note_on_c, 9, 42, 105
1, 19776, Note_on_c, 0, 54, 109
1, 19776, Note_on_c, 9, 45, 75
1, 19776, Note_on_c, 0, 75, 89
1, 19782, Note_on_c, 9, 45, 0
1, 19782, Note_on_c, 9, 42, 0
1, 19808, Note_on_c, 9, 38, 116
1, 19814, Note_on_c, 9, 38, 0
1, 19834, Note_on_c, 4, 54, 0
1, 19837, Note_on_c, 4, 66, 63
1, 19838, Note_on_c, 4, 61, 78
1, 19838, Note_on_c, 0, 78, 76
1, 19839, Note_on_c, 4, 58, 75
1, 19840, Note_on_c, 1, 42, 80
1, 19840, Note_on_c, 9, 45, 78
1, 19842, Note_on_c, 4, 54, 60
1, 19846, Note_on_c, 9, 45, 0
1, 19850, Note_on_c, 1, 42, 0
1, 19850, Pitch_bend_c, 3, 16122
1, 19853, Pitch_bend_c, 3, 15082
1, 19854, Note_on_c, 3, 56, 0
1, 19854, Pitch_bend_c, 3, 14562
1, 19856, Pitch_bend_c, 3, 13262
1, 19858, Pitch_bend_c, 3, 11702
1, 19860, Pitch_bend_c, 3, 10662
1, 19862, Pitch_bend_c, 3, 8842
1, 19864, Pitch_bend_c, 3, 8192
1, 19866, Note_on_c, 4, 66, 0
1, 19867, Note_on_c, 4, 54, 0
1, 19869, Note_on_c, 0, 42, 0
1, 19869, Note_on_c, 4, 61, 0
1, 19869, Note_on_c, 0, 73, 0
1, 19870, Note_on_c, 4, 58, 0
1, 19870, Note_on_c, 4, 54, 61
1, 19870, Note_on_c, 0, 80, 86
1, 19870, Note_on_c, 0, 73, 112
1, 19870, Note_on_c, 0, 42, 73
1, 19872, Note_on_c, 0, 54, 0
1, 19872, Note_on_c, 1, 42, 98
1, 19872, Note_on_c, 9, 38, 111
1, 19873, Note_on_c, 4, 58, 67
1, 19873, Note_on_c, 0, 54, 46
1, 19874, Note_on_c, 4, 66, 83
1, 19874, Note_on_c, 4, 61, 74
1, 19878, Note_on_c, 9, 38, 0
1, 19888, Note_on_c, 1, 42, 0
1, 19904, Note_on_c, 9, 38, 118
1, 19910, Note_on_c, 9, 38, 0
1, 19922, Note_on_c, 4, 61, 0
1, 19922, Note_on_c, 4, 66, 0
1, 19922, Note_on_c, 4, 58, 0
1, 19936, Note_on_c, 9, 44, 85
1, 19936, Note_on_c, 1, 42, 106
1, 19942, Note_on_c, 9, 44, 0
1, 19946, Note_on_c, 4, 54, 0
1, 19961, Note_on_c, 0, 66, 0
1, 19961, Note_on_c, 0, 78, 0
1, 19961, Note_on_c, 0, 68, 0
1, 19961, Note_on_c, 0, 75, 0
1, 19961, Note_on_c, 0, 70, 0
1, 19961, Note_on_c, 0, 54, 0
1, 19961, Note_on_c, 0, 80, 0
1, 19961, Note_on_c, 0, 42, 0
1, 19961, Note_on_c, 0, 73, 0
1, 19962, Note_on_c, 1, 42, 0
1, 19964, Note_on_c, 2, 79, 61
1, 19964, Note_on_c, 2, 75, 61
1, 19965, Note_on_c, 2, 70, 0
1, 19965, Note_on_c, 2, 78, 0
1, 19965, Note_on_c, 2, 73, 0
1, 19966, Note_on_c, 4, 55, 63
1, 19966, Note_on_c, 2, 70, 61
1, 19968, Note_on_c, 4, 58, 75
1, 19968, Note_on_c, 9, 42, 85
1, 19968, Note_on_c, 9, 57, 78
1, 19968, Note_on_c, 1, 34, 98
1, 19968, Note_on_c, 9, 36, 82
1, 19969, Note_on_c, 0, 79, 89
1, 19970, Note_on_c, 0, 75, 84
1, 19970, Note_on_c, 4, 63, 76
1, 19970, Note_on_c, 4, 67, 50
1, 19970, Note_on_c, 0, 46, 95
1, 19970, Note_on_c, 0, 70, 103
1, 19974, Note_on_c, 9, 36, 0
1, 19974, Note_on_c, 9, 57, 0
1, 19974, Note_on_c, 9, 42, 0
1, 20032, Note_on_c, 9, 36, 66
1, 20038, Note_on_c, 9, 36, 0
1, 20051, Note_on_c, 4, 58, 0
1, 20064, Lyric_t, "Burn "
1, 20064, Note_on_c, 3, 67, 105
1, 20064, Note_on_c, 9, 42, 51
1, 20070, Note_on_c, 9, 42, 0
1, 20090, Note_on_c, 4, 67, 0
1, 20096, Note_on_c, 3, 67, 0
1, 20106, Note_on_c, 1, 34, 0
1, 20106, Note_on_c, 4, 63, 0
1, 20125, Note_on_c, 0, 79, 0
1, 20125, Note_on_c, 0, 70, 0
1, 20125, Note_on_c, 0, 75, 0
1, 20125, Note_on_c, 0, 58, 109
1, 20126, Note_on_c, 0, 70, 112
1, 20126, Note_on_c, 4, 63, 36
1, 20126, Note_on_c, 4, 67, 20
1, 20126, Note_on_c, 0, 75, 95
1, 20126, Note_on_c, 0, 79, 96
1, 20128, Note_on_c, 9, 36, 72
1, 20131, Note_on_c, 3, 70, 104
1, 20131, Lyric_t, "down "
1, 20134, Note_on_c, 9, 36, 0
1, 20154, Note_on_c, 4, 63, 0
1, 20154, Note_on_c, 4, 67, 0
1, 20160, Note_on_c, 1, 34, 91
1, 20160, Note_on_c, 9, 38, 110
1, 20160, Note_on_c, 9, 46, 85
1, 20162, Note_on_c, 4, 58, 46
1, 20162, Note_on_c, 4, 63, 63
1, 20165, Note_on_c, 4, 67, 55
1, 20166, Note_on_c, 9, 46, 0
1, 20166, Note_on_c, 9, 38, 0
1, 20210, Note_on_c, 4, 67, 0
1, 20218, Note_on_c, 4, 63, 0
1, 20219, Note_on_c, 0, 70, 0
1, 20219, Note_on_c, 4, 58, 0
1, 20220, Note_on_c, 0, 70, 69
1, 20222, Note_on_c, 4, 67, 83
1, 20222, Note_on_c, 4, 63, 75
1, 20223, Note_on_c, 4, 55, 0
1, 20223, Note_on_c, 4, 58, 76
1, 20225, Note_on_c, 4, 55, 56
1, 20252, Note_on_c, 4, 63, 0
1, 20252, Note_on_c, 4, 67, 0
1, 20254, Note_on_c, 4, 58, 0
1, 20255, Note_on_c, 0, 70, 0
1, 20255, Note_on_c, 0, 75, 0
1, 20255, Note_on_c, 0, 46, 0
1, 20255, Note_on_c, 4, 58, 68
1, 20256, Note_on_c, 1, 34, 0
1, 20256, Note_on_c, 9, 42, 65
1, 20256, Note_on_c, 0, 75, 89
1, 20256, Note_on_c, 0, 46, 81
1, 20256, Note_on_c, 0, 70, 112
1, 20258, Note_on_c, 4, 63, 70
1, 20262, Note_on_c, 9, 42, 0
1, 20307, Note_on_c, 4, 63, 0
1, 20308, Note_on_c, 4, 58, 0
1, 20316, Note_on_c, 3, 70, 0
1, 20317, Lyric_t, "the "
1, 20317, Note_on_c, 3, 72, 91
1, 20320, Note_on_c, 9, 36, 59
1, 20320, Note_on_c, 1, 34, 80
1, 20322, Note_on_c, 4, 55, 0
1, 20323, Note_on_c, 4, 43, 20
1, 20326, Note_on_c, 9, 36, 0
1, 20333, Note_on_c, 1, 34, 0
1, 20334, Note_on_c, 4, 43, 0
1, 20347, Note_on_c, 0, 70, 0
1, 20347, Note_on_c, 2, 79, 0
1, 20347, Note_on_c, 0, 79, 0
1, 20347, Note_on_c, 2, 75, 0
1, 20347, Note_on_c, 0, 58, 0
1, 20347, Note_on_c, 0, 75, 0
1, 20347, Note_on_c, 0, 46, 0
1, 20350, Note_on_c, 3, 72, 0
1, 20350, Note_on_c, 2, 74, 59
1, 20350, Note_on_c, 2, 77, 59
1, 20351, Note_on_c, 4, 53, 59
1, 20352, Note_on_c, 9, 42, 88
1, 20352, Note_on_c, 9, 36, 86
1, 20352, Note_on_c, 1, 34, 100
1, 20354, Note_on_c, 0, 46, 89
1, 20354, Note_on_c, 0, 58, 97
1, 20354, Note_on_c, 4, 67, 52
1, 20354, Note_on_c, 0, 65, 106
1, 20354, Note_on_c, 0, 74, 108
1, 20354, Note_on_c, 4, 58, 76
1, 20354, Note_on_c, 0, 70, 89
1, 20354, Note_on_c, 4, 62, 69
1, 20358, Note_on_c, 9, 36, 0
1, 20358, Note_on_c, 9, 42, 0
1, 20358, Lyric_t, "mis"
1, 20358, Note_on_c, 3, 67, 89
1, 20373, Note_on_c, 4, 67, 0
1, 20392, Note_on_c, 1, 34, 0
1, 20414, Note_on_c, 3, 65, 91
1, 20414, Lyric_t, "sion, "
1, 20414, Lyric_t, ""
1, 20414, Lyric_t, "\015"
1, 20415, Note_on_c, 3, 67, 0
1, 20416, Note_on_c, 1, 34, 73
1, 20434, Note_on_c, 1, 34, 0
1, 20442, Note_on_c, 4, 58, 0
1, 20448, Note_on_c, 9, 42, 43
1, 20449, Note_on_c, 0, 65, 0
1, 20450, Pitch_bend_c, 3, 9102
1, 20450, Note_on_c, 0, 65, 48
1, 20451, Pitch_bend_c, 3, 9882
1, 20454, Note_on_c, 9, 42, 0
1, 20454, Pitch_bend_c, 3, 11312
1, 20455, Pitch_bend_c, 3, 12612
1, 20458, Pitch_bend_c, 3, 13392
1, 20459, Pitch_bend_c, 3, 14822
1, 20461, Pitch_bend_c, 3, 15602
1, 20463, Pitch_bend_c, 3, 15992
1, 20478, Note_on_c, 4, 62, 0
1, 20505, Note_on_c, 4, 62, 51
1, 20509, Note_on_c, 0, 58, 0
1, 20509, Note_on_c, 0, 46, 0
1, 20509, Note_on_c, 0, 70, 0
1, 20509, Note_on_c, 0, 74, 0
1, 20509, Note_on_c, 0, 65, 0
1, 20509, Note_on_c, 4, 46, 20
1, 20510, Note_on_c, 0, 65, 106
1, 20510, Note_on_c, 0, 74, 106
1, 20510, Note_on_c, 0, 70, 99
1, 20510, Note_on_c, 0, 58, 89
1, 20510, Note_on_c, 0, 46, 91
1, 20512, Note_on_c, 9, 36, 80
1, 20512, Note_on_c, 1, 34, 77
1, 20513, Pitch_bend_c, 3, 15602
1, 20515, Pitch_bend_c, 3, 14692
1, 20517, Pitch_bend_c, 3, 13912
1, 20518, Note_on_c, 9, 36, 0
1, 20518, Pitch_bend_c, 3, 12742
1, 20521, Pitch_bend_c, 3, 11312
1, 20522, Pitch_bend_c, 3, 9752
1, 20525, Pitch_bend_c, 3, 9102
1, 20526, Pitch_bend_c, 3, 8192
1, 20534, Note_on_c, 4, 53, 0
1, 20535, Note_on_c, 4, 62, 0
1, 20537, Note_on_c, 1, 34, 0
1, 20538, Note_on_c, 4, 46, 0
1, 20544, Note_on_c, 9, 38, 107
1, 20544, Note_on_c, 1, 46, 89
1, 20544, Note_on_c, 9, 42, 88
1, 20550, Note_on_c, 9, 42, 0
1, 20550, Note_on_c, 9, 38, 0
1, 20558, Note_on_c, 1, 46, 0
1, 20576, Note_on_c, 1, 46, 83
1, 20601, Note_on_c, 1, 46, 0
1, 20605, Note_on_c, 3, 65, 0
1, 20606, Note_on_c, 0, 65, 0
1, 20606, Note_on_c, 4, 58, 75
1, 20606, Note_on_c, 4, 62, 79
1, 20607, Note_on_c, 0, 65, 62
1, 20607, Note_on_c, 4, 53, 70
1, 20608, Note_on_c, 1, 41, 89
1, 20633, Note_on_c, 1, 41, 0
1, 20635, Note_on_c, 4, 62, 0
1, 20636, Note_on_c, 4, 58, 0
1, 20639, Note_on_c, 4, 53, 0
1, 20640, Note_on_c, 0, 58, 0
1, 20640, Note_on_c, 0, 65, 0
1, 20640, Note_on_c, 0, 70, 0
1, 20640, Note_on_c, 1, 34, 82
1, 20640, Note_on_c, 9, 42, 45
1, 20641, Note_on_c, 0, 70, 97
1, 20641, Note_on_c, 0, 65, 93
1, 20641, Note_on_c, 0, 58, 99
1, 20642, Lyric_t, "burn "
1, 20642, Note_on_c, 3, 65, 94
1, 20646, Note_on_c, 9, 42, 0
1, 20684, Note_on_c, 1, 34, 0
1, 20701, Note_on_c, 0, 65, 0
1, 20702, Note_on_c, 3, 65, 0
1, 20702, Note_on_c, 0, 65, 67
1, 20703, Note_on_c, 3, 67, 83
1, 20703, Lyric_t, "it "
1, 20704, Note_on_c, 9, 38, 107
1, 20704, Note_on_c, 1, 34, 97
1, 20706, Note_on_c, 4, 44, 20
1, 20710, Note_on_c, 9, 38, 0
1, 20719, Note_on_c, 1, 34, 0
1, 20725, Note_on_c, 0, 46, 0
1, 20725, Note_on_c, 0, 70, 0
1, 20725, Note_on_c, 0, 65, 0
1, 20725, Note_on_c, 0, 58, 0
1, 20725, Note_on_c, 0, 74, 0
1, 20730, Note_on_c, 4, 44, 0
1, 20734, Note_on_c, 4, 56, 46
1, 20734, Note_on_c, 4, 60, 37
1, 20735, Note_on_c, 4, 63, 76
1, 20736, Note_on_c, 0, 56, 115
1, 20736, Note_on_c, 2, 68, 56
1, 20736, Note_on_c, 9, 42, 101
1, 20736, Note_on_c, 2, 75, 56
1, 20736, Note_on_c, 9, 36, 73
1, 20736, Note_on_c, 0, 68, 97
1, 20736, Note_on_c, 1, 32, 108
1, 20736, Note_on_c, 0, 72, 110
1, 20736, Note_on_c, 0, 44, 86
1, 20737, Note_on_c, 3, 67, 0
1, 20738, Note_on_c, 2, 74, 0
1, 20738, Note_on_c, 2, 70, 0
1, 20738, Note_on_c, 2, 77, 0
1, 20738, Note_on_c, 2, 72, 56
1, 20738, Lyric_t, "down "
1, 20738, Note_on_c, 4, 68, 57
1, 20738, Note_on_c, 3, 65, 86
1, 20742, Note_on_c, 9, 42, 0
1, 20742, Note_on_c, 9, 36, 0
1, 20798, Note_on_c, 3, 65, 0
1, 20800, Note_on_c, 9, 36, 61
1, 20801, Note_on_c, 3, 63, 85
1, 20806, Note_on_c, 9, 36, 0
1, 20830, Note_on_c, 4, 68, 0
1, 20832, Note_on_c, 0, 68, 0
1, 20832, Note_on_c, 9, 42, 50
1, 20833, Note_on_c, 0, 68, 27
1, 20838, Note_on_c, 9, 42, 0
1, 20853, Note_on_c, 3, 63, 0
1, 20855, Note_on_c, 1, 32, 0
1, 20870, Note_on_c, 4, 54, 20
1, 20876, Note_on_c, 4, 63, 0
1, 20882, Note_on_c, 4, 60, 0
1, 20893, Note_on_c, 0, 56, 0
1, 20893, Note_on_c, 0, 72, 0
1, 20893, Note_on_c, 0, 68, 0
1, 20894, Note_on_c, 0, 72, 110
1, 20894, Note_on_c, 0, 56, 97
1, 20894, Note_on_c, 0, 75, 97
1, 20894, Note_on_c, 0, 68, 124
1, 20894, Note_on_c, 0, 80, 99
1, 20896, Note_on_c, 9, 36, 61
1, 20898, Lyric_t, "to "
1, 20898, Note_on_c, 3, 63, 103
1, 20902, Note_on_c, 9, 36, 0
1, 20920, Note_on_c, 3, 63, 0
1, 20921, Note_on_c, 4, 54, 0
1, 20928, Note_on_c, 9, 38, 111
1, 20928, Note_on_c, 9, 46, 77
1, 20928, Note_on_c, 4, 68, 32
1, 20928, Note_on_c, 1, 32, 89
1, 20929, Note_on_c, 0, 72, 0
1, 20929, Note_on_c, 4, 60, 27
1, 20930, Note_on_c, 0, 72, 42
1, 20931, Note_on_c, 3, 65, 93
1, 20931, Lyric_t, "stay "
1, 20932, Note_on_c, 4, 63, 36
1, 20934, Note_on_c, 9, 38, 0
1, 20934, Note_on_c, 9, 46, 0
1, 20983, Note_on_c, 4, 68, 0
1, 20985, Note_on_c, 4, 60, 0
1, 20986, Note_on_c, 4, 63, 0
1, 20990, Note_on_c, 0, 68, 0
1, 20991, Note_on_c, 4, 60, 67
1, 20991, Note_on_c, 4, 68, 76
1, 20991, Note_on_c, 0, 68, 77
1, 20991, Note_on_c, 4, 63, 77
1, 20992, Note_on_c, 4, 56, 0
1, 20992, Note_on_c, 0, 72, 0
1, 20992, Note_on_c, 9, 36, 70
1, 20993, Note_on_c, 0, 72, 96
1, 20994, Note_on_c, 4, 56, 57
1, 20998, Note_on_c, 9, 36, 0
1, 21015, Note_on_c, 3, 65, 0
1, 21023, Note_on_c, 0, 44, 0
1, 21024, Note_on_c, 9, 42, 77
1, 21024, Note_on_c, 0, 44, 63
1, 21026, Note_on_c, 3, 67, 89
1, 21026, Lyric_t, "a"
1, 21030, Note_on_c, 9, 42, 0
1, 21033, Note_on_c, 4, 68, 0
1, 21036, Note_on_c, 4, 63, 0
1, 21041, Note_on_c, 4, 60, 0
1, 21043, Note_on_c, 4, 56, 0
1, 21056, Note_on_c, 9, 45, 70
1, 21061, Note_on_c, 3, 67, 0
1, 21062, Note_on_c, 9, 45, 0
1, 21085, Note_on_c, 0, 68, 0
1, 21086, Note_on_c, 0, 68, 73
1, 21088, Note_on_c, 9, 45, 48
1, 21089, Lyric_t, "live; "
1, 21089, Note_on_c, 3, 63, 91
1, 21089, Lyric_t, ""
1, 21089, Lyric_t, "\015"
1, 21094, Note_on_c, 9, 45, 0
1, 21117, Note_on_c, 0, 56, 0
1, 21117, Note_on_c, 0, 44, 0
1, 21118, Note_on_c, 4, 56, 39
1, 21118, Note_on_c, 0, 44, 80
1, 21118, Note_on_c, 0, 56, 77
1, 21119, Note_on_c, 4, 63, 73
1, 21119, Note_on_c, 4, 60, 59
1, 21120, Note_on_c, 9, 36, 98
1, 21120, Note_on_c, 9, 42, 91
1, 21122, Note_on_c, 1, 32, 0
1, 21122, Note_on_c, 4, 68, 75
1, 21126, Note_on_c, 9, 42, 0
1, 21126, Note_on_c, 9, 36, 0
1, 21164, Note_on_c, 3, 63, 0
1, 21181, Note_on_c, 0, 68, 0
1, 21181, Note_on_c, 0, 72, 0
1, 21182, Note_on_c, 0, 68, 106
1, 21182, Note_on_c, 0, 72, 108
1, 21183, Note_on_c, 3, 58, 84
1, 21184, Note_on_c, 1, 39, 97
1, 21196, Lyric_t, ""
1, 21196, Lyric_t, "\015"
1, 21197, Pitch_bend_c, 3, 8452
1, 21198, Pitch_bend_c, 3, 8712
1, 21200, Pitch_bend_c, 3, 10402
1, 21202, Pitch_bend_c, 3, 10922
1, 21204, Pitch_bend_c, 3, 12222
1, 21206, Pitch_bend_c, 3, 13262
1, 21208, Pitch_bend_c, 3, 14172
1, 21210, Pitch_bend_c, 3, 14822
1, 21211, Note_on_c, 4, 60, 0
1, 21212, Pitch_bend_c, 3, 14952
1, 21214, Pitch_bend_c, 3, 16252
1, 21216, Note_on_c, 1, 39, 0
1, 21216, Pitch_bend_c, 3, 16382
1, 21216, Note_on_c, 9, 42, 55
1, 21222, Note_on_c, 9, 42, 0
1, 21252, Note_on_c, 4, 68, 0
1, 21265, Note_on_c, 4, 63, 0
1, 21272, Note_on_c, 4, 68, 25
1, 21275, Note_on_c, 4, 63, 39
1, 21277, Note_on_c, 4, 60, 26
1, 21278, Note_on_c, 0, 75, 0
1, 21278, Note_on_c, 0, 68, 0
1, 21279, Note_on_c, 0, 68, 118
1, 21279, Note_on_c, 0, 75, 103
1, 21280, Note_on_c, 9, 36, 82
1, 21280, Note_on_c, 1, 44, 90
1, 21286, Note_on_c, 9, 36, 0
1, 21305, Note_on_c, 4, 63, 0
1, 21311, Note_on_c, 1, 44, 0
1, 21311, Note_on_c, 0, 56, 0
1, 21312, Note_on_c, 9, 38, 109
1, 21312, Note_on_c, 0, 56, 91
1, 21312, Note_on_c, 9, 42, 97
1, 21318, Note_on_c, 9, 42, 0
1, 21318, Note_on_c, 9, 38, 0
1, 21346, Note_on_c, 3, 58, 0
1, 21346, Pitch_bend_c, 3, 15862
1, 21348, Pitch_bend_c, 3, 15602
1, 21350, Pitch_bend_c, 3, 15212
1, 21352, Pitch_bend_c, 3, 14172
1, 21354, Pitch_bend_c, 3, 13392
1, 21356, Pitch_bend_c, 3, 12612
1, 21358, Pitch_bend_c, 3, 11572
1, 21360, Pitch_bend_c, 3, 10532
1, 21362, Pitch_bend_c, 3, 9492
1, 21363, Pitch_bend_c, 3, 8712
1, 21366, Pitch_bend_c, 3, 8192
1, 21367, Note_on_c, 4, 68, 0
1, 21371, Note_on_c, 4, 56, 0
1, 21372, Note_on_c, 4, 60, 0
1, 21372, Note_on_c, 4, 68, 81
1, 21373, Note_on_c, 4, 63, 77
1, 21373, Note_on_c, 4, 60, 71
1, 21374, Note_on_c, 0, 68, 0
1, 21374, Note_on_c, 4, 56, 45
1, 21375, Note_on_c, 0, 68, 76
1, 21376, Note_on_c, 1, 39, 91
1, 21377, Note_on_c, 0, 72, 0
1, 21378, Note_on_c, 0, 72, 85
1, 21402, Note_on_c, 4, 63, 0
1, 21402, Note_on_c, 4, 68, 0
1, 21403, Note_on_c, 1, 39, 0
1, 21403, Note_on_c, 4, 56, 0
1, 21405, Note_on_c, 4, 56, 54
1, 21406, Note_on_c, 4, 63, 70
1, 21407, Note_on_c, 0, 44, 0
1, 21408, Note_on_c, 0, 44, 72
1, 21408, Note_on_c, 9, 42, 45
1, 21408, Lyric_t, "it's "
1, 21408, Note_on_c, 3, 63, 95
1, 21409, Note_on_c, 0, 68, 0
1, 21409, Note_on_c, 0, 75, 0
1, 21409, Note_on_c, 4, 68, 60
1, 21410, Note_on_c, 0, 68, 93
1, 21410, Note_on_c, 0, 75, 89
1, 21414, Note_on_c, 9, 42, 0
1, 21450, Note_on_c, 4, 60, 0
1, 21452, Note_on_c, 4, 68, 0
1, 21453, Note_on_c, 4, 63, 0
1, 21459, Note_on_c, 3, 63, 0
1, 21468, Note_on_c, 4, 56, 0
1, 21471, Note_on_c, 3, 63, 87
1, 21471, Lyric_t, "our "
1, 21472, Note_on_c, 1, 32, 82
1, 21472, Note_on_c, 9, 38, 103
1, 21478, Note_on_c, 9, 38, 0
1, 21499, Note_on_c, 0, 75, 0
1, 21499, Note_on_c, 0, 72, 0
1, 21499, Note_on_c, 2, 72, 0
1, 21499, Note_on_c, 0, 80, 0
1, 21499, Note_on_c, 2, 68, 0
1, 21499, Note_on_c, 0, 68, 0
1, 21499, Note_on_c, 0, 44, 0
1, 21499, Note_on_c, 2, 75, 0
1, 21499, Note_on_c, 0, 56, 0
1, 21500, Note_on_c, 2, 79, 57
1, 21501, Note_on_c, 4, 58, 26
1, 21502, Note_on_c, 1, 32, 0
1, 21502, Note_on_c, 4, 55, 59
1, 21504, Note_on_c, 3, 63, 0
1, 21504, Note_on_c, 9, 42, 97
1, 21504, Note_on_c, 1, 34, 91
1, 21504, Note_on_c, 9, 36, 63
1, 21504, Note_on_c, 2, 82, 57
1, 21504, Note_on_c, 2, 75, 57
1, 21505, Note_on_c, 4, 63, 69
1, 21506, Note_on_c, 0, 46, 118
1, 21506, Note_on_c, 3, 67, 89
1, 21506, Note_on_c, 0, 67, 108
1, 21506, Note_on_c, 0, 75, 101
1, 21506, Note_on_c, 0, 70, 103
1, 21506, Lyric_t, "on"
1, 21506, Note_on_c, 4, 67, 48
1, 21510, Note_on_c, 9, 36, 0
1, 21510, Note_on_c, 9, 42, 0
1, 21568, Note_on_c, 9, 36, 72
1, 21574, Note_on_c, 9, 36, 0
1, 21587, Note_on_c, 3, 67, 0
1, 21600, Note_on_c, 0, 67, 0
1, 21600, Note_on_c, 9, 42, 82
1, 21601, Note_on_c, 0, 67, 45
1, 21602, Note_on_c, 3, 70, 80
1, 21602, Lyric_t, "ly "
1, 21606, Note_on_c, 9, 42, 0
1, 21639, Note_on_c, 4, 67, 0
1, 21643, Note_on_c, 3, 70, 0
1, 21649, Note_on_c, 4, 63, 0
1, 21656, Note_on_c, 4, 67, 25
1, 21661, Note_on_c, 0, 70, 0
1, 21661, Note_on_c, 0, 67, 0
1, 21661, Note_on_c, 0, 75, 0
1, 21662, Note_on_c, 0, 67, 93
1, 21662, Note_on_c, 0, 70, 106
1, 21662, Note_on_c, 0, 75, 101
1, 21663, Note_on_c, 1, 34, 0
1, 21664, Note_on_c, 1, 41, 87
1, 21664, Note_on_c, 9, 36, 62
1, 21665, Note_on_c, 3, 70, 90
1, 21665, Lyric_t, "chance "
1, 21670, Note_on_c, 9, 36, 0
1, 21686, Note_on_c, 4, 58, 0
1, 21690, Note_on_c, 4, 67, 0
1, 21694, Note_on_c, 4, 67, 32
1, 21694, Note_on_c, 4, 58, 51
1, 21695, Note_on_c, 1, 41, 0
1, 21696, Note_on_c, 9, 38, 109
1, 21696, Note_on_c, 9, 51, 55
1, 21696, Note_on_c, 1, 46, 97
1, 21696, Note_on_c, 9, 46, 62
1, 21697, Note_on_c, 4, 63, 55
1, 21702, Note_on_c, 9, 46, 0
1, 21702, Note_on_c, 9, 51, 0
1, 21702, Note_on_c, 9, 38, 0
1, 21749, Note_on_c, 4, 67, 0
1, 21754, Note_on_c, 4, 63, 0
1, 21754, Note_on_c, 4, 55, 0
1, 21757, Note_on_c, 4, 58, 0
1, 21757, Note_on_c, 4, 63, 76
1, 21757, Note_on_c, 4, 67, 81
1, 21758, Note_on_c, 4, 55, 56
1, 21758, Note_on_c, 4, 58, 76
1, 21761, Note_on_c, 0, 67, 0
1, 21762, Note_on_c, 0, 67, 75
1, 21786, Note_on_c, 4, 67, 0
1, 21787, Note_on_c, 4, 58, 0
1, 21787, Note_on_c, 4, 55, 0
1, 21789, Note_on_c, 4, 63, 0
1, 21789, Note_on_c, 4, 55, 54
1, 21790, Note_on_c, 3, 70, 0
1, 21790, Note_on_c, 4, 58, 71
1, 21791, Lyric_t, "of "
1, 21791, Note_on_c, 3, 72, 89
1, 21792, Note_on_c, 9, 42, 67
1, 21793, Note_on_c, 0, 75, 0
1, 21793, Note_on_c, 0, 70, 0
1, 21793, Note_on_c, 0, 58, 101
1, 21793, Note_on_c, 4, 63, 64
1, 21794, Note_on_c, 0, 70, 99
1, 21794, Note_on_c, 0, 75, 93
1, 21794, Note_on_c, 4, 67, 29
1, 21798, Note_on_c, 9, 42, 0
1, 21824, Note_on_c, 4, 67, 0
1, 21833, Note_on_c, 4, 58, 0
1, 21835, Note_on_c, 4, 63, 0
1, 21849, Note_on_c, 4, 55, 0
1, 21852, Note_on_c, 0, 67, 0
1, 21853, Note_on_c, 3, 72, 0
1, 21853, Note_on_c, 0, 67, 60
1, 21856, Note_on_c, 9, 36, 59
1, 21862, Note_on_c, 9, 36, 0
1, 21883, Note_on_c, 0, 67, 0
1, 21883, Note_on_c, 0, 46, 0
1, 21883, Note_on_c, 0, 70, 0
1, 21883, Note_on_c, 0, 75, 0
1, 21887, Note_on_c, 1, 46, 0
1, 21888, Note_on_c, 9, 42, 101
1, 21888, Note_on_c, 1, 34, 83
1, 21888, Note_on_c, 9, 36, 95
1, 21889, Note_on_c, 2, 82, 0
1, 21889, Note_on_c, 4, 53, 70
1, 21890, Note_on_c, 2, 82, 56
1, 21890, Note_on_c, 2, 77, 56
1, 21890, Note_on_c, 2, 74, 56
1, 21890, Note_on_c, 0, 74, 106
1, 21890, Lyric_t, "liv"
1, 21890, Note_on_c, 0, 65, 110
1, 21890, Note_on_c, 4, 58, 60
1, 21890, Note_on_c, 3, 67, 91
1, 21890, Note_on_c, 0, 70, 93
1, 21890, Note_on_c, 0, 46, 109
1, 21891, Note_on_c, 4, 62, 64
1, 21893, Note_on_c, 2, 75, 0
1, 21893, Note_on_c, 2, 79, 0
1, 21893, Note_on_c, 4, 67, 20
1, 21894, Note_on_c, 9, 36, 0
1, 21894, Note_on_c, 9, 42, 0
1, 21950, Lyric_t, "in', "
1, 21950, Note_on_c, 3, 65, 91
1, 21950, Lyric_t, ""
1, 21950, Lyric_t, "\015"
1, 21952, Note_on_c, 3, 67, 0
1, 21972, Note_on_c, 4, 62, 0
1, 21979, Note_on_c, 4, 58, 0
1, 21979, Note_on_c, 4, 62, 54
1, 21984, Note_on_c, 9, 42, 43
1, 21985, Note_on_c, 0, 65, 0
1, 21986, Note_on_c, 0, 65, 63
1, 21990, Note_on_c, 9, 42, 0
1, 21992, Note_on_c, 4, 67, 0
1, 22021, Note_on_c, 4, 53, 0
1, 22022, Note_on_c, 4, 53, 20
1, 22035, Note_on_c, 4, 62, 0
1, 22043, Note_on_c, 4, 49, 20
1, 22044, Note_on_c, 0, 58, 0
1, 22044, Note_on_c, 0, 70, 0
1, 22044, Note_on_c, 0, 65, 0
1, 22045, Note_on_c, 0, 58, 103
1, 22045, Note_on_c, 0, 77, 114
1, 22045, Note_on_c, 0, 70, 101
1, 22045, Note_on_c, 0, 65, 87
1, 22048, Note_on_c, 4, 46, 20
1, 22048, Note_on_c, 9, 36, 58
1, 22054, Note_on_c, 9, 36, 0
1, 22066, Note_on_c, 1, 34, 0
1, 22072, Note_on_c, 3, 65, 0
1, 22073, Note_on_c, 4, 49, 0
1, 22075, Note_on_c, 4, 46, 0
1, 22078, Note_on_c, 3, 67, 90
1, 22078, Lyric_t, "take "
1, 22080, Note_on_c, 9, 42, 105
1, 22080, Note_on_c, 9, 38, 110
1, 22081, Note_on_c, 4, 58, 32
1, 22081, Note_on_c, 4, 62, 27
1, 22086, Note_on_c, 9, 38, 0
1, 22086, Note_on_c, 9, 42, 0
1, 22136, Note_on_c, 4, 62, 0
1, 22139, Note_on_c, 0, 65, 0
1, 22139, Note_on_c, 4, 58, 0
1, 22140, Note_on_c, 4, 53, 0
1, 22140, Note_on_c, 0, 65, 62
1, 22140, Note_on_c, 4, 67, 81
1, 22140, Note_on_c, 4, 62, 79
1, 22142, Note_on_c, 3, 67, 0
1, 22142, Note_on_c, 4, 53, 54
1, 22142, Note_on_c, 4, 58, 77
1, 22144, Note_on_c, 1, 41, 79
1, 22167, Note_on_c, 1, 41, 0
1, 22170, Note_on_c, 4, 67, 0
1, 22170, Note_on_c, 4, 62, 0
1, 22172, Note_on_c, 4, 53, 0
1, 22173, Note_on_c, 0, 46, 0
1, 22173, Note_on_c, 0, 70, 0
1, 22173, Note_on_c, 4, 58, 0
1, 22174, Note_on_c, 4, 53, 37
1, 22174, Note_on_c, 0, 70, 112
1, 22174, Note_on_c, 4, 58, 70
1, 22174, Note_on_c, 4, 62, 67
1, 22174, Note_on_c, 0, 46, 76
1, 22175, Note_on_c, 0, 65, 0
1, 22176, Note_on_c, 3, 67, 88
1, 22176, Lyric_t, "all "
1, 22176, Note_on_c, 0, 65, 116
1, 22176, Note_on_c, 9, 42, 46
1, 22176, Note_on_c, 1, 46, 84
1, 22179, Note_on_c, 4, 67, 32
1, 22182, Note_on_c, 9, 42, 0
1, 22210, Note_on_c, 4, 67, 0
1, 22220, Note_on_c, 4, 53, 0
1, 22225, Note_on_c, 4, 58, 0
1, 22230, Note_on_c, 4, 62, 0
1, 22234, Note_on_c, 3, 67, 0
1, 22236, Note_on_c, 4, 53, 20
1, 22238, Note_on_c, 1, 46, 0
1, 22238, Lyric_t, "you "
1, 22238, Note_on_c, 4, 46, 20
1, 22238, Note_on_c, 3, 65, 83
1, 22240, Note_on_c, 1, 41, 81
1, 22246, Note_on_c, 4, 53, 0
1, 22258, Note_on_c, 4, 46, 0
1, 22259, Note_on_c, 3, 65, 0
1, 22261, Note_on_c, 0, 46, 0
1, 22261, Note_on_c, 0, 65, 0
1, 22261, Note_on_c, 0, 70, 0
1, 22261, Note_on_c, 0, 74, 0
1, 22261, Note_on_c, 0, 58, 0
1, 22261, Note_on_c, 0, 77, 0
1, 22261, Note_on_c, 1, 41, 0
1, 22265, Note_on_c, 2, 77, 0
1, 22265, Note_on_c, 2, 74, 0
1, 22265, Note_on_c, 2, 82, 0
1, 22270, Note_on_c, 0, 44, 86
1, 22270, Note_on_c, 0, 63, 87
1, 22271, Note_on_c, 4, 56, 32
1, 22272, Note_on_c, 2, 84, 57
1, 22272, Note_on_c, 0, 72, 108
1, 22272, Note_on_c, 2, 75, 57
1, 22272, Note_on_c, 1, 44, 90
1, 22272, Note_on_c, 0, 56, 112
1, 22272, Note_on_c, 9, 36, 75
1, 22272, Note_on_c, 9, 42, 101
1, 22272, Note_on_c, 2, 80, 57
1, 22272, Note_on_c, 0, 68, 93
1, 22273, Note_on_c, 4, 60, 58
1, 22274, Note_on_c, 4, 63, 66
1, 22274, Note_on_c, 4, 68, 47
1, 22274, Note_on_c, 3, 65, 86
1, 22274, Lyric_t, "need "
1, 22278, Note_on_c, 9, 42, 0
1, 22278, Note_on_c, 9, 36, 0
1, 22335, Note_on_c, 3, 65, 0
1, 22338, Note_on_c, 3, 63, 100
1, 22350, Note_on_c, 0, 63, 0
1, 22360, Note_on_c, 4, 60, 0
1, 22366, Note_on_c, 4, 63, 0
1, 22366, Note_on_c, 0, 63, 48
1, 22368, Note_on_c, 9, 38, 109
1, 22368, Note_on_c, 9, 42, 69
1, 22374, Note_on_c, 9, 42, 0
1, 22374, Note_on_c, 9, 38, 0
1, 22379, Note_on_c, 1, 44, 0
1, 22400, Note_on_c, 9, 38, 104
1, 22402, Note_on_c, 4, 68, 0
1, 22404, Note_on_c, 0, 68, 0
1, 22406, Note_on_c, 9, 38, 0
1, 22412, Note_on_c, 0, 56, 0
1, 22414, Note_on_c, 0, 63, 0
1, 22416, Note_on_c, 0, 72, 0
1, 22426, Note_on_c, 4, 63, 32
1, 22428, Note_on_c, 4, 54, 20
1, 22428, Note_on_c, 0, 63, 103
1, 22428, Note_on_c, 0, 56, 118
1, 22428, Note_on_c, 4, 47, 20
1, 22428, Note_on_c, 0, 75, 93
1, 22429, Note_on_c, 0, 68, 84
1, 22430, Note_on_c, 4, 56, 0
1, 22432, Note_on_c, 9, 38, 95
1, 22432, Note_on_c, 1, 39, 99
1, 22438, Note_on_c, 9, 38, 0
1, 22463, Note_on_c, 1, 39, 0
1, 22464, Note_on_c, 9, 42, 105
1, 22464, Note_on_c, 9, 45, 75
1, 22464, Note_on_c, 1, 44, 87
1, 22469, Note_on_c, 4, 63, 0
1, 22470, Note_on_c, 9, 45, 0
1, 22470, Note_on_c, 9, 42, 0
1, 22496, Note_on_c, 9, 38, 116
1, 22502, Note_on_c, 9, 38, 0
1, 22506, Note_on_c, 4, 54, 0
1, 22518, Note_on_c, 4, 47, 0
1, 22522, Note_on_c, 4, 68, 82
1, 22523, Note_on_c, 4, 63, 77
1, 22524, Note_on_c, 4, 60, 70
1, 22526, Note_on_c, 0, 56, 0
1, 22528, Note_on_c, 9, 45, 78
1, 22534, Note_on_c, 9, 45, 0
1, 22544, Note_on_c, 1, 44, 0
1, 22545, Note_on_c, 0, 68, 0
1, 22553, Note_on_c, 4, 63, 0
1, 22554, Note_on_c, 4, 60, 0
1, 22560, Note_on_c, 9, 38, 111
1, 22561, Note_on_c, 0, 68, 103
1, 22566, Note_on_c, 9, 38, 0
1, 22566, Note_on_c, 4, 68, 0
1, 22570, Note_on_c, 0, 44, 0
1, 22592, Note_on_c, 9, 38, 118
1, 22598, Note_on_c, 9, 38, 0
1, 22620, Note_on_c, 0, 63, 0
1, 22624, Note_on_c, 1, 44, 92
1, 22624, Note_on_c, 9, 44, 85
1, 22626, Note_on_c, 4, 44, 20
1, 22630, Note_on_c, 9, 44, 0
1, 22644, Note_on_c, 0, 75, 0
1, 22648, Note_on_c, 4, 44, 0
1, 22649, Note_on_c, 0, 68, 0
1, 22653, Note_on_c, 1, 44, 0
1, 22653, Note_on_c, 4, 56, 56
1, 22653, Note_on_c, 4, 60, 75
1, 22653, Note_on_c, 4, 63, 77
1, 22655, Note_on_c, 4, 68, 83
1, 22656, Note_on_c, 9, 36, 98
1, 22656, Note_on_c, 0, 80, 103
1, 22656, Note_on_c, 9, 42, 91
1, 22656, Note_on_c, 0, 44, 102
1, 22657, Note_on_c, 0, 75, 79
1, 22660, Note_on_c, 0, 72, 112
1, 22662, Note_on_c, 9, 42, 0
1, 22662, Note_on_c, 9, 36, 0
1, 22702, Note_on_c, 3, 63, 0
1, 22720, Note_on_c, 1, 44, 94
1, 22748, Note_on_c, 1, 44, 0
1, 22752, Note_on_c, 9, 42, 55
1, 22752, Note_on_c, 1, 44, 99
1, 22758, Note_on_c, 9, 42, 0
1, 22794, Note_on_c, 1, 44, 0
1, 22796, Note_on_c, 4, 68, 0
1, 22796, Note_on_c, 0, 80, 0
1, 22800, Note_on_c, 0, 72, 0
1, 22807, Note_on_c, 4, 60, 0
1, 22807, Note_on_c, 4, 63, 0
1, 22810, Note_on_c, 4, 56, 0
1, 22810, Note_on_c, 4, 63, 77
1, 22810, Note_on_c, 4, 68, 81
1, 22812, Note_on_c, 4, 56, 57
1, 22812, Note_on_c, 4, 60, 71
1, 22813, Note_on_c, 0, 75, 0
1, 22813, Note_on_c, 0, 80, 97
1, 22814, Note_on_c, 0, 75, 95
1, 22814, Note_on_c, 0, 68, 109
1, 22814, Note_on_c, 0, 72, 106
1, 22814, Note_on_c, 0, 56, 109
1, 22816, Note_on_c, 1, 44, 89
1, 22816, Note_on_c, 9, 36, 82
1, 22818, Note_on_c, 3, 63, 85
1, 22818, Lyric_t, "to "
1, 22822, Note_on_c, 9, 36, 0
1, 22844, Note_on_c, 1, 44, 0
1, 22848, Note_on_c, 3, 63, 0
1, 22848, Note_on_c, 1, 44, 86
1, 22848, Note_on_c, 9, 42, 97
1, 22848, Note_on_c, 9, 38, 109
1, 22849, Note_on_c, 3, 67, 93
1, 22849, Lyric_t, "live "
1, 22854, Note_on_c, 9, 38, 0
1, 22854, Note_on_c, 9, 42, 0
1, 22898, Note_on_c, 4, 68, 0
1, 22900, Note_on_c, 1, 44, 0
1, 22907, Note_on_c, 4, 60, 0
1, 22908, Note_on_c, 4, 68, 48
1, 22909, Note_on_c, 4, 63, 0
1, 22910, Note_on_c, 4, 63, 76
1, 22910, Note_on_c, 4, 60, 65
1, 22918, Note_on_c, 0, 72, 0
1, 22936, Note_on_c, 0, 44, 0
1, 22940, Note_on_c, 4, 60, 0
1, 22940, Note_on_c, 4, 63, 0
1, 22941, Note_on_c, 4, 56, 0
1, 22942, Note_on_c, 0, 44, 69
1, 22943, Note_on_c, 4, 56, 62
1, 22943, Note_on_c, 4, 60, 70
1, 22944, Note_on_c, 3, 67, 0
1, 22944, Note_on_c, 9, 42, 45
1, 22944, Note_on_c, 1, 44, 103
1, 22945, Note_on_c, 0, 72, 99
1, 22945, Note_on_c, 3, 65, 95
1, 22945, Lyric_t, "in"
1, 22946, Note_on_c, 4, 63, 67
1, 22948, Note_on_c, 4, 68, 0
1, 22949, Note_on_c, 4, 68, 49
1, 22950, Note_on_c, 9, 42, 0
1, 22954, Note_on_c, 0, 44, 0
1, 22974, Note_on_c, 0, 68, 0
1, 22996, Note_on_c, 4, 56, 0
1, 22996, Note_on_c, 4, 60, 0
1, 22999, Note_on_c, 4, 63, 0
1, 23005, Note_on_c, 4, 68, 0
1, 23006, Note_on_c, 0, 75, 0
1, 23006, Note_on_c, 3, 65, 0
1, 23008, Note_on_c, 9, 38, 103
1, 23009, Note_on_c, 0, 68, 63
1, 23014, Note_on_c, 9, 38, 0
1, 23024, Note_on_c, 0, 68, 0
1, 23033, Note_on_c, 0, 80, 0
1, 23033, Note_on_c, 0, 72, 0
1, 23034, Note_on_c, 0, 56, 0
1, 23038, Note_on_c, 1, 44, 0
1, 23039, Note_on_c, 2, 80, 0
1, 23040, Note_on_c, 0, 37, 99
1, 23040, Note_on_c, 0, 49, 118
1, 23040, Note_on_c, 2, 80, 54
1, 23040, Note_on_c, 8, 61, 105
1, 23040, Note_on_c, 1, 37, 103
1, 23040, Note_on_c, 8, 49, 105
1, 23040, Note_on_c, 8, 56, 105
1, 23040, Note_on_c, 9, 42, 88
1, 23040, Note_on_c, 8, 65, 105
1, 23040, Note_on_c, 2, 73, 54
1, 23040, Note_on_c, 9, 36, 86
1, 23041, Note_on_c, 0, 73, 99
1, 23041, Pitch_bend_c, 8, 8192
1, 23041, Control_c, 8, 1, 0
1, 23041, Note_on_c, 0, 68, 87
1, 23041, Note_on_c, 0, 77, 99
1, 23042, Note_on_c, 2, 77, 54
1, 23042, Note_on_c, 4, 56, 64
1, 23042, Lyric_t, ""
1, 23042, Lyric_t, "\015"
1, 23042, Lyric_t, "side. "
1, 23042, Note_on_c, 3, 65, 94
1, 23043, Note_on_c, 4, 61, 70
1, 23045, Note_on_c, 4, 65, 69
1, 23046, Note_on_c, 9, 36, 0
1, 23046, Note_on_c, 2, 75, 0
1, 23046, Note_on_c, 2, 84, 0
1, 23046, Note_on_c, 9, 42, 0
1, 23130, Note_on_c, 4, 65, 0
1, 23136, Note_on_c, 9, 42, 54
1, 23142, Note_on_c, 9, 42, 0
1, 23155, Note_on_c, 0, 49, 0
1, 23177, Note_on_c, 0, 68, 0
1, 23186, Note_on_c, 4, 61, 0
1, 23192, Note_on_c, 4, 65, 25
1, 23195, Note_on_c, 4, 61, 32
1, 23198, Note_on_c, 0, 49, 97
1, 23198, Note_on_c, 0, 61, 106
1, 23198, Note_on_c, 0, 68, 93
1, 23198, Note_on_c, 0, 65, 102
1, 23200, Note_on_c, 9, 36, 80
1, 23206, Note_on_c, 9, 36, 0
1, 23225, Note_on_c, 4, 61, 0
1, 23225, Note_on_c, 4, 56, 0
1, 23230, Note_on_c, 4, 56, 43
1, 23230, Control_c, 8, 11, 45
1, 23231, Note_on_c, 4, 65, 0
1, 23231, Note_on_c, 4, 61, 48
1, 23232, Note_on_c, 9, 38, 107
1, 23232, Note_on_c, 9, 42, 88
1, 23234, Control_c, 8, 11, 46
1, 23234, Note_on_c, 4, 65, 30
1, 23235, Control_c, 8, 11, 47
1, 23238, Note_on_c, 9, 42, 0
1, 23238, Note_on_c, 9, 38, 0
1, 23240, Control_c, 8, 11, 48
1, 23242, Control_c, 8, 11, 49
1, 23261, Control_c, 8, 11, 50
1, 23264, Control_c, 8, 11, 51
1, 23266, Note_on_c, 1, 37, 0
1, 23277, Control_c, 8, 11, 52
1, 23286, Note_on_c, 4, 65, 0
1, 23289, Note_on_c, 0, 77, 0
1, 23289, Note_on_c, 0, 73, 0
1, 23291, Note_on_c, 4, 56, 0
1, 23291, Note_on_c, 4, 61, 0
1, 23292, Note_on_c, 4, 65, 73
1, 23293, Note_on_c, 4, 61, 73
1, 23293, Note_on_c, 4, 56, 63
1, 23296, Control_c, 8, 11, 53
1, 23302, Control_c, 8, 11, 54
1, 23312, Control_c, 8, 11, 55
1, 23314, Note_on_c, 0, 68, 0
1, 23318, Note_on_c, 0, 65, 0
1, 23322, Note_on_c, 4, 65, 0
1, 23322, Note_on_c, 4, 56, 0
1, 23322, Note_on_c, 4, 61, 0
1, 23322, Note_on_c, 0, 49, 0
1, 23326, Note_on_c, 0, 73, 87
1, 23327, Note_on_c, 4, 56, 43
1, 23328, Note_on_c, 4, 61, 52
1, 23328, Note_on_c, 1, 49, 86
1, 23328, Note_on_c, 9, 42, 45
1, 23328, Note_on_c, 0, 49, 87
1, 23328, Note_on_c, 0, 68, 95
1, 23329, Note_on_c, 0, 65, 100
1, 23331, Control_c, 8, 11, 56
1, 23334, Note_on_c, 9, 42, 0
1, 23338, Note_on_c, 4, 61, 0
1, 23339, Note_on_c, 4, 56, 0
1, 23344, Control_c, 8, 11, 57
1, 23354, Control_c, 8, 11, 58
1, 23365, Control_c, 8, 11, 59
1, 23368, Control_c, 8, 11, 60
1, 23373, Control_c, 8, 11, 61
1, 23378, Control_c, 8, 11, 62
1, 23382, Control_c, 8, 11, 63
1, 23387, Control_c, 8, 11, 64
1, 23390, Control_c, 8, 11, 65
1, 23392, Note_on_c, 9, 38, 107
1, 23393, Note_on_c, 4, 44, 20
1, 23395, Control_c, 8, 11, 66
1, 23398, Note_on_c, 9, 38, 0
1, 23402, Control_c, 8, 11, 67
1, 23404, Note_on_c, 0, 37, 0
1, 23406, Control_c, 8, 11, 68
1, 23416, Control_c, 8, 11, 69
1, 23417, Note_on_c, 3, 65, 0
1, 23418, Note_on_c, 4, 44, 0
1, 23419, Control_c, 8, 11, 70
1, 23422, Note_on_c, 4, 56, 63
1, 23423, Note_on_c, 4, 61, 71
1, 23424, Note_on_c, 4, 65, 76
1, 23424, Note_on_c, 9, 36, 73
1, 23424, Note_on_c, 9, 42, 101
1, 23424, Control_c, 8, 11, 71
1, 23426, Note_on_c, 0, 61, 0
1, 23427, Control_c, 8, 11, 72
1, 23430, Note_on_c, 9, 42, 0
1, 23430, Note_on_c, 9, 36, 0
1, 23437, Control_c, 8, 11, 73
1, 23446, Control_c, 8, 11, 75
1, 23456, Note_on_c, 0, 49, 0
1, 23456, Control_c, 8, 11, 76
1, 23466, Control_c, 8, 11, 77
1, 23467, Control_c, 8, 11, 78
1, 23472, Note_on_c, 0, 68, 0
1, 23472, Note_on_c, 1, 49, 0
1, 23474, Note_on_c, 0, 73, 0
1, 23474, Control_c, 8, 11, 79
1, 23481, Note_on_c, 0, 65, 0
1, 23483, Control_c, 8, 11, 80
1, 23485, Note_on_c, 0, 73, 102
1, 23485, Note_on_c, 0, 49, 102
1, 23485, Note_on_c, 0, 65, 102
1, 23485, Note_on_c, 0, 61, 102
1, 23485, Note_on_c, 0, 68, 102
1, 23486, Control_c, 8, 11, 81
1, 23488, Note_on_c, 9, 36, 61
1, 23488, Control_c, 8, 11, 82
1, 23488, Note_on_c, 1, 53, 90
1, 23491, Control_c, 8, 11, 83
1, 23494, Note_on_c, 9, 36, 0
1, 23496, Control_c, 8, 11, 84
1, 23507, Note_on_c, 1, 53, 0
1, 23507, Control_c, 8, 11, 85
1, 23510, Control_c, 8, 11, 86
1, 23514, Control_c, 8, 11, 87
1, 23517, Note_on_c, 4, 61, 0
1, 23517, Control_c, 8, 11, 88
1, 23518, Note_on_c, 4, 65, 0
1, 23518, Note_on_c, 4, 61, 38
1, 23520, Control_c, 8, 11, 89
1, 23520, Note_on_c, 4, 65, 50
1, 23520, Note_on_c, 9, 42, 50
1, 23526, Note_on_c, 9, 42, 0
1, 23526, Control_c, 8, 11, 90
1, 23530, Control_c, 8, 11, 91
1, 23531, Control_c, 8, 11, 92
1, 23536, Control_c, 8, 11, 93
1, 23546, Control_c, 8, 11, 94
1, 23547, Control_c, 8, 11, 95
1, 23549, Control_c, 8, 11, 96
1, 23554, Control_c, 8, 11, 97
1, 23569, Note_on_c, 0, 65, 0
1, 23571, Note_on_c, 4, 65, 0
1, 23574, Note_on_c, 4, 61, 0
1, 23575, Note_on_c, 4, 56, 0
1, 23578, Note_on_c, 4, 65, 75
1, 23578, Note_on_c, 4, 61, 72
1, 23580, Note_on_c, 4, 56, 61
1, 23582, Note_on_c, 0, 61, 0
1, 23582, Note_on_c, 0, 65, 73
1, 23584, Note_on_c, 9, 36, 61
1, 23584, Note_on_c, 1, 56, 84
1, 23590, Note_on_c, 9, 36, 0
1, 23601, Note_on_c, 0, 73, 0
1, 23601, Note_on_c, 0, 68, 0
1, 23603, Note_on_c, 0, 49, 0
1, 23611, Note_on_c, 0, 65, 0
1, 23616, Note_on_c, 9, 38, 111
1, 23616, Note_on_c, 9, 46, 77
1, 23616, Note_on_c, 0, 68, 108
1, 23616, Note_on_c, 0, 65, 108
1, 23616, Note_on_c, 0, 77, 108
1, 23617, Note_on_c, 0, 61, 108
1, 23617, Note_on_c, 0, 73, 108
1, 23622, Note_on_c, 9, 46, 0
1, 23622, Note_on_c, 9, 38, 0
1, 23668, Note_on_c, 4, 61, 0
1, 23670, Note_on_c, 0, 65, 0
1, 23674, Note_on_c, 4, 65, 0
1, 23675, Note_on_c, 4, 65, 71
1, 23676, Note_on_c, 4, 61, 57
1, 23680, Note_on_c, 9, 36, 70
1, 23686, Note_on_c, 9, 36, 0
1, 23703, Note_on_c, 4, 56, 0
1, 23706, Note_on_c, 4, 61, 0
1, 23709, Note_on_c, 4, 65, 0
1, 23711, Note_on_c, 4, 61, 73
1, 23711, Note_on_c, 4, 56, 67
1, 23712, Note_on_c, 9, 42, 77
1, 23713, Note_on_c, 4, 65, 76
1, 23715, Note_on_c, 0, 65, 77
1, 23718, Note_on_c, 9, 42, 0
1, 23730, Note_on_c, 8, 56, 0
1, 23744, Note_on_c, 9, 45, 70
1, 23750, Note_on_c, 9, 45, 0
1, 23761, Note_on_c, 4, 65, 0
1, 23772, Note_on_c, 1, 56, 0
1, 23772, Note_on_c, 0, 77, 0
1, 23776, Note_on_c, 4, 56, 0
1, 23776, Note_on_c, 4, 61, 0
1, 23776, Note_on_c, 1, 58, 98
1, 23776, Note_on_c, 9, 45, 48
1, 23779, Note_on_c, 0, 65, 0
1, 23782, Note_on_c, 9, 45, 0
1, 23785, Note_on_c, 0, 61, 0
1, 23793, Note_on_c, 0, 73, 0
1, 23800, Note_on_c, 0, 68, 0
1, 23804, Note_on_c, 8, 61, 0
1, 23806, Note_on_c, 8, 49, 0
1, 23806, Note_on_c, 0, 70, 112
1, 23806, Note_on_c, 0, 48, 112
1, 23806, Note_on_c, 0, 77, 112
1, 23806, Note_on_c, 0, 65, 112
1, 23807, Note_on_c, 2, 77, 0
1, 23807, Note_on_c, 2, 73, 0
1, 23807, Note_on_c, 2, 80, 0
1, 23808, Note_on_c, 2, 60, 51
1, 23808, Note_on_c, 9, 49, 71
1, 23808, Note_on_c, 2, 84, 51
1, 23808, Note_on_c, 9, 36, 72
1, 23808, Note_on_c, 9, 42, 62
1, 23808, Note_on_c, 8, 62, 103
1, 23808, Note_on_c, 0, 36, 112
1, 23808, Note_on_c, 0, 74, 112
1, 23808, Note_on_c, 2, 74, 51
1, 23808, Note_on_c, 8, 48, 103
1, 23808, Note_on_c, 2, 77, 51
1, 23808, Note_on_c, 8, 58, 103
1, 23808, Note_on_c, 2, 70, 51
1, 23812, Note_on_c, 1, 58, 0
1, 23814, Note_on_c, 9, 42, 0
1, 23814, Note_on_c, 9, 36, 0
1, 23814, Note_on_c, 9, 49, 0
1, 23871, Note_on_c, 1, 55, 107
1, 23900, Note_on_c, 1, 55, 0
1, 23904, Note_on_c, 0, 65, 0
1, 23904, Note_on_c, 9, 36, 82
1, 23904, Note_on_c, 9, 46, 62
1, 23905, Note_on_c, 0, 65, 64
1, 23910, Note_on_c, 9, 46, 0
1, 23910, Note_on_c, 9, 36, 0
1, 23926, Control_c, 8, 11, 99
1, 23928, Control_c, 8, 11, 100
1, 23930, Control_c, 8, 11, 101
1, 23931, Control_c, 8, 11, 102
1, 23936, Control_c, 8, 11, 103
1, 23941, Control_c, 8, 11, 104
1, 23949, Control_c, 8, 11, 105
1, 23952, Note_on_c, 9, 38, 70
1, 23958, Note_on_c, 9, 38, 0
1, 23966, Control_c, 8, 11, 106
1, 23967, Note_on_c, 1, 52, 107
1, 23968, Note_on_c, 0, 48, 0
1, 23968, Note_on_c, 9, 38, 106
1, 23969, Note_on_c, 0, 48, 106
1, 23974, Note_on_c, 9, 38, 0
1, 23982, Control_c, 8, 11, 107
1, 23984, Note_on_c, 9, 38, 102
1, 23990, Note_on_c, 9, 38, 0
1, 23993, Note_on_c, 1, 52, 0
1, 23998, Note_on_c, 1, 55, 111
1, 23999, Note_on_c, 0, 65, 0
1, 23999, Note_on_c, 0, 77, 0
1, 23999, Note_on_c, 0, 70, 0
1, 24000, Note_on_c, 0, 74, 0
1, 24000, Note_on_c, 9, 38, 118
1, 24000, Control_c, 8, 11, 108
1, 24000, Note_on_c, 9, 42, 95
1, 24000, Note_on_c, 0, 77, 106
1, 24000, Note_on_c, 0, 70, 115
1, 24000, Note_on_c, 0, 65, 112
1, 24001, Note_on_c, 0, 74, 106
1, 24003, Control_c, 8, 11, 109
1, 24006, Note_on_c, 9, 42, 0
1, 24006, Note_on_c, 9, 38, 0
1, 24010, Control_c, 8, 11, 110
1, 24011, Control_c, 8, 11, 111
1, 24018, Control_c, 8, 11, 112
1, 24024, Control_c, 8, 11, 113
1, 24032, Note_on_c, 9, 47, 95
1, 24034, Control_c, 8, 11, 114
1, 24038, Note_on_c, 9, 47, 0
1, 24043, Control_c, 8, 11, 115
1, 24046, Control_c, 8, 11, 116
1, 24056, Control_c, 8, 11, 117
1, 24062, Note_on_c, 1, 55, 0
1, 24063, Note_on_c, 1, 60, 107
1, 24064, Note_on_c, 9, 47, 103
1, 24070, Note_on_c, 9, 47, 0
1, 24074, Control_c, 8, 11, 118
1, 24077, Control_c, 8, 11, 119
1, 24082, Control_c, 8, 11, 120
1, 24088, Control_c, 8, 11, 121
1, 24096, Note_on_c, 1, 60, 0
1, 24096, Note_on_c, 9, 47, 91
1, 24096, Note_on_c, 9, 42, 103
1, 24097, Note_on_c, 0, 48, 0
1, 24098, Note_on_c, 0, 48, 72
1, 24101, Control_c, 8, 11, 122
1, 24102, Note_on_c, 9, 42, 0
1, 24102, Note_on_c, 9, 47, 0
1, 24110, Control_c, 8, 11, 123
1, 24112, Note_on_c, 9, 45, 53
1, 24112, Control_c, 8, 11, 124
1, 24118, Note_on_c, 9, 45, 0
1, 24122, Control_c, 8, 11, 125
1, 24126, Control_c, 8, 11, 126
1, 24128, Note_on_c, 9, 45, 67
1, 24130, Control_c, 8, 11, 127
1, 24134, Note_on_c, 9, 45, 0
1, 24144, Note_on_c, 9, 45, 47
1, 24150, Note_on_c, 9, 45, 0
1, 24157, Note_on_c, 0, 74, 0
1, 24157, Note_on_c, 0, 48, 0
1, 24157, Note_on_c, 0, 70, 0
1, 24157, Note_on_c, 0, 65, 0
1, 24158, Note_on_c, 0, 60, 106
1, 24158, Note_on_c, 0, 74, 116
1, 24158, Note_on_c, 0, 70, 112
1, 24158, Note_on_c, 0, 48, 72
1, 24158, Note_on_c, 0, 65, 122
1, 24159, Note_on_c, 1, 58, 109
1, 24160, Note_on_c, 9, 45, 59
1, 24166, Note_on_c, 9, 45, 0
1, 24186, Note_on_c, 1, 58, 0
1, 24191, Note_on_c, 1, 62, 112
1, 24192, Note_on_c, 9, 42, 73
1, 24192, Note_on_c, 9, 45, 72
1, 24198, Note_on_c, 9, 45, 0
1, 24198, Note_on_c, 9, 42, 0
1, 24224, Note_on_c, 9, 45, 103
1, 24230, Note_on_c, 9, 45, 0
1, 24243, Note_on_c, 1, 62, 0
1, 24255, Note_on_c, 1, 60, 116
1, 24256, Note_on_c, 9, 43, 55
1, 24262, Note_on_c, 9, 43, 0
1, 24272, Note_on_c, 9, 43, 55
1, 24278, Note_on_c, 9, 43, 0
1, 24278, Note_on_c, 1, 60, 0
1, 24288, Note_on_c, 0, 48, 0
1, 24288, Note_on_c, 0, 74, 0
1, 24288, Note_on_c, 0, 77, 0
1, 24288, Note_on_c, 0, 60, 0
1, 24288, Note_on_c, 9, 43, 73
1, 24288, Note_on_c, 9, 42, 73
1, 24289, Note_on_c, 0, 48, 110
1, 24289, Note_on_c, 0, 74, 115
1, 24289, Note_on_c, 0, 82, 115
1, 24289, Note_on_c, 0, 60, 117
1, 24289, Note_on_c, 0, 77, 116
1, 24294, Note_on_c, 9, 42, 0
1, 24294, Note_on_c, 9, 43, 0
1, 24320, Note_on_c, 9, 43, 90
1, 24326, Note_on_c, 9, 43, 0
1, 24346, Note_on_c, 1, 58, 101
1, 24352, Note_on_c, 9, 43, 99
1, 24358, Note_on_c, 9, 43, 0
1, 24368, Note_on_c, 9, 43, 65
1, 24374, Note_on_c, 9, 43, 0
1, 24383, Note_on_c, 1, 58, 0
1, 24384, Note_on_c, 1, 55, 95
1, 24384, Note_on_c, 9, 42, 105
1, 24384, Note_on_c, 9, 38, 118
1, 24390, Note_on_c, 9, 38, 0
1, 24390, Note_on_c, 9, 42, 0
1, 24407, Note_on_c, 1, 55, 0
1, 24408, Note_on_c, 1, 53, 104
1, 24431, Note_on_c, 1, 53, 0
1, 24432, Note_on_c, 1, 50, 102
1, 24432, Note_on_c, 9, 36, 101
1, 24438, Note_on_c, 9, 36, 0
1, 24449, Note_on_c, 1, 50, 0
1, 24453, Note_on_c, 0, 82, 0
1, 24453, Note_on_c, 0, 77, 0
1, 24453, Note_on_c, 0, 60, 0
1, 24453, Note_on_c, 0, 74, 0
1, 24453, Note_on_c, 0, 48, 0
1, 24454, Note_on_c, 0, 82, 106
1, 24454, Note_on_c, 0, 48, 108
1, 24454, Note_on_c, 0, 77, 111
1, 24454, Note_on_c, 0, 74, 111
1, 24454, Note_on_c, 0, 86, 111
1, 24454, Note_on_c, 0, 60, 101
1, 24456, Note_on_c, 1, 48, 101
1, 24475, Note_on_c, 1, 48, 0
1, 24476, Note_on_c, 9, 40, 71
1, 24480, Note_on_c, 9, 38, 116
1, 24480, Note_on_c, 1, 43, 99
1, 24480, Note_on_c, 9, 42, 101
1, 24482, Note_on_c, 9, 40, 0
1, 24486, Note_on_c, 9, 42, 0
1, 24486, Note_on_c, 9, 38, 0
1, 24503, Note_on_c, 1, 43, 0
1, 24504, Note_on_c, 1, 41, 98
1, 24527, Note_on_c, 1, 41, 0
1, 24528, Note_on_c, 9, 36, 96
1, 24528, Note_on_c, 1, 38, 99
1, 24534, Note_on_c, 9, 36, 0
1, 24551, Note_on_c, 1, 38, 0
1, 24552, Note_on_c, 1, 36, 100
1, 24559, Note_on_c, 8, 65, 0
1, 24559, Note_on_c, 8, 62, 0
1, 24564, Note_on_c, 8, 48, 0
1, 24564, Note_on_c, 8, 58, 0
1, 24565, Note_on_c, 0, 36, 0
1, 24565, Note_on_c, 0, 48, 0
1, 24565, Note_on_c, 0, 74, 0
1, 24565, Note_on_c, 0, 65, 0
1, 24565, Note_on_c, 0, 86, 0
1, 24565, Note_on_c, 0, 60, 0
1, 24565, Note_on_c, 0, 82, 0
1, 24565, Note_on_c, 0, 70, 0
1, 24565, Note_on_c, 0, 77, 0
1, 24574, Note_on_c, 2, 74, 0
1, 24574, Note_on_c, 2, 60, 0
1, 24574, Note_on_c, 2, 77, 0
1, 24575, Note_on_c, 1, 36, 0
1, 24576, Note_on_c, 2, 70, 0
1, 24576, Note_on_c, 2, 84, 0
1, 24576, Note_on_c, 0, 29, 75
1, 24576, Note_on_c, 0, 77, 100
1, 24576, Note_on_c, 9, 36, 103
1, 24576, Note_on_c, 1, 41, 100
1, 24576, Note_on_c, 0, 65, 108
1, 24576, Note_on_c, 9, 49, 103
1, 24576, Note_on_c, 0, 41, 92
1, 24576, Note_on_c, 0, 72, 116
1, 24582, Note_on_c, 9, 49, 0
1, 24582, Note_on_c, 9, 36, 0
1, 24624, Note_on_c, 0, 65, 0
1, 24626, Note_on_c, 0, 72, 0
1, 24626, Note_on_c, 0, 77, 0
1, 24628, Note_on_c, 0, 29, 0
1, 24630, Note_on_c, 0, 41, 0
1, 24647, Note_on_c, 0, 77, 86
1, 24649, Note_on_c, 0, 72, 102
1, 24649, Note_on_c, 0, 65, 93
1, 24658, Note_on_c, 0, 72, 0
1, 24659, Note_on_c, 0, 65, 0
1, 24662, Note_on_c, 0, 77, 0
1, 24671, Note_on_c, 0, 29, 75
1, 24672, Note_on_c, 0, 41, 93
1, 24707, Note_on_c, 0, 29, 0
1, 24711, Note_on_c, 0, 41, 0
1, 24719, Note_on_c, 0, 77, 90
1, 24719, Note_on_c, 0, 72, 112
1, 24719, Note_on_c, 0, 65, 108
1, 24730, Note_on_c, 0, 72, 0
1, 24731, Note_on_c, 0, 65, 0
1, 24732, Note_on_c, 0, 77, 0
1, 24767, Note_on_c, 0, 29, 90
1, 24767, Note_on_c, 0, 41, 99
1, 24810, Note_on_c, 0, 29, 0
1, 24815, Note_on_c, 0, 72, 116
1, 24815, Note_on_c, 0, 65, 112
1, 24815, Note_on_c, 0, 77, 92
1, 24816, Note_on_c, 0, 41, 0
1, 24838, Note_on_c, 0, 65, 0
1, 24838, Note_on_c, 0, 72, 0
1, 24839, Note_on_c, 0, 77, 0
1, 24863, Note_on_c, 0, 41, 92
1, 24863, Note_on_c, 0, 29, 89
1, 24887, Note_on_c, 0, 67, 82
1, 24887, Note_on_c, 0, 70, 84
1, 24887, Note_on_c, 0, 77, 68
1, 24887, Note_on_c, 0, 75, 69
1, 24896, Note_on_c, 0, 75, 0
1, 24897, Note_on_c, 0, 70, 0
1, 24898, Note_on_c, 0, 77, 0
1, 24900, Note_on_c, 0, 67, 0
1, 24904, Note_on_c, 0, 29, 0
1, 24905, Note_on_c, 0, 41, 0
1, 24911, Note_on_c, 0, 67, 72
1, 24911, Note_on_c, 0, 70, 84
1, 24911, Note_on_c, 0, 75, 81
1, 24911, Note_on_c, 0, 77, 71
1, 24918, Note_on_c, 0, 70, 0
1, 24919, Note_on_c, 0, 75, 0
1, 24919, Note_on_c, 0, 77, 0
1, 24920, Note_on_c, 0, 67, 0
1, 24935, Note_on_c, 0, 67, 74
1, 24935, Note_on_c, 0, 70, 87
1, 24935, Note_on_c, 0, 77, 75
1, 24935, Note_on_c, 0, 75, 73
1, 24942, Note_on_c, 0, 75, 0
1, 24942, Note_on_c, 0, 77, 0
1, 24943, Note_on_c, 0, 70, 0
1, 24944, Note_on_c, 0, 67, 0
1, 24959, Note_on_c, 0, 77, 96
1, 24959, Note_on_c, 0, 67, 104
1, 24959, Note_on_c, 0, 29, 78
1, 24959, Note_on_c, 0, 70, 106
1, 24959, Note_on_c, 0, 75, 89
1, 24959, Note_on_c, 0, 41, 89
1, 24960, Note_on_c, 1, 41, 0
1, 24991, Note_on_c, 0, 75, 0
1, 24994, Note_on_c, 0, 70, 0
1, 24994, Note_on_c, 0, 77, 0
1, 24997, Note_on_c, 0, 29, 0
1, 24998, Note_on_c, 0, 67, 0
1, 25000, Note_on_c, 0, 41, 0
1, 25007, Note_on_c, 0, 67, 79
1, 25007, Note_on_c, 0, 77, 79
1, 25007, Note_on_c, 0, 70, 79
1, 25007, Note_on_c, 0, 75, 79
1, 25014, Note_on_c, 0, 75, 0
1, 25016, Note_on_c, 0, 67, 0
1, 25016, Note_on_c, 0, 77, 0
1, 25018, Note_on_c, 0, 70, 0
1, 25031, Note_on_c, 0, 70, 95
1, 25031, Note_on_c, 0, 67, 70
1, 25031, Note_on_c, 0, 77, 79
1, 25031, Note_on_c, 0, 75, 84
1, 25038, Note_on_c, 0, 75, 0
1, 25038, Note_on_c, 0, 70, 0
1, 25038, Note_on_c, 0, 67, 0
1, 25038, Note_on_c, 0, 77, 0
1, 25055, Note_on_c, 0, 75, 95
1, 25055, Note_on_c, 0, 29, 83
1, 25055, Note_on_c, 0, 77, 90
1, 25055, Note_on_c, 0, 70, 112
1, 25055, Note_on_c, 0, 67, 106
1, 25055, Note_on_c, 0, 41, 100
1, 25085, Note_on_c, 0, 70, 0
1, 25085, Note_on_c, 0, 77, 0
1, 25085, Note_on_c, 0, 75, 0
1, 25089, Note_on_c, 0, 67, 0
1, 25103, Note_on_c, 0, 70, 99
1, 25103, Note_on_c, 0, 77, 99
1, 25103, Note_on_c, 0, 75, 99
1, 25103, Note_on_c, 0, 67, 99
1, 25110, Note_on_c, 0, 75, 0
1, 25110, Note_on_c, 0, 77, 0
1, 25111, Note_on_c, 0, 70, 0
1, 25111, Note_on_c, 0, 29, 0
1, 25112, Note_on_c, 0, 67, 0
1, 25113, Note_on_c, 0, 41, 0
1, 25127, Note_on_c, 0, 75, 86
1, 25127, Note_on_c, 0, 67, 83
1, 25127, Note_on_c, 0, 70, 93
1, 25127, Note_on_c, 0, 77, 81
1, 25134, Note_on_c, 0, 77, 0
1, 25134, Note_on_c, 0, 70, 0
1, 25135, Note_on_c, 0, 67, 0
1, 25135, Note_on_c, 0, 75, 0
1, 25151, Note_on_c, 0, 70, 97
1, 25151, Note_on_c, 0, 77, 78
1, 25151, Note_on_c, 0, 67, 93
1, 25151, Note_on_c, 0, 75, 81
1, 25152, Note_on_c, 0, 41, 99
1, 25152, Note_on_c, 0, 29, 93
1, 25161, Note_on_c, 0, 77, 0
1, 25163, Note_on_c, 0, 75, 0
1, 25163, Note_on_c, 0, 70, 0
1, 25163, Note_on_c, 0, 67, 0
1, 25176, Note_on_c, 0, 77, 81
1, 25177, Note_on_c, 0, 74, 99
1, 25177, Note_on_c, 0, 65, 93
1, 25177, Note_on_c, 0, 70, 89
1, 25186, Note_on_c, 0, 74, 0
1, 25188, Note_on_c, 0, 70, 0
1, 25190, Note_on_c, 0, 77, 0
1, 25190, Note_on_c, 0, 65, 0
1, 25204, Note_on_c, 0, 29, 0
1, 25212, Note_on_c, 0, 41, 0
1, 25223, Note_on_c, 0, 70, 101
1, 25223, Note_on_c, 0, 77, 83
1, 25223, Note_on_c, 0, 65, 96
1, 25223, Note_on_c, 0, 74, 96
1, 25230, Note_on_c, 0, 74, 0
1, 25232, Note_on_c, 0, 65, 0
1, 25233, Note_on_c, 0, 77, 0
1, 25233, Note_on_c, 0, 70, 0
1, 25247, Note_on_c, 0, 29, 85
1, 25248, Note_on_c, 0, 41, 94
1, 25271, Note_on_c, 0, 65, 110
1, 25271, Note_on_c, 0, 77, 89
1, 25271, Note_on_c, 0, 74, 104
1, 25271, Note_on_c, 0, 70, 109
1, 25291, Note_on_c, 0, 41, 0
1, 25294, Note_on_c, 0, 29, 0
1, 25304, Note_on_c, 0, 74, 0
1, 25306, Note_on_c, 0, 70, 0
1, 25310, Note_on_c, 0, 77, 0
1, 25312, Note_on_c, 0, 65, 0
1, 25343, Note_on_c, 0, 65, 104
1, 25343, Note_on_c, 0, 72, 110
1, 25343, Note_on_c, 0, 69, 116
1, 25344, Note_on_c, 0, 29, 93
1, 25344, Note_on_c, 0, 41, 94
1, 25344, Note_on_c, 0, 77, 97
1, 25393, Note_on_c, 0, 69, 0
1, 25394, Note_on_c, 0, 72, 0
1, 25394, Note_on_c, 0, 65, 0
1, 25394, Note_on_c, 0, 77, 0
1, 25398, Note_on_c, 0, 29, 0
1, 25402, Note_on_c, 0, 41, 0
1, 25415, Note_on_c, 0, 77, 72
1, 25415, Note_on_c, 0, 65, 82
1, 25415, Note_on_c, 0, 69, 85
1, 25415, Note_on_c, 0, 72, 85
1, 25424, Note_on_c, 0, 69, 0
1, 25425, Note_on_c, 0, 72, 0
1, 25425, Note_on_c, 0, 77, 0
1, 25428, Note_on_c, 0, 65, 0
1, 25439, Note_on_c, 0, 29, 85
1, 25440, Note_on_c, 0, 41, 96
1, 25482, Note_on_c, 0, 29, 0
1, 25487, Note_on_c, 0, 69, 110
1, 25487, Note_on_c, 0, 65, 106
1, 25487, Note_on_c, 0, 72, 108
1, 25487, Note_on_c, 0, 77, 102
1, 25488, Note_on_c, 0, 41, 0
1, 25494, Note_on_c, 0, 72, 0
1, 25494, Note_on_c, 0, 69, 0
1, 25498, Note_on_c, 0, 77, 0
1, 25500, Note_on_c, 0, 65, 0
1, 25537, Note_on_c, 0, 29, 82
1, 25537, Note_on_c, 0, 41, 97
1, 25574, Note_on_c, 0, 29, 0
1, 25578, Note_on_c, 0, 41, 0
1, 25583, Note_on_c, 0, 69, 116
1, 25583, Note_on_c, 0, 65, 114
1, 25583, Note_on_c, 0, 72, 116
1, 25583, Note_on_c, 0, 77, 99
1, 25593, Note_on_c, 0, 69, 0
1, 25594, Note_on_c, 0, 72, 0
1, 25601, Note_on_c, 0, 65, 0
1, 25616, Note_on_c, 0, 77, 0
1, 25631, Note_on_c, 0, 29, 83
1, 25631, Note_on_c, 0, 41, 93
1, 25655, Note_on_c, 0, 77, 68
1, 25655, Note_on_c, 0, 70, 84
1, 25655, Note_on_c, 0, 75, 74
1, 25655, Note_on_c, 0, 67, 82
1, 25660, Note_on_c, 0, 75, 0
1, 25661, Note_on_c, 0, 77, 0
1, 25662, Note_on_c, 0, 70, 0
1, 25665, Note_on_c, 0, 67, 0
1, 25673, Note_on_c, 0, 29, 0
1, 25674, Note_on_c, 0, 41, 0
1, 25679, Note_on_c, 0, 75, 74
1, 25679, Note_on_c, 0, 70, 87
1, 25679, Note_on_c, 0, 77, 67
1, 25679, Note_on_c, 0, 67, 65
1, 25683, Note_on_c, 0, 67, 0
1, 25685, Note_on_c, 0, 77, 0
1, 25685, Note_on_c, 0, 75, 0
1, 25686, Note_on_c, 0, 70, 0
1, 25703, Note_on_c, 0, 75, 97
1, 25703, Note_on_c, 0, 77, 77
1, 25703, Note_on_c, 0, 67, 99
1, 25703, Note_on_c, 0, 70, 109
1, 25708, Note_on_c, 0, 70, 0
1, 25708, Note_on_c, 0, 75, 0
1, 25708, Note_on_c, 0, 77, 0
1, 25711, Note_on_c, 0, 67, 0
1, 25726, Note_on_c, 0, 29, 82
1, 25727, Note_on_c, 0, 41, 92
1, 25727, Note_on_c, 0, 67, 102
1, 25727, Note_on_c, 0, 70, 106
1, 25727, Note_on_c, 0, 75, 115
1, 25728, Note_on_c, 0, 77, 97
1, 25728, Note_on_c, 9, 36, 105
1, 25729, Note_on_c, 1, 29, 105
1, 25734, Note_on_c, 9, 36, 0
1, 25752, Note_on_c, 9, 38, 100
1, 25758, Note_on_c, 9, 38, 0
1, 25761, Note_on_c, 0, 70, 0
1, 25761, Note_on_c, 0, 75, 0
1, 25761, Note_on_c, 0, 77, 0
1, 25763, Note_on_c, 0, 67, 0
1, 25770, Note_on_c, 1, 29, 0
1, 25775, Note_on_c, 0, 29, 0
1, 25776, Note_on_c, 9, 38, 114
1, 25777, Note_on_c, 0, 70, 57
1, 25777, Note_on_c, 0, 75, 49
1, 25777, Note_on_c, 0, 77, 56
1, 25782, Note_on_c, 0, 77, 0
1, 25782, Note_on_c, 9, 38, 0
1, 25782, Note_on_c, 0, 75, 0
1, 25783, Note_on_c, 0, 70, 0
1, 25787, Note_on_c, 0, 41, 0
1, 25799, Note_on_c, 1, 29, 90
1, 25800, Note_on_c, 9, 38, 103
1, 25801, Note_on_c, 0, 70, 99
1, 25801, Note_on_c, 0, 75, 79
1, 25801, Note_on_c, 0, 77, 78
1, 25801, Note_on_c, 0, 67, 86
1, 25806, Note_on_c, 0, 77, 0
1, 25806, Note_on_c, 0, 75, 0
1, 25806, Note_on_c, 9, 38, 0
1, 25807, Note_on_c, 0, 70, 0
1, 25807, Note_on_c, 0, 67, 0
1, 25817, Note_on_c, 1, 29, 0
1, 25823, Note_on_c, 0, 29, 94
1, 25823, Note_on_c, 1, 41, 103
1, 25824, Note_on_c, 0, 41, 99
1, 25824, Note_on_c, 9, 38, 111
1, 25825, Note_on_c, 0, 67, 110
1, 25825, Note_on_c, 0, 77, 99
1, 25825, Note_on_c, 0, 75, 118
1, 25825, Note_on_c, 0, 70, 115
1, 25830, Note_on_c, 9, 38, 0
1, 25844, Note_on_c, 1, 41, 0
1, 25847, Note_on_c, 1, 29, 92
1, 25848, Note_on_c, 9, 45, 64
1, 25852, Note_on_c, 0, 77, 0
1, 25854, Note_on_c, 9, 45, 0
1, 25854, Note_on_c, 0, 70, 0
1, 25854, Note_on_c, 0, 75, 0
1, 25855, Note_on_c, 0, 67, 0
1, 25861, Note_on_c, 1, 29, 0
1, 25862, Note_on_c, 0, 29, 0
1, 25872, Note_on_c, 9, 45, 89
1, 25873, Note_on_c, 0, 77, 58
1, 25873, Note_on_c, 0, 70, 77
1, 25873, Note_on_c, 0, 75, 73
1, 25873, Note_on_c, 0, 67, 67
1, 25876, Note_on_c, 0, 41, 0
1, 25877, Note_on_c, 0, 77, 0
1, 25878, Note_on_c, 9, 45, 0
1, 25879, Note_on_c, 0, 67, 0
1, 25880, Note_on_c, 0, 70, 0
1, 25880, Note_on_c, 0, 75, 0
1, 25896, Note_on_c, 9, 45, 76
1, 25896, Note_on_c, 1, 39, 100
1, 25897, Note_on_c, 0, 70, 89
1, 25897, Note_on_c, 0, 67, 88
1, 25897, Note_on_c, 0, 75, 77
1, 25897, Note_on_c, 0, 77, 80
1, 25902, Note_on_c, 9, 45, 0
1, 25905, Note_on_c, 0, 70, 0
1, 25905, Note_on_c, 0, 67, 0
1, 25905, Note_on_c, 0, 75, 0
1, 25905, Note_on_c, 0, 77, 0
1, 25913, Note_on_c, 1, 39, 0
1, 25920, Note_on_c, 9, 45, 96
1, 25921, Note_on_c, 0, 67, 94
1, 25921, Note_on_c, 0, 70, 99
1, 25921, Note_on_c, 0, 77, 82
1, 25921, Note_on_c, 0, 75, 87
1, 25921, Note_on_c, 0, 41, 100
1, 25926, Note_on_c, 9, 45, 0
1, 25930, Note_on_c, 0, 77, 0
1, 25931, Note_on_c, 0, 75, 0
1, 25931, Note_on_c, 0, 67, 0
1, 25931, Note_on_c, 0, 70, 0
1, 25944, Note_on_c, 9, 38, 104
1, 25945, Note_on_c, 1, 29, 99
1, 25945, Note_on_c, 0, 77, 75
1, 25945, Note_on_c, 0, 74, 102
1, 25945, Note_on_c, 0, 65, 106
1, 25945, Note_on_c, 0, 70, 89
1, 25950, Note_on_c, 9, 38, 0
1, 25951, Note_on_c, 0, 74, 0
1, 25951, Note_on_c, 0, 70, 0
1, 25955, Note_on_c, 0, 65, 0
1, 25957, Note_on_c, 0, 41, 0
1, 25957, Note_on_c, 0, 77, 0
1, 25960, Note_on_c, 1, 29, 0
1, 25968, Note_on_c, 9, 38, 114
1, 25969, Note_on_c, 1, 41, 98
1, 25974, Note_on_c, 9, 38, 0
1, 25990, Note_on_c, 1, 41, 0
1, 25991, Note_on_c, 1, 39, 97
1, 25992, Note_on_c, 9, 45, 73
1, 25993, Note_on_c, 0, 65, 93
1, 25993, Note_on_c, 0, 74, 82
1, 25993, Note_on_c, 0, 70, 89
1, 25993, Note_on_c, 0, 77, 82
1, 25998, Note_on_c, 0, 74, 0
1, 25998, Note_on_c, 9, 45, 0
1, 26002, Note_on_c, 0, 70, 0
1, 26002, Note_on_c, 0, 77, 0
1, 26004, Note_on_c, 0, 65, 0
1, 26014, Note_on_c, 1, 39, 0
1, 26015, Note_on_c, 0, 41, 96
1, 26015, Note_on_c, 1, 38, 99
1, 26016, Note_on_c, 9, 45, 95
1, 26022, Note_on_c, 9, 45, 0
1, 26037, Note_on_c, 1, 38, 0
1, 26039, Note_on_c, 0, 70, 112
1, 26039, Note_on_c, 0, 65, 100
1, 26039, Note_on_c, 0, 74, 102
1, 26039, Note_on_c, 0, 77, 96
1, 26039, Note_on_c, 1, 36, 93
1, 26040, Note_on_c, 9, 43, 72
1, 26046, Note_on_c, 9, 43, 0
1, 26050, Note_on_c, 0, 70, 0
1, 26050, Note_on_c, 0, 74, 0
1, 26051, Note_on_c, 0, 77, 0
1, 26051, Note_on_c, 0, 41, 0
1, 26052, Note_on_c, 0, 65, 0
1, 26063, Note_on_c, 1, 36, 0
1, 26064, Note_on_c, 9, 43, 96
1, 26064, Note_on_c, 1, 34, 104
1, 26070, Note_on_c, 9, 43, 0
1, 26084, Note_on_c, 1, 34, 0
1, 26088, Note_on_c, 9, 43, 105
1, 26088, Note_on_c, 1, 32, 103
1, 26094, Note_on_c, 9, 43, 0
1, 26110, Note_on_c, 1, 32, 0
1, 26111, Note_on_c, 0, 72, 92
1, 26111, Note_on_c, 0, 77, 100
1, 26111, Note_on_c, 0, 68, 115
1, 26111, Note_on_c, 0, 41, 92
1, 26111, Note_on_c, 0, 65, 97
1, 26112, Note_on_c, 9, 64, 105
1, 26112, Note_on_c, 1, 29, 99
1, 26112, Note_on_c, 9, 49, 69
1, 26112, Note_on_c, 9, 36, 90
1, 26113, Note_on_c, 0, 69, 53
1, 26113, Pitch_bend_c, 9, 8192
1, 26113, Control_c, 9, 1, 0
1, 26118, Note_on_c, 9, 36, 0
1, 26118, Note_on_c, 9, 49, 0
1, 26118, Note_on_c, 9, 64, 0
1, 26120, Note_on_c, 0, 68, 0
1, 26136, Note_on_c, 9, 64, 65
1, 26142, Note_on_c, 9, 64, 0
1, 26152, Note_on_c, 0, 69, 0
1, 26160, Note_on_c, 9, 42, 46
1, 26160, Note_on_c, 9, 64, 86
1, 26160, Note_on_c, 9, 36, 58
1, 26161, Note_on_c, 0, 72, 0
1, 26162, Note_on_c, 0, 65, 0
1, 26164, Note_on_c, 0, 77, 0
1, 26165, Note_on_c, 1, 29, 0
1, 26166, Note_on_c, 9, 36, 0
1, 26166, Note_on_c, 9, 42, 0
1, 26166, Note_on_c, 9, 64, 0
1, 26166, Note_on_c, 0, 41, 0
1, 26184, Note_on_c, 9, 64, 65
1, 26185, Note_on_c, 1, 29, 92
1, 26185, Note_on_c, 0, 77, 90
1, 26185, Note_on_c, 0, 65, 89
1, 26185, Note_on_c, 0, 72, 89
1, 26185, Note_on_c, 0, 69, 104
1, 26190, Note_on_c, 9, 64, 0
1, 26191, Note_on_c, 0, 72, 0
1, 26192, Note_on_c, 0, 77, 0
1, 26192, Note_on_c, 0, 69, 0
1, 26194, Note_on_c, 0, 65, 0
1, 26202, Note_on_c, 1, 29, 0
1, 26207, Note_on_c, 0, 41, 96
1, 26208, Note_on_c, 9, 46, 65
1, 26208, Note_on_c, 9, 38, 107
1, 26208, Note_on_c, 1, 41, 103
1, 26208, Note_on_c, 9, 63, 79
1, 26214, Note_on_c, 9, 63, 0
1, 26214, Note_on_c, 9, 38, 0
1, 26214, Note_on_c, 9, 46, 0
1, 26232, Note_on_c, 1, 41, 0
1, 26232, Note_on_c, 9, 64, 60
1, 26233, Note_on_c, 1, 29, 89
1, 26238, Note_on_c, 9, 64, 0
1, 26241, Note_on_c, 1, 29, 0
1, 26244, Note_on_c, 0, 41, 0
1, 26255, Note_on_c, 0, 65, 96
1, 26255, Note_on_c, 0, 69, 104
1, 26255, Note_on_c, 0, 72, 99
1, 26255, Note_on_c, 0, 77, 93
1, 26256, Note_on_c, 9, 42, 46
1, 26256, Note_on_c, 9, 63, 65
1, 26256, Note_on_c, 9, 36, 48
1, 26262, Note_on_c, 9, 36, 0
1, 26262, Note_on_c, 9, 42, 0
1, 26262, Note_on_c, 9, 63, 0
1, 26264, Note_on_c, 0, 69, 0
1, 26266, Note_on_c, 0, 65, 0
1, 26266, Note_on_c, 0, 72, 0
1, 26270, Note_on_c, 0, 77, 0
1, 26280, Note_on_c, 1, 29, 89
1, 26280, Note_on_c, 9, 38, 98
1, 26280, Note_on_c, 9, 63, 81
1, 26286, Note_on_c, 9, 63, 0
1, 26286, Note_on_c, 9, 38, 0
1, 26288, Note_on_c, 1, 29, 0
1, 26304, Note_on_c, 9, 64, 91
1, 26304, Note_on_c, 9, 36, 47
1, 26304, Note_on_c, 9, 42, 40
1, 26305, Note_on_c, 0, 41, 93
1, 26310, Note_on_c, 9, 42, 0
1, 26310, Note_on_c, 9, 64, 0
1, 26310, Note_on_c, 9, 36, 0
1, 26327, Note_on_c, 1, 29, 98
1, 26328, Note_on_c, 9, 64, 76
1, 26329, Note_on_c, 0, 72, 108
1, 26329, Note_on_c, 0, 65, 99
1, 26329, Note_on_c, 0, 77, 97
1, 26329, Note_on_c, 0, 69, 110
1, 26334, Note_on_c, 9, 64, 0
1, 26338, Note_on_c, 0, 72, 0
1, 26338, Note_on_c, 0, 69, 0
1, 26340, Note_on_c, 0, 65, 0
1, 26341, Note_on_c, 0, 77, 0
1, 26343, Note_on_c, 0, 41, 0
1, 26345, Note_on_c, 1, 29, 0
1, 26351, Note_on_c, 1, 41, 104
1, 26352, Note_on_c, 9, 36, 72
1, 26352, Note_on_c, 9, 64, 85
1, 26352, Note_on_c, 9, 42, 73
1, 26358, Note_on_c, 9, 42, 0
1, 26358, Note_on_c, 9, 64, 0
1, 26358, Note_on_c, 9, 36, 0
1, 26370, Note_on_c, 1, 41, 0
1, 26374, Note_on_c, 1, 39, 77
1, 26376, Note_on_c, 9, 64, 71
1, 26382, Note_on_c, 9, 64, 0
1, 26391, Note_on_c, 1, 39, 0
1, 26399, Note_on_c, 0, 65, 96
1, 26399, Note_on_c, 1, 39, 104
1, 26399, Note_on_c, 0, 72, 112
1, 26399, Note_on_c, 0, 69, 108
1, 26399, Note_on_c, 0, 77, 100
1, 26400, Note_on_c, 9, 63, 88
1, 26400, Note_on_c, 9, 38, 104
1, 26400, Note_on_c, 9, 46, 73
1, 26400, Note_on_c, 0, 41, 99
1, 26406, Note_on_c, 9, 46, 0
1, 26406, Note_on_c, 9, 38, 0
1, 26406, Note_on_c, 9, 63, 0
1, 26408, Note_on_c, 0, 69, 0
1, 26410, Note_on_c, 0, 77, 0
1, 26410, Note_on_c, 0, 72, 0
1, 26410, Note_on_c, 0, 65, 0
1, 26422, Note_on_c, 1, 39, 0
1, 26423, Note_on_c, 1, 38, 94
1, 26424, Note_on_c, 9, 64, 60
1, 26430, Note_on_c, 9, 64, 0
1, 26438, Note_on_c, 0, 41, 0
1, 26446, Note_on_c, 1, 38, 0
1, 26447, Note_on_c, 0, 69, 93
1, 26447, Note_on_c, 0, 77, 87
1, 26447, Note_on_c, 0, 65, 94
1, 26447, Note_on_c, 0, 72, 89
1, 26448, Note_on_c, 9, 42, 52
1, 26448, Note_on_c, 9, 63, 71
1, 26448, Note_on_c, 9, 36, 62
1, 26448, Note_on_c, 1, 36, 95
1, 26454, Note_on_c, 9, 36, 0
1, 26454, Note_on_c, 9, 63, 0
1, 26454, Note_on_c, 9, 42, 0
1, 26458, Note_on_c, 0, 72, 0
1, 26459, Note_on_c, 0, 65, 0
1, 26459, Note_on_c, 0, 69, 0
1, 26463, Note_on_c, 1, 36, 0
1, 26463, Note_on_c, 0, 77, 0
1, 26471, Note_on_c, 1, 36, 92
1, 26472, Note_on_c, 9, 63, 76
1, 26478, Note_on_c, 9, 63, 0
1, 26494, Note_on_c, 1, 36, 0
1, 26496, Note_on_c, 9, 36, 73
1, 26496, Note_on_c, 9, 42, 59
1, 26496, Note_on_c, 0, 75, 95
1, 26496, Note_on_c, 0, 70, 99
1, 26496, Note_on_c, 0, 67, 96
1, 26496, Note_on_c, 0, 77, 92
1, 26496, Note_on_c, 0, 41, 97
1, 26496, Note_on_c, 9, 64, 86
1, 26497, Note_on_c, 1, 29, 88
1, 26502, Note_on_c, 9, 64, 0
1, 26502, Note_on_c, 9, 42, 0
1, 26502, Note_on_c, 9, 36, 0
1, 26503, Note_on_c, 0, 70, 0
1, 26503, Note_on_c, 0, 75, 0
1, 26503, Note_on_c, 0, 77, 0
1, 26506, Note_on_c, 0, 67, 0
1, 26519, Note_on_c, 0, 75, 68
1, 26519, Note_on_c, 0, 77, 42
1, 26519, Note_on_c, 0, 70, 69
1, 26519, Note_on_c, 0, 67, 61
1, 26520, Note_on_c, 9, 64, 82
1, 26526, Note_on_c, 9, 64, 0
1, 26530, Note_on_c, 0, 70, 0
1, 26530, Note_on_c, 0, 77, 0
1, 26530, Note_on_c, 0, 75, 0
1, 26530, Note_on_c, 0, 67, 0
1, 26542, Note_on_c, 1, 29, 0
1, 26544, Note_on_c, 0, 41, 0
1, 26544, Note_on_c, 9, 64, 82
1, 26544, Note_on_c, 9, 36, 86
1, 26544, Note_on_c, 9, 42, 71
1, 26550, Note_on_c, 9, 42, 0
1, 26550, Note_on_c, 9, 36, 0
1, 26550, Note_on_c, 9, 64, 0
1, 26567, Note_on_c, 1, 29, 98
1, 26567, Note_on_c, 0, 77, 82
1, 26567, Note_on_c, 0, 75, 86
1, 26567, Note_on_c, 0, 67, 100
1, 26567, Note_on_c, 0, 70, 103
1, 26568, Note_on_c, 9, 64, 69
1, 26574, Note_on_c, 9, 64, 0
1, 26574, Note_on_c, 0, 77, 0
1, 26574, Note_on_c, 0, 75, 0
1, 26576, Note_on_c, 0, 67, 0
1, 26577, Note_on_c, 0, 70, 0
1, 26581, Note_on_c, 1, 29, 0
1, 26591, Note_on_c, 1, 41, 96
1, 26592, Note_on_c, 9, 46, 73
1, 26592, Note_on_c, 9, 38, 104
1, 26592, Note_on_c, 9, 63, 97
1, 26593, Note_on_c, 0, 41, 93
1, 26598, Note_on_c, 9, 63, 0
1, 26598, Note_on_c, 9, 38, 0
1, 26598, Note_on_c, 9, 46, 0
1, 26615, Note_on_c, 0, 77, 87
1, 26615, Note_on_c, 0, 67, 104
1, 26615, Note_on_c, 0, 75, 93
1, 26615, Note_on_c, 0, 70, 101
1, 26616, Note_on_c, 1, 41, 0
1, 26616, Note_on_c, 9, 64, 61
1, 26617, Note_on_c, 1, 29, 84
1, 26622, Note_on_c, 9, 64, 0
1, 26624, Note_on_c, 1, 29, 0
1, 26626, Note_on_c, 0, 70, 0
1, 26628, Note_on_c, 0, 67, 0
1, 26629, Note_on_c, 0, 75, 0
1, 26631, Note_on_c, 0, 41, 0
1, 26639, Note_on_c, 0, 67, 31
1, 26640, Note_on_c, 9, 42, 52
1, 26640, Note_on_c, 9, 36, 64
1, 26640, Note_on_c, 9, 63, 65
1, 26646, Note_on_c, 9, 63, 0
1, 26646, Note_on_c, 9, 42, 0
1, 26646, Note_on_c, 0, 77, 0
1, 26646, Note_on_c, 0, 67, 0
1, 26646, Note_on_c, 9, 36, 0
1, 26663, Note_on_c, 0, 67, 72
1, 26664, Note_on_c, 9, 38, 103
1, 26664, Note_on_c, 1, 29, 86
1, 26664, Note_on_c, 9, 63, 77
1, 26670, Note_on_c, 9, 63, 0
1, 26670, Note_on_c, 1, 29, 0
1, 26670, Note_on_c, 9, 38, 0
1, 26674, Note_on_c, 0, 67, 0
1, 26687, Note_on_c, 0, 41, 92
1, 26688, Note_on_c, 9, 64, 93
1, 26688, Note_on_c, 9, 36, 62
1, 26688, Note_on_c, 9, 42, 45
1, 26694, Note_on_c, 9, 42, 0
1, 26694, Note_on_c, 9, 36, 0
1, 26694, Note_on_c, 9, 64, 0
1, 26711, Note_on_c, 1, 29, 86
1, 26712, Note_on_c, 0, 65, 100
1, 26712, Note_on_c, 0, 74, 106
1, 26712, Note_on_c, 9, 64, 77
1, 26712, Note_on_c, 0, 77, 93
1, 26712, Note_on_c, 0, 70, 95
1, 26718, Note_on_c, 9, 64, 0
1, 26721, Note_on_c, 0, 74, 0
1, 26723, Note_on_c, 0, 65, 0
1, 26723, Note_on_c, 0, 70, 0
1, 26725, Note_on_c, 0, 77, 0
1, 26729, Note_on_c, 1, 29, 0
1, 26731, Note_on_c, 0, 41, 0
1, 26735, Note_on_c, 1, 41, 106
1, 26736, Note_on_c, 9, 42, 67
1, 26736, Note_on_c, 9, 36, 76
1, 26736, Note_on_c, 9, 64, 85
1, 26742, Note_on_c, 9, 64, 0
1, 26742, Note_on_c, 9, 36, 0
1, 26742, Note_on_c, 9, 42, 0
1, 26750, Note_on_c, 1, 41, 0
1, 26759, Note_on_c, 1, 41, 99
1, 26760, Note_on_c, 9, 64, 71
1, 26766, Note_on_c, 9, 64, 0
1, 26778, Note_on_c, 1, 41, 0
1, 26783, Note_on_c, 0, 65, 110
1, 26783, Note_on_c, 0, 77, 100
1, 26783, Note_on_c, 0, 74, 108
1, 26783, Note_on_c, 0, 70, 106
1, 26783, Note_on_c, 1, 39, 80
1, 26784, Note_on_c, 9, 46, 77
1, 26784, Note_on_c, 9, 63, 83
1, 26784, Note_on_c, 9, 38, 104
1, 26785, Note_on_c, 0, 41, 82
1, 26790, Note_on_c, 9, 38, 0
1, 26790, Note_on_c, 9, 63, 0
1, 26790, Note_on_c, 9, 46, 0
1, 26794, Note_on_c, 0, 70, 0
1, 26794, Note_on_c, 0, 74, 0
1, 26794, Note_on_c, 0, 65, 0
1, 26794, Note_on_c, 0, 77, 0
1, 26798, Note_on_c, 1, 39, 0
1, 26807, Note_on_c, 1, 39, 80
1, 26808, Note_on_c, 9, 64, 75
1, 26814, Note_on_c, 9, 64, 0
1, 26829, Note_on_c, 0, 41, 0
1, 26831, Note_on_c, 1, 39, 0
1, 26832, Note_on_c, 1, 38, 84
1, 26832, Note_on_c, 9, 42, 52
1, 26832, Note_on_c, 9, 63, 68
1, 26832, Note_on_c, 9, 36, 39
1, 26833, Note_on_c, 0, 77, 88
1, 26833, Note_on_c, 0, 70, 99
1, 26833, Note_on_c, 0, 65, 97
1, 26833, Note_on_c, 0, 74, 100
1, 26838, Note_on_c, 9, 36, 0
1, 26838, Note_on_c, 9, 63, 0
1, 26838, Note_on_c, 9, 42, 0
1, 26845, Note_on_c, 0, 74, 0
1, 26846, Note_on_c, 0, 77, 0
1, 26846, Note_on_c, 0, 70, 0
1, 26850, Note_on_c, 0, 65, 0
1, 26854, Note_on_c, 1, 38, 0
1, 26856, Note_on_c, 9, 63, 72
1, 26856, Note_on_c, 1, 36, 87
1, 26862, Note_on_c, 9, 63, 0
1, 26878, Note_on_c, 1, 36, 0
1, 26880, Note_on_c, 9, 49, 62
1, 26880, Note_on_c, 1, 29, 99
1, 26880, Note_on_c, 9, 36, 78
1, 26880, Note_on_c, 9, 64, 85
1, 26881, Note_on_c, 0, 41, 92
1, 26881, Note_on_c, 0, 77, 85
1, 26881, Note_on_c, 0, 65, 100
1, 26881, Note_on_c, 0, 72, 102
1, 26881, Note_on_c, 0, 69, 100
1, 26886, Note_on_c, 9, 64, 0
1, 26886, Note_on_c, 9, 36, 0
1, 26886, Note_on_c, 9, 49, 0
1, 26904, Note_on_c, 9, 64, 66
1, 26910, Note_on_c, 9, 64, 0
1, 26926, Note_on_c, 1, 29, 0
1, 26928, Note_on_c, 9, 64, 71
1, 26928, Note_on_c, 9, 36, 73
1, 26928, Note_on_c, 9, 42, 60
1, 26930, Note_on_c, 0, 65, 0
1, 26930, Note_on_c, 0, 69, 0
1, 26930, Note_on_c, 0, 72, 0
1, 26934, Note_on_c, 9, 64, 0
1, 26934, Note_on_c, 0, 77, 0
1, 26934, Note_on_c, 9, 42, 0
1, 26934, Note_on_c, 9, 36, 0
1, 26936, Note_on_c, 0, 41, 0
1, 26951, Note_on_c, 0, 65, 87
1, 26951, Note_on_c, 1, 29, 91
1, 26951, Note_on_c, 0, 72, 100
1, 26951, Note_on_c, 0, 77, 82
1, 26951, Note_on_c, 0, 69, 99
1, 26952, Note_on_c, 9, 64, 65
1, 26958, Note_on_c, 9, 64, 0
1, 26959, Note_on_c, 1, 29, 0
1, 26962, Note_on_c, 0, 69, 0
1, 26962, Note_on_c, 0, 72, 0
1, 26963, Note_on_c, 0, 65, 0
1, 26963, Note_on_c, 0, 77, 0
1, 26975, Note_on_c, 0, 41, 90
1, 26975, Note_on_c, 1, 41, 104
1, 26976, Note_on_c, 9, 46, 60
1, 26976, Note_on_c, 9, 38, 107
1, 26976, Note_on_c, 9, 63, 95
1, 26982, Note_on_c, 9, 63, 0
1, 26982, Note_on_c, 9, 46, 0
1, 26982, Note_on_c, 9, 38, 0
1, 27000, Note_on_c, 1, 41, 0
1, 27000, Note_on_c, 9, 64, 59
1, 27000, Note_on_c, 0, 69, 100
1, 27000, Note_on_c, 0, 77, 89
1, 27001, Note_on_c, 0, 72, 99
1, 27001, Note_on_c, 0, 65, 85
1, 27001, Note_on_c, 1, 29, 92
1, 27006, Note_on_c, 9, 64, 0
1, 27007, Note_on_c, 1, 29, 0
1, 27010, Note_on_c, 0, 72, 0
1, 27011, Note_on_c, 0, 69, 0
1, 27014, Note_on_c, 0, 65, 0
1, 27015, Note_on_c, 0, 77, 0
1, 27015, Note_on_c, 0, 41, 0
1, 27024, Note_on_c, 9, 36, 68
1, 27024, Note_on_c, 9, 42, 52
1, 27024, Note_on_c, 9, 63, 60
1, 27030, Note_on_c, 9, 63, 0
1, 27030, Note_on_c, 9, 42, 0
1, 27030, Note_on_c, 9, 36, 0
1, 27048, Note_on_c, 9, 38, 100
1, 27048, Note_on_c, 9, 63, 74
1, 27048, Note_on_c, 1, 29, 90
1, 27054, Note_on_c, 1, 29, 0
1, 27054, Note_on_c, 9, 63, 0
1, 27054, Note_on_c, 9, 38, 0
1, 27071, Note_on_c, 0, 41, 104
1, 27071, Note_on_c, 0, 77, 93
1, 27071, Note_on_c, 0, 68, 109
1, 27071, Note_on_c, 0, 65, 89
1, 27071, Note_on_c, 0, 72, 108
1, 27072, Note_on_c, 9, 36, 48
1, 27072, Note_on_c, 9, 42, 62
1, 27072, Note_on_c, 9, 64, 97
1, 27073, Note_on_c, 0, 69, 70
1, 27078, Note_on_c, 9, 64, 0
1, 27078, Note_on_c, 9, 42, 0
1, 27078, Note_on_c, 9, 36, 0
1, 27080, Note_on_c, 0, 68, 0
1, 27095, Note_on_c, 1, 29, 97
1, 27096, Note_on_c, 9, 64, 77
1, 27102, Note_on_c, 9, 64, 0
1, 27103, Note_on_c, 1, 29, 0
1, 27116, Note_on_c, 0, 69, 0
1, 27119, Note_on_c, 1, 41, 105
1, 27120, Note_on_c, 0, 41, 0
1, 27120, Note_on_c, 9, 64, 78
1, 27120, Note_on_c, 9, 36, 75
1, 27120, Note_on_c, 9, 42, 75
1, 27122, Note_on_c, 0, 77, 0
1, 27122, Note_on_c, 0, 72, 0
1, 27122, Note_on_c, 0, 65, 0
1, 27126, Note_on_c, 9, 64, 0
1, 27126, Note_on_c, 9, 42, 0
1, 27126, Note_on_c, 9, 36, 0
1, 27136, Note_on_c, 1, 41, 0
1, 27143, Note_on_c, 0, 77, 92
1, 27143, Note_on_c, 0, 69, 110
1, 27143, Note_on_c, 0, 72, 106
1, 27143, Note_on_c, 0, 65, 97
1, 27143, Note_on_c, 1, 39, 74
1, 27144, Note_on_c, 9, 64, 76
1, 27150, Note_on_c, 9, 64, 0
1, 27156, Note_on_c, 0, 69, 0
1, 27156, Note_on_c, 0, 72, 0
1, 27156, Note_on_c, 1, 39, 0
1, 27158, Note_on_c, 0, 65, 0
1, 27164, Note_on_c, 0, 77, 0
1, 27166, Note_on_c, 0, 41, 92
1, 27167, Note_on_c, 1, 39, 86
1, 27168, Note_on_c, 9, 63, 86
1, 27168, Note_on_c, 9, 38, 109
1, 27168, Note_on_c, 9, 46, 77
1, 27174, Note_on_c, 9, 46, 0
1, 27174, Note_on_c, 9, 63, 0
1, 27174, Note_on_c, 9, 38, 0
1, 27190, Note_on_c, 1, 39, 0
1, 27191, Note_on_c, 1, 38, 92
1, 27192, Note_on_c, 9, 64, 62
1, 27192, Note_on_c, 9, 45, 62
1, 27198, Note_on_c, 9, 45, 0
1, 27198, Note_on_c, 9, 64, 0
1, 27205, Note_on_c, 0, 41, 0
1, 27215, Note_on_c, 0, 77, 87
1, 27215, Note_on_c, 0, 69, 97
1, 27215, Note_on_c, 0, 65, 99
1, 27215, Note_on_c, 0, 72, 99
1, 27216, Note_on_c, 1, 38, 0
1, 27216, Note_on_c, 9, 42, 59
1, 27216, Note_on_c, 9, 63, 65
1, 27216, Note_on_c, 9, 45, 45
1, 27217, Note_on_c, 1, 36, 91
1, 27222, Note_on_c, 9, 45, 0
1, 27222, Note_on_c, 9, 63, 0
1, 27222, Note_on_c, 9, 42, 0
1, 27226, Note_on_c, 0, 69, 0
1, 27227, Note_on_c, 0, 72, 0
1, 27233, Note_on_c, 0, 65, 0
1, 27238, Note_on_c, 0, 77, 0
1, 27240, Note_on_c, 9, 63, 74
1, 27240, Note_on_c, 9, 45, 76
1, 27246, Note_on_c, 9, 45, 0
1, 27246, Note_on_c, 9, 63, 0
1, 27261, Note_on_c, 1, 36, 0
1, 27264, Note_on_c, 9, 64, 89
1, 27264, Note_on_c, 9, 38, 106
1, 27264, Note_on_c, 9, 42, 65
1, 27270, Note_on_c, 9, 42, 0
1, 27270, Note_on_c, 9, 38, 0
1, 27270, Note_on_c, 9, 64, 0
1, 27286, Note_on_c, 7, 63, 98
1, 27287, Pitch_bend_c, 7, 8192
1, 27287, Control_c, 7, 1, 0
1, 27288, Note_on_c, 9, 63, 95
1, 27288, Note_on_c, 9, 55, 99
1, 27288, Note_on_c, 5, 63, 113
1, 27288, Note_on_c, 9, 36, 58
1, 27289, Pitch_bend_c, 5, 8192
1, 27289, Note_on_c, 0, 77, 93
1, 27289, Note_on_c, 0, 75, 112
1, 27289, Control_c, 5, 1, 0
1, 27289, Note_on_c, 0, 67, 106
1, 27289, Note_on_c, 1, 39, 93
1, 27289, Note_on_c, 0, 70, 109
1, 27290, Note_on_c, 0, 39, 93
1, 27290, Note_on_c, 6, 51, 100
1, 27291, Pitch_bend_c, 6, 8192
1, 27291, Control_c, 6, 1, 0
1, 27294, Note_on_c, 9, 36, 0
1, 27294, Note_on_c, 9, 55, 0
1, 27294, Note_on_c, 9, 63, 0
1, 27312, Note_on_c, 0, 77, 0
1, 27312, Note_on_c, 9, 64, 72
1, 27315, Note_on_c, 0, 67, 0
1, 27318, Note_on_c, 9, 64, 0
1, 27318, Note_on_c, 0, 70, 0
1, 27318, Note_on_c, 0, 75, 0
1, 27322, Note_on_c, 1, 39, 0
1, 27328, Note_on_c, 0, 39, 0
1, 27333, Note_on_c, 6, 51, 0
1, 27334, Note_on_c, 7, 63, 0
1, 27336, Note_on_c, 9, 64, 89
1, 27342, Note_on_c, 9, 64, 0
1, 27352, Note_on_c, 5, 63, 0
1, 27355, Note_on_c, 6, 50, 103
1, 27357, Note_on_c, 0, 38, 100
1, 27359, Note_on_c, 0, 70, 103
1, 27359, Note_on_c, 0, 77, 87
1, 27359, Note_on_c, 0, 65, 102
1, 27360, Note_on_c, 9, 55, 105
1, 27360, Note_on_c, 9, 63, 76
1, 27360, Note_on_c, 9, 36, 78
1, 27360, Note_on_c, 0, 74, 92
1, 27361, Note_on_c, 1, 38, 117
1, 27362, Note_on_c, 5, 62, 109
1, 27363, Note_on_c, 7, 62, 109
1, 27366, Note_on_c, 9, 36, 0
1, 27366, Note_on_c, 9, 63, 0
1, 27366, Note_on_c, 9, 55, 0
1, 27384, Note_on_c, 9, 64, 86
1, 27390, Note_on_c, 9, 64, 0
1, 27395, Note_on_c, 0, 70, 0
1, 27397, Note_on_c, 0, 74, 0
1, 27401, Note_on_c, 1, 38, 0
1, 27406, Note_on_c, 0, 65, 0
1, 27406, Note_on_c, 5, 62, 0
1, 27407, Note_on_c, 0, 38, 0
1, 27408, Note_on_c, 9, 64, 76
1, 27408, Note_on_c, 9, 36, 58
1, 27409, Note_on_c, 0, 77, 0
1, 27411, Note_on_c, 6, 50, 0
1, 27414, Note_on_c, 9, 64, 0
1, 27414, Note_on_c, 7, 62, 0
1, 27414, Note_on_c, 9, 36, 0
1, 27429, Note_on_c, 0, 36, 82
1, 27430, Note_on_c, 6, 48, 99
1, 27431, Note_on_c, 0, 72, 99
1, 27431, Note_on_c, 0, 77, 88
1, 27431, Note_on_c, 0, 65, 99
1, 27431, Note_on_c, 0, 69, 106
1, 27432, Note_on_c, 9, 63, 78
1, 27432, Note_on_c, 1, 36, 104
1, 27432, Note_on_c, 9, 55, 105
1, 27432, Note_on_c, 9, 38, 101
1, 27433, Note_on_c, 5, 60, 106
1, 27434, Note_on_c, 7, 60, 97
1, 27438, Note_on_c, 9, 38, 0
1, 27438, Note_on_c, 9, 55, 0
1, 27438, Note_on_c, 9, 63, 0
1, 27456, Note_on_c, 0, 36, 0
1, 27456, Note_on_c, 9, 64, 93
1, 27462, Note_on_c, 9, 64, 0
1, 27470, Note_on_c, 0, 65, 0
1, 27470, Note_on_c, 0, 69, 0
1, 27474, Note_on_c, 1, 36, 0
1, 27474, Note_on_c, 0, 72, 0
1, 27476, Note_on_c, 0, 77, 0
1, 27480, Note_on_c, 9, 64, 95
1, 27480, Note_on_c, 9, 38, 95
1, 27486, Note_on_c, 9, 38, 0
1, 27486, Note_on_c, 9, 64, 0
1, 27494, Note_on_c, 5, 60, 0
1, 27496, Note_on_c, 6, 48, 0
1, 27498, Note_on_c, 0, 34, 103
1, 27502, Note_on_c, 7, 60, 0
1, 27502, Note_on_c, 6, 46, 113
1, 27503, Note_on_c, 0, 77, 81
1, 27503, Note_on_c, 0, 65, 99
1, 27503, Note_on_c, 0, 70, 109
1, 27503, Note_on_c, 0, 74, 100
1, 27504, Note_on_c, 9, 55, 105
1, 27504, Note_on_c, 9, 36, 65
1, 27504, Note_on_c, 9, 63, 88
1, 27505, Note_on_c, 5, 58, 84
1, 27505, Note_on_c, 1, 34, 112
1, 27506, Note_on_c, 7, 58, 87
1, 27510, Note_on_c, 9, 63, 0
1, 27510, Note_on_c, 9, 36, 0
1, 27510, Note_on_c, 9, 55, 0
1, 27514, Note_on_c, 0, 74, 0
1, 27514, Note_on_c, 0, 65, 0
1, 27515, Note_on_c, 0, 70, 0
1, 27518, Note_on_c, 0, 77, 0
1, 27520, Note_on_c, 1, 34, 0
1, 27528, Note_on_c, 9, 64, 97
1, 27529, Note_on_c, 0, 34, 0
1, 27532, Note_on_c, 5, 58, 0
1, 27534, Note_on_c, 9, 64, 0
1, 27539, Note_on_c, 7, 58, 0
1, 27541, Note_on_c, 6, 46, 0
1, 27552, Note_on_c, 9, 38, 110
1, 27552, Note_on_c, 1, 33, 103
1, 27552, Note_on_c, 0, 77, 82
1, 27552, Note_on_c, 0, 72, 99
1, 27552, Note_on_c, 9, 63, 78
1, 27553, Note_on_c, 0, 65, 88
1, 27553, Note_on_c, 0, 33, 82
1, 27553, Note_on_c, 0, 69, 94
1, 27554, Note_on_c, 6, 45, 100
1, 27554, Note_on_c, 7, 57, 85
1, 27554, Note_on_c, 5, 57, 106
1, 27558, Note_on_c, 9, 63, 0
1, 27558, Note_on_c, 9, 38, 0
1, 27562, Note_on_c, 0, 69, 0
1, 27565, Note_on_c, 0, 72, 0
1, 27566, Note_on_c, 0, 65, 0
1, 27566, Note_on_c, 0, 77, 0
1, 27574, Note_on_c, 1, 33, 0
1, 27576, Note_on_c, 9, 63, 76
1, 27578, Note_on_c, 5, 57, 0
1, 27582, Note_on_c, 9, 63, 0
1, 27584, Note_on_c, 7, 57, 0
1, 27590, Note_on_c, 0, 33, 0
1, 27592, Note_on_c, 6, 45, 0
1, 27598, Note_on_c, 6, 46, 100
1, 27598, Note_on_c, 7, 58, 76
1, 27599, Note_on_c, 0, 77, 82
1, 27599, Note_on_c, 0, 70, 97
1, 27599, Note_on_c, 0, 74, 102
1, 27599, Note_on_c, 0, 34, 103
1, 27600, Note_on_c, 9, 38, 115
1, 27600, Note_on_c, 9, 63, 89
1, 27600, Note_on_c, 9, 55, 63
1, 27600, Note_on_c, 0, 65, 88
1, 27601, Note_on_c, 1, 34, 110
1, 27601, Note_on_c, 5, 58, 108
1, 27606, Note_on_c, 9, 55, 0
1, 27606, Note_on_c, 9, 63, 0
1, 27606, Note_on_c, 9, 38, 0
1, 27612, Note_on_c, 0, 65, 0
1, 27612, Note_on_c, 0, 74, 0
1, 27613, Note_on_c, 0, 70, 0
1, 27614, Note_on_c, 0, 77, 0
1, 27618, Note_on_c, 5, 58, 0
1, 27620, Note_on_c, 1, 34, 0
1, 27623, Note_on_c, 0, 34, 0
1, 27624, Note_on_c, 7, 58, 0
1, 27624, Note_on_c, 9, 63, 82
1, 27630, Note_on_c, 9, 63, 0
1, 27638, Note_on_c, 6, 46, 0
1, 27648, Note_on_c, 0, 68, 99
1, 27648, Note_on_c, 9, 49, 62
1, 27648, Note_on_c, 7, 65, 89
1, 27648, Note_on_c, 5, 65, 101
1, 27648, Note_on_c, 9, 64, 85
1, 27648, Note_on_c, 9, 36, 78
1, 27649, Note_on_c, 0, 65, 82
1, 27649, Note_on_c, 1, 29, 103
1, 27649, Note_on_c, 0, 77, 72
1, 27649, Note_on_c, 0, 72, 86
1, 27650, Note_on_c, 6, 41, 123
1, 27650, Note_on_c, 0, 41, 104
1, 27654, Note_on_c, 9, 36, 0
1, 27654, Note_on_c, 9, 49, 0
1, 27654, Note_on_c, 9, 64, 0
1, 27663, Note_on_c, 0, 68, 0
1, 27671, Note_on_c, 0, 69, 49
1, 27672, Note_on_c, 9, 64, 66
1, 27678, Note_on_c, 9, 64, 0
1, 27687, Note_on_c, 0, 65, 0
1, 27690, Note_on_c, 0, 72, 0
1, 27690, Note_on_c, 0, 41, 0
1, 27693, Note_on_c, 0, 77, 0
1, 27694, Note_on_c, 0, 69, 0
1, 27696, Note_on_c, 9, 42, 60
1, 27696, Note_on_c, 9, 64, 71
1, 27696, Note_on_c, 9, 36, 73
1, 27697, Note_on_c, 1, 29, 0
1, 27702, Note_on_c, 9, 64, 0
1, 27702, Note_on_c, 9, 42, 0
1, 27702, Note_on_c, 9, 36, 0
1, 27719, Note_on_c, 0, 69, 102
1, 27719, Note_on_c, 0, 65, 93
1, 27719, Note_on_c, 0, 77, 90
1, 27720, Note_on_c, 9, 64, 65
1, 27721, Note_on_c, 0, 72, 99
1, 27721, Note_on_c, 1, 29, 104
1, 27726, Note_on_c, 9, 64, 0
1, 27730, Note_on_c, 0, 72, 0
1, 27730, Note_on_c, 0, 69, 0
1, 27731, Note_on_c, 0, 65, 0
1, 27732, Note_on_c, 0, 77, 0
1, 27742, Note_on_c, 1, 29, 0
1, 27744, Note_on_c, 9, 38, 107
1, 27744, Note_on_c, 9, 46, 60
1, 27744, Note_on_c, 0, 41, 102
1, 27744, Note_on_c, 9, 63, 95
1, 27745, Note_on_c, 1, 41, 100
1, 27750, Note_on_c, 9, 63, 0
1, 27750, Note_on_c, 9, 38, 0
1, 27750, Note_on_c, 9, 46, 0
1, 27768, Note_on_c, 1, 41, 0
1, 27768, Note_on_c, 0, 72, 108
1, 27768, Note_on_c, 0, 65, 104
1, 27768, Note_on_c, 0, 69, 112
1, 27768, Note_on_c, 0, 77, 90
1, 27768, Note_on_c, 9, 64, 59
1, 27769, Note_on_c, 1, 39, 80
1, 27774, Note_on_c, 9, 64, 0
1, 27779, Note_on_c, 0, 69, 0
1, 27779, Note_on_c, 0, 65, 0
1, 27779, Note_on_c, 0, 72, 0
1, 27783, Note_on_c, 1, 39, 0
1, 27789, Note_on_c, 0, 41, 0
1, 27792, Note_on_c, 9, 63, 60
1, 27792, Note_on_c, 9, 42, 52
1, 27792, Note_on_c, 9, 36, 68
1, 27798, Note_on_c, 9, 36, 0
1, 27798, Note_on_c, 9, 63, 0
1, 27798, Note_on_c, 0, 77, 0
1, 27798, Note_on_c, 9, 42, 0
1, 27815, Note_on_c, 0, 65, 72
1, 27816, Note_on_c, 9, 38, 100
1, 27816, Note_on_c, 9, 63, 74
1, 27817, Note_on_c, 1, 39, 90
1, 27822, Note_on_c, 9, 63, 0
1, 27822, Note_on_c, 0, 65, 0
1, 27822, Note_on_c, 9, 38, 0
1, 27826, Note_on_c, 1, 39, 0
1, 27839, Note_on_c, 0, 72, 106
1, 27839, Note_on_c, 0, 77, 86
1, 27839, Note_on_c, 0, 68, 101
1, 27839, Note_on_c, 0, 65, 97
1, 27840, Note_on_c, 9, 42, 62
1, 27840, Note_on_c, 9, 36, 48
1, 27840, Note_on_c, 9, 64, 97
1, 27840, Note_on_c, 0, 41, 97
1, 27846, Note_on_c, 9, 64, 0
1, 27846, Note_on_c, 9, 36, 0
1, 27846, Note_on_c, 9, 42, 0
1, 27856, Note_on_c, 0, 77, 0
1, 27856, Note_on_c, 0, 72, 0
1, 27860, Note_on_c, 0, 68, 0
1, 27864, Note_on_c, 0, 69, 82
1, 27864, Note_on_c, 0, 72, 66
1, 27864, Note_on_c, 0, 77, 49
1, 27864, Note_on_c, 9, 64, 77
1, 27865, Note_on_c, 1, 29, 81
1, 27870, Note_on_c, 9, 64, 0
1, 27876, Note_on_c, 1, 29, 0
1, 27877, Note_on_c, 0, 72, 0
1, 27878, Note_on_c, 0, 77, 0
1, 27878, Note_on_c, 0, 65, 0
1, 27878, Note_on_c, 0, 69, 0
1, 27887, Note_on_c, 1, 41, 95
1, 27888, Note_on_c, 9, 64, 78
1, 27888, Note_on_c, 9, 36, 75
1, 27888, Note_on_c, 9, 42, 75
1, 27894, Note_on_c, 9, 42, 0
1, 27894, Note_on_c, 9, 36, 0
1, 27894, Note_on_c, 9, 64, 0
1, 27898, Note_on_c, 0, 41, 0
1, 27910, Note_on_c, 1, 41, 0
1, 27911, Note_on_c, 1, 39, 93
1, 27912, Note_on_c, 9, 64, 76
1, 27913, Note_on_c, 0, 77, 92
1, 27913, Note_on_c, 0, 69, 102
1, 27913, Note_on_c, 0, 65, 94
1, 27913, Note_on_c, 0, 72, 106
1, 27918, Note_on_c, 9, 64, 0
1, 27923, Note_on_c, 0, 72, 0
1, 27923, Note_on_c, 0, 69, 0
1, 27925, Note_on_c, 0, 77, 0
1, 27927, Note_on_c, 0, 65, 0
1, 27936, Note_on_c, 1, 39, 0
1, 27936, Note_on_c, 9, 63, 86
1, 27936, Note_on_c, 0, 41, 106
1, 27936, Note_on_c, 9, 46, 77
1, 27936, Note_on_c, 9, 38, 109
1, 27937, Note_on_c, 1, 38, 97
1, 27942, Note_on_c, 9, 38, 0
1, 27942, Note_on_c, 9, 46, 0
1, 27942, Note_on_c, 9, 63, 0
1, 27960, Note_on_c, 9, 64, 62
1, 27960, Note_on_c, 9, 45, 62
1, 27961, Note_on_c, 0, 72, 110
1, 27961, Note_on_c, 0, 69, 100
1, 27961, Note_on_c, 0, 65, 114
1, 27961, Note_on_c, 0, 77, 87
1, 27966, Note_on_c, 9, 45, 0
1, 27966, Note_on_c, 9, 64, 0
1, 27981, Note_on_c, 0, 41, 0
1, 27981, Note_on_c, 1, 38, 0
1, 27984, Note_on_c, 9, 63, 65
1, 27984, Note_on_c, 9, 42, 59
1, 27984, Note_on_c, 9, 45, 45
1, 27985, Note_on_c, 0, 65, 0
1, 27985, Note_on_c, 1, 36, 88
1, 27990, Note_on_c, 9, 45, 0
1, 27990, Note_on_c, 9, 63, 0
1, 27990, Note_on_c, 9, 42, 0
1, 27991, Note_on_c, 0, 72, 0
1, 27996, Note_on_c, 0, 77, 0
1, 27997, Note_on_c, 5, 65, 0
1, 28001, Note_on_c, 0, 69, 0
1, 28008, Note_on_c, 9, 45, 76
1, 28008, Note_on_c, 9, 63, 74
1, 28010, Note_on_c, 0, 65, 47
1, 28014, Note_on_c, 0, 65, 0
1, 28014, Note_on_c, 9, 45, 0
1, 28014, Note_on_c, 7, 65, 0
1, 28014, Note_on_c, 9, 63, 0
1, 28029, Note_on_c, 6, 41, 0
1, 28030, Note_on_c, 1, 36, 0
1, 28032, Note_on_c, 9, 42, 65
1, 28032, Note_on_c, 9, 64, 89
1, 28032, Note_on_c, 9, 38, 106
1, 28033, Note_on_c, 1, 29, 103
1, 28038, Note_on_c, 9, 38, 0
1, 28038, Note_on_c, 9, 42, 0
1, 28038, Note_on_c, 9, 64, 0
1, 28046, Note_on_c, 1, 29, 0
1, 28053, Note_on_c, 6, 51, 108
1, 28055, Note_on_c, 1, 39, 91
1, 28056, Note_on_c, 7, 63, 94
1, 28056, Note_on_c, 9, 63, 95
1, 28056, Note_on_c, 0, 39, 101
1, 28056, Note_on_c, 9, 36, 58
1, 28056, Note_on_c, 9, 55, 99
1, 28057, Note_on_c, 0, 75, 79
1, 28057, Note_on_c, 0, 70, 95
1, 28057, Note_on_c, 0, 67, 106
1, 28057, Note_on_c, 0, 77, 73
1, 28057, Note_on_c, 5, 58, 88
1, 28062, Note_on_c, 9, 55, 0
1, 28062, Note_on_c, 9, 36, 0
1, 28062, Note_on_c, 9, 63, 0
1, 28080, Note_on_c, 9, 64, 72
1, 28085, Note_on_c, 0, 75, 0
1, 28085, Note_on_c, 7, 63, 0
1, 28086, Note_on_c, 0, 77, 0
1, 28086, Note_on_c, 9, 64, 0
1, 28088, Note_on_c, 0, 67, 0
1, 28091, Note_on_c, 6, 51, 0
1, 28092, Note_on_c, 0, 70, 0
1, 28101, Note_on_c, 5, 58, 0
1, 28103, Note_on_c, 0, 39, 0
1, 28104, Note_on_c, 9, 64, 89
1, 28110, Note_on_c, 9, 64, 0
1, 28120, Note_on_c, 1, 39, 0
1, 28124, Note_on_c, 0, 38, 94
1, 28125, Note_on_c, 6, 50, 101
1, 28126, Note_on_c, 0, 74, 102
1, 28126, Note_on_c, 0, 77, 93
1, 28126, Note_on_c, 0, 65, 102
1, 28126, Note_on_c, 0, 70, 101
1, 28127, Note_on_c, 5, 58, 108
1, 28128, Note_on_c, 9, 63, 76
1, 28128, Note_on_c, 9, 36, 78
1, 28128, Note_on_c, 9, 55, 105
1, 28129, Note_on_c, 1, 38, 116
1, 28130, Note_on_c, 7, 62, 96
1, 28134, Note_on_c, 9, 55, 0
1, 28134, Note_on_c, 9, 36, 0
1, 28134, Note_on_c, 9, 63, 0
1, 28152, Note_on_c, 9, 64, 86
1, 28155, Note_on_c, 0, 74, 0
1, 28155, Note_on_c, 7, 62, 0
1, 28158, Note_on_c, 9, 64, 0
1, 28160, Note_on_c, 0, 70, 0
1, 28161, Note_on_c, 0, 65, 0
1, 28162, Note_on_c, 0, 77, 0
1, 28176, Note_on_c, 9, 64, 76
1, 28176, Note_on_c, 9, 36, 58
1, 28179, Note_on_c, 0, 38, 0
1, 28182, Note_on_c, 9, 64, 0
1, 28182, Note_on_c, 9, 36, 0
1, 28186, Note_on_c, 6, 50, 0
1, 28189, Note_on_c, 1, 38, 0
1, 28192, Note_on_c, 0, 36, 85
1, 28193, Note_on_c, 5, 58, 0
1, 28197, Note_on_c, 7, 60, 96
1, 28197, Note_on_c, 6, 48, 99
1, 28198, Note_on_c, 0, 77, 87
1, 28198, Note_on_c, 0, 72, 100
1, 28198, Note_on_c, 0, 65, 97
1, 28198, Note_on_c, 0, 69, 104
1, 28198, Note_on_c, 5, 57, 95
1, 28199, Note_on_c, 1, 36, 106
1, 28200, Note_on_c, 9, 63, 78
1, 28200, Note_on_c, 9, 55, 105
1, 28200, Note_on_c, 9, 38, 101
1, 28206, Note_on_c, 9, 38, 0
1, 28206, Note_on_c, 9, 63, 0
1, 28206, Note_on_c, 9, 55, 0
1, 28224, Note_on_c, 9, 64, 93
1, 28230, Note_on_c, 9, 64, 0
1, 28234, Note_on_c, 0, 69, 0
1, 28238, Note_on_c, 0, 65, 0
1, 28238, Note_on_c, 7, 60, 0
1, 28242, Note_on_c, 0, 77, 0
1, 28242, Note_on_c, 0, 72, 0
1, 28248, Note_on_c, 9, 64, 95
1, 28248, Note_on_c, 9, 38, 95
1, 28254, Note_on_c, 9, 38, 0
1, 28254, Note_on_c, 9, 64, 0
1, 28259, Note_on_c, 5, 57, 0
1, 28266, Note_on_c, 1, 36, 0
1, 28267, Note_on_c, 7, 58, 79
1, 28270, Note_on_c, 0, 36, 0
1, 28270, Note_on_c, 6, 48, 0
1, 28270, Note_on_c, 0, 77, 83
1, 28270, Note_on_c, 0, 34, 81
1, 28270, Note_on_c, 0, 65, 94
1, 28270, Note_on_c, 0, 70, 101
1, 28270, Note_on_c, 0, 74, 99
1, 28271, Note_on_c, 1, 34, 89
1, 28272, Note_on_c, 9, 63, 88
1, 28272, Note_on_c, 6, 46, 94
1, 28272, Note_on_c, 9, 36, 65
1, 28272, Note_on_c, 9, 55, 105
1, 28273, Note_on_c, 5, 58, 110
1, 28278, Note_on_c, 9, 55, 0
1, 28278, Note_on_c, 9, 36, 0
1, 28278, Note_on_c, 9, 63, 0
1, 28281, Note_on_c, 0, 65, 0
1, 28282, Note_on_c, 0, 74, 0
1, 28283, Note_on_c, 0, 77, 0
1, 28285, Note_on_c, 0, 70, 0
1, 28296, Note_on_c, 5, 58, 0
1, 28296, Note_on_c, 9, 64, 97
1, 28302, Note_on_c, 9, 64, 0
1, 28302, Note_on_c, 7, 58, 0
1, 28317, Note_on_c, 1, 34, 0
1, 28318, Note_on_c, 0, 34, 0
1, 28318, Note_on_c, 0, 33, 80
1, 28319, Note_on_c, 0, 65, 67
1, 28319, Note_on_c, 0, 77, 78
1, 28319, Note_on_c, 0, 72, 86
1, 28319, Note_on_c, 0, 69, 87
1, 28319, Note_on_c, 1, 33, 99
1, 28320, Note_on_c, 7, 57, 89
1, 28320, Note_on_c, 5, 60, 101
1, 28320, Note_on_c, 6, 45, 94
1, 28320, Note_on_c, 9, 63, 78
1, 28320, Note_on_c, 9, 38, 110
1, 28323, Note_on_c, 6, 46, 0
1, 28326, Note_on_c, 9, 63, 0
1, 28326, Note_on_c, 9, 38, 0
1, 28334, Note_on_c, 0, 69, 0
1, 28337, Note_on_c, 0, 72, 0
1, 28338, Note_on_c, 0, 65, 0
1, 28339, Note_on_c, 5, 60, 0
1, 28339, Note_on_c, 0, 77, 0
1, 28344, Note_on_c, 9, 63, 76
1, 28350, Note_on_c, 9, 63, 0
1, 28350, Note_on_c, 1, 33, 0
1, 28359, Note_on_c, 0, 33, 0
1, 28365, Note_on_c, 6, 45, 0
1, 28365, Note_on_c, 7, 57, 0
1, 28365, Note_on_c, 0, 34, 67
1, 28366, Note_on_c, 6, 46, 102
1, 28366, Note_on_c, 5, 62, 113
1, 28367, Note_on_c, 0, 65, 86
1, 28367, Note_on_c, 0, 77, 72
1, 28367, Note_on_c, 0, 70, 93
1, 28367, Note_on_c, 0, 74, 97
1, 28368, Note_on_c, 9, 55, 63
1, 28368, Note_on_c, 9, 63, 89
1, 28368, Note_on_c, 9, 38, 115
1, 28368, Note_on_c, 1, 34, 104
1, 28370, Note_on_c, 7, 58, 84
1, 28374, Note_on_c, 9, 38, 0
1, 28374, Note_on_c, 9, 63, 0
1, 28374, Note_on_c, 9, 55, 0
1, 28378, Note_on_c, 0, 65, 0
1, 28382, Note_on_c, 0, 74, 0
1, 28384, Note_on_c, 0, 77, 0
1, 28384, Note_on_c, 5, 62, 0
1, 28384, Note_on_c, 0, 70, 0
1, 28392, Note_on_c, 9, 63, 82
1, 28398, Note_on_c, 9, 63, 0
1, 28404, Note_on_c, 1, 34, 0
1, 28410, Note_on_c, 6, 46, 0
1, 28412, Note_on_c, 0, 34, 0
1, 28415, Note_on_c, 5, 62, 126
1, 28416, Note_on_c, 7, 58, 0
1, 28416, Note_on_c, 0, 67, 86
1, 28416, Note_on_c, 9, 64, 85
1, 28416, Note_on_c, 9, 36, 78
1, 28416, Note_on_c, 0, 70, 106
1, 28416, Note_on_c, 9, 49, 62
1, 28416, Note_on_c, 6, 43, 109
1, 28416, Note_on_c, 0, 43, 119
1, 28417, Note_on_c, 0, 74, 102
1, 28417, Note_on_c, 1, 31, 99
1, 28417, Note_on_c, 0, 79, 92
1, 28421, Note_on_c, 7, 55, 100
1, 28422, Note_on_c, 9, 49, 0
1, 28422, Note_on_c, 9, 64, 0
1, 28422, Note_on_c, 9, 36, 0
1, 28440, Note_on_c, 9, 64, 66
1, 28441, Note_on_c, 0, 71, 90
1, 28442, Note_on_c, 0, 70, 0
1, 28446, Note_on_c, 9, 64, 0
1, 28453, Note_on_c, 0, 71, 0
1, 28457, Note_on_c, 0, 79, 0
1, 28457, Note_on_c, 0, 74, 0
1, 28457, Note_on_c, 0, 67, 0
1, 28464, Note_on_c, 0, 43, 0
1, 28464, Note_on_c, 9, 36, 73
1, 28464, Note_on_c, 9, 42, 60
1, 28464, Note_on_c, 9, 64, 71
1, 28470, Note_on_c, 9, 64, 0
1, 28470, Note_on_c, 9, 36, 0
1, 28470, Note_on_c, 1, 31, 0
1, 28470, Note_on_c, 9, 42, 0
1, 28487, Note_on_c, 0, 79, 75
1, 28488, Note_on_c, 9, 64, 65
1, 28489, Note_on_c, 1, 31, 97
1, 28489, Note_on_c, 0, 67, 67
1, 28489, Note_on_c, 0, 73, 51
1, 28489, Note_on_c, 0, 74, 82
1, 28489, Note_on_c, 0, 71, 82
1, 28491, Note_on_c, 0, 73, 0
1, 28494, Note_on_c, 9, 64, 0
1, 28498, Note_on_c, 0, 74, 0
1, 28500, Note_on_c, 0, 71, 0
1, 28502, Note_on_c, 0, 79, 0
1, 28504, Note_on_c, 1, 31, 0
1, 28506, Note_on_c, 0, 67, 0
1, 28510, Note_on_c, 0, 43, 100
1, 28512, Note_on_c, 9, 38, 107
1, 28512, Note_on_c, 9, 46, 60
1, 28512, Note_on_c, 9, 63, 95
1, 28513, Note_on_c, 1, 43, 116
1, 28518, Note_on_c, 9, 63, 0
1, 28518, Note_on_c, 9, 46, 0
1, 28518, Note_on_c, 9, 38, 0
1, 28536, Note_on_c, 1, 43, 0
1, 28536, Note_on_c, 0, 67, 102
1, 28536, Note_on_c, 9, 64, 59
1, 28536, Note_on_c, 0, 71, 114
1, 28536, Note_on_c, 0, 74, 112
1, 28536, Note_on_c, 0, 79, 100
1, 28537, Note_on_c, 1, 31, 77
1, 28542, Note_on_c, 9, 64, 0
1, 28544, Note_on_c, 1, 31, 0
1, 28549, Note_on_c, 0, 43, 0
1, 28550, Note_on_c, 0, 67, 0
1, 28560, Note_on_c, 9, 63, 60
1, 28560, Note_on_c, 9, 36, 68
1, 28560, Note_on_c, 9, 42, 52
1, 28566, Note_on_c, 9, 42, 0
1, 28566, Note_on_c, 9, 36, 0
1, 28566, Note_on_c, 9, 63, 0
1, 28566, Note_on_c, 0, 71, 0
1, 28566, Note_on_c, 0, 74, 0
1, 28574, Note_on_c, 0, 79, 0
1, 28583, Note_on_c, 1, 41, 113
1, 28583, Note_on_c, 0, 67, 67
1, 28584, Note_on_c, 9, 63, 74
1, 28584, Note_on_c, 9, 38, 100
1, 28590, Note_on_c, 9, 38, 0
1, 28590, Note_on_c, 9, 63, 0
1, 28591, Note_on_c, 1, 41, 0
1, 28591, Note_on_c, 0, 67, 0
1, 28605, Note_on_c, 0, 43, 108
1, 28608, Note_on_c, 9, 42, 62
1, 28608, Note_on_c, 9, 64, 97
1, 28608, Note_on_c, 9, 36, 48
1, 28608, Note_on_c, 0, 70, 109
1, 28608, Note_on_c, 0, 67, 93
1, 28609, Note_on_c, 0, 74, 94
1, 28609, Note_on_c, 0, 79, 102
1, 28611, Note_on_c, 0, 74, 0
1, 28614, Note_on_c, 9, 36, 0
1, 28614, Note_on_c, 9, 64, 0
1, 28614, Note_on_c, 9, 42, 0
1, 28628, Note_on_c, 0, 67, 0
1, 28632, Note_on_c, 9, 64, 77
1, 28632, Note_on_c, 0, 67, 67
1, 28632, Note_on_c, 1, 31, 99
1, 28633, Note_on_c, 0, 74, 82
1, 28633, Note_on_c, 0, 71, 99
1, 28636, Note_on_c, 0, 70, 0
1, 28638, Note_on_c, 1, 31, 0
1, 28638, Note_on_c, 9, 64, 0
1, 28647, Note_on_c, 0, 67, 0
1, 28648, Note_on_c, 0, 74, 0
1, 28648, Note_on_c, 0, 71, 0
1, 28655, Note_on_c, 0, 79, 0
1, 28656, Note_on_c, 9, 64, 78
1, 28656, Note_on_c, 9, 36, 75
1, 28656, Note_on_c, 9, 42, 75
1, 28657, Note_on_c, 1, 43, 114
1, 28662, Note_on_c, 9, 42, 0
1, 28662, Note_on_c, 0, 43, 0
1, 28662, Note_on_c, 9, 64, 0
1, 28662, Note_on_c, 9, 36, 0
1, 28674, Note_on_c, 1, 43, 0
1, 28679, Note_on_c, 0, 67, 63
1, 28679, Note_on_c, 0, 71, 76
1, 28679, Note_on_c, 0, 74, 82
1, 28679, Note_on_c, 0, 79, 74
1, 28679, Note_on_c, 1, 41, 102
1, 28680, Note_on_c, 9, 64, 76
1, 28686, Note_on_c, 9, 64, 0
1, 28688, Note_on_c, 1, 41, 0
1, 28692, Note_on_c, 0, 79, 0
1, 28692, Note_on_c, 0, 71, 0
1, 28692, Note_on_c, 0, 74, 0
1, 28693, Note_on_c, 0, 67, 0
1, 28701, Note_on_c, 0, 43, 102
1, 28704, Note_on_c, 9, 63, 86
1, 28704, Note_on_c, 9, 38, 109
1, 28704, Note_on_c, 9, 46, 77
1, 28704, Note_on_c, 1, 41, 109
1, 28710, Note_on_c, 9, 46, 0
1, 28710, Note_on_c, 9, 38, 0
1, 28710, Note_on_c, 9, 63, 0
1, 28726, Note_on_c, 1, 41, 0
1, 28728, Note_on_c, 1, 40, 97
1, 28728, Note_on_c, 9, 64, 62
1, 28728, Note_on_c, 9, 45, 62
1, 28734, Note_on_c, 9, 45, 0
1, 28734, Note_on_c, 9, 64, 0
1, 28750, Note_on_c, 1, 40, 0
1, 28750, Note_on_c, 0, 79, 97
1, 28750, Note_on_c, 0, 71, 119
1, 28751, Note_on_c, 0, 67, 112
1, 28751, Note_on_c, 0, 74, 119
1, 28752, Note_on_c, 0, 43, 0
1, 28752, Note_on_c, 9, 63, 65
1, 28752, Note_on_c, 9, 45, 45
1, 28752, Note_on_c, 9, 42, 59
1, 28753, Note_on_c, 1, 38, 98
1, 28754, Note_on_c, 5, 62, 0
1, 28758, Note_on_c, 9, 42, 0
1, 28758, Note_on_c, 9, 63, 0
1, 28758, Note_on_c, 9, 45, 0
1, 28775, Note_on_c, 0, 67, 0
1, 28776, Note_on_c, 9, 45, 76
1, 28776, Note_on_c, 9, 63, 74
1, 28778, Note_on_c, 0, 74, 0
1, 28778, Note_on_c, 0, 71, 0
1, 28780, Note_on_c, 0, 79, 0
1, 28782, Note_on_c, 9, 63, 0
1, 28782, Note_on_c, 9, 45, 0
1, 28794, Note_on_c, 7, 55, 0
1, 28796, Note_on_c, 1, 38, 0
1, 28800, Note_on_c, 9, 42, 65
1, 28800, Note_on_c, 9, 38, 106
1, 28800, Note_on_c, 9, 64, 89
1, 28806, Note_on_c, 9, 64, 0
1, 28806, Note_on_c, 9, 38, 0
1, 28806, Note_on_c, 9, 42, 0
1, 28816, Note_on_c, 6, 43, 0
1, 28822, Note_on_c, 6, 53, 115
1, 28823, Note_on_c, 0, 79, 82
1, 28823, Note_on_c, 0, 77, 92
1, 28823, Note_on_c, 0, 69, 102
1, 28823, Note_on_c, 0, 72, 108
1, 28824, Note_on_c, 8, 65, 77
1, 28824, Note_on_c, 8, 57, 77
1, 28824, Note_on_c, 9, 36, 58
1, 28824, Note_on_c, 8, 60, 77
1, 28824, Note_on_c, 0, 75, 63
1, 28824, Note_on_c, 9, 63, 95
1, 28824, Note_on_c, 9, 55, 99
1, 28825, Note_on_c, 1, 41, 117
1, 28826, Note_on_c, 0, 75, 0
1, 28826, Note_on_c, 5, 60, 107
1, 28827, Note_on_c, 7, 65, 99
1, 28830, Note_on_c, 9, 63, 0
1, 28830, Note_on_c, 9, 36, 0
1, 28830, Note_on_c, 9, 55, 0
1, 28848, Note_on_c, 9, 64, 72
1, 28853, Note_on_c, 0, 77, 0
1, 28853, Note_on_c, 0, 69, 0
1, 28853, Note_on_c, 7, 65, 0
1, 28854, Note_on_c, 9, 64, 0
1, 28855, Note_on_c, 0, 72, 0
1, 28856, Note_on_c, 5, 60, 0
1, 28859, Note_on_c, 0, 79, 0
1, 28869, Note_on_c, 6, 53, 0
1, 28871, Note_on_c, 1, 41, 0
1, 28872, Note_on_c, 9, 64, 89
1, 28878, Note_on_c, 9, 64, 0
1, 28892, Note_on_c, 0, 75, 69
1, 28894, Note_on_c, 6, 52, 106
1, 28895, Note_on_c, 8, 65, 0
1, 28895, Note_on_c, 8, 57, 0
1, 28895, Note_on_c, 0, 79, 89
1, 28895, Note_on_c, 0, 72, 110
1, 28896, Note_on_c, 0, 76, 100
1, 28896, Note_on_c, 9, 55, 105
1, 28896, Note_on_c, 8, 64, 78
1, 28896, Note_on_c, 9, 63, 76
1, 28896, Note_on_c, 9, 36, 78
1, 28896, Note_on_c, 8, 55, 78
1, 28897, Note_on_c, 5, 67, 104
1, 28898, Note_on_c, 1, 40, 114
1, 28899, Note_on_c, 7, 64, 101
1, 28902, Note_on_c, 9, 36, 0
1, 28902, Note_on_c, 9, 63, 0
1, 28902, Note_on_c, 9, 55, 0
1, 28904, Note_on_c, 0, 75, 0
1, 28920, Note_on_c, 9, 64, 86
1, 28926, Note_on_c, 9, 64, 0
1, 28926, Note_on_c, 0, 76, 0
1, 28930, Note_on_c, 0, 72, 0
1, 28942, Note_on_c, 0, 79, 0
1, 28944, Note_on_c, 9, 64, 76
1, 28944, Note_on_c, 9, 36, 58
1, 28946, Note_on_c, 7, 64, 0
1, 28946, Note_on_c, 5, 67, 0
1, 28950, Note_on_c, 9, 36, 0
1, 28950, Note_on_c, 9, 64, 0
1, 28959, Note_on_c, 1, 40, 0
1, 28960, Note_on_c, 6, 52, 0
1, 28966, Note_on_c, 6, 50, 100
1, 28967, Note_on_c, 8, 64, 0
1, 28967, Note_on_c, 8, 60, 0
1, 28967, Note_on_c, 0, 74, 99
1, 28967, Note_on_c, 0, 71, 97
1, 28967, Note_on_c, 0, 79, 82
1, 28968, Note_on_c, 9, 38, 101
1, 28968, Note_on_c, 8, 62, 77
1, 28968, Note_on_c, 9, 55, 105
1, 28968, Note_on_c, 1, 38, 106
1, 28968, Note_on_c, 7, 62, 95
1, 28968, Note_on_c, 8, 59, 77
1, 28968, Note_on_c, 9, 63, 78
1, 28970, Note_on_c, 5, 62, 117
1, 28974, Note_on_c, 9, 63, 0
1, 28974, Note_on_c, 9, 38, 0
1, 28974, Note_on_c, 9, 55, 0
1, 28992, Note_on_c, 9, 64, 93
1, 28998, Note_on_c, 9, 64, 0
1, 29005, Note_on_c, 0, 71, 0
1, 29012, Note_on_c, 0, 79, 0
1, 29014, Note_on_c, 0, 74, 0
1, 29016, Note_on_c, 9, 64, 95
1, 29016, Note_on_c, 9, 38, 95
1, 29022, Note_on_c, 9, 38, 0
1, 29022, Note_on_c, 9, 64, 0
1, 29035, Note_on_c, 5, 62, 0
1, 29035, Note_on_c, 6, 50, 0
1, 29037, Note_on_c, 7, 62, 0
1, 29037, Note_on_c, 6, 48, 95
1, 29038, Note_on_c, 1, 38, 0
1, 29039, Note_on_c, 8, 59, 0
1, 29039, Note_on_c, 8, 62, 0
1, 29039, Note_on_c, 0, 79, 80
1, 29039, Note_on_c, 0, 76, 82
1, 29039, Note_on_c, 0, 72, 108
1, 29040, Note_on_c, 1, 36, 95
1, 29040, Note_on_c, 7, 60, 84
1, 29040, Note_on_c, 9, 63, 88
1, 29040, Note_on_c, 9, 55, 105
1, 29040, Note_on_c, 8, 57, 75
1, 29040, Note_on_c, 9, 36, 65
1, 29040, Note_on_c, 8, 60, 75
1, 29042, Note_on_c, 5, 60, 101
1, 29046, Note_on_c, 9, 36, 0
1, 29046, Note_on_c, 9, 55, 0
1, 29046, Note_on_c, 9, 63, 0
1, 29050, Note_on_c, 0, 72, 0
1, 29050, Note_on_c, 0, 76, 0
1, 29058, Note_on_c, 0, 79, 0
1, 29064, Note_on_c, 9, 64, 97
1, 29070, Note_on_c, 9, 64, 0
1, 29073, Note_on_c, 5, 60, 0
1, 29074, Note_on_c, 1, 36, 0
1, 29083, Note_on_c, 7, 60, 0
1, 29087, Note_on_c, 8, 57, 0
1, 29087, Note_on_c, 8, 60, 0
1, 29087, Note_on_c, 0, 79, 80
1, 29087, Note_on_c, 0, 71, 99
1, 29087, Note_on_c, 0, 74, 96
1, 29088, Note_on_c, 6, 47, 107
1, 29088, Note_on_c, 7, 59, 93
1, 29088, Note_on_c, 9, 63, 78
1, 29088, Note_on_c, 8, 59, 76
1, 29088, Note_on_c, 8, 62, 76
1, 29088, Note_on_c, 9, 38, 110
1, 29089, Note_on_c, 5, 62, 100
1, 29089, Note_on_c, 1, 35, 110
1, 29093, Note_on_c, 6, 48, 0
1, 29094, Note_on_c, 9, 38, 0
1, 29094, Note_on_c, 9, 63, 0
1, 29104, Note_on_c, 0, 71, 0
1, 29110, Note_on_c, 0, 74, 0
1, 29112, Note_on_c, 5, 62, 0
1, 29112, Note_on_c, 0, 79, 0
1, 29112, Note_on_c, 9, 63, 76
1, 29118, Note_on_c, 9, 63, 0
1, 29124, Note_on_c, 1, 35, 0
1, 29131, Note_on_c, 6, 47, 0
1, 29134, Note_on_c, 6, 48, 104
1, 29135, Note_on_c, 8, 62, 0
1, 29135, Note_on_c, 8, 59, 0
1, 29135, Note_on_c, 0, 76, 87
1, 29135, Note_on_c, 5, 60, 113
1, 29135, Note_on_c, 0, 72, 72
1, 29135, Note_on_c, 0, 79, 66
1, 29136, Note_on_c, 9, 55, 63
1, 29136, Note_on_c, 9, 38, 115
1, 29136, Note_on_c, 8, 60, 77
1, 29136, Note_on_c, 8, 64, 77
1, 29136, Note_on_c, 9, 63, 89
1, 29136, Note_on_c, 1, 36, 103
1, 29138, Note_on_c, 7, 59, 0
1, 29138, Note_on_c, 7, 60, 96
1, 29142, Note_on_c, 9, 38, 0
1, 29142, Note_on_c, 9, 55, 0
1, 29142, Note_on_c, 9, 63, 0
1, 29145, Note_on_c, 0, 79, 0
1, 29146, Note_on_c, 0, 76, 0
1, 29151, Note_on_c, 0, 72, 0
1, 29153, Note_on_c, 5, 60, 0
1, 29157, Note_on_c, 7, 60, 0
1, 29160, Note_on_c, 9, 63, 82
1, 29166, Note_on_c, 9, 63, 0
1, 29173, Note_on_c, 1, 36, 0
1, 29183, Note_on_c, 8, 64, 0
1, 29183, Note_on_c, 1, 31, 99
1, 29184, Note_on_c, 6, 48, 0
1, 29184, Note_on_c, 8, 67, 79
1, 29184, Note_on_c, 9, 64, 85
1, 29184, Note_on_c, 0, 70, 115
1, 29184, Note_on_c, 9, 49, 62
1, 29184, Note_on_c, 8, 62, 79
1, 29184, Note_on_c, 9, 36, 78
1, 29185, Note_on_c, 0, 74, 108
1, 29185, Note_on_c, 5, 60, 123
1, 29185, Note_on_c, 0, 79, 97
1, 29186, Note_on_c, 6, 43, 100
1, 29189, Note_on_c, 7, 67, 87
1, 29190, Note_on_c, 9, 36, 0
1, 29190, Note_on_c, 9, 49, 0
1, 29190, Note_on_c, 9, 64, 0
1, 29208, Note_on_c, 0, 70, 0
1, 29208, Note_on_c, 9, 64, 66
1, 29209, Note_on_c, 0, 71, 83
1, 29214, Note_on_c, 9, 64, 0
1, 29222, Note_on_c, 0, 74, 0
1, 29222, Note_on_c, 0, 71, 0
1, 29223, Note_on_c, 0, 79, 0
1, 29230, Note_on_c, 1, 31, 0
1, 29232, Note_on_c, 9, 36, 73
1, 29232, Note_on_c, 9, 64, 71
1, 29232, Note_on_c, 9, 42, 60
1, 29238, Note_on_c, 9, 42, 0
1, 29238, Note_on_c, 9, 64, 0
1, 29238, Note_on_c, 9, 36, 0
1, 29255, Note_on_c, 1, 31, 94
1, 29256, Note_on_c, 9, 64, 65
1, 29257, Note_on_c, 0, 74, 82
1, 29257, Note_on_c, 0, 79, 76
1, 29257, Note_on_c, 0, 71, 82
1, 29262, Note_on_c, 9, 64, 0
1, 29267, Note_on_c, 0, 74, 0
1, 29270, Note_on_c, 0, 79, 0
1, 29270, Note_on_c, 0, 71, 0
1, 29278, Note_on_c, 1, 31, 0
1, 29279, Note_on_c, 1, 43, 109
1, 29280, Note_on_c, 9, 46, 60
1, 29280, Note_on_c, 9, 38, 107
1, 29280, Note_on_c, 9, 63, 95
1, 29286, Note_on_c, 9, 63, 0
1, 29286, Note_on_c, 9, 38, 0
1, 29286, Note_on_c, 9, 46, 0
1, 29303, Note_on_c, 1, 43, 0
1, 29304, Note_on_c, 9, 64, 59
1, 29305, Note_on_c, 1, 31, 103
1, 29305, Note_on_c, 0, 79, 94
1, 29305, Note_on_c, 0, 71, 114
1, 29305, Note_on_c, 0, 74, 104
1, 29310, Note_on_c, 9, 64, 0
1, 29321, Note_on_c, 1, 31, 0
1, 29328, Note_on_c, 9, 63, 60
1, 29328, Note_on_c, 9, 36, 68
1, 29328, Note_on_c, 9, 42, 52
1, 29334, Note_on_c, 9, 42, 0
1, 29334, Note_on_c, 9, 36, 0
1, 29334, Note_on_c, 9, 63, 0
1, 29346, Note_on_c, 0, 71, 0
1, 29350, Note_on_c, 0, 79, 0
1, 29350, Note_on_c, 0, 74, 0
1, 29351, Note_on_c, 1, 31, 96
1, 29352, Note_on_c, 9, 63, 74
1, 29352, Note_on_c, 9, 38, 100
1, 29358, Note_on_c, 9, 38, 0
1, 29358, Note_on_c, 9, 63, 0
1, 29366, Note_on_c, 1, 31, 0
1, 29376, Note_on_c, 9, 36, 48
1, 29376, Note_on_c, 9, 64, 97
1, 29376, Note_on_c, 9, 42, 62
1, 29377, Note_on_c, 0, 70, 99
1, 29377, Note_on_c, 0, 79, 76
1, 29377, Note_on_c, 0, 74, 104
1, 29382, Note_on_c, 9, 42, 0
1, 29382, Note_on_c, 9, 64, 0
1, 29382, Note_on_c, 9, 36, 0
1, 29395, Note_on_c, 0, 74, 0
1, 29399, Note_on_c, 1, 31, 99
1, 29400, Note_on_c, 9, 64, 77
1, 29401, Note_on_c, 0, 70, 0
1, 29401, Note_on_c, 0, 74, 49
1, 29401, Note_on_c, 0, 71, 85
1, 29406, Note_on_c, 9, 64, 0
1, 29416, Note_on_c, 1, 31, 0
1, 29419, Note_on_c, 0, 71, 0
1, 29422, Note_on_c, 0, 74, 0
1, 29422, Note_on_c, 0, 79, 0
1, 29424, Note_on_c, 1, 43, 113
1, 29424, Note_on_c, 9, 42, 75
1, 29424, Note_on_c, 9, 36, 75
1, 29424, Note_on_c, 9, 64, 78
1, 29430, Note_on_c, 9, 64, 0
1, 29430, Note_on_c, 9, 36, 0
1, 29430, Note_on_c, 9, 42, 0
1, 29436, Note_on_c, 1, 43, 0
1, 29447, Note_on_c, 0, 79, 75
1, 29447, Note_on_c, 1, 43, 104
1, 29448, Note_on_c, 9, 64, 76
1, 29449, Note_on_c, 0, 74, 86
1, 29449, Note_on_c, 0, 71, 75
1, 29454, Note_on_c, 9, 64, 0
1, 29463, Note_on_c, 1, 43, 0
1, 29466, Note_on_c, 0, 74, 0
1, 29466, Note_on_c, 0, 71, 0
1, 29469, Note_on_c, 0, 79, 0
1, 29472, Note_on_c, 9, 63, 86
1, 29472, Note_on_c, 9, 38, 109
1, 29472, Note_on_c, 9, 46, 77
1, 29473, Note_on_c, 1, 41, 104
1, 29478, Note_on_c, 9, 46, 0
1, 29478, Note_on_c, 9, 38, 0
1, 29478, Note_on_c, 9, 63, 0
1, 29482, Note_on_c, 1, 41, 0
1, 29495, Note_on_c, 1, 41, 106
1, 29496, Note_on_c, 9, 64, 62
1, 29496, Note_on_c, 9, 45, 62
1, 29497, Note_on_c, 0, 71, 119
1, 29497, Note_on_c, 0, 79, 102
1, 29497, Note_on_c, 0, 74, 122
1, 29502, Note_on_c, 9, 45, 0
1, 29502, Note_on_c, 9, 64, 0
1, 29520, Note_on_c, 1, 41, 0
1, 29520, Note_on_c, 9, 63, 65
1, 29520, Note_on_c, 9, 42, 59
1, 29520, Note_on_c, 9, 45, 45
1, 29521, Note_on_c, 1, 40, 107
1, 29526, Note_on_c, 9, 45, 0
1, 29526, Note_on_c, 9, 42, 0
1, 29526, Note_on_c, 9, 63, 0
1, 29536, Note_on_c, 7, 67, 0
1, 29543, Note_on_c, 8, 55, 0
1, 29544, Note_on_c, 9, 45, 76
1, 29544, Note_on_c, 9, 63, 74
1, 29548, Note_on_c, 5, 60, 0
1, 29550, Note_on_c, 9, 63, 0
1, 29550, Note_on_c, 9, 45, 0
1, 29558, Note_on_c, 1, 40, 0
1, 29562, Note_on_c, 0, 71, 0
1, 29563, Note_on_c, 0, 74, 0
1, 29563, Note_on_c, 0, 79, 0
1, 29567, Note_on_c, 8, 60, 0
1, 29567, Note_on_c, 8, 67, 0
1, 29567, Note_on_c, 8, 62, 0
1, 29568, Tempo, 535714
1, 29568, Note_on_c, 9, 42, 65
1, 29568, Note_on_c, 9, 38, 106
1, 29568, Note_on_c, 9, 64, 89
1, 29570, Note_on_c, 6, 43, 0
1, 29574, Note_on_c, 9, 42, 0
1, 29574, Note_on_c, 9, 38, 0
1, 29574, Note_on_c, 9, 64, 0
1, 29589, Note_on_c, 6, 53, 107
1, 29590, Note_on_c, 7, 65, 93
1, 29592, Note_on_c, 8, 60, 84
1, 29592, Note_on_c, 8, 65, 84
1, 29592, Note_on_c, 9, 36, 58
1, 29592, Note_on_c, 0, 77, 114
1, 29592, Note_on_c, 0, 69, 114
1, 29592, Note_on_c, 8, 57, 84
1, 29592, Note_on_c, 9, 63, 95
1, 29592, Note_on_c, 9, 55, 99
1, 29593, Note_on_c, 0, 72, 106
1, 29593, Note_on_c, 5, 60, 101
1, 29593, Note_on_c, 1, 41, 121
1, 29598, Note_on_c, 9, 55, 0
1, 29598, Note_on_c, 9, 63, 0
1, 29598, Note_on_c, 9, 36, 0
1, 29616, Note_on_c, 9, 64, 72
1, 29622, Note_on_c, 9, 64, 0
1, 29623, Note_on_c, 5, 60, 0
1, 29627, Note_on_c, 6, 53, 0
1, 29630, Note_on_c, 0, 69, 0
1, 29630, Note_on_c, 0, 77, 0
1, 29633, Note_on_c, 0, 72, 0
1, 29640, Note_on_c, 9, 64, 89
1, 29645, Note_on_c, 7, 65, 0
1, 29646, Note_on_c, 9, 64, 0
1, 29662, Note_on_c, 1, 41, 0
1, 29662, Note_on_c, 6, 52, 111
1, 29663, Note_on_c, 8, 65, 0
1, 29663, Note_on_c, 8, 57, 0
1, 29663, Note_on_c, 0, 67, 108
1, 29663, Note_on_c, 5, 67, 107
1, 29663, Note_on_c, 0, 72, 108
1, 29664, Note_on_c, 7, 64, 97
1, 29664, Note_on_c, 9, 63, 76
1, 29664, Note_on_c, 9, 55, 105
1, 29664, Note_on_c, 9, 36, 78
1, 29664, Note_on_c, 1, 40, 102
1, 29664, Note_on_c, 8, 64, 88
1, 29664, Note_on_c, 0, 76, 96
1, 29670, Note_on_c, 9, 36, 0
1, 29670, Note_on_c, 9, 55, 0
1, 29670, Note_on_c, 9, 63, 0
1, 29688, Note_on_c, 9, 64, 86
1, 29694, Note_on_c, 9, 64, 0
1, 29697, Note_on_c, 0, 76, 0
1, 29698, Note_on_c, 0, 72, 0
1, 29708, Note_on_c, 0, 67, 0
1, 29709, Note_on_c, 1, 40, 0
1, 29712, Note_on_c, 9, 64, 76
1, 29712, Note_on_c, 9, 36, 58
1, 29715, Note_on_c, 5, 67, 0
1, 29718, Note_on_c, 9, 64, 0
1, 29718, Note_on_c, 9, 36, 0
1, 29726, Note_on_c, 6, 52, 0
1, 29730, Note_on_c, 7, 64, 0
1, 29734, Note_on_c, 6, 50, 106
1, 29735, Note_on_c, 8, 64, 0
1, 29735, Note_on_c, 8, 60, 0
1, 29735, Note_on_c, 0, 74, 104
1, 29735, Note_on_c, 0, 67, 102
1, 29735, Note_on_c, 0, 71, 106
1, 29736, Note_on_c, 1, 38, 113
1, 29736, Note_on_c, 7, 62, 94
1, 29736, Note_on_c, 9, 38, 101
1, 29736, Note_on_c, 8, 59, 84
1, 29736, Note_on_c, 8, 62, 84
1, 29736, Note_on_c, 9, 63, 78
1, 29736, Note_on_c, 9, 55, 105
1, 29737, Note_on_c, 5, 62, 117
1, 29742, Note_on_c, 9, 55, 0
1, 29742, Note_on_c, 9, 63, 0
1, 29742, Note_on_c, 9, 38, 0
1, 29760, Tempo, 555556
1, 29760, Note_on_c, 9, 64, 93
1, 29766, Note_on_c, 9, 64, 0
1, 29776, Note_on_c, 0, 71, 0
1, 29784, Note_on_c, 9, 64, 95
1, 29784, Note_on_c, 9, 38, 95
1, 29785, Note_on_c, 0, 74, 0
1, 29786, Note_on_c, 0, 67, 0
1, 29789, Note_on_c, 1, 38, 0
1, 29790, Note_on_c, 9, 64, 0
1, 29790, Note_on_c, 9, 38, 0
1, 29796, Note_on_c, 7, 62, 0
1, 29803, Note_on_c, 6, 50, 0
1, 29805, Note_on_c, 6, 48, 89
1, 29806, Note_on_c, 7, 60, 79
1, 29807, Note_on_c, 8, 59, 0
1, 29807, Note_on_c, 8, 62, 0
1, 29807, Note_on_c, 0, 67, 104
1, 29807, Note_on_c, 0, 72, 108
1, 29807, Note_on_c, 0, 76, 104
1, 29808, Note_on_c, 8, 57, 84
1, 29808, Note_on_c, 9, 63, 88
1, 29808, Note_on_c, 9, 55, 105
1, 29808, Note_on_c, 8, 60, 84
1, 29808, Note_on_c, 9, 36, 65
1, 29809, Note_on_c, 1, 36, 106
1, 29810, Note_on_c, 5, 60, 96
1, 29814, Note_on_c, 9, 36, 0
1, 29814, Note_on_c, 9, 55, 0
1, 29814, Note_on_c, 9, 63, 0
1, 29815, Note_on_c, 5, 62, 0
1, 29832, Note_on_c, 9, 64, 97
1, 29834, Note_on_c, 1, 36, 0
1, 29838, Note_on_c, 9, 64, 0
1, 29839, Note_on_c, 0, 72, 0
1, 29841, Note_on_c, 5, 60, 0
1, 29843, Note_on_c, 0, 67, 0
1, 29843, Note_on_c, 0, 76, 0
1, 29849, Note_on_c, 6, 48, 0
1, 29851, Note_on_c, 7, 60, 0
1, 29855, Note_on_c, 8, 60, 0
1, 29855, Note_on_c, 8, 57, 0
1, 29856, Note_on_c, 7, 59, 88
1, 29856, Note_on_c, 9, 63, 78
1, 29856, Note_on_c, 9, 38, 110
1, 29856, Note_on_c, 8, 62, 86
1, 29856, Note_on_c, 8, 59, 86
1, 29856, Note_on_c, 6, 47, 107
1, 29857, Note_on_c, 1, 35, 106
1, 29857, Note_on_c, 0, 71, 104
1, 29857, Note_on_c, 0, 67, 93
1, 29857, Note_on_c, 0, 74, 102
1, 29858, Note_on_c, 5, 62, 113
1, 29862, Note_on_c, 9, 38, 0
1, 29862, Note_on_c, 9, 63, 0
1, 29880, Note_on_c, 9, 63, 76
1, 29881, Note_on_c, 5, 62, 0
1, 29881, Note_on_c, 0, 71, 0
1, 29885, Note_on_c, 0, 67, 0
1, 29886, Note_on_c, 9, 63, 0
1, 29893, Note_on_c, 0, 74, 0
1, 29901, Note_on_c, 7, 59, 0
1, 29902, Note_on_c, 1, 35, 0
1, 29903, Note_on_c, 8, 62, 0
1, 29903, Note_on_c, 8, 59, 0
1, 29903, Note_on_c, 0, 76, 93
1, 29903, Note_on_c, 0, 72, 108
1, 29903, Note_on_c, 0, 67, 99
1, 29904, Tempo, 789474
1, 29904, Note_on_c, 7, 60, 89
1, 29904, Note_on_c, 8, 60, 88
1, 29904, Note_on_c, 8, 64, 88
1, 29904, Note_on_c, 9, 55, 63
1, 29904, Note_on_c, 9, 38, 115
1, 29904, Note_on_c, 9, 63, 89
1, 29905, Note_on_c, 1, 36, 99
1, 29906, Note_on_c, 5, 60, 119
1, 29907, Note_on_c, 6, 47, 0
1, 29908, Note_on_c, 6, 48, 106
1, 29910, Note_on_c, 9, 63, 0
1, 29910, Note_on_c, 9, 55, 0
1, 29910, Note_on_c, 9, 38, 0
1, 29928, Note_on_c, 9, 63, 82
1, 29929, Note_on_c, 0, 67, 0
1, 29930, Note_on_c, 0, 72, 0
1, 29931, Note_on_c, 0, 76, 0
1, 29934, Note_on_c, 9, 63, 0
1, 29946, Note_on_c, 1, 36, 0
1, 29950, Note_on_c, 5, 60, 0
1, 29951, Note_on_c, 8, 60, 0
1, 29951, Note_on_c, 8, 64, 0
1, 29952, Tempo, 500000
1, 29952, Note_on_c, 6, 48, 0
1, 29952, Note_on_c, 7, 60, 0
1, 29952, Note_on_c, 0, 48, 87
1, 29952, Note_on_c, 8, 58, 88
1, 29952, Note_on_c, 0, 70, 109
1, 29952, Note_on_c, 8, 62, 88
1, 29952, Note_on_c, 0, 36, 81
1, 29952, Note_on_c, 0, 65, 108
1, 29952, Note_on_c, 1, 24, 89
1, 29952, Note_on_c, 0, 74, 116
1, 29952, Note_on_c, 8, 65, 88
1, 29956, Note_on_c, 6, 53, 106
1, 29956, Note_on_c, 7, 62, 89
1, 29984, Control_c, 8, 11, 126
1, 29989, Control_c, 8, 11, 125
1, 29997, Control_c, 8, 11, 124
1, 30005, Control_c, 8, 11, 123
1, 30010, Control_c, 8, 11, 122
1, 30018, Control_c, 8, 11, 121
1, 30026, Control_c, 8, 11, 120
1, 30032, Control_c, 8, 11, 119
1, 30037, Control_c, 8, 11, 118
1, 30042, Control_c, 8, 11, 116
1, 30048, Control_c, 8, 11, 115
1, 30053, Control_c, 8, 11, 114
1, 30069, Control_c, 8, 11, 113
1, 30072, Control_c, 8, 11, 112
1, 30077, Control_c, 8, 11, 111
1, 30093, Control_c, 8, 11, 110
1, 30096, Control_c, 8, 11, 109
1, 30104, Control_c, 8, 11, 108
1, 30106, Control_c, 8, 11, 107
1, 30112, Control_c, 8, 11, 106
1, 30117, Control_c, 8, 11, 105
1, 30122, Control_c, 8, 11, 104
1, 30130, Control_c, 8, 11, 103
1, 30136, Control_c, 8, 11, 102
1, 30138, Control_c, 8, 11, 101
1, 30141, Note_on_c, 0, 48, 0
1, 30142, Note_on_c, 0, 48, 82
1, 30143, Note_on_c, 0, 74, 0
1, 30143, Note_on_c, 0, 65, 0
1, 30143, Note_on_c, 0, 70, 0
1, 30144, Note_on_c, 0, 70, 109
1, 30144, Control_c, 8, 11, 100
1, 30144, Note_on_c, 0, 65, 104
1, 30144, Note_on_c, 0, 77, 104
1, 30144, Note_on_c, 0, 74, 114
1, 30149, Control_c, 8, 11, 99
1, 30152, Control_c, 8, 11, 98
1, 30160, Control_c, 8, 11, 97
1, 30246, Control_c, 7, 11, 126
1, 30250, Control_c, 7, 11, 125
1, 30251, Control_c, 7, 11, 124
1, 30254, Control_c, 7, 11, 123
1, 30256, Control_c, 7, 11, 122
1, 30258, Control_c, 7, 11, 121
1, 30259, Control_c, 7, 11, 120
1, 30262, Control_c, 7, 11, 119
1, 30266, Control_c, 7, 11, 118
1, 30269, Control_c, 7, 11, 117
1, 30278, Control_c, 7, 11, 116
1, 30282, Control_c, 7, 11, 114
1, 30294, Control_c, 7, 11, 112
1, 30296, Note_on_c, 1, 24, 0
1, 30296, Control_c, 7, 11, 111
1, 30298, Control_c, 7, 11, 110
1, 30301, Control_c, 7, 11, 109
1, 30306, Control_c, 7, 11, 108
1, 30307, Control_c, 7, 11, 107
1, 30312, Control_c, 7, 11, 106
1, 30315, Control_c, 7, 11, 105
1, 30318, Control_c, 7, 11, 104
1, 30325, Control_c, 7, 11, 103
1, 30326, Control_c, 7, 11, 102
1, 30330, Control_c, 7, 11, 101
1, 30333, Control_c, 7, 11, 100
1, 30334, Control_c, 7, 11, 99
1, 30335, Note_on_c, 0, 48, 0
1, 30335, Note_on_c, 0, 36, 0
1, 30336, Note_on_c, 0, 48, 106
1, 30336, Note_on_c, 6, 55, 106
1, 30336, Control_c, 7, 11, 98
1, 30336, Note_on_c, 0, 36, 106
1, 30339, Control_c, 7, 11, 97
1, 30340, Note_on_c, 6, 53, 0
1, 30342, Control_c, 7, 11, 96
1, 30344, Control_c, 6, 11, 126
1, 30346, Control_c, 7, 11, 95
1, 30346, Control_c, 6, 11, 127
1, 30347, Control_c, 7, 11, 94
1, 30347, Control_c, 6, 11, 125
1, 30350, Control_c, 6, 11, 124
1, 30350, Control_c, 7, 11, 93
1, 30354, Control_c, 7, 11, 92
1, 30355, Control_c, 6, 11, 123
1, 30358, Control_c, 6, 11, 122
1, 30363, Control_c, 7, 11, 90
1, 30366, Control_c, 7, 11, 89
1, 30368, Control_c, 6, 11, 121
1, 30370, Control_c, 7, 11, 88
1, 30371, Control_c, 7, 11, 87
1, 30376, Control_c, 7, 11, 86
1, 30378, Control_c, 6, 11, 119
1, 30379, Control_c, 7, 11, 85
1, 30389, Control_c, 7, 11, 84
1, 30390, Control_c, 6, 11, 117
1, 30394, Note_on_c, 0, 77, 0
1, 30394, Note_on_c, 0, 70, 0
1, 30394, Note_on_c, 0, 65, 0
1, 30394, Note_on_c, 0, 74, 0
1, 30394, Control_c, 6, 11, 116
1, 30395, Note_on_c, 0, 62, 101
1, 30395, Note_on_c, 0, 65, 101
1, 30395, Note_on_c, 0, 58, 101
1, 30397, Control_c, 6, 11, 115
1, 30398, Control_c, 7, 11, 83
1, 30399, Note_on_c, 1, 60, 99
1, 30400, Control_c, 6, 11, 114
1, 30402, Control_c, 7, 11, 82
1, 30403, Control_c, 6, 11, 113
1, 30405, Control_c, 7, 11, 81
1, 30405, Control_c, 6, 11, 112
1, 30408, Control_c, 6, 11, 111
1, 30408, Control_c, 7, 11, 80
1, 30411, Control_c, 7, 11, 79
1, 30413, Control_c, 7, 11, 78
1, 30416, Control_c, 7, 11, 77
1, 30418, Control_c, 6, 11, 110
1, 30419, Control_c, 7, 11, 76
1, 30426, Note_on_c, 1, 60, 0
1, 30429, Control_c, 7, 11, 75
1, 30430, Control_c, 6, 11, 104
1, 30432, Control_c, 7, 11, 73
1, 30442, Control_c, 7, 11, 71
1, 30443, Control_c, 6, 11, 102
1, 30451, Control_c, 7, 11, 70
1, 30453, Control_c, 6, 11, 100
1, 30454, Control_c, 7, 11, 69
1, 30462, Control_c, 6, 11, 99
1, 30466, Control_c, 6, 11, 98
1, 30467, Control_c, 6, 11, 97
1, 30470, Control_c, 6, 11, 96
1, 30480, Control_c, 6, 11, 94
1, 30483, Control_c, 6, 11, 92
1, 30486, Control_c, 6, 11, 91
1, 30493, Note_on_c, 1, 55, 85
1, 30496, Control_c, 6, 11, 90
1, 30506, Control_c, 6, 11, 88
1, 30515, Control_c, 6, 11, 87
1, 30518, Control_c, 6, 11, 85
1, 30520, Control_c, 6, 11, 84
1, 30525, Control_c, 6, 11, 83
1, 30527, Note_on_c, 1, 55, 0
1, 30528, Tempo, 535714
1, 30528, Note_on_c, 7, 62, 0
1, 30530, Note_on_c, 0, 48, 0
1, 30531, Note_on_c, 0, 48, 100
1, 30538, Control_c, 6, 11, 81
1, 30547, Control_c, 6, 11, 79
1, 30557, Control_c, 6, 11, 78
1, 30560, Control_c, 6, 11, 77
1, 30570, Control_c, 6, 11, 75
1, 30586, Control_c, 6, 11, 73
1, 30590, Note_on_c, 0, 58, 0
1, 30590, Note_on_c, 1, 52, 82
1, 30591, Note_on_c, 0, 58, 98
1, 30592, Note_on_c, 0, 62, 0
1, 30592, Note_on_c, 0, 65, 0
1, 30593, Note_on_c, 0, 62, 98
1, 30593, Note_on_c, 0, 65, 98
1, 30602, Control_c, 6, 11, 71
1, 30611, Control_c, 6, 11, 69
1, 30614, Control_c, 6, 11, 68
1, 30618, Control_c, 6, 11, 67
1, 30621, Control_c, 6, 11, 66
1, 30624, Control_c, 6, 11, 65
1, 30625, Note_on_c, 0, 36, 0
1, 30626, Note_on_c, 0, 36, 98
1, 30637, Control_c, 6, 11, 63
1, 30640, Control_c, 6, 11, 61
1, 30643, Control_c, 6, 11, 60
1, 30648, Control_c, 6, 11, 59
1, 30661, Control_c, 6, 11, 57
1, 30680, Note_on_c, 1, 52, 0
1, 30687, Note_on_c, 1, 48, 81
1, 30704, Note_on_c, 6, 55, 0
1, 30712, Control_c, 7, 11, 127
1, 30716, Note_on_c, 8, 65, 0
1, 30720, Tempo, 500000
1, 30720, Note_on_c, 8, 62, 0
1, 30720, Note_on_c, 8, 49, 70
1, 30720, Note_on_c, 8, 65, 70
1, 30720, Note_on_c, 8, 56, 70
1, 30720, Note_on_c, 8, 63, 70
1, 30720, Note_on_c, 8, 37, 70
1, 30721, Note_on_c, 0, 65, 0
1, 30721, Note_on_c, 0, 37, 93
1, 30722, Note_on_c, 0, 49, 99
1, 30722, Lyric_t, ""
1, 30722, Lyric_t, "\015"
1, 30722, Note_on_c, 0, 61, 91
1, 30722, Lyric_t, "Ah! "
1, 30722, Note_on_c, 0, 65, 97
1, 30722, Note_on_c, 3, 65, 95
1, 30722, Note_on_c, 0, 56, 93
1, 30724, Note_on_c, 8, 58, 0
1, 30724, Note_on_c, 1, 48, 0
1, 30725, Note_on_c, 0, 48, 0
1, 30725, Note_on_c, 0, 62, 0
1, 30725, Note_on_c, 0, 58, 0
1, 30725, Note_on_c, 0, 36, 0
1, 30725, Note_on_c, 1, 49, 84
1, 30757, Control_c, 6, 11, 127
1, 30767, Note_on_c, 1, 49, 0
1, 30788, Note_on_c, 1, 49, 86
1, 30809, Note_on_c, 1, 49, 0
1, 30867, Note_on_c, 0, 65, 0
1, 30867, Note_on_c, 0, 61, 0
1, 30868, Note_on_c, 0, 73, 101
1, 30868, Note_on_c, 0, 61, 103
1, 30868, Note_on_c, 0, 65, 104
1, 30868, Note_on_c, 0, 68, 93
1, 30878, Note_on_c, 1, 51, 86
1, 30909, Note_on_c, 0, 49, 0
1, 30910, Note_on_c, 1, 51, 0
1, 30910, Note_on_c, 0, 49, 91
1, 30914, Note_on_c, 3, 65, 0
1, 30914, Note_on_c, 3, 68, 100
1, 30970, Note_on_c, 1, 49, 69
1, 31003, Note_on_c, 1, 49, 0
1, 31004, Note_on_c, 1, 51, 85
1, 31007, Note_on_c, 0, 37, 0
1, 31008, Note_on_c, 0, 37, 77
1, 31009, Note_on_c, 0, 61, 0
1, 31010, Note_on_c, 0, 61, 89
1, 31011, Note_on_c, 3, 68, 0
1, 31012, Note_on_c, 3, 70, 91
1, 31074, Note_on_c, 1, 51, 0
1, 31080, Note_on_c, 8, 56, 0
1, 31096, Note_on_c, 8, 37, 0
1, 31102, Note_on_c, 3, 70, 0
1, 31103, Note_on_c, 0, 65, 0
1, 31103, Note_on_c, 0, 73, 0
1, 31103, Note_on_c, 8, 65, 0
1, 31103, Note_on_c, 0, 56, 0
1, 31103, Note_on_c, 0, 49, 0
1, 31103, Note_on_c, 0, 37, 0
1, 31103, Note_on_c, 0, 68, 0
1, 31103, Note_on_c, 8, 49, 0
1, 31103, Note_on_c, 8, 63, 0
1, 31103, Note_on_c, 0, 61, 0
1, 31104, Note_on_c, 8, 58, 67
1, 31104, Note_on_c, 0, 51, 97
1, 31104, Note_on_c, 8, 65, 67
1, 31104, Note_on_c, 8, 39, 67
1, 31104, Note_on_c, 8, 55, 67
1, 31104, Note_on_c, 8, 63, 67
1, 31104, Note_on_c, 0, 58, 97
1, 31104, Note_on_c, 8, 51, 67
1, 31104, Note_on_c, 0, 39, 97
1, 31105, Note_on_c, 0, 67, 97
1, 31105, Note_on_c, 0, 63, 97
1, 31107, Note_on_c, 3, 65, 95
1, 31196, Note_on_c, 0, 58, 0
1, 31197, Note_on_c, 0, 58, 61
1, 31198, Note_on_c, 1, 51, 78
1, 31233, Note_on_c, 1, 51, 0
1, 31251, Note_on_c, 0, 75, 97
1, 31252, Note_on_c, 0, 67, 0
1, 31252, Note_on_c, 0, 51, 0
1, 31253, Note_on_c, 0, 67, 108
1, 31253, Note_on_c, 0, 51, 109
1, 31253, Note_on_c, 0, 70, 97
1, 31295, Note_on_c, 3, 65, 0
1, 31297, Note_on_c, 1, 58, 83
1, 31298, Note_on_c, 3, 63, 89
1, 31356, Note_on_c, 1, 58, 0
1, 31358, Note_on_c, 1, 51, 77
1, 31362, Note_on_c, 0, 39, 0
1, 31363, Note_on_c, 0, 39, 83
1, 31389, Note_on_c, 0, 63, 0
1, 31389, Note_on_c, 0, 58, 0
1, 31390, Note_on_c, 0, 63, 75
1, 31390, Note_on_c, 0, 58, 97
1, 31396, Note_on_c, 1, 51, 0
1, 31452, Note_on_c, 1, 51, 79
1, 31456, Note_on_c, 8, 55, 0
1, 31464, Note_on_c, 8, 58, 0
1, 31472, Note_on_c, 8, 65, 0
1, 31480, Note_on_c, 8, 39, 0
1, 31480, Note_on_c, 8, 51, 0
1, 31480, Note_on_c, 8, 63, 0
1, 31483, Note_on_c, 0, 51, 0
1, 31483, Note_on_c, 0, 67, 0
1, 31483, Note_on_c, 0, 39, 0
1, 31483, Note_on_c, 0, 63, 0
1, 31483, Note_on_c, 0, 75, 0
1, 31483, Note_on_c, 0, 70, 0
1, 31483, Note_on_c, 0, 58, 0
1, 31486, Note_on_c, 1, 51, 0
1, 31486, Note_on_c, 0, 57, 97
1, 31486, Note_on_c, 0, 41, 94
1, 31486, Note_on_c, 1, 53, 88
1, 31486, Note_on_c, 0, 53, 82
1, 31486, Note_on_c, 0, 60, 102
1, 31486, Note_on_c, 0, 65, 99
1, 31488, Note_on_c, 8, 55, 69
1, 31488, Note_on_c, 8, 41, 69
1, 31488, Note_on_c, 8, 65, 69
1, 31488, Note_on_c, 8, 53, 69
1, 31488, Note_on_c, 8, 57, 69
1, 31488, Note_on_c, 8, 60, 69
1, 31489, Note_on_c, 3, 63, 0
1, 31490, Note_on_c, 3, 65, 95
1, 31582, Note_on_c, 1, 53, 0
1, 31584, Note_on_c, 1, 48, 90
1, 31679, Note_on_c, 0, 53, 0
1, 31679, Note_on_c, 0, 60, 0
1, 31680, Note_on_c, 0, 72, 100
1, 31680, Note_on_c, 0, 53, 96
1, 31680, Note_on_c, 0, 60, 90
1, 31681, Note_on_c, 0, 65, 0
1, 31682, Note_on_c, 0, 69, 106
1, 31682, Note_on_c, 0, 65, 100
1, 31690, Note_on_c, 1, 48, 0
1, 31776, Note_on_c, 1, 41, 81
1, 31866, Note_on_c, 3, 65, 0
1, 31869, Note_on_c, 0, 41, 0
1, 31870, Note_on_c, 0, 41, 75
1, 31871, Note_on_c, 0, 53, 0
1, 31871, Note_on_c, 0, 72, 0
1, 31871, Note_on_c, 0, 69, 0
1, 31872, Note_on_c, 0, 72, 94
1, 31872, Note_on_c, 0, 77, 92
1, 31872, Note_on_c, 0, 53, 87
1, 31872, Note_on_c, 0, 69, 102
1, 31935, Note_on_c, 1, 41, 0
1, 31970, Note_on_c, 1, 36, 79
1, 32017, Note_on_c, 0, 53, 0
1, 32018, Note_on_c, 0, 72, 0
1, 32018, Note_on_c, 0, 77, 0
1, 32018, Note_on_c, 0, 81, 108
1, 32018, Note_on_c, 0, 53, 96
1, 32019, Note_on_c, 0, 77, 108
1, 32019, Note_on_c, 0, 72, 108
1, 32047, Note_on_c, 0, 77, 0
1, 32048, Note_on_c, 0, 77, 57
1, 32054, Note_on_c, 1, 36, 0
1, 32114, Note_on_c, 0, 72, 0
1, 32115, Note_on_c, 0, 72, 67
1, 32147, Note_on_c, 0, 41, 0
1, 32148, Note_on_c, 0, 41, 75
1, 32151, Note_on_c, 0, 77, 0
1, 32151, Note_on_c, 0, 72, 0
1, 32152, Note_on_c, 0, 84, 104
1, 32152, Note_on_c, 0, 72, 92
1, 32152, Note_on_c, 0, 77, 100
1, 32157, Note_on_c, 1, 36, 73
1, 32159, Note_on_c, 8, 57, 0
1, 32239, Note_on_c, 0, 77, 0
1, 32239, Note_on_c, 0, 65, 0
1, 32239, Note_on_c, 0, 53, 0
1, 32239, Note_on_c, 0, 41, 0
1, 32239, Note_on_c, 0, 81, 0
1, 32239, Note_on_c, 0, 57, 0
1, 32239, Note_on_c, 0, 60, 0
1, 32239, Note_on_c, 0, 72, 0
1, 32239, Note_on_c, 0, 69, 0
1, 32239, Note_on_c, 0, 84, 0
1, 32252, Note_on_c, 0, 70, 84
1, 32252, Note_on_c, 0, 53, 86
1, 32252, Note_on_c, 0, 41, 75
1, 32253, Note_on_c, 1, 36, 0
1, 32254, Note_on_c, 0, 62, 85
1, 32254, Note_on_c, 0, 65, 86
1, 32255, Note_on_c, 8, 55, 0
1, 32255, Note_on_c, 8, 60, 0
1, 32256, Note_on_c, 8, 62, 73
1, 32256, Note_on_c, 8, 58, 31
1, 32259, Note_on_c, 1, 29, 85
1, 32351, Note_on_c, 0, 62, 0
1, 32352, Note_on_c, 0, 62, 60
1, 32409, Note_on_c, 0, 53, 0
1, 32410, Note_on_c, 0, 65, 0
1, 32410, Note_on_c, 0, 70, 0
1, 32410, Note_on_c, 0, 53, 82
1, 32410, Note_on_c, 0, 74, 97
1, 32411, Note_on_c, 0, 70, 86
1, 32411, Note_on_c, 0, 65, 100
1, 32508, Note_on_c, 0, 62, 0
1, 32509, Note_on_c, 0, 62, 67
1, 32543, Note_on_c, 0, 70, 0
1, 32543, Note_on_c, 0, 53, 0
1, 32543, Note_on_c, 0, 65, 0
1, 32544, Note_on_c, 0, 65, 92
1, 32544, Note_on_c, 0, 53, 79
1, 32544, Note_on_c, 0, 70, 101
1, 32637, Note_on_c, 0, 62, 0
1, 32638, Note_on_c, 0, 62, 59
1, 32693, Note_on_c, 0, 53, 0
1, 32693, Note_on_c, 0, 65, 0
1, 32693, Note_on_c, 0, 74, 0
1, 32693, Note_on_c, 0, 70, 0
1, 32694, Note_on_c, 0, 74, 104
1, 32694, Note_on_c, 0, 65, 88
1, 32694, Note_on_c, 0, 70, 84
1, 32694, Note_on_c, 0, 53, 75
1, 32790, Note_on_c, 0, 65, 0
1, 32791, Note_on_c, 0, 65, 54
1, 32827, Note_on_c, 0, 53, 0
1, 32828, Note_on_c, 0, 53, 76
1, 32831, Note_on_c, 0, 74, 0
1, 32832, Note_on_c, 0, 74, 102
1, 32879, Note_on_c, 0, 70, 0
1, 32880, Note_on_c, 0, 70, 73
1, 32925, Note_on_c, 0, 65, 0
1, 32926, Note_on_c, 0, 65, 75
1, 32937, Note_on_c, 1, 29, 0
1, 32970, Note_on_c, 0, 77, 55
1, 32992, Note_on_c, 8, 62, 0
1, 32992, Note_on_c, 8, 58, 0
1, 33016, Note_on_c, 8, 41, 0
1, 33016, Note_on_c, 8, 65, 0
1, 33024, Note_on_c, 8, 53, 0
1, 33024, Note_on_c, 8, 43, 63
1, 33024, Note_on_c, 8, 67, 57
1, 33024, Note_on_c, 8, 62, 73
1, 33024, Note_on_c, 8, 57, 56
1, 33024, Note_on_c, 8, 59, 67
1, 33024, Note_on_c, 8, 55, 63
1, 33025, Note_on_c, 0, 62, 0
1, 33026, Note_on_c, 0, 71, 86
1, 33026, Note_on_c, 0, 62, 75
1, 33027, Note_on_c, 0, 57, 70
1, 33030, Note_on_c, 0, 59, 75
1, 33030, Note_on_c, 0, 55, 68
1, 33033, Note_on_c, 0, 41, 0
1, 33033, Note_on_c, 0, 65, 0
1, 33033, Note_on_c, 0, 74, 0
1, 33033, Note_on_c, 0, 53, 0
1, 33033, Note_on_c, 0, 77, 0
1, 33033, Note_on_c, 0, 70, 0
1, 33074, Note_on_c, 0, 74, 82
1, 33120, Note_on_c, 0, 69, 64
1, 33168, Note_on_c, 0, 79, 90
1, 33170, Note_on_c, 0, 71, 0
1, 33171, Note_on_c, 0, 71, 99
1, 33218, Note_on_c, 0, 74, 0
1, 33219, Note_on_c, 0, 74, 81
1, 33262, Note_on_c, 0, 67, 62
1, 33311, Note_on_c, 0, 69, 0
1, 33312, Note_on_c, 0, 57, 0
1, 33312, Note_on_c, 0, 62, 0
1, 33312, Note_on_c, 0, 81, 54
1, 33312, Note_on_c, 0, 69, 82
1, 33313, Note_on_c, 0, 55, 0
1, 33313, Note_on_c, 0, 59, 0
1, 33313, Note_on_c, 0, 62, 62
1, 33313, Note_on_c, 0, 57, 68
1, 33314, Note_on_c, 0, 55, 39
1, 33314, Note_on_c, 0, 59, 67
1, 33376, Note_on_c, 8, 62, 0
1, 33392, Note_on_c, 8, 43, 0
1, 33392, Note_on_c, 8, 59, 0
1, 33400, Note_on_c, 8, 57, 0
1, 33408, Note_on_c, 8, 40, 61
1, 33408, Note_on_c, 8, 62, 67
1, 33408, Note_on_c, 8, 59, 51
1, 33408, Note_on_c, 8, 52, 70
1, 33408, Note_on_c, 0, 52, 33
1, 33409, Note_on_c, 0, 59, 0
1, 33409, Note_on_c, 0, 62, 0
1, 33409, Note_on_c, 0, 74, 0
1, 33410, Note_on_c, 0, 55, 0
1, 33410, Note_on_c, 0, 74, 82
1, 33410, Note_on_c, 0, 59, 67
1, 33410, Note_on_c, 0, 62, 80
1, 33411, Note_on_c, 0, 55, 73
1, 33424, Note_on_c, 0, 81, 0
1, 33424, Note_on_c, 0, 57, 0
1, 33424, Note_on_c, 0, 79, 0
1, 33424, Note_on_c, 8, 55, 0
1, 33424, Note_on_c, 0, 69, 0
1, 33424, Note_on_c, 0, 67, 0
1, 33424, Note_on_c, 0, 71, 0
1, 33598, Note_on_c, 0, 62, 0
1, 33598, Note_on_c, 0, 55, 0
1, 33598, Note_on_c, 0, 74, 0
1, 33598, Note_on_c, 0, 59, 0
1, 33599, Note_on_c, 0, 74, 100
1, 33599, Note_on_c, 0, 62, 92
1, 33599, Note_on_c, 0, 59, 76
1, 33599, Note_on_c, 0, 55, 57
1, 33694, Note_on_c, 0, 59, 0
1, 33695, Note_on_c, 8, 40, 0
1, 33695, Note_on_c, 0, 59, 80
1, 33695, Note_on_c, 0, 64, 82
1, 33695, Note_on_c, 0, 76, 90
1, 33696, Tempo, 535714
1, 33760, Note_on_c, 8, 59, 0
1, 33768, Note_on_c, 8, 62, 0
1, 33784, Note_on_c, 8, 67, 0
1, 33792, Tempo, 500000
1, 33792, Note_on_c, 8, 58, 42
1, 33792, Note_on_c, 0, 36, 62
1, 33792, Note_on_c, 8, 36, 70
1, 33792, Note_on_c, 8, 62, 59
1, 33792, Note_on_c, 0, 65, 81
1, 33792, Note_on_c, 0, 48, 62
1, 33792, Note_on_c, 8, 53, 59
1, 33792, Note_on_c, 8, 48, 64
1, 33793, Note_on_c, 0, 62, 0
1, 33793, Note_on_c, 0, 55, 0
1, 33794, Note_on_c, 0, 64, 0
1, 33794, Note_on_c, 0, 76, 0
1, 33794, Note_on_c, 0, 59, 0
1, 33794, Note_on_c, 0, 74, 0
1, 33794, Note_on_c, 0, 52, 0
1, 33794, Note_on_c, 0, 55, 64
1, 33794, Note_on_c, 0, 62, 86
1, 33794, Note_on_c, 0, 58, 69
1, 33800, Note_on_c, 8, 52, 0
1, 33983, Note_on_c, 0, 55, 0
1, 33983, Note_on_c, 0, 48, 0
1, 33984, Note_on_c, 0, 55, 66
1, 33984, Note_on_c, 0, 48, 75
1, 33985, Note_on_c, 0, 62, 0
1, 33985, Note_on_c, 0, 65, 0
1, 33985, Note_on_c, 0, 58, 0
1, 33986, Note_on_c, 0, 58, 58
1, 33986, Note_on_c, 0, 62, 72
1, 33986, Note_on_c, 0, 65, 68
1, 34053, Note_on_c, 0, 48, 0
1, 34054, Note_on_c, 0, 48, 29
1, 34134, Note_on_c, 0, 36, 0
1, 34135, Note_on_c, 0, 36, 69
1, 34167, Note_on_c, 0, 48, 0
1, 34168, Note_on_c, 0, 48, 102
1, 34178, Control_c, 8, 11, 95
1, 34181, Control_c, 8, 11, 94
1, 34186, Control_c, 8, 11, 93
1, 34192, Control_c, 8, 11, 92
1, 34200, Control_c, 8, 11, 91
1, 34205, Control_c, 8, 11, 89
1, 34213, Control_c, 8, 11, 88
1, 34216, Control_c, 8, 11, 87
1, 34223, Note_on_c, 0, 62, 0
1, 34223, Note_on_c, 0, 55, 0
1, 34223, Note_on_c, 0, 65, 0
1, 34223, Note_on_c, 0, 58, 0
1, 34227, Note_on_c, 0, 65, 97
1, 34230, Note_on_c, 0, 62, 87
1, 34230, Note_on_c, 0, 58, 91
1, 34230, Note_on_c, 0, 55, 88
1, 34237, Control_c, 8, 11, 85
1, 34257, Note_on_c, 0, 58, 0
1, 34258, Control_c, 8, 11, 83
1, 34258, Note_on_c, 0, 58, 23
1, 34274, Control_c, 8, 11, 82
1, 34277, Control_c, 8, 11, 81
1, 34282, Control_c, 8, 11, 80
1, 34288, Control_c, 8, 11, 79
1, 34290, Control_c, 8, 11, 78
1, 34296, Control_c, 8, 11, 77
1, 34298, Control_c, 8, 11, 76
1, 34301, Control_c, 8, 11, 75
1, 34306, Control_c, 8, 11, 74
1, 34312, Control_c, 8, 11, 73
1, 34319, Note_on_c, 0, 36, 0
1, 34320, Note_on_c, 0, 36, 66
1, 34328, Control_c, 8, 11, 71
1, 34344, Control_c, 8, 11, 70
1, 34349, Control_c, 8, 11, 68
1, 34353, Note_on_c, 0, 48, 0
1, 34354, Control_c, 8, 11, 66
1, 34354, Note_on_c, 0, 48, 90
1, 34355, Note_on_c, 0, 55, 0
1, 34355, Note_on_c, 0, 62, 0
1, 34355, Note_on_c, 0, 65, 0
1, 34355, Note_on_c, 0, 58, 0
1, 34356, Note_on_c, 0, 62, 96
1, 34356, Note_on_c, 0, 65, 97
1, 34356, Note_on_c, 0, 58, 101
1, 34356, Note_on_c, 0, 55, 92
1, 34370, Control_c, 8, 11, 65
1, 34376, Control_c, 8, 11, 64
1, 34381, Control_c, 8, 11, 63
1, 34384, Control_c, 8, 11, 61
1, 34392, Control_c, 8, 11, 60
1, 34408, Control_c, 8, 11, 58
1, 34410, Control_c, 8, 11, 57
1, 34426, Control_c, 8, 11, 55
1, 34432, Control_c, 8, 11, 54
1, 34434, Control_c, 8, 11, 53
1, 34440, Control_c, 8, 11, 52
1, 34442, Control_c, 8, 11, 51
1, 34445, Control_c, 8, 11, 50
1, 34450, Control_c, 8, 11, 49
1, 34453, Note_on_c, 0, 55, 0
1, 34453, Note_on_c, 0, 65, 0
1, 34453, Note_on_c, 0, 48, 0
1, 34453, Note_on_c, 0, 62, 0
1, 34453, Control_c, 8, 11, 48
1, 34454, Note_on_c, 0, 48, 85
1, 34454, Note_on_c, 0, 62, 75
1, 34454, Note_on_c, 0, 55, 70
1, 34454, Note_on_c, 0, 65, 82
1, 34458, Control_c, 8, 11, 47
1, 34461, Control_c, 8, 11, 46
1, 34466, Control_c, 8, 11, 45
1, 34472, Control_c, 8, 11, 43
1, 34474, Control_c, 8, 11, 42
1, 34480, Control_c, 8, 11, 41
1, 34485, Control_c, 8, 11, 40
1, 34490, Control_c, 8, 11, 38
1, 34493, Control_c, 8, 11, 37
1, 34496, Control_c, 8, 11, 36
1, 34501, Control_c, 8, 11, 35
1, 34506, Control_c, 8, 11, 34
1, 34509, Control_c, 8, 11, 32
1, 34512, Control_c, 8, 11, 31
1, 34517, Control_c, 8, 11, 30
1, 34520, Control_c, 8, 11, 29
1, 34557, Note_on_c, 0, 62, 0
1, 34558, Note_on_c, 0, 79, 82
1, 34558, Note_on_c, 0, 62, 81
1, 34558, Note_on_c, 0, 67, 89
1, 34559, Note_on_c, 8, 58, 0
1, 34559, Note_on_c, 8, 48, 0
1, 34559, Note_on_c, 8, 53, 0
1, 34559, Note_on_c, 8, 36, 0
1, 34559, Note_on_c, 8, 62, 0
1, 34560, Note_on_c, 0, 71, 94
1, 34565, Note_on_c, 0, 48, 0
1, 34565, Note_on_c, 0, 55, 0
1, 34565, Note_on_c, 0, 36, 0
1, 34565, Note_on_c, 0, 65, 0
1, 34565, Note_on_c, 0, 58, 0
1, 34582, Note_on_c, 0, 74, 89
1, 34661, Control_c, 8, 11, 127
1, 34706, Note_on_c, 0, 67, 0
1, 34707, Note_on_c, 0, 67, 72
1, 34709, Note_on_c, 0, 71, 0
1, 34710, Note_on_c, 0, 71, 72
1, 34743, Note_on_c, 0, 74, 0
1, 34743, Note_on_c, 0, 79, 0
1, 34744, Note_on_c, 0, 79, 86
1, 34744, Note_on_c, 0, 74, 92
1, 34843, Note_on_c, 0, 67, 0
1, 34844, Note_on_c, 0, 67, 78
1, 34844, Note_on_c, 0, 81, 88
1, 34943, Note_on_c, 0, 74, 0
1, 34944, Note_on_c, 0, 74, 88
1, 34945, Note_on_c, 0, 67, 0
1, 34946, Note_on_c, 0, 62, 0
1, 34946, Note_on_c, 0, 79, 0
1, 34946, Note_on_c, 0, 71, 0
1, 34946, Note_on_c, 0, 81, 0
1, 34946, Note_on_c, 0, 64, 83
1, 34946, Note_on_c, 0, 67, 80
1, 34946, Note_on_c, 0, 59, 75
1, 34946, Note_on_c, 0, 69, 67
1, 35137, Note_on_c, 0, 74, 0
1, 35138, Note_on_c, 0, 69, 0
1, 35138, Note_on_c, 0, 67, 0
1, 35138, Note_on_c, 0, 74, 96
1, 35139, Note_on_c, 0, 67, 78
1, 35139, Note_on_c, 0, 69, 93
1, 35141, Note_on_c, 0, 64, 0
1, 35142, Note_on_c, 0, 64, 78
1, 35232, Tempo, 555556
1, 35233, Note_on_c, 0, 59, 0
1, 35234, Note_on_c, 0, 76, 74
1, 35234, Note_on_c, 0, 59, 71
1, 35328, Tempo, 500000
1, 35331, Note_on_c, 0, 48, 75
1, 35331, Note_on_c, 0, 36, 70
1, 35331, Note_on_c, 0, 65, 67
1, 35333, Note_on_c, 0, 59, 0
1, 35333, Note_on_c, 0, 69, 0
1, 35333, Note_on_c, 0, 67, 0
1, 35333, Note_on_c, 0, 64, 0
1, 35333, Note_on_c, 0, 74, 0
1, 35333, Note_on_c, 0, 76, 0
1, 35334, Note_on_c, 0, 62, 75
1, 35334, Note_on_c, 0, 55, 59
1, 35334, Note_on_c, 0, 58, 66
1, 35519, Note_on_c, 0, 65, 0
1, 35520, Note_on_c, 0, 65, 94
1, 35521, Note_on_c, 0, 62, 0
1, 35521, Note_on_c, 0, 48, 0
1, 35521, Note_on_c, 0, 58, 0
1, 35522, Note_on_c, 0, 55, 0
1, 35522, Note_on_c, 0, 58, 74
1, 35522, Note_on_c, 0, 62, 83
1, 35522, Note_on_c, 0, 48, 100
1, 35523, Note_on_c, 0, 55, 82
1, 35582, Note_on_c, 0, 36, 0
1, 35583, Note_on_c, 0, 36, 69
1, 35615, Lyric_t, ""
1, 35615, Lyric_t, "\015"
1, 35676, Note_on_c, 0, 36, 0
1, 35677, Note_on_c, 0, 36, 50
1, 35711, Note_on_c, 0, 48, 0
1, 35712, Note_on_c, 0, 48, 116
1, 35770, Note_on_c, 0, 58, 0
1, 35770, Note_on_c, 0, 65, 0
1, 35770, Note_on_c, 0, 62, 0
1, 35770, Note_on_c, 0, 55, 0
1, 35771, Note_on_c, 0, 65, 90
1, 35771, Note_on_c, 0, 58, 87
1, 35771, Note_on_c, 0, 62, 93
1, 35771, Note_on_c, 0, 55, 90
1, 35871, Note_on_c, 0, 36, 0
1, 35872, Note_on_c, 0, 36, 59
1, 35901, Note_on_c, 0, 58, 0
1, 35901, Note_on_c, 0, 65, 0
1, 35902, Note_on_c, 0, 58, 103
1, 35902, Note_on_c, 0, 65, 93
1, 35903, Note_on_c, 0, 62, 0
1, 35903, Note_on_c, 0, 55, 0
1, 35903, Note_on_c, 0, 48, 0
1, 35904, Note_on_c, 0, 55, 96
1, 35904, Note_on_c, 0, 62, 96
1, 35904, Note_on_c, 9, 36, 96
1, 35904, Note_on_c, 0, 48, 74
1, 35910, Note_on_c, 9, 36, 0
1, 35968, Note_on_c, 9, 38, 112
1, 35974, Note_on_c, 9, 38, 0
1, 35996, Note_on_c, 9, 38, 105
1, 35997, Note_on_c, 0, 48, 0
1, 35997, Note_on_c, 0, 65, 0
1, 35998, Note_on_c, 0, 65, 86
1, 35998, Note_on_c, 0, 48, 81
1, 35999, Note_on_c, 0, 55, 0
1, 35999, Note_on_c, 0, 58, 0
1, 35999, Note_on_c, 9, 38, 0
1, 35999, Lyric_t, "Deep "
1, 35999, Note_on_c, 3, 55, 103
1, 36000, Note_on_c, 0, 55, 80
1, 36000, Note_on_c, 9, 38, 118
1, 36000, Note_on_c, 0, 58, 79
1, 36001, Note_on_c, 0, 62, 0
1, 36002, Note_on_c, 0, 62, 87
1, 36006, Note_on_c, 9, 38, 0
1, 36014, Note_on_c, 3, 55, 0
1, 36030, Lyric_t, "in "
1, 36030, Note_on_c, 3, 55, 85
1, 36047, Note_on_c, 3, 55, 0
1, 36062, Lyric_t, "the "
1, 36062, Note_on_c, 4, 53, 20
1, 36062, Note_on_c, 3, 55, 85
1, 36066, Note_on_c, 4, 46, 20
1, 36067, Note_on_c, 4, 43, 20
1, 36069, Note_on_c, 4, 39, 20
1, 36071, Note_on_c, 4, 37, 20
1, 36079, Note_on_c, 0, 36, 0
1, 36079, Note_on_c, 0, 58, 0
1, 36079, Note_on_c, 0, 62, 0
1, 36079, Note_on_c, 0, 48, 0
1, 36079, Note_on_c, 0, 55, 0
1, 36079, Note_on_c, 0, 65, 0
1, 36082, Note_on_c, 3, 55, 0
1, 36094, Note_on_c, 4, 37, 0
1, 36095, Note_on_c, 4, 46, 0
1, 36096, Note_on_c, 4, 39, 0
1, 36096, Note_on_c, 0, 43, 78
1, 36096, Note_on_c, 1, 31, 99
1, 36096, Note_on_c, 9, 36, 105
1, 36096, Note_on_c, 0, 59, 106
1, 36096, Note_on_c, 0, 67, 88
1, 36096, Note_on_c, 2, 71, 52
1, 36096, Note_on_c, 2, 74, 52
1, 36096, Note_on_c, 9, 42, 60
1, 36096, Note_on_c, 0, 62, 102
1, 36096, Note_on_c, 2, 79, 52
1, 36097, Note_on_c, 4, 43, 0
1, 36097, Note_on_c, 0, 55, 82
1, 36098, Note_on_c, 4, 47, 67
1, 36098, Note_on_c, 4, 43, 54
1, 36101, Note_on_c, 4, 53, 0
1, 36101, Note_on_c, 4, 59, 57
1, 36101, Note_on_c, 4, 55, 69
1, 36101, Note_on_c, 4, 50, 67
1, 36102, Note_on_c, 9, 42, 0
1, 36102, Note_on_c, 9, 36, 0
1, 36102, Note_on_c, 3, 59, 97
1, 36102, Lyric_t, ""
1, 36102, Lyric_t, "\015"
1, 36102, Lyric_t, "woods, "
1, 36103, Note_on_c, 4, 67, 47
1, 36165, Note_on_c, 3, 62, 104
1, 36168, Note_on_c, 3, 59, 0
1, 36192, Note_on_c, 9, 42, 105
1, 36198, Note_on_c, 9, 42, 0
1, 36232, Note_on_c, 4, 67, 0
1, 36246, Note_on_c, 3, 62, 0
1, 36246, Note_on_c, 4, 55, 0
1, 36251, Note_on_c, 4, 53, 20
1, 36255, Note_on_c, 3, 64, 93
1, 36256, Note_on_c, 9, 36, 105
1, 36262, Note_on_c, 9, 36, 0
1, 36272, Note_on_c, 0, 62, 0
1, 36272, Note_on_c, 0, 67, 0
1, 36272, Note_on_c, 0, 59, 0
1, 36288, Note_on_c, 9, 38, 118
1, 36288, Note_on_c, 9, 42, 53
1, 36290, Note_on_c, 0, 67, 90
1, 36290, Note_on_c, 0, 59, 104
1, 36290, Note_on_c, 0, 62, 108
1, 36294, Note_on_c, 9, 42, 0
1, 36294, Note_on_c, 9, 38, 0
1, 36307, Note_on_c, 3, 64, 0
1, 36320, Note_on_c, 9, 42, 17
1, 36326, Note_on_c, 9, 42, 0
1, 36333, Note_on_c, 0, 55, 0
1, 36335, Note_on_c, 4, 53, 0
1, 36342, Note_on_c, 4, 59, 0
1, 36346, Note_on_c, 4, 50, 0
1, 36348, Note_on_c, 4, 47, 0
1, 36348, Note_on_c, 4, 67, 84
1, 36349, Note_on_c, 4, 59, 81
1, 36350, Note_on_c, 10, 47, 78
1, 36351, Pitch_bend_c, 10, 8192
1, 36351, Control_c, 10, 1, 0
1, 36351, Note_on_c, 4, 55, 79
1, 36352, Note_on_c, 4, 50, 63
1, 36377, Note_on_c, 4, 43, 0
1, 36380, Note_on_c, 0, 43, 0
1, 36383, Note_on_c, 10, 47, 0
1, 36383, Note_on_c, 4, 43, 46
1, 36384, Note_on_c, 9, 42, 79
1, 36386, Note_on_c, 0, 55, 81
1, 36386, Note_on_c, 4, 47, 56
1, 36390, Note_on_c, 9, 42, 0
1, 36429, Note_on_c, 4, 43, 0
1, 36430, Note_on_c, 0, 59, 0
1, 36430, Note_on_c, 4, 47, 0
1, 36438, Note_on_c, 4, 67, 0
1, 36443, Note_on_c, 4, 50, 0
1, 36444, Note_on_c, 4, 59, 0
1, 36444, Note_on_c, 4, 50, 20
1, 36446, Note_on_c, 10, 50, 67
1, 36447, Note_on_c, 4, 55, 0
1, 36447, Note_on_c, 4, 59, 42
1, 36448, Note_on_c, 9, 38, 118
1, 36449, Note_on_c, 3, 62, 100
1, 36449, Lyric_t, "the "
1, 36450, Note_on_c, 0, 59, 74
1, 36450, Note_on_c, 4, 55, 25
1, 36454, Note_on_c, 9, 38, 0
1, 36454, Note_on_c, 0, 67, 0
1, 36463, Note_on_c, 0, 55, 0
1, 36466, Note_on_c, 0, 62, 0
1, 36472, Note_on_c, 3, 62, 0
1, 36477, Note_on_c, 4, 59, 0
1, 36478, Note_on_c, 4, 50, 0
1, 36478, Note_on_c, 10, 52, 77
1, 36479, Note_on_c, 1, 31, 0
1, 36480, Note_on_c, 9, 36, 104
1, 36480, Note_on_c, 2, 76, 51
1, 36480, Note_on_c, 2, 81, 51
1, 36480, Note_on_c, 9, 42, 45
1, 36480, Note_on_c, 1, 28, 89
1, 36481, Note_on_c, 10, 50, 0
1, 36481, Note_on_c, 4, 55, 0
1, 36482, Note_on_c, 0, 67, 82
1, 36482, Note_on_c, 0, 64, 100
1, 36482, Note_on_c, 0, 52, 97
1, 36482, Note_on_c, 4, 52, 63
1, 36482, Note_on_c, 4, 47, 46
1, 36483, Note_on_c, 4, 64, 44
1, 36483, Note_on_c, 4, 55, 61
1, 36485, Note_on_c, 4, 59, 56
1, 36486, Note_on_c, 9, 42, 0
1, 36486, Note_on_c, 9, 36, 0
1, 36486, Lyric_t, "squirrels "
1, 36486, Note_on_c, 3, 67, 94
1, 36544, Note_on_c, 10, 52, 0
1, 36544, Note_on_c, 9, 36, 82
1, 36550, Note_on_c, 9, 36, 0
1, 36574, Note_on_c, 3, 67, 0
1, 36576, Note_on_c, 9, 42, 101
1, 36577, Note_on_c, 3, 64, 95
1, 36577, Lyric_t, "are "
1, 36582, Note_on_c, 9, 42, 0
1, 36618, Note_on_c, 4, 64, 0
1, 36622, Note_on_c, 4, 59, 0
1, 36623, Note_on_c, 3, 64, 0
1, 36630, Note_on_c, 4, 55, 0
1, 36638, Note_on_c, 10, 55, 74
1, 36640, Note_on_c, 9, 36, 105
1, 36646, Note_on_c, 9, 36, 0
1, 36646, Note_on_c, 0, 59, 0
1, 36650, Note_on_c, 0, 67, 0
1, 36662, Note_on_c, 0, 64, 0
1, 36666, Note_on_c, 4, 47, 0
1, 36668, Note_on_c, 4, 52, 0
1, 36670, Note_on_c, 4, 47, 45
1, 36671, Note_on_c, 10, 55, 0
1, 36672, Note_on_c, 9, 42, 17
1, 36672, Note_on_c, 9, 38, 118
1, 36673, Note_on_c, 4, 52, 56
1, 36674, Note_on_c, 4, 55, 69
1, 36674, Note_on_c, 4, 59, 72
1, 36674, Note_on_c, 0, 64, 106
1, 36674, Note_on_c, 0, 67, 90
1, 36674, Note_on_c, 0, 59, 108
1, 36677, Note_on_c, 4, 64, 46
1, 36677, Lyric_t, "out "
1, 36677, Note_on_c, 3, 59, 97
1, 36678, Note_on_c, 9, 38, 0
1, 36678, Note_on_c, 9, 42, 0
1, 36699, Note_on_c, 0, 52, 0
1, 36711, Note_on_c, 3, 59, 0
1, 36734, Note_on_c, 10, 57, 71
1, 36762, Note_on_c, 4, 52, 0
1, 36768, Note_on_c, 9, 42, 94
1, 36769, Note_on_c, 4, 55, 0
1, 36769, Note_on_c, 0, 52, 58
1, 36770, Note_on_c, 4, 59, 0
1, 36770, Note_on_c, 3, 55, 88
1, 36770, Lyric_t, "to"
1, 36770, Note_on_c, 4, 52, 35
1, 36773, Note_on_c, 10, 57, 0
1, 36773, Note_on_c, 4, 55, 52
1, 36774, Note_on_c, 9, 42, 0
1, 36774, Note_on_c, 4, 59, 27
1, 36791, Note_on_c, 4, 52, 0
1, 36809, Note_on_c, 4, 64, 0
1, 36812, Note_on_c, 3, 55, 0
1, 36817, Note_on_c, 4, 55, 0
1, 36818, Note_on_c, 4, 47, 0
1, 36821, Note_on_c, 4, 59, 0
1, 36821, Note_on_c, 0, 52, 0
1, 36830, Note_on_c, 10, 59, 76
1, 36831, Note_on_c, 0, 55, 75
1, 36832, Note_on_c, 9, 36, 82
1, 36838, Note_on_c, 9, 36, 0
1, 36838, Note_on_c, 0, 64, 0
1, 36846, Note_on_c, 0, 59, 0
1, 36854, Note_on_c, 0, 67, 0
1, 36860, Note_on_c, 1, 28, 0
1, 36862, Note_on_c, 4, 48, 67
1, 36863, Note_on_c, 2, 81, 0
1, 36863, Note_on_c, 2, 76, 0
1, 36863, Note_on_c, 2, 79, 0
1, 36863, Note_on_c, 2, 71, 0
1, 36864, Note_on_c, 2, 70, 52
1, 36864, Note_on_c, 9, 42, 40
1, 36864, Note_on_c, 2, 67, 52
1, 36864, Note_on_c, 9, 36, 100
1, 36864, Note_on_c, 2, 77, 52
1, 36864, Note_on_c, 1, 36, 97
1, 36865, Note_on_c, 0, 65, 74
1, 36865, Note_on_c, 10, 60, 77
1, 36865, Note_on_c, 0, 58, 63
1, 36865, Note_on_c, 0, 62, 92
1, 36865, Note_on_c, 0, 48, 86
1, 36866, Note_on_c, 4, 53, 71
1, 36866, Note_on_c, 4, 58, 71
1, 36869, Note_on_c, 10, 59, 0
1, 36869, Note_on_c, 3, 57, 97
1, 36869, Lyric_t, ""
1, 36869, Lyric_t, "\015"
1, 36869, Lyric_t, "day; "
1, 36870, Note_on_c, 9, 36, 0
1, 36870, Note_on_c, 9, 42, 0
1, 36871, Note_on_c, 4, 62, 26
1, 36901, Note_on_c, 4, 62, 0
1, 36928, Note_on_c, 10, 60, 0
1, 36929, Note_on_c, 10, 55, 70
1, 36960, Note_on_c, 9, 42, 94
1, 36966, Note_on_c, 9, 42, 0
1, 36969, Note_on_c, 3, 57, 0
1, 36977, Note_on_c, 10, 55, 0
1, 36992, Note_on_c, 3, 57, 94
1, 36993, Note_on_c, 4, 58, 0
1, 37010, Pitch_bend_c, 3, 8582
1, 37011, Pitch_bend_c, 3, 9102
1, 37014, Pitch_bend_c, 3, 9882
1, 37015, Pitch_bend_c, 3, 10272
1, 37018, Pitch_bend_c, 3, 10792
1, 37019, Pitch_bend_c, 3, 11312
1, 37021, Pitch_bend_c, 3, 11572
1, 37023, Note_on_c, 10, 52, 70
1, 37024, Note_on_c, 9, 36, 85
1, 37025, Pitch_bend_c, 3, 11442
1, 37027, Pitch_bend_c, 3, 10012
1, 37030, Note_on_c, 9, 36, 0
1, 37030, Pitch_bend_c, 3, 8192
1, 37031, Note_on_c, 0, 55, 0
1, 37033, Note_on_c, 0, 62, 0
1, 37037, Note_on_c, 0, 65, 0
1, 37037, Note_on_c, 0, 58, 0
1, 37046, Note_on_c, 4, 48, 0
1, 37054, Note_on_c, 4, 48, 20
1, 37055, Note_on_c, 3, 57, 0
1, 37056, Note_on_c, 9, 38, 118
1, 37056, Note_on_c, 3, 55, 88
1, 37056, Note_on_c, 9, 42, 24
1, 37058, Note_on_c, 10, 52, 0
1, 37058, Note_on_c, 10, 48, 70
1, 37058, Note_on_c, 0, 55, 89
1, 37058, Note_on_c, 0, 62, 96
1, 37058, Note_on_c, 0, 65, 82
1, 37058, Note_on_c, 0, 58, 79
1, 37062, Note_on_c, 9, 38, 0
1, 37062, Note_on_c, 9, 42, 0
1, 37095, Note_on_c, 0, 48, 0
1, 37118, Note_on_c, 4, 53, 0
1, 37120, Note_on_c, 4, 53, 70
1, 37122, Note_on_c, 4, 58, 79
1, 37124, Note_on_c, 4, 48, 0
1, 37138, Note_on_c, 10, 48, 0
1, 37142, Note_on_c, 4, 53, 0
1, 37142, Note_on_c, 4, 58, 0
1, 37152, Note_on_c, 9, 42, 101
1, 37158, Note_on_c, 9, 42, 0
1, 37212, Note_on_c, 0, 62, 0
1, 37214, Note_on_c, 10, 52, 63
1, 37214, Note_on_c, 0, 36, 77
1, 37214, Note_on_c, 4, 58, 37
1, 37216, Note_on_c, 9, 38, 118
1, 37218, Note_on_c, 0, 65, 0
1, 37218, Note_on_c, 0, 58, 0
1, 37218, Note_on_c, 0, 55, 0
1, 37218, Note_on_c, 4, 38, 20
1, 37218, Note_on_c, 4, 42, 20
1, 37222, Note_on_c, 9, 38, 0
1, 37243, Note_on_c, 4, 58, 0
1, 37246, Note_on_c, 4, 38, 0
1, 37246, Note_on_c, 10, 52, 0
1, 37246, Note_on_c, 4, 42, 0
1, 37247, Note_on_c, 0, 48, 108
1, 37247, Note_on_c, 10, 53, 75
1, 37248, Note_on_c, 9, 42, 49
1, 37248, Note_on_c, 9, 36, 88
1, 37249, Note_on_c, 4, 48, 73
1, 37249, Note_on_c, 4, 53, 59
1, 37250, Note_on_c, 4, 58, 66
1, 37253, Note_on_c, 4, 62, 48
1, 37254, Note_on_c, 9, 36, 0
1, 37254, Note_on_c, 9, 42, 0
1, 37273, Note_on_c, 3, 55, 0
1, 37310, Note_on_c, 10, 53, 0
1, 37310, Note_on_c, 0, 65, 89
1, 37311, Note_on_c, 10, 55, 78
1, 37311, Note_on_c, 0, 58, 80
1, 37311, Note_on_c, 0, 55, 89
1, 37312, Note_on_c, 9, 36, 91
1, 37313, Lyric_t, ""
1, 37313, Lyric_t, "\015"
1, 37313, Note_on_c, 0, 62, 97
1, 37318, Note_on_c, 9, 36, 0
1, 37341, Note_on_c, 4, 58, 0
1, 37344, Note_on_c, 9, 42, 91
1, 37346, Note_on_c, 10, 55, 0
1, 37346, Note_on_c, 4, 62, 0
1, 37350, Note_on_c, 9, 42, 0
1, 37362, Note_on_c, 0, 36, 0
1, 37404, Note_on_c, 4, 53, 0
1, 37405, Note_on_c, 0, 48, 0
1, 37406, Note_on_c, 10, 58, 65
1, 37407, Note_on_c, 0, 36, 75
1, 37408, Note_on_c, 9, 36, 92
1, 37410, Note_on_c, 4, 48, 0
1, 37414, Note_on_c, 9, 36, 0
1, 37439, Note_on_c, 2, 70, 0
1, 37440, Note_on_c, 9, 42, 62
1, 37440, Note_on_c, 9, 38, 118
1, 37442, Note_on_c, 0, 48, 97
1, 37442, Note_on_c, 4, 48, 60
1, 37443, Note_on_c, 4, 53, 30
1, 37446, Note_on_c, 9, 38, 0
1, 37446, Note_on_c, 9, 42, 0
1, 37450, Note_on_c, 10, 58, 0
1, 37478, Note_on_c, 0, 65, 0
1, 37479, Note_on_c, 0, 58, 0
1, 37481, Note_on_c, 0, 62, 0
1, 37499, Note_on_c, 0, 55, 0
1, 37499, Note_on_c, 4, 53, 0
1, 37502, Note_on_c, 10, 53, 76
1, 37502, Note_on_c, 0, 58, 76
1, 37502, Note_on_c, 0, 62, 94
1, 37502, Note_on_c, 0, 55, 88
1, 37502, Note_on_c, 0, 65, 82
1, 37502, Note_on_c, 4, 58, 69
1, 37503, Note_on_c, 4, 48, 0
1, 37504, Note_on_c, 4, 53, 59
1, 37506, Note_on_c, 4, 48, 65
1, 37509, Note_on_c, 0, 48, 0
1, 37514, Note_on_c, 0, 36, 0
1, 37531, Note_on_c, 4, 58, 0
1, 37535, Note_on_c, 4, 53, 0
1, 37535, Note_on_c, 10, 55, 74
1, 37536, Note_on_c, 9, 42, 101
1, 37536, Note_on_c, 0, 48, 64
1, 37537, Note_on_c, 4, 53, 51
1, 37538, Note_on_c, 4, 58, 45
1, 37542, Note_on_c, 9, 42, 0
1, 37544, Note_on_c, 10, 53, 0
1, 37549, Note_on_c, 0, 55, 0
1, 37551, Note_on_c, 1, 36, 0
1, 37556, Note_on_c, 4, 48, 0
1, 37562, Note_on_c, 0, 48, 0
1, 37566, Note_on_c, 4, 53, 0
1, 37569, Note_on_c, 4, 58, 0
1, 37592, Note_on_c, 4, 46, 20
1, 37595, Note_on_c, 10, 55, 0
1, 37596, Note_on_c, 4, 43, 20
1, 37598, Note_on_c, 10, 48, 76
1, 37600, Note_on_c, 9, 36, 95
1, 37601, Note_on_c, 0, 55, 75
1, 37606, Note_on_c, 9, 36, 0
1, 37615, Note_on_c, 4, 43, 0
1, 37618, Note_on_c, 0, 65, 0
1, 37622, Note_on_c, 4, 46, 0
1, 37622, Note_on_c, 0, 58, 0
1, 37622, Note_on_c, 0, 62, 0
1, 37631, Note_on_c, 2, 74, 0
1, 37631, Note_on_c, 2, 77, 0
1, 37631, Note_on_c, 2, 67, 0
1, 37631, Note_on_c, 0, 51, 81
1, 37631, Note_on_c, 0, 39, 86
1, 37632, Note_on_c, 9, 42, 44
1, 37632, Note_on_c, 1, 39, 94
1, 37632, Note_on_c, 2, 70, 53
1, 37632, Note_on_c, 9, 36, 105
1, 37632, Note_on_c, 2, 75, 53
1, 37632, Note_on_c, 0, 58, 93
1, 37632, Note_on_c, 2, 79, 53
1, 37632, Note_on_c, 0, 63, 109
1, 37634, Note_on_c, 4, 55, 69
1, 37635, Note_on_c, 4, 58, 30
1, 37638, Note_on_c, 9, 36, 0
1, 37638, Note_on_c, 9, 42, 0
1, 37638, Note_on_c, 4, 53, 20
1, 37638, Note_on_c, 4, 63, 44
1, 37648, Note_on_c, 10, 48, 0
1, 37697, Lyric_t, "my "
1, 37697, Note_on_c, 3, 55, 93
1, 37718, Note_on_c, 3, 55, 0
1, 37728, Note_on_c, 9, 42, 94
1, 37730, Note_on_c, 3, 63, 95
1, 37730, Lyric_t, "wife "
1, 37734, Note_on_c, 9, 42, 0
1, 37761, Note_on_c, 4, 53, 0
1, 37786, Note_on_c, 3, 63, 0
1, 37792, Note_on_c, 9, 36, 88
1, 37793, Lyric_t, "cried "
1, 37793, Note_on_c, 3, 65, 91
1, 37793, Note_on_c, 10, 63, 81
1, 37796, Note_on_c, 0, 63, 0
1, 37797, Note_on_c, 0, 55, 0
1, 37798, Note_on_c, 9, 36, 0
1, 37818, Note_on_c, 4, 55, 0
1, 37820, Note_on_c, 0, 58, 0
1, 37820, Note_on_c, 4, 58, 0
1, 37822, Note_on_c, 4, 63, 0
1, 37822, Note_on_c, 4, 55, 62
1, 37823, Note_on_c, 4, 58, 61
1, 37824, Note_on_c, 10, 63, 0
1, 37824, Note_on_c, 0, 58, 101
1, 37824, Note_on_c, 0, 63, 101
1, 37824, Note_on_c, 9, 38, 118
1, 37825, Note_on_c, 0, 55, 99
1, 37826, Note_on_c, 4, 63, 46
1, 37826, Note_on_c, 10, 58, 56
1, 37827, Note_on_c, 4, 53, 20
1, 37830, Note_on_c, 9, 38, 0
1, 37838, Note_on_c, 0, 51, 0
1, 37853, Note_on_c, 3, 65, 0
1, 37864, Note_on_c, 0, 39, 0
1, 37879, Note_on_c, 10, 58, 0
1, 37885, Note_on_c, 3, 65, 94
1, 37885, Lyric_t, "when "
1, 37887, Note_on_c, 10, 51, 40
1, 37918, Note_on_c, 0, 51, 65
1, 37919, Note_on_c, 4, 58, 0
1, 37920, Note_on_c, 4, 63, 0
1, 37920, Note_on_c, 9, 42, 88
1, 37921, Note_on_c, 4, 63, 50
1, 37922, Note_on_c, 10, 51, 0
1, 37926, Note_on_c, 9, 42, 0
1, 37930, Note_on_c, 4, 63, 0
1, 37937, Note_on_c, 4, 53, 0
1, 37938, Note_on_c, 4, 55, 0
1, 37940, Note_on_c, 3, 65, 0
1, 37951, Note_on_c, 3, 67, 88
1, 37951, Lyric_t, "they "
1, 37969, Note_on_c, 0, 55, 0
1, 37980, Note_on_c, 0, 58, 0
1, 37982, Note_on_c, 0, 55, 62
1, 37983, Note_on_c, 10, 51, 71
1, 37984, Note_on_c, 9, 38, 118
1, 37990, Note_on_c, 9, 38, 0
1, 37992, Note_on_c, 0, 63, 0
1, 37998, Note_on_c, 0, 51, 0
1, 38005, Note_on_c, 3, 67, 0
1, 38014, Note_on_c, 4, 59, 70
1, 38014, Note_on_c, 4, 55, 67
1, 38014, Note_on_c, 4, 62, 70
1, 38015, Note_on_c, 2, 75, 0
1, 38015, Note_on_c, 2, 70, 0
1, 38015, Note_on_c, 1, 39, 0
1, 38016, Note_on_c, 0, 50, 88
1, 38016, Note_on_c, 10, 50, 81
1, 38016, Note_on_c, 2, 74, 54
1, 38016, Note_on_c, 9, 42, 49
1, 38016, Note_on_c, 2, 71, 54
1, 38016, Note_on_c, 0, 38, 83
1, 38016, Note_on_c, 9, 36, 91
1, 38016, Note_on_c, 1, 38, 95
1, 38017, Note_on_c, 0, 62, 86
1, 38018, Note_on_c, 3, 62, 97
1, 38018, Note_on_c, 4, 67, 52
1, 38018, Note_on_c, 0, 59, 77
1, 38018, Lyric_t, ""
1, 38018, Lyric_t, "\015"
1, 38018, Lyric_t, "came "
1, 38020, Note_on_c, 10, 51, 0
1, 38022, Note_on_c, 9, 42, 0
1, 38022, Note_on_c, 9, 36, 0
1, 38080, Note_on_c, 9, 36, 89
1, 38086, Note_on_c, 9, 36, 0
1, 38091, Note_on_c, 3, 62, 0
1, 38112, Note_on_c, 9, 42, 85
1, 38114, Note_on_c, 4, 67, 0
1, 38114, Note_on_c, 4, 62, 0
1, 38118, Note_on_c, 9, 42, 0
1, 38133, Note_on_c, 10, 50, 0
1, 38173, Note_on_c, 3, 59, 83
1, 38173, Lyric_t, "to "
1, 38176, Note_on_c, 9, 36, 101
1, 38178, Note_on_c, 0, 55, 0
1, 38182, Note_on_c, 9, 36, 0
1, 38185, Note_on_c, 0, 62, 0
1, 38186, Note_on_c, 0, 59, 0
1, 38198, Note_on_c, 4, 55, 0
1, 38199, Note_on_c, 3, 59, 0
1, 38204, Note_on_c, 4, 59, 0
1, 38206, Note_on_c, 0, 62, 99
1, 38206, Note_on_c, 0, 55, 96
1, 38206, Note_on_c, 0, 59, 94
1, 38207, Note_on_c, 4, 55, 50
1, 38208, Note_on_c, 9, 42, 65
1, 38208, Note_on_c, 9, 38, 118
1, 38209, Lyric_t, "take "
1, 38209, Note_on_c, 3, 64, 97
1, 38210, Note_on_c, 4, 67, 80
1, 38210, Note_on_c, 4, 59, 75
1, 38213, Note_on_c, 4, 62, 79
1, 38214, Note_on_c, 9, 38, 0
1, 38214, Note_on_c, 9, 42, 0
1, 38225, Note_on_c, 0, 38, 0
1, 38229, Note_on_c, 0, 50, 0
1, 38257, Note_on_c, 3, 64, 0
1, 38270, Note_on_c, 10, 57, 85
1, 38274, Note_on_c, 3, 67, 98
1, 38274, Lyric_t, "me "
1, 38298, Note_on_c, 4, 59, 0
1, 38299, Note_on_c, 4, 55, 0
1, 38302, Note_on_c, 4, 62, 0
1, 38302, Note_on_c, 4, 67, 0
1, 38302, Note_on_c, 10, 55, 77
1, 38302, Note_on_c, 4, 55, 29
1, 38302, Note_on_c, 0, 50, 67
1, 38304, Note_on_c, 9, 42, 85
1, 38305, Note_on_c, 10, 57, 0
1, 38310, Note_on_c, 9, 42, 0
1, 38316, Note_on_c, 3, 67, 0
1, 38322, Note_on_c, 4, 55, 0
1, 38338, Note_on_c, 3, 67, 95
1, 38338, Lyric_t, "a"
1, 38340, Note_on_c, 1, 38, 0
1, 38354, Note_on_c, 10, 55, 0
1, 38358, Note_on_c, 0, 55, 0
1, 38362, Note_on_c, 0, 50, 0
1, 38365, Note_on_c, 10, 50, 66
1, 38370, Note_on_c, 0, 59, 0
1, 38373, Note_on_c, 3, 67, 0
1, 38386, Note_on_c, 0, 62, 0
1, 38398, Note_on_c, 4, 64, 76
1, 38398, Note_on_c, 4, 61, 71
1, 38398, Note_on_c, 4, 57, 67
1, 38399, Note_on_c, 2, 71, 0
1, 38399, Note_on_c, 2, 74, 0
1, 38399, Note_on_c, 2, 79, 0
1, 38399, Note_on_c, 10, 49, 69
1, 38399, Note_on_c, 4, 69, 47
1, 38399, Note_on_c, 0, 37, 91
1, 38400, Note_on_c, 2, 76, 53
1, 38400, Note_on_c, 0, 64, 79
1, 38400, Note_on_c, 9, 42, 65
1, 38400, Note_on_c, 0, 57, 82
1, 38400, Note_on_c, 2, 73, 53
1, 38400, Note_on_c, 2, 81, 53
1, 38400, Note_on_c, 0, 49, 86
1, 38400, Note_on_c, 9, 36, 105
1, 38400, Note_on_c, 0, 67, 82
1, 38400, Note_on_c, 1, 37, 92
1, 38403, Note_on_c, 3, 69, 106
1, 38403, Lyric_t, "way, "
1, 38406, Note_on_c, 9, 36, 0
1, 38406, Note_on_c, 9, 42, 0
1, 38407, Note_on_c, 10, 50, 0
1, 38436, Pitch_bend_c, 3, 8322
1, 38438, Pitch_bend_c, 3, 8452
1, 38440, Pitch_bend_c, 3, 8712
1, 38442, Pitch_bend_c, 3, 8972
1, 38444, Pitch_bend_c, 3, 9102
1, 38446, Pitch_bend_c, 3, 9362
1, 38447, Note_on_c, 10, 49, 0
1, 38448, Pitch_bend_c, 3, 9622
1, 38450, Pitch_bend_c, 3, 9752
1, 38451, Pitch_bend_c, 3, 10012
1, 38454, Pitch_bend_c, 3, 10272
1, 38455, Pitch_bend_c, 3, 10402
1, 38458, Pitch_bend_c, 3, 10662
1, 38459, Pitch_bend_c, 3, 10792
1, 38461, Pitch_bend_c, 3, 10922
1, 38462, Note_on_c, 10, 49, 65
1, 38463, Pitch_bend_c, 3, 11312
1, 38465, Pitch_bend_c, 3, 11442
1, 38467, Pitch_bend_c, 3, 11572
1, 38469, Pitch_bend_c, 3, 11702
1, 38473, Pitch_bend_c, 3, 11832
1, 38474, Pitch_bend_c, 3, 11962
1, 38482, Pitch_bend_c, 3, 11832
1, 38484, Pitch_bend_c, 3, 11702
1, 38486, Pitch_bend_c, 3, 11572
1, 38488, Pitch_bend_c, 3, 10402
1, 38490, Pitch_bend_c, 3, 8192
1, 38494, Note_on_c, 10, 49, 0
1, 38496, Note_on_c, 9, 42, 75
1, 38502, Note_on_c, 9, 42, 0
1, 38514, Note_on_c, 3, 69, 0
1, 38526, Note_on_c, 0, 49, 0
1, 38526, Note_on_c, 3, 67, 86
1, 38530, Note_on_c, 10, 49, 70
1, 38535, Note_on_c, 4, 69, 0
1, 38544, Note_on_c, 10, 49, 0
1, 38549, Note_on_c, 4, 64, 0
1, 38552, Note_on_c, 4, 54, 20
1, 38556, Note_on_c, 0, 67, 0
1, 38556, Note_on_c, 3, 67, 0
1, 38557, Note_on_c, 3, 64, 77
1, 38558, Note_on_c, 0, 49, 80
1, 38560, Note_on_c, 9, 36, 105
1, 38562, Note_on_c, 10, 49, 84
1, 38566, Note_on_c, 9, 36, 0
1, 38568, Note_on_c, 0, 57, 0
1, 38568, Note_on_c, 0, 64, 0
1, 38578, Note_on_c, 10, 49, 0
1, 38588, Note_on_c, 3, 64, 0
1, 38588, Note_on_c, 4, 61, 0
1, 38590, Note_on_c, 3, 67, 98
1, 38592, Note_on_c, 9, 42, 45
1, 38592, Note_on_c, 9, 38, 118
1, 38593, Note_on_c, 0, 57, 104
1, 38593, Note_on_c, 0, 67, 89
1, 38594, Note_on_c, 4, 61, 38
1, 38594, Note_on_c, 10, 49, 84
1, 38594, Note_on_c, 0, 64, 96
1, 38597, Note_on_c, 4, 64, 45
1, 38598, Note_on_c, 9, 38, 0
1, 38598, Note_on_c, 9, 42, 0
1, 38622, Pitch_bend_c, 3, 8322
1, 38624, Pitch_bend_c, 3, 8712
1, 38626, Pitch_bend_c, 3, 8972
1, 38628, Pitch_bend_c, 3, 9102
1, 38630, Pitch_bend_c, 3, 9362
1, 38632, Pitch_bend_c, 3, 9492
1, 38634, Note_on_c, 10, 49, 0
1, 38634, Pitch_bend_c, 3, 9622
1, 38636, Pitch_bend_c, 3, 9752
1, 38642, Pitch_bend_c, 3, 9622
1, 38643, Pitch_bend_c, 3, 8972
1, 38646, Note_on_c, 4, 64, 0
1, 38646, Pitch_bend_c, 3, 8192
1, 38647, Note_on_c, 4, 54, 0
1, 38650, Note_on_c, 4, 61, 0
1, 38651, Note_on_c, 4, 69, 83
1, 38653, Note_on_c, 4, 64, 78
1, 38654, Note_on_c, 4, 57, 0
1, 38654, Note_on_c, 4, 61, 70
1, 38656, Note_on_c, 4, 57, 70
1, 38657, Note_on_c, 10, 49, 78
1, 38670, Note_on_c, 0, 49, 0
1, 38678, Note_on_c, 4, 57, 0
1, 38679, Note_on_c, 4, 61, 0
1, 38680, Note_on_c, 4, 69, 0
1, 38680, Note_on_c, 4, 64, 0
1, 38686, Note_on_c, 3, 67, 0
1, 38686, Note_on_c, 0, 37, 0
1, 38688, Note_on_c, 0, 49, 80
1, 38688, Note_on_c, 9, 42, 82
1, 38690, Note_on_c, 3, 64, 76
1, 38691, Note_on_c, 10, 49, 0
1, 38694, Note_on_c, 9, 42, 0
1, 38728, Note_on_c, 3, 64, 0
1, 38737, Note_on_c, 0, 57, 0
1, 38738, Note_on_c, 0, 64, 0
1, 38749, Note_on_c, 0, 67, 0
1, 38752, Note_on_c, 3, 57, 89
1, 38752, Lyric_t, "yeah. "
1, 38752, Note_on_c, 9, 38, 116
1, 38752, Lyric_t, ""
1, 38752, Lyric_t, "\015"
1, 38753, Note_on_c, 0, 57, 64
1, 38753, Note_on_c, 10, 49, 79
1, 38758, Note_on_c, 9, 38, 0
1, 38772, Pitch_bend_c, 3, 8452
1, 38776, Note_on_c, 0, 49, 0
1, 38776, Pitch_bend_c, 3, 9232
1, 38780, Note_on_c, 10, 49, 0
1, 38780, Note_on_c, 0, 57, 0
1, 38780, Pitch_bend_c, 3, 9752
1, 38782, Note_on_c, 4, 57, 65
1, 38782, Note_on_c, 4, 69, 70
1, 38782, Note_on_c, 4, 67, 75
1, 38782, Note_on_c, 4, 62, 75
1, 38783, Note_on_c, 2, 73, 0
1, 38783, Note_on_c, 1, 37, 0
1, 38784, Note_on_c, 1, 38, 106
1, 38784, Note_on_c, 9, 42, 35
1, 38784, Note_on_c, 9, 36, 91
1, 38784, Note_on_c, 2, 72, 51
1, 38784, Pitch_bend_c, 3, 10012
1, 38784, Note_on_c, 2, 79, 51
1, 38785, Note_on_c, 10, 50, 85
1, 38785, Note_on_c, 0, 50, 89
1, 38785, Note_on_c, 0, 38, 85
1, 38786, Pitch_bend_c, 3, 10402
1, 38786, Note_on_c, 0, 60, 96
1, 38786, Note_on_c, 0, 64, 96
1, 38786, Note_on_c, 0, 67, 81
1, 38787, Pitch_bend_c, 3, 10662
1, 38790, Note_on_c, 9, 36, 0
1, 38790, Note_on_c, 9, 42, 0
1, 38791, Pitch_bend_c, 3, 11052
1, 38795, Pitch_bend_c, 3, 11312
1, 38797, Pitch_bend_c, 3, 11052
1, 38799, Pitch_bend_c, 3, 9752
1, 38803, Pitch_bend_c, 3, 8192
1, 38815, Note_on_c, 3, 57, 0
1, 38816, Note_on_c, 3, 55, 83
1, 38845, Note_on_c, 10, 50, 0
1, 38848, Note_on_c, 9, 36, 91
1, 38849, Note_on_c, 10, 62, 85
1, 38854, Note_on_c, 9, 36, 0
1, 38875, Note_on_c, 4, 67, 0
1, 38878, Note_on_c, 10, 60, 63
1, 38880, Note_on_c, 10, 62, 0
1, 38880, Note_on_c, 9, 42, 73
1, 38886, Note_on_c, 9, 42, 0
1, 38901, Lyric_t, ""
1, 38901, Lyric_t, "\015"
1, 38902, Note_on_c, 0, 50, 0
1, 38910, Note_on_c, 10, 60, 0
1, 38910, Note_on_c, 10, 57, 63
1, 38916, Note_on_c, 4, 69, 0
1, 38920, Note_on_c, 4, 54, 20
1, 38937, Note_on_c, 4, 62, 0
1, 38937, Note_on_c, 4, 67, 25
1, 38938, Note_on_c, 10, 57, 0
1, 38941, Note_on_c, 10, 55, 74
1, 38944, Note_on_c, 9, 38, 118
1, 38950, Note_on_c, 9, 38, 0
1, 38964, Note_on_c, 4, 54, 0
1, 38970, Note_on_c, 4, 67, 0
1, 38974, Note_on_c, 10, 55, 0
1, 38974, Note_on_c, 4, 62, 50
1, 38975, Note_on_c, 3, 55, 0
1, 38975, Note_on_c, 4, 67, 65
1, 38976, Note_on_c, 9, 36, 100
1, 38976, Note_on_c, 9, 42, 42
1, 38978, Note_on_c, 0, 50, 100
1, 38978, Note_on_c, 4, 69, 57
1, 38978, Note_on_c, 10, 50, 83
1, 38982, Note_on_c, 9, 42, 0
1, 38982, Note_on_c, 9, 36, 0
1, 39003, Note_on_c, 4, 69, 0
1, 39004, Note_on_c, 4, 62, 0
1, 39007, Note_on_c, 4, 67, 0
1, 39008, Note_on_c, 9, 38, 107
1, 39014, Note_on_c, 9, 38, 0
1, 39018, Note_on_c, 0, 60, 0
1, 39020, Note_on_c, 10, 50, 0
1, 39026, Note_on_c, 0, 64, 0
1, 39026, Note_on_c, 0, 67, 0
1, 39036, Note_on_c, 4, 69, 84
1, 39037, Note_on_c, 10, 50, 67
1, 39037, Note_on_c, 4, 66, 70
1, 39038, Note_on_c, 4, 57, 0
1, 39039, Note_on_c, 0, 67, 90
1, 39040, Note_on_c, 4, 62, 67
1, 39040, Note_on_c, 4, 57, 69
1, 39040, Note_on_c, 9, 38, 108
1, 39041, Note_on_c, 0, 60, 112
1, 39041, Note_on_c, 0, 64, 108
1, 39042, Note_on_c, 0, 50, 0
1, 39046, Note_on_c, 9, 38, 0
1, 39062, Note_on_c, 0, 38, 0
1, 39068, Note_on_c, 10, 48, 53
1, 39070, Note_on_c, 4, 66, 0
1, 39072, Note_on_c, 9, 45, 86
1, 39072, Note_on_c, 9, 42, 88
1, 39074, Note_on_c, 0, 50, 87
1, 39077, Note_on_c, 4, 66, 45
1, 39078, Note_on_c, 9, 42, 0
1, 39078, Note_on_c, 9, 45, 0
1, 39078, Note_on_c, 10, 50, 0
1, 39094, Note_on_c, 4, 69, 0
1, 39098, Note_on_c, 10, 48, 0
1, 39100, Note_on_c, 4, 57, 0
1, 39100, Note_on_c, 4, 62, 0
1, 39101, Note_on_c, 10, 45, 70
1, 39102, Note_on_c, 4, 66, 0
1, 39104, Note_on_c, 9, 45, 83
1, 39109, Note_on_c, 0, 60, 0
1, 39110, Note_on_c, 9, 45, 0
1, 39123, Note_on_c, 0, 67, 0
1, 39126, Note_on_c, 0, 64, 0
1, 39127, Note_on_c, 10, 45, 0
1, 39131, Note_on_c, 10, 38, 80
1, 39136, Note_on_c, 9, 43, 80
1, 39138, Note_on_c, 0, 60, 70
1, 39139, Note_on_c, 0, 50, 0
1, 39142, Note_on_c, 9, 43, 0
1, 39151, Note_on_c, 0, 60, 0
1, 39160, Note_on_c, 10, 38, 0
1, 39167, Note_on_c, 2, 76, 0
1, 39167, Note_on_c, 2, 72, 0
1, 39167, Note_on_c, 2, 79, 0
1, 39167, Note_on_c, 2, 81, 0
1, 39167, Note_on_c, 1, 38, 0
1, 39168, Note_on_c, 2, 83, 51
1, 39168, Note_on_c, 9, 42, 20
1, 39168, Note_on_c, 2, 76, 51
1, 39168, Note_on_c, 1, 31, 99
1, 39168, Note_on_c, 9, 36, 105
1, 39168, Note_on_c, 2, 74, 51
1, 39168, Note_on_c, 2, 79, 51
1, 39170, Note_on_c, 4, 55, 42
1, 39170, Note_on_c, 0, 43, 99
1, 39170, Note_on_c, 10, 43, 89
1, 39170, Note_on_c, 0, 62, 96
1, 39170, Note_on_c, 0, 67, 82
1, 39170, Note_on_c, 0, 59, 89
1, 39171, Note_on_c, 4, 62, 66
1, 39173, Note_on_c, 4, 59, 51
1, 39174, Note_on_c, 9, 36, 0
1, 39174, Note_on_c, 9, 42, 0
1, 39174, Note_on_c, 4, 67, 51
1, 39198, Note_on_c, 3, 62, 98
1, 39198, Lyric_t, "But "
1, 39221, Note_on_c, 3, 62, 0
1, 39230, Note_on_c, 3, 62, 93
1, 39230, Lyric_t, "oh, "
1, 39255, Note_on_c, 4, 59, 0
1, 39256, Note_on_c, 3, 62, 0
1, 39260, Note_on_c, 4, 62, 0
1, 39264, Note_on_c, 9, 42, 97
1, 39264, Lyric_t, "what "
1, 39264, Note_on_c, 3, 71, 104
1, 39266, Note_on_c, 10, 43, 0
1, 39270, Note_on_c, 9, 42, 0
1, 39300, Note_on_c, 3, 71, 0
1, 39303, Note_on_c, 4, 67, 0
1, 39321, Note_on_c, 4, 53, 20
1, 39326, Note_on_c, 0, 59, 0
1, 39328, Note_on_c, 9, 36, 100
1, 39330, Note_on_c, 3, 70, 104
1, 39330, Lyric_t, "more "
1, 39334, Note_on_c, 9, 36, 0
1, 39334, Note_on_c, 0, 67, 0
1, 39350, Note_on_c, 0, 62, 0
1, 39358, Note_on_c, 0, 43, 0
1, 39358, Pitch_bend_c, 3, 8322
1, 39360, Pitch_bend_c, 3, 8582
1, 39360, Note_on_c, 9, 42, 57
1, 39360, Note_on_c, 9, 38, 116
1, 39362, Note_on_c, 0, 67, 89
1, 39362, Pitch_bend_c, 3, 8842
1, 39362, Note_on_c, 4, 62, 61
1, 39362, Note_on_c, 4, 59, 50
1, 39362, Note_on_c, 0, 59, 112
1, 39362, Note_on_c, 0, 62, 119
1, 39363, Pitch_bend_c, 3, 8972
1, 39365, Note_on_c, 4, 53, 0
1, 39366, Note_on_c, 9, 38, 0
1, 39366, Note_on_c, 9, 42, 0
1, 39366, Pitch_bend_c, 3, 9492
1, 39366, Note_on_c, 4, 67, 50
1, 39367, Pitch_bend_c, 3, 9622
1, 39370, Pitch_bend_c, 3, 9752
1, 39371, Pitch_bend_c, 3, 9882
1, 39373, Pitch_bend_c, 3, 10012
1, 39377, Pitch_bend_c, 3, 10142
1, 39379, Pitch_bend_c, 3, 10272
1, 39381, Pitch_bend_c, 3, 10402
1, 39382, Pitch_bend_c, 3, 10532
1, 39386, Pitch_bend_c, 3, 10662
1, 39390, Pitch_bend_c, 3, 10792
1, 39398, Pitch_bend_c, 3, 10922
1, 39411, Note_on_c, 4, 67, 0
1, 39420, Note_on_c, 4, 62, 0
1, 39422, Note_on_c, 4, 59, 0
1, 39423, Note_on_c, 4, 67, 85
1, 39423, Pitch_bend_c, 3, 10792
1, 39423, Note_on_c, 4, 62, 79
1, 39424, Note_on_c, 4, 55, 0
1, 39425, Pitch_bend_c, 3, 10662
1, 39426, Note_on_c, 3, 70, 0
1, 39426, Note_on_c, 4, 59, 73
1, 39426, Note_on_c, 4, 55, 63
1, 39427, Pitch_bend_c, 3, 10532
1, 39429, Pitch_bend_c, 3, 10402
1, 39430, Pitch_bend_c, 3, 9752
1, 39433, Pitch_bend_c, 3, 9232
1, 39434, Pitch_bend_c, 3, 8192
1, 39437, Note_on_c, 0, 59, 0
1, 39453, Note_on_c, 4, 67, 0
1, 39453, Note_on_c, 4, 62, 0
1, 39455, Note_on_c, 4, 55, 0
1, 39456, Note_on_c, 4, 59, 0
1, 39456, Note_on_c, 9, 42, 88
1, 39458, Note_on_c, 0, 43, 67
1, 39462, Note_on_c, 9, 42, 0
1, 39483, Note_on_c, 3, 69, 105
1, 39483, Lyric_t, "could "
1, 39512, Note_on_c, 3, 69, 0
1, 39514, Note_on_c, 0, 67, 0
1, 39515, Note_on_c, 0, 62, 0
1, 39516, Lyric_t, "I "
1, 39516, Note_on_c, 3, 67, 81
1, 39517, Note_on_c, 4, 46, 20
1, 39520, Note_on_c, 9, 38, 118
1, 39522, Note_on_c, 0, 59, 69
1, 39526, Note_on_c, 9, 38, 0
1, 39527, Note_on_c, 4, 41, 20
1, 39539, Note_on_c, 3, 67, 0
1, 39541, Note_on_c, 4, 41, 0
1, 39544, Note_on_c, 1, 31, 0
1, 39546, Note_on_c, 0, 59, 0
1, 39546, Note_on_c, 0, 43, 0
1, 39546, Note_on_c, 4, 46, 0
1, 39551, Note_on_c, 2, 74, 0
1, 39551, Note_on_c, 2, 83, 0
1, 39551, Note_on_c, 2, 76, 0
1, 39551, Note_on_c, 2, 79, 0
1, 39551, Note_on_c, 4, 52, 69
1, 39552, Note_on_c, 2, 74, 48
1, 39552, Note_on_c, 2, 76, 48
1, 39552, Note_on_c, 1, 28, 97
1, 39552, Note_on_c, 9, 42, 71
1, 39552, Note_on_c, 2, 71, 48
1, 39552, Note_on_c, 9, 36, 92
1, 39552, Note_on_c, 2, 79, 48
1, 39553, Note_on_c, 0, 67, 83
1, 39554, Note_on_c, 0, 59, 78
1, 39554, Note_on_c, 4, 59, 69
1, 39554, Note_on_c, 4, 57, 63
1, 39554, Note_on_c, 4, 64, 54
1, 39554, Note_on_c, 0, 40, 94
1, 39554, Note_on_c, 0, 64, 93
1, 39557, Lyric_t, "do "
1, 39557, Note_on_c, 3, 69, 103
1, 39557, Lyric_t, ""
1, 39557, Lyric_t, "\015"
1, 39558, Note_on_c, 9, 36, 0
1, 39558, Note_on_c, 9, 42, 0
1, 39569, Pitch_bend_c, 3, 8322
1, 39571, Pitch_bend_c, 3, 8712
1, 39573, Pitch_bend_c, 3, 8842
1, 39574, Pitch_bend_c, 3, 9102
1, 39577, Pitch_bend_c, 3, 9362
1, 39578, Pitch_bend_c, 3, 9752
1, 39581, Pitch_bend_c, 3, 10012
1, 39582, Pitch_bend_c, 3, 10142
1, 39584, Pitch_bend_c, 3, 10402
1, 39586, Pitch_bend_c, 3, 10532
1, 39590, Pitch_bend_c, 3, 10402
1, 39592, Pitch_bend_c, 3, 8192
1, 39610, Note_on_c, 3, 69, 0
1, 39614, Note_on_c, 3, 67, 82
1, 39616, Note_on_c, 9, 36, 100
1, 39622, Note_on_c, 9, 36, 0
1, 39648, Note_on_c, 9, 42, 79
1, 39654, Note_on_c, 9, 42, 0
1, 39655, Note_on_c, 3, 67, 0
1, 39682, Lyric_t, "just "
1, 39682, Note_on_c, 3, 64, 94
1, 39683, Note_on_c, 4, 64, 0
1, 39688, Note_on_c, 4, 64, 38
1, 39696, Note_on_c, 4, 59, 0
1, 39703, Note_on_c, 3, 64, 0
1, 39706, Note_on_c, 4, 59, 42
1, 39710, Note_on_c, 0, 59, 0
1, 39710, Note_on_c, 0, 64, 0
1, 39712, Note_on_c, 9, 36, 91
1, 39713, Note_on_c, 3, 62, 81
1, 39713, Lyric_t, "to "
1, 39718, Note_on_c, 9, 36, 0
1, 39721, Note_on_c, 0, 67, 0
1, 39742, Note_on_c, 3, 62, 0
1, 39744, Note_on_c, 9, 38, 118
1, 39744, Note_on_c, 0, 64, 102
1, 39744, Note_on_c, 9, 42, 69
1, 39744, Note_on_c, 0, 59, 106
1, 39745, Note_on_c, 0, 67, 86
1, 39746, Note_on_c, 3, 64, 104
1, 39746, Lyric_t, "keep "
1, 39750, Note_on_c, 9, 42, 0
1, 39750, Note_on_c, 9, 38, 0
1, 39787, Note_on_c, 4, 64, 0
1, 39798, Note_on_c, 3, 64, 0
1, 39800, Note_on_c, 4, 57, 0
1, 39802, Note_on_c, 4, 59, 0
1, 39803, Note_on_c, 4, 64, 88
1, 39805, Note_on_c, 4, 59, 85
1, 39806, Note_on_c, 4, 52, 0
1, 39807, Lyric_t, "her "
1, 39807, Note_on_c, 4, 57, 77
1, 39807, Note_on_c, 3, 67, 100
1, 39808, Note_on_c, 4, 52, 49
1, 39810, Note_on_c, 0, 40, 0
1, 39840, Note_on_c, 9, 42, 77
1, 39841, Note_on_c, 0, 40, 71
1, 39843, Note_on_c, 3, 67, 0
1, 39846, Note_on_c, 9, 42, 0
1, 39869, Note_on_c, 4, 57, 0
1, 39871, Note_on_c, 1, 28, 0
1, 39872, Note_on_c, 1, 34, 80
1, 39894, Note_on_c, 4, 64, 0
1, 39896, Note_on_c, 0, 59, 0
1, 39897, Note_on_c, 4, 52, 0
1, 39901, Lyric_t, ""
1, 39901, Lyric_t, "\015"
1, 39901, Note_on_c, 3, 57, 100
1, 39901, Lyric_t, "warm "
1, 39903, Note_on_c, 1, 34, 0
1, 39903, Note_on_c, 0, 55, 72
1, 39904, Note_on_c, 0, 64, 0
1, 39904, Note_on_c, 1, 35, 89
1, 39905, Note_on_c, 4, 59, 0
1, 39913, Note_on_c, 0, 67, 0
1, 39925, Note_on_c, 0, 40, 0
1, 39928, Pitch_bend_c, 3, 8452
1, 39930, Pitch_bend_c, 3, 8582
1, 39932, Pitch_bend_c, 3, 8712
1, 39934, Pitch_bend_c, 3, 8972
1, 39935, Note_on_c, 2, 76, 0
1, 39935, Note_on_c, 2, 74, 0
1, 39935, Note_on_c, 2, 79, 0
1, 39935, Note_on_c, 1, 35, 0
1, 39935, Note_on_c, 2, 71, 0
1, 39935, Note_on_c, 4, 48, 57
1, 39935, Note_on_c, 0, 36, 80
1, 39936, Note_on_c, 9, 42, 55
1, 39936, Pitch_bend_c, 3, 9102
1, 39936, Note_on_c, 2, 77, 47
1, 39936, Note_on_c, 1, 36, 93
1, 39936, Note_on_c, 2, 70, 47
1, 39936, Note_on_c, 0, 48, 85
1, 39936, Note_on_c, 2, 74, 47
1, 39936, Note_on_c, 0, 58, 67
1, 39936, Note_on_c, 0, 65, 71
1, 39936, Note_on_c, 2, 67, 47
1, 39936, Note_on_c, 9, 36, 105
1, 39936, Note_on_c, 8, 58, 64
1, 39936, Note_on_c, 0, 62, 82
1, 39936, Note_on_c, 8, 65, 63
1, 39936, Note_on_c, 8, 62, 70
1, 39938, Note_on_c, 4, 53, 73
1, 39939, Pitch_bend_c, 3, 9232
1, 39941, Note_on_c, 4, 53, 0
1, 39942, Note_on_c, 9, 36, 0
1, 39942, Note_on_c, 9, 42, 0
1, 39942, Pitch_bend_c, 3, 9492
1, 39942, Note_on_c, 4, 53, 20
1, 39942, Note_on_c, 4, 58, 53
1, 39942, Note_on_c, 4, 62, 47
1, 39946, Pitch_bend_c, 3, 9622
1, 39947, Pitch_bend_c, 3, 9752
1, 39951, Pitch_bend_c, 3, 9882
1, 39955, Pitch_bend_c, 3, 10012
1, 39958, Pitch_bend_c, 3, 10142
1, 39995, Pitch_bend_c, 3, 10012
1, 39997, Pitch_bend_c, 3, 9882
1, 39999, Pitch_bend_c, 3, 9622
1, 40001, Pitch_bend_c, 3, 8972
1, 40003, Pitch_bend_c, 3, 8192
1, 40026, Note_on_c, 4, 58, 0
1, 40030, Note_on_c, 3, 57, 0
1, 40031, Note_on_c, 3, 55, 81
1, 40032, Note_on_c, 9, 42, 82
1, 40034, Note_on_c, 4, 62, 0
1, 40038, Note_on_c, 9, 42, 0
1, 40095, Note_on_c, 4, 46, 20
1, 40096, Note_on_c, 9, 36, 97
1, 40099, Note_on_c, 0, 55, 0
1, 40102, Note_on_c, 9, 36, 0
1, 40108, Note_on_c, 0, 58, 0
1, 40112, Note_on_c, 0, 65, 0
1, 40116, Note_on_c, 0, 62, 0
1, 40123, Note_on_c, 4, 48, 0
1, 40125, Note_on_c, 4, 46, 0
1, 40127, Note_on_c, 0, 58, 77
1, 40127, Note_on_c, 0, 65, 85
1, 40128, Note_on_c, 0, 55, 87
1, 40128, Note_on_c, 9, 42, 69
1, 40128, Note_on_c, 0, 62, 86
1, 40128, Note_on_c, 9, 38, 118
1, 40129, Note_on_c, 4, 53, 0
1, 40130, Note_on_c, 4, 53, 25
1, 40134, Note_on_c, 9, 38, 0
1, 40134, Note_on_c, 9, 42, 0
1, 40153, Note_on_c, 4, 49, 20
1, 40183, Note_on_c, 4, 49, 0
1, 40185, Note_on_c, 0, 36, 0
1, 40194, Note_on_c, 4, 62, 83
1, 40195, Note_on_c, 4, 53, 0
1, 40196, Note_on_c, 4, 53, 63
1, 40197, Note_on_c, 4, 58, 75
1, 40199, Note_on_c, 4, 48, 51
1, 40205, Note_on_c, 0, 48, 0
1, 40209, Note_on_c, 4, 48, 0
1, 40214, Note_on_c, 4, 58, 0
1, 40214, Note_on_c, 4, 62, 0
1, 40215, Note_on_c, 4, 53, 0
1, 40224, Note_on_c, 9, 42, 91
1, 40230, Note_on_c, 9, 42, 0
1, 40266, Note_on_c, 3, 55, 0
1, 40288, Note_on_c, 9, 38, 118
1, 40289, Note_on_c, 0, 36, 82
1, 40289, Lyric_t, ""
1, 40289, Lyric_t, "\015"
1, 40290, Note_on_c, 4, 42, 20
1, 40290, Note_on_c, 4, 46, 20
1, 40294, Note_on_c, 9, 38, 0
1, 40306, Note_on_c, 0, 58, 0
1, 40308, Note_on_c, 0, 62, 0
1, 40310, Note_on_c, 0, 65, 0
1, 40310, Note_on_c, 0, 55, 0
1, 40319, Note_on_c, 4, 46, 0
1, 40320, Note_on_c, 4, 42, 0
1, 40320, Note_on_c, 9, 36, 89
1, 40320, Note_on_c, 9, 42, 59
1, 40320, Note_on_c, 0, 48, 112
1, 40322, Note_on_c, 4, 48, 57
1, 40325, Note_on_c, 4, 58, 63
1, 40325, Note_on_c, 4, 53, 57
1, 40326, Note_on_c, 9, 42, 0
1, 40326, Note_on_c, 9, 36, 0
1, 40326, Note_on_c, 4, 62, 67
1, 40326, Note_on_c, 4, 67, 22
1, 40383, Note_on_c, 0, 62, 94
1, 40383, Note_on_c, 0, 65, 86
1, 40383, Note_on_c, 0, 58, 79
1, 40384, Note_on_c, 9, 36, 97
1, 40385, Note_on_c, 0, 55, 89
1, 40390, Note_on_c, 9, 36, 0
1, 40409, Note_on_c, 4, 48, 0
1, 40413, Note_on_c, 4, 58, 0
1, 40414, Note_on_c, 4, 48, 38
1, 40416, Note_on_c, 9, 42, 91
1, 40422, Note_on_c, 9, 42, 0
1, 40426, Note_on_c, 4, 67, 0
1, 40437, Note_on_c, 0, 48, 0
1, 40448, Note_on_c, 4, 62, 0
1, 40474, Note_on_c, 4, 49, 20
1, 40477, Note_on_c, 0, 36, 0
1, 40480, Note_on_c, 9, 36, 91
1, 40481, Note_on_c, 0, 48, 82
1, 40482, Note_on_c, 4, 58, 37
1, 40486, Note_on_c, 9, 36, 0
1, 40509, Note_on_c, 4, 48, 0
1, 40510, Note_on_c, 4, 58, 0
1, 40510, Note_on_c, 4, 53, 0
1, 40512, Note_on_c, 9, 38, 118
1, 40512, Note_on_c, 9, 42, 36
1, 40514, Note_on_c, 4, 53, 39
1, 40514, Note_on_c, 4, 48, 58
1, 40514, Note_on_c, 0, 36, 83
1, 40518, Note_on_c, 9, 42, 0
1, 40518, Note_on_c, 9, 38, 0
1, 40518, Note_on_c, 4, 58, 46
1, 40528, Note_on_c, 4, 49, 0
1, 40551, Note_on_c, 0, 58, 0
1, 40559, Note_on_c, 0, 65, 0
1, 40561, Note_on_c, 0, 55, 0
1, 40563, Note_on_c, 0, 62, 0
1, 40569, Note_on_c, 4, 58, 0
1, 40574, Note_on_c, 0, 65, 85
1, 40574, Note_on_c, 0, 58, 77
1, 40574, Note_on_c, 0, 62, 99
1, 40574, Note_on_c, 0, 55, 88
1, 40575, Note_on_c, 4, 53, 0
1, 40576, Note_on_c, 4, 62, 80
1, 40578, Note_on_c, 4, 58, 76
1, 40579, Note_on_c, 0, 48, 0
1, 40579, Note_on_c, 4, 53, 63
1, 40602, Note_on_c, 0, 36, 0
1, 40607, Note_on_c, 0, 48, 72
1, 40608, Note_on_c, 9, 42, 85
1, 40612, Note_on_c, 1, 36, 0
1, 40613, Note_on_c, 4, 53, 0
1, 40614, Note_on_c, 9, 42, 0
1, 40614, Note_on_c, 4, 53, 20
1, 40622, Note_on_c, 0, 55, 0
1, 40634, Note_on_c, 0, 48, 0
1, 40662, Note_on_c, 4, 48, 0
1, 40665, Note_on_c, 4, 62, 0
1, 40666, Note_on_c, 4, 58, 0
1, 40672, Note_on_c, 4, 53, 0
1, 40672, Note_on_c, 2, 70, 0
1, 40672, Note_on_c, 1, 36, 87
1, 40673, Note_on_c, 0, 55, 66
1, 40673, Lyric_t, "than "
1, 40673, Note_on_c, 3, 62, 95
1, 40674, Note_on_c, 0, 58, 0
1, 40678, Note_on_c, 0, 62, 0
1, 40686, Note_on_c, 0, 65, 0
1, 40692, Note_on_c, 3, 62, 0
1, 40703, Note_on_c, 2, 74, 0
1, 40703, Note_on_c, 8, 65, 0
1, 40703, Note_on_c, 8, 62, 0
1, 40703, Note_on_c, 2, 77, 0
1, 40703, Note_on_c, 1, 36, 0
1, 40703, Note_on_c, 8, 58, 0
1, 40703, Note_on_c, 0, 49, 84
1, 40703, Note_on_c, 0, 37, 106
1, 40703, Note_on_c, 0, 58, 69
1, 40703, Note_on_c, 0, 64, 82
1, 40703, Note_on_c, 0, 61, 84
1, 40704, Note_on_c, 2, 67, 0
1, 40704, Note_on_c, 8, 67, 73
1, 40704, Note_on_c, 9, 42, 67
1, 40704, Note_on_c, 8, 64, 68
1, 40704, Note_on_c, 8, 61, 87
1, 40704, Note_on_c, 2, 73, 51
1, 40704, Note_on_c, 1, 37, 87
1, 40704, Note_on_c, 2, 70, 51
1, 40704, Note_on_c, 2, 76, 51
1, 40704, Note_on_c, 9, 36, 105
1, 40704, Note_on_c, 2, 79, 51
1, 40706, Lyric_t, "burn, "
1, 40706, Note_on_c, 3, 64, 108
1, 40707, Note_on_c, 4, 55, 55
1, 40710, Note_on_c, 9, 36, 0
1, 40710, Note_on_c, 9, 42, 0
1, 40710, Note_on_c, 4, 64, 64
1, 40710, Note_on_c, 4, 61, 62
1, 40711, Note_on_c, 4, 70, 30
1, 40762, Note_on_c, 3, 64, 0
1, 40770, Note_on_c, 3, 67, 95
1, 40770, Lyric_t, "burn, "
1, 40796, Note_on_c, 4, 64, 0
1, 40800, Note_on_c, 9, 42, 94
1, 40806, Note_on_c, 9, 42, 0
1, 40840, Note_on_c, 4, 70, 0
1, 40846, Note_on_c, 3, 67, 0
1, 40855, Note_on_c, 4, 61, 0
1, 40858, Note_on_c, 4, 55, 0
1, 40859, Note_on_c, 4, 55, 20
1, 40863, Lyric_t, "burn, "
1, 40863, Note_on_c, 3, 69, 103
1, 40864, Note_on_c, 9, 36, 105
1, 40870, Note_on_c, 9, 36, 0
1, 40877, Note_on_c, 0, 55, 0
1, 40879, Note_on_c, 0, 58, 0
1, 40883, Note_on_c, 0, 64, 0
1, 40883, Note_on_c, 0, 61, 0
1, 40895, Note_on_c, 0, 55, 93
1, 40895, Note_on_c, 0, 58, 83
1, 40895, Note_on_c, 0, 61, 87
1, 40895, Note_on_c, 0, 64, 93
1, 40896, Note_on_c, 9, 42, 48
1, 40896, Note_on_c, 9, 38, 118
1, 40898, Note_on_c, 4, 55, 0
1, 40898, Note_on_c, 4, 61, 32
1, 40899, Note_on_c, 4, 55, 20
1, 40901, Note_on_c, 4, 64, 50
1, 40902, Note_on_c, 9, 38, 0
1, 40902, Note_on_c, 9, 42, 0
1, 40932, Note_on_c, 0, 49, 0
1, 40947, Note_on_c, 3, 69, 0
1, 40952, Note_on_c, 4, 64, 0
1, 40955, Note_on_c, 4, 61, 0
1, 40957, Note_on_c, 4, 55, 0
1, 40958, Note_on_c, 4, 70, 81
1, 40958, Lyric_t, "burn "
1, 40958, Note_on_c, 3, 70, 100
1, 40958, Note_on_c, 4, 64, 79
1, 40960, Note_on_c, 4, 61, 73
1, 40962, Note_on_c, 4, 55, 66
1, 40976, Pitch_bend_c, 3, 8322
1, 40978, Pitch_bend_c, 3, 8582
1, 40980, Pitch_bend_c, 3, 8712
1, 40982, Pitch_bend_c, 3, 8972
1, 40984, Pitch_bend_c, 3, 9102
1, 40986, Note_on_c, 0, 37, 0
1, 40986, Pitch_bend_c, 3, 9492
1, 40987, Note_on_c, 4, 64, 0
1, 40987, Note_on_c, 4, 70, 0
1, 40988, Pitch_bend_c, 3, 9622
1, 40990, Note_on_c, 4, 61, 0
1, 40990, Pitch_bend_c, 3, 9882
1, 40990, Note_on_c, 0, 49, 55
1, 40992, Note_on_c, 9, 42, 88
1, 40992, Pitch_bend_c, 3, 10142
1, 40993, Note_on_c, 4, 61, 38
1, 40994, Note_on_c, 4, 70, 46
1, 40994, Note_on_c, 4, 64, 56
1, 40994, Pitch_bend_c, 3, 10272
1, 40995, Pitch_bend_c, 3, 10402
1, 40998, Note_on_c, 9, 42, 0
1, 40999, Pitch_bend_c, 3, 10792
1, 41002, Pitch_bend_c, 3, 10922
1, 41003, Pitch_bend_c, 3, 11052
1, 41007, Pitch_bend_c, 3, 11442
1, 41009, Pitch_bend_c, 3, 11702
1, 41017, Pitch_bend_c, 3, 11572
1, 41018, Pitch_bend_c, 3, 10012
1, 41021, Pitch_bend_c, 3, 8192
1, 41023, Note_on_c, 4, 70, 0
1, 41023, Note_on_c, 4, 61, 0
1, 41025, Note_on_c, 4, 64, 0
1, 41029, Note_on_c, 4, 55, 0
1, 41031, Note_on_c, 0, 55, 0
1, 41034, Note_on_c, 3, 70, 0
1, 41053, Lyric_t, "down "
1, 41053, Lyric_t, ""
1, 41053, Lyric_t, "\015"
1, 41053, Note_on_c, 3, 67, 95
1, 41055, Note_on_c, 4, 46, 20
1, 41056, Note_on_c, 9, 38, 113
1, 41058, Note_on_c, 0, 55, 65
1, 41059, Note_on_c, 0, 58, 0
1, 41062, Note_on_c, 9, 38, 0
1, 41070, Note_on_c, 4, 46, 0
1, 41075, Note_on_c, 0, 61, 0
1, 41078, Note_on_c, 0, 49, 0
1, 41079, Note_on_c, 0, 64, 0
1, 41080, Pitch_bend_c, 3, 8452
1, 41082, Pitch_bend_c, 3, 8712
1, 41084, Pitch_bend_c, 3, 8842
1, 41086, Pitch_bend_c, 3, 9102
1, 41087, Note_on_c, 2, 73, 0
1, 41087, Note_on_c, 8, 61, 0
1, 41087, Note_on_c, 8, 64, 0
1, 41087, Note_on_c, 2, 76, 0
1, 41087, Note_on_c, 2, 70, 0
1, 41087, Note_on_c, 1, 37, 0
1, 41088, Note_on_c, 8, 62, 60
1, 41088, Pitch_bend_c, 3, 9232
1, 41088, Note_on_c, 1, 38, 97
1, 41088, Note_on_c, 2, 74, 44
1, 41088, Note_on_c, 2, 71, 44
1, 41088, Note_on_c, 9, 36, 80
1, 41088, Note_on_c, 9, 42, 85
1, 41088, Note_on_c, 8, 59, 76
1, 41089, Note_on_c, 0, 38, 82
1, 41089, Note_on_c, 0, 62, 87
1, 41090, Note_on_c, 4, 55, 63
1, 41090, Note_on_c, 0, 59, 86
1, 41090, Note_on_c, 0, 50, 87
1, 41091, Pitch_bend_c, 3, 8712
1, 41091, Note_on_c, 4, 59, 70
1, 41093, Note_on_c, 4, 62, 68
1, 41094, Note_on_c, 9, 42, 0
1, 41094, Note_on_c, 9, 36, 0
1, 41094, Pitch_bend_c, 3, 8452
1, 41094, Note_on_c, 4, 67, 25
1, 41095, Pitch_bend_c, 3, 8192
1, 41147, Note_on_c, 3, 67, 0
1, 41148, Note_on_c, 3, 64, 83
1, 41152, Note_on_c, 9, 36, 92
1, 41158, Note_on_c, 9, 36, 0
1, 41168, Pitch_bend_c, 3, 8582
1, 41170, Pitch_bend_c, 3, 8712
1, 41172, Pitch_bend_c, 3, 8972
1, 41174, Pitch_bend_c, 3, 9232
1, 41176, Pitch_bend_c, 3, 9622
1, 41180, Pitch_bend_c, 3, 9232
1, 41182, Pitch_bend_c, 3, 8192
1, 41184, Note_on_c, 9, 42, 97
1, 41186, Note_on_c, 4, 59, 0
1, 41188, Note_on_c, 4, 62, 0
1, 41189, Note_on_c, 4, 59, 27
1, 41190, Note_on_c, 9, 42, 0
1, 41190, Note_on_c, 4, 62, 30
1, 41207, Note_on_c, 0, 50, 0
1, 41218, Note_on_c, 4, 59, 0
1, 41220, Note_on_c, 4, 62, 0
1, 41227, Note_on_c, 4, 67, 0
1, 41231, Note_on_c, 3, 64, 0
1, 41246, Note_on_c, 0, 55, 0
1, 41246, Note_on_c, 4, 55, 0
1, 41246, Lyric_t, "the "
1, 41246, Note_on_c, 3, 64, 95
1, 41248, Note_on_c, 9, 36, 104
1, 41253, Note_on_c, 0, 62, 0
1, 41254, Note_on_c, 0, 59, 0
1, 41254, Note_on_c, 9, 36, 0
1, 41274, Note_on_c, 3, 64, 0
1, 41279, Note_on_c, 2, 79, 0
1, 41279, Note_on_c, 8, 67, 0
1, 41279, Note_on_c, 2, 71, 0
1, 41279, Note_on_c, 8, 59, 0
1, 41280, Note_on_c, 2, 78, 45
1, 41280, Note_on_c, 9, 42, 57
1, 41280, Note_on_c, 8, 57, 71
1, 41280, Note_on_c, 8, 66, 68
1, 41280, Note_on_c, 9, 38, 116
1, 41281, Note_on_c, 4, 54, 61
1, 41282, Note_on_c, 4, 57, 81
1, 41282, Note_on_c, 0, 62, 106
1, 41282, Note_on_c, 0, 57, 97
1, 41282, Note_on_c, 0, 50, 102
1, 41282, Note_on_c, 0, 66, 93
1, 41282, Note_on_c, 4, 62, 73
1, 41285, Lyric_t, "mis"
1, 41285, Note_on_c, 4, 66, 59
1, 41285, Note_on_c, 3, 67, 85
1, 41286, Note_on_c, 9, 38, 0
1, 41286, Note_on_c, 9, 42, 0
1, 41290, Note_on_c, 0, 38, 0
1, 41346, Note_on_c, 3, 55, 90
1, 41346, Lyric_t, "sion "
1, 41348, Note_on_c, 3, 67, 0
1, 41376, Note_on_c, 0, 38, 76
1, 41376, Note_on_c, 9, 42, 101
1, 41378, Note_on_c, 4, 66, 0
1, 41378, Note_on_c, 4, 57, 0
1, 41382, Note_on_c, 9, 42, 0
1, 41384, Note_on_c, 4, 62, 0
1, 41386, Note_on_c, 3, 55, 0
1, 41398, Note_on_c, 0, 38, 0
1, 41398, Note_on_c, 4, 54, 0
1, 41418, Note_on_c, 0, 57, 0
1, 41422, Note_on_c, 0, 62, 0
1, 41438, Note_on_c, 0, 66, 0
1, 41439, Note_on_c, 3, 57, 105
1, 41439, Lyric_t, "walls. "
1, 41439, Lyric_t, ""
1, 41439, Lyric_t, "\015"
1, 41442, Note_on_c, 0, 57, 63
1, 41443, Note_on_c, 4, 60, 43
1, 41444, Note_on_c, 4, 55, 22
1, 41458, Note_on_c, 0, 50, 0
1, 41464, Note_on_c, 0, 57, 0
1, 41470, Note_on_c, 4, 55, 0
1, 41471, Note_on_c, 8, 57, 0
1, 41471, Note_on_c, 1, 38, 0
1, 41471, Note_on_c, 2, 74, 0
1, 41471, Note_on_c, 8, 62, 0
1, 41471, Note_on_c, 8, 66, 0
1, 41471, Note_on_c, 2, 78, 0
1, 41472, Note_on_c, 9, 36, 105
1, 41472, Note_on_c, 8, 64, 76
1, 41472, Note_on_c, 2, 79, 46
1, 41472, Note_on_c, 2, 69, 46
1, 41472, Note_on_c, 1, 36, 95
1, 41472, Note_on_c, 8, 67, 61
1, 41472, Note_on_c, 8, 60, 77
1, 41472, Note_on_c, 2, 72, 46
1, 41472, Note_on_c, 2, 76, 46
1, 41472, Note_on_c, 9, 42, 60
1, 41473, Note_on_c, 0, 67, 73
1, 41474, Note_on_c, 4, 60, 0
1, 41474, Note_on_c, 0, 48, 110
1, 41474, Note_on_c, 0, 60, 82
1, 41474, Note_on_c, 0, 64, 92
1, 41474, Note_on_c, 4, 55, 76
1, 41475, Note_on_c, 4, 60, 77
1, 41477, Note_on_c, 4, 64, 79
1, 41478, Note_on_c, 9, 42, 0
1, 41478, Note_on_c, 9, 36, 0
1, 41565, Note_on_c, 4, 64, 0
1, 41567, Note_on_c, 4, 60, 0
1, 41568, Note_on_c, 9, 42, 101
1, 41574, Note_on_c, 9, 42, 0
1, 41574, Note_on_c, 4, 55, 0
1, 41574, Note_on_c, 4, 59, 26
1, 41585, Note_on_c, 3, 57, 0
1, 41594, Note_on_c, 0, 60, 0
1, 41595, Note_on_c, 0, 48, 0
1, 41601, Note_on_c, 4, 59, 0
1, 41602, Note_on_c, 0, 64, 0
1, 41602, Note_on_c, 3, 57, 100
1, 41605, Note_on_c, 0, 67, 0
1, 41610, Lyric_t, ""
1, 41610, Lyric_t, "\015"
1, 41618, Pitch_bend_c, 3, 8322
1, 41619, Pitch_bend_c, 3, 8972
1, 41620, Note_on_c, 2, 72, 0
1, 41622, Note_on_c, 1, 36, 0
1, 41622, Pitch_bend_c, 3, 9752
1, 41623, Pitch_bend_c, 3, 10012
1, 41624, Note_on_c, 8, 60, 0
1, 41625, Note_on_c, 4, 67, 86
1, 41626, Pitch_bend_c, 3, 10922
1, 41627, Note_on_c, 4, 62, 83
1, 41627, Pitch_bend_c, 3, 11572
1, 41628, Note_on_c, 8, 64, 0
1, 41628, Note_on_c, 4, 59, 79
1, 41629, Pitch_bend_c, 3, 12092
1, 41630, Note_on_c, 0, 59, 97
1, 41630, Note_on_c, 0, 62, 104
1, 41630, Note_on_c, 0, 67, 83
1, 41630, Note_on_c, 4, 55, 67
1, 41630, Note_on_c, 0, 47, 89
1, 41631, Note_on_c, 4, 50, 63
1, 41631, Pitch_bend_c, 3, 12612
1, 41632, Note_on_c, 2, 74, 48
1, 41632, Note_on_c, 1, 35, 94
1, 41632, Note_on_c, 9, 36, 97
1, 41632, Note_on_c, 8, 59, 79
1, 41632, Note_on_c, 2, 71, 48
1, 41632, Note_on_c, 8, 62, 83
1, 41633, Pitch_bend_c, 3, 12742
1, 41636, Note_on_c, 2, 76, 0
1, 41636, Note_on_c, 2, 69, 0
1, 41637, Pitch_bend_c, 3, 11052
1, 41638, Note_on_c, 9, 36, 0
1, 41638, Pitch_bend_c, 3, 9102
1, 41641, Pitch_bend_c, 3, 8192
1, 41660, Note_on_c, 4, 50, 0
1, 41662, Note_on_c, 3, 57, 0
1, 41663, Note_on_c, 3, 55, 85
1, 41664, Note_on_c, 4, 67, 0
1, 41664, Note_on_c, 9, 42, 71
1, 41664, Note_on_c, 9, 38, 118
1, 41670, Note_on_c, 9, 38, 0
1, 41670, Note_on_c, 9, 42, 0
1, 41670, Note_on_c, 4, 67, 23
1, 41690, Note_on_c, 0, 59, 0
1, 41694, Note_on_c, 3, 55, 0
1, 41694, Note_on_c, 3, 52, 77
1, 41696, Note_on_c, 0, 67, 0
1, 41700, Note_on_c, 4, 67, 0
1, 41702, Note_on_c, 1, 35, 0
1, 41716, Note_on_c, 4, 62, 0
1, 41717, Note_on_c, 0, 62, 0
1, 41717, Note_on_c, 3, 52, 0
1, 41718, Note_on_c, 4, 59, 0
1, 41718, Note_on_c, 4, 55, 0
1, 41721, Note_on_c, 0, 47, 0
1, 41726, Note_on_c, 3, 55, 98
1, 41748, Note_on_c, 8, 59, 0
1, 41752, Note_on_c, 8, 62, 0
1, 41757, Note_on_c, 2, 74, 0
1, 41759, Note_on_c, 2, 71, 0
1, 41760, Note_on_c, 9, 42, 105
1, 41760, Note_on_c, 8, 60, 70
1, 41760, Note_on_c, 8, 57, 69
1, 41760, Note_on_c, 2, 76, 50
1, 41760, Note_on_c, 1, 33, 96
1, 41760, Note_on_c, 2, 72, 50
1, 41760, Note_on_c, 2, 69, 50
1, 41761, Note_on_c, 4, 60, 44
1, 41762, Note_on_c, 0, 57, 93
1, 41762, Note_on_c, 0, 64, 85
1, 41762, Note_on_c, 0, 60, 102
1, 41762, Note_on_c, 0, 45, 82
1, 41762, Note_on_c, 4, 57, 73
1, 41762, Note_on_c, 0, 67, 83
1, 41765, Note_on_c, 4, 64, 75
1, 41766, Note_on_c, 9, 42, 0
1, 41766, Note_on_c, 4, 69, 35
1, 41834, Note_on_c, 0, 64, 0
1, 41837, Note_on_c, 0, 60, 0
1, 41838, Note_on_c, 0, 45, 0
1, 41841, Note_on_c, 0, 67, 0
1, 41845, Note_on_c, 0, 57, 0
1, 41850, Note_on_c, 4, 69, 0
1, 41854, Note_on_c, 4, 64, 0
1, 41856, Note_on_c, 9, 36, 105
1, 41856, Note_on_c, 9, 42, 88
1, 41858, Note_on_c, 4, 60, 0
1, 41862, Note_on_c, 9, 42, 0
1, 41862, Note_on_c, 9, 36, 0
1, 41867, Note_on_c, 1, 33, 0
1, 41879, Note_on_c, 4, 57, 0
1, 41885, Note_on_c, 3, 55, 0
1, 41904, Note_on_c, 2, 76, 0
1, 41908, Note_on_c, 2, 79, 0
1, 41908, Note_on_c, 2, 69, 0
1, 41908, Note_on_c, 2, 72, 0
1, 41912, Note_on_c, 4, 67, 88
1, 41914, Note_on_c, 4, 62, 81
1, 41915, Note_on_c, 4, 59, 79
1, 41916, Note_on_c, 4, 55, 73
1, 41918, Note_on_c, 8, 60, 0
1, 41919, Note_on_c, 0, 43, 76
1, 41919, Note_on_c, 0, 62, 102
1, 41920, Note_on_c, 8, 57, 0
1, 41920, Note_on_c, 9, 36, 83
1, 41920, Note_on_c, 1, 31, 98
1, 41920, Note_on_c, 2, 79, 50
1, 41920, Note_on_c, 2, 74, 50
1, 41920, Note_on_c, 8, 59, 79
1, 41920, Note_on_c, 8, 62, 77
1, 41922, Note_on_c, 2, 71, 50
1, 41926, Note_on_c, 9, 36, 0
1, 41948, Note_on_c, 0, 67, 87
1, 41950, Lyric_t, "Now "
1, 41950, Note_on_c, 3, 64, 105
1, 41952, Note_on_c, 0, 55, 86
1, 41952, Note_on_c, 9, 42, 105
1, 41954, Note_on_c, 0, 59, 83
1, 41955, Note_on_c, 0, 71, 100
1, 41958, Note_on_c, 9, 42, 0
1, 41995, Note_on_c, 0, 62, 0
1, 42012, Note_on_c, 3, 64, 0
1, 42013, Note_on_c, 0, 74, 87
1, 42013, Note_on_c, 0, 62, 74
1, 42014, Lyric_t, "ev"
1, 42014, Note_on_c, 3, 62, 93
1, 42015, Note_on_c, 0, 71, 0
1, 42016, Note_on_c, 9, 36, 100
1, 42022, Note_on_c, 9, 36, 0
1, 42036, Note_on_c, 0, 67, 0
1, 42041, Note_on_c, 4, 67, 0
1, 42042, Note_on_c, 3, 62, 0
1, 42043, Note_on_c, 4, 62, 0
1, 42044, Note_on_c, 4, 59, 0
1, 42048, Lyric_t, "'ry"
1, 42048, Note_on_c, 9, 38, 118
1, 42048, Note_on_c, 3, 59, 102
1, 42048, Note_on_c, 9, 42, 65
1, 42049, Note_on_c, 4, 59, 70
1, 42050, Note_on_c, 0, 59, 0
1, 42050, Note_on_c, 4, 62, 83
1, 42050, Note_on_c, 4, 67, 85
1, 42050, Note_on_c, 0, 79, 94
1, 42054, Note_on_c, 9, 42, 0
1, 42054, Note_on_c, 9, 38, 0
1, 42054, Note_on_c, 0, 67, 87
1, 42102, Note_on_c, 0, 79, 0
1, 42103, Note_on_c, 3, 59, 0
1, 42109, Note_on_c, 0, 67, 0
1, 42110, Lyric_t, "bod"
1, 42110, Note_on_c, 3, 57, 91
1, 42111, Note_on_c, 0, 81, 97
1, 42113, Note_on_c, 0, 69, 87
1, 42117, Note_on_c, 0, 62, 0
1, 42140, Note_on_c, 0, 81, 0
1, 42142, Note_on_c, 3, 57, 0
1, 42142, Note_on_c, 4, 62, 0
1, 42143, Lyric_t, "y, "
1, 42143, Note_on_c, 3, 55, 86
1, 42143, Lyric_t, ""
1, 42143, Lyric_t, "\015"
1, 42144, Note_on_c, 4, 67, 0
1, 42144, Note_on_c, 9, 36, 105
1, 42144, Note_on_c, 9, 42, 105
1, 42145, Note_on_c, 4, 55, 0
1, 42145, Note_on_c, 4, 62, 79
1, 42146, Note_on_c, 4, 59, 0
1, 42146, Note_on_c, 0, 43, 0
1, 42146, Note_on_c, 4, 55, 56
1, 42146, Note_on_c, 0, 79, 102
1, 42147, Note_on_c, 4, 67, 61
1, 42147, Note_on_c, 4, 59, 71
1, 42150, Note_on_c, 9, 42, 0
1, 42150, Note_on_c, 9, 36, 0
1, 42155, Pitch_bend_c, 3, 8322
1, 42157, Pitch_bend_c, 3, 8972
1, 42159, Pitch_bend_c, 3, 9232
1, 42161, Pitch_bend_c, 3, 10012
1, 42163, Pitch_bend_c, 3, 10792
1, 42165, Pitch_bend_c, 3, 11832
1, 42166, Pitch_bend_c, 3, 12612
1, 42169, Pitch_bend_c, 3, 13912
1, 42170, Pitch_bend_c, 3, 14432
1, 42173, Pitch_bend_c, 3, 15602
1, 42174, Pitch_bend_c, 3, 15732
1, 42176, Pitch_bend_c, 3, 16382
1, 42177, Note_on_c, 4, 67, 0
1, 42182, Note_on_c, 0, 55, 0
1, 42191, Note_on_c, 4, 62, 0
1, 42194, Note_on_c, 4, 59, 0
1, 42198, Note_on_c, 4, 55, 0
1, 42205, Pitch_bend_c, 3, 15212
1, 42206, Note_on_c, 1, 31, 0
1, 42207, Pitch_bend_c, 3, 14822
1, 42209, Note_on_c, 0, 69, 0
1, 42209, Pitch_bend_c, 3, 11572
1, 42211, Pitch_bend_c, 3, 8192
1, 42221, Note_on_c, 0, 74, 0
1, 42224, Note_on_c, 8, 67, 0
1, 42226, Note_on_c, 2, 71, 0
1, 42227, Note_on_c, 2, 74, 0
1, 42230, Note_on_c, 0, 79, 0
1, 42233, Note_on_c, 8, 59, 0
1, 42233, Note_on_c, 2, 79, 0
1, 42235, Note_on_c, 8, 62, 0
1, 42239, Note_on_c, 4, 53, 54
1, 42240, Note_on_c, 0, 72, 96
1, 42240, Note_on_c, 2, 69, 29
1, 42240, Note_on_c, 1, 41, 100
1, 42240, Note_on_c, 0, 69, 93
1, 42240, Note_on_c, 0, 65, 104
1, 42240, Note_on_c, 9, 42, 60
1, 42240, Note_on_c, 2, 65, 29
1, 42240, Note_on_c, 9, 36, 105
1, 42242, Note_on_c, 4, 57, 67
1, 42242, Note_on_c, 4, 65, 65
1, 42242, Note_on_c, 4, 60, 71
1, 42246, Note_on_c, 9, 36, 0
1, 42246, Note_on_c, 9, 42, 0
1, 42272, Note_on_c, 3, 55, 0
1, 42336, Note_on_c, 9, 42, 105
1, 42338, Note_on_c, 3, 65, 100
1, 42338, Lyric_t, "bring "
1, 42342, Note_on_c, 9, 42, 0
1, 42394, Note_on_c, 3, 65, 0
1, 42400, Note_on_c, 9, 36, 105
1, 42401, Lyric_t, "your "
1, 42401, Note_on_c, 3, 65, 88
1, 42406, Note_on_c, 9, 36, 0
1, 42425, Note_on_c, 4, 65, 0
1, 42426, Note_on_c, 4, 57, 0
1, 42426, Note_on_c, 3, 65, 0
1, 42426, Note_on_c, 4, 60, 0
1, 42427, Note_on_c, 4, 53, 0
1, 42430, Note_on_c, 1, 41, 0
1, 42430, Note_on_c, 0, 65, 0
1, 42430, Note_on_c, 0, 72, 0
1, 42430, Note_on_c, 4, 53, 31
1, 42430, Note_on_c, 4, 57, 52
1, 42431, Note_on_c, 0, 69, 0
1, 42431, Note_on_c, 1, 46, 76
1, 42431, Note_on_c, 0, 65, 100
1, 42431, Note_on_c, 0, 72, 96
1, 42432, Note_on_c, 0, 69, 93
1, 42432, Note_on_c, 9, 42, 53
1, 42432, Note_on_c, 9, 38, 118
1, 42434, Note_on_c, 3, 67, 87
1, 42434, Note_on_c, 4, 60, 67
1, 42434, Lyric_t, "fam"
1, 42435, Note_on_c, 4, 65, 57
1, 42438, Note_on_c, 9, 38, 0
1, 42438, Note_on_c, 9, 42, 0
1, 42439, Pitch_bend_c, 1, 8777
1, 42443, Pitch_bend_c, 1, 10883
1, 42445, Pitch_bend_c, 1, 12521
1, 42449, Pitch_bend_c, 1, 14042
1, 42451, Pitch_bend_c, 1, 15680
1, 42454, Pitch_bend_c, 1, 16383
1, 42464, Note_on_c, 9, 42, 17
1, 42470, Note_on_c, 9, 42, 0
1, 42487, Note_on_c, 4, 65, 0
1, 42491, Note_on_c, 4, 53, 0
1, 42494, Note_on_c, 4, 60, 0
1, 42494, Note_on_c, 4, 65, 75
1, 42495, Note_on_c, 4, 60, 77
1, 42497, Note_on_c, 4, 57, 0
1, 42498, Note_on_c, 4, 57, 76
1, 42498, Note_on_c, 4, 53, 63
1, 42523, Note_on_c, 4, 65, 0
1, 42525, Note_on_c, 4, 60, 0
1, 42526, Note_on_c, 4, 53, 0
1, 42527, Note_on_c, 0, 65, 0
1, 42528, Note_on_c, 4, 57, 0
1, 42528, Note_on_c, 0, 65, 43
1, 42528, Note_on_c, 9, 42, 79
1, 42529, Note_on_c, 3, 67, 0
1, 42529, Note_on_c, 4, 53, 45
1, 42530, Note_on_c, 4, 57, 75
1, 42530, Note_on_c, 4, 60, 70
1, 42530, Lyric_t, "'ly "
1, 42530, Note_on_c, 3, 69, 91
1, 42531, Note_on_c, 4, 65, 75
1, 42534, Note_on_c, 9, 42, 0
1, 42551, Note_on_c, 3, 69, 0
1, 42562, Note_on_c, 4, 65, 0
1, 42580, Note_on_c, 4, 57, 0
1, 42582, Note_on_c, 4, 53, 0
1, 42582, Note_on_c, 4, 60, 0
1, 42590, Note_on_c, 0, 53, 62
1, 42591, Note_on_c, 3, 67, 97
1, 42591, Lyric_t, "down "
1, 42592, Note_on_c, 9, 38, 118
1, 42595, Pitch_bend_c, 1, 16382
1, 42598, Note_on_c, 9, 38, 0
1, 42598, Pitch_bend_c, 1, 15914
1, 42601, Pitch_bend_c, 1, 15212
1, 42605, Pitch_bend_c, 1, 14510
1, 42608, Pitch_bend_c, 1, 13574
1, 42610, Pitch_bend_c, 1, 12638
1, 42614, Pitch_bend_c, 1, 11468
1, 42615, Note_on_c, 0, 53, 0
1, 42615, Note_on_c, 0, 69, 0
1, 42615, Note_on_c, 0, 65, 0
1, 42615, Note_on_c, 0, 72, 0
1, 42616, Pitch_bend_c, 1, 9596
1, 42620, Note_on_c, 2, 65, 0
1, 42620, Pitch_bend_c, 1, 8192
1, 42622, Note_on_c, 0, 48, 80
1, 42623, Note_on_c, 3, 67, 0
1, 42623, Note_on_c, 1, 46, 0
1, 42623, Note_on_c, 0, 72, 97
1, 42623, Note_on_c, 0, 64, 97
1, 42623, Note_on_c, 0, 67, 97
1, 42624, Note_on_c, 2, 69, 0
1, 42624, Note_on_c, 9, 36, 104
1, 42624, Note_on_c, 2, 64, 30
1, 42624, Note_on_c, 2, 67, 30
1, 42624, Note_on_c, 9, 42, 45
1, 42625, Note_on_c, 1, 36, 77
1, 42625, Note_on_c, 4, 43, 20
1, 42626, Note_on_c, 4, 60, 60
1, 42628, Note_on_c, 3, 65, 87
1, 42630, Note_on_c, 9, 42, 0
1, 42630, Note_on_c, 9, 36, 0
1, 42630, Note_on_c, 4, 64, 59
1, 42655, Note_on_c, 3, 64, 84
1, 42658, Note_on_c, 3, 65, 0
1, 42688, Note_on_c, 9, 36, 82
1, 42694, Note_on_c, 9, 36, 0
1, 42714, Note_on_c, 4, 60, 0
1, 42717, Note_on_c, 0, 64, 0
1, 42718, Note_on_c, 0, 64, 52
1, 42719, Note_on_c, 3, 64, 0
1, 42720, Lyric_t, "to "
1, 42720, Note_on_c, 3, 60, 89
1, 42720, Note_on_c, 9, 42, 101
1, 42726, Note_on_c, 9, 42, 0
1, 42748, Note_on_c, 1, 36, 0
1, 42766, Note_on_c, 4, 64, 0
1, 42771, Note_on_c, 3, 60, 0
1, 42778, Note_on_c, 4, 64, 34
1, 42780, Note_on_c, 4, 60, 25
1, 42782, Note_on_c, 1, 36, 66
1, 42784, Note_on_c, 9, 36, 105
1, 42785, Lyric_t, "the "
1, 42785, Note_on_c, 3, 60, 87
1, 42790, Note_on_c, 9, 36, 0
1, 42810, Note_on_c, 4, 60, 0
1, 42812, Note_on_c, 4, 64, 0
1, 42813, Note_on_c, 4, 43, 0
1, 42815, Note_on_c, 1, 36, 0
1, 42815, Note_on_c, 0, 48, 0
1, 42815, Note_on_c, 4, 55, 39
1, 42816, Note_on_c, 3, 60, 0
1, 42816, Note_on_c, 0, 48, 69
1, 42816, Note_on_c, 9, 38, 118
1, 42816, Note_on_c, 1, 48, 87
1, 42816, Note_on_c, 9, 42, 17
1, 42818, Note_on_c, 4, 60, 35
1, 42818, Note_on_c, 3, 64, 88
1, 42818, Lyric_t, "riv"
1, 42818, Note_on_c, 4, 64, 37
1, 42822, Note_on_c, 9, 42, 0
1, 42822, Note_on_c, 9, 38, 0
1, 42874, Note_on_c, 1, 48, 0
1, 42874, Note_on_c, 4, 64, 0
1, 42876, Note_on_c, 0, 67, 0
1, 42876, Note_on_c, 0, 72, 0
1, 42876, Note_on_c, 0, 64, 0
1, 42877, Note_on_c, 0, 72, 102
1, 42877, Note_on_c, 0, 67, 102
1, 42877, Note_on_c, 0, 64, 106
1, 42878, Note_on_c, 4, 60, 0
1, 42878, Note_on_c, 3, 64, 0
1, 42878, Note_on_c, 4, 64, 74
1, 42878, Note_on_c, 3, 60, 84
1, 42878, Lyric_t, "er"
1, 42879, Note_on_c, 1, 36, 72
1, 42880, Note_on_c, 4, 60, 71
1, 42907, Note_on_c, 4, 64, 0
1, 42909, Note_on_c, 0, 48, 0
1, 42910, Note_on_c, 3, 60, 0
1, 42910, Note_on_c, 0, 48, 62
1, 42911, Note_on_c, 4, 60, 0
1, 42911, Note_on_c, 4, 64, 56
1, 42912, Note_on_c, 9, 42, 94
1, 42913, Lyric_t, "side, "
1, 42913, Lyric_t, ""
1, 42913, Lyric_t, "\015"
1, 42913, Note_on_c, 3, 62, 91
1, 42914, Note_on_c, 4, 60, 57
1, 42915, Note_on_c, 1, 36, 0
1, 42918, Note_on_c, 9, 42, 0
1, 42959, Note_on_c, 4, 64, 0
1, 42966, Note_on_c, 4, 60, 0
1, 42966, Note_on_c, 4, 55, 0
1, 42972, Note_on_c, 4, 46, 20
1, 42973, Note_on_c, 0, 67, 0
1, 42974, Note_on_c, 0, 67, 71
1, 42975, Note_on_c, 1, 45, 95
1, 42976, Note_on_c, 9, 36, 82
1, 42982, Note_on_c, 9, 36, 0
1, 42983, Note_on_c, 4, 55, 43
1, 42989, Note_on_c, 4, 46, 0
1, 42990, Note_on_c, 2, 67, 0
1, 42996, Note_on_c, 2, 64, 0
1, 43004, Note_on_c, 1, 45, 0
1, 43005, Note_on_c, 0, 72, 0
1, 43005, Note_on_c, 0, 48, 0
1, 43005, Note_on_c, 0, 67, 0
1, 43005, Note_on_c, 0, 64, 0
1, 43006, Note_on_c, 0, 43, 75
1, 43006, Note_on_c, 0, 55, 85
1, 43007, Note_on_c, 0, 62, 81
1, 43007, Note_on_c, 4, 59, 54
1, 43007, Note_on_c, 0, 71, 96
1, 43007, Note_on_c, 0, 67, 82
1, 43008, Note_on_c, 1, 43, 92
1, 43008, Note_on_c, 9, 36, 100
1, 43008, Note_on_c, 9, 42, 40
1, 43009, Note_on_c, 4, 62, 63
1, 43010, Note_on_c, 4, 67, 46
1, 43014, Note_on_c, 9, 42, 0
1, 43014, Note_on_c, 9, 36, 0
1, 43070, Note_on_c, 3, 62, 0
1, 43070, Note_on_c, 3, 57, 89
1, 43090, Pitch_bend_c, 3, 8582
1, 43092, Note_on_c, 1, 43, 0
1, 43092, Pitch_bend_c, 3, 8972
1, 43094, Pitch_bend_c, 3, 10012
1, 43097, Note_on_c, 4, 59, 0
1, 43098, Pitch_bend_c, 3, 11572
1, 43100, Pitch_bend_c, 3, 12092
1, 43102, Pitch_bend_c, 3, 13132
1, 43104, Note_on_c, 9, 42, 94
1, 43104, Pitch_bend_c, 3, 13652
1, 43106, Pitch_bend_c, 3, 13782
1, 43107, Pitch_bend_c, 3, 15212
1, 43110, Note_on_c, 9, 42, 0
1, 43110, Pitch_bend_c, 3, 15732
1, 43111, Pitch_bend_c, 3, 16122
1, 43114, Pitch_bend_c, 3, 16382
1, 43125, Pitch_bend_c, 3, 15862
1, 43126, Pitch_bend_c, 3, 15342
1, 43129, Pitch_bend_c, 3, 14562
1, 43130, Pitch_bend_c, 3, 13652
1, 43133, Pitch_bend_c, 3, 12482
1, 43134, Pitch_bend_c, 3, 11442
1, 43136, Pitch_bend_c, 3, 9752
1, 43140, Pitch_bend_c, 3, 8192
1, 43150, Pitch_bend_c, 3, 8452
1, 43152, Pitch_bend_c, 3, 9622
1, 43154, Pitch_bend_c, 3, 10142
1, 43155, Pitch_bend_c, 3, 11962
1, 43158, Pitch_bend_c, 3, 13392
1, 43159, Pitch_bend_c, 3, 14172
1, 43162, Pitch_bend_c, 3, 14692
1, 43163, Pitch_bend_c, 3, 15732
1, 43165, Note_on_c, 0, 67, 0
1, 43165, Note_on_c, 0, 62, 0
1, 43165, Note_on_c, 0, 71, 0
1, 43166, Note_on_c, 0, 62, 104
1, 43166, Note_on_c, 0, 71, 99
1, 43166, Note_on_c, 0, 67, 99
1, 43167, Note_on_c, 1, 43, 96
1, 43168, Note_on_c, 9, 36, 85
1, 43174, Note_on_c, 9, 36, 0
1, 43189, Note_on_c, 1, 43, 0
1, 43194, Note_on_c, 4, 62, 0
1, 43197, Note_on_c, 4, 67, 0
1, 43199, Note_on_c, 1, 31, 65
1, 43199, Note_on_c, 4, 62, 74
1, 43200, Note_on_c, 9, 38, 118
1, 43200, Note_on_c, 9, 42, 24
1, 43201, Note_on_c, 4, 67, 73
1, 43202, Note_on_c, 4, 59, 70
1, 43206, Note_on_c, 9, 42, 0
1, 43206, Note_on_c, 9, 38, 0
1, 43260, Note_on_c, 0, 55, 0
1, 43261, Note_on_c, 0, 55, 69
1, 43293, Note_on_c, 0, 67, 0
1, 43293, Note_on_c, 0, 71, 0
1, 43293, Note_on_c, 0, 62, 0
1, 43294, Note_on_c, 4, 59, 0
1, 43294, Note_on_c, 0, 62, 92
1, 43294, Note_on_c, 0, 67, 94
1, 43294, Note_on_c, 0, 71, 96
1, 43296, Note_on_c, 9, 42, 101
1, 43302, Note_on_c, 9, 42, 0
1, 43305, Note_on_c, 4, 67, 0
1, 43349, Note_on_c, 1, 31, 0
1, 43356, Note_on_c, 4, 62, 0
1, 43356, Note_on_c, 4, 67, 32
1, 43358, Note_on_c, 4, 62, 43
1, 43358, Note_on_c, 1, 38, 84
1, 43360, Note_on_c, 9, 38, 118
1, 43366, Note_on_c, 9, 38, 0
1, 43369, Pitch_bend_c, 3, 16122
1, 43370, Pitch_bend_c, 3, 15082
1, 43372, Note_on_c, 3, 57, 0
1, 43373, Pitch_bend_c, 3, 14432
1, 43374, Pitch_bend_c, 3, 12612
1, 43376, Pitch_bend_c, 3, 11832
1, 43378, Pitch_bend_c, 3, 9752
1, 43382, Pitch_bend_c, 3, 8192
1, 43385, Note_on_c, 4, 55, 0
1, 43387, Note_on_c, 4, 62, 0
1, 43389, Note_on_c, 0, 55, 0
1, 43390, Note_on_c, 1, 38, 0
1, 43390, Note_on_c, 4, 67, 0
1, 43390, Note_on_c, 0, 55, 92
1, 43391, Note_on_c, 1, 43, 92
1, 43391, Note_on_c, 4, 62, 54
1, 43391, Note_on_c, 4, 55, 44
1, 43392, Note_on_c, 9, 42, 49
1, 43392, Note_on_c, 9, 36, 88
1, 43392, Lyric_t, ""
1, 43392, Lyric_t, "\015"
1, 43394, Note_on_c, 4, 59, 57
1, 43394, Note_on_c, 4, 67, 46
1, 43398, Note_on_c, 9, 36, 0
1, 43398, Note_on_c, 9, 42, 0
1, 43453, Note_on_c, 0, 67, 0
1, 43453, Note_on_c, 0, 55, 0
1, 43453, Note_on_c, 0, 71, 0
1, 43453, Note_on_c, 0, 43, 0
1, 43454, Note_on_c, 1, 43, 0
1, 43454, Note_on_c, 0, 79, 94
1, 43454, Note_on_c, 0, 67, 93
1, 43454, Note_on_c, 0, 55, 82
1, 43454, Note_on_c, 0, 43, 78
1, 43454, Note_on_c, 0, 71, 104
1, 43455, Note_on_c, 1, 38, 81
1, 43456, Note_on_c, 9, 36, 91
1, 43462, Note_on_c, 9, 36, 0
1, 43480, Note_on_c, 1, 38, 0
1, 43484, Note_on_c, 0, 43, 0
1, 43484, Note_on_c, 0, 55, 0
1, 43485, Note_on_c, 0, 55, 80
1, 43485, Note_on_c, 0, 43, 65
1, 43486, Note_on_c, 0, 81, 108
1, 43486, Note_on_c, 0, 69, 93
1, 43487, Note_on_c, 1, 31, 68
1, 43488, Note_on_c, 9, 42, 91
1, 43492, Note_on_c, 4, 59, 0
1, 43494, Note_on_c, 9, 42, 0
1, 43540, Note_on_c, 4, 67, 0
1, 43546, Note_on_c, 4, 62, 0
1, 43548, Note_on_c, 0, 55, 0
1, 43548, Note_on_c, 0, 43, 0
1, 43548, Note_on_c, 4, 53, 20
1, 43549, Note_on_c, 0, 71, 0
1, 43549, Note_on_c, 0, 43, 72
1, 43549, Note_on_c, 0, 55, 82
1, 43550, Note_on_c, 0, 83, 112
1, 43550, Note_on_c, 0, 71, 110
1, 43551, Note_on_c, 4, 62, 30
1, 43552, Note_on_c, 9, 36, 92
1, 43558, Note_on_c, 9, 36, 0
1, 43579, Note_on_c, 4, 55, 0
1, 43581, Note_on_c, 4, 62, 0
1, 43584, Note_on_c, 9, 42, 62
1, 43584, Note_on_c, 9, 38, 118
1, 43585, Note_on_c, 4, 59, 38
1, 43586, Note_on_c, 4, 62, 42
1, 43590, Note_on_c, 9, 38, 0
1, 43590, Note_on_c, 9, 42, 0
1, 43638, Note_on_c, 4, 62, 0
1, 43641, Note_on_c, 1, 31, 0
1, 43642, Note_on_c, 4, 53, 0
1, 43643, Note_on_c, 4, 67, 73
1, 43644, Note_on_c, 4, 59, 0
1, 43645, Note_on_c, 0, 55, 0
1, 43646, Note_on_c, 0, 74, 104
1, 43646, Note_on_c, 0, 86, 110
1, 43646, Note_on_c, 4, 62, 77
1, 43646, Note_on_c, 0, 55, 74
1, 43647, Note_on_c, 4, 59, 73
1, 43647, Note_on_c, 1, 38, 85
1, 43647, Note_on_c, 4, 55, 26
1, 43666, Note_on_c, 1, 38, 0
1, 43674, Note_on_c, 4, 67, 0
1, 43675, Note_on_c, 4, 62, 0
1, 43677, Note_on_c, 4, 55, 0
1, 43677, Note_on_c, 0, 55, 0
1, 43677, Note_on_c, 0, 76, 97
1, 43678, Note_on_c, 0, 55, 81
1, 43678, Note_on_c, 4, 55, 45
1, 43678, Note_on_c, 0, 88, 106
1, 43679, Note_on_c, 1, 43, 87
1, 43679, Note_on_c, 4, 62, 78
1, 43680, Note_on_c, 9, 42, 101
1, 43682, Note_on_c, 4, 67, 79
1, 43686, Note_on_c, 9, 42, 0
1, 43710, Note_on_c, 1, 43, 0
1, 43711, Note_on_c, 1, 38, 87
1, 43721, Note_on_c, 1, 38, 0
1, 43724, Note_on_c, 4, 67, 0
1, 43725, Note_on_c, 4, 62, 0
1, 43726, Note_on_c, 4, 55, 0
1, 43730, Note_on_c, 4, 59, 0
1, 43742, Note_on_c, 1, 31, 76
1, 43744, Note_on_c, 9, 36, 95
1, 43750, Note_on_c, 9, 36, 0
1, 43769, Note_on_c, 0, 88, 0
1, 43769, Note_on_c, 0, 43, 0
1, 43769, Note_on_c, 0, 86, 0
1, 43769, Note_on_c, 0, 62, 0
1, 43769, Note_on_c, 0, 81, 0
1, 43769, Note_on_c, 0, 71, 0
1, 43769, Note_on_c, 0, 79, 0
1, 43769, Note_on_c, 0, 69, 0
1, 43769, Note_on_c, 0, 76, 0
1, 43769, Note_on_c, 0, 67, 0
1, 43769, Note_on_c, 0, 74, 0
1, 43769, Note_on_c, 0, 83, 0
1, 43772, Note_on_c, 0, 55, 0
1, 43773, Note_on_c, 1, 31, 0
1, 43774, Note_on_c, 0, 53, 94
1, 43774, Note_on_c, 0, 69, 96
1, 43774, Note_on_c, 4, 45, 20
1, 43774, Note_on_c, 0, 72, 100
1, 43774, Note_on_c, 0, 65, 90
1, 43775, Note_on_c, 1, 29, 84
1, 43776, Lyric_t, "look "
1, 43776, Note_on_c, 3, 65, 103
1, 43776, Note_on_c, 9, 42, 44
1, 43776, Note_on_c, 9, 36, 105
1, 43777, Note_on_c, 4, 60, 73
1, 43777, Note_on_c, 4, 53, 58
1, 43778, Note_on_c, 4, 65, 37
1, 43782, Note_on_c, 9, 36, 0
1, 43782, Note_on_c, 9, 42, 0
1, 43868, Note_on_c, 3, 65, 0
1, 43868, Note_on_c, 0, 65, 0
1, 43869, Note_on_c, 0, 65, 46
1, 43872, Lyric_t, "to "
1, 43872, Note_on_c, 9, 42, 94
1, 43872, Note_on_c, 3, 65, 90
1, 43878, Note_on_c, 9, 42, 0
1, 43890, Note_on_c, 1, 29, 0
1, 43914, Note_on_c, 3, 65, 0
1, 43918, Note_on_c, 4, 65, 0
1, 43931, Note_on_c, 4, 51, 20
1, 43933, Note_on_c, 0, 53, 0
1, 43934, Note_on_c, 0, 53, 68
1, 43935, Note_on_c, 1, 29, 87
1, 43936, Note_on_c, 9, 36, 88
1, 43938, Note_on_c, 3, 65, 103
1, 43938, Lyric_t, "the "
1, 43942, Note_on_c, 9, 36, 0
1, 43950, Note_on_c, 1, 29, 0
1, 43962, Note_on_c, 4, 51, 0
1, 43963, Note_on_c, 4, 60, 0
1, 43963, Note_on_c, 4, 53, 0
1, 43964, Note_on_c, 4, 45, 0
1, 43965, Note_on_c, 0, 65, 0
1, 43965, Note_on_c, 3, 65, 0
1, 43965, Note_on_c, 0, 72, 0
1, 43966, Note_on_c, 0, 65, 102
1, 43966, Note_on_c, 0, 72, 108
1, 43967, Note_on_c, 4, 57, 73
1, 43967, Note_on_c, 4, 53, 57
1, 43967, Note_on_c, 4, 60, 64
1, 43967, Note_on_c, 1, 29, 92
1, 43967, Note_on_c, 4, 65, 70
1, 43968, Note_on_c, 9, 38, 118
1, 43970, Note_on_c, 3, 67, 94
1, 43970, Lyric_t, "east "
1, 43974, Note_on_c, 9, 38, 0
1, 44030, Note_on_c, 0, 72, 0
1, 44031, Note_on_c, 0, 72, 50
1, 44032, Note_on_c, 0, 69, 0
1, 44033, Note_on_c, 0, 69, 75
1, 44047, Note_on_c, 3, 67, 0
1, 44051, Note_on_c, 4, 53, 0
1, 44056, Note_on_c, 1, 29, 0
1, 44063, Note_on_c, 0, 53, 0
1, 44063, Note_on_c, 4, 57, 0
1, 44063, Note_on_c, 4, 53, 22
1, 44064, Note_on_c, 9, 42, 88
1, 44064, Note_on_c, 0, 53, 67
1, 44066, Note_on_c, 4, 65, 0
1, 44066, Note_on_c, 3, 69, 89
1, 44066, Lyric_t, "to "
1, 44070, Note_on_c, 9, 42, 0
1, 44073, Note_on_c, 4, 60, 0
1, 44073, Note_on_c, 4, 53, 0
1, 44098, Note_on_c, 1, 41, 75
1, 44114, Note_on_c, 1, 41, 0
1, 44114, Note_on_c, 3, 69, 0
1, 44127, Lyric_t, ""
1, 44127, Lyric_t, "\015"
1, 44127, Note_on_c, 4, 47, 20
1, 44127, Lyric_t, "see "
1, 44127, Note_on_c, 3, 67, 98
1, 44128, Note_on_c, 0, 65, 0
1, 44128, Note_on_c, 9, 38, 118
1, 44129, Note_on_c, 0, 65, 35
1, 44130, Note_on_c, 1, 41, 88
1, 44130, Note_on_c, 4, 43, 20
1, 44134, Note_on_c, 9, 38, 0
1, 44154, Note_on_c, 4, 43, 0
1, 44155, Note_on_c, 0, 69, 0
1, 44155, Note_on_c, 0, 72, 0
1, 44155, Note_on_c, 0, 53, 0
1, 44155, Note_on_c, 0, 65, 0
1, 44157, Note_on_c, 4, 47, 0
1, 44158, Note_on_c, 4, 55, 64
1, 44159, Note_on_c, 0, 48, 63
1, 44160, Note_on_c, 9, 42, 49
1, 44160, Note_on_c, 0, 64, 97
1, 44160, Note_on_c, 9, 36, 91
1, 44160, Note_on_c, 0, 67, 83
1, 44160, Note_on_c, 0, 72, 89
1, 44161, Note_on_c, 1, 41, 0
1, 44161, Note_on_c, 4, 60, 76
1, 44162, Note_on_c, 1, 36, 87
1, 44162, Note_on_c, 4, 64, 67
1, 44166, Note_on_c, 9, 42, 0
1, 44166, Note_on_c, 9, 36, 0
1, 44206, Note_on_c, 1, 36, 0
1, 44224, Note_on_c, 9, 36, 89
1, 44225, Note_on_c, 1, 36, 84
1, 44230, Note_on_c, 9, 36, 0
1, 44244, Note_on_c, 1, 36, 0
1, 44246, Note_on_c, 4, 64, 0
1, 44246, Note_on_c, 3, 67, 0
1, 44255, Note_on_c, 4, 64, 26
1, 44256, Note_on_c, 9, 42, 85
1, 44257, Note_on_c, 3, 64, 95
1, 44257, Lyric_t, "where "
1, 44262, Note_on_c, 9, 42, 0
1, 44309, Note_on_c, 4, 64, 0
1, 44313, Note_on_c, 4, 60, 0
1, 44317, Note_on_c, 4, 64, 25
1, 44318, Note_on_c, 3, 64, 0
1, 44318, Note_on_c, 3, 60, 85
1, 44318, Lyric_t, "the "
1, 44319, Note_on_c, 1, 36, 77
1, 44320, Note_on_c, 9, 36, 101
1, 44320, Note_on_c, 4, 60, 32
1, 44326, Note_on_c, 9, 36, 0
1, 44346, Note_on_c, 1, 36, 0
1, 44346, Note_on_c, 4, 64, 0
1, 44347, Note_on_c, 3, 60, 0
1, 44349, Note_on_c, 4, 55, 0
1, 44350, Note_on_c, 4, 60, 0
1, 44351, Note_on_c, 0, 72, 0
1, 44351, Note_on_c, 0, 67, 0
1, 44351, Note_on_c, 0, 48, 0
1, 44351, Note_on_c, 0, 64, 0
1, 44351, Note_on_c, 4, 64, 62
1, 44351, Note_on_c, 4, 55, 67
1, 44352, Note_on_c, 0, 72, 104
1, 44352, Note_on_c, 0, 48, 68
1, 44352, Note_on_c, 0, 67, 102
1, 44352, Note_on_c, 0, 64, 108
1, 44352, Note_on_c, 9, 38, 118
1, 44352, Note_on_c, 9, 42, 65
1, 44353, Note_on_c, 4, 60, 73
1, 44354, Note_on_c, 3, 64, 88
1, 44354, Lyric_t, "fat "
1, 44358, Note_on_c, 9, 42, 0
1, 44358, Note_on_c, 9, 38, 0
1, 44410, Note_on_c, 3, 64, 0
1, 44415, Note_on_c, 1, 36, 98
1, 44446, Note_on_c, 1, 36, 0
1, 44446, Note_on_c, 4, 64, 0
1, 44447, Note_on_c, 1, 35, 90
1, 44448, Note_on_c, 0, 64, 0
1, 44448, Note_on_c, 9, 42, 85
1, 44449, Note_on_c, 0, 64, 54
1, 44450, Note_on_c, 3, 64, 96
1, 44450, Note_on_c, 4, 64, 63
1, 44450, Lyric_t, "stock "
1, 44454, Note_on_c, 9, 42, 0
1, 44493, Note_on_c, 4, 55, 0
1, 44494, Note_on_c, 4, 64, 0
1, 44498, Note_on_c, 4, 60, 0
1, 44498, Note_on_c, 3, 64, 0
1, 44509, Note_on_c, 0, 48, 0
1, 44509, Note_on_c, 1, 35, 0
1, 44509, Note_on_c, 4, 46, 20
1, 44510, Note_on_c, 0, 48, 67
1, 44511, Note_on_c, 1, 36, 84
1, 44512, Note_on_c, 4, 43, 20
1, 44524, Note_on_c, 4, 43, 0
1, 44524, Note_on_c, 4, 46, 0
1, 44533, Note_on_c, 0, 67, 0
1, 44533, Note_on_c, 0, 72, 0
1, 44533, Note_on_c, 0, 64, 0
1, 44537, Note_on_c, 0, 48, 0
1, 44540, Note_on_c, 1, 36, 0
1, 44542, Note_on_c, 4, 59, 37
1, 44542, Note_on_c, 0, 62, 86
1, 44543, Note_on_c, 0, 43, 72
1, 44543, Note_on_c, 0, 67, 85
1, 44543, Note_on_c, 0, 59, 85
1, 44543, Note_on_c, 0, 55, 71
1, 44544, Note_on_c, 9, 36, 105
1, 44544, Note_on_c, 9, 42, 65
1, 44544, Note_on_c, 1, 31, 84
1, 44545, Note_on_c, 3, 62, 95
1, 44545, Lyric_t, ""
1, 44545, Lyric_t, "\015"
1, 44545, Note_on_c, 4, 55, 61
1, 44545, Lyric_t, "hide. "
1, 44546, Note_on_c, 4, 62, 76
1, 44546, Note_on_c, 4, 67, 64
1, 44550, Note_on_c, 9, 42, 0
1, 44550, Note_on_c, 9, 36, 0
1, 44608, Note_on_c, 3, 62, 0
1, 44610, Note_on_c, 3, 57, 86
1, 44630, Pitch_bend_c, 3, 8842
1, 44632, Pitch_bend_c, 3, 10142
1, 44634, Pitch_bend_c, 3, 10272
1, 44636, Pitch_bend_c, 3, 12222
1, 44638, Pitch_bend_c, 3, 12742
1, 44640, Pitch_bend_c, 3, 13262
1, 44640, Note_on_c, 9, 42, 75
1, 44642, Note_on_c, 4, 59, 0
1, 44642, Pitch_bend_c, 3, 14172
1, 44643, Note_on_c, 1, 31, 0
1, 44643, Pitch_bend_c, 3, 14822
1, 44644, Note_on_c, 4, 67, 0
1, 44646, Note_on_c, 9, 42, 0
1, 44646, Pitch_bend_c, 3, 15472
1, 44647, Pitch_bend_c, 3, 16252
1, 44650, Pitch_bend_c, 3, 16382
1, 44702, Note_on_c, 0, 62, 0
1, 44703, Note_on_c, 0, 62, 69
1, 44703, Note_on_c, 1, 31, 81
1, 44704, Note_on_c, 9, 36, 105
1, 44710, Note_on_c, 9, 36, 0
1, 44729, Note_on_c, 1, 31, 0
1, 44730, Note_on_c, 4, 55, 0
1, 44733, Note_on_c, 4, 62, 0
1, 44733, Note_on_c, 0, 55, 0
1, 44734, Note_on_c, 0, 55, 81
1, 44735, Note_on_c, 0, 67, 0
1, 44735, Note_on_c, 0, 59, 0
1, 44736, Note_on_c, 1, 31, 87
1, 44736, Note_on_c, 9, 42, 45
1, 44736, Note_on_c, 0, 59, 78
1, 44736, Note_on_c, 9, 38, 118
1, 44736, Note_on_c, 0, 67, 86
1, 44737, Note_on_c, 0, 62, 0
1, 44737, Note_on_c, 4, 55, 32
1, 44738, Note_on_c, 4, 67, 49
1, 44738, Note_on_c, 0, 62, 73
1, 44738, Note_on_c, 4, 59, 32
1, 44741, Note_on_c, 4, 62, 27
1, 44742, Note_on_c, 9, 38, 0
1, 44742, Note_on_c, 9, 42, 0
1, 44792, Note_on_c, 4, 67, 0
1, 44794, Note_on_c, 4, 62, 0
1, 44797, Note_on_c, 0, 67, 0
1, 44797, Note_on_c, 0, 62, 0
1, 44797, Note_on_c, 0, 43, 0
1, 44797, Note_on_c, 0, 55, 0
1, 44798, Note_on_c, 4, 59, 0
1, 44798, Note_on_c, 0, 67, 86
1, 44798, Note_on_c, 0, 62, 87
1, 44798, Note_on_c, 0, 55, 81
1, 44798, Note_on_c, 0, 43, 70
1, 44798, Note_on_c, 0, 71, 88
1, 44798, Note_on_c, 4, 67, 82
1, 44800, Note_on_c, 4, 62, 75
1, 44801, Note_on_c, 4, 55, 0
1, 44802, Note_on_c, 4, 59, 72
1, 44802, Note_on_c, 4, 55, 44
1, 44819, Note_on_c, 4, 62, 0
1, 44821, Note_on_c, 4, 67, 0
1, 44823, Note_on_c, 4, 55, 0
1, 44826, Note_on_c, 4, 59, 0
1, 44832, Note_on_c, 1, 31, 0
1, 44832, Note_on_c, 9, 42, 82
1, 44838, Note_on_c, 9, 42, 0
1, 44840, Note_on_c, 3, 57, 0
1, 44854, Pitch_bend_c, 3, 15992
1, 44857, Pitch_bend_c, 3, 15862
1, 44858, Pitch_bend_c, 3, 14952
1, 44861, Pitch_bend_c, 3, 14302
1, 44862, Pitch_bend_c, 3, 13262
1, 44864, Pitch_bend_c, 3, 12222
1, 44866, Pitch_bend_c, 3, 11312
1, 44868, Pitch_bend_c, 3, 10012
1, 44870, Pitch_bend_c, 3, 8972
1, 44872, Pitch_bend_c, 3, 8192
1, 44892, Note_on_c, 0, 71, 0
1, 44892, Note_on_c, 0, 62, 0
1, 44893, Note_on_c, 0, 67, 0
1, 44893, Note_on_c, 0, 55, 0
1, 44893, Note_on_c, 0, 62, 72
1, 44893, Note_on_c, 0, 71, 93
1, 44893, Note_on_c, 0, 74, 78
1, 44894, Note_on_c, 0, 67, 88
1, 44894, Note_on_c, 0, 55, 82
1, 44895, Note_on_c, 4, 62, 22
1, 44895, Note_on_c, 1, 31, 76
1, 44896, Note_on_c, 9, 38, 116
1, 44896, Note_on_c, 4, 59, 23
1, 44897, Lyric_t, ""
1, 44897, Lyric_t, "\015"
1, 44898, Note_on_c, 4, 43, 20
1, 44902, Note_on_c, 9, 38, 0
1, 44925, Note_on_c, 4, 62, 0
1, 44926, Note_on_c, 4, 59, 0
1, 44927, Note_on_c, 4, 43, 0
1, 44928, Note_on_c, 1, 31, 0
1, 44928, Note_on_c, 9, 36, 91
1, 44928, Note_on_c, 9, 42, 35
1, 44929, Note_on_c, 4, 62, 67
1, 44929, Note_on_c, 1, 43, 92
1, 44929, Note_on_c, 4, 55, 61
1, 44930, Note_on_c, 4, 59, 67
1, 44931, Note_on_c, 4, 67, 67
1, 44934, Note_on_c, 9, 42, 0
1, 44934, Note_on_c, 9, 36, 0
1, 44975, Note_on_c, 1, 43, 0
1, 44988, Note_on_c, 0, 74, 0
1, 44989, Note_on_c, 0, 71, 0
1, 44989, Note_on_c, 0, 55, 0
1, 44989, Note_on_c, 0, 67, 0
1, 44989, Note_on_c, 0, 74, 94
1, 44990, Note_on_c, 0, 55, 82
1, 44990, Note_on_c, 0, 79, 99
1, 44990, Note_on_c, 0, 67, 81
1, 44990, Note_on_c, 0, 71, 94
1, 44991, Note_on_c, 1, 31, 83
1, 44992, Note_on_c, 9, 36, 91
1, 44998, Note_on_c, 9, 36, 0
1, 45012, Note_on_c, 1, 31, 0
1, 45018, Note_on_c, 4, 62, 0
1, 45021, Note_on_c, 4, 59, 0
1, 45022, Note_on_c, 0, 81, 94
1, 45022, Note_on_c, 0, 69, 81
1, 45024, Note_on_c, 9, 42, 73
1, 45026, Note_on_c, 4, 62, 43
1, 45030, Note_on_c, 9, 42, 0
1, 45070, Note_on_c, 4, 67, 0
1, 45076, Note_on_c, 4, 62, 0
1, 45083, Note_on_c, 0, 55, 0
1, 45083, Note_on_c, 0, 71, 0
1, 45084, Note_on_c, 0, 71, 104
1, 45084, Note_on_c, 0, 83, 110
1, 45084, Note_on_c, 0, 55, 81
1, 45085, Note_on_c, 4, 62, 25
1, 45087, Note_on_c, 1, 31, 84
1, 45088, Note_on_c, 9, 38, 118
1, 45094, Note_on_c, 9, 38, 0
1, 45112, Note_on_c, 1, 31, 0
1, 45118, Note_on_c, 4, 62, 0
1, 45119, Note_on_c, 1, 29, 99
1, 45120, Note_on_c, 9, 36, 100
1, 45120, Note_on_c, 9, 42, 42
1, 45123, Note_on_c, 4, 62, 37
1, 45123, Note_on_c, 4, 59, 35
1, 45126, Note_on_c, 9, 42, 0
1, 45126, Note_on_c, 9, 36, 0
1, 45126, Pitch_bend_c, 1, 11000
1, 45130, Pitch_bend_c, 1, 14042
1, 45131, Pitch_bend_c, 1, 15797
1, 45135, Pitch_bend_c, 1, 16382
1, 45152, Note_on_c, 9, 38, 107
1, 45158, Note_on_c, 9, 38, 0
1, 45171, Pitch_bend_c, 1, 16265
1, 45175, Pitch_bend_c, 1, 15914
1, 45178, Pitch_bend_c, 1, 15446
1, 45179, Note_on_c, 4, 62, 0
1, 45180, Note_on_c, 0, 43, 0
1, 45180, Note_on_c, 0, 74, 0
1, 45181, Note_on_c, 4, 59, 0
1, 45181, Note_on_c, 4, 55, 0
1, 45181, Note_on_c, 0, 74, 110
1, 45181, Note_on_c, 0, 43, 66
1, 45181, Pitch_bend_c, 1, 14627
1, 45182, Note_on_c, 4, 67, 81
1, 45182, Note_on_c, 0, 86, 114
1, 45183, Pitch_bend_c, 1, 13808
1, 45184, Note_on_c, 9, 38, 108
1, 45184, Note_on_c, 4, 62, 77
1, 45184, Note_on_c, 4, 59, 73
1, 45187, Pitch_bend_c, 1, 12989
1, 45187, Note_on_c, 4, 55, 56
1, 45189, Pitch_bend_c, 1, 11936
1, 45190, Note_on_c, 9, 38, 0
1, 45193, Pitch_bend_c, 1, 10883
1, 45197, Pitch_bend_c, 1, 9362
1, 45198, Pitch_bend_c, 1, 8192
1, 45206, Note_on_c, 1, 29, 0
1, 45212, Pitch_bend_c, 1, 9713
1, 45213, Note_on_c, 0, 55, 0
1, 45214, Note_on_c, 4, 62, 0
1, 45214, Pitch_bend_c, 1, 11936
1, 45214, Note_on_c, 0, 55, 99
1, 45215, Note_on_c, 4, 67, 0
1, 45215, Note_on_c, 1, 29, 94
1, 45216, Note_on_c, 9, 42, 88
1, 45216, Note_on_c, 9, 45, 86
1, 45218, Pitch_bend_c, 1, 13808
1, 45219, Pitch_bend_c, 1, 15329
1, 45221, Note_on_c, 4, 62, 68
1, 45222, Note_on_c, 9, 45, 0
1, 45222, Note_on_c, 9, 42, 0
1, 45222, Note_on_c, 4, 67, 35
1, 45223, Pitch_bend_c, 1, 16383
1, 45248, Note_on_c, 9, 45, 83
1, 45251, Note_on_c, 4, 67, 0
1, 45254, Note_on_c, 9, 45, 0
1, 45265, Note_on_c, 4, 62, 0
1, 45272, Note_on_c, 4, 55, 0
1, 45278, Note_on_c, 4, 59, 0
1, 45279, Pitch_bend_c, 1, 16148
1, 45280, Note_on_c, 9, 43, 80
1, 45281, Pitch_bend_c, 1, 14978
1, 45281, Lyric_t, "Be"
1, 45281, Note_on_c, 3, 55, 87
1, 45285, Pitch_bend_c, 1, 14042
1, 45286, Note_on_c, 9, 43, 0
1, 45286, Pitch_bend_c, 1, 13457
1, 45290, Pitch_bend_c, 1, 12755
1, 45294, Pitch_bend_c, 1, 11702
1, 45296, Pitch_bend_c, 1, 10298
1, 45300, Pitch_bend_c, 1, 8192
1, 45307, Note_on_c, 0, 74, 0
1, 45307, Note_on_c, 0, 86, 0
1, 45307, Note_on_c, 0, 43, 0
1, 45307, Note_on_c, 0, 71, 0
1, 45307, Note_on_c, 0, 83, 0
1, 45307, Note_on_c, 0, 81, 0
1, 45307, Note_on_c, 0, 79, 0
1, 45307, Note_on_c, 0, 62, 0
1, 45307, Note_on_c, 0, 55, 0
1, 45307, Note_on_c, 0, 67, 0
1, 45307, Note_on_c, 0, 69, 0
1, 45307, Note_on_c, 0, 59, 0
1, 45309, Note_on_c, 1, 29, 0
1, 45310, Note_on_c, 0, 79, 82
1, 45310, Note_on_c, 0, 35, 92
1, 45310, Note_on_c, 0, 47, 87
1, 45310, Note_on_c, 0, 77, 96
1, 45310, Note_on_c, 0, 74, 92
1, 45310, Note_on_c, 0, 71, 87
1, 45311, Note_on_c, 2, 79, 47
1, 45311, Note_on_c, 2, 71, 47
1, 45311, Note_on_c, 2, 74, 47
1, 45311, Note_on_c, 2, 77, 47
1, 45312, Note_on_c, 3, 55, 0
1, 45312, Note_on_c, 9, 42, 60
1, 45312, Note_on_c, 9, 36, 105
1, 45314, Note_on_c, 3, 65, 101
1, 45314, Lyric_t, "hind "
1, 45314, Note_on_c, 1, 35, 97
1, 45314, Note_on_c, 4, 46, 20
1, 45314, Note_on_c, 4, 62, 68
1, 45315, Note_on_c, 4, 67, 64
1, 45318, Note_on_c, 9, 36, 0
1, 45318, Note_on_c, 9, 42, 0
1, 45374, Note_on_c, 3, 65, 0
1, 45408, Note_on_c, 3, 65, 103
1, 45408, Note_on_c, 9, 42, 105
1, 45408, Lyric_t, "four "
1, 45411, Note_on_c, 4, 67, 0
1, 45414, Note_on_c, 9, 42, 0
1, 45463, Note_on_c, 3, 65, 0
1, 45470, Note_on_c, 3, 67, 92
1, 45470, Lyric_t, "walls "
1, 45472, Note_on_c, 9, 36, 105
1, 45478, Note_on_c, 9, 36, 0
1, 45494, Note_on_c, 1, 35, 0
1, 45498, Note_on_c, 4, 46, 0
1, 45501, Note_on_c, 0, 47, 0
1, 45502, Note_on_c, 0, 62, 92
1, 45502, Note_on_c, 0, 59, 86
1, 45502, Note_on_c, 0, 65, 88
1, 45502, Note_on_c, 0, 47, 82
1, 45502, Note_on_c, 0, 67, 83
1, 45504, Note_on_c, 1, 47, 92
1, 45504, Note_on_c, 9, 38, 118
1, 45504, Note_on_c, 9, 42, 53
1, 45506, Note_on_c, 4, 62, 0
1, 45506, Note_on_c, 4, 59, 78
1, 45507, Note_on_c, 4, 62, 79
1, 45509, Note_on_c, 4, 67, 85
1, 45510, Note_on_c, 9, 42, 0
1, 45510, Note_on_c, 9, 38, 0
1, 45522, Note_on_c, 3, 67, 0
1, 45534, Note_on_c, 1, 47, 0
1, 45535, Note_on_c, 1, 43, 83
1, 45536, Note_on_c, 9, 42, 17
1, 45542, Note_on_c, 9, 42, 0
1, 45566, Note_on_c, 1, 43, 0
1, 45566, Lyric_t, "of "
1, 45566, Note_on_c, 3, 69, 101
1, 45567, Note_on_c, 1, 38, 79
1, 45596, Note_on_c, 4, 59, 0
1, 45598, Note_on_c, 1, 38, 0
1, 45598, Note_on_c, 0, 59, 0
1, 45599, Note_on_c, 0, 59, 63
1, 45599, Note_on_c, 1, 35, 91
1, 45600, Note_on_c, 3, 69, 0
1, 45600, Note_on_c, 9, 42, 79
1, 45602, Note_on_c, 4, 62, 0
1, 45602, Note_on_c, 4, 59, 32
1, 45604, Note_on_c, 4, 67, 0
1, 45605, Note_on_c, 4, 62, 61
1, 45606, Note_on_c, 9, 42, 0
1, 45606, Note_on_c, 4, 67, 55
1, 45630, Note_on_c, 4, 67, 0
1, 45631, Note_on_c, 4, 62, 0
1, 45633, Note_on_c, 4, 59, 0
1, 45650, Note_on_c, 1, 35, 0
1, 45661, Note_on_c, 3, 67, 108
1, 45661, Lyric_t, "stone, "
1, 45663, Note_on_c, 1, 35, 92
1, 45664, Note_on_c, 9, 38, 118
1, 45667, Note_on_c, 4, 43, 20
1, 45670, Note_on_c, 9, 38, 0
1, 45691, Note_on_c, 0, 65, 0
1, 45691, Note_on_c, 0, 71, 0
1, 45691, Note_on_c, 0, 59, 0
1, 45691, Note_on_c, 0, 79, 0
1, 45691, Note_on_c, 0, 74, 0
1, 45691, Note_on_c, 0, 62, 0
1, 45691, Note_on_c, 0, 77, 0
1, 45691, Note_on_c, 0, 67, 0
1, 45691, Note_on_c, 0, 35, 0
1, 45691, Note_on_c, 0, 47, 0
1, 45692, Note_on_c, 1, 35, 0
1, 45693, Note_on_c, 4, 43, 0
1, 45694, Note_on_c, 0, 48, 97
1, 45694, Note_on_c, 0, 67, 80
1, 45694, Note_on_c, 0, 60, 93
1, 45694, Note_on_c, 0, 64, 83
1, 45694, Note_on_c, 0, 36, 76
1, 45695, Note_on_c, 1, 36, 92
1, 45695, Note_on_c, 4, 55, 60
1, 45696, Note_on_c, 9, 36, 104
1, 45696, Note_on_c, 9, 42, 45
1, 45696, Note_on_c, 2, 67, 47
1, 45697, Note_on_c, 2, 72, 47
1, 45697, Note_on_c, 2, 76, 47
1, 45698, Note_on_c, 4, 64, 53
1, 45698, Note_on_c, 4, 60, 74
1, 45702, Note_on_c, 9, 42, 0
1, 45702, Note_on_c, 9, 36, 0
1, 45706, Note_on_c, 2, 71, 0
1, 45706, Note_on_c, 2, 77, 0
1, 45710, Note_on_c, 2, 74, 0
1, 45725, Note_on_c, 3, 67, 0
1, 45730, Note_on_c, 3, 64, 89
1, 45760, Note_on_c, 9, 36, 82
1, 45762, Note_on_c, 3, 64, 0
1, 45763, Note_on_c, 3, 62, 90
1, 45766, Note_on_c, 9, 36, 0
1, 45788, Note_on_c, 0, 60, 0
1, 45789, Note_on_c, 0, 60, 29
1, 45792, Note_on_c, 9, 42, 101
1, 45793, Note_on_c, 3, 62, 0
1, 45794, Note_on_c, 3, 60, 91
1, 45798, Note_on_c, 9, 42, 0
1, 45842, Note_on_c, 3, 60, 0
1, 45844, Note_on_c, 4, 60, 0
1, 45853, Note_on_c, 0, 48, 0
1, 45854, Note_on_c, 0, 48, 88
1, 45855, Note_on_c, 3, 60, 90
1, 45855, Lyric_t, "the "
1, 45856, Note_on_c, 9, 36, 105
1, 45862, Note_on_c, 9, 36, 0
1, 45880, Note_on_c, 3, 60, 0
1, 45882, Note_on_c, 4, 64, 0
1, 45883, Note_on_c, 1, 36, 0
1, 45883, Note_on_c, 4, 55, 0
1, 45886, Note_on_c, 4, 55, 57
1, 45887, Note_on_c, 0, 67, 0
1, 45887, Note_on_c, 0, 60, 0
1, 45887, Note_on_c, 1, 48, 98
1, 45888, Note_on_c, 0, 67, 92
1, 45888, Note_on_c, 3, 64, 99
1, 45888, Note_on_c, 9, 38, 118
1, 45888, Note_on_c, 0, 60, 114
1, 45888, Lyric_t, "rich "
1, 45888, Note_on_c, 9, 42, 17
1, 45889, Note_on_c, 4, 60, 79
1, 45889, Note_on_c, 4, 64, 75
1, 45894, Note_on_c, 9, 42, 0
1, 45894, Note_on_c, 9, 38, 0
1, 45918, Note_on_c, 1, 48, 0
1, 45919, Note_on_c, 1, 43, 75
1, 45939, Note_on_c, 3, 64, 0
1, 45944, Note_on_c, 1, 43, 0
1, 45949, Note_on_c, 0, 64, 0
1, 45950, Note_on_c, 0, 64, 80
1, 45951, Note_on_c, 1, 36, 87
1, 45976, Note_on_c, 1, 36, 0
1, 45978, Note_on_c, 4, 64, 0
1, 45981, Note_on_c, 0, 48, 0
1, 45982, Note_on_c, 0, 48, 66
1, 45983, Note_on_c, 1, 28, 89
1, 45984, Note_on_c, 9, 42, 94
1, 45985, Note_on_c, 3, 64, 110
1, 45985, Lyric_t, "man "
1, 45986, Note_on_c, 4, 64, 57
1, 45990, Note_on_c, 9, 42, 0
1, 46016, Note_on_c, 4, 64, 0
1, 46033, Note_on_c, 4, 60, 0
1, 46037, Note_on_c, 4, 55, 0
1, 46046, Note_on_c, 1, 28, 0
1, 46046, Note_on_c, 3, 64, 0
1, 46046, Note_on_c, 0, 59, 58
1, 46047, Note_on_c, 3, 60, 87
1, 46047, Note_on_c, 1, 29, 84
1, 46048, Note_on_c, 9, 36, 82
1, 46054, Note_on_c, 9, 36, 0
1, 46073, Note_on_c, 0, 36, 0
1, 46073, Note_on_c, 0, 64, 0
1, 46073, Note_on_c, 0, 60, 0
1, 46073, Note_on_c, 0, 48, 0
1, 46073, Note_on_c, 0, 59, 0
1, 46073, Note_on_c, 0, 67, 0
1, 46078, Note_on_c, 2, 67, 0
1, 46078, Note_on_c, 2, 79, 0
1, 46078, Note_on_c, 0, 43, 80
1, 46079, Note_on_c, 2, 79, 46
1, 46079, Note_on_c, 0, 62, 81
1, 46079, Note_on_c, 2, 67, 46
1, 46079, Note_on_c, 0, 67, 83
1, 46079, Note_on_c, 4, 59, 55
1, 46079, Note_on_c, 2, 74, 46
1, 46079, Note_on_c, 0, 55, 93
1, 46080, Note_on_c, 1, 29, 0
1, 46080, Note_on_c, 0, 59, 81
1, 46080, Note_on_c, 2, 71, 46
1, 46080, Note_on_c, 9, 36, 100
1, 46080, Note_on_c, 9, 42, 40
1, 46081, Note_on_c, 1, 31, 96
1, 46081, Note_on_c, 4, 62, 59
1, 46081, Note_on_c, 4, 55, 56
1, 46083, Note_on_c, 4, 67, 60
1, 46086, Note_on_c, 9, 42, 0
1, 46086, Note_on_c, 9, 36, 0
1, 46089, Note_on_c, 2, 76, 0
1, 46089, Note_on_c, 2, 72, 0
1, 46099, Note_on_c, 3, 60, 0
1, 46142, Lyric_t, "sleeps; "
1, 46142, Note_on_c, 3, 62, 96
1, 46142, Lyric_t, ""
1, 46142, Lyric_t, "\015"
1, 46170, Note_on_c, 0, 59, 0
1, 46171, Note_on_c, 0, 59, 40
1, 46176, Note_on_c, 9, 42, 94
1, 46182, Note_on_c, 9, 42, 0
1, 46212, Note_on_c, 4, 67, 0
1, 46214, Note_on_c, 4, 53, 20
1, 46223, Note_on_c, 4, 62, 0
1, 46229, Note_on_c, 4, 59, 0
1, 46232, Note_on_c, 4, 62, 38
1, 46234, Note_on_c, 4, 59, 26
1, 46240, Note_on_c, 3, 62, 0
1, 46240, Note_on_c, 9, 36, 85
1, 46241, Note_on_c, 3, 57, 90
1, 46246, Note_on_c, 9, 36, 0
1, 46248, Note_on_c, 1, 31, 0
1, 46262, Note_on_c, 4, 53, 0
1, 46263, Note_on_c, 4, 55, 0
1, 46264, Note_on_c, 4, 59, 0
1, 46266, Note_on_c, 4, 62, 0
1, 46266, Pitch_bend_c, 3, 8582
1, 46268, Note_on_c, 4, 55, 35
1, 46268, Pitch_bend_c, 3, 9492
1, 46270, Note_on_c, 4, 62, 67
1, 46270, Pitch_bend_c, 3, 9622
1, 46270, Note_on_c, 4, 59, 54
1, 46271, Note_on_c, 0, 55, 0
1, 46271, Note_on_c, 4, 67, 52
1, 46272, Note_on_c, 0, 55, 82
1, 46272, Note_on_c, 9, 38, 118
1, 46272, Pitch_bend_c, 3, 10402
1, 46272, Note_on_c, 9, 42, 24
1, 46273, Note_on_c, 1, 31, 94
1, 46274, Pitch_bend_c, 3, 11442
1, 46275, Pitch_bend_c, 3, 12742
1, 46278, Note_on_c, 9, 42, 0
1, 46278, Note_on_c, 9, 38, 0
1, 46278, Pitch_bend_c, 3, 13652
1, 46279, Pitch_bend_c, 3, 14952
1, 46282, Pitch_bend_c, 3, 15862
1, 46283, Pitch_bend_c, 3, 16382
1, 46304, Pitch_bend_c, 3, 16252
1, 46306, Pitch_bend_c, 3, 15992
1, 46308, Pitch_bend_c, 3, 14562
1, 46310, Pitch_bend_c, 3, 13652
1, 46312, Pitch_bend_c, 3, 13002
1, 46314, Pitch_bend_c, 3, 12742
1, 46316, Pitch_bend_c, 3, 12352
1, 46320, Pitch_bend_c, 3, 12482
1, 46322, Pitch_bend_c, 3, 13132
1, 46323, Pitch_bend_c, 3, 13262
1, 46325, Note_on_c, 4, 67, 0
1, 46326, Note_on_c, 4, 62, 0
1, 46326, Pitch_bend_c, 3, 14952
1, 46327, Pitch_bend_c, 3, 15472
1, 46330, Note_on_c, 4, 55, 0
1, 46330, Pitch_bend_c, 3, 16382
1, 46331, Note_on_c, 4, 59, 0
1, 46333, Note_on_c, 0, 62, 0
1, 46333, Note_on_c, 0, 67, 0
1, 46333, Note_on_c, 4, 67, 81
1, 46334, Note_on_c, 4, 62, 76
1, 46334, Note_on_c, 0, 62, 96
1, 46334, Note_on_c, 0, 71, 97
1, 46334, Note_on_c, 0, 67, 93
1, 46335, Note_on_c, 4, 59, 68
1, 46335, Note_on_c, 4, 55, 61
1, 46358, Note_on_c, 4, 55, 0
1, 46362, Note_on_c, 4, 67, 0
1, 46364, Note_on_c, 4, 59, 0
1, 46365, Note_on_c, 4, 62, 0
1, 46365, Note_on_c, 0, 55, 0
1, 46366, Note_on_c, 0, 55, 55
1, 46367, Note_on_c, 1, 31, 0
1, 46368, Note_on_c, 9, 42, 101
1, 46374, Note_on_c, 9, 42, 0
1, 46429, Note_on_c, 0, 71, 0
1, 46429, Note_on_c, 0, 62, 0
1, 46429, Note_on_c, 0, 67, 0
1, 46429, Note_on_c, 0, 74, 90
1, 46430, Note_on_c, 0, 67, 90
1, 46430, Note_on_c, 0, 71, 96
1, 46430, Note_on_c, 0, 62, 87
1, 46431, Note_on_c, 1, 31, 89
1, 46432, Note_on_c, 9, 38, 118
1, 46438, Note_on_c, 9, 38, 0
1, 46461, Note_on_c, 0, 55, 0
1, 46462, Note_on_c, 1, 31, 0
1, 46462, Note_on_c, 4, 55, 61
1, 46462, Note_on_c, 0, 55, 86
1, 46463, Note_on_c, 4, 62, 77
1, 46463, Note_on_c, 4, 59, 74
1, 46464, Note_on_c, 9, 36, 88
1, 46464, Note_on_c, 9, 42, 49
1, 46464, Note_on_c, 1, 43, 99
1, 46466, Note_on_c, 4, 67, 83
1, 46470, Note_on_c, 9, 42, 0
1, 46470, Note_on_c, 9, 36, 0
1, 46500, Note_on_c, 1, 43, 0
1, 46523, Note_on_c, 0, 55, 0
1, 46523, Note_on_c, 0, 67, 0
1, 46524, Note_on_c, 0, 55, 76
1, 46524, Note_on_c, 0, 79, 87
1, 46524, Note_on_c, 0, 67, 75
1, 46527, Note_on_c, 1, 43, 91
1, 46528, Note_on_c, 9, 36, 91
1, 46534, Note_on_c, 9, 36, 0
1, 46552, Note_on_c, 3, 57, 0
1, 46554, Pitch_bend_c, 3, 16252
1, 46555, Note_on_c, 1, 43, 0
1, 46555, Note_on_c, 4, 59, 0
1, 46556, Note_on_c, 0, 55, 0
1, 46556, Pitch_bend_c, 3, 15862
1, 46557, Note_on_c, 0, 55, 82
1, 46557, Note_on_c, 0, 81, 110
1, 46557, Note_on_c, 0, 69, 99
1, 46558, Pitch_bend_c, 3, 14562
1, 46560, Pitch_bend_c, 3, 14172
1, 46560, Note_on_c, 9, 42, 91
1, 46562, Pitch_bend_c, 3, 13262
1, 46563, Pitch_bend_c, 3, 12482
1, 46566, Note_on_c, 9, 42, 0
1, 46566, Pitch_bend_c, 3, 11442
1, 46567, Pitch_bend_c, 3, 10142
1, 46570, Pitch_bend_c, 3, 9362
1, 46571, Pitch_bend_c, 3, 8192
1, 46604, Note_on_c, 4, 67, 0
1, 46613, Note_on_c, 4, 62, 0
1, 46618, Note_on_c, 4, 62, 29
1, 46619, Note_on_c, 0, 71, 0
1, 46619, Note_on_c, 0, 55, 0
1, 46619, Note_on_c, 0, 83, 99
1, 46620, Note_on_c, 0, 71, 100
1, 46620, Note_on_c, 0, 55, 90
1, 46621, Note_on_c, 4, 59, 20
1, 46623, Note_on_c, 1, 43, 89
1, 46624, Note_on_c, 9, 36, 92
1, 46630, Note_on_c, 9, 36, 0
1, 46650, Note_on_c, 1, 43, 0
1, 46650, Note_on_c, 4, 59, 0
1, 46652, Note_on_c, 4, 62, 0
1, 46654, Note_on_c, 1, 31, 84
1, 46655, Note_on_c, 4, 59, 47
1, 46656, Note_on_c, 9, 38, 118
1, 46656, Note_on_c, 9, 42, 62
1, 46658, Note_on_c, 4, 67, 27
1, 46658, Note_on_c, 4, 62, 52
1, 46662, Note_on_c, 9, 42, 0
1, 46662, Note_on_c, 9, 38, 0
1, 46708, Note_on_c, 4, 67, 0
1, 46708, Note_on_c, 1, 31, 0
1, 46714, Note_on_c, 0, 74, 0
1, 46714, Note_on_c, 4, 62, 0
1, 46715, Note_on_c, 4, 67, 46
1, 46715, Note_on_c, 0, 74, 108
1, 46717, Note_on_c, 4, 59, 0
1, 46717, Note_on_c, 4, 62, 57
1, 46718, Note_on_c, 1, 43, 93
1, 46719, Note_on_c, 4, 59, 50
1, 46720, Note_on_c, 0, 86, 102
1, 46738, Note_on_c, 1, 43, 0
1, 46746, Note_on_c, 0, 55, 0
1, 46747, Note_on_c, 0, 55, 93
1, 46749, Note_on_c, 4, 67, 0
1, 46752, Note_on_c, 9, 42, 101
1, 46754, Note_on_c, 4, 67, 47
1, 46758, Note_on_c, 9, 42, 0
1, 46798, Note_on_c, 4, 67, 0
1, 46805, Note_on_c, 4, 55, 0
1, 46806, Note_on_c, 4, 59, 0
1, 46807, Note_on_c, 3, 55, 94
1, 46807, Lyric_t, "it's "
1, 46810, Note_on_c, 4, 53, 20
1, 46811, Note_on_c, 4, 62, 0
1, 46813, Note_on_c, 4, 62, 29
1, 46815, Note_on_c, 1, 43, 104
1, 46816, Note_on_c, 9, 36, 95
1, 46822, Note_on_c, 9, 36, 0
1, 46831, Note_on_c, 0, 55, 0
1, 46831, Note_on_c, 0, 74, 0
1, 46831, Note_on_c, 0, 67, 0
1, 46831, Note_on_c, 0, 79, 0
1, 46831, Note_on_c, 0, 43, 0
1, 46831, Note_on_c, 0, 71, 0
1, 46831, Note_on_c, 0, 81, 0
1, 46831, Note_on_c, 0, 86, 0
1, 46831, Note_on_c, 0, 59, 0
1, 46831, Note_on_c, 0, 69, 0
1, 46831, Note_on_c, 0, 62, 0
1, 46831, Note_on_c, 0, 83, 0
1, 46840, Note_on_c, 4, 62, 0
1, 46840, Note_on_c, 1, 43, 0
1, 46840, Note_on_c, 4, 53, 0
1, 46843, Note_on_c, 3, 55, 0
1, 46846, Note_on_c, 0, 83, 108
1, 46846, Note_on_c, 0, 55, 108
1, 46846, Note_on_c, 0, 91, 97
1, 46846, Note_on_c, 0, 86, 110
1, 46846, Note_on_c, 0, 43, 75
1, 46847, Note_on_c, 1, 43, 105
1, 46848, Note_on_c, 9, 36, 105
1, 46848, Note_on_c, 9, 42, 44
1, 46848, Note_on_c, 3, 59, 95
1, 46848, Lyric_t, "time "
1, 46854, Note_on_c, 9, 42, 0
1, 46854, Note_on_c, 9, 36, 0
1, 46910, Note_on_c, 4, 49, 20
1, 46911, Note_on_c, 4, 43, 20
1, 46911, Note_on_c, 4, 46, 20
1, 46912, Lyric_t, "we "
1, 46912, Note_on_c, 3, 62, 96
1, 46915, Note_on_c, 3, 59, 0
1, 46940, Note_on_c, 4, 43, 0
1, 46941, Note_on_c, 4, 49, 0
1, 46941, Note_on_c, 4, 46, 0
1, 46942, Note_on_c, 4, 55, 67
1, 46943, Note_on_c, 4, 59, 77
1, 46944, Note_on_c, 3, 62, 0
1, 46944, Note_on_c, 9, 42, 94
1, 46946, Note_on_c, 4, 62, 79
1, 46946, Note_on_c, 4, 67, 79
1, 46948, Note_on_c, 3, 64, 103
1, 46948, Lyric_t, "put "
1, 46950, Note_on_c, 9, 42, 0
1, 46986, Note_on_c, 1, 43, 0
1, 47008, Note_on_c, 9, 36, 88
1, 47014, Note_on_c, 9, 36, 0
1, 47037, Note_on_c, 0, 55, 0
1, 47037, Note_on_c, 0, 86, 0
1, 47037, Note_on_c, 0, 83, 0
1, 47038, Note_on_c, 4, 67, 0
1, 47038, Note_on_c, 0, 79, 99
1, 47038, Note_on_c, 0, 86, 88
1, 47038, Note_on_c, 0, 83, 99
1, 47038, Note_on_c, 0, 55, 82
1, 47039, Note_on_c, 1, 43, 103
1, 47040, Note_on_c, 4, 62, 0
1, 47040, Note_on_c, 9, 38, 118
1, 47042, Note_on_c, 4, 62, 76
1, 47042, Note_on_c, 4, 67, 81
1, 47046, Note_on_c, 9, 38, 0
1, 47048, Note_on_c, 3, 64, 0
1, 47089, Note_on_c, 1, 43, 0
1, 47103, Note_on_c, 1, 43, 83
1, 47122, Note_on_c, 1, 43, 0
1, 47126, Note_on_c, 4, 55, 0
1, 47134, Note_on_c, 4, 62, 0
1, 47134, Note_on_c, 4, 55, 50
1, 47136, Note_on_c, 4, 67, 0
1, 47136, Note_on_c, 9, 42, 88
1, 47138, Note_on_c, 4, 67, 63
1, 47138, Note_on_c, 4, 62, 74
1, 47142, Note_on_c, 9, 42, 0
1, 47168, Note_on_c, 4, 67, 0
1, 47189, Note_on_c, 4, 59, 0
1, 47190, Note_on_c, 4, 62, 0
1, 47192, Note_on_c, 4, 55, 0
1, 47195, Note_on_c, 4, 67, 20
1, 47195, Note_on_c, 4, 62, 44
1, 47199, Note_on_c, 1, 43, 93
1, 47199, Lyric_t, "the "
1, 47199, Note_on_c, 3, 55, 93
1, 47200, Note_on_c, 9, 38, 118
1, 47206, Note_on_c, 9, 38, 0
1, 47213, Note_on_c, 4, 67, 0
1, 47214, Note_on_c, 4, 62, 0
1, 47224, Note_on_c, 1, 43, 0
1, 47227, Note_on_c, 0, 79, 0
1, 47227, Note_on_c, 0, 55, 0
1, 47227, Note_on_c, 0, 86, 0
1, 47227, Note_on_c, 0, 83, 0
1, 47227, Note_on_c, 0, 91, 0
1, 47227, Note_on_c, 0, 43, 0
1, 47230, Note_on_c, 3, 55, 0
1, 47230, Note_on_c, 0, 55, 76
1, 47230, Note_on_c, 0, 72, 88
1, 47230, Note_on_c, 0, 64, 77
1, 47230, Note_on_c, 0, 67, 77
1, 47230, Note_on_c, 4, 55, 63
1, 47230, Note_on_c, 0, 43, 67
1, 47231, Note_on_c, 1, 43, 100
1, 47232, Note_on_c, 9, 42, 49
1, 47232, Note_on_c, 9, 36, 91
1, 47233, Note_on_c, 2, 76, 44
1, 47233, Note_on_c, 4, 60, 73
1, 47233, Note_on_c, 4, 64, 73
1, 47233, Note_on_c, 2, 72, 44
1, 47235, Note_on_c, 2, 74, 0
1, 47238, Note_on_c, 9, 36, 0
1, 47238, Note_on_c, 9, 42, 0
1, 47238, Note_on_c, 3, 64, 97
1, 47238, Lyric_t, "flame "
1, 47242, Note_on_c, 2, 71, 0
1, 47283, Note_on_c, 1, 43, 0
1, 47295, Note_on_c, 1, 43, 99
1, 47296, Note_on_c, 9, 36, 89
1, 47297, Note_on_c, 3, 64, 0
1, 47302, Note_on_c, 9, 36, 0
1, 47314, Note_on_c, 1, 43, 0
1, 47322, Note_on_c, 0, 64, 0
1, 47323, Note_on_c, 0, 64, 39
1, 47328, Note_on_c, 9, 42, 85
1, 47330, Note_on_c, 3, 62, 100
1, 47330, Lyric_t, "torch "
1, 47334, Note_on_c, 9, 42, 0
1, 47378, Note_on_c, 3, 62, 0
1, 47389, Note_on_c, 0, 55, 0
1, 47390, Note_on_c, 0, 55, 76
1, 47391, Note_on_c, 1, 43, 99
1, 47392, Note_on_c, 9, 36, 101
1, 47398, Note_on_c, 9, 36, 0
1, 47414, Note_on_c, 1, 43, 0
1, 47422, Note_on_c, 0, 67, 0
1, 47422, Note_on_c, 0, 72, 0
1, 47422, Note_on_c, 0, 64, 0
1, 47422, Note_on_c, 4, 64, 0
1, 47423, Note_on_c, 0, 67, 95
1, 47423, Note_on_c, 1, 43, 79
1, 47423, Note_on_c, 0, 72, 95
1, 47423, Note_on_c, 0, 64, 95
1, 47423, Note_on_c, 4, 64, 50
1, 47424, Note_on_c, 9, 38, 118
1, 47424, Note_on_c, 9, 42, 65
1, 47430, Note_on_c, 9, 42, 0
1, 47430, Note_on_c, 9, 38, 0
1, 47475, Note_on_c, 1, 43, 0
1, 47482, Note_on_c, 4, 55, 0
1, 47484, Note_on_c, 4, 64, 0
1, 47486, Note_on_c, 4, 60, 0
1, 47487, Note_on_c, 4, 64, 75
1, 47488, Note_on_c, 4, 60, 69
1, 47489, Note_on_c, 1, 43, 97
1, 47490, Note_on_c, 4, 55, 57
1, 47504, Note_on_c, 1, 43, 0
1, 47506, Note_on_c, 3, 58, 97
1, 47506, Lyric_t, "to "
1, 47517, Note_on_c, 4, 64, 0
1, 47518, Note_on_c, 4, 55, 0
1, 47520, Note_on_c, 9, 42, 85
1, 47521, Note_on_c, 4, 55, 57
1, 47522, Note_on_c, 4, 64, 74
1, 47526, Note_on_c, 9, 42, 0
1, 47552, Note_on_c, 4, 64, 0
1, 47557, Note_on_c, 3, 58, 0
1, 47560, Lyric_t, "their "
1, 47560, Note_on_c, 3, 55, 88
1, 47578, Note_on_c, 4, 60, 0
1, 47583, Note_on_c, 1, 43, 97
1, 47589, Note_on_c, 3, 55, 0
1, 47592, Note_on_c, 4, 55, 0
1, 47605, Note_on_c, 1, 43, 0
1, 47615, Note_on_c, 2, 70, 43
1, 47615, Note_on_c, 1, 36, 92
1, 47616, Note_on_c, 0, 48, 80
1, 47616, Note_on_c, 9, 42, 65
1, 47616, Note_on_c, 9, 36, 105
1, 47616, Note_on_c, 2, 74, 52
1, 47616, Note_on_c, 0, 36, 78
1, 47616, Note_on_c, 2, 77, 52
1, 47616, Note_on_c, 2, 65, 62
1, 47618, Note_on_c, 4, 62, 67
1, 47618, Note_on_c, 4, 58, 43
1, 47618, Note_on_c, 4, 53, 68
1, 47619, Note_on_c, 4, 67, 61
1, 47619, Lyric_t, ""
1, 47619, Lyric_t, "\015"
1, 47619, Lyric_t, "keep. "
1, 47619, Note_on_c, 3, 57, 108
1, 47622, Note_on_c, 9, 36, 0
1, 47622, Note_on_c, 9, 42, 0
1, 47628, Note_on_c, 2, 67, 0
1, 47628, Note_on_c, 2, 76, 0
1, 47628, Note_on_c, 2, 79, 0
1, 47628, Note_on_c, 2, 72, 0
1, 47644, Note_on_c, 0, 72, 0
1, 47644, Note_on_c, 0, 55, 0
1, 47644, Note_on_c, 0, 67, 0
1, 47644, Note_on_c, 0, 64, 0
1, 47644, Note_on_c, 0, 43, 0
1, 47678, Note_on_c, 0, 58, 76
1, 47678, Note_on_c, 0, 62, 92
1, 47678, Note_on_c, 0, 55, 89
1, 47678, Note_on_c, 0, 65, 86
1, 47712, Note_on_c, 9, 42, 75
1, 47718, Note_on_c, 9, 42, 0
1, 47718, Note_on_c, 3, 57, 0
1, 47746, Note_on_c, 3, 57, 103
1, 47756, Note_on_c, 4, 67, 0
1, 47766, Note_on_c, 4, 62, 0
1, 47766, Pitch_bend_c, 3, 8322
1, 47767, Pitch_bend_c, 3, 8712
1, 47770, Note_on_c, 4, 53, 0
1, 47770, Pitch_bend_c, 3, 9102
1, 47771, Note_on_c, 4, 58, 0
1, 47771, Note_on_c, 4, 53, 20
1, 47771, Pitch_bend_c, 3, 10012
1, 47773, Pitch_bend_c, 3, 10402
1, 47775, Pitch_bend_c, 3, 10922
1, 47776, Note_on_c, 9, 36, 105
1, 47777, Pitch_bend_c, 3, 11442
1, 47779, Pitch_bend_c, 3, 12092
1, 47781, Pitch_bend_c, 3, 12352
1, 47782, Note_on_c, 9, 36, 0
1, 47782, Pitch_bend_c, 3, 12742
1, 47785, Pitch_bend_c, 3, 13002
1, 47786, Pitch_bend_c, 3, 13262
1, 47789, Pitch_bend_c, 3, 13392
1, 47790, Pitch_bend_c, 3, 13652
1, 47792, Pitch_bend_c, 3, 13782
1, 47794, Pitch_bend_c, 3, 13912
1, 47796, Pitch_bend_c, 3, 12872
1, 47798, Pitch_bend_c, 3, 9882
1, 47800, Pitch_bend_c, 3, 8192
1, 47805, Note_on_c, 0, 48, 0
1, 47806, Note_on_c, 4, 53, 0
1, 47806, Note_on_c, 0, 48, 96
1, 47807, Note_on_c, 4, 53, 71
1, 47808, Note_on_c, 9, 42, 45
1, 47808, Note_on_c, 9, 38, 118
1, 47810, Note_on_c, 4, 62, 81
1, 47810, Note_on_c, 4, 58, 77
1, 47811, Note_on_c, 4, 67, 81
1, 47814, Note_on_c, 9, 38, 0
1, 47814, Note_on_c, 9, 42, 0
1, 47827, Note_on_c, 3, 57, 0
1, 47829, Note_on_c, 3, 55, 94
1, 47869, Note_on_c, 0, 55, 0
1, 47869, Note_on_c, 0, 65, 0
1, 47869, Note_on_c, 0, 62, 0
1, 47869, Note_on_c, 0, 58, 0
1, 47870, Note_on_c, 0, 65, 90
1, 47870, Note_on_c, 0, 62, 100
1, 47870, Note_on_c, 0, 55, 92
1, 47870, Note_on_c, 0, 58, 86
1, 47896, Note_on_c, 4, 58, 0
1, 47902, Note_on_c, 4, 62, 0
1, 47904, Note_on_c, 9, 42, 82
1, 47910, Note_on_c, 9, 42, 0
1, 47965, Note_on_c, 0, 48, 0
1, 47966, Note_on_c, 0, 48, 100
1, 47968, Note_on_c, 9, 38, 116
1, 47974, Note_on_c, 9, 38, 0
1, 47997, Note_on_c, 0, 36, 0
1, 47998, Note_on_c, 0, 36, 75
1, 48000, Note_on_c, 1, 36, 0
1, 48000, Note_on_c, 9, 36, 91
1, 48000, Note_on_c, 9, 42, 35
1, 48001, Note_on_c, 1, 46, 80
1, 48001, Note_on_c, 2, 82, 48
1, 48006, Note_on_c, 9, 42, 0
1, 48006, Note_on_c, 9, 36, 0
1, 48013, Pitch_bend_c, 1, 9947
1, 48017, Pitch_bend_c, 1, 12755
1, 48021, Pitch_bend_c, 1, 15095
1, 48022, Pitch_bend_c, 1, 16383
1, 48026, Note_on_c, 4, 67, 0
1, 48036, Note_on_c, 4, 62, 25
1, 48047, Note_on_c, 0, 62, 0
1, 48047, Note_on_c, 0, 55, 0
1, 48047, Note_on_c, 0, 58, 0
1, 48047, Note_on_c, 0, 65, 0
1, 48047, Note_on_c, 0, 48, 0
1, 48058, Note_on_c, 4, 53, 0
1, 48059, Note_on_c, 4, 58, 78
1, 48061, Note_on_c, 4, 53, 70
1, 48061, Note_on_c, 0, 48, 108
1, 48061, Note_on_c, 0, 67, 89
1, 48061, Note_on_c, 0, 58, 86
1, 48062, Note_on_c, 0, 62, 102
1, 48062, Note_on_c, 0, 65, 93
1, 48064, Note_on_c, 9, 36, 91
1, 48066, Note_on_c, 4, 62, 0
1, 48070, Note_on_c, 9, 36, 0
1, 48084, Note_on_c, 4, 53, 0
1, 48090, Note_on_c, 4, 58, 0
1, 48096, Note_on_c, 9, 42, 73
1, 48102, Note_on_c, 9, 42, 0
1, 48156, Note_on_c, 4, 46, 20
1, 48156, Note_on_c, 4, 42, 20
1, 48157, Note_on_c, 0, 48, 0
1, 48158, Note_on_c, 0, 48, 93
1, 48160, Note_on_c, 9, 38, 118
1, 48166, Note_on_c, 9, 38, 0
1, 48180, Note_on_c, 3, 55, 0
1, 48186, Note_on_c, 4, 46, 0
1, 48186, Note_on_c, 4, 42, 0
1, 48189, Note_on_c, 0, 36, 0
1, 48190, Note_on_c, 0, 36, 77
1, 48190, Note_on_c, 4, 53, 70
1, 48191, Note_on_c, 4, 58, 76
1, 48192, Note_on_c, 9, 42, 42
1, 48192, Note_on_c, 9, 36, 100
1, 48193, Note_on_c, 4, 62, 80
1, 48198, Note_on_c, 9, 36, 0
1, 48198, Note_on_c, 9, 42, 0
1, 48224, Note_on_c, 9, 38, 107
1, 48230, Note_on_c, 9, 38, 0
1, 48253, Note_on_c, 0, 36, 0
1, 48253, Note_on_c, 0, 48, 0
1, 48253, Note_on_c, 0, 62, 0
1, 48253, Note_on_c, 0, 65, 0
1, 48254, Note_on_c, 0, 62, 101
1, 48254, Note_on_c, 0, 65, 101
1, 48254, Note_on_c, 0, 48, 101
1, 48254, Note_on_c, 0, 36, 101
1, 48254, Note_on_c, 0, 70, 101
1, 48256, Note_on_c, 9, 38, 108
1, 48262, Note_on_c, 9, 38, 0
1, 48274, Note_on_c, 4, 53, 0
1, 48281, Note_on_c, 4, 58, 0
1, 48283, Note_on_c, 4, 62, 0
1, 48284, Note_on_c, 4, 58, 50
1, 48286, Note_on_c, 4, 53, 39
1, 48288, Note_on_c, 9, 42, 88
1, 48288, Note_on_c, 9, 45, 86
1, 48290, Note_on_c, 4, 62, 58
1, 48294, Note_on_c, 9, 45, 0
1, 48294, Note_on_c, 9, 42, 0
1, 48300, Note_on_c, 1, 46, 0
1, 48320, Note_on_c, 9, 45, 83
1, 48320, Pitch_bend_c, 1, 16382
1, 48322, Pitch_bend_c, 1, 16031
1, 48326, Note_on_c, 9, 45, 0
1, 48326, Pitch_bend_c, 1, 15563
1, 48328, Pitch_bend_c, 1, 14978
1, 48332, Pitch_bend_c, 1, 14159
1, 48336, Pitch_bend_c, 1, 13340
1, 48338, Pitch_bend_c, 1, 12404
1, 48342, Pitch_bend_c, 1, 11234
1, 48343, Pitch_bend_c, 1, 10064
1, 48346, Note_on_c, 4, 58, 0
1, 48347, Pitch_bend_c, 1, 9245
1, 48349, Note_on_c, 0, 48, 0
1, 48349, Note_on_c, 4, 58, 29
1, 48349, Pitch_bend_c, 1, 8777
1, 48350, Note_on_c, 0, 48, 87
1, 48352, Note_on_c, 9, 43, 80
1, 48353, Pitch_bend_c, 1, 8543
1, 48357, Pitch_bend_c, 1, 8309
1, 48358, Note_on_c, 9, 43, 0
1, 48358, Pitch_bend_c, 1, 8192
1, 48378, Note_on_c, 4, 58, 0
1, 48381, Note_on_c, 4, 62, 0
1, 48381, Note_on_c, 0, 36, 0
1, 48381, Note_on_c, 4, 53, 0
1, 48382, Note_on_c, 0, 36, 78
1, 48383, Note_on_c, 4, 53, 67
1, 48384, Note_on_c, 9, 38, 114
1, 48385, Note_on_c, 1, 60, 89
1, 48385, Note_on_c, 2, 86, 58
1, 48386, Note_on_c, 4, 58, 57
1, 48387, Note_on_c, 4, 62, 50
1, 48390, Note_on_c, 9, 38, 0
1, 48399, Note_on_c, 2, 65, 0
1, 48445, Note_on_c, 1, 60, 0
1, 48446, Note_on_c, 0, 48, 0
1, 48446, Note_on_c, 0, 70, 0
1, 48446, Note_on_c, 0, 65, 0
1, 48447, Note_on_c, 0, 74, 102
1, 48447, Note_on_c, 0, 65, 104
1, 48447, Note_on_c, 1, 58, 76
1, 48447, Note_on_c, 0, 70, 103
1, 48447, Note_on_c, 0, 48, 100
1, 48480, Note_on_c, 4, 58, 0
1, 48480, Note_on_c, 9, 44, 65
1, 48486, Note_on_c, 9, 44, 0
1, 48486, Note_on_c, 4, 62, 0
1, 48499, Note_on_c, 1, 58, 0
1, 48540, Note_on_c, 4, 62, 31
1, 48542, Note_on_c, 0, 48, 0
1, 48543, Note_on_c, 0, 48, 96
1, 48543, Note_on_c, 1, 55, 79
1, 48544, Note_on_c, 9, 41, 87
1, 48550, Note_on_c, 9, 41, 0
1, 48574, Note_on_c, 1, 55, 0
1, 48574, Note_on_c, 4, 53, 0
1, 48574, Note_on_c, 4, 62, 0
1, 48574, Note_on_c, 0, 36, 0
1, 48575, Note_on_c, 0, 36, 73
1, 48578, Note_on_c, 4, 58, 77
1, 48578, Note_on_c, 4, 53, 66
1, 48579, Note_on_c, 4, 62, 80
1, 48638, Note_on_c, 0, 70, 0
1, 48638, Note_on_c, 0, 65, 0
1, 48638, Note_on_c, 0, 74, 0
1, 48638, Note_on_c, 0, 48, 0
1, 48639, Note_on_c, 1, 53, 90
1, 48639, Note_on_c, 0, 77, 119
1, 48639, Note_on_c, 0, 74, 106
1, 48639, Note_on_c, 0, 65, 108
1, 48639, Note_on_c, 0, 70, 109
1, 48639, Note_on_c, 0, 48, 100
1, 48640, Note_on_c, 9, 38, 94
1, 48646, Note_on_c, 9, 38, 0
1, 48666, Note_on_c, 1, 53, 0
1, 48672, Note_on_c, 9, 44, 73
1, 48672, Note_on_c, 9, 38, 94
1, 48676, Note_on_c, 4, 58, 0
1, 48678, Note_on_c, 9, 38, 0
1, 48678, Note_on_c, 9, 44, 0
1, 48681, Note_on_c, 4, 62, 0
1, 48704, Note_on_c, 9, 38, 114
1, 48710, Note_on_c, 9, 38, 0
1, 48734, Note_on_c, 0, 48, 0
1, 48734, Note_on_c, 4, 53, 0
1, 48735, Note_on_c, 4, 46, 20
1, 48735, Note_on_c, 0, 48, 110
1, 48735, Note_on_c, 1, 48, 99
1, 48736, Note_on_c, 9, 45, 104
1, 48738, Note_on_c, 4, 53, 23
1, 48742, Note_on_c, 9, 45, 0
1, 48765, Note_on_c, 4, 46, 0
1, 48766, Note_on_c, 0, 36, 0
1, 48767, Note_on_c, 0, 36, 78
1, 48768, Note_on_c, 1, 48, 0
1, 48768, Note_on_c, 9, 36, 71
1, 48774, Note_on_c, 9, 36, 0
1, 48774, Note_on_c, 4, 58, 35
1, 48800, Note_on_c, 9, 43, 59
1, 48806, Note_on_c, 9, 43, 0
1, 48819, Note_on_c, 4, 58, 0
1, 48826, Note_on_c, 4, 53, 0
1, 48828, Note_on_c, 4, 67, 63
1, 48829, Note_on_c, 4, 58, 74
1, 48830, Note_on_c, 0, 77, 0
1, 48830, Note_on_c, 0, 70, 0
1, 48830, Note_on_c, 0, 48, 0
1, 48830, Note_on_c, 0, 74, 0
1, 48830, Note_on_c, 4, 53, 63
1, 48831, Note_on_c, 0, 48, 106
1, 48831, Note_on_c, 0, 77, 90
1, 48831, Note_on_c, 0, 70, 118
1, 48831, Note_on_c, 0, 74, 102
1, 48831, Note_on_c, 0, 82, 112
1, 48832, Note_on_c, 1, 46, 91
1, 48832, Note_on_c, 4, 62, 84
1, 48832, Note_on_c, 9, 45, 101
1, 48838, Note_on_c, 9, 45, 0
1, 48858, Note_on_c, 4, 58, 0
1, 48859, Note_on_c, 4, 53, 0
1, 48861, Note_on_c, 1, 46, 0
1, 48862, Note_on_c, 4, 62, 0
1, 48864, Note_on_c, 9, 45, 78
1, 48864, Note_on_c, 9, 44, 82
1, 48866, Lyric_t, ""
1, 48866, Lyric_t, "\015"
1, 48870, Note_on_c, 9, 44, 0
1, 48870, Note_on_c, 9, 45, 0
1, 48870, Note_on_c, 4, 67, 0
1, 48896, Note_on_c, 9, 43, 105
1, 48902, Note_on_c, 9, 43, 0
1, 48921, Note_on_c, 4, 49, 20
1, 48925, Note_on_c, 4, 58, 26
1, 48926, Note_on_c, 0, 48, 0
1, 48927, Note_on_c, 4, 53, 20
1, 48927, Note_on_c, 0, 48, 102
1, 48928, Note_on_c, 9, 45, 97
1, 48928, Note_on_c, 1, 43, 109
1, 48934, Note_on_c, 9, 45, 0
1, 48951, Note_on_c, 4, 49, 0
1, 48954, Note_on_c, 4, 58, 0
1, 48957, Note_on_c, 4, 53, 0
1, 48958, Note_on_c, 0, 36, 0
1, 48958, Note_on_c, 4, 58, 64
1, 48959, Note_on_c, 1, 43, 0
1, 48959, Note_on_c, 4, 53, 71
1, 48959, Note_on_c, 0, 36, 71
1, 48960, Note_on_c, 1, 41, 100
1, 48960, Note_on_c, 9, 43, 78
1, 48962, Note_on_c, 4, 62, 79
1, 48962, Note_on_c, 4, 67, 69
1, 48966, Note_on_c, 9, 43, 0
1, 48991, Note_on_c, 1, 41, 0
1, 48992, Note_on_c, 9, 45, 103
1, 48992, Note_on_c, 1, 43, 93
1, 48998, Note_on_c, 9, 45, 0
1, 49019, Note_on_c, 1, 43, 0
1, 49020, Note_on_c, 4, 67, 0
1, 49022, Note_on_c, 0, 48, 0
1, 49022, Note_on_c, 0, 82, 0
1, 49022, Note_on_c, 0, 77, 0
1, 49023, Note_on_c, 0, 89, 124
1, 49023, Note_on_c, 0, 48, 100
1, 49023, Note_on_c, 0, 77, 124
1, 49023, Note_on_c, 0, 84, 116
1, 49023, Note_on_c, 0, 82, 103
1, 49024, Note_on_c, 1, 46, 86
1, 49024, Note_on_c, 9, 43, 78
1, 49030, Note_on_c, 9, 43, 0
1, 49051, Note_on_c, 4, 62, 0
1, 49053, Note_on_c, 4, 58, 0
1, 49054, Note_on_c, 4, 58, 70
1, 49055, Note_on_c, 4, 53, 0
1, 49055, Note_on_c, 1, 46, 0
1, 49056, Note_on_c, 9, 38, 103
1, 49056, Note_on_c, 1, 43, 81
1, 49056, Note_on_c, 9, 44, 75
1, 49057, Note_on_c, 4, 53, 44
1, 49058, Note_on_c, 4, 62, 60
1, 49062, Note_on_c, 9, 44, 0
1, 49062, Note_on_c, 9, 38, 0
1, 49082, Note_on_c, 1, 43, 0
1, 49088, Note_on_c, 1, 41, 96
1, 49107, Note_on_c, 1, 41, 0
1, 49118, Note_on_c, 4, 53, 0
1, 49120, Note_on_c, 1, 36, 92
1, 49122, Note_on_c, 4, 44, 20
1, 49122, Note_on_c, 4, 42, 20
1, 49123, Note_on_c, 4, 62, 0
1, 49124, Note_on_c, 4, 58, 0
1, 49127, Note_on_c, 2, 82, 0
1, 49130, Note_on_c, 2, 86, 0
1, 49134, Note_on_c, 2, 74, 0
1, 49136, Note_on_c, 2, 77, 0
1, 49136, Note_on_c, 2, 70, 0
1, 49141, Note_on_c, 1, 36, 0
1, 49144, Note_on_c, 4, 42, 0
1, 49146, Note_on_c, 0, 67, 0
1, 49146, Note_on_c, 0, 58, 0
1, 49146, Note_on_c, 0, 36, 0
1, 49146, Note_on_c, 0, 77, 0
1, 49146, Note_on_c, 0, 82, 0
1, 49146, Note_on_c, 0, 84, 0
1, 49146, Note_on_c, 0, 70, 0
1, 49146, Note_on_c, 0, 62, 0
1, 49146, Note_on_c, 0, 74, 0
1, 49146, Note_on_c, 0, 65, 0
1, 49146, Note_on_c, 0, 48, 0
1, 49146, Note_on_c, 0, 89, 0
1, 49150, Note_on_c, 4, 44, 0
1, 49150, Note_on_c, 0, 37, 72
1, 49152, Note_on_c, 0, 56, 93
1, 49152, Note_on_c, 4, 53, 37
1, 49152, Note_on_c, 0, 61, 93
1, 49152, Note_on_c, 0, 49, 84
1, 49152, Note_on_c, 9, 42, 62
1, 49152, Note_on_c, 9, 36, 95
1, 49152, Note_on_c, 9, 49, 79
1, 49152, Note_on_c, 1, 37, 106
1, 49154, Note_on_c, 4, 56, 58
1, 49154, Note_on_c, 2, 73, 52
1, 49154, Note_on_c, 0, 65, 93
1, 49154, Note_on_c, 2, 77, 52
1, 49154, Note_on_c, 2, 68, 52
1, 49155, Note_on_c, 4, 61, 50
1, 49158, Note_on_c, 9, 49, 0
1, 49158, Note_on_c, 9, 36, 0
1, 49158, Note_on_c, 9, 42, 0
1, 49247, Note_on_c, 0, 56, 0
1, 49248, Note_on_c, 0, 56, 29
1, 49248, Note_on_c, 9, 42, 35
1, 49250, Note_on_c, 4, 61, 0
1, 49250, Note_on_c, 3, 65, 97
1, 49250, Lyric_t, "Burn "
1, 49254, Note_on_c, 9, 42, 0
1, 49300, Note_on_c, 1, 37, 0
1, 49302, Note_on_c, 3, 65, 0
1, 49304, Note_on_c, 4, 56, 0
1, 49307, Note_on_c, 4, 61, 32
1, 49312, Note_on_c, 9, 36, 73
1, 49312, Note_on_c, 1, 41, 83
1, 49313, Note_on_c, 0, 49, 0
1, 49313, Lyric_t, "down "
1, 49313, Note_on_c, 3, 68, 96
1, 49314, Note_on_c, 0, 49, 89
1, 49318, Note_on_c, 9, 36, 0
1, 49341, Note_on_c, 4, 61, 0
1, 49341, Note_on_c, 1, 41, 0
1, 49342, Note_on_c, 4, 53, 0
1, 49342, Note_on_c, 0, 68, 76
1, 49343, Note_on_c, 0, 61, 0
1, 49344, Note_on_c, 1, 44, 87
1, 49344, Note_on_c, 9, 42, 71
1, 49344, Note_on_c, 9, 38, 108
1, 49344, Note_on_c, 4, 53, 44
1, 49344, Note_on_c, 0, 61, 95
1, 49347, Note_on_c, 4, 61, 70
1, 49350, Note_on_c, 9, 38, 0
1, 49350, Note_on_c, 9, 42, 0
1, 49391, Note_on_c, 4, 61, 0
1, 49406, Note_on_c, 0, 65, 0
1, 49406, Note_on_c, 4, 53, 0
1, 49406, Note_on_c, 4, 61, 85
1, 49407, Note_on_c, 0, 65, 66
1, 49407, Note_on_c, 4, 56, 80
1, 49409, Note_on_c, 4, 53, 56
1, 49436, Note_on_c, 4, 61, 0
1, 49437, Note_on_c, 0, 49, 0
1, 49437, Note_on_c, 4, 56, 0
1, 49438, Note_on_c, 4, 53, 0
1, 49438, Note_on_c, 0, 49, 79
1, 49440, Note_on_c, 9, 42, 60
1, 49446, Note_on_c, 9, 42, 0
1, 49447, Note_on_c, 1, 44, 0
1, 49462, Note_on_c, 3, 68, 0
1, 49499, Note_on_c, 0, 61, 0
1, 49500, Note_on_c, 0, 61, 52
1, 49501, Note_on_c, 3, 70, 93
1, 49501, Lyric_t, "the "
1, 49504, Note_on_c, 1, 37, 95
1, 49504, Note_on_c, 9, 38, 107
1, 49510, Note_on_c, 9, 38, 0
1, 49521, Note_on_c, 0, 56, 0
1, 49521, Note_on_c, 0, 49, 0
1, 49521, Note_on_c, 0, 37, 0
1, 49521, Note_on_c, 0, 68, 0
1, 49521, Note_on_c, 0, 65, 0
1, 49525, Note_on_c, 0, 61, 0
1, 49533, Note_on_c, 4, 63, 61
1, 49533, Note_on_c, 4, 60, 65
1, 49533, Note_on_c, 4, 56, 54
1, 49534, Note_on_c, 0, 63, 95
1, 49534, Note_on_c, 0, 56, 97
1, 49534, Note_on_c, 0, 68, 84
1, 49534, Note_on_c, 0, 44, 86
1, 49535, Note_on_c, 2, 68, 0
1, 49535, Note_on_c, 1, 37, 0
1, 49536, Note_on_c, 1, 44, 99
1, 49536, Note_on_c, 9, 42, 85
1, 49536, Note_on_c, 4, 54, 20
1, 49536, Note_on_c, 0, 60, 89
1, 49536, Note_on_c, 2, 68, 57
1, 49536, Note_on_c, 9, 36, 82
1, 49536, Note_on_c, 2, 72, 57
1, 49536, Note_on_c, 2, 75, 57
1, 49537, Note_on_c, 3, 70, 0
1, 49538, Note_on_c, 3, 70, 96
1, 49538, Lyric_t, "mis"
1, 49542, Note_on_c, 9, 36, 0
1, 49542, Note_on_c, 9, 42, 0
1, 49545, Note_on_c, 2, 73, 0
1, 49545, Note_on_c, 2, 77, 0
1, 49566, Note_on_c, 3, 70, 0
1, 49568, Lyric_t, "sion, "
1, 49568, Note_on_c, 3, 68, 97
1, 49599, Note_on_c, 1, 44, 0
1, 49600, Note_on_c, 1, 32, 82
1, 49600, Note_on_c, 9, 36, 66
1, 49606, Note_on_c, 9, 36, 0
1, 49619, Note_on_c, 3, 68, 0
1, 49626, Note_on_c, 4, 60, 0
1, 49632, Note_on_c, 9, 42, 51
1, 49633, Note_on_c, 1, 32, 0
1, 49636, Note_on_c, 4, 63, 0
1, 49638, Note_on_c, 9, 42, 0
1, 49656, Lyric_t, ""
1, 49656, Lyric_t, "\015"
1, 49656, Lyric_t, "Lord, "
1, 49671, Note_on_c, 4, 50, 20
1, 49681, Note_on_c, 3, 65, 92
1, 49690, Note_on_c, 0, 68, 0
1, 49690, Note_on_c, 0, 63, 0
1, 49690, Note_on_c, 0, 56, 0
1, 49690, Note_on_c, 0, 60, 0
1, 49694, Note_on_c, 0, 56, 91
1, 49696, Note_on_c, 9, 36, 72
1, 49696, Note_on_c, 1, 32, 82
1, 49702, Note_on_c, 9, 36, 0
1, 49703, Note_on_c, 3, 65, 0
1, 49706, Note_on_c, 3, 63, 96
1, 49716, Note_on_c, 4, 50, 0
1, 49722, Note_on_c, 4, 56, 0
1, 49725, Note_on_c, 0, 68, 86
1, 49725, Note_on_c, 4, 56, 32
1, 49726, Note_on_c, 0, 63, 89
1, 49726, Note_on_c, 0, 72, 99
1, 49726, Note_on_c, 0, 60, 96
1, 49727, Note_on_c, 1, 32, 0
1, 49728, Note_on_c, 3, 63, 0
1, 49728, Note_on_c, 9, 46, 85
1, 49728, Note_on_c, 9, 38, 110
1, 49728, Note_on_c, 1, 44, 100
1, 49734, Note_on_c, 9, 38, 0
1, 49734, Note_on_c, 9, 46, 0
1, 49735, Note_on_c, 3, 61, 90
1, 49769, Note_on_c, 1, 44, 0
1, 49786, Note_on_c, 4, 56, 0
1, 49790, Note_on_c, 4, 63, 84
1, 49791, Note_on_c, 4, 60, 75
1, 49792, Note_on_c, 1, 44, 82
1, 49793, Note_on_c, 4, 54, 0
1, 49793, Note_on_c, 4, 56, 67
1, 49813, Note_on_c, 1, 44, 0
1, 49815, Note_on_c, 4, 63, 0
1, 49820, Note_on_c, 4, 60, 0
1, 49820, Note_on_c, 0, 44, 0
1, 49821, Note_on_c, 0, 44, 55
1, 49822, Note_on_c, 4, 56, 0
1, 49824, Note_on_c, 9, 42, 65
1, 49830, Note_on_c, 9, 42, 0
1, 49864, Note_on_c, 3, 61, 0
1, 49888, Note_on_c, 9, 36, 59
1, 49888, Note_on_c, 1, 44, 89
1, 49894, Note_on_c, 9, 36, 0
1, 49909, Note_on_c, 0, 56, 0
1, 49909, Note_on_c, 0, 44, 0
1, 49909, Note_on_c, 0, 68, 0
1, 49909, Note_on_c, 0, 60, 0
1, 49909, Note_on_c, 0, 72, 0
1, 49909, Note_on_c, 0, 63, 0
1, 49917, Note_on_c, 4, 54, 56
1, 49918, Note_on_c, 1, 44, 0
1, 49920, Note_on_c, 0, 70, 89
1, 49920, Note_on_c, 0, 54, 95
1, 49920, Note_on_c, 4, 58, 77
1, 49920, Note_on_c, 1, 42, 92
1, 49920, Note_on_c, 0, 73, 83
1, 49920, Note_on_c, 9, 36, 86
1, 49920, Note_on_c, 0, 66, 93
1, 49920, Note_on_c, 0, 42, 95
1, 49920, Note_on_c, 9, 42, 88
1, 49921, Note_on_c, 4, 66, 37
1, 49922, Note_on_c, 4, 61, 67
1, 49922, Note_on_c, 2, 70, 51
1, 49922, Note_on_c, 2, 66, 51
1, 49923, Note_on_c, 2, 73, 51
1, 49924, Lyric_t, "if "
1, 49924, Note_on_c, 3, 63, 101
1, 49926, Note_on_c, 9, 42, 0
1, 49926, Note_on_c, 9, 36, 0
1, 49930, Note_on_c, 2, 68, 0
1, 49930, Note_on_c, 2, 72, 0
1, 49930, Note_on_c, 2, 75, 0
1, 49983, Note_on_c, 3, 61, 96
1, 49983, Lyric_t, "we're "
1, 49986, Note_on_c, 3, 63, 0
1, 50004, Note_on_c, 3, 61, 0
1, 50012, Note_on_c, 4, 58, 0
1, 50016, Note_on_c, 4, 61, 0
1, 50016, Note_on_c, 9, 42, 24
1, 50017, Lyric_t, "gon"
1, 50017, Note_on_c, 3, 61, 96
1, 50022, Note_on_c, 9, 42, 0
1, 50023, Note_on_c, 1, 42, 0
1, 50069, Note_on_c, 3, 61, 0
1, 50074, Note_on_c, 4, 48, 20
1, 50077, Note_on_c, 0, 54, 0
1, 50078, Note_on_c, 0, 54, 84
1, 50080, Note_on_c, 1, 42, 77
1, 50080, Note_on_c, 9, 36, 80
1, 50081, Note_on_c, 3, 61, 94
1, 50081, Lyric_t, "na "
1, 50086, Note_on_c, 9, 36, 0
1, 50104, Note_on_c, 4, 48, 0
1, 50106, Note_on_c, 4, 54, 0
1, 50109, Note_on_c, 0, 70, 0
1, 50109, Note_on_c, 0, 66, 0
1, 50109, Note_on_c, 0, 73, 0
1, 50109, Note_on_c, 4, 54, 69
1, 50110, Note_on_c, 0, 66, 115
1, 50110, Note_on_c, 0, 73, 93
1, 50110, Note_on_c, 0, 70, 101
1, 50111, Note_on_c, 1, 42, 0
1, 50112, Note_on_c, 9, 42, 88
1, 50112, Note_on_c, 1, 42, 83
1, 50112, Note_on_c, 9, 38, 107
1, 50113, Note_on_c, 4, 61, 58
1, 50114, Note_on_c, 3, 61, 0
1, 50114, Note_on_c, 4, 58, 57
1, 50115, Lyric_t, "stay "
1, 50115, Note_on_c, 3, 63, 94
1, 50118, Note_on_c, 9, 38, 0
1, 50118, Note_on_c, 9, 42, 0
1, 50178, Note_on_c, 3, 63, 0
1, 50179, Note_on_c, 3, 65, 96
1, 50179, Lyric_t, "a"
1, 50193, Note_on_c, 1, 42, 0
1, 50204, Note_on_c, 0, 73, 0
1, 50205, Note_on_c, 0, 73, 37
1, 50206, Note_on_c, 4, 58, 0
1, 50207, Note_on_c, 0, 54, 0
1, 50208, Note_on_c, 9, 42, 45
1, 50208, Note_on_c, 0, 54, 93
1, 50212, Note_on_c, 3, 65, 0
1, 50214, Note_on_c, 9, 42, 0
1, 50217, Note_on_c, 4, 61, 0
1, 50222, Note_on_c, 4, 66, 0
1, 50266, Note_on_c, 4, 48, 20
1, 50270, Note_on_c, 3, 61, 96
1, 50270, Lyric_t, ""
1, 50270, Lyric_t, "\015"
1, 50270, Lyric_t, "live; "
1, 50272, Note_on_c, 9, 38, 107
1, 50272, Note_on_c, 1, 42, 104
1, 50278, Note_on_c, 9, 38, 0
1, 50283, Note_on_c, 1, 42, 0
1, 50295, Note_on_c, 0, 73, 0
1, 50295, Note_on_c, 0, 42, 0
1, 50295, Note_on_c, 0, 66, 0
1, 50295, Note_on_c, 0, 54, 0
1, 50295, Note_on_c, 0, 70, 0
1, 50299, Note_on_c, 4, 54, 0
1, 50300, Note_on_c, 4, 48, 0
1, 50304, Note_on_c, 0, 54, 103
1, 50304, Note_on_c, 0, 61, 115
1, 50304, Note_on_c, 1, 42, 101
1, 50304, Note_on_c, 9, 42, 101
1, 50304, Note_on_c, 9, 36, 73
1, 50304, Note_on_c, 0, 42, 93
1, 50305, Note_on_c, 4, 54, 58
1, 50307, Note_on_c, 4, 58, 57
1, 50307, Note_on_c, 4, 61, 66
1, 50310, Note_on_c, 9, 36, 0
1, 50310, Note_on_c, 9, 42, 0
1, 50315, Note_on_c, 3, 61, 0
1, 50334, Note_on_c, 0, 66, 80
1, 50364, Note_on_c, 1, 42, 0
1, 50367, Note_on_c, 0, 68, 89
1, 50367, Note_on_c, 3, 56, 91
1, 50368, Note_on_c, 1, 37, 77
1, 50368, Note_on_c, 9, 36, 61
1, 50374, Note_on_c, 9, 36, 0
1, 50382, Pitch_bend_c, 3, 8452
1, 50384, Pitch_bend_c, 3, 8842
1, 50386, Pitch_bend_c, 3, 9102
1, 50388, Pitch_bend_c, 3, 9752
1, 50390, Note_on_c, 1, 37, 0
1, 50390, Pitch_bend_c, 3, 10402
1, 50392, Pitch_bend_c, 3, 11312
1, 50394, Pitch_bend_c, 3, 11702
1, 50396, Pitch_bend_c, 3, 12742
1, 50398, Pitch_bend_c, 3, 13132
1, 50399, Note_on_c, 4, 58, 0
1, 50400, Note_on_c, 0, 70, 89
1, 50400, Note_on_c, 9, 42, 50
1, 50400, Pitch_bend_c, 3, 13392
1, 50402, Pitch_bend_c, 3, 14172
1, 50403, Pitch_bend_c, 3, 14952
1, 50406, Note_on_c, 9, 42, 0
1, 50406, Pitch_bend_c, 3, 15732
1, 50407, Pitch_bend_c, 3, 16382
1, 50409, Note_on_c, 4, 61, 0
1, 50442, Lyric_t, ""
1, 50442, Lyric_t, "\015"
1, 50461, Note_on_c, 0, 54, 0
1, 50462, Note_on_c, 0, 54, 79
1, 50463, Note_on_c, 4, 58, 48
1, 50463, Note_on_c, 0, 73, 115
1, 50464, Note_on_c, 4, 54, 0
1, 50464, Note_on_c, 9, 36, 61
1, 50464, Note_on_c, 1, 42, 86
1, 50466, Note_on_c, 4, 54, 20
1, 50470, Note_on_c, 9, 36, 0
1, 50483, Note_on_c, 1, 42, 0
1, 50494, Note_on_c, 4, 54, 0
1, 50496, Note_on_c, 9, 46, 77
1, 50496, Note_on_c, 9, 38, 111
1, 50498, Note_on_c, 4, 54, 22
1, 50499, Note_on_c, 0, 75, 72
1, 50502, Note_on_c, 9, 38, 0
1, 50502, Note_on_c, 9, 46, 0
1, 50555, Note_on_c, 4, 58, 0
1, 50557, Note_on_c, 4, 61, 84
1, 50558, Note_on_c, 4, 54, 0
1, 50558, Note_on_c, 0, 78, 86
1, 50559, Note_on_c, 4, 54, 73
1, 50559, Note_on_c, 4, 58, 78
1, 50560, Note_on_c, 1, 37, 92
1, 50560, Note_on_c, 9, 36, 70
1, 50566, Note_on_c, 9, 36, 0
1, 50586, Note_on_c, 4, 61, 0
1, 50589, Note_on_c, 0, 54, 0
1, 50590, Note_on_c, 4, 58, 0
1, 50590, Note_on_c, 3, 56, 0
1, 50590, Pitch_bend_c, 3, 16252
1, 50590, Note_on_c, 0, 54, 87
1, 50590, Note_on_c, 0, 80, 99
1, 50592, Note_on_c, 9, 42, 77
1, 50592, Pitch_bend_c, 3, 15082
1, 50595, Pitch_bend_c, 3, 12092
1, 50596, Note_on_c, 4, 61, 60
1, 50598, Note_on_c, 9, 42, 0
1, 50599, Pitch_bend_c, 3, 8192
1, 50623, Note_on_c, 1, 37, 0
1, 50624, Note_on_c, 9, 45, 70
1, 50624, Note_on_c, 1, 42, 93
1, 50627, Note_on_c, 4, 61, 0
1, 50630, Note_on_c, 9, 45, 0
1, 50639, Note_on_c, 1, 42, 0
1, 50651, Note_on_c, 0, 73, 0
1, 50652, Note_on_c, 0, 73, 48
1, 50654, Note_on_c, 4, 54, 0
1, 50656, Note_on_c, 1, 42, 94
1, 50656, Note_on_c, 9, 45, 48
1, 50661, Note_on_c, 0, 61, 0
1, 50661, Note_on_c, 0, 42, 0
1, 50661, Note_on_c, 0, 75, 0
1, 50661, Note_on_c, 0, 68, 0
1, 50661, Note_on_c, 0, 70, 0
1, 50661, Note_on_c, 0, 66, 0
1, 50661, Note_on_c, 0, 54, 0
1, 50661, Note_on_c, 0, 78, 0
1, 50661, Note_on_c, 0, 80, 0
1, 50662, Note_on_c, 9, 45, 0
1, 50675, Note_on_c, 1, 42, 0
1, 50681, Note_on_c, 0, 73, 0
1, 50683, Note_on_c, 2, 73, 0
1, 50684, Note_on_c, 2, 68, 59
1, 50684, Note_on_c, 2, 73, 60
1, 50685, Note_on_c, 0, 73, 28
1, 50685, Note_on_c, 0, 49, 93
1, 50685, Note_on_c, 4, 53, 61
1, 50686, Note_on_c, 0, 37, 106
1, 50686, Note_on_c, 0, 80, 91
1, 50686, Note_on_c, 0, 77, 97
1, 50687, Note_on_c, 2, 70, 0
1, 50687, Note_on_c, 2, 66, 0
1, 50688, Note_on_c, 9, 36, 98
1, 50688, Note_on_c, 2, 65, 62
1, 50688, Note_on_c, 4, 56, 62
1, 50688, Note_on_c, 4, 65, 25
1, 50688, Note_on_c, 1, 37, 93
1, 50688, Note_on_c, 9, 42, 91
1, 50690, Note_on_c, 4, 61, 57
1, 50694, Note_on_c, 9, 42, 0
1, 50694, Note_on_c, 9, 36, 0
1, 50770, Note_on_c, 1, 37, 0
1, 50778, Note_on_c, 4, 56, 0
1, 50780, Note_on_c, 4, 61, 0
1, 50784, Note_on_c, 9, 42, 55
1, 50785, Lyric_t, "watch "
1, 50785, Note_on_c, 3, 65, 110
1, 50790, Note_on_c, 9, 42, 0
1, 50823, Note_on_c, 4, 48, 20
1, 50834, Note_on_c, 3, 65, 0
1, 50845, Note_on_c, 0, 49, 0
1, 50846, Note_on_c, 0, 49, 69
1, 50848, Note_on_c, 9, 36, 82
1, 50848, Note_on_c, 1, 41, 92
1, 50849, Note_on_c, 3, 65, 96
1, 50849, Lyric_t, "the "
1, 50854, Note_on_c, 9, 36, 0
1, 50874, Note_on_c, 4, 48, 0
1, 50877, Note_on_c, 0, 80, 0
1, 50877, Note_on_c, 0, 73, 0
1, 50877, Note_on_c, 4, 53, 0
1, 50878, Note_on_c, 0, 80, 97
1, 50878, Note_on_c, 0, 73, 112
1, 50879, Note_on_c, 1, 41, 0
1, 50880, Note_on_c, 4, 56, 80
1, 50880, Note_on_c, 1, 44, 86
1, 50880, Note_on_c, 9, 38, 109
1, 50880, Note_on_c, 4, 53, 48
1, 50880, Note_on_c, 9, 42, 97
1, 50881, Note_on_c, 3, 65, 0
1, 50881, Note_on_c, 4, 61, 83
1, 50882, Note_on_c, 4, 65, 0
1, 50882, Note_on_c, 3, 68, 109
1, 50882, Lyric_t, "black "
1, 50883, Note_on_c, 4, 65, 67
1, 50886, Note_on_c, 9, 42, 0
1, 50886, Note_on_c, 9, 38, 0
1, 50941, Note_on_c, 0, 77, 0
1, 50942, Note_on_c, 0, 77, 83
1, 50964, Note_on_c, 4, 56, 0
1, 50965, Note_on_c, 3, 68, 0
1, 50973, Note_on_c, 4, 61, 0
1, 50973, Note_on_c, 0, 61, 75
1, 50975, Note_on_c, 4, 65, 0
1, 50975, Note_on_c, 1, 44, 0
1, 50976, Note_on_c, 9, 42, 45
1, 50976, Note_on_c, 1, 37, 80
1, 50977, Note_on_c, 4, 56, 43
1, 50977, Note_on_c, 4, 65, 43
1, 50978, Lyric_t, "smoke "
1, 50978, Note_on_c, 3, 70, 96
1, 50982, Note_on_c, 9, 42, 0
1, 50989, Note_on_c, 4, 65, 0
1, 50992, Note_on_c, 4, 56, 0
1, 51030, Note_on_c, 4, 53, 0
1, 51034, Note_on_c, 3, 70, 0
1, 51035, Note_on_c, 0, 73, 0
1, 51036, Note_on_c, 0, 73, 57
1, 51040, Note_on_c, 9, 38, 103
1, 51046, Note_on_c, 9, 38, 0
1, 51053, Note_on_c, 0, 49, 0
1, 51053, Note_on_c, 0, 61, 0
1, 51053, Note_on_c, 0, 73, 0
1, 51053, Note_on_c, 0, 37, 0
1, 51053, Note_on_c, 0, 77, 0
1, 51053, Note_on_c, 0, 80, 0
1, 51061, Note_on_c, 1, 37, 0
1, 51069, Note_on_c, 0, 44, 89
1, 51069, Note_on_c, 0, 56, 93
1, 51069, Note_on_c, 4, 60, 50
1, 51070, Note_on_c, 0, 75, 75
1, 51070, Note_on_c, 0, 72, 100
1, 51070, Note_on_c, 2, 75, 59
1, 51070, Note_on_c, 0, 80, 77
1, 51071, Note_on_c, 2, 73, 0
1, 51071, Note_on_c, 2, 65, 0
1, 51071, Note_on_c, 2, 68, 0
1, 51071, Note_on_c, 3, 63, 96
1, 51071, Lyric_t, "fly "
1, 51072, Note_on_c, 4, 68, 47
1, 51072, Note_on_c, 4, 63, 70
1, 51072, Note_on_c, 9, 42, 97
1, 51072, Note_on_c, 9, 36, 63
1, 51072, Note_on_c, 1, 44, 85
1, 51072, Note_on_c, 4, 56, 59
1, 51074, Pitch_bend_c, 3, 8582
1, 51074, Note_on_c, 2, 68, 58
1, 51074, Note_on_c, 2, 72, 60
1, 51075, Pitch_bend_c, 3, 8972
1, 51078, Note_on_c, 9, 36, 0
1, 51078, Note_on_c, 9, 42, 0
1, 51078, Pitch_bend_c, 3, 9362
1, 51079, Pitch_bend_c, 3, 10012
1, 51082, Pitch_bend_c, 3, 10792
1, 51083, Pitch_bend_c, 3, 11832
1, 51085, Pitch_bend_c, 3, 12612
1, 51087, Pitch_bend_c, 3, 13392
1, 51089, Pitch_bend_c, 3, 14172
1, 51091, Pitch_bend_c, 3, 14562
1, 51093, Pitch_bend_c, 3, 14952
1, 51094, Pitch_bend_c, 3, 15602
1, 51097, Pitch_bend_c, 3, 16252
1, 51112, Note_on_c, 1, 44, 0
1, 51126, Pitch_bend_c, 3, 16122
1, 51127, Pitch_bend_c, 3, 15862
1, 51130, Pitch_bend_c, 3, 15212
1, 51131, Pitch_bend_c, 3, 14562
1, 51133, Pitch_bend_c, 3, 13782
1, 51135, Pitch_bend_c, 3, 13262
1, 51136, Note_on_c, 1, 44, 86
1, 51136, Note_on_c, 9, 36, 72
1, 51137, Pitch_bend_c, 3, 12742
1, 51139, Pitch_bend_c, 3, 11832
1, 51141, Pitch_bend_c, 3, 10662
1, 51142, Note_on_c, 9, 36, 0
1, 51142, Pitch_bend_c, 3, 9622
1, 51145, Pitch_bend_c, 3, 8192
1, 51158, Note_on_c, 1, 44, 0
1, 51162, Note_on_c, 3, 63, 0
1, 51166, Note_on_c, 4, 60, 0
1, 51168, Note_on_c, 9, 42, 82
1, 51170, Note_on_c, 3, 63, 106
1, 51170, Lyric_t, "to "
1, 51174, Note_on_c, 9, 42, 0
1, 51174, Note_on_c, 4, 63, 0
1, 51227, Note_on_c, 4, 63, 27
1, 51230, Note_on_c, 3, 63, 0
1, 51232, Note_on_c, 1, 44, 86
1, 51232, Note_on_c, 9, 36, 62
1, 51234, Lyric_t, "heav"
1, 51234, Note_on_c, 3, 65, 100
1, 51238, Note_on_c, 9, 36, 0
1, 51255, Note_on_c, 1, 44, 0
1, 51257, Note_on_c, 4, 56, 0
1, 51261, Note_on_c, 0, 56, 0
1, 51262, Note_on_c, 0, 56, 109
1, 51262, Note_on_c, 0, 63, 103
1, 51262, Note_on_c, 0, 68, 109
1, 51264, Note_on_c, 9, 51, 55
1, 51264, Note_on_c, 9, 38, 109
1, 51264, Note_on_c, 9, 46, 62
1, 51264, Note_on_c, 0, 60, 106
1, 51264, Note_on_c, 1, 44, 87
1, 51266, Note_on_c, 4, 63, 0
1, 51266, Note_on_c, 4, 56, 47
1, 51270, Note_on_c, 9, 46, 0
1, 51270, Note_on_c, 9, 38, 0
1, 51270, Note_on_c, 9, 51, 0
1, 51271, Note_on_c, 4, 63, 25
1, 51279, Note_on_c, 4, 68, 0
1, 51282, Note_on_c, 3, 65, 0
1, 51301, Note_on_c, 4, 63, 0
1, 51314, Note_on_c, 1, 44, 0
1, 51326, Note_on_c, 4, 63, 82
1, 51327, Note_on_c, 4, 56, 0
1, 51327, Note_on_c, 4, 60, 75
1, 51328, Note_on_c, 1, 44, 91
1, 51329, Note_on_c, 3, 63, 94
1, 51329, Lyric_t, "en, "
1, 51329, Lyric_t, ""
1, 51329, Lyric_t, "\015"
1, 51330, Note_on_c, 4, 56, 56
1, 51346, Note_on_c, 1, 44, 0
1, 51355, Note_on_c, 4, 63, 0
1, 51357, Note_on_c, 4, 60, 0
1, 51358, Note_on_c, 4, 56, 0
1, 51359, Note_on_c, 0, 44, 0
1, 51360, Note_on_c, 0, 44, 60
1, 51360, Note_on_c, 9, 42, 67
1, 51361, Note_on_c, 3, 63, 0
1, 51362, Note_on_c, 0, 60, 0
1, 51362, Lyric_t, "see "
1, 51362, Note_on_c, 3, 63, 103
1, 51363, Note_on_c, 0, 60, 65
1, 51366, Note_on_c, 9, 42, 0
1, 51424, Note_on_c, 3, 63, 0
1, 51424, Note_on_c, 9, 36, 59
1, 51424, Note_on_c, 1, 44, 85
1, 51425, Lyric_t, "the "
1, 51425, Note_on_c, 3, 61, 87
1, 51430, Note_on_c, 9, 36, 0
1, 51433, Note_on_c, 0, 63, 0
1, 51433, Note_on_c, 0, 72, 0
1, 51433, Note_on_c, 0, 60, 0
1, 51433, Note_on_c, 0, 56, 0
1, 51433, Note_on_c, 0, 80, 0
1, 51433, Note_on_c, 0, 75, 0
1, 51433, Note_on_c, 0, 44, 0
1, 51433, Note_on_c, 0, 68, 0
1, 51453, Note_on_c, 1, 44, 0
1, 51456, Note_on_c, 9, 36, 95
1, 51456, Note_on_c, 2, 78, 58
1, 51456, Note_on_c, 1, 42, 103
1, 51456, Note_on_c, 4, 54, 52
1, 51456, Note_on_c, 0, 54, 103
1, 51456, Note_on_c, 0, 70, 93
1, 51456, Note_on_c, 9, 42, 101
1, 51456, Note_on_c, 2, 73, 58
1, 51456, Note_on_c, 0, 66, 84
1, 51456, Note_on_c, 0, 61, 106
1, 51457, Note_on_c, 0, 42, 101
1, 51458, Note_on_c, 3, 61, 0
1, 51458, Lyric_t, "red "
1, 51458, Note_on_c, 4, 58, 57
1, 51458, Note_on_c, 3, 63, 97
1, 51458, Note_on_c, 2, 70, 58
1, 51459, Note_on_c, 4, 66, 57
1, 51460, Note_on_c, 4, 61, 70
1, 51462, Note_on_c, 9, 42, 0
1, 51462, Note_on_c, 2, 68, 0
1, 51462, Note_on_c, 9, 36, 0
1, 51462, Note_on_c, 2, 72, 0
1, 51462, Note_on_c, 2, 75, 0
1, 51549, Note_on_c, 3, 63, 0
1, 51550, Note_on_c, 4, 58, 0
1, 51550, Note_on_c, 1, 42, 0
1, 51552, Note_on_c, 9, 42, 43
1, 51554, Note_on_c, 4, 61, 0
1, 51554, Note_on_c, 3, 61, 87
1, 51554, Lyric_t, "flame "
1, 51558, Note_on_c, 9, 42, 0
1, 51569, Note_on_c, 4, 66, 0
1, 51610, Note_on_c, 3, 61, 0
1, 51610, Note_on_c, 4, 61, 22
1, 51613, Note_on_c, 0, 70, 0
1, 51613, Note_on_c, 0, 66, 0
1, 51613, Note_on_c, 0, 61, 0
1, 51614, Note_on_c, 0, 61, 99
1, 51614, Note_on_c, 4, 58, 25
1, 51614, Note_on_c, 0, 70, 86
1, 51614, Note_on_c, 0, 66, 89
1, 51616, Note_on_c, 9, 36, 58
1, 51616, Note_on_c, 1, 37, 84
1, 51622, Note_on_c, 9, 36, 0
1, 51644, Note_on_c, 4, 61, 0
1, 51644, Note_on_c, 4, 58, 0
1, 51645, Note_on_c, 1, 37, 0
1, 51646, Note_on_c, 4, 54, 0
1, 51647, Note_on_c, 0, 54, 0
1, 51648, Note_on_c, 9, 42, 105
1, 51648, Note_on_c, 9, 38, 110
1, 51648, Note_on_c, 0, 54, 74
1, 51648, Note_on_c, 4, 58, 69
1, 51648, Note_on_c, 1, 42, 86
1, 51648, Note_on_c, 4, 54, 58
1, 51650, Lyric_t, "light "
1, 51650, Note_on_c, 3, 63, 99
1, 51650, Note_on_c, 4, 61, 77
1, 51652, Note_on_c, 4, 66, 59
1, 51654, Note_on_c, 9, 38, 0
1, 51654, Note_on_c, 9, 42, 0
1, 51706, Note_on_c, 3, 63, 0
1, 51709, Note_on_c, 0, 61, 0
1, 51709, Note_on_c, 0, 66, 0
1, 51709, Note_on_c, 0, 70, 0
1, 51710, Note_on_c, 0, 61, 106
1, 51710, Note_on_c, 0, 70, 95
1, 51710, Note_on_c, 0, 66, 93
1, 51737, Note_on_c, 1, 42, 0
1, 51743, Note_on_c, 0, 54, 0
1, 51744, Note_on_c, 0, 54, 75
1, 51744, Note_on_c, 9, 42, 46
1, 51745, Note_on_c, 3, 65, 99
1, 51745, Lyric_t, "the "
1, 51746, Note_on_c, 4, 54, 0
1, 51748, Note_on_c, 4, 61, 0
1, 51750, Note_on_c, 9, 42, 0
1, 51751, Note_on_c, 4, 58, 0
1, 51771, Note_on_c, 4, 66, 0
1, 51803, Note_on_c, 0, 61, 0
1, 51804, Note_on_c, 3, 65, 0
1, 51804, Note_on_c, 0, 61, 57
1, 51808, Note_on_c, 1, 42, 86
1, 51809, Note_on_c, 3, 61, 98
1, 51809, Lyric_t, ""
1, 51809, Lyric_t, "\015"
1, 51809, Lyric_t, "sky. "
1, 51829, Note_on_c, 0, 61, 0
1, 51829, Note_on_c, 0, 42, 0
1, 51829, Note_on_c, 0, 70, 0
1, 51829, Note_on_c, 0, 66, 0
1, 51829, Note_on_c, 0, 54, 0
1, 51830, Note_on_c, 1, 42, 0
1, 51838, Note_on_c, 0, 54, 97
1, 51840, Note_on_c, 0, 61, 115
1, 51840, Note_on_c, 1, 42, 95
1, 51840, Note_on_c, 9, 36, 75
1, 51840, Note_on_c, 9, 42, 101
1, 51840, Note_on_c, 0, 42, 83
1, 51846, Note_on_c, 9, 42, 0
1, 51846, Note_on_c, 9, 36, 0
1, 51853, Note_on_c, 3, 61, 0
1, 51857, Note_on_c, 0, 61, 0
1, 51870, Note_on_c, 0, 66, 77
1, 51894, Note_on_c, 1, 42, 0
1, 51902, Note_on_c, 0, 68, 89
1, 51902, Note_on_c, 3, 56, 106
1, 51902, Note_on_c, 4, 66, 86
1, 51903, Note_on_c, 4, 61, 82
1, 51904, Note_on_c, 1, 37, 76
1, 51906, Note_on_c, 4, 58, 78
1, 51906, Note_on_c, 4, 54, 64
1, 51910, Note_on_c, 9, 38, 69
1, 51916, Note_on_c, 9, 38, 0
1, 51918, Pitch_bend_c, 3, 8452
1, 51920, Pitch_bend_c, 3, 8972
1, 51921, Note_on_c, 9, 38, 70
1, 51922, Pitch_bend_c, 3, 9882
1, 51923, Note_on_c, 1, 37, 0
1, 51924, Pitch_bend_c, 3, 10662
1, 51926, Note_on_c, 4, 61, 0
1, 51926, Pitch_bend_c, 3, 11962
1, 51927, Note_on_c, 9, 38, 0
1, 51928, Pitch_bend_c, 3, 13262
1, 51930, Note_on_c, 4, 66, 0
1, 51930, Note_on_c, 4, 54, 0
1, 51930, Pitch_bend_c, 3, 14172
1, 51930, Note_on_c, 9, 38, 73
1, 51932, Pitch_bend_c, 3, 15342
1, 51934, Note_on_c, 4, 58, 0
1, 51934, Pitch_bend_c, 3, 16122
1, 51935, Note_on_c, 9, 38, 0
1, 51936, Note_on_c, 9, 42, 69
1, 51936, Pitch_bend_c, 3, 16382
1, 51936, Note_on_c, 9, 38, 109
1, 51936, Note_on_c, 0, 70, 99
1, 51942, Note_on_c, 9, 38, 0
1, 51942, Note_on_c, 9, 42, 0
1, 51968, Note_on_c, 9, 38, 104
1, 51974, Note_on_c, 9, 38, 0
1, 51980, Lyric_t, ""
1, 51980, Lyric_t, "\015"
1, 51997, Note_on_c, 4, 61, 23
1, 51997, Note_on_c, 4, 58, 32
1, 51998, Note_on_c, 4, 54, 22
1, 51998, Note_on_c, 4, 52, 20
1, 51998, Note_on_c, 0, 73, 112
1, 52000, Note_on_c, 1, 42, 97
1, 52000, Note_on_c, 9, 38, 95
1, 52006, Note_on_c, 9, 38, 0
1, 52025, Note_on_c, 1, 42, 0
1, 52026, Note_on_c, 4, 61, 0
1, 52026, Note_on_c, 4, 58, 0
1, 52028, Note_on_c, 4, 52, 0
1, 52030, Note_on_c, 4, 54, 0
1, 52031, Note_on_c, 0, 54, 0
1, 52032, Note_on_c, 9, 45, 75
1, 52032, Note_on_c, 4, 58, 77
1, 52032, Note_on_c, 9, 42, 105
1, 52032, Note_on_c, 0, 54, 109
1, 52032, Note_on_c, 4, 66, 67
1, 52032, Note_on_c, 4, 54, 55
1, 52032, Note_on_c, 0, 75, 89
1, 52034, Note_on_c, 4, 61, 82
1, 52038, Note_on_c, 9, 42, 0
1, 52038, Note_on_c, 9, 45, 0
1, 52064, Note_on_c, 9, 38, 116
1, 52070, Note_on_c, 9, 38, 0
1, 52094, Note_on_c, 0, 78, 76
1, 52096, Note_on_c, 9, 45, 78
1, 52096, Note_on_c, 1, 42, 80
1, 52102, Note_on_c, 9, 45, 0
1, 52106, Note_on_c, 1, 42, 0
1, 52106, Pitch_bend_c, 3, 16252
1, 52109, Pitch_bend_c, 3, 15732
1, 52110, Note_on_c, 3, 56, 0
1, 52110, Pitch_bend_c, 3, 14822
1, 52112, Pitch_bend_c, 3, 13392
1, 52114, Pitch_bend_c, 3, 12092
1, 52116, Note_on_c, 4, 66, 0
1, 52116, Pitch_bend_c, 3, 10662
1, 52118, Pitch_bend_c, 3, 8842
1, 52120, Pitch_bend_c, 3, 8192
1, 52122, Note_on_c, 4, 54, 0
1, 52124, Note_on_c, 4, 61, 0
1, 52125, Note_on_c, 0, 42, 0
1, 52125, Note_on_c, 0, 73, 0
1, 52126, Note_on_c, 4, 54, 59
1, 52126, Note_on_c, 0, 42, 73
1, 52126, Note_on_c, 0, 80, 86
1, 52126, Note_on_c, 0, 73, 112
1, 52128, Note_on_c, 0, 54, 0
1, 52128, Note_on_c, 9, 38, 111
1, 52128, Note_on_c, 1, 42, 98
1, 52129, Note_on_c, 4, 61, 80
1, 52129, Note_on_c, 0, 54, 46
1, 52130, Note_on_c, 4, 66, 56
1, 52134, Note_on_c, 9, 38, 0
1, 52144, Note_on_c, 1, 42, 0
1, 52160, Note_on_c, 9, 38, 118
1, 52166, Note_on_c, 9, 38, 0
1, 52178, Note_on_c, 4, 66, 0
1, 52182, Note_on_c, 4, 61, 0
1, 52187, Note_on_c, 4, 58, 0
1, 52192, Note_on_c, 9, 44, 85
1, 52192, Note_on_c, 1, 42, 106
1, 52198, Note_on_c, 9, 44, 0
1, 52207, Note_on_c, 4, 54, 0
1, 52217, Note_on_c, 0, 66, 0
1, 52217, Note_on_c, 0, 80, 0
1, 52217, Note_on_c, 0, 78, 0
1, 52217, Note_on_c, 0, 54, 0
1, 52217, Note_on_c, 0, 75, 0
1, 52217, Note_on_c, 0, 70, 0
1, 52217, Note_on_c, 0, 42, 0
1, 52217, Note_on_c, 0, 73, 0
1, 52217, Note_on_c, 0, 68, 0
1, 52218, Note_on_c, 1, 42, 0
1, 52220, Note_on_c, 2, 79, 61
1, 52220, Note_on_c, 2, 75, 61
1, 52221, Note_on_c, 2, 73, 0
1, 52221, Note_on_c, 2, 70, 0
1, 52221, Note_on_c, 2, 78, 0
1, 52222, Note_on_c, 2, 70, 61
1, 52224, Note_on_c, 9, 42, 85
1, 52224, Note_on_c, 9, 36, 82
1, 52224, Note_on_c, 9, 57, 78
1, 52224, Note_on_c, 1, 34, 98
1, 52225, Note_on_c, 0, 79, 89
1, 52225, Note_on_c, 4, 55, 66
1, 52226, Note_on_c, 4, 63, 61
1, 52226, Note_on_c, 0, 70, 103
1, 52226, Note_on_c, 0, 46, 95
1, 52226, Note_on_c, 0, 75, 84
1, 52227, Note_on_c, 4, 58, 70
1, 52228, Note_on_c, 4, 67, 55
1, 52230, Note_on_c, 9, 57, 0
1, 52230, Note_on_c, 9, 42, 0
1, 52230, Note_on_c, 9, 36, 0
1, 52288, Note_on_c, 9, 36, 66
1, 52294, Note_on_c, 9, 36, 0
1, 52320, Lyric_t, "Burn "
1, 52320, Note_on_c, 9, 42, 51
1, 52320, Note_on_c, 3, 67, 110
1, 52322, Note_on_c, 4, 63, 0
1, 52326, Note_on_c, 9, 42, 0
1, 52352, Note_on_c, 3, 67, 0
1, 52362, Note_on_c, 1, 34, 0
1, 52381, Note_on_c, 0, 79, 0
1, 52381, Note_on_c, 0, 70, 0
1, 52381, Note_on_c, 0, 75, 0
1, 52381, Note_on_c, 0, 58, 109
1, 52382, Note_on_c, 0, 79, 96
1, 52382, Note_on_c, 0, 70, 112
1, 52382, Note_on_c, 0, 75, 95
1, 52384, Note_on_c, 9, 36, 72
1, 52387, Note_on_c, 3, 70, 110
1, 52387, Lyric_t, "down "
1, 52390, Note_on_c, 9, 36, 0
1, 52416, Note_on_c, 4, 55, 0
1, 52416, Note_on_c, 9, 46, 85
1, 52416, Note_on_c, 1, 34, 91
1, 52416, Note_on_c, 9, 38, 110
1, 52417, Note_on_c, 4, 55, 56
1, 52418, Note_on_c, 4, 58, 0
1, 52419, Note_on_c, 4, 58, 83
1, 52420, Note_on_c, 4, 67, 0
1, 52420, Note_on_c, 4, 63, 81
1, 52422, Note_on_c, 9, 38, 0
1, 52422, Note_on_c, 9, 46, 0
1, 52422, Note_on_c, 4, 67, 48
1, 52475, Note_on_c, 0, 70, 0
1, 52476, Note_on_c, 0, 70, 69
1, 52511, Note_on_c, 0, 70, 0
1, 52511, Note_on_c, 0, 75, 0
1, 52511, Note_on_c, 0, 46, 0
1, 52512, Note_on_c, 1, 34, 0
1, 52512, Note_on_c, 0, 46, 81
1, 52512, Note_on_c, 0, 70, 112
1, 52512, Note_on_c, 9, 42, 65
1, 52512, Note_on_c, 0, 75, 89
1, 52514, Note_on_c, 4, 58, 0
1, 52516, Note_on_c, 4, 46, 20
1, 52518, Note_on_c, 9, 42, 0
1, 52518, Note_on_c, 4, 63, 0
1, 52526, Note_on_c, 4, 67, 0
1, 52558, Note_on_c, 4, 46, 0
1, 52572, Note_on_c, 3, 70, 0
1, 52573, Lyric_t, "the "
1, 52573, Note_on_c, 3, 72, 103
1, 52576, Note_on_c, 1, 34, 80
1, 52576, Note_on_c, 9, 36, 59
1, 52582, Note_on_c, 9, 36, 0
1, 52589, Note_on_c, 1, 34, 0
1, 52603, Note_on_c, 0, 46, 0
1, 52603, Note_on_c, 0, 70, 0
1, 52603, Note_on_c, 0, 58, 0
1, 52603, Note_on_c, 0, 79, 0
1, 52603, Note_on_c, 2, 79, 0
1, 52603, Note_on_c, 2, 75, 0
1, 52603, Note_on_c, 0, 75, 0
1, 52605, Note_on_c, 4, 55, 0
1, 52606, Note_on_c, 3, 72, 0
1, 52606, Note_on_c, 4, 53, 64
1, 52606, Note_on_c, 2, 77, 59
1, 52606, Note_on_c, 2, 74, 59
1, 52608, Note_on_c, 1, 34, 100
1, 52608, Note_on_c, 9, 36, 86
1, 52608, Note_on_c, 9, 42, 88
1, 52609, Note_on_c, 4, 58, 83
1, 52610, Note_on_c, 4, 62, 81
1, 52610, Note_on_c, 0, 65, 106
1, 52610, Note_on_c, 0, 74, 108
1, 52610, Note_on_c, 0, 70, 89
1, 52610, Note_on_c, 0, 46, 89
1, 52610, Note_on_c, 0, 58, 97
1, 52611, Note_on_c, 4, 67, 53
1, 52614, Note_on_c, 9, 42, 0
1, 52614, Note_on_c, 9, 36, 0
1, 52614, Lyric_t, "mis"
1, 52614, Note_on_c, 3, 72, 101
1, 52648, Note_on_c, 1, 34, 0
1, 52670, Lyric_t, "sion, "
1, 52670, Note_on_c, 3, 70, 104
1, 52671, Note_on_c, 3, 72, 0
1, 52672, Note_on_c, 1, 34, 73
1, 52690, Note_on_c, 1, 34, 0
1, 52699, Note_on_c, 4, 58, 0
1, 52704, Note_on_c, 9, 42, 24
1, 52705, Note_on_c, 0, 65, 0
1, 52706, Pitch_bend_c, 3, 8842
1, 52706, Note_on_c, 0, 65, 48
1, 52707, Pitch_bend_c, 3, 9882
1, 52708, Note_on_c, 4, 62, 0
1, 52710, Note_on_c, 9, 42, 0
1, 52710, Pitch_bend_c, 3, 10272
1, 52711, Pitch_bend_c, 3, 11832
1, 52714, Pitch_bend_c, 3, 13132
1, 52715, Pitch_bend_c, 3, 14562
1, 52717, Note_on_c, 4, 67, 0
1, 52717, Pitch_bend_c, 3, 15602
1, 52719, Pitch_bend_c, 3, 16382
1, 52761, Note_on_c, 4, 58, 22
1, 52765, Note_on_c, 0, 46, 0
1, 52765, Note_on_c, 0, 70, 0
1, 52765, Note_on_c, 0, 74, 0
1, 52765, Note_on_c, 0, 65, 0
1, 52765, Note_on_c, 0, 58, 0
1, 52766, Note_on_c, 0, 70, 99
1, 52766, Note_on_c, 0, 74, 106
1, 52766, Note_on_c, 0, 65, 106
1, 52766, Note_on_c, 0, 46, 91
1, 52766, Note_on_c, 0, 58, 89
1, 52768, Note_on_c, 1, 34, 77
1, 52768, Note_on_c, 9, 36, 80
1, 52769, Pitch_bend_c, 3, 16252
1, 52771, Pitch_bend_c, 3, 15342
1, 52773, Pitch_bend_c, 3, 14432
1, 52774, Note_on_c, 9, 36, 0
1, 52774, Pitch_bend_c, 3, 13262
1, 52777, Pitch_bend_c, 3, 11572
1, 52778, Pitch_bend_c, 3, 10012
1, 52781, Pitch_bend_c, 3, 8842
1, 52782, Pitch_bend_c, 3, 8192
1, 52791, Note_on_c, 4, 53, 0
1, 52793, Note_on_c, 1, 34, 0
1, 52794, Note_on_c, 4, 58, 0
1, 52799, Note_on_c, 4, 53, 46
1, 52800, Note_on_c, 3, 67, 108
1, 52800, Lyric_t, ""
1, 52800, Lyric_t, "\015"
1, 52800, Note_on_c, 9, 42, 88
1, 52800, Note_on_c, 9, 38, 107
1, 52800, Note_on_c, 1, 46, 89
1, 52800, Lyric_t, "Lord, "
1, 52802, Note_on_c, 4, 58, 59
1, 52806, Note_on_c, 9, 38, 0
1, 52806, Note_on_c, 9, 42, 0
1, 52814, Note_on_c, 1, 46, 0
1, 52824, Note_on_c, 3, 67, 0
1, 52826, Note_on_c, 3, 65, 108
1, 52832, Note_on_c, 1, 46, 83
1, 52848, Note_on_c, 3, 63, 108
1, 52849, Note_on_c, 3, 65, 0
1, 52854, Note_on_c, 4, 58, 0
1, 52855, Note_on_c, 4, 53, 0
1, 52857, Note_on_c, 1, 46, 0
1, 52858, Note_on_c, 4, 62, 84
1, 52861, Note_on_c, 3, 70, 0
1, 52861, Note_on_c, 4, 58, 80
1, 52862, Note_on_c, 0, 65, 0
1, 52862, Note_on_c, 4, 53, 50
1, 52863, Note_on_c, 0, 65, 62
1, 52864, Note_on_c, 1, 41, 89
1, 52888, Note_on_c, 4, 62, 0
1, 52889, Note_on_c, 1, 41, 0
1, 52890, Note_on_c, 4, 58, 0
1, 52891, Note_on_c, 4, 53, 0
1, 52896, Note_on_c, 0, 58, 0
1, 52896, Note_on_c, 0, 70, 0
1, 52896, Note_on_c, 0, 65, 0
1, 52896, Note_on_c, 9, 42, 45
1, 52896, Note_on_c, 1, 34, 82
1, 52897, Note_on_c, 0, 58, 99
1, 52897, Note_on_c, 0, 65, 93
1, 52897, Note_on_c, 0, 70, 97
1, 52902, Note_on_c, 9, 42, 0
1, 52940, Note_on_c, 1, 34, 0
1, 52951, Note_on_c, 3, 63, 0
1, 52957, Note_on_c, 0, 65, 0
1, 52958, Note_on_c, 0, 65, 67
1, 52960, Note_on_c, 1, 34, 97
1, 52960, Note_on_c, 9, 38, 107
1, 52966, Note_on_c, 9, 38, 0
1, 52975, Note_on_c, 1, 34, 0
1, 52981, Note_on_c, 0, 74, 0
1, 52981, Note_on_c, 0, 58, 0
1, 52981, Note_on_c, 0, 70, 0
1, 52981, Note_on_c, 0, 46, 0
1, 52981, Note_on_c, 0, 65, 0
1, 52989, Note_on_c, 4, 51, 54
1, 52992, Note_on_c, 4, 56, 82
1, 52992, Note_on_c, 0, 72, 110
1, 52992, Note_on_c, 1, 32, 108
1, 52992, Note_on_c, 0, 44, 86
1, 52992, Note_on_c, 0, 56, 115
1, 52992, Note_on_c, 2, 68, 56
1, 52992, Note_on_c, 2, 75, 56
1, 52992, Note_on_c, 3, 65, 94
1, 52992, Note_on_c, 9, 36, 73
1, 52992, Note_on_c, 0, 68, 97
1, 52992, Note_on_c, 9, 42, 101
1, 52992, Lyric_t, "if "
1, 52993, Note_on_c, 4, 60, 81
1, 52994, Note_on_c, 2, 74, 0
1, 52994, Note_on_c, 2, 70, 0
1, 52994, Note_on_c, 2, 77, 0
1, 52994, Note_on_c, 2, 72, 56
1, 52998, Note_on_c, 9, 36, 0
1, 52998, Note_on_c, 9, 42, 0
1, 53026, Note_on_c, 3, 65, 0
1, 53054, Note_on_c, 3, 63, 97
1, 53054, Lyric_t, "we're "
1, 53056, Note_on_c, 9, 36, 61
1, 53062, Note_on_c, 9, 36, 0
1, 53087, Note_on_c, 3, 63, 0
1, 53088, Note_on_c, 0, 68, 0
1, 53088, Note_on_c, 4, 56, 0
1, 53088, Lyric_t, "gon"
1, 53088, Note_on_c, 3, 63, 96
1, 53088, Note_on_c, 9, 42, 50
1, 53089, Note_on_c, 0, 68, 27
1, 53093, Note_on_c, 4, 60, 0
1, 53094, Note_on_c, 9, 42, 0
1, 53111, Note_on_c, 1, 32, 0
1, 53140, Note_on_c, 3, 63, 0
1, 53149, Note_on_c, 0, 72, 0
1, 53149, Note_on_c, 0, 56, 0
1, 53149, Note_on_c, 0, 68, 0
1, 53149, Lyric_t, "na "
1, 53149, Note_on_c, 3, 63, 110
1, 53150, Note_on_c, 0, 68, 124
1, 53150, Note_on_c, 0, 75, 97
1, 53150, Note_on_c, 0, 80, 99
1, 53150, Note_on_c, 0, 56, 97
1, 53150, Note_on_c, 0, 72, 110
1, 53152, Note_on_c, 9, 36, 61
1, 53158, Note_on_c, 9, 36, 0
1, 53171, Note_on_c, 3, 63, 0
1, 53179, Note_on_c, 4, 51, 0
1, 53184, Note_on_c, 9, 46, 77
1, 53184, Note_on_c, 1, 32, 89
1, 53184, Note_on_c, 4, 51, 64
1, 53184, Note_on_c, 9, 38, 111
1, 53185, Note_on_c, 0, 72, 0
1, 53186, Note_on_c, 0, 72, 42
1, 53186, Note_on_c, 4, 56, 84
1, 53187, Lyric_t, "stay "
1, 53187, Note_on_c, 3, 65, 106
1, 53188, Note_on_c, 4, 60, 81
1, 53190, Note_on_c, 9, 46, 0
1, 53190, Note_on_c, 9, 38, 0
1, 53246, Note_on_c, 0, 68, 0
1, 53247, Note_on_c, 0, 68, 77
1, 53248, Note_on_c, 0, 72, 0
1, 53248, Note_on_c, 9, 36, 70
1, 53249, Lyric_t, "a"
1, 53249, Note_on_c, 3, 67, 101
1, 53249, Note_on_c, 0, 72, 96
1, 53254, Note_on_c, 9, 36, 0
1, 53271, Note_on_c, 3, 65, 0
1, 53279, Note_on_c, 0, 44, 0
1, 53280, Note_on_c, 4, 56, 0
1, 53280, Note_on_c, 9, 42, 77
1, 53280, Note_on_c, 0, 44, 63
1, 53283, Note_on_c, 3, 67, 0
1, 53286, Note_on_c, 4, 60, 0
1, 53286, Note_on_c, 9, 42, 0
1, 53312, Note_on_c, 9, 45, 70
1, 53318, Note_on_c, 9, 45, 0
1, 53341, Note_on_c, 0, 68, 0
1, 53342, Note_on_c, 0, 68, 73
1, 53343, Note_on_c, 4, 51, 0
1, 53343, Note_on_c, 4, 56, 42
1, 53344, Note_on_c, 9, 45, 48
1, 53345, Lyric_t, ""
1, 53345, Lyric_t, "\015"
1, 53345, Note_on_c, 3, 65, 103
1, 53345, Lyric_t, "live; "
1, 53346, Note_on_c, 4, 51, 23
1, 53350, Note_on_c, 9, 45, 0
1, 53373, Note_on_c, 0, 56, 0
1, 53373, Note_on_c, 4, 56, 0
1, 53373, Note_on_c, 0, 44, 0
1, 53374, Note_on_c, 0, 44, 80
1, 53374, Note_on_c, 0, 56, 77
1, 53375, Note_on_c, 4, 51, 0
1, 53376, Note_on_c, 9, 36, 98
1, 53376, Note_on_c, 9, 42, 91
1, 53378, Note_on_c, 1, 32, 0
1, 53378, Note_on_c, 4, 51, 57
1, 53380, Note_on_c, 4, 56, 68
1, 53382, Note_on_c, 9, 42, 0
1, 53382, Note_on_c, 9, 36, 0
1, 53420, Note_on_c, 3, 65, 0
1, 53437, Note_on_c, 0, 72, 0
1, 53437, Note_on_c, 0, 68, 0
1, 53438, Note_on_c, 0, 72, 108
1, 53438, Note_on_c, 0, 68, 106
1, 53439, Note_on_c, 4, 60, 36
1, 53439, Note_on_c, 3, 58, 95
1, 53440, Note_on_c, 1, 39, 97
1, 53452, Lyric_t, ""
1, 53452, Lyric_t, "\015"
1, 53453, Pitch_bend_c, 3, 8452
1, 53454, Pitch_bend_c, 3, 8842
1, 53456, Pitch_bend_c, 3, 9882
1, 53458, Pitch_bend_c, 3, 11312
1, 53460, Pitch_bend_c, 3, 12352
1, 53462, Pitch_bend_c, 3, 13132
1, 53464, Note_on_c, 4, 56, 0
1, 53464, Pitch_bend_c, 3, 14302
1, 53466, Note_on_c, 4, 51, 0
1, 53466, Pitch_bend_c, 3, 14822
1, 53468, Pitch_bend_c, 3, 15082
1, 53470, Pitch_bend_c, 3, 15992
1, 53472, Note_on_c, 1, 39, 0
1, 53472, Note_on_c, 9, 42, 55
1, 53472, Pitch_bend_c, 3, 16382
1, 53478, Note_on_c, 9, 42, 0
1, 53506, Note_on_c, 4, 60, 0
1, 53531, Note_on_c, 4, 60, 72
1, 53534, Note_on_c, 0, 68, 0
1, 53534, Note_on_c, 0, 75, 0
1, 53534, Note_on_c, 4, 56, 34
1, 53535, Note_on_c, 0, 68, 118
1, 53535, Note_on_c, 0, 75, 103
1, 53536, Note_on_c, 9, 36, 82
1, 53536, Note_on_c, 1, 44, 90
1, 53542, Note_on_c, 9, 36, 0
1, 53562, Note_on_c, 4, 60, 0
1, 53564, Note_on_c, 4, 56, 0
1, 53567, Note_on_c, 0, 56, 0
1, 53567, Note_on_c, 1, 44, 0
1, 53568, Note_on_c, 9, 38, 109
1, 53568, Note_on_c, 0, 56, 91
1, 53568, Note_on_c, 9, 42, 97
1, 53574, Note_on_c, 9, 42, 0
1, 53574, Note_on_c, 9, 38, 0
1, 53602, Note_on_c, 3, 58, 0
1, 53602, Pitch_bend_c, 3, 16122
1, 53604, Pitch_bend_c, 3, 15472
1, 53606, Pitch_bend_c, 3, 14822
1, 53608, Pitch_bend_c, 3, 14042
1, 53610, Pitch_bend_c, 3, 13262
1, 53612, Pitch_bend_c, 3, 12742
1, 53614, Pitch_bend_c, 3, 12352
1, 53616, Pitch_bend_c, 3, 11442
1, 53618, Pitch_bend_c, 3, 10272
1, 53619, Pitch_bend_c, 3, 9362
1, 53622, Pitch_bend_c, 3, 8192
1, 53629, Note_on_c, 4, 60, 85
1, 53630, Note_on_c, 0, 68, 0
1, 53630, Note_on_c, 4, 51, 70
1, 53630, Note_on_c, 4, 56, 79
1, 53631, Note_on_c, 0, 68, 76
1, 53632, Note_on_c, 1, 39, 91
1, 53633, Note_on_c, 0, 72, 0
1, 53634, Note_on_c, 0, 72, 85
1, 53658, Note_on_c, 4, 51, 0
1, 53658, Note_on_c, 4, 60, 0
1, 53659, Note_on_c, 4, 56, 0
1, 53659, Note_on_c, 1, 39, 0
1, 53662, Note_on_c, 4, 51, 49
1, 53663, Note_on_c, 0, 44, 0
1, 53664, Note_on_c, 3, 63, 109
1, 53664, Note_on_c, 0, 44, 72
1, 53664, Note_on_c, 9, 42, 45
1, 53664, Lyric_t, "it's "
1, 53665, Note_on_c, 0, 75, 0
1, 53665, Note_on_c, 0, 68, 0
1, 53665, Note_on_c, 4, 56, 60
1, 53666, Note_on_c, 0, 68, 93
1, 53666, Note_on_c, 0, 75, 89
1, 53668, Note_on_c, 4, 60, 64
1, 53670, Note_on_c, 9, 42, 0
1, 53692, Note_on_c, 4, 51, 0
1, 53694, Note_on_c, 4, 56, 0
1, 53697, Note_on_c, 4, 60, 0
1, 53715, Note_on_c, 3, 63, 0
1, 53722, Note_on_c, 4, 59, 27
1, 53727, Note_on_c, 3, 63, 99
1, 53727, Lyric_t, "our "
1, 53728, Note_on_c, 1, 32, 82
1, 53728, Note_on_c, 9, 38, 103
1, 53734, Note_on_c, 9, 38, 0
1, 53751, Note_on_c, 4, 59, 0
1, 53755, Note_on_c, 0, 56, 0
1, 53755, Note_on_c, 2, 72, 0
1, 53755, Note_on_c, 0, 44, 0
1, 53755, Note_on_c, 2, 68, 0
1, 53755, Note_on_c, 0, 80, 0
1, 53755, Note_on_c, 0, 75, 0
1, 53755, Note_on_c, 0, 72, 0
1, 53755, Note_on_c, 2, 75, 0
1, 53755, Note_on_c, 0, 68, 0
1, 53756, Note_on_c, 2, 79, 57
1, 53758, Note_on_c, 1, 32, 0
1, 53760, Note_on_c, 3, 63, 0
1, 53760, Note_on_c, 1, 34, 91
1, 53760, Note_on_c, 2, 82, 57
1, 53760, Note_on_c, 9, 42, 97
1, 53760, Note_on_c, 4, 55, 57
1, 53760, Note_on_c, 2, 75, 57
1, 53760, Note_on_c, 9, 36, 63
1, 53762, Note_on_c, 4, 58, 80
1, 53762, Note_on_c, 0, 75, 101
1, 53762, Note_on_c, 0, 67, 108
1, 53762, Note_on_c, 0, 46, 118
1, 53762, Note_on_c, 3, 67, 101
1, 53762, Lyric_t, "on"
1, 53762, Note_on_c, 0, 70, 103
1, 53763, Note_on_c, 4, 63, 74
1, 53766, Note_on_c, 9, 36, 0
1, 53766, Note_on_c, 9, 42, 0
1, 53824, Note_on_c, 9, 36, 72
1, 53830, Note_on_c, 9, 36, 0
1, 53843, Note_on_c, 3, 67, 0
1, 53850, Note_on_c, 4, 58, 0
1, 53851, Note_on_c, 4, 63, 0
1, 53856, Note_on_c, 0, 67, 0
1, 53856, Note_on_c, 9, 42, 82
1, 53857, Note_on_c, 0, 67, 45
1, 53858, Lyric_t, "ly "
1, 53858, Note_on_c, 3, 70, 89
1, 53862, Note_on_c, 9, 42, 0
1, 53899, Note_on_c, 3, 70, 0
1, 53913, Note_on_c, 4, 63, 20
1, 53917, Note_on_c, 0, 75, 0
1, 53917, Note_on_c, 0, 67, 0
1, 53917, Note_on_c, 0, 70, 0
1, 53918, Note_on_c, 0, 75, 101
1, 53918, Note_on_c, 0, 70, 106
1, 53918, Note_on_c, 0, 67, 93
1, 53919, Note_on_c, 1, 34, 0
1, 53920, Note_on_c, 9, 36, 62
1, 53920, Note_on_c, 1, 41, 87
1, 53921, Note_on_c, 3, 70, 103
1, 53921, Lyric_t, "chance "
1, 53926, Note_on_c, 9, 36, 0
1, 53946, Note_on_c, 4, 55, 0
1, 53946, Note_on_c, 4, 63, 0
1, 53950, Note_on_c, 4, 55, 69
1, 53951, Note_on_c, 1, 41, 0
1, 53952, Note_on_c, 1, 46, 97
1, 53952, Note_on_c, 9, 46, 62
1, 53952, Note_on_c, 9, 38, 109
1, 53952, Note_on_c, 4, 58, 83
1, 53952, Note_on_c, 9, 51, 55
1, 53954, Note_on_c, 4, 63, 83
1, 53955, Note_on_c, 4, 67, 57
1, 53958, Note_on_c, 9, 51, 0
1, 53958, Note_on_c, 9, 38, 0
1, 53958, Note_on_c, 9, 46, 0
1, 54017, Note_on_c, 0, 67, 0
1, 54018, Note_on_c, 0, 67, 75
1, 54042, Note_on_c, 4, 63, 0
1, 54043, Note_on_c, 4, 55, 0
1, 54046, Note_on_c, 3, 70, 0
1, 54046, Note_on_c, 4, 55, 44
1, 54047, Note_on_c, 3, 72, 101
1, 54047, Lyric_t, "of "
1, 54048, Note_on_c, 4, 58, 0
1, 54048, Note_on_c, 9, 42, 67
1, 54049, Note_on_c, 0, 70, 0
1, 54049, Note_on_c, 0, 75, 0
1, 54049, Note_on_c, 0, 58, 101
1, 54050, Note_on_c, 0, 70, 99
1, 54050, Note_on_c, 0, 75, 93
1, 54054, Note_on_c, 9, 42, 0
1, 54061, Note_on_c, 4, 67, 0
1, 54108, Note_on_c, 0, 67, 0
1, 54109, Note_on_c, 3, 72, 0
1, 54109, Note_on_c, 0, 67, 60
1, 54112, Note_on_c, 9, 36, 59
1, 54118, Note_on_c, 9, 36, 0
1, 54138, Note_on_c, 4, 55, 0
1, 54139, Note_on_c, 0, 70, 0
1, 54139, Note_on_c, 0, 46, 0
1, 54139, Note_on_c, 0, 67, 0
1, 54139, Note_on_c, 0, 75, 0
1, 54142, Note_on_c, 4, 53, 59
1, 54143, Note_on_c, 1, 46, 0
1, 54144, Note_on_c, 9, 42, 101
1, 54144, Note_on_c, 1, 34, 83
1, 54144, Note_on_c, 9, 36, 95
1, 54145, Note_on_c, 2, 82, 0
1, 54145, Note_on_c, 4, 58, 81
1, 54146, Note_on_c, 2, 82, 56
1, 54146, Note_on_c, 0, 65, 110
1, 54146, Note_on_c, 2, 77, 56
1, 54146, Note_on_c, 2, 74, 56
1, 54146, Note_on_c, 3, 67, 104
1, 54146, Note_on_c, 0, 74, 106
1, 54146, Note_on_c, 0, 46, 109
1, 54146, Note_on_c, 0, 70, 93
1, 54146, Lyric_t, "liv"
1, 54147, Note_on_c, 4, 62, 81
1, 54148, Note_on_c, 4, 66, 45
1, 54149, Note_on_c, 2, 79, 0
1, 54149, Note_on_c, 2, 75, 0
1, 54150, Note_on_c, 9, 36, 0
1, 54150, Note_on_c, 9, 42, 0
1, 54164, Note_on_c, 4, 66, 0
1, 54206, Note_on_c, 3, 65, 103
1, 54206, Lyric_t, "in', "
1, 54206, Lyric_t, ""
1, 54206, Lyric_t, "\015"
1, 54208, Note_on_c, 3, 67, 0
1, 54238, Note_on_c, 4, 62, 0
1, 54239, Note_on_c, 4, 58, 0
1, 54240, Note_on_c, 9, 42, 43
1, 54241, Note_on_c, 0, 65, 0
1, 54242, Note_on_c, 0, 65, 63
1, 54246, Note_on_c, 9, 42, 0
1, 54299, Note_on_c, 4, 62, 41
1, 54300, Note_on_c, 0, 58, 0
1, 54300, Note_on_c, 0, 65, 0
1, 54300, Note_on_c, 0, 70, 0
1, 54301, Note_on_c, 0, 77, 114
1, 54301, Note_on_c, 0, 70, 101
1, 54301, Note_on_c, 0, 58, 103
1, 54301, Note_on_c, 0, 65, 87
1, 54304, Note_on_c, 9, 36, 58
1, 54310, Note_on_c, 9, 36, 0
1, 54322, Note_on_c, 1, 34, 0
1, 54328, Note_on_c, 3, 65, 0
1, 54329, Note_on_c, 4, 53, 0
1, 54330, Note_on_c, 4, 62, 0
1, 54334, Note_on_c, 4, 53, 72
1, 54334, Lyric_t, "take "
1, 54334, Note_on_c, 3, 67, 103
1, 54336, Note_on_c, 9, 38, 110
1, 54336, Note_on_c, 4, 58, 81
1, 54336, Note_on_c, 9, 42, 105
1, 54338, Note_on_c, 4, 62, 83
1, 54340, Note_on_c, 4, 65, 57
1, 54342, Note_on_c, 9, 42, 0
1, 54342, Note_on_c, 9, 38, 0
1, 54371, Note_on_c, 4, 65, 0
1, 54395, Note_on_c, 0, 65, 0
1, 54396, Note_on_c, 0, 65, 62
1, 54398, Note_on_c, 3, 67, 0
1, 54400, Note_on_c, 1, 41, 79
1, 54423, Note_on_c, 1, 41, 0
1, 54426, Note_on_c, 4, 58, 0
1, 54427, Note_on_c, 4, 53, 0
1, 54429, Note_on_c, 0, 70, 0
1, 54429, Note_on_c, 0, 46, 0
1, 54429, Note_on_c, 4, 53, 38
1, 54430, Note_on_c, 4, 62, 0
1, 54430, Note_on_c, 0, 46, 76
1, 54430, Note_on_c, 0, 70, 112
1, 54431, Note_on_c, 0, 65, 0
1, 54432, Lyric_t, "all "
1, 54432, Note_on_c, 3, 67, 100
1, 54432, Note_on_c, 1, 46, 84
1, 54432, Note_on_c, 9, 42, 46
1, 54432, Note_on_c, 0, 65, 116
1, 54438, Note_on_c, 9, 42, 0
1, 54438, Note_on_c, 4, 53, 0
1, 54488, Note_on_c, 4, 46, 20
1, 54490, Note_on_c, 3, 67, 0
1, 54494, Note_on_c, 1, 46, 0
1, 54494, Note_on_c, 3, 65, 94
1, 54494, Lyric_t, "you "
1, 54496, Note_on_c, 1, 41, 81
1, 54515, Note_on_c, 3, 65, 0
1, 54517, Note_on_c, 0, 65, 0
1, 54517, Note_on_c, 0, 70, 0
1, 54517, Note_on_c, 0, 74, 0
1, 54517, Note_on_c, 0, 58, 0
1, 54517, Note_on_c, 0, 46, 0
1, 54517, Note_on_c, 1, 41, 0
1, 54517, Note_on_c, 0, 77, 0
1, 54518, Note_on_c, 4, 46, 0
1, 54521, Note_on_c, 2, 74, 0
1, 54521, Note_on_c, 2, 77, 0
1, 54521, Note_on_c, 2, 82, 0
1, 54525, Note_on_c, 4, 56, 46
1, 54525, Note_on_c, 4, 60, 59
1, 54526, Note_on_c, 0, 63, 87
1, 54526, Note_on_c, 0, 44, 86
1, 54528, Note_on_c, 2, 80, 57
1, 54528, Note_on_c, 9, 36, 75
1, 54528, Note_on_c, 9, 42, 101
1, 54528, Note_on_c, 1, 44, 90
1, 54528, Note_on_c, 2, 75, 57
1, 54528, Note_on_c, 0, 68, 93
1, 54528, Note_on_c, 2, 84, 57
1, 54528, Note_on_c, 0, 56, 112
1, 54528, Note_on_c, 0, 72, 108
1, 54530, Note_on_c, 3, 65, 97
1, 54530, Lyric_t, "need "
1, 54531, Note_on_c, 4, 63, 68
1, 54534, Note_on_c, 9, 42, 0
1, 54534, Note_on_c, 9, 36, 0
1, 54591, Note_on_c, 3, 65, 0
1, 54594, Note_on_c, 3, 63, 110
1, 54606, Note_on_c, 0, 63, 0
1, 54622, Note_on_c, 0, 63, 48
1, 54624, Note_on_c, 4, 60, 0
1, 54624, Note_on_c, 9, 38, 109
1, 54624, Note_on_c, 9, 42, 69
1, 54627, Note_on_c, 4, 63, 0
1, 54630, Note_on_c, 9, 42, 0
1, 54630, Note_on_c, 9, 38, 0
1, 54635, Note_on_c, 1, 44, 0
1, 54656, Note_on_c, 9, 38, 104
1, 54660, Note_on_c, 0, 68, 0
1, 54662, Note_on_c, 9, 38, 0
1, 54668, Note_on_c, 0, 56, 0
1, 54670, Note_on_c, 0, 63, 0
1, 54672, Note_on_c, 0, 72, 0
1, 54681, Note_on_c, 4, 63, 32
1, 54684, Note_on_c, 0, 56, 118
1, 54684, Note_on_c, 0, 63, 103
1, 54684, Note_on_c, 0, 75, 93
1, 54685, Note_on_c, 0, 68, 84
1, 54688, Note_on_c, 9, 38, 95
1, 54688, Note_on_c, 1, 39, 99
1, 54694, Note_on_c, 9, 38, 0
1, 54719, Note_on_c, 1, 39, 0
1, 54720, Note_on_c, 1, 44, 87
1, 54720, Note_on_c, 9, 42, 105
1, 54720, Note_on_c, 9, 45, 75
1, 54726, Note_on_c, 9, 45, 0
1, 54726, Note_on_c, 9, 42, 0
1, 54727, Note_on_c, 4, 63, 0
1, 54752, Note_on_c, 9, 38, 116
1, 54758, Note_on_c, 9, 38, 0
1, 54777, Note_on_c, 4, 56, 0
1, 54782, Note_on_c, 0, 56, 0
1, 54782, Note_on_c, 4, 60, 78
1, 54783, Note_on_c, 4, 56, 73
1, 54784, Note_on_c, 9, 45, 78
1, 54790, Note_on_c, 9, 45, 0
1, 54800, Note_on_c, 1, 44, 0
1, 54801, Note_on_c, 0, 68, 0
1, 54812, Note_on_c, 4, 60, 0
1, 54814, Note_on_c, 4, 56, 0
1, 54816, Note_on_c, 9, 38, 111
1, 54817, Note_on_c, 0, 68, 103
1, 54822, Note_on_c, 9, 38, 0
1, 54826, Note_on_c, 0, 44, 0
1, 54848, Note_on_c, 9, 38, 118
1, 54854, Note_on_c, 9, 38, 0
1, 54876, Note_on_c, 0, 63, 0
1, 54880, Note_on_c, 9, 44, 85
1, 54880, Note_on_c, 1, 44, 92
1, 54886, Note_on_c, 9, 44, 0
1, 54900, Note_on_c, 0, 75, 0
1, 54905, Note_on_c, 0, 68, 0
1, 54909, Note_on_c, 1, 44, 0
1, 54909, Note_on_c, 4, 56, 64
1, 54910, Note_on_c, 4, 60, 79
1, 54912, Note_on_c, 9, 42, 91
1, 54912, Note_on_c, 0, 80, 103
1, 54912, Note_on_c, 9, 36, 98
1, 54912, Note_on_c, 0, 44, 102
1, 54912, Note_on_c, 4, 63, 79
1, 54913, Note_on_c, 0, 75, 79
1, 54916, Note_on_c, 0, 72, 112
1, 54918, Note_on_c, 9, 36, 0
1, 54918, Note_on_c, 9, 42, 0
1, 54958, Note_on_c, 3, 63, 0
1, 54976, Note_on_c, 1, 44, 94
1, 54998, Note_on_c, 4, 56, 0
1, 55002, Note_on_c, 4, 63, 0
1, 55004, Note_on_c, 1, 44, 0
1, 55005, Note_on_c, 4, 60, 0
1, 55005, Note_on_c, 4, 56, 35
1, 55006, Note_on_c, 4, 60, 32
1, 55008, Note_on_c, 1, 44, 99
1, 55008, Note_on_c, 9, 42, 55
1, 55012, Note_on_c, 4, 63, 20
1, 55014, Note_on_c, 9, 42, 0
1, 55039, Note_on_c, 4, 63, 0
1, 55050, Note_on_c, 1, 44, 0
1, 55052, Note_on_c, 0, 80, 0
1, 55054, Note_on_c, 4, 60, 0
1, 55056, Note_on_c, 0, 72, 0
1, 55065, Note_on_c, 4, 63, 57
1, 55067, Note_on_c, 4, 60, 46
1, 55069, Note_on_c, 0, 75, 0
1, 55069, Note_on_c, 0, 80, 97
1, 55070, Note_on_c, 0, 56, 109
1, 55070, Note_on_c, 0, 68, 109
1, 55070, Note_on_c, 0, 72, 106
1, 55070, Note_on_c, 0, 75, 95
1, 55072, Note_on_c, 9, 36, 82
1, 55072, Note_on_c, 1, 44, 89
1, 55074, Lyric_t, "to "
1, 55074, Note_on_c, 3, 63, 96
1, 55078, Note_on_c, 9, 36, 0
1, 55094, Note_on_c, 4, 63, 0
1, 55098, Note_on_c, 4, 60, 0
1, 55100, Note_on_c, 1, 44, 0
1, 55104, Note_on_c, 3, 63, 0
1, 55104, Note_on_c, 9, 42, 97
1, 55104, Note_on_c, 9, 38, 109
1, 55104, Note_on_c, 1, 44, 86
1, 55105, Lyric_t, "live "
1, 55105, Note_on_c, 3, 67, 106
1, 55110, Note_on_c, 9, 38, 0
1, 55110, Note_on_c, 9, 42, 0
1, 55156, Note_on_c, 1, 44, 0
1, 55162, Note_on_c, 4, 56, 0
1, 55162, Note_on_c, 4, 63, 83
1, 55163, Note_on_c, 4, 60, 76
1, 55166, Note_on_c, 4, 56, 66
1, 55174, Note_on_c, 0, 72, 0
1, 55192, Note_on_c, 4, 63, 0
1, 55192, Note_on_c, 0, 44, 0
1, 55193, Note_on_c, 4, 60, 0
1, 55194, Note_on_c, 4, 56, 0
1, 55197, Note_on_c, 4, 56, 56
1, 55197, Note_on_c, 4, 60, 70
1, 55198, Note_on_c, 0, 44, 69
1, 55200, Note_on_c, 3, 67, 0
1, 55200, Note_on_c, 1, 44, 103
1, 55200, Note_on_c, 9, 42, 45
1, 55201, Lyric_t, "in"
1, 55201, Note_on_c, 3, 65, 109
1, 55201, Note_on_c, 0, 72, 99
1, 55206, Note_on_c, 9, 42, 0
1, 55210, Note_on_c, 0, 44, 0
1, 55230, Note_on_c, 0, 68, 0
1, 55250, Note_on_c, 4, 56, 0
1, 55254, Note_on_c, 4, 60, 0
1, 55261, Control_c, 8, 11, 42
1, 55262, Note_on_c, 3, 65, 0
1, 55262, Note_on_c, 0, 75, 0
1, 55264, Note_on_c, 9, 38, 103
1, 55265, Note_on_c, 0, 68, 63
1, 55270, Note_on_c, 9, 38, 0
1, 55280, Note_on_c, 0, 68, 0
1, 55289, Note_on_c, 0, 80, 0
1, 55289, Note_on_c, 0, 72, 0
1, 55290, Note_on_c, 0, 56, 0
1, 55294, Note_on_c, 1, 44, 0
1, 55294, Note_on_c, 4, 61, 77
1, 55294, Note_on_c, 4, 56, 64
1, 55295, Note_on_c, 2, 80, 0
1, 55296, Note_on_c, 1, 37, 103
1, 55296, Note_on_c, 8, 49, 105
1, 55296, Note_on_c, 2, 80, 54
1, 55296, Note_on_c, 0, 37, 99
1, 55296, Note_on_c, 8, 65, 105
1, 55296, Note_on_c, 8, 61, 105
1, 55296, Note_on_c, 8, 56, 105
1, 55296, Note_on_c, 0, 49, 118
1, 55296, Note_on_c, 9, 42, 88
1, 55296, Note_on_c, 2, 73, 54
1, 55296, Note_on_c, 9, 36, 86
1, 55297, Note_on_c, 0, 73, 99
1, 55297, Note_on_c, 0, 68, 87
1, 55297, Note_on_c, 0, 77, 99
1, 55298, Note_on_c, 2, 77, 54
1, 55298, Lyric_t, ""
1, 55298, Lyric_t, "\015"
1, 55298, Note_on_c, 3, 65, 108
1, 55298, Lyric_t, "side. "
1, 55302, Note_on_c, 9, 36, 0
1, 55302, Note_on_c, 9, 42, 0
1, 55302, Note_on_c, 2, 84, 0
1, 55302, Note_on_c, 2, 75, 0
1, 55387, Note_on_c, 4, 61, 0
1, 55392, Note_on_c, 9, 42, 24
1, 55398, Note_on_c, 9, 42, 0
1, 55411, Note_on_c, 0, 49, 0
1, 55433, Note_on_c, 0, 68, 0
1, 55454, Note_on_c, 0, 49, 97
1, 55454, Note_on_c, 0, 65, 102
1, 55454, Note_on_c, 0, 68, 93
1, 55454, Note_on_c, 0, 61, 106
1, 55456, Note_on_c, 9, 36, 80
1, 55462, Note_on_c, 9, 36, 0
1, 55483, Note_on_c, 4, 56, 0
1, 55486, Control_c, 8, 11, 45
1, 55488, Note_on_c, 9, 38, 107
1, 55488, Note_on_c, 9, 42, 88
1, 55490, Control_c, 8, 11, 46
1, 55491, Control_c, 8, 11, 47
1, 55494, Note_on_c, 9, 42, 0
1, 55494, Note_on_c, 9, 38, 0
1, 55496, Control_c, 8, 11, 48
1, 55498, Control_c, 8, 11, 49
1, 55517, Control_c, 8, 11, 50
1, 55520, Control_c, 8, 11, 51
1, 55522, Note_on_c, 1, 37, 0
1, 55533, Control_c, 8, 11, 52
1, 55545, Note_on_c, 0, 73, 0
1, 55545, Note_on_c, 0, 77, 0
1, 55552, Control_c, 8, 11, 53
1, 55558, Control_c, 8, 11, 54
1, 55568, Control_c, 8, 11, 55
1, 55570, Note_on_c, 0, 68, 0
1, 55574, Note_on_c, 0, 65, 0
1, 55578, Note_on_c, 0, 49, 0
1, 55582, Note_on_c, 0, 73, 87
1, 55584, Note_on_c, 1, 49, 86
1, 55584, Note_on_c, 9, 42, 45
1, 55584, Note_on_c, 0, 49, 87
1, 55584, Note_on_c, 0, 68, 95
1, 55585, Note_on_c, 0, 65, 100
1, 55587, Control_c, 8, 11, 56
1, 55590, Note_on_c, 9, 42, 0
1, 55600, Control_c, 8, 11, 57
1, 55610, Control_c, 8, 11, 58
1, 55621, Control_c, 8, 11, 59
1, 55624, Control_c, 8, 11, 60
1, 55629, Control_c, 8, 11, 61
1, 55634, Control_c, 8, 11, 62
1, 55638, Control_c, 8, 11, 63
1, 55643, Control_c, 8, 11, 64
1, 55646, Control_c, 8, 11, 65
1, 55648, Note_on_c, 9, 38, 107
1, 55651, Control_c, 8, 11, 66
1, 55654, Note_on_c, 9, 38, 0
1, 55658, Control_c, 8, 11, 67
1, 55660, Note_on_c, 0, 37, 0
1, 55662, Control_c, 8, 11, 68
1, 55672, Control_c, 8, 11, 69
1, 55673, Note_on_c, 3, 65, 0
1, 55675, Control_c, 8, 11, 70
1, 55680, Note_on_c, 9, 36, 73
1, 55680, Note_on_c, 9, 42, 101
1, 55680, Control_c, 8, 11, 71
1, 55682, Note_on_c, 0, 61, 0
1, 55683, Control_c, 8, 11, 72
1, 55686, Note_on_c, 9, 42, 0
1, 55686, Note_on_c, 9, 36, 0
1, 55693, Control_c, 8, 11, 73
1, 55702, Control_c, 8, 11, 75
1, 55712, Note_on_c, 0, 49, 0
1, 55712, Control_c, 8, 11, 76
1, 55722, Control_c, 8, 11, 77
1, 55723, Control_c, 8, 11, 78
1, 55728, Note_on_c, 1, 49, 0
1, 55728, Note_on_c, 0, 68, 0
1, 55730, Note_on_c, 0, 73, 0
1, 55730, Control_c, 8, 11, 79
1, 55737, Note_on_c, 0, 65, 0
1, 55739, Control_c, 8, 11, 80
1, 55741, Note_on_c, 0, 73, 102
1, 55741, Note_on_c, 0, 49, 102
1, 55741, Note_on_c, 0, 61, 102
1, 55741, Note_on_c, 0, 68, 102
1, 55741, Note_on_c, 0, 65, 102
1, 55742, Control_c, 8, 11, 81
1, 55744, Control_c, 8, 11, 82
1, 55744, Note_on_c, 1, 53, 90
1, 55744, Note_on_c, 9, 36, 61
1, 55747, Control_c, 8, 11, 83
1, 55750, Note_on_c, 9, 36, 0
1, 55752, Control_c, 8, 11, 84
1, 55763, Note_on_c, 1, 53, 0
1, 55763, Control_c, 8, 11, 85
1, 55766, Control_c, 8, 11, 86
1, 55770, Control_c, 8, 11, 87
1, 55773, Control_c, 8, 11, 88
1, 55776, Note_on_c, 9, 42, 50
1, 55776, Control_c, 8, 11, 89
1, 55782, Note_on_c, 9, 42, 0
1, 55782, Control_c, 8, 11, 90
1, 55786, Control_c, 8, 11, 91
1, 55787, Control_c, 8, 11, 92
1, 55792, Control_c, 8, 11, 93
1, 55802, Control_c, 8, 11, 94
1, 55803, Control_c, 8, 11, 95
1, 55805, Control_c, 8, 11, 96
1, 55810, Control_c, 8, 11, 97
1, 55825, Note_on_c, 0, 65, 0
1, 55838, Note_on_c, 0, 61, 0
1, 55838, Note_on_c, 0, 65, 73
1, 55840, Note_on_c, 9, 36, 61
1, 55840, Note_on_c, 1, 56, 84
1, 55846, Note_on_c, 9, 36, 0
1, 55857, Note_on_c, 0, 73, 0
1, 55857, Note_on_c, 0, 68, 0
1, 55859, Note_on_c, 0, 49, 0
1, 55867, Note_on_c, 0, 65, 0
1, 55872, Note_on_c, 0, 68, 108
1, 55872, Note_on_c, 0, 65, 108
1, 55872, Note_on_c, 0, 77, 108
1, 55872, Note_on_c, 9, 38, 111
1, 55872, Note_on_c, 9, 46, 77
1, 55873, Note_on_c, 0, 73, 108
1, 55873, Note_on_c, 0, 61, 108
1, 55878, Note_on_c, 9, 46, 0
1, 55878, Note_on_c, 9, 38, 0
1, 55926, Note_on_c, 0, 65, 0
1, 55936, Note_on_c, 9, 36, 70
1, 55942, Note_on_c, 9, 36, 0
1, 55968, Note_on_c, 9, 42, 77
1, 55971, Note_on_c, 0, 65, 77
1, 55974, Note_on_c, 9, 42, 0
1, 55986, Note_on_c, 8, 56, 0
1, 56000, Note_on_c, 9, 45, 70
1, 56006, Note_on_c, 9, 45, 0
1, 56028, Note_on_c, 0, 77, 0
1, 56028, Note_on_c, 1, 56, 0
1, 56032, Note_on_c, 9, 45, 48
1, 56032, Note_on_c, 1, 58, 98
1, 56035, Note_on_c, 0, 65, 0
1, 56038, Note_on_c, 9, 45, 0
1, 56041, Note_on_c, 0, 61, 0
1, 56049, Note_on_c, 0, 73, 0
1, 56056, Note_on_c, 0, 68, 0
1, 56060, Note_on_c, 8, 61, 0
1, 56062, Note_on_c, 8, 49, 0
1, 56062, Note_on_c, 0, 65, 112
1, 56062, Note_on_c, 0, 77, 112
1, 56062, Note_on_c, 0, 48, 112
1, 56062, Note_on_c, 0, 70, 112
1, 56063, Note_on_c, 2, 80, 0
1, 56063, Note_on_c, 2, 77, 0
1, 56063, Note_on_c, 2, 73, 0
1, 56064, Note_on_c, 2, 74, 51
1, 56064, Note_on_c, 2, 60, 51
1, 56064, Note_on_c, 2, 77, 51
1, 56064, Note_on_c, 8, 58, 103
1, 56064, Note_on_c, 8, 48, 103
1, 56064, Note_on_c, 9, 49, 71
1, 56064, Note_on_c, 2, 84, 51
1, 56064, Note_on_c, 2, 70, 51
1, 56064, Note_on_c, 0, 36, 112
1, 56064, Note_on_c, 8, 62, 103
1, 56064, Note_on_c, 0, 74, 112
1, 56064, Note_on_c, 9, 42, 62
1, 56064, Note_on_c, 9, 36, 72
1, 56068, Note_on_c, 1, 58, 0
1, 56070, Note_on_c, 9, 36, 0
1, 56070, Note_on_c, 9, 42, 0
1, 56070, Note_on_c, 9, 49, 0
1, 56127, Note_on_c, 1, 55, 107
1, 56156, Note_on_c, 1, 55, 0
1, 56160, Note_on_c, 0, 65, 0
1, 56160, Note_on_c, 9, 46, 62
1, 56160, Note_on_c, 9, 36, 82
1, 56161, Note_on_c, 0, 65, 64
1, 56166, Note_on_c, 9, 36, 0
1, 56166, Note_on_c, 9, 46, 0
1, 56182, Control_c, 8, 11, 99
1, 56184, Control_c, 8, 11, 100
1, 56186, Control_c, 8, 11, 101
1, 56187, Control_c, 8, 11, 102
1, 56192, Control_c, 8, 11, 103
1, 56197, Control_c, 8, 11, 104
1, 56205, Control_c, 8, 11, 105
1, 56208, Note_on_c, 9, 38, 77
1, 56214, Note_on_c, 9, 38, 0
1, 56222, Control_c, 8, 11, 106
1, 56223, Note_on_c, 1, 52, 107
1, 56224, Note_on_c, 0, 48, 0
1, 56224, Note_on_c, 9, 38, 106
1, 56225, Note_on_c, 0, 48, 106
1, 56230, Note_on_c, 9, 38, 0
1, 56238, Control_c, 8, 11, 107
1, 56240, Note_on_c, 9, 38, 102
1, 56246, Note_on_c, 9, 38, 0
1, 56249, Note_on_c, 1, 52, 0
1, 56254, Note_on_c, 1, 55, 111
1, 56255, Note_on_c, 0, 65, 0
1, 56255, Note_on_c, 0, 70, 0
1, 56255, Note_on_c, 0, 77, 0
1, 56256, Note_on_c, 0, 74, 0
1, 56256, Note_on_c, 9, 42, 95
1, 56256, Note_on_c, 0, 65, 112
1, 56256, Note_on_c, 0, 70, 115
1, 56256, Note_on_c, 9, 38, 118
1, 56256, Control_c, 8, 11, 108
1, 56256, Note_on_c, 0, 77, 106
1, 56257, Note_on_c, 0, 74, 106
1, 56259, Control_c, 8, 11, 109
1, 56262, Note_on_c, 9, 38, 0
1, 56262, Note_on_c, 9, 42, 0
1, 56266, Control_c, 8, 11, 110
1, 56267, Control_c, 8, 11, 111
1, 56274, Control_c, 8, 11, 112
1, 56280, Control_c, 8, 11, 113
1, 56288, Note_on_c, 9, 47, 95
1, 56290, Control_c, 8, 11, 114
1, 56294, Note_on_c, 9, 47, 0
1, 56299, Control_c, 8, 11, 115
1, 56302, Control_c, 8, 11, 116
1, 56312, Control_c, 8, 11, 117
1, 56318, Note_on_c, 1, 55, 0
1, 56319, Note_on_c, 1, 60, 107
1, 56320, Note_on_c, 9, 47, 103
1, 56326, Note_on_c, 9, 47, 0
1, 56330, Control_c, 8, 11, 118
1, 56333, Control_c, 8, 11, 119
1, 56338, Control_c, 8, 11, 120
1, 56344, Control_c, 8, 11, 121
1, 56352, Note_on_c, 1, 60, 0
1, 56352, Note_on_c, 9, 47, 91
1, 56352, Note_on_c, 9, 42, 103
1, 56353, Note_on_c, 0, 48, 0
1, 56354, Note_on_c, 0, 48, 72
1, 56357, Control_c, 8, 11, 122
1, 56358, Note_on_c, 9, 42, 0
1, 56358, Note_on_c, 9, 47, 0
1, 56366, Control_c, 8, 11, 123
1, 56368, Note_on_c, 9, 45, 33
1, 56368, Control_c, 8, 11, 124
1, 56374, Note_on_c, 9, 45, 0
1, 56378, Control_c, 8, 11, 125
1, 56382, Control_c, 8, 11, 126
1, 56384, Note_on_c, 9, 45, 57
1, 56386, Control_c, 8, 11, 127
1, 56390, Note_on_c, 9, 45, 0
1, 56400, Note_on_c, 9, 45, 33
1, 56406, Note_on_c, 9, 45, 0
1, 56413, Note_on_c, 0, 48, 0
1, 56413, Note_on_c, 0, 74, 0
1, 56413, Note_on_c, 0, 70, 0
1, 56413, Note_on_c, 0, 65, 0
1, 56414, Note_on_c, 0, 48, 72
1, 56414, Note_on_c, 0, 74, 116
1, 56414, Note_on_c, 0, 65, 122
1, 56414, Note_on_c, 0, 70, 112
1, 56414, Note_on_c, 0, 60, 106
1, 56415, Note_on_c, 1, 58, 109
1, 56416, Note_on_c, 9, 45, 82
1, 56422, Note_on_c, 9, 45, 0
1, 56442, Note_on_c, 1, 58, 0
1, 56447, Note_on_c, 1, 62, 112
1, 56448, Note_on_c, 9, 45, 72
1, 56448, Note_on_c, 9, 42, 73
1, 56454, Note_on_c, 9, 42, 0
1, 56454, Note_on_c, 9, 45, 0
1, 56480, Note_on_c, 9, 45, 103
1, 56486, Note_on_c, 9, 45, 0
1, 56499, Note_on_c, 1, 62, 0
1, 56511, Note_on_c, 1, 60, 116
1, 56512, Note_on_c, 9, 43, 44
1, 56518, Note_on_c, 9, 43, 0
1, 56528, Note_on_c, 9, 43, 45
1, 56534, Note_on_c, 9, 43, 0
1, 56534, Note_on_c, 1, 60, 0
1, 56544, Note_on_c, 0, 74, 0
1, 56544, Note_on_c, 0, 60, 0
1, 56544, Note_on_c, 0, 48, 0
1, 56544, Note_on_c, 0, 77, 0
1, 56544, Note_on_c, 9, 43, 68
1, 56544, Note_on_c, 9, 42, 68
1, 56545, Note_on_c, 0, 74, 115
1, 56545, Note_on_c, 0, 48, 115
1, 56545, Note_on_c, 0, 60, 115
1, 56545, Note_on_c, 0, 82, 115
1, 56545, Note_on_c, 0, 77, 115
1, 56550, Note_on_c, 9, 42, 0
1, 56550, Note_on_c, 9, 43, 0
1, 56576, Note_on_c, 9, 43, 90
1, 56582, Note_on_c, 9, 43, 0
1, 56602, Note_on_c, 1, 58, 101
1, 56608, Note_on_c, 9, 43, 99
1, 56614, Note_on_c, 9, 43, 0
1, 56624, Note_on_c, 9, 43, 49
1, 56630, Note_on_c, 9, 43, 0
1, 56639, Note_on_c, 1, 58, 0
1, 56640, Note_on_c, 9, 42, 105
1, 56640, Note_on_c, 1, 55, 95
1, 56640, Note_on_c, 9, 38, 118
1, 56646, Note_on_c, 9, 38, 0
1, 56646, Note_on_c, 9, 42, 0
1, 56663, Note_on_c, 1, 55, 0
1, 56664, Note_on_c, 1, 53, 104
1, 56687, Note_on_c, 1, 53, 0
1, 56688, Note_on_c, 9, 36, 101
1, 56688, Note_on_c, 1, 50, 102
1, 56694, Note_on_c, 9, 36, 0
1, 56705, Note_on_c, 1, 50, 0
1, 56709, Note_on_c, 0, 60, 0
1, 56709, Note_on_c, 0, 77, 0
1, 56709, Note_on_c, 0, 82, 0
1, 56709, Note_on_c, 0, 48, 0
1, 56709, Note_on_c, 0, 74, 0
1, 56710, Note_on_c, 0, 60, 106
1, 56710, Note_on_c, 0, 48, 106
1, 56710, Note_on_c, 0, 86, 106
1, 56710, Note_on_c, 0, 74, 106
1, 56710, Note_on_c, 0, 82, 106
1, 56710, Note_on_c, 0, 77, 106
1, 56712, Note_on_c, 1, 48, 101
1, 56731, Note_on_c, 1, 48, 0
1, 56732, Note_on_c, 9, 40, 71
1, 56736, Note_on_c, 9, 38, 116
1, 56736, Note_on_c, 9, 42, 101
1, 56736, Note_on_c, 1, 43, 99
1, 56738, Note_on_c, 9, 40, 0
1, 56742, Note_on_c, 9, 42, 0
1, 56742, Note_on_c, 9, 38, 0
1, 56759, Note_on_c, 1, 43, 0
1, 56760, Note_on_c, 1, 41, 98
1, 56783, Note_on_c, 1, 41, 0
1, 56784, Note_on_c, 1, 38, 99
1, 56784, Note_on_c, 9, 36, 96
1, 56790, Note_on_c, 9, 36, 0
1, 56807, Note_on_c, 1, 38, 0
1, 56808, Note_on_c, 1, 36, 100
1, 56815, Note_on_c, 8, 62, 0
1, 56815, Note_on_c, 8, 65, 0
1, 56820, Note_on_c, 8, 58, 0
1, 56820, Note_on_c, 8, 48, 0
1, 56821, Note_on_c, 0, 77, 0
1, 56821, Note_on_c, 0, 48, 0
1, 56821, Note_on_c, 0, 65, 0
1, 56821, Note_on_c, 0, 70, 0
1, 56821, Note_on_c, 0, 74, 0
1, 56821, Note_on_c, 0, 82, 0
1, 56821, Note_on_c, 0, 60, 0
1, 56821, Note_on_c, 0, 36, 0
1, 56821, Note_on_c, 0, 86, 0
1, 56830, Note_on_c, 2, 60, 0
1, 56830, Note_on_c, 2, 77, 0
1, 56830, Note_on_c, 2, 74, 0
1, 56831, Note_on_c, 1, 36, 0
1, 56832, Note_on_c, 2, 70, 0
1, 56832, Note_on_c, 2, 84, 0
1, 56832, Note_on_c, 0, 77, 100
1, 56832, Note_on_c, 0, 65, 108
1, 56832, Note_on_c, 0, 41, 92
1, 56832, Note_on_c, 0, 72, 116
1, 56832, Note_on_c, 1, 41, 100
1, 56832, Note_on_c, 0, 29, 75
1, 56832, Note_on_c, 9, 49, 103
1, 56832, Note_on_c, 9, 36, 103
1, 56838, Note_on_c, 9, 36, 0
1, 56838, Note_on_c, 9, 49, 0
1, 56880, Note_on_c, 0, 65, 0
1, 56882, Note_on_c, 0, 77, 0
1, 56882, Note_on_c, 0, 72, 0
1, 56884, Note_on_c, 0, 29, 0
1, 56886, Note_on_c, 0, 41, 0
1, 56903, Note_on_c, 0, 77, 86
1, 56905, Note_on_c, 0, 65, 93
1, 56905, Note_on_c, 0, 72, 102
1, 56914, Note_on_c, 0, 72, 0
1, 56915, Note_on_c, 0, 65, 0
1, 56918, Note_on_c, 0, 77, 0
1, 56927, Note_on_c, 0, 29, 75
1, 56928, Note_on_c, 0, 41, 93
1, 56963, Note_on_c, 0, 29, 0
1, 56967, Note_on_c, 0, 41, 0
1, 56975, Note_on_c, 0, 72, 112
1, 56975, Note_on_c, 0, 65, 108
1, 56975, Note_on_c, 0, 77, 90
1, 56986, Note_on_c, 0, 72, 0
1, 56987, Note_on_c, 0, 65, 0
1, 56988, Note_on_c, 0, 77, 0
1, 57023, Note_on_c, 0, 41, 99
1, 57023, Note_on_c, 0, 29, 90
1, 57066, Note_on_c, 0, 29, 0
1, 57071, Note_on_c, 0, 65, 112
1, 57071, Note_on_c, 0, 77, 92
1, 57071, Note_on_c, 0, 72, 116
1, 57072, Note_on_c, 0, 41, 0
1, 57094, Note_on_c, 0, 72, 0
1, 57094, Note_on_c, 0, 65, 0
1, 57095, Note_on_c, 0, 77, 0
1, 57119, Note_on_c, 0, 29, 89
1, 57119, Note_on_c, 0, 41, 92
1, 57143, Note_on_c, 0, 67, 82
1, 57143, Note_on_c, 0, 70, 84
1, 57143, Note_on_c, 0, 77, 68
1, 57143, Note_on_c, 0, 75, 69
1, 57152, Note_on_c, 0, 75, 0
1, 57153, Note_on_c, 0, 70, 0
1, 57154, Note_on_c, 0, 77, 0
1, 57156, Note_on_c, 0, 67, 0
1, 57160, Note_on_c, 0, 29, 0
1, 57161, Note_on_c, 0, 41, 0
1, 57167, Note_on_c, 0, 77, 71
1, 57167, Note_on_c, 0, 70, 84
1, 57167, Note_on_c, 0, 67, 72
1, 57167, Note_on_c, 0, 75, 81
1, 57174, Note_on_c, 0, 70, 0
1, 57175, Note_on_c, 0, 75, 0
1, 57175, Note_on_c, 0, 77, 0
1, 57176, Note_on_c, 0, 67, 0
1, 57191, Note_on_c, 0, 75, 73
1, 57191, Note_on_c, 0, 77, 75
1, 57191, Note_on_c, 0, 67, 74
1, 57191, Note_on_c, 0, 70, 87
1, 57198, Note_on_c, 0, 77, 0
1, 57198, Note_on_c, 0, 75, 0
1, 57199, Note_on_c, 0, 70, 0
1, 57200, Note_on_c, 0, 67, 0
1, 57215, Note_on_c, 0, 77, 96
1, 57215, Note_on_c, 0, 29, 78
1, 57215, Note_on_c, 0, 70, 106
1, 57215, Note_on_c, 0, 67, 104
1, 57215, Note_on_c, 0, 75, 89
1, 57215, Note_on_c, 0, 41, 89
1, 57216, Note_on_c, 1, 41, 0
1, 57247, Note_on_c, 0, 75, 0
1, 57250, Note_on_c, 0, 70, 0
1, 57250, Note_on_c, 0, 77, 0
1, 57253, Note_on_c, 0, 29, 0
1, 57254, Note_on_c, 0, 67, 0
1, 57256, Note_on_c, 0, 41, 0
1, 57263, Note_on_c, 0, 77, 79
1, 57263, Note_on_c, 0, 70, 79
1, 57263, Note_on_c, 0, 75, 79
1, 57263, Note_on_c, 0, 67, 79
1, 57270, Note_on_c, 0, 75, 0
1, 57272, Note_on_c, 0, 67, 0
1, 57272, Note_on_c, 0, 77, 0
1, 57274, Note_on_c, 0, 70, 0
1, 57287, Note_on_c, 0, 77, 79
1, 57287, Note_on_c, 0, 67, 70
1, 57287, Note_on_c, 0, 70, 95
1, 57287, Note_on_c, 0, 75, 84
1, 57294, Note_on_c, 0, 75, 0
1, 57294, Note_on_c, 0, 77, 0
1, 57294, Note_on_c, 0, 67, 0
1, 57294, Note_on_c, 0, 70, 0
1, 57311, Note_on_c, 0, 67, 106
1, 57311, Note_on_c, 0, 29, 83
1, 57311, Note_on_c, 0, 41, 100
1, 57311, Note_on_c, 0, 77, 90
1, 57311, Note_on_c, 0, 70, 112
1, 57311, Note_on_c, 0, 75, 95
1, 57341, Note_on_c, 0, 75, 0
1, 57341, Note_on_c, 0, 77, 0
1, 57341, Note_on_c, 0, 70, 0
1, 57345, Note_on_c, 0, 67, 0
1, 57359, Note_on_c, 0, 67, 99
1, 57359, Note_on_c, 0, 70, 99
1, 57359, Note_on_c, 0, 75, 99
1, 57359, Note_on_c, 0, 77, 99
1, 57366, Note_on_c, 0, 77, 0
1, 57366, Note_on_c, 0, 75, 0
1, 57367, Note_on_c, 0, 29, 0
1, 57367, Note_on_c, 0, 70, 0
1, 57368, Note_on_c, 0, 67, 0
1, 57369, Note_on_c, 0, 41, 0
1, 57383, Note_on_c, 0, 70, 93
1, 57383, Note_on_c, 0, 75, 86
1, 57383, Note_on_c, 0, 67, 83
1, 57383, Note_on_c, 0, 77, 81
1, 57390, Note_on_c, 0, 77, 0
1, 57390, Note_on_c, 0, 70, 0
1, 57391, Note_on_c, 0, 67, 0
1, 57391, Note_on_c, 0, 75, 0
1, 57407, Note_on_c, 0, 67, 93
1, 57407, Note_on_c, 0, 77, 78
1, 57407, Note_on_c, 0, 70, 97
1, 57407, Note_on_c, 0, 75, 81
1, 57408, Note_on_c, 0, 41, 99
1, 57408, Note_on_c, 0, 29, 93
1, 57417, Note_on_c, 0, 77, 0
1, 57419, Note_on_c, 0, 75, 0
1, 57419, Note_on_c, 0, 67, 0
1, 57419, Note_on_c, 0, 70, 0
1, 57432, Note_on_c, 0, 77, 81
1, 57433, Note_on_c, 0, 70, 89
1, 57433, Note_on_c, 0, 74, 99
1, 57433, Note_on_c, 0, 65, 93
1, 57442, Note_on_c, 0, 74, 0
1, 57444, Note_on_c, 0, 70, 0
1, 57446, Note_on_c, 0, 77, 0
1, 57446, Note_on_c, 0, 65, 0
1, 57460, Note_on_c, 0, 29, 0
1, 57468, Note_on_c, 0, 41, 0
1, 57479, Note_on_c, 0, 65, 96
1, 57479, Note_on_c, 0, 70, 101
1, 57479, Note_on_c, 0, 77, 83
1, 57479, Note_on_c, 0, 74, 96
1, 57486, Note_on_c, 0, 74, 0
1, 57488, Note_on_c, 0, 65, 0
1, 57489, Note_on_c, 0, 77, 0
1, 57489, Note_on_c, 0, 70, 0
1, 57503, Note_on_c, 0, 29, 85
1, 57504, Note_on_c, 0, 41, 94
1, 57527, Note_on_c, 0, 77, 89
1, 57527, Note_on_c, 0, 70, 109
1, 57527, Note_on_c, 0, 65, 110
1, 57527, Note_on_c, 0, 74, 104
1, 57547, Note_on_c, 0, 41, 0
1, 57550, Note_on_c, 0, 29, 0
1, 57560, Note_on_c, 0, 74, 0
1, 57562, Note_on_c, 0, 70, 0
1, 57566, Note_on_c, 0, 77, 0
1, 57568, Note_on_c, 0, 65, 0
1, 57599, Note_on_c, 0, 69, 116
1, 57599, Note_on_c, 0, 65, 104
1, 57599, Note_on_c, 0, 72, 110
1, 57600, Note_on_c, 0, 77, 97
1, 57600, Note_on_c, 0, 29, 93
1, 57600, Note_on_c, 0, 41, 94
1, 57649, Note_on_c, 0, 69, 0
1, 57650, Note_on_c, 0, 77, 0
1, 57650, Note_on_c, 0, 65, 0
1, 57650, Note_on_c, 0, 72, 0
1, 57654, Note_on_c, 0, 29, 0
1, 57658, Note_on_c, 0, 41, 0
1, 57671, Note_on_c, 0, 65, 82
1, 57671, Note_on_c, 0, 77, 72
1, 57671, Note_on_c, 0, 69, 85
1, 57671, Note_on_c, 0, 72, 85
1, 57680, Note_on_c, 0, 69, 0
1, 57681, Note_on_c, 0, 72, 0
1, 57681, Note_on_c, 0, 77, 0
1, 57684, Note_on_c, 0, 65, 0
1, 57695, Note_on_c, 0, 29, 85
1, 57696, Note_on_c, 0, 41, 96
1, 57738, Note_on_c, 0, 29, 0
1, 57743, Note_on_c, 0, 72, 108
1, 57743, Note_on_c, 0, 69, 110
1, 57743, Note_on_c, 0, 77, 102
1, 57743, Note_on_c, 0, 65, 106
1, 57744, Note_on_c, 0, 41, 0
1, 57750, Note_on_c, 0, 72, 0
1, 57750, Note_on_c, 0, 69, 0
1, 57754, Note_on_c, 0, 77, 0
1, 57756, Note_on_c, 0, 65, 0
1, 57793, Note_on_c, 0, 41, 97
1, 57793, Note_on_c, 0, 29, 82
1, 57830, Note_on_c, 0, 29, 0
1, 57834, Note_on_c, 0, 41, 0
1, 57839, Note_on_c, 0, 69, 116
1, 57839, Note_on_c, 0, 72, 116
1, 57839, Note_on_c, 0, 77, 99
1, 57839, Note_on_c, 0, 65, 114
1, 57849, Note_on_c, 0, 69, 0
1, 57850, Note_on_c, 0, 72, 0
1, 57857, Note_on_c, 0, 65, 0
1, 57872, Note_on_c, 0, 77, 0
1, 57887, Note_on_c, 0, 41, 93
1, 57887, Note_on_c, 0, 29, 83
1, 57911, Note_on_c, 0, 67, 82
1, 57911, Note_on_c, 0, 77, 68
1, 57911, Note_on_c, 0, 70, 84
1, 57911, Note_on_c, 0, 75, 74
1, 57916, Note_on_c, 0, 75, 0
1, 57917, Note_on_c, 0, 77, 0
1, 57918, Note_on_c, 0, 70, 0
1, 57921, Note_on_c, 0, 67, 0
1, 57929, Note_on_c, 0, 29, 0
1, 57930, Note_on_c, 0, 41, 0
1, 57935, Note_on_c, 0, 75, 74
1, 57935, Note_on_c, 0, 70, 87
1, 57935, Note_on_c, 0, 67, 65
1, 57935, Note_on_c, 0, 77, 67
1, 57939, Note_on_c, 0, 67, 0
1, 57941, Note_on_c, 0, 77, 0
1, 57941, Note_on_c, 0, 75, 0
1, 57942, Note_on_c, 0, 70, 0
1, 57959, Note_on_c, 0, 70, 109
1, 57959, Note_on_c, 0, 77, 77
1, 57959, Note_on_c, 0, 75, 97
1, 57959, Note_on_c, 0, 67, 99
1, 57964, Note_on_c, 0, 75, 0
1, 57964, Note_on_c, 0, 70, 0
1, 57964, Note_on_c, 0, 77, 0
1, 57967, Note_on_c, 0, 67, 0
1, 57982, Note_on_c, 0, 29, 82
1, 57983, Note_on_c, 0, 41, 92
1, 57983, Note_on_c, 0, 75, 115
1, 57983, Note_on_c, 0, 67, 102
1, 57983, Note_on_c, 0, 70, 106
1, 57984, Note_on_c, 0, 77, 97
1, 57984, Note_on_c, 9, 36, 105
1, 57985, Note_on_c, 1, 29, 105
1, 57990, Note_on_c, 9, 36, 0
1, 58008, Note_on_c, 9, 38, 100
1, 58014, Note_on_c, 9, 38, 0
1, 58017, Note_on_c, 0, 75, 0
1, 58017, Note_on_c, 0, 70, 0
1, 58017, Note_on_c, 0, 77, 0
1, 58019, Note_on_c, 0, 67, 0
1, 58026, Note_on_c, 1, 29, 0
1, 58031, Note_on_c, 0, 29, 0
1, 58032, Note_on_c, 9, 38, 114
1, 58033, Note_on_c, 0, 70, 57
1, 58033, Note_on_c, 0, 75, 49
1, 58033, Note_on_c, 0, 77, 56
1, 58038, Note_on_c, 0, 77, 0
1, 58038, Note_on_c, 9, 38, 0
1, 58038, Note_on_c, 0, 75, 0
1, 58039, Note_on_c, 0, 70, 0
1, 58043, Note_on_c, 0, 41, 0
1, 58055, Note_on_c, 1, 29, 90
1, 58056, Note_on_c, 9, 38, 103
1, 58057, Note_on_c, 0, 67, 86
1, 58057, Note_on_c, 0, 75, 79
1, 58057, Note_on_c, 0, 77, 78
1, 58057, Note_on_c, 0, 70, 99
1, 58062, Note_on_c, 0, 77, 0
1, 58062, Note_on_c, 0, 75, 0
1, 58062, Note_on_c, 9, 38, 0
1, 58063, Note_on_c, 0, 67, 0
1, 58063, Note_on_c, 0, 70, 0
1, 58073, Note_on_c, 1, 29, 0
1, 58079, Note_on_c, 0, 29, 94
1, 58079, Note_on_c, 1, 41, 103
1, 58080, Note_on_c, 9, 38, 111
1, 58080, Note_on_c, 0, 41, 99
1, 58081, Note_on_c, 0, 67, 110
1, 58081, Note_on_c, 0, 75, 118
1, 58081, Note_on_c, 0, 70, 115
1, 58081, Note_on_c, 0, 77, 99
1, 58086, Note_on_c, 9, 38, 0
1, 58100, Note_on_c, 1, 41, 0
1, 58103, Note_on_c, 1, 29, 92
1, 58104, Note_on_c, 9, 45, 64
1, 58108, Note_on_c, 0, 77, 0
1, 58110, Note_on_c, 9, 45, 0
1, 58110, Note_on_c, 0, 70, 0
1, 58110, Note_on_c, 0, 75, 0
1, 58111, Note_on_c, 0, 67, 0
1, 58117, Note_on_c, 1, 29, 0
1, 58118, Note_on_c, 0, 29, 0
1, 58128, Note_on_c, 9, 45, 89
1, 58129, Note_on_c, 0, 75, 73
1, 58129, Note_on_c, 0, 67, 67
1, 58129, Note_on_c, 0, 70, 77
1, 58129, Note_on_c, 0, 77, 58
1, 58132, Note_on_c, 0, 41, 0
1, 58133, Note_on_c, 0, 77, 0
1, 58134, Note_on_c, 9, 45, 0
1, 58135, Note_on_c, 0, 67, 0
1, 58136, Note_on_c, 0, 75, 0
1, 58136, Note_on_c, 0, 70, 0
1, 58152, Note_on_c, 9, 45, 76
1, 58152, Note_on_c, 1, 39, 100
1, 58153, Note_on_c, 0, 77, 80
1, 58153, Note_on_c, 0, 67, 88
1, 58153, Note_on_c, 0, 70, 89
1, 58153, Note_on_c, 0, 75, 77
1, 58158, Note_on_c, 9, 45, 0
1, 58161, Note_on_c, 0, 77, 0
1, 58161, Note_on_c, 0, 67, 0
1, 58161, Note_on_c, 0, 70, 0
1, 58161, Note_on_c, 0, 75, 0
1, 58169, Note_on_c, 1, 39, 0
1, 58176, Note_on_c, 9, 45, 96
1, 58177, Note_on_c, 0, 75, 87
1, 58177, Note_on_c, 0, 41, 100
1, 58177, Note_on_c, 0, 77, 82
1, 58177, Note_on_c, 0, 67, 94
1, 58177, Note_on_c, 0, 70, 99
1, 58182, Note_on_c, 9, 45, 0
1, 58186, Note_on_c, 0, 77, 0
1, 58187, Note_on_c, 0, 67, 0
1, 58187, Note_on_c, 0, 75, 0
1, 58187, Note_on_c, 0, 70, 0
1, 58200, Note_on_c, 9, 38, 104
1, 58201, Note_on_c, 0, 65, 106
1, 58201, Note_on_c, 1, 29, 99
1, 58201, Note_on_c, 0, 74, 102
1, 58201, Note_on_c, 0, 77, 75
1, 58201, Note_on_c, 0, 70, 89
1, 58206, Note_on_c, 9, 38, 0
1, 58207, Note_on_c, 0, 74, 0
1, 58207, Note_on_c, 0, 70, 0
1, 58211, Note_on_c, 0, 65, 0
1, 58213, Note_on_c, 0, 41, 0
1, 58213, Note_on_c, 0, 77, 0
1, 58216, Note_on_c, 1, 29, 0
1, 58224, Note_on_c, 9, 38, 114
1, 58225, Note_on_c, 1, 41, 98
1, 58230, Note_on_c, 9, 38, 0
1, 58246, Note_on_c, 1, 41, 0
1, 58247, Note_on_c, 1, 39, 97
1, 58248, Note_on_c, 9, 45, 73
1, 58249, Note_on_c, 0, 70, 89
1, 58249, Note_on_c, 0, 77, 82
1, 58249, Note_on_c, 0, 65, 93
1, 58249, Note_on_c, 0, 74, 82
1, 58254, Note_on_c, 0, 74, 0
1, 58254, Note_on_c, 9, 45, 0
1, 58258, Note_on_c, 0, 77, 0
1, 58258, Note_on_c, 0, 70, 0
1, 58260, Note_on_c, 0, 65, 0
1, 58270, Note_on_c, 1, 39, 0
1, 58271, Note_on_c, 0, 41, 96
1, 58271, Note_on_c, 1, 38, 99
1, 58272, Note_on_c, 9, 45, 95
1, 58278, Note_on_c, 9, 45, 0
1, 58293, Note_on_c, 1, 38, 0
1, 58295, Note_on_c, 0, 70, 112
1, 58295, Note_on_c, 0, 74, 102
1, 58295, Note_on_c, 0, 77, 96
1, 58295, Note_on_c, 1, 36, 93
1, 58295, Note_on_c, 0, 65, 100
1, 58296, Note_on_c, 9, 43, 72
1, 58302, Note_on_c, 9, 43, 0
1, 58306, Note_on_c, 0, 70, 0
1, 58306, Note_on_c, 0, 74, 0
1, 58307, Note_on_c, 0, 77, 0
1, 58307, Note_on_c, 0, 41, 0
1, 58308, Note_on_c, 0, 65, 0
1, 58319, Note_on_c, 1, 36, 0
1, 58320, Note_on_c, 9, 43, 96
1, 58320, Note_on_c, 1, 34, 104
1, 58326, Note_on_c, 9, 43, 0
1, 58340, Note_on_c, 1, 34, 0
1, 58344, Note_on_c, 9, 43, 105
1, 58344, Note_on_c, 1, 32, 103
1, 58350, Note_on_c, 9, 43, 0
1, 58366, Note_on_c, 1, 32, 0
1, 58368, Note_on_c, 0, 72, 92
1, 58368, Note_on_c, 0, 77, 100
1, 58368, Note_on_c, 0, 69, 53
1, 58368, Note_on_c, 9, 49, 69
1, 58368, Note_on_c, 9, 36, 90
1, 58368, Note_on_c, 0, 65, 97
1, 58368, Note_on_c, 0, 41, 92
1, 58368, Note_on_c, 1, 29, 99
1, 58368, Note_on_c, 9, 64, 105
1, 58368, Note_on_c, 0, 68, 115
1, 58374, Note_on_c, 9, 64, 0
1, 58374, Note_on_c, 9, 36, 0
1, 58374, Note_on_c, 9, 49, 0
1, 58377, Note_on_c, 0, 68, 0
1, 58392, Note_on_c, 9, 64, 65
1, 58398, Note_on_c, 9, 64, 0
1, 58407, Note_on_c, 0, 69, 0
1, 58416, Note_on_c, 9, 42, 46
1, 58416, Note_on_c, 9, 36, 58
1, 58416, Note_on_c, 9, 64, 86
1, 58418, Note_on_c, 0, 72, 0
1, 58418, Note_on_c, 0, 65, 0
1, 58421, Note_on_c, 0, 77, 0
1, 58421, Note_on_c, 1, 29, 0
1, 58422, Note_on_c, 9, 36, 0
1, 58422, Note_on_c, 9, 64, 0
1, 58422, Note_on_c, 0, 41, 0
1, 58422, Note_on_c, 9, 42, 0
1, 58440, Note_on_c, 9, 64, 65
1, 58441, Note_on_c, 0, 72, 89
1, 58441, Note_on_c, 1, 29, 92
1, 58441, Note_on_c, 0, 69, 104
1, 58441, Note_on_c, 0, 65, 89
1, 58441, Note_on_c, 0, 77, 90
1, 58446, Note_on_c, 9, 64, 0
1, 58447, Note_on_c, 0, 72, 0
1, 58448, Note_on_c, 0, 69, 0
1, 58448, Note_on_c, 0, 77, 0
1, 58450, Note_on_c, 0, 65, 0
1, 58458, Note_on_c, 1, 29, 0
1, 58463, Note_on_c, 0, 41, 96
1, 58464, Note_on_c, 9, 46, 65
1, 58464, Note_on_c, 1, 41, 103
1, 58464, Note_on_c, 9, 63, 79
1, 58464, Note_on_c, 9, 38, 107
1, 58470, Note_on_c, 9, 38, 0
1, 58470, Note_on_c, 9, 46, 0
1, 58470, Note_on_c, 9, 63, 0
1, 58488, Note_on_c, 1, 41, 0
1, 58488, Note_on_c, 9, 64, 60
1, 58489, Note_on_c, 1, 29, 89
1, 58494, Note_on_c, 9, 64, 0
1, 58497, Note_on_c, 1, 29, 0
1, 58500, Note_on_c, 0, 41, 0
1, 58511, Note_on_c, 0, 72, 99
1, 58511, Note_on_c, 0, 65, 96
1, 58511, Note_on_c, 0, 69, 104
1, 58511, Note_on_c, 0, 77, 93
1, 58512, Note_on_c, 9, 42, 46
1, 58512, Note_on_c, 9, 63, 65
1, 58512, Note_on_c, 9, 36, 48
1, 58518, Note_on_c, 9, 36, 0
1, 58518, Note_on_c, 9, 42, 0
1, 58518, Note_on_c, 9, 63, 0
1, 58520, Note_on_c, 0, 69, 0
1, 58522, Note_on_c, 0, 72, 0
1, 58522, Note_on_c, 0, 65, 0
1, 58526, Note_on_c, 0, 77, 0
1, 58536, Note_on_c, 9, 63, 81
1, 58536, Note_on_c, 9, 38, 98
1, 58536, Note_on_c, 1, 29, 89
1, 58542, Note_on_c, 9, 38, 0
1, 58542, Note_on_c, 9, 63, 0
1, 58544, Note_on_c, 1, 29, 0
1, 58560, Note_on_c, 9, 36, 47
1, 58560, Note_on_c, 9, 42, 40
1, 58560, Note_on_c, 9, 64, 91
1, 58561, Note_on_c, 0, 41, 93
1, 58566, Note_on_c, 9, 64, 0
1, 58566, Note_on_c, 9, 36, 0
1, 58566, Note_on_c, 9, 42, 0
1, 58583, Note_on_c, 1, 29, 98
1, 58584, Note_on_c, 9, 64, 76
1, 58585, Note_on_c, 0, 69, 110
1, 58585, Note_on_c, 0, 72, 108
1, 58585, Note_on_c, 0, 65, 99
1, 58585, Note_on_c, 0, 77, 97
1, 58590, Note_on_c, 9, 64, 0
1, 58594, Note_on_c, 0, 72, 0
1, 58594, Note_on_c, 0, 69, 0
1, 58596, Note_on_c, 0, 65, 0
1, 58597, Note_on_c, 0, 77, 0
1, 58599, Note_on_c, 0, 41, 0
1, 58601, Note_on_c, 1, 29, 0
1, 58607, Note_on_c, 1, 41, 104
1, 58608, Note_on_c, 9, 36, 72
1, 58608, Note_on_c, 9, 42, 73
1, 58608, Note_on_c, 9, 64, 85
1, 58614, Note_on_c, 9, 64, 0
1, 58614, Note_on_c, 9, 42, 0
1, 58614, Note_on_c, 9, 36, 0
1, 58626, Note_on_c, 1, 41, 0
1, 58630, Note_on_c, 1, 39, 77
1, 58632, Note_on_c, 9, 64, 71
1, 58638, Note_on_c, 9, 64, 0
1, 58647, Note_on_c, 1, 39, 0
1, 58655, Note_on_c, 1, 39, 104
1, 58655, Note_on_c, 0, 77, 100
1, 58655, Note_on_c, 0, 69, 108
1, 58655, Note_on_c, 0, 72, 112
1, 58655, Note_on_c, 0, 65, 96
1, 58656, Note_on_c, 0, 41, 99
1, 58656, Note_on_c, 9, 38, 104
1, 58656, Note_on_c, 9, 63, 88
1, 58656, Note_on_c, 9, 46, 73
1, 58662, Note_on_c, 9, 46, 0
1, 58662, Note_on_c, 9, 63, 0
1, 58662, Note_on_c, 9, 38, 0
1, 58664, Note_on_c, 0, 69, 0
1, 58666, Note_on_c, 0, 65, 0
1, 58666, Note_on_c, 0, 72, 0
1, 58666, Note_on_c, 0, 77, 0
1, 58678, Note_on_c, 1, 39, 0
1, 58679, Note_on_c, 1, 38, 94
1, 58680, Note_on_c, 9, 64, 60
1, 58686, Note_on_c, 9, 64, 0
1, 58694, Note_on_c, 0, 41, 0
1, 58702, Note_on_c, 1, 38, 0
1, 58703, Note_on_c, 0, 72, 89
1, 58703, Note_on_c, 0, 69, 93
1, 58703, Note_on_c, 0, 65, 94
1, 58703, Note_on_c, 0, 77, 87
1, 58704, Note_on_c, 9, 36, 62
1, 58704, Note_on_c, 9, 42, 52
1, 58704, Note_on_c, 9, 63, 71
1, 58704, Note_on_c, 1, 36, 95
1, 58710, Note_on_c, 9, 63, 0
1, 58710, Note_on_c, 9, 42, 0
1, 58710, Note_on_c, 9, 36, 0
1, 58714, Note_on_c, 0, 72, 0
1, 58715, Note_on_c, 0, 69, 0
1, 58715, Note_on_c, 0, 65, 0
1, 58719, Note_on_c, 1, 36, 0
1, 58719, Note_on_c, 0, 77, 0
1, 58727, Note_on_c, 1, 36, 92
1, 58728, Note_on_c, 9, 63, 76
1, 58734, Note_on_c, 9, 63, 0
1, 58750, Note_on_c, 1, 36, 0
1, 58752, Note_on_c, 9, 36, 73
1, 58752, Note_on_c, 0, 75, 95
1, 58752, Note_on_c, 0, 41, 97
1, 58752, Note_on_c, 0, 77, 92
1, 58752, Note_on_c, 0, 70, 99
1, 58752, Note_on_c, 9, 64, 86
1, 58752, Note_on_c, 9, 42, 59
1, 58752, Note_on_c, 0, 67, 96
1, 58753, Note_on_c, 1, 29, 88
1, 58758, Note_on_c, 9, 42, 0
1, 58758, Note_on_c, 9, 64, 0
1, 58758, Note_on_c, 9, 36, 0
1, 58759, Note_on_c, 0, 70, 0
1, 58759, Note_on_c, 0, 75, 0
1, 58759, Note_on_c, 0, 77, 0
1, 58762, Note_on_c, 0, 67, 0
1, 58775, Note_on_c, 0, 75, 68
1, 58775, Note_on_c, 0, 67, 61
1, 58775, Note_on_c, 0, 77, 42
1, 58775, Note_on_c, 0, 70, 69
1, 58776, Note_on_c, 9, 64, 82
1, 58782, Note_on_c, 9, 64, 0
1, 58786, Note_on_c, 0, 77, 0
1, 58786, Note_on_c, 0, 67, 0
1, 58786, Note_on_c, 0, 75, 0
1, 58786, Note_on_c, 0, 70, 0
1, 58798, Note_on_c, 1, 29, 0
1, 58800, Note_on_c, 0, 41, 0
1, 58800, Note_on_c, 9, 42, 71
1, 58800, Note_on_c, 9, 36, 86
1, 58800, Note_on_c, 9, 64, 82
1, 58806, Note_on_c, 9, 64, 0
1, 58806, Note_on_c, 9, 36, 0
1, 58806, Note_on_c, 9, 42, 0
1, 58823, Note_on_c, 0, 77, 82
1, 58823, Note_on_c, 1, 29, 98
1, 58823, Note_on_c, 0, 75, 86
1, 58823, Note_on_c, 0, 67, 100
1, 58823, Note_on_c, 0, 70, 103
1, 58824, Note_on_c, 9, 64, 69
1, 58830, Note_on_c, 9, 64, 0
1, 58830, Note_on_c, 0, 77, 0
1, 58830, Note_on_c, 0, 75, 0
1, 58832, Note_on_c, 0, 67, 0
1, 58833, Note_on_c, 0, 70, 0
1, 58837, Note_on_c, 1, 29, 0
1, 58847, Note_on_c, 1, 41, 96
1, 58848, Note_on_c, 9, 63, 97
1, 58848, Note_on_c, 9, 38, 104
1, 58848, Note_on_c, 9, 46, 73
1, 58849, Note_on_c, 0, 41, 93
1, 58854, Note_on_c, 9, 46, 0
1, 58854, Note_on_c, 9, 38, 0
1, 58854, Note_on_c, 9, 63, 0
1, 58871, Note_on_c, 0, 75, 93
1, 58871, Note_on_c, 0, 67, 104
1, 58871, Note_on_c, 0, 77, 87
1, 58871, Note_on_c, 0, 70, 101
1, 58872, Note_on_c, 1, 41, 0
1, 58872, Note_on_c, 9, 64, 61
1, 58873, Note_on_c, 1, 29, 84
1, 58878, Note_on_c, 9, 64, 0
1, 58880, Note_on_c, 1, 29, 0
1, 58882, Note_on_c, 0, 70, 0
1, 58884, Note_on_c, 0, 67, 0
1, 58885, Note_on_c, 0, 75, 0
1, 58887, Note_on_c, 0, 41, 0
1, 58895, Note_on_c, 0, 67, 31
1, 58896, Note_on_c, 9, 42, 52
1, 58896, Note_on_c, 9, 63, 65
1, 58896, Note_on_c, 9, 36, 64
1, 58902, Note_on_c, 9, 36, 0
1, 58902, Note_on_c, 9, 42, 0
1, 58902, Note_on_c, 0, 77, 0
1, 58902, Note_on_c, 0, 67, 0
1, 58902, Note_on_c, 9, 63, 0
1, 58919, Note_on_c, 0, 67, 72
1, 58920, Note_on_c, 1, 29, 86
1, 58920, Note_on_c, 9, 63, 77
1, 58920, Note_on_c, 9, 38, 103
1, 58926, Note_on_c, 9, 38, 0
1, 58926, Note_on_c, 9, 63, 0
1, 58926, Note_on_c, 1, 29, 0
1, 58930, Note_on_c, 0, 67, 0
1, 58943, Note_on_c, 0, 41, 92
1, 58944, Note_on_c, 9, 42, 45
1, 58944, Note_on_c, 9, 64, 93
1, 58944, Note_on_c, 9, 36, 62
1, 58950, Note_on_c, 9, 36, 0
1, 58950, Note_on_c, 9, 64, 0
1, 58950, Note_on_c, 9, 42, 0
1, 58967, Note_on_c, 1, 29, 86
1, 58968, Note_on_c, 0, 70, 95
1, 58968, Note_on_c, 0, 77, 93
1, 58968, Note_on_c, 0, 74, 106
1, 58968, Note_on_c, 9, 64, 77
1, 58968, Note_on_c, 0, 65, 100
1, 58974, Note_on_c, 9, 64, 0
1, 58977, Note_on_c, 0, 74, 0
1, 58979, Note_on_c, 0, 70, 0
1, 58979, Note_on_c, 0, 65, 0
1, 58981, Note_on_c, 0, 77, 0
1, 58985, Note_on_c, 1, 29, 0
1, 58987, Note_on_c, 0, 41, 0
1, 58991, Note_on_c, 1, 41, 106
1, 58992, Note_on_c, 9, 42, 67
1, 58992, Note_on_c, 9, 64, 85
1, 58992, Note_on_c, 9, 36, 76
1, 58998, Note_on_c, 9, 36, 0
1, 58998, Note_on_c, 9, 64, 0
1, 58998, Note_on_c, 9, 42, 0
1, 59006, Note_on_c, 1, 41, 0
1, 59015, Note_on_c, 1, 41, 99
1, 59016, Note_on_c, 9, 64, 71
1, 59022, Note_on_c, 9, 64, 0
1, 59034, Note_on_c, 1, 41, 0
1, 59039, Note_on_c, 0, 77, 100
1, 59039, Note_on_c, 1, 39, 80
1, 59039, Note_on_c, 0, 70, 106
1, 59039, Note_on_c, 0, 74, 108
1, 59039, Note_on_c, 0, 65, 110
1, 59040, Note_on_c, 9, 63, 83
1, 59040, Note_on_c, 9, 46, 77
1, 59040, Note_on_c, 9, 38, 104
1, 59041, Note_on_c, 0, 41, 82
1, 59046, Note_on_c, 9, 38, 0
1, 59046, Note_on_c, 9, 46, 0
1, 59046, Note_on_c, 9, 63, 0
1, 59050, Note_on_c, 0, 65, 0
1, 59050, Note_on_c, 0, 74, 0
1, 59050, Note_on_c, 0, 70, 0
1, 59050, Note_on_c, 0, 77, 0
1, 59054, Note_on_c, 1, 39, 0
1, 59063, Note_on_c, 1, 39, 80
1, 59064, Note_on_c, 9, 64, 75
1, 59070, Note_on_c, 9, 64, 0
1, 59085, Note_on_c, 0, 41, 0
1, 59087, Note_on_c, 1, 39, 0
1, 59088, Note_on_c, 1, 38, 84
1, 59088, Note_on_c, 9, 42, 52
1, 59088, Note_on_c, 9, 63, 68
1, 59088, Note_on_c, 9, 36, 39
1, 59089, Note_on_c, 0, 70, 99
1, 59089, Note_on_c, 0, 77, 88
1, 59089, Note_on_c, 0, 74, 100
1, 59089, Note_on_c, 0, 65, 97
1, 59094, Note_on_c, 9, 36, 0
1, 59094, Note_on_c, 9, 63, 0
1, 59094, Note_on_c, 9, 42, 0
1, 59101, Note_on_c, 0, 74, 0
1, 59102, Note_on_c, 0, 70, 0
1, 59102, Note_on_c, 0, 77, 0
1, 59106, Note_on_c, 0, 65, 0
1, 59110, Note_on_c, 1, 38, 0
1, 59112, Note_on_c, 9, 63, 72
1, 59112, Note_on_c, 1, 36, 87
1, 59118, Note_on_c, 9, 63, 0
1, 59134, Note_on_c, 1, 36, 0
1, 59136, Note_on_c, 9, 49, 62
1, 59136, Note_on_c, 1, 29, 99
1, 59136, Note_on_c, 9, 36, 78
1, 59136, Note_on_c, 9, 64, 85
1, 59137, Note_on_c, 0, 77, 85
1, 59137, Note_on_c, 0, 72, 102
1, 59137, Note_on_c, 0, 69, 100
1, 59137, Note_on_c, 0, 65, 100
1, 59137, Note_on_c, 0, 41, 92
1, 59142, Note_on_c, 9, 64, 0
1, 59142, Note_on_c, 9, 36, 0
1, 59142, Note_on_c, 9, 49, 0
1, 59160, Note_on_c, 9, 64, 66
1, 59166, Note_on_c, 9, 64, 0
1, 59182, Note_on_c, 1, 29, 0
1, 59184, Note_on_c, 9, 42, 60
1, 59184, Note_on_c, 9, 64, 71
1, 59184, Note_on_c, 9, 36, 73
1, 59186, Note_on_c, 0, 69, 0
1, 59186, Note_on_c, 0, 65, 0
1, 59186, Note_on_c, 0, 72, 0
1, 59190, Note_on_c, 9, 42, 0
1, 59190, Note_on_c, 0, 77, 0
1, 59190, Note_on_c, 9, 36, 0
1, 59190, Note_on_c, 9, 64, 0
1, 59192, Note_on_c, 0, 41, 0
1, 59207, Note_on_c, 0, 65, 87
1, 59207, Note_on_c, 0, 69, 99
1, 59207, Note_on_c, 1, 29, 91
1, 59207, Note_on_c, 0, 72, 100
1, 59207, Note_on_c, 0, 77, 82
1, 59208, Note_on_c, 9, 64, 65
1, 59214, Note_on_c, 9, 64, 0
1, 59215, Note_on_c, 1, 29, 0
1, 59218, Note_on_c, 0, 72, 0
1, 59218, Note_on_c, 0, 69, 0
1, 59219, Note_on_c, 0, 65, 0
1, 59219, Note_on_c, 0, 77, 0
1, 59231, Note_on_c, 1, 41, 104
1, 59231, Note_on_c, 0, 41, 90
1, 59232, Note_on_c, 9, 63, 95
1, 59232, Note_on_c, 9, 46, 60
1, 59232, Note_on_c, 9, 38, 107
1, 59238, Note_on_c, 9, 38, 0
1, 59238, Note_on_c, 9, 63, 0
1, 59238, Note_on_c, 9, 46, 0
1, 59256, Note_on_c, 1, 41, 0
1, 59256, Note_on_c, 0, 77, 89
1, 59256, Note_on_c, 9, 64, 59
1, 59256, Note_on_c, 0, 69, 100
1, 59257, Note_on_c, 0, 72, 99
1, 59257, Note_on_c, 0, 65, 85
1, 59257, Note_on_c, 1, 29, 92
1, 59262, Note_on_c, 9, 64, 0
1, 59263, Note_on_c, 1, 29, 0
1, 59266, Note_on_c, 0, 72, 0
1, 59267, Note_on_c, 0, 69, 0
1, 59270, Note_on_c, 0, 65, 0
1, 59271, Note_on_c, 0, 41, 0
1, 59271, Note_on_c, 0, 77, 0
1, 59280, Note_on_c, 9, 42, 52
1, 59280, Note_on_c, 9, 63, 60
1, 59280, Note_on_c, 9, 36, 68
1, 59286, Note_on_c, 9, 36, 0
1, 59286, Note_on_c, 9, 63, 0
1, 59286, Note_on_c, 9, 42, 0
1, 59304, Note_on_c, 9, 38, 100
1, 59304, Note_on_c, 9, 63, 74
1, 59304, Note_on_c, 1, 29, 90
1, 59310, Note_on_c, 1, 29, 0
1, 59310, Note_on_c, 9, 63, 0
1, 59310, Note_on_c, 9, 38, 0
1, 59327, Note_on_c, 0, 77, 93
1, 59327, Note_on_c, 0, 68, 109
1, 59327, Note_on_c, 0, 72, 108
1, 59327, Note_on_c, 0, 41, 104
1, 59327, Note_on_c, 0, 65, 89
1, 59328, Note_on_c, 9, 64, 97
1, 59328, Note_on_c, 9, 36, 48
1, 59328, Note_on_c, 9, 42, 62
1, 59329, Note_on_c, 0, 69, 70
1, 59334, Note_on_c, 9, 42, 0
1, 59334, Note_on_c, 9, 36, 0
1, 59334, Note_on_c, 9, 64, 0
1, 59336, Note_on_c, 0, 68, 0
1, 59351, Note_on_c, 1, 29, 97
1, 59352, Note_on_c, 9, 64, 77
1, 59358, Note_on_c, 9, 64, 0
1, 59359, Note_on_c, 1, 29, 0
1, 59372, Note_on_c, 0, 69, 0
1, 59375, Note_on_c, 1, 41, 105
1, 59376, Note_on_c, 0, 41, 0
1, 59376, Note_on_c, 9, 36, 75
1, 59376, Note_on_c, 9, 42, 75
1, 59376, Note_on_c, 9, 64, 78
1, 59378, Note_on_c, 0, 65, 0
1, 59378, Note_on_c, 0, 72, 0
1, 59378, Note_on_c, 0, 77, 0
1, 59382, Note_on_c, 9, 36, 0
1, 59382, Note_on_c, 9, 64, 0
1, 59382, Note_on_c, 9, 42, 0
1, 59392, Note_on_c, 1, 41, 0
1, 59399, Note_on_c, 0, 77, 92
1, 59399, Note_on_c, 0, 72, 106
1, 59399, Note_on_c, 0, 69, 110
1, 59399, Note_on_c, 1, 39, 74
1, 59399, Note_on_c, 0, 65, 97
1, 59400, Note_on_c, 9, 64, 76
1, 59406, Note_on_c, 9, 64, 0
1, 59412, Note_on_c, 0, 72, 0
1, 59412, Note_on_c, 0, 69, 0
1, 59412, Note_on_c, 1, 39, 0
1, 59414, Note_on_c, 0, 65, 0
1, 59420, Note_on_c, 0, 77, 0
1, 59422, Note_on_c, 0, 41, 92
1, 59423, Note_on_c, 1, 39, 86
1, 59424, Note_on_c, 9, 46, 77
1, 59424, Note_on_c, 9, 38, 109
1, 59424, Note_on_c, 9, 63, 86
1, 59430, Note_on_c, 9, 63, 0
1, 59430, Note_on_c, 9, 46, 0
1, 59430, Note_on_c, 9, 38, 0
1, 59446, Note_on_c, 1, 39, 0
1, 59447, Note_on_c, 1, 38, 92
1, 59448, Note_on_c, 9, 45, 62
1, 59448, Note_on_c, 9, 64, 62
1, 59454, Note_on_c, 9, 64, 0
1, 59454, Note_on_c, 9, 45, 0
1, 59461, Note_on_c, 0, 41, 0
1, 59471, Note_on_c, 0, 72, 99
1, 59471, Note_on_c, 0, 65, 99
1, 59471, Note_on_c, 0, 77, 87
1, 59471, Note_on_c, 0, 69, 97
1, 59472, Note_on_c, 1, 38, 0
1, 59472, Note_on_c, 9, 63, 65
1, 59472, Note_on_c, 9, 42, 59
1, 59472, Note_on_c, 9, 45, 45
1, 59473, Note_on_c, 1, 36, 91
1, 59478, Note_on_c, 9, 45, 0
1, 59478, Note_on_c, 9, 42, 0
1, 59478, Note_on_c, 9, 63, 0
1, 59482, Note_on_c, 0, 69, 0
1, 59483, Note_on_c, 0, 72, 0
1, 59489, Note_on_c, 0, 65, 0
1, 59494, Note_on_c, 0, 77, 0
1, 59496, Note_on_c, 9, 63, 74
1, 59496, Note_on_c, 9, 45, 76
1, 59502, Note_on_c, 9, 45, 0
1, 59502, Note_on_c, 9, 63, 0
1, 59517, Note_on_c, 1, 36, 0
1, 59520, Note_on_c, 9, 42, 65
1, 59520, Note_on_c, 9, 38, 106
1, 59520, Note_on_c, 9, 64, 89
1, 59526, Note_on_c, 9, 64, 0
1, 59526, Note_on_c, 9, 38, 0
1, 59526, Note_on_c, 9, 42, 0
1, 59542, Note_on_c, 7, 63, 98
1, 59544, Note_on_c, 9, 55, 99
1, 59544, Note_on_c, 9, 36, 58
1, 59544, Note_on_c, 5, 63, 113
1, 59544, Note_on_c, 9, 63, 95
1, 59545, Note_on_c, 0, 75, 112
1, 59545, Note_on_c, 0, 67, 106
1, 59545, Note_on_c, 1, 39, 93
1, 59545, Note_on_c, 0, 77, 93
1, 59545, Note_on_c, 0, 70, 109
1, 59546, Note_on_c, 0, 39, 93
1, 59546, Note_on_c, 6, 51, 100
1, 59550, Note_on_c, 9, 63, 0
1, 59550, Note_on_c, 9, 36, 0
1, 59550, Note_on_c, 9, 55, 0
1, 59568, Note_on_c, 0, 77, 0
1, 59568, Note_on_c, 9, 64, 72
1, 59571, Note_on_c, 0, 67, 0
1, 59574, Note_on_c, 9, 64, 0
1, 59574, Note_on_c, 0, 70, 0
1, 59574, Note_on_c, 0, 75, 0
1, 59578, Note_on_c, 1, 39, 0
1, 59584, Note_on_c, 0, 39, 0
1, 59589, Note_on_c, 6, 51, 0
1, 59590, Note_on_c, 7, 63, 0
1, 59592, Note_on_c, 9, 64, 89
1, 59598, Note_on_c, 9, 64, 0
1, 59608, Note_on_c, 5, 63, 0
1, 59611, Note_on_c, 6, 50, 103
1, 59613, Note_on_c, 0, 38, 100
1, 59615, Note_on_c, 0, 70, 103
1, 59615, Note_on_c, 0, 65, 102
1, 59615, Note_on_c, 0, 77, 87
1, 59616, Note_on_c, 9, 63, 76
1, 59616, Note_on_c, 9, 55, 105
1, 59616, Note_on_c, 9, 36, 78
1, 59616, Note_on_c, 0, 74, 92
1, 59617, Note_on_c, 1, 38, 117
1, 59618, Note_on_c, 5, 62, 109
1, 59619, Note_on_c, 7, 62, 109
1, 59622, Note_on_c, 9, 36, 0
1, 59622, Note_on_c, 9, 55, 0
1, 59622, Note_on_c, 9, 63, 0
1, 59640, Note_on_c, 9, 64, 86
1, 59646, Note_on_c, 9, 64, 0
1, 59651, Note_on_c, 0, 70, 0
1, 59653, Note_on_c, 0, 74, 0
1, 59657, Note_on_c, 1, 38, 0
1, 59662, Note_on_c, 0, 65, 0
1, 59662, Note_on_c, 5, 62, 0
1, 59663, Note_on_c, 0, 38, 0
1, 59664, Note_on_c, 9, 36, 58
1, 59664, Note_on_c, 9, 64, 76
1, 59665, Note_on_c, 0, 77, 0
1, 59667, Note_on_c, 6, 50, 0
1, 59670, Note_on_c, 9, 36, 0
1, 59670, Note_on_c, 7, 62, 0
1, 59670, Note_on_c, 9, 64, 0
1, 59685, Note_on_c, 0, 36, 82
1, 59686, Note_on_c, 6, 48, 99
1, 59687, Note_on_c, 0, 72, 99
1, 59687, Note_on_c, 0, 69, 106
1, 59687, Note_on_c, 0, 65, 99
1, 59687, Note_on_c, 0, 77, 88
1, 59688, Note_on_c, 9, 63, 78
1, 59688, Note_on_c, 1, 36, 104
1, 59688, Note_on_c, 9, 55, 105
1, 59688, Note_on_c, 9, 38, 101
1, 59689, Note_on_c, 5, 60, 106
1, 59690, Note_on_c, 7, 60, 97
1, 59694, Note_on_c, 9, 38, 0
1, 59694, Note_on_c, 9, 55, 0
1, 59694, Note_on_c, 9, 63, 0
1, 59712, Note_on_c, 0, 36, 0
1, 59712, Note_on_c, 9, 64, 93
1, 59718, Note_on_c, 9, 64, 0
1, 59726, Note_on_c, 0, 65, 0
1, 59726, Note_on_c, 0, 69, 0
1, 59730, Note_on_c, 1, 36, 0
1, 59730, Note_on_c, 0, 72, 0
1, 59732, Note_on_c, 0, 77, 0
1, 59736, Note_on_c, 9, 38, 95
1, 59736, Note_on_c, 9, 64, 95
1, 59742, Note_on_c, 9, 64, 0
1, 59742, Note_on_c, 9, 38, 0
1, 59750, Note_on_c, 5, 60, 0
1, 59752, Note_on_c, 6, 48, 0
1, 59754, Note_on_c, 0, 34, 103
1, 59758, Note_on_c, 7, 60, 0
1, 59758, Note_on_c, 6, 46, 113
1, 59759, Note_on_c, 0, 74, 100
1, 59759, Note_on_c, 0, 70, 109
1, 59759, Note_on_c, 0, 65, 99
1, 59759, Note_on_c, 0, 77, 81
1, 59760, Note_on_c, 9, 36, 65
1, 59760, Note_on_c, 9, 55, 105
1, 59760, Note_on_c, 9, 63, 88
1, 59761, Note_on_c, 1, 34, 112
1, 59761, Note_on_c, 5, 58, 84
1, 59762, Note_on_c, 7, 58, 87
1, 59766, Note_on_c, 9, 63, 0
1, 59766, Note_on_c, 9, 55, 0
1, 59766, Note_on_c, 9, 36, 0
1, 59770, Note_on_c, 0, 74, 0
1, 59770, Note_on_c, 0, 65, 0
1, 59771, Note_on_c, 0, 70, 0
1, 59774, Note_on_c, 0, 77, 0
1, 59776, Note_on_c, 1, 34, 0
1, 59784, Note_on_c, 9, 64, 97
1, 59785, Note_on_c, 0, 34, 0
1, 59788, Note_on_c, 5, 58, 0
1, 59790, Note_on_c, 9, 64, 0
1, 59795, Note_on_c, 7, 58, 0
1, 59797, Note_on_c, 6, 46, 0
1, 59808, Note_on_c, 9, 63, 78
1, 59808, Note_on_c, 1, 33, 103
1, 59808, Note_on_c, 0, 72, 99
1, 59808, Note_on_c, 0, 77, 82
1, 59808, Note_on_c, 9, 38, 110
1, 59809, Note_on_c, 0, 65, 88
1, 59809, Note_on_c, 0, 69, 94
1, 59809, Note_on_c, 0, 33, 82
1, 59810, Note_on_c, 5, 57, 106
1, 59810, Note_on_c, 7, 57, 85
1, 59810, Note_on_c, 6, 45, 100
1, 59814, Note_on_c, 9, 38, 0
1, 59814, Note_on_c, 9, 63, 0
1, 59818, Note_on_c, 0, 69, 0
1, 59821, Note_on_c, 0, 72, 0
1, 59822, Note_on_c, 0, 77, 0
1, 59822, Note_on_c, 0, 65, 0
1, 59830, Note_on_c, 1, 33, 0
1, 59832, Note_on_c, 9, 63, 76
1, 59834, Note_on_c, 5, 57, 0
1, 59838, Note_on_c, 9, 63, 0
1, 59840, Note_on_c, 7, 57, 0
1, 59846, Note_on_c, 0, 33, 0
1, 59848, Note_on_c, 6, 45, 0
1, 59854, Note_on_c, 6, 46, 100
1, 59854, Note_on_c, 7, 58, 76
1, 59855, Note_on_c, 0, 74, 102
1, 59855, Note_on_c, 0, 34, 103
1, 59855, Note_on_c, 0, 70, 97
1, 59855, Note_on_c, 0, 77, 82
1, 59856, Note_on_c, 9, 63, 89
1, 59856, Note_on_c, 9, 55, 63
1, 59856, Note_on_c, 9, 38, 115
1, 59856, Note_on_c, 0, 65, 88
1, 59857, Note_on_c, 1, 34, 110
1, 59857, Note_on_c, 5, 58, 108
1, 59862, Note_on_c, 9, 38, 0
1, 59862, Note_on_c, 9, 55, 0
1, 59862, Note_on_c, 9, 63, 0
1, 59868, Note_on_c, 0, 65, 0
1, 59868, Note_on_c, 0, 74, 0
1, 59869, Note_on_c, 0, 70, 0
1, 59870, Note_on_c, 0, 77, 0
1, 59874, Note_on_c, 5, 58, 0
1, 59876, Note_on_c, 1, 34, 0
1, 59879, Note_on_c, 0, 34, 0
1, 59880, Note_on_c, 7, 58, 0
1, 59880, Note_on_c, 9, 63, 82
1, 59886, Note_on_c, 9, 63, 0
1, 59894, Note_on_c, 6, 46, 0
1, 59904, Note_on_c, 0, 68, 99
1, 59904, Note_on_c, 9, 64, 85
1, 59904, Note_on_c, 9, 49, 62
1, 59904, Note_on_c, 9, 36, 78
1, 59904, Note_on_c, 5, 65, 101
1, 59904, Note_on_c, 7, 65, 89
1, 59905, Note_on_c, 0, 65, 82
1, 59905, Note_on_c, 0, 77, 72
1, 59905, Note_on_c, 0, 72, 86
1, 59905, Note_on_c, 1, 29, 103
1, 59906, Note_on_c, 6, 41, 123
1, 59906, Note_on_c, 0, 41, 104
1, 59910, Note_on_c, 9, 36, 0
1, 59910, Note_on_c, 9, 49, 0
1, 59910, Note_on_c, 9, 64, 0
1, 59919, Note_on_c, 0, 68, 0
1, 59927, Note_on_c, 0, 69, 49
1, 59928, Note_on_c, 9, 64, 66
1, 59934, Note_on_c, 9, 64, 0
1, 59943, Note_on_c, 0, 65, 0
1, 59946, Note_on_c, 0, 72, 0
1, 59946, Note_on_c, 0, 41, 0
1, 59949, Note_on_c, 0, 77, 0
1, 59950, Note_on_c, 0, 69, 0
1, 59952, Note_on_c, 9, 64, 71
1, 59952, Note_on_c, 9, 36, 73
1, 59952, Note_on_c, 9, 42, 60
1, 59953, Note_on_c, 1, 29, 0
1, 59958, Note_on_c, 9, 36, 0
1, 59958, Note_on_c, 9, 64, 0
1, 59958, Note_on_c, 9, 42, 0
1, 59975, Note_on_c, 0, 65, 93
1, 59975, Note_on_c, 0, 77, 90
1, 59975, Note_on_c, 0, 69, 102
1, 59976, Note_on_c, 9, 64, 65
1, 59977, Note_on_c, 0, 72, 99
1, 59977, Note_on_c, 1, 29, 104
1, 59982, Note_on_c, 9, 64, 0
1, 59986, Note_on_c, 0, 72, 0
1, 59986, Note_on_c, 0, 69, 0
1, 59987, Note_on_c, 0, 65, 0
1, 59988, Note_on_c, 0, 77, 0
1, 59998, Note_on_c, 1, 29, 0
1, 60000, Note_on_c, 9, 38, 107
1, 60000, Note_on_c, 9, 63, 95
1, 60000, Note_on_c, 0, 41, 102
1, 60000, Note_on_c, 9, 46, 60
1, 60001, Note_on_c, 1, 41, 100
1, 60006, Note_on_c, 9, 46, 0
1, 60006, Note_on_c, 9, 38, 0
1, 60006, Note_on_c, 9, 63, 0
1, 60024, Note_on_c, 1, 41, 0
1, 60024, Note_on_c, 0, 69, 112
1, 60024, Note_on_c, 9, 64, 59
1, 60024, Note_on_c, 0, 65, 104
1, 60024, Note_on_c, 0, 77, 90
1, 60024, Note_on_c, 0, 72, 108
1, 60025, Note_on_c, 1, 39, 80
1, 60030, Note_on_c, 9, 64, 0
1, 60035, Note_on_c, 0, 72, 0
1, 60035, Note_on_c, 0, 65, 0
1, 60035, Note_on_c, 0, 69, 0
1, 60039, Note_on_c, 1, 39, 0
1, 60045, Note_on_c, 0, 41, 0
1, 60048, Note_on_c, 9, 42, 52
1, 60048, Note_on_c, 9, 63, 60
1, 60048, Note_on_c, 9, 36, 68
1, 60054, Note_on_c, 9, 36, 0
1, 60054, Note_on_c, 9, 42, 0
1, 60054, Note_on_c, 0, 77, 0
1, 60054, Note_on_c, 9, 63, 0
1, 60071, Note_on_c, 0, 65, 72
1, 60072, Note_on_c, 9, 63, 74
1, 60072, Note_on_c, 9, 38, 100
1, 60073, Note_on_c, 1, 39, 90
1, 60078, Note_on_c, 9, 38, 0
1, 60078, Note_on_c, 0, 65, 0
1, 60078, Note_on_c, 9, 63, 0
1, 60082, Note_on_c, 1, 39, 0
1, 60095, Note_on_c, 0, 77, 86
1, 60095, Note_on_c, 0, 72, 106
1, 60095, Note_on_c, 0, 68, 101
1, 60095, Note_on_c, 0, 65, 97
1, 60096, Note_on_c, 9, 42, 62
1, 60096, Note_on_c, 0, 41, 97
1, 60096, Note_on_c, 9, 36, 48
1, 60096, Note_on_c, 9, 64, 97
1, 60102, Note_on_c, 9, 64, 0
1, 60102, Note_on_c, 9, 36, 0
1, 60102, Note_on_c, 9, 42, 0
1, 60112, Note_on_c, 0, 77, 0
1, 60112, Note_on_c, 0, 72, 0
1, 60116, Note_on_c, 0, 68, 0
1, 60120, Note_on_c, 0, 77, 49
1, 60120, Note_on_c, 0, 72, 66
1, 60120, Note_on_c, 9, 64, 77
1, 60120, Note_on_c, 0, 69, 82
1, 60121, Note_on_c, 1, 29, 81
1, 60126, Note_on_c, 9, 64, 0
1, 60132, Note_on_c, 1, 29, 0
1, 60133, Note_on_c, 0, 72, 0
1, 60134, Note_on_c, 0, 69, 0
1, 60134, Note_on_c, 0, 65, 0
1, 60134, Note_on_c, 0, 77, 0
1, 60143, Note_on_c, 1, 41, 95
1, 60144, Note_on_c, 9, 42, 75
1, 60144, Note_on_c, 9, 36, 75
1, 60144, Note_on_c, 9, 64, 78
1, 60150, Note_on_c, 9, 64, 0
1, 60150, Note_on_c, 9, 36, 0
1, 60150, Note_on_c, 9, 42, 0
1, 60154, Note_on_c, 0, 41, 0
1, 60166, Note_on_c, 1, 41, 0
1, 60167, Note_on_c, 1, 39, 93
1, 60168, Note_on_c, 9, 64, 76
1, 60169, Note_on_c, 0, 77, 92
1, 60169, Note_on_c, 0, 65, 94
1, 60169, Note_on_c, 0, 72, 106
1, 60169, Note_on_c, 0, 69, 102
1, 60174, Note_on_c, 9, 64, 0
1, 60179, Note_on_c, 0, 69, 0
1, 60179, Note_on_c, 0, 72, 0
1, 60181, Note_on_c, 0, 77, 0
1, 60183, Note_on_c, 0, 65, 0
1, 60192, Note_on_c, 1, 39, 0
1, 60192, Note_on_c, 0, 41, 106
1, 60192, Note_on_c, 9, 63, 86
1, 60192, Note_on_c, 9, 46, 77
1, 60192, Note_on_c, 9, 38, 109
1, 60193, Note_on_c, 1, 38, 97
1, 60198, Note_on_c, 9, 38, 0
1, 60198, Note_on_c, 9, 46, 0
1, 60198, Note_on_c, 9, 63, 0
1, 60216, Note_on_c, 9, 64, 62
1, 60216, Note_on_c, 9, 45, 62
1, 60217, Note_on_c, 0, 69, 100
1, 60217, Note_on_c, 0, 65, 114
1, 60217, Note_on_c, 0, 77, 87
1, 60217, Note_on_c, 0, 72, 110
1, 60222, Note_on_c, 9, 45, 0
1, 60222, Note_on_c, 9, 64, 0
1, 60237, Note_on_c, 0, 41, 0
1, 60237, Note_on_c, 1, 38, 0
1, 60240, Note_on_c, 9, 45, 45
1, 60240, Note_on_c, 9, 63, 65
1, 60240, Note_on_c, 9, 42, 59
1, 60241, Note_on_c, 0, 65, 0
1, 60241, Note_on_c, 1, 36, 88
1, 60246, Note_on_c, 9, 42, 0
1, 60246, Note_on_c, 9, 45, 0
1, 60246, Note_on_c, 9, 63, 0
1, 60247, Note_on_c, 0, 72, 0
1, 60252, Note_on_c, 0, 77, 0
1, 60253, Note_on_c, 5, 65, 0
1, 60257, Note_on_c, 0, 69, 0
1, 60264, Note_on_c, 9, 45, 76
1, 60264, Note_on_c, 9, 63, 74
1, 60266, Note_on_c, 0, 65, 47
1, 60270, Note_on_c, 0, 65, 0
1, 60270, Note_on_c, 9, 45, 0
1, 60270, Note_on_c, 7, 65, 0
1, 60270, Note_on_c, 9, 63, 0
1, 60285, Note_on_c, 6, 41, 0
1, 60286, Note_on_c, 1, 36, 0
1, 60288, Note_on_c, 9, 42, 65
1, 60288, Note_on_c, 9, 64, 89
1, 60288, Note_on_c, 9, 38, 106
1, 60289, Note_on_c, 1, 29, 103
1, 60294, Note_on_c, 9, 38, 0
1, 60294, Note_on_c, 9, 42, 0
1, 60294, Note_on_c, 9, 64, 0
1, 60302, Note_on_c, 1, 29, 0
1, 60309, Note_on_c, 6, 51, 108
1, 60311, Note_on_c, 1, 39, 91
1, 60312, Note_on_c, 9, 63, 95
1, 60312, Note_on_c, 0, 39, 101
1, 60312, Note_on_c, 9, 55, 99
1, 60312, Note_on_c, 7, 63, 94
1, 60312, Note_on_c, 9, 36, 58
1, 60313, Note_on_c, 0, 70, 95
1, 60313, Note_on_c, 0, 75, 79
1, 60313, Note_on_c, 0, 77, 73
1, 60313, Note_on_c, 5, 58, 88
1, 60313, Note_on_c, 0, 67, 106
1, 60318, Note_on_c, 9, 36, 0
1, 60318, Note_on_c, 9, 63, 0
1, 60318, Note_on_c, 9, 55, 0
1, 60336, Note_on_c, 9, 64, 72
1, 60341, Note_on_c, 0, 75, 0
1, 60341, Note_on_c, 7, 63, 0
1, 60342, Note_on_c, 9, 64, 0
1, 60342, Note_on_c, 0, 77, 0
1, 60344, Note_on_c, 0, 67, 0
1, 60347, Note_on_c, 6, 51, 0
1, 60348, Note_on_c, 0, 70, 0
1, 60357, Note_on_c, 5, 58, 0
1, 60359, Note_on_c, 0, 39, 0
1, 60360, Note_on_c, 9, 64, 89
1, 60366, Note_on_c, 9, 64, 0
1, 60376, Note_on_c, 1, 39, 0
1, 60380, Note_on_c, 0, 38, 94
1, 60381, Note_on_c, 6, 50, 101
1, 60382, Note_on_c, 0, 77, 93
1, 60382, Note_on_c, 0, 70, 101
1, 60382, Note_on_c, 0, 74, 102
1, 60382, Note_on_c, 0, 65, 102
1, 60383, Note_on_c, 5, 58, 108
1, 60384, Note_on_c, 9, 55, 105
1, 60384, Note_on_c, 9, 36, 78
1, 60384, Note_on_c, 9, 63, 76
1, 60385, Note_on_c, 1, 38, 116
1, 60386, Note_on_c, 7, 62, 96
1, 60390, Note_on_c, 9, 63, 0
1, 60390, Note_on_c, 9, 36, 0
1, 60390, Note_on_c, 9, 55, 0
1, 60408, Note_on_c, 9, 64, 86
1, 60411, Note_on_c, 0, 74, 0
1, 60411, Note_on_c, 7, 62, 0
1, 60414, Note_on_c, 9, 64, 0
1, 60416, Note_on_c, 0, 70, 0
1, 60417, Note_on_c, 0, 65, 0
1, 60418, Note_on_c, 0, 77, 0
1, 60432, Note_on_c, 9, 64, 76
1, 60432, Note_on_c, 9, 36, 58
1, 60435, Note_on_c, 0, 38, 0
1, 60438, Note_on_c, 9, 64, 0
1, 60438, Note_on_c, 9, 36, 0
1, 60442, Note_on_c, 6, 50, 0
1, 60445, Note_on_c, 1, 38, 0
1, 60448, Note_on_c, 0, 36, 85
1, 60449, Note_on_c, 5, 58, 0
1, 60453, Note_on_c, 6, 48, 99
1, 60453, Note_on_c, 7, 60, 96
1, 60454, Note_on_c, 0, 65, 97
1, 60454, Note_on_c, 0, 72, 100
1, 60454, Note_on_c, 0, 77, 87
1, 60454, Note_on_c, 0, 69, 104
1, 60454, Note_on_c, 5, 57, 95
1, 60455, Note_on_c, 1, 36, 106
1, 60456, Note_on_c, 9, 38, 101
1, 60456, Note_on_c, 9, 55, 105
1, 60456, Note_on_c, 9, 63, 78
1, 60462, Note_on_c, 9, 63, 0
1, 60462, Note_on_c, 9, 38, 0
1, 60462, Note_on_c, 9, 55, 0
1, 60480, Note_on_c, 9, 64, 93
1, 60486, Note_on_c, 9, 64, 0
1, 60490, Note_on_c, 0, 69, 0
1, 60494, Note_on_c, 7, 60, 0
1, 60494, Note_on_c, 0, 65, 0
1, 60498, Note_on_c, 0, 72, 0
1, 60498, Note_on_c, 0, 77, 0
1, 60504, Note_on_c, 9, 64, 95
1, 60504, Note_on_c, 9, 38, 95
1, 60510, Note_on_c, 9, 38, 0
1, 60510, Note_on_c, 9, 64, 0
1, 60515, Note_on_c, 5, 57, 0
1, 60522, Note_on_c, 1, 36, 0
1, 60523, Note_on_c, 7, 58, 79
1, 60526, Note_on_c, 6, 48, 0
1, 60526, Note_on_c, 0, 36, 0
1, 60526, Note_on_c, 0, 65, 94
1, 60526, Note_on_c, 0, 34, 81
1, 60526, Note_on_c, 0, 77, 83
1, 60526, Note_on_c, 0, 70, 101
1, 60526, Note_on_c, 0, 74, 99
1, 60527, Note_on_c, 1, 34, 89
1, 60528, Note_on_c, 6, 46, 94
1, 60528, Note_on_c, 9, 63, 88
1, 60528, Note_on_c, 9, 36, 65
1, 60528, Note_on_c, 9, 55, 105
1, 60529, Note_on_c, 5, 58, 110
1, 60534, Note_on_c, 9, 55, 0
1, 60534, Note_on_c, 9, 36, 0
1, 60534, Note_on_c, 9, 63, 0
1, 60537, Note_on_c, 0, 65, 0
1, 60538, Note_on_c, 0, 74, 0
1, 60539, Note_on_c, 0, 77, 0
1, 60541, Note_on_c, 0, 70, 0
1, 60552, Note_on_c, 5, 58, 0
1, 60552, Note_on_c, 9, 64, 97
1, 60558, Note_on_c, 9, 64, 0
1, 60558, Note_on_c, 7, 58, 0
1, 60573, Note_on_c, 1, 34, 0
1, 60574, Note_on_c, 0, 34, 0
1, 60574, Note_on_c, 0, 33, 80
1, 60575, Note_on_c, 1, 33, 99
1, 60575, Note_on_c, 0, 69, 87
1, 60575, Note_on_c, 0, 72, 86
1, 60575, Note_on_c, 0, 77, 78
1, 60575, Note_on_c, 0, 65, 67
1, 60576, Note_on_c, 6, 45, 94
1, 60576, Note_on_c, 9, 38, 110
1, 60576, Note_on_c, 7, 57, 89
1, 60576, Note_on_c, 9, 63, 78
1, 60576, Note_on_c, 5, 60, 101
1, 60579, Note_on_c, 6, 46, 0
1, 60582, Note_on_c, 9, 63, 0
1, 60582, Note_on_c, 9, 38, 0
1, 60590, Note_on_c, 0, 69, 0
1, 60593, Note_on_c, 0, 72, 0
1, 60594, Note_on_c, 0, 65, 0
1, 60595, Note_on_c, 0, 77, 0
1, 60595, Note_on_c, 5, 60, 0
1, 60600, Note_on_c, 9, 63, 76
1, 60606, Note_on_c, 9, 63, 0
1, 60606, Note_on_c, 1, 33, 0
1, 60615, Note_on_c, 0, 33, 0
1, 60621, Note_on_c, 6, 45, 0
1, 60621, Note_on_c, 7, 57, 0
1, 60621, Note_on_c, 0, 34, 67
1, 60622, Note_on_c, 6, 46, 102
1, 60622, Note_on_c, 5, 62, 113
1, 60623, Note_on_c, 0, 65, 86
1, 60623, Note_on_c, 0, 74, 97
1, 60623, Note_on_c, 0, 70, 93
1, 60623, Note_on_c, 0, 77, 72
1, 60624, Note_on_c, 9, 63, 89
1, 60624, Note_on_c, 9, 38, 115
1, 60624, Note_on_c, 9, 55, 63
1, 60624, Note_on_c, 1, 34, 104
1, 60626, Note_on_c, 7, 58, 84
1, 60630, Note_on_c, 9, 55, 0
1, 60630, Note_on_c, 9, 38, 0
1, 60630, Note_on_c, 9, 63, 0
1, 60634, Note_on_c, 0, 65, 0
1, 60638, Note_on_c, 0, 74, 0
1, 60640, Note_on_c, 5, 62, 0
1, 60640, Note_on_c, 0, 70, 0
1, 60640, Note_on_c, 0, 77, 0
1, 60648, Note_on_c, 9, 63, 82
1, 60654, Note_on_c, 9, 63, 0
1, 60660, Note_on_c, 1, 34, 0
1, 60666, Note_on_c, 6, 46, 0
1, 60668, Note_on_c, 0, 34, 0
1, 60672, Note_on_c, 7, 58, 0
1, 60672, Note_on_c, 6, 41, 109
1, 60672, Note_on_c, 0, 65, 86
1, 60672, Note_on_c, 0, 77, 92
1, 60672, Note_on_c, 0, 72, 102
1, 60672, Note_on_c, 5, 60, 126
1, 60672, Note_on_c, 7, 53, 100
1, 60672, Note_on_c, 0, 41, 119
1, 60672, Note_on_c, 0, 68, 106
1, 60672, Note_on_c, 9, 64, 85
1, 60672, Note_on_c, 1, 29, 99
1, 60672, Note_on_c, 9, 36, 78
1, 60672, Note_on_c, 9, 49, 62
1, 60678, Note_on_c, 9, 49, 0
1, 60678, Note_on_c, 9, 64, 0
1, 60678, Note_on_c, 9, 36, 0
1, 60696, Note_on_c, 9, 64, 66
1, 60698, Note_on_c, 0, 68, 0
1, 60702, Note_on_c, 9, 64, 0
1, 60712, Note_on_c, 0, 77, 0
1, 60712, Note_on_c, 0, 72, 0
1, 60713, Note_on_c, 0, 65, 0
1, 60720, Note_on_c, 0, 41, 0
1, 60720, Note_on_c, 9, 36, 73
1, 60720, Note_on_c, 0, 69, 90
1, 60720, Note_on_c, 9, 64, 71
1, 60720, Note_on_c, 9, 42, 60
1, 60725, Note_on_c, 1, 29, 0
1, 60726, Note_on_c, 9, 42, 0
1, 60726, Note_on_c, 9, 36, 0
1, 60726, Note_on_c, 9, 64, 0
1, 60732, Note_on_c, 0, 69, 0
1, 60743, Note_on_c, 0, 77, 75
1, 60744, Note_on_c, 9, 64, 65
1, 60745, Note_on_c, 0, 65, 67
1, 60745, Note_on_c, 0, 72, 82
1, 60745, Note_on_c, 0, 71, 51
1, 60745, Note_on_c, 0, 69, 82
1, 60745, Note_on_c, 1, 29, 97
1, 60747, Note_on_c, 0, 71, 0
1, 60750, Note_on_c, 9, 64, 0
1, 60754, Note_on_c, 0, 72, 0
1, 60756, Note_on_c, 0, 69, 0
1, 60758, Note_on_c, 0, 77, 0
1, 60760, Note_on_c, 1, 29, 0
1, 60762, Note_on_c, 0, 65, 0
1, 60766, Note_on_c, 0, 41, 100
1, 60768, Note_on_c, 9, 38, 107
1, 60768, Note_on_c, 9, 63, 95
1, 60768, Note_on_c, 9, 46, 60
1, 60769, Note_on_c, 1, 41, 116
1, 60774, Note_on_c, 9, 46, 0
1, 60774, Note_on_c, 9, 63, 0
1, 60774, Note_on_c, 9, 38, 0
1, 60792, Note_on_c, 1, 41, 0
1, 60792, Note_on_c, 0, 72, 112
1, 60792, Note_on_c, 9, 64, 59
1, 60792, Note_on_c, 0, 69, 114
1, 60792, Note_on_c, 0, 65, 102
1, 60792, Note_on_c, 0, 77, 100
1, 60793, Note_on_c, 1, 29, 77
1, 60798, Note_on_c, 9, 64, 0
1, 60800, Note_on_c, 1, 29, 0
1, 60805, Note_on_c, 0, 41, 0
1, 60806, Note_on_c, 0, 65, 0
1, 60816, Note_on_c, 9, 63, 60
1, 60816, Note_on_c, 9, 36, 68
1, 60816, Note_on_c, 9, 42, 52
1, 60822, Note_on_c, 9, 42, 0
1, 60822, Note_on_c, 9, 36, 0
1, 60822, Note_on_c, 9, 63, 0
1, 60822, Note_on_c, 0, 69, 0
1, 60822, Note_on_c, 0, 72, 0
1, 60830, Note_on_c, 0, 77, 0
1, 60839, Note_on_c, 1, 39, 113
1, 60839, Note_on_c, 0, 65, 67
1, 60840, Note_on_c, 9, 63, 74
1, 60840, Note_on_c, 9, 38, 100
1, 60846, Note_on_c, 9, 38, 0
1, 60846, Note_on_c, 9, 63, 0
1, 60847, Note_on_c, 1, 39, 0
1, 60847, Note_on_c, 0, 65, 0
1, 60861, Note_on_c, 0, 41, 108
1, 60864, Note_on_c, 9, 36, 48
1, 60864, Note_on_c, 0, 65, 93
1, 60864, Note_on_c, 0, 68, 109
1, 60864, Note_on_c, 9, 42, 62
1, 60864, Note_on_c, 9, 64, 97
1, 60865, Note_on_c, 0, 77, 102
1, 60865, Note_on_c, 0, 72, 94
1, 60867, Note_on_c, 0, 72, 0
1, 60870, Note_on_c, 9, 64, 0
1, 60870, Note_on_c, 9, 36, 0
1, 60870, Note_on_c, 9, 42, 0
1, 60884, Note_on_c, 0, 65, 0
1, 60888, Note_on_c, 1, 29, 99
1, 60888, Note_on_c, 9, 64, 77
1, 60888, Note_on_c, 0, 65, 67
1, 60889, Note_on_c, 0, 72, 82
1, 60889, Note_on_c, 0, 69, 99
1, 60892, Note_on_c, 0, 68, 0
1, 60894, Note_on_c, 9, 64, 0
1, 60894, Note_on_c, 1, 29, 0
1, 60903, Note_on_c, 0, 65, 0
1, 60904, Note_on_c, 0, 72, 0
1, 60904, Note_on_c, 0, 69, 0
1, 60911, Note_on_c, 0, 77, 0
1, 60912, Note_on_c, 9, 64, 78
1, 60912, Note_on_c, 9, 36, 75
1, 60912, Note_on_c, 9, 42, 75
1, 60913, Note_on_c, 1, 41, 114
1, 60918, Note_on_c, 9, 42, 0
1, 60918, Note_on_c, 0, 41, 0
1, 60918, Note_on_c, 9, 64, 0
1, 60918, Note_on_c, 9, 36, 0
1, 60930, Note_on_c, 1, 41, 0
1, 60935, Note_on_c, 1, 39, 102
1, 60935, Note_on_c, 0, 65, 63
1, 60935, Note_on_c, 0, 69, 76
1, 60935, Note_on_c, 0, 77, 74
1, 60935, Note_on_c, 0, 72, 82
1, 60936, Note_on_c, 9, 64, 76
1, 60942, Note_on_c, 9, 64, 0
1, 60944, Note_on_c, 1, 39, 0
1, 60948, Note_on_c, 0, 72, 0
1, 60948, Note_on_c, 0, 69, 0
1, 60948, Note_on_c, 0, 77, 0
1, 60949, Note_on_c, 0, 65, 0
1, 60957, Note_on_c, 0, 41, 102
1, 60960, Note_on_c, 9, 38, 109
1, 60960, Note_on_c, 1, 39, 109
1, 60960, Note_on_c, 9, 63, 86
1, 60960, Note_on_c, 9, 46, 77
1, 60966, Note_on_c, 9, 46, 0
1, 60966, Note_on_c, 9, 63, 0
1, 60966, Note_on_c, 9, 38, 0
1, 60982, Note_on_c, 1, 39, 0
1, 60984, Note_on_c, 1, 38, 97
1, 60984, Note_on_c, 9, 64, 62
1, 60984, Note_on_c, 9, 45, 62
1, 60990, Note_on_c, 9, 45, 0
1, 60990, Note_on_c, 9, 64, 0
1, 61006, Note_on_c, 1, 38, 0
1, 61006, Note_on_c, 0, 77, 97
1, 61006, Note_on_c, 0, 69, 119
1, 61007, Note_on_c, 0, 72, 119
1, 61007, Note_on_c, 0, 65, 112
1, 61008, Note_on_c, 0, 41, 0
1, 61008, Note_on_c, 9, 63, 65
1, 61008, Note_on_c, 9, 42, 59
1, 61008, Note_on_c, 9, 45, 45
1, 61009, Note_on_c, 1, 36, 98
1, 61010, Note_on_c, 5, 60, 0
1, 61014, Note_on_c, 9, 45, 0
1, 61014, Note_on_c, 9, 63, 0
1, 61014, Note_on_c, 9, 42, 0
1, 61031, Note_on_c, 0, 65, 0
1, 61032, Note_on_c, 9, 63, 74
1, 61032, Note_on_c, 9, 45, 76
1, 61034, Note_on_c, 0, 69, 0
1, 61034, Note_on_c, 0, 72, 0
1, 61036, Note_on_c, 0, 77, 0
1, 61038, Note_on_c, 9, 45, 0
1, 61038, Note_on_c, 9, 63, 0
1, 61045, Note_on_c, 7, 53, 0
1, 61052, Note_on_c, 1, 36, 0
1, 61056, Note_on_c, 9, 38, 106
1, 61056, Note_on_c, 9, 42, 65
1, 61056, Note_on_c, 9, 64, 89
1, 61062, Note_on_c, 9, 64, 0
1, 61062, Note_on_c, 9, 42, 0
1, 61062, Note_on_c, 9, 38, 0
1, 61072, Note_on_c, 6, 41, 0
1, 61078, Note_on_c, 6, 51, 115
1, 61079, Note_on_c, 0, 77, 82
1, 61079, Note_on_c, 0, 70, 108
1, 61079, Note_on_c, 0, 67, 102
1, 61079, Note_on_c, 0, 75, 92
1, 61080, Note_on_c, 0, 73, 63
1, 61080, Note_on_c, 8, 58, 77
1, 61080, Note_on_c, 9, 55, 99
1, 61080, Note_on_c, 9, 63, 95
1, 61080, Note_on_c, 8, 63, 77
1, 61080, Note_on_c, 9, 36, 58
1, 61080, Note_on_c, 8, 55, 77
1, 61081, Note_on_c, 1, 39, 117
1, 61082, Note_on_c, 0, 73, 0
1, 61082, Note_on_c, 5, 58, 107
1, 61083, Note_on_c, 7, 63, 99
1, 61086, Note_on_c, 9, 36, 0
1, 61086, Note_on_c, 9, 55, 0
1, 61086, Note_on_c, 9, 63, 0
1, 61104, Note_on_c, 9, 64, 72
1, 61109, Note_on_c, 0, 67, 0
1, 61109, Note_on_c, 7, 63, 0
1, 61109, Note_on_c, 0, 75, 0
1, 61110, Note_on_c, 9, 64, 0
1, 61111, Note_on_c, 0, 70, 0
1, 61112, Note_on_c, 5, 58, 0
1, 61115, Note_on_c, 0, 77, 0
1, 61125, Note_on_c, 6, 51, 0
1, 61127, Note_on_c, 1, 39, 0
1, 61128, Note_on_c, 9, 64, 89
1, 61134, Note_on_c, 9, 64, 0
1, 61148, Note_on_c, 0, 73, 69
1, 61150, Note_on_c, 6, 50, 106
1, 61151, Note_on_c, 8, 63, 0
1, 61151, Note_on_c, 8, 55, 0
1, 61151, Note_on_c, 0, 77, 89
1, 61151, Note_on_c, 0, 70, 110
1, 61152, Note_on_c, 8, 53, 78
1, 61152, Note_on_c, 0, 74, 100
1, 61152, Note_on_c, 9, 36, 78
1, 61152, Note_on_c, 9, 63, 76
1, 61152, Note_on_c, 9, 55, 105
1, 61152, Note_on_c, 8, 62, 78
1, 61153, Note_on_c, 5, 65, 104
1, 61154, Note_on_c, 1, 38, 114
1, 61155, Note_on_c, 7, 62, 101
1, 61158, Note_on_c, 9, 55, 0
1, 61158, Note_on_c, 9, 63, 0
1, 61158, Note_on_c, 9, 36, 0
1, 61160, Note_on_c, 0, 73, 0
1, 61176, Note_on_c, 9, 64, 86
1, 61182, Note_on_c, 9, 64, 0
1, 61182, Note_on_c, 0, 74, 0
1, 61186, Note_on_c, 0, 70, 0
1, 61198, Note_on_c, 0, 77, 0
1, 61200, Note_on_c, 9, 36, 58
1, 61200, Note_on_c, 9, 64, 76
1, 61202, Note_on_c, 5, 65, 0
1, 61202, Note_on_c, 7, 62, 0
1, 61206, Note_on_c, 9, 64, 0
1, 61206, Note_on_c, 9, 36, 0
1, 61215, Note_on_c, 1, 38, 0
1, 61216, Note_on_c, 6, 50, 0
1, 61222, Note_on_c, 6, 48, 100
1, 61223, Note_on_c, 8, 58, 0
1, 61223, Note_on_c, 8, 62, 0
1, 61223, Note_on_c, 0, 69, 97
1, 61223, Note_on_c, 0, 77, 82
1, 61223, Note_on_c, 0, 72, 99
1, 61224, Note_on_c, 9, 63, 78
1, 61224, Note_on_c, 9, 38, 101
1, 61224, Note_on_c, 9, 55, 105
1, 61224, Note_on_c, 8, 60, 77
1, 61224, Note_on_c, 8, 57, 77
1, 61224, Note_on_c, 1, 36, 106
1, 61224, Note_on_c, 7, 60, 95
1, 61226, Note_on_c, 5, 60, 117
1, 61230, Note_on_c, 9, 55, 0
1, 61230, Note_on_c, 9, 38, 0
1, 61230, Note_on_c, 9, 63, 0
1, 61248, Note_on_c, 9, 64, 93
1, 61254, Note_on_c, 9, 64, 0
1, 61261, Note_on_c, 0, 69, 0
1, 61268, Note_on_c, 0, 77, 0
1, 61270, Note_on_c, 0, 72, 0
1, 61272, Note_on_c, 9, 64, 95
1, 61272, Note_on_c, 9, 38, 95
1, 61278, Note_on_c, 9, 38, 0
1, 61278, Note_on_c, 9, 64, 0
1, 61291, Note_on_c, 6, 48, 0
1, 61291, Note_on_c, 5, 60, 0
1, 61293, Note_on_c, 7, 60, 0
1, 61293, Note_on_c, 6, 46, 95
1, 61294, Note_on_c, 1, 36, 0
1, 61295, Note_on_c, 8, 60, 0
1, 61295, Note_on_c, 8, 57, 0
1, 61295, Note_on_c, 0, 77, 80
1, 61295, Note_on_c, 0, 70, 108
1, 61295, Note_on_c, 0, 74, 82
1, 61296, Note_on_c, 1, 34, 95
1, 61296, Note_on_c, 9, 55, 105
1, 61296, Note_on_c, 7, 58, 84
1, 61296, Note_on_c, 8, 55, 75
1, 61296, Note_on_c, 9, 36, 65
1, 61296, Note_on_c, 9, 63, 88
1, 61296, Note_on_c, 8, 58, 75
1, 61298, Note_on_c, 5, 58, 101
1, 61302, Note_on_c, 9, 63, 0
1, 61302, Note_on_c, 9, 36, 0
1, 61302, Note_on_c, 9, 55, 0
1, 61306, Note_on_c, 0, 70, 0
1, 61306, Note_on_c, 0, 74, 0
1, 61314, Note_on_c, 0, 77, 0
1, 61320, Note_on_c, 9, 64, 97
1, 61326, Note_on_c, 9, 64, 0
1, 61329, Note_on_c, 5, 58, 0
1, 61330, Note_on_c, 1, 34, 0
1, 61339, Note_on_c, 7, 58, 0
1, 61343, Note_on_c, 8, 58, 0
1, 61343, Note_on_c, 8, 55, 0
1, 61343, Note_on_c, 0, 69, 99
1, 61343, Note_on_c, 0, 77, 80
1, 61343, Note_on_c, 0, 72, 96
1, 61344, Note_on_c, 8, 57, 76
1, 61344, Note_on_c, 9, 63, 78
1, 61344, Note_on_c, 8, 60, 76
1, 61344, Note_on_c, 7, 57, 93
1, 61344, Note_on_c, 9, 38, 110
1, 61344, Note_on_c, 6, 45, 107
1, 61345, Note_on_c, 1, 33, 110
1, 61345, Note_on_c, 5, 60, 100
1, 61349, Note_on_c, 6, 46, 0
1, 61350, Note_on_c, 9, 38, 0
1, 61350, Note_on_c, 9, 63, 0
1, 61360, Note_on_c, 0, 69, 0
1, 61366, Note_on_c, 0, 72, 0
1, 61368, Note_on_c, 0, 77, 0
1, 61368, Note_on_c, 5, 60, 0
1, 61368, Note_on_c, 9, 63, 76
1, 61374, Note_on_c, 9, 63, 0
1, 61380, Note_on_c, 1, 33, 0
1, 61387, Note_on_c, 6, 45, 0
1, 61390, Note_on_c, 6, 46, 104
1, 61391, Note_on_c, 8, 57, 0
1, 61391, Note_on_c, 8, 60, 0
1, 61391, Note_on_c, 0, 74, 87
1, 61391, Note_on_c, 0, 77, 66
1, 61391, Note_on_c, 5, 58, 113
1, 61391, Note_on_c, 0, 70, 72
1, 61392, Note_on_c, 9, 55, 63
1, 61392, Note_on_c, 9, 38, 115
1, 61392, Note_on_c, 8, 58, 77
1, 61392, Note_on_c, 1, 34, 103
1, 61392, Note_on_c, 8, 62, 77
1, 61392, Note_on_c, 9, 63, 89
1, 61394, Note_on_c, 7, 57, 0
1, 61394, Note_on_c, 7, 58, 96
1, 61398, Note_on_c, 9, 38, 0
1, 61398, Note_on_c, 9, 55, 0
1, 61398, Note_on_c, 9, 63, 0
1, 61401, Note_on_c, 0, 77, 0
1, 61402, Note_on_c, 0, 74, 0
1, 61407, Note_on_c, 0, 70, 0
1, 61409, Note_on_c, 5, 58, 0
1, 61413, Note_on_c, 7, 58, 0
1, 61416, Note_on_c, 9, 63, 82
1, 61422, Note_on_c, 9, 63, 0
1, 61429, Note_on_c, 1, 34, 0
1, 61439, Note_on_c, 8, 62, 0
1, 61439, Note_on_c, 1, 29, 99
1, 61440, Note_on_c, 6, 46, 0
1, 61440, Note_on_c, 8, 65, 79
1, 61440, Note_on_c, 9, 49, 62
1, 61440, Note_on_c, 8, 60, 79
1, 61440, Note_on_c, 0, 68, 115
1, 61440, Note_on_c, 9, 64, 85
1, 61440, Note_on_c, 9, 36, 78
1, 61441, Note_on_c, 0, 72, 108
1, 61441, Note_on_c, 5, 58, 123
1, 61441, Note_on_c, 0, 77, 97
1, 61442, Note_on_c, 6, 41, 100
1, 61445, Note_on_c, 7, 65, 87
1, 61446, Note_on_c, 9, 36, 0
1, 61446, Note_on_c, 9, 64, 0
1, 61446, Note_on_c, 9, 49, 0
1, 61464, Note_on_c, 0, 68, 0
1, 61464, Note_on_c, 9, 64, 66
1, 61465, Note_on_c, 0, 69, 83
1, 61470, Note_on_c, 9, 64, 0
1, 61478, Note_on_c, 0, 72, 0
1, 61478, Note_on_c, 0, 69, 0
1, 61479, Note_on_c, 0, 77, 0
1, 61486, Note_on_c, 1, 29, 0
1, 61488, Note_on_c, 9, 36, 73
1, 61488, Note_on_c, 9, 64, 71
1, 61488, Note_on_c, 9, 42, 60
1, 61494, Note_on_c, 9, 42, 0
1, 61494, Note_on_c, 9, 64, 0
1, 61494, Note_on_c, 9, 36, 0
1, 61511, Note_on_c, 1, 29, 94
1, 61512, Note_on_c, 9, 64, 65
1, 61513, Note_on_c, 0, 77, 76
1, 61513, Note_on_c, 0, 69, 82
1, 61513, Note_on_c, 0, 72, 82
1, 61518, Note_on_c, 9, 64, 0
1, 61523, Note_on_c, 0, 72, 0
1, 61526, Note_on_c, 0, 69, 0
1, 61526, Note_on_c, 0, 77, 0
1, 61534, Note_on_c, 1, 29, 0
1, 61535, Note_on_c, 1, 41, 109
1, 61536, Note_on_c, 9, 63, 95
1, 61536, Note_on_c, 9, 38, 107
1, 61536, Note_on_c, 9, 46, 60
1, 61542, Note_on_c, 9, 46, 0
1, 61542, Note_on_c, 9, 38, 0
1, 61542, Note_on_c, 9, 63, 0
1, 61559, Note_on_c, 1, 41, 0
1, 61560, Note_on_c, 9, 64, 59
1, 61561, Note_on_c, 0, 72, 104
1, 61561, Note_on_c, 0, 77, 94
1, 61561, Note_on_c, 1, 29, 94
1, 61561, Note_on_c, 0, 69, 114
1, 61566, Note_on_c, 9, 64, 0
1, 61577, Note_on_c, 1, 29, 0
1, 61584, Note_on_c, 9, 42, 52
1, 61584, Note_on_c, 9, 36, 68
1, 61584, Note_on_c, 9, 63, 60
1, 61590, Note_on_c, 9, 63, 0
1, 61590, Note_on_c, 9, 36, 0
1, 61590, Note_on_c, 9, 42, 0
1, 61602, Note_on_c, 0, 69, 0
1, 61606, Note_on_c, 0, 72, 0
1, 61606, Note_on_c, 0, 77, 0
1, 61607, Note_on_c, 1, 29, 78
1, 61608, Note_on_c, 9, 63, 74
1, 61608, Note_on_c, 9, 38, 100
1, 61614, Note_on_c, 9, 38, 0
1, 61614, Note_on_c, 9, 63, 0
1, 61621, Note_on_c, 1, 29, 0
1, 61632, Note_on_c, 9, 64, 97
1, 61632, Note_on_c, 9, 42, 62
1, 61632, Note_on_c, 9, 36, 48
1, 61633, Note_on_c, 0, 72, 104
1, 61633, Note_on_c, 0, 68, 99
1, 61633, Note_on_c, 0, 77, 76
1, 61638, Note_on_c, 9, 36, 0
1, 61638, Note_on_c, 9, 42, 0
1, 61638, Note_on_c, 9, 64, 0
1, 61651, Note_on_c, 0, 72, 0
1, 61655, Note_on_c, 1, 29, 99
1, 61656, Note_on_c, 9, 64, 77
1, 61657, Note_on_c, 0, 68, 0
1, 61657, Note_on_c, 0, 69, 85
1, 61657, Note_on_c, 0, 72, 49
1, 61662, Note_on_c, 9, 64, 0
1, 61672, Note_on_c, 1, 29, 0
1, 61675, Note_on_c, 0, 69, 0
1, 61678, Note_on_c, 0, 72, 0
1, 61678, Note_on_c, 0, 77, 0
1, 61680, Note_on_c, 1, 41, 113
1, 61680, Note_on_c, 9, 42, 75
1, 61680, Note_on_c, 9, 36, 75
1, 61680, Note_on_c, 9, 64, 78
1, 61686, Note_on_c, 9, 64, 0
1, 61686, Note_on_c, 9, 36, 0
1, 61686, Note_on_c, 9, 42, 0
1, 61692, Note_on_c, 1, 41, 0
1, 61703, Note_on_c, 1, 41, 104
1, 61703, Note_on_c, 0, 77, 75
1, 61704, Note_on_c, 9, 64, 76
1, 61705, Note_on_c, 0, 69, 75
1, 61705, Note_on_c, 0, 72, 86
1, 61710, Note_on_c, 9, 64, 0
1, 61719, Note_on_c, 1, 41, 0
1, 61722, Note_on_c, 0, 69, 0
1, 61722, Note_on_c, 0, 72, 0
1, 61725, Note_on_c, 0, 77, 0
1, 61728, Note_on_c, 9, 38, 109
1, 61728, Note_on_c, 9, 46, 77
1, 61728, Note_on_c, 9, 63, 86
1, 61729, Note_on_c, 1, 39, 104
1, 61734, Note_on_c, 9, 63, 0
1, 61734, Note_on_c, 9, 46, 0
1, 61734, Note_on_c, 9, 38, 0
1, 61738, Note_on_c, 1, 39, 0
1, 61751, Note_on_c, 1, 39, 106
1, 61752, Note_on_c, 9, 45, 62
1, 61752, Note_on_c, 9, 64, 62
1, 61753, Note_on_c, 0, 69, 119
1, 61753, Note_on_c, 0, 72, 122
1, 61753, Note_on_c, 0, 77, 102
1, 61758, Note_on_c, 9, 64, 0
1, 61758, Note_on_c, 9, 45, 0
1, 61776, Note_on_c, 1, 39, 0
1, 61776, Note_on_c, 9, 45, 45
1, 61776, Note_on_c, 9, 42, 59
1, 61776, Note_on_c, 9, 63, 65
1, 61777, Note_on_c, 1, 38, 107
1, 61782, Note_on_c, 9, 63, 0
1, 61782, Note_on_c, 9, 42, 0
1, 61782, Note_on_c, 9, 45, 0
1, 61792, Note_on_c, 7, 65, 0
1, 61799, Note_on_c, 8, 53, 0
1, 61800, Note_on_c, 9, 63, 74
1, 61800, Note_on_c, 9, 45, 76
1, 61804, Note_on_c, 5, 58, 0
1, 61806, Note_on_c, 9, 45, 0
1, 61806, Note_on_c, 9, 63, 0
1, 61814, Note_on_c, 1, 38, 0
1, 61818, Note_on_c, 0, 69, 0
1, 61819, Note_on_c, 0, 77, 0
1, 61819, Note_on_c, 0, 72, 0
1, 61823, Note_on_c, 8, 65, 0
1, 61823, Note_on_c, 8, 60, 0
1, 61823, Note_on_c, 8, 58, 0
1, 61824, Note_on_c, 9, 42, 65
1, 61824, Note_on_c, 9, 64, 89
1, 61824, Note_on_c, 9, 36, 105
1, 61826, Note_on_c, 6, 41, 0
1, 61830, Note_on_c, 9, 42, 0
1, 61830, Note_on_c, 9, 64, 0
1, 61830, Note_on_c, 9, 36, 0
1, 61845, Note_on_c, 6, 51, 107
1, 61846, Note_on_c, 7, 63, 93
1, 61848, Note_on_c, 9, 63, 95
1, 61848, Note_on_c, 0, 67, 114
1, 61848, Note_on_c, 9, 55, 99
1, 61848, Note_on_c, 9, 38, 100
1, 61848, Note_on_c, 8, 63, 84
1, 61848, Note_on_c, 8, 58, 84
1, 61848, Note_on_c, 0, 75, 114
1, 61848, Note_on_c, 8, 55, 84
1, 61849, Note_on_c, 5, 58, 101
1, 61849, Note_on_c, 1, 39, 121
1, 61849, Note_on_c, 0, 70, 106
1, 61854, Note_on_c, 9, 38, 0
1, 61854, Note_on_c, 9, 63, 0
1, 61854, Note_on_c, 9, 55, 0
1, 61872, Note_on_c, 9, 64, 72
1, 61872, Note_on_c, 9, 38, 114
1, 61878, Note_on_c, 9, 38, 0
1, 61878, Note_on_c, 9, 64, 0
1, 61879, Note_on_c, 5, 58, 0
1, 61883, Note_on_c, 6, 51, 0
1, 61886, Note_on_c, 0, 67, 0
1, 61886, Note_on_c, 0, 75, 0
1, 61889, Note_on_c, 0, 70, 0
1, 61896, Note_on_c, 9, 38, 103
1, 61896, Note_on_c, 9, 64, 89
1, 61901, Note_on_c, 7, 63, 0
1, 61902, Note_on_c, 9, 38, 0
1, 61902, Note_on_c, 9, 64, 0
1, 61918, Note_on_c, 1, 39, 0
1, 61918, Note_on_c, 6, 50, 111
1, 61919, Note_on_c, 8, 55, 0
1, 61919, Note_on_c, 8, 63, 0
1, 61919, Note_on_c, 5, 65, 107
1, 61919, Note_on_c, 0, 65, 108
1, 61919, Note_on_c, 0, 70, 108
1, 61920, Note_on_c, 8, 62, 88
1, 61920, Note_on_c, 9, 38, 111
1, 61920, Note_on_c, 1, 38, 102
1, 61920, Note_on_c, 9, 63, 76
1, 61920, Note_on_c, 9, 55, 105
1, 61920, Note_on_c, 0, 74, 96
1, 61920, Note_on_c, 7, 62, 97
1, 61926, Note_on_c, 9, 55, 0
1, 61926, Note_on_c, 9, 63, 0
1, 61926, Note_on_c, 9, 38, 0
1, 61944, Note_on_c, 9, 45, 64
1, 61944, Note_on_c, 9, 64, 86
1, 61950, Note_on_c, 9, 64, 0
1, 61950, Note_on_c, 9, 45, 0
1, 61953, Note_on_c, 0, 74, 0
1, 61954, Note_on_c, 0, 70, 0
1, 61964, Note_on_c, 0, 65, 0
1, 61965, Note_on_c, 1, 38, 0
1, 61968, Note_on_c, 9, 45, 89
1, 61968, Note_on_c, 9, 64, 76
1, 61971, Note_on_c, 5, 65, 0
1, 61974, Note_on_c, 9, 45, 0
1, 61974, Note_on_c, 9, 64, 0
1, 61982, Note_on_c, 6, 50, 0
1, 61986, Note_on_c, 7, 62, 0
1, 61990, Note_on_c, 6, 48, 106
1, 61991, Note_on_c, 8, 62, 0
1, 61991, Note_on_c, 8, 58, 0
1, 61991, Note_on_c, 0, 65, 102
1, 61991, Note_on_c, 0, 72, 104
1, 61991, Note_on_c, 0, 69, 106
1, 61992, Note_on_c, 1, 36, 113
1, 61992, Note_on_c, 9, 55, 105
1, 61992, Note_on_c, 8, 57, 84
1, 61992, Note_on_c, 9, 45, 76
1, 61992, Note_on_c, 7, 60, 94
1, 61992, Note_on_c, 8, 60, 84
1, 61992, Note_on_c, 9, 63, 78
1, 61993, Note_on_c, 5, 60, 117
1, 61998, Note_on_c, 9, 63, 0
1, 61998, Note_on_c, 9, 45, 0
1, 61998, Note_on_c, 9, 55, 0
1, 62016, Note_on_c, 9, 64, 93
1, 62016, Note_on_c, 9, 45, 96
1, 62022, Note_on_c, 9, 45, 0
1, 62022, Note_on_c, 9, 64, 0
1, 62032, Note_on_c, 0, 69, 0
1, 62040, Note_on_c, 9, 64, 95
1, 62040, Note_on_c, 9, 38, 104
1, 62041, Note_on_c, 0, 72, 0
1, 62042, Note_on_c, 0, 65, 0
1, 62045, Note_on_c, 1, 36, 0
1, 62046, Note_on_c, 9, 64, 0
1, 62046, Note_on_c, 9, 38, 0
1, 62052, Note_on_c, 7, 60, 0
1, 62059, Note_on_c, 6, 48, 0
1, 62061, Note_on_c, 6, 46, 89
1, 62062, Note_on_c, 7, 58, 79
1, 62063, Note_on_c, 8, 57, 0
1, 62063, Note_on_c, 8, 60, 0
1, 62063, Note_on_c, 0, 70, 108
1, 62063, Note_on_c, 0, 74, 104
1, 62063, Note_on_c, 0, 65, 104
1, 62064, Note_on_c, 9, 63, 88
1, 62064, Note_on_c, 8, 55, 84
1, 62064, Note_on_c, 8, 58, 84
1, 62064, Note_on_c, 9, 55, 105
1, 62064, Note_on_c, 9, 38, 114
1, 62065, Note_on_c, 1, 34, 106
1, 62066, Note_on_c, 5, 58, 96
1, 62070, Note_on_c, 9, 38, 0
1, 62070, Note_on_c, 9, 55, 0
1, 62070, Note_on_c, 9, 63, 0
1, 62071, Note_on_c, 5, 60, 0
1, 62088, Note_on_c, 9, 64, 97
1, 62088, Note_on_c, 9, 45, 73
1, 62090, Note_on_c, 1, 34, 0
1, 62094, Note_on_c, 9, 45, 0
1, 62094, Note_on_c, 9, 64, 0
1, 62095, Note_on_c, 0, 70, 0
1, 62097, Note_on_c, 5, 58, 0
1, 62099, Note_on_c, 0, 65, 0
1, 62099, Note_on_c, 0, 74, 0
1, 62105, Note_on_c, 6, 46, 0
1, 62107, Note_on_c, 7, 58, 0
1, 62111, Note_on_c, 8, 55, 0
1, 62111, Note_on_c, 8, 58, 0
1, 62112, Note_on_c, 9, 45, 95
1, 62112, Note_on_c, 6, 45, 107
1, 62112, Note_on_c, 8, 57, 86
1, 62112, Note_on_c, 8, 60, 86
1, 62112, Note_on_c, 7, 57, 88
1, 62112, Note_on_c, 9, 63, 78
1, 62113, Note_on_c, 0, 69, 104
1, 62113, Note_on_c, 0, 72, 102
1, 62113, Note_on_c, 0, 65, 93
1, 62113, Note_on_c, 1, 33, 106
1, 62114, Note_on_c, 5, 60, 113
1, 62118, Note_on_c, 9, 63, 0
1, 62118, Note_on_c, 9, 45, 0
1, 62136, Note_on_c, 9, 63, 76
1, 62136, Note_on_c, 9, 43, 72
1, 62137, Note_on_c, 5, 60, 0
1, 62137, Note_on_c, 0, 69, 0
1, 62141, Note_on_c, 0, 65, 0
1, 62142, Note_on_c, 9, 43, 0
1, 62142, Note_on_c, 9, 63, 0
1, 62149, Note_on_c, 0, 72, 0
1, 62157, Note_on_c, 7, 57, 0
1, 62158, Note_on_c, 1, 33, 0
1, 62159, Note_on_c, 8, 57, 0
1, 62159, Note_on_c, 8, 60, 0
1, 62159, Note_on_c, 0, 70, 108
1, 62159, Note_on_c, 0, 65, 99
1, 62159, Note_on_c, 0, 74, 93
1, 62160, Note_on_c, 9, 43, 96
1, 62160, Note_on_c, 8, 62, 88
1, 62160, Note_on_c, 9, 63, 89
1, 62160, Note_on_c, 9, 55, 63
1, 62160, Note_on_c, 8, 58, 88
1, 62160, Note_on_c, 7, 58, 89
1, 62161, Note_on_c, 1, 34, 99
1, 62162, Note_on_c, 5, 58, 119
1, 62163, Note_on_c, 6, 45, 0
1, 62164, Note_on_c, 6, 46, 106
1, 62166, Note_on_c, 9, 55, 0
1, 62166, Note_on_c, 9, 43, 0
1, 62166, Note_on_c, 9, 63, 0
1, 62184, Note_on_c, 9, 63, 82
1, 62184, Note_on_c, 9, 43, 105
1, 62185, Note_on_c, 0, 65, 0
1, 62186, Note_on_c, 0, 70, 0
1, 62187, Note_on_c, 0, 74, 0
1, 62190, Note_on_c, 9, 63, 0
1, 62190, Note_on_c, 9, 43, 0
1, 62202, Note_on_c, 1, 34, 0
1, 62206, Note_on_c, 5, 58, 0
1, 62207, Note_on_c, 8, 58, 0
1, 62207, Note_on_c, 8, 62, 0
1, 62208, Note_on_c, 7, 58, 0
1, 62208, Note_on_c, 6, 46, 0
1, 62208, Note_on_c, 0, 41, 92
1, 62208, Note_on_c, 9, 64, 105
1, 62208, Note_on_c, 9, 49, 69
1, 62208, Note_on_c, 0, 68, 115
1, 62208, Note_on_c, 0, 77, 100
1, 62208, Note_on_c, 9, 36, 90
1, 62208, Note_on_c, 0, 69, 53
1, 62208, Note_on_c, 1, 29, 99
1, 62208, Note_on_c, 0, 65, 97
1, 62208, Note_on_c, 0, 72, 92
1, 62214, Note_on_c, 9, 36, 0
1, 62214, Note_on_c, 9, 49, 0
1, 62214, Note_on_c, 9, 64, 0
1, 62217, Note_on_c, 0, 68, 0
1, 62232, Note_on_c, 9, 64, 65
1, 62238, Note_on_c, 9, 64, 0
1, 62247, Note_on_c, 0, 69, 0
1, 62256, Note_on_c, 9, 64, 86
1, 62256, Note_on_c, 9, 42, 46
1, 62256, Note_on_c, 9, 36, 58
1, 62258, Note_on_c, 0, 65, 0
1, 62258, Note_on_c, 0, 72, 0
1, 62261, Note_on_c, 0, 77, 0
1, 62261, Note_on_c, 1, 29, 0
1, 62262, Note_on_c, 0, 41, 0
1, 62262, Note_on_c, 9, 36, 0
1, 62262, Note_on_c, 9, 64, 0
1, 62262, Note_on_c, 9, 42, 0
1, 62280, Note_on_c, 9, 64, 65
1, 62281, Note_on_c, 0, 72, 89
1, 62281, Note_on_c, 0, 65, 89
1, 62281, Note_on_c, 0, 77, 90
1, 62281, Note_on_c, 1, 29, 92
1, 62281, Note_on_c, 0, 69, 104
1, 62286, Note_on_c, 9, 64, 0
1, 62287, Note_on_c, 0, 72, 0
1, 62288, Note_on_c, 0, 77, 0
1, 62288, Note_on_c, 0, 69, 0
1, 62290, Note_on_c, 0, 65, 0
1, 62298, Note_on_c, 1, 29, 0
1, 62303, Note_on_c, 0, 41, 96
1, 62304, Note_on_c, 1, 41, 103
1, 62304, Note_on_c, 9, 63, 79
1, 62304, Note_on_c, 9, 46, 65
1, 62304, Note_on_c, 9, 38, 107
1, 62310, Note_on_c, 9, 38, 0
1, 62310, Note_on_c, 9, 63, 0
1, 62310, Note_on_c, 9, 46, 0
1, 62328, Note_on_c, 1, 41, 0
1, 62328, Note_on_c, 9, 64, 60
1, 62329, Note_on_c, 1, 29, 89
1, 62334, Note_on_c, 9, 64, 0
1, 62337, Note_on_c, 1, 29, 0
1, 62340, Note_on_c, 0, 41, 0
1, 62351, Note_on_c, 0, 72, 99
1, 62351, Note_on_c, 0, 65, 96
1, 62351, Note_on_c, 0, 77, 93
1, 62351, Note_on_c, 0, 69, 104
1, 62352, Note_on_c, 9, 36, 48
1, 62352, Note_on_c, 9, 63, 65
1, 62352, Note_on_c, 9, 42, 46
1, 62358, Note_on_c, 9, 42, 0
1, 62358, Note_on_c, 9, 36, 0
1, 62358, Note_on_c, 9, 63, 0
1, 62360, Note_on_c, 0, 69, 0
1, 62362, Note_on_c, 0, 72, 0
1, 62362, Note_on_c, 0, 65, 0
1, 62366, Note_on_c, 0, 77, 0
1, 62376, Note_on_c, 1, 29, 89
1, 62376, Note_on_c, 9, 38, 98
1, 62376, Note_on_c, 9, 63, 81
1, 62382, Note_on_c, 9, 63, 0
1, 62382, Note_on_c, 9, 38, 0
1, 62384, Note_on_c, 1, 29, 0
1, 62400, Note_on_c, 9, 36, 47
1, 62400, Note_on_c, 9, 64, 91
1, 62400, Note_on_c, 9, 42, 40
1, 62401, Note_on_c, 0, 41, 93
1, 62406, Note_on_c, 9, 42, 0
1, 62406, Note_on_c, 9, 36, 0
1, 62406, Note_on_c, 9, 64, 0
1, 62423, Note_on_c, 1, 29, 98
1, 62424, Note_on_c, 9, 64, 76
1, 62425, Note_on_c, 0, 72, 108
1, 62425, Note_on_c, 0, 77, 97
1, 62425, Note_on_c, 0, 65, 99
1, 62425, Note_on_c, 0, 69, 110
1, 62430, Note_on_c, 9, 64, 0
1, 62434, Note_on_c, 0, 72, 0
1, 62434, Note_on_c, 0, 69, 0
1, 62436, Note_on_c, 0, 65, 0
1, 62437, Note_on_c, 0, 77, 0
1, 62439, Note_on_c, 0, 41, 0
1, 62441, Note_on_c, 1, 29, 0
1, 62447, Note_on_c, 1, 41, 104
1, 62448, Note_on_c, 9, 42, 73
1, 62448, Note_on_c, 9, 36, 72
1, 62448, Note_on_c, 9, 64, 85
1, 62454, Note_on_c, 9, 64, 0
1, 62454, Note_on_c, 9, 36, 0
1, 62454, Note_on_c, 9, 42, 0
1, 62466, Note_on_c, 1, 41, 0
1, 62470, Note_on_c, 1, 39, 77
1, 62472, Note_on_c, 9, 64, 71
1, 62478, Note_on_c, 9, 64, 0
1, 62487, Note_on_c, 1, 39, 0
1, 62495, Note_on_c, 0, 65, 96
1, 62495, Note_on_c, 0, 72, 112
1, 62495, Note_on_c, 1, 39, 104
1, 62495, Note_on_c, 0, 77, 100
1, 62495, Note_on_c, 0, 69, 108
1, 62496, Note_on_c, 9, 38, 104
1, 62496, Note_on_c, 9, 63, 88
1, 62496, Note_on_c, 0, 41, 99
1, 62496, Note_on_c, 9, 46, 73
1, 62502, Note_on_c, 9, 46, 0
1, 62502, Note_on_c, 9, 63, 0
1, 62502, Note_on_c, 9, 38, 0
1, 62504, Note_on_c, 0, 69, 0
1, 62506, Note_on_c, 0, 65, 0
1, 62506, Note_on_c, 0, 72, 0
1, 62506, Note_on_c, 0, 77, 0
1, 62518, Note_on_c, 1, 39, 0
1, 62519, Note_on_c, 1, 38, 94
1, 62520, Note_on_c, 9, 64, 60
1, 62526, Note_on_c, 9, 64, 0
1, 62534, Note_on_c, 0, 41, 0
1, 62542, Note_on_c, 1, 38, 0
1, 62543, Note_on_c, 0, 69, 93
1, 62543, Note_on_c, 0, 72, 89
1, 62543, Note_on_c, 0, 65, 94
1, 62543, Note_on_c, 0, 77, 87
1, 62544, Note_on_c, 9, 36, 62
1, 62544, Note_on_c, 9, 63, 71
1, 62544, Note_on_c, 9, 42, 52
1, 62544, Note_on_c, 1, 36, 95
1, 62550, Note_on_c, 9, 42, 0
1, 62550, Note_on_c, 9, 63, 0
1, 62550, Note_on_c, 9, 36, 0
1, 62554, Note_on_c, 0, 72, 0
1, 62555, Note_on_c, 0, 69, 0
1, 62555, Note_on_c, 0, 65, 0
1, 62559, Note_on_c, 1, 36, 0
1, 62559, Note_on_c, 0, 77, 0
1, 62567, Note_on_c, 1, 36, 92
1, 62568, Note_on_c, 9, 63, 76
1, 62574, Note_on_c, 9, 63, 0
1, 62590, Note_on_c, 1, 36, 0
1, 62592, Note_on_c, 9, 42, 59
1, 62592, Note_on_c, 9, 64, 86
1, 62592, Note_on_c, 0, 67, 96
1, 62592, Note_on_c, 9, 36, 73
1, 62592, Note_on_c, 0, 70, 99
1, 62592, Note_on_c, 0, 75, 95
1, 62592, Note_on_c, 0, 41, 97
1, 62592, Note_on_c, 0, 77, 92
1, 62593, Note_on_c, 1, 29, 88
1, 62598, Note_on_c, 9, 36, 0
1, 62598, Note_on_c, 9, 64, 0
1, 62598, Note_on_c, 9, 42, 0
1, 62599, Note_on_c, 0, 77, 0
1, 62599, Note_on_c, 0, 70, 0
1, 62599, Note_on_c, 0, 75, 0
1, 62602, Note_on_c, 0, 67, 0
1, 62615, Note_on_c, 0, 77, 42
1, 62615, Note_on_c, 0, 75, 68
1, 62615, Note_on_c, 0, 70, 69
1, 62615, Note_on_c, 0, 67, 61
1, 62616, Note_on_c, 9, 64, 82
1, 62622, Note_on_c, 9, 64, 0
1, 62626, Note_on_c, 0, 70, 0
1, 62626, Note_on_c, 0, 75, 0
1, 62626, Note_on_c, 0, 77, 0
1, 62626, Note_on_c, 0, 67, 0
1, 62638, Note_on_c, 1, 29, 0
1, 62640, Note_on_c, 0, 41, 0
1, 62640, Note_on_c, 9, 36, 86
1, 62640, Note_on_c, 9, 42, 71
1, 62640, Note_on_c, 9, 64, 82
1, 62646, Note_on_c, 9, 64, 0
1, 62646, Note_on_c, 9, 42, 0
1, 62646, Note_on_c, 9, 36, 0
1, 62663, Note_on_c, 0, 70, 103
1, 62663, Note_on_c, 0, 67, 100
1, 62663, Note_on_c, 1, 29, 98
1, 62663, Note_on_c, 0, 75, 86
1, 62663, Note_on_c, 0, 77, 82
1, 62664, Note_on_c, 9, 64, 69
1, 62670, Note_on_c, 9, 64, 0
1, 62670, Note_on_c, 0, 75, 0
1, 62670, Note_on_c, 0, 77, 0
1, 62672, Note_on_c, 0, 67, 0
1, 62673, Note_on_c, 0, 70, 0
1, 62677, Note_on_c, 1, 29, 0
1, 62687, Note_on_c, 1, 41, 96
1, 62688, Note_on_c, 9, 38, 104
1, 62688, Note_on_c, 9, 63, 97
1, 62688, Note_on_c, 9, 46, 73
1, 62689, Note_on_c, 0, 41, 93
1, 62694, Note_on_c, 9, 46, 0
1, 62694, Note_on_c, 9, 63, 0
1, 62694, Note_on_c, 9, 38, 0
1, 62711, Note_on_c, 0, 67, 104
1, 62711, Note_on_c, 0, 75, 93
1, 62711, Note_on_c, 0, 77, 87
1, 62711, Note_on_c, 0, 70, 101
1, 62712, Note_on_c, 1, 41, 0
1, 62712, Note_on_c, 9, 64, 61
1, 62713, Note_on_c, 1, 29, 84
1, 62718, Note_on_c, 9, 64, 0
1, 62720, Note_on_c, 1, 29, 0
1, 62722, Note_on_c, 0, 70, 0
1, 62724, Note_on_c, 0, 67, 0
1, 62725, Note_on_c, 0, 75, 0
1, 62727, Note_on_c, 0, 41, 0
1, 62735, Note_on_c, 0, 67, 31
1, 62736, Note_on_c, 9, 36, 64
1, 62736, Note_on_c, 9, 42, 52
1, 62736, Note_on_c, 9, 63, 65
1, 62742, Note_on_c, 9, 63, 0
1, 62742, Note_on_c, 9, 36, 0
1, 62742, Note_on_c, 0, 77, 0
1, 62742, Note_on_c, 0, 67, 0
1, 62742, Note_on_c, 9, 42, 0
1, 62759, Note_on_c, 0, 67, 72
1, 62760, Note_on_c, 9, 38, 103
1, 62760, Note_on_c, 1, 29, 86
1, 62760, Note_on_c, 9, 63, 77
1, 62766, Note_on_c, 9, 63, 0
1, 62766, Note_on_c, 1, 29, 0
1, 62766, Note_on_c, 9, 38, 0
1, 62770, Note_on_c, 0, 67, 0
1, 62783, Note_on_c, 0, 41, 92
1, 62784, Note_on_c, 9, 42, 45
1, 62784, Note_on_c, 9, 36, 62
1, 62784, Note_on_c, 9, 64, 93
1, 62790, Note_on_c, 9, 64, 0
1, 62790, Note_on_c, 9, 36, 0
1, 62790, Note_on_c, 9, 42, 0
1, 62807, Note_on_c, 1, 29, 86
1, 62808, Note_on_c, 0, 65, 100
1, 62808, Note_on_c, 0, 70, 95
1, 62808, Note_on_c, 0, 77, 93
1, 62808, Note_on_c, 0, 74, 106
1, 62808, Note_on_c, 9, 64, 77
1, 62814, Note_on_c, 9, 64, 0
1, 62817, Note_on_c, 0, 74, 0
1, 62819, Note_on_c, 0, 65, 0
1, 62819, Note_on_c, 0, 70, 0
1, 62821, Note_on_c, 0, 77, 0
1, 62825, Note_on_c, 1, 29, 0
1, 62827, Note_on_c, 0, 41, 0
1, 62831, Note_on_c, 1, 41, 106
1, 62832, Note_on_c, 9, 42, 67
1, 62832, Note_on_c, 9, 36, 76
1, 62832, Note_on_c, 9, 64, 85
1, 62838, Note_on_c, 9, 64, 0
1, 62838, Note_on_c, 9, 36, 0
1, 62838, Note_on_c, 9, 42, 0
1, 62846, Note_on_c, 1, 41, 0
1, 62855, Note_on_c, 1, 41, 99
1, 62856, Note_on_c, 9, 64, 71
1, 62862, Note_on_c, 9, 64, 0
1, 62874, Note_on_c, 1, 41, 0
1, 62879, Note_on_c, 0, 77, 100
1, 62879, Note_on_c, 0, 74, 108
1, 62879, Note_on_c, 0, 65, 110
1, 62879, Note_on_c, 0, 70, 106
1, 62879, Note_on_c, 1, 39, 80
1, 62880, Note_on_c, 9, 38, 104
1, 62880, Note_on_c, 9, 46, 77
1, 62880, Note_on_c, 9, 63, 83
1, 62881, Note_on_c, 0, 41, 82
1, 62886, Note_on_c, 9, 63, 0
1, 62886, Note_on_c, 9, 46, 0
1, 62886, Note_on_c, 9, 38, 0
1, 62890, Note_on_c, 0, 70, 0
1, 62890, Note_on_c, 0, 65, 0
1, 62890, Note_on_c, 0, 77, 0
1, 62890, Note_on_c, 0, 74, 0
1, 62894, Note_on_c, 1, 39, 0
1, 62903, Note_on_c, 1, 39, 80
1, 62904, Note_on_c, 9, 64, 75
1, 62910, Note_on_c, 9, 64, 0
1, 62925, Note_on_c, 0, 41, 0
1, 62927, Note_on_c, 1, 39, 0
1, 62928, Note_on_c, 1, 38, 84
1, 62928, Note_on_c, 9, 42, 52
1, 62928, Note_on_c, 9, 36, 39
1, 62928, Note_on_c, 9, 63, 68
1, 62929, Note_on_c, 0, 77, 88
1, 62929, Note_on_c, 0, 74, 100
1, 62929, Note_on_c, 0, 65, 97
1, 62929, Note_on_c, 0, 70, 99
1, 62934, Note_on_c, 9, 63, 0
1, 62934, Note_on_c, 9, 36, 0
1, 62934, Note_on_c, 9, 42, 0
1, 62941, Note_on_c, 0, 74, 0
1, 62942, Note_on_c, 0, 77, 0
1, 62942, Note_on_c, 0, 70, 0
1, 62946, Note_on_c, 0, 65, 0
1, 62950, Note_on_c, 1, 38, 0
1, 62952, Note_on_c, 9, 63, 72
1, 62952, Note_on_c, 1, 36, 87
1, 62958, Note_on_c, 9, 63, 0
1, 62974, Note_on_c, 1, 36, 0
1, 62976, Note_on_c, 9, 64, 85
1, 62976, Note_on_c, 9, 49, 62
1, 62976, Note_on_c, 1, 29, 99
1, 62976, Note_on_c, 9, 36, 78
1, 62977, Note_on_c, 0, 41, 92
1, 62977, Note_on_c, 0, 77, 85
1, 62977, Note_on_c, 0, 65, 100
1, 62977, Note_on_c, 0, 72, 102
1, 62977, Note_on_c, 0, 69, 100
1, 62982, Note_on_c, 9, 36, 0
1, 62982, Note_on_c, 9, 49, 0
1, 62982, Note_on_c, 9, 64, 0
1, 63000, Note_on_c, 9, 64, 66
1, 63006, Note_on_c, 9, 64, 0
1, 63022, Note_on_c, 1, 29, 0
1, 63024, Note_on_c, 9, 64, 71
1, 63024, Note_on_c, 9, 42, 60
1, 63024, Note_on_c, 9, 36, 73
1, 63026, Note_on_c, 0, 72, 0
1, 63026, Note_on_c, 0, 69, 0
1, 63026, Note_on_c, 0, 65, 0
1, 63030, Note_on_c, 9, 64, 0
1, 63030, Note_on_c, 0, 77, 0
1, 63030, Note_on_c, 9, 36, 0
1, 63030, Note_on_c, 9, 42, 0
1, 63032, Note_on_c, 0, 41, 0
1, 63047, Note_on_c, 0, 77, 82
1, 63047, Note_on_c, 0, 69, 99
1, 63047, Note_on_c, 1, 29, 91
1, 63047, Note_on_c, 0, 72, 100
1, 63047, Note_on_c, 0, 65, 87
1, 63048, Note_on_c, 9, 64, 65
1, 63054, Note_on_c, 9, 64, 0
1, 63055, Note_on_c, 1, 29, 0
1, 63058, Note_on_c, 0, 72, 0
1, 63058, Note_on_c, 0, 69, 0
1, 63059, Note_on_c, 0, 77, 0
1, 63059, Note_on_c, 0, 65, 0
1, 63071, Note_on_c, 0, 41, 89
1, 63071, Note_on_c, 1, 41, 103
1, 63072, Note_on_c, 9, 63, 94
1, 63072, Note_on_c, 9, 46, 59
1, 63072, Note_on_c, 9, 38, 106
1, 63078, Note_on_c, 9, 38, 0
1, 63078, Note_on_c, 9, 63, 0
1, 63078, Note_on_c, 9, 46, 0
1, 63096, Note_on_c, 1, 41, 0
1, 63096, Note_on_c, 0, 69, 98
1, 63096, Note_on_c, 0, 77, 87
1, 63096, Note_on_c, 9, 64, 57
1, 63097, Note_on_c, 0, 72, 97
1, 63097, Note_on_c, 0, 65, 83
1, 63097, Note_on_c, 1, 29, 90
1, 63102, Note_on_c, 9, 64, 0
1, 63103, Note_on_c, 1, 29, 0
1, 63106, Note_on_c, 0, 72, 0
1, 63107, Note_on_c, 0, 69, 0
1, 63110, Note_on_c, 0, 65, 0
1, 63111, Note_on_c, 0, 41, 0
1, 63111, Note_on_c, 0, 77, 0
1, 63120, Note_on_c, 9, 36, 66
1, 63120, Note_on_c, 9, 42, 50
1, 63120, Note_on_c, 9, 63, 58
1, 63126, Note_on_c, 9, 63, 0
1, 63126, Note_on_c, 9, 42, 0
1, 63126, Note_on_c, 9, 36, 0
1, 63144, Note_on_c, 1, 29, 87
1, 63144, Note_on_c, 9, 63, 71
1, 63144, Note_on_c, 9, 38, 99
1, 63150, Note_on_c, 9, 38, 0
1, 63150, Note_on_c, 9, 63, 0
1, 63150, Note_on_c, 1, 29, 0
1, 63167, Note_on_c, 0, 77, 90
1, 63167, Note_on_c, 0, 68, 105
1, 63167, Note_on_c, 0, 65, 86
1, 63167, Note_on_c, 0, 72, 104
1, 63167, Note_on_c, 0, 41, 100
1, 63168, Note_on_c, 9, 36, 45
1, 63168, Note_on_c, 9, 42, 58
1, 63168, Note_on_c, 9, 64, 93
1, 63169, Note_on_c, 0, 69, 67
1, 63174, Note_on_c, 9, 64, 0
1, 63174, Note_on_c, 9, 42, 0
1, 63174, Note_on_c, 9, 36, 0
1, 63176, Note_on_c, 0, 68, 0
1, 63191, Note_on_c, 1, 29, 93
1, 63192, Note_on_c, 9, 64, 74
1, 63198, Note_on_c, 9, 64, 0
1, 63199, Note_on_c, 1, 29, 0
1, 63212, Note_on_c, 0, 69, 0
1, 63215, Note_on_c, 1, 41, 100
1, 63216, Note_on_c, 0, 41, 0
1, 63216, Note_on_c, 9, 42, 70
1, 63216, Note_on_c, 9, 36, 70
1, 63216, Note_on_c, 9, 64, 74
1, 63218, Note_on_c, 0, 72, 0
1, 63218, Note_on_c, 0, 65, 0
1, 63218, Note_on_c, 0, 77, 0
1, 63222, Note_on_c, 9, 42, 0
1, 63222, Note_on_c, 9, 64, 0
1, 63222, Note_on_c, 9, 36, 0
1, 63232, Note_on_c, 1, 41, 0
1, 63239, Note_on_c, 1, 39, 71
1, 63239, Note_on_c, 0, 69, 104
1, 63239, Note_on_c, 0, 65, 92
1, 63239, Note_on_c, 0, 72, 100
1, 63239, Note_on_c, 0, 77, 87
1, 63240, Note_on_c, 9, 64, 72
1, 63246, Note_on_c, 9, 64, 0
1, 63252, Note_on_c, 0, 69, 0
1, 63252, Note_on_c, 1, 39, 0
1, 63252, Note_on_c, 0, 72, 0
1, 63254, Note_on_c, 0, 65, 0
1, 63260, Note_on_c, 0, 77, 0
1, 63262, Note_on_c, 0, 41, 86
1, 63263, Note_on_c, 1, 39, 81
1, 63264, Note_on_c, 9, 63, 81
1, 63264, Note_on_c, 9, 46, 71
1, 63264, Note_on_c, 9, 38, 105
1, 63270, Note_on_c, 9, 38, 0
1, 63270, Note_on_c, 9, 63, 0
1, 63270, Note_on_c, 9, 46, 0
1, 63286, Note_on_c, 1, 39, 0
1, 63287, Note_on_c, 1, 38, 86
1, 63288, Note_on_c, 9, 45, 56
1, 63288, Note_on_c, 9, 64, 57
1, 63294, Note_on_c, 9, 64, 0
1, 63294, Note_on_c, 9, 45, 0
1, 63301, Note_on_c, 0, 41, 0
1, 63311, Note_on_c, 0, 72, 92
1, 63311, Note_on_c, 0, 77, 81
1, 63311, Note_on_c, 0, 65, 92
1, 63311, Note_on_c, 0, 69, 90
1, 63312, Note_on_c, 1, 38, 0
1, 63312, Note_on_c, 9, 42, 53
1, 63312, Note_on_c, 9, 63, 60
1, 63312, Note_on_c, 9, 45, 40
1, 63313, Note_on_c, 1, 36, 85
1, 63318, Note_on_c, 9, 45, 0
1, 63318, Note_on_c, 9, 63, 0
1, 63318, Note_on_c, 9, 42, 0
1, 63322, Note_on_c, 0, 69, 0
1, 63323, Note_on_c, 0, 72, 0
1, 63329, Note_on_c, 0, 65, 0
1, 63334, Note_on_c, 0, 77, 0
1, 63336, Note_on_c, 9, 45, 68
1, 63336, Note_on_c, 9, 63, 68
1, 63342, Note_on_c, 9, 63, 0
1, 63342, Note_on_c, 9, 45, 0
1, 63357, Note_on_c, 1, 36, 0
1, 63360, Note_on_c, 9, 42, 57
1, 63360, Note_on_c, 9, 64, 81
1, 63360, Note_on_c, 9, 38, 101
1, 63366, Note_on_c, 9, 38, 0
1, 63366, Note_on_c, 9, 64, 0
1, 63366, Note_on_c, 9, 42, 0
1, 63382, Note_on_c, 7, 63, 89
1, 63384, Note_on_c, 9, 63, 86
1, 63384, Note_on_c, 9, 55, 88
1, 63384, Note_on_c, 5, 63, 103
1, 63384, Note_on_c, 9, 36, 50
1, 63385, Note_on_c, 0, 77, 84
1, 63385, Note_on_c, 0, 67, 96
1, 63385, Note_on_c, 0, 75, 102
1, 63385, Note_on_c, 1, 39, 86
1, 63385, Note_on_c, 0, 70, 99
1, 63386, Note_on_c, 6, 51, 91
1, 63386, Note_on_c, 0, 39, 84
1, 63390, Note_on_c, 9, 36, 0
1, 63390, Note_on_c, 9, 55, 0
1, 63390, Note_on_c, 9, 63, 0
1, 63408, Note_on_c, 0, 77, 0
1, 63408, Note_on_c, 9, 64, 65
1, 63411, Note_on_c, 0, 67, 0
1, 63414, Note_on_c, 9, 64, 0
1, 63414, Note_on_c, 0, 75, 0
1, 63414, Note_on_c, 0, 70, 0
1, 63418, Note_on_c, 1, 39, 0
1, 63424, Note_on_c, 0, 39, 0
1, 63429, Note_on_c, 6, 51, 0
1, 63430, Note_on_c, 7, 63, 0
1, 63432, Note_on_c, 9, 64, 80
1, 63438, Note_on_c, 9, 64, 0
1, 63448, Note_on_c, 5, 63, 0
1, 63451, Note_on_c, 6, 50, 92
1, 63453, Note_on_c, 0, 38, 89
1, 63455, Note_on_c, 0, 65, 91
1, 63455, Note_on_c, 0, 77, 77
1, 63455, Note_on_c, 0, 70, 91
1, 63456, Note_on_c, 9, 55, 91
1, 63456, Note_on_c, 0, 74, 82
1, 63456, Note_on_c, 9, 36, 67
1, 63456, Note_on_c, 9, 63, 68
1, 63457, Note_on_c, 1, 38, 106
1, 63458, Note_on_c, 5, 62, 98
1, 63459, Note_on_c, 7, 62, 98
1, 63462, Note_on_c, 9, 63, 0
1, 63462, Note_on_c, 9, 36, 0
1, 63462, Note_on_c, 9, 55, 0
1, 63480, Note_on_c, 9, 64, 76
1, 63486, Note_on_c, 9, 64, 0
1, 63491, Note_on_c, 0, 70, 0
1, 63493, Note_on_c, 0, 74, 0
1, 63497, Note_on_c, 1, 38, 0
1, 63502, Note_on_c, 0, 65, 0
1, 63502, Note_on_c, 5, 62, 0
1, 63503, Note_on_c, 0, 38, 0
1, 63504, Note_on_c, 9, 64, 67
1, 63504, Note_on_c, 9, 36, 48
1, 63505, Note_on_c, 0, 77, 0
1, 63507, Note_on_c, 6, 50, 0
1, 63510, Note_on_c, 9, 64, 0
1, 63510, Note_on_c, 7, 62, 0
1, 63510, Note_on_c, 9, 36, 0
1, 63525, Note_on_c, 0, 36, 71
1, 63526, Note_on_c, 6, 48, 87
1, 63527, Note_on_c, 0, 72, 86
1, 63527, Note_on_c, 0, 69, 92
1, 63527, Note_on_c, 0, 65, 86
1, 63527, Note_on_c, 0, 77, 76
1, 63528, Note_on_c, 9, 63, 68
1, 63528, Note_on_c, 1, 36, 92
1, 63528, Note_on_c, 9, 38, 95
1, 63528, Note_on_c, 9, 55, 88
1, 63529, Note_on_c, 5, 60, 93
1, 63530, Note_on_c, 7, 60, 85
1, 63534, Note_on_c, 9, 55, 0
1, 63534, Note_on_c, 9, 38, 0
1, 63534, Note_on_c, 9, 63, 0
1, 63552, Note_on_c, 0, 36, 0
1, 63552, Note_on_c, 9, 64, 80
1, 63558, Note_on_c, 9, 64, 0
1, 63566, Note_on_c, 0, 65, 0
1, 63566, Note_on_c, 0, 69, 0
1, 63570, Note_on_c, 1, 36, 0
1, 63570, Note_on_c, 0, 72, 0
1, 63572, Note_on_c, 0, 77, 0
1, 63576, Note_on_c, 9, 64, 82
1, 63576, Note_on_c, 9, 38, 89
1, 63582, Note_on_c, 9, 38, 0
1, 63582, Note_on_c, 9, 64, 0
1, 63590, Note_on_c, 5, 60, 0
1, 63592, Note_on_c, 6, 48, 0
1, 63594, Note_on_c, 0, 34, 87
1, 63598, Note_on_c, 7, 60, 0
1, 63598, Note_on_c, 6, 46, 97
1, 63599, Note_on_c, 0, 77, 69
1, 63599, Note_on_c, 0, 65, 84
1, 63599, Note_on_c, 0, 70, 92
1, 63599, Note_on_c, 0, 74, 85
1, 63600, Note_on_c, 9, 63, 75
1, 63600, Note_on_c, 9, 55, 85
1, 63600, Note_on_c, 9, 36, 51
1, 63601, Note_on_c, 1, 34, 98
1, 63601, Note_on_c, 5, 58, 72
1, 63602, Note_on_c, 7, 58, 75
1, 63606, Note_on_c, 9, 36, 0
1, 63606, Note_on_c, 9, 55, 0
1, 63606, Note_on_c, 9, 63, 0
1, 63610, Note_on_c, 0, 74, 0
1, 63610, Note_on_c, 0, 65, 0
1, 63611, Note_on_c, 0, 70, 0
1, 63614, Note_on_c, 0, 77, 0
1, 63616, Note_on_c, 1, 34, 0
1, 63624, Note_on_c, 9, 64, 83
1, 63625, Note_on_c, 0, 34, 0
1, 63628, Note_on_c, 5, 58, 0
1, 63630, Note_on_c, 9, 64, 0
1, 63635, Note_on_c, 7, 58, 0
1, 63637, Note_on_c, 6, 46, 0
1, 63648, Note_on_c, 9, 63, 66
1, 63648, Note_on_c, 1, 33, 89
1, 63648, Note_on_c, 9, 38, 101
1, 63648, Note_on_c, 0, 72, 83
1, 63648, Note_on_c, 0, 77, 69
1, 63649, Note_on_c, 0, 65, 74
1, 63649, Note_on_c, 0, 69, 79
1, 63649, Note_on_c, 0, 33, 69
1, 63650, Note_on_c, 5, 57, 90
1, 63650, Note_on_c, 7, 57, 72
1, 63650, Note_on_c, 6, 45, 85
1, 63654, Note_on_c, 9, 38, 0
1, 63654, Note_on_c, 9, 63, 0
1, 63658, Note_on_c, 0, 69, 0
1, 63661, Note_on_c, 0, 72, 0
1, 63662, Note_on_c, 0, 77, 0
1, 63662, Note_on_c, 0, 65, 0
1, 63670, Note_on_c, 1, 33, 0
1, 63672, Note_on_c, 9, 63, 63
1, 63674, Note_on_c, 5, 57, 0
1, 63678, Note_on_c, 9, 63, 0
1, 63680, Note_on_c, 7, 57, 0
1, 63686, Note_on_c, 0, 33, 0
1, 63688, Note_on_c, 6, 45, 0
1, 63694, Note_on_c, 6, 46, 84
1, 63694, Note_on_c, 7, 58, 64
1, 63695, Note_on_c, 0, 70, 80
1, 63695, Note_on_c, 0, 77, 68
1, 63695, Note_on_c, 0, 74, 85
1, 63695, Note_on_c, 0, 34, 85
1, 63696, Note_on_c, 9, 38, 104
1, 63696, Note_on_c, 0, 65, 73
1, 63696, Note_on_c, 9, 63, 74
1, 63696, Note_on_c, 9, 55, 48
1, 63697, Note_on_c, 5, 58, 91
1, 63697, Note_on_c, 1, 34, 94
1, 63702, Note_on_c, 9, 55, 0
1, 63702, Note_on_c, 9, 63, 0
1, 63702, Note_on_c, 9, 38, 0
1, 63708, Note_on_c, 0, 65, 0
1, 63708, Note_on_c, 0, 74, 0
1, 63709, Note_on_c, 0, 70, 0
1, 63710, Note_on_c, 0, 77, 0
1, 63714, Note_on_c, 5, 58, 0
1, 63716, Note_on_c, 1, 34, 0
1, 63719, Note_on_c, 0, 34, 0
1, 63720, Note_on_c, 7, 58, 0
1, 63720, Note_on_c, 9, 63, 67
1, 63726, Note_on_c, 9, 63, 0
1, 63734, Note_on_c, 6, 46, 0
1, 63744, Note_on_c, 9, 36, 59
1, 63744, Note_on_c, 5, 65, 83
1, 63744, Note_on_c, 0, 68, 80
1, 63744, Note_on_c, 7, 65, 73
1, 63744, Note_on_c, 9, 49, 46
1, 63744, Note_on_c, 9, 64, 69
1, 63745, Note_on_c, 0, 77, 58
1, 63745, Note_on_c, 1, 29, 87
1, 63745, Note_on_c, 0, 65, 66
1, 63745, Note_on_c, 0, 72, 70
1, 63746, Note_on_c, 6, 41, 101
1, 63746, Note_on_c, 0, 41, 84
1, 63750, Note_on_c, 9, 64, 0
1, 63750, Note_on_c, 9, 36, 0
1, 63750, Note_on_c, 9, 49, 0
1, 63759, Note_on_c, 0, 68, 0
1, 63767, Note_on_c, 0, 69, 40
1, 63768, Note_on_c, 9, 64, 54
1, 63774, Note_on_c, 9, 64, 0
1, 63783, Note_on_c, 0, 65, 0
1, 63786, Note_on_c, 0, 72, 0
1, 63786, Note_on_c, 0, 41, 0
1, 63789, Note_on_c, 0, 77, 0
1, 63790, Note_on_c, 0, 69, 0
1, 63792, Note_on_c, 9, 64, 57
1, 63792, Note_on_c, 9, 42, 43
1, 63792, Note_on_c, 9, 36, 54
1, 63793, Note_on_c, 1, 29, 0
1, 63798, Note_on_c, 9, 42, 0
1, 63798, Note_on_c, 9, 64, 0
1, 63798, Note_on_c, 9, 36, 0
1, 63815, Note_on_c, 0, 69, 82
1, 63815, Note_on_c, 0, 65, 74
1, 63815, Note_on_c, 0, 77, 72
1, 63816, Note_on_c, 9, 64, 52
1, 63817, Note_on_c, 0, 72, 79
1, 63817, Note_on_c, 1, 29, 87
1, 63822, Note_on_c, 9, 64, 0
1, 63826, Note_on_c, 0, 72, 0
1, 63826, Note_on_c, 0, 69, 0
1, 63827, Note_on_c, 0, 65, 0
1, 63828, Note_on_c, 0, 77, 0
1, 63838, Note_on_c, 1, 29, 0
1, 63840, Note_on_c, 9, 46, 42
1, 63840, Note_on_c, 9, 63, 75
1, 63840, Note_on_c, 0, 41, 81
1, 63840, Note_on_c, 9, 38, 96
1, 63841, Note_on_c, 1, 41, 82
1, 63846, Note_on_c, 9, 38, 0
1, 63846, Note_on_c, 9, 46, 0
1, 63846, Note_on_c, 9, 63, 0
1, 63864, Note_on_c, 1, 41, 0
1, 63864, Note_on_c, 0, 72, 84
1, 63864, Note_on_c, 0, 65, 81
1, 63864, Note_on_c, 0, 69, 87
1, 63864, Note_on_c, 0, 77, 70
1, 63864, Note_on_c, 9, 64, 46
1, 63865, Note_on_c, 1, 39, 66
1, 63870, Note_on_c, 9, 64, 0
1, 63875, Note_on_c, 0, 69, 0
1, 63875, Note_on_c, 0, 65, 0
1, 63875, Note_on_c, 0, 72, 0
1, 63879, Note_on_c, 1, 39, 0
1, 63885, Note_on_c, 0, 41, 0
1, 63888, Note_on_c, 9, 63, 47
1, 63888, Note_on_c, 9, 42, 35
1, 63888, Note_on_c, 9, 36, 48
1, 63894, Note_on_c, 9, 36, 0
1, 63894, Note_on_c, 9, 63, 0
1, 63894, Note_on_c, 0, 77, 0
1, 63894, Note_on_c, 9, 42, 0
1, 63911, Note_on_c, 0, 65, 55
1, 63912, Note_on_c, 9, 38, 90
1, 63912, Note_on_c, 9, 63, 57
1, 63913, Note_on_c, 1, 39, 73
1, 63918, Note_on_c, 9, 63, 0
1, 63918, Note_on_c, 0, 65, 0
1, 63918, Note_on_c, 9, 38, 0
1, 63922, Note_on_c, 1, 39, 0
1, 63935, Note_on_c, 0, 65, 75
1, 63935, Note_on_c, 0, 72, 82
1, 63935, Note_on_c, 0, 77, 66
1, 63935, Note_on_c, 0, 68, 78
1, 63936, Note_on_c, 9, 42, 41
1, 63936, Note_on_c, 9, 36, 31
1, 63936, Note_on_c, 9, 64, 74
1, 63936, Note_on_c, 0, 41, 74
1, 63942, Note_on_c, 9, 64, 0
1, 63942, Note_on_c, 9, 36, 0
1, 63942, Note_on_c, 9, 42, 0
1, 63952, Note_on_c, 0, 77, 0
1, 63952, Note_on_c, 0, 72, 0
1, 63956, Note_on_c, 0, 68, 0
1, 63960, Note_on_c, 0, 72, 50
1, 63960, Note_on_c, 0, 77, 37
1, 63960, Note_on_c, 0, 69, 62
1, 63960, Note_on_c, 9, 64, 59
1, 63961, Note_on_c, 1, 29, 66
1, 63966, Note_on_c, 9, 64, 0
1, 63972, Note_on_c, 1, 29, 0
1, 63973, Note_on_c, 0, 72, 0
1, 63974, Note_on_c, 0, 69, 0
1, 63974, Note_on_c, 0, 65, 0
1, 63974, Note_on_c, 0, 77, 0
1, 63983, Note_on_c, 1, 41, 76
1, 63984, Note_on_c, 9, 36, 50
1, 63984, Note_on_c, 9, 42, 50
1, 63984, Note_on_c, 9, 64, 59
1, 63990, Note_on_c, 9, 64, 0
1, 63990, Note_on_c, 9, 42, 0
1, 63990, Note_on_c, 9, 36, 0
1, 63994, Note_on_c, 0, 41, 0
1, 64006, Note_on_c, 1, 41, 0
1, 64007, Note_on_c, 1, 39, 74
1, 64008, Note_on_c, 9, 64, 58
1, 64009, Note_on_c, 0, 72, 80
1, 64009, Note_on_c, 0, 65, 71
1, 64009, Note_on_c, 0, 69, 77
1, 64009, Note_on_c, 0, 77, 69
1, 64014, Note_on_c, 9, 64, 0
1, 64019, Note_on_c, 0, 69, 0
1, 64019, Note_on_c, 0, 72, 0
1, 64021, Note_on_c, 0, 77, 0
1, 64023, Note_on_c, 0, 65, 0
1, 64032, Note_on_c, 1, 39, 0
1, 64032, Note_on_c, 9, 63, 64
1, 64032, Note_on_c, 0, 41, 78
1, 64032, Note_on_c, 9, 46, 51
1, 64032, Note_on_c, 9, 38, 94
1, 64033, Note_on_c, 1, 38, 76
1, 64038, Note_on_c, 9, 38, 0
1, 64038, Note_on_c, 9, 46, 0
1, 64038, Note_on_c, 9, 63, 0
1, 64056, Note_on_c, 9, 45, 39
1, 64056, Note_on_c, 9, 64, 46
1, 64057, Note_on_c, 0, 65, 83
1, 64057, Note_on_c, 0, 72, 80
1, 64057, Note_on_c, 0, 77, 64
1, 64057, Note_on_c, 0, 69, 73
1, 64062, Note_on_c, 9, 64, 0
1, 64062, Note_on_c, 9, 45, 0
1, 64077, Note_on_c, 0, 41, 0
1, 64077, Note_on_c, 1, 38, 0
1, 64080, Note_on_c, 9, 63, 48
1, 64080, Note_on_c, 9, 45, 26
1, 64080, Note_on_c, 9, 42, 37
1, 64081, Note_on_c, 0, 65, 0
1, 64081, Note_on_c, 1, 36, 69
1, 64086, Note_on_c, 9, 42, 0
1, 64086, Note_on_c, 9, 63, 0
1, 64086, Note_on_c, 9, 45, 0
1, 64087, Note_on_c, 0, 72, 0
1, 64092, Note_on_c, 0, 77, 0
1, 64093, Note_on_c, 5, 65, 0
1, 64097, Note_on_c, 0, 69, 0
1, 64104, Note_on_c, 9, 45, 48
1, 64104, Note_on_c, 9, 63, 54
1, 64106, Note_on_c, 0, 65, 34
1, 64110, Note_on_c, 0, 65, 0
1, 64110, Note_on_c, 9, 45, 0
1, 64110, Note_on_c, 7, 65, 0
1, 64110, Note_on_c, 9, 63, 0
1, 64125, Note_on_c, 6, 41, 0
1, 64126, Note_on_c, 1, 36, 0
1, 64128, Note_on_c, 9, 38, 91
1, 64128, Note_on_c, 9, 42, 39
1, 64128, Note_on_c, 9, 64, 64
1, 64129, Note_on_c, 1, 29, 78
1, 64134, Note_on_c, 9, 64, 0
1, 64134, Note_on_c, 9, 38, 0
1, 64134, Note_on_c, 9, 42, 0
1, 64142, Note_on_c, 1, 29, 0
1, 64149, Note_on_c, 6, 51, 79
1, 64151, Note_on_c, 1, 39, 70
1, 64152, Note_on_c, 7, 63, 69
1, 64152, Note_on_c, 9, 36, 34
1, 64152, Note_on_c, 9, 63, 68
1, 64152, Note_on_c, 0, 39, 72
1, 64152, Note_on_c, 9, 55, 63
1, 64153, Note_on_c, 0, 70, 68
1, 64153, Note_on_c, 0, 67, 75
1, 64153, Note_on_c, 5, 58, 65
1, 64153, Note_on_c, 0, 77, 52
1, 64153, Note_on_c, 0, 75, 56
1, 64158, Note_on_c, 9, 55, 0
1, 64158, Note_on_c, 9, 36, 0
1, 64158, Note_on_c, 9, 63, 0
1, 64176, Note_on_c, 9, 64, 51
1, 64181, Note_on_c, 7, 63, 0
1, 64181, Note_on_c, 0, 75, 0
1, 64182, Note_on_c, 9, 64, 0
1, 64182, Note_on_c, 0, 77, 0
1, 64184, Note_on_c, 0, 67, 0
1, 64187, Note_on_c, 6, 51, 0
1, 64188, Note_on_c, 0, 70, 0
1, 64197, Note_on_c, 5, 58, 0
1, 64199, Note_on_c, 0, 39, 0
1, 64200, Note_on_c, 9, 64, 63
1, 64206, Note_on_c, 9, 64, 0
1, 64216, Note_on_c, 1, 39, 0
1, 64220, Note_on_c, 0, 38, 65
1, 64221, Note_on_c, 6, 50, 72
1, 64222, Note_on_c, 0, 70, 70
1, 64222, Note_on_c, 0, 74, 71
1, 64222, Note_on_c, 0, 65, 71
1, 64222, Note_on_c, 0, 77, 64
1, 64223, Note_on_c, 5, 58, 77
1, 64224, Note_on_c, 9, 55, 65
1, 64224, Note_on_c, 9, 36, 47
1, 64224, Note_on_c, 9, 63, 53
1, 64225, Note_on_c, 1, 38, 85
1, 64226, Note_on_c, 7, 62, 69
1, 64230, Note_on_c, 9, 63, 0
1, 64230, Note_on_c, 9, 36, 0
1, 64230, Note_on_c, 9, 55, 0
1, 64248, Note_on_c, 9, 64, 59
1, 64251, Note_on_c, 0, 74, 0
1, 64251, Note_on_c, 7, 62, 0
1, 64254, Note_on_c, 9, 64, 0
1, 64256, Note_on_c, 0, 70, 0
1, 64257, Note_on_c, 0, 65, 0
1, 64258, Note_on_c, 0, 77, 0
1, 64272, Note_on_c, 9, 64, 52
1, 64272, Note_on_c, 9, 36, 32
1, 64275, Note_on_c, 0, 38, 0
1, 64278, Note_on_c, 9, 64, 0
1, 64278, Note_on_c, 9, 36, 0
1, 64282, Note_on_c, 6, 50, 0
1, 64285, Note_on_c, 1, 38, 0
1, 64288, Note_on_c, 0, 36, 57
1, 64289, Note_on_c, 5, 58, 0
1, 64293, Note_on_c, 6, 48, 69
1, 64293, Note_on_c, 7, 60, 67
1, 64294, Note_on_c, 0, 65, 65
1, 64294, Note_on_c, 0, 69, 70
1, 64294, Note_on_c, 0, 77, 58
1, 64294, Note_on_c, 0, 72, 67
1, 64294, Note_on_c, 5, 57, 66
1, 64295, Note_on_c, 1, 36, 77
1, 64296, Note_on_c, 9, 38, 85
1, 64296, Note_on_c, 9, 63, 53
1, 64296, Note_on_c, 9, 55, 63
1, 64302, Note_on_c, 9, 55, 0
1, 64302, Note_on_c, 9, 38, 0
1, 64302, Note_on_c, 9, 63, 0
1, 64320, Note_on_c, 9, 64, 62
1, 64326, Note_on_c, 9, 64, 0
1, 64330, Note_on_c, 0, 69, 0
1, 64334, Note_on_c, 7, 60, 0
1, 64334, Note_on_c, 0, 65, 0
1, 64338, Note_on_c, 0, 77, 0
1, 64338, Note_on_c, 0, 72, 0
1, 64344, Note_on_c, 9, 38, 81
1, 64344, Note_on_c, 9, 64, 64
1, 64350, Note_on_c, 9, 64, 0
1, 64350, Note_on_c, 9, 38, 0
1, 64355, Note_on_c, 5, 57, 0
1, 64362, Note_on_c, 1, 36, 0
1, 64363, Note_on_c, 7, 58, 54
1, 64366, Note_on_c, 0, 36, 0
1, 64366, Note_on_c, 6, 48, 0
1, 64366, Note_on_c, 0, 77, 54
1, 64366, Note_on_c, 0, 70, 66
1, 64366, Note_on_c, 0, 74, 65
1, 64366, Note_on_c, 0, 34, 53
1, 64366, Note_on_c, 0, 65, 61
1, 64367, Note_on_c, 1, 34, 64
1, 64368, Note_on_c, 9, 36, 34
1, 64368, Note_on_c, 9, 55, 60
1, 64368, Note_on_c, 6, 46, 64
1, 64368, Note_on_c, 9, 63, 58
1, 64369, Note_on_c, 5, 58, 74
1, 64374, Note_on_c, 9, 63, 0
1, 64374, Note_on_c, 9, 55, 0
1, 64374, Note_on_c, 9, 36, 0
1, 64377, Note_on_c, 0, 65, 0
1, 64378, Note_on_c, 0, 74, 0
1, 64379, Note_on_c, 0, 77, 0
1, 64381, Note_on_c, 0, 70, 0
1, 64392, Note_on_c, 5, 58, 0
1, 64392, Note_on_c, 9, 64, 64
1, 64398, Note_on_c, 9, 64, 0
1, 64398, Note_on_c, 7, 58, 0
1, 64413, Note_on_c, 1, 34, 0
1, 64414, Note_on_c, 0, 34, 0
1, 64414, Note_on_c, 0, 33, 51
1, 64415, Note_on_c, 1, 33, 70
1, 64415, Note_on_c, 0, 65, 43
1, 64415, Note_on_c, 0, 69, 56
1, 64415, Note_on_c, 0, 72, 55
1, 64415, Note_on_c, 0, 77, 50
1, 64416, Note_on_c, 7, 57, 60
1, 64416, Note_on_c, 5, 60, 67
1, 64416, Note_on_c, 9, 63, 51
1, 64416, Note_on_c, 9, 38, 90
1, 64416, Note_on_c, 6, 45, 63
1, 64419, Note_on_c, 6, 46, 0
1, 64422, Note_on_c, 9, 38, 0
1, 64422, Note_on_c, 9, 63, 0
1, 64430, Note_on_c, 0, 69, 0
1, 64433, Note_on_c, 0, 72, 0
1, 64434, Note_on_c, 0, 65, 0
1, 64435, Note_on_c, 5, 60, 0
1, 64435, Note_on_c, 0, 77, 0
1, 64440, Note_on_c, 9, 63, 49
1, 64446, Note_on_c, 9, 63, 0
1, 64446, Note_on_c, 1, 33, 0
1, 64455, Note_on_c, 0, 33, 0
1, 64461, Note_on_c, 6, 45, 0
1, 64461, Note_on_c, 7, 57, 0
1, 64461, Note_on_c, 0, 34, 42
1, 64462, Note_on_c, 6, 46, 67
1, 64462, Note_on_c, 5, 62, 74
1, 64463, Note_on_c, 0, 77, 46
1, 64463, Note_on_c, 0, 65, 54
1, 64463, Note_on_c, 0, 70, 59
1, 64463, Note_on_c, 0, 74, 61
1, 64464, Note_on_c, 9, 63, 57
1, 64464, Note_on_c, 9, 38, 92
1, 64464, Note_on_c, 9, 55, 31
1, 64464, Note_on_c, 1, 34, 72
1, 64466, Note_on_c, 7, 58, 56
1, 64470, Note_on_c, 9, 55, 0
1, 64470, Note_on_c, 9, 38, 0
1, 64470, Note_on_c, 9, 63, 0
1, 64474, Note_on_c, 0, 65, 0
1, 64478, Note_on_c, 0, 74, 0
1, 64480, Note_on_c, 0, 77, 0
1, 64480, Note_on_c, 5, 62, 0
1, 64480, Note_on_c, 0, 70, 0
1, 64488, Note_on_c, 9, 63, 52
1, 64494, Note_on_c, 9, 63, 0
1, 64500, Note_on_c, 1, 34, 0
1, 64506, Note_on_c, 6, 46, 0
1, 64508, Note_on_c, 0, 34, 0
1, 64512, Note_on_c, 7, 58, 0
1, 64512, Note_on_c, 0, 65, 53
1, 64512, Note_on_c, 0, 77, 56
1, 64512, Note_on_c, 9, 49, 29
1, 64512, Note_on_c, 0, 72, 63
1, 64512, Note_on_c, 1, 29, 67
1, 64512, Note_on_c, 7, 53, 64
1, 64512, Note_on_c, 9, 36, 39
1, 64512, Note_on_c, 6, 41, 70
1, 64512, Note_on_c, 0, 41, 73
1, 64512, Note_on_c, 0, 68, 65
1, 64512, Note_on_c, 5, 60, 82
1, 64512, Note_on_c, 9, 64, 53
1, 64518, Note_on_c, 9, 64, 0
1, 64518, Note_on_c, 9, 36, 0
1, 64518, Note_on_c, 9, 49, 0
1, 64536, Note_on_c, 9, 64, 41
1, 64538, Note_on_c, 0, 68, 0
1, 64542, Note_on_c, 9, 64, 0
1, 64552, Note_on_c, 0, 72, 0
1, 64552, Note_on_c, 0, 77, 0
1, 64553, Note_on_c, 0, 65, 0
1, 64560, Note_on_c, 0, 41, 0
1, 64560, Note_on_c, 0, 69, 54
1, 64560, Note_on_c, 9, 64, 44
1, 64560, Note_on_c, 9, 36, 35
1, 64560, Note_on_c, 9, 42, 27
1, 64565, Note_on_c, 1, 29, 0
1, 64566, Note_on_c, 9, 42, 0
1, 64566, Note_on_c, 9, 64, 0
1, 64566, Note_on_c, 9, 36, 0
1, 64572, Note_on_c, 0, 69, 0
1, 64583, Note_on_c, 0, 77, 45
1, 64584, Note_on_c, 9, 64, 40
1, 64585, Note_on_c, 1, 29, 65
1, 64585, Note_on_c, 0, 72, 50
1, 64585, Note_on_c, 0, 71, 31
1, 64585, Note_on_c, 0, 69, 50
1, 64585, Note_on_c, 0, 65, 41
1, 64587, Note_on_c, 0, 71, 0
1, 64590, Note_on_c, 9, 64, 0
1, 64594, Note_on_c, 0, 72, 0
1, 64596, Note_on_c, 0, 69, 0
1, 64598, Note_on_c, 0, 77, 0
1, 64600, Note_on_c, 1, 29, 0
1, 64602, Note_on_c, 0, 65, 0
1, 64606, Note_on_c, 0, 41, 59
1, 64608, Note_on_c, 9, 38, 85
1, 64608, Note_on_c, 9, 63, 57
1, 64608, Note_on_c, 9, 46, 26
1, 64609, Note_on_c, 1, 41, 76
1, 64614, Note_on_c, 9, 46, 0
1, 64614, Note_on_c, 9, 63, 0
1, 64614, Note_on_c, 9, 38, 0
1, 64632, Note_on_c, 1, 41, 0
1, 64632, Note_on_c, 0, 72, 65
1, 64632, Note_on_c, 0, 77, 58
1, 64632, Note_on_c, 9, 64, 35
1, 64632, Note_on_c, 0, 69, 66
1, 64632, Note_on_c, 0, 65, 60
1, 64633, Note_on_c, 1, 29, 52
1, 64638, Note_on_c, 9, 64, 0
1, 64640, Note_on_c, 1, 29, 0
1, 64645, Note_on_c, 0, 41, 0
1, 64646, Note_on_c, 0, 65, 0
1, 64656, Note_on_c, 9, 42, 20
1, 64656, Note_on_c, 9, 63, 36
1, 64656, Note_on_c, 9, 36, 30
1, 64662, Note_on_c, 9, 36, 0
1, 64662, Note_on_c, 9, 63, 0
1, 64662, Note_on_c, 9, 42, 0
1, 64662, Note_on_c, 0, 72, 0
1, 64662, Note_on_c, 0, 69, 0
1, 64670, Note_on_c, 0, 77, 0
1, 64679, Note_on_c, 1, 39, 72
1, 64679, Note_on_c, 0, 65, 39
1, 64680, Note_on_c, 9, 38, 80
1, 64680, Note_on_c, 9, 63, 43
1, 64686, Note_on_c, 9, 63, 0
1, 64686, Note_on_c, 9, 38, 0
1, 64687, Note_on_c, 1, 39, 0
1, 64687, Note_on_c, 0, 65, 0
1, 64701, Note_on_c, 0, 41, 62
1, 64704, Note_on_c, 0, 65, 52
1, 64704, Note_on_c, 9, 36, 17
1, 64704, Note_on_c, 9, 42, 25
1, 64704, Note_on_c, 9, 64, 56
1, 64704, Note_on_c, 0, 68, 61
1, 64705, Note_on_c, 0, 77, 58
1, 64705, Note_on_c, 0, 72, 53
1, 64707, Note_on_c, 0, 72, 0
1, 64710, Note_on_c, 9, 64, 0
1, 64710, Note_on_c, 9, 42, 0
1, 64710, Note_on_c, 9, 36, 0
1, 64724, Note_on_c, 0, 65, 0
1, 64728, Note_on_c, 1, 29, 63
1, 64728, Note_on_c, 9, 64, 44
1, 64728, Note_on_c, 0, 65, 38
1, 64729, Note_on_c, 0, 72, 46
1, 64729, Note_on_c, 0, 69, 56
1, 64732, Note_on_c, 0, 68, 0
1, 64734, Note_on_c, 9, 64, 0
1, 64734, Note_on_c, 1, 29, 0
1, 64743, Note_on_c, 0, 65, 0
1, 64744, Note_on_c, 0, 72, 0
1, 64744, Note_on_c, 0, 69, 0
1, 64751, Note_on_c, 0, 77, 0
1, 64752, Note_on_c, 9, 42, 31
1, 64752, Note_on_c, 9, 36, 31
1, 64752, Note_on_c, 9, 64, 44
1, 64753, Note_on_c, 1, 41, 71
1, 64758, Note_on_c, 9, 64, 0
1, 64758, Note_on_c, 0, 41, 0
1, 64758, Note_on_c, 9, 42, 0
1, 64758, Note_on_c, 9, 36, 0
1, 64770, Note_on_c, 1, 41, 0
1, 64775, Note_on_c, 1, 39, 64
1, 64775, Note_on_c, 0, 65, 35
1, 64775, Note_on_c, 0, 69, 42
1, 64775, Note_on_c, 0, 77, 41
1, 64775, Note_on_c, 0, 72, 46
1, 64776, Note_on_c, 9, 64, 43
1, 64782, Note_on_c, 9, 64, 0
1, 64784, Note_on_c, 1, 39, 0
1, 64788, Note_on_c, 0, 72, 0
1, 64788, Note_on_c, 0, 69, 0
1, 64788, Note_on_c, 0, 77, 0
1, 64789, Note_on_c, 0, 65, 0
1, 64797, Note_on_c, 0, 41, 56
1, 64800, Note_on_c, 9, 38, 84
1, 64800, Note_on_c, 1, 39, 67
1, 64800, Note_on_c, 9, 46, 31
1, 64800, Note_on_c, 9, 63, 48
1, 64806, Note_on_c, 9, 63, 0
1, 64806, Note_on_c, 9, 46, 0
1, 64806, Note_on_c, 9, 38, 0
1, 64822, Note_on_c, 1, 39, 0
1, 64824, Note_on_c, 9, 45, 22
1, 64824, Note_on_c, 9, 64, 34
1, 64824, Note_on_c, 1, 38, 60
1, 64830, Note_on_c, 9, 64, 0
1, 64830, Note_on_c, 9, 45, 0
1, 64846, Note_on_c, 1, 38, 0
1, 64846, Note_on_c, 0, 69, 64
1, 64846, Note_on_c, 0, 77, 52
1, 64847, Note_on_c, 0, 72, 64
1, 64847, Note_on_c, 0, 65, 60
1, 64848, Note_on_c, 0, 41, 0
1, 64848, Note_on_c, 9, 45, 17
1, 64848, Note_on_c, 9, 63, 36
1, 64848, Note_on_c, 9, 42, 20
1, 64849, Note_on_c, 1, 36, 60
1, 64850, Note_on_c, 5, 60, 0
1, 64854, Note_on_c, 9, 42, 0
1, 64854, Note_on_c, 9, 45, 0
1, 64854, Note_on_c, 9, 63, 0
1, 64871, Note_on_c, 0, 65, 0
1, 64872, Note_on_c, 9, 63, 40
1, 64872, Note_on_c, 9, 45, 28
1, 64874, Note_on_c, 0, 69, 0
1, 64874, Note_on_c, 0, 72, 0
1, 64876, Note_on_c, 0, 77, 0
1, 64878, Note_on_c, 9, 45, 0
1, 64878, Note_on_c, 9, 63, 0
1, 64885, Note_on_c, 7, 53, 0
1, 64892, Note_on_c, 1, 36, 0
1, 64896, Note_on_c, 9, 38, 81
1, 64896, Note_on_c, 9, 64, 47
1, 64896, Note_on_c, 9, 42, 22
1, 64902, Note_on_c, 9, 42, 0
1, 64902, Note_on_c, 9, 64, 0
1, 64902, Note_on_c, 9, 38, 0
1, 64912, Note_on_c, 6, 41, 0
1, 64918, Note_on_c, 6, 51, 63
1, 64919, Note_on_c, 0, 67, 53
1, 64919, Note_on_c, 0, 77, 42
1, 64919, Note_on_c, 0, 70, 56
1, 64919, Note_on_c, 0, 75, 47
1, 64920, Note_on_c, 9, 55, 39
1, 64920, Note_on_c, 8, 55, 40
1, 64920, Note_on_c, 8, 58, 40
1, 64920, Note_on_c, 0, 73, 33
1, 64920, Note_on_c, 9, 63, 50
1, 64920, Note_on_c, 8, 63, 40
1, 64920, Note_on_c, 9, 36, 18
1, 64921, Note_on_c, 1, 39, 68
1, 64922, Note_on_c, 0, 73, 0
1, 64922, Note_on_c, 5, 58, 58
1, 64923, Note_on_c, 7, 63, 54
1, 64926, Note_on_c, 9, 63, 0
1, 64926, Note_on_c, 9, 55, 0
1, 64926, Note_on_c, 9, 36, 0
1, 64944, Note_on_c, 9, 64, 38
1, 64949, Note_on_c, 0, 67, 0
1, 64949, Note_on_c, 0, 75, 0
1, 64949, Note_on_c, 7, 63, 0
1, 64950, Note_on_c, 9, 64, 0
1, 64951, Note_on_c, 0, 70, 0
1, 64952, Note_on_c, 5, 58, 0
1, 64955, Note_on_c, 0, 77, 0
1, 64965, Note_on_c, 6, 51, 0
1, 64967, Note_on_c, 1, 39, 0
1, 64968, Note_on_c, 9, 64, 46
1, 64974, Note_on_c, 9, 64, 0
1, 64988, Note_on_c, 0, 73, 34
1, 64990, Note_on_c, 6, 50, 56
1, 64991, Note_on_c, 8, 63, 0
1, 64991, Note_on_c, 8, 55, 0
1, 64991, Note_on_c, 0, 77, 44
1, 64991, Note_on_c, 0, 70, 54
1, 64992, Note_on_c, 0, 74, 50
1, 64992, Note_on_c, 8, 53, 39
1, 64992, Note_on_c, 8, 62, 39
1, 64992, Note_on_c, 9, 36, 27
1, 64992, Note_on_c, 9, 63, 39
1, 64992, Note_on_c, 9, 55, 40
1, 64993, Note_on_c, 5, 65, 55
1, 64994, Note_on_c, 1, 38, 65
1, 64995, Note_on_c, 7, 62, 54
1, 64998, Note_on_c, 9, 55, 0
1, 64998, Note_on_c, 9, 63, 0
1, 64998, Note_on_c, 9, 36, 0
1, 65000, Note_on_c, 0, 73, 0
1, 65016, Note_on_c, 9, 64, 43
1, 65022, Note_on_c, 9, 64, 0
1, 65022, Note_on_c, 0, 74, 0
1, 65026, Note_on_c, 0, 70, 0
1, 65038, Note_on_c, 0, 77, 0
1, 65040, Note_on_c, 9, 64, 38
1, 65040, Note_on_c, 9, 36, 17
1, 65042, Note_on_c, 5, 65, 0
1, 65042, Note_on_c, 7, 62, 0
1, 65046, Note_on_c, 9, 36, 0
1, 65046, Note_on_c, 9, 64, 0
1, 65055, Note_on_c, 1, 38, 0
1, 65056, Note_on_c, 6, 50, 0
1, 65062, Note_on_c, 6, 48, 51
1, 65063, Note_on_c, 8, 58, 0
1, 65063, Note_on_c, 8, 62, 0
1, 65063, Note_on_c, 0, 77, 39
1, 65063, Note_on_c, 0, 69, 46
1, 65063, Note_on_c, 0, 72, 47
1, 65064, Note_on_c, 1, 36, 59
1, 65064, Note_on_c, 9, 55, 37
1, 65064, Note_on_c, 7, 60, 49
1, 65064, Note_on_c, 8, 57, 37
1, 65064, Note_on_c, 9, 38, 76
1, 65064, Note_on_c, 9, 63, 38
1, 65064, Note_on_c, 8, 60, 37
1, 65066, Note_on_c, 5, 60, 59
1, 65070, Note_on_c, 9, 63, 0
1, 65070, Note_on_c, 9, 38, 0
1, 65070, Note_on_c, 9, 55, 0
1, 65088, Note_on_c, 9, 64, 44
1, 65094, Note_on_c, 9, 64, 0
1, 65101, Note_on_c, 0, 69, 0
1, 65108, Note_on_c, 0, 77, 0
1, 65110, Note_on_c, 0, 72, 0
1, 65112, Note_on_c, 9, 38, 73
1, 65112, Note_on_c, 9, 64, 45
1, 65118, Note_on_c, 9, 64, 0
1, 65118, Note_on_c, 9, 38, 0
1, 65131, Note_on_c, 5, 60, 0
1, 65131, Note_on_c, 6, 48, 0
1, 65133, Note_on_c, 7, 60, 0
1, 65133, Note_on_c, 6, 46, 47
1, 65134, Note_on_c, 1, 36, 0
1, 65135, Note_on_c, 8, 57, 0
1, 65135, Note_on_c, 8, 60, 0
1, 65135, Note_on_c, 0, 70, 49
1, 65135, Note_on_c, 0, 77, 37
1, 65135, Note_on_c, 0, 74, 38
1, 65136, Note_on_c, 9, 63, 41
1, 65136, Note_on_c, 9, 55, 35
1, 65136, Note_on_c, 8, 55, 35
1, 65136, Note_on_c, 7, 58, 42
1, 65136, Note_on_c, 1, 34, 53
1, 65136, Note_on_c, 9, 36, 17
1, 65136, Note_on_c, 8, 58, 35
1, 65138, Note_on_c, 5, 58, 50
1, 65142, Note_on_c, 9, 36, 0
1, 65142, Note_on_c, 9, 55, 0
1, 65142, Note_on_c, 9, 63, 0
1, 65146, Note_on_c, 0, 70, 0
1, 65146, Note_on_c, 0, 74, 0
1, 65154, Note_on_c, 0, 77, 0
1, 65160, Note_on_c, 9, 64, 45
1, 65166, Note_on_c, 9, 64, 0
1, 65169, Note_on_c, 5, 58, 0
1, 65170, Note_on_c, 1, 34, 0
1, 65179, Note_on_c, 7, 58, 0
1, 65183, Note_on_c, 8, 55, 0
1, 65183, Note_on_c, 8, 58, 0
1, 65183, Note_on_c, 0, 72, 43
1, 65183, Note_on_c, 0, 77, 36
1, 65183, Note_on_c, 0, 69, 44
1, 65184, Note_on_c, 7, 57, 45
1, 65184, Note_on_c, 6, 45, 52
1, 65184, Note_on_c, 8, 57, 35
1, 65184, Note_on_c, 9, 38, 79
1, 65184, Note_on_c, 9, 63, 36
1, 65184, Note_on_c, 8, 60, 35
1, 65185, Note_on_c, 5, 60, 49
1, 65185, Note_on_c, 1, 33, 59
1, 65189, Note_on_c, 6, 46, 0
1, 65190, Note_on_c, 9, 63, 0
1, 65190, Note_on_c, 9, 38, 0
1, 65200, Note_on_c, 0, 69, 0
1, 65206, Note_on_c, 0, 72, 0
1, 65208, Note_on_c, 0, 77, 0
1, 65208, Note_on_c, 5, 60, 0
1, 65208, Note_on_c, 9, 63, 34
1, 65214, Note_on_c, 9, 63, 0
1, 65220, Note_on_c, 1, 33, 0
1, 65227, Note_on_c, 6, 45, 0
1, 65230, Note_on_c, 6, 46, 49
1, 65231, Note_on_c, 8, 57, 0
1, 65231, Note_on_c, 8, 60, 0
1, 65231, Note_on_c, 0, 70, 32
1, 65231, Note_on_c, 0, 77, 29
1, 65231, Note_on_c, 5, 58, 53
1, 65231, Note_on_c, 0, 74, 38
1, 65232, Note_on_c, 9, 55, 17
1, 65232, Note_on_c, 8, 58, 34
1, 65232, Note_on_c, 1, 34, 55
1, 65232, Note_on_c, 8, 62, 34
1, 65232, Note_on_c, 9, 63, 40
1, 65232, Note_on_c, 9, 38, 80
1, 65234, Note_on_c, 7, 57, 0
1, 65234, Note_on_c, 7, 58, 46
1, 65238, Note_on_c, 9, 55, 0
1, 65238, Note_on_c, 9, 38, 0
1, 65238, Note_on_c, 9, 63, 0
1, 65241, Note_on_c, 0, 77, 0
1, 65242, Note_on_c, 0, 74, 0
1, 65247, Note_on_c, 0, 70, 0
1, 65249, Note_on_c, 5, 58, 0
1, 65253, Note_on_c, 7, 58, 0
1, 65256, Note_on_c, 9, 63, 36
1, 65262, Note_on_c, 9, 63, 0
1, 65269, Note_on_c, 1, 34, 0
1, 65279, Note_on_c, 8, 62, 0
1, 65279, Note_on_c, 1, 29, 52
1, 65280, Note_on_c, 6, 46, 0
1, 65280, Note_on_c, 9, 36, 19
1, 65280, Note_on_c, 8, 60, 34
1, 65280, Note_on_c, 9, 64, 37
1, 65280, Note_on_c, 0, 68, 48
1, 65280, Note_on_c, 8, 65, 34
1, 65280, Note_on_c, 9, 49, 17
1, 65281, Note_on_c, 0, 77, 40
1, 65281, Note_on_c, 0, 72, 45
1, 65281, Note_on_c, 5, 58, 55
1, 65282, Note_on_c, 6, 41, 46
1, 65285, Note_on_c, 7, 65, 40
1, 65286, Note_on_c, 9, 49, 0
1, 65286, Note_on_c, 9, 64, 0
1, 65286, Note_on_c, 9, 36, 0
1, 65304, Note_on_c, 0, 68, 0
1, 65304, Note_on_c, 9, 64, 29
1, 65305, Note_on_c, 0, 69, 35
1, 65310, Note_on_c, 9, 64, 0
1, 65318, Note_on_c, 0, 72, 0
1, 65318, Note_on_c, 0, 69, 0
1, 65319, Note_on_c, 0, 77, 0
1, 65326, Note_on_c, 1, 29, 0
1, 65328, Note_on_c, 9, 36, 17
1, 65328, Note_on_c, 9, 42, 17
1, 65328, Note_on_c, 9, 64, 30
1, 65334, Note_on_c, 9, 64, 0
1, 65334, Note_on_c, 9, 42, 0
1, 65334, Note_on_c, 9, 36, 0
1, 65351, Note_on_c, 1, 29, 49
1, 65352, Note_on_c, 9, 64, 28
1, 65353, Note_on_c, 0, 69, 34
1, 65353, Note_on_c, 0, 72, 34
1, 65353, Note_on_c, 0, 77, 31
1, 65358, Note_on_c, 9, 64, 0
1, 65363, Note_on_c, 0, 72, 0
1, 65366, Note_on_c, 0, 69, 0
1, 65366, Note_on_c, 0, 77, 0
1, 65374, Note_on_c, 1, 29, 0
1, 65375, Note_on_c, 1, 41, 54
1, 65376, Note_on_c, 9, 46, 17
1, 65376, Note_on_c, 9, 38, 75
1, 65376, Note_on_c, 9, 63, 39
1, 65382, Note_on_c, 9, 63, 0
1, 65382, Note_on_c, 9, 38, 0
1, 65382, Note_on_c, 9, 46, 0
1, 65399, Note_on_c, 1, 41, 0
1, 65400, Note_on_c, 9, 64, 24
1, 65401, Note_on_c, 0, 69, 44
1, 65401, Note_on_c, 0, 77, 36
1, 65401, Note_on_c, 0, 72, 40
1, 65401, Note_on_c, 1, 29, 47
1, 65406, Note_on_c, 9, 64, 0
1, 65413, Note_on_c, 1, 29, 0
1, 65424, Note_on_c, 9, 63, 25
1, 65424, Note_on_c, 9, 36, 17
1, 65424, Note_on_c, 9, 42, 17
1, 65430, Note_on_c, 9, 42, 0
1, 65430, Note_on_c, 9, 36, 0
1, 65430, Note_on_c, 9, 63, 0
1, 65442, Note_on_c, 0, 69, 0
1, 65446, Note_on_c, 0, 72, 0
1, 65446, Note_on_c, 0, 77, 0
1, 65447, Note_on_c, 1, 29, 40
1, 65448, Note_on_c, 9, 63, 29
1, 65448, Note_on_c, 9, 38, 71
1, 65454, Note_on_c, 9, 38, 0
1, 65454, Note_on_c, 9, 63, 0
1, 65462, Note_on_c, 1, 29, 0
1, 65472, Note_on_c, 9, 36, 17
1, 65472, Note_on_c, 9, 42, 17
1, 65472, Note_on_c, 9, 64, 37
1, 65473, Note_on_c, 0, 77, 28
1, 65473, Note_on_c, 0, 72, 38
1, 65473, Note_on_c, 0, 68, 36
1, 65478, Note_on_c, 9, 64, 0
1, 65478, Note_on_c, 9, 42, 0
1, 65478, Note_on_c, 9, 36, 0
1, 65491, Note_on_c, 0, 72, 0
1, 65495, Note_on_c, 1, 29, 47
1, 65496, Note_on_c, 9, 64, 30
1, 65497, Note_on_c, 0, 68, 0
1, 65497, Note_on_c, 0, 69, 31
1, 65497, Note_on_c, 0, 72, 18
1, 65502, Note_on_c, 9, 64, 0
1, 65512, Note_on_c, 1, 29, 0
1, 65515, Note_on_c, 0, 69, 0
1, 65518, Note_on_c, 0, 77, 0
1, 65518, Note_on_c, 0, 72, 0
1, 65520, Note_on_c, 9, 64, 29
1, 65520, Note_on_c, 9, 36, 17
1, 65520, Note_on_c, 9, 42, 17
1, 65520, Note_on_c, 1, 41, 51
1, 65526, Note_on_c, 9, 42, 0
1, 65526, Note_on_c, 9, 36, 0
1, 65526, Note_on_c, 9, 64, 0
1, 65532, Note_on_c, 1, 41, 0
1, 65543, Note_on_c, 0, 77, 27
1, 65543, Note_on_c, 1, 41, 48
1, 65544, Note_on_c, 9, 64, 29
1, 65545, Note_on_c, 0, 69, 27
1, 65545, Note_on_c, 0, 72, 31
1, 65550, Note_on_c, 9, 64, 0
1, 65559, Note_on_c, 1, 41, 0
1, 65562, Note_on_c, 0, 69, 0
1, 65562, Note_on_c, 0, 72, 0
1, 65565, Note_on_c, 0, 77, 0
1, 65568, Note_on_c, 9, 38, 73
1, 65568, Note_on_c, 9, 63, 31
1, 65568, Note_on_c, 9, 46, 17
1, 65569, Note_on_c, 1, 39, 47
1, 65574, Note_on_c, 9, 46, 0
1, 65574, Note_on_c, 9, 63, 0
1, 65574, Note_on_c, 9, 38, 0
1, 65578, Note_on_c, 1, 39, 0
1, 65591, Note_on_c, 1, 39, 47
1, 65592, Note_on_c, 9, 64, 23
1, 65592, Note_on_c, 9, 45, 17
1, 65593, Note_on_c, 0, 72, 41
1, 65593, Note_on_c, 0, 69, 40
1, 65593, Note_on_c, 0, 77, 35
1, 65598, Note_on_c, 9, 45, 0
1, 65598, Note_on_c, 9, 64, 0
1, 65616, Note_on_c, 1, 39, 0
1, 65616, Note_on_c, 9, 63, 24
1, 65616, Note_on_c, 9, 45, 17
1, 65616, Note_on_c, 9, 42, 17
1, 65617, Note_on_c, 1, 38, 48
1, 65622, Note_on_c, 9, 42, 0
1, 65622, Note_on_c, 9, 45, 0
1, 65622, Note_on_c, 9, 63, 0
1, 65632, Note_on_c, 7, 65, 0
1, 65639, Note_on_c, 8, 53, 0
1, 65640, Note_on_c, 9, 63, 26
1, 65640, Note_on_c, 9, 45, 17
1, 65644, Note_on_c, 5, 58, 0
1, 65646, Note_on_c, 9, 45, 0
1, 65646, Note_on_c, 9, 63, 0
1, 65654, Note_on_c, 1, 38, 0
1, 65658, Note_on_c, 0, 69, 0
1, 65659, Note_on_c, 0, 77, 0
1, 65659, Note_on_c, 0, 72, 0
1, 65663, Note_on_c, 8, 60, 0
1, 65663, Note_on_c, 8, 58, 0
1, 65663, Note_on_c, 8, 65, 0
1, 65664, Note_on_c, 9, 42, 17
1, 65664, Note_on_c, 9, 36, 17
1, 65664, Note_on_c, 9, 64, 30
1, 65666, Note_on_c, 6, 41, 0
1, 65670, Note_on_c, 9, 42, 0
1, 65670, Note_on_c, 9, 36, 0
1, 65670, Note_on_c, 9, 64, 0
1, 65685, Note_on_c, 6, 51, 39
1, 65686, Note_on_c, 7, 63, 35
1, 65688, Note_on_c, 0, 67, 36
1, 65688, Note_on_c, 0, 75, 36
1, 65688, Note_on_c, 9, 63, 32
1, 65688, Note_on_c, 9, 55, 17
1, 65688, Note_on_c, 8, 55, 28
1, 65688, Note_on_c, 8, 58, 28
1, 65688, Note_on_c, 8, 63, 28
1, 65688, Note_on_c, 9, 38, 68
1, 65689, Note_on_c, 5, 58, 37
1, 65689, Note_on_c, 0, 70, 34
1, 65689, Note_on_c, 1, 39, 50
1, 65694, Note_on_c, 9, 38, 0
1, 65694, Note_on_c, 9, 55, 0
1, 65694, Note_on_c, 9, 63, 0
1, 65712, Note_on_c, 9, 64, 24
1, 65712, Note_on_c, 9, 38, 72
1, 65718, Note_on_c, 9, 38, 0
1, 65718, Note_on_c, 9, 64, 0
1, 65719, Note_on_c, 5, 58, 0
1, 65723, Note_on_c, 6, 51, 0
1, 65726, Note_on_c, 0, 75, 0
1, 65726, Note_on_c, 0, 67, 0
1, 65729, Note_on_c, 0, 70, 0
1, 65736, Note_on_c, 9, 38, 69
1, 65736, Note_on_c, 9, 64, 29
1, 65741, Note_on_c, 7, 63, 0
1, 65742, Note_on_c, 9, 38, 0
1, 65742, Note_on_c, 9, 64, 0
1, 65758, Note_on_c, 1, 39, 0
1, 65758, Note_on_c, 6, 50, 38
1, 65759, Note_on_c, 8, 63, 0
1, 65759, Note_on_c, 8, 55, 0
1, 65759, Note_on_c, 0, 65, 32
1, 65759, Note_on_c, 5, 65, 37
1, 65759, Note_on_c, 0, 70, 32
1, 65760, Note_on_c, 1, 38, 43
1, 65760, Note_on_c, 9, 63, 24
1, 65760, Note_on_c, 8, 62, 27
1, 65760, Note_on_c, 9, 55, 17
1, 65760, Note_on_c, 9, 38, 71
1, 65760, Note_on_c, 7, 62, 34
1, 65760, Note_on_c, 0, 74, 29
1, 65766, Note_on_c, 9, 38, 0
1, 65766, Note_on_c, 9, 55, 0
1, 65766, Note_on_c, 9, 63, 0
1, 65784, Note_on_c, 9, 64, 26
1, 65784, Note_on_c, 9, 45, 17
1, 65790, Note_on_c, 9, 45, 0
1, 65790, Note_on_c, 9, 64, 0
1, 65793, Note_on_c, 0, 74, 0
1, 65794, Note_on_c, 0, 70, 0
1, 65804, Note_on_c, 0, 65, 0
1, 65805, Note_on_c, 1, 38, 0
1, 65808, Note_on_c, 9, 64, 24
1, 65808, Note_on_c, 9, 45, 17
1, 65811, Note_on_c, 5, 65, 0
1, 65814, Note_on_c, 9, 64, 0
1, 65814, Note_on_c, 9, 45, 0
1, 65822, Note_on_c, 6, 50, 0
1, 65826, Note_on_c, 7, 62, 0
1, 65830, Note_on_c, 6, 48, 35
1, 65831, Note_on_c, 8, 58, 0
1, 65831, Note_on_c, 8, 62, 0
1, 65831, Note_on_c, 0, 72, 29
1, 65831, Note_on_c, 0, 65, 29
1, 65831, Note_on_c, 0, 69, 30
1, 65832, Note_on_c, 1, 36, 44
1, 65832, Note_on_c, 9, 63, 23
1, 65832, Note_on_c, 8, 57, 24
1, 65832, Note_on_c, 9, 55, 17
1, 65832, Note_on_c, 8, 60, 24
1, 65832, Note_on_c, 7, 60, 31
1, 65832, Note_on_c, 9, 45, 17
1, 65833, Note_on_c, 5, 60, 38
1, 65838, Note_on_c, 9, 45, 0
1, 65838, Note_on_c, 9, 55, 0
1, 65838, Note_on_c, 9, 63, 0
1, 65856, Note_on_c, 9, 64, 27
1, 65856, Note_on_c, 9, 45, 17
1, 65862, Note_on_c, 9, 45, 0
1, 65862, Note_on_c, 9, 64, 0
1, 65872, Note_on_c, 0, 69, 0
1, 65880, Note_on_c, 9, 64, 27
1, 65880, Note_on_c, 9, 38, 67
1, 65881, Note_on_c, 0, 72, 0
1, 65882, Note_on_c, 0, 65, 0
1, 65885, Note_on_c, 1, 36, 0
1, 65886, Note_on_c, 9, 64, 0
1, 65886, Note_on_c, 9, 38, 0
1, 65892, Note_on_c, 7, 60, 0
1, 65899, Note_on_c, 6, 48, 0
1, 65901, Note_on_c, 6, 46, 29
1, 65902, Note_on_c, 7, 58, 26
1, 65903, Note_on_c, 8, 57, 0
1, 65903, Note_on_c, 8, 60, 0
1, 65903, Note_on_c, 0, 65, 27
1, 65903, Note_on_c, 0, 74, 27
1, 65903, Note_on_c, 0, 70, 28
1, 65904, Note_on_c, 9, 38, 69
1, 65904, Note_on_c, 8, 58, 23
1, 65904, Note_on_c, 9, 55, 17
1, 65904, Note_on_c, 9, 63, 25
1, 65904, Note_on_c, 8, 55, 23
1, 65905, Note_on_c, 1, 34, 40
1, 65906, Note_on_c, 5, 58, 30
1, 65910, Note_on_c, 9, 63, 0
1, 65910, Note_on_c, 9, 55, 0
1, 65910, Note_on_c, 9, 38, 0
1, 65911, Note_on_c, 5, 60, 0
1, 65928, Note_on_c, 9, 64, 27
1, 65928, Note_on_c, 9, 45, 17
1, 65930, Note_on_c, 1, 34, 0
1, 65934, Note_on_c, 9, 45, 0
1, 65934, Note_on_c, 9, 64, 0
1, 65935, Note_on_c, 0, 70, 0
1, 65937, Note_on_c, 5, 58, 0
1, 65939, Note_on_c, 0, 74, 0
1, 65939, Note_on_c, 0, 65, 0
1, 65945, Note_on_c, 6, 46, 0
1, 65947, Note_on_c, 7, 58, 0
1, 65951, Note_on_c, 8, 55, 0
1, 65951, Note_on_c, 8, 58, 0
1, 65952, Note_on_c, 8, 57, 22
1, 65952, Note_on_c, 6, 45, 32
1, 65952, Note_on_c, 9, 45, 17
1, 65952, Note_on_c, 8, 60, 22
1, 65952, Note_on_c, 9, 63, 21
1, 65952, Note_on_c, 7, 57, 27
1, 65953, Note_on_c, 1, 33, 39
1, 65953, Note_on_c, 0, 69, 26
1, 65953, Note_on_c, 0, 72, 26
1, 65953, Note_on_c, 0, 65, 23
1, 65954, Note_on_c, 5, 60, 33
1, 65958, Note_on_c, 9, 63, 0
1, 65958, Note_on_c, 9, 45, 0
1, 65976, Note_on_c, 9, 43, 17
1, 65976, Note_on_c, 9, 63, 20
1, 65977, Note_on_c, 0, 69, 0
1, 65977, Note_on_c, 5, 60, 0
1, 65981, Note_on_c, 0, 65, 0
1, 65982, Note_on_c, 9, 43, 0
1, 65982, Note_on_c, 9, 63, 0
1, 65989, Note_on_c, 0, 72, 0
1, 65997, Note_on_c, 7, 57, 0
1, 65998, Note_on_c, 1, 33, 0
1, 65999, Note_on_c, 8, 60, 0
1, 65999, Note_on_c, 8, 57, 0
1, 65999, Note_on_c, 0, 65, 24
1, 65999, Note_on_c, 0, 74, 22
1, 65999, Note_on_c, 0, 70, 26
1, 66000, Note_on_c, 8, 62, 22
1, 66000, Note_on_c, 9, 55, 17
1, 66000, Note_on_c, 9, 63, 23
1, 66000, Note_on_c, 7, 58, 27
1, 66000, Note_on_c, 8, 58, 22
1, 66000, Note_on_c, 9, 43, 17
1, 66001, Note_on_c, 1, 34, 37
1, 66002, Note_on_c, 5, 58, 34
1, 66003, Note_on_c, 6, 45, 0
1, 66004, Note_on_c, 6, 46, 31
1, 66006, Note_on_c, 9, 43, 0
1, 66006, Note_on_c, 9, 63, 0
1, 66006, Note_on_c, 9, 55, 0
1, 66024, Note_on_c, 9, 63, 21
1, 66024, Note_on_c, 9, 43, 17
1, 66025, Note_on_c, 0, 65, 0
1, 66026, Note_on_c, 0, 70, 0
1, 66027, Note_on_c, 0, 74, 0
1, 66030, Note_on_c, 9, 63, 0
1, 66030, Note_on_c, 9, 43, 0
1, 66042, Note_on_c, 1, 34, 0
1, 66046, Note_on_c, 5, 58, 0
1, 66047, Note_on_c, 8, 58, 0
1, 66047, Note_on_c, 8, 62, 0
1, 66048, Note_on_c, 6, 46, 0
1, 66048, Note_on_c, 7, 58, 0
1, 66048, Note_on_c, 1, 29, 40
1, 66048, Note_on_c, 8, 60, 17
1, 66048, Note_on_c, 8, 53, 17
1, 66048, Note_on_c, 9, 49, 17
1, 66048, Note_on_c, 8, 58, 15
1, 66048, Note_on_c, 8, 41, 17
1, 66052, Note_on_c, 8, 48, 20
1, 66052, Note_on_c, 7, 60, 30
1, 66054, Note_on_c, 9, 49, 0
1, 66624, Note_on_c, 8, 53, 0
1, 66624, Note_on_c, 8, 60, 0
1, 66624, Note_on_c, 1, 29, 0
1, 66624, Note_on_c, 8, 48, 0
1, 66628, Note_on_c, 7, 60, 0
1, 66628, Note_on_c, 8, 58, 0
1, 66628, Note_on_c, 8, 41, 0
1, 66628, End_track
0, 0, End_of_file
