0, 0, Header, 1, 3, 192
1, 0, Start_track
1, 0, Title_t, "By Knid Permission Of"
1, 0, Text_t, "By John Evan"
1, 0, Copyright_t, " "
1, 0, Copyright_t, " Adam Bodkin"
1, 0, Text_t, "Generated by NoteWorthy Composer"
1, 96, Tempo, 461538
1, 348, Tempo, 500000
1, 1308, Tempo, 461538
1, 1548, Tempo, 500000
1, 1740, Tempo, 461538
1, 1980, Tempo, 500000
1, 2172, Tempo, 461538
1, 2412, Tempo, 500000
1, 2604, Tempo, 461538
1, 2844, Tempo, 500000
1, 3036, Tempo, 461538
1, 4428, Tempo, 1000000
1, 4428, Key_signature, -3, "major"
1, 6732, Time_signature, 2, 2, 24, 8
1, 7116, Tempo, 857142
1, 7116, Time_signature, 4, 2, 24, 8
1, 8652, Tempo, 750000
1, 11724, Tempo, 214285
1, 11724, Time_signature, 2, 1, 24, 8
1, 20940, Tempo, 300000
1, 24012, Tempo, 750000
1, 24852, Tempo, 333333
1, 24852, Time_signature, 4, 2, 24, 8
1, 36564, Tempo, 500000
1, 37140, Tempo, 214285
1, 47892, Tempo, 750000
1, 47892, Key_signature, 1, "major"
1, 48468, Tempo, 1200000
1, 48564, Tempo, 750000
1, 48660, Tempo, 1200000
1, 48852, Tempo, 1000000
1, 49140, Tempo, 857142
1, 49428, Tempo, 666666
1, 49428, Time_signature, 2, 2, 24, 8
1, 50580, Tempo, 600000
1, 51348, Tempo, 545454
1, 52116, Tempo, 500000
1, 58260, Time_signature, 5, 3, 24, 8
1, 58740, Tempo, 400000
1, 58740, Time_signature, 5, 2, 24, 8
1, 73140, Time_signature, 4, 2, 24, 8
1, 73908, Tempo, 600000
1, 74676, Tempo, 800000
1, 74676, Key_signature, 2, "major"
1, 86580, Tempo, 857142
1, 86772, Tempo, 1200000
1, 86964, Tempo, 750000
1, 86964, Key_signature, 0, "major"
1, 88500, Tempo, 500000
1, 88500, Time_signature, 6, 2, 24, 8
1, 90996, Tempo, 545454
1, 91956, Tempo, 500000
1, 92532, Tempo, 545454
1, 92724, Tempo, 600000
1, 93108, Tempo, 331491
1, 93108, Key_signature, 1, "major"
1, 111540, Time_signature, 3, 2, 24, 8
1, 112116, Time_signature, 4, 2, 24, 8
1, 112692, Tempo, 1000000
1, 112692, End_track
2, 0, Start_track
2, 0, MIDI_port, 0
2, 0, Title_t, "Staff-1"
2, 0, Program_c, 0, 0
2, 0, Control_c, 0, 7, 127
2, 0, Control_c, 0, 10, 64
2, 0, Note_on_c, 0, 79, 110
2, 94, Note_on_c, 0, 79, 0
2, 96, Note_on_c, 0, 85, 110
2, 108, Note_on_c, 0, 85, 0
2, 108, Note_on_c, 0, 86, 110
2, 156, Note_on_c, 0, 86, 0
2, 156, Note_on_c, 0, 89, 110
2, 204, Note_on_c, 0, 89, 0
2, 204, Note_on_c, 0, 86, 110
2, 252, Note_on_c, 0, 86, 0
2, 252, Note_on_c, 0, 85, 110
2, 300, Note_on_c, 0, 85, 0
2, 300, Note_on_c, 0, 84, 110
2, 346, Note_on_c, 0, 84, 0
2, 348, Note_on_c, 0, 82, 110
2, 396, Note_on_c, 0, 82, 0
2, 396, Note_on_c, 0, 84, 110
2, 444, Note_on_c, 0, 84, 0
2, 444, Note_on_c, 0, 82, 110
2, 492, Note_on_c, 0, 82, 0
2, 492, Note_on_c, 0, 79, 110
2, 538, Note_on_c, 0, 79, 0
2, 540, Note_on_c, 0, 77, 110
2, 588, Note_on_c, 0, 77, 0
2, 588, Note_on_c, 0, 79, 110
2, 636, Note_on_c, 0, 79, 0
2, 636, Note_on_c, 0, 77, 110
2, 684, Note_on_c, 0, 77, 0
2, 684, Note_on_c, 0, 74, 110
2, 730, Note_on_c, 0, 74, 0
2, 732, Note_on_c, 0, 73, 110
2, 780, Note_on_c, 0, 73, 0
2, 780, Note_on_c, 0, 72, 110
2, 828, Note_on_c, 0, 72, 0
2, 828, Note_on_c, 0, 70, 110
2, 876, Note_on_c, 0, 70, 0
2, 876, Note_on_c, 0, 67, 110
2, 922, Note_on_c, 0, 67, 0
2, 924, Note_on_c, 0, 70, 110
2, 972, Note_on_c, 0, 70, 0
2, 972, Note_on_c, 0, 72, 110
2, 1020, Note_on_c, 0, 72, 0
2, 1020, Note_on_c, 0, 70, 110
2, 1068, Note_on_c, 0, 70, 0
2, 1068, Note_on_c, 0, 67, 110
2, 1114, Note_on_c, 0, 67, 0
2, 1116, Note_on_c, 0, 65, 110
2, 1164, Note_on_c, 0, 65, 0
2, 1164, Note_on_c, 0, 67, 110
2, 1212, Note_on_c, 0, 67, 0
2, 1212, Note_on_c, 0, 65, 110
2, 1260, Note_on_c, 0, 65, 0
2, 1260, Note_on_c, 0, 62, 110
2, 1306, Note_on_c, 0, 62, 0
2, 1308, Note_on_c, 0, 61, 110
2, 1356, Note_on_c, 0, 61, 0
2, 1356, Note_on_c, 0, 60, 110
2, 1404, Note_on_c, 0, 60, 0
2, 1404, Note_on_c, 0, 58, 110
2, 1452, Note_on_c, 0, 58, 0
2, 1452, Note_on_c, 0, 55, 110
2, 1500, Note_on_c, 0, 55, 0
2, 1500, Note_on_c, 0, 53, 110
2, 1546, Note_on_c, 0, 53, 0
2, 4428, Note_on_c, 0, 51, 108
2, 4428, Note_on_c, 0, 55, 108
2, 4428, Note_on_c, 0, 60, 108
2, 4666, Note_on_c, 0, 51, 0
2, 4666, Note_on_c, 0, 55, 0
2, 4666, Note_on_c, 0, 60, 0
2, 4668, Note_on_c, 0, 55, 108
2, 4668, Note_on_c, 0, 60, 108
2, 4714, Note_on_c, 0, 55, 0
2, 4714, Note_on_c, 0, 60, 0
2, 4716, Note_on_c, 0, 55, 108
2, 4716, Note_on_c, 0, 59, 108
2, 4716, Note_on_c, 0, 62, 108
2, 4762, Note_on_c, 0, 55, 0
2, 4762, Note_on_c, 0, 59, 0
2, 4762, Note_on_c, 0, 62, 0
2, 4764, Note_on_c, 0, 55, 108
2, 4764, Note_on_c, 0, 60, 108
2, 4764, Note_on_c, 0, 63, 108
2, 4810, Note_on_c, 0, 55, 0
2, 4810, Note_on_c, 0, 60, 0
2, 4810, Note_on_c, 0, 63, 0
2, 4812, Note_on_c, 0, 55, 108
2, 4812, Note_on_c, 0, 58, 108
2, 4812, Note_on_c, 0, 61, 108
2, 4972, Note_on_c, 0, 55, 0
2, 4972, Note_on_c, 0, 58, 0
2, 4972, Note_on_c, 0, 61, 0
2, 5004, Note_on_c, 0, 53, 108
2, 5004, Note_on_c, 0, 57, 108
2, 5004, Note_on_c, 0, 60, 108
2, 5164, Note_on_c, 0, 53, 0
2, 5164, Note_on_c, 0, 57, 0
2, 5164, Note_on_c, 0, 60, 0
2, 5196, Note_on_c, 0, 56, 108
2, 5196, Note_on_c, 0, 60, 108
2, 5196, Note_on_c, 0, 65, 108
2, 5434, Note_on_c, 0, 56, 0
2, 5434, Note_on_c, 0, 60, 0
2, 5434, Note_on_c, 0, 65, 0
2, 5436, Note_on_c, 0, 60, 108
2, 5436, Note_on_c, 0, 65, 108
2, 5482, Note_on_c, 0, 60, 0
2, 5482, Note_on_c, 0, 65, 0
2, 5484, Note_on_c, 0, 60, 108
2, 5484, Note_on_c, 0, 64, 108
2, 5484, Note_on_c, 0, 67, 108
2, 5530, Note_on_c, 0, 60, 0
2, 5530, Note_on_c, 0, 64, 0
2, 5530, Note_on_c, 0, 67, 0
2, 5532, Note_on_c, 0, 60, 108
2, 5532, Note_on_c, 0, 65, 108
2, 5532, Note_on_c, 0, 68, 108
2, 5578, Note_on_c, 0, 60, 0
2, 5578, Note_on_c, 0, 65, 0
2, 5578, Note_on_c, 0, 68, 0
2, 5580, Note_on_c, 0, 62, 108
2, 5580, Note_on_c, 0, 65, 108
2, 5580, Note_on_c, 0, 68, 108
2, 5580, Note_on_c, 0, 72, 108
2, 5674, Note_on_c, 0, 62, 0
2, 5674, Note_on_c, 0, 65, 0
2, 5674, Note_on_c, 0, 68, 0
2, 5674, Note_on_c, 0, 72, 0
2, 5772, Note_on_c, 0, 59, 108
2, 5772, Note_on_c, 0, 62, 108
2, 5772, Note_on_c, 0, 71, 108
2, 5932, Note_on_c, 0, 59, 0
2, 5932, Note_on_c, 0, 62, 0
2, 5932, Note_on_c, 0, 71, 0
2, 5964, Note_on_c, 0, 62, 108
2, 5964, Note_on_c, 0, 65, 108
2, 5964, Note_on_c, 0, 68, 108
2, 5964, Note_on_c, 0, 72, 108
2, 6010, Note_on_c, 0, 62, 0
2, 6010, Note_on_c, 0, 65, 0
2, 6010, Note_on_c, 0, 68, 0
2, 6010, Note_on_c, 0, 72, 0
2, 6012, Note_on_c, 0, 70, 108
2, 6058, Note_on_c, 0, 70, 0
2, 6060, Note_on_c, 0, 59, 108
2, 6060, Note_on_c, 0, 63, 108
2, 6060, Note_on_c, 0, 66, 108
2, 6060, Note_on_c, 0, 70, 108
2, 6106, Note_on_c, 0, 59, 0
2, 6106, Note_on_c, 0, 63, 0
2, 6106, Note_on_c, 0, 66, 0
2, 6106, Note_on_c, 0, 70, 0
2, 6108, Note_on_c, 0, 73, 108
2, 6154, Note_on_c, 0, 73, 0
2, 6156, Note_on_c, 0, 63, 108
2, 6156, Note_on_c, 0, 66, 108
2, 6156, Note_on_c, 0, 70, 108
2, 6156, Note_on_c, 0, 73, 108
2, 6202, Note_on_c, 0, 63, 0
2, 6202, Note_on_c, 0, 66, 0
2, 6202, Note_on_c, 0, 70, 0
2, 6202, Note_on_c, 0, 73, 0
2, 6204, Note_on_c, 0, 77, 108
2, 6250, Note_on_c, 0, 77, 0
2, 6252, Note_on_c, 0, 64, 108
2, 6252, Note_on_c, 0, 68, 108
2, 6252, Note_on_c, 0, 71, 108
2, 6252, Note_on_c, 0, 75, 108
2, 6298, Note_on_c, 0, 64, 0
2, 6298, Note_on_c, 0, 68, 0
2, 6298, Note_on_c, 0, 71, 0
2, 6298, Note_on_c, 0, 75, 0
2, 6300, Note_on_c, 0, 73, 108
2, 6346, Note_on_c, 0, 73, 0
2, 6348, Note_on_c, 0, 62, 108
2, 6348, Note_on_c, 0, 67, 108
2, 6348, Note_on_c, 0, 71, 108
2, 6394, Note_on_c, 0, 71, 0
2, 6396, Note_on_c, 0, 71, 108
2, 6444, Note_on_c, 0, 83, 108
2, 6538, Note_on_c, 0, 83, 0
2, 6540, Note_on_c, 0, 95, 108
2, 6634, Note_on_c, 0, 62, 0
2, 6634, Note_on_c, 0, 67, 0
2, 6634, Note_on_c, 0, 71, 0
2, 6636, Note_on_c, 0, 71, 108
2, 6730, Note_on_c, 0, 71, 0
2, 6730, Note_on_c, 0, 95, 0
2, 6732, Note_on_c, 0, 61, 108
2, 6732, Note_on_c, 0, 66, 108
2, 6732, Note_on_c, 0, 70, 108
2, 7068, Note_on_c, 0, 61, 0
2, 7068, Note_on_c, 0, 66, 0
2, 7068, Note_on_c, 0, 70, 0
2, 7116, Note_on_c, 0, 65, 108
2, 7116, Note_on_c, 0, 69, 108
2, 7116, Note_on_c, 0, 72, 108
2, 7116, Note_on_c, 0, 76, 108
2, 7276, Note_on_c, 0, 65, 0
2, 7276, Note_on_c, 0, 69, 0
2, 7276, Note_on_c, 0, 72, 0
2, 7276, Note_on_c, 0, 76, 0
2, 7308, Note_on_c, 0, 62, 108
2, 7308, Note_on_c, 0, 65, 108
2, 7308, Note_on_c, 0, 69, 108
2, 7468, Note_on_c, 0, 62, 0
2, 7468, Note_on_c, 0, 65, 0
2, 7468, Note_on_c, 0, 69, 0
2, 7500, Note_on_c, 0, 65, 108
2, 7500, Note_on_c, 0, 69, 108
2, 7500, Note_on_c, 0, 72, 108
2, 7500, Note_on_c, 0, 76, 108
2, 7660, Note_on_c, 0, 65, 0
2, 7660, Note_on_c, 0, 69, 0
2, 7660, Note_on_c, 0, 72, 0
2, 7660, Note_on_c, 0, 76, 0
2, 7692, Note_on_c, 0, 67, 108
2, 7692, Note_on_c, 0, 71, 108
2, 7692, Note_on_c, 0, 74, 108
2, 7692, Note_on_c, 0, 79, 108
2, 7852, Note_on_c, 0, 67, 0
2, 7852, Note_on_c, 0, 71, 0
2, 7852, Note_on_c, 0, 74, 0
2, 7852, Note_on_c, 0, 79, 0
2, 7884, Note_on_c, 0, 64, 108
2, 7884, Note_on_c, 0, 67, 108
2, 7884, Note_on_c, 0, 72, 108
2, 8044, Note_on_c, 0, 64, 0
2, 8044, Note_on_c, 0, 67, 0
2, 8044, Note_on_c, 0, 72, 0
2, 8076, Note_on_c, 0, 59, 108
2, 8076, Note_on_c, 0, 62, 108
2, 8076, Note_on_c, 0, 67, 108
2, 8236, Note_on_c, 0, 59, 0
2, 8236, Note_on_c, 0, 62, 0
2, 8236, Note_on_c, 0, 67, 0
2, 8268, Note_on_c, 0, 62, 108
2, 8268, Note_on_c, 0, 65, 108
2, 8268, Note_on_c, 0, 70, 108
2, 8428, Note_on_c, 0, 62, 0
2, 8428, Note_on_c, 0, 65, 0
2, 8428, Note_on_c, 0, 70, 0
2, 8460, Note_on_c, 0, 62, 108
2, 8460, Note_on_c, 0, 65, 108
2, 8460, Note_on_c, 0, 68, 108
2, 8460, Note_on_c, 0, 71, 108
2, 8620, Note_on_c, 0, 62, 0
2, 8620, Note_on_c, 0, 65, 0
2, 8620, Note_on_c, 0, 68, 0
2, 8620, Note_on_c, 0, 71, 0
2, 8652, Note_on_c, 0, 60, 108
2, 8812, Note_on_c, 0, 60, 0
2, 8844, Note_on_c, 0, 51, 108
2, 8844, Note_on_c, 0, 55, 108
2, 8844, Note_on_c, 0, 60, 108
2, 9036, Note_on_c, 0, 51, 0
2, 9036, Note_on_c, 0, 55, 0
2, 9036, Note_on_c, 0, 60, 0
2, 9036, Note_on_c, 0, 55, 108
2, 9036, Note_on_c, 0, 60, 108
2, 9036, Note_on_c, 0, 63, 108
2, 9228, Note_on_c, 0, 55, 0
2, 9228, Note_on_c, 0, 60, 0
2, 9228, Note_on_c, 0, 63, 0
2, 9228, Note_on_c, 0, 72, 108
2, 9228, Note_on_c, 0, 75, 108
2, 9228, Note_on_c, 0, 79, 108
2, 9228, Note_on_c, 0, 84, 108
2, 9420, Note_on_c, 0, 72, 0
2, 9420, Note_on_c, 0, 75, 0
2, 9420, Note_on_c, 0, 79, 0
2, 9420, Note_on_c, 0, 84, 0
2, 9612, Note_on_c, 0, 51, 108
2, 9612, Note_on_c, 0, 55, 108
2, 9612, Note_on_c, 0, 60, 108
2, 9804, Note_on_c, 0, 51, 0
2, 9804, Note_on_c, 0, 55, 0
2, 9804, Note_on_c, 0, 60, 0
2, 9804, Note_on_c, 0, 55, 108
2, 9804, Note_on_c, 0, 60, 108
2, 9804, Note_on_c, 0, 63, 108
2, 9996, Note_on_c, 0, 55, 0
2, 9996, Note_on_c, 0, 60, 0
2, 9996, Note_on_c, 0, 63, 0
2, 9996, Note_on_c, 0, 72, 108
2, 9996, Note_on_c, 0, 75, 108
2, 9996, Note_on_c, 0, 79, 108
2, 9996, Note_on_c, 0, 84, 108
2, 10188, Note_on_c, 0, 72, 0
2, 10188, Note_on_c, 0, 75, 0
2, 10188, Note_on_c, 0, 79, 0
2, 10188, Note_on_c, 0, 84, 0
2, 10380, Note_on_c, 0, 51, 108
2, 10380, Note_on_c, 0, 55, 108
2, 10380, Note_on_c, 0, 60, 108
2, 10572, Note_on_c, 0, 51, 0
2, 10572, Note_on_c, 0, 55, 0
2, 10572, Note_on_c, 0, 60, 0
2, 10572, Note_on_c, 0, 55, 108
2, 10572, Note_on_c, 0, 60, 108
2, 10572, Note_on_c, 0, 63, 108
2, 10764, Note_on_c, 0, 55, 0
2, 10764, Note_on_c, 0, 60, 0
2, 10764, Note_on_c, 0, 63, 0
2, 10764, Note_on_c, 0, 72, 108
2, 10764, Note_on_c, 0, 75, 108
2, 10764, Note_on_c, 0, 79, 108
2, 10764, Note_on_c, 0, 84, 108
2, 10956, Note_on_c, 0, 72, 0
2, 10956, Note_on_c, 0, 75, 0
2, 10956, Note_on_c, 0, 79, 0
2, 10956, Note_on_c, 0, 84, 0
2, 10956, Note_on_c, 0, 71, 127
2, 10956, Note_on_c, 0, 74, 127
2, 10956, Note_on_c, 0, 77, 127
2, 10956, Note_on_c, 0, 83, 127
2, 11116, Note_on_c, 0, 71, 0
2, 11116, Note_on_c, 0, 74, 0
2, 11116, Note_on_c, 0, 77, 0
2, 11116, Note_on_c, 0, 83, 0
2, 11148, Note_on_c, 0, 80, 108
2, 11172, Note_on_c, 0, 80, 0
2, 11172, Note_on_c, 0, 79, 108
2, 11196, Note_on_c, 0, 79, 0
2, 11196, Note_on_c, 0, 78, 108
2, 11220, Note_on_c, 0, 78, 0
2, 11220, Note_on_c, 0, 77, 108
2, 11244, Note_on_c, 0, 77, 0
2, 11244, Note_on_c, 0, 76, 108
2, 11268, Note_on_c, 0, 76, 0
2, 11268, Note_on_c, 0, 75, 108
2, 11292, Note_on_c, 0, 75, 0
2, 11292, Note_on_c, 0, 74, 108
2, 11316, Note_on_c, 0, 74, 0
2, 11316, Note_on_c, 0, 73, 108
2, 11340, Note_on_c, 0, 73, 0
2, 11340, Note_on_c, 0, 72, 108
2, 11364, Note_on_c, 0, 72, 0
2, 11364, Note_on_c, 0, 71, 108
2, 11376, Note_on_c, 0, 71, 0
2, 11376, Note_on_c, 0, 70, 108
2, 11400, Note_on_c, 0, 70, 0
2, 11400, Note_on_c, 0, 69, 108
2, 11424, Note_on_c, 0, 69, 0
2, 11424, Note_on_c, 0, 68, 108
2, 11436, Note_on_c, 0, 68, 0
2, 11436, Note_on_c, 0, 67, 108
2, 11448, Note_on_c, 0, 67, 0
2, 11448, Note_on_c, 0, 66, 108
2, 11460, Note_on_c, 0, 66, 0
2, 11460, Note_on_c, 0, 65, 108
2, 11472, Note_on_c, 0, 65, 0
2, 11472, Note_on_c, 0, 64, 108
2, 11484, Note_on_c, 0, 64, 0
2, 11484, Note_on_c, 0, 63, 108
2, 11496, Note_on_c, 0, 63, 0
2, 11496, Note_on_c, 0, 62, 108
2, 11508, Note_on_c, 0, 62, 0
2, 11508, Note_on_c, 0, 61, 108
2, 11520, Note_on_c, 0, 61, 0
2, 11520, Note_on_c, 0, 60, 108
2, 11530, Note_on_c, 0, 60, 0
2, 11532, Note_on_c, 0, 59, 108
2, 11578, Note_on_c, 0, 59, 0
2, 11580, Note_on_c, 0, 68, 108
2, 11674, Note_on_c, 0, 68, 0
2, 11676, Note_on_c, 0, 59, 108
2, 11722, Note_on_c, 0, 59, 0
2, 11724, Note_on_c, 0, 60, 75
2, 12252, Note_on_c, 0, 60, 0
2, 12300, Note_on_c, 0, 58, 75
2, 12300, Note_on_c, 0, 64, 75
2, 12348, Note_on_c, 0, 58, 0
2, 12348, Note_on_c, 0, 64, 0
2, 12492, Note_on_c, 0, 56, 75
2, 12492, Note_on_c, 0, 65, 75
2, 12540, Note_on_c, 0, 56, 0
2, 12540, Note_on_c, 0, 65, 0
2, 12684, Note_on_c, 0, 64, 75
2, 12684, Note_on_c, 0, 67, 75
2, 12732, Note_on_c, 0, 64, 0
2, 12732, Note_on_c, 0, 67, 0
2, 12876, Note_on_c, 0, 65, 75
2, 12876, Note_on_c, 0, 68, 75
2, 12924, Note_on_c, 0, 65, 0
2, 12924, Note_on_c, 0, 68, 0
2, 13068, Note_on_c, 0, 62, 75
2, 13068, Note_on_c, 0, 71, 75
2, 13116, Note_on_c, 0, 62, 0
2, 13116, Note_on_c, 0, 71, 0
2, 13260, Note_on_c, 0, 63, 75
2, 13260, Note_on_c, 0, 72, 75
2, 13308, Note_on_c, 0, 63, 0
2, 13308, Note_on_c, 0, 72, 0
2, 13452, Note_on_c, 0, 64, 75
2, 13452, Note_on_c, 0, 72, 75
2, 13836, Note_on_c, 0, 64, 0
2, 13836, Note_on_c, 0, 72, 0
2, 13836, Note_on_c, 0, 70, 75
2, 13836, Note_on_c, 0, 76, 75
2, 13884, Note_on_c, 0, 70, 0
2, 13884, Note_on_c, 0, 76, 0
2, 14028, Note_on_c, 0, 68, 75
2, 14028, Note_on_c, 0, 77, 75
2, 14076, Note_on_c, 0, 68, 0
2, 14076, Note_on_c, 0, 77, 0
2, 14220, Note_on_c, 0, 76, 75
2, 14220, Note_on_c, 0, 79, 75
2, 14268, Note_on_c, 0, 76, 0
2, 14268, Note_on_c, 0, 79, 0
2, 14412, Note_on_c, 0, 77, 75
2, 14412, Note_on_c, 0, 80, 75
2, 14460, Note_on_c, 0, 77, 0
2, 14460, Note_on_c, 0, 80, 0
2, 14604, Note_on_c, 0, 74, 75
2, 14604, Note_on_c, 0, 83, 75
2, 14652, Note_on_c, 0, 74, 0
2, 14652, Note_on_c, 0, 83, 0
2, 14796, Note_on_c, 0, 72, 75
2, 14796, Note_on_c, 0, 75, 75
2, 14796, Note_on_c, 0, 79, 75
2, 14796, Note_on_c, 0, 84, 75
2, 15132, Note_on_c, 0, 72, 0
2, 15132, Note_on_c, 0, 75, 0
2, 15132, Note_on_c, 0, 79, 0
2, 15132, Note_on_c, 0, 84, 0
2, 15180, Note_on_c, 0, 67, 75
2, 15180, Note_on_c, 0, 71, 75
2, 15180, Note_on_c, 0, 77, 75
2, 15180, Note_on_c, 0, 79, 75
2, 15516, Note_on_c, 0, 67, 0
2, 15516, Note_on_c, 0, 71, 0
2, 15516, Note_on_c, 0, 77, 0
2, 15516, Note_on_c, 0, 79, 0
2, 15564, Note_on_c, 0, 67, 75
2, 15564, Note_on_c, 0, 72, 75
2, 15564, Note_on_c, 0, 75, 75
2, 15900, Note_on_c, 0, 67, 0
2, 15900, Note_on_c, 0, 72, 0
2, 15900, Note_on_c, 0, 75, 0
2, 15948, Note_on_c, 0, 65, 75
2, 15948, Note_on_c, 0, 68, 75
2, 15948, Note_on_c, 0, 74, 75
2, 16284, Note_on_c, 0, 65, 0
2, 16284, Note_on_c, 0, 68, 0
2, 16284, Note_on_c, 0, 74, 0
2, 16332, Note_on_c, 0, 63, 75
2, 16332, Note_on_c, 0, 67, 75
2, 16332, Note_on_c, 0, 72, 75
2, 16668, Note_on_c, 0, 67, 0
2, 16716, Note_on_c, 0, 66, 75
2, 17052, Note_on_c, 0, 66, 0
2, 17100, Note_on_c, 0, 69, 75
2, 17436, Note_on_c, 0, 63, 0
2, 17436, Note_on_c, 0, 69, 0
2, 17436, Note_on_c, 0, 72, 0
2, 17484, Note_on_c, 0, 62, 75
2, 17484, Note_on_c, 0, 65, 75
2, 17484, Note_on_c, 0, 71, 75
2, 17820, Note_on_c, 0, 62, 0
2, 17820, Note_on_c, 0, 65, 0
2, 17820, Note_on_c, 0, 71, 0
2, 17868, Note_on_c, 0, 60, 75
2, 17868, Note_on_c, 0, 63, 75
2, 17868, Note_on_c, 0, 72, 75
2, 17916, Note_on_c, 0, 60, 0
2, 17916, Note_on_c, 0, 63, 0
2, 17916, Note_on_c, 0, 72, 0
2, 18060, Note_on_c, 0, 60, 75
2, 18396, Note_on_c, 0, 60, 0
2, 18444, Note_on_c, 0, 58, 75
2, 18444, Note_on_c, 0, 64, 75
2, 18492, Note_on_c, 0, 58, 0
2, 18492, Note_on_c, 0, 64, 0
2, 18636, Note_on_c, 0, 56, 75
2, 18636, Note_on_c, 0, 65, 75
2, 18684, Note_on_c, 0, 56, 0
2, 18684, Note_on_c, 0, 65, 0
2, 18828, Note_on_c, 0, 64, 75
2, 18828, Note_on_c, 0, 67, 75
2, 18876, Note_on_c, 0, 64, 0
2, 18876, Note_on_c, 0, 67, 0
2, 19020, Note_on_c, 0, 65, 75
2, 19020, Note_on_c, 0, 68, 75
2, 19068, Note_on_c, 0, 65, 0
2, 19068, Note_on_c, 0, 68, 0
2, 19212, Note_on_c, 0, 62, 75
2, 19212, Note_on_c, 0, 71, 75
2, 19260, Note_on_c, 0, 62, 0
2, 19260, Note_on_c, 0, 71, 0
2, 19404, Note_on_c, 0, 63, 75
2, 19404, Note_on_c, 0, 72, 75
2, 19452, Note_on_c, 0, 63, 0
2, 19452, Note_on_c, 0, 72, 0
2, 19596, Note_on_c, 0, 64, 75
2, 19596, Note_on_c, 0, 72, 75
2, 19980, Note_on_c, 0, 64, 0
2, 19980, Note_on_c, 0, 72, 0
2, 19980, Note_on_c, 0, 70, 75
2, 19980, Note_on_c, 0, 76, 75
2, 20028, Note_on_c, 0, 70, 0
2, 20028, Note_on_c, 0, 76, 0
2, 20172, Note_on_c, 0, 68, 75
2, 20172, Note_on_c, 0, 77, 75
2, 20220, Note_on_c, 0, 68, 0
2, 20220, Note_on_c, 0, 77, 0
2, 20364, Note_on_c, 0, 76, 75
2, 20364, Note_on_c, 0, 79, 75
2, 20412, Note_on_c, 0, 76, 0
2, 20412, Note_on_c, 0, 79, 0
2, 20556, Note_on_c, 0, 77, 75
2, 20556, Note_on_c, 0, 80, 75
2, 20604, Note_on_c, 0, 77, 0
2, 20604, Note_on_c, 0, 80, 0
2, 20748, Note_on_c, 0, 74, 75
2, 20748, Note_on_c, 0, 83, 75
2, 20796, Note_on_c, 0, 74, 0
2, 20796, Note_on_c, 0, 83, 0
2, 20940, Note_on_c, 0, 72, 75
2, 20940, Note_on_c, 0, 75, 75
2, 20940, Note_on_c, 0, 79, 75
2, 20940, Note_on_c, 0, 84, 75
2, 21276, Note_on_c, 0, 72, 0
2, 21276, Note_on_c, 0, 75, 0
2, 21276, Note_on_c, 0, 79, 0
2, 21276, Note_on_c, 0, 84, 0
2, 21324, Note_on_c, 0, 72, 75
2, 21324, Note_on_c, 0, 75, 75
2, 21324, Note_on_c, 0, 79, 75
2, 21324, Note_on_c, 0, 84, 75
2, 21660, Note_on_c, 0, 72, 0
2, 21660, Note_on_c, 0, 75, 0
2, 21660, Note_on_c, 0, 79, 0
2, 21660, Note_on_c, 0, 84, 0
2, 21708, Note_on_c, 0, 72, 75
2, 21708, Note_on_c, 0, 75, 75
2, 21708, Note_on_c, 0, 79, 75
2, 21708, Note_on_c, 0, 84, 75
2, 22044, Note_on_c, 0, 72, 0
2, 22044, Note_on_c, 0, 75, 0
2, 22044, Note_on_c, 0, 79, 0
2, 22044, Note_on_c, 0, 84, 0
2, 22092, Note_on_c, 0, 72, 75
2, 22092, Note_on_c, 0, 75, 75
2, 22092, Note_on_c, 0, 79, 75
2, 22092, Note_on_c, 0, 84, 75
2, 22428, Note_on_c, 0, 72, 0
2, 22428, Note_on_c, 0, 75, 0
2, 22428, Note_on_c, 0, 79, 0
2, 22428, Note_on_c, 0, 84, 0
2, 22476, Note_on_c, 0, 75, 75
2, 22476, Note_on_c, 0, 81, 75
2, 22476, Note_on_c, 0, 84, 75
2, 22476, Note_on_c, 0, 87, 75
2, 23964, Note_on_c, 0, 75, 0
2, 23964, Note_on_c, 0, 81, 0
2, 23964, Note_on_c, 0, 84, 0
2, 23964, Note_on_c, 0, 87, 0
2, 24084, Note_on_c, 0, 60, 75
2, 24084, Note_on_c, 0, 63, 75
2, 24084, Note_on_c, 0, 67, 75
2, 24276, Note_on_c, 0, 60, 0
2, 24276, Note_on_c, 0, 63, 0
2, 24276, Note_on_c, 0, 67, 0
2, 24276, Note_on_c, 0, 72, 75
2, 24276, Note_on_c, 0, 79, 75
2, 24324, Note_on_c, 0, 72, 0
2, 24324, Note_on_c, 0, 79, 0
2, 24468, Note_on_c, 0, 62, 75
2, 24468, Note_on_c, 0, 65, 75
2, 24468, Note_on_c, 0, 71, 75
2, 24804, Note_on_c, 0, 62, 0
2, 24804, Note_on_c, 0, 65, 0
2, 24804, Note_on_c, 0, 71, 0
2, 24852, Note_on_c, 0, 60, 60
2, 24978, Note_on_c, 0, 60, 0
2, 24980, Note_on_c, 0, 60, 60
2, 25362, Note_on_c, 0, 60, 0
2, 25364, Note_on_c, 0, 60, 60
2, 25426, Note_on_c, 0, 60, 0
2, 25428, Note_on_c, 0, 58, 60
2, 25428, Note_on_c, 0, 64, 60
2, 25554, Note_on_c, 0, 58, 0
2, 25554, Note_on_c, 0, 64, 0
2, 25556, Note_on_c, 0, 56, 60
2, 25556, Note_on_c, 0, 65, 60
2, 25618, Note_on_c, 0, 56, 0
2, 25618, Note_on_c, 0, 65, 0
2, 25812, Note_on_c, 0, 64, 60
2, 25812, Note_on_c, 0, 67, 60
2, 25938, Note_on_c, 0, 64, 0
2, 25938, Note_on_c, 0, 67, 0
2, 25940, Note_on_c, 0, 65, 60
2, 25940, Note_on_c, 0, 68, 60
2, 26002, Note_on_c, 0, 65, 0
2, 26002, Note_on_c, 0, 68, 0
2, 26196, Note_on_c, 0, 62, 60
2, 26196, Note_on_c, 0, 71, 60
2, 26322, Note_on_c, 0, 62, 0
2, 26322, Note_on_c, 0, 71, 0
2, 26324, Note_on_c, 0, 63, 60
2, 26324, Note_on_c, 0, 72, 60
2, 26386, Note_on_c, 0, 63, 0
2, 26386, Note_on_c, 0, 72, 0
2, 26516, Note_on_c, 0, 64, 60
2, 26516, Note_on_c, 0, 72, 60
2, 26898, Note_on_c, 0, 64, 0
2, 26898, Note_on_c, 0, 72, 0
2, 26900, Note_on_c, 0, 72, 60
2, 26962, Note_on_c, 0, 72, 0
2, 26964, Note_on_c, 0, 70, 60
2, 26964, Note_on_c, 0, 76, 60
2, 27090, Note_on_c, 0, 70, 0
2, 27090, Note_on_c, 0, 76, 0
2, 27092, Note_on_c, 0, 68, 60
2, 27092, Note_on_c, 0, 77, 60
2, 27154, Note_on_c, 0, 68, 0
2, 27154, Note_on_c, 0, 77, 0
2, 27348, Note_on_c, 0, 76, 60
2, 27348, Note_on_c, 0, 79, 60
2, 27474, Note_on_c, 0, 76, 0
2, 27474, Note_on_c, 0, 79, 0
2, 27476, Note_on_c, 0, 77, 60
2, 27476, Note_on_c, 0, 80, 60
2, 27538, Note_on_c, 0, 77, 0
2, 27538, Note_on_c, 0, 80, 0
2, 27732, Note_on_c, 0, 74, 60
2, 27732, Note_on_c, 0, 83, 60
2, 27858, Note_on_c, 0, 74, 0
2, 27858, Note_on_c, 0, 83, 0
2, 27860, Note_on_c, 0, 75, 60
2, 27860, Note_on_c, 0, 84, 60
2, 27922, Note_on_c, 0, 75, 0
2, 27922, Note_on_c, 0, 84, 0
2, 28020, Note_on_c, 0, 75, 92
2, 28020, Note_on_c, 0, 79, 92
2, 28020, Note_on_c, 0, 84, 92
2, 28056, Note_on_c, 0, 75, 0
2, 28056, Note_on_c, 0, 79, 0
2, 28056, Note_on_c, 0, 84, 0
2, 28056, Note_on_c, 0, 72, 92
2, 28092, Note_on_c, 0, 72, 0
2, 28092, Note_on_c, 0, 75, 92
2, 28092, Note_on_c, 0, 79, 92
2, 28092, Note_on_c, 0, 84, 92
2, 28128, Note_on_c, 0, 75, 0
2, 28128, Note_on_c, 0, 79, 0
2, 28128, Note_on_c, 0, 84, 0
2, 28128, Note_on_c, 0, 72, 92
2, 28164, Note_on_c, 0, 72, 0
2, 28164, Note_on_c, 0, 75, 92
2, 28164, Note_on_c, 0, 79, 92
2, 28164, Note_on_c, 0, 84, 92
2, 28200, Note_on_c, 0, 75, 0
2, 28200, Note_on_c, 0, 79, 0
2, 28200, Note_on_c, 0, 84, 0
2, 28200, Note_on_c, 0, 72, 92
2, 28236, Note_on_c, 0, 72, 0
2, 28236, Note_on_c, 0, 75, 92
2, 28236, Note_on_c, 0, 79, 92
2, 28236, Note_on_c, 0, 84, 92
2, 28272, Note_on_c, 0, 75, 0
2, 28272, Note_on_c, 0, 79, 0
2, 28272, Note_on_c, 0, 84, 0
2, 28272, Note_on_c, 0, 72, 92
2, 28306, Note_on_c, 0, 72, 0
2, 28404, Note_on_c, 0, 71, 92
2, 28404, Note_on_c, 0, 77, 92
2, 28404, Note_on_c, 0, 79, 92
2, 28440, Note_on_c, 0, 71, 0
2, 28440, Note_on_c, 0, 77, 0
2, 28440, Note_on_c, 0, 79, 0
2, 28440, Note_on_c, 0, 67, 92
2, 28476, Note_on_c, 0, 67, 0
2, 28476, Note_on_c, 0, 71, 92
2, 28476, Note_on_c, 0, 77, 92
2, 28476, Note_on_c, 0, 79, 92
2, 28512, Note_on_c, 0, 71, 0
2, 28512, Note_on_c, 0, 77, 0
2, 28512, Note_on_c, 0, 79, 0
2, 28512, Note_on_c, 0, 67, 92
2, 28548, Note_on_c, 0, 67, 0
2, 28548, Note_on_c, 0, 71, 92
2, 28548, Note_on_c, 0, 77, 92
2, 28548, Note_on_c, 0, 79, 92
2, 28584, Note_on_c, 0, 71, 0
2, 28584, Note_on_c, 0, 77, 0
2, 28584, Note_on_c, 0, 79, 0
2, 28584, Note_on_c, 0, 67, 92
2, 28620, Note_on_c, 0, 67, 0
2, 28620, Note_on_c, 0, 71, 92
2, 28620, Note_on_c, 0, 77, 92
2, 28620, Note_on_c, 0, 79, 92
2, 28656, Note_on_c, 0, 71, 0
2, 28656, Note_on_c, 0, 77, 0
2, 28656, Note_on_c, 0, 79, 0
2, 28656, Note_on_c, 0, 67, 92
2, 28690, Note_on_c, 0, 67, 0
2, 28788, Note_on_c, 0, 72, 92
2, 28788, Note_on_c, 0, 75, 92
2, 28824, Note_on_c, 0, 72, 0
2, 28824, Note_on_c, 0, 75, 0
2, 28824, Note_on_c, 0, 67, 92
2, 28860, Note_on_c, 0, 67, 0
2, 28860, Note_on_c, 0, 72, 92
2, 28860, Note_on_c, 0, 75, 92
2, 28896, Note_on_c, 0, 72, 0
2, 28896, Note_on_c, 0, 75, 0
2, 28896, Note_on_c, 0, 67, 92
2, 28932, Note_on_c, 0, 67, 0
2, 28932, Note_on_c, 0, 72, 92
2, 28932, Note_on_c, 0, 75, 92
2, 28968, Note_on_c, 0, 72, 0
2, 28968, Note_on_c, 0, 75, 0
2, 28968, Note_on_c, 0, 67, 92
2, 29004, Note_on_c, 0, 67, 0
2, 29004, Note_on_c, 0, 72, 92
2, 29004, Note_on_c, 0, 75, 92
2, 29040, Note_on_c, 0, 72, 0
2, 29040, Note_on_c, 0, 75, 0
2, 29040, Note_on_c, 0, 67, 92
2, 29074, Note_on_c, 0, 67, 0
2, 29172, Note_on_c, 0, 68, 92
2, 29172, Note_on_c, 0, 74, 92
2, 29208, Note_on_c, 0, 68, 0
2, 29208, Note_on_c, 0, 74, 0
2, 29208, Note_on_c, 0, 65, 92
2, 29244, Note_on_c, 0, 65, 0
2, 29244, Note_on_c, 0, 68, 92
2, 29244, Note_on_c, 0, 74, 92
2, 29280, Note_on_c, 0, 68, 0
2, 29280, Note_on_c, 0, 74, 0
2, 29280, Note_on_c, 0, 65, 92
2, 29316, Note_on_c, 0, 65, 0
2, 29316, Note_on_c, 0, 68, 92
2, 29316, Note_on_c, 0, 74, 92
2, 29352, Note_on_c, 0, 68, 0
2, 29352, Note_on_c, 0, 74, 0
2, 29352, Note_on_c, 0, 65, 92
2, 29388, Note_on_c, 0, 65, 0
2, 29388, Note_on_c, 0, 68, 92
2, 29388, Note_on_c, 0, 74, 92
2, 29424, Note_on_c, 0, 68, 0
2, 29424, Note_on_c, 0, 74, 0
2, 29424, Note_on_c, 0, 65, 92
2, 29458, Note_on_c, 0, 65, 0
2, 29556, Note_on_c, 0, 67, 92
2, 29556, Note_on_c, 0, 72, 92
2, 29592, Note_on_c, 0, 67, 0
2, 29592, Note_on_c, 0, 72, 0
2, 29592, Note_on_c, 0, 63, 92
2, 29628, Note_on_c, 0, 63, 0
2, 29628, Note_on_c, 0, 67, 92
2, 29628, Note_on_c, 0, 72, 92
2, 29664, Note_on_c, 0, 67, 0
2, 29664, Note_on_c, 0, 72, 0
2, 29664, Note_on_c, 0, 63, 92
2, 29700, Note_on_c, 0, 63, 0
2, 29700, Note_on_c, 0, 67, 92
2, 29700, Note_on_c, 0, 72, 92
2, 29736, Note_on_c, 0, 67, 0
2, 29736, Note_on_c, 0, 72, 0
2, 29736, Note_on_c, 0, 63, 92
2, 29772, Note_on_c, 0, 63, 0
2, 29772, Note_on_c, 0, 67, 92
2, 29772, Note_on_c, 0, 72, 92
2, 29808, Note_on_c, 0, 67, 0
2, 29808, Note_on_c, 0, 72, 0
2, 29808, Note_on_c, 0, 63, 92
2, 29842, Note_on_c, 0, 63, 0
2, 29940, Note_on_c, 0, 66, 92
2, 29940, Note_on_c, 0, 72, 92
2, 29976, Note_on_c, 0, 66, 0
2, 29976, Note_on_c, 0, 72, 0
2, 29976, Note_on_c, 0, 63, 92
2, 30012, Note_on_c, 0, 63, 0
2, 30012, Note_on_c, 0, 66, 92
2, 30012, Note_on_c, 0, 72, 92
2, 30048, Note_on_c, 0, 66, 0
2, 30048, Note_on_c, 0, 72, 0
2, 30048, Note_on_c, 0, 63, 92
2, 30084, Note_on_c, 0, 63, 0
2, 30084, Note_on_c, 0, 66, 92
2, 30084, Note_on_c, 0, 72, 92
2, 30120, Note_on_c, 0, 66, 0
2, 30120, Note_on_c, 0, 72, 0
2, 30120, Note_on_c, 0, 63, 92
2, 30156, Note_on_c, 0, 63, 0
2, 30156, Note_on_c, 0, 66, 92
2, 30156, Note_on_c, 0, 72, 92
2, 30192, Note_on_c, 0, 66, 0
2, 30192, Note_on_c, 0, 72, 0
2, 30192, Note_on_c, 0, 63, 92
2, 30226, Note_on_c, 0, 63, 0
2, 30228, Note_on_c, 0, 63, 92
2, 30228, Note_on_c, 0, 69, 92
2, 30228, Note_on_c, 0, 72, 92
2, 30276, Note_on_c, 0, 63, 0
2, 30276, Note_on_c, 0, 69, 0
2, 30276, Note_on_c, 0, 72, 0
2, 30420, Note_on_c, 0, 62, 92
2, 30420, Note_on_c, 0, 65, 92
2, 30420, Note_on_c, 0, 71, 92
2, 30996, Note_on_c, 0, 62, 0
2, 30996, Note_on_c, 0, 65, 0
2, 30996, Note_on_c, 0, 71, 0
2, 30996, Note_on_c, 0, 60, 75
2, 31122, Note_on_c, 0, 60, 0
2, 31124, Note_on_c, 0, 60, 75
2, 31506, Note_on_c, 0, 60, 0
2, 31508, Note_on_c, 0, 60, 75
2, 31570, Note_on_c, 0, 60, 0
2, 31572, Note_on_c, 0, 58, 75
2, 31572, Note_on_c, 0, 64, 75
2, 31698, Note_on_c, 0, 58, 0
2, 31698, Note_on_c, 0, 64, 0
2, 31700, Note_on_c, 0, 56, 75
2, 31700, Note_on_c, 0, 65, 75
2, 31762, Note_on_c, 0, 56, 0
2, 31762, Note_on_c, 0, 65, 0
2, 31956, Note_on_c, 0, 64, 75
2, 31956, Note_on_c, 0, 67, 75
2, 32082, Note_on_c, 0, 64, 0
2, 32082, Note_on_c, 0, 67, 0
2, 32084, Note_on_c, 0, 65, 75
2, 32084, Note_on_c, 0, 68, 75
2, 32146, Note_on_c, 0, 65, 0
2, 32146, Note_on_c, 0, 68, 0
2, 32340, Note_on_c, 0, 62, 75
2, 32340, Note_on_c, 0, 71, 75
2, 32466, Note_on_c, 0, 62, 0
2, 32466, Note_on_c, 0, 71, 0
2, 32468, Note_on_c, 0, 63, 75
2, 32468, Note_on_c, 0, 72, 75
2, 32530, Note_on_c, 0, 63, 0
2, 32530, Note_on_c, 0, 72, 0
2, 32660, Note_on_c, 0, 64, 75
2, 32660, Note_on_c, 0, 72, 75
2, 33042, Note_on_c, 0, 64, 0
2, 33042, Note_on_c, 0, 72, 0
2, 33044, Note_on_c, 0, 72, 75
2, 33106, Note_on_c, 0, 72, 0
2, 33108, Note_on_c, 0, 70, 75
2, 33108, Note_on_c, 0, 76, 75
2, 33234, Note_on_c, 0, 70, 0
2, 33234, Note_on_c, 0, 76, 0
2, 33236, Note_on_c, 0, 68, 75
2, 33236, Note_on_c, 0, 77, 75
2, 33298, Note_on_c, 0, 68, 0
2, 33298, Note_on_c, 0, 77, 0
2, 33492, Note_on_c, 0, 76, 75
2, 33492, Note_on_c, 0, 79, 75
2, 33618, Note_on_c, 0, 76, 0
2, 33618, Note_on_c, 0, 79, 0
2, 33620, Note_on_c, 0, 77, 75
2, 33620, Note_on_c, 0, 80, 75
2, 33682, Note_on_c, 0, 77, 0
2, 33682, Note_on_c, 0, 80, 0
2, 33876, Note_on_c, 0, 74, 75
2, 33876, Note_on_c, 0, 83, 75
2, 34002, Note_on_c, 0, 74, 0
2, 34002, Note_on_c, 0, 83, 0
2, 34004, Note_on_c, 0, 75, 75
2, 34004, Note_on_c, 0, 84, 75
2, 34066, Note_on_c, 0, 75, 0
2, 34066, Note_on_c, 0, 84, 0
2, 34164, Note_on_c, 0, 75, 75
2, 34164, Note_on_c, 0, 79, 75
2, 34164, Note_on_c, 0, 84, 75
2, 34200, Note_on_c, 0, 75, 0
2, 34200, Note_on_c, 0, 79, 0
2, 34200, Note_on_c, 0, 84, 0
2, 34200, Note_on_c, 0, 72, 75
2, 34236, Note_on_c, 0, 72, 0
2, 34236, Note_on_c, 0, 75, 75
2, 34236, Note_on_c, 0, 79, 75
2, 34236, Note_on_c, 0, 84, 75
2, 34272, Note_on_c, 0, 75, 0
2, 34272, Note_on_c, 0, 79, 0
2, 34272, Note_on_c, 0, 84, 0
2, 34272, Note_on_c, 0, 72, 75
2, 34308, Note_on_c, 0, 72, 0
2, 34308, Note_on_c, 0, 75, 75
2, 34308, Note_on_c, 0, 79, 75
2, 34308, Note_on_c, 0, 84, 75
2, 34344, Note_on_c, 0, 75, 0
2, 34344, Note_on_c, 0, 79, 0
2, 34344, Note_on_c, 0, 84, 0
2, 34344, Note_on_c, 0, 72, 75
2, 34380, Note_on_c, 0, 72, 0
2, 34380, Note_on_c, 0, 75, 75
2, 34380, Note_on_c, 0, 79, 75
2, 34380, Note_on_c, 0, 84, 75
2, 34416, Note_on_c, 0, 75, 0
2, 34416, Note_on_c, 0, 79, 0
2, 34416, Note_on_c, 0, 84, 0
2, 34416, Note_on_c, 0, 72, 75
2, 34450, Note_on_c, 0, 72, 0
2, 34548, Note_on_c, 0, 71, 75
2, 34548, Note_on_c, 0, 77, 75
2, 34548, Note_on_c, 0, 79, 75
2, 34584, Note_on_c, 0, 71, 0
2, 34584, Note_on_c, 0, 77, 0
2, 34584, Note_on_c, 0, 79, 0
2, 34584, Note_on_c, 0, 67, 75
2, 34620, Note_on_c, 0, 67, 0
2, 34620, Note_on_c, 0, 71, 75
2, 34620, Note_on_c, 0, 77, 75
2, 34620, Note_on_c, 0, 79, 75
2, 34656, Note_on_c, 0, 71, 0
2, 34656, Note_on_c, 0, 77, 0
2, 34656, Note_on_c, 0, 79, 0
2, 34656, Note_on_c, 0, 67, 75
2, 34692, Note_on_c, 0, 67, 0
2, 34692, Note_on_c, 0, 71, 75
2, 34692, Note_on_c, 0, 77, 75
2, 34692, Note_on_c, 0, 79, 75
2, 34728, Note_on_c, 0, 71, 0
2, 34728, Note_on_c, 0, 77, 0
2, 34728, Note_on_c, 0, 79, 0
2, 34728, Note_on_c, 0, 67, 75
2, 34764, Note_on_c, 0, 67, 0
2, 34764, Note_on_c, 0, 71, 75
2, 34764, Note_on_c, 0, 77, 75
2, 34764, Note_on_c, 0, 79, 75
2, 34800, Note_on_c, 0, 71, 0
2, 34800, Note_on_c, 0, 77, 0
2, 34800, Note_on_c, 0, 79, 0
2, 34800, Note_on_c, 0, 67, 75
2, 34834, Note_on_c, 0, 67, 0
2, 34932, Note_on_c, 0, 72, 75
2, 34932, Note_on_c, 0, 75, 75
2, 34968, Note_on_c, 0, 72, 0
2, 34968, Note_on_c, 0, 75, 0
2, 34968, Note_on_c, 0, 67, 75
2, 35004, Note_on_c, 0, 67, 0
2, 35004, Note_on_c, 0, 72, 75
2, 35004, Note_on_c, 0, 75, 75
2, 35040, Note_on_c, 0, 72, 0
2, 35040, Note_on_c, 0, 75, 0
2, 35040, Note_on_c, 0, 67, 75
2, 35076, Note_on_c, 0, 67, 0
2, 35076, Note_on_c, 0, 72, 75
2, 35076, Note_on_c, 0, 75, 75
2, 35112, Note_on_c, 0, 72, 0
2, 35112, Note_on_c, 0, 75, 0
2, 35112, Note_on_c, 0, 67, 75
2, 35148, Note_on_c, 0, 67, 0
2, 35148, Note_on_c, 0, 72, 75
2, 35148, Note_on_c, 0, 75, 75
2, 35184, Note_on_c, 0, 72, 0
2, 35184, Note_on_c, 0, 75, 0
2, 35184, Note_on_c, 0, 67, 75
2, 35218, Note_on_c, 0, 67, 0
2, 35316, Note_on_c, 0, 68, 75
2, 35316, Note_on_c, 0, 74, 75
2, 35352, Note_on_c, 0, 68, 0
2, 35352, Note_on_c, 0, 74, 0
2, 35352, Note_on_c, 0, 65, 75
2, 35388, Note_on_c, 0, 65, 0
2, 35388, Note_on_c, 0, 68, 75
2, 35388, Note_on_c, 0, 74, 75
2, 35424, Note_on_c, 0, 68, 0
2, 35424, Note_on_c, 0, 74, 0
2, 35424, Note_on_c, 0, 65, 75
2, 35460, Note_on_c, 0, 65, 0
2, 35460, Note_on_c, 0, 68, 75
2, 35460, Note_on_c, 0, 74, 75
2, 35496, Note_on_c, 0, 68, 0
2, 35496, Note_on_c, 0, 74, 0
2, 35496, Note_on_c, 0, 65, 75
2, 35532, Note_on_c, 0, 65, 0
2, 35532, Note_on_c, 0, 68, 75
2, 35532, Note_on_c, 0, 74, 75
2, 35568, Note_on_c, 0, 68, 0
2, 35568, Note_on_c, 0, 74, 0
2, 35568, Note_on_c, 0, 65, 75
2, 35602, Note_on_c, 0, 65, 0
2, 35700, Note_on_c, 0, 67, 75
2, 35700, Note_on_c, 0, 72, 75
2, 35736, Note_on_c, 0, 67, 0
2, 35736, Note_on_c, 0, 72, 0
2, 35736, Note_on_c, 0, 63, 75
2, 35772, Note_on_c, 0, 63, 0
2, 35772, Note_on_c, 0, 67, 75
2, 35772, Note_on_c, 0, 72, 75
2, 35808, Note_on_c, 0, 67, 0
2, 35808, Note_on_c, 0, 72, 0
2, 35808, Note_on_c, 0, 63, 75
2, 35844, Note_on_c, 0, 63, 0
2, 35844, Note_on_c, 0, 67, 75
2, 35844, Note_on_c, 0, 72, 75
2, 35880, Note_on_c, 0, 67, 0
2, 35880, Note_on_c, 0, 72, 0
2, 35880, Note_on_c, 0, 63, 75
2, 35916, Note_on_c, 0, 63, 0
2, 35916, Note_on_c, 0, 67, 75
2, 35916, Note_on_c, 0, 72, 75
2, 35952, Note_on_c, 0, 67, 0
2, 35952, Note_on_c, 0, 72, 0
2, 35952, Note_on_c, 0, 63, 75
2, 35986, Note_on_c, 0, 63, 0
2, 36084, Note_on_c, 0, 66, 75
2, 36084, Note_on_c, 0, 72, 75
2, 36120, Note_on_c, 0, 66, 0
2, 36120, Note_on_c, 0, 72, 0
2, 36120, Note_on_c, 0, 63, 75
2, 36156, Note_on_c, 0, 63, 0
2, 36156, Note_on_c, 0, 66, 75
2, 36156, Note_on_c, 0, 72, 75
2, 36192, Note_on_c, 0, 66, 0
2, 36192, Note_on_c, 0, 72, 0
2, 36192, Note_on_c, 0, 63, 75
2, 36228, Note_on_c, 0, 63, 0
2, 36228, Note_on_c, 0, 66, 75
2, 36228, Note_on_c, 0, 72, 75
2, 36264, Note_on_c, 0, 66, 0
2, 36264, Note_on_c, 0, 72, 0
2, 36264, Note_on_c, 0, 63, 75
2, 36300, Note_on_c, 0, 63, 0
2, 36300, Note_on_c, 0, 66, 75
2, 36300, Note_on_c, 0, 72, 75
2, 36336, Note_on_c, 0, 66, 0
2, 36336, Note_on_c, 0, 72, 0
2, 36336, Note_on_c, 0, 63, 75
2, 36370, Note_on_c, 0, 63, 0
2, 36372, Note_on_c, 0, 63, 75
2, 36372, Note_on_c, 0, 69, 75
2, 36372, Note_on_c, 0, 72, 75
2, 36564, Note_on_c, 0, 63, 0
2, 36564, Note_on_c, 0, 69, 0
2, 36564, Note_on_c, 0, 72, 0
2, 36564, Note_on_c, 0, 62, 75
2, 36564, Note_on_c, 0, 65, 75
2, 36564, Note_on_c, 0, 71, 75
2, 37140, Note_on_c, 0, 62, 0
2, 37140, Note_on_c, 0, 65, 0
2, 37140, Note_on_c, 0, 71, 0
2, 37140, Note_on_c, 0, 67, 45
2, 37860, Note_on_c, 0, 67, 0
2, 37908, Note_on_c, 0, 67, 45
2, 38770, Note_on_c, 0, 67, 0
2, 38772, Note_on_c, 0, 77, 45
2, 38866, Note_on_c, 0, 77, 0
2, 38868, Note_on_c, 0, 74, 45
2, 38962, Note_on_c, 0, 74, 0
2, 38964, Note_on_c, 0, 71, 45
2, 39058, Note_on_c, 0, 71, 0
2, 39060, Note_on_c, 0, 67, 45
2, 39154, Note_on_c, 0, 67, 0
2, 39156, Note_on_c, 0, 65, 45
2, 39250, Note_on_c, 0, 65, 0
2, 39252, Note_on_c, 0, 62, 45
2, 39346, Note_on_c, 0, 62, 0
2, 39348, Note_on_c, 0, 59, 45
2, 39442, Note_on_c, 0, 59, 0
2, 39444, Note_on_c, 0, 60, 45
2, 39538, Note_on_c, 0, 60, 0
2, 39540, Note_on_c, 0, 63, 45
2, 39634, Note_on_c, 0, 63, 0
2, 39636, Note_on_c, 0, 60, 45
2, 39730, Note_on_c, 0, 60, 0
2, 39732, Note_on_c, 0, 55, 45
2, 39826, Note_on_c, 0, 55, 0
2, 39828, Note_on_c, 0, 54, 45
2, 39922, Note_on_c, 0, 54, 0
2, 39924, Note_on_c, 0, 60, 45
2, 40018, Note_on_c, 0, 60, 0
2, 40020, Note_on_c, 0, 56, 45
2, 40114, Note_on_c, 0, 56, 0
2, 40116, Note_on_c, 0, 54, 45
2, 40210, Note_on_c, 0, 54, 0
2, 40212, Note_on_c, 0, 55, 45
2, 40372, Note_on_c, 0, 55, 0
2, 40596, Note_on_c, 0, 67, 45
2, 41140, Note_on_c, 0, 67, 0
2, 41364, Note_on_c, 0, 67, 45
2, 41842, Note_on_c, 0, 67, 0
2, 41844, Note_on_c, 0, 77, 45
2, 41938, Note_on_c, 0, 77, 0
2, 41940, Note_on_c, 0, 74, 45
2, 42034, Note_on_c, 0, 74, 0
2, 42036, Note_on_c, 0, 71, 45
2, 42130, Note_on_c, 0, 71, 0
2, 42132, Note_on_c, 0, 67, 45
2, 42226, Note_on_c, 0, 67, 0
2, 42228, Note_on_c, 0, 65, 45
2, 42322, Note_on_c, 0, 65, 0
2, 42324, Note_on_c, 0, 62, 45
2, 42418, Note_on_c, 0, 62, 0
2, 42420, Note_on_c, 0, 59, 45
2, 42514, Note_on_c, 0, 59, 0
2, 42516, Note_on_c, 0, 60, 45
2, 42610, Note_on_c, 0, 60, 0
2, 42612, Note_on_c, 0, 63, 45
2, 42706, Note_on_c, 0, 63, 0
2, 42708, Note_on_c, 0, 60, 45
2, 42802, Note_on_c, 0, 60, 0
2, 42804, Note_on_c, 0, 55, 45
2, 42898, Note_on_c, 0, 55, 0
2, 42900, Note_on_c, 0, 54, 92
2, 42994, Note_on_c, 0, 54, 0
2, 42996, Note_on_c, 0, 60, 92
2, 43090, Note_on_c, 0, 60, 0
2, 43092, Note_on_c, 0, 56, 92
2, 43186, Note_on_c, 0, 56, 0
2, 43188, Note_on_c, 0, 54, 92
2, 43282, Note_on_c, 0, 54, 0
2, 43284, Note_on_c, 0, 55, 92
2, 43444, Note_on_c, 0, 55, 0
2, 43476, Note_on_c, 0, 54, 92
2, 43636, Note_on_c, 0, 54, 0
2, 43668, Note_on_c, 0, 55, 92
2, 43828, Note_on_c, 0, 55, 0
2, 43860, Note_on_c, 0, 60, 92
2, 43860, Note_on_c, 0, 66, 92
2, 44020, Note_on_c, 0, 60, 0
2, 44020, Note_on_c, 0, 66, 0
2, 44052, Note_on_c, 0, 62, 92
2, 44052, Note_on_c, 0, 67, 92
2, 44212, Note_on_c, 0, 62, 0
2, 44212, Note_on_c, 0, 67, 0
2, 44244, Note_on_c, 0, 67, 92
2, 44244, Note_on_c, 0, 73, 92
2, 44404, Note_on_c, 0, 67, 0
2, 44404, Note_on_c, 0, 73, 0
2, 44436, Note_on_c, 0, 66, 92
2, 44436, Note_on_c, 0, 72, 92
2, 44596, Note_on_c, 0, 66, 0
2, 44596, Note_on_c, 0, 72, 0
2, 44628, Note_on_c, 0, 72, 92
2, 44628, Note_on_c, 0, 78, 92
2, 44788, Note_on_c, 0, 72, 0
2, 44788, Note_on_c, 0, 78, 0
2, 44820, Note_on_c, 0, 74, 92
2, 44820, Note_on_c, 0, 79, 92
2, 44980, Note_on_c, 0, 74, 0
2, 44980, Note_on_c, 0, 79, 0
2, 45012, Note_on_c, 0, 79, 92
2, 45012, Note_on_c, 0, 85, 92
2, 45172, Note_on_c, 0, 79, 0
2, 45172, Note_on_c, 0, 85, 0
2, 45204, Note_on_c, 0, 78, 92
2, 45204, Note_on_c, 0, 84, 92
2, 45364, Note_on_c, 0, 78, 0
2, 45364, Note_on_c, 0, 84, 0
2, 45396, Note_on_c, 0, 84, 92
2, 45396, Note_on_c, 0, 90, 92
2, 45556, Note_on_c, 0, 84, 0
2, 45556, Note_on_c, 0, 90, 0
2, 45588, Note_on_c, 0, 86, 92
2, 45588, Note_on_c, 0, 91, 92
2, 45748, Note_on_c, 0, 86, 0
2, 45748, Note_on_c, 0, 91, 0
2, 45780, Note_on_c, 0, 91, 92
2, 45780, Note_on_c, 0, 97, 92
2, 45940, Note_on_c, 0, 91, 0
2, 45940, Note_on_c, 0, 97, 0
2, 45972, Note_on_c, 0, 90, 92
2, 45972, Note_on_c, 0, 96, 92
2, 46132, Note_on_c, 0, 90, 0
2, 46132, Note_on_c, 0, 96, 0
2, 46164, Note_on_c, 0, 96, 92
2, 46164, Note_on_c, 0, 102, 92
2, 46324, Note_on_c, 0, 96, 0
2, 46324, Note_on_c, 0, 102, 0
2, 46356, Note_on_c, 0, 98, 92
2, 46356, Note_on_c, 0, 103, 92
2, 46692, Note_on_c, 0, 98, 0
2, 46692, Note_on_c, 0, 103, 0
2, 49716, Note_on_c, 0, 60, 45
2, 49716, Note_on_c, 0, 64, 45
2, 49810, Note_on_c, 0, 60, 0
2, 49810, Note_on_c, 0, 64, 0
2, 49812, Note_on_c, 0, 58, 75
2, 49824, Note_on_c, 0, 58, 0
2, 49824, Note_on_c, 0, 59, 75
2, 49824, Note_on_c, 0, 62, 75
2, 49906, Note_on_c, 0, 59, 0
2, 49906, Note_on_c, 0, 62, 0
2, 50100, Note_on_c, 0, 62, 75
2, 50100, Note_on_c, 0, 65, 75
2, 50194, Note_on_c, 0, 62, 0
2, 50194, Note_on_c, 0, 65, 0
2, 50196, Note_on_c, 0, 60, 75
2, 50196, Note_on_c, 0, 64, 75
2, 50290, Note_on_c, 0, 60, 0
2, 50290, Note_on_c, 0, 64, 0
2, 50484, Note_on_c, 0, 60, 75
2, 50484, Note_on_c, 0, 64, 75
2, 50578, Note_on_c, 0, 60, 0
2, 50578, Note_on_c, 0, 64, 0
2, 50580, Note_on_c, 0, 58, 75
2, 50592, Note_on_c, 0, 58, 0
2, 50592, Note_on_c, 0, 59, 75
2, 50592, Note_on_c, 0, 62, 75
2, 50674, Note_on_c, 0, 59, 0
2, 50674, Note_on_c, 0, 62, 0
2, 50868, Note_on_c, 0, 62, 75
2, 50868, Note_on_c, 0, 65, 75
2, 50962, Note_on_c, 0, 62, 0
2, 50962, Note_on_c, 0, 65, 0
2, 50964, Note_on_c, 0, 60, 75
2, 50964, Note_on_c, 0, 64, 75
2, 51058, Note_on_c, 0, 60, 0
2, 51058, Note_on_c, 0, 64, 0
2, 51252, Note_on_c, 0, 60, 75
2, 51252, Note_on_c, 0, 64, 75
2, 51346, Note_on_c, 0, 60, 0
2, 51346, Note_on_c, 0, 64, 0
2, 51348, Note_on_c, 0, 58, 75
2, 51360, Note_on_c, 0, 58, 0
2, 51360, Note_on_c, 0, 59, 75
2, 51360, Note_on_c, 0, 62, 75
2, 51442, Note_on_c, 0, 59, 0
2, 51442, Note_on_c, 0, 62, 0
2, 51636, Note_on_c, 0, 62, 75
2, 51636, Note_on_c, 0, 65, 75
2, 51730, Note_on_c, 0, 62, 0
2, 51730, Note_on_c, 0, 65, 0
2, 51732, Note_on_c, 0, 60, 75
2, 51732, Note_on_c, 0, 64, 75
2, 51826, Note_on_c, 0, 60, 0
2, 51826, Note_on_c, 0, 64, 0
2, 52020, Note_on_c, 0, 60, 75
2, 52020, Note_on_c, 0, 64, 75
2, 52114, Note_on_c, 0, 60, 0
2, 52114, Note_on_c, 0, 64, 0
2, 52116, Note_on_c, 0, 58, 75
2, 52128, Note_on_c, 0, 58, 0
2, 52128, Note_on_c, 0, 59, 75
2, 52128, Note_on_c, 0, 62, 75
2, 52210, Note_on_c, 0, 59, 0
2, 52210, Note_on_c, 0, 62, 0
2, 52404, Note_on_c, 0, 62, 75
2, 52404, Note_on_c, 0, 65, 75
2, 52498, Note_on_c, 0, 62, 0
2, 52498, Note_on_c, 0, 65, 0
2, 52500, Note_on_c, 0, 60, 75
2, 52500, Note_on_c, 0, 64, 75
2, 52594, Note_on_c, 0, 60, 0
2, 52594, Note_on_c, 0, 64, 0
2, 52788, Note_on_c, 0, 65, 75
2, 52788, Note_on_c, 0, 69, 75
2, 52882, Note_on_c, 0, 65, 0
2, 52882, Note_on_c, 0, 69, 0
2, 52884, Note_on_c, 0, 64, 75
2, 52884, Note_on_c, 0, 67, 75
2, 52978, Note_on_c, 0, 64, 0
2, 52978, Note_on_c, 0, 67, 0
2, 53172, Note_on_c, 0, 66, 75
2, 53172, Note_on_c, 0, 70, 75
2, 53266, Note_on_c, 0, 66, 0
2, 53266, Note_on_c, 0, 70, 0
2, 53268, Note_on_c, 0, 65, 75
2, 53268, Note_on_c, 0, 69, 75
2, 53362, Note_on_c, 0, 65, 0
2, 53362, Note_on_c, 0, 69, 0
2, 53556, Note_on_c, 0, 65, 75
2, 53556, Note_on_c, 0, 69, 75
2, 53650, Note_on_c, 0, 65, 0
2, 53650, Note_on_c, 0, 69, 0
2, 53652, Note_on_c, 0, 64, 75
2, 53652, Note_on_c, 0, 67, 75
2, 53746, Note_on_c, 0, 64, 0
2, 53746, Note_on_c, 0, 67, 0
2, 53940, Note_on_c, 0, 66, 75
2, 53940, Note_on_c, 0, 70, 75
2, 54034, Note_on_c, 0, 66, 0
2, 54034, Note_on_c, 0, 70, 0
2, 54036, Note_on_c, 0, 65, 75
2, 54036, Note_on_c, 0, 69, 75
2, 54130, Note_on_c, 0, 65, 0
2, 54130, Note_on_c, 0, 69, 0
2, 54324, Note_on_c, 0, 60, 75
2, 54324, Note_on_c, 0, 64, 75
2, 54418, Note_on_c, 0, 60, 0
2, 54418, Note_on_c, 0, 64, 0
2, 54420, Note_on_c, 0, 59, 75
2, 54420, Note_on_c, 0, 62, 75
2, 54514, Note_on_c, 0, 59, 0
2, 54514, Note_on_c, 0, 62, 0
2, 54708, Note_on_c, 0, 61, 75
2, 54708, Note_on_c, 0, 65, 75
2, 54802, Note_on_c, 0, 61, 0
2, 54802, Note_on_c, 0, 65, 0
2, 54804, Note_on_c, 0, 60, 75
2, 54804, Note_on_c, 0, 64, 75
2, 54898, Note_on_c, 0, 60, 0
2, 54898, Note_on_c, 0, 64, 0
2, 55092, Note_on_c, 0, 60, 75
2, 55092, Note_on_c, 0, 64, 75
2, 55186, Note_on_c, 0, 60, 0
2, 55186, Note_on_c, 0, 64, 0
2, 55188, Note_on_c, 0, 59, 75
2, 55188, Note_on_c, 0, 62, 75
2, 55282, Note_on_c, 0, 59, 0
2, 55282, Note_on_c, 0, 62, 0
2, 55476, Note_on_c, 0, 61, 75
2, 55476, Note_on_c, 0, 65, 75
2, 55570, Note_on_c, 0, 61, 0
2, 55570, Note_on_c, 0, 65, 0
2, 55572, Note_on_c, 0, 60, 75
2, 55572, Note_on_c, 0, 64, 75
2, 55666, Note_on_c, 0, 60, 0
2, 55666, Note_on_c, 0, 64, 0
2, 55860, Note_on_c, 0, 67, 75
2, 55860, Note_on_c, 0, 71, 75
2, 55954, Note_on_c, 0, 67, 0
2, 55954, Note_on_c, 0, 71, 0
2, 55956, Note_on_c, 0, 66, 75
2, 55956, Note_on_c, 0, 69, 75
2, 56050, Note_on_c, 0, 66, 0
2, 56050, Note_on_c, 0, 69, 0
2, 56244, Note_on_c, 0, 68, 75
2, 56244, Note_on_c, 0, 72, 75
2, 56338, Note_on_c, 0, 68, 0
2, 56338, Note_on_c, 0, 72, 0
2, 56340, Note_on_c, 0, 67, 75
2, 56340, Note_on_c, 0, 71, 75
2, 56434, Note_on_c, 0, 67, 0
2, 56434, Note_on_c, 0, 71, 0
2, 56628, Note_on_c, 0, 65, 75
2, 56628, Note_on_c, 0, 69, 75
2, 56722, Note_on_c, 0, 65, 0
2, 56722, Note_on_c, 0, 69, 0
2, 56724, Note_on_c, 0, 64, 75
2, 56724, Note_on_c, 0, 67, 75
2, 56818, Note_on_c, 0, 64, 0
2, 56818, Note_on_c, 0, 67, 0
2, 57012, Note_on_c, 0, 66, 75
2, 57012, Note_on_c, 0, 70, 75
2, 57106, Note_on_c, 0, 66, 0
2, 57106, Note_on_c, 0, 70, 0
2, 57108, Note_on_c, 0, 65, 75
2, 57108, Note_on_c, 0, 69, 75
2, 57202, Note_on_c, 0, 65, 0
2, 57202, Note_on_c, 0, 69, 0
2, 57396, Note_on_c, 0, 60, 75
2, 57396, Note_on_c, 0, 64, 75
2, 57490, Note_on_c, 0, 60, 0
2, 57490, Note_on_c, 0, 64, 0
2, 57492, Note_on_c, 0, 59, 75
2, 57492, Note_on_c, 0, 62, 75
2, 57586, Note_on_c, 0, 59, 0
2, 57586, Note_on_c, 0, 62, 0
2, 57780, Note_on_c, 0, 61, 75
2, 57780, Note_on_c, 0, 65, 75
2, 57874, Note_on_c, 0, 61, 0
2, 57874, Note_on_c, 0, 65, 0
2, 57876, Note_on_c, 0, 60, 75
2, 57876, Note_on_c, 0, 64, 75
2, 57970, Note_on_c, 0, 60, 0
2, 57970, Note_on_c, 0, 64, 0
2, 58164, Note_on_c, 0, 60, 75
2, 58164, Note_on_c, 0, 64, 75
2, 58258, Note_on_c, 0, 60, 0
2, 58258, Note_on_c, 0, 64, 0
2, 58260, Note_on_c, 0, 59, 75
2, 58260, Note_on_c, 0, 62, 75
2, 58354, Note_on_c, 0, 59, 0
2, 58354, Note_on_c, 0, 62, 0
2, 58548, Note_on_c, 0, 61, 75
2, 58548, Note_on_c, 0, 65, 75
2, 58642, Note_on_c, 0, 61, 0
2, 58642, Note_on_c, 0, 65, 0
2, 58644, Note_on_c, 0, 60, 75
2, 58644, Note_on_c, 0, 64, 75
2, 58738, Note_on_c, 0, 60, 0
2, 58738, Note_on_c, 0, 64, 0
2, 58868, Note_on_c, 0, 55, 75
2, 58930, Note_on_c, 0, 55, 0
2, 58932, Note_on_c, 0, 58, 75
2, 58948, Note_on_c, 0, 58, 0
2, 58948, Note_on_c, 0, 59, 75
2, 58948, Note_on_c, 0, 62, 75
2, 59058, Note_on_c, 0, 59, 0
2, 59058, Note_on_c, 0, 62, 0
2, 59060, Note_on_c, 0, 55, 75
2, 59122, Note_on_c, 0, 55, 0
2, 59124, Note_on_c, 0, 60, 75
2, 59124, Note_on_c, 0, 64, 75
2, 59250, Note_on_c, 0, 60, 0
2, 59250, Note_on_c, 0, 64, 0
2, 59252, Note_on_c, 0, 55, 75
2, 59314, Note_on_c, 0, 55, 0
2, 59316, Note_on_c, 0, 59, 75
2, 59316, Note_on_c, 0, 62, 75
2, 59476, Note_on_c, 0, 59, 0
2, 59476, Note_on_c, 0, 62, 0
2, 59828, Note_on_c, 0, 55, 75
2, 59890, Note_on_c, 0, 55, 0
2, 59892, Note_on_c, 0, 58, 75
2, 59908, Note_on_c, 0, 58, 0
2, 59908, Note_on_c, 0, 59, 75
2, 59908, Note_on_c, 0, 62, 75
2, 60018, Note_on_c, 0, 59, 0
2, 60018, Note_on_c, 0, 62, 0
2, 60020, Note_on_c, 0, 55, 75
2, 60082, Note_on_c, 0, 55, 0
2, 60084, Note_on_c, 0, 60, 75
2, 60084, Note_on_c, 0, 64, 75
2, 60210, Note_on_c, 0, 60, 0
2, 60210, Note_on_c, 0, 64, 0
2, 60212, Note_on_c, 0, 55, 75
2, 60274, Note_on_c, 0, 55, 0
2, 60276, Note_on_c, 0, 59, 75
2, 60276, Note_on_c, 0, 62, 75
2, 60436, Note_on_c, 0, 59, 0
2, 60436, Note_on_c, 0, 62, 0
2, 60788, Note_on_c, 0, 55, 75
2, 60850, Note_on_c, 0, 55, 0
2, 60852, Note_on_c, 0, 58, 75
2, 60868, Note_on_c, 0, 58, 0
2, 60868, Note_on_c, 0, 59, 75
2, 60868, Note_on_c, 0, 62, 75
2, 60978, Note_on_c, 0, 59, 0
2, 60978, Note_on_c, 0, 62, 0
2, 60980, Note_on_c, 0, 55, 75
2, 61042, Note_on_c, 0, 55, 0
2, 61044, Note_on_c, 0, 60, 75
2, 61044, Note_on_c, 0, 64, 75
2, 61170, Note_on_c, 0, 60, 0
2, 61170, Note_on_c, 0, 64, 0
2, 61172, Note_on_c, 0, 55, 75
2, 61234, Note_on_c, 0, 55, 0
2, 61236, Note_on_c, 0, 59, 75
2, 61236, Note_on_c, 0, 62, 75
2, 61396, Note_on_c, 0, 59, 0
2, 61396, Note_on_c, 0, 62, 0
2, 61748, Note_on_c, 0, 55, 75
2, 61810, Note_on_c, 0, 55, 0
2, 61812, Note_on_c, 0, 58, 75
2, 61828, Note_on_c, 0, 58, 0
2, 61828, Note_on_c, 0, 59, 75
2, 61828, Note_on_c, 0, 62, 75
2, 61938, Note_on_c, 0, 59, 0
2, 61938, Note_on_c, 0, 62, 0
2, 61940, Note_on_c, 0, 55, 75
2, 62002, Note_on_c, 0, 55, 0
2, 62004, Note_on_c, 0, 60, 75
2, 62004, Note_on_c, 0, 64, 75
2, 62130, Note_on_c, 0, 60, 0
2, 62130, Note_on_c, 0, 64, 0
2, 62132, Note_on_c, 0, 55, 75
2, 62194, Note_on_c, 0, 55, 0
2, 62196, Note_on_c, 0, 59, 75
2, 62196, Note_on_c, 0, 62, 75
2, 62356, Note_on_c, 0, 59, 0
2, 62356, Note_on_c, 0, 62, 0
2, 62708, Note_on_c, 0, 60, 75
2, 62770, Note_on_c, 0, 60, 0
2, 62772, Note_on_c, 0, 63, 75
2, 62788, Note_on_c, 0, 63, 0
2, 62788, Note_on_c, 0, 64, 75
2, 62788, Note_on_c, 0, 67, 75
2, 62898, Note_on_c, 0, 64, 0
2, 62898, Note_on_c, 0, 67, 0
2, 62900, Note_on_c, 0, 60, 75
2, 62962, Note_on_c, 0, 60, 0
2, 62964, Note_on_c, 0, 65, 75
2, 62964, Note_on_c, 0, 69, 75
2, 63090, Note_on_c, 0, 65, 0
2, 63090, Note_on_c, 0, 69, 0
2, 63092, Note_on_c, 0, 60, 75
2, 63154, Note_on_c, 0, 60, 0
2, 63156, Note_on_c, 0, 63, 75
2, 63180, Note_on_c, 0, 63, 0
2, 63180, Note_on_c, 0, 64, 75
2, 63180, Note_on_c, 0, 67, 75
2, 63346, Note_on_c, 0, 64, 0
2, 63346, Note_on_c, 0, 67, 0
2, 63668, Note_on_c, 0, 60, 75
2, 63730, Note_on_c, 0, 60, 0
2, 63732, Note_on_c, 0, 63, 75
2, 63748, Note_on_c, 0, 63, 0
2, 63748, Note_on_c, 0, 64, 75
2, 63748, Note_on_c, 0, 67, 75
2, 63858, Note_on_c, 0, 64, 0
2, 63858, Note_on_c, 0, 67, 0
2, 63860, Note_on_c, 0, 60, 75
2, 63922, Note_on_c, 0, 60, 0
2, 63924, Note_on_c, 0, 65, 75
2, 63924, Note_on_c, 0, 69, 75
2, 64050, Note_on_c, 0, 65, 0
2, 64050, Note_on_c, 0, 69, 0
2, 64052, Note_on_c, 0, 60, 75
2, 64114, Note_on_c, 0, 60, 0
2, 64116, Note_on_c, 0, 63, 75
2, 64140, Note_on_c, 0, 63, 0
2, 64140, Note_on_c, 0, 64, 75
2, 64140, Note_on_c, 0, 67, 75
2, 64306, Note_on_c, 0, 64, 0
2, 64306, Note_on_c, 0, 67, 0
2, 64628, Note_on_c, 0, 55, 75
2, 64690, Note_on_c, 0, 55, 0
2, 64692, Note_on_c, 0, 58, 75
2, 64708, Note_on_c, 0, 58, 0
2, 64708, Note_on_c, 0, 59, 75
2, 64708, Note_on_c, 0, 62, 75
2, 64818, Note_on_c, 0, 59, 0
2, 64818, Note_on_c, 0, 62, 0
2, 64820, Note_on_c, 0, 55, 75
2, 64882, Note_on_c, 0, 55, 0
2, 64884, Note_on_c, 0, 60, 75
2, 64884, Note_on_c, 0, 64, 75
2, 65010, Note_on_c, 0, 60, 0
2, 65010, Note_on_c, 0, 64, 0
2, 65012, Note_on_c, 0, 55, 75
2, 65074, Note_on_c, 0, 55, 0
2, 65076, Note_on_c, 0, 59, 75
2, 65076, Note_on_c, 0, 62, 75
2, 65236, Note_on_c, 0, 59, 0
2, 65236, Note_on_c, 0, 62, 0
2, 65588, Note_on_c, 0, 55, 75
2, 65650, Note_on_c, 0, 55, 0
2, 65652, Note_on_c, 0, 58, 75
2, 65668, Note_on_c, 0, 58, 0
2, 65668, Note_on_c, 0, 59, 75
2, 65668, Note_on_c, 0, 62, 75
2, 65778, Note_on_c, 0, 59, 0
2, 65778, Note_on_c, 0, 62, 0
2, 65780, Note_on_c, 0, 55, 75
2, 65842, Note_on_c, 0, 55, 0
2, 65844, Note_on_c, 0, 60, 75
2, 65844, Note_on_c, 0, 64, 75
2, 65970, Note_on_c, 0, 60, 0
2, 65970, Note_on_c, 0, 64, 0
2, 65972, Note_on_c, 0, 55, 75
2, 66034, Note_on_c, 0, 55, 0
2, 66036, Note_on_c, 0, 59, 75
2, 66036, Note_on_c, 0, 62, 75
2, 66196, Note_on_c, 0, 59, 0
2, 66196, Note_on_c, 0, 62, 0
2, 66548, Note_on_c, 0, 62, 75
2, 66610, Note_on_c, 0, 62, 0
2, 66612, Note_on_c, 0, 65, 75
2, 66628, Note_on_c, 0, 65, 0
2, 66628, Note_on_c, 0, 66, 75
2, 66628, Note_on_c, 0, 69, 75
2, 66738, Note_on_c, 0, 66, 0
2, 66738, Note_on_c, 0, 69, 0
2, 66740, Note_on_c, 0, 62, 75
2, 66802, Note_on_c, 0, 62, 0
2, 66804, Note_on_c, 0, 67, 75
2, 66804, Note_on_c, 0, 71, 75
2, 66930, Note_on_c, 0, 67, 0
2, 66930, Note_on_c, 0, 71, 0
2, 66932, Note_on_c, 0, 62, 75
2, 66994, Note_on_c, 0, 62, 0
2, 66996, Note_on_c, 0, 65, 75
2, 67020, Note_on_c, 0, 65, 0
2, 67020, Note_on_c, 0, 66, 75
2, 67020, Note_on_c, 0, 69, 75
2, 67186, Note_on_c, 0, 66, 0
2, 67186, Note_on_c, 0, 69, 0
2, 67508, Note_on_c, 0, 60, 75
2, 67570, Note_on_c, 0, 60, 0
2, 67572, Note_on_c, 0, 63, 75
2, 67588, Note_on_c, 0, 63, 0
2, 67588, Note_on_c, 0, 64, 75
2, 67588, Note_on_c, 0, 67, 75
2, 67698, Note_on_c, 0, 64, 0
2, 67698, Note_on_c, 0, 67, 0
2, 67700, Note_on_c, 0, 60, 75
2, 67762, Note_on_c, 0, 60, 0
2, 67764, Note_on_c, 0, 65, 75
2, 67764, Note_on_c, 0, 69, 75
2, 67890, Note_on_c, 0, 65, 0
2, 67890, Note_on_c, 0, 69, 0
2, 67892, Note_on_c, 0, 60, 75
2, 67954, Note_on_c, 0, 60, 0
2, 67956, Note_on_c, 0, 63, 75
2, 67980, Note_on_c, 0, 63, 0
2, 67980, Note_on_c, 0, 64, 75
2, 67980, Note_on_c, 0, 67, 75
2, 68146, Note_on_c, 0, 64, 0
2, 68146, Note_on_c, 0, 67, 0
2, 68468, Note_on_c, 0, 55, 75
2, 68530, Note_on_c, 0, 55, 0
2, 68532, Note_on_c, 0, 58, 75
2, 68548, Note_on_c, 0, 58, 0
2, 68548, Note_on_c, 0, 59, 75
2, 68548, Note_on_c, 0, 62, 75
2, 68658, Note_on_c, 0, 59, 0
2, 68658, Note_on_c, 0, 62, 0
2, 68660, Note_on_c, 0, 55, 75
2, 68722, Note_on_c, 0, 55, 0
2, 68724, Note_on_c, 0, 60, 75
2, 68724, Note_on_c, 0, 64, 75
2, 68850, Note_on_c, 0, 60, 0
2, 68850, Note_on_c, 0, 64, 0
2, 68852, Note_on_c, 0, 55, 75
2, 68914, Note_on_c, 0, 55, 0
2, 68916, Note_on_c, 0, 59, 75
2, 68916, Note_on_c, 0, 62, 75
2, 69076, Note_on_c, 0, 59, 0
2, 69076, Note_on_c, 0, 62, 0
2, 69428, Note_on_c, 0, 55, 75
2, 69490, Note_on_c, 0, 55, 0
2, 69492, Note_on_c, 0, 58, 75
2, 69508, Note_on_c, 0, 58, 0
2, 69508, Note_on_c, 0, 59, 75
2, 69508, Note_on_c, 0, 62, 75
2, 69618, Note_on_c, 0, 59, 0
2, 69618, Note_on_c, 0, 62, 0
2, 69620, Note_on_c, 0, 55, 75
2, 69682, Note_on_c, 0, 55, 0
2, 69684, Note_on_c, 0, 60, 75
2, 69684, Note_on_c, 0, 64, 75
2, 69810, Note_on_c, 0, 60, 0
2, 69810, Note_on_c, 0, 64, 0
2, 69812, Note_on_c, 0, 55, 75
2, 69874, Note_on_c, 0, 55, 0
2, 69876, Note_on_c, 0, 59, 75
2, 69876, Note_on_c, 0, 62, 75
2, 70036, Note_on_c, 0, 59, 0
2, 70036, Note_on_c, 0, 62, 0
2, 70260, Note_on_c, 0, 59, 75
2, 70260, Note_on_c, 0, 62, 75
2, 70260, Note_on_c, 0, 70, 75
2, 70386, Note_on_c, 0, 59, 0
2, 70386, Note_on_c, 0, 62, 0
2, 70386, Note_on_c, 0, 70, 0
2, 70388, Note_on_c, 0, 58, 75
2, 70388, Note_on_c, 0, 62, 75
2, 70388, Note_on_c, 0, 70, 75
2, 70450, Note_on_c, 0, 58, 0
2, 70450, Note_on_c, 0, 62, 0
2, 70450, Note_on_c, 0, 70, 0
2, 70580, Note_on_c, 0, 58, 75
2, 70580, Note_on_c, 0, 62, 75
2, 70580, Note_on_c, 0, 70, 75
2, 70804, Note_on_c, 0, 58, 0
2, 70804, Note_on_c, 0, 62, 0
2, 70804, Note_on_c, 0, 70, 0
2, 71220, Note_on_c, 0, 71, 75
2, 71220, Note_on_c, 0, 74, 75
2, 71220, Note_on_c, 0, 82, 75
2, 71346, Note_on_c, 0, 71, 0
2, 71346, Note_on_c, 0, 74, 0
2, 71346, Note_on_c, 0, 82, 0
2, 71348, Note_on_c, 0, 70, 75
2, 71348, Note_on_c, 0, 74, 75
2, 71348, Note_on_c, 0, 82, 75
2, 71410, Note_on_c, 0, 70, 0
2, 71410, Note_on_c, 0, 74, 0
2, 71410, Note_on_c, 0, 82, 0
2, 71540, Note_on_c, 0, 70, 75
2, 71540, Note_on_c, 0, 74, 75
2, 71540, Note_on_c, 0, 82, 75
2, 71764, Note_on_c, 0, 70, 0
2, 71764, Note_on_c, 0, 74, 0
2, 71764, Note_on_c, 0, 82, 0
2, 72180, Note_on_c, 0, 83, 75
2, 72180, Note_on_c, 0, 86, 75
2, 72180, Note_on_c, 0, 94, 75
2, 72306, Note_on_c, 0, 83, 0
2, 72306, Note_on_c, 0, 86, 0
2, 72306, Note_on_c, 0, 94, 0
2, 72308, Note_on_c, 0, 82, 75
2, 72308, Note_on_c, 0, 86, 75
2, 72308, Note_on_c, 0, 94, 75
2, 72370, Note_on_c, 0, 82, 0
2, 72370, Note_on_c, 0, 86, 0
2, 72370, Note_on_c, 0, 94, 0
2, 72500, Note_on_c, 0, 82, 75
2, 72500, Note_on_c, 0, 86, 75
2, 72500, Note_on_c, 0, 94, 75
2, 72724, Note_on_c, 0, 82, 0
2, 72724, Note_on_c, 0, 86, 0
2, 72724, Note_on_c, 0, 94, 0
2, 73140, Note_on_c, 0, 81, 60
2, 73140, Note_on_c, 0, 84, 60
2, 73140, Note_on_c, 0, 89, 60
2, 73188, Note_on_c, 0, 81, 0
2, 73188, Note_on_c, 0, 84, 0
2, 73188, Note_on_c, 0, 89, 0
2, 73188, Note_on_c, 0, 78, 60
2, 73236, Note_on_c, 0, 78, 0
2, 73236, Note_on_c, 0, 81, 60
2, 73236, Note_on_c, 0, 84, 60
2, 73236, Note_on_c, 0, 89, 60
2, 73284, Note_on_c, 0, 81, 0
2, 73284, Note_on_c, 0, 84, 0
2, 73284, Note_on_c, 0, 89, 0
2, 73284, Note_on_c, 0, 78, 60
2, 73332, Note_on_c, 0, 78, 0
2, 73332, Note_on_c, 0, 81, 75
2, 73332, Note_on_c, 0, 84, 75
2, 73332, Note_on_c, 0, 89, 75
2, 73380, Note_on_c, 0, 81, 0
2, 73380, Note_on_c, 0, 84, 0
2, 73380, Note_on_c, 0, 89, 0
2, 73380, Note_on_c, 0, 78, 75
2, 73428, Note_on_c, 0, 78, 0
2, 73428, Note_on_c, 0, 81, 75
2, 73428, Note_on_c, 0, 84, 75
2, 73428, Note_on_c, 0, 89, 75
2, 73476, Note_on_c, 0, 81, 0
2, 73476, Note_on_c, 0, 84, 0
2, 73476, Note_on_c, 0, 89, 0
2, 73476, Note_on_c, 0, 78, 75
2, 73524, Note_on_c, 0, 78, 0
2, 73524, Note_on_c, 0, 81, 92
2, 73524, Note_on_c, 0, 84, 92
2, 73524, Note_on_c, 0, 89, 92
2, 73572, Note_on_c, 0, 81, 0
2, 73572, Note_on_c, 0, 84, 0
2, 73572, Note_on_c, 0, 89, 0
2, 73572, Note_on_c, 0, 78, 92
2, 73620, Note_on_c, 0, 78, 0
2, 73620, Note_on_c, 0, 81, 92
2, 73620, Note_on_c, 0, 84, 92
2, 73620, Note_on_c, 0, 89, 92
2, 73668, Note_on_c, 0, 81, 0
2, 73668, Note_on_c, 0, 84, 0
2, 73668, Note_on_c, 0, 89, 0
2, 73668, Note_on_c, 0, 78, 92
2, 73716, Note_on_c, 0, 78, 0
2, 73716, Note_on_c, 0, 81, 75
2, 73716, Note_on_c, 0, 84, 75
2, 73716, Note_on_c, 0, 89, 75
2, 73764, Note_on_c, 0, 81, 0
2, 73764, Note_on_c, 0, 84, 0
2, 73764, Note_on_c, 0, 89, 0
2, 73764, Note_on_c, 0, 78, 75
2, 73812, Note_on_c, 0, 78, 0
2, 73812, Note_on_c, 0, 81, 75
2, 73812, Note_on_c, 0, 84, 75
2, 73812, Note_on_c, 0, 89, 75
2, 73860, Note_on_c, 0, 81, 0
2, 73860, Note_on_c, 0, 84, 0
2, 73860, Note_on_c, 0, 89, 0
2, 73860, Note_on_c, 0, 78, 75
2, 73906, Note_on_c, 0, 78, 0
2, 73908, Note_on_c, 0, 88, 60
2, 73908, Note_on_c, 0, 100, 60
2, 74436, Note_on_c, 0, 88, 0
2, 74436, Note_on_c, 0, 100, 0
2, 74676, Control_c, 0, 64, 127
2, 74964, Note_on_c, 0, 69, 60
2, 75058, Note_on_c, 0, 69, 0
2, 75060, Note_on_c, 0, 74, 60
2, 75700, Note_on_c, 0, 74, 0
2, 75732, Note_on_c, 0, 69, 60
2, 75826, Note_on_c, 0, 69, 0
2, 75828, Note_on_c, 0, 74, 60
2, 75874, Note_on_c, 0, 74, 0
2, 75876, Note_on_c, 0, 76, 60
2, 75922, Note_on_c, 0, 76, 0
2, 75924, Note_on_c, 0, 74, 60
2, 76372, Note_on_c, 0, 74, 0
2, 76500, Note_on_c, 0, 69, 60
2, 76594, Note_on_c, 0, 69, 0
2, 76596, Note_on_c, 0, 74, 60
2, 76690, Note_on_c, 0, 74, 0
2, 76692, Note_on_c, 0, 78, 60
2, 76786, Note_on_c, 0, 78, 0
2, 76788, Note_on_c, 0, 81, 60
2, 76882, Note_on_c, 0, 81, 0
2, 76884, Note_on_c, 0, 78, 60
2, 76978, Note_on_c, 0, 78, 0
2, 76980, Note_on_c, 0, 76, 60
2, 77236, Note_on_c, 0, 76, 0
2, 77268, Note_on_c, 0, 69, 60
2, 77362, Note_on_c, 0, 69, 0
2, 77364, Note_on_c, 0, 69, 60
2, 77700, Note_on_c, 0, 69, 0
2, 78036, Note_on_c, 0, 72, 60
2, 78130, Note_on_c, 0, 72, 0
2, 78132, Note_on_c, 0, 77, 60
2, 78226, Note_on_c, 0, 77, 0
2, 78228, Note_on_c, 0, 81, 60
2, 78322, Note_on_c, 0, 81, 0
2, 78324, Note_on_c, 0, 84, 60
2, 78418, Note_on_c, 0, 84, 0
2, 78420, Note_on_c, 0, 81, 60
2, 78514, Note_on_c, 0, 81, 0
2, 78516, Note_on_c, 0, 79, 60
2, 78772, Note_on_c, 0, 79, 0
2, 78804, Note_on_c, 0, 74, 60
2, 78898, Note_on_c, 0, 74, 0
2, 78900, Note_on_c, 0, 74, 60
2, 79236, Note_on_c, 0, 74, 0
2, 79284, Note_on_c, 0, 78, 60
2, 79296, Note_on_c, 0, 78, 0
2, 79296, Note_on_c, 0, 79, 60
2, 79540, Note_on_c, 0, 79, 0
2, 79572, Note_on_c, 0, 74, 60
2, 79666, Note_on_c, 0, 74, 0
2, 79668, Note_on_c, 0, 74, 60
2, 79828, Note_on_c, 0, 74, 0
2, 79860, Note_on_c, 0, 76, 60
2, 80020, Note_on_c, 0, 76, 0
2, 80052, Note_on_c, 0, 78, 60
2, 80530, Note_on_c, 0, 78, 0
2, 80532, Note_on_c, 0, 78, 60
2, 80626, Note_on_c, 0, 78, 0
2, 80628, Note_on_c, 0, 76, 60
2, 80638, Note_on_c, 0, 76, 0
2, 80640, Note_on_c, 0, 78, 60
2, 80650, Note_on_c, 0, 78, 0
2, 80652, Note_on_c, 0, 76, 60
2, 80722, Note_on_c, 0, 76, 0
2, 80724, Note_on_c, 0, 74, 60
2, 80818, Note_on_c, 0, 74, 0
2, 80820, Note_on_c, 0, 71, 60
2, 80914, Note_on_c, 0, 71, 0
2, 80916, Note_on_c, 0, 67, 60
2, 81010, Note_on_c, 0, 67, 0
2, 81012, Note_on_c, 0, 71, 60
2, 81106, Note_on_c, 0, 71, 0
2, 81108, Note_on_c, 0, 74, 60
2, 81202, Note_on_c, 0, 74, 0
2, 81204, Note_on_c, 0, 76, 60
2, 81298, Note_on_c, 0, 76, 0
2, 81300, Note_on_c, 0, 67, 60
2, 81394, Note_on_c, 0, 67, 0
2, 81396, Note_on_c, 0, 78, 60
2, 81490, Note_on_c, 0, 78, 0
2, 81492, Note_on_c, 0, 67, 60
2, 81586, Note_on_c, 0, 67, 0
2, 81684, Note_on_c, 0, 62, 60
2, 81778, Note_on_c, 0, 62, 0
2, 81780, Note_on_c, 0, 71, 60
2, 81826, Note_on_c, 0, 71, 0
2, 81828, Note_on_c, 0, 69, 60
2, 81874, Note_on_c, 0, 69, 0
2, 81876, Note_on_c, 0, 67, 60
2, 81922, Note_on_c, 0, 67, 0
2, 81924, Note_on_c, 0, 66, 60
2, 81970, Note_on_c, 0, 66, 0
2, 81972, Note_on_c, 0, 64, 60
2, 82018, Note_on_c, 0, 64, 0
2, 82020, Note_on_c, 0, 66, 60
2, 82066, Note_on_c, 0, 66, 0
2, 82068, Note_on_c, 0, 67, 60
2, 82114, Note_on_c, 0, 67, 0
2, 82116, Note_on_c, 0, 69, 60
2, 82162, Note_on_c, 0, 69, 0
2, 82164, Note_on_c, 0, 71, 60
2, 82258, Note_on_c, 0, 71, 0
2, 82260, Note_on_c, 0, 73, 60
2, 82354, Note_on_c, 0, 73, 0
2, 82356, Note_on_c, 0, 74, 60
2, 82450, Note_on_c, 0, 74, 0
2, 82452, Note_on_c, 0, 76, 60
2, 82546, Note_on_c, 0, 76, 0
2, 82548, Note_on_c, 0, 78, 60
2, 82560, Note_on_c, 0, 78, 0
2, 82560, Note_on_c, 0, 79, 60
2, 82594, Note_on_c, 0, 79, 0
2, 82596, Note_on_c, 0, 79, 60
2, 82642, Note_on_c, 0, 79, 0
2, 82644, Note_on_c, 0, 79, 60
2, 82690, Note_on_c, 0, 79, 0
2, 82692, Note_on_c, 0, 79, 60
2, 82738, Note_on_c, 0, 79, 0
2, 82788, Note_on_c, 0, 79, 60
2, 82788, Note_on_c, 0, 83, 60
2, 82788, Note_on_c, 0, 88, 60
2, 82834, Note_on_c, 0, 79, 0
2, 82834, Note_on_c, 0, 83, 0
2, 82834, Note_on_c, 0, 88, 0
2, 82836, Note_on_c, 0, 90, 60
2, 82882, Note_on_c, 0, 90, 0
2, 82884, Note_on_c, 0, 83, 60
2, 82884, Note_on_c, 0, 86, 60
2, 82884, Note_on_c, 0, 91, 60
2, 82930, Note_on_c, 0, 83, 0
2, 82930, Note_on_c, 0, 86, 0
2, 82930, Note_on_c, 0, 91, 0
2, 82932, Note_on_c, 0, 83, 60
2, 82932, Note_on_c, 0, 86, 60
2, 82932, Note_on_c, 0, 91, 60
2, 83092, Note_on_c, 0, 83, 0
2, 83092, Note_on_c, 0, 86, 0
2, 83092, Note_on_c, 0, 91, 0
2, 83268, Note_on_c, 0, 62, 60
2, 83314, Note_on_c, 0, 62, 0
2, 83316, Note_on_c, 0, 71, 60
2, 83362, Note_on_c, 0, 71, 0
2, 83364, Note_on_c, 0, 69, 60
2, 83410, Note_on_c, 0, 69, 0
2, 83412, Note_on_c, 0, 67, 60
2, 83458, Note_on_c, 0, 67, 0
2, 83460, Note_on_c, 0, 66, 60
2, 83506, Note_on_c, 0, 66, 0
2, 83508, Note_on_c, 0, 67, 60
2, 83554, Note_on_c, 0, 67, 0
2, 83556, Note_on_c, 0, 69, 60
2, 83602, Note_on_c, 0, 69, 0
2, 83604, Note_on_c, 0, 71, 60
2, 83650, Note_on_c, 0, 71, 0
2, 83652, Note_on_c, 0, 73, 60
2, 83698, Note_on_c, 0, 73, 0
2, 83700, Note_on_c, 0, 74, 60
2, 83794, Note_on_c, 0, 74, 0
2, 83796, Note_on_c, 0, 76, 60
2, 83890, Note_on_c, 0, 76, 0
2, 83892, Note_on_c, 0, 76, 60
2, 83904, Note_on_c, 0, 76, 0
2, 83904, Note_on_c, 0, 77, 60
2, 83916, Note_on_c, 0, 77, 0
2, 83916, Note_on_c, 0, 78, 60
2, 83986, Note_on_c, 0, 78, 0
2, 83988, Note_on_c, 0, 81, 60
2, 84082, Note_on_c, 0, 81, 0
2, 84084, Note_on_c, 0, 76, 60
2, 84096, Note_on_c, 0, 76, 0
2, 84096, Note_on_c, 0, 77, 60
2, 84108, Note_on_c, 0, 77, 0
2, 84108, Note_on_c, 0, 78, 60
2, 84130, Note_on_c, 0, 78, 0
2, 84132, Note_on_c, 0, 81, 60
2, 84178, Note_on_c, 0, 81, 0
2, 84180, Note_on_c, 0, 76, 60
2, 84192, Note_on_c, 0, 76, 0
2, 84192, Note_on_c, 0, 77, 60
2, 84204, Note_on_c, 0, 77, 0
2, 84204, Note_on_c, 0, 78, 60
2, 84226, Note_on_c, 0, 78, 0
2, 84228, Note_on_c, 0, 81, 60
2, 84274, Note_on_c, 0, 81, 0
2, 84276, Note_on_c, 0, 76, 60
2, 84612, Note_on_c, 0, 76, 0
2, 84756, Note_on_c, 0, 76, 60
2, 84850, Note_on_c, 0, 76, 0
2, 84852, Note_on_c, 0, 74, 60
2, 84898, Note_on_c, 0, 74, 0
2, 84900, Note_on_c, 0, 72, 60
2, 84946, Note_on_c, 0, 72, 0
2, 84948, Note_on_c, 0, 71, 60
2, 84994, Note_on_c, 0, 71, 0
2, 84996, Note_on_c, 0, 69, 60
2, 85042, Note_on_c, 0, 69, 0
2, 85044, Note_on_c, 0, 71, 60
2, 85084, Note_on_c, 0, 71, 0
2, 85086, Note_on_c, 0, 72, 60
2, 85126, Note_on_c, 0, 72, 0
2, 85128, Note_on_c, 0, 74, 60
2, 85162, Note_on_c, 0, 74, 0
2, 85164, Note_on_c, 0, 76, 60
2, 85198, Note_on_c, 0, 76, 0
2, 85200, Note_on_c, 0, 77, 60
2, 85234, Note_on_c, 0, 77, 0
2, 85236, Note_on_c, 0, 79, 60
2, 85282, Note_on_c, 0, 79, 0
2, 85284, Note_on_c, 0, 81, 60
2, 85284, Note_on_c, 0, 86, 60
2, 85330, Note_on_c, 0, 81, 0
2, 85330, Note_on_c, 0, 86, 0
2, 85332, Note_on_c, 0, 81, 60
2, 85332, Note_on_c, 0, 86, 60
2, 85378, Note_on_c, 0, 81, 0
2, 85378, Note_on_c, 0, 86, 0
2, 85380, Note_on_c, 0, 81, 60
2, 85380, Note_on_c, 0, 86, 60
2, 85426, Note_on_c, 0, 81, 0
2, 85426, Note_on_c, 0, 86, 0
2, 85524, Note_on_c, 0, 83, 60
2, 85524, Note_on_c, 0, 86, 60
2, 85570, Note_on_c, 0, 83, 0
2, 85570, Note_on_c, 0, 86, 0
2, 85572, Note_on_c, 0, 79, 60
2, 85618, Note_on_c, 0, 79, 0
2, 85620, Note_on_c, 0, 84, 60
2, 85620, Note_on_c, 0, 88, 60
2, 85666, Note_on_c, 0, 84, 0
2, 85666, Note_on_c, 0, 88, 0
2, 85668, Note_on_c, 0, 79, 60
2, 85714, Note_on_c, 0, 79, 0
2, 85716, Note_on_c, 0, 84, 60
2, 85762, Note_on_c, 0, 84, 0
2, 85764, Note_on_c, 0, 79, 60
2, 85810, Note_on_c, 0, 79, 0
2, 85812, Note_on_c, 0, 70, 60
2, 85824, Note_on_c, 0, 70, 0
2, 85824, Note_on_c, 0, 71, 60
2, 85824, Note_on_c, 0, 74, 60
2, 85858, Note_on_c, 0, 71, 0
2, 85858, Note_on_c, 0, 74, 0
2, 85860, Note_on_c, 0, 67, 60
2, 85906, Note_on_c, 0, 67, 0
2, 85908, Note_on_c, 0, 72, 60
2, 85908, Note_on_c, 0, 76, 60
2, 85954, Note_on_c, 0, 72, 0
2, 85954, Note_on_c, 0, 76, 0
2, 85956, Note_on_c, 0, 70, 60
2, 85968, Note_on_c, 0, 70, 0
2, 85968, Note_on_c, 0, 71, 60
2, 85968, Note_on_c, 0, 74, 60
2, 86002, Note_on_c, 0, 71, 0
2, 86002, Note_on_c, 0, 74, 0
2, 86004, Note_on_c, 0, 67, 60
2, 86050, Note_on_c, 0, 67, 0
2, 86052, Note_on_c, 0, 72, 60
2, 86052, Note_on_c, 0, 76, 60
2, 86098, Note_on_c, 0, 72, 0
2, 86098, Note_on_c, 0, 76, 0
2, 86100, Note_on_c, 0, 70, 60
2, 86112, Note_on_c, 0, 70, 0
2, 86112, Note_on_c, 0, 71, 60
2, 86112, Note_on_c, 0, 74, 60
2, 86146, Note_on_c, 0, 71, 0
2, 86146, Note_on_c, 0, 74, 0
2, 86148, Note_on_c, 0, 67, 60
2, 86194, Note_on_c, 0, 67, 0
2, 86292, Note_on_c, 0, 74, 60
2, 86304, Note_on_c, 0, 74, 0
2, 86304, Note_on_c, 0, 76, 60
2, 86304, Note_on_c, 0, 79, 60
2, 86338, Note_on_c, 0, 76, 0
2, 86338, Note_on_c, 0, 79, 0
2, 86340, Note_on_c, 0, 72, 60
2, 86340, Note_on_c, 0, 76, 60
2, 86386, Note_on_c, 0, 72, 0
2, 86386, Note_on_c, 0, 76, 0
2, 86388, Note_on_c, 0, 70, 60
2, 86388, Note_on_c, 0, 74, 60
2, 86434, Note_on_c, 0, 70, 0
2, 86434, Note_on_c, 0, 74, 0
2, 86436, Note_on_c, 0, 67, 60
2, 86482, Note_on_c, 0, 67, 0
2, 86484, Note_on_c, 0, 65, 60
2, 86530, Note_on_c, 0, 65, 0
2, 86532, Note_on_c, 0, 62, 60
2, 86578, Note_on_c, 0, 62, 0
2, 86580, Note_on_c, 0, 65, 60
2, 86626, Note_on_c, 0, 65, 0
2, 86628, Note_on_c, 0, 67, 60
2, 86674, Note_on_c, 0, 67, 0
2, 86676, Note_on_c, 0, 70, 60
2, 86722, Note_on_c, 0, 70, 0
2, 86724, Note_on_c, 0, 72, 60
2, 86770, Note_on_c, 0, 72, 0
2, 86772, Note_on_c, 0, 74, 60
2, 86818, Note_on_c, 0, 74, 0
2, 86820, Note_on_c, 0, 79, 60
2, 86914, Note_on_c, 0, 79, 0
2, 86916, Note_on_c, 0, 79, 60
2, 86962, Note_on_c, 0, 79, 0
2, 86964, Note_on_c, 0, 55, 60
2, 87016, Note_on_c, 0, 55, 0
2, 87018, Note_on_c, 0, 58, 60
2, 87058, Note_on_c, 0, 58, 0
2, 87060, Note_on_c, 0, 62, 60
2, 87100, Note_on_c, 0, 62, 0
2, 87102, Note_on_c, 0, 67, 60
2, 87142, Note_on_c, 0, 67, 0
2, 87144, Note_on_c, 0, 70, 60
2, 87184, Note_on_c, 0, 70, 0
2, 87186, Note_on_c, 0, 74, 60
2, 87226, Note_on_c, 0, 74, 0
2, 87228, Note_on_c, 0, 79, 60
2, 87268, Note_on_c, 0, 79, 0
2, 87270, Note_on_c, 0, 82, 60
2, 87310, Note_on_c, 0, 82, 0
2, 87312, Note_on_c, 0, 86, 60
2, 87352, Note_on_c, 0, 86, 0
2, 87354, Note_on_c, 0, 91, 60
2, 87394, Note_on_c, 0, 91, 0
2, 87396, Note_on_c, 0, 86, 60
2, 87436, Note_on_c, 0, 86, 0
2, 87438, Note_on_c, 0, 82, 60
2, 87478, Note_on_c, 0, 82, 0
2, 87480, Note_on_c, 0, 79, 60
2, 87520, Note_on_c, 0, 79, 0
2, 87522, Note_on_c, 0, 74, 60
2, 87562, Note_on_c, 0, 74, 0
2, 87564, Note_on_c, 0, 70, 60
2, 87604, Note_on_c, 0, 70, 0
2, 87606, Note_on_c, 0, 67, 60
2, 87646, Note_on_c, 0, 67, 0
2, 87648, Note_on_c, 0, 62, 60
2, 87688, Note_on_c, 0, 62, 0
2, 87690, Note_on_c, 0, 58, 60
2, 87730, Note_on_c, 0, 58, 0
2, 87732, Note_on_c, 0, 57, 60
2, 87794, Note_on_c, 0, 57, 0
2, 87796, Note_on_c, 0, 60, 60
2, 87858, Note_on_c, 0, 60, 0
2, 87860, Note_on_c, 0, 64, 60
2, 87922, Note_on_c, 0, 64, 0
2, 87924, Note_on_c, 0, 69, 60
2, 87986, Note_on_c, 0, 69, 0
2, 87988, Note_on_c, 0, 64, 60
2, 88050, Note_on_c, 0, 64, 0
2, 88052, Note_on_c, 0, 60, 60
2, 88114, Note_on_c, 0, 60, 0
2, 88116, Note_on_c, 0, 57, 60
2, 88178, Note_on_c, 0, 57, 0
2, 88180, Note_on_c, 0, 60, 60
2, 88242, Note_on_c, 0, 60, 0
2, 88244, Note_on_c, 0, 64, 60
2, 88306, Note_on_c, 0, 64, 0
2, 88308, Note_on_c, 0, 69, 60
2, 88370, Note_on_c, 0, 69, 0
2, 88372, Note_on_c, 0, 64, 60
2, 88434, Note_on_c, 0, 64, 0
2, 88436, Note_on_c, 0, 60, 60
2, 88498, Note_on_c, 0, 60, 0
2, 88500, Control_c, 0, 64, 0
2, 88500, Note_on_c, 0, 59, 60
2, 88500, Note_on_c, 0, 62, 60
2, 88500, Note_on_c, 0, 66, 60
2, 88660, Note_on_c, 0, 59, 0
2, 88660, Note_on_c, 0, 62, 0
2, 88660, Note_on_c, 0, 66, 0
2, 88692, Note_on_c, 0, 59, 60
2, 88692, Note_on_c, 0, 62, 60
2, 88692, Note_on_c, 0, 66, 60
2, 88852, Note_on_c, 0, 59, 0
2, 88852, Note_on_c, 0, 62, 0
2, 88852, Note_on_c, 0, 66, 0
2, 88884, Note_on_c, 0, 59, 60
2, 88884, Note_on_c, 0, 62, 60
2, 88884, Note_on_c, 0, 66, 60
2, 89044, Note_on_c, 0, 59, 0
2, 89044, Note_on_c, 0, 62, 0
2, 89044, Note_on_c, 0, 66, 0
2, 89076, Note_on_c, 0, 59, 60
2, 89076, Note_on_c, 0, 62, 60
2, 89076, Note_on_c, 0, 64, 60
2, 89170, Note_on_c, 0, 59, 0
2, 89170, Note_on_c, 0, 62, 0
2, 89170, Note_on_c, 0, 64, 0
2, 89172, Note_on_c, 0, 59, 60
2, 89172, Note_on_c, 0, 62, 60
2, 89172, Note_on_c, 0, 66, 60
2, 89266, Note_on_c, 0, 59, 0
2, 89266, Note_on_c, 0, 62, 0
2, 89266, Note_on_c, 0, 66, 0
2, 89364, Note_on_c, 0, 59, 60
2, 89364, Note_on_c, 0, 62, 60
2, 89364, Note_on_c, 0, 66, 60
2, 89554, Note_on_c, 0, 59, 0
2, 89554, Note_on_c, 0, 62, 0
2, 89554, Note_on_c, 0, 66, 0
2, 89556, Note_on_c, 0, 64, 60
2, 89650, Note_on_c, 0, 64, 0
2, 89652, Note_on_c, 0, 59, 60
2, 89652, Note_on_c, 0, 62, 60
2, 89652, Note_on_c, 0, 66, 60
2, 89812, Note_on_c, 0, 59, 0
2, 89812, Note_on_c, 0, 62, 0
2, 89812, Note_on_c, 0, 66, 0
2, 89844, Note_on_c, 0, 59, 60
2, 89844, Note_on_c, 0, 62, 60
2, 89844, Note_on_c, 0, 66, 60
2, 90004, Note_on_c, 0, 59, 0
2, 90004, Note_on_c, 0, 62, 0
2, 90004, Note_on_c, 0, 66, 0
2, 90036, Note_on_c, 0, 59, 60
2, 90036, Note_on_c, 0, 62, 60
2, 90036, Note_on_c, 0, 66, 60
2, 90196, Note_on_c, 0, 59, 0
2, 90196, Note_on_c, 0, 62, 0
2, 90196, Note_on_c, 0, 66, 0
2, 90228, Note_on_c, 0, 59, 60
2, 90228, Note_on_c, 0, 62, 60
2, 90228, Note_on_c, 0, 64, 60
2, 90322, Note_on_c, 0, 59, 0
2, 90322, Note_on_c, 0, 62, 0
2, 90322, Note_on_c, 0, 64, 0
2, 90324, Note_on_c, 0, 59, 60
2, 90324, Note_on_c, 0, 62, 60
2, 90324, Note_on_c, 0, 66, 60
2, 90418, Note_on_c, 0, 59, 0
2, 90418, Note_on_c, 0, 62, 0
2, 90418, Note_on_c, 0, 66, 0
2, 90516, Note_on_c, 0, 59, 60
2, 90516, Note_on_c, 0, 62, 60
2, 90516, Note_on_c, 0, 66, 60
2, 90706, Note_on_c, 0, 59, 0
2, 90706, Note_on_c, 0, 62, 0
2, 90706, Note_on_c, 0, 66, 0
2, 90708, Note_on_c, 0, 64, 60
2, 90802, Note_on_c, 0, 64, 0
2, 90804, Note_on_c, 0, 60, 60
2, 90804, Note_on_c, 0, 64, 60
2, 90804, Note_on_c, 0, 67, 60
2, 90804, Note_on_c, 0, 71, 60
2, 90964, Note_on_c, 0, 60, 0
2, 90964, Note_on_c, 0, 64, 0
2, 90964, Note_on_c, 0, 67, 0
2, 90964, Note_on_c, 0, 71, 0
2, 90996, Note_on_c, 0, 60, 60
2, 90996, Note_on_c, 0, 64, 60
2, 90996, Note_on_c, 0, 67, 60
2, 90996, Note_on_c, 0, 71, 60
2, 91156, Note_on_c, 0, 60, 0
2, 91156, Note_on_c, 0, 64, 0
2, 91156, Note_on_c, 0, 67, 0
2, 91156, Note_on_c, 0, 71, 0
2, 91188, Note_on_c, 0, 60, 60
2, 91188, Note_on_c, 0, 64, 60
2, 91188, Note_on_c, 0, 67, 60
2, 91188, Note_on_c, 0, 71, 60
2, 91348, Note_on_c, 0, 60, 0
2, 91348, Note_on_c, 0, 64, 0
2, 91348, Note_on_c, 0, 67, 0
2, 91348, Note_on_c, 0, 71, 0
2, 91380, Note_on_c, 0, 60, 60
2, 91380, Note_on_c, 0, 64, 60
2, 91380, Note_on_c, 0, 67, 60
2, 91380, Note_on_c, 0, 71, 60
2, 91474, Note_on_c, 0, 60, 0
2, 91474, Note_on_c, 0, 64, 0
2, 91474, Note_on_c, 0, 67, 0
2, 91474, Note_on_c, 0, 71, 0
2, 91476, Note_on_c, 0, 69, 60
2, 91570, Note_on_c, 0, 69, 0
2, 91668, Note_on_c, 0, 60, 60
2, 91668, Note_on_c, 0, 64, 60
2, 91668, Note_on_c, 0, 69, 60
2, 91858, Note_on_c, 0, 60, 0
2, 91858, Note_on_c, 0, 64, 0
2, 91858, Note_on_c, 0, 69, 0
2, 91860, Note_on_c, 0, 60, 60
2, 91860, Note_on_c, 0, 64, 60
2, 91860, Note_on_c, 0, 69, 60
2, 91954, Note_on_c, 0, 60, 0
2, 91954, Note_on_c, 0, 64, 0
2, 91954, Note_on_c, 0, 69, 0
2, 91956, Note_on_c, 0, 60, 60
2, 91956, Note_on_c, 0, 64, 60
2, 91956, Note_on_c, 0, 69, 60
2, 92116, Note_on_c, 0, 60, 0
2, 92116, Note_on_c, 0, 64, 0
2, 92116, Note_on_c, 0, 69, 0
2, 92148, Note_on_c, 0, 60, 60
2, 92148, Note_on_c, 0, 64, 60
2, 92148, Note_on_c, 0, 69, 60
2, 92308, Note_on_c, 0, 60, 0
2, 92308, Note_on_c, 0, 64, 0
2, 92308, Note_on_c, 0, 69, 0
2, 92340, Note_on_c, 0, 60, 60
2, 92340, Note_on_c, 0, 64, 60
2, 92340, Note_on_c, 0, 69, 60
2, 92500, Note_on_c, 0, 60, 0
2, 92500, Note_on_c, 0, 64, 0
2, 92500, Note_on_c, 0, 69, 0
2, 92532, Note_on_c, 0, 60, 60
2, 92532, Note_on_c, 0, 64, 60
2, 92532, Note_on_c, 0, 67, 60
2, 92626, Note_on_c, 0, 60, 0
2, 92626, Note_on_c, 0, 64, 0
2, 92626, Note_on_c, 0, 67, 0
2, 92628, Note_on_c, 0, 69, 60
2, 92722, Note_on_c, 0, 69, 0
2, 92820, Note_on_c, 0, 60, 60
2, 92820, Note_on_c, 0, 64, 60
2, 92820, Note_on_c, 0, 69, 60
2, 93010, Note_on_c, 0, 60, 0
2, 93010, Note_on_c, 0, 64, 0
2, 93010, Note_on_c, 0, 69, 0
2, 93012, Note_on_c, 0, 67, 60
2, 93106, Note_on_c, 0, 67, 0
2, 93108, Note_on_c, 0, 64, 75
2, 93108, Note_on_c, 0, 67, 75
2, 93108, Note_on_c, 0, 71, 75
2, 93268, Note_on_c, 0, 64, 0
2, 93268, Note_on_c, 0, 67, 0
2, 93268, Note_on_c, 0, 71, 0
2, 93300, Note_on_c, 0, 64, 75
2, 93300, Note_on_c, 0, 67, 75
2, 93300, Note_on_c, 0, 71, 75
2, 93460, Note_on_c, 0, 64, 0
2, 93460, Note_on_c, 0, 67, 0
2, 93460, Note_on_c, 0, 71, 0
2, 93492, Note_on_c, 0, 64, 75
2, 93492, Note_on_c, 0, 67, 75
2, 93492, Note_on_c, 0, 71, 75
2, 93652, Note_on_c, 0, 64, 0
2, 93652, Note_on_c, 0, 67, 0
2, 93652, Note_on_c, 0, 71, 0
2, 93684, Note_on_c, 0, 62, 75
2, 93778, Note_on_c, 0, 62, 0
2, 93780, Note_on_c, 0, 64, 75
2, 93780, Note_on_c, 0, 67, 75
2, 93780, Note_on_c, 0, 71, 75
2, 93874, Note_on_c, 0, 64, 0
2, 93874, Note_on_c, 0, 67, 0
2, 93874, Note_on_c, 0, 71, 0
2, 93972, Note_on_c, 0, 64, 75
2, 93972, Note_on_c, 0, 67, 75
2, 93972, Note_on_c, 0, 71, 75
2, 94162, Note_on_c, 0, 64, 0
2, 94162, Note_on_c, 0, 67, 0
2, 94162, Note_on_c, 0, 71, 0
2, 94164, Note_on_c, 0, 62, 75
2, 94258, Note_on_c, 0, 62, 0
2, 94260, Note_on_c, 0, 64, 75
2, 94260, Note_on_c, 0, 67, 75
2, 94260, Note_on_c, 0, 71, 75
2, 94420, Note_on_c, 0, 64, 0
2, 94420, Note_on_c, 0, 67, 0
2, 94420, Note_on_c, 0, 71, 0
2, 94452, Note_on_c, 0, 64, 75
2, 94452, Note_on_c, 0, 67, 75
2, 94452, Note_on_c, 0, 71, 75
2, 94612, Note_on_c, 0, 64, 0
2, 94612, Note_on_c, 0, 67, 0
2, 94612, Note_on_c, 0, 71, 0
2, 94644, Note_on_c, 0, 64, 75
2, 94644, Note_on_c, 0, 67, 75
2, 94644, Note_on_c, 0, 71, 75
2, 94804, Note_on_c, 0, 64, 0
2, 94804, Note_on_c, 0, 67, 0
2, 94804, Note_on_c, 0, 71, 0
2, 94836, Note_on_c, 0, 62, 75
2, 94930, Note_on_c, 0, 62, 0
2, 94932, Note_on_c, 0, 64, 75
2, 94932, Note_on_c, 0, 67, 75
2, 94932, Note_on_c, 0, 71, 75
2, 95026, Note_on_c, 0, 64, 0
2, 95026, Note_on_c, 0, 67, 0
2, 95026, Note_on_c, 0, 71, 0
2, 95124, Note_on_c, 0, 64, 75
2, 95124, Note_on_c, 0, 67, 75
2, 95124, Note_on_c, 0, 71, 75
2, 95314, Note_on_c, 0, 64, 0
2, 95314, Note_on_c, 0, 67, 0
2, 95314, Note_on_c, 0, 71, 0
2, 95316, Note_on_c, 0, 62, 75
2, 95410, Note_on_c, 0, 62, 0
2, 95412, Note_on_c, 0, 64, 75
2, 95412, Note_on_c, 0, 67, 75
2, 95412, Note_on_c, 0, 71, 75
2, 95572, Note_on_c, 0, 64, 0
2, 95572, Note_on_c, 0, 67, 0
2, 95572, Note_on_c, 0, 71, 0
2, 95604, Note_on_c, 0, 64, 75
2, 95604, Note_on_c, 0, 67, 75
2, 95604, Note_on_c, 0, 71, 75
2, 95764, Note_on_c, 0, 64, 0
2, 95764, Note_on_c, 0, 67, 0
2, 95764, Note_on_c, 0, 71, 0
2, 95796, Note_on_c, 0, 64, 75
2, 95796, Note_on_c, 0, 67, 75
2, 95796, Note_on_c, 0, 71, 75
2, 95956, Note_on_c, 0, 64, 0
2, 95956, Note_on_c, 0, 67, 0
2, 95956, Note_on_c, 0, 71, 0
2, 95988, Note_on_c, 0, 62, 75
2, 96082, Note_on_c, 0, 62, 0
2, 96084, Note_on_c, 0, 64, 75
2, 96084, Note_on_c, 0, 67, 75
2, 96084, Note_on_c, 0, 71, 75
2, 96178, Note_on_c, 0, 64, 0
2, 96178, Note_on_c, 0, 67, 0
2, 96178, Note_on_c, 0, 71, 0
2, 96276, Note_on_c, 0, 64, 75
2, 96276, Note_on_c, 0, 67, 75
2, 96276, Note_on_c, 0, 71, 75
2, 96466, Note_on_c, 0, 64, 0
2, 96466, Note_on_c, 0, 67, 0
2, 96466, Note_on_c, 0, 71, 0
2, 96468, Note_on_c, 0, 62, 75
2, 96562, Note_on_c, 0, 62, 0
2, 96564, Note_on_c, 0, 64, 75
2, 96564, Note_on_c, 0, 67, 75
2, 96564, Note_on_c, 0, 71, 75
2, 96724, Note_on_c, 0, 64, 0
2, 96724, Note_on_c, 0, 67, 0
2, 96724, Note_on_c, 0, 71, 0
2, 96756, Note_on_c, 0, 64, 75
2, 96756, Note_on_c, 0, 67, 75
2, 96756, Note_on_c, 0, 71, 75
2, 96916, Note_on_c, 0, 64, 0
2, 96916, Note_on_c, 0, 67, 0
2, 96916, Note_on_c, 0, 71, 0
2, 96948, Note_on_c, 0, 64, 75
2, 96948, Note_on_c, 0, 67, 75
2, 96948, Note_on_c, 0, 71, 75
2, 97108, Note_on_c, 0, 64, 0
2, 97108, Note_on_c, 0, 67, 0
2, 97108, Note_on_c, 0, 71, 0
2, 97140, Note_on_c, 0, 62, 75
2, 97234, Note_on_c, 0, 62, 0
2, 97236, Note_on_c, 0, 64, 75
2, 97236, Note_on_c, 0, 67, 75
2, 97236, Note_on_c, 0, 71, 75
2, 97330, Note_on_c, 0, 64, 0
2, 97330, Note_on_c, 0, 67, 0
2, 97330, Note_on_c, 0, 71, 0
2, 97428, Note_on_c, 0, 64, 75
2, 97428, Note_on_c, 0, 67, 75
2, 97428, Note_on_c, 0, 71, 75
2, 97618, Note_on_c, 0, 64, 0
2, 97618, Note_on_c, 0, 67, 0
2, 97618, Note_on_c, 0, 71, 0
2, 97620, Note_on_c, 0, 62, 75
2, 97714, Note_on_c, 0, 62, 0
2, 97716, Note_on_c, 0, 64, 92
2, 97716, Note_on_c, 0, 67, 92
2, 97716, Note_on_c, 0, 71, 92
2, 97876, Note_on_c, 0, 64, 0
2, 97876, Note_on_c, 0, 67, 0
2, 97876, Note_on_c, 0, 71, 0
2, 97908, Note_on_c, 0, 64, 92
2, 97908, Note_on_c, 0, 67, 92
2, 97908, Note_on_c, 0, 71, 92
2, 98068, Note_on_c, 0, 64, 0
2, 98068, Note_on_c, 0, 67, 0
2, 98068, Note_on_c, 0, 71, 0
2, 98100, Note_on_c, 0, 64, 92
2, 98100, Note_on_c, 0, 67, 92
2, 98100, Note_on_c, 0, 71, 92
2, 98260, Note_on_c, 0, 64, 0
2, 98260, Note_on_c, 0, 67, 0
2, 98260, Note_on_c, 0, 71, 0
2, 98292, Note_on_c, 0, 62, 92
2, 98386, Note_on_c, 0, 62, 0
2, 98388, Note_on_c, 0, 64, 92
2, 98388, Note_on_c, 0, 67, 92
2, 98388, Note_on_c, 0, 71, 92
2, 98482, Note_on_c, 0, 64, 0
2, 98482, Note_on_c, 0, 67, 0
2, 98482, Note_on_c, 0, 71, 0
2, 98580, Note_on_c, 0, 64, 92
2, 98580, Note_on_c, 0, 67, 92
2, 98580, Note_on_c, 0, 71, 92
2, 98770, Note_on_c, 0, 64, 0
2, 98770, Note_on_c, 0, 67, 0
2, 98770, Note_on_c, 0, 71, 0
2, 98772, Note_on_c, 0, 62, 92
2, 98866, Note_on_c, 0, 62, 0
2, 98868, Note_on_c, 0, 64, 92
2, 98868, Note_on_c, 0, 67, 92
2, 98868, Note_on_c, 0, 71, 92
2, 99028, Note_on_c, 0, 64, 0
2, 99028, Note_on_c, 0, 67, 0
2, 99028, Note_on_c, 0, 71, 0
2, 99060, Note_on_c, 0, 64, 92
2, 99060, Note_on_c, 0, 67, 92
2, 99060, Note_on_c, 0, 71, 92
2, 99220, Note_on_c, 0, 64, 0
2, 99220, Note_on_c, 0, 67, 0
2, 99220, Note_on_c, 0, 71, 0
2, 99252, Note_on_c, 0, 64, 92
2, 99252, Note_on_c, 0, 67, 92
2, 99252, Note_on_c, 0, 71, 92
2, 99412, Note_on_c, 0, 64, 0
2, 99412, Note_on_c, 0, 67, 0
2, 99412, Note_on_c, 0, 71, 0
2, 99444, Note_on_c, 0, 62, 92
2, 99538, Note_on_c, 0, 62, 0
2, 99540, Note_on_c, 0, 64, 92
2, 99540, Note_on_c, 0, 67, 92
2, 99540, Note_on_c, 0, 71, 92
2, 99634, Note_on_c, 0, 64, 0
2, 99634, Note_on_c, 0, 67, 0
2, 99634, Note_on_c, 0, 71, 0
2, 99732, Note_on_c, 0, 64, 92
2, 99732, Note_on_c, 0, 67, 92
2, 99732, Note_on_c, 0, 71, 92
2, 99922, Note_on_c, 0, 64, 0
2, 99922, Note_on_c, 0, 67, 0
2, 99922, Note_on_c, 0, 71, 0
2, 99924, Note_on_c, 0, 62, 92
2, 100018, Note_on_c, 0, 62, 0
2, 100020, Note_on_c, 0, 64, 92
2, 100020, Note_on_c, 0, 67, 92
2, 100020, Note_on_c, 0, 71, 92
2, 100180, Note_on_c, 0, 64, 0
2, 100180, Note_on_c, 0, 67, 0
2, 100180, Note_on_c, 0, 71, 0
2, 100212, Note_on_c, 0, 64, 92
2, 100212, Note_on_c, 0, 67, 92
2, 100212, Note_on_c, 0, 71, 92
2, 100372, Note_on_c, 0, 64, 0
2, 100372, Note_on_c, 0, 67, 0
2, 100372, Note_on_c, 0, 71, 0
2, 100404, Note_on_c, 0, 64, 92
2, 100404, Note_on_c, 0, 67, 92
2, 100404, Note_on_c, 0, 71, 92
2, 100564, Note_on_c, 0, 64, 0
2, 100564, Note_on_c, 0, 67, 0
2, 100564, Note_on_c, 0, 71, 0
2, 100596, Note_on_c, 0, 62, 92
2, 100690, Note_on_c, 0, 62, 0
2, 100692, Note_on_c, 0, 64, 92
2, 100692, Note_on_c, 0, 67, 92
2, 100692, Note_on_c, 0, 71, 92
2, 100786, Note_on_c, 0, 64, 0
2, 100786, Note_on_c, 0, 67, 0
2, 100786, Note_on_c, 0, 71, 0
2, 100884, Note_on_c, 0, 64, 92
2, 100884, Note_on_c, 0, 67, 92
2, 100884, Note_on_c, 0, 71, 92
2, 101074, Note_on_c, 0, 64, 0
2, 101074, Note_on_c, 0, 67, 0
2, 101074, Note_on_c, 0, 71, 0
2, 101076, Note_on_c, 0, 62, 92
2, 101170, Note_on_c, 0, 62, 0
2, 101172, Note_on_c, 0, 66, 92
2, 101172, Note_on_c, 0, 69, 92
2, 101332, Note_on_c, 0, 66, 0
2, 101332, Note_on_c, 0, 69, 0
2, 101364, Note_on_c, 0, 69, 92
2, 101364, Note_on_c, 0, 74, 92
2, 101364, Note_on_c, 0, 78, 92
2, 101524, Note_on_c, 0, 69, 0
2, 101524, Note_on_c, 0, 74, 0
2, 101524, Note_on_c, 0, 78, 0
2, 101556, Note_on_c, 0, 69, 92
2, 101556, Note_on_c, 0, 74, 92
2, 101556, Note_on_c, 0, 78, 92
2, 101716, Note_on_c, 0, 69, 0
2, 101716, Note_on_c, 0, 74, 0
2, 101716, Note_on_c, 0, 78, 0
2, 101748, Note_on_c, 0, 69, 92
2, 101748, Note_on_c, 0, 74, 92
2, 101748, Note_on_c, 0, 78, 92
2, 101908, Note_on_c, 0, 69, 0
2, 101908, Note_on_c, 0, 74, 0
2, 101908, Note_on_c, 0, 78, 0
2, 101940, Note_on_c, 0, 69, 92
2, 101940, Note_on_c, 0, 74, 92
2, 101940, Note_on_c, 0, 78, 92
2, 102100, Note_on_c, 0, 69, 0
2, 102100, Note_on_c, 0, 74, 0
2, 102100, Note_on_c, 0, 78, 0
2, 102132, Note_on_c, 0, 69, 92
2, 102132, Note_on_c, 0, 74, 92
2, 102132, Note_on_c, 0, 78, 92
2, 102292, Note_on_c, 0, 69, 0
2, 102292, Note_on_c, 0, 74, 0
2, 102292, Note_on_c, 0, 78, 0
2, 102324, Note_on_c, 0, 69, 92
2, 102324, Note_on_c, 0, 74, 92
2, 102324, Note_on_c, 0, 78, 92
2, 102484, Note_on_c, 0, 69, 0
2, 102484, Note_on_c, 0, 74, 0
2, 102484, Note_on_c, 0, 78, 0
2, 102516, Note_on_c, 0, 69, 92
2, 102516, Note_on_c, 0, 74, 92
2, 102516, Note_on_c, 0, 78, 92
2, 102676, Note_on_c, 0, 69, 0
2, 102676, Note_on_c, 0, 74, 0
2, 102676, Note_on_c, 0, 78, 0
2, 102708, Note_on_c, 0, 69, 92
2, 102708, Note_on_c, 0, 74, 92
2, 102708, Note_on_c, 0, 78, 92
2, 102868, Note_on_c, 0, 69, 0
2, 102868, Note_on_c, 0, 74, 0
2, 102868, Note_on_c, 0, 78, 0
2, 102900, Note_on_c, 0, 69, 92
2, 102900, Note_on_c, 0, 74, 92
2, 102900, Note_on_c, 0, 78, 92
2, 103060, Note_on_c, 0, 69, 0
2, 103060, Note_on_c, 0, 74, 0
2, 103060, Note_on_c, 0, 78, 0
2, 103092, Note_on_c, 0, 69, 92
2, 103092, Note_on_c, 0, 74, 92
2, 103092, Note_on_c, 0, 78, 92
2, 103252, Note_on_c, 0, 69, 0
2, 103252, Note_on_c, 0, 74, 0
2, 103252, Note_on_c, 0, 78, 0
2, 103284, Note_on_c, 0, 69, 92
2, 103284, Note_on_c, 0, 74, 92
2, 103284, Note_on_c, 0, 78, 92
2, 103444, Note_on_c, 0, 69, 0
2, 103444, Note_on_c, 0, 74, 0
2, 103444, Note_on_c, 0, 78, 0
2, 103476, Note_on_c, 0, 64, 92
2, 103476, Note_on_c, 0, 67, 92
2, 103476, Note_on_c, 0, 71, 92
2, 103636, Note_on_c, 0, 64, 0
2, 103636, Note_on_c, 0, 67, 0
2, 103636, Note_on_c, 0, 71, 0
2, 103668, Note_on_c, 0, 64, 92
2, 103668, Note_on_c, 0, 67, 92
2, 103668, Note_on_c, 0, 71, 92
2, 103828, Note_on_c, 0, 64, 0
2, 103828, Note_on_c, 0, 67, 0
2, 103828, Note_on_c, 0, 71, 0
2, 103860, Note_on_c, 0, 64, 92
2, 103860, Note_on_c, 0, 67, 92
2, 103860, Note_on_c, 0, 71, 92
2, 104020, Note_on_c, 0, 64, 0
2, 104020, Note_on_c, 0, 67, 0
2, 104020, Note_on_c, 0, 71, 0
2, 104052, Note_on_c, 0, 62, 92
2, 104146, Note_on_c, 0, 62, 0
2, 104148, Note_on_c, 0, 64, 92
2, 104148, Note_on_c, 0, 67, 92
2, 104148, Note_on_c, 0, 71, 92
2, 104242, Note_on_c, 0, 64, 0
2, 104242, Note_on_c, 0, 67, 0
2, 104242, Note_on_c, 0, 71, 0
2, 104340, Note_on_c, 0, 64, 92
2, 104340, Note_on_c, 0, 67, 92
2, 104340, Note_on_c, 0, 71, 92
2, 104530, Note_on_c, 0, 64, 0
2, 104530, Note_on_c, 0, 67, 0
2, 104530, Note_on_c, 0, 71, 0
2, 104532, Note_on_c, 0, 62, 92
2, 104626, Note_on_c, 0, 62, 0
2, 104628, Note_on_c, 0, 64, 92
2, 104628, Note_on_c, 0, 67, 92
2, 104628, Note_on_c, 0, 71, 92
2, 104788, Note_on_c, 0, 64, 0
2, 104788, Note_on_c, 0, 67, 0
2, 104788, Note_on_c, 0, 71, 0
2, 104820, Note_on_c, 0, 64, 92
2, 104820, Note_on_c, 0, 67, 92
2, 104820, Note_on_c, 0, 71, 92
2, 104980, Note_on_c, 0, 64, 0
2, 104980, Note_on_c, 0, 67, 0
2, 104980, Note_on_c, 0, 71, 0
2, 105012, Note_on_c, 0, 64, 92
2, 105012, Note_on_c, 0, 67, 92
2, 105012, Note_on_c, 0, 71, 92
2, 105172, Note_on_c, 0, 64, 0
2, 105172, Note_on_c, 0, 67, 0
2, 105172, Note_on_c, 0, 71, 0
2, 105204, Note_on_c, 0, 62, 92
2, 105298, Note_on_c, 0, 62, 0
2, 105300, Note_on_c, 0, 64, 92
2, 105300, Note_on_c, 0, 67, 92
2, 105300, Note_on_c, 0, 71, 92
2, 105394, Note_on_c, 0, 64, 0
2, 105394, Note_on_c, 0, 67, 0
2, 105394, Note_on_c, 0, 71, 0
2, 105492, Note_on_c, 0, 64, 92
2, 105492, Note_on_c, 0, 67, 92
2, 105492, Note_on_c, 0, 71, 92
2, 105682, Note_on_c, 0, 64, 0
2, 105682, Note_on_c, 0, 67, 0
2, 105682, Note_on_c, 0, 71, 0
2, 105684, Note_on_c, 0, 62, 92
2, 105778, Note_on_c, 0, 62, 0
2, 105780, Note_on_c, 0, 64, 92
2, 105780, Note_on_c, 0, 67, 92
2, 105780, Note_on_c, 0, 71, 92
2, 105940, Note_on_c, 0, 64, 0
2, 105940, Note_on_c, 0, 67, 0
2, 105940, Note_on_c, 0, 71, 0
2, 105972, Note_on_c, 0, 64, 92
2, 105972, Note_on_c, 0, 67, 92
2, 105972, Note_on_c, 0, 71, 92
2, 106132, Note_on_c, 0, 64, 0
2, 106132, Note_on_c, 0, 67, 0
2, 106132, Note_on_c, 0, 71, 0
2, 106164, Note_on_c, 0, 64, 92
2, 106164, Note_on_c, 0, 67, 92
2, 106164, Note_on_c, 0, 71, 92
2, 106324, Note_on_c, 0, 64, 0
2, 106324, Note_on_c, 0, 67, 0
2, 106324, Note_on_c, 0, 71, 0
2, 106356, Note_on_c, 0, 62, 92
2, 106450, Note_on_c, 0, 62, 0
2, 106452, Note_on_c, 0, 64, 92
2, 106452, Note_on_c, 0, 67, 92
2, 106452, Note_on_c, 0, 71, 92
2, 106546, Note_on_c, 0, 64, 0
2, 106546, Note_on_c, 0, 67, 0
2, 106546, Note_on_c, 0, 71, 0
2, 106644, Note_on_c, 0, 64, 92
2, 106644, Note_on_c, 0, 67, 92
2, 106644, Note_on_c, 0, 71, 92
2, 106834, Note_on_c, 0, 64, 0
2, 106834, Note_on_c, 0, 67, 0
2, 106834, Note_on_c, 0, 71, 0
2, 106836, Note_on_c, 0, 62, 92
2, 106930, Note_on_c, 0, 62, 0
2, 106932, Note_on_c, 0, 66, 92
2, 106932, Note_on_c, 0, 69, 92
2, 107092, Note_on_c, 0, 66, 0
2, 107092, Note_on_c, 0, 69, 0
2, 107124, Note_on_c, 0, 69, 92
2, 107124, Note_on_c, 0, 74, 92
2, 107124, Note_on_c, 0, 78, 92
2, 107284, Note_on_c, 0, 69, 0
2, 107284, Note_on_c, 0, 74, 0
2, 107284, Note_on_c, 0, 78, 0
2, 107316, Note_on_c, 0, 69, 92
2, 107316, Note_on_c, 0, 74, 92
2, 107316, Note_on_c, 0, 78, 92
2, 107476, Note_on_c, 0, 69, 0
2, 107476, Note_on_c, 0, 74, 0
2, 107476, Note_on_c, 0, 78, 0
2, 107508, Note_on_c, 0, 69, 92
2, 107508, Note_on_c, 0, 74, 92
2, 107508, Note_on_c, 0, 78, 92
2, 107668, Note_on_c, 0, 69, 0
2, 107668, Note_on_c, 0, 74, 0
2, 107668, Note_on_c, 0, 78, 0
2, 107700, Note_on_c, 0, 69, 92
2, 107700, Note_on_c, 0, 74, 92
2, 107700, Note_on_c, 0, 78, 92
2, 107860, Note_on_c, 0, 69, 0
2, 107860, Note_on_c, 0, 74, 0
2, 107860, Note_on_c, 0, 78, 0
2, 107892, Note_on_c, 0, 69, 92
2, 107892, Note_on_c, 0, 74, 92
2, 107892, Note_on_c, 0, 78, 92
2, 108052, Note_on_c, 0, 69, 0
2, 108052, Note_on_c, 0, 74, 0
2, 108052, Note_on_c, 0, 78, 0
2, 108084, Note_on_c, 0, 69, 92
2, 108084, Note_on_c, 0, 74, 92
2, 108084, Note_on_c, 0, 78, 92
2, 108244, Note_on_c, 0, 69, 0
2, 108244, Note_on_c, 0, 74, 0
2, 108244, Note_on_c, 0, 78, 0
2, 108276, Note_on_c, 0, 69, 92
2, 108276, Note_on_c, 0, 74, 92
2, 108276, Note_on_c, 0, 78, 92
2, 108436, Note_on_c, 0, 69, 0
2, 108436, Note_on_c, 0, 74, 0
2, 108436, Note_on_c, 0, 78, 0
2, 108468, Note_on_c, 0, 69, 92
2, 108468, Note_on_c, 0, 74, 92
2, 108468, Note_on_c, 0, 78, 92
2, 108628, Note_on_c, 0, 69, 0
2, 108628, Note_on_c, 0, 74, 0
2, 108628, Note_on_c, 0, 78, 0
2, 108660, Note_on_c, 0, 69, 92
2, 108660, Note_on_c, 0, 74, 92
2, 108660, Note_on_c, 0, 78, 92
2, 108820, Note_on_c, 0, 69, 0
2, 108820, Note_on_c, 0, 74, 0
2, 108820, Note_on_c, 0, 78, 0
2, 108852, Note_on_c, 0, 69, 92
2, 108852, Note_on_c, 0, 74, 92
2, 108852, Note_on_c, 0, 78, 92
2, 109012, Note_on_c, 0, 69, 0
2, 109012, Note_on_c, 0, 74, 0
2, 109012, Note_on_c, 0, 78, 0
2, 109044, Note_on_c, 0, 69, 92
2, 109044, Note_on_c, 0, 74, 92
2, 109044, Note_on_c, 0, 78, 92
2, 109204, Note_on_c, 0, 69, 0
2, 109204, Note_on_c, 0, 74, 0
2, 109204, Note_on_c, 0, 78, 0
2, 109236, Note_on_c, 0, 52, 127
2, 109236, Note_on_c, 0, 57, 127
2, 109236, Note_on_c, 0, 61, 127
2, 109330, Note_on_c, 0, 52, 0
2, 109330, Note_on_c, 0, 57, 0
2, 109330, Note_on_c, 0, 61, 0
2, 109332, Note_on_c, 0, 52, 92
2, 109332, Note_on_c, 0, 57, 92
2, 109332, Note_on_c, 0, 61, 92
2, 109426, Note_on_c, 0, 52, 0
2, 109426, Note_on_c, 0, 57, 0
2, 109426, Note_on_c, 0, 61, 0
2, 109428, Note_on_c, 0, 52, 92
2, 109428, Note_on_c, 0, 57, 92
2, 109428, Note_on_c, 0, 61, 92
2, 109522, Note_on_c, 0, 52, 0
2, 109522, Note_on_c, 0, 57, 0
2, 109522, Note_on_c, 0, 61, 0
2, 109524, Note_on_c, 0, 54, 127
2, 109524, Note_on_c, 0, 57, 127
2, 109524, Note_on_c, 0, 62, 127
2, 109618, Note_on_c, 0, 54, 0
2, 109618, Note_on_c, 0, 57, 0
2, 109618, Note_on_c, 0, 62, 0
2, 109620, Note_on_c, 0, 54, 92
2, 109620, Note_on_c, 0, 57, 92
2, 109620, Note_on_c, 0, 62, 92
2, 109714, Note_on_c, 0, 54, 0
2, 109714, Note_on_c, 0, 57, 0
2, 109714, Note_on_c, 0, 62, 0
2, 109716, Note_on_c, 0, 54, 92
2, 109716, Note_on_c, 0, 57, 92
2, 109716, Note_on_c, 0, 62, 92
2, 109810, Note_on_c, 0, 54, 0
2, 109810, Note_on_c, 0, 57, 0
2, 109810, Note_on_c, 0, 62, 0
2, 109812, Note_on_c, 0, 55, 127
2, 109812, Note_on_c, 0, 59, 127
2, 109812, Note_on_c, 0, 64, 127
2, 109860, Note_on_c, 0, 55, 0
2, 109860, Note_on_c, 0, 59, 0
2, 109860, Note_on_c, 0, 64, 0
2, 110004, Note_on_c, 0, 55, 127
2, 110004, Note_on_c, 0, 59, 127
2, 110004, Note_on_c, 0, 64, 127
2, 110052, Note_on_c, 0, 55, 0
2, 110052, Note_on_c, 0, 59, 0
2, 110052, Note_on_c, 0, 64, 0
2, 110388, Note_on_c, 0, 52, 127
2, 110388, Note_on_c, 0, 57, 127
2, 110388, Note_on_c, 0, 61, 127
2, 110482, Note_on_c, 0, 52, 0
2, 110482, Note_on_c, 0, 57, 0
2, 110482, Note_on_c, 0, 61, 0
2, 110484, Note_on_c, 0, 52, 92
2, 110484, Note_on_c, 0, 57, 92
2, 110484, Note_on_c, 0, 61, 92
2, 110578, Note_on_c, 0, 52, 0
2, 110578, Note_on_c, 0, 57, 0
2, 110578, Note_on_c, 0, 61, 0
2, 110580, Note_on_c, 0, 52, 92
2, 110580, Note_on_c, 0, 57, 92
2, 110580, Note_on_c, 0, 61, 92
2, 110674, Note_on_c, 0, 52, 0
2, 110674, Note_on_c, 0, 57, 0
2, 110674, Note_on_c, 0, 61, 0
2, 110676, Note_on_c, 0, 54, 127
2, 110676, Note_on_c, 0, 57, 127
2, 110676, Note_on_c, 0, 62, 127
2, 110770, Note_on_c, 0, 54, 0
2, 110770, Note_on_c, 0, 57, 0
2, 110770, Note_on_c, 0, 62, 0
2, 110772, Note_on_c, 0, 54, 92
2, 110772, Note_on_c, 0, 57, 92
2, 110772, Note_on_c, 0, 62, 92
2, 110866, Note_on_c, 0, 54, 0
2, 110866, Note_on_c, 0, 57, 0
2, 110866, Note_on_c, 0, 62, 0
2, 110868, Note_on_c, 0, 54, 92
2, 110868, Note_on_c, 0, 57, 92
2, 110868, Note_on_c, 0, 62, 92
2, 110962, Note_on_c, 0, 54, 0
2, 110962, Note_on_c, 0, 57, 0
2, 110962, Note_on_c, 0, 62, 0
2, 110964, Note_on_c, 0, 55, 127
2, 110964, Note_on_c, 0, 59, 127
2, 110964, Note_on_c, 0, 64, 127
2, 111012, Note_on_c, 0, 55, 0
2, 111012, Note_on_c, 0, 59, 0
2, 111012, Note_on_c, 0, 64, 0
2, 111156, Note_on_c, 0, 55, 127
2, 111156, Note_on_c, 0, 59, 127
2, 111156, Note_on_c, 0, 64, 127
2, 111204, Note_on_c, 0, 55, 0
2, 111204, Note_on_c, 0, 59, 0
2, 111204, Note_on_c, 0, 64, 0
2, 111540, Note_on_c, 0, 52, 127
2, 111540, Note_on_c, 0, 57, 127
2, 111540, Note_on_c, 0, 61, 127
2, 111634, Note_on_c, 0, 52, 0
2, 111634, Note_on_c, 0, 57, 0
2, 111634, Note_on_c, 0, 61, 0
2, 111636, Note_on_c, 0, 52, 92
2, 111636, Note_on_c, 0, 57, 92
2, 111636, Note_on_c, 0, 61, 92
2, 111730, Note_on_c, 0, 52, 0
2, 111730, Note_on_c, 0, 57, 0
2, 111730, Note_on_c, 0, 61, 0
2, 111732, Note_on_c, 0, 52, 92
2, 111732, Note_on_c, 0, 57, 92
2, 111732, Note_on_c, 0, 61, 92
2, 111826, Note_on_c, 0, 52, 0
2, 111826, Note_on_c, 0, 57, 0
2, 111826, Note_on_c, 0, 61, 0
2, 111828, Note_on_c, 0, 54, 127
2, 111828, Note_on_c, 0, 57, 127
2, 111828, Note_on_c, 0, 62, 127
2, 111922, Note_on_c, 0, 54, 0
2, 111922, Note_on_c, 0, 57, 0
2, 111922, Note_on_c, 0, 62, 0
2, 111924, Note_on_c, 0, 54, 92
2, 111924, Note_on_c, 0, 57, 92
2, 111924, Note_on_c, 0, 62, 92
2, 112018, Note_on_c, 0, 54, 0
2, 112018, Note_on_c, 0, 57, 0
2, 112018, Note_on_c, 0, 62, 0
2, 112020, Note_on_c, 0, 54, 92
2, 112020, Note_on_c, 0, 57, 92
2, 112020, Note_on_c, 0, 62, 92
2, 112114, Note_on_c, 0, 54, 0
2, 112114, Note_on_c, 0, 57, 0
2, 112114, Note_on_c, 0, 62, 0
2, 112500, Note_on_c, 0, 64, 92
2, 112534, Note_on_c, 0, 64, 0
2, 112536, Note_on_c, 0, 67, 92
2, 112570, Note_on_c, 0, 67, 0
2, 112572, Note_on_c, 0, 71, 92
2, 112606, Note_on_c, 0, 71, 0
2, 112608, Note_on_c, 0, 76, 92
2, 112630, Note_on_c, 0, 76, 0
2, 112632, Note_on_c, 0, 79, 92
2, 112654, Note_on_c, 0, 79, 0
2, 112656, Note_on_c, 0, 83, 92
2, 112678, Note_on_c, 0, 83, 0
2, 112680, Note_on_c, 0, 88, 92
2, 112690, Note_on_c, 0, 88, 0
2, 112692, Note_on_c, 0, 100, 92
2, 112852, Note_on_c, 0, 100, 0
2, 112884, Note_on_c, 0, 71, 92
2, 112884, Note_on_c, 0, 75, 92
2, 112884, Note_on_c, 0, 78, 92
2, 112884, Note_on_c, 0, 83, 92
2, 113044, Note_on_c, 0, 71, 0
2, 113044, Note_on_c, 0, 75, 0
2, 113044, Note_on_c, 0, 78, 0
2, 113044, Note_on_c, 0, 83, 0
2, 113076, Note_on_c, 0, 69, 92
2, 113076, Note_on_c, 0, 72, 92
2, 113076, Note_on_c, 0, 75, 92
2, 113076, Note_on_c, 0, 78, 92
2, 113076, Note_on_c, 0, 81, 92
2, 113604, Note_on_c, 0, 69, 0
2, 113604, Note_on_c, 0, 72, 0
2, 113604, Note_on_c, 0, 75, 0
2, 113604, Note_on_c, 0, 78, 0
2, 113604, Note_on_c, 0, 81, 0
2, 113652, Note_on_c, 0, 79, 92
2, 113652, Note_on_c, 0, 83, 92
2, 113652, Note_on_c, 0, 88, 92
2, 113664, Note_on_c, 0, 79, 0
2, 113664, Note_on_c, 0, 83, 0
2, 113664, Note_on_c, 0, 88, 0
2, 113664, Note_on_c, 0, 76, 92
2, 113676, Note_on_c, 0, 76, 0
2, 113676, Note_on_c, 0, 79, 92
2, 113676, Note_on_c, 0, 83, 92
2, 113676, Note_on_c, 0, 88, 92
2, 113688, Note_on_c, 0, 79, 0
2, 113688, Note_on_c, 0, 83, 0
2, 113688, Note_on_c, 0, 88, 0
2, 113688, Note_on_c, 0, 76, 92
2, 113700, Note_on_c, 0, 76, 0
2, 113700, Note_on_c, 0, 79, 92
2, 113700, Note_on_c, 0, 83, 92
2, 113700, Note_on_c, 0, 88, 92
2, 113712, Note_on_c, 0, 79, 0
2, 113712, Note_on_c, 0, 83, 0
2, 113712, Note_on_c, 0, 88, 0
2, 113712, Note_on_c, 0, 76, 92
2, 113724, Note_on_c, 0, 76, 0
2, 113724, Note_on_c, 0, 79, 92
2, 113724, Note_on_c, 0, 83, 92
2, 113724, Note_on_c, 0, 88, 92
2, 113736, Note_on_c, 0, 79, 0
2, 113736, Note_on_c, 0, 83, 0
2, 113736, Note_on_c, 0, 88, 0
2, 113736, Note_on_c, 0, 76, 92
2, 113748, Note_on_c, 0, 76, 0
2, 113748, Note_on_c, 0, 79, 92
2, 113748, Note_on_c, 0, 83, 92
2, 113748, Note_on_c, 0, 88, 92
2, 113760, Note_on_c, 0, 79, 0
2, 113760, Note_on_c, 0, 83, 0
2, 113760, Note_on_c, 0, 88, 0
2, 113760, Note_on_c, 0, 76, 92
2, 113772, Note_on_c, 0, 76, 0
2, 113772, Note_on_c, 0, 79, 92
2, 113772, Note_on_c, 0, 83, 92
2, 113772, Note_on_c, 0, 88, 92
2, 113784, Note_on_c, 0, 79, 0
2, 113784, Note_on_c, 0, 83, 0
2, 113784, Note_on_c, 0, 88, 0
2, 113784, Note_on_c, 0, 76, 92
2, 113796, Note_on_c, 0, 76, 0
2, 113796, Note_on_c, 0, 79, 92
2, 113796, Note_on_c, 0, 83, 92
2, 113796, Note_on_c, 0, 88, 92
2, 113808, Note_on_c, 0, 79, 0
2, 113808, Note_on_c, 0, 83, 0
2, 113808, Note_on_c, 0, 88, 0
2, 113808, Note_on_c, 0, 76, 92
2, 113820, Note_on_c, 0, 76, 0
2, 113820, Note_on_c, 0, 79, 92
2, 113820, Note_on_c, 0, 83, 92
2, 113820, Note_on_c, 0, 88, 92
2, 113832, Note_on_c, 0, 79, 0
2, 113832, Note_on_c, 0, 83, 0
2, 113832, Note_on_c, 0, 88, 0
2, 113832, Note_on_c, 0, 76, 92
2, 113844, Note_on_c, 0, 76, 0
2, 113844, Note_on_c, 0, 79, 92
2, 113844, Note_on_c, 0, 83, 92
2, 113844, Note_on_c, 0, 88, 92
2, 113856, Note_on_c, 0, 79, 0
2, 113856, Note_on_c, 0, 83, 0
2, 113856, Note_on_c, 0, 88, 0
2, 113856, Note_on_c, 0, 76, 92
2, 113868, Note_on_c, 0, 76, 0
2, 113868, Note_on_c, 0, 79, 92
2, 113868, Note_on_c, 0, 83, 92
2, 113868, Note_on_c, 0, 88, 92
2, 113880, Note_on_c, 0, 79, 0
2, 113880, Note_on_c, 0, 83, 0
2, 113880, Note_on_c, 0, 88, 0
2, 113880, Note_on_c, 0, 76, 92
2, 113892, Note_on_c, 0, 76, 0
2, 113892, Note_on_c, 0, 79, 92
2, 113892, Note_on_c, 0, 83, 92
2, 113892, Note_on_c, 0, 88, 92
2, 113904, Note_on_c, 0, 79, 0
2, 113904, Note_on_c, 0, 83, 0
2, 113904, Note_on_c, 0, 88, 0
2, 113904, Note_on_c, 0, 76, 92
2, 113916, Note_on_c, 0, 76, 0
2, 113916, Note_on_c, 0, 79, 92
2, 113916, Note_on_c, 0, 83, 92
2, 113916, Note_on_c, 0, 88, 92
2, 113928, Note_on_c, 0, 79, 0
2, 113928, Note_on_c, 0, 83, 0
2, 113928, Note_on_c, 0, 88, 0
2, 113928, Note_on_c, 0, 76, 92
2, 113940, Note_on_c, 0, 76, 0
2, 113940, Note_on_c, 0, 79, 92
2, 113940, Note_on_c, 0, 83, 92
2, 113940, Note_on_c, 0, 88, 92
2, 113952, Note_on_c, 0, 79, 0
2, 113952, Note_on_c, 0, 83, 0
2, 113952, Note_on_c, 0, 88, 0
2, 113952, Note_on_c, 0, 76, 92
2, 113964, Note_on_c, 0, 76, 0
2, 113964, Note_on_c, 0, 79, 92
2, 113964, Note_on_c, 0, 83, 92
2, 113964, Note_on_c, 0, 88, 92
2, 113976, Note_on_c, 0, 79, 0
2, 113976, Note_on_c, 0, 83, 0
2, 113976, Note_on_c, 0, 88, 0
2, 113976, Note_on_c, 0, 76, 92
2, 113988, Note_on_c, 0, 76, 0
2, 113988, Note_on_c, 0, 79, 92
2, 113988, Note_on_c, 0, 83, 92
2, 113988, Note_on_c, 0, 88, 92
2, 114000, Note_on_c, 0, 79, 0
2, 114000, Note_on_c, 0, 83, 0
2, 114000, Note_on_c, 0, 88, 0
2, 114000, Note_on_c, 0, 76, 92
2, 114012, Note_on_c, 0, 76, 0
2, 114012, Note_on_c, 0, 79, 92
2, 114012, Note_on_c, 0, 83, 92
2, 114012, Note_on_c, 0, 88, 92
2, 114024, Note_on_c, 0, 79, 0
2, 114024, Note_on_c, 0, 83, 0
2, 114024, Note_on_c, 0, 88, 0
2, 114024, Note_on_c, 0, 76, 92
2, 114036, Note_on_c, 0, 76, 0
2, 114036, Note_on_c, 0, 79, 92
2, 114036, Note_on_c, 0, 83, 92
2, 114036, Note_on_c, 0, 88, 92
2, 114048, Note_on_c, 0, 79, 0
2, 114048, Note_on_c, 0, 83, 0
2, 114048, Note_on_c, 0, 88, 0
2, 114048, Note_on_c, 0, 76, 92
2, 114060, Note_on_c, 0, 76, 0
2, 114060, Note_on_c, 0, 79, 92
2, 114060, Note_on_c, 0, 83, 92
2, 114060, Note_on_c, 0, 88, 92
2, 114072, Note_on_c, 0, 79, 0
2, 114072, Note_on_c, 0, 83, 0
2, 114072, Note_on_c, 0, 88, 0
2, 114072, Note_on_c, 0, 76, 92
2, 114084, Note_on_c, 0, 76, 0
2, 114084, Note_on_c, 0, 79, 92
2, 114084, Note_on_c, 0, 83, 92
2, 114084, Note_on_c, 0, 88, 92
2, 114096, Note_on_c, 0, 79, 0
2, 114096, Note_on_c, 0, 83, 0
2, 114096, Note_on_c, 0, 88, 0
2, 114096, Note_on_c, 0, 76, 92
2, 114108, Note_on_c, 0, 76, 0
2, 114108, Note_on_c, 0, 79, 92
2, 114108, Note_on_c, 0, 83, 92
2, 114108, Note_on_c, 0, 88, 92
2, 114120, Note_on_c, 0, 79, 0
2, 114120, Note_on_c, 0, 83, 0
2, 114120, Note_on_c, 0, 88, 0
2, 114120, Note_on_c, 0, 76, 92
2, 114132, Note_on_c, 0, 76, 0
2, 114132, Note_on_c, 0, 79, 92
2, 114132, Note_on_c, 0, 83, 92
2, 114132, Note_on_c, 0, 88, 92
2, 114144, Note_on_c, 0, 83, 0
2, 114144, Note_on_c, 0, 79, 0
2, 114144, Note_on_c, 0, 88, 0
2, 114144, Note_on_c, 0, 76, 92
2, 114156, Note_on_c, 0, 76, 0
2, 114156, Note_on_c, 0, 79, 92
2, 114156, Note_on_c, 0, 83, 92
2, 114156, Note_on_c, 0, 88, 92
2, 114168, Note_on_c, 0, 79, 0
2, 114168, Note_on_c, 0, 83, 0
2, 114168, Note_on_c, 0, 88, 0
2, 114168, Note_on_c, 0, 76, 92
2, 114180, Note_on_c, 0, 76, 0
2, 114180, Note_on_c, 0, 79, 92
2, 114180, Note_on_c, 0, 83, 92
2, 114180, Note_on_c, 0, 88, 92
2, 114192, Note_on_c, 0, 79, 0
2, 114192, Note_on_c, 0, 83, 0
2, 114192, Note_on_c, 0, 88, 0
2, 114192, Note_on_c, 0, 76, 92
2, 114204, Note_on_c, 0, 76, 0
2, 114204, Note_on_c, 0, 79, 92
2, 114204, Note_on_c, 0, 83, 92
2, 114204, Note_on_c, 0, 88, 92
2, 114216, Note_on_c, 0, 79, 0
2, 114216, Note_on_c, 0, 83, 0
2, 114216, Note_on_c, 0, 88, 0
2, 114216, Note_on_c, 0, 76, 92
2, 114228, Note_on_c, 0, 76, 0
2, 114228, Note_on_c, 0, 79, 92
2, 114228, Note_on_c, 0, 83, 92
2, 114228, Note_on_c, 0, 88, 92
2, 114240, Note_on_c, 0, 79, 0
2, 114240, Note_on_c, 0, 83, 0
2, 114240, Note_on_c, 0, 88, 0
2, 114240, Note_on_c, 0, 76, 92
2, 114252, Note_on_c, 0, 76, 0
2, 114252, Note_on_c, 0, 79, 92
2, 114252, Note_on_c, 0, 83, 92
2, 114252, Note_on_c, 0, 88, 92
2, 114264, Note_on_c, 0, 79, 0
2, 114264, Note_on_c, 0, 83, 0
2, 114264, Note_on_c, 0, 88, 0
2, 114264, Note_on_c, 0, 76, 92
2, 114276, Note_on_c, 0, 76, 0
2, 114276, Note_on_c, 0, 79, 92
2, 114276, Note_on_c, 0, 83, 92
2, 114276, Note_on_c, 0, 88, 92
2, 114288, Note_on_c, 0, 79, 0
2, 114288, Note_on_c, 0, 83, 0
2, 114288, Note_on_c, 0, 88, 0
2, 114288, Note_on_c, 0, 76, 92
2, 114300, Note_on_c, 0, 76, 0
2, 114300, Note_on_c, 0, 79, 92
2, 114300, Note_on_c, 0, 83, 92
2, 114300, Note_on_c, 0, 88, 92
2, 114312, Note_on_c, 0, 79, 0
2, 114312, Note_on_c, 0, 83, 0
2, 114312, Note_on_c, 0, 88, 0
2, 114312, Note_on_c, 0, 76, 92
2, 114324, Note_on_c, 0, 76, 0
2, 114324, Note_on_c, 0, 79, 92
2, 114324, Note_on_c, 0, 83, 92
2, 114324, Note_on_c, 0, 88, 92
2, 114336, Note_on_c, 0, 79, 0
2, 114336, Note_on_c, 0, 83, 0
2, 114336, Note_on_c, 0, 88, 0
2, 114336, Note_on_c, 0, 76, 92
2, 114348, Note_on_c, 0, 76, 0
2, 114348, Note_on_c, 0, 79, 92
2, 114348, Note_on_c, 0, 83, 92
2, 114348, Note_on_c, 0, 88, 92
2, 114360, Note_on_c, 0, 79, 0
2, 114360, Note_on_c, 0, 83, 0
2, 114360, Note_on_c, 0, 88, 0
2, 114360, Note_on_c, 0, 76, 92
2, 114372, Note_on_c, 0, 76, 0
2, 114372, Note_on_c, 0, 79, 92
2, 114372, Note_on_c, 0, 83, 92
2, 114372, Note_on_c, 0, 88, 92
2, 114384, Note_on_c, 0, 79, 0
2, 114384, Note_on_c, 0, 83, 0
2, 114384, Note_on_c, 0, 88, 0
2, 114384, Note_on_c, 0, 76, 92
2, 114396, Note_on_c, 0, 76, 0
2, 114396, Note_on_c, 0, 79, 92
2, 114396, Note_on_c, 0, 83, 92
2, 114396, Note_on_c, 0, 88, 92
2, 114408, Note_on_c, 0, 79, 0
2, 114408, Note_on_c, 0, 83, 0
2, 114408, Note_on_c, 0, 88, 0
2, 114408, Note_on_c, 0, 76, 92
2, 114418, Note_on_c, 0, 76, 0
2, 114420, Note_on_c, 0, 76, 127
2, 114420, Note_on_c, 0, 79, 127
2, 114420, Note_on_c, 0, 83, 127
2, 114420, Note_on_c, 0, 88, 127
2, 114514, Note_on_c, 0, 76, 0
2, 114514, Note_on_c, 0, 79, 0
2, 114514, Note_on_c, 0, 83, 0
2, 114514, Note_on_c, 0, 88, 0
2, 114514, End_track
3, 0, Start_track
3, 0, MIDI_port, 0
3, 0, Title_t, "By Kind Permission Of"
3, 0, Program_c, 1, 0
3, 0, Control_c, 1, 7, 127
3, 0, Control_c, 1, 10, 64
3, 1548, Note_on_c, 1, 36, 110
3, 1596, Note_on_c, 1, 36, 0
3, 1596, Note_on_c, 1, 48, 110
3, 1644, Note_on_c, 1, 48, 0
3, 1644, Note_on_c, 1, 52, 110
3, 1692, Note_on_c, 1, 52, 0
3, 1692, Note_on_c, 1, 55, 110
3, 1738, Note_on_c, 1, 55, 0
3, 1740, Note_on_c, 1, 57, 110
3, 1788, Note_on_c, 1, 57, 0
3, 1788, Note_on_c, 1, 62, 110
3, 1836, Note_on_c, 1, 62, 0
3, 1836, Note_on_c, 1, 57, 110
3, 1884, Note_on_c, 1, 57, 0
3, 1884, Note_on_c, 1, 55, 110
3, 1932, Note_on_c, 1, 55, 0
3, 1932, Note_on_c, 1, 52, 110
3, 1978, Note_on_c, 1, 52, 0
3, 1980, Note_on_c, 1, 36, 110
3, 2028, Note_on_c, 1, 36, 0
3, 2028, Note_on_c, 1, 48, 110
3, 2076, Note_on_c, 1, 48, 0
3, 2076, Note_on_c, 1, 52, 110
3, 2124, Note_on_c, 1, 52, 0
3, 2124, Note_on_c, 1, 55, 110
3, 2170, Note_on_c, 1, 55, 0
3, 2172, Note_on_c, 1, 57, 110
3, 2220, Note_on_c, 1, 57, 0
3, 2220, Note_on_c, 1, 62, 110
3, 2268, Note_on_c, 1, 62, 0
3, 2268, Note_on_c, 1, 57, 110
3, 2316, Note_on_c, 1, 57, 0
3, 2316, Note_on_c, 1, 55, 110
3, 2364, Note_on_c, 1, 55, 0
3, 2364, Note_on_c, 1, 52, 110
3, 2410, Note_on_c, 1, 52, 0
3, 2412, Note_on_c, 1, 36, 110
3, 2460, Note_on_c, 1, 36, 0
3, 2460, Note_on_c, 1, 48, 110
3, 2508, Note_on_c, 1, 48, 0
3, 2508, Note_on_c, 1, 52, 110
3, 2556, Note_on_c, 1, 52, 0
3, 2556, Note_on_c, 1, 55, 110
3, 2602, Note_on_c, 1, 55, 0
3, 2604, Note_on_c, 1, 57, 110
3, 2652, Note_on_c, 1, 57, 0
3, 2652, Note_on_c, 1, 62, 110
3, 2700, Note_on_c, 1, 62, 0
3, 2700, Note_on_c, 1, 57, 110
3, 2748, Note_on_c, 1, 57, 0
3, 2748, Note_on_c, 1, 55, 110
3, 2796, Note_on_c, 1, 55, 0
3, 2796, Note_on_c, 1, 52, 110
3, 2842, Note_on_c, 1, 52, 0
3, 2844, Note_on_c, 1, 36, 110
3, 2892, Note_on_c, 1, 36, 0
3, 2892, Note_on_c, 1, 48, 110
3, 2940, Note_on_c, 1, 48, 0
3, 2940, Note_on_c, 1, 52, 110
3, 2988, Note_on_c, 1, 52, 0
3, 2988, Note_on_c, 1, 55, 110
3, 3034, Note_on_c, 1, 55, 0
3, 3036, Note_on_c, 1, 57, 110
3, 3084, Note_on_c, 1, 57, 0
3, 3084, Note_on_c, 1, 62, 110
3, 3132, Note_on_c, 1, 62, 0
3, 3132, Note_on_c, 1, 57, 110
3, 3180, Note_on_c, 1, 57, 0
3, 3180, Note_on_c, 1, 55, 110
3, 3228, Note_on_c, 1, 55, 0
3, 3228, Note_on_c, 1, 52, 110
3, 3274, Note_on_c, 1, 52, 0
3, 3276, Note_on_c, 1, 52, 110
3, 3324, Note_on_c, 1, 52, 0
3, 3324, Note_on_c, 1, 55, 110
3, 3372, Note_on_c, 1, 55, 0
3, 3372, Note_on_c, 1, 57, 110
3, 3420, Note_on_c, 1, 57, 0
3, 3420, Note_on_c, 1, 62, 110
3, 3468, Note_on_c, 1, 62, 0
3, 3468, Note_on_c, 1, 57, 110
3, 3516, Note_on_c, 1, 57, 0
3, 3516, Note_on_c, 1, 55, 110
3, 3562, Note_on_c, 1, 55, 0
3, 3564, Note_on_c, 1, 52, 110
3, 3612, Note_on_c, 1, 52, 0
3, 3612, Note_on_c, 1, 55, 110
3, 3660, Note_on_c, 1, 55, 0
3, 3660, Note_on_c, 1, 57, 110
3, 3708, Note_on_c, 1, 57, 0
3, 3708, Note_on_c, 1, 62, 110
3, 3756, Note_on_c, 1, 62, 0
3, 3756, Note_on_c, 1, 57, 110
3, 3804, Note_on_c, 1, 57, 0
3, 3804, Note_on_c, 1, 55, 110
3, 3850, Note_on_c, 1, 55, 0
3, 3852, Note_on_c, 1, 52, 110
3, 3948, Note_on_c, 1, 52, 0
3, 3948, Note_on_c, 1, 55, 110
3, 4044, Note_on_c, 1, 55, 0
3, 4044, Note_on_c, 1, 57, 110
3, 4140, Note_on_c, 1, 57, 0
3, 4140, Note_on_c, 1, 62, 110
3, 4236, Note_on_c, 1, 62, 0
3, 4236, Note_on_c, 1, 57, 110
3, 4332, Note_on_c, 1, 57, 0
3, 4332, Note_on_c, 1, 55, 110
3, 4426, Note_on_c, 1, 55, 0
3, 4428, Note_on_c, 1, 36, 108
3, 4428, Note_on_c, 1, 39, 108
3, 4428, Note_on_c, 1, 43, 108
3, 4428, Note_on_c, 1, 48, 108
3, 4666, Note_on_c, 1, 36, 0
3, 4666, Note_on_c, 1, 39, 0
3, 4666, Note_on_c, 1, 43, 0
3, 4666, Note_on_c, 1, 48, 0
3, 4668, Note_on_c, 1, 51, 108
3, 4714, Note_on_c, 1, 51, 0
3, 4716, Note_on_c, 1, 50, 108
3, 4762, Note_on_c, 1, 50, 0
3, 4764, Note_on_c, 1, 48, 108
3, 4810, Note_on_c, 1, 48, 0
3, 4812, Note_on_c, 1, 43, 108
3, 4972, Note_on_c, 1, 43, 0
3, 5004, Note_on_c, 1, 41, 108
3, 5164, Note_on_c, 1, 41, 0
3, 5196, Note_on_c, 1, 41, 108
3, 5196, Note_on_c, 1, 44, 108
3, 5196, Note_on_c, 1, 48, 108
3, 5196, Note_on_c, 1, 53, 108
3, 5434, Note_on_c, 1, 41, 0
3, 5434, Note_on_c, 1, 44, 0
3, 5434, Note_on_c, 1, 48, 0
3, 5434, Note_on_c, 1, 53, 0
3, 5436, Note_on_c, 1, 56, 108
3, 5482, Note_on_c, 1, 56, 0
3, 5484, Note_on_c, 1, 55, 108
3, 5530, Note_on_c, 1, 55, 0
3, 5532, Note_on_c, 1, 53, 108
3, 5578, Note_on_c, 1, 53, 0
3, 5580, Note_on_c, 1, 48, 108
3, 5674, Note_on_c, 1, 48, 0
3, 5676, Note_on_c, 1, 47, 108
3, 5932, Note_on_c, 1, 47, 0
3, 5964, Note_on_c, 1, 46, 108
3, 5964, Note_on_c, 1, 56, 108
3, 6058, Note_on_c, 1, 46, 0
3, 6058, Note_on_c, 1, 56, 0
3, 6060, Note_on_c, 1, 44, 108
3, 6060, Note_on_c, 1, 54, 108
3, 6154, Note_on_c, 1, 44, 0
3, 6154, Note_on_c, 1, 54, 0
3, 6156, Note_on_c, 1, 43, 108
3, 6156, Note_on_c, 1, 53, 108
3, 6250, Note_on_c, 1, 43, 0
3, 6250, Note_on_c, 1, 53, 0
3, 6252, Note_on_c, 1, 41, 108
3, 6252, Note_on_c, 1, 52, 108
3, 6346, Note_on_c, 1, 41, 0
3, 6346, Note_on_c, 1, 52, 0
3, 6348, Note_on_c, 1, 46, 108
3, 6348, Note_on_c, 1, 56, 108
3, 6684, Note_on_c, 1, 46, 0
3, 6684, Note_on_c, 1, 56, 0
3, 6732, Note_on_c, 1, 45, 108
3, 6756, Note_on_c, 1, 55, 108
3, 6826, Note_on_c, 1, 45, 0
3, 6826, Note_on_c, 1, 55, 0
3, 6828, Note_on_c, 1, 33, 108
3, 7084, Note_on_c, 1, 33, 0
3, 7116, Note_on_c, 1, 60, 108
3, 7210, Note_on_c, 1, 60, 0
3, 7212, Note_on_c, 1, 43, 127
3, 7306, Note_on_c, 1, 43, 0
3, 7308, Note_on_c, 1, 58, 108
3, 7402, Note_on_c, 1, 58, 0
3, 7404, Note_on_c, 1, 43, 127
3, 7498, Note_on_c, 1, 43, 0
3, 7500, Note_on_c, 1, 60, 108
3, 7594, Note_on_c, 1, 60, 0
3, 7596, Note_on_c, 1, 43, 127
3, 7690, Note_on_c, 1, 43, 0
3, 7692, Note_on_c, 1, 59, 108
3, 7786, Note_on_c, 1, 59, 0
3, 7788, Note_on_c, 1, 43, 127
3, 7882, Note_on_c, 1, 43, 0
3, 7884, Note_on_c, 1, 60, 108
3, 7884, Note_on_c, 1, 61, 108
3, 7978, Note_on_c, 1, 60, 0
3, 7978, Note_on_c, 1, 61, 0
3, 7980, Note_on_c, 1, 43, 127
3, 8074, Note_on_c, 1, 43, 0
3, 8076, Note_on_c, 1, 55, 108
3, 8076, Note_on_c, 1, 56, 108
3, 8170, Note_on_c, 1, 55, 0
3, 8170, Note_on_c, 1, 56, 0
3, 8172, Note_on_c, 1, 43, 127
3, 8266, Note_on_c, 1, 43, 0
3, 8268, Note_on_c, 1, 58, 108
3, 8268, Note_on_c, 1, 59, 108
3, 8362, Note_on_c, 1, 58, 0
3, 8362, Note_on_c, 1, 59, 0
3, 8364, Note_on_c, 1, 43, 108
3, 8460, Note_on_c, 1, 43, 0
3, 8460, Note_on_c, 1, 56, 108
3, 8460, Note_on_c, 1, 59, 108
3, 8554, Note_on_c, 1, 56, 0
3, 8554, Note_on_c, 1, 59, 0
3, 8556, Note_on_c, 1, 43, 108
3, 8652, Note_on_c, 1, 43, 0
3, 8652, Note_on_c, 1, 36, 108
3, 8676, Note_on_c, 1, 36, 0
3, 8676, Note_on_c, 1, 48, 108
3, 8700, Note_on_c, 1, 48, 0
3, 8700, Note_on_c, 1, 36, 108
3, 8724, Note_on_c, 1, 36, 0
3, 8724, Note_on_c, 1, 48, 108
3, 8748, Note_on_c, 1, 48, 0
3, 8748, Note_on_c, 1, 36, 108
3, 8772, Note_on_c, 1, 36, 0
3, 8772, Note_on_c, 1, 48, 108
3, 8796, Note_on_c, 1, 48, 0
3, 8796, Note_on_c, 1, 36, 108
3, 8820, Note_on_c, 1, 36, 0
3, 8820, Note_on_c, 1, 48, 108
3, 8844, Note_on_c, 1, 48, 0
3, 8844, Note_on_c, 1, 36, 108
3, 8868, Note_on_c, 1, 36, 0
3, 8868, Note_on_c, 1, 48, 108
3, 8892, Note_on_c, 1, 48, 0
3, 8892, Note_on_c, 1, 36, 108
3, 8916, Note_on_c, 1, 36, 0
3, 8916, Note_on_c, 1, 48, 108
3, 8940, Note_on_c, 1, 48, 0
3, 8940, Note_on_c, 1, 36, 108
3, 8964, Note_on_c, 1, 36, 0
3, 8964, Note_on_c, 1, 48, 108
3, 8988, Note_on_c, 1, 48, 0
3, 8988, Note_on_c, 1, 36, 108
3, 9012, Note_on_c, 1, 36, 0
3, 9012, Note_on_c, 1, 48, 108
3, 9036, Note_on_c, 1, 48, 0
3, 9036, Note_on_c, 1, 36, 108
3, 9060, Note_on_c, 1, 36, 0
3, 9060, Note_on_c, 1, 48, 108
3, 9084, Note_on_c, 1, 48, 0
3, 9084, Note_on_c, 1, 36, 108
3, 9108, Note_on_c, 1, 36, 0
3, 9108, Note_on_c, 1, 48, 108
3, 9132, Note_on_c, 1, 48, 0
3, 9132, Note_on_c, 1, 36, 108
3, 9156, Note_on_c, 1, 36, 0
3, 9156, Note_on_c, 1, 48, 108
3, 9180, Note_on_c, 1, 48, 0
3, 9180, Note_on_c, 1, 36, 108
3, 9204, Note_on_c, 1, 36, 0
3, 9204, Note_on_c, 1, 48, 108
3, 9228, Note_on_c, 1, 48, 0
3, 9228, Note_on_c, 1, 36, 108
3, 9252, Note_on_c, 1, 36, 0
3, 9252, Note_on_c, 1, 48, 108
3, 9276, Note_on_c, 1, 48, 0
3, 9276, Note_on_c, 1, 36, 108
3, 9300, Note_on_c, 1, 36, 0
3, 9300, Note_on_c, 1, 48, 108
3, 9324, Note_on_c, 1, 48, 0
3, 9324, Note_on_c, 1, 36, 108
3, 9348, Note_on_c, 1, 36, 0
3, 9348, Note_on_c, 1, 48, 108
3, 9372, Note_on_c, 1, 48, 0
3, 9372, Note_on_c, 1, 36, 108
3, 9396, Note_on_c, 1, 36, 0
3, 9396, Note_on_c, 1, 48, 108
3, 9418, Note_on_c, 1, 48, 0
3, 9420, Note_on_c, 1, 34, 108
3, 9444, Note_on_c, 1, 34, 0
3, 9444, Note_on_c, 1, 46, 108
3, 9468, Note_on_c, 1, 46, 0
3, 9468, Note_on_c, 1, 34, 108
3, 9492, Note_on_c, 1, 34, 0
3, 9492, Note_on_c, 1, 46, 108
3, 9516, Note_on_c, 1, 46, 0
3, 9516, Note_on_c, 1, 34, 108
3, 9540, Note_on_c, 1, 34, 0
3, 9540, Note_on_c, 1, 46, 108
3, 9564, Note_on_c, 1, 46, 0
3, 9564, Note_on_c, 1, 34, 108
3, 9588, Note_on_c, 1, 34, 0
3, 9588, Note_on_c, 1, 46, 108
3, 9612, Note_on_c, 1, 46, 0
3, 9612, Note_on_c, 1, 34, 108
3, 9636, Note_on_c, 1, 34, 0
3, 9636, Note_on_c, 1, 46, 108
3, 9660, Note_on_c, 1, 46, 0
3, 9660, Note_on_c, 1, 34, 108
3, 9684, Note_on_c, 1, 34, 0
3, 9684, Note_on_c, 1, 46, 108
3, 9708, Note_on_c, 1, 46, 0
3, 9708, Note_on_c, 1, 34, 108
3, 9732, Note_on_c, 1, 34, 0
3, 9732, Note_on_c, 1, 46, 108
3, 9756, Note_on_c, 1, 46, 0
3, 9756, Note_on_c, 1, 34, 108
3, 9780, Note_on_c, 1, 34, 0
3, 9780, Note_on_c, 1, 46, 108
3, 9804, Note_on_c, 1, 46, 0
3, 9804, Note_on_c, 1, 34, 108
3, 9828, Note_on_c, 1, 34, 0
3, 9828, Note_on_c, 1, 46, 108
3, 9852, Note_on_c, 1, 46, 0
3, 9852, Note_on_c, 1, 34, 108
3, 9876, Note_on_c, 1, 34, 0
3, 9876, Note_on_c, 1, 46, 108
3, 9900, Note_on_c, 1, 46, 0
3, 9900, Note_on_c, 1, 34, 108
3, 9924, Note_on_c, 1, 34, 0
3, 9924, Note_on_c, 1, 46, 108
3, 9948, Note_on_c, 1, 46, 0
3, 9948, Note_on_c, 1, 34, 108
3, 9972, Note_on_c, 1, 34, 0
3, 9972, Note_on_c, 1, 46, 108
3, 9996, Note_on_c, 1, 46, 0
3, 9996, Note_on_c, 1, 34, 108
3, 10020, Note_on_c, 1, 34, 0
3, 10020, Note_on_c, 1, 46, 108
3, 10044, Note_on_c, 1, 46, 0
3, 10044, Note_on_c, 1, 34, 108
3, 10068, Note_on_c, 1, 34, 0
3, 10068, Note_on_c, 1, 46, 108
3, 10092, Note_on_c, 1, 46, 0
3, 10092, Note_on_c, 1, 34, 108
3, 10116, Note_on_c, 1, 34, 0
3, 10116, Note_on_c, 1, 46, 108
3, 10140, Note_on_c, 1, 46, 0
3, 10140, Note_on_c, 1, 34, 108
3, 10164, Note_on_c, 1, 34, 0
3, 10164, Note_on_c, 1, 46, 108
3, 10186, Note_on_c, 1, 46, 0
3, 10188, Note_on_c, 1, 32, 108
3, 10212, Note_on_c, 1, 32, 0
3, 10212, Note_on_c, 1, 44, 108
3, 10236, Note_on_c, 1, 44, 0
3, 10236, Note_on_c, 1, 32, 108
3, 10260, Note_on_c, 1, 32, 0
3, 10260, Note_on_c, 1, 44, 108
3, 10284, Note_on_c, 1, 44, 0
3, 10284, Note_on_c, 1, 32, 108
3, 10308, Note_on_c, 1, 32, 0
3, 10308, Note_on_c, 1, 44, 108
3, 10332, Note_on_c, 1, 44, 0
3, 10332, Note_on_c, 1, 32, 108
3, 10356, Note_on_c, 1, 32, 0
3, 10356, Note_on_c, 1, 44, 108
3, 10380, Note_on_c, 1, 44, 0
3, 10380, Note_on_c, 1, 32, 108
3, 10404, Note_on_c, 1, 32, 0
3, 10404, Note_on_c, 1, 44, 108
3, 10428, Note_on_c, 1, 44, 0
3, 10428, Note_on_c, 1, 32, 108
3, 10452, Note_on_c, 1, 32, 0
3, 10452, Note_on_c, 1, 44, 108
3, 10476, Note_on_c, 1, 44, 0
3, 10476, Note_on_c, 1, 32, 108
3, 10500, Note_on_c, 1, 32, 0
3, 10500, Note_on_c, 1, 44, 108
3, 10524, Note_on_c, 1, 44, 0
3, 10524, Note_on_c, 1, 32, 108
3, 10548, Note_on_c, 1, 32, 0
3, 10548, Note_on_c, 1, 44, 108
3, 10572, Note_on_c, 1, 44, 0
3, 10572, Note_on_c, 1, 32, 108
3, 10596, Note_on_c, 1, 32, 0
3, 10596, Note_on_c, 1, 44, 108
3, 10620, Note_on_c, 1, 44, 0
3, 10620, Note_on_c, 1, 32, 108
3, 10644, Note_on_c, 1, 32, 0
3, 10644, Note_on_c, 1, 44, 108
3, 10668, Note_on_c, 1, 44, 0
3, 10668, Note_on_c, 1, 32, 108
3, 10692, Note_on_c, 1, 32, 0
3, 10692, Note_on_c, 1, 44, 108
3, 10716, Note_on_c, 1, 44, 0
3, 10716, Note_on_c, 1, 32, 108
3, 10740, Note_on_c, 1, 32, 0
3, 10740, Note_on_c, 1, 44, 108
3, 10764, Note_on_c, 1, 44, 0
3, 10764, Note_on_c, 1, 32, 108
3, 10788, Note_on_c, 1, 32, 0
3, 10788, Note_on_c, 1, 44, 108
3, 10812, Note_on_c, 1, 44, 0
3, 10812, Note_on_c, 1, 32, 108
3, 10836, Note_on_c, 1, 32, 0
3, 10836, Note_on_c, 1, 44, 108
3, 10860, Note_on_c, 1, 44, 0
3, 10860, Note_on_c, 1, 32, 108
3, 10884, Note_on_c, 1, 32, 0
3, 10884, Note_on_c, 1, 44, 108
3, 10908, Note_on_c, 1, 44, 0
3, 10908, Note_on_c, 1, 32, 108
3, 10932, Note_on_c, 1, 32, 0
3, 10932, Note_on_c, 1, 44, 108
3, 10954, Note_on_c, 1, 44, 0
3, 10956, Note_on_c, 1, 31, 127
3, 10956, Note_on_c, 1, 43, 127
3, 11484, Note_on_c, 1, 31, 0
3, 11484, Note_on_c, 1, 43, 0
3, 11724, Note_on_c, 1, 36, 75
3, 11818, Note_on_c, 1, 36, 0
3, 11820, Note_on_c, 1, 48, 75
3, 11914, Note_on_c, 1, 48, 0
3, 11916, Note_on_c, 1, 36, 75
3, 12010, Note_on_c, 1, 36, 0
3, 12012, Note_on_c, 1, 48, 75
3, 12106, Note_on_c, 1, 48, 0
3, 12108, Note_on_c, 1, 36, 75
3, 12202, Note_on_c, 1, 36, 0
3, 12204, Note_on_c, 1, 48, 75
3, 12298, Note_on_c, 1, 48, 0
3, 12300, Note_on_c, 1, 36, 75
3, 12394, Note_on_c, 1, 36, 0
3, 12396, Note_on_c, 1, 48, 75
3, 12490, Note_on_c, 1, 48, 0
3, 12492, Note_on_c, 1, 36, 75
3, 12586, Note_on_c, 1, 36, 0
3, 12588, Note_on_c, 1, 48, 75
3, 12682, Note_on_c, 1, 48, 0
3, 12684, Note_on_c, 1, 36, 75
3, 12778, Note_on_c, 1, 36, 0
3, 12780, Note_on_c, 1, 48, 75
3, 12874, Note_on_c, 1, 48, 0
3, 12876, Note_on_c, 1, 36, 75
3, 12970, Note_on_c, 1, 36, 0
3, 12972, Note_on_c, 1, 48, 75
3, 13066, Note_on_c, 1, 48, 0
3, 13068, Note_on_c, 1, 36, 75
3, 13162, Note_on_c, 1, 36, 0
3, 13164, Note_on_c, 1, 48, 75
3, 13258, Note_on_c, 1, 48, 0
3, 13260, Note_on_c, 1, 36, 75
3, 13354, Note_on_c, 1, 36, 0
3, 13356, Note_on_c, 1, 48, 75
3, 13450, Note_on_c, 1, 48, 0
3, 13452, Note_on_c, 1, 36, 75
3, 13546, Note_on_c, 1, 36, 0
3, 13548, Note_on_c, 1, 48, 75
3, 13642, Note_on_c, 1, 48, 0
3, 13644, Note_on_c, 1, 36, 75
3, 13738, Note_on_c, 1, 36, 0
3, 13740, Note_on_c, 1, 48, 75
3, 13834, Note_on_c, 1, 48, 0
3, 13836, Note_on_c, 1, 36, 75
3, 13930, Note_on_c, 1, 36, 0
3, 13932, Note_on_c, 1, 48, 75
3, 14026, Note_on_c, 1, 48, 0
3, 14028, Note_on_c, 1, 36, 75
3, 14122, Note_on_c, 1, 36, 0
3, 14124, Note_on_c, 1, 48, 75
3, 14218, Note_on_c, 1, 48, 0
3, 14220, Note_on_c, 1, 36, 75
3, 14314, Note_on_c, 1, 36, 0
3, 14316, Note_on_c, 1, 48, 75
3, 14410, Note_on_c, 1, 48, 0
3, 14412, Note_on_c, 1, 36, 75
3, 14506, Note_on_c, 1, 36, 0
3, 14508, Note_on_c, 1, 48, 75
3, 14602, Note_on_c, 1, 48, 0
3, 14604, Note_on_c, 1, 36, 75
3, 14698, Note_on_c, 1, 36, 0
3, 14700, Note_on_c, 1, 48, 75
3, 14794, Note_on_c, 1, 48, 0
3, 14796, Note_on_c, 1, 36, 75
3, 14890, Note_on_c, 1, 36, 0
3, 14892, Note_on_c, 1, 48, 75
3, 14986, Note_on_c, 1, 48, 0
3, 14988, Note_on_c, 1, 36, 75
3, 15082, Note_on_c, 1, 36, 0
3, 15084, Note_on_c, 1, 48, 75
3, 15178, Note_on_c, 1, 48, 0
3, 15180, Note_on_c, 1, 38, 75
3, 15274, Note_on_c, 1, 38, 0
3, 15276, Note_on_c, 1, 50, 75
3, 15370, Note_on_c, 1, 50, 0
3, 15372, Note_on_c, 1, 38, 75
3, 15466, Note_on_c, 1, 38, 0
3, 15468, Note_on_c, 1, 50, 75
3, 15562, Note_on_c, 1, 50, 0
3, 15564, Note_on_c, 1, 39, 75
3, 15658, Note_on_c, 1, 39, 0
3, 15660, Note_on_c, 1, 51, 75
3, 15754, Note_on_c, 1, 51, 0
3, 15756, Note_on_c, 1, 39, 75
3, 15850, Note_on_c, 1, 39, 0
3, 15852, Note_on_c, 1, 51, 75
3, 15946, Note_on_c, 1, 51, 0
3, 15948, Note_on_c, 1, 41, 75
3, 16042, Note_on_c, 1, 41, 0
3, 16044, Note_on_c, 1, 53, 75
3, 16138, Note_on_c, 1, 53, 0
3, 16140, Note_on_c, 1, 41, 75
3, 16234, Note_on_c, 1, 41, 0
3, 16236, Note_on_c, 1, 53, 75
3, 16330, Note_on_c, 1, 53, 0
3, 16332, Note_on_c, 1, 43, 75
3, 16426, Note_on_c, 1, 43, 0
3, 16428, Note_on_c, 1, 55, 75
3, 16522, Note_on_c, 1, 55, 0
3, 16524, Note_on_c, 1, 43, 75
3, 16618, Note_on_c, 1, 43, 0
3, 16620, Note_on_c, 1, 55, 75
3, 16714, Note_on_c, 1, 55, 0
3, 16716, Note_on_c, 1, 44, 75
3, 16810, Note_on_c, 1, 44, 0
3, 16812, Note_on_c, 1, 56, 75
3, 16906, Note_on_c, 1, 56, 0
3, 16908, Note_on_c, 1, 44, 75
3, 17002, Note_on_c, 1, 44, 0
3, 17004, Note_on_c, 1, 56, 75
3, 17098, Note_on_c, 1, 56, 0
3, 17100, Note_on_c, 1, 42, 75
3, 17194, Note_on_c, 1, 42, 0
3, 17196, Note_on_c, 1, 54, 75
3, 17290, Note_on_c, 1, 54, 0
3, 17292, Note_on_c, 1, 42, 75
3, 17386, Note_on_c, 1, 42, 0
3, 17388, Note_on_c, 1, 54, 75
3, 17482, Note_on_c, 1, 54, 0
3, 17484, Note_on_c, 1, 43, 75
3, 17578, Note_on_c, 1, 43, 0
3, 17580, Note_on_c, 1, 55, 75
3, 17674, Note_on_c, 1, 55, 0
3, 17676, Note_on_c, 1, 43, 75
3, 17770, Note_on_c, 1, 43, 0
3, 17772, Note_on_c, 1, 55, 75
3, 17866, Note_on_c, 1, 55, 0
3, 17868, Note_on_c, 1, 36, 75
3, 17962, Note_on_c, 1, 36, 0
3, 17964, Note_on_c, 1, 48, 75
3, 18058, Note_on_c, 1, 48, 0
3, 18060, Note_on_c, 1, 36, 75
3, 18154, Note_on_c, 1, 36, 0
3, 18156, Note_on_c, 1, 48, 75
3, 18250, Note_on_c, 1, 48, 0
3, 18252, Note_on_c, 1, 36, 75
3, 18346, Note_on_c, 1, 36, 0
3, 18348, Note_on_c, 1, 48, 75
3, 18442, Note_on_c, 1, 48, 0
3, 18444, Note_on_c, 1, 36, 75
3, 18538, Note_on_c, 1, 36, 0
3, 18540, Note_on_c, 1, 48, 75
3, 18634, Note_on_c, 1, 48, 0
3, 18636, Note_on_c, 1, 36, 75
3, 18730, Note_on_c, 1, 36, 0
3, 18732, Note_on_c, 1, 48, 75
3, 18826, Note_on_c, 1, 48, 0
3, 18828, Note_on_c, 1, 36, 75
3, 18922, Note_on_c, 1, 36, 0
3, 18924, Note_on_c, 1, 48, 75
3, 19018, Note_on_c, 1, 48, 0
3, 19020, Note_on_c, 1, 36, 75
3, 19114, Note_on_c, 1, 36, 0
3, 19116, Note_on_c, 1, 48, 75
3, 19210, Note_on_c, 1, 48, 0
3, 19212, Note_on_c, 1, 36, 75
3, 19306, Note_on_c, 1, 36, 0
3, 19308, Note_on_c, 1, 48, 75
3, 19402, Note_on_c, 1, 48, 0
3, 19404, Note_on_c, 1, 36, 75
3, 19498, Note_on_c, 1, 36, 0
3, 19500, Note_on_c, 1, 48, 75
3, 19594, Note_on_c, 1, 48, 0
3, 19596, Note_on_c, 1, 36, 75
3, 19690, Note_on_c, 1, 36, 0
3, 19692, Note_on_c, 1, 48, 75
3, 19786, Note_on_c, 1, 48, 0
3, 19788, Note_on_c, 1, 36, 75
3, 19882, Note_on_c, 1, 36, 0
3, 19884, Note_on_c, 1, 48, 75
3, 19978, Note_on_c, 1, 48, 0
3, 19980, Note_on_c, 1, 36, 75
3, 20074, Note_on_c, 1, 36, 0
3, 20076, Note_on_c, 1, 48, 75
3, 20170, Note_on_c, 1, 48, 0
3, 20172, Note_on_c, 1, 36, 75
3, 20266, Note_on_c, 1, 36, 0
3, 20268, Note_on_c, 1, 48, 75
3, 20362, Note_on_c, 1, 48, 0
3, 20364, Note_on_c, 1, 36, 75
3, 20458, Note_on_c, 1, 36, 0
3, 20460, Note_on_c, 1, 48, 75
3, 20554, Note_on_c, 1, 48, 0
3, 20556, Note_on_c, 1, 36, 75
3, 20650, Note_on_c, 1, 36, 0
3, 20652, Note_on_c, 1, 48, 75
3, 20746, Note_on_c, 1, 48, 0
3, 20748, Note_on_c, 1, 36, 75
3, 20842, Note_on_c, 1, 36, 0
3, 20844, Note_on_c, 1, 48, 75
3, 20938, Note_on_c, 1, 48, 0
3, 20940, Note_on_c, 1, 36, 75
3, 21002, Note_on_c, 1, 36, 0
3, 21004, Note_on_c, 1, 48, 75
3, 21066, Note_on_c, 1, 48, 0
3, 21068, Note_on_c, 1, 36, 75
3, 21130, Note_on_c, 1, 36, 0
3, 21132, Note_on_c, 1, 48, 75
3, 21194, Note_on_c, 1, 48, 0
3, 21196, Note_on_c, 1, 36, 75
3, 21258, Note_on_c, 1, 36, 0
3, 21260, Note_on_c, 1, 48, 75
3, 21322, Note_on_c, 1, 48, 0
3, 21324, Note_on_c, 1, 34, 75
3, 21386, Note_on_c, 1, 34, 0
3, 21388, Note_on_c, 1, 46, 75
3, 21450, Note_on_c, 1, 46, 0
3, 21452, Note_on_c, 1, 34, 75
3, 21514, Note_on_c, 1, 34, 0
3, 21516, Note_on_c, 1, 46, 75
3, 21578, Note_on_c, 1, 46, 0
3, 21580, Note_on_c, 1, 34, 75
3, 21642, Note_on_c, 1, 34, 0
3, 21644, Note_on_c, 1, 46, 75
3, 21706, Note_on_c, 1, 46, 0
3, 21708, Note_on_c, 1, 32, 75
3, 21770, Note_on_c, 1, 32, 0
3, 21772, Note_on_c, 1, 44, 75
3, 21834, Note_on_c, 1, 44, 0
3, 21836, Note_on_c, 1, 32, 75
3, 21898, Note_on_c, 1, 32, 0
3, 21900, Note_on_c, 1, 44, 75
3, 21962, Note_on_c, 1, 44, 0
3, 21964, Note_on_c, 1, 32, 75
3, 22026, Note_on_c, 1, 32, 0
3, 22028, Note_on_c, 1, 44, 75
3, 22090, Note_on_c, 1, 44, 0
3, 22092, Note_on_c, 1, 31, 75
3, 22154, Note_on_c, 1, 31, 0
3, 22156, Note_on_c, 1, 43, 75
3, 22218, Note_on_c, 1, 43, 0
3, 22220, Note_on_c, 1, 31, 75
3, 22282, Note_on_c, 1, 31, 0
3, 22284, Note_on_c, 1, 43, 75
3, 22346, Note_on_c, 1, 43, 0
3, 22348, Note_on_c, 1, 31, 75
3, 22410, Note_on_c, 1, 31, 0
3, 22412, Note_on_c, 1, 43, 75
3, 22474, Note_on_c, 1, 43, 0
3, 22476, Note_on_c, 1, 30, 75
3, 22476, Note_on_c, 1, 42, 75
3, 23964, Note_on_c, 1, 30, 0
3, 23964, Note_on_c, 1, 42, 0
3, 24012, Note_on_c, 1, 24, 75
3, 24036, Note_on_c, 1, 24, 0
3, 24036, Note_on_c, 1, 27, 75
3, 24060, Note_on_c, 1, 27, 0
3, 24060, Note_on_c, 1, 31, 75
3, 24084, Note_on_c, 1, 31, 0
3, 24084, Note_on_c, 1, 36, 75
3, 24276, Note_on_c, 1, 36, 0
3, 24276, Note_on_c, 1, 39, 75
3, 24324, Note_on_c, 1, 39, 0
3, 24468, Note_on_c, 1, 43, 75
3, 24804, Note_on_c, 1, 43, 0
3, 24852, Note_on_c, 1, 36, 60
3, 24852, Note_on_c, 1, 48, 60
3, 25012, Note_on_c, 1, 36, 0
3, 25012, Note_on_c, 1, 48, 0
3, 25044, Note_on_c, 1, 36, 60
3, 25044, Note_on_c, 1, 48, 60
3, 25204, Note_on_c, 1, 36, 0
3, 25204, Note_on_c, 1, 48, 0
3, 25236, Note_on_c, 1, 36, 60
3, 25236, Note_on_c, 1, 48, 60
3, 25396, Note_on_c, 1, 36, 0
3, 25396, Note_on_c, 1, 48, 0
3, 25428, Note_on_c, 1, 36, 60
3, 25428, Note_on_c, 1, 48, 60
3, 25588, Note_on_c, 1, 36, 0
3, 25588, Note_on_c, 1, 48, 0
3, 25620, Note_on_c, 1, 36, 60
3, 25620, Note_on_c, 1, 48, 60
3, 25780, Note_on_c, 1, 36, 0
3, 25780, Note_on_c, 1, 48, 0
3, 25812, Note_on_c, 1, 36, 60
3, 25812, Note_on_c, 1, 48, 60
3, 25972, Note_on_c, 1, 36, 0
3, 25972, Note_on_c, 1, 48, 0
3, 26004, Note_on_c, 1, 36, 60
3, 26004, Note_on_c, 1, 48, 60
3, 26164, Note_on_c, 1, 36, 0
3, 26164, Note_on_c, 1, 48, 0
3, 26196, Note_on_c, 1, 36, 60
3, 26196, Note_on_c, 1, 48, 60
3, 26356, Note_on_c, 1, 36, 0
3, 26356, Note_on_c, 1, 48, 0
3, 26388, Note_on_c, 1, 36, 60
3, 26388, Note_on_c, 1, 48, 60
3, 26548, Note_on_c, 1, 36, 0
3, 26548, Note_on_c, 1, 48, 0
3, 26580, Note_on_c, 1, 36, 60
3, 26580, Note_on_c, 1, 48, 60
3, 26740, Note_on_c, 1, 36, 0
3, 26740, Note_on_c, 1, 48, 0
3, 26772, Note_on_c, 1, 36, 60
3, 26772, Note_on_c, 1, 48, 60
3, 26932, Note_on_c, 1, 36, 0
3, 26932, Note_on_c, 1, 48, 0
3, 26964, Note_on_c, 1, 36, 60
3, 26964, Note_on_c, 1, 48, 60
3, 27124, Note_on_c, 1, 36, 0
3, 27124, Note_on_c, 1, 48, 0
3, 27156, Note_on_c, 1, 36, 60
3, 27156, Note_on_c, 1, 48, 60
3, 27316, Note_on_c, 1, 36, 0
3, 27316, Note_on_c, 1, 48, 0
3, 27348, Note_on_c, 1, 36, 60
3, 27348, Note_on_c, 1, 48, 60
3, 27508, Note_on_c, 1, 36, 0
3, 27508, Note_on_c, 1, 48, 0
3, 27540, Note_on_c, 1, 36, 60
3, 27540, Note_on_c, 1, 48, 60
3, 27700, Note_on_c, 1, 36, 0
3, 27700, Note_on_c, 1, 48, 0
3, 27732, Note_on_c, 1, 36, 60
3, 27732, Note_on_c, 1, 48, 60
3, 27892, Note_on_c, 1, 36, 0
3, 27892, Note_on_c, 1, 48, 0
3, 27924, Note_on_c, 1, 36, 127
3, 27924, Note_on_c, 1, 48, 127
3, 28084, Note_on_c, 1, 36, 0
3, 28084, Note_on_c, 1, 48, 0
3, 28116, Note_on_c, 1, 36, 127
3, 28116, Note_on_c, 1, 48, 127
3, 28276, Note_on_c, 1, 36, 0
3, 28276, Note_on_c, 1, 48, 0
3, 28308, Note_on_c, 1, 38, 127
3, 28308, Note_on_c, 1, 50, 127
3, 28468, Note_on_c, 1, 38, 0
3, 28468, Note_on_c, 1, 50, 0
3, 28500, Note_on_c, 1, 38, 127
3, 28500, Note_on_c, 1, 50, 127
3, 28660, Note_on_c, 1, 38, 0
3, 28660, Note_on_c, 1, 50, 0
3, 28692, Note_on_c, 1, 39, 127
3, 28692, Note_on_c, 1, 51, 127
3, 28852, Note_on_c, 1, 39, 0
3, 28852, Note_on_c, 1, 51, 0
3, 28884, Note_on_c, 1, 39, 127
3, 28884, Note_on_c, 1, 51, 127
3, 29044, Note_on_c, 1, 39, 0
3, 29044, Note_on_c, 1, 51, 0
3, 29076, Note_on_c, 1, 41, 127
3, 29076, Note_on_c, 1, 53, 127
3, 29236, Note_on_c, 1, 41, 0
3, 29236, Note_on_c, 1, 53, 0
3, 29268, Note_on_c, 1, 41, 127
3, 29268, Note_on_c, 1, 53, 127
3, 29428, Note_on_c, 1, 41, 0
3, 29428, Note_on_c, 1, 53, 0
3, 29460, Note_on_c, 1, 43, 127
3, 29460, Note_on_c, 1, 55, 127
3, 29620, Note_on_c, 1, 43, 0
3, 29620, Note_on_c, 1, 55, 0
3, 29652, Note_on_c, 1, 43, 127
3, 29652, Note_on_c, 1, 55, 127
3, 29812, Note_on_c, 1, 43, 0
3, 29812, Note_on_c, 1, 55, 0
3, 29844, Note_on_c, 1, 44, 127
3, 29844, Note_on_c, 1, 56, 127
3, 30004, Note_on_c, 1, 44, 0
3, 30004, Note_on_c, 1, 56, 0
3, 30036, Note_on_c, 1, 44, 127
3, 30036, Note_on_c, 1, 56, 127
3, 30196, Note_on_c, 1, 44, 0
3, 30196, Note_on_c, 1, 56, 0
3, 30228, Note_on_c, 1, 42, 92
3, 30228, Note_on_c, 1, 54, 92
3, 30276, Note_on_c, 1, 42, 0
3, 30276, Note_on_c, 1, 54, 0
3, 30420, Note_on_c, 1, 43, 92
3, 30420, Note_on_c, 1, 55, 92
3, 30996, Note_on_c, 1, 43, 0
3, 30996, Note_on_c, 1, 55, 0
3, 30996, Note_on_c, 1, 36, 75
3, 30996, Note_on_c, 1, 48, 75
3, 31156, Note_on_c, 1, 36, 0
3, 31156, Note_on_c, 1, 48, 0
3, 31188, Note_on_c, 1, 36, 75
3, 31188, Note_on_c, 1, 48, 75
3, 31348, Note_on_c, 1, 36, 0
3, 31348, Note_on_c, 1, 48, 0
3, 31380, Note_on_c, 1, 36, 75
3, 31380, Note_on_c, 1, 48, 75
3, 31540, Note_on_c, 1, 36, 0
3, 31540, Note_on_c, 1, 48, 0
3, 31572, Note_on_c, 1, 36, 75
3, 31572, Note_on_c, 1, 48, 75
3, 31732, Note_on_c, 1, 36, 0
3, 31732, Note_on_c, 1, 48, 0
3, 31764, Note_on_c, 1, 36, 75
3, 31764, Note_on_c, 1, 48, 75
3, 31924, Note_on_c, 1, 36, 0
3, 31924, Note_on_c, 1, 48, 0
3, 31956, Note_on_c, 1, 36, 75
3, 31956, Note_on_c, 1, 48, 75
3, 32116, Note_on_c, 1, 36, 0
3, 32116, Note_on_c, 1, 48, 0
3, 32148, Note_on_c, 1, 36, 75
3, 32148, Note_on_c, 1, 48, 75
3, 32308, Note_on_c, 1, 36, 0
3, 32308, Note_on_c, 1, 48, 0
3, 32340, Note_on_c, 1, 36, 75
3, 32340, Note_on_c, 1, 48, 75
3, 32500, Note_on_c, 1, 36, 0
3, 32500, Note_on_c, 1, 48, 0
3, 32532, Note_on_c, 1, 36, 75
3, 32532, Note_on_c, 1, 48, 75
3, 32692, Note_on_c, 1, 36, 0
3, 32692, Note_on_c, 1, 48, 0
3, 32724, Note_on_c, 1, 36, 75
3, 32724, Note_on_c, 1, 48, 75
3, 32884, Note_on_c, 1, 36, 0
3, 32884, Note_on_c, 1, 48, 0
3, 32916, Note_on_c, 1, 36, 75
3, 32916, Note_on_c, 1, 48, 75
3, 33076, Note_on_c, 1, 36, 0
3, 33076, Note_on_c, 1, 48, 0
3, 33108, Note_on_c, 1, 36, 75
3, 33108, Note_on_c, 1, 48, 75
3, 33268, Note_on_c, 1, 36, 0
3, 33268, Note_on_c, 1, 48, 0
3, 33300, Note_on_c, 1, 36, 75
3, 33300, Note_on_c, 1, 48, 75
3, 33460, Note_on_c, 1, 36, 0
3, 33460, Note_on_c, 1, 48, 0
3, 33492, Note_on_c, 1, 36, 75
3, 33492, Note_on_c, 1, 48, 75
3, 33652, Note_on_c, 1, 36, 0
3, 33652, Note_on_c, 1, 48, 0
3, 33684, Note_on_c, 1, 36, 75
3, 33684, Note_on_c, 1, 48, 75
3, 33844, Note_on_c, 1, 36, 0
3, 33844, Note_on_c, 1, 48, 0
3, 33876, Note_on_c, 1, 36, 75
3, 33876, Note_on_c, 1, 48, 75
3, 34036, Note_on_c, 1, 36, 0
3, 34036, Note_on_c, 1, 48, 0
3, 34068, Note_on_c, 1, 36, 105
3, 34068, Note_on_c, 1, 48, 105
3, 34228, Note_on_c, 1, 36, 0
3, 34228, Note_on_c, 1, 48, 0
3, 34260, Note_on_c, 1, 36, 105
3, 34260, Note_on_c, 1, 48, 105
3, 34420, Note_on_c, 1, 36, 0
3, 34420, Note_on_c, 1, 48, 0
3, 34452, Note_on_c, 1, 38, 105
3, 34452, Note_on_c, 1, 50, 105
3, 34612, Note_on_c, 1, 38, 0
3, 34612, Note_on_c, 1, 50, 0
3, 34644, Note_on_c, 1, 38, 105
3, 34644, Note_on_c, 1, 50, 105
3, 34804, Note_on_c, 1, 38, 0
3, 34804, Note_on_c, 1, 50, 0
3, 34836, Note_on_c, 1, 39, 105
3, 34836, Note_on_c, 1, 51, 105
3, 34996, Note_on_c, 1, 39, 0
3, 34996, Note_on_c, 1, 51, 0
3, 35028, Note_on_c, 1, 39, 105
3, 35028, Note_on_c, 1, 51, 105
3, 35188, Note_on_c, 1, 39, 0
3, 35188, Note_on_c, 1, 51, 0
3, 35220, Note_on_c, 1, 41, 105
3, 35220, Note_on_c, 1, 53, 105
3, 35380, Note_on_c, 1, 41, 0
3, 35380, Note_on_c, 1, 53, 0
3, 35412, Note_on_c, 1, 41, 105
3, 35412, Note_on_c, 1, 53, 105
3, 35572, Note_on_c, 1, 41, 0
3, 35572, Note_on_c, 1, 53, 0
3, 35604, Note_on_c, 1, 43, 105
3, 35604, Note_on_c, 1, 55, 105
3, 35764, Note_on_c, 1, 43, 0
3, 35764, Note_on_c, 1, 55, 0
3, 35796, Note_on_c, 1, 43, 105
3, 35796, Note_on_c, 1, 55, 105
3, 35956, Note_on_c, 1, 43, 0
3, 35956, Note_on_c, 1, 55, 0
3, 35988, Note_on_c, 1, 44, 105
3, 35988, Note_on_c, 1, 56, 105
3, 36148, Note_on_c, 1, 44, 0
3, 36148, Note_on_c, 1, 56, 0
3, 36180, Note_on_c, 1, 44, 105
3, 36180, Note_on_c, 1, 56, 105
3, 36340, Note_on_c, 1, 44, 0
3, 36340, Note_on_c, 1, 56, 0
3, 36372, Note_on_c, 1, 42, 75
3, 36372, Note_on_c, 1, 54, 75
3, 36564, Note_on_c, 1, 42, 0
3, 36564, Note_on_c, 1, 54, 0
3, 36564, Note_on_c, 1, 43, 75
3, 36564, Note_on_c, 1, 55, 75
3, 37140, Note_on_c, 1, 43, 0
3, 37140, Note_on_c, 1, 55, 0
3, 37140, Note_on_c, 1, 55, 45
3, 37300, Note_on_c, 1, 55, 0
3, 37332, Note_on_c, 1, 59, 45
3, 37332, Note_on_c, 1, 62, 45
3, 37492, Note_on_c, 1, 59, 0
3, 37492, Note_on_c, 1, 62, 0
3, 37524, Note_on_c, 1, 59, 45
3, 37524, Note_on_c, 1, 62, 45
3, 37684, Note_on_c, 1, 59, 0
3, 37684, Note_on_c, 1, 62, 0
3, 37716, Note_on_c, 1, 59, 45
3, 37716, Note_on_c, 1, 62, 45
3, 37876, Note_on_c, 1, 59, 0
3, 37876, Note_on_c, 1, 62, 0
3, 37908, Note_on_c, 1, 55, 45
3, 38068, Note_on_c, 1, 55, 0
3, 38100, Note_on_c, 1, 60, 45
3, 38100, Note_on_c, 1, 63, 45
3, 38260, Note_on_c, 1, 60, 0
3, 38260, Note_on_c, 1, 63, 0
3, 38292, Note_on_c, 1, 60, 45
3, 38292, Note_on_c, 1, 63, 45
3, 38452, Note_on_c, 1, 60, 0
3, 38452, Note_on_c, 1, 63, 0
3, 38484, Note_on_c, 1, 60, 45
3, 38484, Note_on_c, 1, 63, 45
3, 38644, Note_on_c, 1, 60, 0
3, 38644, Note_on_c, 1, 63, 0
3, 38676, Note_on_c, 1, 62, 45
3, 38676, Note_on_c, 1, 65, 45
3, 38836, Note_on_c, 1, 62, 0
3, 38836, Note_on_c, 1, 65, 0
3, 39828, Note_on_c, 1, 32, 45
3, 39922, Note_on_c, 1, 32, 0
3, 39924, Note_on_c, 1, 44, 45
3, 40018, Note_on_c, 1, 44, 0
3, 40020, Note_on_c, 1, 32, 45
3, 40114, Note_on_c, 1, 32, 0
3, 40116, Note_on_c, 1, 44, 45
3, 40210, Note_on_c, 1, 44, 0
3, 40212, Note_on_c, 1, 31, 45
3, 40212, Note_on_c, 1, 43, 45
3, 40372, Note_on_c, 1, 31, 0
3, 40372, Note_on_c, 1, 43, 0
3, 40404, Note_on_c, 1, 59, 45
3, 40404, Note_on_c, 1, 62, 45
3, 40564, Note_on_c, 1, 59, 0
3, 40564, Note_on_c, 1, 62, 0
3, 40596, Note_on_c, 1, 59, 45
3, 40596, Note_on_c, 1, 62, 45
3, 40756, Note_on_c, 1, 59, 0
3, 40756, Note_on_c, 1, 62, 0
3, 40788, Note_on_c, 1, 59, 45
3, 40788, Note_on_c, 1, 62, 45
3, 40948, Note_on_c, 1, 59, 0
3, 40948, Note_on_c, 1, 62, 0
3, 40980, Note_on_c, 1, 55, 45
3, 41140, Note_on_c, 1, 55, 0
3, 41172, Note_on_c, 1, 60, 45
3, 41172, Note_on_c, 1, 63, 45
3, 41332, Note_on_c, 1, 60, 0
3, 41332, Note_on_c, 1, 63, 0
3, 41364, Note_on_c, 1, 60, 45
3, 41364, Note_on_c, 1, 63, 45
3, 41524, Note_on_c, 1, 60, 0
3, 41524, Note_on_c, 1, 63, 0
3, 41556, Note_on_c, 1, 60, 45
3, 41556, Note_on_c, 1, 63, 45
3, 41716, Note_on_c, 1, 60, 0
3, 41716, Note_on_c, 1, 63, 0
3, 41748, Note_on_c, 1, 62, 45
3, 41748, Note_on_c, 1, 65, 45
3, 41908, Note_on_c, 1, 62, 0
3, 41908, Note_on_c, 1, 65, 0
3, 42900, Note_on_c, 1, 32, 92
3, 42994, Note_on_c, 1, 32, 0
3, 42996, Note_on_c, 1, 44, 92
3, 43090, Note_on_c, 1, 44, 0
3, 43092, Note_on_c, 1, 32, 92
3, 43186, Note_on_c, 1, 32, 0
3, 43188, Note_on_c, 1, 44, 92
3, 43282, Note_on_c, 1, 44, 0
3, 43284, Note_on_c, 1, 31, 92
3, 43332, Note_on_c, 1, 31, 0
3, 43332, Note_on_c, 1, 43, 92
3, 43380, Note_on_c, 1, 43, 0
3, 43380, Note_on_c, 1, 31, 92
3, 43428, Note_on_c, 1, 31, 0
3, 43428, Note_on_c, 1, 43, 92
3, 43476, Note_on_c, 1, 43, 0
3, 43476, Note_on_c, 1, 31, 92
3, 43524, Note_on_c, 1, 31, 0
3, 43524, Note_on_c, 1, 43, 92
3, 43572, Note_on_c, 1, 43, 0
3, 43572, Note_on_c, 1, 31, 92
3, 43620, Note_on_c, 1, 31, 0
3, 43620, Note_on_c, 1, 43, 92
3, 43668, Note_on_c, 1, 43, 0
3, 43668, Note_on_c, 1, 31, 92
3, 43716, Note_on_c, 1, 31, 0
3, 43716, Note_on_c, 1, 43, 92
3, 43764, Note_on_c, 1, 43, 0
3, 43764, Note_on_c, 1, 31, 92
3, 43812, Note_on_c, 1, 31, 0
3, 43812, Note_on_c, 1, 43, 92
3, 43860, Note_on_c, 1, 43, 0
3, 43860, Note_on_c, 1, 31, 92
3, 43908, Note_on_c, 1, 31, 0
3, 43908, Note_on_c, 1, 43, 92
3, 43956, Note_on_c, 1, 43, 0
3, 43956, Note_on_c, 1, 31, 92
3, 44004, Note_on_c, 1, 31, 0
3, 44004, Note_on_c, 1, 43, 92
3, 44050, Note_on_c, 1, 43, 0
3, 44052, Note_on_c, 1, 31, 92
3, 44100, Note_on_c, 1, 31, 0
3, 44100, Note_on_c, 1, 43, 92
3, 44148, Note_on_c, 1, 43, 0
3, 44148, Note_on_c, 1, 31, 92
3, 44196, Note_on_c, 1, 31, 0
3, 44196, Note_on_c, 1, 43, 92
3, 44244, Note_on_c, 1, 43, 0
3, 44244, Note_on_c, 1, 31, 92
3, 44292, Note_on_c, 1, 31, 0
3, 44292, Note_on_c, 1, 43, 92
3, 44340, Note_on_c, 1, 43, 0
3, 44340, Note_on_c, 1, 31, 92
3, 44388, Note_on_c, 1, 31, 0
3, 44388, Note_on_c, 1, 43, 92
3, 44436, Note_on_c, 1, 43, 0
3, 44436, Note_on_c, 1, 31, 92
3, 44484, Note_on_c, 1, 31, 0
3, 44484, Note_on_c, 1, 43, 92
3, 44532, Note_on_c, 1, 43, 0
3, 44532, Note_on_c, 1, 31, 92
3, 44580, Note_on_c, 1, 31, 0
3, 44580, Note_on_c, 1, 43, 92
3, 44628, Note_on_c, 1, 43, 0
3, 44628, Note_on_c, 1, 31, 92
3, 44676, Note_on_c, 1, 31, 0
3, 44676, Note_on_c, 1, 43, 92
3, 44724, Note_on_c, 1, 43, 0
3, 44724, Note_on_c, 1, 31, 92
3, 44772, Note_on_c, 1, 31, 0
3, 44772, Note_on_c, 1, 43, 92
3, 44818, Note_on_c, 1, 43, 0
3, 44820, Note_on_c, 1, 31, 92
3, 44868, Note_on_c, 1, 31, 0
3, 44868, Note_on_c, 1, 43, 92
3, 44916, Note_on_c, 1, 43, 0
3, 44916, Note_on_c, 1, 31, 92
3, 44964, Note_on_c, 1, 31, 0
3, 44964, Note_on_c, 1, 43, 92
3, 45012, Note_on_c, 1, 43, 0
3, 45012, Note_on_c, 1, 31, 92
3, 45060, Note_on_c, 1, 31, 0
3, 45060, Note_on_c, 1, 43, 92
3, 45108, Note_on_c, 1, 43, 0
3, 45108, Note_on_c, 1, 31, 92
3, 45156, Note_on_c, 1, 31, 0
3, 45156, Note_on_c, 1, 43, 92
3, 45204, Note_on_c, 1, 43, 0
3, 45204, Note_on_c, 1, 31, 92
3, 45252, Note_on_c, 1, 31, 0
3, 45252, Note_on_c, 1, 43, 92
3, 45300, Note_on_c, 1, 43, 0
3, 45300, Note_on_c, 1, 31, 92
3, 45348, Note_on_c, 1, 31, 0
3, 45348, Note_on_c, 1, 43, 92
3, 45396, Note_on_c, 1, 43, 0
3, 45396, Note_on_c, 1, 31, 92
3, 45444, Note_on_c, 1, 31, 0
3, 45444, Note_on_c, 1, 43, 92
3, 45492, Note_on_c, 1, 43, 0
3, 45492, Note_on_c, 1, 31, 92
3, 45540, Note_on_c, 1, 31, 0
3, 45540, Note_on_c, 1, 43, 92
3, 45586, Note_on_c, 1, 43, 0
3, 45588, Note_on_c, 1, 31, 92
3, 45636, Note_on_c, 1, 31, 0
3, 45636, Note_on_c, 1, 43, 92
3, 45684, Note_on_c, 1, 43, 0
3, 45684, Note_on_c, 1, 31, 92
3, 45732, Note_on_c, 1, 31, 0
3, 45732, Note_on_c, 1, 43, 92
3, 45780, Note_on_c, 1, 43, 0
3, 45780, Note_on_c, 1, 31, 92
3, 45828, Note_on_c, 1, 31, 0
3, 45828, Note_on_c, 1, 43, 92
3, 45876, Note_on_c, 1, 43, 0
3, 45876, Note_on_c, 1, 31, 92
3, 45924, Note_on_c, 1, 31, 0
3, 45924, Note_on_c, 1, 43, 92
3, 45972, Note_on_c, 1, 43, 0
3, 45972, Note_on_c, 1, 31, 92
3, 46020, Note_on_c, 1, 31, 0
3, 46020, Note_on_c, 1, 43, 92
3, 46068, Note_on_c, 1, 43, 0
3, 46068, Note_on_c, 1, 31, 92
3, 46116, Note_on_c, 1, 31, 0
3, 46116, Note_on_c, 1, 43, 92
3, 46164, Note_on_c, 1, 43, 0
3, 46164, Note_on_c, 1, 31, 92
3, 46212, Note_on_c, 1, 31, 0
3, 46212, Note_on_c, 1, 43, 92
3, 46260, Note_on_c, 1, 43, 0
3, 46260, Note_on_c, 1, 31, 92
3, 46308, Note_on_c, 1, 31, 0
3, 46308, Note_on_c, 1, 43, 92
3, 46354, Note_on_c, 1, 43, 0
3, 46356, Note_on_c, 1, 31, 92
3, 46404, Note_on_c, 1, 31, 0
3, 46404, Note_on_c, 1, 43, 92
3, 46452, Note_on_c, 1, 43, 0
3, 46452, Note_on_c, 1, 31, 92
3, 46500, Note_on_c, 1, 31, 0
3, 46500, Note_on_c, 1, 43, 92
3, 46548, Note_on_c, 1, 43, 0
3, 46548, Note_on_c, 1, 31, 92
3, 46596, Note_on_c, 1, 31, 0
3, 46596, Note_on_c, 1, 43, 92
3, 46644, Note_on_c, 1, 43, 0
3, 46644, Note_on_c, 1, 31, 92
3, 46692, Note_on_c, 1, 31, 0
3, 46692, Note_on_c, 1, 43, 92
3, 46740, Note_on_c, 1, 43, 0
3, 46740, Note_on_c, 1, 31, 92
3, 46788, Note_on_c, 1, 31, 0
3, 46788, Note_on_c, 1, 43, 92
3, 46836, Note_on_c, 1, 43, 0
3, 46836, Note_on_c, 1, 31, 92
3, 46884, Note_on_c, 1, 31, 0
3, 46884, Note_on_c, 1, 43, 92
3, 46932, Note_on_c, 1, 43, 0
3, 46932, Note_on_c, 1, 31, 92
3, 46980, Note_on_c, 1, 31, 0
3, 46980, Note_on_c, 1, 43, 92
3, 47028, Note_on_c, 1, 43, 0
3, 47028, Note_on_c, 1, 31, 92
3, 47076, Note_on_c, 1, 31, 0
3, 47076, Note_on_c, 1, 43, 92
3, 47122, Note_on_c, 1, 43, 0
3, 47124, Note_on_c, 1, 31, 92
3, 47124, Note_on_c, 1, 43, 92
3, 47844, Note_on_c, 1, 31, 0
3, 47844, Note_on_c, 1, 43, 0
3, 47892, Note_on_c, 1, 43, 45
3, 48148, Note_on_c, 1, 43, 0
3, 48180, Note_on_c, 1, 52, 45
3, 48274, Note_on_c, 1, 52, 0
3, 48276, Note_on_c, 1, 50, 45
3, 48370, Note_on_c, 1, 50, 0
3, 48372, Note_on_c, 1, 43, 45
3, 48466, Note_on_c, 1, 43, 0
3, 48468, Note_on_c, 1, 43, 45
3, 48562, Note_on_c, 1, 43, 0
3, 48564, Note_on_c, 1, 53, 45
3, 48658, Note_on_c, 1, 53, 0
3, 48660, Note_on_c, 1, 52, 45
3, 48754, Note_on_c, 1, 52, 0
3, 48756, Note_on_c, 1, 43, 45
3, 48850, Note_on_c, 1, 43, 0
3, 48852, Note_on_c, 1, 43, 45
3, 48946, Note_on_c, 1, 43, 0
3, 48948, Note_on_c, 1, 52, 45
3, 49042, Note_on_c, 1, 52, 0
3, 49044, Note_on_c, 1, 50, 45
3, 49138, Note_on_c, 1, 50, 0
3, 49140, Note_on_c, 1, 43, 45
3, 49234, Note_on_c, 1, 43, 0
3, 49236, Note_on_c, 1, 43, 45
3, 49330, Note_on_c, 1, 43, 0
3, 49332, Note_on_c, 1, 53, 45
3, 49426, Note_on_c, 1, 53, 0
3, 49428, Note_on_c, 1, 52, 45
3, 49522, Note_on_c, 1, 52, 0
3, 49524, Note_on_c, 1, 43, 45
3, 49618, Note_on_c, 1, 43, 0
3, 49620, Note_on_c, 1, 43, 45
3, 49714, Note_on_c, 1, 43, 0
3, 49716, Note_on_c, 1, 52, 45
3, 49810, Note_on_c, 1, 52, 0
3, 49812, Note_on_c, 1, 50, 75
3, 49906, Note_on_c, 1, 50, 0
3, 49908, Note_on_c, 1, 43, 75
3, 50002, Note_on_c, 1, 43, 0
3, 50004, Note_on_c, 1, 43, 75
3, 50098, Note_on_c, 1, 43, 0
3, 50100, Note_on_c, 1, 53, 75
3, 50194, Note_on_c, 1, 53, 0
3, 50196, Note_on_c, 1, 52, 75
3, 50290, Note_on_c, 1, 52, 0
3, 50292, Note_on_c, 1, 43, 75
3, 50386, Note_on_c, 1, 43, 0
3, 50388, Note_on_c, 1, 43, 75
3, 50482, Note_on_c, 1, 43, 0
3, 50484, Note_on_c, 1, 52, 75
3, 50578, Note_on_c, 1, 52, 0
3, 50580, Note_on_c, 1, 50, 75
3, 50674, Note_on_c, 1, 50, 0
3, 50676, Note_on_c, 1, 43, 75
3, 50770, Note_on_c, 1, 43, 0
3, 50772, Note_on_c, 1, 43, 75
3, 50866, Note_on_c, 1, 43, 0
3, 50868, Note_on_c, 1, 53, 75
3, 50962, Note_on_c, 1, 53, 0
3, 50964, Note_on_c, 1, 52, 75
3, 51058, Note_on_c, 1, 52, 0
3, 51060, Note_on_c, 1, 43, 75
3, 51154, Note_on_c, 1, 43, 0
3, 51156, Note_on_c, 1, 43, 75
3, 51250, Note_on_c, 1, 43, 0
3, 51252, Note_on_c, 1, 52, 75
3, 51346, Note_on_c, 1, 52, 0
3, 51348, Note_on_c, 1, 50, 75
3, 51442, Note_on_c, 1, 50, 0
3, 51444, Note_on_c, 1, 43, 75
3, 51538, Note_on_c, 1, 43, 0
3, 51540, Note_on_c, 1, 43, 75
3, 51634, Note_on_c, 1, 43, 0
3, 51636, Note_on_c, 1, 53, 75
3, 51730, Note_on_c, 1, 53, 0
3, 51732, Note_on_c, 1, 52, 75
3, 51826, Note_on_c, 1, 52, 0
3, 51828, Note_on_c, 1, 43, 75
3, 51922, Note_on_c, 1, 43, 0
3, 51924, Note_on_c, 1, 43, 75
3, 52018, Note_on_c, 1, 43, 0
3, 52020, Note_on_c, 1, 52, 75
3, 52114, Note_on_c, 1, 52, 0
3, 52116, Note_on_c, 1, 50, 75
3, 52210, Note_on_c, 1, 50, 0
3, 52212, Note_on_c, 1, 43, 75
3, 52306, Note_on_c, 1, 43, 0
3, 52308, Note_on_c, 1, 43, 75
3, 52402, Note_on_c, 1, 43, 0
3, 52404, Note_on_c, 1, 53, 75
3, 52498, Note_on_c, 1, 53, 0
3, 52500, Note_on_c, 1, 52, 75
3, 52594, Note_on_c, 1, 52, 0
3, 52596, Note_on_c, 1, 43, 75
3, 52690, Note_on_c, 1, 43, 0
3, 52692, Note_on_c, 1, 43, 75
3, 52786, Note_on_c, 1, 43, 0
3, 52788, Note_on_c, 1, 57, 75
3, 52882, Note_on_c, 1, 57, 0
3, 52884, Note_on_c, 1, 55, 75
3, 52978, Note_on_c, 1, 55, 0
3, 52980, Note_on_c, 1, 48, 75
3, 53074, Note_on_c, 1, 48, 0
3, 53076, Note_on_c, 1, 48, 75
3, 53170, Note_on_c, 1, 48, 0
3, 53172, Note_on_c, 1, 58, 75
3, 53266, Note_on_c, 1, 58, 0
3, 53268, Note_on_c, 1, 57, 75
3, 53362, Note_on_c, 1, 57, 0
3, 53364, Note_on_c, 1, 48, 75
3, 53458, Note_on_c, 1, 48, 0
3, 53460, Note_on_c, 1, 48, 75
3, 53554, Note_on_c, 1, 48, 0
3, 53556, Note_on_c, 1, 57, 75
3, 53650, Note_on_c, 1, 57, 0
3, 53652, Note_on_c, 1, 55, 75
3, 53746, Note_on_c, 1, 55, 0
3, 53748, Note_on_c, 1, 48, 75
3, 53842, Note_on_c, 1, 48, 0
3, 53844, Note_on_c, 1, 48, 75
3, 53938, Note_on_c, 1, 48, 0
3, 53940, Note_on_c, 1, 58, 75
3, 54034, Note_on_c, 1, 58, 0
3, 54036, Note_on_c, 1, 57, 75
3, 54130, Note_on_c, 1, 57, 0
3, 54132, Note_on_c, 1, 43, 75
3, 54226, Note_on_c, 1, 43, 0
3, 54228, Note_on_c, 1, 43, 75
3, 54322, Note_on_c, 1, 43, 0
3, 54324, Note_on_c, 1, 52, 75
3, 54418, Note_on_c, 1, 52, 0
3, 54420, Note_on_c, 1, 50, 75
3, 54514, Note_on_c, 1, 50, 0
3, 54516, Note_on_c, 1, 43, 75
3, 54610, Note_on_c, 1, 43, 0
3, 54612, Note_on_c, 1, 43, 75
3, 54706, Note_on_c, 1, 43, 0
3, 54708, Note_on_c, 1, 53, 75
3, 54802, Note_on_c, 1, 53, 0
3, 54804, Note_on_c, 1, 52, 75
3, 54898, Note_on_c, 1, 52, 0
3, 54900, Note_on_c, 1, 43, 75
3, 54994, Note_on_c, 1, 43, 0
3, 54996, Note_on_c, 1, 43, 75
3, 55090, Note_on_c, 1, 43, 0
3, 55092, Note_on_c, 1, 52, 75
3, 55186, Note_on_c, 1, 52, 0
3, 55188, Note_on_c, 1, 50, 75
3, 55282, Note_on_c, 1, 50, 0
3, 55284, Note_on_c, 1, 43, 75
3, 55378, Note_on_c, 1, 43, 0
3, 55380, Note_on_c, 1, 43, 75
3, 55474, Note_on_c, 1, 43, 0
3, 55476, Note_on_c, 1, 53, 75
3, 55570, Note_on_c, 1, 53, 0
3, 55572, Note_on_c, 1, 52, 75
3, 55666, Note_on_c, 1, 52, 0
3, 55668, Note_on_c, 1, 43, 75
3, 55762, Note_on_c, 1, 43, 0
3, 55764, Note_on_c, 1, 43, 75
3, 55858, Note_on_c, 1, 43, 0
3, 55860, Note_on_c, 1, 59, 75
3, 55954, Note_on_c, 1, 59, 0
3, 55956, Note_on_c, 1, 57, 75
3, 56050, Note_on_c, 1, 57, 0
3, 56052, Note_on_c, 1, 50, 75
3, 56146, Note_on_c, 1, 50, 0
3, 56148, Note_on_c, 1, 50, 75
3, 56242, Note_on_c, 1, 50, 0
3, 56244, Note_on_c, 1, 60, 75
3, 56338, Note_on_c, 1, 60, 0
3, 56340, Note_on_c, 1, 59, 75
3, 56434, Note_on_c, 1, 59, 0
3, 56436, Note_on_c, 1, 50, 75
3, 56530, Note_on_c, 1, 50, 0
3, 56532, Note_on_c, 1, 50, 75
3, 56626, Note_on_c, 1, 50, 0
3, 56628, Note_on_c, 1, 57, 75
3, 56722, Note_on_c, 1, 57, 0
3, 56724, Note_on_c, 1, 55, 75
3, 56818, Note_on_c, 1, 55, 0
3, 56820, Note_on_c, 1, 48, 75
3, 56914, Note_on_c, 1, 48, 0
3, 56916, Note_on_c, 1, 48, 75
3, 57010, Note_on_c, 1, 48, 0
3, 57012, Note_on_c, 1, 58, 75
3, 57106, Note_on_c, 1, 58, 0
3, 57108, Note_on_c, 1, 57, 75
3, 57202, Note_on_c, 1, 57, 0
3, 57204, Note_on_c, 1, 48, 75
3, 57298, Note_on_c, 1, 48, 0
3, 57300, Note_on_c, 1, 48, 75
3, 57394, Note_on_c, 1, 48, 0
3, 57396, Note_on_c, 1, 52, 75
3, 57490, Note_on_c, 1, 52, 0
3, 57492, Note_on_c, 1, 50, 75
3, 57586, Note_on_c, 1, 50, 0
3, 57588, Note_on_c, 1, 43, 75
3, 57682, Note_on_c, 1, 43, 0
3, 57684, Note_on_c, 1, 43, 75
3, 57778, Note_on_c, 1, 43, 0
3, 57780, Note_on_c, 1, 53, 75
3, 57874, Note_on_c, 1, 53, 0
3, 57876, Note_on_c, 1, 52, 75
3, 57970, Note_on_c, 1, 52, 0
3, 57972, Note_on_c, 1, 43, 75
3, 58066, Note_on_c, 1, 43, 0
3, 58068, Note_on_c, 1, 43, 75
3, 58162, Note_on_c, 1, 43, 0
3, 58164, Note_on_c, 1, 52, 75
3, 58258, Note_on_c, 1, 52, 0
3, 58260, Note_on_c, 1, 50, 75
3, 58354, Note_on_c, 1, 50, 0
3, 58356, Note_on_c, 1, 43, 75
3, 58450, Note_on_c, 1, 43, 0
3, 58452, Note_on_c, 1, 43, 75
3, 58546, Note_on_c, 1, 43, 0
3, 58548, Note_on_c, 1, 53, 75
3, 58642, Note_on_c, 1, 53, 0
3, 58644, Note_on_c, 1, 52, 75
3, 58738, Note_on_c, 1, 52, 0
3, 58740, Note_on_c, 1, 43, 75
3, 59076, Note_on_c, 1, 43, 0
3, 59124, Note_on_c, 1, 31, 75
3, 59284, Note_on_c, 1, 31, 0
3, 59316, Note_on_c, 1, 38, 75
3, 59476, Note_on_c, 1, 38, 0
3, 59508, Note_on_c, 1, 41, 75
3, 59668, Note_on_c, 1, 41, 0
3, 59700, Note_on_c, 1, 43, 75
3, 60036, Note_on_c, 1, 43, 0
3, 60084, Note_on_c, 1, 31, 75
3, 60244, Note_on_c, 1, 31, 0
3, 60276, Note_on_c, 1, 38, 75
3, 60436, Note_on_c, 1, 38, 0
3, 60468, Note_on_c, 1, 41, 75
3, 60628, Note_on_c, 1, 41, 0
3, 60660, Note_on_c, 1, 43, 75
3, 60996, Note_on_c, 1, 43, 0
3, 61044, Note_on_c, 1, 31, 75
3, 61204, Note_on_c, 1, 31, 0
3, 61236, Note_on_c, 1, 38, 75
3, 61396, Note_on_c, 1, 38, 0
3, 61428, Note_on_c, 1, 41, 75
3, 61588, Note_on_c, 1, 41, 0
3, 61620, Note_on_c, 1, 43, 75
3, 61956, Note_on_c, 1, 43, 0
3, 62004, Note_on_c, 1, 31, 75
3, 62164, Note_on_c, 1, 31, 0
3, 62196, Note_on_c, 1, 38, 75
3, 62356, Note_on_c, 1, 38, 0
3, 62388, Note_on_c, 1, 41, 75
3, 62548, Note_on_c, 1, 41, 0
3, 62580, Note_on_c, 1, 48, 75
3, 62916, Note_on_c, 1, 48, 0
3, 62964, Note_on_c, 1, 36, 75
3, 63124, Note_on_c, 1, 36, 0
3, 63156, Note_on_c, 1, 43, 75
3, 63316, Note_on_c, 1, 43, 0
3, 63348, Note_on_c, 1, 46, 75
3, 63508, Note_on_c, 1, 46, 0
3, 63540, Note_on_c, 1, 48, 75
3, 63876, Note_on_c, 1, 48, 0
3, 63924, Note_on_c, 1, 36, 75
3, 64084, Note_on_c, 1, 36, 0
3, 64116, Note_on_c, 1, 38, 75
3, 64276, Note_on_c, 1, 38, 0
3, 64308, Note_on_c, 1, 41, 75
3, 64468, Note_on_c, 1, 41, 0
3, 64500, Note_on_c, 1, 43, 75
3, 64836, Note_on_c, 1, 43, 0
3, 64884, Note_on_c, 1, 31, 75
3, 65044, Note_on_c, 1, 31, 0
3, 65076, Note_on_c, 1, 38, 75
3, 65236, Note_on_c, 1, 38, 0
3, 65268, Note_on_c, 1, 41, 75
3, 65428, Note_on_c, 1, 41, 0
3, 65460, Note_on_c, 1, 43, 75
3, 65796, Note_on_c, 1, 43, 0
3, 65844, Note_on_c, 1, 31, 75
3, 66004, Note_on_c, 1, 31, 0
3, 66036, Note_on_c, 1, 47, 75
3, 66196, Note_on_c, 1, 47, 0
3, 66228, Note_on_c, 1, 48, 75
3, 66388, Note_on_c, 1, 48, 0
3, 66420, Note_on_c, 1, 50, 75
3, 66756, Note_on_c, 1, 50, 0
3, 66804, Note_on_c, 1, 38, 75
3, 66964, Note_on_c, 1, 38, 0
3, 66996, Note_on_c, 1, 45, 75
3, 67156, Note_on_c, 1, 45, 0
3, 67188, Note_on_c, 1, 46, 75
3, 67348, Note_on_c, 1, 46, 0
3, 67380, Note_on_c, 1, 48, 75
3, 67716, Note_on_c, 1, 48, 0
3, 67764, Note_on_c, 1, 36, 75
3, 67924, Note_on_c, 1, 36, 0
3, 67956, Note_on_c, 1, 39, 75
3, 68116, Note_on_c, 1, 39, 0
3, 68148, Note_on_c, 1, 41, 75
3, 68308, Note_on_c, 1, 41, 0
3, 68340, Note_on_c, 1, 43, 75
3, 68676, Note_on_c, 1, 43, 0
3, 68724, Note_on_c, 1, 31, 75
3, 68884, Note_on_c, 1, 31, 0
3, 68916, Note_on_c, 1, 38, 75
3, 69076, Note_on_c, 1, 38, 0
3, 69108, Note_on_c, 1, 41, 75
3, 69268, Note_on_c, 1, 41, 0
3, 69300, Note_on_c, 1, 43, 75
3, 69636, Note_on_c, 1, 43, 0
3, 69684, Note_on_c, 1, 31, 75
3, 69844, Note_on_c, 1, 31, 0
3, 69876, Note_on_c, 1, 38, 75
3, 70036, Note_on_c, 1, 38, 0
3, 70068, Note_on_c, 1, 41, 75
3, 70228, Note_on_c, 1, 41, 0
3, 70260, Note_on_c, 1, 43, 75
3, 70516, Note_on_c, 1, 43, 0
3, 70548, Note_on_c, 1, 43, 75
3, 70738, Note_on_c, 1, 43, 0
3, 70740, Note_on_c, 1, 31, 75
3, 70834, Note_on_c, 1, 31, 0
3, 70836, Note_on_c, 1, 38, 75
3, 70996, Note_on_c, 1, 38, 0
3, 71028, Note_on_c, 1, 41, 75
3, 71188, Note_on_c, 1, 41, 0
3, 71220, Note_on_c, 1, 43, 75
3, 71476, Note_on_c, 1, 43, 0
3, 71508, Note_on_c, 1, 43, 75
3, 71698, Note_on_c, 1, 43, 0
3, 71700, Note_on_c, 1, 31, 75
3, 71794, Note_on_c, 1, 31, 0
3, 71796, Note_on_c, 1, 38, 75
3, 71956, Note_on_c, 1, 38, 0
3, 71988, Note_on_c, 1, 41, 75
3, 72148, Note_on_c, 1, 41, 0
3, 72180, Note_on_c, 1, 43, 75
3, 72436, Note_on_c, 1, 43, 0
3, 72468, Note_on_c, 1, 43, 75
3, 72658, Note_on_c, 1, 43, 0
3, 72660, Note_on_c, 1, 38, 75
3, 72754, Note_on_c, 1, 38, 0
3, 72756, Note_on_c, 1, 41, 75
3, 72850, Note_on_c, 1, 41, 0
3, 72852, Note_on_c, 1, 43, 75
3, 72946, Note_on_c, 1, 43, 0
3, 72948, Note_on_c, 1, 45, 75
3, 73042, Note_on_c, 1, 45, 0
3, 73044, Note_on_c, 1, 48, 75
3, 73138, Note_on_c, 1, 48, 0
3, 73140, Note_on_c, 1, 38, 60
3, 73188, Note_on_c, 1, 38, 0
3, 73188, Note_on_c, 1, 50, 60
3, 73236, Note_on_c, 1, 50, 0
3, 73236, Note_on_c, 1, 38, 60
3, 73284, Note_on_c, 1, 38, 0
3, 73284, Note_on_c, 1, 50, 60
3, 73332, Note_on_c, 1, 50, 0
3, 73332, Note_on_c, 1, 38, 75
3, 73380, Note_on_c, 1, 38, 0
3, 73380, Note_on_c, 1, 50, 75
3, 73428, Note_on_c, 1, 50, 0
3, 73428, Note_on_c, 1, 38, 75
3, 73476, Note_on_c, 1, 38, 0
3, 73476, Note_on_c, 1, 50, 75
3, 73524, Note_on_c, 1, 50, 0
3, 73524, Note_on_c, 1, 38, 92
3, 73572, Note_on_c, 1, 38, 0
3, 73572, Note_on_c, 1, 50, 92
3, 73620, Note_on_c, 1, 50, 0
3, 73620, Note_on_c, 1, 38, 92
3, 73668, Note_on_c, 1, 38, 0
3, 73668, Note_on_c, 1, 50, 92
3, 73716, Note_on_c, 1, 50, 0
3, 73716, Note_on_c, 1, 38, 75
3, 73764, Note_on_c, 1, 38, 0
3, 73764, Note_on_c, 1, 50, 75
3, 73812, Note_on_c, 1, 50, 0
3, 73812, Note_on_c, 1, 38, 75
3, 73860, Note_on_c, 1, 38, 0
3, 73860, Note_on_c, 1, 50, 75
3, 73906, Note_on_c, 1, 50, 0
3, 73908, Note_on_c, 1, 38, 60
3, 73908, Note_on_c, 1, 50, 60
3, 74436, Note_on_c, 1, 38, 0
3, 74436, Note_on_c, 1, 50, 0
3, 74580, Note_on_c, 1, 45, 60
3, 74674, Note_on_c, 1, 45, 0
3, 74676, Control_c, 1, 64, 127
3, 74676, Note_on_c, 1, 50, 60
3, 74868, Note_on_c, 1, 54, 60
3, 74868, Note_on_c, 1, 57, 60
3, 74868, Note_on_c, 1, 61, 60
3, 75204, Note_on_c, 1, 50, 0
3, 75204, Note_on_c, 1, 54, 0
3, 75204, Note_on_c, 1, 57, 0
3, 75204, Note_on_c, 1, 61, 0
3, 75252, Note_on_c, 1, 50, 60
3, 75252, Note_on_c, 1, 54, 60
3, 75252, Note_on_c, 1, 57, 60
3, 75252, Note_on_c, 1, 61, 60
3, 75412, Note_on_c, 1, 50, 0
3, 75412, Note_on_c, 1, 54, 0
3, 75412, Note_on_c, 1, 57, 0
3, 75412, Note_on_c, 1, 61, 0
3, 75444, Control_c, 1, 64, 0
3, 75444, Control_c, 1, 64, 127
3, 75444, Note_on_c, 1, 52, 60
3, 75444, Note_on_c, 1, 55, 60
3, 75444, Note_on_c, 1, 59, 60
3, 75444, Note_on_c, 1, 62, 60
3, 75780, Note_on_c, 1, 52, 0
3, 75780, Note_on_c, 1, 55, 0
3, 75780, Note_on_c, 1, 59, 0
3, 75780, Note_on_c, 1, 62, 0
3, 75828, Note_on_c, 1, 52, 60
3, 75828, Note_on_c, 1, 55, 60
3, 75828, Note_on_c, 1, 59, 60
3, 75828, Note_on_c, 1, 62, 60
3, 76084, Note_on_c, 1, 52, 0
3, 76084, Note_on_c, 1, 55, 0
3, 76084, Note_on_c, 1, 59, 0
3, 76084, Note_on_c, 1, 62, 0
3, 76116, Note_on_c, 1, 52, 60
3, 76116, Note_on_c, 1, 55, 60
3, 76116, Note_on_c, 1, 59, 60
3, 76116, Note_on_c, 1, 62, 60
3, 76210, Note_on_c, 1, 52, 0
3, 76210, Note_on_c, 1, 55, 0
3, 76210, Note_on_c, 1, 59, 0
3, 76210, Note_on_c, 1, 62, 0
3, 76212, Control_c, 1, 64, 0
3, 76212, Control_c, 1, 64, 127
3, 76212, Note_on_c, 1, 50, 60
3, 76212, Note_on_c, 1, 54, 60
3, 76212, Note_on_c, 1, 57, 60
3, 76212, Note_on_c, 1, 61, 60
3, 76548, Note_on_c, 1, 50, 0
3, 76548, Note_on_c, 1, 54, 0
3, 76548, Note_on_c, 1, 57, 0
3, 76548, Note_on_c, 1, 61, 0
3, 76596, Note_on_c, 1, 50, 60
3, 76596, Note_on_c, 1, 54, 60
3, 76596, Note_on_c, 1, 57, 60
3, 76596, Note_on_c, 1, 61, 60
3, 76932, Note_on_c, 1, 50, 0
3, 76932, Note_on_c, 1, 54, 0
3, 76932, Note_on_c, 1, 57, 0
3, 76932, Note_on_c, 1, 61, 0
3, 76980, Control_c, 1, 64, 0
3, 76980, Control_c, 1, 64, 127
3, 76980, Note_on_c, 1, 52, 60
3, 76980, Note_on_c, 1, 55, 60
3, 76980, Note_on_c, 1, 59, 60
3, 76980, Note_on_c, 1, 62, 60
3, 77316, Note_on_c, 1, 52, 0
3, 77316, Note_on_c, 1, 55, 0
3, 77316, Note_on_c, 1, 59, 0
3, 77316, Note_on_c, 1, 62, 0
3, 77364, Note_on_c, 1, 40, 60
3, 77458, Note_on_c, 1, 40, 0
3, 77460, Note_on_c, 1, 43, 60
3, 77460, Note_on_c, 1, 47, 60
3, 77460, Note_on_c, 1, 52, 60
3, 77554, Note_on_c, 1, 43, 0
3, 77554, Note_on_c, 1, 47, 0
3, 77554, Note_on_c, 1, 52, 0
3, 77556, Note_on_c, 1, 52, 60
3, 77556, Note_on_c, 1, 55, 60
3, 77556, Note_on_c, 1, 59, 60
3, 77650, Note_on_c, 1, 52, 0
3, 77650, Note_on_c, 1, 55, 0
3, 77650, Note_on_c, 1, 59, 0
3, 77652, Note_on_c, 1, 52, 60
3, 77652, Note_on_c, 1, 55, 60
3, 77652, Note_on_c, 1, 59, 60
3, 77652, Note_on_c, 1, 62, 60
3, 77746, Note_on_c, 1, 52, 0
3, 77746, Note_on_c, 1, 55, 0
3, 77746, Note_on_c, 1, 59, 0
3, 77746, Note_on_c, 1, 62, 0
3, 77748, Control_c, 1, 64, 0
3, 77748, Control_c, 1, 64, 127
3, 77748, Note_on_c, 1, 53, 60
3, 77748, Note_on_c, 1, 57, 60
3, 77748, Note_on_c, 1, 60, 60
3, 77748, Note_on_c, 1, 64, 60
3, 78084, Note_on_c, 1, 53, 0
3, 78084, Note_on_c, 1, 57, 0
3, 78084, Note_on_c, 1, 60, 0
3, 78084, Note_on_c, 1, 64, 0
3, 78132, Note_on_c, 1, 53, 60
3, 78132, Note_on_c, 1, 57, 60
3, 78132, Note_on_c, 1, 60, 60
3, 78132, Note_on_c, 1, 64, 60
3, 78468, Note_on_c, 1, 53, 0
3, 78468, Note_on_c, 1, 57, 0
3, 78468, Note_on_c, 1, 60, 0
3, 78468, Note_on_c, 1, 64, 0
3, 78516, Control_c, 1, 64, 0
3, 78516, Control_c, 1, 64, 127
3, 78516, Note_on_c, 1, 55, 60
3, 78516, Note_on_c, 1, 58, 60
3, 78516, Note_on_c, 1, 62, 60
3, 78516, Note_on_c, 1, 65, 60
3, 78994, Note_on_c, 1, 55, 0
3, 78994, Note_on_c, 1, 58, 0
3, 78994, Note_on_c, 1, 62, 0
3, 78994, Note_on_c, 1, 65, 0
3, 78996, Note_on_c, 1, 55, 60
3, 79090, Note_on_c, 1, 55, 0
3, 79092, Note_on_c, 1, 58, 60
3, 79092, Note_on_c, 1, 62, 60
3, 79092, Note_on_c, 1, 65, 60
3, 79186, Note_on_c, 1, 58, 0
3, 79186, Note_on_c, 1, 62, 0
3, 79186, Note_on_c, 1, 65, 0
3, 79188, Note_on_c, 1, 55, 60
3, 79282, Note_on_c, 1, 55, 0
3, 79284, Control_c, 1, 64, 0
3, 79284, Control_c, 1, 64, 127
3, 79284, Note_on_c, 1, 55, 60
3, 79284, Note_on_c, 1, 58, 60
3, 79284, Note_on_c, 1, 62, 60
3, 79284, Note_on_c, 1, 65, 60
3, 79620, Note_on_c, 1, 55, 0
3, 79620, Note_on_c, 1, 58, 0
3, 79620, Note_on_c, 1, 62, 0
3, 79620, Note_on_c, 1, 65, 0
3, 79668, Note_on_c, 1, 55, 60
3, 79668, Note_on_c, 1, 58, 60
3, 79668, Note_on_c, 1, 62, 60
3, 79668, Note_on_c, 1, 65, 60
3, 80004, Note_on_c, 1, 55, 0
3, 80004, Note_on_c, 1, 58, 0
3, 80004, Note_on_c, 1, 62, 0
3, 80004, Note_on_c, 1, 65, 0
3, 80052, Control_c, 1, 64, 0
3, 80052, Control_c, 1, 64, 127
3, 80052, Note_on_c, 1, 50, 60
3, 80052, Note_on_c, 1, 54, 60
3, 80052, Note_on_c, 1, 57, 60
3, 80052, Note_on_c, 1, 61, 60
3, 80308, Note_on_c, 1, 50, 0
3, 80308, Note_on_c, 1, 54, 0
3, 80308, Note_on_c, 1, 57, 0
3, 80308, Note_on_c, 1, 61, 0
3, 80340, Note_on_c, 1, 50, 60
3, 80340, Note_on_c, 1, 54, 60
3, 80340, Note_on_c, 1, 57, 60
3, 80340, Note_on_c, 1, 61, 60
3, 80434, Note_on_c, 1, 50, 0
3, 80434, Note_on_c, 1, 54, 0
3, 80434, Note_on_c, 1, 57, 0
3, 80434, Note_on_c, 1, 61, 0
3, 80436, Note_on_c, 1, 50, 60
3, 80436, Note_on_c, 1, 54, 60
3, 80436, Note_on_c, 1, 57, 60
3, 80436, Note_on_c, 1, 61, 60
3, 80772, Note_on_c, 1, 50, 0
3, 80772, Note_on_c, 1, 54, 0
3, 80772, Note_on_c, 1, 57, 0
3, 80772, Note_on_c, 1, 61, 0
3, 80820, Control_c, 1, 64, 0
3, 80820, Control_c, 1, 64, 127
3, 80820, Note_on_c, 1, 52, 60
3, 80820, Note_on_c, 1, 55, 60
3, 80820, Note_on_c, 1, 59, 60
3, 80820, Note_on_c, 1, 62, 60
3, 81156, Note_on_c, 1, 52, 0
3, 81156, Note_on_c, 1, 55, 0
3, 81156, Note_on_c, 1, 59, 0
3, 81156, Note_on_c, 1, 62, 0
3, 81204, Note_on_c, 1, 52, 60
3, 81204, Note_on_c, 1, 55, 60
3, 81204, Note_on_c, 1, 59, 60
3, 81204, Note_on_c, 1, 62, 60
3, 81540, Note_on_c, 1, 52, 0
3, 81540, Note_on_c, 1, 55, 0
3, 81540, Note_on_c, 1, 59, 0
3, 81540, Note_on_c, 1, 62, 0
3, 81588, Control_c, 1, 64, 0
3, 81588, Control_c, 1, 64, 127
3, 81588, Note_on_c, 1, 50, 60
3, 81588, Note_on_c, 1, 54, 60
3, 81588, Note_on_c, 1, 57, 60
3, 81588, Note_on_c, 1, 61, 60
3, 81924, Note_on_c, 1, 50, 0
3, 81924, Note_on_c, 1, 54, 0
3, 81924, Note_on_c, 1, 57, 0
3, 81924, Note_on_c, 1, 61, 0
3, 81972, Note_on_c, 1, 50, 60
3, 81972, Note_on_c, 1, 54, 60
3, 81972, Note_on_c, 1, 57, 60
3, 81972, Note_on_c, 1, 61, 60
3, 82308, Note_on_c, 1, 50, 0
3, 82308, Note_on_c, 1, 54, 0
3, 82308, Note_on_c, 1, 57, 0
3, 82308, Note_on_c, 1, 61, 0
3, 82356, Control_c, 1, 64, 0
3, 82356, Control_c, 1, 64, 127
3, 82356, Note_on_c, 1, 52, 60
3, 82356, Note_on_c, 1, 55, 60
3, 82356, Note_on_c, 1, 59, 60
3, 82356, Note_on_c, 1, 62, 60
3, 82692, Note_on_c, 1, 52, 0
3, 82692, Note_on_c, 1, 55, 0
3, 82692, Note_on_c, 1, 59, 0
3, 82692, Note_on_c, 1, 62, 0
3, 82740, Note_on_c, 1, 52, 60
3, 82740, Note_on_c, 1, 55, 60
3, 82740, Note_on_c, 1, 59, 60
3, 82740, Note_on_c, 1, 62, 60
3, 83076, Note_on_c, 1, 52, 0
3, 83076, Note_on_c, 1, 55, 0
3, 83076, Note_on_c, 1, 59, 0
3, 83076, Note_on_c, 1, 62, 0
3, 83124, Control_c, 1, 64, 0
3, 83124, Control_c, 1, 64, 127
3, 83124, Note_on_c, 1, 50, 60
3, 83124, Note_on_c, 1, 54, 60
3, 83124, Note_on_c, 1, 57, 60
3, 83124, Note_on_c, 1, 61, 60
3, 83460, Note_on_c, 1, 50, 0
3, 83460, Note_on_c, 1, 54, 0
3, 83460, Note_on_c, 1, 57, 0
3, 83460, Note_on_c, 1, 61, 0
3, 83508, Note_on_c, 1, 50, 60
3, 83508, Note_on_c, 1, 54, 60
3, 83508, Note_on_c, 1, 57, 60
3, 83508, Note_on_c, 1, 61, 60
3, 83844, Note_on_c, 1, 50, 0
3, 83844, Note_on_c, 1, 54, 0
3, 83844, Note_on_c, 1, 57, 0
3, 83844, Note_on_c, 1, 61, 0
3, 83892, Control_c, 1, 64, 0
3, 83892, Control_c, 1, 64, 127
3, 83892, Note_on_c, 1, 52, 60
3, 83892, Note_on_c, 1, 55, 60
3, 83892, Note_on_c, 1, 59, 60
3, 83892, Note_on_c, 1, 62, 60
3, 84228, Note_on_c, 1, 52, 0
3, 84228, Note_on_c, 1, 55, 0
3, 84228, Note_on_c, 1, 59, 0
3, 84228, Note_on_c, 1, 62, 0
3, 84276, Note_on_c, 1, 40, 60
3, 84370, Note_on_c, 1, 40, 0
3, 84372, Note_on_c, 1, 47, 60
3, 84372, Note_on_c, 1, 52, 60
3, 84372, Note_on_c, 1, 55, 60
3, 84466, Note_on_c, 1, 47, 0
3, 84466, Note_on_c, 1, 52, 0
3, 84466, Note_on_c, 1, 55, 0
3, 84468, Note_on_c, 1, 52, 60
3, 84468, Note_on_c, 1, 55, 60
3, 84468, Note_on_c, 1, 59, 60
3, 84562, Note_on_c, 1, 52, 0
3, 84562, Note_on_c, 1, 55, 0
3, 84562, Note_on_c, 1, 59, 0
3, 84564, Note_on_c, 1, 52, 60
3, 84564, Note_on_c, 1, 55, 60
3, 84564, Note_on_c, 1, 59, 60
3, 84564, Note_on_c, 1, 62, 60
3, 84658, Note_on_c, 1, 52, 0
3, 84658, Note_on_c, 1, 55, 0
3, 84658, Note_on_c, 1, 59, 0
3, 84658, Note_on_c, 1, 62, 0
3, 84660, Control_c, 1, 64, 0
3, 84660, Control_c, 1, 64, 127
3, 84660, Note_on_c, 1, 53, 60
3, 84660, Note_on_c, 1, 57, 60
3, 84660, Note_on_c, 1, 60, 60
3, 84660, Note_on_c, 1, 64, 60
3, 84820, Note_on_c, 1, 53, 0
3, 84820, Note_on_c, 1, 57, 0
3, 84820, Note_on_c, 1, 60, 0
3, 84820, Note_on_c, 1, 64, 0
3, 84852, Note_on_c, 1, 53, 60
3, 84852, Note_on_c, 1, 57, 60
3, 84852, Note_on_c, 1, 60, 60
3, 84852, Note_on_c, 1, 64, 60
3, 85188, Note_on_c, 1, 53, 0
3, 85188, Note_on_c, 1, 57, 0
3, 85188, Note_on_c, 1, 60, 0
3, 85188, Note_on_c, 1, 64, 0
3, 85236, Note_on_c, 1, 53, 60
3, 85236, Note_on_c, 1, 57, 60
3, 85236, Note_on_c, 1, 60, 60
3, 85236, Note_on_c, 1, 64, 60
3, 85396, Note_on_c, 1, 53, 0
3, 85396, Note_on_c, 1, 57, 0
3, 85396, Note_on_c, 1, 60, 0
3, 85396, Note_on_c, 1, 64, 0
3, 85428, Control_c, 1, 64, 0
3, 85428, Control_c, 1, 64, 127
3, 85428, Note_on_c, 1, 55, 60
3, 85428, Note_on_c, 1, 59, 60
3, 85428, Note_on_c, 1, 62, 60
3, 85428, Note_on_c, 1, 65, 60
3, 85764, Note_on_c, 1, 55, 0
3, 85764, Note_on_c, 1, 59, 0
3, 85764, Note_on_c, 1, 62, 0
3, 85764, Note_on_c, 1, 65, 0
3, 85812, Note_on_c, 1, 55, 60
3, 85812, Note_on_c, 1, 59, 60
3, 85812, Note_on_c, 1, 62, 60
3, 85812, Note_on_c, 1, 65, 60
3, 86148, Note_on_c, 1, 55, 0
3, 86148, Note_on_c, 1, 59, 0
3, 86148, Note_on_c, 1, 62, 0
3, 86148, Note_on_c, 1, 65, 0
3, 86196, Control_c, 1, 64, 0
3, 86196, Control_c, 1, 64, 127
3, 86196, Note_on_c, 1, 43, 60
3, 86196, Note_on_c, 1, 46, 60
3, 86196, Note_on_c, 1, 50, 60
3, 86196, Note_on_c, 1, 53, 60
3, 86532, Note_on_c, 1, 43, 0
3, 86532, Note_on_c, 1, 46, 0
3, 86532, Note_on_c, 1, 50, 0
3, 86532, Note_on_c, 1, 53, 0
3, 86580, Note_on_c, 1, 43, 60
3, 86580, Note_on_c, 1, 46, 60
3, 86580, Note_on_c, 1, 50, 60
3, 86580, Note_on_c, 1, 53, 60
3, 86916, Note_on_c, 1, 43, 0
3, 86916, Note_on_c, 1, 46, 0
3, 86916, Note_on_c, 1, 50, 0
3, 86916, Note_on_c, 1, 53, 0
3, 86964, Control_c, 1, 64, 0
3, 86964, Note_on_c, 1, 31, 60
3, 86964, Note_on_c, 1, 43, 60
3, 87300, Note_on_c, 1, 31, 0
3, 87300, Note_on_c, 1, 43, 0
3, 87348, Note_on_c, 1, 31, 60
3, 87348, Note_on_c, 1, 43, 60
3, 87684, Note_on_c, 1, 31, 0
3, 87684, Note_on_c, 1, 43, 0
3, 87732, Note_on_c, 1, 33, 60
3, 87732, Note_on_c, 1, 45, 60
3, 87892, Note_on_c, 1, 33, 0
3, 87892, Note_on_c, 1, 45, 0
3, 87924, Note_on_c, 1, 33, 60
3, 87924, Note_on_c, 1, 45, 60
3, 88084, Note_on_c, 1, 33, 0
3, 88084, Note_on_c, 1, 45, 0
3, 88116, Note_on_c, 1, 33, 60
3, 88116, Note_on_c, 1, 45, 60
3, 88276, Note_on_c, 1, 33, 0
3, 88276, Note_on_c, 1, 45, 0
3, 88308, Note_on_c, 1, 33, 60
3, 88308, Note_on_c, 1, 45, 60
3, 88468, Note_on_c, 1, 33, 0
3, 88468, Note_on_c, 1, 45, 0
3, 88500, Control_c, 1, 64, 0
3, 88500, Note_on_c, 1, 35, 60
3, 88500, Note_on_c, 1, 47, 60
3, 88660, Note_on_c, 1, 35, 0
3, 88660, Note_on_c, 1, 47, 0
3, 88692, Note_on_c, 1, 35, 60
3, 88692, Note_on_c, 1, 47, 60
3, 88852, Note_on_c, 1, 35, 0
3, 88852, Note_on_c, 1, 47, 0
3, 88884, Note_on_c, 1, 35, 60
3, 88884, Note_on_c, 1, 47, 60
3, 89044, Note_on_c, 1, 35, 0
3, 89044, Note_on_c, 1, 47, 0
3, 89076, Note_on_c, 1, 35, 60
3, 89076, Note_on_c, 1, 47, 60
3, 89236, Note_on_c, 1, 35, 0
3, 89236, Note_on_c, 1, 47, 0
3, 89268, Note_on_c, 1, 35, 60
3, 89268, Note_on_c, 1, 47, 60
3, 89428, Note_on_c, 1, 35, 0
3, 89428, Note_on_c, 1, 47, 0
3, 89460, Note_on_c, 1, 35, 60
3, 89460, Note_on_c, 1, 47, 60
3, 89620, Note_on_c, 1, 35, 0
3, 89620, Note_on_c, 1, 47, 0
3, 89652, Note_on_c, 1, 35, 60
3, 89652, Note_on_c, 1, 47, 60
3, 89812, Note_on_c, 1, 35, 0
3, 89812, Note_on_c, 1, 47, 0
3, 89844, Note_on_c, 1, 35, 60
3, 89844, Note_on_c, 1, 47, 60
3, 90004, Note_on_c, 1, 35, 0
3, 90004, Note_on_c, 1, 47, 0
3, 90036, Note_on_c, 1, 35, 60
3, 90036, Note_on_c, 1, 47, 60
3, 90196, Note_on_c, 1, 35, 0
3, 90196, Note_on_c, 1, 47, 0
3, 90228, Note_on_c, 1, 35, 60
3, 90228, Note_on_c, 1, 47, 60
3, 90388, Note_on_c, 1, 35, 0
3, 90388, Note_on_c, 1, 47, 0
3, 90420, Note_on_c, 1, 35, 60
3, 90420, Note_on_c, 1, 47, 60
3, 90580, Note_on_c, 1, 35, 0
3, 90580, Note_on_c, 1, 47, 0
3, 90612, Note_on_c, 1, 35, 60
3, 90612, Note_on_c, 1, 47, 60
3, 90772, Note_on_c, 1, 35, 0
3, 90772, Note_on_c, 1, 47, 0
3, 90804, Note_on_c, 1, 33, 60
3, 90804, Note_on_c, 1, 45, 60
3, 90964, Note_on_c, 1, 33, 0
3, 90964, Note_on_c, 1, 45, 0
3, 90996, Note_on_c, 1, 33, 60
3, 90996, Note_on_c, 1, 45, 60
3, 91156, Note_on_c, 1, 33, 0
3, 91156, Note_on_c, 1, 45, 0
3, 91188, Note_on_c, 1, 33, 60
3, 91188, Note_on_c, 1, 45, 60
3, 91348, Note_on_c, 1, 33, 0
3, 91348, Note_on_c, 1, 45, 0
3, 91380, Note_on_c, 1, 33, 60
3, 91380, Note_on_c, 1, 45, 60
3, 91540, Note_on_c, 1, 33, 0
3, 91540, Note_on_c, 1, 45, 0
3, 91572, Note_on_c, 1, 33, 60
3, 91572, Note_on_c, 1, 45, 60
3, 91732, Note_on_c, 1, 33, 0
3, 91732, Note_on_c, 1, 45, 0
3, 91764, Note_on_c, 1, 33, 60
3, 91764, Note_on_c, 1, 45, 60
3, 91924, Note_on_c, 1, 33, 0
3, 91924, Note_on_c, 1, 45, 0
3, 91956, Note_on_c, 1, 33, 60
3, 91956, Note_on_c, 1, 45, 60
3, 92116, Note_on_c, 1, 33, 0
3, 92116, Note_on_c, 1, 45, 0
3, 92148, Note_on_c, 1, 33, 60
3, 92148, Note_on_c, 1, 45, 60
3, 92308, Note_on_c, 1, 33, 0
3, 92308, Note_on_c, 1, 45, 0
3, 92340, Note_on_c, 1, 33, 60
3, 92340, Note_on_c, 1, 45, 60
3, 92500, Note_on_c, 1, 33, 0
3, 92500, Note_on_c, 1, 45, 0
3, 92532, Note_on_c, 1, 33, 60
3, 92532, Note_on_c, 1, 45, 60
3, 92692, Note_on_c, 1, 33, 0
3, 92692, Note_on_c, 1, 45, 0
3, 92724, Note_on_c, 1, 33, 60
3, 92724, Note_on_c, 1, 45, 60
3, 92884, Note_on_c, 1, 33, 0
3, 92884, Note_on_c, 1, 45, 0
3, 92916, Note_on_c, 1, 33, 60
3, 92916, Note_on_c, 1, 45, 60
3, 93076, Note_on_c, 1, 33, 0
3, 93076, Note_on_c, 1, 45, 0
3, 93108, Note_on_c, 1, 52, 75
3, 93268, Note_on_c, 1, 52, 0
3, 93300, Note_on_c, 1, 52, 75
3, 93460, Note_on_c, 1, 52, 0
3, 93492, Note_on_c, 1, 52, 75
3, 93652, Note_on_c, 1, 52, 0
3, 93684, Note_on_c, 1, 50, 75
3, 93778, Note_on_c, 1, 50, 0
3, 93780, Note_on_c, 1, 52, 75
3, 93874, Note_on_c, 1, 52, 0
3, 93972, Note_on_c, 1, 52, 75
3, 94162, Note_on_c, 1, 52, 0
3, 94164, Note_on_c, 1, 50, 75
3, 94258, Note_on_c, 1, 50, 0
3, 94260, Note_on_c, 1, 52, 75
3, 94420, Note_on_c, 1, 52, 0
3, 94452, Note_on_c, 1, 52, 75
3, 94612, Note_on_c, 1, 52, 0
3, 94644, Note_on_c, 1, 52, 75
3, 94804, Note_on_c, 1, 52, 0
3, 94836, Note_on_c, 1, 50, 75
3, 94930, Note_on_c, 1, 50, 0
3, 94932, Note_on_c, 1, 52, 75
3, 95026, Note_on_c, 1, 52, 0
3, 95124, Note_on_c, 1, 52, 75
3, 95314, Note_on_c, 1, 52, 0
3, 95316, Note_on_c, 1, 50, 75
3, 95410, Note_on_c, 1, 50, 0
3, 95412, Note_on_c, 1, 40, 75
3, 95572, Note_on_c, 1, 40, 0
3, 95604, Note_on_c, 1, 40, 75
3, 95764, Note_on_c, 1, 40, 0
3, 95796, Note_on_c, 1, 40, 75
3, 95956, Note_on_c, 1, 40, 0
3, 95988, Note_on_c, 1, 38, 75
3, 96082, Note_on_c, 1, 38, 0
3, 96084, Note_on_c, 1, 40, 75
3, 96178, Note_on_c, 1, 40, 0
3, 96276, Note_on_c, 1, 40, 75
3, 96466, Note_on_c, 1, 40, 0
3, 96468, Note_on_c, 1, 38, 75
3, 96562, Note_on_c, 1, 38, 0
3, 96564, Note_on_c, 1, 40, 75
3, 96724, Note_on_c, 1, 40, 0
3, 96756, Note_on_c, 1, 40, 75
3, 96916, Note_on_c, 1, 40, 0
3, 96948, Note_on_c, 1, 40, 75
3, 97108, Note_on_c, 1, 40, 0
3, 97140, Note_on_c, 1, 38, 75
3, 97234, Note_on_c, 1, 38, 0
3, 97236, Note_on_c, 1, 40, 75
3, 97330, Note_on_c, 1, 40, 0
3, 97428, Note_on_c, 1, 40, 75
3, 97618, Note_on_c, 1, 40, 0
3, 97620, Note_on_c, 1, 38, 75
3, 97714, Note_on_c, 1, 38, 0
3, 97716, Note_on_c, 1, 40, 92
3, 97876, Note_on_c, 1, 40, 0
3, 97908, Note_on_c, 1, 40, 92
3, 98068, Note_on_c, 1, 40, 0
3, 98100, Note_on_c, 1, 40, 92
3, 98260, Note_on_c, 1, 40, 0
3, 98292, Note_on_c, 1, 38, 92
3, 98386, Note_on_c, 1, 38, 0
3, 98388, Note_on_c, 1, 40, 92
3, 98482, Note_on_c, 1, 40, 0
3, 98580, Note_on_c, 1, 40, 92
3, 98770, Note_on_c, 1, 40, 0
3, 98772, Note_on_c, 1, 38, 92
3, 98866, Note_on_c, 1, 38, 0
3, 98868, Note_on_c, 1, 40, 92
3, 99028, Note_on_c, 1, 40, 0
3, 99060, Note_on_c, 1, 40, 92
3, 99220, Note_on_c, 1, 40, 0
3, 99252, Note_on_c, 1, 40, 92
3, 99412, Note_on_c, 1, 40, 0
3, 99444, Note_on_c, 1, 38, 92
3, 99538, Note_on_c, 1, 38, 0
3, 99540, Note_on_c, 1, 40, 92
3, 99634, Note_on_c, 1, 40, 0
3, 99732, Note_on_c, 1, 40, 92
3, 99922, Note_on_c, 1, 40, 0
3, 99924, Note_on_c, 1, 38, 92
3, 100018, Note_on_c, 1, 38, 0
3, 100020, Note_on_c, 1, 40, 92
3, 100180, Note_on_c, 1, 40, 0
3, 100212, Note_on_c, 1, 40, 92
3, 100372, Note_on_c, 1, 40, 0
3, 100404, Note_on_c, 1, 40, 92
3, 100564, Note_on_c, 1, 40, 0
3, 100596, Note_on_c, 1, 38, 92
3, 100690, Note_on_c, 1, 38, 0
3, 100692, Note_on_c, 1, 40, 92
3, 100786, Note_on_c, 1, 40, 0
3, 100884, Note_on_c, 1, 40, 92
3, 101074, Note_on_c, 1, 40, 0
3, 101076, Note_on_c, 1, 38, 92
3, 101170, Note_on_c, 1, 38, 0
3, 101172, Note_on_c, 1, 38, 92
3, 101332, Note_on_c, 1, 38, 0
3, 101364, Note_on_c, 1, 50, 92
3, 101458, Note_on_c, 1, 50, 0
3, 101460, Note_on_c, 1, 48, 92
3, 101554, Note_on_c, 1, 48, 0
3, 101556, Note_on_c, 1, 45, 92
3, 101650, Note_on_c, 1, 45, 0
3, 101652, Note_on_c, 1, 43, 92
3, 101746, Note_on_c, 1, 43, 0
3, 101748, Note_on_c, 1, 41, 92
3, 101908, Note_on_c, 1, 41, 0
3, 101940, Note_on_c, 1, 38, 92
3, 102034, Note_on_c, 1, 38, 0
3, 102036, Note_on_c, 1, 36, 92
3, 102130, Note_on_c, 1, 36, 0
3, 102132, Note_on_c, 1, 38, 92
3, 102292, Note_on_c, 1, 38, 0
3, 102324, Note_on_c, 1, 38, 92
3, 102484, Note_on_c, 1, 38, 0
3, 102516, Note_on_c, 1, 41, 92
3, 102676, Note_on_c, 1, 41, 0
3, 102708, Note_on_c, 1, 43, 92
3, 102802, Note_on_c, 1, 43, 0
3, 102804, Note_on_c, 1, 45, 92
3, 102898, Note_on_c, 1, 45, 0
3, 102900, Note_on_c, 1, 48, 92
3, 103060, Note_on_c, 1, 48, 0
3, 103092, Note_on_c, 1, 50, 92
3, 103252, Note_on_c, 1, 50, 0
3, 103284, Note_on_c, 1, 48, 92
3, 103378, Note_on_c, 1, 48, 0
3, 103380, Note_on_c, 1, 45, 92
3, 103474, Note_on_c, 1, 45, 0
3, 103476, Note_on_c, 1, 40, 92
3, 103636, Note_on_c, 1, 40, 0
3, 103668, Note_on_c, 1, 40, 92
3, 103828, Note_on_c, 1, 40, 0
3, 103860, Note_on_c, 1, 40, 92
3, 104020, Note_on_c, 1, 40, 0
3, 104052, Note_on_c, 1, 38, 92
3, 104146, Note_on_c, 1, 38, 0
3, 104148, Note_on_c, 1, 40, 92
3, 104242, Note_on_c, 1, 40, 0
3, 104340, Note_on_c, 1, 40, 92
3, 104530, Note_on_c, 1, 40, 0
3, 104532, Note_on_c, 1, 38, 92
3, 104626, Note_on_c, 1, 38, 0
3, 104628, Note_on_c, 1, 40, 92
3, 104788, Note_on_c, 1, 40, 0
3, 104820, Note_on_c, 1, 40, 92
3, 104980, Note_on_c, 1, 40, 0
3, 105012, Note_on_c, 1, 40, 92
3, 105172, Note_on_c, 1, 40, 0
3, 105204, Note_on_c, 1, 38, 92
3, 105298, Note_on_c, 1, 38, 0
3, 105300, Note_on_c, 1, 40, 92
3, 105394, Note_on_c, 1, 40, 0
3, 105492, Note_on_c, 1, 40, 92
3, 105682, Note_on_c, 1, 40, 0
3, 105684, Note_on_c, 1, 38, 92
3, 105778, Note_on_c, 1, 38, 0
3, 105780, Note_on_c, 1, 40, 92
3, 105940, Note_on_c, 1, 40, 0
3, 105972, Note_on_c, 1, 40, 92
3, 106132, Note_on_c, 1, 40, 0
3, 106164, Note_on_c, 1, 40, 92
3, 106324, Note_on_c, 1, 40, 0
3, 106356, Note_on_c, 1, 38, 92
3, 106450, Note_on_c, 1, 38, 0
3, 106452, Note_on_c, 1, 40, 92
3, 106546, Note_on_c, 1, 40, 0
3, 106644, Note_on_c, 1, 40, 92
3, 106834, Note_on_c, 1, 40, 0
3, 106836, Note_on_c, 1, 38, 92
3, 106930, Note_on_c, 1, 38, 0
3, 106932, Note_on_c, 1, 38, 92
3, 107092, Note_on_c, 1, 38, 0
3, 107124, Note_on_c, 1, 50, 92
3, 107218, Note_on_c, 1, 50, 0
3, 107220, Note_on_c, 1, 48, 92
3, 107314, Note_on_c, 1, 48, 0
3, 107316, Note_on_c, 1, 45, 92
3, 107410, Note_on_c, 1, 45, 0
3, 107412, Note_on_c, 1, 43, 92
3, 107506, Note_on_c, 1, 43, 0
3, 107508, Note_on_c, 1, 41, 92
3, 107668, Note_on_c, 1, 41, 0
3, 107700, Note_on_c, 1, 38, 92
3, 107794, Note_on_c, 1, 38, 0
3, 107796, Note_on_c, 1, 36, 92
3, 107890, Note_on_c, 1, 36, 0
3, 107892, Note_on_c, 1, 38, 92
3, 108052, Note_on_c, 1, 38, 0
3, 108084, Note_on_c, 1, 38, 92
3, 108244, Note_on_c, 1, 38, 0
3, 108276, Note_on_c, 1, 41, 92
3, 108436, Note_on_c, 1, 41, 0
3, 108468, Note_on_c, 1, 43, 92
3, 108562, Note_on_c, 1, 43, 0
3, 108564, Note_on_c, 1, 45, 92
3, 108658, Note_on_c, 1, 45, 0
3, 108660, Note_on_c, 1, 48, 92
3, 108820, Note_on_c, 1, 48, 0
3, 108852, Note_on_c, 1, 50, 92
3, 109012, Note_on_c, 1, 50, 0
3, 109044, Note_on_c, 1, 48, 92
3, 109138, Note_on_c, 1, 48, 0
3, 109140, Note_on_c, 1, 45, 92
3, 109234, Note_on_c, 1, 45, 0
3, 109236, Note_on_c, 1, 45, 92
3, 109330, Note_on_c, 1, 45, 0
3, 109332, Note_on_c, 1, 37, 92
3, 109426, Note_on_c, 1, 37, 0
3, 109428, Note_on_c, 1, 37, 92
3, 109522, Note_on_c, 1, 37, 0
3, 109524, Note_on_c, 1, 38, 127
3, 109618, Note_on_c, 1, 38, 0
3, 109620, Note_on_c, 1, 38, 92
3, 109714, Note_on_c, 1, 38, 0
3, 109716, Note_on_c, 1, 38, 92
3, 109810, Note_on_c, 1, 38, 0
3, 109812, Note_on_c, 1, 40, 127
3, 109860, Note_on_c, 1, 40, 0
3, 110004, Note_on_c, 1, 40, 127
3, 110052, Note_on_c, 1, 40, 0
3, 110388, Note_on_c, 1, 45, 92
3, 110482, Note_on_c, 1, 45, 0
3, 110484, Note_on_c, 1, 37, 92
3, 110578, Note_on_c, 1, 37, 0
3, 110580, Note_on_c, 1, 37, 92
3, 110674, Note_on_c, 1, 37, 0
3, 110676, Note_on_c, 1, 38, 127
3, 110770, Note_on_c, 1, 38, 0
3, 110772, Note_on_c, 1, 38, 92
3, 110866, Note_on_c, 1, 38, 0
3, 110868, Note_on_c, 1, 38, 92
3, 110962, Note_on_c, 1, 38, 0
3, 110964, Note_on_c, 1, 40, 127
3, 111012, Note_on_c, 1, 40, 0
3, 111156, Note_on_c, 1, 40, 127
3, 111204, Note_on_c, 1, 40, 0
3, 111540, Note_on_c, 1, 45, 92
3, 111634, Note_on_c, 1, 45, 0
3, 111636, Note_on_c, 1, 37, 92
3, 111730, Note_on_c, 1, 37, 0
3, 111732, Note_on_c, 1, 37, 92
3, 111826, Note_on_c, 1, 37, 0
3, 111828, Note_on_c, 1, 38, 127
3, 111922, Note_on_c, 1, 38, 0
3, 111924, Note_on_c, 1, 38, 92
3, 112018, Note_on_c, 1, 38, 0
3, 112020, Note_on_c, 1, 38, 92
3, 112114, Note_on_c, 1, 38, 0
3, 112116, Note_on_c, 1, 40, 92
3, 112150, Note_on_c, 1, 40, 0
3, 112152, Note_on_c, 1, 43, 92
3, 112186, Note_on_c, 1, 43, 0
3, 112188, Note_on_c, 1, 47, 92
3, 112222, Note_on_c, 1, 47, 0
3, 112224, Note_on_c, 1, 52, 92
3, 112246, Note_on_c, 1, 52, 0
3, 112248, Note_on_c, 1, 55, 92
3, 112270, Note_on_c, 1, 55, 0
3, 112272, Note_on_c, 1, 59, 92
3, 112294, Note_on_c, 1, 59, 0
3, 112296, Note_on_c, 1, 64, 92
3, 112306, Note_on_c, 1, 64, 0
3, 112308, Note_on_c, 1, 52, 92
3, 112342, Note_on_c, 1, 52, 0
3, 112344, Note_on_c, 1, 55, 92
3, 112378, Note_on_c, 1, 55, 0
3, 112380, Note_on_c, 1, 59, 92
3, 112414, Note_on_c, 1, 59, 0
3, 112416, Note_on_c, 1, 64, 92
3, 112438, Note_on_c, 1, 64, 0
3, 112440, Note_on_c, 1, 67, 92
3, 112462, Note_on_c, 1, 67, 0
3, 112464, Note_on_c, 1, 71, 92
3, 112486, Note_on_c, 1, 71, 0
3, 112488, Note_on_c, 1, 76, 92
3, 112498, Note_on_c, 1, 76, 0
3, 112884, Note_on_c, 1, 47, 92
3, 112884, Note_on_c, 1, 51, 92
3, 112884, Note_on_c, 1, 54, 92
3, 112884, Note_on_c, 1, 59, 92
3, 113044, Note_on_c, 1, 47, 0
3, 113044, Note_on_c, 1, 51, 0
3, 113044, Note_on_c, 1, 54, 0
3, 113044, Note_on_c, 1, 59, 0
3, 113076, Note_on_c, 1, 45, 92
3, 113076, Note_on_c, 1, 48, 92
3, 113076, Note_on_c, 1, 51, 92
3, 113076, Note_on_c, 1, 54, 92
3, 113076, Note_on_c, 1, 57, 92
3, 113604, Note_on_c, 1, 45, 0
3, 113604, Note_on_c, 1, 48, 0
3, 113604, Note_on_c, 1, 51, 0
3, 113604, Note_on_c, 1, 54, 0
3, 113604, Note_on_c, 1, 57, 0
3, 113652, Note_on_c, 1, 40, 92
3, 113664, Note_on_c, 1, 40, 0
3, 113664, Note_on_c, 1, 52, 92
3, 113676, Note_on_c, 1, 52, 0
3, 113676, Note_on_c, 1, 40, 92
3, 113688, Note_on_c, 1, 40, 0
3, 113688, Note_on_c, 1, 52, 92
3, 113700, Note_on_c, 1, 52, 0
3, 113700, Note_on_c, 1, 40, 92
3, 113712, Note_on_c, 1, 40, 0
3, 113712, Note_on_c, 1, 52, 92
3, 113724, Note_on_c, 1, 52, 0
3, 113724, Note_on_c, 1, 40, 92
3, 113736, Note_on_c, 1, 40, 0
3, 113736, Note_on_c, 1, 52, 92
3, 113748, Note_on_c, 1, 52, 0
3, 113748, Note_on_c, 1, 40, 92
3, 113760, Note_on_c, 1, 40, 0
3, 113760, Note_on_c, 1, 52, 92
3, 113772, Note_on_c, 1, 52, 0
3, 113772, Note_on_c, 1, 40, 92
3, 113784, Note_on_c, 1, 40, 0
3, 113784, Note_on_c, 1, 52, 92
3, 113796, Note_on_c, 1, 52, 0
3, 113796, Note_on_c, 1, 40, 92
3, 113808, Note_on_c, 1, 40, 0
3, 113808, Note_on_c, 1, 52, 92
3, 113820, Note_on_c, 1, 52, 0
3, 113820, Note_on_c, 1, 40, 92
3, 113832, Note_on_c, 1, 40, 0
3, 113832, Note_on_c, 1, 52, 92
3, 113844, Note_on_c, 1, 52, 0
3, 113844, Note_on_c, 1, 40, 92
3, 113856, Note_on_c, 1, 40, 0
3, 113856, Note_on_c, 1, 52, 92
3, 113868, Note_on_c, 1, 52, 0
3, 113868, Note_on_c, 1, 40, 92
3, 113880, Note_on_c, 1, 40, 0
3, 113880, Note_on_c, 1, 52, 92
3, 113892, Note_on_c, 1, 52, 0
3, 113892, Note_on_c, 1, 40, 92
3, 113904, Note_on_c, 1, 40, 0
3, 113904, Note_on_c, 1, 52, 92
3, 113916, Note_on_c, 1, 52, 0
3, 113916, Note_on_c, 1, 40, 92
3, 113928, Note_on_c, 1, 40, 0
3, 113928, Note_on_c, 1, 52, 92
3, 113940, Note_on_c, 1, 52, 0
3, 113940, Note_on_c, 1, 40, 92
3, 113952, Note_on_c, 1, 40, 0
3, 113952, Note_on_c, 1, 52, 92
3, 113964, Note_on_c, 1, 52, 0
3, 113964, Note_on_c, 1, 40, 92
3, 113976, Note_on_c, 1, 40, 0
3, 113976, Note_on_c, 1, 52, 92
3, 113988, Note_on_c, 1, 52, 0
3, 113988, Note_on_c, 1, 40, 92
3, 114000, Note_on_c, 1, 40, 0
3, 114000, Note_on_c, 1, 52, 92
3, 114012, Note_on_c, 1, 52, 0
3, 114012, Note_on_c, 1, 40, 92
3, 114024, Note_on_c, 1, 40, 0
3, 114024, Note_on_c, 1, 52, 92
3, 114036, Note_on_c, 1, 52, 0
3, 114036, Note_on_c, 1, 40, 92
3, 114048, Note_on_c, 1, 40, 0
3, 114048, Note_on_c, 1, 52, 92
3, 114060, Note_on_c, 1, 52, 0
3, 114060, Note_on_c, 1, 40, 92
3, 114072, Note_on_c, 1, 40, 0
3, 114072, Note_on_c, 1, 52, 92
3, 114084, Note_on_c, 1, 52, 0
3, 114084, Note_on_c, 1, 40, 92
3, 114096, Note_on_c, 1, 40, 0
3, 114096, Note_on_c, 1, 52, 92
3, 114108, Note_on_c, 1, 52, 0
3, 114108, Note_on_c, 1, 40, 92
3, 114120, Note_on_c, 1, 40, 0
3, 114120, Note_on_c, 1, 52, 92
3, 114132, Note_on_c, 1, 52, 0
3, 114132, Note_on_c, 1, 40, 92
3, 114144, Note_on_c, 1, 40, 0
3, 114144, Note_on_c, 1, 52, 92
3, 114156, Note_on_c, 1, 52, 0
3, 114156, Note_on_c, 1, 40, 92
3, 114168, Note_on_c, 1, 40, 0
3, 114168, Note_on_c, 1, 52, 92
3, 114180, Note_on_c, 1, 52, 0
3, 114180, Note_on_c, 1, 40, 92
3, 114192, Note_on_c, 1, 40, 0
3, 114192, Note_on_c, 1, 52, 92
3, 114204, Note_on_c, 1, 52, 0
3, 114204, Note_on_c, 1, 40, 92
3, 114216, Note_on_c, 1, 40, 0
3, 114216, Note_on_c, 1, 52, 92
3, 114228, Note_on_c, 1, 52, 0
3, 114228, Note_on_c, 1, 40, 92
3, 114240, Note_on_c, 1, 40, 0
3, 114240, Note_on_c, 1, 52, 92
3, 114252, Note_on_c, 1, 52, 0
3, 114252, Note_on_c, 1, 40, 92
3, 114264, Note_on_c, 1, 40, 0
3, 114264, Note_on_c, 1, 52, 92
3, 114276, Note_on_c, 1, 52, 0
3, 114276, Note_on_c, 1, 40, 92
3, 114288, Note_on_c, 1, 40, 0
3, 114288, Note_on_c, 1, 52, 92
3, 114300, Note_on_c, 1, 52, 0
3, 114300, Note_on_c, 1, 40, 92
3, 114312, Note_on_c, 1, 40, 0
3, 114312, Note_on_c, 1, 52, 92
3, 114324, Note_on_c, 1, 52, 0
3, 114324, Note_on_c, 1, 40, 92
3, 114336, Note_on_c, 1, 40, 0
3, 114336, Note_on_c, 1, 52, 92
3, 114348, Note_on_c, 1, 52, 0
3, 114348, Note_on_c, 1, 40, 92
3, 114360, Note_on_c, 1, 40, 0
3, 114360, Note_on_c, 1, 52, 92
3, 114372, Note_on_c, 1, 52, 0
3, 114372, Note_on_c, 1, 40, 92
3, 114384, Note_on_c, 1, 40, 0
3, 114384, Note_on_c, 1, 52, 92
3, 114396, Note_on_c, 1, 52, 0
3, 114396, Note_on_c, 1, 40, 92
3, 114408, Note_on_c, 1, 40, 0
3, 114408, Note_on_c, 1, 52, 92
3, 114418, Note_on_c, 1, 52, 0
3, 114420, Note_on_c, 1, 40, 127
3, 114420, Note_on_c, 1, 52, 127
3, 114514, Note_on_c, 1, 40, 0
3, 114514, Note_on_c, 1, 52, 0
3, 114514, End_track
0, 0, End_of_file
