0, 0, Header, 0, 1, 96
1, 0, Start_track
1, 0, Title_t, "Kabare"
1, 0, Copyright_t, "Copyright © 2000 by Dencho Dulgerov"
1, 0, Text_t, "http://www.geocities.com/horndouble/index.html\012"
1, 0, Time_signature, 4, 2, 24, 8
1, 0, Key_signature, 0, "major"
1, 0, Tempo, 405405
1, 0, Control_c, 1, 0, 0
1, 0, Program_c, 1, 57
1, 0, Control_c, 1, 7, 120
1, 0, Control_c, 1, 10, 94
1, 0, Control_c, 2, 0, 0
1, 0, Program_c, 2, 56
1, 0, Control_c, 2, 7, 127
1, 0, Control_c, 2, 10, 64
1, 0, Control_c, 3, 0, 0
1, 0, Program_c, 3, 65
1, 0, Control_c, 3, 7, 100
1, 0, Control_c, 3, 10, 64
1, 0, Control_c, 4, 0, 0
1, 0, Program_c, 4, 71
1, 0, Control_c, 4, 7, 120
1, 0, Control_c, 4, 10, 34
1, 0, Control_c, 5, 0, 0
1, 0, Program_c, 5, 0
1, 0, Control_c, 5, 7, 120
1, 0, Control_c, 5, 10, 64
1, 0, Control_c, 6, 0, 0
1, 0, Program_c, 6, 32
1, 0, Control_c, 6, 7, 110
1, 0, Control_c, 6, 10, 64
1, 0, Control_c, 9, 0, 0
1, 0, Program_c, 9, 40
1, 0, Control_c, 9, 7, 110
1, 0, Control_c, 9, 10, 64
1, 48, Control_c, 1, 121, 0
1, 48, Control_c, 2, 121, 0
1, 48, Control_c, 3, 121, 0
1, 48, Control_c, 4, 121, 0
1, 48, Control_c, 5, 121, 0
1, 48, Control_c, 6, 121, 0
1, 48, Control_c, 9, 121, 0
1, 96, Control_c, 1, 91, 100
1, 96, Control_c, 2, 91, 100
1, 96, Control_c, 3, 91, 100
1, 96, Control_c, 4, 91, 100
1, 96, Control_c, 5, 91, 100
1, 96, Control_c, 6, 91, 0
1, 96, Control_c, 9, 91, 30
1, 120, Control_c, 1, 93, 0
1, 120, Control_c, 2, 93, 0
1, 120, Control_c, 3, 93, 40
1, 120, Control_c, 4, 93, 0
1, 120, Control_c, 5, 93, 0
1, 120, Control_c, 6, 93, 0
1, 120, Control_c, 9, 93, 0
1, 144, Control_c, 1, 11, 127
1, 144, Control_c, 2, 11, 127
1, 144, Control_c, 3, 11, 127
1, 144, Control_c, 4, 11, 127
1, 144, Control_c, 5, 11, 127
1, 144, Control_c, 6, 11, 127
1, 144, Control_c, 9, 11, 127
1, 168, Control_c, 1, 10, 94
1, 168, Control_c, 4, 10, 34
1, 384, Marker_t, "http://www.geocities.com/horndouble/index.html"
1, 384, Note_on_c, 5, 67, 90
1, 384, Note_on_c, 5, 69, 90
1, 384, Note_on_c, 5, 60, 90
1, 384, Note_on_c, 5, 64, 90
1, 384, Note_on_c, 6, 36, 100
1, 384, Note_on_c, 9, 46, 89
1, 384, Note_on_c, 9, 36, 112
1, 389, Note_on_c, 9, 36, 0
1, 389, Note_on_c, 9, 46, 0
1, 456, Note_on_c, 6, 36, 0
1, 480, Note_on_c, 1, 57, 110
1, 480, Note_on_c, 6, 40, 100
1, 480, Note_on_c, 9, 42, 107
1, 480, Note_on_c, 9, 39, 107
1, 485, Note_on_c, 9, 39, 0
1, 485, Note_on_c, 9, 42, 0
1, 526, Note_on_c, 1, 57, 0
1, 528, Note_on_c, 1, 60, 110
1, 544, Note_on_c, 9, 42, 100
1, 549, Note_on_c, 9, 42, 0
1, 560, Note_on_c, 6, 40, 0
1, 574, Note_on_c, 1, 60, 0
1, 576, Note_on_c, 1, 64, 110
1, 576, Note_on_c, 6, 43, 100
1, 576, Note_on_c, 9, 46, 81
1, 576, Note_on_c, 9, 36, 102
1, 581, Note_on_c, 9, 36, 0
1, 581, Note_on_c, 9, 46, 0
1, 606, Note_on_c, 5, 69, 0
1, 606, Note_on_c, 5, 60, 0
1, 606, Note_on_c, 5, 67, 0
1, 606, Note_on_c, 5, 64, 0
1, 638, Note_on_c, 1, 64, 0
1, 640, Note_on_c, 1, 60, 110
1, 640, Note_on_c, 5, 67, 90
1, 640, Note_on_c, 5, 64, 90
1, 640, Note_on_c, 5, 60, 90
1, 640, Note_on_c, 5, 69, 90
1, 660, Note_on_c, 6, 43, 0
1, 672, Note_on_c, 4, 72, 100
1, 672, Note_on_c, 6, 40, 100
1, 672, Note_on_c, 9, 42, 112
1, 672, Note_on_c, 9, 39, 112
1, 677, Note_on_c, 9, 39, 0
1, 677, Note_on_c, 9, 42, 0
1, 702, Note_on_c, 1, 60, 0
1, 704, Note_on_c, 1, 57, 110
1, 718, Note_on_c, 4, 72, 0
1, 720, Note_on_c, 4, 69, 100
1, 734, Note_on_c, 5, 64, 0
1, 734, Note_on_c, 5, 67, 0
1, 734, Note_on_c, 5, 60, 0
1, 734, Note_on_c, 5, 69, 0
1, 736, Note_on_c, 9, 42, 84
1, 741, Note_on_c, 9, 42, 0
1, 752, Note_on_c, 6, 40, 0
1, 766, Note_on_c, 4, 69, 0
1, 766, Note_on_c, 1, 57, 0
1, 768, Note_on_c, 1, 63, 110
1, 768, Note_on_c, 4, 72, 100
1, 768, Note_on_c, 5, 63, 90
1, 768, Note_on_c, 5, 66, 90
1, 768, Note_on_c, 5, 69, 90
1, 768, Note_on_c, 5, 60, 90
1, 768, Note_on_c, 6, 36, 100
1, 768, Note_on_c, 9, 46, 90
1, 768, Note_on_c, 9, 36, 113
1, 773, Note_on_c, 9, 36, 0
1, 773, Note_on_c, 9, 46, 0
1, 798, Note_on_c, 5, 66, 0
1, 798, Note_on_c, 5, 60, 0
1, 798, Note_on_c, 5, 63, 0
1, 798, Note_on_c, 5, 69, 0
1, 832, Note_on_c, 5, 69, 90
1, 832, Note_on_c, 5, 66, 90
1, 832, Note_on_c, 5, 60, 90
1, 832, Note_on_c, 5, 63, 90
1, 848, Note_on_c, 6, 36, 0
1, 862, Note_on_c, 5, 60, 0
1, 862, Note_on_c, 5, 66, 0
1, 862, Note_on_c, 5, 69, 0
1, 862, Note_on_c, 5, 63, 0
1, 864, Note_on_c, 6, 39, 100
1, 864, Note_on_c, 9, 42, 106
1, 864, Note_on_c, 9, 39, 106
1, 869, Note_on_c, 9, 39, 0
1, 869, Note_on_c, 9, 42, 0
1, 910, Note_on_c, 1, 63, 0
1, 928, Note_on_c, 5, 60, 90
1, 928, Note_on_c, 5, 69, 90
1, 928, Note_on_c, 5, 66, 90
1, 928, Note_on_c, 5, 63, 90
1, 928, Note_on_c, 9, 42, 101
1, 933, Note_on_c, 9, 42, 0
1, 944, Note_on_c, 6, 39, 0
1, 958, Note_on_c, 4, 72, 0
1, 960, Note_on_c, 1, 57, 110
1, 960, Note_on_c, 4, 72, 100
1, 960, Note_on_c, 6, 42, 100
1, 960, Note_on_c, 9, 46, 84
1, 960, Note_on_c, 9, 36, 106
1, 965, Note_on_c, 9, 36, 0
1, 965, Note_on_c, 9, 46, 0
1, 1006, Note_on_c, 4, 72, 0
1, 1008, Note_on_c, 4, 75, 100
1, 1022, Note_on_c, 1, 57, 0
1, 1024, Note_on_c, 1, 59, 110
1, 1040, Note_on_c, 6, 42, 0
1, 1054, Note_on_c, 4, 75, 0
1, 1056, Note_on_c, 4, 81, 100
1, 1056, Note_on_c, 6, 39, 100
1, 1056, Note_on_c, 9, 42, 103
1, 1056, Note_on_c, 9, 39, 103
1, 1061, Note_on_c, 9, 39, 0
1, 1061, Note_on_c, 9, 42, 0
1, 1086, Note_on_c, 1, 59, 0
1, 1088, Note_on_c, 1, 60, 110
1, 1102, Note_on_c, 4, 81, 0
1, 1104, Note_on_c, 4, 78, 100
1, 1118, Note_on_c, 5, 66, 0
1, 1118, Note_on_c, 5, 69, 0
1, 1118, Note_on_c, 5, 60, 0
1, 1118, Note_on_c, 5, 63, 0
1, 1120, Note_on_c, 9, 42, 89
1, 1125, Note_on_c, 9, 42, 0
1, 1136, Note_on_c, 6, 39, 0
1, 1150, Note_on_c, 4, 78, 0
1, 1150, Note_on_c, 1, 60, 0
1, 1152, Note_on_c, 1, 64, 110
1, 1152, Note_on_c, 4, 79, 100
1, 1152, Note_on_c, 6, 40, 100
1, 1152, Note_on_c, 9, 46, 89
1, 1152, Note_on_c, 9, 36, 112
1, 1157, Note_on_c, 9, 36, 0
1, 1157, Note_on_c, 9, 46, 0
1, 1216, Note_on_c, 5, 71, 90
1, 1216, Note_on_c, 5, 67, 90
1, 1216, Note_on_c, 5, 64, 90
1, 1216, Note_on_c, 5, 62, 90
1, 1232, Note_on_c, 6, 40, 0
1, 1248, Note_on_c, 6, 47, 100
1, 1248, Note_on_c, 9, 42, 107
1, 1248, Note_on_c, 9, 39, 107
1, 1253, Note_on_c, 9, 39, 0
1, 1253, Note_on_c, 9, 42, 0
1, 1294, Note_on_c, 4, 79, 0
1, 1296, Note_on_c, 4, 80, 100
1, 1310, Note_on_c, 5, 67, 0
1, 1310, Note_on_c, 5, 71, 0
1, 1310, Note_on_c, 5, 64, 0
1, 1310, Note_on_c, 5, 62, 0
1, 1312, Note_on_c, 9, 42, 100
1, 1317, Note_on_c, 9, 42, 0
1, 1328, Note_on_c, 6, 47, 0
1, 1342, Note_on_c, 4, 80, 0
1, 1342, Note_on_c, 1, 64, 0
1, 1344, Note_on_c, 1, 59, 110
1, 1344, Note_on_c, 4, 81, 100
1, 1344, Note_on_c, 5, 64, 90
1, 1344, Note_on_c, 5, 67, 90
1, 1344, Note_on_c, 5, 62, 90
1, 1344, Note_on_c, 6, 43, 100
1, 1344, Note_on_c, 9, 46, 81
1, 1344, Note_on_c, 9, 36, 102
1, 1349, Note_on_c, 9, 36, 0
1, 1349, Note_on_c, 9, 46, 0
1, 1390, Note_on_c, 4, 81, 0
1, 1392, Note_on_c, 4, 79, 100
1, 1406, Note_on_c, 5, 62, 0
1, 1406, Note_on_c, 5, 67, 0
1, 1406, Note_on_c, 5, 64, 0
1, 1424, Note_on_c, 6, 43, 0
1, 1438, Note_on_c, 4, 79, 0
1, 1440, Note_on_c, 4, 76, 100
1, 1440, Note_on_c, 5, 67, 90
1, 1440, Note_on_c, 5, 64, 90
1, 1440, Note_on_c, 5, 71, 90
1, 1440, Note_on_c, 5, 62, 90
1, 1440, Note_on_c, 6, 40, 100
1, 1440, Note_on_c, 9, 42, 112
1, 1440, Note_on_c, 9, 39, 112
1, 1445, Note_on_c, 9, 39, 0
1, 1445, Note_on_c, 9, 42, 0
1, 1470, Note_on_c, 5, 64, 0
1, 1470, Note_on_c, 5, 62, 0
1, 1470, Note_on_c, 5, 67, 0
1, 1470, Note_on_c, 5, 71, 0
1, 1486, Note_on_c, 4, 76, 0
1, 1488, Note_on_c, 4, 74, 100
1, 1504, Note_on_c, 5, 64, 90
1, 1504, Note_on_c, 5, 67, 90
1, 1504, Note_on_c, 5, 69, 90
1, 1504, Note_on_c, 5, 61, 90
1, 1504, Note_on_c, 9, 42, 84
1, 1509, Note_on_c, 9, 42, 0
1, 1520, Note_on_c, 6, 40, 0
1, 1534, Note_on_c, 1, 59, 0
1, 1534, Note_on_c, 4, 74, 0
1, 1536, Note_on_c, 1, 57, 110
1, 1536, Note_on_c, 4, 73, 100
1, 1536, Note_on_c, 6, 45, 100
1, 1536, Note_on_c, 9, 46, 90
1, 1536, Note_on_c, 9, 36, 113
1, 1541, Note_on_c, 9, 36, 0
1, 1541, Note_on_c, 9, 46, 0
1, 1598, Note_on_c, 4, 73, 0
1, 1600, Note_on_c, 4, 81, 100
1, 1616, Note_on_c, 6, 45, 0
1, 1632, Note_on_c, 6, 43, 100
1, 1632, Note_on_c, 9, 42, 106
1, 1632, Note_on_c, 9, 39, 106
1, 1637, Note_on_c, 9, 39, 0
1, 1637, Note_on_c, 9, 42, 0
1, 1678, Note_on_c, 4, 81, 0
1, 1680, Note_on_c, 4, 76, 100
1, 1694, Note_on_c, 5, 61, 0
1, 1694, Note_on_c, 5, 64, 0
1, 1694, Note_on_c, 5, 69, 0
1, 1694, Note_on_c, 5, 67, 0
1, 1696, Note_on_c, 9, 42, 101
1, 1701, Note_on_c, 9, 42, 0
1, 1712, Note_on_c, 6, 43, 0
1, 1726, Note_on_c, 4, 76, 0
1, 1728, Note_on_c, 4, 79, 100
1, 1728, Note_on_c, 6, 41, 100
1, 1728, Note_on_c, 9, 46, 84
1, 1728, Note_on_c, 9, 36, 106
1, 1733, Note_on_c, 9, 36, 0
1, 1733, Note_on_c, 9, 46, 0
1, 1790, Note_on_c, 4, 79, 0
1, 1792, Note_on_c, 4, 81, 100
1, 1792, Note_on_c, 5, 67, 90
1, 1792, Note_on_c, 5, 64, 90
1, 1792, Note_on_c, 5, 61, 90
1, 1792, Note_on_c, 5, 69, 90
1, 1808, Note_on_c, 6, 41, 0
1, 1824, Note_on_c, 6, 40, 100
1, 1824, Note_on_c, 9, 42, 103
1, 1824, Note_on_c, 9, 39, 103
1, 1829, Note_on_c, 9, 39, 0
1, 1829, Note_on_c, 9, 42, 0
1, 1854, Note_on_c, 4, 81, 0
1, 1856, Note_on_c, 4, 77, 100
1, 1870, Note_on_c, 1, 57, 0
1, 1886, Note_on_c, 5, 69, 0
1, 1886, Note_on_c, 5, 61, 0
1, 1886, Note_on_c, 5, 64, 0
1, 1886, Note_on_c, 5, 67, 0
1, 1886, Note_on_c, 4, 77, 0
1, 1888, Note_on_c, 4, 76, 100
1, 1888, Note_on_c, 9, 42, 89
1, 1893, Note_on_c, 9, 42, 0
1, 1904, Note_on_c, 6, 40, 0
1, 1918, Note_on_c, 4, 76, 0
1, 1920, Note_on_c, 4, 74, 100
1, 1920, Note_on_c, 6, 38, 100
1, 1920, Note_on_c, 9, 46, 89
1, 1920, Note_on_c, 9, 36, 112
1, 1925, Note_on_c, 9, 36, 0
1, 1925, Note_on_c, 9, 46, 0
1, 1984, Note_on_c, 5, 62, 90
1, 1984, Note_on_c, 5, 65, 90
1, 1984, Note_on_c, 5, 69, 90
1, 1984, Note_on_c, 5, 60, 90
1, 2000, Note_on_c, 6, 38, 0
1, 2014, Note_on_c, 4, 74, 0
1, 2016, Note_on_c, 1, 64, 110
1, 2016, Note_on_c, 6, 40, 100
1, 2016, Note_on_c, 9, 42, 107
1, 2016, Note_on_c, 9, 39, 107
1, 2021, Note_on_c, 9, 39, 0
1, 2021, Note_on_c, 9, 42, 0
1, 2062, Note_on_c, 1, 64, 0
1, 2064, Note_on_c, 1, 65, 110
1, 2080, Note_on_c, 9, 42, 100
1, 2085, Note_on_c, 9, 42, 0
1, 2096, Note_on_c, 6, 40, 0
1, 2110, Note_on_c, 1, 65, 0
1, 2112, Note_on_c, 1, 64, 110
1, 2112, Note_on_c, 6, 41, 100
1, 2112, Note_on_c, 9, 46, 81
1, 2112, Note_on_c, 9, 36, 102
1, 2117, Note_on_c, 9, 36, 0
1, 2117, Note_on_c, 9, 46, 0
1, 2158, Note_on_c, 1, 64, 0
1, 2160, Note_on_c, 1, 60, 110
1, 2174, Note_on_c, 5, 69, 0
1, 2174, Note_on_c, 5, 62, 0
1, 2174, Note_on_c, 5, 65, 0
1, 2174, Note_on_c, 5, 60, 0
1, 2176, Note_on_c, 5, 62, 90
1, 2176, Note_on_c, 5, 65, 90
1, 2176, Note_on_c, 5, 60, 90
1, 2192, Note_on_c, 6, 41, 0
1, 2206, Note_on_c, 1, 60, 0
1, 2208, Note_on_c, 1, 57, 110
1, 2208, Note_on_c, 6, 45, 100
1, 2208, Note_on_c, 9, 42, 112
1, 2208, Note_on_c, 9, 39, 112
1, 2213, Note_on_c, 9, 39, 0
1, 2213, Note_on_c, 9, 42, 0
1, 2254, Note_on_c, 1, 57, 0
1, 2256, Note_on_c, 1, 60, 110
1, 2270, Note_on_c, 5, 65, 0
1, 2270, Note_on_c, 5, 60, 0
1, 2270, Note_on_c, 5, 62, 0
1, 2272, Note_on_c, 9, 42, 84
1, 2277, Note_on_c, 9, 42, 0
1, 2288, Note_on_c, 6, 45, 0
1, 2302, Note_on_c, 1, 60, 0
1, 2304, Note_on_c, 1, 64, 110
1, 2304, Note_on_c, 5, 62, 90
1, 2304, Note_on_c, 5, 65, 90
1, 2304, Note_on_c, 5, 60, 90
1, 2304, Note_on_c, 5, 69, 90
1, 2304, Note_on_c, 6, 38, 100
1, 2304, Note_on_c, 9, 46, 90
1, 2304, Note_on_c, 9, 36, 113
1, 2309, Note_on_c, 9, 36, 0
1, 2309, Note_on_c, 9, 46, 0
1, 2334, Note_on_c, 5, 62, 0
1, 2334, Note_on_c, 5, 65, 0
1, 2334, Note_on_c, 5, 60, 0
1, 2350, Note_on_c, 1, 64, 0
1, 2368, Note_on_c, 5, 65, 90
1, 2368, Note_on_c, 5, 60, 90
1, 2368, Note_on_c, 5, 62, 90
1, 2384, Note_on_c, 6, 38, 0
1, 2398, Note_on_c, 5, 60, 0
1, 2398, Note_on_c, 5, 69, 0
1, 2398, Note_on_c, 5, 65, 0
1, 2398, Note_on_c, 5, 62, 0
1, 2400, Note_on_c, 1, 64, 110
1, 2400, Note_on_c, 6, 33, 100
1, 2400, Note_on_c, 9, 42, 106
1, 2400, Note_on_c, 9, 39, 106
1, 2405, Note_on_c, 9, 39, 0
1, 2405, Note_on_c, 9, 42, 0
1, 2446, Note_on_c, 1, 64, 0
1, 2464, Note_on_c, 5, 65, 90
1, 2464, Note_on_c, 5, 69, 90
1, 2464, Note_on_c, 5, 62, 90
1, 2464, Note_on_c, 5, 60, 90
1, 2464, Note_on_c, 9, 42, 101
1, 2469, Note_on_c, 9, 42, 0
1, 2480, Note_on_c, 6, 33, 0
1, 2496, Note_on_c, 1, 60, 110
1, 2496, Note_on_c, 4, 69, 100
1, 2496, Note_on_c, 6, 38, 100
1, 2496, Note_on_c, 9, 46, 84
1, 2496, Note_on_c, 9, 36, 106
1, 2501, Note_on_c, 9, 36, 0
1, 2501, Note_on_c, 9, 46, 0
1, 2542, Note_on_c, 4, 69, 0
1, 2542, Note_on_c, 1, 60, 0
1, 2544, Note_on_c, 1, 64, 110
1, 2544, Note_on_c, 4, 74, 100
1, 2576, Note_on_c, 6, 38, 0
1, 2590, Note_on_c, 4, 74, 0
1, 2592, Note_on_c, 4, 77, 100
1, 2592, Note_on_c, 6, 45, 100
1, 2592, Note_on_c, 9, 42, 103
1, 2592, Note_on_c, 9, 39, 103
1, 2597, Note_on_c, 9, 39, 0
1, 2597, Note_on_c, 9, 42, 0
1, 2622, Note_on_c, 5, 62, 0
1, 2622, Note_on_c, 5, 65, 0
1, 2622, Note_on_c, 5, 60, 0
1, 2622, Note_on_c, 5, 69, 0
1, 2638, Note_on_c, 1, 64, 0
1, 2638, Note_on_c, 4, 77, 0
1, 2640, Note_on_c, 4, 79, 100
1, 2656, Note_on_c, 9, 42, 89
1, 2661, Note_on_c, 9, 42, 0
1, 2672, Note_on_c, 6, 45, 0
1, 2686, Note_on_c, 4, 79, 0
1, 2688, Note_on_c, 4, 81, 100
1, 2688, Note_on_c, 5, 67, 90
1, 2688, Note_on_c, 5, 59, 90
1, 2688, Note_on_c, 5, 62, 90
1, 2688, Note_on_c, 5, 65, 90
1, 2688, Note_on_c, 6, 43, 100
1, 2688, Note_on_c, 9, 46, 89
1, 2688, Note_on_c, 9, 36, 112
1, 2693, Note_on_c, 9, 36, 0
1, 2693, Note_on_c, 9, 46, 0
1, 2718, Note_on_c, 5, 67, 0
1, 2718, Note_on_c, 5, 62, 0
1, 2718, Note_on_c, 5, 59, 0
1, 2718, Note_on_c, 5, 65, 0
1, 2734, Note_on_c, 4, 81, 0
1, 2736, Note_on_c, 4, 86, 100
1, 2768, Note_on_c, 6, 43, 0
1, 2784, Note_on_c, 1, 67, 110
1, 2784, Note_on_c, 5, 67, 90
1, 2784, Note_on_c, 5, 59, 90
1, 2784, Note_on_c, 5, 62, 90
1, 2784, Note_on_c, 5, 65, 90
1, 2784, Note_on_c, 6, 35, 100
1, 2784, Note_on_c, 9, 42, 107
1, 2784, Note_on_c, 9, 39, 107
1, 2789, Note_on_c, 9, 39, 0
1, 2789, Note_on_c, 9, 42, 0
1, 2830, Note_on_c, 4, 86, 0
1, 2830, Note_on_c, 1, 67, 0
1, 2832, Note_on_c, 1, 69, 110
1, 2832, Note_on_c, 4, 81, 100
1, 2848, Note_on_c, 9, 42, 100
1, 2853, Note_on_c, 9, 42, 0
1, 2864, Note_on_c, 6, 35, 0
1, 2878, Note_on_c, 1, 69, 0
1, 2878, Note_on_c, 4, 81, 0
1, 2880, Note_on_c, 1, 64, 110
1, 2880, Note_on_c, 4, 77, 100
1, 2880, Note_on_c, 6, 38, 100
1, 2880, Note_on_c, 9, 46, 81
1, 2880, Note_on_c, 9, 36, 102
1, 2885, Note_on_c, 9, 36, 0
1, 2885, Note_on_c, 9, 46, 0
1, 2910, Note_on_c, 5, 65, 0
1, 2910, Note_on_c, 5, 59, 0
1, 2910, Note_on_c, 5, 62, 0
1, 2910, Note_on_c, 5, 67, 0
1, 2926, Note_on_c, 4, 77, 0
1, 2928, Note_on_c, 4, 79, 100
1, 2942, Note_on_c, 1, 64, 0
1, 2944, Note_on_c, 1, 60, 110
1, 2944, Note_on_c, 5, 62, 90
1, 2944, Note_on_c, 5, 59, 90
1, 2944, Note_on_c, 5, 65, 90
1, 2960, Note_on_c, 6, 38, 0
1, 2974, Note_on_c, 4, 79, 0
1, 2976, Note_on_c, 4, 77, 100
1, 2976, Note_on_c, 6, 41, 100
1, 2976, Note_on_c, 9, 42, 112
1, 2976, Note_on_c, 9, 39, 112
1, 2981, Note_on_c, 9, 39, 0
1, 2981, Note_on_c, 9, 42, 0
1, 3006, Note_on_c, 1, 60, 0
1, 3008, Note_on_c, 1, 57, 110
1, 3022, Note_on_c, 4, 77, 0
1, 3024, Note_on_c, 4, 76, 100
1, 3038, Note_on_c, 5, 62, 0
1, 3038, Note_on_c, 5, 65, 0
1, 3038, Note_on_c, 5, 59, 0
1, 3040, Note_on_c, 9, 42, 84
1, 3045, Note_on_c, 9, 42, 0
1, 3056, Note_on_c, 6, 41, 0
1, 3070, Note_on_c, 1, 57, 0
1, 3070, Note_on_c, 4, 76, 0
1, 3072, Note_on_c, 1, 55, 110
1, 3072, Note_on_c, 4, 74, 100
1, 3072, Note_on_c, 5, 67, 90
1, 3072, Note_on_c, 5, 59, 90
1, 3072, Note_on_c, 5, 65, 90
1, 3072, Note_on_c, 5, 62, 90
1, 3072, Note_on_c, 6, 43, 100
1, 3072, Note_on_c, 9, 36, 113
1, 3072, Note_on_c, 9, 51, 113
1, 3077, Note_on_c, 9, 51, 0
1, 3077, Note_on_c, 9, 36, 0
1, 3102, Note_on_c, 5, 59, 0
1, 3102, Note_on_c, 5, 62, 0
1, 3102, Note_on_c, 5, 67, 0
1, 3102, Note_on_c, 5, 65, 0
1, 3118, Note_on_c, 4, 74, 0
1, 3120, Note_on_c, 4, 77, 100
1, 3152, Note_on_c, 6, 43, 0
1, 3166, Note_on_c, 4, 77, 0
1, 3168, Note_on_c, 4, 74, 100
1, 3168, Note_on_c, 6, 41, 100
1, 3168, Note_on_c, 9, 39, 106
1, 3168, Note_on_c, 9, 51, 106
1, 3173, Note_on_c, 9, 51, 0
1, 3173, Note_on_c, 9, 39, 0
1, 3214, Note_on_c, 4, 74, 0
1, 3216, Note_on_c, 4, 71, 100
1, 3232, Note_on_c, 5, 67, 90
1, 3232, Note_on_c, 5, 59, 90
1, 3232, Note_on_c, 5, 62, 90
1, 3232, Note_on_c, 5, 65, 90
1, 3232, Note_on_c, 9, 51, 101
1, 3237, Note_on_c, 9, 51, 0
1, 3252, Note_on_c, 6, 41, 0
1, 3262, Note_on_c, 4, 71, 0
1, 3264, Note_on_c, 4, 69, 100
1, 3264, Note_on_c, 6, 40, 100
1, 3264, Note_on_c, 9, 36, 106
1, 3264, Note_on_c, 9, 51, 106
1, 3269, Note_on_c, 9, 51, 0
1, 3269, Note_on_c, 9, 36, 0
1, 3310, Note_on_c, 4, 69, 0
1, 3312, Note_on_c, 4, 67, 100
1, 3328, Note_on_c, 9, 45, 87
1, 3333, Note_on_c, 9, 45, 0
1, 3348, Note_on_c, 6, 40, 0
1, 3358, Note_on_c, 1, 55, 0
1, 3358, Note_on_c, 4, 67, 0
1, 3360, Note_on_c, 4, 62, 100
1, 3360, Note_on_c, 6, 38, 100
1, 3360, Note_on_c, 9, 51, 103
1, 3360, Note_on_c, 9, 45, 103
1, 3365, Note_on_c, 9, 45, 0
1, 3365, Note_on_c, 9, 51, 0
1, 3390, Note_on_c, 5, 65, 0
1, 3390, Note_on_c, 5, 67, 0
1, 3390, Note_on_c, 5, 62, 0
1, 3390, Note_on_c, 5, 59, 0
1, 3392, Note_on_c, 9, 43, 78
1, 3397, Note_on_c, 9, 43, 0
1, 3406, Note_on_c, 4, 62, 0
1, 3408, Note_on_c, 4, 63, 100
1, 3424, Note_on_c, 9, 41, 89
1, 3429, Note_on_c, 9, 41, 0
1, 3440, Note_on_c, 6, 38, 0
1, 3454, Note_on_c, 4, 63, 0
1, 3456, Note_on_c, 4, 64, 100
1, 3456, Note_on_c, 6, 36, 100
1, 3456, Note_on_c, 9, 36, 112
1, 3456, Note_on_c, 9, 46, 89
1, 3461, Note_on_c, 9, 46, 0
1, 3461, Note_on_c, 9, 36, 0
1, 3552, Note_on_c, 5, 69, 90
1, 3552, Note_on_c, 5, 60, 90
1, 3552, Note_on_c, 5, 67, 90
1, 3552, Note_on_c, 5, 64, 90
1, 3552, Note_on_c, 9, 37, 107
1, 3552, Note_on_c, 9, 42, 107
1, 3557, Note_on_c, 9, 42, 0
1, 3557, Note_on_c, 9, 37, 0
1, 3576, Note_on_c, 6, 36, 0
1, 3616, Note_on_c, 6, 36, 100
1, 3616, Note_on_c, 9, 42, 100
1, 3621, Note_on_c, 9, 42, 0
1, 3640, Note_on_c, 6, 36, 0
1, 3648, Note_on_c, 6, 31, 100
1, 3648, Note_on_c, 9, 36, 102
1, 3648, Note_on_c, 9, 46, 81
1, 3653, Note_on_c, 9, 46, 0
1, 3653, Note_on_c, 9, 36, 0
1, 3678, Note_on_c, 5, 69, 0
1, 3678, Note_on_c, 5, 67, 0
1, 3678, Note_on_c, 5, 60, 0
1, 3678, Note_on_c, 5, 64, 0
1, 3694, Note_on_c, 4, 64, 0
1, 3712, Note_on_c, 5, 60, 90
1, 3712, Note_on_c, 5, 64, 90
1, 3712, Note_on_c, 5, 69, 90
1, 3712, Note_on_c, 5, 67, 90
1, 3744, Note_on_c, 9, 37, 112
1, 3744, Note_on_c, 9, 42, 112
1, 3749, Note_on_c, 9, 42, 0
1, 3749, Note_on_c, 9, 37, 0
1, 3806, Note_on_c, 5, 60, 0
1, 3806, Note_on_c, 5, 64, 0
1, 3806, Note_on_c, 5, 69, 0
1, 3806, Note_on_c, 5, 67, 0
1, 3808, Note_on_c, 6, 31, 0
1, 3808, Note_on_c, 9, 42, 84
1, 3813, Note_on_c, 9, 42, 0
1, 3840, Note_on_c, 6, 38, 100
1, 3840, Note_on_c, 9, 36, 113
1, 3840, Note_on_c, 9, 46, 90
1, 3845, Note_on_c, 9, 46, 0
1, 3845, Note_on_c, 9, 36, 0
1, 3888, Note_on_c, 4, 67, 100
1, 3934, Note_on_c, 4, 67, 0
1, 3936, Note_on_c, 4, 76, 100
1, 3936, Note_on_c, 5, 59, 90
1, 3936, Note_on_c, 5, 65, 90
1, 3936, Note_on_c, 5, 62, 90
1, 3936, Note_on_c, 5, 69, 90
1, 3936, Note_on_c, 9, 37, 106
1, 3936, Note_on_c, 9, 42, 106
1, 3941, Note_on_c, 9, 42, 0
1, 3941, Note_on_c, 9, 37, 0
1, 3960, Note_on_c, 6, 38, 0
1, 3966, Note_on_c, 5, 59, 0
1, 3966, Note_on_c, 5, 65, 0
1, 3966, Note_on_c, 5, 62, 0
1, 3966, Note_on_c, 5, 69, 0
1, 3982, Note_on_c, 4, 76, 0
1, 3984, Note_on_c, 4, 77, 100
1, 4000, Note_on_c, 5, 69, 90
1, 4000, Note_on_c, 5, 59, 90
1, 4000, Note_on_c, 5, 65, 90
1, 4000, Note_on_c, 5, 62, 90
1, 4000, Note_on_c, 6, 38, 100
1, 4000, Note_on_c, 9, 42, 101
1, 4005, Note_on_c, 9, 42, 0
1, 4024, Note_on_c, 6, 38, 0
1, 4030, Note_on_c, 5, 69, 0
1, 4030, Note_on_c, 5, 59, 0
1, 4030, Note_on_c, 4, 77, 0
1, 4030, Note_on_c, 5, 62, 0
1, 4030, Note_on_c, 5, 65, 0
1, 4032, Note_on_c, 1, 59, 110
1, 4032, Note_on_c, 4, 76, 100
1, 4032, Note_on_c, 6, 31, 100
1, 4032, Note_on_c, 9, 36, 106
1, 4032, Note_on_c, 9, 46, 84
1, 4037, Note_on_c, 9, 46, 0
1, 4037, Note_on_c, 9, 36, 0
1, 4078, Note_on_c, 4, 76, 0
1, 4080, Note_on_c, 4, 72, 100
1, 4094, Note_on_c, 1, 59, 0
1, 4096, Note_on_c, 1, 55, 110
1, 4096, Note_on_c, 5, 62, 90
1, 4096, Note_on_c, 5, 65, 90
1, 4096, Note_on_c, 5, 59, 90
1, 4096, Note_on_c, 5, 69, 90
1, 4126, Note_on_c, 4, 72, 0
1, 4128, Note_on_c, 4, 69, 100
1, 4128, Note_on_c, 9, 37, 103
1, 4128, Note_on_c, 9, 42, 103
1, 4133, Note_on_c, 9, 42, 0
1, 4133, Note_on_c, 9, 37, 0
1, 4158, Note_on_c, 1, 55, 0
1, 4160, Note_on_c, 1, 51, 110
1, 4174, Note_on_c, 4, 69, 0
1, 4176, Note_on_c, 4, 66, 100
1, 4180, Note_on_c, 6, 31, 0
1, 4190, Note_on_c, 5, 62, 0
1, 4190, Note_on_c, 5, 59, 0
1, 4190, Note_on_c, 5, 65, 0
1, 4190, Note_on_c, 5, 69, 0
1, 4192, Note_on_c, 9, 42, 89
1, 4197, Note_on_c, 9, 42, 0
1, 4222, Note_on_c, 1, 51, 0
1, 4222, Note_on_c, 4, 66, 0
1, 4224, Note_on_c, 1, 48, 110
1, 4224, Note_on_c, 4, 67, 100
1, 4224, Note_on_c, 5, 60, 90
1, 4224, Note_on_c, 5, 64, 90
1, 4224, Note_on_c, 5, 69, 90
1, 4224, Note_on_c, 5, 67, 90
1, 4224, Note_on_c, 6, 36, 100
1, 4224, Note_on_c, 9, 36, 112
1, 4224, Note_on_c, 9, 46, 89
1, 4229, Note_on_c, 9, 46, 0
1, 4229, Note_on_c, 9, 36, 0
1, 4254, Note_on_c, 5, 64, 0
1, 4254, Note_on_c, 5, 67, 0
1, 4254, Note_on_c, 5, 60, 0
1, 4254, Note_on_c, 5, 69, 0
1, 4320, Note_on_c, 5, 67, 90
1, 4320, Note_on_c, 5, 69, 90
1, 4320, Note_on_c, 5, 64, 90
1, 4320, Note_on_c, 5, 60, 90
1, 4320, Note_on_c, 9, 37, 107
1, 4320, Note_on_c, 9, 42, 107
1, 4325, Note_on_c, 9, 42, 0
1, 4325, Note_on_c, 9, 37, 0
1, 4332, Note_on_c, 6, 36, 0
1, 4350, Note_on_c, 5, 64, 0
1, 4350, Note_on_c, 5, 69, 0
1, 4350, Note_on_c, 5, 67, 0
1, 4350, Note_on_c, 5, 60, 0
1, 4384, Note_on_c, 6, 36, 100
1, 4384, Note_on_c, 9, 42, 100
1, 4389, Note_on_c, 9, 42, 0
1, 4404, Note_on_c, 6, 36, 0
1, 4416, Note_on_c, 6, 43, 100
1, 4416, Note_on_c, 9, 36, 102
1, 4416, Note_on_c, 9, 46, 81
1, 4421, Note_on_c, 9, 46, 0
1, 4421, Note_on_c, 9, 36, 0
1, 4462, Note_on_c, 4, 67, 0
1, 4480, Note_on_c, 5, 67, 90
1, 4480, Note_on_c, 5, 60, 90
1, 4480, Note_on_c, 5, 69, 90
1, 4480, Note_on_c, 5, 64, 90
1, 4496, Note_on_c, 6, 43, 0
1, 4512, Note_on_c, 6, 36, 100
1, 4512, Note_on_c, 9, 37, 112
1, 4512, Note_on_c, 9, 42, 112
1, 4517, Note_on_c, 9, 42, 0
1, 4517, Note_on_c, 9, 37, 0
1, 4558, Note_on_c, 1, 48, 0
1, 4560, Note_on_c, 4, 75, 100
1, 4574, Note_on_c, 5, 60, 0
1, 4574, Note_on_c, 5, 67, 0
1, 4574, Note_on_c, 5, 69, 0
1, 4574, Note_on_c, 5, 64, 0
1, 4576, Note_on_c, 9, 42, 84
1, 4581, Note_on_c, 9, 42, 0
1, 4592, Note_on_c, 6, 36, 0
1, 4606, Note_on_c, 4, 75, 0
1, 4608, Note_on_c, 4, 79, 100
1, 4608, Note_on_c, 5, 63, 90
1, 4608, Note_on_c, 5, 59, 90
1, 4608, Note_on_c, 5, 67, 90
1, 4608, Note_on_c, 5, 69, 90
1, 4608, Note_on_c, 6, 31, 100
1, 4608, Note_on_c, 9, 36, 113
1, 4608, Note_on_c, 9, 46, 90
1, 4613, Note_on_c, 9, 46, 0
1, 4613, Note_on_c, 9, 36, 0
1, 4670, Note_on_c, 4, 79, 0
1, 4672, Note_on_c, 4, 75, 100
1, 4704, Note_on_c, 1, 63, 110
1, 4704, Note_on_c, 9, 37, 106
1, 4704, Note_on_c, 9, 42, 106
1, 4709, Note_on_c, 9, 42, 0
1, 4709, Note_on_c, 9, 37, 0
1, 4720, Note_on_c, 6, 31, 0
1, 4734, Note_on_c, 4, 75, 0
1, 4736, Note_on_c, 4, 71, 100
1, 4766, Note_on_c, 1, 63, 0
1, 4768, Note_on_c, 1, 59, 110
1, 4768, Note_on_c, 6, 31, 100
1, 4768, Note_on_c, 9, 42, 101
1, 4773, Note_on_c, 9, 42, 0
1, 4792, Note_on_c, 6, 31, 0
1, 4798, Note_on_c, 4, 71, 0
1, 4800, Note_on_c, 4, 67, 100
1, 4800, Note_on_c, 6, 43, 100
1, 4800, Note_on_c, 9, 36, 106
1, 4800, Note_on_c, 9, 46, 84
1, 4805, Note_on_c, 9, 46, 0
1, 4805, Note_on_c, 9, 36, 0
1, 4830, Note_on_c, 5, 69, 0
1, 4830, Note_on_c, 5, 63, 0
1, 4830, Note_on_c, 5, 59, 0
1, 4830, Note_on_c, 5, 67, 0
1, 4830, Note_on_c, 1, 59, 0
1, 4832, Note_on_c, 1, 55, 110
1, 4862, Note_on_c, 4, 67, 0
1, 4864, Note_on_c, 4, 63, 100
1, 4864, Note_on_c, 5, 69, 90
1, 4864, Note_on_c, 5, 59, 90
1, 4864, Note_on_c, 5, 63, 90
1, 4864, Note_on_c, 5, 67, 90
1, 4880, Note_on_c, 6, 43, 0
1, 4894, Note_on_c, 1, 55, 0
1, 4896, Note_on_c, 1, 53, 110
1, 4896, Note_on_c, 6, 31, 100
1, 4896, Note_on_c, 9, 37, 103
1, 4896, Note_on_c, 9, 42, 103
1, 4901, Note_on_c, 9, 42, 0
1, 4901, Note_on_c, 9, 37, 0
1, 4926, Note_on_c, 4, 63, 0
1, 4928, Note_on_c, 4, 59, 100
1, 4960, Note_on_c, 9, 42, 89
1, 4965, Note_on_c, 9, 42, 0
1, 4976, Note_on_c, 6, 31, 0
1, 4990, Note_on_c, 1, 53, 0
1, 4990, Note_on_c, 5, 63, 0
1, 4990, Note_on_c, 5, 59, 0
1, 4990, Note_on_c, 5, 69, 0
1, 4990, Note_on_c, 4, 59, 0
1, 4990, Note_on_c, 5, 67, 0
1, 4992, Note_on_c, 1, 52, 110
1, 4992, Note_on_c, 4, 60, 100
1, 4992, Note_on_c, 6, 36, 100
1, 4992, Note_on_c, 9, 36, 112
1, 4992, Note_on_c, 9, 46, 89
1, 4997, Note_on_c, 9, 46, 0
1, 4997, Note_on_c, 9, 36, 0
1, 5088, Note_on_c, 5, 67, 90
1, 5088, Note_on_c, 5, 69, 90
1, 5088, Note_on_c, 5, 64, 90
1, 5088, Note_on_c, 5, 60, 90
1, 5088, Note_on_c, 9, 37, 107
1, 5088, Note_on_c, 9, 42, 107
1, 5093, Note_on_c, 9, 42, 0
1, 5093, Note_on_c, 9, 37, 0
1, 5104, Note_on_c, 6, 36, 0
1, 5152, Note_on_c, 6, 36, 100
1, 5152, Note_on_c, 9, 42, 100
1, 5157, Note_on_c, 9, 42, 0
1, 5176, Note_on_c, 6, 36, 0
1, 5184, Note_on_c, 6, 31, 100
1, 5184, Note_on_c, 9, 36, 102
1, 5184, Note_on_c, 9, 46, 81
1, 5189, Note_on_c, 9, 46, 0
1, 5189, Note_on_c, 9, 36, 0
1, 5214, Note_on_c, 5, 69, 0
1, 5214, Note_on_c, 5, 60, 0
1, 5214, Note_on_c, 5, 67, 0
1, 5214, Note_on_c, 5, 64, 0
1, 5248, Note_on_c, 5, 67, 90
1, 5248, Note_on_c, 5, 64, 90
1, 5248, Note_on_c, 5, 60, 90
1, 5280, Note_on_c, 9, 37, 112
1, 5280, Note_on_c, 9, 42, 112
1, 5285, Note_on_c, 9, 42, 0
1, 5285, Note_on_c, 9, 37, 0
1, 5310, Note_on_c, 5, 64, 0
1, 5310, Note_on_c, 5, 67, 0
1, 5310, Note_on_c, 5, 60, 0
1, 5326, Note_on_c, 4, 60, 0
1, 5326, Note_on_c, 1, 52, 0
1, 5344, Note_on_c, 6, 31, 0
1, 5344, Note_on_c, 9, 42, 84
1, 5349, Note_on_c, 9, 42, 0
1, 5376, Note_on_c, 5, 64, 90
1, 5376, Note_on_c, 5, 67, 90
1, 5376, Note_on_c, 5, 71, 90
1, 5376, Note_on_c, 5, 60, 90
1, 5376, Note_on_c, 6, 36, 100
1, 5376, Note_on_c, 9, 36, 113
1, 5376, Note_on_c, 9, 46, 90
1, 5381, Note_on_c, 9, 46, 0
1, 5381, Note_on_c, 9, 36, 0
1, 5472, Note_on_c, 9, 37, 106
1, 5472, Note_on_c, 9, 42, 106
1, 5477, Note_on_c, 9, 42, 0
1, 5477, Note_on_c, 9, 37, 0
1, 5488, Note_on_c, 6, 36, 0
1, 5536, Note_on_c, 6, 36, 100
1, 5536, Note_on_c, 9, 42, 101
1, 5541, Note_on_c, 9, 42, 0
1, 5560, Note_on_c, 6, 36, 0
1, 5566, Note_on_c, 5, 60, 0
1, 5566, Note_on_c, 5, 64, 0
1, 5566, Note_on_c, 5, 67, 0
1, 5566, Note_on_c, 5, 71, 0
1, 5568, Note_on_c, 6, 43, 100
1, 5568, Note_on_c, 9, 36, 106
1, 5568, Note_on_c, 9, 46, 84
1, 5573, Note_on_c, 9, 46, 0
1, 5573, Note_on_c, 9, 36, 0
1, 5632, Note_on_c, 5, 67, 90
1, 5632, Note_on_c, 5, 64, 90
1, 5632, Note_on_c, 5, 60, 90
1, 5652, Note_on_c, 6, 43, 0
1, 5664, Note_on_c, 6, 31, 100
1, 5664, Note_on_c, 9, 37, 103
1, 5664, Note_on_c, 9, 42, 103
1, 5669, Note_on_c, 9, 42, 0
1, 5669, Note_on_c, 9, 37, 0
1, 5726, Note_on_c, 5, 60, 0
1, 5726, Note_on_c, 5, 67, 0
1, 5726, Note_on_c, 5, 64, 0
1, 5728, Note_on_c, 9, 42, 89
1, 5733, Note_on_c, 9, 42, 0
1, 5744, Note_on_c, 6, 31, 0
1, 5760, Note_on_c, 5, 64, 90
1, 5760, Note_on_c, 5, 67, 90
1, 5760, Note_on_c, 5, 70, 90
1, 5760, Note_on_c, 5, 62, 90
1, 5760, Note_on_c, 6, 36, 100
1, 5760, Note_on_c, 9, 36, 112
1, 5760, Note_on_c, 9, 46, 89
1, 5765, Note_on_c, 9, 46, 0
1, 5765, Note_on_c, 9, 36, 0
1, 5856, Note_on_c, 4, 79, 100
1, 5856, Note_on_c, 9, 37, 107
1, 5856, Note_on_c, 9, 42, 107
1, 5861, Note_on_c, 9, 42, 0
1, 5861, Note_on_c, 9, 37, 0
1, 5872, Note_on_c, 6, 36, 0
1, 5886, Note_on_c, 4, 79, 0
1, 5888, Note_on_c, 4, 81, 100
1, 5918, Note_on_c, 4, 81, 0
1, 5920, Note_on_c, 4, 82, 100
1, 5920, Note_on_c, 6, 36, 100
1, 5920, Note_on_c, 9, 42, 100
1, 5925, Note_on_c, 9, 42, 0
1, 5944, Note_on_c, 6, 36, 0
1, 5950, Note_on_c, 5, 67, 0
1, 5950, Note_on_c, 5, 70, 0
1, 5950, Note_on_c, 5, 62, 0
1, 5950, Note_on_c, 4, 82, 0
1, 5950, Note_on_c, 5, 64, 0
1, 5952, Note_on_c, 1, 58, 110
1, 5952, Note_on_c, 4, 86, 100
1, 5952, Note_on_c, 6, 43, 100
1, 5952, Note_on_c, 9, 36, 102
1, 5952, Note_on_c, 9, 46, 81
1, 5957, Note_on_c, 9, 46, 0
1, 5957, Note_on_c, 9, 36, 0
1, 5998, Note_on_c, 4, 86, 0
1, 6000, Note_on_c, 4, 82, 100
1, 6014, Note_on_c, 1, 58, 0
1, 6016, Note_on_c, 1, 57, 110
1, 6016, Note_on_c, 5, 64, 90
1, 6016, Note_on_c, 5, 67, 90
1, 6016, Note_on_c, 5, 62, 90
1, 6016, Note_on_c, 5, 70, 90
1, 6032, Note_on_c, 6, 43, 0
1, 6046, Note_on_c, 4, 82, 0
1, 6048, Note_on_c, 4, 81, 100
1, 6048, Note_on_c, 6, 36, 100
1, 6048, Note_on_c, 9, 37, 112
1, 6048, Note_on_c, 9, 42, 112
1, 6053, Note_on_c, 9, 42, 0
1, 6053, Note_on_c, 9, 37, 0
1, 6078, Note_on_c, 5, 64, 0
1, 6078, Note_on_c, 5, 62, 0
1, 6078, Note_on_c, 1, 57, 0
1, 6078, Note_on_c, 5, 67, 0
1, 6078, Note_on_c, 5, 70, 0
1, 6080, Note_on_c, 1, 55, 110
1, 6094, Note_on_c, 4, 81, 0
1, 6096, Note_on_c, 4, 79, 100
1, 6112, Note_on_c, 9, 42, 84
1, 6117, Note_on_c, 9, 42, 0
1, 6128, Note_on_c, 6, 36, 0
1, 6142, Note_on_c, 4, 79, 0
1, 6142, Note_on_c, 1, 55, 0
1, 6144, Note_on_c, 1, 58, 110
1, 6144, Note_on_c, 4, 82, 100
1, 6144, Note_on_c, 5, 62, 90
1, 6144, Note_on_c, 5, 65, 90
1, 6144, Note_on_c, 5, 67, 90
1, 6144, Note_on_c, 5, 70, 90
1, 6144, Note_on_c, 6, 43, 100
1, 6144, Note_on_c, 9, 36, 113
1, 6144, Note_on_c, 9, 46, 90
1, 6149, Note_on_c, 9, 46, 0
1, 6149, Note_on_c, 9, 36, 0
1, 6190, Note_on_c, 4, 82, 0
1, 6192, Note_on_c, 4, 81, 100
1, 6206, Note_on_c, 1, 58, 0
1, 6208, Note_on_c, 1, 57, 110
1, 6224, Note_on_c, 6, 43, 0
1, 6238, Note_on_c, 4, 81, 0
1, 6240, Note_on_c, 4, 79, 100
1, 6240, Note_on_c, 6, 41, 100
1, 6240, Note_on_c, 9, 37, 106
1, 6240, Note_on_c, 9, 42, 106
1, 6245, Note_on_c, 9, 42, 0
1, 6245, Note_on_c, 9, 37, 0
1, 6270, Note_on_c, 1, 57, 0
1, 6272, Note_on_c, 1, 55, 110
1, 6286, Note_on_c, 4, 79, 0
1, 6288, Note_on_c, 4, 77, 100
1, 6302, Note_on_c, 5, 65, 0
1, 6302, Note_on_c, 5, 70, 0
1, 6302, Note_on_c, 5, 67, 0
1, 6302, Note_on_c, 5, 62, 0
1, 6304, Note_on_c, 9, 42, 101
1, 6309, Note_on_c, 9, 42, 0
1, 6320, Note_on_c, 6, 41, 0
1, 6334, Note_on_c, 4, 77, 0
1, 6334, Note_on_c, 1, 55, 0
1, 6336, Note_on_c, 1, 52, 110
1, 6336, Note_on_c, 4, 74, 100
1, 6336, Note_on_c, 5, 64, 90
1, 6336, Note_on_c, 5, 62, 90
1, 6336, Note_on_c, 5, 67, 90
1, 6336, Note_on_c, 5, 70, 90
1, 6336, Note_on_c, 6, 40, 100
1, 6336, Note_on_c, 9, 36, 106
1, 6336, Note_on_c, 9, 46, 84
1, 6341, Note_on_c, 9, 46, 0
1, 6341, Note_on_c, 9, 36, 0
1, 6416, Note_on_c, 6, 40, 0
1, 6430, Note_on_c, 4, 74, 0
1, 6432, Note_on_c, 4, 73, 100
1, 6432, Note_on_c, 6, 36, 100
1, 6432, Note_on_c, 9, 37, 103
1, 6432, Note_on_c, 9, 42, 103
1, 6437, Note_on_c, 9, 42, 0
1, 6437, Note_on_c, 9, 37, 0
1, 6462, Note_on_c, 5, 67, 0
1, 6462, Note_on_c, 5, 64, 0
1, 6462, Note_on_c, 5, 62, 0
1, 6462, Note_on_c, 5, 70, 0
1, 6496, Note_on_c, 9, 42, 89
1, 6501, Note_on_c, 9, 42, 0
1, 6512, Note_on_c, 6, 36, 0
1, 6526, Note_on_c, 4, 73, 0
1, 6526, Note_on_c, 1, 52, 0
1, 6528, Note_on_c, 1, 57, 110
1, 6528, Note_on_c, 3, 65, 70
1, 6528, Note_on_c, 3, 60, 70
1, 6528, Note_on_c, 3, 69, 70
1, 6528, Note_on_c, 3, 62, 70
1, 6528, Note_on_c, 4, 72, 100
1, 6528, Note_on_c, 5, 60, 90
1, 6528, Note_on_c, 5, 65, 90
1, 6528, Note_on_c, 5, 69, 90
1, 6528, Note_on_c, 6, 41, 100
1, 6528, Note_on_c, 9, 36, 112
1, 6528, Note_on_c, 9, 46, 89
1, 6533, Note_on_c, 9, 46, 0
1, 6533, Note_on_c, 9, 36, 0
1, 6624, Note_on_c, 9, 37, 107
1, 6624, Note_on_c, 9, 42, 107
1, 6629, Note_on_c, 9, 42, 0
1, 6629, Note_on_c, 9, 37, 0
1, 6648, Note_on_c, 6, 41, 0
1, 6686, Note_on_c, 5, 69, 0
1, 6686, Note_on_c, 5, 60, 0
1, 6686, Note_on_c, 5, 65, 0
1, 6688, Note_on_c, 6, 41, 100
1, 6688, Note_on_c, 9, 42, 100
1, 6693, Note_on_c, 9, 42, 0
1, 6712, Note_on_c, 6, 41, 0
1, 6720, Note_on_c, 5, 72, 90
1, 6720, Note_on_c, 5, 65, 90
1, 6720, Note_on_c, 5, 69, 90
1, 6720, Note_on_c, 5, 60, 90
1, 6720, Note_on_c, 6, 36, 100
1, 6720, Note_on_c, 9, 36, 102
1, 6720, Note_on_c, 9, 46, 81
1, 6725, Note_on_c, 9, 46, 0
1, 6725, Note_on_c, 9, 36, 0
1, 6782, Note_on_c, 5, 69, 0
1, 6782, Note_on_c, 5, 72, 0
1, 6782, Note_on_c, 5, 65, 0
1, 6782, Note_on_c, 5, 60, 0
1, 6816, Note_on_c, 5, 65, 90
1, 6816, Note_on_c, 5, 60, 90
1, 6816, Note_on_c, 5, 69, 90
1, 6816, Note_on_c, 9, 37, 112
1, 6816, Note_on_c, 9, 42, 112
1, 6821, Note_on_c, 9, 42, 0
1, 6821, Note_on_c, 9, 37, 0
1, 6876, Note_on_c, 6, 36, 0
1, 6878, Note_on_c, 5, 60, 0
1, 6878, Note_on_c, 5, 65, 0
1, 6878, Note_on_c, 5, 69, 0
1, 6880, Note_on_c, 9, 42, 84
1, 6885, Note_on_c, 9, 42, 0
1, 6910, Note_on_c, 3, 62, 0
1, 6910, Note_on_c, 3, 65, 0
1, 6910, Note_on_c, 1, 57, 0
1, 6912, Note_on_c, 1, 54, 110
1, 6912, Note_on_c, 3, 63, 70
1, 6912, Note_on_c, 3, 66, 70
1, 6912, Note_on_c, 5, 66, 90
1, 6912, Note_on_c, 5, 69, 90
1, 6912, Note_on_c, 5, 63, 90
1, 6912, Note_on_c, 5, 60, 90
1, 6912, Note_on_c, 6, 42, 100
1, 6912, Note_on_c, 9, 36, 113
1, 6912, Note_on_c, 9, 46, 90
1, 6917, Note_on_c, 9, 46, 0
1, 6917, Note_on_c, 9, 36, 0
1, 6942, Note_on_c, 5, 63, 0
1, 6942, Note_on_c, 5, 66, 0
1, 6942, Note_on_c, 5, 69, 0
1, 6942, Note_on_c, 5, 60, 0
1, 6976, Note_on_c, 5, 60, 90
1, 6976, Note_on_c, 5, 66, 90
1, 6976, Note_on_c, 5, 69, 90
1, 6976, Note_on_c, 5, 63, 90
1, 7006, Note_on_c, 5, 63, 0
1, 7006, Note_on_c, 5, 60, 0
1, 7006, Note_on_c, 5, 69, 0
1, 7006, Note_on_c, 5, 66, 0
1, 7008, Note_on_c, 9, 37, 106
1, 7008, Note_on_c, 9, 42, 106
1, 7013, Note_on_c, 9, 42, 0
1, 7013, Note_on_c, 9, 37, 0
1, 7024, Note_on_c, 6, 42, 0
1, 7054, Note_on_c, 4, 72, 0
1, 7056, Note_on_c, 4, 69, 100
1, 7072, Note_on_c, 5, 66, 90
1, 7072, Note_on_c, 5, 63, 90
1, 7072, Note_on_c, 5, 60, 90
1, 7072, Note_on_c, 5, 69, 90
1, 7072, Note_on_c, 6, 42, 100
1, 7072, Note_on_c, 9, 42, 101
1, 7077, Note_on_c, 9, 42, 0
1, 7092, Note_on_c, 6, 42, 0
1, 7102, Note_on_c, 4, 69, 0
1, 7104, Note_on_c, 4, 72, 100
1, 7104, Note_on_c, 6, 36, 100
1, 7104, Note_on_c, 9, 36, 106
1, 7104, Note_on_c, 9, 46, 84
1, 7109, Note_on_c, 9, 46, 0
1, 7109, Note_on_c, 9, 36, 0
1, 7150, Note_on_c, 4, 72, 0
1, 7152, Note_on_c, 4, 75, 100
1, 7198, Note_on_c, 4, 75, 0
1, 7200, Note_on_c, 4, 78, 100
1, 7200, Note_on_c, 9, 37, 103
1, 7200, Note_on_c, 9, 42, 103
1, 7205, Note_on_c, 9, 42, 0
1, 7205, Note_on_c, 9, 37, 0
1, 7230, Note_on_c, 5, 60, 0
1, 7230, Note_on_c, 5, 63, 0
1, 7230, Note_on_c, 5, 66, 0
1, 7230, Note_on_c, 5, 69, 0
1, 7246, Note_on_c, 4, 78, 0
1, 7248, Note_on_c, 4, 75, 100
1, 7264, Note_on_c, 6, 36, 0
1, 7264, Note_on_c, 9, 42, 89
1, 7269, Note_on_c, 9, 42, 0
1, 7294, Note_on_c, 4, 75, 0
1, 7294, Note_on_c, 3, 66, 0
1, 7294, Note_on_c, 3, 60, 0
1, 7294, Note_on_c, 1, 54, 0
1, 7294, Note_on_c, 3, 69, 0
1, 7294, Note_on_c, 3, 63, 0
1, 7294, End_track
0, 0, End_of_file
