0, 0, Header, 1, 14, 120
1, 0, Start_track
1, 0, Time_signature, 4, 2, 24, 8
1, 0, Key_signature, 0, "major"
1, 0, Tempo, 800000
1, 3434, Tempo, 750000
1, 3508, Tempo, 714285
1, 3508, End_track
2, 0, Start_track
2, 0, MIDI_port, 0
2, 0, Title_t, "Bass"
2, 0, Program_c, 0, 35
2, 0, Control_c, 0, 7, 127
2, 0, Control_c, 0, 10, 64
2, 3840, Note_on_c, 0, 36, 105
2, 3866, Note_on_c, 0, 36, 0
2, 3870, Note_on_c, 0, 36, 85
2, 3885, Note_on_c, 0, 36, 0
2, 3930, Note_on_c, 0, 24, 56
2, 3960, Note_on_c, 0, 36, 93
2, 3966, Note_on_c, 0, 24, 0
2, 3983, Note_on_c, 0, 36, 0
2, 3990, Note_on_c, 0, 36, 87
2, 4008, Note_on_c, 0, 36, 0
2, 4050, Note_on_c, 0, 24, 58
2, 4060, Note_on_c, 0, 24, 0
2, 4080, Note_on_c, 0, 43, 82
2, 4146, Note_on_c, 0, 43, 0
2, 4170, Note_on_c, 0, 43, 100
2, 4186, Note_on_c, 0, 43, 0
2, 4200, Note_on_c, 0, 43, 76
2, 4222, Note_on_c, 0, 43, 0
2, 4230, Note_on_c, 0, 47, 100
2, 4249, Note_on_c, 0, 47, 0
2, 4260, Note_on_c, 0, 50, 100
2, 4289, Note_on_c, 0, 50, 0
2, 4320, Note_on_c, 0, 36, 82
2, 4386, Note_on_c, 0, 36, 0
2, 4410, Note_on_c, 0, 36, 100
2, 4426, Note_on_c, 0, 36, 0
2, 4440, Note_on_c, 0, 36, 76
2, 4462, Note_on_c, 0, 36, 0
2, 4470, Note_on_c, 0, 40, 100
2, 4489, Note_on_c, 0, 40, 0
2, 4500, Note_on_c, 0, 43, 100
2, 4529, Note_on_c, 0, 43, 0
2, 4590, Note_on_c, 0, 31, 52
2, 4616, Note_on_c, 0, 31, 0
2, 4620, Note_on_c, 0, 43, 95
2, 4656, Note_on_c, 0, 43, 0
2, 4710, Note_on_c, 0, 31, 55
2, 4737, Note_on_c, 0, 31, 0
2, 4740, Note_on_c, 0, 43, 102
2, 4781, Note_on_c, 0, 43, 0
2, 4800, Note_on_c, 0, 41, 82
2, 4866, Note_on_c, 0, 41, 0
2, 4890, Note_on_c, 0, 41, 100
2, 4906, Note_on_c, 0, 41, 0
2, 4920, Note_on_c, 0, 41, 76
2, 4942, Note_on_c, 0, 41, 0
2, 4950, Note_on_c, 0, 45, 100
2, 4969, Note_on_c, 0, 45, 0
2, 4980, Note_on_c, 0, 48, 100
2, 5009, Note_on_c, 0, 48, 0
2, 5040, Note_on_c, 0, 40, 87
2, 5060, Note_on_c, 0, 40, 0
2, 5100, Note_on_c, 0, 40, 89
2, 5121, Note_on_c, 0, 40, 0
2, 5160, Note_on_c, 0, 40, 93
2, 5242, Note_on_c, 0, 40, 0
2, 5250, Note_on_c, 0, 40, 82
2, 5271, Note_on_c, 0, 40, 0
2, 5280, Note_on_c, 0, 43, 76
2, 5298, Note_on_c, 0, 43, 0
2, 5310, Note_on_c, 0, 43, 64
2, 5326, Note_on_c, 0, 43, 0
2, 5340, Note_on_c, 0, 47, 74
2, 5363, Note_on_c, 0, 47, 0
2, 5370, Note_on_c, 0, 50, 93
2, 5391, Note_on_c, 0, 50, 0
2, 5640, Note_on_c, 0, 55, 102
2, 5669, Note_on_c, 0, 55, 0
2, 5670, Note_on_c, 0, 43, 102
2, 5688, Note_on_c, 0, 43, 0
2, 5760, Note_on_c, 0, 41, 105
2, 5786, Note_on_c, 0, 41, 0
2, 5790, Note_on_c, 0, 41, 85
2, 5805, Note_on_c, 0, 41, 0
2, 5850, Note_on_c, 0, 29, 56
2, 5880, Note_on_c, 0, 41, 93
2, 5886, Note_on_c, 0, 29, 0
2, 5903, Note_on_c, 0, 41, 0
2, 5910, Note_on_c, 0, 41, 87
2, 5928, Note_on_c, 0, 41, 0
2, 5970, Note_on_c, 0, 29, 58
2, 5980, Note_on_c, 0, 29, 0
2, 6000, Note_on_c, 0, 43, 105
2, 6026, Note_on_c, 0, 43, 0
2, 6030, Note_on_c, 0, 43, 85
2, 6045, Note_on_c, 0, 43, 0
2, 6090, Note_on_c, 0, 31, 56
2, 6120, Note_on_c, 0, 43, 93
2, 6126, Note_on_c, 0, 31, 0
2, 6143, Note_on_c, 0, 43, 0
2, 6150, Note_on_c, 0, 43, 87
2, 6168, Note_on_c, 0, 43, 0
2, 6210, Note_on_c, 0, 31, 58
2, 6220, Note_on_c, 0, 31, 0
2, 6300, Note_on_c, 0, 33, 100
2, 6382, Note_on_c, 0, 33, 0
2, 6390, Note_on_c, 0, 36, 102
2, 6403, Note_on_c, 0, 36, 0
2, 6420, Note_on_c, 0, 33, 66
2, 6435, Note_on_c, 0, 33, 0
2, 6450, Note_on_c, 0, 28, 87
2, 6464, Note_on_c, 0, 28, 0
2, 6484, Note_on_c, 0, 41, 105
2, 6501, Note_on_c, 0, 41, 0
2, 6513, Note_on_c, 0, 45, 72
2, 6531, Note_on_c, 0, 45, 0
2, 6543, Note_on_c, 0, 48, 68
2, 6565, Note_on_c, 0, 48, 0
2, 6574, Note_on_c, 0, 53, 98
2, 6593, Note_on_c, 0, 53, 0
2, 6635, Note_on_c, 0, 33, 78
2, 6646, Note_on_c, 0, 34, 25
2, 6646, Note_on_c, 0, 35, 72
2, 6653, Note_on_c, 0, 33, 0
2, 6654, Note_on_c, 0, 34, 0
2, 6659, Note_on_c, 0, 36, 93
2, 6666, Note_on_c, 0, 35, 0
2, 6691, Note_on_c, 0, 36, 0
2, 6694, Note_on_c, 0, 41, 110
2, 6704, Note_on_c, 0, 41, 0
2, 6750, Note_on_c, 0, 24, 52
2, 6776, Note_on_c, 0, 24, 0
2, 6780, Note_on_c, 0, 36, 95
2, 6816, Note_on_c, 0, 36, 0
2, 6870, Note_on_c, 0, 24, 55
2, 6897, Note_on_c, 0, 24, 0
2, 6900, Note_on_c, 0, 36, 102
2, 6941, Note_on_c, 0, 36, 0
2, 6960, Note_on_c, 0, 43, 82
2, 7026, Note_on_c, 0, 43, 0
2, 7050, Note_on_c, 0, 43, 100
2, 7066, Note_on_c, 0, 43, 0
2, 7080, Note_on_c, 0, 43, 76
2, 7102, Note_on_c, 0, 43, 0
2, 7110, Note_on_c, 0, 47, 100
2, 7129, Note_on_c, 0, 47, 0
2, 7140, Note_on_c, 0, 50, 100
2, 7169, Note_on_c, 0, 50, 0
2, 7200, Note_on_c, 0, 36, 76
2, 7218, Note_on_c, 0, 36, 0
2, 7230, Note_on_c, 0, 36, 64
2, 7246, Note_on_c, 0, 36, 0
2, 7260, Note_on_c, 0, 40, 74
2, 7283, Note_on_c, 0, 40, 0
2, 7290, Note_on_c, 0, 43, 93
2, 7311, Note_on_c, 0, 43, 0
2, 7560, Note_on_c, 0, 48, 102
2, 7589, Note_on_c, 0, 48, 0
2, 7590, Note_on_c, 0, 36, 102
2, 7608, Note_on_c, 0, 36, 0
2, 7740, Note_on_c, 0, 33, 100
2, 7822, Note_on_c, 0, 33, 0
2, 7830, Note_on_c, 0, 36, 102
2, 7843, Note_on_c, 0, 36, 0
2, 7860, Note_on_c, 0, 33, 66
2, 7875, Note_on_c, 0, 33, 0
2, 7890, Note_on_c, 0, 28, 87
2, 7904, Note_on_c, 0, 28, 0
2, 7980, Note_on_c, 0, 40, 100
2, 8062, Note_on_c, 0, 40, 0
2, 8070, Note_on_c, 0, 43, 102
2, 8083, Note_on_c, 0, 43, 0
2, 8100, Note_on_c, 0, 40, 66
2, 8115, Note_on_c, 0, 40, 0
2, 8130, Note_on_c, 0, 35, 87
2, 8144, Note_on_c, 0, 35, 0
2, 8160, Note_on_c, 0, 33, 87
2, 8180, Note_on_c, 0, 33, 0
2, 8220, Note_on_c, 0, 33, 89
2, 8241, Note_on_c, 0, 33, 0
2, 8280, Note_on_c, 0, 33, 93
2, 8362, Note_on_c, 0, 33, 0
2, 8370, Note_on_c, 0, 33, 82
2, 8391, Note_on_c, 0, 33, 0
2, 8430, Note_on_c, 0, 40, 68
2, 8442, Note_on_c, 0, 40, 0
2, 8460, Note_on_c, 0, 40, 100
2, 8535, Note_on_c, 0, 40, 0
2, 8550, Note_on_c, 0, 40, 68
2, 8563, Note_on_c, 0, 40, 0
2, 8580, Note_on_c, 0, 40, 105
2, 8640, Note_on_c, 0, 40, 0
2, 8640, Note_on_c, 0, 33, 105
2, 8666, Note_on_c, 0, 33, 0
2, 8670, Note_on_c, 0, 33, 85
2, 8685, Note_on_c, 0, 33, 0
2, 8730, Note_on_c, 0, 21, 56
2, 8760, Note_on_c, 0, 33, 93
2, 8766, Note_on_c, 0, 21, 0
2, 8783, Note_on_c, 0, 33, 0
2, 8790, Note_on_c, 0, 33, 87
2, 8808, Note_on_c, 0, 33, 0
2, 8850, Note_on_c, 0, 21, 58
2, 8860, Note_on_c, 0, 21, 0
2, 8880, Note_on_c, 0, 40, 102
2, 8897, Note_on_c, 0, 40, 0
2, 8910, Note_on_c, 0, 40, 74
2, 8929, Note_on_c, 0, 40, 0
2, 8940, Note_on_c, 0, 40, 102
2, 8956, Note_on_c, 0, 40, 0
2, 8970, Note_on_c, 0, 40, 100
2, 8990, Note_on_c, 0, 40, 0
2, 9030, Note_on_c, 0, 35, 95
2, 9054, Note_on_c, 0, 35, 0
2, 9060, Note_on_c, 0, 40, 102
2, 9084, Note_on_c, 0, 40, 0
2, 9120, Note_on_c, 0, 38, 82
2, 9186, Note_on_c, 0, 38, 0
2, 9210, Note_on_c, 0, 38, 100
2, 9226, Note_on_c, 0, 38, 0
2, 9240, Note_on_c, 0, 38, 76
2, 9262, Note_on_c, 0, 38, 0
2, 9270, Note_on_c, 0, 41, 100
2, 9289, Note_on_c, 0, 41, 0
2, 9300, Note_on_c, 0, 45, 100
2, 9329, Note_on_c, 0, 45, 0
2, 9390, Note_on_c, 0, 38, 68
2, 9402, Note_on_c, 0, 38, 0
2, 9420, Note_on_c, 0, 38, 100
2, 9495, Note_on_c, 0, 38, 0
2, 9510, Note_on_c, 0, 38, 68
2, 9523, Note_on_c, 0, 38, 0
2, 9540, Note_on_c, 0, 38, 105
2, 9600, Note_on_c, 0, 38, 0
2, 9600, Note_on_c, 0, 43, 102
2, 9622, Note_on_c, 0, 43, 0
2, 9630, Note_on_c, 0, 43, 87
2, 9660, Note_on_c, 0, 43, 0
2, 9690, Note_on_c, 0, 38, 47
2, 9708, Note_on_c, 0, 38, 0
2, 9720, Note_on_c, 0, 43, 105
2, 9742, Note_on_c, 0, 43, 0
2, 9750, Note_on_c, 0, 43, 95
2, 9772, Note_on_c, 0, 43, 0
2, 9930, Note_on_c, 0, 38, 51
2, 9940, Note_on_c, 0, 38, 0
2, 9960, Note_on_c, 0, 43, 76
2, 9980, Note_on_c, 0, 43, 0
2, 9990, Note_on_c, 0, 43, 89
2, 10007, Note_on_c, 0, 43, 0
2, 10020, Note_on_c, 0, 43, 95
2, 10046, Note_on_c, 0, 43, 0
2, 10080, Note_on_c, 0, 36, 105
2, 10106, Note_on_c, 0, 36, 0
2, 10110, Note_on_c, 0, 36, 85
2, 10125, Note_on_c, 0, 36, 0
2, 10170, Note_on_c, 0, 24, 56
2, 10200, Note_on_c, 0, 36, 93
2, 10206, Note_on_c, 0, 24, 0
2, 10223, Note_on_c, 0, 36, 0
2, 10230, Note_on_c, 0, 36, 87
2, 10248, Note_on_c, 0, 36, 0
2, 10290, Note_on_c, 0, 24, 58
2, 10300, Note_on_c, 0, 24, 0
2, 10320, Note_on_c, 0, 43, 82
2, 10386, Note_on_c, 0, 43, 0
2, 10410, Note_on_c, 0, 43, 100
2, 10426, Note_on_c, 0, 43, 0
2, 10440, Note_on_c, 0, 43, 76
2, 10462, Note_on_c, 0, 43, 0
2, 10470, Note_on_c, 0, 47, 100
2, 10489, Note_on_c, 0, 47, 0
2, 10500, Note_on_c, 0, 50, 100
2, 10529, Note_on_c, 0, 50, 0
2, 10560, Note_on_c, 0, 36, 82
2, 10626, Note_on_c, 0, 36, 0
2, 10650, Note_on_c, 0, 36, 100
2, 10666, Note_on_c, 0, 36, 0
2, 10680, Note_on_c, 0, 36, 76
2, 10702, Note_on_c, 0, 36, 0
2, 10710, Note_on_c, 0, 40, 100
2, 10729, Note_on_c, 0, 40, 0
2, 10740, Note_on_c, 0, 43, 100
2, 10769, Note_on_c, 0, 43, 0
2, 10830, Note_on_c, 0, 31, 52
2, 10856, Note_on_c, 0, 31, 0
2, 10860, Note_on_c, 0, 43, 95
2, 10896, Note_on_c, 0, 43, 0
2, 10950, Note_on_c, 0, 31, 55
2, 10977, Note_on_c, 0, 31, 0
2, 10980, Note_on_c, 0, 43, 102
2, 11021, Note_on_c, 0, 43, 0
2, 11040, Note_on_c, 0, 41, 82
2, 11106, Note_on_c, 0, 41, 0
2, 11130, Note_on_c, 0, 41, 100
2, 11146, Note_on_c, 0, 41, 0
2, 11160, Note_on_c, 0, 41, 76
2, 11182, Note_on_c, 0, 41, 0
2, 11190, Note_on_c, 0, 45, 100
2, 11209, Note_on_c, 0, 45, 0
2, 11220, Note_on_c, 0, 48, 100
2, 11249, Note_on_c, 0, 48, 0
2, 11280, Note_on_c, 0, 40, 87
2, 11300, Note_on_c, 0, 40, 0
2, 11340, Note_on_c, 0, 40, 89
2, 11361, Note_on_c, 0, 40, 0
2, 11400, Note_on_c, 0, 40, 93
2, 11482, Note_on_c, 0, 40, 0
2, 11490, Note_on_c, 0, 40, 82
2, 11511, Note_on_c, 0, 40, 0
2, 11520, Note_on_c, 0, 43, 76
2, 11538, Note_on_c, 0, 43, 0
2, 11550, Note_on_c, 0, 43, 64
2, 11566, Note_on_c, 0, 43, 0
2, 11580, Note_on_c, 0, 47, 74
2, 11603, Note_on_c, 0, 47, 0
2, 11610, Note_on_c, 0, 50, 93
2, 11631, Note_on_c, 0, 50, 0
2, 11880, Note_on_c, 0, 55, 102
2, 11909, Note_on_c, 0, 55, 0
2, 11910, Note_on_c, 0, 43, 102
2, 11928, Note_on_c, 0, 43, 0
2, 12000, Note_on_c, 0, 41, 105
2, 12026, Note_on_c, 0, 41, 0
2, 12030, Note_on_c, 0, 41, 85
2, 12045, Note_on_c, 0, 41, 0
2, 12090, Note_on_c, 0, 29, 56
2, 12120, Note_on_c, 0, 41, 93
2, 12126, Note_on_c, 0, 29, 0
2, 12143, Note_on_c, 0, 41, 0
2, 12150, Note_on_c, 0, 41, 87
2, 12168, Note_on_c, 0, 41, 0
2, 12210, Note_on_c, 0, 29, 58
2, 12220, Note_on_c, 0, 29, 0
2, 12240, Note_on_c, 0, 43, 105
2, 12266, Note_on_c, 0, 43, 0
2, 12270, Note_on_c, 0, 43, 85
2, 12285, Note_on_c, 0, 43, 0
2, 12330, Note_on_c, 0, 31, 56
2, 12360, Note_on_c, 0, 43, 93
2, 12366, Note_on_c, 0, 31, 0
2, 12383, Note_on_c, 0, 43, 0
2, 12390, Note_on_c, 0, 43, 87
2, 12408, Note_on_c, 0, 43, 0
2, 12450, Note_on_c, 0, 31, 58
2, 12460, Note_on_c, 0, 31, 0
2, 12540, Note_on_c, 0, 33, 100
2, 12622, Note_on_c, 0, 33, 0
2, 12630, Note_on_c, 0, 36, 102
2, 12643, Note_on_c, 0, 36, 0
2, 12660, Note_on_c, 0, 33, 66
2, 12675, Note_on_c, 0, 33, 0
2, 12690, Note_on_c, 0, 28, 87
2, 12704, Note_on_c, 0, 28, 0
2, 12724, Note_on_c, 0, 41, 105
2, 12741, Note_on_c, 0, 41, 0
2, 12753, Note_on_c, 0, 45, 72
2, 12771, Note_on_c, 0, 45, 0
2, 12783, Note_on_c, 0, 48, 68
2, 12805, Note_on_c, 0, 48, 0
2, 12814, Note_on_c, 0, 53, 98
2, 12833, Note_on_c, 0, 53, 0
2, 12875, Note_on_c, 0, 33, 78
2, 12886, Note_on_c, 0, 34, 25
2, 12886, Note_on_c, 0, 35, 72
2, 12893, Note_on_c, 0, 33, 0
2, 12894, Note_on_c, 0, 34, 0
2, 12899, Note_on_c, 0, 36, 93
2, 12906, Note_on_c, 0, 35, 0
2, 12931, Note_on_c, 0, 36, 0
2, 12934, Note_on_c, 0, 41, 110
2, 12944, Note_on_c, 0, 41, 0
2, 12990, Note_on_c, 0, 24, 52
2, 13016, Note_on_c, 0, 24, 0
2, 13020, Note_on_c, 0, 36, 95
2, 13056, Note_on_c, 0, 36, 0
2, 13110, Note_on_c, 0, 24, 55
2, 13137, Note_on_c, 0, 24, 0
2, 13140, Note_on_c, 0, 36, 102
2, 13181, Note_on_c, 0, 36, 0
2, 13200, Note_on_c, 0, 43, 82
2, 13266, Note_on_c, 0, 43, 0
2, 13290, Note_on_c, 0, 43, 100
2, 13306, Note_on_c, 0, 43, 0
2, 13320, Note_on_c, 0, 43, 76
2, 13342, Note_on_c, 0, 43, 0
2, 13350, Note_on_c, 0, 47, 100
2, 13369, Note_on_c, 0, 47, 0
2, 13380, Note_on_c, 0, 50, 100
2, 13409, Note_on_c, 0, 50, 0
2, 13440, Note_on_c, 0, 36, 76
2, 13458, Note_on_c, 0, 36, 0
2, 13470, Note_on_c, 0, 36, 64
2, 13486, Note_on_c, 0, 36, 0
2, 13500, Note_on_c, 0, 40, 74
2, 13523, Note_on_c, 0, 40, 0
2, 13530, Note_on_c, 0, 43, 93
2, 13551, Note_on_c, 0, 43, 0
2, 13800, Note_on_c, 0, 48, 102
2, 13829, Note_on_c, 0, 48, 0
2, 13830, Note_on_c, 0, 36, 102
2, 13848, Note_on_c, 0, 36, 0
2, 13980, Note_on_c, 0, 33, 100
2, 14062, Note_on_c, 0, 33, 0
2, 14070, Note_on_c, 0, 36, 102
2, 14083, Note_on_c, 0, 36, 0
2, 14100, Note_on_c, 0, 33, 66
2, 14115, Note_on_c, 0, 33, 0
2, 14130, Note_on_c, 0, 28, 87
2, 14144, Note_on_c, 0, 28, 0
2, 14220, Note_on_c, 0, 40, 100
2, 14302, Note_on_c, 0, 40, 0
2, 14310, Note_on_c, 0, 43, 102
2, 14323, Note_on_c, 0, 43, 0
2, 14340, Note_on_c, 0, 40, 66
2, 14355, Note_on_c, 0, 40, 0
2, 14370, Note_on_c, 0, 35, 87
2, 14384, Note_on_c, 0, 35, 0
2, 14400, Note_on_c, 0, 33, 87
2, 14420, Note_on_c, 0, 33, 0
2, 14460, Note_on_c, 0, 33, 89
2, 14481, Note_on_c, 0, 33, 0
2, 14520, Note_on_c, 0, 33, 93
2, 14602, Note_on_c, 0, 33, 0
2, 14610, Note_on_c, 0, 33, 82
2, 14631, Note_on_c, 0, 33, 0
2, 14670, Note_on_c, 0, 40, 68
2, 14682, Note_on_c, 0, 40, 0
2, 14700, Note_on_c, 0, 40, 100
2, 14775, Note_on_c, 0, 40, 0
2, 14790, Note_on_c, 0, 40, 68
2, 14803, Note_on_c, 0, 40, 0
2, 14820, Note_on_c, 0, 40, 105
2, 14880, Note_on_c, 0, 40, 0
2, 14880, Note_on_c, 0, 33, 105
2, 14906, Note_on_c, 0, 33, 0
2, 14910, Note_on_c, 0, 33, 85
2, 14925, Note_on_c, 0, 33, 0
2, 14970, Note_on_c, 0, 21, 56
2, 15000, Note_on_c, 0, 33, 93
2, 15006, Note_on_c, 0, 21, 0
2, 15023, Note_on_c, 0, 33, 0
2, 15030, Note_on_c, 0, 33, 87
2, 15048, Note_on_c, 0, 33, 0
2, 15090, Note_on_c, 0, 21, 58
2, 15100, Note_on_c, 0, 21, 0
2, 15120, Note_on_c, 0, 40, 102
2, 15137, Note_on_c, 0, 40, 0
2, 15150, Note_on_c, 0, 40, 74
2, 15169, Note_on_c, 0, 40, 0
2, 15180, Note_on_c, 0, 40, 102
2, 15196, Note_on_c, 0, 40, 0
2, 15210, Note_on_c, 0, 40, 100
2, 15230, Note_on_c, 0, 40, 0
2, 15270, Note_on_c, 0, 35, 95
2, 15294, Note_on_c, 0, 35, 0
2, 15300, Note_on_c, 0, 40, 102
2, 15324, Note_on_c, 0, 40, 0
2, 15360, Note_on_c, 0, 38, 82
2, 15426, Note_on_c, 0, 38, 0
2, 15450, Note_on_c, 0, 38, 100
2, 15466, Note_on_c, 0, 38, 0
2, 15480, Note_on_c, 0, 38, 76
2, 15502, Note_on_c, 0, 38, 0
2, 15510, Note_on_c, 0, 41, 100
2, 15529, Note_on_c, 0, 41, 0
2, 15540, Note_on_c, 0, 45, 100
2, 15569, Note_on_c, 0, 45, 0
2, 15630, Note_on_c, 0, 38, 68
2, 15642, Note_on_c, 0, 38, 0
2, 15660, Note_on_c, 0, 38, 100
2, 15735, Note_on_c, 0, 38, 0
2, 15750, Note_on_c, 0, 38, 68
2, 15763, Note_on_c, 0, 38, 0
2, 15780, Note_on_c, 0, 38, 105
2, 15840, Note_on_c, 0, 38, 0
2, 15840, Note_on_c, 0, 43, 102
2, 15862, Note_on_c, 0, 43, 0
2, 15870, Note_on_c, 0, 43, 87
2, 15900, Note_on_c, 0, 43, 0
2, 15930, Note_on_c, 0, 38, 47
2, 15948, Note_on_c, 0, 38, 0
2, 15960, Note_on_c, 0, 43, 105
2, 15982, Note_on_c, 0, 43, 0
2, 15990, Note_on_c, 0, 43, 95
2, 16012, Note_on_c, 0, 43, 0
2, 16170, Note_on_c, 0, 38, 51
2, 16180, Note_on_c, 0, 38, 0
2, 16200, Note_on_c, 0, 43, 76
2, 16220, Note_on_c, 0, 43, 0
2, 16230, Note_on_c, 0, 43, 89
2, 16247, Note_on_c, 0, 43, 0
2, 16260, Note_on_c, 0, 43, 95
2, 16286, Note_on_c, 0, 43, 0
2, 16320, Note_on_c, 0, 36, 105
2, 16346, Note_on_c, 0, 36, 0
2, 16350, Note_on_c, 0, 36, 85
2, 16365, Note_on_c, 0, 36, 0
2, 16410, Note_on_c, 0, 24, 56
2, 16440, Note_on_c, 0, 36, 93
2, 16446, Note_on_c, 0, 24, 0
2, 16463, Note_on_c, 0, 36, 0
2, 16470, Note_on_c, 0, 36, 87
2, 16488, Note_on_c, 0, 36, 0
2, 16530, Note_on_c, 0, 24, 58
2, 16540, Note_on_c, 0, 24, 0
2, 16560, Note_on_c, 0, 43, 82
2, 16626, Note_on_c, 0, 43, 0
2, 16650, Note_on_c, 0, 43, 100
2, 16666, Note_on_c, 0, 43, 0
2, 16680, Note_on_c, 0, 43, 76
2, 16702, Note_on_c, 0, 43, 0
2, 16710, Note_on_c, 0, 47, 100
2, 16729, Note_on_c, 0, 47, 0
2, 16740, Note_on_c, 0, 50, 100
2, 16769, Note_on_c, 0, 50, 0
2, 16800, Note_on_c, 0, 36, 82
2, 16866, Note_on_c, 0, 36, 0
2, 16890, Note_on_c, 0, 36, 100
2, 16906, Note_on_c, 0, 36, 0
2, 16920, Note_on_c, 0, 36, 76
2, 16942, Note_on_c, 0, 36, 0
2, 16950, Note_on_c, 0, 40, 100
2, 16969, Note_on_c, 0, 40, 0
2, 16980, Note_on_c, 0, 43, 100
2, 17009, Note_on_c, 0, 43, 0
2, 17070, Note_on_c, 0, 31, 52
2, 17096, Note_on_c, 0, 31, 0
2, 17100, Note_on_c, 0, 43, 95
2, 17136, Note_on_c, 0, 43, 0
2, 17190, Note_on_c, 0, 31, 55
2, 17217, Note_on_c, 0, 31, 0
2, 17220, Note_on_c, 0, 43, 102
2, 17261, Note_on_c, 0, 43, 0
2, 17280, Note_on_c, 0, 41, 82
2, 17346, Note_on_c, 0, 41, 0
2, 17370, Note_on_c, 0, 41, 100
2, 17386, Note_on_c, 0, 41, 0
2, 17400, Note_on_c, 0, 41, 76
2, 17422, Note_on_c, 0, 41, 0
2, 17430, Note_on_c, 0, 45, 100
2, 17449, Note_on_c, 0, 45, 0
2, 17460, Note_on_c, 0, 48, 100
2, 17489, Note_on_c, 0, 48, 0
2, 17520, Note_on_c, 0, 40, 87
2, 17540, Note_on_c, 0, 40, 0
2, 17580, Note_on_c, 0, 40, 89
2, 17601, Note_on_c, 0, 40, 0
2, 17640, Note_on_c, 0, 40, 93
2, 17722, Note_on_c, 0, 40, 0
2, 17730, Note_on_c, 0, 40, 82
2, 17751, Note_on_c, 0, 40, 0
2, 17760, Note_on_c, 0, 43, 76
2, 17778, Note_on_c, 0, 43, 0
2, 17790, Note_on_c, 0, 43, 64
2, 17806, Note_on_c, 0, 43, 0
2, 17820, Note_on_c, 0, 47, 74
2, 17843, Note_on_c, 0, 47, 0
2, 17850, Note_on_c, 0, 50, 93
2, 17871, Note_on_c, 0, 50, 0
2, 18120, Note_on_c, 0, 55, 102
2, 18149, Note_on_c, 0, 55, 0
2, 18150, Note_on_c, 0, 43, 102
2, 18168, Note_on_c, 0, 43, 0
2, 18240, Note_on_c, 0, 41, 105
2, 18266, Note_on_c, 0, 41, 0
2, 18270, Note_on_c, 0, 41, 85
2, 18285, Note_on_c, 0, 41, 0
2, 18330, Note_on_c, 0, 29, 56
2, 18360, Note_on_c, 0, 41, 93
2, 18366, Note_on_c, 0, 29, 0
2, 18383, Note_on_c, 0, 41, 0
2, 18390, Note_on_c, 0, 41, 87
2, 18408, Note_on_c, 0, 41, 0
2, 18450, Note_on_c, 0, 29, 58
2, 18460, Note_on_c, 0, 29, 0
2, 18480, Note_on_c, 0, 43, 105
2, 18506, Note_on_c, 0, 43, 0
2, 18510, Note_on_c, 0, 43, 85
2, 18525, Note_on_c, 0, 43, 0
2, 18570, Note_on_c, 0, 31, 56
2, 18600, Note_on_c, 0, 43, 93
2, 18606, Note_on_c, 0, 31, 0
2, 18623, Note_on_c, 0, 43, 0
2, 18630, Note_on_c, 0, 43, 87
2, 18648, Note_on_c, 0, 43, 0
2, 18690, Note_on_c, 0, 31, 58
2, 18700, Note_on_c, 0, 31, 0
2, 18780, Note_on_c, 0, 33, 100
2, 18862, Note_on_c, 0, 33, 0
2, 18870, Note_on_c, 0, 36, 102
2, 18883, Note_on_c, 0, 36, 0
2, 18900, Note_on_c, 0, 33, 66
2, 18915, Note_on_c, 0, 33, 0
2, 18930, Note_on_c, 0, 28, 87
2, 18944, Note_on_c, 0, 28, 0
2, 18964, Note_on_c, 0, 41, 105
2, 18981, Note_on_c, 0, 41, 0
2, 18993, Note_on_c, 0, 45, 72
2, 19011, Note_on_c, 0, 45, 0
2, 19023, Note_on_c, 0, 48, 68
2, 19045, Note_on_c, 0, 48, 0
2, 19054, Note_on_c, 0, 53, 98
2, 19073, Note_on_c, 0, 53, 0
2, 19115, Note_on_c, 0, 33, 78
2, 19126, Note_on_c, 0, 34, 25
2, 19126, Note_on_c, 0, 35, 72
2, 19133, Note_on_c, 0, 33, 0
2, 19134, Note_on_c, 0, 34, 0
2, 19139, Note_on_c, 0, 36, 93
2, 19146, Note_on_c, 0, 35, 0
2, 19171, Note_on_c, 0, 36, 0
2, 19174, Note_on_c, 0, 41, 110
2, 19184, Note_on_c, 0, 41, 0
2, 19230, Note_on_c, 0, 24, 52
2, 19256, Note_on_c, 0, 24, 0
2, 19260, Note_on_c, 0, 36, 95
2, 19296, Note_on_c, 0, 36, 0
2, 19350, Note_on_c, 0, 24, 55
2, 19377, Note_on_c, 0, 24, 0
2, 19380, Note_on_c, 0, 36, 102
2, 19421, Note_on_c, 0, 36, 0
2, 19440, Note_on_c, 0, 43, 82
2, 19506, Note_on_c, 0, 43, 0
2, 19530, Note_on_c, 0, 43, 100
2, 19546, Note_on_c, 0, 43, 0
2, 19560, Note_on_c, 0, 43, 76
2, 19582, Note_on_c, 0, 43, 0
2, 19590, Note_on_c, 0, 47, 100
2, 19609, Note_on_c, 0, 47, 0
2, 19620, Note_on_c, 0, 50, 100
2, 19649, Note_on_c, 0, 50, 0
2, 19680, Note_on_c, 0, 36, 76
2, 19698, Note_on_c, 0, 36, 0
2, 19710, Note_on_c, 0, 36, 64
2, 19726, Note_on_c, 0, 36, 0
2, 19740, Note_on_c, 0, 40, 74
2, 19763, Note_on_c, 0, 40, 0
2, 19770, Note_on_c, 0, 43, 93
2, 19791, Note_on_c, 0, 43, 0
2, 20040, Note_on_c, 0, 48, 102
2, 20069, Note_on_c, 0, 48, 0
2, 20070, Note_on_c, 0, 36, 102
2, 20088, Note_on_c, 0, 36, 0
2, 20160, Note_on_c, 0, 41, 105
2, 20186, Note_on_c, 0, 41, 0
2, 20190, Note_on_c, 0, 41, 85
2, 20205, Note_on_c, 0, 41, 0
2, 20250, Note_on_c, 0, 29, 56
2, 20280, Note_on_c, 0, 41, 93
2, 20286, Note_on_c, 0, 29, 0
2, 20303, Note_on_c, 0, 41, 0
2, 20310, Note_on_c, 0, 41, 87
2, 20328, Note_on_c, 0, 41, 0
2, 20370, Note_on_c, 0, 29, 58
2, 20380, Note_on_c, 0, 29, 0
2, 20400, Note_on_c, 0, 43, 105
2, 20426, Note_on_c, 0, 43, 0
2, 20430, Note_on_c, 0, 43, 85
2, 20445, Note_on_c, 0, 43, 0
2, 20490, Note_on_c, 0, 31, 56
2, 20520, Note_on_c, 0, 43, 93
2, 20526, Note_on_c, 0, 31, 0
2, 20543, Note_on_c, 0, 43, 0
2, 20550, Note_on_c, 0, 43, 87
2, 20568, Note_on_c, 0, 43, 0
2, 20610, Note_on_c, 0, 31, 58
2, 20620, Note_on_c, 0, 31, 0
2, 20700, Note_on_c, 0, 33, 100
2, 20782, Note_on_c, 0, 33, 0
2, 20790, Note_on_c, 0, 36, 102
2, 20803, Note_on_c, 0, 36, 0
2, 20820, Note_on_c, 0, 33, 66
2, 20835, Note_on_c, 0, 33, 0
2, 20850, Note_on_c, 0, 28, 87
2, 20864, Note_on_c, 0, 28, 0
2, 20884, Note_on_c, 0, 41, 105
2, 20901, Note_on_c, 0, 41, 0
2, 20913, Note_on_c, 0, 45, 72
2, 20931, Note_on_c, 0, 45, 0
2, 20943, Note_on_c, 0, 48, 68
2, 20965, Note_on_c, 0, 48, 0
2, 20974, Note_on_c, 0, 53, 98
2, 20993, Note_on_c, 0, 53, 0
2, 21035, Note_on_c, 0, 33, 78
2, 21046, Note_on_c, 0, 34, 25
2, 21046, Note_on_c, 0, 35, 72
2, 21053, Note_on_c, 0, 33, 0
2, 21054, Note_on_c, 0, 34, 0
2, 21059, Note_on_c, 0, 36, 93
2, 21066, Note_on_c, 0, 35, 0
2, 21091, Note_on_c, 0, 36, 0
2, 21094, Note_on_c, 0, 41, 110
2, 21104, Note_on_c, 0, 41, 0
2, 21150, Note_on_c, 0, 24, 52
2, 21176, Note_on_c, 0, 24, 0
2, 21180, Note_on_c, 0, 36, 95
2, 21216, Note_on_c, 0, 36, 0
2, 21270, Note_on_c, 0, 24, 55
2, 21297, Note_on_c, 0, 24, 0
2, 21300, Note_on_c, 0, 36, 102
2, 21341, Note_on_c, 0, 36, 0
2, 21360, Note_on_c, 0, 43, 82
2, 21426, Note_on_c, 0, 43, 0
2, 21450, Note_on_c, 0, 43, 100
2, 21466, Note_on_c, 0, 43, 0
2, 21480, Note_on_c, 0, 43, 76
2, 21502, Note_on_c, 0, 43, 0
2, 21510, Note_on_c, 0, 47, 100
2, 21529, Note_on_c, 0, 47, 0
2, 21540, Note_on_c, 0, 50, 100
2, 21569, Note_on_c, 0, 50, 0
2, 21600, Note_on_c, 0, 36, 76
2, 21618, Note_on_c, 0, 36, 0
2, 21630, Note_on_c, 0, 36, 64
2, 21646, Note_on_c, 0, 36, 0
2, 21660, Note_on_c, 0, 40, 74
2, 21683, Note_on_c, 0, 40, 0
2, 21690, Note_on_c, 0, 43, 93
2, 21711, Note_on_c, 0, 43, 0
2, 21960, Note_on_c, 0, 48, 102
2, 21989, Note_on_c, 0, 48, 0
2, 21990, Note_on_c, 0, 36, 102
2, 22008, Note_on_c, 0, 36, 0
2, 22080, Note_on_c, 0, 41, 105
2, 22106, Note_on_c, 0, 41, 0
2, 22110, Note_on_c, 0, 41, 85
2, 22125, Note_on_c, 0, 41, 0
2, 22170, Note_on_c, 0, 29, 56
2, 22200, Note_on_c, 0, 41, 93
2, 22206, Note_on_c, 0, 29, 0
2, 22223, Note_on_c, 0, 41, 0
2, 22230, Note_on_c, 0, 41, 87
2, 22248, Note_on_c, 0, 41, 0
2, 22290, Note_on_c, 0, 29, 58
2, 22300, Note_on_c, 0, 29, 0
2, 22320, Note_on_c, 0, 43, 105
2, 22346, Note_on_c, 0, 43, 0
2, 22350, Note_on_c, 0, 43, 85
2, 22365, Note_on_c, 0, 43, 0
2, 22410, Note_on_c, 0, 31, 56
2, 22440, Note_on_c, 0, 43, 93
2, 22446, Note_on_c, 0, 31, 0
2, 22463, Note_on_c, 0, 43, 0
2, 22470, Note_on_c, 0, 43, 87
2, 22488, Note_on_c, 0, 43, 0
2, 22530, Note_on_c, 0, 31, 58
2, 22540, Note_on_c, 0, 31, 0
2, 22620, Note_on_c, 0, 33, 100
2, 22702, Note_on_c, 0, 33, 0
2, 22710, Note_on_c, 0, 36, 102
2, 22723, Note_on_c, 0, 36, 0
2, 22740, Note_on_c, 0, 33, 66
2, 22755, Note_on_c, 0, 33, 0
2, 22770, Note_on_c, 0, 28, 87
2, 22784, Note_on_c, 0, 28, 0
2, 22804, Note_on_c, 0, 41, 105
2, 22821, Note_on_c, 0, 41, 0
2, 22833, Note_on_c, 0, 45, 72
2, 22851, Note_on_c, 0, 45, 0
2, 22863, Note_on_c, 0, 48, 68
2, 22885, Note_on_c, 0, 48, 0
2, 22894, Note_on_c, 0, 53, 98
2, 22913, Note_on_c, 0, 53, 0
2, 22955, Note_on_c, 0, 33, 78
2, 22966, Note_on_c, 0, 34, 25
2, 22966, Note_on_c, 0, 35, 72
2, 22973, Note_on_c, 0, 33, 0
2, 22974, Note_on_c, 0, 34, 0
2, 22979, Note_on_c, 0, 36, 93
2, 22986, Note_on_c, 0, 35, 0
2, 23011, Note_on_c, 0, 36, 0
2, 23014, Note_on_c, 0, 41, 110
2, 23024, Note_on_c, 0, 41, 0
2, 23070, Note_on_c, 0, 24, 52
2, 23096, Note_on_c, 0, 24, 0
2, 23100, Note_on_c, 0, 36, 95
2, 23136, Note_on_c, 0, 36, 0
2, 23190, Note_on_c, 0, 24, 55
2, 23217, Note_on_c, 0, 24, 0
2, 23220, Note_on_c, 0, 36, 102
2, 23261, Note_on_c, 0, 36, 0
2, 23280, Note_on_c, 0, 43, 82
2, 23346, Note_on_c, 0, 43, 0
2, 23370, Note_on_c, 0, 43, 100
2, 23386, Note_on_c, 0, 43, 0
2, 23400, Note_on_c, 0, 43, 76
2, 23422, Note_on_c, 0, 43, 0
2, 23430, Note_on_c, 0, 47, 100
2, 23449, Note_on_c, 0, 47, 0
2, 23460, Note_on_c, 0, 50, 100
2, 23489, Note_on_c, 0, 50, 0
2, 23520, Note_on_c, 0, 36, 76
2, 23538, Note_on_c, 0, 36, 0
2, 23550, Note_on_c, 0, 36, 64
2, 23566, Note_on_c, 0, 36, 0
2, 23580, Note_on_c, 0, 40, 74
2, 23603, Note_on_c, 0, 40, 0
2, 23610, Note_on_c, 0, 43, 93
2, 23631, Note_on_c, 0, 43, 0
2, 23880, Note_on_c, 0, 48, 102
2, 23909, Note_on_c, 0, 48, 0
2, 23910, Note_on_c, 0, 36, 102
2, 23928, Note_on_c, 0, 36, 0
2, 24000, Text_t, "Reset Volume"
2, 24000, Control_c, 0, 7, 127
2, 24000, Control_c, 0, 7, 127
2, 24000, Control_c, 0, 7, 127
2, 24000, Control_c, 0, 7, 127
2, 24000, Control_c, 0, 7, 127
2, 24000, Control_c, 0, 7, 127
2, 24000, Control_c, 0, 7, 127
2, 24000, Control_c, 0, 7, 127
2, 24000, Control_c, 0, 7, 127
2, 24000, Control_c, 0, 7, 127
2, 24000, Control_c, 0, 7, 127
2, 24000, Control_c, 0, 7, 127
2, 24000, Control_c, 0, 7, 127
2, 24000, Control_c, 0, 7, 127
2, 24000, Control_c, 0, 7, 127
2, 24000, Control_c, 0, 7, 127
2, 24000, Text_t, "Reset Pan"
2, 24000, Control_c, 0, 10, 64
2, 24000, Control_c, 0, 10, 64
2, 24000, Control_c, 0, 10, 64
2, 24000, Control_c, 0, 10, 64
2, 24000, Control_c, 0, 10, 64
2, 24000, Control_c, 0, 10, 64
2, 24000, Control_c, 0, 10, 64
2, 24000, Control_c, 0, 10, 64
2, 24000, Control_c, 0, 10, 64
2, 24000, Control_c, 0, 10, 64
2, 24000, Control_c, 0, 10, 64
2, 24000, Control_c, 0, 10, 64
2, 24000, Control_c, 0, 10, 64
2, 24000, Control_c, 0, 10, 64
2, 24000, Control_c, 0, 10, 64
2, 24000, Control_c, 0, 10, 64
2, 24120, Text_t, "Reset Expression"
2, 24120, Control_c, 0, 11, 127
2, 24120, Control_c, 0, 11, 127
2, 24120, Control_c, 0, 11, 127
2, 24120, Control_c, 0, 11, 127
2, 24120, Control_c, 0, 11, 127
2, 24120, Control_c, 0, 11, 127
2, 24120, Control_c, 0, 11, 127
2, 24120, Control_c, 0, 11, 127
2, 24120, Control_c, 0, 11, 127
2, 24120, Control_c, 0, 11, 127
2, 24120, Control_c, 0, 11, 127
2, 24120, Control_c, 0, 11, 127
2, 24120, Control_c, 0, 11, 127
2, 24120, Control_c, 0, 11, 127
2, 24120, Control_c, 0, 11, 127
2, 24120, Control_c, 0, 11, 127
2, 24120, Text_t, "Reset Pitch Wheel"
2, 24120, Pitch_bend_c, 0, 8192
2, 24120, Pitch_bend_c, 0, 8192
2, 24120, Pitch_bend_c, 0, 8192
2, 24120, Pitch_bend_c, 0, 8192
2, 24120, Pitch_bend_c, 0, 8192
2, 24120, Pitch_bend_c, 0, 8192
2, 24120, Pitch_bend_c, 0, 8192
2, 24120, Pitch_bend_c, 0, 8192
2, 24120, Pitch_bend_c, 0, 8192
2, 24120, Pitch_bend_c, 0, 8192
2, 24120, Pitch_bend_c, 0, 8192
2, 24120, Pitch_bend_c, 0, 8192
2, 24120, Pitch_bend_c, 0, 8192
2, 24120, Pitch_bend_c, 0, 8192
2, 24120, Pitch_bend_c, 0, 8192
2, 24120, Pitch_bend_c, 0, 8192
2, 24120, Text_t, "Reset Modulation Wheel"
2, 24120, Control_c, 0, 1, 0
2, 24120, Control_c, 0, 1, 0
2, 24120, Control_c, 0, 1, 0
2, 24120, Control_c, 0, 1, 0
2, 24120, Control_c, 0, 1, 0
2, 24120, Control_c, 0, 1, 0
2, 24120, Control_c, 0, 1, 0
2, 24120, Control_c, 0, 1, 0
2, 24120, Control_c, 0, 1, 0
2, 24120, Control_c, 0, 1, 0
2, 24120, Control_c, 0, 1, 0
2, 24120, Control_c, 0, 1, 0
2, 24120, Control_c, 0, 1, 0
2, 24120, Control_c, 0, 1, 0
2, 24120, Control_c, 0, 1, 0
2, 24120, Control_c, 0, 1, 0
2, 24120, Text_t, "Reset Aftertouch"
2, 24120, Channel_aftertouch_c, 0, 0
2, 24120, Channel_aftertouch_c, 0, 0
2, 24120, Channel_aftertouch_c, 0, 0
2, 24120, Channel_aftertouch_c, 0, 0
2, 24120, Channel_aftertouch_c, 0, 0
2, 24120, Channel_aftertouch_c, 0, 0
2, 24120, Channel_aftertouch_c, 0, 0
2, 24120, Channel_aftertouch_c, 0, 0
2, 24120, Channel_aftertouch_c, 0, 0
2, 24120, Channel_aftertouch_c, 0, 0
2, 24120, Channel_aftertouch_c, 0, 0
2, 24120, Channel_aftertouch_c, 0, 0
2, 24120, Channel_aftertouch_c, 0, 0
2, 24120, Channel_aftertouch_c, 0, 0
2, 24120, Channel_aftertouch_c, 0, 0
2, 24120, Channel_aftertouch_c, 0, 0
2, 24120, End_track
3, 0, Start_track
3, 0, MIDI_port, 0
3, 0, Title_t, "Drums"
3, 0, Program_c, 9, 0
3, 0, Control_c, 9, 7, 127
3, 0, Control_c, 9, 10, 64
3, 3360, Note_on_c, 9, 35, 115
3, 3390, Note_on_c, 9, 35, 0
3, 3420, Note_on_c, 9, 48, 100
3, 3450, Note_on_c, 9, 48, 0
3, 3450, Note_on_c, 9, 48, 90
3, 3480, Note_on_c, 9, 48, 0
3, 3480, Note_on_c, 9, 48, 115
3, 3510, Note_on_c, 9, 48, 0
3, 3540, Note_on_c, 9, 43, 115
3, 3570, Note_on_c, 9, 43, 0
3, 3600, Note_on_c, 9, 43, 115
3, 3630, Note_on_c, 9, 43, 0
3, 3630, Note_on_c, 9, 43, 115
3, 3660, Note_on_c, 9, 43, 0
3, 3660, Note_on_c, 9, 47, 115
3, 3690, Note_on_c, 9, 47, 0
3, 3690, Note_on_c, 9, 47, 100
3, 3720, Note_on_c, 9, 47, 0
3, 3720, Note_on_c, 9, 47, 115
3, 3750, Note_on_c, 9, 47, 0
3, 3780, Note_on_c, 9, 49, 100
3, 3780, Note_on_c, 9, 35, 115
3, 3810, Note_on_c, 9, 35, 0
3, 3810, Note_on_c, 9, 49, 0
3, 3840, Note_on_c, 9, 35, 100
3, 3840, Note_on_c, 9, 42, 90
3, 3840, Note_on_c, 9, 54, 60
3, 3870, Note_on_c, 9, 54, 0
3, 3870, Note_on_c, 9, 42, 0
3, 3870, Note_on_c, 9, 35, 0
3, 3870, Note_on_c, 9, 42, 40
3, 3870, Note_on_c, 9, 54, 40
3, 3900, Note_on_c, 9, 54, 0
3, 3900, Note_on_c, 9, 42, 0
3, 3900, Note_on_c, 9, 42, 115
3, 3900, Note_on_c, 9, 54, 90
3, 3930, Note_on_c, 9, 54, 0
3, 3930, Note_on_c, 9, 42, 0
3, 3930, Note_on_c, 9, 42, 50
3, 3930, Note_on_c, 9, 54, 40
3, 3960, Note_on_c, 9, 54, 0
3, 3960, Note_on_c, 9, 42, 0
3, 3960, Note_on_c, 9, 35, 100
3, 3960, Note_on_c, 9, 38, 100
3, 3960, Note_on_c, 9, 42, 90
3, 3960, Note_on_c, 9, 54, 60
3, 3990, Note_on_c, 9, 54, 0
3, 3990, Note_on_c, 9, 35, 0
3, 3990, Note_on_c, 9, 38, 0
3, 3990, Note_on_c, 9, 42, 0
3, 3990, Note_on_c, 9, 42, 40
3, 3990, Note_on_c, 9, 54, 40
3, 4020, Note_on_c, 9, 54, 0
3, 4020, Note_on_c, 9, 42, 0
3, 4020, Note_on_c, 9, 42, 115
3, 4020, Note_on_c, 9, 54, 90
3, 4050, Note_on_c, 9, 54, 0
3, 4050, Note_on_c, 9, 42, 0
3, 4050, Note_on_c, 9, 42, 50
3, 4050, Note_on_c, 9, 54, 40
3, 4080, Note_on_c, 9, 54, 0
3, 4080, Note_on_c, 9, 42, 0
3, 4080, Note_on_c, 9, 35, 100
3, 4080, Note_on_c, 9, 42, 90
3, 4080, Note_on_c, 9, 54, 60
3, 4110, Note_on_c, 9, 54, 0
3, 4110, Note_on_c, 9, 42, 0
3, 4110, Note_on_c, 9, 35, 0
3, 4110, Note_on_c, 9, 42, 50
3, 4110, Note_on_c, 9, 54, 40
3, 4140, Note_on_c, 9, 54, 0
3, 4140, Note_on_c, 9, 42, 0
3, 4140, Note_on_c, 9, 42, 115
3, 4140, Note_on_c, 9, 54, 90
3, 4170, Note_on_c, 9, 54, 0
3, 4170, Note_on_c, 9, 42, 0
3, 4170, Note_on_c, 9, 42, 50
3, 4170, Note_on_c, 9, 54, 40
3, 4200, Note_on_c, 9, 54, 0
3, 4200, Note_on_c, 9, 42, 0
3, 4200, Note_on_c, 9, 35, 100
3, 4200, Note_on_c, 9, 38, 100
3, 4200, Note_on_c, 9, 42, 90
3, 4200, Note_on_c, 9, 54, 60
3, 4230, Note_on_c, 9, 54, 0
3, 4230, Note_on_c, 9, 35, 0
3, 4230, Note_on_c, 9, 38, 0
3, 4230, Note_on_c, 9, 42, 0
3, 4230, Note_on_c, 9, 42, 60
3, 4230, Note_on_c, 9, 54, 40
3, 4260, Note_on_c, 9, 54, 0
3, 4260, Note_on_c, 9, 42, 0
3, 4260, Note_on_c, 9, 42, 115
3, 4260, Note_on_c, 9, 54, 90
3, 4290, Note_on_c, 9, 54, 0
3, 4290, Note_on_c, 9, 42, 0
3, 4290, Note_on_c, 9, 42, 50
3, 4290, Note_on_c, 9, 54, 40
3, 4320, Note_on_c, 9, 54, 0
3, 4320, Note_on_c, 9, 42, 0
3, 4320, Note_on_c, 9, 35, 100
3, 4320, Note_on_c, 9, 42, 90
3, 4320, Note_on_c, 9, 54, 60
3, 4350, Note_on_c, 9, 54, 0
3, 4350, Note_on_c, 9, 42, 0
3, 4350, Note_on_c, 9, 35, 0
3, 4350, Note_on_c, 9, 42, 40
3, 4350, Note_on_c, 9, 54, 40
3, 4380, Note_on_c, 9, 54, 0
3, 4380, Note_on_c, 9, 42, 0
3, 4380, Note_on_c, 9, 42, 115
3, 4380, Note_on_c, 9, 54, 90
3, 4410, Note_on_c, 9, 54, 0
3, 4410, Note_on_c, 9, 42, 0
3, 4410, Note_on_c, 9, 42, 50
3, 4410, Note_on_c, 9, 54, 40
3, 4440, Note_on_c, 9, 54, 0
3, 4440, Note_on_c, 9, 42, 0
3, 4440, Note_on_c, 9, 35, 100
3, 4440, Note_on_c, 9, 38, 100
3, 4440, Note_on_c, 9, 42, 90
3, 4440, Note_on_c, 9, 54, 60
3, 4470, Note_on_c, 9, 54, 0
3, 4470, Note_on_c, 9, 35, 0
3, 4470, Note_on_c, 9, 38, 0
3, 4470, Note_on_c, 9, 42, 0
3, 4470, Note_on_c, 9, 42, 40
3, 4470, Note_on_c, 9, 54, 40
3, 4500, Note_on_c, 9, 54, 0
3, 4500, Note_on_c, 9, 42, 0
3, 4500, Note_on_c, 9, 42, 115
3, 4500, Note_on_c, 9, 54, 90
3, 4530, Note_on_c, 9, 54, 0
3, 4530, Note_on_c, 9, 42, 0
3, 4530, Note_on_c, 9, 42, 50
3, 4530, Note_on_c, 9, 54, 40
3, 4560, Note_on_c, 9, 54, 0
3, 4560, Note_on_c, 9, 42, 0
3, 4560, Note_on_c, 9, 35, 100
3, 4560, Note_on_c, 9, 42, 90
3, 4560, Note_on_c, 9, 54, 60
3, 4590, Note_on_c, 9, 54, 0
3, 4590, Note_on_c, 9, 42, 0
3, 4590, Note_on_c, 9, 35, 0
3, 4590, Note_on_c, 9, 42, 50
3, 4590, Note_on_c, 9, 54, 40
3, 4620, Note_on_c, 9, 54, 0
3, 4620, Note_on_c, 9, 42, 0
3, 4620, Note_on_c, 9, 42, 115
3, 4620, Note_on_c, 9, 54, 90
3, 4650, Note_on_c, 9, 54, 0
3, 4650, Note_on_c, 9, 42, 0
3, 4650, Note_on_c, 9, 42, 50
3, 4650, Note_on_c, 9, 54, 40
3, 4680, Note_on_c, 9, 54, 0
3, 4680, Note_on_c, 9, 42, 0
3, 4680, Note_on_c, 9, 35, 100
3, 4680, Note_on_c, 9, 38, 100
3, 4680, Note_on_c, 9, 42, 90
3, 4680, Note_on_c, 9, 54, 60
3, 4710, Note_on_c, 9, 54, 0
3, 4710, Note_on_c, 9, 35, 0
3, 4710, Note_on_c, 9, 38, 0
3, 4710, Note_on_c, 9, 42, 0
3, 4710, Note_on_c, 9, 42, 60
3, 4710, Note_on_c, 9, 54, 40
3, 4740, Note_on_c, 9, 54, 0
3, 4740, Note_on_c, 9, 42, 0
3, 4740, Note_on_c, 9, 42, 115
3, 4740, Note_on_c, 9, 48, 100
3, 4740, Note_on_c, 9, 54, 90
3, 4770, Note_on_c, 9, 54, 0
3, 4770, Note_on_c, 9, 48, 0
3, 4770, Note_on_c, 9, 42, 0
3, 4770, Note_on_c, 9, 42, 50
3, 4770, Note_on_c, 9, 48, 90
3, 4770, Note_on_c, 9, 54, 40
3, 4800, Note_on_c, 9, 54, 0
3, 4800, Note_on_c, 9, 48, 0
3, 4800, Note_on_c, 9, 42, 0
3, 4800, Note_on_c, 9, 35, 100
3, 4800, Note_on_c, 9, 42, 90
3, 4800, Note_on_c, 9, 54, 60
3, 4830, Note_on_c, 9, 54, 0
3, 4830, Note_on_c, 9, 42, 0
3, 4830, Note_on_c, 9, 35, 0
3, 4830, Note_on_c, 9, 42, 40
3, 4830, Note_on_c, 9, 54, 40
3, 4860, Note_on_c, 9, 54, 0
3, 4860, Note_on_c, 9, 42, 0
3, 4860, Note_on_c, 9, 42, 115
3, 4860, Note_on_c, 9, 54, 90
3, 4890, Note_on_c, 9, 54, 0
3, 4890, Note_on_c, 9, 42, 0
3, 4890, Note_on_c, 9, 42, 50
3, 4890, Note_on_c, 9, 54, 40
3, 4920, Note_on_c, 9, 54, 0
3, 4920, Note_on_c, 9, 42, 0
3, 4920, Note_on_c, 9, 35, 100
3, 4920, Note_on_c, 9, 38, 100
3, 4920, Note_on_c, 9, 42, 90
3, 4920, Note_on_c, 9, 54, 60
3, 4950, Note_on_c, 9, 54, 0
3, 4950, Note_on_c, 9, 35, 0
3, 4950, Note_on_c, 9, 38, 0
3, 4950, Note_on_c, 9, 42, 0
3, 4950, Note_on_c, 9, 42, 40
3, 4950, Note_on_c, 9, 54, 40
3, 4980, Note_on_c, 9, 54, 0
3, 4980, Note_on_c, 9, 42, 0
3, 4980, Note_on_c, 9, 42, 115
3, 4980, Note_on_c, 9, 54, 90
3, 5010, Note_on_c, 9, 54, 0
3, 5010, Note_on_c, 9, 42, 0
3, 5010, Note_on_c, 9, 42, 50
3, 5010, Note_on_c, 9, 54, 40
3, 5040, Note_on_c, 9, 54, 0
3, 5040, Note_on_c, 9, 42, 0
3, 5040, Note_on_c, 9, 35, 100
3, 5040, Note_on_c, 9, 42, 90
3, 5040, Note_on_c, 9, 54, 60
3, 5070, Note_on_c, 9, 54, 0
3, 5070, Note_on_c, 9, 42, 0
3, 5070, Note_on_c, 9, 35, 0
3, 5070, Note_on_c, 9, 42, 50
3, 5070, Note_on_c, 9, 54, 40
3, 5100, Note_on_c, 9, 54, 0
3, 5100, Note_on_c, 9, 42, 0
3, 5100, Note_on_c, 9, 42, 115
3, 5100, Note_on_c, 9, 54, 90
3, 5130, Note_on_c, 9, 54, 0
3, 5130, Note_on_c, 9, 42, 0
3, 5130, Note_on_c, 9, 42, 50
3, 5130, Note_on_c, 9, 54, 40
3, 5160, Note_on_c, 9, 54, 0
3, 5160, Note_on_c, 9, 42, 0
3, 5160, Note_on_c, 9, 35, 100
3, 5160, Note_on_c, 9, 38, 100
3, 5160, Note_on_c, 9, 42, 90
3, 5160, Note_on_c, 9, 54, 60
3, 5190, Note_on_c, 9, 54, 0
3, 5190, Note_on_c, 9, 35, 0
3, 5190, Note_on_c, 9, 38, 0
3, 5190, Note_on_c, 9, 42, 0
3, 5190, Note_on_c, 9, 42, 60
3, 5190, Note_on_c, 9, 54, 40
3, 5220, Note_on_c, 9, 54, 0
3, 5220, Note_on_c, 9, 42, 0
3, 5220, Note_on_c, 9, 42, 115
3, 5220, Note_on_c, 9, 54, 90
3, 5250, Note_on_c, 9, 54, 0
3, 5250, Note_on_c, 9, 42, 0
3, 5250, Note_on_c, 9, 42, 50
3, 5250, Note_on_c, 9, 54, 40
3, 5280, Note_on_c, 9, 54, 0
3, 5280, Note_on_c, 9, 42, 0
3, 5280, Note_on_c, 9, 35, 100
3, 5280, Note_on_c, 9, 42, 90
3, 5280, Note_on_c, 9, 54, 60
3, 5310, Note_on_c, 9, 54, 0
3, 5310, Note_on_c, 9, 42, 0
3, 5310, Note_on_c, 9, 35, 0
3, 5310, Note_on_c, 9, 42, 40
3, 5310, Note_on_c, 9, 54, 40
3, 5340, Note_on_c, 9, 54, 0
3, 5340, Note_on_c, 9, 42, 0
3, 5340, Note_on_c, 9, 42, 115
3, 5340, Note_on_c, 9, 54, 90
3, 5370, Note_on_c, 9, 54, 0
3, 5370, Note_on_c, 9, 42, 0
3, 5370, Note_on_c, 9, 42, 50
3, 5370, Note_on_c, 9, 54, 40
3, 5400, Note_on_c, 9, 54, 0
3, 5400, Note_on_c, 9, 42, 0
3, 5400, Note_on_c, 9, 35, 100
3, 5400, Note_on_c, 9, 38, 100
3, 5400, Note_on_c, 9, 42, 90
3, 5400, Note_on_c, 9, 54, 60
3, 5430, Note_on_c, 9, 54, 0
3, 5430, Note_on_c, 9, 35, 0
3, 5430, Note_on_c, 9, 38, 0
3, 5430, Note_on_c, 9, 42, 0
3, 5430, Note_on_c, 9, 42, 40
3, 5430, Note_on_c, 9, 54, 40
3, 5460, Note_on_c, 9, 54, 0
3, 5460, Note_on_c, 9, 42, 0
3, 5460, Note_on_c, 9, 42, 115
3, 5460, Note_on_c, 9, 54, 90
3, 5490, Note_on_c, 9, 54, 0
3, 5490, Note_on_c, 9, 42, 0
3, 5490, Note_on_c, 9, 42, 50
3, 5490, Note_on_c, 9, 54, 40
3, 5520, Note_on_c, 9, 54, 0
3, 5520, Note_on_c, 9, 42, 0
3, 5520, Note_on_c, 9, 35, 100
3, 5520, Note_on_c, 9, 42, 90
3, 5520, Note_on_c, 9, 54, 60
3, 5550, Note_on_c, 9, 54, 0
3, 5550, Note_on_c, 9, 42, 0
3, 5550, Note_on_c, 9, 35, 0
3, 5550, Note_on_c, 9, 42, 50
3, 5550, Note_on_c, 9, 54, 40
3, 5580, Note_on_c, 9, 54, 0
3, 5580, Note_on_c, 9, 42, 0
3, 5580, Note_on_c, 9, 42, 115
3, 5580, Note_on_c, 9, 54, 90
3, 5610, Note_on_c, 9, 54, 0
3, 5610, Note_on_c, 9, 42, 0
3, 5610, Note_on_c, 9, 42, 50
3, 5610, Note_on_c, 9, 54, 40
3, 5640, Note_on_c, 9, 54, 0
3, 5640, Note_on_c, 9, 42, 0
3, 5640, Note_on_c, 9, 35, 100
3, 5640, Note_on_c, 9, 38, 100
3, 5640, Note_on_c, 9, 42, 90
3, 5640, Note_on_c, 9, 54, 60
3, 5670, Note_on_c, 9, 54, 0
3, 5670, Note_on_c, 9, 35, 0
3, 5670, Note_on_c, 9, 38, 0
3, 5670, Note_on_c, 9, 42, 0
3, 5670, Note_on_c, 9, 42, 60
3, 5670, Note_on_c, 9, 54, 40
3, 5700, Note_on_c, 9, 54, 0
3, 5700, Note_on_c, 9, 42, 0
3, 5700, Note_on_c, 9, 66, 100
3, 5700, Note_on_c, 9, 42, 115
3, 5700, Note_on_c, 9, 54, 90
3, 5730, Note_on_c, 9, 54, 0
3, 5730, Note_on_c, 9, 42, 0
3, 5730, Note_on_c, 9, 66, 0
3, 5730, Note_on_c, 9, 66, 100
3, 5730, Note_on_c, 9, 46, 54
3, 5730, Note_on_c, 9, 54, 40
3, 5760, Note_on_c, 9, 54, 0
3, 5760, Note_on_c, 9, 46, 0
3, 5760, Note_on_c, 9, 66, 0
3, 5760, Note_on_c, 9, 35, 100
3, 5760, Note_on_c, 9, 42, 90
3, 5760, Note_on_c, 9, 54, 60
3, 5790, Note_on_c, 9, 54, 0
3, 5790, Note_on_c, 9, 42, 0
3, 5790, Note_on_c, 9, 35, 0
3, 5790, Note_on_c, 9, 42, 40
3, 5790, Note_on_c, 9, 54, 40
3, 5820, Note_on_c, 9, 54, 0
3, 5820, Note_on_c, 9, 42, 0
3, 5820, Note_on_c, 9, 42, 115
3, 5820, Note_on_c, 9, 54, 90
3, 5850, Note_on_c, 9, 54, 0
3, 5850, Note_on_c, 9, 42, 0
3, 5850, Note_on_c, 9, 42, 50
3, 5850, Note_on_c, 9, 54, 40
3, 5880, Note_on_c, 9, 54, 0
3, 5880, Note_on_c, 9, 42, 0
3, 5880, Note_on_c, 9, 35, 100
3, 5880, Note_on_c, 9, 38, 100
3, 5880, Note_on_c, 9, 42, 90
3, 5880, Note_on_c, 9, 54, 60
3, 5910, Note_on_c, 9, 54, 0
3, 5910, Note_on_c, 9, 35, 0
3, 5910, Note_on_c, 9, 38, 0
3, 5910, Note_on_c, 9, 42, 0
3, 5910, Note_on_c, 9, 42, 40
3, 5910, Note_on_c, 9, 54, 40
3, 5940, Note_on_c, 9, 54, 0
3, 5940, Note_on_c, 9, 42, 0
3, 5940, Note_on_c, 9, 42, 115
3, 5940, Note_on_c, 9, 54, 90
3, 5970, Note_on_c, 9, 54, 0
3, 5970, Note_on_c, 9, 42, 0
3, 5970, Note_on_c, 9, 42, 50
3, 5970, Note_on_c, 9, 54, 40
3, 6000, Note_on_c, 9, 54, 0
3, 6000, Note_on_c, 9, 42, 0
3, 6000, Note_on_c, 9, 35, 100
3, 6000, Note_on_c, 9, 42, 90
3, 6000, Note_on_c, 9, 54, 60
3, 6030, Note_on_c, 9, 54, 0
3, 6030, Note_on_c, 9, 42, 0
3, 6030, Note_on_c, 9, 35, 0
3, 6030, Note_on_c, 9, 42, 50
3, 6030, Note_on_c, 9, 54, 40
3, 6060, Note_on_c, 9, 54, 0
3, 6060, Note_on_c, 9, 42, 0
3, 6060, Note_on_c, 9, 42, 115
3, 6060, Note_on_c, 9, 54, 90
3, 6090, Note_on_c, 9, 54, 0
3, 6090, Note_on_c, 9, 42, 0
3, 6090, Note_on_c, 9, 42, 50
3, 6090, Note_on_c, 9, 54, 40
3, 6120, Note_on_c, 9, 54, 0
3, 6120, Note_on_c, 9, 42, 0
3, 6120, Note_on_c, 9, 35, 100
3, 6120, Note_on_c, 9, 38, 100
3, 6120, Note_on_c, 9, 42, 90
3, 6120, Note_on_c, 9, 54, 60
3, 6150, Note_on_c, 9, 54, 0
3, 6150, Note_on_c, 9, 35, 0
3, 6150, Note_on_c, 9, 38, 0
3, 6150, Note_on_c, 9, 42, 0
3, 6150, Note_on_c, 9, 42, 60
3, 6150, Note_on_c, 9, 54, 40
3, 6180, Note_on_c, 9, 54, 0
3, 6180, Note_on_c, 9, 42, 0
3, 6180, Note_on_c, 9, 42, 115
3, 6180, Note_on_c, 9, 54, 90
3, 6210, Note_on_c, 9, 54, 0
3, 6210, Note_on_c, 9, 42, 0
3, 6210, Note_on_c, 9, 46, 54
3, 6210, Note_on_c, 9, 54, 40
3, 6240, Note_on_c, 9, 54, 0
3, 6240, Note_on_c, 9, 46, 0
3, 6240, Note_on_c, 9, 35, 100
3, 6240, Note_on_c, 9, 42, 90
3, 6240, Note_on_c, 9, 54, 60
3, 6270, Note_on_c, 9, 54, 0
3, 6270, Note_on_c, 9, 42, 0
3, 6270, Note_on_c, 9, 35, 0
3, 6270, Note_on_c, 9, 42, 40
3, 6270, Note_on_c, 9, 54, 40
3, 6300, Note_on_c, 9, 54, 0
3, 6300, Note_on_c, 9, 42, 0
3, 6300, Note_on_c, 9, 42, 115
3, 6300, Note_on_c, 9, 54, 90
3, 6330, Note_on_c, 9, 54, 0
3, 6330, Note_on_c, 9, 42, 0
3, 6330, Note_on_c, 9, 42, 50
3, 6330, Note_on_c, 9, 54, 40
3, 6360, Note_on_c, 9, 54, 0
3, 6360, Note_on_c, 9, 42, 0
3, 6360, Note_on_c, 9, 35, 100
3, 6360, Note_on_c, 9, 38, 100
3, 6360, Note_on_c, 9, 42, 90
3, 6360, Note_on_c, 9, 54, 60
3, 6390, Note_on_c, 9, 54, 0
3, 6390, Note_on_c, 9, 35, 0
3, 6390, Note_on_c, 9, 38, 0
3, 6390, Note_on_c, 9, 42, 0
3, 6390, Note_on_c, 9, 42, 40
3, 6390, Note_on_c, 9, 54, 40
3, 6420, Note_on_c, 9, 54, 0
3, 6420, Note_on_c, 9, 42, 0
3, 6420, Note_on_c, 9, 42, 115
3, 6420, Note_on_c, 9, 54, 90
3, 6450, Note_on_c, 9, 54, 0
3, 6450, Note_on_c, 9, 42, 0
3, 6450, Note_on_c, 9, 42, 50
3, 6450, Note_on_c, 9, 54, 40
3, 6480, Note_on_c, 9, 54, 0
3, 6480, Note_on_c, 9, 42, 0
3, 6480, Note_on_c, 9, 35, 100
3, 6480, Note_on_c, 9, 42, 90
3, 6480, Note_on_c, 9, 54, 60
3, 6510, Note_on_c, 9, 54, 0
3, 6510, Note_on_c, 9, 42, 0
3, 6510, Note_on_c, 9, 35, 0
3, 6510, Note_on_c, 9, 42, 50
3, 6510, Note_on_c, 9, 54, 40
3, 6540, Note_on_c, 9, 54, 0
3, 6540, Note_on_c, 9, 42, 0
3, 6540, Note_on_c, 9, 42, 115
3, 6540, Note_on_c, 9, 54, 90
3, 6570, Note_on_c, 9, 54, 0
3, 6570, Note_on_c, 9, 42, 0
3, 6570, Note_on_c, 9, 42, 50
3, 6570, Note_on_c, 9, 54, 40
3, 6600, Note_on_c, 9, 54, 0
3, 6600, Note_on_c, 9, 42, 0
3, 6600, Note_on_c, 9, 35, 100
3, 6600, Note_on_c, 9, 38, 100
3, 6600, Note_on_c, 9, 42, 90
3, 6600, Note_on_c, 9, 54, 60
3, 6630, Note_on_c, 9, 54, 0
3, 6630, Note_on_c, 9, 35, 0
3, 6630, Note_on_c, 9, 38, 0
3, 6630, Note_on_c, 9, 42, 0
3, 6630, Note_on_c, 9, 42, 60
3, 6630, Note_on_c, 9, 54, 40
3, 6660, Note_on_c, 9, 54, 0
3, 6660, Note_on_c, 9, 42, 0
3, 6660, Note_on_c, 9, 42, 115
3, 6660, Note_on_c, 9, 48, 100
3, 6660, Note_on_c, 9, 54, 90
3, 6690, Note_on_c, 9, 54, 0
3, 6690, Note_on_c, 9, 48, 0
3, 6690, Note_on_c, 9, 42, 0
3, 6690, Note_on_c, 9, 42, 50
3, 6690, Note_on_c, 9, 48, 90
3, 6690, Note_on_c, 9, 54, 40
3, 6720, Note_on_c, 9, 54, 0
3, 6720, Note_on_c, 9, 48, 0
3, 6720, Note_on_c, 9, 42, 0
3, 6720, Note_on_c, 9, 35, 100
3, 6720, Note_on_c, 9, 42, 90
3, 6720, Note_on_c, 9, 54, 60
3, 6750, Note_on_c, 9, 54, 0
3, 6750, Note_on_c, 9, 42, 0
3, 6750, Note_on_c, 9, 35, 0
3, 6750, Note_on_c, 9, 42, 40
3, 6750, Note_on_c, 9, 54, 40
3, 6780, Note_on_c, 9, 54, 0
3, 6780, Note_on_c, 9, 42, 0
3, 6780, Note_on_c, 9, 42, 115
3, 6780, Note_on_c, 9, 54, 90
3, 6810, Note_on_c, 9, 54, 0
3, 6810, Note_on_c, 9, 42, 0
3, 6810, Note_on_c, 9, 42, 50
3, 6810, Note_on_c, 9, 54, 40
3, 6840, Note_on_c, 9, 54, 0
3, 6840, Note_on_c, 9, 42, 0
3, 6840, Note_on_c, 9, 35, 100
3, 6840, Note_on_c, 9, 38, 100
3, 6840, Note_on_c, 9, 42, 90
3, 6840, Note_on_c, 9, 54, 60
3, 6870, Note_on_c, 9, 54, 0
3, 6870, Note_on_c, 9, 35, 0
3, 6870, Note_on_c, 9, 38, 0
3, 6870, Note_on_c, 9, 42, 0
3, 6870, Note_on_c, 9, 42, 40
3, 6870, Note_on_c, 9, 54, 40
3, 6900, Note_on_c, 9, 54, 0
3, 6900, Note_on_c, 9, 42, 0
3, 6900, Note_on_c, 9, 42, 115
3, 6900, Note_on_c, 9, 54, 90
3, 6930, Note_on_c, 9, 54, 0
3, 6930, Note_on_c, 9, 42, 0
3, 6930, Note_on_c, 9, 42, 50
3, 6930, Note_on_c, 9, 54, 40
3, 6960, Note_on_c, 9, 54, 0
3, 6960, Note_on_c, 9, 42, 0
3, 6960, Note_on_c, 9, 35, 100
3, 6960, Note_on_c, 9, 42, 90
3, 6960, Note_on_c, 9, 54, 60
3, 6990, Note_on_c, 9, 54, 0
3, 6990, Note_on_c, 9, 42, 0
3, 6990, Note_on_c, 9, 35, 0
3, 6990, Note_on_c, 9, 42, 50
3, 6990, Note_on_c, 9, 54, 40
3, 7020, Note_on_c, 9, 54, 0
3, 7020, Note_on_c, 9, 42, 0
3, 7020, Note_on_c, 9, 42, 115
3, 7020, Note_on_c, 9, 54, 90
3, 7050, Note_on_c, 9, 54, 0
3, 7050, Note_on_c, 9, 42, 0
3, 7050, Note_on_c, 9, 42, 50
3, 7050, Note_on_c, 9, 54, 40
3, 7080, Note_on_c, 9, 54, 0
3, 7080, Note_on_c, 9, 42, 0
3, 7080, Note_on_c, 9, 35, 100
3, 7080, Note_on_c, 9, 38, 100
3, 7080, Note_on_c, 9, 42, 90
3, 7080, Note_on_c, 9, 54, 60
3, 7110, Note_on_c, 9, 54, 0
3, 7110, Note_on_c, 9, 35, 0
3, 7110, Note_on_c, 9, 38, 0
3, 7110, Note_on_c, 9, 42, 0
3, 7110, Note_on_c, 9, 42, 60
3, 7110, Note_on_c, 9, 54, 40
3, 7140, Note_on_c, 9, 54, 0
3, 7140, Note_on_c, 9, 42, 0
3, 7140, Note_on_c, 9, 42, 115
3, 7140, Note_on_c, 9, 54, 90
3, 7170, Note_on_c, 9, 54, 0
3, 7170, Note_on_c, 9, 42, 0
3, 7170, Note_on_c, 9, 42, 50
3, 7170, Note_on_c, 9, 54, 40
3, 7200, Note_on_c, 9, 54, 0
3, 7200, Note_on_c, 9, 42, 0
3, 7200, Note_on_c, 9, 35, 100
3, 7200, Note_on_c, 9, 42, 90
3, 7230, Note_on_c, 9, 42, 0
3, 7230, Note_on_c, 9, 35, 0
3, 7230, Note_on_c, 9, 42, 40
3, 7260, Note_on_c, 9, 42, 0
3, 7260, Note_on_c, 9, 63, 100
3, 7260, Note_on_c, 9, 42, 115
3, 7290, Note_on_c, 9, 42, 0
3, 7290, Note_on_c, 9, 63, 0
3, 7290, Note_on_c, 9, 42, 50
3, 7320, Note_on_c, 9, 42, 0
3, 7320, Note_on_c, 9, 35, 100
3, 7320, Note_on_c, 9, 49, 100
3, 7320, Note_on_c, 9, 42, 90
3, 7350, Note_on_c, 9, 42, 0
3, 7350, Note_on_c, 9, 49, 0
3, 7350, Note_on_c, 9, 35, 0
3, 7350, Note_on_c, 9, 42, 40
3, 7380, Note_on_c, 9, 42, 0
3, 7380, Note_on_c, 9, 42, 115
3, 7410, Note_on_c, 9, 42, 0
3, 7410, Note_on_c, 9, 35, 90
3, 7410, Note_on_c, 9, 42, 50
3, 7440, Note_on_c, 9, 42, 0
3, 7440, Note_on_c, 9, 35, 0
3, 7440, Note_on_c, 9, 38, 100
3, 7470, Note_on_c, 9, 38, 0
3, 7470, Note_on_c, 9, 38, 80
3, 7500, Note_on_c, 9, 38, 0
3, 7530, Note_on_c, 9, 38, 80
3, 7560, Note_on_c, 9, 38, 0
3, 7560, Note_on_c, 9, 35, 100
3, 7560, Note_on_c, 9, 38, 115
3, 7590, Note_on_c, 9, 38, 0
3, 7590, Note_on_c, 9, 35, 0
3, 7620, Note_on_c, 9, 65, 100
3, 7620, Note_on_c, 9, 38, 127
3, 7620, Note_on_c, 9, 49, 100
3, 7650, Note_on_c, 9, 49, 0
3, 7650, Note_on_c, 9, 38, 0
3, 7650, Note_on_c, 9, 65, 0
3, 7650, Note_on_c, 9, 65, 100
3, 7650, Note_on_c, 9, 42, 50
3, 7680, Note_on_c, 9, 42, 0
3, 7680, Note_on_c, 9, 65, 0
3, 7680, Note_on_c, 9, 35, 100
3, 7680, Note_on_c, 9, 42, 90
3, 7680, Note_on_c, 9, 54, 60
3, 7710, Note_on_c, 9, 54, 0
3, 7710, Note_on_c, 9, 42, 0
3, 7710, Note_on_c, 9, 35, 0
3, 7710, Note_on_c, 9, 42, 40
3, 7710, Note_on_c, 9, 54, 40
3, 7740, Note_on_c, 9, 54, 0
3, 7740, Note_on_c, 9, 42, 0
3, 7740, Note_on_c, 9, 42, 115
3, 7740, Note_on_c, 9, 54, 90
3, 7770, Note_on_c, 9, 54, 0
3, 7770, Note_on_c, 9, 42, 0
3, 7770, Note_on_c, 9, 42, 50
3, 7770, Note_on_c, 9, 54, 40
3, 7800, Note_on_c, 9, 54, 0
3, 7800, Note_on_c, 9, 42, 0
3, 7800, Note_on_c, 9, 35, 100
3, 7800, Note_on_c, 9, 38, 100
3, 7800, Note_on_c, 9, 42, 90
3, 7800, Note_on_c, 9, 54, 60
3, 7830, Note_on_c, 9, 54, 0
3, 7830, Note_on_c, 9, 35, 0
3, 7830, Note_on_c, 9, 38, 0
3, 7830, Note_on_c, 9, 42, 0
3, 7830, Note_on_c, 9, 42, 40
3, 7830, Note_on_c, 9, 54, 40
3, 7860, Note_on_c, 9, 54, 0
3, 7860, Note_on_c, 9, 42, 0
3, 7860, Note_on_c, 9, 42, 115
3, 7860, Note_on_c, 9, 54, 90
3, 7890, Note_on_c, 9, 54, 0
3, 7890, Note_on_c, 9, 42, 0
3, 7890, Note_on_c, 9, 42, 50
3, 7890, Note_on_c, 9, 54, 40
3, 7920, Note_on_c, 9, 54, 0
3, 7920, Note_on_c, 9, 42, 0
3, 7920, Note_on_c, 9, 35, 100
3, 7920, Note_on_c, 9, 42, 90
3, 7920, Note_on_c, 9, 54, 60
3, 7950, Note_on_c, 9, 54, 0
3, 7950, Note_on_c, 9, 42, 0
3, 7950, Note_on_c, 9, 35, 0
3, 7950, Note_on_c, 9, 42, 50
3, 7950, Note_on_c, 9, 54, 40
3, 7980, Note_on_c, 9, 54, 0
3, 7980, Note_on_c, 9, 42, 0
3, 7980, Note_on_c, 9, 42, 115
3, 7980, Note_on_c, 9, 54, 90
3, 8010, Note_on_c, 9, 54, 0
3, 8010, Note_on_c, 9, 42, 0
3, 8010, Note_on_c, 9, 42, 50
3, 8010, Note_on_c, 9, 54, 40
3, 8040, Note_on_c, 9, 54, 0
3, 8040, Note_on_c, 9, 42, 0
3, 8040, Note_on_c, 9, 35, 100
3, 8040, Note_on_c, 9, 38, 100
3, 8040, Note_on_c, 9, 42, 90
3, 8040, Note_on_c, 9, 54, 60
3, 8070, Note_on_c, 9, 54, 0
3, 8070, Note_on_c, 9, 35, 0
3, 8070, Note_on_c, 9, 38, 0
3, 8070, Note_on_c, 9, 42, 0
3, 8070, Note_on_c, 9, 42, 60
3, 8070, Note_on_c, 9, 54, 40
3, 8100, Note_on_c, 9, 54, 0
3, 8100, Note_on_c, 9, 42, 0
3, 8100, Note_on_c, 9, 42, 115
3, 8100, Note_on_c, 9, 54, 90
3, 8130, Note_on_c, 9, 54, 0
3, 8130, Note_on_c, 9, 42, 0
3, 8130, Note_on_c, 9, 38, 70
3, 8130, Note_on_c, 9, 42, 50
3, 8130, Note_on_c, 9, 54, 40
3, 8160, Note_on_c, 9, 54, 0
3, 8160, Note_on_c, 9, 42, 0
3, 8160, Note_on_c, 9, 38, 0
3, 8160, Note_on_c, 9, 35, 100
3, 8160, Note_on_c, 9, 42, 90
3, 8160, Note_on_c, 9, 54, 60
3, 8190, Note_on_c, 9, 54, 0
3, 8190, Note_on_c, 9, 42, 0
3, 8190, Note_on_c, 9, 35, 0
3, 8190, Note_on_c, 9, 42, 40
3, 8190, Note_on_c, 9, 54, 40
3, 8220, Note_on_c, 9, 54, 0
3, 8220, Note_on_c, 9, 42, 0
3, 8220, Note_on_c, 9, 42, 115
3, 8220, Note_on_c, 9, 54, 90
3, 8250, Note_on_c, 9, 54, 0
3, 8250, Note_on_c, 9, 42, 0
3, 8250, Note_on_c, 9, 42, 50
3, 8250, Note_on_c, 9, 54, 40
3, 8280, Note_on_c, 9, 54, 0
3, 8280, Note_on_c, 9, 42, 0
3, 8280, Note_on_c, 9, 35, 100
3, 8280, Note_on_c, 9, 38, 100
3, 8280, Note_on_c, 9, 42, 90
3, 8280, Note_on_c, 9, 54, 60
3, 8310, Note_on_c, 9, 54, 0
3, 8310, Note_on_c, 9, 35, 0
3, 8310, Note_on_c, 9, 38, 0
3, 8310, Note_on_c, 9, 42, 0
3, 8310, Note_on_c, 9, 42, 40
3, 8310, Note_on_c, 9, 54, 40
3, 8340, Note_on_c, 9, 54, 0
3, 8340, Note_on_c, 9, 42, 0
3, 8340, Note_on_c, 9, 42, 115
3, 8340, Note_on_c, 9, 54, 90
3, 8370, Note_on_c, 9, 54, 0
3, 8370, Note_on_c, 9, 42, 0
3, 8370, Note_on_c, 9, 42, 50
3, 8370, Note_on_c, 9, 54, 40
3, 8400, Note_on_c, 9, 54, 0
3, 8400, Note_on_c, 9, 42, 0
3, 8400, Note_on_c, 9, 35, 100
3, 8400, Note_on_c, 9, 42, 90
3, 8400, Note_on_c, 9, 54, 60
3, 8430, Note_on_c, 9, 54, 0
3, 8430, Note_on_c, 9, 42, 0
3, 8430, Note_on_c, 9, 35, 0
3, 8430, Note_on_c, 9, 42, 50
3, 8430, Note_on_c, 9, 54, 40
3, 8460, Note_on_c, 9, 54, 0
3, 8460, Note_on_c, 9, 42, 0
3, 8460, Note_on_c, 9, 42, 115
3, 8460, Note_on_c, 9, 54, 90
3, 8490, Note_on_c, 9, 54, 0
3, 8490, Note_on_c, 9, 42, 0
3, 8490, Note_on_c, 9, 42, 50
3, 8490, Note_on_c, 9, 54, 40
3, 8520, Note_on_c, 9, 54, 0
3, 8520, Note_on_c, 9, 42, 0
3, 8520, Note_on_c, 9, 35, 100
3, 8520, Note_on_c, 9, 38, 100
3, 8520, Note_on_c, 9, 42, 90
3, 8520, Note_on_c, 9, 54, 60
3, 8550, Note_on_c, 9, 54, 0
3, 8550, Note_on_c, 9, 35, 0
3, 8550, Note_on_c, 9, 38, 0
3, 8550, Note_on_c, 9, 42, 0
3, 8550, Note_on_c, 9, 42, 60
3, 8550, Note_on_c, 9, 54, 40
3, 8580, Note_on_c, 9, 54, 0
3, 8580, Note_on_c, 9, 42, 0
3, 8580, Note_on_c, 9, 42, 115
3, 8580, Note_on_c, 9, 48, 100
3, 8580, Note_on_c, 9, 54, 90
3, 8610, Note_on_c, 9, 54, 0
3, 8610, Note_on_c, 9, 48, 0
3, 8610, Note_on_c, 9, 42, 0
3, 8610, Note_on_c, 9, 42, 50
3, 8610, Note_on_c, 9, 48, 90
3, 8610, Note_on_c, 9, 54, 40
3, 8640, Note_on_c, 9, 54, 0
3, 8640, Note_on_c, 9, 48, 0
3, 8640, Note_on_c, 9, 42, 0
3, 8640, Note_on_c, 9, 35, 100
3, 8640, Note_on_c, 9, 42, 90
3, 8640, Note_on_c, 9, 54, 60
3, 8670, Note_on_c, 9, 54, 0
3, 8670, Note_on_c, 9, 42, 0
3, 8670, Note_on_c, 9, 35, 0
3, 8670, Note_on_c, 9, 42, 40
3, 8670, Note_on_c, 9, 54, 40
3, 8700, Note_on_c, 9, 54, 0
3, 8700, Note_on_c, 9, 42, 0
3, 8700, Note_on_c, 9, 42, 115
3, 8700, Note_on_c, 9, 54, 90
3, 8730, Note_on_c, 9, 54, 0
3, 8730, Note_on_c, 9, 42, 0
3, 8730, Note_on_c, 9, 42, 50
3, 8730, Note_on_c, 9, 54, 40
3, 8760, Note_on_c, 9, 54, 0
3, 8760, Note_on_c, 9, 42, 0
3, 8760, Note_on_c, 9, 35, 100
3, 8760, Note_on_c, 9, 38, 100
3, 8760, Note_on_c, 9, 42, 90
3, 8760, Note_on_c, 9, 54, 60
3, 8790, Note_on_c, 9, 54, 0
3, 8790, Note_on_c, 9, 35, 0
3, 8790, Note_on_c, 9, 38, 0
3, 8790, Note_on_c, 9, 42, 0
3, 8790, Note_on_c, 9, 42, 40
3, 8790, Note_on_c, 9, 54, 40
3, 8820, Note_on_c, 9, 54, 0
3, 8820, Note_on_c, 9, 42, 0
3, 8820, Note_on_c, 9, 42, 115
3, 8820, Note_on_c, 9, 54, 90
3, 8850, Note_on_c, 9, 54, 0
3, 8850, Note_on_c, 9, 42, 0
3, 8850, Note_on_c, 9, 42, 50
3, 8850, Note_on_c, 9, 54, 40
3, 8880, Note_on_c, 9, 54, 0
3, 8880, Note_on_c, 9, 42, 0
3, 8880, Note_on_c, 9, 35, 100
3, 8880, Note_on_c, 9, 42, 90
3, 8880, Note_on_c, 9, 54, 60
3, 8910, Note_on_c, 9, 54, 0
3, 8910, Note_on_c, 9, 42, 0
3, 8910, Note_on_c, 9, 35, 0
3, 8910, Note_on_c, 9, 42, 50
3, 8910, Note_on_c, 9, 54, 40
3, 8940, Note_on_c, 9, 54, 0
3, 8940, Note_on_c, 9, 42, 0
3, 8940, Note_on_c, 9, 42, 115
3, 8940, Note_on_c, 9, 54, 90
3, 8970, Note_on_c, 9, 54, 0
3, 8970, Note_on_c, 9, 42, 0
3, 8970, Note_on_c, 9, 42, 50
3, 8970, Note_on_c, 9, 54, 40
3, 9000, Note_on_c, 9, 54, 0
3, 9000, Note_on_c, 9, 42, 0
3, 9000, Note_on_c, 9, 35, 100
3, 9000, Note_on_c, 9, 38, 100
3, 9000, Note_on_c, 9, 42, 90
3, 9000, Note_on_c, 9, 54, 60
3, 9030, Note_on_c, 9, 54, 0
3, 9030, Note_on_c, 9, 35, 0
3, 9030, Note_on_c, 9, 38, 0
3, 9030, Note_on_c, 9, 42, 0
3, 9030, Note_on_c, 9, 42, 60
3, 9030, Note_on_c, 9, 54, 40
3, 9060, Note_on_c, 9, 54, 0
3, 9060, Note_on_c, 9, 42, 0
3, 9060, Note_on_c, 9, 42, 115
3, 9060, Note_on_c, 9, 54, 90
3, 9090, Note_on_c, 9, 54, 0
3, 9090, Note_on_c, 9, 42, 0
3, 9090, Note_on_c, 9, 46, 54
3, 9090, Note_on_c, 9, 54, 40
3, 9120, Note_on_c, 9, 54, 0
3, 9120, Note_on_c, 9, 46, 0
3, 9120, Note_on_c, 9, 35, 100
3, 9120, Note_on_c, 9, 42, 90
3, 9120, Note_on_c, 9, 54, 60
3, 9150, Note_on_c, 9, 54, 0
3, 9150, Note_on_c, 9, 42, 0
3, 9150, Note_on_c, 9, 35, 0
3, 9150, Note_on_c, 9, 42, 40
3, 9150, Note_on_c, 9, 54, 40
3, 9180, Note_on_c, 9, 54, 0
3, 9180, Note_on_c, 9, 42, 0
3, 9180, Note_on_c, 9, 42, 115
3, 9180, Note_on_c, 9, 54, 90
3, 9210, Note_on_c, 9, 54, 0
3, 9210, Note_on_c, 9, 42, 0
3, 9210, Note_on_c, 9, 42, 50
3, 9210, Note_on_c, 9, 54, 40
3, 9240, Note_on_c, 9, 54, 0
3, 9240, Note_on_c, 9, 42, 0
3, 9240, Note_on_c, 9, 35, 100
3, 9240, Note_on_c, 9, 38, 100
3, 9240, Note_on_c, 9, 42, 90
3, 9240, Note_on_c, 9, 54, 60
3, 9270, Note_on_c, 9, 54, 0
3, 9270, Note_on_c, 9, 35, 0
3, 9270, Note_on_c, 9, 38, 0
3, 9270, Note_on_c, 9, 42, 0
3, 9270, Note_on_c, 9, 42, 40
3, 9270, Note_on_c, 9, 54, 40
3, 9300, Note_on_c, 9, 54, 0
3, 9300, Note_on_c, 9, 42, 0
3, 9300, Note_on_c, 9, 42, 115
3, 9300, Note_on_c, 9, 54, 90
3, 9330, Note_on_c, 9, 54, 0
3, 9330, Note_on_c, 9, 42, 0
3, 9330, Note_on_c, 9, 42, 50
3, 9330, Note_on_c, 9, 54, 40
3, 9360, Note_on_c, 9, 54, 0
3, 9360, Note_on_c, 9, 42, 0
3, 9360, Note_on_c, 9, 35, 100
3, 9360, Note_on_c, 9, 42, 90
3, 9360, Note_on_c, 9, 54, 60
3, 9390, Note_on_c, 9, 54, 0
3, 9390, Note_on_c, 9, 42, 0
3, 9390, Note_on_c, 9, 35, 0
3, 9390, Note_on_c, 9, 42, 50
3, 9390, Note_on_c, 9, 54, 40
3, 9420, Note_on_c, 9, 54, 0
3, 9420, Note_on_c, 9, 42, 0
3, 9420, Note_on_c, 9, 42, 115
3, 9420, Note_on_c, 9, 54, 90
3, 9450, Note_on_c, 9, 54, 0
3, 9450, Note_on_c, 9, 42, 0
3, 9450, Note_on_c, 9, 42, 50
3, 9450, Note_on_c, 9, 54, 40
3, 9480, Note_on_c, 9, 54, 0
3, 9480, Note_on_c, 9, 42, 0
3, 9480, Note_on_c, 9, 35, 100
3, 9480, Note_on_c, 9, 38, 100
3, 9480, Note_on_c, 9, 42, 90
3, 9480, Note_on_c, 9, 54, 60
3, 9510, Note_on_c, 9, 54, 0
3, 9510, Note_on_c, 9, 35, 0
3, 9510, Note_on_c, 9, 38, 0
3, 9510, Note_on_c, 9, 42, 0
3, 9510, Note_on_c, 9, 42, 60
3, 9510, Note_on_c, 9, 54, 40
3, 9540, Note_on_c, 9, 54, 0
3, 9540, Note_on_c, 9, 42, 0
3, 9540, Note_on_c, 9, 42, 115
3, 9540, Note_on_c, 9, 48, 100
3, 9540, Note_on_c, 9, 54, 90
3, 9570, Note_on_c, 9, 54, 0
3, 9570, Note_on_c, 9, 48, 0
3, 9570, Note_on_c, 9, 42, 0
3, 9570, Note_on_c, 9, 42, 50
3, 9570, Note_on_c, 9, 48, 90
3, 9570, Note_on_c, 9, 54, 40
3, 9600, Note_on_c, 9, 54, 0
3, 9600, Note_on_c, 9, 48, 0
3, 9600, Note_on_c, 9, 42, 0
3, 9600, Note_on_c, 9, 35, 100
3, 9600, Note_on_c, 9, 42, 90
3, 9600, Note_on_c, 9, 54, 60
3, 9630, Note_on_c, 9, 54, 0
3, 9630, Note_on_c, 9, 42, 0
3, 9630, Note_on_c, 9, 35, 0
3, 9630, Note_on_c, 9, 42, 40
3, 9630, Note_on_c, 9, 54, 40
3, 9660, Note_on_c, 9, 54, 0
3, 9660, Note_on_c, 9, 42, 0
3, 9660, Note_on_c, 9, 42, 115
3, 9660, Note_on_c, 9, 54, 90
3, 9690, Note_on_c, 9, 54, 0
3, 9690, Note_on_c, 9, 42, 0
3, 9690, Note_on_c, 9, 42, 50
3, 9690, Note_on_c, 9, 54, 40
3, 9720, Note_on_c, 9, 54, 0
3, 9720, Note_on_c, 9, 42, 0
3, 9720, Note_on_c, 9, 35, 100
3, 9720, Note_on_c, 9, 38, 100
3, 9720, Note_on_c, 9, 42, 90
3, 9720, Note_on_c, 9, 54, 60
3, 9750, Note_on_c, 9, 54, 0
3, 9750, Note_on_c, 9, 35, 0
3, 9750, Note_on_c, 9, 38, 0
3, 9750, Note_on_c, 9, 42, 0
3, 9750, Note_on_c, 9, 42, 40
3, 9750, Note_on_c, 9, 54, 40
3, 9780, Note_on_c, 9, 54, 0
3, 9780, Note_on_c, 9, 42, 0
3, 9780, Note_on_c, 9, 50, 100
3, 9780, Note_on_c, 9, 42, 115
3, 9780, Note_on_c, 9, 54, 90
3, 9810, Note_on_c, 9, 54, 0
3, 9810, Note_on_c, 9, 42, 0
3, 9810, Note_on_c, 9, 50, 0
3, 9810, Note_on_c, 9, 42, 50
3, 9810, Note_on_c, 9, 54, 40
3, 9840, Note_on_c, 9, 54, 0
3, 9840, Note_on_c, 9, 42, 0
3, 9840, Note_on_c, 9, 52, 100
3, 9840, Note_on_c, 9, 35, 100
3, 9840, Note_on_c, 9, 42, 90
3, 9840, Note_on_c, 9, 54, 60
3, 9870, Note_on_c, 9, 54, 0
3, 9870, Note_on_c, 9, 52, 0
3, 9870, Note_on_c, 9, 35, 0
3, 9870, Note_on_c, 9, 42, 0
3, 9870, Note_on_c, 9, 47, 100
3, 9870, Note_on_c, 9, 42, 50
3, 9870, Note_on_c, 9, 54, 40
3, 9900, Note_on_c, 9, 54, 0
3, 9900, Note_on_c, 9, 42, 0
3, 9900, Note_on_c, 9, 47, 0
3, 9900, Note_on_c, 9, 47, 100
3, 9900, Note_on_c, 9, 42, 115
3, 9900, Note_on_c, 9, 54, 90
3, 9930, Note_on_c, 9, 54, 0
3, 9930, Note_on_c, 9, 42, 0
3, 9930, Note_on_c, 9, 47, 0
3, 9930, Note_on_c, 9, 42, 50
3, 9930, Note_on_c, 9, 54, 40
3, 9960, Note_on_c, 9, 54, 0
3, 9960, Note_on_c, 9, 42, 0
3, 9960, Note_on_c, 9, 45, 100
3, 9960, Note_on_c, 9, 35, 100
3, 9960, Note_on_c, 9, 38, 100
3, 9960, Note_on_c, 9, 42, 90
3, 9960, Note_on_c, 9, 54, 60
3, 9990, Note_on_c, 9, 54, 0
3, 9990, Note_on_c, 9, 38, 0
3, 9990, Note_on_c, 9, 45, 0
3, 9990, Note_on_c, 9, 35, 0
3, 9990, Note_on_c, 9, 42, 0
3, 9990, Note_on_c, 9, 42, 60
3, 9990, Note_on_c, 9, 54, 40
3, 10020, Note_on_c, 9, 54, 0
3, 10020, Note_on_c, 9, 42, 0
3, 10020, Note_on_c, 9, 65, 100
3, 10020, Note_on_c, 9, 42, 115
3, 10020, Note_on_c, 9, 54, 90
3, 10050, Note_on_c, 9, 54, 0
3, 10050, Note_on_c, 9, 42, 0
3, 10050, Note_on_c, 9, 65, 0
3, 10050, Note_on_c, 9, 65, 100
3, 10050, Note_on_c, 9, 42, 50
3, 10050, Note_on_c, 9, 54, 40
3, 10080, Note_on_c, 9, 54, 0
3, 10080, Note_on_c, 9, 42, 0
3, 10080, Note_on_c, 9, 65, 0
3, 10080, Note_on_c, 9, 35, 100
3, 10080, Note_on_c, 9, 42, 90
3, 10080, Note_on_c, 9, 49, 80
3, 10080, Note_on_c, 9, 54, 60
3, 10110, Note_on_c, 9, 54, 0
3, 10110, Note_on_c, 9, 35, 0
3, 10110, Note_on_c, 9, 42, 0
3, 10110, Note_on_c, 9, 49, 0
3, 10110, Note_on_c, 9, 42, 40
3, 10110, Note_on_c, 9, 54, 40
3, 10140, Note_on_c, 9, 54, 0
3, 10140, Note_on_c, 9, 42, 0
3, 10140, Note_on_c, 9, 42, 115
3, 10140, Note_on_c, 9, 54, 90
3, 10170, Note_on_c, 9, 54, 0
3, 10170, Note_on_c, 9, 42, 0
3, 10170, Note_on_c, 9, 42, 50
3, 10170, Note_on_c, 9, 54, 40
3, 10200, Note_on_c, 9, 54, 0
3, 10200, Note_on_c, 9, 42, 0
3, 10200, Note_on_c, 9, 35, 100
3, 10200, Note_on_c, 9, 38, 100
3, 10200, Note_on_c, 9, 42, 90
3, 10200, Note_on_c, 9, 54, 60
3, 10230, Note_on_c, 9, 54, 0
3, 10230, Note_on_c, 9, 35, 0
3, 10230, Note_on_c, 9, 38, 0
3, 10230, Note_on_c, 9, 42, 0
3, 10230, Note_on_c, 9, 42, 40
3, 10230, Note_on_c, 9, 54, 40
3, 10260, Note_on_c, 9, 54, 0
3, 10260, Note_on_c, 9, 42, 0
3, 10260, Note_on_c, 9, 42, 115
3, 10260, Note_on_c, 9, 54, 90
3, 10290, Note_on_c, 9, 54, 0
3, 10290, Note_on_c, 9, 42, 0
3, 10290, Note_on_c, 9, 42, 50
3, 10290, Note_on_c, 9, 54, 40
3, 10320, Note_on_c, 9, 54, 0
3, 10320, Note_on_c, 9, 42, 0
3, 10320, Note_on_c, 9, 35, 100
3, 10320, Note_on_c, 9, 42, 90
3, 10320, Note_on_c, 9, 54, 60
3, 10350, Note_on_c, 9, 54, 0
3, 10350, Note_on_c, 9, 42, 0
3, 10350, Note_on_c, 9, 35, 0
3, 10350, Note_on_c, 9, 42, 50
3, 10350, Note_on_c, 9, 54, 40
3, 10380, Note_on_c, 9, 54, 0
3, 10380, Note_on_c, 9, 42, 0
3, 10380, Note_on_c, 9, 42, 115
3, 10380, Note_on_c, 9, 54, 90
3, 10410, Note_on_c, 9, 54, 0
3, 10410, Note_on_c, 9, 42, 0
3, 10410, Note_on_c, 9, 42, 50
3, 10410, Note_on_c, 9, 54, 40
3, 10440, Note_on_c, 9, 54, 0
3, 10440, Note_on_c, 9, 42, 0
3, 10440, Note_on_c, 9, 35, 100
3, 10440, Note_on_c, 9, 38, 100
3, 10440, Note_on_c, 9, 42, 90
3, 10440, Note_on_c, 9, 54, 60
3, 10470, Note_on_c, 9, 54, 0
3, 10470, Note_on_c, 9, 35, 0
3, 10470, Note_on_c, 9, 38, 0
3, 10470, Note_on_c, 9, 42, 0
3, 10470, Note_on_c, 9, 42, 60
3, 10470, Note_on_c, 9, 54, 40
3, 10500, Note_on_c, 9, 54, 0
3, 10500, Note_on_c, 9, 42, 0
3, 10500, Note_on_c, 9, 42, 115
3, 10500, Note_on_c, 9, 54, 90
3, 10530, Note_on_c, 9, 54, 0
3, 10530, Note_on_c, 9, 42, 0
3, 10530, Note_on_c, 9, 42, 50
3, 10530, Note_on_c, 9, 54, 40
3, 10560, Note_on_c, 9, 54, 0
3, 10560, Note_on_c, 9, 42, 0
3, 10560, Note_on_c, 9, 35, 100
3, 10560, Note_on_c, 9, 42, 90
3, 10560, Note_on_c, 9, 54, 60
3, 10590, Note_on_c, 9, 54, 0
3, 10590, Note_on_c, 9, 42, 0
3, 10590, Note_on_c, 9, 35, 0
3, 10590, Note_on_c, 9, 42, 40
3, 10590, Note_on_c, 9, 54, 40
3, 10620, Note_on_c, 9, 54, 0
3, 10620, Note_on_c, 9, 42, 0
3, 10620, Note_on_c, 9, 42, 115
3, 10620, Note_on_c, 9, 54, 90
3, 10650, Note_on_c, 9, 54, 0
3, 10650, Note_on_c, 9, 42, 0
3, 10650, Note_on_c, 9, 42, 50
3, 10650, Note_on_c, 9, 54, 40
3, 10680, Note_on_c, 9, 54, 0
3, 10680, Note_on_c, 9, 42, 0
3, 10680, Note_on_c, 9, 35, 100
3, 10680, Note_on_c, 9, 38, 100
3, 10680, Note_on_c, 9, 42, 90
3, 10680, Note_on_c, 9, 54, 60
3, 10710, Note_on_c, 9, 54, 0
3, 10710, Note_on_c, 9, 35, 0
3, 10710, Note_on_c, 9, 38, 0
3, 10710, Note_on_c, 9, 42, 0
3, 10710, Note_on_c, 9, 42, 40
3, 10710, Note_on_c, 9, 54, 40
3, 10740, Note_on_c, 9, 54, 0
3, 10740, Note_on_c, 9, 42, 0
3, 10740, Note_on_c, 9, 42, 115
3, 10740, Note_on_c, 9, 54, 90
3, 10770, Note_on_c, 9, 54, 0
3, 10770, Note_on_c, 9, 42, 0
3, 10770, Note_on_c, 9, 42, 50
3, 10770, Note_on_c, 9, 54, 40
3, 10800, Note_on_c, 9, 54, 0
3, 10800, Note_on_c, 9, 42, 0
3, 10800, Note_on_c, 9, 35, 100
3, 10800, Note_on_c, 9, 42, 90
3, 10800, Note_on_c, 9, 54, 60
3, 10830, Note_on_c, 9, 54, 0
3, 10830, Note_on_c, 9, 42, 0
3, 10830, Note_on_c, 9, 35, 0
3, 10830, Note_on_c, 9, 42, 50
3, 10830, Note_on_c, 9, 54, 40
3, 10860, Note_on_c, 9, 54, 0
3, 10860, Note_on_c, 9, 42, 0
3, 10860, Note_on_c, 9, 42, 115
3, 10860, Note_on_c, 9, 54, 90
3, 10890, Note_on_c, 9, 54, 0
3, 10890, Note_on_c, 9, 42, 0
3, 10890, Note_on_c, 9, 42, 50
3, 10890, Note_on_c, 9, 54, 40
3, 10920, Note_on_c, 9, 54, 0
3, 10920, Note_on_c, 9, 42, 0
3, 10920, Note_on_c, 9, 35, 100
3, 10920, Note_on_c, 9, 38, 100
3, 10920, Note_on_c, 9, 42, 90
3, 10920, Note_on_c, 9, 54, 60
3, 10950, Note_on_c, 9, 54, 0
3, 10950, Note_on_c, 9, 35, 0
3, 10950, Note_on_c, 9, 38, 0
3, 10950, Note_on_c, 9, 42, 0
3, 10950, Note_on_c, 9, 42, 60
3, 10950, Note_on_c, 9, 54, 40
3, 10980, Note_on_c, 9, 54, 0
3, 10980, Note_on_c, 9, 42, 0
3, 10980, Note_on_c, 9, 42, 115
3, 10980, Note_on_c, 9, 48, 100
3, 10980, Note_on_c, 9, 54, 90
3, 11010, Note_on_c, 9, 54, 0
3, 11010, Note_on_c, 9, 48, 0
3, 11010, Note_on_c, 9, 42, 0
3, 11010, Note_on_c, 9, 42, 50
3, 11010, Note_on_c, 9, 48, 90
3, 11010, Note_on_c, 9, 54, 40
3, 11040, Note_on_c, 9, 54, 0
3, 11040, Note_on_c, 9, 48, 0
3, 11040, Note_on_c, 9, 42, 0
3, 11040, Note_on_c, 9, 35, 100
3, 11040, Note_on_c, 9, 42, 90
3, 11040, Note_on_c, 9, 54, 60
3, 11070, Note_on_c, 9, 54, 0
3, 11070, Note_on_c, 9, 42, 0
3, 11070, Note_on_c, 9, 35, 0
3, 11070, Note_on_c, 9, 42, 40
3, 11070, Note_on_c, 9, 54, 40
3, 11100, Note_on_c, 9, 54, 0
3, 11100, Note_on_c, 9, 42, 0
3, 11100, Note_on_c, 9, 42, 115
3, 11100, Note_on_c, 9, 54, 90
3, 11130, Note_on_c, 9, 54, 0
3, 11130, Note_on_c, 9, 42, 0
3, 11130, Note_on_c, 9, 42, 50
3, 11130, Note_on_c, 9, 54, 40
3, 11160, Note_on_c, 9, 54, 0
3, 11160, Note_on_c, 9, 42, 0
3, 11160, Note_on_c, 9, 35, 100
3, 11160, Note_on_c, 9, 38, 100
3, 11160, Note_on_c, 9, 42, 90
3, 11160, Note_on_c, 9, 54, 60
3, 11190, Note_on_c, 9, 54, 0
3, 11190, Note_on_c, 9, 35, 0
3, 11190, Note_on_c, 9, 38, 0
3, 11190, Note_on_c, 9, 42, 0
3, 11190, Note_on_c, 9, 42, 40
3, 11190, Note_on_c, 9, 54, 40
3, 11220, Note_on_c, 9, 54, 0
3, 11220, Note_on_c, 9, 42, 0
3, 11220, Note_on_c, 9, 42, 115
3, 11220, Note_on_c, 9, 54, 90
3, 11250, Note_on_c, 9, 54, 0
3, 11250, Note_on_c, 9, 42, 0
3, 11250, Note_on_c, 9, 42, 50
3, 11250, Note_on_c, 9, 54, 40
3, 11280, Note_on_c, 9, 54, 0
3, 11280, Note_on_c, 9, 42, 0
3, 11280, Note_on_c, 9, 35, 100
3, 11280, Note_on_c, 9, 42, 90
3, 11280, Note_on_c, 9, 54, 60
3, 11310, Note_on_c, 9, 54, 0
3, 11310, Note_on_c, 9, 42, 0
3, 11310, Note_on_c, 9, 35, 0
3, 11310, Note_on_c, 9, 42, 50
3, 11310, Note_on_c, 9, 54, 40
3, 11340, Note_on_c, 9, 54, 0
3, 11340, Note_on_c, 9, 42, 0
3, 11340, Note_on_c, 9, 42, 115
3, 11340, Note_on_c, 9, 54, 90
3, 11370, Note_on_c, 9, 54, 0
3, 11370, Note_on_c, 9, 42, 0
3, 11370, Note_on_c, 9, 42, 50
3, 11370, Note_on_c, 9, 54, 40
3, 11400, Note_on_c, 9, 54, 0
3, 11400, Note_on_c, 9, 42, 0
3, 11400, Note_on_c, 9, 35, 100
3, 11400, Note_on_c, 9, 38, 100
3, 11400, Note_on_c, 9, 42, 90
3, 11400, Note_on_c, 9, 54, 60
3, 11430, Note_on_c, 9, 54, 0
3, 11430, Note_on_c, 9, 35, 0
3, 11430, Note_on_c, 9, 38, 0
3, 11430, Note_on_c, 9, 42, 0
3, 11430, Note_on_c, 9, 42, 60
3, 11430, Note_on_c, 9, 54, 40
3, 11460, Note_on_c, 9, 54, 0
3, 11460, Note_on_c, 9, 42, 0
3, 11460, Note_on_c, 9, 42, 115
3, 11460, Note_on_c, 9, 54, 90
3, 11490, Note_on_c, 9, 54, 0
3, 11490, Note_on_c, 9, 42, 0
3, 11490, Note_on_c, 9, 42, 50
3, 11490, Note_on_c, 9, 54, 40
3, 11520, Note_on_c, 9, 54, 0
3, 11520, Note_on_c, 9, 42, 0
3, 11520, Note_on_c, 9, 35, 100
3, 11520, Note_on_c, 9, 42, 90
3, 11520, Note_on_c, 9, 54, 60
3, 11550, Note_on_c, 9, 54, 0
3, 11550, Note_on_c, 9, 42, 0
3, 11550, Note_on_c, 9, 35, 0
3, 11550, Note_on_c, 9, 42, 40
3, 11550, Note_on_c, 9, 54, 40
3, 11580, Note_on_c, 9, 54, 0
3, 11580, Note_on_c, 9, 42, 0
3, 11580, Note_on_c, 9, 42, 115
3, 11580, Note_on_c, 9, 54, 90
3, 11610, Note_on_c, 9, 54, 0
3, 11610, Note_on_c, 9, 42, 0
3, 11610, Note_on_c, 9, 42, 50
3, 11610, Note_on_c, 9, 54, 40
3, 11640, Note_on_c, 9, 54, 0
3, 11640, Note_on_c, 9, 42, 0
3, 11640, Note_on_c, 9, 35, 100
3, 11640, Note_on_c, 9, 38, 100
3, 11640, Note_on_c, 9, 42, 90
3, 11640, Note_on_c, 9, 54, 60
3, 11670, Note_on_c, 9, 54, 0
3, 11670, Note_on_c, 9, 35, 0
3, 11670, Note_on_c, 9, 38, 0
3, 11670, Note_on_c, 9, 42, 0
3, 11670, Note_on_c, 9, 42, 40
3, 11670, Note_on_c, 9, 54, 40
3, 11700, Note_on_c, 9, 54, 0
3, 11700, Note_on_c, 9, 42, 0
3, 11700, Note_on_c, 9, 42, 115
3, 11700, Note_on_c, 9, 54, 90
3, 11730, Note_on_c, 9, 54, 0
3, 11730, Note_on_c, 9, 42, 0
3, 11730, Note_on_c, 9, 42, 50
3, 11730, Note_on_c, 9, 54, 40
3, 11760, Note_on_c, 9, 54, 0
3, 11760, Note_on_c, 9, 42, 0
3, 11760, Note_on_c, 9, 35, 100
3, 11760, Note_on_c, 9, 42, 90
3, 11760, Note_on_c, 9, 54, 60
3, 11790, Note_on_c, 9, 54, 0
3, 11790, Note_on_c, 9, 42, 0
3, 11790, Note_on_c, 9, 35, 0
3, 11790, Note_on_c, 9, 42, 50
3, 11790, Note_on_c, 9, 54, 40
3, 11820, Note_on_c, 9, 54, 0
3, 11820, Note_on_c, 9, 42, 0
3, 11820, Note_on_c, 9, 42, 115
3, 11820, Note_on_c, 9, 54, 90
3, 11850, Note_on_c, 9, 54, 0
3, 11850, Note_on_c, 9, 42, 0
3, 11850, Note_on_c, 9, 42, 50
3, 11850, Note_on_c, 9, 54, 40
3, 11880, Note_on_c, 9, 54, 0
3, 11880, Note_on_c, 9, 42, 0
3, 11880, Note_on_c, 9, 52, 100
3, 11880, Note_on_c, 9, 35, 100
3, 11880, Note_on_c, 9, 38, 100
3, 11880, Note_on_c, 9, 42, 90
3, 11880, Note_on_c, 9, 54, 60
3, 11910, Note_on_c, 9, 54, 0
3, 11910, Note_on_c, 9, 38, 0
3, 11910, Note_on_c, 9, 52, 0
3, 11910, Note_on_c, 9, 35, 0
3, 11910, Note_on_c, 9, 42, 0
3, 11910, Note_on_c, 9, 42, 60
3, 11910, Note_on_c, 9, 54, 40
3, 11940, Note_on_c, 9, 54, 0
3, 11940, Note_on_c, 9, 42, 0
3, 11940, Note_on_c, 9, 42, 115
3, 11940, Note_on_c, 9, 54, 90
3, 11970, Note_on_c, 9, 54, 0
3, 11970, Note_on_c, 9, 42, 0
3, 11970, Note_on_c, 9, 46, 54
3, 11970, Note_on_c, 9, 54, 40
3, 12000, Note_on_c, 9, 54, 0
3, 12000, Note_on_c, 9, 46, 0
3, 12000, Note_on_c, 9, 35, 100
3, 12000, Note_on_c, 9, 42, 90
3, 12000, Note_on_c, 9, 54, 60
3, 12030, Note_on_c, 9, 54, 0
3, 12030, Note_on_c, 9, 42, 0
3, 12030, Note_on_c, 9, 35, 0
3, 12030, Note_on_c, 9, 42, 40
3, 12030, Note_on_c, 9, 54, 40
3, 12060, Note_on_c, 9, 54, 0
3, 12060, Note_on_c, 9, 42, 0
3, 12060, Note_on_c, 9, 42, 115
3, 12060, Note_on_c, 9, 54, 90
3, 12090, Note_on_c, 9, 54, 0
3, 12090, Note_on_c, 9, 42, 0
3, 12090, Note_on_c, 9, 42, 50
3, 12090, Note_on_c, 9, 54, 40
3, 12120, Note_on_c, 9, 54, 0
3, 12120, Note_on_c, 9, 42, 0
3, 12120, Note_on_c, 9, 35, 100
3, 12120, Note_on_c, 9, 38, 100
3, 12120, Note_on_c, 9, 42, 90
3, 12120, Note_on_c, 9, 54, 60
3, 12150, Note_on_c, 9, 54, 0
3, 12150, Note_on_c, 9, 35, 0
3, 12150, Note_on_c, 9, 38, 0
3, 12150, Note_on_c, 9, 42, 0
3, 12150, Note_on_c, 9, 42, 40
3, 12150, Note_on_c, 9, 54, 40
3, 12180, Note_on_c, 9, 54, 0
3, 12180, Note_on_c, 9, 42, 0
3, 12180, Note_on_c, 9, 42, 115
3, 12180, Note_on_c, 9, 54, 90
3, 12210, Note_on_c, 9, 54, 0
3, 12210, Note_on_c, 9, 42, 0
3, 12210, Note_on_c, 9, 42, 50
3, 12210, Note_on_c, 9, 54, 40
3, 12240, Note_on_c, 9, 54, 0
3, 12240, Note_on_c, 9, 42, 0
3, 12240, Note_on_c, 9, 35, 100
3, 12240, Note_on_c, 9, 42, 90
3, 12240, Note_on_c, 9, 54, 60
3, 12270, Note_on_c, 9, 54, 0
3, 12270, Note_on_c, 9, 42, 0
3, 12270, Note_on_c, 9, 35, 0
3, 12270, Note_on_c, 9, 42, 50
3, 12270, Note_on_c, 9, 54, 40
3, 12300, Note_on_c, 9, 54, 0
3, 12300, Note_on_c, 9, 42, 0
3, 12300, Note_on_c, 9, 42, 115
3, 12300, Note_on_c, 9, 54, 90
3, 12330, Note_on_c, 9, 54, 0
3, 12330, Note_on_c, 9, 42, 0
3, 12330, Note_on_c, 9, 42, 50
3, 12330, Note_on_c, 9, 54, 40
3, 12360, Note_on_c, 9, 54, 0
3, 12360, Note_on_c, 9, 42, 0
3, 12360, Note_on_c, 9, 35, 100
3, 12360, Note_on_c, 9, 38, 100
3, 12360, Note_on_c, 9, 42, 90
3, 12360, Note_on_c, 9, 54, 60
3, 12390, Note_on_c, 9, 54, 0
3, 12390, Note_on_c, 9, 35, 0
3, 12390, Note_on_c, 9, 38, 0
3, 12390, Note_on_c, 9, 42, 0
3, 12390, Note_on_c, 9, 42, 60
3, 12390, Note_on_c, 9, 54, 40
3, 12420, Note_on_c, 9, 54, 0
3, 12420, Note_on_c, 9, 42, 0
3, 12420, Note_on_c, 9, 42, 115
3, 12420, Note_on_c, 9, 54, 90
3, 12450, Note_on_c, 9, 54, 0
3, 12450, Note_on_c, 9, 42, 0
3, 12450, Note_on_c, 9, 46, 54
3, 12450, Note_on_c, 9, 54, 40
3, 12480, Note_on_c, 9, 54, 0
3, 12480, Note_on_c, 9, 46, 0
3, 12480, Note_on_c, 9, 35, 100
3, 12480, Note_on_c, 9, 42, 90
3, 12480, Note_on_c, 9, 54, 60
3, 12510, Note_on_c, 9, 54, 0
3, 12510, Note_on_c, 9, 42, 0
3, 12510, Note_on_c, 9, 35, 0
3, 12510, Note_on_c, 9, 42, 40
3, 12510, Note_on_c, 9, 54, 40
3, 12540, Note_on_c, 9, 54, 0
3, 12540, Note_on_c, 9, 42, 0
3, 12540, Note_on_c, 9, 42, 115
3, 12540, Note_on_c, 9, 54, 90
3, 12570, Note_on_c, 9, 54, 0
3, 12570, Note_on_c, 9, 42, 0
3, 12570, Note_on_c, 9, 42, 50
3, 12570, Note_on_c, 9, 54, 40
3, 12600, Note_on_c, 9, 54, 0
3, 12600, Note_on_c, 9, 42, 0
3, 12600, Note_on_c, 9, 35, 100
3, 12600, Note_on_c, 9, 38, 100
3, 12600, Note_on_c, 9, 42, 90
3, 12600, Note_on_c, 9, 54, 60
3, 12630, Note_on_c, 9, 54, 0
3, 12630, Note_on_c, 9, 35, 0
3, 12630, Note_on_c, 9, 38, 0
3, 12630, Note_on_c, 9, 42, 0
3, 12630, Note_on_c, 9, 42, 40
3, 12630, Note_on_c, 9, 54, 40
3, 12660, Note_on_c, 9, 54, 0
3, 12660, Note_on_c, 9, 42, 0
3, 12660, Note_on_c, 9, 42, 115
3, 12660, Note_on_c, 9, 54, 90
3, 12690, Note_on_c, 9, 54, 0
3, 12690, Note_on_c, 9, 42, 0
3, 12690, Note_on_c, 9, 42, 50
3, 12690, Note_on_c, 9, 54, 40
3, 12720, Note_on_c, 9, 54, 0
3, 12720, Note_on_c, 9, 42, 0
3, 12720, Note_on_c, 9, 35, 100
3, 12720, Note_on_c, 9, 42, 90
3, 12720, Note_on_c, 9, 54, 60
3, 12750, Note_on_c, 9, 54, 0
3, 12750, Note_on_c, 9, 42, 0
3, 12750, Note_on_c, 9, 35, 0
3, 12750, Note_on_c, 9, 42, 50
3, 12750, Note_on_c, 9, 54, 40
3, 12780, Note_on_c, 9, 54, 0
3, 12780, Note_on_c, 9, 42, 0
3, 12780, Note_on_c, 9, 42, 115
3, 12780, Note_on_c, 9, 54, 90
3, 12810, Note_on_c, 9, 54, 0
3, 12810, Note_on_c, 9, 42, 0
3, 12810, Note_on_c, 9, 42, 50
3, 12810, Note_on_c, 9, 54, 40
3, 12840, Note_on_c, 9, 54, 0
3, 12840, Note_on_c, 9, 42, 0
3, 12840, Note_on_c, 9, 35, 100
3, 12840, Note_on_c, 9, 38, 100
3, 12840, Note_on_c, 9, 42, 90
3, 12840, Note_on_c, 9, 54, 60
3, 12870, Note_on_c, 9, 54, 0
3, 12870, Note_on_c, 9, 35, 0
3, 12870, Note_on_c, 9, 38, 0
3, 12870, Note_on_c, 9, 42, 0
3, 12870, Note_on_c, 9, 42, 60
3, 12870, Note_on_c, 9, 54, 40
3, 12900, Note_on_c, 9, 54, 0
3, 12900, Note_on_c, 9, 42, 0
3, 12900, Note_on_c, 9, 42, 115
3, 12900, Note_on_c, 9, 48, 100
3, 12900, Note_on_c, 9, 54, 90
3, 12930, Note_on_c, 9, 54, 0
3, 12930, Note_on_c, 9, 48, 0
3, 12930, Note_on_c, 9, 42, 0
3, 12930, Note_on_c, 9, 42, 50
3, 12930, Note_on_c, 9, 48, 90
3, 12930, Note_on_c, 9, 54, 40
3, 12960, Note_on_c, 9, 54, 0
3, 12960, Note_on_c, 9, 48, 0
3, 12960, Note_on_c, 9, 42, 0
3, 12960, Note_on_c, 9, 35, 100
3, 12960, Note_on_c, 9, 42, 90
3, 12960, Note_on_c, 9, 54, 60
3, 12990, Note_on_c, 9, 54, 0
3, 12990, Note_on_c, 9, 42, 0
3, 12990, Note_on_c, 9, 35, 0
3, 12990, Note_on_c, 9, 42, 40
3, 12990, Note_on_c, 9, 54, 40
3, 13020, Note_on_c, 9, 54, 0
3, 13020, Note_on_c, 9, 42, 0
3, 13020, Note_on_c, 9, 42, 115
3, 13020, Note_on_c, 9, 54, 90
3, 13050, Note_on_c, 9, 54, 0
3, 13050, Note_on_c, 9, 42, 0
3, 13050, Note_on_c, 9, 42, 50
3, 13050, Note_on_c, 9, 54, 40
3, 13080, Note_on_c, 9, 54, 0
3, 13080, Note_on_c, 9, 42, 0
3, 13080, Note_on_c, 9, 35, 100
3, 13080, Note_on_c, 9, 38, 100
3, 13080, Note_on_c, 9, 42, 90
3, 13080, Note_on_c, 9, 54, 60
3, 13110, Note_on_c, 9, 54, 0
3, 13110, Note_on_c, 9, 35, 0
3, 13110, Note_on_c, 9, 38, 0
3, 13110, Note_on_c, 9, 42, 0
3, 13110, Note_on_c, 9, 42, 40
3, 13110, Note_on_c, 9, 54, 40
3, 13140, Note_on_c, 9, 54, 0
3, 13140, Note_on_c, 9, 42, 0
3, 13140, Note_on_c, 9, 42, 115
3, 13140, Note_on_c, 9, 54, 90
3, 13170, Note_on_c, 9, 54, 0
3, 13170, Note_on_c, 9, 42, 0
3, 13170, Note_on_c, 9, 42, 50
3, 13170, Note_on_c, 9, 54, 40
3, 13200, Note_on_c, 9, 54, 0
3, 13200, Note_on_c, 9, 42, 0
3, 13200, Note_on_c, 9, 35, 100
3, 13200, Note_on_c, 9, 42, 90
3, 13200, Note_on_c, 9, 54, 60
3, 13230, Note_on_c, 9, 54, 0
3, 13230, Note_on_c, 9, 42, 0
3, 13230, Note_on_c, 9, 35, 0
3, 13230, Note_on_c, 9, 42, 50
3, 13230, Note_on_c, 9, 54, 40
3, 13260, Note_on_c, 9, 54, 0
3, 13260, Note_on_c, 9, 42, 0
3, 13260, Note_on_c, 9, 42, 115
3, 13260, Note_on_c, 9, 54, 90
3, 13290, Note_on_c, 9, 54, 0
3, 13290, Note_on_c, 9, 42, 0
3, 13290, Note_on_c, 9, 42, 50
3, 13290, Note_on_c, 9, 54, 40
3, 13320, Note_on_c, 9, 54, 0
3, 13320, Note_on_c, 9, 42, 0
3, 13320, Note_on_c, 9, 35, 100
3, 13320, Note_on_c, 9, 38, 100
3, 13320, Note_on_c, 9, 42, 90
3, 13320, Note_on_c, 9, 54, 60
3, 13350, Note_on_c, 9, 54, 0
3, 13350, Note_on_c, 9, 35, 0
3, 13350, Note_on_c, 9, 38, 0
3, 13350, Note_on_c, 9, 42, 0
3, 13350, Note_on_c, 9, 42, 60
3, 13350, Note_on_c, 9, 54, 40
3, 13380, Note_on_c, 9, 54, 0
3, 13380, Note_on_c, 9, 42, 0
3, 13380, Note_on_c, 9, 42, 115
3, 13380, Note_on_c, 9, 54, 90
3, 13410, Note_on_c, 9, 54, 0
3, 13410, Note_on_c, 9, 42, 0
3, 13410, Note_on_c, 9, 42, 50
3, 13410, Note_on_c, 9, 54, 40
3, 13440, Note_on_c, 9, 54, 0
3, 13440, Note_on_c, 9, 42, 0
3, 13440, Note_on_c, 9, 50, 100
3, 13440, Note_on_c, 9, 42, 90
3, 13470, Note_on_c, 9, 42, 0
3, 13470, Note_on_c, 9, 50, 0
3, 13470, Note_on_c, 9, 50, 100
3, 13470, Note_on_c, 9, 42, 40
3, 13500, Note_on_c, 9, 42, 0
3, 13500, Note_on_c, 9, 50, 0
3, 13500, Note_on_c, 9, 50, 100
3, 13500, Note_on_c, 9, 42, 115
3, 13530, Note_on_c, 9, 42, 0
3, 13530, Note_on_c, 9, 50, 0
3, 13530, Note_on_c, 9, 42, 50
3, 13560, Note_on_c, 9, 42, 0
3, 13560, Note_on_c, 9, 51, 100
3, 13560, Note_on_c, 9, 35, 100
3, 13560, Note_on_c, 9, 57, 100
3, 13560, Note_on_c, 9, 42, 90
3, 13590, Note_on_c, 9, 42, 0
3, 13590, Note_on_c, 9, 51, 0
3, 13590, Note_on_c, 9, 35, 0
3, 13590, Note_on_c, 9, 57, 0
3, 13590, Note_on_c, 9, 42, 40
3, 13620, Note_on_c, 9, 42, 0
3, 13620, Note_on_c, 9, 42, 115
3, 13650, Note_on_c, 9, 42, 0
3, 13650, Note_on_c, 9, 35, 90
3, 13650, Note_on_c, 9, 42, 50
3, 13680, Note_on_c, 9, 42, 0
3, 13680, Note_on_c, 9, 35, 0
3, 13680, Note_on_c, 9, 35, 100
3, 13680, Note_on_c, 9, 38, 100
3, 13710, Note_on_c, 9, 38, 0
3, 13710, Note_on_c, 9, 35, 0
3, 13710, Note_on_c, 9, 38, 80
3, 13740, Note_on_c, 9, 38, 0
3, 13740, Note_on_c, 9, 47, 100
3, 13770, Note_on_c, 9, 47, 0
3, 13770, Note_on_c, 9, 38, 80
3, 13800, Note_on_c, 9, 38, 0
3, 13800, Note_on_c, 9, 35, 100
3, 13800, Note_on_c, 9, 38, 115
3, 13830, Note_on_c, 9, 38, 0
3, 13830, Note_on_c, 9, 35, 0
3, 13860, Note_on_c, 9, 38, 127
3, 13860, Note_on_c, 9, 49, 100
3, 13890, Note_on_c, 9, 49, 0
3, 13890, Note_on_c, 9, 38, 0
3, 13890, Note_on_c, 9, 65, 100
3, 13890, Note_on_c, 9, 42, 50
3, 13920, Note_on_c, 9, 42, 0
3, 13920, Note_on_c, 9, 65, 0
3, 13920, Note_on_c, 9, 35, 100
3, 13920, Note_on_c, 9, 42, 90
3, 13920, Note_on_c, 9, 54, 60
3, 13950, Note_on_c, 9, 54, 0
3, 13950, Note_on_c, 9, 42, 0
3, 13950, Note_on_c, 9, 35, 0
3, 13950, Note_on_c, 9, 42, 40
3, 13950, Note_on_c, 9, 54, 40
3, 13980, Note_on_c, 9, 54, 0
3, 13980, Note_on_c, 9, 42, 0
3, 13980, Note_on_c, 9, 42, 115
3, 13980, Note_on_c, 9, 54, 90
3, 14010, Note_on_c, 9, 54, 0
3, 14010, Note_on_c, 9, 42, 0
3, 14010, Note_on_c, 9, 42, 50
3, 14010, Note_on_c, 9, 54, 40
3, 14040, Note_on_c, 9, 54, 0
3, 14040, Note_on_c, 9, 42, 0
3, 14040, Note_on_c, 9, 35, 100
3, 14040, Note_on_c, 9, 38, 100
3, 14040, Note_on_c, 9, 42, 90
3, 14040, Note_on_c, 9, 54, 60
3, 14070, Note_on_c, 9, 54, 0
3, 14070, Note_on_c, 9, 35, 0
3, 14070, Note_on_c, 9, 38, 0
3, 14070, Note_on_c, 9, 42, 0
3, 14070, Note_on_c, 9, 42, 40
3, 14070, Note_on_c, 9, 54, 40
3, 14100, Note_on_c, 9, 54, 0
3, 14100, Note_on_c, 9, 42, 0
3, 14100, Note_on_c, 9, 42, 115
3, 14100, Note_on_c, 9, 54, 90
3, 14130, Note_on_c, 9, 54, 0
3, 14130, Note_on_c, 9, 42, 0
3, 14130, Note_on_c, 9, 42, 50
3, 14130, Note_on_c, 9, 54, 40
3, 14160, Note_on_c, 9, 54, 0
3, 14160, Note_on_c, 9, 42, 0
3, 14160, Note_on_c, 9, 35, 100
3, 14160, Note_on_c, 9, 42, 90
3, 14160, Note_on_c, 9, 54, 60
3, 14190, Note_on_c, 9, 54, 0
3, 14190, Note_on_c, 9, 42, 0
3, 14190, Note_on_c, 9, 35, 0
3, 14190, Note_on_c, 9, 42, 50
3, 14190, Note_on_c, 9, 54, 40
3, 14220, Note_on_c, 9, 54, 0
3, 14220, Note_on_c, 9, 42, 0
3, 14220, Note_on_c, 9, 42, 115
3, 14220, Note_on_c, 9, 54, 90
3, 14250, Note_on_c, 9, 54, 0
3, 14250, Note_on_c, 9, 42, 0
3, 14250, Note_on_c, 9, 42, 50
3, 14250, Note_on_c, 9, 54, 40
3, 14280, Note_on_c, 9, 54, 0
3, 14280, Note_on_c, 9, 42, 0
3, 14280, Note_on_c, 9, 35, 100
3, 14280, Note_on_c, 9, 38, 100
3, 14280, Note_on_c, 9, 42, 90
3, 14280, Note_on_c, 9, 54, 60
3, 14310, Note_on_c, 9, 54, 0
3, 14310, Note_on_c, 9, 35, 0
3, 14310, Note_on_c, 9, 38, 0
3, 14310, Note_on_c, 9, 42, 0
3, 14310, Note_on_c, 9, 42, 60
3, 14310, Note_on_c, 9, 54, 40
3, 14340, Note_on_c, 9, 54, 0
3, 14340, Note_on_c, 9, 42, 0
3, 14340, Note_on_c, 9, 42, 115
3, 14340, Note_on_c, 9, 54, 90
3, 14370, Note_on_c, 9, 54, 0
3, 14370, Note_on_c, 9, 42, 0
3, 14370, Note_on_c, 9, 38, 70
3, 14370, Note_on_c, 9, 42, 50
3, 14370, Note_on_c, 9, 54, 40
3, 14400, Note_on_c, 9, 54, 0
3, 14400, Note_on_c, 9, 42, 0
3, 14400, Note_on_c, 9, 38, 0
3, 14400, Note_on_c, 9, 35, 100
3, 14400, Note_on_c, 9, 42, 90
3, 14400, Note_on_c, 9, 54, 60
3, 14430, Note_on_c, 9, 54, 0
3, 14430, Note_on_c, 9, 42, 0
3, 14430, Note_on_c, 9, 35, 0
3, 14430, Note_on_c, 9, 42, 40
3, 14430, Note_on_c, 9, 54, 40
3, 14460, Note_on_c, 9, 54, 0
3, 14460, Note_on_c, 9, 42, 0
3, 14460, Note_on_c, 9, 42, 115
3, 14460, Note_on_c, 9, 54, 90
3, 14490, Note_on_c, 9, 54, 0
3, 14490, Note_on_c, 9, 42, 0
3, 14490, Note_on_c, 9, 42, 50
3, 14490, Note_on_c, 9, 54, 40
3, 14520, Note_on_c, 9, 54, 0
3, 14520, Note_on_c, 9, 42, 0
3, 14520, Note_on_c, 9, 35, 100
3, 14520, Note_on_c, 9, 38, 100
3, 14520, Note_on_c, 9, 42, 90
3, 14520, Note_on_c, 9, 54, 60
3, 14550, Note_on_c, 9, 54, 0
3, 14550, Note_on_c, 9, 35, 0
3, 14550, Note_on_c, 9, 38, 0
3, 14550, Note_on_c, 9, 42, 0
3, 14550, Note_on_c, 9, 42, 40
3, 14550, Note_on_c, 9, 54, 40
3, 14580, Note_on_c, 9, 54, 0
3, 14580, Note_on_c, 9, 42, 0
3, 14580, Note_on_c, 9, 42, 115
3, 14580, Note_on_c, 9, 54, 90
3, 14610, Note_on_c, 9, 54, 0
3, 14610, Note_on_c, 9, 42, 0
3, 14610, Note_on_c, 9, 42, 50
3, 14610, Note_on_c, 9, 54, 40
3, 14640, Note_on_c, 9, 54, 0
3, 14640, Note_on_c, 9, 42, 0
3, 14640, Note_on_c, 9, 35, 100
3, 14640, Note_on_c, 9, 42, 90
3, 14640, Note_on_c, 9, 54, 60
3, 14670, Note_on_c, 9, 54, 0
3, 14670, Note_on_c, 9, 42, 0
3, 14670, Note_on_c, 9, 35, 0
3, 14670, Note_on_c, 9, 42, 50
3, 14670, Note_on_c, 9, 54, 40
3, 14700, Note_on_c, 9, 54, 0
3, 14700, Note_on_c, 9, 42, 0
3, 14700, Note_on_c, 9, 42, 115
3, 14700, Note_on_c, 9, 54, 90
3, 14730, Note_on_c, 9, 54, 0
3, 14730, Note_on_c, 9, 42, 0
3, 14730, Note_on_c, 9, 42, 50
3, 14730, Note_on_c, 9, 54, 40
3, 14760, Note_on_c, 9, 54, 0
3, 14760, Note_on_c, 9, 42, 0
3, 14760, Note_on_c, 9, 35, 100
3, 14760, Note_on_c, 9, 38, 100
3, 14760, Note_on_c, 9, 42, 90
3, 14760, Note_on_c, 9, 54, 60
3, 14790, Note_on_c, 9, 54, 0
3, 14790, Note_on_c, 9, 35, 0
3, 14790, Note_on_c, 9, 38, 0
3, 14790, Note_on_c, 9, 42, 0
3, 14790, Note_on_c, 9, 42, 60
3, 14790, Note_on_c, 9, 54, 40
3, 14820, Note_on_c, 9, 54, 0
3, 14820, Note_on_c, 9, 42, 0
3, 14820, Note_on_c, 9, 42, 115
3, 14820, Note_on_c, 9, 48, 100
3, 14820, Note_on_c, 9, 54, 90
3, 14850, Note_on_c, 9, 54, 0
3, 14850, Note_on_c, 9, 48, 0
3, 14850, Note_on_c, 9, 42, 0
3, 14850, Note_on_c, 9, 42, 50
3, 14850, Note_on_c, 9, 48, 90
3, 14850, Note_on_c, 9, 54, 40
3, 14880, Note_on_c, 9, 54, 0
3, 14880, Note_on_c, 9, 48, 0
3, 14880, Note_on_c, 9, 42, 0
3, 14880, Note_on_c, 9, 35, 100
3, 14880, Note_on_c, 9, 42, 90
3, 14880, Note_on_c, 9, 54, 60
3, 14910, Note_on_c, 9, 54, 0
3, 14910, Note_on_c, 9, 42, 0
3, 14910, Note_on_c, 9, 35, 0
3, 14910, Note_on_c, 9, 42, 40
3, 14910, Note_on_c, 9, 54, 40
3, 14940, Note_on_c, 9, 54, 0
3, 14940, Note_on_c, 9, 42, 0
3, 14940, Note_on_c, 9, 42, 115
3, 14940, Note_on_c, 9, 54, 90
3, 14970, Note_on_c, 9, 54, 0
3, 14970, Note_on_c, 9, 42, 0
3, 14970, Note_on_c, 9, 42, 50
3, 14970, Note_on_c, 9, 54, 40
3, 15000, Note_on_c, 9, 54, 0
3, 15000, Note_on_c, 9, 42, 0
3, 15000, Note_on_c, 9, 35, 100
3, 15000, Note_on_c, 9, 38, 100
3, 15000, Note_on_c, 9, 42, 90
3, 15000, Note_on_c, 9, 54, 60
3, 15030, Note_on_c, 9, 54, 0
3, 15030, Note_on_c, 9, 35, 0
3, 15030, Note_on_c, 9, 38, 0
3, 15030, Note_on_c, 9, 42, 0
3, 15030, Note_on_c, 9, 42, 40
3, 15030, Note_on_c, 9, 54, 40
3, 15060, Note_on_c, 9, 54, 0
3, 15060, Note_on_c, 9, 42, 0
3, 15060, Note_on_c, 9, 42, 115
3, 15060, Note_on_c, 9, 54, 90
3, 15090, Note_on_c, 9, 54, 0
3, 15090, Note_on_c, 9, 42, 0
3, 15090, Note_on_c, 9, 42, 50
3, 15090, Note_on_c, 9, 54, 40
3, 15120, Note_on_c, 9, 54, 0
3, 15120, Note_on_c, 9, 42, 0
3, 15120, Note_on_c, 9, 35, 100
3, 15120, Note_on_c, 9, 42, 90
3, 15120, Note_on_c, 9, 54, 60
3, 15150, Note_on_c, 9, 54, 0
3, 15150, Note_on_c, 9, 42, 0
3, 15150, Note_on_c, 9, 35, 0
3, 15150, Note_on_c, 9, 42, 50
3, 15150, Note_on_c, 9, 54, 40
3, 15180, Note_on_c, 9, 54, 0
3, 15180, Note_on_c, 9, 42, 0
3, 15180, Note_on_c, 9, 42, 115
3, 15180, Note_on_c, 9, 54, 90
3, 15210, Note_on_c, 9, 54, 0
3, 15210, Note_on_c, 9, 42, 0
3, 15210, Note_on_c, 9, 42, 50
3, 15210, Note_on_c, 9, 54, 40
3, 15240, Note_on_c, 9, 54, 0
3, 15240, Note_on_c, 9, 42, 0
3, 15240, Note_on_c, 9, 35, 100
3, 15240, Note_on_c, 9, 38, 100
3, 15240, Note_on_c, 9, 42, 90
3, 15240, Note_on_c, 9, 54, 60
3, 15270, Note_on_c, 9, 54, 0
3, 15270, Note_on_c, 9, 35, 0
3, 15270, Note_on_c, 9, 38, 0
3, 15270, Note_on_c, 9, 42, 0
3, 15270, Note_on_c, 9, 42, 60
3, 15270, Note_on_c, 9, 54, 40
3, 15300, Note_on_c, 9, 54, 0
3, 15300, Note_on_c, 9, 42, 0
3, 15300, Note_on_c, 9, 42, 115
3, 15300, Note_on_c, 9, 54, 90
3, 15330, Note_on_c, 9, 54, 0
3, 15330, Note_on_c, 9, 42, 0
3, 15330, Note_on_c, 9, 46, 54
3, 15330, Note_on_c, 9, 54, 40
3, 15360, Note_on_c, 9, 54, 0
3, 15360, Note_on_c, 9, 46, 0
3, 15360, Note_on_c, 9, 35, 100
3, 15360, Note_on_c, 9, 42, 90
3, 15360, Note_on_c, 9, 54, 60
3, 15390, Note_on_c, 9, 54, 0
3, 15390, Note_on_c, 9, 42, 0
3, 15390, Note_on_c, 9, 35, 0
3, 15390, Note_on_c, 9, 42, 40
3, 15390, Note_on_c, 9, 54, 40
3, 15420, Note_on_c, 9, 54, 0
3, 15420, Note_on_c, 9, 42, 0
3, 15420, Note_on_c, 9, 42, 115
3, 15420, Note_on_c, 9, 54, 90
3, 15450, Note_on_c, 9, 54, 0
3, 15450, Note_on_c, 9, 42, 0
3, 15450, Note_on_c, 9, 42, 50
3, 15450, Note_on_c, 9, 54, 40
3, 15480, Note_on_c, 9, 54, 0
3, 15480, Note_on_c, 9, 42, 0
3, 15480, Note_on_c, 9, 35, 100
3, 15480, Note_on_c, 9, 38, 100
3, 15480, Note_on_c, 9, 42, 90
3, 15480, Note_on_c, 9, 54, 60
3, 15510, Note_on_c, 9, 54, 0
3, 15510, Note_on_c, 9, 35, 0
3, 15510, Note_on_c, 9, 38, 0
3, 15510, Note_on_c, 9, 42, 0
3, 15510, Note_on_c, 9, 42, 40
3, 15510, Note_on_c, 9, 54, 40
3, 15540, Note_on_c, 9, 54, 0
3, 15540, Note_on_c, 9, 42, 0
3, 15540, Note_on_c, 9, 42, 115
3, 15540, Note_on_c, 9, 54, 90
3, 15570, Note_on_c, 9, 54, 0
3, 15570, Note_on_c, 9, 42, 0
3, 15570, Note_on_c, 9, 42, 50
3, 15570, Note_on_c, 9, 54, 40
3, 15600, Note_on_c, 9, 54, 0
3, 15600, Note_on_c, 9, 42, 0
3, 15600, Note_on_c, 9, 35, 100
3, 15600, Note_on_c, 9, 42, 90
3, 15600, Note_on_c, 9, 54, 60
3, 15630, Note_on_c, 9, 54, 0
3, 15630, Note_on_c, 9, 42, 0
3, 15630, Note_on_c, 9, 35, 0
3, 15630, Note_on_c, 9, 42, 50
3, 15630, Note_on_c, 9, 54, 40
3, 15660, Note_on_c, 9, 54, 0
3, 15660, Note_on_c, 9, 42, 0
3, 15660, Note_on_c, 9, 42, 115
3, 15660, Note_on_c, 9, 54, 90
3, 15690, Note_on_c, 9, 54, 0
3, 15690, Note_on_c, 9, 42, 0
3, 15690, Note_on_c, 9, 42, 50
3, 15690, Note_on_c, 9, 54, 40
3, 15720, Note_on_c, 9, 54, 0
3, 15720, Note_on_c, 9, 42, 0
3, 15720, Note_on_c, 9, 35, 100
3, 15720, Note_on_c, 9, 38, 100
3, 15720, Note_on_c, 9, 42, 90
3, 15720, Note_on_c, 9, 54, 60
3, 15750, Note_on_c, 9, 54, 0
3, 15750, Note_on_c, 9, 35, 0
3, 15750, Note_on_c, 9, 38, 0
3, 15750, Note_on_c, 9, 42, 0
3, 15750, Note_on_c, 9, 42, 60
3, 15750, Note_on_c, 9, 54, 40
3, 15780, Note_on_c, 9, 54, 0
3, 15780, Note_on_c, 9, 42, 0
3, 15780, Note_on_c, 9, 42, 115
3, 15780, Note_on_c, 9, 48, 100
3, 15780, Note_on_c, 9, 54, 90
3, 15810, Note_on_c, 9, 54, 0
3, 15810, Note_on_c, 9, 48, 0
3, 15810, Note_on_c, 9, 42, 0
3, 15810, Note_on_c, 9, 42, 50
3, 15810, Note_on_c, 9, 48, 90
3, 15810, Note_on_c, 9, 54, 40
3, 15840, Note_on_c, 9, 54, 0
3, 15840, Note_on_c, 9, 48, 0
3, 15840, Note_on_c, 9, 42, 0
3, 15840, Note_on_c, 9, 35, 100
3, 15840, Note_on_c, 9, 42, 90
3, 15840, Note_on_c, 9, 54, 60
3, 15870, Note_on_c, 9, 54, 0
3, 15870, Note_on_c, 9, 42, 0
3, 15870, Note_on_c, 9, 35, 0
3, 15870, Note_on_c, 9, 42, 40
3, 15870, Note_on_c, 9, 54, 40
3, 15900, Note_on_c, 9, 54, 0
3, 15900, Note_on_c, 9, 42, 0
3, 15900, Note_on_c, 9, 42, 115
3, 15900, Note_on_c, 9, 54, 90
3, 15930, Note_on_c, 9, 54, 0
3, 15930, Note_on_c, 9, 42, 0
3, 15930, Note_on_c, 9, 42, 50
3, 15930, Note_on_c, 9, 54, 40
3, 15960, Note_on_c, 9, 54, 0
3, 15960, Note_on_c, 9, 42, 0
3, 15960, Note_on_c, 9, 35, 100
3, 15960, Note_on_c, 9, 38, 100
3, 15960, Note_on_c, 9, 42, 90
3, 15960, Note_on_c, 9, 54, 60
3, 15990, Note_on_c, 9, 54, 0
3, 15990, Note_on_c, 9, 35, 0
3, 15990, Note_on_c, 9, 38, 0
3, 15990, Note_on_c, 9, 42, 0
3, 15990, Note_on_c, 9, 42, 40
3, 15990, Note_on_c, 9, 54, 40
3, 16020, Note_on_c, 9, 54, 0
3, 16020, Note_on_c, 9, 42, 0
3, 16020, Note_on_c, 9, 48, 100
3, 16020, Note_on_c, 9, 42, 115
3, 16020, Note_on_c, 9, 54, 90
3, 16050, Note_on_c, 9, 54, 0
3, 16050, Note_on_c, 9, 42, 0
3, 16050, Note_on_c, 9, 48, 0
3, 16050, Note_on_c, 9, 48, 100
3, 16050, Note_on_c, 9, 42, 50
3, 16050, Note_on_c, 9, 54, 40
3, 16080, Note_on_c, 9, 54, 0
3, 16080, Note_on_c, 9, 42, 0
3, 16080, Note_on_c, 9, 48, 0
3, 16080, Note_on_c, 9, 47, 100
3, 16080, Note_on_c, 9, 35, 100
3, 16080, Note_on_c, 9, 42, 90
3, 16080, Note_on_c, 9, 54, 60
3, 16110, Note_on_c, 9, 54, 0
3, 16110, Note_on_c, 9, 47, 0
3, 16110, Note_on_c, 9, 35, 0
3, 16110, Note_on_c, 9, 42, 0
3, 16110, Note_on_c, 9, 47, 100
3, 16110, Note_on_c, 9, 42, 50
3, 16110, Note_on_c, 9, 54, 40
3, 16140, Note_on_c, 9, 54, 0
3, 16140, Note_on_c, 9, 42, 0
3, 16140, Note_on_c, 9, 47, 0
3, 16140, Note_on_c, 9, 47, 100
3, 16140, Note_on_c, 9, 42, 115
3, 16140, Note_on_c, 9, 54, 90
3, 16170, Note_on_c, 9, 54, 0
3, 16170, Note_on_c, 9, 42, 0
3, 16170, Note_on_c, 9, 47, 0
3, 16170, Note_on_c, 9, 42, 50
3, 16170, Note_on_c, 9, 54, 40
3, 16200, Note_on_c, 9, 54, 0
3, 16200, Note_on_c, 9, 42, 0
3, 16200, Note_on_c, 9, 52, 100
3, 16200, Note_on_c, 9, 35, 100
3, 16200, Note_on_c, 9, 38, 100
3, 16200, Note_on_c, 9, 42, 90
3, 16200, Note_on_c, 9, 54, 60
3, 16230, Note_on_c, 9, 54, 0
3, 16230, Note_on_c, 9, 38, 0
3, 16230, Note_on_c, 9, 52, 0
3, 16230, Note_on_c, 9, 35, 0
3, 16230, Note_on_c, 9, 42, 0
3, 16230, Note_on_c, 9, 42, 60
3, 16230, Note_on_c, 9, 54, 40
3, 16260, Note_on_c, 9, 54, 0
3, 16260, Note_on_c, 9, 42, 0
3, 16260, Note_on_c, 9, 42, 115
3, 16260, Note_on_c, 9, 54, 90
3, 16290, Note_on_c, 9, 54, 0
3, 16290, Note_on_c, 9, 42, 0
3, 16290, Note_on_c, 9, 42, 50
3, 16290, Note_on_c, 9, 54, 40
3, 16320, Note_on_c, 9, 54, 0
3, 16320, Note_on_c, 9, 42, 0
3, 16320, Note_on_c, 9, 35, 100
3, 16320, Note_on_c, 9, 42, 90
3, 16320, Note_on_c, 9, 49, 80
3, 16320, Note_on_c, 9, 54, 60
3, 16350, Note_on_c, 9, 54, 0
3, 16350, Note_on_c, 9, 35, 0
3, 16350, Note_on_c, 9, 42, 0
3, 16350, Note_on_c, 9, 49, 0
3, 16350, Note_on_c, 9, 42, 40
3, 16350, Note_on_c, 9, 54, 40
3, 16380, Note_on_c, 9, 54, 0
3, 16380, Note_on_c, 9, 42, 0
3, 16380, Note_on_c, 9, 42, 115
3, 16380, Note_on_c, 9, 54, 90
3, 16410, Note_on_c, 9, 54, 0
3, 16410, Note_on_c, 9, 42, 0
3, 16410, Note_on_c, 9, 42, 50
3, 16410, Note_on_c, 9, 54, 40
3, 16440, Note_on_c, 9, 54, 0
3, 16440, Note_on_c, 9, 42, 0
3, 16440, Note_on_c, 9, 35, 100
3, 16440, Note_on_c, 9, 38, 100
3, 16440, Note_on_c, 9, 42, 90
3, 16440, Note_on_c, 9, 54, 60
3, 16470, Note_on_c, 9, 54, 0
3, 16470, Note_on_c, 9, 35, 0
3, 16470, Note_on_c, 9, 38, 0
3, 16470, Note_on_c, 9, 42, 0
3, 16470, Note_on_c, 9, 42, 40
3, 16470, Note_on_c, 9, 54, 40
3, 16500, Note_on_c, 9, 54, 0
3, 16500, Note_on_c, 9, 42, 0
3, 16500, Note_on_c, 9, 42, 115
3, 16500, Note_on_c, 9, 54, 90
3, 16530, Note_on_c, 9, 54, 0
3, 16530, Note_on_c, 9, 42, 0
3, 16530, Note_on_c, 9, 42, 50
3, 16530, Note_on_c, 9, 54, 40
3, 16560, Note_on_c, 9, 54, 0
3, 16560, Note_on_c, 9, 42, 0
3, 16560, Note_on_c, 9, 35, 100
3, 16560, Note_on_c, 9, 42, 90
3, 16560, Note_on_c, 9, 54, 60
3, 16590, Note_on_c, 9, 54, 0
3, 16590, Note_on_c, 9, 42, 0
3, 16590, Note_on_c, 9, 35, 0
3, 16590, Note_on_c, 9, 42, 50
3, 16590, Note_on_c, 9, 54, 40
3, 16620, Note_on_c, 9, 54, 0
3, 16620, Note_on_c, 9, 42, 0
3, 16620, Note_on_c, 9, 42, 115
3, 16620, Note_on_c, 9, 54, 90
3, 16650, Note_on_c, 9, 54, 0
3, 16650, Note_on_c, 9, 42, 0
3, 16650, Note_on_c, 9, 42, 50
3, 16650, Note_on_c, 9, 54, 40
3, 16680, Note_on_c, 9, 54, 0
3, 16680, Note_on_c, 9, 42, 0
3, 16680, Note_on_c, 9, 35, 100
3, 16680, Note_on_c, 9, 38, 100
3, 16680, Note_on_c, 9, 42, 90
3, 16680, Note_on_c, 9, 54, 60
3, 16710, Note_on_c, 9, 54, 0
3, 16710, Note_on_c, 9, 35, 0
3, 16710, Note_on_c, 9, 38, 0
3, 16710, Note_on_c, 9, 42, 0
3, 16710, Note_on_c, 9, 42, 60
3, 16710, Note_on_c, 9, 54, 40
3, 16740, Note_on_c, 9, 54, 0
3, 16740, Note_on_c, 9, 42, 0
3, 16740, Note_on_c, 9, 42, 115
3, 16740, Note_on_c, 9, 54, 90
3, 16770, Note_on_c, 9, 54, 0
3, 16770, Note_on_c, 9, 42, 0
3, 16770, Note_on_c, 9, 42, 50
3, 16770, Note_on_c, 9, 54, 40
3, 16800, Note_on_c, 9, 54, 0
3, 16800, Note_on_c, 9, 42, 0
3, 16800, Note_on_c, 9, 35, 100
3, 16800, Note_on_c, 9, 42, 90
3, 16800, Note_on_c, 9, 54, 60
3, 16830, Note_on_c, 9, 54, 0
3, 16830, Note_on_c, 9, 42, 0
3, 16830, Note_on_c, 9, 35, 0
3, 16830, Note_on_c, 9, 42, 40
3, 16830, Note_on_c, 9, 54, 40
3, 16860, Note_on_c, 9, 54, 0
3, 16860, Note_on_c, 9, 42, 0
3, 16860, Note_on_c, 9, 42, 115
3, 16860, Note_on_c, 9, 54, 90
3, 16890, Note_on_c, 9, 54, 0
3, 16890, Note_on_c, 9, 42, 0
3, 16890, Note_on_c, 9, 42, 50
3, 16890, Note_on_c, 9, 54, 40
3, 16920, Note_on_c, 9, 54, 0
3, 16920, Note_on_c, 9, 42, 0
3, 16920, Note_on_c, 9, 35, 100
3, 16920, Note_on_c, 9, 38, 100
3, 16920, Note_on_c, 9, 42, 90
3, 16920, Note_on_c, 9, 54, 60
3, 16950, Note_on_c, 9, 54, 0
3, 16950, Note_on_c, 9, 35, 0
3, 16950, Note_on_c, 9, 38, 0
3, 16950, Note_on_c, 9, 42, 0
3, 16950, Note_on_c, 9, 42, 40
3, 16950, Note_on_c, 9, 54, 40
3, 16980, Note_on_c, 9, 54, 0
3, 16980, Note_on_c, 9, 42, 0
3, 16980, Note_on_c, 9, 42, 115
3, 16980, Note_on_c, 9, 54, 90
3, 17010, Note_on_c, 9, 54, 0
3, 17010, Note_on_c, 9, 42, 0
3, 17010, Note_on_c, 9, 66, 100
3, 17010, Note_on_c, 9, 42, 50
3, 17010, Note_on_c, 9, 54, 40
3, 17040, Note_on_c, 9, 54, 0
3, 17040, Note_on_c, 9, 42, 0
3, 17040, Note_on_c, 9, 66, 0
3, 17040, Note_on_c, 9, 35, 100
3, 17040, Note_on_c, 9, 42, 90
3, 17040, Note_on_c, 9, 54, 60
3, 17070, Note_on_c, 9, 54, 0
3, 17070, Note_on_c, 9, 42, 0
3, 17070, Note_on_c, 9, 35, 0
3, 17070, Note_on_c, 9, 42, 50
3, 17070, Note_on_c, 9, 54, 40
3, 17100, Note_on_c, 9, 54, 0
3, 17100, Note_on_c, 9, 42, 0
3, 17100, Note_on_c, 9, 42, 115
3, 17100, Note_on_c, 9, 54, 90
3, 17130, Note_on_c, 9, 54, 0
3, 17130, Note_on_c, 9, 42, 0
3, 17130, Note_on_c, 9, 42, 50
3, 17130, Note_on_c, 9, 54, 40
3, 17160, Note_on_c, 9, 54, 0
3, 17160, Note_on_c, 9, 42, 0
3, 17160, Note_on_c, 9, 35, 100
3, 17160, Note_on_c, 9, 38, 100
3, 17160, Note_on_c, 9, 42, 90
3, 17160, Note_on_c, 9, 54, 60
3, 17190, Note_on_c, 9, 54, 0
3, 17190, Note_on_c, 9, 35, 0
3, 17190, Note_on_c, 9, 38, 0
3, 17190, Note_on_c, 9, 42, 0
3, 17190, Note_on_c, 9, 42, 60
3, 17190, Note_on_c, 9, 54, 40
3, 17220, Note_on_c, 9, 54, 0
3, 17220, Note_on_c, 9, 42, 0
3, 17220, Note_on_c, 9, 42, 115
3, 17220, Note_on_c, 9, 48, 100
3, 17220, Note_on_c, 9, 54, 90
3, 17250, Note_on_c, 9, 54, 0
3, 17250, Note_on_c, 9, 48, 0
3, 17250, Note_on_c, 9, 42, 0
3, 17250, Note_on_c, 9, 42, 50
3, 17250, Note_on_c, 9, 48, 90
3, 17250, Note_on_c, 9, 54, 40
3, 17280, Note_on_c, 9, 54, 0
3, 17280, Note_on_c, 9, 48, 0
3, 17280, Note_on_c, 9, 42, 0
3, 17280, Note_on_c, 9, 35, 100
3, 17280, Note_on_c, 9, 42, 90
3, 17280, Note_on_c, 9, 54, 60
3, 17310, Note_on_c, 9, 54, 0
3, 17310, Note_on_c, 9, 42, 0
3, 17310, Note_on_c, 9, 35, 0
3, 17310, Note_on_c, 9, 42, 40
3, 17310, Note_on_c, 9, 54, 40
3, 17340, Note_on_c, 9, 54, 0
3, 17340, Note_on_c, 9, 42, 0
3, 17340, Note_on_c, 9, 42, 115
3, 17340, Note_on_c, 9, 54, 90
3, 17370, Note_on_c, 9, 54, 0
3, 17370, Note_on_c, 9, 42, 0
3, 17370, Note_on_c, 9, 42, 50
3, 17370, Note_on_c, 9, 54, 40
3, 17400, Note_on_c, 9, 54, 0
3, 17400, Note_on_c, 9, 42, 0
3, 17400, Note_on_c, 9, 35, 100
3, 17400, Note_on_c, 9, 38, 100
3, 17400, Note_on_c, 9, 42, 90
3, 17400, Note_on_c, 9, 54, 60
3, 17430, Note_on_c, 9, 54, 0
3, 17430, Note_on_c, 9, 35, 0
3, 17430, Note_on_c, 9, 38, 0
3, 17430, Note_on_c, 9, 42, 0
3, 17430, Note_on_c, 9, 42, 40
3, 17430, Note_on_c, 9, 54, 40
3, 17460, Note_on_c, 9, 54, 0
3, 17460, Note_on_c, 9, 42, 0
3, 17460, Note_on_c, 9, 42, 115
3, 17460, Note_on_c, 9, 54, 90
3, 17490, Note_on_c, 9, 54, 0
3, 17490, Note_on_c, 9, 42, 0
3, 17490, Note_on_c, 9, 42, 50
3, 17490, Note_on_c, 9, 54, 40
3, 17520, Note_on_c, 9, 54, 0
3, 17520, Note_on_c, 9, 42, 0
3, 17520, Note_on_c, 9, 35, 100
3, 17520, Note_on_c, 9, 42, 90
3, 17520, Note_on_c, 9, 54, 60
3, 17550, Note_on_c, 9, 54, 0
3, 17550, Note_on_c, 9, 42, 0
3, 17550, Note_on_c, 9, 35, 0
3, 17550, Note_on_c, 9, 42, 50
3, 17550, Note_on_c, 9, 54, 40
3, 17580, Note_on_c, 9, 54, 0
3, 17580, Note_on_c, 9, 42, 0
3, 17580, Note_on_c, 9, 42, 115
3, 17580, Note_on_c, 9, 54, 90
3, 17610, Note_on_c, 9, 54, 0
3, 17610, Note_on_c, 9, 42, 0
3, 17610, Note_on_c, 9, 42, 50
3, 17610, Note_on_c, 9, 54, 40
3, 17640, Note_on_c, 9, 54, 0
3, 17640, Note_on_c, 9, 42, 0
3, 17640, Note_on_c, 9, 35, 100
3, 17640, Note_on_c, 9, 38, 100
3, 17640, Note_on_c, 9, 42, 90
3, 17640, Note_on_c, 9, 54, 60
3, 17670, Note_on_c, 9, 54, 0
3, 17670, Note_on_c, 9, 35, 0
3, 17670, Note_on_c, 9, 38, 0
3, 17670, Note_on_c, 9, 42, 0
3, 17670, Note_on_c, 9, 42, 60
3, 17670, Note_on_c, 9, 54, 40
3, 17700, Note_on_c, 9, 54, 0
3, 17700, Note_on_c, 9, 42, 0
3, 17700, Note_on_c, 9, 42, 115
3, 17700, Note_on_c, 9, 54, 90
3, 17730, Note_on_c, 9, 54, 0
3, 17730, Note_on_c, 9, 42, 0
3, 17730, Note_on_c, 9, 42, 50
3, 17730, Note_on_c, 9, 54, 40
3, 17760, Note_on_c, 9, 54, 0
3, 17760, Note_on_c, 9, 42, 0
3, 17760, Note_on_c, 9, 35, 100
3, 17760, Note_on_c, 9, 42, 90
3, 17760, Note_on_c, 9, 54, 60
3, 17790, Note_on_c, 9, 54, 0
3, 17790, Note_on_c, 9, 42, 0
3, 17790, Note_on_c, 9, 35, 0
3, 17790, Note_on_c, 9, 42, 40
3, 17790, Note_on_c, 9, 54, 40
3, 17820, Note_on_c, 9, 54, 0
3, 17820, Note_on_c, 9, 42, 0
3, 17820, Note_on_c, 9, 42, 115
3, 17820, Note_on_c, 9, 54, 90
3, 17850, Note_on_c, 9, 54, 0
3, 17850, Note_on_c, 9, 42, 0
3, 17850, Note_on_c, 9, 42, 50
3, 17850, Note_on_c, 9, 54, 40
3, 17880, Note_on_c, 9, 54, 0
3, 17880, Note_on_c, 9, 42, 0
3, 17880, Note_on_c, 9, 35, 100
3, 17880, Note_on_c, 9, 38, 100
3, 17880, Note_on_c, 9, 42, 90
3, 17880, Note_on_c, 9, 54, 60
3, 17910, Note_on_c, 9, 54, 0
3, 17910, Note_on_c, 9, 35, 0
3, 17910, Note_on_c, 9, 38, 0
3, 17910, Note_on_c, 9, 42, 0
3, 17910, Note_on_c, 9, 42, 40
3, 17910, Note_on_c, 9, 54, 40
3, 17940, Note_on_c, 9, 54, 0
3, 17940, Note_on_c, 9, 42, 0
3, 17940, Note_on_c, 9, 42, 115
3, 17940, Note_on_c, 9, 54, 90
3, 17970, Note_on_c, 9, 54, 0
3, 17970, Note_on_c, 9, 42, 0
3, 17970, Note_on_c, 9, 66, 100
3, 17970, Note_on_c, 9, 42, 50
3, 17970, Note_on_c, 9, 54, 40
3, 18000, Note_on_c, 9, 54, 0
3, 18000, Note_on_c, 9, 42, 0
3, 18000, Note_on_c, 9, 66, 0
3, 18000, Note_on_c, 9, 35, 100
3, 18000, Note_on_c, 9, 42, 90
3, 18000, Note_on_c, 9, 54, 60
3, 18030, Note_on_c, 9, 54, 0
3, 18030, Note_on_c, 9, 42, 0
3, 18030, Note_on_c, 9, 35, 0
3, 18030, Note_on_c, 9, 42, 50
3, 18030, Note_on_c, 9, 54, 40
3, 18060, Note_on_c, 9, 54, 0
3, 18060, Note_on_c, 9, 42, 0
3, 18060, Note_on_c, 9, 66, 100
3, 18060, Note_on_c, 9, 42, 115
3, 18060, Note_on_c, 9, 54, 90
3, 18090, Note_on_c, 9, 54, 0
3, 18090, Note_on_c, 9, 42, 0
3, 18090, Note_on_c, 9, 66, 0
3, 18090, Note_on_c, 9, 66, 100
3, 18090, Note_on_c, 9, 42, 50
3, 18090, Note_on_c, 9, 54, 40
3, 18120, Note_on_c, 9, 54, 0
3, 18120, Note_on_c, 9, 42, 0
3, 18120, Note_on_c, 9, 66, 0
3, 18120, Note_on_c, 9, 35, 100
3, 18120, Note_on_c, 9, 38, 100
3, 18120, Note_on_c, 9, 42, 90
3, 18120, Note_on_c, 9, 54, 60
3, 18150, Note_on_c, 9, 54, 0
3, 18150, Note_on_c, 9, 35, 0
3, 18150, Note_on_c, 9, 38, 0
3, 18150, Note_on_c, 9, 42, 0
3, 18150, Note_on_c, 9, 42, 60
3, 18150, Note_on_c, 9, 54, 40
3, 18180, Note_on_c, 9, 54, 0
3, 18180, Note_on_c, 9, 42, 0
3, 18180, Note_on_c, 9, 42, 115
3, 18180, Note_on_c, 9, 54, 90
3, 18210, Note_on_c, 9, 54, 0
3, 18210, Note_on_c, 9, 42, 0
3, 18210, Note_on_c, 9, 46, 54
3, 18210, Note_on_c, 9, 54, 40
3, 18240, Note_on_c, 9, 54, 0
3, 18240, Note_on_c, 9, 46, 0
3, 18240, Note_on_c, 9, 35, 100
3, 18240, Note_on_c, 9, 42, 90
3, 18240, Note_on_c, 9, 54, 60
3, 18270, Note_on_c, 9, 54, 0
3, 18270, Note_on_c, 9, 42, 0
3, 18270, Note_on_c, 9, 35, 0
3, 18270, Note_on_c, 9, 42, 40
3, 18270, Note_on_c, 9, 54, 40
3, 18300, Note_on_c, 9, 54, 0
3, 18300, Note_on_c, 9, 42, 0
3, 18300, Note_on_c, 9, 42, 115
3, 18300, Note_on_c, 9, 54, 90
3, 18330, Note_on_c, 9, 54, 0
3, 18330, Note_on_c, 9, 42, 0
3, 18330, Note_on_c, 9, 42, 50
3, 18330, Note_on_c, 9, 54, 40
3, 18360, Note_on_c, 9, 54, 0
3, 18360, Note_on_c, 9, 42, 0
3, 18360, Note_on_c, 9, 35, 100
3, 18360, Note_on_c, 9, 38, 100
3, 18360, Note_on_c, 9, 42, 90
3, 18360, Note_on_c, 9, 54, 60
3, 18390, Note_on_c, 9, 54, 0
3, 18390, Note_on_c, 9, 35, 0
3, 18390, Note_on_c, 9, 38, 0
3, 18390, Note_on_c, 9, 42, 0
3, 18390, Note_on_c, 9, 42, 40
3, 18390, Note_on_c, 9, 54, 40
3, 18420, Note_on_c, 9, 54, 0
3, 18420, Note_on_c, 9, 42, 0
3, 18420, Note_on_c, 9, 42, 115
3, 18420, Note_on_c, 9, 54, 90
3, 18450, Note_on_c, 9, 54, 0
3, 18450, Note_on_c, 9, 42, 0
3, 18450, Note_on_c, 9, 42, 50
3, 18450, Note_on_c, 9, 54, 40
3, 18480, Note_on_c, 9, 54, 0
3, 18480, Note_on_c, 9, 42, 0
3, 18480, Note_on_c, 9, 35, 100
3, 18480, Note_on_c, 9, 42, 90
3, 18480, Note_on_c, 9, 54, 60
3, 18510, Note_on_c, 9, 54, 0
3, 18510, Note_on_c, 9, 42, 0
3, 18510, Note_on_c, 9, 35, 0
3, 18510, Note_on_c, 9, 42, 50
3, 18510, Note_on_c, 9, 54, 40
3, 18540, Note_on_c, 9, 54, 0
3, 18540, Note_on_c, 9, 42, 0
3, 18540, Note_on_c, 9, 42, 115
3, 18540, Note_on_c, 9, 54, 90
3, 18570, Note_on_c, 9, 54, 0
3, 18570, Note_on_c, 9, 42, 0
3, 18570, Note_on_c, 9, 42, 50
3, 18570, Note_on_c, 9, 54, 40
3, 18600, Note_on_c, 9, 54, 0
3, 18600, Note_on_c, 9, 42, 0
3, 18600, Note_on_c, 9, 35, 100
3, 18600, Note_on_c, 9, 38, 100
3, 18600, Note_on_c, 9, 42, 90
3, 18600, Note_on_c, 9, 54, 60
3, 18630, Note_on_c, 9, 54, 0
3, 18630, Note_on_c, 9, 35, 0
3, 18630, Note_on_c, 9, 38, 0
3, 18630, Note_on_c, 9, 42, 0
3, 18630, Note_on_c, 9, 42, 60
3, 18630, Note_on_c, 9, 54, 40
3, 18660, Note_on_c, 9, 54, 0
3, 18660, Note_on_c, 9, 42, 0
3, 18660, Note_on_c, 9, 42, 115
3, 18660, Note_on_c, 9, 54, 90
3, 18690, Note_on_c, 9, 54, 0
3, 18690, Note_on_c, 9, 42, 0
3, 18690, Note_on_c, 9, 46, 54
3, 18690, Note_on_c, 9, 54, 40
3, 18720, Note_on_c, 9, 54, 0
3, 18720, Note_on_c, 9, 46, 0
3, 18720, Note_on_c, 9, 35, 100
3, 18720, Note_on_c, 9, 42, 90
3, 18720, Note_on_c, 9, 54, 60
3, 18750, Note_on_c, 9, 54, 0
3, 18750, Note_on_c, 9, 42, 0
3, 18750, Note_on_c, 9, 35, 0
3, 18750, Note_on_c, 9, 42, 40
3, 18750, Note_on_c, 9, 54, 40
3, 18780, Note_on_c, 9, 54, 0
3, 18780, Note_on_c, 9, 42, 0
3, 18780, Note_on_c, 9, 42, 115
3, 18780, Note_on_c, 9, 54, 90
3, 18810, Note_on_c, 9, 54, 0
3, 18810, Note_on_c, 9, 42, 0
3, 18810, Note_on_c, 9, 42, 50
3, 18810, Note_on_c, 9, 54, 40
3, 18840, Note_on_c, 9, 54, 0
3, 18840, Note_on_c, 9, 42, 0
3, 18840, Note_on_c, 9, 35, 100
3, 18840, Note_on_c, 9, 38, 100
3, 18840, Note_on_c, 9, 42, 90
3, 18840, Note_on_c, 9, 54, 60
3, 18870, Note_on_c, 9, 54, 0
3, 18870, Note_on_c, 9, 35, 0
3, 18870, Note_on_c, 9, 38, 0
3, 18870, Note_on_c, 9, 42, 0
3, 18870, Note_on_c, 9, 42, 40
3, 18870, Note_on_c, 9, 54, 40
3, 18900, Note_on_c, 9, 54, 0
3, 18900, Note_on_c, 9, 42, 0
3, 18900, Note_on_c, 9, 42, 115
3, 18900, Note_on_c, 9, 54, 90
3, 18930, Note_on_c, 9, 54, 0
3, 18930, Note_on_c, 9, 42, 0
3, 18930, Note_on_c, 9, 42, 50
3, 18930, Note_on_c, 9, 54, 40
3, 18960, Note_on_c, 9, 54, 0
3, 18960, Note_on_c, 9, 42, 0
3, 18960, Note_on_c, 9, 35, 100
3, 18960, Note_on_c, 9, 42, 90
3, 18960, Note_on_c, 9, 54, 60
3, 18990, Note_on_c, 9, 54, 0
3, 18990, Note_on_c, 9, 42, 0
3, 18990, Note_on_c, 9, 35, 0
3, 18990, Note_on_c, 9, 42, 50
3, 18990, Note_on_c, 9, 54, 40
3, 19020, Note_on_c, 9, 54, 0
3, 19020, Note_on_c, 9, 42, 0
3, 19020, Note_on_c, 9, 42, 115
3, 19020, Note_on_c, 9, 54, 90
3, 19050, Note_on_c, 9, 54, 0
3, 19050, Note_on_c, 9, 42, 0
3, 19050, Note_on_c, 9, 42, 50
3, 19050, Note_on_c, 9, 54, 40
3, 19080, Note_on_c, 9, 54, 0
3, 19080, Note_on_c, 9, 42, 0
3, 19080, Note_on_c, 9, 35, 100
3, 19080, Note_on_c, 9, 38, 100
3, 19080, Note_on_c, 9, 42, 90
3, 19080, Note_on_c, 9, 54, 60
3, 19110, Note_on_c, 9, 54, 0
3, 19110, Note_on_c, 9, 35, 0
3, 19110, Note_on_c, 9, 38, 0
3, 19110, Note_on_c, 9, 42, 0
3, 19110, Note_on_c, 9, 42, 60
3, 19110, Note_on_c, 9, 54, 40
3, 19140, Note_on_c, 9, 54, 0
3, 19140, Note_on_c, 9, 42, 0
3, 19140, Note_on_c, 9, 42, 115
3, 19140, Note_on_c, 9, 48, 100
3, 19140, Note_on_c, 9, 54, 90
3, 19170, Note_on_c, 9, 54, 0
3, 19170, Note_on_c, 9, 48, 0
3, 19170, Note_on_c, 9, 42, 0
3, 19170, Note_on_c, 9, 42, 50
3, 19170, Note_on_c, 9, 48, 90
3, 19170, Note_on_c, 9, 54, 40
3, 19200, Note_on_c, 9, 54, 0
3, 19200, Note_on_c, 9, 48, 0
3, 19200, Note_on_c, 9, 42, 0
3, 19200, Note_on_c, 9, 35, 100
3, 19200, Note_on_c, 9, 42, 90
3, 19200, Note_on_c, 9, 54, 60
3, 19230, Note_on_c, 9, 54, 0
3, 19230, Note_on_c, 9, 42, 0
3, 19230, Note_on_c, 9, 35, 0
3, 19230, Note_on_c, 9, 42, 40
3, 19230, Note_on_c, 9, 54, 40
3, 19260, Note_on_c, 9, 54, 0
3, 19260, Note_on_c, 9, 42, 0
3, 19260, Note_on_c, 9, 42, 115
3, 19260, Note_on_c, 9, 54, 90
3, 19290, Note_on_c, 9, 54, 0
3, 19290, Note_on_c, 9, 42, 0
3, 19290, Note_on_c, 9, 42, 50
3, 19290, Note_on_c, 9, 54, 40
3, 19320, Note_on_c, 9, 54, 0
3, 19320, Note_on_c, 9, 42, 0
3, 19320, Note_on_c, 9, 35, 100
3, 19320, Note_on_c, 9, 38, 100
3, 19320, Note_on_c, 9, 42, 90
3, 19320, Note_on_c, 9, 54, 60
3, 19350, Note_on_c, 9, 54, 0
3, 19350, Note_on_c, 9, 35, 0
3, 19350, Note_on_c, 9, 38, 0
3, 19350, Note_on_c, 9, 42, 0
3, 19350, Note_on_c, 9, 42, 40
3, 19350, Note_on_c, 9, 54, 40
3, 19380, Note_on_c, 9, 54, 0
3, 19380, Note_on_c, 9, 42, 0
3, 19380, Note_on_c, 9, 42, 115
3, 19380, Note_on_c, 9, 54, 90
3, 19410, Note_on_c, 9, 54, 0
3, 19410, Note_on_c, 9, 42, 0
3, 19410, Note_on_c, 9, 42, 50
3, 19410, Note_on_c, 9, 54, 40
3, 19440, Note_on_c, 9, 54, 0
3, 19440, Note_on_c, 9, 42, 0
3, 19440, Note_on_c, 9, 35, 100
3, 19440, Note_on_c, 9, 42, 90
3, 19440, Note_on_c, 9, 54, 60
3, 19470, Note_on_c, 9, 54, 0
3, 19470, Note_on_c, 9, 42, 0
3, 19470, Note_on_c, 9, 35, 0
3, 19470, Note_on_c, 9, 42, 50
3, 19470, Note_on_c, 9, 54, 40
3, 19500, Note_on_c, 9, 54, 0
3, 19500, Note_on_c, 9, 42, 0
3, 19500, Note_on_c, 9, 42, 115
3, 19500, Note_on_c, 9, 54, 90
3, 19530, Note_on_c, 9, 54, 0
3, 19530, Note_on_c, 9, 42, 0
3, 19530, Note_on_c, 9, 42, 50
3, 19530, Note_on_c, 9, 54, 40
3, 19560, Note_on_c, 9, 54, 0
3, 19560, Note_on_c, 9, 42, 0
3, 19560, Note_on_c, 9, 35, 100
3, 19560, Note_on_c, 9, 38, 100
3, 19560, Note_on_c, 9, 42, 90
3, 19560, Note_on_c, 9, 54, 60
3, 19590, Note_on_c, 9, 54, 0
3, 19590, Note_on_c, 9, 35, 0
3, 19590, Note_on_c, 9, 38, 0
3, 19590, Note_on_c, 9, 42, 0
3, 19590, Note_on_c, 9, 42, 60
3, 19590, Note_on_c, 9, 54, 40
3, 19620, Note_on_c, 9, 54, 0
3, 19620, Note_on_c, 9, 42, 0
3, 19620, Note_on_c, 9, 54, 90
3, 19620, Note_on_c, 9, 42, 115
3, 19650, Note_on_c, 9, 42, 0
3, 19650, Note_on_c, 9, 54, 0
3, 19650, Note_on_c, 9, 54, 40
3, 19650, Note_on_c, 9, 42, 50
3, 19680, Note_on_c, 9, 42, 0
3, 19680, Note_on_c, 9, 54, 0
3, 19680, Note_on_c, 9, 35, 100
3, 19680, Note_on_c, 9, 54, 100
3, 19680, Note_on_c, 9, 42, 90
3, 19710, Note_on_c, 9, 42, 0
3, 19710, Note_on_c, 9, 54, 0
3, 19710, Note_on_c, 9, 35, 0
3, 19710, Note_on_c, 9, 54, 100
3, 19710, Note_on_c, 9, 42, 40
3, 19740, Note_on_c, 9, 42, 0
3, 19740, Note_on_c, 9, 54, 0
3, 19740, Note_on_c, 9, 35, 100
3, 19740, Note_on_c, 9, 54, 40
3, 19740, Note_on_c, 9, 42, 115
3, 19770, Note_on_c, 9, 42, 0
3, 19770, Note_on_c, 9, 54, 0
3, 19770, Note_on_c, 9, 35, 0
3, 19770, Note_on_c, 9, 54, 100
3, 19770, Note_on_c, 9, 42, 50
3, 19800, Note_on_c, 9, 42, 0
3, 19800, Note_on_c, 9, 54, 0
3, 19800, Note_on_c, 9, 54, 100
3, 19800, Note_on_c, 9, 52, 100
3, 19800, Note_on_c, 9, 42, 90
3, 19830, Note_on_c, 9, 42, 0
3, 19830, Note_on_c, 9, 52, 0
3, 19830, Note_on_c, 9, 54, 0
3, 19830, Note_on_c, 9, 54, 100
3, 19830, Note_on_c, 9, 42, 40
3, 19860, Note_on_c, 9, 42, 0
3, 19860, Note_on_c, 9, 54, 0
3, 19860, Note_on_c, 9, 54, 100
3, 19860, Note_on_c, 9, 42, 115
3, 19890, Note_on_c, 9, 42, 0
3, 19890, Note_on_c, 9, 54, 0
3, 19890, Note_on_c, 9, 46, 100
3, 19890, Note_on_c, 9, 35, 90
3, 19890, Note_on_c, 9, 42, 50
3, 19920, Note_on_c, 9, 42, 0
3, 19920, Note_on_c, 9, 35, 0
3, 19920, Note_on_c, 9, 46, 0
3, 19920, Note_on_c, 9, 65, 100
3, 19920, Note_on_c, 9, 48, 40
3, 19920, Note_on_c, 9, 65, 100
3, 19920, Note_on_c, 9, 38, 100
3, 19950, Note_on_c, 9, 38, 0
3, 19950, Note_on_c, 9, 65, 0
3, 19950, Note_on_c, 9, 48, 0
3, 19950, Note_on_c, 9, 65, 0
3, 19950, Note_on_c, 9, 65, 100
3, 19950, Note_on_c, 9, 38, 80
3, 19980, Note_on_c, 9, 38, 0
3, 19980, Note_on_c, 9, 65, 0
3, 19980, Note_on_c, 9, 47, 40
3, 20010, Note_on_c, 9, 47, 0
3, 20010, Note_on_c, 9, 45, 40
3, 20010, Note_on_c, 9, 38, 80
3, 20040, Note_on_c, 9, 38, 0
3, 20040, Note_on_c, 9, 45, 0
3, 20040, Note_on_c, 9, 43, 40
3, 20040, Note_on_c, 9, 35, 100
3, 20040, Note_on_c, 9, 38, 115
3, 20070, Note_on_c, 9, 38, 0
3, 20070, Note_on_c, 9, 35, 0
3, 20070, Note_on_c, 9, 43, 0
3, 20100, Note_on_c, 9, 38, 127
3, 20100, Note_on_c, 9, 49, 100
3, 20130, Note_on_c, 9, 49, 0
3, 20130, Note_on_c, 9, 38, 0
3, 20130, Note_on_c, 9, 42, 50
3, 20160, Note_on_c, 9, 42, 0
3, 20160, Note_on_c, 9, 35, 100
3, 20160, Note_on_c, 9, 42, 90
3, 20160, Note_on_c, 9, 54, 60
3, 20190, Note_on_c, 9, 54, 0
3, 20190, Note_on_c, 9, 42, 0
3, 20190, Note_on_c, 9, 35, 0
3, 20190, Note_on_c, 9, 42, 40
3, 20190, Note_on_c, 9, 54, 40
3, 20220, Note_on_c, 9, 54, 0
3, 20220, Note_on_c, 9, 42, 0
3, 20220, Note_on_c, 9, 42, 115
3, 20220, Note_on_c, 9, 54, 90
3, 20250, Note_on_c, 9, 54, 0
3, 20250, Note_on_c, 9, 42, 0
3, 20250, Note_on_c, 9, 42, 50
3, 20250, Note_on_c, 9, 54, 40
3, 20280, Note_on_c, 9, 54, 0
3, 20280, Note_on_c, 9, 42, 0
3, 20280, Note_on_c, 9, 35, 100
3, 20280, Note_on_c, 9, 38, 100
3, 20280, Note_on_c, 9, 42, 90
3, 20280, Note_on_c, 9, 54, 60
3, 20310, Note_on_c, 9, 54, 0
3, 20310, Note_on_c, 9, 35, 0
3, 20310, Note_on_c, 9, 38, 0
3, 20310, Note_on_c, 9, 42, 0
3, 20310, Note_on_c, 9, 42, 40
3, 20310, Note_on_c, 9, 54, 40
3, 20340, Note_on_c, 9, 54, 0
3, 20340, Note_on_c, 9, 42, 0
3, 20340, Note_on_c, 9, 42, 115
3, 20340, Note_on_c, 9, 54, 90
3, 20370, Note_on_c, 9, 54, 0
3, 20370, Note_on_c, 9, 42, 0
3, 20370, Note_on_c, 9, 42, 50
3, 20370, Note_on_c, 9, 54, 40
3, 20400, Note_on_c, 9, 54, 0
3, 20400, Note_on_c, 9, 42, 0
3, 20400, Note_on_c, 9, 35, 100
3, 20400, Note_on_c, 9, 42, 90
3, 20400, Note_on_c, 9, 54, 60
3, 20430, Note_on_c, 9, 54, 0
3, 20430, Note_on_c, 9, 42, 0
3, 20430, Note_on_c, 9, 35, 0
3, 20430, Note_on_c, 9, 42, 50
3, 20430, Note_on_c, 9, 54, 40
3, 20460, Note_on_c, 9, 54, 0
3, 20460, Note_on_c, 9, 42, 0
3, 20460, Note_on_c, 9, 42, 115
3, 20460, Note_on_c, 9, 54, 90
3, 20490, Note_on_c, 9, 54, 0
3, 20490, Note_on_c, 9, 42, 0
3, 20490, Note_on_c, 9, 42, 50
3, 20490, Note_on_c, 9, 54, 40
3, 20520, Note_on_c, 9, 54, 0
3, 20520, Note_on_c, 9, 42, 0
3, 20520, Note_on_c, 9, 35, 100
3, 20520, Note_on_c, 9, 38, 100
3, 20520, Note_on_c, 9, 42, 90
3, 20520, Note_on_c, 9, 54, 60
3, 20550, Note_on_c, 9, 54, 0
3, 20550, Note_on_c, 9, 35, 0
3, 20550, Note_on_c, 9, 38, 0
3, 20550, Note_on_c, 9, 42, 0
3, 20550, Note_on_c, 9, 42, 60
3, 20550, Note_on_c, 9, 54, 40
3, 20580, Note_on_c, 9, 54, 0
3, 20580, Note_on_c, 9, 42, 0
3, 20580, Note_on_c, 9, 42, 115
3, 20580, Note_on_c, 9, 54, 90
3, 20610, Note_on_c, 9, 54, 0
3, 20610, Note_on_c, 9, 42, 0
3, 20610, Note_on_c, 9, 46, 54
3, 20610, Note_on_c, 9, 54, 40
3, 20640, Note_on_c, 9, 54, 0
3, 20640, Note_on_c, 9, 46, 0
3, 20640, Note_on_c, 9, 35, 100
3, 20640, Note_on_c, 9, 42, 90
3, 20640, Note_on_c, 9, 54, 60
3, 20670, Note_on_c, 9, 54, 0
3, 20670, Note_on_c, 9, 42, 0
3, 20670, Note_on_c, 9, 35, 0
3, 20670, Note_on_c, 9, 42, 40
3, 20670, Note_on_c, 9, 54, 40
3, 20700, Note_on_c, 9, 54, 0
3, 20700, Note_on_c, 9, 42, 0
3, 20700, Note_on_c, 9, 42, 115
3, 20700, Note_on_c, 9, 54, 90
3, 20730, Note_on_c, 9, 54, 0
3, 20730, Note_on_c, 9, 42, 0
3, 20730, Note_on_c, 9, 42, 50
3, 20730, Note_on_c, 9, 54, 40
3, 20760, Note_on_c, 9, 54, 0
3, 20760, Note_on_c, 9, 42, 0
3, 20760, Note_on_c, 9, 35, 100
3, 20760, Note_on_c, 9, 38, 100
3, 20760, Note_on_c, 9, 42, 90
3, 20760, Note_on_c, 9, 54, 60
3, 20790, Note_on_c, 9, 54, 0
3, 20790, Note_on_c, 9, 35, 0
3, 20790, Note_on_c, 9, 38, 0
3, 20790, Note_on_c, 9, 42, 0
3, 20790, Note_on_c, 9, 42, 40
3, 20790, Note_on_c, 9, 54, 40
3, 20820, Note_on_c, 9, 54, 0
3, 20820, Note_on_c, 9, 42, 0
3, 20820, Note_on_c, 9, 42, 115
3, 20820, Note_on_c, 9, 54, 90
3, 20850, Note_on_c, 9, 54, 0
3, 20850, Note_on_c, 9, 42, 0
3, 20850, Note_on_c, 9, 42, 50
3, 20850, Note_on_c, 9, 54, 40
3, 20880, Note_on_c, 9, 54, 0
3, 20880, Note_on_c, 9, 42, 0
3, 20880, Note_on_c, 9, 35, 100
3, 20880, Note_on_c, 9, 42, 90
3, 20880, Note_on_c, 9, 54, 60
3, 20910, Note_on_c, 9, 54, 0
3, 20910, Note_on_c, 9, 42, 0
3, 20910, Note_on_c, 9, 35, 0
3, 20910, Note_on_c, 9, 42, 50
3, 20910, Note_on_c, 9, 54, 40
3, 20940, Note_on_c, 9, 54, 0
3, 20940, Note_on_c, 9, 42, 0
3, 20940, Note_on_c, 9, 42, 115
3, 20940, Note_on_c, 9, 54, 90
3, 20970, Note_on_c, 9, 54, 0
3, 20970, Note_on_c, 9, 42, 0
3, 20970, Note_on_c, 9, 42, 50
3, 20970, Note_on_c, 9, 54, 40
3, 21000, Note_on_c, 9, 54, 0
3, 21000, Note_on_c, 9, 42, 0
3, 21000, Note_on_c, 9, 35, 100
3, 21000, Note_on_c, 9, 38, 100
3, 21000, Note_on_c, 9, 42, 90
3, 21000, Note_on_c, 9, 54, 60
3, 21030, Note_on_c, 9, 54, 0
3, 21030, Note_on_c, 9, 35, 0
3, 21030, Note_on_c, 9, 38, 0
3, 21030, Note_on_c, 9, 42, 0
3, 21030, Note_on_c, 9, 42, 60
3, 21030, Note_on_c, 9, 54, 40
3, 21060, Note_on_c, 9, 54, 0
3, 21060, Note_on_c, 9, 42, 0
3, 21060, Note_on_c, 9, 42, 115
3, 21060, Note_on_c, 9, 48, 100
3, 21060, Note_on_c, 9, 54, 90
3, 21090, Note_on_c, 9, 54, 0
3, 21090, Note_on_c, 9, 48, 0
3, 21090, Note_on_c, 9, 42, 0
3, 21090, Note_on_c, 9, 46, 100
3, 21090, Note_on_c, 9, 48, 90
3, 21090, Note_on_c, 9, 54, 40
3, 21120, Note_on_c, 9, 54, 0
3, 21120, Note_on_c, 9, 48, 0
3, 21120, Note_on_c, 9, 46, 0
3, 21120, Note_on_c, 9, 35, 100
3, 21120, Note_on_c, 9, 42, 90
3, 21120, Note_on_c, 9, 54, 60
3, 21150, Note_on_c, 9, 54, 0
3, 21150, Note_on_c, 9, 42, 0
3, 21150, Note_on_c, 9, 35, 0
3, 21150, Note_on_c, 9, 42, 40
3, 21150, Note_on_c, 9, 54, 40
3, 21180, Note_on_c, 9, 54, 0
3, 21180, Note_on_c, 9, 42, 0
3, 21180, Note_on_c, 9, 42, 115
3, 21180, Note_on_c, 9, 54, 90
3, 21210, Note_on_c, 9, 54, 0
3, 21210, Note_on_c, 9, 42, 0
3, 21210, Note_on_c, 9, 42, 50
3, 21210, Note_on_c, 9, 54, 40
3, 21240, Note_on_c, 9, 54, 0
3, 21240, Note_on_c, 9, 42, 0
3, 21240, Note_on_c, 9, 35, 100
3, 21240, Note_on_c, 9, 38, 100
3, 21240, Note_on_c, 9, 42, 90
3, 21240, Note_on_c, 9, 54, 60
3, 21270, Note_on_c, 9, 54, 0
3, 21270, Note_on_c, 9, 35, 0
3, 21270, Note_on_c, 9, 38, 0
3, 21270, Note_on_c, 9, 42, 0
3, 21270, Note_on_c, 9, 42, 40
3, 21270, Note_on_c, 9, 54, 40
3, 21300, Note_on_c, 9, 54, 0
3, 21300, Note_on_c, 9, 42, 0
3, 21300, Note_on_c, 9, 42, 115
3, 21300, Note_on_c, 9, 54, 90
3, 21330, Note_on_c, 9, 54, 0
3, 21330, Note_on_c, 9, 42, 0
3, 21330, Note_on_c, 9, 42, 50
3, 21330, Note_on_c, 9, 54, 40
3, 21360, Note_on_c, 9, 54, 0
3, 21360, Note_on_c, 9, 42, 0
3, 21360, Note_on_c, 9, 35, 100
3, 21360, Note_on_c, 9, 42, 90
3, 21360, Note_on_c, 9, 54, 60
3, 21390, Note_on_c, 9, 54, 0
3, 21390, Note_on_c, 9, 42, 0
3, 21390, Note_on_c, 9, 35, 0
3, 21390, Note_on_c, 9, 42, 50
3, 21390, Note_on_c, 9, 54, 40
3, 21420, Note_on_c, 9, 54, 0
3, 21420, Note_on_c, 9, 42, 0
3, 21420, Note_on_c, 9, 42, 115
3, 21420, Note_on_c, 9, 54, 90
3, 21450, Note_on_c, 9, 54, 0
3, 21450, Note_on_c, 9, 42, 0
3, 21450, Note_on_c, 9, 42, 50
3, 21450, Note_on_c, 9, 54, 40
3, 21480, Note_on_c, 9, 54, 0
3, 21480, Note_on_c, 9, 42, 0
3, 21480, Note_on_c, 9, 35, 100
3, 21480, Note_on_c, 9, 38, 100
3, 21480, Note_on_c, 9, 42, 90
3, 21480, Note_on_c, 9, 54, 60
3, 21510, Note_on_c, 9, 54, 0
3, 21510, Note_on_c, 9, 35, 0
3, 21510, Note_on_c, 9, 38, 0
3, 21510, Note_on_c, 9, 42, 0
3, 21510, Note_on_c, 9, 42, 60
3, 21510, Note_on_c, 9, 54, 40
3, 21540, Note_on_c, 9, 54, 0
3, 21540, Note_on_c, 9, 42, 0
3, 21540, Note_on_c, 9, 42, 115
3, 21540, Note_on_c, 9, 54, 90
3, 21570, Note_on_c, 9, 54, 0
3, 21570, Note_on_c, 9, 42, 0
3, 21570, Note_on_c, 9, 46, 100
3, 21570, Note_on_c, 9, 54, 40
3, 21600, Note_on_c, 9, 54, 0
3, 21600, Note_on_c, 9, 46, 0
3, 21600, Note_on_c, 9, 54, 100
3, 21600, Note_on_c, 9, 42, 90
3, 21630, Note_on_c, 9, 42, 0
3, 21630, Note_on_c, 9, 54, 0
3, 21630, Note_on_c, 9, 42, 40
3, 21660, Note_on_c, 9, 42, 0
3, 21660, Note_on_c, 9, 54, 100
3, 21660, Note_on_c, 9, 42, 115
3, 21690, Note_on_c, 9, 42, 0
3, 21690, Note_on_c, 9, 54, 0
3, 21690, Note_on_c, 9, 42, 50
3, 21720, Note_on_c, 9, 42, 0
3, 21720, Note_on_c, 9, 54, 100
3, 21720, Note_on_c, 9, 42, 90
3, 21750, Note_on_c, 9, 42, 0
3, 21750, Note_on_c, 9, 54, 0
3, 21750, Note_on_c, 9, 42, 40
3, 21780, Note_on_c, 9, 42, 0
3, 21780, Note_on_c, 9, 54, 100
3, 21780, Note_on_c, 9, 42, 115
3, 21810, Note_on_c, 9, 42, 0
3, 21810, Note_on_c, 9, 54, 0
3, 21810, Note_on_c, 9, 50, 100
3, 21810, Note_on_c, 9, 35, 90
3, 21810, Note_on_c, 9, 42, 50
3, 21840, Note_on_c, 9, 42, 0
3, 21840, Note_on_c, 9, 35, 0
3, 21840, Note_on_c, 9, 50, 0
3, 21840, Note_on_c, 9, 54, 100
3, 21840, Note_on_c, 9, 38, 100
3, 21870, Note_on_c, 9, 38, 0
3, 21870, Note_on_c, 9, 54, 0
3, 21870, Note_on_c, 9, 48, 100
3, 21870, Note_on_c, 9, 38, 80
3, 21900, Note_on_c, 9, 38, 0
3, 21900, Note_on_c, 9, 48, 0
3, 21930, Note_on_c, 9, 54, 100
3, 21930, Note_on_c, 9, 38, 80
3, 21960, Note_on_c, 9, 38, 0
3, 21960, Note_on_c, 9, 54, 0
3, 21960, Note_on_c, 9, 54, 100
3, 21960, Note_on_c, 9, 35, 100
3, 21960, Note_on_c, 9, 38, 115
3, 21990, Note_on_c, 9, 38, 0
3, 21990, Note_on_c, 9, 35, 0
3, 21990, Note_on_c, 9, 54, 0
3, 21990, Note_on_c, 9, 45, 100
3, 21990, Note_on_c, 9, 54, 100
3, 22020, Note_on_c, 9, 54, 0
3, 22020, Note_on_c, 9, 45, 0
3, 22020, Note_on_c, 9, 45, 100
3, 22020, Note_on_c, 9, 38, 127
3, 22020, Note_on_c, 9, 49, 100
3, 22050, Note_on_c, 9, 49, 0
3, 22050, Note_on_c, 9, 38, 0
3, 22050, Note_on_c, 9, 45, 0
3, 22050, Note_on_c, 9, 47, 100
3, 22050, Note_on_c, 9, 42, 50
3, 22080, Note_on_c, 9, 42, 0
3, 22080, Note_on_c, 9, 47, 0
3, 22080, Note_on_c, 9, 46, 100
3, 22080, Note_on_c, 9, 35, 100
3, 22080, Note_on_c, 9, 54, 60
3, 22110, Note_on_c, 9, 54, 0
3, 22110, Note_on_c, 9, 35, 0
3, 22110, Note_on_c, 9, 46, 0
3, 22110, Note_on_c, 9, 42, 40
3, 22110, Note_on_c, 9, 54, 40
3, 22140, Note_on_c, 9, 54, 0
3, 22140, Note_on_c, 9, 42, 0
3, 22140, Note_on_c, 9, 42, 115
3, 22140, Note_on_c, 9, 54, 90
3, 22170, Note_on_c, 9, 54, 0
3, 22170, Note_on_c, 9, 42, 0
3, 22170, Note_on_c, 9, 42, 100
3, 22170, Note_on_c, 9, 54, 40
3, 22200, Note_on_c, 9, 54, 0
3, 22200, Note_on_c, 9, 42, 0
3, 22200, Note_on_c, 9, 35, 100
3, 22200, Note_on_c, 9, 38, 100
3, 22200, Note_on_c, 9, 42, 90
3, 22200, Note_on_c, 9, 54, 60
3, 22230, Note_on_c, 9, 54, 0
3, 22230, Note_on_c, 9, 35, 0
3, 22230, Note_on_c, 9, 38, 0
3, 22230, Note_on_c, 9, 42, 0
3, 22230, Note_on_c, 9, 42, 40
3, 22230, Note_on_c, 9, 54, 40
3, 22260, Note_on_c, 9, 54, 0
3, 22260, Note_on_c, 9, 42, 0
3, 22260, Note_on_c, 9, 42, 115
3, 22260, Note_on_c, 9, 54, 90
3, 22290, Note_on_c, 9, 54, 0
3, 22290, Note_on_c, 9, 42, 0
3, 22290, Note_on_c, 9, 42, 100
3, 22290, Note_on_c, 9, 54, 40
3, 22320, Note_on_c, 9, 54, 0
3, 22320, Note_on_c, 9, 42, 0
3, 22320, Note_on_c, 9, 35, 100
3, 22320, Note_on_c, 9, 42, 90
3, 22320, Note_on_c, 9, 54, 60
3, 22350, Note_on_c, 9, 54, 0
3, 22350, Note_on_c, 9, 42, 0
3, 22350, Note_on_c, 9, 35, 0
3, 22350, Note_on_c, 9, 42, 50
3, 22350, Note_on_c, 9, 54, 40
3, 22380, Note_on_c, 9, 54, 0
3, 22380, Note_on_c, 9, 42, 0
3, 22380, Note_on_c, 9, 42, 115
3, 22380, Note_on_c, 9, 54, 90
3, 22410, Note_on_c, 9, 54, 0
3, 22410, Note_on_c, 9, 42, 0
3, 22410, Note_on_c, 9, 46, 100
3, 22410, Note_on_c, 9, 54, 40
3, 22440, Note_on_c, 9, 54, 0
3, 22440, Note_on_c, 9, 46, 0
3, 22440, Note_on_c, 9, 35, 100
3, 22440, Note_on_c, 9, 38, 100
3, 22440, Note_on_c, 9, 42, 90
3, 22440, Note_on_c, 9, 54, 60
3, 22470, Note_on_c, 9, 54, 0
3, 22470, Note_on_c, 9, 35, 0
3, 22470, Note_on_c, 9, 38, 0
3, 22470, Note_on_c, 9, 42, 0
3, 22470, Note_on_c, 9, 42, 60
3, 22470, Note_on_c, 9, 54, 40
3, 22500, Note_on_c, 9, 54, 0
3, 22500, Note_on_c, 9, 42, 0
3, 22500, Note_on_c, 9, 42, 115
3, 22500, Note_on_c, 9, 54, 90
3, 22530, Note_on_c, 9, 54, 0
3, 22530, Note_on_c, 9, 42, 0
3, 22530, Note_on_c, 9, 46, 54
3, 22530, Note_on_c, 9, 54, 40
3, 22560, Note_on_c, 9, 54, 0
3, 22560, Note_on_c, 9, 46, 0
3, 22560, Note_on_c, 9, 35, 100
3, 22560, Note_on_c, 9, 42, 90
3, 22560, Note_on_c, 9, 54, 60
3, 22590, Note_on_c, 9, 54, 0
3, 22590, Note_on_c, 9, 42, 0
3, 22590, Note_on_c, 9, 35, 0
3, 22590, Note_on_c, 9, 42, 40
3, 22590, Note_on_c, 9, 54, 40
3, 22620, Note_on_c, 9, 54, 0
3, 22620, Note_on_c, 9, 42, 0
3, 22620, Note_on_c, 9, 42, 115
3, 22620, Note_on_c, 9, 54, 90
3, 22650, Note_on_c, 9, 54, 0
3, 22650, Note_on_c, 9, 42, 0
3, 22650, Note_on_c, 9, 42, 50
3, 22650, Note_on_c, 9, 54, 40
3, 22680, Note_on_c, 9, 54, 0
3, 22680, Note_on_c, 9, 42, 0
3, 22680, Note_on_c, 9, 35, 100
3, 22680, Note_on_c, 9, 38, 100
3, 22680, Note_on_c, 9, 42, 90
3, 22680, Note_on_c, 9, 54, 60
3, 22710, Note_on_c, 9, 54, 0
3, 22710, Note_on_c, 9, 35, 0
3, 22710, Note_on_c, 9, 38, 0
3, 22710, Note_on_c, 9, 42, 0
3, 22710, Note_on_c, 9, 42, 40
3, 22710, Note_on_c, 9, 54, 40
3, 22740, Note_on_c, 9, 54, 0
3, 22740, Note_on_c, 9, 42, 0
3, 22740, Note_on_c, 9, 42, 115
3, 22740, Note_on_c, 9, 54, 90
3, 22770, Note_on_c, 9, 54, 0
3, 22770, Note_on_c, 9, 42, 0
3, 22770, Note_on_c, 9, 42, 50
3, 22770, Note_on_c, 9, 54, 40
3, 22800, Note_on_c, 9, 54, 0
3, 22800, Note_on_c, 9, 42, 0
3, 22800, Note_on_c, 9, 35, 100
3, 22800, Note_on_c, 9, 42, 90
3, 22800, Note_on_c, 9, 54, 60
3, 22830, Note_on_c, 9, 54, 0
3, 22830, Note_on_c, 9, 42, 0
3, 22830, Note_on_c, 9, 35, 0
3, 22830, Note_on_c, 9, 42, 50
3, 22830, Note_on_c, 9, 54, 40
3, 22860, Note_on_c, 9, 54, 0
3, 22860, Note_on_c, 9, 42, 0
3, 22860, Note_on_c, 9, 42, 115
3, 22860, Note_on_c, 9, 54, 90
3, 22890, Note_on_c, 9, 54, 0
3, 22890, Note_on_c, 9, 42, 0
3, 22890, Note_on_c, 9, 42, 50
3, 22890, Note_on_c, 9, 54, 40
3, 22920, Note_on_c, 9, 54, 0
3, 22920, Note_on_c, 9, 42, 0
3, 22920, Note_on_c, 9, 35, 100
3, 22920, Note_on_c, 9, 38, 100
3, 22920, Note_on_c, 9, 42, 90
3, 22920, Note_on_c, 9, 54, 60
3, 22950, Note_on_c, 9, 54, 0
3, 22950, Note_on_c, 9, 35, 0
3, 22950, Note_on_c, 9, 38, 0
3, 22950, Note_on_c, 9, 42, 0
3, 22950, Note_on_c, 9, 42, 60
3, 22950, Note_on_c, 9, 54, 40
3, 22980, Note_on_c, 9, 54, 0
3, 22980, Note_on_c, 9, 42, 0
3, 22980, Note_on_c, 9, 42, 115
3, 22980, Note_on_c, 9, 48, 100
3, 22980, Note_on_c, 9, 54, 90
3, 23010, Note_on_c, 9, 54, 0
3, 23010, Note_on_c, 9, 48, 0
3, 23010, Note_on_c, 9, 42, 0
3, 23010, Note_on_c, 9, 42, 50
3, 23010, Note_on_c, 9, 48, 90
3, 23010, Note_on_c, 9, 54, 40
3, 23040, Note_on_c, 9, 54, 0
3, 23040, Note_on_c, 9, 48, 0
3, 23040, Note_on_c, 9, 42, 0
3, 23040, Note_on_c, 9, 35, 100
3, 23040, Note_on_c, 9, 42, 90
3, 23040, Note_on_c, 9, 54, 60
3, 23070, Note_on_c, 9, 54, 0
3, 23070, Note_on_c, 9, 42, 0
3, 23070, Note_on_c, 9, 35, 0
3, 23070, Note_on_c, 9, 42, 40
3, 23070, Note_on_c, 9, 54, 40
3, 23100, Note_on_c, 9, 54, 0
3, 23100, Note_on_c, 9, 42, 0
3, 23100, Note_on_c, 9, 42, 115
3, 23100, Note_on_c, 9, 54, 90
3, 23130, Note_on_c, 9, 54, 0
3, 23130, Note_on_c, 9, 42, 0
3, 23130, Note_on_c, 9, 42, 50
3, 23130, Note_on_c, 9, 54, 40
3, 23160, Note_on_c, 9, 54, 0
3, 23160, Note_on_c, 9, 42, 0
3, 23160, Note_on_c, 9, 35, 100
3, 23160, Note_on_c, 9, 38, 100
3, 23160, Note_on_c, 9, 42, 90
3, 23160, Note_on_c, 9, 54, 60
3, 23190, Note_on_c, 9, 54, 0
3, 23190, Note_on_c, 9, 35, 0
3, 23190, Note_on_c, 9, 38, 0
3, 23190, Note_on_c, 9, 42, 0
3, 23190, Note_on_c, 9, 42, 40
3, 23190, Note_on_c, 9, 54, 40
3, 23220, Note_on_c, 9, 54, 0
3, 23220, Note_on_c, 9, 42, 0
3, 23220, Note_on_c, 9, 42, 115
3, 23220, Note_on_c, 9, 54, 90
3, 23250, Note_on_c, 9, 54, 0
3, 23250, Note_on_c, 9, 42, 0
3, 23250, Note_on_c, 9, 42, 50
3, 23250, Note_on_c, 9, 54, 40
3, 23280, Note_on_c, 9, 54, 0
3, 23280, Note_on_c, 9, 42, 0
3, 23280, Note_on_c, 9, 35, 100
3, 23280, Note_on_c, 9, 42, 90
3, 23280, Note_on_c, 9, 54, 60
3, 23310, Note_on_c, 9, 54, 0
3, 23310, Note_on_c, 9, 42, 0
3, 23310, Note_on_c, 9, 35, 0
3, 23310, Note_on_c, 9, 42, 50
3, 23310, Note_on_c, 9, 54, 40
3, 23340, Note_on_c, 9, 54, 0
3, 23340, Note_on_c, 9, 42, 0
3, 23340, Note_on_c, 9, 42, 115
3, 23340, Note_on_c, 9, 54, 90
3, 23370, Note_on_c, 9, 54, 0
3, 23370, Note_on_c, 9, 42, 0
3, 23370, Note_on_c, 9, 42, 50
3, 23370, Note_on_c, 9, 54, 40
3, 23400, Note_on_c, 9, 54, 0
3, 23400, Note_on_c, 9, 42, 0
3, 23400, Note_on_c, 9, 35, 100
3, 23400, Note_on_c, 9, 38, 100
3, 23400, Note_on_c, 9, 42, 90
3, 23400, Note_on_c, 9, 54, 60
3, 23430, Note_on_c, 9, 54, 0
3, 23430, Note_on_c, 9, 35, 0
3, 23430, Note_on_c, 9, 38, 0
3, 23430, Note_on_c, 9, 42, 0
3, 23430, Note_on_c, 9, 42, 60
3, 23430, Note_on_c, 9, 54, 40
3, 23460, Note_on_c, 9, 54, 0
3, 23460, Note_on_c, 9, 42, 0
3, 23460, Note_on_c, 9, 42, 115
3, 23460, Note_on_c, 9, 54, 90
3, 23490, Note_on_c, 9, 54, 0
3, 23490, Note_on_c, 9, 42, 0
3, 23490, Note_on_c, 9, 42, 50
3, 23490, Note_on_c, 9, 54, 40
3, 23520, Note_on_c, 9, 54, 0
3, 23520, Note_on_c, 9, 42, 0
3, 23520, Note_on_c, 9, 42, 90
3, 23550, Note_on_c, 9, 42, 0
3, 23550, Note_on_c, 9, 42, 40
3, 23580, Note_on_c, 9, 42, 0
3, 23580, Note_on_c, 9, 42, 115
3, 23610, Note_on_c, 9, 42, 0
3, 23610, Note_on_c, 9, 42, 50
3, 23640, Note_on_c, 9, 42, 0
3, 23640, Note_on_c, 9, 42, 90
3, 23670, Note_on_c, 9, 42, 0
3, 23670, Note_on_c, 9, 42, 40
3, 23700, Note_on_c, 9, 42, 0
3, 23700, Note_on_c, 9, 42, 115
3, 23730, Note_on_c, 9, 42, 0
3, 23730, Note_on_c, 9, 35, 90
3, 23730, Note_on_c, 9, 42, 50
3, 23760, Note_on_c, 9, 42, 0
3, 23760, Note_on_c, 9, 35, 0
3, 23760, Note_on_c, 9, 38, 100
3, 23790, Note_on_c, 9, 38, 0
3, 23790, Note_on_c, 9, 38, 80
3, 23820, Note_on_c, 9, 38, 0
3, 23850, Note_on_c, 9, 38, 80
3, 23880, Note_on_c, 9, 38, 0
3, 23880, Note_on_c, 9, 35, 100
3, 23880, Note_on_c, 9, 38, 115
3, 23910, Note_on_c, 9, 38, 0
3, 23910, Note_on_c, 9, 35, 0
3, 23940, Note_on_c, 9, 38, 127
3, 23940, Note_on_c, 9, 49, 100
3, 23970, Note_on_c, 9, 49, 0
3, 23970, Note_on_c, 9, 38, 0
3, 23970, Note_on_c, 9, 42, 50
3, 24000, Note_on_c, 9, 42, 0
3, 24000, End_track
4, 0, Start_track
4, 0, MIDI_port, 0
4, 0, Title_t, "Organ"
4, 0, Program_c, 1, 18
4, 0, Control_c, 1, 7, 127
4, 0, Control_c, 1, 10, 64
4, 3900, Note_on_c, 1, 79, 51
4, 3900, Note_on_c, 1, 67, 45
4, 3900, Note_on_c, 1, 76, 47
4, 3900, Note_on_c, 1, 72, 41
4, 4004, Note_on_c, 1, 76, 0
4, 4004, Note_on_c, 1, 67, 0
4, 4005, Note_on_c, 1, 72, 0
4, 4015, Note_on_c, 1, 79, 0
4, 4020, Note_on_c, 1, 72, 55
4, 4020, Note_on_c, 1, 76, 55
4, 4020, Note_on_c, 1, 67, 61
4, 4026, Note_on_c, 1, 76, 0
4, 4028, Note_on_c, 1, 67, 0
4, 4028, Note_on_c, 1, 72, 0
4, 4140, Note_on_c, 1, 74, 48
4, 4140, Note_on_c, 1, 79, 48
4, 4140, Note_on_c, 1, 83, 49
4, 4152, Note_on_c, 1, 79, 0
4, 4155, Note_on_c, 1, 83, 0
4, 4155, Note_on_c, 1, 74, 0
4, 4170, Note_on_c, 1, 83, 45
4, 4170, Note_on_c, 1, 74, 55
4, 4170, Note_on_c, 1, 79, 48
4, 4182, Note_on_c, 1, 79, 0
4, 4187, Note_on_c, 1, 74, 0
4, 4187, Note_on_c, 1, 83, 0
4, 4230, Note_on_c, 1, 62, 52
4, 4243, Note_on_c, 1, 62, 0
4, 4260, Note_on_c, 1, 79, 65
4, 4260, Note_on_c, 1, 74, 57
4, 4260, Note_on_c, 1, 83, 59
4, 4280, Note_on_c, 1, 74, 0
4, 4285, Note_on_c, 1, 83, 0
4, 4285, Note_on_c, 1, 79, 0
4, 4380, Note_on_c, 1, 72, 48
4, 4380, Note_on_c, 1, 76, 48
4, 4380, Note_on_c, 1, 79, 49
4, 4392, Note_on_c, 1, 76, 0
4, 4395, Note_on_c, 1, 79, 0
4, 4395, Note_on_c, 1, 72, 0
4, 4410, Note_on_c, 1, 79, 45
4, 4410, Note_on_c, 1, 72, 55
4, 4410, Note_on_c, 1, 76, 48
4, 4422, Note_on_c, 1, 76, 0
4, 4427, Note_on_c, 1, 72, 0
4, 4427, Note_on_c, 1, 79, 0
4, 4470, Note_on_c, 1, 60, 52
4, 4483, Note_on_c, 1, 60, 0
4, 4500, Note_on_c, 1, 76, 65
4, 4500, Note_on_c, 1, 72, 57
4, 4500, Note_on_c, 1, 79, 59
4, 4520, Note_on_c, 1, 72, 0
4, 4525, Note_on_c, 1, 79, 0
4, 4525, Note_on_c, 1, 76, 0
4, 4620, Note_on_c, 1, 83, 51
4, 4620, Note_on_c, 1, 71, 45
4, 4620, Note_on_c, 1, 79, 47
4, 4620, Note_on_c, 1, 74, 41
4, 4724, Note_on_c, 1, 79, 0
4, 4724, Note_on_c, 1, 71, 0
4, 4725, Note_on_c, 1, 74, 0
4, 4735, Note_on_c, 1, 83, 0
4, 4740, Note_on_c, 1, 74, 55
4, 4740, Note_on_c, 1, 79, 55
4, 4740, Note_on_c, 1, 71, 61
4, 4746, Note_on_c, 1, 79, 0
4, 4748, Note_on_c, 1, 71, 0
4, 4748, Note_on_c, 1, 74, 0
4, 4860, Note_on_c, 1, 81, 51
4, 4860, Note_on_c, 1, 69, 45
4, 4860, Note_on_c, 1, 77, 47
4, 4860, Note_on_c, 1, 72, 41
4, 4964, Note_on_c, 1, 77, 0
4, 4964, Note_on_c, 1, 69, 0
4, 4965, Note_on_c, 1, 72, 0
4, 4975, Note_on_c, 1, 81, 0
4, 4980, Note_on_c, 1, 72, 55
4, 4980, Note_on_c, 1, 77, 55
4, 4980, Note_on_c, 1, 69, 61
4, 4986, Note_on_c, 1, 77, 0
4, 4988, Note_on_c, 1, 69, 0
4, 4988, Note_on_c, 1, 72, 0
4, 5100, Note_on_c, 1, 79, 63
4, 5100, Note_on_c, 1, 76, 67
4, 5100, Note_on_c, 1, 71, 58
4, 5100, Note_on_c, 1, 67, 61
4, 5122, Note_on_c, 1, 76, 0
4, 5123, Note_on_c, 1, 71, 0
4, 5124, Note_on_c, 1, 67, 0
4, 5129, Note_on_c, 1, 79, 0
4, 5160, Note_on_c, 1, 67, 48
4, 5177, Note_on_c, 1, 67, 0
4, 5190, Note_on_c, 1, 71, 46
4, 5210, Note_on_c, 1, 71, 0
4, 5220, Note_on_c, 1, 76, 82
4, 5233, Note_on_c, 1, 76, 0
4, 5340, Note_on_c, 1, 71, 55
4, 5340, Note_on_c, 1, 74, 51
4, 5340, Note_on_c, 1, 83, 55
4, 5340, Note_on_c, 1, 79, 48
4, 5355, Note_on_c, 1, 79, 0
4, 5355, Note_on_c, 1, 83, 0
4, 5355, Note_on_c, 1, 71, 0
4, 5358, Note_on_c, 1, 74, 0
4, 5370, Note_on_c, 1, 79, 59
4, 5370, Note_on_c, 1, 83, 59
4, 5370, Note_on_c, 1, 74, 39
4, 5370, Note_on_c, 1, 71, 51
4, 5385, Note_on_c, 1, 71, 0
4, 5385, Note_on_c, 1, 79, 0
4, 5385, Note_on_c, 1, 83, 0
4, 5385, Note_on_c, 1, 74, 0
4, 5430, Note_on_c, 1, 71, 53
4, 5446, Note_on_c, 1, 71, 0
4, 5460, Note_on_c, 1, 74, 51
4, 5473, Note_on_c, 1, 74, 0
4, 5490, Note_on_c, 1, 79, 61
4, 5501, Note_on_c, 1, 79, 0
4, 5520, Note_on_c, 1, 74, 55
4, 5520, Note_on_c, 1, 79, 65
4, 5520, Note_on_c, 1, 83, 57
4, 5567, Note_on_c, 1, 83, 0
4, 5570, Note_on_c, 1, 79, 0
4, 5572, Note_on_c, 1, 74, 0
4, 5580, Note_on_c, 1, 83, 63
4, 5580, Note_on_c, 1, 79, 49
4, 5580, Note_on_c, 1, 74, 27
4, 5589, Note_on_c, 1, 74, 0
4, 5589, Note_on_c, 1, 79, 0
4, 5593, Note_on_c, 1, 83, 0
4, 5610, Note_on_c, 1, 83, 55
4, 5610, Note_on_c, 1, 79, 41
4, 5619, Note_on_c, 1, 79, 0
4, 5619, Note_on_c, 1, 83, 0
4, 5670, Note_on_c, 1, 74, 43
4, 5684, Note_on_c, 1, 74, 0
4, 5700, Note_on_c, 1, 79, 61
4, 5711, Note_on_c, 1, 79, 0
4, 5730, Note_on_c, 1, 83, 55
4, 5730, Note_on_c, 1, 74, 30
4, 5730, Note_on_c, 1, 79, 27
4, 5734, Note_on_c, 1, 79, 0
4, 5741, Note_on_c, 1, 74, 0
4, 5741, Note_on_c, 1, 83, 0
4, 5820, Note_on_c, 1, 81, 51
4, 5820, Note_on_c, 1, 69, 45
4, 5820, Note_on_c, 1, 77, 47
4, 5820, Note_on_c, 1, 72, 41
4, 5924, Note_on_c, 1, 77, 0
4, 5924, Note_on_c, 1, 69, 0
4, 5925, Note_on_c, 1, 72, 0
4, 5935, Note_on_c, 1, 81, 0
4, 5940, Note_on_c, 1, 72, 55
4, 5940, Note_on_c, 1, 77, 55
4, 5940, Note_on_c, 1, 69, 61
4, 5946, Note_on_c, 1, 77, 0
4, 5948, Note_on_c, 1, 69, 0
4, 5948, Note_on_c, 1, 72, 0
4, 6060, Note_on_c, 1, 83, 63
4, 6060, Note_on_c, 1, 79, 67
4, 6060, Note_on_c, 1, 74, 58
4, 6060, Note_on_c, 1, 71, 61
4, 6082, Note_on_c, 1, 79, 0
4, 6083, Note_on_c, 1, 74, 0
4, 6084, Note_on_c, 1, 71, 0
4, 6089, Note_on_c, 1, 83, 0
4, 6120, Note_on_c, 1, 71, 48
4, 6137, Note_on_c, 1, 71, 0
4, 6150, Note_on_c, 1, 74, 46
4, 6170, Note_on_c, 1, 74, 0
4, 6180, Note_on_c, 1, 79, 82
4, 6193, Note_on_c, 1, 79, 0
4, 6300, Note_on_c, 1, 69, 48
4, 6300, Note_on_c, 1, 72, 48
4, 6300, Note_on_c, 1, 76, 49
4, 6312, Note_on_c, 1, 72, 0
4, 6315, Note_on_c, 1, 76, 0
4, 6315, Note_on_c, 1, 69, 0
4, 6330, Note_on_c, 1, 76, 45
4, 6330, Note_on_c, 1, 69, 55
4, 6330, Note_on_c, 1, 72, 48
4, 6342, Note_on_c, 1, 72, 0
4, 6347, Note_on_c, 1, 69, 0
4, 6347, Note_on_c, 1, 76, 0
4, 6390, Note_on_c, 1, 57, 52
4, 6403, Note_on_c, 1, 57, 0
4, 6420, Note_on_c, 1, 72, 65
4, 6420, Note_on_c, 1, 69, 57
4, 6420, Note_on_c, 1, 76, 59
4, 6440, Note_on_c, 1, 69, 0
4, 6445, Note_on_c, 1, 76, 0
4, 6445, Note_on_c, 1, 72, 0
4, 6540, Note_on_c, 1, 81, 51
4, 6540, Note_on_c, 1, 69, 45
4, 6540, Note_on_c, 1, 77, 47
4, 6540, Note_on_c, 1, 72, 41
4, 6644, Note_on_c, 1, 77, 0
4, 6644, Note_on_c, 1, 69, 0
4, 6645, Note_on_c, 1, 72, 0
4, 6655, Note_on_c, 1, 81, 0
4, 6660, Note_on_c, 1, 72, 55
4, 6660, Note_on_c, 1, 77, 55
4, 6660, Note_on_c, 1, 69, 61
4, 6666, Note_on_c, 1, 77, 0
4, 6668, Note_on_c, 1, 69, 0
4, 6668, Note_on_c, 1, 72, 0
4, 6780, Note_on_c, 1, 72, 48
4, 6780, Note_on_c, 1, 76, 48
4, 6780, Note_on_c, 1, 79, 49
4, 6792, Note_on_c, 1, 76, 0
4, 6795, Note_on_c, 1, 79, 0
4, 6795, Note_on_c, 1, 72, 0
4, 6810, Note_on_c, 1, 79, 45
4, 6810, Note_on_c, 1, 72, 55
4, 6810, Note_on_c, 1, 76, 48
4, 6822, Note_on_c, 1, 76, 0
4, 6827, Note_on_c, 1, 72, 0
4, 6827, Note_on_c, 1, 79, 0
4, 6870, Note_on_c, 1, 60, 52
4, 6883, Note_on_c, 1, 60, 0
4, 6900, Note_on_c, 1, 76, 65
4, 6900, Note_on_c, 1, 72, 57
4, 6900, Note_on_c, 1, 79, 59
4, 6920, Note_on_c, 1, 72, 0
4, 6925, Note_on_c, 1, 79, 0
4, 6925, Note_on_c, 1, 76, 0
4, 7020, Note_on_c, 1, 74, 48
4, 7020, Note_on_c, 1, 79, 48
4, 7020, Note_on_c, 1, 83, 49
4, 7032, Note_on_c, 1, 79, 0
4, 7035, Note_on_c, 1, 83, 0
4, 7035, Note_on_c, 1, 74, 0
4, 7050, Note_on_c, 1, 83, 45
4, 7050, Note_on_c, 1, 74, 55
4, 7050, Note_on_c, 1, 79, 48
4, 7062, Note_on_c, 1, 79, 0
4, 7067, Note_on_c, 1, 74, 0
4, 7067, Note_on_c, 1, 83, 0
4, 7110, Note_on_c, 1, 62, 52
4, 7123, Note_on_c, 1, 62, 0
4, 7140, Note_on_c, 1, 79, 65
4, 7140, Note_on_c, 1, 74, 57
4, 7140, Note_on_c, 1, 83, 59
4, 7160, Note_on_c, 1, 74, 0
4, 7165, Note_on_c, 1, 83, 0
4, 7165, Note_on_c, 1, 79, 0
4, 7320, Note_on_c, 1, 79, 40
4, 7320, Note_on_c, 1, 84, 35
4, 7327, Note_on_c, 1, 84, 0
4, 7327, Note_on_c, 1, 79, 0
4, 7350, Note_on_c, 1, 67, 40
4, 7350, Note_on_c, 1, 84, 62
4, 7350, Note_on_c, 1, 76, 52
4, 7350, Note_on_c, 1, 79, 62
4, 7363, Note_on_c, 1, 79, 0
4, 7363, Note_on_c, 1, 76, 0
4, 7363, Note_on_c, 1, 67, 0
4, 7364, Note_on_c, 1, 84, 0
4, 7410, Note_on_c, 1, 67, 52
4, 7410, Note_on_c, 1, 79, 50
4, 7410, Note_on_c, 1, 76, 48
4, 7410, Note_on_c, 1, 84, 50
4, 7418, Note_on_c, 1, 76, 0
4, 7419, Note_on_c, 1, 79, 0
4, 7422, Note_on_c, 1, 67, 0
4, 7422, Note_on_c, 1, 84, 0
4, 7470, Note_on_c, 1, 67, 73
4, 7485, Note_on_c, 1, 67, 0
4, 7500, Note_on_c, 1, 79, 42
4, 7500, Note_on_c, 1, 76, 25
4, 7511, Note_on_c, 1, 76, 0
4, 7511, Note_on_c, 1, 79, 0
4, 7530, Note_on_c, 1, 76, 60
4, 7530, Note_on_c, 1, 84, 46
4, 7530, Note_on_c, 1, 79, 42
4, 7537, Note_on_c, 1, 79, 0
4, 7543, Note_on_c, 1, 84, 0
4, 7543, Note_on_c, 1, 76, 0
4, 7560, Note_on_c, 1, 79, 69
4, 7560, Note_on_c, 1, 76, 52
4, 7611, Note_on_c, 1, 79, 0
4, 7620, Note_on_c, 1, 79, 60
4, 7628, Note_on_c, 1, 76, 0
4, 7632, Note_on_c, 1, 79, 0
4, 7740, Note_on_c, 1, 76, 63
4, 7740, Note_on_c, 1, 72, 67
4, 7740, Note_on_c, 1, 69, 58
4, 7740, Note_on_c, 1, 67, 61
4, 7762, Note_on_c, 1, 72, 0
4, 7763, Note_on_c, 1, 69, 0
4, 7764, Note_on_c, 1, 67, 0
4, 7769, Note_on_c, 1, 76, 0
4, 7800, Note_on_c, 1, 67, 48
4, 7817, Note_on_c, 1, 67, 0
4, 7830, Note_on_c, 1, 69, 46
4, 7850, Note_on_c, 1, 69, 0
4, 7860, Note_on_c, 1, 72, 82
4, 7873, Note_on_c, 1, 72, 0
4, 7980, Note_on_c, 1, 67, 48
4, 7980, Note_on_c, 1, 74, 48
4, 7980, Note_on_c, 1, 71, 44
4, 7980, Note_on_c, 1, 76, 49
4, 7992, Note_on_c, 1, 74, 0
4, 7995, Note_on_c, 1, 67, 0
4, 7995, Note_on_c, 1, 76, 0
4, 7996, Note_on_c, 1, 71, 0
4, 8010, Note_on_c, 1, 76, 45
4, 8010, Note_on_c, 1, 67, 55
4, 8010, Note_on_c, 1, 71, 37
4, 8010, Note_on_c, 1, 74, 48
4, 8022, Note_on_c, 1, 74, 0
4, 8027, Note_on_c, 1, 71, 0
4, 8027, Note_on_c, 1, 76, 0
4, 8028, Note_on_c, 1, 67, 0
4, 8070, Note_on_c, 1, 59, 52
4, 8083, Note_on_c, 1, 59, 0
4, 8100, Note_on_c, 1, 74, 65
4, 8100, Note_on_c, 1, 71, 57
4, 8100, Note_on_c, 1, 76, 59
4, 8100, Note_on_c, 1, 67, 52
4, 8120, Note_on_c, 1, 67, 0
4, 8125, Note_on_c, 1, 76, 0
4, 8125, Note_on_c, 1, 74, 0
4, 8128, Note_on_c, 1, 71, 0
4, 8220, Note_on_c, 1, 76, 51
4, 8220, Note_on_c, 1, 67, 45
4, 8220, Note_on_c, 1, 72, 47
4, 8220, Note_on_c, 1, 69, 41
4, 8324, Note_on_c, 1, 72, 0
4, 8324, Note_on_c, 1, 67, 0
4, 8325, Note_on_c, 1, 69, 0
4, 8335, Note_on_c, 1, 76, 0
4, 8340, Note_on_c, 1, 69, 55
4, 8340, Note_on_c, 1, 72, 55
4, 8340, Note_on_c, 1, 67, 61
4, 8346, Note_on_c, 1, 72, 0
4, 8348, Note_on_c, 1, 67, 0
4, 8348, Note_on_c, 1, 69, 0
4, 8460, Note_on_c, 1, 67, 48
4, 8460, Note_on_c, 1, 74, 48
4, 8460, Note_on_c, 1, 71, 44
4, 8460, Note_on_c, 1, 76, 49
4, 8472, Note_on_c, 1, 74, 0
4, 8475, Note_on_c, 1, 67, 0
4, 8475, Note_on_c, 1, 76, 0
4, 8476, Note_on_c, 1, 71, 0
4, 8490, Note_on_c, 1, 76, 45
4, 8490, Note_on_c, 1, 67, 55
4, 8490, Note_on_c, 1, 71, 37
4, 8490, Note_on_c, 1, 74, 48
4, 8502, Note_on_c, 1, 74, 0
4, 8507, Note_on_c, 1, 71, 0
4, 8507, Note_on_c, 1, 76, 0
4, 8508, Note_on_c, 1, 67, 0
4, 8550, Note_on_c, 1, 59, 52
4, 8563, Note_on_c, 1, 59, 0
4, 8580, Note_on_c, 1, 74, 65
4, 8580, Note_on_c, 1, 71, 57
4, 8580, Note_on_c, 1, 76, 59
4, 8580, Note_on_c, 1, 67, 52
4, 8600, Note_on_c, 1, 67, 0
4, 8605, Note_on_c, 1, 76, 0
4, 8605, Note_on_c, 1, 74, 0
4, 8608, Note_on_c, 1, 71, 0
4, 8700, Note_on_c, 1, 67, 48
4, 8700, Note_on_c, 1, 72, 48
4, 8700, Note_on_c, 1, 69, 44
4, 8700, Note_on_c, 1, 76, 49
4, 8712, Note_on_c, 1, 72, 0
4, 8715, Note_on_c, 1, 67, 0
4, 8715, Note_on_c, 1, 76, 0
4, 8716, Note_on_c, 1, 69, 0
4, 8730, Note_on_c, 1, 76, 45
4, 8730, Note_on_c, 1, 67, 55
4, 8730, Note_on_c, 1, 69, 37
4, 8730, Note_on_c, 1, 72, 48
4, 8742, Note_on_c, 1, 72, 0
4, 8747, Note_on_c, 1, 69, 0
4, 8747, Note_on_c, 1, 76, 0
4, 8748, Note_on_c, 1, 67, 0
4, 8790, Note_on_c, 1, 57, 52
4, 8803, Note_on_c, 1, 57, 0
4, 8820, Note_on_c, 1, 72, 65
4, 8820, Note_on_c, 1, 69, 57
4, 8820, Note_on_c, 1, 76, 59
4, 8820, Note_on_c, 1, 67, 52
4, 8840, Note_on_c, 1, 67, 0
4, 8845, Note_on_c, 1, 76, 0
4, 8845, Note_on_c, 1, 72, 0
4, 8848, Note_on_c, 1, 69, 0
4, 8940, Note_on_c, 1, 76, 51
4, 8940, Note_on_c, 1, 67, 45
4, 8940, Note_on_c, 1, 74, 47
4, 8940, Note_on_c, 1, 71, 41
4, 9044, Note_on_c, 1, 74, 0
4, 9044, Note_on_c, 1, 67, 0
4, 9045, Note_on_c, 1, 71, 0
4, 9055, Note_on_c, 1, 76, 0
4, 9060, Note_on_c, 1, 71, 55
4, 9060, Note_on_c, 1, 74, 55
4, 9060, Note_on_c, 1, 67, 61
4, 9066, Note_on_c, 1, 74, 0
4, 9068, Note_on_c, 1, 67, 0
4, 9068, Note_on_c, 1, 71, 0
4, 9180, Note_on_c, 1, 72, 48
4, 9180, Note_on_c, 1, 77, 48
4, 9180, Note_on_c, 1, 74, 44
4, 9180, Note_on_c, 1, 81, 49
4, 9192, Note_on_c, 1, 77, 0
4, 9195, Note_on_c, 1, 72, 0
4, 9195, Note_on_c, 1, 81, 0
4, 9196, Note_on_c, 1, 74, 0
4, 9210, Note_on_c, 1, 81, 45
4, 9210, Note_on_c, 1, 72, 55
4, 9210, Note_on_c, 1, 74, 37
4, 9210, Note_on_c, 1, 77, 48
4, 9222, Note_on_c, 1, 77, 0
4, 9227, Note_on_c, 1, 74, 0
4, 9227, Note_on_c, 1, 81, 0
4, 9228, Note_on_c, 1, 72, 0
4, 9270, Note_on_c, 1, 62, 52
4, 9283, Note_on_c, 1, 62, 0
4, 9300, Note_on_c, 1, 77, 65
4, 9300, Note_on_c, 1, 74, 57
4, 9300, Note_on_c, 1, 81, 59
4, 9300, Note_on_c, 1, 72, 52
4, 9320, Note_on_c, 1, 72, 0
4, 9325, Note_on_c, 1, 81, 0
4, 9325, Note_on_c, 1, 77, 0
4, 9328, Note_on_c, 1, 74, 0
4, 9420, Note_on_c, 1, 72, 48
4, 9420, Note_on_c, 1, 78, 48
4, 9420, Note_on_c, 1, 74, 44
4, 9420, Note_on_c, 1, 81, 49
4, 9432, Note_on_c, 1, 78, 0
4, 9435, Note_on_c, 1, 72, 0
4, 9435, Note_on_c, 1, 81, 0
4, 9436, Note_on_c, 1, 74, 0
4, 9450, Note_on_c, 1, 81, 45
4, 9450, Note_on_c, 1, 72, 55
4, 9450, Note_on_c, 1, 74, 37
4, 9450, Note_on_c, 1, 78, 48
4, 9462, Note_on_c, 1, 78, 0
4, 9467, Note_on_c, 1, 74, 0
4, 9467, Note_on_c, 1, 81, 0
4, 9468, Note_on_c, 1, 72, 0
4, 9510, Note_on_c, 1, 62, 52
4, 9523, Note_on_c, 1, 62, 0
4, 9540, Note_on_c, 1, 78, 65
4, 9540, Note_on_c, 1, 74, 57
4, 9540, Note_on_c, 1, 81, 59
4, 9540, Note_on_c, 1, 72, 52
4, 9560, Note_on_c, 1, 72, 0
4, 9565, Note_on_c, 1, 81, 0
4, 9565, Note_on_c, 1, 78, 0
4, 9568, Note_on_c, 1, 74, 0
4, 9660, Note_on_c, 1, 71, 55
4, 9660, Note_on_c, 1, 74, 51
4, 9660, Note_on_c, 1, 83, 55
4, 9660, Note_on_c, 1, 79, 48
4, 9675, Note_on_c, 1, 79, 0
4, 9675, Note_on_c, 1, 83, 0
4, 9675, Note_on_c, 1, 71, 0
4, 9678, Note_on_c, 1, 74, 0
4, 9690, Note_on_c, 1, 79, 59
4, 9690, Note_on_c, 1, 83, 59
4, 9690, Note_on_c, 1, 74, 39
4, 9690, Note_on_c, 1, 71, 51
4, 9705, Note_on_c, 1, 71, 0
4, 9705, Note_on_c, 1, 79, 0
4, 9705, Note_on_c, 1, 83, 0
4, 9705, Note_on_c, 1, 74, 0
4, 9750, Note_on_c, 1, 71, 53
4, 9766, Note_on_c, 1, 71, 0
4, 9780, Note_on_c, 1, 74, 51
4, 9793, Note_on_c, 1, 74, 0
4, 9810, Note_on_c, 1, 79, 61
4, 9821, Note_on_c, 1, 79, 0
4, 9840, Note_on_c, 1, 74, 55
4, 9840, Note_on_c, 1, 79, 65
4, 9840, Note_on_c, 1, 83, 57
4, 9887, Note_on_c, 1, 83, 0
4, 9890, Note_on_c, 1, 79, 0
4, 9892, Note_on_c, 1, 74, 0
4, 9900, Note_on_c, 1, 83, 63
4, 9900, Note_on_c, 1, 79, 49
4, 9900, Note_on_c, 1, 74, 27
4, 9909, Note_on_c, 1, 74, 0
4, 9909, Note_on_c, 1, 79, 0
4, 9913, Note_on_c, 1, 83, 0
4, 9930, Note_on_c, 1, 83, 55
4, 9930, Note_on_c, 1, 79, 41
4, 9939, Note_on_c, 1, 79, 0
4, 9939, Note_on_c, 1, 83, 0
4, 9990, Note_on_c, 1, 74, 43
4, 10004, Note_on_c, 1, 74, 0
4, 10020, Note_on_c, 1, 79, 61
4, 10031, Note_on_c, 1, 79, 0
4, 10050, Note_on_c, 1, 83, 55
4, 10050, Note_on_c, 1, 74, 30
4, 10050, Note_on_c, 1, 79, 27
4, 10054, Note_on_c, 1, 79, 0
4, 10061, Note_on_c, 1, 74, 0
4, 10061, Note_on_c, 1, 83, 0
4, 10140, Note_on_c, 1, 79, 51
4, 10140, Note_on_c, 1, 67, 45
4, 10140, Note_on_c, 1, 76, 47
4, 10140, Note_on_c, 1, 72, 41
4, 10244, Note_on_c, 1, 76, 0
4, 10244, Note_on_c, 1, 67, 0
4, 10245, Note_on_c, 1, 72, 0
4, 10255, Note_on_c, 1, 79, 0
4, 10260, Note_on_c, 1, 72, 55
4, 10260, Note_on_c, 1, 76, 55
4, 10260, Note_on_c, 1, 67, 61
4, 10266, Note_on_c, 1, 76, 0
4, 10268, Note_on_c, 1, 67, 0
4, 10268, Note_on_c, 1, 72, 0
4, 10380, Note_on_c, 1, 74, 48
4, 10380, Note_on_c, 1, 79, 48
4, 10380, Note_on_c, 1, 83, 49
4, 10392, Note_on_c, 1, 79, 0
4, 10395, Note_on_c, 1, 83, 0
4, 10395, Note_on_c, 1, 74, 0
4, 10410, Note_on_c, 1, 83, 45
4, 10410, Note_on_c, 1, 74, 55
4, 10410, Note_on_c, 1, 79, 48
4, 10422, Note_on_c, 1, 79, 0
4, 10427, Note_on_c, 1, 74, 0
4, 10427, Note_on_c, 1, 83, 0
4, 10470, Note_on_c, 1, 62, 52
4, 10483, Note_on_c, 1, 62, 0
4, 10500, Note_on_c, 1, 79, 65
4, 10500, Note_on_c, 1, 74, 57
4, 10500, Note_on_c, 1, 83, 59
4, 10520, Note_on_c, 1, 74, 0
4, 10525, Note_on_c, 1, 83, 0
4, 10525, Note_on_c, 1, 79, 0
4, 10620, Note_on_c, 1, 72, 48
4, 10620, Note_on_c, 1, 76, 48
4, 10620, Note_on_c, 1, 79, 49
4, 10632, Note_on_c, 1, 76, 0
4, 10635, Note_on_c, 1, 79, 0
4, 10635, Note_on_c, 1, 72, 0
4, 10650, Note_on_c, 1, 79, 45
4, 10650, Note_on_c, 1, 72, 55
4, 10650, Note_on_c, 1, 76, 48
4, 10662, Note_on_c, 1, 76, 0
4, 10667, Note_on_c, 1, 72, 0
4, 10667, Note_on_c, 1, 79, 0
4, 10710, Note_on_c, 1, 60, 52
4, 10723, Note_on_c, 1, 60, 0
4, 10740, Note_on_c, 1, 76, 65
4, 10740, Note_on_c, 1, 72, 57
4, 10740, Note_on_c, 1, 79, 59
4, 10760, Note_on_c, 1, 72, 0
4, 10765, Note_on_c, 1, 79, 0
4, 10765, Note_on_c, 1, 76, 0
4, 10860, Note_on_c, 1, 83, 51
4, 10860, Note_on_c, 1, 71, 45
4, 10860, Note_on_c, 1, 79, 47
4, 10860, Note_on_c, 1, 74, 41
4, 10964, Note_on_c, 1, 79, 0
4, 10964, Note_on_c, 1, 71, 0
4, 10965, Note_on_c, 1, 74, 0
4, 10975, Note_on_c, 1, 83, 0
4, 10980, Note_on_c, 1, 74, 55
4, 10980, Note_on_c, 1, 79, 55
4, 10980, Note_on_c, 1, 71, 61
4, 10986, Note_on_c, 1, 79, 0
4, 10988, Note_on_c, 1, 71, 0
4, 10988, Note_on_c, 1, 74, 0
4, 11100, Note_on_c, 1, 81, 51
4, 11100, Note_on_c, 1, 69, 45
4, 11100, Note_on_c, 1, 77, 47
4, 11100, Note_on_c, 1, 72, 41
4, 11204, Note_on_c, 1, 77, 0
4, 11204, Note_on_c, 1, 69, 0
4, 11205, Note_on_c, 1, 72, 0
4, 11215, Note_on_c, 1, 81, 0
4, 11220, Note_on_c, 1, 72, 55
4, 11220, Note_on_c, 1, 77, 55
4, 11220, Note_on_c, 1, 69, 61
4, 11226, Note_on_c, 1, 77, 0
4, 11228, Note_on_c, 1, 69, 0
4, 11228, Note_on_c, 1, 72, 0
4, 11340, Note_on_c, 1, 79, 63
4, 11340, Note_on_c, 1, 76, 67
4, 11340, Note_on_c, 1, 71, 58
4, 11340, Note_on_c, 1, 67, 61
4, 11362, Note_on_c, 1, 76, 0
4, 11363, Note_on_c, 1, 71, 0
4, 11364, Note_on_c, 1, 67, 0
4, 11369, Note_on_c, 1, 79, 0
4, 11400, Note_on_c, 1, 67, 48
4, 11417, Note_on_c, 1, 67, 0
4, 11430, Note_on_c, 1, 71, 46
4, 11450, Note_on_c, 1, 71, 0
4, 11460, Note_on_c, 1, 76, 82
4, 11473, Note_on_c, 1, 76, 0
4, 11580, Note_on_c, 1, 71, 55
4, 11580, Note_on_c, 1, 74, 51
4, 11580, Note_on_c, 1, 83, 55
4, 11580, Note_on_c, 1, 79, 48
4, 11595, Note_on_c, 1, 79, 0
4, 11595, Note_on_c, 1, 83, 0
4, 11595, Note_on_c, 1, 71, 0
4, 11598, Note_on_c, 1, 74, 0
4, 11610, Note_on_c, 1, 79, 59
4, 11610, Note_on_c, 1, 83, 59
4, 11610, Note_on_c, 1, 74, 39
4, 11610, Note_on_c, 1, 71, 51
4, 11625, Note_on_c, 1, 71, 0
4, 11625, Note_on_c, 1, 79, 0
4, 11625, Note_on_c, 1, 83, 0
4, 11625, Note_on_c, 1, 74, 0
4, 11670, Note_on_c, 1, 71, 53
4, 11686, Note_on_c, 1, 71, 0
4, 11700, Note_on_c, 1, 74, 51
4, 11713, Note_on_c, 1, 74, 0
4, 11730, Note_on_c, 1, 79, 61
4, 11741, Note_on_c, 1, 79, 0
4, 11760, Note_on_c, 1, 74, 55
4, 11760, Note_on_c, 1, 79, 65
4, 11760, Note_on_c, 1, 83, 57
4, 11807, Note_on_c, 1, 83, 0
4, 11810, Note_on_c, 1, 79, 0
4, 11812, Note_on_c, 1, 74, 0
4, 11820, Note_on_c, 1, 83, 63
4, 11820, Note_on_c, 1, 79, 49
4, 11820, Note_on_c, 1, 74, 27
4, 11829, Note_on_c, 1, 74, 0
4, 11829, Note_on_c, 1, 79, 0
4, 11833, Note_on_c, 1, 83, 0
4, 11850, Note_on_c, 1, 83, 55
4, 11850, Note_on_c, 1, 79, 41
4, 11859, Note_on_c, 1, 79, 0
4, 11859, Note_on_c, 1, 83, 0
4, 11910, Note_on_c, 1, 74, 43
4, 11924, Note_on_c, 1, 74, 0
4, 11940, Note_on_c, 1, 79, 61
4, 11951, Note_on_c, 1, 79, 0
4, 11970, Note_on_c, 1, 83, 55
4, 11970, Note_on_c, 1, 74, 30
4, 11970, Note_on_c, 1, 79, 27
4, 11974, Note_on_c, 1, 79, 0
4, 11981, Note_on_c, 1, 74, 0
4, 11981, Note_on_c, 1, 83, 0
4, 12060, Note_on_c, 1, 81, 51
4, 12060, Note_on_c, 1, 69, 45
4, 12060, Note_on_c, 1, 77, 47
4, 12060, Note_on_c, 1, 72, 41
4, 12164, Note_on_c, 1, 77, 0
4, 12164, Note_on_c, 1, 69, 0
4, 12165, Note_on_c, 1, 72, 0
4, 12175, Note_on_c, 1, 81, 0
4, 12180, Note_on_c, 1, 72, 55
4, 12180, Note_on_c, 1, 77, 55
4, 12180, Note_on_c, 1, 69, 61
4, 12186, Note_on_c, 1, 77, 0
4, 12188, Note_on_c, 1, 69, 0
4, 12188, Note_on_c, 1, 72, 0
4, 12300, Note_on_c, 1, 83, 63
4, 12300, Note_on_c, 1, 79, 67
4, 12300, Note_on_c, 1, 74, 58
4, 12300, Note_on_c, 1, 71, 61
4, 12322, Note_on_c, 1, 79, 0
4, 12323, Note_on_c, 1, 74, 0
4, 12324, Note_on_c, 1, 71, 0
4, 12329, Note_on_c, 1, 83, 0
4, 12360, Note_on_c, 1, 71, 48
4, 12377, Note_on_c, 1, 71, 0
4, 12390, Note_on_c, 1, 74, 46
4, 12410, Note_on_c, 1, 74, 0
4, 12420, Note_on_c, 1, 79, 82
4, 12433, Note_on_c, 1, 79, 0
4, 12540, Note_on_c, 1, 69, 48
4, 12540, Note_on_c, 1, 72, 48
4, 12540, Note_on_c, 1, 76, 49
4, 12552, Note_on_c, 1, 72, 0
4, 12555, Note_on_c, 1, 76, 0
4, 12555, Note_on_c, 1, 69, 0
4, 12570, Note_on_c, 1, 76, 45
4, 12570, Note_on_c, 1, 69, 55
4, 12570, Note_on_c, 1, 72, 48
4, 12582, Note_on_c, 1, 72, 0
4, 12587, Note_on_c, 1, 69, 0
4, 12587, Note_on_c, 1, 76, 0
4, 12630, Note_on_c, 1, 57, 52
4, 12643, Note_on_c, 1, 57, 0
4, 12660, Note_on_c, 1, 72, 65
4, 12660, Note_on_c, 1, 69, 57
4, 12660, Note_on_c, 1, 76, 59
4, 12680, Note_on_c, 1, 69, 0
4, 12685, Note_on_c, 1, 76, 0
4, 12685, Note_on_c, 1, 72, 0
4, 12780, Note_on_c, 1, 81, 51
4, 12780, Note_on_c, 1, 69, 45
4, 12780, Note_on_c, 1, 77, 47
4, 12780, Note_on_c, 1, 72, 41
4, 12884, Note_on_c, 1, 77, 0
4, 12884, Note_on_c, 1, 69, 0
4, 12885, Note_on_c, 1, 72, 0
4, 12895, Note_on_c, 1, 81, 0
4, 12900, Note_on_c, 1, 72, 55
4, 12900, Note_on_c, 1, 77, 55
4, 12900, Note_on_c, 1, 69, 61
4, 12906, Note_on_c, 1, 77, 0
4, 12908, Note_on_c, 1, 69, 0
4, 12908, Note_on_c, 1, 72, 0
4, 13020, Note_on_c, 1, 72, 48
4, 13020, Note_on_c, 1, 76, 48
4, 13020, Note_on_c, 1, 79, 49
4, 13032, Note_on_c, 1, 76, 0
4, 13035, Note_on_c, 1, 79, 0
4, 13035, Note_on_c, 1, 72, 0
4, 13050, Note_on_c, 1, 79, 45
4, 13050, Note_on_c, 1, 72, 55
4, 13050, Note_on_c, 1, 76, 48
4, 13062, Note_on_c, 1, 76, 0
4, 13067, Note_on_c, 1, 72, 0
4, 13067, Note_on_c, 1, 79, 0
4, 13110, Note_on_c, 1, 60, 52
4, 13123, Note_on_c, 1, 60, 0
4, 13140, Note_on_c, 1, 76, 65
4, 13140, Note_on_c, 1, 72, 57
4, 13140, Note_on_c, 1, 79, 59
4, 13160, Note_on_c, 1, 72, 0
4, 13165, Note_on_c, 1, 79, 0
4, 13165, Note_on_c, 1, 76, 0
4, 13260, Note_on_c, 1, 74, 48
4, 13260, Note_on_c, 1, 79, 48
4, 13260, Note_on_c, 1, 83, 49
4, 13272, Note_on_c, 1, 79, 0
4, 13275, Note_on_c, 1, 83, 0
4, 13275, Note_on_c, 1, 74, 0
4, 13290, Note_on_c, 1, 83, 45
4, 13290, Note_on_c, 1, 74, 55
4, 13290, Note_on_c, 1, 79, 48
4, 13302, Note_on_c, 1, 79, 0
4, 13307, Note_on_c, 1, 74, 0
4, 13307, Note_on_c, 1, 83, 0
4, 13350, Note_on_c, 1, 62, 52
4, 13363, Note_on_c, 1, 62, 0
4, 13380, Note_on_c, 1, 79, 65
4, 13380, Note_on_c, 1, 74, 57
4, 13380, Note_on_c, 1, 83, 59
4, 13400, Note_on_c, 1, 74, 0
4, 13405, Note_on_c, 1, 83, 0
4, 13405, Note_on_c, 1, 79, 0
4, 13560, Note_on_c, 1, 79, 40
4, 13560, Note_on_c, 1, 84, 35
4, 13567, Note_on_c, 1, 84, 0
4, 13567, Note_on_c, 1, 79, 0
4, 13590, Note_on_c, 1, 67, 40
4, 13590, Note_on_c, 1, 84, 62
4, 13590, Note_on_c, 1, 76, 52
4, 13590, Note_on_c, 1, 79, 62
4, 13603, Note_on_c, 1, 79, 0
4, 13603, Note_on_c, 1, 76, 0
4, 13603, Note_on_c, 1, 67, 0
4, 13604, Note_on_c, 1, 84, 0
4, 13650, Note_on_c, 1, 67, 52
4, 13650, Note_on_c, 1, 79, 50
4, 13650, Note_on_c, 1, 76, 48
4, 13650, Note_on_c, 1, 84, 50
4, 13658, Note_on_c, 1, 76, 0
4, 13659, Note_on_c, 1, 79, 0
4, 13662, Note_on_c, 1, 67, 0
4, 13662, Note_on_c, 1, 84, 0
4, 13710, Note_on_c, 1, 67, 73
4, 13725, Note_on_c, 1, 67, 0
4, 13740, Note_on_c, 1, 79, 42
4, 13740, Note_on_c, 1, 76, 25
4, 13751, Note_on_c, 1, 76, 0
4, 13751, Note_on_c, 1, 79, 0
4, 13770, Note_on_c, 1, 76, 60
4, 13770, Note_on_c, 1, 84, 46
4, 13770, Note_on_c, 1, 79, 42
4, 13777, Note_on_c, 1, 79, 0
4, 13783, Note_on_c, 1, 84, 0
4, 13783, Note_on_c, 1, 76, 0
4, 13800, Note_on_c, 1, 79, 69
4, 13800, Note_on_c, 1, 76, 52
4, 13851, Note_on_c, 1, 79, 0
4, 13860, Note_on_c, 1, 79, 60
4, 13868, Note_on_c, 1, 76, 0
4, 13872, Note_on_c, 1, 79, 0
4, 13980, Note_on_c, 1, 76, 63
4, 13980, Note_on_c, 1, 72, 67
4, 13980, Note_on_c, 1, 69, 58
4, 13980, Note_on_c, 1, 67, 61
4, 14002, Note_on_c, 1, 72, 0
4, 14003, Note_on_c, 1, 69, 0
4, 14004, Note_on_c, 1, 67, 0
4, 14009, Note_on_c, 1, 76, 0
4, 14040, Note_on_c, 1, 67, 48
4, 14057, Note_on_c, 1, 67, 0
4, 14070, Note_on_c, 1, 69, 46
4, 14090, Note_on_c, 1, 69, 0
4, 14100, Note_on_c, 1, 72, 82
4, 14113, Note_on_c, 1, 72, 0
4, 14220, Note_on_c, 1, 67, 48
4, 14220, Note_on_c, 1, 74, 48
4, 14220, Note_on_c, 1, 71, 44
4, 14220, Note_on_c, 1, 76, 49
4, 14232, Note_on_c, 1, 74, 0
4, 14235, Note_on_c, 1, 67, 0
4, 14235, Note_on_c, 1, 76, 0
4, 14236, Note_on_c, 1, 71, 0
4, 14250, Note_on_c, 1, 76, 45
4, 14250, Note_on_c, 1, 67, 55
4, 14250, Note_on_c, 1, 71, 37
4, 14250, Note_on_c, 1, 74, 48
4, 14262, Note_on_c, 1, 74, 0
4, 14267, Note_on_c, 1, 71, 0
4, 14267, Note_on_c, 1, 76, 0
4, 14268, Note_on_c, 1, 67, 0
4, 14310, Note_on_c, 1, 59, 52
4, 14323, Note_on_c, 1, 59, 0
4, 14340, Note_on_c, 1, 74, 65
4, 14340, Note_on_c, 1, 71, 57
4, 14340, Note_on_c, 1, 76, 59
4, 14340, Note_on_c, 1, 67, 52
4, 14360, Note_on_c, 1, 67, 0
4, 14365, Note_on_c, 1, 76, 0
4, 14365, Note_on_c, 1, 74, 0
4, 14368, Note_on_c, 1, 71, 0
4, 14460, Note_on_c, 1, 76, 51
4, 14460, Note_on_c, 1, 67, 45
4, 14460, Note_on_c, 1, 72, 47
4, 14460, Note_on_c, 1, 69, 41
4, 14564, Note_on_c, 1, 72, 0
4, 14564, Note_on_c, 1, 67, 0
4, 14565, Note_on_c, 1, 69, 0
4, 14575, Note_on_c, 1, 76, 0
4, 14580, Note_on_c, 1, 69, 55
4, 14580, Note_on_c, 1, 72, 55
4, 14580, Note_on_c, 1, 67, 61
4, 14586, Note_on_c, 1, 72, 0
4, 14588, Note_on_c, 1, 67, 0
4, 14588, Note_on_c, 1, 69, 0
4, 14700, Note_on_c, 1, 67, 48
4, 14700, Note_on_c, 1, 74, 48
4, 14700, Note_on_c, 1, 71, 44
4, 14700, Note_on_c, 1, 76, 49
4, 14712, Note_on_c, 1, 74, 0
4, 14715, Note_on_c, 1, 67, 0
4, 14715, Note_on_c, 1, 76, 0
4, 14716, Note_on_c, 1, 71, 0
4, 14730, Note_on_c, 1, 76, 45
4, 14730, Note_on_c, 1, 67, 55
4, 14730, Note_on_c, 1, 71, 37
4, 14730, Note_on_c, 1, 74, 48
4, 14742, Note_on_c, 1, 74, 0
4, 14747, Note_on_c, 1, 71, 0
4, 14747, Note_on_c, 1, 76, 0
4, 14748, Note_on_c, 1, 67, 0
4, 14790, Note_on_c, 1, 59, 52
4, 14803, Note_on_c, 1, 59, 0
4, 14820, Note_on_c, 1, 74, 65
4, 14820, Note_on_c, 1, 71, 57
4, 14820, Note_on_c, 1, 76, 59
4, 14820, Note_on_c, 1, 67, 52
4, 14840, Note_on_c, 1, 67, 0
4, 14845, Note_on_c, 1, 76, 0
4, 14845, Note_on_c, 1, 74, 0
4, 14848, Note_on_c, 1, 71, 0
4, 14940, Note_on_c, 1, 67, 48
4, 14940, Note_on_c, 1, 72, 48
4, 14940, Note_on_c, 1, 69, 44
4, 14940, Note_on_c, 1, 76, 49
4, 14952, Note_on_c, 1, 72, 0
4, 14955, Note_on_c, 1, 67, 0
4, 14955, Note_on_c, 1, 76, 0
4, 14956, Note_on_c, 1, 69, 0
4, 14970, Note_on_c, 1, 76, 45
4, 14970, Note_on_c, 1, 67, 55
4, 14970, Note_on_c, 1, 69, 37
4, 14970, Note_on_c, 1, 72, 48
4, 14982, Note_on_c, 1, 72, 0
4, 14987, Note_on_c, 1, 69, 0
4, 14987, Note_on_c, 1, 76, 0
4, 14988, Note_on_c, 1, 67, 0
4, 15030, Note_on_c, 1, 57, 52
4, 15043, Note_on_c, 1, 57, 0
4, 15060, Note_on_c, 1, 72, 65
4, 15060, Note_on_c, 1, 69, 57
4, 15060, Note_on_c, 1, 76, 59
4, 15060, Note_on_c, 1, 67, 52
4, 15080, Note_on_c, 1, 67, 0
4, 15085, Note_on_c, 1, 76, 0
4, 15085, Note_on_c, 1, 72, 0
4, 15088, Note_on_c, 1, 69, 0
4, 15180, Note_on_c, 1, 76, 51
4, 15180, Note_on_c, 1, 67, 45
4, 15180, Note_on_c, 1, 74, 47
4, 15180, Note_on_c, 1, 71, 41
4, 15284, Note_on_c, 1, 74, 0
4, 15284, Note_on_c, 1, 67, 0
4, 15285, Note_on_c, 1, 71, 0
4, 15295, Note_on_c, 1, 76, 0
4, 15300, Note_on_c, 1, 71, 55
4, 15300, Note_on_c, 1, 74, 55
4, 15300, Note_on_c, 1, 67, 61
4, 15306, Note_on_c, 1, 74, 0
4, 15308, Note_on_c, 1, 67, 0
4, 15308, Note_on_c, 1, 71, 0
4, 15420, Note_on_c, 1, 72, 48
4, 15420, Note_on_c, 1, 77, 48
4, 15420, Note_on_c, 1, 74, 44
4, 15420, Note_on_c, 1, 81, 49
4, 15432, Note_on_c, 1, 77, 0
4, 15435, Note_on_c, 1, 72, 0
4, 15435, Note_on_c, 1, 81, 0
4, 15436, Note_on_c, 1, 74, 0
4, 15450, Note_on_c, 1, 81, 45
4, 15450, Note_on_c, 1, 72, 55
4, 15450, Note_on_c, 1, 74, 37
4, 15450, Note_on_c, 1, 77, 48
4, 15462, Note_on_c, 1, 77, 0
4, 15467, Note_on_c, 1, 74, 0
4, 15467, Note_on_c, 1, 81, 0
4, 15468, Note_on_c, 1, 72, 0
4, 15510, Note_on_c, 1, 62, 52
4, 15523, Note_on_c, 1, 62, 0
4, 15540, Note_on_c, 1, 77, 65
4, 15540, Note_on_c, 1, 74, 57
4, 15540, Note_on_c, 1, 81, 59
4, 15540, Note_on_c, 1, 72, 52
4, 15560, Note_on_c, 1, 72, 0
4, 15565, Note_on_c, 1, 81, 0
4, 15565, Note_on_c, 1, 77, 0
4, 15568, Note_on_c, 1, 74, 0
4, 15660, Note_on_c, 1, 72, 48
4, 15660, Note_on_c, 1, 78, 48
4, 15660, Note_on_c, 1, 74, 44
4, 15660, Note_on_c, 1, 81, 49
4, 15672, Note_on_c, 1, 78, 0
4, 15675, Note_on_c, 1, 72, 0
4, 15675, Note_on_c, 1, 81, 0
4, 15676, Note_on_c, 1, 74, 0
4, 15690, Note_on_c, 1, 81, 45
4, 15690, Note_on_c, 1, 72, 55
4, 15690, Note_on_c, 1, 74, 37
4, 15690, Note_on_c, 1, 78, 48
4, 15702, Note_on_c, 1, 78, 0
4, 15707, Note_on_c, 1, 74, 0
4, 15707, Note_on_c, 1, 81, 0
4, 15708, Note_on_c, 1, 72, 0
4, 15750, Note_on_c, 1, 62, 52
4, 15763, Note_on_c, 1, 62, 0
4, 15780, Note_on_c, 1, 78, 65
4, 15780, Note_on_c, 1, 74, 57
4, 15780, Note_on_c, 1, 81, 59
4, 15780, Note_on_c, 1, 72, 52
4, 15800, Note_on_c, 1, 72, 0
4, 15805, Note_on_c, 1, 81, 0
4, 15805, Note_on_c, 1, 78, 0
4, 15808, Note_on_c, 1, 74, 0
4, 15900, Note_on_c, 1, 71, 55
4, 15900, Note_on_c, 1, 74, 51
4, 15900, Note_on_c, 1, 83, 55
4, 15900, Note_on_c, 1, 79, 48
4, 15915, Note_on_c, 1, 79, 0
4, 15915, Note_on_c, 1, 83, 0
4, 15915, Note_on_c, 1, 71, 0
4, 15918, Note_on_c, 1, 74, 0
4, 15930, Note_on_c, 1, 79, 59
4, 15930, Note_on_c, 1, 83, 59
4, 15930, Note_on_c, 1, 74, 39
4, 15930, Note_on_c, 1, 71, 51
4, 15945, Note_on_c, 1, 71, 0
4, 15945, Note_on_c, 1, 79, 0
4, 15945, Note_on_c, 1, 83, 0
4, 15945, Note_on_c, 1, 74, 0
4, 15990, Note_on_c, 1, 71, 53
4, 16006, Note_on_c, 1, 71, 0
4, 16020, Note_on_c, 1, 74, 51
4, 16033, Note_on_c, 1, 74, 0
4, 16050, Note_on_c, 1, 79, 61
4, 16061, Note_on_c, 1, 79, 0
4, 16080, Note_on_c, 1, 74, 55
4, 16080, Note_on_c, 1, 79, 65
4, 16080, Note_on_c, 1, 83, 57
4, 16127, Note_on_c, 1, 83, 0
4, 16130, Note_on_c, 1, 79, 0
4, 16132, Note_on_c, 1, 74, 0
4, 16140, Note_on_c, 1, 83, 63
4, 16140, Note_on_c, 1, 79, 49
4, 16140, Note_on_c, 1, 74, 27
4, 16149, Note_on_c, 1, 74, 0
4, 16149, Note_on_c, 1, 79, 0
4, 16153, Note_on_c, 1, 83, 0
4, 16170, Note_on_c, 1, 83, 55
4, 16170, Note_on_c, 1, 79, 41
4, 16179, Note_on_c, 1, 79, 0
4, 16179, Note_on_c, 1, 83, 0
4, 16230, Note_on_c, 1, 74, 43
4, 16244, Note_on_c, 1, 74, 0
4, 16260, Note_on_c, 1, 79, 61
4, 16271, Note_on_c, 1, 79, 0
4, 16290, Note_on_c, 1, 83, 55
4, 16290, Note_on_c, 1, 74, 30
4, 16290, Note_on_c, 1, 79, 27
4, 16294, Note_on_c, 1, 79, 0
4, 16301, Note_on_c, 1, 74, 0
4, 16301, Note_on_c, 1, 83, 0
4, 16380, Note_on_c, 1, 79, 51
4, 16380, Note_on_c, 1, 67, 45
4, 16380, Note_on_c, 1, 76, 47
4, 16380, Note_on_c, 1, 72, 41
4, 16484, Note_on_c, 1, 76, 0
4, 16484, Note_on_c, 1, 67, 0
4, 16485, Note_on_c, 1, 72, 0
4, 16495, Note_on_c, 1, 79, 0
4, 16500, Note_on_c, 1, 72, 55
4, 16500, Note_on_c, 1, 76, 55
4, 16500, Note_on_c, 1, 67, 61
4, 16506, Note_on_c, 1, 76, 0
4, 16508, Note_on_c, 1, 67, 0
4, 16508, Note_on_c, 1, 72, 0
4, 16620, Note_on_c, 1, 74, 48
4, 16620, Note_on_c, 1, 79, 48
4, 16620, Note_on_c, 1, 83, 49
4, 16632, Note_on_c, 1, 79, 0
4, 16635, Note_on_c, 1, 83, 0
4, 16635, Note_on_c, 1, 74, 0
4, 16650, Note_on_c, 1, 83, 45
4, 16650, Note_on_c, 1, 74, 55
4, 16650, Note_on_c, 1, 79, 48
4, 16662, Note_on_c, 1, 79, 0
4, 16667, Note_on_c, 1, 74, 0
4, 16667, Note_on_c, 1, 83, 0
4, 16710, Note_on_c, 1, 62, 52
4, 16723, Note_on_c, 1, 62, 0
4, 16740, Note_on_c, 1, 79, 65
4, 16740, Note_on_c, 1, 74, 57
4, 16740, Note_on_c, 1, 83, 59
4, 16760, Note_on_c, 1, 74, 0
4, 16765, Note_on_c, 1, 83, 0
4, 16765, Note_on_c, 1, 79, 0
4, 16860, Note_on_c, 1, 72, 48
4, 16860, Note_on_c, 1, 76, 48
4, 16860, Note_on_c, 1, 79, 49
4, 16872, Note_on_c, 1, 76, 0
4, 16875, Note_on_c, 1, 79, 0
4, 16875, Note_on_c, 1, 72, 0
4, 16890, Note_on_c, 1, 79, 45
4, 16890, Note_on_c, 1, 72, 55
4, 16890, Note_on_c, 1, 76, 48
4, 16902, Note_on_c, 1, 76, 0
4, 16907, Note_on_c, 1, 72, 0
4, 16907, Note_on_c, 1, 79, 0
4, 16950, Note_on_c, 1, 60, 52
4, 16963, Note_on_c, 1, 60, 0
4, 16980, Note_on_c, 1, 76, 65
4, 16980, Note_on_c, 1, 72, 57
4, 16980, Note_on_c, 1, 79, 59
4, 17000, Note_on_c, 1, 72, 0
4, 17005, Note_on_c, 1, 79, 0
4, 17005, Note_on_c, 1, 76, 0
4, 17100, Note_on_c, 1, 83, 51
4, 17100, Note_on_c, 1, 71, 45
4, 17100, Note_on_c, 1, 79, 47
4, 17100, Note_on_c, 1, 74, 41
4, 17204, Note_on_c, 1, 79, 0
4, 17204, Note_on_c, 1, 71, 0
4, 17205, Note_on_c, 1, 74, 0
4, 17215, Note_on_c, 1, 83, 0
4, 17220, Note_on_c, 1, 74, 55
4, 17220, Note_on_c, 1, 79, 55
4, 17220, Note_on_c, 1, 71, 61
4, 17226, Note_on_c, 1, 79, 0
4, 17228, Note_on_c, 1, 71, 0
4, 17228, Note_on_c, 1, 74, 0
4, 17340, Note_on_c, 1, 81, 51
4, 17340, Note_on_c, 1, 69, 45
4, 17340, Note_on_c, 1, 77, 47
4, 17340, Note_on_c, 1, 72, 41
4, 17444, Note_on_c, 1, 77, 0
4, 17444, Note_on_c, 1, 69, 0
4, 17445, Note_on_c, 1, 72, 0
4, 17455, Note_on_c, 1, 81, 0
4, 17460, Note_on_c, 1, 72, 55
4, 17460, Note_on_c, 1, 77, 55
4, 17460, Note_on_c, 1, 69, 61
4, 17466, Note_on_c, 1, 77, 0
4, 17468, Note_on_c, 1, 69, 0
4, 17468, Note_on_c, 1, 72, 0
4, 17580, Note_on_c, 1, 79, 63
4, 17580, Note_on_c, 1, 76, 67
4, 17580, Note_on_c, 1, 71, 58
4, 17580, Note_on_c, 1, 67, 61
4, 17602, Note_on_c, 1, 76, 0
4, 17603, Note_on_c, 1, 71, 0
4, 17604, Note_on_c, 1, 67, 0
4, 17609, Note_on_c, 1, 79, 0
4, 17640, Note_on_c, 1, 67, 48
4, 17657, Note_on_c, 1, 67, 0
4, 17670, Note_on_c, 1, 71, 46
4, 17690, Note_on_c, 1, 71, 0
4, 17700, Note_on_c, 1, 76, 82
4, 17713, Note_on_c, 1, 76, 0
4, 17820, Note_on_c, 1, 71, 55
4, 17820, Note_on_c, 1, 74, 51
4, 17820, Note_on_c, 1, 83, 55
4, 17820, Note_on_c, 1, 79, 48
4, 17835, Note_on_c, 1, 79, 0
4, 17835, Note_on_c, 1, 83, 0
4, 17835, Note_on_c, 1, 71, 0
4, 17838, Note_on_c, 1, 74, 0
4, 17850, Note_on_c, 1, 79, 59
4, 17850, Note_on_c, 1, 83, 59
4, 17850, Note_on_c, 1, 74, 39
4, 17850, Note_on_c, 1, 71, 51
4, 17865, Note_on_c, 1, 71, 0
4, 17865, Note_on_c, 1, 79, 0
4, 17865, Note_on_c, 1, 83, 0
4, 17865, Note_on_c, 1, 74, 0
4, 17910, Note_on_c, 1, 71, 53
4, 17926, Note_on_c, 1, 71, 0
4, 17940, Note_on_c, 1, 74, 51
4, 17953, Note_on_c, 1, 74, 0
4, 17970, Note_on_c, 1, 79, 61
4, 17981, Note_on_c, 1, 79, 0
4, 18000, Note_on_c, 1, 74, 55
4, 18000, Note_on_c, 1, 79, 65
4, 18000, Note_on_c, 1, 83, 57
4, 18047, Note_on_c, 1, 83, 0
4, 18050, Note_on_c, 1, 79, 0
4, 18052, Note_on_c, 1, 74, 0
4, 18060, Note_on_c, 1, 83, 63
4, 18060, Note_on_c, 1, 79, 49
4, 18060, Note_on_c, 1, 74, 27
4, 18069, Note_on_c, 1, 74, 0
4, 18069, Note_on_c, 1, 79, 0
4, 18073, Note_on_c, 1, 83, 0
4, 18090, Note_on_c, 1, 83, 55
4, 18090, Note_on_c, 1, 79, 41
4, 18099, Note_on_c, 1, 79, 0
4, 18099, Note_on_c, 1, 83, 0
4, 18150, Note_on_c, 1, 74, 43
4, 18164, Note_on_c, 1, 74, 0
4, 18180, Note_on_c, 1, 79, 61
4, 18191, Note_on_c, 1, 79, 0
4, 18210, Note_on_c, 1, 83, 55
4, 18210, Note_on_c, 1, 74, 30
4, 18210, Note_on_c, 1, 79, 27
4, 18214, Note_on_c, 1, 79, 0
4, 18221, Note_on_c, 1, 74, 0
4, 18221, Note_on_c, 1, 83, 0
4, 18300, Note_on_c, 1, 81, 51
4, 18300, Note_on_c, 1, 69, 45
4, 18300, Note_on_c, 1, 77, 47
4, 18300, Note_on_c, 1, 72, 41
4, 18404, Note_on_c, 1, 77, 0
4, 18404, Note_on_c, 1, 69, 0
4, 18405, Note_on_c, 1, 72, 0
4, 18415, Note_on_c, 1, 81, 0
4, 18420, Note_on_c, 1, 72, 55
4, 18420, Note_on_c, 1, 77, 55
4, 18420, Note_on_c, 1, 69, 61
4, 18426, Note_on_c, 1, 77, 0
4, 18428, Note_on_c, 1, 69, 0
4, 18428, Note_on_c, 1, 72, 0
4, 18540, Note_on_c, 1, 83, 63
4, 18540, Note_on_c, 1, 79, 67
4, 18540, Note_on_c, 1, 74, 58
4, 18540, Note_on_c, 1, 71, 61
4, 18562, Note_on_c, 1, 79, 0
4, 18563, Note_on_c, 1, 74, 0
4, 18564, Note_on_c, 1, 71, 0
4, 18569, Note_on_c, 1, 83, 0
4, 18600, Note_on_c, 1, 71, 48
4, 18617, Note_on_c, 1, 71, 0
4, 18630, Note_on_c, 1, 74, 46
4, 18650, Note_on_c, 1, 74, 0
4, 18660, Note_on_c, 1, 79, 82
4, 18673, Note_on_c, 1, 79, 0
4, 18780, Note_on_c, 1, 69, 48
4, 18780, Note_on_c, 1, 72, 48
4, 18780, Note_on_c, 1, 76, 49
4, 18792, Note_on_c, 1, 72, 0
4, 18795, Note_on_c, 1, 76, 0
4, 18795, Note_on_c, 1, 69, 0
4, 18810, Note_on_c, 1, 76, 45
4, 18810, Note_on_c, 1, 69, 55
4, 18810, Note_on_c, 1, 72, 48
4, 18822, Note_on_c, 1, 72, 0
4, 18827, Note_on_c, 1, 69, 0
4, 18827, Note_on_c, 1, 76, 0
4, 18870, Note_on_c, 1, 57, 52
4, 18883, Note_on_c, 1, 57, 0
4, 18900, Note_on_c, 1, 72, 65
4, 18900, Note_on_c, 1, 69, 57
4, 18900, Note_on_c, 1, 76, 59
4, 18920, Note_on_c, 1, 69, 0
4, 18925, Note_on_c, 1, 76, 0
4, 18925, Note_on_c, 1, 72, 0
4, 19020, Note_on_c, 1, 81, 51
4, 19020, Note_on_c, 1, 69, 45
4, 19020, Note_on_c, 1, 77, 47
4, 19020, Note_on_c, 1, 72, 41
4, 19124, Note_on_c, 1, 77, 0
4, 19124, Note_on_c, 1, 69, 0
4, 19125, Note_on_c, 1, 72, 0
4, 19135, Note_on_c, 1, 81, 0
4, 19140, Note_on_c, 1, 72, 55
4, 19140, Note_on_c, 1, 77, 55
4, 19140, Note_on_c, 1, 69, 61
4, 19146, Note_on_c, 1, 77, 0
4, 19148, Note_on_c, 1, 69, 0
4, 19148, Note_on_c, 1, 72, 0
4, 19260, Note_on_c, 1, 72, 48
4, 19260, Note_on_c, 1, 76, 48
4, 19260, Note_on_c, 1, 79, 49
4, 19272, Note_on_c, 1, 76, 0
4, 19275, Note_on_c, 1, 79, 0
4, 19275, Note_on_c, 1, 72, 0
4, 19290, Note_on_c, 1, 79, 45
4, 19290, Note_on_c, 1, 72, 55
4, 19290, Note_on_c, 1, 76, 48
4, 19302, Note_on_c, 1, 76, 0
4, 19307, Note_on_c, 1, 72, 0
4, 19307, Note_on_c, 1, 79, 0
4, 19350, Note_on_c, 1, 60, 52
4, 19363, Note_on_c, 1, 60, 0
4, 19380, Note_on_c, 1, 76, 65
4, 19380, Note_on_c, 1, 72, 57
4, 19380, Note_on_c, 1, 79, 59
4, 19400, Note_on_c, 1, 72, 0
4, 19405, Note_on_c, 1, 79, 0
4, 19405, Note_on_c, 1, 76, 0
4, 19500, Note_on_c, 1, 74, 48
4, 19500, Note_on_c, 1, 79, 48
4, 19500, Note_on_c, 1, 83, 49
4, 19512, Note_on_c, 1, 79, 0
4, 19515, Note_on_c, 1, 83, 0
4, 19515, Note_on_c, 1, 74, 0
4, 19530, Note_on_c, 1, 83, 45
4, 19530, Note_on_c, 1, 74, 55
4, 19530, Note_on_c, 1, 79, 48
4, 19542, Note_on_c, 1, 79, 0
4, 19547, Note_on_c, 1, 74, 0
4, 19547, Note_on_c, 1, 83, 0
4, 19590, Note_on_c, 1, 62, 52
4, 19603, Note_on_c, 1, 62, 0
4, 19620, Note_on_c, 1, 79, 65
4, 19620, Note_on_c, 1, 74, 57
4, 19620, Note_on_c, 1, 83, 59
4, 19640, Note_on_c, 1, 74, 0
4, 19645, Note_on_c, 1, 83, 0
4, 19645, Note_on_c, 1, 79, 0
4, 19800, Note_on_c, 1, 79, 40
4, 19800, Note_on_c, 1, 84, 35
4, 19807, Note_on_c, 1, 84, 0
4, 19807, Note_on_c, 1, 79, 0
4, 19830, Note_on_c, 1, 67, 40
4, 19830, Note_on_c, 1, 84, 62
4, 19830, Note_on_c, 1, 76, 52
4, 19830, Note_on_c, 1, 79, 62
4, 19843, Note_on_c, 1, 79, 0
4, 19843, Note_on_c, 1, 76, 0
4, 19843, Note_on_c, 1, 67, 0
4, 19844, Note_on_c, 1, 84, 0
4, 19890, Note_on_c, 1, 67, 52
4, 19890, Note_on_c, 1, 79, 50
4, 19890, Note_on_c, 1, 76, 48
4, 19890, Note_on_c, 1, 84, 50
4, 19898, Note_on_c, 1, 76, 0
4, 19899, Note_on_c, 1, 79, 0
4, 19902, Note_on_c, 1, 67, 0
4, 19902, Note_on_c, 1, 84, 0
4, 19950, Note_on_c, 1, 67, 73
4, 19965, Note_on_c, 1, 67, 0
4, 19980, Note_on_c, 1, 79, 42
4, 19980, Note_on_c, 1, 76, 25
4, 19991, Note_on_c, 1, 76, 0
4, 19991, Note_on_c, 1, 79, 0
4, 20010, Note_on_c, 1, 76, 60
4, 20010, Note_on_c, 1, 84, 46
4, 20010, Note_on_c, 1, 79, 42
4, 20017, Note_on_c, 1, 79, 0
4, 20023, Note_on_c, 1, 84, 0
4, 20023, Note_on_c, 1, 76, 0
4, 20040, Note_on_c, 1, 79, 69
4, 20040, Note_on_c, 1, 76, 52
4, 20091, Note_on_c, 1, 79, 0
4, 20100, Note_on_c, 1, 79, 60
4, 20108, Note_on_c, 1, 76, 0
4, 20112, Note_on_c, 1, 79, 0
4, 20220, Note_on_c, 1, 81, 51
4, 20220, Note_on_c, 1, 69, 45
4, 20220, Note_on_c, 1, 77, 47
4, 20220, Note_on_c, 1, 72, 41
4, 20324, Note_on_c, 1, 77, 0
4, 20324, Note_on_c, 1, 69, 0
4, 20325, Note_on_c, 1, 72, 0
4, 20335, Note_on_c, 1, 81, 0
4, 20340, Note_on_c, 1, 72, 55
4, 20340, Note_on_c, 1, 77, 55
4, 20340, Note_on_c, 1, 69, 61
4, 20346, Note_on_c, 1, 77, 0
4, 20348, Note_on_c, 1, 69, 0
4, 20348, Note_on_c, 1, 72, 0
4, 20460, Note_on_c, 1, 83, 63
4, 20460, Note_on_c, 1, 79, 67
4, 20460, Note_on_c, 1, 74, 58
4, 20460, Note_on_c, 1, 71, 61
4, 20482, Note_on_c, 1, 79, 0
4, 20483, Note_on_c, 1, 74, 0
4, 20484, Note_on_c, 1, 71, 0
4, 20489, Note_on_c, 1, 83, 0
4, 20520, Note_on_c, 1, 71, 48
4, 20537, Note_on_c, 1, 71, 0
4, 20550, Note_on_c, 1, 74, 46
4, 20570, Note_on_c, 1, 74, 0
4, 20580, Note_on_c, 1, 79, 82
4, 20593, Note_on_c, 1, 79, 0
4, 20700, Note_on_c, 1, 69, 48
4, 20700, Note_on_c, 1, 72, 48
4, 20700, Note_on_c, 1, 76, 49
4, 20712, Note_on_c, 1, 72, 0
4, 20715, Note_on_c, 1, 76, 0
4, 20715, Note_on_c, 1, 69, 0
4, 20730, Note_on_c, 1, 76, 45
4, 20730, Note_on_c, 1, 69, 55
4, 20730, Note_on_c, 1, 72, 48
4, 20742, Note_on_c, 1, 72, 0
4, 20747, Note_on_c, 1, 69, 0
4, 20747, Note_on_c, 1, 76, 0
4, 20790, Note_on_c, 1, 57, 52
4, 20803, Note_on_c, 1, 57, 0
4, 20820, Note_on_c, 1, 72, 65
4, 20820, Note_on_c, 1, 69, 57
4, 20820, Note_on_c, 1, 76, 59
4, 20840, Note_on_c, 1, 69, 0
4, 20845, Note_on_c, 1, 76, 0
4, 20845, Note_on_c, 1, 72, 0
4, 20940, Note_on_c, 1, 81, 51
4, 20940, Note_on_c, 1, 69, 45
4, 20940, Note_on_c, 1, 77, 47
4, 20940, Note_on_c, 1, 72, 41
4, 21044, Note_on_c, 1, 77, 0
4, 21044, Note_on_c, 1, 69, 0
4, 21045, Note_on_c, 1, 72, 0
4, 21055, Note_on_c, 1, 81, 0
4, 21060, Note_on_c, 1, 72, 55
4, 21060, Note_on_c, 1, 77, 55
4, 21060, Note_on_c, 1, 69, 61
4, 21066, Note_on_c, 1, 77, 0
4, 21068, Note_on_c, 1, 69, 0
4, 21068, Note_on_c, 1, 72, 0
4, 21180, Note_on_c, 1, 72, 48
4, 21180, Note_on_c, 1, 76, 48
4, 21180, Note_on_c, 1, 79, 49
4, 21192, Note_on_c, 1, 76, 0
4, 21195, Note_on_c, 1, 79, 0
4, 21195, Note_on_c, 1, 72, 0
4, 21210, Note_on_c, 1, 79, 45
4, 21210, Note_on_c, 1, 72, 55
4, 21210, Note_on_c, 1, 76, 48
4, 21222, Note_on_c, 1, 76, 0
4, 21227, Note_on_c, 1, 72, 0
4, 21227, Note_on_c, 1, 79, 0
4, 21270, Note_on_c, 1, 60, 52
4, 21283, Note_on_c, 1, 60, 0
4, 21300, Note_on_c, 1, 76, 65
4, 21300, Note_on_c, 1, 72, 57
4, 21300, Note_on_c, 1, 79, 59
4, 21320, Note_on_c, 1, 72, 0
4, 21325, Note_on_c, 1, 79, 0
4, 21325, Note_on_c, 1, 76, 0
4, 21420, Note_on_c, 1, 74, 48
4, 21420, Note_on_c, 1, 79, 48
4, 21420, Note_on_c, 1, 83, 49
4, 21432, Note_on_c, 1, 79, 0
4, 21435, Note_on_c, 1, 83, 0
4, 21435, Note_on_c, 1, 74, 0
4, 21450, Note_on_c, 1, 83, 45
4, 21450, Note_on_c, 1, 74, 55
4, 21450, Note_on_c, 1, 79, 48
4, 21462, Note_on_c, 1, 79, 0
4, 21467, Note_on_c, 1, 74, 0
4, 21467, Note_on_c, 1, 83, 0
4, 21510, Note_on_c, 1, 62, 52
4, 21523, Note_on_c, 1, 62, 0
4, 21540, Note_on_c, 1, 79, 65
4, 21540, Note_on_c, 1, 74, 57
4, 21540, Note_on_c, 1, 83, 59
4, 21560, Note_on_c, 1, 74, 0
4, 21565, Note_on_c, 1, 83, 0
4, 21565, Note_on_c, 1, 79, 0
4, 21720, Note_on_c, 1, 79, 40
4, 21720, Note_on_c, 1, 84, 35
4, 21727, Note_on_c, 1, 84, 0
4, 21727, Note_on_c, 1, 79, 0
4, 21750, Note_on_c, 1, 67, 40
4, 21750, Note_on_c, 1, 84, 62
4, 21750, Note_on_c, 1, 76, 52
4, 21750, Note_on_c, 1, 79, 62
4, 21763, Note_on_c, 1, 79, 0
4, 21763, Note_on_c, 1, 76, 0
4, 21763, Note_on_c, 1, 67, 0
4, 21764, Note_on_c, 1, 84, 0
4, 21810, Note_on_c, 1, 67, 52
4, 21810, Note_on_c, 1, 79, 50
4, 21810, Note_on_c, 1, 76, 48
4, 21810, Note_on_c, 1, 84, 50
4, 21818, Note_on_c, 1, 76, 0
4, 21819, Note_on_c, 1, 79, 0
4, 21822, Note_on_c, 1, 67, 0
4, 21822, Note_on_c, 1, 84, 0
4, 21870, Note_on_c, 1, 67, 73
4, 21885, Note_on_c, 1, 67, 0
4, 21900, Note_on_c, 1, 79, 42
4, 21900, Note_on_c, 1, 76, 25
4, 21911, Note_on_c, 1, 76, 0
4, 21911, Note_on_c, 1, 79, 0
4, 21930, Note_on_c, 1, 76, 60
4, 21930, Note_on_c, 1, 84, 46
4, 21930, Note_on_c, 1, 79, 42
4, 21937, Note_on_c, 1, 79, 0
4, 21943, Note_on_c, 1, 84, 0
4, 21943, Note_on_c, 1, 76, 0
4, 21960, Note_on_c, 1, 79, 69
4, 21960, Note_on_c, 1, 76, 52
4, 22011, Note_on_c, 1, 79, 0
4, 22020, Note_on_c, 1, 79, 60
4, 22028, Note_on_c, 1, 76, 0
4, 22032, Note_on_c, 1, 79, 0
4, 22140, Note_on_c, 1, 81, 51
4, 22140, Note_on_c, 1, 69, 45
4, 22140, Note_on_c, 1, 77, 47
4, 22140, Note_on_c, 1, 72, 41
4, 22244, Note_on_c, 1, 77, 0
4, 22244, Note_on_c, 1, 69, 0
4, 22245, Note_on_c, 1, 72, 0
4, 22255, Note_on_c, 1, 81, 0
4, 22260, Note_on_c, 1, 72, 55
4, 22260, Note_on_c, 1, 77, 55
4, 22260, Note_on_c, 1, 69, 61
4, 22266, Note_on_c, 1, 77, 0
4, 22268, Note_on_c, 1, 69, 0
4, 22268, Note_on_c, 1, 72, 0
4, 22380, Note_on_c, 1, 83, 63
4, 22380, Note_on_c, 1, 79, 67
4, 22380, Note_on_c, 1, 74, 58
4, 22380, Note_on_c, 1, 71, 61
4, 22402, Note_on_c, 1, 79, 0
4, 22403, Note_on_c, 1, 74, 0
4, 22404, Note_on_c, 1, 71, 0
4, 22409, Note_on_c, 1, 83, 0
4, 22440, Note_on_c, 1, 71, 48
4, 22457, Note_on_c, 1, 71, 0
4, 22470, Note_on_c, 1, 74, 46
4, 22490, Note_on_c, 1, 74, 0
4, 22500, Note_on_c, 1, 79, 82
4, 22513, Note_on_c, 1, 79, 0
4, 22620, Note_on_c, 1, 69, 48
4, 22620, Note_on_c, 1, 72, 48
4, 22620, Note_on_c, 1, 76, 49
4, 22632, Note_on_c, 1, 72, 0
4, 22635, Note_on_c, 1, 76, 0
4, 22635, Note_on_c, 1, 69, 0
4, 22650, Note_on_c, 1, 76, 45
4, 22650, Note_on_c, 1, 69, 55
4, 22650, Note_on_c, 1, 72, 48
4, 22662, Note_on_c, 1, 72, 0
4, 22667, Note_on_c, 1, 69, 0
4, 22667, Note_on_c, 1, 76, 0
4, 22710, Note_on_c, 1, 57, 52
4, 22723, Note_on_c, 1, 57, 0
4, 22740, Note_on_c, 1, 72, 65
4, 22740, Note_on_c, 1, 69, 57
4, 22740, Note_on_c, 1, 76, 59
4, 22760, Note_on_c, 1, 69, 0
4, 22765, Note_on_c, 1, 76, 0
4, 22765, Note_on_c, 1, 72, 0
4, 22860, Note_on_c, 1, 81, 51
4, 22860, Note_on_c, 1, 69, 45
4, 22860, Note_on_c, 1, 77, 47
4, 22860, Note_on_c, 1, 72, 41
4, 22964, Note_on_c, 1, 77, 0
4, 22964, Note_on_c, 1, 69, 0
4, 22965, Note_on_c, 1, 72, 0
4, 22975, Note_on_c, 1, 81, 0
4, 22980, Note_on_c, 1, 72, 55
4, 22980, Note_on_c, 1, 77, 55
4, 22980, Note_on_c, 1, 69, 61
4, 22986, Note_on_c, 1, 77, 0
4, 22988, Note_on_c, 1, 69, 0
4, 22988, Note_on_c, 1, 72, 0
4, 23100, Note_on_c, 1, 72, 48
4, 23100, Note_on_c, 1, 76, 48
4, 23100, Note_on_c, 1, 79, 49
4, 23112, Note_on_c, 1, 76, 0
4, 23115, Note_on_c, 1, 79, 0
4, 23115, Note_on_c, 1, 72, 0
4, 23130, Note_on_c, 1, 79, 45
4, 23130, Note_on_c, 1, 72, 55
4, 23130, Note_on_c, 1, 76, 48
4, 23142, Note_on_c, 1, 76, 0
4, 23147, Note_on_c, 1, 72, 0
4, 23147, Note_on_c, 1, 79, 0
4, 23190, Note_on_c, 1, 60, 52
4, 23203, Note_on_c, 1, 60, 0
4, 23220, Note_on_c, 1, 76, 65
4, 23220, Note_on_c, 1, 72, 57
4, 23220, Note_on_c, 1, 79, 59
4, 23240, Note_on_c, 1, 72, 0
4, 23245, Note_on_c, 1, 79, 0
4, 23245, Note_on_c, 1, 76, 0
4, 23340, Note_on_c, 1, 74, 48
4, 23340, Note_on_c, 1, 79, 48
4, 23340, Note_on_c, 1, 83, 49
4, 23352, Note_on_c, 1, 79, 0
4, 23355, Note_on_c, 1, 83, 0
4, 23355, Note_on_c, 1, 74, 0
4, 23370, Note_on_c, 1, 83, 45
4, 23370, Note_on_c, 1, 74, 55
4, 23370, Note_on_c, 1, 79, 48
4, 23382, Note_on_c, 1, 79, 0
4, 23387, Note_on_c, 1, 74, 0
4, 23387, Note_on_c, 1, 83, 0
4, 23430, Note_on_c, 1, 62, 52
4, 23443, Note_on_c, 1, 62, 0
4, 23460, Note_on_c, 1, 79, 65
4, 23460, Note_on_c, 1, 74, 57
4, 23460, Note_on_c, 1, 83, 59
4, 23480, Note_on_c, 1, 74, 0
4, 23485, Note_on_c, 1, 83, 0
4, 23485, Note_on_c, 1, 79, 0
4, 23640, Note_on_c, 1, 79, 40
4, 23640, Note_on_c, 1, 84, 35
4, 23647, Note_on_c, 1, 84, 0
4, 23647, Note_on_c, 1, 79, 0
4, 23670, Note_on_c, 1, 67, 40
4, 23670, Note_on_c, 1, 84, 62
4, 23670, Note_on_c, 1, 76, 52
4, 23670, Note_on_c, 1, 79, 62
4, 23683, Note_on_c, 1, 79, 0
4, 23683, Note_on_c, 1, 76, 0
4, 23683, Note_on_c, 1, 67, 0
4, 23684, Note_on_c, 1, 84, 0
4, 23730, Note_on_c, 1, 67, 52
4, 23730, Note_on_c, 1, 79, 50
4, 23730, Note_on_c, 1, 76, 48
4, 23730, Note_on_c, 1, 84, 50
4, 23738, Note_on_c, 1, 76, 0
4, 23739, Note_on_c, 1, 79, 0
4, 23742, Note_on_c, 1, 67, 0
4, 23742, Note_on_c, 1, 84, 0
4, 23790, Note_on_c, 1, 67, 73
4, 23805, Note_on_c, 1, 67, 0
4, 23820, Note_on_c, 1, 79, 42
4, 23820, Note_on_c, 1, 76, 25
4, 23831, Note_on_c, 1, 76, 0
4, 23831, Note_on_c, 1, 79, 0
4, 23850, Note_on_c, 1, 76, 60
4, 23850, Note_on_c, 1, 84, 46
4, 23850, Note_on_c, 1, 79, 42
4, 23857, Note_on_c, 1, 79, 0
4, 23863, Note_on_c, 1, 84, 0
4, 23863, Note_on_c, 1, 76, 0
4, 23880, Note_on_c, 1, 79, 69
4, 23880, Note_on_c, 1, 76, 52
4, 23931, Note_on_c, 1, 79, 0
4, 23940, Note_on_c, 1, 79, 60
4, 23948, Note_on_c, 1, 76, 0
4, 23952, Note_on_c, 1, 79, 0
4, 23952, End_track
5, 0, Start_track
5, 0, MIDI_port, 0
5, 0, Title_t, "Guitar Chords"
5, 0, Program_c, 2, 28
5, 0, Control_c, 2, 7, 127
5, 0, Control_c, 2, 10, 64
5, 3900, Note_on_c, 2, 64, 87
5, 3900, Note_on_c, 2, 60, 87
5, 3900, Note_on_c, 2, 55, 87
5, 3918, Note_on_c, 2, 55, 0
5, 3918, Note_on_c, 2, 60, 0
5, 3918, Note_on_c, 2, 64, 0
5, 3930, Note_on_c, 2, 64, 59
5, 3930, Note_on_c, 2, 60, 68
5, 3941, Note_on_c, 2, 64, 0
5, 3947, Note_on_c, 2, 60, 0
5, 3990, Note_on_c, 2, 64, 68
5, 3990, Note_on_c, 2, 60, 52
5, 3998, Note_on_c, 2, 64, 0
5, 4004, Note_on_c, 2, 60, 0
5, 4020, Note_on_c, 2, 64, 85
5, 4020, Note_on_c, 2, 60, 85
5, 4020, Note_on_c, 2, 55, 85
5, 4039, Note_on_c, 2, 55, 0
5, 4039, Note_on_c, 2, 60, 0
5, 4039, Note_on_c, 2, 64, 0
5, 4140, Note_on_c, 2, 62, 91
5, 4140, Note_on_c, 2, 59, 91
5, 4140, Note_on_c, 2, 55, 91
5, 4162, Note_on_c, 2, 55, 0
5, 4162, Note_on_c, 2, 59, 0
5, 4162, Note_on_c, 2, 62, 0
5, 4170, Note_on_c, 2, 55, 59
5, 4170, Note_on_c, 2, 59, 49
5, 4180, Note_on_c, 2, 59, 0
5, 4184, Note_on_c, 2, 55, 0
5, 4260, Note_on_c, 2, 62, 89
5, 4260, Note_on_c, 2, 59, 89
5, 4260, Note_on_c, 2, 55, 89
5, 4280, Note_on_c, 2, 55, 0
5, 4280, Note_on_c, 2, 59, 0
5, 4280, Note_on_c, 2, 62, 0
5, 4290, Note_on_c, 2, 59, 72
5, 4290, Note_on_c, 2, 55, 64
5, 4300, Note_on_c, 2, 59, 0
5, 4305, Note_on_c, 2, 55, 0
5, 4380, Note_on_c, 2, 64, 87
5, 4380, Note_on_c, 2, 60, 87
5, 4380, Note_on_c, 2, 55, 87
5, 4398, Note_on_c, 2, 55, 0
5, 4398, Note_on_c, 2, 60, 0
5, 4398, Note_on_c, 2, 64, 0
5, 4410, Note_on_c, 2, 64, 59
5, 4410, Note_on_c, 2, 60, 68
5, 4421, Note_on_c, 2, 64, 0
5, 4427, Note_on_c, 2, 60, 0
5, 4470, Note_on_c, 2, 64, 68
5, 4470, Note_on_c, 2, 60, 52
5, 4478, Note_on_c, 2, 64, 0
5, 4484, Note_on_c, 2, 60, 0
5, 4500, Note_on_c, 2, 64, 85
5, 4500, Note_on_c, 2, 60, 85
5, 4500, Note_on_c, 2, 55, 85
5, 4519, Note_on_c, 2, 55, 0
5, 4519, Note_on_c, 2, 60, 0
5, 4519, Note_on_c, 2, 64, 0
5, 4620, Note_on_c, 2, 62, 91
5, 4620, Note_on_c, 2, 59, 91
5, 4620, Note_on_c, 2, 55, 91
5, 4642, Note_on_c, 2, 55, 0
5, 4642, Note_on_c, 2, 59, 0
5, 4642, Note_on_c, 2, 62, 0
5, 4650, Note_on_c, 2, 55, 59
5, 4650, Note_on_c, 2, 59, 49
5, 4660, Note_on_c, 2, 59, 0
5, 4664, Note_on_c, 2, 55, 0
5, 4740, Note_on_c, 2, 62, 89
5, 4740, Note_on_c, 2, 59, 89
5, 4740, Note_on_c, 2, 55, 89
5, 4760, Note_on_c, 2, 55, 0
5, 4760, Note_on_c, 2, 59, 0
5, 4760, Note_on_c, 2, 62, 0
5, 4770, Note_on_c, 2, 59, 72
5, 4770, Note_on_c, 2, 55, 64
5, 4780, Note_on_c, 2, 59, 0
5, 4785, Note_on_c, 2, 55, 0
5, 4860, Note_on_c, 2, 65, 82
5, 4860, Note_on_c, 2, 60, 82
5, 4860, Note_on_c, 2, 57, 82
5, 4879, Note_on_c, 2, 57, 0
5, 4879, Note_on_c, 2, 60, 0
5, 4879, Note_on_c, 2, 65, 0
5, 4890, Note_on_c, 2, 65, 72
5, 4890, Note_on_c, 2, 60, 72
5, 4890, Note_on_c, 2, 57, 72
5, 4907, Note_on_c, 2, 57, 0
5, 4907, Note_on_c, 2, 60, 0
5, 4907, Note_on_c, 2, 65, 0
5, 4950, Note_on_c, 2, 72, 61
5, 4950, Note_on_c, 2, 69, 54
5, 4950, Note_on_c, 2, 65, 47
5, 4962, Note_on_c, 2, 65, 0
5, 4962, Note_on_c, 2, 72, 0
5, 4966, Note_on_c, 2, 69, 0
5, 4980, Note_on_c, 2, 65, 80
5, 4980, Note_on_c, 2, 60, 80
5, 4980, Note_on_c, 2, 57, 80
5, 5003, Note_on_c, 2, 57, 0
5, 5003, Note_on_c, 2, 60, 0
5, 5003, Note_on_c, 2, 65, 0
5, 5100, Note_on_c, 2, 64, 82
5, 5100, Note_on_c, 2, 59, 82
5, 5100, Note_on_c, 2, 55, 82
5, 5119, Note_on_c, 2, 55, 0
5, 5119, Note_on_c, 2, 59, 0
5, 5119, Note_on_c, 2, 64, 0
5, 5130, Note_on_c, 2, 64, 72
5, 5130, Note_on_c, 2, 59, 72
5, 5130, Note_on_c, 2, 55, 72
5, 5147, Note_on_c, 2, 55, 0
5, 5147, Note_on_c, 2, 59, 0
5, 5147, Note_on_c, 2, 64, 0
5, 5190, Note_on_c, 2, 71, 61
5, 5190, Note_on_c, 2, 67, 54
5, 5190, Note_on_c, 2, 64, 47
5, 5202, Note_on_c, 2, 64, 0
5, 5202, Note_on_c, 2, 71, 0
5, 5206, Note_on_c, 2, 67, 0
5, 5220, Note_on_c, 2, 64, 80
5, 5220, Note_on_c, 2, 59, 80
5, 5220, Note_on_c, 2, 55, 80
5, 5243, Note_on_c, 2, 55, 0
5, 5243, Note_on_c, 2, 59, 0
5, 5243, Note_on_c, 2, 64, 0
5, 5340, Note_on_c, 2, 62, 87
5, 5340, Note_on_c, 2, 59, 87
5, 5340, Note_on_c, 2, 55, 87
5, 5358, Note_on_c, 2, 55, 0
5, 5358, Note_on_c, 2, 59, 0
5, 5358, Note_on_c, 2, 62, 0
5, 5370, Note_on_c, 2, 59, 59
5, 5370, Note_on_c, 2, 55, 68
5, 5381, Note_on_c, 2, 59, 0
5, 5387, Note_on_c, 2, 55, 0
5, 5430, Note_on_c, 2, 59, 68
5, 5430, Note_on_c, 2, 55, 52
5, 5438, Note_on_c, 2, 59, 0
5, 5444, Note_on_c, 2, 55, 0
5, 5460, Note_on_c, 2, 62, 85
5, 5460, Note_on_c, 2, 59, 85
5, 5460, Note_on_c, 2, 55, 85
5, 5479, Note_on_c, 2, 55, 0
5, 5479, Note_on_c, 2, 59, 0
5, 5479, Note_on_c, 2, 62, 0
5, 5550, Note_on_c, 2, 59, 68
5, 5550, Note_on_c, 2, 55, 57
5, 5558, Note_on_c, 2, 59, 0
5, 5565, Note_on_c, 2, 55, 0
5, 5580, Note_on_c, 2, 62, 82
5, 5580, Note_on_c, 2, 59, 82
5, 5580, Note_on_c, 2, 55, 82
5, 5603, Note_on_c, 2, 55, 0
5, 5603, Note_on_c, 2, 59, 0
5, 5603, Note_on_c, 2, 62, 0
5, 5670, Note_on_c, 2, 59, 63
5, 5670, Note_on_c, 2, 55, 53
5, 5679, Note_on_c, 2, 59, 0
5, 5682, Note_on_c, 2, 55, 0
5, 5700, Note_on_c, 2, 62, 89
5, 5700, Note_on_c, 2, 59, 89
5, 5700, Note_on_c, 2, 55, 89
5, 5719, Note_on_c, 2, 55, 0
5, 5719, Note_on_c, 2, 59, 0
5, 5719, Note_on_c, 2, 62, 0
5, 5820, Note_on_c, 2, 65, 82
5, 5820, Note_on_c, 2, 60, 82
5, 5820, Note_on_c, 2, 57, 82
5, 5839, Note_on_c, 2, 57, 0
5, 5839, Note_on_c, 2, 60, 0
5, 5839, Note_on_c, 2, 65, 0
5, 5850, Note_on_c, 2, 65, 72
5, 5850, Note_on_c, 2, 60, 72
5, 5850, Note_on_c, 2, 57, 72
5, 5867, Note_on_c, 2, 57, 0
5, 5867, Note_on_c, 2, 60, 0
5, 5867, Note_on_c, 2, 65, 0
5, 5910, Note_on_c, 2, 72, 61
5, 5910, Note_on_c, 2, 69, 54
5, 5910, Note_on_c, 2, 65, 47
5, 5922, Note_on_c, 2, 65, 0
5, 5922, Note_on_c, 2, 72, 0
5, 5926, Note_on_c, 2, 69, 0
5, 5940, Note_on_c, 2, 65, 80
5, 5940, Note_on_c, 2, 60, 80
5, 5940, Note_on_c, 2, 57, 80
5, 5963, Note_on_c, 2, 57, 0
5, 5963, Note_on_c, 2, 60, 0
5, 5963, Note_on_c, 2, 65, 0
5, 6060, Note_on_c, 2, 62, 91
5, 6060, Note_on_c, 2, 59, 91
5, 6060, Note_on_c, 2, 55, 91
5, 6082, Note_on_c, 2, 55, 0
5, 6082, Note_on_c, 2, 59, 0
5, 6082, Note_on_c, 2, 62, 0
5, 6090, Note_on_c, 2, 55, 59
5, 6090, Note_on_c, 2, 59, 49
5, 6100, Note_on_c, 2, 59, 0
5, 6104, Note_on_c, 2, 55, 0
5, 6180, Note_on_c, 2, 62, 89
5, 6180, Note_on_c, 2, 59, 89
5, 6180, Note_on_c, 2, 55, 89
5, 6200, Note_on_c, 2, 55, 0
5, 6200, Note_on_c, 2, 59, 0
5, 6200, Note_on_c, 2, 62, 0
5, 6210, Note_on_c, 2, 59, 72
5, 6210, Note_on_c, 2, 55, 64
5, 6220, Note_on_c, 2, 59, 0
5, 6225, Note_on_c, 2, 55, 0
5, 6300, Note_on_c, 2, 64, 87
5, 6300, Note_on_c, 2, 60, 87
5, 6300, Note_on_c, 2, 57, 87
5, 6318, Note_on_c, 2, 57, 0
5, 6318, Note_on_c, 2, 60, 0
5, 6318, Note_on_c, 2, 64, 0
5, 6330, Note_on_c, 2, 60, 59
5, 6330, Note_on_c, 2, 57, 68
5, 6341, Note_on_c, 2, 60, 0
5, 6347, Note_on_c, 2, 57, 0
5, 6390, Note_on_c, 2, 60, 68
5, 6390, Note_on_c, 2, 57, 52
5, 6398, Note_on_c, 2, 60, 0
5, 6404, Note_on_c, 2, 57, 0
5, 6420, Note_on_c, 2, 64, 85
5, 6420, Note_on_c, 2, 60, 85
5, 6420, Note_on_c, 2, 57, 85
5, 6439, Note_on_c, 2, 57, 0
5, 6439, Note_on_c, 2, 60, 0
5, 6439, Note_on_c, 2, 64, 0
5, 6540, Note_on_c, 2, 65, 91
5, 6540, Note_on_c, 2, 60, 91
5, 6540, Note_on_c, 2, 57, 91
5, 6562, Note_on_c, 2, 57, 0
5, 6562, Note_on_c, 2, 60, 0
5, 6562, Note_on_c, 2, 65, 0
5, 6570, Note_on_c, 2, 65, 59
5, 6570, Note_on_c, 2, 69, 49
5, 6580, Note_on_c, 2, 69, 0
5, 6584, Note_on_c, 2, 65, 0
5, 6660, Note_on_c, 2, 65, 89
5, 6660, Note_on_c, 2, 60, 89
5, 6660, Note_on_c, 2, 57, 89
5, 6680, Note_on_c, 2, 57, 0
5, 6680, Note_on_c, 2, 60, 0
5, 6680, Note_on_c, 2, 65, 0
5, 6690, Note_on_c, 2, 69, 72
5, 6690, Note_on_c, 2, 65, 64
5, 6700, Note_on_c, 2, 69, 0
5, 6705, Note_on_c, 2, 65, 0
5, 6780, Note_on_c, 2, 64, 82
5, 6780, Note_on_c, 2, 60, 82
5, 6780, Note_on_c, 2, 55, 82
5, 6799, Note_on_c, 2, 55, 0
5, 6799, Note_on_c, 2, 60, 0
5, 6799, Note_on_c, 2, 64, 0
5, 6810, Note_on_c, 2, 64, 72
5, 6810, Note_on_c, 2, 60, 72
5, 6810, Note_on_c, 2, 55, 72
5, 6827, Note_on_c, 2, 55, 0
5, 6827, Note_on_c, 2, 60, 0
5, 6827, Note_on_c, 2, 64, 0
5, 6870, Note_on_c, 2, 67, 61
5, 6870, Note_on_c, 2, 64, 54
5, 6870, Note_on_c, 2, 60, 47
5, 6882, Note_on_c, 2, 60, 0
5, 6882, Note_on_c, 2, 67, 0
5, 6886, Note_on_c, 2, 64, 0
5, 6900, Note_on_c, 2, 64, 80
5, 6900, Note_on_c, 2, 60, 80
5, 6900, Note_on_c, 2, 55, 80
5, 6923, Note_on_c, 2, 55, 0
5, 6923, Note_on_c, 2, 60, 0
5, 6923, Note_on_c, 2, 64, 0
5, 7020, Note_on_c, 2, 62, 82
5, 7020, Note_on_c, 2, 59, 82
5, 7020, Note_on_c, 2, 55, 82
5, 7039, Note_on_c, 2, 55, 0
5, 7039, Note_on_c, 2, 59, 0
5, 7039, Note_on_c, 2, 62, 0
5, 7050, Note_on_c, 2, 62, 72
5, 7050, Note_on_c, 2, 59, 72
5, 7050, Note_on_c, 2, 55, 72
5, 7067, Note_on_c, 2, 55, 0
5, 7067, Note_on_c, 2, 59, 0
5, 7067, Note_on_c, 2, 62, 0
5, 7110, Note_on_c, 2, 62, 61
5, 7110, Note_on_c, 2, 59, 54
5, 7110, Note_on_c, 2, 55, 47
5, 7122, Note_on_c, 2, 55, 0
5, 7122, Note_on_c, 2, 62, 0
5, 7126, Note_on_c, 2, 59, 0
5, 7140, Note_on_c, 2, 62, 80
5, 7140, Note_on_c, 2, 59, 80
5, 7140, Note_on_c, 2, 55, 80
5, 7163, Note_on_c, 2, 55, 0
5, 7163, Note_on_c, 2, 59, 0
5, 7163, Note_on_c, 2, 62, 0
5, 7260, Note_on_c, 2, 64, 89
5, 7260, Note_on_c, 2, 60, 89
5, 7260, Note_on_c, 2, 55, 89
5, 7282, Note_on_c, 2, 55, 0
5, 7282, Note_on_c, 2, 60, 0
5, 7282, Note_on_c, 2, 64, 0
5, 7290, Note_on_c, 2, 64, 70
5, 7290, Note_on_c, 2, 60, 60
5, 7303, Note_on_c, 2, 64, 0
5, 7309, Note_on_c, 2, 60, 0
5, 7380, Note_on_c, 2, 64, 91
5, 7380, Note_on_c, 2, 60, 91
5, 7380, Note_on_c, 2, 55, 91
5, 7398, Note_on_c, 2, 55, 0
5, 7398, Note_on_c, 2, 60, 0
5, 7398, Note_on_c, 2, 64, 0
5, 7500, Note_on_c, 2, 64, 89
5, 7500, Note_on_c, 2, 60, 89
5, 7500, Note_on_c, 2, 55, 89
5, 7524, Note_on_c, 2, 55, 0
5, 7524, Note_on_c, 2, 60, 0
5, 7524, Note_on_c, 2, 64, 0
5, 7530, Note_on_c, 2, 64, 74
5, 7530, Note_on_c, 2, 60, 60
5, 7541, Note_on_c, 2, 60, 0
5, 7541, Note_on_c, 2, 64, 0
5, 7590, Note_on_c, 2, 60, 59
5, 7590, Note_on_c, 2, 64, 53
5, 7596, Note_on_c, 2, 64, 0
5, 7600, Note_on_c, 2, 60, 0
5, 7620, Note_on_c, 2, 64, 87
5, 7620, Note_on_c, 2, 60, 87
5, 7620, Note_on_c, 2, 55, 87
5, 7641, Note_on_c, 2, 55, 0
5, 7641, Note_on_c, 2, 60, 0
5, 7641, Note_on_c, 2, 64, 0
5, 7650, Note_on_c, 2, 64, 78
5, 7650, Note_on_c, 2, 60, 78
5, 7650, Note_on_c, 2, 55, 78
5, 7664, Note_on_c, 2, 55, 0
5, 7664, Note_on_c, 2, 60, 0
5, 7664, Note_on_c, 2, 64, 0
5, 7740, Note_on_c, 2, 67, 91
5, 7740, Note_on_c, 2, 64, 91
5, 7740, Note_on_c, 2, 60, 91
5, 7740, Note_on_c, 2, 69, 91
5, 7762, Note_on_c, 2, 69, 0
5, 7762, Note_on_c, 2, 67, 0
5, 7762, Note_on_c, 2, 64, 0
5, 7762, Note_on_c, 2, 60, 0
5, 7770, Note_on_c, 2, 55, 59
5, 7770, Note_on_c, 2, 60, 49
5, 7770, Note_on_c, 2, 57, 58
5, 7780, Note_on_c, 2, 60, 0
5, 7784, Note_on_c, 2, 57, 0
5, 7789, Note_on_c, 2, 55, 0
5, 7860, Note_on_c, 2, 67, 89
5, 7860, Note_on_c, 2, 64, 89
5, 7860, Note_on_c, 2, 60, 89
5, 7860, Note_on_c, 2, 69, 89
5, 7880, Note_on_c, 2, 69, 0
5, 7880, Note_on_c, 2, 67, 0
5, 7880, Note_on_c, 2, 64, 0
5, 7880, Note_on_c, 2, 60, 0
5, 7890, Note_on_c, 2, 60, 72
5, 7890, Note_on_c, 2, 57, 64
5, 7890, Note_on_c, 2, 55, 58
5, 7900, Note_on_c, 2, 60, 0
5, 7905, Note_on_c, 2, 55, 0
5, 7906, Note_on_c, 2, 57, 0
5, 7980, Note_on_c, 2, 64, 82
5, 7980, Note_on_c, 2, 62, 82
5, 7980, Note_on_c, 2, 59, 82
5, 7980, Note_on_c, 2, 67, 82
5, 7999, Note_on_c, 2, 67, 0
5, 7999, Note_on_c, 2, 64, 0
5, 7999, Note_on_c, 2, 62, 0
5, 7999, Note_on_c, 2, 59, 0
5, 8010, Note_on_c, 2, 64, 72
5, 8010, Note_on_c, 2, 62, 72
5, 8010, Note_on_c, 2, 59, 72
5, 8010, Note_on_c, 2, 67, 72
5, 8027, Note_on_c, 2, 67, 0
5, 8027, Note_on_c, 2, 64, 0
5, 8027, Note_on_c, 2, 62, 0
5, 8027, Note_on_c, 2, 59, 0
5, 8070, Note_on_c, 2, 71, 61
5, 8070, Note_on_c, 2, 67, 54
5, 8070, Note_on_c, 2, 62, 47
5, 8070, Note_on_c, 2, 64, 44
5, 8082, Note_on_c, 2, 62, 0
5, 8082, Note_on_c, 2, 71, 0
5, 8086, Note_on_c, 2, 67, 0
5, 8086, Note_on_c, 2, 64, 0
5, 8100, Note_on_c, 2, 64, 80
5, 8100, Note_on_c, 2, 62, 80
5, 8100, Note_on_c, 2, 59, 80
5, 8100, Note_on_c, 2, 67, 80
5, 8123, Note_on_c, 2, 67, 0
5, 8123, Note_on_c, 2, 64, 0
5, 8123, Note_on_c, 2, 62, 0
5, 8123, Note_on_c, 2, 59, 0
5, 8220, Note_on_c, 2, 67, 91
5, 8220, Note_on_c, 2, 64, 91
5, 8220, Note_on_c, 2, 60, 91
5, 8220, Note_on_c, 2, 69, 91
5, 8242, Note_on_c, 2, 69, 0
5, 8242, Note_on_c, 2, 67, 0
5, 8242, Note_on_c, 2, 64, 0
5, 8242, Note_on_c, 2, 60, 0
5, 8250, Note_on_c, 2, 55, 59
5, 8250, Note_on_c, 2, 60, 49
5, 8250, Note_on_c, 2, 57, 58
5, 8260, Note_on_c, 2, 60, 0
5, 8264, Note_on_c, 2, 57, 0
5, 8269, Note_on_c, 2, 55, 0
5, 8340, Note_on_c, 2, 67, 89
5, 8340, Note_on_c, 2, 64, 89
5, 8340, Note_on_c, 2, 60, 89
5, 8340, Note_on_c, 2, 69, 89
5, 8360, Note_on_c, 2, 69, 0
5, 8360, Note_on_c, 2, 67, 0
5, 8360, Note_on_c, 2, 64, 0
5, 8360, Note_on_c, 2, 60, 0
5, 8370, Note_on_c, 2, 60, 72
5, 8370, Note_on_c, 2, 57, 64
5, 8370, Note_on_c, 2, 55, 58
5, 8380, Note_on_c, 2, 60, 0
5, 8385, Note_on_c, 2, 55, 0
5, 8386, Note_on_c, 2, 57, 0
5, 8460, Note_on_c, 2, 64, 91
5, 8460, Note_on_c, 2, 62, 91
5, 8460, Note_on_c, 2, 59, 91
5, 8460, Note_on_c, 2, 67, 91
5, 8482, Note_on_c, 2, 67, 0
5, 8482, Note_on_c, 2, 64, 0
5, 8482, Note_on_c, 2, 62, 0
5, 8482, Note_on_c, 2, 59, 0
5, 8490, Note_on_c, 2, 62, 59
5, 8490, Note_on_c, 2, 67, 49
5, 8490, Note_on_c, 2, 64, 58
5, 8500, Note_on_c, 2, 67, 0
5, 8504, Note_on_c, 2, 64, 0
5, 8509, Note_on_c, 2, 62, 0
5, 8580, Note_on_c, 2, 64, 89
5, 8580, Note_on_c, 2, 62, 89
5, 8580, Note_on_c, 2, 59, 89
5, 8580, Note_on_c, 2, 67, 89
5, 8600, Note_on_c, 2, 67, 0
5, 8600, Note_on_c, 2, 64, 0
5, 8600, Note_on_c, 2, 62, 0
5, 8600, Note_on_c, 2, 59, 0
5, 8610, Note_on_c, 2, 67, 72
5, 8610, Note_on_c, 2, 64, 64
5, 8610, Note_on_c, 2, 62, 58
5, 8620, Note_on_c, 2, 67, 0
5, 8625, Note_on_c, 2, 62, 0
5, 8626, Note_on_c, 2, 64, 0
5, 8700, Note_on_c, 2, 67, 82
5, 8700, Note_on_c, 2, 64, 82
5, 8700, Note_on_c, 2, 60, 82
5, 8700, Note_on_c, 2, 69, 82
5, 8719, Note_on_c, 2, 69, 0
5, 8719, Note_on_c, 2, 67, 0
5, 8719, Note_on_c, 2, 64, 0
5, 8719, Note_on_c, 2, 60, 0
5, 8730, Note_on_c, 2, 67, 72
5, 8730, Note_on_c, 2, 64, 72
5, 8730, Note_on_c, 2, 60, 72
5, 8730, Note_on_c, 2, 69, 72
5, 8747, Note_on_c, 2, 69, 0
5, 8747, Note_on_c, 2, 67, 0
5, 8747, Note_on_c, 2, 64, 0
5, 8747, Note_on_c, 2, 60, 0
5, 8790, Note_on_c, 2, 64, 61
5, 8790, Note_on_c, 2, 60, 54
5, 8790, Note_on_c, 2, 55, 47
5, 8790, Note_on_c, 2, 57, 44
5, 8802, Note_on_c, 2, 55, 0
5, 8802, Note_on_c, 2, 64, 0
5, 8806, Note_on_c, 2, 60, 0
5, 8806, Note_on_c, 2, 57, 0
5, 8820, Note_on_c, 2, 67, 80
5, 8820, Note_on_c, 2, 64, 80
5, 8820, Note_on_c, 2, 60, 80
5, 8820, Note_on_c, 2, 69, 80
5, 8843, Note_on_c, 2, 69, 0
5, 8843, Note_on_c, 2, 67, 0
5, 8843, Note_on_c, 2, 64, 0
5, 8843, Note_on_c, 2, 60, 0
5, 8940, Note_on_c, 2, 64, 82
5, 8940, Note_on_c, 2, 62, 82
5, 8940, Note_on_c, 2, 59, 82
5, 8940, Note_on_c, 2, 67, 82
5, 8959, Note_on_c, 2, 67, 0
5, 8959, Note_on_c, 2, 64, 0
5, 8959, Note_on_c, 2, 62, 0
5, 8959, Note_on_c, 2, 59, 0
5, 8970, Note_on_c, 2, 64, 72
5, 8970, Note_on_c, 2, 62, 72
5, 8970, Note_on_c, 2, 59, 72
5, 8970, Note_on_c, 2, 67, 72
5, 8987, Note_on_c, 2, 67, 0
5, 8987, Note_on_c, 2, 64, 0
5, 8987, Note_on_c, 2, 62, 0
5, 8987, Note_on_c, 2, 59, 0
5, 9030, Note_on_c, 2, 71, 61
5, 9030, Note_on_c, 2, 67, 54
5, 9030, Note_on_c, 2, 62, 47
5, 9030, Note_on_c, 2, 64, 44
5, 9042, Note_on_c, 2, 62, 0
5, 9042, Note_on_c, 2, 71, 0
5, 9046, Note_on_c, 2, 67, 0
5, 9046, Note_on_c, 2, 64, 0
5, 9060, Note_on_c, 2, 64, 80
5, 9060, Note_on_c, 2, 62, 80
5, 9060, Note_on_c, 2, 59, 80
5, 9060, Note_on_c, 2, 67, 80
5, 9083, Note_on_c, 2, 67, 0
5, 9083, Note_on_c, 2, 64, 0
5, 9083, Note_on_c, 2, 62, 0
5, 9083, Note_on_c, 2, 59, 0
5, 9180, Note_on_c, 2, 65, 82
5, 9180, Note_on_c, 2, 62, 82
5, 9180, Note_on_c, 2, 60, 82
5, 9180, Note_on_c, 2, 69, 82
5, 9199, Note_on_c, 2, 69, 0
5, 9199, Note_on_c, 2, 65, 0
5, 9199, Note_on_c, 2, 62, 0
5, 9199, Note_on_c, 2, 60, 0
5, 9210, Note_on_c, 2, 65, 72
5, 9210, Note_on_c, 2, 62, 72
5, 9210, Note_on_c, 2, 60, 72
5, 9210, Note_on_c, 2, 69, 72
5, 9227, Note_on_c, 2, 69, 0
5, 9227, Note_on_c, 2, 65, 0
5, 9227, Note_on_c, 2, 62, 0
5, 9227, Note_on_c, 2, 60, 0
5, 9270, Note_on_c, 2, 69, 61
5, 9270, Note_on_c, 2, 65, 54
5, 9270, Note_on_c, 2, 60, 47
5, 9270, Note_on_c, 2, 62, 44
5, 9282, Note_on_c, 2, 60, 0
5, 9282, Note_on_c, 2, 69, 0
5, 9286, Note_on_c, 2, 65, 0
5, 9286, Note_on_c, 2, 62, 0
5, 9300, Note_on_c, 2, 65, 80
5, 9300, Note_on_c, 2, 62, 80
5, 9300, Note_on_c, 2, 60, 80
5, 9300, Note_on_c, 2, 69, 80
5, 9323, Note_on_c, 2, 69, 0
5, 9323, Note_on_c, 2, 65, 0
5, 9323, Note_on_c, 2, 62, 0
5, 9323, Note_on_c, 2, 60, 0
5, 9420, Note_on_c, 2, 66, 91
5, 9420, Note_on_c, 2, 62, 91
5, 9420, Note_on_c, 2, 60, 91
5, 9420, Note_on_c, 2, 69, 91
5, 9442, Note_on_c, 2, 69, 0
5, 9442, Note_on_c, 2, 66, 0
5, 9442, Note_on_c, 2, 62, 0
5, 9442, Note_on_c, 2, 60, 0
5, 9450, Note_on_c, 2, 60, 59
5, 9450, Note_on_c, 2, 66, 49
5, 9450, Note_on_c, 2, 62, 58
5, 9460, Note_on_c, 2, 66, 0
5, 9464, Note_on_c, 2, 62, 0
5, 9469, Note_on_c, 2, 60, 0
5, 9540, Note_on_c, 2, 66, 89
5, 9540, Note_on_c, 2, 62, 89
5, 9540, Note_on_c, 2, 60, 89
5, 9540, Note_on_c, 2, 69, 89
5, 9560, Note_on_c, 2, 69, 0
5, 9560, Note_on_c, 2, 66, 0
5, 9560, Note_on_c, 2, 62, 0
5, 9560, Note_on_c, 2, 60, 0
5, 9570, Note_on_c, 2, 66, 72
5, 9570, Note_on_c, 2, 62, 64
5, 9570, Note_on_c, 2, 60, 58
5, 9580, Note_on_c, 2, 66, 0
5, 9585, Note_on_c, 2, 60, 0
5, 9586, Note_on_c, 2, 62, 0
5, 9660, Note_on_c, 2, 62, 87
5, 9660, Note_on_c, 2, 59, 87
5, 9660, Note_on_c, 2, 55, 87
5, 9678, Note_on_c, 2, 55, 0
5, 9678, Note_on_c, 2, 59, 0
5, 9678, Note_on_c, 2, 62, 0
5, 9690, Note_on_c, 2, 59, 59
5, 9690, Note_on_c, 2, 55, 68
5, 9701, Note_on_c, 2, 59, 0
5, 9707, Note_on_c, 2, 55, 0
5, 9750, Note_on_c, 2, 59, 68
5, 9750, Note_on_c, 2, 55, 52
5, 9758, Note_on_c, 2, 59, 0
5, 9764, Note_on_c, 2, 55, 0
5, 9780, Note_on_c, 2, 62, 85
5, 9780, Note_on_c, 2, 59, 85
5, 9780, Note_on_c, 2, 55, 85
5, 9799, Note_on_c, 2, 55, 0
5, 9799, Note_on_c, 2, 59, 0
5, 9799, Note_on_c, 2, 62, 0
5, 9870, Note_on_c, 2, 59, 68
5, 9870, Note_on_c, 2, 55, 57
5, 9878, Note_on_c, 2, 59, 0
5, 9885, Note_on_c, 2, 55, 0
5, 9900, Note_on_c, 2, 62, 82
5, 9900, Note_on_c, 2, 59, 82
5, 9900, Note_on_c, 2, 55, 82
5, 9923, Note_on_c, 2, 55, 0
5, 9923, Note_on_c, 2, 59, 0
5, 9923, Note_on_c, 2, 62, 0
5, 9990, Note_on_c, 2, 59, 63
5, 9990, Note_on_c, 2, 55, 53
5, 9999, Note_on_c, 2, 59, 0
5, 10002, Note_on_c, 2, 55, 0
5, 10020, Note_on_c, 2, 62, 89
5, 10020, Note_on_c, 2, 59, 89
5, 10020, Note_on_c, 2, 55, 89
5, 10039, Note_on_c, 2, 55, 0
5, 10039, Note_on_c, 2, 59, 0
5, 10039, Note_on_c, 2, 62, 0
5, 10140, Note_on_c, 2, 64, 87
5, 10140, Note_on_c, 2, 60, 87
5, 10140, Note_on_c, 2, 55, 87
5, 10158, Note_on_c, 2, 55, 0
5, 10158, Note_on_c, 2, 60, 0
5, 10158, Note_on_c, 2, 64, 0
5, 10170, Note_on_c, 2, 64, 59
5, 10170, Note_on_c, 2, 60, 68
5, 10181, Note_on_c, 2, 64, 0
5, 10187, Note_on_c, 2, 60, 0
5, 10230, Note_on_c, 2, 64, 68
5, 10230, Note_on_c, 2, 60, 52
5, 10238, Note_on_c, 2, 64, 0
5, 10244, Note_on_c, 2, 60, 0
5, 10260, Note_on_c, 2, 64, 85
5, 10260, Note_on_c, 2, 60, 85
5, 10260, Note_on_c, 2, 55, 85
5, 10279, Note_on_c, 2, 55, 0
5, 10279, Note_on_c, 2, 60, 0
5, 10279, Note_on_c, 2, 64, 0
5, 10380, Note_on_c, 2, 62, 91
5, 10380, Note_on_c, 2, 59, 91
5, 10380, Note_on_c, 2, 55, 91
5, 10402, Note_on_c, 2, 55, 0
5, 10402, Note_on_c, 2, 59, 0
5, 10402, Note_on_c, 2, 62, 0
5, 10410, Note_on_c, 2, 55, 59
5, 10410, Note_on_c, 2, 59, 49
5, 10420, Note_on_c, 2, 59, 0
5, 10424, Note_on_c, 2, 55, 0
5, 10500, Note_on_c, 2, 62, 89
5, 10500, Note_on_c, 2, 59, 89
5, 10500, Note_on_c, 2, 55, 89
5, 10520, Note_on_c, 2, 55, 0
5, 10520, Note_on_c, 2, 59, 0
5, 10520, Note_on_c, 2, 62, 0
5, 10530, Note_on_c, 2, 59, 72
5, 10530, Note_on_c, 2, 55, 64
5, 10540, Note_on_c, 2, 59, 0
5, 10545, Note_on_c, 2, 55, 0
5, 10620, Note_on_c, 2, 64, 87
5, 10620, Note_on_c, 2, 60, 87
5, 10620, Note_on_c, 2, 55, 87
5, 10638, Note_on_c, 2, 55, 0
5, 10638, Note_on_c, 2, 60, 0
5, 10638, Note_on_c, 2, 64, 0
5, 10650, Note_on_c, 2, 64, 59
5, 10650, Note_on_c, 2, 60, 68
5, 10661, Note_on_c, 2, 64, 0
5, 10667, Note_on_c, 2, 60, 0
5, 10710, Note_on_c, 2, 64, 68
5, 10710, Note_on_c, 2, 60, 52
5, 10718, Note_on_c, 2, 64, 0
5, 10724, Note_on_c, 2, 60, 0
5, 10740, Note_on_c, 2, 64, 85
5, 10740, Note_on_c, 2, 60, 85
5, 10740, Note_on_c, 2, 55, 85
5, 10759, Note_on_c, 2, 55, 0
5, 10759, Note_on_c, 2, 60, 0
5, 10759, Note_on_c, 2, 64, 0
5, 10860, Note_on_c, 2, 62, 91
5, 10860, Note_on_c, 2, 59, 91
5, 10860, Note_on_c, 2, 55, 91
5, 10882, Note_on_c, 2, 55, 0
5, 10882, Note_on_c, 2, 59, 0
5, 10882, Note_on_c, 2, 62, 0
5, 10890, Note_on_c, 2, 55, 59
5, 10890, Note_on_c, 2, 59, 49
5, 10900, Note_on_c, 2, 59, 0
5, 10904, Note_on_c, 2, 55, 0
5, 10980, Note_on_c, 2, 62, 89
5, 10980, Note_on_c, 2, 59, 89
5, 10980, Note_on_c, 2, 55, 89
5, 11000, Note_on_c, 2, 55, 0
5, 11000, Note_on_c, 2, 59, 0
5, 11000, Note_on_c, 2, 62, 0
5, 11010, Note_on_c, 2, 59, 72
5, 11010, Note_on_c, 2, 55, 64
5, 11020, Note_on_c, 2, 59, 0
5, 11025, Note_on_c, 2, 55, 0
5, 11100, Note_on_c, 2, 65, 82
5, 11100, Note_on_c, 2, 60, 82
5, 11100, Note_on_c, 2, 57, 82
5, 11119, Note_on_c, 2, 57, 0
5, 11119, Note_on_c, 2, 60, 0
5, 11119, Note_on_c, 2, 65, 0
5, 11130, Note_on_c, 2, 65, 72
5, 11130, Note_on_c, 2, 60, 72
5, 11130, Note_on_c, 2, 57, 72
5, 11147, Note_on_c, 2, 57, 0
5, 11147, Note_on_c, 2, 60, 0
5, 11147, Note_on_c, 2, 65, 0
5, 11190, Note_on_c, 2, 72, 61
5, 11190, Note_on_c, 2, 69, 54
5, 11190, Note_on_c, 2, 65, 47
5, 11202, Note_on_c, 2, 65, 0
5, 11202, Note_on_c, 2, 72, 0
5, 11206, Note_on_c, 2, 69, 0
5, 11220, Note_on_c, 2, 65, 80
5, 11220, Note_on_c, 2, 60, 80
5, 11220, Note_on_c, 2, 57, 80
5, 11243, Note_on_c, 2, 57, 0
5, 11243, Note_on_c, 2, 60, 0
5, 11243, Note_on_c, 2, 65, 0
5, 11340, Note_on_c, 2, 64, 82
5, 11340, Note_on_c, 2, 59, 82
5, 11340, Note_on_c, 2, 55, 82
5, 11359, Note_on_c, 2, 55, 0
5, 11359, Note_on_c, 2, 59, 0
5, 11359, Note_on_c, 2, 64, 0
5, 11370, Note_on_c, 2, 64, 72
5, 11370, Note_on_c, 2, 59, 72
5, 11370, Note_on_c, 2, 55, 72
5, 11387, Note_on_c, 2, 55, 0
5, 11387, Note_on_c, 2, 59, 0
5, 11387, Note_on_c, 2, 64, 0
5, 11430, Note_on_c, 2, 71, 61
5, 11430, Note_on_c, 2, 67, 54
5, 11430, Note_on_c, 2, 64, 47
5, 11442, Note_on_c, 2, 64, 0
5, 11442, Note_on_c, 2, 71, 0
5, 11446, Note_on_c, 2, 67, 0
5, 11460, Note_on_c, 2, 64, 80
5, 11460, Note_on_c, 2, 59, 80
5, 11460, Note_on_c, 2, 55, 80
5, 11483, Note_on_c, 2, 55, 0
5, 11483, Note_on_c, 2, 59, 0
5, 11483, Note_on_c, 2, 64, 0
5, 11580, Note_on_c, 2, 62, 87
5, 11580, Note_on_c, 2, 59, 87
5, 11580, Note_on_c, 2, 55, 87
5, 11598, Note_on_c, 2, 55, 0
5, 11598, Note_on_c, 2, 59, 0
5, 11598, Note_on_c, 2, 62, 0
5, 11610, Note_on_c, 2, 59, 59
5, 11610, Note_on_c, 2, 55, 68
5, 11621, Note_on_c, 2, 59, 0
5, 11627, Note_on_c, 2, 55, 0
5, 11670, Note_on_c, 2, 59, 68
5, 11670, Note_on_c, 2, 55, 52
5, 11678, Note_on_c, 2, 59, 0
5, 11684, Note_on_c, 2, 55, 0
5, 11700, Note_on_c, 2, 62, 85
5, 11700, Note_on_c, 2, 59, 85
5, 11700, Note_on_c, 2, 55, 85
5, 11719, Note_on_c, 2, 55, 0
5, 11719, Note_on_c, 2, 59, 0
5, 11719, Note_on_c, 2, 62, 0
5, 11790, Note_on_c, 2, 59, 68
5, 11790, Note_on_c, 2, 55, 57
5, 11798, Note_on_c, 2, 59, 0
5, 11805, Note_on_c, 2, 55, 0
5, 11820, Note_on_c, 2, 62, 82
5, 11820, Note_on_c, 2, 59, 82
5, 11820, Note_on_c, 2, 55, 82
5, 11843, Note_on_c, 2, 55, 0
5, 11843, Note_on_c, 2, 59, 0
5, 11843, Note_on_c, 2, 62, 0
5, 11910, Note_on_c, 2, 59, 63
5, 11910, Note_on_c, 2, 55, 53
5, 11919, Note_on_c, 2, 59, 0
5, 11922, Note_on_c, 2, 55, 0
5, 11940, Note_on_c, 2, 62, 89
5, 11940, Note_on_c, 2, 59, 89
5, 11940, Note_on_c, 2, 55, 89
5, 11959, Note_on_c, 2, 55, 0
5, 11959, Note_on_c, 2, 59, 0
5, 11959, Note_on_c, 2, 62, 0
5, 12060, Note_on_c, 2, 65, 82
5, 12060, Note_on_c, 2, 60, 82
5, 12060, Note_on_c, 2, 57, 82
5, 12079, Note_on_c, 2, 57, 0
5, 12079, Note_on_c, 2, 60, 0
5, 12079, Note_on_c, 2, 65, 0
5, 12090, Note_on_c, 2, 65, 72
5, 12090, Note_on_c, 2, 60, 72
5, 12090, Note_on_c, 2, 57, 72
5, 12107, Note_on_c, 2, 57, 0
5, 12107, Note_on_c, 2, 60, 0
5, 12107, Note_on_c, 2, 65, 0
5, 12150, Note_on_c, 2, 72, 61
5, 12150, Note_on_c, 2, 69, 54
5, 12150, Note_on_c, 2, 65, 47
5, 12162, Note_on_c, 2, 65, 0
5, 12162, Note_on_c, 2, 72, 0
5, 12166, Note_on_c, 2, 69, 0
5, 12180, Note_on_c, 2, 65, 80
5, 12180, Note_on_c, 2, 60, 80
5, 12180, Note_on_c, 2, 57, 80
5, 12203, Note_on_c, 2, 57, 0
5, 12203, Note_on_c, 2, 60, 0
5, 12203, Note_on_c, 2, 65, 0
5, 12300, Note_on_c, 2, 62, 91
5, 12300, Note_on_c, 2, 59, 91
5, 12300, Note_on_c, 2, 55, 91
5, 12322, Note_on_c, 2, 55, 0
5, 12322, Note_on_c, 2, 59, 0
5, 12322, Note_on_c, 2, 62, 0
5, 12330, Note_on_c, 2, 55, 59
5, 12330, Note_on_c, 2, 59, 49
5, 12340, Note_on_c, 2, 59, 0
5, 12344, Note_on_c, 2, 55, 0
5, 12420, Note_on_c, 2, 62, 89
5, 12420, Note_on_c, 2, 59, 89
5, 12420, Note_on_c, 2, 55, 89
5, 12440, Note_on_c, 2, 55, 0
5, 12440, Note_on_c, 2, 59, 0
5, 12440, Note_on_c, 2, 62, 0
5, 12450, Note_on_c, 2, 59, 72
5, 12450, Note_on_c, 2, 55, 64
5, 12460, Note_on_c, 2, 59, 0
5, 12465, Note_on_c, 2, 55, 0
5, 12540, Note_on_c, 2, 64, 87
5, 12540, Note_on_c, 2, 60, 87
5, 12540, Note_on_c, 2, 57, 87
5, 12558, Note_on_c, 2, 57, 0
5, 12558, Note_on_c, 2, 60, 0
5, 12558, Note_on_c, 2, 64, 0
5, 12570, Note_on_c, 2, 60, 59
5, 12570, Note_on_c, 2, 57, 68
5, 12581, Note_on_c, 2, 60, 0
5, 12587, Note_on_c, 2, 57, 0
5, 12630, Note_on_c, 2, 60, 68
5, 12630, Note_on_c, 2, 57, 52
5, 12638, Note_on_c, 2, 60, 0
5, 12644, Note_on_c, 2, 57, 0
5, 12660, Note_on_c, 2, 64, 85
5, 12660, Note_on_c, 2, 60, 85
5, 12660, Note_on_c, 2, 57, 85
5, 12679, Note_on_c, 2, 57, 0
5, 12679, Note_on_c, 2, 60, 0
5, 12679, Note_on_c, 2, 64, 0
5, 12780, Note_on_c, 2, 65, 91
5, 12780, Note_on_c, 2, 60, 91
5, 12780, Note_on_c, 2, 57, 91
5, 12802, Note_on_c, 2, 57, 0
5, 12802, Note_on_c, 2, 60, 0
5, 12802, Note_on_c, 2, 65, 0
5, 12810, Note_on_c, 2, 65, 59
5, 12810, Note_on_c, 2, 69, 49
5, 12820, Note_on_c, 2, 69, 0
5, 12824, Note_on_c, 2, 65, 0
5, 12900, Note_on_c, 2, 65, 89
5, 12900, Note_on_c, 2, 60, 89
5, 12900, Note_on_c, 2, 57, 89
5, 12920, Note_on_c, 2, 57, 0
5, 12920, Note_on_c, 2, 60, 0
5, 12920, Note_on_c, 2, 65, 0
5, 12930, Note_on_c, 2, 69, 72
5, 12930, Note_on_c, 2, 65, 64
5, 12940, Note_on_c, 2, 69, 0
5, 12945, Note_on_c, 2, 65, 0
5, 13020, Note_on_c, 2, 64, 82
5, 13020, Note_on_c, 2, 60, 82
5, 13020, Note_on_c, 2, 55, 82
5, 13039, Note_on_c, 2, 55, 0
5, 13039, Note_on_c, 2, 60, 0
5, 13039, Note_on_c, 2, 64, 0
5, 13050, Note_on_c, 2, 64, 72
5, 13050, Note_on_c, 2, 60, 72
5, 13050, Note_on_c, 2, 55, 72
5, 13067, Note_on_c, 2, 55, 0
5, 13067, Note_on_c, 2, 60, 0
5, 13067, Note_on_c, 2, 64, 0
5, 13110, Note_on_c, 2, 67, 61
5, 13110, Note_on_c, 2, 64, 54
5, 13110, Note_on_c, 2, 60, 47
5, 13122, Note_on_c, 2, 60, 0
5, 13122, Note_on_c, 2, 67, 0
5, 13126, Note_on_c, 2, 64, 0
5, 13140, Note_on_c, 2, 64, 80
5, 13140, Note_on_c, 2, 60, 80
5, 13140, Note_on_c, 2, 55, 80
5, 13163, Note_on_c, 2, 55, 0
5, 13163, Note_on_c, 2, 60, 0
5, 13163, Note_on_c, 2, 64, 0
5, 13260, Note_on_c, 2, 62, 82
5, 13260, Note_on_c, 2, 59, 82
5, 13260, Note_on_c, 2, 55, 82
5, 13279, Note_on_c, 2, 55, 0
5, 13279, Note_on_c, 2, 59, 0
5, 13279, Note_on_c, 2, 62, 0
5, 13290, Note_on_c, 2, 62, 72
5, 13290, Note_on_c, 2, 59, 72
5, 13290, Note_on_c, 2, 55, 72
5, 13307, Note_on_c, 2, 55, 0
5, 13307, Note_on_c, 2, 59, 0
5, 13307, Note_on_c, 2, 62, 0
5, 13350, Note_on_c, 2, 62, 61
5, 13350, Note_on_c, 2, 59, 54
5, 13350, Note_on_c, 2, 55, 47
5, 13362, Note_on_c, 2, 55, 0
5, 13362, Note_on_c, 2, 62, 0
5, 13366, Note_on_c, 2, 59, 0
5, 13380, Note_on_c, 2, 62, 80
5, 13380, Note_on_c, 2, 59, 80
5, 13380, Note_on_c, 2, 55, 80
5, 13403, Note_on_c, 2, 55, 0
5, 13403, Note_on_c, 2, 59, 0
5, 13403, Note_on_c, 2, 62, 0
5, 13500, Note_on_c, 2, 64, 89
5, 13500, Note_on_c, 2, 60, 89
5, 13500, Note_on_c, 2, 55, 89
5, 13522, Note_on_c, 2, 55, 0
5, 13522, Note_on_c, 2, 60, 0
5, 13522, Note_on_c, 2, 64, 0
5, 13530, Note_on_c, 2, 64, 70
5, 13530, Note_on_c, 2, 60, 60
5, 13543, Note_on_c, 2, 64, 0
5, 13549, Note_on_c, 2, 60, 0
5, 13620, Note_on_c, 2, 64, 91
5, 13620, Note_on_c, 2, 60, 91
5, 13620, Note_on_c, 2, 55, 91
5, 13638, Note_on_c, 2, 55, 0
5, 13638, Note_on_c, 2, 60, 0
5, 13638, Note_on_c, 2, 64, 0
5, 13740, Note_on_c, 2, 64, 89
5, 13740, Note_on_c, 2, 60, 89
5, 13740, Note_on_c, 2, 55, 89
5, 13764, Note_on_c, 2, 55, 0
5, 13764, Note_on_c, 2, 60, 0
5, 13764, Note_on_c, 2, 64, 0
5, 13770, Note_on_c, 2, 64, 74
5, 13770, Note_on_c, 2, 60, 60
5, 13781, Note_on_c, 2, 60, 0
5, 13781, Note_on_c, 2, 64, 0
5, 13830, Note_on_c, 2, 60, 59
5, 13830, Note_on_c, 2, 64, 53
5, 13836, Note_on_c, 2, 64, 0
5, 13840, Note_on_c, 2, 60, 0
5, 13860, Note_on_c, 2, 64, 87
5, 13860, Note_on_c, 2, 60, 87
5, 13860, Note_on_c, 2, 55, 87
5, 13881, Note_on_c, 2, 55, 0
5, 13881, Note_on_c, 2, 60, 0
5, 13881, Note_on_c, 2, 64, 0
5, 13890, Note_on_c, 2, 64, 78
5, 13890, Note_on_c, 2, 60, 78
5, 13890, Note_on_c, 2, 55, 78
5, 13904, Note_on_c, 2, 55, 0
5, 13904, Note_on_c, 2, 60, 0
5, 13904, Note_on_c, 2, 64, 0
5, 13980, Note_on_c, 2, 67, 91
5, 13980, Note_on_c, 2, 64, 91
5, 13980, Note_on_c, 2, 60, 91
5, 13980, Note_on_c, 2, 69, 91
5, 14002, Note_on_c, 2, 69, 0
5, 14002, Note_on_c, 2, 67, 0
5, 14002, Note_on_c, 2, 64, 0
5, 14002, Note_on_c, 2, 60, 0
5, 14010, Note_on_c, 2, 55, 59
5, 14010, Note_on_c, 2, 60, 49
5, 14010, Note_on_c, 2, 57, 58
5, 14020, Note_on_c, 2, 60, 0
5, 14024, Note_on_c, 2, 57, 0
5, 14029, Note_on_c, 2, 55, 0
5, 14100, Note_on_c, 2, 67, 89
5, 14100, Note_on_c, 2, 64, 89
5, 14100, Note_on_c, 2, 60, 89
5, 14100, Note_on_c, 2, 69, 89
5, 14120, Note_on_c, 2, 69, 0
5, 14120, Note_on_c, 2, 67, 0
5, 14120, Note_on_c, 2, 64, 0
5, 14120, Note_on_c, 2, 60, 0
5, 14130, Note_on_c, 2, 60, 72
5, 14130, Note_on_c, 2, 57, 64
5, 14130, Note_on_c, 2, 55, 58
5, 14140, Note_on_c, 2, 60, 0
5, 14145, Note_on_c, 2, 55, 0
5, 14146, Note_on_c, 2, 57, 0
5, 14220, Note_on_c, 2, 64, 82
5, 14220, Note_on_c, 2, 62, 82
5, 14220, Note_on_c, 2, 59, 82
5, 14220, Note_on_c, 2, 67, 82
5, 14239, Note_on_c, 2, 67, 0
5, 14239, Note_on_c, 2, 64, 0
5, 14239, Note_on_c, 2, 62, 0
5, 14239, Note_on_c, 2, 59, 0
5, 14250, Note_on_c, 2, 64, 72
5, 14250, Note_on_c, 2, 62, 72
5, 14250, Note_on_c, 2, 59, 72
5, 14250, Note_on_c, 2, 67, 72
5, 14267, Note_on_c, 2, 67, 0
5, 14267, Note_on_c, 2, 64, 0
5, 14267, Note_on_c, 2, 62, 0
5, 14267, Note_on_c, 2, 59, 0
5, 14310, Note_on_c, 2, 71, 61
5, 14310, Note_on_c, 2, 67, 54
5, 14310, Note_on_c, 2, 62, 47
5, 14310, Note_on_c, 2, 64, 44
5, 14322, Note_on_c, 2, 62, 0
5, 14322, Note_on_c, 2, 71, 0
5, 14326, Note_on_c, 2, 67, 0
5, 14326, Note_on_c, 2, 64, 0
5, 14340, Note_on_c, 2, 64, 80
5, 14340, Note_on_c, 2, 62, 80
5, 14340, Note_on_c, 2, 59, 80
5, 14340, Note_on_c, 2, 67, 80
5, 14363, Note_on_c, 2, 67, 0
5, 14363, Note_on_c, 2, 64, 0
5, 14363, Note_on_c, 2, 62, 0
5, 14363, Note_on_c, 2, 59, 0
5, 14460, Note_on_c, 2, 67, 91
5, 14460, Note_on_c, 2, 64, 91
5, 14460, Note_on_c, 2, 60, 91
5, 14460, Note_on_c, 2, 69, 91
5, 14482, Note_on_c, 2, 69, 0
5, 14482, Note_on_c, 2, 67, 0
5, 14482, Note_on_c, 2, 64, 0
5, 14482, Note_on_c, 2, 60, 0
5, 14490, Note_on_c, 2, 55, 59
5, 14490, Note_on_c, 2, 60, 49
5, 14490, Note_on_c, 2, 57, 58
5, 14500, Note_on_c, 2, 60, 0
5, 14504, Note_on_c, 2, 57, 0
5, 14509, Note_on_c, 2, 55, 0
5, 14580, Note_on_c, 2, 67, 89
5, 14580, Note_on_c, 2, 64, 89
5, 14580, Note_on_c, 2, 60, 89
5, 14580, Note_on_c, 2, 69, 89
5, 14600, Note_on_c, 2, 69, 0
5, 14600, Note_on_c, 2, 67, 0
5, 14600, Note_on_c, 2, 64, 0
5, 14600, Note_on_c, 2, 60, 0
5, 14610, Note_on_c, 2, 60, 72
5, 14610, Note_on_c, 2, 57, 64
5, 14610, Note_on_c, 2, 55, 58
5, 14620, Note_on_c, 2, 60, 0
5, 14625, Note_on_c, 2, 55, 0
5, 14626, Note_on_c, 2, 57, 0
5, 14700, Note_on_c, 2, 64, 91
5, 14700, Note_on_c, 2, 62, 91
5, 14700, Note_on_c, 2, 59, 91
5, 14700, Note_on_c, 2, 67, 91
5, 14722, Note_on_c, 2, 67, 0
5, 14722, Note_on_c, 2, 64, 0
5, 14722, Note_on_c, 2, 62, 0
5, 14722, Note_on_c, 2, 59, 0
5, 14730, Note_on_c, 2, 62, 59
5, 14730, Note_on_c, 2, 67, 49
5, 14730, Note_on_c, 2, 64, 58
5, 14740, Note_on_c, 2, 67, 0
5, 14744, Note_on_c, 2, 64, 0
5, 14749, Note_on_c, 2, 62, 0
5, 14820, Note_on_c, 2, 64, 89
5, 14820, Note_on_c, 2, 62, 89
5, 14820, Note_on_c, 2, 59, 89
5, 14820, Note_on_c, 2, 67, 89
5, 14840, Note_on_c, 2, 67, 0
5, 14840, Note_on_c, 2, 64, 0
5, 14840, Note_on_c, 2, 62, 0
5, 14840, Note_on_c, 2, 59, 0
5, 14850, Note_on_c, 2, 67, 72
5, 14850, Note_on_c, 2, 64, 64
5, 14850, Note_on_c, 2, 62, 58
5, 14860, Note_on_c, 2, 67, 0
5, 14865, Note_on_c, 2, 62, 0
5, 14866, Note_on_c, 2, 64, 0
5, 14940, Note_on_c, 2, 67, 82
5, 14940, Note_on_c, 2, 64, 82
5, 14940, Note_on_c, 2, 60, 82
5, 14940, Note_on_c, 2, 69, 82
5, 14959, Note_on_c, 2, 69, 0
5, 14959, Note_on_c, 2, 67, 0
5, 14959, Note_on_c, 2, 64, 0
5, 14959, Note_on_c, 2, 60, 0
5, 14970, Note_on_c, 2, 67, 72
5, 14970, Note_on_c, 2, 64, 72
5, 14970, Note_on_c, 2, 60, 72
5, 14970, Note_on_c, 2, 69, 72
5, 14987, Note_on_c, 2, 69, 0
5, 14987, Note_on_c, 2, 67, 0
5, 14987, Note_on_c, 2, 64, 0
5, 14987, Note_on_c, 2, 60, 0
5, 15030, Note_on_c, 2, 64, 61
5, 15030, Note_on_c, 2, 60, 54
5, 15030, Note_on_c, 2, 55, 47
5, 15030, Note_on_c, 2, 57, 44
5, 15042, Note_on_c, 2, 55, 0
5, 15042, Note_on_c, 2, 64, 0
5, 15046, Note_on_c, 2, 60, 0
5, 15046, Note_on_c, 2, 57, 0
5, 15060, Note_on_c, 2, 67, 80
5, 15060, Note_on_c, 2, 64, 80
5, 15060, Note_on_c, 2, 60, 80
5, 15060, Note_on_c, 2, 69, 80
5, 15083, Note_on_c, 2, 69, 0
5, 15083, Note_on_c, 2, 67, 0
5, 15083, Note_on_c, 2, 64, 0
5, 15083, Note_on_c, 2, 60, 0
5, 15180, Note_on_c, 2, 64, 82
5, 15180, Note_on_c, 2, 62, 82
5, 15180, Note_on_c, 2, 59, 82
5, 15180, Note_on_c, 2, 67, 82
5, 15199, Note_on_c, 2, 67, 0
5, 15199, Note_on_c, 2, 64, 0
5, 15199, Note_on_c, 2, 62, 0
5, 15199, Note_on_c, 2, 59, 0
5, 15210, Note_on_c, 2, 64, 72
5, 15210, Note_on_c, 2, 62, 72
5, 15210, Note_on_c, 2, 59, 72
5, 15210, Note_on_c, 2, 67, 72
5, 15227, Note_on_c, 2, 67, 0
5, 15227, Note_on_c, 2, 64, 0
5, 15227, Note_on_c, 2, 62, 0
5, 15227, Note_on_c, 2, 59, 0
5, 15270, Note_on_c, 2, 71, 61
5, 15270, Note_on_c, 2, 67, 54
5, 15270, Note_on_c, 2, 62, 47
5, 15270, Note_on_c, 2, 64, 44
5, 15282, Note_on_c, 2, 62, 0
5, 15282, Note_on_c, 2, 71, 0
5, 15286, Note_on_c, 2, 67, 0
5, 15286, Note_on_c, 2, 64, 0
5, 15300, Note_on_c, 2, 64, 80
5, 15300, Note_on_c, 2, 62, 80
5, 15300, Note_on_c, 2, 59, 80
5, 15300, Note_on_c, 2, 67, 80
5, 15323, Note_on_c, 2, 67, 0
5, 15323, Note_on_c, 2, 64, 0
5, 15323, Note_on_c, 2, 62, 0
5, 15323, Note_on_c, 2, 59, 0
5, 15420, Note_on_c, 2, 65, 82
5, 15420, Note_on_c, 2, 62, 82
5, 15420, Note_on_c, 2, 60, 82
5, 15420, Note_on_c, 2, 69, 82
5, 15439, Note_on_c, 2, 69, 0
5, 15439, Note_on_c, 2, 65, 0
5, 15439, Note_on_c, 2, 62, 0
5, 15439, Note_on_c, 2, 60, 0
5, 15450, Note_on_c, 2, 65, 72
5, 15450, Note_on_c, 2, 62, 72
5, 15450, Note_on_c, 2, 60, 72
5, 15450, Note_on_c, 2, 69, 72
5, 15467, Note_on_c, 2, 69, 0
5, 15467, Note_on_c, 2, 65, 0
5, 15467, Note_on_c, 2, 62, 0
5, 15467, Note_on_c, 2, 60, 0
5, 15510, Note_on_c, 2, 69, 61
5, 15510, Note_on_c, 2, 65, 54
5, 15510, Note_on_c, 2, 60, 47
5, 15510, Note_on_c, 2, 62, 44
5, 15522, Note_on_c, 2, 60, 0
5, 15522, Note_on_c, 2, 69, 0
5, 15526, Note_on_c, 2, 65, 0
5, 15526, Note_on_c, 2, 62, 0
5, 15540, Note_on_c, 2, 65, 80
5, 15540, Note_on_c, 2, 62, 80
5, 15540, Note_on_c, 2, 60, 80
5, 15540, Note_on_c, 2, 69, 80
5, 15563, Note_on_c, 2, 69, 0
5, 15563, Note_on_c, 2, 65, 0
5, 15563, Note_on_c, 2, 62, 0
5, 15563, Note_on_c, 2, 60, 0
5, 15660, Note_on_c, 2, 66, 91
5, 15660, Note_on_c, 2, 62, 91
5, 15660, Note_on_c, 2, 60, 91
5, 15660, Note_on_c, 2, 69, 91
5, 15682, Note_on_c, 2, 69, 0
5, 15682, Note_on_c, 2, 66, 0
5, 15682, Note_on_c, 2, 62, 0
5, 15682, Note_on_c, 2, 60, 0
5, 15690, Note_on_c, 2, 60, 59
5, 15690, Note_on_c, 2, 66, 49
5, 15690, Note_on_c, 2, 62, 58
5, 15700, Note_on_c, 2, 66, 0
5, 15704, Note_on_c, 2, 62, 0
5, 15709, Note_on_c, 2, 60, 0
5, 15780, Note_on_c, 2, 66, 89
5, 15780, Note_on_c, 2, 62, 89
5, 15780, Note_on_c, 2, 60, 89
5, 15780, Note_on_c, 2, 69, 89
5, 15800, Note_on_c, 2, 69, 0
5, 15800, Note_on_c, 2, 66, 0
5, 15800, Note_on_c, 2, 62, 0
5, 15800, Note_on_c, 2, 60, 0
5, 15810, Note_on_c, 2, 66, 72
5, 15810, Note_on_c, 2, 62, 64
5, 15810, Note_on_c, 2, 60, 58
5, 15820, Note_on_c, 2, 66, 0
5, 15825, Note_on_c, 2, 60, 0
5, 15826, Note_on_c, 2, 62, 0
5, 15900, Note_on_c, 2, 62, 87
5, 15900, Note_on_c, 2, 59, 87
5, 15900, Note_on_c, 2, 55, 87
5, 15918, Note_on_c, 2, 55, 0
5, 15918, Note_on_c, 2, 59, 0
5, 15918, Note_on_c, 2, 62, 0
5, 15930, Note_on_c, 2, 59, 59
5, 15930, Note_on_c, 2, 55, 68
5, 15941, Note_on_c, 2, 59, 0
5, 15947, Note_on_c, 2, 55, 0
5, 15990, Note_on_c, 2, 59, 68
5, 15990, Note_on_c, 2, 55, 52
5, 15998, Note_on_c, 2, 59, 0
5, 16004, Note_on_c, 2, 55, 0
5, 16020, Note_on_c, 2, 62, 85
5, 16020, Note_on_c, 2, 59, 85
5, 16020, Note_on_c, 2, 55, 85
5, 16039, Note_on_c, 2, 55, 0
5, 16039, Note_on_c, 2, 59, 0
5, 16039, Note_on_c, 2, 62, 0
5, 16110, Note_on_c, 2, 59, 68
5, 16110, Note_on_c, 2, 55, 57
5, 16118, Note_on_c, 2, 59, 0
5, 16125, Note_on_c, 2, 55, 0
5, 16140, Note_on_c, 2, 62, 82
5, 16140, Note_on_c, 2, 59, 82
5, 16140, Note_on_c, 2, 55, 82
5, 16163, Note_on_c, 2, 55, 0
5, 16163, Note_on_c, 2, 59, 0
5, 16163, Note_on_c, 2, 62, 0
5, 16230, Note_on_c, 2, 59, 63
5, 16230, Note_on_c, 2, 55, 53
5, 16239, Note_on_c, 2, 59, 0
5, 16242, Note_on_c, 2, 55, 0
5, 16260, Note_on_c, 2, 62, 89
5, 16260, Note_on_c, 2, 59, 89
5, 16260, Note_on_c, 2, 55, 89
5, 16279, Note_on_c, 2, 55, 0
5, 16279, Note_on_c, 2, 59, 0
5, 16279, Note_on_c, 2, 62, 0
5, 16380, Note_on_c, 2, 64, 87
5, 16380, Note_on_c, 2, 60, 87
5, 16380, Note_on_c, 2, 55, 87
5, 16398, Note_on_c, 2, 55, 0
5, 16398, Note_on_c, 2, 60, 0
5, 16398, Note_on_c, 2, 64, 0
5, 16410, Note_on_c, 2, 64, 59
5, 16410, Note_on_c, 2, 60, 68
5, 16421, Note_on_c, 2, 64, 0
5, 16427, Note_on_c, 2, 60, 0
5, 16470, Note_on_c, 2, 64, 68
5, 16470, Note_on_c, 2, 60, 52
5, 16478, Note_on_c, 2, 64, 0
5, 16484, Note_on_c, 2, 60, 0
5, 16500, Note_on_c, 2, 64, 85
5, 16500, Note_on_c, 2, 60, 85
5, 16500, Note_on_c, 2, 55, 85
5, 16519, Note_on_c, 2, 55, 0
5, 16519, Note_on_c, 2, 60, 0
5, 16519, Note_on_c, 2, 64, 0
5, 16620, Note_on_c, 2, 62, 91
5, 16620, Note_on_c, 2, 59, 91
5, 16620, Note_on_c, 2, 55, 91
5, 16642, Note_on_c, 2, 55, 0
5, 16642, Note_on_c, 2, 59, 0
5, 16642, Note_on_c, 2, 62, 0
5, 16650, Note_on_c, 2, 55, 59
5, 16650, Note_on_c, 2, 59, 49
5, 16660, Note_on_c, 2, 59, 0
5, 16664, Note_on_c, 2, 55, 0
5, 16740, Note_on_c, 2, 62, 89
5, 16740, Note_on_c, 2, 59, 89
5, 16740, Note_on_c, 2, 55, 89
5, 16760, Note_on_c, 2, 55, 0
5, 16760, Note_on_c, 2, 59, 0
5, 16760, Note_on_c, 2, 62, 0
5, 16770, Note_on_c, 2, 59, 72
5, 16770, Note_on_c, 2, 55, 64
5, 16780, Note_on_c, 2, 59, 0
5, 16785, Note_on_c, 2, 55, 0
5, 16860, Note_on_c, 2, 64, 87
5, 16860, Note_on_c, 2, 60, 87
5, 16860, Note_on_c, 2, 55, 87
5, 16878, Note_on_c, 2, 55, 0
5, 16878, Note_on_c, 2, 60, 0
5, 16878, Note_on_c, 2, 64, 0
5, 16890, Note_on_c, 2, 64, 59
5, 16890, Note_on_c, 2, 60, 68
5, 16901, Note_on_c, 2, 64, 0
5, 16907, Note_on_c, 2, 60, 0
5, 16950, Note_on_c, 2, 64, 68
5, 16950, Note_on_c, 2, 60, 52
5, 16958, Note_on_c, 2, 64, 0
5, 16964, Note_on_c, 2, 60, 0
5, 16980, Note_on_c, 2, 64, 85
5, 16980, Note_on_c, 2, 60, 85
5, 16980, Note_on_c, 2, 55, 85
5, 16999, Note_on_c, 2, 55, 0
5, 16999, Note_on_c, 2, 60, 0
5, 16999, Note_on_c, 2, 64, 0
5, 17100, Note_on_c, 2, 62, 91
5, 17100, Note_on_c, 2, 59, 91
5, 17100, Note_on_c, 2, 55, 91
5, 17122, Note_on_c, 2, 55, 0
5, 17122, Note_on_c, 2, 59, 0
5, 17122, Note_on_c, 2, 62, 0
5, 17130, Note_on_c, 2, 55, 59
5, 17130, Note_on_c, 2, 59, 49
5, 17140, Note_on_c, 2, 59, 0
5, 17144, Note_on_c, 2, 55, 0
5, 17220, Note_on_c, 2, 62, 89
5, 17220, Note_on_c, 2, 59, 89
5, 17220, Note_on_c, 2, 55, 89
5, 17240, Note_on_c, 2, 55, 0
5, 17240, Note_on_c, 2, 59, 0
5, 17240, Note_on_c, 2, 62, 0
5, 17250, Note_on_c, 2, 59, 72
5, 17250, Note_on_c, 2, 55, 64
5, 17260, Note_on_c, 2, 59, 0
5, 17265, Note_on_c, 2, 55, 0
5, 17340, Note_on_c, 2, 65, 82
5, 17340, Note_on_c, 2, 60, 82
5, 17340, Note_on_c, 2, 57, 82
5, 17359, Note_on_c, 2, 57, 0
5, 17359, Note_on_c, 2, 60, 0
5, 17359, Note_on_c, 2, 65, 0
5, 17370, Note_on_c, 2, 65, 72
5, 17370, Note_on_c, 2, 60, 72
5, 17370, Note_on_c, 2, 57, 72
5, 17387, Note_on_c, 2, 57, 0
5, 17387, Note_on_c, 2, 60, 0
5, 17387, Note_on_c, 2, 65, 0
5, 17430, Note_on_c, 2, 72, 61
5, 17430, Note_on_c, 2, 69, 54
5, 17430, Note_on_c, 2, 65, 47
5, 17442, Note_on_c, 2, 65, 0
5, 17442, Note_on_c, 2, 72, 0
5, 17446, Note_on_c, 2, 69, 0
5, 17460, Note_on_c, 2, 65, 80
5, 17460, Note_on_c, 2, 60, 80
5, 17460, Note_on_c, 2, 57, 80
5, 17483, Note_on_c, 2, 57, 0
5, 17483, Note_on_c, 2, 60, 0
5, 17483, Note_on_c, 2, 65, 0
5, 17580, Note_on_c, 2, 64, 82
5, 17580, Note_on_c, 2, 59, 82
5, 17580, Note_on_c, 2, 55, 82
5, 17599, Note_on_c, 2, 55, 0
5, 17599, Note_on_c, 2, 59, 0
5, 17599, Note_on_c, 2, 64, 0
5, 17610, Note_on_c, 2, 64, 72
5, 17610, Note_on_c, 2, 59, 72
5, 17610, Note_on_c, 2, 55, 72
5, 17627, Note_on_c, 2, 55, 0
5, 17627, Note_on_c, 2, 59, 0
5, 17627, Note_on_c, 2, 64, 0
5, 17670, Note_on_c, 2, 71, 61
5, 17670, Note_on_c, 2, 67, 54
5, 17670, Note_on_c, 2, 64, 47
5, 17682, Note_on_c, 2, 64, 0
5, 17682, Note_on_c, 2, 71, 0
5, 17686, Note_on_c, 2, 67, 0
5, 17700, Note_on_c, 2, 64, 80
5, 17700, Note_on_c, 2, 59, 80
5, 17700, Note_on_c, 2, 55, 80
5, 17723, Note_on_c, 2, 55, 0
5, 17723, Note_on_c, 2, 59, 0
5, 17723, Note_on_c, 2, 64, 0
5, 17820, Note_on_c, 2, 62, 87
5, 17820, Note_on_c, 2, 59, 87
5, 17820, Note_on_c, 2, 55, 87
5, 17838, Note_on_c, 2, 55, 0
5, 17838, Note_on_c, 2, 59, 0
5, 17838, Note_on_c, 2, 62, 0
5, 17850, Note_on_c, 2, 59, 59
5, 17850, Note_on_c, 2, 55, 68
5, 17861, Note_on_c, 2, 59, 0
5, 17867, Note_on_c, 2, 55, 0
5, 17910, Note_on_c, 2, 59, 68
5, 17910, Note_on_c, 2, 55, 52
5, 17918, Note_on_c, 2, 59, 0
5, 17924, Note_on_c, 2, 55, 0
5, 17940, Note_on_c, 2, 62, 85
5, 17940, Note_on_c, 2, 59, 85
5, 17940, Note_on_c, 2, 55, 85
5, 17959, Note_on_c, 2, 55, 0
5, 17959, Note_on_c, 2, 59, 0
5, 17959, Note_on_c, 2, 62, 0
5, 18030, Note_on_c, 2, 59, 68
5, 18030, Note_on_c, 2, 55, 57
5, 18038, Note_on_c, 2, 59, 0
5, 18045, Note_on_c, 2, 55, 0
5, 18060, Note_on_c, 2, 62, 82
5, 18060, Note_on_c, 2, 59, 82
5, 18060, Note_on_c, 2, 55, 82
5, 18083, Note_on_c, 2, 55, 0
5, 18083, Note_on_c, 2, 59, 0
5, 18083, Note_on_c, 2, 62, 0
5, 18150, Note_on_c, 2, 59, 63
5, 18150, Note_on_c, 2, 55, 53
5, 18159, Note_on_c, 2, 59, 0
5, 18162, Note_on_c, 2, 55, 0
5, 18180, Note_on_c, 2, 62, 89
5, 18180, Note_on_c, 2, 59, 89
5, 18180, Note_on_c, 2, 55, 89
5, 18199, Note_on_c, 2, 55, 0
5, 18199, Note_on_c, 2, 59, 0
5, 18199, Note_on_c, 2, 62, 0
5, 18300, Note_on_c, 2, 65, 82
5, 18300, Note_on_c, 2, 60, 82
5, 18300, Note_on_c, 2, 57, 82
5, 18319, Note_on_c, 2, 57, 0
5, 18319, Note_on_c, 2, 60, 0
5, 18319, Note_on_c, 2, 65, 0
5, 18330, Note_on_c, 2, 65, 72
5, 18330, Note_on_c, 2, 60, 72
5, 18330, Note_on_c, 2, 57, 72
5, 18347, Note_on_c, 2, 57, 0
5, 18347, Note_on_c, 2, 60, 0
5, 18347, Note_on_c, 2, 65, 0
5, 18390, Note_on_c, 2, 72, 61
5, 18390, Note_on_c, 2, 69, 54
5, 18390, Note_on_c, 2, 65, 47
5, 18402, Note_on_c, 2, 65, 0
5, 18402, Note_on_c, 2, 72, 0
5, 18406, Note_on_c, 2, 69, 0
5, 18420, Note_on_c, 2, 65, 80
5, 18420, Note_on_c, 2, 60, 80
5, 18420, Note_on_c, 2, 57, 80
5, 18443, Note_on_c, 2, 57, 0
5, 18443, Note_on_c, 2, 60, 0
5, 18443, Note_on_c, 2, 65, 0
5, 18540, Note_on_c, 2, 62, 91
5, 18540, Note_on_c, 2, 59, 91
5, 18540, Note_on_c, 2, 55, 91
5, 18562, Note_on_c, 2, 55, 0
5, 18562, Note_on_c, 2, 59, 0
5, 18562, Note_on_c, 2, 62, 0
5, 18570, Note_on_c, 2, 55, 59
5, 18570, Note_on_c, 2, 59, 49
5, 18580, Note_on_c, 2, 59, 0
5, 18584, Note_on_c, 2, 55, 0
5, 18660, Note_on_c, 2, 62, 89
5, 18660, Note_on_c, 2, 59, 89
5, 18660, Note_on_c, 2, 55, 89
5, 18680, Note_on_c, 2, 55, 0
5, 18680, Note_on_c, 2, 59, 0
5, 18680, Note_on_c, 2, 62, 0
5, 18690, Note_on_c, 2, 59, 72
5, 18690, Note_on_c, 2, 55, 64
5, 18700, Note_on_c, 2, 59, 0
5, 18705, Note_on_c, 2, 55, 0
5, 18780, Note_on_c, 2, 64, 87
5, 18780, Note_on_c, 2, 60, 87
5, 18780, Note_on_c, 2, 57, 87
5, 18798, Note_on_c, 2, 57, 0
5, 18798, Note_on_c, 2, 60, 0
5, 18798, Note_on_c, 2, 64, 0
5, 18810, Note_on_c, 2, 60, 59
5, 18810, Note_on_c, 2, 57, 68
5, 18821, Note_on_c, 2, 60, 0
5, 18827, Note_on_c, 2, 57, 0
5, 18870, Note_on_c, 2, 60, 68
5, 18870, Note_on_c, 2, 57, 52
5, 18878, Note_on_c, 2, 60, 0
5, 18884, Note_on_c, 2, 57, 0
5, 18900, Note_on_c, 2, 64, 85
5, 18900, Note_on_c, 2, 60, 85
5, 18900, Note_on_c, 2, 57, 85
5, 18919, Note_on_c, 2, 57, 0
5, 18919, Note_on_c, 2, 60, 0
5, 18919, Note_on_c, 2, 64, 0
5, 19020, Note_on_c, 2, 65, 91
5, 19020, Note_on_c, 2, 60, 91
5, 19020, Note_on_c, 2, 57, 91
5, 19042, Note_on_c, 2, 57, 0
5, 19042, Note_on_c, 2, 60, 0
5, 19042, Note_on_c, 2, 65, 0
5, 19050, Note_on_c, 2, 65, 59
5, 19050, Note_on_c, 2, 69, 49
5, 19060, Note_on_c, 2, 69, 0
5, 19064, Note_on_c, 2, 65, 0
5, 19140, Note_on_c, 2, 65, 89
5, 19140, Note_on_c, 2, 60, 89
5, 19140, Note_on_c, 2, 57, 89
5, 19160, Note_on_c, 2, 57, 0
5, 19160, Note_on_c, 2, 60, 0
5, 19160, Note_on_c, 2, 65, 0
5, 19170, Note_on_c, 2, 69, 72
5, 19170, Note_on_c, 2, 65, 64
5, 19180, Note_on_c, 2, 69, 0
5, 19185, Note_on_c, 2, 65, 0
5, 19260, Note_on_c, 2, 64, 82
5, 19260, Note_on_c, 2, 60, 82
5, 19260, Note_on_c, 2, 55, 82
5, 19279, Note_on_c, 2, 55, 0
5, 19279, Note_on_c, 2, 60, 0
5, 19279, Note_on_c, 2, 64, 0
5, 19290, Note_on_c, 2, 64, 72
5, 19290, Note_on_c, 2, 60, 72
5, 19290, Note_on_c, 2, 55, 72
5, 19307, Note_on_c, 2, 55, 0
5, 19307, Note_on_c, 2, 60, 0
5, 19307, Note_on_c, 2, 64, 0
5, 19350, Note_on_c, 2, 67, 61
5, 19350, Note_on_c, 2, 64, 54
5, 19350, Note_on_c, 2, 60, 47
5, 19362, Note_on_c, 2, 60, 0
5, 19362, Note_on_c, 2, 67, 0
5, 19366, Note_on_c, 2, 64, 0
5, 19380, Note_on_c, 2, 64, 80
5, 19380, Note_on_c, 2, 60, 80
5, 19380, Note_on_c, 2, 55, 80
5, 19403, Note_on_c, 2, 55, 0
5, 19403, Note_on_c, 2, 60, 0
5, 19403, Note_on_c, 2, 64, 0
5, 19500, Note_on_c, 2, 62, 82
5, 19500, Note_on_c, 2, 59, 82
5, 19500, Note_on_c, 2, 55, 82
5, 19519, Note_on_c, 2, 55, 0
5, 19519, Note_on_c, 2, 59, 0
5, 19519, Note_on_c, 2, 62, 0
5, 19530, Note_on_c, 2, 62, 72
5, 19530, Note_on_c, 2, 59, 72
5, 19530, Note_on_c, 2, 55, 72
5, 19547, Note_on_c, 2, 55, 0
5, 19547, Note_on_c, 2, 59, 0
5, 19547, Note_on_c, 2, 62, 0
5, 19590, Note_on_c, 2, 62, 61
5, 19590, Note_on_c, 2, 59, 54
5, 19590, Note_on_c, 2, 55, 47
5, 19602, Note_on_c, 2, 55, 0
5, 19602, Note_on_c, 2, 62, 0
5, 19606, Note_on_c, 2, 59, 0
5, 19620, Note_on_c, 2, 62, 80
5, 19620, Note_on_c, 2, 59, 80
5, 19620, Note_on_c, 2, 55, 80
5, 19643, Note_on_c, 2, 55, 0
5, 19643, Note_on_c, 2, 59, 0
5, 19643, Note_on_c, 2, 62, 0
5, 19740, Note_on_c, 2, 64, 89
5, 19740, Note_on_c, 2, 60, 89
5, 19740, Note_on_c, 2, 55, 89
5, 19762, Note_on_c, 2, 55, 0
5, 19762, Note_on_c, 2, 60, 0
5, 19762, Note_on_c, 2, 64, 0
5, 19770, Note_on_c, 2, 64, 70
5, 19770, Note_on_c, 2, 60, 60
5, 19783, Note_on_c, 2, 64, 0
5, 19789, Note_on_c, 2, 60, 0
5, 19860, Note_on_c, 2, 64, 91
5, 19860, Note_on_c, 2, 60, 91
5, 19860, Note_on_c, 2, 55, 91
5, 19878, Note_on_c, 2, 55, 0
5, 19878, Note_on_c, 2, 60, 0
5, 19878, Note_on_c, 2, 64, 0
5, 19980, Note_on_c, 2, 64, 89
5, 19980, Note_on_c, 2, 60, 89
5, 19980, Note_on_c, 2, 55, 89
5, 20004, Note_on_c, 2, 55, 0
5, 20004, Note_on_c, 2, 60, 0
5, 20004, Note_on_c, 2, 64, 0
5, 20010, Note_on_c, 2, 64, 74
5, 20010, Note_on_c, 2, 60, 60
5, 20021, Note_on_c, 2, 60, 0
5, 20021, Note_on_c, 2, 64, 0
5, 20070, Note_on_c, 2, 60, 59
5, 20070, Note_on_c, 2, 64, 53
5, 20076, Note_on_c, 2, 64, 0
5, 20080, Note_on_c, 2, 60, 0
5, 20100, Note_on_c, 2, 64, 87
5, 20100, Note_on_c, 2, 60, 87
5, 20100, Note_on_c, 2, 55, 87
5, 20121, Note_on_c, 2, 55, 0
5, 20121, Note_on_c, 2, 60, 0
5, 20121, Note_on_c, 2, 64, 0
5, 20130, Note_on_c, 2, 64, 78
5, 20130, Note_on_c, 2, 60, 78
5, 20130, Note_on_c, 2, 55, 78
5, 20144, Note_on_c, 2, 55, 0
5, 20144, Note_on_c, 2, 60, 0
5, 20144, Note_on_c, 2, 64, 0
5, 20220, Note_on_c, 2, 65, 82
5, 20220, Note_on_c, 2, 60, 82
5, 20220, Note_on_c, 2, 57, 82
5, 20239, Note_on_c, 2, 57, 0
5, 20239, Note_on_c, 2, 60, 0
5, 20239, Note_on_c, 2, 65, 0
5, 20250, Note_on_c, 2, 65, 72
5, 20250, Note_on_c, 2, 60, 72
5, 20250, Note_on_c, 2, 57, 72
5, 20267, Note_on_c, 2, 57, 0
5, 20267, Note_on_c, 2, 60, 0
5, 20267, Note_on_c, 2, 65, 0
5, 20310, Note_on_c, 2, 72, 61
5, 20310, Note_on_c, 2, 69, 54
5, 20310, Note_on_c, 2, 65, 47
5, 20322, Note_on_c, 2, 65, 0
5, 20322, Note_on_c, 2, 72, 0
5, 20326, Note_on_c, 2, 69, 0
5, 20340, Note_on_c, 2, 65, 80
5, 20340, Note_on_c, 2, 60, 80
5, 20340, Note_on_c, 2, 57, 80
5, 20363, Note_on_c, 2, 57, 0
5, 20363, Note_on_c, 2, 60, 0
5, 20363, Note_on_c, 2, 65, 0
5, 20460, Note_on_c, 2, 62, 91
5, 20460, Note_on_c, 2, 59, 91
5, 20460, Note_on_c, 2, 55, 91
5, 20482, Note_on_c, 2, 55, 0
5, 20482, Note_on_c, 2, 59, 0
5, 20482, Note_on_c, 2, 62, 0
5, 20490, Note_on_c, 2, 55, 59
5, 20490, Note_on_c, 2, 59, 49
5, 20500, Note_on_c, 2, 59, 0
5, 20504, Note_on_c, 2, 55, 0
5, 20580, Note_on_c, 2, 62, 89
5, 20580, Note_on_c, 2, 59, 89
5, 20580, Note_on_c, 2, 55, 89
5, 20600, Note_on_c, 2, 55, 0
5, 20600, Note_on_c, 2, 59, 0
5, 20600, Note_on_c, 2, 62, 0
5, 20610, Note_on_c, 2, 59, 72
5, 20610, Note_on_c, 2, 55, 64
5, 20620, Note_on_c, 2, 59, 0
5, 20625, Note_on_c, 2, 55, 0
5, 20700, Note_on_c, 2, 64, 87
5, 20700, Note_on_c, 2, 60, 87
5, 20700, Note_on_c, 2, 57, 87
5, 20718, Note_on_c, 2, 57, 0
5, 20718, Note_on_c, 2, 60, 0
5, 20718, Note_on_c, 2, 64, 0
5, 20730, Note_on_c, 2, 60, 59
5, 20730, Note_on_c, 2, 57, 68
5, 20741, Note_on_c, 2, 60, 0
5, 20747, Note_on_c, 2, 57, 0
5, 20790, Note_on_c, 2, 60, 68
5, 20790, Note_on_c, 2, 57, 52
5, 20798, Note_on_c, 2, 60, 0
5, 20804, Note_on_c, 2, 57, 0
5, 20820, Note_on_c, 2, 64, 85
5, 20820, Note_on_c, 2, 60, 85
5, 20820, Note_on_c, 2, 57, 85
5, 20839, Note_on_c, 2, 57, 0
5, 20839, Note_on_c, 2, 60, 0
5, 20839, Note_on_c, 2, 64, 0
5, 20940, Note_on_c, 2, 65, 91
5, 20940, Note_on_c, 2, 60, 91
5, 20940, Note_on_c, 2, 57, 91
5, 20962, Note_on_c, 2, 57, 0
5, 20962, Note_on_c, 2, 60, 0
5, 20962, Note_on_c, 2, 65, 0
5, 20970, Note_on_c, 2, 65, 59
5, 20970, Note_on_c, 2, 69, 49
5, 20980, Note_on_c, 2, 69, 0
5, 20984, Note_on_c, 2, 65, 0
5, 21060, Note_on_c, 2, 65, 89
5, 21060, Note_on_c, 2, 60, 89
5, 21060, Note_on_c, 2, 57, 89
5, 21080, Note_on_c, 2, 57, 0
5, 21080, Note_on_c, 2, 60, 0
5, 21080, Note_on_c, 2, 65, 0
5, 21090, Note_on_c, 2, 69, 72
5, 21090, Note_on_c, 2, 65, 64
5, 21100, Note_on_c, 2, 69, 0
5, 21105, Note_on_c, 2, 65, 0
5, 21180, Note_on_c, 2, 64, 82
5, 21180, Note_on_c, 2, 60, 82
5, 21180, Note_on_c, 2, 55, 82
5, 21199, Note_on_c, 2, 55, 0
5, 21199, Note_on_c, 2, 60, 0
5, 21199, Note_on_c, 2, 64, 0
5, 21210, Note_on_c, 2, 64, 72
5, 21210, Note_on_c, 2, 60, 72
5, 21210, Note_on_c, 2, 55, 72
5, 21227, Note_on_c, 2, 55, 0
5, 21227, Note_on_c, 2, 60, 0
5, 21227, Note_on_c, 2, 64, 0
5, 21270, Note_on_c, 2, 67, 61
5, 21270, Note_on_c, 2, 64, 54
5, 21270, Note_on_c, 2, 60, 47
5, 21282, Note_on_c, 2, 60, 0
5, 21282, Note_on_c, 2, 67, 0
5, 21286, Note_on_c, 2, 64, 0
5, 21300, Note_on_c, 2, 64, 80
5, 21300, Note_on_c, 2, 60, 80
5, 21300, Note_on_c, 2, 55, 80
5, 21323, Note_on_c, 2, 55, 0
5, 21323, Note_on_c, 2, 60, 0
5, 21323, Note_on_c, 2, 64, 0
5, 21420, Note_on_c, 2, 62, 82
5, 21420, Note_on_c, 2, 59, 82
5, 21420, Note_on_c, 2, 55, 82
5, 21439, Note_on_c, 2, 55, 0
5, 21439, Note_on_c, 2, 59, 0
5, 21439, Note_on_c, 2, 62, 0
5, 21450, Note_on_c, 2, 62, 72
5, 21450, Note_on_c, 2, 59, 72
5, 21450, Note_on_c, 2, 55, 72
5, 21467, Note_on_c, 2, 55, 0
5, 21467, Note_on_c, 2, 59, 0
5, 21467, Note_on_c, 2, 62, 0
5, 21510, Note_on_c, 2, 62, 61
5, 21510, Note_on_c, 2, 59, 54
5, 21510, Note_on_c, 2, 55, 47
5, 21522, Note_on_c, 2, 55, 0
5, 21522, Note_on_c, 2, 62, 0
5, 21526, Note_on_c, 2, 59, 0
5, 21540, Note_on_c, 2, 62, 80
5, 21540, Note_on_c, 2, 59, 80
5, 21540, Note_on_c, 2, 55, 80
5, 21563, Note_on_c, 2, 55, 0
5, 21563, Note_on_c, 2, 59, 0
5, 21563, Note_on_c, 2, 62, 0
5, 21660, Note_on_c, 2, 64, 89
5, 21660, Note_on_c, 2, 60, 89
5, 21660, Note_on_c, 2, 55, 89
5, 21682, Note_on_c, 2, 55, 0
5, 21682, Note_on_c, 2, 60, 0
5, 21682, Note_on_c, 2, 64, 0
5, 21690, Note_on_c, 2, 64, 70
5, 21690, Note_on_c, 2, 60, 60
5, 21703, Note_on_c, 2, 64, 0
5, 21709, Note_on_c, 2, 60, 0
5, 21780, Note_on_c, 2, 64, 91
5, 21780, Note_on_c, 2, 60, 91
5, 21780, Note_on_c, 2, 55, 91
5, 21798, Note_on_c, 2, 55, 0
5, 21798, Note_on_c, 2, 60, 0
5, 21798, Note_on_c, 2, 64, 0
5, 21900, Note_on_c, 2, 64, 89
5, 21900, Note_on_c, 2, 60, 89
5, 21900, Note_on_c, 2, 55, 89
5, 21924, Note_on_c, 2, 55, 0
5, 21924, Note_on_c, 2, 60, 0
5, 21924, Note_on_c, 2, 64, 0
5, 21930, Note_on_c, 2, 64, 74
5, 21930, Note_on_c, 2, 60, 60
5, 21941, Note_on_c, 2, 60, 0
5, 21941, Note_on_c, 2, 64, 0
5, 21990, Note_on_c, 2, 60, 59
5, 21990, Note_on_c, 2, 64, 53
5, 21996, Note_on_c, 2, 64, 0
5, 22000, Note_on_c, 2, 60, 0
5, 22020, Note_on_c, 2, 64, 87
5, 22020, Note_on_c, 2, 60, 87
5, 22020, Note_on_c, 2, 55, 87
5, 22041, Note_on_c, 2, 55, 0
5, 22041, Note_on_c, 2, 60, 0
5, 22041, Note_on_c, 2, 64, 0
5, 22050, Note_on_c, 2, 64, 78
5, 22050, Note_on_c, 2, 60, 78
5, 22050, Note_on_c, 2, 55, 78
5, 22064, Note_on_c, 2, 55, 0
5, 22064, Note_on_c, 2, 60, 0
5, 22064, Note_on_c, 2, 64, 0
5, 22140, Note_on_c, 2, 65, 82
5, 22140, Note_on_c, 2, 60, 82
5, 22140, Note_on_c, 2, 57, 82
5, 22159, Note_on_c, 2, 57, 0
5, 22159, Note_on_c, 2, 60, 0
5, 22159, Note_on_c, 2, 65, 0
5, 22170, Note_on_c, 2, 65, 72
5, 22170, Note_on_c, 2, 60, 72
5, 22170, Note_on_c, 2, 57, 72
5, 22187, Note_on_c, 2, 57, 0
5, 22187, Note_on_c, 2, 60, 0
5, 22187, Note_on_c, 2, 65, 0
5, 22230, Note_on_c, 2, 72, 61
5, 22230, Note_on_c, 2, 69, 54
5, 22230, Note_on_c, 2, 65, 47
5, 22242, Note_on_c, 2, 65, 0
5, 22242, Note_on_c, 2, 72, 0
5, 22246, Note_on_c, 2, 69, 0
5, 22260, Note_on_c, 2, 65, 80
5, 22260, Note_on_c, 2, 60, 80
5, 22260, Note_on_c, 2, 57, 80
5, 22283, Note_on_c, 2, 57, 0
5, 22283, Note_on_c, 2, 60, 0
5, 22283, Note_on_c, 2, 65, 0
5, 22380, Note_on_c, 2, 62, 91
5, 22380, Note_on_c, 2, 59, 91
5, 22380, Note_on_c, 2, 55, 91
5, 22402, Note_on_c, 2, 55, 0
5, 22402, Note_on_c, 2, 59, 0
5, 22402, Note_on_c, 2, 62, 0
5, 22410, Note_on_c, 2, 55, 59
5, 22410, Note_on_c, 2, 59, 49
5, 22420, Note_on_c, 2, 59, 0
5, 22424, Note_on_c, 2, 55, 0
5, 22500, Note_on_c, 2, 62, 89
5, 22500, Note_on_c, 2, 59, 89
5, 22500, Note_on_c, 2, 55, 89
5, 22520, Note_on_c, 2, 55, 0
5, 22520, Note_on_c, 2, 59, 0
5, 22520, Note_on_c, 2, 62, 0
5, 22530, Note_on_c, 2, 59, 72
5, 22530, Note_on_c, 2, 55, 64
5, 22540, Note_on_c, 2, 59, 0
5, 22545, Note_on_c, 2, 55, 0
5, 22620, Note_on_c, 2, 64, 87
5, 22620, Note_on_c, 2, 60, 87
5, 22620, Note_on_c, 2, 57, 87
5, 22638, Note_on_c, 2, 57, 0
5, 22638, Note_on_c, 2, 60, 0
5, 22638, Note_on_c, 2, 64, 0
5, 22650, Note_on_c, 2, 60, 59
5, 22650, Note_on_c, 2, 57, 68
5, 22661, Note_on_c, 2, 60, 0
5, 22667, Note_on_c, 2, 57, 0
5, 22710, Note_on_c, 2, 60, 68
5, 22710, Note_on_c, 2, 57, 52
5, 22718, Note_on_c, 2, 60, 0
5, 22724, Note_on_c, 2, 57, 0
5, 22740, Note_on_c, 2, 64, 85
5, 22740, Note_on_c, 2, 60, 85
5, 22740, Note_on_c, 2, 57, 85
5, 22759, Note_on_c, 2, 57, 0
5, 22759, Note_on_c, 2, 60, 0
5, 22759, Note_on_c, 2, 64, 0
5, 22860, Note_on_c, 2, 65, 91
5, 22860, Note_on_c, 2, 60, 91
5, 22860, Note_on_c, 2, 57, 91
5, 22882, Note_on_c, 2, 57, 0
5, 22882, Note_on_c, 2, 60, 0
5, 22882, Note_on_c, 2, 65, 0
5, 22890, Note_on_c, 2, 65, 59
5, 22890, Note_on_c, 2, 69, 49
5, 22900, Note_on_c, 2, 69, 0
5, 22904, Note_on_c, 2, 65, 0
5, 22980, Note_on_c, 2, 65, 89
5, 22980, Note_on_c, 2, 60, 89
5, 22980, Note_on_c, 2, 57, 89
5, 23000, Note_on_c, 2, 57, 0
5, 23000, Note_on_c, 2, 60, 0
5, 23000, Note_on_c, 2, 65, 0
5, 23010, Note_on_c, 2, 69, 72
5, 23010, Note_on_c, 2, 65, 64
5, 23020, Note_on_c, 2, 69, 0
5, 23025, Note_on_c, 2, 65, 0
5, 23100, Note_on_c, 2, 64, 82
5, 23100, Note_on_c, 2, 60, 82
5, 23100, Note_on_c, 2, 55, 82
5, 23119, Note_on_c, 2, 55, 0
5, 23119, Note_on_c, 2, 60, 0
5, 23119, Note_on_c, 2, 64, 0
5, 23130, Note_on_c, 2, 64, 72
5, 23130, Note_on_c, 2, 60, 72
5, 23130, Note_on_c, 2, 55, 72
5, 23147, Note_on_c, 2, 55, 0
5, 23147, Note_on_c, 2, 60, 0
5, 23147, Note_on_c, 2, 64, 0
5, 23190, Note_on_c, 2, 67, 61
5, 23190, Note_on_c, 2, 64, 54
5, 23190, Note_on_c, 2, 60, 47
5, 23202, Note_on_c, 2, 60, 0
5, 23202, Note_on_c, 2, 67, 0
5, 23206, Note_on_c, 2, 64, 0
5, 23220, Note_on_c, 2, 64, 80
5, 23220, Note_on_c, 2, 60, 80
5, 23220, Note_on_c, 2, 55, 80
5, 23243, Note_on_c, 2, 55, 0
5, 23243, Note_on_c, 2, 60, 0
5, 23243, Note_on_c, 2, 64, 0
5, 23340, Note_on_c, 2, 62, 82
5, 23340, Note_on_c, 2, 59, 82
5, 23340, Note_on_c, 2, 55, 82
5, 23359, Note_on_c, 2, 55, 0
5, 23359, Note_on_c, 2, 59, 0
5, 23359, Note_on_c, 2, 62, 0
5, 23370, Note_on_c, 2, 62, 72
5, 23370, Note_on_c, 2, 59, 72
5, 23370, Note_on_c, 2, 55, 72
5, 23387, Note_on_c, 2, 55, 0
5, 23387, Note_on_c, 2, 59, 0
5, 23387, Note_on_c, 2, 62, 0
5, 23430, Note_on_c, 2, 62, 61
5, 23430, Note_on_c, 2, 59, 54
5, 23430, Note_on_c, 2, 55, 47
5, 23442, Note_on_c, 2, 55, 0
5, 23442, Note_on_c, 2, 62, 0
5, 23446, Note_on_c, 2, 59, 0
5, 23460, Note_on_c, 2, 62, 80
5, 23460, Note_on_c, 2, 59, 80
5, 23460, Note_on_c, 2, 55, 80
5, 23483, Note_on_c, 2, 55, 0
5, 23483, Note_on_c, 2, 59, 0
5, 23483, Note_on_c, 2, 62, 0
5, 23580, Note_on_c, 2, 64, 89
5, 23580, Note_on_c, 2, 60, 89
5, 23580, Note_on_c, 2, 55, 89
5, 23602, Note_on_c, 2, 55, 0
5, 23602, Note_on_c, 2, 60, 0
5, 23602, Note_on_c, 2, 64, 0
5, 23610, Note_on_c, 2, 64, 70
5, 23610, Note_on_c, 2, 60, 60
5, 23623, Note_on_c, 2, 64, 0
5, 23629, Note_on_c, 2, 60, 0
5, 23700, Note_on_c, 2, 64, 91
5, 23700, Note_on_c, 2, 60, 91
5, 23700, Note_on_c, 2, 55, 91
5, 23718, Note_on_c, 2, 55, 0
5, 23718, Note_on_c, 2, 60, 0
5, 23718, Note_on_c, 2, 64, 0
5, 23820, Note_on_c, 2, 64, 89
5, 23820, Note_on_c, 2, 60, 89
5, 23820, Note_on_c, 2, 55, 89
5, 23844, Note_on_c, 2, 55, 0
5, 23844, Note_on_c, 2, 60, 0
5, 23844, Note_on_c, 2, 64, 0
5, 23850, Note_on_c, 2, 64, 74
5, 23850, Note_on_c, 2, 60, 60
5, 23861, Note_on_c, 2, 60, 0
5, 23861, Note_on_c, 2, 64, 0
5, 23910, Note_on_c, 2, 60, 59
5, 23910, Note_on_c, 2, 64, 53
5, 23916, Note_on_c, 2, 64, 0
5, 23920, Note_on_c, 2, 60, 0
5, 23940, Note_on_c, 2, 64, 87
5, 23940, Note_on_c, 2, 60, 87
5, 23940, Note_on_c, 2, 55, 87
5, 23961, Note_on_c, 2, 55, 0
5, 23961, Note_on_c, 2, 60, 0
5, 23961, Note_on_c, 2, 64, 0
5, 23970, Note_on_c, 2, 64, 78
5, 23970, Note_on_c, 2, 60, 78
5, 23970, Note_on_c, 2, 55, 78
5, 23984, Note_on_c, 2, 55, 0
5, 23984, Note_on_c, 2, 60, 0
5, 23984, Note_on_c, 2, 64, 0
5, 23984, End_track
6, 0, Start_track
6, 0, MIDI_port, 0
6, 0, Title_t, "Melody"
6, 0, Program_c, 3, 50
6, 0, Control_c, 3, 7, 127
6, 0, Control_c, 3, 10, 64
6, 0, Note_on_c, 3, 60, 100
6, 0, Note_on_c, 3, 55, 100
6, 0, Note_on_c, 3, 52, 100
6, 239, Note_on_c, 3, 52, 0
6, 239, Note_on_c, 3, 55, 0
6, 239, Note_on_c, 3, 60, 0
6, 240, Note_on_c, 3, 67, 100
6, 240, Note_on_c, 3, 59, 100
6, 240, Note_on_c, 3, 62, 100
6, 480, Note_on_c, 3, 67, 0
6, 480, Note_on_c, 3, 52, 100
6, 480, Note_on_c, 3, 60, 100
6, 480, Note_on_c, 3, 55, 100
6, 484, Note_on_c, 3, 59, 0
6, 488, Note_on_c, 3, 62, 0
6, 720, Note_on_c, 3, 52, 0
6, 720, Note_on_c, 3, 43, 100
6, 839, Note_on_c, 3, 60, 0
6, 840, Note_on_c, 3, 62, 100
6, 899, Note_on_c, 3, 62, 0
6, 900, Note_on_c, 3, 64, 100
6, 959, Note_on_c, 3, 64, 0
6, 960, Note_on_c, 3, 43, 0
6, 960, Note_on_c, 3, 55, 0
6, 960, Note_on_c, 3, 41, 100
6, 960, Note_on_c, 3, 65, 100
6, 960, Note_on_c, 3, 60, 100
6, 960, Note_on_c, 3, 57, 100
6, 1199, Note_on_c, 3, 57, 0
6, 1199, Note_on_c, 3, 60, 0
6, 1199, Note_on_c, 3, 65, 0
6, 1200, Note_on_c, 3, 41, 0
6, 1200, Note_on_c, 3, 64, 100
6, 1200, Note_on_c, 3, 59, 100
6, 1200, Note_on_c, 3, 55, 100
6, 1439, Note_on_c, 3, 55, 0
6, 1439, Note_on_c, 3, 59, 0
6, 1439, Note_on_c, 3, 64, 0
6, 1440, Note_on_c, 3, 43, 100
6, 1440, Note_on_c, 3, 59, 100
6, 1440, Note_on_c, 3, 55, 100
6, 1440, Note_on_c, 3, 62, 100
6, 1859, Note_on_c, 3, 62, 0
6, 1859, Note_on_c, 3, 55, 0
6, 1859, Note_on_c, 3, 59, 0
6, 1860, Note_on_c, 3, 55, 100
6, 1919, Note_on_c, 3, 55, 0
6, 1920, Note_on_c, 3, 43, 0
6, 1920, Note_on_c, 3, 57, 100
6, 1920, Note_on_c, 3, 53, 100
6, 2159, Note_on_c, 3, 53, 0
6, 2159, Note_on_c, 3, 57, 0
6, 2160, Note_on_c, 3, 59, 100
6, 2160, Note_on_c, 3, 55, 100
6, 2310, Note_on_c, 3, 59, 0
6, 2310, Note_on_c, 3, 57, 100
6, 2340, Note_on_c, 3, 57, 0
6, 2340, Note_on_c, 3, 59, 100
6, 2399, Note_on_c, 3, 55, 0
6, 2400, Note_on_c, 3, 59, 0
6, 2400, Note_on_c, 3, 57, 100
6, 2400, Note_on_c, 3, 60, 100
6, 2400, Note_on_c, 3, 52, 100
6, 2639, Note_on_c, 3, 52, 0
6, 2639, Note_on_c, 3, 60, 0
6, 2639, Note_on_c, 3, 57, 0
6, 2640, Note_on_c, 3, 57, 100
6, 2640, Note_on_c, 3, 53, 100
6, 2640, Note_on_c, 3, 62, 100
6, 2730, Note_on_c, 3, 62, 0
6, 2730, Note_on_c, 3, 64, 100
6, 2820, Note_on_c, 3, 64, 0
6, 2820, Note_on_c, 3, 65, 100
6, 2879, Note_on_c, 3, 53, 0
6, 2879, Note_on_c, 3, 57, 0
6, 2880, Note_on_c, 3, 65, 0
6, 2880, Note_on_c, 3, 60, 100
6, 2880, Note_on_c, 3, 64, 100
6, 2880, Note_on_c, 3, 55, 100
6, 3119, Note_on_c, 3, 55, 0
6, 3119, Note_on_c, 3, 64, 0
6, 3119, Note_on_c, 3, 60, 0
6, 3120, Note_on_c, 3, 59, 100
6, 3120, Note_on_c, 3, 55, 100
6, 3120, Note_on_c, 3, 62, 100
6, 3359, Note_on_c, 3, 62, 0
6, 3359, Note_on_c, 3, 55, 0
6, 3359, Note_on_c, 3, 59, 0
6, 3360, Note_on_c, 3, 55, 100
6, 3360, Note_on_c, 3, 60, 100
6, 3360, Note_on_c, 3, 52, 100
6, 3839, Note_on_c, 3, 52, 0
6, 3839, Note_on_c, 3, 60, 0
6, 3839, Note_on_c, 3, 55, 0
6, 3841, Note_on_c, 3, 72, 100
6, 4078, Note_on_c, 3, 79, 100
6, 4088, Note_on_c, 3, 72, 0
6, 4323, Note_on_c, 3, 72, 100
6, 4328, Note_on_c, 3, 79, 0
6, 4678, Note_on_c, 3, 74, 100
6, 4688, Note_on_c, 3, 72, 0
6, 4737, Note_on_c, 3, 76, 100
6, 4745, Note_on_c, 3, 74, 0
6, 4798, Note_on_c, 3, 77, 100
6, 4806, Note_on_c, 3, 76, 0
6, 5040, Note_on_c, 3, 76, 100
6, 5046, Note_on_c, 3, 77, 0
6, 5224, Note_on_c, 3, 74, 100
6, 5227, Note_on_c, 3, 76, 0
6, 5272, Note_on_c, 3, 74, 0
6, 5280, Note_on_c, 3, 74, 100
6, 5699, Note_on_c, 3, 67, 100
6, 5704, Note_on_c, 3, 74, 0
6, 5763, Note_on_c, 3, 69, 100
6, 5769, Note_on_c, 3, 67, 0
6, 5996, Note_on_c, 3, 71, 100
6, 6004, Note_on_c, 3, 69, 0
6, 6153, Note_on_c, 3, 69, 100
6, 6156, Note_on_c, 3, 71, 0
6, 6180, Note_on_c, 3, 71, 100
6, 6187, Note_on_c, 3, 69, 0
6, 6238, Note_on_c, 3, 72, 100
6, 6246, Note_on_c, 3, 71, 0
6, 6478, Note_on_c, 3, 74, 100
6, 6488, Note_on_c, 3, 72, 0
6, 6574, Note_on_c, 3, 76, 100
6, 6582, Note_on_c, 3, 74, 0
6, 6660, Note_on_c, 3, 77, 100
6, 6667, Note_on_c, 3, 76, 0
6, 6723, Note_on_c, 3, 76, 100
6, 6728, Note_on_c, 3, 77, 0
6, 6963, Note_on_c, 3, 74, 100
6, 6968, Note_on_c, 3, 76, 0
6, 7198, Note_on_c, 3, 72, 100
6, 7206, Note_on_c, 3, 74, 0
6, 7680, Note_on_c, 3, 64, 100
6, 7683, Note_on_c, 3, 72, 0
6, 7763, Note_on_c, 3, 69, 100
6, 7769, Note_on_c, 3, 64, 0
6, 7825, Note_on_c, 3, 72, 100
6, 7830, Note_on_c, 3, 69, 0
6, 7868, Note_on_c, 3, 76, 100
6, 7875, Note_on_c, 3, 72, 0
6, 7920, Note_on_c, 3, 74, 100
6, 7928, Note_on_c, 3, 76, 0
6, 8158, Note_on_c, 3, 64, 100
6, 8164, Note_on_c, 3, 74, 0
6, 8241, Note_on_c, 3, 69, 100
6, 8249, Note_on_c, 3, 64, 0
6, 8305, Note_on_c, 3, 72, 100
6, 8310, Note_on_c, 3, 69, 0
6, 8355, Note_on_c, 3, 76, 100
6, 8358, Note_on_c, 3, 72, 0
6, 8400, Note_on_c, 3, 74, 100
6, 8406, Note_on_c, 3, 76, 0
6, 8640, Note_on_c, 3, 64, 100
6, 8646, Note_on_c, 3, 74, 0
6, 8720, Note_on_c, 3, 69, 100
6, 8726, Note_on_c, 3, 64, 0
6, 8780, Note_on_c, 3, 72, 100
6, 8790, Note_on_c, 3, 69, 0
6, 8830, Note_on_c, 3, 76, 100
6, 8833, Note_on_c, 3, 72, 0
6, 8872, Note_on_c, 3, 74, 100
6, 8876, Note_on_c, 3, 76, 0
6, 9116, Note_on_c, 3, 72, 100
6, 9123, Note_on_c, 3, 74, 0
6, 9161, Note_on_c, 3, 72, 0
6, 9177, Note_on_c, 3, 72, 100
6, 9416, Note_on_c, 3, 69, 100
6, 9420, Note_on_c, 3, 72, 0
6, 9475, Note_on_c, 3, 72, 100
6, 9476, Note_on_c, 3, 69, 0
6, 9539, Note_on_c, 3, 69, 100
6, 9548, Note_on_c, 3, 72, 0
6, 9598, Note_on_c, 3, 67, 100
6, 9604, Note_on_c, 3, 69, 0
6, 10075, Note_on_c, 3, 67, 0
6, 10081, Note_on_c, 3, 72, 100
6, 10318, Note_on_c, 3, 79, 100
6, 10328, Note_on_c, 3, 72, 0
6, 10563, Note_on_c, 3, 72, 100
6, 10568, Note_on_c, 3, 79, 0
6, 10918, Note_on_c, 3, 74, 100
6, 10928, Note_on_c, 3, 72, 0
6, 10977, Note_on_c, 3, 76, 100
6, 10985, Note_on_c, 3, 74, 0
6, 11038, Note_on_c, 3, 77, 100
6, 11046, Note_on_c, 3, 76, 0
6, 11280, Note_on_c, 3, 76, 100
6, 11286, Note_on_c, 3, 77, 0
6, 11464, Note_on_c, 3, 74, 100
6, 11467, Note_on_c, 3, 76, 0
6, 11512, Note_on_c, 3, 74, 0
6, 11520, Note_on_c, 3, 74, 100
6, 11939, Note_on_c, 3, 67, 100
6, 11944, Note_on_c, 3, 74, 0
6, 12003, Note_on_c, 3, 69, 100
6, 12009, Note_on_c, 3, 67, 0
6, 12236, Note_on_c, 3, 71, 100
6, 12244, Note_on_c, 3, 69, 0
6, 12393, Note_on_c, 3, 69, 100
6, 12396, Note_on_c, 3, 71, 0
6, 12420, Note_on_c, 3, 71, 100
6, 12427, Note_on_c, 3, 69, 0
6, 12478, Note_on_c, 3, 72, 100
6, 12486, Note_on_c, 3, 71, 0
6, 12718, Note_on_c, 3, 74, 100
6, 12728, Note_on_c, 3, 72, 0
6, 12814, Note_on_c, 3, 76, 100
6, 12822, Note_on_c, 3, 74, 0
6, 12900, Note_on_c, 3, 77, 100
6, 12907, Note_on_c, 3, 76, 0
6, 12963, Note_on_c, 3, 76, 100
6, 12968, Note_on_c, 3, 77, 0
6, 13203, Note_on_c, 3, 74, 100
6, 13208, Note_on_c, 3, 76, 0
6, 13438, Note_on_c, 3, 72, 100
6, 13446, Note_on_c, 3, 74, 0
6, 13920, Note_on_c, 3, 64, 100
6, 13923, Note_on_c, 3, 72, 0
6, 14003, Note_on_c, 3, 69, 100
6, 14009, Note_on_c, 3, 64, 0
6, 14065, Note_on_c, 3, 72, 100
6, 14070, Note_on_c, 3, 69, 0
6, 14108, Note_on_c, 3, 76, 100
6, 14115, Note_on_c, 3, 72, 0
6, 14160, Note_on_c, 3, 74, 100
6, 14168, Note_on_c, 3, 76, 0
6, 14398, Note_on_c, 3, 64, 100
6, 14404, Note_on_c, 3, 74, 0
6, 14481, Note_on_c, 3, 69, 100
6, 14489, Note_on_c, 3, 64, 0
6, 14545, Note_on_c, 3, 72, 100
6, 14550, Note_on_c, 3, 69, 0
6, 14595, Note_on_c, 3, 76, 100
6, 14598, Note_on_c, 3, 72, 0
6, 14640, Note_on_c, 3, 74, 100
6, 14646, Note_on_c, 3, 76, 0
6, 14880, Note_on_c, 3, 64, 100
6, 14886, Note_on_c, 3, 74, 0
6, 14960, Note_on_c, 3, 69, 100
6, 14966, Note_on_c, 3, 64, 0
6, 15020, Note_on_c, 3, 72, 100
6, 15030, Note_on_c, 3, 69, 0
6, 15070, Note_on_c, 3, 76, 100
6, 15073, Note_on_c, 3, 72, 0
6, 15112, Note_on_c, 3, 74, 100
6, 15116, Note_on_c, 3, 76, 0
6, 15356, Note_on_c, 3, 72, 100
6, 15363, Note_on_c, 3, 74, 0
6, 15401, Note_on_c, 3, 72, 0
6, 15417, Note_on_c, 3, 72, 100
6, 15656, Note_on_c, 3, 69, 100
6, 15660, Note_on_c, 3, 72, 0
6, 15715, Note_on_c, 3, 72, 100
6, 15716, Note_on_c, 3, 69, 0
6, 15779, Note_on_c, 3, 69, 100
6, 15788, Note_on_c, 3, 72, 0
6, 15838, Note_on_c, 3, 67, 100
6, 15844, Note_on_c, 3, 69, 0
6, 16315, Note_on_c, 3, 67, 0
6, 16321, Note_on_c, 3, 72, 100
6, 16558, Note_on_c, 3, 79, 100
6, 16568, Note_on_c, 3, 72, 0
6, 16803, Note_on_c, 3, 72, 100
6, 16808, Note_on_c, 3, 79, 0
6, 17158, Note_on_c, 3, 74, 100
6, 17168, Note_on_c, 3, 72, 0
6, 17217, Note_on_c, 3, 76, 100
6, 17225, Note_on_c, 3, 74, 0
6, 17278, Note_on_c, 3, 77, 100
6, 17286, Note_on_c, 3, 76, 0
6, 17520, Note_on_c, 3, 76, 100
6, 17526, Note_on_c, 3, 77, 0
6, 17704, Note_on_c, 3, 74, 100
6, 17707, Note_on_c, 3, 76, 0
6, 17752, Note_on_c, 3, 74, 0
6, 17760, Note_on_c, 3, 74, 100
6, 18179, Note_on_c, 3, 67, 100
6, 18184, Note_on_c, 3, 74, 0
6, 18243, Note_on_c, 3, 69, 100
6, 18249, Note_on_c, 3, 67, 0
6, 18476, Note_on_c, 3, 71, 100
6, 18484, Note_on_c, 3, 69, 0
6, 18633, Note_on_c, 3, 69, 100
6, 18636, Note_on_c, 3, 71, 0
6, 18660, Note_on_c, 3, 71, 100
6, 18667, Note_on_c, 3, 69, 0
6, 18718, Note_on_c, 3, 72, 100
6, 18726, Note_on_c, 3, 71, 0
6, 18958, Note_on_c, 3, 74, 100
6, 18968, Note_on_c, 3, 72, 0
6, 19054, Note_on_c, 3, 76, 100
6, 19062, Note_on_c, 3, 74, 0
6, 19140, Note_on_c, 3, 77, 100
6, 19147, Note_on_c, 3, 76, 0
6, 19203, Note_on_c, 3, 76, 100
6, 19208, Note_on_c, 3, 77, 0
6, 19443, Note_on_c, 3, 74, 100
6, 19448, Note_on_c, 3, 76, 0
6, 19678, Note_on_c, 3, 72, 100
6, 19686, Note_on_c, 3, 74, 0
6, 20099, Note_on_c, 3, 67, 100
6, 20163, Note_on_c, 3, 72, 0
6, 20163, Note_on_c, 3, 69, 100
6, 20169, Note_on_c, 3, 67, 0
6, 20396, Note_on_c, 3, 71, 100
6, 20404, Note_on_c, 3, 69, 0
6, 20553, Note_on_c, 3, 69, 100
6, 20556, Note_on_c, 3, 71, 0
6, 20580, Note_on_c, 3, 71, 100
6, 20587, Note_on_c, 3, 69, 0
6, 20638, Note_on_c, 3, 72, 100
6, 20646, Note_on_c, 3, 71, 0
6, 20878, Note_on_c, 3, 74, 100
6, 20888, Note_on_c, 3, 72, 0
6, 20974, Note_on_c, 3, 76, 100
6, 20982, Note_on_c, 3, 74, 0
6, 21060, Note_on_c, 3, 77, 100
6, 21067, Note_on_c, 3, 76, 0
6, 21123, Note_on_c, 3, 76, 100
6, 21128, Note_on_c, 3, 77, 0
6, 21363, Note_on_c, 3, 74, 100
6, 21368, Note_on_c, 3, 76, 0
6, 21598, Note_on_c, 3, 72, 100
6, 21606, Note_on_c, 3, 74, 0
6, 22019, Note_on_c, 3, 67, 100
6, 22083, Note_on_c, 3, 72, 0
6, 22083, Note_on_c, 3, 69, 100
6, 22089, Note_on_c, 3, 67, 0
6, 22316, Note_on_c, 3, 71, 100
6, 22324, Note_on_c, 3, 69, 0
6, 22473, Note_on_c, 3, 69, 100
6, 22476, Note_on_c, 3, 71, 0
6, 22500, Note_on_c, 3, 71, 100
6, 22507, Note_on_c, 3, 69, 0
6, 22558, Note_on_c, 3, 72, 100
6, 22566, Note_on_c, 3, 71, 0
6, 22798, Note_on_c, 3, 74, 100
6, 22808, Note_on_c, 3, 72, 0
6, 22894, Note_on_c, 3, 76, 100
6, 22902, Note_on_c, 3, 74, 0
6, 22980, Note_on_c, 3, 77, 100
6, 22987, Note_on_c, 3, 76, 0
6, 23043, Note_on_c, 3, 76, 100
6, 23048, Note_on_c, 3, 77, 0
6, 23283, Note_on_c, 3, 74, 100
6, 23288, Note_on_c, 3, 76, 0
6, 23518, Note_on_c, 3, 72, 100
6, 23526, Note_on_c, 3, 74, 0
6, 24003, Note_on_c, 3, 72, 0
6, 24003, End_track
7, 0, Start_track
7, 0, MIDI_port, 0
7, 0, Title_t, "Brass Section"
7, 0, Program_c, 4, 61
7, 0, Control_c, 4, 7, 127
7, 0, Control_c, 4, 10, 64
7, 6780, Note_on_c, 4, 60, 100
7, 6809, Note_on_c, 4, 60, 0
7, 6810, Note_on_c, 4, 60, 100
7, 6839, Note_on_c, 4, 60, 0
7, 6840, Note_on_c, 4, 60, 100
7, 6869, Note_on_c, 4, 60, 0
7, 6900, Note_on_c, 4, 60, 100
7, 6929, Note_on_c, 4, 60, 0
7, 6960, Note_on_c, 4, 60, 100
7, 6989, Note_on_c, 4, 60, 0
7, 6990, Note_on_c, 4, 55, 100
7, 7019, Note_on_c, 4, 55, 0
7, 7080, Note_on_c, 4, 55, 100
7, 7169, Note_on_c, 4, 55, 0
7, 7260, Note_on_c, 4, 60, 100
7, 7289, Note_on_c, 4, 60, 0
7, 7290, Note_on_c, 4, 60, 100
7, 7319, Note_on_c, 4, 60, 0
7, 7320, Note_on_c, 4, 60, 100
7, 7349, Note_on_c, 4, 60, 0
7, 7380, Note_on_c, 4, 60, 100
7, 7409, Note_on_c, 4, 60, 0
7, 7440, Note_on_c, 4, 60, 100
7, 7469, Note_on_c, 4, 60, 0
7, 7470, Note_on_c, 4, 55, 100
7, 7499, Note_on_c, 4, 55, 0
7, 7560, Note_on_c, 4, 55, 100
7, 7619, Note_on_c, 4, 55, 0
7, 7976, Note_on_c, 4, 64, 100
7, 8004, Note_on_c, 4, 66, 100
7, 8030, Note_on_c, 4, 64, 0
7, 8036, Note_on_c, 4, 67, 100
7, 8044, Note_on_c, 4, 66, 0
7, 8060, Note_on_c, 4, 67, 0
7, 8454, Note_on_c, 4, 64, 100
7, 8483, Note_on_c, 4, 66, 100
7, 8499, Note_on_c, 4, 64, 0
7, 8516, Note_on_c, 4, 67, 100
7, 8523, Note_on_c, 4, 66, 0
7, 8544, Note_on_c, 4, 67, 0
7, 8937, Note_on_c, 4, 64, 100
7, 8963, Note_on_c, 4, 66, 100
7, 8987, Note_on_c, 4, 64, 0
7, 8993, Note_on_c, 4, 67, 100
7, 9000, Note_on_c, 4, 66, 0
7, 9019, Note_on_c, 4, 67, 0
7, 13020, Note_on_c, 4, 60, 100
7, 13049, Note_on_c, 4, 60, 0
7, 13050, Note_on_c, 4, 60, 100
7, 13079, Note_on_c, 4, 60, 0
7, 13080, Note_on_c, 4, 60, 100
7, 13109, Note_on_c, 4, 60, 0
7, 13140, Note_on_c, 4, 60, 100
7, 13169, Note_on_c, 4, 60, 0
7, 13200, Note_on_c, 4, 60, 100
7, 13229, Note_on_c, 4, 60, 0
7, 13230, Note_on_c, 4, 55, 100
7, 13259, Note_on_c, 4, 55, 0
7, 13320, Note_on_c, 4, 55, 100
7, 13409, Note_on_c, 4, 55, 0
7, 13500, Note_on_c, 4, 60, 100
7, 13529, Note_on_c, 4, 60, 0
7, 13530, Note_on_c, 4, 60, 100
7, 13559, Note_on_c, 4, 60, 0
7, 13560, Note_on_c, 4, 60, 100
7, 13589, Note_on_c, 4, 60, 0
7, 13620, Note_on_c, 4, 60, 100
7, 13649, Note_on_c, 4, 60, 0
7, 13680, Note_on_c, 4, 60, 100
7, 13709, Note_on_c, 4, 60, 0
7, 13710, Note_on_c, 4, 55, 100
7, 13739, Note_on_c, 4, 55, 0
7, 13800, Note_on_c, 4, 55, 100
7, 13859, Note_on_c, 4, 55, 0
7, 14216, Note_on_c, 4, 64, 100
7, 14244, Note_on_c, 4, 66, 100
7, 14270, Note_on_c, 4, 64, 0
7, 14276, Note_on_c, 4, 67, 100
7, 14284, Note_on_c, 4, 66, 0
7, 14300, Note_on_c, 4, 67, 0
7, 14694, Note_on_c, 4, 64, 100
7, 14723, Note_on_c, 4, 66, 100
7, 14739, Note_on_c, 4, 64, 0
7, 14756, Note_on_c, 4, 67, 100
7, 14763, Note_on_c, 4, 66, 0
7, 14784, Note_on_c, 4, 67, 0
7, 15177, Note_on_c, 4, 64, 100
7, 15203, Note_on_c, 4, 66, 100
7, 15227, Note_on_c, 4, 64, 0
7, 15233, Note_on_c, 4, 67, 100
7, 15240, Note_on_c, 4, 66, 0
7, 15259, Note_on_c, 4, 67, 0
7, 19260, Note_on_c, 4, 60, 100
7, 19289, Note_on_c, 4, 60, 0
7, 19290, Note_on_c, 4, 60, 100
7, 19319, Note_on_c, 4, 60, 0
7, 19320, Note_on_c, 4, 60, 100
7, 19349, Note_on_c, 4, 60, 0
7, 19380, Note_on_c, 4, 60, 100
7, 19409, Note_on_c, 4, 60, 0
7, 19440, Note_on_c, 4, 60, 100
7, 19469, Note_on_c, 4, 60, 0
7, 19470, Note_on_c, 4, 55, 100
7, 19499, Note_on_c, 4, 55, 0
7, 19560, Note_on_c, 4, 55, 100
7, 19649, Note_on_c, 4, 55, 0
7, 19740, Note_on_c, 4, 60, 100
7, 19769, Note_on_c, 4, 60, 0
7, 19770, Note_on_c, 4, 60, 100
7, 19799, Note_on_c, 4, 60, 0
7, 19800, Note_on_c, 4, 60, 100
7, 19829, Note_on_c, 4, 60, 0
7, 19860, Note_on_c, 4, 60, 100
7, 19889, Note_on_c, 4, 60, 0
7, 19920, Note_on_c, 4, 60, 100
7, 19949, Note_on_c, 4, 60, 0
7, 19950, Note_on_c, 4, 55, 100
7, 19979, Note_on_c, 4, 55, 0
7, 20040, Note_on_c, 4, 55, 100
7, 20099, Note_on_c, 4, 55, 0
7, 21180, Note_on_c, 4, 60, 100
7, 21209, Note_on_c, 4, 60, 0
7, 21210, Note_on_c, 4, 60, 100
7, 21239, Note_on_c, 4, 60, 0
7, 21240, Note_on_c, 4, 60, 100
7, 21269, Note_on_c, 4, 60, 0
7, 21300, Note_on_c, 4, 60, 100
7, 21329, Note_on_c, 4, 60, 0
7, 21360, Note_on_c, 4, 60, 100
7, 21389, Note_on_c, 4, 60, 0
7, 21390, Note_on_c, 4, 55, 100
7, 21419, Note_on_c, 4, 55, 0
7, 21480, Note_on_c, 4, 55, 100
7, 21569, Note_on_c, 4, 55, 0
7, 21660, Note_on_c, 4, 60, 100
7, 21689, Note_on_c, 4, 60, 0
7, 21690, Note_on_c, 4, 60, 100
7, 21719, Note_on_c, 4, 60, 0
7, 21720, Note_on_c, 4, 60, 100
7, 21749, Note_on_c, 4, 60, 0
7, 21780, Note_on_c, 4, 60, 100
7, 21809, Note_on_c, 4, 60, 0
7, 21840, Note_on_c, 4, 60, 100
7, 21869, Note_on_c, 4, 60, 0
7, 21870, Note_on_c, 4, 55, 100
7, 21899, Note_on_c, 4, 55, 0
7, 21960, Note_on_c, 4, 55, 100
7, 22019, Note_on_c, 4, 55, 0
7, 23100, Note_on_c, 4, 60, 100
7, 23129, Note_on_c, 4, 60, 0
7, 23130, Note_on_c, 4, 60, 100
7, 23159, Note_on_c, 4, 60, 0
7, 23160, Note_on_c, 4, 60, 100
7, 23189, Note_on_c, 4, 60, 0
7, 23220, Note_on_c, 4, 60, 100
7, 23249, Note_on_c, 4, 60, 0
7, 23280, Note_on_c, 4, 60, 100
7, 23309, Note_on_c, 4, 60, 0
7, 23310, Note_on_c, 4, 55, 100
7, 23339, Note_on_c, 4, 55, 0
7, 23400, Note_on_c, 4, 55, 100
7, 23489, Note_on_c, 4, 55, 0
7, 23580, Note_on_c, 4, 60, 100
7, 23609, Note_on_c, 4, 60, 0
7, 23610, Note_on_c, 4, 60, 100
7, 23639, Note_on_c, 4, 60, 0
7, 23640, Note_on_c, 4, 60, 100
7, 23669, Note_on_c, 4, 60, 0
7, 23700, Note_on_c, 4, 60, 100
7, 23729, Note_on_c, 4, 60, 0
7, 23760, Note_on_c, 4, 60, 100
7, 23789, Note_on_c, 4, 60, 0
7, 23790, Note_on_c, 4, 55, 100
7, 23819, Note_on_c, 4, 55, 0
7, 23880, Note_on_c, 4, 55, 100
7, 23939, Note_on_c, 4, 55, 0
7, 23939, End_track
8, 0, Start_track
8, 0, MIDI_port, 0
8, 0, Title_t, "Strings"
8, 0, Program_c, 5, 49
8, 0, Control_c, 5, 7, 80
8, 0, Control_c, 5, 10, 64
8, 7681, Note_on_c, 5, 69, 100
8, 7681, Note_on_c, 5, 60, 100
8, 7681, Note_on_c, 5, 64, 100
8, 7916, Note_on_c, 5, 59, 100
8, 7920, Note_on_c, 5, 67, 100
8, 7923, Note_on_c, 5, 60, 0
8, 7924, Note_on_c, 5, 69, 0
8, 8158, Note_on_c, 5, 69, 100
8, 8160, Note_on_c, 5, 60, 100
8, 8163, Note_on_c, 5, 67, 0
8, 8166, Note_on_c, 5, 59, 0
8, 8400, Note_on_c, 5, 67, 100
8, 8400, Note_on_c, 5, 59, 100
8, 8404, Note_on_c, 5, 60, 0
8, 8409, Note_on_c, 5, 69, 0
8, 8633, Note_on_c, 5, 59, 0
8, 8635, Note_on_c, 5, 69, 100
8, 8638, Note_on_c, 5, 67, 0
8, 8638, Note_on_c, 5, 60, 100
8, 8878, Note_on_c, 5, 67, 100
8, 8880, Note_on_c, 5, 60, 0
8, 8880, Note_on_c, 5, 59, 100
8, 8886, Note_on_c, 5, 69, 0
8, 9116, Note_on_c, 5, 62, 100
8, 9118, Note_on_c, 5, 57, 100
8, 9120, Note_on_c, 5, 65, 100
8, 9123, Note_on_c, 5, 59, 0
8, 9126, Note_on_c, 5, 67, 0
8, 9126, Note_on_c, 5, 64, 0
8, 9356, Note_on_c, 5, 66, 100
8, 9364, Note_on_c, 5, 65, 0
8, 9595, Note_on_c, 5, 67, 100
8, 9598, Note_on_c, 5, 57, 0
8, 9598, Note_on_c, 5, 59, 100
8, 9601, Note_on_c, 5, 66, 0
8, 10070, Note_on_c, 5, 59, 0
8, 10070, Note_on_c, 5, 62, 0
8, 10073, Note_on_c, 5, 67, 0
8, 13921, Note_on_c, 5, 69, 100
8, 13921, Note_on_c, 5, 60, 100
8, 13921, Note_on_c, 5, 64, 100
8, 14156, Note_on_c, 5, 59, 100
8, 14160, Note_on_c, 5, 67, 100
8, 14163, Note_on_c, 5, 60, 0
8, 14164, Note_on_c, 5, 69, 0
8, 14398, Note_on_c, 5, 69, 100
8, 14400, Note_on_c, 5, 60, 100
8, 14403, Note_on_c, 5, 67, 0
8, 14406, Note_on_c, 5, 59, 0
8, 14640, Note_on_c, 5, 67, 100
8, 14640, Note_on_c, 5, 59, 100
8, 14644, Note_on_c, 5, 60, 0
8, 14649, Note_on_c, 5, 69, 0
8, 14873, Note_on_c, 5, 59, 0
8, 14875, Note_on_c, 5, 69, 100
8, 14878, Note_on_c, 5, 67, 0
8, 14878, Note_on_c, 5, 60, 100
8, 15118, Note_on_c, 5, 67, 100
8, 15120, Note_on_c, 5, 60, 0
8, 15120, Note_on_c, 5, 59, 100
8, 15126, Note_on_c, 5, 69, 0
8, 15356, Note_on_c, 5, 62, 100
8, 15358, Note_on_c, 5, 57, 100
8, 15360, Note_on_c, 5, 65, 100
8, 15363, Note_on_c, 5, 59, 0
8, 15366, Note_on_c, 5, 67, 0
8, 15366, Note_on_c, 5, 64, 0
8, 15596, Note_on_c, 5, 66, 100
8, 15604, Note_on_c, 5, 65, 0
8, 15835, Note_on_c, 5, 67, 100
8, 15838, Note_on_c, 5, 57, 0
8, 15838, Note_on_c, 5, 59, 100
8, 15841, Note_on_c, 5, 66, 0
8, 16310, Note_on_c, 5, 59, 0
8, 16310, Note_on_c, 5, 62, 0
8, 16313, Note_on_c, 5, 67, 0
8, 16313, End_track
9, 0, Start_track
9, 0, MIDI_port, 0
9, 0, Title_t, """Can't Help Falling In Love"""
9, 0, End_track
10, 0, Start_track
10, 0, MIDI_port, 0
10, 0, Title_t, "By UB40"
10, 0, End_track
11, 0, Start_track
11, 0, MIDI_port, 0
11, 0, Title_t, "Sequenced by:"
11, 0, End_track
12, 0, Start_track
12, 0, MIDI_port, 0
12, 0, Title_t, "Raphael Pungin"
12, 0, End_track
13, 0, Start_track
13, 0, MIDI_port, 0
13, 0, Title_t, "pungin@cs.uri.edu"
13, 0, End_track
14, 0, Start_track
14, 0, MIDI_port, 0
14, 0, Title_t, "br326@cleveland.freenet.edu"
14, 0, End_track
0, 0, End_of_file
