0, 0, Header, 1, 12, 384
1, 0, Start_track
1, 0, Time_signature, 4, 2, 24, 8
1, 0, Tempo, 555550
1, 198144, End_track
2, 0, Start_track
2, 1536, System_exclusive, 10, 65, 16, 66, 18, 64, 0, 127, 0, 65, 247
2, 1584, System_exclusive, 5, 126, 127, 9, 1, 247
2, 1728, Control_c, 0, 121, 127
2, 1920, Control_c, 0, 0, 0
2, 2112, Program_c, 0, 2
2, 2304, Control_c, 0, 7, 95
2, 2496, Control_c, 0, 10, 64
2, 2688, Control_c, 0, 11, 127
2, 2880, Control_c, 0, 91, 80
2, 3072, Control_c, 0, 93, 5
2, 7680, Note_on_c, 0, 46, 73
2, 7680, Note_on_c, 0, 62, 82
2, 7682, Note_on_c, 0, 60, 82
2, 7682, Note_on_c, 0, 69, 73
2, 7682, Note_on_c, 0, 65, 73
2, 10368, Note_off_c, 0, 62, 82
2, 10370, Note_off_c, 0, 46, 73
2, 10372, Note_off_c, 0, 60, 82
2, 10376, Note_off_c, 0, 69, 73
2, 10380, Note_off_c, 0, 65, 73
2, 10560, Note_on_c, 0, 46, 66
2, 10560, Note_on_c, 0, 65, 91
2, 10562, Note_on_c, 0, 62, 82
2, 10564, Note_on_c, 0, 69, 73
2, 10568, Note_on_c, 0, 60, 82
2, 10596, Note_off_c, 0, 60, 82
2, 10596, Note_off_c, 0, 46, 66
2, 10606, Note_off_c, 0, 69, 73
2, 10610, Note_off_c, 0, 65, 91
2, 10612, Note_off_c, 0, 62, 82
2, 10752, Note_on_c, 0, 45, 73
2, 10752, Note_on_c, 0, 60, 82
2, 10754, Note_on_c, 0, 57, 73
2, 10754, Note_on_c, 0, 67, 82
2, 10754, Note_on_c, 0, 64, 82
2, 12512, Note_off_c, 0, 57, 73
2, 12516, Note_off_c, 0, 64, 82
2, 12520, Note_off_c, 0, 60, 82
2, 12524, Note_off_c, 0, 67, 82
2, 12524, Note_off_c, 0, 45, 73
2, 12664, Note_on_c, 0, 41, 73
2, 12674, Note_on_c, 0, 64, 82
2, 12674, Note_on_c, 0, 55, 73
2, 12674, Note_on_c, 0, 60, 82
2, 12674, Note_on_c, 0, 57, 82
2, 12812, Note_off_c, 0, 57, 82
2, 12812, Note_off_c, 0, 64, 82
2, 12816, Note_off_c, 0, 55, 73
2, 12822, Note_off_c, 0, 60, 82
2, 12838, Note_off_c, 0, 41, 73
2, 12864, Note_on_c, 0, 43, 73
2, 12868, Note_on_c, 0, 57, 73
2, 12870, Note_on_c, 0, 62, 88
2, 12870, Note_on_c, 0, 58, 82
2, 12872, Note_on_c, 0, 65, 84
2, 12912, Note_off_c, 0, 43, 73
2, 12918, Note_off_c, 0, 65, 84
2, 12922, Note_off_c, 0, 62, 88
2, 12930, Note_off_c, 0, 57, 73
2, 12936, Note_off_c, 0, 58, 82
2, 13254, Note_on_c, 0, 45, 73
2, 13258, Note_on_c, 0, 57, 81
2, 13258, Note_on_c, 0, 60, 85
2, 13260, Note_on_c, 0, 67, 90
2, 13260, Note_on_c, 0, 64, 83
2, 13314, Note_off_c, 0, 45, 73
2, 13316, Note_off_c, 0, 57, 81
2, 13320, Note_off_c, 0, 64, 83
2, 13332, Note_off_c, 0, 67, 90
2, 13334, Note_off_c, 0, 60, 85
2, 13824, Note_on_c, 0, 46, 73
2, 13824, Note_on_c, 0, 62, 82
2, 13826, Note_on_c, 0, 60, 82
2, 13826, Note_on_c, 0, 69, 73
2, 13826, Note_on_c, 0, 65, 73
2, 16512, Note_off_c, 0, 62, 82
2, 16514, Note_off_c, 0, 46, 73
2, 16516, Note_off_c, 0, 60, 82
2, 16520, Note_off_c, 0, 69, 73
2, 16524, Note_off_c, 0, 65, 73
2, 16704, Note_on_c, 0, 46, 66
2, 16704, Note_on_c, 0, 65, 91
2, 16706, Note_on_c, 0, 62, 82
2, 16708, Note_on_c, 0, 69, 73
2, 16712, Note_on_c, 0, 60, 82
2, 16730, Note_off_c, 0, 60, 82
2, 16734, Note_off_c, 0, 69, 73
2, 16734, Note_off_c, 0, 62, 82
2, 16738, Note_off_c, 0, 65, 91
2, 16740, Note_off_c, 0, 46, 66
2, 16896, Note_on_c, 0, 45, 73
2, 16896, Note_on_c, 0, 60, 82
2, 16898, Note_on_c, 0, 57, 73
2, 16898, Note_on_c, 0, 67, 82
2, 16898, Note_on_c, 0, 64, 82
2, 18656, Note_off_c, 0, 57, 73
2, 18660, Note_off_c, 0, 64, 82
2, 18664, Note_off_c, 0, 60, 82
2, 18668, Note_off_c, 0, 67, 82
2, 18668, Note_off_c, 0, 45, 73
2, 18808, Note_on_c, 0, 41, 73
2, 18818, Note_on_c, 0, 64, 82
2, 18818, Note_on_c, 0, 55, 73
2, 18818, Note_on_c, 0, 60, 82
2, 18818, Note_on_c, 0, 57, 82
2, 18956, Note_off_c, 0, 57, 82
2, 18956, Note_off_c, 0, 64, 82
2, 18960, Note_off_c, 0, 55, 73
2, 18966, Note_off_c, 0, 60, 82
2, 18982, Note_off_c, 0, 41, 73
2, 19008, Note_on_c, 0, 43, 73
2, 19012, Note_on_c, 0, 57, 73
2, 19014, Note_on_c, 0, 62, 88
2, 19014, Note_on_c, 0, 58, 82
2, 19016, Note_on_c, 0, 65, 84
2, 19056, Note_off_c, 0, 43, 73
2, 19062, Note_off_c, 0, 65, 84
2, 19066, Note_off_c, 0, 62, 88
2, 19074, Note_off_c, 0, 57, 73
2, 19080, Note_off_c, 0, 58, 82
2, 19398, Note_on_c, 0, 45, 68
2, 19402, Note_on_c, 0, 57, 76
2, 19402, Note_on_c, 0, 60, 80
2, 19404, Note_on_c, 0, 67, 85
2, 19404, Note_on_c, 0, 64, 78
2, 19798, Note_off_c, 0, 45, 68
2, 19802, Note_off_c, 0, 60, 80
2, 19802, Note_off_c, 0, 57, 76
2, 19804, Note_off_c, 0, 64, 78
2, 19804, Note_off_c, 0, 67, 85
2, 19968, Note_on_c, 0, 46, 73
2, 19968, Note_on_c, 0, 62, 82
2, 19970, Note_on_c, 0, 60, 82
2, 19970, Note_on_c, 0, 69, 73
2, 19970, Note_on_c, 0, 65, 73
2, 22656, Note_off_c, 0, 62, 82
2, 22658, Note_off_c, 0, 46, 73
2, 22660, Note_off_c, 0, 60, 82
2, 22664, Note_off_c, 0, 69, 73
2, 22668, Note_off_c, 0, 65, 73
2, 22848, Note_on_c, 0, 46, 66
2, 22848, Note_on_c, 0, 65, 91
2, 22850, Note_on_c, 0, 62, 82
2, 22852, Note_on_c, 0, 69, 73
2, 22856, Note_on_c, 0, 60, 82
2, 22874, Note_off_c, 0, 60, 82
2, 22878, Note_off_c, 0, 69, 73
2, 22878, Note_off_c, 0, 62, 82
2, 22882, Note_off_c, 0, 65, 91
2, 22884, Note_off_c, 0, 46, 66
2, 23040, Note_on_c, 0, 45, 73
2, 23040, Note_on_c, 0, 60, 82
2, 23042, Note_on_c, 0, 57, 73
2, 23042, Note_on_c, 0, 67, 82
2, 23042, Note_on_c, 0, 64, 82
2, 24800, Note_off_c, 0, 57, 73
2, 24804, Note_off_c, 0, 64, 82
2, 24808, Note_off_c, 0, 60, 82
2, 24812, Note_off_c, 0, 67, 82
2, 24812, Note_off_c, 0, 45, 73
2, 24952, Note_on_c, 0, 41, 73
2, 24962, Note_on_c, 0, 64, 82
2, 24962, Note_on_c, 0, 55, 73
2, 24962, Note_on_c, 0, 60, 82
2, 24962, Note_on_c, 0, 57, 82
2, 25100, Note_off_c, 0, 57, 82
2, 25100, Note_off_c, 0, 64, 82
2, 25104, Note_off_c, 0, 55, 73
2, 25110, Note_off_c, 0, 60, 82
2, 25126, Note_off_c, 0, 41, 73
2, 25152, Note_on_c, 0, 43, 73
2, 25156, Note_on_c, 0, 57, 73
2, 25158, Note_on_c, 0, 62, 88
2, 25158, Note_on_c, 0, 58, 82
2, 25160, Note_on_c, 0, 65, 84
2, 25200, Note_off_c, 0, 43, 73
2, 25206, Note_off_c, 0, 65, 84
2, 25210, Note_off_c, 0, 62, 88
2, 25218, Note_off_c, 0, 57, 73
2, 25224, Note_off_c, 0, 58, 82
2, 25542, Note_on_c, 0, 45, 68
2, 25546, Note_on_c, 0, 57, 76
2, 25546, Note_on_c, 0, 60, 80
2, 25548, Note_on_c, 0, 67, 85
2, 25548, Note_on_c, 0, 64, 78
2, 25942, Note_off_c, 0, 45, 68
2, 25946, Note_off_c, 0, 60, 80
2, 25946, Note_off_c, 0, 57, 76
2, 25948, Note_off_c, 0, 64, 78
2, 25948, Note_off_c, 0, 67, 85
2, 26112, Note_on_c, 0, 46, 73
2, 26112, Note_on_c, 0, 62, 82
2, 26114, Note_on_c, 0, 60, 82
2, 26114, Note_on_c, 0, 69, 73
2, 26114, Note_on_c, 0, 65, 73
2, 28800, Note_off_c, 0, 62, 82
2, 28802, Note_off_c, 0, 46, 73
2, 28804, Note_off_c, 0, 60, 82
2, 28808, Note_off_c, 0, 69, 73
2, 28812, Note_off_c, 0, 65, 73
2, 29184, Note_on_c, 0, 36, 80
2, 29186, Note_on_c, 0, 62, 82
2, 29186, Note_on_c, 0, 58, 70
2, 29188, Note_on_c, 0, 65, 75
2, 29188, Note_on_c, 0, 60, 82
2, 29190, Note_on_c, 0, 55, 84
2, 29216, Note_off_c, 0, 65, 75
2, 29224, Note_off_c, 0, 55, 84
2, 29228, Note_off_c, 0, 60, 82
2, 29234, Note_off_c, 0, 58, 70
2, 29236, Note_off_c, 0, 36, 80
2, 29240, Note_off_c, 0, 62, 82
2, 29474, Note_on_c, 0, 36, 80
2, 29474, Note_on_c, 0, 58, 73
2, 29476, Note_on_c, 0, 60, 73
2, 29478, Note_on_c, 0, 55, 82
2, 29480, Note_on_c, 0, 62, 64
2, 29480, Note_on_c, 0, 65, 64
2, 29502, Note_off_c, 0, 55, 82
2, 29510, Note_off_c, 0, 60, 73
2, 29512, Note_off_c, 0, 62, 64
2, 29520, Note_off_c, 0, 65, 64
2, 29522, Note_off_c, 0, 36, 80
2, 29526, Note_off_c, 0, 58, 73
2, 29758, Note_on_c, 0, 62, 71
2, 29758, Note_on_c, 0, 58, 73
2, 29758, Note_on_c, 0, 60, 82
2, 29762, Note_on_c, 0, 65, 69
2, 29762, Note_on_c, 0, 55, 87
2, 29764, Note_on_c, 0, 36, 79
2, 30518, Note_off_c, 0, 65, 69
2, 30520, Note_off_c, 0, 36, 79
2, 30526, Note_off_c, 0, 55, 87
2, 30532, Note_off_c, 0, 62, 71
2, 30534, Note_off_c, 0, 60, 82
2, 30540, Note_off_c, 0, 58, 73
2, 30716, Note_on_c, 0, 58, 71
2, 30716, Note_on_c, 0, 55, 82
2, 30718, Note_on_c, 0, 65, 82
2, 30718, Note_on_c, 0, 62, 73
2, 30718, Note_on_c, 0, 60, 73
2, 30720, Note_on_c, 0, 36, 80
2, 30940, Note_off_c, 0, 36, 80
2, 30970, Note_off_c, 0, 55, 82
2, 30972, Note_off_c, 0, 65, 82
2, 30974, Note_off_c, 0, 60, 73
2, 30974, Note_off_c, 0, 62, 73
2, 30980, Note_off_c, 0, 58, 71
2, 31006, Note_on_c, 0, 55, 73
2, 31010, Note_on_c, 0, 36, 80
2, 31010, Note_on_c, 0, 60, 77
2, 31012, Note_on_c, 0, 65, 73
2, 31012, Note_on_c, 0, 62, 73
2, 31012, Note_on_c, 0, 58, 70
2, 31046, Note_off_c, 0, 58, 70
2, 31048, Note_off_c, 0, 60, 77
2, 31050, Note_off_c, 0, 62, 73
2, 31054, Note_off_c, 0, 65, 73
2, 31056, Note_off_c, 0, 55, 73
2, 31058, Note_off_c, 0, 36, 80
2, 31292, Note_on_c, 0, 60, 82
2, 31292, Note_on_c, 0, 58, 64
2, 31292, Note_on_c, 0, 55, 82
2, 31294, Note_on_c, 0, 65, 82
2, 31294, Note_on_c, 0, 62, 73
2, 31300, Note_on_c, 0, 36, 79
2, 32056, Note_off_c, 0, 36, 79
2, 32082, Note_off_c, 0, 65, 82
2, 32084, Note_off_c, 0, 55, 82
2, 32088, Note_off_c, 0, 60, 82
2, 32090, Note_off_c, 0, 62, 73
2, 32090, Note_off_c, 0, 58, 64
2, 32256, Note_on_c, 0, 48, 80
2, 32256, Note_on_c, 0, 36, 80
2, 32256, Note_on_c, 0, 69, 84
2, 32256, Note_on_c, 0, 62, 82
2, 32256, Note_on_c, 0, 58, 77
2, 32258, Note_on_c, 0, 65, 75
2, 32260, Note_on_c, 0, 55, 84
2, 32476, Note_off_c, 0, 58, 77
2, 32476, Note_off_c, 0, 36, 80
2, 32476, Note_off_c, 0, 48, 80
2, 32488, Note_off_c, 0, 65, 75
2, 32496, Note_off_c, 0, 62, 82
2, 32496, Note_off_c, 0, 69, 84
2, 32500, Note_off_c, 0, 55, 84
2, 32544, Note_on_c, 0, 69, 82
2, 32544, Note_on_c, 0, 58, 73
2, 32546, Note_on_c, 0, 48, 80
2, 32546, Note_on_c, 0, 36, 80
2, 32548, Note_on_c, 0, 55, 82
2, 32550, Note_on_c, 0, 62, 64
2, 32550, Note_on_c, 0, 65, 64
2, 32568, Note_off_c, 0, 69, 82
2, 32572, Note_off_c, 0, 55, 82
2, 32582, Note_off_c, 0, 62, 64
2, 32590, Note_off_c, 0, 65, 64
2, 32594, Note_off_c, 0, 36, 80
2, 32594, Note_off_c, 0, 48, 80
2, 32596, Note_off_c, 0, 58, 73
2, 32828, Note_on_c, 0, 69, 87
2, 32828, Note_on_c, 0, 62, 71
2, 32828, Note_on_c, 0, 58, 73
2, 32832, Note_on_c, 0, 65, 69
2, 32832, Note_on_c, 0, 55, 87
2, 32836, Note_on_c, 0, 48, 79
2, 32836, Note_on_c, 0, 36, 79
2, 33588, Note_off_c, 0, 65, 69
2, 33592, Note_off_c, 0, 36, 79
2, 33592, Note_off_c, 0, 48, 79
2, 33592, Note_off_c, 0, 69, 87
2, 33596, Note_off_c, 0, 55, 87
2, 33602, Note_off_c, 0, 62, 71
2, 33610, Note_off_c, 0, 58, 73
2, 33792, Note_on_c, 0, 48, 80
2, 33792, Note_on_c, 0, 36, 80
2, 33792, Note_on_c, 0, 69, 84
2, 33792, Note_on_c, 0, 62, 82
2, 33792, Note_on_c, 0, 58, 77
2, 33794, Note_on_c, 0, 65, 75
2, 33796, Note_on_c, 0, 55, 84
2, 34012, Note_off_c, 0, 58, 77
2, 34012, Note_off_c, 0, 36, 80
2, 34012, Note_off_c, 0, 48, 80
2, 34024, Note_off_c, 0, 65, 75
2, 34032, Note_off_c, 0, 62, 82
2, 34032, Note_off_c, 0, 69, 84
2, 34036, Note_off_c, 0, 55, 84
2, 34080, Note_on_c, 0, 69, 82
2, 34080, Note_on_c, 0, 58, 73
2, 34082, Note_on_c, 0, 48, 80
2, 34082, Note_on_c, 0, 36, 80
2, 34084, Note_on_c, 0, 55, 82
2, 34086, Note_on_c, 0, 62, 64
2, 34086, Note_on_c, 0, 65, 64
2, 34104, Note_off_c, 0, 69, 82
2, 34108, Note_off_c, 0, 55, 82
2, 34118, Note_off_c, 0, 62, 64
2, 34126, Note_off_c, 0, 65, 64
2, 34130, Note_off_c, 0, 36, 80
2, 34130, Note_off_c, 0, 48, 80
2, 34132, Note_off_c, 0, 58, 73
2, 34364, Note_on_c, 0, 69, 87
2, 34364, Note_on_c, 0, 62, 71
2, 34364, Note_on_c, 0, 58, 73
2, 34368, Note_on_c, 0, 65, 69
2, 34368, Note_on_c, 0, 55, 87
2, 34372, Note_on_c, 0, 48, 79
2, 34372, Note_on_c, 0, 36, 79
2, 34852, Note_off_c, 0, 55, 87
2, 34898, Note_off_c, 0, 62, 71
2, 34906, Note_off_c, 0, 58, 73
2, 34908, Note_off_c, 0, 65, 69
2, 34940, Note_on_c, 0, 65, 91
2, 34942, Note_on_c, 0, 70, 73
2, 34946, Note_on_c, 0, 60, 64
2, 34948, Note_on_c, 0, 62, 91
2, 34950, Note_on_c, 0, 67, 73
2, 35098, Note_off_c, 0, 62, 91
2, 35100, Note_off_c, 0, 60, 64
2, 35104, Note_off_c, 0, 67, 73
2, 35114, Note_off_c, 0, 70, 73
2, 35124, Note_off_c, 0, 65, 91
2, 35128, Note_off_c, 0, 36, 79
2, 35128, Note_off_c, 0, 48, 79
2, 35128, Note_off_c, 0, 69, 87
2, 35328, Note_on_c, 0, 41, 83
2, 35328, Note_on_c, 0, 29, 83
2, 35328, Note_on_c, 0, 69, 92
2, 35328, Note_on_c, 0, 65, 94
2, 35328, Note_on_c, 0, 60, 82
2, 35506, Note_off_c, 0, 69, 92
2, 35520, Note_off_c, 0, 60, 82
2, 35532, Note_off_c, 0, 65, 94
2, 35546, Note_off_c, 0, 29, 83
2, 35546, Note_off_c, 0, 41, 83
2, 35614, Note_on_c, 0, 45, 73
2, 35614, Note_on_c, 0, 33, 73
2, 35616, Note_on_c, 0, 64, 87
2, 35616, Note_on_c, 0, 67, 85
2, 35620, Note_on_c, 0, 60, 73
2, 35622, Note_on_c, 0, 65, 91
2, 35666, Note_off_c, 0, 65, 91
2, 35666, Note_off_c, 0, 60, 73
2, 35666, Note_off_c, 0, 67, 85
2, 35668, Note_off_c, 0, 33, 73
2, 35668, Note_off_c, 0, 45, 73
2, 35670, Note_off_c, 0, 64, 87
2, 35900, Note_on_c, 0, 62, 91
2, 35900, Note_on_c, 0, 60, 91
2, 35902, Note_on_c, 0, 38, 82
2, 35902, Note_on_c, 0, 50, 82
2, 35902, Note_on_c, 0, 57, 82
2, 35902, Note_on_c, 0, 65, 91
2, 36220, Note_off_c, 0, 50, 82
2, 36220, Note_off_c, 0, 38, 82
2, 36236, Note_off_c, 0, 60, 91
2, 36248, Note_off_c, 0, 62, 91
2, 36254, Note_off_c, 0, 65, 91
2, 36262, Note_off_c, 0, 57, 82
2, 36284, Note_on_c, 0, 36, 64
2, 36284, Note_on_c, 0, 48, 64
2, 36288, Note_on_c, 0, 60, 73
2, 36316, Note_off_c, 0, 48, 64
2, 36316, Note_off_c, 0, 36, 64
2, 36328, Note_off_c, 0, 60, 73
2, 36476, Note_on_c, 0, 60, 71
2, 36482, Note_on_c, 0, 48, 73
2, 36532, Note_off_c, 0, 60, 71
2, 36544, Note_off_c, 0, 48, 73
2, 36570, Note_on_c, 0, 62, 77
2, 36576, Note_on_c, 0, 50, 72
2, 36626, Note_off_c, 0, 62, 77
2, 36628, Note_off_c, 0, 50, 72
2, 36664, Note_on_c, 0, 65, 85
2, 36666, Note_on_c, 0, 53, 73
2, 36704, Note_off_c, 0, 53, 73
2, 36708, Note_off_c, 0, 65, 85
2, 36764, Note_on_c, 0, 38, 64
2, 36806, Note_off_c, 0, 38, 64
2, 36860, Note_on_c, 0, 34, 82
2, 36860, Note_on_c, 0, 46, 82
2, 36862, Note_on_c, 0, 58, 73
2, 36866, Note_on_c, 0, 65, 91
2, 36868, Note_on_c, 0, 62, 91
2, 36868, Note_on_c, 0, 57, 82
2, 37072, Note_off_c, 0, 65, 91
2, 37086, Note_off_c, 0, 57, 82
2, 37086, Note_off_c, 0, 62, 91
2, 37092, Note_off_c, 0, 58, 73
2, 37110, Note_off_c, 0, 46, 82
2, 37110, Note_off_c, 0, 34, 82
2, 37150, Note_on_c, 0, 33, 73
2, 37150, Note_on_c, 0, 45, 73
2, 37152, Note_on_c, 0, 64, 82
2, 37152, Note_on_c, 0, 57, 73
2, 37156, Note_on_c, 0, 65, 82
2, 37158, Note_on_c, 0, 60, 91
2, 37160, Note_on_c, 0, 55, 73
2, 37190, Note_off_c, 0, 55, 73
2, 37196, Note_off_c, 0, 60, 91
2, 37196, Note_off_c, 0, 64, 82
2, 37198, Note_off_c, 0, 57, 73
2, 37200, Note_off_c, 0, 65, 82
2, 37216, Note_off_c, 0, 45, 73
2, 37216, Note_off_c, 0, 33, 73
2, 37430, Note_on_c, 0, 31, 83
2, 37430, Note_on_c, 0, 43, 83
2, 37434, Note_on_c, 0, 58, 91
2, 37438, Note_on_c, 0, 65, 91
2, 37438, Note_on_c, 0, 55, 73
2, 37438, Note_on_c, 0, 62, 82
2, 37438, Note_on_c, 0, 53, 73
2, 37792, Note_off_c, 0, 53, 73
2, 37792, Note_off_c, 0, 55, 73
2, 37794, Note_off_c, 0, 58, 91
2, 37816, Note_off_c, 0, 65, 91
2, 37818, Note_off_c, 0, 62, 82
2, 37822, Note_on_c, 0, 36, 64
2, 37822, Note_on_c, 0, 53, 72
2, 37822, Note_on_c, 0, 48, 64
2, 37824, Note_off_c, 0, 43, 83
2, 37824, Note_off_c, 0, 31, 83
2, 37826, Note_on_c, 0, 62, 73
2, 37826, Note_on_c, 0, 58, 60
2, 37828, Note_on_c, 0, 65, 73
2, 37860, Note_off_c, 0, 65, 73
2, 37860, Note_off_c, 0, 62, 73
2, 37864, Note_off_c, 0, 48, 64
2, 37864, Note_off_c, 0, 36, 64
2, 37874, Note_off_c, 0, 58, 60
2, 37882, Note_off_c, 0, 53, 72
2, 38202, Note_on_c, 0, 55, 64
2, 38204, Note_on_c, 0, 58, 60
2, 38204, Note_on_c, 0, 65, 82
2, 38204, Note_on_c, 0, 62, 91
2, 38214, Note_on_c, 0, 36, 64
2, 38214, Note_on_c, 0, 48, 64
2, 38240, Note_off_c, 0, 55, 64
2, 38246, Note_off_c, 0, 62, 91
2, 38246, Note_off_c, 0, 65, 82
2, 38246, Note_off_c, 0, 58, 60
2, 38252, Note_off_c, 0, 48, 64
2, 38252, Note_off_c, 0, 36, 64
2, 38400, Note_on_c, 0, 41, 83
2, 38400, Note_on_c, 0, 29, 83
2, 38400, Note_on_c, 0, 69, 92
2, 38400, Note_on_c, 0, 65, 94
2, 38400, Note_on_c, 0, 60, 82
2, 38578, Note_off_c, 0, 69, 92
2, 38592, Note_off_c, 0, 60, 82
2, 38604, Note_off_c, 0, 65, 94
2, 38618, Note_off_c, 0, 29, 83
2, 38618, Note_off_c, 0, 41, 83
2, 38686, Note_on_c, 0, 33, 73
2, 38686, Note_on_c, 0, 45, 73
2, 38688, Note_on_c, 0, 64, 87
2, 38688, Note_on_c, 0, 67, 85
2, 38692, Note_on_c, 0, 60, 73
2, 38694, Note_on_c, 0, 65, 91
2, 38738, Note_off_c, 0, 65, 91
2, 38738, Note_off_c, 0, 60, 73
2, 38738, Note_off_c, 0, 67, 85
2, 38740, Note_off_c, 0, 45, 73
2, 38740, Note_off_c, 0, 33, 73
2, 38742, Note_off_c, 0, 64, 87
2, 38972, Note_on_c, 0, 62, 91
2, 38972, Note_on_c, 0, 60, 91
2, 38974, Note_on_c, 0, 38, 82
2, 38974, Note_on_c, 0, 50, 82
2, 38974, Note_on_c, 0, 57, 82
2, 38974, Note_on_c, 0, 65, 91
2, 39292, Note_off_c, 0, 50, 82
2, 39292, Note_off_c, 0, 38, 82
2, 39308, Note_off_c, 0, 60, 91
2, 39320, Note_off_c, 0, 62, 91
2, 39326, Note_off_c, 0, 65, 91
2, 39334, Note_off_c, 0, 57, 82
2, 39356, Note_on_c, 0, 48, 64
2, 39360, Note_on_c, 0, 60, 73
2, 39388, Note_off_c, 0, 48, 64
2, 39400, Note_off_c, 0, 60, 73
2, 39548, Note_on_c, 0, 60, 71
2, 39554, Note_on_c, 0, 48, 73
2, 39604, Note_off_c, 0, 60, 71
2, 39616, Note_off_c, 0, 48, 73
2, 39642, Note_on_c, 0, 62, 77
2, 39648, Note_on_c, 0, 50, 72
2, 39698, Note_off_c, 0, 62, 77
2, 39700, Note_off_c, 0, 50, 72
2, 39736, Note_on_c, 0, 65, 85
2, 39738, Note_on_c, 0, 53, 73
2, 39776, Note_off_c, 0, 53, 73
2, 39780, Note_off_c, 0, 65, 85
2, 39834, Note_on_c, 0, 62, 73
2, 39834, Note_on_c, 0, 38, 82
2, 39888, Note_off_c, 0, 38, 82
2, 39892, Note_off_c, 0, 62, 73
2, 39932, Note_on_c, 0, 34, 82
2, 39932, Note_on_c, 0, 46, 82
2, 39934, Note_on_c, 0, 58, 73
2, 39938, Note_on_c, 0, 65, 91
2, 39940, Note_on_c, 0, 62, 91
2, 39940, Note_on_c, 0, 57, 82
2, 40144, Note_off_c, 0, 65, 91
2, 40158, Note_off_c, 0, 57, 82
2, 40158, Note_off_c, 0, 62, 91
2, 40164, Note_off_c, 0, 58, 73
2, 40182, Note_off_c, 0, 46, 82
2, 40182, Note_off_c, 0, 34, 82
2, 40222, Note_on_c, 0, 33, 73
2, 40222, Note_on_c, 0, 45, 73
2, 40224, Note_on_c, 0, 64, 82
2, 40224, Note_on_c, 0, 57, 73
2, 40228, Note_on_c, 0, 65, 82
2, 40230, Note_on_c, 0, 60, 91
2, 40232, Note_on_c, 0, 55, 73
2, 40262, Note_off_c, 0, 55, 73
2, 40268, Note_off_c, 0, 60, 91
2, 40268, Note_off_c, 0, 64, 82
2, 40270, Note_off_c, 0, 57, 73
2, 40272, Note_off_c, 0, 65, 82
2, 40288, Note_off_c, 0, 45, 73
2, 40288, Note_off_c, 0, 33, 73
2, 40502, Note_on_c, 0, 31, 83
2, 40502, Note_on_c, 0, 43, 83
2, 40506, Note_on_c, 0, 58, 91
2, 40510, Note_on_c, 0, 65, 91
2, 40510, Note_on_c, 0, 55, 73
2, 40510, Note_on_c, 0, 62, 82
2, 40510, Note_on_c, 0, 53, 73
2, 40864, Note_off_c, 0, 53, 73
2, 40864, Note_off_c, 0, 55, 73
2, 40866, Note_off_c, 0, 58, 91
2, 40888, Note_off_c, 0, 65, 91
2, 40890, Note_off_c, 0, 62, 82
2, 40894, Note_on_c, 0, 58, 64
2, 40894, Note_on_c, 0, 36, 64
2, 40894, Note_on_c, 0, 48, 64
2, 40896, Note_off_c, 0, 43, 83
2, 40896, Note_off_c, 0, 31, 83
2, 40896, Note_on_c, 0, 55, 75
2, 40898, Note_on_c, 0, 65, 64
2, 40902, Note_on_c, 0, 62, 82
2, 41058, Note_off_c, 0, 55, 75
2, 41072, Note_off_c, 0, 65, 64
2, 41074, Note_off_c, 0, 36, 64
2, 41076, Note_off_c, 0, 62, 82
2, 41078, Note_off_c, 0, 58, 64
2, 41094, Note_off_c, 0, 48, 64
2, 41274, Note_on_c, 0, 55, 64
2, 41276, Note_on_c, 0, 58, 60
2, 41276, Note_on_c, 0, 65, 82
2, 41276, Note_on_c, 0, 62, 91
2, 41286, Note_on_c, 0, 36, 64
2, 41286, Note_on_c, 0, 48, 64
2, 41312, Note_off_c, 0, 55, 64
2, 41318, Note_off_c, 0, 62, 91
2, 41318, Note_off_c, 0, 65, 82
2, 41318, Note_off_c, 0, 58, 60
2, 41324, Note_off_c, 0, 48, 64
2, 41324, Note_off_c, 0, 36, 64
2, 41472, Note_on_c, 0, 41, 83
2, 41472, Note_on_c, 0, 29, 83
2, 41472, Note_on_c, 0, 69, 92
2, 41472, Note_on_c, 0, 65, 94
2, 41472, Note_on_c, 0, 60, 82
2, 41650, Note_off_c, 0, 69, 92
2, 41664, Note_off_c, 0, 60, 82
2, 41676, Note_off_c, 0, 65, 94
2, 41690, Note_off_c, 0, 29, 83
2, 41690, Note_off_c, 0, 41, 83
2, 41758, Note_on_c, 0, 33, 73
2, 41758, Note_on_c, 0, 45, 73
2, 41760, Note_on_c, 0, 64, 87
2, 41760, Note_on_c, 0, 67, 85
2, 41764, Note_on_c, 0, 60, 73
2, 41766, Note_on_c, 0, 65, 91
2, 41810, Note_off_c, 0, 65, 91
2, 41810, Note_off_c, 0, 60, 73
2, 41810, Note_off_c, 0, 67, 85
2, 41812, Note_off_c, 0, 45, 73
2, 41812, Note_off_c, 0, 33, 73
2, 41814, Note_off_c, 0, 64, 87
2, 42044, Note_on_c, 0, 62, 91
2, 42044, Note_on_c, 0, 60, 91
2, 42046, Note_on_c, 0, 38, 82
2, 42046, Note_on_c, 0, 50, 82
2, 42046, Note_on_c, 0, 57, 82
2, 42046, Note_on_c, 0, 65, 91
2, 42364, Note_off_c, 0, 50, 82
2, 42364, Note_off_c, 0, 38, 82
2, 42380, Note_off_c, 0, 60, 91
2, 42392, Note_off_c, 0, 62, 91
2, 42398, Note_off_c, 0, 65, 91
2, 42406, Note_off_c, 0, 57, 82
2, 42428, Note_on_c, 0, 48, 64
2, 42432, Note_on_c, 0, 60, 73
2, 42460, Note_off_c, 0, 48, 64
2, 42472, Note_off_c, 0, 60, 73
2, 42620, Note_on_c, 0, 60, 71
2, 42626, Note_on_c, 0, 48, 73
2, 42676, Note_off_c, 0, 60, 71
2, 42688, Note_off_c, 0, 48, 73
2, 42714, Note_on_c, 0, 62, 77
2, 42720, Note_on_c, 0, 50, 72
2, 42770, Note_off_c, 0, 62, 77
2, 42772, Note_off_c, 0, 50, 72
2, 42808, Note_on_c, 0, 65, 85
2, 42810, Note_on_c, 0, 53, 73
2, 42848, Note_off_c, 0, 53, 73
2, 42852, Note_off_c, 0, 65, 85
2, 43004, Note_on_c, 0, 34, 82
2, 43004, Note_on_c, 0, 46, 82
2, 43006, Note_on_c, 0, 58, 73
2, 43010, Note_on_c, 0, 65, 91
2, 43012, Note_on_c, 0, 62, 91
2, 43012, Note_on_c, 0, 57, 82
2, 43216, Note_off_c, 0, 65, 91
2, 43230, Note_off_c, 0, 57, 82
2, 43230, Note_off_c, 0, 62, 91
2, 43236, Note_off_c, 0, 58, 73
2, 43254, Note_off_c, 0, 46, 82
2, 43254, Note_off_c, 0, 34, 82
2, 43294, Note_on_c, 0, 33, 73
2, 43294, Note_on_c, 0, 45, 73
2, 43296, Note_on_c, 0, 64, 82
2, 43296, Note_on_c, 0, 57, 73
2, 43300, Note_on_c, 0, 65, 82
2, 43302, Note_on_c, 0, 60, 91
2, 43304, Note_on_c, 0, 55, 73
2, 43334, Note_off_c, 0, 55, 73
2, 43340, Note_off_c, 0, 60, 91
2, 43340, Note_off_c, 0, 64, 82
2, 43342, Note_off_c, 0, 57, 73
2, 43344, Note_off_c, 0, 65, 82
2, 43360, Note_off_c, 0, 45, 73
2, 43360, Note_off_c, 0, 33, 73
2, 43574, Note_on_c, 0, 31, 83
2, 43574, Note_on_c, 0, 43, 83
2, 43578, Note_on_c, 0, 58, 91
2, 43582, Note_on_c, 0, 65, 91
2, 43582, Note_on_c, 0, 55, 73
2, 43582, Note_on_c, 0, 62, 82
2, 43582, Note_on_c, 0, 53, 73
2, 43936, Note_off_c, 0, 53, 73
2, 43936, Note_off_c, 0, 55, 73
2, 43938, Note_off_c, 0, 58, 91
2, 43960, Note_off_c, 0, 65, 91
2, 43962, Note_off_c, 0, 62, 82
2, 43968, Note_off_c, 0, 43, 83
2, 43968, Note_off_c, 0, 31, 83
2, 43968, Note_on_c, 0, 53, 78
2, 44130, Note_off_c, 0, 53, 78
2, 44346, Note_on_c, 0, 55, 64
2, 44348, Note_on_c, 0, 62, 91
2, 44348, Note_on_c, 0, 65, 82
2, 44348, Note_on_c, 0, 58, 60
2, 44358, Note_on_c, 0, 36, 64
2, 44358, Note_on_c, 0, 48, 64
2, 44384, Note_off_c, 0, 55, 64
2, 44390, Note_off_c, 0, 58, 60
2, 44390, Note_off_c, 0, 65, 82
2, 44390, Note_off_c, 0, 62, 91
2, 44396, Note_off_c, 0, 48, 64
2, 44396, Note_off_c, 0, 36, 64
2, 44544, Note_on_c, 0, 41, 83
2, 44544, Note_on_c, 0, 29, 83
2, 44544, Note_on_c, 0, 69, 92
2, 44544, Note_on_c, 0, 65, 94
2, 44544, Note_on_c, 0, 60, 82
2, 44722, Note_off_c, 0, 69, 92
2, 44736, Note_off_c, 0, 60, 82
2, 44748, Note_off_c, 0, 65, 94
2, 44762, Note_off_c, 0, 29, 83
2, 44762, Note_off_c, 0, 41, 83
2, 44830, Note_on_c, 0, 33, 73
2, 44830, Note_on_c, 0, 45, 73
2, 44832, Note_on_c, 0, 64, 87
2, 44832, Note_on_c, 0, 67, 85
2, 44836, Note_on_c, 0, 60, 73
2, 44838, Note_on_c, 0, 65, 91
2, 44882, Note_off_c, 0, 65, 91
2, 44882, Note_off_c, 0, 60, 73
2, 44882, Note_off_c, 0, 67, 85
2, 44884, Note_off_c, 0, 45, 73
2, 44884, Note_off_c, 0, 33, 73
2, 44886, Note_off_c, 0, 64, 87
2, 45116, Note_on_c, 0, 62, 91
2, 45116, Note_on_c, 0, 60, 91
2, 45118, Note_on_c, 0, 38, 82
2, 45118, Note_on_c, 0, 50, 82
2, 45118, Note_on_c, 0, 57, 82
2, 45118, Note_on_c, 0, 65, 91
2, 45436, Note_off_c, 0, 50, 82
2, 45436, Note_off_c, 0, 38, 82
2, 45452, Note_off_c, 0, 60, 91
2, 45464, Note_off_c, 0, 62, 91
2, 45470, Note_off_c, 0, 65, 91
2, 45478, Note_off_c, 0, 57, 82
2, 45500, Note_on_c, 0, 36, 64
2, 45500, Note_on_c, 0, 48, 64
2, 45504, Note_on_c, 0, 60, 73
2, 45532, Note_off_c, 0, 48, 64
2, 45532, Note_off_c, 0, 36, 64
2, 45544, Note_off_c, 0, 60, 73
2, 45692, Note_on_c, 0, 60, 71
2, 45698, Note_on_c, 0, 48, 73
2, 45748, Note_off_c, 0, 60, 71
2, 45760, Note_off_c, 0, 48, 73
2, 45786, Note_on_c, 0, 62, 77
2, 45792, Note_on_c, 0, 50, 72
2, 45842, Note_off_c, 0, 62, 77
2, 45844, Note_off_c, 0, 50, 72
2, 45880, Note_on_c, 0, 65, 85
2, 45882, Note_on_c, 0, 53, 73
2, 45920, Note_off_c, 0, 53, 73
2, 45924, Note_off_c, 0, 65, 85
2, 45980, Note_on_c, 0, 38, 81
2, 46036, Note_off_c, 0, 38, 81
2, 46076, Note_on_c, 0, 34, 82
2, 46076, Note_on_c, 0, 46, 82
2, 46078, Note_on_c, 0, 58, 73
2, 46082, Note_on_c, 0, 65, 91
2, 46084, Note_on_c, 0, 62, 91
2, 46084, Note_on_c, 0, 57, 82
2, 46288, Note_off_c, 0, 65, 91
2, 46302, Note_off_c, 0, 57, 82
2, 46302, Note_off_c, 0, 62, 91
2, 46308, Note_off_c, 0, 58, 73
2, 46326, Note_off_c, 0, 46, 82
2, 46326, Note_off_c, 0, 34, 82
2, 46366, Note_on_c, 0, 33, 73
2, 46366, Note_on_c, 0, 45, 73
2, 46368, Note_on_c, 0, 64, 82
2, 46368, Note_on_c, 0, 57, 73
2, 46372, Note_on_c, 0, 65, 82
2, 46374, Note_on_c, 0, 60, 91
2, 46376, Note_on_c, 0, 55, 73
2, 46406, Note_off_c, 0, 55, 73
2, 46412, Note_off_c, 0, 60, 91
2, 46412, Note_off_c, 0, 64, 82
2, 46414, Note_off_c, 0, 57, 73
2, 46416, Note_off_c, 0, 65, 82
2, 46432, Note_off_c, 0, 45, 73
2, 46432, Note_off_c, 0, 33, 73
2, 46646, Note_on_c, 0, 31, 83
2, 46646, Note_on_c, 0, 43, 83
2, 46650, Note_on_c, 0, 58, 91
2, 46654, Note_on_c, 0, 65, 91
2, 46654, Note_on_c, 0, 55, 73
2, 46654, Note_on_c, 0, 62, 82
2, 46654, Note_on_c, 0, 53, 73
2, 47008, Note_off_c, 0, 53, 73
2, 47008, Note_off_c, 0, 55, 73
2, 47010, Note_off_c, 0, 58, 91
2, 47032, Note_off_c, 0, 65, 91
2, 47034, Note_off_c, 0, 62, 82
2, 47038, Note_on_c, 0, 60, 75
2, 47040, Note_off_c, 0, 43, 83
2, 47040, Note_off_c, 0, 31, 83
2, 47086, Note_off_c, 0, 60, 75
2, 47232, Note_on_c, 0, 53, 73
2, 47234, Note_on_c, 0, 60, 64
2, 47286, Note_off_c, 0, 53, 73
2, 47288, Note_off_c, 0, 60, 64
2, 47324, Note_on_c, 0, 62, 75
2, 47384, Note_off_c, 0, 62, 75
2, 47418, Note_on_c, 0, 65, 91
2, 47462, Note_off_c, 0, 65, 91
2, 47616, Note_on_c, 0, 29, 83
2, 47616, Note_on_c, 0, 41, 83
2, 47616, Note_on_c, 0, 69, 92
2, 47616, Note_on_c, 0, 65, 94
2, 47616, Note_on_c, 0, 60, 82
2, 47794, Note_off_c, 0, 69, 92
2, 47808, Note_off_c, 0, 60, 82
2, 47820, Note_off_c, 0, 65, 94
2, 47834, Note_off_c, 0, 41, 83
2, 47834, Note_off_c, 0, 29, 83
2, 47902, Note_on_c, 0, 33, 73
2, 47902, Note_on_c, 0, 45, 73
2, 47904, Note_on_c, 0, 64, 87
2, 47904, Note_on_c, 0, 67, 85
2, 47908, Note_on_c, 0, 60, 73
2, 47910, Note_on_c, 0, 65, 91
2, 47954, Note_off_c, 0, 65, 91
2, 47954, Note_off_c, 0, 60, 73
2, 47954, Note_off_c, 0, 67, 85
2, 47956, Note_off_c, 0, 45, 73
2, 47956, Note_off_c, 0, 33, 73
2, 47958, Note_off_c, 0, 64, 87
2, 48188, Note_on_c, 0, 62, 91
2, 48188, Note_on_c, 0, 60, 91
2, 48190, Note_on_c, 0, 38, 82
2, 48190, Note_on_c, 0, 50, 82
2, 48190, Note_on_c, 0, 57, 82
2, 48190, Note_on_c, 0, 65, 91
2, 48508, Note_off_c, 0, 50, 82
2, 48508, Note_off_c, 0, 38, 82
2, 48524, Note_off_c, 0, 60, 91
2, 48536, Note_off_c, 0, 62, 91
2, 48542, Note_off_c, 0, 65, 91
2, 48550, Note_off_c, 0, 57, 82
2, 48572, Note_on_c, 0, 36, 64
2, 48572, Note_on_c, 0, 48, 64
2, 48576, Note_on_c, 0, 60, 73
2, 48604, Note_off_c, 0, 48, 64
2, 48604, Note_off_c, 0, 36, 64
2, 48616, Note_off_c, 0, 60, 73
2, 48764, Note_on_c, 0, 60, 71
2, 48770, Note_on_c, 0, 48, 73
2, 48820, Note_off_c, 0, 60, 71
2, 48832, Note_off_c, 0, 48, 73
2, 48858, Note_on_c, 0, 62, 77
2, 48864, Note_on_c, 0, 50, 72
2, 48914, Note_off_c, 0, 62, 77
2, 48916, Note_off_c, 0, 50, 72
2, 48952, Note_on_c, 0, 65, 85
2, 48954, Note_on_c, 0, 53, 73
2, 48992, Note_off_c, 0, 53, 73
2, 48996, Note_off_c, 0, 65, 85
2, 49046, Note_on_c, 0, 62, 58
2, 49078, Note_off_c, 0, 62, 58
2, 49148, Note_on_c, 0, 34, 82
2, 49148, Note_on_c, 0, 46, 82
2, 49150, Note_on_c, 0, 58, 73
2, 49150, Note_on_c, 0, 65, 91
2, 49156, Note_on_c, 0, 62, 91
2, 49156, Note_on_c, 0, 57, 82
2, 49356, Note_off_c, 0, 65, 91
2, 49374, Note_off_c, 0, 57, 82
2, 49374, Note_off_c, 0, 62, 91
2, 49380, Note_off_c, 0, 58, 73
2, 49398, Note_off_c, 0, 46, 82
2, 49398, Note_off_c, 0, 34, 82
2, 49438, Note_on_c, 0, 33, 73
2, 49438, Note_on_c, 0, 45, 73
2, 49440, Note_on_c, 0, 64, 82
2, 49440, Note_on_c, 0, 57, 73
2, 49444, Note_on_c, 0, 65, 82
2, 49446, Note_on_c, 0, 60, 91
2, 49448, Note_on_c, 0, 55, 73
2, 49478, Note_off_c, 0, 55, 73
2, 49484, Note_off_c, 0, 60, 91
2, 49484, Note_off_c, 0, 64, 82
2, 49486, Note_off_c, 0, 57, 73
2, 49488, Note_off_c, 0, 65, 82
2, 49504, Note_off_c, 0, 45, 73
2, 49504, Note_off_c, 0, 33, 73
2, 49718, Note_on_c, 0, 31, 83
2, 49718, Note_on_c, 0, 43, 83
2, 49722, Note_on_c, 0, 58, 91
2, 49726, Note_on_c, 0, 65, 91
2, 49726, Note_on_c, 0, 55, 73
2, 49726, Note_on_c, 0, 62, 82
2, 49726, Note_on_c, 0, 53, 73
2, 50080, Note_off_c, 0, 53, 73
2, 50080, Note_off_c, 0, 55, 73
2, 50082, Note_off_c, 0, 58, 91
2, 50104, Note_off_c, 0, 65, 91
2, 50106, Note_off_c, 0, 62, 82
2, 50110, Note_on_c, 0, 36, 64
2, 50110, Note_on_c, 0, 48, 64
2, 50112, Note_off_c, 0, 43, 83
2, 50112, Note_off_c, 0, 31, 83
2, 50112, Note_on_c, 0, 55, 73
2, 50112, Note_on_c, 0, 65, 73
2, 50114, Note_on_c, 0, 58, 73
2, 50114, Note_on_c, 0, 62, 82
2, 50290, Note_off_c, 0, 48, 64
2, 50290, Note_off_c, 0, 36, 64
2, 50296, Note_off_c, 0, 55, 73
2, 50304, Note_off_c, 0, 65, 73
2, 50314, Note_off_c, 0, 62, 82
2, 50320, Note_off_c, 0, 58, 73
2, 50490, Note_on_c, 0, 55, 64
2, 50492, Note_on_c, 0, 58, 60
2, 50492, Note_on_c, 0, 65, 82
2, 50492, Note_on_c, 0, 62, 91
2, 50502, Note_on_c, 0, 36, 64
2, 50502, Note_on_c, 0, 48, 64
2, 50528, Note_off_c, 0, 55, 64
2, 50534, Note_off_c, 0, 62, 91
2, 50534, Note_off_c, 0, 65, 82
2, 50534, Note_off_c, 0, 58, 60
2, 50540, Note_off_c, 0, 48, 64
2, 50540, Note_off_c, 0, 36, 64
2, 50688, Note_on_c, 0, 29, 83
2, 50688, Note_on_c, 0, 41, 83
2, 50688, Note_on_c, 0, 69, 92
2, 50688, Note_on_c, 0, 65, 94
2, 50688, Note_on_c, 0, 60, 82
2, 50866, Note_off_c, 0, 69, 92
2, 50880, Note_off_c, 0, 60, 82
2, 50892, Note_off_c, 0, 65, 94
2, 50906, Note_off_c, 0, 41, 83
2, 50906, Note_off_c, 0, 29, 83
2, 50974, Note_on_c, 0, 33, 73
2, 50974, Note_on_c, 0, 45, 73
2, 50976, Note_on_c, 0, 64, 87
2, 50976, Note_on_c, 0, 67, 85
2, 50980, Note_on_c, 0, 60, 73
2, 50982, Note_on_c, 0, 65, 91
2, 51026, Note_off_c, 0, 65, 91
2, 51026, Note_off_c, 0, 60, 73
2, 51026, Note_off_c, 0, 67, 85
2, 51028, Note_off_c, 0, 45, 73
2, 51028, Note_off_c, 0, 33, 73
2, 51030, Note_off_c, 0, 64, 87
2, 51260, Note_on_c, 0, 62, 91
2, 51260, Note_on_c, 0, 60, 91
2, 51262, Note_on_c, 0, 38, 82
2, 51262, Note_on_c, 0, 50, 82
2, 51262, Note_on_c, 0, 57, 82
2, 51262, Note_on_c, 0, 65, 91
2, 51580, Note_off_c, 0, 50, 82
2, 51580, Note_off_c, 0, 38, 82
2, 51596, Note_off_c, 0, 60, 91
2, 51608, Note_off_c, 0, 62, 91
2, 51614, Note_off_c, 0, 65, 91
2, 51622, Note_off_c, 0, 57, 82
2, 51644, Note_on_c, 0, 36, 64
2, 51644, Note_on_c, 0, 48, 64
2, 51648, Note_on_c, 0, 60, 73
2, 51676, Note_off_c, 0, 48, 64
2, 51676, Note_off_c, 0, 36, 64
2, 51688, Note_off_c, 0, 60, 73
2, 51836, Note_on_c, 0, 60, 71
2, 51842, Note_on_c, 0, 48, 73
2, 51892, Note_off_c, 0, 60, 71
2, 51904, Note_off_c, 0, 48, 73
2, 51930, Note_on_c, 0, 62, 77
2, 51936, Note_on_c, 0, 50, 72
2, 51986, Note_off_c, 0, 62, 77
2, 51988, Note_off_c, 0, 50, 72
2, 52024, Note_on_c, 0, 65, 85
2, 52026, Note_on_c, 0, 53, 73
2, 52064, Note_off_c, 0, 53, 73
2, 52068, Note_off_c, 0, 65, 85
2, 52132, Note_on_c, 0, 36, 64
2, 52172, Note_on_c, 0, 37, 72
2, 52194, Note_off_c, 0, 36, 64
2, 52220, Note_on_c, 0, 34, 82
2, 52220, Note_on_c, 0, 46, 82
2, 52222, Note_on_c, 0, 58, 73
2, 52222, Note_on_c, 0, 65, 91
2, 52228, Note_on_c, 0, 62, 91
2, 52228, Note_on_c, 0, 57, 82
2, 52286, Note_off_c, 0, 37, 72
2, 52428, Note_off_c, 0, 65, 91
2, 52446, Note_off_c, 0, 57, 82
2, 52446, Note_off_c, 0, 62, 91
2, 52452, Note_off_c, 0, 58, 73
2, 52470, Note_off_c, 0, 46, 82
2, 52470, Note_off_c, 0, 34, 82
2, 52510, Note_on_c, 0, 33, 73
2, 52510, Note_on_c, 0, 45, 73
2, 52512, Note_on_c, 0, 64, 82
2, 52512, Note_on_c, 0, 57, 73
2, 52516, Note_on_c, 0, 65, 82
2, 52518, Note_on_c, 0, 60, 91
2, 52520, Note_on_c, 0, 55, 73
2, 52550, Note_off_c, 0, 55, 73
2, 52556, Note_off_c, 0, 60, 91
2, 52556, Note_off_c, 0, 64, 82
2, 52558, Note_off_c, 0, 57, 73
2, 52560, Note_off_c, 0, 65, 82
2, 52576, Note_off_c, 0, 45, 73
2, 52576, Note_off_c, 0, 33, 73
2, 52790, Note_on_c, 0, 31, 83
2, 52790, Note_on_c, 0, 43, 83
2, 52794, Note_on_c, 0, 58, 91
2, 52798, Note_on_c, 0, 65, 91
2, 52798, Note_on_c, 0, 55, 73
2, 52798, Note_on_c, 0, 62, 82
2, 52798, Note_on_c, 0, 53, 73
2, 53152, Note_off_c, 0, 53, 73
2, 53152, Note_off_c, 0, 55, 73
2, 53154, Note_off_c, 0, 58, 91
2, 53176, Note_off_c, 0, 65, 91
2, 53178, Note_off_c, 0, 62, 82
2, 53182, Note_on_c, 0, 36, 64
2, 53182, Note_on_c, 0, 48, 64
2, 53184, Note_off_c, 0, 43, 83
2, 53184, Note_off_c, 0, 31, 83
2, 53184, Note_on_c, 0, 55, 73
2, 53184, Note_on_c, 0, 65, 73
2, 53186, Note_on_c, 0, 58, 73
2, 53186, Note_on_c, 0, 62, 82
2, 53362, Note_off_c, 0, 48, 64
2, 53362, Note_off_c, 0, 36, 64
2, 53368, Note_off_c, 0, 55, 73
2, 53376, Note_off_c, 0, 65, 73
2, 53386, Note_off_c, 0, 62, 82
2, 53392, Note_off_c, 0, 58, 73
2, 53562, Note_on_c, 0, 55, 64
2, 53564, Note_on_c, 0, 58, 60
2, 53564, Note_on_c, 0, 65, 82
2, 53564, Note_on_c, 0, 62, 91
2, 53574, Note_on_c, 0, 36, 64
2, 53574, Note_on_c, 0, 48, 64
2, 53600, Note_off_c, 0, 55, 64
2, 53606, Note_off_c, 0, 62, 91
2, 53606, Note_off_c, 0, 65, 82
2, 53606, Note_off_c, 0, 58, 60
2, 53612, Note_off_c, 0, 48, 64
2, 53612, Note_off_c, 0, 36, 64
2, 53760, Note_on_c, 0, 29, 83
2, 53760, Note_on_c, 0, 41, 83
2, 53760, Note_on_c, 0, 69, 92
2, 53760, Note_on_c, 0, 65, 94
2, 53760, Note_on_c, 0, 60, 82
2, 53938, Note_off_c, 0, 69, 92
2, 53952, Note_off_c, 0, 60, 82
2, 53964, Note_off_c, 0, 65, 94
2, 53978, Note_off_c, 0, 41, 83
2, 53978, Note_off_c, 0, 29, 83
2, 54046, Note_on_c, 0, 33, 73
2, 54046, Note_on_c, 0, 45, 73
2, 54048, Note_on_c, 0, 64, 87
2, 54048, Note_on_c, 0, 67, 85
2, 54052, Note_on_c, 0, 60, 73
2, 54054, Note_on_c, 0, 65, 91
2, 54098, Note_off_c, 0, 65, 91
2, 54098, Note_off_c, 0, 60, 73
2, 54098, Note_off_c, 0, 67, 85
2, 54100, Note_off_c, 0, 45, 73
2, 54100, Note_off_c, 0, 33, 73
2, 54102, Note_off_c, 0, 64, 87
2, 54332, Note_on_c, 0, 62, 91
2, 54332, Note_on_c, 0, 60, 91
2, 54334, Note_on_c, 0, 38, 82
2, 54334, Note_on_c, 0, 50, 82
2, 54334, Note_on_c, 0, 57, 82
2, 54334, Note_on_c, 0, 65, 91
2, 54652, Note_off_c, 0, 50, 82
2, 54652, Note_off_c, 0, 38, 82
2, 54668, Note_off_c, 0, 60, 91
2, 54680, Note_off_c, 0, 62, 91
2, 54686, Note_off_c, 0, 65, 91
2, 54694, Note_off_c, 0, 57, 82
2, 54716, Note_on_c, 0, 36, 64
2, 54716, Note_on_c, 0, 48, 64
2, 54720, Note_on_c, 0, 60, 73
2, 54748, Note_off_c, 0, 48, 64
2, 54748, Note_off_c, 0, 36, 64
2, 54760, Note_off_c, 0, 60, 73
2, 54908, Note_on_c, 0, 60, 71
2, 54914, Note_on_c, 0, 48, 73
2, 54964, Note_off_c, 0, 60, 71
2, 54976, Note_off_c, 0, 48, 73
2, 55002, Note_on_c, 0, 62, 77
2, 55008, Note_on_c, 0, 50, 72
2, 55058, Note_off_c, 0, 62, 77
2, 55060, Note_off_c, 0, 50, 72
2, 55096, Note_on_c, 0, 65, 85
2, 55098, Note_on_c, 0, 53, 73
2, 55136, Note_off_c, 0, 53, 73
2, 55140, Note_off_c, 0, 65, 85
2, 55190, Note_on_c, 0, 62, 58
2, 55222, Note_off_c, 0, 62, 58
2, 55292, Note_on_c, 0, 34, 82
2, 55292, Note_on_c, 0, 46, 82
2, 55294, Note_on_c, 0, 58, 73
2, 55294, Note_on_c, 0, 65, 91
2, 55300, Note_on_c, 0, 62, 91
2, 55300, Note_on_c, 0, 57, 82
2, 55500, Note_off_c, 0, 65, 91
2, 55518, Note_off_c, 0, 57, 82
2, 55518, Note_off_c, 0, 62, 91
2, 55524, Note_off_c, 0, 58, 73
2, 55542, Note_off_c, 0, 46, 82
2, 55542, Note_off_c, 0, 34, 82
2, 55582, Note_on_c, 0, 33, 73
2, 55582, Note_on_c, 0, 45, 73
2, 55584, Note_on_c, 0, 64, 82
2, 55584, Note_on_c, 0, 57, 73
2, 55588, Note_on_c, 0, 65, 82
2, 55590, Note_on_c, 0, 60, 91
2, 55592, Note_on_c, 0, 55, 73
2, 55622, Note_off_c, 0, 55, 73
2, 55628, Note_off_c, 0, 60, 91
2, 55628, Note_off_c, 0, 64, 82
2, 55630, Note_off_c, 0, 57, 73
2, 55632, Note_off_c, 0, 65, 82
2, 55648, Note_off_c, 0, 45, 73
2, 55648, Note_off_c, 0, 33, 73
2, 55862, Note_on_c, 0, 31, 83
2, 55862, Note_on_c, 0, 43, 83
2, 55866, Note_on_c, 0, 58, 91
2, 55870, Note_on_c, 0, 65, 91
2, 55870, Note_on_c, 0, 55, 73
2, 55870, Note_on_c, 0, 62, 82
2, 55870, Note_on_c, 0, 53, 73
2, 56224, Note_off_c, 0, 53, 73
2, 56224, Note_off_c, 0, 55, 73
2, 56226, Note_off_c, 0, 58, 91
2, 56248, Note_off_c, 0, 65, 91
2, 56250, Note_off_c, 0, 62, 82
2, 56254, Note_on_c, 0, 36, 64
2, 56254, Note_on_c, 0, 48, 64
2, 56256, Note_off_c, 0, 43, 83
2, 56256, Note_off_c, 0, 31, 83
2, 56256, Note_on_c, 0, 55, 73
2, 56256, Note_on_c, 0, 65, 73
2, 56258, Note_on_c, 0, 58, 73
2, 56258, Note_on_c, 0, 62, 82
2, 56434, Note_off_c, 0, 48, 64
2, 56434, Note_off_c, 0, 36, 64
2, 56440, Note_off_c, 0, 55, 73
2, 56448, Note_off_c, 0, 65, 73
2, 56458, Note_off_c, 0, 62, 82
2, 56464, Note_off_c, 0, 58, 73
2, 56634, Note_on_c, 0, 55, 64
2, 56636, Note_on_c, 0, 58, 60
2, 56636, Note_on_c, 0, 65, 82
2, 56636, Note_on_c, 0, 62, 91
2, 56646, Note_on_c, 0, 36, 64
2, 56646, Note_on_c, 0, 48, 64
2, 56672, Note_off_c, 0, 55, 64
2, 56678, Note_off_c, 0, 62, 91
2, 56678, Note_off_c, 0, 65, 82
2, 56678, Note_off_c, 0, 58, 60
2, 56684, Note_off_c, 0, 48, 64
2, 56684, Note_off_c, 0, 36, 64
2, 56832, Note_on_c, 0, 29, 83
2, 56832, Note_on_c, 0, 41, 83
2, 56832, Note_on_c, 0, 69, 92
2, 56832, Note_on_c, 0, 65, 94
2, 56832, Note_on_c, 0, 60, 82
2, 57010, Note_off_c, 0, 69, 92
2, 57024, Note_off_c, 0, 60, 82
2, 57036, Note_off_c, 0, 65, 94
2, 57050, Note_off_c, 0, 41, 83
2, 57050, Note_off_c, 0, 29, 83
2, 57118, Note_on_c, 0, 33, 73
2, 57118, Note_on_c, 0, 45, 73
2, 57120, Note_on_c, 0, 64, 87
2, 57120, Note_on_c, 0, 67, 85
2, 57124, Note_on_c, 0, 60, 73
2, 57126, Note_on_c, 0, 65, 91
2, 57170, Note_off_c, 0, 65, 91
2, 57170, Note_off_c, 0, 60, 73
2, 57170, Note_off_c, 0, 67, 85
2, 57172, Note_off_c, 0, 45, 73
2, 57172, Note_off_c, 0, 33, 73
2, 57174, Note_off_c, 0, 64, 87
2, 57404, Note_on_c, 0, 62, 91
2, 57404, Note_on_c, 0, 60, 91
2, 57406, Note_on_c, 0, 38, 82
2, 57406, Note_on_c, 0, 50, 82
2, 57406, Note_on_c, 0, 57, 82
2, 57406, Note_on_c, 0, 65, 91
2, 57724, Note_off_c, 0, 50, 82
2, 57724, Note_off_c, 0, 38, 82
2, 57740, Note_off_c, 0, 60, 91
2, 57752, Note_off_c, 0, 62, 91
2, 57758, Note_off_c, 0, 65, 91
2, 57766, Note_off_c, 0, 57, 82
2, 57788, Note_on_c, 0, 36, 64
2, 57788, Note_on_c, 0, 48, 64
2, 57792, Note_on_c, 0, 60, 73
2, 57820, Note_off_c, 0, 48, 64
2, 57820, Note_off_c, 0, 36, 64
2, 57832, Note_off_c, 0, 60, 73
2, 57980, Note_on_c, 0, 60, 71
2, 57986, Note_on_c, 0, 48, 73
2, 58036, Note_off_c, 0, 60, 71
2, 58048, Note_off_c, 0, 48, 73
2, 58074, Note_on_c, 0, 62, 77
2, 58080, Note_on_c, 0, 50, 72
2, 58130, Note_off_c, 0, 62, 77
2, 58132, Note_off_c, 0, 50, 72
2, 58168, Note_on_c, 0, 65, 85
2, 58170, Note_on_c, 0, 53, 73
2, 58208, Note_off_c, 0, 53, 73
2, 58212, Note_off_c, 0, 65, 85
2, 58276, Note_on_c, 0, 36, 64
2, 58316, Note_on_c, 0, 37, 72
2, 58338, Note_off_c, 0, 36, 64
2, 58364, Note_on_c, 0, 34, 82
2, 58364, Note_on_c, 0, 46, 82
2, 58366, Note_on_c, 0, 58, 73
2, 58366, Note_on_c, 0, 65, 91
2, 58372, Note_on_c, 0, 62, 91
2, 58372, Note_on_c, 0, 57, 82
2, 58430, Note_off_c, 0, 37, 72
2, 58572, Note_off_c, 0, 65, 91
2, 58590, Note_off_c, 0, 57, 82
2, 58590, Note_off_c, 0, 62, 91
2, 58596, Note_off_c, 0, 58, 73
2, 58614, Note_off_c, 0, 46, 82
2, 58614, Note_off_c, 0, 34, 82
2, 58654, Note_on_c, 0, 33, 73
2, 58654, Note_on_c, 0, 45, 73
2, 58656, Note_on_c, 0, 64, 82
2, 58656, Note_on_c, 0, 57, 73
2, 58660, Note_on_c, 0, 65, 82
2, 58662, Note_on_c, 0, 60, 91
2, 58664, Note_on_c, 0, 55, 73
2, 58694, Note_off_c, 0, 55, 73
2, 58700, Note_off_c, 0, 60, 91
2, 58700, Note_off_c, 0, 64, 82
2, 58702, Note_off_c, 0, 57, 73
2, 58704, Note_off_c, 0, 65, 82
2, 58720, Note_off_c, 0, 45, 73
2, 58720, Note_off_c, 0, 33, 73
2, 58934, Note_on_c, 0, 31, 83
2, 58934, Note_on_c, 0, 43, 83
2, 58938, Note_on_c, 0, 58, 91
2, 58942, Note_on_c, 0, 65, 91
2, 58942, Note_on_c, 0, 55, 73
2, 58942, Note_on_c, 0, 62, 82
2, 58942, Note_on_c, 0, 53, 73
2, 59296, Note_off_c, 0, 53, 73
2, 59296, Note_off_c, 0, 55, 73
2, 59298, Note_off_c, 0, 58, 91
2, 59320, Note_off_c, 0, 65, 91
2, 59322, Note_off_c, 0, 62, 82
2, 59326, Note_on_c, 0, 36, 64
2, 59326, Note_on_c, 0, 48, 64
2, 59328, Note_off_c, 0, 43, 83
2, 59328, Note_off_c, 0, 31, 83
2, 59328, Note_on_c, 0, 55, 73
2, 59328, Note_on_c, 0, 65, 73
2, 59330, Note_on_c, 0, 58, 73
2, 59330, Note_on_c, 0, 62, 82
2, 59506, Note_off_c, 0, 48, 64
2, 59506, Note_off_c, 0, 36, 64
2, 59512, Note_off_c, 0, 55, 73
2, 59520, Note_off_c, 0, 65, 73
2, 59530, Note_off_c, 0, 62, 82
2, 59536, Note_off_c, 0, 58, 73
2, 59712, Note_on_c, 0, 58, 60
2, 59714, Note_on_c, 0, 36, 91
2, 59718, Note_on_c, 0, 62, 73
2, 59718, Note_on_c, 0, 65, 64
2, 59720, Note_on_c, 0, 48, 73
2, 59722, Note_on_c, 0, 55, 60
2, 59892, Note_off_c, 0, 58, 60
2, 59894, Note_off_c, 0, 48, 73
2, 59894, Note_off_c, 0, 62, 73
2, 59904, Note_off_c, 0, 65, 64
2, 59904, Note_on_c, 0, 46, 82
2, 59904, Note_on_c, 0, 34, 82
2, 59904, Note_on_c, 0, 58, 82
2, 59904, Note_on_c, 0, 57, 91
2, 59904, Note_on_c, 0, 65, 100
2, 59904, Note_on_c, 0, 62, 82
2, 59908, Note_off_c, 0, 55, 60
2, 59916, Note_off_c, 0, 36, 91
2, 60092, Note_off_c, 0, 58, 82
2, 60096, Note_off_c, 0, 65, 100
2, 60104, Note_off_c, 0, 46, 82
2, 60120, Note_off_c, 0, 57, 91
2, 60126, Note_off_c, 0, 62, 82
2, 60148, Note_off_c, 0, 34, 82
2, 60194, Note_on_c, 0, 58, 73
2, 60194, Note_on_c, 0, 57, 82
2, 60194, Note_on_c, 0, 62, 82
2, 60194, Note_on_c, 0, 65, 82
2, 60198, Note_on_c, 0, 46, 82
2, 60198, Note_on_c, 0, 34, 82
2, 60224, Note_off_c, 0, 57, 82
2, 60226, Note_off_c, 0, 62, 82
2, 60228, Note_off_c, 0, 65, 82
2, 60236, Note_off_c, 0, 34, 82
2, 60236, Note_off_c, 0, 46, 82
2, 60246, Note_off_c, 0, 58, 73
2, 60478, Note_on_c, 0, 65, 88
2, 60478, Note_on_c, 0, 62, 92
2, 60478, Note_on_c, 0, 57, 82
2, 60478, Note_on_c, 0, 58, 84
2, 60482, Note_on_c, 0, 46, 64
2, 60482, Note_on_c, 0, 34, 64
2, 60754, Note_off_c, 0, 65, 88
2, 60758, Note_off_c, 0, 57, 82
2, 60762, Note_off_c, 0, 62, 92
2, 60766, Note_off_c, 0, 58, 84
2, 60866, Note_on_c, 0, 58, 80
2, 60868, Note_on_c, 0, 65, 85
2, 60868, Note_on_c, 0, 62, 82
2, 60868, Note_on_c, 0, 57, 82
2, 60986, Note_off_c, 0, 34, 64
2, 60986, Note_off_c, 0, 46, 64
2, 61052, Note_on_c, 0, 46, 56
2, 61052, Note_on_c, 0, 34, 56
2, 61078, Note_off_c, 0, 34, 56
2, 61078, Note_off_c, 0, 46, 56
2, 61098, Note_off_c, 0, 65, 85
2, 61102, Note_off_c, 0, 57, 82
2, 61102, Note_off_c, 0, 62, 82
2, 61104, Note_off_c, 0, 58, 80
2, 61244, Note_on_c, 0, 57, 91
2, 61246, Note_on_c, 0, 46, 60
2, 61246, Note_on_c, 0, 34, 60
2, 61246, Note_on_c, 0, 58, 64
2, 61246, Note_on_c, 0, 65, 91
2, 61248, Note_on_c, 0, 62, 73
2, 61258, Note_off_c, 0, 62, 73
2, 61264, Note_off_c, 0, 58, 64
2, 61272, Note_off_c, 0, 65, 91
2, 61274, Note_off_c, 0, 34, 60
2, 61274, Note_off_c, 0, 46, 60
2, 61284, Note_off_c, 0, 57, 91
2, 61442, Note_on_c, 0, 46, 73
2, 61442, Note_on_c, 0, 34, 73
2, 61442, Note_on_c, 0, 62, 91
2, 61442, Note_on_c, 0, 58, 91
2, 61442, Note_on_c, 0, 57, 91
2, 61444, Note_on_c, 0, 65, 98
2, 61680, Note_off_c, 0, 57, 91
2, 61682, Note_off_c, 0, 62, 91
2, 61684, Note_off_c, 0, 65, 98
2, 61688, Note_off_c, 0, 58, 91
2, 61692, Note_off_c, 0, 34, 73
2, 61692, Note_off_c, 0, 46, 73
2, 61732, Note_on_c, 0, 65, 91
2, 61732, Note_on_c, 0, 62, 91
2, 61732, Note_on_c, 0, 57, 82
2, 61732, Note_on_c, 0, 58, 73
2, 61734, Note_on_c, 0, 46, 56
2, 61734, Note_on_c, 0, 34, 56
2, 61760, Note_off_c, 0, 65, 91
2, 61766, Note_off_c, 0, 57, 82
2, 61768, Note_off_c, 0, 58, 73
2, 61770, Note_off_c, 0, 62, 91
2, 61776, Note_off_c, 0, 34, 56
2, 61776, Note_off_c, 0, 46, 56
2, 62014, Note_on_c, 0, 46, 64
2, 62014, Note_on_c, 0, 34, 64
2, 62016, Note_on_c, 0, 58, 82
2, 62018, Note_on_c, 0, 62, 91
2, 62020, Note_on_c, 0, 65, 91
2, 62022, Note_on_c, 0, 57, 91
2, 62340, Note_off_c, 0, 65, 91
2, 62344, Note_off_c, 0, 62, 91
2, 62348, Note_off_c, 0, 57, 91
2, 62358, Note_off_c, 0, 58, 82
2, 62398, Note_on_c, 0, 57, 91
2, 62402, Note_on_c, 0, 58, 64
2, 62402, Note_on_c, 0, 65, 82
2, 62402, Note_on_c, 0, 62, 91
2, 62546, Note_off_c, 0, 34, 64
2, 62546, Note_off_c, 0, 46, 64
2, 62590, Note_on_c, 0, 46, 44
2, 62590, Note_on_c, 0, 34, 44
2, 62604, Note_off_c, 0, 65, 82
2, 62606, Note_off_c, 0, 58, 64
2, 62614, Note_off_c, 0, 62, 91
2, 62614, Note_off_c, 0, 57, 91
2, 62630, Note_off_c, 0, 34, 44
2, 62630, Note_off_c, 0, 46, 44
2, 62780, Note_on_c, 0, 46, 60
2, 62780, Note_on_c, 0, 34, 60
2, 62784, Note_on_c, 0, 62, 85
2, 62786, Note_on_c, 0, 67, 91
2, 62786, Note_on_c, 0, 58, 93
2, 62786, Note_on_c, 0, 65, 87
2, 62814, Note_off_c, 0, 58, 93
2, 62820, Note_off_c, 0, 65, 87
2, 62824, Note_off_c, 0, 67, 91
2, 62832, Note_off_c, 0, 34, 60
2, 62832, Note_off_c, 0, 46, 60
2, 62836, Note_off_c, 0, 62, 85
2, 62976, Note_on_c, 0, 60, 82
2, 62976, Note_on_c, 0, 55, 91
2, 62976, Note_on_c, 0, 45, 82
2, 62976, Note_on_c, 0, 33, 82
2, 62976, Note_on_c, 0, 57, 82
2, 62976, Note_on_c, 0, 64, 100
2, 63188, Note_off_c, 0, 64, 100
2, 63192, Note_off_c, 0, 55, 91
2, 63198, Note_off_c, 0, 60, 82
2, 63208, Note_off_c, 0, 57, 82
2, 63220, Note_off_c, 0, 33, 82
2, 63220, Note_off_c, 0, 45, 82
2, 63266, Note_on_c, 0, 60, 82
2, 63266, Note_on_c, 0, 57, 73
2, 63266, Note_on_c, 0, 55, 82
2, 63266, Note_on_c, 0, 64, 82
2, 63270, Note_on_c, 0, 45, 82
2, 63270, Note_on_c, 0, 33, 82
2, 63296, Note_off_c, 0, 55, 82
2, 63298, Note_off_c, 0, 60, 82
2, 63300, Note_off_c, 0, 64, 82
2, 63308, Note_off_c, 0, 33, 82
2, 63308, Note_off_c, 0, 45, 82
2, 63318, Note_off_c, 0, 57, 73
2, 63554, Note_on_c, 0, 60, 91
2, 63554, Note_on_c, 0, 45, 64
2, 63554, Note_on_c, 0, 33, 64
2, 63554, Note_on_c, 0, 55, 91
2, 63554, Note_on_c, 0, 57, 82
2, 63556, Note_on_c, 0, 64, 91
2, 64016, Note_off_c, 0, 55, 91
2, 64058, Note_off_c, 0, 33, 64
2, 64058, Note_off_c, 0, 45, 64
2, 64118, Note_off_c, 0, 64, 91
2, 64122, Note_off_c, 0, 57, 82
2, 64122, Note_on_c, 0, 55, 72
2, 64124, Note_on_c, 0, 45, 56
2, 64124, Note_on_c, 0, 33, 56
2, 64130, Note_off_c, 0, 60, 91
2, 64150, Note_off_c, 0, 33, 56
2, 64150, Note_off_c, 0, 45, 56
2, 64174, Note_off_c, 0, 55, 72
2, 64316, Note_on_c, 0, 55, 91
2, 64318, Note_on_c, 0, 45, 60
2, 64318, Note_on_c, 0, 33, 60
2, 64318, Note_on_c, 0, 57, 64
2, 64318, Note_on_c, 0, 64, 91
2, 64320, Note_on_c, 0, 60, 73
2, 64330, Note_off_c, 0, 60, 73
2, 64336, Note_off_c, 0, 57, 64
2, 64344, Note_off_c, 0, 64, 91
2, 64346, Note_off_c, 0, 33, 60
2, 64346, Note_off_c, 0, 45, 60
2, 64356, Note_off_c, 0, 55, 91
2, 64512, Note_on_c, 0, 38, 73
2, 64512, Note_on_c, 0, 50, 73
2, 64514, Note_on_c, 0, 62, 91
2, 64514, Note_on_c, 0, 60, 91
2, 64514, Note_on_c, 0, 57, 91
2, 64516, Note_on_c, 0, 65, 98
2, 64752, Note_off_c, 0, 57, 91
2, 64754, Note_off_c, 0, 62, 91
2, 64756, Note_off_c, 0, 65, 98
2, 64760, Note_off_c, 0, 60, 91
2, 64762, Note_off_c, 0, 50, 73
2, 64762, Note_off_c, 0, 38, 73
2, 64804, Note_on_c, 0, 38, 56
2, 64804, Note_on_c, 0, 50, 56
2, 64804, Note_on_c, 0, 65, 91
2, 64804, Note_on_c, 0, 62, 91
2, 64804, Note_on_c, 0, 57, 82
2, 64804, Note_on_c, 0, 60, 73
2, 64832, Note_off_c, 0, 65, 91
2, 64838, Note_off_c, 0, 57, 82
2, 64840, Note_off_c, 0, 60, 73
2, 64842, Note_off_c, 0, 62, 91
2, 64846, Note_off_c, 0, 50, 56
2, 64846, Note_off_c, 0, 38, 56
2, 65084, Note_on_c, 0, 38, 64
2, 65084, Note_on_c, 0, 50, 64
2, 65090, Note_on_c, 0, 60, 82
2, 65092, Note_on_c, 0, 62, 91
2, 65092, Note_on_c, 0, 65, 91
2, 65092, Note_on_c, 0, 57, 82
2, 65444, Note_off_c, 0, 50, 64
2, 65444, Note_off_c, 0, 38, 64
2, 65450, Note_off_c, 0, 60, 82
2, 65452, Note_off_c, 0, 65, 91
2, 65468, Note_on_c, 0, 50, 44
2, 65468, Note_on_c, 0, 38, 44
2, 65470, Note_off_c, 0, 57, 82
2, 65472, Note_off_c, 0, 62, 91
2, 65474, Note_on_c, 0, 65, 73
2, 65474, Note_on_c, 0, 62, 73
2, 65474, Note_on_c, 0, 60, 64
2, 65474, Note_on_c, 0, 57, 82
2, 65496, Note_off_c, 0, 65, 73
2, 65508, Note_off_c, 0, 38, 44
2, 65508, Note_off_c, 0, 50, 44
2, 65510, Note_off_c, 0, 57, 82
2, 65510, Note_off_c, 0, 62, 73
2, 65514, Note_off_c, 0, 60, 64
2, 65658, Note_on_c, 0, 48, 60
2, 65658, Note_on_c, 0, 36, 60
2, 65664, Note_on_c, 0, 60, 85
2, 65666, Note_on_c, 0, 62, 87
2, 65666, Note_on_c, 0, 57, 93
2, 65666, Note_on_c, 0, 65, 91
2, 65694, Note_off_c, 0, 57, 93
2, 65700, Note_off_c, 0, 62, 87
2, 65704, Note_off_c, 0, 65, 91
2, 65710, Note_off_c, 0, 36, 60
2, 65710, Note_off_c, 0, 48, 60
2, 65716, Note_off_c, 0, 60, 85
2, 66048, Note_on_c, 0, 46, 82
2, 66048, Note_on_c, 0, 34, 82
2, 66048, Note_on_c, 0, 58, 82
2, 66048, Note_on_c, 0, 57, 91
2, 66048, Note_on_c, 0, 65, 100
2, 66048, Note_on_c, 0, 62, 82
2, 66260, Note_off_c, 0, 65, 100
2, 66264, Note_off_c, 0, 57, 91
2, 66270, Note_off_c, 0, 62, 82
2, 66280, Note_off_c, 0, 58, 82
2, 66292, Note_off_c, 0, 34, 82
2, 66292, Note_off_c, 0, 46, 82
2, 66338, Note_on_c, 0, 58, 73
2, 66338, Note_on_c, 0, 57, 82
2, 66338, Note_on_c, 0, 62, 82
2, 66338, Note_on_c, 0, 65, 82
2, 66342, Note_on_c, 0, 46, 82
2, 66342, Note_on_c, 0, 34, 82
2, 66368, Note_off_c, 0, 57, 82
2, 66370, Note_off_c, 0, 62, 82
2, 66372, Note_off_c, 0, 65, 82
2, 66380, Note_off_c, 0, 34, 82
2, 66380, Note_off_c, 0, 46, 82
2, 66390, Note_off_c, 0, 58, 73
2, 66620, Note_on_c, 0, 58, 64
2, 66624, Note_on_c, 0, 62, 86
2, 66626, Note_on_c, 0, 65, 92
2, 66626, Note_on_c, 0, 46, 64
2, 66626, Note_on_c, 0, 34, 64
2, 66628, Note_on_c, 0, 57, 85
2, 66940, Note_off_c, 0, 65, 92
2, 66950, Note_off_c, 0, 57, 85
2, 66950, Note_off_c, 0, 58, 64
2, 66954, Note_off_c, 0, 62, 86
2, 67010, Note_on_c, 0, 62, 73
2, 67012, Note_on_c, 0, 65, 82
2, 67012, Note_on_c, 0, 58, 60
2, 67014, Note_on_c, 0, 57, 82
2, 67046, Note_on_c, 0, 38, 56
2, 67090, Note_on_c, 0, 41, 64
2, 67124, Note_on_c, 0, 43, 64
2, 67126, Note_off_c, 0, 38, 56
2, 67130, Note_off_c, 0, 34, 64
2, 67130, Note_off_c, 0, 46, 64
2, 67160, Note_off_c, 0, 41, 64
2, 67166, Note_on_c, 0, 45, 73
2, 67196, Note_on_c, 0, 34, 56
2, 67206, Note_off_c, 0, 43, 64
2, 67214, Note_off_c, 0, 57, 82
2, 67222, Note_off_c, 0, 34, 56
2, 67228, Note_off_c, 0, 65, 82
2, 67230, Note_off_c, 0, 58, 60
2, 67230, Note_off_c, 0, 62, 73
2, 67248, Note_off_c, 0, 45, 73
2, 67388, Note_on_c, 0, 57, 91
2, 67390, Note_on_c, 0, 46, 60
2, 67390, Note_on_c, 0, 34, 60
2, 67390, Note_on_c, 0, 58, 64
2, 67390, Note_on_c, 0, 65, 91
2, 67392, Note_on_c, 0, 62, 73
2, 67402, Note_off_c, 0, 62, 73
2, 67408, Note_off_c, 0, 58, 64
2, 67416, Note_off_c, 0, 65, 91
2, 67418, Note_off_c, 0, 34, 60
2, 67418, Note_off_c, 0, 46, 60
2, 67428, Note_off_c, 0, 57, 91
2, 67586, Note_on_c, 0, 46, 73
2, 67586, Note_on_c, 0, 34, 73
2, 67586, Note_on_c, 0, 62, 91
2, 67586, Note_on_c, 0, 58, 91
2, 67586, Note_on_c, 0, 57, 91
2, 67588, Note_on_c, 0, 65, 98
2, 67824, Note_off_c, 0, 57, 91
2, 67826, Note_off_c, 0, 62, 91
2, 67828, Note_off_c, 0, 65, 98
2, 67832, Note_off_c, 0, 58, 91
2, 67836, Note_off_c, 0, 34, 73
2, 67836, Note_off_c, 0, 46, 73
2, 67876, Note_on_c, 0, 65, 91
2, 67876, Note_on_c, 0, 62, 91
2, 67876, Note_on_c, 0, 57, 82
2, 67876, Note_on_c, 0, 58, 73
2, 67878, Note_on_c, 0, 46, 56
2, 67878, Note_on_c, 0, 34, 56
2, 67904, Note_off_c, 0, 65, 91
2, 67910, Note_off_c, 0, 57, 82
2, 67912, Note_off_c, 0, 58, 73
2, 67914, Note_off_c, 0, 62, 91
2, 67920, Note_off_c, 0, 34, 56
2, 67920, Note_off_c, 0, 46, 56
2, 68158, Note_on_c, 0, 46, 64
2, 68158, Note_on_c, 0, 34, 64
2, 68164, Note_on_c, 0, 58, 80
2, 68166, Note_on_c, 0, 57, 83
2, 68166, Note_on_c, 0, 62, 89
2, 68166, Note_on_c, 0, 65, 86
2, 68450, Note_off_c, 0, 65, 86
2, 68460, Note_off_c, 0, 62, 89
2, 68464, Note_off_c, 0, 57, 83
2, 68472, Note_off_c, 0, 58, 80
2, 68546, Note_on_c, 0, 57, 82
2, 68546, Note_on_c, 0, 62, 82
2, 68546, Note_on_c, 0, 58, 73
2, 68548, Note_on_c, 0, 65, 73
2, 68690, Note_off_c, 0, 34, 64
2, 68690, Note_off_c, 0, 46, 64
2, 68734, Note_on_c, 0, 46, 44
2, 68734, Note_on_c, 0, 34, 44
2, 68754, Note_off_c, 0, 57, 82
2, 68756, Note_off_c, 0, 65, 73
2, 68766, Note_off_c, 0, 58, 73
2, 68766, Note_off_c, 0, 62, 82
2, 68774, Note_off_c, 0, 34, 44
2, 68774, Note_off_c, 0, 46, 44
2, 68924, Note_on_c, 0, 46, 60
2, 68924, Note_on_c, 0, 34, 60
2, 68928, Note_on_c, 0, 62, 85
2, 68930, Note_on_c, 0, 67, 91
2, 68930, Note_on_c, 0, 58, 93
2, 68930, Note_on_c, 0, 65, 87
2, 68958, Note_off_c, 0, 58, 93
2, 68964, Note_off_c, 0, 65, 87
2, 68968, Note_off_c, 0, 67, 91
2, 68976, Note_off_c, 0, 34, 60
2, 68976, Note_off_c, 0, 46, 60
2, 68980, Note_off_c, 0, 62, 85
2, 69120, Note_on_c, 0, 60, 82
2, 69120, Note_on_c, 0, 55, 91
2, 69120, Note_on_c, 0, 45, 82
2, 69120, Note_on_c, 0, 33, 82
2, 69120, Note_on_c, 0, 57, 82
2, 69120, Note_on_c, 0, 64, 100
2, 69332, Note_off_c, 0, 64, 100
2, 69336, Note_off_c, 0, 55, 91
2, 69342, Note_off_c, 0, 60, 82
2, 69352, Note_off_c, 0, 57, 82
2, 69364, Note_off_c, 0, 33, 82
2, 69364, Note_off_c, 0, 45, 82
2, 69410, Note_on_c, 0, 60, 82
2, 69410, Note_on_c, 0, 57, 73
2, 69410, Note_on_c, 0, 55, 82
2, 69410, Note_on_c, 0, 64, 82
2, 69414, Note_on_c, 0, 45, 82
2, 69414, Note_on_c, 0, 33, 82
2, 69440, Note_off_c, 0, 55, 82
2, 69442, Note_off_c, 0, 60, 82
2, 69444, Note_off_c, 0, 64, 82
2, 69452, Note_off_c, 0, 33, 82
2, 69452, Note_off_c, 0, 45, 82
2, 69462, Note_off_c, 0, 57, 73
2, 69698, Note_on_c, 0, 60, 91
2, 69698, Note_on_c, 0, 45, 64
2, 69698, Note_on_c, 0, 33, 64
2, 69698, Note_on_c, 0, 55, 91
2, 69698, Note_on_c, 0, 57, 82
2, 69700, Note_on_c, 0, 64, 91
2, 70160, Note_off_c, 0, 55, 91
2, 70202, Note_off_c, 0, 33, 64
2, 70202, Note_off_c, 0, 45, 64
2, 70262, Note_off_c, 0, 64, 91
2, 70266, Note_off_c, 0, 57, 82
2, 70268, Note_on_c, 0, 33, 56
2, 70272, Note_on_c, 0, 43, 91
2, 70274, Note_off_c, 0, 60, 91
2, 70294, Note_off_c, 0, 33, 56
2, 70316, Note_on_c, 0, 45, 78
2, 70320, Note_off_c, 0, 43, 91
2, 70366, Note_on_c, 0, 48, 64
2, 70400, Note_off_c, 0, 45, 78
2, 70444, Note_off_c, 0, 48, 64
2, 70462, Note_on_c, 0, 64, 73
2, 70462, Note_on_c, 0, 45, 69
2, 70462, Note_on_c, 0, 33, 60
2, 70462, Note_on_c, 0, 60, 52
2, 70464, Note_on_c, 0, 55, 82
2, 70464, Note_on_c, 0, 57, 64
2, 70490, Note_off_c, 0, 33, 60
2, 70638, Note_off_c, 0, 55, 82
2, 70642, Note_off_c, 0, 45, 69
2, 70646, Note_off_c, 0, 57, 64
2, 70648, Note_off_c, 0, 60, 52
2, 70648, Note_off_c, 0, 64, 73
2, 70656, Note_on_c, 0, 38, 73
2, 70656, Note_on_c, 0, 50, 73
2, 70658, Note_on_c, 0, 62, 91
2, 70658, Note_on_c, 0, 60, 91
2, 70658, Note_on_c, 0, 57, 91
2, 70660, Note_on_c, 0, 65, 98
2, 70896, Note_off_c, 0, 57, 91
2, 70898, Note_off_c, 0, 62, 91
2, 70900, Note_off_c, 0, 65, 98
2, 70904, Note_off_c, 0, 60, 91
2, 70906, Note_off_c, 0, 50, 73
2, 70906, Note_off_c, 0, 38, 73
2, 70948, Note_on_c, 0, 38, 56
2, 70948, Note_on_c, 0, 50, 56
2, 70948, Note_on_c, 0, 65, 91
2, 70948, Note_on_c, 0, 62, 91
2, 70948, Note_on_c, 0, 57, 82
2, 70948, Note_on_c, 0, 60, 73
2, 70976, Note_off_c, 0, 65, 91
2, 70982, Note_off_c, 0, 57, 82
2, 70984, Note_off_c, 0, 60, 73
2, 70986, Note_off_c, 0, 62, 91
2, 70990, Note_off_c, 0, 50, 56
2, 70990, Note_off_c, 0, 38, 56
2, 71228, Note_on_c, 0, 38, 64
2, 71228, Note_on_c, 0, 50, 64
2, 71234, Note_on_c, 0, 60, 82
2, 71236, Note_on_c, 0, 62, 91
2, 71236, Note_on_c, 0, 65, 91
2, 71236, Note_on_c, 0, 57, 82
2, 71388, Note_off_c, 0, 50, 64
2, 71388, Note_off_c, 0, 38, 64
2, 71394, Note_off_c, 0, 60, 82
2, 71396, Note_off_c, 0, 57, 82
2, 71396, Note_off_c, 0, 62, 91
2, 71416, Note_off_c, 0, 65, 91
2, 71424, Note_on_c, 0, 38, 82
2, 71428, Note_on_c, 0, 65, 64
2, 71428, Note_on_c, 0, 62, 82
2, 71428, Note_on_c, 0, 50, 73
2, 71428, Note_on_c, 0, 60, 82
2, 71430, Note_on_c, 0, 57, 73
2, 71724, Note_off_c, 0, 50, 73
2, 71726, Note_off_c, 0, 38, 82
2, 71738, Note_off_c, 0, 60, 82
2, 71744, Note_off_c, 0, 57, 73
2, 71760, Note_off_c, 0, 62, 82
2, 71764, Note_off_c, 0, 65, 64
2, 71806, Note_on_c, 0, 65, 82
2, 71808, Note_on_c, 0, 57, 91
2, 71808, Note_on_c, 0, 60, 91
2, 72172, Note_off_c, 0, 57, 91
2, 72174, Note_off_c, 0, 60, 91
2, 72176, Note_off_c, 0, 65, 82
2, 72192, Note_on_c, 0, 62, 82
2, 72192, Note_on_c, 0, 65, 100
2, 72192, Note_on_c, 0, 57, 91
2, 72192, Note_on_c, 0, 58, 82
2, 72192, Note_on_c, 0, 34, 82
2, 72192, Note_on_c, 0, 46, 82
2, 72404, Note_off_c, 0, 65, 100
2, 72408, Note_off_c, 0, 57, 91
2, 72414, Note_off_c, 0, 62, 82
2, 72424, Note_off_c, 0, 58, 82
2, 72436, Note_off_c, 0, 46, 82
2, 72436, Note_off_c, 0, 34, 82
2, 72482, Note_on_c, 0, 58, 73
2, 72482, Note_on_c, 0, 57, 82
2, 72482, Note_on_c, 0, 62, 82
2, 72482, Note_on_c, 0, 65, 82
2, 72486, Note_on_c, 0, 46, 82
2, 72486, Note_on_c, 0, 34, 82
2, 72512, Note_off_c, 0, 57, 82
2, 72514, Note_off_c, 0, 62, 82
2, 72516, Note_off_c, 0, 65, 82
2, 72524, Note_off_c, 0, 34, 82
2, 72524, Note_off_c, 0, 46, 82
2, 72534, Note_off_c, 0, 58, 73
2, 72764, Note_on_c, 0, 65, 82
2, 72764, Note_on_c, 0, 62, 82
2, 72764, Note_on_c, 0, 58, 80
2, 72766, Note_on_c, 0, 57, 82
2, 72770, Note_on_c, 0, 46, 64
2, 72770, Note_on_c, 0, 34, 64
2, 73086, Note_off_c, 0, 57, 82
2, 73090, Note_off_c, 0, 65, 82
2, 73094, Note_off_c, 0, 62, 82
2, 73100, Note_off_c, 0, 58, 80
2, 73146, Note_on_c, 0, 65, 91
2, 73146, Note_on_c, 0, 62, 82
2, 73146, Note_on_c, 0, 58, 60
2, 73148, Note_on_c, 0, 57, 73
2, 73274, Note_off_c, 0, 34, 64
2, 73274, Note_off_c, 0, 46, 64
2, 73340, Note_on_c, 0, 46, 56
2, 73340, Note_on_c, 0, 34, 56
2, 73362, Note_off_c, 0, 57, 73
2, 73366, Note_off_c, 0, 34, 56
2, 73366, Note_off_c, 0, 46, 56
2, 73376, Note_off_c, 0, 65, 91
2, 73378, Note_off_c, 0, 62, 82
2, 73380, Note_off_c, 0, 58, 60
2, 73532, Note_on_c, 0, 57, 91
2, 73534, Note_on_c, 0, 46, 60
2, 73534, Note_on_c, 0, 34, 60
2, 73534, Note_on_c, 0, 58, 64
2, 73534, Note_on_c, 0, 65, 91
2, 73536, Note_on_c, 0, 62, 73
2, 73546, Note_off_c, 0, 62, 73
2, 73552, Note_off_c, 0, 58, 64
2, 73560, Note_off_c, 0, 65, 91
2, 73562, Note_off_c, 0, 34, 60
2, 73562, Note_off_c, 0, 46, 60
2, 73572, Note_off_c, 0, 57, 91
2, 73730, Note_on_c, 0, 46, 73
2, 73730, Note_on_c, 0, 34, 73
2, 73730, Note_on_c, 0, 62, 91
2, 73730, Note_on_c, 0, 58, 91
2, 73730, Note_on_c, 0, 57, 91
2, 73732, Note_on_c, 0, 65, 98
2, 73968, Note_off_c, 0, 57, 91
2, 73970, Note_off_c, 0, 62, 91
2, 73972, Note_off_c, 0, 65, 98
2, 73976, Note_off_c, 0, 58, 91
2, 73980, Note_off_c, 0, 34, 73
2, 73980, Note_off_c, 0, 46, 73
2, 74020, Note_on_c, 0, 65, 91
2, 74020, Note_on_c, 0, 62, 91
2, 74020, Note_on_c, 0, 57, 82
2, 74020, Note_on_c, 0, 58, 73
2, 74022, Note_on_c, 0, 46, 56
2, 74022, Note_on_c, 0, 34, 56
2, 74048, Note_off_c, 0, 65, 91
2, 74054, Note_off_c, 0, 57, 82
2, 74056, Note_off_c, 0, 58, 73
2, 74058, Note_off_c, 0, 62, 91
2, 74064, Note_off_c, 0, 34, 56
2, 74064, Note_off_c, 0, 46, 56
2, 74302, Note_on_c, 0, 46, 64
2, 74302, Note_on_c, 0, 34, 64
2, 74306, Note_on_c, 0, 58, 82
2, 74308, Note_on_c, 0, 62, 91
2, 74308, Note_on_c, 0, 65, 91
2, 74308, Note_on_c, 0, 57, 82
2, 74662, Note_off_c, 0, 34, 64
2, 74662, Note_off_c, 0, 46, 64
2, 74680, Note_on_c, 0, 33, 107
2, 74806, Note_off_c, 0, 65, 91
2, 74812, Note_off_c, 0, 57, 82
2, 74816, Note_off_c, 0, 62, 91
2, 74838, Note_off_c, 0, 33, 107
2, 74838, Note_off_c, 0, 58, 82
2, 74872, Note_on_c, 0, 34, 107
2, 74878, Note_on_c, 0, 58, 73
2, 74882, Note_on_c, 0, 65, 82
2, 74882, Note_on_c, 0, 57, 82
2, 74882, Note_on_c, 0, 62, 82
2, 75020, Note_off_c, 0, 34, 107
2, 75062, Note_on_c, 0, 35, 113
2, 75230, Note_off_c, 0, 35, 113
2, 75244, Note_off_c, 0, 65, 82
2, 75246, Note_off_c, 0, 58, 73
2, 75250, Note_off_c, 0, 57, 82
2, 75254, Note_off_c, 0, 62, 82
2, 75264, Note_on_c, 0, 48, 91
2, 75264, Note_on_c, 0, 36, 82
2, 75264, Note_on_c, 0, 65, 82
2, 75266, Note_on_c, 0, 62, 91
2, 75268, Note_on_c, 0, 58, 82
2, 75270, Note_on_c, 0, 55, 91
2, 75462, Note_off_c, 0, 65, 82
2, 75474, Note_off_c, 0, 55, 91
2, 75474, Note_off_c, 0, 62, 91
2, 75478, Note_off_c, 0, 58, 82
2, 75508, Note_off_c, 0, 36, 82
2, 75512, Note_off_c, 0, 48, 91
2, 75550, Note_on_c, 0, 58, 82
2, 75554, Note_on_c, 0, 65, 64
2, 75554, Note_on_c, 0, 62, 91
2, 75554, Note_on_c, 0, 55, 91
2, 75572, Note_on_c, 0, 48, 91
2, 75572, Note_on_c, 0, 36, 82
2, 75600, Note_off_c, 0, 55, 91
2, 75606, Note_off_c, 0, 58, 82
2, 75612, Note_off_c, 0, 62, 91
2, 75616, Note_off_c, 0, 65, 64
2, 75624, Note_off_c, 0, 36, 82
2, 75626, Note_off_c, 0, 48, 91
2, 75838, Note_on_c, 0, 65, 89
2, 75838, Note_on_c, 0, 62, 91
2, 75838, Note_on_c, 0, 55, 82
2, 75838, Note_on_c, 0, 58, 82
2, 75842, Note_on_c, 0, 48, 82
2, 75842, Note_on_c, 0, 36, 82
2, 76468, Note_off_c, 0, 36, 82
2, 76472, Note_off_c, 0, 48, 82
2, 76612, Note_on_c, 0, 46, 73
2, 76622, Note_off_c, 0, 65, 89
2, 76630, Note_off_c, 0, 55, 82
2, 76632, Note_off_c, 0, 62, 91
2, 76636, Note_off_c, 0, 58, 82
2, 76678, Note_off_c, 0, 46, 73
2, 76704, Note_on_c, 0, 47, 82
2, 76774, Note_off_c, 0, 47, 82
2, 76794, Note_on_c, 0, 36, 82
2, 76798, Note_on_c, 0, 48, 91
2, 76802, Note_on_c, 0, 58, 91
2, 76804, Note_on_c, 0, 62, 91
2, 76806, Note_on_c, 0, 55, 91
2, 76806, Note_on_c, 0, 65, 91
2, 76972, Note_off_c, 0, 65, 91
2, 76978, Note_off_c, 0, 55, 91
2, 76994, Note_off_c, 0, 62, 91
2, 77008, Note_off_c, 0, 58, 91
2, 77058, Note_off_c, 0, 48, 91
2, 77064, Note_off_c, 0, 36, 82
2, 77094, Note_on_c, 0, 62, 91
2, 77096, Note_on_c, 0, 55, 91
2, 77096, Note_on_c, 0, 65, 82
2, 77096, Note_on_c, 0, 58, 82
2, 77100, Note_on_c, 0, 36, 73
2, 77102, Note_on_c, 0, 48, 82
2, 77126, Note_off_c, 0, 55, 91
2, 77132, Note_off_c, 0, 65, 82
2, 77140, Note_off_c, 0, 58, 82
2, 77150, Note_off_c, 0, 36, 73
2, 77150, Note_off_c, 0, 62, 91
2, 77152, Note_off_c, 0, 48, 82
2, 77374, Note_on_c, 0, 48, 91
2, 77374, Note_on_c, 0, 36, 82
2, 77374, Note_on_c, 0, 58, 91
2, 77376, Note_on_c, 0, 55, 82
2, 77376, Note_on_c, 0, 62, 100
2, 77378, Note_on_c, 0, 65, 82
2, 77982, Note_off_c, 0, 48, 91
2, 77986, Note_off_c, 0, 36, 82
2, 78054, Note_off_c, 0, 55, 82
2, 78072, Note_off_c, 0, 58, 91
2, 78080, Note_off_c, 0, 62, 100
2, 78086, Note_off_c, 0, 65, 82
2, 78146, Note_on_c, 0, 46, 64
2, 78226, Note_off_c, 0, 46, 64
2, 78238, Note_on_c, 0, 47, 64
2, 78306, Note_off_c, 0, 47, 64
2, 78328, Note_on_c, 0, 36, 82
2, 78332, Note_on_c, 0, 48, 91
2, 78332, Note_on_c, 0, 69, 91
2, 78332, Note_on_c, 0, 65, 82
2, 78334, Note_on_c, 0, 62, 91
2, 78338, Note_on_c, 0, 58, 91
2, 78530, Note_off_c, 0, 62, 91
2, 78536, Note_off_c, 0, 58, 91
2, 78540, Note_off_c, 0, 69, 91
2, 78546, Note_off_c, 0, 65, 82
2, 78592, Note_off_c, 0, 36, 82
2, 78594, Note_off_c, 0, 48, 91
2, 78620, Note_on_c, 0, 58, 82
2, 78626, Note_on_c, 0, 62, 73
2, 78626, Note_on_c, 0, 69, 91
2, 78626, Note_on_c, 0, 65, 91
2, 78636, Note_on_c, 0, 48, 82
2, 78638, Note_on_c, 0, 36, 82
2, 78654, Note_off_c, 0, 69, 91
2, 78654, Note_off_c, 0, 62, 73
2, 78660, Note_off_c, 0, 65, 91
2, 78668, Note_off_c, 0, 58, 82
2, 78676, Note_off_c, 0, 36, 82
2, 78680, Note_off_c, 0, 48, 82
2, 78908, Note_on_c, 0, 48, 91
2, 78908, Note_on_c, 0, 36, 91
2, 78910, Note_on_c, 0, 65, 91
2, 78914, Note_on_c, 0, 62, 91
2, 78914, Note_on_c, 0, 69, 91
2, 78914, Note_on_c, 0, 58, 82
2, 79542, Note_off_c, 0, 48, 91
2, 79550, Note_off_c, 0, 36, 91
2, 79684, Note_on_c, 0, 46, 73
2, 79686, Note_off_c, 0, 62, 91
2, 79688, Note_off_c, 0, 69, 91
2, 79694, Note_off_c, 0, 58, 82
2, 79698, Note_off_c, 0, 65, 91
2, 79746, Note_off_c, 0, 46, 73
2, 79780, Note_on_c, 0, 47, 91
2, 79834, Note_off_c, 0, 47, 91
2, 79864, Note_on_c, 0, 36, 91
2, 79868, Note_on_c, 0, 48, 82
2, 79870, Note_on_c, 0, 58, 91
2, 79872, Note_on_c, 0, 65, 91
2, 79874, Note_on_c, 0, 62, 82
2, 79874, Note_on_c, 0, 69, 82
2, 80082, Note_off_c, 0, 69, 82
2, 80094, Note_off_c, 0, 62, 82
2, 80096, Note_off_c, 0, 65, 91
2, 80102, Note_off_c, 0, 58, 91
2, 80124, Note_off_c, 0, 36, 91
2, 80126, Note_off_c, 0, 48, 82
2, 80160, Note_on_c, 0, 58, 82
2, 80164, Note_on_c, 0, 62, 73
2, 80164, Note_on_c, 0, 69, 91
2, 80164, Note_on_c, 0, 65, 91
2, 80174, Note_on_c, 0, 48, 91
2, 80176, Note_on_c, 0, 36, 91
2, 80198, Note_off_c, 0, 65, 91
2, 80202, Note_off_c, 0, 69, 91
2, 80202, Note_off_c, 0, 62, 73
2, 80208, Note_off_c, 0, 58, 82
2, 80230, Note_off_c, 0, 48, 91
2, 80232, Note_off_c, 0, 36, 91
2, 80442, Note_on_c, 0, 58, 91
2, 80444, Note_on_c, 0, 36, 82
2, 80444, Note_on_c, 0, 48, 73
2, 80446, Note_on_c, 0, 69, 69
2, 80446, Note_on_c, 0, 62, 69
2, 80446, Note_on_c, 0, 65, 69
2, 80844, Note_off_c, 0, 48, 73
2, 80846, Note_off_c, 0, 36, 82
2, 80854, Note_off_c, 0, 65, 69
2, 80858, Note_off_c, 0, 62, 69
2, 80862, Note_off_c, 0, 69, 69
2, 80872, Note_off_c, 0, 58, 91
2, 81016, Note_on_c, 0, 60, 82
2, 81018, Note_on_c, 0, 65, 82
2, 81020, Note_on_c, 0, 70, 90
2, 81020, Note_on_c, 0, 36, 82
2, 81020, Note_on_c, 0, 69, 73
2, 81022, Note_on_c, 0, 62, 82
2, 81026, Note_on_c, 0, 48, 82
2, 81192, Note_off_c, 0, 48, 82
2, 81198, Note_off_c, 0, 62, 82
2, 81204, Note_off_c, 0, 36, 82
2, 81236, Note_off_c, 0, 69, 73
2, 81252, Note_off_c, 0, 60, 82
2, 81262, Note_off_c, 0, 70, 90
2, 81276, Note_off_c, 0, 65, 82
2, 81408, Note_on_c, 0, 41, 83
2, 81408, Note_on_c, 0, 29, 83
2, 81408, Note_on_c, 0, 69, 92
2, 81408, Note_on_c, 0, 65, 94
2, 81408, Note_on_c, 0, 60, 82
2, 81586, Note_off_c, 0, 69, 92
2, 81600, Note_off_c, 0, 60, 82
2, 81612, Note_off_c, 0, 65, 94
2, 81626, Note_off_c, 0, 29, 83
2, 81626, Note_off_c, 0, 41, 83
2, 81694, Note_on_c, 0, 45, 73
2, 81694, Note_on_c, 0, 33, 73
2, 81696, Note_on_c, 0, 64, 87
2, 81696, Note_on_c, 0, 67, 85
2, 81700, Note_on_c, 0, 60, 73
2, 81702, Note_on_c, 0, 65, 91
2, 81746, Note_off_c, 0, 65, 91
2, 81746, Note_off_c, 0, 60, 73
2, 81746, Note_off_c, 0, 67, 85
2, 81748, Note_off_c, 0, 33, 73
2, 81748, Note_off_c, 0, 45, 73
2, 81750, Note_off_c, 0, 64, 87
2, 81980, Note_on_c, 0, 62, 91
2, 81980, Note_on_c, 0, 60, 91
2, 81982, Note_on_c, 0, 38, 82
2, 81982, Note_on_c, 0, 50, 82
2, 81982, Note_on_c, 0, 57, 82
2, 81982, Note_on_c, 0, 65, 91
2, 82300, Note_off_c, 0, 50, 82
2, 82300, Note_off_c, 0, 38, 82
2, 82316, Note_off_c, 0, 60, 91
2, 82328, Note_off_c, 0, 62, 91
2, 82334, Note_off_c, 0, 65, 91
2, 82342, Note_off_c, 0, 57, 82
2, 82364, Note_on_c, 0, 36, 64
2, 82364, Note_on_c, 0, 48, 64
2, 82368, Note_on_c, 0, 60, 73
2, 82396, Note_off_c, 0, 48, 64
2, 82396, Note_off_c, 0, 36, 64
2, 82408, Note_off_c, 0, 60, 73
2, 82556, Note_on_c, 0, 60, 71
2, 82562, Note_on_c, 0, 48, 73
2, 82612, Note_off_c, 0, 60, 71
2, 82624, Note_off_c, 0, 48, 73
2, 82650, Note_on_c, 0, 62, 77
2, 82656, Note_on_c, 0, 50, 72
2, 82706, Note_off_c, 0, 62, 77
2, 82708, Note_off_c, 0, 50, 72
2, 82744, Note_on_c, 0, 65, 85
2, 82746, Note_on_c, 0, 53, 73
2, 82784, Note_off_c, 0, 53, 73
2, 82788, Note_off_c, 0, 65, 85
2, 82844, Note_on_c, 0, 38, 64
2, 82886, Note_off_c, 0, 38, 64
2, 82940, Note_on_c, 0, 34, 82
2, 82940, Note_on_c, 0, 46, 82
2, 82942, Note_on_c, 0, 58, 73
2, 82946, Note_on_c, 0, 65, 91
2, 82948, Note_on_c, 0, 62, 91
2, 82948, Note_on_c, 0, 57, 82
2, 83152, Note_off_c, 0, 65, 91
2, 83166, Note_off_c, 0, 57, 82
2, 83166, Note_off_c, 0, 62, 91
2, 83172, Note_off_c, 0, 58, 73
2, 83190, Note_off_c, 0, 46, 82
2, 83190, Note_off_c, 0, 34, 82
2, 83230, Note_on_c, 0, 33, 73
2, 83230, Note_on_c, 0, 45, 73
2, 83232, Note_on_c, 0, 64, 82
2, 83232, Note_on_c, 0, 57, 73
2, 83236, Note_on_c, 0, 65, 82
2, 83238, Note_on_c, 0, 60, 91
2, 83240, Note_on_c, 0, 55, 73
2, 83270, Note_off_c, 0, 55, 73
2, 83276, Note_off_c, 0, 60, 91
2, 83276, Note_off_c, 0, 64, 82
2, 83278, Note_off_c, 0, 57, 73
2, 83280, Note_off_c, 0, 65, 82
2, 83296, Note_off_c, 0, 45, 73
2, 83296, Note_off_c, 0, 33, 73
2, 83510, Note_on_c, 0, 31, 83
2, 83510, Note_on_c, 0, 43, 83
2, 83514, Note_on_c, 0, 58, 91
2, 83518, Note_on_c, 0, 65, 91
2, 83518, Note_on_c, 0, 55, 73
2, 83518, Note_on_c, 0, 62, 82
2, 83518, Note_on_c, 0, 53, 73
2, 83872, Note_off_c, 0, 53, 73
2, 83872, Note_off_c, 0, 55, 73
2, 83874, Note_off_c, 0, 58, 91
2, 83896, Note_off_c, 0, 65, 91
2, 83898, Note_off_c, 0, 62, 82
2, 83902, Note_on_c, 0, 36, 64
2, 83902, Note_on_c, 0, 53, 72
2, 83902, Note_on_c, 0, 48, 64
2, 83904, Note_off_c, 0, 43, 83
2, 83904, Note_off_c, 0, 31, 83
2, 83906, Note_on_c, 0, 62, 73
2, 83906, Note_on_c, 0, 58, 60
2, 83908, Note_on_c, 0, 65, 73
2, 83940, Note_off_c, 0, 65, 73
2, 83940, Note_off_c, 0, 62, 73
2, 83944, Note_off_c, 0, 48, 64
2, 83944, Note_off_c, 0, 36, 64
2, 83954, Note_off_c, 0, 58, 60
2, 83962, Note_off_c, 0, 53, 72
2, 84282, Note_on_c, 0, 55, 64
2, 84284, Note_on_c, 0, 58, 60
2, 84284, Note_on_c, 0, 65, 82
2, 84284, Note_on_c, 0, 62, 91
2, 84294, Note_on_c, 0, 36, 64
2, 84294, Note_on_c, 0, 48, 64
2, 84320, Note_off_c, 0, 55, 64
2, 84326, Note_off_c, 0, 62, 91
2, 84326, Note_off_c, 0, 65, 82
2, 84326, Note_off_c, 0, 58, 60
2, 84332, Note_off_c, 0, 48, 64
2, 84332, Note_off_c, 0, 36, 64
2, 84480, Note_on_c, 0, 41, 83
2, 84480, Note_on_c, 0, 29, 83
2, 84480, Note_on_c, 0, 69, 92
2, 84480, Note_on_c, 0, 65, 94
2, 84480, Note_on_c, 0, 60, 82
2, 84658, Note_off_c, 0, 69, 92
2, 84672, Note_off_c, 0, 60, 82
2, 84684, Note_off_c, 0, 65, 94
2, 84698, Note_off_c, 0, 29, 83
2, 84698, Note_off_c, 0, 41, 83
2, 84766, Note_on_c, 0, 33, 73
2, 84766, Note_on_c, 0, 45, 73
2, 84768, Note_on_c, 0, 64, 87
2, 84768, Note_on_c, 0, 67, 85
2, 84772, Note_on_c, 0, 60, 73
2, 84774, Note_on_c, 0, 65, 91
2, 84818, Note_off_c, 0, 65, 91
2, 84818, Note_off_c, 0, 60, 73
2, 84818, Note_off_c, 0, 67, 85
2, 84820, Note_off_c, 0, 45, 73
2, 84820, Note_off_c, 0, 33, 73
2, 84822, Note_off_c, 0, 64, 87
2, 85052, Note_on_c, 0, 62, 91
2, 85052, Note_on_c, 0, 60, 91
2, 85054, Note_on_c, 0, 38, 82
2, 85054, Note_on_c, 0, 50, 82
2, 85054, Note_on_c, 0, 57, 82
2, 85054, Note_on_c, 0, 65, 91
2, 85372, Note_off_c, 0, 50, 82
2, 85372, Note_off_c, 0, 38, 82
2, 85388, Note_off_c, 0, 60, 91
2, 85400, Note_off_c, 0, 62, 91
2, 85406, Note_off_c, 0, 65, 91
2, 85414, Note_off_c, 0, 57, 82
2, 85436, Note_on_c, 0, 48, 64
2, 85440, Note_on_c, 0, 60, 73
2, 85468, Note_off_c, 0, 48, 64
2, 85480, Note_off_c, 0, 60, 73
2, 85628, Note_on_c, 0, 60, 71
2, 85634, Note_on_c, 0, 48, 73
2, 85684, Note_off_c, 0, 60, 71
2, 85696, Note_off_c, 0, 48, 73
2, 85722, Note_on_c, 0, 62, 77
2, 85728, Note_on_c, 0, 50, 72
2, 85778, Note_off_c, 0, 62, 77
2, 85780, Note_off_c, 0, 50, 72
2, 85816, Note_on_c, 0, 65, 85
2, 85818, Note_on_c, 0, 53, 73
2, 85856, Note_off_c, 0, 53, 73
2, 85860, Note_off_c, 0, 65, 85
2, 85914, Note_on_c, 0, 62, 73
2, 85914, Note_on_c, 0, 38, 82
2, 85968, Note_off_c, 0, 38, 82
2, 85972, Note_off_c, 0, 62, 73
2, 86012, Note_on_c, 0, 34, 82
2, 86012, Note_on_c, 0, 46, 82
2, 86014, Note_on_c, 0, 58, 73
2, 86018, Note_on_c, 0, 65, 91
2, 86020, Note_on_c, 0, 62, 91
2, 86020, Note_on_c, 0, 57, 82
2, 86224, Note_off_c, 0, 65, 91
2, 86238, Note_off_c, 0, 57, 82
2, 86238, Note_off_c, 0, 62, 91
2, 86244, Note_off_c, 0, 58, 73
2, 86262, Note_off_c, 0, 46, 82
2, 86262, Note_off_c, 0, 34, 82
2, 86302, Note_on_c, 0, 33, 73
2, 86302, Note_on_c, 0, 45, 73
2, 86304, Note_on_c, 0, 64, 82
2, 86304, Note_on_c, 0, 57, 73
2, 86308, Note_on_c, 0, 65, 82
2, 86310, Note_on_c, 0, 60, 91
2, 86312, Note_on_c, 0, 55, 73
2, 86342, Note_off_c, 0, 55, 73
2, 86348, Note_off_c, 0, 60, 91
2, 86348, Note_off_c, 0, 64, 82
2, 86350, Note_off_c, 0, 57, 73
2, 86352, Note_off_c, 0, 65, 82
2, 86368, Note_off_c, 0, 45, 73
2, 86368, Note_off_c, 0, 33, 73
2, 86582, Note_on_c, 0, 31, 83
2, 86582, Note_on_c, 0, 43, 83
2, 86586, Note_on_c, 0, 58, 91
2, 86590, Note_on_c, 0, 65, 91
2, 86590, Note_on_c, 0, 55, 73
2, 86590, Note_on_c, 0, 62, 82
2, 86590, Note_on_c, 0, 53, 73
2, 86944, Note_off_c, 0, 53, 73
2, 86944, Note_off_c, 0, 55, 73
2, 86946, Note_off_c, 0, 58, 91
2, 86968, Note_off_c, 0, 65, 91
2, 86970, Note_off_c, 0, 62, 82
2, 86974, Note_on_c, 0, 58, 64
2, 86974, Note_on_c, 0, 36, 64
2, 86974, Note_on_c, 0, 48, 64
2, 86976, Note_off_c, 0, 43, 83
2, 86976, Note_off_c, 0, 31, 83
2, 86976, Note_on_c, 0, 55, 75
2, 86978, Note_on_c, 0, 65, 64
2, 86982, Note_on_c, 0, 62, 82
2, 87138, Note_off_c, 0, 55, 75
2, 87152, Note_off_c, 0, 65, 64
2, 87154, Note_off_c, 0, 36, 64
2, 87156, Note_off_c, 0, 62, 82
2, 87158, Note_off_c, 0, 58, 64
2, 87174, Note_off_c, 0, 48, 64
2, 87354, Note_on_c, 0, 55, 64
2, 87356, Note_on_c, 0, 58, 60
2, 87356, Note_on_c, 0, 65, 82
2, 87356, Note_on_c, 0, 62, 91
2, 87366, Note_on_c, 0, 36, 64
2, 87366, Note_on_c, 0, 48, 64
2, 87392, Note_off_c, 0, 55, 64
2, 87398, Note_off_c, 0, 62, 91
2, 87398, Note_off_c, 0, 65, 82
2, 87398, Note_off_c, 0, 58, 60
2, 87404, Note_off_c, 0, 48, 64
2, 87404, Note_off_c, 0, 36, 64
2, 87552, Note_on_c, 0, 41, 83
2, 87552, Note_on_c, 0, 29, 83
2, 87552, Note_on_c, 0, 69, 92
2, 87552, Note_on_c, 0, 65, 94
2, 87552, Note_on_c, 0, 60, 82
2, 87730, Note_off_c, 0, 69, 92
2, 87744, Note_off_c, 0, 60, 82
2, 87756, Note_off_c, 0, 65, 94
2, 87770, Note_off_c, 0, 29, 83
2, 87770, Note_off_c, 0, 41, 83
2, 87838, Note_on_c, 0, 33, 73
2, 87838, Note_on_c, 0, 45, 73
2, 87840, Note_on_c, 0, 64, 87
2, 87840, Note_on_c, 0, 67, 85
2, 87844, Note_on_c, 0, 60, 73
2, 87846, Note_on_c, 0, 65, 91
2, 87890, Note_off_c, 0, 65, 91
2, 87890, Note_off_c, 0, 60, 73
2, 87890, Note_off_c, 0, 67, 85
2, 87892, Note_off_c, 0, 45, 73
2, 87892, Note_off_c, 0, 33, 73
2, 87894, Note_off_c, 0, 64, 87
2, 88124, Note_on_c, 0, 62, 91
2, 88124, Note_on_c, 0, 60, 91
2, 88126, Note_on_c, 0, 38, 82
2, 88126, Note_on_c, 0, 50, 82
2, 88126, Note_on_c, 0, 57, 82
2, 88126, Note_on_c, 0, 65, 91
2, 88444, Note_off_c, 0, 50, 82
2, 88444, Note_off_c, 0, 38, 82
2, 88460, Note_off_c, 0, 60, 91
2, 88472, Note_off_c, 0, 62, 91
2, 88478, Note_off_c, 0, 65, 91
2, 88486, Note_off_c, 0, 57, 82
2, 88508, Note_on_c, 0, 48, 64
2, 88512, Note_on_c, 0, 60, 73
2, 88540, Note_off_c, 0, 48, 64
2, 88552, Note_off_c, 0, 60, 73
2, 88700, Note_on_c, 0, 60, 71
2, 88706, Note_on_c, 0, 48, 73
2, 88756, Note_off_c, 0, 60, 71
2, 88768, Note_off_c, 0, 48, 73
2, 88794, Note_on_c, 0, 62, 77
2, 88800, Note_on_c, 0, 50, 72
2, 88850, Note_off_c, 0, 62, 77
2, 88852, Note_off_c, 0, 50, 72
2, 88888, Note_on_c, 0, 65, 85
2, 88890, Note_on_c, 0, 53, 73
2, 88928, Note_off_c, 0, 53, 73
2, 88932, Note_off_c, 0, 65, 85
2, 89084, Note_on_c, 0, 34, 82
2, 89084, Note_on_c, 0, 46, 82
2, 89086, Note_on_c, 0, 58, 73
2, 89090, Note_on_c, 0, 65, 91
2, 89092, Note_on_c, 0, 62, 91
2, 89092, Note_on_c, 0, 57, 82
2, 89296, Note_off_c, 0, 65, 91
2, 89310, Note_off_c, 0, 57, 82
2, 89310, Note_off_c, 0, 62, 91
2, 89316, Note_off_c, 0, 58, 73
2, 89334, Note_off_c, 0, 46, 82
2, 89334, Note_off_c, 0, 34, 82
2, 89374, Note_on_c, 0, 33, 73
2, 89374, Note_on_c, 0, 45, 73
2, 89376, Note_on_c, 0, 64, 82
2, 89376, Note_on_c, 0, 57, 73
2, 89380, Note_on_c, 0, 65, 82
2, 89382, Note_on_c, 0, 60, 91
2, 89384, Note_on_c, 0, 55, 73
2, 89414, Note_off_c, 0, 55, 73
2, 89420, Note_off_c, 0, 60, 91
2, 89420, Note_off_c, 0, 64, 82
2, 89422, Note_off_c, 0, 57, 73
2, 89424, Note_off_c, 0, 65, 82
2, 89440, Note_off_c, 0, 45, 73
2, 89440, Note_off_c, 0, 33, 73
2, 89654, Note_on_c, 0, 31, 83
2, 89654, Note_on_c, 0, 43, 83
2, 89658, Note_on_c, 0, 58, 91
2, 89662, Note_on_c, 0, 65, 91
2, 89662, Note_on_c, 0, 55, 73
2, 89662, Note_on_c, 0, 62, 82
2, 89662, Note_on_c, 0, 53, 73
2, 90016, Note_off_c, 0, 53, 73
2, 90016, Note_off_c, 0, 55, 73
2, 90018, Note_off_c, 0, 58, 91
2, 90040, Note_off_c, 0, 65, 91
2, 90042, Note_off_c, 0, 62, 82
2, 90048, Note_off_c, 0, 43, 83
2, 90048, Note_off_c, 0, 31, 83
2, 90048, Note_on_c, 0, 53, 78
2, 90210, Note_off_c, 0, 53, 78
2, 90426, Note_on_c, 0, 55, 64
2, 90428, Note_on_c, 0, 62, 91
2, 90428, Note_on_c, 0, 65, 82
2, 90428, Note_on_c, 0, 58, 60
2, 90438, Note_on_c, 0, 36, 64
2, 90438, Note_on_c, 0, 48, 64
2, 90464, Note_off_c, 0, 55, 64
2, 90470, Note_off_c, 0, 58, 60
2, 90470, Note_off_c, 0, 65, 82
2, 90470, Note_off_c, 0, 62, 91
2, 90476, Note_off_c, 0, 48, 64
2, 90476, Note_off_c, 0, 36, 64
2, 90624, Note_on_c, 0, 41, 83
2, 90624, Note_on_c, 0, 29, 83
2, 90624, Note_on_c, 0, 69, 92
2, 90624, Note_on_c, 0, 65, 94
2, 90624, Note_on_c, 0, 60, 82
2, 90802, Note_off_c, 0, 69, 92
2, 90816, Note_off_c, 0, 60, 82
2, 90828, Note_off_c, 0, 65, 94
2, 90842, Note_off_c, 0, 29, 83
2, 90842, Note_off_c, 0, 41, 83
2, 90910, Note_on_c, 0, 33, 73
2, 90910, Note_on_c, 0, 45, 73
2, 90912, Note_on_c, 0, 64, 87
2, 90912, Note_on_c, 0, 67, 85
2, 90916, Note_on_c, 0, 60, 73
2, 90918, Note_on_c, 0, 65, 91
2, 90962, Note_off_c, 0, 65, 91
2, 90962, Note_off_c, 0, 60, 73
2, 90962, Note_off_c, 0, 67, 85
2, 90964, Note_off_c, 0, 45, 73
2, 90964, Note_off_c, 0, 33, 73
2, 90966, Note_off_c, 0, 64, 87
2, 91196, Note_on_c, 0, 62, 91
2, 91196, Note_on_c, 0, 60, 91
2, 91198, Note_on_c, 0, 38, 82
2, 91198, Note_on_c, 0, 50, 82
2, 91198, Note_on_c, 0, 57, 82
2, 91198, Note_on_c, 0, 65, 91
2, 91516, Note_off_c, 0, 50, 82
2, 91516, Note_off_c, 0, 38, 82
2, 91532, Note_off_c, 0, 60, 91
2, 91544, Note_off_c, 0, 62, 91
2, 91550, Note_off_c, 0, 65, 91
2, 91558, Note_off_c, 0, 57, 82
2, 91580, Note_on_c, 0, 36, 64
2, 91580, Note_on_c, 0, 48, 64
2, 91584, Note_on_c, 0, 60, 73
2, 91612, Note_off_c, 0, 48, 64
2, 91612, Note_off_c, 0, 36, 64
2, 91624, Note_off_c, 0, 60, 73
2, 91772, Note_on_c, 0, 60, 71
2, 91778, Note_on_c, 0, 48, 73
2, 91828, Note_off_c, 0, 60, 71
2, 91840, Note_off_c, 0, 48, 73
2, 91866, Note_on_c, 0, 62, 77
2, 91872, Note_on_c, 0, 50, 72
2, 91922, Note_off_c, 0, 62, 77
2, 91924, Note_off_c, 0, 50, 72
2, 91960, Note_on_c, 0, 65, 85
2, 91962, Note_on_c, 0, 53, 73
2, 92000, Note_off_c, 0, 53, 73
2, 92004, Note_off_c, 0, 65, 85
2, 92060, Note_on_c, 0, 38, 81
2, 92116, Note_off_c, 0, 38, 81
2, 92156, Note_on_c, 0, 34, 82
2, 92156, Note_on_c, 0, 46, 82
2, 92158, Note_on_c, 0, 58, 73
2, 92162, Note_on_c, 0, 65, 91
2, 92164, Note_on_c, 0, 62, 91
2, 92164, Note_on_c, 0, 57, 82
2, 92368, Note_off_c, 0, 65, 91
2, 92382, Note_off_c, 0, 57, 82
2, 92382, Note_off_c, 0, 62, 91
2, 92388, Note_off_c, 0, 58, 73
2, 92406, Note_off_c, 0, 46, 82
2, 92406, Note_off_c, 0, 34, 82
2, 92446, Note_on_c, 0, 33, 73
2, 92446, Note_on_c, 0, 45, 73
2, 92448, Note_on_c, 0, 64, 82
2, 92448, Note_on_c, 0, 57, 73
2, 92452, Note_on_c, 0, 65, 82
2, 92454, Note_on_c, 0, 60, 91
2, 92456, Note_on_c, 0, 55, 73
2, 92486, Note_off_c, 0, 55, 73
2, 92492, Note_off_c, 0, 60, 91
2, 92492, Note_off_c, 0, 64, 82
2, 92494, Note_off_c, 0, 57, 73
2, 92496, Note_off_c, 0, 65, 82
2, 92512, Note_off_c, 0, 45, 73
2, 92512, Note_off_c, 0, 33, 73
2, 92726, Note_on_c, 0, 31, 83
2, 92726, Note_on_c, 0, 43, 83
2, 92730, Note_on_c, 0, 58, 91
2, 92734, Note_on_c, 0, 65, 91
2, 92734, Note_on_c, 0, 55, 73
2, 92734, Note_on_c, 0, 62, 82
2, 92734, Note_on_c, 0, 53, 73
2, 93088, Note_off_c, 0, 53, 73
2, 93088, Note_off_c, 0, 55, 73
2, 93090, Note_off_c, 0, 58, 91
2, 93112, Note_off_c, 0, 65, 91
2, 93114, Note_off_c, 0, 62, 82
2, 93118, Note_on_c, 0, 60, 75
2, 93120, Note_off_c, 0, 43, 83
2, 93120, Note_off_c, 0, 31, 83
2, 93166, Note_off_c, 0, 60, 75
2, 93312, Note_on_c, 0, 53, 73
2, 93314, Note_on_c, 0, 60, 64
2, 93366, Note_off_c, 0, 53, 73
2, 93368, Note_off_c, 0, 60, 64
2, 93404, Note_on_c, 0, 62, 75
2, 93464, Note_off_c, 0, 62, 75
2, 93498, Note_on_c, 0, 65, 91
2, 93542, Note_off_c, 0, 65, 91
2, 93696, Note_on_c, 0, 29, 83
2, 93696, Note_on_c, 0, 41, 83
2, 93696, Note_on_c, 0, 69, 92
2, 93696, Note_on_c, 0, 65, 94
2, 93696, Note_on_c, 0, 60, 82
2, 93874, Note_off_c, 0, 69, 92
2, 93888, Note_off_c, 0, 60, 82
2, 93900, Note_off_c, 0, 65, 94
2, 93914, Note_off_c, 0, 41, 83
2, 93914, Note_off_c, 0, 29, 83
2, 93982, Note_on_c, 0, 33, 73
2, 93982, Note_on_c, 0, 45, 73
2, 93984, Note_on_c, 0, 64, 87
2, 93984, Note_on_c, 0, 67, 85
2, 93988, Note_on_c, 0, 60, 73
2, 93990, Note_on_c, 0, 65, 91
2, 94034, Note_off_c, 0, 65, 91
2, 94034, Note_off_c, 0, 60, 73
2, 94034, Note_off_c, 0, 67, 85
2, 94036, Note_off_c, 0, 45, 73
2, 94036, Note_off_c, 0, 33, 73
2, 94038, Note_off_c, 0, 64, 87
2, 94268, Note_on_c, 0, 62, 91
2, 94268, Note_on_c, 0, 60, 91
2, 94270, Note_on_c, 0, 38, 82
2, 94270, Note_on_c, 0, 50, 82
2, 94270, Note_on_c, 0, 57, 82
2, 94270, Note_on_c, 0, 65, 91
2, 94588, Note_off_c, 0, 50, 82
2, 94588, Note_off_c, 0, 38, 82
2, 94604, Note_off_c, 0, 60, 91
2, 94616, Note_off_c, 0, 62, 91
2, 94622, Note_off_c, 0, 65, 91
2, 94630, Note_off_c, 0, 57, 82
2, 94652, Note_on_c, 0, 36, 64
2, 94652, Note_on_c, 0, 48, 64
2, 94656, Note_on_c, 0, 60, 73
2, 94684, Note_off_c, 0, 48, 64
2, 94684, Note_off_c, 0, 36, 64
2, 94696, Note_off_c, 0, 60, 73
2, 94844, Note_on_c, 0, 60, 71
2, 94850, Note_on_c, 0, 48, 73
2, 94900, Note_off_c, 0, 60, 71
2, 94912, Note_off_c, 0, 48, 73
2, 94938, Note_on_c, 0, 62, 77
2, 94944, Note_on_c, 0, 50, 72
2, 94994, Note_off_c, 0, 62, 77
2, 94996, Note_off_c, 0, 50, 72
2, 95032, Note_on_c, 0, 65, 85
2, 95034, Note_on_c, 0, 53, 73
2, 95072, Note_off_c, 0, 53, 73
2, 95076, Note_off_c, 0, 65, 85
2, 95126, Note_on_c, 0, 62, 58
2, 95158, Note_off_c, 0, 62, 58
2, 95228, Note_on_c, 0, 34, 82
2, 95228, Note_on_c, 0, 46, 82
2, 95230, Note_on_c, 0, 58, 73
2, 95230, Note_on_c, 0, 65, 91
2, 95236, Note_on_c, 0, 62, 91
2, 95236, Note_on_c, 0, 57, 82
2, 95436, Note_off_c, 0, 65, 91
2, 95454, Note_off_c, 0, 57, 82
2, 95454, Note_off_c, 0, 62, 91
2, 95460, Note_off_c, 0, 58, 73
2, 95478, Note_off_c, 0, 46, 82
2, 95478, Note_off_c, 0, 34, 82
2, 95518, Note_on_c, 0, 33, 73
2, 95518, Note_on_c, 0, 45, 73
2, 95520, Note_on_c, 0, 64, 82
2, 95520, Note_on_c, 0, 57, 73
2, 95524, Note_on_c, 0, 65, 82
2, 95526, Note_on_c, 0, 60, 91
2, 95528, Note_on_c, 0, 55, 73
2, 95558, Note_off_c, 0, 55, 73
2, 95564, Note_off_c, 0, 60, 91
2, 95564, Note_off_c, 0, 64, 82
2, 95566, Note_off_c, 0, 57, 73
2, 95568, Note_off_c, 0, 65, 82
2, 95584, Note_off_c, 0, 45, 73
2, 95584, Note_off_c, 0, 33, 73
2, 95798, Note_on_c, 0, 31, 83
2, 95798, Note_on_c, 0, 43, 83
2, 95802, Note_on_c, 0, 58, 91
2, 95806, Note_on_c, 0, 65, 91
2, 95806, Note_on_c, 0, 55, 73
2, 95806, Note_on_c, 0, 62, 82
2, 95806, Note_on_c, 0, 53, 73
2, 96160, Note_off_c, 0, 53, 73
2, 96160, Note_off_c, 0, 55, 73
2, 96162, Note_off_c, 0, 58, 91
2, 96184, Note_off_c, 0, 65, 91
2, 96186, Note_off_c, 0, 62, 82
2, 96190, Note_on_c, 0, 36, 64
2, 96190, Note_on_c, 0, 48, 64
2, 96192, Note_off_c, 0, 43, 83
2, 96192, Note_off_c, 0, 31, 83
2, 96192, Note_on_c, 0, 55, 73
2, 96192, Note_on_c, 0, 65, 73
2, 96194, Note_on_c, 0, 58, 73
2, 96194, Note_on_c, 0, 62, 82
2, 96370, Note_off_c, 0, 48, 64
2, 96370, Note_off_c, 0, 36, 64
2, 96376, Note_off_c, 0, 55, 73
2, 96384, Note_off_c, 0, 65, 73
2, 96394, Note_off_c, 0, 62, 82
2, 96400, Note_off_c, 0, 58, 73
2, 96570, Note_on_c, 0, 55, 64
2, 96572, Note_on_c, 0, 58, 60
2, 96572, Note_on_c, 0, 65, 82
2, 96572, Note_on_c, 0, 62, 91
2, 96582, Note_on_c, 0, 36, 64
2, 96582, Note_on_c, 0, 48, 64
2, 96608, Note_off_c, 0, 55, 64
2, 96614, Note_off_c, 0, 62, 91
2, 96614, Note_off_c, 0, 65, 82
2, 96614, Note_off_c, 0, 58, 60
2, 96620, Note_off_c, 0, 48, 64
2, 96620, Note_off_c, 0, 36, 64
2, 96768, Note_on_c, 0, 29, 83
2, 96768, Note_on_c, 0, 41, 83
2, 96768, Note_on_c, 0, 69, 92
2, 96768, Note_on_c, 0, 65, 94
2, 96768, Note_on_c, 0, 60, 82
2, 96946, Note_off_c, 0, 69, 92
2, 96960, Note_off_c, 0, 60, 82
2, 96972, Note_off_c, 0, 65, 94
2, 96986, Note_off_c, 0, 41, 83
2, 96986, Note_off_c, 0, 29, 83
2, 97054, Note_on_c, 0, 33, 73
2, 97054, Note_on_c, 0, 45, 73
2, 97056, Note_on_c, 0, 64, 87
2, 97056, Note_on_c, 0, 67, 85
2, 97060, Note_on_c, 0, 60, 73
2, 97062, Note_on_c, 0, 65, 91
2, 97106, Note_off_c, 0, 65, 91
2, 97106, Note_off_c, 0, 60, 73
2, 97106, Note_off_c, 0, 67, 85
2, 97108, Note_off_c, 0, 45, 73
2, 97108, Note_off_c, 0, 33, 73
2, 97110, Note_off_c, 0, 64, 87
2, 97340, Note_on_c, 0, 62, 91
2, 97340, Note_on_c, 0, 60, 91
2, 97342, Note_on_c, 0, 38, 82
2, 97342, Note_on_c, 0, 50, 82
2, 97342, Note_on_c, 0, 57, 82
2, 97342, Note_on_c, 0, 65, 91
2, 97660, Note_off_c, 0, 50, 82
2, 97660, Note_off_c, 0, 38, 82
2, 97676, Note_off_c, 0, 60, 91
2, 97688, Note_off_c, 0, 62, 91
2, 97694, Note_off_c, 0, 65, 91
2, 97702, Note_off_c, 0, 57, 82
2, 97724, Note_on_c, 0, 36, 64
2, 97724, Note_on_c, 0, 48, 64
2, 97728, Note_on_c, 0, 60, 73
2, 97756, Note_off_c, 0, 48, 64
2, 97756, Note_off_c, 0, 36, 64
2, 97768, Note_off_c, 0, 60, 73
2, 97916, Note_on_c, 0, 60, 71
2, 97922, Note_on_c, 0, 48, 73
2, 97972, Note_off_c, 0, 60, 71
2, 97984, Note_off_c, 0, 48, 73
2, 98010, Note_on_c, 0, 62, 77
2, 98016, Note_on_c, 0, 50, 72
2, 98066, Note_off_c, 0, 62, 77
2, 98068, Note_off_c, 0, 50, 72
2, 98104, Note_on_c, 0, 65, 85
2, 98106, Note_on_c, 0, 53, 73
2, 98144, Note_off_c, 0, 53, 73
2, 98148, Note_off_c, 0, 65, 85
2, 98212, Note_on_c, 0, 36, 64
2, 98252, Note_on_c, 0, 37, 72
2, 98274, Note_off_c, 0, 36, 64
2, 98300, Note_on_c, 0, 34, 82
2, 98300, Note_on_c, 0, 46, 82
2, 98302, Note_on_c, 0, 58, 73
2, 98302, Note_on_c, 0, 65, 91
2, 98308, Note_on_c, 0, 62, 91
2, 98308, Note_on_c, 0, 57, 82
2, 98366, Note_off_c, 0, 37, 72
2, 98508, Note_off_c, 0, 65, 91
2, 98526, Note_off_c, 0, 57, 82
2, 98526, Note_off_c, 0, 62, 91
2, 98532, Note_off_c, 0, 58, 73
2, 98550, Note_off_c, 0, 46, 82
2, 98550, Note_off_c, 0, 34, 82
2, 98590, Note_on_c, 0, 33, 73
2, 98590, Note_on_c, 0, 45, 73
2, 98592, Note_on_c, 0, 64, 82
2, 98592, Note_on_c, 0, 57, 73
2, 98596, Note_on_c, 0, 65, 82
2, 98598, Note_on_c, 0, 60, 91
2, 98600, Note_on_c, 0, 55, 73
2, 98630, Note_off_c, 0, 55, 73
2, 98636, Note_off_c, 0, 60, 91
2, 98636, Note_off_c, 0, 64, 82
2, 98638, Note_off_c, 0, 57, 73
2, 98640, Note_off_c, 0, 65, 82
2, 98656, Note_off_c, 0, 45, 73
2, 98656, Note_off_c, 0, 33, 73
2, 98870, Note_on_c, 0, 31, 83
2, 98870, Note_on_c, 0, 43, 83
2, 98874, Note_on_c, 0, 58, 91
2, 98878, Note_on_c, 0, 65, 91
2, 98878, Note_on_c, 0, 55, 73
2, 98878, Note_on_c, 0, 62, 82
2, 98878, Note_on_c, 0, 53, 73
2, 99232, Note_off_c, 0, 53, 73
2, 99232, Note_off_c, 0, 55, 73
2, 99234, Note_off_c, 0, 58, 91
2, 99256, Note_off_c, 0, 65, 91
2, 99258, Note_off_c, 0, 62, 82
2, 99262, Note_on_c, 0, 36, 64
2, 99262, Note_on_c, 0, 48, 64
2, 99264, Note_off_c, 0, 43, 83
2, 99264, Note_off_c, 0, 31, 83
2, 99264, Note_on_c, 0, 55, 73
2, 99264, Note_on_c, 0, 65, 73
2, 99266, Note_on_c, 0, 58, 73
2, 99266, Note_on_c, 0, 62, 82
2, 99442, Note_off_c, 0, 48, 64
2, 99442, Note_off_c, 0, 36, 64
2, 99448, Note_off_c, 0, 55, 73
2, 99456, Note_off_c, 0, 65, 73
2, 99466, Note_off_c, 0, 62, 82
2, 99472, Note_off_c, 0, 58, 73
2, 99642, Note_on_c, 0, 55, 64
2, 99644, Note_on_c, 0, 58, 60
2, 99644, Note_on_c, 0, 65, 82
2, 99644, Note_on_c, 0, 62, 91
2, 99654, Note_on_c, 0, 36, 64
2, 99654, Note_on_c, 0, 48, 64
2, 99680, Note_off_c, 0, 55, 64
2, 99686, Note_off_c, 0, 62, 91
2, 99686, Note_off_c, 0, 65, 82
2, 99686, Note_off_c, 0, 58, 60
2, 99692, Note_off_c, 0, 48, 64
2, 99692, Note_off_c, 0, 36, 64
2, 99840, Note_on_c, 0, 29, 83
2, 99840, Note_on_c, 0, 41, 83
2, 99840, Note_on_c, 0, 69, 92
2, 99840, Note_on_c, 0, 65, 94
2, 99840, Note_on_c, 0, 60, 82
2, 100018, Note_off_c, 0, 69, 92
2, 100032, Note_off_c, 0, 60, 82
2, 100044, Note_off_c, 0, 65, 94
2, 100058, Note_off_c, 0, 41, 83
2, 100058, Note_off_c, 0, 29, 83
2, 100126, Note_on_c, 0, 33, 73
2, 100126, Note_on_c, 0, 45, 73
2, 100128, Note_on_c, 0, 64, 87
2, 100128, Note_on_c, 0, 67, 85
2, 100132, Note_on_c, 0, 60, 73
2, 100134, Note_on_c, 0, 65, 91
2, 100178, Note_off_c, 0, 65, 91
2, 100178, Note_off_c, 0, 60, 73
2, 100178, Note_off_c, 0, 67, 85
2, 100180, Note_off_c, 0, 45, 73
2, 100180, Note_off_c, 0, 33, 73
2, 100182, Note_off_c, 0, 64, 87
2, 100412, Note_on_c, 0, 62, 91
2, 100412, Note_on_c, 0, 60, 91
2, 100414, Note_on_c, 0, 38, 82
2, 100414, Note_on_c, 0, 50, 82
2, 100414, Note_on_c, 0, 57, 82
2, 100414, Note_on_c, 0, 65, 91
2, 100732, Note_off_c, 0, 50, 82
2, 100732, Note_off_c, 0, 38, 82
2, 100748, Note_off_c, 0, 60, 91
2, 100760, Note_off_c, 0, 62, 91
2, 100766, Note_off_c, 0, 65, 91
2, 100774, Note_off_c, 0, 57, 82
2, 100796, Note_on_c, 0, 36, 64
2, 100796, Note_on_c, 0, 48, 64
2, 100800, Note_on_c, 0, 60, 73
2, 100828, Note_off_c, 0, 48, 64
2, 100828, Note_off_c, 0, 36, 64
2, 100840, Note_off_c, 0, 60, 73
2, 100988, Note_on_c, 0, 60, 71
2, 100994, Note_on_c, 0, 48, 73
2, 101044, Note_off_c, 0, 60, 71
2, 101056, Note_off_c, 0, 48, 73
2, 101082, Note_on_c, 0, 62, 77
2, 101088, Note_on_c, 0, 50, 72
2, 101138, Note_off_c, 0, 62, 77
2, 101140, Note_off_c, 0, 50, 72
2, 101176, Note_on_c, 0, 65, 85
2, 101178, Note_on_c, 0, 53, 73
2, 101216, Note_off_c, 0, 53, 73
2, 101220, Note_off_c, 0, 65, 85
2, 101270, Note_on_c, 0, 62, 58
2, 101302, Note_off_c, 0, 62, 58
2, 101372, Note_on_c, 0, 34, 82
2, 101372, Note_on_c, 0, 46, 82
2, 101374, Note_on_c, 0, 58, 73
2, 101374, Note_on_c, 0, 65, 91
2, 101380, Note_on_c, 0, 62, 91
2, 101380, Note_on_c, 0, 57, 82
2, 101580, Note_off_c, 0, 65, 91
2, 101598, Note_off_c, 0, 57, 82
2, 101598, Note_off_c, 0, 62, 91
2, 101604, Note_off_c, 0, 58, 73
2, 101622, Note_off_c, 0, 46, 82
2, 101622, Note_off_c, 0, 34, 82
2, 101662, Note_on_c, 0, 33, 73
2, 101662, Note_on_c, 0, 45, 73
2, 101664, Note_on_c, 0, 64, 82
2, 101664, Note_on_c, 0, 57, 73
2, 101668, Note_on_c, 0, 65, 82
2, 101670, Note_on_c, 0, 60, 91
2, 101672, Note_on_c, 0, 55, 73
2, 101702, Note_off_c, 0, 55, 73
2, 101708, Note_off_c, 0, 60, 91
2, 101708, Note_off_c, 0, 64, 82
2, 101710, Note_off_c, 0, 57, 73
2, 101712, Note_off_c, 0, 65, 82
2, 101728, Note_off_c, 0, 45, 73
2, 101728, Note_off_c, 0, 33, 73
2, 101942, Note_on_c, 0, 31, 83
2, 101942, Note_on_c, 0, 43, 83
2, 101946, Note_on_c, 0, 58, 91
2, 101950, Note_on_c, 0, 65, 91
2, 101950, Note_on_c, 0, 55, 73
2, 101950, Note_on_c, 0, 62, 82
2, 101950, Note_on_c, 0, 53, 73
2, 102304, Note_off_c, 0, 53, 73
2, 102304, Note_off_c, 0, 55, 73
2, 102306, Note_off_c, 0, 58, 91
2, 102328, Note_off_c, 0, 65, 91
2, 102330, Note_off_c, 0, 62, 82
2, 102334, Note_on_c, 0, 36, 64
2, 102334, Note_on_c, 0, 48, 64
2, 102336, Note_off_c, 0, 43, 83
2, 102336, Note_off_c, 0, 31, 83
2, 102336, Note_on_c, 0, 55, 73
2, 102336, Note_on_c, 0, 65, 73
2, 102338, Note_on_c, 0, 58, 73
2, 102338, Note_on_c, 0, 62, 82
2, 102514, Note_off_c, 0, 48, 64
2, 102514, Note_off_c, 0, 36, 64
2, 102520, Note_off_c, 0, 55, 73
2, 102528, Note_off_c, 0, 65, 73
2, 102538, Note_off_c, 0, 62, 82
2, 102544, Note_off_c, 0, 58, 73
2, 102714, Note_on_c, 0, 55, 64
2, 102716, Note_on_c, 0, 58, 60
2, 102716, Note_on_c, 0, 65, 82
2, 102716, Note_on_c, 0, 62, 91
2, 102726, Note_on_c, 0, 36, 64
2, 102726, Note_on_c, 0, 48, 64
2, 102752, Note_off_c, 0, 55, 64
2, 102758, Note_off_c, 0, 62, 91
2, 102758, Note_off_c, 0, 65, 82
2, 102758, Note_off_c, 0, 58, 60
2, 102764, Note_off_c, 0, 48, 64
2, 102764, Note_off_c, 0, 36, 64
2, 102912, Note_on_c, 0, 29, 83
2, 102912, Note_on_c, 0, 41, 83
2, 102912, Note_on_c, 0, 69, 92
2, 102912, Note_on_c, 0, 65, 94
2, 102912, Note_on_c, 0, 60, 82
2, 103090, Note_off_c, 0, 69, 92
2, 103104, Note_off_c, 0, 60, 82
2, 103116, Note_off_c, 0, 65, 94
2, 103130, Note_off_c, 0, 41, 83
2, 103130, Note_off_c, 0, 29, 83
2, 103198, Note_on_c, 0, 33, 73
2, 103198, Note_on_c, 0, 45, 73
2, 103200, Note_on_c, 0, 64, 87
2, 103200, Note_on_c, 0, 67, 85
2, 103204, Note_on_c, 0, 60, 73
2, 103206, Note_on_c, 0, 65, 91
2, 103250, Note_off_c, 0, 65, 91
2, 103250, Note_off_c, 0, 60, 73
2, 103250, Note_off_c, 0, 67, 85
2, 103252, Note_off_c, 0, 45, 73
2, 103252, Note_off_c, 0, 33, 73
2, 103254, Note_off_c, 0, 64, 87
2, 103484, Note_on_c, 0, 62, 91
2, 103484, Note_on_c, 0, 60, 91
2, 103486, Note_on_c, 0, 38, 82
2, 103486, Note_on_c, 0, 50, 82
2, 103486, Note_on_c, 0, 57, 82
2, 103486, Note_on_c, 0, 65, 91
2, 103804, Note_off_c, 0, 50, 82
2, 103804, Note_off_c, 0, 38, 82
2, 103820, Note_off_c, 0, 60, 91
2, 103832, Note_off_c, 0, 62, 91
2, 103838, Note_off_c, 0, 65, 91
2, 103846, Note_off_c, 0, 57, 82
2, 103868, Note_on_c, 0, 36, 64
2, 103868, Note_on_c, 0, 48, 64
2, 103872, Note_on_c, 0, 60, 73
2, 103900, Note_off_c, 0, 48, 64
2, 103900, Note_off_c, 0, 36, 64
2, 103912, Note_off_c, 0, 60, 73
2, 104060, Note_on_c, 0, 60, 71
2, 104066, Note_on_c, 0, 48, 73
2, 104116, Note_off_c, 0, 60, 71
2, 104128, Note_off_c, 0, 48, 73
2, 104154, Note_on_c, 0, 62, 77
2, 104160, Note_on_c, 0, 50, 72
2, 104210, Note_off_c, 0, 62, 77
2, 104212, Note_off_c, 0, 50, 72
2, 104248, Note_on_c, 0, 65, 85
2, 104250, Note_on_c, 0, 53, 73
2, 104288, Note_off_c, 0, 53, 73
2, 104292, Note_off_c, 0, 65, 85
2, 104356, Note_on_c, 0, 36, 64
2, 104396, Note_on_c, 0, 37, 72
2, 104418, Note_off_c, 0, 36, 64
2, 104444, Note_on_c, 0, 34, 82
2, 104444, Note_on_c, 0, 46, 82
2, 104446, Note_on_c, 0, 58, 73
2, 104446, Note_on_c, 0, 65, 91
2, 104452, Note_on_c, 0, 62, 91
2, 104452, Note_on_c, 0, 57, 82
2, 104510, Note_off_c, 0, 37, 72
2, 104652, Note_off_c, 0, 65, 91
2, 104670, Note_off_c, 0, 57, 82
2, 104670, Note_off_c, 0, 62, 91
2, 104676, Note_off_c, 0, 58, 73
2, 104694, Note_off_c, 0, 46, 82
2, 104694, Note_off_c, 0, 34, 82
2, 104734, Note_on_c, 0, 33, 73
2, 104734, Note_on_c, 0, 45, 73
2, 104736, Note_on_c, 0, 64, 82
2, 104736, Note_on_c, 0, 57, 73
2, 104740, Note_on_c, 0, 65, 82
2, 104742, Note_on_c, 0, 60, 91
2, 104744, Note_on_c, 0, 55, 73
2, 104774, Note_off_c, 0, 55, 73
2, 104780, Note_off_c, 0, 60, 91
2, 104780, Note_off_c, 0, 64, 82
2, 104782, Note_off_c, 0, 57, 73
2, 104784, Note_off_c, 0, 65, 82
2, 104800, Note_off_c, 0, 45, 73
2, 104800, Note_off_c, 0, 33, 73
2, 105014, Note_on_c, 0, 31, 83
2, 105014, Note_on_c, 0, 43, 83
2, 105018, Note_on_c, 0, 58, 91
2, 105022, Note_on_c, 0, 65, 91
2, 105022, Note_on_c, 0, 55, 73
2, 105022, Note_on_c, 0, 62, 82
2, 105022, Note_on_c, 0, 53, 73
2, 105376, Note_off_c, 0, 53, 73
2, 105376, Note_off_c, 0, 55, 73
2, 105378, Note_off_c, 0, 58, 91
2, 105400, Note_off_c, 0, 65, 91
2, 105402, Note_off_c, 0, 62, 82
2, 105406, Note_on_c, 0, 36, 64
2, 105406, Note_on_c, 0, 48, 64
2, 105408, Note_off_c, 0, 43, 83
2, 105408, Note_off_c, 0, 31, 83
2, 105408, Note_on_c, 0, 55, 73
2, 105408, Note_on_c, 0, 65, 73
2, 105410, Note_on_c, 0, 58, 73
2, 105410, Note_on_c, 0, 62, 82
2, 105586, Note_off_c, 0, 48, 64
2, 105586, Note_off_c, 0, 36, 64
2, 105592, Note_off_c, 0, 55, 73
2, 105600, Note_off_c, 0, 65, 73
2, 105610, Note_off_c, 0, 62, 82
2, 105616, Note_off_c, 0, 58, 73
2, 105618, Note_on_c, 0, 72, 91
2, 105664, Note_off_c, 0, 72, 91
2, 105692, Note_on_c, 0, 74, 82
2, 105750, Note_off_c, 0, 74, 82
2, 105792, Note_on_c, 0, 58, 60
2, 105794, Note_on_c, 0, 36, 91
2, 105798, Note_on_c, 0, 62, 73
2, 105798, Note_on_c, 0, 65, 80
2, 105800, Note_on_c, 0, 48, 73
2, 105802, Note_on_c, 0, 55, 60
2, 105972, Note_off_c, 0, 58, 60
2, 105974, Note_off_c, 0, 48, 73
2, 105974, Note_off_c, 0, 62, 73
2, 105984, Note_off_c, 0, 65, 80
2, 105984, Note_on_c, 0, 46, 82
2, 105984, Note_on_c, 0, 34, 82
2, 105984, Note_on_c, 0, 58, 82
2, 105984, Note_on_c, 0, 57, 91
2, 105984, Note_on_c, 0, 65, 100
2, 105984, Note_on_c, 0, 62, 82
2, 105988, Note_off_c, 0, 55, 60
2, 105996, Note_off_c, 0, 36, 91
2, 106172, Note_off_c, 0, 58, 82
2, 106176, Note_off_c, 0, 65, 100
2, 106184, Note_off_c, 0, 46, 82
2, 106200, Note_off_c, 0, 57, 91
2, 106206, Note_off_c, 0, 62, 82
2, 106228, Note_off_c, 0, 34, 82
2, 106274, Note_on_c, 0, 58, 73
2, 106274, Note_on_c, 0, 57, 82
2, 106274, Note_on_c, 0, 62, 82
2, 106274, Note_on_c, 0, 65, 82
2, 106278, Note_on_c, 0, 46, 82
2, 106278, Note_on_c, 0, 34, 82
2, 106304, Note_off_c, 0, 57, 82
2, 106306, Note_off_c, 0, 62, 82
2, 106308, Note_off_c, 0, 65, 82
2, 106316, Note_off_c, 0, 34, 82
2, 106316, Note_off_c, 0, 46, 82
2, 106326, Note_off_c, 0, 58, 73
2, 106558, Note_on_c, 0, 65, 88
2, 106558, Note_on_c, 0, 62, 92
2, 106558, Note_on_c, 0, 57, 82
2, 106558, Note_on_c, 0, 58, 84
2, 106562, Note_on_c, 0, 46, 64
2, 106562, Note_on_c, 0, 34, 64
2, 106834, Note_off_c, 0, 65, 88
2, 106838, Note_off_c, 0, 57, 82
2, 106842, Note_off_c, 0, 62, 92
2, 106846, Note_off_c, 0, 58, 84
2, 106946, Note_on_c, 0, 58, 80
2, 106948, Note_on_c, 0, 65, 85
2, 106948, Note_on_c, 0, 62, 82
2, 106948, Note_on_c, 0, 57, 82
2, 107066, Note_off_c, 0, 34, 64
2, 107066, Note_off_c, 0, 46, 64
2, 107132, Note_on_c, 0, 46, 56
2, 107132, Note_on_c, 0, 34, 56
2, 107158, Note_off_c, 0, 34, 56
2, 107158, Note_off_c, 0, 46, 56
2, 107178, Note_off_c, 0, 65, 85
2, 107182, Note_off_c, 0, 57, 82
2, 107182, Note_off_c, 0, 62, 82
2, 107184, Note_off_c, 0, 58, 80
2, 107324, Note_on_c, 0, 57, 91
2, 107326, Note_on_c, 0, 46, 60
2, 107326, Note_on_c, 0, 34, 60
2, 107326, Note_on_c, 0, 58, 64
2, 107326, Note_on_c, 0, 65, 91
2, 107328, Note_on_c, 0, 62, 73
2, 107338, Note_off_c, 0, 62, 73
2, 107344, Note_off_c, 0, 58, 64
2, 107352, Note_off_c, 0, 65, 91
2, 107354, Note_off_c, 0, 34, 60
2, 107354, Note_off_c, 0, 46, 60
2, 107364, Note_off_c, 0, 57, 91
2, 107522, Note_on_c, 0, 46, 73
2, 107522, Note_on_c, 0, 34, 73
2, 107522, Note_on_c, 0, 62, 91
2, 107522, Note_on_c, 0, 58, 91
2, 107522, Note_on_c, 0, 57, 91
2, 107524, Note_on_c, 0, 65, 98
2, 107760, Note_off_c, 0, 57, 91
2, 107762, Note_off_c, 0, 62, 91
2, 107764, Note_off_c, 0, 65, 98
2, 107768, Note_off_c, 0, 58, 91
2, 107772, Note_off_c, 0, 34, 73
2, 107772, Note_off_c, 0, 46, 73
2, 107812, Note_on_c, 0, 65, 91
2, 107812, Note_on_c, 0, 62, 91
2, 107812, Note_on_c, 0, 57, 82
2, 107812, Note_on_c, 0, 58, 73
2, 107814, Note_on_c, 0, 46, 56
2, 107814, Note_on_c, 0, 34, 56
2, 107840, Note_off_c, 0, 65, 91
2, 107846, Note_off_c, 0, 57, 82
2, 107848, Note_off_c, 0, 58, 73
2, 107850, Note_off_c, 0, 62, 91
2, 107856, Note_off_c, 0, 34, 56
2, 107856, Note_off_c, 0, 46, 56
2, 108094, Note_on_c, 0, 46, 64
2, 108094, Note_on_c, 0, 34, 64
2, 108096, Note_on_c, 0, 58, 82
2, 108098, Note_on_c, 0, 62, 91
2, 108100, Note_on_c, 0, 65, 91
2, 108102, Note_on_c, 0, 57, 91
2, 108420, Note_off_c, 0, 65, 91
2, 108424, Note_off_c, 0, 62, 91
2, 108428, Note_off_c, 0, 57, 91
2, 108438, Note_off_c, 0, 58, 82
2, 108478, Note_on_c, 0, 57, 91
2, 108482, Note_on_c, 0, 58, 64
2, 108482, Note_on_c, 0, 65, 82
2, 108482, Note_on_c, 0, 62, 91
2, 108626, Note_off_c, 0, 34, 64
2, 108626, Note_off_c, 0, 46, 64
2, 108670, Note_on_c, 0, 46, 44
2, 108670, Note_on_c, 0, 34, 44
2, 108684, Note_off_c, 0, 65, 82
2, 108686, Note_off_c, 0, 58, 64
2, 108694, Note_off_c, 0, 62, 91
2, 108694, Note_off_c, 0, 57, 91
2, 108710, Note_off_c, 0, 34, 44
2, 108710, Note_off_c, 0, 46, 44
2, 108860, Note_on_c, 0, 46, 60
2, 108860, Note_on_c, 0, 34, 60
2, 108864, Note_on_c, 0, 62, 85
2, 108866, Note_on_c, 0, 67, 91
2, 108866, Note_on_c, 0, 58, 93
2, 108866, Note_on_c, 0, 65, 87
2, 108894, Note_off_c, 0, 58, 93
2, 108900, Note_off_c, 0, 65, 87
2, 108904, Note_off_c, 0, 67, 91
2, 108912, Note_off_c, 0, 34, 60
2, 108912, Note_off_c, 0, 46, 60
2, 108916, Note_off_c, 0, 62, 85
2, 109056, Note_on_c, 0, 60, 82
2, 109056, Note_on_c, 0, 55, 91
2, 109056, Note_on_c, 0, 45, 82
2, 109056, Note_on_c, 0, 33, 82
2, 109056, Note_on_c, 0, 57, 82
2, 109056, Note_on_c, 0, 64, 100
2, 109268, Note_off_c, 0, 64, 100
2, 109272, Note_off_c, 0, 55, 91
2, 109278, Note_off_c, 0, 60, 82
2, 109288, Note_off_c, 0, 57, 82
2, 109300, Note_off_c, 0, 33, 82
2, 109300, Note_off_c, 0, 45, 82
2, 109346, Note_on_c, 0, 60, 82
2, 109346, Note_on_c, 0, 57, 73
2, 109346, Note_on_c, 0, 55, 82
2, 109346, Note_on_c, 0, 64, 82
2, 109350, Note_on_c, 0, 45, 82
2, 109350, Note_on_c, 0, 33, 82
2, 109376, Note_off_c, 0, 55, 82
2, 109378, Note_off_c, 0, 60, 82
2, 109380, Note_off_c, 0, 64, 82
2, 109388, Note_off_c, 0, 33, 82
2, 109388, Note_off_c, 0, 45, 82
2, 109398, Note_off_c, 0, 57, 73
2, 109634, Note_on_c, 0, 60, 91
2, 109634, Note_on_c, 0, 45, 64
2, 109634, Note_on_c, 0, 33, 64
2, 109634, Note_on_c, 0, 55, 91
2, 109634, Note_on_c, 0, 57, 82
2, 109636, Note_on_c, 0, 64, 91
2, 110096, Note_off_c, 0, 55, 91
2, 110138, Note_off_c, 0, 33, 64
2, 110138, Note_off_c, 0, 45, 64
2, 110198, Note_off_c, 0, 64, 91
2, 110202, Note_off_c, 0, 57, 82
2, 110202, Note_on_c, 0, 55, 72
2, 110204, Note_on_c, 0, 45, 56
2, 110204, Note_on_c, 0, 33, 56
2, 110210, Note_off_c, 0, 60, 91
2, 110230, Note_off_c, 0, 33, 56
2, 110230, Note_off_c, 0, 45, 56
2, 110254, Note_off_c, 0, 55, 72
2, 110396, Note_on_c, 0, 55, 91
2, 110398, Note_on_c, 0, 45, 60
2, 110398, Note_on_c, 0, 33, 60
2, 110398, Note_on_c, 0, 57, 64
2, 110398, Note_on_c, 0, 64, 91
2, 110400, Note_on_c, 0, 60, 73
2, 110410, Note_off_c, 0, 60, 73
2, 110416, Note_off_c, 0, 57, 64
2, 110424, Note_off_c, 0, 64, 91
2, 110426, Note_off_c, 0, 33, 60
2, 110426, Note_off_c, 0, 45, 60
2, 110436, Note_off_c, 0, 55, 91
2, 110592, Note_on_c, 0, 38, 73
2, 110592, Note_on_c, 0, 50, 73
2, 110594, Note_on_c, 0, 62, 91
2, 110594, Note_on_c, 0, 60, 91
2, 110594, Note_on_c, 0, 57, 91
2, 110596, Note_on_c, 0, 65, 98
2, 110832, Note_off_c, 0, 57, 91
2, 110834, Note_off_c, 0, 62, 91
2, 110836, Note_off_c, 0, 65, 98
2, 110840, Note_off_c, 0, 60, 91
2, 110842, Note_off_c, 0, 50, 73
2, 110842, Note_off_c, 0, 38, 73
2, 110884, Note_on_c, 0, 38, 56
2, 110884, Note_on_c, 0, 50, 56
2, 110884, Note_on_c, 0, 65, 91
2, 110884, Note_on_c, 0, 62, 91
2, 110884, Note_on_c, 0, 57, 82
2, 110884, Note_on_c, 0, 60, 73
2, 110912, Note_off_c, 0, 65, 91
2, 110918, Note_off_c, 0, 57, 82
2, 110920, Note_off_c, 0, 60, 73
2, 110922, Note_off_c, 0, 62, 91
2, 110926, Note_off_c, 0, 50, 56
2, 110926, Note_off_c, 0, 38, 56
2, 111164, Note_on_c, 0, 38, 64
2, 111164, Note_on_c, 0, 50, 64
2, 111170, Note_on_c, 0, 60, 82
2, 111172, Note_on_c, 0, 62, 91
2, 111172, Note_on_c, 0, 65, 91
2, 111172, Note_on_c, 0, 57, 82
2, 111524, Note_off_c, 0, 50, 64
2, 111524, Note_off_c, 0, 38, 64
2, 111530, Note_off_c, 0, 60, 82
2, 111532, Note_off_c, 0, 65, 91
2, 111548, Note_on_c, 0, 50, 44
2, 111548, Note_on_c, 0, 38, 44
2, 111550, Note_off_c, 0, 57, 82
2, 111552, Note_off_c, 0, 62, 91
2, 111554, Note_on_c, 0, 65, 73
2, 111554, Note_on_c, 0, 62, 73
2, 111554, Note_on_c, 0, 60, 64
2, 111554, Note_on_c, 0, 57, 82
2, 111576, Note_off_c, 0, 65, 73
2, 111588, Note_off_c, 0, 38, 44
2, 111588, Note_off_c, 0, 50, 44
2, 111590, Note_off_c, 0, 57, 82
2, 111590, Note_off_c, 0, 62, 73
2, 111594, Note_off_c, 0, 60, 64
2, 111738, Note_on_c, 0, 48, 60
2, 111738, Note_on_c, 0, 36, 60
2, 111744, Note_on_c, 0, 60, 85
2, 111746, Note_on_c, 0, 62, 87
2, 111746, Note_on_c, 0, 57, 93
2, 111746, Note_on_c, 0, 65, 91
2, 111774, Note_off_c, 0, 57, 93
2, 111780, Note_off_c, 0, 62, 87
2, 111784, Note_off_c, 0, 65, 91
2, 111790, Note_off_c, 0, 36, 60
2, 111790, Note_off_c, 0, 48, 60
2, 111796, Note_off_c, 0, 60, 85
2, 112128, Note_on_c, 0, 46, 82
2, 112128, Note_on_c, 0, 34, 82
2, 112128, Note_on_c, 0, 58, 82
2, 112128, Note_on_c, 0, 57, 91
2, 112128, Note_on_c, 0, 65, 100
2, 112128, Note_on_c, 0, 62, 82
2, 112340, Note_off_c, 0, 65, 100
2, 112344, Note_off_c, 0, 57, 91
2, 112350, Note_off_c, 0, 62, 82
2, 112360, Note_off_c, 0, 58, 82
2, 112372, Note_off_c, 0, 34, 82
2, 112372, Note_off_c, 0, 46, 82
2, 112418, Note_on_c, 0, 58, 73
2, 112418, Note_on_c, 0, 57, 82
2, 112418, Note_on_c, 0, 62, 82
2, 112418, Note_on_c, 0, 65, 82
2, 112422, Note_on_c, 0, 46, 82
2, 112422, Note_on_c, 0, 34, 82
2, 112448, Note_off_c, 0, 57, 82
2, 112450, Note_off_c, 0, 62, 82
2, 112452, Note_off_c, 0, 65, 82
2, 112460, Note_off_c, 0, 34, 82
2, 112460, Note_off_c, 0, 46, 82
2, 112470, Note_off_c, 0, 58, 73
2, 112700, Note_on_c, 0, 58, 64
2, 112704, Note_on_c, 0, 62, 86
2, 112706, Note_on_c, 0, 65, 92
2, 112706, Note_on_c, 0, 46, 64
2, 112706, Note_on_c, 0, 34, 64
2, 112708, Note_on_c, 0, 57, 85
2, 113020, Note_off_c, 0, 65, 92
2, 113030, Note_off_c, 0, 57, 85
2, 113030, Note_off_c, 0, 58, 64
2, 113034, Note_off_c, 0, 62, 86
2, 113090, Note_on_c, 0, 62, 73
2, 113092, Note_on_c, 0, 65, 82
2, 113092, Note_on_c, 0, 58, 60
2, 113094, Note_on_c, 0, 57, 82
2, 113126, Note_on_c, 0, 38, 56
2, 113170, Note_on_c, 0, 41, 64
2, 113204, Note_on_c, 0, 43, 64
2, 113206, Note_off_c, 0, 38, 56
2, 113210, Note_off_c, 0, 34, 64
2, 113210, Note_off_c, 0, 46, 64
2, 113240, Note_off_c, 0, 41, 64
2, 113246, Note_on_c, 0, 45, 73
2, 113276, Note_on_c, 0, 34, 56
2, 113286, Note_off_c, 0, 43, 64
2, 113294, Note_off_c, 0, 57, 82
2, 113302, Note_off_c, 0, 34, 56
2, 113308, Note_off_c, 0, 65, 82
2, 113310, Note_off_c, 0, 58, 60
2, 113310, Note_off_c, 0, 62, 73
2, 113328, Note_off_c, 0, 45, 73
2, 113468, Note_on_c, 0, 57, 91
2, 113470, Note_on_c, 0, 46, 60
2, 113470, Note_on_c, 0, 34, 60
2, 113470, Note_on_c, 0, 58, 64
2, 113470, Note_on_c, 0, 65, 91
2, 113472, Note_on_c, 0, 62, 73
2, 113482, Note_off_c, 0, 62, 73
2, 113488, Note_off_c, 0, 58, 64
2, 113496, Note_off_c, 0, 65, 91
2, 113498, Note_off_c, 0, 34, 60
2, 113498, Note_off_c, 0, 46, 60
2, 113508, Note_off_c, 0, 57, 91
2, 113666, Note_on_c, 0, 46, 73
2, 113666, Note_on_c, 0, 34, 73
2, 113666, Note_on_c, 0, 62, 91
2, 113666, Note_on_c, 0, 58, 91
2, 113666, Note_on_c, 0, 57, 91
2, 113668, Note_on_c, 0, 65, 98
2, 113904, Note_off_c, 0, 57, 91
2, 113906, Note_off_c, 0, 62, 91
2, 113908, Note_off_c, 0, 65, 98
2, 113912, Note_off_c, 0, 58, 91
2, 113916, Note_off_c, 0, 34, 73
2, 113916, Note_off_c, 0, 46, 73
2, 113956, Note_on_c, 0, 65, 91
2, 113956, Note_on_c, 0, 62, 91
2, 113956, Note_on_c, 0, 57, 82
2, 113956, Note_on_c, 0, 58, 73
2, 113958, Note_on_c, 0, 46, 56
2, 113958, Note_on_c, 0, 34, 56
2, 113984, Note_off_c, 0, 65, 91
2, 113990, Note_off_c, 0, 57, 82
2, 113992, Note_off_c, 0, 58, 73
2, 113994, Note_off_c, 0, 62, 91
2, 114000, Note_off_c, 0, 34, 56
2, 114000, Note_off_c, 0, 46, 56
2, 114238, Note_on_c, 0, 46, 64
2, 114238, Note_on_c, 0, 34, 64
2, 114244, Note_on_c, 0, 58, 80
2, 114246, Note_on_c, 0, 57, 83
2, 114246, Note_on_c, 0, 62, 89
2, 114246, Note_on_c, 0, 65, 86
2, 114530, Note_off_c, 0, 65, 86
2, 114540, Note_off_c, 0, 62, 89
2, 114544, Note_off_c, 0, 57, 83
2, 114552, Note_off_c, 0, 58, 80
2, 114626, Note_on_c, 0, 57, 82
2, 114626, Note_on_c, 0, 62, 82
2, 114626, Note_on_c, 0, 58, 73
2, 114628, Note_on_c, 0, 65, 73
2, 114770, Note_off_c, 0, 34, 64
2, 114770, Note_off_c, 0, 46, 64
2, 114814, Note_on_c, 0, 46, 44
2, 114814, Note_on_c, 0, 34, 44
2, 114834, Note_off_c, 0, 57, 82
2, 114836, Note_off_c, 0, 65, 73
2, 114846, Note_off_c, 0, 58, 73
2, 114846, Note_off_c, 0, 62, 82
2, 114854, Note_off_c, 0, 34, 44
2, 114854, Note_off_c, 0, 46, 44
2, 115004, Note_on_c, 0, 46, 60
2, 115004, Note_on_c, 0, 34, 60
2, 115008, Note_on_c, 0, 62, 85
2, 115010, Note_on_c, 0, 67, 91
2, 115010, Note_on_c, 0, 58, 93
2, 115010, Note_on_c, 0, 65, 87
2, 115038, Note_off_c, 0, 58, 93
2, 115044, Note_off_c, 0, 65, 87
2, 115048, Note_off_c, 0, 67, 91
2, 115056, Note_off_c, 0, 34, 60
2, 115056, Note_off_c, 0, 46, 60
2, 115060, Note_off_c, 0, 62, 85
2, 115200, Note_on_c, 0, 60, 82
2, 115200, Note_on_c, 0, 55, 91
2, 115200, Note_on_c, 0, 45, 82
2, 115200, Note_on_c, 0, 33, 82
2, 115200, Note_on_c, 0, 57, 82
2, 115200, Note_on_c, 0, 64, 100
2, 115412, Note_off_c, 0, 64, 100
2, 115416, Note_off_c, 0, 55, 91
2, 115422, Note_off_c, 0, 60, 82
2, 115432, Note_off_c, 0, 57, 82
2, 115444, Note_off_c, 0, 33, 82
2, 115444, Note_off_c, 0, 45, 82
2, 115490, Note_on_c, 0, 60, 82
2, 115490, Note_on_c, 0, 57, 73
2, 115490, Note_on_c, 0, 55, 82
2, 115490, Note_on_c, 0, 64, 82
2, 115494, Note_on_c, 0, 45, 82
2, 115494, Note_on_c, 0, 33, 82
2, 115520, Note_off_c, 0, 55, 82
2, 115522, Note_off_c, 0, 60, 82
2, 115524, Note_off_c, 0, 64, 82
2, 115532, Note_off_c, 0, 33, 82
2, 115532, Note_off_c, 0, 45, 82
2, 115542, Note_off_c, 0, 57, 73
2, 115778, Note_on_c, 0, 60, 91
2, 115778, Note_on_c, 0, 45, 64
2, 115778, Note_on_c, 0, 33, 64
2, 115778, Note_on_c, 0, 55, 91
2, 115778, Note_on_c, 0, 57, 82
2, 115780, Note_on_c, 0, 64, 91
2, 116240, Note_off_c, 0, 55, 91
2, 116282, Note_off_c, 0, 33, 64
2, 116282, Note_off_c, 0, 45, 64
2, 116342, Note_off_c, 0, 64, 91
2, 116346, Note_off_c, 0, 57, 82
2, 116348, Note_on_c, 0, 33, 56
2, 116352, Note_on_c, 0, 43, 91
2, 116354, Note_off_c, 0, 60, 91
2, 116374, Note_off_c, 0, 33, 56
2, 116396, Note_on_c, 0, 45, 78
2, 116400, Note_off_c, 0, 43, 91
2, 116446, Note_on_c, 0, 48, 64
2, 116480, Note_off_c, 0, 45, 78
2, 116524, Note_off_c, 0, 48, 64
2, 116542, Note_on_c, 0, 64, 73
2, 116542, Note_on_c, 0, 45, 69
2, 116542, Note_on_c, 0, 33, 60
2, 116542, Note_on_c, 0, 60, 52
2, 116544, Note_on_c, 0, 55, 82
2, 116544, Note_on_c, 0, 57, 64
2, 116570, Note_off_c, 0, 33, 60
2, 116718, Note_off_c, 0, 55, 82
2, 116722, Note_off_c, 0, 45, 69
2, 116726, Note_off_c, 0, 57, 64
2, 116728, Note_off_c, 0, 60, 52
2, 116728, Note_off_c, 0, 64, 73
2, 116736, Note_on_c, 0, 38, 73
2, 116736, Note_on_c, 0, 50, 73
2, 116738, Note_on_c, 0, 62, 91
2, 116738, Note_on_c, 0, 60, 91
2, 116738, Note_on_c, 0, 57, 91
2, 116740, Note_on_c, 0, 65, 98
2, 116976, Note_off_c, 0, 57, 91
2, 116978, Note_off_c, 0, 62, 91
2, 116980, Note_off_c, 0, 65, 98
2, 116984, Note_off_c, 0, 60, 91
2, 116986, Note_off_c, 0, 50, 73
2, 116986, Note_off_c, 0, 38, 73
2, 117028, Note_on_c, 0, 38, 56
2, 117028, Note_on_c, 0, 50, 56
2, 117028, Note_on_c, 0, 65, 91
2, 117028, Note_on_c, 0, 62, 91
2, 117028, Note_on_c, 0, 57, 82
2, 117028, Note_on_c, 0, 60, 73
2, 117056, Note_off_c, 0, 65, 91
2, 117062, Note_off_c, 0, 57, 82
2, 117064, Note_off_c, 0, 60, 73
2, 117066, Note_off_c, 0, 62, 91
2, 117070, Note_off_c, 0, 50, 56
2, 117070, Note_off_c, 0, 38, 56
2, 117308, Note_on_c, 0, 38, 64
2, 117308, Note_on_c, 0, 50, 64
2, 117314, Note_on_c, 0, 60, 82
2, 117316, Note_on_c, 0, 62, 91
2, 117316, Note_on_c, 0, 65, 91
2, 117316, Note_on_c, 0, 57, 82
2, 117468, Note_off_c, 0, 50, 64
2, 117468, Note_off_c, 0, 38, 64
2, 117474, Note_off_c, 0, 60, 82
2, 117476, Note_off_c, 0, 57, 82
2, 117476, Note_off_c, 0, 62, 91
2, 117496, Note_off_c, 0, 65, 91
2, 117504, Note_on_c, 0, 38, 82
2, 117508, Note_on_c, 0, 65, 64
2, 117508, Note_on_c, 0, 62, 82
2, 117508, Note_on_c, 0, 50, 73
2, 117508, Note_on_c, 0, 60, 82
2, 117510, Note_on_c, 0, 57, 73
2, 117804, Note_off_c, 0, 50, 73
2, 117806, Note_off_c, 0, 38, 82
2, 117818, Note_off_c, 0, 60, 82
2, 117824, Note_off_c, 0, 57, 73
2, 117840, Note_off_c, 0, 62, 82
2, 117844, Note_off_c, 0, 65, 64
2, 117886, Note_on_c, 0, 65, 82
2, 117888, Note_on_c, 0, 57, 91
2, 117888, Note_on_c, 0, 60, 91
2, 118252, Note_off_c, 0, 57, 91
2, 118254, Note_off_c, 0, 60, 91
2, 118256, Note_off_c, 0, 65, 82
2, 118272, Note_on_c, 0, 62, 82
2, 118272, Note_on_c, 0, 65, 100
2, 118272, Note_on_c, 0, 57, 91
2, 118272, Note_on_c, 0, 58, 82
2, 118272, Note_on_c, 0, 34, 82
2, 118272, Note_on_c, 0, 46, 82
2, 118484, Note_off_c, 0, 65, 100
2, 118488, Note_off_c, 0, 57, 91
2, 118494, Note_off_c, 0, 62, 82
2, 118504, Note_off_c, 0, 58, 82
2, 118516, Note_off_c, 0, 46, 82
2, 118516, Note_off_c, 0, 34, 82
2, 118562, Note_on_c, 0, 58, 73
2, 118562, Note_on_c, 0, 57, 82
2, 118562, Note_on_c, 0, 62, 82
2, 118562, Note_on_c, 0, 65, 82
2, 118566, Note_on_c, 0, 46, 82
2, 118566, Note_on_c, 0, 34, 82
2, 118592, Note_off_c, 0, 57, 82
2, 118594, Note_off_c, 0, 62, 82
2, 118596, Note_off_c, 0, 65, 82
2, 118604, Note_off_c, 0, 34, 82
2, 118604, Note_off_c, 0, 46, 82
2, 118614, Note_off_c, 0, 58, 73
2, 118844, Note_on_c, 0, 65, 82
2, 118844, Note_on_c, 0, 62, 82
2, 118844, Note_on_c, 0, 58, 80
2, 118846, Note_on_c, 0, 57, 82
2, 118850, Note_on_c, 0, 46, 64
2, 118850, Note_on_c, 0, 34, 64
2, 119166, Note_off_c, 0, 57, 82
2, 119170, Note_off_c, 0, 65, 82
2, 119174, Note_off_c, 0, 62, 82
2, 119180, Note_off_c, 0, 58, 80
2, 119226, Note_on_c, 0, 65, 91
2, 119226, Note_on_c, 0, 62, 82
2, 119226, Note_on_c, 0, 58, 60
2, 119228, Note_on_c, 0, 57, 73
2, 119354, Note_off_c, 0, 34, 64
2, 119354, Note_off_c, 0, 46, 64
2, 119420, Note_on_c, 0, 46, 56
2, 119420, Note_on_c, 0, 34, 56
2, 119442, Note_off_c, 0, 57, 73
2, 119446, Note_off_c, 0, 34, 56
2, 119446, Note_off_c, 0, 46, 56
2, 119456, Note_off_c, 0, 65, 91
2, 119458, Note_off_c, 0, 62, 82
2, 119460, Note_off_c, 0, 58, 60
2, 119612, Note_on_c, 0, 57, 91
2, 119614, Note_on_c, 0, 46, 60
2, 119614, Note_on_c, 0, 34, 60
2, 119614, Note_on_c, 0, 58, 64
2, 119614, Note_on_c, 0, 65, 91
2, 119616, Note_on_c, 0, 62, 73
2, 119626, Note_off_c, 0, 62, 73
2, 119632, Note_off_c, 0, 58, 64
2, 119640, Note_off_c, 0, 65, 91
2, 119642, Note_off_c, 0, 34, 60
2, 119642, Note_off_c, 0, 46, 60
2, 119652, Note_off_c, 0, 57, 91
2, 119810, Note_on_c, 0, 46, 73
2, 119810, Note_on_c, 0, 34, 73
2, 119810, Note_on_c, 0, 62, 91
2, 119810, Note_on_c, 0, 58, 91
2, 119810, Note_on_c, 0, 57, 91
2, 119812, Note_on_c, 0, 65, 98
2, 120048, Note_off_c, 0, 57, 91
2, 120050, Note_off_c, 0, 62, 91
2, 120052, Note_off_c, 0, 65, 98
2, 120056, Note_off_c, 0, 58, 91
2, 120060, Note_off_c, 0, 34, 73
2, 120060, Note_off_c, 0, 46, 73
2, 120100, Note_on_c, 0, 65, 91
2, 120100, Note_on_c, 0, 62, 91
2, 120100, Note_on_c, 0, 57, 82
2, 120100, Note_on_c, 0, 58, 73
2, 120102, Note_on_c, 0, 46, 56
2, 120102, Note_on_c, 0, 34, 56
2, 120128, Note_off_c, 0, 65, 91
2, 120134, Note_off_c, 0, 57, 82
2, 120136, Note_off_c, 0, 58, 73
2, 120138, Note_off_c, 0, 62, 91
2, 120144, Note_off_c, 0, 34, 56
2, 120144, Note_off_c, 0, 46, 56
2, 120382, Note_on_c, 0, 46, 64
2, 120382, Note_on_c, 0, 34, 64
2, 120386, Note_on_c, 0, 58, 82
2, 120388, Note_on_c, 0, 62, 91
2, 120388, Note_on_c, 0, 65, 91
2, 120388, Note_on_c, 0, 57, 82
2, 120742, Note_off_c, 0, 34, 64
2, 120742, Note_off_c, 0, 46, 64
2, 120760, Note_on_c, 0, 33, 107
2, 120886, Note_off_c, 0, 65, 91
2, 120892, Note_off_c, 0, 57, 82
2, 120896, Note_off_c, 0, 62, 91
2, 120918, Note_off_c, 0, 33, 107
2, 120918, Note_off_c, 0, 58, 82
2, 120952, Note_on_c, 0, 34, 107
2, 120958, Note_on_c, 0, 58, 73
2, 120962, Note_on_c, 0, 65, 82
2, 120962, Note_on_c, 0, 57, 82
2, 120962, Note_on_c, 0, 62, 82
2, 121100, Note_off_c, 0, 34, 107
2, 121142, Note_on_c, 0, 35, 113
2, 121310, Note_off_c, 0, 35, 113
2, 121324, Note_off_c, 0, 65, 82
2, 121326, Note_off_c, 0, 58, 73
2, 121330, Note_off_c, 0, 57, 82
2, 121334, Note_off_c, 0, 62, 82
2, 121344, Note_on_c, 0, 48, 91
2, 121344, Note_on_c, 0, 36, 82
2, 121344, Note_on_c, 0, 65, 82
2, 121346, Note_on_c, 0, 62, 91
2, 121348, Note_on_c, 0, 58, 82
2, 121350, Note_on_c, 0, 55, 91
2, 121542, Note_off_c, 0, 65, 82
2, 121554, Note_off_c, 0, 55, 91
2, 121554, Note_off_c, 0, 62, 91
2, 121558, Note_off_c, 0, 58, 82
2, 121588, Note_off_c, 0, 36, 82
2, 121592, Note_off_c, 0, 48, 91
2, 121630, Note_on_c, 0, 58, 82
2, 121634, Note_on_c, 0, 65, 64
2, 121634, Note_on_c, 0, 62, 91
2, 121634, Note_on_c, 0, 55, 91
2, 121652, Note_on_c, 0, 48, 91
2, 121652, Note_on_c, 0, 36, 82
2, 121680, Note_off_c, 0, 55, 91
2, 121686, Note_off_c, 0, 58, 82
2, 121692, Note_off_c, 0, 62, 91
2, 121696, Note_off_c, 0, 65, 64
2, 121704, Note_off_c, 0, 36, 82
2, 121706, Note_off_c, 0, 48, 91
2, 121918, Note_on_c, 0, 65, 89
2, 121918, Note_on_c, 0, 62, 91
2, 121918, Note_on_c, 0, 55, 82
2, 121918, Note_on_c, 0, 58, 82
2, 121922, Note_on_c, 0, 48, 82
2, 121922, Note_on_c, 0, 36, 82
2, 122548, Note_off_c, 0, 36, 82
2, 122552, Note_off_c, 0, 48, 82
2, 122692, Note_on_c, 0, 46, 73
2, 122702, Note_off_c, 0, 65, 89
2, 122710, Note_off_c, 0, 55, 82
2, 122712, Note_off_c, 0, 62, 91
2, 122716, Note_off_c, 0, 58, 82
2, 122758, Note_off_c, 0, 46, 73
2, 122784, Note_on_c, 0, 47, 82
2, 122854, Note_off_c, 0, 47, 82
2, 122874, Note_on_c, 0, 36, 82
2, 122878, Note_on_c, 0, 48, 91
2, 122882, Note_on_c, 0, 58, 91
2, 122884, Note_on_c, 0, 62, 91
2, 122886, Note_on_c, 0, 55, 91
2, 122886, Note_on_c, 0, 65, 91
2, 123052, Note_off_c, 0, 65, 91
2, 123058, Note_off_c, 0, 55, 91
2, 123074, Note_off_c, 0, 62, 91
2, 123088, Note_off_c, 0, 58, 91
2, 123138, Note_off_c, 0, 48, 91
2, 123144, Note_off_c, 0, 36, 82
2, 123174, Note_on_c, 0, 62, 91
2, 123176, Note_on_c, 0, 55, 91
2, 123176, Note_on_c, 0, 65, 82
2, 123176, Note_on_c, 0, 58, 82
2, 123180, Note_on_c, 0, 36, 73
2, 123182, Note_on_c, 0, 48, 82
2, 123206, Note_off_c, 0, 55, 91
2, 123212, Note_off_c, 0, 65, 82
2, 123220, Note_off_c, 0, 58, 82
2, 123230, Note_off_c, 0, 36, 73
2, 123230, Note_off_c, 0, 62, 91
2, 123232, Note_off_c, 0, 48, 82
2, 123454, Note_on_c, 0, 48, 91
2, 123454, Note_on_c, 0, 36, 82
2, 123454, Note_on_c, 0, 58, 91
2, 123456, Note_on_c, 0, 55, 82
2, 123456, Note_on_c, 0, 62, 100
2, 123458, Note_on_c, 0, 65, 82
2, 124062, Note_off_c, 0, 48, 91
2, 124066, Note_off_c, 0, 36, 82
2, 124134, Note_off_c, 0, 55, 82
2, 124152, Note_off_c, 0, 58, 91
2, 124160, Note_off_c, 0, 62, 100
2, 124166, Note_off_c, 0, 65, 82
2, 124226, Note_on_c, 0, 46, 64
2, 124306, Note_off_c, 0, 46, 64
2, 124318, Note_on_c, 0, 47, 64
2, 124386, Note_off_c, 0, 47, 64
2, 124408, Note_on_c, 0, 36, 82
2, 124412, Note_on_c, 0, 48, 91
2, 124412, Note_on_c, 0, 69, 91
2, 124412, Note_on_c, 0, 65, 82
2, 124414, Note_on_c, 0, 62, 91
2, 124418, Note_on_c, 0, 58, 91
2, 124610, Note_off_c, 0, 62, 91
2, 124616, Note_off_c, 0, 58, 91
2, 124620, Note_off_c, 0, 69, 91
2, 124626, Note_off_c, 0, 65, 82
2, 124672, Note_off_c, 0, 36, 82
2, 124674, Note_off_c, 0, 48, 91
2, 124700, Note_on_c, 0, 58, 82
2, 124706, Note_on_c, 0, 62, 73
2, 124706, Note_on_c, 0, 69, 91
2, 124706, Note_on_c, 0, 65, 91
2, 124716, Note_on_c, 0, 48, 82
2, 124718, Note_on_c, 0, 36, 82
2, 124734, Note_off_c, 0, 69, 91
2, 124734, Note_off_c, 0, 62, 73
2, 124740, Note_off_c, 0, 65, 91
2, 124748, Note_off_c, 0, 58, 82
2, 124756, Note_off_c, 0, 36, 82
2, 124760, Note_off_c, 0, 48, 82
2, 124988, Note_on_c, 0, 48, 91
2, 124988, Note_on_c, 0, 36, 91
2, 124990, Note_on_c, 0, 65, 91
2, 124994, Note_on_c, 0, 62, 91
2, 124994, Note_on_c, 0, 69, 91
2, 124994, Note_on_c, 0, 58, 82
2, 125622, Note_off_c, 0, 48, 91
2, 125630, Note_off_c, 0, 36, 91
2, 125764, Note_on_c, 0, 46, 73
2, 125766, Note_off_c, 0, 62, 91
2, 125768, Note_off_c, 0, 69, 91
2, 125774, Note_off_c, 0, 58, 82
2, 125778, Note_off_c, 0, 65, 91
2, 125826, Note_off_c, 0, 46, 73
2, 125860, Note_on_c, 0, 47, 91
2, 125914, Note_off_c, 0, 47, 91
2, 125944, Note_on_c, 0, 36, 91
2, 125948, Note_on_c, 0, 48, 82
2, 125950, Note_on_c, 0, 58, 91
2, 125952, Note_on_c, 0, 65, 91
2, 125954, Note_on_c, 0, 62, 82
2, 125954, Note_on_c, 0, 69, 82
2, 126162, Note_off_c, 0, 69, 82
2, 126174, Note_off_c, 0, 62, 82
2, 126176, Note_off_c, 0, 65, 91
2, 126182, Note_off_c, 0, 58, 91
2, 126204, Note_off_c, 0, 36, 91
2, 126206, Note_off_c, 0, 48, 82
2, 126240, Note_on_c, 0, 58, 82
2, 126244, Note_on_c, 0, 62, 73
2, 126244, Note_on_c, 0, 69, 91
2, 126244, Note_on_c, 0, 65, 91
2, 126254, Note_on_c, 0, 48, 91
2, 126256, Note_on_c, 0, 36, 91
2, 126278, Note_off_c, 0, 65, 91
2, 126282, Note_off_c, 0, 69, 91
2, 126282, Note_off_c, 0, 62, 73
2, 126288, Note_off_c, 0, 58, 82
2, 126310, Note_off_c, 0, 48, 91
2, 126312, Note_off_c, 0, 36, 91
2, 126522, Note_on_c, 0, 58, 91
2, 126524, Note_on_c, 0, 36, 82
2, 126524, Note_on_c, 0, 48, 73
2, 126526, Note_on_c, 0, 69, 69
2, 126526, Note_on_c, 0, 62, 69
2, 126526, Note_on_c, 0, 65, 69
2, 126924, Note_off_c, 0, 48, 73
2, 126926, Note_off_c, 0, 36, 82
2, 126934, Note_off_c, 0, 65, 69
2, 126938, Note_off_c, 0, 62, 69
2, 126942, Note_off_c, 0, 69, 69
2, 126952, Note_off_c, 0, 58, 91
2, 127098, Note_on_c, 0, 65, 82
2, 127100, Note_on_c, 0, 58, 64
2, 127100, Note_on_c, 0, 36, 82
2, 127100, Note_on_c, 0, 69, 73
2, 127102, Note_on_c, 0, 62, 82
2, 127106, Note_on_c, 0, 48, 82
2, 127256, Note_off_c, 0, 69, 73
2, 127262, Note_off_c, 0, 58, 64
2, 127272, Note_off_c, 0, 48, 82
2, 127276, Note_off_c, 0, 65, 82
2, 127278, Note_off_c, 0, 62, 82
2, 127284, Note_off_c, 0, 36, 82
2, 127488, Note_on_c, 0, 41, 83
2, 127488, Note_on_c, 0, 29, 83
2, 127488, Note_on_c, 0, 69, 92
2, 127488, Note_on_c, 0, 65, 94
2, 127488, Note_on_c, 0, 60, 82
2, 127666, Note_off_c, 0, 69, 92
2, 127680, Note_off_c, 0, 60, 82
2, 127692, Note_off_c, 0, 65, 94
2, 127706, Note_off_c, 0, 29, 83
2, 127706, Note_off_c, 0, 41, 83
2, 127774, Note_on_c, 0, 45, 73
2, 127774, Note_on_c, 0, 33, 73
2, 127776, Note_on_c, 0, 64, 87
2, 127776, Note_on_c, 0, 67, 85
2, 127780, Note_on_c, 0, 60, 73
2, 127782, Note_on_c, 0, 65, 91
2, 127826, Note_off_c, 0, 65, 91
2, 127826, Note_off_c, 0, 60, 73
2, 127826, Note_off_c, 0, 67, 85
2, 127828, Note_off_c, 0, 33, 73
2, 127828, Note_off_c, 0, 45, 73
2, 127830, Note_off_c, 0, 64, 87
2, 128060, Note_on_c, 0, 62, 91
2, 128060, Note_on_c, 0, 60, 91
2, 128062, Note_on_c, 0, 38, 82
2, 128062, Note_on_c, 0, 50, 82
2, 128062, Note_on_c, 0, 57, 82
2, 128062, Note_on_c, 0, 65, 91
2, 128380, Note_off_c, 0, 50, 82
2, 128380, Note_off_c, 0, 38, 82
2, 128396, Note_off_c, 0, 60, 91
2, 128408, Note_off_c, 0, 62, 91
2, 128414, Note_off_c, 0, 65, 91
2, 128422, Note_off_c, 0, 57, 82
2, 128444, Note_on_c, 0, 36, 64
2, 128444, Note_on_c, 0, 48, 64
2, 128448, Note_on_c, 0, 60, 73
2, 128476, Note_off_c, 0, 48, 64
2, 128476, Note_off_c, 0, 36, 64
2, 128488, Note_off_c, 0, 60, 73
2, 128636, Note_on_c, 0, 60, 71
2, 128642, Note_on_c, 0, 48, 73
2, 128692, Note_off_c, 0, 60, 71
2, 128704, Note_off_c, 0, 48, 73
2, 128730, Note_on_c, 0, 62, 77
2, 128736, Note_on_c, 0, 50, 72
2, 128786, Note_off_c, 0, 62, 77
2, 128788, Note_off_c, 0, 50, 72
2, 128824, Note_on_c, 0, 65, 85
2, 128826, Note_on_c, 0, 53, 73
2, 128864, Note_off_c, 0, 53, 73
2, 128868, Note_off_c, 0, 65, 85
2, 128924, Note_on_c, 0, 38, 64
2, 128966, Note_off_c, 0, 38, 64
2, 129020, Note_on_c, 0, 34, 82
2, 129020, Note_on_c, 0, 46, 82
2, 129022, Note_on_c, 0, 58, 73
2, 129026, Note_on_c, 0, 65, 91
2, 129028, Note_on_c, 0, 62, 91
2, 129028, Note_on_c, 0, 57, 82
2, 129232, Note_off_c, 0, 65, 91
2, 129246, Note_off_c, 0, 57, 82
2, 129246, Note_off_c, 0, 62, 91
2, 129252, Note_off_c, 0, 58, 73
2, 129270, Note_off_c, 0, 46, 82
2, 129270, Note_off_c, 0, 34, 82
2, 129310, Note_on_c, 0, 33, 73
2, 129310, Note_on_c, 0, 45, 73
2, 129312, Note_on_c, 0, 64, 82
2, 129312, Note_on_c, 0, 57, 73
2, 129316, Note_on_c, 0, 65, 82
2, 129318, Note_on_c, 0, 60, 91
2, 129320, Note_on_c, 0, 55, 73
2, 129350, Note_off_c, 0, 55, 73
2, 129356, Note_off_c, 0, 60, 91
2, 129356, Note_off_c, 0, 64, 82
2, 129358, Note_off_c, 0, 57, 73
2, 129360, Note_off_c, 0, 65, 82
2, 129376, Note_off_c, 0, 45, 73
2, 129376, Note_off_c, 0, 33, 73
2, 129590, Note_on_c, 0, 31, 83
2, 129590, Note_on_c, 0, 43, 83
2, 129594, Note_on_c, 0, 58, 91
2, 129598, Note_on_c, 0, 65, 91
2, 129598, Note_on_c, 0, 55, 73
2, 129598, Note_on_c, 0, 62, 82
2, 129598, Note_on_c, 0, 53, 73
2, 129952, Note_off_c, 0, 53, 73
2, 129952, Note_off_c, 0, 55, 73
2, 129954, Note_off_c, 0, 58, 91
2, 129976, Note_off_c, 0, 65, 91
2, 129978, Note_off_c, 0, 62, 82
2, 129982, Note_on_c, 0, 36, 64
2, 129982, Note_on_c, 0, 53, 72
2, 129982, Note_on_c, 0, 48, 64
2, 129984, Note_off_c, 0, 43, 83
2, 129984, Note_off_c, 0, 31, 83
2, 129986, Note_on_c, 0, 62, 73
2, 129986, Note_on_c, 0, 58, 60
2, 129988, Note_on_c, 0, 65, 73
2, 130020, Note_off_c, 0, 65, 73
2, 130020, Note_off_c, 0, 62, 73
2, 130024, Note_off_c, 0, 48, 64
2, 130024, Note_off_c, 0, 36, 64
2, 130034, Note_off_c, 0, 58, 60
2, 130042, Note_off_c, 0, 53, 72
2, 130362, Note_on_c, 0, 55, 64
2, 130364, Note_on_c, 0, 58, 60
2, 130364, Note_on_c, 0, 65, 82
2, 130364, Note_on_c, 0, 62, 91
2, 130374, Note_on_c, 0, 36, 64
2, 130374, Note_on_c, 0, 48, 64
2, 130400, Note_off_c, 0, 55, 64
2, 130406, Note_off_c, 0, 62, 91
2, 130406, Note_off_c, 0, 65, 82
2, 130406, Note_off_c, 0, 58, 60
2, 130412, Note_off_c, 0, 48, 64
2, 130412, Note_off_c, 0, 36, 64
2, 130560, Note_on_c, 0, 41, 83
2, 130560, Note_on_c, 0, 29, 83
2, 130560, Note_on_c, 0, 69, 92
2, 130560, Note_on_c, 0, 65, 94
2, 130560, Note_on_c, 0, 60, 82
2, 130738, Note_off_c, 0, 69, 92
2, 130752, Note_off_c, 0, 60, 82
2, 130764, Note_off_c, 0, 65, 94
2, 130778, Note_off_c, 0, 29, 83
2, 130778, Note_off_c, 0, 41, 83
2, 130846, Note_on_c, 0, 33, 73
2, 130846, Note_on_c, 0, 45, 73
2, 130848, Note_on_c, 0, 64, 87
2, 130848, Note_on_c, 0, 67, 85
2, 130852, Note_on_c, 0, 60, 73
2, 130854, Note_on_c, 0, 65, 91
2, 130898, Note_off_c, 0, 65, 91
2, 130898, Note_off_c, 0, 60, 73
2, 130898, Note_off_c, 0, 67, 85
2, 130900, Note_off_c, 0, 45, 73
2, 130900, Note_off_c, 0, 33, 73
2, 130902, Note_off_c, 0, 64, 87
2, 131132, Note_on_c, 0, 62, 91
2, 131132, Note_on_c, 0, 60, 91
2, 131134, Note_on_c, 0, 38, 82
2, 131134, Note_on_c, 0, 50, 82
2, 131134, Note_on_c, 0, 57, 82
2, 131134, Note_on_c, 0, 65, 91
2, 131452, Note_off_c, 0, 50, 82
2, 131452, Note_off_c, 0, 38, 82
2, 131468, Note_off_c, 0, 60, 91
2, 131480, Note_off_c, 0, 62, 91
2, 131486, Note_off_c, 0, 65, 91
2, 131494, Note_off_c, 0, 57, 82
2, 131516, Note_on_c, 0, 48, 64
2, 131520, Note_on_c, 0, 60, 73
2, 131548, Note_off_c, 0, 48, 64
2, 131560, Note_off_c, 0, 60, 73
2, 131708, Note_on_c, 0, 60, 71
2, 131714, Note_on_c, 0, 48, 73
2, 131764, Note_off_c, 0, 60, 71
2, 131776, Note_off_c, 0, 48, 73
2, 131802, Note_on_c, 0, 62, 77
2, 131808, Note_on_c, 0, 50, 72
2, 131858, Note_off_c, 0, 62, 77
2, 131860, Note_off_c, 0, 50, 72
2, 131896, Note_on_c, 0, 65, 85
2, 131898, Note_on_c, 0, 53, 73
2, 131936, Note_off_c, 0, 53, 73
2, 131940, Note_off_c, 0, 65, 85
2, 131994, Note_on_c, 0, 62, 73
2, 131994, Note_on_c, 0, 38, 82
2, 132048, Note_off_c, 0, 38, 82
2, 132052, Note_off_c, 0, 62, 73
2, 132092, Note_on_c, 0, 34, 82
2, 132092, Note_on_c, 0, 46, 82
2, 132094, Note_on_c, 0, 58, 73
2, 132098, Note_on_c, 0, 65, 91
2, 132100, Note_on_c, 0, 62, 91
2, 132100, Note_on_c, 0, 57, 82
2, 132304, Note_off_c, 0, 65, 91
2, 132318, Note_off_c, 0, 57, 82
2, 132318, Note_off_c, 0, 62, 91
2, 132324, Note_off_c, 0, 58, 73
2, 132342, Note_off_c, 0, 46, 82
2, 132342, Note_off_c, 0, 34, 82
2, 132382, Note_on_c, 0, 33, 73
2, 132382, Note_on_c, 0, 45, 73
2, 132384, Note_on_c, 0, 64, 82
2, 132384, Note_on_c, 0, 57, 73
2, 132388, Note_on_c, 0, 65, 82
2, 132390, Note_on_c, 0, 60, 91
2, 132392, Note_on_c, 0, 55, 73
2, 132422, Note_off_c, 0, 55, 73
2, 132428, Note_off_c, 0, 60, 91
2, 132428, Note_off_c, 0, 64, 82
2, 132430, Note_off_c, 0, 57, 73
2, 132432, Note_off_c, 0, 65, 82
2, 132448, Note_off_c, 0, 45, 73
2, 132448, Note_off_c, 0, 33, 73
2, 132662, Note_on_c, 0, 31, 83
2, 132662, Note_on_c, 0, 43, 83
2, 132666, Note_on_c, 0, 58, 91
2, 132670, Note_on_c, 0, 65, 91
2, 132670, Note_on_c, 0, 55, 73
2, 132670, Note_on_c, 0, 62, 82
2, 132670, Note_on_c, 0, 53, 73
2, 133024, Note_off_c, 0, 53, 73
2, 133024, Note_off_c, 0, 55, 73
2, 133026, Note_off_c, 0, 58, 91
2, 133048, Note_off_c, 0, 65, 91
2, 133050, Note_off_c, 0, 62, 82
2, 133054, Note_on_c, 0, 58, 64
2, 133054, Note_on_c, 0, 36, 64
2, 133054, Note_on_c, 0, 48, 64
2, 133056, Note_off_c, 0, 43, 83
2, 133056, Note_off_c, 0, 31, 83
2, 133056, Note_on_c, 0, 55, 75
2, 133058, Note_on_c, 0, 65, 64
2, 133062, Note_on_c, 0, 62, 82
2, 133218, Note_off_c, 0, 55, 75
2, 133232, Note_off_c, 0, 65, 64
2, 133234, Note_off_c, 0, 36, 64
2, 133236, Note_off_c, 0, 62, 82
2, 133238, Note_off_c, 0, 58, 64
2, 133254, Note_off_c, 0, 48, 64
2, 133434, Note_on_c, 0, 55, 64
2, 133436, Note_on_c, 0, 58, 60
2, 133436, Note_on_c, 0, 65, 82
2, 133436, Note_on_c, 0, 62, 91
2, 133446, Note_on_c, 0, 36, 64
2, 133446, Note_on_c, 0, 48, 64
2, 133472, Note_off_c, 0, 55, 64
2, 133478, Note_off_c, 0, 62, 91
2, 133478, Note_off_c, 0, 65, 82
2, 133478, Note_off_c, 0, 58, 60
2, 133484, Note_off_c, 0, 48, 64
2, 133484, Note_off_c, 0, 36, 64
2, 133632, Note_on_c, 0, 46, 73
2, 133632, Note_on_c, 0, 62, 82
2, 133634, Note_on_c, 0, 60, 82
2, 133634, Note_on_c, 0, 69, 73
2, 133634, Note_on_c, 0, 65, 73
2, 135732, Note_off_c, 0, 62, 82
2, 135732, Note_off_c, 0, 46, 73
2, 135734, Note_off_c, 0, 65, 73
2, 135734, Note_off_c, 0, 69, 73
2, 135734, Note_off_c, 0, 60, 82
2, 135940, Note_on_c, 0, 46, 91
2, 135940, Note_on_c, 0, 65, 82
2, 135940, Note_on_c, 0, 62, 91
2, 135940, Note_on_c, 0, 60, 82
2, 135942, Note_on_c, 0, 69, 82
2, 136070, Note_off_c, 0, 46, 91
2, 136072, Note_off_c, 0, 69, 82
2, 136078, Note_off_c, 0, 60, 82
2, 136084, Note_off_c, 0, 62, 91
2, 136086, Note_off_c, 0, 65, 82
2, 136124, Note_on_c, 0, 46, 75
2, 136132, Note_on_c, 0, 62, 91
2, 136132, Note_on_c, 0, 65, 82
2, 136132, Note_on_c, 0, 60, 73
2, 136134, Note_on_c, 0, 69, 82
2, 136152, Note_off_c, 0, 69, 82
2, 136154, Note_off_c, 0, 65, 82
2, 136158, Note_off_c, 0, 62, 91
2, 136160, Note_off_c, 0, 46, 75
2, 136162, Note_off_c, 0, 60, 73
2, 136506, Note_on_c, 0, 46, 91
2, 136508, Note_on_c, 0, 65, 73
2, 136508, Note_on_c, 0, 60, 82
2, 136508, Note_on_c, 0, 62, 73
2, 136514, Note_on_c, 0, 69, 73
2, 136628, Note_off_c, 0, 46, 91
2, 136632, Note_off_c, 0, 69, 73
2, 136638, Note_off_c, 0, 60, 82
2, 136646, Note_off_c, 0, 62, 73
2, 136650, Note_off_c, 0, 65, 73
2, 136704, Note_on_c, 0, 45, 73
2, 136704, Note_on_c, 0, 60, 82
2, 136706, Note_on_c, 0, 57, 73
2, 136706, Note_on_c, 0, 67, 82
2, 136706, Note_on_c, 0, 64, 82
2, 138464, Note_off_c, 0, 57, 73
2, 138468, Note_off_c, 0, 64, 82
2, 138472, Note_off_c, 0, 60, 82
2, 138476, Note_off_c, 0, 67, 82
2, 138476, Note_off_c, 0, 45, 73
2, 138616, Note_on_c, 0, 41, 73
2, 138626, Note_on_c, 0, 64, 82
2, 138626, Note_on_c, 0, 55, 73
2, 138626, Note_on_c, 0, 60, 82
2, 138626, Note_on_c, 0, 57, 82
2, 138764, Note_off_c, 0, 57, 82
2, 138764, Note_off_c, 0, 64, 82
2, 138768, Note_off_c, 0, 55, 73
2, 138774, Note_off_c, 0, 60, 82
2, 138790, Note_off_c, 0, 41, 73
2, 138816, Note_on_c, 0, 43, 73
2, 138820, Note_on_c, 0, 57, 73
2, 138822, Note_on_c, 0, 62, 88
2, 138822, Note_on_c, 0, 58, 82
2, 138824, Note_on_c, 0, 65, 84
2, 138864, Note_off_c, 0, 43, 73
2, 138870, Note_off_c, 0, 65, 84
2, 138874, Note_off_c, 0, 62, 88
2, 138882, Note_off_c, 0, 57, 73
2, 138888, Note_off_c, 0, 58, 82
2, 139206, Note_on_c, 0, 45, 68
2, 139210, Note_on_c, 0, 57, 76
2, 139210, Note_on_c, 0, 60, 80
2, 139212, Note_on_c, 0, 67, 85
2, 139212, Note_on_c, 0, 64, 78
2, 139606, Note_off_c, 0, 45, 68
2, 139610, Note_off_c, 0, 60, 80
2, 139610, Note_off_c, 0, 57, 76
2, 139612, Note_off_c, 0, 64, 78
2, 139612, Note_off_c, 0, 67, 85
2, 139776, Note_on_c, 0, 46, 73
2, 139776, Note_on_c, 0, 62, 82
2, 139778, Note_on_c, 0, 60, 82
2, 139778, Note_on_c, 0, 69, 73
2, 139778, Note_on_c, 0, 65, 73
2, 141876, Note_off_c, 0, 62, 82
2, 141876, Note_off_c, 0, 46, 73
2, 141878, Note_off_c, 0, 65, 73
2, 141878, Note_off_c, 0, 69, 73
2, 141878, Note_off_c, 0, 60, 82
2, 142084, Note_on_c, 0, 46, 91
2, 142084, Note_on_c, 0, 65, 82
2, 142084, Note_on_c, 0, 62, 91
2, 142084, Note_on_c, 0, 60, 82
2, 142086, Note_on_c, 0, 69, 82
2, 142214, Note_off_c, 0, 46, 91
2, 142216, Note_off_c, 0, 69, 82
2, 142222, Note_off_c, 0, 60, 82
2, 142228, Note_off_c, 0, 62, 91
2, 142230, Note_off_c, 0, 65, 82
2, 142268, Note_on_c, 0, 46, 75
2, 142276, Note_on_c, 0, 62, 91
2, 142276, Note_on_c, 0, 65, 82
2, 142276, Note_on_c, 0, 60, 73
2, 142278, Note_on_c, 0, 69, 82
2, 142296, Note_off_c, 0, 69, 82
2, 142298, Note_off_c, 0, 65, 82
2, 142302, Note_off_c, 0, 62, 91
2, 142304, Note_off_c, 0, 46, 75
2, 142306, Note_off_c, 0, 60, 73
2, 142650, Note_on_c, 0, 46, 91
2, 142652, Note_on_c, 0, 65, 73
2, 142652, Note_on_c, 0, 60, 82
2, 142652, Note_on_c, 0, 62, 73
2, 142658, Note_on_c, 0, 69, 73
2, 142772, Note_off_c, 0, 46, 91
2, 142776, Note_off_c, 0, 69, 73
2, 142782, Note_off_c, 0, 60, 82
2, 142790, Note_off_c, 0, 62, 73
2, 142794, Note_off_c, 0, 65, 73
2, 142848, Note_on_c, 0, 45, 73
2, 142848, Note_on_c, 0, 60, 82
2, 142850, Note_on_c, 0, 57, 73
2, 142850, Note_on_c, 0, 67, 82
2, 142850, Note_on_c, 0, 64, 82
2, 144348, Note_off_c, 0, 60, 82
2, 144348, Note_off_c, 0, 45, 73
2, 144350, Note_off_c, 0, 64, 82
2, 144350, Note_off_c, 0, 67, 82
2, 144350, Note_off_c, 0, 57, 73
2, 144776, Note_on_c, 0, 57, 82
2, 144780, Note_on_c, 0, 55, 82
2, 144780, Note_on_c, 0, 60, 73
2, 144782, Note_on_c, 0, 64, 73
2, 144986, Note_off_c, 0, 55, 82
2, 145068, Note_on_c, 0, 55, 64
2, 145082, Note_off_c, 0, 57, 82
2, 145086, Note_off_c, 0, 64, 73
2, 145102, Note_off_c, 0, 60, 73
2, 145114, Note_off_c, 0, 55, 64
2, 145346, Note_on_c, 0, 45, 91
2, 145346, Note_on_c, 0, 55, 73
2, 145348, Note_on_c, 0, 52, 82
2, 145350, Note_on_c, 0, 60, 73
2, 145352, Note_on_c, 0, 57, 73
2, 145476, Note_off_c, 0, 60, 73
2, 145486, Note_off_c, 0, 52, 82
2, 145490, Note_off_c, 0, 55, 73
2, 145494, Note_off_c, 0, 57, 73
2, 145496, Note_off_c, 0, 45, 91
2, 145534, Note_on_c, 0, 45, 73
2, 145534, Note_on_c, 0, 60, 82
2, 145534, Note_on_c, 0, 57, 73
2, 145538, Note_on_c, 0, 52, 91
2, 145540, Note_on_c, 0, 55, 73
2, 145780, Note_off_c, 0, 45, 73
2, 145792, Note_off_c, 0, 52, 91
2, 145794, Note_off_c, 0, 55, 73
2, 145798, Note_off_c, 0, 60, 82
2, 145802, Note_off_c, 0, 57, 73
2, 145920, Note_on_c, 0, 31, 82
2, 145920, Note_on_c, 0, 43, 91
2, 145920, Note_on_c, 0, 65, 82
2, 145922, Note_on_c, 0, 62, 91
2, 145924, Note_on_c, 0, 58, 82
2, 145926, Note_on_c, 0, 55, 91
2, 146118, Note_off_c, 0, 65, 82
2, 146130, Note_off_c, 0, 55, 91
2, 146130, Note_off_c, 0, 62, 91
2, 146134, Note_off_c, 0, 58, 82
2, 146164, Note_off_c, 0, 31, 82
2, 146168, Note_off_c, 0, 43, 91
2, 146206, Note_on_c, 0, 58, 82
2, 146210, Note_on_c, 0, 65, 64
2, 146210, Note_on_c, 0, 62, 91
2, 146210, Note_on_c, 0, 55, 91
2, 146228, Note_on_c, 0, 31, 82
2, 146228, Note_on_c, 0, 43, 91
2, 146256, Note_off_c, 0, 55, 91
2, 146262, Note_off_c, 0, 58, 82
2, 146268, Note_off_c, 0, 62, 91
2, 146272, Note_off_c, 0, 65, 64
2, 146280, Note_off_c, 0, 31, 82
2, 146282, Note_off_c, 0, 43, 91
2, 146494, Note_on_c, 0, 65, 89
2, 146494, Note_on_c, 0, 62, 91
2, 146494, Note_on_c, 0, 55, 82
2, 146494, Note_on_c, 0, 58, 82
2, 146498, Note_on_c, 0, 31, 82
2, 146498, Note_on_c, 0, 43, 82
2, 147124, Note_off_c, 0, 31, 82
2, 147128, Note_off_c, 0, 43, 82
2, 147278, Note_off_c, 0, 65, 89
2, 147286, Note_off_c, 0, 55, 82
2, 147288, Note_off_c, 0, 62, 91
2, 147292, Note_off_c, 0, 58, 82
2, 147450, Note_on_c, 0, 36, 82
2, 147454, Note_on_c, 0, 48, 91
2, 147458, Note_on_c, 0, 58, 91
2, 147460, Note_on_c, 0, 62, 91
2, 147462, Note_on_c, 0, 55, 91
2, 147462, Note_on_c, 0, 65, 91
2, 147628, Note_off_c, 0, 65, 91
2, 147634, Note_off_c, 0, 55, 91
2, 147650, Note_off_c, 0, 62, 91
2, 147664, Note_off_c, 0, 58, 91
2, 147714, Note_off_c, 0, 48, 91
2, 147720, Note_off_c, 0, 36, 82
2, 147750, Note_on_c, 0, 62, 91
2, 147752, Note_on_c, 0, 55, 91
2, 147752, Note_on_c, 0, 65, 82
2, 147752, Note_on_c, 0, 58, 82
2, 147756, Note_on_c, 0, 36, 73
2, 147758, Note_on_c, 0, 48, 82
2, 147782, Note_off_c, 0, 55, 91
2, 147788, Note_off_c, 0, 65, 82
2, 147796, Note_off_c, 0, 58, 82
2, 147806, Note_off_c, 0, 36, 73
2, 147806, Note_off_c, 0, 62, 91
2, 147808, Note_off_c, 0, 48, 82
2, 148030, Note_on_c, 0, 48, 91
2, 148030, Note_on_c, 0, 36, 82
2, 148030, Note_on_c, 0, 58, 91
2, 148032, Note_on_c, 0, 55, 82
2, 148032, Note_on_c, 0, 62, 100
2, 148034, Note_on_c, 0, 65, 82
2, 148638, Note_off_c, 0, 48, 91
2, 148642, Note_off_c, 0, 36, 82
2, 148710, Note_off_c, 0, 55, 82
2, 148728, Note_off_c, 0, 58, 91
2, 148736, Note_off_c, 0, 62, 100
2, 148742, Note_off_c, 0, 65, 82
2, 148984, Note_on_c, 0, 31, 82
2, 148988, Note_on_c, 0, 65, 82
2, 148990, Note_on_c, 0, 62, 91
2, 148992, Note_on_c, 0, 55, 91
2, 148992, Note_on_c, 0, 43, 91
2, 148994, Note_on_c, 0, 58, 91
2, 149186, Note_off_c, 0, 62, 91
2, 149192, Note_off_c, 0, 58, 91
2, 149200, Note_off_c, 0, 55, 91
2, 149202, Note_off_c, 0, 65, 82
2, 149248, Note_off_c, 0, 31, 82
2, 149254, Note_off_c, 0, 43, 91
2, 149276, Note_on_c, 0, 58, 82
2, 149280, Note_on_c, 0, 43, 82
2, 149282, Note_on_c, 0, 62, 73
2, 149282, Note_on_c, 0, 65, 91
2, 149286, Note_on_c, 0, 55, 91
2, 149294, Note_on_c, 0, 31, 82
2, 149310, Note_off_c, 0, 62, 73
2, 149314, Note_off_c, 0, 55, 91
2, 149316, Note_off_c, 0, 65, 91
2, 149324, Note_off_c, 0, 43, 82
2, 149324, Note_off_c, 0, 58, 82
2, 149332, Note_off_c, 0, 31, 82
2, 149564, Note_on_c, 0, 31, 91
2, 149566, Note_on_c, 0, 65, 91
2, 149568, Note_on_c, 0, 43, 91
2, 149570, Note_on_c, 0, 62, 91
2, 149570, Note_on_c, 0, 58, 82
2, 149574, Note_on_c, 0, 55, 91
2, 150202, Note_off_c, 0, 43, 91
2, 150206, Note_off_c, 0, 31, 91
2, 150342, Note_off_c, 0, 62, 91
2, 150348, Note_off_c, 0, 55, 91
2, 150350, Note_off_c, 0, 58, 82
2, 150354, Note_off_c, 0, 65, 91
2, 150520, Note_on_c, 0, 36, 91
2, 150524, Note_on_c, 0, 48, 82
2, 150526, Note_on_c, 0, 58, 91
2, 150528, Note_on_c, 0, 55, 82
2, 150528, Note_on_c, 0, 65, 91
2, 150530, Note_on_c, 0, 62, 82
2, 150736, Note_off_c, 0, 55, 82
2, 150750, Note_off_c, 0, 62, 82
2, 150752, Note_off_c, 0, 65, 91
2, 150758, Note_off_c, 0, 58, 91
2, 150780, Note_off_c, 0, 36, 91
2, 150782, Note_off_c, 0, 48, 82
2, 150816, Note_on_c, 0, 58, 82
2, 150818, Note_on_c, 0, 55, 91
2, 150820, Note_on_c, 0, 62, 73
2, 150820, Note_on_c, 0, 65, 91
2, 150830, Note_on_c, 0, 48, 91
2, 150832, Note_on_c, 0, 36, 91
2, 150854, Note_off_c, 0, 65, 91
2, 150856, Note_off_c, 0, 55, 91
2, 150858, Note_off_c, 0, 62, 73
2, 150864, Note_off_c, 0, 58, 82
2, 150886, Note_off_c, 0, 48, 91
2, 150888, Note_off_c, 0, 36, 91
2, 151098, Note_on_c, 0, 58, 91
2, 151100, Note_on_c, 0, 55, 82
2, 151100, Note_on_c, 0, 36, 82
2, 151100, Note_on_c, 0, 48, 78
2, 151102, Note_on_c, 0, 62, 83
2, 151102, Note_on_c, 0, 65, 92
2, 151882, Note_off_c, 0, 65, 92
2, 151898, Note_off_c, 0, 58, 91
2, 151900, Note_off_c, 0, 48, 78
2, 151900, Note_off_c, 0, 36, 82
2, 151900, Note_off_c, 0, 55, 82
2, 151902, Note_off_c, 0, 62, 83
2, 152064, Note_on_c, 0, 65, 91
2, 152064, Note_on_c, 0, 31, 82
2, 152064, Note_on_c, 0, 43, 91
2, 152066, Note_on_c, 0, 62, 91
2, 152066, Note_on_c, 0, 70, 82
2, 152254, Note_on_c, 0, 60, 60
2, 152266, Note_on_c, 0, 69, 60
2, 152274, Note_off_c, 0, 62, 91
2, 152282, Note_off_c, 0, 65, 91
2, 152284, Note_off_c, 0, 70, 82
2, 152308, Note_off_c, 0, 31, 82
2, 152312, Note_off_c, 0, 43, 91
2, 152326, Note_off_c, 0, 60, 60
2, 152340, Note_off_c, 0, 69, 60
2, 152352, Note_on_c, 0, 65, 82
2, 152352, Note_on_c, 0, 62, 73
2, 152352, Note_on_c, 0, 70, 73
2, 152372, Note_on_c, 0, 31, 82
2, 152372, Note_on_c, 0, 43, 91
2, 152424, Note_off_c, 0, 31, 82
2, 152426, Note_off_c, 0, 43, 91
2, 152544, Note_on_c, 0, 60, 64
2, 152552, Note_on_c, 0, 69, 73
2, 152562, Note_off_c, 0, 70, 73
2, 152562, Note_off_c, 0, 62, 73
2, 152568, Note_off_c, 0, 65, 82
2, 152594, Note_off_c, 0, 60, 64
2, 152602, Note_off_c, 0, 69, 73
2, 152638, Note_on_c, 0, 65, 91
2, 152638, Note_on_c, 0, 70, 73
2, 152640, Note_on_c, 0, 62, 91
2, 152642, Note_on_c, 0, 31, 82
2, 152642, Note_on_c, 0, 43, 82
2, 153268, Note_off_c, 0, 31, 82
2, 153272, Note_off_c, 0, 43, 82
2, 153416, Note_off_c, 0, 62, 91
2, 153416, Note_off_c, 0, 65, 91
2, 153418, Note_off_c, 0, 70, 73
2, 153594, Note_on_c, 0, 36, 82
2, 153596, Note_on_c, 0, 65, 91
2, 153598, Note_on_c, 0, 48, 91
2, 153600, Note_on_c, 0, 62, 91
2, 153600, Note_on_c, 0, 70, 82
2, 153784, Note_on_c, 0, 60, 60
2, 153808, Note_off_c, 0, 62, 91
2, 153808, Note_on_c, 0, 69, 60
2, 153814, Note_off_c, 0, 65, 91
2, 153818, Note_off_c, 0, 70, 82
2, 153856, Note_off_c, 0, 60, 60
2, 153858, Note_off_c, 0, 48, 91
2, 153864, Note_off_c, 0, 36, 82
2, 153882, Note_off_c, 0, 69, 60
2, 153884, Note_on_c, 0, 65, 82
2, 153884, Note_on_c, 0, 62, 73
2, 153884, Note_on_c, 0, 70, 73
2, 153900, Note_on_c, 0, 36, 73
2, 153902, Note_on_c, 0, 48, 82
2, 153950, Note_off_c, 0, 36, 73
2, 153952, Note_off_c, 0, 48, 82
2, 154076, Note_on_c, 0, 60, 64
2, 154092, Note_on_c, 0, 69, 73
2, 154094, Note_off_c, 0, 70, 73
2, 154094, Note_off_c, 0, 62, 73
2, 154100, Note_off_c, 0, 65, 82
2, 154126, Note_off_c, 0, 60, 64
2, 154170, Note_on_c, 0, 65, 91
2, 154170, Note_on_c, 0, 70, 73
2, 154172, Note_on_c, 0, 62, 91
2, 154174, Note_on_c, 0, 48, 91
2, 154174, Note_on_c, 0, 36, 82
2, 154184, Note_off_c, 0, 69, 73
2, 154782, Note_off_c, 0, 48, 91
2, 154786, Note_off_c, 0, 36, 82
2, 154948, Note_off_c, 0, 62, 91
2, 154948, Note_off_c, 0, 65, 91
2, 154950, Note_off_c, 0, 70, 73
2, 155128, Note_on_c, 0, 31, 82
2, 155136, Note_on_c, 0, 43, 91
2, 155140, Note_on_c, 0, 70, 73
2, 155140, Note_on_c, 0, 62, 82
2, 155140, Note_on_c, 0, 65, 82
2, 155332, Note_off_c, 0, 70, 73
2, 155332, Note_on_c, 0, 60, 58
2, 155336, Note_on_c, 0, 69, 64
2, 155340, Note_off_c, 0, 65, 82
2, 155340, Note_off_c, 0, 62, 82
2, 155376, Note_off_c, 0, 60, 58
2, 155392, Note_off_c, 0, 31, 82
2, 155398, Note_off_c, 0, 43, 91
2, 155400, Note_off_c, 0, 69, 64
2, 155424, Note_on_c, 0, 43, 82
2, 155428, Note_on_c, 0, 65, 91
2, 155428, Note_on_c, 0, 62, 100
2, 155430, Note_on_c, 0, 70, 91
2, 155438, Note_on_c, 0, 31, 82
2, 155468, Note_off_c, 0, 43, 82
2, 155476, Note_off_c, 0, 31, 82
2, 155610, Note_off_c, 0, 70, 91
2, 155614, Note_on_c, 0, 60, 72
2, 155628, Note_off_c, 0, 62, 100
2, 155630, Note_on_c, 0, 69, 73
2, 155634, Note_off_c, 0, 65, 91
2, 155662, Note_off_c, 0, 60, 72
2, 155696, Note_off_c, 0, 69, 73
2, 155708, Note_on_c, 0, 31, 91
2, 155712, Note_on_c, 0, 65, 91
2, 155712, Note_on_c, 0, 43, 91
2, 155716, Note_on_c, 0, 70, 91
2, 155716, Note_on_c, 0, 62, 82
2, 156346, Note_off_c, 0, 43, 91
2, 156350, Note_off_c, 0, 31, 91
2, 156482, Note_off_c, 0, 62, 82
2, 156486, Note_off_c, 0, 70, 91
2, 156500, Note_off_c, 0, 65, 91
2, 156664, Note_on_c, 0, 36, 91
2, 156668, Note_on_c, 0, 48, 82
2, 156672, Note_on_c, 0, 70, 82
2, 156672, Note_on_c, 0, 62, 91
2, 156672, Note_on_c, 0, 65, 91
2, 156856, Note_on_c, 0, 60, 82
2, 156858, Note_on_c, 0, 64, 60
2, 156868, Note_off_c, 0, 62, 91
2, 156872, Note_off_c, 0, 70, 82
2, 156874, Note_off_c, 0, 65, 91
2, 156912, Note_off_c, 0, 60, 82
2, 156924, Note_off_c, 0, 36, 91
2, 156926, Note_off_c, 0, 48, 82
2, 156938, Note_off_c, 0, 64, 60
2, 156956, Note_on_c, 0, 70, 88
2, 156960, Note_on_c, 0, 65, 77
2, 156960, Note_on_c, 0, 48, 91
2, 156962, Note_on_c, 0, 62, 81
2, 156976, Note_on_c, 0, 36, 91
2, 157016, Note_off_c, 0, 48, 91
2, 157032, Note_off_c, 0, 36, 91
2, 157150, Note_on_c, 0, 64, 68
2, 157160, Note_on_c, 0, 60, 73
2, 157174, Note_off_c, 0, 62, 81
2, 157174, Note_off_c, 0, 70, 88
2, 157176, Note_off_c, 0, 65, 77
2, 157220, Note_off_c, 0, 64, 68
2, 157222, Note_off_c, 0, 60, 73
2, 157242, Note_on_c, 0, 70, 73
2, 157244, Note_on_c, 0, 36, 82
2, 157244, Note_on_c, 0, 48, 78
2, 157248, Note_on_c, 0, 65, 82
2, 157248, Note_on_c, 0, 62, 91
2, 157250, Note_on_c, 0, 60, 73
2, 157254, Note_on_c, 0, 67, 91
2, 157778, Note_off_c, 0, 60, 73
2, 157778, Note_off_c, 0, 70, 73
2, 157786, Note_off_c, 0, 67, 91
2, 157788, Note_off_c, 0, 62, 91
2, 157790, Note_off_c, 0, 65, 82
2, 157826, Note_on_c, 0, 65, 91
2, 157828, Note_on_c, 0, 60, 64
2, 157830, Note_on_c, 0, 62, 82
2, 157830, Note_on_c, 0, 70, 82
2, 158044, Note_off_c, 0, 48, 78
2, 158044, Note_off_c, 0, 36, 82
2, 158190, Note_off_c, 0, 62, 82
2, 158192, Note_off_c, 0, 70, 82
2, 158194, Note_off_c, 0, 65, 91
2, 158196, Note_off_c, 0, 60, 64
2, 158208, Note_on_c, 0, 41, 83
2, 158208, Note_on_c, 0, 29, 83
2, 158208, Note_on_c, 0, 69, 92
2, 158208, Note_on_c, 0, 65, 94
2, 158208, Note_on_c, 0, 60, 82
2, 158386, Note_off_c, 0, 69, 92
2, 158400, Note_off_c, 0, 60, 82
2, 158412, Note_off_c, 0, 65, 94
2, 158426, Note_off_c, 0, 29, 83
2, 158426, Note_off_c, 0, 41, 83
2, 158494, Note_on_c, 0, 45, 73
2, 158494, Note_on_c, 0, 33, 73
2, 158496, Note_on_c, 0, 64, 87
2, 158496, Note_on_c, 0, 67, 85
2, 158500, Note_on_c, 0, 60, 73
2, 158502, Note_on_c, 0, 65, 91
2, 158546, Note_off_c, 0, 65, 91
2, 158546, Note_off_c, 0, 60, 73
2, 158546, Note_off_c, 0, 67, 85
2, 158548, Note_off_c, 0, 33, 73
2, 158548, Note_off_c, 0, 45, 73
2, 158550, Note_off_c, 0, 64, 87
2, 158780, Note_on_c, 0, 62, 91
2, 158780, Note_on_c, 0, 60, 91
2, 158782, Note_on_c, 0, 38, 82
2, 158782, Note_on_c, 0, 50, 82
2, 158782, Note_on_c, 0, 57, 82
2, 158782, Note_on_c, 0, 65, 91
2, 159100, Note_off_c, 0, 50, 82
2, 159100, Note_off_c, 0, 38, 82
2, 159116, Note_off_c, 0, 60, 91
2, 159128, Note_off_c, 0, 62, 91
2, 159134, Note_off_c, 0, 65, 91
2, 159142, Note_off_c, 0, 57, 82
2, 159164, Note_on_c, 0, 36, 64
2, 159164, Note_on_c, 0, 48, 64
2, 159168, Note_on_c, 0, 60, 73
2, 159196, Note_off_c, 0, 48, 64
2, 159196, Note_off_c, 0, 36, 64
2, 159208, Note_off_c, 0, 60, 73
2, 159356, Note_on_c, 0, 60, 71
2, 159362, Note_on_c, 0, 48, 73
2, 159412, Note_off_c, 0, 60, 71
2, 159424, Note_off_c, 0, 48, 73
2, 159450, Note_on_c, 0, 62, 77
2, 159456, Note_on_c, 0, 50, 72
2, 159506, Note_off_c, 0, 62, 77
2, 159508, Note_off_c, 0, 50, 72
2, 159544, Note_on_c, 0, 65, 85
2, 159546, Note_on_c, 0, 53, 73
2, 159584, Note_off_c, 0, 53, 73
2, 159588, Note_off_c, 0, 65, 85
2, 159644, Note_on_c, 0, 38, 64
2, 159686, Note_off_c, 0, 38, 64
2, 159740, Note_on_c, 0, 34, 82
2, 159740, Note_on_c, 0, 46, 82
2, 159742, Note_on_c, 0, 58, 73
2, 159746, Note_on_c, 0, 65, 91
2, 159748, Note_on_c, 0, 62, 91
2, 159748, Note_on_c, 0, 57, 82
2, 159952, Note_off_c, 0, 65, 91
2, 159966, Note_off_c, 0, 57, 82
2, 159966, Note_off_c, 0, 62, 91
2, 159972, Note_off_c, 0, 58, 73
2, 159990, Note_off_c, 0, 46, 82
2, 159990, Note_off_c, 0, 34, 82
2, 160030, Note_on_c, 0, 33, 73
2, 160030, Note_on_c, 0, 45, 73
2, 160032, Note_on_c, 0, 64, 82
2, 160032, Note_on_c, 0, 57, 73
2, 160036, Note_on_c, 0, 65, 82
2, 160038, Note_on_c, 0, 60, 91
2, 160040, Note_on_c, 0, 55, 73
2, 160070, Note_off_c, 0, 55, 73
2, 160076, Note_off_c, 0, 60, 91
2, 160076, Note_off_c, 0, 64, 82
2, 160078, Note_off_c, 0, 57, 73
2, 160080, Note_off_c, 0, 65, 82
2, 160096, Note_off_c, 0, 45, 73
2, 160096, Note_off_c, 0, 33, 73
2, 160310, Note_on_c, 0, 31, 83
2, 160310, Note_on_c, 0, 43, 83
2, 160314, Note_on_c, 0, 58, 91
2, 160318, Note_on_c, 0, 65, 91
2, 160318, Note_on_c, 0, 55, 73
2, 160318, Note_on_c, 0, 62, 82
2, 160318, Note_on_c, 0, 53, 73
2, 160672, Note_off_c, 0, 53, 73
2, 160672, Note_off_c, 0, 55, 73
2, 160674, Note_off_c, 0, 58, 91
2, 160696, Note_off_c, 0, 65, 91
2, 160698, Note_off_c, 0, 62, 82
2, 160702, Note_on_c, 0, 36, 64
2, 160702, Note_on_c, 0, 53, 72
2, 160702, Note_on_c, 0, 48, 64
2, 160704, Note_off_c, 0, 43, 83
2, 160704, Note_off_c, 0, 31, 83
2, 160706, Note_on_c, 0, 62, 73
2, 160706, Note_on_c, 0, 58, 60
2, 160708, Note_on_c, 0, 65, 73
2, 160740, Note_off_c, 0, 65, 73
2, 160740, Note_off_c, 0, 62, 73
2, 160744, Note_off_c, 0, 48, 64
2, 160744, Note_off_c, 0, 36, 64
2, 160754, Note_off_c, 0, 58, 60
2, 160762, Note_off_c, 0, 53, 72
2, 161082, Note_on_c, 0, 55, 64
2, 161084, Note_on_c, 0, 58, 60
2, 161084, Note_on_c, 0, 65, 82
2, 161084, Note_on_c, 0, 62, 91
2, 161094, Note_on_c, 0, 36, 64
2, 161094, Note_on_c, 0, 48, 64
2, 161120, Note_off_c, 0, 55, 64
2, 161126, Note_off_c, 0, 62, 91
2, 161126, Note_off_c, 0, 65, 82
2, 161126, Note_off_c, 0, 58, 60
2, 161132, Note_off_c, 0, 48, 64
2, 161132, Note_off_c, 0, 36, 64
2, 161280, Note_on_c, 0, 41, 83
2, 161280, Note_on_c, 0, 29, 83
2, 161280, Note_on_c, 0, 69, 92
2, 161280, Note_on_c, 0, 65, 94
2, 161280, Note_on_c, 0, 60, 82
2, 161458, Note_off_c, 0, 69, 92
2, 161472, Note_off_c, 0, 60, 82
2, 161484, Note_off_c, 0, 65, 94
2, 161498, Note_off_c, 0, 29, 83
2, 161498, Note_off_c, 0, 41, 83
2, 161566, Note_on_c, 0, 33, 73
2, 161566, Note_on_c, 0, 45, 73
2, 161568, Note_on_c, 0, 64, 87
2, 161568, Note_on_c, 0, 67, 85
2, 161572, Note_on_c, 0, 60, 73
2, 161574, Note_on_c, 0, 65, 91
2, 161618, Note_off_c, 0, 65, 91
2, 161618, Note_off_c, 0, 60, 73
2, 161618, Note_off_c, 0, 67, 85
2, 161620, Note_off_c, 0, 45, 73
2, 161620, Note_off_c, 0, 33, 73
2, 161622, Note_off_c, 0, 64, 87
2, 161852, Note_on_c, 0, 62, 91
2, 161852, Note_on_c, 0, 60, 91
2, 161854, Note_on_c, 0, 38, 82
2, 161854, Note_on_c, 0, 50, 82
2, 161854, Note_on_c, 0, 57, 82
2, 161854, Note_on_c, 0, 65, 91
2, 162172, Note_off_c, 0, 50, 82
2, 162172, Note_off_c, 0, 38, 82
2, 162188, Note_off_c, 0, 60, 91
2, 162200, Note_off_c, 0, 62, 91
2, 162206, Note_off_c, 0, 65, 91
2, 162214, Note_off_c, 0, 57, 82
2, 162236, Note_on_c, 0, 48, 64
2, 162240, Note_on_c, 0, 60, 73
2, 162268, Note_off_c, 0, 48, 64
2, 162280, Note_off_c, 0, 60, 73
2, 162428, Note_on_c, 0, 60, 71
2, 162434, Note_on_c, 0, 48, 73
2, 162484, Note_off_c, 0, 60, 71
2, 162496, Note_off_c, 0, 48, 73
2, 162522, Note_on_c, 0, 62, 77
2, 162528, Note_on_c, 0, 50, 72
2, 162578, Note_off_c, 0, 62, 77
2, 162580, Note_off_c, 0, 50, 72
2, 162616, Note_on_c, 0, 65, 85
2, 162618, Note_on_c, 0, 53, 73
2, 162656, Note_off_c, 0, 53, 73
2, 162660, Note_off_c, 0, 65, 85
2, 162714, Note_on_c, 0, 62, 73
2, 162714, Note_on_c, 0, 38, 82
2, 162768, Note_off_c, 0, 38, 82
2, 162772, Note_off_c, 0, 62, 73
2, 162812, Note_on_c, 0, 34, 82
2, 162812, Note_on_c, 0, 46, 82
2, 162814, Note_on_c, 0, 58, 73
2, 162818, Note_on_c, 0, 65, 91
2, 162820, Note_on_c, 0, 62, 91
2, 162820, Note_on_c, 0, 57, 82
2, 163024, Note_off_c, 0, 65, 91
2, 163038, Note_off_c, 0, 57, 82
2, 163038, Note_off_c, 0, 62, 91
2, 163044, Note_off_c, 0, 58, 73
2, 163062, Note_off_c, 0, 46, 82
2, 163062, Note_off_c, 0, 34, 82
2, 163102, Note_on_c, 0, 33, 73
2, 163102, Note_on_c, 0, 45, 73
2, 163104, Note_on_c, 0, 64, 82
2, 163104, Note_on_c, 0, 57, 73
2, 163108, Note_on_c, 0, 65, 82
2, 163110, Note_on_c, 0, 60, 91
2, 163112, Note_on_c, 0, 55, 73
2, 163142, Note_off_c, 0, 55, 73
2, 163148, Note_off_c, 0, 60, 91
2, 163148, Note_off_c, 0, 64, 82
2, 163150, Note_off_c, 0, 57, 73
2, 163152, Note_off_c, 0, 65, 82
2, 163168, Note_off_c, 0, 45, 73
2, 163168, Note_off_c, 0, 33, 73
2, 163382, Note_on_c, 0, 31, 83
2, 163382, Note_on_c, 0, 43, 83
2, 163386, Note_on_c, 0, 58, 91
2, 163390, Note_on_c, 0, 65, 91
2, 163390, Note_on_c, 0, 55, 73
2, 163390, Note_on_c, 0, 62, 82
2, 163390, Note_on_c, 0, 53, 73
2, 163744, Note_off_c, 0, 53, 73
2, 163744, Note_off_c, 0, 55, 73
2, 163746, Note_off_c, 0, 58, 91
2, 163768, Note_off_c, 0, 65, 91
2, 163770, Note_off_c, 0, 62, 82
2, 163774, Note_on_c, 0, 58, 64
2, 163774, Note_on_c, 0, 36, 64
2, 163774, Note_on_c, 0, 48, 64
2, 163776, Note_off_c, 0, 43, 83
2, 163776, Note_off_c, 0, 31, 83
2, 163776, Note_on_c, 0, 55, 75
2, 163778, Note_on_c, 0, 65, 64
2, 163782, Note_on_c, 0, 62, 82
2, 163938, Note_off_c, 0, 55, 75
2, 163952, Note_off_c, 0, 65, 64
2, 163954, Note_off_c, 0, 36, 64
2, 163956, Note_off_c, 0, 62, 82
2, 163958, Note_off_c, 0, 58, 64
2, 163974, Note_off_c, 0, 48, 64
2, 164154, Note_on_c, 0, 55, 64
2, 164156, Note_on_c, 0, 58, 60
2, 164156, Note_on_c, 0, 65, 82
2, 164156, Note_on_c, 0, 62, 91
2, 164166, Note_on_c, 0, 36, 64
2, 164166, Note_on_c, 0, 48, 64
2, 164192, Note_off_c, 0, 55, 64
2, 164198, Note_off_c, 0, 62, 91
2, 164198, Note_off_c, 0, 65, 82
2, 164198, Note_off_c, 0, 58, 60
2, 164204, Note_off_c, 0, 48, 64
2, 164204, Note_off_c, 0, 36, 64
2, 164352, Note_on_c, 0, 41, 83
2, 164352, Note_on_c, 0, 29, 83
2, 164352, Note_on_c, 0, 69, 92
2, 164352, Note_on_c, 0, 65, 94
2, 164352, Note_on_c, 0, 60, 82
2, 164530, Note_off_c, 0, 69, 92
2, 164544, Note_off_c, 0, 60, 82
2, 164556, Note_off_c, 0, 65, 94
2, 164570, Note_off_c, 0, 29, 83
2, 164570, Note_off_c, 0, 41, 83
2, 164638, Note_on_c, 0, 33, 73
2, 164638, Note_on_c, 0, 45, 73
2, 164640, Note_on_c, 0, 64, 87
2, 164640, Note_on_c, 0, 67, 85
2, 164644, Note_on_c, 0, 60, 73
2, 164646, Note_on_c, 0, 65, 91
2, 164690, Note_off_c, 0, 65, 91
2, 164690, Note_off_c, 0, 60, 73
2, 164690, Note_off_c, 0, 67, 85
2, 164692, Note_off_c, 0, 45, 73
2, 164692, Note_off_c, 0, 33, 73
2, 164694, Note_off_c, 0, 64, 87
2, 164924, Note_on_c, 0, 62, 91
2, 164924, Note_on_c, 0, 60, 91
2, 164926, Note_on_c, 0, 38, 82
2, 164926, Note_on_c, 0, 50, 82
2, 164926, Note_on_c, 0, 57, 82
2, 164926, Note_on_c, 0, 65, 91
2, 165244, Note_off_c, 0, 50, 82
2, 165244, Note_off_c, 0, 38, 82
2, 165260, Note_off_c, 0, 60, 91
2, 165272, Note_off_c, 0, 62, 91
2, 165278, Note_off_c, 0, 65, 91
2, 165286, Note_off_c, 0, 57, 82
2, 165308, Note_on_c, 0, 48, 64
2, 165312, Note_on_c, 0, 60, 73
2, 165340, Note_off_c, 0, 48, 64
2, 165352, Note_off_c, 0, 60, 73
2, 165500, Note_on_c, 0, 60, 71
2, 165506, Note_on_c, 0, 48, 73
2, 165556, Note_off_c, 0, 60, 71
2, 165568, Note_off_c, 0, 48, 73
2, 165594, Note_on_c, 0, 62, 77
2, 165600, Note_on_c, 0, 50, 72
2, 165650, Note_off_c, 0, 62, 77
2, 165652, Note_off_c, 0, 50, 72
2, 165688, Note_on_c, 0, 65, 85
2, 165690, Note_on_c, 0, 53, 73
2, 165728, Note_off_c, 0, 53, 73
2, 165732, Note_off_c, 0, 65, 85
2, 165884, Note_on_c, 0, 34, 82
2, 165884, Note_on_c, 0, 46, 82
2, 165886, Note_on_c, 0, 58, 73
2, 165890, Note_on_c, 0, 65, 91
2, 165892, Note_on_c, 0, 62, 91
2, 165892, Note_on_c, 0, 57, 82
2, 166096, Note_off_c, 0, 65, 91
2, 166110, Note_off_c, 0, 57, 82
2, 166110, Note_off_c, 0, 62, 91
2, 166116, Note_off_c, 0, 58, 73
2, 166134, Note_off_c, 0, 46, 82
2, 166134, Note_off_c, 0, 34, 82
2, 166174, Note_on_c, 0, 33, 73
2, 166174, Note_on_c, 0, 45, 73
2, 166176, Note_on_c, 0, 64, 82
2, 166176, Note_on_c, 0, 57, 73
2, 166180, Note_on_c, 0, 65, 82
2, 166182, Note_on_c, 0, 60, 91
2, 166184, Note_on_c, 0, 55, 73
2, 166214, Note_off_c, 0, 55, 73
2, 166220, Note_off_c, 0, 60, 91
2, 166220, Note_off_c, 0, 64, 82
2, 166222, Note_off_c, 0, 57, 73
2, 166224, Note_off_c, 0, 65, 82
2, 166240, Note_off_c, 0, 45, 73
2, 166240, Note_off_c, 0, 33, 73
2, 166454, Note_on_c, 0, 31, 83
2, 166454, Note_on_c, 0, 43, 83
2, 166458, Note_on_c, 0, 58, 91
2, 166462, Note_on_c, 0, 65, 91
2, 166462, Note_on_c, 0, 55, 73
2, 166462, Note_on_c, 0, 62, 82
2, 166462, Note_on_c, 0, 53, 73
2, 166816, Note_off_c, 0, 53, 73
2, 166816, Note_off_c, 0, 55, 73
2, 166818, Note_off_c, 0, 58, 91
2, 166840, Note_off_c, 0, 65, 91
2, 166842, Note_off_c, 0, 62, 82
2, 166848, Note_off_c, 0, 43, 83
2, 166848, Note_off_c, 0, 31, 83
2, 166848, Note_on_c, 0, 53, 78
2, 167010, Note_off_c, 0, 53, 78
2, 167226, Note_on_c, 0, 55, 64
2, 167228, Note_on_c, 0, 62, 91
2, 167228, Note_on_c, 0, 65, 82
2, 167228, Note_on_c, 0, 58, 60
2, 167238, Note_on_c, 0, 36, 64
2, 167238, Note_on_c, 0, 48, 64
2, 167264, Note_off_c, 0, 55, 64
2, 167270, Note_off_c, 0, 58, 60
2, 167270, Note_off_c, 0, 65, 82
2, 167270, Note_off_c, 0, 62, 91
2, 167276, Note_off_c, 0, 48, 64
2, 167276, Note_off_c, 0, 36, 64
2, 167424, Note_on_c, 0, 41, 83
2, 167424, Note_on_c, 0, 29, 83
2, 167424, Note_on_c, 0, 69, 92
2, 167424, Note_on_c, 0, 65, 94
2, 167424, Note_on_c, 0, 60, 82
2, 167602, Note_off_c, 0, 69, 92
2, 167616, Note_off_c, 0, 60, 82
2, 167628, Note_off_c, 0, 65, 94
2, 167642, Note_off_c, 0, 29, 83
2, 167642, Note_off_c, 0, 41, 83
2, 167710, Note_on_c, 0, 33, 73
2, 167710, Note_on_c, 0, 45, 73
2, 167712, Note_on_c, 0, 64, 87
2, 167712, Note_on_c, 0, 67, 85
2, 167716, Note_on_c, 0, 60, 73
2, 167718, Note_on_c, 0, 65, 91
2, 167762, Note_off_c, 0, 65, 91
2, 167762, Note_off_c, 0, 60, 73
2, 167762, Note_off_c, 0, 67, 85
2, 167764, Note_off_c, 0, 45, 73
2, 167764, Note_off_c, 0, 33, 73
2, 167766, Note_off_c, 0, 64, 87
2, 167996, Note_on_c, 0, 62, 91
2, 167996, Note_on_c, 0, 60, 91
2, 167998, Note_on_c, 0, 38, 82
2, 167998, Note_on_c, 0, 50, 82
2, 167998, Note_on_c, 0, 57, 82
2, 167998, Note_on_c, 0, 65, 91
2, 168316, Note_off_c, 0, 50, 82
2, 168316, Note_off_c, 0, 38, 82
2, 168332, Note_off_c, 0, 60, 91
2, 168344, Note_off_c, 0, 62, 91
2, 168350, Note_off_c, 0, 65, 91
2, 168358, Note_off_c, 0, 57, 82
2, 168380, Note_on_c, 0, 36, 64
2, 168380, Note_on_c, 0, 48, 64
2, 168384, Note_on_c, 0, 60, 73
2, 168412, Note_off_c, 0, 48, 64
2, 168412, Note_off_c, 0, 36, 64
2, 168424, Note_off_c, 0, 60, 73
2, 168572, Note_on_c, 0, 60, 71
2, 168578, Note_on_c, 0, 48, 73
2, 168628, Note_off_c, 0, 60, 71
2, 168640, Note_off_c, 0, 48, 73
2, 168666, Note_on_c, 0, 62, 77
2, 168672, Note_on_c, 0, 50, 72
2, 168722, Note_off_c, 0, 62, 77
2, 168724, Note_off_c, 0, 50, 72
2, 168760, Note_on_c, 0, 65, 85
2, 168762, Note_on_c, 0, 53, 73
2, 168800, Note_off_c, 0, 53, 73
2, 168804, Note_off_c, 0, 65, 85
2, 168860, Note_on_c, 0, 38, 81
2, 168916, Note_off_c, 0, 38, 81
2, 168956, Note_on_c, 0, 34, 82
2, 168956, Note_on_c, 0, 46, 82
2, 168958, Note_on_c, 0, 58, 73
2, 168962, Note_on_c, 0, 65, 91
2, 168964, Note_on_c, 0, 62, 91
2, 168964, Note_on_c, 0, 57, 82
2, 169168, Note_off_c, 0, 65, 91
2, 169182, Note_off_c, 0, 57, 82
2, 169182, Note_off_c, 0, 62, 91
2, 169188, Note_off_c, 0, 58, 73
2, 169206, Note_off_c, 0, 46, 82
2, 169206, Note_off_c, 0, 34, 82
2, 169246, Note_on_c, 0, 33, 73
2, 169246, Note_on_c, 0, 45, 73
2, 169248, Note_on_c, 0, 64, 82
2, 169248, Note_on_c, 0, 57, 73
2, 169252, Note_on_c, 0, 65, 82
2, 169254, Note_on_c, 0, 60, 91
2, 169256, Note_on_c, 0, 55, 73
2, 169286, Note_off_c, 0, 55, 73
2, 169292, Note_off_c, 0, 60, 91
2, 169292, Note_off_c, 0, 64, 82
2, 169294, Note_off_c, 0, 57, 73
2, 169296, Note_off_c, 0, 65, 82
2, 169312, Note_off_c, 0, 45, 73
2, 169312, Note_off_c, 0, 33, 73
2, 169526, Note_on_c, 0, 31, 83
2, 169526, Note_on_c, 0, 43, 83
2, 169530, Note_on_c, 0, 58, 91
2, 169534, Note_on_c, 0, 65, 91
2, 169534, Note_on_c, 0, 55, 73
2, 169534, Note_on_c, 0, 62, 82
2, 169534, Note_on_c, 0, 53, 73
2, 169888, Note_off_c, 0, 53, 73
2, 169888, Note_off_c, 0, 55, 73
2, 169890, Note_off_c, 0, 58, 91
2, 169912, Note_off_c, 0, 65, 91
2, 169914, Note_off_c, 0, 62, 82
2, 169918, Note_on_c, 0, 60, 75
2, 169920, Note_off_c, 0, 43, 83
2, 169920, Note_off_c, 0, 31, 83
2, 169966, Note_off_c, 0, 60, 75
2, 170112, Note_on_c, 0, 53, 73
2, 170114, Note_on_c, 0, 60, 64
2, 170166, Note_off_c, 0, 53, 73
2, 170168, Note_off_c, 0, 60, 64
2, 170204, Note_on_c, 0, 62, 75
2, 170264, Note_off_c, 0, 62, 75
2, 170298, Note_on_c, 0, 65, 91
2, 170342, Note_off_c, 0, 65, 91
2, 170496, Note_on_c, 0, 29, 83
2, 170496, Note_on_c, 0, 41, 83
2, 170496, Note_on_c, 0, 69, 92
2, 170496, Note_on_c, 0, 65, 94
2, 170496, Note_on_c, 0, 60, 82
2, 170674, Note_off_c, 0, 69, 92
2, 170688, Note_off_c, 0, 60, 82
2, 170700, Note_off_c, 0, 65, 94
2, 170714, Note_off_c, 0, 41, 83
2, 170714, Note_off_c, 0, 29, 83
2, 170782, Note_on_c, 0, 33, 73
2, 170782, Note_on_c, 0, 45, 73
2, 170784, Note_on_c, 0, 64, 87
2, 170784, Note_on_c, 0, 67, 85
2, 170788, Note_on_c, 0, 60, 73
2, 170790, Note_on_c, 0, 65, 91
2, 170834, Note_off_c, 0, 65, 91
2, 170834, Note_off_c, 0, 60, 73
2, 170834, Note_off_c, 0, 67, 85
2, 170836, Note_off_c, 0, 45, 73
2, 170836, Note_off_c, 0, 33, 73
2, 170838, Note_off_c, 0, 64, 87
2, 171068, Note_on_c, 0, 62, 91
2, 171068, Note_on_c, 0, 60, 91
2, 171070, Note_on_c, 0, 38, 82
2, 171070, Note_on_c, 0, 50, 82
2, 171070, Note_on_c, 0, 57, 82
2, 171070, Note_on_c, 0, 65, 91
2, 171388, Note_off_c, 0, 50, 82
2, 171388, Note_off_c, 0, 38, 82
2, 171404, Note_off_c, 0, 60, 91
2, 171416, Note_off_c, 0, 62, 91
2, 171422, Note_off_c, 0, 65, 91
2, 171430, Note_off_c, 0, 57, 82
2, 171452, Note_on_c, 0, 36, 64
2, 171452, Note_on_c, 0, 48, 64
2, 171456, Note_on_c, 0, 60, 73
2, 171484, Note_off_c, 0, 48, 64
2, 171484, Note_off_c, 0, 36, 64
2, 171496, Note_off_c, 0, 60, 73
2, 171644, Note_on_c, 0, 60, 71
2, 171650, Note_on_c, 0, 48, 73
2, 171700, Note_off_c, 0, 60, 71
2, 171712, Note_off_c, 0, 48, 73
2, 171738, Note_on_c, 0, 62, 77
2, 171744, Note_on_c, 0, 50, 72
2, 171794, Note_off_c, 0, 62, 77
2, 171796, Note_off_c, 0, 50, 72
2, 171832, Note_on_c, 0, 65, 85
2, 171834, Note_on_c, 0, 53, 73
2, 171872, Note_off_c, 0, 53, 73
2, 171876, Note_off_c, 0, 65, 85
2, 171926, Note_on_c, 0, 62, 58
2, 171958, Note_off_c, 0, 62, 58
2, 172028, Note_on_c, 0, 34, 82
2, 172028, Note_on_c, 0, 46, 82
2, 172030, Note_on_c, 0, 58, 73
2, 172030, Note_on_c, 0, 65, 91
2, 172036, Note_on_c, 0, 62, 91
2, 172036, Note_on_c, 0, 57, 82
2, 172236, Note_off_c, 0, 65, 91
2, 172254, Note_off_c, 0, 57, 82
2, 172254, Note_off_c, 0, 62, 91
2, 172260, Note_off_c, 0, 58, 73
2, 172278, Note_off_c, 0, 46, 82
2, 172278, Note_off_c, 0, 34, 82
2, 172318, Note_on_c, 0, 33, 73
2, 172318, Note_on_c, 0, 45, 73
2, 172320, Note_on_c, 0, 64, 82
2, 172320, Note_on_c, 0, 57, 73
2, 172324, Note_on_c, 0, 65, 82
2, 172326, Note_on_c, 0, 60, 91
2, 172328, Note_on_c, 0, 55, 73
2, 172358, Note_off_c, 0, 55, 73
2, 172364, Note_off_c, 0, 60, 91
2, 172364, Note_off_c, 0, 64, 82
2, 172366, Note_off_c, 0, 57, 73
2, 172368, Note_off_c, 0, 65, 82
2, 172384, Note_off_c, 0, 45, 73
2, 172384, Note_off_c, 0, 33, 73
2, 172598, Note_on_c, 0, 31, 83
2, 172598, Note_on_c, 0, 43, 83
2, 172602, Note_on_c, 0, 58, 91
2, 172606, Note_on_c, 0, 65, 91
2, 172606, Note_on_c, 0, 55, 73
2, 172606, Note_on_c, 0, 62, 82
2, 172606, Note_on_c, 0, 53, 73
2, 172960, Note_off_c, 0, 53, 73
2, 172960, Note_off_c, 0, 55, 73
2, 172962, Note_off_c, 0, 58, 91
2, 172984, Note_off_c, 0, 65, 91
2, 172986, Note_off_c, 0, 62, 82
2, 172990, Note_on_c, 0, 36, 64
2, 172990, Note_on_c, 0, 48, 64
2, 172992, Note_off_c, 0, 43, 83
2, 172992, Note_off_c, 0, 31, 83
2, 172992, Note_on_c, 0, 55, 73
2, 172992, Note_on_c, 0, 65, 73
2, 172994, Note_on_c, 0, 58, 73
2, 172994, Note_on_c, 0, 62, 82
2, 173170, Note_off_c, 0, 48, 64
2, 173170, Note_off_c, 0, 36, 64
2, 173176, Note_off_c, 0, 55, 73
2, 173184, Note_off_c, 0, 65, 73
2, 173194, Note_off_c, 0, 62, 82
2, 173200, Note_off_c, 0, 58, 73
2, 173370, Note_on_c, 0, 55, 64
2, 173372, Note_on_c, 0, 58, 60
2, 173372, Note_on_c, 0, 65, 82
2, 173372, Note_on_c, 0, 62, 91
2, 173382, Note_on_c, 0, 36, 64
2, 173382, Note_on_c, 0, 48, 64
2, 173408, Note_off_c, 0, 55, 64
2, 173414, Note_off_c, 0, 62, 91
2, 173414, Note_off_c, 0, 65, 82
2, 173414, Note_off_c, 0, 58, 60
2, 173420, Note_off_c, 0, 48, 64
2, 173420, Note_off_c, 0, 36, 64
2, 173568, Note_on_c, 0, 29, 83
2, 173568, Note_on_c, 0, 41, 83
2, 173568, Note_on_c, 0, 69, 92
2, 173568, Note_on_c, 0, 65, 94
2, 173568, Note_on_c, 0, 60, 82
2, 173746, Note_off_c, 0, 69, 92
2, 173760, Note_off_c, 0, 60, 82
2, 173772, Note_off_c, 0, 65, 94
2, 173786, Note_off_c, 0, 41, 83
2, 173786, Note_off_c, 0, 29, 83
2, 173854, Note_on_c, 0, 33, 73
2, 173854, Note_on_c, 0, 45, 73
2, 173856, Note_on_c, 0, 64, 87
2, 173856, Note_on_c, 0, 67, 85
2, 173860, Note_on_c, 0, 60, 73
2, 173862, Note_on_c, 0, 65, 91
2, 173906, Note_off_c, 0, 65, 91
2, 173906, Note_off_c, 0, 60, 73
2, 173906, Note_off_c, 0, 67, 85
2, 173908, Note_off_c, 0, 45, 73
2, 173908, Note_off_c, 0, 33, 73
2, 173910, Note_off_c, 0, 64, 87
2, 174140, Note_on_c, 0, 62, 91
2, 174140, Note_on_c, 0, 60, 91
2, 174142, Note_on_c, 0, 38, 82
2, 174142, Note_on_c, 0, 50, 82
2, 174142, Note_on_c, 0, 57, 82
2, 174142, Note_on_c, 0, 65, 91
2, 174460, Note_off_c, 0, 50, 82
2, 174460, Note_off_c, 0, 38, 82
2, 174476, Note_off_c, 0, 60, 91
2, 174488, Note_off_c, 0, 62, 91
2, 174494, Note_off_c, 0, 65, 91
2, 174502, Note_off_c, 0, 57, 82
2, 174524, Note_on_c, 0, 36, 64
2, 174524, Note_on_c, 0, 48, 64
2, 174528, Note_on_c, 0, 60, 73
2, 174556, Note_off_c, 0, 48, 64
2, 174556, Note_off_c, 0, 36, 64
2, 174568, Note_off_c, 0, 60, 73
2, 174716, Note_on_c, 0, 60, 71
2, 174722, Note_on_c, 0, 48, 73
2, 174772, Note_off_c, 0, 60, 71
2, 174784, Note_off_c, 0, 48, 73
2, 174810, Note_on_c, 0, 62, 77
2, 174816, Note_on_c, 0, 50, 72
2, 174866, Note_off_c, 0, 62, 77
2, 174868, Note_off_c, 0, 50, 72
2, 174904, Note_on_c, 0, 65, 85
2, 174906, Note_on_c, 0, 53, 73
2, 174944, Note_off_c, 0, 53, 73
2, 174948, Note_off_c, 0, 65, 85
2, 175012, Note_on_c, 0, 36, 64
2, 175052, Note_on_c, 0, 37, 72
2, 175074, Note_off_c, 0, 36, 64
2, 175100, Note_on_c, 0, 34, 82
2, 175100, Note_on_c, 0, 46, 82
2, 175102, Note_on_c, 0, 58, 73
2, 175102, Note_on_c, 0, 65, 91
2, 175108, Note_on_c, 0, 62, 91
2, 175108, Note_on_c, 0, 57, 82
2, 175166, Note_off_c, 0, 37, 72
2, 175308, Note_off_c, 0, 65, 91
2, 175326, Note_off_c, 0, 57, 82
2, 175326, Note_off_c, 0, 62, 91
2, 175332, Note_off_c, 0, 58, 73
2, 175350, Note_off_c, 0, 46, 82
2, 175350, Note_off_c, 0, 34, 82
2, 175390, Note_on_c, 0, 33, 73
2, 175390, Note_on_c, 0, 45, 73
2, 175392, Note_on_c, 0, 64, 82
2, 175392, Note_on_c, 0, 57, 73
2, 175396, Note_on_c, 0, 65, 82
2, 175398, Note_on_c, 0, 60, 91
2, 175400, Note_on_c, 0, 55, 73
2, 175430, Note_off_c, 0, 55, 73
2, 175436, Note_off_c, 0, 60, 91
2, 175436, Note_off_c, 0, 64, 82
2, 175438, Note_off_c, 0, 57, 73
2, 175440, Note_off_c, 0, 65, 82
2, 175456, Note_off_c, 0, 45, 73
2, 175456, Note_off_c, 0, 33, 73
2, 175670, Note_on_c, 0, 31, 83
2, 175670, Note_on_c, 0, 43, 83
2, 175674, Note_on_c, 0, 58, 91
2, 175678, Note_on_c, 0, 65, 91
2, 175678, Note_on_c, 0, 55, 73
2, 175678, Note_on_c, 0, 62, 82
2, 175678, Note_on_c, 0, 53, 73
2, 176032, Note_off_c, 0, 53, 73
2, 176032, Note_off_c, 0, 55, 73
2, 176034, Note_off_c, 0, 58, 91
2, 176056, Note_off_c, 0, 65, 91
2, 176058, Note_off_c, 0, 62, 82
2, 176062, Note_on_c, 0, 36, 64
2, 176062, Note_on_c, 0, 48, 64
2, 176064, Note_off_c, 0, 43, 83
2, 176064, Note_off_c, 0, 31, 83
2, 176064, Note_on_c, 0, 55, 73
2, 176064, Note_on_c, 0, 65, 73
2, 176066, Note_on_c, 0, 58, 73
2, 176066, Note_on_c, 0, 62, 82
2, 176242, Note_off_c, 0, 48, 64
2, 176242, Note_off_c, 0, 36, 64
2, 176248, Note_off_c, 0, 55, 73
2, 176256, Note_off_c, 0, 65, 73
2, 176266, Note_off_c, 0, 62, 82
2, 176272, Note_off_c, 0, 58, 73
2, 176442, Note_on_c, 0, 55, 64
2, 176444, Note_on_c, 0, 58, 60
2, 176444, Note_on_c, 0, 65, 82
2, 176444, Note_on_c, 0, 62, 91
2, 176454, Note_on_c, 0, 36, 64
2, 176454, Note_on_c, 0, 48, 64
2, 176480, Note_off_c, 0, 55, 64
2, 176486, Note_off_c, 0, 62, 91
2, 176486, Note_off_c, 0, 65, 82
2, 176486, Note_off_c, 0, 58, 60
2, 176492, Note_off_c, 0, 48, 64
2, 176492, Note_off_c, 0, 36, 64
2, 176640, Note_on_c, 0, 29, 83
2, 176640, Note_on_c, 0, 41, 83
2, 176640, Note_on_c, 0, 69, 92
2, 176640, Note_on_c, 0, 65, 94
2, 176640, Note_on_c, 0, 60, 82
2, 176818, Note_off_c, 0, 69, 92
2, 176832, Note_off_c, 0, 60, 82
2, 176844, Note_off_c, 0, 65, 94
2, 176858, Note_off_c, 0, 41, 83
2, 176858, Note_off_c, 0, 29, 83
2, 176926, Note_on_c, 0, 33, 73
2, 176926, Note_on_c, 0, 45, 73
2, 176928, Note_on_c, 0, 64, 87
2, 176928, Note_on_c, 0, 67, 85
2, 176932, Note_on_c, 0, 60, 73
2, 176934, Note_on_c, 0, 65, 91
2, 176978, Note_off_c, 0, 65, 91
2, 176978, Note_off_c, 0, 60, 73
2, 176978, Note_off_c, 0, 67, 85
2, 176980, Note_off_c, 0, 45, 73
2, 176980, Note_off_c, 0, 33, 73
2, 176982, Note_off_c, 0, 64, 87
2, 177212, Note_on_c, 0, 62, 91
2, 177212, Note_on_c, 0, 60, 91
2, 177214, Note_on_c, 0, 38, 82
2, 177214, Note_on_c, 0, 50, 82
2, 177214, Note_on_c, 0, 57, 82
2, 177214, Note_on_c, 0, 65, 91
2, 177532, Note_off_c, 0, 50, 82
2, 177532, Note_off_c, 0, 38, 82
2, 177548, Note_off_c, 0, 60, 91
2, 177560, Note_off_c, 0, 62, 91
2, 177566, Note_off_c, 0, 65, 91
2, 177574, Note_off_c, 0, 57, 82
2, 177596, Note_on_c, 0, 36, 64
2, 177596, Note_on_c, 0, 48, 64
2, 177600, Note_on_c, 0, 60, 73
2, 177628, Note_off_c, 0, 48, 64
2, 177628, Note_off_c, 0, 36, 64
2, 177640, Note_off_c, 0, 60, 73
2, 177788, Note_on_c, 0, 60, 71
2, 177794, Note_on_c, 0, 48, 73
2, 177844, Note_off_c, 0, 60, 71
2, 177856, Note_off_c, 0, 48, 73
2, 177882, Note_on_c, 0, 62, 77
2, 177888, Note_on_c, 0, 50, 72
2, 177938, Note_off_c, 0, 62, 77
2, 177940, Note_off_c, 0, 50, 72
2, 177976, Note_on_c, 0, 65, 85
2, 177978, Note_on_c, 0, 53, 73
2, 178016, Note_off_c, 0, 53, 73
2, 178020, Note_off_c, 0, 65, 85
2, 178070, Note_on_c, 0, 62, 58
2, 178102, Note_off_c, 0, 62, 58
2, 178172, Note_on_c, 0, 34, 82
2, 178172, Note_on_c, 0, 46, 82
2, 178174, Note_on_c, 0, 58, 73
2, 178174, Note_on_c, 0, 65, 91
2, 178180, Note_on_c, 0, 62, 91
2, 178180, Note_on_c, 0, 57, 82
2, 178380, Note_off_c, 0, 65, 91
2, 178398, Note_off_c, 0, 57, 82
2, 178398, Note_off_c, 0, 62, 91
2, 178404, Note_off_c, 0, 58, 73
2, 178422, Note_off_c, 0, 46, 82
2, 178422, Note_off_c, 0, 34, 82
2, 178462, Note_on_c, 0, 33, 73
2, 178462, Note_on_c, 0, 45, 73
2, 178464, Note_on_c, 0, 64, 82
2, 178464, Note_on_c, 0, 57, 73
2, 178468, Note_on_c, 0, 65, 82
2, 178470, Note_on_c, 0, 60, 91
2, 178472, Note_on_c, 0, 55, 73
2, 178502, Note_off_c, 0, 55, 73
2, 178508, Note_off_c, 0, 60, 91
2, 178508, Note_off_c, 0, 64, 82
2, 178510, Note_off_c, 0, 57, 73
2, 178512, Note_off_c, 0, 65, 82
2, 178528, Note_off_c, 0, 45, 73
2, 178528, Note_off_c, 0, 33, 73
2, 178742, Note_on_c, 0, 31, 83
2, 178742, Note_on_c, 0, 43, 83
2, 178746, Note_on_c, 0, 58, 91
2, 178750, Note_on_c, 0, 65, 91
2, 178750, Note_on_c, 0, 55, 73
2, 178750, Note_on_c, 0, 62, 82
2, 178750, Note_on_c, 0, 53, 73
2, 179104, Note_off_c, 0, 53, 73
2, 179104, Note_off_c, 0, 55, 73
2, 179106, Note_off_c, 0, 58, 91
2, 179128, Note_off_c, 0, 65, 91
2, 179130, Note_off_c, 0, 62, 82
2, 179134, Note_on_c, 0, 36, 64
2, 179134, Note_on_c, 0, 48, 64
2, 179136, Note_off_c, 0, 43, 83
2, 179136, Note_off_c, 0, 31, 83
2, 179136, Note_on_c, 0, 55, 73
2, 179136, Note_on_c, 0, 65, 73
2, 179138, Note_on_c, 0, 58, 73
2, 179138, Note_on_c, 0, 62, 82
2, 179314, Note_off_c, 0, 48, 64
2, 179314, Note_off_c, 0, 36, 64
2, 179320, Note_off_c, 0, 55, 73
2, 179328, Note_off_c, 0, 65, 73
2, 179338, Note_off_c, 0, 62, 82
2, 179344, Note_off_c, 0, 58, 73
2, 179514, Note_on_c, 0, 55, 64
2, 179516, Note_on_c, 0, 58, 60
2, 179516, Note_on_c, 0, 65, 82
2, 179516, Note_on_c, 0, 62, 91
2, 179526, Note_on_c, 0, 36, 64
2, 179526, Note_on_c, 0, 48, 64
2, 179552, Note_off_c, 0, 55, 64
2, 179558, Note_off_c, 0, 62, 91
2, 179558, Note_off_c, 0, 65, 82
2, 179558, Note_off_c, 0, 58, 60
2, 179564, Note_off_c, 0, 48, 64
2, 179564, Note_off_c, 0, 36, 64
2, 179712, Note_on_c, 0, 29, 83
2, 179712, Note_on_c, 0, 41, 83
2, 179712, Note_on_c, 0, 69, 92
2, 179712, Note_on_c, 0, 65, 94
2, 179712, Note_on_c, 0, 60, 82
2, 179890, Note_off_c, 0, 69, 92
2, 179904, Note_off_c, 0, 60, 82
2, 179916, Note_off_c, 0, 65, 94
2, 179930, Note_off_c, 0, 41, 83
2, 179930, Note_off_c, 0, 29, 83
2, 179998, Note_on_c, 0, 33, 73
2, 179998, Note_on_c, 0, 45, 73
2, 180000, Note_on_c, 0, 64, 87
2, 180000, Note_on_c, 0, 67, 85
2, 180004, Note_on_c, 0, 60, 73
2, 180006, Note_on_c, 0, 65, 91
2, 180016, Control_c, 0, 11, 126
2, 180050, Note_off_c, 0, 65, 91
2, 180050, Note_off_c, 0, 60, 73
2, 180050, Note_off_c, 0, 67, 85
2, 180052, Note_off_c, 0, 45, 73
2, 180052, Note_off_c, 0, 33, 73
2, 180054, Note_off_c, 0, 64, 87
2, 180184, Control_c, 0, 11, 125
2, 180284, Note_on_c, 0, 62, 91
2, 180284, Note_on_c, 0, 60, 91
2, 180286, Note_on_c, 0, 38, 82
2, 180286, Note_on_c, 0, 50, 82
2, 180286, Note_on_c, 0, 57, 82
2, 180286, Note_on_c, 0, 65, 91
2, 180312, Control_c, 0, 11, 124
2, 180458, Control_c, 0, 11, 123
2, 180604, Note_off_c, 0, 50, 82
2, 180604, Note_off_c, 0, 38, 82
2, 180620, Note_off_c, 0, 60, 91
2, 180632, Note_off_c, 0, 62, 91
2, 180638, Note_off_c, 0, 65, 91
2, 180646, Note_off_c, 0, 57, 82
2, 180668, Note_on_c, 0, 36, 64
2, 180668, Note_on_c, 0, 48, 64
2, 180672, Note_on_c, 0, 60, 73
2, 180680, Control_c, 0, 11, 122
2, 180700, Note_off_c, 0, 48, 64
2, 180700, Note_off_c, 0, 36, 64
2, 180712, Note_off_c, 0, 60, 73
2, 180816, Control_c, 0, 11, 121
2, 180860, Note_on_c, 0, 60, 71
2, 180866, Note_on_c, 0, 48, 73
2, 180916, Note_off_c, 0, 60, 71
2, 180928, Note_off_c, 0, 48, 73
2, 180954, Note_on_c, 0, 62, 77
2, 180960, Note_on_c, 0, 50, 72
2, 180962, Control_c, 0, 11, 120
2, 181010, Note_off_c, 0, 62, 77
2, 181012, Note_off_c, 0, 50, 72
2, 181048, Note_on_c, 0, 65, 85
2, 181050, Note_on_c, 0, 53, 73
2, 181070, Control_c, 0, 11, 119
2, 181088, Note_off_c, 0, 53, 73
2, 181092, Note_off_c, 0, 65, 85
2, 181156, Note_on_c, 0, 36, 64
2, 181190, Control_c, 0, 11, 118
2, 181196, Note_on_c, 0, 37, 72
2, 181218, Note_off_c, 0, 36, 64
2, 181244, Note_on_c, 0, 34, 82
2, 181244, Note_on_c, 0, 46, 82
2, 181246, Note_on_c, 0, 58, 73
2, 181246, Note_on_c, 0, 65, 91
2, 181252, Note_on_c, 0, 62, 91
2, 181252, Note_on_c, 0, 57, 82
2, 181310, Note_off_c, 0, 37, 72
2, 181312, Control_c, 0, 11, 117
2, 181412, Control_c, 0, 11, 116
2, 181452, Note_off_c, 0, 65, 91
2, 181470, Note_off_c, 0, 57, 82
2, 181470, Note_off_c, 0, 62, 91
2, 181476, Note_off_c, 0, 58, 73
2, 181494, Note_off_c, 0, 46, 82
2, 181494, Note_off_c, 0, 34, 82
2, 181534, Note_on_c, 0, 33, 73
2, 181534, Note_on_c, 0, 45, 73
2, 181536, Note_on_c, 0, 64, 82
2, 181536, Note_on_c, 0, 57, 73
2, 181540, Note_on_c, 0, 65, 82
2, 181542, Note_on_c, 0, 60, 91
2, 181544, Note_on_c, 0, 55, 73
2, 181544, Control_c, 0, 11, 115
2, 181574, Note_off_c, 0, 55, 73
2, 181580, Note_off_c, 0, 60, 91
2, 181580, Note_off_c, 0, 64, 82
2, 181582, Note_off_c, 0, 57, 73
2, 181584, Note_off_c, 0, 65, 82
2, 181600, Note_off_c, 0, 45, 73
2, 181600, Note_off_c, 0, 33, 73
2, 181658, Control_c, 0, 11, 114
2, 181738, Control_c, 0, 11, 113
2, 181814, Note_on_c, 0, 31, 83
2, 181814, Note_on_c, 0, 43, 83
2, 181818, Note_on_c, 0, 58, 91
2, 181822, Note_on_c, 0, 65, 91
2, 181822, Note_on_c, 0, 55, 73
2, 181822, Note_on_c, 0, 62, 82
2, 181822, Note_on_c, 0, 53, 73
2, 181836, Control_c, 0, 11, 112
2, 181990, Control_c, 0, 11, 111
2, 182128, Control_c, 0, 11, 110
2, 182176, Note_off_c, 0, 53, 73
2, 182176, Note_off_c, 0, 55, 73
2, 182178, Note_off_c, 0, 58, 91
2, 182200, Note_off_c, 0, 65, 91
2, 182202, Note_off_c, 0, 62, 82
2, 182206, Note_on_c, 0, 36, 64
2, 182206, Note_on_c, 0, 48, 64
2, 182208, Note_off_c, 0, 43, 83
2, 182208, Note_off_c, 0, 31, 83
2, 182208, Note_on_c, 0, 55, 73
2, 182208, Note_on_c, 0, 65, 73
2, 182210, Note_on_c, 0, 58, 73
2, 182210, Note_on_c, 0, 62, 82
2, 182228, Control_c, 0, 11, 109
2, 182348, Control_c, 0, 11, 108
2, 182386, Note_off_c, 0, 48, 64
2, 182386, Note_off_c, 0, 36, 64
2, 182392, Note_off_c, 0, 55, 73
2, 182400, Note_off_c, 0, 65, 73
2, 182410, Note_off_c, 0, 62, 82
2, 182416, Note_off_c, 0, 58, 73
2, 182562, Control_c, 0, 11, 107
2, 182592, Note_on_c, 0, 58, 60
2, 182594, Note_on_c, 0, 36, 91
2, 182598, Note_on_c, 0, 62, 73
2, 182598, Note_on_c, 0, 65, 64
2, 182600, Note_on_c, 0, 48, 73
2, 182602, Note_on_c, 0, 55, 60
2, 182710, Control_c, 0, 11, 106
2, 182772, Note_off_c, 0, 58, 60
2, 182774, Note_off_c, 0, 48, 73
2, 182774, Note_off_c, 0, 62, 73
2, 182784, Note_off_c, 0, 65, 64
2, 182784, Note_on_c, 0, 41, 83
2, 182784, Note_on_c, 0, 29, 83
2, 182784, Note_on_c, 0, 69, 92
2, 182784, Note_on_c, 0, 65, 94
2, 182784, Note_on_c, 0, 60, 82
2, 182788, Note_off_c, 0, 55, 60
2, 182796, Note_off_c, 0, 36, 91
2, 182824, Control_c, 0, 11, 105
2, 182910, Control_c, 0, 11, 104
2, 182962, Note_off_c, 0, 69, 92
2, 182976, Note_off_c, 0, 60, 82
2, 182988, Note_off_c, 0, 65, 94
2, 183002, Note_off_c, 0, 29, 83
2, 183002, Note_off_c, 0, 41, 83
2, 183028, Control_c, 0, 11, 103
2, 183070, Note_on_c, 0, 45, 73
2, 183070, Note_on_c, 0, 33, 73
2, 183072, Note_on_c, 0, 64, 87
2, 183072, Note_on_c, 0, 67, 85
2, 183076, Note_on_c, 0, 60, 73
2, 183078, Note_on_c, 0, 65, 91
2, 183112, Control_c, 0, 11, 102
2, 183122, Note_off_c, 0, 65, 91
2, 183122, Note_off_c, 0, 60, 73
2, 183122, Note_off_c, 0, 67, 85
2, 183124, Note_off_c, 0, 33, 73
2, 183124, Note_off_c, 0, 45, 73
2, 183126, Note_off_c, 0, 64, 87
2, 183208, Control_c, 0, 11, 101
2, 183352, Control_c, 0, 11, 100
2, 183356, Note_on_c, 0, 62, 91
2, 183356, Note_on_c, 0, 60, 91
2, 183358, Note_on_c, 0, 38, 82
2, 183358, Note_on_c, 0, 50, 82
2, 183358, Note_on_c, 0, 57, 82
2, 183358, Note_on_c, 0, 65, 91
2, 183506, Control_c, 0, 11, 99
2, 183676, Note_off_c, 0, 50, 82
2, 183676, Note_off_c, 0, 38, 82
2, 183692, Note_off_c, 0, 60, 91
2, 183704, Note_off_c, 0, 62, 91
2, 183710, Note_off_c, 0, 65, 91
2, 183718, Note_off_c, 0, 57, 82
2, 183736, Control_c, 0, 11, 98
2, 183740, Note_on_c, 0, 36, 64
2, 183740, Note_on_c, 0, 48, 64
2, 183744, Note_on_c, 0, 60, 73
2, 183772, Note_off_c, 0, 48, 64
2, 183772, Note_off_c, 0, 36, 64
2, 183784, Note_off_c, 0, 60, 73
2, 183932, Note_on_c, 0, 60, 71
2, 183938, Note_on_c, 0, 48, 73
2, 183952, Control_c, 0, 11, 97
2, 183988, Note_off_c, 0, 60, 71
2, 184000, Note_off_c, 0, 48, 73
2, 184026, Note_on_c, 0, 62, 77
2, 184032, Note_on_c, 0, 50, 72
2, 184082, Note_off_c, 0, 62, 77
2, 184084, Note_off_c, 0, 50, 72
2, 184120, Note_on_c, 0, 65, 85
2, 184122, Note_on_c, 0, 53, 73
2, 184144, Control_c, 0, 11, 96
2, 184160, Note_off_c, 0, 53, 73
2, 184164, Note_off_c, 0, 65, 85
2, 184220, Note_on_c, 0, 38, 64
2, 184262, Note_off_c, 0, 38, 64
2, 184316, Note_on_c, 0, 34, 82
2, 184316, Note_on_c, 0, 46, 82
2, 184318, Note_on_c, 0, 58, 73
2, 184322, Note_on_c, 0, 65, 91
2, 184324, Note_on_c, 0, 62, 91
2, 184324, Note_on_c, 0, 57, 82
2, 184354, Control_c, 0, 11, 95
2, 184452, Control_c, 0, 11, 94
2, 184528, Note_off_c, 0, 65, 91
2, 184542, Note_off_c, 0, 57, 82
2, 184542, Note_off_c, 0, 62, 91
2, 184548, Note_off_c, 0, 58, 73
2, 184566, Note_off_c, 0, 46, 82
2, 184566, Note_off_c, 0, 34, 82
2, 184568, Control_c, 0, 11, 93
2, 184606, Note_on_c, 0, 33, 73
2, 184606, Note_on_c, 0, 45, 73
2, 184608, Note_on_c, 0, 64, 82
2, 184608, Note_on_c, 0, 57, 73
2, 184612, Note_on_c, 0, 65, 82
2, 184614, Note_on_c, 0, 60, 91
2, 184616, Note_on_c, 0, 55, 73
2, 184646, Note_off_c, 0, 55, 73
2, 184652, Note_off_c, 0, 60, 91
2, 184652, Note_off_c, 0, 64, 82
2, 184654, Note_off_c, 0, 57, 73
2, 184656, Note_off_c, 0, 65, 82
2, 184672, Note_off_c, 0, 45, 73
2, 184672, Note_off_c, 0, 33, 73
2, 184720, Control_c, 0, 11, 92
2, 184846, Control_c, 0, 11, 91
2, 184886, Note_on_c, 0, 31, 83
2, 184886, Note_on_c, 0, 43, 83
2, 184890, Note_on_c, 0, 58, 91
2, 184894, Note_on_c, 0, 65, 91
2, 184894, Note_on_c, 0, 55, 73
2, 184894, Note_on_c, 0, 62, 82
2, 184894, Note_on_c, 0, 53, 73
2, 185024, Control_c, 0, 11, 90
2, 185150, Control_c, 0, 11, 89
2, 185242, Control_c, 0, 11, 88
2, 185248, Note_off_c, 0, 53, 73
2, 185248, Note_off_c, 0, 55, 73
2, 185250, Note_off_c, 0, 58, 91
2, 185272, Note_off_c, 0, 65, 91
2, 185274, Note_off_c, 0, 62, 82
2, 185278, Note_on_c, 0, 36, 64
2, 185278, Note_on_c, 0, 53, 72
2, 185278, Note_on_c, 0, 48, 64
2, 185280, Note_off_c, 0, 43, 83
2, 185280, Note_off_c, 0, 31, 83
2, 185282, Note_on_c, 0, 62, 73
2, 185282, Note_on_c, 0, 58, 60
2, 185284, Note_on_c, 0, 65, 73
2, 185316, Note_off_c, 0, 65, 73
2, 185316, Note_off_c, 0, 62, 73
2, 185320, Note_off_c, 0, 48, 64
2, 185320, Note_off_c, 0, 36, 64
2, 185330, Note_off_c, 0, 58, 60
2, 185338, Note_off_c, 0, 53, 72
2, 185364, Control_c, 0, 11, 87
2, 185496, Control_c, 0, 11, 86
2, 185584, Control_c, 0, 11, 85
2, 185658, Note_on_c, 0, 55, 64
2, 185660, Note_on_c, 0, 58, 60
2, 185660, Note_on_c, 0, 65, 82
2, 185660, Note_on_c, 0, 62, 91
2, 185670, Note_on_c, 0, 36, 64
2, 185670, Note_on_c, 0, 48, 64
2, 185696, Note_off_c, 0, 55, 64
2, 185702, Note_off_c, 0, 62, 91
2, 185702, Note_off_c, 0, 65, 82
2, 185702, Note_off_c, 0, 58, 60
2, 185702, Control_c, 0, 11, 84
2, 185708, Note_off_c, 0, 48, 64
2, 185708, Note_off_c, 0, 36, 64
2, 185788, Control_c, 0, 11, 83
2, 185856, Note_on_c, 0, 41, 83
2, 185856, Note_on_c, 0, 29, 83
2, 185856, Note_on_c, 0, 69, 92
2, 185856, Note_on_c, 0, 65, 94
2, 185856, Note_on_c, 0, 60, 82
2, 185870, Control_c, 0, 11, 82
2, 186006, Control_c, 0, 11, 81
2, 186034, Note_off_c, 0, 69, 92
2, 186048, Note_off_c, 0, 60, 82
2, 186060, Note_off_c, 0, 65, 94
2, 186074, Note_off_c, 0, 29, 83
2, 186074, Note_off_c, 0, 41, 83
2, 186110, Control_c, 0, 11, 80
2, 186142, Note_on_c, 0, 33, 73
2, 186142, Note_on_c, 0, 45, 73
2, 186144, Note_on_c, 0, 64, 87
2, 186144, Note_on_c, 0, 67, 85
2, 186148, Note_on_c, 0, 60, 73
2, 186150, Note_on_c, 0, 65, 91
2, 186184, Control_c, 0, 11, 79
2, 186194, Note_off_c, 0, 65, 91
2, 186194, Note_off_c, 0, 60, 73
2, 186194, Note_off_c, 0, 67, 85
2, 186196, Note_off_c, 0, 45, 73
2, 186196, Note_off_c, 0, 33, 73
2, 186198, Note_off_c, 0, 64, 87
2, 186260, Control_c, 0, 11, 78
2, 186348, Control_c, 0, 11, 77
2, 186428, Note_on_c, 0, 62, 91
2, 186428, Note_on_c, 0, 60, 91
2, 186430, Note_on_c, 0, 38, 82
2, 186430, Note_on_c, 0, 50, 82
2, 186430, Note_on_c, 0, 57, 82
2, 186430, Note_on_c, 0, 65, 91
2, 186474, Control_c, 0, 11, 76
2, 186558, Control_c, 0, 11, 75
2, 186662, Control_c, 0, 11, 74
2, 186734, Control_c, 0, 11, 73
2, 186748, Note_off_c, 0, 50, 82
2, 186748, Note_off_c, 0, 38, 82
2, 186764, Note_off_c, 0, 60, 91
2, 186776, Note_off_c, 0, 62, 91
2, 186782, Note_off_c, 0, 65, 91
2, 186790, Note_off_c, 0, 57, 82
2, 186812, Note_on_c, 0, 48, 64
2, 186816, Note_on_c, 0, 60, 73
2, 186842, Control_c, 0, 11, 72
2, 186844, Note_off_c, 0, 48, 64
2, 186856, Note_off_c, 0, 60, 73
2, 186932, Control_c, 0, 11, 71
2, 187004, Note_on_c, 0, 60, 71
2, 187010, Note_on_c, 0, 48, 73
2, 187016, Control_c, 0, 11, 70
2, 187060, Note_off_c, 0, 60, 71
2, 187072, Note_off_c, 0, 48, 73
2, 187098, Note_on_c, 0, 62, 77
2, 187104, Note_on_c, 0, 50, 72
2, 187118, Control_c, 0, 11, 69
2, 187154, Note_off_c, 0, 62, 77
2, 187156, Note_off_c, 0, 50, 72
2, 187192, Note_on_c, 0, 65, 85
2, 187194, Note_on_c, 0, 53, 73
2, 187206, Control_c, 0, 11, 68
2, 187232, Note_off_c, 0, 53, 73
2, 187236, Note_off_c, 0, 65, 85
2, 187290, Note_on_c, 0, 62, 73
2, 187290, Note_on_c, 0, 38, 82
2, 187306, Control_c, 0, 11, 67
2, 187344, Note_off_c, 0, 38, 82
2, 187348, Note_off_c, 0, 62, 73
2, 187376, Control_c, 0, 11, 66
2, 187388, Note_on_c, 0, 34, 82
2, 187388, Note_on_c, 0, 46, 82
2, 187390, Note_on_c, 0, 58, 73
2, 187394, Note_on_c, 0, 65, 91
2, 187396, Note_on_c, 0, 62, 91
2, 187396, Note_on_c, 0, 57, 82
2, 187460, Control_c, 0, 11, 65
2, 187580, Control_c, 0, 11, 64
2, 187600, Note_off_c, 0, 65, 91
2, 187614, Note_off_c, 0, 57, 82
2, 187614, Note_off_c, 0, 62, 91
2, 187620, Note_off_c, 0, 58, 73
2, 187638, Note_off_c, 0, 46, 82
2, 187638, Note_off_c, 0, 34, 82
2, 187664, Control_c, 0, 11, 63
2, 187678, Note_on_c, 0, 33, 73
2, 187678, Note_on_c, 0, 45, 73
2, 187680, Note_on_c, 0, 64, 82
2, 187680, Note_on_c, 0, 57, 73
2, 187684, Note_on_c, 0, 65, 82
2, 187686, Note_on_c, 0, 60, 91
2, 187688, Note_on_c, 0, 55, 73
2, 187718, Note_off_c, 0, 55, 73
2, 187724, Note_off_c, 0, 60, 91
2, 187724, Note_off_c, 0, 64, 82
2, 187726, Note_off_c, 0, 57, 73
2, 187728, Note_off_c, 0, 65, 82
2, 187744, Note_off_c, 0, 45, 73
2, 187744, Note_off_c, 0, 33, 73
2, 187772, Control_c, 0, 11, 62
2, 187858, Control_c, 0, 11, 61
2, 187952, Control_c, 0, 11, 60
2, 187958, Note_on_c, 0, 31, 83
2, 187958, Note_on_c, 0, 43, 83
2, 187962, Note_on_c, 0, 58, 91
2, 187966, Note_on_c, 0, 65, 91
2, 187966, Note_on_c, 0, 55, 73
2, 187966, Note_on_c, 0, 62, 82
2, 187966, Note_on_c, 0, 53, 73
2, 188092, Control_c, 0, 11, 59
2, 188236, Control_c, 0, 11, 58
2, 188320, Note_off_c, 0, 53, 73
2, 188320, Note_off_c, 0, 55, 73
2, 188322, Note_off_c, 0, 58, 91
2, 188344, Note_off_c, 0, 65, 91
2, 188346, Note_off_c, 0, 62, 82
2, 188350, Note_on_c, 0, 58, 64
2, 188350, Note_on_c, 0, 36, 64
2, 188350, Note_on_c, 0, 48, 64
2, 188352, Note_off_c, 0, 43, 83
2, 188352, Note_off_c, 0, 31, 83
2, 188352, Note_on_c, 0, 55, 75
2, 188354, Note_on_c, 0, 65, 64
2, 188358, Note_on_c, 0, 62, 82
2, 188374, Control_c, 0, 11, 57
2, 188490, Control_c, 0, 11, 56
2, 188514, Note_off_c, 0, 55, 75
2, 188528, Note_off_c, 0, 65, 64
2, 188530, Note_off_c, 0, 36, 64
2, 188532, Note_off_c, 0, 62, 82
2, 188534, Note_off_c, 0, 58, 64
2, 188550, Note_off_c, 0, 48, 64
2, 188612, Control_c, 0, 11, 55
2, 188730, Note_on_c, 0, 55, 64
2, 188732, Note_on_c, 0, 58, 60
2, 188732, Note_on_c, 0, 65, 82
2, 188732, Note_on_c, 0, 62, 91
2, 188734, Control_c, 0, 11, 54
2, 188742, Note_on_c, 0, 36, 64
2, 188742, Note_on_c, 0, 48, 64
2, 188768, Note_off_c, 0, 55, 64
2, 188774, Note_off_c, 0, 62, 91
2, 188774, Note_off_c, 0, 65, 82
2, 188774, Note_off_c, 0, 58, 60
2, 188780, Note_off_c, 0, 48, 64
2, 188780, Note_off_c, 0, 36, 64
2, 188828, Control_c, 0, 11, 53
2, 188928, Note_on_c, 0, 41, 83
2, 188928, Note_on_c, 0, 29, 83
2, 188928, Note_on_c, 0, 69, 92
2, 188928, Note_on_c, 0, 65, 94
2, 188928, Note_on_c, 0, 60, 82
2, 188942, Control_c, 0, 11, 52
2, 189012, Control_c, 0, 11, 51
2, 189106, Note_off_c, 0, 69, 92
2, 189120, Note_off_c, 0, 60, 82
2, 189130, Control_c, 0, 11, 50
2, 189132, Note_off_c, 0, 65, 94
2, 189146, Note_off_c, 0, 29, 83
2, 189146, Note_off_c, 0, 41, 83
2, 189214, Note_on_c, 0, 33, 73
2, 189214, Note_on_c, 0, 45, 73
2, 189216, Note_on_c, 0, 64, 87
2, 189216, Note_on_c, 0, 67, 85
2, 189220, Note_on_c, 0, 60, 73
2, 189222, Note_on_c, 0, 65, 91
2, 189244, Control_c, 0, 11, 49
2, 189266, Note_off_c, 0, 65, 91
2, 189266, Note_off_c, 0, 60, 73
2, 189266, Note_off_c, 0, 67, 85
2, 189268, Note_off_c, 0, 45, 73
2, 189268, Note_off_c, 0, 33, 73
2, 189270, Note_off_c, 0, 64, 87
2, 189382, Control_c, 0, 11, 48
2, 189478, Control_c, 0, 11, 47
2, 189500, Note_on_c, 0, 62, 91
2, 189500, Note_on_c, 0, 60, 91
2, 189502, Note_on_c, 0, 38, 82
2, 189502, Note_on_c, 0, 50, 82
2, 189502, Note_on_c, 0, 57, 82
2, 189502, Note_on_c, 0, 65, 91
2, 189592, Control_c, 0, 11, 46
2, 189656, Control_c, 0, 11, 45
2, 189768, Control_c, 0, 11, 44
2, 189820, Note_off_c, 0, 50, 82
2, 189820, Note_off_c, 0, 38, 82
2, 189836, Note_off_c, 0, 60, 91
2, 189848, Note_off_c, 0, 62, 91
2, 189854, Note_off_c, 0, 65, 91
2, 189862, Note_off_c, 0, 57, 82
2, 189884, Note_on_c, 0, 48, 64
2, 189888, Note_on_c, 0, 60, 73
2, 189900, Control_c, 0, 11, 43
2, 189916, Note_off_c, 0, 48, 64
2, 189928, Note_off_c, 0, 60, 73
2, 190004, Control_c, 0, 11, 42
2, 190076, Note_on_c, 0, 60, 71
2, 190082, Note_on_c, 0, 48, 73
2, 190120, Control_c, 0, 11, 41
2, 190132, Note_off_c, 0, 60, 71
2, 190144, Note_off_c, 0, 48, 73
2, 190170, Note_on_c, 0, 62, 77
2, 190176, Note_on_c, 0, 50, 72
2, 190226, Note_off_c, 0, 62, 77
2, 190228, Note_off_c, 0, 50, 72
2, 190238, Control_c, 0, 11, 40
2, 190264, Note_on_c, 0, 65, 85
2, 190266, Note_on_c, 0, 53, 73
2, 190304, Note_off_c, 0, 53, 73
2, 190308, Note_off_c, 0, 65, 85
2, 190334, Control_c, 0, 11, 39
2, 190446, Control_c, 0, 11, 38
2, 190460, Note_on_c, 0, 34, 82
2, 190460, Note_on_c, 0, 46, 82
2, 190462, Note_on_c, 0, 58, 73
2, 190466, Note_on_c, 0, 65, 91
2, 190468, Note_on_c, 0, 62, 91
2, 190468, Note_on_c, 0, 57, 82
2, 190536, Control_c, 0, 11, 37
2, 190646, Control_c, 0, 11, 36
2, 190672, Note_off_c, 0, 65, 91
2, 190686, Note_off_c, 0, 57, 82
2, 190686, Note_off_c, 0, 62, 91
2, 190692, Note_off_c, 0, 58, 73
2, 190710, Note_off_c, 0, 46, 82
2, 190710, Note_off_c, 0, 34, 82
2, 190750, Note_on_c, 0, 33, 73
2, 190750, Note_on_c, 0, 45, 73
2, 190752, Note_on_c, 0, 64, 82
2, 190752, Note_on_c, 0, 57, 73
2, 190752, Control_c, 0, 11, 35
2, 190756, Note_on_c, 0, 65, 82
2, 190758, Note_on_c, 0, 60, 91
2, 190760, Note_on_c, 0, 55, 73
2, 190790, Note_off_c, 0, 55, 73
2, 190796, Note_off_c, 0, 60, 91
2, 190796, Note_off_c, 0, 64, 82
2, 190798, Note_off_c, 0, 57, 73
2, 190800, Note_off_c, 0, 65, 82
2, 190816, Note_off_c, 0, 45, 73
2, 190816, Note_off_c, 0, 33, 73
2, 190858, Control_c, 0, 11, 34
2, 190944, Control_c, 0, 11, 33
2, 191030, Note_on_c, 0, 31, 83
2, 191030, Note_on_c, 0, 43, 83
2, 191034, Note_on_c, 0, 58, 91
2, 191038, Note_on_c, 0, 65, 91
2, 191038, Note_on_c, 0, 55, 73
2, 191038, Note_on_c, 0, 62, 82
2, 191038, Note_on_c, 0, 53, 73
2, 191060, Control_c, 0, 11, 32
2, 191162, Control_c, 0, 11, 31
2, 191248, Control_c, 0, 11, 30
2, 191376, Control_c, 0, 11, 29
2, 191392, Note_off_c, 0, 53, 73
2, 191392, Note_off_c, 0, 55, 73
2, 191394, Note_off_c, 0, 58, 91
2, 191416, Note_off_c, 0, 65, 91
2, 191418, Note_off_c, 0, 62, 82
2, 191424, Note_off_c, 0, 43, 83
2, 191424, Note_off_c, 0, 31, 83
2, 191424, Note_on_c, 0, 53, 78
2, 191572, Control_c, 0, 11, 28
2, 191586, Note_off_c, 0, 53, 78
2, 191682, Control_c, 0, 11, 27
2, 191784, Control_c, 0, 11, 26
2, 191802, Note_on_c, 0, 55, 64
2, 191804, Note_on_c, 0, 62, 91
2, 191804, Note_on_c, 0, 65, 82
2, 191804, Note_on_c, 0, 58, 60
2, 191814, Note_on_c, 0, 36, 64
2, 191814, Note_on_c, 0, 48, 64
2, 191840, Note_off_c, 0, 55, 64
2, 191846, Note_off_c, 0, 58, 60
2, 191846, Note_off_c, 0, 65, 82
2, 191846, Note_off_c, 0, 62, 91
2, 191852, Note_off_c, 0, 48, 64
2, 191852, Note_off_c, 0, 36, 64
2, 191936, Control_c, 0, 11, 25
2, 192000, Note_on_c, 0, 41, 83
2, 192000, Note_on_c, 0, 29, 83
2, 192000, Note_on_c, 0, 69, 92
2, 192000, Note_on_c, 0, 65, 94
2, 192000, Note_on_c, 0, 60, 82
2, 192072, Control_c, 0, 11, 24
2, 192172, Control_c, 0, 11, 23
2, 192178, Note_off_c, 0, 69, 92
2, 192192, Note_off_c, 0, 60, 82
2, 192204, Note_off_c, 0, 65, 94
2, 192218, Note_off_c, 0, 29, 83
2, 192218, Note_off_c, 0, 41, 83
2, 192286, Note_on_c, 0, 33, 73
2, 192286, Note_on_c, 0, 45, 73
2, 192288, Note_on_c, 0, 64, 87
2, 192288, Note_on_c, 0, 67, 85
2, 192292, Note_on_c, 0, 60, 73
2, 192292, Control_c, 0, 11, 22
2, 192294, Note_on_c, 0, 65, 91
2, 192338, Note_off_c, 0, 65, 91
2, 192338, Note_off_c, 0, 60, 73
2, 192338, Note_off_c, 0, 67, 85
2, 192340, Note_off_c, 0, 45, 73
2, 192340, Note_off_c, 0, 33, 73
2, 192342, Note_off_c, 0, 64, 87
2, 192486, Control_c, 0, 11, 21
2, 192572, Note_on_c, 0, 62, 91
2, 192572, Note_on_c, 0, 60, 91
2, 192574, Note_on_c, 0, 38, 82
2, 192574, Note_on_c, 0, 50, 82
2, 192574, Note_on_c, 0, 57, 82
2, 192574, Note_on_c, 0, 65, 91
2, 192624, Control_c, 0, 11, 20
2, 192768, Control_c, 0, 11, 19
2, 192886, Control_c, 0, 11, 18
2, 192892, Note_off_c, 0, 50, 82
2, 192892, Note_off_c, 0, 38, 82
2, 192908, Note_off_c, 0, 60, 91
2, 192920, Note_off_c, 0, 62, 91
2, 192926, Note_off_c, 0, 65, 91
2, 192934, Note_off_c, 0, 57, 82
2, 192956, Note_on_c, 0, 36, 64
2, 192956, Note_on_c, 0, 48, 64
2, 192960, Note_on_c, 0, 60, 73
2, 192988, Note_off_c, 0, 48, 64
2, 192988, Note_off_c, 0, 36, 64
2, 193000, Note_off_c, 0, 60, 73
2, 193032, Control_c, 0, 11, 17
2, 193120, Control_c, 0, 11, 16
2, 193148, Note_on_c, 0, 60, 71
2, 193154, Note_on_c, 0, 48, 73
2, 193204, Note_off_c, 0, 60, 71
2, 193216, Note_off_c, 0, 48, 73
2, 193242, Note_on_c, 0, 62, 77
2, 193248, Note_on_c, 0, 50, 72
2, 193298, Note_off_c, 0, 62, 77
2, 193300, Note_off_c, 0, 50, 72
2, 193304, Control_c, 0, 11, 15
2, 193336, Note_on_c, 0, 65, 85
2, 193338, Note_on_c, 0, 53, 73
2, 193362, Control_c, 0, 11, 14
2, 193376, Note_off_c, 0, 53, 73
2, 193380, Note_off_c, 0, 65, 85
2, 193436, Note_on_c, 0, 38, 81
2, 193452, Control_c, 0, 11, 13
2, 193492, Note_off_c, 0, 38, 81
2, 193532, Note_on_c, 0, 34, 82
2, 193532, Note_on_c, 0, 46, 82
2, 193534, Note_on_c, 0, 58, 73
2, 193536, Control_c, 0, 11, 12
2, 193538, Note_on_c, 0, 65, 91
2, 193540, Note_on_c, 0, 62, 91
2, 193540, Note_on_c, 0, 57, 82
2, 193650, Control_c, 0, 11, 11
2, 193730, Control_c, 0, 11, 10
2, 193744, Note_off_c, 0, 65, 91
2, 193758, Note_off_c, 0, 57, 82
2, 193758, Note_off_c, 0, 62, 91
2, 193764, Note_off_c, 0, 58, 73
2, 193782, Note_off_c, 0, 46, 82
2, 193782, Note_off_c, 0, 34, 82
2, 193800, Control_c, 0, 11, 9
2, 193822, Note_on_c, 0, 33, 73
2, 193822, Note_on_c, 0, 45, 73
2, 193824, Note_on_c, 0, 64, 82
2, 193824, Note_on_c, 0, 57, 73
2, 193828, Note_on_c, 0, 65, 82
2, 193830, Note_on_c, 0, 60, 91
2, 193832, Note_on_c, 0, 55, 73
2, 193862, Note_off_c, 0, 55, 73
2, 193868, Note_off_c, 0, 60, 91
2, 193868, Note_off_c, 0, 64, 82
2, 193870, Note_off_c, 0, 57, 73
2, 193872, Note_off_c, 0, 65, 82
2, 193876, Control_c, 0, 11, 8
2, 193888, Note_off_c, 0, 45, 73
2, 193888, Note_off_c, 0, 33, 73
2, 193946, Control_c, 0, 11, 7
2, 194032, Control_c, 0, 11, 6
2, 194084, Control_c, 0, 11, 5
2, 194102, Note_on_c, 0, 31, 83
2, 194102, Note_on_c, 0, 43, 83
2, 194106, Note_on_c, 0, 58, 91
2, 194110, Note_on_c, 0, 65, 91
2, 194110, Note_on_c, 0, 55, 73
2, 194110, Note_on_c, 0, 62, 82
2, 194110, Note_on_c, 0, 53, 73
2, 194158, Control_c, 0, 11, 4
2, 194206, Control_c, 0, 11, 0
2, 194464, Note_off_c, 0, 53, 73
2, 194464, Note_off_c, 0, 55, 73
2, 194466, Note_off_c, 0, 58, 91
2, 194488, Note_off_c, 0, 65, 91
2, 194490, Note_off_c, 0, 62, 82
2, 194494, Note_on_c, 0, 60, 75
2, 194496, Note_off_c, 0, 43, 83
2, 194496, Note_off_c, 0, 31, 83
2, 194542, Note_off_c, 0, 60, 75
2, 194688, Note_on_c, 0, 53, 73
2, 194848, Note_off_c, 0, 53, 1
2, 196800, Control_c, 0, 121, 127
2, 196992, Control_c, 0, 7, 127
2, 197184, Control_c, 0, 10, 64
2, 198144, End_track
3, 0, Start_track
3, 1732, Control_c, 1, 121, 127
3, 1924, Control_c, 1, 0, 0
3, 2116, Program_c, 1, 33
3, 2308, Control_c, 1, 7, 100
3, 2500, Control_c, 1, 10, 64
3, 2692, Control_c, 1, 11, 127
3, 2884, Control_c, 1, 91, 0
3, 3076, Control_c, 1, 93, 0
3, 7680, Note_on_c, 1, 34, 91
3, 10402, Note_off_c, 1, 34, 91
3, 10560, Note_on_c, 1, 34, 91
3, 10618, Note_off_c, 1, 34, 91
3, 10766, Note_on_c, 1, 33, 91
3, 12396, Note_off_c, 1, 33, 91
3, 12672, Note_on_c, 1, 29, 91
3, 12858, Note_off_c, 1, 29, 91
3, 12864, Note_on_c, 1, 31, 91
3, 13010, Note_off_c, 1, 31, 91
3, 13248, Note_on_c, 1, 33, 91
3, 13436, Note_off_c, 1, 33, 91
3, 13824, Note_on_c, 1, 34, 91
3, 15364, Note_off_c, 1, 34, 91
3, 15744, Note_on_c, 1, 34, 91
3, 15920, Note_off_c, 1, 34, 91
3, 15950, Note_on_c, 1, 34, 91
3, 16044, Note_off_c, 1, 34, 91
3, 16340, Note_on_c, 1, 34, 91
3, 16440, Note_off_c, 1, 34, 91
3, 16704, Note_on_c, 1, 34, 91
3, 16762, Note_off_c, 1, 34, 91
3, 16910, Note_on_c, 1, 33, 91
3, 18540, Note_off_c, 1, 33, 91
3, 18816, Note_on_c, 1, 29, 91
3, 19002, Note_off_c, 1, 29, 91
3, 19008, Note_on_c, 1, 31, 91
3, 19154, Note_off_c, 1, 31, 91
3, 19392, Note_on_c, 1, 33, 91
3, 19580, Note_off_c, 1, 33, 91
3, 19968, Note_on_c, 1, 34, 91
3, 20348, Note_off_c, 1, 34, 91
3, 20534, Note_on_c, 1, 41, 91
3, 20702, Note_off_c, 1, 41, 91
3, 20734, Note_on_c, 1, 41, 78
3, 20832, Note_off_c, 1, 41, 78
3, 21120, Note_on_c, 1, 34, 91
3, 21790, Note_off_c, 1, 34, 91
3, 21888, Note_on_c, 1, 34, 90
3, 22054, Note_off_c, 1, 34, 90
3, 22082, Note_on_c, 1, 34, 91
3, 22172, Note_off_c, 1, 34, 91
3, 22464, Note_on_c, 1, 34, 87
3, 22562, Note_off_c, 1, 34, 87
3, 22848, Note_on_c, 1, 34, 91
3, 22906, Note_off_c, 1, 34, 91
3, 23040, Note_on_c, 1, 33, 91
3, 23420, Note_off_c, 1, 33, 91
3, 23616, Note_on_c, 1, 40, 91
3, 23984, Note_off_c, 1, 40, 91
3, 24192, Note_on_c, 1, 33, 91
3, 24760, Note_off_c, 1, 33, 91
3, 24960, Note_on_c, 1, 29, 91
3, 25146, Note_off_c, 1, 29, 91
3, 25152, Note_on_c, 1, 31, 91
3, 25298, Note_off_c, 1, 31, 91
3, 25536, Note_on_c, 1, 33, 91
3, 26060, Note_off_c, 1, 33, 91
3, 26112, Note_on_c, 1, 34, 91
3, 26492, Note_off_c, 1, 34, 91
3, 26678, Note_on_c, 1, 41, 91
3, 27078, Note_off_c, 1, 41, 91
3, 27264, Note_on_c, 1, 34, 91
3, 28004, Note_off_c, 1, 34, 91
3, 28032, Note_on_c, 1, 34, 90
3, 28198, Note_off_c, 1, 34, 90
3, 28226, Note_on_c, 1, 34, 78
3, 28316, Note_off_c, 1, 34, 78
3, 28512, Note_on_c, 1, 29, 75
3, 28576, Note_off_c, 1, 29, 75
3, 28608, Note_on_c, 1, 33, 87
3, 28760, Note_off_c, 1, 33, 87
3, 28800, Note_on_c, 1, 29, 91
3, 28950, Note_off_c, 1, 29, 91
3, 28992, Note_on_c, 1, 35, 82
3, 29140, Note_off_c, 1, 35, 82
3, 29184, Note_on_c, 1, 36, 91
3, 29312, Note_off_c, 1, 36, 91
3, 29472, Note_on_c, 1, 36, 91
3, 29586, Note_off_c, 1, 36, 91
3, 29760, Note_on_c, 1, 36, 91
3, 30340, Note_off_c, 1, 36, 91
3, 30528, Note_on_c, 1, 34, 71
3, 30578, Note_off_c, 1, 34, 71
3, 30624, Note_on_c, 1, 35, 79
3, 30662, Note_off_c, 1, 35, 79
3, 30720, Note_on_c, 1, 36, 90
3, 30928, Note_off_c, 1, 36, 90
3, 31008, Note_on_c, 1, 24, 91
3, 31048, Note_off_c, 1, 24, 91
3, 31296, Note_on_c, 1, 36, 91
3, 31868, Note_off_c, 1, 36, 91
3, 32064, Note_on_c, 1, 34, 71
3, 32114, Note_off_c, 1, 34, 71
3, 32160, Note_on_c, 1, 35, 79
3, 32198, Note_off_c, 1, 35, 79
3, 32256, Note_on_c, 1, 36, 91
3, 32384, Note_off_c, 1, 36, 91
3, 32544, Note_on_c, 1, 36, 91
3, 32658, Note_off_c, 1, 36, 91
3, 32832, Note_on_c, 1, 36, 91
3, 33412, Note_off_c, 1, 36, 91
3, 33600, Note_on_c, 1, 34, 71
3, 33650, Note_off_c, 1, 34, 71
3, 33696, Note_on_c, 1, 35, 79
3, 33734, Note_off_c, 1, 35, 79
3, 33792, Note_on_c, 1, 36, 91
3, 33920, Note_off_c, 1, 36, 91
3, 34080, Note_on_c, 1, 36, 91
3, 34194, Note_off_c, 1, 36, 91
3, 34368, Note_on_c, 1, 36, 91
3, 34526, Note_off_c, 1, 36, 91
3, 34560, Note_on_c, 1, 24, 91
3, 34712, Note_off_c, 1, 24, 91
3, 34752, Note_on_c, 1, 26, 78
3, 34898, Note_off_c, 1, 26, 78
3, 34944, Note_on_c, 1, 29, 81
3, 35086, Note_off_c, 1, 29, 81
3, 35136, Note_on_c, 1, 33, 90
3, 35278, Note_off_c, 1, 33, 90
3, 35328, Note_on_c, 1, 29, 93
3, 35568, Note_off_c, 1, 29, 93
3, 35616, Note_on_c, 1, 33, 93
3, 35676, Note_off_c, 1, 33, 93
3, 35904, Note_on_c, 1, 38, 91
3, 36262, Note_off_c, 1, 38, 91
3, 36288, Note_on_c, 1, 36, 84
3, 36336, Note_off_c, 1, 36, 84
3, 36480, Note_on_c, 1, 38, 91
3, 36532, Note_off_c, 1, 38, 91
3, 36576, Note_on_c, 1, 36, 93
3, 36636, Note_off_c, 1, 36, 93
3, 36672, Note_on_c, 1, 33, 91
3, 36732, Note_off_c, 1, 33, 91
3, 36864, Note_on_c, 1, 34, 93
3, 37118, Note_off_c, 1, 34, 93
3, 37152, Note_on_c, 1, 33, 82
3, 37212, Note_off_c, 1, 33, 82
3, 37440, Note_on_c, 1, 31, 93
3, 37816, Note_off_c, 1, 31, 93
3, 37824, Note_on_c, 1, 36, 87
3, 37878, Note_off_c, 1, 36, 87
3, 38208, Note_on_c, 1, 36, 91
3, 38262, Note_off_c, 1, 36, 91
3, 38304, Note_on_c, 1, 41, 91
3, 38360, Note_off_c, 1, 41, 91
3, 38400, Note_on_c, 1, 29, 93
3, 38640, Note_off_c, 1, 29, 93
3, 38688, Note_on_c, 1, 33, 93
3, 38748, Note_off_c, 1, 33, 93
3, 38976, Note_on_c, 1, 38, 91
3, 39334, Note_off_c, 1, 38, 91
3, 39360, Note_on_c, 1, 36, 84
3, 39408, Note_off_c, 1, 36, 84
3, 39552, Note_on_c, 1, 38, 91
3, 39604, Note_off_c, 1, 38, 91
3, 39648, Note_on_c, 1, 36, 93
3, 39708, Note_off_c, 1, 36, 93
3, 39744, Note_on_c, 1, 33, 91
3, 39804, Note_off_c, 1, 33, 91
3, 39936, Note_on_c, 1, 34, 93
3, 40190, Note_off_c, 1, 34, 93
3, 40224, Note_on_c, 1, 33, 82
3, 40284, Note_off_c, 1, 33, 82
3, 40512, Note_on_c, 1, 31, 93
3, 40888, Note_off_c, 1, 31, 93
3, 40896, Note_on_c, 1, 36, 87
3, 40950, Note_off_c, 1, 36, 87
3, 41280, Note_on_c, 1, 36, 91
3, 41334, Note_off_c, 1, 36, 91
3, 41376, Note_on_c, 1, 41, 91
3, 41432, Note_off_c, 1, 41, 91
3, 41472, Note_on_c, 1, 29, 93
3, 41712, Note_off_c, 1, 29, 93
3, 41760, Note_on_c, 1, 33, 93
3, 41820, Note_off_c, 1, 33, 93
3, 42048, Note_on_c, 1, 38, 91
3, 42406, Note_off_c, 1, 38, 91
3, 42432, Note_on_c, 1, 36, 84
3, 42480, Note_off_c, 1, 36, 84
3, 42624, Note_on_c, 1, 38, 91
3, 42676, Note_off_c, 1, 38, 91
3, 42720, Note_on_c, 1, 36, 93
3, 42780, Note_off_c, 1, 36, 93
3, 42816, Note_on_c, 1, 33, 91
3, 42876, Note_off_c, 1, 33, 91
3, 43008, Note_on_c, 1, 34, 93
3, 43262, Note_off_c, 1, 34, 93
3, 43296, Note_on_c, 1, 33, 82
3, 43356, Note_off_c, 1, 33, 82
3, 43584, Note_on_c, 1, 31, 93
3, 43960, Note_off_c, 1, 31, 93
3, 43968, Note_on_c, 1, 36, 87
3, 44022, Note_off_c, 1, 36, 87
3, 44352, Note_on_c, 1, 36, 91
3, 44512, Note_off_c, 1, 36, 91
3, 44544, Note_on_c, 1, 29, 93
3, 44784, Note_off_c, 1, 29, 93
3, 44832, Note_on_c, 1, 33, 93
3, 44892, Note_off_c, 1, 33, 93
3, 45120, Note_on_c, 1, 38, 91
3, 45478, Note_off_c, 1, 38, 91
3, 45504, Note_on_c, 1, 36, 84
3, 45552, Note_off_c, 1, 36, 84
3, 45696, Note_on_c, 1, 38, 91
3, 45748, Note_off_c, 1, 38, 91
3, 45792, Note_on_c, 1, 36, 93
3, 45852, Note_off_c, 1, 36, 93
3, 45888, Note_on_c, 1, 33, 91
3, 45948, Note_off_c, 1, 33, 91
3, 46080, Note_on_c, 1, 34, 93
3, 46334, Note_off_c, 1, 34, 93
3, 46368, Note_on_c, 1, 33, 82
3, 46428, Note_off_c, 1, 33, 82
3, 46656, Note_on_c, 1, 31, 93
3, 47032, Note_off_c, 1, 31, 93
3, 47040, Note_on_c, 1, 36, 87
3, 47094, Note_off_c, 1, 36, 87
3, 47424, Note_on_c, 1, 36, 91
3, 47478, Note_off_c, 1, 36, 91
3, 47520, Note_on_c, 1, 41, 91
3, 47576, Note_off_c, 1, 41, 91
3, 47616, Note_on_c, 1, 29, 93
3, 47856, Note_off_c, 1, 29, 93
3, 47904, Note_on_c, 1, 33, 93
3, 47964, Note_off_c, 1, 33, 93
3, 48192, Note_on_c, 1, 38, 91
3, 48550, Note_off_c, 1, 38, 91
3, 48576, Note_on_c, 1, 36, 84
3, 48624, Note_off_c, 1, 36, 84
3, 48768, Note_on_c, 1, 38, 91
3, 48820, Note_off_c, 1, 38, 91
3, 48864, Note_on_c, 1, 36, 93
3, 48924, Note_off_c, 1, 36, 93
3, 48960, Note_on_c, 1, 33, 91
3, 49020, Note_off_c, 1, 33, 91
3, 49152, Note_on_c, 1, 34, 93
3, 49406, Note_off_c, 1, 34, 93
3, 49440, Note_on_c, 1, 33, 82
3, 49500, Note_off_c, 1, 33, 82
3, 49728, Note_on_c, 1, 31, 93
3, 50104, Note_off_c, 1, 31, 93
3, 50112, Note_on_c, 1, 36, 87
3, 50166, Note_off_c, 1, 36, 87
3, 50496, Note_on_c, 1, 36, 91
3, 50656, Note_off_c, 1, 36, 91
3, 50688, Note_on_c, 1, 29, 93
3, 50928, Note_off_c, 1, 29, 93
3, 50976, Note_on_c, 1, 33, 93
3, 51036, Note_off_c, 1, 33, 93
3, 51264, Note_on_c, 1, 38, 91
3, 51622, Note_off_c, 1, 38, 91
3, 51648, Note_on_c, 1, 36, 84
3, 51696, Note_off_c, 1, 36, 84
3, 51840, Note_on_c, 1, 38, 91
3, 51892, Note_off_c, 1, 38, 91
3, 51936, Note_on_c, 1, 36, 93
3, 51996, Note_off_c, 1, 36, 93
3, 52032, Note_on_c, 1, 33, 91
3, 52092, Note_off_c, 1, 33, 91
3, 52224, Note_on_c, 1, 34, 93
3, 52478, Note_off_c, 1, 34, 93
3, 52512, Note_on_c, 1, 33, 82
3, 52572, Note_off_c, 1, 33, 82
3, 52800, Note_on_c, 1, 31, 93
3, 53176, Note_off_c, 1, 31, 93
3, 53184, Note_on_c, 1, 36, 87
3, 53238, Note_off_c, 1, 36, 87
3, 53568, Note_on_c, 1, 36, 91
3, 53622, Note_off_c, 1, 36, 91
3, 53664, Note_on_c, 1, 31, 91
3, 53720, Note_off_c, 1, 31, 91
3, 53760, Note_on_c, 1, 29, 93
3, 54000, Note_off_c, 1, 29, 93
3, 54048, Note_on_c, 1, 33, 93
3, 54108, Note_off_c, 1, 33, 93
3, 54336, Note_on_c, 1, 38, 91
3, 54694, Note_off_c, 1, 38, 91
3, 54720, Note_on_c, 1, 36, 84
3, 54768, Note_off_c, 1, 36, 84
3, 54912, Note_on_c, 1, 38, 91
3, 54964, Note_off_c, 1, 38, 91
3, 55008, Note_on_c, 1, 36, 93
3, 55068, Note_off_c, 1, 36, 93
3, 55104, Note_on_c, 1, 33, 91
3, 55164, Note_off_c, 1, 33, 91
3, 55296, Note_on_c, 1, 34, 93
3, 55550, Note_off_c, 1, 34, 93
3, 55584, Note_on_c, 1, 33, 82
3, 55644, Note_off_c, 1, 33, 82
3, 55872, Note_on_c, 1, 31, 93
3, 56248, Note_off_c, 1, 31, 93
3, 56256, Note_on_c, 1, 36, 87
3, 56310, Note_off_c, 1, 36, 87
3, 56640, Note_on_c, 1, 36, 91
3, 56694, Note_off_c, 1, 36, 91
3, 56736, Note_on_c, 1, 41, 91
3, 56792, Note_off_c, 1, 41, 91
3, 56832, Note_on_c, 1, 29, 93
3, 57072, Note_off_c, 1, 29, 93
3, 57120, Note_on_c, 1, 33, 93
3, 57180, Note_off_c, 1, 33, 93
3, 57408, Note_on_c, 1, 38, 91
3, 57766, Note_off_c, 1, 38, 91
3, 57792, Note_on_c, 1, 36, 84
3, 57840, Note_off_c, 1, 36, 84
3, 57984, Note_on_c, 1, 38, 91
3, 58036, Note_off_c, 1, 38, 91
3, 58080, Note_on_c, 1, 36, 93
3, 58140, Note_off_c, 1, 36, 93
3, 58176, Note_on_c, 1, 33, 91
3, 58236, Note_off_c, 1, 33, 91
3, 58368, Note_on_c, 1, 34, 93
3, 58622, Note_off_c, 1, 34, 93
3, 58656, Note_on_c, 1, 33, 82
3, 58716, Note_off_c, 1, 33, 82
3, 58944, Note_on_c, 1, 31, 93
3, 59320, Note_off_c, 1, 31, 93
3, 59328, Note_on_c, 1, 36, 87
3, 59382, Note_off_c, 1, 36, 87
3, 59712, Note_on_c, 1, 36, 91
3, 59872, Note_off_c, 1, 36, 91
3, 59904, Note_on_c, 1, 34, 93
3, 60194, Note_off_c, 1, 34, 93
3, 60576, Note_on_c, 1, 34, 91
3, 60636, Note_off_c, 1, 34, 91
3, 60672, Note_on_c, 1, 34, 91
3, 60862, Note_off_c, 1, 34, 91
3, 61248, Note_on_c, 1, 29, 91
3, 61300, Note_off_c, 1, 29, 91
3, 61344, Note_on_c, 1, 33, 93
3, 61400, Note_off_c, 1, 33, 93
3, 61440, Note_on_c, 1, 34, 93
3, 61728, Note_off_c, 1, 34, 93
3, 62112, Note_on_c, 1, 34, 91
3, 62172, Note_off_c, 1, 34, 91
3, 62208, Note_on_c, 1, 34, 91
3, 62398, Note_off_c, 1, 34, 91
3, 62496, Note_on_c, 1, 34, 91
3, 62550, Note_off_c, 1, 34, 91
3, 62592, Note_on_c, 1, 29, 91
3, 62738, Note_off_c, 1, 29, 91
3, 62784, Note_on_c, 1, 34, 91
3, 62928, Note_off_c, 1, 34, 91
3, 62976, Note_on_c, 1, 33, 93
3, 63294, Note_off_c, 1, 33, 93
3, 63648, Note_on_c, 1, 33, 91
3, 63708, Note_off_c, 1, 33, 91
3, 63744, Note_on_c, 1, 33, 91
3, 63934, Note_off_c, 1, 33, 91
3, 64320, Note_on_c, 1, 33, 91
3, 64372, Note_off_c, 1, 33, 91
3, 64512, Note_on_c, 1, 38, 93
3, 64800, Note_off_c, 1, 38, 93
3, 65184, Note_on_c, 1, 38, 91
3, 65244, Note_off_c, 1, 38, 91
3, 65280, Note_on_c, 1, 38, 91
3, 65568, Note_off_c, 1, 38, 91
3, 65664, Note_on_c, 1, 36, 91
3, 65952, Note_off_c, 1, 36, 91
3, 66048, Note_on_c, 1, 34, 93
3, 66338, Note_off_c, 1, 34, 93
3, 66720, Note_on_c, 1, 34, 91
3, 66780, Note_off_c, 1, 34, 91
3, 66816, Note_on_c, 1, 34, 91
3, 67006, Note_off_c, 1, 34, 91
3, 67392, Note_on_c, 1, 29, 91
3, 67444, Note_off_c, 1, 29, 91
3, 67488, Note_on_c, 1, 33, 93
3, 67544, Note_off_c, 1, 33, 93
3, 67584, Note_on_c, 1, 34, 93
3, 67872, Note_off_c, 1, 34, 93
3, 68256, Note_on_c, 1, 34, 91
3, 68316, Note_off_c, 1, 34, 91
3, 68352, Note_on_c, 1, 34, 91
3, 68542, Note_off_c, 1, 34, 91
3, 68736, Note_on_c, 1, 31, 91
3, 69024, Note_off_c, 1, 31, 91
3, 69120, Note_on_c, 1, 33, 93
3, 69438, Note_off_c, 1, 33, 93
3, 69792, Note_on_c, 1, 33, 91
3, 69852, Note_off_c, 1, 33, 91
3, 69888, Note_on_c, 1, 33, 91
3, 70078, Note_off_c, 1, 33, 91
3, 70464, Note_on_c, 1, 36, 91
3, 70516, Note_off_c, 1, 36, 91
3, 70560, Note_on_c, 1, 33, 91
3, 70612, Note_off_c, 1, 33, 91
3, 70656, Note_on_c, 1, 38, 93
3, 70944, Note_off_c, 1, 38, 93
3, 71328, Note_on_c, 1, 38, 91
3, 71388, Note_off_c, 1, 38, 91
3, 71424, Note_on_c, 1, 38, 91
3, 71712, Note_off_c, 1, 38, 91
3, 71808, Note_on_c, 1, 36, 91
3, 72096, Note_off_c, 1, 36, 91
3, 72192, Note_on_c, 1, 34, 93
3, 72482, Note_off_c, 1, 34, 93
3, 72864, Note_on_c, 1, 34, 91
3, 72924, Note_off_c, 1, 34, 91
3, 72960, Note_on_c, 1, 34, 91
3, 73150, Note_off_c, 1, 34, 91
3, 73536, Note_on_c, 1, 29, 91
3, 73588, Note_off_c, 1, 29, 91
3, 73632, Note_on_c, 1, 33, 93
3, 73688, Note_off_c, 1, 33, 93
3, 73728, Note_on_c, 1, 34, 93
3, 74016, Note_off_c, 1, 34, 93
3, 74400, Note_on_c, 1, 34, 91
3, 74460, Note_off_c, 1, 34, 91
3, 74496, Note_on_c, 1, 34, 91
3, 74686, Note_off_c, 1, 34, 91
3, 74784, Note_on_c, 1, 34, 91
3, 74838, Note_off_c, 1, 34, 91
3, 75072, Note_on_c, 1, 35, 91
3, 75216, Note_off_c, 1, 35, 91
3, 75264, Note_on_c, 1, 36, 91
3, 75392, Note_off_c, 1, 36, 91
3, 75552, Note_on_c, 1, 36, 91
3, 75666, Note_off_c, 1, 36, 91
3, 75840, Note_on_c, 1, 36, 91
3, 76420, Note_off_c, 1, 36, 91
3, 76608, Note_on_c, 1, 34, 71
3, 76658, Note_off_c, 1, 34, 71
3, 76704, Note_on_c, 1, 35, 79
3, 76742, Note_off_c, 1, 35, 79
3, 76800, Note_on_c, 1, 36, 90
3, 77008, Note_off_c, 1, 36, 90
3, 77088, Note_on_c, 1, 36, 91
3, 77148, Note_off_c, 1, 36, 91
3, 77376, Note_on_c, 1, 36, 91
3, 77948, Note_off_c, 1, 36, 91
3, 78144, Note_on_c, 1, 34, 71
3, 78194, Note_off_c, 1, 34, 71
3, 78240, Note_on_c, 1, 35, 79
3, 78278, Note_off_c, 1, 35, 79
3, 78336, Note_on_c, 1, 36, 91
3, 78464, Note_off_c, 1, 36, 91
3, 78624, Note_on_c, 1, 36, 91
3, 78738, Note_off_c, 1, 36, 91
3, 78912, Note_on_c, 1, 36, 91
3, 79492, Note_off_c, 1, 36, 91
3, 79680, Note_on_c, 1, 34, 71
3, 79730, Note_off_c, 1, 34, 71
3, 79776, Note_on_c, 1, 35, 79
3, 79814, Note_off_c, 1, 35, 79
3, 79872, Note_on_c, 1, 36, 91
3, 80000, Note_off_c, 1, 36, 91
3, 80160, Note_on_c, 1, 36, 91
3, 80274, Note_off_c, 1, 36, 91
3, 80448, Note_on_c, 1, 36, 91
3, 80736, Note_off_c, 1, 36, 91
3, 80832, Note_on_c, 1, 40, 71
3, 80882, Note_off_c, 1, 40, 71
3, 81024, Note_on_c, 1, 41, 91
3, 81166, Note_off_c, 1, 41, 91
3, 81216, Note_on_c, 1, 36, 79
3, 81276, Note_off_c, 1, 36, 79
3, 81408, Note_on_c, 1, 29, 93
3, 81648, Note_off_c, 1, 29, 93
3, 81696, Note_on_c, 1, 33, 93
3, 81756, Note_off_c, 1, 33, 93
3, 81984, Note_on_c, 1, 38, 91
3, 82342, Note_off_c, 1, 38, 91
3, 82368, Note_on_c, 1, 36, 84
3, 82416, Note_off_c, 1, 36, 84
3, 82560, Note_on_c, 1, 38, 91
3, 82612, Note_off_c, 1, 38, 91
3, 82656, Note_on_c, 1, 36, 93
3, 82716, Note_off_c, 1, 36, 93
3, 82752, Note_on_c, 1, 33, 91
3, 82812, Note_off_c, 1, 33, 91
3, 82944, Note_on_c, 1, 34, 93
3, 83198, Note_off_c, 1, 34, 93
3, 83232, Note_on_c, 1, 33, 82
3, 83292, Note_off_c, 1, 33, 82
3, 83520, Note_on_c, 1, 31, 93
3, 83896, Note_off_c, 1, 31, 93
3, 83904, Note_on_c, 1, 36, 87
3, 83958, Note_off_c, 1, 36, 87
3, 84288, Note_on_c, 1, 36, 91
3, 84342, Note_off_c, 1, 36, 91
3, 84384, Note_on_c, 1, 41, 91
3, 84440, Note_off_c, 1, 41, 91
3, 84480, Note_on_c, 1, 29, 93
3, 84720, Note_off_c, 1, 29, 93
3, 84768, Note_on_c, 1, 33, 93
3, 84828, Note_off_c, 1, 33, 93
3, 85056, Note_on_c, 1, 38, 91
3, 85414, Note_off_c, 1, 38, 91
3, 85440, Note_on_c, 1, 36, 84
3, 85488, Note_off_c, 1, 36, 84
3, 85632, Note_on_c, 1, 38, 91
3, 85684, Note_off_c, 1, 38, 91
3, 85728, Note_on_c, 1, 36, 93
3, 85788, Note_off_c, 1, 36, 93
3, 85824, Note_on_c, 1, 33, 91
3, 85884, Note_off_c, 1, 33, 91
3, 86016, Note_on_c, 1, 34, 93
3, 86270, Note_off_c, 1, 34, 93
3, 86304, Note_on_c, 1, 33, 82
3, 86364, Note_off_c, 1, 33, 82
3, 86592, Note_on_c, 1, 31, 93
3, 86968, Note_off_c, 1, 31, 93
3, 86976, Note_on_c, 1, 36, 87
3, 87030, Note_off_c, 1, 36, 87
3, 87360, Note_on_c, 1, 36, 91
3, 87414, Note_off_c, 1, 36, 91
3, 87456, Note_on_c, 1, 41, 91
3, 87512, Note_off_c, 1, 41, 91
3, 87552, Note_on_c, 1, 29, 93
3, 87792, Note_off_c, 1, 29, 93
3, 87840, Note_on_c, 1, 33, 93
3, 87900, Note_off_c, 1, 33, 93
3, 88128, Note_on_c, 1, 38, 91
3, 88486, Note_off_c, 1, 38, 91
3, 88512, Note_on_c, 1, 36, 84
3, 88560, Note_off_c, 1, 36, 84
3, 88704, Note_on_c, 1, 38, 91
3, 88756, Note_off_c, 1, 38, 91
3, 88800, Note_on_c, 1, 36, 93
3, 88860, Note_off_c, 1, 36, 93
3, 88896, Note_on_c, 1, 33, 91
3, 88956, Note_off_c, 1, 33, 91
3, 89088, Note_on_c, 1, 34, 93
3, 89342, Note_off_c, 1, 34, 93
3, 89376, Note_on_c, 1, 33, 82
3, 89436, Note_off_c, 1, 33, 82
3, 89664, Note_on_c, 1, 31, 93
3, 90040, Note_off_c, 1, 31, 93
3, 90048, Note_on_c, 1, 36, 87
3, 90102, Note_off_c, 1, 36, 87
3, 90240, Note_on_c, 1, 36, 91
3, 90292, Note_off_c, 1, 36, 91
3, 90336, Note_on_c, 1, 38, 93
3, 90396, Note_off_c, 1, 38, 93
3, 90432, Note_on_c, 1, 41, 91
3, 90592, Note_off_c, 1, 41, 91
3, 90624, Note_on_c, 1, 29, 93
3, 90864, Note_off_c, 1, 29, 93
3, 90912, Note_on_c, 1, 33, 93
3, 90972, Note_off_c, 1, 33, 93
3, 91200, Note_on_c, 1, 38, 91
3, 91558, Note_off_c, 1, 38, 91
3, 91584, Note_on_c, 1, 36, 84
3, 91632, Note_off_c, 1, 36, 84
3, 91776, Note_on_c, 1, 38, 91
3, 91828, Note_off_c, 1, 38, 91
3, 91872, Note_on_c, 1, 36, 93
3, 91932, Note_off_c, 1, 36, 93
3, 91968, Note_on_c, 1, 33, 91
3, 92028, Note_off_c, 1, 33, 91
3, 92160, Note_on_c, 1, 34, 93
3, 92414, Note_off_c, 1, 34, 93
3, 92448, Note_on_c, 1, 33, 82
3, 92508, Note_off_c, 1, 33, 82
3, 92736, Note_on_c, 1, 31, 93
3, 93112, Note_off_c, 1, 31, 93
3, 93120, Note_on_c, 1, 36, 87
3, 93174, Note_off_c, 1, 36, 87
3, 93504, Note_on_c, 1, 36, 91
3, 93558, Note_off_c, 1, 36, 91
3, 93600, Note_on_c, 1, 41, 91
3, 93656, Note_off_c, 1, 41, 91
3, 93696, Note_on_c, 1, 29, 93
3, 93936, Note_off_c, 1, 29, 93
3, 93984, Note_on_c, 1, 33, 93
3, 94044, Note_off_c, 1, 33, 93
3, 94272, Note_on_c, 1, 38, 91
3, 94630, Note_off_c, 1, 38, 91
3, 94656, Note_on_c, 1, 36, 84
3, 94704, Note_off_c, 1, 36, 84
3, 94848, Note_on_c, 1, 38, 91
3, 94900, Note_off_c, 1, 38, 91
3, 94944, Note_on_c, 1, 36, 93
3, 95004, Note_off_c, 1, 36, 93
3, 95040, Note_on_c, 1, 33, 91
3, 95100, Note_off_c, 1, 33, 91
3, 95232, Note_on_c, 1, 34, 93
3, 95486, Note_off_c, 1, 34, 93
3, 95520, Note_on_c, 1, 33, 82
3, 95580, Note_off_c, 1, 33, 82
3, 95808, Note_on_c, 1, 31, 93
3, 96184, Note_off_c, 1, 31, 93
3, 96192, Note_on_c, 1, 36, 87
3, 96246, Note_off_c, 1, 36, 87
3, 96576, Note_on_c, 1, 36, 91
3, 96736, Note_off_c, 1, 36, 91
3, 96768, Note_on_c, 1, 29, 93
3, 97008, Note_off_c, 1, 29, 93
3, 97056, Note_on_c, 1, 33, 93
3, 97116, Note_off_c, 1, 33, 93
3, 97344, Note_on_c, 1, 38, 91
3, 97702, Note_off_c, 1, 38, 91
3, 97728, Note_on_c, 1, 36, 84
3, 97776, Note_off_c, 1, 36, 84
3, 97920, Note_on_c, 1, 38, 91
3, 97972, Note_off_c, 1, 38, 91
3, 98016, Note_on_c, 1, 36, 93
3, 98076, Note_off_c, 1, 36, 93
3, 98112, Note_on_c, 1, 33, 91
3, 98172, Note_off_c, 1, 33, 91
3, 98304, Note_on_c, 1, 34, 93
3, 98558, Note_off_c, 1, 34, 93
3, 98592, Note_on_c, 1, 33, 82
3, 98652, Note_off_c, 1, 33, 82
3, 98880, Note_on_c, 1, 31, 93
3, 99256, Note_off_c, 1, 31, 93
3, 99264, Note_on_c, 1, 36, 87
3, 99318, Note_off_c, 1, 36, 87
3, 99648, Note_on_c, 1, 36, 91
3, 99702, Note_off_c, 1, 36, 91
3, 99744, Note_on_c, 1, 41, 91
3, 99800, Note_off_c, 1, 41, 91
3, 99840, Note_on_c, 1, 29, 93
3, 100080, Note_off_c, 1, 29, 93
3, 100128, Note_on_c, 1, 33, 93
3, 100188, Note_off_c, 1, 33, 93
3, 100416, Note_on_c, 1, 38, 91
3, 100774, Note_off_c, 1, 38, 91
3, 100800, Note_on_c, 1, 36, 84
3, 100848, Note_off_c, 1, 36, 84
3, 100992, Note_on_c, 1, 38, 91
3, 101044, Note_off_c, 1, 38, 91
3, 101088, Note_on_c, 1, 36, 93
3, 101148, Note_off_c, 1, 36, 93
3, 101184, Note_on_c, 1, 33, 91
3, 101244, Note_off_c, 1, 33, 91
3, 101376, Note_on_c, 1, 34, 93
3, 101630, Note_off_c, 1, 34, 93
3, 101664, Note_on_c, 1, 33, 82
3, 101724, Note_off_c, 1, 33, 82
3, 101952, Note_on_c, 1, 31, 93
3, 102328, Note_off_c, 1, 31, 93
3, 102336, Note_on_c, 1, 36, 87
3, 102390, Note_off_c, 1, 36, 87
3, 102720, Note_on_c, 1, 36, 91
3, 102774, Note_off_c, 1, 36, 91
3, 102816, Note_on_c, 1, 31, 91
3, 102872, Note_off_c, 1, 31, 91
3, 102912, Note_on_c, 1, 29, 93
3, 103152, Note_off_c, 1, 29, 93
3, 103200, Note_on_c, 1, 33, 93
3, 103260, Note_off_c, 1, 33, 93
3, 103488, Note_on_c, 1, 38, 91
3, 103846, Note_off_c, 1, 38, 91
3, 103872, Note_on_c, 1, 36, 84
3, 103920, Note_off_c, 1, 36, 84
3, 104064, Note_on_c, 1, 38, 91
3, 104116, Note_off_c, 1, 38, 91
3, 104160, Note_on_c, 1, 36, 93
3, 104220, Note_off_c, 1, 36, 93
3, 104256, Note_on_c, 1, 33, 91
3, 104316, Note_off_c, 1, 33, 91
3, 104448, Note_on_c, 1, 34, 93
3, 104702, Note_off_c, 1, 34, 93
3, 104736, Note_on_c, 1, 33, 82
3, 104796, Note_off_c, 1, 33, 82
3, 105024, Note_on_c, 1, 31, 93
3, 105400, Note_off_c, 1, 31, 93
3, 105408, Note_on_c, 1, 36, 87
3, 105462, Note_off_c, 1, 36, 87
3, 105792, Note_on_c, 1, 36, 91
3, 105952, Note_off_c, 1, 36, 91
3, 105984, Note_on_c, 1, 34, 93
3, 106274, Note_off_c, 1, 34, 93
3, 106656, Note_on_c, 1, 34, 91
3, 106716, Note_off_c, 1, 34, 91
3, 106752, Note_on_c, 1, 34, 91
3, 106942, Note_off_c, 1, 34, 91
3, 107328, Note_on_c, 1, 29, 91
3, 107380, Note_off_c, 1, 29, 91
3, 107424, Note_on_c, 1, 33, 93
3, 107480, Note_off_c, 1, 33, 93
3, 107520, Note_on_c, 1, 34, 93
3, 107808, Note_off_c, 1, 34, 93
3, 108192, Note_on_c, 1, 34, 91
3, 108252, Note_off_c, 1, 34, 91
3, 108288, Note_on_c, 1, 34, 91
3, 108478, Note_off_c, 1, 34, 91
3, 108576, Note_on_c, 1, 29, 91
3, 108630, Note_off_c, 1, 29, 91
3, 108672, Note_on_c, 1, 29, 91
3, 108818, Note_off_c, 1, 29, 91
3, 108864, Note_on_c, 1, 33, 91
3, 109008, Note_off_c, 1, 33, 91
3, 109056, Note_on_c, 1, 33, 93
3, 109374, Note_off_c, 1, 33, 93
3, 109728, Note_on_c, 1, 33, 91
3, 109788, Note_off_c, 1, 33, 91
3, 109824, Note_on_c, 1, 33, 91
3, 110014, Note_off_c, 1, 33, 91
3, 110400, Note_on_c, 1, 36, 91
3, 110452, Note_off_c, 1, 36, 91
3, 110496, Note_on_c, 1, 33, 91
3, 110548, Note_off_c, 1, 33, 91
3, 110592, Note_on_c, 1, 38, 93
3, 110880, Note_off_c, 1, 38, 93
3, 111264, Note_on_c, 1, 38, 91
3, 111324, Note_off_c, 1, 38, 91
3, 111360, Note_on_c, 1, 38, 91
3, 111648, Note_off_c, 1, 38, 91
3, 111744, Note_on_c, 1, 36, 91
3, 112032, Note_off_c, 1, 36, 91
3, 112128, Note_on_c, 1, 34, 93
3, 112418, Note_off_c, 1, 34, 93
3, 112800, Note_on_c, 1, 34, 91
3, 112860, Note_off_c, 1, 34, 91
3, 112896, Note_on_c, 1, 34, 91
3, 113086, Note_off_c, 1, 34, 91
3, 113472, Note_on_c, 1, 29, 91
3, 113524, Note_off_c, 1, 29, 91
3, 113568, Note_on_c, 1, 33, 93
3, 113624, Note_off_c, 1, 33, 93
3, 113664, Note_on_c, 1, 34, 93
3, 113952, Note_off_c, 1, 34, 93
3, 114336, Note_on_c, 1, 34, 91
3, 114396, Note_off_c, 1, 34, 91
3, 114432, Note_on_c, 1, 34, 91
3, 114622, Note_off_c, 1, 34, 91
3, 114720, Note_on_c, 1, 29, 91
3, 114780, Note_off_c, 1, 29, 91
3, 114816, Note_on_c, 1, 29, 91
3, 114962, Note_off_c, 1, 29, 91
3, 115008, Note_on_c, 1, 33, 91
3, 115154, Note_off_c, 1, 33, 91
3, 115200, Note_on_c, 1, 33, 93
3, 115518, Note_off_c, 1, 33, 93
3, 115872, Note_on_c, 1, 33, 91
3, 115932, Note_off_c, 1, 33, 91
3, 115968, Note_on_c, 1, 33, 91
3, 116158, Note_off_c, 1, 33, 91
3, 116544, Note_on_c, 1, 33, 91
3, 116596, Note_off_c, 1, 33, 91
3, 116640, Note_on_c, 1, 36, 91
3, 116692, Note_off_c, 1, 36, 91
3, 116736, Note_on_c, 1, 38, 93
3, 117024, Note_off_c, 1, 38, 93
3, 117408, Note_on_c, 1, 38, 91
3, 117468, Note_off_c, 1, 38, 91
3, 117504, Note_on_c, 1, 38, 91
3, 117792, Note_off_c, 1, 38, 91
3, 117888, Note_on_c, 1, 36, 91
3, 118176, Note_off_c, 1, 36, 91
3, 118272, Note_on_c, 1, 34, 93
3, 118562, Note_off_c, 1, 34, 93
3, 118944, Note_on_c, 1, 34, 91
3, 119004, Note_off_c, 1, 34, 91
3, 119040, Note_on_c, 1, 34, 91
3, 119230, Note_off_c, 1, 34, 91
3, 119616, Note_on_c, 1, 29, 91
3, 119668, Note_off_c, 1, 29, 91
3, 119712, Note_on_c, 1, 33, 93
3, 119768, Note_off_c, 1, 33, 93
3, 119808, Note_on_c, 1, 34, 93
3, 120096, Note_off_c, 1, 34, 93
3, 120480, Note_on_c, 1, 34, 91
3, 120540, Note_off_c, 1, 34, 91
3, 120576, Note_on_c, 1, 34, 91
3, 120722, Note_off_c, 1, 34, 91
3, 120768, Note_on_c, 1, 34, 91
3, 120914, Note_off_c, 1, 34, 91
3, 120960, Note_on_c, 1, 34, 91
3, 121106, Note_off_c, 1, 34, 91
3, 121152, Note_on_c, 1, 35, 91
3, 121296, Note_off_c, 1, 35, 91
3, 121344, Note_on_c, 1, 36, 91
3, 121576, Note_off_c, 1, 36, 91
3, 121632, Note_on_c, 1, 36, 91
3, 121692, Note_off_c, 1, 36, 91
3, 121920, Note_on_c, 1, 36, 91
3, 122500, Note_off_c, 1, 36, 91
3, 122688, Note_on_c, 1, 34, 71
3, 122738, Note_off_c, 1, 34, 71
3, 122784, Note_on_c, 1, 35, 79
3, 122822, Note_off_c, 1, 35, 79
3, 122880, Note_on_c, 1, 36, 90
3, 123088, Note_off_c, 1, 36, 90
3, 123168, Note_on_c, 1, 36, 91
3, 123228, Note_off_c, 1, 36, 91
3, 123456, Note_on_c, 1, 36, 91
3, 124028, Note_off_c, 1, 36, 91
3, 124224, Note_on_c, 1, 34, 71
3, 124274, Note_off_c, 1, 34, 71
3, 124320, Note_on_c, 1, 35, 79
3, 124358, Note_off_c, 1, 35, 79
3, 124416, Note_on_c, 1, 36, 91
3, 124544, Note_off_c, 1, 36, 91
3, 124704, Note_on_c, 1, 36, 91
3, 124818, Note_off_c, 1, 36, 91
3, 124992, Note_on_c, 1, 36, 91
3, 125572, Note_off_c, 1, 36, 91
3, 125760, Note_on_c, 1, 34, 71
3, 125810, Note_off_c, 1, 34, 71
3, 125856, Note_on_c, 1, 35, 79
3, 125894, Note_off_c, 1, 35, 79
3, 125952, Note_on_c, 1, 36, 91
3, 126080, Note_off_c, 1, 36, 91
3, 126240, Note_on_c, 1, 36, 91
3, 126354, Note_off_c, 1, 36, 91
3, 126528, Note_on_c, 1, 36, 91
3, 126816, Note_off_c, 1, 36, 91
3, 126912, Note_on_c, 1, 36, 71
3, 126962, Note_off_c, 1, 36, 71
3, 127104, Note_on_c, 1, 36, 79
3, 127164, Note_off_c, 1, 36, 79
3, 127200, Note_on_c, 1, 38, 79
3, 127260, Note_off_c, 1, 38, 79
3, 127296, Note_on_c, 1, 41, 91
3, 127438, Note_off_c, 1, 41, 91
3, 127488, Note_on_c, 1, 29, 93
3, 127728, Note_off_c, 1, 29, 93
3, 127776, Note_on_c, 1, 33, 93
3, 127836, Note_off_c, 1, 33, 93
3, 128064, Note_on_c, 1, 38, 91
3, 128422, Note_off_c, 1, 38, 91
3, 128448, Note_on_c, 1, 36, 84
3, 128496, Note_off_c, 1, 36, 84
3, 128640, Note_on_c, 1, 38, 91
3, 128692, Note_off_c, 1, 38, 91
3, 128736, Note_on_c, 1, 36, 93
3, 128796, Note_off_c, 1, 36, 93
3, 128832, Note_on_c, 1, 33, 91
3, 128892, Note_off_c, 1, 33, 91
3, 129024, Note_on_c, 1, 34, 93
3, 129278, Note_off_c, 1, 34, 93
3, 129312, Note_on_c, 1, 33, 82
3, 129372, Note_off_c, 1, 33, 82
3, 129600, Note_on_c, 1, 31, 93
3, 129976, Note_off_c, 1, 31, 93
3, 129984, Note_on_c, 1, 36, 87
3, 130038, Note_off_c, 1, 36, 87
3, 130368, Note_on_c, 1, 36, 91
3, 130422, Note_off_c, 1, 36, 91
3, 130464, Note_on_c, 1, 41, 91
3, 130520, Note_off_c, 1, 41, 91
3, 130560, Note_on_c, 1, 29, 93
3, 130800, Note_off_c, 1, 29, 93
3, 130848, Note_on_c, 1, 33, 93
3, 130908, Note_off_c, 1, 33, 93
3, 131136, Note_on_c, 1, 38, 91
3, 131494, Note_off_c, 1, 38, 91
3, 131520, Note_on_c, 1, 36, 84
3, 131568, Note_off_c, 1, 36, 84
3, 131712, Note_on_c, 1, 38, 91
3, 131764, Note_off_c, 1, 38, 91
3, 131808, Note_on_c, 1, 36, 93
3, 131868, Note_off_c, 1, 36, 93
3, 131904, Note_on_c, 1, 33, 91
3, 131964, Note_off_c, 1, 33, 91
3, 132096, Note_on_c, 1, 34, 93
3, 132350, Note_off_c, 1, 34, 93
3, 132384, Note_on_c, 1, 33, 82
3, 132444, Note_off_c, 1, 33, 82
3, 132672, Note_on_c, 1, 31, 93
3, 133048, Note_off_c, 1, 31, 93
3, 133056, Note_on_c, 1, 36, 87
3, 133110, Note_off_c, 1, 36, 87
3, 133248, Note_on_c, 1, 36, 91
3, 133302, Note_off_c, 1, 36, 91
3, 133440, Note_on_c, 1, 36, 91
3, 133496, Note_off_c, 1, 36, 91
3, 133536, Note_on_c, 1, 36, 91
3, 133592, Note_off_c, 1, 36, 91
3, 133632, Note_on_c, 1, 34, 91
3, 135754, Note_off_c, 1, 34, 91
3, 135936, Note_on_c, 1, 34, 91
3, 136098, Note_off_c, 1, 34, 91
3, 136128, Note_on_c, 1, 34, 91
3, 136222, Note_off_c, 1, 34, 91
3, 136512, Note_on_c, 1, 34, 91
3, 136658, Note_off_c, 1, 34, 91
3, 136704, Note_on_c, 1, 33, 91
3, 137694, Note_off_c, 1, 33, 91
3, 137856, Note_on_c, 1, 33, 91
3, 138018, Note_off_c, 1, 33, 91
3, 138048, Note_on_c, 1, 33, 91
3, 138142, Note_off_c, 1, 33, 91
3, 138624, Note_on_c, 1, 29, 91
3, 138810, Note_off_c, 1, 29, 91
3, 138816, Note_on_c, 1, 31, 91
3, 138934, Note_off_c, 1, 31, 91
3, 139200, Note_on_c, 1, 33, 91
3, 139488, Note_off_c, 1, 33, 91
3, 139680, Note_on_c, 1, 33, 91
3, 139740, Note_off_c, 1, 33, 91
3, 139776, Note_on_c, 1, 34, 91
3, 140156, Note_off_c, 1, 34, 91
3, 140342, Note_on_c, 1, 41, 91
3, 140742, Note_off_c, 1, 41, 91
3, 140928, Note_on_c, 1, 34, 91
3, 141688, Note_off_c, 1, 34, 91
3, 141890, Note_on_c, 1, 29, 91
3, 142036, Note_off_c, 1, 29, 91
3, 142080, Note_on_c, 1, 34, 90
3, 142246, Note_off_c, 1, 34, 90
3, 142272, Note_on_c, 1, 34, 87
3, 142370, Note_off_c, 1, 34, 87
3, 142656, Note_on_c, 1, 34, 91
3, 142802, Note_off_c, 1, 34, 91
3, 142848, Note_on_c, 1, 33, 91
3, 143228, Note_off_c, 1, 33, 91
3, 143424, Note_on_c, 1, 40, 91
3, 143792, Note_off_c, 1, 40, 91
3, 144000, Note_on_c, 1, 33, 91
3, 144360, Note_off_c, 1, 33, 91
3, 144384, Note_on_c, 1, 38, 91
3, 144530, Note_off_c, 1, 38, 91
3, 144768, Note_on_c, 1, 38, 91
3, 144914, Note_off_c, 1, 38, 91
3, 145056, Note_on_c, 1, 33, 91
3, 145116, Note_off_c, 1, 33, 91
3, 145152, Note_on_c, 1, 26, 91
3, 145298, Note_off_c, 1, 26, 91
3, 145344, Note_on_c, 1, 38, 91
3, 145490, Note_off_c, 1, 38, 91
3, 145536, Note_on_c, 1, 33, 91
3, 145588, Note_off_c, 1, 33, 91
3, 145632, Note_on_c, 1, 36, 91
3, 145692, Note_off_c, 1, 36, 91
3, 145728, Note_on_c, 1, 33, 91
3, 145788, Note_off_c, 1, 33, 91
3, 145824, Note_on_c, 1, 32, 91
3, 145884, Note_off_c, 1, 32, 91
3, 145920, Note_on_c, 1, 31, 91
3, 146124, Note_off_c, 1, 31, 91
3, 146208, Note_on_c, 1, 31, 91
3, 146268, Note_off_c, 1, 31, 91
3, 146400, Note_on_c, 1, 31, 91
3, 146440, Note_off_c, 1, 31, 91
3, 146496, Note_on_c, 1, 31, 91
3, 146744, Note_off_c, 1, 31, 91
3, 146784, Note_on_c, 1, 33, 81
3, 146824, Note_off_c, 1, 33, 81
3, 146880, Note_on_c, 1, 33, 91
3, 147026, Note_off_c, 1, 33, 91
3, 147072, Note_on_c, 1, 34, 91
3, 147218, Note_off_c, 1, 34, 91
3, 147264, Note_on_c, 1, 35, 91
3, 147410, Note_off_c, 1, 35, 91
3, 147456, Note_on_c, 1, 36, 91
3, 147524, Note_off_c, 1, 36, 91
3, 147552, Note_on_c, 1, 33, 91
3, 147604, Note_off_c, 1, 33, 91
3, 147648, Note_on_c, 1, 29, 91
3, 147696, Note_off_c, 1, 29, 91
3, 147744, Note_on_c, 1, 36, 91
3, 147814, Note_off_c, 1, 36, 91
3, 148032, Note_on_c, 1, 36, 91
3, 148266, Note_off_c, 1, 36, 91
3, 148320, Note_on_c, 1, 36, 81
3, 148360, Note_off_c, 1, 36, 81
3, 148416, Note_on_c, 1, 36, 91
3, 148488, Note_off_c, 1, 36, 91
3, 148608, Note_on_c, 1, 36, 91
3, 148668, Note_off_c, 1, 36, 91
3, 148704, Note_on_c, 1, 38, 79
3, 148742, Note_off_c, 1, 38, 79
3, 148800, Note_on_c, 1, 29, 71
3, 148946, Note_off_c, 1, 29, 71
3, 148992, Note_on_c, 1, 31, 91
3, 149196, Note_off_c, 1, 31, 91
3, 149280, Note_on_c, 1, 31, 91
3, 149340, Note_off_c, 1, 31, 91
3, 149472, Note_on_c, 1, 31, 91
3, 149512, Note_off_c, 1, 31, 91
3, 149568, Note_on_c, 1, 31, 91
3, 149816, Note_off_c, 1, 31, 91
3, 149856, Note_on_c, 1, 33, 81
3, 149896, Note_off_c, 1, 33, 81
3, 149952, Note_on_c, 1, 33, 91
3, 150098, Note_off_c, 1, 33, 91
3, 150144, Note_on_c, 1, 34, 91
3, 150290, Note_off_c, 1, 34, 91
3, 150336, Note_on_c, 1, 35, 91
3, 150482, Note_off_c, 1, 35, 91
3, 150528, Note_on_c, 1, 36, 91
3, 150596, Note_off_c, 1, 36, 91
3, 150624, Note_on_c, 1, 33, 91
3, 150676, Note_off_c, 1, 33, 91
3, 150720, Note_on_c, 1, 29, 91
3, 150768, Note_off_c, 1, 29, 91
3, 150816, Note_on_c, 1, 36, 91
3, 150886, Note_off_c, 1, 36, 91
3, 151104, Note_on_c, 1, 36, 91
3, 151338, Note_off_c, 1, 36, 91
3, 151392, Note_on_c, 1, 36, 81
3, 151432, Note_off_c, 1, 36, 81
3, 151488, Note_on_c, 1, 36, 91
3, 151560, Note_off_c, 1, 36, 91
3, 151680, Note_on_c, 1, 36, 91
3, 151740, Note_off_c, 1, 36, 91
3, 151776, Note_on_c, 1, 38, 79
3, 151814, Note_off_c, 1, 38, 79
3, 151872, Note_on_c, 1, 29, 71
3, 152018, Note_off_c, 1, 29, 71
3, 152064, Note_on_c, 1, 31, 91
3, 152268, Note_off_c, 1, 31, 91
3, 152352, Note_on_c, 1, 31, 91
3, 152412, Note_off_c, 1, 31, 91
3, 152544, Note_on_c, 1, 31, 91
3, 152584, Note_off_c, 1, 31, 91
3, 152640, Note_on_c, 1, 31, 91
3, 152888, Note_off_c, 1, 31, 91
3, 152928, Note_on_c, 1, 33, 81
3, 152968, Note_off_c, 1, 33, 81
3, 153024, Note_on_c, 1, 33, 91
3, 153170, Note_off_c, 1, 33, 91
3, 153216, Note_on_c, 1, 34, 91
3, 153362, Note_off_c, 1, 34, 91
3, 153408, Note_on_c, 1, 35, 91
3, 153554, Note_off_c, 1, 35, 91
3, 153600, Note_on_c, 1, 36, 91
3, 153812, Note_off_c, 1, 36, 91
3, 153888, Note_on_c, 1, 36, 91
3, 153958, Note_off_c, 1, 36, 91
3, 154080, Note_on_c, 1, 36, 77
3, 154128, Note_off_c, 1, 36, 77
3, 154176, Note_on_c, 1, 36, 91
3, 154410, Note_off_c, 1, 36, 91
3, 154464, Note_on_c, 1, 36, 81
3, 154504, Note_off_c, 1, 36, 81
3, 154560, Note_on_c, 1, 36, 91
3, 154632, Note_off_c, 1, 36, 91
3, 154752, Note_on_c, 1, 36, 91
3, 154812, Note_off_c, 1, 36, 91
3, 154848, Note_on_c, 1, 38, 79
3, 154886, Note_off_c, 1, 38, 79
3, 154944, Note_on_c, 1, 29, 71
3, 155090, Note_off_c, 1, 29, 71
3, 155136, Note_on_c, 1, 31, 91
3, 155340, Note_off_c, 1, 31, 91
3, 155424, Note_on_c, 1, 31, 91
3, 155484, Note_off_c, 1, 31, 91
3, 155616, Note_on_c, 1, 31, 91
3, 155656, Note_off_c, 1, 31, 91
3, 155712, Note_on_c, 1, 31, 91
3, 155960, Note_off_c, 1, 31, 91
3, 156000, Note_on_c, 1, 33, 81
3, 156040, Note_off_c, 1, 33, 81
3, 156096, Note_on_c, 1, 33, 91
3, 156242, Note_off_c, 1, 33, 91
3, 156288, Note_on_c, 1, 34, 91
3, 156434, Note_off_c, 1, 34, 91
3, 156480, Note_on_c, 1, 35, 91
3, 156626, Note_off_c, 1, 35, 91
3, 156672, Note_on_c, 1, 36, 91
3, 156884, Note_off_c, 1, 36, 91
3, 156960, Note_on_c, 1, 36, 91
3, 157030, Note_off_c, 1, 36, 91
3, 157152, Note_on_c, 1, 36, 77
3, 157200, Note_off_c, 1, 36, 77
3, 157248, Note_on_c, 1, 36, 91
3, 157400, Note_off_c, 1, 36, 91
3, 157440, Note_on_c, 1, 36, 82
3, 157500, Note_off_c, 1, 36, 82
3, 157536, Note_on_c, 1, 38, 91
3, 157586, Note_off_c, 1, 38, 91
3, 157632, Note_on_c, 1, 41, 91
3, 157804, Note_off_c, 1, 41, 91
3, 157824, Note_on_c, 1, 43, 91
3, 157878, Note_off_c, 1, 43, 91
3, 157920, Note_on_c, 1, 41, 82
3, 157970, Note_off_c, 1, 41, 82
3, 158016, Note_on_c, 1, 38, 100
3, 158066, Note_off_c, 1, 38, 100
3, 158112, Note_on_c, 1, 36, 91
3, 158180, Note_off_c, 1, 36, 91
3, 158208, Note_on_c, 1, 29, 93
3, 158448, Note_off_c, 1, 29, 93
3, 158496, Note_on_c, 1, 33, 93
3, 158556, Note_off_c, 1, 33, 93
3, 158784, Note_on_c, 1, 38, 91
3, 159142, Note_off_c, 1, 38, 91
3, 159168, Note_on_c, 1, 36, 84
3, 159216, Note_off_c, 1, 36, 84
3, 159360, Note_on_c, 1, 38, 91
3, 159412, Note_off_c, 1, 38, 91
3, 159456, Note_on_c, 1, 36, 93
3, 159516, Note_off_c, 1, 36, 93
3, 159552, Note_on_c, 1, 33, 91
3, 159612, Note_off_c, 1, 33, 91
3, 159744, Note_on_c, 1, 34, 93
3, 159998, Note_off_c, 1, 34, 93
3, 160032, Note_on_c, 1, 33, 82
3, 160092, Note_off_c, 1, 33, 82
3, 160320, Note_on_c, 1, 31, 93
3, 160696, Note_off_c, 1, 31, 93
3, 160704, Note_on_c, 1, 36, 87
3, 160758, Note_off_c, 1, 36, 87
3, 160896, Note_on_c, 1, 36, 93
3, 161044, Note_off_c, 1, 36, 93
3, 161088, Note_on_c, 1, 41, 91
3, 161128, Note_off_c, 1, 41, 91
3, 161184, Note_on_c, 1, 41, 91
3, 161240, Note_off_c, 1, 41, 91
3, 161280, Note_on_c, 1, 29, 93
3, 161520, Note_off_c, 1, 29, 93
3, 161568, Note_on_c, 1, 33, 93
3, 161628, Note_off_c, 1, 33, 93
3, 161856, Note_on_c, 1, 38, 91
3, 162214, Note_off_c, 1, 38, 91
3, 162240, Note_on_c, 1, 36, 84
3, 162288, Note_off_c, 1, 36, 84
3, 162432, Note_on_c, 1, 38, 91
3, 162484, Note_off_c, 1, 38, 91
3, 162528, Note_on_c, 1, 36, 93
3, 162588, Note_off_c, 1, 36, 93
3, 162624, Note_on_c, 1, 33, 91
3, 162684, Note_off_c, 1, 33, 91
3, 162816, Note_on_c, 1, 34, 93
3, 163070, Note_off_c, 1, 34, 93
3, 163104, Note_on_c, 1, 33, 82
3, 163164, Note_off_c, 1, 33, 82
3, 163392, Note_on_c, 1, 31, 93
3, 163768, Note_off_c, 1, 31, 93
3, 163776, Note_on_c, 1, 36, 87
3, 163830, Note_off_c, 1, 36, 87
3, 164160, Note_on_c, 1, 36, 91
3, 164214, Note_off_c, 1, 36, 91
3, 164256, Note_on_c, 1, 41, 91
3, 164312, Note_off_c, 1, 41, 91
3, 164352, Note_on_c, 1, 29, 93
3, 164592, Note_off_c, 1, 29, 93
3, 164640, Note_on_c, 1, 33, 93
3, 164700, Note_off_c, 1, 33, 93
3, 164928, Note_on_c, 1, 38, 91
3, 165286, Note_off_c, 1, 38, 91
3, 165312, Note_on_c, 1, 36, 84
3, 165360, Note_off_c, 1, 36, 84
3, 165504, Note_on_c, 1, 38, 91
3, 165556, Note_off_c, 1, 38, 91
3, 165600, Note_on_c, 1, 36, 93
3, 165660, Note_off_c, 1, 36, 93
3, 165696, Note_on_c, 1, 33, 91
3, 165756, Note_off_c, 1, 33, 91
3, 165888, Note_on_c, 1, 34, 93
3, 166142, Note_off_c, 1, 34, 93
3, 166176, Note_on_c, 1, 33, 82
3, 166236, Note_off_c, 1, 33, 82
3, 166464, Note_on_c, 1, 31, 93
3, 166840, Note_off_c, 1, 31, 93
3, 166848, Note_on_c, 1, 36, 87
3, 166902, Note_off_c, 1, 36, 87
3, 167040, Note_on_c, 1, 36, 91
3, 167094, Note_off_c, 1, 36, 91
3, 167136, Note_on_c, 1, 38, 91
3, 167190, Note_off_c, 1, 38, 91
3, 167232, Note_on_c, 1, 41, 91
3, 167378, Note_off_c, 1, 41, 91
3, 167424, Note_on_c, 1, 29, 93
3, 167664, Note_off_c, 1, 29, 93
3, 167712, Note_on_c, 1, 33, 93
3, 167772, Note_off_c, 1, 33, 93
3, 168000, Note_on_c, 1, 38, 91
3, 168358, Note_off_c, 1, 38, 91
3, 168384, Note_on_c, 1, 36, 84
3, 168432, Note_off_c, 1, 36, 84
3, 168576, Note_on_c, 1, 38, 91
3, 168628, Note_off_c, 1, 38, 91
3, 168672, Note_on_c, 1, 36, 93
3, 168732, Note_off_c, 1, 36, 93
3, 168768, Note_on_c, 1, 33, 91
3, 168828, Note_off_c, 1, 33, 91
3, 168960, Note_on_c, 1, 34, 93
3, 169214, Note_off_c, 1, 34, 93
3, 169248, Note_on_c, 1, 33, 82
3, 169308, Note_off_c, 1, 33, 82
3, 169536, Note_on_c, 1, 31, 93
3, 169912, Note_off_c, 1, 31, 93
3, 169920, Note_on_c, 1, 36, 87
3, 169974, Note_off_c, 1, 36, 87
3, 170112, Note_on_c, 1, 36, 87
3, 170166, Note_off_c, 1, 36, 87
3, 170304, Note_on_c, 1, 36, 91
3, 170358, Note_off_c, 1, 36, 91
3, 170496, Note_on_c, 1, 29, 93
3, 170736, Note_off_c, 1, 29, 93
3, 170784, Note_on_c, 1, 33, 93
3, 170844, Note_off_c, 1, 33, 93
3, 171072, Note_on_c, 1, 38, 91
3, 171430, Note_off_c, 1, 38, 91
3, 171456, Note_on_c, 1, 36, 84
3, 171504, Note_off_c, 1, 36, 84
3, 171648, Note_on_c, 1, 38, 91
3, 171700, Note_off_c, 1, 38, 91
3, 171744, Note_on_c, 1, 36, 93
3, 171804, Note_off_c, 1, 36, 93
3, 171840, Note_on_c, 1, 33, 91
3, 171900, Note_off_c, 1, 33, 91
3, 172032, Note_on_c, 1, 34, 93
3, 172286, Note_off_c, 1, 34, 93
3, 172320, Note_on_c, 1, 33, 82
3, 172380, Note_off_c, 1, 33, 82
3, 172608, Note_on_c, 1, 31, 93
3, 172984, Note_off_c, 1, 31, 93
3, 172992, Note_on_c, 1, 36, 87
3, 173046, Note_off_c, 1, 36, 87
3, 173376, Note_on_c, 1, 36, 91
3, 173536, Note_off_c, 1, 36, 91
3, 173568, Note_on_c, 1, 29, 93
3, 173808, Note_off_c, 1, 29, 93
3, 173856, Note_on_c, 1, 33, 93
3, 173916, Note_off_c, 1, 33, 93
3, 174144, Note_on_c, 1, 38, 91
3, 174502, Note_off_c, 1, 38, 91
3, 174528, Note_on_c, 1, 36, 84
3, 174576, Note_off_c, 1, 36, 84
3, 174720, Note_on_c, 1, 38, 91
3, 174772, Note_off_c, 1, 38, 91
3, 174816, Note_on_c, 1, 36, 93
3, 174876, Note_off_c, 1, 36, 93
3, 174912, Note_on_c, 1, 33, 91
3, 174972, Note_off_c, 1, 33, 91
3, 175104, Note_on_c, 1, 34, 93
3, 175358, Note_off_c, 1, 34, 93
3, 175392, Note_on_c, 1, 33, 82
3, 175452, Note_off_c, 1, 33, 82
3, 175680, Note_on_c, 1, 31, 93
3, 176056, Note_off_c, 1, 31, 93
3, 176064, Note_on_c, 1, 36, 87
3, 176118, Note_off_c, 1, 36, 87
3, 176448, Note_on_c, 1, 36, 91
3, 176502, Note_off_c, 1, 36, 91
3, 176544, Note_on_c, 1, 31, 91
3, 176600, Note_off_c, 1, 31, 91
3, 176640, Note_on_c, 1, 29, 93
3, 176880, Note_off_c, 1, 29, 93
3, 176928, Note_on_c, 1, 33, 93
3, 176988, Note_off_c, 1, 33, 93
3, 177216, Note_on_c, 1, 38, 91
3, 177574, Note_off_c, 1, 38, 91
3, 177600, Note_on_c, 1, 36, 84
3, 177648, Note_off_c, 1, 36, 84
3, 177792, Note_on_c, 1, 38, 91
3, 177844, Note_off_c, 1, 38, 91
3, 177888, Note_on_c, 1, 36, 93
3, 177948, Note_off_c, 1, 36, 93
3, 177984, Note_on_c, 1, 33, 91
3, 178044, Note_off_c, 1, 33, 91
3, 178176, Note_on_c, 1, 34, 93
3, 178430, Note_off_c, 1, 34, 93
3, 178464, Note_on_c, 1, 33, 82
3, 178524, Note_off_c, 1, 33, 82
3, 178752, Note_on_c, 1, 31, 93
3, 179128, Note_off_c, 1, 31, 93
3, 179136, Note_on_c, 1, 36, 87
3, 179190, Note_off_c, 1, 36, 87
3, 179328, Note_on_c, 1, 36, 87
3, 179382, Note_off_c, 1, 36, 87
3, 179520, Note_on_c, 1, 36, 91
3, 179574, Note_off_c, 1, 36, 91
3, 179616, Note_on_c, 1, 36, 91
3, 179672, Note_off_c, 1, 36, 91
3, 179712, Note_on_c, 1, 29, 93
3, 179952, Note_off_c, 1, 29, 93
3, 180000, Note_on_c, 1, 33, 93
3, 180018, Control_c, 1, 11, 126
3, 180060, Note_off_c, 1, 33, 93
3, 180186, Control_c, 1, 11, 125
3, 180288, Note_on_c, 1, 38, 91
3, 180314, Control_c, 1, 11, 124
3, 180460, Control_c, 1, 11, 123
3, 180646, Note_off_c, 1, 38, 91
3, 180672, Note_on_c, 1, 36, 84
3, 180682, Control_c, 1, 11, 122
3, 180720, Note_off_c, 1, 36, 84
3, 180818, Control_c, 1, 11, 121
3, 180864, Note_on_c, 1, 38, 91
3, 180916, Note_off_c, 1, 38, 91
3, 180960, Note_on_c, 1, 36, 93
3, 180964, Control_c, 1, 11, 120
3, 181020, Note_off_c, 1, 36, 93
3, 181056, Note_on_c, 1, 33, 91
3, 181072, Control_c, 1, 11, 119
3, 181116, Note_off_c, 1, 33, 91
3, 181192, Control_c, 1, 11, 118
3, 181248, Note_on_c, 1, 34, 93
3, 181314, Control_c, 1, 11, 117
3, 181414, Control_c, 1, 11, 116
3, 181502, Note_off_c, 1, 34, 93
3, 181536, Note_on_c, 1, 33, 82
3, 181546, Control_c, 1, 11, 115
3, 181596, Note_off_c, 1, 33, 82
3, 181660, Control_c, 1, 11, 114
3, 181740, Control_c, 1, 11, 113
3, 181824, Note_on_c, 1, 31, 93
3, 181838, Control_c, 1, 11, 112
3, 181992, Control_c, 1, 11, 111
3, 182130, Control_c, 1, 11, 110
3, 182200, Note_off_c, 1, 31, 93
3, 182208, Note_on_c, 1, 36, 87
3, 182230, Control_c, 1, 11, 109
3, 182262, Note_off_c, 1, 36, 87
3, 182350, Control_c, 1, 11, 108
3, 182564, Control_c, 1, 11, 107
3, 182592, Note_on_c, 1, 36, 91
3, 182712, Control_c, 1, 11, 106
3, 182752, Note_off_c, 1, 36, 91
3, 182784, Note_on_c, 1, 29, 93
3, 182826, Control_c, 1, 11, 105
3, 182912, Control_c, 1, 11, 104
3, 183024, Note_off_c, 1, 29, 93
3, 183030, Control_c, 1, 11, 103
3, 183072, Note_on_c, 1, 33, 93
3, 183114, Control_c, 1, 11, 102
3, 183132, Note_off_c, 1, 33, 93
3, 183210, Control_c, 1, 11, 101
3, 183354, Control_c, 1, 11, 100
3, 183360, Note_on_c, 1, 38, 91
3, 183508, Control_c, 1, 11, 99
3, 183718, Note_off_c, 1, 38, 91
3, 183738, Control_c, 1, 11, 98
3, 183744, Note_on_c, 1, 36, 84
3, 183792, Note_off_c, 1, 36, 84
3, 183936, Note_on_c, 1, 38, 91
3, 183954, Control_c, 1, 11, 97
3, 183988, Note_off_c, 1, 38, 91
3, 184032, Note_on_c, 1, 36, 93
3, 184092, Note_off_c, 1, 36, 93
3, 184128, Note_on_c, 1, 33, 91
3, 184146, Control_c, 1, 11, 96
3, 184188, Note_off_c, 1, 33, 91
3, 184320, Note_on_c, 1, 34, 93
3, 184356, Control_c, 1, 11, 95
3, 184454, Control_c, 1, 11, 94
3, 184570, Control_c, 1, 11, 93
3, 184574, Note_off_c, 1, 34, 93
3, 184608, Note_on_c, 1, 33, 82
3, 184668, Note_off_c, 1, 33, 82
3, 184722, Control_c, 1, 11, 92
3, 184848, Control_c, 1, 11, 91
3, 184896, Note_on_c, 1, 31, 93
3, 185026, Control_c, 1, 11, 90
3, 185152, Control_c, 1, 11, 89
3, 185244, Control_c, 1, 11, 88
3, 185272, Note_off_c, 1, 31, 93
3, 185280, Note_on_c, 1, 36, 87
3, 185334, Note_off_c, 1, 36, 87
3, 185366, Control_c, 1, 11, 87
3, 185498, Control_c, 1, 11, 86
3, 185586, Control_c, 1, 11, 85
3, 185664, Note_on_c, 1, 36, 91
3, 185704, Control_c, 1, 11, 84
3, 185718, Note_off_c, 1, 36, 91
3, 185760, Note_on_c, 1, 41, 91
3, 185790, Control_c, 1, 11, 83
3, 185816, Note_off_c, 1, 41, 91
3, 185856, Note_on_c, 1, 29, 93
3, 185872, Control_c, 1, 11, 82
3, 186008, Control_c, 1, 11, 81
3, 186096, Note_off_c, 1, 29, 93
3, 186112, Control_c, 1, 11, 80
3, 186144, Note_on_c, 1, 33, 93
3, 186186, Control_c, 1, 11, 79
3, 186204, Note_off_c, 1, 33, 93
3, 186262, Control_c, 1, 11, 78
3, 186350, Control_c, 1, 11, 77
3, 186432, Note_on_c, 1, 38, 91
3, 186476, Control_c, 1, 11, 76
3, 186560, Control_c, 1, 11, 75
3, 186664, Control_c, 1, 11, 74
3, 186736, Control_c, 1, 11, 73
3, 186790, Note_off_c, 1, 38, 91
3, 186816, Note_on_c, 1, 36, 84
3, 186844, Control_c, 1, 11, 72
3, 186864, Note_off_c, 1, 36, 84
3, 186934, Control_c, 1, 11, 71
3, 187008, Note_on_c, 1, 38, 91
3, 187018, Control_c, 1, 11, 70
3, 187060, Note_off_c, 1, 38, 91
3, 187104, Note_on_c, 1, 36, 93
3, 187120, Control_c, 1, 11, 69
3, 187164, Note_off_c, 1, 36, 93
3, 187200, Note_on_c, 1, 33, 91
3, 187208, Control_c, 1, 11, 68
3, 187260, Note_off_c, 1, 33, 91
3, 187308, Control_c, 1, 11, 67
3, 187378, Control_c, 1, 11, 66
3, 187392, Note_on_c, 1, 34, 93
3, 187462, Control_c, 1, 11, 65
3, 187582, Control_c, 1, 11, 64
3, 187646, Note_off_c, 1, 34, 93
3, 187666, Control_c, 1, 11, 63
3, 187680, Note_on_c, 1, 33, 82
3, 187740, Note_off_c, 1, 33, 82
3, 187774, Control_c, 1, 11, 62
3, 187860, Control_c, 1, 11, 61
3, 187954, Control_c, 1, 11, 60
3, 187968, Note_on_c, 1, 31, 93
3, 188094, Control_c, 1, 11, 59
3, 188238, Control_c, 1, 11, 58
3, 188344, Note_off_c, 1, 31, 93
3, 188352, Note_on_c, 1, 36, 87
3, 188376, Control_c, 1, 11, 57
3, 188406, Note_off_c, 1, 36, 87
3, 188492, Control_c, 1, 11, 56
3, 188614, Control_c, 1, 11, 55
3, 188736, Note_on_c, 1, 36, 91
3, 188736, Control_c, 1, 11, 54
3, 188790, Note_off_c, 1, 36, 91
3, 188830, Control_c, 1, 11, 53
3, 188832, Note_on_c, 1, 41, 91
3, 188888, Note_off_c, 1, 41, 91
3, 188928, Note_on_c, 1, 29, 93
3, 188944, Control_c, 1, 11, 52
3, 189014, Control_c, 1, 11, 51
3, 189132, Control_c, 1, 11, 50
3, 189168, Note_off_c, 1, 29, 93
3, 189216, Note_on_c, 1, 33, 93
3, 189246, Control_c, 1, 11, 49
3, 189276, Note_off_c, 1, 33, 93
3, 189384, Control_c, 1, 11, 48
3, 189480, Control_c, 1, 11, 47
3, 189504, Note_on_c, 1, 38, 91
3, 189594, Control_c, 1, 11, 46
3, 189658, Control_c, 1, 11, 45
3, 189770, Control_c, 1, 11, 44
3, 189862, Note_off_c, 1, 38, 91
3, 189888, Note_on_c, 1, 36, 84
3, 189902, Control_c, 1, 11, 43
3, 189936, Note_off_c, 1, 36, 84
3, 190006, Control_c, 1, 11, 42
3, 190080, Note_on_c, 1, 38, 91
3, 190122, Control_c, 1, 11, 41
3, 190132, Note_off_c, 1, 38, 91
3, 190176, Note_on_c, 1, 36, 93
3, 190236, Note_off_c, 1, 36, 93
3, 190240, Control_c, 1, 11, 40
3, 190272, Note_on_c, 1, 33, 91
3, 190332, Note_off_c, 1, 33, 91
3, 190336, Control_c, 1, 11, 39
3, 190448, Control_c, 1, 11, 38
3, 190464, Note_on_c, 1, 34, 93
3, 190538, Control_c, 1, 11, 37
3, 190648, Control_c, 1, 11, 36
3, 190718, Note_off_c, 1, 34, 93
3, 190752, Note_on_c, 1, 33, 82
3, 190754, Control_c, 1, 11, 35
3, 190812, Note_off_c, 1, 33, 82
3, 190860, Control_c, 1, 11, 34
3, 190946, Control_c, 1, 11, 33
3, 191040, Note_on_c, 1, 31, 93
3, 191062, Control_c, 1, 11, 32
3, 191164, Control_c, 1, 11, 31
3, 191250, Control_c, 1, 11, 30
3, 191378, Control_c, 1, 11, 29
3, 191416, Note_off_c, 1, 31, 93
3, 191424, Note_on_c, 1, 36, 87
3, 191478, Note_off_c, 1, 36, 87
3, 191574, Control_c, 1, 11, 28
3, 191684, Control_c, 1, 11, 27
3, 191786, Control_c, 1, 11, 26
3, 191808, Note_on_c, 1, 36, 91
3, 191938, Control_c, 1, 11, 25
3, 191968, Note_off_c, 1, 36, 91
3, 192000, Note_on_c, 1, 29, 93
3, 192074, Control_c, 1, 11, 24
3, 192174, Control_c, 1, 11, 23
3, 192240, Note_off_c, 1, 29, 93
3, 192288, Note_on_c, 1, 33, 93
3, 192294, Control_c, 1, 11, 22
3, 192348, Note_off_c, 1, 33, 93
3, 192488, Control_c, 1, 11, 21
3, 192576, Note_on_c, 1, 38, 91
3, 192626, Control_c, 1, 11, 20
3, 192770, Control_c, 1, 11, 19
3, 192888, Control_c, 1, 11, 18
3, 192934, Note_off_c, 1, 38, 91
3, 192960, Note_on_c, 1, 36, 84
3, 193008, Note_off_c, 1, 36, 84
3, 193034, Control_c, 1, 11, 17
3, 193122, Control_c, 1, 11, 16
3, 193152, Note_on_c, 1, 38, 91
3, 193204, Note_off_c, 1, 38, 91
3, 193248, Note_on_c, 1, 36, 93
3, 193306, Control_c, 1, 11, 15
3, 193308, Note_off_c, 1, 36, 93
3, 193344, Note_on_c, 1, 33, 91
3, 193364, Control_c, 1, 11, 14
3, 193404, Note_off_c, 1, 33, 91
3, 193454, Control_c, 1, 11, 13
3, 193536, Note_on_c, 1, 34, 93
3, 193538, Control_c, 1, 11, 12
3, 193652, Control_c, 1, 11, 11
3, 193732, Control_c, 1, 11, 10
3, 193790, Note_off_c, 1, 34, 93
3, 193802, Control_c, 1, 11, 9
3, 193824, Note_on_c, 1, 33, 82
3, 193878, Control_c, 1, 11, 8
3, 193884, Note_off_c, 1, 33, 82
3, 193948, Control_c, 1, 11, 7
3, 194034, Control_c, 1, 11, 6
3, 194086, Control_c, 1, 11, 5
3, 194112, Note_on_c, 1, 31, 93
3, 194160, Control_c, 1, 11, 4
3, 194208, Control_c, 1, 11, 3
3, 194316, Control_c, 1, 11, 2
3, 194416, Control_c, 1, 11, 1
3, 194488, Note_off_c, 1, 31, 93
3, 194496, Note_on_c, 1, 36, 87
3, 194550, Note_off_c, 1, 36, 87
3, 194880, Note_on_c, 1, 36, 91
3, 194906, Control_c, 1, 11, 0
3, 194934, Note_off_c, 1, 36, 91
3, 194976, Note_on_c, 1, 41, 91
3, 195032, Note_off_c, 1, 41, 91
3, 196804, Control_c, 1, 121, 127
3, 196996, Control_c, 1, 7, 127
3, 197188, Control_c, 1, 10, 64
3, 198144, End_track
4, 0, Start_track
4, 1736, Control_c, 2, 121, 127
4, 1928, Control_c, 2, 0, 0
4, 2120, Program_c, 2, 26
4, 2312, Control_c, 2, 7, 100
4, 2504, Control_c, 2, 10, 64
4, 2696, Control_c, 2, 11, 127
4, 2888, Control_c, 2, 91, 100
4, 3080, Control_c, 2, 93, 0
4, 7684, Note_on_c, 2, 77, 100
4, 7786, Note_on_c, 2, 76, 64
4, 7798, Note_off_c, 2, 77, 100
4, 7832, Note_off_c, 2, 76, 64
4, 7838, Note_on_c, 2, 75, 52
4, 7868, Note_off_c, 2, 75, 52
4, 7874, Note_on_c, 2, 74, 46
4, 7914, Note_off_c, 2, 74, 46
4, 7968, Note_on_c, 2, 77, 85
4, 8070, Note_on_c, 2, 76, 49
4, 8082, Note_off_c, 2, 77, 85
4, 8116, Note_off_c, 2, 76, 49
4, 8122, Note_on_c, 2, 75, 37
4, 8152, Note_off_c, 2, 75, 37
4, 8158, Note_on_c, 2, 74, 31
4, 8198, Note_off_c, 2, 74, 31
4, 8256, Note_on_c, 2, 77, 70
4, 8358, Note_on_c, 2, 76, 34
4, 8370, Note_off_c, 2, 77, 70
4, 8404, Note_off_c, 2, 76, 34
4, 8410, Note_on_c, 2, 75, 22
4, 8440, Note_off_c, 2, 75, 22
4, 8446, Note_on_c, 2, 74, 16
4, 8486, Note_off_c, 2, 74, 16
4, 8544, Note_on_c, 2, 77, 55
4, 8646, Note_on_c, 2, 76, 19
4, 8658, Note_off_c, 2, 77, 55
4, 8692, Note_off_c, 2, 76, 19
4, 8698, Note_on_c, 2, 75, 7
4, 8728, Note_off_c, 2, 75, 7
4, 8734, Note_on_c, 2, 74, 1
4, 8774, Note_off_c, 2, 74, 1
4, 8832, Note_on_c, 2, 77, 40
4, 8934, Note_on_c, 2, 76, 19
4, 8946, Note_off_c, 2, 77, 40
4, 8980, Note_off_c, 2, 76, 19
4, 8986, Note_on_c, 2, 75, 7
4, 9016, Note_off_c, 2, 75, 7
4, 9022, Note_on_c, 2, 74, 1
4, 9062, Note_off_c, 2, 74, 1
4, 10752, Note_on_c, 2, 76, 100
4, 10854, Note_on_c, 2, 75, 64
4, 10866, Note_off_c, 2, 76, 100
4, 10900, Note_off_c, 2, 75, 64
4, 10906, Note_on_c, 2, 74, 52
4, 10936, Note_off_c, 2, 74, 52
4, 10942, Note_on_c, 2, 73, 46
4, 10982, Note_off_c, 2, 73, 46
4, 11036, Note_on_c, 2, 76, 85
4, 11138, Note_on_c, 2, 75, 49
4, 11150, Note_off_c, 2, 76, 85
4, 11184, Note_off_c, 2, 75, 49
4, 11190, Note_on_c, 2, 74, 37
4, 11220, Note_off_c, 2, 74, 37
4, 11226, Note_on_c, 2, 73, 31
4, 11266, Note_off_c, 2, 73, 31
4, 11324, Note_on_c, 2, 76, 70
4, 11426, Note_on_c, 2, 75, 34
4, 11438, Note_off_c, 2, 76, 70
4, 11472, Note_off_c, 2, 75, 34
4, 11478, Note_on_c, 2, 74, 22
4, 11508, Note_off_c, 2, 74, 22
4, 11514, Note_on_c, 2, 73, 16
4, 11554, Note_off_c, 2, 73, 16
4, 11612, Note_on_c, 2, 76, 55
4, 11714, Note_on_c, 2, 75, 19
4, 11726, Note_off_c, 2, 76, 55
4, 11760, Note_off_c, 2, 75, 19
4, 11766, Note_on_c, 2, 74, 7
4, 11796, Note_off_c, 2, 74, 7
4, 11802, Note_on_c, 2, 73, 1
4, 11842, Note_off_c, 2, 73, 1
4, 11900, Note_on_c, 2, 76, 40
4, 12002, Note_on_c, 2, 75, 19
4, 12014, Note_off_c, 2, 76, 40
4, 12048, Note_off_c, 2, 75, 19
4, 12054, Note_on_c, 2, 74, 7
4, 12084, Note_off_c, 2, 74, 7
4, 12090, Note_on_c, 2, 73, 1
4, 12130, Note_off_c, 2, 73, 1
4, 13828, Note_on_c, 2, 77, 100
4, 13930, Note_on_c, 2, 76, 64
4, 13942, Note_off_c, 2, 77, 100
4, 13976, Note_off_c, 2, 76, 64
4, 13982, Note_on_c, 2, 75, 52
4, 14012, Note_off_c, 2, 75, 52
4, 14018, Note_on_c, 2, 74, 46
4, 14058, Note_off_c, 2, 74, 46
4, 14112, Note_on_c, 2, 77, 85
4, 14214, Note_on_c, 2, 76, 49
4, 14226, Note_off_c, 2, 77, 85
4, 14260, Note_off_c, 2, 76, 49
4, 14266, Note_on_c, 2, 75, 37
4, 14296, Note_off_c, 2, 75, 37
4, 14302, Note_on_c, 2, 74, 31
4, 14342, Note_off_c, 2, 74, 31
4, 14400, Note_on_c, 2, 77, 70
4, 14502, Note_on_c, 2, 76, 34
4, 14514, Note_off_c, 2, 77, 70
4, 14548, Note_off_c, 2, 76, 34
4, 14554, Note_on_c, 2, 75, 22
4, 14584, Note_off_c, 2, 75, 22
4, 14590, Note_on_c, 2, 74, 16
4, 14630, Note_off_c, 2, 74, 16
4, 14688, Note_on_c, 2, 77, 55
4, 14790, Note_on_c, 2, 76, 19
4, 14802, Note_off_c, 2, 77, 55
4, 14836, Note_off_c, 2, 76, 19
4, 14842, Note_on_c, 2, 75, 7
4, 14872, Note_off_c, 2, 75, 7
4, 14878, Note_on_c, 2, 74, 1
4, 14918, Note_off_c, 2, 74, 1
4, 14976, Note_on_c, 2, 77, 40
4, 15078, Note_on_c, 2, 76, 19
4, 15090, Note_off_c, 2, 77, 40
4, 15124, Note_off_c, 2, 76, 19
4, 15130, Note_on_c, 2, 75, 7
4, 15160, Note_off_c, 2, 75, 7
4, 15166, Note_on_c, 2, 74, 1
4, 15206, Note_off_c, 2, 74, 1
4, 16896, Note_on_c, 2, 76, 100
4, 16998, Note_on_c, 2, 75, 64
4, 17010, Note_off_c, 2, 76, 100
4, 17044, Note_off_c, 2, 75, 64
4, 17050, Note_on_c, 2, 74, 52
4, 17080, Note_off_c, 2, 74, 52
4, 17086, Note_on_c, 2, 73, 46
4, 17126, Note_off_c, 2, 73, 46
4, 17180, Note_on_c, 2, 76, 85
4, 17282, Note_on_c, 2, 75, 49
4, 17294, Note_off_c, 2, 76, 85
4, 17328, Note_off_c, 2, 75, 49
4, 17334, Note_on_c, 2, 74, 37
4, 17364, Note_off_c, 2, 74, 37
4, 17370, Note_on_c, 2, 73, 31
4, 17410, Note_off_c, 2, 73, 31
4, 17468, Note_on_c, 2, 76, 70
4, 17570, Note_on_c, 2, 75, 34
4, 17582, Note_off_c, 2, 76, 70
4, 17616, Note_off_c, 2, 75, 34
4, 17622, Note_on_c, 2, 74, 22
4, 17652, Note_off_c, 2, 74, 22
4, 17658, Note_on_c, 2, 73, 16
4, 17698, Note_off_c, 2, 73, 16
4, 17756, Note_on_c, 2, 76, 55
4, 17858, Note_on_c, 2, 75, 19
4, 17870, Note_off_c, 2, 76, 55
4, 17904, Note_off_c, 2, 75, 19
4, 17910, Note_on_c, 2, 74, 7
4, 17940, Note_off_c, 2, 74, 7
4, 17946, Note_on_c, 2, 73, 1
4, 17986, Note_off_c, 2, 73, 1
4, 18044, Note_on_c, 2, 76, 40
4, 18146, Note_on_c, 2, 75, 19
4, 18158, Note_off_c, 2, 76, 40
4, 18192, Note_off_c, 2, 75, 19
4, 18198, Note_on_c, 2, 74, 7
4, 18228, Note_off_c, 2, 74, 7
4, 18234, Note_on_c, 2, 73, 1
4, 18274, Note_off_c, 2, 73, 1
4, 19972, Note_on_c, 2, 77, 100
4, 20074, Note_on_c, 2, 76, 64
4, 20086, Note_off_c, 2, 77, 100
4, 20120, Note_off_c, 2, 76, 64
4, 20126, Note_on_c, 2, 75, 52
4, 20156, Note_off_c, 2, 75, 52
4, 20162, Note_on_c, 2, 74, 46
4, 20202, Note_off_c, 2, 74, 46
4, 20256, Note_on_c, 2, 77, 85
4, 20358, Note_on_c, 2, 76, 49
4, 20370, Note_off_c, 2, 77, 85
4, 20404, Note_off_c, 2, 76, 49
4, 20410, Note_on_c, 2, 75, 37
4, 20440, Note_off_c, 2, 75, 37
4, 20446, Note_on_c, 2, 74, 31
4, 20486, Note_off_c, 2, 74, 31
4, 20544, Note_on_c, 2, 77, 70
4, 20646, Note_on_c, 2, 76, 34
4, 20658, Note_off_c, 2, 77, 70
4, 20692, Note_off_c, 2, 76, 34
4, 20698, Note_on_c, 2, 75, 22
4, 20728, Note_off_c, 2, 75, 22
4, 20734, Note_on_c, 2, 74, 16
4, 20774, Note_off_c, 2, 74, 16
4, 20832, Note_on_c, 2, 77, 55
4, 20934, Note_on_c, 2, 76, 19
4, 20946, Note_off_c, 2, 77, 55
4, 20980, Note_off_c, 2, 76, 19
4, 20986, Note_on_c, 2, 75, 7
4, 21016, Note_off_c, 2, 75, 7
4, 21022, Note_on_c, 2, 74, 1
4, 21062, Note_off_c, 2, 74, 1
4, 21120, Note_on_c, 2, 77, 40
4, 21222, Note_on_c, 2, 76, 19
4, 21234, Note_off_c, 2, 77, 40
4, 21268, Note_off_c, 2, 76, 19
4, 21274, Note_on_c, 2, 75, 7
4, 21304, Note_off_c, 2, 75, 7
4, 21310, Note_on_c, 2, 74, 1
4, 21350, Note_off_c, 2, 74, 1
4, 23040, Note_on_c, 2, 76, 100
4, 23142, Note_on_c, 2, 75, 64
4, 23154, Note_off_c, 2, 76, 100
4, 23188, Note_off_c, 2, 75, 64
4, 23194, Note_on_c, 2, 74, 52
4, 23224, Note_off_c, 2, 74, 52
4, 23230, Note_on_c, 2, 73, 46
4, 23270, Note_off_c, 2, 73, 46
4, 23324, Note_on_c, 2, 76, 85
4, 23426, Note_on_c, 2, 75, 49
4, 23438, Note_off_c, 2, 76, 85
4, 23472, Note_off_c, 2, 75, 49
4, 23478, Note_on_c, 2, 74, 37
4, 23508, Note_off_c, 2, 74, 37
4, 23514, Note_on_c, 2, 73, 31
4, 23554, Note_off_c, 2, 73, 31
4, 23612, Note_on_c, 2, 76, 70
4, 23714, Note_on_c, 2, 75, 34
4, 23726, Note_off_c, 2, 76, 70
4, 23760, Note_off_c, 2, 75, 34
4, 23766, Note_on_c, 2, 74, 22
4, 23796, Note_off_c, 2, 74, 22
4, 23802, Note_on_c, 2, 73, 16
4, 23842, Note_off_c, 2, 73, 16
4, 23900, Note_on_c, 2, 76, 55
4, 24002, Note_on_c, 2, 75, 19
4, 24014, Note_off_c, 2, 76, 55
4, 24048, Note_off_c, 2, 75, 19
4, 24054, Note_on_c, 2, 74, 7
4, 24084, Note_off_c, 2, 74, 7
4, 24090, Note_on_c, 2, 73, 1
4, 24130, Note_off_c, 2, 73, 1
4, 24192, Note_on_c, 2, 74, 100
4, 24294, Note_on_c, 2, 73, 64
4, 24306, Note_off_c, 2, 74, 100
4, 24340, Note_off_c, 2, 73, 64
4, 24346, Note_on_c, 2, 72, 52
4, 24376, Note_off_c, 2, 72, 52
4, 24382, Note_on_c, 2, 71, 46
4, 24422, Note_off_c, 2, 71, 46
4, 24480, Note_on_c, 2, 74, 85
4, 24582, Note_on_c, 2, 73, 49
4, 24594, Note_off_c, 2, 74, 85
4, 24628, Note_off_c, 2, 73, 49
4, 24634, Note_on_c, 2, 72, 37
4, 24664, Note_off_c, 2, 72, 37
4, 24670, Note_on_c, 2, 71, 31
4, 24710, Note_off_c, 2, 71, 31
4, 24768, Note_on_c, 2, 74, 70
4, 24870, Note_on_c, 2, 73, 34
4, 24882, Note_off_c, 2, 74, 70
4, 24916, Note_off_c, 2, 73, 34
4, 24922, Note_on_c, 2, 72, 22
4, 24952, Note_off_c, 2, 72, 22
4, 24958, Note_on_c, 2, 71, 16
4, 24998, Note_off_c, 2, 71, 16
4, 25056, Note_on_c, 2, 74, 55
4, 25158, Note_on_c, 2, 73, 19
4, 25170, Note_off_c, 2, 74, 55
4, 25204, Note_off_c, 2, 73, 19
4, 25210, Note_on_c, 2, 72, 7
4, 25240, Note_off_c, 2, 72, 7
4, 25246, Note_on_c, 2, 71, 1
4, 25286, Note_off_c, 2, 71, 1
4, 26116, Note_on_c, 2, 77, 100
4, 26218, Note_on_c, 2, 76, 64
4, 26230, Note_off_c, 2, 77, 100
4, 26264, Note_off_c, 2, 76, 64
4, 26270, Note_on_c, 2, 75, 52
4, 26300, Note_off_c, 2, 75, 52
4, 26306, Note_on_c, 2, 74, 46
4, 26346, Note_off_c, 2, 74, 46
4, 26400, Note_on_c, 2, 77, 85
4, 26502, Note_on_c, 2, 76, 49
4, 26514, Note_off_c, 2, 77, 85
4, 26548, Note_off_c, 2, 76, 49
4, 26554, Note_on_c, 2, 75, 37
4, 26584, Note_off_c, 2, 75, 37
4, 26590, Note_on_c, 2, 74, 31
4, 26630, Note_off_c, 2, 74, 31
4, 26688, Note_on_c, 2, 77, 70
4, 26790, Note_on_c, 2, 76, 34
4, 26802, Note_off_c, 2, 77, 70
4, 26836, Note_off_c, 2, 76, 34
4, 26842, Note_on_c, 2, 75, 22
4, 26872, Note_off_c, 2, 75, 22
4, 26878, Note_on_c, 2, 74, 16
4, 26918, Note_off_c, 2, 74, 16
4, 26976, Note_on_c, 2, 77, 55
4, 27078, Note_on_c, 2, 76, 19
4, 27090, Note_off_c, 2, 77, 55
4, 27124, Note_off_c, 2, 76, 19
4, 27130, Note_on_c, 2, 75, 7
4, 27160, Note_off_c, 2, 75, 7
4, 27166, Note_on_c, 2, 74, 1
4, 27206, Note_off_c, 2, 74, 1
4, 27264, Note_on_c, 2, 77, 40
4, 27366, Note_on_c, 2, 76, 19
4, 27378, Note_off_c, 2, 77, 40
4, 27412, Note_off_c, 2, 76, 19
4, 27418, Note_on_c, 2, 75, 7
4, 27448, Note_off_c, 2, 75, 7
4, 27454, Note_on_c, 2, 74, 1
4, 27494, Note_off_c, 2, 74, 1
4, 133636, Note_on_c, 2, 77, 100
4, 133738, Note_on_c, 2, 76, 64
4, 133750, Note_off_c, 2, 77, 100
4, 133784, Note_off_c, 2, 76, 64
4, 133790, Note_on_c, 2, 75, 52
4, 133820, Note_off_c, 2, 75, 52
4, 133826, Note_on_c, 2, 74, 46
4, 133866, Note_off_c, 2, 74, 46
4, 133920, Note_on_c, 2, 77, 85
4, 134022, Note_on_c, 2, 76, 49
4, 134034, Note_off_c, 2, 77, 85
4, 134068, Note_off_c, 2, 76, 49
4, 134074, Note_on_c, 2, 75, 37
4, 134104, Note_off_c, 2, 75, 37
4, 134110, Note_on_c, 2, 74, 31
4, 134150, Note_off_c, 2, 74, 31
4, 134208, Note_on_c, 2, 77, 70
4, 134310, Note_on_c, 2, 76, 34
4, 134322, Note_off_c, 2, 77, 70
4, 134356, Note_off_c, 2, 76, 34
4, 134362, Note_on_c, 2, 75, 22
4, 134392, Note_off_c, 2, 75, 22
4, 134398, Note_on_c, 2, 74, 16
4, 134438, Note_off_c, 2, 74, 16
4, 134496, Note_on_c, 2, 77, 55
4, 134598, Note_on_c, 2, 76, 19
4, 134610, Note_off_c, 2, 77, 55
4, 134644, Note_off_c, 2, 76, 19
4, 134650, Note_on_c, 2, 75, 7
4, 134680, Note_off_c, 2, 75, 7
4, 134686, Note_on_c, 2, 74, 1
4, 134726, Note_off_c, 2, 74, 1
4, 134784, Note_on_c, 2, 77, 40
4, 134886, Note_on_c, 2, 76, 19
4, 134898, Note_off_c, 2, 77, 40
4, 134932, Note_off_c, 2, 76, 19
4, 134938, Note_on_c, 2, 75, 7
4, 134968, Note_off_c, 2, 75, 7
4, 134974, Note_on_c, 2, 74, 1
4, 135014, Note_off_c, 2, 74, 1
4, 136704, Note_on_c, 2, 76, 100
4, 136806, Note_on_c, 2, 75, 64
4, 136818, Note_off_c, 2, 76, 100
4, 136852, Note_off_c, 2, 75, 64
4, 136858, Note_on_c, 2, 74, 52
4, 136888, Note_off_c, 2, 74, 52
4, 136894, Note_on_c, 2, 73, 46
4, 136934, Note_off_c, 2, 73, 46
4, 136988, Note_on_c, 2, 76, 85
4, 137090, Note_on_c, 2, 75, 49
4, 137102, Note_off_c, 2, 76, 85
4, 137136, Note_off_c, 2, 75, 49
4, 137142, Note_on_c, 2, 74, 37
4, 137172, Note_off_c, 2, 74, 37
4, 137178, Note_on_c, 2, 73, 31
4, 137218, Note_off_c, 2, 73, 31
4, 137276, Note_on_c, 2, 76, 70
4, 137378, Note_on_c, 2, 75, 34
4, 137390, Note_off_c, 2, 76, 70
4, 137424, Note_off_c, 2, 75, 34
4, 137430, Note_on_c, 2, 74, 22
4, 137460, Note_off_c, 2, 74, 22
4, 137466, Note_on_c, 2, 73, 16
4, 137506, Note_off_c, 2, 73, 16
4, 137564, Note_on_c, 2, 76, 55
4, 137666, Note_on_c, 2, 75, 19
4, 137678, Note_off_c, 2, 76, 55
4, 137712, Note_off_c, 2, 75, 19
4, 137718, Note_on_c, 2, 74, 7
4, 137748, Note_off_c, 2, 74, 7
4, 137754, Note_on_c, 2, 73, 1
4, 137794, Note_off_c, 2, 73, 1
4, 137852, Note_on_c, 2, 76, 40
4, 137954, Note_on_c, 2, 75, 19
4, 137966, Note_off_c, 2, 76, 40
4, 138000, Note_off_c, 2, 75, 19
4, 138006, Note_on_c, 2, 74, 7
4, 138036, Note_off_c, 2, 74, 7
4, 138042, Note_on_c, 2, 73, 1
4, 138082, Note_off_c, 2, 73, 1
4, 139780, Note_on_c, 2, 77, 100
4, 139882, Note_on_c, 2, 76, 64
4, 139894, Note_off_c, 2, 77, 100
4, 139928, Note_off_c, 2, 76, 64
4, 139934, Note_on_c, 2, 75, 52
4, 139964, Note_off_c, 2, 75, 52
4, 139970, Note_on_c, 2, 74, 46
4, 140010, Note_off_c, 2, 74, 46
4, 140064, Note_on_c, 2, 77, 85
4, 140166, Note_on_c, 2, 76, 49
4, 140178, Note_off_c, 2, 77, 85
4, 140212, Note_off_c, 2, 76, 49
4, 140218, Note_on_c, 2, 75, 37
4, 140248, Note_off_c, 2, 75, 37
4, 140254, Note_on_c, 2, 74, 31
4, 140294, Note_off_c, 2, 74, 31
4, 140352, Note_on_c, 2, 77, 70
4, 140454, Note_on_c, 2, 76, 34
4, 140466, Note_off_c, 2, 77, 70
4, 140500, Note_off_c, 2, 76, 34
4, 140506, Note_on_c, 2, 75, 22
4, 140536, Note_off_c, 2, 75, 22
4, 140542, Note_on_c, 2, 74, 16
4, 140582, Note_off_c, 2, 74, 16
4, 140640, Note_on_c, 2, 77, 55
4, 140742, Note_on_c, 2, 76, 19
4, 140754, Note_off_c, 2, 77, 55
4, 140788, Note_off_c, 2, 76, 19
4, 140794, Note_on_c, 2, 75, 7
4, 140824, Note_off_c, 2, 75, 7
4, 140830, Note_on_c, 2, 74, 1
4, 140870, Note_off_c, 2, 74, 1
4, 140928, Note_on_c, 2, 77, 40
4, 141030, Note_on_c, 2, 76, 19
4, 141042, Note_off_c, 2, 77, 40
4, 141076, Note_off_c, 2, 76, 19
4, 141082, Note_on_c, 2, 75, 7
4, 141112, Note_off_c, 2, 75, 7
4, 141118, Note_on_c, 2, 74, 1
4, 141158, Note_off_c, 2, 74, 1
4, 142848, Note_on_c, 2, 76, 100
4, 142950, Note_on_c, 2, 75, 64
4, 142962, Note_off_c, 2, 76, 100
4, 142996, Note_off_c, 2, 75, 64
4, 143002, Note_on_c, 2, 74, 52
4, 143032, Note_off_c, 2, 74, 52
4, 143038, Note_on_c, 2, 73, 46
4, 143078, Note_off_c, 2, 73, 46
4, 143132, Note_on_c, 2, 76, 85
4, 143234, Note_on_c, 2, 75, 49
4, 143246, Note_off_c, 2, 76, 85
4, 143280, Note_off_c, 2, 75, 49
4, 143286, Note_on_c, 2, 74, 37
4, 143316, Note_off_c, 2, 74, 37
4, 143322, Note_on_c, 2, 73, 31
4, 143362, Note_off_c, 2, 73, 31
4, 143420, Note_on_c, 2, 76, 70
4, 143522, Note_on_c, 2, 75, 34
4, 143534, Note_off_c, 2, 76, 70
4, 143568, Note_off_c, 2, 75, 34
4, 143574, Note_on_c, 2, 74, 22
4, 143604, Note_off_c, 2, 74, 22
4, 143610, Note_on_c, 2, 73, 16
4, 143650, Note_off_c, 2, 73, 16
4, 143708, Note_on_c, 2, 76, 55
4, 143810, Note_on_c, 2, 75, 19
4, 143822, Note_off_c, 2, 76, 55
4, 143856, Note_off_c, 2, 75, 19
4, 143862, Note_on_c, 2, 74, 7
4, 143892, Note_off_c, 2, 74, 7
4, 143898, Note_on_c, 2, 73, 1
4, 143938, Note_off_c, 2, 73, 1
4, 143996, Note_on_c, 2, 76, 40
4, 144098, Note_on_c, 2, 75, 19
4, 144110, Note_off_c, 2, 76, 40
4, 144144, Note_off_c, 2, 75, 19
4, 144150, Note_on_c, 2, 74, 7
4, 144180, Note_off_c, 2, 74, 7
4, 144186, Note_on_c, 2, 73, 1
4, 144226, Note_off_c, 2, 73, 1
4, 180020, Control_c, 2, 11, 126
4, 180188, Control_c, 2, 11, 125
4, 180316, Control_c, 2, 11, 124
4, 180462, Control_c, 2, 11, 123
4, 180684, Control_c, 2, 11, 122
4, 180820, Control_c, 2, 11, 121
4, 180966, Control_c, 2, 11, 120
4, 181074, Control_c, 2, 11, 119
4, 181194, Control_c, 2, 11, 118
4, 181316, Control_c, 2, 11, 117
4, 181416, Control_c, 2, 11, 116
4, 181548, Control_c, 2, 11, 115
4, 181662, Control_c, 2, 11, 114
4, 181742, Control_c, 2, 11, 113
4, 181840, Control_c, 2, 11, 112
4, 181994, Control_c, 2, 11, 111
4, 182132, Control_c, 2, 11, 110
4, 182232, Control_c, 2, 11, 109
4, 182352, Control_c, 2, 11, 108
4, 182566, Control_c, 2, 11, 107
4, 182714, Control_c, 2, 11, 106
4, 182828, Control_c, 2, 11, 105
4, 182914, Control_c, 2, 11, 104
4, 183032, Control_c, 2, 11, 103
4, 183116, Control_c, 2, 11, 102
4, 183212, Control_c, 2, 11, 101
4, 183356, Control_c, 2, 11, 100
4, 183510, Control_c, 2, 11, 99
4, 183740, Control_c, 2, 11, 98
4, 183956, Control_c, 2, 11, 97
4, 184148, Control_c, 2, 11, 96
4, 184358, Control_c, 2, 11, 95
4, 184456, Control_c, 2, 11, 94
4, 184572, Control_c, 2, 11, 93
4, 184724, Control_c, 2, 11, 92
4, 184850, Control_c, 2, 11, 91
4, 185028, Control_c, 2, 11, 90
4, 185154, Control_c, 2, 11, 89
4, 185246, Control_c, 2, 11, 88
4, 185368, Control_c, 2, 11, 87
4, 185500, Control_c, 2, 11, 86
4, 185588, Control_c, 2, 11, 85
4, 185706, Control_c, 2, 11, 84
4, 185792, Control_c, 2, 11, 83
4, 185874, Control_c, 2, 11, 82
4, 186010, Control_c, 2, 11, 81
4, 186114, Control_c, 2, 11, 80
4, 186188, Control_c, 2, 11, 79
4, 186264, Control_c, 2, 11, 78
4, 186352, Control_c, 2, 11, 77
4, 186478, Control_c, 2, 11, 76
4, 186562, Control_c, 2, 11, 75
4, 186666, Control_c, 2, 11, 74
4, 186738, Control_c, 2, 11, 73
4, 186846, Control_c, 2, 11, 72
4, 186936, Control_c, 2, 11, 71
4, 187020, Control_c, 2, 11, 70
4, 187122, Control_c, 2, 11, 69
4, 187210, Control_c, 2, 11, 68
4, 187310, Control_c, 2, 11, 67
4, 187380, Control_c, 2, 11, 66
4, 187464, Control_c, 2, 11, 65
4, 187584, Control_c, 2, 11, 64
4, 187668, Control_c, 2, 11, 63
4, 187776, Control_c, 2, 11, 62
4, 187862, Control_c, 2, 11, 61
4, 187956, Control_c, 2, 11, 60
4, 188096, Control_c, 2, 11, 59
4, 188240, Control_c, 2, 11, 58
4, 188378, Control_c, 2, 11, 57
4, 188494, Control_c, 2, 11, 56
4, 188616, Control_c, 2, 11, 55
4, 188738, Control_c, 2, 11, 54
4, 188832, Control_c, 2, 11, 53
4, 188946, Control_c, 2, 11, 52
4, 189016, Control_c, 2, 11, 51
4, 189134, Control_c, 2, 11, 50
4, 189248, Control_c, 2, 11, 49
4, 189386, Control_c, 2, 11, 48
4, 189482, Control_c, 2, 11, 47
4, 189596, Control_c, 2, 11, 46
4, 189660, Control_c, 2, 11, 45
4, 189772, Control_c, 2, 11, 44
4, 189904, Control_c, 2, 11, 43
4, 190008, Control_c, 2, 11, 42
4, 190124, Control_c, 2, 11, 41
4, 190242, Control_c, 2, 11, 40
4, 190338, Control_c, 2, 11, 39
4, 190450, Control_c, 2, 11, 38
4, 190540, Control_c, 2, 11, 37
4, 190650, Control_c, 2, 11, 36
4, 190756, Control_c, 2, 11, 35
4, 190862, Control_c, 2, 11, 34
4, 190948, Control_c, 2, 11, 33
4, 191064, Control_c, 2, 11, 32
4, 191166, Control_c, 2, 11, 31
4, 191252, Control_c, 2, 11, 30
4, 191380, Control_c, 2, 11, 29
4, 191576, Control_c, 2, 11, 28
4, 191686, Control_c, 2, 11, 27
4, 191788, Control_c, 2, 11, 26
4, 191940, Control_c, 2, 11, 25
4, 192076, Control_c, 2, 11, 24
4, 192176, Control_c, 2, 11, 23
4, 192296, Control_c, 2, 11, 22
4, 192490, Control_c, 2, 11, 21
4, 192628, Control_c, 2, 11, 20
4, 192772, Control_c, 2, 11, 19
4, 192890, Control_c, 2, 11, 18
4, 193036, Control_c, 2, 11, 17
4, 193124, Control_c, 2, 11, 16
4, 193308, Control_c, 2, 11, 15
4, 193366, Control_c, 2, 11, 14
4, 193456, Control_c, 2, 11, 13
4, 193540, Control_c, 2, 11, 12
4, 193654, Control_c, 2, 11, 11
4, 193734, Control_c, 2, 11, 10
4, 193804, Control_c, 2, 11, 9
4, 193880, Control_c, 2, 11, 8
4, 193950, Control_c, 2, 11, 7
4, 194036, Control_c, 2, 11, 6
4, 194088, Control_c, 2, 11, 5
4, 194162, Control_c, 2, 11, 4
4, 194210, Control_c, 2, 11, 3
4, 194318, Control_c, 2, 11, 2
4, 194418, Control_c, 2, 11, 1
4, 194908, Control_c, 2, 11, 0
4, 196808, Control_c, 2, 121, 127
4, 197000, Control_c, 2, 7, 127
4, 197192, Control_c, 2, 10, 64
4, 198144, End_track
5, 0, Start_track
5, 1740, Control_c, 3, 121, 127
5, 1932, Control_c, 3, 0, 0
5, 2124, Program_c, 3, 65
5, 2316, Control_c, 3, 7, 127
5, 2508, Control_c, 3, 10, 64
5, 2700, Control_c, 3, 11, 127
5, 2892, Control_c, 3, 91, 100
5, 3084, Control_c, 3, 93, 0
5, 29182, Note_on_c, 3, 60, 100
5, 29650, Control_c, 3, 1, 1
5, 29788, Control_c, 3, 1, 2
5, 29806, Control_c, 3, 1, 3
5, 29826, Control_c, 3, 1, 4
5, 29842, Control_c, 3, 1, 5
5, 29860, Control_c, 3, 1, 6
5, 29872, Control_c, 3, 1, 8
5, 29898, Control_c, 3, 1, 9
5, 29914, Control_c, 3, 1, 10
5, 29926, Control_c, 3, 1, 11
5, 29940, Control_c, 3, 1, 12
5, 29958, Control_c, 3, 1, 13
5, 29982, Control_c, 3, 1, 14
5, 30008, Control_c, 3, 1, 15
5, 30026, Control_c, 3, 1, 16
5, 30046, Control_c, 3, 1, 17
5, 30074, Control_c, 3, 1, 18
5, 30096, Control_c, 3, 1, 19
5, 30124, Control_c, 3, 1, 20
5, 30150, Control_c, 3, 1, 21
5, 30184, Control_c, 3, 1, 22
5, 30228, Control_c, 3, 1, 23
5, 30270, Control_c, 3, 1, 24
5, 30442, Control_c, 3, 1, 25
5, 30468, Control_c, 3, 1, 26
5, 30502, Control_c, 3, 1, 27
5, 30532, Control_c, 3, 1, 28
5, 30572, Control_c, 3, 1, 29
5, 30638, Control_c, 3, 1, 30
5, 30662, Control_c, 3, 1, 31
5, 30800, Control_c, 3, 1, 30
5, 30812, Control_c, 3, 1, 29
5, 30828, Control_c, 3, 1, 27
5, 30840, Control_c, 3, 1, 25
5, 30858, Control_c, 3, 1, 22
5, 30876, Control_c, 3, 1, 16
5, 30894, Control_c, 3, 1, 11
5, 30902, Note_on_c, 3, 62, 100
5, 30914, Control_c, 3, 1, 7
5, 30916, Note_off_c, 3, 60, 100
5, 30930, Control_c, 3, 1, 3
5, 30948, Control_c, 3, 1, 1
5, 31058, Control_c, 3, 1, 0
5, 31076, Note_off_c, 3, 62, 100
5, 31096, Note_on_c, 3, 65, 109
5, 31298, Control_c, 3, 1, 1
5, 31358, Control_c, 3, 1, 2
5, 31364, Control_c, 3, 1, 6
5, 31382, Control_c, 3, 1, 12
5, 31398, Control_c, 3, 1, 18
5, 31420, Control_c, 3, 1, 22
5, 31436, Control_c, 3, 1, 29
5, 31452, Control_c, 3, 1, 38
5, 31470, Control_c, 3, 1, 44
5, 31488, Control_c, 3, 1, 50
5, 31510, Control_c, 3, 1, 55
5, 31532, Control_c, 3, 1, 56
5, 31574, Control_c, 3, 1, 55
5, 31578, Control_c, 3, 1, 50
5, 31596, Control_c, 3, 1, 44
5, 31616, Control_c, 3, 1, 34
5, 31636, Control_c, 3, 1, 15
5, 31646, Note_off_c, 3, 65, 109
5, 31654, Note_on_c, 3, 67, 109
5, 31656, Control_c, 3, 1, 0
5, 31844, Note_off_c, 3, 67, 109
5, 31854, Note_on_c, 3, 69, 100
5, 32026, Note_off_c, 3, 69, 100
5, 32038, Note_on_c, 3, 70, 82
5, 32220, Note_off_c, 3, 70, 82
5, 32238, Note_on_c, 3, 72, 100
5, 32668, Control_c, 3, 1, 1
5, 32744, Control_c, 3, 1, 2
5, 32752, Control_c, 3, 1, 4
5, 32788, Control_c, 3, 1, 6
5, 32814, Control_c, 3, 1, 7
5, 32832, Control_c, 3, 1, 8
5, 32858, Control_c, 3, 1, 9
5, 32886, Control_c, 3, 1, 10
5, 32906, Control_c, 3, 1, 11
5, 32920, Control_c, 3, 1, 12
5, 32942, Control_c, 3, 1, 13
5, 32956, Control_c, 3, 1, 14
5, 32974, Control_c, 3, 1, 15
5, 32988, Control_c, 3, 1, 16
5, 33006, Control_c, 3, 1, 17
5, 33038, Control_c, 3, 1, 18
5, 33058, Control_c, 3, 1, 19
5, 33080, Control_c, 3, 1, 20
5, 33234, Control_c, 3, 1, 18
5, 33258, Control_c, 3, 1, 16
5, 33276, Control_c, 3, 1, 15
5, 33288, Control_c, 3, 1, 12
5, 33310, Control_c, 3, 1, 10
5, 33328, Control_c, 3, 1, 8
5, 33346, Control_c, 3, 1, 6
5, 33362, Control_c, 3, 1, 4
5, 33386, Control_c, 3, 1, 3
5, 33400, Control_c, 3, 1, 1
5, 33516, Control_c, 3, 1, 0
5, 33598, Note_off_c, 3, 72, 100
5, 33748, Pitch_bend_c, 3, 7168
5, 33752, Pitch_bend_c, 3, 1920
5, 33768, Pitch_bend_c, 3, 256
5, 33778, Note_on_c, 3, 74, 91
5, 33782, Pitch_bend_c, 3, 0
5, 33822, Control_c, 3, 1, 1
5, 33828, Pitch_bend_c, 3, 640
5, 33830, Control_c, 3, 1, 5
5, 33834, Pitch_bend_c, 3, 2176
5, 33850, Pitch_bend_c, 3, 2944
5, 33864, Pitch_bend_c, 3, 3328
5, 33868, Control_c, 3, 1, 2
5, 33876, Pitch_bend_c, 3, 5248
5, 33882, Control_c, 3, 1, 1
5, 33890, Pitch_bend_c, 3, 7808
5, 33908, Pitch_bend_c, 3, 8192
5, 34032, Control_c, 3, 1, 0
5, 34056, Note_off_c, 3, 74, 91
5, 34064, Note_on_c, 3, 72, 82
5, 34158, Note_off_c, 3, 72, 82
5, 34168, Note_on_c, 3, 69, 91
5, 34384, Control_c, 3, 1, 1
5, 34448, Control_c, 3, 1, 4
5, 34466, Control_c, 3, 1, 6
5, 34482, Control_c, 3, 1, 8
5, 34494, Control_c, 3, 1, 13
5, 34512, Control_c, 3, 1, 18
5, 34530, Control_c, 3, 1, 25
5, 34550, Control_c, 3, 1, 30
5, 34568, Control_c, 3, 1, 35
5, 34588, Control_c, 3, 1, 39
5, 34602, Control_c, 3, 1, 42
5, 34620, Control_c, 3, 1, 44
5, 34640, Control_c, 3, 1, 46
5, 34662, Control_c, 3, 1, 48
5, 34678, Control_c, 3, 1, 50
5, 34696, Control_c, 3, 1, 52
5, 34712, Control_c, 3, 1, 54
5, 34732, Control_c, 3, 1, 55
5, 34752, Control_c, 3, 1, 56
5, 34774, Control_c, 3, 1, 54
5, 34786, Control_c, 3, 1, 52
5, 34800, Control_c, 3, 1, 48
5, 34820, Control_c, 3, 1, 43
5, 34838, Control_c, 3, 1, 36
5, 34864, Control_c, 3, 1, 30
5, 34872, Control_c, 3, 1, 2
5, 34894, Control_c, 3, 1, 0
5, 34934, Note_off_c, 3, 69, 91
5, 35138, Note_on_c, 3, 67, 109
5, 35196, Note_off_c, 3, 67, 109
5, 35326, Note_on_c, 3, 69, 100
5, 35362, Control_c, 3, 1, 9
5, 35376, Control_c, 3, 1, 24
5, 35400, Control_c, 3, 1, 32
5, 35414, Control_c, 3, 1, 37
5, 35430, Control_c, 3, 1, 41
5, 35452, Control_c, 3, 1, 44
5, 35478, Control_c, 3, 1, 45
5, 35484, Control_c, 3, 1, 47
5, 35546, Control_c, 3, 1, 45
5, 35566, Control_c, 3, 1, 41
5, 35576, Control_c, 3, 1, 34
5, 35594, Control_c, 3, 1, 21
5, 35614, Control_c, 3, 1, 5
5, 35628, Note_off_c, 3, 69, 100
5, 35628, Control_c, 3, 1, 0
5, 35646, Note_on_c, 3, 67, 100
5, 35696, Note_off_c, 3, 67, 100
5, 35898, Note_on_c, 3, 69, 100
5, 36016, Pitch_bend_c, 3, 7552
5, 36018, Pitch_bend_c, 3, 5888
5, 36032, Pitch_bend_c, 3, 4096
5, 36050, Pitch_bend_c, 3, 3456
5, 36074, Pitch_bend_c, 3, 4352
5, 36092, Pitch_bend_c, 3, 5120
5, 36102, Pitch_bend_c, 3, 5888
5, 36116, Pitch_bend_c, 3, 6912
5, 36130, Pitch_bend_c, 3, 7808
5, 36144, Pitch_bend_c, 3, 8192
5, 36418, Control_c, 3, 1, 1
5, 36456, Control_c, 3, 1, 5
5, 36476, Control_c, 3, 1, 8
5, 36494, Control_c, 3, 1, 10
5, 36516, Control_c, 3, 1, 12
5, 36532, Control_c, 3, 1, 13
5, 36548, Control_c, 3, 1, 16
5, 36566, Control_c, 3, 1, 22
5, 36582, Control_c, 3, 1, 26
5, 36602, Control_c, 3, 1, 30
5, 36618, Control_c, 3, 1, 34
5, 36638, Control_c, 3, 1, 37
5, 36654, Control_c, 3, 1, 40
5, 36672, Control_c, 3, 1, 42
5, 36690, Control_c, 3, 1, 47
5, 36716, Control_c, 3, 1, 51
5, 36728, Control_c, 3, 1, 55
5, 36746, Control_c, 3, 1, 58
5, 36766, Control_c, 3, 1, 60
5, 36808, Control_c, 3, 1, 58
5, 36818, Control_c, 3, 1, 46
5, 36834, Control_c, 3, 1, 1
5, 36854, Note_off_c, 3, 69, 100
5, 36854, Control_c, 3, 1, 0
5, 37608, Note_on_c, 3, 65, 109
5, 37622, Control_c, 3, 1, 1
5, 37632, Control_c, 3, 1, 10
5, 37644, Control_c, 3, 1, 30
5, 37664, Control_c, 3, 1, 41
5, 37680, Control_c, 3, 1, 44
5, 37708, Control_c, 3, 1, 42
5, 37716, Control_c, 3, 1, 31
5, 37736, Control_c, 3, 1, 19
5, 37752, Control_c, 3, 1, 1
5, 37780, Control_c, 3, 1, 0
5, 37784, Note_off_c, 3, 65, 109
5, 37822, Note_on_c, 3, 65, 82
5, 37882, Note_off_c, 3, 65, 82
5, 37910, Note_on_c, 3, 62, 91
5, 37962, Note_off_c, 3, 62, 91
5, 37972, Control_c, 3, 1, 2
5, 37986, Control_c, 3, 1, 22
5, 38000, Note_on_c, 3, 65, 109
5, 38014, Control_c, 3, 1, 38
5, 38028, Control_c, 3, 1, 50
5, 38042, Control_c, 3, 1, 61
5, 38058, Control_c, 3, 1, 69
5, 38084, Control_c, 3, 1, 70
5, 38106, Control_c, 3, 1, 69
5, 38112, Control_c, 3, 1, 64
5, 38132, Control_c, 3, 1, 57
5, 38148, Control_c, 3, 1, 39
5, 38168, Control_c, 3, 1, 26
5, 38178, Note_off_c, 3, 65, 109
5, 38184, Control_c, 3, 1, 1
5, 38184, Note_on_c, 3, 62, 73
5, 38212, Control_c, 3, 1, 0
5, 38238, Note_off_c, 3, 62, 73
5, 38278, Note_on_c, 3, 65, 100
5, 38326, Control_c, 3, 1, 1
5, 38346, Control_c, 3, 1, 7
5, 38366, Control_c, 3, 1, 10
5, 38390, Control_c, 3, 1, 11
5, 38408, Control_c, 3, 1, 9
5, 38420, Control_c, 3, 1, 2
5, 38436, Control_c, 3, 1, 1
5, 38468, Control_c, 3, 1, 0
5, 38472, Note_off_c, 3, 65, 100
5, 38498, Control_c, 3, 1, 1
5, 38504, Note_on_c, 3, 65, 91
5, 38602, Control_c, 3, 1, 0
5, 38660, Note_off_c, 3, 65, 91
5, 38710, Note_on_c, 3, 65, 100
5, 38766, Control_c, 3, 1, 1
5, 38792, Control_c, 3, 1, 2
5, 38796, Control_c, 3, 1, 6
5, 38818, Control_c, 3, 1, 9
5, 38834, Control_c, 3, 1, 13
5, 38850, Control_c, 3, 1, 15
5, 38870, Control_c, 3, 1, 19
5, 38890, Control_c, 3, 1, 21
5, 38916, Control_c, 3, 1, 23
5, 38930, Control_c, 3, 1, 25
5, 38940, Control_c, 3, 1, 30
5, 38964, Control_c, 3, 1, 34
5, 38970, Note_off_c, 3, 65, 100
5, 38976, Control_c, 3, 1, 41
5, 38994, Control_c, 3, 1, 57
5, 38994, Note_on_c, 3, 65, 98
5, 39018, Control_c, 3, 1, 63
5, 39036, Note_off_c, 3, 65, 98
5, 39036, Control_c, 3, 1, 69
5, 39048, Control_c, 3, 1, 73
5, 39082, Control_c, 3, 1, 72
5, 39090, Control_c, 3, 1, 70
5, 39102, Control_c, 3, 1, 62
5, 39122, Control_c, 3, 1, 53
5, 39144, Control_c, 3, 1, 43
5, 39158, Control_c, 3, 1, 27
5, 39174, Control_c, 3, 1, 1
5, 39194, Control_c, 3, 1, 0
5, 40866, Pitch_bend_c, 3, 8322
5, 40868, Note_on_c, 3, 70, 109
5, 40878, Pitch_bend_c, 3, 10272
5, 40892, Pitch_bend_c, 3, 11052
5, 40906, Pitch_bend_c, 3, 12222
5, 40924, Pitch_bend_c, 3, 13132
5, 40934, Pitch_bend_c, 3, 13912
5, 40948, Pitch_bend_c, 3, 14562
5, 40966, Pitch_bend_c, 3, 14692
5, 40974, Pitch_bend_c, 3, 15472
5, 40988, Pitch_bend_c, 3, 15732
5, 41014, Pitch_bend_c, 3, 15602
5, 41018, Pitch_bend_c, 3, 15212
5, 41030, Pitch_bend_c, 3, 14562
5, 41044, Pitch_bend_c, 3, 14042
5, 41060, Pitch_bend_c, 3, 13392
5, 41074, Pitch_bend_c, 3, 13002
5, 41086, Pitch_bend_c, 3, 12222
5, 41102, Pitch_bend_c, 3, 11442
5, 41116, Pitch_bend_c, 3, 10792
5, 41128, Pitch_bend_c, 3, 9882
5, 41142, Pitch_bend_c, 3, 8972
5, 41158, Pitch_bend_c, 3, 8582
5, 41170, Pitch_bend_c, 3, 8452
5, 41174, Pitch_bend_c, 3, 8192
5, 41248, Note_off_c, 3, 70, 109
5, 41266, Note_on_c, 3, 70, 91
5, 41340, Note_off_c, 3, 70, 91
5, 41470, Note_on_c, 3, 70, 100
5, 41636, Note_off_c, 3, 70, 100
5, 41756, Note_on_c, 3, 69, 100
5, 42032, Note_off_c, 3, 69, 100
5, 42054, Note_on_c, 3, 67, 100
5, 42108, Note_off_c, 3, 67, 100
5, 42248, Note_on_c, 3, 67, 100
5, 42310, Note_off_c, 3, 67, 100
5, 42438, Note_on_c, 3, 67, 109
5, 42512, Note_off_c, 3, 67, 109
5, 42604, Pitch_bend_c, 3, 6656
5, 42614, Pitch_bend_c, 3, 3840
5, 42624, Note_on_c, 3, 69, 101
5, 42634, Pitch_bend_c, 3, 3456
5, 42640, Pitch_bend_c, 3, 2048
5, 42670, Pitch_bend_c, 3, 2688
5, 42682, Pitch_bend_c, 3, 3328
5, 42698, Pitch_bend_c, 3, 4480
5, 42712, Pitch_bend_c, 3, 5376
5, 42728, Pitch_bend_c, 3, 5760
5, 42740, Pitch_bend_c, 3, 6656
5, 42752, Pitch_bend_c, 3, 7424
5, 42766, Pitch_bend_c, 3, 7936
5, 42772, Pitch_bend_c, 3, 8192
5, 42900, Note_off_c, 3, 69, 101
5, 42916, Note_on_c, 3, 65, 98
5, 43360, Note_off_c, 3, 65, 98
5, 43688, Note_on_c, 3, 62, 82
5, 43732, Note_off_c, 3, 62, 82
5, 43766, Note_on_c, 3, 65, 109
5, 43790, Control_c, 3, 1, 1
5, 43802, Control_c, 3, 1, 13
5, 43818, Control_c, 3, 1, 28
5, 43822, Note_off_c, 3, 65, 109
5, 43838, Control_c, 3, 1, 37
5, 43856, Control_c, 3, 1, 41
5, 43890, Control_c, 3, 1, 31
5, 43912, Control_c, 3, 1, 21
5, 43932, Control_c, 3, 1, 4
5, 43946, Control_c, 3, 1, 1
5, 43954, Note_on_c, 3, 65, 100
5, 44002, Control_c, 3, 1, 6
5, 44022, Note_off_c, 3, 65, 100
5, 44022, Control_c, 3, 1, 1
5, 44048, Note_on_c, 3, 62, 82
5, 44056, Control_c, 3, 1, 0
5, 44098, Note_off_c, 3, 62, 82
5, 44138, Note_on_c, 3, 65, 109
5, 44148, Control_c, 3, 1, 16
5, 44166, Control_c, 3, 1, 31
5, 44180, Control_c, 3, 1, 53
5, 44202, Control_c, 3, 1, 60
5, 44216, Control_c, 3, 1, 63
5, 44252, Control_c, 3, 1, 60
5, 44274, Control_c, 3, 1, 49
5, 44286, Control_c, 3, 1, 33
5, 44308, Control_c, 3, 1, 13
5, 44318, Note_off_c, 3, 65, 109
5, 44324, Control_c, 3, 1, 0
5, 44340, Note_on_c, 3, 62, 91
5, 44386, Note_off_c, 3, 62, 91
5, 44440, Note_on_c, 3, 65, 109
5, 44498, Note_off_c, 3, 65, 109
5, 44626, Note_on_c, 3, 65, 109
5, 44684, Note_off_c, 3, 65, 109
5, 44812, Note_on_c, 3, 65, 100
5, 44844, Control_c, 3, 1, 13
5, 44864, Control_c, 3, 1, 25
5, 44884, Control_c, 3, 1, 37
5, 44902, Control_c, 3, 1, 43
5, 44916, Control_c, 3, 1, 50
5, 44940, Control_c, 3, 1, 55
5, 44954, Control_c, 3, 1, 59
5, 44976, Control_c, 3, 1, 60
5, 45002, Control_c, 3, 1, 59
5, 45010, Control_c, 3, 1, 53
5, 45026, Control_c, 3, 1, 40
5, 45046, Control_c, 3, 1, 24
5, 45062, Control_c, 3, 1, 1
5, 45076, Note_off_c, 3, 65, 100
5, 45084, Control_c, 3, 1, 0
5, 45096, Note_on_c, 3, 65, 64
5, 45144, Note_off_c, 3, 65, 64
5, 47020, Pitch_bend_c, 3, 8712
5, 47026, Pitch_bend_c, 3, 10922
5, 47028, Note_on_c, 3, 70, 109
5, 47038, Pitch_bend_c, 3, 15342
5, 47052, Pitch_bend_c, 3, 16382
5, 47204, Pitch_bend_c, 3, 15732
5, 47218, Pitch_bend_c, 3, 14432
5, 47238, Pitch_bend_c, 3, 13912
5, 47248, Pitch_bend_c, 3, 13132
5, 47260, Pitch_bend_c, 3, 12352
5, 47276, Pitch_bend_c, 3, 11702
5, 47288, Pitch_bend_c, 3, 10792
5, 47304, Pitch_bend_c, 3, 10142
5, 47320, Pitch_bend_c, 3, 9492
5, 47332, Pitch_bend_c, 3, 8712
5, 47346, Pitch_bend_c, 3, 8322
5, 47348, Pitch_bend_c, 3, 8192
5, 47374, Note_off_c, 3, 70, 109
5, 47412, Note_on_c, 3, 70, 100
5, 47486, Note_off_c, 3, 70, 100
5, 47612, Note_on_c, 3, 69, 109
5, 47672, Note_off_c, 3, 69, 109
5, 47826, Note_on_c, 3, 70, 100
5, 47882, Note_off_c, 3, 70, 100
5, 47932, Note_on_c, 3, 69, 100
5, 47986, Note_off_c, 3, 69, 100
5, 48114, Note_on_c, 3, 67, 109
5, 48168, Control_c, 3, 1, 1
5, 48186, Control_c, 3, 1, 2
5, 48192, Control_c, 3, 1, 9
5, 48210, Control_c, 3, 1, 15
5, 48230, Control_c, 3, 1, 22
5, 48246, Control_c, 3, 1, 31
5, 48264, Control_c, 3, 1, 39
5, 48284, Control_c, 3, 1, 43
5, 48306, Control_c, 3, 1, 45
5, 48320, Control_c, 3, 1, 46
5, 48336, Control_c, 3, 1, 39
5, 48356, Note_off_c, 3, 67, 109
5, 48356, Control_c, 3, 1, 20
5, 48374, Control_c, 3, 1, 2
5, 48390, Control_c, 3, 1, 0
5, 48394, Note_on_c, 3, 67, 101
5, 48444, Note_off_c, 3, 67, 101
5, 48578, Note_on_c, 3, 69, 91
5, 48600, Control_c, 3, 1, 2
5, 48608, Control_c, 3, 1, 19
5, 48630, Control_c, 3, 1, 28
5, 48644, Control_c, 3, 1, 40
5, 48668, Control_c, 3, 1, 44
5, 48678, Control_c, 3, 1, 47
5, 48696, Control_c, 3, 1, 48
5, 48716, Control_c, 3, 1, 45
5, 48732, Control_c, 3, 1, 24
5, 48752, Control_c, 3, 1, 0
5, 48764, Note_off_c, 3, 69, 91
5, 49704, Note_on_c, 3, 60, 100
5, 49898, Note_on_c, 3, 65, 91
5, 49900, Note_off_c, 3, 60, 100
5, 49948, Note_off_c, 3, 65, 91
5, 50100, Note_on_c, 3, 65, 91
5, 50134, Note_off_c, 3, 65, 91
5, 50194, Note_on_c, 3, 67, 100
5, 50260, Note_off_c, 3, 67, 100
5, 50388, Note_on_c, 3, 69, 100
5, 50456, Note_off_c, 3, 69, 100
5, 50578, Note_on_c, 3, 69, 109
5, 50764, Pitch_bend_c, 3, 7552
5, 50780, Pitch_bend_c, 3, 6528
5, 50788, Pitch_bend_c, 3, 5504
5, 50806, Pitch_bend_c, 3, 5376
5, 50816, Pitch_bend_c, 3, 5120
5, 50836, Pitch_bend_c, 3, 4992
5, 50860, Pitch_bend_c, 3, 5632
5, 50874, Pitch_bend_c, 3, 7040
5, 50890, Pitch_bend_c, 3, 7680
5, 50896, Pitch_bend_c, 3, 8192
5, 51016, Control_c, 3, 1, 1
5, 51022, Control_c, 3, 1, 9
5, 51038, Control_c, 3, 1, 22
5, 51054, Control_c, 3, 1, 35
5, 51078, Control_c, 3, 1, 51
5, 51092, Control_c, 3, 1, 59
5, 51108, Control_c, 3, 1, 62
5, 51138, Control_c, 3, 1, 59
5, 51144, Control_c, 3, 1, 43
5, 51164, Control_c, 3, 1, 18
5, 51178, Note_off_c, 3, 69, 109
5, 51182, Control_c, 3, 1, 0
5, 53172, Note_on_c, 3, 65, 91
5, 53322, Note_off_c, 3, 65, 91
5, 53362, Note_on_c, 3, 65, 100
5, 53364, Control_c, 3, 1, 15
5, 53378, Control_c, 3, 1, 31
5, 53394, Control_c, 3, 1, 46
5, 53418, Control_c, 3, 1, 48
5, 53450, Control_c, 3, 1, 46
5, 53466, Control_c, 3, 1, 41
5, 53484, Control_c, 3, 1, 32
5, 53502, Control_c, 3, 1, 15
5, 53514, Note_off_c, 3, 65, 100
5, 53522, Control_c, 3, 1, 1
5, 53544, Control_c, 3, 1, 0
5, 53556, Note_on_c, 3, 65, 91
5, 53620, Note_off_c, 3, 65, 91
5, 53654, Note_on_c, 3, 69, 100
5, 53676, Control_c, 3, 1, 1
5, 53682, Control_c, 3, 1, 19
5, 53700, Control_c, 3, 1, 35
5, 53722, Control_c, 3, 1, 42
5, 53756, Control_c, 3, 1, 35
5, 53776, Control_c, 3, 1, 24
5, 53790, Control_c, 3, 1, 7
5, 53808, Control_c, 3, 1, 1
5, 53828, Control_c, 3, 1, 0
5, 53838, Note_off_c, 3, 69, 100
5, 53878, Note_on_c, 3, 69, 100
5, 54044, Note_off_c, 3, 69, 100
5, 54064, Note_on_c, 3, 72, 100
5, 54128, Note_off_c, 3, 72, 100
5, 54334, Note_on_c, 3, 65, 91
5, 54378, Note_off_c, 3, 65, 91
5, 54438, Note_on_c, 3, 65, 100
5, 54450, Control_c, 3, 1, 2
5, 54456, Control_c, 3, 1, 22
5, 54474, Control_c, 3, 1, 38
5, 54492, Control_c, 3, 1, 51
5, 54510, Control_c, 3, 1, 63
5, 54532, Control_c, 3, 1, 68
5, 54546, Control_c, 3, 1, 71
5, 54592, Control_c, 3, 1, 69
5, 54600, Control_c, 3, 1, 64
5, 54618, Control_c, 3, 1, 52
5, 54638, Control_c, 3, 1, 37
5, 54654, Control_c, 3, 1, 13
5, 54664, Note_off_c, 3, 65, 100
5, 54674, Control_c, 3, 1, 1
5, 54690, Control_c, 3, 1, 0
5, 54704, Note_on_c, 3, 65, 91
5, 54760, Note_off_c, 3, 65, 91
5, 54808, Note_on_c, 3, 69, 109
5, 54858, Note_off_c, 3, 69, 109
5, 54998, Note_on_c, 3, 65, 109
5, 55026, Control_c, 3, 1, 3
5, 55034, Control_c, 3, 1, 19
5, 55052, Control_c, 3, 1, 34
5, 55070, Control_c, 3, 1, 42
5, 55088, Control_c, 3, 1, 49
5, 55108, Control_c, 3, 1, 55
5, 55122, Control_c, 3, 1, 57
5, 55146, Control_c, 3, 1, 58
5, 55160, Control_c, 3, 1, 60
5, 55182, Control_c, 3, 1, 62
5, 55200, Control_c, 3, 1, 63
5, 55214, Control_c, 3, 1, 67
5, 55232, Control_c, 3, 1, 73
5, 55248, Control_c, 3, 1, 79
5, 55274, Control_c, 3, 1, 81
5, 55288, Control_c, 3, 1, 82
5, 55304, Control_c, 3, 1, 74
5, 55320, Control_c, 3, 1, 46
5, 55342, Control_c, 3, 1, 1
5, 55350, Note_off_c, 3, 65, 109
5, 55356, Control_c, 3, 1, 0
5, 55970, Note_on_c, 3, 62, 64
5, 56016, Note_off_c, 3, 62, 64
5, 56052, Note_on_c, 3, 65, 109
5, 56084, Control_c, 3, 1, 1
5, 56098, Control_c, 3, 1, 12
5, 56112, Control_c, 3, 1, 26
5, 56130, Control_c, 3, 1, 33
5, 56150, Control_c, 3, 1, 38
5, 56172, Control_c, 3, 1, 39
5, 56192, Control_c, 3, 1, 34
5, 56196, Note_off_c, 3, 65, 109
5, 56204, Control_c, 3, 1, 26
5, 56222, Control_c, 3, 1, 10
5, 56244, Control_c, 3, 1, 1
5, 56244, Note_on_c, 3, 65, 100
5, 56258, Control_c, 3, 1, 0
5, 56302, Note_off_c, 3, 65, 100
5, 56348, Note_on_c, 3, 67, 100
5, 56408, Note_off_c, 3, 67, 100
5, 56532, Note_on_c, 3, 69, 100
5, 56600, Note_off_c, 3, 69, 100
5, 56720, Note_on_c, 3, 69, 109
5, 56844, Pitch_bend_c, 3, 7552
5, 56850, Pitch_bend_c, 3, 5888
5, 56872, Pitch_bend_c, 3, 5120
5, 56882, Pitch_bend_c, 3, 4608
5, 56896, Pitch_bend_c, 3, 4224
5, 56914, Pitch_bend_c, 3, 4352
5, 56920, Pitch_bend_c, 3, 5632
5, 56936, Pitch_bend_c, 3, 6912
5, 56948, Pitch_bend_c, 3, 7808
5, 56956, Pitch_bend_c, 3, 8192
5, 57242, Note_off_c, 3, 69, 109
5, 59432, Note_on_c, 3, 69, 91
5, 59468, Control_c, 3, 1, 1
5, 59482, Control_c, 3, 1, 8
5, 59496, Control_c, 3, 1, 18
5, 59518, Control_c, 3, 1, 24
5, 59532, Control_c, 3, 1, 34
5, 59550, Control_c, 3, 1, 43
5, 59572, Control_c, 3, 1, 49
5, 59586, Control_c, 3, 1, 57
5, 59608, Control_c, 3, 1, 59
5, 59622, Control_c, 3, 1, 62
5, 59642, Control_c, 3, 1, 58
5, 59660, Control_c, 3, 1, 39
5, 59680, Control_c, 3, 1, 19
5, 59694, Control_c, 3, 1, 1
5, 59706, Note_off_c, 3, 69, 91
5, 59706, Note_on_c, 3, 62, 82
5, 59720, Control_c, 3, 1, 0
5, 59746, Note_off_c, 3, 62, 82
5, 60476, Note_on_c, 3, 62, 100
5, 60532, Note_off_c, 3, 62, 100
5, 60664, Note_on_c, 3, 65, 100
5, 60726, Note_off_c, 3, 65, 100
5, 60768, Note_on_c, 3, 67, 100
5, 60846, Note_off_c, 3, 67, 100
5, 60956, Note_on_c, 3, 69, 109
5, 61126, Pitch_bend_c, 3, 7040
5, 61138, Pitch_bend_c, 3, 5632
5, 61148, Pitch_bend_c, 3, 4480
5, 61164, Pitch_bend_c, 3, 3840
5, 61176, Pitch_bend_c, 3, 3456
5, 61218, Pitch_bend_c, 3, 4352
5, 61232, Pitch_bend_c, 3, 4992
5, 61250, Pitch_bend_c, 3, 6016
5, 61262, Pitch_bend_c, 3, 7680
5, 61276, Pitch_bend_c, 3, 8192
5, 61398, Control_c, 3, 1, 1
5, 61410, Control_c, 3, 1, 13
5, 61424, Control_c, 3, 1, 27
5, 61444, Control_c, 3, 1, 42
5, 61458, Control_c, 3, 1, 54
5, 61478, Control_c, 3, 1, 59
5, 61496, Control_c, 3, 1, 60
5, 61516, Note_off_c, 3, 69, 109
5, 61518, Control_c, 3, 1, 57
5, 61530, Control_c, 3, 1, 46
5, 61548, Control_c, 3, 1, 38
5, 61566, Control_c, 3, 1, 27
5, 61584, Control_c, 3, 1, 15
5, 61606, Control_c, 3, 1, 4
5, 61620, Control_c, 3, 1, 1
5, 61642, Control_c, 3, 1, 0
5, 61830, Note_on_c, 3, 62, 91
5, 61872, Note_off_c, 3, 62, 91
5, 61918, Note_on_c, 3, 62, 91
5, 61964, Note_off_c, 3, 62, 91
5, 61996, Note_on_c, 3, 64, 100
5, 62042, Note_off_c, 3, 64, 100
5, 62110, Note_on_c, 3, 65, 98
5, 62152, Note_off_c, 3, 65, 98
5, 62294, Note_on_c, 3, 67, 100
5, 62340, Note_off_c, 3, 67, 100
5, 62476, Note_on_c, 3, 69, 107
5, 62554, Control_c, 3, 1, 1
5, 62578, Control_c, 3, 1, 8
5, 62594, Control_c, 3, 1, 16
5, 62610, Control_c, 3, 1, 24
5, 62632, Control_c, 3, 1, 30
5, 62648, Control_c, 3, 1, 36
5, 62664, Control_c, 3, 1, 40
5, 62684, Control_c, 3, 1, 42
5, 62700, Control_c, 3, 1, 44
5, 62756, Control_c, 3, 1, 41
5, 62772, Control_c, 3, 1, 30
5, 62794, Control_c, 3, 1, 17
5, 62808, Control_c, 3, 1, 1
5, 62818, Note_off_c, 3, 69, 107
5, 62826, Control_c, 3, 1, 0
5, 63650, Note_on_c, 3, 60, 73
5, 63700, Note_off_c, 3, 60, 73
5, 63734, Note_on_c, 3, 64, 100
5, 63792, Note_off_c, 3, 64, 100
5, 63834, Note_on_c, 3, 65, 100
5, 63948, Note_off_c, 3, 65, 100
5, 64026, Note_on_c, 3, 67, 100
5, 64074, Control_c, 3, 1, 1
5, 64098, Control_c, 3, 1, 6
5, 64106, Control_c, 3, 1, 13
5, 64122, Control_c, 3, 1, 27
5, 64144, Control_c, 3, 1, 35
5, 64158, Control_c, 3, 1, 45
5, 64182, Control_c, 3, 1, 52
5, 64196, Control_c, 3, 1, 57
5, 64228, Control_c, 3, 1, 56
5, 64232, Control_c, 3, 1, 44
5, 64254, Control_c, 3, 1, 24
5, 64256, Note_off_c, 3, 67, 100
5, 64268, Control_c, 3, 1, 0
5, 64436, Note_on_c, 3, 60, 82
5, 64476, Note_off_c, 3, 60, 82
5, 64514, Note_on_c, 3, 62, 109
5, 64556, Control_c, 3, 1, 8
5, 64572, Control_c, 3, 1, 24
5, 64594, Control_c, 3, 1, 37
5, 64608, Control_c, 3, 1, 51
5, 64630, Control_c, 3, 1, 57
5, 64650, Control_c, 3, 1, 58
5, 64666, Control_c, 3, 1, 54
5, 64682, Control_c, 3, 1, 35
5, 64684, Note_off_c, 3, 62, 109
5, 64706, Control_c, 3, 1, 15
5, 64706, Note_on_c, 3, 65, 100
5, 64716, Control_c, 3, 1, 1
5, 64736, Control_c, 3, 1, 0
5, 64754, Note_off_c, 3, 65, 100
5, 64810, Note_on_c, 3, 65, 109
5, 64866, Note_off_c, 3, 65, 109
5, 64992, Note_on_c, 3, 67, 91
5, 65068, Note_off_c, 3, 67, 91
5, 65156, Pitch_bend_c, 3, 8842
5, 65166, Pitch_bend_c, 3, 10272
5, 65182, Pitch_bend_c, 3, 11182
5, 65194, Pitch_bend_c, 3, 12222
5, 65210, Pitch_bend_c, 3, 12352
5, 65218, Note_on_c, 3, 67, 100
5, 65222, Pitch_bend_c, 3, 12482
5, 65236, Pitch_bend_c, 3, 13132
5, 65254, Pitch_bend_c, 3, 13392
5, 65300, Pitch_bend_c, 3, 13132
5, 65310, Pitch_bend_c, 3, 12612
5, 65326, Pitch_bend_c, 3, 12352
5, 65334, Pitch_bend_c, 3, 11832
5, 65352, Pitch_bend_c, 3, 11572
5, 65364, Pitch_bend_c, 3, 11052
5, 65382, Pitch_bend_c, 3, 10792
5, 65390, Pitch_bend_c, 3, 10532
5, 65404, Pitch_bend_c, 3, 10272
5, 65420, Pitch_bend_c, 3, 9232
5, 65434, Pitch_bend_c, 3, 8712
5, 65446, Pitch_bend_c, 3, 8322
5, 65450, Pitch_bend_c, 3, 8192
5, 65494, Note_off_c, 3, 67, 100
5, 65508, Pitch_bend_c, 3, 8322
5, 65536, Pitch_bend_c, 3, 9492
5, 65548, Pitch_bend_c, 3, 11312
5, 65548, Note_on_c, 3, 67, 100
5, 65562, Pitch_bend_c, 3, 12222
5, 65578, Pitch_bend_c, 3, 12482
5, 65586, Pitch_bend_c, 3, 13392
5, 65600, Pitch_bend_c, 3, 13522
5, 65634, Pitch_bend_c, 3, 13262
5, 65646, Pitch_bend_c, 3, 12872
5, 65658, Pitch_bend_c, 3, 12352
5, 65672, Pitch_bend_c, 3, 11832
5, 65688, Pitch_bend_c, 3, 11442
5, 65698, Pitch_bend_c, 3, 10792
5, 65714, Pitch_bend_c, 3, 10272
5, 65726, Pitch_bend_c, 3, 9622
5, 65742, Pitch_bend_c, 3, 9102
5, 65760, Pitch_bend_c, 3, 8972
5, 65784, Pitch_bend_c, 3, 9362
5, 65788, Note_off_c, 3, 67, 100
5, 65796, Pitch_bend_c, 3, 10922
5, 65814, Pitch_bend_c, 3, 11832
5, 65830, Pitch_bend_c, 3, 12872
5, 65838, Pitch_bend_c, 3, 15602
5, 65844, Note_on_c, 3, 67, 109
5, 65856, Pitch_bend_c, 3, 16382
5, 66002, Note_off_c, 3, 67, 109
5, 66174, Pitch_bend_c, 3, 15212
5, 66190, Pitch_bend_c, 3, 14042
5, 66202, Pitch_bend_c, 3, 9882
5, 66218, Pitch_bend_c, 3, 7808
5, 66226, Pitch_bend_c, 3, 8192
5, 66230, Note_on_c, 3, 62, 100
5, 66234, Pitch_bend_c, 3, 8452
5, 66238, Pitch_bend_c, 3, 8192
5, 66276, Note_off_c, 3, 62, 100
5, 66426, Note_on_c, 3, 62, 109
5, 66458, Note_off_c, 3, 62, 109
5, 66512, Note_on_c, 3, 62, 100
5, 66562, Note_off_c, 3, 62, 100
5, 66594, Note_on_c, 3, 64, 100
5, 66666, Note_off_c, 3, 64, 100
5, 66700, Note_on_c, 3, 65, 100
5, 66766, Note_off_c, 3, 65, 100
5, 66898, Note_on_c, 3, 67, 100
5, 66954, Note_off_c, 3, 67, 100
5, 67094, Note_on_c, 3, 69, 109
5, 67214, Control_c, 3, 1, 1
5, 67230, Control_c, 3, 1, 2
5, 67236, Control_c, 3, 1, 9
5, 67254, Control_c, 3, 1, 22
5, 67274, Control_c, 3, 1, 32
5, 67292, Control_c, 3, 1, 46
5, 67314, Control_c, 3, 1, 54
5, 67328, Control_c, 3, 1, 61
5, 67346, Control_c, 3, 1, 63
5, 67364, Control_c, 3, 1, 56
5, 67382, Control_c, 3, 1, 37
5, 67398, Control_c, 3, 1, 1
5, 67404, Note_off_c, 3, 69, 109
5, 67418, Control_c, 3, 1, 0
5, 67956, Note_on_c, 3, 62, 91
5, 68014, Note_off_c, 3, 62, 91
5, 68146, Note_on_c, 3, 64, 100
5, 68200, Note_off_c, 3, 64, 100
5, 68252, Note_on_c, 3, 65, 91
5, 68322, Note_off_c, 3, 65, 91
5, 68446, Note_on_c, 3, 67, 109
5, 68530, Note_off_c, 3, 67, 109
5, 68638, Pitch_bend_c, 3, 8452
5, 68648, Note_on_c, 3, 67, 107
5, 68656, Pitch_bend_c, 3, 9232
5, 68666, Pitch_bend_c, 3, 9752
5, 68680, Pitch_bend_c, 3, 10532
5, 68694, Pitch_bend_c, 3, 11052
5, 68714, Pitch_bend_c, 3, 11312
5, 68726, Pitch_bend_c, 3, 11442
5, 68738, Pitch_bend_c, 3, 11832
5, 68756, Pitch_bend_c, 3, 11962
5, 68774, Pitch_bend_c, 3, 12092
5, 68806, Pitch_bend_c, 3, 11702
5, 68820, Pitch_bend_c, 3, 11182
5, 68836, Pitch_bend_c, 3, 10662
5, 68856, Pitch_bend_c, 3, 10532
5, 68864, Pitch_bend_c, 3, 9882
5, 68878, Pitch_bend_c, 3, 9492
5, 68890, Pitch_bend_c, 3, 8842
5, 68904, Pitch_bend_c, 3, 8322
5, 68920, Pitch_bend_c, 3, 8192
5, 69080, Note_off_c, 3, 67, 107
5, 69492, Note_on_c, 3, 60, 100
5, 69670, Note_off_c, 3, 60, 100
5, 69690, Note_on_c, 3, 62, 100
5, 69748, Note_off_c, 3, 62, 100
5, 69794, Note_on_c, 3, 64, 100
5, 69852, Note_off_c, 3, 64, 100
5, 69986, Note_on_c, 3, 65, 100
5, 70052, Note_off_c, 3, 65, 100
5, 70176, Note_on_c, 3, 67, 107
5, 70298, Control_c, 3, 1, 3
5, 70314, Control_c, 3, 1, 11
5, 70332, Control_c, 3, 1, 20
5, 70350, Control_c, 3, 1, 30
5, 70372, Control_c, 3, 1, 35
5, 70390, Control_c, 3, 1, 36
5, 70416, Control_c, 3, 1, 33
5, 70422, Control_c, 3, 1, 16
5, 70440, Control_c, 3, 1, 0
5, 70458, Note_off_c, 3, 67, 107
5, 70564, Note_on_c, 3, 60, 91
5, 70626, Note_off_c, 3, 60, 91
5, 70656, Note_on_c, 3, 62, 100
5, 70722, Note_off_c, 3, 62, 100
5, 70848, Note_on_c, 3, 65, 100
5, 70898, Note_off_c, 3, 65, 100
5, 70946, Note_on_c, 3, 65, 91
5, 71018, Note_off_c, 3, 65, 91
5, 71128, Note_on_c, 3, 67, 100
5, 71222, Note_off_c, 3, 67, 100
5, 71342, Pitch_bend_c, 3, 8972
5, 71342, Note_on_c, 3, 67, 100
5, 71358, Pitch_bend_c, 3, 9492
5, 71370, Pitch_bend_c, 3, 9882
5, 71382, Pitch_bend_c, 3, 10012
5, 71414, Pitch_bend_c, 3, 10402
5, 71426, Pitch_bend_c, 3, 10922
5, 71438, Pitch_bend_c, 3, 11572
5, 71452, Pitch_bend_c, 3, 12222
5, 71468, Pitch_bend_c, 3, 13002
5, 71482, Pitch_bend_c, 3, 13522
5, 71494, Pitch_bend_c, 3, 13912
5, 71508, Pitch_bend_c, 3, 14172
5, 71544, Pitch_bend_c, 3, 13782
5, 71552, Pitch_bend_c, 3, 13132
5, 71564, Pitch_bend_c, 3, 10792
5, 71580, Pitch_bend_c, 3, 9362
5, 71596, Pitch_bend_c, 3, 8452
5, 71610, Pitch_bend_c, 3, 8192
5, 71654, Note_off_c, 3, 67, 100
5, 71778, Note_on_c, 3, 70, 100
5, 71838, Pitch_bend_c, 3, 8582
5, 71844, Pitch_bend_c, 3, 9362
5, 71858, Pitch_bend_c, 3, 9882
5, 71874, Pitch_bend_c, 3, 10402
5, 71890, Pitch_bend_c, 3, 10792
5, 71900, Pitch_bend_c, 3, 11702
5, 71918, Pitch_bend_c, 3, 13002
5, 71930, Pitch_bend_c, 3, 13912
5, 71944, Pitch_bend_c, 3, 14432
5, 71956, Pitch_bend_c, 3, 15212
5, 71978, Pitch_bend_c, 3, 15342
5, 71984, Pitch_bend_c, 3, 15992
5, 72000, Pitch_bend_c, 3, 16382
5, 72348, Pitch_bend_c, 3, 15212
5, 72366, Pitch_bend_c, 3, 14432
5, 72376, Pitch_bend_c, 3, 13522
5, 72392, Pitch_bend_c, 3, 12872
5, 72406, Pitch_bend_c, 3, 12352
5, 72418, Pitch_bend_c, 3, 11312
5, 72434, Pitch_bend_c, 3, 10402
5, 72446, Pitch_bend_c, 3, 9102
5, 72462, Pitch_bend_c, 3, 8322
5, 72472, Pitch_bend_c, 3, 8192
5, 72548, Note_on_c, 3, 69, 82
5, 72556, Note_off_c, 3, 70, 100
5, 72608, Control_c, 3, 1, 1
5, 72634, Control_c, 3, 1, 2
5, 72636, Control_c, 3, 1, 9
5, 72654, Control_c, 3, 1, 17
5, 72672, Control_c, 3, 1, 22
5, 72690, Control_c, 3, 1, 29
5, 72710, Control_c, 3, 1, 35
5, 72728, Control_c, 3, 1, 39
5, 72744, Control_c, 3, 1, 42
5, 72752, Note_off_c, 3, 69, 82
5, 72762, Control_c, 3, 1, 47
5, 72778, Note_on_c, 3, 62, 82
5, 72782, Control_c, 3, 1, 52
5, 72798, Control_c, 3, 1, 57
5, 72816, Control_c, 3, 1, 59
5, 72834, Control_c, 3, 1, 65
5, 72856, Control_c, 3, 1, 70
5, 72872, Control_c, 3, 1, 73
5, 72898, Control_c, 3, 1, 74
5, 72914, Control_c, 3, 1, 71
5, 72924, Control_c, 3, 1, 56
5, 72942, Control_c, 3, 1, 25
5, 72946, Note_off_c, 3, 62, 82
5, 72960, Control_c, 3, 1, 1
5, 72962, Note_on_c, 3, 69, 100
5, 72986, Control_c, 3, 1, 0
5, 72990, Control_c, 3, 1, 6
5, 72996, Control_c, 3, 1, 12
5, 73014, Control_c, 3, 1, 15
5, 73032, Control_c, 3, 1, 16
5, 73068, Control_c, 3, 1, 13
5, 73088, Control_c, 3, 1, 5
5, 73110, Control_c, 3, 1, 1
5, 73152, Note_off_c, 3, 69, 100
5, 73174, Control_c, 3, 1, 0
5, 73180, Control_c, 3, 1, 1
5, 73222, Note_on_c, 3, 69, 100
5, 73322, Control_c, 3, 1, 0
5, 73390, Note_off_c, 3, 69, 100
5, 73508, Note_on_c, 3, 69, 100
5, 73598, Pitch_bend_c, 3, 7040
5, 73610, Pitch_bend_c, 3, 5632
5, 73614, Pitch_bend_c, 3, 8192
5, 73622, Pitch_bend_c, 3, 4224
5, 73638, Pitch_bend_c, 3, 3072
5, 73654, Pitch_bend_c, 3, 2560
5, 73682, Pitch_bend_c, 3, 2944
5, 73696, Pitch_bend_c, 3, 4096
5, 73712, Pitch_bend_c, 3, 4608
5, 73720, Pitch_bend_c, 3, 5120
5, 73738, Pitch_bend_c, 3, 5504
5, 73752, Pitch_bend_c, 3, 6016
5, 73764, Pitch_bend_c, 3, 7296
5, 73780, Pitch_bend_c, 3, 7808
5, 73790, Pitch_bend_c, 3, 8192
5, 73870, Control_c, 3, 1, 1
5, 73922, Control_c, 3, 1, 3
5, 73934, Control_c, 3, 1, 8
5, 73950, Control_c, 3, 1, 12
5, 73970, Control_c, 3, 1, 17
5, 73990, Control_c, 3, 1, 20
5, 74004, Control_c, 3, 1, 24
5, 74022, Control_c, 3, 1, 30
5, 74042, Control_c, 3, 1, 34
5, 74060, Control_c, 3, 1, 39
5, 74080, Control_c, 3, 1, 44
5, 74096, Control_c, 3, 1, 49
5, 74112, Control_c, 3, 1, 55
5, 74132, Control_c, 3, 1, 60
5, 74150, Control_c, 3, 1, 64
5, 74166, Control_c, 3, 1, 67
5, 74186, Control_c, 3, 1, 69
5, 74212, Note_off_c, 3, 69, 100
5, 74220, Note_on_c, 3, 62, 91
5, 74232, Control_c, 3, 1, 68
5, 74238, Control_c, 3, 1, 65
5, 74258, Control_c, 3, 1, 60
5, 74262, Note_off_c, 3, 62, 91
5, 74282, Control_c, 3, 1, 57
5, 74292, Control_c, 3, 1, 39
5, 74302, Note_on_c, 3, 65, 100
5, 74314, Control_c, 3, 1, 1
5, 74336, Control_c, 3, 1, 0
5, 74350, Note_off_c, 3, 65, 100
5, 74388, Note_on_c, 3, 67, 100
5, 74456, Note_off_c, 3, 67, 100
5, 74480, Note_on_c, 3, 69, 100
5, 74614, Note_off_c, 3, 69, 100
5, 74670, Note_on_c, 3, 72, 100
5, 74848, Note_off_c, 3, 72, 100
5, 74856, Note_on_c, 3, 72, 100
5, 74864, Pitch_bend_c, 3, 8712
5, 74868, Pitch_bend_c, 3, 10272
5, 74882, Pitch_bend_c, 3, 12742
5, 74896, Pitch_bend_c, 3, 15212
5, 74912, Pitch_bend_c, 3, 15862
5, 74926, Pitch_bend_c, 3, 16382
5, 75008, Pitch_bend_c, 3, 16122
5, 75024, Pitch_bend_c, 3, 14952
5, 75036, Pitch_bend_c, 3, 12352
5, 75054, Pitch_bend_c, 3, 11962
5, 75064, Pitch_bend_c, 3, 9752
5, 75080, Pitch_bend_c, 3, 8842
5, 75088, Pitch_bend_c, 3, 8192
5, 75154, Note_off_c, 3, 72, 100
5, 75162, Note_on_c, 3, 69, 82
5, 75204, Note_off_c, 3, 69, 82
5, 75810, Note_on_c, 3, 60, 91
5, 75826, Control_c, 3, 1, 1
5, 75840, Control_c, 3, 1, 14
5, 75860, Control_c, 3, 1, 26
5, 75880, Control_c, 3, 1, 39
5, 75896, Control_c, 3, 1, 47
5, 75912, Control_c, 3, 1, 60
5, 75932, Control_c, 3, 1, 67
5, 75952, Control_c, 3, 1, 66
5, 75966, Control_c, 3, 1, 47
5, 75988, Control_c, 3, 1, 16
5, 76004, Note_off_c, 3, 60, 91
5, 76004, Control_c, 3, 1, 0
5, 76006, Pitch_bend_c, 3, 8064
5, 76016, Pitch_bend_c, 3, 3200
5, 76022, Note_on_c, 3, 77, 93
5, 76034, Pitch_bend_c, 3, 384
5, 76050, Pitch_bend_c, 3, 0
5, 76074, Pitch_bend_c, 3, 768
5, 76086, Pitch_bend_c, 3, 2688
5, 76102, Pitch_bend_c, 3, 4096
5, 76114, Pitch_bend_c, 3, 5632
5, 76128, Pitch_bend_c, 3, 7296
5, 76144, Pitch_bend_c, 3, 8064
5, 76152, Pitch_bend_c, 3, 8192
5, 76264, Note_off_c, 3, 77, 93
5, 76280, Note_on_c, 3, 65, 81
5, 76352, Control_c, 3, 1, 1
5, 76438, Control_c, 3, 1, 0
5, 76554, Note_off_c, 3, 65, 81
5, 76590, Note_on_c, 3, 65, 98
5, 76620, Control_c, 3, 1, 1
5, 76664, Control_c, 3, 1, 0
5, 76768, Note_off_c, 3, 65, 98
5, 76794, Note_on_c, 3, 65, 109
5, 76804, Control_c, 3, 1, 10
5, 76812, Control_c, 3, 1, 27
5, 76834, Control_c, 3, 1, 36
5, 76848, Control_c, 3, 1, 43
5, 76868, Control_c, 3, 1, 48
5, 76884, Control_c, 3, 1, 53
5, 76902, Control_c, 3, 1, 59
5, 76926, Control_c, 3, 1, 62
5, 76940, Control_c, 3, 1, 66
5, 76956, Control_c, 3, 1, 70
5, 76976, Control_c, 3, 1, 73
5, 76992, Control_c, 3, 1, 77
5, 77012, Control_c, 3, 1, 79
5, 77028, Control_c, 3, 1, 82
5, 77056, Control_c, 3, 1, 83
5, 77116, Control_c, 3, 1, 81
5, 77120, Control_c, 3, 1, 61
5, 77142, Control_c, 3, 1, 29
5, 77162, Control_c, 3, 1, 1
5, 77174, Control_c, 3, 1, 0
5, 77184, Note_off_c, 3, 65, 109
5, 77578, Control_c, 3, 1, 3
5, 77578, Note_on_c, 3, 72, 100
5, 77578, Note_on_c, 3, 69, 100
5, 77588, Control_c, 3, 1, 19
5, 77604, Control_c, 3, 1, 33
5, 77624, Control_c, 3, 1, 35
5, 77640, Control_c, 3, 1, 22
5, 77662, Control_c, 3, 1, 10
5, 77678, Control_c, 3, 1, 1
5, 77680, Note_off_c, 3, 72, 100
5, 77692, Note_off_c, 3, 69, 100
5, 77710, Control_c, 3, 1, 0
5, 77846, Note_on_c, 3, 65, 91
5, 77850, Note_on_c, 3, 69, 109
5, 77856, Control_c, 3, 1, 19
5, 77876, Control_c, 3, 1, 36
5, 77892, Control_c, 3, 1, 49
5, 77910, Control_c, 3, 1, 61
5, 77930, Control_c, 3, 1, 66
5, 77946, Control_c, 3, 1, 69
5, 77966, Control_c, 3, 1, 71
5, 78008, Control_c, 3, 1, 69
5, 78022, Control_c, 3, 1, 64
5, 78038, Control_c, 3, 1, 57
5, 78054, Control_c, 3, 1, 44
5, 78072, Control_c, 3, 1, 22
5, 78094, Control_c, 3, 1, 0
5, 78106, Note_off_c, 3, 69, 109
5, 78120, Note_off_c, 3, 65, 91
5, 78128, Note_on_c, 3, 67, 91
5, 78132, Note_on_c, 3, 70, 91
5, 78300, Note_off_c, 3, 67, 91
5, 78304, Note_off_c, 3, 70, 91
5, 78330, Note_on_c, 3, 65, 84
5, 78330, Note_on_c, 3, 69, 92
5, 78332, Control_c, 3, 1, 10
5, 78342, Control_c, 3, 1, 29
5, 78360, Control_c, 3, 1, 42
5, 78378, Control_c, 3, 1, 50
5, 78398, Control_c, 3, 1, 53
5, 78416, Control_c, 3, 1, 55
5, 78440, Control_c, 3, 1, 56
5, 78450, Control_c, 3, 1, 59
5, 78468, Control_c, 3, 1, 64
5, 78488, Control_c, 3, 1, 71
5, 78504, Control_c, 3, 1, 79
5, 78522, Control_c, 3, 1, 84
5, 78540, Control_c, 3, 1, 87
5, 78570, Control_c, 3, 1, 85
5, 78576, Control_c, 3, 1, 74
5, 78594, Control_c, 3, 1, 54
5, 78620, Control_c, 3, 1, 39
5, 78628, Note_off_c, 3, 65, 84
5, 78630, Control_c, 3, 1, 0
5, 78634, Note_off_c, 3, 69, 92
5, 78904, Note_on_c, 3, 69, 82
5, 79084, Note_off_c, 3, 69, 82
5, 79102, Note_on_c, 3, 72, 109
5, 79240, Note_off_c, 3, 72, 109
5, 79396, Note_on_c, 3, 72, 109
5, 79534, Note_off_c, 3, 72, 109
5, 79668, Note_on_c, 3, 72, 109
5, 79696, Pitch_bend_c, 3, 8582
5, 79700, Pitch_bend_c, 3, 11572
5, 79714, Pitch_bend_c, 3, 14042
5, 79730, Pitch_bend_c, 3, 15472
5, 79740, Pitch_bend_c, 3, 16382
5, 79772, Control_c, 3, 1, 1
5, 79814, Control_c, 3, 1, 0
5, 79820, Pitch_bend_c, 3, 16252
5, 79828, Pitch_bend_c, 3, 13782
5, 79840, Pitch_bend_c, 3, 11312
5, 79860, Pitch_bend_c, 3, 9752
5, 79866, Pitch_bend_c, 3, 8712
5, 79882, Pitch_bend_c, 3, 8322
5, 79894, Pitch_bend_c, 3, 8192
5, 79932, Control_c, 3, 1, 1
5, 79946, Control_c, 3, 1, 15
5, 79962, Note_off_c, 3, 72, 109
5, 79968, Control_c, 3, 1, 25
5, 79976, Note_on_c, 3, 69, 81
5, 79980, Control_c, 3, 1, 45
5, 79998, Control_c, 3, 1, 55
5, 80018, Control_c, 3, 1, 65
5, 80034, Control_c, 3, 1, 75
5, 80056, Control_c, 3, 1, 79
5, 80070, Control_c, 3, 1, 89
5, 80094, Control_c, 3, 1, 93
5, 80110, Control_c, 3, 1, 95
5, 80128, Control_c, 3, 1, 96
5, 80142, Control_c, 3, 1, 97
5, 80168, Control_c, 3, 1, 94
5, 80180, Control_c, 3, 1, 82
5, 80196, Control_c, 3, 1, 61
5, 80214, Control_c, 3, 1, 16
5, 80232, Control_c, 3, 1, 0
5, 80260, Note_off_c, 3, 69, 81
5, 80358, Note_on_c, 3, 72, 100
5, 80414, Note_off_c, 3, 72, 100
5, 80530, Note_on_c, 3, 69, 100
5, 80584, Note_off_c, 3, 69, 100
5, 80608, Note_on_c, 3, 72, 109
5, 80674, Note_off_c, 3, 72, 109
5, 80800, Note_on_c, 3, 72, 109
5, 80870, Note_off_c, 3, 72, 109
5, 80990, Note_on_c, 3, 74, 100
5, 81028, Control_c, 3, 1, 9
5, 81046, Control_c, 3, 1, 21
5, 81062, Control_c, 3, 1, 31
5, 81084, Control_c, 3, 1, 37
5, 81098, Control_c, 3, 1, 40
5, 81114, Control_c, 3, 1, 41
5, 81144, Control_c, 3, 1, 39
5, 81150, Control_c, 3, 1, 24
5, 81174, Control_c, 3, 1, 9
5, 81182, Note_off_c, 3, 74, 100
5, 81188, Control_c, 3, 1, 0
5, 81194, Note_on_c, 3, 72, 90
5, 81260, Note_off_c, 3, 72, 90
5, 81316, Note_on_c, 3, 69, 93
5, 81368, Note_off_c, 3, 69, 93
5, 81388, Note_on_c, 3, 72, 109
5, 81392, Note_on_c, 3, 69, 73
5, 81450, Note_off_c, 3, 69, 73
5, 81452, Note_off_c, 3, 72, 109
5, 81596, Note_on_c, 3, 72, 100
5, 81598, Note_on_c, 3, 69, 82
5, 81654, Note_off_c, 3, 69, 82
5, 81662, Note_off_c, 3, 72, 100
5, 81686, Note_on_c, 3, 70, 100
5, 81686, Note_on_c, 3, 74, 100
5, 81720, Control_c, 3, 1, 1
5, 81728, Control_c, 3, 1, 19
5, 81750, Control_c, 3, 1, 34
5, 81762, Control_c, 3, 1, 45
5, 81780, Control_c, 3, 1, 55
5, 81800, Control_c, 3, 1, 60
5, 81822, Control_c, 3, 1, 66
5, 81836, Control_c, 3, 1, 72
5, 81852, Control_c, 3, 1, 80
5, 81870, Control_c, 3, 1, 85
5, 81890, Control_c, 3, 1, 86
5, 81906, Control_c, 3, 1, 76
5, 81930, Control_c, 3, 1, 56
5, 81944, Control_c, 3, 1, 20
5, 81962, Control_c, 3, 1, 0
5, 81968, Note_off_c, 3, 70, 100
5, 81982, Note_off_c, 3, 74, 100
5, 83688, Note_on_c, 3, 65, 109
5, 83702, Control_c, 3, 1, 1
5, 83712, Control_c, 3, 1, 10
5, 83724, Control_c, 3, 1, 30
5, 83744, Control_c, 3, 1, 41
5, 83760, Control_c, 3, 1, 44
5, 83788, Control_c, 3, 1, 42
5, 83796, Control_c, 3, 1, 31
5, 83816, Control_c, 3, 1, 19
5, 83832, Control_c, 3, 1, 1
5, 83860, Control_c, 3, 1, 0
5, 83864, Note_off_c, 3, 65, 109
5, 83902, Note_on_c, 3, 65, 82
5, 83962, Note_off_c, 3, 65, 82
5, 83990, Note_on_c, 3, 62, 91
5, 84042, Note_off_c, 3, 62, 91
5, 84052, Control_c, 3, 1, 2
5, 84066, Control_c, 3, 1, 22
5, 84080, Note_on_c, 3, 65, 109
5, 84094, Control_c, 3, 1, 38
5, 84108, Control_c, 3, 1, 50
5, 84122, Control_c, 3, 1, 61
5, 84138, Control_c, 3, 1, 69
5, 84164, Control_c, 3, 1, 70
5, 84186, Control_c, 3, 1, 69
5, 84192, Control_c, 3, 1, 64
5, 84212, Control_c, 3, 1, 57
5, 84228, Control_c, 3, 1, 39
5, 84248, Control_c, 3, 1, 26
5, 84258, Note_off_c, 3, 65, 109
5, 84264, Control_c, 3, 1, 1
5, 84264, Note_on_c, 3, 62, 73
5, 84292, Control_c, 3, 1, 0
5, 84318, Note_off_c, 3, 62, 73
5, 84358, Note_on_c, 3, 65, 100
5, 84406, Control_c, 3, 1, 1
5, 84426, Control_c, 3, 1, 7
5, 84446, Control_c, 3, 1, 10
5, 84470, Control_c, 3, 1, 11
5, 84488, Control_c, 3, 1, 9
5, 84500, Control_c, 3, 1, 2
5, 84516, Control_c, 3, 1, 1
5, 84548, Control_c, 3, 1, 0
5, 84552, Note_off_c, 3, 65, 100
5, 84578, Control_c, 3, 1, 1
5, 84584, Note_on_c, 3, 65, 91
5, 84682, Control_c, 3, 1, 0
5, 84740, Note_off_c, 3, 65, 91
5, 84790, Note_on_c, 3, 65, 100
5, 84846, Control_c, 3, 1, 1
5, 84872, Control_c, 3, 1, 2
5, 84876, Control_c, 3, 1, 6
5, 84898, Control_c, 3, 1, 9
5, 84914, Control_c, 3, 1, 13
5, 84930, Control_c, 3, 1, 15
5, 84950, Control_c, 3, 1, 19
5, 84970, Control_c, 3, 1, 21
5, 84996, Control_c, 3, 1, 23
5, 85010, Control_c, 3, 1, 25
5, 85020, Control_c, 3, 1, 30
5, 85044, Control_c, 3, 1, 34
5, 85050, Note_off_c, 3, 65, 100
5, 85056, Control_c, 3, 1, 41
5, 85074, Control_c, 3, 1, 57
5, 85074, Note_on_c, 3, 65, 98
5, 85098, Control_c, 3, 1, 63
5, 85116, Note_off_c, 3, 65, 98
5, 85116, Control_c, 3, 1, 69
5, 85128, Control_c, 3, 1, 73
5, 85162, Control_c, 3, 1, 72
5, 85170, Control_c, 3, 1, 70
5, 85182, Control_c, 3, 1, 62
5, 85202, Control_c, 3, 1, 53
5, 85224, Control_c, 3, 1, 43
5, 85238, Control_c, 3, 1, 27
5, 85254, Control_c, 3, 1, 1
5, 85274, Control_c, 3, 1, 0
5, 86946, Pitch_bend_c, 3, 8322
5, 86948, Note_on_c, 3, 70, 109
5, 86958, Pitch_bend_c, 3, 9752
5, 86964, Pitch_bend_c, 3, 10792
5, 86978, Pitch_bend_c, 3, 11962
5, 86996, Pitch_bend_c, 3, 12352
5, 87006, Pitch_bend_c, 3, 13522
5, 87022, Pitch_bend_c, 3, 14042
5, 87034, Pitch_bend_c, 3, 14692
5, 87054, Pitch_bend_c, 3, 15472
5, 87068, Pitch_bend_c, 3, 15602
5, 87076, Pitch_bend_c, 3, 15732
5, 87094, Pitch_bend_c, 3, 15342
5, 87106, Pitch_bend_c, 3, 14822
5, 87120, Pitch_bend_c, 3, 14302
5, 87132, Pitch_bend_c, 3, 13782
5, 87146, Pitch_bend_c, 3, 13132
5, 87162, Pitch_bend_c, 3, 12612
5, 87174, Pitch_bend_c, 3, 11832
5, 87190, Pitch_bend_c, 3, 11052
5, 87204, Pitch_bend_c, 3, 10272
5, 87216, Pitch_bend_c, 3, 9362
5, 87230, Pitch_bend_c, 3, 8582
5, 87250, Pitch_bend_c, 3, 8452
5, 87254, Pitch_bend_c, 3, 8192
5, 87328, Note_off_c, 3, 70, 109
5, 87346, Note_on_c, 3, 70, 91
5, 87420, Note_off_c, 3, 70, 91
5, 87550, Note_on_c, 3, 70, 100
5, 87716, Note_off_c, 3, 70, 100
5, 87836, Note_on_c, 3, 69, 100
5, 88112, Note_off_c, 3, 69, 100
5, 88134, Note_on_c, 3, 67, 100
5, 88188, Note_off_c, 3, 67, 100
5, 88328, Note_on_c, 3, 67, 100
5, 88390, Note_off_c, 3, 67, 100
5, 88518, Note_on_c, 3, 67, 109
5, 88592, Note_off_c, 3, 67, 109
5, 88684, Pitch_bend_c, 3, 7936
5, 88686, Pitch_bend_c, 3, 5248
5, 88704, Pitch_bend_c, 3, 3840
5, 88704, Note_on_c, 3, 69, 101
5, 88714, Pitch_bend_c, 3, 2176
5, 88728, Pitch_bend_c, 3, 2048
5, 88750, Pitch_bend_c, 3, 2176
5, 88756, Pitch_bend_c, 3, 3072
5, 88772, Pitch_bend_c, 3, 4096
5, 88786, Pitch_bend_c, 3, 5120
5, 88802, Pitch_bend_c, 3, 5504
5, 88816, Pitch_bend_c, 3, 6400
5, 88826, Pitch_bend_c, 3, 7424
5, 88846, Pitch_bend_c, 3, 7936
5, 88852, Pitch_bend_c, 3, 8192
5, 88980, Note_off_c, 3, 69, 101
5, 88996, Note_on_c, 3, 65, 98
5, 89440, Note_off_c, 3, 65, 98
5, 89768, Note_on_c, 3, 62, 82
5, 89812, Note_off_c, 3, 62, 82
5, 89834, Note_on_c, 3, 69, 91
5, 89846, Note_on_c, 3, 65, 109
5, 89870, Control_c, 3, 1, 1
5, 89880, Note_off_c, 3, 69, 91
5, 89882, Control_c, 3, 1, 13
5, 89898, Control_c, 3, 1, 28
5, 89902, Note_off_c, 3, 65, 109
5, 89918, Control_c, 3, 1, 37
5, 89936, Control_c, 3, 1, 41
5, 89970, Control_c, 3, 1, 31
5, 89992, Control_c, 3, 1, 21
5, 90012, Control_c, 3, 1, 4
5, 90026, Control_c, 3, 1, 1
5, 90034, Note_on_c, 3, 65, 100
5, 90038, Note_on_c, 3, 69, 82
5, 90082, Control_c, 3, 1, 6
5, 90086, Note_off_c, 3, 69, 82
5, 90102, Note_off_c, 3, 65, 100
5, 90102, Control_c, 3, 1, 1
5, 90128, Note_on_c, 3, 62, 82
5, 90130, Note_on_c, 3, 69, 91
5, 90136, Control_c, 3, 1, 0
5, 90174, Note_off_c, 3, 69, 91
5, 90178, Note_off_c, 3, 62, 82
5, 90210, Note_on_c, 3, 70, 91
5, 90218, Note_on_c, 3, 65, 109
5, 90228, Control_c, 3, 1, 16
5, 90246, Control_c, 3, 1, 31
5, 90260, Control_c, 3, 1, 53
5, 90282, Control_c, 3, 1, 60
5, 90296, Control_c, 3, 1, 63
5, 90332, Control_c, 3, 1, 60
5, 90354, Control_c, 3, 1, 49
5, 90366, Control_c, 3, 1, 33
5, 90388, Control_c, 3, 1, 13
5, 90398, Note_off_c, 3, 65, 109
5, 90404, Control_c, 3, 1, 0
5, 90408, Note_off_c, 3, 70, 91
5, 90420, Note_on_c, 3, 62, 91
5, 90432, Note_on_c, 3, 69, 91
5, 90466, Note_off_c, 3, 62, 91
5, 90490, Note_off_c, 3, 69, 91
5, 90520, Note_on_c, 3, 65, 109
5, 90528, Note_on_c, 3, 72, 82
5, 90578, Note_off_c, 3, 65, 109
5, 90588, Note_off_c, 3, 72, 82
5, 90706, Note_on_c, 3, 65, 109
5, 90714, Note_on_c, 3, 72, 100
5, 90764, Note_off_c, 3, 65, 109
5, 90784, Note_off_c, 3, 72, 100
5, 90892, Note_on_c, 3, 65, 100
5, 90902, Note_on_c, 3, 72, 100
5, 90924, Control_c, 3, 1, 13
5, 90944, Control_c, 3, 1, 25
5, 90964, Control_c, 3, 1, 37
5, 90982, Control_c, 3, 1, 43
5, 90996, Control_c, 3, 1, 50
5, 91020, Control_c, 3, 1, 55
5, 91034, Control_c, 3, 1, 59
5, 91056, Control_c, 3, 1, 60
5, 91082, Control_c, 3, 1, 59
5, 91090, Control_c, 3, 1, 53
5, 91106, Control_c, 3, 1, 40
5, 91126, Control_c, 3, 1, 24
5, 91142, Control_c, 3, 1, 1
5, 91156, Note_off_c, 3, 65, 100
5, 91164, Control_c, 3, 1, 0
5, 91176, Note_off_c, 3, 72, 100
5, 91176, Note_on_c, 3, 65, 64
5, 91224, Note_off_c, 3, 65, 64
5, 93100, Pitch_bend_c, 3, 9622
5, 93108, Note_on_c, 3, 70, 109
5, 93114, Pitch_bend_c, 3, 13782
5, 93124, Pitch_bend_c, 3, 16382
5, 93284, Pitch_bend_c, 3, 15992
5, 93292, Pitch_bend_c, 3, 15212
5, 93308, Pitch_bend_c, 3, 14042
5, 93322, Pitch_bend_c, 3, 13262
5, 93334, Pitch_bend_c, 3, 12742
5, 93348, Pitch_bend_c, 3, 11832
5, 93362, Pitch_bend_c, 3, 11052
5, 93378, Pitch_bend_c, 3, 10272
5, 93390, Pitch_bend_c, 3, 10012
5, 93406, Pitch_bend_c, 3, 8972
5, 93420, Pitch_bend_c, 3, 8322
5, 93428, Pitch_bend_c, 3, 8192
5, 93454, Note_off_c, 3, 70, 109
5, 93492, Note_on_c, 3, 70, 100
5, 93566, Note_off_c, 3, 70, 100
5, 93692, Note_on_c, 3, 69, 109
5, 93752, Note_off_c, 3, 69, 109
5, 93906, Note_on_c, 3, 70, 100
5, 93962, Note_off_c, 3, 70, 100
5, 94012, Note_on_c, 3, 69, 100
5, 94066, Note_off_c, 3, 69, 100
5, 94194, Note_on_c, 3, 67, 109
5, 94248, Control_c, 3, 1, 1
5, 94266, Control_c, 3, 1, 2
5, 94272, Control_c, 3, 1, 9
5, 94290, Control_c, 3, 1, 15
5, 94310, Control_c, 3, 1, 22
5, 94326, Control_c, 3, 1, 31
5, 94344, Control_c, 3, 1, 39
5, 94364, Control_c, 3, 1, 43
5, 94386, Control_c, 3, 1, 45
5, 94400, Control_c, 3, 1, 46
5, 94416, Control_c, 3, 1, 39
5, 94436, Note_off_c, 3, 67, 109
5, 94436, Control_c, 3, 1, 20
5, 94454, Control_c, 3, 1, 2
5, 94470, Control_c, 3, 1, 0
5, 94474, Note_on_c, 3, 67, 101
5, 94524, Note_off_c, 3, 67, 101
5, 94658, Note_on_c, 3, 69, 91
5, 94680, Control_c, 3, 1, 2
5, 94688, Control_c, 3, 1, 19
5, 94710, Control_c, 3, 1, 28
5, 94724, Control_c, 3, 1, 40
5, 94748, Control_c, 3, 1, 44
5, 94758, Control_c, 3, 1, 47
5, 94776, Control_c, 3, 1, 48
5, 94796, Control_c, 3, 1, 45
5, 94812, Control_c, 3, 1, 24
5, 94832, Control_c, 3, 1, 0
5, 94844, Note_off_c, 3, 69, 91
5, 95784, Note_on_c, 3, 60, 100
5, 95978, Note_on_c, 3, 65, 91
5, 95980, Note_off_c, 3, 60, 100
5, 96028, Note_off_c, 3, 65, 91
5, 96180, Note_on_c, 3, 65, 91
5, 96214, Note_off_c, 3, 65, 91
5, 96274, Note_on_c, 3, 67, 100
5, 96340, Note_off_c, 3, 67, 100
5, 96468, Note_on_c, 3, 69, 100
5, 96536, Note_off_c, 3, 69, 100
5, 96658, Note_on_c, 3, 69, 109
5, 96844, Pitch_bend_c, 3, 7936
5, 96850, Pitch_bend_c, 3, 7168
5, 96864, Pitch_bend_c, 3, 5632
5, 96876, Pitch_bend_c, 3, 5376
5, 96896, Pitch_bend_c, 3, 5248
5, 96904, Pitch_bend_c, 3, 4992
5, 96940, Pitch_bend_c, 3, 5248
5, 96946, Pitch_bend_c, 3, 6016
5, 96960, Pitch_bend_c, 3, 7680
5, 96976, Pitch_bend_c, 3, 8192
5, 97096, Control_c, 3, 1, 1
5, 97102, Control_c, 3, 1, 9
5, 97118, Control_c, 3, 1, 22
5, 97134, Control_c, 3, 1, 35
5, 97158, Control_c, 3, 1, 51
5, 97172, Control_c, 3, 1, 59
5, 97188, Control_c, 3, 1, 62
5, 97218, Control_c, 3, 1, 59
5, 97224, Control_c, 3, 1, 43
5, 97244, Control_c, 3, 1, 18
5, 97258, Note_off_c, 3, 69, 109
5, 97262, Control_c, 3, 1, 0
5, 99252, Note_on_c, 3, 65, 91
5, 99402, Note_off_c, 3, 65, 91
5, 99442, Note_on_c, 3, 65, 100
5, 99444, Control_c, 3, 1, 15
5, 99458, Control_c, 3, 1, 31
5, 99474, Control_c, 3, 1, 46
5, 99498, Control_c, 3, 1, 48
5, 99530, Control_c, 3, 1, 46
5, 99546, Control_c, 3, 1, 41
5, 99564, Control_c, 3, 1, 32
5, 99582, Control_c, 3, 1, 15
5, 99594, Note_off_c, 3, 65, 100
5, 99602, Control_c, 3, 1, 1
5, 99624, Control_c, 3, 1, 0
5, 99636, Note_on_c, 3, 65, 91
5, 99700, Note_off_c, 3, 65, 91
5, 99734, Note_on_c, 3, 69, 100
5, 99756, Control_c, 3, 1, 1
5, 99762, Control_c, 3, 1, 19
5, 99780, Control_c, 3, 1, 35
5, 99802, Control_c, 3, 1, 42
5, 99836, Control_c, 3, 1, 35
5, 99856, Control_c, 3, 1, 24
5, 99870, Control_c, 3, 1, 7
5, 99888, Control_c, 3, 1, 1
5, 99908, Control_c, 3, 1, 0
5, 99918, Note_off_c, 3, 69, 100
5, 99958, Note_on_c, 3, 69, 100
5, 100124, Note_off_c, 3, 69, 100
5, 100144, Note_on_c, 3, 72, 100
5, 100208, Note_off_c, 3, 72, 100
5, 100414, Note_on_c, 3, 65, 91
5, 100458, Note_off_c, 3, 65, 91
5, 100518, Note_on_c, 3, 65, 100
5, 100530, Control_c, 3, 1, 2
5, 100536, Control_c, 3, 1, 22
5, 100554, Control_c, 3, 1, 38
5, 100572, Control_c, 3, 1, 51
5, 100590, Control_c, 3, 1, 63
5, 100612, Control_c, 3, 1, 68
5, 100626, Control_c, 3, 1, 71
5, 100672, Control_c, 3, 1, 69
5, 100680, Control_c, 3, 1, 64
5, 100698, Control_c, 3, 1, 52
5, 100718, Control_c, 3, 1, 37
5, 100734, Control_c, 3, 1, 13
5, 100744, Note_off_c, 3, 65, 100
5, 100754, Control_c, 3, 1, 1
5, 100770, Control_c, 3, 1, 0
5, 100784, Note_on_c, 3, 65, 91
5, 100840, Note_off_c, 3, 65, 91
5, 100888, Note_on_c, 3, 69, 109
5, 100938, Note_off_c, 3, 69, 109
5, 101078, Note_on_c, 3, 65, 109
5, 101106, Control_c, 3, 1, 3
5, 101114, Control_c, 3, 1, 19
5, 101132, Control_c, 3, 1, 34
5, 101150, Control_c, 3, 1, 42
5, 101168, Control_c, 3, 1, 49
5, 101188, Control_c, 3, 1, 55
5, 101202, Control_c, 3, 1, 57
5, 101226, Control_c, 3, 1, 58
5, 101240, Control_c, 3, 1, 60
5, 101262, Control_c, 3, 1, 62
5, 101280, Control_c, 3, 1, 63
5, 101294, Control_c, 3, 1, 67
5, 101312, Control_c, 3, 1, 73
5, 101328, Control_c, 3, 1, 79
5, 101354, Control_c, 3, 1, 81
5, 101368, Control_c, 3, 1, 82
5, 101384, Control_c, 3, 1, 74
5, 101400, Control_c, 3, 1, 46
5, 101422, Control_c, 3, 1, 1
5, 101430, Note_off_c, 3, 65, 109
5, 101436, Control_c, 3, 1, 0
5, 102050, Note_on_c, 3, 62, 64
5, 102096, Note_off_c, 3, 62, 64
5, 102132, Note_on_c, 3, 65, 109
5, 102164, Control_c, 3, 1, 1
5, 102178, Control_c, 3, 1, 12
5, 102192, Control_c, 3, 1, 26
5, 102210, Control_c, 3, 1, 33
5, 102230, Control_c, 3, 1, 38
5, 102252, Control_c, 3, 1, 39
5, 102272, Control_c, 3, 1, 34
5, 102276, Note_off_c, 3, 65, 109
5, 102284, Control_c, 3, 1, 26
5, 102302, Control_c, 3, 1, 10
5, 102324, Control_c, 3, 1, 1
5, 102324, Note_on_c, 3, 65, 100
5, 102338, Control_c, 3, 1, 0
5, 102382, Note_off_c, 3, 65, 100
5, 102428, Note_on_c, 3, 67, 100
5, 102488, Note_off_c, 3, 67, 100
5, 102612, Note_on_c, 3, 69, 100
5, 102680, Note_off_c, 3, 69, 100
5, 102800, Note_on_c, 3, 69, 109
5, 102924, Pitch_bend_c, 3, 6528
5, 102938, Pitch_bend_c, 3, 5888
5, 102952, Pitch_bend_c, 3, 4736
5, 102968, Pitch_bend_c, 3, 4480
5, 102980, Pitch_bend_c, 3, 4224
5, 102994, Pitch_bend_c, 3, 4736
5, 103008, Pitch_bend_c, 3, 6528
5, 103024, Pitch_bend_c, 3, 7808
5, 103036, Pitch_bend_c, 3, 8192
5, 103322, Note_off_c, 3, 69, 109
5, 105512, Note_on_c, 3, 69, 91
5, 105548, Control_c, 3, 1, 1
5, 105562, Control_c, 3, 1, 8
5, 105576, Control_c, 3, 1, 18
5, 105598, Control_c, 3, 1, 24
5, 105612, Control_c, 3, 1, 34
5, 105630, Control_c, 3, 1, 43
5, 105652, Control_c, 3, 1, 49
5, 105666, Control_c, 3, 1, 57
5, 105688, Control_c, 3, 1, 59
5, 105702, Control_c, 3, 1, 62
5, 105722, Control_c, 3, 1, 58
5, 105740, Control_c, 3, 1, 39
5, 105760, Control_c, 3, 1, 19
5, 105774, Control_c, 3, 1, 1
5, 105786, Note_off_c, 3, 69, 91
5, 105786, Note_on_c, 3, 62, 82
5, 105800, Control_c, 3, 1, 0
5, 105826, Note_off_c, 3, 62, 82
5, 106556, Note_on_c, 3, 62, 100
5, 106612, Note_off_c, 3, 62, 100
5, 106744, Note_on_c, 3, 65, 100
5, 106806, Note_off_c, 3, 65, 100
5, 106848, Note_on_c, 3, 67, 100
5, 106926, Note_off_c, 3, 67, 100
5, 107036, Note_on_c, 3, 69, 109
5, 107206, Pitch_bend_c, 3, 8064
5, 107208, Pitch_bend_c, 3, 6528
5, 107222, Pitch_bend_c, 3, 4992
5, 107236, Pitch_bend_c, 3, 4096
5, 107252, Pitch_bend_c, 3, 3584
5, 107268, Pitch_bend_c, 3, 3456
5, 107298, Pitch_bend_c, 3, 3968
5, 107306, Pitch_bend_c, 3, 4864
5, 107322, Pitch_bend_c, 3, 5504
5, 107334, Pitch_bend_c, 3, 6784
5, 107348, Pitch_bend_c, 3, 7680
5, 107356, Pitch_bend_c, 3, 8192
5, 107478, Control_c, 3, 1, 1
5, 107490, Control_c, 3, 1, 13
5, 107504, Control_c, 3, 1, 27
5, 107524, Control_c, 3, 1, 42
5, 107538, Control_c, 3, 1, 54
5, 107558, Control_c, 3, 1, 59
5, 107576, Control_c, 3, 1, 60
5, 107596, Note_off_c, 3, 69, 109
5, 107598, Control_c, 3, 1, 57
5, 107610, Control_c, 3, 1, 46
5, 107628, Control_c, 3, 1, 38
5, 107646, Control_c, 3, 1, 27
5, 107664, Control_c, 3, 1, 15
5, 107686, Control_c, 3, 1, 4
5, 107700, Control_c, 3, 1, 1
5, 107722, Control_c, 3, 1, 0
5, 107910, Note_on_c, 3, 62, 91
5, 107952, Note_off_c, 3, 62, 91
5, 107998, Note_on_c, 3, 62, 91
5, 108044, Note_off_c, 3, 62, 91
5, 108076, Note_on_c, 3, 64, 100
5, 108122, Note_off_c, 3, 64, 100
5, 108190, Note_on_c, 3, 65, 98
5, 108232, Note_off_c, 3, 65, 98
5, 108374, Note_on_c, 3, 67, 100
5, 108420, Note_off_c, 3, 67, 100
5, 108556, Note_on_c, 3, 69, 107
5, 108634, Control_c, 3, 1, 1
5, 108658, Control_c, 3, 1, 8
5, 108674, Control_c, 3, 1, 16
5, 108690, Control_c, 3, 1, 24
5, 108712, Control_c, 3, 1, 30
5, 108728, Control_c, 3, 1, 36
5, 108744, Control_c, 3, 1, 40
5, 108764, Control_c, 3, 1, 42
5, 108780, Control_c, 3, 1, 44
5, 108836, Control_c, 3, 1, 41
5, 108852, Control_c, 3, 1, 30
5, 108874, Control_c, 3, 1, 17
5, 108888, Control_c, 3, 1, 1
5, 108898, Note_off_c, 3, 69, 107
5, 108906, Control_c, 3, 1, 0
5, 109730, Note_on_c, 3, 60, 73
5, 109780, Note_off_c, 3, 60, 73
5, 109814, Note_on_c, 3, 64, 100
5, 109872, Note_off_c, 3, 64, 100
5, 109914, Note_on_c, 3, 65, 100
5, 110028, Note_off_c, 3, 65, 100
5, 110106, Note_on_c, 3, 67, 100
5, 110154, Control_c, 3, 1, 1
5, 110178, Control_c, 3, 1, 6
5, 110186, Control_c, 3, 1, 13
5, 110202, Control_c, 3, 1, 27
5, 110224, Control_c, 3, 1, 35
5, 110238, Control_c, 3, 1, 45
5, 110262, Control_c, 3, 1, 52
5, 110276, Control_c, 3, 1, 57
5, 110308, Control_c, 3, 1, 56
5, 110312, Control_c, 3, 1, 44
5, 110334, Control_c, 3, 1, 24
5, 110336, Note_off_c, 3, 67, 100
5, 110348, Control_c, 3, 1, 0
5, 110516, Note_on_c, 3, 60, 82
5, 110556, Note_off_c, 3, 60, 82
5, 110594, Note_on_c, 3, 62, 109
5, 110636, Control_c, 3, 1, 8
5, 110652, Control_c, 3, 1, 24
5, 110674, Control_c, 3, 1, 37
5, 110688, Control_c, 3, 1, 51
5, 110710, Control_c, 3, 1, 57
5, 110730, Control_c, 3, 1, 58
5, 110746, Control_c, 3, 1, 54
5, 110762, Control_c, 3, 1, 35
5, 110764, Note_off_c, 3, 62, 109
5, 110786, Control_c, 3, 1, 15
5, 110786, Note_on_c, 3, 65, 100
5, 110796, Control_c, 3, 1, 1
5, 110816, Control_c, 3, 1, 0
5, 110834, Note_off_c, 3, 65, 100
5, 110890, Note_on_c, 3, 65, 109
5, 110946, Note_off_c, 3, 65, 109
5, 111072, Note_on_c, 3, 67, 91
5, 111148, Note_off_c, 3, 67, 91
5, 111236, Pitch_bend_c, 3, 8322
5, 111240, Pitch_bend_c, 3, 9492
5, 111254, Pitch_bend_c, 3, 10922
5, 111270, Pitch_bend_c, 3, 11832
5, 111282, Pitch_bend_c, 3, 12352
5, 111298, Note_on_c, 3, 67, 100
5, 111302, Pitch_bend_c, 3, 12482
5, 111316, Pitch_bend_c, 3, 12872
5, 111326, Pitch_bend_c, 3, 13262
5, 111340, Pitch_bend_c, 3, 13392
5, 111380, Pitch_bend_c, 3, 12872
5, 111394, Pitch_bend_c, 3, 12352
5, 111414, Pitch_bend_c, 3, 12092
5, 111424, Pitch_bend_c, 3, 11702
5, 111440, Pitch_bend_c, 3, 11312
5, 111454, Pitch_bend_c, 3, 10792
5, 111470, Pitch_bend_c, 3, 10532
5, 111484, Pitch_bend_c, 3, 10402
5, 111492, Pitch_bend_c, 3, 9752
5, 111506, Pitch_bend_c, 3, 8712
5, 111526, Pitch_bend_c, 3, 8322
5, 111530, Pitch_bend_c, 3, 8192
5, 111574, Note_off_c, 3, 67, 100
5, 111588, Pitch_bend_c, 3, 8322
5, 111616, Pitch_bend_c, 3, 8972
5, 111620, Pitch_bend_c, 3, 10012
5, 111628, Note_on_c, 3, 67, 100
5, 111634, Pitch_bend_c, 3, 11832
5, 111650, Pitch_bend_c, 3, 12482
5, 111666, Pitch_bend_c, 3, 13392
5, 111680, Pitch_bend_c, 3, 13522
5, 111714, Pitch_bend_c, 3, 13392
5, 111720, Pitch_bend_c, 3, 13002
5, 111732, Pitch_bend_c, 3, 12612
5, 111744, Pitch_bend_c, 3, 12092
5, 111760, Pitch_bend_c, 3, 11702
5, 111772, Pitch_bend_c, 3, 11052
5, 111786, Pitch_bend_c, 3, 10402
5, 111802, Pitch_bend_c, 3, 9882
5, 111814, Pitch_bend_c, 3, 9362
5, 111830, Pitch_bend_c, 3, 8972
5, 111864, Pitch_bend_c, 3, 9102
5, 111868, Note_off_c, 3, 67, 100
5, 111870, Pitch_bend_c, 3, 10142
5, 111888, Pitch_bend_c, 3, 11442
5, 111902, Pitch_bend_c, 3, 12352
5, 111916, Pitch_bend_c, 3, 14822
5, 111924, Note_on_c, 3, 67, 109
5, 111928, Pitch_bend_c, 3, 16382
5, 112082, Note_off_c, 3, 67, 109
5, 112254, Pitch_bend_c, 3, 15862
5, 112262, Pitch_bend_c, 3, 14432
5, 112278, Pitch_bend_c, 3, 13262
5, 112290, Pitch_bend_c, 3, 7808
5, 112298, Pitch_bend_c, 3, 8192
5, 112306, Pitch_bend_c, 3, 8452
5, 112310, Note_on_c, 3, 62, 100
5, 112318, Pitch_bend_c, 3, 8192
5, 112356, Note_off_c, 3, 62, 100
5, 112506, Note_on_c, 3, 62, 109
5, 112538, Note_off_c, 3, 62, 109
5, 112592, Note_on_c, 3, 62, 100
5, 112642, Note_off_c, 3, 62, 100
5, 112674, Note_on_c, 3, 64, 100
5, 112746, Note_off_c, 3, 64, 100
5, 112780, Note_on_c, 3, 65, 100
5, 112846, Note_off_c, 3, 65, 100
5, 112978, Note_on_c, 3, 67, 100
5, 113034, Note_off_c, 3, 67, 100
5, 113174, Note_on_c, 3, 69, 109
5, 113294, Control_c, 3, 1, 1
5, 113310, Control_c, 3, 1, 2
5, 113316, Control_c, 3, 1, 9
5, 113334, Control_c, 3, 1, 22
5, 113354, Control_c, 3, 1, 32
5, 113372, Control_c, 3, 1, 46
5, 113394, Control_c, 3, 1, 54
5, 113408, Control_c, 3, 1, 61
5, 113426, Control_c, 3, 1, 63
5, 113444, Control_c, 3, 1, 56
5, 113462, Control_c, 3, 1, 37
5, 113478, Control_c, 3, 1, 1
5, 113484, Note_off_c, 3, 69, 109
5, 113498, Control_c, 3, 1, 0
5, 114036, Note_on_c, 3, 62, 91
5, 114094, Note_off_c, 3, 62, 91
5, 114226, Note_on_c, 3, 64, 100
5, 114280, Note_off_c, 3, 64, 100
5, 114332, Note_on_c, 3, 65, 91
5, 114402, Note_off_c, 3, 65, 91
5, 114526, Note_on_c, 3, 67, 109
5, 114610, Note_off_c, 3, 67, 109
5, 114718, Pitch_bend_c, 3, 8452
5, 114728, Note_on_c, 3, 67, 107
5, 114736, Pitch_bend_c, 3, 8972
5, 114740, Pitch_bend_c, 3, 9622
5, 114756, Pitch_bend_c, 3, 10142
5, 114768, Pitch_bend_c, 3, 10792
5, 114784, Pitch_bend_c, 3, 11182
5, 114800, Pitch_bend_c, 3, 11442
5, 114818, Pitch_bend_c, 3, 11702
5, 114824, Pitch_bend_c, 3, 11962
5, 114854, Pitch_bend_c, 3, 12092
5, 114886, Pitch_bend_c, 3, 11832
5, 114896, Pitch_bend_c, 3, 11442
5, 114908, Pitch_bend_c, 3, 10922
5, 114926, Pitch_bend_c, 3, 10662
5, 114936, Pitch_bend_c, 3, 10012
5, 114954, Pitch_bend_c, 3, 9622
5, 114966, Pitch_bend_c, 3, 9232
5, 114978, Pitch_bend_c, 3, 8582
5, 114994, Pitch_bend_c, 3, 8322
5, 115000, Pitch_bend_c, 3, 8192
5, 115160, Note_off_c, 3, 67, 107
5, 115572, Note_on_c, 3, 60, 100
5, 115750, Note_off_c, 3, 60, 100
5, 115770, Note_on_c, 3, 62, 100
5, 115828, Note_off_c, 3, 62, 100
5, 115874, Note_on_c, 3, 64, 100
5, 115932, Note_off_c, 3, 64, 100
5, 116066, Note_on_c, 3, 65, 100
5, 116132, Note_off_c, 3, 65, 100
5, 116256, Note_on_c, 3, 67, 107
5, 116378, Control_c, 3, 1, 3
5, 116394, Control_c, 3, 1, 11
5, 116412, Control_c, 3, 1, 20
5, 116430, Control_c, 3, 1, 30
5, 116452, Control_c, 3, 1, 35
5, 116470, Control_c, 3, 1, 36
5, 116496, Control_c, 3, 1, 33
5, 116502, Control_c, 3, 1, 16
5, 116520, Control_c, 3, 1, 0
5, 116538, Note_off_c, 3, 67, 107
5, 116644, Note_on_c, 3, 60, 91
5, 116706, Note_off_c, 3, 60, 91
5, 116736, Note_on_c, 3, 62, 100
5, 116802, Note_off_c, 3, 62, 100
5, 116928, Note_on_c, 3, 65, 100
5, 116978, Note_off_c, 3, 65, 100
5, 117026, Note_on_c, 3, 65, 91
5, 117098, Note_off_c, 3, 65, 91
5, 117208, Note_on_c, 3, 67, 100
5, 117302, Note_off_c, 3, 67, 100
5, 117422, Pitch_bend_c, 3, 8712
5, 117422, Note_on_c, 3, 67, 100
5, 117432, Pitch_bend_c, 3, 9232
5, 117446, Pitch_bend_c, 3, 9882
5, 117462, Pitch_bend_c, 3, 10012
5, 117494, Pitch_bend_c, 3, 10142
5, 117498, Pitch_bend_c, 3, 10792
5, 117514, Pitch_bend_c, 3, 11312
5, 117526, Pitch_bend_c, 3, 11962
5, 117540, Pitch_bend_c, 3, 12612
5, 117554, Pitch_bend_c, 3, 13132
5, 117568, Pitch_bend_c, 3, 13782
5, 117582, Pitch_bend_c, 3, 14042
5, 117598, Pitch_bend_c, 3, 14172
5, 117624, Pitch_bend_c, 3, 13392
5, 117640, Pitch_bend_c, 3, 12092
5, 117652, Pitch_bend_c, 3, 10012
5, 117666, Pitch_bend_c, 3, 8712
5, 117682, Pitch_bend_c, 3, 8452
5, 117690, Pitch_bend_c, 3, 8192
5, 117734, Note_off_c, 3, 67, 100
5, 117858, Note_on_c, 3, 70, 100
5, 117918, Pitch_bend_c, 3, 8972
5, 117934, Pitch_bend_c, 3, 9752
5, 117948, Pitch_bend_c, 3, 10272
5, 117964, Pitch_bend_c, 3, 10662
5, 117978, Pitch_bend_c, 3, 11442
5, 117990, Pitch_bend_c, 3, 11962
5, 118004, Pitch_bend_c, 3, 13262
5, 118016, Pitch_bend_c, 3, 14172
5, 118032, Pitch_bend_c, 3, 14952
5, 118044, Pitch_bend_c, 3, 15212
5, 118058, Pitch_bend_c, 3, 15602
5, 118072, Pitch_bend_c, 3, 16382
5, 118428, Pitch_bend_c, 3, 15732
5, 118436, Pitch_bend_c, 3, 14952
5, 118450, Pitch_bend_c, 3, 13912
5, 118464, Pitch_bend_c, 3, 13132
5, 118480, Pitch_bend_c, 3, 12482
5, 118496, Pitch_bend_c, 3, 11832
5, 118506, Pitch_bend_c, 3, 10662
5, 118520, Pitch_bend_c, 3, 9492
5, 118536, Pitch_bend_c, 3, 8582
5, 118548, Pitch_bend_c, 3, 8322
5, 118552, Pitch_bend_c, 3, 8192
5, 118628, Note_on_c, 3, 69, 82
5, 118636, Note_off_c, 3, 70, 100
5, 118688, Control_c, 3, 1, 1
5, 118714, Control_c, 3, 1, 2
5, 118716, Control_c, 3, 1, 9
5, 118734, Control_c, 3, 1, 17
5, 118752, Control_c, 3, 1, 22
5, 118770, Control_c, 3, 1, 29
5, 118790, Control_c, 3, 1, 35
5, 118808, Control_c, 3, 1, 39
5, 118824, Control_c, 3, 1, 42
5, 118832, Note_off_c, 3, 69, 82
5, 118842, Control_c, 3, 1, 47
5, 118858, Note_on_c, 3, 62, 82
5, 118862, Control_c, 3, 1, 52
5, 118878, Control_c, 3, 1, 57
5, 118896, Control_c, 3, 1, 59
5, 118914, Control_c, 3, 1, 65
5, 118936, Control_c, 3, 1, 70
5, 118952, Control_c, 3, 1, 73
5, 118978, Control_c, 3, 1, 74
5, 118994, Control_c, 3, 1, 71
5, 119004, Control_c, 3, 1, 56
5, 119022, Control_c, 3, 1, 25
5, 119026, Note_off_c, 3, 62, 82
5, 119040, Control_c, 3, 1, 1
5, 119042, Note_on_c, 3, 69, 100
5, 119066, Control_c, 3, 1, 0
5, 119070, Control_c, 3, 1, 6
5, 119076, Control_c, 3, 1, 12
5, 119094, Control_c, 3, 1, 15
5, 119112, Control_c, 3, 1, 16
5, 119148, Control_c, 3, 1, 13
5, 119168, Control_c, 3, 1, 5
5, 119190, Control_c, 3, 1, 1
5, 119232, Note_off_c, 3, 69, 100
5, 119254, Control_c, 3, 1, 0
5, 119260, Control_c, 3, 1, 1
5, 119302, Note_on_c, 3, 69, 100
5, 119402, Control_c, 3, 1, 0
5, 119470, Note_off_c, 3, 69, 100
5, 119588, Note_on_c, 3, 69, 100
5, 119678, Pitch_bend_c, 3, 7936
5, 119682, Pitch_bend_c, 3, 6528
5, 119694, Pitch_bend_c, 3, 8192
5, 119696, Pitch_bend_c, 3, 4864
5, 119710, Pitch_bend_c, 3, 3584
5, 119724, Pitch_bend_c, 3, 2944
5, 119738, Pitch_bend_c, 3, 2560
5, 119762, Pitch_bend_c, 3, 2688
5, 119768, Pitch_bend_c, 3, 3072
5, 119780, Pitch_bend_c, 3, 4352
5, 119794, Pitch_bend_c, 3, 4864
5, 119810, Pitch_bend_c, 3, 5248
5, 119824, Pitch_bend_c, 3, 5760
5, 119836, Pitch_bend_c, 3, 6272
5, 119852, Pitch_bend_c, 3, 7552
5, 119864, Pitch_bend_c, 3, 7808
5, 119870, Pitch_bend_c, 3, 8192
5, 119950, Control_c, 3, 1, 1
5, 120002, Control_c, 3, 1, 3
5, 120014, Control_c, 3, 1, 8
5, 120030, Control_c, 3, 1, 12
5, 120050, Control_c, 3, 1, 17
5, 120070, Control_c, 3, 1, 20
5, 120084, Control_c, 3, 1, 24
5, 120102, Control_c, 3, 1, 30
5, 120122, Control_c, 3, 1, 34
5, 120140, Control_c, 3, 1, 39
5, 120160, Control_c, 3, 1, 44
5, 120176, Control_c, 3, 1, 49
5, 120192, Control_c, 3, 1, 55
5, 120212, Control_c, 3, 1, 60
5, 120230, Control_c, 3, 1, 64
5, 120246, Control_c, 3, 1, 67
5, 120266, Control_c, 3, 1, 69
5, 120292, Note_off_c, 3, 69, 100
5, 120300, Note_on_c, 3, 62, 91
5, 120312, Control_c, 3, 1, 68
5, 120318, Control_c, 3, 1, 65
5, 120338, Control_c, 3, 1, 60
5, 120342, Note_off_c, 3, 62, 91
5, 120362, Control_c, 3, 1, 57
5, 120372, Control_c, 3, 1, 39
5, 120382, Note_on_c, 3, 65, 100
5, 120394, Control_c, 3, 1, 1
5, 120416, Control_c, 3, 1, 0
5, 120430, Note_off_c, 3, 65, 100
5, 120468, Note_on_c, 3, 67, 100
5, 120536, Note_off_c, 3, 67, 100
5, 120560, Note_on_c, 3, 69, 100
5, 120694, Note_off_c, 3, 69, 100
5, 120750, Note_on_c, 3, 72, 100
5, 120928, Note_off_c, 3, 72, 100
5, 120936, Note_on_c, 3, 72, 100
5, 120944, Pitch_bend_c, 3, 10272
5, 120962, Pitch_bend_c, 3, 12222
5, 120970, Pitch_bend_c, 3, 14302
5, 120988, Pitch_bend_c, 3, 15602
5, 120998, Pitch_bend_c, 3, 16382
5, 121088, Pitch_bend_c, 3, 16252
5, 121096, Pitch_bend_c, 3, 14952
5, 121116, Pitch_bend_c, 3, 13522
5, 121128, Pitch_bend_c, 3, 11962
5, 121144, Pitch_bend_c, 3, 10142
5, 121156, Pitch_bend_c, 3, 8842
5, 121168, Pitch_bend_c, 3, 8192
5, 121234, Note_off_c, 3, 72, 100
5, 121242, Note_on_c, 3, 69, 82
5, 121284, Note_off_c, 3, 69, 82
5, 121890, Note_on_c, 3, 60, 91
5, 121906, Control_c, 3, 1, 1
5, 121920, Control_c, 3, 1, 14
5, 121940, Control_c, 3, 1, 26
5, 121960, Control_c, 3, 1, 39
5, 121976, Control_c, 3, 1, 47
5, 121992, Control_c, 3, 1, 60
5, 122012, Control_c, 3, 1, 67
5, 122032, Control_c, 3, 1, 66
5, 122046, Control_c, 3, 1, 47
5, 122068, Control_c, 3, 1, 16
5, 122084, Note_off_c, 3, 60, 91
5, 122084, Control_c, 3, 1, 0
5, 122086, Pitch_bend_c, 3, 8064
5, 122096, Pitch_bend_c, 3, 4992
5, 122102, Note_on_c, 3, 77, 93
5, 122108, Pitch_bend_c, 3, 1664
5, 122122, Pitch_bend_c, 3, 0
5, 122154, Pitch_bend_c, 3, 384
5, 122162, Pitch_bend_c, 3, 1664
5, 122174, Pitch_bend_c, 3, 3712
5, 122190, Pitch_bend_c, 3, 5376
5, 122206, Pitch_bend_c, 3, 6528
5, 122216, Pitch_bend_c, 3, 8064
5, 122232, Pitch_bend_c, 3, 8192
5, 122344, Note_off_c, 3, 77, 93
5, 122360, Note_on_c, 3, 65, 81
5, 122432, Control_c, 3, 1, 1
5, 122518, Control_c, 3, 1, 0
5, 122634, Note_off_c, 3, 65, 81
5, 122670, Note_on_c, 3, 65, 98
5, 122700, Control_c, 3, 1, 1
5, 122744, Control_c, 3, 1, 0
5, 122848, Note_off_c, 3, 65, 98
5, 122874, Note_on_c, 3, 65, 109
5, 122884, Control_c, 3, 1, 10
5, 122892, Control_c, 3, 1, 27
5, 122914, Control_c, 3, 1, 36
5, 122928, Control_c, 3, 1, 43
5, 122948, Control_c, 3, 1, 48
5, 122964, Control_c, 3, 1, 53
5, 122982, Control_c, 3, 1, 59
5, 123006, Control_c, 3, 1, 62
5, 123020, Control_c, 3, 1, 66
5, 123036, Control_c, 3, 1, 70
5, 123056, Control_c, 3, 1, 73
5, 123072, Control_c, 3, 1, 77
5, 123092, Control_c, 3, 1, 79
5, 123108, Control_c, 3, 1, 82
5, 123136, Control_c, 3, 1, 83
5, 123196, Control_c, 3, 1, 81
5, 123200, Control_c, 3, 1, 61
5, 123222, Control_c, 3, 1, 29
5, 123242, Control_c, 3, 1, 1
5, 123254, Control_c, 3, 1, 0
5, 123264, Note_off_c, 3, 65, 109
5, 123658, Control_c, 3, 1, 3
5, 123658, Note_on_c, 3, 72, 100
5, 123658, Note_on_c, 3, 69, 100
5, 123668, Control_c, 3, 1, 19
5, 123684, Control_c, 3, 1, 33
5, 123704, Control_c, 3, 1, 35
5, 123720, Control_c, 3, 1, 22
5, 123742, Control_c, 3, 1, 10
5, 123758, Control_c, 3, 1, 1
5, 123760, Note_off_c, 3, 72, 100
5, 123772, Note_off_c, 3, 69, 100
5, 123790, Control_c, 3, 1, 0
5, 123926, Note_on_c, 3, 65, 91
5, 123930, Note_on_c, 3, 69, 109
5, 123936, Control_c, 3, 1, 19
5, 123956, Control_c, 3, 1, 36
5, 123972, Control_c, 3, 1, 49
5, 123990, Control_c, 3, 1, 61
5, 124010, Control_c, 3, 1, 66
5, 124026, Control_c, 3, 1, 69
5, 124046, Control_c, 3, 1, 71
5, 124088, Control_c, 3, 1, 69
5, 124102, Control_c, 3, 1, 64
5, 124118, Control_c, 3, 1, 57
5, 124134, Control_c, 3, 1, 44
5, 124152, Control_c, 3, 1, 22
5, 124174, Control_c, 3, 1, 0
5, 124186, Note_off_c, 3, 69, 109
5, 124200, Note_off_c, 3, 65, 91
5, 124208, Note_on_c, 3, 67, 91
5, 124212, Note_on_c, 3, 70, 91
5, 124380, Note_off_c, 3, 67, 91
5, 124384, Note_off_c, 3, 70, 91
5, 124410, Note_on_c, 3, 65, 84
5, 124410, Note_on_c, 3, 69, 92
5, 124412, Control_c, 3, 1, 10
5, 124422, Control_c, 3, 1, 29
5, 124440, Control_c, 3, 1, 42
5, 124458, Control_c, 3, 1, 50
5, 124478, Control_c, 3, 1, 53
5, 124496, Control_c, 3, 1, 55
5, 124520, Control_c, 3, 1, 56
5, 124530, Control_c, 3, 1, 59
5, 124548, Control_c, 3, 1, 64
5, 124568, Control_c, 3, 1, 71
5, 124584, Control_c, 3, 1, 79
5, 124602, Control_c, 3, 1, 84
5, 124620, Control_c, 3, 1, 87
5, 124650, Control_c, 3, 1, 85
5, 124656, Control_c, 3, 1, 74
5, 124674, Control_c, 3, 1, 54
5, 124700, Control_c, 3, 1, 39
5, 124708, Note_off_c, 3, 65, 84
5, 124710, Control_c, 3, 1, 0
5, 124714, Note_off_c, 3, 69, 92
5, 124984, Note_on_c, 3, 69, 82
5, 125164, Note_off_c, 3, 69, 82
5, 125182, Note_on_c, 3, 72, 109
5, 125320, Note_off_c, 3, 72, 109
5, 125476, Note_on_c, 3, 72, 109
5, 125614, Note_off_c, 3, 72, 109
5, 125748, Note_on_c, 3, 72, 109
5, 125776, Pitch_bend_c, 3, 10012
5, 125786, Pitch_bend_c, 3, 13002
5, 125802, Pitch_bend_c, 3, 14562
5, 125814, Pitch_bend_c, 3, 16252
5, 125830, Pitch_bend_c, 3, 16382
5, 125852, Control_c, 3, 1, 1
5, 125894, Control_c, 3, 1, 0
5, 125900, Pitch_bend_c, 3, 15082
5, 125914, Pitch_bend_c, 3, 13132
5, 125930, Pitch_bend_c, 3, 11312
5, 125940, Pitch_bend_c, 3, 9232
5, 125954, Pitch_bend_c, 3, 8582
5, 125970, Pitch_bend_c, 3, 8322
5, 125974, Pitch_bend_c, 3, 8192
5, 126012, Control_c, 3, 1, 1
5, 126026, Control_c, 3, 1, 15
5, 126042, Note_off_c, 3, 72, 109
5, 126048, Control_c, 3, 1, 25
5, 126056, Note_on_c, 3, 69, 81
5, 126060, Control_c, 3, 1, 45
5, 126078, Control_c, 3, 1, 55
5, 126098, Control_c, 3, 1, 65
5, 126114, Control_c, 3, 1, 75
5, 126136, Control_c, 3, 1, 79
5, 126150, Control_c, 3, 1, 89
5, 126174, Control_c, 3, 1, 93
5, 126190, Control_c, 3, 1, 95
5, 126208, Control_c, 3, 1, 96
5, 126222, Control_c, 3, 1, 97
5, 126248, Control_c, 3, 1, 94
5, 126260, Control_c, 3, 1, 82
5, 126276, Control_c, 3, 1, 61
5, 126294, Control_c, 3, 1, 16
5, 126312, Control_c, 3, 1, 0
5, 126340, Note_off_c, 3, 69, 81
5, 126438, Note_on_c, 3, 72, 100
5, 126494, Note_off_c, 3, 72, 100
5, 126610, Note_on_c, 3, 69, 100
5, 126664, Note_off_c, 3, 69, 100
5, 126688, Note_on_c, 3, 72, 109
5, 126754, Note_off_c, 3, 72, 109
5, 126880, Note_on_c, 3, 72, 109
5, 126950, Note_off_c, 3, 72, 109
5, 127070, Note_on_c, 3, 74, 100
5, 127108, Control_c, 3, 1, 9
5, 127126, Control_c, 3, 1, 21
5, 127142, Control_c, 3, 1, 31
5, 127164, Control_c, 3, 1, 37
5, 127178, Control_c, 3, 1, 40
5, 127194, Control_c, 3, 1, 41
5, 127224, Control_c, 3, 1, 39
5, 127230, Control_c, 3, 1, 24
5, 127254, Control_c, 3, 1, 9
5, 127262, Note_off_c, 3, 74, 100
5, 127268, Control_c, 3, 1, 0
5, 127274, Note_on_c, 3, 72, 90
5, 127340, Note_off_c, 3, 72, 90
5, 127396, Note_on_c, 3, 69, 93
5, 127448, Note_off_c, 3, 69, 93
5, 127468, Note_on_c, 3, 72, 109
5, 127472, Note_on_c, 3, 69, 73
5, 127530, Note_off_c, 3, 69, 73
5, 127532, Note_off_c, 3, 72, 109
5, 127676, Note_on_c, 3, 72, 100
5, 127678, Note_on_c, 3, 69, 82
5, 127734, Note_off_c, 3, 69, 82
5, 127742, Note_off_c, 3, 72, 100
5, 127766, Note_on_c, 3, 70, 100
5, 127766, Note_on_c, 3, 74, 100
5, 127800, Control_c, 3, 1, 1
5, 127808, Control_c, 3, 1, 19
5, 127830, Control_c, 3, 1, 34
5, 127842, Control_c, 3, 1, 45
5, 127860, Control_c, 3, 1, 55
5, 127880, Control_c, 3, 1, 60
5, 127902, Control_c, 3, 1, 66
5, 127916, Control_c, 3, 1, 72
5, 127932, Control_c, 3, 1, 80
5, 127950, Control_c, 3, 1, 85
5, 127970, Control_c, 3, 1, 86
5, 127986, Control_c, 3, 1, 76
5, 128010, Control_c, 3, 1, 56
5, 128024, Control_c, 3, 1, 20
5, 128042, Control_c, 3, 1, 0
5, 128048, Note_off_c, 3, 70, 100
5, 128062, Note_off_c, 3, 74, 100
5, 129768, Note_on_c, 3, 65, 109
5, 129782, Control_c, 3, 1, 1
5, 129792, Control_c, 3, 1, 10
5, 129804, Control_c, 3, 1, 30
5, 129824, Control_c, 3, 1, 41
5, 129840, Control_c, 3, 1, 44
5, 129868, Control_c, 3, 1, 42
5, 129876, Control_c, 3, 1, 31
5, 129896, Control_c, 3, 1, 19
5, 129912, Control_c, 3, 1, 1
5, 129940, Control_c, 3, 1, 0
5, 129944, Note_off_c, 3, 65, 109
5, 129982, Note_on_c, 3, 65, 82
5, 130042, Note_off_c, 3, 65, 82
5, 130070, Note_on_c, 3, 62, 91
5, 130122, Note_off_c, 3, 62, 91
5, 130132, Control_c, 3, 1, 2
5, 130146, Control_c, 3, 1, 22
5, 130160, Note_on_c, 3, 65, 109
5, 130174, Control_c, 3, 1, 38
5, 130188, Control_c, 3, 1, 50
5, 130202, Control_c, 3, 1, 61
5, 130218, Control_c, 3, 1, 69
5, 130244, Control_c, 3, 1, 70
5, 130266, Control_c, 3, 1, 69
5, 130272, Control_c, 3, 1, 64
5, 130292, Control_c, 3, 1, 57
5, 130308, Control_c, 3, 1, 39
5, 130328, Control_c, 3, 1, 26
5, 130338, Note_off_c, 3, 65, 109
5, 130344, Control_c, 3, 1, 1
5, 130344, Note_on_c, 3, 62, 73
5, 130372, Control_c, 3, 1, 0
5, 130398, Note_off_c, 3, 62, 73
5, 130438, Note_on_c, 3, 65, 100
5, 130486, Control_c, 3, 1, 1
5, 130506, Control_c, 3, 1, 7
5, 130526, Control_c, 3, 1, 10
5, 130550, Control_c, 3, 1, 11
5, 130568, Control_c, 3, 1, 9
5, 130580, Control_c, 3, 1, 2
5, 130596, Control_c, 3, 1, 1
5, 130628, Control_c, 3, 1, 0
5, 130632, Note_off_c, 3, 65, 100
5, 130658, Control_c, 3, 1, 1
5, 130664, Note_on_c, 3, 65, 91
5, 130762, Control_c, 3, 1, 0
5, 130820, Note_off_c, 3, 65, 91
5, 130870, Note_on_c, 3, 65, 100
5, 130926, Control_c, 3, 1, 1
5, 130952, Control_c, 3, 1, 2
5, 130956, Control_c, 3, 1, 6
5, 130978, Control_c, 3, 1, 9
5, 130994, Control_c, 3, 1, 13
5, 131010, Control_c, 3, 1, 15
5, 131030, Control_c, 3, 1, 19
5, 131050, Control_c, 3, 1, 21
5, 131076, Control_c, 3, 1, 23
5, 131090, Control_c, 3, 1, 25
5, 131100, Control_c, 3, 1, 30
5, 131124, Control_c, 3, 1, 34
5, 131130, Note_off_c, 3, 65, 100
5, 131136, Control_c, 3, 1, 41
5, 131154, Control_c, 3, 1, 57
5, 131154, Note_on_c, 3, 65, 98
5, 131178, Control_c, 3, 1, 63
5, 131196, Note_off_c, 3, 65, 98
5, 131196, Control_c, 3, 1, 69
5, 131208, Control_c, 3, 1, 73
5, 131242, Control_c, 3, 1, 72
5, 131250, Control_c, 3, 1, 70
5, 131262, Control_c, 3, 1, 62
5, 131282, Control_c, 3, 1, 53
5, 131304, Control_c, 3, 1, 43
5, 131318, Control_c, 3, 1, 27
5, 131334, Control_c, 3, 1, 1
5, 131354, Control_c, 3, 1, 0
5, 132660, Note_on_c, 3, 75, 109
5, 132746, Pitch_bend_c, 3, 8582
5, 132762, Pitch_bend_c, 3, 8842
5, 132774, Pitch_bend_c, 3, 9102
5, 132786, Pitch_bend_c, 3, 9622
5, 132800, Pitch_bend_c, 3, 10272
5, 132816, Pitch_bend_c, 3, 10532
5, 132828, Pitch_bend_c, 3, 10922
5, 132846, Pitch_bend_c, 3, 11182
5, 132858, Pitch_bend_c, 3, 11702
5, 132870, Pitch_bend_c, 3, 12222
5, 132888, Pitch_bend_c, 3, 12612
5, 132900, Pitch_bend_c, 3, 12872
5, 132912, Pitch_bend_c, 3, 13132
5, 132932, Pitch_bend_c, 3, 13392
5, 132944, Pitch_bend_c, 3, 13652
5, 132954, Pitch_bend_c, 3, 14432
5, 132974, Pitch_bend_c, 3, 14692
5, 132986, Pitch_bend_c, 3, 14822
5, 132996, Pitch_bend_c, 3, 15212
5, 133012, Pitch_bend_c, 3, 15472
5, 133024, Pitch_bend_c, 3, 15862
5, 133040, Pitch_bend_c, 3, 16382
5, 133300, Control_c, 3, 1, 0
5, 133474, Pitch_bend_c, 3, 15992
5, 133492, Pitch_bend_c, 3, 15732
5, 133500, Pitch_bend_c, 3, 15342
5, 133518, Pitch_bend_c, 3, 14692
5, 133530, Pitch_bend_c, 3, 14432
5, 133542, Pitch_bend_c, 3, 13002
5, 133560, Pitch_bend_c, 3, 11962
5, 133572, Pitch_bend_c, 3, 10792
5, 133590, Pitch_bend_c, 3, 9882
5, 133598, Pitch_bend_c, 3, 8842
5, 133608, Pitch_bend_c, 3, 8192
5, 133648, Note_on_c, 3, 74, 73
5, 133662, Note_off_c, 3, 75, 109
5, 133722, Control_c, 3, 1, 1
5, 133740, Control_c, 3, 1, 4
5, 133748, Control_c, 3, 1, 8
5, 133764, Control_c, 3, 1, 14
5, 133784, Control_c, 3, 1, 19
5, 133802, Control_c, 3, 1, 25
5, 133820, Control_c, 3, 1, 31
5, 133838, Control_c, 3, 1, 36
5, 133856, Control_c, 3, 1, 41
5, 133874, Control_c, 3, 1, 45
5, 133892, Control_c, 3, 1, 47
5, 133918, Control_c, 3, 1, 48
5, 133970, Control_c, 3, 1, 46
5, 133984, Control_c, 3, 1, 43
5, 134000, Control_c, 3, 1, 37
5, 134018, Control_c, 3, 1, 30
5, 134034, Control_c, 3, 1, 18
5, 134048, Note_off_c, 3, 74, 73
5, 134054, Control_c, 3, 1, 8
5, 134070, Control_c, 3, 1, 1
5, 134098, Control_c, 3, 1, 0
5, 134202, Note_on_c, 3, 65, 82
5, 134356, Note_off_c, 3, 65, 82
5, 134380, Note_on_c, 3, 65, 60
5, 134440, Note_off_c, 3, 65, 60
5, 134754, Note_on_c, 3, 65, 82
5, 134826, Note_off_c, 3, 65, 82
5, 134842, Note_on_c, 3, 62, 56
5, 134922, Note_off_c, 3, 62, 56
5, 134954, Note_on_c, 3, 65, 100
5, 135122, Note_off_c, 3, 65, 100
5, 135158, Control_c, 3, 1, 1
5, 135168, Note_on_c, 3, 65, 91
5, 135176, Control_c, 3, 1, 1
5, 135190, Control_c, 3, 1, 9
5, 135206, Control_c, 3, 1, 45
5, 135222, Control_c, 3, 1, 35
5, 135240, Control_c, 3, 1, 39
5, 135266, Control_c, 3, 1, 49
5, 135272, Note_off_c, 3, 65, 91
5, 135278, Control_c, 3, 1, 28
5, 135280, Note_on_c, 3, 60, 64
5, 135294, Control_c, 3, 1, 33
5, 135312, Control_c, 3, 1, 21
5, 135334, Control_c, 3, 1, 0
5, 135348, Control_c, 3, 1, 1
5, 135356, Note_off_c, 3, 60, 64
5, 135398, Note_on_c, 3, 62, 91
5, 135444, Control_c, 3, 1, 8
5, 135456, Control_c, 3, 1, 19
5, 135474, Control_c, 3, 1, 20
5, 135486, Note_off_c, 3, 62, 91
5, 135498, Control_c, 3, 1, 15
5, 135514, Control_c, 3, 1, 8
5, 135516, Note_on_c, 3, 65, 91
5, 135528, Control_c, 3, 1, 1
5, 135560, Control_c, 3, 1, 0
5, 135572, Control_c, 3, 1, 10
5, 135584, Control_c, 3, 1, 22
5, 135606, Control_c, 3, 1, 27
5, 135640, Control_c, 3, 1, 22
5, 135654, Control_c, 3, 1, 10
5, 135672, Control_c, 3, 1, 1
5, 135704, Note_off_c, 3, 65, 91
5, 135704, Control_c, 3, 1, 0
5, 135736, Note_on_c, 3, 65, 91
5, 135794, Note_off_c, 3, 65, 91
5, 135816, Pitch_bend_c, 3, 6144
5, 135824, Pitch_bend_c, 3, 2304
5, 135840, Pitch_bend_c, 3, 512
5, 135850, Note_on_c, 3, 69, 100
5, 135858, Pitch_bend_c, 3, 0
5, 135902, Pitch_bend_c, 3, 640
5, 135910, Pitch_bend_c, 3, 3200
5, 135922, Pitch_bend_c, 3, 6016
5, 135936, Pitch_bend_c, 3, 7808
5, 135946, Pitch_bend_c, 3, 8192
5, 136038, Note_off_c, 3, 69, 100
5, 136088, Note_on_c, 3, 67, 100
5, 136108, Control_c, 3, 1, 5
5, 136122, Control_c, 3, 1, 17
5, 136140, Control_c, 3, 1, 28
5, 136158, Control_c, 3, 1, 36
5, 136176, Control_c, 3, 1, 45
5, 136196, Control_c, 3, 1, 52
5, 136214, Control_c, 3, 1, 59
5, 136230, Control_c, 3, 1, 62
5, 136248, Control_c, 3, 1, 67
5, 136268, Control_c, 3, 1, 72
5, 136286, Control_c, 3, 1, 76
5, 136302, Control_c, 3, 1, 80
5, 136320, Control_c, 3, 1, 83
5, 136340, Control_c, 3, 1, 85
5, 136372, Control_c, 3, 1, 84
5, 136378, Control_c, 3, 1, 77
5, 136394, Control_c, 3, 1, 56
5, 136416, Control_c, 3, 1, 29
5, 136430, Control_c, 3, 1, 0
5, 136442, Note_off_c, 3, 67, 100
5, 138034, Note_on_c, 3, 65, 91
5, 138096, Note_off_c, 3, 65, 91
5, 138202, Pitch_bend_c, 3, 7680
5, 138206, Pitch_bend_c, 3, 3712
5, 138218, Pitch_bend_c, 3, 128
5, 138236, Note_on_c, 3, 72, 109
5, 138240, Pitch_bend_c, 3, 0
5, 138338, Pitch_bend_c, 3, 768
5, 138344, Pitch_bend_c, 3, 3200
5, 138360, Pitch_bend_c, 3, 4608
5, 138372, Pitch_bend_c, 3, 7040
5, 138386, Pitch_bend_c, 3, 8064
5, 138392, Pitch_bend_c, 3, 8192
5, 138460, Note_off_c, 3, 72, 109
5, 138470, Note_on_c, 3, 70, 64
5, 138538, Note_off_c, 3, 70, 64
5, 138670, Note_on_c, 3, 70, 91
5, 138734, Note_off_c, 3, 70, 91
5, 138756, Note_on_c, 3, 69, 100
5, 138814, Note_off_c, 3, 69, 100
5, 138846, Note_on_c, 3, 69, 82
5, 138898, Note_off_c, 3, 69, 82
5, 138936, Note_on_c, 3, 67, 100
5, 138982, Pitch_bend_c, 3, 7296
5, 138990, Pitch_bend_c, 3, 5376
5, 139006, Pitch_bend_c, 3, 4480
5, 139018, Pitch_bend_c, 3, 4096
5, 139020, Note_off_c, 3, 67, 100
5, 139026, Note_on_c, 3, 72, 100
5, 139044, Pitch_bend_c, 3, 4992
5, 139062, Pitch_bend_c, 3, 6272
5, 139072, Pitch_bend_c, 3, 7808
5, 139080, Pitch_bend_c, 3, 8192
5, 139138, Note_off_c, 3, 72, 100
5, 139260, Note_on_c, 3, 65, 91
5, 139314, Note_off_c, 3, 65, 91
5, 139352, Note_on_c, 3, 65, 100
5, 139430, Note_off_c, 3, 65, 100
5, 139450, Note_on_c, 3, 65, 82
5, 139496, Control_c, 3, 1, 1
5, 139510, Control_c, 3, 1, 6
5, 139526, Control_c, 3, 1, 18
5, 139542, Control_c, 3, 1, 30
5, 139562, Control_c, 3, 1, 37
5, 139580, Control_c, 3, 1, 41
5, 139596, Control_c, 3, 1, 45
5, 139614, Control_c, 3, 1, 48
5, 139648, Control_c, 3, 1, 47
5, 139654, Control_c, 3, 1, 42
5, 139658, Note_on_c, 3, 62, 64
5, 139672, Note_off_c, 3, 65, 82
5, 139672, Control_c, 3, 1, 31
5, 139688, Control_c, 3, 1, 15
5, 139704, Control_c, 3, 1, 0
5, 139708, Note_off_c, 3, 62, 64
5, 139750, Note_on_c, 3, 69, 100
5, 139818, Note_off_c, 3, 69, 100
5, 139960, Note_on_c, 3, 65, 91
5, 140428, Note_off_c, 3, 65, 91
5, 141124, Note_on_c, 3, 69, 100
5, 141190, Note_off_c, 3, 69, 100
5, 141320, Note_on_c, 3, 67, 100
5, 141342, Pitch_bend_c, 3, 8712
5, 141356, Pitch_bend_c, 3, 9492
5, 141368, Pitch_bend_c, 3, 11702
5, 141382, Pitch_bend_c, 3, 13002
5, 141398, Pitch_bend_c, 3, 13262
5, 141410, Pitch_bend_c, 3, 13392
5, 141428, Pitch_bend_c, 3, 13132
5, 141440, Pitch_bend_c, 3, 12742
5, 141452, Pitch_bend_c, 3, 11572
5, 141470, Pitch_bend_c, 3, 11052
5, 141480, Pitch_bend_c, 3, 9752
5, 141498, Pitch_bend_c, 3, 9102
5, 141512, Pitch_bend_c, 3, 8712
5, 141526, Pitch_bend_c, 3, 8452
5, 141536, Pitch_bend_c, 3, 8322
5, 141540, Pitch_bend_c, 3, 8192
5, 142082, Note_off_c, 3, 67, 100
5, 142630, Pitch_bend_c, 3, 3840
5, 142644, Pitch_bend_c, 3, 512
5, 142656, Pitch_bend_c, 3, 0
5, 142668, Note_on_c, 3, 74, 100
5, 142710, Pitch_bend_c, 3, 256
5, 142714, Pitch_bend_c, 3, 2048
5, 142726, Pitch_bend_c, 3, 4608
5, 142740, Pitch_bend_c, 3, 6400
5, 142756, Pitch_bend_c, 3, 7552
5, 142764, Pitch_bend_c, 3, 8192
5, 142774, Note_off_c, 3, 74, 100
5, 142860, Note_on_c, 3, 72, 109
5, 142886, Control_c, 3, 1, 1
5, 142902, Control_c, 3, 1, 2
5, 142908, Control_c, 3, 1, 12
5, 142928, Control_c, 3, 1, 19
5, 142944, Control_c, 3, 1, 25
5, 142968, Control_c, 3, 1, 30
5, 142982, Control_c, 3, 1, 33
5, 143000, Control_c, 3, 1, 36
5, 143018, Control_c, 3, 1, 38
5, 143034, Control_c, 3, 1, 40
5, 143052, Control_c, 3, 1, 42
5, 143072, Control_c, 3, 1, 45
5, 143096, Control_c, 3, 1, 46
5, 143112, Control_c, 3, 1, 47
5, 143138, Control_c, 3, 1, 48
5, 143150, Control_c, 3, 1, 49
5, 143264, Control_c, 3, 1, 48
5, 143322, Control_c, 3, 1, 47
5, 143346, Control_c, 3, 1, 46
5, 143378, Control_c, 3, 1, 44
5, 143406, Control_c, 3, 1, 43
5, 143416, Control_c, 3, 1, 41
5, 143430, Control_c, 3, 1, 39
5, 143450, Control_c, 3, 1, 37
5, 143466, Control_c, 3, 1, 35
5, 143492, Control_c, 3, 1, 33
5, 143504, Control_c, 3, 1, 31
5, 143524, Control_c, 3, 1, 29
5, 143548, Control_c, 3, 1, 28
5, 143560, Control_c, 3, 1, 27
5, 143574, Control_c, 3, 1, 24
5, 143598, Control_c, 3, 1, 22
5, 143616, Control_c, 3, 1, 20
5, 143638, Control_c, 3, 1, 19
5, 143646, Control_c, 3, 1, 17
5, 143666, Control_c, 3, 1, 14
5, 143688, Control_c, 3, 1, 13
5, 143700, Control_c, 3, 1, 11
5, 143740, Control_c, 3, 1, 10
5, 143784, Control_c, 3, 1, 9
5, 143838, Control_c, 3, 1, 10
5, 143848, Control_c, 3, 1, 12
5, 143880, Control_c, 3, 1, 13
5, 143974, Control_c, 3, 1, 12
5, 143990, Control_c, 3, 1, 11
5, 144008, Control_c, 3, 1, 10
5, 144024, Control_c, 3, 1, 8
5, 144048, Control_c, 3, 1, 6
5, 144068, Control_c, 3, 1, 5
5, 144078, Control_c, 3, 1, 3
5, 144100, Control_c, 3, 1, 1
5, 144186, Note_on_c, 3, 69, 91
5, 144192, Note_off_c, 3, 72, 109
5, 144238, Control_c, 3, 1, 0
5, 144340, Pitch_bend_c, 3, 4992
5, 144352, Pitch_bend_c, 3, 1664
5, 144362, Note_off_c, 3, 69, 91
5, 144364, Pitch_bend_c, 3, 256
5, 144378, Pitch_bend_c, 3, 0
5, 144378, Note_on_c, 3, 77, 116
5, 144460, Pitch_bend_c, 3, 128
5, 144466, Pitch_bend_c, 3, 640
5, 144476, Pitch_bend_c, 3, 1664
5, 144492, Pitch_bend_c, 3, 2304
5, 144506, Pitch_bend_c, 3, 3200
5, 144522, Pitch_bend_c, 3, 3584
5, 144534, Pitch_bend_c, 3, 3968
5, 144548, Pitch_bend_c, 3, 4352
5, 144560, Pitch_bend_c, 3, 4608
5, 144576, Pitch_bend_c, 3, 5120
5, 144588, Pitch_bend_c, 3, 6016
5, 144604, Pitch_bend_c, 3, 6400
5, 144616, Pitch_bend_c, 3, 7296
5, 144630, Pitch_bend_c, 3, 7936
5, 144642, Pitch_bend_c, 3, 8192
5, 144886, Control_c, 3, 1, 1
5, 144942, Control_c, 3, 1, 4
5, 144962, Control_c, 3, 1, 7
5, 144986, Control_c, 3, 1, 8
5, 145002, Control_c, 3, 1, 9
5, 145020, Control_c, 3, 1, 10
5, 145034, Control_c, 3, 1, 13
5, 145054, Control_c, 3, 1, 16
5, 145076, Control_c, 3, 1, 17
5, 145090, Control_c, 3, 1, 19
5, 145114, Control_c, 3, 1, 20
5, 145122, Control_c, 3, 1, 22
5, 145180, Control_c, 3, 1, 23
5, 145196, Control_c, 3, 1, 26
5, 145220, Control_c, 3, 1, 27
5, 145234, Control_c, 3, 1, 28
5, 145250, Control_c, 3, 1, 29
5, 145268, Control_c, 3, 1, 31
5, 145290, Control_c, 3, 1, 32
5, 145304, Control_c, 3, 1, 33
5, 145330, Control_c, 3, 1, 34
5, 145352, Control_c, 3, 1, 35
5, 145382, Control_c, 3, 1, 36
5, 145392, Control_c, 3, 1, 38
5, 145428, Control_c, 3, 1, 40
5, 145462, Control_c, 3, 1, 41
5, 145550, Control_c, 3, 1, 42
5, 145580, Control_c, 3, 1, 43
5, 145610, Control_c, 3, 1, 44
5, 145708, Control_c, 3, 1, 45
5, 145736, Control_c, 3, 1, 46
5, 145924, Control_c, 3, 1, 45
5, 145944, Control_c, 3, 1, 44
5, 145950, Control_c, 3, 1, 41
5, 145974, Control_c, 3, 1, 40
5, 146204, Control_c, 3, 1, 39
5, 146226, Control_c, 3, 1, 38
5, 146250, Control_c, 3, 1, 37
5, 146262, Control_c, 3, 1, 36
5, 146280, Control_c, 3, 1, 35
5, 146294, Control_c, 3, 1, 33
5, 146314, Control_c, 3, 1, 31
5, 146328, Control_c, 3, 1, 29
5, 146360, Control_c, 3, 1, 28
5, 146372, Control_c, 3, 1, 27
5, 146382, Control_c, 3, 1, 25
5, 146402, Control_c, 3, 1, 23
5, 146424, Control_c, 3, 1, 22
5, 146452, Control_c, 3, 1, 21
5, 146476, Control_c, 3, 1, 20
5, 146502, Control_c, 3, 1, 19
5, 146518, Control_c, 3, 1, 18
5, 146532, Control_c, 3, 1, 17
5, 146552, Control_c, 3, 1, 16
5, 146564, Control_c, 3, 1, 15
5, 146580, Control_c, 3, 1, 13
5, 146602, Control_c, 3, 1, 12
5, 146628, Control_c, 3, 1, 11
5, 146648, Control_c, 3, 1, 10
5, 146672, Control_c, 3, 1, 8
5, 146700, Control_c, 3, 1, 7
5, 146724, Control_c, 3, 1, 6
5, 146744, Control_c, 3, 1, 4
5, 146766, Control_c, 3, 1, 2
5, 146792, Control_c, 3, 1, 1
5, 147000, Control_c, 3, 1, 0
5, 148616, Note_off_c, 3, 77, 116
5, 148742, Pitch_bend_c, 3, 7424
5, 148750, Pitch_bend_c, 3, 2304
5, 148762, Pitch_bend_c, 3, 0
5, 148786, Note_on_c, 3, 74, 100
5, 148826, Pitch_bend_c, 3, 128
5, 148830, Pitch_bend_c, 3, 3968
5, 148844, Pitch_bend_c, 3, 6272
5, 148852, Pitch_bend_c, 3, 8192
5, 148860, Pitch_bend_c, 3, 8322
5, 148864, Pitch_bend_c, 3, 8192
5, 148890, Note_off_c, 3, 74, 100
5, 148976, Note_on_c, 3, 72, 109
5, 149134, Note_off_c, 3, 72, 109
5, 149160, Note_on_c, 3, 70, 91
5, 149208, Note_off_c, 3, 70, 91
5, 149258, Note_on_c, 3, 70, 104
5, 149440, Note_off_c, 3, 70, 104
5, 149442, Note_on_c, 3, 69, 91
5, 149488, Note_off_c, 3, 69, 91
5, 149530, Note_on_c, 3, 69, 101
5, 149590, Note_off_c, 3, 69, 101
5, 149628, Note_on_c, 3, 67, 90
5, 149708, Note_off_c, 3, 67, 90
5, 149722, Note_on_c, 3, 67, 100
5, 149790, Note_off_c, 3, 67, 100
5, 149804, Note_on_c, 3, 65, 73
5, 149884, Note_off_c, 3, 65, 73
5, 149912, Note_on_c, 3, 65, 100
5, 150512, Note_off_c, 3, 65, 100
5, 151836, Pitch_bend_c, 3, 7424
5, 151842, Pitch_bend_c, 3, 4736
5, 151858, Pitch_bend_c, 3, 384
5, 151870, Pitch_bend_c, 3, 0
5, 151870, Note_on_c, 3, 74, 109
5, 151914, Pitch_bend_c, 3, 1280
5, 151924, Pitch_bend_c, 3, 2176
5, 151938, Pitch_bend_c, 3, 4736
5, 151958, Pitch_bend_c, 3, 6400
5, 151966, Pitch_bend_c, 3, 8582
5, 151966, Pitch_bend_c, 3, 8192
5, 151980, Pitch_bend_c, 3, 8192
5, 152002, Note_off_c, 3, 74, 109
5, 152066, Note_on_c, 3, 72, 109
5, 152092, Control_c, 3, 1, 4
5, 152112, Control_c, 3, 1, 8
5, 152124, Control_c, 3, 1, 13
5, 152142, Control_c, 3, 1, 18
5, 152166, Control_c, 3, 1, 19
5, 152220, Control_c, 3, 1, 20
5, 152236, Control_c, 3, 1, 21
5, 152266, Control_c, 3, 1, 22
5, 152300, Control_c, 3, 1, 23
5, 152324, Control_c, 3, 1, 24
5, 152356, Control_c, 3, 1, 25
5, 152372, Control_c, 3, 1, 26
5, 152438, Control_c, 3, 1, 27
5, 152634, Control_c, 3, 1, 28
5, 152654, Control_c, 3, 1, 29
5, 152702, Control_c, 3, 1, 28
5, 152718, Control_c, 3, 1, 27
5, 152766, Control_c, 3, 1, 26
5, 152800, Control_c, 3, 1, 25
5, 152814, Control_c, 3, 1, 23
5, 152834, Control_c, 3, 1, 21
5, 152854, Control_c, 3, 1, 19
5, 152872, Control_c, 3, 1, 18
5, 152892, Control_c, 3, 1, 17
5, 152906, Control_c, 3, 1, 16
5, 152918, Control_c, 3, 1, 15
5, 152934, Control_c, 3, 1, 14
5, 152952, Control_c, 3, 1, 13
5, 152976, Control_c, 3, 1, 12
5, 153000, Control_c, 3, 1, 11
5, 153062, Control_c, 3, 1, 10
5, 153080, Control_c, 3, 1, 9
5, 153096, Control_c, 3, 1, 7
5, 153118, Control_c, 3, 1, 5
5, 153138, Control_c, 3, 1, 3
5, 153152, Control_c, 3, 1, 1
5, 153286, Control_c, 3, 1, 0
5, 153690, Control_c, 3, 1, 1
5, 153792, Control_c, 3, 1, 2
5, 153808, Control_c, 3, 1, 3
5, 153826, Control_c, 3, 1, 4
5, 153842, Control_c, 3, 1, 5
5, 153862, Control_c, 3, 1, 6
5, 153882, Control_c, 3, 1, 7
5, 153896, Control_c, 3, 1, 8
5, 153916, Control_c, 3, 1, 9
5, 153934, Control_c, 3, 1, 10
5, 153952, Control_c, 3, 1, 11
5, 153966, Control_c, 3, 1, 12
5, 153980, Control_c, 3, 1, 13
5, 153996, Control_c, 3, 1, 15
5, 154040, Control_c, 3, 1, 16
5, 154084, Control_c, 3, 1, 17
5, 154106, Control_c, 3, 1, 18
5, 154132, Control_c, 3, 1, 19
5, 154160, Control_c, 3, 1, 20
5, 154192, Control_c, 3, 1, 21
5, 154216, Control_c, 3, 1, 22
5, 154254, Control_c, 3, 1, 23
5, 154278, Control_c, 3, 1, 24
5, 154288, Control_c, 3, 1, 26
5, 154496, Control_c, 3, 1, 27
5, 154536, Control_c, 3, 1, 28
5, 154688, Control_c, 3, 1, 27
5, 154718, Control_c, 3, 1, 26
5, 154734, Control_c, 3, 1, 24
5, 154756, Control_c, 3, 1, 22
5, 154778, Control_c, 3, 1, 21
5, 154788, Control_c, 3, 1, 19
5, 154810, Control_c, 3, 1, 16
5, 154828, Control_c, 3, 1, 14
5, 154846, Control_c, 3, 1, 12
5, 154862, Control_c, 3, 1, 9
5, 154882, Control_c, 3, 1, 7
5, 154898, Control_c, 3, 1, 1
5, 154978, Control_c, 3, 1, 0
5, 155236, Control_c, 3, 1, 1
5, 155332, Control_c, 3, 1, 3
5, 155360, Control_c, 3, 1, 4
5, 155370, Control_c, 3, 1, 5
5, 155382, Control_c, 3, 1, 8
5, 155408, Control_c, 3, 1, 9
5, 155422, Control_c, 3, 1, 11
5, 155446, Control_c, 3, 1, 12
5, 155458, Control_c, 3, 1, 13
5, 155474, Control_c, 3, 1, 15
5, 155498, Control_c, 3, 1, 16
5, 155514, Control_c, 3, 1, 18
5, 155534, Control_c, 3, 1, 19
5, 155546, Control_c, 3, 1, 20
5, 155562, Control_c, 3, 1, 22
5, 155588, Control_c, 3, 1, 23
5, 155604, Control_c, 3, 1, 24
5, 155630, Control_c, 3, 1, 25
5, 155640, Control_c, 3, 1, 26
5, 155658, Control_c, 3, 1, 28
5, 155682, Control_c, 3, 1, 29
5, 155696, Control_c, 3, 1, 30
5, 155720, Control_c, 3, 1, 31
5, 155742, Control_c, 3, 1, 33
5, 155780, Control_c, 3, 1, 34
5, 155798, Control_c, 3, 1, 35
5, 155822, Control_c, 3, 1, 36
5, 155866, Control_c, 3, 1, 37
5, 155886, Control_c, 3, 1, 38
5, 155922, Control_c, 3, 1, 39
5, 155960, Control_c, 3, 1, 40
5, 156078, Control_c, 3, 1, 39
5, 156096, Control_c, 3, 1, 38
5, 156120, Control_c, 3, 1, 36
5, 156146, Control_c, 3, 1, 35
5, 156160, Control_c, 3, 1, 33
5, 156174, Control_c, 3, 1, 30
5, 156200, Control_c, 3, 1, 28
5, 156210, Control_c, 3, 1, 23
5, 156230, Control_c, 3, 1, 18
5, 156248, Control_c, 3, 1, 10
5, 156266, Control_c, 3, 1, 1
5, 156292, Control_c, 3, 1, 0
5, 156480, Note_on_c, 3, 74, 91
5, 156492, Note_off_c, 3, 72, 109
5, 156660, Note_off_c, 3, 74, 91
5, 156672, Note_on_c, 3, 77, 100
5, 156966, Control_c, 3, 1, 1
5, 157100, Control_c, 3, 1, 2
5, 157122, Control_c, 3, 1, 3
5, 157140, Control_c, 3, 1, 4
5, 157152, Control_c, 3, 1, 6
5, 157182, Control_c, 3, 1, 7
5, 157212, Control_c, 3, 1, 8
5, 157228, Control_c, 3, 1, 9
5, 157244, Control_c, 3, 1, 11
5, 157268, Control_c, 3, 1, 12
5, 157286, Control_c, 3, 1, 13
5, 157320, Control_c, 3, 1, 14
5, 157340, Control_c, 3, 1, 15
5, 157360, Control_c, 3, 1, 16
5, 157390, Control_c, 3, 1, 17
5, 157404, Control_c, 3, 1, 18
5, 157424, Control_c, 3, 1, 20
5, 157440, Control_c, 3, 1, 21
5, 157452, Control_c, 3, 1, 22
5, 157474, Control_c, 3, 1, 24
5, 157498, Control_c, 3, 1, 25
5, 157524, Control_c, 3, 1, 26
5, 157570, Control_c, 3, 1, 27
5, 157580, Control_c, 3, 1, 28
5, 157598, Control_c, 3, 1, 30
5, 157632, Control_c, 3, 1, 32
5, 157654, Control_c, 3, 1, 33
5, 157672, Control_c, 3, 1, 34
5, 157830, Control_c, 3, 1, 32
5, 157848, Control_c, 3, 1, 29
5, 157866, Control_c, 3, 1, 21
5, 157886, Control_c, 3, 1, 1
5, 157906, Control_c, 3, 1, 0
5, 157942, Note_off_c, 3, 77, 100
5, 158018, Note_on_c, 3, 67, 109
5, 158076, Note_off_c, 3, 67, 109
5, 158206, Note_on_c, 3, 69, 100
5, 158242, Control_c, 3, 1, 3
5, 158250, Control_c, 3, 1, 15
5, 158264, Control_c, 3, 1, 24
5, 158280, Control_c, 3, 1, 34
5, 158302, Control_c, 3, 1, 38
5, 158320, Control_c, 3, 1, 42
5, 158342, Control_c, 3, 1, 44
5, 158358, Control_c, 3, 1, 46
5, 158370, Control_c, 3, 1, 47
5, 158426, Control_c, 3, 1, 45
5, 158446, Control_c, 3, 1, 39
5, 158464, Control_c, 3, 1, 31
5, 158478, Control_c, 3, 1, 9
5, 158502, Control_c, 3, 1, 1
5, 158508, Note_off_c, 3, 69, 100
5, 158514, Control_c, 3, 1, 0
5, 158526, Note_on_c, 3, 67, 100
5, 158576, Note_off_c, 3, 67, 100
5, 158778, Note_on_c, 3, 69, 100
5, 158896, Pitch_bend_c, 3, 5888
5, 158912, Pitch_bend_c, 3, 4864
5, 158924, Pitch_bend_c, 3, 3840
5, 158938, Pitch_bend_c, 3, 3456
5, 158954, Pitch_bend_c, 3, 4224
5, 158966, Pitch_bend_c, 3, 4992
5, 158980, Pitch_bend_c, 3, 5888
5, 158996, Pitch_bend_c, 3, 6912
5, 159010, Pitch_bend_c, 3, 7808
5, 159024, Pitch_bend_c, 3, 8192
5, 159298, Control_c, 3, 1, 1
5, 159336, Control_c, 3, 1, 3
5, 159350, Control_c, 3, 1, 6
5, 159366, Control_c, 3, 1, 9
5, 159382, Control_c, 3, 1, 10
5, 159396, Control_c, 3, 1, 13
5, 159428, Control_c, 3, 1, 15
5, 159436, Control_c, 3, 1, 22
5, 159462, Control_c, 3, 1, 24
5, 159470, Control_c, 3, 1, 28
5, 159486, Control_c, 3, 1, 32
5, 159506, Control_c, 3, 1, 35
5, 159528, Control_c, 3, 1, 38
5, 159540, Control_c, 3, 1, 41
5, 159558, Control_c, 3, 1, 45
5, 159582, Control_c, 3, 1, 47
5, 159596, Control_c, 3, 1, 53
5, 159616, Control_c, 3, 1, 56
5, 159630, Control_c, 3, 1, 59
5, 159658, Control_c, 3, 1, 60
5, 159688, Control_c, 3, 1, 53
5, 159702, Control_c, 3, 1, 28
5, 159722, Control_c, 3, 1, 0
5, 159734, Note_off_c, 3, 69, 100
5, 160488, Note_on_c, 3, 65, 109
5, 160502, Control_c, 3, 1, 1
5, 160512, Control_c, 3, 1, 19
5, 160530, Control_c, 3, 1, 34
5, 160548, Control_c, 3, 1, 44
5, 160588, Control_c, 3, 1, 38
5, 160604, Control_c, 3, 1, 28
5, 160620, Control_c, 3, 1, 12
5, 160638, Control_c, 3, 1, 1
5, 160660, Control_c, 3, 1, 0
5, 160664, Note_off_c, 3, 65, 109
5, 160702, Note_on_c, 3, 65, 82
5, 160762, Note_off_c, 3, 65, 82
5, 160790, Note_on_c, 3, 62, 91
5, 160842, Note_off_c, 3, 62, 91
5, 160852, Control_c, 3, 1, 1
5, 160856, Control_c, 3, 1, 14
5, 160874, Control_c, 3, 1, 22
5, 160880, Note_on_c, 3, 65, 109
5, 160894, Control_c, 3, 1, 38
5, 160908, Control_c, 3, 1, 57
5, 160930, Control_c, 3, 1, 65
5, 160946, Control_c, 3, 1, 69
5, 160964, Control_c, 3, 1, 70
5, 160986, Control_c, 3, 1, 68
5, 160998, Control_c, 3, 1, 61
5, 161020, Control_c, 3, 1, 52
5, 161034, Control_c, 3, 1, 30
5, 161058, Note_off_c, 3, 65, 109
5, 161058, Control_c, 3, 1, 12
5, 161064, Note_on_c, 3, 62, 73
5, 161070, Control_c, 3, 1, 1
5, 161092, Control_c, 3, 1, 0
5, 161118, Note_off_c, 3, 62, 73
5, 161158, Note_on_c, 3, 65, 100
5, 161206, Control_c, 3, 1, 1
5, 161226, Control_c, 3, 1, 3
5, 161232, Control_c, 3, 1, 8
5, 161250, Control_c, 3, 1, 10
5, 161270, Control_c, 3, 1, 11
5, 161288, Control_c, 3, 1, 8
5, 161304, Control_c, 3, 1, 1
5, 161348, Control_c, 3, 1, 0
5, 161352, Note_off_c, 3, 65, 100
5, 161378, Control_c, 3, 1, 1
5, 161384, Note_on_c, 3, 65, 91
5, 161482, Control_c, 3, 1, 0
5, 161540, Note_off_c, 3, 65, 91
5, 161590, Note_on_c, 3, 65, 100
5, 161646, Control_c, 3, 1, 1
5, 161672, Control_c, 3, 1, 4
5, 161684, Control_c, 3, 1, 7
5, 161700, Control_c, 3, 1, 10
5, 161718, Control_c, 3, 1, 14
5, 161742, Control_c, 3, 1, 16
5, 161754, Control_c, 3, 1, 20
5, 161778, Control_c, 3, 1, 21
5, 161796, Control_c, 3, 1, 23
5, 161810, Control_c, 3, 1, 26
5, 161826, Control_c, 3, 1, 30
5, 161844, Control_c, 3, 1, 39
5, 161850, Note_off_c, 3, 65, 100
5, 161864, Control_c, 3, 1, 47
5, 161874, Note_on_c, 3, 65, 98
5, 161882, Control_c, 3, 1, 57
5, 161898, Control_c, 3, 1, 63
5, 161916, Note_off_c, 3, 65, 98
5, 161916, Control_c, 3, 1, 71
5, 161934, Control_c, 3, 1, 73
5, 161962, Control_c, 3, 1, 72
5, 161970, Control_c, 3, 1, 67
5, 161994, Control_c, 3, 1, 61
5, 162006, Control_c, 3, 1, 53
5, 162024, Control_c, 3, 1, 35
5, 162046, Control_c, 3, 1, 17
5, 162060, Control_c, 3, 1, 0
5, 163746, Pitch_bend_c, 3, 8322
5, 163748, Note_on_c, 3, 70, 109
5, 163758, Pitch_bend_c, 3, 10272
5, 163772, Pitch_bend_c, 3, 11052
5, 163786, Pitch_bend_c, 3, 11962
5, 163796, Pitch_bend_c, 3, 12872
5, 163810, Pitch_bend_c, 3, 13652
5, 163824, Pitch_bend_c, 3, 14302
5, 163838, Pitch_bend_c, 3, 14692
5, 163854, Pitch_bend_c, 3, 15472
5, 163868, Pitch_bend_c, 3, 15732
5, 163894, Pitch_bend_c, 3, 15212
5, 163910, Pitch_bend_c, 3, 14692
5, 163922, Pitch_bend_c, 3, 14042
5, 163940, Pitch_bend_c, 3, 13652
5, 163950, Pitch_bend_c, 3, 13002
5, 163966, Pitch_bend_c, 3, 12352
5, 163978, Pitch_bend_c, 3, 11702
5, 163992, Pitch_bend_c, 3, 10792
5, 164008, Pitch_bend_c, 3, 10012
5, 164020, Pitch_bend_c, 3, 9232
5, 164034, Pitch_bend_c, 3, 8582
5, 164050, Pitch_bend_c, 3, 8452
5, 164054, Pitch_bend_c, 3, 8192
5, 164128, Note_off_c, 3, 70, 109
5, 164146, Note_on_c, 3, 70, 91
5, 164220, Note_off_c, 3, 70, 91
5, 164350, Note_on_c, 3, 70, 100
5, 164516, Note_off_c, 3, 70, 100
5, 164636, Note_on_c, 3, 69, 100
5, 164912, Note_off_c, 3, 69, 100
5, 164934, Note_on_c, 3, 67, 100
5, 164988, Note_off_c, 3, 67, 100
5, 165128, Note_on_c, 3, 67, 100
5, 165190, Note_off_c, 3, 67, 100
5, 165318, Note_on_c, 3, 67, 109
5, 165392, Note_off_c, 3, 67, 109
5, 165484, Pitch_bend_c, 3, 6656
5, 165494, Pitch_bend_c, 3, 5248
5, 165504, Pitch_bend_c, 3, 3456
5, 165504, Note_on_c, 3, 69, 101
5, 165520, Pitch_bend_c, 3, 2048
5, 165550, Pitch_bend_c, 3, 2688
5, 165562, Pitch_bend_c, 3, 3328
5, 165578, Pitch_bend_c, 3, 4224
5, 165588, Pitch_bend_c, 3, 5120
5, 165602, Pitch_bend_c, 3, 5504
5, 165616, Pitch_bend_c, 3, 6656
5, 165632, Pitch_bend_c, 3, 7424
5, 165646, Pitch_bend_c, 3, 7936
5, 165652, Pitch_bend_c, 3, 8192
5, 165780, Note_off_c, 3, 69, 101
5, 165796, Note_on_c, 3, 65, 98
5, 166240, Note_off_c, 3, 65, 98
5, 166568, Note_on_c, 3, 62, 82
5, 166612, Note_off_c, 3, 62, 82
5, 166646, Note_on_c, 3, 65, 109
5, 166670, Control_c, 3, 1, 7
5, 166690, Control_c, 3, 1, 19
5, 166702, Note_off_c, 3, 65, 109
5, 166704, Control_c, 3, 1, 31
5, 166722, Control_c, 3, 1, 40
5, 166744, Control_c, 3, 1, 41
5, 166770, Control_c, 3, 1, 38
5, 166778, Control_c, 3, 1, 28
5, 166794, Control_c, 3, 1, 21
5, 166812, Control_c, 3, 1, 1
5, 166834, Note_on_c, 3, 65, 100
5, 166882, Control_c, 3, 1, 2
5, 166884, Control_c, 3, 1, 6
5, 166902, Note_off_c, 3, 65, 100
5, 166902, Control_c, 3, 1, 1
5, 166928, Note_on_c, 3, 62, 82
5, 166936, Control_c, 3, 1, 0
5, 166978, Note_off_c, 3, 62, 82
5, 167018, Note_on_c, 3, 65, 109
5, 167028, Control_c, 3, 1, 16
5, 167046, Control_c, 3, 1, 40
5, 167066, Control_c, 3, 1, 53
5, 167082, Control_c, 3, 1, 62
5, 167102, Control_c, 3, 1, 63
5, 167132, Control_c, 3, 1, 62
5, 167138, Control_c, 3, 1, 60
5, 167154, Control_c, 3, 1, 47
5, 167172, Control_c, 3, 1, 29
5, 167190, Control_c, 3, 1, 1
5, 167198, Note_off_c, 3, 65, 109
5, 167208, Control_c, 3, 1, 0
5, 167220, Note_on_c, 3, 62, 91
5, 167266, Note_off_c, 3, 62, 91
5, 167320, Note_on_c, 3, 65, 109
5, 167378, Note_off_c, 3, 65, 109
5, 167506, Note_on_c, 3, 65, 109
5, 167564, Note_off_c, 3, 65, 109
5, 167692, Note_on_c, 3, 65, 100
5, 167724, Control_c, 3, 1, 3
5, 167730, Control_c, 3, 1, 18
5, 167752, Control_c, 3, 1, 30
5, 167766, Control_c, 3, 1, 40
5, 167790, Control_c, 3, 1, 46
5, 167804, Control_c, 3, 1, 50
5, 167820, Control_c, 3, 1, 57
5, 167842, Control_c, 3, 1, 59
5, 167856, Control_c, 3, 1, 60
5, 167882, Control_c, 3, 1, 58
5, 167892, Control_c, 3, 1, 51
5, 167910, Control_c, 3, 1, 37
5, 167930, Control_c, 3, 1, 18
5, 167946, Control_c, 3, 1, 1
5, 167956, Note_off_c, 3, 65, 100
5, 167964, Control_c, 3, 1, 0
5, 167976, Note_on_c, 3, 65, 64
5, 168024, Note_off_c, 3, 65, 64
5, 169900, Pitch_bend_c, 3, 9622
5, 169908, Note_on_c, 3, 70, 109
5, 169914, Pitch_bend_c, 3, 14562
5, 169928, Pitch_bend_c, 3, 16382
5, 170084, Pitch_bend_c, 3, 15732
5, 170098, Pitch_bend_c, 3, 14692
5, 170110, Pitch_bend_c, 3, 13912
5, 170128, Pitch_bend_c, 3, 13132
5, 170140, Pitch_bend_c, 3, 12352
5, 170156, Pitch_bend_c, 3, 11702
5, 170168, Pitch_bend_c, 3, 10792
5, 170184, Pitch_bend_c, 3, 10142
5, 170200, Pitch_bend_c, 3, 9492
5, 170212, Pitch_bend_c, 3, 8712
5, 170226, Pitch_bend_c, 3, 8322
5, 170228, Pitch_bend_c, 3, 8192
5, 170254, Note_off_c, 3, 70, 109
5, 170292, Note_on_c, 3, 70, 100
5, 170366, Note_off_c, 3, 70, 100
5, 170492, Note_on_c, 3, 69, 109
5, 170552, Note_off_c, 3, 69, 109
5, 170706, Note_on_c, 3, 70, 100
5, 170762, Note_off_c, 3, 70, 100
5, 170812, Note_on_c, 3, 69, 100
5, 170866, Note_off_c, 3, 69, 100
5, 170994, Note_on_c, 3, 67, 109
5, 171048, Control_c, 3, 1, 1
5, 171066, Control_c, 3, 1, 6
5, 171078, Control_c, 3, 1, 11
5, 171098, Control_c, 3, 1, 17
5, 171114, Control_c, 3, 1, 26
5, 171134, Control_c, 3, 1, 35
5, 171152, Control_c, 3, 1, 41
5, 171174, Control_c, 3, 1, 43
5, 171186, Control_c, 3, 1, 46
5, 171216, Control_c, 3, 1, 45
5, 171222, Control_c, 3, 1, 36
5, 171236, Note_off_c, 3, 67, 109
5, 171242, Control_c, 3, 1, 15
5, 171258, Control_c, 3, 1, 0
5, 171274, Note_on_c, 3, 67, 101
5, 171324, Note_off_c, 3, 67, 101
5, 171458, Note_on_c, 3, 69, 91
5, 171480, Control_c, 3, 1, 8
5, 171492, Control_c, 3, 1, 19
5, 171510, Control_c, 3, 1, 32
5, 171532, Control_c, 3, 1, 40
5, 171548, Control_c, 3, 1, 46
5, 171566, Control_c, 3, 1, 48
5, 171596, Control_c, 3, 1, 47
5, 171600, Control_c, 3, 1, 38
5, 171620, Control_c, 3, 1, 18
5, 171636, Control_c, 3, 1, 0
5, 171644, Note_off_c, 3, 69, 91
5, 172584, Note_on_c, 3, 60, 100
5, 172778, Note_on_c, 3, 65, 91
5, 172780, Note_off_c, 3, 60, 100
5, 172828, Note_off_c, 3, 65, 91
5, 172980, Note_on_c, 3, 65, 91
5, 173014, Note_off_c, 3, 65, 91
5, 173074, Note_on_c, 3, 67, 100
5, 173140, Note_off_c, 3, 67, 100
5, 173268, Note_on_c, 3, 69, 100
5, 173336, Note_off_c, 3, 69, 100
5, 173458, Note_on_c, 3, 69, 109
5, 173644, Pitch_bend_c, 3, 7552
5, 173660, Pitch_bend_c, 3, 6528
5, 173668, Pitch_bend_c, 3, 5504
5, 173686, Pitch_bend_c, 3, 5376
5, 173696, Pitch_bend_c, 3, 5120
5, 173716, Pitch_bend_c, 3, 4992
5, 173740, Pitch_bend_c, 3, 5504
5, 173750, Pitch_bend_c, 3, 6528
5, 173764, Pitch_bend_c, 3, 7680
5, 173776, Pitch_bend_c, 3, 8192
5, 173896, Control_c, 3, 1, 4
5, 173914, Control_c, 3, 1, 15
5, 173924, Control_c, 3, 1, 24
5, 173942, Control_c, 3, 1, 35
5, 173958, Control_c, 3, 1, 54
5, 173978, Control_c, 3, 1, 61
5, 173996, Control_c, 3, 1, 62
5, 174018, Control_c, 3, 1, 52
5, 174030, Control_c, 3, 1, 34
5, 174052, Control_c, 3, 1, 11
5, 174058, Note_off_c, 3, 69, 109
5, 174068, Control_c, 3, 1, 0
5, 176052, Note_on_c, 3, 65, 91
5, 176202, Note_off_c, 3, 65, 91
5, 176242, Note_on_c, 3, 65, 100
5, 176244, Control_c, 3, 1, 24
5, 176266, Control_c, 3, 1, 38
5, 176282, Control_c, 3, 1, 46
5, 176298, Control_c, 3, 1, 48
5, 176330, Control_c, 3, 1, 47
5, 176340, Control_c, 3, 1, 45
5, 176354, Control_c, 3, 1, 39
5, 176370, Control_c, 3, 1, 26
5, 176388, Control_c, 3, 1, 10
5, 176394, Note_off_c, 3, 65, 100
5, 176406, Control_c, 3, 1, 1
5, 176424, Control_c, 3, 1, 0
5, 176436, Note_on_c, 3, 65, 91
5, 176500, Note_off_c, 3, 65, 91
5, 176534, Note_on_c, 3, 69, 100
5, 176556, Control_c, 3, 1, 8
5, 176570, Control_c, 3, 1, 23
5, 176586, Control_c, 3, 1, 37
5, 176604, Control_c, 3, 1, 42
5, 176636, Control_c, 3, 1, 39
5, 176648, Control_c, 3, 1, 30
5, 176664, Control_c, 3, 1, 18
5, 176678, Control_c, 3, 1, 1
5, 176708, Control_c, 3, 1, 0
5, 176718, Note_off_c, 3, 69, 100
5, 176758, Note_on_c, 3, 69, 100
5, 176924, Note_off_c, 3, 69, 100
5, 176944, Note_on_c, 3, 72, 100
5, 177008, Note_off_c, 3, 72, 100
5, 177214, Note_on_c, 3, 65, 91
5, 177258, Note_off_c, 3, 65, 91
5, 177318, Note_on_c, 3, 65, 100
5, 177330, Control_c, 3, 1, 10
5, 177346, Control_c, 3, 1, 27
5, 177360, Control_c, 3, 1, 43
5, 177378, Control_c, 3, 1, 56
5, 177398, Control_c, 3, 1, 64
5, 177414, Control_c, 3, 1, 69
5, 177432, Control_c, 3, 1, 71
5, 177472, Control_c, 3, 1, 67
5, 177490, Control_c, 3, 1, 60
5, 177504, Control_c, 3, 1, 45
5, 177526, Control_c, 3, 1, 27
5, 177544, Note_off_c, 3, 65, 100
5, 177544, Control_c, 3, 1, 1
5, 177570, Control_c, 3, 1, 0
5, 177584, Note_on_c, 3, 65, 91
5, 177640, Note_off_c, 3, 65, 91
5, 177688, Note_on_c, 3, 69, 109
5, 177738, Note_off_c, 3, 69, 109
5, 177878, Note_on_c, 3, 65, 109
5, 177906, Control_c, 3, 1, 7
5, 177920, Control_c, 3, 1, 22
5, 177938, Control_c, 3, 1, 37
5, 177956, Control_c, 3, 1, 44
5, 177972, Control_c, 3, 1, 51
5, 177992, Control_c, 3, 1, 56
5, 178010, Control_c, 3, 1, 57
5, 178026, Control_c, 3, 1, 59
5, 178052, Control_c, 3, 1, 60
5, 178062, Control_c, 3, 1, 62
5, 178080, Control_c, 3, 1, 64
5, 178098, Control_c, 3, 1, 69
5, 178120, Control_c, 3, 1, 75
5, 178136, Control_c, 3, 1, 79
5, 178154, Control_c, 3, 1, 82
5, 178184, Control_c, 3, 1, 81
5, 178192, Control_c, 3, 1, 72
5, 178208, Control_c, 3, 1, 27
5, 178228, Control_c, 3, 1, 0
5, 178230, Note_off_c, 3, 65, 109
5, 178850, Note_on_c, 3, 62, 64
5, 178896, Note_off_c, 3, 62, 64
5, 178932, Note_on_c, 3, 65, 109
5, 178964, Control_c, 3, 1, 6
5, 178986, Control_c, 3, 1, 17
5, 179000, Control_c, 3, 1, 28
5, 179016, Control_c, 3, 1, 36
5, 179036, Control_c, 3, 1, 38
5, 179052, Control_c, 3, 1, 39
5, 179072, Control_c, 3, 1, 33
5, 179076, Note_off_c, 3, 65, 109
5, 179088, Control_c, 3, 1, 20
5, 179110, Control_c, 3, 1, 10
5, 179124, Control_c, 3, 1, 0
5, 179124, Note_on_c, 3, 65, 100
5, 179182, Note_off_c, 3, 65, 100
5, 179228, Note_on_c, 3, 67, 100
5, 179288, Note_off_c, 3, 67, 100
5, 179412, Note_on_c, 3, 69, 100
5, 179480, Note_off_c, 3, 69, 100
5, 179600, Note_on_c, 3, 69, 109
5, 179724, Pitch_bend_c, 3, 7552
5, 179730, Pitch_bend_c, 3, 6144
5, 179742, Pitch_bend_c, 3, 5120
5, 179762, Pitch_bend_c, 3, 4608
5, 179776, Pitch_bend_c, 3, 4352
5, 179784, Pitch_bend_c, 3, 4352
5, 179800, Pitch_bend_c, 3, 5248
5, 179812, Pitch_bend_c, 3, 6912
5, 179828, Pitch_bend_c, 3, 7808
5, 179836, Pitch_bend_c, 3, 8192
5, 180022, Control_c, 3, 11, 126
5, 180122, Note_off_c, 3, 69, 109
5, 180190, Control_c, 3, 11, 125
5, 180318, Control_c, 3, 11, 124
5, 180464, Control_c, 3, 11, 123
5, 180686, Control_c, 3, 11, 122
5, 180822, Control_c, 3, 11, 121
5, 180968, Control_c, 3, 11, 120
5, 181076, Control_c, 3, 11, 119
5, 181196, Control_c, 3, 11, 118
5, 181318, Control_c, 3, 11, 117
5, 181418, Control_c, 3, 11, 116
5, 181550, Control_c, 3, 11, 115
5, 181664, Control_c, 3, 11, 114
5, 181744, Control_c, 3, 11, 113
5, 181842, Control_c, 3, 11, 112
5, 181996, Control_c, 3, 11, 111
5, 182134, Control_c, 3, 11, 110
5, 182234, Control_c, 3, 11, 109
5, 182354, Control_c, 3, 11, 108
5, 182568, Control_c, 3, 11, 107
5, 182594, Note_on_c, 3, 67, 109
5, 182652, Note_off_c, 3, 67, 109
5, 182716, Control_c, 3, 11, 106
5, 182782, Note_on_c, 3, 69, 100
5, 182818, Control_c, 3, 1, 9
5, 182830, Control_c, 3, 11, 105
5, 182832, Control_c, 3, 1, 24
5, 182856, Control_c, 3, 1, 32
5, 182870, Control_c, 3, 1, 37
5, 182886, Control_c, 3, 1, 41
5, 182908, Control_c, 3, 1, 44
5, 182916, Control_c, 3, 11, 104
5, 182934, Control_c, 3, 1, 45
5, 182940, Control_c, 3, 1, 47
5, 183002, Control_c, 3, 1, 45
5, 183022, Control_c, 3, 1, 41
5, 183032, Control_c, 3, 1, 34
5, 183034, Control_c, 3, 11, 103
5, 183050, Control_c, 3, 1, 21
5, 183070, Control_c, 3, 1, 5
5, 183084, Note_off_c, 3, 69, 100
5, 183084, Control_c, 3, 1, 0
5, 183102, Note_on_c, 3, 67, 100
5, 183118, Control_c, 3, 11, 102
5, 183152, Note_off_c, 3, 67, 100
5, 183214, Control_c, 3, 11, 101
5, 183354, Note_on_c, 3, 69, 100
5, 183358, Control_c, 3, 11, 100
5, 183472, Pitch_bend_c, 3, 6656
5, 183480, Pitch_bend_c, 3, 5376
5, 183496, Pitch_bend_c, 3, 3840
5, 183512, Control_c, 3, 11, 99
5, 183514, Pitch_bend_c, 3, 3456
5, 183530, Pitch_bend_c, 3, 3712
5, 183536, Pitch_bend_c, 3, 4608
5, 183552, Pitch_bend_c, 3, 5376
5, 183564, Pitch_bend_c, 3, 6400
5, 183578, Pitch_bend_c, 3, 7552
5, 183596, Pitch_bend_c, 3, 7808
5, 183600, Pitch_bend_c, 3, 8192
5, 183742, Control_c, 3, 11, 98
5, 183874, Control_c, 3, 1, 1
5, 183912, Control_c, 3, 1, 5
5, 183932, Control_c, 3, 1, 8
5, 183950, Control_c, 3, 1, 10
5, 183958, Control_c, 3, 11, 97
5, 183972, Control_c, 3, 1, 12
5, 183988, Control_c, 3, 1, 13
5, 184004, Control_c, 3, 1, 16
5, 184022, Control_c, 3, 1, 22
5, 184038, Control_c, 3, 1, 26
5, 184058, Control_c, 3, 1, 30
5, 184074, Control_c, 3, 1, 34
5, 184094, Control_c, 3, 1, 37
5, 184110, Control_c, 3, 1, 40
5, 184128, Control_c, 3, 1, 42
5, 184146, Control_c, 3, 1, 47
5, 184150, Control_c, 3, 11, 96
5, 184172, Control_c, 3, 1, 51
5, 184184, Control_c, 3, 1, 55
5, 184202, Control_c, 3, 1, 58
5, 184222, Control_c, 3, 1, 60
5, 184264, Control_c, 3, 1, 58
5, 184274, Control_c, 3, 1, 46
5, 184290, Control_c, 3, 1, 1
5, 184310, Note_off_c, 3, 69, 100
5, 184310, Control_c, 3, 1, 0
5, 184360, Control_c, 3, 11, 95
5, 184458, Control_c, 3, 11, 94
5, 184574, Control_c, 3, 11, 93
5, 184726, Control_c, 3, 11, 92
5, 184852, Control_c, 3, 11, 91
5, 185030, Control_c, 3, 11, 90
5, 185064, Note_on_c, 3, 65, 109
5, 185078, Control_c, 3, 1, 1
5, 185088, Control_c, 3, 1, 10
5, 185100, Control_c, 3, 1, 30
5, 185120, Control_c, 3, 1, 41
5, 185136, Control_c, 3, 1, 44
5, 185156, Control_c, 3, 11, 89
5, 185164, Control_c, 3, 1, 42
5, 185172, Control_c, 3, 1, 31
5, 185192, Control_c, 3, 1, 19
5, 185208, Control_c, 3, 1, 1
5, 185236, Control_c, 3, 1, 0
5, 185240, Note_off_c, 3, 65, 109
5, 185248, Control_c, 3, 11, 88
5, 185278, Note_on_c, 3, 65, 82
5, 185338, Note_off_c, 3, 65, 82
5, 185366, Note_on_c, 3, 62, 91
5, 185370, Control_c, 3, 11, 87
5, 185418, Note_off_c, 3, 62, 91
5, 185428, Control_c, 3, 1, 2
5, 185442, Control_c, 3, 1, 22
5, 185456, Note_on_c, 3, 65, 109
5, 185470, Control_c, 3, 1, 38
5, 185484, Control_c, 3, 1, 50
5, 185498, Control_c, 3, 1, 61
5, 185502, Control_c, 3, 11, 86
5, 185514, Control_c, 3, 1, 69
5, 185540, Control_c, 3, 1, 70
5, 185562, Control_c, 3, 1, 69
5, 185568, Control_c, 3, 1, 64
5, 185588, Control_c, 3, 1, 57
5, 185590, Control_c, 3, 11, 85
5, 185604, Control_c, 3, 1, 39
5, 185624, Control_c, 3, 1, 26
5, 185634, Note_off_c, 3, 65, 109
5, 185640, Control_c, 3, 1, 1
5, 185640, Note_on_c, 3, 62, 73
5, 185668, Control_c, 3, 1, 0
5, 185694, Note_off_c, 3, 62, 73
5, 185708, Control_c, 3, 11, 84
5, 185734, Note_on_c, 3, 65, 100
5, 185782, Control_c, 3, 1, 1
5, 185794, Control_c, 3, 11, 83
5, 185802, Control_c, 3, 1, 7
5, 185822, Control_c, 3, 1, 10
5, 185846, Control_c, 3, 1, 11
5, 185864, Control_c, 3, 1, 9
5, 185876, Control_c, 3, 1, 2
5, 185876, Control_c, 3, 11, 82
5, 185892, Control_c, 3, 1, 1
5, 185924, Control_c, 3, 1, 0
5, 185928, Note_off_c, 3, 65, 100
5, 185954, Control_c, 3, 1, 1
5, 185960, Note_on_c, 3, 65, 91
5, 186012, Control_c, 3, 11, 81
5, 186058, Control_c, 3, 1, 0
5, 186116, Note_off_c, 3, 65, 91
5, 186116, Control_c, 3, 11, 80
5, 186166, Note_on_c, 3, 65, 100
5, 186190, Control_c, 3, 11, 79
5, 186222, Control_c, 3, 1, 1
5, 186248, Control_c, 3, 1, 2
5, 186252, Control_c, 3, 1, 6
5, 186266, Control_c, 3, 11, 78
5, 186274, Control_c, 3, 1, 9
5, 186290, Control_c, 3, 1, 13
5, 186306, Control_c, 3, 1, 15
5, 186326, Control_c, 3, 1, 19
5, 186346, Control_c, 3, 1, 21
5, 186354, Control_c, 3, 11, 77
5, 186372, Control_c, 3, 1, 23
5, 186386, Control_c, 3, 1, 25
5, 186396, Control_c, 3, 1, 30
5, 186420, Control_c, 3, 1, 34
5, 186426, Note_off_c, 3, 65, 100
5, 186432, Control_c, 3, 1, 41
5, 186450, Control_c, 3, 1, 57
5, 186450, Note_on_c, 3, 65, 98
5, 186474, Control_c, 3, 1, 63
5, 186480, Control_c, 3, 11, 76
5, 186492, Note_off_c, 3, 65, 98
5, 186492, Control_c, 3, 1, 69
5, 186504, Control_c, 3, 1, 73
5, 186538, Control_c, 3, 1, 72
5, 186546, Control_c, 3, 1, 70
5, 186558, Control_c, 3, 1, 62
5, 186564, Control_c, 3, 11, 75
5, 186578, Control_c, 3, 1, 53
5, 186600, Control_c, 3, 1, 43
5, 186614, Control_c, 3, 1, 27
5, 186630, Control_c, 3, 1, 1
5, 186650, Control_c, 3, 1, 0
5, 186668, Control_c, 3, 11, 74
5, 186740, Control_c, 3, 11, 73
5, 186848, Control_c, 3, 11, 72
5, 186938, Control_c, 3, 11, 71
5, 187022, Control_c, 3, 11, 70
5, 187124, Control_c, 3, 11, 69
5, 187212, Control_c, 3, 11, 68
5, 187312, Control_c, 3, 11, 67
5, 187382, Control_c, 3, 11, 66
5, 187466, Control_c, 3, 11, 65
5, 187586, Control_c, 3, 11, 64
5, 187670, Control_c, 3, 11, 63
5, 187778, Control_c, 3, 11, 62
5, 187864, Control_c, 3, 11, 61
5, 187958, Control_c, 3, 11, 60
5, 188098, Control_c, 3, 11, 59
5, 188242, Control_c, 3, 11, 58
5, 188322, Pitch_bend_c, 3, 8322
5, 188324, Note_on_c, 3, 70, 109
5, 188334, Pitch_bend_c, 3, 9752
5, 188340, Pitch_bend_c, 3, 10792
5, 188354, Pitch_bend_c, 3, 11182
5, 188366, Pitch_bend_c, 3, 12222
5, 188380, Pitch_bend_c, 3, 13522
5, 188380, Control_c, 3, 11, 57
5, 188398, Pitch_bend_c, 3, 14042
5, 188410, Pitch_bend_c, 3, 14562
5, 188422, Pitch_bend_c, 3, 15472
5, 188444, Pitch_bend_c, 3, 15602
5, 188452, Pitch_bend_c, 3, 15732
5, 188470, Pitch_bend_c, 3, 15472
5, 188478, Pitch_bend_c, 3, 14822
5, 188496, Pitch_bend_c, 3, 14432
5, 188496, Control_c, 3, 11, 56
5, 188506, Pitch_bend_c, 3, 13782
5, 188522, Pitch_bend_c, 3, 13262
5, 188534, Pitch_bend_c, 3, 12612
5, 188550, Pitch_bend_c, 3, 11832
5, 188566, Pitch_bend_c, 3, 11312
5, 188576, Pitch_bend_c, 3, 10272
5, 188592, Pitch_bend_c, 3, 9362
5, 188606, Pitch_bend_c, 3, 8582
5, 188618, Control_c, 3, 11, 55
5, 188626, Pitch_bend_c, 3, 8452
5, 188630, Pitch_bend_c, 3, 8192
5, 188704, Note_off_c, 3, 70, 109
5, 188722, Note_on_c, 3, 70, 91
5, 188740, Control_c, 3, 11, 54
5, 188796, Note_off_c, 3, 70, 91
5, 188834, Control_c, 3, 11, 53
5, 188926, Note_on_c, 3, 70, 100
5, 188948, Control_c, 3, 11, 52
5, 189018, Control_c, 3, 11, 51
5, 189092, Note_off_c, 3, 70, 100
5, 189136, Control_c, 3, 11, 50
5, 189212, Note_on_c, 3, 69, 100
5, 189250, Control_c, 3, 11, 49
5, 189388, Control_c, 3, 11, 48
5, 189484, Control_c, 3, 11, 47
5, 189488, Note_off_c, 3, 69, 100
5, 189510, Note_on_c, 3, 67, 100
5, 189564, Note_off_c, 3, 67, 100
5, 189598, Control_c, 3, 11, 46
5, 189662, Control_c, 3, 11, 45
5, 189704, Note_on_c, 3, 67, 100
5, 189766, Note_off_c, 3, 67, 100
5, 189774, Control_c, 3, 11, 44
5, 189894, Note_on_c, 3, 67, 109
5, 189906, Control_c, 3, 11, 43
5, 189968, Note_off_c, 3, 67, 109
5, 190010, Control_c, 3, 11, 42
5, 190060, Pitch_bend_c, 3, 5248
5, 190080, Pitch_bend_c, 3, 3840
5, 190080, Note_on_c, 3, 69, 101
5, 190090, Pitch_bend_c, 3, 2176
5, 190104, Pitch_bend_c, 3, 2048
5, 190126, Pitch_bend_c, 3, 2176
5, 190126, Control_c, 3, 11, 41
5, 190132, Pitch_bend_c, 3, 3072
5, 190148, Pitch_bend_c, 3, 4096
5, 190162, Pitch_bend_c, 3, 4992
5, 190172, Pitch_bend_c, 3, 5504
5, 190192, Pitch_bend_c, 3, 6144
5, 190200, Pitch_bend_c, 3, 7424
5, 190222, Pitch_bend_c, 3, 7936
5, 190228, Pitch_bend_c, 3, 8192
5, 190244, Control_c, 3, 11, 40
5, 190340, Control_c, 3, 11, 39
5, 190356, Note_off_c, 3, 69, 101
5, 190372, Note_on_c, 3, 65, 98
5, 190452, Control_c, 3, 11, 38
5, 190542, Control_c, 3, 11, 37
5, 190652, Control_c, 3, 11, 36
5, 190758, Control_c, 3, 11, 35
5, 190816, Note_off_c, 3, 65, 98
5, 190864, Control_c, 3, 11, 34
5, 190950, Control_c, 3, 11, 33
5, 191066, Control_c, 3, 11, 32
5, 191144, Note_on_c, 3, 62, 82
5, 191168, Control_c, 3, 11, 31
5, 191188, Note_off_c, 3, 62, 82
5, 191222, Note_on_c, 3, 65, 109
5, 191246, Control_c, 3, 1, 1
5, 191254, Control_c, 3, 11, 30
5, 191258, Control_c, 3, 1, 13
5, 191274, Control_c, 3, 1, 28
5, 191278, Note_off_c, 3, 65, 109
5, 191294, Control_c, 3, 1, 37
5, 191312, Control_c, 3, 1, 41
5, 191346, Control_c, 3, 1, 31
5, 191368, Control_c, 3, 1, 21
5, 191382, Control_c, 3, 11, 29
5, 191388, Control_c, 3, 1, 4
5, 191402, Control_c, 3, 1, 1
5, 191410, Note_on_c, 3, 65, 100
5, 191458, Control_c, 3, 1, 6
5, 191478, Note_off_c, 3, 65, 100
5, 191478, Control_c, 3, 1, 1
5, 191504, Note_on_c, 3, 62, 82
5, 191512, Control_c, 3, 1, 0
5, 191554, Note_off_c, 3, 62, 82
5, 191578, Control_c, 3, 11, 28
5, 191594, Note_on_c, 3, 65, 109
5, 191604, Control_c, 3, 1, 16
5, 191622, Control_c, 3, 1, 31
5, 191636, Control_c, 3, 1, 53
5, 191658, Control_c, 3, 1, 60
5, 191672, Control_c, 3, 1, 63
5, 191688, Control_c, 3, 11, 27
5, 191708, Control_c, 3, 1, 60
5, 191730, Control_c, 3, 1, 49
5, 191742, Control_c, 3, 1, 33
5, 191764, Control_c, 3, 1, 13
5, 191774, Note_off_c, 3, 65, 109
5, 191780, Control_c, 3, 1, 0
5, 191790, Control_c, 3, 11, 26
5, 191796, Note_on_c, 3, 62, 91
5, 191842, Note_off_c, 3, 62, 91
5, 191896, Note_on_c, 3, 65, 109
5, 191942, Control_c, 3, 11, 25
5, 191954, Note_off_c, 3, 65, 109
5, 192078, Control_c, 3, 11, 24
5, 192082, Note_on_c, 3, 65, 109
5, 192140, Note_off_c, 3, 65, 109
5, 192178, Control_c, 3, 11, 23
5, 192268, Note_on_c, 3, 65, 100
5, 192298, Control_c, 3, 11, 22
5, 192300, Control_c, 3, 1, 13
5, 192320, Control_c, 3, 1, 25
5, 192340, Control_c, 3, 1, 37
5, 192358, Control_c, 3, 1, 43
5, 192372, Control_c, 3, 1, 50
5, 192396, Control_c, 3, 1, 55
5, 192410, Control_c, 3, 1, 59
5, 192432, Control_c, 3, 1, 60
5, 192458, Control_c, 3, 1, 59
5, 192466, Control_c, 3, 1, 53
5, 192482, Control_c, 3, 1, 40
5, 192492, Control_c, 3, 11, 21
5, 192502, Control_c, 3, 1, 24
5, 192518, Control_c, 3, 1, 1
5, 192532, Note_off_c, 3, 65, 100
5, 192540, Control_c, 3, 1, 0
5, 192552, Note_on_c, 3, 65, 64
5, 192600, Note_off_c, 3, 65, 64
5, 192630, Control_c, 3, 11, 20
5, 192774, Control_c, 3, 11, 19
5, 192892, Control_c, 3, 11, 18
5, 193038, Control_c, 3, 11, 17
5, 193126, Control_c, 3, 11, 16
5, 193310, Control_c, 3, 11, 15
5, 193368, Control_c, 3, 11, 14
5, 193458, Control_c, 3, 11, 13
5, 193542, Control_c, 3, 11, 12
5, 193656, Control_c, 3, 11, 11
5, 193736, Control_c, 3, 11, 10
5, 193806, Control_c, 3, 11, 9
5, 193882, Control_c, 3, 11, 8
5, 193952, Control_c, 3, 11, 7
5, 194038, Control_c, 3, 11, 6
5, 194090, Control_c, 3, 11, 5
5, 194164, Control_c, 3, 11, 4
5, 194212, Control_c, 3, 11, 3
5, 194320, Control_c, 3, 11, 2
5, 194420, Control_c, 3, 11, 1
5, 194910, Control_c, 3, 11, 0
5, 196812, Control_c, 3, 121, 127
5, 197004, Control_c, 3, 7, 127
5, 197196, Control_c, 3, 10, 64
5, 198144, End_track
6, 0, Start_track
6, 1744, Control_c, 4, 121, 127
6, 1936, Control_c, 4, 0, 0
6, 2128, Program_c, 4, 48
6, 2320, Control_c, 4, 7, 105
6, 2512, Control_c, 4, 10, 50
6, 2704, Control_c, 4, 11, 127
6, 2896, Control_c, 4, 91, 100
6, 3088, Control_c, 4, 93, 0
6, 14782, Note_on_c, 4, 60, 61
6, 14842, Note_off_c, 4, 60, 61
6, 14848, Note_on_c, 4, 60, 64
6, 14912, Note_off_c, 4, 60, 64
6, 14930, Note_on_c, 4, 62, 52
6, 15148, Note_on_c, 4, 65, 46
6, 15194, Note_off_c, 4, 62, 52
6, 15196, Note_on_c, 4, 66, 31
6, 15226, Note_on_c, 4, 67, 40
6, 15252, Note_on_c, 4, 68, 40
6, 15266, Note_off_c, 4, 66, 31
6, 15268, Note_off_c, 4, 65, 46
6, 15290, Note_off_c, 4, 67, 40
6, 15308, Note_on_c, 4, 69, 56
6, 15348, Note_off_c, 4, 68, 40
6, 16096, Note_on_c, 4, 64, 52
6, 16108, Note_off_c, 4, 69, 56
6, 16302, Note_off_c, 4, 64, 52
6, 16306, Note_on_c, 4, 65, 56
6, 16674, Note_on_c, 4, 67, 56
6, 16686, Note_off_c, 4, 65, 56
6, 16852, Note_off_c, 4, 67, 56
6, 16870, Note_on_c, 4, 60, 52
6, 19768, Note_on_c, 4, 65, 46
6, 19770, Note_off_c, 4, 60, 52
6, 19804, Note_on_c, 4, 66, 49
6, 19834, Note_off_c, 4, 65, 46
6, 19846, Note_on_c, 4, 67, 49
6, 19864, Note_on_c, 4, 68, 56
6, 19908, Note_off_c, 4, 66, 49
6, 19912, Note_off_c, 4, 67, 49
6, 19924, Note_on_c, 4, 69, 52
6, 19952, Note_off_c, 4, 68, 56
6, 22242, Note_on_c, 4, 67, 52
6, 22276, Note_off_c, 4, 69, 52
6, 22524, Note_on_c, 4, 68, 52
6, 22604, Note_on_c, 4, 69, 52
6, 22610, Note_off_c, 4, 67, 52
6, 22642, Note_off_c, 4, 68, 52
6, 22990, Note_off_c, 4, 69, 52
6, 22994, Note_on_c, 4, 67, 52
6, 25524, Note_on_c, 4, 74, 55
6, 25562, Note_off_c, 4, 67, 52
6, 25902, Note_on_c, 4, 72, 52
6, 25938, Note_off_c, 4, 74, 55
6, 26086, Note_on_c, 4, 69, 56
6, 26114, Note_off_c, 4, 72, 52
6, 26444, Note_on_c, 4, 62, 58
6, 26460, Note_off_c, 4, 69, 56
6, 26576, Note_on_c, 4, 64, 52
6, 26612, Note_on_c, 4, 65, 52
6, 26632, Note_off_c, 4, 62, 58
6, 26648, Note_on_c, 4, 67, 58
6, 26650, Note_off_c, 4, 64, 52
6, 26684, Note_off_c, 4, 65, 52
6, 26690, Note_on_c, 4, 69, 52
6, 26722, Note_off_c, 4, 67, 58
6, 28484, Note_off_c, 4, 69, 52
6, 28784, Note_on_c, 4, 72, 81
6, 28792, Note_on_c, 4, 84, 81
6, 28856, Note_on_c, 4, 70, 72
6, 28864, Note_on_c, 4, 82, 72
6, 28888, Note_off_c, 4, 72, 81
6, 28896, Note_off_c, 4, 84, 81
6, 28910, Note_on_c, 4, 69, 72
6, 28918, Note_on_c, 4, 81, 72
6, 28940, Note_off_c, 4, 70, 72
6, 28948, Note_off_c, 4, 82, 72
6, 28956, Note_on_c, 4, 67, 81
6, 28964, Note_on_c, 4, 79, 81
6, 28988, Note_off_c, 4, 69, 72
6, 28996, Note_off_c, 4, 81, 72
6, 29010, Note_on_c, 4, 65, 54
6, 29016, Note_off_c, 4, 67, 81
6, 29018, Note_on_c, 4, 77, 54
6, 29024, Note_off_c, 4, 79, 81
6, 29054, Note_on_c, 4, 64, 72
6, 29062, Note_on_c, 4, 76, 72
6, 29074, Note_off_c, 4, 65, 54
6, 29074, Note_on_c, 4, 62, 69
6, 29082, Note_off_c, 4, 77, 54
6, 29082, Note_on_c, 4, 74, 69
6, 29110, Note_on_c, 4, 60, 73
6, 29118, Note_on_c, 4, 72, 73
6, 29126, Note_off_c, 4, 64, 72
6, 29134, Note_off_c, 4, 76, 72
6, 29166, Note_off_c, 4, 62, 69
6, 29174, Note_off_c, 4, 74, 69
6, 32116, Note_on_c, 4, 82, 56
6, 32154, Note_on_c, 4, 83, 56
6, 32222, Note_on_c, 4, 84, 55
6, 32226, Note_off_c, 4, 82, 56
6, 32274, Note_off_c, 4, 83, 56
6, 34370, Note_off_c, 4, 84, 55
6, 34518, Note_on_c, 4, 74, 71
6, 34530, Note_off_c, 4, 72, 73
6, 34550, Note_on_c, 4, 62, 75
6, 34554, Note_off_c, 4, 60, 73
6, 34732, Note_off_c, 4, 74, 71
6, 34738, Note_on_c, 4, 64, 72
6, 34748, Note_on_c, 4, 76, 64
6, 34754, Note_off_c, 4, 62, 75
6, 34922, Note_on_c, 4, 77, 82
6, 34922, Note_on_c, 4, 65, 81
6, 34926, Note_off_c, 4, 76, 64
6, 34928, Note_off_c, 4, 64, 72
6, 35106, Note_on_c, 4, 79, 82
6, 35114, Note_off_c, 4, 77, 82
6, 35114, Note_on_c, 4, 67, 91
6, 35140, Note_off_c, 4, 65, 81
6, 35312, Note_off_c, 4, 67, 91
6, 35312, Note_off_c, 4, 79, 82
6, 35876, Note_on_c, 4, 72, 60
6, 35882, Note_on_c, 4, 60, 64
6, 37596, Note_on_c, 4, 65, 64
6, 37610, Note_on_c, 4, 77, 67
6, 37660, Note_off_c, 4, 72, 60
6, 37670, Note_off_c, 4, 60, 64
6, 37738, Note_off_c, 4, 77, 67
6, 37772, Note_off_c, 4, 65, 64
6, 37800, Note_on_c, 4, 77, 56
6, 37804, Note_on_c, 4, 65, 54
6, 37892, Note_on_c, 4, 67, 64
6, 37896, Note_on_c, 4, 79, 71
6, 37900, Note_off_c, 4, 77, 56
6, 37904, Note_off_c, 4, 65, 54
6, 37962, Note_off_c, 4, 67, 64
6, 37972, Note_off_c, 4, 79, 71
6, 37974, Note_on_c, 4, 69, 73
6, 37984, Note_on_c, 4, 81, 78
6, 38072, Note_off_c, 4, 81, 78
6, 38072, Note_on_c, 4, 65, 73
6, 38074, Note_off_c, 4, 69, 73
6, 38082, Note_on_c, 4, 77, 61
6, 38168, Note_off_c, 4, 65, 73
6, 38172, Note_on_c, 4, 62, 73
6, 38172, Note_on_c, 4, 74, 68
6, 38180, Note_off_c, 4, 77, 61
6, 38360, Note_on_c, 4, 77, 64
6, 38370, Note_on_c, 4, 65, 64
6, 38376, Note_off_c, 4, 74, 68
6, 38390, Note_off_c, 4, 62, 73
6, 38942, Note_on_c, 4, 81, 58
6, 38966, Note_off_c, 4, 77, 64
6, 38970, Note_on_c, 4, 69, 64
6, 38994, Note_off_c, 4, 65, 64
6, 40716, Note_off_c, 4, 69, 64
6, 40728, Note_off_c, 4, 81, 58
6, 40872, Note_on_c, 4, 62, 75
6, 40880, Note_on_c, 4, 74, 75
6, 40968, Note_on_c, 4, 64, 66
6, 40976, Note_on_c, 4, 76, 66
6, 41036, Note_off_c, 4, 62, 75
6, 41044, Note_off_c, 4, 74, 75
6, 41064, Note_on_c, 4, 65, 60
6, 41070, Note_off_c, 4, 64, 66
6, 41072, Note_on_c, 4, 77, 60
6, 41078, Note_off_c, 4, 76, 66
6, 41158, Note_on_c, 4, 67, 60
6, 41162, Note_off_c, 4, 65, 60
6, 41166, Note_on_c, 4, 79, 60
6, 41170, Note_off_c, 4, 77, 60
6, 41248, Note_on_c, 4, 69, 60
6, 41256, Note_on_c, 4, 81, 60
6, 41280, Note_off_c, 4, 67, 60
6, 41288, Note_off_c, 4, 79, 60
6, 41358, Note_off_c, 4, 69, 60
6, 41358, Note_on_c, 4, 70, 64
6, 41366, Note_off_c, 4, 81, 60
6, 41366, Note_on_c, 4, 82, 64
6, 41440, Note_on_c, 4, 69, 67
6, 41448, Note_on_c, 4, 81, 62
6, 41452, Note_off_c, 4, 70, 64
6, 41460, Note_off_c, 4, 82, 64
6, 41754, Note_on_c, 4, 77, 60
6, 41762, Note_on_c, 4, 65, 52
6, 41780, Note_off_c, 4, 69, 67
6, 41828, Note_off_c, 4, 81, 62
6, 42030, Note_on_c, 4, 72, 60
6, 42032, Note_on_c, 4, 60, 56
6, 42042, Note_off_c, 4, 77, 60
6, 42048, Note_off_c, 4, 65, 52
6, 42990, Note_off_c, 4, 72, 60
6, 43016, Note_off_c, 4, 60, 56
6, 43756, Note_on_c, 4, 65, 64
6, 43756, Note_on_c, 4, 77, 73
6, 43882, Note_off_c, 4, 77, 73
6, 43900, Note_off_c, 4, 65, 64
6, 43948, Note_on_c, 4, 77, 64
6, 43950, Note_on_c, 4, 65, 69
6, 43996, Note_off_c, 4, 77, 64
6, 43998, Note_off_c, 4, 65, 69
6, 44030, Note_on_c, 4, 77, 73
6, 44054, Note_on_c, 4, 65, 60
6, 44084, Note_off_c, 4, 77, 73
6, 44116, Note_off_c, 4, 65, 60
6, 44126, Note_on_c, 4, 77, 73
6, 44156, Note_on_c, 4, 65, 73
6, 44280, Note_off_c, 4, 77, 73
6, 44316, Note_off_c, 4, 65, 73
6, 44330, Note_on_c, 4, 74, 64
6, 44342, Note_on_c, 4, 62, 64
6, 44512, Note_off_c, 4, 62, 64
6, 44526, Note_off_c, 4, 74, 64
6, 44526, Note_on_c, 4, 65, 64
6, 44530, Note_on_c, 4, 77, 64
6, 45104, Note_on_c, 4, 69, 52
6, 45114, Note_off_c, 4, 65, 64
6, 45114, Note_on_c, 4, 81, 64
6, 45132, Note_off_c, 4, 77, 64
6, 47214, Note_off_c, 4, 81, 64
6, 47218, Note_off_c, 4, 69, 52
6, 47222, Note_on_c, 4, 77, 60
6, 47226, Note_on_c, 4, 65, 73
6, 47304, Note_off_c, 4, 77, 60
6, 47312, Note_on_c, 4, 79, 60
6, 47314, Note_off_c, 4, 65, 73
6, 47314, Note_on_c, 4, 67, 73
6, 47400, Note_off_c, 4, 67, 73
6, 47400, Note_off_c, 4, 79, 60
6, 47400, Note_on_c, 4, 69, 56
6, 47406, Note_on_c, 4, 81, 64
6, 47476, Note_off_c, 4, 69, 56
6, 47480, Note_on_c, 4, 70, 66
6, 47504, Note_off_c, 4, 81, 64
6, 47508, Note_on_c, 4, 82, 71
6, 47586, Note_off_c, 4, 70, 66
6, 47588, Note_off_c, 4, 82, 71
6, 47592, Note_on_c, 4, 69, 64
6, 47606, Note_on_c, 4, 81, 73
6, 47896, Note_on_c, 4, 77, 71
6, 47906, Note_off_c, 4, 81, 73
6, 47906, Note_on_c, 4, 65, 72
6, 47922, Note_off_c, 4, 69, 64
6, 47974, Note_off_c, 4, 65, 72
6, 47980, Note_off_c, 4, 77, 71
6, 48166, Note_on_c, 4, 72, 73
6, 48172, Note_on_c, 4, 60, 64
6, 49546, Note_off_c, 4, 72, 73
6, 49552, Note_off_c, 4, 60, 64
6, 49692, Note_on_c, 4, 74, 64
6, 49702, Note_on_c, 4, 62, 62
6, 49892, Note_on_c, 4, 77, 73
6, 49898, Note_on_c, 4, 65, 73
6, 49910, Note_off_c, 4, 74, 64
6, 49920, Note_off_c, 4, 62, 62
6, 49968, Note_off_c, 4, 65, 73
6, 49968, Note_off_c, 4, 77, 73
6, 50086, Note_on_c, 4, 77, 70
6, 50088, Note_on_c, 4, 65, 73
6, 50180, Note_on_c, 4, 79, 82
6, 50188, Note_on_c, 4, 67, 73
6, 50210, Note_off_c, 4, 77, 70
6, 50226, Note_off_c, 4, 65, 73
6, 50258, Note_off_c, 4, 79, 82
6, 50286, Note_off_c, 4, 67, 73
6, 50386, Note_on_c, 4, 77, 72
6, 50388, Note_on_c, 4, 65, 78
6, 50474, Note_on_c, 4, 62, 64
6, 50474, Note_on_c, 4, 74, 70
6, 50496, Note_off_c, 4, 77, 72
6, 50500, Note_off_c, 4, 65, 78
6, 50648, Note_on_c, 4, 69, 64
6, 50662, Note_on_c, 4, 81, 64
6, 50670, Note_off_c, 4, 74, 70
6, 50676, Note_off_c, 4, 62, 64
6, 52958, Note_off_c, 4, 69, 64
6, 52968, Note_on_c, 4, 69, 73
6, 52970, Note_on_c, 4, 77, 55
6, 52978, Note_on_c, 4, 65, 73
6, 52996, Note_off_c, 4, 81, 64
6, 53156, Note_on_c, 4, 67, 64
6, 53162, Note_on_c, 4, 62, 64
6, 53166, Note_on_c, 4, 74, 64
6, 53178, Note_off_c, 4, 69, 73
6, 53182, Note_off_c, 4, 65, 73
6, 53206, Note_off_c, 4, 77, 55
6, 53344, Note_off_c, 4, 62, 64
6, 53350, Note_on_c, 4, 69, 64
6, 53352, Note_on_c, 4, 81, 73
6, 53354, Note_off_c, 4, 67, 64
6, 53354, Note_on_c, 4, 72, 60
6, 53368, Note_off_c, 4, 74, 64
6, 53524, Note_on_c, 4, 74, 64
6, 53530, Note_off_c, 4, 72, 60
6, 53542, Note_on_c, 4, 82, 73
6, 53546, Note_on_c, 4, 70, 64
6, 53550, Note_off_c, 4, 69, 64
6, 53572, Note_off_c, 4, 81, 73
6, 53756, Note_off_c, 4, 82, 73
6, 53762, Note_off_c, 4, 74, 64
6, 53764, Note_off_c, 4, 70, 64
6, 54322, Note_on_c, 4, 72, 62
6, 54326, Note_on_c, 4, 60, 63
6, 55286, Note_off_c, 4, 60, 63
6, 55300, Note_off_c, 4, 72, 62
6, 56436, Note_on_c, 4, 60, 73
6, 56442, Note_on_c, 4, 72, 73
6, 56524, Note_on_c, 4, 62, 73
6, 56532, Note_off_c, 4, 72, 73
6, 56538, Note_on_c, 4, 74, 73
6, 56540, Note_off_c, 4, 60, 73
6, 56604, Note_on_c, 4, 65, 60
6, 56610, Note_off_c, 4, 74, 73
6, 56610, Note_on_c, 4, 77, 64
6, 56614, Note_off_c, 4, 62, 73
6, 56700, Note_on_c, 4, 62, 64
6, 56702, Note_off_c, 4, 77, 64
6, 56706, Note_on_c, 4, 74, 64
6, 56714, Note_off_c, 4, 65, 60
6, 56802, Note_on_c, 4, 69, 66
6, 56806, Note_on_c, 4, 81, 65
6, 56808, Note_off_c, 4, 62, 64
6, 56810, Note_off_c, 4, 74, 64
6, 58336, Note_off_c, 4, 69, 66
6, 58352, Note_off_c, 4, 81, 65
6, 59104, Note_on_c, 4, 74, 73
6, 59116, Note_on_c, 4, 62, 73
6, 59294, Note_on_c, 4, 76, 73
6, 59304, Note_off_c, 4, 74, 73
6, 59314, Note_on_c, 4, 64, 64
6, 59332, Note_off_c, 4, 62, 73
6, 59474, Note_on_c, 4, 77, 73
6, 59486, Note_on_c, 4, 65, 64
6, 59488, Note_on_c, 4, 62, 60
6, 59494, Note_off_c, 4, 76, 73
6, 59504, Note_off_c, 4, 64, 64
6, 59668, Note_on_c, 4, 67, 60
6, 59670, Note_on_c, 4, 79, 72
6, 59674, Note_off_c, 4, 77, 73
6, 59678, Note_on_c, 4, 60, 56
6, 59680, Note_off_c, 4, 65, 64
6, 59714, Note_off_c, 4, 62, 60
6, 59852, Note_on_c, 4, 81, 66
6, 59856, Note_off_c, 4, 67, 60
6, 59870, Note_off_c, 4, 79, 72
6, 59874, Note_on_c, 4, 69, 60
6, 59898, Note_off_c, 4, 60, 56
6, 60926, Note_on_c, 4, 66, 73
6, 60946, Note_off_c, 4, 69, 60
6, 60962, Note_on_c, 4, 67, 56
6, 60978, Note_off_c, 4, 66, 73
6, 60984, Note_on_c, 4, 68, 56
6, 61026, Note_on_c, 4, 69, 62
6, 61036, Note_off_c, 4, 67, 56
6, 61056, Note_off_c, 4, 68, 56
6, 62186, Note_on_c, 4, 62, 64
6, 62196, Note_on_c, 4, 74, 73
6, 62218, Note_off_c, 4, 81, 66
6, 62226, Note_off_c, 4, 69, 62
6, 62374, Note_on_c, 4, 76, 73
6, 62380, Note_on_c, 4, 64, 60
6, 62412, Note_off_c, 4, 74, 73
6, 62416, Note_off_c, 4, 62, 64
6, 62570, Note_on_c, 4, 77, 64
6, 62578, Note_on_c, 4, 65, 64
6, 62586, Note_off_c, 4, 76, 73
6, 62598, Note_off_c, 4, 64, 60
6, 62756, Note_on_c, 4, 79, 73
6, 62766, Note_on_c, 4, 67, 56
6, 62774, Note_off_c, 4, 65, 64
6, 62786, Note_off_c, 4, 77, 64
6, 62954, Note_on_c, 4, 72, 64
6, 62966, Note_on_c, 4, 60, 56
6, 62978, Note_off_c, 4, 79, 73
6, 62982, Note_off_c, 4, 67, 56
6, 63838, Note_on_c, 4, 67, 40
6, 63852, Note_on_c, 4, 81, 36
6, 63854, Note_on_c, 4, 69, 56
6, 63872, Note_on_c, 4, 70, 52
6, 63878, Note_on_c, 4, 82, 60
6, 63908, Note_off_c, 4, 67, 40
6, 63910, Note_on_c, 4, 83, 56
6, 63916, Note_off_c, 4, 72, 64
6, 63920, Note_off_c, 4, 81, 36
6, 63928, Note_on_c, 4, 72, 64
6, 63928, Note_on_c, 4, 84, 64
6, 63942, Note_off_c, 4, 60, 56
6, 63944, Note_off_c, 4, 69, 56
6, 63952, Note_off_c, 4, 82, 60
6, 63958, Note_off_c, 4, 83, 56
6, 63962, Note_off_c, 4, 70, 52
6, 64094, Note_on_c, 4, 74, 60
6, 64104, Note_off_c, 4, 84, 64
6, 64106, Note_on_c, 4, 62, 73
6, 64146, Note_off_c, 4, 72, 64
6, 64292, Note_on_c, 4, 64, 64
6, 64300, Note_off_c, 4, 62, 73
6, 64304, Note_on_c, 4, 76, 73
6, 64310, Note_off_c, 4, 74, 60
6, 64482, Note_on_c, 4, 65, 64
6, 64496, Note_off_c, 4, 64, 64
6, 64496, Note_on_c, 4, 77, 63
6, 64498, Note_off_c, 4, 76, 73
6, 65262, Note_off_c, 4, 65, 64
6, 65262, Note_on_c, 4, 62, 64
6, 65266, Note_on_c, 4, 74, 64
6, 65272, Note_off_c, 4, 77, 63
6, 65446, Note_on_c, 4, 64, 64
6, 65448, Note_off_c, 4, 62, 64
6, 65450, Note_on_c, 4, 76, 73
6, 65458, Note_off_c, 4, 74, 64
6, 65630, Note_on_c, 4, 65, 73
6, 65634, Note_on_c, 4, 77, 73
6, 65640, Note_off_c, 4, 64, 64
6, 65662, Note_off_c, 4, 76, 73
6, 65814, Note_on_c, 4, 67, 64
6, 65830, Note_off_c, 4, 65, 73
6, 65840, Note_on_c, 4, 79, 73
6, 65844, Note_off_c, 4, 77, 73
6, 66016, Note_on_c, 4, 69, 60
6, 66018, Note_off_c, 4, 67, 64
6, 66028, Note_on_c, 4, 81, 61
6, 66042, Note_off_c, 4, 79, 73
6, 67068, Note_on_c, 4, 66, 73
6, 67088, Note_off_c, 4, 69, 60
6, 67104, Note_on_c, 4, 67, 56
6, 67120, Note_off_c, 4, 66, 73
6, 67126, Note_on_c, 4, 68, 56
6, 67168, Note_on_c, 4, 69, 62
6, 67178, Note_off_c, 4, 67, 56
6, 67198, Note_off_c, 4, 68, 56
6, 67562, Note_off_c, 4, 81, 61
6, 68322, Note_on_c, 4, 74, 73
6, 68332, Note_on_c, 4, 58, 64
6, 68336, Note_on_c, 4, 62, 56
6, 68368, Note_off_c, 4, 69, 62
6, 68516, Note_on_c, 4, 76, 73
6, 68518, Note_on_c, 4, 60, 60
6, 68518, Note_on_c, 4, 64, 52
6, 68544, Note_off_c, 4, 62, 56
6, 68554, Note_off_c, 4, 74, 73
6, 68566, Note_off_c, 4, 58, 64
6, 68706, Note_on_c, 4, 77, 73
6, 68708, Note_on_c, 4, 62, 73
6, 68712, Note_on_c, 4, 65, 56
6, 68736, Note_off_c, 4, 60, 60
6, 68736, Note_off_c, 4, 76, 73
6, 68740, Note_off_c, 4, 64, 52
6, 68904, Note_on_c, 4, 64, 64
6, 68912, Note_on_c, 4, 67, 65
6, 68914, Note_on_c, 4, 79, 73
6, 68916, Note_off_c, 4, 77, 73
6, 68918, Note_off_c, 4, 65, 56
6, 68934, Note_off_c, 4, 62, 73
6, 69096, Note_on_c, 4, 55, 60
6, 69096, Note_on_c, 4, 72, 64
6, 69100, Note_off_c, 4, 64, 64
6, 69108, Note_on_c, 4, 64, 60
6, 69110, Note_on_c, 4, 60, 52
6, 69114, Note_off_c, 4, 79, 73
6, 69122, Note_off_c, 4, 67, 65
6, 70016, Note_on_c, 4, 81, 29
6, 70024, Note_on_c, 4, 82, 64
6, 70054, Note_on_c, 4, 83, 56
6, 70066, Note_off_c, 4, 72, 64
6, 70078, Note_off_c, 4, 81, 29
6, 70090, Note_on_c, 4, 84, 73
6, 70114, Note_off_c, 4, 82, 64
6, 70128, Note_off_c, 4, 83, 56
6, 70248, Note_on_c, 4, 74, 64
6, 70286, Note_off_c, 4, 84, 73
6, 70452, Note_on_c, 4, 81, 66
6, 70484, Note_off_c, 4, 74, 64
6, 70634, Note_off_c, 4, 60, 52
6, 70634, Note_off_c, 4, 64, 60
6, 70638, Note_on_c, 4, 65, 60
6, 70644, Note_off_c, 4, 55, 60
6, 70644, Note_on_c, 4, 57, 60
6, 70646, Note_on_c, 4, 62, 52
6, 71410, Note_off_c, 4, 81, 66
6, 71412, Note_on_c, 4, 74, 64
6, 71416, Note_on_c, 4, 62, 64
6, 71418, Note_off_c, 4, 62, 64
6, 71446, Note_off_c, 4, 57, 60
6, 71452, Note_off_c, 4, 65, 60
6, 71604, Note_on_c, 4, 64, 64
6, 71608, Note_on_c, 4, 76, 73
6, 71624, Note_off_c, 4, 74, 64
6, 71790, Note_on_c, 4, 65, 64
6, 71802, Note_on_c, 4, 77, 73
6, 71812, Note_off_c, 4, 76, 73
6, 71814, Note_off_c, 4, 64, 64
6, 71980, Note_on_c, 4, 67, 64
6, 71986, Note_off_c, 4, 65, 64
6, 71990, Note_on_c, 4, 79, 64
6, 71992, Note_off_c, 4, 77, 73
6, 72174, Note_on_c, 4, 69, 64
6, 72178, Note_on_c, 4, 81, 64
6, 72180, Note_off_c, 4, 79, 64
6, 72186, Note_off_c, 4, 62, 0
6, 72202, Note_off_c, 4, 67, 64
6, 73102, Note_on_c, 4, 55, 31
6, 73106, Note_on_c, 4, 56, 60
6, 73124, Note_on_c, 4, 57, 73
6, 73138, Note_off_c, 4, 55, 31
6, 73164, Note_off_c, 4, 56, 60
6, 73316, Note_off_c, 4, 57, 73
6, 73332, Note_on_c, 4, 62, 64
6, 73374, Note_off_c, 4, 69, 64
6, 73488, Note_on_c, 4, 67, 52
6, 73514, Note_on_c, 4, 68, 48
6, 73544, Note_off_c, 4, 62, 64
6, 73556, Note_on_c, 4, 69, 64
6, 73566, Note_off_c, 4, 67, 52
6, 73624, Note_off_c, 4, 68, 48
6, 74772, Note_off_c, 4, 69, 64
6, 74864, Note_on_c, 4, 72, 81
6, 74872, Note_on_c, 4, 84, 81
6, 74894, Note_off_c, 4, 81, 64
6, 74936, Note_on_c, 4, 70, 72
6, 74944, Note_on_c, 4, 82, 72
6, 74968, Note_off_c, 4, 72, 81
6, 74976, Note_off_c, 4, 84, 81
6, 74990, Note_on_c, 4, 69, 72
6, 74998, Note_on_c, 4, 81, 72
6, 75020, Note_off_c, 4, 70, 72
6, 75028, Note_off_c, 4, 82, 72
6, 75036, Note_on_c, 4, 67, 81
6, 75044, Note_on_c, 4, 79, 81
6, 75068, Note_off_c, 4, 69, 72
6, 75076, Note_off_c, 4, 81, 72
6, 75090, Note_on_c, 4, 65, 54
6, 75096, Note_off_c, 4, 67, 81
6, 75098, Note_on_c, 4, 77, 54
6, 75104, Note_off_c, 4, 79, 81
6, 75134, Note_on_c, 4, 64, 72
6, 75142, Note_on_c, 4, 76, 72
6, 75154, Note_off_c, 4, 65, 54
6, 75154, Note_on_c, 4, 62, 69
6, 75162, Note_off_c, 4, 77, 54
6, 75162, Note_on_c, 4, 74, 69
6, 75190, Note_on_c, 4, 60, 73
6, 75198, Note_on_c, 4, 72, 73
6, 75206, Note_off_c, 4, 64, 72
6, 75214, Note_off_c, 4, 76, 72
6, 75246, Note_off_c, 4, 62, 69
6, 75254, Note_off_c, 4, 74, 69
6, 78196, Note_on_c, 4, 82, 56
6, 78234, Note_on_c, 4, 83, 56
6, 78302, Note_on_c, 4, 84, 55
6, 78306, Note_off_c, 4, 82, 56
6, 78354, Note_off_c, 4, 83, 56
6, 80250, Note_on_c, 4, 83, 60
6, 80284, Note_on_c, 4, 82, 49
6, 80304, Note_off_c, 4, 84, 55
6, 80322, Note_off_c, 4, 83, 60
6, 80336, Note_on_c, 4, 81, 49
6, 80368, Note_off_c, 4, 82, 49
6, 80372, Note_on_c, 4, 80, 37
6, 80394, Note_off_c, 4, 81, 49
6, 80408, Note_on_c, 4, 79, 34
6, 80422, Note_off_c, 4, 80, 37
6, 80444, Note_off_c, 4, 79, 34
6, 80598, Note_on_c, 4, 74, 71
6, 80610, Note_off_c, 4, 72, 73
6, 80630, Note_on_c, 4, 62, 75
6, 80634, Note_off_c, 4, 60, 73
6, 80812, Note_off_c, 4, 74, 71
6, 80818, Note_on_c, 4, 64, 72
6, 80828, Note_on_c, 4, 76, 64
6, 80834, Note_off_c, 4, 62, 75
6, 81002, Note_on_c, 4, 77, 82
6, 81002, Note_on_c, 4, 65, 81
6, 81006, Note_off_c, 4, 76, 64
6, 81008, Note_off_c, 4, 64, 72
6, 81186, Note_on_c, 4, 79, 82
6, 81194, Note_off_c, 4, 77, 82
6, 81194, Note_on_c, 4, 67, 91
6, 81220, Note_off_c, 4, 65, 81
6, 81392, Note_off_c, 4, 67, 91
6, 81392, Note_off_c, 4, 79, 82
6, 81956, Note_on_c, 4, 72, 60
6, 81962, Note_on_c, 4, 60, 64
6, 83676, Note_on_c, 4, 65, 64
6, 83690, Note_on_c, 4, 77, 67
6, 83740, Note_off_c, 4, 72, 60
6, 83750, Note_off_c, 4, 60, 64
6, 83818, Note_off_c, 4, 77, 67
6, 83852, Note_off_c, 4, 65, 64
6, 83880, Note_on_c, 4, 77, 56
6, 83884, Note_on_c, 4, 65, 54
6, 83972, Note_on_c, 4, 67, 64
6, 83976, Note_on_c, 4, 79, 71
6, 83980, Note_off_c, 4, 77, 56
6, 83984, Note_off_c, 4, 65, 54
6, 84042, Note_off_c, 4, 67, 64
6, 84052, Note_off_c, 4, 79, 71
6, 84054, Note_on_c, 4, 69, 73
6, 84064, Note_on_c, 4, 81, 78
6, 84152, Note_off_c, 4, 81, 78
6, 84152, Note_on_c, 4, 65, 73
6, 84154, Note_off_c, 4, 69, 73
6, 84162, Note_on_c, 4, 77, 61
6, 84248, Note_off_c, 4, 65, 73
6, 84252, Note_on_c, 4, 62, 73
6, 84252, Note_on_c, 4, 74, 68
6, 84260, Note_off_c, 4, 77, 61
6, 84440, Note_on_c, 4, 77, 64
6, 84450, Note_on_c, 4, 65, 64
6, 84456, Note_off_c, 4, 74, 68
6, 84470, Note_off_c, 4, 62, 73
6, 85022, Note_on_c, 4, 81, 58
6, 85046, Note_off_c, 4, 77, 64
6, 85050, Note_on_c, 4, 69, 64
6, 85074, Note_off_c, 4, 65, 64
6, 86796, Note_off_c, 4, 69, 64
6, 86808, Note_off_c, 4, 81, 58
6, 86952, Note_on_c, 4, 62, 75
6, 86960, Note_on_c, 4, 74, 75
6, 87048, Note_on_c, 4, 64, 66
6, 87056, Note_on_c, 4, 76, 66
6, 87116, Note_off_c, 4, 62, 75
6, 87124, Note_off_c, 4, 74, 75
6, 87144, Note_on_c, 4, 65, 60
6, 87150, Note_off_c, 4, 64, 66
6, 87152, Note_on_c, 4, 77, 60
6, 87158, Note_off_c, 4, 76, 66
6, 87238, Note_on_c, 4, 67, 60
6, 87242, Note_off_c, 4, 65, 60
6, 87246, Note_on_c, 4, 79, 60
6, 87250, Note_off_c, 4, 77, 60
6, 87328, Note_on_c, 4, 69, 60
6, 87336, Note_on_c, 4, 81, 60
6, 87360, Note_off_c, 4, 67, 60
6, 87368, Note_off_c, 4, 79, 60
6, 87438, Note_off_c, 4, 69, 60
6, 87438, Note_on_c, 4, 70, 64
6, 87446, Note_off_c, 4, 81, 60
6, 87446, Note_on_c, 4, 82, 64
6, 87520, Note_on_c, 4, 69, 67
6, 87528, Note_on_c, 4, 81, 62
6, 87532, Note_off_c, 4, 70, 64
6, 87540, Note_off_c, 4, 82, 64
6, 87834, Note_on_c, 4, 77, 60
6, 87842, Note_on_c, 4, 65, 52
6, 87860, Note_off_c, 4, 69, 67
6, 87908, Note_off_c, 4, 81, 62
6, 88110, Note_on_c, 4, 72, 60
6, 88112, Note_on_c, 4, 60, 56
6, 88122, Note_off_c, 4, 77, 60
6, 88128, Note_off_c, 4, 65, 52
6, 89070, Note_off_c, 4, 72, 60
6, 89096, Note_off_c, 4, 60, 56
6, 89836, Note_on_c, 4, 65, 64
6, 89836, Note_on_c, 4, 77, 73
6, 89962, Note_off_c, 4, 77, 73
6, 89980, Note_off_c, 4, 65, 64
6, 90028, Note_on_c, 4, 77, 64
6, 90030, Note_on_c, 4, 65, 69
6, 90076, Note_off_c, 4, 77, 64
6, 90078, Note_off_c, 4, 65, 69
6, 90110, Note_on_c, 4, 77, 73
6, 90134, Note_on_c, 4, 65, 60
6, 90164, Note_off_c, 4, 77, 73
6, 90196, Note_off_c, 4, 65, 60
6, 90206, Note_on_c, 4, 77, 73
6, 90236, Note_on_c, 4, 65, 73
6, 90360, Note_off_c, 4, 77, 73
6, 90396, Note_off_c, 4, 65, 73
6, 90410, Note_on_c, 4, 74, 64
6, 90422, Note_on_c, 4, 62, 64
6, 90592, Note_off_c, 4, 62, 64
6, 90606, Note_off_c, 4, 74, 64
6, 90606, Note_on_c, 4, 65, 64
6, 90610, Note_on_c, 4, 77, 64
6, 91184, Note_on_c, 4, 69, 52
6, 91194, Note_off_c, 4, 65, 64
6, 91194, Note_on_c, 4, 81, 64
6, 91212, Note_off_c, 4, 77, 64
6, 93294, Note_off_c, 4, 81, 64
6, 93298, Note_off_c, 4, 69, 52
6, 93302, Note_on_c, 4, 77, 60
6, 93306, Note_on_c, 4, 65, 73
6, 93384, Note_off_c, 4, 77, 60
6, 93392, Note_on_c, 4, 79, 60
6, 93394, Note_off_c, 4, 65, 73
6, 93394, Note_on_c, 4, 67, 73
6, 93480, Note_off_c, 4, 67, 73
6, 93480, Note_off_c, 4, 79, 60
6, 93480, Note_on_c, 4, 69, 56
6, 93486, Note_on_c, 4, 81, 64
6, 93556, Note_off_c, 4, 69, 56
6, 93560, Note_on_c, 4, 70, 66
6, 93584, Note_off_c, 4, 81, 64
6, 93588, Note_on_c, 4, 82, 71
6, 93666, Note_off_c, 4, 70, 66
6, 93668, Note_off_c, 4, 82, 71
6, 93672, Note_on_c, 4, 69, 64
6, 93686, Note_on_c, 4, 81, 73
6, 93976, Note_on_c, 4, 77, 71
6, 93986, Note_off_c, 4, 81, 73
6, 93986, Note_on_c, 4, 65, 72
6, 94002, Note_off_c, 4, 69, 64
6, 94054, Note_off_c, 4, 65, 72
6, 94060, Note_off_c, 4, 77, 71
6, 94246, Note_on_c, 4, 72, 73
6, 94252, Note_on_c, 4, 60, 64
6, 95626, Note_off_c, 4, 72, 73
6, 95632, Note_off_c, 4, 60, 64
6, 95772, Note_on_c, 4, 74, 64
6, 95782, Note_on_c, 4, 62, 62
6, 95972, Note_on_c, 4, 77, 73
6, 95978, Note_on_c, 4, 65, 73
6, 95990, Note_off_c, 4, 74, 64
6, 96000, Note_off_c, 4, 62, 62
6, 96048, Note_off_c, 4, 65, 73
6, 96048, Note_off_c, 4, 77, 73
6, 96166, Note_on_c, 4, 77, 70
6, 96168, Note_on_c, 4, 65, 73
6, 96260, Note_on_c, 4, 79, 82
6, 96268, Note_on_c, 4, 67, 73
6, 96290, Note_off_c, 4, 77, 70
6, 96306, Note_off_c, 4, 65, 73
6, 96338, Note_off_c, 4, 79, 82
6, 96366, Note_off_c, 4, 67, 73
6, 96466, Note_on_c, 4, 77, 72
6, 96468, Note_on_c, 4, 65, 78
6, 96554, Note_on_c, 4, 62, 64
6, 96554, Note_on_c, 4, 74, 70
6, 96576, Note_off_c, 4, 77, 72
6, 96580, Note_off_c, 4, 65, 78
6, 96728, Note_on_c, 4, 69, 64
6, 96742, Note_on_c, 4, 81, 64
6, 96750, Note_off_c, 4, 74, 70
6, 96756, Note_off_c, 4, 62, 64
6, 99038, Note_off_c, 4, 69, 64
6, 99048, Note_on_c, 4, 69, 73
6, 99050, Note_on_c, 4, 77, 55
6, 99058, Note_on_c, 4, 65, 73
6, 99076, Note_off_c, 4, 81, 64
6, 99236, Note_on_c, 4, 67, 64
6, 99242, Note_on_c, 4, 62, 64
6, 99246, Note_on_c, 4, 74, 64
6, 99258, Note_off_c, 4, 69, 73
6, 99262, Note_off_c, 4, 65, 73
6, 99286, Note_off_c, 4, 77, 55
6, 99424, Note_off_c, 4, 62, 64
6, 99430, Note_on_c, 4, 69, 64
6, 99432, Note_on_c, 4, 81, 73
6, 99434, Note_off_c, 4, 67, 64
6, 99434, Note_on_c, 4, 72, 60
6, 99448, Note_off_c, 4, 74, 64
6, 99604, Note_on_c, 4, 74, 64
6, 99610, Note_off_c, 4, 72, 60
6, 99622, Note_on_c, 4, 82, 73
6, 99626, Note_on_c, 4, 70, 64
6, 99630, Note_off_c, 4, 69, 64
6, 99652, Note_off_c, 4, 81, 73
6, 99836, Note_off_c, 4, 82, 73
6, 99842, Note_off_c, 4, 74, 64
6, 99844, Note_off_c, 4, 70, 64
6, 100402, Note_on_c, 4, 72, 62
6, 100406, Note_on_c, 4, 60, 63
6, 101366, Note_off_c, 4, 60, 63
6, 101380, Note_off_c, 4, 72, 62
6, 102516, Note_on_c, 4, 60, 73
6, 102522, Note_on_c, 4, 72, 73
6, 102604, Note_on_c, 4, 62, 73
6, 102612, Note_off_c, 4, 72, 73
6, 102618, Note_on_c, 4, 74, 73
6, 102620, Note_off_c, 4, 60, 73
6, 102684, Note_on_c, 4, 65, 60
6, 102690, Note_off_c, 4, 74, 73
6, 102690, Note_on_c, 4, 77, 64
6, 102694, Note_off_c, 4, 62, 73
6, 102780, Note_on_c, 4, 62, 64
6, 102782, Note_off_c, 4, 77, 64
6, 102786, Note_on_c, 4, 74, 64
6, 102794, Note_off_c, 4, 65, 60
6, 102882, Note_on_c, 4, 69, 66
6, 102886, Note_on_c, 4, 81, 65
6, 102888, Note_off_c, 4, 62, 64
6, 102890, Note_off_c, 4, 74, 64
6, 104416, Note_off_c, 4, 69, 66
6, 104432, Note_off_c, 4, 81, 65
6, 105184, Note_on_c, 4, 74, 73
6, 105196, Note_on_c, 4, 62, 73
6, 105374, Note_on_c, 4, 76, 73
6, 105384, Note_off_c, 4, 74, 73
6, 105394, Note_on_c, 4, 64, 64
6, 105412, Note_off_c, 4, 62, 73
6, 105554, Note_on_c, 4, 77, 73
6, 105566, Note_on_c, 4, 65, 64
6, 105568, Note_on_c, 4, 62, 60
6, 105574, Note_off_c, 4, 76, 73
6, 105584, Note_off_c, 4, 64, 64
6, 105748, Note_on_c, 4, 67, 60
6, 105750, Note_on_c, 4, 79, 72
6, 105754, Note_off_c, 4, 77, 73
6, 105758, Note_on_c, 4, 60, 56
6, 105760, Note_off_c, 4, 65, 64
6, 105794, Note_off_c, 4, 62, 60
6, 105932, Note_on_c, 4, 81, 66
6, 105936, Note_off_c, 4, 67, 60
6, 105950, Note_off_c, 4, 79, 72
6, 105954, Note_on_c, 4, 69, 60
6, 105978, Note_off_c, 4, 60, 56
6, 107006, Note_on_c, 4, 66, 73
6, 107026, Note_off_c, 4, 69, 60
6, 107042, Note_on_c, 4, 67, 56
6, 107058, Note_off_c, 4, 66, 73
6, 107064, Note_on_c, 4, 68, 56
6, 107106, Note_on_c, 4, 69, 62
6, 107116, Note_off_c, 4, 67, 56
6, 107136, Note_off_c, 4, 68, 56
6, 108266, Note_on_c, 4, 62, 64
6, 108276, Note_on_c, 4, 74, 73
6, 108298, Note_off_c, 4, 81, 66
6, 108306, Note_off_c, 4, 69, 62
6, 108454, Note_on_c, 4, 76, 73
6, 108460, Note_on_c, 4, 64, 60
6, 108492, Note_off_c, 4, 74, 73
6, 108496, Note_off_c, 4, 62, 64
6, 108650, Note_on_c, 4, 77, 64
6, 108658, Note_on_c, 4, 65, 64
6, 108666, Note_off_c, 4, 76, 73
6, 108678, Note_off_c, 4, 64, 60
6, 108836, Note_on_c, 4, 79, 73
6, 108846, Note_on_c, 4, 67, 56
6, 108854, Note_off_c, 4, 65, 64
6, 108866, Note_off_c, 4, 77, 64
6, 109034, Note_on_c, 4, 72, 64
6, 109046, Note_on_c, 4, 60, 56
6, 109058, Note_off_c, 4, 79, 73
6, 109062, Note_off_c, 4, 67, 56
6, 109918, Note_on_c, 4, 67, 40
6, 109932, Note_on_c, 4, 81, 36
6, 109934, Note_on_c, 4, 69, 56
6, 109952, Note_on_c, 4, 70, 52
6, 109958, Note_on_c, 4, 82, 60
6, 109988, Note_off_c, 4, 67, 40
6, 109990, Note_on_c, 4, 83, 56
6, 109996, Note_off_c, 4, 72, 64
6, 110000, Note_off_c, 4, 81, 36
6, 110008, Note_on_c, 4, 72, 64
6, 110008, Note_on_c, 4, 84, 64
6, 110022, Note_off_c, 4, 60, 56
6, 110024, Note_off_c, 4, 69, 56
6, 110032, Note_off_c, 4, 82, 60
6, 110038, Note_off_c, 4, 83, 56
6, 110042, Note_off_c, 4, 70, 52
6, 110174, Note_on_c, 4, 74, 60
6, 110184, Note_off_c, 4, 84, 64
6, 110186, Note_on_c, 4, 62, 73
6, 110226, Note_off_c, 4, 72, 64
6, 110372, Note_on_c, 4, 64, 64
6, 110380, Note_off_c, 4, 62, 73
6, 110384, Note_on_c, 4, 76, 73
6, 110390, Note_off_c, 4, 74, 60
6, 110562, Note_on_c, 4, 65, 64
6, 110576, Note_off_c, 4, 64, 64
6, 110576, Note_on_c, 4, 77, 63
6, 110578, Note_off_c, 4, 76, 73
6, 111342, Note_off_c, 4, 65, 64
6, 111342, Note_on_c, 4, 62, 64
6, 111346, Note_on_c, 4, 74, 64
6, 111352, Note_off_c, 4, 77, 63
6, 111526, Note_on_c, 4, 64, 64
6, 111528, Note_off_c, 4, 62, 64
6, 111530, Note_on_c, 4, 76, 73
6, 111538, Note_off_c, 4, 74, 64
6, 111710, Note_on_c, 4, 65, 73
6, 111714, Note_on_c, 4, 77, 73
6, 111720, Note_off_c, 4, 64, 64
6, 111742, Note_off_c, 4, 76, 73
6, 111894, Note_on_c, 4, 67, 64
6, 111910, Note_off_c, 4, 65, 73
6, 111920, Note_on_c, 4, 79, 73
6, 111924, Note_off_c, 4, 77, 73
6, 112096, Note_on_c, 4, 69, 60
6, 112098, Note_off_c, 4, 67, 64
6, 112108, Note_on_c, 4, 81, 61
6, 112122, Note_off_c, 4, 79, 73
6, 113148, Note_on_c, 4, 66, 73
6, 113168, Note_off_c, 4, 69, 60
6, 113184, Note_on_c, 4, 67, 56
6, 113200, Note_off_c, 4, 66, 73
6, 113206, Note_on_c, 4, 68, 56
6, 113248, Note_on_c, 4, 69, 62
6, 113258, Note_off_c, 4, 67, 56
6, 113278, Note_off_c, 4, 68, 56
6, 113642, Note_off_c, 4, 81, 61
6, 114402, Note_on_c, 4, 74, 73
6, 114412, Note_on_c, 4, 58, 64
6, 114416, Note_on_c, 4, 62, 56
6, 114448, Note_off_c, 4, 69, 62
6, 114596, Note_on_c, 4, 76, 73
6, 114598, Note_on_c, 4, 60, 60
6, 114598, Note_on_c, 4, 64, 52
6, 114624, Note_off_c, 4, 62, 56
6, 114634, Note_off_c, 4, 74, 73
6, 114646, Note_off_c, 4, 58, 64
6, 114786, Note_on_c, 4, 77, 73
6, 114788, Note_on_c, 4, 62, 73
6, 114792, Note_on_c, 4, 65, 56
6, 114816, Note_off_c, 4, 60, 60
6, 114816, Note_off_c, 4, 76, 73
6, 114820, Note_off_c, 4, 64, 52
6, 114984, Note_on_c, 4, 64, 64
6, 114992, Note_on_c, 4, 67, 65
6, 114994, Note_on_c, 4, 79, 73
6, 114996, Note_off_c, 4, 77, 73
6, 114998, Note_off_c, 4, 65, 56
6, 115014, Note_off_c, 4, 62, 73
6, 115176, Note_on_c, 4, 55, 60
6, 115176, Note_on_c, 4, 72, 64
6, 115180, Note_off_c, 4, 64, 64
6, 115188, Note_on_c, 4, 64, 60
6, 115190, Note_on_c, 4, 60, 52
6, 115194, Note_off_c, 4, 79, 73
6, 115202, Note_off_c, 4, 67, 65
6, 116096, Note_on_c, 4, 81, 29
6, 116104, Note_on_c, 4, 82, 64
6, 116134, Note_on_c, 4, 83, 56
6, 116146, Note_off_c, 4, 72, 64
6, 116158, Note_off_c, 4, 81, 29
6, 116170, Note_on_c, 4, 84, 73
6, 116194, Note_off_c, 4, 82, 64
6, 116208, Note_off_c, 4, 83, 56
6, 116328, Note_on_c, 4, 74, 64
6, 116366, Note_off_c, 4, 84, 73
6, 116532, Note_on_c, 4, 81, 66
6, 116564, Note_off_c, 4, 74, 64
6, 116714, Note_off_c, 4, 60, 52
6, 116714, Note_off_c, 4, 64, 60
6, 116718, Note_on_c, 4, 65, 60
6, 116724, Note_off_c, 4, 55, 60
6, 116724, Note_on_c, 4, 57, 60
6, 116726, Note_on_c, 4, 62, 52
6, 117490, Note_off_c, 4, 81, 66
6, 117492, Note_on_c, 4, 74, 64
6, 117496, Note_on_c, 4, 62, 64
6, 117498, Note_off_c, 4, 62, 64
6, 117526, Note_off_c, 4, 57, 60
6, 117532, Note_off_c, 4, 65, 60
6, 117684, Note_on_c, 4, 64, 64
6, 117688, Note_on_c, 4, 76, 73
6, 117704, Note_off_c, 4, 74, 64
6, 117870, Note_on_c, 4, 65, 64
6, 117882, Note_on_c, 4, 77, 73
6, 117892, Note_off_c, 4, 76, 73
6, 117894, Note_off_c, 4, 64, 64
6, 118060, Note_on_c, 4, 67, 64
6, 118066, Note_off_c, 4, 65, 64
6, 118070, Note_on_c, 4, 79, 64
6, 118072, Note_off_c, 4, 77, 73
6, 118254, Note_on_c, 4, 69, 64
6, 118258, Note_on_c, 4, 81, 64
6, 118260, Note_off_c, 4, 79, 64
6, 118266, Note_off_c, 4, 62, 0
6, 118282, Note_off_c, 4, 67, 64
6, 119182, Note_on_c, 4, 55, 31
6, 119186, Note_on_c, 4, 56, 60
6, 119204, Note_on_c, 4, 57, 73
6, 119218, Note_off_c, 4, 55, 31
6, 119244, Note_off_c, 4, 56, 60
6, 119396, Note_off_c, 4, 57, 73
6, 119412, Note_on_c, 4, 62, 64
6, 119454, Note_off_c, 4, 69, 64
6, 119568, Note_on_c, 4, 67, 52
6, 119594, Note_on_c, 4, 68, 48
6, 119624, Note_off_c, 4, 62, 64
6, 119636, Note_on_c, 4, 69, 64
6, 119646, Note_off_c, 4, 67, 52
6, 119704, Note_off_c, 4, 68, 48
6, 120852, Note_off_c, 4, 69, 64
6, 120944, Note_on_c, 4, 72, 81
6, 120952, Note_on_c, 4, 84, 81
6, 120974, Note_off_c, 4, 81, 64
6, 121016, Note_on_c, 4, 70, 72
6, 121024, Note_on_c, 4, 82, 72
6, 121048, Note_off_c, 4, 72, 81
6, 121056, Note_off_c, 4, 84, 81
6, 121070, Note_on_c, 4, 69, 72
6, 121078, Note_on_c, 4, 81, 72
6, 121100, Note_off_c, 4, 70, 72
6, 121108, Note_off_c, 4, 82, 72
6, 121116, Note_on_c, 4, 67, 81
6, 121124, Note_on_c, 4, 79, 81
6, 121148, Note_off_c, 4, 69, 72
6, 121156, Note_off_c, 4, 81, 72
6, 121170, Note_on_c, 4, 65, 54
6, 121176, Note_off_c, 4, 67, 81
6, 121178, Note_on_c, 4, 77, 54
6, 121184, Note_off_c, 4, 79, 81
6, 121214, Note_on_c, 4, 64, 72
6, 121222, Note_on_c, 4, 76, 72
6, 121234, Note_off_c, 4, 65, 54
6, 121234, Note_on_c, 4, 62, 69
6, 121242, Note_off_c, 4, 77, 54
6, 121242, Note_on_c, 4, 74, 69
6, 121270, Note_on_c, 4, 60, 73
6, 121278, Note_on_c, 4, 72, 73
6, 121286, Note_off_c, 4, 64, 72
6, 121294, Note_off_c, 4, 76, 72
6, 121326, Note_off_c, 4, 62, 69
6, 121334, Note_off_c, 4, 74, 69
6, 124276, Note_on_c, 4, 82, 56
6, 124314, Note_on_c, 4, 83, 56
6, 124382, Note_on_c, 4, 84, 55
6, 124386, Note_off_c, 4, 82, 56
6, 124434, Note_off_c, 4, 83, 56
6, 126330, Note_on_c, 4, 83, 60
6, 126364, Note_on_c, 4, 82, 49
6, 126384, Note_off_c, 4, 84, 55
6, 126402, Note_off_c, 4, 83, 60
6, 126416, Note_on_c, 4, 81, 49
6, 126448, Note_off_c, 4, 82, 49
6, 126452, Note_on_c, 4, 80, 37
6, 126474, Note_off_c, 4, 81, 49
6, 126488, Note_on_c, 4, 79, 34
6, 126502, Note_off_c, 4, 80, 37
6, 126524, Note_off_c, 4, 79, 34
6, 126678, Note_on_c, 4, 74, 71
6, 126690, Note_off_c, 4, 72, 73
6, 126710, Note_on_c, 4, 62, 75
6, 126714, Note_off_c, 4, 60, 73
6, 126892, Note_off_c, 4, 74, 71
6, 126898, Note_on_c, 4, 64, 72
6, 126908, Note_on_c, 4, 76, 64
6, 126914, Note_off_c, 4, 62, 75
6, 127082, Note_on_c, 4, 77, 82
6, 127082, Note_on_c, 4, 65, 81
6, 127086, Note_off_c, 4, 76, 64
6, 127088, Note_off_c, 4, 64, 72
6, 127266, Note_on_c, 4, 79, 82
6, 127274, Note_off_c, 4, 77, 82
6, 127274, Note_on_c, 4, 67, 91
6, 127300, Note_off_c, 4, 65, 81
6, 127472, Note_off_c, 4, 67, 91
6, 127472, Note_off_c, 4, 79, 82
6, 128036, Note_on_c, 4, 72, 60
6, 128042, Note_on_c, 4, 60, 64
6, 129756, Note_on_c, 4, 65, 64
6, 129770, Note_on_c, 4, 77, 67
6, 129820, Note_off_c, 4, 72, 60
6, 129830, Note_off_c, 4, 60, 64
6, 129898, Note_off_c, 4, 77, 67
6, 129932, Note_off_c, 4, 65, 64
6, 129960, Note_on_c, 4, 77, 56
6, 129964, Note_on_c, 4, 65, 54
6, 130052, Note_on_c, 4, 67, 64
6, 130056, Note_on_c, 4, 79, 71
6, 130060, Note_off_c, 4, 77, 56
6, 130064, Note_off_c, 4, 65, 54
6, 130122, Note_off_c, 4, 67, 64
6, 130132, Note_off_c, 4, 79, 71
6, 130134, Note_on_c, 4, 69, 73
6, 130144, Note_on_c, 4, 81, 78
6, 130232, Note_off_c, 4, 81, 78
6, 130232, Note_on_c, 4, 65, 73
6, 130234, Note_off_c, 4, 69, 73
6, 130242, Note_on_c, 4, 77, 61
6, 130328, Note_off_c, 4, 65, 73
6, 130332, Note_on_c, 4, 62, 73
6, 130332, Note_on_c, 4, 74, 68
6, 130340, Note_off_c, 4, 77, 61
6, 130520, Note_on_c, 4, 77, 64
6, 130530, Note_on_c, 4, 65, 64
6, 130536, Note_off_c, 4, 74, 68
6, 130550, Note_off_c, 4, 62, 73
6, 131102, Note_on_c, 4, 81, 58
6, 131126, Note_off_c, 4, 77, 64
6, 131130, Note_on_c, 4, 69, 64
6, 131154, Note_off_c, 4, 65, 64
6, 133230, Note_off_c, 4, 81, 58
6, 133232, Note_on_c, 4, 65, 56
6, 133244, Note_on_c, 4, 77, 64
6, 133250, Note_off_c, 4, 69, 64
6, 133336, Note_on_c, 4, 67, 64
6, 133338, Note_on_c, 4, 79, 64
6, 133354, Note_off_c, 4, 65, 56
6, 133362, Note_off_c, 4, 77, 64
6, 133414, Note_on_c, 4, 81, 64
6, 133420, Note_on_c, 4, 69, 56
6, 133454, Note_off_c, 4, 79, 64
6, 133456, Note_off_c, 4, 67, 64
6, 133508, Note_off_c, 4, 81, 64
6, 133514, Note_on_c, 4, 82, 56
6, 133516, Note_on_c, 4, 70, 56
6, 133518, Note_off_c, 4, 69, 56
6, 133600, Note_on_c, 4, 69, 64
6, 133600, Note_on_c, 4, 81, 52
6, 133616, Note_off_c, 4, 82, 56
6, 133626, Note_off_c, 4, 70, 56
6, 134202, Note_on_c, 4, 77, 43
6, 134590, Note_on_c, 4, 60, 73
6, 134600, Note_off_c, 4, 69, 64
6, 134792, Note_on_c, 4, 62, 81
6, 134808, Note_off_c, 4, 60, 73
6, 134958, Note_on_c, 4, 67, 64
6, 134984, Note_off_c, 4, 62, 81
6, 134994, Note_on_c, 4, 68, 55
6, 135026, Note_on_c, 4, 69, 64
6, 135044, Note_off_c, 4, 67, 64
6, 135078, Note_off_c, 4, 68, 55
6, 135900, Note_off_c, 4, 69, 64
6, 135910, Note_on_c, 4, 69, 48
6, 135916, Note_on_c, 4, 74, 56
6, 135922, Note_off_c, 4, 77, 43
6, 135946, Note_off_c, 4, 81, 52
6, 136674, Note_on_c, 4, 76, 47
6, 136708, Note_off_c, 4, 74, 56
6, 136712, Note_off_c, 4, 69, 48
6, 137628, Note_on_c, 4, 57, 61
6, 137648, Note_on_c, 4, 72, 43
6, 137722, Note_on_c, 4, 58, 66
6, 137760, Note_off_c, 4, 57, 61
6, 137812, Note_on_c, 4, 60, 69
6, 137864, Note_off_c, 4, 58, 66
6, 137890, Note_on_c, 4, 62, 81
6, 137896, Note_off_c, 4, 60, 69
6, 138000, Note_on_c, 4, 60, 64
6, 138024, Note_off_c, 4, 62, 81
6, 139422, Note_off_c, 4, 60, 64
6, 139560, Note_off_c, 4, 72, 43
6, 139570, Note_on_c, 4, 74, 61
6, 139572, Note_off_c, 4, 76, 47
6, 139666, Note_on_c, 4, 76, 52
6, 139684, Note_off_c, 4, 74, 61
6, 139742, Note_on_c, 4, 77, 61
6, 139752, Note_off_c, 4, 76, 52
6, 139774, Note_on_c, 4, 62, 60
6, 139776, Note_on_c, 4, 69, 60
6, 142044, Note_on_c, 4, 67, 62
6, 142054, Note_off_c, 4, 69, 60
6, 142064, Note_on_c, 4, 72, 55
6, 142068, Note_off_c, 4, 77, 61
6, 142370, Note_on_c, 4, 68, 48
6, 142432, Note_on_c, 4, 69, 64
6, 142438, Note_off_c, 4, 67, 62
6, 142484, Note_off_c, 4, 68, 48
6, 142818, Note_on_c, 4, 67, 48
6, 142838, Note_off_c, 4, 69, 64
6, 142842, Note_off_c, 4, 72, 55
6, 142844, Note_on_c, 4, 60, 69
6, 142876, Note_off_c, 4, 62, 60
6, 143218, Note_on_c, 4, 62, 72
6, 143238, Note_off_c, 4, 60, 69
6, 143410, Note_on_c, 4, 60, 64
6, 143422, Note_off_c, 4, 62, 72
6, 145836, Note_off_c, 4, 60, 64
6, 145898, Note_off_c, 4, 67, 48
6, 145916, Note_on_c, 4, 65, 100
6, 145990, Note_on_c, 4, 67, 100
6, 146014, Note_off_c, 4, 65, 100
6, 146048, Note_on_c, 4, 69, 91
6, 146074, Note_off_c, 4, 67, 100
6, 146154, Note_off_c, 4, 69, 91
6, 146488, Note_on_c, 4, 72, 66
6, 146496, Note_on_c, 4, 60, 62
6, 147222, Note_on_c, 4, 77, 64
6, 147284, Note_off_c, 4, 77, 64
6, 147444, Note_off_c, 4, 60, 62
6, 147446, Note_off_c, 4, 72, 66
6, 147446, Note_on_c, 4, 77, 82
6, 147458, Note_on_c, 4, 65, 91
6, 147500, Note_on_c, 4, 67, 91
6, 147526, Note_on_c, 4, 79, 100
6, 147528, Note_off_c, 4, 65, 91
6, 147530, Note_off_c, 4, 77, 82
6, 147560, Note_on_c, 4, 69, 91
6, 147586, Note_off_c, 4, 67, 91
6, 147600, Note_on_c, 4, 81, 91
6, 147606, Note_off_c, 4, 79, 100
6, 147688, Note_off_c, 4, 81, 91
6, 147696, Note_off_c, 4, 69, 91
6, 148016, Note_on_c, 4, 72, 63
6, 148024, Note_on_c, 4, 60, 62
6, 148794, Note_on_c, 4, 65, 100
6, 148878, Note_off_c, 4, 65, 100
6, 148882, Note_on_c, 4, 62, 75
6, 148962, Note_off_c, 4, 62, 75
6, 148984, Note_on_c, 4, 77, 100
6, 148984, Note_on_c, 4, 65, 100
6, 148988, Note_off_c, 4, 60, 62
6, 148996, Note_off_c, 4, 72, 63
6, 149054, Note_off_c, 4, 65, 100
6, 149064, Note_on_c, 4, 79, 91
6, 149068, Note_on_c, 4, 67, 100
6, 149082, Note_off_c, 4, 77, 100
6, 149144, Note_off_c, 4, 67, 100
6, 149154, Note_on_c, 4, 81, 91
6, 149154, Note_on_c, 4, 69, 107
6, 149168, Note_off_c, 4, 79, 91
6, 149220, Note_off_c, 4, 81, 91
6, 149242, Note_off_c, 4, 69, 107
6, 149552, Note_on_c, 4, 72, 73
6, 149556, Note_on_c, 4, 60, 64
6, 150518, Note_on_c, 4, 65, 91
6, 150524, Note_on_c, 4, 77, 100
6, 150542, Note_off_c, 4, 60, 64
6, 150548, Note_off_c, 4, 72, 73
6, 150600, Note_on_c, 4, 67, 100
6, 150602, Note_on_c, 4, 79, 91
6, 150612, Note_off_c, 4, 77, 100
6, 150628, Note_off_c, 4, 65, 91
6, 150674, Note_on_c, 4, 81, 91
6, 150682, Note_on_c, 4, 69, 91
6, 150688, Note_off_c, 4, 79, 91
6, 150694, Note_off_c, 4, 67, 100
6, 150728, Note_off_c, 4, 81, 91
6, 150744, Note_off_c, 4, 69, 91
6, 151080, Note_on_c, 4, 60, 73
6, 151088, Note_on_c, 4, 72, 73
6, 151904, Note_on_c, 4, 82, 56
6, 151942, Note_on_c, 4, 83, 56
6, 152010, Note_on_c, 4, 84, 55
6, 152014, Note_off_c, 4, 82, 56
6, 152062, Note_off_c, 4, 83, 56
6, 154998, Note_on_c, 4, 93, 36
6, 155024, Note_on_c, 4, 94, 52
6, 155058, Note_on_c, 4, 95, 64
6, 155064, Note_off_c, 4, 93, 36
6, 155110, Note_on_c, 4, 96, 56
6, 155122, Note_off_c, 4, 94, 52
6, 155154, Note_off_c, 4, 95, 64
6, 157022, Note_off_c, 4, 84, 55
6, 157024, Note_on_c, 4, 95, 60
6, 157050, Note_on_c, 4, 83, 60
6, 157058, Note_off_c, 4, 96, 56
6, 157058, Note_on_c, 4, 94, 49
6, 157084, Note_on_c, 4, 82, 49
6, 157096, Note_off_c, 4, 95, 60
6, 157110, Note_on_c, 4, 93, 49
6, 157122, Note_off_c, 4, 83, 60
6, 157136, Note_on_c, 4, 81, 49
6, 157142, Note_off_c, 4, 94, 49
6, 157146, Note_on_c, 4, 92, 37
6, 157168, Note_off_c, 4, 93, 49
6, 157168, Note_off_c, 4, 82, 49
6, 157172, Note_on_c, 4, 80, 37
6, 157182, Note_on_c, 4, 91, 34
6, 157194, Note_off_c, 4, 81, 49
6, 157196, Note_off_c, 4, 92, 37
6, 157208, Note_on_c, 4, 79, 34
6, 157218, Note_off_c, 4, 91, 34
6, 157222, Note_off_c, 4, 80, 37
6, 157244, Note_off_c, 4, 79, 34
6, 157380, Note_off_c, 4, 72, 73
6, 157398, Note_on_c, 4, 74, 71
6, 157410, Note_off_c, 4, 60, 73
6, 157430, Note_on_c, 4, 62, 75
6, 157612, Note_off_c, 4, 74, 71
6, 157618, Note_on_c, 4, 64, 72
6, 157628, Note_on_c, 4, 76, 64
6, 157634, Note_off_c, 4, 62, 75
6, 157802, Note_on_c, 4, 77, 82
6, 157802, Note_on_c, 4, 65, 81
6, 157806, Note_off_c, 4, 76, 64
6, 157808, Note_off_c, 4, 64, 72
6, 157986, Note_on_c, 4, 79, 82
6, 157994, Note_off_c, 4, 77, 82
6, 157994, Note_on_c, 4, 67, 91
6, 158020, Note_off_c, 4, 65, 81
6, 158192, Note_off_c, 4, 67, 91
6, 158192, Note_off_c, 4, 79, 82
6, 158756, Note_on_c, 4, 72, 60
6, 158762, Note_on_c, 4, 60, 64
6, 160476, Note_on_c, 4, 65, 64
6, 160490, Note_on_c, 4, 77, 67
6, 160540, Note_off_c, 4, 72, 60
6, 160550, Note_off_c, 4, 60, 64
6, 160618, Note_off_c, 4, 77, 67
6, 160652, Note_off_c, 4, 65, 64
6, 160680, Note_on_c, 4, 77, 56
6, 160684, Note_on_c, 4, 65, 54
6, 160772, Note_on_c, 4, 67, 64
6, 160776, Note_on_c, 4, 79, 71
6, 160780, Note_off_c, 4, 77, 56
6, 160784, Note_off_c, 4, 65, 54
6, 160842, Note_off_c, 4, 67, 64
6, 160852, Note_off_c, 4, 79, 71
6, 160854, Note_on_c, 4, 69, 73
6, 160864, Note_on_c, 4, 81, 78
6, 160952, Note_off_c, 4, 81, 78
6, 160952, Note_on_c, 4, 65, 73
6, 160954, Note_off_c, 4, 69, 73
6, 160962, Note_on_c, 4, 77, 61
6, 161048, Note_off_c, 4, 65, 73
6, 161052, Note_on_c, 4, 62, 73
6, 161052, Note_on_c, 4, 74, 68
6, 161060, Note_off_c, 4, 77, 61
6, 161240, Note_on_c, 4, 77, 64
6, 161250, Note_on_c, 4, 65, 64
6, 161256, Note_off_c, 4, 74, 68
6, 161270, Note_off_c, 4, 62, 73
6, 161822, Note_on_c, 4, 81, 58
6, 161846, Note_off_c, 4, 77, 64
6, 161850, Note_on_c, 4, 69, 64
6, 161874, Note_off_c, 4, 65, 64
6, 163596, Note_off_c, 4, 69, 64
6, 163608, Note_off_c, 4, 81, 58
6, 163752, Note_on_c, 4, 62, 75
6, 163760, Note_on_c, 4, 74, 75
6, 163848, Note_on_c, 4, 64, 66
6, 163856, Note_on_c, 4, 76, 66
6, 163916, Note_off_c, 4, 62, 75
6, 163924, Note_off_c, 4, 74, 75
6, 163944, Note_on_c, 4, 65, 60
6, 163950, Note_off_c, 4, 64, 66
6, 163952, Note_on_c, 4, 77, 60
6, 163958, Note_off_c, 4, 76, 66
6, 164038, Note_on_c, 4, 67, 60
6, 164042, Note_off_c, 4, 65, 60
6, 164046, Note_on_c, 4, 79, 60
6, 164050, Note_off_c, 4, 77, 60
6, 164128, Note_on_c, 4, 69, 60
6, 164136, Note_on_c, 4, 81, 60
6, 164160, Note_off_c, 4, 67, 60
6, 164168, Note_off_c, 4, 79, 60
6, 164238, Note_off_c, 4, 69, 60
6, 164238, Note_on_c, 4, 70, 64
6, 164246, Note_off_c, 4, 81, 60
6, 164246, Note_on_c, 4, 82, 64
6, 164320, Note_on_c, 4, 69, 67
6, 164328, Note_on_c, 4, 81, 62
6, 164332, Note_off_c, 4, 70, 64
6, 164340, Note_off_c, 4, 82, 64
6, 164634, Note_on_c, 4, 77, 60
6, 164642, Note_on_c, 4, 65, 52
6, 164660, Note_off_c, 4, 69, 67
6, 164708, Note_off_c, 4, 81, 62
6, 164910, Note_on_c, 4, 72, 60
6, 164912, Note_on_c, 4, 60, 56
6, 164922, Note_off_c, 4, 77, 60
6, 164928, Note_off_c, 4, 65, 52
6, 165870, Note_off_c, 4, 72, 60
6, 165896, Note_off_c, 4, 60, 56
6, 166636, Note_on_c, 4, 65, 64
6, 166636, Note_on_c, 4, 77, 73
6, 166762, Note_off_c, 4, 77, 73
6, 166780, Note_off_c, 4, 65, 64
6, 166828, Note_on_c, 4, 77, 64
6, 166830, Note_on_c, 4, 65, 69
6, 166876, Note_off_c, 4, 77, 64
6, 166878, Note_off_c, 4, 65, 69
6, 166910, Note_on_c, 4, 77, 73
6, 166934, Note_on_c, 4, 65, 60
6, 166964, Note_off_c, 4, 77, 73
6, 166996, Note_off_c, 4, 65, 60
6, 167006, Note_on_c, 4, 77, 73
6, 167036, Note_on_c, 4, 65, 73
6, 167160, Note_off_c, 4, 77, 73
6, 167196, Note_off_c, 4, 65, 73
6, 167210, Note_on_c, 4, 74, 64
6, 167222, Note_on_c, 4, 62, 64
6, 167392, Note_off_c, 4, 62, 64
6, 167406, Note_off_c, 4, 74, 64
6, 167406, Note_on_c, 4, 65, 64
6, 167410, Note_on_c, 4, 77, 64
6, 167984, Note_on_c, 4, 69, 52
6, 167994, Note_off_c, 4, 65, 64
6, 167994, Note_on_c, 4, 81, 64
6, 168012, Note_off_c, 4, 77, 64
6, 170094, Note_off_c, 4, 81, 64
6, 170098, Note_off_c, 4, 69, 52
6, 170102, Note_on_c, 4, 77, 60
6, 170106, Note_on_c, 4, 65, 73
6, 170184, Note_off_c, 4, 77, 60
6, 170192, Note_on_c, 4, 79, 60
6, 170194, Note_off_c, 4, 65, 73
6, 170194, Note_on_c, 4, 67, 73
6, 170280, Note_off_c, 4, 67, 73
6, 170280, Note_off_c, 4, 79, 60
6, 170280, Note_on_c, 4, 69, 56
6, 170286, Note_on_c, 4, 81, 64
6, 170356, Note_off_c, 4, 69, 56
6, 170360, Note_on_c, 4, 70, 66
6, 170384, Note_off_c, 4, 81, 64
6, 170388, Note_on_c, 4, 82, 71
6, 170466, Note_off_c, 4, 70, 66
6, 170468, Note_off_c, 4, 82, 71
6, 170472, Note_on_c, 4, 69, 64
6, 170486, Note_on_c, 4, 81, 73
6, 170776, Note_on_c, 4, 77, 71
6, 170786, Note_off_c, 4, 81, 73
6, 170786, Note_on_c, 4, 65, 72
6, 170802, Note_off_c, 4, 69, 64
6, 170854, Note_off_c, 4, 65, 72
6, 170860, Note_off_c, 4, 77, 71
6, 171046, Note_on_c, 4, 72, 73
6, 171052, Note_on_c, 4, 60, 64
6, 172426, Note_off_c, 4, 72, 73
6, 172432, Note_off_c, 4, 60, 64
6, 172572, Note_on_c, 4, 74, 64
6, 172582, Note_on_c, 4, 62, 62
6, 172772, Note_on_c, 4, 77, 73
6, 172778, Note_on_c, 4, 65, 73
6, 172790, Note_off_c, 4, 74, 64
6, 172800, Note_off_c, 4, 62, 62
6, 172848, Note_off_c, 4, 65, 73
6, 172848, Note_off_c, 4, 77, 73
6, 172966, Note_on_c, 4, 77, 70
6, 172968, Note_on_c, 4, 65, 73
6, 173060, Note_on_c, 4, 79, 82
6, 173068, Note_on_c, 4, 67, 73
6, 173090, Note_off_c, 4, 77, 70
6, 173106, Note_off_c, 4, 65, 73
6, 173138, Note_off_c, 4, 79, 82
6, 173166, Note_off_c, 4, 67, 73
6, 173266, Note_on_c, 4, 77, 72
6, 173268, Note_on_c, 4, 65, 78
6, 173354, Note_on_c, 4, 62, 64
6, 173354, Note_on_c, 4, 74, 70
6, 173376, Note_off_c, 4, 77, 72
6, 173380, Note_off_c, 4, 65, 78
6, 173528, Note_on_c, 4, 69, 64
6, 173542, Note_on_c, 4, 81, 64
6, 173550, Note_off_c, 4, 74, 70
6, 173556, Note_off_c, 4, 62, 64
6, 175838, Note_off_c, 4, 69, 64
6, 175848, Note_on_c, 4, 69, 73
6, 175850, Note_on_c, 4, 77, 55
6, 175858, Note_on_c, 4, 65, 73
6, 175876, Note_off_c, 4, 81, 64
6, 176036, Note_on_c, 4, 67, 64
6, 176042, Note_on_c, 4, 62, 64
6, 176046, Note_on_c, 4, 74, 64
6, 176058, Note_off_c, 4, 69, 73
6, 176062, Note_off_c, 4, 65, 73
6, 176086, Note_off_c, 4, 77, 55
6, 176224, Note_off_c, 4, 62, 64
6, 176230, Note_on_c, 4, 69, 64
6, 176232, Note_on_c, 4, 81, 73
6, 176234, Note_off_c, 4, 67, 64
6, 176234, Note_on_c, 4, 72, 60
6, 176248, Note_off_c, 4, 74, 64
6, 176404, Note_on_c, 4, 74, 64
6, 176410, Note_off_c, 4, 72, 60
6, 176422, Note_on_c, 4, 82, 73
6, 176426, Note_on_c, 4, 70, 64
6, 176430, Note_off_c, 4, 69, 64
6, 176452, Note_off_c, 4, 81, 73
6, 176636, Note_off_c, 4, 82, 73
6, 176642, Note_off_c, 4, 74, 64
6, 176644, Note_off_c, 4, 70, 64
6, 177202, Note_on_c, 4, 72, 62
6, 177206, Note_on_c, 4, 60, 63
6, 178166, Note_off_c, 4, 60, 63
6, 178180, Note_off_c, 4, 72, 62
6, 179316, Note_on_c, 4, 60, 73
6, 179322, Note_on_c, 4, 72, 73
6, 179404, Note_on_c, 4, 62, 73
6, 179412, Note_off_c, 4, 72, 73
6, 179418, Note_on_c, 4, 74, 73
6, 179420, Note_off_c, 4, 60, 73
6, 179484, Note_on_c, 4, 65, 60
6, 179490, Note_off_c, 4, 74, 73
6, 179490, Note_on_c, 4, 77, 64
6, 179494, Note_off_c, 4, 62, 73
6, 179580, Note_on_c, 4, 62, 64
6, 179582, Note_off_c, 4, 77, 64
6, 179586, Note_on_c, 4, 74, 64
6, 179594, Note_off_c, 4, 65, 60
6, 179682, Note_on_c, 4, 69, 66
6, 179686, Note_on_c, 4, 81, 65
6, 179688, Note_off_c, 4, 62, 64
6, 179690, Note_off_c, 4, 74, 64
6, 180024, Control_c, 4, 11, 126
6, 180192, Control_c, 4, 11, 125
6, 180320, Control_c, 4, 11, 124
6, 180466, Control_c, 4, 11, 123
6, 180688, Control_c, 4, 11, 122
6, 180824, Control_c, 4, 11, 121
6, 180970, Control_c, 4, 11, 120
6, 181078, Control_c, 4, 11, 119
6, 181198, Control_c, 4, 11, 118
6, 181216, Note_off_c, 4, 69, 66
6, 181232, Note_off_c, 4, 81, 65
6, 181320, Control_c, 4, 11, 117
6, 181420, Control_c, 4, 11, 116
6, 181552, Control_c, 4, 11, 115
6, 181666, Control_c, 4, 11, 114
6, 181746, Control_c, 4, 11, 113
6, 181844, Control_c, 4, 11, 112
6, 181984, Note_on_c, 4, 74, 73
6, 181996, Note_on_c, 4, 62, 73
6, 181998, Control_c, 4, 11, 111
6, 182136, Control_c, 4, 11, 110
6, 182174, Note_on_c, 4, 76, 73
6, 182184, Note_off_c, 4, 74, 73
6, 182194, Note_on_c, 4, 64, 64
6, 182212, Note_off_c, 4, 62, 73
6, 182236, Control_c, 4, 11, 109
6, 182354, Note_on_c, 4, 77, 73
6, 182356, Control_c, 4, 11, 108
6, 182366, Note_on_c, 4, 65, 64
6, 182368, Note_on_c, 4, 62, 60
6, 182374, Note_off_c, 4, 76, 73
6, 182384, Note_off_c, 4, 64, 64
6, 182548, Note_on_c, 4, 67, 60
6, 182550, Note_on_c, 4, 79, 72
6, 182554, Note_off_c, 4, 77, 73
6, 182558, Note_on_c, 4, 60, 56
6, 182560, Note_off_c, 4, 65, 64
6, 182570, Control_c, 4, 11, 107
6, 182594, Note_off_c, 4, 62, 60
6, 182718, Control_c, 4, 11, 106
6, 182736, Note_off_c, 4, 67, 60
6, 182750, Note_off_c, 4, 79, 72
6, 182778, Note_off_c, 4, 60, 56
6, 182832, Control_c, 4, 11, 105
6, 182918, Control_c, 4, 11, 104
6, 183036, Control_c, 4, 11, 103
6, 183120, Control_c, 4, 11, 102
6, 183216, Control_c, 4, 11, 101
6, 183332, Note_on_c, 4, 72, 60
6, 183338, Note_on_c, 4, 60, 64
6, 183360, Control_c, 4, 11, 100
6, 183514, Control_c, 4, 11, 99
6, 183744, Control_c, 4, 11, 98
6, 183960, Control_c, 4, 11, 97
6, 184152, Control_c, 4, 11, 96
6, 184362, Control_c, 4, 11, 95
6, 184460, Control_c, 4, 11, 94
6, 184576, Control_c, 4, 11, 93
6, 184728, Control_c, 4, 11, 92
6, 184854, Control_c, 4, 11, 91
6, 185032, Control_c, 4, 11, 90
6, 185052, Note_on_c, 4, 65, 64
6, 185066, Note_on_c, 4, 77, 67
6, 185116, Note_off_c, 4, 72, 60
6, 185126, Note_off_c, 4, 60, 64
6, 185158, Control_c, 4, 11, 89
6, 185194, Note_off_c, 4, 77, 67
6, 185228, Note_off_c, 4, 65, 64
6, 185250, Control_c, 4, 11, 88
6, 185256, Note_on_c, 4, 77, 56
6, 185260, Note_on_c, 4, 65, 54
6, 185348, Note_on_c, 4, 67, 64
6, 185352, Note_on_c, 4, 79, 71
6, 185356, Note_off_c, 4, 77, 56
6, 185360, Note_off_c, 4, 65, 54
6, 185372, Control_c, 4, 11, 87
6, 185418, Note_off_c, 4, 67, 64
6, 185428, Note_off_c, 4, 79, 71
6, 185430, Note_on_c, 4, 69, 73
6, 185440, Note_on_c, 4, 81, 78
6, 185504, Control_c, 4, 11, 86
6, 185528, Note_off_c, 4, 81, 78
6, 185528, Note_on_c, 4, 65, 73
6, 185530, Note_off_c, 4, 69, 73
6, 185538, Note_on_c, 4, 77, 61
6, 185592, Control_c, 4, 11, 85
6, 185624, Note_off_c, 4, 65, 73
6, 185628, Note_on_c, 4, 62, 73
6, 185628, Note_on_c, 4, 74, 68
6, 185636, Note_off_c, 4, 77, 61
6, 185710, Control_c, 4, 11, 84
6, 185796, Control_c, 4, 11, 83
6, 185816, Note_on_c, 4, 77, 64
6, 185826, Note_on_c, 4, 65, 64
6, 185832, Note_off_c, 4, 74, 68
6, 185846, Note_off_c, 4, 62, 73
6, 185878, Control_c, 4, 11, 82
6, 186014, Control_c, 4, 11, 81
6, 186118, Control_c, 4, 11, 80
6, 186192, Control_c, 4, 11, 79
6, 186268, Control_c, 4, 11, 78
6, 186356, Control_c, 4, 11, 77
6, 186398, Note_on_c, 4, 81, 58
6, 186422, Note_off_c, 4, 77, 64
6, 186426, Note_on_c, 4, 69, 64
6, 186450, Note_off_c, 4, 65, 64
6, 186482, Control_c, 4, 11, 76
6, 186566, Control_c, 4, 11, 75
6, 186670, Control_c, 4, 11, 74
6, 186742, Control_c, 4, 11, 73
6, 186850, Control_c, 4, 11, 72
6, 186940, Control_c, 4, 11, 71
6, 187024, Control_c, 4, 11, 70
6, 187126, Control_c, 4, 11, 69
6, 187214, Control_c, 4, 11, 68
6, 187314, Control_c, 4, 11, 67
6, 187384, Control_c, 4, 11, 66
6, 187468, Control_c, 4, 11, 65
6, 187588, Control_c, 4, 11, 64
6, 187672, Control_c, 4, 11, 63
6, 187780, Control_c, 4, 11, 62
6, 187866, Control_c, 4, 11, 61
6, 187960, Control_c, 4, 11, 60
6, 188100, Control_c, 4, 11, 59
6, 188172, Note_off_c, 4, 69, 64
6, 188184, Note_off_c, 4, 81, 58
6, 188244, Control_c, 4, 11, 58
6, 188328, Note_on_c, 4, 62, 75
6, 188336, Note_on_c, 4, 74, 75
6, 188382, Control_c, 4, 11, 57
6, 188424, Note_on_c, 4, 64, 66
6, 188432, Note_on_c, 4, 76, 66
6, 188492, Note_off_c, 4, 62, 75
6, 188498, Control_c, 4, 11, 56
6, 188500, Note_off_c, 4, 74, 75
6, 188520, Note_on_c, 4, 65, 60
6, 188526, Note_off_c, 4, 64, 66
6, 188528, Note_on_c, 4, 77, 60
6, 188534, Note_off_c, 4, 76, 66
6, 188614, Note_on_c, 4, 67, 60
6, 188618, Note_off_c, 4, 65, 60
6, 188620, Control_c, 4, 11, 55
6, 188622, Note_on_c, 4, 79, 60
6, 188626, Note_off_c, 4, 77, 60
6, 188704, Note_on_c, 4, 69, 60
6, 188712, Note_on_c, 4, 81, 60
6, 188736, Note_off_c, 4, 67, 60
6, 188742, Control_c, 4, 11, 54
6, 188744, Note_off_c, 4, 79, 60
6, 188814, Note_off_c, 4, 69, 60
6, 188814, Note_on_c, 4, 70, 64
6, 188822, Note_off_c, 4, 81, 60
6, 188822, Note_on_c, 4, 82, 64
6, 188836, Control_c, 4, 11, 53
6, 188896, Note_on_c, 4, 69, 67
6, 188904, Note_on_c, 4, 81, 62
6, 188908, Note_off_c, 4, 70, 64
6, 188916, Note_off_c, 4, 82, 64
6, 188950, Control_c, 4, 11, 52
6, 189020, Control_c, 4, 11, 51
6, 189138, Control_c, 4, 11, 50
6, 189210, Note_on_c, 4, 77, 60
6, 189218, Note_on_c, 4, 65, 52
6, 189236, Note_off_c, 4, 69, 67
6, 189252, Control_c, 4, 11, 49
6, 189284, Note_off_c, 4, 81, 62
6, 189390, Control_c, 4, 11, 48
6, 189486, Note_on_c, 4, 72, 60
6, 189486, Control_c, 4, 11, 47
6, 189488, Note_on_c, 4, 60, 56
6, 189498, Note_off_c, 4, 77, 60
6, 189504, Note_off_c, 4, 65, 52
6, 189600, Control_c, 4, 11, 46
6, 189664, Control_c, 4, 11, 45
6, 189776, Control_c, 4, 11, 44
6, 189908, Control_c, 4, 11, 43
6, 190012, Control_c, 4, 11, 42
6, 190128, Control_c, 4, 11, 41
6, 190246, Control_c, 4, 11, 40
6, 190342, Control_c, 4, 11, 39
6, 190446, Note_off_c, 4, 72, 60
6, 190454, Control_c, 4, 11, 38
6, 190472, Note_off_c, 4, 60, 56
6, 190544, Control_c, 4, 11, 37
6, 190654, Control_c, 4, 11, 36
6, 190760, Control_c, 4, 11, 35
6, 190866, Control_c, 4, 11, 34
6, 190952, Control_c, 4, 11, 33
6, 191068, Control_c, 4, 11, 32
6, 191170, Control_c, 4, 11, 31
6, 191212, Note_on_c, 4, 65, 64
6, 191212, Note_on_c, 4, 77, 73
6, 191256, Control_c, 4, 11, 30
6, 191338, Note_off_c, 4, 77, 73
6, 191356, Note_off_c, 4, 65, 64
6, 191384, Control_c, 4, 11, 29
6, 191404, Note_on_c, 4, 77, 64
6, 191406, Note_on_c, 4, 65, 69
6, 191452, Note_off_c, 4, 77, 64
6, 191454, Note_off_c, 4, 65, 69
6, 191486, Note_on_c, 4, 77, 73
6, 191510, Note_on_c, 4, 65, 60
6, 191540, Note_off_c, 4, 77, 73
6, 191572, Note_off_c, 4, 65, 60
6, 191580, Control_c, 4, 11, 28
6, 191582, Note_on_c, 4, 77, 73
6, 191612, Note_on_c, 4, 65, 73
6, 191690, Control_c, 4, 11, 27
6, 191736, Note_off_c, 4, 77, 73
6, 191772, Note_off_c, 4, 65, 73
6, 191786, Note_on_c, 4, 74, 64
6, 191792, Control_c, 4, 11, 26
6, 191798, Note_on_c, 4, 62, 64
6, 191944, Control_c, 4, 11, 25
6, 191968, Note_off_c, 4, 62, 64
6, 191982, Note_off_c, 4, 74, 64
6, 191982, Note_on_c, 4, 65, 64
6, 191986, Note_on_c, 4, 77, 64
6, 192080, Control_c, 4, 11, 24
6, 192180, Control_c, 4, 11, 23
6, 192300, Control_c, 4, 11, 22
6, 192494, Control_c, 4, 11, 21
6, 192560, Note_on_c, 4, 69, 52
6, 192570, Note_off_c, 4, 65, 64
6, 192570, Note_on_c, 4, 81, 64
6, 192588, Note_off_c, 4, 77, 64
6, 192632, Control_c, 4, 11, 20
6, 192776, Control_c, 4, 11, 19
6, 192894, Control_c, 4, 11, 18
6, 193040, Control_c, 4, 11, 17
6, 193128, Control_c, 4, 11, 16
6, 193312, Control_c, 4, 11, 15
6, 193370, Control_c, 4, 11, 14
6, 193460, Control_c, 4, 11, 13
6, 193544, Control_c, 4, 11, 12
6, 193658, Control_c, 4, 11, 11
6, 193738, Control_c, 4, 11, 10
6, 193808, Control_c, 4, 11, 9
6, 193884, Control_c, 4, 11, 8
6, 193954, Control_c, 4, 11, 7
6, 194040, Control_c, 4, 11, 6
6, 194092, Control_c, 4, 11, 5
6, 194166, Control_c, 4, 11, 4
6, 194214, Control_c, 4, 11, 3
6, 194322, Control_c, 4, 11, 2
6, 194422, Control_c, 4, 11, 1
6, 194670, Note_off_c, 4, 81, 64
6, 194674, Note_off_c, 4, 69, 52
6, 194678, Note_on_c, 4, 77, 60
6, 194682, Note_on_c, 4, 65, 73
6, 194760, Note_off_c, 4, 77, 60
6, 194768, Note_on_c, 4, 79, 60
6, 194770, Note_off_c, 4, 65, 73
6, 194770, Note_on_c, 4, 67, 73
6, 194856, Note_off_c, 4, 67, 73
6, 194856, Note_off_c, 4, 79, 60
6, 194856, Note_on_c, 4, 69, 56
6, 194862, Note_on_c, 4, 81, 64
6, 194912, Control_c, 4, 11, 0
6, 194932, Note_off_c, 4, 69, 56
6, 194936, Note_on_c, 4, 70, 66
6, 194960, Note_off_c, 4, 81, 64
6, 194964, Note_on_c, 4, 82, 71
6, 195042, Note_off_c, 4, 70, 66
6, 195044, Note_off_c, 4, 82, 71
6, 196816, Control_c, 4, 121, 127
6, 197008, Control_c, 4, 7, 127
6, 197200, Control_c, 4, 10, 64
6, 198144, End_track
7, 0, Start_track
7, 1748, Control_c, 5, 121, 127
7, 1940, Control_c, 5, 0, 0
7, 2132, Program_c, 5, 61
7, 2324, Control_c, 5, 7, 115
7, 2516, Control_c, 5, 10, 78
7, 2708, Control_c, 5, 11, 127
7, 2900, Control_c, 5, 91, 100
7, 3092, Control_c, 5, 93, 0
7, 36856, Note_on_c, 5, 65, 82
7, 36858, Note_on_c, 5, 69, 73
7, 37140, Note_on_c, 5, 64, 73
7, 37140, Note_on_c, 5, 67, 60
7, 37142, Note_off_c, 5, 65, 82
7, 37144, Note_off_c, 5, 69, 73
7, 37190, Note_off_c, 5, 67, 60
7, 37200, Note_off_c, 5, 64, 73
7, 37426, Note_on_c, 5, 62, 70
7, 37436, Note_on_c, 5, 65, 79
7, 37826, Note_off_c, 5, 62, 70
7, 37836, Note_off_c, 5, 65, 79
7, 38392, Note_on_c, 5, 65, 64
7, 38398, Note_on_c, 5, 60, 67
7, 38566, Note_off_c, 5, 65, 64
7, 38572, Note_off_c, 5, 60, 67
7, 38598, Note_on_c, 5, 65, 66
7, 38600, Note_on_c, 5, 60, 67
7, 38640, Note_off_c, 5, 60, 67
7, 38642, Note_off_c, 5, 65, 66
7, 39742, Note_on_c, 5, 60, 51
7, 39742, Note_on_c, 5, 72, 64
7, 39822, Note_off_c, 5, 72, 64
7, 39842, Note_off_c, 5, 60, 51
7, 39932, Note_on_c, 5, 69, 91
7, 39938, Note_on_c, 5, 65, 91
7, 39938, Note_on_c, 5, 72, 91
7, 39940, Note_on_c, 5, 62, 91
7, 39986, Note_off_c, 5, 72, 91
7, 39988, Note_off_c, 5, 69, 91
7, 39992, Note_off_c, 5, 62, 91
7, 39998, Note_off_c, 5, 65, 91
7, 40024, Note_on_c, 5, 69, 73
7, 40026, Note_on_c, 5, 72, 91
7, 40030, Note_on_c, 5, 65, 82
7, 40034, Note_on_c, 5, 62, 73
7, 40084, Note_off_c, 5, 72, 91
7, 40090, Note_off_c, 5, 69, 73
7, 40094, Note_off_c, 5, 65, 82
7, 40098, Note_off_c, 5, 62, 73
7, 40124, Note_on_c, 5, 62, 64
7, 40124, Note_on_c, 5, 69, 56
7, 40124, Note_on_c, 5, 72, 84
7, 40128, Note_on_c, 5, 65, 60
7, 40172, Note_off_c, 5, 72, 84
7, 40176, Note_off_c, 5, 69, 56
7, 40180, Note_off_c, 5, 65, 60
7, 40182, Note_off_c, 5, 62, 64
7, 40212, Note_on_c, 5, 69, 82
7, 40214, Note_on_c, 5, 72, 107
7, 40220, Note_on_c, 5, 62, 100
7, 40220, Note_on_c, 5, 65, 109
7, 40260, Note_off_c, 5, 62, 100
7, 40260, Note_off_c, 5, 69, 82
7, 40262, Note_off_c, 5, 65, 109
7, 40264, Note_off_c, 5, 72, 107
7, 43000, Note_on_c, 5, 65, 82
7, 43002, Note_on_c, 5, 69, 73
7, 43284, Note_on_c, 5, 64, 73
7, 43284, Note_on_c, 5, 67, 60
7, 43286, Note_off_c, 5, 65, 82
7, 43288, Note_off_c, 5, 69, 73
7, 43334, Note_off_c, 5, 67, 60
7, 43344, Note_off_c, 5, 64, 73
7, 43568, Note_on_c, 5, 72, 74
7, 43570, Note_on_c, 5, 69, 70
7, 43580, Note_on_c, 5, 65, 79
7, 44330, Note_off_c, 5, 69, 70
7, 44378, Note_off_c, 5, 72, 74
7, 44422, Note_off_c, 5, 65, 79
7, 44536, Note_on_c, 5, 65, 64
7, 44542, Note_on_c, 5, 60, 67
7, 44710, Note_off_c, 5, 65, 64
7, 44716, Note_off_c, 5, 60, 67
7, 44742, Note_on_c, 5, 65, 66
7, 44744, Note_on_c, 5, 60, 67
7, 44784, Note_off_c, 5, 60, 67
7, 44786, Note_off_c, 5, 65, 66
7, 45886, Note_on_c, 5, 60, 51
7, 45886, Note_on_c, 5, 72, 64
7, 45966, Note_off_c, 5, 72, 64
7, 45986, Note_off_c, 5, 60, 51
7, 46076, Note_on_c, 5, 69, 91
7, 46082, Note_on_c, 5, 65, 91
7, 46082, Note_on_c, 5, 72, 91
7, 46084, Note_on_c, 5, 62, 91
7, 46130, Note_off_c, 5, 72, 91
7, 46132, Note_off_c, 5, 69, 91
7, 46136, Note_off_c, 5, 62, 91
7, 46142, Note_off_c, 5, 65, 91
7, 46168, Note_on_c, 5, 69, 73
7, 46170, Note_on_c, 5, 72, 91
7, 46174, Note_on_c, 5, 65, 82
7, 46178, Note_on_c, 5, 62, 73
7, 46228, Note_off_c, 5, 72, 91
7, 46234, Note_off_c, 5, 69, 73
7, 46238, Note_off_c, 5, 65, 82
7, 46242, Note_off_c, 5, 62, 73
7, 46268, Note_on_c, 5, 62, 64
7, 46268, Note_on_c, 5, 69, 56
7, 46268, Note_on_c, 5, 72, 84
7, 46272, Note_on_c, 5, 65, 60
7, 46316, Note_off_c, 5, 72, 84
7, 46320, Note_off_c, 5, 69, 56
7, 46324, Note_off_c, 5, 65, 60
7, 46326, Note_off_c, 5, 62, 64
7, 46356, Note_on_c, 5, 69, 82
7, 46358, Note_on_c, 5, 72, 107
7, 46364, Note_on_c, 5, 62, 100
7, 46364, Note_on_c, 5, 65, 109
7, 46404, Note_off_c, 5, 62, 100
7, 46404, Note_off_c, 5, 69, 82
7, 46406, Note_off_c, 5, 65, 109
7, 46408, Note_off_c, 5, 72, 107
7, 49144, Note_on_c, 5, 65, 82
7, 49146, Note_on_c, 5, 69, 73
7, 49428, Note_on_c, 5, 64, 73
7, 49428, Note_on_c, 5, 67, 60
7, 49430, Note_off_c, 5, 65, 82
7, 49432, Note_off_c, 5, 69, 73
7, 49478, Note_off_c, 5, 67, 60
7, 49488, Note_off_c, 5, 64, 73
7, 49714, Note_on_c, 5, 62, 70
7, 49724, Note_on_c, 5, 65, 79
7, 50114, Note_off_c, 5, 62, 70
7, 50124, Note_off_c, 5, 65, 79
7, 50680, Note_on_c, 5, 65, 64
7, 50686, Note_on_c, 5, 60, 67
7, 50854, Note_off_c, 5, 65, 64
7, 50860, Note_off_c, 5, 60, 67
7, 50886, Note_on_c, 5, 65, 66
7, 50888, Note_on_c, 5, 60, 67
7, 50928, Note_off_c, 5, 60, 67
7, 50930, Note_off_c, 5, 65, 66
7, 52030, Note_on_c, 5, 60, 51
7, 52030, Note_on_c, 5, 72, 64
7, 52110, Note_off_c, 5, 72, 64
7, 52130, Note_off_c, 5, 60, 51
7, 52220, Note_on_c, 5, 69, 91
7, 52226, Note_on_c, 5, 65, 91
7, 52226, Note_on_c, 5, 72, 91
7, 52228, Note_on_c, 5, 62, 91
7, 52274, Note_off_c, 5, 72, 91
7, 52276, Note_off_c, 5, 69, 91
7, 52280, Note_off_c, 5, 62, 91
7, 52286, Note_off_c, 5, 65, 91
7, 52312, Note_on_c, 5, 69, 73
7, 52314, Note_on_c, 5, 72, 91
7, 52318, Note_on_c, 5, 65, 82
7, 52322, Note_on_c, 5, 62, 73
7, 52372, Note_off_c, 5, 72, 91
7, 52378, Note_off_c, 5, 69, 73
7, 52382, Note_off_c, 5, 65, 82
7, 52386, Note_off_c, 5, 62, 73
7, 52412, Note_on_c, 5, 62, 64
7, 52412, Note_on_c, 5, 69, 56
7, 52412, Note_on_c, 5, 72, 84
7, 52416, Note_on_c, 5, 65, 60
7, 52460, Note_off_c, 5, 72, 84
7, 52464, Note_off_c, 5, 69, 56
7, 52468, Note_off_c, 5, 65, 60
7, 52470, Note_off_c, 5, 62, 64
7, 52500, Note_on_c, 5, 69, 82
7, 52502, Note_on_c, 5, 72, 107
7, 52508, Note_on_c, 5, 62, 100
7, 52508, Note_on_c, 5, 65, 109
7, 52548, Note_off_c, 5, 62, 100
7, 52548, Note_off_c, 5, 69, 82
7, 52550, Note_off_c, 5, 65, 109
7, 52552, Note_off_c, 5, 72, 107
7, 55288, Note_on_c, 5, 65, 82
7, 55290, Note_on_c, 5, 69, 73
7, 55572, Note_on_c, 5, 64, 73
7, 55572, Note_on_c, 5, 67, 60
7, 55574, Note_off_c, 5, 65, 82
7, 55576, Note_off_c, 5, 69, 73
7, 55622, Note_off_c, 5, 67, 60
7, 55632, Note_off_c, 5, 64, 73
7, 55856, Note_on_c, 5, 72, 74
7, 55858, Note_on_c, 5, 69, 70
7, 55868, Note_on_c, 5, 65, 79
7, 56618, Note_off_c, 5, 69, 70
7, 56666, Note_off_c, 5, 72, 74
7, 56710, Note_off_c, 5, 65, 79
7, 56824, Note_on_c, 5, 65, 64
7, 56830, Note_on_c, 5, 60, 67
7, 56998, Note_off_c, 5, 65, 64
7, 57004, Note_off_c, 5, 60, 67
7, 57030, Note_on_c, 5, 65, 66
7, 57032, Note_on_c, 5, 60, 67
7, 57072, Note_off_c, 5, 60, 67
7, 57074, Note_off_c, 5, 65, 66
7, 58174, Note_on_c, 5, 60, 51
7, 58174, Note_on_c, 5, 72, 64
7, 58254, Note_off_c, 5, 72, 64
7, 58274, Note_off_c, 5, 60, 51
7, 58364, Note_on_c, 5, 69, 91
7, 58370, Note_on_c, 5, 65, 91
7, 58370, Note_on_c, 5, 72, 91
7, 58372, Note_on_c, 5, 62, 91
7, 58418, Note_off_c, 5, 72, 91
7, 58420, Note_off_c, 5, 69, 91
7, 58424, Note_off_c, 5, 62, 91
7, 58430, Note_off_c, 5, 65, 91
7, 58456, Note_on_c, 5, 69, 73
7, 58458, Note_on_c, 5, 72, 91
7, 58462, Note_on_c, 5, 65, 82
7, 58466, Note_on_c, 5, 62, 73
7, 58516, Note_off_c, 5, 72, 91
7, 58522, Note_off_c, 5, 69, 73
7, 58526, Note_off_c, 5, 65, 82
7, 58530, Note_off_c, 5, 62, 73
7, 58556, Note_on_c, 5, 62, 64
7, 58556, Note_on_c, 5, 69, 56
7, 58556, Note_on_c, 5, 72, 84
7, 58560, Note_on_c, 5, 65, 60
7, 58604, Note_off_c, 5, 72, 84
7, 58608, Note_off_c, 5, 69, 56
7, 58612, Note_off_c, 5, 65, 60
7, 58614, Note_off_c, 5, 62, 64
7, 58644, Note_on_c, 5, 69, 82
7, 58646, Note_on_c, 5, 72, 107
7, 58652, Note_on_c, 5, 62, 100
7, 58652, Note_on_c, 5, 65, 109
7, 58692, Note_off_c, 5, 62, 100
7, 58692, Note_off_c, 5, 69, 82
7, 58694, Note_off_c, 5, 65, 109
7, 58696, Note_off_c, 5, 72, 107
7, 82936, Note_on_c, 5, 65, 82
7, 82938, Note_on_c, 5, 69, 73
7, 83220, Note_on_c, 5, 64, 73
7, 83220, Note_on_c, 5, 67, 60
7, 83222, Note_off_c, 5, 65, 82
7, 83224, Note_off_c, 5, 69, 73
7, 83270, Note_off_c, 5, 67, 60
7, 83280, Note_off_c, 5, 64, 73
7, 83506, Note_on_c, 5, 62, 70
7, 83516, Note_on_c, 5, 65, 79
7, 83906, Note_off_c, 5, 62, 70
7, 83916, Note_off_c, 5, 65, 79
7, 84472, Note_on_c, 5, 65, 64
7, 84478, Note_on_c, 5, 60, 67
7, 84646, Note_off_c, 5, 65, 64
7, 84652, Note_off_c, 5, 60, 67
7, 84678, Note_on_c, 5, 65, 66
7, 84680, Note_on_c, 5, 60, 67
7, 84720, Note_off_c, 5, 60, 67
7, 84722, Note_off_c, 5, 65, 66
7, 85822, Note_on_c, 5, 60, 51
7, 85822, Note_on_c, 5, 72, 64
7, 85902, Note_off_c, 5, 72, 64
7, 85922, Note_off_c, 5, 60, 51
7, 86012, Note_on_c, 5, 69, 91
7, 86018, Note_on_c, 5, 65, 91
7, 86018, Note_on_c, 5, 72, 91
7, 86020, Note_on_c, 5, 62, 91
7, 86066, Note_off_c, 5, 72, 91
7, 86068, Note_off_c, 5, 69, 91
7, 86072, Note_off_c, 5, 62, 91
7, 86078, Note_off_c, 5, 65, 91
7, 86104, Note_on_c, 5, 69, 73
7, 86106, Note_on_c, 5, 72, 91
7, 86110, Note_on_c, 5, 65, 82
7, 86114, Note_on_c, 5, 62, 73
7, 86164, Note_off_c, 5, 72, 91
7, 86170, Note_off_c, 5, 69, 73
7, 86174, Note_off_c, 5, 65, 82
7, 86178, Note_off_c, 5, 62, 73
7, 86204, Note_on_c, 5, 62, 64
7, 86204, Note_on_c, 5, 69, 56
7, 86204, Note_on_c, 5, 72, 84
7, 86208, Note_on_c, 5, 65, 60
7, 86252, Note_off_c, 5, 72, 84
7, 86256, Note_off_c, 5, 69, 56
7, 86260, Note_off_c, 5, 65, 60
7, 86262, Note_off_c, 5, 62, 64
7, 86292, Note_on_c, 5, 69, 82
7, 86294, Note_on_c, 5, 72, 107
7, 86300, Note_on_c, 5, 62, 100
7, 86300, Note_on_c, 5, 65, 109
7, 86340, Note_off_c, 5, 62, 100
7, 86340, Note_off_c, 5, 69, 82
7, 86342, Note_off_c, 5, 65, 109
7, 86344, Note_off_c, 5, 72, 107
7, 89080, Note_on_c, 5, 65, 82
7, 89082, Note_on_c, 5, 69, 73
7, 89364, Note_on_c, 5, 64, 73
7, 89364, Note_on_c, 5, 67, 60
7, 89366, Note_off_c, 5, 65, 82
7, 89368, Note_off_c, 5, 69, 73
7, 89414, Note_off_c, 5, 67, 60
7, 89424, Note_off_c, 5, 64, 73
7, 89648, Note_on_c, 5, 72, 74
7, 89650, Note_on_c, 5, 69, 70
7, 89660, Note_on_c, 5, 65, 79
7, 90410, Note_off_c, 5, 69, 70
7, 90458, Note_off_c, 5, 72, 74
7, 90502, Note_off_c, 5, 65, 79
7, 90616, Note_on_c, 5, 65, 64
7, 90622, Note_on_c, 5, 60, 67
7, 90790, Note_off_c, 5, 65, 64
7, 90796, Note_off_c, 5, 60, 67
7, 90822, Note_on_c, 5, 65, 66
7, 90824, Note_on_c, 5, 60, 67
7, 90864, Note_off_c, 5, 60, 67
7, 90866, Note_off_c, 5, 65, 66
7, 91966, Note_on_c, 5, 60, 51
7, 91966, Note_on_c, 5, 72, 64
7, 92046, Note_off_c, 5, 72, 64
7, 92066, Note_off_c, 5, 60, 51
7, 92156, Note_on_c, 5, 69, 91
7, 92162, Note_on_c, 5, 65, 91
7, 92162, Note_on_c, 5, 72, 91
7, 92164, Note_on_c, 5, 62, 91
7, 92210, Note_off_c, 5, 72, 91
7, 92212, Note_off_c, 5, 69, 91
7, 92216, Note_off_c, 5, 62, 91
7, 92222, Note_off_c, 5, 65, 91
7, 92248, Note_on_c, 5, 69, 73
7, 92250, Note_on_c, 5, 72, 91
7, 92254, Note_on_c, 5, 65, 82
7, 92258, Note_on_c, 5, 62, 73
7, 92308, Note_off_c, 5, 72, 91
7, 92314, Note_off_c, 5, 69, 73
7, 92318, Note_off_c, 5, 65, 82
7, 92322, Note_off_c, 5, 62, 73
7, 92348, Note_on_c, 5, 62, 64
7, 92348, Note_on_c, 5, 69, 56
7, 92348, Note_on_c, 5, 72, 84
7, 92352, Note_on_c, 5, 65, 60
7, 92396, Note_off_c, 5, 72, 84
7, 92400, Note_off_c, 5, 69, 56
7, 92404, Note_off_c, 5, 65, 60
7, 92406, Note_off_c, 5, 62, 64
7, 92436, Note_on_c, 5, 69, 82
7, 92438, Note_on_c, 5, 72, 107
7, 92444, Note_on_c, 5, 62, 100
7, 92444, Note_on_c, 5, 65, 109
7, 92484, Note_off_c, 5, 62, 100
7, 92484, Note_off_c, 5, 69, 82
7, 92486, Note_off_c, 5, 65, 109
7, 92488, Note_off_c, 5, 72, 107
7, 95224, Note_on_c, 5, 65, 82
7, 95226, Note_on_c, 5, 69, 73
7, 95508, Note_on_c, 5, 64, 73
7, 95508, Note_on_c, 5, 67, 60
7, 95510, Note_off_c, 5, 65, 82
7, 95512, Note_off_c, 5, 69, 73
7, 95558, Note_off_c, 5, 67, 60
7, 95568, Note_off_c, 5, 64, 73
7, 95794, Note_on_c, 5, 62, 70
7, 95804, Note_on_c, 5, 65, 79
7, 96194, Note_off_c, 5, 62, 70
7, 96204, Note_off_c, 5, 65, 79
7, 96760, Note_on_c, 5, 65, 64
7, 96766, Note_on_c, 5, 60, 67
7, 96934, Note_off_c, 5, 65, 64
7, 96940, Note_off_c, 5, 60, 67
7, 96966, Note_on_c, 5, 65, 66
7, 96968, Note_on_c, 5, 60, 67
7, 97008, Note_off_c, 5, 60, 67
7, 97010, Note_off_c, 5, 65, 66
7, 98110, Note_on_c, 5, 60, 51
7, 98110, Note_on_c, 5, 72, 64
7, 98190, Note_off_c, 5, 72, 64
7, 98210, Note_off_c, 5, 60, 51
7, 98300, Note_on_c, 5, 69, 91
7, 98306, Note_on_c, 5, 74, 91
7, 98306, Note_on_c, 5, 72, 91
7, 98308, Note_on_c, 5, 77, 91
7, 98354, Note_off_c, 5, 72, 91
7, 98356, Note_off_c, 5, 69, 91
7, 98360, Note_off_c, 5, 77, 91
7, 98366, Note_off_c, 5, 74, 91
7, 98392, Note_on_c, 5, 69, 73
7, 98394, Note_on_c, 5, 72, 91
7, 98398, Note_on_c, 5, 74, 82
7, 98402, Note_on_c, 5, 77, 73
7, 98452, Note_off_c, 5, 72, 91
7, 98458, Note_off_c, 5, 69, 73
7, 98462, Note_off_c, 5, 74, 82
7, 98466, Note_off_c, 5, 77, 73
7, 98492, Note_on_c, 5, 77, 81
7, 98492, Note_on_c, 5, 69, 56
7, 98492, Note_on_c, 5, 72, 84
7, 98496, Note_on_c, 5, 74, 60
7, 98540, Note_off_c, 5, 72, 84
7, 98544, Note_off_c, 5, 69, 56
7, 98548, Note_off_c, 5, 74, 60
7, 98550, Note_off_c, 5, 77, 81
7, 98580, Note_on_c, 5, 69, 82
7, 98582, Note_on_c, 5, 72, 107
7, 98588, Note_on_c, 5, 77, 100
7, 98588, Note_on_c, 5, 74, 109
7, 98628, Note_off_c, 5, 69, 82
7, 98630, Note_off_c, 5, 74, 109
7, 98632, Note_off_c, 5, 77, 100
7, 98632, Note_off_c, 5, 72, 107
7, 99846, Note_on_c, 5, 65, 82
7, 99846, Note_on_c, 5, 69, 64
7, 100192, Note_off_c, 5, 65, 82
7, 100212, Note_off_c, 5, 69, 64
7, 100418, Note_on_c, 5, 60, 64
7, 100422, Note_on_c, 5, 65, 73
7, 101218, Note_off_c, 5, 65, 73
7, 101224, Note_off_c, 5, 60, 64
7, 101368, Note_on_c, 5, 65, 82
7, 101370, Note_on_c, 5, 69, 73
7, 101652, Note_on_c, 5, 64, 73
7, 101652, Note_on_c, 5, 67, 60
7, 101654, Note_off_c, 5, 65, 82
7, 101656, Note_off_c, 5, 69, 73
7, 101702, Note_off_c, 5, 67, 60
7, 101712, Note_off_c, 5, 64, 73
7, 101936, Note_on_c, 5, 72, 74
7, 101938, Note_on_c, 5, 69, 70
7, 101948, Note_on_c, 5, 65, 79
7, 102698, Note_off_c, 5, 69, 70
7, 102746, Note_off_c, 5, 72, 74
7, 102790, Note_off_c, 5, 65, 79
7, 102904, Note_on_c, 5, 65, 64
7, 102910, Note_on_c, 5, 60, 67
7, 103078, Note_off_c, 5, 65, 64
7, 103084, Note_off_c, 5, 60, 67
7, 103110, Note_on_c, 5, 65, 66
7, 103112, Note_on_c, 5, 60, 67
7, 103152, Note_off_c, 5, 60, 67
7, 103154, Note_off_c, 5, 65, 66
7, 104254, Note_on_c, 5, 60, 51
7, 104254, Note_on_c, 5, 72, 64
7, 104334, Note_off_c, 5, 72, 64
7, 104354, Note_off_c, 5, 60, 51
7, 104444, Note_on_c, 5, 74, 91
7, 104450, Note_on_c, 5, 72, 91
7, 104450, Note_on_c, 5, 77, 91
7, 104452, Note_on_c, 5, 69, 91
7, 104498, Note_off_c, 5, 77, 91
7, 104500, Note_off_c, 5, 74, 91
7, 104504, Note_off_c, 5, 69, 91
7, 104510, Note_off_c, 5, 72, 91
7, 104536, Note_on_c, 5, 74, 73
7, 104538, Note_on_c, 5, 77, 91
7, 104542, Note_on_c, 5, 72, 82
7, 104546, Note_on_c, 5, 69, 73
7, 104596, Note_off_c, 5, 77, 91
7, 104602, Note_off_c, 5, 74, 73
7, 104606, Note_off_c, 5, 72, 82
7, 104610, Note_off_c, 5, 69, 73
7, 104636, Note_on_c, 5, 69, 64
7, 104636, Note_on_c, 5, 74, 56
7, 104636, Note_on_c, 5, 77, 84
7, 104640, Note_on_c, 5, 72, 60
7, 104684, Note_off_c, 5, 77, 84
7, 104688, Note_off_c, 5, 74, 56
7, 104692, Note_off_c, 5, 72, 60
7, 104694, Note_off_c, 5, 69, 64
7, 104724, Note_on_c, 5, 74, 82
7, 104726, Note_on_c, 5, 77, 107
7, 104732, Note_on_c, 5, 69, 100
7, 104732, Note_on_c, 5, 72, 109
7, 104772, Note_off_c, 5, 69, 100
7, 104772, Note_off_c, 5, 74, 82
7, 104774, Note_off_c, 5, 72, 109
7, 104776, Note_off_c, 5, 77, 107
7, 105964, Note_on_c, 5, 62, 53
7, 105974, Note_on_c, 5, 65, 47
7, 109008, Note_off_c, 5, 65, 47
7, 109042, Note_off_c, 5, 62, 53
7, 109046, Note_on_c, 5, 60, 52
7, 109046, Note_on_c, 5, 64, 52
7, 110448, Note_off_c, 5, 64, 52
7, 110460, Note_off_c, 5, 60, 52
7, 110590, Note_on_c, 5, 62, 52
7, 110594, Note_on_c, 5, 65, 52
7, 111960, Note_off_c, 5, 62, 52
7, 111972, Note_off_c, 5, 65, 52
7, 112138, Note_on_c, 5, 65, 53
7, 112142, Note_on_c, 5, 62, 55
7, 115060, Note_off_c, 5, 65, 53
7, 115084, Note_off_c, 5, 62, 55
7, 115198, Note_on_c, 5, 64, 55
7, 115198, Note_on_c, 5, 60, 56
7, 116602, Note_off_c, 5, 64, 55
7, 116622, Note_off_c, 5, 60, 56
7, 116746, Note_on_c, 5, 65, 56
7, 116748, Note_on_c, 5, 62, 56
7, 118124, Note_off_c, 5, 65, 56
7, 118130, Note_off_c, 5, 62, 56
7, 118280, Note_on_c, 5, 62, 55
7, 118286, Note_on_c, 5, 65, 50
7, 119144, Note_off_c, 5, 62, 55
7, 119204, Note_on_c, 5, 62, 64
7, 119402, Note_on_c, 5, 64, 73
7, 119406, Note_off_c, 5, 62, 64
7, 119524, Note_off_c, 5, 65, 50
7, 119594, Note_off_c, 5, 64, 73
7, 119604, Note_on_c, 5, 65, 82
7, 119614, Note_on_c, 5, 57, 52
7, 120976, Note_off_c, 5, 65, 82
7, 121288, Note_off_c, 5, 57, 52
7, 121348, Note_on_c, 5, 65, 64
7, 121348, Note_on_c, 5, 58, 48
7, 121348, Note_on_c, 5, 62, 73
7, 121578, Note_off_c, 5, 65, 64
7, 121580, Note_off_c, 5, 62, 73
7, 121586, Note_off_c, 5, 58, 48
7, 121642, Note_on_c, 5, 58, 52
7, 121646, Note_on_c, 5, 65, 64
7, 121646, Note_on_c, 5, 62, 52
7, 121672, Note_off_c, 5, 62, 52
7, 121688, Note_off_c, 5, 58, 52
7, 121696, Note_off_c, 5, 65, 64
7, 121918, Note_on_c, 5, 65, 64
7, 121918, Note_on_c, 5, 58, 48
7, 121922, Note_on_c, 5, 62, 73
7, 122688, Note_off_c, 5, 58, 48
7, 122688, Note_off_c, 5, 65, 64
7, 122690, Note_off_c, 5, 62, 73
7, 122884, Note_on_c, 5, 58, 48
7, 122886, Note_on_c, 5, 62, 73
7, 122888, Note_on_c, 5, 65, 73
7, 123132, Note_off_c, 5, 62, 73
7, 123134, Note_off_c, 5, 65, 73
7, 123134, Note_off_c, 5, 58, 48
7, 123178, Note_on_c, 5, 58, 48
7, 123178, Note_on_c, 5, 62, 64
7, 123180, Note_on_c, 5, 65, 73
7, 123198, Note_off_c, 5, 65, 73
7, 123204, Note_off_c, 5, 62, 64
7, 123204, Note_off_c, 5, 58, 48
7, 123454, Note_on_c, 5, 58, 48
7, 123454, Note_on_c, 5, 65, 64
7, 123454, Note_on_c, 5, 62, 64
7, 124204, Note_off_c, 5, 62, 64
7, 124204, Note_off_c, 5, 65, 64
7, 124210, Note_off_c, 5, 58, 48
7, 124410, Note_on_c, 5, 58, 56
7, 124410, Note_on_c, 5, 65, 60
7, 124412, Note_on_c, 5, 62, 73
7, 124420, Note_on_c, 5, 69, 60
7, 124664, Note_off_c, 5, 69, 60
7, 124668, Note_off_c, 5, 62, 73
7, 124676, Note_off_c, 5, 58, 56
7, 124678, Note_off_c, 5, 65, 60
7, 124706, Note_on_c, 5, 62, 60
7, 124708, Note_on_c, 5, 69, 44
7, 124708, Note_on_c, 5, 65, 40
7, 124708, Note_on_c, 5, 58, 40
7, 124730, Note_off_c, 5, 69, 44
7, 124740, Note_off_c, 5, 65, 40
7, 124750, Note_off_c, 5, 58, 40
7, 124752, Note_off_c, 5, 62, 60
7, 124986, Note_on_c, 5, 58, 52
7, 124990, Note_on_c, 5, 65, 64
7, 124992, Note_on_c, 5, 69, 60
7, 124994, Note_on_c, 5, 62, 73
7, 125768, Note_off_c, 5, 69, 60
7, 125790, Note_off_c, 5, 62, 73
7, 125790, Note_off_c, 5, 65, 64
7, 125794, Note_off_c, 5, 58, 52
7, 125950, Note_on_c, 5, 58, 44
7, 125954, Note_on_c, 5, 69, 56
7, 125954, Note_on_c, 5, 62, 73
7, 125954, Note_on_c, 5, 65, 64
7, 126162, Note_off_c, 5, 69, 56
7, 126210, Note_off_c, 5, 62, 73
7, 126214, Note_off_c, 5, 65, 64
7, 126216, Note_off_c, 5, 58, 44
7, 126242, Note_on_c, 5, 62, 56
7, 126248, Note_on_c, 5, 69, 60
7, 126248, Note_on_c, 5, 65, 44
7, 126248, Note_on_c, 5, 58, 52
7, 126274, Note_off_c, 5, 69, 60
7, 126286, Note_off_c, 5, 65, 44
7, 126288, Note_off_c, 5, 58, 52
7, 126290, Note_off_c, 5, 62, 56
7, 126522, Note_on_c, 5, 65, 56
7, 126522, Note_on_c, 5, 58, 44
7, 126522, Note_on_c, 5, 62, 73
7, 126522, Note_on_c, 5, 69, 52
7, 127150, Note_off_c, 5, 69, 52
7, 127150, Note_off_c, 5, 58, 44
7, 127150, Note_off_c, 5, 65, 56
7, 127154, Note_off_c, 5, 62, 73
7, 127492, Note_on_c, 5, 65, 63
7, 127498, Note_on_c, 5, 69, 54
7, 127768, Note_off_c, 5, 69, 54
7, 127768, Note_off_c, 5, 65, 63
7, 127782, Note_on_c, 5, 67, 46
7, 127786, Note_on_c, 5, 64, 54
7, 127822, Note_off_c, 5, 67, 46
7, 127826, Note_off_c, 5, 64, 54
7, 128052, Note_on_c, 5, 65, 54
7, 128054, Note_on_c, 5, 62, 46
7, 128844, Note_off_c, 5, 62, 46
7, 128844, Note_off_c, 5, 65, 54
7, 129016, Note_on_c, 5, 65, 82
7, 129018, Note_on_c, 5, 69, 73
7, 129300, Note_on_c, 5, 64, 73
7, 129300, Note_on_c, 5, 67, 60
7, 129302, Note_off_c, 5, 65, 82
7, 129304, Note_off_c, 5, 69, 73
7, 129350, Note_off_c, 5, 67, 60
7, 129360, Note_off_c, 5, 64, 73
7, 129586, Note_on_c, 5, 62, 70
7, 129596, Note_on_c, 5, 65, 79
7, 129986, Note_off_c, 5, 62, 70
7, 129996, Note_off_c, 5, 65, 79
7, 130552, Note_on_c, 5, 65, 64
7, 130558, Note_on_c, 5, 60, 67
7, 130726, Note_off_c, 5, 65, 64
7, 130732, Note_off_c, 5, 60, 67
7, 130758, Note_on_c, 5, 65, 66
7, 130760, Note_on_c, 5, 60, 67
7, 130800, Note_off_c, 5, 60, 67
7, 130802, Note_off_c, 5, 65, 66
7, 131902, Note_on_c, 5, 60, 51
7, 131902, Note_on_c, 5, 72, 64
7, 131982, Note_off_c, 5, 72, 64
7, 132002, Note_off_c, 5, 60, 51
7, 132092, Note_on_c, 5, 74, 91
7, 132098, Note_on_c, 5, 72, 91
7, 132098, Note_on_c, 5, 77, 91
7, 132100, Note_on_c, 5, 69, 91
7, 132146, Note_off_c, 5, 77, 91
7, 132148, Note_off_c, 5, 74, 91
7, 132152, Note_off_c, 5, 69, 91
7, 132158, Note_off_c, 5, 72, 91
7, 132184, Note_on_c, 5, 74, 73
7, 132186, Note_on_c, 5, 77, 91
7, 132190, Note_on_c, 5, 72, 82
7, 132194, Note_on_c, 5, 69, 73
7, 132244, Note_off_c, 5, 77, 91
7, 132250, Note_off_c, 5, 74, 73
7, 132254, Note_off_c, 5, 72, 82
7, 132258, Note_off_c, 5, 69, 73
7, 132284, Note_on_c, 5, 69, 64
7, 132284, Note_on_c, 5, 74, 56
7, 132284, Note_on_c, 5, 77, 84
7, 132288, Note_on_c, 5, 72, 60
7, 132332, Note_off_c, 5, 77, 84
7, 132336, Note_off_c, 5, 74, 56
7, 132340, Note_off_c, 5, 72, 60
7, 132342, Note_off_c, 5, 69, 64
7, 132372, Note_on_c, 5, 74, 82
7, 132374, Note_on_c, 5, 77, 107
7, 132380, Note_on_c, 5, 69, 100
7, 132380, Note_on_c, 5, 72, 109
7, 132420, Note_off_c, 5, 69, 100
7, 132420, Note_off_c, 5, 74, 82
7, 132422, Note_off_c, 5, 72, 109
7, 132424, Note_off_c, 5, 77, 107
7, 145920, Note_on_c, 5, 58, 42
7, 145920, Note_on_c, 5, 62, 63
7, 145922, Note_on_c, 5, 65, 54
7, 146154, Note_off_c, 5, 58, 42
7, 146158, Note_off_c, 5, 65, 54
7, 146164, Note_off_c, 5, 62, 63
7, 146214, Note_on_c, 5, 58, 42
7, 146214, Note_on_c, 5, 62, 54
7, 146216, Note_on_c, 5, 65, 63
7, 146238, Note_off_c, 5, 65, 63
7, 146246, Note_off_c, 5, 62, 54
7, 146250, Note_off_c, 5, 58, 42
7, 146492, Note_on_c, 5, 58, 38
7, 146494, Note_on_c, 5, 65, 54
7, 146496, Note_on_c, 5, 62, 54
7, 146952, Note_off_c, 5, 65, 54
7, 146954, Note_off_c, 5, 62, 54
7, 146954, Note_off_c, 5, 58, 38
7, 147060, Note_on_c, 5, 62, 73
7, 147060, Note_on_c, 5, 65, 73
7, 147120, Note_off_c, 5, 62, 73
7, 147140, Note_off_c, 5, 65, 73
7, 147146, Note_on_c, 5, 64, 73
7, 147150, Note_on_c, 5, 67, 73
7, 147196, Note_off_c, 5, 64, 73
7, 147214, Note_off_c, 5, 67, 73
7, 147232, Note_on_c, 5, 69, 73
7, 147236, Note_on_c, 5, 65, 73
7, 147272, Note_off_c, 5, 65, 73
7, 147272, Note_off_c, 5, 69, 73
7, 147448, Note_on_c, 5, 58, 42
7, 147448, Note_on_c, 5, 62, 63
7, 147450, Note_on_c, 5, 65, 54
7, 147682, Note_off_c, 5, 58, 42
7, 147686, Note_off_c, 5, 65, 54
7, 147692, Note_off_c, 5, 62, 63
7, 147742, Note_on_c, 5, 58, 42
7, 147742, Note_on_c, 5, 62, 54
7, 147744, Note_on_c, 5, 65, 63
7, 147766, Note_off_c, 5, 65, 63
7, 147774, Note_off_c, 5, 62, 54
7, 147778, Note_off_c, 5, 58, 42
7, 148020, Note_on_c, 5, 58, 38
7, 148022, Note_on_c, 5, 65, 54
7, 148024, Note_on_c, 5, 62, 54
7, 148480, Note_off_c, 5, 65, 54
7, 148482, Note_off_c, 5, 62, 54
7, 148482, Note_off_c, 5, 58, 38
7, 148604, Note_on_c, 5, 62, 73
7, 148604, Note_on_c, 5, 65, 73
7, 148664, Note_off_c, 5, 62, 73
7, 148684, Note_off_c, 5, 65, 73
7, 148690, Note_on_c, 5, 64, 73
7, 148694, Note_on_c, 5, 67, 73
7, 148740, Note_off_c, 5, 64, 73
7, 148758, Note_off_c, 5, 67, 73
7, 148776, Note_on_c, 5, 69, 73
7, 148780, Note_on_c, 5, 65, 73
7, 148816, Note_off_c, 5, 65, 73
7, 148816, Note_off_c, 5, 69, 73
7, 148976, Note_on_c, 5, 58, 42
7, 148976, Note_on_c, 5, 62, 63
7, 148978, Note_on_c, 5, 65, 54
7, 149210, Note_off_c, 5, 58, 42
7, 149214, Note_off_c, 5, 65, 54
7, 149220, Note_off_c, 5, 62, 63
7, 149270, Note_on_c, 5, 58, 42
7, 149270, Note_on_c, 5, 62, 54
7, 149272, Note_on_c, 5, 65, 63
7, 149294, Note_off_c, 5, 65, 63
7, 149302, Note_off_c, 5, 62, 54
7, 149306, Note_off_c, 5, 58, 42
7, 149548, Note_on_c, 5, 58, 38
7, 149550, Note_on_c, 5, 65, 54
7, 149552, Note_on_c, 5, 62, 54
7, 150008, Note_off_c, 5, 65, 54
7, 150010, Note_off_c, 5, 62, 54
7, 150010, Note_off_c, 5, 58, 38
7, 150128, Note_on_c, 5, 62, 73
7, 150128, Note_on_c, 5, 65, 73
7, 150188, Note_off_c, 5, 62, 73
7, 150208, Note_off_c, 5, 65, 73
7, 150214, Note_on_c, 5, 64, 73
7, 150218, Note_on_c, 5, 67, 73
7, 150264, Note_off_c, 5, 64, 73
7, 150282, Note_off_c, 5, 67, 73
7, 150300, Note_on_c, 5, 69, 73
7, 150304, Note_on_c, 5, 65, 73
7, 150340, Note_off_c, 5, 65, 73
7, 150340, Note_off_c, 5, 69, 73
7, 150520, Note_on_c, 5, 58, 42
7, 150520, Note_on_c, 5, 62, 63
7, 150522, Note_on_c, 5, 65, 54
7, 150754, Note_off_c, 5, 58, 42
7, 150758, Note_off_c, 5, 65, 54
7, 150764, Note_off_c, 5, 62, 63
7, 150814, Note_on_c, 5, 58, 42
7, 150814, Note_on_c, 5, 62, 54
7, 150816, Note_on_c, 5, 65, 63
7, 150838, Note_off_c, 5, 65, 63
7, 150846, Note_off_c, 5, 62, 54
7, 150850, Note_off_c, 5, 58, 42
7, 151092, Note_on_c, 5, 58, 38
7, 151094, Note_on_c, 5, 65, 54
7, 151096, Note_on_c, 5, 62, 54
7, 151552, Note_off_c, 5, 65, 54
7, 151554, Note_off_c, 5, 62, 54
7, 151554, Note_off_c, 5, 58, 38
7, 151676, Note_on_c, 5, 62, 73
7, 151676, Note_on_c, 5, 65, 73
7, 151736, Note_off_c, 5, 62, 73
7, 151756, Note_off_c, 5, 65, 73
7, 151762, Note_on_c, 5, 64, 73
7, 151766, Note_on_c, 5, 67, 73
7, 151812, Note_off_c, 5, 64, 73
7, 151830, Note_off_c, 5, 67, 73
7, 151848, Note_on_c, 5, 69, 73
7, 151852, Note_on_c, 5, 65, 73
7, 151888, Note_off_c, 5, 65, 73
7, 151888, Note_off_c, 5, 69, 73
7, 152056, Note_on_c, 5, 58, 42
7, 152056, Note_on_c, 5, 62, 63
7, 152058, Note_on_c, 5, 65, 54
7, 152290, Note_off_c, 5, 58, 42
7, 152294, Note_off_c, 5, 65, 54
7, 152300, Note_off_c, 5, 62, 63
7, 152350, Note_on_c, 5, 58, 42
7, 152350, Note_on_c, 5, 62, 54
7, 152352, Note_on_c, 5, 65, 63
7, 152374, Note_off_c, 5, 65, 63
7, 152382, Note_off_c, 5, 62, 54
7, 152386, Note_off_c, 5, 58, 42
7, 152628, Note_on_c, 5, 58, 38
7, 152630, Note_on_c, 5, 65, 54
7, 152632, Note_on_c, 5, 62, 54
7, 153088, Note_off_c, 5, 65, 54
7, 153090, Note_off_c, 5, 62, 54
7, 153090, Note_off_c, 5, 58, 38
7, 153208, Note_on_c, 5, 62, 73
7, 153208, Note_on_c, 5, 65, 73
7, 153268, Note_off_c, 5, 62, 73
7, 153288, Note_off_c, 5, 65, 73
7, 153294, Note_on_c, 5, 64, 73
7, 153298, Note_on_c, 5, 67, 73
7, 153344, Note_off_c, 5, 64, 73
7, 153362, Note_off_c, 5, 67, 73
7, 153380, Note_on_c, 5, 69, 73
7, 153384, Note_on_c, 5, 65, 73
7, 153420, Note_off_c, 5, 65, 73
7, 153420, Note_off_c, 5, 69, 73
7, 153592, Note_on_c, 5, 58, 42
7, 153592, Note_on_c, 5, 62, 63
7, 153594, Note_on_c, 5, 65, 54
7, 153826, Note_off_c, 5, 58, 42
7, 153830, Note_off_c, 5, 65, 54
7, 153836, Note_off_c, 5, 62, 63
7, 153886, Note_on_c, 5, 58, 42
7, 153886, Note_on_c, 5, 62, 54
7, 153888, Note_on_c, 5, 65, 63
7, 153910, Note_off_c, 5, 65, 63
7, 153918, Note_off_c, 5, 62, 54
7, 153922, Note_off_c, 5, 58, 42
7, 154164, Note_on_c, 5, 58, 38
7, 154166, Note_on_c, 5, 65, 54
7, 154168, Note_on_c, 5, 62, 54
7, 154548, Note_on_c, 5, 74, 69
7, 154624, Note_off_c, 5, 65, 54
7, 154626, Note_off_c, 5, 62, 54
7, 154626, Note_off_c, 5, 58, 38
7, 154700, Note_on_c, 5, 75, 65
7, 154732, Note_off_c, 5, 74, 69
7, 154742, Note_on_c, 5, 76, 78
7, 154776, Note_off_c, 5, 75, 65
7, 154926, Note_on_c, 5, 72, 69
7, 154934, Note_off_c, 5, 76, 78
7, 155126, Note_off_c, 5, 72, 69
7, 155128, Note_on_c, 5, 58, 42
7, 155128, Note_on_c, 5, 62, 63
7, 155130, Note_on_c, 5, 65, 54
7, 155362, Note_off_c, 5, 58, 42
7, 155366, Note_off_c, 5, 65, 54
7, 155372, Note_off_c, 5, 62, 63
7, 155422, Note_on_c, 5, 58, 42
7, 155422, Note_on_c, 5, 62, 54
7, 155424, Note_on_c, 5, 65, 63
7, 155446, Note_off_c, 5, 65, 63
7, 155454, Note_off_c, 5, 62, 54
7, 155458, Note_off_c, 5, 58, 42
7, 155700, Note_on_c, 5, 58, 38
7, 155702, Note_on_c, 5, 65, 54
7, 155704, Note_on_c, 5, 62, 54
7, 156160, Note_off_c, 5, 65, 54
7, 156162, Note_off_c, 5, 62, 54
7, 156162, Note_off_c, 5, 58, 38
7, 156280, Note_on_c, 5, 62, 73
7, 156280, Note_on_c, 5, 65, 73
7, 156340, Note_off_c, 5, 62, 73
7, 156360, Note_off_c, 5, 65, 73
7, 156366, Note_on_c, 5, 64, 73
7, 156370, Note_on_c, 5, 67, 73
7, 156416, Note_off_c, 5, 64, 73
7, 156434, Note_off_c, 5, 67, 73
7, 156452, Note_on_c, 5, 69, 73
7, 156456, Note_on_c, 5, 65, 73
7, 156492, Note_off_c, 5, 65, 73
7, 156492, Note_off_c, 5, 69, 73
7, 156664, Note_on_c, 5, 58, 42
7, 156664, Note_on_c, 5, 62, 63
7, 156666, Note_on_c, 5, 65, 54
7, 156898, Note_off_c, 5, 58, 42
7, 156902, Note_off_c, 5, 65, 54
7, 156908, Note_off_c, 5, 62, 63
7, 156958, Note_on_c, 5, 58, 42
7, 156958, Note_on_c, 5, 62, 54
7, 156960, Note_on_c, 5, 65, 63
7, 156982, Note_off_c, 5, 65, 63
7, 156990, Note_off_c, 5, 62, 54
7, 156994, Note_off_c, 5, 58, 42
7, 157236, Note_on_c, 5, 62, 73
7, 157240, Note_on_c, 5, 58, 36
7, 157410, Note_off_c, 5, 58, 36
7, 157414, Note_off_c, 5, 62, 73
7, 157436, Note_on_c, 5, 58, 48
7, 157446, Note_on_c, 5, 62, 73
7, 157608, Note_off_c, 5, 62, 73
7, 157618, Note_off_c, 5, 58, 48
7, 157624, Note_on_c, 5, 60, 82
7, 157624, Note_on_c, 5, 64, 82
7, 157784, Note_off_c, 5, 64, 82
7, 157810, Note_on_c, 5, 65, 73
7, 157812, Note_on_c, 5, 62, 64
7, 157816, Note_off_c, 5, 60, 82
7, 157992, Note_off_c, 5, 65, 73
7, 158000, Note_on_c, 5, 64, 73
7, 158002, Note_on_c, 5, 67, 91
7, 158004, Note_off_c, 5, 62, 64
7, 158174, Note_off_c, 5, 64, 73
7, 158192, Note_off_c, 5, 67, 91
7, 159736, Note_on_c, 5, 65, 82
7, 159738, Note_on_c, 5, 69, 73
7, 160020, Note_on_c, 5, 64, 73
7, 160020, Note_on_c, 5, 67, 60
7, 160022, Note_off_c, 5, 65, 82
7, 160024, Note_off_c, 5, 69, 73
7, 160070, Note_off_c, 5, 67, 60
7, 160080, Note_off_c, 5, 64, 73
7, 160306, Note_on_c, 5, 62, 70
7, 160316, Note_on_c, 5, 65, 79
7, 160706, Note_off_c, 5, 62, 70
7, 160716, Note_off_c, 5, 65, 79
7, 161272, Note_on_c, 5, 65, 64
7, 161278, Note_on_c, 5, 60, 67
7, 161446, Note_off_c, 5, 65, 64
7, 161452, Note_off_c, 5, 60, 67
7, 161478, Note_on_c, 5, 65, 66
7, 161480, Note_on_c, 5, 60, 67
7, 161520, Note_off_c, 5, 60, 67
7, 161522, Note_off_c, 5, 65, 66
7, 162622, Note_on_c, 5, 60, 51
7, 162622, Note_on_c, 5, 72, 64
7, 162702, Note_off_c, 5, 72, 64
7, 162722, Note_off_c, 5, 60, 51
7, 162812, Note_on_c, 5, 69, 91
7, 162818, Note_on_c, 5, 65, 91
7, 162818, Note_on_c, 5, 72, 91
7, 162820, Note_on_c, 5, 62, 91
7, 162866, Note_off_c, 5, 72, 91
7, 162868, Note_off_c, 5, 69, 91
7, 162872, Note_off_c, 5, 62, 91
7, 162878, Note_off_c, 5, 65, 91
7, 162904, Note_on_c, 5, 69, 73
7, 162906, Note_on_c, 5, 72, 91
7, 162910, Note_on_c, 5, 65, 82
7, 162914, Note_on_c, 5, 62, 73
7, 162964, Note_off_c, 5, 72, 91
7, 162970, Note_off_c, 5, 69, 73
7, 162974, Note_off_c, 5, 65, 82
7, 162978, Note_off_c, 5, 62, 73
7, 163004, Note_on_c, 5, 62, 64
7, 163004, Note_on_c, 5, 69, 56
7, 163004, Note_on_c, 5, 72, 84
7, 163008, Note_on_c, 5, 65, 60
7, 163052, Note_off_c, 5, 72, 84
7, 163056, Note_off_c, 5, 69, 56
7, 163060, Note_off_c, 5, 65, 60
7, 163062, Note_off_c, 5, 62, 64
7, 163092, Note_on_c, 5, 69, 82
7, 163094, Note_on_c, 5, 72, 107
7, 163100, Note_on_c, 5, 62, 100
7, 163100, Note_on_c, 5, 65, 109
7, 163140, Note_off_c, 5, 62, 100
7, 163140, Note_off_c, 5, 69, 82
7, 163142, Note_off_c, 5, 65, 109
7, 163144, Note_off_c, 5, 72, 107
7, 165880, Note_on_c, 5, 65, 82
7, 165882, Note_on_c, 5, 69, 73
7, 166164, Note_on_c, 5, 64, 73
7, 166164, Note_on_c, 5, 67, 60
7, 166166, Note_off_c, 5, 65, 82
7, 166168, Note_off_c, 5, 69, 73
7, 166214, Note_off_c, 5, 67, 60
7, 166224, Note_off_c, 5, 64, 73
7, 166448, Note_on_c, 5, 72, 74
7, 166450, Note_on_c, 5, 69, 70
7, 166460, Note_on_c, 5, 65, 79
7, 167210, Note_off_c, 5, 69, 70
7, 167258, Note_off_c, 5, 72, 74
7, 167302, Note_off_c, 5, 65, 79
7, 167416, Note_on_c, 5, 65, 64
7, 167422, Note_on_c, 5, 60, 67
7, 167590, Note_off_c, 5, 65, 64
7, 167596, Note_off_c, 5, 60, 67
7, 167622, Note_on_c, 5, 65, 66
7, 167624, Note_on_c, 5, 60, 67
7, 167664, Note_off_c, 5, 60, 67
7, 167666, Note_off_c, 5, 65, 66
7, 168766, Note_on_c, 5, 60, 51
7, 168766, Note_on_c, 5, 72, 64
7, 168846, Note_off_c, 5, 72, 64
7, 168866, Note_off_c, 5, 60, 51
7, 168956, Note_on_c, 5, 69, 91
7, 168962, Note_on_c, 5, 65, 91
7, 168962, Note_on_c, 5, 72, 91
7, 168964, Note_on_c, 5, 62, 91
7, 169010, Note_off_c, 5, 72, 91
7, 169012, Note_off_c, 5, 69, 91
7, 169016, Note_off_c, 5, 62, 91
7, 169022, Note_off_c, 5, 65, 91
7, 169048, Note_on_c, 5, 69, 73
7, 169050, Note_on_c, 5, 72, 91
7, 169054, Note_on_c, 5, 65, 82
7, 169058, Note_on_c, 5, 62, 73
7, 169108, Note_off_c, 5, 72, 91
7, 169114, Note_off_c, 5, 69, 73
7, 169118, Note_off_c, 5, 65, 82
7, 169122, Note_off_c, 5, 62, 73
7, 169148, Note_on_c, 5, 62, 64
7, 169148, Note_on_c, 5, 69, 56
7, 169148, Note_on_c, 5, 72, 84
7, 169152, Note_on_c, 5, 65, 60
7, 169196, Note_off_c, 5, 72, 84
7, 169200, Note_off_c, 5, 69, 56
7, 169204, Note_off_c, 5, 65, 60
7, 169206, Note_off_c, 5, 62, 64
7, 169236, Note_on_c, 5, 69, 82
7, 169238, Note_on_c, 5, 72, 107
7, 169244, Note_on_c, 5, 62, 100
7, 169244, Note_on_c, 5, 65, 109
7, 169284, Note_off_c, 5, 62, 100
7, 169284, Note_off_c, 5, 69, 82
7, 169286, Note_off_c, 5, 65, 109
7, 169288, Note_off_c, 5, 72, 107
7, 172024, Note_on_c, 5, 65, 82
7, 172026, Note_on_c, 5, 69, 73
7, 172308, Note_on_c, 5, 64, 73
7, 172308, Note_on_c, 5, 67, 60
7, 172310, Note_off_c, 5, 65, 82
7, 172312, Note_off_c, 5, 69, 73
7, 172358, Note_off_c, 5, 67, 60
7, 172368, Note_off_c, 5, 64, 73
7, 172594, Note_on_c, 5, 62, 70
7, 172604, Note_on_c, 5, 65, 79
7, 172994, Note_off_c, 5, 62, 70
7, 173004, Note_off_c, 5, 65, 79
7, 173560, Note_on_c, 5, 65, 64
7, 173566, Note_on_c, 5, 60, 67
7, 173734, Note_off_c, 5, 65, 64
7, 173740, Note_off_c, 5, 60, 67
7, 173766, Note_on_c, 5, 65, 66
7, 173768, Note_on_c, 5, 60, 67
7, 173808, Note_off_c, 5, 60, 67
7, 173810, Note_off_c, 5, 65, 66
7, 174910, Note_on_c, 5, 60, 51
7, 174910, Note_on_c, 5, 72, 64
7, 174990, Note_off_c, 5, 72, 64
7, 175010, Note_off_c, 5, 60, 51
7, 175100, Note_on_c, 5, 69, 91
7, 175106, Note_on_c, 5, 74, 91
7, 175106, Note_on_c, 5, 72, 91
7, 175108, Note_on_c, 5, 77, 91
7, 175154, Note_off_c, 5, 72, 91
7, 175156, Note_off_c, 5, 69, 91
7, 175160, Note_off_c, 5, 77, 91
7, 175166, Note_off_c, 5, 74, 91
7, 175192, Note_on_c, 5, 69, 73
7, 175194, Note_on_c, 5, 72, 91
7, 175198, Note_on_c, 5, 74, 82
7, 175202, Note_on_c, 5, 77, 73
7, 175252, Note_off_c, 5, 72, 91
7, 175258, Note_off_c, 5, 69, 73
7, 175262, Note_off_c, 5, 74, 82
7, 175266, Note_off_c, 5, 77, 73
7, 175292, Note_on_c, 5, 77, 81
7, 175292, Note_on_c, 5, 69, 56
7, 175292, Note_on_c, 5, 72, 84
7, 175296, Note_on_c, 5, 74, 60
7, 175340, Note_off_c, 5, 72, 84
7, 175344, Note_off_c, 5, 69, 56
7, 175348, Note_off_c, 5, 74, 60
7, 175350, Note_off_c, 5, 77, 81
7, 175380, Note_on_c, 5, 69, 82
7, 175382, Note_on_c, 5, 72, 107
7, 175388, Note_on_c, 5, 77, 100
7, 175388, Note_on_c, 5, 74, 109
7, 175428, Note_off_c, 5, 69, 82
7, 175430, Note_off_c, 5, 74, 109
7, 175432, Note_off_c, 5, 77, 100
7, 175432, Note_off_c, 5, 72, 107
7, 176646, Note_on_c, 5, 65, 82
7, 176646, Note_on_c, 5, 69, 64
7, 176992, Note_off_c, 5, 65, 82
7, 177012, Note_off_c, 5, 69, 64
7, 177218, Note_on_c, 5, 60, 64
7, 177222, Note_on_c, 5, 65, 73
7, 178018, Note_off_c, 5, 65, 73
7, 178024, Note_off_c, 5, 60, 64
7, 178168, Note_on_c, 5, 65, 82
7, 178170, Note_on_c, 5, 69, 73
7, 178452, Note_on_c, 5, 64, 73
7, 178452, Note_on_c, 5, 67, 60
7, 178454, Note_off_c, 5, 65, 82
7, 178456, Note_off_c, 5, 69, 73
7, 178502, Note_off_c, 5, 67, 60
7, 178512, Note_off_c, 5, 64, 73
7, 178736, Note_on_c, 5, 72, 74
7, 178738, Note_on_c, 5, 69, 70
7, 178748, Note_on_c, 5, 65, 79
7, 179498, Note_off_c, 5, 69, 70
7, 179546, Note_off_c, 5, 72, 74
7, 179590, Note_off_c, 5, 65, 79
7, 179704, Note_on_c, 5, 65, 64
7, 179710, Note_on_c, 5, 60, 67
7, 179878, Note_off_c, 5, 65, 64
7, 179884, Note_off_c, 5, 60, 67
7, 179910, Note_on_c, 5, 65, 66
7, 179912, Note_on_c, 5, 60, 67
7, 179952, Note_off_c, 5, 60, 67
7, 179954, Note_off_c, 5, 65, 66
7, 180026, Control_c, 5, 11, 126
7, 180194, Control_c, 5, 11, 125
7, 180322, Control_c, 5, 11, 124
7, 180468, Control_c, 5, 11, 123
7, 180690, Control_c, 5, 11, 122
7, 180826, Control_c, 5, 11, 121
7, 180972, Control_c, 5, 11, 120
7, 181054, Note_on_c, 5, 60, 51
7, 181054, Note_on_c, 5, 72, 64
7, 181080, Control_c, 5, 11, 119
7, 181134, Note_off_c, 5, 72, 64
7, 181154, Note_off_c, 5, 60, 51
7, 181200, Control_c, 5, 11, 118
7, 181244, Note_on_c, 5, 74, 91
7, 181250, Note_on_c, 5, 72, 91
7, 181250, Note_on_c, 5, 77, 91
7, 181252, Note_on_c, 5, 69, 91
7, 181298, Note_off_c, 5, 77, 91
7, 181300, Note_off_c, 5, 74, 91
7, 181304, Note_off_c, 5, 69, 91
7, 181310, Note_off_c, 5, 72, 91
7, 181322, Control_c, 5, 11, 117
7, 181336, Note_on_c, 5, 74, 73
7, 181338, Note_on_c, 5, 77, 91
7, 181342, Note_on_c, 5, 72, 82
7, 181346, Note_on_c, 5, 69, 73
7, 181396, Note_off_c, 5, 77, 91
7, 181402, Note_off_c, 5, 74, 73
7, 181406, Note_off_c, 5, 72, 82
7, 181410, Note_off_c, 5, 69, 73
7, 181422, Control_c, 5, 11, 116
7, 181436, Note_on_c, 5, 69, 64
7, 181436, Note_on_c, 5, 74, 56
7, 181436, Note_on_c, 5, 77, 84
7, 181440, Note_on_c, 5, 72, 60
7, 181484, Note_off_c, 5, 77, 84
7, 181488, Note_off_c, 5, 74, 56
7, 181492, Note_off_c, 5, 72, 60
7, 181494, Note_off_c, 5, 69, 64
7, 181524, Note_on_c, 5, 74, 82
7, 181526, Note_on_c, 5, 77, 107
7, 181532, Note_on_c, 5, 69, 100
7, 181532, Note_on_c, 5, 72, 109
7, 181554, Control_c, 5, 11, 115
7, 181572, Note_off_c, 5, 69, 100
7, 181572, Note_off_c, 5, 74, 82
7, 181574, Note_off_c, 5, 72, 109
7, 181576, Note_off_c, 5, 77, 107
7, 181668, Control_c, 5, 11, 114
7, 181748, Control_c, 5, 11, 113
7, 181846, Control_c, 5, 11, 112
7, 182000, Control_c, 5, 11, 111
7, 182138, Control_c, 5, 11, 110
7, 182238, Control_c, 5, 11, 109
7, 182358, Control_c, 5, 11, 108
7, 182572, Control_c, 5, 11, 107
7, 182720, Control_c, 5, 11, 106
7, 182834, Control_c, 5, 11, 105
7, 182920, Control_c, 5, 11, 104
7, 183038, Control_c, 5, 11, 103
7, 183122, Control_c, 5, 11, 102
7, 183218, Control_c, 5, 11, 101
7, 183362, Control_c, 5, 11, 100
7, 183516, Control_c, 5, 11, 99
7, 183746, Control_c, 5, 11, 98
7, 183962, Control_c, 5, 11, 97
7, 184154, Control_c, 5, 11, 96
7, 184312, Note_on_c, 5, 65, 82
7, 184314, Note_on_c, 5, 69, 73
7, 184364, Control_c, 5, 11, 95
7, 184462, Control_c, 5, 11, 94
7, 184578, Control_c, 5, 11, 93
7, 184596, Note_on_c, 5, 64, 73
7, 184596, Note_on_c, 5, 67, 60
7, 184598, Note_off_c, 5, 65, 82
7, 184600, Note_off_c, 5, 69, 73
7, 184646, Note_off_c, 5, 67, 60
7, 184656, Note_off_c, 5, 64, 73
7, 184730, Control_c, 5, 11, 92
7, 184856, Control_c, 5, 11, 91
7, 184882, Note_on_c, 5, 62, 70
7, 184892, Note_on_c, 5, 65, 79
7, 185034, Control_c, 5, 11, 90
7, 185160, Control_c, 5, 11, 89
7, 185252, Control_c, 5, 11, 88
7, 185282, Note_off_c, 5, 62, 70
7, 185292, Note_off_c, 5, 65, 79
7, 185374, Control_c, 5, 11, 87
7, 185506, Control_c, 5, 11, 86
7, 185594, Control_c, 5, 11, 85
7, 185712, Control_c, 5, 11, 84
7, 185798, Control_c, 5, 11, 83
7, 185848, Note_on_c, 5, 65, 64
7, 185854, Note_on_c, 5, 60, 67
7, 185880, Control_c, 5, 11, 82
7, 186016, Control_c, 5, 11, 81
7, 186022, Note_off_c, 5, 65, 64
7, 186028, Note_off_c, 5, 60, 67
7, 186054, Note_on_c, 5, 65, 66
7, 186056, Note_on_c, 5, 60, 67
7, 186096, Note_off_c, 5, 60, 67
7, 186098, Note_off_c, 5, 65, 66
7, 186120, Control_c, 5, 11, 80
7, 186194, Control_c, 5, 11, 79
7, 186270, Control_c, 5, 11, 78
7, 186358, Control_c, 5, 11, 77
7, 186484, Control_c, 5, 11, 76
7, 186568, Control_c, 5, 11, 75
7, 186672, Control_c, 5, 11, 74
7, 186744, Control_c, 5, 11, 73
7, 186852, Control_c, 5, 11, 72
7, 186942, Control_c, 5, 11, 71
7, 187026, Control_c, 5, 11, 70
7, 187128, Control_c, 5, 11, 69
7, 187198, Note_on_c, 5, 60, 51
7, 187198, Note_on_c, 5, 72, 64
7, 187216, Control_c, 5, 11, 68
7, 187278, Note_off_c, 5, 72, 64
7, 187298, Note_off_c, 5, 60, 51
7, 187316, Control_c, 5, 11, 67
7, 187386, Control_c, 5, 11, 66
7, 187388, Note_on_c, 5, 69, 91
7, 187394, Note_on_c, 5, 74, 91
7, 187394, Note_on_c, 5, 72, 91
7, 187396, Note_on_c, 5, 77, 91
7, 187442, Note_off_c, 5, 72, 91
7, 187444, Note_off_c, 5, 69, 91
7, 187448, Note_off_c, 5, 77, 91
7, 187454, Note_off_c, 5, 74, 91
7, 187470, Control_c, 5, 11, 65
7, 187480, Note_on_c, 5, 69, 73
7, 187482, Note_on_c, 5, 72, 91
7, 187486, Note_on_c, 5, 74, 82
7, 187490, Note_on_c, 5, 77, 73
7, 187540, Note_off_c, 5, 72, 91
7, 187546, Note_off_c, 5, 69, 73
7, 187550, Note_off_c, 5, 74, 82
7, 187554, Note_off_c, 5, 77, 73
7, 187580, Note_on_c, 5, 77, 81
7, 187580, Note_on_c, 5, 69, 56
7, 187580, Note_on_c, 5, 72, 84
7, 187584, Note_on_c, 5, 74, 60
7, 187590, Control_c, 5, 11, 64
7, 187628, Note_off_c, 5, 72, 84
7, 187632, Note_off_c, 5, 69, 56
7, 187636, Note_off_c, 5, 74, 60
7, 187638, Note_off_c, 5, 77, 81
7, 187668, Note_on_c, 5, 69, 82
7, 187670, Note_on_c, 5, 72, 107
7, 187674, Control_c, 5, 11, 63
7, 187676, Note_on_c, 5, 77, 100
7, 187676, Note_on_c, 5, 74, 109
7, 187716, Note_off_c, 5, 69, 82
7, 187718, Note_off_c, 5, 74, 109
7, 187720, Note_off_c, 5, 77, 100
7, 187720, Note_off_c, 5, 72, 107
7, 187782, Control_c, 5, 11, 62
7, 187868, Control_c, 5, 11, 61
7, 187962, Control_c, 5, 11, 60
7, 188102, Control_c, 5, 11, 59
7, 188246, Control_c, 5, 11, 58
7, 188384, Control_c, 5, 11, 57
7, 188500, Control_c, 5, 11, 56
7, 188622, Control_c, 5, 11, 55
7, 188744, Control_c, 5, 11, 54
7, 188838, Control_c, 5, 11, 53
7, 188934, Note_on_c, 5, 65, 82
7, 188934, Note_on_c, 5, 69, 64
7, 188952, Control_c, 5, 11, 52
7, 189022, Control_c, 5, 11, 51
7, 189140, Control_c, 5, 11, 50
7, 189254, Control_c, 5, 11, 49
7, 189280, Note_off_c, 5, 65, 82
7, 189300, Note_off_c, 5, 69, 64
7, 189392, Control_c, 5, 11, 48
7, 189488, Control_c, 5, 11, 47
7, 189506, Note_on_c, 5, 60, 64
7, 189510, Note_on_c, 5, 65, 73
7, 189602, Control_c, 5, 11, 46
7, 189666, Control_c, 5, 11, 45
7, 189778, Control_c, 5, 11, 44
7, 189910, Control_c, 5, 11, 43
7, 190014, Control_c, 5, 11, 42
7, 190130, Control_c, 5, 11, 41
7, 190248, Control_c, 5, 11, 40
7, 190306, Note_off_c, 5, 65, 73
7, 190312, Note_off_c, 5, 60, 64
7, 190344, Control_c, 5, 11, 39
7, 190456, Note_on_c, 5, 65, 82
7, 190456, Control_c, 5, 11, 38
7, 190458, Note_on_c, 5, 69, 73
7, 190546, Control_c, 5, 11, 37
7, 190656, Control_c, 5, 11, 36
7, 190740, Note_on_c, 5, 64, 73
7, 190740, Note_on_c, 5, 67, 60
7, 190742, Note_off_c, 5, 65, 82
7, 190744, Note_off_c, 5, 69, 73
7, 190762, Control_c, 5, 11, 35
7, 190790, Note_off_c, 5, 67, 60
7, 190800, Note_off_c, 5, 64, 73
7, 190868, Control_c, 5, 11, 34
7, 190954, Control_c, 5, 11, 33
7, 191024, Note_on_c, 5, 72, 74
7, 191026, Note_on_c, 5, 69, 70
7, 191036, Note_on_c, 5, 65, 79
7, 191070, Control_c, 5, 11, 32
7, 191172, Control_c, 5, 11, 31
7, 191258, Control_c, 5, 11, 30
7, 191386, Control_c, 5, 11, 29
7, 191582, Control_c, 5, 11, 28
7, 191692, Control_c, 5, 11, 27
7, 191786, Note_off_c, 5, 69, 70
7, 191794, Control_c, 5, 11, 26
7, 191834, Note_off_c, 5, 72, 74
7, 191878, Note_off_c, 5, 65, 79
7, 191946, Control_c, 5, 11, 25
7, 191992, Note_on_c, 5, 65, 64
7, 191998, Note_on_c, 5, 60, 67
7, 192082, Control_c, 5, 11, 24
7, 192166, Note_off_c, 5, 65, 64
7, 192172, Note_off_c, 5, 60, 67
7, 192182, Control_c, 5, 11, 23
7, 192198, Note_on_c, 5, 65, 66
7, 192200, Note_on_c, 5, 60, 67
7, 192240, Note_off_c, 5, 60, 67
7, 192242, Note_off_c, 5, 65, 66
7, 192302, Control_c, 5, 11, 22
7, 192496, Control_c, 5, 11, 21
7, 192634, Control_c, 5, 11, 20
7, 192778, Control_c, 5, 11, 19
7, 192896, Control_c, 5, 11, 18
7, 193042, Control_c, 5, 11, 17
7, 193130, Control_c, 5, 11, 16
7, 193314, Control_c, 5, 11, 15
7, 193342, Note_on_c, 5, 60, 51
7, 193342, Note_on_c, 5, 72, 64
7, 193372, Control_c, 5, 11, 14
7, 193422, Note_off_c, 5, 72, 64
7, 193442, Note_off_c, 5, 60, 51
7, 193462, Control_c, 5, 11, 13
7, 193532, Note_on_c, 5, 74, 91
7, 193538, Note_on_c, 5, 72, 91
7, 193538, Note_on_c, 5, 77, 91
7, 193540, Note_on_c, 5, 69, 91
7, 193546, Control_c, 5, 11, 12
7, 193586, Note_off_c, 5, 77, 91
7, 193588, Note_off_c, 5, 74, 91
7, 193592, Note_off_c, 5, 69, 91
7, 193598, Note_off_c, 5, 72, 91
7, 193624, Note_on_c, 5, 74, 73
7, 193626, Note_on_c, 5, 77, 91
7, 193630, Note_on_c, 5, 72, 82
7, 193634, Note_on_c, 5, 69, 73
7, 193660, Control_c, 5, 11, 11
7, 193684, Note_off_c, 5, 77, 91
7, 193690, Note_off_c, 5, 74, 73
7, 193694, Note_off_c, 5, 72, 82
7, 193698, Note_off_c, 5, 69, 73
7, 193724, Note_on_c, 5, 69, 64
7, 193724, Note_on_c, 5, 74, 56
7, 193724, Note_on_c, 5, 77, 84
7, 193728, Note_on_c, 5, 72, 60
7, 193740, Control_c, 5, 11, 10
7, 193772, Note_off_c, 5, 77, 84
7, 193776, Note_off_c, 5, 74, 56
7, 193780, Note_off_c, 5, 72, 60
7, 193782, Note_off_c, 5, 69, 64
7, 193810, Control_c, 5, 11, 9
7, 193812, Note_on_c, 5, 74, 82
7, 193814, Note_on_c, 5, 77, 107
7, 193820, Note_on_c, 5, 69, 100
7, 193820, Note_on_c, 5, 72, 109
7, 193860, Note_off_c, 5, 69, 100
7, 193860, Note_off_c, 5, 74, 82
7, 193862, Note_off_c, 5, 72, 109
7, 193864, Note_off_c, 5, 77, 107
7, 193886, Control_c, 5, 11, 8
7, 193956, Control_c, 5, 11, 7
7, 194042, Control_c, 5, 11, 6
7, 194094, Control_c, 5, 11, 5
7, 194168, Control_c, 5, 11, 4
7, 194216, Control_c, 5, 11, 3
7, 194324, Control_c, 5, 11, 2
7, 194424, Control_c, 5, 11, 1
7, 194914, Control_c, 5, 11, 0
7, 196820, Control_c, 5, 121, 127
7, 197012, Control_c, 5, 7, 127
7, 197204, Control_c, 5, 10, 64
7, 198144, End_track
8, 0, Start_track
8, 1752, Control_c, 6, 121, 127
8, 1944, Control_c, 6, 0, 0
8, 2136, Program_c, 6, 60
8, 2328, Control_c, 6, 7, 127
8, 2520, Control_c, 6, 10, 90
8, 2712, Control_c, 6, 11, 127
8, 2904, Control_c, 6, 91, 127
8, 3096, Control_c, 6, 93, 0
8, 13824, Note_on_c, 6, 62, 40
8, 13832, Note_on_c, 6, 57, 33
8, 16584, Note_off_c, 6, 57, 33
8, 16648, Note_off_c, 6, 62, 40
8, 16694, Note_on_c, 6, 62, 46
8, 16698, Note_on_c, 6, 57, 49
8, 16860, Note_off_c, 6, 62, 46
8, 16874, Note_on_c, 6, 60, 40
8, 16878, Note_off_c, 6, 57, 49
8, 16902, Note_on_c, 6, 55, 32
8, 19930, Note_off_c, 6, 55, 32
8, 19946, Note_off_c, 6, 60, 40
8, 19954, Note_on_c, 6, 62, 40
8, 19960, Note_on_c, 6, 57, 33
8, 22676, Note_off_c, 6, 62, 40
8, 22712, Note_off_c, 6, 57, 33
8, 22826, Note_on_c, 6, 57, 49
8, 22836, Note_on_c, 6, 62, 43
8, 23006, Note_off_c, 6, 57, 49
8, 23028, Note_on_c, 6, 60, 40
8, 23030, Note_on_c, 6, 55, 32
8, 23034, Note_off_c, 6, 62, 43
8, 26058, Note_off_c, 6, 55, 32
8, 26096, Note_on_c, 6, 57, 33
8, 26110, Note_off_c, 6, 60, 40
8, 26126, Note_on_c, 6, 62, 40
8, 29158, Note_off_c, 6, 57, 33
8, 29164, Note_off_c, 6, 62, 40
8, 180028, Control_c, 6, 11, 126
8, 180196, Control_c, 6, 11, 125
8, 180324, Control_c, 6, 11, 124
8, 180470, Control_c, 6, 11, 123
8, 180692, Control_c, 6, 11, 122
8, 180828, Control_c, 6, 11, 121
8, 180974, Control_c, 6, 11, 120
8, 181082, Control_c, 6, 11, 119
8, 181202, Control_c, 6, 11, 118
8, 181324, Control_c, 6, 11, 117
8, 181424, Control_c, 6, 11, 116
8, 181556, Control_c, 6, 11, 115
8, 181670, Control_c, 6, 11, 114
8, 181750, Control_c, 6, 11, 113
8, 181848, Control_c, 6, 11, 112
8, 182002, Control_c, 6, 11, 111
8, 182140, Control_c, 6, 11, 110
8, 182240, Control_c, 6, 11, 109
8, 182360, Control_c, 6, 11, 108
8, 182574, Control_c, 6, 11, 107
8, 182722, Control_c, 6, 11, 106
8, 182836, Control_c, 6, 11, 105
8, 182922, Control_c, 6, 11, 104
8, 183040, Control_c, 6, 11, 103
8, 183124, Control_c, 6, 11, 102
8, 183220, Control_c, 6, 11, 101
8, 183364, Control_c, 6, 11, 100
8, 183518, Control_c, 6, 11, 99
8, 183748, Control_c, 6, 11, 98
8, 183964, Control_c, 6, 11, 97
8, 184156, Control_c, 6, 11, 96
8, 184366, Control_c, 6, 11, 95
8, 184464, Control_c, 6, 11, 94
8, 184580, Control_c, 6, 11, 93
8, 184732, Control_c, 6, 11, 92
8, 184858, Control_c, 6, 11, 91
8, 185036, Control_c, 6, 11, 90
8, 185162, Control_c, 6, 11, 89
8, 185254, Control_c, 6, 11, 88
8, 185376, Control_c, 6, 11, 87
8, 185508, Control_c, 6, 11, 86
8, 185596, Control_c, 6, 11, 85
8, 185714, Control_c, 6, 11, 84
8, 185800, Control_c, 6, 11, 83
8, 185882, Control_c, 6, 11, 82
8, 186018, Control_c, 6, 11, 81
8, 186122, Control_c, 6, 11, 80
8, 186196, Control_c, 6, 11, 79
8, 186272, Control_c, 6, 11, 78
8, 186360, Control_c, 6, 11, 77
8, 186486, Control_c, 6, 11, 76
8, 186570, Control_c, 6, 11, 75
8, 186674, Control_c, 6, 11, 74
8, 186746, Control_c, 6, 11, 73
8, 186854, Control_c, 6, 11, 72
8, 186944, Control_c, 6, 11, 71
8, 187028, Control_c, 6, 11, 70
8, 187130, Control_c, 6, 11, 69
8, 187218, Control_c, 6, 11, 68
8, 187318, Control_c, 6, 11, 67
8, 187388, Control_c, 6, 11, 66
8, 187472, Control_c, 6, 11, 65
8, 187592, Control_c, 6, 11, 64
8, 187676, Control_c, 6, 11, 63
8, 187784, Control_c, 6, 11, 62
8, 187870, Control_c, 6, 11, 61
8, 187964, Control_c, 6, 11, 60
8, 188104, Control_c, 6, 11, 59
8, 188248, Control_c, 6, 11, 58
8, 188386, Control_c, 6, 11, 57
8, 188502, Control_c, 6, 11, 56
8, 188624, Control_c, 6, 11, 55
8, 188746, Control_c, 6, 11, 54
8, 188840, Control_c, 6, 11, 53
8, 188954, Control_c, 6, 11, 52
8, 189024, Control_c, 6, 11, 51
8, 189142, Control_c, 6, 11, 50
8, 189256, Control_c, 6, 11, 49
8, 189394, Control_c, 6, 11, 48
8, 189490, Control_c, 6, 11, 47
8, 189604, Control_c, 6, 11, 46
8, 189668, Control_c, 6, 11, 45
8, 189780, Control_c, 6, 11, 44
8, 189912, Control_c, 6, 11, 43
8, 190016, Control_c, 6, 11, 42
8, 190132, Control_c, 6, 11, 41
8, 190250, Control_c, 6, 11, 40
8, 190346, Control_c, 6, 11, 39
8, 190458, Control_c, 6, 11, 38
8, 190548, Control_c, 6, 11, 37
8, 190658, Control_c, 6, 11, 36
8, 190764, Control_c, 6, 11, 35
8, 190870, Control_c, 6, 11, 34
8, 190956, Control_c, 6, 11, 33
8, 191072, Control_c, 6, 11, 32
8, 191174, Control_c, 6, 11, 31
8, 191260, Control_c, 6, 11, 30
8, 191388, Control_c, 6, 11, 29
8, 191584, Control_c, 6, 11, 28
8, 191694, Control_c, 6, 11, 27
8, 191796, Control_c, 6, 11, 26
8, 191948, Control_c, 6, 11, 25
8, 192084, Control_c, 6, 11, 24
8, 192184, Control_c, 6, 11, 23
8, 192304, Control_c, 6, 11, 22
8, 192498, Control_c, 6, 11, 21
8, 192636, Control_c, 6, 11, 20
8, 192780, Control_c, 6, 11, 19
8, 192898, Control_c, 6, 11, 18
8, 193044, Control_c, 6, 11, 17
8, 193132, Control_c, 6, 11, 16
8, 193316, Control_c, 6, 11, 15
8, 193374, Control_c, 6, 11, 14
8, 193464, Control_c, 6, 11, 13
8, 193548, Control_c, 6, 11, 12
8, 193662, Control_c, 6, 11, 11
8, 193742, Control_c, 6, 11, 10
8, 193812, Control_c, 6, 11, 9
8, 193888, Control_c, 6, 11, 8
8, 193958, Control_c, 6, 11, 7
8, 194044, Control_c, 6, 11, 6
8, 194096, Control_c, 6, 11, 5
8, 194170, Control_c, 6, 11, 4
8, 194218, Control_c, 6, 11, 3
8, 194326, Control_c, 6, 11, 2
8, 194426, Control_c, 6, 11, 1
8, 194916, Control_c, 6, 11, 0
8, 196824, Control_c, 6, 121, 127
8, 197016, Control_c, 6, 7, 127
8, 197208, Control_c, 6, 10, 64
8, 198144, End_track
9, 0, Start_track
9, 1756, Control_c, 7, 121, 127
9, 1948, Control_c, 7, 0, 0
9, 2140, Program_c, 7, 11
9, 2332, Control_c, 7, 7, 127
9, 2524, Control_c, 7, 10, 80
9, 2716, Control_c, 7, 11, 127
9, 2908, Control_c, 7, 91, 100
9, 3100, Control_c, 7, 93, 20
9, 7686, Note_on_c, 7, 69, 60
9, 8258, Note_on_c, 7, 65, 56
9, 8834, Note_on_c, 7, 62, 48
9, 10334, Note_off_c, 7, 69, 60
9, 10354, Note_off_c, 7, 62, 48
9, 10362, Note_off_c, 7, 65, 56
9, 10564, Note_on_c, 7, 69, 60
9, 10742, Note_off_c, 7, 69, 60
9, 10756, Note_on_c, 7, 67, 64
9, 11326, Note_on_c, 7, 64, 56
9, 11900, Note_on_c, 7, 60, 52
9, 12544, Note_off_c, 7, 64, 56
9, 12550, Note_off_c, 7, 67, 64
9, 12562, Note_off_c, 7, 60, 52
9, 12678, Note_on_c, 7, 64, 60
9, 12866, Note_on_c, 7, 65, 60
9, 12878, Note_off_c, 7, 64, 60
9, 12930, Note_off_c, 7, 65, 60
9, 13254, Note_on_c, 7, 67, 64
9, 13342, Note_off_c, 7, 67, 64
9, 13830, Note_on_c, 7, 69, 60
9, 14402, Note_on_c, 7, 65, 56
9, 14978, Note_on_c, 7, 62, 48
9, 16478, Note_off_c, 7, 69, 60
9, 16498, Note_off_c, 7, 62, 48
9, 16506, Note_off_c, 7, 65, 56
9, 16708, Note_on_c, 7, 69, 60
9, 16886, Note_off_c, 7, 69, 60
9, 16900, Note_on_c, 7, 67, 64
9, 17470, Note_on_c, 7, 64, 56
9, 18044, Note_on_c, 7, 60, 52
9, 18688, Note_off_c, 7, 64, 56
9, 18694, Note_off_c, 7, 67, 64
9, 18706, Note_off_c, 7, 60, 52
9, 18822, Note_on_c, 7, 64, 60
9, 19010, Note_on_c, 7, 65, 60
9, 19022, Note_off_c, 7, 64, 60
9, 19074, Note_off_c, 7, 65, 60
9, 19398, Note_on_c, 7, 67, 64
9, 19486, Note_off_c, 7, 67, 64
9, 19974, Note_on_c, 7, 69, 60
9, 20546, Note_on_c, 7, 65, 56
9, 21122, Note_on_c, 7, 62, 48
9, 22622, Note_off_c, 7, 69, 60
9, 22642, Note_off_c, 7, 62, 48
9, 22650, Note_off_c, 7, 65, 56
9, 22852, Note_on_c, 7, 69, 60
9, 23030, Note_off_c, 7, 69, 60
9, 23044, Note_on_c, 7, 67, 64
9, 23614, Note_on_c, 7, 64, 56
9, 24188, Note_on_c, 7, 60, 52
9, 24832, Note_off_c, 7, 64, 56
9, 24838, Note_off_c, 7, 67, 64
9, 24850, Note_off_c, 7, 60, 52
9, 24966, Note_on_c, 7, 64, 60
9, 25154, Note_on_c, 7, 65, 60
9, 25166, Note_off_c, 7, 64, 60
9, 25218, Note_off_c, 7, 65, 60
9, 25542, Note_on_c, 7, 67, 64
9, 25630, Note_off_c, 7, 67, 64
9, 26118, Note_on_c, 7, 69, 60
9, 26690, Note_on_c, 7, 65, 56
9, 27266, Note_on_c, 7, 62, 48
9, 28766, Note_off_c, 7, 69, 60
9, 28786, Note_off_c, 7, 62, 48
9, 28794, Note_off_c, 7, 65, 56
9, 133638, Note_on_c, 7, 69, 60
9, 134210, Note_on_c, 7, 65, 56
9, 134786, Note_on_c, 7, 62, 48
9, 136286, Note_off_c, 7, 69, 60
9, 136306, Note_off_c, 7, 62, 48
9, 136314, Note_off_c, 7, 65, 56
9, 136516, Note_on_c, 7, 69, 60
9, 136694, Note_off_c, 7, 69, 60
9, 136708, Note_on_c, 7, 67, 64
9, 137278, Note_on_c, 7, 64, 56
9, 137852, Note_on_c, 7, 60, 52
9, 138496, Note_off_c, 7, 64, 56
9, 138502, Note_off_c, 7, 67, 64
9, 138514, Note_off_c, 7, 60, 52
9, 138630, Note_on_c, 7, 64, 60
9, 138818, Note_on_c, 7, 65, 60
9, 138830, Note_off_c, 7, 64, 60
9, 138882, Note_off_c, 7, 65, 60
9, 139206, Note_on_c, 7, 67, 64
9, 139294, Note_off_c, 7, 67, 64
9, 139782, Note_on_c, 7, 69, 60
9, 140354, Note_on_c, 7, 65, 56
9, 140930, Note_on_c, 7, 62, 48
9, 142430, Note_off_c, 7, 69, 60
9, 142450, Note_off_c, 7, 62, 48
9, 142458, Note_off_c, 7, 65, 56
9, 142660, Note_on_c, 7, 69, 60
9, 142838, Note_off_c, 7, 69, 60
9, 142852, Note_on_c, 7, 67, 64
9, 143422, Note_on_c, 7, 64, 56
9, 143996, Note_on_c, 7, 60, 52
9, 144374, Note_off_c, 7, 60, 52
9, 144378, Note_off_c, 7, 64, 56
9, 144384, Note_off_c, 7, 67, 64
9, 180030, Control_c, 7, 11, 126
9, 180198, Control_c, 7, 11, 125
9, 180326, Control_c, 7, 11, 124
9, 180472, Control_c, 7, 11, 123
9, 180694, Control_c, 7, 11, 122
9, 180830, Control_c, 7, 11, 121
9, 180976, Control_c, 7, 11, 120
9, 181084, Control_c, 7, 11, 119
9, 181204, Control_c, 7, 11, 118
9, 181326, Control_c, 7, 11, 117
9, 181426, Control_c, 7, 11, 116
9, 181558, Control_c, 7, 11, 115
9, 181672, Control_c, 7, 11, 114
9, 181752, Control_c, 7, 11, 113
9, 181850, Control_c, 7, 11, 112
9, 182004, Control_c, 7, 11, 111
9, 182142, Control_c, 7, 11, 110
9, 182242, Control_c, 7, 11, 109
9, 182362, Control_c, 7, 11, 108
9, 182576, Control_c, 7, 11, 107
9, 182724, Control_c, 7, 11, 106
9, 182838, Control_c, 7, 11, 105
9, 182924, Control_c, 7, 11, 104
9, 183042, Control_c, 7, 11, 103
9, 183126, Control_c, 7, 11, 102
9, 183222, Control_c, 7, 11, 101
9, 183366, Control_c, 7, 11, 100
9, 183520, Control_c, 7, 11, 99
9, 183750, Control_c, 7, 11, 98
9, 183966, Control_c, 7, 11, 97
9, 184158, Control_c, 7, 11, 96
9, 184368, Control_c, 7, 11, 95
9, 184466, Control_c, 7, 11, 94
9, 184582, Control_c, 7, 11, 93
9, 184734, Control_c, 7, 11, 92
9, 184860, Control_c, 7, 11, 91
9, 185038, Control_c, 7, 11, 90
9, 185164, Control_c, 7, 11, 89
9, 185256, Control_c, 7, 11, 88
9, 185378, Control_c, 7, 11, 87
9, 185510, Control_c, 7, 11, 86
9, 185598, Control_c, 7, 11, 85
9, 185716, Control_c, 7, 11, 84
9, 185802, Control_c, 7, 11, 83
9, 185884, Control_c, 7, 11, 82
9, 186020, Control_c, 7, 11, 81
9, 186124, Control_c, 7, 11, 80
9, 186198, Control_c, 7, 11, 79
9, 186274, Control_c, 7, 11, 78
9, 186362, Control_c, 7, 11, 77
9, 186488, Control_c, 7, 11, 76
9, 186572, Control_c, 7, 11, 75
9, 186676, Control_c, 7, 11, 74
9, 186748, Control_c, 7, 11, 73
9, 186856, Control_c, 7, 11, 72
9, 186946, Control_c, 7, 11, 71
9, 187030, Control_c, 7, 11, 70
9, 187132, Control_c, 7, 11, 69
9, 187220, Control_c, 7, 11, 68
9, 187320, Control_c, 7, 11, 67
9, 187390, Control_c, 7, 11, 66
9, 187474, Control_c, 7, 11, 65
9, 187594, Control_c, 7, 11, 64
9, 187678, Control_c, 7, 11, 63
9, 187786, Control_c, 7, 11, 62
9, 187872, Control_c, 7, 11, 61
9, 187966, Control_c, 7, 11, 60
9, 188106, Control_c, 7, 11, 59
9, 188250, Control_c, 7, 11, 58
9, 188388, Control_c, 7, 11, 57
9, 188504, Control_c, 7, 11, 56
9, 188626, Control_c, 7, 11, 55
9, 188748, Control_c, 7, 11, 54
9, 188842, Control_c, 7, 11, 53
9, 188956, Control_c, 7, 11, 52
9, 189026, Control_c, 7, 11, 51
9, 189144, Control_c, 7, 11, 50
9, 189258, Control_c, 7, 11, 49
9, 189396, Control_c, 7, 11, 48
9, 189492, Control_c, 7, 11, 47
9, 189606, Control_c, 7, 11, 46
9, 189670, Control_c, 7, 11, 45
9, 189782, Control_c, 7, 11, 44
9, 189914, Control_c, 7, 11, 43
9, 190018, Control_c, 7, 11, 42
9, 190134, Control_c, 7, 11, 41
9, 190252, Control_c, 7, 11, 40
9, 190348, Control_c, 7, 11, 39
9, 190460, Control_c, 7, 11, 38
9, 190550, Control_c, 7, 11, 37
9, 190660, Control_c, 7, 11, 36
9, 190766, Control_c, 7, 11, 35
9, 190872, Control_c, 7, 11, 34
9, 190958, Control_c, 7, 11, 33
9, 191074, Control_c, 7, 11, 32
9, 191176, Control_c, 7, 11, 31
9, 191262, Control_c, 7, 11, 30
9, 191390, Control_c, 7, 11, 29
9, 191586, Control_c, 7, 11, 28
9, 191696, Control_c, 7, 11, 27
9, 191798, Control_c, 7, 11, 26
9, 191950, Control_c, 7, 11, 25
9, 192086, Control_c, 7, 11, 24
9, 192186, Control_c, 7, 11, 23
9, 192306, Control_c, 7, 11, 22
9, 192500, Control_c, 7, 11, 21
9, 192638, Control_c, 7, 11, 20
9, 192782, Control_c, 7, 11, 19
9, 192900, Control_c, 7, 11, 18
9, 193046, Control_c, 7, 11, 17
9, 193134, Control_c, 7, 11, 16
9, 193318, Control_c, 7, 11, 15
9, 193376, Control_c, 7, 11, 14
9, 193466, Control_c, 7, 11, 13
9, 193550, Control_c, 7, 11, 12
9, 193664, Control_c, 7, 11, 11
9, 193744, Control_c, 7, 11, 10
9, 193814, Control_c, 7, 11, 9
9, 193890, Control_c, 7, 11, 8
9, 193960, Control_c, 7, 11, 7
9, 194046, Control_c, 7, 11, 6
9, 194098, Control_c, 7, 11, 5
9, 194172, Control_c, 7, 11, 4
9, 194220, Control_c, 7, 11, 3
9, 194328, Control_c, 7, 11, 2
9, 194428, Control_c, 7, 11, 1
9, 194918, Control_c, 7, 11, 0
9, 196828, Control_c, 7, 121, 127
9, 197020, Control_c, 7, 7, 127
9, 197212, Control_c, 7, 10, 64
9, 198144, End_track
10, 0, Start_track
10, 1764, Control_c, 9, 121, 127
10, 1956, Control_c, 9, 0, 0
10, 2148, Program_c, 9, 0
10, 2340, Control_c, 9, 7, 127
10, 2532, Control_c, 9, 10, 64
10, 2724, Control_c, 9, 11, 127
10, 2916, Control_c, 9, 91, 60
10, 3108, Control_c, 9, 93, 0
10, 7680, Note_on_c, 9, 49, 72
10, 7680, Note_on_c, 9, 36, 101
10, 7696, Note_off_c, 9, 36, 101
10, 7736, Note_off_c, 9, 49, 72
10, 7872, Note_on_c, 9, 42, 49
10, 7896, Note_off_c, 9, 42, 49
10, 7970, Note_on_c, 9, 42, 78
10, 7994, Note_off_c, 9, 42, 78
10, 8064, Note_on_c, 9, 46, 93
10, 8064, Note_on_c, 9, 36, 101
10, 8080, Note_off_c, 9, 36, 101
10, 8088, Note_off_c, 9, 46, 93
10, 8192, Note_on_c, 9, 44, 5
10, 8216, Note_off_c, 9, 44, 5
10, 8256, Note_on_c, 9, 42, 49
10, 8280, Note_off_c, 9, 42, 49
10, 8354, Note_on_c, 9, 42, 84
10, 8378, Note_off_c, 9, 42, 84
10, 8448, Note_on_c, 9, 46, 90
10, 8448, Note_on_c, 9, 36, 101
10, 8464, Note_off_c, 9, 36, 101
10, 8472, Note_off_c, 9, 46, 90
10, 8576, Note_on_c, 9, 44, 5
10, 8600, Note_off_c, 9, 44, 5
10, 8640, Note_on_c, 9, 42, 49
10, 8664, Note_off_c, 9, 42, 49
10, 8738, Note_on_c, 9, 42, 78
10, 8762, Note_off_c, 9, 42, 78
10, 8832, Note_on_c, 9, 46, 90
10, 8832, Note_on_c, 9, 36, 101
10, 8848, Note_off_c, 9, 36, 101
10, 8856, Note_off_c, 9, 46, 90
10, 8960, Note_on_c, 9, 44, 5
10, 8984, Note_off_c, 9, 44, 5
10, 9024, Note_on_c, 9, 42, 46
10, 9048, Note_off_c, 9, 42, 46
10, 9122, Note_on_c, 9, 42, 84
10, 9146, Note_off_c, 9, 42, 84
10, 9216, Note_on_c, 9, 46, 90
10, 9216, Note_on_c, 9, 36, 101
10, 9232, Note_off_c, 9, 36, 101
10, 9240, Note_off_c, 9, 46, 90
10, 9344, Note_on_c, 9, 44, 5
10, 9368, Note_off_c, 9, 44, 5
10, 9408, Note_on_c, 9, 42, 49
10, 9432, Note_off_c, 9, 42, 49
10, 9506, Note_on_c, 9, 42, 78
10, 9530, Note_off_c, 9, 42, 78
10, 9600, Note_on_c, 9, 46, 93
10, 9600, Note_on_c, 9, 36, 101
10, 9616, Note_off_c, 9, 36, 101
10, 9624, Note_off_c, 9, 46, 93
10, 9728, Note_on_c, 9, 44, 5
10, 9752, Note_off_c, 9, 44, 5
10, 9792, Note_on_c, 9, 42, 49
10, 9816, Note_off_c, 9, 42, 49
10, 9890, Note_on_c, 9, 42, 84
10, 9914, Note_off_c, 9, 42, 84
10, 9984, Note_on_c, 9, 46, 90
10, 9984, Note_on_c, 9, 36, 101
10, 10000, Note_off_c, 9, 36, 101
10, 10008, Note_off_c, 9, 46, 90
10, 10112, Note_on_c, 9, 44, 5
10, 10136, Note_off_c, 9, 44, 5
10, 10176, Note_on_c, 9, 42, 49
10, 10200, Note_off_c, 9, 42, 49
10, 10274, Note_on_c, 9, 42, 78
10, 10298, Note_off_c, 9, 42, 78
10, 10368, Note_on_c, 9, 46, 90
10, 10368, Note_on_c, 9, 36, 101
10, 10384, Note_off_c, 9, 36, 101
10, 10392, Note_off_c, 9, 46, 90
10, 10496, Note_on_c, 9, 44, 5
10, 10520, Note_off_c, 9, 44, 5
10, 10560, Note_on_c, 9, 42, 46
10, 10584, Note_off_c, 9, 42, 46
10, 10658, Note_on_c, 9, 42, 84
10, 10682, Note_off_c, 9, 42, 84
10, 10752, Note_on_c, 9, 46, 90
10, 10752, Note_on_c, 9, 36, 101
10, 10768, Note_off_c, 9, 36, 101
10, 10776, Note_off_c, 9, 46, 90
10, 10880, Note_on_c, 9, 44, 5
10, 10904, Note_off_c, 9, 44, 5
10, 10944, Note_on_c, 9, 42, 49
10, 10968, Note_off_c, 9, 42, 49
10, 11042, Note_on_c, 9, 42, 78
10, 11066, Note_off_c, 9, 42, 78
10, 11136, Note_on_c, 9, 46, 93
10, 11136, Note_on_c, 9, 36, 101
10, 11152, Note_off_c, 9, 36, 101
10, 11160, Note_off_c, 9, 46, 93
10, 11264, Note_on_c, 9, 44, 5
10, 11288, Note_off_c, 9, 44, 5
10, 11328, Note_on_c, 9, 42, 49
10, 11352, Note_off_c, 9, 42, 49
10, 11426, Note_on_c, 9, 42, 84
10, 11450, Note_off_c, 9, 42, 84
10, 11520, Note_on_c, 9, 46, 90
10, 11520, Note_on_c, 9, 36, 101
10, 11536, Note_off_c, 9, 36, 101
10, 11544, Note_off_c, 9, 46, 90
10, 11648, Note_on_c, 9, 44, 5
10, 11672, Note_off_c, 9, 44, 5
10, 11712, Note_on_c, 9, 42, 49
10, 11736, Note_off_c, 9, 42, 49
10, 11810, Note_on_c, 9, 42, 78
10, 11834, Note_off_c, 9, 42, 78
10, 11904, Note_on_c, 9, 46, 90
10, 11904, Note_on_c, 9, 36, 101
10, 11920, Note_off_c, 9, 36, 101
10, 11928, Note_off_c, 9, 46, 90
10, 12032, Note_on_c, 9, 44, 5
10, 12056, Note_off_c, 9, 44, 5
10, 12096, Note_on_c, 9, 42, 46
10, 12120, Note_off_c, 9, 42, 46
10, 12194, Note_on_c, 9, 42, 84
10, 12218, Note_off_c, 9, 42, 84
10, 12288, Note_on_c, 9, 46, 90
10, 12288, Note_on_c, 9, 36, 101
10, 12304, Note_off_c, 9, 36, 101
10, 12312, Note_off_c, 9, 46, 90
10, 12416, Note_on_c, 9, 44, 5
10, 12440, Note_off_c, 9, 44, 5
10, 12480, Note_on_c, 9, 42, 49
10, 12504, Note_off_c, 9, 42, 49
10, 12578, Note_on_c, 9, 42, 78
10, 12602, Note_off_c, 9, 42, 78
10, 12672, Note_on_c, 9, 46, 93
10, 12672, Note_on_c, 9, 36, 101
10, 12688, Note_off_c, 9, 36, 101
10, 12696, Note_off_c, 9, 46, 93
10, 12800, Note_on_c, 9, 44, 5
10, 12824, Note_off_c, 9, 44, 5
10, 12864, Note_on_c, 9, 85, 81
10, 12864, Note_on_c, 9, 42, 49
10, 12888, Note_off_c, 9, 42, 49
10, 12912, Note_off_c, 9, 85, 81
10, 12962, Note_on_c, 9, 42, 84
10, 12986, Note_off_c, 9, 42, 84
10, 13056, Note_on_c, 9, 46, 90
10, 13056, Note_on_c, 9, 36, 101
10, 13072, Note_off_c, 9, 36, 101
10, 13080, Note_off_c, 9, 46, 90
10, 13184, Note_on_c, 9, 44, 5
10, 13208, Note_off_c, 9, 44, 5
10, 13248, Note_on_c, 9, 42, 49
10, 13262, Note_on_c, 9, 85, 40
10, 13272, Note_off_c, 9, 42, 49
10, 13308, Note_off_c, 9, 85, 40
10, 13316, Note_on_c, 9, 85, 64
10, 13346, Note_on_c, 9, 42, 78
10, 13366, Note_off_c, 9, 85, 64
10, 13370, Note_off_c, 9, 42, 78
10, 13378, Note_on_c, 9, 85, 81
10, 13426, Note_off_c, 9, 85, 81
10, 13436, Note_on_c, 9, 85, 110
10, 13440, Note_on_c, 9, 46, 90
10, 13440, Note_on_c, 9, 36, 101
10, 13456, Note_off_c, 9, 36, 101
10, 13464, Note_off_c, 9, 46, 90
10, 13568, Note_on_c, 9, 44, 5
10, 13592, Note_off_c, 9, 44, 5
10, 13626, Note_off_c, 9, 85, 110
10, 13632, Note_on_c, 9, 42, 46
10, 13656, Note_off_c, 9, 42, 46
10, 13730, Note_on_c, 9, 42, 84
10, 13754, Note_off_c, 9, 42, 84
10, 13824, Note_on_c, 9, 49, 72
10, 13824, Note_on_c, 9, 36, 101
10, 13840, Note_off_c, 9, 36, 101
10, 13880, Note_off_c, 9, 49, 72
10, 14016, Note_on_c, 9, 42, 49
10, 14040, Note_off_c, 9, 42, 49
10, 14114, Note_on_c, 9, 42, 78
10, 14138, Note_off_c, 9, 42, 78
10, 14208, Note_on_c, 9, 46, 93
10, 14208, Note_on_c, 9, 36, 101
10, 14224, Note_off_c, 9, 36, 101
10, 14232, Note_off_c, 9, 46, 93
10, 14336, Note_on_c, 9, 44, 5
10, 14360, Note_off_c, 9, 44, 5
10, 14400, Note_on_c, 9, 42, 49
10, 14424, Note_off_c, 9, 42, 49
10, 14498, Note_on_c, 9, 42, 84
10, 14522, Note_off_c, 9, 42, 84
10, 14592, Note_on_c, 9, 46, 90
10, 14592, Note_on_c, 9, 36, 101
10, 14608, Note_off_c, 9, 36, 101
10, 14616, Note_off_c, 9, 46, 90
10, 14720, Note_on_c, 9, 44, 5
10, 14744, Note_off_c, 9, 44, 5
10, 14784, Note_on_c, 9, 42, 49
10, 14808, Note_off_c, 9, 42, 49
10, 14882, Note_on_c, 9, 42, 78
10, 14906, Note_off_c, 9, 42, 78
10, 14976, Note_on_c, 9, 46, 90
10, 14976, Note_on_c, 9, 36, 101
10, 14992, Note_off_c, 9, 36, 101
10, 15000, Note_off_c, 9, 46, 90
10, 15104, Note_on_c, 9, 44, 5
10, 15128, Note_off_c, 9, 44, 5
10, 15168, Note_on_c, 9, 42, 46
10, 15192, Note_off_c, 9, 42, 46
10, 15266, Note_on_c, 9, 42, 84
10, 15290, Note_off_c, 9, 42, 84
10, 15360, Note_on_c, 9, 46, 90
10, 15360, Note_on_c, 9, 36, 101
10, 15376, Note_off_c, 9, 36, 101
10, 15384, Note_off_c, 9, 46, 90
10, 15488, Note_on_c, 9, 44, 5
10, 15512, Note_off_c, 9, 44, 5
10, 15552, Note_on_c, 9, 42, 49
10, 15576, Note_off_c, 9, 42, 49
10, 15650, Note_on_c, 9, 42, 78
10, 15674, Note_off_c, 9, 42, 78
10, 15744, Note_on_c, 9, 46, 93
10, 15744, Note_on_c, 9, 36, 101
10, 15760, Note_off_c, 9, 36, 101
10, 15768, Note_off_c, 9, 46, 93
10, 15872, Note_on_c, 9, 44, 5
10, 15896, Note_off_c, 9, 44, 5
10, 15936, Note_on_c, 9, 42, 49
10, 15960, Note_off_c, 9, 42, 49
10, 16034, Note_on_c, 9, 42, 84
10, 16058, Note_off_c, 9, 42, 84
10, 16128, Note_on_c, 9, 46, 90
10, 16128, Note_on_c, 9, 36, 101
10, 16144, Note_off_c, 9, 36, 101
10, 16152, Note_off_c, 9, 46, 90
10, 16256, Note_on_c, 9, 44, 5
10, 16280, Note_off_c, 9, 44, 5
10, 16320, Note_on_c, 9, 42, 49
10, 16344, Note_off_c, 9, 42, 49
10, 16418, Note_on_c, 9, 42, 78
10, 16442, Note_off_c, 9, 42, 78
10, 16512, Note_on_c, 9, 46, 90
10, 16512, Note_on_c, 9, 36, 101
10, 16528, Note_off_c, 9, 36, 101
10, 16536, Note_off_c, 9, 46, 90
10, 16640, Note_on_c, 9, 44, 5
10, 16664, Note_off_c, 9, 44, 5
10, 16704, Note_on_c, 9, 42, 46
10, 16728, Note_off_c, 9, 42, 46
10, 16802, Note_on_c, 9, 42, 84
10, 16826, Note_off_c, 9, 42, 84
10, 16896, Note_on_c, 9, 46, 90
10, 16896, Note_on_c, 9, 36, 101
10, 16912, Note_off_c, 9, 36, 101
10, 16920, Note_off_c, 9, 46, 90
10, 17024, Note_on_c, 9, 44, 5
10, 17048, Note_off_c, 9, 44, 5
10, 17088, Note_on_c, 9, 42, 49
10, 17112, Note_off_c, 9, 42, 49
10, 17186, Note_on_c, 9, 42, 78
10, 17210, Note_off_c, 9, 42, 78
10, 17280, Note_on_c, 9, 46, 93
10, 17280, Note_on_c, 9, 36, 101
10, 17296, Note_off_c, 9, 36, 101
10, 17304, Note_off_c, 9, 46, 93
10, 17408, Note_on_c, 9, 44, 5
10, 17432, Note_off_c, 9, 44, 5
10, 17472, Note_on_c, 9, 42, 49
10, 17496, Note_off_c, 9, 42, 49
10, 17570, Note_on_c, 9, 42, 84
10, 17594, Note_off_c, 9, 42, 84
10, 17664, Note_on_c, 9, 46, 90
10, 17664, Note_on_c, 9, 36, 101
10, 17680, Note_off_c, 9, 36, 101
10, 17688, Note_off_c, 9, 46, 90
10, 17792, Note_on_c, 9, 44, 5
10, 17816, Note_off_c, 9, 44, 5
10, 17856, Note_on_c, 9, 42, 49
10, 17880, Note_off_c, 9, 42, 49
10, 17954, Note_on_c, 9, 42, 78
10, 17978, Note_off_c, 9, 42, 78
10, 18048, Note_on_c, 9, 46, 90
10, 18048, Note_on_c, 9, 36, 101
10, 18064, Note_off_c, 9, 36, 101
10, 18072, Note_off_c, 9, 46, 90
10, 18176, Note_on_c, 9, 44, 5
10, 18200, Note_off_c, 9, 44, 5
10, 18240, Note_on_c, 9, 42, 46
10, 18264, Note_off_c, 9, 42, 46
10, 18338, Note_on_c, 9, 42, 84
10, 18362, Note_off_c, 9, 42, 84
10, 18432, Note_on_c, 9, 46, 90
10, 18432, Note_on_c, 9, 36, 101
10, 18448, Note_off_c, 9, 36, 101
10, 18456, Note_off_c, 9, 46, 90
10, 18560, Note_on_c, 9, 44, 5
10, 18584, Note_off_c, 9, 44, 5
10, 18624, Note_on_c, 9, 42, 49
10, 18648, Note_off_c, 9, 42, 49
10, 18722, Note_on_c, 9, 42, 78
10, 18746, Note_off_c, 9, 42, 78
10, 18816, Note_on_c, 9, 46, 93
10, 18816, Note_on_c, 9, 36, 101
10, 18832, Note_off_c, 9, 36, 101
10, 18840, Note_off_c, 9, 46, 93
10, 18944, Note_on_c, 9, 44, 5
10, 18968, Note_off_c, 9, 44, 5
10, 19008, Note_on_c, 9, 42, 49
10, 19032, Note_off_c, 9, 42, 49
10, 19106, Note_on_c, 9, 42, 84
10, 19130, Note_off_c, 9, 42, 84
10, 19200, Note_on_c, 9, 46, 90
10, 19200, Note_on_c, 9, 36, 101
10, 19216, Note_off_c, 9, 36, 101
10, 19224, Note_off_c, 9, 46, 90
10, 19328, Note_on_c, 9, 44, 5
10, 19352, Note_off_c, 9, 44, 5
10, 19392, Note_on_c, 9, 42, 49
10, 19416, Note_off_c, 9, 42, 49
10, 19490, Note_on_c, 9, 42, 78
10, 19514, Note_off_c, 9, 42, 78
10, 19584, Note_on_c, 9, 46, 90
10, 19584, Note_on_c, 9, 36, 101
10, 19600, Note_off_c, 9, 36, 101
10, 19608, Note_off_c, 9, 46, 90
10, 19712, Note_on_c, 9, 44, 5
10, 19736, Note_off_c, 9, 44, 5
10, 19776, Note_on_c, 9, 42, 46
10, 19800, Note_off_c, 9, 42, 46
10, 19874, Note_on_c, 9, 42, 84
10, 19898, Note_off_c, 9, 42, 84
10, 19968, Note_on_c, 9, 49, 72
10, 19968, Note_on_c, 9, 36, 101
10, 19984, Note_off_c, 9, 36, 101
10, 20024, Note_off_c, 9, 49, 72
10, 20160, Note_on_c, 9, 42, 49
10, 20184, Note_off_c, 9, 42, 49
10, 20258, Note_on_c, 9, 42, 78
10, 20282, Note_off_c, 9, 42, 78
10, 20352, Note_on_c, 9, 46, 93
10, 20352, Note_on_c, 9, 36, 101
10, 20368, Note_off_c, 9, 36, 101
10, 20376, Note_off_c, 9, 46, 93
10, 20480, Note_on_c, 9, 44, 5
10, 20504, Note_off_c, 9, 44, 5
10, 20544, Note_on_c, 9, 42, 49
10, 20568, Note_off_c, 9, 42, 49
10, 20642, Note_on_c, 9, 42, 84
10, 20666, Note_off_c, 9, 42, 84
10, 20736, Note_on_c, 9, 46, 90
10, 20736, Note_on_c, 9, 36, 101
10, 20752, Note_off_c, 9, 36, 101
10, 20760, Note_off_c, 9, 46, 90
10, 20864, Note_on_c, 9, 44, 5
10, 20888, Note_off_c, 9, 44, 5
10, 20928, Note_on_c, 9, 42, 49
10, 20952, Note_off_c, 9, 42, 49
10, 21026, Note_on_c, 9, 42, 78
10, 21050, Note_off_c, 9, 42, 78
10, 21120, Note_on_c, 9, 46, 90
10, 21120, Note_on_c, 9, 36, 101
10, 21136, Note_off_c, 9, 36, 101
10, 21144, Note_off_c, 9, 46, 90
10, 21248, Note_on_c, 9, 44, 5
10, 21272, Note_off_c, 9, 44, 5
10, 21312, Note_on_c, 9, 42, 46
10, 21336, Note_off_c, 9, 42, 46
10, 21410, Note_on_c, 9, 42, 84
10, 21434, Note_off_c, 9, 42, 84
10, 21504, Note_on_c, 9, 46, 90
10, 21504, Note_on_c, 9, 36, 101
10, 21520, Note_off_c, 9, 36, 101
10, 21528, Note_off_c, 9, 46, 90
10, 21632, Note_on_c, 9, 44, 5
10, 21656, Note_off_c, 9, 44, 5
10, 21696, Note_on_c, 9, 42, 49
10, 21720, Note_off_c, 9, 42, 49
10, 21794, Note_on_c, 9, 42, 78
10, 21818, Note_off_c, 9, 42, 78
10, 21888, Note_on_c, 9, 46, 93
10, 21888, Note_on_c, 9, 36, 101
10, 21904, Note_off_c, 9, 36, 101
10, 21912, Note_off_c, 9, 46, 93
10, 22016, Note_on_c, 9, 44, 5
10, 22040, Note_off_c, 9, 44, 5
10, 22080, Note_on_c, 9, 42, 49
10, 22104, Note_off_c, 9, 42, 49
10, 22178, Note_on_c, 9, 42, 84
10, 22202, Note_off_c, 9, 42, 84
10, 22272, Note_on_c, 9, 46, 90
10, 22272, Note_on_c, 9, 36, 101
10, 22288, Note_off_c, 9, 36, 101
10, 22296, Note_off_c, 9, 46, 90
10, 22400, Note_on_c, 9, 44, 5
10, 22424, Note_off_c, 9, 44, 5
10, 22464, Note_on_c, 9, 42, 49
10, 22486, Note_on_c, 9, 85, 39
10, 22488, Note_off_c, 9, 42, 49
10, 22532, Note_off_c, 9, 85, 39
10, 22544, Note_on_c, 9, 85, 64
10, 22562, Note_on_c, 9, 42, 78
10, 22586, Note_off_c, 9, 42, 78
10, 22594, Note_off_c, 9, 85, 64
10, 22600, Note_on_c, 9, 85, 81
10, 22648, Note_off_c, 9, 85, 81
10, 22652, Note_on_c, 9, 85, 110
10, 22656, Note_on_c, 9, 46, 90
10, 22656, Note_on_c, 9, 36, 101
10, 22672, Note_off_c, 9, 36, 101
10, 22680, Note_off_c, 9, 46, 90
10, 22784, Note_on_c, 9, 44, 5
10, 22808, Note_off_c, 9, 44, 5
10, 22842, Note_off_c, 9, 85, 110
10, 22848, Note_on_c, 9, 42, 46
10, 22872, Note_off_c, 9, 42, 46
10, 22946, Note_on_c, 9, 42, 84
10, 22970, Note_off_c, 9, 42, 84
10, 23040, Note_on_c, 9, 46, 90
10, 23040, Note_on_c, 9, 36, 101
10, 23056, Note_off_c, 9, 36, 101
10, 23064, Note_off_c, 9, 46, 90
10, 23168, Note_on_c, 9, 44, 5
10, 23192, Note_off_c, 9, 44, 5
10, 23232, Note_on_c, 9, 42, 49
10, 23256, Note_off_c, 9, 42, 49
10, 23330, Note_on_c, 9, 42, 78
10, 23354, Note_off_c, 9, 42, 78
10, 23424, Note_on_c, 9, 46, 93
10, 23424, Note_on_c, 9, 36, 101
10, 23440, Note_off_c, 9, 36, 101
10, 23448, Note_off_c, 9, 46, 93
10, 23552, Note_on_c, 9, 44, 5
10, 23576, Note_off_c, 9, 44, 5
10, 23616, Note_on_c, 9, 42, 49
10, 23640, Note_off_c, 9, 42, 49
10, 23714, Note_on_c, 9, 42, 84
10, 23738, Note_off_c, 9, 42, 84
10, 23808, Note_on_c, 9, 46, 90
10, 23808, Note_on_c, 9, 36, 101
10, 23824, Note_off_c, 9, 36, 101
10, 23832, Note_off_c, 9, 46, 90
10, 23936, Note_on_c, 9, 44, 5
10, 23960, Note_off_c, 9, 44, 5
10, 24000, Note_on_c, 9, 42, 49
10, 24024, Note_off_c, 9, 42, 49
10, 24098, Note_on_c, 9, 42, 78
10, 24122, Note_off_c, 9, 42, 78
10, 24192, Note_on_c, 9, 46, 90
10, 24192, Note_on_c, 9, 36, 101
10, 24208, Note_off_c, 9, 36, 101
10, 24216, Note_off_c, 9, 46, 90
10, 24320, Note_on_c, 9, 44, 5
10, 24344, Note_off_c, 9, 44, 5
10, 24384, Note_on_c, 9, 42, 46
10, 24408, Note_off_c, 9, 42, 46
10, 24482, Note_on_c, 9, 42, 84
10, 24506, Note_off_c, 9, 42, 84
10, 24576, Note_on_c, 9, 46, 90
10, 24576, Note_on_c, 9, 36, 101
10, 24592, Note_off_c, 9, 36, 101
10, 24600, Note_off_c, 9, 46, 90
10, 24704, Note_on_c, 9, 44, 5
10, 24728, Note_off_c, 9, 44, 5
10, 24768, Note_on_c, 9, 42, 49
10, 24792, Note_off_c, 9, 42, 49
10, 24866, Note_on_c, 9, 42, 78
10, 24890, Note_off_c, 9, 42, 78
10, 24960, Note_on_c, 9, 46, 93
10, 24960, Note_on_c, 9, 36, 101
10, 24976, Note_off_c, 9, 36, 101
10, 24984, Note_off_c, 9, 46, 93
10, 25088, Note_on_c, 9, 44, 5
10, 25112, Note_off_c, 9, 44, 5
10, 25152, Note_on_c, 9, 42, 49
10, 25176, Note_off_c, 9, 42, 49
10, 25250, Note_on_c, 9, 42, 84
10, 25274, Note_off_c, 9, 42, 84
10, 25344, Note_on_c, 9, 46, 90
10, 25344, Note_on_c, 9, 36, 101
10, 25360, Note_off_c, 9, 36, 101
10, 25368, Note_off_c, 9, 46, 90
10, 25472, Note_on_c, 9, 44, 5
10, 25496, Note_off_c, 9, 44, 5
10, 25536, Note_on_c, 9, 42, 49
10, 25560, Note_off_c, 9, 42, 49
10, 25634, Note_on_c, 9, 42, 78
10, 25658, Note_off_c, 9, 42, 78
10, 25728, Note_on_c, 9, 46, 90
10, 25728, Note_on_c, 9, 36, 101
10, 25744, Note_off_c, 9, 36, 101
10, 25752, Note_off_c, 9, 46, 90
10, 25856, Note_on_c, 9, 44, 5
10, 25880, Note_off_c, 9, 44, 5
10, 25920, Note_on_c, 9, 42, 46
10, 25944, Note_off_c, 9, 42, 46
10, 26018, Note_on_c, 9, 42, 84
10, 26042, Note_off_c, 9, 42, 84
10, 26112, Note_on_c, 9, 49, 72
10, 26112, Note_on_c, 9, 36, 101
10, 26128, Note_off_c, 9, 36, 101
10, 26168, Note_off_c, 9, 49, 72
10, 26304, Note_on_c, 9, 42, 59
10, 26328, Note_off_c, 9, 42, 59
10, 26402, Note_on_c, 9, 42, 88
10, 26426, Note_off_c, 9, 42, 88
10, 26496, Note_on_c, 9, 46, 103
10, 26496, Note_on_c, 9, 36, 101
10, 26512, Note_off_c, 9, 36, 101
10, 26520, Note_off_c, 9, 46, 103
10, 26624, Note_on_c, 9, 44, 15
10, 26648, Note_off_c, 9, 44, 15
10, 26688, Note_on_c, 9, 42, 59
10, 26712, Note_off_c, 9, 42, 59
10, 26786, Note_on_c, 9, 42, 94
10, 26810, Note_off_c, 9, 42, 94
10, 26880, Note_on_c, 9, 46, 100
10, 26880, Note_on_c, 9, 36, 101
10, 26896, Note_off_c, 9, 36, 101
10, 26904, Note_off_c, 9, 46, 100
10, 27008, Note_on_c, 9, 44, 15
10, 27032, Note_off_c, 9, 44, 15
10, 27072, Note_on_c, 9, 42, 59
10, 27096, Note_off_c, 9, 42, 59
10, 27170, Note_on_c, 9, 42, 88
10, 27194, Note_off_c, 9, 42, 88
10, 27264, Note_on_c, 9, 46, 100
10, 27264, Note_on_c, 9, 36, 101
10, 27280, Note_off_c, 9, 36, 101
10, 27288, Note_off_c, 9, 46, 100
10, 27392, Note_on_c, 9, 44, 15
10, 27416, Note_off_c, 9, 44, 15
10, 27456, Note_on_c, 9, 42, 56
10, 27480, Note_off_c, 9, 42, 56
10, 27554, Note_on_c, 9, 42, 94
10, 27578, Note_off_c, 9, 42, 94
10, 27648, Note_on_c, 9, 46, 100
10, 27648, Note_on_c, 9, 36, 101
10, 27664, Note_off_c, 9, 36, 101
10, 27672, Note_off_c, 9, 46, 100
10, 27776, Note_on_c, 9, 44, 15
10, 27800, Note_off_c, 9, 44, 15
10, 27840, Note_on_c, 9, 42, 59
10, 27864, Note_off_c, 9, 42, 59
10, 27938, Note_on_c, 9, 42, 88
10, 27962, Note_off_c, 9, 42, 88
10, 28032, Note_on_c, 9, 46, 103
10, 28032, Note_on_c, 9, 36, 101
10, 28048, Note_off_c, 9, 36, 101
10, 28056, Note_off_c, 9, 46, 103
10, 28160, Note_on_c, 9, 44, 15
10, 28184, Note_off_c, 9, 44, 15
10, 28224, Note_on_c, 9, 42, 59
10, 28248, Note_off_c, 9, 42, 59
10, 28322, Note_on_c, 9, 42, 94
10, 28346, Note_off_c, 9, 42, 94
10, 28416, Note_on_c, 9, 46, 100
10, 28416, Note_on_c, 9, 36, 101
10, 28432, Note_off_c, 9, 36, 101
10, 28440, Note_off_c, 9, 46, 100
10, 28544, Note_on_c, 9, 44, 15
10, 28568, Note_off_c, 9, 44, 15
10, 28608, Note_on_c, 9, 42, 59
10, 28630, Note_on_c, 9, 85, 39
10, 28632, Note_off_c, 9, 42, 59
10, 28676, Note_off_c, 9, 85, 39
10, 28688, Note_on_c, 9, 85, 64
10, 28706, Note_on_c, 9, 42, 88
10, 28730, Note_off_c, 9, 42, 88
10, 28738, Note_off_c, 9, 85, 64
10, 28744, Note_on_c, 9, 85, 81
10, 28792, Note_off_c, 9, 85, 81
10, 28796, Note_on_c, 9, 85, 110
10, 28800, Note_on_c, 9, 46, 100
10, 28800, Note_on_c, 9, 40, 109
10, 28800, Note_on_c, 9, 36, 101
10, 28816, Note_off_c, 9, 36, 101
10, 28824, Note_off_c, 9, 46, 100
10, 28824, Control_c, 9, 64, 127
10, 28832, Control_c, 9, 64, 0
10, 28928, Note_on_c, 9, 44, 15
10, 28952, Note_off_c, 9, 44, 15
10, 28986, Note_off_c, 9, 85, 110
10, 28990, Note_off_c, 9, 40, 109
10, 28992, Note_on_c, 9, 42, 79
10, 29016, Note_off_c, 9, 42, 79
10, 29184, Note_on_c, 9, 49, 72
10, 29184, Note_on_c, 9, 36, 101
10, 29200, Note_off_c, 9, 36, 101
10, 29240, Note_off_c, 9, 49, 72
10, 29568, Note_on_c, 9, 42, 110
10, 29568, Note_on_c, 9, 40, 91
10, 29646, Note_off_c, 9, 42, 110
10, 29752, Note_on_c, 9, 42, 46
10, 29758, Note_off_c, 9, 40, 91
10, 29794, Note_off_c, 9, 42, 46
10, 29856, Note_on_c, 9, 40, 91
10, 29856, Note_on_c, 9, 36, 83
10, 29872, Note_off_c, 9, 36, 83
10, 29952, Note_on_c, 9, 42, 108
10, 29952, Note_on_c, 9, 36, 101
10, 29968, Note_off_c, 9, 36, 101
10, 30030, Note_off_c, 9, 42, 108
10, 30046, Note_off_c, 9, 40, 91
10, 30136, Note_on_c, 9, 42, 42
10, 30186, Note_off_c, 9, 42, 42
10, 30336, Note_on_c, 9, 42, 111
10, 30336, Note_on_c, 9, 40, 91
10, 30452, Note_off_c, 9, 42, 111
10, 30526, Note_off_c, 9, 40, 91
10, 30528, Note_on_c, 9, 46, 94
10, 30528, Note_on_c, 9, 36, 65
10, 30544, Note_off_c, 9, 36, 65
10, 30576, Note_off_c, 9, 46, 94
10, 30624, Note_on_c, 9, 36, 83
10, 30640, Note_off_c, 9, 36, 83
10, 30720, Note_on_c, 9, 42, 119
10, 30720, Note_on_c, 9, 36, 101
10, 30736, Note_off_c, 9, 36, 101
10, 30832, Note_off_c, 9, 42, 119
10, 30910, Note_on_c, 9, 42, 54
10, 30960, Note_off_c, 9, 42, 54
10, 31104, Note_on_c, 9, 42, 111
10, 31104, Note_on_c, 9, 40, 91
10, 31210, Note_off_c, 9, 42, 111
10, 31294, Note_off_c, 9, 40, 91
10, 31294, Note_on_c, 9, 42, 58
10, 31296, Note_on_c, 9, 36, 83
10, 31312, Note_off_c, 9, 36, 83
10, 31336, Note_off_c, 9, 42, 58
10, 31392, Note_on_c, 9, 40, 91
10, 31488, Note_on_c, 9, 42, 110
10, 31488, Note_on_c, 9, 36, 101
10, 31504, Note_off_c, 9, 36, 101
10, 31576, Note_off_c, 9, 42, 110
10, 31582, Note_off_c, 9, 40, 91
10, 31672, Note_on_c, 9, 42, 70
10, 31702, Note_on_c, 9, 85, 39
10, 31710, Note_off_c, 9, 42, 70
10, 31748, Note_off_c, 9, 85, 39
10, 31760, Note_on_c, 9, 85, 64
10, 31810, Note_off_c, 9, 85, 64
10, 31816, Note_on_c, 9, 85, 81
10, 31864, Note_off_c, 9, 85, 81
10, 31868, Note_on_c, 9, 85, 110
10, 31872, Note_on_c, 9, 42, 110
10, 31872, Note_on_c, 9, 40, 91
10, 31896, Control_c, 9, 64, 127
10, 31904, Control_c, 9, 64, 0
10, 31976, Note_off_c, 9, 42, 110
10, 32058, Note_off_c, 9, 85, 110
10, 32062, Note_off_c, 9, 40, 91
10, 32064, Note_on_c, 9, 46, 91
10, 32064, Note_on_c, 9, 36, 65
10, 32080, Note_off_c, 9, 36, 65
10, 32098, Note_off_c, 9, 46, 91
10, 32160, Note_on_c, 9, 36, 83
10, 32176, Note_off_c, 9, 36, 83
10, 32256, Note_on_c, 9, 42, 119
10, 32256, Note_on_c, 9, 36, 101
10, 32272, Note_off_c, 9, 36, 101
10, 32334, Note_off_c, 9, 42, 119
10, 32440, Note_on_c, 9, 42, 46
10, 32482, Note_off_c, 9, 42, 46
10, 32640, Note_on_c, 9, 42, 110
10, 32640, Note_on_c, 9, 40, 91
10, 32656, Note_off_c, 9, 40, 91
10, 32718, Note_off_c, 9, 42, 110
10, 32824, Note_on_c, 9, 42, 46
10, 32866, Note_off_c, 9, 42, 46
10, 32928, Note_on_c, 9, 40, 91
10, 32928, Note_on_c, 9, 36, 83
10, 32944, Note_off_c, 9, 36, 83
10, 32944, Note_off_c, 9, 40, 91
10, 33024, Note_on_c, 9, 42, 108
10, 33024, Note_on_c, 9, 36, 101
10, 33040, Note_off_c, 9, 36, 101
10, 33102, Note_off_c, 9, 42, 108
10, 33208, Note_on_c, 9, 42, 42
10, 33258, Note_off_c, 9, 42, 42
10, 33408, Note_on_c, 9, 42, 111
10, 33408, Note_on_c, 9, 40, 91
10, 33424, Note_off_c, 9, 40, 91
10, 33524, Note_off_c, 9, 42, 111
10, 33600, Note_on_c, 9, 42, 62
10, 33600, Note_on_c, 9, 36, 74
10, 33616, Note_off_c, 9, 36, 74
10, 33632, Note_off_c, 9, 42, 62
10, 33648, Note_on_c, 9, 42, 56
10, 33680, Note_off_c, 9, 42, 56
10, 33696, Note_on_c, 9, 42, 62
10, 33696, Note_on_c, 9, 36, 83
10, 33712, Note_off_c, 9, 36, 83
10, 33728, Note_off_c, 9, 42, 62
10, 33744, Note_on_c, 9, 42, 82
10, 33776, Note_off_c, 9, 42, 82
10, 33792, Note_on_c, 9, 42, 119
10, 33792, Note_on_c, 9, 36, 101
10, 33808, Note_off_c, 9, 36, 101
10, 33904, Note_off_c, 9, 42, 119
10, 33984, Note_on_c, 9, 44, 85
10, 33984, Note_on_c, 9, 40, 72
10, 33984, Note_on_c, 9, 36, 83
10, 34000, Note_off_c, 9, 36, 83
10, 34000, Note_off_c, 9, 40, 72
10, 34022, Note_off_c, 9, 44, 85
10, 34176, Note_on_c, 9, 44, 91
10, 34176, Note_on_c, 9, 40, 84
10, 34176, Note_on_c, 9, 36, 101
10, 34192, Note_off_c, 9, 36, 101
10, 34192, Note_off_c, 9, 40, 84
10, 34218, Note_off_c, 9, 44, 91
10, 34368, Note_on_c, 9, 44, 91
10, 34368, Note_on_c, 9, 40, 91
10, 34368, Note_on_c, 9, 36, 101
10, 34384, Note_off_c, 9, 36, 101
10, 34384, Note_off_c, 9, 40, 91
10, 34406, Note_off_c, 9, 44, 91
10, 34560, Note_on_c, 9, 44, 88
10, 34560, Note_on_c, 9, 40, 101
10, 34576, Note_off_c, 9, 40, 101
10, 34598, Note_off_c, 9, 44, 88
10, 34752, Note_on_c, 9, 44, 85
10, 34752, Note_on_c, 9, 40, 93
10, 34768, Note_off_c, 9, 40, 93
10, 34790, Note_off_c, 9, 44, 85
10, 34844, Note_on_c, 9, 40, 78
10, 34860, Note_off_c, 9, 40, 78
10, 34942, Note_on_c, 9, 48, 73
10, 34944, Note_on_c, 9, 44, 85
10, 34944, Note_on_c, 9, 36, 101
10, 34960, Note_off_c, 9, 36, 101
10, 34968, Control_c, 9, 64, 127
10, 34976, Control_c, 9, 64, 0
10, 34986, Note_off_c, 9, 44, 85
10, 35040, Note_on_c, 9, 40, 58
10, 35056, Note_off_c, 9, 40, 58
10, 35122, Note_off_c, 9, 48, 73
10, 35130, Note_on_c, 9, 45, 69
10, 35136, Note_on_c, 9, 36, 74
10, 35152, Note_off_c, 9, 36, 74
10, 35232, Note_on_c, 9, 40, 64
10, 35232, Note_on_c, 9, 36, 83
10, 35248, Note_off_c, 9, 36, 83
10, 35248, Note_off_c, 9, 40, 64
10, 35278, Note_off_c, 9, 45, 69
10, 35328, Note_on_c, 9, 56, 52
10, 35328, Note_on_c, 9, 54, 61
10, 35328, Note_on_c, 9, 49, 72
10, 35328, Note_on_c, 9, 36, 101
10, 35334, Note_on_c, 9, 75, 52
10, 35344, Note_off_c, 9, 36, 101
10, 35384, Note_off_c, 9, 49, 72
10, 35388, Note_off_c, 9, 54, 61
10, 35420, Note_off_c, 9, 56, 52
10, 35430, Note_on_c, 9, 54, 23
10, 35440, Note_off_c, 9, 75, 52
10, 35486, Note_off_c, 9, 54, 23
10, 35524, Note_on_c, 9, 54, 17
10, 35566, Note_off_c, 9, 54, 17
10, 35616, Note_on_c, 9, 54, 49
10, 35674, Note_off_c, 9, 54, 49
10, 35712, Note_on_c, 9, 54, 78
10, 35712, Note_on_c, 9, 42, 110
10, 35712, Note_on_c, 9, 40, 91
10, 35712, Note_on_c, 9, 36, 101
10, 35714, Note_on_c, 9, 56, 52
10, 35718, Note_on_c, 9, 75, 52
10, 35728, Note_off_c, 9, 36, 101
10, 35770, Note_off_c, 9, 54, 78
10, 35790, Note_off_c, 9, 42, 110
10, 35804, Note_off_c, 9, 75, 52
10, 35804, Note_on_c, 9, 54, 45
10, 35834, Note_off_c, 9, 56, 52
10, 35860, Note_off_c, 9, 54, 45
10, 35896, Note_on_c, 9, 42, 46
10, 35902, Note_off_c, 9, 40, 91
10, 35902, Note_on_c, 9, 54, 26
10, 35938, Note_off_c, 9, 42, 46
10, 35948, Note_off_c, 9, 54, 26
10, 35998, Note_on_c, 9, 54, 52
10, 36000, Note_on_c, 9, 40, 91
10, 36060, Note_off_c, 9, 54, 52
10, 36092, Note_on_c, 9, 56, 52
10, 36094, Note_on_c, 9, 75, 52
10, 36094, Note_on_c, 9, 54, 31
10, 36096, Note_on_c, 9, 42, 108
10, 36096, Note_on_c, 9, 36, 101
10, 36112, Note_off_c, 9, 36, 101
10, 36148, Note_off_c, 9, 54, 31
10, 36172, Note_off_c, 9, 75, 52
10, 36174, Note_off_c, 9, 42, 108
10, 36188, Note_on_c, 9, 54, 49
10, 36190, Note_off_c, 9, 40, 91
10, 36220, Note_off_c, 9, 56, 52
10, 36250, Note_off_c, 9, 54, 49
10, 36280, Note_on_c, 9, 42, 42
10, 36284, Note_on_c, 9, 54, 34
10, 36328, Note_off_c, 9, 54, 34
10, 36330, Note_off_c, 9, 42, 42
10, 36382, Note_on_c, 9, 54, 43
10, 36440, Note_off_c, 9, 54, 43
10, 36476, Note_on_c, 9, 54, 58
10, 36478, Note_on_c, 9, 56, 52
10, 36478, Note_on_c, 9, 75, 52
10, 36480, Note_on_c, 9, 42, 111
10, 36480, Note_on_c, 9, 40, 91
10, 36480, Note_on_c, 9, 36, 101
10, 36496, Note_off_c, 9, 36, 101
10, 36530, Note_off_c, 9, 54, 58
10, 36546, Note_off_c, 9, 75, 52
10, 36574, Note_on_c, 9, 54, 37
10, 36596, Note_off_c, 9, 42, 111
10, 36636, Note_off_c, 9, 54, 37
10, 36650, Note_off_c, 9, 56, 52
10, 36670, Note_off_c, 9, 40, 91
10, 36670, Note_on_c, 9, 54, 52
10, 36672, Note_on_c, 9, 46, 94
10, 36714, Note_off_c, 9, 54, 52
10, 36720, Note_off_c, 9, 46, 94
10, 36768, Note_on_c, 9, 54, 31
10, 36826, Note_off_c, 9, 54, 31
10, 36862, Note_on_c, 9, 56, 52
10, 36864, Note_on_c, 9, 54, 61
10, 36864, Note_on_c, 9, 42, 119
10, 36864, Note_on_c, 9, 36, 101
10, 36870, Note_on_c, 9, 75, 52
10, 36880, Note_off_c, 9, 36, 101
10, 36924, Note_off_c, 9, 54, 61
10, 36966, Note_on_c, 9, 54, 23
10, 36976, Note_off_c, 9, 75, 52
10, 36976, Note_off_c, 9, 42, 119
10, 36992, Note_off_c, 9, 56, 52
10, 37022, Note_off_c, 9, 54, 23
10, 37054, Note_on_c, 9, 42, 54
10, 37060, Note_on_c, 9, 54, 17
10, 37102, Note_off_c, 9, 54, 17
10, 37104, Note_off_c, 9, 42, 54
10, 37152, Note_on_c, 9, 54, 49
10, 37152, Note_on_c, 9, 42, 44
10, 37202, Note_off_c, 9, 42, 44
10, 37210, Note_off_c, 9, 54, 49
10, 37246, Note_on_c, 9, 56, 52
10, 37248, Note_on_c, 9, 54, 78
10, 37248, Note_on_c, 9, 42, 111
10, 37248, Note_on_c, 9, 40, 91
10, 37248, Note_on_c, 9, 36, 101
10, 37254, Note_on_c, 9, 75, 52
10, 37264, Note_off_c, 9, 36, 101
10, 37306, Note_off_c, 9, 54, 78
10, 37340, Note_off_c, 9, 75, 52
10, 37340, Note_on_c, 9, 54, 43
10, 37354, Note_off_c, 9, 42, 111
10, 37366, Note_off_c, 9, 56, 52
10, 37396, Note_off_c, 9, 54, 43
10, 37438, Note_off_c, 9, 40, 91
10, 37438, Note_on_c, 9, 54, 26
10, 37438, Note_on_c, 9, 42, 58
10, 37480, Note_off_c, 9, 42, 58
10, 37484, Note_off_c, 9, 54, 26
10, 37534, Note_on_c, 9, 54, 46
10, 37536, Note_on_c, 9, 40, 91
10, 37596, Note_off_c, 9, 54, 46
10, 37630, Note_on_c, 9, 56, 52
10, 37630, Note_on_c, 9, 75, 52
10, 37630, Note_on_c, 9, 54, 31
10, 37632, Note_on_c, 9, 42, 110
10, 37632, Note_on_c, 9, 36, 101
10, 37648, Note_off_c, 9, 36, 101
10, 37684, Note_off_c, 9, 54, 31
10, 37708, Note_off_c, 9, 75, 52
10, 37720, Note_off_c, 9, 42, 110
10, 37724, Note_on_c, 9, 54, 49
10, 37726, Note_off_c, 9, 40, 91
10, 37764, Note_off_c, 9, 56, 52
10, 37786, Note_off_c, 9, 54, 49
10, 37816, Note_on_c, 9, 42, 70
10, 37820, Note_on_c, 9, 54, 34
10, 37854, Note_off_c, 9, 42, 70
10, 37864, Note_off_c, 9, 54, 34
10, 37918, Note_on_c, 9, 54, 43
10, 37976, Note_off_c, 9, 54, 43
10, 38012, Note_on_c, 9, 54, 58
10, 38014, Note_on_c, 9, 56, 52
10, 38014, Note_on_c, 9, 75, 52
10, 38016, Note_on_c, 9, 42, 110
10, 38016, Note_on_c, 9, 40, 91
10, 38016, Note_on_c, 9, 36, 101
10, 38032, Note_off_c, 9, 36, 101
10, 38040, Control_c, 9, 64, 127
10, 38048, Control_c, 9, 64, 0
10, 38066, Note_off_c, 9, 54, 58
10, 38082, Note_off_c, 9, 75, 52
10, 38110, Note_on_c, 9, 54, 37
10, 38120, Note_off_c, 9, 42, 110
10, 38136, Note_off_c, 9, 56, 52
10, 38172, Note_off_c, 9, 54, 37
10, 38206, Note_off_c, 9, 40, 91
10, 38206, Note_on_c, 9, 54, 52
10, 38208, Note_on_c, 9, 46, 91
10, 38242, Note_off_c, 9, 46, 91
10, 38250, Note_off_c, 9, 54, 52
10, 38304, Note_on_c, 9, 54, 31
10, 38362, Note_off_c, 9, 54, 31
10, 38400, Note_on_c, 9, 56, 52
10, 38400, Note_on_c, 9, 54, 61
10, 38400, Note_on_c, 9, 42, 119
10, 38400, Note_on_c, 9, 36, 101
10, 38406, Note_on_c, 9, 75, 52
10, 38416, Note_off_c, 9, 36, 101
10, 38460, Note_off_c, 9, 54, 61
10, 38492, Note_off_c, 9, 56, 52
10, 38502, Note_on_c, 9, 54, 23
10, 38512, Note_off_c, 9, 75, 52
10, 38512, Note_off_c, 9, 42, 119
10, 38558, Note_off_c, 9, 54, 23
10, 38590, Note_on_c, 9, 42, 54
10, 38596, Note_on_c, 9, 54, 17
10, 38638, Note_off_c, 9, 54, 17
10, 38640, Note_off_c, 9, 42, 54
10, 38684, Note_on_c, 9, 42, 65
10, 38688, Note_on_c, 9, 54, 49
10, 38734, Note_off_c, 9, 42, 65
10, 38746, Note_off_c, 9, 54, 49
10, 38784, Note_on_c, 9, 54, 78
10, 38784, Note_on_c, 9, 42, 110
10, 38784, Note_on_c, 9, 40, 91
10, 38784, Note_on_c, 9, 36, 101
10, 38786, Note_on_c, 9, 56, 52
10, 38790, Note_on_c, 9, 75, 52
10, 38800, Note_off_c, 9, 36, 101
10, 38842, Note_off_c, 9, 54, 78
10, 38862, Note_off_c, 9, 42, 110
10, 38876, Note_off_c, 9, 75, 52
10, 38876, Note_on_c, 9, 54, 45
10, 38906, Note_off_c, 9, 56, 52
10, 38932, Note_off_c, 9, 54, 45
10, 38968, Note_on_c, 9, 42, 46
10, 38974, Note_off_c, 9, 40, 91
10, 38974, Note_on_c, 9, 54, 26
10, 39010, Note_off_c, 9, 42, 46
10, 39020, Note_off_c, 9, 54, 26
10, 39070, Note_on_c, 9, 54, 52
10, 39072, Note_on_c, 9, 40, 91
10, 39132, Note_off_c, 9, 54, 52
10, 39164, Note_on_c, 9, 56, 52
10, 39166, Note_on_c, 9, 75, 52
10, 39166, Note_on_c, 9, 54, 31
10, 39168, Note_on_c, 9, 42, 108
10, 39168, Note_on_c, 9, 36, 101
10, 39184, Note_off_c, 9, 36, 101
10, 39220, Note_off_c, 9, 54, 31
10, 39244, Note_off_c, 9, 75, 52
10, 39246, Note_off_c, 9, 42, 108
10, 39260, Note_on_c, 9, 54, 49
10, 39262, Note_off_c, 9, 40, 91
10, 39292, Note_off_c, 9, 56, 52
10, 39322, Note_off_c, 9, 54, 49
10, 39352, Note_on_c, 9, 42, 42
10, 39356, Note_on_c, 9, 54, 34
10, 39400, Note_off_c, 9, 54, 34
10, 39402, Note_off_c, 9, 42, 42
10, 39454, Note_on_c, 9, 54, 43
10, 39512, Note_off_c, 9, 54, 43
10, 39548, Note_on_c, 9, 54, 58
10, 39550, Note_on_c, 9, 56, 52
10, 39550, Note_on_c, 9, 75, 52
10, 39552, Note_on_c, 9, 42, 111
10, 39552, Note_on_c, 9, 40, 91
10, 39552, Note_on_c, 9, 36, 101
10, 39568, Note_off_c, 9, 36, 101
10, 39602, Note_off_c, 9, 54, 58
10, 39618, Note_off_c, 9, 75, 52
10, 39620, Note_off_c, 9, 42, 111
10, 39646, Note_on_c, 9, 54, 37
10, 39648, Note_on_c, 9, 42, 94
10, 39648, Note_on_c, 9, 36, 65
10, 39664, Note_off_c, 9, 36, 65
10, 39696, Note_off_c, 9, 42, 94
10, 39708, Note_off_c, 9, 54, 37
10, 39722, Note_off_c, 9, 56, 52
10, 39742, Note_off_c, 9, 40, 91
10, 39742, Note_on_c, 9, 54, 52
10, 39744, Note_on_c, 9, 42, 76
10, 39744, Note_on_c, 9, 36, 83
10, 39760, Note_off_c, 9, 36, 83
10, 39786, Note_off_c, 9, 54, 52
10, 39792, Note_off_c, 9, 42, 76
10, 39840, Note_on_c, 9, 54, 31
10, 39840, Note_on_c, 9, 42, 97
10, 39888, Note_off_c, 9, 42, 97
10, 39898, Note_off_c, 9, 54, 31
10, 39934, Note_on_c, 9, 56, 52
10, 39936, Note_on_c, 9, 54, 61
10, 39936, Note_on_c, 9, 42, 119
10, 39936, Note_on_c, 9, 36, 101
10, 39942, Note_on_c, 9, 75, 52
10, 39952, Note_off_c, 9, 36, 101
10, 39996, Note_off_c, 9, 54, 61
10, 40038, Note_on_c, 9, 54, 23
10, 40048, Note_off_c, 9, 75, 52
10, 40048, Note_off_c, 9, 42, 119
10, 40064, Note_off_c, 9, 56, 52
10, 40094, Note_off_c, 9, 54, 23
10, 40126, Note_on_c, 9, 42, 54
10, 40132, Note_on_c, 9, 54, 17
10, 40174, Note_off_c, 9, 54, 17
10, 40176, Note_off_c, 9, 42, 54
10, 40224, Note_on_c, 9, 54, 49
10, 40282, Note_off_c, 9, 54, 49
10, 40318, Note_on_c, 9, 56, 52
10, 40320, Note_on_c, 9, 54, 78
10, 40320, Note_on_c, 9, 42, 111
10, 40320, Note_on_c, 9, 40, 91
10, 40320, Note_on_c, 9, 36, 101
10, 40326, Note_on_c, 9, 75, 52
10, 40336, Note_off_c, 9, 36, 101
10, 40378, Note_off_c, 9, 54, 78
10, 40412, Note_off_c, 9, 75, 52
10, 40412, Note_on_c, 9, 54, 43
10, 40426, Note_off_c, 9, 42, 111
10, 40438, Note_off_c, 9, 56, 52
10, 40468, Note_off_c, 9, 54, 43
10, 40510, Note_off_c, 9, 40, 91
10, 40510, Note_on_c, 9, 54, 26
10, 40510, Note_on_c, 9, 42, 58
10, 40552, Note_off_c, 9, 42, 58
10, 40556, Note_off_c, 9, 54, 26
10, 40606, Note_on_c, 9, 54, 46
10, 40608, Note_on_c, 9, 40, 91
10, 40668, Note_off_c, 9, 54, 46
10, 40702, Note_on_c, 9, 56, 52
10, 40702, Note_on_c, 9, 75, 52
10, 40702, Note_on_c, 9, 54, 31
10, 40704, Note_on_c, 9, 42, 110
10, 40704, Note_on_c, 9, 36, 101
10, 40720, Note_off_c, 9, 36, 101
10, 40756, Note_off_c, 9, 54, 31
10, 40780, Note_off_c, 9, 75, 52
10, 40792, Note_off_c, 9, 42, 110
10, 40796, Note_on_c, 9, 54, 49
10, 40798, Note_off_c, 9, 40, 91
10, 40836, Note_off_c, 9, 56, 52
10, 40858, Note_off_c, 9, 54, 49
10, 40888, Note_on_c, 9, 42, 70
10, 40892, Note_on_c, 9, 54, 34
10, 40926, Note_off_c, 9, 42, 70
10, 40936, Note_off_c, 9, 54, 34
10, 40990, Note_on_c, 9, 54, 43
10, 41048, Note_off_c, 9, 54, 43
10, 41084, Note_on_c, 9, 54, 58
10, 41086, Note_on_c, 9, 56, 52
10, 41086, Note_on_c, 9, 75, 52
10, 41088, Note_on_c, 9, 42, 110
10, 41088, Note_on_c, 9, 40, 91
10, 41088, Note_on_c, 9, 36, 101
10, 41104, Note_off_c, 9, 36, 101
10, 41112, Control_c, 9, 64, 127
10, 41120, Control_c, 9, 64, 0
10, 41138, Note_off_c, 9, 54, 58
10, 41154, Note_off_c, 9, 75, 52
10, 41182, Note_on_c, 9, 54, 37
10, 41192, Note_off_c, 9, 42, 110
10, 41208, Note_off_c, 9, 56, 52
10, 41244, Note_off_c, 9, 54, 37
10, 41278, Note_off_c, 9, 40, 91
10, 41278, Note_on_c, 9, 54, 52
10, 41280, Note_on_c, 9, 46, 91
10, 41314, Note_off_c, 9, 46, 91
10, 41322, Note_off_c, 9, 54, 52
10, 41376, Note_on_c, 9, 54, 31
10, 41376, Note_on_c, 9, 36, 83
10, 41392, Note_off_c, 9, 36, 83
10, 41434, Note_off_c, 9, 54, 31
10, 41472, Note_on_c, 9, 56, 52
10, 41472, Note_on_c, 9, 54, 61
10, 41472, Note_on_c, 9, 49, 72
10, 41472, Note_on_c, 9, 36, 101
10, 41478, Note_on_c, 9, 75, 52
10, 41488, Note_off_c, 9, 36, 101
10, 41528, Note_off_c, 9, 49, 72
10, 41532, Note_off_c, 9, 54, 61
10, 41564, Note_off_c, 9, 56, 52
10, 41574, Note_on_c, 9, 54, 23
10, 41584, Note_off_c, 9, 75, 52
10, 41630, Note_off_c, 9, 54, 23
10, 41668, Note_on_c, 9, 54, 17
10, 41710, Note_off_c, 9, 54, 17
10, 41760, Note_on_c, 9, 54, 49
10, 41818, Note_off_c, 9, 54, 49
10, 41856, Note_on_c, 9, 54, 78
10, 41856, Note_on_c, 9, 42, 110
10, 41856, Note_on_c, 9, 40, 91
10, 41856, Note_on_c, 9, 36, 101
10, 41858, Note_on_c, 9, 56, 52
10, 41862, Note_on_c, 9, 75, 52
10, 41872, Note_off_c, 9, 36, 101
10, 41914, Note_off_c, 9, 54, 78
10, 41934, Note_off_c, 9, 42, 110
10, 41948, Note_off_c, 9, 75, 52
10, 41948, Note_on_c, 9, 54, 45
10, 41978, Note_off_c, 9, 56, 52
10, 42004, Note_off_c, 9, 54, 45
10, 42040, Note_on_c, 9, 42, 46
10, 42046, Note_off_c, 9, 40, 91
10, 42046, Note_on_c, 9, 54, 26
10, 42082, Note_off_c, 9, 42, 46
10, 42092, Note_off_c, 9, 54, 26
10, 42142, Note_on_c, 9, 54, 52
10, 42144, Note_on_c, 9, 40, 91
10, 42204, Note_off_c, 9, 54, 52
10, 42236, Note_on_c, 9, 56, 52
10, 42238, Note_on_c, 9, 75, 52
10, 42238, Note_on_c, 9, 54, 31
10, 42240, Note_on_c, 9, 42, 108
10, 42240, Note_on_c, 9, 36, 101
10, 42256, Note_off_c, 9, 36, 101
10, 42292, Note_off_c, 9, 54, 31
10, 42316, Note_off_c, 9, 75, 52
10, 42318, Note_off_c, 9, 42, 108
10, 42332, Note_on_c, 9, 54, 49
10, 42334, Note_off_c, 9, 40, 91
10, 42364, Note_off_c, 9, 56, 52
10, 42394, Note_off_c, 9, 54, 49
10, 42424, Note_on_c, 9, 42, 42
10, 42428, Note_on_c, 9, 54, 34
10, 42472, Note_off_c, 9, 54, 34
10, 42474, Note_off_c, 9, 42, 42
10, 42526, Note_on_c, 9, 54, 43
10, 42584, Note_off_c, 9, 54, 43
10, 42620, Note_on_c, 9, 54, 58
10, 42622, Note_on_c, 9, 56, 52
10, 42622, Note_on_c, 9, 75, 52
10, 42624, Note_on_c, 9, 42, 111
10, 42624, Note_on_c, 9, 40, 91
10, 42624, Note_on_c, 9, 36, 101
10, 42640, Note_off_c, 9, 36, 101
10, 42674, Note_off_c, 9, 54, 58
10, 42690, Note_off_c, 9, 75, 52
10, 42718, Note_on_c, 9, 54, 37
10, 42740, Note_off_c, 9, 42, 111
10, 42780, Note_off_c, 9, 54, 37
10, 42794, Note_off_c, 9, 56, 52
10, 42814, Note_off_c, 9, 40, 91
10, 42814, Note_on_c, 9, 54, 52
10, 42816, Note_on_c, 9, 46, 94
10, 42858, Note_off_c, 9, 54, 52
10, 42864, Note_off_c, 9, 46, 94
10, 42912, Note_on_c, 9, 54, 31
10, 42970, Note_off_c, 9, 54, 31
10, 43006, Note_on_c, 9, 56, 52
10, 43008, Note_on_c, 9, 54, 61
10, 43008, Note_on_c, 9, 42, 119
10, 43008, Note_on_c, 9, 36, 101
10, 43014, Note_on_c, 9, 75, 52
10, 43024, Note_off_c, 9, 36, 101
10, 43068, Note_off_c, 9, 54, 61
10, 43110, Note_on_c, 9, 54, 23
10, 43120, Note_off_c, 9, 75, 52
10, 43120, Note_off_c, 9, 42, 119
10, 43136, Note_off_c, 9, 56, 52
10, 43166, Note_off_c, 9, 54, 23
10, 43198, Note_on_c, 9, 42, 54
10, 43204, Note_on_c, 9, 54, 17
10, 43246, Note_off_c, 9, 54, 17
10, 43248, Note_off_c, 9, 42, 54
10, 43296, Note_on_c, 9, 54, 49
10, 43296, Note_on_c, 9, 42, 44
10, 43346, Note_off_c, 9, 42, 44
10, 43354, Note_off_c, 9, 54, 49
10, 43390, Note_on_c, 9, 56, 52
10, 43392, Note_on_c, 9, 54, 78
10, 43392, Note_on_c, 9, 42, 111
10, 43392, Note_on_c, 9, 40, 91
10, 43392, Note_on_c, 9, 36, 101
10, 43398, Note_on_c, 9, 75, 52
10, 43408, Note_off_c, 9, 36, 101
10, 43450, Note_off_c, 9, 54, 78
10, 43484, Note_off_c, 9, 75, 52
10, 43484, Note_on_c, 9, 54, 43
10, 43498, Note_off_c, 9, 42, 111
10, 43510, Note_off_c, 9, 56, 52
10, 43540, Note_off_c, 9, 54, 43
10, 43582, Note_off_c, 9, 40, 91
10, 43582, Note_on_c, 9, 54, 26
10, 43582, Note_on_c, 9, 42, 58
10, 43624, Note_off_c, 9, 42, 58
10, 43628, Note_off_c, 9, 54, 26
10, 43678, Note_on_c, 9, 54, 46
10, 43680, Note_on_c, 9, 40, 91
10, 43740, Note_off_c, 9, 54, 46
10, 43774, Note_on_c, 9, 56, 52
10, 43774, Note_on_c, 9, 75, 52
10, 43774, Note_on_c, 9, 54, 31
10, 43776, Note_on_c, 9, 42, 110
10, 43776, Note_on_c, 9, 36, 101
10, 43792, Note_off_c, 9, 36, 101
10, 43828, Note_off_c, 9, 54, 31
10, 43852, Note_off_c, 9, 75, 52
10, 43864, Note_off_c, 9, 42, 110
10, 43868, Note_on_c, 9, 54, 49
10, 43870, Note_off_c, 9, 40, 91
10, 43908, Note_off_c, 9, 56, 52
10, 43930, Note_off_c, 9, 54, 49
10, 43960, Note_on_c, 9, 42, 70
10, 43964, Note_on_c, 9, 54, 34
10, 43998, Note_off_c, 9, 42, 70
10, 44008, Note_off_c, 9, 54, 34
10, 44062, Note_on_c, 9, 54, 43
10, 44120, Note_off_c, 9, 54, 43
10, 44156, Note_on_c, 9, 54, 58
10, 44158, Note_on_c, 9, 56, 52
10, 44158, Note_on_c, 9, 75, 52
10, 44160, Note_on_c, 9, 42, 110
10, 44160, Note_on_c, 9, 40, 91
10, 44160, Note_on_c, 9, 36, 101
10, 44176, Note_off_c, 9, 36, 101
10, 44184, Control_c, 9, 64, 127
10, 44192, Control_c, 9, 64, 0
10, 44210, Note_off_c, 9, 54, 58
10, 44226, Note_off_c, 9, 75, 52
10, 44254, Note_on_c, 9, 54, 37
10, 44264, Note_off_c, 9, 42, 110
10, 44280, Note_off_c, 9, 56, 52
10, 44316, Note_off_c, 9, 54, 37
10, 44350, Note_off_c, 9, 40, 91
10, 44350, Note_on_c, 9, 54, 52
10, 44352, Note_on_c, 9, 46, 91
10, 44386, Note_off_c, 9, 46, 91
10, 44394, Note_off_c, 9, 54, 52
10, 44448, Note_on_c, 9, 54, 31
10, 44506, Note_off_c, 9, 54, 31
10, 44544, Note_on_c, 9, 56, 52
10, 44544, Note_on_c, 9, 54, 61
10, 44544, Note_on_c, 9, 42, 119
10, 44544, Note_on_c, 9, 36, 101
10, 44550, Note_on_c, 9, 75, 52
10, 44560, Note_off_c, 9, 36, 101
10, 44604, Note_off_c, 9, 54, 61
10, 44636, Note_off_c, 9, 56, 52
10, 44646, Note_on_c, 9, 54, 23
10, 44656, Note_off_c, 9, 75, 52
10, 44656, Note_off_c, 9, 42, 119
10, 44702, Note_off_c, 9, 54, 23
10, 44734, Note_on_c, 9, 42, 54
10, 44740, Note_on_c, 9, 54, 17
10, 44782, Note_off_c, 9, 54, 17
10, 44784, Note_off_c, 9, 42, 54
10, 44828, Note_on_c, 9, 42, 65
10, 44832, Note_on_c, 9, 54, 49
10, 44878, Note_off_c, 9, 42, 65
10, 44890, Note_off_c, 9, 54, 49
10, 44928, Note_on_c, 9, 54, 78
10, 44928, Note_on_c, 9, 42, 110
10, 44928, Note_on_c, 9, 40, 91
10, 44928, Note_on_c, 9, 36, 101
10, 44930, Note_on_c, 9, 56, 52
10, 44934, Note_on_c, 9, 75, 52
10, 44944, Note_off_c, 9, 36, 101
10, 44986, Note_off_c, 9, 54, 78
10, 45006, Note_off_c, 9, 42, 110
10, 45020, Note_off_c, 9, 75, 52
10, 45020, Note_on_c, 9, 54, 45
10, 45050, Note_off_c, 9, 56, 52
10, 45076, Note_off_c, 9, 54, 45
10, 45112, Note_on_c, 9, 42, 46
10, 45118, Note_off_c, 9, 40, 91
10, 45118, Note_on_c, 9, 54, 26
10, 45154, Note_off_c, 9, 42, 46
10, 45164, Note_off_c, 9, 54, 26
10, 45214, Note_on_c, 9, 54, 52
10, 45216, Note_on_c, 9, 40, 91
10, 45276, Note_off_c, 9, 54, 52
10, 45308, Note_on_c, 9, 56, 52
10, 45310, Note_on_c, 9, 75, 52
10, 45310, Note_on_c, 9, 54, 31
10, 45312, Note_on_c, 9, 42, 108
10, 45312, Note_on_c, 9, 36, 101
10, 45328, Note_off_c, 9, 36, 101
10, 45364, Note_off_c, 9, 54, 31
10, 45388, Note_off_c, 9, 75, 52
10, 45390, Note_off_c, 9, 42, 108
10, 45404, Note_on_c, 9, 54, 49
10, 45406, Note_off_c, 9, 40, 91
10, 45436, Note_off_c, 9, 56, 52
10, 45466, Note_off_c, 9, 54, 49
10, 45496, Note_on_c, 9, 42, 42
10, 45500, Note_on_c, 9, 54, 34
10, 45544, Note_off_c, 9, 54, 34
10, 45546, Note_off_c, 9, 42, 42
10, 45598, Note_on_c, 9, 54, 43
10, 45656, Note_off_c, 9, 54, 43
10, 45692, Note_on_c, 9, 54, 58
10, 45694, Note_on_c, 9, 56, 52
10, 45694, Note_on_c, 9, 75, 52
10, 45696, Note_on_c, 9, 42, 108
10, 45696, Note_on_c, 9, 40, 91
10, 45696, Note_on_c, 9, 36, 101
10, 45712, Note_off_c, 9, 36, 101
10, 45746, Note_off_c, 9, 54, 58
10, 45762, Note_off_c, 9, 75, 52
10, 45774, Note_off_c, 9, 42, 108
10, 45790, Note_on_c, 9, 54, 37
10, 45792, Note_on_c, 9, 36, 65
10, 45808, Note_off_c, 9, 36, 65
10, 45852, Note_off_c, 9, 54, 37
10, 45866, Note_off_c, 9, 56, 52
10, 45886, Note_off_c, 9, 40, 91
10, 45886, Note_on_c, 9, 54, 52
10, 45888, Note_on_c, 9, 46, 91
10, 45888, Note_on_c, 9, 36, 83
10, 45904, Note_off_c, 9, 36, 83
10, 45930, Note_off_c, 9, 54, 52
10, 45938, Note_off_c, 9, 46, 91
10, 45984, Note_on_c, 9, 54, 31
10, 46042, Note_off_c, 9, 54, 31
10, 46078, Note_on_c, 9, 56, 52
10, 46080, Note_on_c, 9, 54, 61
10, 46080, Note_on_c, 9, 42, 119
10, 46080, Note_on_c, 9, 36, 101
10, 46086, Note_on_c, 9, 75, 52
10, 46096, Note_off_c, 9, 36, 101
10, 46140, Note_off_c, 9, 54, 61
10, 46182, Note_on_c, 9, 54, 23
10, 46192, Note_off_c, 9, 75, 52
10, 46192, Note_off_c, 9, 42, 119
10, 46208, Note_off_c, 9, 56, 52
10, 46238, Note_off_c, 9, 54, 23
10, 46270, Note_on_c, 9, 42, 54
10, 46272, Note_on_c, 9, 36, 101
10, 46276, Note_on_c, 9, 54, 17
10, 46288, Note_off_c, 9, 36, 101
10, 46318, Note_off_c, 9, 54, 17
10, 46320, Note_off_c, 9, 42, 54
10, 46368, Note_on_c, 9, 54, 49
10, 46426, Note_off_c, 9, 54, 49
10, 46462, Note_on_c, 9, 56, 52
10, 46464, Note_on_c, 9, 54, 78
10, 46464, Note_on_c, 9, 42, 111
10, 46464, Note_on_c, 9, 40, 91
10, 46464, Note_on_c, 9, 36, 101
10, 46470, Note_on_c, 9, 75, 52
10, 46480, Note_off_c, 9, 36, 101
10, 46522, Note_off_c, 9, 54, 78
10, 46556, Note_off_c, 9, 75, 52
10, 46556, Note_on_c, 9, 54, 43
10, 46570, Note_off_c, 9, 42, 111
10, 46582, Note_off_c, 9, 56, 52
10, 46612, Note_off_c, 9, 54, 43
10, 46654, Note_off_c, 9, 40, 91
10, 46654, Note_on_c, 9, 54, 26
10, 46656, Note_on_c, 9, 40, 64
10, 46656, Note_on_c, 9, 36, 101
10, 46672, Note_off_c, 9, 36, 101
10, 46700, Note_off_c, 9, 54, 26
10, 46716, Note_off_c, 9, 40, 64
10, 46750, Note_on_c, 9, 54, 46
10, 46760, Note_on_c, 9, 40, 87
10, 46812, Note_off_c, 9, 54, 46
10, 46820, Note_off_c, 9, 40, 87
10, 46846, Note_on_c, 9, 56, 52
10, 46846, Note_on_c, 9, 75, 52
10, 46846, Note_on_c, 9, 54, 31
10, 46848, Note_on_c, 9, 42, 110
10, 46848, Note_on_c, 9, 40, 104
10, 46848, Note_on_c, 9, 36, 101
10, 46864, Note_off_c, 9, 36, 101
10, 46900, Note_off_c, 9, 54, 31
10, 46908, Note_off_c, 9, 40, 104
10, 46924, Note_off_c, 9, 75, 52
10, 46936, Note_off_c, 9, 42, 110
10, 46940, Note_on_c, 9, 54, 49
10, 46980, Note_off_c, 9, 56, 52
10, 47002, Note_off_c, 9, 54, 49
10, 47032, Note_on_c, 9, 42, 70
10, 47036, Note_on_c, 9, 54, 34
10, 47040, Note_on_c, 9, 40, 95
10, 47040, Note_on_c, 9, 36, 101
10, 47056, Note_off_c, 9, 36, 101
10, 47070, Note_off_c, 9, 42, 70
10, 47080, Note_off_c, 9, 54, 34
10, 47134, Note_on_c, 9, 54, 43
10, 47192, Note_off_c, 9, 54, 43
10, 47228, Note_on_c, 9, 54, 58
10, 47230, Note_off_c, 9, 40, 95
10, 47230, Note_on_c, 9, 56, 52
10, 47230, Note_on_c, 9, 75, 52
10, 47230, Note_on_c, 9, 48, 90
10, 47232, Note_on_c, 9, 42, 111
10, 47232, Note_on_c, 9, 36, 101
10, 47248, Note_off_c, 9, 36, 101
10, 47256, Control_c, 9, 64, 127
10, 47264, Control_c, 9, 64, 0
10, 47282, Note_off_c, 9, 54, 58
10, 47298, Note_off_c, 9, 75, 52
10, 47300, Note_off_c, 9, 42, 111
10, 47320, Note_off_c, 9, 48, 90
10, 47326, Note_on_c, 9, 54, 37
10, 47328, Note_on_c, 9, 48, 58
10, 47328, Note_on_c, 9, 42, 94
10, 47352, Note_off_c, 9, 56, 52
10, 47376, Note_off_c, 9, 42, 94
10, 47388, Note_off_c, 9, 54, 37
10, 47418, Note_off_c, 9, 48, 58
10, 47418, Note_on_c, 9, 45, 75
10, 47422, Note_on_c, 9, 54, 52
10, 47424, Note_on_c, 9, 42, 76
10, 47466, Note_off_c, 9, 54, 52
10, 47472, Note_off_c, 9, 42, 76
10, 47496, Note_off_c, 9, 45, 75
10, 47516, Note_on_c, 9, 45, 49
10, 47520, Note_on_c, 9, 54, 31
10, 47520, Note_on_c, 9, 42, 97
10, 47520, Note_on_c, 9, 36, 83
10, 47536, Note_off_c, 9, 36, 83
10, 47568, Note_off_c, 9, 42, 97
10, 47578, Note_off_c, 9, 54, 31
10, 47594, Note_off_c, 9, 45, 49
10, 47616, Note_on_c, 9, 56, 52
10, 47616, Note_on_c, 9, 54, 61
10, 47616, Note_on_c, 9, 49, 72
10, 47616, Note_on_c, 9, 36, 101
10, 47622, Note_on_c, 9, 75, 52
10, 47632, Note_off_c, 9, 36, 101
10, 47672, Note_off_c, 9, 49, 72
10, 47676, Note_off_c, 9, 54, 61
10, 47708, Note_off_c, 9, 56, 52
10, 47718, Note_on_c, 9, 54, 23
10, 47728, Note_off_c, 9, 75, 52
10, 47774, Note_off_c, 9, 54, 23
10, 47812, Note_on_c, 9, 54, 17
10, 47854, Note_off_c, 9, 54, 17
10, 47904, Note_on_c, 9, 54, 49
10, 47962, Note_off_c, 9, 54, 49
10, 48000, Note_on_c, 9, 54, 78
10, 48000, Note_on_c, 9, 42, 110
10, 48000, Note_on_c, 9, 40, 91
10, 48000, Note_on_c, 9, 36, 101
10, 48002, Note_on_c, 9, 56, 52
10, 48006, Note_on_c, 9, 75, 52
10, 48016, Note_off_c, 9, 36, 101
10, 48058, Note_off_c, 9, 54, 78
10, 48078, Note_off_c, 9, 42, 110
10, 48092, Note_off_c, 9, 75, 52
10, 48092, Note_on_c, 9, 54, 45
10, 48122, Note_off_c, 9, 56, 52
10, 48148, Note_off_c, 9, 54, 45
10, 48184, Note_on_c, 9, 42, 46
10, 48190, Note_off_c, 9, 40, 91
10, 48190, Note_on_c, 9, 54, 26
10, 48226, Note_off_c, 9, 42, 46
10, 48236, Note_off_c, 9, 54, 26
10, 48286, Note_on_c, 9, 54, 52
10, 48288, Note_on_c, 9, 40, 91
10, 48348, Note_off_c, 9, 54, 52
10, 48380, Note_on_c, 9, 56, 52
10, 48382, Note_on_c, 9, 75, 52
10, 48382, Note_on_c, 9, 54, 31
10, 48384, Note_on_c, 9, 42, 108
10, 48384, Note_on_c, 9, 36, 101
10, 48400, Note_off_c, 9, 36, 101
10, 48436, Note_off_c, 9, 54, 31
10, 48460, Note_off_c, 9, 75, 52
10, 48462, Note_off_c, 9, 42, 108
10, 48476, Note_on_c, 9, 54, 49
10, 48478, Note_off_c, 9, 40, 91
10, 48508, Note_off_c, 9, 56, 52
10, 48538, Note_off_c, 9, 54, 49
10, 48568, Note_on_c, 9, 42, 42
10, 48572, Note_on_c, 9, 54, 34
10, 48616, Note_off_c, 9, 54, 34
10, 48618, Note_off_c, 9, 42, 42
10, 48670, Note_on_c, 9, 54, 43
10, 48728, Note_off_c, 9, 54, 43
10, 48764, Note_on_c, 9, 54, 58
10, 48766, Note_on_c, 9, 56, 52
10, 48766, Note_on_c, 9, 75, 52
10, 48768, Note_on_c, 9, 42, 111
10, 48768, Note_on_c, 9, 40, 91
10, 48768, Note_on_c, 9, 36, 101
10, 48784, Note_off_c, 9, 36, 101
10, 48818, Note_off_c, 9, 54, 58
10, 48834, Note_off_c, 9, 75, 52
10, 48862, Note_on_c, 9, 54, 37
10, 48884, Note_off_c, 9, 42, 111
10, 48924, Note_off_c, 9, 54, 37
10, 48938, Note_off_c, 9, 56, 52
10, 48958, Note_off_c, 9, 40, 91
10, 48958, Note_on_c, 9, 54, 52
10, 48960, Note_on_c, 9, 46, 94
10, 49002, Note_off_c, 9, 54, 52
10, 49008, Note_off_c, 9, 46, 94
10, 49056, Note_on_c, 9, 54, 31
10, 49114, Note_off_c, 9, 54, 31
10, 49150, Note_on_c, 9, 56, 52
10, 49152, Note_on_c, 9, 54, 61
10, 49152, Note_on_c, 9, 42, 119
10, 49152, Note_on_c, 9, 36, 101
10, 49158, Note_on_c, 9, 75, 52
10, 49168, Note_off_c, 9, 36, 101
10, 49212, Note_off_c, 9, 54, 61
10, 49254, Note_on_c, 9, 54, 23
10, 49264, Note_off_c, 9, 75, 52
10, 49264, Note_off_c, 9, 42, 119
10, 49280, Note_off_c, 9, 56, 52
10, 49310, Note_off_c, 9, 54, 23
10, 49342, Note_on_c, 9, 42, 54
10, 49348, Note_on_c, 9, 54, 17
10, 49390, Note_off_c, 9, 54, 17
10, 49392, Note_off_c, 9, 42, 54
10, 49440, Note_on_c, 9, 54, 49
10, 49498, Note_off_c, 9, 54, 49
10, 49534, Note_on_c, 9, 56, 52
10, 49536, Note_on_c, 9, 54, 78
10, 49536, Note_on_c, 9, 42, 111
10, 49536, Note_on_c, 9, 40, 91
10, 49536, Note_on_c, 9, 36, 101
10, 49542, Note_on_c, 9, 75, 52
10, 49552, Note_off_c, 9, 36, 101
10, 49594, Note_off_c, 9, 54, 78
10, 49628, Note_off_c, 9, 75, 52
10, 49628, Note_on_c, 9, 54, 43
10, 49642, Note_off_c, 9, 42, 111
10, 49654, Note_off_c, 9, 56, 52
10, 49684, Note_off_c, 9, 54, 43
10, 49726, Note_off_c, 9, 40, 91
10, 49726, Note_on_c, 9, 54, 26
10, 49726, Note_on_c, 9, 42, 58
10, 49768, Note_off_c, 9, 42, 58
10, 49772, Note_off_c, 9, 54, 26
10, 49822, Note_on_c, 9, 54, 46
10, 49824, Note_on_c, 9, 40, 91
10, 49884, Note_off_c, 9, 54, 46
10, 49918, Note_on_c, 9, 56, 52
10, 49918, Note_on_c, 9, 75, 52
10, 49918, Note_on_c, 9, 54, 31
10, 49920, Note_on_c, 9, 42, 110
10, 49920, Note_on_c, 9, 36, 101
10, 49936, Note_off_c, 9, 36, 101
10, 49972, Note_off_c, 9, 54, 31
10, 49996, Note_off_c, 9, 75, 52
10, 50008, Note_off_c, 9, 42, 110
10, 50012, Note_on_c, 9, 54, 49
10, 50014, Note_off_c, 9, 40, 91
10, 50052, Note_off_c, 9, 56, 52
10, 50074, Note_off_c, 9, 54, 49
10, 50104, Note_on_c, 9, 42, 70
10, 50108, Note_on_c, 9, 54, 34
10, 50142, Note_off_c, 9, 42, 70
10, 50152, Note_off_c, 9, 54, 34
10, 50206, Note_on_c, 9, 54, 43
10, 50264, Note_off_c, 9, 54, 43
10, 50300, Note_on_c, 9, 54, 58
10, 50302, Note_on_c, 9, 56, 52
10, 50302, Note_on_c, 9, 75, 52
10, 50304, Note_on_c, 9, 42, 110
10, 50304, Note_on_c, 9, 40, 91
10, 50304, Note_on_c, 9, 36, 101
10, 50320, Note_off_c, 9, 36, 101
10, 50328, Control_c, 9, 64, 127
10, 50336, Control_c, 9, 64, 0
10, 50354, Note_off_c, 9, 54, 58
10, 50370, Note_off_c, 9, 75, 52
10, 50376, Note_off_c, 9, 42, 110
10, 50398, Note_on_c, 9, 54, 37
10, 50400, Note_on_c, 9, 42, 91
10, 50424, Note_off_c, 9, 56, 52
10, 50434, Note_off_c, 9, 42, 91
10, 50460, Note_off_c, 9, 54, 37
10, 50494, Note_off_c, 9, 40, 91
10, 50494, Note_on_c, 9, 54, 52
10, 50496, Note_on_c, 9, 42, 71
10, 50530, Note_off_c, 9, 42, 71
10, 50538, Note_off_c, 9, 54, 52
10, 50592, Note_on_c, 9, 54, 31
10, 50592, Note_on_c, 9, 42, 97
10, 50626, Note_off_c, 9, 42, 97
10, 50650, Note_off_c, 9, 54, 31
10, 50688, Note_on_c, 9, 56, 52
10, 50688, Note_on_c, 9, 54, 61
10, 50688, Note_on_c, 9, 42, 119
10, 50688, Note_on_c, 9, 36, 101
10, 50694, Note_on_c, 9, 75, 52
10, 50704, Note_off_c, 9, 36, 101
10, 50748, Note_off_c, 9, 54, 61
10, 50780, Note_off_c, 9, 56, 52
10, 50790, Note_on_c, 9, 54, 23
10, 50800, Note_off_c, 9, 75, 52
10, 50800, Note_off_c, 9, 42, 119
10, 50846, Note_off_c, 9, 54, 23
10, 50878, Note_on_c, 9, 42, 54
10, 50884, Note_on_c, 9, 54, 17
10, 50926, Note_off_c, 9, 54, 17
10, 50928, Note_off_c, 9, 42, 54
10, 50976, Note_on_c, 9, 54, 49
10, 51034, Note_off_c, 9, 54, 49
10, 51072, Note_on_c, 9, 54, 78
10, 51072, Note_on_c, 9, 42, 110
10, 51072, Note_on_c, 9, 40, 91
10, 51072, Note_on_c, 9, 36, 101
10, 51074, Note_on_c, 9, 56, 52
10, 51078, Note_on_c, 9, 75, 52
10, 51088, Note_off_c, 9, 36, 101
10, 51130, Note_off_c, 9, 54, 78
10, 51150, Note_off_c, 9, 42, 110
10, 51164, Note_off_c, 9, 75, 52
10, 51164, Note_on_c, 9, 54, 45
10, 51194, Note_off_c, 9, 56, 52
10, 51220, Note_off_c, 9, 54, 45
10, 51256, Note_on_c, 9, 42, 46
10, 51262, Note_off_c, 9, 40, 91
10, 51262, Note_on_c, 9, 54, 26
10, 51298, Note_off_c, 9, 42, 46
10, 51308, Note_off_c, 9, 54, 26
10, 51358, Note_on_c, 9, 54, 52
10, 51360, Note_on_c, 9, 40, 91
10, 51420, Note_off_c, 9, 54, 52
10, 51452, Note_on_c, 9, 56, 52
10, 51454, Note_on_c, 9, 75, 52
10, 51454, Note_on_c, 9, 54, 31
10, 51456, Note_on_c, 9, 42, 108
10, 51456, Note_on_c, 9, 36, 101
10, 51472, Note_off_c, 9, 36, 101
10, 51508, Note_off_c, 9, 54, 31
10, 51532, Note_off_c, 9, 75, 52
10, 51534, Note_off_c, 9, 42, 108
10, 51548, Note_on_c, 9, 54, 49
10, 51550, Note_off_c, 9, 40, 91
10, 51580, Note_off_c, 9, 56, 52
10, 51610, Note_off_c, 9, 54, 49
10, 51644, Note_on_c, 9, 54, 34
10, 51648, Note_on_c, 9, 42, 94
10, 51680, Note_off_c, 9, 42, 94
10, 51688, Note_off_c, 9, 54, 34
10, 51696, Note_on_c, 9, 42, 47
10, 51734, Note_off_c, 9, 42, 47
10, 51742, Note_on_c, 9, 54, 43
10, 51744, Note_on_c, 9, 42, 68
10, 51792, Note_off_c, 9, 42, 68
10, 51792, Note_on_c, 9, 42, 76
10, 51800, Note_off_c, 9, 54, 43
10, 51830, Note_off_c, 9, 42, 76
10, 51836, Note_on_c, 9, 54, 58
10, 51838, Note_on_c, 9, 56, 52
10, 51838, Note_on_c, 9, 75, 52
10, 51840, Note_on_c, 9, 42, 111
10, 51840, Note_on_c, 9, 40, 91
10, 51840, Note_on_c, 9, 36, 101
10, 51856, Note_off_c, 9, 36, 101
10, 51890, Note_off_c, 9, 54, 58
10, 51906, Note_off_c, 9, 75, 52
10, 51908, Note_off_c, 9, 42, 111
10, 51934, Note_on_c, 9, 54, 37
10, 51936, Note_on_c, 9, 36, 65
10, 51952, Note_off_c, 9, 36, 65
10, 51996, Note_off_c, 9, 54, 37
10, 52010, Note_off_c, 9, 56, 52
10, 52030, Note_off_c, 9, 40, 91
10, 52030, Note_on_c, 9, 54, 52
10, 52030, Note_on_c, 9, 42, 68
10, 52032, Note_on_c, 9, 36, 83
10, 52048, Note_off_c, 9, 36, 83
10, 52074, Note_off_c, 9, 54, 52
10, 52080, Note_off_c, 9, 42, 68
10, 52128, Note_on_c, 9, 54, 31
10, 52186, Note_off_c, 9, 54, 31
10, 52222, Note_on_c, 9, 56, 52
10, 52224, Note_on_c, 9, 54, 61
10, 52224, Note_on_c, 9, 42, 119
10, 52224, Note_on_c, 9, 36, 101
10, 52230, Note_on_c, 9, 75, 52
10, 52240, Note_off_c, 9, 36, 101
10, 52284, Note_off_c, 9, 54, 61
10, 52326, Note_on_c, 9, 54, 23
10, 52336, Note_off_c, 9, 75, 52
10, 52336, Note_off_c, 9, 42, 119
10, 52352, Note_off_c, 9, 56, 52
10, 52382, Note_off_c, 9, 54, 23
10, 52414, Note_on_c, 9, 42, 54
10, 52420, Note_on_c, 9, 54, 17
10, 52462, Note_off_c, 9, 54, 17
10, 52464, Note_off_c, 9, 42, 54
10, 52512, Note_on_c, 9, 54, 49
10, 52570, Note_off_c, 9, 54, 49
10, 52606, Note_on_c, 9, 56, 52
10, 52608, Note_on_c, 9, 54, 78
10, 52608, Note_on_c, 9, 42, 111
10, 52608, Note_on_c, 9, 40, 91
10, 52608, Note_on_c, 9, 36, 101
10, 52614, Note_on_c, 9, 75, 52
10, 52624, Note_off_c, 9, 36, 101
10, 52666, Note_off_c, 9, 54, 78
10, 52700, Note_off_c, 9, 75, 52
10, 52700, Note_on_c, 9, 54, 43
10, 52714, Note_off_c, 9, 42, 111
10, 52726, Note_off_c, 9, 56, 52
10, 52756, Note_off_c, 9, 54, 43
10, 52798, Note_off_c, 9, 40, 91
10, 52798, Note_on_c, 9, 54, 26
10, 52798, Note_on_c, 9, 42, 58
10, 52840, Note_off_c, 9, 42, 58
10, 52844, Note_off_c, 9, 54, 26
10, 52894, Note_on_c, 9, 54, 46
10, 52896, Note_on_c, 9, 40, 91
10, 52956, Note_off_c, 9, 54, 46
10, 52990, Note_on_c, 9, 56, 52
10, 52990, Note_on_c, 9, 75, 52
10, 52990, Note_on_c, 9, 54, 31
10, 52992, Note_on_c, 9, 42, 110
10, 52992, Note_on_c, 9, 36, 101
10, 53008, Note_off_c, 9, 36, 101
10, 53044, Note_off_c, 9, 54, 31
10, 53068, Note_off_c, 9, 75, 52
10, 53080, Note_off_c, 9, 42, 110
10, 53084, Note_on_c, 9, 54, 49
10, 53086, Note_off_c, 9, 40, 91
10, 53094, Note_on_c, 9, 42, 74
10, 53124, Note_off_c, 9, 56, 52
10, 53132, Note_off_c, 9, 42, 74
10, 53146, Note_off_c, 9, 54, 49
10, 53180, Note_on_c, 9, 54, 34
10, 53184, Note_on_c, 9, 42, 56
10, 53222, Note_off_c, 9, 42, 56
10, 53224, Note_off_c, 9, 54, 34
10, 53278, Note_on_c, 9, 54, 43
10, 53336, Note_off_c, 9, 54, 43
10, 53372, Note_on_c, 9, 54, 58
10, 53374, Note_on_c, 9, 56, 52
10, 53374, Note_on_c, 9, 75, 52
10, 53376, Note_on_c, 9, 42, 110
10, 53376, Note_on_c, 9, 40, 91
10, 53376, Note_on_c, 9, 36, 101
10, 53392, Note_off_c, 9, 36, 101
10, 53400, Control_c, 9, 64, 127
10, 53408, Control_c, 9, 64, 0
10, 53426, Note_off_c, 9, 54, 58
10, 53442, Note_off_c, 9, 75, 52
10, 53470, Note_on_c, 9, 54, 37
10, 53480, Note_off_c, 9, 42, 110
10, 53496, Note_off_c, 9, 56, 52
10, 53532, Note_off_c, 9, 54, 37
10, 53566, Note_off_c, 9, 40, 91
10, 53566, Note_on_c, 9, 54, 52
10, 53568, Note_on_c, 9, 42, 100
10, 53602, Note_off_c, 9, 42, 100
10, 53610, Note_off_c, 9, 54, 52
10, 53664, Note_on_c, 9, 54, 31
10, 53664, Note_on_c, 9, 42, 68
10, 53664, Note_on_c, 9, 36, 83
10, 53680, Note_off_c, 9, 36, 83
10, 53698, Note_off_c, 9, 42, 68
10, 53722, Note_off_c, 9, 54, 31
10, 53760, Note_on_c, 9, 56, 52
10, 53760, Note_on_c, 9, 54, 61
10, 53760, Note_on_c, 9, 49, 72
10, 53760, Note_on_c, 9, 36, 101
10, 53766, Note_on_c, 9, 75, 52
10, 53776, Note_off_c, 9, 36, 101
10, 53816, Note_off_c, 9, 49, 72
10, 53820, Note_off_c, 9, 54, 61
10, 53852, Note_off_c, 9, 56, 52
10, 53862, Note_on_c, 9, 54, 23
10, 53872, Note_off_c, 9, 75, 52
10, 53918, Note_off_c, 9, 54, 23
10, 53950, Note_on_c, 9, 42, 71
10, 53956, Note_on_c, 9, 54, 17
10, 53992, Note_off_c, 9, 42, 71
10, 53998, Note_off_c, 9, 54, 17
10, 54048, Note_on_c, 9, 54, 49
10, 54106, Note_off_c, 9, 54, 49
10, 54144, Note_on_c, 9, 54, 78
10, 54144, Note_on_c, 9, 42, 110
10, 54144, Note_on_c, 9, 40, 91
10, 54144, Note_on_c, 9, 36, 101
10, 54146, Note_on_c, 9, 56, 52
10, 54150, Note_on_c, 9, 75, 52
10, 54160, Note_off_c, 9, 36, 101
10, 54202, Note_off_c, 9, 54, 78
10, 54222, Note_off_c, 9, 42, 110
10, 54236, Note_off_c, 9, 75, 52
10, 54236, Note_on_c, 9, 54, 45
10, 54266, Note_off_c, 9, 56, 52
10, 54292, Note_off_c, 9, 54, 45
10, 54330, Note_on_c, 9, 42, 46
10, 54334, Note_off_c, 9, 40, 91
10, 54334, Note_on_c, 9, 54, 26
10, 54372, Note_off_c, 9, 42, 46
10, 54380, Note_off_c, 9, 54, 26
10, 54430, Note_on_c, 9, 54, 52
10, 54432, Note_on_c, 9, 40, 91
10, 54492, Note_off_c, 9, 54, 52
10, 54524, Note_on_c, 9, 56, 52
10, 54526, Note_on_c, 9, 75, 52
10, 54526, Note_on_c, 9, 54, 31
10, 54528, Note_on_c, 9, 42, 108
10, 54528, Note_on_c, 9, 36, 101
10, 54544, Note_off_c, 9, 36, 101
10, 54580, Note_off_c, 9, 54, 31
10, 54604, Note_off_c, 9, 75, 52
10, 54606, Note_off_c, 9, 42, 108
10, 54620, Note_on_c, 9, 54, 49
10, 54622, Note_off_c, 9, 40, 91
10, 54652, Note_off_c, 9, 56, 52
10, 54682, Note_off_c, 9, 54, 49
10, 54712, Note_on_c, 9, 42, 42
10, 54716, Note_on_c, 9, 54, 34
10, 54760, Note_off_c, 9, 54, 34
10, 54762, Note_off_c, 9, 42, 42
10, 54814, Note_on_c, 9, 54, 43
10, 54872, Note_off_c, 9, 54, 43
10, 54908, Note_on_c, 9, 54, 58
10, 54910, Note_on_c, 9, 56, 52
10, 54910, Note_on_c, 9, 75, 52
10, 54912, Note_on_c, 9, 42, 111
10, 54912, Note_on_c, 9, 40, 91
10, 54912, Note_on_c, 9, 36, 101
10, 54928, Note_off_c, 9, 36, 101
10, 54962, Note_off_c, 9, 54, 58
10, 54978, Note_off_c, 9, 75, 52
10, 55006, Note_on_c, 9, 54, 37
10, 55028, Note_off_c, 9, 42, 111
10, 55068, Note_off_c, 9, 54, 37
10, 55082, Note_off_c, 9, 56, 52
10, 55102, Note_off_c, 9, 40, 91
10, 55102, Note_on_c, 9, 54, 52
10, 55104, Note_on_c, 9, 46, 94
10, 55146, Note_off_c, 9, 54, 52
10, 55152, Note_off_c, 9, 46, 94
10, 55200, Note_on_c, 9, 54, 31
10, 55258, Note_off_c, 9, 54, 31
10, 55294, Note_on_c, 9, 56, 52
10, 55296, Note_on_c, 9, 54, 61
10, 55296, Note_on_c, 9, 42, 119
10, 55296, Note_on_c, 9, 36, 101
10, 55302, Note_on_c, 9, 75, 52
10, 55312, Note_off_c, 9, 36, 101
10, 55356, Note_off_c, 9, 54, 61
10, 55398, Note_on_c, 9, 54, 23
10, 55408, Note_off_c, 9, 75, 52
10, 55408, Note_off_c, 9, 42, 119
10, 55424, Note_off_c, 9, 56, 52
10, 55454, Note_off_c, 9, 54, 23
10, 55486, Note_on_c, 9, 42, 54
10, 55492, Note_on_c, 9, 54, 17
10, 55534, Note_off_c, 9, 54, 17
10, 55536, Note_off_c, 9, 42, 54
10, 55584, Note_on_c, 9, 54, 49
10, 55584, Note_on_c, 9, 42, 44
10, 55634, Note_off_c, 9, 42, 44
10, 55642, Note_off_c, 9, 54, 49
10, 55678, Note_on_c, 9, 56, 52
10, 55680, Note_on_c, 9, 54, 78
10, 55680, Note_on_c, 9, 42, 111
10, 55680, Note_on_c, 9, 40, 91
10, 55680, Note_on_c, 9, 36, 101
10, 55686, Note_on_c, 9, 75, 52
10, 55696, Note_off_c, 9, 36, 101
10, 55738, Note_off_c, 9, 54, 78
10, 55772, Note_off_c, 9, 75, 52
10, 55772, Note_on_c, 9, 54, 43
10, 55786, Note_off_c, 9, 42, 111
10, 55798, Note_off_c, 9, 56, 52
10, 55828, Note_off_c, 9, 54, 43
10, 55870, Note_off_c, 9, 40, 91
10, 55870, Note_on_c, 9, 54, 26
10, 55870, Note_on_c, 9, 42, 58
10, 55912, Note_off_c, 9, 42, 58
10, 55916, Note_off_c, 9, 54, 26
10, 55966, Note_on_c, 9, 54, 46
10, 55968, Note_on_c, 9, 40, 91
10, 56028, Note_off_c, 9, 54, 46
10, 56062, Note_on_c, 9, 56, 52
10, 56062, Note_on_c, 9, 75, 52
10, 56062, Note_on_c, 9, 54, 31
10, 56064, Note_on_c, 9, 42, 110
10, 56064, Note_on_c, 9, 36, 101
10, 56080, Note_off_c, 9, 36, 101
10, 56116, Note_off_c, 9, 54, 31
10, 56140, Note_off_c, 9, 75, 52
10, 56152, Note_off_c, 9, 42, 110
10, 56156, Note_on_c, 9, 54, 49
10, 56158, Note_off_c, 9, 40, 91
10, 56196, Note_off_c, 9, 56, 52
10, 56218, Note_off_c, 9, 54, 49
10, 56248, Note_on_c, 9, 42, 70
10, 56252, Note_on_c, 9, 54, 34
10, 56286, Note_off_c, 9, 42, 70
10, 56296, Note_off_c, 9, 54, 34
10, 56350, Note_on_c, 9, 54, 43
10, 56408, Note_off_c, 9, 54, 43
10, 56444, Note_on_c, 9, 54, 58
10, 56446, Note_on_c, 9, 56, 52
10, 56446, Note_on_c, 9, 75, 52
10, 56448, Note_on_c, 9, 42, 110
10, 56448, Note_on_c, 9, 40, 91
10, 56448, Note_on_c, 9, 36, 101
10, 56464, Note_off_c, 9, 36, 101
10, 56472, Control_c, 9, 64, 127
10, 56480, Control_c, 9, 64, 0
10, 56498, Note_off_c, 9, 54, 58
10, 56508, Note_off_c, 9, 42, 110
10, 56514, Note_off_c, 9, 75, 52
10, 56542, Note_on_c, 9, 54, 37
10, 56544, Note_on_c, 9, 42, 88
10, 56568, Note_off_c, 9, 56, 52
10, 56604, Note_off_c, 9, 42, 88
10, 56604, Note_off_c, 9, 54, 37
10, 56638, Note_off_c, 9, 40, 91
10, 56638, Note_on_c, 9, 54, 52
10, 56640, Note_on_c, 9, 42, 82
10, 56674, Note_off_c, 9, 42, 82
10, 56682, Note_off_c, 9, 54, 52
10, 56736, Note_on_c, 9, 54, 31
10, 56736, Note_on_c, 9, 42, 97
10, 56770, Note_off_c, 9, 42, 97
10, 56794, Note_off_c, 9, 54, 31
10, 56832, Note_on_c, 9, 56, 52
10, 56832, Note_on_c, 9, 54, 61
10, 56832, Note_on_c, 9, 42, 119
10, 56832, Note_on_c, 9, 36, 101
10, 56838, Note_on_c, 9, 75, 52
10, 56848, Note_off_c, 9, 36, 101
10, 56892, Note_off_c, 9, 54, 61
10, 56924, Note_off_c, 9, 56, 52
10, 56934, Note_on_c, 9, 54, 23
10, 56944, Note_off_c, 9, 75, 52
10, 56944, Note_off_c, 9, 42, 119
10, 56990, Note_off_c, 9, 54, 23
10, 57022, Note_on_c, 9, 42, 54
10, 57028, Note_on_c, 9, 54, 17
10, 57070, Note_off_c, 9, 54, 17
10, 57072, Note_off_c, 9, 42, 54
10, 57120, Note_on_c, 9, 54, 49
10, 57178, Note_off_c, 9, 54, 49
10, 57216, Note_on_c, 9, 54, 78
10, 57216, Note_on_c, 9, 42, 110
10, 57216, Note_on_c, 9, 40, 91
10, 57216, Note_on_c, 9, 36, 101
10, 57218, Note_on_c, 9, 56, 52
10, 57222, Note_on_c, 9, 75, 52
10, 57232, Note_off_c, 9, 36, 101
10, 57274, Note_off_c, 9, 54, 78
10, 57294, Note_off_c, 9, 42, 110
10, 57308, Note_off_c, 9, 75, 52
10, 57308, Note_on_c, 9, 54, 45
10, 57338, Note_off_c, 9, 56, 52
10, 57364, Note_off_c, 9, 54, 45
10, 57400, Note_on_c, 9, 42, 46
10, 57406, Note_off_c, 9, 40, 91
10, 57406, Note_on_c, 9, 54, 26
10, 57442, Note_off_c, 9, 42, 46
10, 57452, Note_off_c, 9, 54, 26
10, 57502, Note_on_c, 9, 54, 52
10, 57504, Note_on_c, 9, 40, 91
10, 57564, Note_off_c, 9, 54, 52
10, 57596, Note_on_c, 9, 56, 52
10, 57598, Note_on_c, 9, 75, 52
10, 57598, Note_on_c, 9, 54, 31
10, 57600, Note_on_c, 9, 42, 108
10, 57600, Note_on_c, 9, 36, 101
10, 57616, Note_off_c, 9, 36, 101
10, 57652, Note_off_c, 9, 54, 31
10, 57676, Note_off_c, 9, 75, 52
10, 57678, Note_off_c, 9, 42, 108
10, 57692, Note_on_c, 9, 54, 49
10, 57694, Note_off_c, 9, 40, 91
10, 57724, Note_off_c, 9, 56, 52
10, 57754, Note_off_c, 9, 54, 49
10, 57784, Note_on_c, 9, 42, 42
10, 57788, Note_on_c, 9, 54, 34
10, 57832, Note_off_c, 9, 54, 34
10, 57834, Note_off_c, 9, 42, 42
10, 57886, Note_on_c, 9, 54, 43
10, 57944, Note_off_c, 9, 54, 43
10, 57980, Note_on_c, 9, 54, 58
10, 57982, Note_on_c, 9, 56, 52
10, 57982, Note_on_c, 9, 75, 52
10, 57984, Note_on_c, 9, 42, 108
10, 57984, Note_on_c, 9, 40, 91
10, 57984, Note_on_c, 9, 36, 101
10, 58000, Note_off_c, 9, 36, 101
10, 58034, Note_off_c, 9, 54, 58
10, 58050, Note_off_c, 9, 75, 52
10, 58062, Note_off_c, 9, 42, 108
10, 58078, Note_on_c, 9, 54, 37
10, 58140, Note_off_c, 9, 54, 37
10, 58154, Note_off_c, 9, 56, 52
10, 58174, Note_off_c, 9, 40, 91
10, 58174, Note_on_c, 9, 54, 52
10, 58176, Note_on_c, 9, 42, 91
10, 58176, Note_on_c, 9, 36, 83
10, 58192, Note_off_c, 9, 36, 83
10, 58218, Note_off_c, 9, 54, 52
10, 58226, Note_off_c, 9, 42, 91
10, 58272, Note_on_c, 9, 54, 31
10, 58330, Note_off_c, 9, 54, 31
10, 58366, Note_on_c, 9, 56, 52
10, 58368, Note_on_c, 9, 54, 61
10, 58368, Note_on_c, 9, 42, 119
10, 58368, Note_on_c, 9, 36, 101
10, 58374, Note_on_c, 9, 75, 52
10, 58384, Note_off_c, 9, 36, 101
10, 58428, Note_off_c, 9, 54, 61
10, 58470, Note_on_c, 9, 54, 23
10, 58480, Note_off_c, 9, 75, 52
10, 58480, Note_off_c, 9, 42, 119
10, 58496, Note_off_c, 9, 56, 52
10, 58526, Note_off_c, 9, 54, 23
10, 58558, Note_on_c, 9, 42, 54
10, 58564, Note_on_c, 9, 54, 17
10, 58606, Note_off_c, 9, 54, 17
10, 58608, Note_off_c, 9, 42, 54
10, 58656, Note_on_c, 9, 54, 49
10, 58664, Note_on_c, 9, 42, 82
10, 58714, Note_off_c, 9, 42, 82
10, 58714, Note_off_c, 9, 54, 49
10, 58750, Note_on_c, 9, 56, 52
10, 58752, Note_on_c, 9, 54, 78
10, 58752, Note_on_c, 9, 42, 111
10, 58752, Note_on_c, 9, 40, 91
10, 58752, Note_on_c, 9, 36, 101
10, 58758, Note_on_c, 9, 75, 52
10, 58768, Note_off_c, 9, 36, 101
10, 58810, Note_off_c, 9, 54, 78
10, 58844, Note_off_c, 9, 75, 52
10, 58844, Note_on_c, 9, 54, 43
10, 58858, Note_off_c, 9, 42, 111
10, 58870, Note_off_c, 9, 56, 52
10, 58900, Note_off_c, 9, 54, 43
10, 58942, Note_off_c, 9, 40, 91
10, 58942, Note_on_c, 9, 54, 26
10, 58944, Note_on_c, 9, 42, 70
10, 58982, Note_off_c, 9, 42, 70
10, 58988, Note_off_c, 9, 54, 26
10, 58992, Note_on_c, 9, 42, 39
10, 59030, Note_off_c, 9, 42, 39
10, 59038, Note_on_c, 9, 54, 46
10, 59040, Note_on_c, 9, 42, 53
10, 59078, Note_off_c, 9, 42, 53
10, 59088, Note_on_c, 9, 42, 71
10, 59100, Note_off_c, 9, 54, 46
10, 59126, Note_off_c, 9, 42, 71
10, 59134, Note_on_c, 9, 56, 52
10, 59134, Note_on_c, 9, 75, 52
10, 59134, Note_on_c, 9, 54, 31
10, 59136, Note_on_c, 9, 42, 110
10, 59136, Note_on_c, 9, 36, 101
10, 59152, Note_off_c, 9, 36, 101
10, 59188, Note_off_c, 9, 54, 31
10, 59212, Note_off_c, 9, 75, 52
10, 59224, Note_off_c, 9, 42, 110
10, 59228, Note_on_c, 9, 54, 49
10, 59268, Note_off_c, 9, 56, 52
10, 59290, Note_off_c, 9, 54, 49
10, 59324, Note_on_c, 9, 54, 34
10, 59332, Note_on_c, 9, 40, 58
10, 59368, Note_off_c, 9, 54, 34
10, 59372, Note_off_c, 9, 40, 58
10, 59422, Note_on_c, 9, 54, 43
10, 59424, Note_on_c, 9, 40, 72
10, 59464, Note_off_c, 9, 40, 72
10, 59480, Note_off_c, 9, 54, 43
10, 59516, Note_on_c, 9, 54, 58
10, 59518, Note_on_c, 9, 56, 52
10, 59518, Note_on_c, 9, 75, 52
10, 59518, Note_on_c, 9, 48, 90
10, 59520, Note_on_c, 9, 42, 111
10, 59520, Note_on_c, 9, 36, 101
10, 59536, Note_off_c, 9, 36, 101
10, 59544, Control_c, 9, 64, 127
10, 59552, Control_c, 9, 64, 0
10, 59570, Note_off_c, 9, 54, 58
10, 59586, Note_off_c, 9, 75, 52
10, 59588, Note_off_c, 9, 42, 111
10, 59608, Note_off_c, 9, 48, 90
10, 59614, Note_on_c, 9, 54, 37
10, 59616, Note_on_c, 9, 48, 58
10, 59616, Note_on_c, 9, 42, 94
10, 59640, Note_off_c, 9, 56, 52
10, 59664, Note_off_c, 9, 42, 94
10, 59676, Note_off_c, 9, 54, 37
10, 59706, Note_off_c, 9, 48, 58
10, 59706, Note_on_c, 9, 45, 75
10, 59710, Note_on_c, 9, 54, 52
10, 59712, Note_on_c, 9, 42, 76
10, 59754, Note_off_c, 9, 54, 52
10, 59760, Note_off_c, 9, 42, 76
10, 59784, Note_off_c, 9, 45, 75
10, 59804, Note_on_c, 9, 45, 49
10, 59808, Note_on_c, 9, 54, 31
10, 59808, Note_on_c, 9, 42, 97
10, 59808, Note_on_c, 9, 36, 83
10, 59824, Note_off_c, 9, 36, 83
10, 59856, Note_off_c, 9, 42, 97
10, 59866, Note_off_c, 9, 54, 31
10, 59882, Note_off_c, 9, 45, 49
10, 59904, Note_on_c, 9, 56, 52
10, 59904, Note_on_c, 9, 49, 72
10, 59904, Note_on_c, 9, 36, 101
10, 59910, Note_on_c, 9, 75, 52
10, 59920, Note_off_c, 9, 36, 101
10, 59960, Note_off_c, 9, 49, 72
10, 59996, Note_off_c, 9, 56, 52
10, 60016, Note_off_c, 9, 75, 52
10, 60288, Note_on_c, 9, 54, 78
10, 60288, Note_on_c, 9, 42, 110
10, 60288, Note_on_c, 9, 40, 91
10, 60288, Note_on_c, 9, 36, 101
10, 60290, Note_on_c, 9, 56, 52
10, 60294, Note_on_c, 9, 75, 52
10, 60304, Note_off_c, 9, 36, 101
10, 60346, Note_off_c, 9, 54, 78
10, 60366, Note_off_c, 9, 42, 110
10, 60380, Note_off_c, 9, 75, 52
10, 60410, Note_off_c, 9, 56, 52
10, 60472, Note_on_c, 9, 42, 53
10, 60478, Note_off_c, 9, 40, 91
10, 60514, Note_off_c, 9, 42, 53
10, 60576, Note_on_c, 9, 42, 88
10, 60618, Note_off_c, 9, 42, 88
10, 60668, Note_on_c, 9, 56, 52
10, 60670, Note_on_c, 9, 75, 52
10, 60672, Note_on_c, 9, 42, 108
10, 60672, Note_on_c, 9, 36, 101
10, 60688, Note_off_c, 9, 36, 101
10, 60748, Note_off_c, 9, 75, 52
10, 60750, Note_off_c, 9, 42, 108
10, 60796, Note_off_c, 9, 56, 52
10, 60856, Note_on_c, 9, 42, 42
10, 60906, Note_off_c, 9, 42, 42
10, 61052, Note_on_c, 9, 54, 75
10, 61054, Note_on_c, 9, 56, 52
10, 61054, Note_on_c, 9, 75, 52
10, 61056, Note_on_c, 9, 42, 111
10, 61056, Note_on_c, 9, 40, 91
10, 61056, Note_on_c, 9, 36, 101
10, 61072, Note_off_c, 9, 36, 101
10, 61106, Note_off_c, 9, 54, 75
10, 61122, Note_off_c, 9, 75, 52
10, 61172, Note_off_c, 9, 42, 111
10, 61226, Note_off_c, 9, 56, 52
10, 61246, Note_off_c, 9, 40, 91
10, 61248, Note_on_c, 9, 42, 50
10, 61296, Note_off_c, 9, 42, 50
10, 61438, Note_on_c, 9, 56, 52
10, 61440, Note_on_c, 9, 42, 119
10, 61440, Note_on_c, 9, 36, 101
10, 61446, Note_on_c, 9, 75, 52
10, 61456, Note_off_c, 9, 36, 101
10, 61552, Note_off_c, 9, 75, 52
10, 61552, Note_off_c, 9, 42, 119
10, 61568, Note_off_c, 9, 56, 52
10, 61630, Note_on_c, 9, 42, 71
10, 61680, Note_off_c, 9, 42, 71
10, 61822, Note_on_c, 9, 56, 52
10, 61824, Note_on_c, 9, 54, 78
10, 61824, Note_on_c, 9, 42, 111
10, 61824, Note_on_c, 9, 40, 91
10, 61824, Note_on_c, 9, 36, 101
10, 61830, Note_on_c, 9, 75, 52
10, 61840, Note_off_c, 9, 36, 101
10, 61882, Note_off_c, 9, 54, 78
10, 61916, Note_off_c, 9, 75, 52
10, 61930, Note_off_c, 9, 42, 111
10, 61942, Note_off_c, 9, 56, 52
10, 62014, Note_off_c, 9, 40, 91
10, 62014, Note_on_c, 9, 42, 58
10, 62056, Note_off_c, 9, 42, 58
10, 62112, Note_on_c, 9, 40, 91
10, 62206, Note_on_c, 9, 56, 52
10, 62206, Note_on_c, 9, 75, 52
10, 62208, Note_on_c, 9, 42, 110
10, 62208, Note_on_c, 9, 36, 101
10, 62224, Note_off_c, 9, 36, 101
10, 62284, Note_off_c, 9, 75, 52
10, 62296, Note_off_c, 9, 42, 110
10, 62302, Note_off_c, 9, 40, 91
10, 62340, Note_off_c, 9, 56, 52
10, 62400, Note_on_c, 9, 46, 94
10, 62438, Note_off_c, 9, 46, 94
10, 62588, Note_on_c, 9, 54, 75
10, 62590, Note_on_c, 9, 56, 52
10, 62590, Note_on_c, 9, 75, 52
10, 62592, Note_on_c, 9, 42, 110
10, 62592, Note_on_c, 9, 40, 91
10, 62592, Note_on_c, 9, 36, 101
10, 62608, Note_off_c, 9, 36, 101
10, 62616, Control_c, 9, 64, 127
10, 62624, Control_c, 9, 64, 0
10, 62642, Note_off_c, 9, 54, 75
10, 62658, Note_off_c, 9, 75, 52
10, 62696, Note_off_c, 9, 42, 110
10, 62712, Note_off_c, 9, 56, 52
10, 62782, Note_off_c, 9, 40, 91
10, 62784, Note_on_c, 9, 42, 59
10, 62818, Note_off_c, 9, 42, 59
10, 62976, Note_on_c, 9, 56, 52
10, 62976, Note_on_c, 9, 42, 119
10, 62976, Note_on_c, 9, 36, 101
10, 62982, Note_on_c, 9, 75, 52
10, 62992, Note_off_c, 9, 36, 101
10, 63068, Note_off_c, 9, 56, 52
10, 63088, Note_off_c, 9, 75, 52
10, 63088, Note_off_c, 9, 42, 119
10, 63166, Note_on_c, 9, 42, 54
10, 63216, Note_off_c, 9, 42, 54
10, 63360, Note_on_c, 9, 54, 78
10, 63360, Note_on_c, 9, 42, 110
10, 63360, Note_on_c, 9, 40, 91
10, 63360, Note_on_c, 9, 36, 101
10, 63362, Note_on_c, 9, 56, 52
10, 63366, Note_on_c, 9, 75, 52
10, 63376, Note_off_c, 9, 36, 101
10, 63418, Note_off_c, 9, 54, 78
10, 63438, Note_off_c, 9, 42, 110
10, 63452, Note_off_c, 9, 75, 52
10, 63482, Note_off_c, 9, 56, 52
10, 63544, Note_on_c, 9, 42, 46
10, 63550, Note_off_c, 9, 40, 91
10, 63586, Note_off_c, 9, 42, 46
10, 63644, Note_on_c, 9, 42, 91
10, 63694, Note_off_c, 9, 42, 91
10, 63740, Note_on_c, 9, 56, 52
10, 63742, Note_on_c, 9, 75, 52
10, 63744, Note_on_c, 9, 42, 108
10, 63744, Note_on_c, 9, 36, 101
10, 63760, Note_off_c, 9, 36, 101
10, 63820, Note_off_c, 9, 75, 52
10, 63822, Note_off_c, 9, 42, 108
10, 63868, Note_off_c, 9, 56, 52
10, 63928, Note_on_c, 9, 42, 42
10, 63978, Note_off_c, 9, 42, 42
10, 64124, Note_on_c, 9, 54, 75
10, 64126, Note_on_c, 9, 56, 52
10, 64126, Note_on_c, 9, 75, 52
10, 64128, Note_on_c, 9, 42, 111
10, 64128, Note_on_c, 9, 40, 91
10, 64128, Note_on_c, 9, 36, 101
10, 64144, Note_off_c, 9, 36, 101
10, 64178, Note_off_c, 9, 54, 75
10, 64194, Note_off_c, 9, 75, 52
10, 64196, Note_off_c, 9, 42, 111
10, 64298, Note_off_c, 9, 56, 52
10, 64318, Note_off_c, 9, 40, 91
10, 64320, Note_on_c, 9, 42, 85
10, 64368, Note_off_c, 9, 42, 85
10, 64510, Note_on_c, 9, 56, 52
10, 64512, Note_on_c, 9, 42, 119
10, 64512, Note_on_c, 9, 36, 101
10, 64518, Note_on_c, 9, 75, 52
10, 64528, Note_off_c, 9, 36, 101
10, 64624, Note_off_c, 9, 75, 52
10, 64624, Note_off_c, 9, 42, 119
10, 64640, Note_off_c, 9, 56, 52
10, 64702, Note_on_c, 9, 42, 54
10, 64752, Note_off_c, 9, 42, 54
10, 64894, Note_on_c, 9, 56, 52
10, 64896, Note_on_c, 9, 54, 78
10, 64896, Note_on_c, 9, 42, 111
10, 64896, Note_on_c, 9, 40, 91
10, 64896, Note_on_c, 9, 36, 101
10, 64902, Note_on_c, 9, 75, 52
10, 64912, Note_off_c, 9, 36, 101
10, 64954, Note_off_c, 9, 54, 78
10, 64988, Note_off_c, 9, 75, 52
10, 65002, Note_off_c, 9, 42, 111
10, 65014, Note_off_c, 9, 56, 52
10, 65086, Note_off_c, 9, 40, 91
10, 65086, Note_on_c, 9, 42, 58
10, 65128, Note_off_c, 9, 42, 58
10, 65184, Note_on_c, 9, 42, 58
10, 65184, Note_on_c, 9, 40, 91
10, 65226, Note_off_c, 9, 42, 58
10, 65232, Note_on_c, 9, 42, 71
10, 65274, Note_off_c, 9, 42, 71
10, 65278, Note_on_c, 9, 56, 52
10, 65278, Note_on_c, 9, 75, 52
10, 65280, Note_on_c, 9, 42, 110
10, 65280, Note_on_c, 9, 36, 101
10, 65296, Note_off_c, 9, 36, 101
10, 65356, Note_off_c, 9, 75, 52
10, 65368, Note_off_c, 9, 42, 110
10, 65374, Note_off_c, 9, 40, 91
10, 65412, Note_off_c, 9, 56, 52
10, 65464, Note_on_c, 9, 42, 70
10, 65502, Note_off_c, 9, 42, 70
10, 65660, Note_on_c, 9, 54, 75
10, 65662, Note_on_c, 9, 56, 52
10, 65662, Note_on_c, 9, 75, 52
10, 65664, Note_on_c, 9, 42, 110
10, 65664, Note_on_c, 9, 40, 91
10, 65664, Note_on_c, 9, 36, 101
10, 65680, Note_off_c, 9, 36, 101
10, 65688, Control_c, 9, 64, 127
10, 65696, Control_c, 9, 64, 0
10, 65714, Note_off_c, 9, 54, 75
10, 65730, Note_off_c, 9, 75, 52
10, 65768, Note_off_c, 9, 42, 110
10, 65784, Note_off_c, 9, 56, 52
10, 65854, Note_off_c, 9, 40, 91
10, 65856, Note_on_c, 9, 46, 91
10, 65856, Note_on_c, 9, 36, 83
10, 65872, Note_off_c, 9, 36, 83
10, 65890, Note_off_c, 9, 46, 91
10, 66048, Note_on_c, 9, 56, 52
10, 66048, Note_on_c, 9, 42, 110
10, 66048, Note_on_c, 9, 36, 101
10, 66054, Note_on_c, 9, 75, 52
10, 66064, Note_off_c, 9, 36, 101
10, 66126, Note_off_c, 9, 42, 110
10, 66140, Note_off_c, 9, 56, 52
10, 66160, Note_off_c, 9, 75, 52
10, 66232, Note_on_c, 9, 42, 71
10, 66274, Note_off_c, 9, 42, 71
10, 66432, Note_on_c, 9, 54, 78
10, 66432, Note_on_c, 9, 42, 110
10, 66432, Note_on_c, 9, 40, 91
10, 66432, Note_on_c, 9, 36, 101
10, 66434, Note_on_c, 9, 56, 52
10, 66438, Note_on_c, 9, 75, 52
10, 66448, Note_off_c, 9, 36, 101
10, 66490, Note_off_c, 9, 54, 78
10, 66510, Note_off_c, 9, 42, 110
10, 66524, Note_off_c, 9, 75, 52
10, 66554, Note_off_c, 9, 56, 52
10, 66616, Note_on_c, 9, 42, 46
10, 66622, Note_off_c, 9, 40, 91
10, 66658, Note_off_c, 9, 42, 46
10, 66812, Note_on_c, 9, 56, 52
10, 66814, Note_on_c, 9, 75, 52
10, 66816, Note_on_c, 9, 42, 108
10, 66816, Note_on_c, 9, 36, 101
10, 66832, Note_off_c, 9, 36, 101
10, 66892, Note_off_c, 9, 75, 52
10, 66894, Note_off_c, 9, 42, 108
10, 66940, Note_off_c, 9, 56, 52
10, 67000, Note_on_c, 9, 42, 42
10, 67050, Note_off_c, 9, 42, 42
10, 67196, Note_on_c, 9, 54, 75
10, 67198, Note_on_c, 9, 56, 52
10, 67198, Note_on_c, 9, 75, 52
10, 67200, Note_on_c, 9, 42, 111
10, 67200, Note_on_c, 9, 40, 91
10, 67200, Note_on_c, 9, 36, 101
10, 67216, Note_off_c, 9, 36, 101
10, 67250, Note_off_c, 9, 54, 75
10, 67266, Note_off_c, 9, 75, 52
10, 67316, Note_off_c, 9, 42, 111
10, 67370, Note_off_c, 9, 56, 52
10, 67390, Note_off_c, 9, 40, 91
10, 67392, Note_on_c, 9, 42, 65
10, 67440, Note_off_c, 9, 42, 65
10, 67488, Note_on_c, 9, 42, 103
10, 67536, Note_off_c, 9, 42, 103
10, 67582, Note_on_c, 9, 56, 52
10, 67584, Note_on_c, 9, 42, 119
10, 67584, Note_on_c, 9, 36, 101
10, 67590, Note_on_c, 9, 75, 52
10, 67600, Note_off_c, 9, 36, 101
10, 67696, Note_off_c, 9, 75, 52
10, 67696, Note_off_c, 9, 42, 119
10, 67712, Note_off_c, 9, 56, 52
10, 67774, Note_on_c, 9, 42, 54
10, 67824, Note_off_c, 9, 42, 54
10, 67966, Note_on_c, 9, 56, 52
10, 67968, Note_on_c, 9, 54, 78
10, 67968, Note_on_c, 9, 42, 111
10, 67968, Note_on_c, 9, 40, 91
10, 67968, Note_on_c, 9, 36, 101
10, 67974, Note_on_c, 9, 75, 52
10, 67984, Note_off_c, 9, 36, 101
10, 68026, Note_off_c, 9, 54, 78
10, 68060, Note_off_c, 9, 75, 52
10, 68074, Note_off_c, 9, 42, 111
10, 68086, Note_off_c, 9, 56, 52
10, 68158, Note_off_c, 9, 40, 91
10, 68158, Note_on_c, 9, 42, 58
10, 68200, Note_off_c, 9, 42, 58
10, 68256, Note_on_c, 9, 40, 91
10, 68350, Note_on_c, 9, 56, 52
10, 68350, Note_on_c, 9, 75, 52
10, 68352, Note_on_c, 9, 42, 110
10, 68352, Note_on_c, 9, 36, 101
10, 68368, Note_off_c, 9, 36, 101
10, 68428, Note_off_c, 9, 75, 52
10, 68440, Note_off_c, 9, 42, 110
10, 68446, Note_off_c, 9, 40, 91
10, 68484, Note_off_c, 9, 56, 52
10, 68536, Note_on_c, 9, 42, 70
10, 68574, Note_off_c, 9, 42, 70
10, 68732, Note_on_c, 9, 54, 75
10, 68734, Note_on_c, 9, 56, 52
10, 68734, Note_on_c, 9, 75, 52
10, 68736, Note_on_c, 9, 42, 110
10, 68736, Note_on_c, 9, 40, 91
10, 68736, Note_on_c, 9, 36, 101
10, 68752, Note_off_c, 9, 36, 101
10, 68760, Control_c, 9, 64, 127
10, 68768, Control_c, 9, 64, 0
10, 68786, Note_off_c, 9, 54, 75
10, 68802, Note_off_c, 9, 75, 52
10, 68840, Note_off_c, 9, 42, 110
10, 68856, Note_off_c, 9, 56, 52
10, 68926, Note_off_c, 9, 40, 91
10, 68928, Note_on_c, 9, 42, 65
10, 68962, Note_off_c, 9, 42, 65
10, 69024, Note_on_c, 9, 42, 97
10, 69058, Note_off_c, 9, 42, 97
10, 69120, Note_on_c, 9, 56, 52
10, 69120, Note_on_c, 9, 42, 119
10, 69120, Note_on_c, 9, 36, 101
10, 69126, Note_on_c, 9, 75, 52
10, 69136, Note_off_c, 9, 36, 101
10, 69212, Note_off_c, 9, 56, 52
10, 69232, Note_off_c, 9, 75, 52
10, 69232, Note_off_c, 9, 42, 119
10, 69310, Note_on_c, 9, 42, 54
10, 69360, Note_off_c, 9, 42, 54
10, 69504, Note_on_c, 9, 54, 78
10, 69504, Note_on_c, 9, 42, 110
10, 69504, Note_on_c, 9, 40, 91
10, 69504, Note_on_c, 9, 36, 101
10, 69506, Note_on_c, 9, 56, 52
10, 69510, Note_on_c, 9, 75, 52
10, 69520, Note_off_c, 9, 36, 101
10, 69562, Note_off_c, 9, 54, 78
10, 69582, Note_off_c, 9, 42, 110
10, 69596, Note_off_c, 9, 75, 52
10, 69626, Note_off_c, 9, 56, 52
10, 69688, Note_on_c, 9, 42, 46
10, 69694, Note_off_c, 9, 40, 91
10, 69730, Note_off_c, 9, 42, 46
10, 69884, Note_on_c, 9, 56, 52
10, 69886, Note_on_c, 9, 75, 52
10, 69888, Note_on_c, 9, 42, 108
10, 69888, Note_on_c, 9, 36, 101
10, 69904, Note_off_c, 9, 36, 101
10, 69964, Note_off_c, 9, 75, 52
10, 69966, Note_off_c, 9, 42, 108
10, 70012, Note_off_c, 9, 56, 52
10, 70072, Note_on_c, 9, 42, 42
10, 70122, Note_off_c, 9, 42, 42
10, 70268, Note_on_c, 9, 54, 75
10, 70270, Note_on_c, 9, 56, 52
10, 70270, Note_on_c, 9, 75, 52
10, 70272, Note_on_c, 9, 42, 108
10, 70272, Note_on_c, 9, 40, 91
10, 70272, Note_on_c, 9, 36, 101
10, 70288, Note_off_c, 9, 36, 101
10, 70322, Note_off_c, 9, 54, 75
10, 70338, Note_off_c, 9, 75, 52
10, 70350, Note_off_c, 9, 42, 108
10, 70442, Note_off_c, 9, 56, 52
10, 70462, Note_off_c, 9, 40, 91
10, 70464, Note_on_c, 9, 42, 65
10, 70514, Note_off_c, 9, 42, 65
10, 70654, Note_on_c, 9, 56, 52
10, 70656, Note_on_c, 9, 42, 119
10, 70656, Note_on_c, 9, 36, 101
10, 70662, Note_on_c, 9, 75, 52
10, 70672, Note_off_c, 9, 36, 101
10, 70768, Note_off_c, 9, 75, 52
10, 70768, Note_off_c, 9, 42, 119
10, 70784, Note_off_c, 9, 56, 52
10, 70848, Note_on_c, 9, 42, 54
10, 70898, Note_off_c, 9, 42, 54
10, 71038, Note_on_c, 9, 56, 52
10, 71040, Note_on_c, 9, 54, 78
10, 71040, Note_on_c, 9, 42, 111
10, 71040, Note_on_c, 9, 40, 91
10, 71040, Note_on_c, 9, 36, 101
10, 71046, Note_on_c, 9, 75, 52
10, 71056, Note_off_c, 9, 36, 101
10, 71098, Note_off_c, 9, 54, 78
10, 71132, Note_off_c, 9, 75, 52
10, 71146, Note_off_c, 9, 42, 111
10, 71158, Note_off_c, 9, 56, 52
10, 71230, Note_off_c, 9, 40, 91
10, 71232, Note_on_c, 9, 42, 54
10, 71282, Note_off_c, 9, 42, 54
10, 71336, Note_on_c, 9, 40, 87
10, 71396, Note_off_c, 9, 40, 87
10, 71422, Note_on_c, 9, 56, 52
10, 71422, Note_on_c, 9, 75, 52
10, 71424, Note_on_c, 9, 42, 110
10, 71424, Note_on_c, 9, 36, 101
10, 71440, Note_off_c, 9, 36, 101
10, 71444, Note_off_c, 9, 42, 110
10, 71500, Note_off_c, 9, 75, 52
10, 71556, Note_off_c, 9, 56, 52
10, 71608, Note_on_c, 9, 42, 91
10, 71646, Note_off_c, 9, 42, 91
10, 71664, Note_on_c, 9, 42, 76
10, 71684, Note_off_c, 9, 42, 76
10, 71712, Note_on_c, 9, 42, 85
10, 71732, Note_off_c, 9, 42, 85
10, 71804, Note_on_c, 9, 54, 75
10, 71806, Note_on_c, 9, 56, 52
10, 71806, Note_on_c, 9, 75, 52
10, 71808, Note_on_c, 9, 42, 111
10, 71808, Note_on_c, 9, 40, 95
10, 71808, Note_on_c, 9, 36, 101
10, 71824, Note_off_c, 9, 36, 101
10, 71832, Control_c, 9, 64, 127
10, 71840, Control_c, 9, 64, 0
10, 71858, Note_off_c, 9, 54, 75
10, 71874, Note_off_c, 9, 75, 52
10, 71876, Note_off_c, 9, 42, 111
10, 71928, Note_off_c, 9, 56, 52
10, 71998, Note_off_c, 9, 40, 95
10, 72000, Note_on_c, 9, 42, 97
10, 72048, Note_off_c, 9, 42, 97
10, 72096, Note_on_c, 9, 42, 88
10, 72144, Note_off_c, 9, 42, 88
10, 72192, Note_on_c, 9, 56, 52
10, 72192, Note_on_c, 9, 46, 108
10, 72192, Note_on_c, 9, 36, 101
10, 72198, Note_on_c, 9, 75, 52
10, 72208, Note_off_c, 9, 36, 101
10, 72270, Note_off_c, 9, 46, 108
10, 72284, Note_off_c, 9, 56, 52
10, 72304, Note_off_c, 9, 75, 52
10, 72576, Note_on_c, 9, 54, 78
10, 72576, Note_on_c, 9, 42, 110
10, 72576, Note_on_c, 9, 40, 91
10, 72576, Note_on_c, 9, 36, 101
10, 72578, Note_on_c, 9, 56, 52
10, 72582, Note_on_c, 9, 75, 52
10, 72592, Note_off_c, 9, 36, 101
10, 72634, Note_off_c, 9, 54, 78
10, 72654, Note_off_c, 9, 42, 110
10, 72668, Note_off_c, 9, 75, 52
10, 72698, Note_off_c, 9, 56, 52
10, 72760, Note_on_c, 9, 42, 53
10, 72766, Note_off_c, 9, 40, 91
10, 72802, Note_off_c, 9, 42, 53
10, 72956, Note_on_c, 9, 56, 52
10, 72958, Note_on_c, 9, 75, 52
10, 72960, Note_on_c, 9, 42, 108
10, 72960, Note_on_c, 9, 36, 101
10, 72976, Note_off_c, 9, 36, 101
10, 73036, Note_off_c, 9, 75, 52
10, 73038, Note_off_c, 9, 42, 108
10, 73084, Note_off_c, 9, 56, 52
10, 73144, Note_on_c, 9, 42, 42
10, 73194, Note_off_c, 9, 42, 42
10, 73340, Note_on_c, 9, 54, 75
10, 73342, Note_on_c, 9, 56, 52
10, 73342, Note_on_c, 9, 75, 52
10, 73344, Note_on_c, 9, 42, 111
10, 73344, Note_on_c, 9, 40, 91
10, 73344, Note_on_c, 9, 36, 101
10, 73360, Note_off_c, 9, 36, 101
10, 73394, Note_off_c, 9, 54, 75
10, 73410, Note_off_c, 9, 75, 52
10, 73460, Note_off_c, 9, 42, 111
10, 73514, Note_off_c, 9, 56, 52
10, 73534, Note_off_c, 9, 40, 91
10, 73536, Note_on_c, 9, 42, 50
10, 73584, Note_off_c, 9, 42, 50
10, 73726, Note_on_c, 9, 56, 52
10, 73728, Note_on_c, 9, 42, 119
10, 73728, Note_on_c, 9, 36, 101
10, 73734, Note_on_c, 9, 75, 52
10, 73744, Note_off_c, 9, 36, 101
10, 73840, Note_off_c, 9, 75, 52
10, 73840, Note_off_c, 9, 42, 119
10, 73856, Note_off_c, 9, 56, 52
10, 73918, Note_on_c, 9, 42, 71
10, 73968, Note_off_c, 9, 42, 71
10, 74110, Note_on_c, 9, 56, 52
10, 74112, Note_on_c, 9, 54, 78
10, 74112, Note_on_c, 9, 42, 111
10, 74112, Note_on_c, 9, 40, 91
10, 74112, Note_on_c, 9, 36, 101
10, 74118, Note_on_c, 9, 75, 52
10, 74128, Note_off_c, 9, 36, 101
10, 74170, Note_off_c, 9, 54, 78
10, 74204, Note_off_c, 9, 75, 52
10, 74218, Note_off_c, 9, 42, 111
10, 74230, Note_off_c, 9, 56, 52
10, 74302, Note_off_c, 9, 40, 91
10, 74302, Note_on_c, 9, 42, 58
10, 74344, Note_off_c, 9, 42, 58
10, 74400, Note_on_c, 9, 40, 91
10, 74494, Note_on_c, 9, 56, 52
10, 74494, Note_on_c, 9, 75, 52
10, 74496, Note_on_c, 9, 42, 110
10, 74496, Note_on_c, 9, 36, 101
10, 74512, Note_off_c, 9, 36, 101
10, 74572, Note_off_c, 9, 75, 52
10, 74584, Note_off_c, 9, 42, 110
10, 74590, Note_off_c, 9, 40, 91
10, 74628, Note_off_c, 9, 56, 52
10, 74688, Note_on_c, 9, 42, 94
10, 74726, Note_off_c, 9, 42, 94
10, 74876, Note_on_c, 9, 54, 75
10, 74878, Note_on_c, 9, 56, 52
10, 74878, Note_on_c, 9, 75, 52
10, 74880, Note_on_c, 9, 42, 110
10, 74880, Note_on_c, 9, 40, 91
10, 74880, Note_on_c, 9, 36, 101
10, 74896, Note_off_c, 9, 36, 101
10, 74904, Control_c, 9, 64, 127
10, 74912, Control_c, 9, 64, 0
10, 74930, Note_off_c, 9, 54, 75
10, 74946, Note_off_c, 9, 75, 52
10, 74984, Note_off_c, 9, 42, 110
10, 75000, Note_off_c, 9, 56, 52
10, 75070, Note_off_c, 9, 40, 91
10, 75072, Note_on_c, 9, 42, 59
10, 75072, Note_on_c, 9, 36, 71
10, 75088, Note_off_c, 9, 36, 71
10, 75106, Note_off_c, 9, 42, 59
10, 75168, Note_on_c, 9, 42, 82
10, 75168, Note_on_c, 9, 36, 91
10, 75184, Note_off_c, 9, 36, 91
10, 75202, Note_off_c, 9, 42, 82
10, 75264, Note_on_c, 9, 56, 52
10, 75264, Note_on_c, 9, 54, 61
10, 75264, Note_on_c, 9, 49, 72
10, 75264, Note_on_c, 9, 36, 101
10, 75270, Note_on_c, 9, 75, 52
10, 75280, Note_off_c, 9, 36, 101
10, 75320, Note_off_c, 9, 49, 72
10, 75324, Note_off_c, 9, 54, 61
10, 75356, Note_off_c, 9, 56, 52
10, 75366, Note_on_c, 9, 54, 23
10, 75376, Note_off_c, 9, 75, 52
10, 75422, Note_off_c, 9, 54, 23
10, 75456, Note_on_c, 9, 42, 50
10, 75460, Note_on_c, 9, 54, 17
10, 75502, Note_off_c, 9, 54, 17
10, 75534, Note_off_c, 9, 42, 50
10, 75552, Note_on_c, 9, 54, 49
10, 75552, Note_on_c, 9, 42, 85
10, 75610, Note_off_c, 9, 54, 49
10, 75630, Note_off_c, 9, 42, 85
10, 75648, Note_on_c, 9, 54, 78
10, 75648, Note_on_c, 9, 42, 110
10, 75648, Note_on_c, 9, 40, 91
10, 75648, Note_on_c, 9, 36, 101
10, 75650, Note_on_c, 9, 56, 52
10, 75654, Note_on_c, 9, 75, 52
10, 75664, Note_off_c, 9, 36, 101
10, 75706, Note_off_c, 9, 54, 78
10, 75726, Note_off_c, 9, 42, 110
10, 75740, Note_off_c, 9, 75, 52
10, 75740, Note_on_c, 9, 54, 45
10, 75770, Note_off_c, 9, 56, 52
10, 75796, Note_off_c, 9, 54, 45
10, 75832, Note_on_c, 9, 42, 46
10, 75838, Note_off_c, 9, 40, 91
10, 75838, Note_on_c, 9, 54, 26
10, 75874, Note_off_c, 9, 42, 46
10, 75884, Note_off_c, 9, 54, 26
10, 75934, Note_on_c, 9, 54, 52
10, 75936, Note_on_c, 9, 42, 91
10, 75978, Note_off_c, 9, 42, 91
10, 75996, Note_off_c, 9, 54, 52
10, 76028, Note_on_c, 9, 56, 52
10, 76030, Note_on_c, 9, 75, 52
10, 76030, Note_on_c, 9, 54, 31
10, 76032, Note_on_c, 9, 42, 108
10, 76032, Note_on_c, 9, 36, 101
10, 76048, Note_off_c, 9, 36, 101
10, 76084, Note_off_c, 9, 54, 31
10, 76108, Note_off_c, 9, 75, 52
10, 76110, Note_off_c, 9, 42, 108
10, 76124, Note_on_c, 9, 54, 49
10, 76156, Note_off_c, 9, 56, 52
10, 76186, Note_off_c, 9, 54, 49
10, 76216, Note_on_c, 9, 42, 62
10, 76220, Note_on_c, 9, 54, 34
10, 76264, Note_off_c, 9, 54, 34
10, 76266, Note_off_c, 9, 42, 62
10, 76318, Note_on_c, 9, 54, 43
10, 76320, Note_on_c, 9, 42, 91
10, 76362, Note_off_c, 9, 42, 91
10, 76376, Note_off_c, 9, 54, 43
10, 76412, Note_on_c, 9, 54, 58
10, 76414, Note_on_c, 9, 56, 52
10, 76414, Note_on_c, 9, 75, 52
10, 76416, Note_on_c, 9, 42, 111
10, 76416, Note_on_c, 9, 40, 91
10, 76416, Note_on_c, 9, 36, 101
10, 76432, Note_off_c, 9, 36, 101
10, 76466, Note_off_c, 9, 54, 58
10, 76482, Note_off_c, 9, 75, 52
10, 76510, Note_on_c, 9, 54, 37
10, 76532, Note_off_c, 9, 42, 111
10, 76572, Note_off_c, 9, 54, 37
10, 76586, Note_off_c, 9, 56, 52
10, 76606, Note_off_c, 9, 40, 91
10, 76606, Note_on_c, 9, 54, 52
10, 76608, Note_on_c, 9, 46, 94
10, 76650, Note_off_c, 9, 54, 52
10, 76656, Note_off_c, 9, 46, 94
10, 76704, Note_on_c, 9, 54, 31
10, 76762, Note_off_c, 9, 54, 31
10, 76798, Note_on_c, 9, 56, 52
10, 76800, Note_on_c, 9, 54, 61
10, 76800, Note_on_c, 9, 42, 119
10, 76800, Note_on_c, 9, 36, 101
10, 76806, Note_on_c, 9, 75, 52
10, 76816, Note_off_c, 9, 36, 101
10, 76860, Note_off_c, 9, 54, 61
10, 76902, Note_on_c, 9, 54, 23
10, 76912, Note_off_c, 9, 75, 52
10, 76912, Note_off_c, 9, 42, 119
10, 76928, Note_off_c, 9, 56, 52
10, 76958, Note_off_c, 9, 54, 23
10, 76992, Note_on_c, 9, 42, 50
10, 76996, Note_on_c, 9, 54, 17
10, 77038, Note_off_c, 9, 54, 17
10, 77070, Note_off_c, 9, 42, 50
10, 77088, Note_on_c, 9, 54, 49
10, 77088, Note_on_c, 9, 42, 85
10, 77146, Note_off_c, 9, 54, 49
10, 77166, Note_off_c, 9, 42, 85
10, 77182, Note_on_c, 9, 56, 52
10, 77184, Note_on_c, 9, 54, 78
10, 77184, Note_on_c, 9, 42, 110
10, 77184, Note_on_c, 9, 40, 91
10, 77184, Note_on_c, 9, 36, 101
10, 77190, Note_on_c, 9, 75, 52
10, 77200, Note_off_c, 9, 36, 101
10, 77242, Note_off_c, 9, 54, 78
10, 77262, Note_off_c, 9, 42, 110
10, 77276, Note_off_c, 9, 75, 52
10, 77276, Note_on_c, 9, 54, 43
10, 77302, Note_off_c, 9, 56, 52
10, 77332, Note_off_c, 9, 54, 43
10, 77368, Note_on_c, 9, 42, 46
10, 77374, Note_off_c, 9, 40, 91
10, 77374, Note_on_c, 9, 54, 26
10, 77410, Note_off_c, 9, 42, 46
10, 77420, Note_off_c, 9, 54, 26
10, 77470, Note_on_c, 9, 54, 46
10, 77472, Note_on_c, 9, 42, 91
10, 77472, Note_on_c, 9, 40, 91
10, 77514, Note_off_c, 9, 42, 91
10, 77532, Note_off_c, 9, 54, 46
10, 77566, Note_on_c, 9, 56, 52
10, 77566, Note_on_c, 9, 75, 52
10, 77566, Note_on_c, 9, 54, 31
10, 77568, Note_on_c, 9, 42, 108
10, 77568, Note_on_c, 9, 36, 101
10, 77584, Note_off_c, 9, 36, 101
10, 77620, Note_off_c, 9, 54, 31
10, 77644, Note_off_c, 9, 75, 52
10, 77646, Note_off_c, 9, 42, 108
10, 77660, Note_on_c, 9, 54, 49
10, 77662, Note_off_c, 9, 40, 91
10, 77700, Note_off_c, 9, 56, 52
10, 77722, Note_off_c, 9, 54, 49
10, 77752, Note_on_c, 9, 42, 62
10, 77756, Note_on_c, 9, 54, 34
10, 77800, Note_off_c, 9, 54, 34
10, 77802, Note_off_c, 9, 42, 62
10, 77854, Note_on_c, 9, 54, 43
10, 77856, Note_on_c, 9, 42, 91
10, 77898, Note_off_c, 9, 42, 91
10, 77912, Note_off_c, 9, 54, 43
10, 77948, Note_on_c, 9, 54, 58
10, 77950, Note_on_c, 9, 56, 52
10, 77950, Note_on_c, 9, 75, 52
10, 77952, Note_on_c, 9, 42, 110
10, 77952, Note_on_c, 9, 40, 91
10, 77952, Note_on_c, 9, 36, 101
10, 77968, Note_off_c, 9, 36, 101
10, 77976, Control_c, 9, 64, 127
10, 77984, Control_c, 9, 64, 0
10, 78002, Note_off_c, 9, 54, 58
10, 78018, Note_off_c, 9, 75, 52
10, 78046, Note_on_c, 9, 54, 37
10, 78056, Note_off_c, 9, 42, 110
10, 78072, Note_off_c, 9, 56, 52
10, 78108, Note_off_c, 9, 54, 37
10, 78142, Note_off_c, 9, 40, 91
10, 78142, Note_on_c, 9, 54, 52
10, 78144, Note_on_c, 9, 46, 91
10, 78144, Note_on_c, 9, 36, 65
10, 78160, Note_off_c, 9, 36, 65
10, 78178, Note_off_c, 9, 46, 91
10, 78186, Note_off_c, 9, 54, 52
10, 78240, Note_on_c, 9, 54, 31
10, 78240, Note_on_c, 9, 36, 83
10, 78256, Note_off_c, 9, 36, 83
10, 78298, Note_off_c, 9, 54, 31
10, 78336, Note_on_c, 9, 56, 52
10, 78336, Note_on_c, 9, 54, 61
10, 78336, Note_on_c, 9, 42, 119
10, 78336, Note_on_c, 9, 36, 101
10, 78342, Note_on_c, 9, 75, 52
10, 78352, Note_off_c, 9, 36, 101
10, 78396, Note_off_c, 9, 54, 61
10, 78414, Note_off_c, 9, 42, 119
10, 78428, Note_off_c, 9, 56, 52
10, 78438, Note_on_c, 9, 54, 23
10, 78448, Note_off_c, 9, 75, 52
10, 78494, Note_off_c, 9, 54, 23
10, 78520, Note_on_c, 9, 42, 46
10, 78532, Note_on_c, 9, 54, 17
10, 78562, Note_off_c, 9, 42, 46
10, 78574, Note_off_c, 9, 54, 17
10, 78624, Note_on_c, 9, 54, 49
10, 78624, Note_on_c, 9, 42, 85
10, 78666, Note_off_c, 9, 42, 85
10, 78682, Note_off_c, 9, 54, 49
10, 78720, Note_on_c, 9, 54, 78
10, 78720, Note_on_c, 9, 42, 110
10, 78720, Note_on_c, 9, 40, 91
10, 78720, Note_on_c, 9, 36, 101
10, 78722, Note_on_c, 9, 56, 52
10, 78726, Note_on_c, 9, 75, 52
10, 78736, Note_off_c, 9, 36, 101
10, 78736, Note_off_c, 9, 40, 91
10, 78778, Note_off_c, 9, 54, 78
10, 78798, Note_off_c, 9, 42, 110
10, 78812, Note_off_c, 9, 75, 52
10, 78812, Note_on_c, 9, 54, 45
10, 78842, Note_off_c, 9, 56, 52
10, 78868, Note_off_c, 9, 54, 45
10, 78904, Note_on_c, 9, 42, 65
10, 78910, Note_on_c, 9, 54, 26
10, 78946, Note_off_c, 9, 42, 65
10, 78956, Note_off_c, 9, 54, 26
10, 78962, Note_on_c, 9, 42, 50
10, 79004, Note_off_c, 9, 42, 50
10, 79006, Note_on_c, 9, 54, 52
10, 79036, Note_on_c, 9, 42, 44
10, 79068, Note_off_c, 9, 54, 52
10, 79078, Note_off_c, 9, 42, 44
10, 79100, Note_on_c, 9, 56, 52
10, 79102, Note_on_c, 9, 75, 52
10, 79102, Note_on_c, 9, 54, 31
10, 79104, Note_on_c, 9, 42, 108
10, 79104, Note_on_c, 9, 36, 101
10, 79120, Note_off_c, 9, 36, 101
10, 79156, Note_off_c, 9, 54, 31
10, 79180, Note_off_c, 9, 75, 52
10, 79182, Note_off_c, 9, 42, 108
10, 79196, Note_on_c, 9, 54, 49
10, 79200, Note_on_c, 9, 42, 74
10, 79228, Note_off_c, 9, 56, 52
10, 79258, Note_off_c, 9, 54, 49
10, 79278, Note_off_c, 9, 42, 74
10, 79288, Note_on_c, 9, 46, 91
10, 79292, Note_on_c, 9, 54, 34
10, 79336, Note_off_c, 9, 54, 34
10, 79338, Note_off_c, 9, 46, 91
10, 79390, Note_on_c, 9, 54, 43
10, 79448, Note_off_c, 9, 54, 43
10, 79484, Note_on_c, 9, 54, 58
10, 79486, Note_on_c, 9, 56, 52
10, 79486, Note_on_c, 9, 75, 52
10, 79488, Note_on_c, 9, 42, 111
10, 79488, Note_on_c, 9, 40, 91
10, 79488, Note_on_c, 9, 36, 101
10, 79504, Note_off_c, 9, 36, 101
10, 79504, Note_off_c, 9, 40, 91
10, 79538, Note_off_c, 9, 54, 58
10, 79554, Note_off_c, 9, 75, 52
10, 79566, Note_off_c, 9, 42, 111
10, 79582, Note_on_c, 9, 54, 37
10, 79584, Note_on_c, 9, 42, 56
10, 79616, Note_off_c, 9, 42, 56
10, 79644, Note_off_c, 9, 54, 37
10, 79658, Note_off_c, 9, 56, 52
10, 79678, Note_on_c, 9, 54, 52
10, 79680, Note_on_c, 9, 42, 62
10, 79680, Note_on_c, 9, 36, 74
10, 79696, Note_off_c, 9, 36, 74
10, 79712, Note_off_c, 9, 42, 62
10, 79722, Note_off_c, 9, 54, 52
10, 79776, Note_on_c, 9, 54, 31
10, 79776, Note_on_c, 9, 42, 85
10, 79776, Note_on_c, 9, 36, 83
10, 79792, Note_off_c, 9, 36, 83
10, 79808, Note_off_c, 9, 42, 85
10, 79834, Note_off_c, 9, 54, 31
10, 79870, Note_on_c, 9, 56, 52
10, 79872, Note_on_c, 9, 54, 61
10, 79872, Note_on_c, 9, 46, 105
10, 79872, Note_on_c, 9, 36, 101
10, 79878, Note_on_c, 9, 75, 52
10, 79888, Note_off_c, 9, 36, 101
10, 79932, Note_off_c, 9, 54, 61
10, 79974, Note_on_c, 9, 54, 23
10, 79984, Note_off_c, 9, 75, 52
10, 79984, Note_off_c, 9, 46, 105
10, 80000, Note_off_c, 9, 56, 52
10, 80030, Note_off_c, 9, 54, 23
10, 80064, Note_on_c, 9, 44, 56
10, 80064, Note_on_c, 9, 40, 72
10, 80064, Note_on_c, 9, 36, 83
10, 80068, Note_on_c, 9, 54, 17
10, 80080, Note_off_c, 9, 36, 83
10, 80080, Note_off_c, 9, 40, 72
10, 80102, Note_off_c, 9, 44, 56
10, 80110, Note_off_c, 9, 54, 17
10, 80160, Note_on_c, 9, 54, 49
10, 80160, Note_on_c, 9, 42, 85
10, 80198, Note_off_c, 9, 42, 85
10, 80218, Note_off_c, 9, 54, 49
10, 80254, Note_on_c, 9, 56, 52
10, 80256, Note_on_c, 9, 54, 78
10, 80256, Note_on_c, 9, 40, 84
10, 80256, Note_on_c, 9, 36, 101
10, 80262, Note_on_c, 9, 75, 52
10, 80272, Note_off_c, 9, 36, 101
10, 80272, Note_off_c, 9, 40, 84
10, 80314, Note_off_c, 9, 54, 78
10, 80348, Note_off_c, 9, 75, 52
10, 80348, Note_on_c, 9, 54, 43
10, 80352, Note_on_c, 9, 42, 97
10, 80374, Note_off_c, 9, 56, 52
10, 80394, Note_off_c, 9, 42, 97
10, 80404, Note_off_c, 9, 54, 43
10, 80446, Note_on_c, 9, 54, 26
10, 80448, Note_on_c, 9, 46, 100
10, 80448, Note_on_c, 9, 40, 91
10, 80448, Note_on_c, 9, 36, 101
10, 80464, Note_off_c, 9, 36, 101
10, 80464, Note_off_c, 9, 40, 91
10, 80486, Note_off_c, 9, 46, 100
10, 80492, Note_off_c, 9, 54, 26
10, 80542, Note_on_c, 9, 54, 46
10, 80604, Note_off_c, 9, 54, 46
10, 80638, Note_on_c, 9, 56, 52
10, 80638, Note_on_c, 9, 75, 52
10, 80638, Note_on_c, 9, 54, 31
10, 80640, Note_on_c, 9, 42, 88
10, 80640, Note_on_c, 9, 40, 101
10, 80656, Note_off_c, 9, 40, 101
10, 80678, Note_off_c, 9, 42, 88
10, 80692, Note_off_c, 9, 54, 31
10, 80716, Note_off_c, 9, 75, 52
10, 80732, Note_on_c, 9, 54, 49
10, 80732, Note_on_c, 9, 42, 76
10, 80770, Note_off_c, 9, 42, 76
10, 80772, Note_off_c, 9, 56, 52
10, 80784, Note_on_c, 9, 42, 76
10, 80794, Note_off_c, 9, 54, 49
10, 80822, Note_off_c, 9, 42, 76
10, 80828, Note_on_c, 9, 54, 34
10, 80832, Note_on_c, 9, 42, 85
10, 80832, Note_on_c, 9, 40, 93
10, 80848, Note_off_c, 9, 40, 93
10, 80870, Note_off_c, 9, 42, 85
10, 80872, Note_off_c, 9, 54, 34
10, 80924, Note_on_c, 9, 40, 78
10, 80926, Note_on_c, 9, 54, 43
10, 80928, Note_on_c, 9, 42, 85
10, 80940, Note_off_c, 9, 40, 78
10, 80970, Note_off_c, 9, 42, 85
10, 80984, Note_off_c, 9, 54, 43
10, 81020, Note_on_c, 9, 54, 58
10, 81022, Note_on_c, 9, 56, 52
10, 81022, Note_on_c, 9, 75, 52
10, 81022, Note_on_c, 9, 48, 73
10, 81024, Note_on_c, 9, 42, 74
10, 81024, Note_on_c, 9, 36, 101
10, 81040, Note_off_c, 9, 36, 101
10, 81048, Control_c, 9, 64, 127
10, 81056, Control_c, 9, 64, 0
10, 81066, Note_off_c, 9, 42, 74
10, 81074, Note_off_c, 9, 54, 58
10, 81090, Note_off_c, 9, 75, 52
10, 81118, Note_on_c, 9, 54, 37
10, 81120, Note_on_c, 9, 42, 85
10, 81120, Note_on_c, 9, 40, 58
10, 81136, Note_off_c, 9, 40, 58
10, 81144, Note_off_c, 9, 56, 52
10, 81162, Note_off_c, 9, 42, 85
10, 81180, Note_off_c, 9, 54, 37
10, 81202, Note_off_c, 9, 48, 73
10, 81210, Note_on_c, 9, 45, 69
10, 81214, Note_on_c, 9, 54, 52
10, 81216, Note_on_c, 9, 46, 103
10, 81216, Note_on_c, 9, 36, 74
10, 81232, Note_off_c, 9, 36, 74
10, 81258, Note_off_c, 9, 46, 103
10, 81258, Note_off_c, 9, 54, 52
10, 81312, Note_on_c, 9, 54, 31
10, 81312, Note_on_c, 9, 40, 64
10, 81312, Note_on_c, 9, 36, 83
10, 81328, Note_off_c, 9, 36, 83
10, 81328, Note_off_c, 9, 40, 64
10, 81358, Note_off_c, 9, 45, 69
10, 81370, Note_off_c, 9, 54, 31
10, 81408, Note_on_c, 9, 56, 52
10, 81408, Note_on_c, 9, 54, 61
10, 81408, Note_on_c, 9, 49, 72
10, 81408, Note_on_c, 9, 36, 101
10, 81414, Note_on_c, 9, 75, 52
10, 81424, Note_off_c, 9, 36, 101
10, 81464, Note_off_c, 9, 49, 72
10, 81468, Note_off_c, 9, 54, 61
10, 81500, Note_off_c, 9, 56, 52
10, 81510, Note_on_c, 9, 54, 23
10, 81520, Note_off_c, 9, 75, 52
10, 81566, Note_off_c, 9, 54, 23
10, 81604, Note_on_c, 9, 54, 17
10, 81646, Note_off_c, 9, 54, 17
10, 81696, Note_on_c, 9, 54, 49
10, 81754, Note_off_c, 9, 54, 49
10, 81792, Note_on_c, 9, 54, 78
10, 81792, Note_on_c, 9, 42, 110
10, 81792, Note_on_c, 9, 40, 91
10, 81792, Note_on_c, 9, 36, 101
10, 81794, Note_on_c, 9, 56, 52
10, 81798, Note_on_c, 9, 75, 52
10, 81808, Note_off_c, 9, 36, 101
10, 81850, Note_off_c, 9, 54, 78
10, 81870, Note_off_c, 9, 42, 110
10, 81884, Note_off_c, 9, 75, 52
10, 81884, Note_on_c, 9, 54, 45
10, 81914, Note_off_c, 9, 56, 52
10, 81940, Note_off_c, 9, 54, 45
10, 81976, Note_on_c, 9, 42, 46
10, 81982, Note_off_c, 9, 40, 91
10, 81982, Note_on_c, 9, 54, 26
10, 82018, Note_off_c, 9, 42, 46
10, 82028, Note_off_c, 9, 54, 26
10, 82078, Note_on_c, 9, 54, 52
10, 82080, Note_on_c, 9, 40, 91
10, 82140, Note_off_c, 9, 54, 52
10, 82172, Note_on_c, 9, 56, 52
10, 82174, Note_on_c, 9, 75, 52
10, 82174, Note_on_c, 9, 54, 31
10, 82176, Note_on_c, 9, 42, 108
10, 82176, Note_on_c, 9, 36, 101
10, 82192, Note_off_c, 9, 36, 101
10, 82228, Note_off_c, 9, 54, 31
10, 82252, Note_off_c, 9, 75, 52
10, 82254, Note_off_c, 9, 42, 108
10, 82268, Note_on_c, 9, 54, 49
10, 82270, Note_off_c, 9, 40, 91
10, 82300, Note_off_c, 9, 56, 52
10, 82330, Note_off_c, 9, 54, 49
10, 82360, Note_on_c, 9, 42, 42
10, 82364, Note_on_c, 9, 54, 34
10, 82408, Note_off_c, 9, 54, 34
10, 82410, Note_off_c, 9, 42, 42
10, 82462, Note_on_c, 9, 54, 43
10, 82520, Note_off_c, 9, 54, 43
10, 82556, Note_on_c, 9, 54, 58
10, 82558, Note_on_c, 9, 56, 52
10, 82558, Note_on_c, 9, 75, 52
10, 82560, Note_on_c, 9, 42, 111
10, 82560, Note_on_c, 9, 40, 91
10, 82560, Note_on_c, 9, 36, 101
10, 82576, Note_off_c, 9, 36, 101
10, 82610, Note_off_c, 9, 54, 58
10, 82626, Note_off_c, 9, 75, 52
10, 82654, Note_on_c, 9, 54, 37
10, 82676, Note_off_c, 9, 42, 111
10, 82716, Note_off_c, 9, 54, 37
10, 82730, Note_off_c, 9, 56, 52
10, 82750, Note_off_c, 9, 40, 91
10, 82750, Note_on_c, 9, 54, 52
10, 82752, Note_on_c, 9, 46, 94
10, 82794, Note_off_c, 9, 54, 52
10, 82800, Note_off_c, 9, 46, 94
10, 82848, Note_on_c, 9, 54, 31
10, 82906, Note_off_c, 9, 54, 31
10, 82942, Note_on_c, 9, 56, 52
10, 82944, Note_on_c, 9, 54, 61
10, 82944, Note_on_c, 9, 42, 119
10, 82944, Note_on_c, 9, 36, 101
10, 82950, Note_on_c, 9, 75, 52
10, 82960, Note_off_c, 9, 36, 101
10, 83004, Note_off_c, 9, 54, 61
10, 83046, Note_on_c, 9, 54, 23
10, 83056, Note_off_c, 9, 75, 52
10, 83056, Note_off_c, 9, 42, 119
10, 83072, Note_off_c, 9, 56, 52
10, 83102, Note_off_c, 9, 54, 23
10, 83134, Note_on_c, 9, 42, 54
10, 83140, Note_on_c, 9, 54, 17
10, 83182, Note_off_c, 9, 54, 17
10, 83184, Note_off_c, 9, 42, 54
10, 83232, Note_on_c, 9, 54, 49
10, 83232, Note_on_c, 9, 42, 44
10, 83282, Note_off_c, 9, 42, 44
10, 83290, Note_off_c, 9, 54, 49
10, 83326, Note_on_c, 9, 56, 52
10, 83328, Note_on_c, 9, 54, 78
10, 83328, Note_on_c, 9, 42, 111
10, 83328, Note_on_c, 9, 40, 91
10, 83328, Note_on_c, 9, 36, 101
10, 83334, Note_on_c, 9, 75, 52
10, 83344, Note_off_c, 9, 36, 101
10, 83386, Note_off_c, 9, 54, 78
10, 83420, Note_off_c, 9, 75, 52
10, 83420, Note_on_c, 9, 54, 43
10, 83434, Note_off_c, 9, 42, 111
10, 83446, Note_off_c, 9, 56, 52
10, 83476, Note_off_c, 9, 54, 43
10, 83518, Note_off_c, 9, 40, 91
10, 83518, Note_on_c, 9, 54, 26
10, 83518, Note_on_c, 9, 42, 58
10, 83560, Note_off_c, 9, 42, 58
10, 83564, Note_off_c, 9, 54, 26
10, 83614, Note_on_c, 9, 54, 46
10, 83616, Note_on_c, 9, 40, 91
10, 83676, Note_off_c, 9, 54, 46
10, 83710, Note_on_c, 9, 56, 52
10, 83710, Note_on_c, 9, 75, 52
10, 83710, Note_on_c, 9, 54, 31
10, 83712, Note_on_c, 9, 42, 110
10, 83712, Note_on_c, 9, 36, 101
10, 83728, Note_off_c, 9, 36, 101
10, 83764, Note_off_c, 9, 54, 31
10, 83788, Note_off_c, 9, 75, 52
10, 83800, Note_off_c, 9, 42, 110
10, 83804, Note_on_c, 9, 54, 49
10, 83806, Note_off_c, 9, 40, 91
10, 83844, Note_off_c, 9, 56, 52
10, 83866, Note_off_c, 9, 54, 49
10, 83896, Note_on_c, 9, 42, 70
10, 83900, Note_on_c, 9, 54, 34
10, 83934, Note_off_c, 9, 42, 70
10, 83944, Note_off_c, 9, 54, 34
10, 83998, Note_on_c, 9, 54, 43
10, 84056, Note_off_c, 9, 54, 43
10, 84092, Note_on_c, 9, 54, 58
10, 84094, Note_on_c, 9, 56, 52
10, 84094, Note_on_c, 9, 75, 52
10, 84096, Note_on_c, 9, 42, 110
10, 84096, Note_on_c, 9, 40, 91
10, 84096, Note_on_c, 9, 36, 101
10, 84112, Note_off_c, 9, 36, 101
10, 84120, Control_c, 9, 64, 127
10, 84128, Control_c, 9, 64, 0
10, 84146, Note_off_c, 9, 54, 58
10, 84162, Note_off_c, 9, 75, 52
10, 84190, Note_on_c, 9, 54, 37
10, 84200, Note_off_c, 9, 42, 110
10, 84216, Note_off_c, 9, 56, 52
10, 84252, Note_off_c, 9, 54, 37
10, 84286, Note_off_c, 9, 40, 91
10, 84286, Note_on_c, 9, 54, 52
10, 84288, Note_on_c, 9, 42, 91
10, 84322, Note_off_c, 9, 42, 91
10, 84330, Note_off_c, 9, 54, 52
10, 84384, Note_on_c, 9, 54, 31
10, 84442, Note_off_c, 9, 54, 31
10, 84480, Note_on_c, 9, 56, 52
10, 84480, Note_on_c, 9, 54, 61
10, 84480, Note_on_c, 9, 42, 119
10, 84480, Note_on_c, 9, 36, 101
10, 84486, Note_on_c, 9, 75, 52
10, 84496, Note_off_c, 9, 36, 101
10, 84540, Note_off_c, 9, 54, 61
10, 84572, Note_off_c, 9, 56, 52
10, 84582, Note_on_c, 9, 54, 23
10, 84592, Note_off_c, 9, 75, 52
10, 84592, Note_off_c, 9, 42, 119
10, 84638, Note_off_c, 9, 54, 23
10, 84670, Note_on_c, 9, 42, 54
10, 84676, Note_on_c, 9, 54, 17
10, 84718, Note_off_c, 9, 54, 17
10, 84720, Note_off_c, 9, 42, 54
10, 84768, Note_on_c, 9, 54, 49
10, 84826, Note_off_c, 9, 54, 49
10, 84864, Note_on_c, 9, 54, 78
10, 84864, Note_on_c, 9, 42, 110
10, 84864, Note_on_c, 9, 40, 91
10, 84864, Note_on_c, 9, 36, 101
10, 84866, Note_on_c, 9, 56, 52
10, 84870, Note_on_c, 9, 75, 52
10, 84880, Note_off_c, 9, 36, 101
10, 84922, Note_off_c, 9, 54, 78
10, 84942, Note_off_c, 9, 42, 110
10, 84956, Note_off_c, 9, 75, 52
10, 84956, Note_on_c, 9, 54, 45
10, 84986, Note_off_c, 9, 56, 52
10, 85012, Note_off_c, 9, 54, 45
10, 85048, Note_on_c, 9, 42, 46
10, 85054, Note_off_c, 9, 40, 91
10, 85054, Note_on_c, 9, 54, 26
10, 85090, Note_off_c, 9, 42, 46
10, 85100, Note_off_c, 9, 54, 26
10, 85148, Note_on_c, 9, 42, 65
10, 85150, Note_on_c, 9, 54, 52
10, 85152, Note_on_c, 9, 40, 91
10, 85198, Note_off_c, 9, 42, 65
10, 85212, Note_off_c, 9, 54, 52
10, 85244, Note_on_c, 9, 56, 52
10, 85246, Note_on_c, 9, 75, 52
10, 85246, Note_on_c, 9, 54, 31
10, 85248, Note_on_c, 9, 42, 108
10, 85248, Note_on_c, 9, 36, 101
10, 85264, Note_off_c, 9, 36, 101
10, 85300, Note_off_c, 9, 54, 31
10, 85324, Note_off_c, 9, 75, 52
10, 85326, Note_off_c, 9, 42, 108
10, 85340, Note_on_c, 9, 54, 49
10, 85342, Note_off_c, 9, 40, 91
10, 85372, Note_off_c, 9, 56, 52
10, 85402, Note_off_c, 9, 54, 49
10, 85432, Note_on_c, 9, 42, 42
10, 85436, Note_on_c, 9, 54, 34
10, 85480, Note_off_c, 9, 54, 34
10, 85482, Note_off_c, 9, 42, 42
10, 85534, Note_on_c, 9, 54, 43
10, 85592, Note_off_c, 9, 54, 43
10, 85628, Note_on_c, 9, 54, 58
10, 85630, Note_on_c, 9, 56, 52
10, 85630, Note_on_c, 9, 75, 52
10, 85632, Note_on_c, 9, 42, 111
10, 85632, Note_on_c, 9, 40, 91
10, 85632, Note_on_c, 9, 36, 101
10, 85648, Note_off_c, 9, 36, 101
10, 85682, Note_off_c, 9, 54, 58
10, 85698, Note_off_c, 9, 75, 52
10, 85700, Note_off_c, 9, 42, 111
10, 85726, Note_on_c, 9, 54, 37
10, 85728, Note_on_c, 9, 42, 94
10, 85728, Note_on_c, 9, 36, 65
10, 85744, Note_off_c, 9, 36, 65
10, 85776, Note_off_c, 9, 42, 94
10, 85788, Note_off_c, 9, 54, 37
10, 85802, Note_off_c, 9, 56, 52
10, 85822, Note_off_c, 9, 40, 91
10, 85822, Note_on_c, 9, 54, 52
10, 85824, Note_on_c, 9, 46, 91
10, 85824, Note_on_c, 9, 36, 83
10, 85840, Note_off_c, 9, 36, 83
10, 85866, Note_off_c, 9, 54, 52
10, 85872, Note_off_c, 9, 46, 91
10, 85920, Note_on_c, 9, 54, 31
10, 85978, Note_off_c, 9, 54, 31
10, 86014, Note_on_c, 9, 56, 52
10, 86016, Note_on_c, 9, 54, 61
10, 86016, Note_on_c, 9, 42, 119
10, 86016, Note_on_c, 9, 36, 101
10, 86022, Note_on_c, 9, 75, 52
10, 86032, Note_off_c, 9, 36, 101
10, 86076, Note_off_c, 9, 54, 61
10, 86118, Note_on_c, 9, 54, 23
10, 86128, Note_off_c, 9, 75, 52
10, 86128, Note_off_c, 9, 42, 119
10, 86144, Note_off_c, 9, 56, 52
10, 86174, Note_off_c, 9, 54, 23
10, 86206, Note_on_c, 9, 42, 54
10, 86212, Note_on_c, 9, 54, 17
10, 86254, Note_off_c, 9, 54, 17
10, 86256, Note_off_c, 9, 42, 54
10, 86304, Note_on_c, 9, 54, 49
10, 86362, Note_off_c, 9, 54, 49
10, 86398, Note_on_c, 9, 56, 52
10, 86400, Note_on_c, 9, 54, 78
10, 86400, Note_on_c, 9, 42, 111
10, 86400, Note_on_c, 9, 40, 91
10, 86400, Note_on_c, 9, 36, 101
10, 86406, Note_on_c, 9, 75, 52
10, 86416, Note_off_c, 9, 36, 101
10, 86458, Note_off_c, 9, 54, 78
10, 86492, Note_off_c, 9, 75, 52
10, 86492, Note_on_c, 9, 54, 43
10, 86506, Note_off_c, 9, 42, 111
10, 86518, Note_off_c, 9, 56, 52
10, 86548, Note_off_c, 9, 54, 43
10, 86590, Note_off_c, 9, 40, 91
10, 86590, Note_on_c, 9, 54, 26
10, 86590, Note_on_c, 9, 42, 58
10, 86632, Note_off_c, 9, 42, 58
10, 86636, Note_off_c, 9, 54, 26
10, 86686, Note_on_c, 9, 54, 46
10, 86688, Note_on_c, 9, 40, 91
10, 86748, Note_off_c, 9, 54, 46
10, 86782, Note_on_c, 9, 56, 52
10, 86782, Note_on_c, 9, 75, 52
10, 86782, Note_on_c, 9, 54, 31
10, 86784, Note_on_c, 9, 42, 110
10, 86784, Note_on_c, 9, 36, 101
10, 86800, Note_off_c, 9, 36, 101
10, 86836, Note_off_c, 9, 54, 31
10, 86860, Note_off_c, 9, 75, 52
10, 86872, Note_off_c, 9, 42, 110
10, 86876, Note_on_c, 9, 54, 49
10, 86878, Note_off_c, 9, 40, 91
10, 86916, Note_off_c, 9, 56, 52
10, 86938, Note_off_c, 9, 54, 49
10, 86968, Note_on_c, 9, 42, 70
10, 86972, Note_on_c, 9, 54, 34
10, 87006, Note_off_c, 9, 42, 70
10, 87016, Note_off_c, 9, 54, 34
10, 87070, Note_on_c, 9, 54, 43
10, 87128, Note_off_c, 9, 54, 43
10, 87164, Note_on_c, 9, 54, 58
10, 87166, Note_on_c, 9, 56, 52
10, 87166, Note_on_c, 9, 75, 52
10, 87168, Note_on_c, 9, 42, 110
10, 87168, Note_on_c, 9, 40, 91
10, 87168, Note_on_c, 9, 36, 101
10, 87184, Note_off_c, 9, 36, 101
10, 87192, Control_c, 9, 64, 127
10, 87200, Control_c, 9, 64, 0
10, 87218, Note_off_c, 9, 54, 58
10, 87234, Note_off_c, 9, 75, 52
10, 87262, Note_on_c, 9, 54, 37
10, 87272, Note_off_c, 9, 42, 110
10, 87288, Note_off_c, 9, 56, 52
10, 87324, Note_off_c, 9, 54, 37
10, 87358, Note_off_c, 9, 40, 91
10, 87358, Note_on_c, 9, 54, 52
10, 87360, Note_on_c, 9, 42, 91
10, 87360, Note_on_c, 9, 36, 62
10, 87376, Note_off_c, 9, 36, 62
10, 87394, Note_off_c, 9, 42, 91
10, 87402, Note_off_c, 9, 54, 52
10, 87456, Note_on_c, 9, 54, 31
10, 87456, Note_on_c, 9, 42, 103
10, 87456, Note_on_c, 9, 36, 83
10, 87472, Note_off_c, 9, 36, 83
10, 87490, Note_off_c, 9, 42, 103
10, 87514, Note_off_c, 9, 54, 31
10, 87552, Note_on_c, 9, 56, 52
10, 87552, Note_on_c, 9, 54, 61
10, 87552, Note_on_c, 9, 49, 72
10, 87552, Note_on_c, 9, 36, 101
10, 87558, Note_on_c, 9, 75, 52
10, 87568, Note_off_c, 9, 36, 101
10, 87608, Note_off_c, 9, 49, 72
10, 87612, Note_off_c, 9, 54, 61
10, 87644, Note_off_c, 9, 56, 52
10, 87654, Note_on_c, 9, 54, 23
10, 87664, Note_off_c, 9, 75, 52
10, 87710, Note_off_c, 9, 54, 23
10, 87748, Note_on_c, 9, 54, 17
10, 87790, Note_off_c, 9, 54, 17
10, 87840, Note_on_c, 9, 54, 49
10, 87898, Note_off_c, 9, 54, 49
10, 87936, Note_on_c, 9, 54, 78
10, 87936, Note_on_c, 9, 42, 110
10, 87936, Note_on_c, 9, 40, 91
10, 87936, Note_on_c, 9, 36, 101
10, 87938, Note_on_c, 9, 56, 52
10, 87942, Note_on_c, 9, 75, 52
10, 87952, Note_off_c, 9, 36, 101
10, 87994, Note_off_c, 9, 54, 78
10, 88014, Note_off_c, 9, 42, 110
10, 88028, Note_off_c, 9, 75, 52
10, 88028, Note_on_c, 9, 54, 45
10, 88058, Note_off_c, 9, 56, 52
10, 88084, Note_off_c, 9, 54, 45
10, 88120, Note_on_c, 9, 42, 46
10, 88126, Note_off_c, 9, 40, 91
10, 88126, Note_on_c, 9, 54, 26
10, 88162, Note_off_c, 9, 42, 46
10, 88172, Note_off_c, 9, 54, 26
10, 88222, Note_on_c, 9, 54, 52
10, 88224, Note_on_c, 9, 40, 91
10, 88284, Note_off_c, 9, 54, 52
10, 88316, Note_on_c, 9, 56, 52
10, 88318, Note_on_c, 9, 75, 52
10, 88318, Note_on_c, 9, 54, 31
10, 88320, Note_on_c, 9, 42, 108
10, 88320, Note_on_c, 9, 36, 101
10, 88336, Note_off_c, 9, 36, 101
10, 88372, Note_off_c, 9, 54, 31
10, 88396, Note_off_c, 9, 75, 52
10, 88398, Note_off_c, 9, 42, 108
10, 88412, Note_on_c, 9, 54, 49
10, 88414, Note_off_c, 9, 40, 91
10, 88444, Note_off_c, 9, 56, 52
10, 88474, Note_off_c, 9, 54, 49
10, 88504, Note_on_c, 9, 42, 42
10, 88508, Note_on_c, 9, 54, 34
10, 88552, Note_off_c, 9, 54, 34
10, 88554, Note_off_c, 9, 42, 42
10, 88606, Note_on_c, 9, 54, 43
10, 88664, Note_off_c, 9, 54, 43
10, 88700, Note_on_c, 9, 54, 58
10, 88702, Note_on_c, 9, 56, 52
10, 88702, Note_on_c, 9, 75, 52
10, 88704, Note_on_c, 9, 42, 111
10, 88704, Note_on_c, 9, 40, 91
10, 88704, Note_on_c, 9, 36, 101
10, 88720, Note_off_c, 9, 36, 101
10, 88754, Note_off_c, 9, 54, 58
10, 88770, Note_off_c, 9, 75, 52
10, 88798, Note_on_c, 9, 54, 37
10, 88820, Note_off_c, 9, 42, 111
10, 88860, Note_off_c, 9, 54, 37
10, 88874, Note_off_c, 9, 56, 52
10, 88894, Note_off_c, 9, 40, 91
10, 88894, Note_on_c, 9, 54, 52
10, 88896, Note_on_c, 9, 46, 94
10, 88938, Note_off_c, 9, 54, 52
10, 88944, Note_off_c, 9, 46, 94
10, 88992, Note_on_c, 9, 54, 31
10, 89050, Note_off_c, 9, 54, 31
10, 89086, Note_on_c, 9, 56, 52
10, 89088, Note_on_c, 9, 54, 61
10, 89088, Note_on_c, 9, 42, 119
10, 89088, Note_on_c, 9, 36, 101
10, 89094, Note_on_c, 9, 75, 52
10, 89104, Note_off_c, 9, 36, 101
10, 89148, Note_off_c, 9, 54, 61
10, 89190, Note_on_c, 9, 54, 23
10, 89200, Note_off_c, 9, 75, 52
10, 89200, Note_off_c, 9, 42, 119
10, 89216, Note_off_c, 9, 56, 52
10, 89246, Note_off_c, 9, 54, 23
10, 89278, Note_on_c, 9, 42, 54
10, 89284, Note_on_c, 9, 54, 17
10, 89326, Note_off_c, 9, 54, 17
10, 89328, Note_off_c, 9, 42, 54
10, 89376, Note_on_c, 9, 54, 49
10, 89434, Note_off_c, 9, 54, 49
10, 89470, Note_on_c, 9, 56, 52
10, 89472, Note_on_c, 9, 54, 78
10, 89472, Note_on_c, 9, 42, 111
10, 89472, Note_on_c, 9, 40, 91
10, 89472, Note_on_c, 9, 36, 101
10, 89478, Note_on_c, 9, 75, 52
10, 89488, Note_off_c, 9, 36, 101
10, 89530, Note_off_c, 9, 54, 78
10, 89564, Note_off_c, 9, 75, 52
10, 89564, Note_on_c, 9, 54, 43
10, 89578, Note_off_c, 9, 42, 111
10, 89590, Note_off_c, 9, 56, 52
10, 89620, Note_off_c, 9, 54, 43
10, 89662, Note_off_c, 9, 40, 91
10, 89662, Note_on_c, 9, 54, 26
10, 89662, Note_on_c, 9, 42, 58
10, 89704, Note_off_c, 9, 42, 58
10, 89708, Note_off_c, 9, 54, 26
10, 89758, Note_on_c, 9, 54, 46
10, 89760, Note_on_c, 9, 40, 91
10, 89820, Note_off_c, 9, 54, 46
10, 89854, Note_on_c, 9, 56, 52
10, 89854, Note_on_c, 9, 75, 52
10, 89854, Note_on_c, 9, 54, 31
10, 89856, Note_on_c, 9, 42, 110
10, 89856, Note_on_c, 9, 36, 101
10, 89872, Note_off_c, 9, 36, 101
10, 89908, Note_off_c, 9, 54, 31
10, 89932, Note_off_c, 9, 75, 52
10, 89944, Note_off_c, 9, 42, 110
10, 89948, Note_on_c, 9, 54, 49
10, 89950, Note_off_c, 9, 40, 91
10, 89988, Note_off_c, 9, 56, 52
10, 90010, Note_off_c, 9, 54, 49
10, 90040, Note_on_c, 9, 42, 70
10, 90044, Note_on_c, 9, 54, 34
10, 90078, Note_off_c, 9, 42, 70
10, 90088, Note_off_c, 9, 54, 34
10, 90142, Note_on_c, 9, 54, 43
10, 90200, Note_off_c, 9, 54, 43
10, 90236, Note_on_c, 9, 54, 58
10, 90238, Note_on_c, 9, 56, 52
10, 90238, Note_on_c, 9, 75, 52
10, 90240, Note_on_c, 9, 42, 110
10, 90240, Note_on_c, 9, 40, 91
10, 90240, Note_on_c, 9, 36, 101
10, 90256, Note_off_c, 9, 36, 101
10, 90264, Control_c, 9, 64, 127
10, 90272, Control_c, 9, 64, 0
10, 90290, Note_off_c, 9, 54, 58
10, 90306, Note_off_c, 9, 75, 52
10, 90314, Note_off_c, 9, 42, 110
10, 90334, Note_on_c, 9, 54, 37
10, 90336, Note_on_c, 9, 42, 97
10, 90360, Note_off_c, 9, 56, 52
10, 90370, Note_off_c, 9, 42, 97
10, 90396, Note_off_c, 9, 54, 37
10, 90430, Note_off_c, 9, 40, 91
10, 90430, Note_on_c, 9, 54, 52
10, 90432, Note_on_c, 9, 42, 85
10, 90466, Note_off_c, 9, 42, 85
10, 90474, Note_off_c, 9, 54, 52
10, 90528, Note_on_c, 9, 54, 31
10, 90528, Note_on_c, 9, 42, 97
10, 90578, Note_off_c, 9, 42, 97
10, 90586, Note_off_c, 9, 54, 31
10, 90624, Note_on_c, 9, 56, 52
10, 90624, Note_on_c, 9, 54, 61
10, 90624, Note_on_c, 9, 42, 119
10, 90624, Note_on_c, 9, 36, 101
10, 90630, Note_on_c, 9, 75, 52
10, 90640, Note_off_c, 9, 36, 101
10, 90684, Note_off_c, 9, 54, 61
10, 90716, Note_off_c, 9, 56, 52
10, 90726, Note_on_c, 9, 54, 23
10, 90736, Note_off_c, 9, 75, 52
10, 90736, Note_off_c, 9, 42, 119
10, 90782, Note_off_c, 9, 54, 23
10, 90814, Note_on_c, 9, 42, 54
10, 90820, Note_on_c, 9, 54, 17
10, 90862, Note_off_c, 9, 54, 17
10, 90864, Note_off_c, 9, 42, 54
10, 90912, Note_on_c, 9, 54, 49
10, 90970, Note_off_c, 9, 54, 49
10, 91008, Note_on_c, 9, 54, 78
10, 91008, Note_on_c, 9, 42, 110
10, 91008, Note_on_c, 9, 40, 91
10, 91008, Note_on_c, 9, 36, 101
10, 91010, Note_on_c, 9, 56, 52
10, 91014, Note_on_c, 9, 75, 52
10, 91024, Note_off_c, 9, 36, 101
10, 91066, Note_off_c, 9, 54, 78
10, 91086, Note_off_c, 9, 42, 110
10, 91100, Note_off_c, 9, 75, 52
10, 91100, Note_on_c, 9, 54, 45
10, 91130, Note_off_c, 9, 56, 52
10, 91156, Note_off_c, 9, 54, 45
10, 91192, Note_on_c, 9, 42, 46
10, 91198, Note_off_c, 9, 40, 91
10, 91198, Note_on_c, 9, 54, 26
10, 91234, Note_off_c, 9, 42, 46
10, 91244, Note_off_c, 9, 54, 26
10, 91294, Note_on_c, 9, 54, 52
10, 91296, Note_on_c, 9, 40, 91
10, 91356, Note_off_c, 9, 54, 52
10, 91388, Note_on_c, 9, 56, 52
10, 91390, Note_on_c, 9, 75, 52
10, 91390, Note_on_c, 9, 54, 31
10, 91392, Note_on_c, 9, 42, 108
10, 91392, Note_on_c, 9, 36, 101
10, 91408, Note_off_c, 9, 36, 101
10, 91444, Note_off_c, 9, 54, 31
10, 91468, Note_off_c, 9, 75, 52
10, 91470, Note_off_c, 9, 42, 108
10, 91484, Note_on_c, 9, 54, 49
10, 91486, Note_off_c, 9, 40, 91
10, 91516, Note_off_c, 9, 56, 52
10, 91546, Note_off_c, 9, 54, 49
10, 91576, Note_on_c, 9, 42, 42
10, 91580, Note_on_c, 9, 54, 34
10, 91624, Note_off_c, 9, 54, 34
10, 91626, Note_off_c, 9, 42, 42
10, 91678, Note_on_c, 9, 54, 43
10, 91736, Note_off_c, 9, 54, 43
10, 91772, Note_on_c, 9, 54, 58
10, 91774, Note_on_c, 9, 56, 52
10, 91774, Note_on_c, 9, 75, 52
10, 91776, Note_on_c, 9, 42, 108
10, 91776, Note_on_c, 9, 40, 91
10, 91776, Note_on_c, 9, 36, 101
10, 91792, Note_off_c, 9, 36, 101
10, 91826, Note_off_c, 9, 54, 58
10, 91842, Note_off_c, 9, 75, 52
10, 91854, Note_off_c, 9, 42, 108
10, 91870, Note_on_c, 9, 54, 37
10, 91872, Note_on_c, 9, 36, 65
10, 91888, Note_off_c, 9, 36, 65
10, 91932, Note_off_c, 9, 54, 37
10, 91946, Note_off_c, 9, 56, 52
10, 91966, Note_off_c, 9, 40, 91
10, 91966, Note_on_c, 9, 54, 52
10, 91968, Note_on_c, 9, 42, 91
10, 91968, Note_on_c, 9, 36, 83
10, 91984, Note_off_c, 9, 36, 83
10, 92010, Note_off_c, 9, 54, 52
10, 92018, Note_off_c, 9, 42, 91
10, 92064, Note_on_c, 9, 54, 31
10, 92122, Note_off_c, 9, 54, 31
10, 92158, Note_on_c, 9, 56, 52
10, 92160, Note_on_c, 9, 54, 61
10, 92160, Note_on_c, 9, 42, 119
10, 92160, Note_on_c, 9, 36, 101
10, 92166, Note_on_c, 9, 75, 52
10, 92176, Note_off_c, 9, 36, 101
10, 92220, Note_off_c, 9, 54, 61
10, 92262, Note_on_c, 9, 54, 23
10, 92272, Note_off_c, 9, 75, 52
10, 92272, Note_off_c, 9, 42, 119
10, 92288, Note_off_c, 9, 56, 52
10, 92318, Note_off_c, 9, 54, 23
10, 92350, Note_on_c, 9, 42, 54
10, 92352, Note_on_c, 9, 36, 101
10, 92356, Note_on_c, 9, 54, 17
10, 92368, Note_off_c, 9, 36, 101
10, 92398, Note_off_c, 9, 54, 17
10, 92400, Note_off_c, 9, 42, 54
10, 92448, Note_on_c, 9, 54, 49
10, 92448, Note_on_c, 9, 40, 46
10, 92506, Note_off_c, 9, 54, 49
10, 92508, Note_off_c, 9, 40, 46
10, 92542, Note_on_c, 9, 56, 52
10, 92544, Note_on_c, 9, 54, 78
10, 92544, Note_on_c, 9, 42, 111
10, 92544, Note_on_c, 9, 40, 91
10, 92544, Note_on_c, 9, 36, 101
10, 92550, Note_on_c, 9, 75, 52
10, 92560, Note_off_c, 9, 36, 101
10, 92602, Note_off_c, 9, 54, 78
10, 92636, Note_off_c, 9, 75, 52
10, 92636, Note_on_c, 9, 54, 43
10, 92650, Note_off_c, 9, 42, 111
10, 92662, Note_off_c, 9, 56, 52
10, 92692, Note_off_c, 9, 54, 43
10, 92734, Note_off_c, 9, 40, 91
10, 92734, Note_on_c, 9, 54, 26
10, 92736, Note_on_c, 9, 40, 64
10, 92736, Note_on_c, 9, 36, 101
10, 92752, Note_off_c, 9, 36, 101
10, 92780, Note_off_c, 9, 54, 26
10, 92796, Note_off_c, 9, 40, 64
10, 92830, Note_on_c, 9, 54, 46
10, 92840, Note_on_c, 9, 40, 87
10, 92892, Note_off_c, 9, 54, 46
10, 92900, Note_off_c, 9, 40, 87
10, 92926, Note_on_c, 9, 56, 52
10, 92926, Note_on_c, 9, 75, 52
10, 92926, Note_on_c, 9, 54, 31
10, 92928, Note_on_c, 9, 42, 110
10, 92928, Note_on_c, 9, 40, 104
10, 92928, Note_on_c, 9, 36, 101
10, 92944, Note_off_c, 9, 36, 101
10, 92980, Note_off_c, 9, 54, 31
10, 92988, Note_off_c, 9, 40, 104
10, 93004, Note_off_c, 9, 75, 52
10, 93016, Note_off_c, 9, 42, 110
10, 93020, Note_on_c, 9, 54, 49
10, 93060, Note_off_c, 9, 56, 52
10, 93082, Note_off_c, 9, 54, 49
10, 93112, Note_on_c, 9, 42, 70
10, 93116, Note_on_c, 9, 54, 34
10, 93120, Note_on_c, 9, 40, 95
10, 93120, Note_on_c, 9, 36, 101
10, 93136, Note_off_c, 9, 36, 101
10, 93150, Note_off_c, 9, 42, 70
10, 93160, Note_off_c, 9, 54, 34
10, 93214, Note_on_c, 9, 54, 43
10, 93272, Note_off_c, 9, 54, 43
10, 93308, Note_on_c, 9, 54, 58
10, 93310, Note_off_c, 9, 40, 95
10, 93310, Note_on_c, 9, 56, 52
10, 93310, Note_on_c, 9, 75, 52
10, 93310, Note_on_c, 9, 48, 90
10, 93312, Note_on_c, 9, 42, 111
10, 93312, Note_on_c, 9, 36, 101
10, 93328, Note_off_c, 9, 36, 101
10, 93336, Control_c, 9, 64, 127
10, 93344, Control_c, 9, 64, 0
10, 93362, Note_off_c, 9, 54, 58
10, 93378, Note_off_c, 9, 75, 52
10, 93380, Note_off_c, 9, 42, 111
10, 93400, Note_off_c, 9, 48, 90
10, 93406, Note_on_c, 9, 54, 37
10, 93408, Note_on_c, 9, 48, 58
10, 93408, Note_on_c, 9, 42, 94
10, 93432, Note_off_c, 9, 56, 52
10, 93456, Note_off_c, 9, 42, 94
10, 93468, Note_off_c, 9, 54, 37
10, 93498, Note_off_c, 9, 48, 58
10, 93498, Note_on_c, 9, 45, 75
10, 93502, Note_on_c, 9, 54, 52
10, 93504, Note_on_c, 9, 42, 76
10, 93546, Note_off_c, 9, 54, 52
10, 93552, Note_off_c, 9, 42, 76
10, 93576, Note_off_c, 9, 45, 75
10, 93596, Note_on_c, 9, 45, 49
10, 93600, Note_on_c, 9, 54, 31
10, 93600, Note_on_c, 9, 42, 97
10, 93600, Note_on_c, 9, 36, 83
10, 93616, Note_off_c, 9, 36, 83
10, 93648, Note_off_c, 9, 42, 97
10, 93658, Note_off_c, 9, 54, 31
10, 93674, Note_off_c, 9, 45, 49
10, 93696, Note_on_c, 9, 56, 52
10, 93696, Note_on_c, 9, 54, 61
10, 93696, Note_on_c, 9, 49, 72
10, 93696, Note_on_c, 9, 36, 101
10, 93702, Note_on_c, 9, 75, 52
10, 93712, Note_off_c, 9, 36, 101
10, 93752, Note_off_c, 9, 49, 72
10, 93756, Note_off_c, 9, 54, 61
10, 93788, Note_off_c, 9, 56, 52
10, 93798, Note_on_c, 9, 54, 23
10, 93808, Note_off_c, 9, 75, 52
10, 93854, Note_off_c, 9, 54, 23
10, 93888, Note_on_c, 9, 42, 65
10, 93892, Note_on_c, 9, 54, 17
10, 93930, Note_off_c, 9, 42, 65
10, 93934, Note_off_c, 9, 54, 17
10, 93984, Note_on_c, 9, 54, 49
10, 94042, Note_off_c, 9, 54, 49
10, 94080, Note_on_c, 9, 54, 78
10, 94080, Note_on_c, 9, 42, 110
10, 94080, Note_on_c, 9, 40, 91
10, 94080, Note_on_c, 9, 36, 101
10, 94082, Note_on_c, 9, 56, 52
10, 94086, Note_on_c, 9, 75, 52
10, 94096, Note_off_c, 9, 36, 101
10, 94138, Note_off_c, 9, 54, 78
10, 94158, Note_off_c, 9, 42, 110
10, 94172, Note_off_c, 9, 75, 52
10, 94172, Note_on_c, 9, 54, 45
10, 94202, Note_off_c, 9, 56, 52
10, 94228, Note_off_c, 9, 54, 45
10, 94264, Note_on_c, 9, 42, 46
10, 94270, Note_off_c, 9, 40, 91
10, 94270, Note_on_c, 9, 54, 26
10, 94306, Note_off_c, 9, 42, 46
10, 94316, Note_off_c, 9, 54, 26
10, 94366, Note_on_c, 9, 54, 52
10, 94368, Note_on_c, 9, 40, 91
10, 94428, Note_off_c, 9, 54, 52
10, 94460, Note_on_c, 9, 56, 52
10, 94462, Note_on_c, 9, 75, 52
10, 94462, Note_on_c, 9, 54, 31
10, 94464, Note_on_c, 9, 42, 108
10, 94464, Note_on_c, 9, 36, 101
10, 94480, Note_off_c, 9, 36, 101
10, 94516, Note_off_c, 9, 54, 31
10, 94540, Note_off_c, 9, 75, 52
10, 94542, Note_off_c, 9, 42, 108
10, 94556, Note_on_c, 9, 54, 49
10, 94558, Note_off_c, 9, 40, 91
10, 94588, Note_off_c, 9, 56, 52
10, 94618, Note_off_c, 9, 54, 49
10, 94648, Note_on_c, 9, 42, 42
10, 94652, Note_on_c, 9, 54, 34
10, 94696, Note_off_c, 9, 54, 34
10, 94698, Note_off_c, 9, 42, 42
10, 94750, Note_on_c, 9, 54, 43
10, 94808, Note_off_c, 9, 54, 43
10, 94844, Note_on_c, 9, 54, 58
10, 94846, Note_on_c, 9, 56, 52
10, 94846, Note_on_c, 9, 75, 52
10, 94848, Note_on_c, 9, 42, 111
10, 94848, Note_on_c, 9, 40, 91
10, 94848, Note_on_c, 9, 36, 101
10, 94864, Note_off_c, 9, 36, 101
10, 94898, Note_off_c, 9, 54, 58
10, 94914, Note_off_c, 9, 75, 52
10, 94942, Note_on_c, 9, 54, 37
10, 94964, Note_off_c, 9, 42, 111
10, 95004, Note_off_c, 9, 54, 37
10, 95018, Note_off_c, 9, 56, 52
10, 95038, Note_off_c, 9, 40, 91
10, 95038, Note_on_c, 9, 54, 52
10, 95040, Note_on_c, 9, 46, 94
10, 95082, Note_off_c, 9, 54, 52
10, 95088, Note_off_c, 9, 46, 94
10, 95136, Note_on_c, 9, 54, 31
10, 95194, Note_off_c, 9, 54, 31
10, 95230, Note_on_c, 9, 56, 52
10, 95232, Note_on_c, 9, 54, 61
10, 95232, Note_on_c, 9, 42, 119
10, 95232, Note_on_c, 9, 36, 101
10, 95238, Note_on_c, 9, 75, 52
10, 95248, Note_off_c, 9, 36, 101
10, 95292, Note_off_c, 9, 54, 61
10, 95334, Note_on_c, 9, 54, 23
10, 95344, Note_off_c, 9, 75, 52
10, 95344, Note_off_c, 9, 42, 119
10, 95360, Note_off_c, 9, 56, 52
10, 95390, Note_off_c, 9, 54, 23
10, 95422, Note_on_c, 9, 42, 54
10, 95428, Note_on_c, 9, 54, 17
10, 95470, Note_off_c, 9, 54, 17
10, 95472, Note_off_c, 9, 42, 54
10, 95520, Note_on_c, 9, 54, 49
10, 95578, Note_off_c, 9, 54, 49
10, 95614, Note_on_c, 9, 56, 52
10, 95616, Note_on_c, 9, 54, 78
10, 95616, Note_on_c, 9, 42, 111
10, 95616, Note_on_c, 9, 40, 91
10, 95616, Note_on_c, 9, 36, 101
10, 95622, Note_on_c, 9, 75, 52
10, 95632, Note_off_c, 9, 36, 101
10, 95674, Note_off_c, 9, 54, 78
10, 95708, Note_off_c, 9, 75, 52
10, 95708, Note_on_c, 9, 54, 43
10, 95722, Note_off_c, 9, 42, 111
10, 95734, Note_off_c, 9, 56, 52
10, 95764, Note_off_c, 9, 54, 43
10, 95806, Note_off_c, 9, 40, 91
10, 95806, Note_on_c, 9, 54, 26
10, 95806, Note_on_c, 9, 42, 58
10, 95848, Note_off_c, 9, 42, 58
10, 95852, Note_off_c, 9, 54, 26
10, 95902, Note_on_c, 9, 54, 46
10, 95904, Note_on_c, 9, 40, 91
10, 95964, Note_off_c, 9, 54, 46
10, 95998, Note_on_c, 9, 56, 52
10, 95998, Note_on_c, 9, 75, 52
10, 95998, Note_on_c, 9, 54, 31
10, 96000, Note_on_c, 9, 42, 110
10, 96000, Note_on_c, 9, 36, 101
10, 96016, Note_off_c, 9, 36, 101
10, 96052, Note_off_c, 9, 54, 31
10, 96076, Note_off_c, 9, 75, 52
10, 96088, Note_off_c, 9, 42, 110
10, 96092, Note_on_c, 9, 54, 49
10, 96094, Note_off_c, 9, 40, 91
10, 96132, Note_off_c, 9, 56, 52
10, 96154, Note_off_c, 9, 54, 49
10, 96184, Note_on_c, 9, 42, 70
10, 96188, Note_on_c, 9, 54, 34
10, 96222, Note_off_c, 9, 42, 70
10, 96232, Note_off_c, 9, 54, 34
10, 96286, Note_on_c, 9, 54, 43
10, 96344, Note_off_c, 9, 54, 43
10, 96380, Note_on_c, 9, 54, 58
10, 96382, Note_on_c, 9, 56, 52
10, 96382, Note_on_c, 9, 75, 52
10, 96384, Note_on_c, 9, 42, 110
10, 96384, Note_on_c, 9, 40, 91
10, 96384, Note_on_c, 9, 36, 101
10, 96400, Note_off_c, 9, 36, 101
10, 96408, Control_c, 9, 64, 127
10, 96416, Control_c, 9, 64, 0
10, 96434, Note_off_c, 9, 54, 58
10, 96450, Note_off_c, 9, 75, 52
10, 96456, Note_off_c, 9, 42, 110
10, 96478, Note_on_c, 9, 54, 37
10, 96504, Note_off_c, 9, 56, 52
10, 96540, Note_off_c, 9, 54, 37
10, 96574, Note_off_c, 9, 40, 91
10, 96574, Note_on_c, 9, 54, 52
10, 96576, Note_on_c, 9, 42, 71
10, 96610, Note_off_c, 9, 42, 71
10, 96618, Note_off_c, 9, 54, 52
10, 96672, Note_on_c, 9, 54, 31
10, 96672, Note_on_c, 9, 42, 97
10, 96706, Note_off_c, 9, 42, 97
10, 96730, Note_off_c, 9, 54, 31
10, 96768, Note_on_c, 9, 56, 52
10, 96768, Note_on_c, 9, 54, 61
10, 96768, Note_on_c, 9, 42, 119
10, 96768, Note_on_c, 9, 36, 101
10, 96774, Note_on_c, 9, 75, 52
10, 96784, Note_off_c, 9, 36, 101
10, 96828, Note_off_c, 9, 54, 61
10, 96860, Note_off_c, 9, 56, 52
10, 96870, Note_on_c, 9, 54, 23
10, 96880, Note_off_c, 9, 75, 52
10, 96880, Note_off_c, 9, 42, 119
10, 96926, Note_off_c, 9, 54, 23
10, 96958, Note_on_c, 9, 42, 54
10, 96964, Note_on_c, 9, 54, 17
10, 97006, Note_off_c, 9, 54, 17
10, 97008, Note_off_c, 9, 42, 54
10, 97056, Note_on_c, 9, 54, 49
10, 97114, Note_off_c, 9, 54, 49
10, 97152, Note_on_c, 9, 54, 78
10, 97152, Note_on_c, 9, 42, 110
10, 97152, Note_on_c, 9, 40, 91
10, 97152, Note_on_c, 9, 36, 101
10, 97154, Note_on_c, 9, 56, 52
10, 97158, Note_on_c, 9, 75, 52
10, 97168, Note_off_c, 9, 36, 101
10, 97210, Note_off_c, 9, 54, 78
10, 97230, Note_off_c, 9, 42, 110
10, 97244, Note_off_c, 9, 75, 52
10, 97244, Note_on_c, 9, 54, 45
10, 97274, Note_off_c, 9, 56, 52
10, 97300, Note_off_c, 9, 54, 45
10, 97336, Note_on_c, 9, 42, 46
10, 97342, Note_off_c, 9, 40, 91
10, 97342, Note_on_c, 9, 54, 26
10, 97378, Note_off_c, 9, 42, 46
10, 97388, Note_off_c, 9, 54, 26
10, 97438, Note_on_c, 9, 54, 52
10, 97440, Note_on_c, 9, 40, 91
10, 97500, Note_off_c, 9, 54, 52
10, 97532, Note_on_c, 9, 56, 52
10, 97534, Note_on_c, 9, 75, 52
10, 97534, Note_on_c, 9, 54, 31
10, 97536, Note_on_c, 9, 42, 108
10, 97536, Note_on_c, 9, 36, 101
10, 97552, Note_off_c, 9, 36, 101
10, 97588, Note_off_c, 9, 54, 31
10, 97612, Note_off_c, 9, 75, 52
10, 97614, Note_off_c, 9, 42, 108
10, 97628, Note_on_c, 9, 54, 49
10, 97630, Note_off_c, 9, 40, 91
10, 97660, Note_off_c, 9, 56, 52
10, 97690, Note_off_c, 9, 54, 49
10, 97724, Note_on_c, 9, 54, 34
10, 97728, Note_on_c, 9, 42, 94
10, 97760, Note_off_c, 9, 42, 94
10, 97768, Note_off_c, 9, 54, 34
10, 97776, Note_on_c, 9, 42, 47
10, 97814, Note_off_c, 9, 42, 47
10, 97822, Note_on_c, 9, 54, 43
10, 97824, Note_on_c, 9, 42, 68
10, 97872, Note_off_c, 9, 42, 68
10, 97872, Note_on_c, 9, 42, 76
10, 97880, Note_off_c, 9, 54, 43
10, 97910, Note_off_c, 9, 42, 76
10, 97916, Note_on_c, 9, 54, 58
10, 97918, Note_on_c, 9, 56, 52
10, 97918, Note_on_c, 9, 75, 52
10, 97920, Note_on_c, 9, 42, 111
10, 97920, Note_on_c, 9, 40, 91
10, 97920, Note_on_c, 9, 36, 101
10, 97936, Note_off_c, 9, 36, 101
10, 97970, Note_off_c, 9, 54, 58
10, 97986, Note_off_c, 9, 75, 52
10, 97988, Note_off_c, 9, 42, 111
10, 98014, Note_on_c, 9, 54, 37
10, 98016, Note_on_c, 9, 36, 65
10, 98032, Note_off_c, 9, 36, 65
10, 98076, Note_off_c, 9, 54, 37
10, 98090, Note_off_c, 9, 56, 52
10, 98110, Note_off_c, 9, 40, 91
10, 98110, Note_on_c, 9, 54, 52
10, 98110, Note_on_c, 9, 42, 68
10, 98112, Note_on_c, 9, 36, 83
10, 98128, Note_off_c, 9, 36, 83
10, 98154, Note_off_c, 9, 54, 52
10, 98160, Note_off_c, 9, 42, 68
10, 98208, Note_on_c, 9, 54, 31
10, 98266, Note_off_c, 9, 54, 31
10, 98302, Note_on_c, 9, 56, 52
10, 98304, Note_on_c, 9, 54, 61
10, 98304, Note_on_c, 9, 42, 119
10, 98304, Note_on_c, 9, 36, 101
10, 98310, Note_on_c, 9, 75, 52
10, 98320, Note_off_c, 9, 36, 101
10, 98364, Note_off_c, 9, 54, 61
10, 98406, Note_on_c, 9, 54, 23
10, 98416, Note_off_c, 9, 75, 52
10, 98416, Note_off_c, 9, 42, 119
10, 98432, Note_off_c, 9, 56, 52
10, 98462, Note_off_c, 9, 54, 23
10, 98494, Note_on_c, 9, 42, 54
10, 98500, Note_on_c, 9, 54, 17
10, 98542, Note_off_c, 9, 54, 17
10, 98544, Note_off_c, 9, 42, 54
10, 98592, Note_on_c, 9, 54, 49
10, 98650, Note_off_c, 9, 54, 49
10, 98686, Note_on_c, 9, 56, 52
10, 98688, Note_on_c, 9, 54, 78
10, 98688, Note_on_c, 9, 42, 111
10, 98688, Note_on_c, 9, 40, 91
10, 98688, Note_on_c, 9, 36, 101
10, 98694, Note_on_c, 9, 75, 52
10, 98704, Note_off_c, 9, 36, 101
10, 98746, Note_off_c, 9, 54, 78
10, 98780, Note_off_c, 9, 75, 52
10, 98780, Note_on_c, 9, 54, 43
10, 98794, Note_off_c, 9, 42, 111
10, 98806, Note_off_c, 9, 56, 52
10, 98836, Note_off_c, 9, 54, 43
10, 98878, Note_off_c, 9, 40, 91
10, 98878, Note_on_c, 9, 54, 26
10, 98878, Note_on_c, 9, 42, 58
10, 98920, Note_off_c, 9, 42, 58
10, 98924, Note_off_c, 9, 54, 26
10, 98974, Note_on_c, 9, 54, 46
10, 98976, Note_on_c, 9, 40, 91
10, 99036, Note_off_c, 9, 54, 46
10, 99070, Note_on_c, 9, 56, 52
10, 99070, Note_on_c, 9, 75, 52
10, 99070, Note_on_c, 9, 54, 31
10, 99072, Note_on_c, 9, 42, 110
10, 99072, Note_on_c, 9, 36, 101
10, 99088, Note_off_c, 9, 36, 101
10, 99124, Note_off_c, 9, 54, 31
10, 99148, Note_off_c, 9, 75, 52
10, 99160, Note_off_c, 9, 42, 110
10, 99164, Note_on_c, 9, 54, 49
10, 99166, Note_off_c, 9, 40, 91
10, 99204, Note_off_c, 9, 56, 52
10, 99226, Note_off_c, 9, 54, 49
10, 99260, Note_on_c, 9, 54, 34
10, 99264, Note_on_c, 9, 46, 100
10, 99302, Note_off_c, 9, 46, 100
10, 99304, Note_off_c, 9, 54, 34
10, 99358, Note_on_c, 9, 54, 43
10, 99416, Note_off_c, 9, 54, 43
10, 99452, Note_on_c, 9, 54, 58
10, 99454, Note_on_c, 9, 56, 52
10, 99454, Note_on_c, 9, 75, 52
10, 99456, Note_on_c, 9, 42, 110
10, 99456, Note_on_c, 9, 40, 91
10, 99456, Note_on_c, 9, 36, 101
10, 99472, Note_off_c, 9, 36, 101
10, 99480, Control_c, 9, 64, 127
10, 99488, Control_c, 9, 64, 0
10, 99506, Note_off_c, 9, 54, 58
10, 99522, Note_off_c, 9, 42, 110
10, 99522, Note_off_c, 9, 75, 52
10, 99550, Note_on_c, 9, 54, 37
10, 99552, Note_on_c, 9, 42, 91
10, 99576, Note_off_c, 9, 56, 52
10, 99586, Note_off_c, 9, 42, 91
10, 99612, Note_off_c, 9, 54, 37
10, 99646, Note_off_c, 9, 40, 91
10, 99646, Note_on_c, 9, 54, 52
10, 99648, Note_on_c, 9, 42, 79
10, 99682, Note_off_c, 9, 42, 79
10, 99690, Note_off_c, 9, 54, 52
10, 99744, Note_on_c, 9, 54, 31
10, 99744, Note_on_c, 9, 42, 100
10, 99744, Note_on_c, 9, 36, 83
10, 99760, Note_off_c, 9, 36, 83
10, 99778, Note_off_c, 9, 42, 100
10, 99802, Note_off_c, 9, 54, 31
10, 99840, Note_on_c, 9, 56, 52
10, 99840, Note_on_c, 9, 54, 61
10, 99840, Note_on_c, 9, 49, 72
10, 99840, Note_on_c, 9, 36, 101
10, 99846, Note_on_c, 9, 75, 52
10, 99856, Note_off_c, 9, 36, 101
10, 99896, Note_off_c, 9, 49, 72
10, 99900, Note_off_c, 9, 54, 61
10, 99932, Note_off_c, 9, 56, 52
10, 99942, Note_on_c, 9, 54, 23
10, 99952, Note_off_c, 9, 75, 52
10, 99998, Note_off_c, 9, 54, 23
10, 100030, Note_on_c, 9, 42, 71
10, 100036, Note_on_c, 9, 54, 17
10, 100072, Note_off_c, 9, 42, 71
10, 100078, Note_off_c, 9, 54, 17
10, 100128, Note_on_c, 9, 54, 49
10, 100186, Note_off_c, 9, 54, 49
10, 100224, Note_on_c, 9, 54, 78
10, 100224, Note_on_c, 9, 42, 110
10, 100224, Note_on_c, 9, 40, 91
10, 100224, Note_on_c, 9, 36, 101
10, 100226, Note_on_c, 9, 56, 52
10, 100230, Note_on_c, 9, 75, 52
10, 100240, Note_off_c, 9, 36, 101
10, 100282, Note_off_c, 9, 54, 78
10, 100302, Note_off_c, 9, 42, 110
10, 100316, Note_off_c, 9, 75, 52
10, 100316, Note_on_c, 9, 54, 45
10, 100346, Note_off_c, 9, 56, 52
10, 100372, Note_off_c, 9, 54, 45
10, 100410, Note_on_c, 9, 42, 46
10, 100414, Note_off_c, 9, 40, 91
10, 100414, Note_on_c, 9, 54, 26
10, 100452, Note_off_c, 9, 42, 46
10, 100460, Note_off_c, 9, 54, 26
10, 100510, Note_on_c, 9, 54, 52
10, 100512, Note_on_c, 9, 40, 91
10, 100572, Note_off_c, 9, 54, 52
10, 100604, Note_on_c, 9, 56, 52
10, 100606, Note_on_c, 9, 75, 52
10, 100606, Note_on_c, 9, 54, 31
10, 100608, Note_on_c, 9, 42, 108
10, 100608, Note_on_c, 9, 36, 101
10, 100624, Note_off_c, 9, 36, 101
10, 100660, Note_off_c, 9, 54, 31
10, 100684, Note_off_c, 9, 75, 52
10, 100686, Note_off_c, 9, 42, 108
10, 100700, Note_on_c, 9, 54, 49
10, 100702, Note_off_c, 9, 40, 91
10, 100732, Note_off_c, 9, 56, 52
10, 100762, Note_off_c, 9, 54, 49
10, 100792, Note_on_c, 9, 42, 42
10, 100796, Note_on_c, 9, 54, 34
10, 100840, Note_off_c, 9, 54, 34
10, 100842, Note_off_c, 9, 42, 42
10, 100894, Note_on_c, 9, 54, 43
10, 100952, Note_off_c, 9, 54, 43
10, 100988, Note_on_c, 9, 54, 58
10, 100990, Note_on_c, 9, 56, 52
10, 100990, Note_on_c, 9, 75, 52
10, 100992, Note_on_c, 9, 42, 111
10, 100992, Note_on_c, 9, 40, 91
10, 100992, Note_on_c, 9, 36, 101
10, 101008, Note_off_c, 9, 36, 101
10, 101042, Note_off_c, 9, 54, 58
10, 101058, Note_off_c, 9, 75, 52
10, 101086, Note_on_c, 9, 54, 37
10, 101108, Note_off_c, 9, 42, 111
10, 101148, Note_off_c, 9, 54, 37
10, 101162, Note_off_c, 9, 56, 52
10, 101182, Note_off_c, 9, 40, 91
10, 101182, Note_on_c, 9, 54, 52
10, 101184, Note_on_c, 9, 46, 94
10, 101226, Note_off_c, 9, 54, 52
10, 101232, Note_off_c, 9, 46, 94
10, 101280, Note_on_c, 9, 54, 31
10, 101338, Note_off_c, 9, 54, 31
10, 101374, Note_on_c, 9, 56, 52
10, 101376, Note_on_c, 9, 54, 61
10, 101376, Note_on_c, 9, 42, 119
10, 101376, Note_on_c, 9, 36, 101
10, 101382, Note_on_c, 9, 75, 52
10, 101392, Note_off_c, 9, 36, 101
10, 101436, Note_off_c, 9, 54, 61
10, 101478, Note_on_c, 9, 54, 23
10, 101488, Note_off_c, 9, 75, 52
10, 101488, Note_off_c, 9, 42, 119
10, 101504, Note_off_c, 9, 56, 52
10, 101534, Note_off_c, 9, 54, 23
10, 101566, Note_on_c, 9, 42, 54
10, 101572, Note_on_c, 9, 54, 17
10, 101614, Note_off_c, 9, 54, 17
10, 101616, Note_off_c, 9, 42, 54
10, 101664, Note_on_c, 9, 54, 49
10, 101664, Note_on_c, 9, 42, 44
10, 101714, Note_off_c, 9, 42, 44
10, 101722, Note_off_c, 9, 54, 49
10, 101758, Note_on_c, 9, 56, 52
10, 101760, Note_on_c, 9, 54, 78
10, 101760, Note_on_c, 9, 42, 111
10, 101760, Note_on_c, 9, 40, 91
10, 101760, Note_on_c, 9, 36, 101
10, 101766, Note_on_c, 9, 75, 52
10, 101776, Note_off_c, 9, 36, 101
10, 101818, Note_off_c, 9, 54, 78
10, 101852, Note_off_c, 9, 75, 52
10, 101852, Note_on_c, 9, 54, 43
10, 101866, Note_off_c, 9, 42, 111
10, 101878, Note_off_c, 9, 56, 52
10, 101908, Note_off_c, 9, 54, 43
10, 101950, Note_off_c, 9, 40, 91
10, 101950, Note_on_c, 9, 54, 26
10, 101950, Note_on_c, 9, 42, 58
10, 101992, Note_off_c, 9, 42, 58
10, 101996, Note_off_c, 9, 54, 26
10, 102046, Note_on_c, 9, 54, 46
10, 102048, Note_on_c, 9, 40, 91
10, 102108, Note_off_c, 9, 54, 46
10, 102142, Note_on_c, 9, 56, 52
10, 102142, Note_on_c, 9, 75, 52
10, 102142, Note_on_c, 9, 54, 31
10, 102144, Note_on_c, 9, 42, 110
10, 102144, Note_on_c, 9, 36, 101
10, 102160, Note_off_c, 9, 36, 101
10, 102196, Note_off_c, 9, 54, 31
10, 102220, Note_off_c, 9, 75, 52
10, 102232, Note_off_c, 9, 42, 110
10, 102236, Note_on_c, 9, 54, 49
10, 102238, Note_off_c, 9, 40, 91
10, 102276, Note_off_c, 9, 56, 52
10, 102298, Note_off_c, 9, 54, 49
10, 102328, Note_on_c, 9, 42, 70
10, 102332, Note_on_c, 9, 54, 34
10, 102366, Note_off_c, 9, 42, 70
10, 102376, Note_off_c, 9, 54, 34
10, 102430, Note_on_c, 9, 54, 43
10, 102488, Note_off_c, 9, 54, 43
10, 102524, Note_on_c, 9, 54, 58
10, 102526, Note_on_c, 9, 56, 52
10, 102526, Note_on_c, 9, 75, 52
10, 102528, Note_on_c, 9, 42, 110
10, 102528, Note_on_c, 9, 40, 91
10, 102528, Note_on_c, 9, 36, 101
10, 102544, Note_off_c, 9, 36, 101
10, 102552, Control_c, 9, 64, 127
10, 102560, Control_c, 9, 64, 0
10, 102578, Note_off_c, 9, 54, 58
10, 102588, Note_off_c, 9, 42, 110
10, 102594, Note_off_c, 9, 75, 52
10, 102622, Note_on_c, 9, 54, 37
10, 102624, Note_on_c, 9, 42, 88
10, 102648, Note_off_c, 9, 56, 52
10, 102684, Note_off_c, 9, 42, 88
10, 102684, Note_off_c, 9, 54, 37
10, 102718, Note_off_c, 9, 40, 91
10, 102718, Note_on_c, 9, 54, 52
10, 102720, Note_on_c, 9, 42, 82
10, 102754, Note_off_c, 9, 42, 82
10, 102762, Note_off_c, 9, 54, 52
10, 102816, Note_on_c, 9, 54, 31
10, 102816, Note_on_c, 9, 42, 97
10, 102850, Note_off_c, 9, 42, 97
10, 102874, Note_off_c, 9, 54, 31
10, 102912, Note_on_c, 9, 56, 52
10, 102912, Note_on_c, 9, 54, 61
10, 102912, Note_on_c, 9, 42, 119
10, 102912, Note_on_c, 9, 36, 101
10, 102918, Note_on_c, 9, 75, 52
10, 102928, Note_off_c, 9, 36, 101
10, 102972, Note_off_c, 9, 54, 61
10, 103004, Note_off_c, 9, 56, 52
10, 103014, Note_on_c, 9, 54, 23
10, 103024, Note_off_c, 9, 75, 52
10, 103024, Note_off_c, 9, 42, 119
10, 103070, Note_off_c, 9, 54, 23
10, 103102, Note_on_c, 9, 42, 54
10, 103108, Note_on_c, 9, 54, 17
10, 103150, Note_off_c, 9, 54, 17
10, 103152, Note_off_c, 9, 42, 54
10, 103200, Note_on_c, 9, 54, 49
10, 103258, Note_off_c, 9, 54, 49
10, 103296, Note_on_c, 9, 54, 78
10, 103296, Note_on_c, 9, 42, 110
10, 103296, Note_on_c, 9, 40, 91
10, 103296, Note_on_c, 9, 36, 101
10, 103298, Note_on_c, 9, 56, 52
10, 103302, Note_on_c, 9, 75, 52
10, 103312, Note_off_c, 9, 36, 101
10, 103354, Note_off_c, 9, 54, 78
10, 103374, Note_off_c, 9, 42, 110
10, 103388, Note_off_c, 9, 75, 52
10, 103388, Note_on_c, 9, 54, 45
10, 103418, Note_off_c, 9, 56, 52
10, 103444, Note_off_c, 9, 54, 45
10, 103480, Note_on_c, 9, 42, 46
10, 103486, Note_off_c, 9, 40, 91
10, 103486, Note_on_c, 9, 54, 26
10, 103522, Note_off_c, 9, 42, 46
10, 103532, Note_off_c, 9, 54, 26
10, 103582, Note_on_c, 9, 54, 52
10, 103584, Note_on_c, 9, 40, 91
10, 103644, Note_off_c, 9, 54, 52
10, 103676, Note_on_c, 9, 56, 52
10, 103678, Note_on_c, 9, 75, 52
10, 103678, Note_on_c, 9, 54, 31
10, 103680, Note_on_c, 9, 42, 108
10, 103680, Note_on_c, 9, 36, 101
10, 103696, Note_off_c, 9, 36, 101
10, 103732, Note_off_c, 9, 54, 31
10, 103756, Note_off_c, 9, 75, 52
10, 103758, Note_off_c, 9, 42, 108
10, 103772, Note_on_c, 9, 54, 49
10, 103774, Note_off_c, 9, 40, 91
10, 103804, Note_off_c, 9, 56, 52
10, 103834, Note_off_c, 9, 54, 49
10, 103868, Note_on_c, 9, 54, 34
10, 103872, Note_on_c, 9, 42, 42
10, 103912, Note_off_c, 9, 54, 34
10, 103922, Note_off_c, 9, 42, 42
10, 103966, Note_on_c, 9, 54, 43
10, 103968, Note_on_c, 9, 42, 76
10, 104018, Note_off_c, 9, 42, 76
10, 104024, Note_off_c, 9, 54, 43
10, 104060, Note_on_c, 9, 54, 58
10, 104062, Note_on_c, 9, 56, 52
10, 104062, Note_on_c, 9, 75, 52
10, 104064, Note_on_c, 9, 42, 108
10, 104064, Note_on_c, 9, 40, 91
10, 104064, Note_on_c, 9, 36, 101
10, 104080, Note_off_c, 9, 36, 101
10, 104114, Note_off_c, 9, 54, 58
10, 104130, Note_off_c, 9, 75, 52
10, 104142, Note_off_c, 9, 42, 108
10, 104158, Note_on_c, 9, 54, 37
10, 104220, Note_off_c, 9, 54, 37
10, 104234, Note_off_c, 9, 56, 52
10, 104254, Note_off_c, 9, 40, 91
10, 104254, Note_on_c, 9, 54, 52
10, 104256, Note_on_c, 9, 42, 71
10, 104256, Note_on_c, 9, 36, 83
10, 104272, Note_off_c, 9, 36, 83
10, 104298, Note_off_c, 9, 54, 52
10, 104306, Note_off_c, 9, 42, 71
10, 104352, Note_on_c, 9, 54, 31
10, 104352, Note_on_c, 9, 42, 91
10, 104402, Note_off_c, 9, 42, 91
10, 104410, Note_off_c, 9, 54, 31
10, 104446, Note_on_c, 9, 56, 52
10, 104448, Note_on_c, 9, 54, 61
10, 104448, Note_on_c, 9, 46, 119
10, 104448, Note_on_c, 9, 36, 101
10, 104454, Note_on_c, 9, 75, 52
10, 104464, Note_off_c, 9, 36, 101
10, 104508, Note_off_c, 9, 54, 61
10, 104550, Note_on_c, 9, 54, 23
10, 104560, Note_off_c, 9, 75, 52
10, 104560, Note_off_c, 9, 46, 119
10, 104576, Note_off_c, 9, 56, 52
10, 104606, Note_off_c, 9, 54, 23
10, 104638, Note_on_c, 9, 42, 91
10, 104640, Note_on_c, 9, 36, 101
10, 104644, Note_on_c, 9, 54, 17
10, 104656, Note_off_c, 9, 36, 101
10, 104686, Note_off_c, 9, 54, 17
10, 104688, Note_off_c, 9, 42, 91
10, 104736, Note_on_c, 9, 54, 49
10, 104794, Note_off_c, 9, 54, 49
10, 104830, Note_on_c, 9, 56, 52
10, 104832, Note_on_c, 9, 54, 78
10, 104832, Note_on_c, 9, 42, 111
10, 104832, Note_on_c, 9, 40, 91
10, 104832, Note_on_c, 9, 36, 101
10, 104838, Note_on_c, 9, 75, 52
10, 104848, Note_off_c, 9, 36, 101
10, 104890, Note_off_c, 9, 54, 78
10, 104924, Note_off_c, 9, 75, 52
10, 104924, Note_on_c, 9, 54, 43
10, 104938, Note_off_c, 9, 42, 111
10, 104950, Note_off_c, 9, 56, 52
10, 104980, Note_off_c, 9, 54, 43
10, 105022, Note_off_c, 9, 40, 91
10, 105022, Note_on_c, 9, 54, 26
10, 105024, Note_on_c, 9, 46, 71
10, 105024, Note_on_c, 9, 40, 66
10, 105062, Note_off_c, 9, 46, 71
10, 105064, Note_off_c, 9, 40, 66
10, 105068, Note_off_c, 9, 54, 26
10, 105118, Note_on_c, 9, 54, 46
10, 105120, Note_on_c, 9, 40, 58
10, 105160, Note_off_c, 9, 40, 58
10, 105180, Note_off_c, 9, 54, 46
10, 105214, Note_on_c, 9, 56, 52
10, 105214, Note_on_c, 9, 75, 52
10, 105214, Note_on_c, 9, 54, 31
10, 105216, Note_on_c, 9, 42, 110
10, 105216, Note_on_c, 9, 40, 87
10, 105216, Note_on_c, 9, 36, 101
10, 105232, Note_off_c, 9, 36, 101
10, 105256, Note_off_c, 9, 40, 87
10, 105268, Note_off_c, 9, 54, 31
10, 105292, Note_off_c, 9, 75, 52
10, 105304, Note_off_c, 9, 42, 110
10, 105308, Note_on_c, 9, 54, 49
10, 105312, Note_on_c, 9, 40, 64
10, 105348, Note_off_c, 9, 56, 52
10, 105352, Note_off_c, 9, 40, 64
10, 105370, Note_off_c, 9, 54, 49
10, 105404, Note_on_c, 9, 54, 34
10, 105408, Note_on_c, 9, 48, 75
10, 105408, Note_on_c, 9, 42, 76
10, 105448, Note_off_c, 9, 54, 34
10, 105476, Note_off_c, 9, 42, 76
10, 105498, Note_off_c, 9, 48, 75
10, 105502, Note_on_c, 9, 54, 43
10, 105504, Note_on_c, 9, 48, 90
10, 105504, Note_on_c, 9, 42, 91
10, 105560, Note_off_c, 9, 54, 43
10, 105572, Note_off_c, 9, 42, 91
10, 105594, Note_off_c, 9, 48, 90
10, 105596, Note_on_c, 9, 54, 58
10, 105598, Note_on_c, 9, 56, 52
10, 105598, Note_on_c, 9, 75, 52
10, 105598, Note_on_c, 9, 48, 90
10, 105600, Note_on_c, 9, 42, 111
10, 105600, Note_on_c, 9, 36, 101
10, 105616, Note_off_c, 9, 36, 101
10, 105624, Control_c, 9, 64, 127
10, 105632, Control_c, 9, 64, 0
10, 105640, Note_off_c, 9, 42, 111
10, 105650, Note_off_c, 9, 54, 58
10, 105666, Note_off_c, 9, 75, 52
10, 105688, Note_off_c, 9, 48, 90
10, 105694, Note_on_c, 9, 54, 37
10, 105696, Note_on_c, 9, 48, 58
10, 105696, Note_on_c, 9, 42, 74
10, 105720, Note_off_c, 9, 56, 52
10, 105734, Note_off_c, 9, 42, 74
10, 105744, Note_on_c, 9, 42, 85
10, 105756, Note_off_c, 9, 54, 37
10, 105786, Note_off_c, 9, 48, 58
10, 105786, Note_on_c, 9, 45, 75
10, 105790, Note_on_c, 9, 54, 52
10, 105792, Note_off_c, 9, 42, 85
10, 105792, Note_on_c, 9, 46, 88
10, 105834, Note_off_c, 9, 54, 52
10, 105840, Note_off_c, 9, 46, 88
10, 105864, Note_off_c, 9, 45, 75
10, 105884, Note_on_c, 9, 45, 60
10, 105888, Note_on_c, 9, 54, 31
10, 105888, Note_on_c, 9, 46, 97
10, 105888, Note_on_c, 9, 36, 83
10, 105904, Note_off_c, 9, 36, 83
10, 105936, Note_off_c, 9, 46, 97
10, 105946, Note_off_c, 9, 54, 31
10, 105962, Note_off_c, 9, 45, 60
10, 105984, Note_on_c, 9, 56, 52
10, 105984, Note_on_c, 9, 54, 61
10, 105984, Note_on_c, 9, 49, 72
10, 105984, Note_on_c, 9, 36, 101
10, 105990, Note_on_c, 9, 75, 52
10, 106000, Note_off_c, 9, 36, 101
10, 106040, Note_off_c, 9, 49, 72
10, 106044, Note_off_c, 9, 54, 61
10, 106076, Note_off_c, 9, 56, 52
10, 106086, Note_on_c, 9, 54, 23
10, 106096, Note_off_c, 9, 75, 52
10, 106142, Note_off_c, 9, 54, 23
10, 106176, Note_on_c, 9, 42, 55
10, 106180, Note_on_c, 9, 54, 17
10, 106218, Note_off_c, 9, 42, 55
10, 106222, Note_off_c, 9, 54, 17
10, 106272, Note_on_c, 9, 54, 49
10, 106280, Note_on_c, 9, 42, 55
10, 106322, Note_off_c, 9, 42, 55
10, 106330, Note_off_c, 9, 54, 49
10, 106368, Note_on_c, 9, 54, 78
10, 106368, Note_on_c, 9, 46, 77
10, 106368, Note_on_c, 9, 40, 91
10, 106368, Note_on_c, 9, 36, 101
10, 106370, Note_on_c, 9, 56, 52
10, 106374, Note_on_c, 9, 75, 52
10, 106384, Note_off_c, 9, 36, 101
10, 106426, Note_off_c, 9, 54, 78
10, 106446, Note_off_c, 9, 46, 77
10, 106460, Note_off_c, 9, 75, 52
10, 106460, Note_on_c, 9, 54, 45
10, 106490, Note_off_c, 9, 56, 52
10, 106516, Note_off_c, 9, 54, 45
10, 106558, Note_off_c, 9, 40, 91
10, 106558, Note_on_c, 9, 54, 26
10, 106562, Note_on_c, 9, 42, 61
10, 106604, Note_off_c, 9, 42, 61
10, 106604, Note_off_c, 9, 54, 26
10, 106654, Note_on_c, 9, 54, 52
10, 106656, Note_on_c, 9, 42, 43
10, 106698, Note_off_c, 9, 42, 43
10, 106716, Note_off_c, 9, 54, 52
10, 106748, Note_on_c, 9, 56, 52
10, 106750, Note_on_c, 9, 75, 52
10, 106750, Note_on_c, 9, 54, 31
10, 106752, Note_on_c, 9, 46, 75
10, 106752, Note_on_c, 9, 36, 101
10, 106768, Note_off_c, 9, 36, 101
10, 106804, Note_off_c, 9, 54, 31
10, 106828, Note_off_c, 9, 75, 52
10, 106830, Note_off_c, 9, 46, 75
10, 106844, Note_on_c, 9, 54, 49
10, 106876, Note_off_c, 9, 56, 52
10, 106906, Note_off_c, 9, 54, 49
10, 106940, Note_on_c, 9, 54, 34
10, 106946, Note_on_c, 9, 42, 55
10, 106984, Note_off_c, 9, 54, 34
10, 106996, Note_off_c, 9, 42, 55
10, 107038, Note_on_c, 9, 54, 43
10, 107040, Note_on_c, 9, 42, 55
10, 107082, Note_off_c, 9, 42, 55
10, 107096, Note_off_c, 9, 54, 43
10, 107132, Note_on_c, 9, 54, 58
10, 107134, Note_on_c, 9, 56, 52
10, 107134, Note_on_c, 9, 75, 52
10, 107136, Note_on_c, 9, 46, 78
10, 107136, Note_on_c, 9, 40, 91
10, 107136, Note_on_c, 9, 36, 101
10, 107152, Note_off_c, 9, 36, 101
10, 107186, Note_off_c, 9, 54, 58
10, 107202, Note_off_c, 9, 75, 52
10, 107230, Note_on_c, 9, 54, 37
10, 107252, Note_off_c, 9, 46, 78
10, 107292, Note_off_c, 9, 54, 37
10, 107306, Note_off_c, 9, 56, 52
10, 107326, Note_off_c, 9, 40, 91
10, 107326, Note_on_c, 9, 54, 52
10, 107328, Note_on_c, 9, 42, 40
10, 107370, Note_off_c, 9, 54, 52
10, 107376, Note_off_c, 9, 42, 40
10, 107424, Note_on_c, 9, 54, 31
10, 107424, Note_on_c, 9, 42, 55
10, 107466, Note_off_c, 9, 42, 55
10, 107482, Note_off_c, 9, 54, 31
10, 107518, Note_on_c, 9, 56, 52
10, 107520, Note_on_c, 9, 54, 61
10, 107520, Note_on_c, 9, 46, 75
10, 107520, Note_on_c, 9, 36, 101
10, 107526, Note_on_c, 9, 75, 52
10, 107536, Note_off_c, 9, 36, 101
10, 107580, Note_off_c, 9, 54, 61
10, 107622, Note_on_c, 9, 54, 23
10, 107632, Note_off_c, 9, 75, 52
10, 107636, Note_off_c, 9, 46, 75
10, 107648, Note_off_c, 9, 56, 52
10, 107678, Note_off_c, 9, 54, 23
10, 107716, Note_on_c, 9, 54, 17
10, 107716, Note_on_c, 9, 42, 46
10, 107758, Note_off_c, 9, 42, 46
10, 107758, Note_off_c, 9, 54, 17
10, 107808, Note_on_c, 9, 54, 49
10, 107816, Note_on_c, 9, 42, 55
10, 107858, Note_off_c, 9, 42, 55
10, 107866, Note_off_c, 9, 54, 49
10, 107902, Note_on_c, 9, 56, 52
10, 107904, Note_on_c, 9, 54, 78
10, 107904, Note_on_c, 9, 46, 77
10, 107904, Note_on_c, 9, 40, 91
10, 107904, Note_on_c, 9, 36, 101
10, 107910, Note_on_c, 9, 75, 52
10, 107920, Note_off_c, 9, 36, 101
10, 107962, Note_off_c, 9, 54, 78
10, 107982, Note_off_c, 9, 46, 77
10, 107996, Note_off_c, 9, 75, 52
10, 107996, Note_on_c, 9, 54, 43
10, 108022, Note_off_c, 9, 56, 52
10, 108052, Note_off_c, 9, 54, 43
10, 108094, Note_off_c, 9, 40, 91
10, 108094, Note_on_c, 9, 54, 26
10, 108096, Note_on_c, 9, 42, 61
10, 108138, Note_off_c, 9, 42, 61
10, 108140, Note_off_c, 9, 54, 26
10, 108190, Note_on_c, 9, 54, 46
10, 108192, Note_on_c, 9, 42, 43
10, 108192, Note_on_c, 9, 40, 91
10, 108234, Note_off_c, 9, 42, 43
10, 108252, Note_off_c, 9, 54, 46
10, 108286, Note_on_c, 9, 56, 52
10, 108286, Note_on_c, 9, 75, 52
10, 108286, Note_on_c, 9, 54, 31
10, 108288, Note_on_c, 9, 46, 75
10, 108288, Note_on_c, 9, 36, 101
10, 108304, Note_off_c, 9, 36, 101
10, 108340, Note_off_c, 9, 54, 31
10, 108364, Note_off_c, 9, 75, 52
10, 108366, Note_off_c, 9, 46, 75
10, 108380, Note_on_c, 9, 54, 49
10, 108382, Note_off_c, 9, 40, 91
10, 108420, Note_off_c, 9, 56, 52
10, 108442, Note_off_c, 9, 54, 49
10, 108472, Note_on_c, 9, 42, 46
10, 108476, Note_on_c, 9, 54, 34
10, 108520, Note_off_c, 9, 54, 34
10, 108522, Note_off_c, 9, 42, 46
10, 108574, Note_on_c, 9, 54, 43
10, 108576, Note_on_c, 9, 42, 64
10, 108618, Note_off_c, 9, 42, 64
10, 108632, Note_off_c, 9, 54, 43
10, 108668, Note_on_c, 9, 54, 58
10, 108670, Note_on_c, 9, 56, 52
10, 108670, Note_on_c, 9, 75, 52
10, 108672, Note_on_c, 9, 46, 75
10, 108672, Note_on_c, 9, 40, 91
10, 108672, Note_on_c, 9, 36, 101
10, 108688, Note_off_c, 9, 36, 101
10, 108696, Control_c, 9, 64, 127
10, 108704, Control_c, 9, 64, 0
10, 108722, Note_off_c, 9, 54, 58
10, 108738, Note_off_c, 9, 75, 52
10, 108766, Note_on_c, 9, 54, 37
10, 108788, Note_off_c, 9, 46, 75
10, 108792, Note_off_c, 9, 56, 52
10, 108828, Note_off_c, 9, 54, 37
10, 108862, Note_off_c, 9, 40, 91
10, 108862, Note_on_c, 9, 54, 52
10, 108864, Note_on_c, 9, 42, 49
10, 108906, Note_off_c, 9, 54, 52
10, 108912, Note_off_c, 9, 42, 49
10, 108960, Note_on_c, 9, 54, 31
10, 108960, Note_on_c, 9, 42, 55
10, 109002, Note_off_c, 9, 42, 55
10, 109018, Note_off_c, 9, 54, 31
10, 109056, Note_on_c, 9, 56, 52
10, 109056, Note_on_c, 9, 54, 61
10, 109056, Note_on_c, 9, 46, 77
10, 109056, Note_on_c, 9, 36, 101
10, 109062, Note_on_c, 9, 75, 52
10, 109072, Note_off_c, 9, 36, 101
10, 109116, Note_off_c, 9, 54, 61
10, 109134, Note_off_c, 9, 46, 77
10, 109148, Note_off_c, 9, 56, 52
10, 109158, Note_on_c, 9, 54, 23
10, 109168, Note_off_c, 9, 75, 52
10, 109214, Note_off_c, 9, 54, 23
10, 109248, Note_on_c, 9, 42, 43
10, 109252, Note_on_c, 9, 54, 17
10, 109290, Note_off_c, 9, 42, 43
10, 109294, Note_off_c, 9, 54, 17
10, 109344, Note_on_c, 9, 54, 49
10, 109352, Note_on_c, 9, 42, 55
10, 109394, Note_off_c, 9, 42, 55
10, 109402, Note_off_c, 9, 54, 49
10, 109440, Note_on_c, 9, 54, 78
10, 109440, Note_on_c, 9, 46, 77
10, 109440, Note_on_c, 9, 40, 91
10, 109440, Note_on_c, 9, 36, 101
10, 109442, Note_on_c, 9, 56, 52
10, 109446, Note_on_c, 9, 75, 52
10, 109456, Note_off_c, 9, 36, 101
10, 109498, Note_off_c, 9, 54, 78
10, 109518, Note_off_c, 9, 46, 77
10, 109532, Note_off_c, 9, 75, 52
10, 109532, Note_on_c, 9, 54, 45
10, 109562, Note_off_c, 9, 56, 52
10, 109588, Note_off_c, 9, 54, 45
10, 109630, Note_off_c, 9, 40, 91
10, 109630, Note_on_c, 9, 54, 26
10, 109634, Note_on_c, 9, 42, 46
10, 109676, Note_off_c, 9, 42, 46
10, 109676, Note_off_c, 9, 54, 26
10, 109726, Note_on_c, 9, 54, 52
10, 109728, Note_on_c, 9, 42, 43
10, 109770, Note_off_c, 9, 42, 43
10, 109788, Note_off_c, 9, 54, 52
10, 109820, Note_on_c, 9, 56, 52
10, 109822, Note_on_c, 9, 75, 52
10, 109822, Note_on_c, 9, 54, 31
10, 109824, Note_on_c, 9, 46, 75
10, 109824, Note_on_c, 9, 36, 101
10, 109840, Note_off_c, 9, 36, 101
10, 109876, Note_off_c, 9, 54, 31
10, 109900, Note_off_c, 9, 75, 52
10, 109902, Note_off_c, 9, 46, 75
10, 109916, Note_on_c, 9, 54, 49
10, 109948, Note_off_c, 9, 56, 52
10, 109978, Note_off_c, 9, 54, 49
10, 110012, Note_on_c, 9, 54, 34
10, 110018, Note_on_c, 9, 42, 43
10, 110056, Note_off_c, 9, 54, 34
10, 110068, Note_off_c, 9, 42, 43
10, 110110, Note_on_c, 9, 54, 43
10, 110112, Note_on_c, 9, 42, 58
10, 110154, Note_off_c, 9, 42, 58
10, 110168, Note_off_c, 9, 54, 43
10, 110204, Note_on_c, 9, 54, 58
10, 110206, Note_on_c, 9, 56, 52
10, 110206, Note_on_c, 9, 75, 52
10, 110208, Note_on_c, 9, 46, 78
10, 110208, Note_on_c, 9, 40, 91
10, 110208, Note_on_c, 9, 36, 101
10, 110224, Note_off_c, 9, 36, 101
10, 110258, Note_off_c, 9, 54, 58
10, 110274, Note_off_c, 9, 75, 52
10, 110302, Note_on_c, 9, 54, 37
10, 110324, Note_off_c, 9, 46, 78
10, 110364, Note_off_c, 9, 54, 37
10, 110378, Note_off_c, 9, 56, 52
10, 110398, Note_off_c, 9, 40, 91
10, 110398, Note_on_c, 9, 54, 52
10, 110400, Note_on_c, 9, 42, 40
10, 110442, Note_off_c, 9, 54, 52
10, 110448, Note_off_c, 9, 42, 40
10, 110496, Note_on_c, 9, 54, 31
10, 110496, Note_on_c, 9, 42, 55
10, 110538, Note_off_c, 9, 42, 55
10, 110554, Note_off_c, 9, 54, 31
10, 110590, Note_on_c, 9, 56, 52
10, 110592, Note_on_c, 9, 54, 61
10, 110592, Note_on_c, 9, 46, 75
10, 110592, Note_on_c, 9, 36, 101
10, 110598, Note_on_c, 9, 75, 52
10, 110608, Note_off_c, 9, 36, 101
10, 110652, Note_off_c, 9, 54, 61
10, 110694, Note_on_c, 9, 54, 23
10, 110704, Note_off_c, 9, 75, 52
10, 110708, Note_off_c, 9, 46, 75
10, 110720, Note_off_c, 9, 56, 52
10, 110750, Note_off_c, 9, 54, 23
10, 110788, Note_on_c, 9, 54, 17
10, 110788, Note_on_c, 9, 42, 37
10, 110830, Note_off_c, 9, 42, 37
10, 110830, Note_off_c, 9, 54, 17
10, 110880, Note_on_c, 9, 54, 49
10, 110888, Note_on_c, 9, 42, 66
10, 110930, Note_off_c, 9, 42, 66
10, 110938, Note_off_c, 9, 54, 49
10, 110974, Note_on_c, 9, 56, 52
10, 110976, Note_on_c, 9, 54, 78
10, 110976, Note_on_c, 9, 46, 77
10, 110976, Note_on_c, 9, 40, 91
10, 110976, Note_on_c, 9, 36, 101
10, 110982, Note_on_c, 9, 75, 52
10, 110992, Note_off_c, 9, 36, 101
10, 111034, Note_off_c, 9, 54, 78
10, 111054, Note_off_c, 9, 46, 77
10, 111068, Note_off_c, 9, 75, 52
10, 111068, Note_on_c, 9, 54, 43
10, 111094, Note_off_c, 9, 56, 52
10, 111124, Note_off_c, 9, 54, 43
10, 111166, Note_off_c, 9, 40, 91
10, 111166, Note_on_c, 9, 54, 26
10, 111168, Note_on_c, 9, 42, 49
10, 111210, Note_off_c, 9, 42, 49
10, 111212, Note_off_c, 9, 54, 26
10, 111262, Note_on_c, 9, 54, 46
10, 111264, Note_on_c, 9, 42, 43
10, 111264, Note_on_c, 9, 40, 91
10, 111306, Note_off_c, 9, 42, 43
10, 111324, Note_off_c, 9, 54, 46
10, 111358, Note_on_c, 9, 56, 52
10, 111358, Note_on_c, 9, 75, 52
10, 111358, Note_on_c, 9, 54, 31
10, 111360, Note_on_c, 9, 46, 75
10, 111360, Note_on_c, 9, 36, 101
10, 111376, Note_off_c, 9, 36, 101
10, 111412, Note_off_c, 9, 54, 31
10, 111436, Note_off_c, 9, 75, 52
10, 111438, Note_off_c, 9, 46, 75
10, 111452, Note_on_c, 9, 54, 49
10, 111454, Note_off_c, 9, 40, 91
10, 111492, Note_off_c, 9, 56, 52
10, 111514, Note_off_c, 9, 54, 49
10, 111544, Note_on_c, 9, 42, 49
10, 111548, Note_on_c, 9, 54, 34
10, 111592, Note_off_c, 9, 54, 34
10, 111594, Note_off_c, 9, 42, 49
10, 111646, Note_on_c, 9, 54, 43
10, 111648, Note_on_c, 9, 42, 61
10, 111690, Note_off_c, 9, 42, 61
10, 111704, Note_off_c, 9, 54, 43
10, 111740, Note_on_c, 9, 54, 58
10, 111742, Note_on_c, 9, 56, 52
10, 111742, Note_on_c, 9, 75, 52
10, 111744, Note_on_c, 9, 46, 75
10, 111744, Note_on_c, 9, 40, 91
10, 111744, Note_on_c, 9, 36, 101
10, 111760, Note_off_c, 9, 36, 101
10, 111768, Control_c, 9, 64, 127
10, 111776, Control_c, 9, 64, 0
10, 111794, Note_off_c, 9, 54, 58
10, 111810, Note_off_c, 9, 75, 52
10, 111838, Note_on_c, 9, 54, 37
10, 111860, Note_off_c, 9, 46, 75
10, 111864, Note_off_c, 9, 56, 52
10, 111900, Note_off_c, 9, 54, 37
10, 111934, Note_off_c, 9, 40, 91
10, 111934, Note_on_c, 9, 54, 52
10, 111936, Note_on_c, 9, 42, 49
10, 111936, Note_on_c, 9, 36, 83
10, 111952, Note_off_c, 9, 36, 83
10, 111978, Note_off_c, 9, 54, 52
10, 111984, Note_off_c, 9, 42, 49
10, 112032, Note_on_c, 9, 54, 31
10, 112032, Note_on_c, 9, 42, 55
10, 112074, Note_off_c, 9, 42, 55
10, 112090, Note_off_c, 9, 54, 31
10, 112128, Note_on_c, 9, 56, 52
10, 112128, Note_on_c, 9, 54, 61
10, 112128, Note_on_c, 9, 46, 77
10, 112128, Note_on_c, 9, 36, 101
10, 112134, Note_on_c, 9, 75, 52
10, 112144, Note_off_c, 9, 36, 101
10, 112188, Note_off_c, 9, 54, 61
10, 112206, Note_off_c, 9, 46, 77
10, 112220, Note_off_c, 9, 56, 52
10, 112230, Note_on_c, 9, 54, 23
10, 112240, Note_off_c, 9, 75, 52
10, 112286, Note_off_c, 9, 54, 23
10, 112320, Note_on_c, 9, 42, 43
10, 112324, Note_on_c, 9, 54, 17
10, 112362, Note_off_c, 9, 42, 43
10, 112366, Note_off_c, 9, 54, 17
10, 112416, Note_on_c, 9, 54, 49
10, 112424, Note_on_c, 9, 42, 55
10, 112466, Note_off_c, 9, 42, 55
10, 112474, Note_off_c, 9, 54, 49
10, 112512, Note_on_c, 9, 54, 78
10, 112512, Note_on_c, 9, 46, 77
10, 112512, Note_on_c, 9, 40, 91
10, 112512, Note_on_c, 9, 36, 101
10, 112514, Note_on_c, 9, 56, 52
10, 112518, Note_on_c, 9, 75, 52
10, 112528, Note_off_c, 9, 36, 101
10, 112570, Note_off_c, 9, 54, 78
10, 112590, Note_off_c, 9, 46, 77
10, 112604, Note_off_c, 9, 75, 52
10, 112604, Note_on_c, 9, 54, 45
10, 112634, Note_off_c, 9, 56, 52
10, 112660, Note_off_c, 9, 54, 45
10, 112702, Note_off_c, 9, 40, 91
10, 112702, Note_on_c, 9, 54, 26
10, 112706, Note_on_c, 9, 42, 46
10, 112748, Note_off_c, 9, 42, 46
10, 112748, Note_off_c, 9, 54, 26
10, 112798, Note_on_c, 9, 54, 52
10, 112800, Note_on_c, 9, 42, 43
10, 112842, Note_off_c, 9, 42, 43
10, 112860, Note_off_c, 9, 54, 52
10, 112892, Note_on_c, 9, 56, 52
10, 112894, Note_on_c, 9, 75, 52
10, 112894, Note_on_c, 9, 54, 31
10, 112896, Note_on_c, 9, 46, 75
10, 112896, Note_on_c, 9, 36, 101
10, 112912, Note_off_c, 9, 36, 101
10, 112948, Note_off_c, 9, 54, 31
10, 112972, Note_off_c, 9, 75, 52
10, 112974, Note_off_c, 9, 46, 75
10, 112988, Note_on_c, 9, 54, 49
10, 113020, Note_off_c, 9, 56, 52
10, 113050, Note_off_c, 9, 54, 49
10, 113084, Note_on_c, 9, 54, 34
10, 113090, Note_on_c, 9, 42, 43
10, 113128, Note_off_c, 9, 54, 34
10, 113140, Note_off_c, 9, 42, 43
10, 113182, Note_on_c, 9, 54, 43
10, 113184, Note_on_c, 9, 42, 55
10, 113226, Note_off_c, 9, 42, 55
10, 113240, Note_off_c, 9, 54, 43
10, 113276, Note_on_c, 9, 54, 58
10, 113278, Note_on_c, 9, 56, 52
10, 113278, Note_on_c, 9, 75, 52
10, 113280, Note_on_c, 9, 46, 78
10, 113280, Note_on_c, 9, 40, 91
10, 113280, Note_on_c, 9, 36, 101
10, 113296, Note_off_c, 9, 36, 101
10, 113330, Note_off_c, 9, 54, 58
10, 113346, Note_off_c, 9, 75, 52
10, 113374, Note_on_c, 9, 54, 37
10, 113396, Note_off_c, 9, 46, 78
10, 113436, Note_off_c, 9, 54, 37
10, 113450, Note_off_c, 9, 56, 52
10, 113470, Note_off_c, 9, 40, 91
10, 113470, Note_on_c, 9, 54, 52
10, 113472, Note_on_c, 9, 42, 40
10, 113514, Note_off_c, 9, 54, 52
10, 113520, Note_off_c, 9, 42, 40
10, 113568, Note_on_c, 9, 54, 31
10, 113568, Note_on_c, 9, 42, 55
10, 113610, Note_off_c, 9, 42, 55
10, 113626, Note_off_c, 9, 54, 31
10, 113662, Note_on_c, 9, 56, 52
10, 113664, Note_on_c, 9, 54, 61
10, 113664, Note_on_c, 9, 46, 75
10, 113664, Note_on_c, 9, 36, 101
10, 113670, Note_on_c, 9, 75, 52
10, 113680, Note_off_c, 9, 36, 101
10, 113724, Note_off_c, 9, 54, 61
10, 113766, Note_on_c, 9, 54, 23
10, 113776, Note_off_c, 9, 75, 52
10, 113780, Note_off_c, 9, 46, 75
10, 113792, Note_off_c, 9, 56, 52
10, 113822, Note_off_c, 9, 54, 23
10, 113860, Note_on_c, 9, 54, 17
10, 113860, Note_on_c, 9, 42, 37
10, 113902, Note_off_c, 9, 42, 37
10, 113902, Note_off_c, 9, 54, 17
10, 113952, Note_on_c, 9, 54, 49
10, 113960, Note_on_c, 9, 42, 55
10, 114002, Note_off_c, 9, 42, 55
10, 114010, Note_off_c, 9, 54, 49
10, 114046, Note_on_c, 9, 56, 52
10, 114048, Note_on_c, 9, 54, 78
10, 114048, Note_on_c, 9, 46, 77
10, 114048, Note_on_c, 9, 40, 91
10, 114048, Note_on_c, 9, 36, 101
10, 114054, Note_on_c, 9, 75, 52
10, 114064, Note_off_c, 9, 36, 101
10, 114106, Note_off_c, 9, 54, 78
10, 114126, Note_off_c, 9, 46, 77
10, 114140, Note_off_c, 9, 75, 52
10, 114140, Note_on_c, 9, 54, 43
10, 114166, Note_off_c, 9, 56, 52
10, 114196, Note_off_c, 9, 54, 43
10, 114238, Note_off_c, 9, 40, 91
10, 114238, Note_on_c, 9, 54, 26
10, 114240, Note_on_c, 9, 42, 49
10, 114282, Note_off_c, 9, 42, 49
10, 114284, Note_off_c, 9, 54, 26
10, 114334, Note_on_c, 9, 54, 46
10, 114336, Note_on_c, 9, 42, 43
10, 114336, Note_on_c, 9, 40, 91
10, 114378, Note_off_c, 9, 42, 43
10, 114396, Note_off_c, 9, 54, 46
10, 114430, Note_on_c, 9, 56, 52
10, 114430, Note_on_c, 9, 75, 52
10, 114430, Note_on_c, 9, 54, 31
10, 114432, Note_on_c, 9, 46, 75
10, 114432, Note_on_c, 9, 36, 101
10, 114448, Note_off_c, 9, 36, 101
10, 114484, Note_off_c, 9, 54, 31
10, 114508, Note_off_c, 9, 75, 52
10, 114510, Note_off_c, 9, 46, 75
10, 114524, Note_on_c, 9, 54, 49
10, 114526, Note_off_c, 9, 40, 91
10, 114564, Note_off_c, 9, 56, 52
10, 114586, Note_off_c, 9, 54, 49
10, 114616, Note_on_c, 9, 42, 49
10, 114620, Note_on_c, 9, 54, 34
10, 114664, Note_off_c, 9, 54, 34
10, 114666, Note_off_c, 9, 42, 49
10, 114718, Note_on_c, 9, 54, 43
10, 114720, Note_on_c, 9, 42, 55
10, 114762, Note_off_c, 9, 42, 55
10, 114776, Note_off_c, 9, 54, 43
10, 114812, Note_on_c, 9, 54, 58
10, 114814, Note_on_c, 9, 56, 52
10, 114814, Note_on_c, 9, 75, 52
10, 114816, Note_on_c, 9, 46, 75
10, 114816, Note_on_c, 9, 40, 91
10, 114816, Note_on_c, 9, 36, 101
10, 114832, Note_off_c, 9, 36, 101
10, 114840, Control_c, 9, 64, 127
10, 114848, Control_c, 9, 64, 0
10, 114866, Note_off_c, 9, 54, 58
10, 114882, Note_off_c, 9, 75, 52
10, 114910, Note_on_c, 9, 54, 37
10, 114932, Note_off_c, 9, 46, 75
10, 114936, Note_off_c, 9, 56, 52
10, 114972, Note_off_c, 9, 54, 37
10, 115006, Note_off_c, 9, 40, 91
10, 115006, Note_on_c, 9, 54, 52
10, 115008, Note_on_c, 9, 42, 49
10, 115050, Note_off_c, 9, 54, 52
10, 115056, Note_off_c, 9, 42, 49
10, 115104, Note_on_c, 9, 54, 31
10, 115104, Note_on_c, 9, 42, 55
10, 115146, Note_off_c, 9, 42, 55
10, 115162, Note_off_c, 9, 54, 31
10, 115200, Note_on_c, 9, 56, 52
10, 115200, Note_on_c, 9, 54, 61
10, 115200, Note_on_c, 9, 46, 77
10, 115200, Note_on_c, 9, 36, 101
10, 115206, Note_on_c, 9, 75, 52
10, 115216, Note_off_c, 9, 36, 101
10, 115260, Note_off_c, 9, 54, 61
10, 115278, Note_off_c, 9, 46, 77
10, 115292, Note_off_c, 9, 56, 52
10, 115302, Note_on_c, 9, 54, 23
10, 115312, Note_off_c, 9, 75, 52
10, 115358, Note_off_c, 9, 54, 23
10, 115392, Note_on_c, 9, 42, 43
10, 115396, Note_on_c, 9, 54, 17
10, 115434, Note_off_c, 9, 42, 43
10, 115438, Note_off_c, 9, 54, 17
10, 115488, Note_on_c, 9, 54, 49
10, 115496, Note_on_c, 9, 42, 55
10, 115538, Note_off_c, 9, 42, 55
10, 115546, Note_off_c, 9, 54, 49
10, 115584, Note_on_c, 9, 54, 78
10, 115584, Note_on_c, 9, 46, 77
10, 115584, Note_on_c, 9, 40, 91
10, 115584, Note_on_c, 9, 36, 101
10, 115586, Note_on_c, 9, 56, 52
10, 115590, Note_on_c, 9, 75, 52
10, 115600, Note_off_c, 9, 36, 101
10, 115642, Note_off_c, 9, 54, 78
10, 115662, Note_off_c, 9, 46, 77
10, 115676, Note_off_c, 9, 75, 52
10, 115676, Note_on_c, 9, 54, 45
10, 115706, Note_off_c, 9, 56, 52
10, 115732, Note_off_c, 9, 54, 45
10, 115774, Note_off_c, 9, 40, 91
10, 115774, Note_on_c, 9, 54, 26
10, 115778, Note_on_c, 9, 42, 46
10, 115820, Note_off_c, 9, 42, 46
10, 115820, Note_off_c, 9, 54, 26
10, 115870, Note_on_c, 9, 54, 52
10, 115872, Note_on_c, 9, 42, 43
10, 115914, Note_off_c, 9, 42, 43
10, 115932, Note_off_c, 9, 54, 52
10, 115964, Note_on_c, 9, 56, 52
10, 115966, Note_on_c, 9, 75, 52
10, 115966, Note_on_c, 9, 54, 31
10, 115968, Note_on_c, 9, 46, 75
10, 115968, Note_on_c, 9, 36, 101
10, 115984, Note_off_c, 9, 36, 101
10, 116020, Note_off_c, 9, 54, 31
10, 116044, Note_off_c, 9, 75, 52
10, 116046, Note_off_c, 9, 46, 75
10, 116060, Note_on_c, 9, 54, 49
10, 116092, Note_off_c, 9, 56, 52
10, 116122, Note_off_c, 9, 54, 49
10, 116156, Note_on_c, 9, 54, 34
10, 116162, Note_on_c, 9, 42, 43
10, 116200, Note_off_c, 9, 54, 34
10, 116212, Note_off_c, 9, 42, 43
10, 116254, Note_on_c, 9, 54, 43
10, 116256, Note_on_c, 9, 42, 58
10, 116298, Note_off_c, 9, 42, 58
10, 116312, Note_off_c, 9, 54, 43
10, 116348, Note_on_c, 9, 54, 58
10, 116350, Note_on_c, 9, 56, 52
10, 116350, Note_on_c, 9, 75, 52
10, 116352, Note_on_c, 9, 46, 78
10, 116352, Note_on_c, 9, 40, 91
10, 116352, Note_on_c, 9, 36, 101
10, 116368, Note_off_c, 9, 36, 101
10, 116402, Note_off_c, 9, 54, 58
10, 116418, Note_off_c, 9, 75, 52
10, 116446, Note_on_c, 9, 54, 37
10, 116468, Note_off_c, 9, 46, 78
10, 116508, Note_off_c, 9, 54, 37
10, 116522, Note_off_c, 9, 56, 52
10, 116542, Note_off_c, 9, 40, 91
10, 116542, Note_on_c, 9, 54, 52
10, 116544, Note_on_c, 9, 42, 40
10, 116586, Note_off_c, 9, 54, 52
10, 116592, Note_off_c, 9, 42, 40
10, 116640, Note_on_c, 9, 54, 31
10, 116640, Note_on_c, 9, 42, 55
10, 116682, Note_off_c, 9, 42, 55
10, 116698, Note_off_c, 9, 54, 31
10, 116734, Note_on_c, 9, 56, 52
10, 116736, Note_on_c, 9, 54, 61
10, 116736, Note_on_c, 9, 46, 75
10, 116736, Note_on_c, 9, 36, 101
10, 116742, Note_on_c, 9, 75, 52
10, 116752, Note_off_c, 9, 36, 101
10, 116796, Note_off_c, 9, 54, 61
10, 116838, Note_on_c, 9, 54, 23
10, 116848, Note_off_c, 9, 75, 52
10, 116852, Note_off_c, 9, 46, 75
10, 116864, Note_off_c, 9, 56, 52
10, 116894, Note_off_c, 9, 54, 23
10, 116932, Note_on_c, 9, 54, 17
10, 116932, Note_on_c, 9, 42, 37
10, 116974, Note_off_c, 9, 42, 37
10, 116974, Note_off_c, 9, 54, 17
10, 117024, Note_on_c, 9, 54, 49
10, 117032, Note_on_c, 9, 42, 66
10, 117074, Note_off_c, 9, 42, 66
10, 117082, Note_off_c, 9, 54, 49
10, 117118, Note_on_c, 9, 56, 52
10, 117120, Note_on_c, 9, 54, 78
10, 117120, Note_on_c, 9, 46, 77
10, 117120, Note_on_c, 9, 40, 91
10, 117120, Note_on_c, 9, 36, 101
10, 117126, Note_on_c, 9, 75, 52
10, 117136, Note_off_c, 9, 36, 101
10, 117178, Note_off_c, 9, 54, 78
10, 117198, Note_off_c, 9, 46, 77
10, 117212, Note_off_c, 9, 75, 52
10, 117212, Note_on_c, 9, 54, 43
10, 117238, Note_off_c, 9, 56, 52
10, 117268, Note_off_c, 9, 54, 43
10, 117310, Note_off_c, 9, 40, 91
10, 117310, Note_on_c, 9, 54, 26
10, 117312, Note_on_c, 9, 42, 49
10, 117354, Note_off_c, 9, 42, 49
10, 117356, Note_off_c, 9, 54, 26
10, 117406, Note_on_c, 9, 54, 46
10, 117408, Note_on_c, 9, 42, 43
10, 117416, Note_on_c, 9, 40, 87
10, 117450, Note_off_c, 9, 42, 43
10, 117468, Note_off_c, 9, 54, 46
10, 117476, Note_off_c, 9, 40, 87
10, 117502, Note_on_c, 9, 56, 52
10, 117502, Note_on_c, 9, 75, 52
10, 117502, Note_on_c, 9, 54, 31
10, 117504, Note_on_c, 9, 46, 75
10, 117504, Note_on_c, 9, 36, 101
10, 117520, Note_off_c, 9, 36, 101
10, 117556, Note_off_c, 9, 54, 31
10, 117580, Note_off_c, 9, 75, 52
10, 117582, Note_off_c, 9, 46, 75
10, 117596, Note_on_c, 9, 54, 49
10, 117636, Note_off_c, 9, 56, 52
10, 117658, Note_off_c, 9, 54, 49
10, 117688, Note_on_c, 9, 42, 49
10, 117692, Note_on_c, 9, 54, 34
10, 117736, Note_off_c, 9, 54, 34
10, 117738, Note_off_c, 9, 42, 49
10, 117790, Note_on_c, 9, 54, 43
10, 117792, Note_on_c, 9, 42, 61
10, 117834, Note_off_c, 9, 42, 61
10, 117848, Note_off_c, 9, 54, 43
10, 117884, Note_on_c, 9, 54, 58
10, 117886, Note_on_c, 9, 56, 52
10, 117886, Note_on_c, 9, 75, 52
10, 117888, Note_on_c, 9, 46, 75
10, 117888, Note_on_c, 9, 40, 95
10, 117888, Note_on_c, 9, 36, 101
10, 117904, Note_off_c, 9, 36, 101
10, 117912, Control_c, 9, 64, 127
10, 117920, Control_c, 9, 64, 0
10, 117938, Note_off_c, 9, 54, 58
10, 117954, Note_off_c, 9, 75, 52
10, 117982, Note_on_c, 9, 54, 37
10, 118004, Note_off_c, 9, 46, 75
10, 118008, Note_off_c, 9, 56, 52
10, 118044, Note_off_c, 9, 54, 37
10, 118078, Note_off_c, 9, 40, 95
10, 118078, Note_on_c, 9, 54, 52
10, 118080, Note_on_c, 9, 42, 49
10, 118122, Note_off_c, 9, 54, 52
10, 118128, Note_off_c, 9, 42, 49
10, 118176, Note_on_c, 9, 54, 31
10, 118176, Note_on_c, 9, 42, 55
10, 118218, Note_off_c, 9, 42, 55
10, 118234, Note_off_c, 9, 54, 31
10, 118272, Note_on_c, 9, 56, 52
10, 118272, Note_on_c, 9, 54, 61
10, 118272, Note_on_c, 9, 49, 72
10, 118272, Note_on_c, 9, 36, 101
10, 118278, Note_on_c, 9, 75, 52
10, 118288, Note_off_c, 9, 36, 101
10, 118328, Note_off_c, 9, 49, 72
10, 118332, Note_off_c, 9, 54, 61
10, 118364, Note_off_c, 9, 56, 52
10, 118374, Note_on_c, 9, 54, 23
10, 118384, Note_off_c, 9, 75, 52
10, 118430, Note_off_c, 9, 54, 23
10, 118464, Note_on_c, 9, 42, 76
10, 118468, Note_on_c, 9, 54, 17
10, 118510, Note_off_c, 9, 54, 17
10, 118542, Note_off_c, 9, 42, 76
10, 118560, Note_on_c, 9, 54, 49
10, 118618, Note_off_c, 9, 54, 49
10, 118656, Note_on_c, 9, 54, 78
10, 118656, Note_on_c, 9, 42, 110
10, 118656, Note_on_c, 9, 40, 91
10, 118656, Note_on_c, 9, 36, 101
10, 118658, Note_on_c, 9, 56, 52
10, 118662, Note_on_c, 9, 75, 52
10, 118672, Note_off_c, 9, 36, 101
10, 118714, Note_off_c, 9, 54, 78
10, 118734, Note_off_c, 9, 42, 110
10, 118748, Note_off_c, 9, 75, 52
10, 118748, Note_on_c, 9, 54, 45
10, 118778, Note_off_c, 9, 56, 52
10, 118804, Note_off_c, 9, 54, 45
10, 118840, Note_on_c, 9, 42, 53
10, 118846, Note_off_c, 9, 40, 91
10, 118846, Note_on_c, 9, 54, 26
10, 118882, Note_off_c, 9, 42, 53
10, 118892, Note_off_c, 9, 54, 26
10, 118942, Note_on_c, 9, 54, 52
10, 119004, Note_off_c, 9, 54, 52
10, 119036, Note_on_c, 9, 56, 52
10, 119038, Note_on_c, 9, 75, 52
10, 119038, Note_on_c, 9, 54, 31
10, 119040, Note_on_c, 9, 42, 108
10, 119040, Note_on_c, 9, 36, 101
10, 119056, Note_off_c, 9, 36, 101
10, 119092, Note_off_c, 9, 54, 31
10, 119116, Note_off_c, 9, 75, 52
10, 119118, Note_off_c, 9, 42, 108
10, 119132, Note_on_c, 9, 54, 49
10, 119164, Note_off_c, 9, 56, 52
10, 119194, Note_off_c, 9, 54, 49
10, 119224, Note_on_c, 9, 42, 42
10, 119228, Note_on_c, 9, 54, 34
10, 119272, Note_off_c, 9, 54, 34
10, 119274, Note_off_c, 9, 42, 42
10, 119326, Note_on_c, 9, 54, 43
10, 119384, Note_off_c, 9, 54, 43
10, 119420, Note_on_c, 9, 54, 58
10, 119422, Note_on_c, 9, 56, 52
10, 119422, Note_on_c, 9, 75, 52
10, 119424, Note_on_c, 9, 42, 111
10, 119424, Note_on_c, 9, 40, 91
10, 119424, Note_on_c, 9, 36, 101
10, 119440, Note_off_c, 9, 36, 101
10, 119474, Note_off_c, 9, 54, 58
10, 119490, Note_off_c, 9, 75, 52
10, 119518, Note_on_c, 9, 54, 37
10, 119540, Note_off_c, 9, 42, 111
10, 119580, Note_off_c, 9, 54, 37
10, 119594, Note_off_c, 9, 56, 52
10, 119614, Note_off_c, 9, 40, 91
10, 119614, Note_on_c, 9, 54, 52
10, 119616, Note_on_c, 9, 42, 50
10, 119658, Note_off_c, 9, 54, 52
10, 119664, Note_off_c, 9, 42, 50
10, 119712, Note_on_c, 9, 54, 31
10, 119770, Note_off_c, 9, 54, 31
10, 119806, Note_on_c, 9, 56, 52
10, 119808, Note_on_c, 9, 54, 61
10, 119808, Note_on_c, 9, 42, 119
10, 119808, Note_on_c, 9, 36, 101
10, 119814, Note_on_c, 9, 75, 52
10, 119824, Note_off_c, 9, 36, 101
10, 119868, Note_off_c, 9, 54, 61
10, 119910, Note_on_c, 9, 54, 23
10, 119920, Note_off_c, 9, 75, 52
10, 119920, Note_off_c, 9, 42, 119
10, 119936, Note_off_c, 9, 56, 52
10, 119966, Note_off_c, 9, 54, 23
10, 119998, Note_on_c, 9, 42, 71
10, 120004, Note_on_c, 9, 54, 17
10, 120046, Note_off_c, 9, 54, 17
10, 120048, Note_off_c, 9, 42, 71
10, 120096, Note_on_c, 9, 54, 49
10, 120154, Note_off_c, 9, 54, 49
10, 120190, Note_on_c, 9, 56, 52
10, 120192, Note_on_c, 9, 54, 78
10, 120192, Note_on_c, 9, 42, 111
10, 120192, Note_on_c, 9, 40, 91
10, 120192, Note_on_c, 9, 36, 101
10, 120198, Note_on_c, 9, 75, 52
10, 120208, Note_off_c, 9, 36, 101
10, 120250, Note_off_c, 9, 54, 78
10, 120284, Note_off_c, 9, 75, 52
10, 120284, Note_on_c, 9, 54, 43
10, 120298, Note_off_c, 9, 42, 111
10, 120310, Note_off_c, 9, 56, 52
10, 120340, Note_off_c, 9, 54, 43
10, 120382, Note_off_c, 9, 40, 91
10, 120382, Note_on_c, 9, 54, 26
10, 120382, Note_on_c, 9, 42, 58
10, 120424, Note_off_c, 9, 42, 58
10, 120428, Note_off_c, 9, 54, 26
10, 120478, Note_on_c, 9, 54, 46
10, 120480, Note_on_c, 9, 40, 91
10, 120540, Note_off_c, 9, 54, 46
10, 120574, Note_on_c, 9, 56, 52
10, 120574, Note_on_c, 9, 75, 52
10, 120574, Note_on_c, 9, 54, 31
10, 120576, Note_on_c, 9, 42, 110
10, 120576, Note_on_c, 9, 36, 101
10, 120592, Note_off_c, 9, 36, 101
10, 120628, Note_off_c, 9, 54, 31
10, 120652, Note_off_c, 9, 75, 52
10, 120664, Note_off_c, 9, 42, 110
10, 120668, Note_on_c, 9, 54, 49
10, 120670, Note_off_c, 9, 40, 91
10, 120708, Note_off_c, 9, 56, 52
10, 120730, Note_off_c, 9, 54, 49
10, 120764, Note_on_c, 9, 54, 34
10, 120768, Note_on_c, 9, 42, 94
10, 120806, Note_off_c, 9, 42, 94
10, 120808, Note_off_c, 9, 54, 34
10, 120862, Note_on_c, 9, 54, 43
10, 120920, Note_off_c, 9, 54, 43
10, 120956, Note_on_c, 9, 54, 58
10, 120958, Note_on_c, 9, 56, 52
10, 120958, Note_on_c, 9, 75, 52
10, 120960, Note_on_c, 9, 42, 110
10, 120960, Note_on_c, 9, 40, 91
10, 120960, Note_on_c, 9, 36, 101
10, 120976, Note_off_c, 9, 36, 101
10, 120984, Control_c, 9, 64, 127
10, 120992, Control_c, 9, 64, 0
10, 121010, Note_off_c, 9, 54, 58
10, 121026, Note_off_c, 9, 75, 52
10, 121054, Note_on_c, 9, 54, 37
10, 121064, Note_off_c, 9, 42, 110
10, 121080, Note_off_c, 9, 56, 52
10, 121116, Note_off_c, 9, 54, 37
10, 121150, Note_off_c, 9, 40, 91
10, 121150, Note_on_c, 9, 54, 52
10, 121152, Note_on_c, 9, 42, 59
10, 121152, Note_on_c, 9, 36, 71
10, 121168, Note_off_c, 9, 36, 71
10, 121186, Note_off_c, 9, 42, 59
10, 121194, Note_off_c, 9, 54, 52
10, 121248, Note_on_c, 9, 54, 31
10, 121248, Note_on_c, 9, 42, 82
10, 121248, Note_on_c, 9, 36, 91
10, 121264, Note_off_c, 9, 36, 91
10, 121282, Note_off_c, 9, 42, 82
10, 121306, Note_off_c, 9, 54, 31
10, 121344, Note_on_c, 9, 56, 52
10, 121344, Note_on_c, 9, 54, 61
10, 121344, Note_on_c, 9, 49, 72
10, 121344, Note_on_c, 9, 36, 101
10, 121350, Note_on_c, 9, 75, 52
10, 121360, Note_off_c, 9, 36, 101
10, 121400, Note_off_c, 9, 49, 72
10, 121404, Note_off_c, 9, 54, 61
10, 121436, Note_off_c, 9, 56, 52
10, 121446, Note_on_c, 9, 54, 23
10, 121456, Note_off_c, 9, 75, 52
10, 121502, Note_off_c, 9, 54, 23
10, 121536, Note_on_c, 9, 42, 50
10, 121540, Note_on_c, 9, 54, 17
10, 121582, Note_off_c, 9, 54, 17
10, 121614, Note_off_c, 9, 42, 50
10, 121632, Note_on_c, 9, 54, 49
10, 121632, Note_on_c, 9, 42, 85
10, 121690, Note_off_c, 9, 54, 49
10, 121710, Note_off_c, 9, 42, 85
10, 121728, Note_on_c, 9, 54, 78
10, 121728, Note_on_c, 9, 42, 110
10, 121728, Note_on_c, 9, 40, 91
10, 121728, Note_on_c, 9, 36, 101
10, 121730, Note_on_c, 9, 56, 52
10, 121734, Note_on_c, 9, 75, 52
10, 121744, Note_off_c, 9, 36, 101
10, 121786, Note_off_c, 9, 54, 78
10, 121806, Note_off_c, 9, 42, 110
10, 121820, Note_off_c, 9, 75, 52
10, 121820, Note_on_c, 9, 54, 45
10, 121850, Note_off_c, 9, 56, 52
10, 121876, Note_off_c, 9, 54, 45
10, 121912, Note_on_c, 9, 42, 46
10, 121918, Note_off_c, 9, 40, 91
10, 121918, Note_on_c, 9, 54, 26
10, 121954, Note_off_c, 9, 42, 46
10, 121964, Note_off_c, 9, 54, 26
10, 122014, Note_on_c, 9, 54, 52
10, 122016, Note_on_c, 9, 42, 91
10, 122058, Note_off_c, 9, 42, 91
10, 122076, Note_off_c, 9, 54, 52
10, 122108, Note_on_c, 9, 56, 52
10, 122110, Note_on_c, 9, 75, 52
10, 122110, Note_on_c, 9, 54, 31
10, 122112, Note_on_c, 9, 42, 108
10, 122112, Note_on_c, 9, 36, 101
10, 122128, Note_off_c, 9, 36, 101
10, 122164, Note_off_c, 9, 54, 31
10, 122188, Note_off_c, 9, 75, 52
10, 122190, Note_off_c, 9, 42, 108
10, 122204, Note_on_c, 9, 54, 49
10, 122236, Note_off_c, 9, 56, 52
10, 122266, Note_off_c, 9, 54, 49
10, 122296, Note_on_c, 9, 42, 62
10, 122300, Note_on_c, 9, 54, 34
10, 122344, Note_off_c, 9, 54, 34
10, 122346, Note_off_c, 9, 42, 62
10, 122398, Note_on_c, 9, 54, 43
10, 122400, Note_on_c, 9, 42, 91
10, 122442, Note_off_c, 9, 42, 91
10, 122456, Note_off_c, 9, 54, 43
10, 122492, Note_on_c, 9, 54, 58
10, 122494, Note_on_c, 9, 56, 52
10, 122494, Note_on_c, 9, 75, 52
10, 122496, Note_on_c, 9, 42, 111
10, 122496, Note_on_c, 9, 40, 91
10, 122496, Note_on_c, 9, 36, 101
10, 122512, Note_off_c, 9, 36, 101
10, 122546, Note_off_c, 9, 54, 58
10, 122562, Note_off_c, 9, 75, 52
10, 122590, Note_on_c, 9, 54, 37
10, 122612, Note_off_c, 9, 42, 111
10, 122652, Note_off_c, 9, 54, 37
10, 122666, Note_off_c, 9, 56, 52
10, 122686, Note_off_c, 9, 40, 91
10, 122686, Note_on_c, 9, 54, 52
10, 122688, Note_on_c, 9, 46, 94
10, 122730, Note_off_c, 9, 54, 52
10, 122736, Note_off_c, 9, 46, 94
10, 122784, Note_on_c, 9, 54, 31
10, 122842, Note_off_c, 9, 54, 31
10, 122878, Note_on_c, 9, 56, 52
10, 122880, Note_on_c, 9, 54, 61
10, 122880, Note_on_c, 9, 42, 119
10, 122880, Note_on_c, 9, 36, 101
10, 122886, Note_on_c, 9, 75, 52
10, 122896, Note_off_c, 9, 36, 101
10, 122940, Note_off_c, 9, 54, 61
10, 122982, Note_on_c, 9, 54, 23
10, 122992, Note_off_c, 9, 75, 52
10, 122992, Note_off_c, 9, 42, 119
10, 123008, Note_off_c, 9, 56, 52
10, 123038, Note_off_c, 9, 54, 23
10, 123072, Note_on_c, 9, 42, 50
10, 123076, Note_on_c, 9, 54, 17
10, 123118, Note_off_c, 9, 54, 17
10, 123150, Note_off_c, 9, 42, 50
10, 123168, Note_on_c, 9, 54, 49
10, 123168, Note_on_c, 9, 42, 85
10, 123226, Note_off_c, 9, 54, 49
10, 123246, Note_off_c, 9, 42, 85
10, 123262, Note_on_c, 9, 56, 52
10, 123264, Note_on_c, 9, 54, 78
10, 123264, Note_on_c, 9, 42, 110
10, 123264, Note_on_c, 9, 40, 91
10, 123264, Note_on_c, 9, 36, 101
10, 123270, Note_on_c, 9, 75, 52
10, 123280, Note_off_c, 9, 36, 101
10, 123322, Note_off_c, 9, 54, 78
10, 123342, Note_off_c, 9, 42, 110
10, 123356, Note_off_c, 9, 75, 52
10, 123356, Note_on_c, 9, 54, 43
10, 123382, Note_off_c, 9, 56, 52
10, 123412, Note_off_c, 9, 54, 43
10, 123448, Note_on_c, 9, 42, 46
10, 123454, Note_off_c, 9, 40, 91
10, 123454, Note_on_c, 9, 54, 26
10, 123490, Note_off_c, 9, 42, 46
10, 123500, Note_off_c, 9, 54, 26
10, 123550, Note_on_c, 9, 54, 46
10, 123552, Note_on_c, 9, 42, 91
10, 123552, Note_on_c, 9, 40, 91
10, 123594, Note_off_c, 9, 42, 91
10, 123612, Note_off_c, 9, 54, 46
10, 123646, Note_on_c, 9, 56, 52
10, 123646, Note_on_c, 9, 75, 52
10, 123646, Note_on_c, 9, 54, 31
10, 123648, Note_on_c, 9, 42, 108
10, 123648, Note_on_c, 9, 36, 101
10, 123664, Note_off_c, 9, 36, 101
10, 123700, Note_off_c, 9, 54, 31
10, 123724, Note_off_c, 9, 75, 52
10, 123726, Note_off_c, 9, 42, 108
10, 123740, Note_on_c, 9, 54, 49
10, 123742, Note_off_c, 9, 40, 91
10, 123780, Note_off_c, 9, 56, 52
10, 123802, Note_off_c, 9, 54, 49
10, 123832, Note_on_c, 9, 42, 62
10, 123836, Note_on_c, 9, 54, 34
10, 123880, Note_off_c, 9, 54, 34
10, 123882, Note_off_c, 9, 42, 62
10, 123934, Note_on_c, 9, 54, 43
10, 123936, Note_on_c, 9, 42, 91
10, 123978, Note_off_c, 9, 42, 91
10, 123992, Note_off_c, 9, 54, 43
10, 124028, Note_on_c, 9, 54, 58
10, 124030, Note_on_c, 9, 56, 52
10, 124030, Note_on_c, 9, 75, 52
10, 124032, Note_on_c, 9, 42, 110
10, 124032, Note_on_c, 9, 40, 91
10, 124032, Note_on_c, 9, 36, 101
10, 124048, Note_off_c, 9, 36, 101
10, 124056, Control_c, 9, 64, 127
10, 124064, Control_c, 9, 64, 0
10, 124082, Note_off_c, 9, 54, 58
10, 124098, Note_off_c, 9, 75, 52
10, 124126, Note_on_c, 9, 54, 37
10, 124136, Note_off_c, 9, 42, 110
10, 124152, Note_off_c, 9, 56, 52
10, 124188, Note_off_c, 9, 54, 37
10, 124222, Note_off_c, 9, 40, 91
10, 124222, Note_on_c, 9, 54, 52
10, 124224, Note_on_c, 9, 46, 91
10, 124224, Note_on_c, 9, 36, 65
10, 124240, Note_off_c, 9, 36, 65
10, 124258, Note_off_c, 9, 46, 91
10, 124266, Note_off_c, 9, 54, 52
10, 124320, Note_on_c, 9, 54, 31
10, 124320, Note_on_c, 9, 36, 83
10, 124336, Note_off_c, 9, 36, 83
10, 124378, Note_off_c, 9, 54, 31
10, 124416, Note_on_c, 9, 56, 52
10, 124416, Note_on_c, 9, 54, 61
10, 124416, Note_on_c, 9, 42, 119
10, 124416, Note_on_c, 9, 36, 101
10, 124422, Note_on_c, 9, 75, 52
10, 124432, Note_off_c, 9, 36, 101
10, 124476, Note_off_c, 9, 54, 61
10, 124494, Note_off_c, 9, 42, 119
10, 124508, Note_off_c, 9, 56, 52
10, 124518, Note_on_c, 9, 54, 23
10, 124528, Note_off_c, 9, 75, 52
10, 124574, Note_off_c, 9, 54, 23
10, 124600, Note_on_c, 9, 42, 46
10, 124612, Note_on_c, 9, 54, 17
10, 124642, Note_off_c, 9, 42, 46
10, 124654, Note_off_c, 9, 54, 17
10, 124704, Note_on_c, 9, 54, 49
10, 124704, Note_on_c, 9, 42, 85
10, 124746, Note_off_c, 9, 42, 85
10, 124762, Note_off_c, 9, 54, 49
10, 124800, Note_on_c, 9, 54, 78
10, 124800, Note_on_c, 9, 42, 110
10, 124800, Note_on_c, 9, 40, 91
10, 124800, Note_on_c, 9, 36, 101
10, 124802, Note_on_c, 9, 56, 52
10, 124806, Note_on_c, 9, 75, 52
10, 124816, Note_off_c, 9, 36, 101
10, 124816, Note_off_c, 9, 40, 91
10, 124858, Note_off_c, 9, 54, 78
10, 124878, Note_off_c, 9, 42, 110
10, 124892, Note_off_c, 9, 75, 52
10, 124892, Note_on_c, 9, 54, 45
10, 124922, Note_off_c, 9, 56, 52
10, 124948, Note_off_c, 9, 54, 45
10, 124984, Note_on_c, 9, 42, 65
10, 124990, Note_on_c, 9, 54, 26
10, 125026, Note_off_c, 9, 42, 65
10, 125036, Note_off_c, 9, 54, 26
10, 125042, Note_on_c, 9, 42, 50
10, 125084, Note_off_c, 9, 42, 50
10, 125086, Note_on_c, 9, 54, 52
10, 125116, Note_on_c, 9, 42, 44
10, 125148, Note_off_c, 9, 54, 52
10, 125158, Note_off_c, 9, 42, 44
10, 125180, Note_on_c, 9, 56, 52
10, 125182, Note_on_c, 9, 75, 52
10, 125182, Note_on_c, 9, 54, 31
10, 125184, Note_on_c, 9, 42, 108
10, 125184, Note_on_c, 9, 36, 101
10, 125200, Note_off_c, 9, 36, 101
10, 125236, Note_off_c, 9, 54, 31
10, 125260, Note_off_c, 9, 75, 52
10, 125262, Note_off_c, 9, 42, 108
10, 125276, Note_on_c, 9, 54, 49
10, 125280, Note_on_c, 9, 42, 74
10, 125308, Note_off_c, 9, 56, 52
10, 125338, Note_off_c, 9, 54, 49
10, 125358, Note_off_c, 9, 42, 74
10, 125368, Note_on_c, 9, 46, 91
10, 125372, Note_on_c, 9, 54, 34
10, 125416, Note_off_c, 9, 54, 34
10, 125418, Note_off_c, 9, 46, 91
10, 125470, Note_on_c, 9, 54, 43
10, 125528, Note_off_c, 9, 54, 43
10, 125564, Note_on_c, 9, 54, 58
10, 125566, Note_on_c, 9, 56, 52
10, 125566, Note_on_c, 9, 75, 52
10, 125568, Note_on_c, 9, 42, 111
10, 125568, Note_on_c, 9, 40, 91
10, 125568, Note_on_c, 9, 36, 101
10, 125584, Note_off_c, 9, 36, 101
10, 125584, Note_off_c, 9, 40, 91
10, 125618, Note_off_c, 9, 54, 58
10, 125634, Note_off_c, 9, 75, 52
10, 125646, Note_off_c, 9, 42, 111
10, 125662, Note_on_c, 9, 54, 37
10, 125664, Note_on_c, 9, 42, 56
10, 125696, Note_off_c, 9, 42, 56
10, 125724, Note_off_c, 9, 54, 37
10, 125738, Note_off_c, 9, 56, 52
10, 125758, Note_on_c, 9, 54, 52
10, 125760, Note_on_c, 9, 42, 62
10, 125760, Note_on_c, 9, 36, 74
10, 125776, Note_off_c, 9, 36, 74
10, 125792, Note_off_c, 9, 42, 62
10, 125802, Note_off_c, 9, 54, 52
10, 125856, Note_on_c, 9, 54, 31
10, 125856, Note_on_c, 9, 42, 85
10, 125856, Note_on_c, 9, 36, 83
10, 125872, Note_off_c, 9, 36, 83
10, 125888, Note_off_c, 9, 42, 85
10, 125914, Note_off_c, 9, 54, 31
10, 125950, Note_on_c, 9, 56, 52
10, 125952, Note_on_c, 9, 54, 61
10, 125952, Note_on_c, 9, 46, 105
10, 125952, Note_on_c, 9, 36, 101
10, 125958, Note_on_c, 9, 75, 52
10, 125968, Note_off_c, 9, 36, 101
10, 126012, Note_off_c, 9, 54, 61
10, 126054, Note_on_c, 9, 54, 23
10, 126064, Note_off_c, 9, 75, 52
10, 126064, Note_off_c, 9, 46, 105
10, 126080, Note_off_c, 9, 56, 52
10, 126110, Note_off_c, 9, 54, 23
10, 126144, Note_on_c, 9, 44, 56
10, 126144, Note_on_c, 9, 40, 72
10, 126144, Note_on_c, 9, 36, 83
10, 126148, Note_on_c, 9, 54, 17
10, 126160, Note_off_c, 9, 36, 83
10, 126160, Note_off_c, 9, 40, 72
10, 126182, Note_off_c, 9, 44, 56
10, 126190, Note_off_c, 9, 54, 17
10, 126240, Note_on_c, 9, 54, 49
10, 126240, Note_on_c, 9, 42, 85
10, 126278, Note_off_c, 9, 42, 85
10, 126298, Note_off_c, 9, 54, 49
10, 126334, Note_on_c, 9, 56, 52
10, 126336, Note_on_c, 9, 54, 78
10, 126336, Note_on_c, 9, 40, 84
10, 126336, Note_on_c, 9, 36, 101
10, 126342, Note_on_c, 9, 75, 52
10, 126352, Note_off_c, 9, 36, 101
10, 126352, Note_off_c, 9, 40, 84
10, 126394, Note_off_c, 9, 54, 78
10, 126428, Note_off_c, 9, 75, 52
10, 126428, Note_on_c, 9, 54, 43
10, 126432, Note_on_c, 9, 42, 97
10, 126454, Note_off_c, 9, 56, 52
10, 126474, Note_off_c, 9, 42, 97
10, 126484, Note_off_c, 9, 54, 43
10, 126526, Note_on_c, 9, 54, 26
10, 126528, Note_on_c, 9, 46, 100
10, 126528, Note_on_c, 9, 40, 91
10, 126528, Note_on_c, 9, 36, 101
10, 126544, Note_off_c, 9, 36, 101
10, 126544, Note_off_c, 9, 40, 91
10, 126566, Note_off_c, 9, 46, 100
10, 126572, Note_off_c, 9, 54, 26
10, 126622, Note_on_c, 9, 54, 46
10, 126684, Note_off_c, 9, 54, 46
10, 126718, Note_on_c, 9, 56, 52
10, 126718, Note_on_c, 9, 75, 52
10, 126718, Note_on_c, 9, 54, 31
10, 126720, Note_on_c, 9, 42, 88
10, 126720, Note_on_c, 9, 40, 101
10, 126736, Note_off_c, 9, 40, 101
10, 126758, Note_off_c, 9, 42, 88
10, 126772, Note_off_c, 9, 54, 31
10, 126796, Note_off_c, 9, 75, 52
10, 126812, Note_on_c, 9, 54, 49
10, 126812, Note_on_c, 9, 42, 76
10, 126850, Note_off_c, 9, 42, 76
10, 126852, Note_off_c, 9, 56, 52
10, 126864, Note_on_c, 9, 42, 76
10, 126874, Note_off_c, 9, 54, 49
10, 126902, Note_off_c, 9, 42, 76
10, 126908, Note_on_c, 9, 54, 34
10, 126912, Note_on_c, 9, 42, 85
10, 126912, Note_on_c, 9, 40, 93
10, 126928, Note_off_c, 9, 40, 93
10, 126950, Note_off_c, 9, 42, 85
10, 126952, Note_off_c, 9, 54, 34
10, 127004, Note_on_c, 9, 40, 78
10, 127006, Note_on_c, 9, 54, 43
10, 127008, Note_on_c, 9, 42, 85
10, 127020, Note_off_c, 9, 40, 78
10, 127050, Note_off_c, 9, 42, 85
10, 127064, Note_off_c, 9, 54, 43
10, 127100, Note_on_c, 9, 54, 58
10, 127102, Note_on_c, 9, 56, 52
10, 127102, Note_on_c, 9, 75, 52
10, 127102, Note_on_c, 9, 48, 73
10, 127104, Note_on_c, 9, 42, 74
10, 127104, Note_on_c, 9, 36, 101
10, 127120, Note_off_c, 9, 36, 101
10, 127128, Control_c, 9, 64, 127
10, 127136, Control_c, 9, 64, 0
10, 127146, Note_off_c, 9, 42, 74
10, 127154, Note_off_c, 9, 54, 58
10, 127170, Note_off_c, 9, 75, 52
10, 127198, Note_on_c, 9, 54, 37
10, 127200, Note_on_c, 9, 42, 85
10, 127200, Note_on_c, 9, 40, 58
10, 127216, Note_off_c, 9, 40, 58
10, 127224, Note_off_c, 9, 56, 52
10, 127242, Note_off_c, 9, 42, 85
10, 127260, Note_off_c, 9, 54, 37
10, 127282, Note_off_c, 9, 48, 73
10, 127290, Note_on_c, 9, 45, 69
10, 127294, Note_on_c, 9, 54, 52
10, 127296, Note_on_c, 9, 46, 103
10, 127296, Note_on_c, 9, 36, 74
10, 127312, Note_off_c, 9, 36, 74
10, 127338, Note_off_c, 9, 46, 103
10, 127338, Note_off_c, 9, 54, 52
10, 127392, Note_on_c, 9, 54, 31
10, 127392, Note_on_c, 9, 40, 64
10, 127392, Note_on_c, 9, 36, 83
10, 127408, Note_off_c, 9, 36, 83
10, 127408, Note_off_c, 9, 40, 64
10, 127438, Note_off_c, 9, 45, 69
10, 127450, Note_off_c, 9, 54, 31
10, 127488, Note_on_c, 9, 56, 52
10, 127488, Note_on_c, 9, 54, 61
10, 127488, Note_on_c, 9, 49, 72
10, 127488, Note_on_c, 9, 36, 101
10, 127494, Note_on_c, 9, 75, 52
10, 127504, Note_off_c, 9, 36, 101
10, 127544, Note_off_c, 9, 49, 72
10, 127548, Note_off_c, 9, 54, 61
10, 127580, Note_off_c, 9, 56, 52
10, 127590, Note_on_c, 9, 54, 23
10, 127600, Note_off_c, 9, 75, 52
10, 127646, Note_off_c, 9, 54, 23
10, 127684, Note_on_c, 9, 54, 17
10, 127726, Note_off_c, 9, 54, 17
10, 127776, Note_on_c, 9, 54, 49
10, 127834, Note_off_c, 9, 54, 49
10, 127872, Note_on_c, 9, 54, 78
10, 127872, Note_on_c, 9, 42, 110
10, 127872, Note_on_c, 9, 40, 91
10, 127872, Note_on_c, 9, 36, 101
10, 127874, Note_on_c, 9, 56, 52
10, 127878, Note_on_c, 9, 75, 52
10, 127888, Note_off_c, 9, 36, 101
10, 127930, Note_off_c, 9, 54, 78
10, 127950, Note_off_c, 9, 42, 110
10, 127964, Note_off_c, 9, 75, 52
10, 127964, Note_on_c, 9, 54, 45
10, 127994, Note_off_c, 9, 56, 52
10, 128020, Note_off_c, 9, 54, 45
10, 128056, Note_on_c, 9, 42, 46
10, 128062, Note_off_c, 9, 40, 91
10, 128062, Note_on_c, 9, 54, 26
10, 128098, Note_off_c, 9, 42, 46
10, 128108, Note_off_c, 9, 54, 26
10, 128158, Note_on_c, 9, 54, 52
10, 128160, Note_on_c, 9, 40, 91
10, 128220, Note_off_c, 9, 54, 52
10, 128252, Note_on_c, 9, 56, 52
10, 128254, Note_on_c, 9, 75, 52
10, 128254, Note_on_c, 9, 54, 31
10, 128256, Note_on_c, 9, 42, 108
10, 128256, Note_on_c, 9, 36, 101
10, 128272, Note_off_c, 9, 36, 101
10, 128308, Note_off_c, 9, 54, 31
10, 128332, Note_off_c, 9, 75, 52
10, 128334, Note_off_c, 9, 42, 108
10, 128348, Note_on_c, 9, 54, 49
10, 128350, Note_off_c, 9, 40, 91
10, 128380, Note_off_c, 9, 56, 52
10, 128410, Note_off_c, 9, 54, 49
10, 128440, Note_on_c, 9, 42, 42
10, 128444, Note_on_c, 9, 54, 34
10, 128488, Note_off_c, 9, 54, 34
10, 128490, Note_off_c, 9, 42, 42
10, 128542, Note_on_c, 9, 54, 43
10, 128600, Note_off_c, 9, 54, 43
10, 128636, Note_on_c, 9, 54, 58
10, 128638, Note_on_c, 9, 56, 52
10, 128638, Note_on_c, 9, 75, 52
10, 128640, Note_on_c, 9, 42, 111
10, 128640, Note_on_c, 9, 40, 91
10, 128640, Note_on_c, 9, 36, 101
10, 128656, Note_off_c, 9, 36, 101
10, 128690, Note_off_c, 9, 54, 58
10, 128706, Note_off_c, 9, 75, 52
10, 128734, Note_on_c, 9, 54, 37
10, 128756, Note_off_c, 9, 42, 111
10, 128796, Note_off_c, 9, 54, 37
10, 128810, Note_off_c, 9, 56, 52
10, 128830, Note_off_c, 9, 40, 91
10, 128830, Note_on_c, 9, 54, 52
10, 128832, Note_on_c, 9, 46, 94
10, 128874, Note_off_c, 9, 54, 52
10, 128880, Note_off_c, 9, 46, 94
10, 128928, Note_on_c, 9, 54, 31
10, 128986, Note_off_c, 9, 54, 31
10, 129022, Note_on_c, 9, 56, 52
10, 129024, Note_on_c, 9, 54, 61
10, 129024, Note_on_c, 9, 42, 119
10, 129024, Note_on_c, 9, 36, 101
10, 129030, Note_on_c, 9, 75, 52
10, 129040, Note_off_c, 9, 36, 101
10, 129084, Note_off_c, 9, 54, 61
10, 129126, Note_on_c, 9, 54, 23
10, 129136, Note_off_c, 9, 75, 52
10, 129136, Note_off_c, 9, 42, 119
10, 129152, Note_off_c, 9, 56, 52
10, 129182, Note_off_c, 9, 54, 23
10, 129214, Note_on_c, 9, 42, 54
10, 129220, Note_on_c, 9, 54, 17
10, 129262, Note_off_c, 9, 54, 17
10, 129264, Note_off_c, 9, 42, 54
10, 129312, Note_on_c, 9, 54, 49
10, 129312, Note_on_c, 9, 42, 44
10, 129362, Note_off_c, 9, 42, 44
10, 129370, Note_off_c, 9, 54, 49
10, 129406, Note_on_c, 9, 56, 52
10, 129408, Note_on_c, 9, 54, 78
10, 129408, Note_on_c, 9, 42, 111
10, 129408, Note_on_c, 9, 40, 91
10, 129408, Note_on_c, 9, 36, 101
10, 129414, Note_on_c, 9, 75, 52
10, 129424, Note_off_c, 9, 36, 101
10, 129466, Note_off_c, 9, 54, 78
10, 129500, Note_off_c, 9, 75, 52
10, 129500, Note_on_c, 9, 54, 43
10, 129514, Note_off_c, 9, 42, 111
10, 129526, Note_off_c, 9, 56, 52
10, 129556, Note_off_c, 9, 54, 43
10, 129598, Note_off_c, 9, 40, 91
10, 129598, Note_on_c, 9, 54, 26
10, 129598, Note_on_c, 9, 42, 58
10, 129640, Note_off_c, 9, 42, 58
10, 129644, Note_off_c, 9, 54, 26
10, 129694, Note_on_c, 9, 54, 46
10, 129696, Note_on_c, 9, 40, 91
10, 129756, Note_off_c, 9, 54, 46
10, 129790, Note_on_c, 9, 56, 52
10, 129790, Note_on_c, 9, 75, 52
10, 129790, Note_on_c, 9, 54, 31
10, 129792, Note_on_c, 9, 42, 110
10, 129792, Note_on_c, 9, 36, 101
10, 129808, Note_off_c, 9, 36, 101
10, 129844, Note_off_c, 9, 54, 31
10, 129868, Note_off_c, 9, 75, 52
10, 129880, Note_off_c, 9, 42, 110
10, 129884, Note_on_c, 9, 54, 49
10, 129886, Note_off_c, 9, 40, 91
10, 129924, Note_off_c, 9, 56, 52
10, 129946, Note_off_c, 9, 54, 49
10, 129976, Note_on_c, 9, 42, 70
10, 129980, Note_on_c, 9, 54, 34
10, 130014, Note_off_c, 9, 42, 70
10, 130024, Note_off_c, 9, 54, 34
10, 130078, Note_on_c, 9, 54, 43
10, 130136, Note_off_c, 9, 54, 43
10, 130172, Note_on_c, 9, 54, 58
10, 130174, Note_on_c, 9, 56, 52
10, 130174, Note_on_c, 9, 75, 52
10, 130176, Note_on_c, 9, 42, 110
10, 130176, Note_on_c, 9, 40, 91
10, 130176, Note_on_c, 9, 36, 101
10, 130192, Note_off_c, 9, 36, 101
10, 130200, Control_c, 9, 64, 127
10, 130208, Control_c, 9, 64, 0
10, 130226, Note_off_c, 9, 54, 58
10, 130242, Note_off_c, 9, 75, 52
10, 130270, Note_on_c, 9, 54, 37
10, 130280, Note_off_c, 9, 42, 110
10, 130296, Note_off_c, 9, 56, 52
10, 130332, Note_off_c, 9, 54, 37
10, 130366, Note_off_c, 9, 40, 91
10, 130366, Note_on_c, 9, 54, 52
10, 130368, Note_on_c, 9, 42, 91
10, 130402, Note_off_c, 9, 42, 91
10, 130410, Note_off_c, 9, 54, 52
10, 130464, Note_on_c, 9, 54, 31
10, 130522, Note_off_c, 9, 54, 31
10, 130560, Note_on_c, 9, 56, 52
10, 130560, Note_on_c, 9, 54, 61
10, 130560, Note_on_c, 9, 42, 119
10, 130560, Note_on_c, 9, 36, 101
10, 130566, Note_on_c, 9, 75, 52
10, 130576, Note_off_c, 9, 36, 101
10, 130620, Note_off_c, 9, 54, 61
10, 130652, Note_off_c, 9, 56, 52
10, 130662, Note_on_c, 9, 54, 23
10, 130672, Note_off_c, 9, 75, 52
10, 130672, Note_off_c, 9, 42, 119
10, 130718, Note_off_c, 9, 54, 23
10, 130750, Note_on_c, 9, 42, 54
10, 130756, Note_on_c, 9, 54, 17
10, 130798, Note_off_c, 9, 54, 17
10, 130800, Note_off_c, 9, 42, 54
10, 130848, Note_on_c, 9, 54, 49
10, 130906, Note_off_c, 9, 54, 49
10, 130944, Note_on_c, 9, 54, 78
10, 130944, Note_on_c, 9, 42, 110
10, 130944, Note_on_c, 9, 40, 91
10, 130944, Note_on_c, 9, 36, 101
10, 130946, Note_on_c, 9, 56, 52
10, 130950, Note_on_c, 9, 75, 52
10, 130960, Note_off_c, 9, 36, 101
10, 131002, Note_off_c, 9, 54, 78
10, 131022, Note_off_c, 9, 42, 110
10, 131036, Note_off_c, 9, 75, 52
10, 131036, Note_on_c, 9, 54, 45
10, 131066, Note_off_c, 9, 56, 52
10, 131092, Note_off_c, 9, 54, 45
10, 131128, Note_on_c, 9, 42, 46
10, 131134, Note_off_c, 9, 40, 91
10, 131134, Note_on_c, 9, 54, 26
10, 131170, Note_off_c, 9, 42, 46
10, 131180, Note_off_c, 9, 54, 26
10, 131228, Note_on_c, 9, 42, 65
10, 131230, Note_on_c, 9, 54, 52
10, 131232, Note_on_c, 9, 40, 91
10, 131278, Note_off_c, 9, 42, 65
10, 131292, Note_off_c, 9, 54, 52
10, 131324, Note_on_c, 9, 56, 52
10, 131326, Note_on_c, 9, 75, 52
10, 131326, Note_on_c, 9, 54, 31
10, 131328, Note_on_c, 9, 42, 108
10, 131328, Note_on_c, 9, 36, 101
10, 131344, Note_off_c, 9, 36, 101
10, 131380, Note_off_c, 9, 54, 31
10, 131404, Note_off_c, 9, 75, 52
10, 131406, Note_off_c, 9, 42, 108
10, 131420, Note_on_c, 9, 54, 49
10, 131422, Note_off_c, 9, 40, 91
10, 131452, Note_off_c, 9, 56, 52
10, 131482, Note_off_c, 9, 54, 49
10, 131512, Note_on_c, 9, 42, 42
10, 131516, Note_on_c, 9, 54, 34
10, 131560, Note_off_c, 9, 54, 34
10, 131562, Note_off_c, 9, 42, 42
10, 131614, Note_on_c, 9, 54, 43
10, 131672, Note_off_c, 9, 54, 43
10, 131708, Note_on_c, 9, 54, 58
10, 131710, Note_on_c, 9, 56, 52
10, 131710, Note_on_c, 9, 75, 52
10, 131712, Note_on_c, 9, 42, 111
10, 131712, Note_on_c, 9, 40, 91
10, 131712, Note_on_c, 9, 36, 101
10, 131728, Note_off_c, 9, 36, 101
10, 131762, Note_off_c, 9, 54, 58
10, 131778, Note_off_c, 9, 75, 52
10, 131780, Note_off_c, 9, 42, 111
10, 131806, Note_on_c, 9, 54, 37
10, 131808, Note_on_c, 9, 42, 94
10, 131808, Note_on_c, 9, 36, 65
10, 131824, Note_off_c, 9, 36, 65
10, 131856, Note_off_c, 9, 42, 94
10, 131868, Note_off_c, 9, 54, 37
10, 131882, Note_off_c, 9, 56, 52
10, 131902, Note_off_c, 9, 40, 91
10, 131902, Note_on_c, 9, 54, 52
10, 131904, Note_on_c, 9, 46, 91
10, 131904, Note_on_c, 9, 36, 83
10, 131920, Note_off_c, 9, 36, 83
10, 131946, Note_off_c, 9, 54, 52
10, 131952, Note_off_c, 9, 46, 91
10, 132000, Note_on_c, 9, 54, 31
10, 132058, Note_off_c, 9, 54, 31
10, 132094, Note_on_c, 9, 56, 52
10, 132096, Note_on_c, 9, 54, 61
10, 132096, Note_on_c, 9, 42, 119
10, 132096, Note_on_c, 9, 36, 101
10, 132102, Note_on_c, 9, 75, 52
10, 132112, Note_off_c, 9, 36, 101
10, 132156, Note_off_c, 9, 54, 61
10, 132198, Note_on_c, 9, 54, 23
10, 132208, Note_off_c, 9, 75, 52
10, 132208, Note_off_c, 9, 42, 119
10, 132224, Note_off_c, 9, 56, 52
10, 132254, Note_off_c, 9, 54, 23
10, 132286, Note_on_c, 9, 42, 54
10, 132292, Note_on_c, 9, 54, 17
10, 132334, Note_off_c, 9, 54, 17
10, 132336, Note_off_c, 9, 42, 54
10, 132384, Note_on_c, 9, 54, 49
10, 132442, Note_off_c, 9, 54, 49
10, 132478, Note_on_c, 9, 56, 52
10, 132480, Note_on_c, 9, 54, 78
10, 132480, Note_on_c, 9, 42, 111
10, 132480, Note_on_c, 9, 40, 91
10, 132480, Note_on_c, 9, 36, 101
10, 132486, Note_on_c, 9, 75, 52
10, 132496, Note_off_c, 9, 36, 101
10, 132538, Note_off_c, 9, 54, 78
10, 132572, Note_off_c, 9, 75, 52
10, 132572, Note_on_c, 9, 54, 43
10, 132586, Note_off_c, 9, 42, 111
10, 132598, Note_off_c, 9, 56, 52
10, 132628, Note_off_c, 9, 54, 43
10, 132670, Note_off_c, 9, 40, 91
10, 132670, Note_on_c, 9, 54, 26
10, 132670, Note_on_c, 9, 42, 58
10, 132672, Note_on_c, 9, 36, 91
10, 132688, Note_off_c, 9, 36, 91
10, 132712, Note_off_c, 9, 42, 58
10, 132716, Note_off_c, 9, 54, 26
10, 132766, Note_on_c, 9, 54, 46
10, 132828, Note_off_c, 9, 54, 46
10, 132862, Note_on_c, 9, 56, 52
10, 132862, Note_on_c, 9, 75, 52
10, 132862, Note_on_c, 9, 54, 69
10, 132864, Note_on_c, 9, 42, 110
10, 132864, Note_on_c, 9, 36, 101
10, 132880, Note_off_c, 9, 36, 101
10, 132912, Note_on_c, 9, 54, 43
10, 132916, Note_off_c, 9, 54, 43
10, 132940, Note_off_c, 9, 75, 52
10, 132952, Note_off_c, 9, 42, 110
10, 132960, Note_on_c, 9, 54, 26
10, 132962, Note_off_c, 9, 54, 26
10, 132962, Note_off_c, 9, 54, 1
10, 132996, Note_off_c, 9, 56, 52
10, 133008, Note_on_c, 9, 54, 26
10, 133024, Note_off_c, 9, 54, 26
10, 133048, Note_on_c, 9, 42, 70
10, 133056, Note_on_c, 9, 54, 26
10, 133056, Note_on_c, 9, 40, 93
10, 133072, Note_off_c, 9, 54, 26
10, 133086, Note_off_c, 9, 42, 70
10, 133104, Note_on_c, 9, 54, 31
10, 133120, Note_off_c, 9, 54, 31
10, 133152, Note_on_c, 9, 54, 37
10, 133152, Note_on_c, 9, 42, 79
10, 133168, Note_off_c, 9, 54, 37
10, 133190, Note_off_c, 9, 42, 79
10, 133200, Note_on_c, 9, 54, 46
10, 133216, Note_off_c, 9, 54, 46
10, 133246, Note_off_c, 9, 40, 93
10, 133246, Note_on_c, 9, 56, 52
10, 133246, Note_on_c, 9, 75, 52
10, 133248, Note_on_c, 9, 54, 55
10, 133248, Note_on_c, 9, 42, 110
10, 133248, Note_on_c, 9, 40, 91
10, 133248, Note_on_c, 9, 36, 101
10, 133264, Note_off_c, 9, 36, 101
10, 133264, Note_off_c, 9, 54, 55
10, 133272, Control_c, 9, 64, 127
10, 133280, Control_c, 9, 64, 0
10, 133296, Note_on_c, 9, 54, 55
10, 133308, Note_off_c, 9, 40, 91
10, 133312, Note_off_c, 9, 54, 55
10, 133312, Note_off_c, 9, 42, 110
10, 133314, Note_off_c, 9, 75, 52
10, 133344, Note_on_c, 9, 54, 58
10, 133344, Note_on_c, 9, 42, 103
10, 133344, Note_on_c, 9, 40, 84
10, 133360, Note_off_c, 9, 54, 58
10, 133368, Note_off_c, 9, 56, 52
10, 133378, Note_off_c, 9, 42, 103
10, 133392, Note_on_c, 9, 54, 58
10, 133404, Note_off_c, 9, 40, 84
10, 133408, Note_off_c, 9, 54, 58
10, 133434, Note_on_c, 9, 45, 75
10, 133440, Note_on_c, 9, 54, 61
10, 133440, Note_on_c, 9, 42, 91
10, 133440, Note_on_c, 9, 36, 53
10, 133456, Note_off_c, 9, 36, 53
10, 133456, Note_off_c, 9, 54, 61
10, 133474, Note_off_c, 9, 42, 91
10, 133488, Note_on_c, 9, 54, 66
10, 133504, Note_off_c, 9, 54, 66
10, 133512, Note_off_c, 9, 45, 75
10, 133536, Note_on_c, 9, 54, 75
10, 133536, Note_on_c, 9, 42, 103
10, 133536, Note_on_c, 9, 36, 83
10, 133552, Note_off_c, 9, 36, 83
10, 133552, Note_off_c, 9, 54, 75
10, 133570, Note_off_c, 9, 42, 103
10, 133584, Note_on_c, 9, 54, 78
10, 133600, Note_off_c, 9, 54, 78
10, 133632, Note_on_c, 9, 49, 72
10, 133632, Note_on_c, 9, 36, 101
10, 133648, Note_off_c, 9, 36, 101
10, 133688, Note_off_c, 9, 49, 72
10, 133824, Note_on_c, 9, 42, 49
10, 133848, Note_off_c, 9, 42, 49
10, 133922, Note_on_c, 9, 42, 78
10, 133946, Note_off_c, 9, 42, 78
10, 134016, Note_on_c, 9, 46, 93
10, 134016, Note_on_c, 9, 36, 101
10, 134032, Note_off_c, 9, 36, 101
10, 134040, Note_off_c, 9, 46, 93
10, 134144, Note_on_c, 9, 44, 5
10, 134168, Note_off_c, 9, 44, 5
10, 134208, Note_on_c, 9, 42, 49
10, 134232, Note_off_c, 9, 42, 49
10, 134306, Note_on_c, 9, 42, 84
10, 134330, Note_off_c, 9, 42, 84
10, 134400, Note_on_c, 9, 46, 90
10, 134400, Note_on_c, 9, 36, 101
10, 134416, Note_off_c, 9, 36, 101
10, 134424, Note_off_c, 9, 46, 90
10, 134528, Note_on_c, 9, 44, 5
10, 134552, Note_off_c, 9, 44, 5
10, 134592, Note_on_c, 9, 42, 49
10, 134616, Note_off_c, 9, 42, 49
10, 134690, Note_on_c, 9, 42, 78
10, 134714, Note_off_c, 9, 42, 78
10, 134784, Note_on_c, 9, 46, 90
10, 134784, Note_on_c, 9, 36, 101
10, 134800, Note_off_c, 9, 36, 101
10, 134808, Note_off_c, 9, 46, 90
10, 134912, Note_on_c, 9, 44, 5
10, 134936, Note_off_c, 9, 44, 5
10, 134976, Note_on_c, 9, 42, 46
10, 135000, Note_off_c, 9, 42, 46
10, 135074, Note_on_c, 9, 42, 84
10, 135098, Note_off_c, 9, 42, 84
10, 135168, Note_on_c, 9, 46, 90
10, 135168, Note_on_c, 9, 36, 101
10, 135184, Note_off_c, 9, 36, 101
10, 135192, Note_off_c, 9, 46, 90
10, 135296, Note_on_c, 9, 44, 5
10, 135320, Note_off_c, 9, 44, 5
10, 135360, Note_on_c, 9, 42, 49
10, 135384, Note_off_c, 9, 42, 49
10, 135458, Note_on_c, 9, 42, 78
10, 135482, Note_off_c, 9, 42, 78
10, 135552, Note_on_c, 9, 46, 93
10, 135552, Note_on_c, 9, 36, 101
10, 135568, Note_off_c, 9, 36, 101
10, 135576, Note_off_c, 9, 46, 93
10, 135680, Note_on_c, 9, 44, 5
10, 135704, Note_off_c, 9, 44, 5
10, 135744, Note_on_c, 9, 42, 49
10, 135768, Note_off_c, 9, 42, 49
10, 135842, Note_on_c, 9, 42, 84
10, 135866, Note_off_c, 9, 42, 84
10, 135936, Note_on_c, 9, 46, 90
10, 135936, Note_on_c, 9, 36, 101
10, 135952, Note_off_c, 9, 36, 101
10, 135960, Note_off_c, 9, 46, 90
10, 136064, Note_on_c, 9, 44, 5
10, 136088, Note_off_c, 9, 44, 5
10, 136128, Note_on_c, 9, 42, 49
10, 136152, Note_off_c, 9, 42, 49
10, 136226, Note_on_c, 9, 42, 78
10, 136250, Note_off_c, 9, 42, 78
10, 136320, Note_on_c, 9, 46, 90
10, 136320, Note_on_c, 9, 36, 101
10, 136336, Note_off_c, 9, 36, 101
10, 136344, Note_off_c, 9, 46, 90
10, 136448, Note_on_c, 9, 44, 5
10, 136472, Note_off_c, 9, 44, 5
10, 136512, Note_on_c, 9, 42, 46
10, 136536, Note_off_c, 9, 42, 46
10, 136610, Note_on_c, 9, 42, 84
10, 136634, Note_off_c, 9, 42, 84
10, 136704, Note_on_c, 9, 46, 90
10, 136704, Note_on_c, 9, 36, 101
10, 136720, Note_off_c, 9, 36, 101
10, 136728, Note_off_c, 9, 46, 90
10, 136832, Note_on_c, 9, 44, 5
10, 136856, Note_off_c, 9, 44, 5
10, 136896, Note_on_c, 9, 42, 49
10, 136920, Note_off_c, 9, 42, 49
10, 136994, Note_on_c, 9, 42, 78
10, 137018, Note_off_c, 9, 42, 78
10, 137088, Note_on_c, 9, 46, 93
10, 137088, Note_on_c, 9, 36, 101
10, 137104, Note_off_c, 9, 36, 101
10, 137112, Note_off_c, 9, 46, 93
10, 137216, Note_on_c, 9, 44, 5
10, 137240, Note_off_c, 9, 44, 5
10, 137280, Note_on_c, 9, 42, 49
10, 137304, Note_off_c, 9, 42, 49
10, 137378, Note_on_c, 9, 42, 84
10, 137402, Note_off_c, 9, 42, 84
10, 137472, Note_on_c, 9, 46, 90
10, 137472, Note_on_c, 9, 36, 101
10, 137488, Note_off_c, 9, 36, 101
10, 137496, Note_off_c, 9, 46, 90
10, 137600, Note_on_c, 9, 44, 5
10, 137624, Note_off_c, 9, 44, 5
10, 137664, Note_on_c, 9, 42, 49
10, 137688, Note_off_c, 9, 42, 49
10, 137762, Note_on_c, 9, 42, 78
10, 137786, Note_off_c, 9, 42, 78
10, 137856, Note_on_c, 9, 46, 90
10, 137856, Note_on_c, 9, 36, 101
10, 137872, Note_off_c, 9, 36, 101
10, 137880, Note_off_c, 9, 46, 90
10, 137984, Note_on_c, 9, 44, 5
10, 138008, Note_off_c, 9, 44, 5
10, 138048, Note_on_c, 9, 42, 46
10, 138072, Note_off_c, 9, 42, 46
10, 138146, Note_on_c, 9, 42, 84
10, 138170, Note_off_c, 9, 42, 84
10, 138240, Note_on_c, 9, 46, 90
10, 138240, Note_on_c, 9, 36, 101
10, 138256, Note_off_c, 9, 36, 101
10, 138264, Note_off_c, 9, 46, 90
10, 138368, Note_on_c, 9, 44, 5
10, 138392, Note_off_c, 9, 44, 5
10, 138432, Note_on_c, 9, 42, 49
10, 138456, Note_off_c, 9, 42, 49
10, 138530, Note_on_c, 9, 42, 78
10, 138554, Note_off_c, 9, 42, 78
10, 138624, Note_on_c, 9, 46, 93
10, 138624, Note_on_c, 9, 36, 101
10, 138640, Note_off_c, 9, 36, 101
10, 138648, Note_off_c, 9, 46, 93
10, 138752, Note_on_c, 9, 44, 5
10, 138776, Note_off_c, 9, 44, 5
10, 138816, Note_on_c, 9, 85, 81
10, 138816, Note_on_c, 9, 42, 49
10, 138840, Note_off_c, 9, 42, 49
10, 138864, Note_off_c, 9, 85, 81
10, 138914, Note_on_c, 9, 42, 84
10, 138938, Note_off_c, 9, 42, 84
10, 139008, Note_on_c, 9, 46, 90
10, 139008, Note_on_c, 9, 36, 101
10, 139024, Note_off_c, 9, 36, 101
10, 139032, Note_off_c, 9, 46, 90
10, 139136, Note_on_c, 9, 44, 5
10, 139160, Note_off_c, 9, 44, 5
10, 139200, Note_on_c, 9, 42, 49
10, 139214, Note_on_c, 9, 85, 40
10, 139224, Note_off_c, 9, 42, 49
10, 139260, Note_off_c, 9, 85, 40
10, 139268, Note_on_c, 9, 85, 64
10, 139298, Note_on_c, 9, 42, 78
10, 139318, Note_off_c, 9, 85, 64
10, 139322, Note_off_c, 9, 42, 78
10, 139330, Note_on_c, 9, 85, 81
10, 139378, Note_off_c, 9, 85, 81
10, 139388, Note_on_c, 9, 85, 110
10, 139392, Note_on_c, 9, 46, 90
10, 139392, Note_on_c, 9, 36, 101
10, 139408, Note_off_c, 9, 36, 101
10, 139416, Note_off_c, 9, 46, 90
10, 139520, Note_on_c, 9, 44, 5
10, 139544, Note_off_c, 9, 44, 5
10, 139578, Note_off_c, 9, 85, 110
10, 139584, Note_on_c, 9, 42, 46
10, 146560, Note_off_c, 9, 42, 1
10, 180014, Control_c, 9, 11, 126
10, 180182, Control_c, 9, 11, 125
10, 180310, Control_c, 9, 11, 124
10, 180456, Control_c, 9, 11, 123
10, 180678, Control_c, 9, 11, 122
10, 180814, Control_c, 9, 11, 121
10, 180960, Control_c, 9, 11, 120
10, 181068, Control_c, 9, 11, 119
10, 181188, Control_c, 9, 11, 118
10, 181310, Control_c, 9, 11, 117
10, 181410, Control_c, 9, 11, 116
10, 181542, Control_c, 9, 11, 115
10, 181656, Control_c, 9, 11, 114
10, 181736, Control_c, 9, 11, 113
10, 181834, Control_c, 9, 11, 112
10, 181988, Control_c, 9, 11, 111
10, 182126, Control_c, 9, 11, 110
10, 182226, Control_c, 9, 11, 109
10, 182346, Control_c, 9, 11, 108
10, 182560, Control_c, 9, 11, 107
10, 182708, Control_c, 9, 11, 106
10, 182822, Control_c, 9, 11, 105
10, 182908, Control_c, 9, 11, 104
10, 183026, Control_c, 9, 11, 103
10, 183110, Control_c, 9, 11, 102
10, 183206, Control_c, 9, 11, 101
10, 183350, Control_c, 9, 11, 100
10, 183504, Control_c, 9, 11, 99
10, 183734, Control_c, 9, 11, 98
10, 183950, Control_c, 9, 11, 97
10, 184142, Control_c, 9, 11, 96
10, 184352, Control_c, 9, 11, 95
10, 184450, Control_c, 9, 11, 94
10, 184566, Control_c, 9, 11, 93
10, 184718, Control_c, 9, 11, 92
10, 184844, Control_c, 9, 11, 91
10, 185022, Control_c, 9, 11, 90
10, 185148, Control_c, 9, 11, 89
10, 185240, Control_c, 9, 11, 88
10, 185362, Control_c, 9, 11, 87
10, 185494, Control_c, 9, 11, 86
10, 185582, Control_c, 9, 11, 85
10, 185700, Control_c, 9, 11, 84
10, 185786, Control_c, 9, 11, 83
10, 185868, Control_c, 9, 11, 82
10, 186004, Control_c, 9, 11, 81
10, 186108, Control_c, 9, 11, 80
10, 186182, Control_c, 9, 11, 79
10, 186258, Control_c, 9, 11, 78
10, 186346, Control_c, 9, 11, 77
10, 186472, Control_c, 9, 11, 76
10, 186556, Control_c, 9, 11, 75
10, 186660, Control_c, 9, 11, 74
10, 186732, Control_c, 9, 11, 73
10, 186840, Control_c, 9, 11, 72
10, 186930, Control_c, 9, 11, 71
10, 187014, Control_c, 9, 11, 70
10, 187116, Control_c, 9, 11, 69
10, 187204, Control_c, 9, 11, 68
10, 187304, Control_c, 9, 11, 67
10, 187374, Control_c, 9, 11, 66
10, 187458, Control_c, 9, 11, 65
10, 187578, Control_c, 9, 11, 64
10, 187662, Control_c, 9, 11, 63
10, 187770, Control_c, 9, 11, 62
10, 187856, Control_c, 9, 11, 61
10, 187950, Control_c, 9, 11, 60
10, 188090, Control_c, 9, 11, 59
10, 188234, Control_c, 9, 11, 58
10, 188372, Control_c, 9, 11, 57
10, 188488, Control_c, 9, 11, 56
10, 188610, Control_c, 9, 11, 55
10, 188732, Control_c, 9, 11, 54
10, 188826, Control_c, 9, 11, 53
10, 188940, Control_c, 9, 11, 52
10, 189010, Control_c, 9, 11, 51
10, 189128, Control_c, 9, 11, 50
10, 189242, Control_c, 9, 11, 49
10, 189380, Control_c, 9, 11, 48
10, 189476, Control_c, 9, 11, 47
10, 189590, Control_c, 9, 11, 46
10, 189654, Control_c, 9, 11, 45
10, 189766, Control_c, 9, 11, 44
10, 189898, Control_c, 9, 11, 43
10, 190002, Control_c, 9, 11, 42
10, 190118, Control_c, 9, 11, 41
10, 190236, Control_c, 9, 11, 40
10, 190332, Control_c, 9, 11, 39
10, 190444, Control_c, 9, 11, 38
10, 190534, Control_c, 9, 11, 37
10, 190644, Control_c, 9, 11, 36
10, 190750, Control_c, 9, 11, 35
10, 190856, Control_c, 9, 11, 34
10, 190942, Control_c, 9, 11, 33
10, 191058, Control_c, 9, 11, 32
10, 191160, Control_c, 9, 11, 31
10, 191246, Control_c, 9, 11, 30
10, 191374, Control_c, 9, 11, 29
10, 191570, Control_c, 9, 11, 28
10, 191680, Control_c, 9, 11, 27
10, 191782, Control_c, 9, 11, 26
10, 191934, Control_c, 9, 11, 25
10, 192070, Control_c, 9, 11, 24
10, 192170, Control_c, 9, 11, 23
10, 192290, Control_c, 9, 11, 22
10, 192484, Control_c, 9, 11, 21
10, 192622, Control_c, 9, 11, 20
10, 192766, Control_c, 9, 11, 19
10, 192884, Control_c, 9, 11, 18
10, 193030, Control_c, 9, 11, 17
10, 193118, Control_c, 9, 11, 16
10, 193302, Control_c, 9, 11, 15
10, 193360, Control_c, 9, 11, 14
10, 193450, Control_c, 9, 11, 13
10, 193534, Control_c, 9, 11, 12
10, 193648, Control_c, 9, 11, 11
10, 193728, Control_c, 9, 11, 10
10, 193798, Control_c, 9, 11, 9
10, 193874, Control_c, 9, 11, 8
10, 193944, Control_c, 9, 11, 7
10, 194030, Control_c, 9, 11, 6
10, 194082, Control_c, 9, 11, 5
10, 194156, Control_c, 9, 11, 4
10, 194204, Control_c, 9, 11, 3
10, 194312, Control_c, 9, 11, 2
10, 194412, Control_c, 9, 11, 1
10, 194902, Control_c, 9, 11, 0
10, 196836, Control_c, 9, 121, 127
10, 197028, Control_c, 9, 7, 127
10, 197220, Control_c, 9, 10, 64
10, 198144, End_track
11, 0, Start_track
11, 0, System_exclusive, 10, 65, 16, 66, 18, 64, 0, 127, 0, 65, 247
11, 6144, End_track
12, 0, Start_track
12, 0, Title_t, ""
12, 12, Note_on_c, 0, 76, 2
12, 15, Program_c, 15, 0
12, 61, Note_off_c, 0, 76, 2
12, 71, Note_on_c, 0, 9, 2
12, 136, Note_off_c, 0, 9, 2
12, 204, Note_on_c, 0, 65, 2
12, 275, Note_off_c, 0, 65, 2
12, 309, Note_on_c, 0, 59, 2
12, 362, Note_off_c, 0, 59, 2
12, 411, Note_on_c, 0, 24, 2
12, 487, Note_off_c, 0, 24, 2
12, 514, Note_on_c, 0, 73, 2
12, 571, Note_off_c, 0, 73, 2
12, 614, Note_on_c, 0, 54, 2
12, 675, Note_off_c, 0, 54, 2
12, 682, Note_on_c, 0, 22, 2
12, 751, Note_off_c, 0, 22, 2
12, 754, Note_on_c, 0, 31, 2
12, 799, Note_off_c, 0, 31, 2
12, 853, Note_on_c, 0, 51, 2
12, 886, Note_off_c, 0, 51, 2
12, 894, Note_on_c, 0, 55, 2
12, 913, Note_off_c, 0, 55, 2
12, 967, Note_on_c, 0, 66, 2
12, 1038, Note_off_c, 0, 66, 2
12, 1095, Note_on_c, 0, 30, 2
12, 1100, Note_off_c, 0, 30, 2
12, 1159, Note_on_c, 0, 5, 2
12, 1192, Note_off_c, 0, 5, 2
12, 1230, Note_on_c, 0, 73, 2
12, 1247, Note_off_c, 0, 73, 2
12, 1264, Note_on_c, 0, 77, 2
12, 1326, Note_off_c, 0, 77, 2
12, 1398, Note_on_c, 0, 80, 2
12, 1459, Note_off_c, 0, 80, 2
12, 1518, Note_on_c, 0, 27, 2
12, 1523, Note_off_c, 0, 27, 2
12, 1533, Note_on_c, 0, 63, 2
12, 1549, Note_off_c, 0, 63, 2
12, 1556, Note_on_c, 0, 32, 2
12, 1577, Note_off_c, 0, 32, 2
12, 1596, Note_on_c, 0, 47, 2
12, 1674, Note_off_c, 0, 47, 2
12, 1712, Note_on_c, 0, 71, 2
12, 1725, Note_off_c, 0, 71, 2
12, 1734, Note_on_c, 0, 12, 2
12, 1807, Note_off_c, 0, 12, 2
12, 1840, Note_on_c, 0, 51, 2
12, 1895, Note_off_c, 0, 51, 2
12, 1912, Note_on_c, 0, 66, 2
12, 1933, Note_off_c, 0, 66, 2
12, 1986, Note_on_c, 0, 6, 2
12, 1990, Note_off_c, 0, 6, 2
12, 2005, Note_on_c, 0, 44, 2
12, 2017, Note_off_c, 0, 44, 2
12, 2065, Note_on_c, 0, 66, 2
12, 2132, Note_off_c, 0, 66, 2
12, 2186, Note_on_c, 0, 56, 2
12, 2203, Note_off_c, 0, 56, 2
12, 2282, Note_on_c, 0, 32, 2
12, 2321, Note_off_c, 0, 32, 2
12, 2327, Note_on_c, 0, 70, 2
12, 2379, Note_off_c, 0, 70, 2
12, 2384, Note_on_c, 0, 63, 2
12, 2446, Note_off_c, 0, 63, 2
12, 2514, Note_on_c, 0, 49, 2
12, 2590, Note_off_c, 0, 49, 2
12, 2599, Note_on_c, 0, 71, 2
12, 2602, Note_off_c, 0, 71, 2
12, 2644, Note_on_c, 0, 25, 2
12, 2677, Note_off_c, 0, 25, 2
12, 2730, Note_on_c, 0, 66, 2
12, 2787, Note_off_c, 0, 66, 2
12, 2839, Note_on_c, 0, 33, 2
12, 2906, Note_off_c, 0, 33, 2
12, 2975, Note_on_c, 0, 27, 2
12, 3049, Note_off_c, 0, 27, 2
12, 3061, Note_on_c, 0, 22, 2
12, 3076, Note_off_c, 0, 22, 2
12, 3127, Note_on_c, 0, 50, 2
12, 3164, Note_off_c, 0, 50, 2
12, 3164, End_track
0, 0, End_of_file
