0, 0, Header, 1, 6, 96
1, 0, Start_track
1, 0, Time_signature, 3, 2, 96, 8
1, 0, Tempo, 576923
1, 0, End_track
2, 0, Start_track
2, 0, Title_t, "Carla Etude"
2, 0, Control_c, 0, 0, 0
2, 0, Program_c, 0, 54
2, 0, Time_signature, 3, 2, 96, 8
2, 0, Tempo, 576923
2, 0, Note_on_c, 0, 63, 89
2, 0, Note_on_c, 0, 59, 89
2, 64, Note_off_c, 0, 63, 64
2, 96, Note_on_c, 0, 64, 89
2, 160, Note_off_c, 0, 64, 64
2, 192, Note_off_c, 0, 59, 64
2, 192, Note_on_c, 0, 63, 89
2, 256, Note_off_c, 0, 63, 64
2, 288, Note_on_c, 0, 71, 89
2, 288, Note_on_c, 0, 63, 89
2, 288, Note_on_c, 0, 59, 89
2, 352, Note_off_c, 0, 71, 64
2, 384, Note_on_c, 0, 66, 89
2, 416, Note_off_c, 0, 63, 64
2, 416, Note_off_c, 0, 59, 64
2, 512, Note_off_c, 0, 66, 64
2, 528, Note_on_c, 0, 59, 89
2, 560, Note_off_c, 0, 59, 64
2, 576, Note_on_c, 0, 51, 89
2, 576, Note_on_c, 0, 56, 89
2, 576, Note_on_c, 0, 59, 89
2, 640, Note_off_c, 0, 59, 64
2, 672, Note_on_c, 0, 61, 89
2, 704, Note_off_c, 0, 51, 64
2, 704, Note_off_c, 0, 56, 64
2, 736, Note_off_c, 0, 61, 64
2, 768, Note_on_c, 0, 59, 89
2, 768, Note_on_c, 0, 59, 89
2, 832, Note_off_c, 0, 59, 64
2, 832, Note_off_c, 0, 59, 64
2, 864, Note_on_c, 0, 63, 89
2, 864, Note_on_c, 0, 59, 89
2, 864, Note_on_c, 0, 56, 89
2, 1088, Note_off_c, 0, 63, 64
2, 1088, Note_off_c, 0, 59, 64
2, 1088, Note_off_c, 0, 56, 64
2, 1104, Note_on_c, 0, 59, 89
2, 1136, Note_off_c, 0, 59, 64
2, 1152, Note_on_c, 0, 59, 89
2, 1152, Note_on_c, 0, 56, 89
2, 1216, Note_off_c, 0, 59, 64
2, 1248, Note_on_c, 0, 64, 89
2, 1312, Note_off_c, 0, 64, 64
2, 1344, Note_off_c, 0, 56, 64
2, 1344, Note_on_c, 0, 68, 89
2, 1408, Note_off_c, 0, 68, 64
2, 1440, Note_on_c, 0, 66, 89
2, 1440, Note_on_c, 0, 63, 89
2, 1440, Note_on_c, 0, 59, 89
2, 1504, Note_off_c, 0, 66, 64
2, 1504, Note_off_c, 0, 63, 64
2, 1504, Note_off_c, 0, 59, 64
2, 1536, Note_on_c, 0, 63, 89
2, 1600, Note_off_c, 0, 63, 64
2, 1632, Note_on_c, 0, 59, 89
2, 1696, Note_off_c, 0, 59, 64
2, 1728, Note_on_c, 0, 63, 89
2, 1728, Note_on_c, 0, 58, 89
2, 1728, Note_on_c, 0, 54, 89
2, 1856, Note_off_c, 0, 58, 64
2, 1856, Note_off_c, 0, 54, 64
2, 1872, Note_on_c, 0, 54, 89
2, 1904, Note_off_c, 0, 54, 64
2, 1920, Note_off_c, 0, 63, 64
2, 1920, Note_on_c, 0, 58, 89
2, 1952, Note_off_c, 0, 58, 64
2, 1968, Note_on_c, 0, 63, 89
2, 2000, Note_off_c, 0, 63, 64
2, 2016, Note_on_c, 0, 54, 89
2, 2016, Note_on_c, 0, 58, 89
2, 2016, Note_on_c, 0, 61, 89
2, 2208, Note_off_c, 0, 54, 64
2, 2208, Note_off_c, 0, 58, 64
2, 2240, Note_off_c, 0, 61, 64
2, 2256, Note_on_c, 0, 63, 89
2, 2288, Note_off_c, 0, 63, 64
2, 2304, Note_on_c, 0, 59, 89
2, 2304, Note_on_c, 0, 63, 89
2, 2368, Note_off_c, 0, 63, 64
2, 2400, Note_on_c, 0, 64, 89
2, 2464, Note_off_c, 0, 64, 64
2, 2496, Note_off_c, 0, 59, 64
2, 2496, Note_on_c, 0, 63, 89
2, 2560, Note_off_c, 0, 63, 64
2, 2592, Note_on_c, 0, 71, 89
2, 2592, Note_on_c, 0, 63, 89
2, 2592, Note_on_c, 0, 59, 89
2, 2656, Note_off_c, 0, 71, 64
2, 2688, Note_on_c, 0, 66, 89
2, 2720, Note_off_c, 0, 63, 64
2, 2720, Note_off_c, 0, 59, 64
2, 2752, Note_off_c, 0, 66, 64
2, 2784, Note_on_c, 0, 59, 89
2, 2784, Note_on_c, 0, 59, 89
2, 2848, Note_off_c, 0, 59, 64
2, 2848, Note_off_c, 0, 59, 64
2, 2880, Note_on_c, 0, 51, 89
2, 2880, Note_on_c, 0, 56, 89
2, 2880, Note_on_c, 0, 59, 89
2, 2944, Note_off_c, 0, 59, 64
2, 2976, Note_on_c, 0, 61, 89
2, 3040, Note_off_c, 0, 61, 64
2, 3072, Note_off_c, 0, 51, 64
2, 3072, Note_off_c, 0, 56, 64
2, 3072, Note_on_c, 0, 59, 89
2, 3136, Note_off_c, 0, 59, 64
2, 3168, Note_on_c, 0, 63, 89
2, 3168, Note_on_c, 0, 59, 89
2, 3168, Note_on_c, 0, 56, 89
2, 3392, Note_off_c, 0, 63, 64
2, 3392, Note_off_c, 0, 59, 64
2, 3392, Note_off_c, 0, 56, 64
2, 3408, Note_on_c, 0, 59, 89
2, 3440, Note_off_c, 0, 59, 64
2, 3456, Note_on_c, 0, 59, 89
2, 3456, Note_on_c, 0, 56, 89
2, 3520, Note_off_c, 0, 59, 64
2, 3552, Note_on_c, 0, 64, 89
2, 3616, Note_off_c, 0, 64, 64
2, 3648, Note_off_c, 0, 56, 64
2, 3648, Note_on_c, 0, 64, 89
2, 3680, Note_off_c, 0, 64, 64
2, 3696, Note_on_c, 0, 68, 89
2, 3728, Note_off_c, 0, 68, 64
2, 3744, Note_on_c, 0, 66, 89
2, 3744, Note_on_c, 0, 63, 89
2, 3744, Note_on_c, 0, 59, 89
2, 3808, Note_off_c, 0, 66, 64
2, 3808, Note_off_c, 0, 63, 64
2, 3808, Note_off_c, 0, 59, 64
2, 3840, Note_on_c, 0, 63, 89
2, 3904, Note_off_c, 0, 63, 64
2, 3936, Note_on_c, 0, 59, 89
2, 4000, Note_off_c, 0, 59, 64
2, 4032, Note_on_c, 0, 63, 89
2, 4032, Note_on_c, 0, 58, 89
2, 4032, Note_on_c, 0, 54, 89
2, 4096, Note_off_c, 0, 58, 64
2, 4096, Note_off_c, 0, 54, 64
2, 4128, Note_on_c, 0, 54, 89
2, 4160, Note_off_c, 0, 54, 64
2, 4176, Note_on_c, 0, 58, 89
2, 4208, Note_off_c, 0, 58, 64
2, 4224, Note_off_c, 0, 63, 64
2, 4224, Note_on_c, 0, 63, 89
2, 4288, Note_off_c, 0, 63, 64
2, 4320, Note_on_c, 0, 61, 89
2, 4320, Note_on_c, 0, 58, 89
2, 4320, Note_on_c, 0, 54, 89
2, 4512, Note_off_c, 0, 61, 64
2, 4512, Note_off_c, 0, 58, 64
2, 4512, Note_off_c, 0, 54, 64
2, 4608, Note_on_c, 0, 61, 89
2, 4640, Note_off_c, 0, 61, 64
2, 4656, Note_on_c, 0, 57, 89
2, 4688, Note_off_c, 0, 57, 64
2, 4704, Note_on_c, 0, 61, 89
2, 4736, Note_off_c, 0, 61, 64
2, 4752, Note_on_c, 0, 64, 89
2, 4784, Note_off_c, 0, 64, 64
2, 4800, Note_on_c, 0, 69, 89
2, 4800, Note_on_c, 0, 61, 89
2, 4864, Note_off_c, 0, 69, 64
2, 4864, Note_off_c, 0, 61, 64
2, 4896, Note_on_c, 0, 68, 89
2, 4896, Note_on_c, 0, 64, 89
2, 4960, Note_off_c, 0, 68, 64
2, 4960, Note_off_c, 0, 64, 64
2, 4992, Note_on_c, 0, 64, 89
2, 5056, Note_off_c, 0, 64, 64
2, 5088, Note_on_c, 0, 59, 89
2, 5088, Note_on_c, 0, 56, 89
2, 5152, Note_off_c, 0, 59, 64
2, 5152, Note_off_c, 0, 56, 64
2, 5184, Note_on_c, 0, 66, 89
2, 5184, Note_on_c, 0, 62, 89
2, 5248, Note_off_c, 0, 66, 64
2, 5280, Note_on_c, 0, 69, 89
2, 5312, Note_off_c, 0, 62, 64
2, 5344, Note_off_c, 0, 69, 64
2, 5376, Note_on_c, 0, 74, 89
2, 5376, Note_on_c, 0, 69, 89
2, 5376, Note_on_c, 0, 66, 89
2, 5440, Note_off_c, 0, 74, 64
2, 5440, Note_off_c, 0, 69, 64
2, 5440, Note_off_c, 0, 66, 64
2, 5472, Note_on_c, 0, 73, 89
2, 5472, Note_on_c, 0, 64, 89
2, 5536, Note_off_c, 0, 73, 64
2, 5568, Note_on_c, 0, 69, 89
2, 5600, Note_off_c, 0, 64, 64
2, 5632, Note_off_c, 0, 69, 64
2, 5664, Note_on_c, 0, 64, 89
2, 5664, Note_on_c, 0, 64, 89
2, 5728, Note_off_c, 0, 64, 64
2, 5728, Note_off_c, 0, 64, 64
2, 5760, Note_on_c, 0, 66, 89
2, 5760, Note_on_c, 0, 61, 89
2, 5824, Note_off_c, 0, 66, 64
2, 5856, Note_on_c, 0, 69, 89
2, 5952, Note_off_c, 0, 61, 64
2, 5984, Note_off_c, 0, 69, 64
2, 6000, Note_on_c, 0, 73, 89
2, 6032, Note_off_c, 0, 73, 64
2, 6048, Note_on_c, 0, 73, 89
2, 6048, Note_on_c, 0, 68, 89
2, 6048, Note_on_c, 0, 65, 89
2, 6112, Note_off_c, 0, 73, 64
2, 6112, Note_off_c, 0, 68, 64
2, 6112, Note_off_c, 0, 65, 64
2, 6144, Note_on_c, 0, 68, 89
2, 6208, Note_off_c, 0, 68, 64
2, 6240, Note_on_c, 0, 65, 89
2, 6240, Note_on_c, 0, 65, 89
2, 6240, Note_on_c, 0, 65, 89
2, 6240, Note_on_c, 0, 65, 89
2, 6304, Note_off_c, 0, 65, 64
2, 6304, Note_off_c, 0, 65, 64
2, 6304, Note_off_c, 0, 65, 64
2, 6304, Note_off_c, 0, 65, 64
2, 6336, Note_on_c, 0, 66, 89
2, 6336, Note_on_c, 0, 62, 89
2, 6400, Note_off_c, 0, 66, 64
2, 6432, Note_on_c, 0, 69, 89
2, 6496, Note_off_c, 0, 69, 64
2, 6528, Note_off_c, 0, 62, 64
2, 6528, Note_on_c, 0, 71, 89
2, 6592, Note_off_c, 0, 71, 64
2, 6624, Note_on_c, 0, 73, 89
2, 6624, Note_on_c, 0, 68, 89
2, 6624, Note_on_c, 0, 65, 89
2, 6816, Note_off_c, 0, 73, 64
2, 6816, Note_off_c, 0, 68, 64
2, 6816, Note_off_c, 0, 65, 64
2, 6912, Note_on_c, 0, 66, 89
2, 6912, Note_on_c, 0, 62, 89
2, 6976, Note_off_c, 0, 66, 64
2, 7008, Note_on_c, 0, 69, 89
2, 7040, Note_off_c, 0, 62, 64
2, 7072, Note_off_c, 0, 69, 64
2, 7104, Note_on_c, 0, 74, 89
2, 7104, Note_on_c, 0, 69, 89
2, 7104, Note_on_c, 0, 66, 89
2, 7168, Note_off_c, 0, 74, 64
2, 7168, Note_off_c, 0, 69, 64
2, 7168, Note_off_c, 0, 66, 64
2, 7200, Note_on_c, 0, 73, 89
2, 7200, Note_on_c, 0, 64, 89
2, 7264, Note_off_c, 0, 73, 64
2, 7296, Note_on_c, 0, 69, 89
2, 7328, Note_off_c, 0, 64, 64
2, 7360, Note_off_c, 0, 69, 64
2, 7392, Note_on_c, 0, 64, 89
2, 7392, Note_on_c, 0, 64, 89
2, 7456, Note_off_c, 0, 64, 64
2, 7456, Note_off_c, 0, 64, 64
2, 7488, Note_on_c, 0, 76, 89
2, 7488, Note_on_c, 0, 68, 89
2, 7552, Note_off_c, 0, 76, 64
2, 7552, Note_off_c, 0, 68, 64
2, 7584, Note_on_c, 0, 71, 89
2, 7584, Note_on_c, 0, 68, 89
2, 7648, Note_off_c, 0, 71, 64
2, 7648, Note_off_c, 0, 68, 64
2, 7680, Note_on_c, 0, 76, 89
2, 7680, Note_on_c, 0, 71, 89
2, 7680, Note_on_c, 0, 68, 89
2, 7744, Note_off_c, 0, 76, 64
2, 7744, Note_off_c, 0, 71, 64
2, 7744, Note_off_c, 0, 68, 64
2, 7776, Note_on_c, 0, 75, 89
2, 7776, Note_on_c, 0, 71, 89
2, 7776, Note_on_c, 0, 66, 89
2, 7840, Note_off_c, 0, 75, 64
2, 7840, Note_off_c, 0, 71, 64
2, 7840, Note_off_c, 0, 66, 64
2, 7872, Note_on_c, 0, 71, 89
2, 7872, Note_on_c, 0, 71, 89
2, 7936, Note_off_c, 0, 71, 64
2, 7936, Note_off_c, 0, 71, 64
2, 7968, Note_on_c, 0, 66, 89
2, 7968, Note_on_c, 0, 66, 89
2, 8032, Note_off_c, 0, 66, 64
2, 8032, Note_off_c, 0, 66, 64
2, 8064, Note_on_c, 0, 66, 89
2, 8064, Note_on_c, 0, 61, 89
2, 8064, Note_on_c, 0, 57, 89
2, 8128, Note_off_c, 0, 66, 64
2, 8160, Note_on_c, 0, 69, 89
2, 8192, Note_off_c, 0, 61, 64
2, 8192, Note_off_c, 0, 57, 64
2, 8224, Note_off_c, 0, 69, 64
2, 8256, Note_on_c, 0, 69, 89
2, 8256, Note_on_c, 0, 66, 89
2, 8256, Note_on_c, 0, 61, 89
2, 8320, Note_off_c, 0, 69, 64
2, 8320, Note_off_c, 0, 66, 64
2, 8320, Note_off_c, 0, 61, 64
2, 8352, Note_on_c, 0, 59, 89
2, 8352, Note_on_c, 0, 64, 89
2, 8352, Note_on_c, 0, 69, 89
2, 8416, Note_off_c, 0, 69, 64
2, 8448, Note_on_c, 0, 68, 89
2, 8480, Note_off_c, 0, 59, 64
2, 8480, Note_off_c, 0, 64, 64
2, 8512, Note_off_c, 0, 68, 64
2, 8544, Note_on_c, 0, 64, 89
2, 8544, Note_on_c, 0, 64, 89
2, 8608, Note_off_c, 0, 64, 64
2, 8608, Note_off_c, 0, 64, 64
2, 8640, Note_on_c, 0, 66, 89
2, 8640, Note_on_c, 0, 61, 89
2, 8640, Note_on_c, 0, 58, 89
2, 9120, Note_off_c, 0, 66, 64
2, 9120, Note_off_c, 0, 61, 64
2, 9120, Note_off_c, 0, 58, 64
2, 9216, Note_on_c, 0, 63, 89
2, 9216, Note_on_c, 0, 59, 89
2, 9280, Note_off_c, 0, 63, 64
2, 9312, Note_on_c, 0, 64, 89
2, 9376, Note_off_c, 0, 64, 64
2, 9408, Note_off_c, 0, 59, 64
2, 9408, Note_on_c, 0, 63, 89
2, 9472, Note_off_c, 0, 63, 64
2, 9504, Note_on_c, 0, 71, 89
2, 9504, Note_on_c, 0, 63, 89
2, 9504, Note_on_c, 0, 59, 89
2, 9568, Note_off_c, 0, 71, 64
2, 9600, Note_on_c, 0, 66, 89
2, 9632, Note_off_c, 0, 63, 64
2, 9632, Note_off_c, 0, 59, 64
2, 9728, Note_off_c, 0, 66, 64
2, 9744, Note_on_c, 0, 59, 89
2, 9776, Note_off_c, 0, 59, 64
2, 9792, Note_on_c, 0, 51, 89
2, 9792, Note_on_c, 0, 56, 89
2, 9792, Note_on_c, 0, 59, 89
2, 9856, Note_off_c, 0, 59, 64
2, 9888, Note_on_c, 0, 61, 89
2, 9920, Note_off_c, 0, 51, 64
2, 9920, Note_off_c, 0, 56, 64
2, 9952, Note_off_c, 0, 61, 64
2, 9984, Note_on_c, 0, 59, 89
2, 9984, Note_on_c, 0, 59, 89
2, 10048, Note_off_c, 0, 59, 64
2, 10048, Note_off_c, 0, 59, 64
2, 10080, Note_on_c, 0, 63, 89
2, 10080, Note_on_c, 0, 59, 89
2, 10080, Note_on_c, 0, 56, 89
2, 10304, Note_off_c, 0, 63, 64
2, 10304, Note_off_c, 0, 59, 64
2, 10304, Note_off_c, 0, 56, 64
2, 10320, Note_on_c, 0, 59, 89
2, 10352, Note_off_c, 0, 59, 64
2, 10368, Note_on_c, 0, 59, 89
2, 10368, Note_on_c, 0, 56, 89
2, 10432, Note_off_c, 0, 59, 64
2, 10464, Note_on_c, 0, 64, 89
2, 10528, Note_off_c, 0, 64, 64
2, 10560, Note_off_c, 0, 56, 64
2, 10560, Note_on_c, 0, 68, 89
2, 10624, Note_off_c, 0, 68, 64
2, 10656, Note_on_c, 0, 66, 89
2, 10656, Note_on_c, 0, 63, 89
2, 10656, Note_on_c, 0, 59, 89
2, 10720, Note_off_c, 0, 66, 64
2, 10720, Note_off_c, 0, 63, 64
2, 10720, Note_off_c, 0, 59, 64
2, 10752, Note_on_c, 0, 63, 89
2, 10816, Note_off_c, 0, 63, 64
2, 10848, Note_on_c, 0, 59, 89
2, 10912, Note_off_c, 0, 59, 64
2, 10944, Note_on_c, 0, 63, 89
2, 10944, Note_on_c, 0, 58, 89
2, 10944, Note_on_c, 0, 54, 89
2, 11072, Note_off_c, 0, 58, 64
2, 11072, Note_off_c, 0, 54, 64
2, 11088, Note_on_c, 0, 54, 89
2, 11120, Note_off_c, 0, 54, 64
2, 11136, Note_off_c, 0, 63, 64
2, 11136, Note_on_c, 0, 58, 89
2, 11168, Note_off_c, 0, 58, 64
2, 11184, Note_on_c, 0, 63, 89
2, 11216, Note_off_c, 0, 63, 64
2, 11232, Note_on_c, 0, 54, 89
2, 11232, Note_on_c, 0, 58, 89
2, 11232, Note_on_c, 0, 61, 89
2, 11424, Note_off_c, 0, 54, 64
2, 11424, Note_off_c, 0, 58, 64
2, 11456, Note_off_c, 0, 61, 64
2, 11472, Note_on_c, 0, 63, 89
2, 11504, Note_off_c, 0, 63, 64
2, 11520, Note_on_c, 0, 59, 89
2, 11520, Note_on_c, 0, 63, 89
2, 11584, Note_off_c, 0, 63, 64
2, 11616, Note_on_c, 0, 64, 89
2, 11680, Note_off_c, 0, 64, 64
2, 11712, Note_off_c, 0, 59, 64
2, 11712, Note_on_c, 0, 63, 89
2, 11776, Note_off_c, 0, 63, 64
2, 11808, Note_on_c, 0, 71, 89
2, 11808, Note_on_c, 0, 63, 89
2, 11808, Note_on_c, 0, 59, 89
2, 11872, Note_off_c, 0, 71, 64
2, 11904, Note_on_c, 0, 66, 89
2, 11936, Note_off_c, 0, 63, 64
2, 11936, Note_off_c, 0, 59, 64
2, 11968, Note_off_c, 0, 66, 64
2, 12000, Note_on_c, 0, 59, 89
2, 12000, Note_on_c, 0, 59, 89
2, 12064, Note_off_c, 0, 59, 64
2, 12064, Note_off_c, 0, 59, 64
2, 12096, Note_on_c, 0, 51, 89
2, 12096, Note_on_c, 0, 56, 89
2, 12096, Note_on_c, 0, 59, 89
2, 12160, Note_off_c, 0, 59, 64
2, 12192, Note_on_c, 0, 61, 89
2, 12256, Note_off_c, 0, 61, 64
2, 12288, Note_off_c, 0, 51, 64
2, 12288, Note_off_c, 0, 56, 64
2, 12288, Note_on_c, 0, 59, 89
2, 12352, Note_off_c, 0, 59, 64
2, 12384, Note_on_c, 0, 63, 89
2, 12384, Note_on_c, 0, 59, 89
2, 12384, Note_on_c, 0, 56, 89
2, 12608, Note_off_c, 0, 63, 64
2, 12608, Note_off_c, 0, 59, 64
2, 12608, Note_off_c, 0, 56, 64
2, 12624, Note_on_c, 0, 59, 89
2, 12656, Note_off_c, 0, 59, 64
2, 12672, Note_on_c, 0, 59, 89
2, 12672, Note_on_c, 0, 56, 89
2, 12736, Note_off_c, 0, 59, 64
2, 12768, Note_on_c, 0, 64, 89
2, 12832, Note_off_c, 0, 64, 64
2, 12864, Note_off_c, 0, 56, 64
2, 12864, Note_on_c, 0, 64, 89
2, 12896, Note_off_c, 0, 64, 64
2, 12912, Note_on_c, 0, 68, 89
2, 12944, Note_off_c, 0, 68, 64
2, 12960, Note_on_c, 0, 66, 89
2, 12960, Note_on_c, 0, 63, 89
2, 12960, Note_on_c, 0, 59, 89
2, 13024, Note_off_c, 0, 66, 64
2, 13024, Note_off_c, 0, 63, 64
2, 13024, Note_off_c, 0, 59, 64
2, 13056, Note_on_c, 0, 63, 89
2, 13120, Note_off_c, 0, 63, 64
2, 13152, Note_on_c, 0, 59, 89
2, 13216, Note_off_c, 0, 59, 64
2, 13248, Note_on_c, 0, 63, 89
2, 13248, Note_on_c, 0, 58, 89
2, 13248, Note_on_c, 0, 54, 89
2, 13312, Note_off_c, 0, 58, 64
2, 13312, Note_off_c, 0, 54, 64
2, 13344, Note_on_c, 0, 54, 89
2, 13376, Note_off_c, 0, 54, 64
2, 13392, Note_on_c, 0, 58, 89
2, 13424, Note_off_c, 0, 58, 64
2, 13440, Note_off_c, 0, 63, 64
2, 13440, Note_on_c, 0, 63, 89
2, 13504, Note_off_c, 0, 63, 64
2, 13536, Note_on_c, 0, 61, 89
2, 13536, Note_on_c, 0, 58, 89
2, 13536, Note_on_c, 0, 54, 89
2, 13728, Note_off_c, 0, 61, 64
2, 13728, Note_off_c, 0, 58, 64
2, 13728, Note_off_c, 0, 54, 64
2, 13824, Note_on_c, 0, 61, 89
2, 13856, Note_off_c, 0, 61, 64
2, 13872, Note_on_c, 0, 57, 89
2, 13904, Note_off_c, 0, 57, 64
2, 13920, Note_on_c, 0, 61, 89
2, 13952, Note_off_c, 0, 61, 64
2, 13968, Note_on_c, 0, 64, 89
2, 14000, Note_off_c, 0, 64, 64
2, 14016, Note_on_c, 0, 69, 89
2, 14016, Note_on_c, 0, 61, 89
2, 14080, Note_off_c, 0, 69, 64
2, 14080, Note_off_c, 0, 61, 64
2, 14112, Note_on_c, 0, 68, 89
2, 14112, Note_on_c, 0, 64, 89
2, 14176, Note_off_c, 0, 68, 64
2, 14176, Note_off_c, 0, 64, 64
2, 14208, Note_on_c, 0, 64, 89
2, 14272, Note_off_c, 0, 64, 64
2, 14304, Note_on_c, 0, 59, 89
2, 14304, Note_on_c, 0, 56, 89
2, 14368, Note_off_c, 0, 59, 64
2, 14368, Note_off_c, 0, 56, 64
2, 14400, Note_on_c, 0, 66, 89
2, 14400, Note_on_c, 0, 62, 89
2, 14464, Note_off_c, 0, 66, 64
2, 14496, Note_on_c, 0, 69, 89
2, 14528, Note_off_c, 0, 62, 64
2, 14560, Note_off_c, 0, 69, 64
2, 14592, Note_on_c, 0, 74, 89
2, 14592, Note_on_c, 0, 69, 89
2, 14592, Note_on_c, 0, 66, 89
2, 14656, Note_off_c, 0, 74, 64
2, 14656, Note_off_c, 0, 69, 64
2, 14656, Note_off_c, 0, 66, 64
2, 14688, Note_on_c, 0, 73, 89
2, 14688, Note_on_c, 0, 64, 89
2, 14752, Note_off_c, 0, 73, 64
2, 14784, Note_on_c, 0, 69, 89
2, 14816, Note_off_c, 0, 64, 64
2, 14848, Note_off_c, 0, 69, 64
2, 14880, Note_on_c, 0, 64, 89
2, 14880, Note_on_c, 0, 64, 89
2, 14944, Note_off_c, 0, 64, 64
2, 14944, Note_off_c, 0, 64, 64
2, 14976, Note_on_c, 0, 66, 89
2, 14976, Note_on_c, 0, 61, 89
2, 15040, Note_off_c, 0, 66, 64
2, 15072, Note_on_c, 0, 69, 89
2, 15168, Note_off_c, 0, 61, 64
2, 15200, Note_off_c, 0, 69, 64
2, 15216, Note_on_c, 0, 73, 89
2, 15248, Note_off_c, 0, 73, 64
2, 15264, Note_on_c, 0, 73, 89
2, 15264, Note_on_c, 0, 68, 89
2, 15264, Note_on_c, 0, 65, 89
2, 15328, Note_off_c, 0, 73, 64
2, 15328, Note_off_c, 0, 68, 64
2, 15328, Note_off_c, 0, 65, 64
2, 15360, Note_on_c, 0, 68, 89
2, 15424, Note_off_c, 0, 68, 64
2, 15456, Note_on_c, 0, 65, 89
2, 15456, Note_on_c, 0, 65, 89
2, 15456, Note_on_c, 0, 65, 89
2, 15456, Note_on_c, 0, 65, 89
2, 15520, Note_off_c, 0, 65, 64
2, 15520, Note_off_c, 0, 65, 64
2, 15520, Note_off_c, 0, 65, 64
2, 15520, Note_off_c, 0, 65, 64
2, 15552, Note_on_c, 0, 66, 89
2, 15552, Note_on_c, 0, 62, 89
2, 15616, Note_off_c, 0, 66, 64
2, 15648, Note_on_c, 0, 69, 89
2, 15712, Note_off_c, 0, 69, 64
2, 15744, Note_off_c, 0, 62, 64
2, 15744, Note_on_c, 0, 71, 89
2, 15808, Note_off_c, 0, 71, 64
2, 15840, Note_on_c, 0, 73, 89
2, 15840, Note_on_c, 0, 68, 89
2, 15840, Note_on_c, 0, 65, 89
2, 16032, Note_off_c, 0, 73, 64
2, 16032, Note_off_c, 0, 68, 64
2, 16032, Note_off_c, 0, 65, 64
2, 16128, Note_on_c, 0, 66, 89
2, 16128, Note_on_c, 0, 62, 89
2, 16192, Note_off_c, 0, 66, 64
2, 16224, Note_on_c, 0, 69, 89
2, 16256, Note_off_c, 0, 62, 64
2, 16288, Note_off_c, 0, 69, 64
2, 16320, Note_on_c, 0, 74, 89
2, 16320, Note_on_c, 0, 69, 89
2, 16320, Note_on_c, 0, 66, 89
2, 16384, Note_off_c, 0, 74, 64
2, 16384, Note_off_c, 0, 69, 64
2, 16384, Note_off_c, 0, 66, 64
2, 16416, Note_on_c, 0, 73, 89
2, 16416, Note_on_c, 0, 64, 89
2, 16480, Note_off_c, 0, 73, 64
2, 16512, Note_on_c, 0, 69, 89
2, 16544, Note_off_c, 0, 64, 64
2, 16576, Note_off_c, 0, 69, 64
2, 16608, Note_on_c, 0, 64, 89
2, 16608, Note_on_c, 0, 64, 89
2, 16672, Note_off_c, 0, 64, 64
2, 16672, Note_off_c, 0, 64, 64
2, 16704, Note_on_c, 0, 76, 89
2, 16704, Note_on_c, 0, 68, 89
2, 16768, Note_off_c, 0, 76, 64
2, 16768, Note_off_c, 0, 68, 64
2, 16800, Note_on_c, 0, 71, 89
2, 16800, Note_on_c, 0, 68, 89
2, 16864, Note_off_c, 0, 71, 64
2, 16864, Note_off_c, 0, 68, 64
2, 16896, Note_on_c, 0, 76, 89
2, 16896, Note_on_c, 0, 71, 89
2, 16896, Note_on_c, 0, 68, 89
2, 16960, Note_off_c, 0, 76, 64
2, 16960, Note_off_c, 0, 71, 64
2, 16960, Note_off_c, 0, 68, 64
2, 16992, Note_on_c, 0, 75, 89
2, 16992, Note_on_c, 0, 71, 89
2, 16992, Note_on_c, 0, 66, 89
2, 17056, Note_off_c, 0, 75, 64
2, 17056, Note_off_c, 0, 71, 64
2, 17056, Note_off_c, 0, 66, 64
2, 17088, Note_on_c, 0, 71, 89
2, 17088, Note_on_c, 0, 71, 89
2, 17152, Note_off_c, 0, 71, 64
2, 17152, Note_off_c, 0, 71, 64
2, 17184, Note_on_c, 0, 66, 89
2, 17184, Note_on_c, 0, 66, 89
2, 17248, Note_off_c, 0, 66, 64
2, 17248, Note_off_c, 0, 66, 64
2, 17280, Note_on_c, 0, 66, 89
2, 17280, Note_on_c, 0, 61, 89
2, 17280, Note_on_c, 0, 57, 89
2, 17344, Note_off_c, 0, 66, 64
2, 17376, Note_on_c, 0, 69, 89
2, 17408, Note_off_c, 0, 61, 64
2, 17408, Note_off_c, 0, 57, 64
2, 17440, Note_off_c, 0, 69, 64
2, 17472, Note_on_c, 0, 69, 89
2, 17472, Note_on_c, 0, 66, 89
2, 17472, Note_on_c, 0, 61, 89
2, 17536, Note_off_c, 0, 69, 64
2, 17536, Note_off_c, 0, 66, 64
2, 17536, Note_off_c, 0, 61, 64
2, 17568, Note_on_c, 0, 59, 89
2, 17568, Note_on_c, 0, 64, 89
2, 17568, Note_on_c, 0, 69, 89
2, 17632, Note_off_c, 0, 69, 64
2, 17664, Note_on_c, 0, 68, 89
2, 17696, Note_off_c, 0, 59, 64
2, 17696, Note_off_c, 0, 64, 64
2, 17728, Note_off_c, 0, 68, 64
2, 17760, Note_on_c, 0, 64, 89
2, 17760, Note_on_c, 0, 64, 89
2, 17824, Note_off_c, 0, 64, 64
2, 17824, Note_off_c, 0, 64, 64
2, 17856, Note_on_c, 0, 66, 89
2, 17856, Note_on_c, 0, 61, 89
2, 17856, Note_on_c, 0, 58, 89
2, 18336, Note_off_c, 0, 66, 64
2, 18336, Note_off_c, 0, 61, 64
2, 18336, Note_off_c, 0, 58, 64
2, 18432, Note_on_c, 0, 74, 89
2, 18432, Note_on_c, 0, 62, 89
2, 18560, Note_off_c, 0, 74, 64
2, 18576, Note_on_c, 0, 69, 89
2, 18608, Note_off_c, 0, 69, 64
2, 18624, Note_off_c, 0, 62, 64
2, 18624, Note_on_c, 0, 69, 89
2, 18656, Note_off_c, 0, 69, 64
2, 18672, Note_on_c, 0, 71, 89
2, 18704, Note_off_c, 0, 71, 64
2, 18720, Note_on_c, 0, 72, 89
2, 18720, Note_on_c, 0, 65, 89
2, 18720, Note_on_c, 0, 65, 89
2, 18912, Note_off_c, 0, 72, 64
2, 18912, Note_off_c, 0, 65, 64
2, 18912, Note_off_c, 0, 65, 64
2, 19008, Note_on_c, 0, 74, 89
2, 19008, Note_on_c, 0, 62, 89
2, 19136, Note_off_c, 0, 74, 64
2, 19152, Note_on_c, 0, 69, 89
2, 19184, Note_off_c, 0, 69, 64
2, 19200, Note_off_c, 0, 62, 64
2, 19200, Note_on_c, 0, 69, 89
2, 19232, Note_off_c, 0, 69, 64
2, 19248, Note_on_c, 0, 71, 89
2, 19280, Note_off_c, 0, 71, 64
2, 19296, Note_on_c, 0, 65, 89
2, 19296, Note_on_c, 0, 72, 89
2, 19488, Note_off_c, 0, 65, 64
2, 19520, Note_off_c, 0, 72, 64
2, 19536, Note_on_c, 0, 72, 89
2, 19568, Note_off_c, 0, 72, 64
2, 19584, Note_on_c, 0, 72, 89
2, 19584, Note_on_c, 0, 60, 89
2, 19712, Note_off_c, 0, 72, 64
2, 19728, Note_on_c, 0, 64, 89
2, 19760, Note_off_c, 0, 64, 64
2, 19776, Note_off_c, 0, 60, 64
2, 19776, Note_on_c, 0, 64, 89
2, 19808, Note_off_c, 0, 64, 64
2, 19824, Note_on_c, 0, 65, 89
2, 19856, Note_off_c, 0, 65, 64
2, 19872, Note_on_c, 0, 67, 89
2, 19872, Note_on_c, 0, 59, 89
2, 20000, Note_off_c, 0, 59, 64
2, 20016, Note_on_c, 0, 55, 89
2, 20048, Note_off_c, 0, 55, 64
2, 20064, Note_on_c, 0, 59, 89
2, 20096, Note_off_c, 0, 67, 64
2, 20112, Note_on_c, 0, 69, 89
2, 20128, Note_off_c, 0, 59, 64
2, 20144, Note_off_c, 0, 69, 64
2, 20160, Note_on_c, 0, 57, 89
2, 20160, Note_on_c, 0, 69, 89
2, 20288, Note_off_c, 0, 69, 64
2, 20304, Note_on_c, 0, 60, 89
2, 20336, Note_off_c, 0, 60, 64
2, 20352, Note_off_c, 0, 57, 64
2, 20352, Note_on_c, 0, 60, 89
2, 20384, Note_off_c, 0, 60, 64
2, 20400, Note_on_c, 0, 62, 89
2, 20432, Note_off_c, 0, 62, 64
2, 20448, Note_on_c, 0, 64, 89
2, 20448, Note_on_c, 0, 59, 89
2, 20448, Note_on_c, 0, 57, 89
2, 20512, Note_off_c, 0, 57, 64
2, 20544, Note_on_c, 0, 56, 89
2, 20640, Note_off_c, 0, 64, 64
2, 20640, Note_off_c, 0, 59, 64
2, 20672, Note_off_c, 0, 56, 64
2, 20736, Note_on_c, 0, 74, 89
2, 20736, Note_on_c, 0, 62, 89
2, 20864, Note_off_c, 0, 74, 64
2, 20880, Note_on_c, 0, 69, 89
2, 20912, Note_off_c, 0, 69, 64
2, 20928, Note_off_c, 0, 62, 64
2, 20928, Note_on_c, 0, 69, 89
2, 20960, Note_off_c, 0, 69, 64
2, 20976, Note_on_c, 0, 71, 89
2, 21008, Note_off_c, 0, 71, 64
2, 21024, Note_on_c, 0, 65, 89
2, 21024, Note_on_c, 0, 65, 89
2, 21024, Note_on_c, 0, 72, 89
2, 21152, Note_off_c, 0, 72, 64
2, 21216, Note_off_c, 0, 65, 64
2, 21216, Note_off_c, 0, 65, 64
2, 21216, Note_on_c, 0, 72, 89
2, 21248, Note_off_c, 0, 72, 64
2, 21264, Note_on_c, 0, 74, 89
2, 21296, Note_off_c, 0, 74, 64
2, 21312, Note_on_c, 0, 74, 89
2, 21312, Note_on_c, 0, 62, 89
2, 21440, Note_off_c, 0, 74, 64
2, 21456, Note_on_c, 0, 69, 89
2, 21488, Note_off_c, 0, 69, 64
2, 21504, Note_off_c, 0, 62, 64
2, 21504, Note_on_c, 0, 69, 89
2, 21536, Note_off_c, 0, 69, 64
2, 21552, Note_on_c, 0, 71, 89
2, 21584, Note_off_c, 0, 71, 64
2, 21600, Note_on_c, 0, 65, 89
2, 21600, Note_on_c, 0, 65, 89
2, 21600, Note_on_c, 0, 72, 89
2, 21728, Note_off_c, 0, 72, 64
2, 21792, Note_off_c, 0, 65, 64
2, 21792, Note_off_c, 0, 65, 64
2, 21792, Note_on_c, 0, 69, 89
2, 21824, Note_off_c, 0, 69, 64
2, 21840, Note_on_c, 0, 71, 89
2, 21872, Note_off_c, 0, 71, 64
2, 21888, Note_on_c, 0, 67, 89
2, 21888, Note_on_c, 0, 60, 89
2, 22016, Note_off_c, 0, 67, 64
2, 22032, Note_on_c, 0, 64, 89
2, 22064, Note_off_c, 0, 64, 64
2, 22080, Note_off_c, 0, 60, 64
2, 22080, Note_on_c, 0, 64, 89
2, 22112, Note_off_c, 0, 64, 64
2, 22128, Note_on_c, 0, 65, 89
2, 22160, Note_off_c, 0, 65, 64
2, 22176, Note_on_c, 0, 67, 89
2, 22176, Note_on_c, 0, 59, 89
2, 22304, Note_off_c, 0, 59, 64
2, 22320, Note_on_c, 0, 55, 89
2, 22352, Note_off_c, 0, 55, 64
2, 22368, Note_on_c, 0, 59, 89
2, 22400, Note_off_c, 0, 67, 64
2, 22400, Note_off_c, 0, 59, 64
2, 22416, Note_on_c, 0, 69, 89
2, 22416, Note_on_c, 0, 69, 89
2, 22448, Note_off_c, 0, 69, 64
2, 22448, Note_off_c, 0, 69, 64
2, 22464, Note_on_c, 0, 69, 89
2, 22464, Note_on_c, 0, 60, 89
2, 22592, Note_off_c, 0, 69, 64
2, 22592, Note_off_c, 0, 60, 64
2, 22608, Note_on_c, 0, 60, 89
2, 22608, Note_on_c, 0, 60, 89
2, 22640, Note_off_c, 0, 60, 64
2, 22640, Note_off_c, 0, 60, 64
2, 22656, Note_on_c, 0, 60, 89
2, 22656, Note_on_c, 0, 60, 89
2, 22688, Note_off_c, 0, 60, 64
2, 22688, Note_off_c, 0, 60, 64
2, 22704, Note_on_c, 0, 62, 89
2, 22704, Note_on_c, 0, 62, 89
2, 22736, Note_off_c, 0, 62, 64
2, 22736, Note_off_c, 0, 62, 64
2, 22752, Note_on_c, 0, 64, 89
2, 22752, Note_on_c, 0, 59, 89
2, 22752, Note_on_c, 0, 57, 89
2, 22816, Note_off_c, 0, 57, 64
2, 22848, Note_on_c, 0, 56, 89
2, 22944, Note_off_c, 0, 64, 64
2, 22944, Note_off_c, 0, 59, 64
2, 22976, Note_off_c, 0, 56, 64
2, 23040, Note_on_c, 0, 60, 89
2, 23040, Note_on_c, 0, 65, 89
2, 23040, Note_on_c, 0, 69, 89
2, 23168, Note_off_c, 0, 60, 64
2, 23168, Note_off_c, 0, 65, 64
2, 23168, Note_off_c, 0, 69, 64
2, 23184, Note_on_c, 0, 69, 89
2, 23184, Note_on_c, 0, 65, 89
2, 23184, Note_on_c, 0, 60, 89
2, 23216, Note_off_c, 0, 69, 64
2, 23216, Note_off_c, 0, 65, 64
2, 23216, Note_off_c, 0, 60, 64
2, 23232, Note_on_c, 0, 69, 89
2, 23232, Note_on_c, 0, 65, 89
2, 23232, Note_on_c, 0, 60, 89
2, 23264, Note_off_c, 0, 69, 64
2, 23264, Note_off_c, 0, 65, 64
2, 23264, Note_off_c, 0, 60, 64
2, 23280, Note_on_c, 0, 71, 89
2, 23280, Note_on_c, 0, 65, 89
2, 23280, Note_on_c, 0, 60, 89
2, 23312, Note_off_c, 0, 71, 64
2, 23312, Note_off_c, 0, 65, 64
2, 23312, Note_off_c, 0, 60, 64
2, 23328, Note_on_c, 0, 62, 89
2, 23328, Note_on_c, 0, 69, 89
2, 23328, Note_on_c, 0, 72, 89
2, 23456, Note_off_c, 0, 62, 64
2, 23456, Note_off_c, 0, 69, 64
2, 23456, Note_off_c, 0, 72, 64
2, 23472, Note_on_c, 0, 72, 89
2, 23472, Note_on_c, 0, 69, 89
2, 23472, Note_on_c, 0, 62, 89
2, 23504, Note_off_c, 0, 72, 64
2, 23504, Note_off_c, 0, 69, 64
2, 23504, Note_off_c, 0, 62, 64
2, 23520, Note_on_c, 0, 69, 89
2, 23520, Note_on_c, 0, 62, 89
2, 23520, Note_on_c, 0, 72, 89
2, 23552, Note_off_c, 0, 69, 64
2, 23552, Note_off_c, 0, 62, 64
2, 23552, Note_off_c, 0, 72, 64
2, 23568, Note_on_c, 0, 69, 89
2, 23568, Note_on_c, 0, 62, 89
2, 23568, Note_on_c, 0, 71, 89
2, 23600, Note_off_c, 0, 69, 64
2, 23600, Note_off_c, 0, 62, 64
2, 23600, Note_off_c, 0, 71, 64
2, 23616, Note_on_c, 0, 60, 89
2, 23616, Note_on_c, 0, 65, 89
2, 23616, Note_on_c, 0, 69, 89
2, 23744, Note_off_c, 0, 60, 64
2, 23744, Note_off_c, 0, 65, 64
2, 23744, Note_off_c, 0, 69, 64
2, 23760, Note_on_c, 0, 69, 89
2, 23760, Note_on_c, 0, 65, 89
2, 23760, Note_on_c, 0, 60, 89
2, 23792, Note_off_c, 0, 69, 64
2, 23792, Note_off_c, 0, 65, 64
2, 23792, Note_off_c, 0, 60, 64
2, 23808, Note_on_c, 0, 69, 89
2, 23808, Note_on_c, 0, 65, 89
2, 23808, Note_on_c, 0, 60, 89
2, 23840, Note_off_c, 0, 69, 64
2, 23840, Note_off_c, 0, 65, 64
2, 23840, Note_off_c, 0, 60, 64
2, 23856, Note_on_c, 0, 71, 89
2, 23856, Note_on_c, 0, 65, 89
2, 23856, Note_on_c, 0, 60, 89
2, 23888, Note_off_c, 0, 71, 64
2, 23888, Note_off_c, 0, 65, 64
2, 23888, Note_off_c, 0, 60, 64
2, 23904, Note_on_c, 0, 62, 89
2, 23904, Note_on_c, 0, 69, 89
2, 23904, Note_on_c, 0, 72, 89
2, 24032, Note_off_c, 0, 62, 64
2, 24032, Note_off_c, 0, 69, 64
2, 24032, Note_off_c, 0, 72, 64
2, 24048, Note_on_c, 0, 72, 89
2, 24048, Note_on_c, 0, 69, 89
2, 24048, Note_on_c, 0, 62, 89
2, 24080, Note_off_c, 0, 72, 64
2, 24080, Note_off_c, 0, 69, 64
2, 24080, Note_off_c, 0, 62, 64
2, 24096, Note_on_c, 0, 69, 89
2, 24096, Note_on_c, 0, 62, 89
2, 24096, Note_on_c, 0, 71, 89
2, 24128, Note_off_c, 0, 69, 64
2, 24128, Note_off_c, 0, 62, 64
2, 24128, Note_off_c, 0, 71, 64
2, 24144, Note_on_c, 0, 69, 89
2, 24144, Note_on_c, 0, 62, 89
2, 24176, Note_off_c, 0, 69, 64
2, 24176, Note_off_c, 0, 62, 64
2, 24192, Note_on_c, 0, 60, 89
2, 24192, Note_on_c, 0, 64, 89
2, 24192, Note_on_c, 0, 67, 89
2, 24256, Note_off_c, 0, 60, 64
2, 24256, Note_off_c, 0, 64, 64
2, 24256, Note_off_c, 0, 67, 64
2, 24288, Note_on_c, 0, 64, 89
2, 24288, Note_on_c, 0, 67, 89
2, 24288, Note_on_c, 0, 72, 89
2, 24352, Note_off_c, 0, 64, 64
2, 24352, Note_off_c, 0, 67, 64
2, 24352, Note_off_c, 0, 72, 64
2, 24384, Note_on_c, 0, 76, 89
2, 24384, Note_on_c, 0, 72, 89
2, 24384, Note_on_c, 0, 67, 89
2, 24448, Note_off_c, 0, 76, 64
2, 24448, Note_off_c, 0, 72, 64
2, 24448, Note_off_c, 0, 67, 64
2, 24480, Note_on_c, 0, 74, 89
2, 24480, Note_on_c, 0, 71, 89
2, 24480, Note_on_c, 0, 67, 89
2, 24608, Note_off_c, 0, 71, 64
2, 24608, Note_off_c, 0, 67, 64
2, 24624, Note_on_c, 0, 71, 89
2, 24624, Note_on_c, 0, 67, 89
2, 24624, Note_on_c, 0, 62, 89
2, 24656, Note_off_c, 0, 71, 64
2, 24656, Note_off_c, 0, 67, 64
2, 24656, Note_off_c, 0, 62, 64
2, 24672, Note_off_c, 0, 74, 64
2, 24672, Note_on_c, 0, 71, 89
2, 24672, Note_on_c, 0, 67, 89
2, 24672, Note_on_c, 0, 62, 89
2, 24704, Note_off_c, 0, 71, 64
2, 24704, Note_off_c, 0, 67, 64
2, 24704, Note_off_c, 0, 62, 64
2, 24720, Note_on_c, 0, 69, 89
2, 24720, Note_on_c, 0, 65, 89
2, 24720, Note_on_c, 0, 62, 89
2, 24752, Note_off_c, 0, 69, 64
2, 24752, Note_off_c, 0, 65, 64
2, 24752, Note_off_c, 0, 62, 64
2, 24768, Note_on_c, 0, 60, 89
2, 24768, Note_on_c, 0, 64, 89
2, 24768, Note_on_c, 0, 67, 89
2, 24832, Note_off_c, 0, 60, 64
2, 24832, Note_off_c, 0, 64, 64
2, 24832, Note_off_c, 0, 67, 64
2, 24864, Note_on_c, 0, 64, 89
2, 24864, Note_on_c, 0, 67, 89
2, 24864, Note_on_c, 0, 72, 89
2, 24928, Note_off_c, 0, 64, 64
2, 24928, Note_off_c, 0, 67, 64
2, 24928, Note_off_c, 0, 72, 64
2, 24960, Note_on_c, 0, 79, 89
2, 24960, Note_on_c, 0, 76, 89
2, 24960, Note_on_c, 0, 72, 89
2, 25024, Note_off_c, 0, 79, 64
2, 25024, Note_off_c, 0, 76, 64
2, 25024, Note_off_c, 0, 72, 64
2, 25056, Note_on_c, 0, 79, 89
2, 25056, Note_on_c, 0, 72, 89
2, 25056, Note_on_c, 0, 69, 89
2, 25120, Note_off_c, 0, 79, 64
2, 25120, Note_off_c, 0, 72, 64
2, 25120, Note_off_c, 0, 69, 64
2, 25152, Note_on_c, 0, 77, 89
2, 25152, Note_on_c, 0, 72, 89
2, 25152, Note_on_c, 0, 69, 89
2, 25216, Note_off_c, 0, 77, 64
2, 25216, Note_off_c, 0, 72, 64
2, 25216, Note_off_c, 0, 69, 64
2, 25248, Note_on_c, 0, 72, 89
2, 25248, Note_on_c, 0, 69, 89
2, 25248, Note_on_c, 0, 76, 89
2, 25280, Note_off_c, 0, 76, 64
2, 25296, Note_on_c, 0, 74, 89
2, 25312, Note_off_c, 0, 72, 64
2, 25312, Note_off_c, 0, 69, 64
2, 25328, Note_off_c, 0, 74, 64
2, 25344, Note_on_c, 0, 72, 89
2, 25344, Note_on_c, 0, 64, 89
2, 25344, Note_on_c, 0, 67, 89
2, 25472, Note_off_c, 0, 72, 64
2, 25472, Note_off_c, 0, 64, 64
2, 25472, Note_off_c, 0, 67, 64
2, 25488, Note_on_c, 0, 67, 89
2, 25488, Note_on_c, 0, 67, 89
2, 25520, Note_off_c, 0, 67, 64
2, 25520, Note_off_c, 0, 67, 64
2, 25536, Note_on_c, 0, 67, 89
2, 25536, Note_on_c, 0, 67, 89
2, 25568, Note_off_c, 0, 67, 64
2, 25568, Note_off_c, 0, 67, 64
2, 25584, Note_on_c, 0, 72, 89
2, 25584, Note_on_c, 0, 72, 89
2, 25616, Note_off_c, 0, 72, 64
2, 25616, Note_off_c, 0, 72, 64
2, 25632, Note_on_c, 0, 72, 89
2, 25632, Note_on_c, 0, 69, 89
2, 25632, Note_on_c, 0, 62, 89
2, 25760, Note_off_c, 0, 72, 64
2, 25760, Note_off_c, 0, 69, 64
2, 25760, Note_off_c, 0, 62, 64
2, 25776, Note_on_c, 0, 62, 89
2, 25776, Note_on_c, 0, 62, 89
2, 25808, Note_off_c, 0, 62, 64
2, 25808, Note_off_c, 0, 62, 64
2, 25824, Note_on_c, 0, 62, 89
2, 25824, Note_on_c, 0, 62, 89
2, 25856, Note_off_c, 0, 62, 64
2, 25856, Note_off_c, 0, 62, 64
2, 25872, Note_on_c, 0, 69, 89
2, 25872, Note_on_c, 0, 69, 89
2, 25904, Note_off_c, 0, 69, 64
2, 25904, Note_off_c, 0, 69, 64
2, 25920, Note_on_c, 0, 69, 89
2, 25920, Note_on_c, 0, 65, 89
2, 25920, Note_on_c, 0, 60, 89
2, 26048, Note_off_c, 0, 69, 64
2, 26048, Note_off_c, 0, 65, 64
2, 26048, Note_off_c, 0, 60, 64
2, 26064, Note_on_c, 0, 62, 89
2, 26064, Note_on_c, 0, 62, 89
2, 26096, Note_off_c, 0, 62, 64
2, 26096, Note_off_c, 0, 62, 64
2, 26112, Note_on_c, 0, 62, 89
2, 26112, Note_on_c, 0, 62, 89
2, 26144, Note_off_c, 0, 62, 64
2, 26144, Note_off_c, 0, 62, 64
2, 26160, Note_on_c, 0, 65, 89
2, 26160, Note_on_c, 0, 65, 89
2, 26192, Note_off_c, 0, 65, 64
2, 26192, Note_off_c, 0, 65, 64
2, 26208, Note_on_c, 0, 64, 89
2, 26208, Note_on_c, 0, 59, 89
2, 26208, Note_on_c, 0, 57, 89
2, 26336, Note_off_c, 0, 64, 64
2, 26336, Note_off_c, 0, 59, 64
2, 26336, Note_off_c, 0, 57, 64
2, 26400, Note_on_c, 0, 64, 89
2, 26400, Note_on_c, 0, 59, 89
2, 26400, Note_on_c, 0, 56, 89
2, 26464, Note_off_c, 0, 64, 64
2, 26464, Note_off_c, 0, 59, 64
2, 26464, Note_off_c, 0, 56, 64
2, 26496, Note_on_c, 0, 74, 89
2, 26496, Note_on_c, 0, 62, 89
2, 26624, Note_off_c, 0, 74, 64
2, 26640, Note_on_c, 0, 69, 89
2, 26672, Note_off_c, 0, 69, 64
2, 26688, Note_off_c, 0, 62, 64
2, 26688, Note_on_c, 0, 69, 89
2, 26720, Note_off_c, 0, 69, 64
2, 26736, Note_on_c, 0, 71, 89
2, 26768, Note_off_c, 0, 71, 64
2, 26784, Note_on_c, 0, 72, 89
2, 26784, Note_on_c, 0, 65, 89
2, 26784, Note_on_c, 0, 65, 89
2, 26976, Note_off_c, 0, 72, 64
2, 26976, Note_off_c, 0, 65, 64
2, 26976, Note_off_c, 0, 65, 64
2, 27072, Note_on_c, 0, 74, 89
2, 27072, Note_on_c, 0, 62, 89
2, 27200, Note_off_c, 0, 74, 64
2, 27216, Note_on_c, 0, 69, 89
2, 27248, Note_off_c, 0, 69, 64
2, 27264, Note_off_c, 0, 62, 64
2, 27264, Note_on_c, 0, 69, 89
2, 27296, Note_off_c, 0, 69, 64
2, 27312, Note_on_c, 0, 71, 89
2, 27344, Note_off_c, 0, 71, 64
2, 27360, Note_on_c, 0, 65, 89
2, 27360, Note_on_c, 0, 72, 89
2, 27552, Note_off_c, 0, 65, 64
2, 27584, Note_off_c, 0, 72, 64
2, 27600, Note_on_c, 0, 72, 89
2, 27632, Note_off_c, 0, 72, 64
2, 27648, Note_on_c, 0, 72, 89
2, 27648, Note_on_c, 0, 60, 89
2, 27776, Note_off_c, 0, 72, 64
2, 27792, Note_on_c, 0, 64, 89
2, 27824, Note_off_c, 0, 64, 64
2, 27840, Note_off_c, 0, 60, 64
2, 27840, Note_on_c, 0, 64, 89
2, 27872, Note_off_c, 0, 64, 64
2, 27888, Note_on_c, 0, 65, 89
2, 27920, Note_off_c, 0, 65, 64
2, 27936, Note_on_c, 0, 67, 89
2, 27936, Note_on_c, 0, 59, 89
2, 28064, Note_off_c, 0, 59, 64
2, 28080, Note_on_c, 0, 55, 89
2, 28112, Note_off_c, 0, 55, 64
2, 28128, Note_on_c, 0, 59, 89
2, 28160, Note_off_c, 0, 67, 64
2, 28176, Note_on_c, 0, 69, 89
2, 28192, Note_off_c, 0, 59, 64
2, 28208, Note_off_c, 0, 69, 64
2, 28224, Note_on_c, 0, 57, 89
2, 28224, Note_on_c, 0, 69, 89
2, 28352, Note_off_c, 0, 69, 64
2, 28368, Note_on_c, 0, 60, 89
2, 28400, Note_off_c, 0, 60, 64
2, 28416, Note_off_c, 0, 57, 64
2, 28416, Note_on_c, 0, 60, 89
2, 28448, Note_off_c, 0, 60, 64
2, 28464, Note_on_c, 0, 62, 89
2, 28496, Note_off_c, 0, 62, 64
2, 28512, Note_on_c, 0, 64, 89
2, 28512, Note_on_c, 0, 59, 89
2, 28512, Note_on_c, 0, 57, 89
2, 28576, Note_off_c, 0, 57, 64
2, 28608, Note_on_c, 0, 56, 89
2, 28704, Note_off_c, 0, 64, 64
2, 28704, Note_off_c, 0, 59, 64
2, 28736, Note_off_c, 0, 56, 64
2, 28800, Note_on_c, 0, 74, 89
2, 28800, Note_on_c, 0, 62, 89
2, 28928, Note_off_c, 0, 74, 64
2, 28944, Note_on_c, 0, 69, 89
2, 28976, Note_off_c, 0, 69, 64
2, 28992, Note_off_c, 0, 62, 64
2, 28992, Note_on_c, 0, 69, 89
2, 29024, Note_off_c, 0, 69, 64
2, 29040, Note_on_c, 0, 71, 89
2, 29072, Note_off_c, 0, 71, 64
2, 29088, Note_on_c, 0, 65, 89
2, 29088, Note_on_c, 0, 65, 89
2, 29088, Note_on_c, 0, 72, 89
2, 29216, Note_off_c, 0, 72, 64
2, 29280, Note_off_c, 0, 65, 64
2, 29280, Note_off_c, 0, 65, 64
2, 29280, Note_on_c, 0, 72, 89
2, 29312, Note_off_c, 0, 72, 64
2, 29328, Note_on_c, 0, 74, 89
2, 29360, Note_off_c, 0, 74, 64
2, 29376, Note_on_c, 0, 74, 89
2, 29376, Note_on_c, 0, 62, 89
2, 29504, Note_off_c, 0, 74, 64
2, 29520, Note_on_c, 0, 69, 89
2, 29552, Note_off_c, 0, 69, 64
2, 29568, Note_off_c, 0, 62, 64
2, 29568, Note_on_c, 0, 69, 89
2, 29600, Note_off_c, 0, 69, 64
2, 29616, Note_on_c, 0, 71, 89
2, 29648, Note_off_c, 0, 71, 64
2, 29664, Note_on_c, 0, 65, 89
2, 29664, Note_on_c, 0, 65, 89
2, 29664, Note_on_c, 0, 72, 89
2, 29792, Note_off_c, 0, 72, 64
2, 29856, Note_off_c, 0, 65, 64
2, 29856, Note_off_c, 0, 65, 64
2, 29856, Note_on_c, 0, 69, 89
2, 29888, Note_off_c, 0, 69, 64
2, 29904, Note_on_c, 0, 71, 89
2, 29936, Note_off_c, 0, 71, 64
2, 29952, Note_on_c, 0, 67, 89
2, 29952, Note_on_c, 0, 60, 89
2, 30080, Note_off_c, 0, 67, 64
2, 30096, Note_on_c, 0, 64, 89
2, 30128, Note_off_c, 0, 64, 64
2, 30144, Note_off_c, 0, 60, 64
2, 30144, Note_on_c, 0, 64, 89
2, 30176, Note_off_c, 0, 64, 64
2, 30192, Note_on_c, 0, 65, 89
2, 30224, Note_off_c, 0, 65, 64
2, 30240, Note_on_c, 0, 67, 89
2, 30240, Note_on_c, 0, 59, 89
2, 30368, Note_off_c, 0, 59, 64
2, 30384, Note_on_c, 0, 55, 89
2, 30416, Note_off_c, 0, 55, 64
2, 30432, Note_on_c, 0, 59, 89
2, 30464, Note_off_c, 0, 67, 64
2, 30464, Note_off_c, 0, 59, 64
2, 30480, Note_on_c, 0, 69, 89
2, 30480, Note_on_c, 0, 69, 89
2, 30512, Note_off_c, 0, 69, 64
2, 30512, Note_off_c, 0, 69, 64
2, 30528, Note_on_c, 0, 69, 89
2, 30528, Note_on_c, 0, 60, 89
2, 30656, Note_off_c, 0, 69, 64
2, 30656, Note_off_c, 0, 60, 64
2, 30672, Note_on_c, 0, 60, 89
2, 30672, Note_on_c, 0, 60, 89
2, 30704, Note_off_c, 0, 60, 64
2, 30704, Note_off_c, 0, 60, 64
2, 30720, Note_on_c, 0, 60, 89
2, 30720, Note_on_c, 0, 60, 89
2, 30752, Note_off_c, 0, 60, 64
2, 30752, Note_off_c, 0, 60, 64
2, 30768, Note_on_c, 0, 62, 89
2, 30768, Note_on_c, 0, 62, 89
2, 30800, Note_off_c, 0, 62, 64
2, 30800, Note_off_c, 0, 62, 64
2, 30816, Note_on_c, 0, 64, 89
2, 30816, Note_on_c, 0, 59, 89
2, 30816, Note_on_c, 0, 57, 89
2, 30880, Note_off_c, 0, 57, 64
2, 30912, Note_on_c, 0, 56, 89
2, 31008, Note_off_c, 0, 64, 64
2, 31008, Note_off_c, 0, 59, 64
2, 31040, Note_off_c, 0, 56, 64
2, 31104, Note_on_c, 0, 60, 89
2, 31104, Note_on_c, 0, 65, 89
2, 31104, Note_on_c, 0, 69, 89
2, 31232, Note_off_c, 0, 60, 64
2, 31232, Note_off_c, 0, 65, 64
2, 31232, Note_off_c, 0, 69, 64
2, 31248, Note_on_c, 0, 69, 89
2, 31248, Note_on_c, 0, 65, 89
2, 31248, Note_on_c, 0, 60, 89
2, 31280, Note_off_c, 0, 69, 64
2, 31280, Note_off_c, 0, 65, 64
2, 31280, Note_off_c, 0, 60, 64
2, 31296, Note_on_c, 0, 69, 89
2, 31296, Note_on_c, 0, 65, 89
2, 31296, Note_on_c, 0, 60, 89
2, 31328, Note_off_c, 0, 69, 64
2, 31328, Note_off_c, 0, 65, 64
2, 31328, Note_off_c, 0, 60, 64
2, 31344, Note_on_c, 0, 71, 89
2, 31344, Note_on_c, 0, 65, 89
2, 31344, Note_on_c, 0, 60, 89
2, 31376, Note_off_c, 0, 71, 64
2, 31376, Note_off_c, 0, 65, 64
2, 31376, Note_off_c, 0, 60, 64
2, 31392, Note_on_c, 0, 62, 89
2, 31392, Note_on_c, 0, 69, 89
2, 31392, Note_on_c, 0, 72, 89
2, 31520, Note_off_c, 0, 62, 64
2, 31520, Note_off_c, 0, 69, 64
2, 31520, Note_off_c, 0, 72, 64
2, 31536, Note_on_c, 0, 72, 89
2, 31536, Note_on_c, 0, 69, 89
2, 31536, Note_on_c, 0, 62, 89
2, 31568, Note_off_c, 0, 72, 64
2, 31568, Note_off_c, 0, 69, 64
2, 31568, Note_off_c, 0, 62, 64
2, 31584, Note_on_c, 0, 69, 89
2, 31584, Note_on_c, 0, 62, 89
2, 31584, Note_on_c, 0, 72, 89
2, 31616, Note_off_c, 0, 69, 64
2, 31616, Note_off_c, 0, 62, 64
2, 31616, Note_off_c, 0, 72, 64
2, 31632, Note_on_c, 0, 69, 89
2, 31632, Note_on_c, 0, 62, 89
2, 31632, Note_on_c, 0, 71, 89
2, 31664, Note_off_c, 0, 69, 64
2, 31664, Note_off_c, 0, 62, 64
2, 31664, Note_off_c, 0, 71, 64
2, 31680, Note_on_c, 0, 60, 89
2, 31680, Note_on_c, 0, 65, 89
2, 31680, Note_on_c, 0, 69, 89
2, 31808, Note_off_c, 0, 60, 64
2, 31808, Note_off_c, 0, 65, 64
2, 31808, Note_off_c, 0, 69, 64
2, 31824, Note_on_c, 0, 69, 89
2, 31824, Note_on_c, 0, 65, 89
2, 31824, Note_on_c, 0, 60, 89
2, 31856, Note_off_c, 0, 69, 64
2, 31856, Note_off_c, 0, 65, 64
2, 31856, Note_off_c, 0, 60, 64
2, 31872, Note_on_c, 0, 69, 89
2, 31872, Note_on_c, 0, 65, 89
2, 31872, Note_on_c, 0, 60, 89
2, 31904, Note_off_c, 0, 69, 64
2, 31904, Note_off_c, 0, 65, 64
2, 31904, Note_off_c, 0, 60, 64
2, 31920, Note_on_c, 0, 71, 89
2, 31920, Note_on_c, 0, 65, 89
2, 31920, Note_on_c, 0, 60, 89
2, 31952, Note_off_c, 0, 71, 64
2, 31952, Note_off_c, 0, 65, 64
2, 31952, Note_off_c, 0, 60, 64
2, 31968, Note_on_c, 0, 62, 89
2, 31968, Note_on_c, 0, 69, 89
2, 31968, Note_on_c, 0, 72, 89
2, 32096, Note_off_c, 0, 62, 64
2, 32096, Note_off_c, 0, 69, 64
2, 32096, Note_off_c, 0, 72, 64
2, 32112, Note_on_c, 0, 72, 89
2, 32112, Note_on_c, 0, 69, 89
2, 32112, Note_on_c, 0, 62, 89
2, 32144, Note_off_c, 0, 72, 64
2, 32144, Note_off_c, 0, 69, 64
2, 32144, Note_off_c, 0, 62, 64
2, 32160, Note_on_c, 0, 69, 89
2, 32160, Note_on_c, 0, 62, 89
2, 32160, Note_on_c, 0, 71, 89
2, 32192, Note_off_c, 0, 69, 64
2, 32192, Note_off_c, 0, 62, 64
2, 32192, Note_off_c, 0, 71, 64
2, 32208, Note_on_c, 0, 69, 89
2, 32208, Note_on_c, 0, 62, 89
2, 32240, Note_off_c, 0, 69, 64
2, 32240, Note_off_c, 0, 62, 64
2, 32256, Note_on_c, 0, 60, 89
2, 32256, Note_on_c, 0, 64, 89
2, 32256, Note_on_c, 0, 67, 89
2, 32320, Note_off_c, 0, 60, 64
2, 32320, Note_off_c, 0, 64, 64
2, 32320, Note_off_c, 0, 67, 64
2, 32352, Note_on_c, 0, 64, 89
2, 32352, Note_on_c, 0, 67, 89
2, 32352, Note_on_c, 0, 72, 89
2, 32416, Note_off_c, 0, 64, 64
2, 32416, Note_off_c, 0, 67, 64
2, 32416, Note_off_c, 0, 72, 64
2, 32448, Note_on_c, 0, 76, 89
2, 32448, Note_on_c, 0, 72, 89
2, 32448, Note_on_c, 0, 67, 89
2, 32512, Note_off_c, 0, 76, 64
2, 32512, Note_off_c, 0, 72, 64
2, 32512, Note_off_c, 0, 67, 64
2, 32544, Note_on_c, 0, 74, 89
2, 32544, Note_on_c, 0, 71, 89
2, 32544, Note_on_c, 0, 67, 89
2, 32672, Note_off_c, 0, 71, 64
2, 32672, Note_off_c, 0, 67, 64
2, 32688, Note_on_c, 0, 71, 89
2, 32688, Note_on_c, 0, 67, 89
2, 32688, Note_on_c, 0, 62, 89
2, 32720, Note_off_c, 0, 71, 64
2, 32720, Note_off_c, 0, 67, 64
2, 32720, Note_off_c, 0, 62, 64
2, 32736, Note_off_c, 0, 74, 64
2, 32736, Note_on_c, 0, 71, 89
2, 32736, Note_on_c, 0, 67, 89
2, 32736, Note_on_c, 0, 62, 89
2, 32768, Note_off_c, 0, 71, 64
2, 32768, Note_off_c, 0, 67, 64
2, 32768, Note_off_c, 0, 62, 64
2, 32784, Note_on_c, 0, 69, 89
2, 32784, Note_on_c, 0, 65, 89
2, 32784, Note_on_c, 0, 62, 89
2, 32816, Note_off_c, 0, 69, 64
2, 32816, Note_off_c, 0, 65, 64
2, 32816, Note_off_c, 0, 62, 64
2, 32832, Note_on_c, 0, 60, 89
2, 32832, Note_on_c, 0, 64, 89
2, 32832, Note_on_c, 0, 67, 89
2, 32896, Note_off_c, 0, 60, 64
2, 32896, Note_off_c, 0, 64, 64
2, 32896, Note_off_c, 0, 67, 64
2, 32928, Note_on_c, 0, 64, 89
2, 32928, Note_on_c, 0, 67, 89
2, 32928, Note_on_c, 0, 72, 89
2, 32992, Note_off_c, 0, 64, 64
2, 32992, Note_off_c, 0, 67, 64
2, 32992, Note_off_c, 0, 72, 64
2, 33024, Note_on_c, 0, 79, 89
2, 33024, Note_on_c, 0, 76, 89
2, 33024, Note_on_c, 0, 72, 89
2, 33088, Note_off_c, 0, 79, 64
2, 33088, Note_off_c, 0, 76, 64
2, 33088, Note_off_c, 0, 72, 64
2, 33120, Note_on_c, 0, 79, 89
2, 33120, Note_on_c, 0, 72, 89
2, 33120, Note_on_c, 0, 69, 89
2, 33184, Note_off_c, 0, 79, 64
2, 33184, Note_off_c, 0, 72, 64
2, 33184, Note_off_c, 0, 69, 64
2, 33216, Note_on_c, 0, 77, 89
2, 33216, Note_on_c, 0, 72, 89
2, 33216, Note_on_c, 0, 69, 89
2, 33280, Note_off_c, 0, 77, 64
2, 33280, Note_off_c, 0, 72, 64
2, 33280, Note_off_c, 0, 69, 64
2, 33312, Note_on_c, 0, 72, 89
2, 33312, Note_on_c, 0, 69, 89
2, 33312, Note_on_c, 0, 76, 89
2, 33344, Note_off_c, 0, 76, 64
2, 33360, Note_on_c, 0, 74, 89
2, 33376, Note_off_c, 0, 72, 64
2, 33376, Note_off_c, 0, 69, 64
2, 33392, Note_off_c, 0, 74, 64
2, 33408, Note_on_c, 0, 72, 89
2, 33408, Note_on_c, 0, 64, 89
2, 33408, Note_on_c, 0, 67, 89
2, 33536, Note_off_c, 0, 72, 64
2, 33536, Note_off_c, 0, 64, 64
2, 33536, Note_off_c, 0, 67, 64
2, 33552, Note_on_c, 0, 67, 89
2, 33552, Note_on_c, 0, 67, 89
2, 33584, Note_off_c, 0, 67, 64
2, 33584, Note_off_c, 0, 67, 64
2, 33600, Note_on_c, 0, 67, 89
2, 33600, Note_on_c, 0, 67, 89
2, 33632, Note_off_c, 0, 67, 64
2, 33632, Note_off_c, 0, 67, 64
2, 33648, Note_on_c, 0, 72, 89
2, 33648, Note_on_c, 0, 72, 89
2, 33680, Note_off_c, 0, 72, 64
2, 33680, Note_off_c, 0, 72, 64
2, 33696, Note_on_c, 0, 72, 89
2, 33696, Note_on_c, 0, 69, 89
2, 33696, Note_on_c, 0, 62, 89
2, 33824, Note_off_c, 0, 72, 64
2, 33824, Note_off_c, 0, 69, 64
2, 33824, Note_off_c, 0, 62, 64
2, 33840, Note_on_c, 0, 62, 89
2, 33840, Note_on_c, 0, 62, 89
2, 33872, Note_off_c, 0, 62, 64
2, 33872, Note_off_c, 0, 62, 64
2, 33888, Note_on_c, 0, 62, 89
2, 33888, Note_on_c, 0, 62, 89
2, 33920, Note_off_c, 0, 62, 64
2, 33920, Note_off_c, 0, 62, 64
2, 33936, Note_on_c, 0, 69, 89
2, 33936, Note_on_c, 0, 69, 89
2, 33968, Note_off_c, 0, 69, 64
2, 33968, Note_off_c, 0, 69, 64
2, 33984, Note_on_c, 0, 69, 89
2, 33984, Note_on_c, 0, 65, 89
2, 33984, Note_on_c, 0, 60, 89
2, 34112, Note_off_c, 0, 69, 64
2, 34112, Note_off_c, 0, 65, 64
2, 34112, Note_off_c, 0, 60, 64
2, 34128, Note_on_c, 0, 62, 89
2, 34128, Note_on_c, 0, 62, 89
2, 34160, Note_off_c, 0, 62, 64
2, 34160, Note_off_c, 0, 62, 64
2, 34176, Note_on_c, 0, 62, 89
2, 34176, Note_on_c, 0, 62, 89
2, 34208, Note_off_c, 0, 62, 64
2, 34208, Note_off_c, 0, 62, 64
2, 34224, Note_on_c, 0, 65, 89
2, 34224, Note_on_c, 0, 65, 89
2, 34256, Note_off_c, 0, 65, 64
2, 34256, Note_off_c, 0, 65, 64
2, 34272, Note_on_c, 0, 53, 89
2, 34272, Note_on_c, 0, 59, 89
2, 34400, Note_off_c, 0, 59, 64
2, 34416, Note_on_c, 0, 59, 89
2, 34448, Note_off_c, 0, 59, 64
2, 34464, Note_off_c, 0, 53, 64
2, 34464, Note_on_c, 0, 59, 89
2, 34496, Note_off_c, 0, 59, 64
2, 34512, Note_on_c, 0, 60, 89
2, 34544, Note_off_c, 0, 60, 64
2, 34560, Note_on_c, 0, 60, 89
2, 34560, Note_on_c, 0, 52, 89
2, 34560, Note_on_c, 0, 55, 89
2, 34688, Note_off_c, 0, 60, 64
2, 34688, Note_off_c, 0, 52, 64
2, 34688, Note_off_c, 0, 55, 64
2, 34704, Note_on_c, 0, 52, 89
2, 34736, Note_off_c, 0, 52, 64
2, 34752, Note_on_c, 0, 59, 89
2, 34784, Note_off_c, 0, 59, 64
2, 34800, Note_on_c, 0, 60, 89
2, 34800, Note_on_c, 0, 60, 89
2, 34832, Note_off_c, 0, 60, 64
2, 34832, Note_off_c, 0, 60, 64
2, 34848, Note_on_c, 0, 62, 89
2, 34848, Note_on_c, 0, 57, 89
2, 34848, Note_on_c, 0, 53, 89
2, 34976, Note_off_c, 0, 62, 64
2, 34976, Note_off_c, 0, 57, 64
2, 34976, Note_off_c, 0, 53, 64
2, 34992, Note_on_c, 0, 53, 89
2, 35024, Note_off_c, 0, 53, 64
2, 35040, Note_on_c, 0, 57, 89
2, 35040, Note_on_c, 0, 57, 89
2, 35072, Note_off_c, 0, 57, 64
2, 35072, Note_off_c, 0, 57, 64
2, 35088, Note_on_c, 0, 62, 89
2, 35088, Note_on_c, 0, 62, 89
2, 35120, Note_off_c, 0, 62, 64
2, 35120, Note_off_c, 0, 62, 64
2, 35136, Note_on_c, 0, 62, 89
2, 35136, Note_on_c, 0, 58, 89
2, 35136, Note_on_c, 0, 53, 89
2, 35264, Note_off_c, 0, 62, 64
2, 35264, Note_off_c, 0, 58, 64
2, 35264, Note_off_c, 0, 53, 64
2, 35328, Note_on_c, 0, 62, 89
2, 35328, Note_on_c, 0, 58, 89
2, 35328, Note_on_c, 0, 53, 89
2, 35392, Note_off_c, 0, 62, 64
2, 35392, Note_off_c, 0, 58, 64
2, 35392, Note_off_c, 0, 53, 64
2, 35424, Note_on_c, 0, 60, 89
2, 35424, Note_on_c, 0, 57, 89
2, 35424, Note_on_c, 0, 53, 89
2, 35552, Note_off_c, 0, 60, 64
2, 35552, Note_off_c, 0, 57, 64
2, 35552, Note_off_c, 0, 53, 64
2, 35568, Note_on_c, 0, 48, 89
2, 35568, Note_on_c, 0, 48, 89
2, 35600, Note_off_c, 0, 48, 64
2, 35600, Note_off_c, 0, 48, 64
2, 35616, Note_on_c, 0, 53, 89
2, 35616, Note_on_c, 0, 53, 89
2, 35648, Note_off_c, 0, 53, 64
2, 35648, Note_off_c, 0, 53, 64
2, 35664, Note_on_c, 0, 57, 89
2, 35664, Note_on_c, 0, 57, 89
2, 35696, Note_off_c, 0, 57, 64
2, 35696, Note_off_c, 0, 57, 64
2, 35712, Note_on_c, 0, 60, 89
2, 35712, Note_on_c, 0, 55, 89
2, 35712, Note_on_c, 0, 52, 89
2, 35840, Note_off_c, 0, 60, 64
2, 35840, Note_off_c, 0, 55, 64
2, 35840, Note_off_c, 0, 52, 64
2, 35856, Note_on_c, 0, 52, 89
2, 35856, Note_on_c, 0, 52, 89
2, 35888, Note_off_c, 0, 52, 64
2, 35888, Note_off_c, 0, 52, 64
2, 35904, Note_on_c, 0, 59, 89
2, 35904, Note_on_c, 0, 59, 89
2, 35936, Note_off_c, 0, 59, 64
2, 35936, Note_off_c, 0, 59, 64
2, 35952, Note_on_c, 0, 60, 89
2, 35952, Note_on_c, 0, 60, 89
2, 35984, Note_off_c, 0, 60, 64
2, 35984, Note_off_c, 0, 60, 64
2, 36000, Note_on_c, 0, 62, 89
2, 36000, Note_on_c, 0, 57, 89
2, 36000, Note_on_c, 0, 53, 89
2, 36128, Note_off_c, 0, 62, 64
2, 36128, Note_off_c, 0, 57, 64
2, 36128, Note_off_c, 0, 53, 64
2, 36144, Note_on_c, 0, 53, 89
2, 36144, Note_on_c, 0, 53, 89
2, 36176, Note_off_c, 0, 53, 64
2, 36176, Note_off_c, 0, 53, 64
2, 36192, Note_on_c, 0, 57, 89
2, 36192, Note_on_c, 0, 57, 89
2, 36224, Note_off_c, 0, 57, 64
2, 36224, Note_off_c, 0, 57, 64
2, 36240, Note_on_c, 0, 62, 89
2, 36240, Note_on_c, 0, 62, 89
2, 36272, Note_off_c, 0, 62, 64
2, 36272, Note_off_c, 0, 62, 64
2, 36288, Note_on_c, 0, 62, 89
2, 36288, Note_on_c, 0, 58, 89
2, 36288, Note_on_c, 0, 53, 89
2, 36416, Note_off_c, 0, 62, 64
2, 36416, Note_off_c, 0, 58, 64
2, 36416, Note_off_c, 0, 53, 64
2, 36432, Note_on_c, 0, 53, 89
2, 36432, Note_on_c, 0, 53, 89
2, 36464, Note_off_c, 0, 53, 64
2, 36464, Note_off_c, 0, 53, 64
2, 36480, Note_on_c, 0, 58, 89
2, 36512, Note_off_c, 0, 58, 64
2, 36528, Note_on_c, 0, 62, 89
2, 36528, Note_on_c, 0, 62, 89
2, 36560, Note_off_c, 0, 62, 64
2, 36560, Note_off_c, 0, 62, 64
2, 36576, Note_on_c, 0, 55, 89
2, 36576, Note_on_c, 0, 60, 89
2, 36576, Note_on_c, 0, 64, 89
2, 36704, Note_off_c, 0, 55, 64
2, 36704, Note_off_c, 0, 60, 64
2, 36704, Note_off_c, 0, 64, 64
2, 36720, Note_on_c, 0, 55, 89
2, 36720, Note_on_c, 0, 55, 89
2, 36752, Note_off_c, 0, 55, 64
2, 36752, Note_off_c, 0, 55, 64
2, 36768, Note_on_c, 0, 60, 89
2, 36768, Note_on_c, 0, 60, 89
2, 36800, Note_off_c, 0, 60, 64
2, 36800, Note_off_c, 0, 60, 64
2, 36816, Note_on_c, 0, 64, 89
2, 36816, Note_on_c, 0, 64, 89
2, 36848, Note_off_c, 0, 64, 64
2, 36848, Note_off_c, 0, 64, 64
2, 36864, Note_on_c, 0, 65, 89
2, 36864, Note_on_c, 0, 60, 89
2, 36864, Note_on_c, 0, 53, 89
2, 36992, Note_off_c, 0, 65, 64
2, 36992, Note_off_c, 0, 60, 64
2, 36992, Note_off_c, 0, 53, 64
2, 37008, Note_on_c, 0, 57, 89
2, 37008, Note_on_c, 0, 57, 89
2, 37040, Note_off_c, 0, 57, 64
2, 37040, Note_off_c, 0, 57, 64
2, 37056, Note_on_c, 0, 60, 89
2, 37056, Note_on_c, 0, 60, 89
2, 37088, Note_off_c, 0, 60, 64
2, 37088, Note_off_c, 0, 60, 64
2, 37104, Note_on_c, 0, 65, 89
2, 37104, Note_on_c, 0, 65, 89
2, 37136, Note_off_c, 0, 65, 64
2, 37136, Note_off_c, 0, 65, 64
2, 37152, Note_on_c, 0, 65, 89
2, 37152, Note_on_c, 0, 62, 89
2, 37152, Note_on_c, 0, 53, 89
2, 37280, Note_off_c, 0, 65, 64
2, 37280, Note_off_c, 0, 62, 64
2, 37280, Note_off_c, 0, 53, 64
2, 37296, Note_on_c, 0, 58, 89
2, 37296, Note_on_c, 0, 58, 89
2, 37328, Note_off_c, 0, 58, 64
2, 37328, Note_off_c, 0, 58, 64
2, 37344, Note_on_c, 0, 62, 89
2, 37344, Note_on_c, 0, 62, 89
2, 37376, Note_off_c, 0, 62, 64
2, 37376, Note_off_c, 0, 62, 64
2, 37392, Note_on_c, 0, 65, 89
2, 37392, Note_on_c, 0, 65, 89
2, 37424, Note_off_c, 0, 65, 64
2, 37424, Note_off_c, 0, 65, 64
2, 37440, Note_on_c, 0, 62, 89
2, 37440, Note_on_c, 0, 57, 89
2, 37440, Note_on_c, 0, 53, 89
2, 37504, Note_off_c, 0, 62, 64
2, 37504, Note_off_c, 0, 57, 64
2, 37504, Note_off_c, 0, 53, 64
2, 37536, Note_on_c, 0, 65, 89
2, 37536, Note_on_c, 0, 62, 89
2, 37536, Note_on_c, 0, 57, 89
2, 37600, Note_off_c, 0, 65, 64
2, 37600, Note_off_c, 0, 62, 64
2, 37600, Note_off_c, 0, 57, 64
2, 37632, Note_on_c, 0, 67, 89
2, 37632, Note_on_c, 0, 64, 89
2, 37632, Note_on_c, 0, 60, 89
2, 37696, Note_off_c, 0, 67, 64
2, 37696, Note_off_c, 0, 64, 64
2, 37696, Note_off_c, 0, 60, 64
2, 37728, Note_on_c, 0, 65, 89
2, 37728, Note_on_c, 0, 60, 89
2, 37728, Note_on_c, 0, 69, 89
2, 37856, Note_off_c, 0, 65, 64
2, 37856, Note_off_c, 0, 60, 64
2, 37856, Note_off_c, 0, 69, 64
2, 37872, Note_on_c, 0, 67, 89
2, 37904, Note_off_c, 0, 67, 64
2, 37920, Note_on_c, 0, 65, 89
2, 37920, Note_on_c, 0, 62, 89
2, 37920, Note_on_c, 0, 58, 89
2, 37984, Note_off_c, 0, 65, 64
2, 37984, Note_off_c, 0, 62, 64
2, 37984, Note_off_c, 0, 58, 64
2, 38016, Note_on_c, 0, 65, 89
2, 38016, Note_on_c, 0, 60, 89
2, 38016, Note_on_c, 0, 53, 89
2, 38144, Note_off_c, 0, 65, 64
2, 38144, Note_off_c, 0, 60, 64
2, 38144, Note_off_c, 0, 53, 64
2, 38160, Note_on_c, 0, 57, 89
2, 38160, Note_on_c, 0, 57, 89
2, 38192, Note_off_c, 0, 57, 64
2, 38192, Note_off_c, 0, 57, 64
2, 38208, Note_on_c, 0, 60, 89
2, 38208, Note_on_c, 0, 60, 89
2, 38240, Note_off_c, 0, 60, 64
2, 38240, Note_off_c, 0, 60, 64
2, 38256, Note_on_c, 0, 65, 89
2, 38256, Note_on_c, 0, 65, 89
2, 38288, Note_off_c, 0, 65, 64
2, 38288, Note_off_c, 0, 65, 64
2, 38304, Note_on_c, 0, 53, 89
2, 38304, Note_on_c, 0, 65, 89
2, 38304, Note_on_c, 0, 62, 89
2, 38432, Note_off_c, 0, 53, 64
2, 38432, Note_off_c, 0, 65, 64
2, 38432, Note_off_c, 0, 62, 64
2, 38448, Note_on_c, 0, 58, 89
2, 38448, Note_on_c, 0, 58, 89
2, 38480, Note_off_c, 0, 58, 64
2, 38480, Note_off_c, 0, 58, 64
2, 38496, Note_on_c, 0, 62, 89
2, 38496, Note_on_c, 0, 62, 89
2, 38528, Note_off_c, 0, 62, 64
2, 38528, Note_off_c, 0, 62, 64
2, 38544, Note_on_c, 0, 65, 89
2, 38544, Note_on_c, 0, 65, 89
2, 38576, Note_off_c, 0, 65, 64
2, 38576, Note_off_c, 0, 65, 64
2, 38592, Note_on_c, 0, 62, 89
2, 38592, Note_on_c, 0, 57, 89
2, 38592, Note_on_c, 0, 53, 89
2, 38656, Note_off_c, 0, 62, 64
2, 38656, Note_off_c, 0, 57, 64
2, 38656, Note_off_c, 0, 53, 64
2, 38688, Note_on_c, 0, 65, 89
2, 38688, Note_on_c, 0, 62, 89
2, 38688, Note_on_c, 0, 57, 89
2, 38752, Note_off_c, 0, 65, 64
2, 38752, Note_off_c, 0, 62, 64
2, 38752, Note_off_c, 0, 57, 64
2, 38784, Note_on_c, 0, 67, 89
2, 38784, Note_on_c, 0, 64, 89
2, 38784, Note_on_c, 0, 60, 89
2, 38848, Note_off_c, 0, 67, 64
2, 38848, Note_off_c, 0, 64, 64
2, 38848, Note_off_c, 0, 60, 64
2, 38880, Note_on_c, 0, 69, 89
2, 38880, Note_on_c, 0, 65, 89
2, 38912, Note_off_c, 0, 65, 64
2, 38928, Note_on_c, 0, 60, 89
2, 38960, Note_off_c, 0, 60, 64
2, 38976, Note_on_c, 0, 60, 89
2, 39008, Note_off_c, 0, 60, 64
2, 39024, Note_on_c, 0, 65, 89
2, 39056, Note_off_c, 0, 65, 64
2, 39072, Note_off_c, 0, 69, 64
2, 39072, Note_on_c, 0, 69, 89
2, 39136, Note_off_c, 0, 69, 64
2, 39168, Note_on_c, 0, 67, 89
2, 39168, Note_on_c, 0, 63, 89
2, 39168, Note_on_c, 0, 58, 89
2, 39232, Note_off_c, 0, 58, 64
2, 39264, Note_on_c, 0, 53, 89
2, 39296, Note_off_c, 0, 53, 64
2, 39312, Note_on_c, 0, 55, 89
2, 39344, Note_off_c, 0, 55, 64
2, 39360, Note_off_c, 0, 67, 64
2, 39360, Note_off_c, 0, 63, 64
2, 39360, Note_on_c, 0, 58, 89
2, 39424, Note_off_c, 0, 58, 64
2, 39456, Note_on_c, 0, 62, 89
2, 39456, Note_on_c, 0, 58, 89
2, 39488, Note_off_c, 0, 58, 64
2, 39504, Note_on_c, 0, 53, 89
2, 39520, Note_off_c, 0, 62, 64
2, 39536, Note_off_c, 0, 53, 64
2, 39552, Note_on_c, 0, 62, 89
2, 39552, Note_on_c, 0, 58, 89
2, 39552, Note_on_c, 0, 65, 89
2, 39616, Note_off_c, 0, 65, 64
2, 39648, Note_on_c, 0, 67, 89
2, 39680, Note_off_c, 0, 62, 64
2, 39680, Note_off_c, 0, 58, 64
2, 39712, Note_off_c, 0, 67, 64
2, 39744, Note_on_c, 0, 64, 89
2, 39744, Note_on_c, 0, 60, 89
2, 39744, Note_on_c, 0, 69, 89
2, 39872, Note_off_c, 0, 64, 64
2, 39872, Note_off_c, 0, 60, 64
2, 39872, Note_off_c, 0, 69, 64
2, 39888, Note_on_c, 0, 55, 89
2, 39920, Note_off_c, 0, 55, 64
2, 39936, Note_on_c, 0, 67, 89
2, 39936, Note_on_c, 0, 60, 89
2, 39968, Note_off_c, 0, 60, 64
2, 39984, Note_on_c, 0, 55, 89
2, 40000, Note_off_c, 0, 67, 64
2, 40016, Note_off_c, 0, 55, 64
2, 40032, Note_on_c, 0, 65, 89
2, 40032, Note_on_c, 0, 62, 89
2, 40032, Note_on_c, 0, 57, 89
2, 40096, Note_off_c, 0, 62, 64
2, 40096, Note_off_c, 0, 57, 64
2, 40128, Note_on_c, 0, 57, 89
2, 40160, Note_off_c, 0, 57, 64
2, 40176, Note_on_c, 0, 60, 89
2, 40208, Note_off_c, 0, 60, 64
2, 40224, Note_off_c, 0, 65, 64
2, 40224, Note_on_c, 0, 62, 89
2, 40256, Note_off_c, 0, 62, 64
2, 40272, Note_on_c, 0, 65, 89
2, 40304, Note_off_c, 0, 65, 64
2, 40320, Note_on_c, 0, 64, 89
2, 40320, Note_on_c, 0, 60, 89
2, 40320, Note_on_c, 0, 55, 89
2, 40384, Note_off_c, 0, 64, 64
2, 40384, Note_off_c, 0, 60, 64
2, 40384, Note_off_c, 0, 55, 64
2, 40416, Note_on_c, 0, 65, 89
2, 40416, Note_on_c, 0, 62, 89
2, 40416, Note_on_c, 0, 57, 89
2, 40480, Note_off_c, 0, 65, 64
2, 40480, Note_off_c, 0, 62, 64
2, 40480, Note_off_c, 0, 57, 64
2, 40512, Note_on_c, 0, 64, 89
2, 40512, Note_on_c, 0, 60, 89
2, 40512, Note_on_c, 0, 55, 89
2, 40576, Note_off_c, 0, 64, 64
2, 40576, Note_off_c, 0, 60, 64
2, 40576, Note_off_c, 0, 55, 64
2, 40608, Note_on_c, 0, 62, 89
2, 40608, Note_on_c, 0, 58, 89
2, 40640, Note_off_c, 0, 58, 64
2, 40656, Note_on_c, 0, 53, 89
2, 40672, Note_off_c, 0, 62, 64
2, 40688, Note_off_c, 0, 53, 64
2, 40704, Note_on_c, 0, 62, 89
2, 40704, Note_on_c, 0, 65, 89
2, 40704, Note_on_c, 0, 58, 89
2, 40768, Note_off_c, 0, 62, 64
2, 40768, Note_off_c, 0, 65, 64
2, 40768, Note_off_c, 0, 58, 64
2, 40800, Note_on_c, 0, 62, 89
2, 40800, Note_on_c, 0, 67, 89
2, 40800, Note_on_c, 0, 58, 89
2, 40864, Note_off_c, 0, 62, 64
2, 40864, Note_off_c, 0, 67, 64
2, 40864, Note_off_c, 0, 58, 64
2, 40896, Note_on_c, 0, 69, 89
2, 40896, Note_on_c, 0, 64, 89
2, 40896, Note_on_c, 0, 60, 89
2, 40960, Note_off_c, 0, 64, 64
2, 40960, Note_off_c, 0, 60, 64
2, 40992, Note_on_c, 0, 64, 89
2, 40992, Note_on_c, 0, 60, 89
2, 41024, Note_off_c, 0, 69, 64
2, 41024, Note_off_c, 0, 64, 64
2, 41024, Note_off_c, 0, 60, 64
2, 41040, Note_on_c, 0, 55, 89
2, 41072, Note_off_c, 0, 55, 64
2, 41088, Note_on_c, 0, 64, 89
2, 41088, Note_on_c, 0, 60, 89
2, 41088, Note_on_c, 0, 67, 89
2, 41120, Note_off_c, 0, 64, 64
2, 41120, Note_off_c, 0, 60, 64
2, 41136, Note_on_c, 0, 55, 89
2, 41152, Note_off_c, 0, 67, 64
2, 41168, Note_off_c, 0, 55, 64
2, 41184, Note_on_c, 0, 69, 89
2, 41184, Note_on_c, 0, 65, 89
2, 41184, Note_on_c, 0, 62, 89
2, 41184, Note_on_c, 0, 57, 89
2, 41376, Note_off_c, 0, 69, 64
2, 41376, Note_off_c, 0, 65, 64
2, 41376, Note_off_c, 0, 62, 64
2, 41376, Note_off_c, 0, 57, 64
2, 41376, End_track
3, 0, Start_track
3, 0, Title_t, "by: Elton John"
3, 0, Control_c, 1, 0, 0
3, 0, Program_c, 1, 54
3, 0, Time_signature, 3, 2, 96, 8
3, 0, Tempo, 576923
3, 0, Note_on_c, 1, 47, 89
3, 192, Note_off_c, 1, 47, 64
3, 288, Note_on_c, 1, 47, 89
3, 480, Note_off_c, 1, 47, 64
3, 576, Note_on_c, 1, 44, 89
3, 768, Note_off_c, 1, 44, 64
3, 864, Note_on_c, 1, 44, 89
3, 992, Note_off_c, 1, 44, 64
3, 1056, Note_on_c, 1, 44, 89
3, 1120, Note_off_c, 1, 44, 64
3, 1152, Note_on_c, 1, 40, 89
3, 1344, Note_off_c, 1, 40, 64
3, 1440, Note_on_c, 1, 35, 89
3, 1632, Note_off_c, 1, 35, 64
3, 1728, Note_on_c, 1, 42, 89
3, 1920, Note_off_c, 1, 42, 64
3, 2016, Note_on_c, 1, 42, 89
3, 2208, Note_off_c, 1, 42, 64
3, 2304, Note_on_c, 1, 35, 89
3, 2304, Note_on_c, 1, 35, 89
3, 2304, Note_on_c, 1, 35, 89
3, 2336, Note_off_c, 1, 35, 64
3, 2352, Note_on_c, 1, 42, 89
3, 2384, Note_off_c, 1, 42, 64
3, 2400, Note_on_c, 1, 47, 89
3, 2496, Note_off_c, 1, 35, 64
3, 2496, Note_off_c, 1, 35, 64
3, 2528, Note_off_c, 1, 47, 64
3, 2592, Note_on_c, 1, 47, 89
3, 2784, Note_off_c, 1, 47, 64
3, 2880, Note_on_c, 1, 44, 89
3, 3072, Note_off_c, 1, 44, 64
3, 3168, Note_on_c, 1, 44, 89
3, 3296, Note_off_c, 1, 44, 64
3, 3360, Note_on_c, 1, 44, 89
3, 3424, Note_off_c, 1, 44, 64
3, 3456, Note_on_c, 1, 40, 89
3, 3648, Note_off_c, 1, 40, 64
3, 3744, Note_on_c, 1, 35, 89
3, 3744, Note_on_c, 1, 35, 89
3, 3936, Note_off_c, 1, 35, 64
3, 3936, Note_off_c, 1, 35, 64
3, 4032, Note_on_c, 1, 42, 89
3, 4224, Note_off_c, 1, 42, 64
3, 4320, Note_on_c, 1, 42, 89
3, 4512, Note_off_c, 1, 42, 64
3, 4608, Note_on_c, 1, 52, 89
3, 4608, Note_on_c, 1, 49, 89
3, 4736, Note_off_c, 1, 52, 64
3, 4736, Note_off_c, 1, 49, 64
3, 4800, Note_on_c, 1, 52, 89
3, 4800, Note_on_c, 1, 49, 89
3, 4864, Note_off_c, 1, 52, 64
3, 4864, Note_off_c, 1, 49, 64
3, 4896, Note_on_c, 1, 52, 89
3, 4896, Note_on_c, 1, 47, 89
3, 5024, Note_off_c, 1, 52, 64
3, 5024, Note_off_c, 1, 47, 64
3, 5088, Note_on_c, 1, 52, 89
3, 5088, Note_on_c, 1, 47, 89
3, 5152, Note_off_c, 1, 52, 64
3, 5152, Note_off_c, 1, 47, 64
3, 5184, Note_on_c, 1, 38, 89
3, 5184, Note_on_c, 1, 38, 89
3, 5216, Note_off_c, 1, 38, 64
3, 5232, Note_on_c, 1, 45, 89
3, 5264, Note_off_c, 1, 45, 64
3, 5280, Note_on_c, 1, 50, 89
3, 5312, Note_off_c, 1, 38, 64
3, 5408, Note_off_c, 1, 50, 64
3, 5472, Note_on_c, 1, 45, 89
3, 5664, Note_off_c, 1, 45, 64
3, 5760, Note_on_c, 1, 42, 89
3, 5888, Note_off_c, 1, 42, 64
3, 5952, Note_on_c, 1, 42, 89
3, 6016, Note_off_c, 1, 42, 64
3, 6048, Note_on_c, 1, 49, 89
3, 6176, Note_off_c, 1, 49, 64
3, 6240, Note_on_c, 1, 49, 89
3, 6304, Note_off_c, 1, 49, 64
3, 6336, Note_on_c, 1, 47, 89
3, 6464, Note_off_c, 1, 47, 64
3, 6528, Note_on_c, 1, 47, 89
3, 6592, Note_off_c, 1, 47, 64
3, 6624, Note_on_c, 1, 49, 89
3, 6816, Note_off_c, 1, 49, 64
3, 6912, Note_on_c, 1, 38, 89
3, 6912, Note_on_c, 1, 38, 89
3, 6944, Note_off_c, 1, 38, 64
3, 6960, Note_on_c, 1, 45, 89
3, 6992, Note_off_c, 1, 45, 64
3, 7008, Note_on_c, 1, 50, 89
3, 7040, Note_off_c, 1, 38, 64
3, 7136, Note_off_c, 1, 50, 64
3, 7200, Note_on_c, 1, 45, 89
3, 7392, Note_off_c, 1, 45, 64
3, 7488, Note_on_c, 1, 40, 89
3, 7488, Note_on_c, 1, 40, 89
3, 7520, Note_off_c, 1, 40, 64
3, 7536, Note_on_c, 1, 47, 89
3, 7568, Note_off_c, 1, 47, 64
3, 7584, Note_on_c, 1, 52, 89
3, 7680, Note_off_c, 1, 40, 64
3, 7712, Note_off_c, 1, 52, 64
3, 7776, Note_on_c, 1, 47, 89
3, 7968, Note_off_c, 1, 47, 64
3, 8064, Note_on_c, 1, 42, 89
3, 8256, Note_off_c, 1, 42, 64
3, 8352, Note_on_c, 1, 40, 89
3, 8544, Note_off_c, 1, 40, 64
3, 8640, Note_on_c, 1, 42, 89
3, 9120, Note_off_c, 1, 42, 64
3, 9216, Note_on_c, 1, 47, 89
3, 9408, Note_off_c, 1, 47, 64
3, 9504, Note_on_c, 1, 47, 89
3, 9696, Note_off_c, 1, 47, 64
3, 9792, Note_on_c, 1, 44, 89
3, 9984, Note_off_c, 1, 44, 64
3, 10080, Note_on_c, 1, 44, 89
3, 10208, Note_off_c, 1, 44, 64
3, 10272, Note_on_c, 1, 44, 89
3, 10336, Note_off_c, 1, 44, 64
3, 10368, Note_on_c, 1, 40, 89
3, 10560, Note_off_c, 1, 40, 64
3, 10656, Note_on_c, 1, 35, 89
3, 10848, Note_off_c, 1, 35, 64
3, 10944, Note_on_c, 1, 42, 89
3, 11136, Note_off_c, 1, 42, 64
3, 11232, Note_on_c, 1, 42, 89
3, 11424, Note_off_c, 1, 42, 64
3, 11520, Note_on_c, 1, 35, 89
3, 11520, Note_on_c, 1, 35, 89
3, 11520, Note_on_c, 1, 35, 89
3, 11552, Note_off_c, 1, 35, 64
3, 11568, Note_on_c, 1, 42, 89
3, 11600, Note_off_c, 1, 42, 64
3, 11616, Note_on_c, 1, 47, 89
3, 11712, Note_off_c, 1, 35, 64
3, 11712, Note_off_c, 1, 35, 64
3, 11744, Note_off_c, 1, 47, 64
3, 11808, Note_on_c, 1, 47, 89
3, 12000, Note_off_c, 1, 47, 64
3, 12096, Note_on_c, 1, 44, 89
3, 12288, Note_off_c, 1, 44, 64
3, 12384, Note_on_c, 1, 44, 89
3, 12512, Note_off_c, 1, 44, 64
3, 12576, Note_on_c, 1, 44, 89
3, 12640, Note_off_c, 1, 44, 64
3, 12672, Note_on_c, 1, 40, 89
3, 12864, Note_off_c, 1, 40, 64
3, 12960, Note_on_c, 1, 35, 89
3, 12960, Note_on_c, 1, 35, 89
3, 13152, Note_off_c, 1, 35, 64
3, 13152, Note_off_c, 1, 35, 64
3, 13248, Note_on_c, 1, 42, 89
3, 13440, Note_off_c, 1, 42, 64
3, 13536, Note_on_c, 1, 42, 89
3, 13728, Note_off_c, 1, 42, 64
3, 13824, Note_on_c, 1, 52, 89
3, 13824, Note_on_c, 1, 49, 89
3, 13952, Note_off_c, 1, 52, 64
3, 13952, Note_off_c, 1, 49, 64
3, 14016, Note_on_c, 1, 52, 89
3, 14016, Note_on_c, 1, 49, 89
3, 14080, Note_off_c, 1, 52, 64
3, 14080, Note_off_c, 1, 49, 64
3, 14112, Note_on_c, 1, 52, 89
3, 14112, Note_on_c, 1, 47, 89
3, 14240, Note_off_c, 1, 52, 64
3, 14240, Note_off_c, 1, 47, 64
3, 14304, Note_on_c, 1, 52, 89
3, 14304, Note_on_c, 1, 47, 89
3, 14368, Note_off_c, 1, 52, 64
3, 14368, Note_off_c, 1, 47, 64
3, 14400, Note_on_c, 1, 38, 89
3, 14400, Note_on_c, 1, 38, 89
3, 14432, Note_off_c, 1, 38, 64
3, 14448, Note_on_c, 1, 45, 89
3, 14480, Note_off_c, 1, 45, 64
3, 14496, Note_on_c, 1, 50, 89
3, 14528, Note_off_c, 1, 38, 64
3, 14624, Note_off_c, 1, 50, 64
3, 14688, Note_on_c, 1, 45, 89
3, 14880, Note_off_c, 1, 45, 64
3, 14976, Note_on_c, 1, 42, 89
3, 15104, Note_off_c, 1, 42, 64
3, 15168, Note_on_c, 1, 42, 89
3, 15232, Note_off_c, 1, 42, 64
3, 15264, Note_on_c, 1, 49, 89
3, 15392, Note_off_c, 1, 49, 64
3, 15456, Note_on_c, 1, 49, 89
3, 15520, Note_off_c, 1, 49, 64
3, 15552, Note_on_c, 1, 47, 89
3, 15680, Note_off_c, 1, 47, 64
3, 15744, Note_on_c, 1, 47, 89
3, 15808, Note_off_c, 1, 47, 64
3, 15840, Note_on_c, 1, 49, 89
3, 16032, Note_off_c, 1, 49, 64
3, 16128, Note_on_c, 1, 38, 89
3, 16128, Note_on_c, 1, 38, 89
3, 16160, Note_off_c, 1, 38, 64
3, 16176, Note_on_c, 1, 45, 89
3, 16208, Note_off_c, 1, 45, 64
3, 16224, Note_on_c, 1, 50, 89
3, 16256, Note_off_c, 1, 38, 64
3, 16352, Note_off_c, 1, 50, 64
3, 16416, Note_on_c, 1, 45, 89
3, 16608, Note_off_c, 1, 45, 64
3, 16704, Note_on_c, 1, 40, 89
3, 16704, Note_on_c, 1, 40, 89
3, 16736, Note_off_c, 1, 40, 64
3, 16752, Note_on_c, 1, 47, 89
3, 16784, Note_off_c, 1, 47, 64
3, 16800, Note_on_c, 1, 52, 89
3, 16896, Note_off_c, 1, 40, 64
3, 16928, Note_off_c, 1, 52, 64
3, 16992, Note_on_c, 1, 47, 89
3, 17184, Note_off_c, 1, 47, 64
3, 17280, Note_on_c, 1, 42, 89
3, 17472, Note_off_c, 1, 42, 64
3, 17568, Note_on_c, 1, 40, 89
3, 17760, Note_off_c, 1, 40, 64
3, 17856, Note_on_c, 1, 42, 89
3, 18336, Note_off_c, 1, 42, 64
3, 18432, Note_on_c, 1, 45, 89
3, 18464, Note_off_c, 1, 45, 64
3, 18480, Note_on_c, 1, 54, 89
3, 18512, Note_off_c, 1, 54, 64
3, 18528, Note_on_c, 1, 57, 89
3, 18656, Note_off_c, 1, 57, 64
3, 18720, Note_on_c, 1, 45, 89
3, 18720, Note_on_c, 1, 45, 89
3, 18752, Note_off_c, 1, 45, 64
3, 18752, Note_off_c, 1, 45, 64
3, 18768, Note_on_c, 1, 53, 89
3, 18768, Note_on_c, 1, 53, 89
3, 18800, Note_off_c, 1, 53, 64
3, 18800, Note_off_c, 1, 53, 64
3, 18816, Note_on_c, 1, 57, 89
3, 18816, Note_on_c, 1, 57, 89
3, 18880, Note_off_c, 1, 57, 64
3, 18880, Note_off_c, 1, 57, 64
3, 18912, Note_on_c, 1, 57, 89
3, 18912, Note_on_c, 1, 57, 89
3, 18976, Note_off_c, 1, 57, 64
3, 18976, Note_off_c, 1, 57, 64
3, 19008, Note_on_c, 1, 45, 89
3, 19040, Note_off_c, 1, 45, 64
3, 19056, Note_on_c, 1, 54, 89
3, 19088, Note_off_c, 1, 54, 64
3, 19104, Note_on_c, 1, 57, 89
3, 19232, Note_off_c, 1, 57, 64
3, 19296, Note_on_c, 1, 45, 89
3, 19328, Note_off_c, 1, 45, 64
3, 19344, Note_on_c, 1, 53, 89
3, 19376, Note_off_c, 1, 53, 64
3, 19392, Note_on_c, 1, 57, 89
3, 19456, Note_off_c, 1, 57, 64
3, 19488, Note_on_c, 1, 57, 89
3, 19552, Note_off_c, 1, 57, 64
3, 19584, Note_on_c, 1, 43, 89
3, 19616, Note_off_c, 1, 43, 64
3, 19632, Note_on_c, 1, 52, 89
3, 19664, Note_off_c, 1, 52, 64
3, 19680, Note_on_c, 1, 55, 89
3, 19808, Note_off_c, 1, 55, 64
3, 19872, Note_on_c, 1, 41, 89
3, 19904, Note_off_c, 1, 41, 64
3, 19920, Note_on_c, 1, 50, 89
3, 19952, Note_off_c, 1, 50, 64
3, 19968, Note_on_c, 1, 53, 89
3, 20096, Note_off_c, 1, 53, 64
3, 20160, Note_on_c, 1, 40, 89
3, 20192, Note_off_c, 1, 40, 64
3, 20208, Note_on_c, 1, 48, 89
3, 20240, Note_off_c, 1, 48, 64
3, 20256, Note_on_c, 1, 52, 89
3, 20384, Note_off_c, 1, 52, 64
3, 20448, Note_on_c, 1, 40, 89
3, 20480, Note_off_c, 1, 40, 64
3, 20496, Note_on_c, 1, 47, 89
3, 20528, Note_off_c, 1, 47, 64
3, 20544, Note_on_c, 1, 52, 89
3, 20672, Note_off_c, 1, 52, 64
3, 20736, Note_on_c, 1, 45, 89
3, 20768, Note_off_c, 1, 45, 64
3, 20784, Note_on_c, 1, 54, 89
3, 20816, Note_off_c, 1, 54, 64
3, 20832, Note_on_c, 1, 57, 89
3, 20960, Note_off_c, 1, 57, 64
3, 21024, Note_on_c, 1, 45, 89
3, 21024, Note_on_c, 1, 45, 89
3, 21056, Note_off_c, 1, 45, 64
3, 21056, Note_off_c, 1, 45, 64
3, 21072, Note_on_c, 1, 53, 89
3, 21072, Note_on_c, 1, 53, 89
3, 21104, Note_off_c, 1, 53, 64
3, 21104, Note_off_c, 1, 53, 64
3, 21120, Note_on_c, 1, 57, 89
3, 21120, Note_on_c, 1, 57, 89
3, 21184, Note_off_c, 1, 57, 64
3, 21184, Note_off_c, 1, 57, 64
3, 21216, Note_on_c, 1, 57, 89
3, 21216, Note_on_c, 1, 57, 89
3, 21280, Note_off_c, 1, 57, 64
3, 21280, Note_off_c, 1, 57, 64
3, 21312, Note_on_c, 1, 45, 89
3, 21344, Note_off_c, 1, 45, 64
3, 21360, Note_on_c, 1, 54, 89
3, 21392, Note_off_c, 1, 54, 64
3, 21408, Note_on_c, 1, 57, 89
3, 21536, Note_off_c, 1, 57, 64
3, 21600, Note_on_c, 1, 45, 89
3, 21600, Note_on_c, 1, 45, 89
3, 21632, Note_off_c, 1, 45, 64
3, 21632, Note_off_c, 1, 45, 64
3, 21648, Note_on_c, 1, 53, 89
3, 21648, Note_on_c, 1, 53, 89
3, 21680, Note_off_c, 1, 53, 64
3, 21680, Note_off_c, 1, 53, 64
3, 21696, Note_on_c, 1, 57, 89
3, 21696, Note_on_c, 1, 57, 89
3, 21760, Note_off_c, 1, 57, 64
3, 21760, Note_off_c, 1, 57, 64
3, 21792, Note_on_c, 1, 57, 89
3, 21792, Note_on_c, 1, 57, 89
3, 21856, Note_off_c, 1, 57, 64
3, 21856, Note_off_c, 1, 57, 64
3, 21888, Note_on_c, 1, 43, 89
3, 21920, Note_off_c, 1, 43, 64
3, 21936, Note_on_c, 1, 52, 89
3, 21968, Note_off_c, 1, 52, 64
3, 21984, Note_on_c, 1, 55, 89
3, 22112, Note_off_c, 1, 55, 64
3, 22176, Note_on_c, 1, 43, 89
3, 22208, Note_off_c, 1, 43, 64
3, 22224, Note_on_c, 1, 50, 89
3, 22256, Note_off_c, 1, 50, 64
3, 22272, Note_on_c, 1, 53, 89
3, 22400, Note_off_c, 1, 53, 64
3, 22464, Note_on_c, 1, 45, 89
3, 22496, Note_off_c, 1, 45, 64
3, 22512, Note_on_c, 1, 52, 89
3, 22544, Note_off_c, 1, 52, 64
3, 22560, Note_on_c, 1, 57, 89
3, 22624, Note_off_c, 1, 57, 64
3, 22656, Note_on_c, 1, 57, 89
3, 22720, Note_off_c, 1, 57, 64
3, 22752, Note_on_c, 1, 40, 89
3, 22784, Note_off_c, 1, 40, 64
3, 22800, Note_on_c, 1, 47, 89
3, 22832, Note_off_c, 1, 47, 64
3, 22848, Note_on_c, 1, 52, 89
3, 22976, Note_off_c, 1, 52, 64
3, 23040, Note_on_c, 1, 41, 89
3, 23232, Note_off_c, 1, 41, 64
3, 23328, Note_on_c, 1, 42, 89
3, 23520, Note_off_c, 1, 42, 64
3, 23616, Note_on_c, 1, 41, 89
3, 23808, Note_off_c, 1, 41, 64
3, 23904, Note_on_c, 1, 42, 89
3, 24096, Note_off_c, 1, 42, 64
3, 24192, Note_on_c, 1, 43, 89
3, 24224, Note_off_c, 1, 43, 64
3, 24240, Note_on_c, 1, 52, 89
3, 24272, Note_off_c, 1, 52, 64
3, 24288, Note_on_c, 1, 55, 89
3, 24416, Note_off_c, 1, 55, 64
3, 24480, Note_on_c, 1, 41, 89
3, 24512, Note_off_c, 1, 41, 64
3, 24528, Note_on_c, 1, 50, 89
3, 24560, Note_off_c, 1, 50, 64
3, 24576, Note_on_c, 1, 53, 89
3, 24704, Note_off_c, 1, 53, 64
3, 24768, Note_on_c, 1, 40, 89
3, 24800, Note_off_c, 1, 40, 64
3, 24816, Note_on_c, 1, 48, 89
3, 24848, Note_off_c, 1, 48, 64
3, 24864, Note_on_c, 1, 52, 89
3, 24992, Note_off_c, 1, 52, 64
3, 25056, Note_on_c, 1, 45, 89
3, 25088, Note_off_c, 1, 45, 64
3, 25104, Note_on_c, 1, 52, 89
3, 25136, Note_off_c, 1, 52, 64
3, 25152, Note_on_c, 1, 57, 89
3, 25280, Note_off_c, 1, 57, 64
3, 25344, Note_on_c, 1, 43, 89
3, 25376, Note_off_c, 1, 43, 64
3, 25392, Note_on_c, 1, 52, 89
3, 25424, Note_off_c, 1, 52, 64
3, 25440, Note_on_c, 1, 55, 89
3, 25568, Note_off_c, 1, 55, 64
3, 25632, Note_on_c, 1, 42, 89
3, 25664, Note_off_c, 1, 42, 64
3, 25680, Note_on_c, 1, 50, 89
3, 25712, Note_off_c, 1, 50, 64
3, 25728, Note_on_c, 1, 54, 89
3, 25856, Note_off_c, 1, 54, 64
3, 25920, Note_on_c, 1, 41, 89
3, 25952, Note_off_c, 1, 41, 64
3, 25968, Note_on_c, 1, 50, 89
3, 26000, Note_off_c, 1, 50, 64
3, 26016, Note_on_c, 1, 53, 89
3, 26144, Note_off_c, 1, 53, 64
3, 26208, Note_on_c, 1, 40, 89
3, 26240, Note_off_c, 1, 40, 64
3, 26256, Note_on_c, 1, 47, 89
3, 26288, Note_off_c, 1, 47, 64
3, 26304, Note_on_c, 1, 52, 89
3, 26432, Note_off_c, 1, 52, 64
3, 26496, Note_on_c, 1, 45, 89
3, 26528, Note_off_c, 1, 45, 64
3, 26544, Note_on_c, 1, 54, 89
3, 26576, Note_off_c, 1, 54, 64
3, 26592, Note_on_c, 1, 57, 89
3, 26720, Note_off_c, 1, 57, 64
3, 26784, Note_on_c, 1, 45, 89
3, 26784, Note_on_c, 1, 45, 89
3, 26816, Note_off_c, 1, 45, 64
3, 26816, Note_off_c, 1, 45, 64
3, 26832, Note_on_c, 1, 53, 89
3, 26832, Note_on_c, 1, 53, 89
3, 26864, Note_off_c, 1, 53, 64
3, 26864, Note_off_c, 1, 53, 64
3, 26880, Note_on_c, 1, 57, 89
3, 26880, Note_on_c, 1, 57, 89
3, 26944, Note_off_c, 1, 57, 64
3, 26944, Note_off_c, 1, 57, 64
3, 26976, Note_on_c, 1, 57, 89
3, 26976, Note_on_c, 1, 57, 89
3, 27040, Note_off_c, 1, 57, 64
3, 27040, Note_off_c, 1, 57, 64
3, 27072, Note_on_c, 1, 45, 89
3, 27104, Note_off_c, 1, 45, 64
3, 27120, Note_on_c, 1, 54, 89
3, 27152, Note_off_c, 1, 54, 64
3, 27168, Note_on_c, 1, 57, 89
3, 27296, Note_off_c, 1, 57, 64
3, 27360, Note_on_c, 1, 45, 89
3, 27392, Note_off_c, 1, 45, 64
3, 27408, Note_on_c, 1, 53, 89
3, 27440, Note_off_c, 1, 53, 64
3, 27456, Note_on_c, 1, 57, 89
3, 27520, Note_off_c, 1, 57, 64
3, 27552, Note_on_c, 1, 57, 89
3, 27616, Note_off_c, 1, 57, 64
3, 27648, Note_on_c, 1, 43, 89
3, 27680, Note_off_c, 1, 43, 64
3, 27696, Note_on_c, 1, 52, 89
3, 27728, Note_off_c, 1, 52, 64
3, 27744, Note_on_c, 1, 55, 89
3, 27872, Note_off_c, 1, 55, 64
3, 27936, Note_on_c, 1, 41, 89
3, 27968, Note_off_c, 1, 41, 64
3, 27984, Note_on_c, 1, 50, 89
3, 28016, Note_off_c, 1, 50, 64
3, 28032, Note_on_c, 1, 53, 89
3, 28160, Note_off_c, 1, 53, 64
3, 28224, Note_on_c, 1, 40, 89
3, 28256, Note_off_c, 1, 40, 64
3, 28272, Note_on_c, 1, 48, 89
3, 28304, Note_off_c, 1, 48, 64
3, 28320, Note_on_c, 1, 52, 89
3, 28448, Note_off_c, 1, 52, 64
3, 28512, Note_on_c, 1, 40, 89
3, 28544, Note_off_c, 1, 40, 64
3, 28560, Note_on_c, 1, 47, 89
3, 28592, Note_off_c, 1, 47, 64
3, 28608, Note_on_c, 1, 52, 89
3, 28736, Note_off_c, 1, 52, 64
3, 28800, Note_on_c, 1, 45, 89
3, 28832, Note_off_c, 1, 45, 64
3, 28848, Note_on_c, 1, 54, 89
3, 28880, Note_off_c, 1, 54, 64
3, 28896, Note_on_c, 1, 57, 89
3, 29024, Note_off_c, 1, 57, 64
3, 29088, Note_on_c, 1, 45, 89
3, 29088, Note_on_c, 1, 45, 89
3, 29120, Note_off_c, 1, 45, 64
3, 29120, Note_off_c, 1, 45, 64
3, 29136, Note_on_c, 1, 53, 89
3, 29136, Note_on_c, 1, 53, 89
3, 29168, Note_off_c, 1, 53, 64
3, 29168, Note_off_c, 1, 53, 64
3, 29184, Note_on_c, 1, 57, 89
3, 29184, Note_on_c, 1, 57, 89
3, 29248, Note_off_c, 1, 57, 64
3, 29248, Note_off_c, 1, 57, 64
3, 29280, Note_on_c, 1, 57, 89
3, 29280, Note_on_c, 1, 57, 89
3, 29344, Note_off_c, 1, 57, 64
3, 29344, Note_off_c, 1, 57, 64
3, 29376, Note_on_c, 1, 45, 89
3, 29408, Note_off_c, 1, 45, 64
3, 29424, Note_on_c, 1, 54, 89
3, 29456, Note_off_c, 1, 54, 64
3, 29472, Note_on_c, 1, 57, 89
3, 29600, Note_off_c, 1, 57, 64
3, 29664, Note_on_c, 1, 45, 89
3, 29664, Note_on_c, 1, 45, 89
3, 29696, Note_off_c, 1, 45, 64
3, 29696, Note_off_c, 1, 45, 64
3, 29712, Note_on_c, 1, 53, 89
3, 29712, Note_on_c, 1, 53, 89
3, 29744, Note_off_c, 1, 53, 64
3, 29744, Note_off_c, 1, 53, 64
3, 29760, Note_on_c, 1, 57, 89
3, 29760, Note_on_c, 1, 57, 89
3, 29824, Note_off_c, 1, 57, 64
3, 29824, Note_off_c, 1, 57, 64
3, 29856, Note_on_c, 1, 57, 89
3, 29856, Note_on_c, 1, 57, 89
3, 29920, Note_off_c, 1, 57, 64
3, 29920, Note_off_c, 1, 57, 64
3, 29952, Note_on_c, 1, 43, 89
3, 29984, Note_off_c, 1, 43, 64
3, 30000, Note_on_c, 1, 52, 89
3, 30032, Note_off_c, 1, 52, 64
3, 30048, Note_on_c, 1, 55, 89
3, 30176, Note_off_c, 1, 55, 64
3, 30240, Note_on_c, 1, 43, 89
3, 30272, Note_off_c, 1, 43, 64
3, 30288, Note_on_c, 1, 50, 89
3, 30320, Note_off_c, 1, 50, 64
3, 30336, Note_on_c, 1, 53, 89
3, 30464, Note_off_c, 1, 53, 64
3, 30528, Note_on_c, 1, 45, 89
3, 30560, Note_off_c, 1, 45, 64
3, 30576, Note_on_c, 1, 52, 89
3, 30608, Note_off_c, 1, 52, 64
3, 30624, Note_on_c, 1, 57, 89
3, 30688, Note_off_c, 1, 57, 64
3, 30720, Note_on_c, 1, 57, 89
3, 30784, Note_off_c, 1, 57, 64
3, 30816, Note_on_c, 1, 40, 89
3, 30848, Note_off_c, 1, 40, 64
3, 30864, Note_on_c, 1, 47, 89
3, 30896, Note_off_c, 1, 47, 64
3, 30912, Note_on_c, 1, 52, 89
3, 31040, Note_off_c, 1, 52, 64
3, 31104, Note_on_c, 1, 41, 89
3, 31296, Note_off_c, 1, 41, 64
3, 31392, Note_on_c, 1, 42, 89
3, 31584, Note_off_c, 1, 42, 64
3, 31680, Note_on_c, 1, 41, 89
3, 31872, Note_off_c, 1, 41, 64
3, 31968, Note_on_c, 1, 42, 89
3, 32160, Note_off_c, 1, 42, 64
3, 32256, Note_on_c, 1, 43, 89
3, 32288, Note_off_c, 1, 43, 64
3, 32304, Note_on_c, 1, 52, 89
3, 32336, Note_off_c, 1, 52, 64
3, 32352, Note_on_c, 1, 55, 89
3, 32480, Note_off_c, 1, 55, 64
3, 32544, Note_on_c, 1, 41, 89
3, 32576, Note_off_c, 1, 41, 64
3, 32592, Note_on_c, 1, 50, 89
3, 32624, Note_off_c, 1, 50, 64
3, 32640, Note_on_c, 1, 53, 89
3, 32768, Note_off_c, 1, 53, 64
3, 32832, Note_on_c, 1, 40, 89
3, 32864, Note_off_c, 1, 40, 64
3, 32880, Note_on_c, 1, 48, 89
3, 32912, Note_off_c, 1, 48, 64
3, 32928, Note_on_c, 1, 52, 89
3, 33056, Note_off_c, 1, 52, 64
3, 33120, Note_on_c, 1, 45, 89
3, 33152, Note_off_c, 1, 45, 64
3, 33168, Note_on_c, 1, 52, 89
3, 33200, Note_off_c, 1, 52, 64
3, 33216, Note_on_c, 1, 57, 89
3, 33344, Note_off_c, 1, 57, 64
3, 33408, Note_on_c, 1, 43, 89
3, 33440, Note_off_c, 1, 43, 64
3, 33456, Note_on_c, 1, 52, 89
3, 33488, Note_off_c, 1, 52, 64
3, 33504, Note_on_c, 1, 55, 89
3, 33632, Note_off_c, 1, 55, 64
3, 33696, Note_on_c, 1, 42, 89
3, 33728, Note_off_c, 1, 42, 64
3, 33744, Note_on_c, 1, 50, 89
3, 33776, Note_off_c, 1, 50, 64
3, 33792, Note_on_c, 1, 54, 89
3, 33920, Note_off_c, 1, 54, 64
3, 33984, Note_on_c, 1, 41, 89
3, 34016, Note_off_c, 1, 41, 64
3, 34032, Note_on_c, 1, 50, 89
3, 34064, Note_off_c, 1, 50, 64
3, 34080, Note_on_c, 1, 53, 89
3, 34208, Note_off_c, 1, 53, 64
3, 34272, Note_on_c, 1, 43, 89
3, 34304, Note_off_c, 1, 43, 64
3, 34320, Note_on_c, 1, 50, 89
3, 34352, Note_off_c, 1, 50, 64
3, 34368, Note_on_c, 1, 43, 89
3, 34496, Note_off_c, 1, 43, 64
3, 34560, Note_on_c, 1, 36, 89
3, 34592, Note_off_c, 1, 36, 64
3, 34608, Note_on_c, 1, 43, 89
3, 34640, Note_off_c, 1, 43, 64
3, 34656, Note_on_c, 1, 48, 89
3, 34784, Note_off_c, 1, 48, 64
3, 34848, Note_on_c, 1, 40, 89
3, 34880, Note_off_c, 1, 40, 64
3, 34896, Note_on_c, 1, 43, 89
3, 34928, Note_off_c, 1, 43, 64
3, 34944, Note_on_c, 1, 48, 89
3, 35072, Note_off_c, 1, 48, 64
3, 35136, Note_on_c, 1, 34, 89
3, 35200, Note_off_c, 1, 34, 64
3, 35232, Note_on_c, 1, 46, 89
3, 35264, Note_off_c, 1, 46, 64
3, 35280, Note_on_c, 1, 50, 89
3, 35392, Note_off_c, 1, 50, 64
3, 35424, Note_on_c, 1, 41, 89
3, 35488, Note_off_c, 1, 41, 64
3, 35520, Note_on_c, 1, 41, 89
3, 35648, Note_off_c, 1, 41, 64
3, 35712, Note_on_c, 1, 36, 89
3, 35744, Note_off_c, 1, 36, 64
3, 35760, Note_on_c, 1, 43, 89
3, 35792, Note_off_c, 1, 43, 64
3, 35808, Note_on_c, 1, 48, 89
3, 35936, Note_off_c, 1, 48, 64
3, 36000, Note_on_c, 1, 36, 89
3, 36032, Note_off_c, 1, 36, 64
3, 36048, Note_on_c, 1, 43, 89
3, 36080, Note_off_c, 1, 43, 64
3, 36096, Note_on_c, 1, 48, 89
3, 36224, Note_off_c, 1, 48, 64
3, 36288, Note_on_c, 1, 34, 89
3, 36320, Note_off_c, 1, 34, 64
3, 36336, Note_on_c, 1, 41, 89
3, 36368, Note_off_c, 1, 41, 64
3, 36384, Note_on_c, 1, 46, 89
3, 36512, Note_off_c, 1, 46, 64
3, 36576, Note_on_c, 1, 34, 89
3, 36640, Note_off_c, 1, 34, 64
3, 36672, Note_on_c, 1, 46, 89
3, 36736, Note_off_c, 1, 46, 64
3, 36768, Note_on_c, 1, 46, 89
3, 36832, Note_off_c, 1, 46, 64
3, 36864, Note_on_c, 1, 45, 89
3, 36928, Note_off_c, 1, 45, 64
3, 36960, Note_on_c, 1, 45, 89
3, 37024, Note_off_c, 1, 45, 64
3, 37056, Note_on_c, 1, 45, 89
3, 37120, Note_off_c, 1, 45, 64
3, 37152, Note_on_c, 1, 46, 89
3, 37216, Note_off_c, 1, 46, 64
3, 37248, Note_on_c, 1, 46, 89
3, 37376, Note_off_c, 1, 46, 64
3, 37440, Note_on_c, 1, 38, 89
3, 37664, Note_off_c, 1, 38, 64
3, 37680, Note_on_c, 1, 40, 89
3, 37712, Note_off_c, 1, 40, 64
3, 37728, Note_on_c, 1, 41, 89
3, 37792, Note_off_c, 1, 41, 64
3, 37824, Note_on_c, 1, 45, 89
3, 37888, Note_off_c, 1, 45, 64
3, 37920, Note_on_c, 1, 47, 89
3, 37984, Note_off_c, 1, 47, 64
3, 38016, Note_on_c, 1, 45, 89
3, 38080, Note_off_c, 1, 45, 64
3, 38112, Note_on_c, 1, 45, 89
3, 38176, Note_off_c, 1, 45, 64
3, 38208, Note_on_c, 1, 45, 89
3, 38272, Note_off_c, 1, 45, 64
3, 38304, Note_on_c, 1, 46, 89
3, 38368, Note_off_c, 1, 46, 64
3, 38400, Note_on_c, 1, 46, 89
3, 38528, Note_off_c, 1, 46, 64
3, 38592, Note_on_c, 1, 38, 89
3, 38656, Note_off_c, 1, 38, 64
3, 38688, Note_on_c, 1, 38, 89
3, 38816, Note_off_c, 1, 38, 64
3, 38832, Note_on_c, 1, 40, 89
3, 38864, Note_off_c, 1, 40, 64
3, 38880, Note_on_c, 1, 41, 89
3, 38944, Note_off_c, 1, 41, 64
3, 38976, Note_on_c, 1, 45, 89
3, 39040, Note_off_c, 1, 45, 64
3, 39072, Note_on_c, 1, 48, 89
3, 39136, Note_off_c, 1, 48, 64
3, 39168, Note_on_c, 1, 41, 89
3, 39296, Note_off_c, 1, 41, 64
3, 39360, Note_on_c, 1, 41, 89
3, 39424, Note_off_c, 1, 41, 64
3, 39456, Note_on_c, 1, 46, 89
3, 39648, Note_off_c, 1, 46, 64
3, 39744, Note_on_c, 1, 36, 89
3, 39808, Note_off_c, 1, 36, 64
3, 39840, Note_on_c, 1, 48, 89
3, 39968, Note_off_c, 1, 48, 64
3, 40032, Note_on_c, 1, 38, 89
3, 40096, Note_off_c, 1, 38, 64
3, 40128, Note_on_c, 1, 50, 89
3, 40256, Note_off_c, 1, 50, 64
3, 40320, Note_on_c, 1, 38, 89
3, 40384, Note_off_c, 1, 38, 64
3, 40416, Note_on_c, 1, 38, 89
3, 40480, Note_off_c, 1, 38, 64
3, 40512, Note_on_c, 1, 36, 89
3, 40576, Note_off_c, 1, 36, 64
3, 40608, Note_on_c, 1, 34, 89
3, 40800, Note_off_c, 1, 34, 64
3, 40896, Note_on_c, 1, 36, 89
3, 40928, Note_off_c, 1, 36, 64
3, 40944, Note_on_c, 1, 43, 89
3, 40976, Note_off_c, 1, 43, 64
3, 40992, Note_on_c, 1, 48, 89
3, 41120, Note_off_c, 1, 48, 64
3, 41184, Note_on_c, 1, 50, 89
3, 41184, Note_on_c, 1, 38, 89
3, 41376, Note_off_c, 1, 50, 64
3, 41376, Note_off_c, 1, 38, 64
3, 41376, End_track
4, 0, Start_track
4, 0, Title_t, "(c)1981 Big Pig Music Ltd."
4, 0, Control_c, 2, 0, 0
4, 0, Time_signature, 3, 2, 96, 8
4, 0, Tempo, 576923
4, 0, Note_on_c, 2, 66, 0
4, 16, Note_off_c, 2, 66, 64
4, 16, End_track
5, 0, Start_track
5, 0, Title_t, "Coded by: The Jaded Fox"
5, 0, Control_c, 3, 0, 0
5, 0, Time_signature, 3, 2, 96, 8
5, 0, Tempo, 576923
5, 0, Note_on_c, 3, 65, 0
5, 16, Note_off_c, 3, 65, 64
5, 16, End_track
6, 0, Start_track
6, 0, Title_t, "jadedfox@otterspace.com"
6, 0, Control_c, 4, 0, 0
6, 0, Time_signature, 3, 2, 96, 8
6, 0, Tempo, 576923
6, 0, Note_on_c, 4, 65, 0
6, 16, Note_off_c, 4, 65, 64
6, 16, End_track
0, 0, End_of_file
