0, 0, Header, 0, 1, 120
1, 0, Start_track
1, 0, Time_signature, 4, 2, 24, 8
1, 0, Key_signature, 0, "major"
1, 0, Tempo, 1538462
1, 0, Marker_t, "untitled"
1, 0, Marker_t, "Copyright © 1997 by eric elliott"
1, 0, Marker_t, "eric elliott\012"
1, 0, Control_c, 0, 0, 5
1, 0, Control_c, 0, 32, 87
1, 0, Program_c, 0, 48
1, 0, Control_c, 0, 7, 90
1, 0, Control_c, 2, 7, 103
1, 0, Control_c, 1, 7, 119
1, 0, Control_c, 1, 0, 3
1, 0, Control_c, 1, 32, 96
1, 0, Program_c, 1, 35
1, 0, Control_c, 2, 0, 1
1, 0, Control_c, 2, 32, 112
1, 0, Program_c, 2, 66
1, 161, Control_c, 2, 1, 0
1, 240, Note_on_c, 0, 59, 100
1, 240, Note_on_c, 0, 56, 100
1, 240, Note_on_c, 0, 52, 100
1, 240, Note_on_c, 0, 63, 100
1, 240, Note_on_c, 0, 49, 100
1, 241, Note_on_c, 2, 62, 127
1, 247, Note_on_c, 2, 63, 127
1, 254, Note_on_c, 2, 62, 0
1, 340, Note_on_c, 2, 64, 127
1, 341, Note_on_c, 2, 63, 0
1, 350, Note_on_c, 2, 63, 127
1, 353, Note_on_c, 2, 64, 0
1, 360, Note_on_c, 0, 63, 0
1, 360, Note_on_c, 0, 56, 0
1, 360, Note_on_c, 0, 52, 0
1, 360, Note_on_c, 0, 59, 0
1, 360, Note_on_c, 0, 49, 0
1, 360, Note_on_c, 0, 58, 100
1, 360, Note_on_c, 0, 42, 100
1, 360, Note_on_c, 0, 61, 100
1, 360, Note_on_c, 0, 52, 100
1, 363, Note_on_c, 2, 61, 126
1, 365, Note_on_c, 2, 63, 0
1, 480, Note_on_c, 0, 52, 0
1, 480, Note_on_c, 0, 61, 0
1, 480, Note_on_c, 0, 58, 0
1, 480, Note_on_c, 0, 42, 0
1, 480, Note_on_c, 0, 61, 100
1, 480, Note_on_c, 0, 47, 100
1, 480, Note_on_c, 0, 66, 100
1, 480, Note_on_c, 0, 58, 100
1, 480, Note_on_c, 0, 54, 100
1, 480, Note_on_c, 1, 47, 127
1, 486, Note_on_c, 2, 66, 127
1, 493, Note_on_c, 2, 61, 0
1, 512, Control_c, 2, 1, 2
1, 533, Control_c, 2, 1, 4
1, 535, Control_c, 2, 1, 5
1, 539, Control_c, 2, 1, 6
1, 540, Control_c, 2, 1, 7
1, 553, Control_c, 2, 1, 9
1, 600, Note_on_c, 0, 66, 0
1, 600, Note_on_c, 0, 66, 100
1, 636, Note_on_c, 2, 66, 0
1, 641, Note_on_c, 2, 66, 127
1, 660, Note_on_c, 0, 66, 0
1, 660, Note_on_c, 0, 66, 100
1, 676, Note_on_c, 2, 66, 0
1, 680, Note_on_c, 2, 66, 127
1, 696, Control_c, 2, 1, 7
1, 701, Control_c, 2, 1, 6
1, 714, Control_c, 2, 1, 4
1, 719, Control_c, 2, 1, 3
1, 720, Note_on_c, 1, 47, 0
1, 720, Note_on_c, 0, 54, 0
1, 720, Note_on_c, 0, 47, 0
1, 720, Note_on_c, 0, 58, 0
1, 720, Note_on_c, 0, 61, 0
1, 720, Note_on_c, 0, 66, 0
1, 720, Note_on_c, 0, 55, 100
1, 720, Note_on_c, 1, 40, 127
1, 720, Note_on_c, 0, 59, 100
1, 720, Note_on_c, 0, 40, 100
1, 720, Note_on_c, 0, 66, 100
1, 720, Note_on_c, 0, 62, 100
1, 720, Control_c, 2, 1, 2
1, 721, Note_on_c, 2, 66, 0
1, 723, Control_c, 2, 1, 1
1, 724, Control_c, 2, 1, 0
1, 724, Note_on_c, 2, 66, 127
1, 834, Note_on_c, 2, 65, 127
1, 836, Note_on_c, 2, 66, 0
1, 839, Note_on_c, 2, 66, 117
1, 840, Note_on_c, 0, 40, 0
1, 840, Note_on_c, 0, 55, 0
1, 840, Note_on_c, 0, 62, 0
1, 840, Note_on_c, 1, 40, 0
1, 840, Note_on_c, 0, 59, 0
1, 840, Note_on_c, 0, 66, 0
1, 840, Note_on_c, 0, 66, 100
1, 840, Note_on_c, 0, 55, 100
1, 840, Note_on_c, 1, 45, 127
1, 840, Note_on_c, 0, 45, 100
1, 840, Note_on_c, 0, 61, 100
1, 847, Note_on_c, 2, 65, 0
1, 960, Note_on_c, 0, 45, 0
1, 960, Note_on_c, 0, 66, 0
1, 960, Note_on_c, 0, 55, 0
1, 960, Note_on_c, 2, 66, 0
1, 960, Note_on_c, 0, 61, 0
1, 960, Note_on_c, 1, 45, 0
1, 960, Note_on_c, 0, 61, 100
1, 960, Note_on_c, 0, 57, 100
1, 960, Note_on_c, 0, 50, 100
1, 960, Note_on_c, 0, 66, 100
1, 960, Note_on_c, 1, 38, 127
1, 963, Note_on_c, 2, 66, 116
1, 1179, Note_on_c, 2, 66, 0
1, 1185, Note_on_c, 2, 65, 127
1, 1188, Note_on_c, 2, 66, 126
1, 1194, Note_on_c, 2, 65, 0
1, 1196, Note_on_c, 2, 67, 127
1, 1200, Note_on_c, 0, 66, 0
1, 1200, Note_on_c, 0, 61, 0
1, 1200, Note_on_c, 1, 38, 0
1, 1200, Note_on_c, 0, 50, 0
1, 1200, Note_on_c, 0, 57, 0
1, 1200, Note_on_c, 0, 53, 100
1, 1200, Note_on_c, 0, 60, 100
1, 1200, Note_on_c, 1, 46, 127
1, 1200, Note_on_c, 0, 46, 100
1, 1200, Note_on_c, 0, 68, 100
1, 1200, Note_on_c, 0, 61, 100
1, 1204, Note_on_c, 2, 68, 113
1, 1206, Note_on_c, 2, 66, 0
1, 1206, Note_on_c, 2, 67, 0
1, 1319, Note_on_c, 2, 70, 127
1, 1320, Note_on_c, 0, 61, 0
1, 1320, Note_on_c, 0, 60, 0
1, 1320, Note_on_c, 0, 46, 0
1, 1320, Note_on_c, 0, 53, 0
1, 1320, Note_on_c, 1, 46, 0
1, 1320, Note_on_c, 0, 68, 0
1, 1320, Note_on_c, 0, 39, 100
1, 1320, Note_on_c, 0, 61, 100
1, 1320, Note_on_c, 0, 67, 100
1, 1320, Note_on_c, 1, 39, 127
1, 1320, Note_on_c, 0, 70, 100
1, 1321, Note_on_c, 2, 68, 0
1, 1440, Note_on_c, 1, 39, 0
1, 1440, Note_on_c, 0, 39, 0
1, 1440, Note_on_c, 0, 61, 0
1, 1440, Note_on_c, 0, 67, 0
1, 1440, Note_on_c, 0, 70, 0
1, 1440, Note_on_c, 0, 67, 100
1, 1440, Note_on_c, 1, 32, 127
1, 1440, Note_on_c, 0, 55, 100
1, 1440, Note_on_c, 0, 63, 100
1, 1440, Note_on_c, 0, 72, 100
1, 1440, Note_on_c, 0, 44, 100
1, 1445, Note_on_c, 2, 71, 112
1, 1452, Note_on_c, 2, 72, 123
1, 1456, Note_on_c, 2, 71, 0
1, 1459, Note_on_c, 2, 70, 0
1, 1498, Control_c, 2, 1, 1
1, 1503, Control_c, 2, 1, 3
1, 1516, Control_c, 2, 1, 5
1, 1522, Control_c, 2, 1, 7
1, 1529, Control_c, 2, 1, 9
1, 1535, Control_c, 2, 1, 11
1, 1540, Control_c, 2, 1, 13
1, 1547, Control_c, 2, 1, 15
1, 1551, Control_c, 2, 1, 17
1, 1556, Control_c, 2, 1, 19
1, 1560, Control_c, 2, 1, 21
1, 1564, Control_c, 2, 1, 23
1, 1568, Control_c, 2, 1, 25
1, 1571, Control_c, 2, 1, 27
1, 1574, Control_c, 2, 1, 29
1, 1577, Control_c, 2, 1, 31
1, 1580, Control_c, 2, 1, 33
1, 1584, Control_c, 2, 1, 35
1, 1589, Control_c, 2, 1, 37
1, 1590, Note_on_c, 0, 72, 100
1, 1593, Control_c, 2, 1, 38
1, 1598, Note_on_c, 2, 72, 0
1, 1604, Note_on_c, 2, 72, 127
1, 1620, Note_on_c, 0, 72, 0
1, 1620, Note_on_c, 0, 72, 0
1, 1620, Note_on_c, 0, 72, 100
1, 1633, Note_on_c, 2, 72, 0
1, 1633, Control_c, 2, 1, 36
1, 1639, Note_on_c, 2, 72, 127
1, 1639, Control_c, 2, 1, 35
1, 1650, Note_on_c, 0, 72, 0
1, 1674, Note_on_c, 2, 72, 0
1, 1675, Note_on_c, 2, 71, 127
1, 1679, Note_on_c, 2, 72, 127
1, 1680, Note_on_c, 1, 32, 0
1, 1680, Note_on_c, 0, 44, 0
1, 1680, Note_on_c, 0, 63, 0
1, 1680, Note_on_c, 0, 55, 0
1, 1680, Note_on_c, 0, 67, 0
1, 1680, Note_on_c, 0, 62, 100
1, 1680, Note_on_c, 0, 43, 100
1, 1680, Note_on_c, 0, 58, 100
1, 1680, Note_on_c, 1, 31, 127
1, 1680, Note_on_c, 0, 65, 100
1, 1680, Note_on_c, 0, 72, 100
1, 1685, Note_on_c, 2, 71, 0
1, 1720, Control_c, 2, 1, 34
1, 1793, Note_on_c, 2, 72, 0
1, 1798, Note_on_c, 2, 72, 127
1, 1800, Note_on_c, 1, 31, 0
1, 1800, Note_on_c, 0, 43, 0
1, 1800, Note_on_c, 0, 62, 0
1, 1800, Note_on_c, 0, 58, 0
1, 1800, Note_on_c, 0, 72, 0
1, 1800, Note_on_c, 0, 65, 0
1, 1800, Note_on_c, 0, 58, 100
1, 1800, Note_on_c, 1, 36, 127
1, 1800, Note_on_c, 0, 48, 100
1, 1800, Note_on_c, 0, 67, 100
1, 1800, Note_on_c, 0, 64, 100
1, 1800, Note_on_c, 0, 72, 100
1, 1871, Control_c, 2, 1, 32
1, 1893, Note_on_c, 2, 70, 127
1, 1894, Note_on_c, 2, 72, 0
1, 1906, Note_on_c, 2, 70, 0
1, 1908, Note_on_c, 2, 72, 127
1, 1920, Note_on_c, 0, 64, 0
1, 1920, Note_on_c, 0, 58, 0
1, 1920, Note_on_c, 1, 36, 0
1, 1920, Note_on_c, 0, 48, 0
1, 1920, Note_on_c, 0, 67, 0
1, 1920, Note_on_c, 0, 72, 0
1, 1920, Note_on_c, 0, 69, 100
1, 1920, Note_on_c, 1, 29, 127
1, 1920, Note_on_c, 0, 52, 100
1, 1920, Note_on_c, 0, 55, 100
1, 1920, Note_on_c, 0, 41, 100
1, 1920, Note_on_c, 0, 60, 100
1, 1927, Note_on_c, 2, 68, 121
1, 1930, Note_on_c, 2, 72, 0
1, 1935, Note_on_c, 2, 68, 0
1, 1937, Control_c, 2, 1, 31
1, 1937, Note_on_c, 2, 69, 127
1, 1954, Control_c, 2, 1, 29
1, 2095, Control_c, 2, 1, 27
1, 2110, Control_c, 2, 1, 24
1, 2112, Control_c, 2, 1, 23
1, 2116, Control_c, 2, 1, 22
1, 2123, Control_c, 2, 1, 17
1, 2124, Control_c, 2, 1, 16
1, 2126, Control_c, 2, 1, 14
1, 2130, Control_c, 2, 1, 12
1, 2132, Control_c, 2, 1, 10
1, 2133, Control_c, 2, 1, 9
1, 2136, Control_c, 2, 1, 7
1, 2137, Control_c, 2, 1, 6
1, 2139, Control_c, 2, 1, 5
1, 2140, Control_c, 2, 1, 4
1, 2142, Control_c, 2, 1, 2
1, 2147, Control_c, 2, 1, 0
1, 2160, Note_on_c, 0, 41, 0
1, 2160, Note_on_c, 0, 69, 0
1, 2160, Note_on_c, 1, 29, 0
1, 2160, Note_on_c, 0, 52, 0
1, 2160, Note_on_c, 0, 55, 0
1, 2160, Note_on_c, 0, 60, 0
1, 2160, Note_on_c, 1, 37, 127
1, 2160, Note_on_c, 0, 56, 100
1, 2160, Note_on_c, 0, 59, 100
1, 2160, Note_on_c, 0, 63, 100
1, 2160, Note_on_c, 0, 49, 100
1, 2160, Note_on_c, 0, 52, 100
1, 2170, Note_on_c, 2, 62, 114
1, 2177, Note_on_c, 2, 63, 127
1, 2181, Note_on_c, 2, 69, 0
1, 2184, Note_on_c, 2, 62, 0
1, 2186, Control_c, 2, 1, 3
1, 2190, Control_c, 2, 1, 5
1, 2191, Control_c, 2, 1, 6
1, 2194, Control_c, 2, 1, 7
1, 2198, Control_c, 2, 1, 9
1, 2203, Control_c, 2, 1, 10
1, 2215, Control_c, 2, 1, 11
1, 2264, Note_on_c, 2, 63, 0
1, 2264, Note_on_c, 2, 64, 127
1, 2275, Note_on_c, 2, 63, 127
1, 2278, Note_on_c, 2, 64, 0
1, 2280, Note_on_c, 1, 37, 0
1, 2280, Note_on_c, 0, 52, 0
1, 2280, Note_on_c, 0, 56, 0
1, 2280, Note_on_c, 0, 59, 0
1, 2280, Note_on_c, 0, 63, 0
1, 2280, Note_on_c, 0, 49, 0
1, 2280, Note_on_c, 0, 58, 100
1, 2280, Note_on_c, 0, 42, 100
1, 2280, Note_on_c, 0, 61, 100
1, 2280, Note_on_c, 1, 30, 127
1, 2280, Note_on_c, 0, 49, 100
1, 2290, Note_on_c, 2, 61, 115
1, 2291, Note_on_c, 2, 63, 0
1, 2372, Note_on_c, 2, 61, 0
1, 2372, Note_on_c, 2, 63, 127
1, 2386, Note_on_c, 2, 61, 127
1, 2396, Note_on_c, 2, 63, 0
1, 2400, Note_on_c, 1, 30, 0
1, 2400, Note_on_c, 0, 49, 0
1, 2400, Note_on_c, 0, 61, 0
1, 2400, Note_on_c, 0, 58, 0
1, 2400, Note_on_c, 0, 42, 0
1, 2400, Note_on_c, 0, 58, 100
1, 2400, Note_on_c, 0, 66, 100
1, 2400, Note_on_c, 1, 35, 127
1, 2400, Note_on_c, 0, 51, 100
1, 2400, Note_on_c, 0, 47, 100
1, 2404, Note_on_c, 2, 61, 0
1, 2404, Note_on_c, 2, 66, 127
1, 2425, Note_on_c, 2, 66, 0
1, 2426, Note_on_c, 2, 54, 127
1, 2464, Note_on_c, 2, 66, 127
1, 2465, Note_on_c, 2, 54, 0
1, 2480, Note_on_c, 2, 66, 0
1, 2483, Note_on_c, 2, 66, 126
1, 2520, Note_on_c, 0, 66, 0
1, 2520, Note_on_c, 0, 66, 100
1, 2530, Control_c, 2, 1, 13
1, 2531, Control_c, 2, 1, 14
1, 2580, Note_on_c, 0, 66, 0
1, 2580, Note_on_c, 0, 66, 100
1, 2640, Note_on_c, 0, 66, 0
1, 2640, Note_on_c, 0, 51, 0
1, 2640, Note_on_c, 1, 35, 0
1, 2640, Note_on_c, 0, 58, 0
1, 2640, Note_on_c, 0, 47, 0
1, 2640, Note_on_c, 1, 28, 127
1, 2640, Note_on_c, 0, 66, 100
1, 2640, Note_on_c, 1, 28, 127
1, 2640, Note_on_c, 0, 55, 100
1, 2640, Note_on_c, 0, 62, 100
1, 2640, Note_on_c, 0, 40, 100
1, 2640, Note_on_c, 1, 28, 127
1, 2640, Note_on_c, 0, 47, 100
1, 2699, Note_on_c, 2, 66, 0
1, 2704, Note_on_c, 2, 66, 127
1, 2760, Note_on_c, 0, 55, 0
1, 2760, Note_on_c, 0, 47, 0
1, 2760, Note_on_c, 1, 28, 0
1, 2760, Note_on_c, 0, 62, 0
1, 2760, Note_on_c, 0, 66, 0
1, 2760, Note_on_c, 1, 28, 0
1, 2760, Note_on_c, 1, 28, 0
1, 2760, Note_on_c, 0, 40, 0
1, 2760, Note_on_c, 0, 52, 100
1, 2760, Note_on_c, 0, 66, 100
1, 2760, Note_on_c, 0, 45, 100
1, 2760, Note_on_c, 0, 55, 100
1, 2760, Note_on_c, 1, 33, 127
1, 2760, Note_on_c, 0, 61, 100
1, 2792, Note_on_c, 2, 66, 0
1, 2795, Note_on_c, 2, 66, 121
1, 2827, Note_on_c, 2, 66, 0
1, 2830, Note_on_c, 2, 66, 126
1, 2838, Control_c, 2, 1, 13
1, 2873, Note_on_c, 2, 66, 0
1, 2873, Note_on_c, 2, 65, 127
1, 2878, Note_on_c, 2, 66, 127
1, 2880, Note_on_c, 1, 33, 0
1, 2880, Note_on_c, 0, 55, 0
1, 2880, Note_on_c, 0, 52, 0
1, 2880, Note_on_c, 0, 66, 0
1, 2880, Note_on_c, 0, 45, 0
1, 2880, Note_on_c, 0, 61, 0
1, 2880, Note_on_c, 0, 57, 100
1, 2880, Note_on_c, 0, 61, 100
1, 2880, Note_on_c, 1, 38, 127
1, 2880, Note_on_c, 0, 66, 100
1, 2880, Note_on_c, 0, 45, 100
1, 2880, Note_on_c, 0, 54, 100
1, 2880, Note_on_c, 0, 38, 100
1, 2884, Note_on_c, 2, 65, 0
1, 3112, Note_on_c, 2, 62, 126
1, 3117, Note_on_c, 2, 66, 0
1, 3120, Note_on_c, 0, 54, 0
1, 3120, Note_on_c, 0, 38, 0
1, 3120, Note_on_c, 0, 66, 0
1, 3120, Note_on_c, 0, 57, 0
1, 3120, Note_on_c, 1, 38, 0
1, 3120, Note_on_c, 0, 61, 0
1, 3120, Note_on_c, 0, 45, 0
1, 3120, Note_on_c, 0, 59, 100
1, 3120, Note_on_c, 0, 56, 100
1, 3120, Note_on_c, 0, 52, 100
1, 3120, Note_on_c, 0, 49, 100
1, 3120, Note_on_c, 1, 37, 127
1, 3120, Note_on_c, 0, 63, 100
1, 3121, Note_on_c, 2, 63, 127
1, 3129, Note_on_c, 2, 62, 0
1, 3208, Note_on_c, 2, 63, 0
1, 3209, Note_on_c, 2, 64, 127
1, 3217, Note_on_c, 2, 63, 127
1, 3221, Note_on_c, 2, 64, 0
1, 3237, Note_on_c, 2, 63, 0
1, 3237, Note_on_c, 2, 61, 127
1, 3240, Note_on_c, 0, 63, 0
1, 3240, Note_on_c, 0, 49, 0
1, 3240, Note_on_c, 0, 56, 0
1, 3240, Note_on_c, 0, 52, 0
1, 3240, Note_on_c, 0, 59, 0
1, 3240, Note_on_c, 1, 37, 0
1, 3240, Note_on_c, 0, 58, 100
1, 3240, Note_on_c, 0, 52, 100
1, 3240, Note_on_c, 0, 42, 100
1, 3240, Note_on_c, 0, 61, 100
1, 3240, Note_on_c, 1, 30, 127
1, 3334, Note_on_c, 2, 63, 127
1, 3336, Note_on_c, 2, 61, 0
1, 3347, Note_on_c, 2, 61, 127
1, 3348, Note_on_c, 2, 63, 0
1, 3360, Note_on_c, 0, 61, 0
1, 3360, Note_on_c, 0, 52, 0
1, 3360, Note_on_c, 0, 42, 0
1, 3360, Note_on_c, 0, 58, 0
1, 3360, Note_on_c, 1, 30, 0
1, 3360, Note_on_c, 0, 47, 100
1, 3360, Note_on_c, 0, 54, 100
1, 3360, Note_on_c, 0, 58, 100
1, 3360, Note_on_c, 1, 35, 127
1, 3360, Note_on_c, 0, 63, 100
1, 3368, Note_on_c, 2, 63, 127
1, 3371, Note_on_c, 2, 61, 0
1, 3383, Note_on_c, 2, 63, 0
1, 3388, Note_on_c, 2, 63, 127
1, 3593, Note_on_c, 2, 67, 127
1, 3600, Note_on_c, 2, 63, 0
1, 3600, Note_on_c, 1, 35, 0
1, 3600, Note_on_c, 0, 63, 0
1, 3600, Note_on_c, 0, 58, 0
1, 3600, Note_on_c, 0, 47, 0
1, 3600, Note_on_c, 0, 54, 0
1, 3600, Note_on_c, 1, 35, 127
1, 3600, Note_on_c, 0, 47, 100
1, 3600, Note_on_c, 0, 68, 100
1, 3600, Note_on_c, 0, 58, 100
1, 3600, Note_on_c, 0, 54, 100
1, 3602, Note_on_c, 2, 68, 127
1, 3605, Note_on_c, 2, 67, 0
1, 3678, Note_on_c, 2, 68, 0
1, 3679, Note_on_c, 2, 66, 127
1, 3680, Note_on_c, 0, 68, 0
1, 3680, Note_on_c, 0, 66, 100
1, 3750, Note_on_c, 2, 63, 127
1, 3752, Note_on_c, 2, 66, 0
1, 3760, Note_on_c, 0, 66, 0
1, 3760, Note_on_c, 0, 63, 100
1, 3828, Note_on_c, 2, 61, 127
1, 3830, Note_on_c, 2, 63, 0
1, 3840, Note_on_c, 0, 47, 0
1, 3840, Note_on_c, 0, 54, 0
1, 3840, Note_on_c, 0, 58, 0
1, 3840, Note_on_c, 1, 35, 0
1, 3840, Note_on_c, 0, 63, 0
1, 3840, Note_on_c, 1, 37, 127
1, 3840, Note_on_c, 0, 59, 100
1, 3840, Note_on_c, 0, 56, 100
1, 3840, Note_on_c, 0, 52, 100
1, 3840, Note_on_c, 0, 49, 100
1, 3840, Note_on_c, 0, 61, 100
1, 4030, Note_on_c, 2, 62, 127
1, 4037, Note_on_c, 2, 61, 0
1, 4040, Note_on_c, 2, 63, 127
1, 4043, Note_on_c, 2, 62, 0
1, 4055, Note_on_c, 2, 63, 0
1, 4058, Note_on_c, 2, 61, 127
1, 4080, Note_on_c, 0, 49, 0
1, 4080, Note_on_c, 0, 52, 0
1, 4080, Note_on_c, 0, 59, 0
1, 4080, Note_on_c, 0, 56, 0
1, 4080, Note_on_c, 1, 37, 0
1, 4080, Note_on_c, 0, 61, 0
1, 4080, Note_on_c, 0, 42, 100
1, 4080, Note_on_c, 0, 52, 100
1, 4080, Note_on_c, 0, 49, 100
1, 4080, Note_on_c, 0, 46, 100
1, 4080, Note_on_c, 1, 30, 127
1, 4080, Note_on_c, 0, 59, 100
1, 4081, Note_on_c, 2, 61, 0
1, 4083, Note_on_c, 2, 59, 115
1, 4189, Note_on_c, 2, 61, 127
1, 4192, Note_on_c, 2, 59, 0
1, 4200, Note_on_c, 0, 59, 0
1, 4200, Note_on_c, 0, 61, 100
1, 4261, Note_on_c, 2, 61, 0
1, 4264, Note_on_c, 2, 59, 121
1, 4277, Note_on_c, 2, 61, 127
1, 4283, Note_on_c, 2, 59, 0
1, 4291, Note_on_c, 2, 61, 0
1, 4293, Note_on_c, 2, 66, 127
1, 4310, Note_on_c, 2, 66, 0
1, 4313, Note_on_c, 2, 63, 114
1, 4320, Note_on_c, 0, 42, 0
1, 4320, Note_on_c, 0, 46, 0
1, 4320, Note_on_c, 0, 52, 0
1, 4320, Note_on_c, 0, 49, 0
1, 4320, Note_on_c, 1, 30, 0
1, 4320, Note_on_c, 0, 61, 0
1, 4320, Note_on_c, 1, 35, 127
1, 4320, Note_on_c, 0, 63, 100
1, 4320, Note_on_c, 0, 47, 100
1, 4320, Note_on_c, 0, 58, 100
1, 4320, Note_on_c, 0, 61, 100
1, 4320, Note_on_c, 0, 66, 100
1, 4335, Note_on_c, 2, 63, 0
1, 4339, Note_on_c, 2, 63, 121
1, 4411, Control_c, 2, 1, 11
1, 4542, Note_on_c, 2, 63, 0
1, 4554, Note_on_c, 2, 69, 127
1, 4560, Note_on_c, 0, 66, 0
1, 4560, Note_on_c, 0, 58, 0
1, 4560, Note_on_c, 0, 63, 0
1, 4560, Note_on_c, 0, 47, 0
1, 4560, Note_on_c, 0, 61, 0
1, 4560, Note_on_c, 0, 66, 100
1, 4560, Note_on_c, 0, 70, 100
1, 4560, Note_on_c, 0, 58, 100
1, 4560, Note_on_c, 0, 63, 100
1, 4560, Note_on_c, 0, 61, 100
1, 4560, Note_on_c, 0, 47, 100
1, 4563, Note_on_c, 2, 70, 117
1, 4566, Note_on_c, 2, 69, 0
1, 4636, Note_on_c, 2, 70, 0
1, 4638, Note_on_c, 2, 66, 127
1, 4640, Note_on_c, 0, 70, 0
1, 4640, Note_on_c, 0, 66, 100
1, 4709, Note_on_c, 2, 66, 0
1, 4709, Note_on_c, 2, 63, 127
1, 4720, Note_on_c, 0, 66, 0
1, 4720, Note_on_c, 0, 63, 100
1, 4785, Note_on_c, 2, 63, 0
1, 4800, Note_on_c, 1, 35, 0
1, 4800, Note_on_c, 0, 63, 0
1, 4800, Note_on_c, 0, 66, 0
1, 4800, Note_on_c, 0, 58, 0
1, 4800, Note_on_c, 0, 47, 0
1, 4800, Note_on_c, 0, 61, 0
1, 4800, Note_on_c, 0, 63, 0
1, 4800, Note_on_c, 0, 59, 100
1, 4800, Note_on_c, 0, 49, 100
1, 4800, Note_on_c, 0, 61, 100
1, 4800, Note_on_c, 2, 61, 120
1, 4800, Note_on_c, 1, 37, 127
1, 4800, Note_on_c, 0, 52, 100
1, 4800, Note_on_c, 0, 56, 100
1, 4970, Note_on_c, 2, 61, 0
1, 4994, Note_on_c, 2, 63, 115
1, 5003, Note_on_c, 2, 63, 0
1, 5006, Note_on_c, 2, 61, 127
1, 5013, Note_on_c, 2, 61, 0
1, 5023, Note_on_c, 2, 62, 127
1, 5031, Note_on_c, 2, 63, 127
1, 5035, Note_on_c, 2, 62, 0
1, 5040, Note_on_c, 1, 37, 0
1, 5040, Note_on_c, 0, 56, 0
1, 5040, Note_on_c, 0, 49, 0
1, 5040, Note_on_c, 0, 61, 0
1, 5040, Note_on_c, 0, 59, 0
1, 5040, Note_on_c, 0, 52, 0
1, 5040, Note_on_c, 0, 49, 100
1, 5040, Note_on_c, 0, 59, 100
1, 5040, Note_on_c, 1, 42, 127
1, 5040, Note_on_c, 0, 55, 100
1, 5040, Note_on_c, 0, 52, 100
1, 5049, Note_on_c, 2, 63, 0
1, 5055, Note_on_c, 2, 62, 127
1, 5057, Note_on_c, 2, 63, 127
1, 5064, Note_on_c, 2, 62, 0
1, 5160, Note_on_c, 0, 59, 0
1, 5160, Note_on_c, 0, 58, 100
1, 5160, Note_on_c, 0, 42, 100
1, 5174, Note_on_c, 2, 61, 127
1, 5175, Note_on_c, 2, 63, 0
1, 5235, Note_on_c, 2, 61, 0
1, 5235, Note_on_c, 2, 63, 127
1, 5251, Note_on_c, 2, 63, 0
1, 5251, Note_on_c, 2, 61, 127
1, 5272, Note_on_c, 2, 61, 0
1, 5275, Note_on_c, 2, 66, 127
1, 5280, Note_on_c, 0, 58, 0
1, 5280, Note_on_c, 0, 49, 0
1, 5280, Note_on_c, 0, 52, 0
1, 5280, Note_on_c, 1, 42, 0
1, 5280, Note_on_c, 0, 55, 0
1, 5280, Note_on_c, 0, 42, 0
1, 5280, Note_on_c, 0, 47, 100
1, 5280, Note_on_c, 0, 66, 100
1, 5280, Note_on_c, 1, 35, 127
1, 5280, Note_on_c, 0, 58, 100
1, 5280, Note_on_c, 0, 61, 100
1, 5280, Note_on_c, 0, 54, 100
1, 5297, Note_on_c, 2, 66, 0
1, 5301, Note_on_c, 2, 54, 127
1, 5323, Note_on_c, 2, 66, 125
1, 5329, Note_on_c, 2, 54, 0
1, 5400, Note_on_c, 0, 66, 0
1, 5400, Note_on_c, 0, 66, 100
1, 5460, Note_on_c, 0, 66, 0
1, 5460, Note_on_c, 0, 66, 100
1, 5487, Note_on_c, 2, 66, 0
1, 5491, Note_on_c, 2, 66, 127
1, 5520, Note_on_c, 0, 47, 0
1, 5520, Note_on_c, 0, 54, 0
1, 5520, Note_on_c, 0, 61, 0
1, 5520, Note_on_c, 1, 35, 0
1, 5520, Note_on_c, 0, 58, 0
1, 5520, Note_on_c, 0, 66, 0
1, 5520, Note_on_c, 0, 59, 100
1, 5520, Note_on_c, 0, 40, 100
1, 5520, Note_on_c, 0, 62, 100
1, 5520, Note_on_c, 0, 55, 100
1, 5520, Note_on_c, 1, 40, 127
1, 5520, Note_on_c, 0, 66, 100
1, 5532, Note_on_c, 2, 66, 0
1, 5534, Note_on_c, 2, 66, 126
1, 5632, Note_on_c, 2, 65, 127
1, 5634, Note_on_c, 2, 66, 0
1, 5640, Note_on_c, 0, 55, 0
1, 5640, Note_on_c, 0, 66, 0
1, 5640, Note_on_c, 0, 40, 0
1, 5640, Note_on_c, 0, 62, 0
1, 5640, Note_on_c, 0, 59, 0
1, 5640, Note_on_c, 1, 40, 0
1, 5640, Note_on_c, 0, 61, 100
1, 5640, Note_on_c, 0, 66, 100
1, 5640, Note_on_c, 0, 45, 100
1, 5640, Note_on_c, 0, 55, 100
1, 5640, Note_on_c, 1, 33, 127
1, 5640, Note_on_c, 2, 66, 127
1, 5647, Note_on_c, 2, 65, 0
1, 5656, Control_c, 2, 1, 13
1, 5732, Note_on_c, 2, 67, 127
1, 5737, Note_on_c, 2, 66, 0
1, 5743, Note_on_c, 2, 67, 0
1, 5745, Note_on_c, 2, 69, 127
1, 5756, Note_on_c, 2, 69, 0
1, 5760, Note_on_c, 1, 33, 0
1, 5760, Note_on_c, 0, 45, 0
1, 5760, Note_on_c, 0, 61, 0
1, 5760, Note_on_c, 0, 66, 0
1, 5760, Note_on_c, 0, 55, 0
1, 5760, Note_on_c, 0, 61, 100
1, 5760, Note_on_c, 1, 38, 127
1, 5760, Note_on_c, 0, 57, 100
1, 5760, Note_on_c, 0, 50, 100
1, 5760, Note_on_c, 0, 66, 100
1, 5769, Note_on_c, 2, 66, 116
1, 5970, Note_on_c, 2, 65, 127
1, 5975, Note_on_c, 2, 66, 0
1, 5980, Note_on_c, 2, 66, 127
1, 5985, Note_on_c, 2, 65, 0
1, 5990, Note_on_c, 2, 67, 127
1, 5995, Note_on_c, 2, 66, 0
1, 6000, Note_on_c, 0, 66, 0
1, 6000, Note_on_c, 1, 38, 0
1, 6000, Note_on_c, 0, 57, 0
1, 6000, Note_on_c, 0, 61, 0
1, 6000, Note_on_c, 2, 67, 0
1, 6000, Note_on_c, 0, 50, 0
1, 6000, Note_on_c, 2, 68, 122
1, 6000, Note_on_c, 0, 60, 100
1, 6000, Note_on_c, 0, 53, 100
1, 6000, Note_on_c, 0, 61, 100
1, 6000, Note_on_c, 0, 46, 100
1, 6000, Note_on_c, 0, 68, 100
1, 6000, Note_on_c, 1, 34, 127
1, 6112, Note_on_c, 2, 68, 0
1, 6119, Note_on_c, 2, 70, 125
1, 6120, Note_on_c, 0, 68, 0
1, 6120, Note_on_c, 0, 46, 0
1, 6120, Note_on_c, 0, 53, 0
1, 6120, Note_on_c, 0, 61, 0
1, 6120, Note_on_c, 0, 60, 0
1, 6120, Note_on_c, 1, 34, 0
1, 6120, Note_on_c, 0, 67, 100
1, 6120, Note_on_c, 0, 61, 100
1, 6120, Note_on_c, 0, 70, 100
1, 6120, Note_on_c, 0, 39, 100
1, 6120, Note_on_c, 1, 39, 127
1, 6223, Note_on_c, 2, 70, 0
1, 6226, Note_on_c, 2, 68, 127
1, 6232, Note_on_c, 2, 70, 120
1, 6236, Note_on_c, 2, 68, 0
1, 6239, Note_on_c, 2, 71, 127
1, 6240, Note_on_c, 0, 39, 0
1, 6240, Note_on_c, 0, 67, 0
1, 6240, Note_on_c, 1, 39, 0
1, 6240, Note_on_c, 0, 70, 0
1, 6240, Note_on_c, 0, 61, 0
1, 6240, Note_on_c, 0, 72, 100
1, 6240, Note_on_c, 0, 67, 100
1, 6240, Note_on_c, 0, 44, 100
1, 6240, Note_on_c, 0, 55, 100
1, 6240, Note_on_c, 0, 63, 100
1, 6240, Note_on_c, 1, 32, 127
1, 6242, Note_on_c, 2, 70, 0
1, 6249, Note_on_c, 2, 71, 0
1, 6250, Note_on_c, 2, 72, 127
1, 6335, Control_c, 2, 1, 14
1, 6375, Control_c, 2, 1, 15
1, 6390, Note_on_c, 0, 72, 100
1, 6397, Note_on_c, 2, 72, 0
1, 6411, Note_on_c, 2, 72, 120
1, 6420, Note_on_c, 0, 72, 0
1, 6420, Note_on_c, 0, 72, 0
1, 6420, Note_on_c, 0, 72, 100
1, 6444, Note_on_c, 2, 72, 0
1, 6446, Note_on_c, 2, 71, 127
1, 6450, Note_on_c, 0, 72, 0
1, 6450, Note_on_c, 2, 72, 127
1, 6454, Note_on_c, 2, 71, 0
1, 6477, Note_on_c, 2, 71, 127
1, 6478, Note_on_c, 2, 72, 0
1, 6480, Note_on_c, 0, 63, 0
1, 6480, Note_on_c, 0, 55, 0
1, 6480, Note_on_c, 0, 44, 0
1, 6480, Note_on_c, 1, 32, 0
1, 6480, Note_on_c, 0, 67, 0
1, 6480, Note_on_c, 0, 62, 100
1, 6480, Note_on_c, 0, 58, 100
1, 6480, Note_on_c, 0, 43, 100
1, 6480, Note_on_c, 0, 72, 100
1, 6480, Note_on_c, 1, 31, 127
1, 6480, Note_on_c, 0, 65, 100
1, 6483, Note_on_c, 2, 72, 127
1, 6489, Note_on_c, 2, 71, 0
1, 6590, Note_on_c, 2, 72, 0
1, 6595, Note_on_c, 2, 72, 121
1, 6595, Note_on_c, 2, 71, 123
1, 6600, Note_on_c, 1, 31, 0
1, 6600, Note_on_c, 0, 62, 0
1, 6600, Note_on_c, 0, 72, 0
1, 6600, Note_on_c, 0, 58, 0
1, 6600, Note_on_c, 0, 43, 0
1, 6600, Note_on_c, 0, 65, 0
1, 6600, Note_on_c, 0, 64, 100
1, 6600, Note_on_c, 0, 58, 100
1, 6600, Note_on_c, 1, 36, 127
1, 6600, Note_on_c, 0, 67, 100
1, 6600, Note_on_c, 0, 48, 100
1, 6600, Note_on_c, 0, 72, 100
1, 6610, Note_on_c, 2, 71, 0
1, 6690, Note_on_c, 2, 70, 127
1, 6695, Note_on_c, 2, 70, 0
1, 6700, Note_on_c, 2, 72, 0
1, 6710, Note_on_c, 2, 72, 127
1, 6720, Note_on_c, 2, 72, 0
1, 6720, Note_on_c, 0, 48, 0
1, 6720, Note_on_c, 0, 64, 0
1, 6720, Note_on_c, 1, 36, 0
1, 6720, Note_on_c, 0, 58, 0
1, 6720, Note_on_c, 0, 67, 0
1, 6720, Note_on_c, 0, 72, 0
1, 6720, Note_on_c, 0, 69, 100
1, 6720, Note_on_c, 0, 52, 100
1, 6720, Note_on_c, 0, 60, 100
1, 6720, Note_on_c, 0, 41, 100
1, 6720, Note_on_c, 0, 55, 100
1, 6720, Note_on_c, 1, 29, 127
1, 6720, Note_on_c, 1, 29, 127
1, 6720, Note_on_c, 2, 68, 127
1, 6726, Note_on_c, 2, 68, 0
1, 6730, Note_on_c, 2, 69, 127
1, 6765, Control_c, 2, 1, 14
1, 6948, Note_on_c, 2, 69, 0
1, 6960, Note_on_c, 0, 41, 0
1, 6960, Note_on_c, 0, 55, 0
1, 6960, Note_on_c, 0, 52, 0
1, 6960, Note_on_c, 0, 60, 0
1, 6960, Note_on_c, 1, 29, 0
1, 6960, Note_on_c, 1, 29, 0
1, 6960, Note_on_c, 0, 69, 0
1, 6960, Note_on_c, 0, 49, 100
1, 6960, Note_on_c, 1, 37, 127
1, 6960, Note_on_c, 0, 52, 100
1, 6960, Note_on_c, 0, 56, 100
1, 6960, Note_on_c, 0, 63, 100
1, 6960, Note_on_c, 0, 59, 100
1, 6968, Note_on_c, 2, 62, 127
1, 6972, Note_on_c, 2, 63, 127
1, 6978, Note_on_c, 2, 62, 0
1, 7057, Note_on_c, 2, 63, 0
1, 7061, Note_on_c, 2, 64, 120
1, 7068, Note_on_c, 2, 63, 127
1, 7072, Note_on_c, 2, 64, 0
1, 7080, Note_on_c, 0, 49, 0
1, 7080, Note_on_c, 0, 59, 0
1, 7080, Note_on_c, 1, 37, 0
1, 7080, Note_on_c, 0, 52, 0
1, 7080, Note_on_c, 0, 56, 0
1, 7080, Note_on_c, 0, 63, 0
1, 7080, Note_on_c, 0, 42, 100
1, 7080, Note_on_c, 1, 30, 127
1, 7080, Note_on_c, 1, 30, 127
1, 7080, Note_on_c, 0, 58, 100
1, 7080, Note_on_c, 0, 49, 100
1, 7080, Note_on_c, 0, 61, 100
1, 7086, Note_on_c, 2, 61, 127
1, 7089, Note_on_c, 2, 63, 0
1, 7102, Note_on_c, 2, 61, 0
1, 7107, Note_on_c, 2, 61, 127
1, 7124, Note_on_c, 2, 61, 0
1, 7128, Note_on_c, 2, 61, 127
1, 7167, Note_on_c, 2, 61, 0
1, 7167, Note_on_c, 2, 63, 127
1, 7182, Note_on_c, 2, 61, 127
1, 7187, Note_on_c, 2, 63, 0
1, 7192, Note_on_c, 2, 61, 0
1, 7200, Note_on_c, 0, 61, 0
1, 7200, Note_on_c, 1, 30, 0
1, 7200, Note_on_c, 1, 30, 0
1, 7200, Note_on_c, 0, 42, 0
1, 7200, Note_on_c, 0, 49, 0
1, 7200, Note_on_c, 0, 58, 0
1, 7200, Note_on_c, 0, 47, 100
1, 7200, Note_on_c, 0, 58, 100
1, 7200, Note_on_c, 0, 51, 100
1, 7200, Note_on_c, 1, 35, 127
1, 7200, Note_on_c, 0, 66, 100
1, 7210, Control_c, 2, 1, 13
1, 7210, Note_on_c, 2, 66, 101
1, 7229, Note_on_c, 2, 54, 107
1, 7235, Note_on_c, 2, 54, 0
1, 7250, Note_on_c, 2, 54, 127
1, 7260, Note_on_c, 2, 66, 0
1, 7273, Note_on_c, 2, 66, 127
1, 7280, Note_on_c, 2, 54, 0
1, 7288, Note_on_c, 2, 54, 106
1, 7293, Note_on_c, 2, 66, 0
1, 7297, Note_on_c, 2, 54, 0
1, 7297, Note_on_c, 2, 66, 127
1, 7320, Note_on_c, 0, 66, 0
1, 7320, Note_on_c, 0, 66, 100
1, 7380, Note_on_c, 0, 66, 0
1, 7380, Note_on_c, 0, 66, 100
1, 7440, Note_on_c, 0, 66, 0
1, 7440, Note_on_c, 1, 35, 0
1, 7440, Note_on_c, 0, 51, 0
1, 7440, Note_on_c, 0, 47, 0
1, 7440, Note_on_c, 0, 58, 0
1, 7440, Note_on_c, 0, 66, 100
1, 7440, Note_on_c, 0, 40, 100
1, 7440, Note_on_c, 0, 47, 100
1, 7440, Note_on_c, 0, 55, 100
1, 7440, Note_on_c, 1, 40, 127
1, 7440, Note_on_c, 0, 62, 100
1, 7512, Note_on_c, 2, 66, 0
1, 7536, Note_on_c, 2, 67, 127
1, 7547, Note_on_c, 2, 67, 0
1, 7552, Note_on_c, 2, 69, 127
1, 7560, Note_on_c, 0, 62, 0
1, 7560, Note_on_c, 0, 55, 0
1, 7560, Note_on_c, 0, 40, 0
1, 7560, Note_on_c, 0, 47, 0
1, 7560, Note_on_c, 0, 66, 0
1, 7560, Note_on_c, 1, 40, 0
1, 7560, Note_on_c, 0, 52, 100
1, 7560, Note_on_c, 1, 33, 127
1, 7560, Note_on_c, 0, 66, 100
1, 7560, Note_on_c, 0, 45, 100
1, 7560, Note_on_c, 0, 55, 100
1, 7560, Note_on_c, 0, 61, 100
1, 7560, Note_on_c, 1, 33, 127
1, 7570, Note_on_c, 2, 69, 0
1, 7573, Note_on_c, 2, 69, 127
1, 7596, Note_on_c, 2, 69, 0
1, 7602, Note_on_c, 2, 69, 127
1, 7611, Note_on_c, 2, 71, 127
1, 7616, Note_on_c, 2, 69, 0
1, 7642, Note_on_c, 2, 69, 127
1, 7644, Note_on_c, 2, 71, 0
1, 7660, Note_on_c, 2, 69, 0
1, 7660, Note_on_c, 2, 67, 127
1, 7673, Note_on_c, 2, 67, 0
1, 7676, Note_on_c, 2, 66, 127
1, 7680, Note_on_c, 0, 52, 0
1, 7680, Note_on_c, 1, 33, 0
1, 7680, Note_on_c, 0, 55, 0
1, 7680, Note_on_c, 1, 33, 0
1, 7680, Note_on_c, 0, 66, 0
1, 7680, Note_on_c, 0, 45, 0
1, 7680, Note_on_c, 0, 61, 0
1, 7680, Note_on_c, 0, 61, 100
1, 7680, Note_on_c, 0, 57, 100
1, 7680, Note_on_c, 1, 38, 127
1, 7680, Note_on_c, 0, 45, 100
1, 7680, Note_on_c, 0, 38, 100
1, 7680, Note_on_c, 0, 66, 100
1, 7680, Note_on_c, 0, 54, 100
1, 7684, Note_on_c, 2, 66, 0
1, 7690, Note_on_c, 2, 69, 127
1, 7700, Note_on_c, 2, 69, 0
1, 7704, Note_on_c, 2, 66, 127
1, 7900, Note_on_c, 2, 66, 0
1, 7902, Note_on_c, 2, 64, 127
1, 7911, Note_on_c, 2, 64, 0
1, 7912, Note_on_c, 2, 66, 127
1, 7920, Note_on_c, 0, 61, 0
1, 7920, Note_on_c, 0, 54, 0
1, 7920, Note_on_c, 0, 38, 0
1, 7920, Note_on_c, 0, 57, 0
1, 7920, Note_on_c, 1, 38, 0
1, 7920, Note_on_c, 0, 45, 0
1, 7920, Note_on_c, 0, 66, 0
1, 7920, Note_on_c, 1, 37, 127
1, 7920, Note_on_c, 0, 52, 100
1, 7920, Note_on_c, 0, 56, 100
1, 7920, Note_on_c, 0, 59, 100
1, 7920, Note_on_c, 0, 63, 100
1, 7920, Note_on_c, 0, 49, 100
1, 7923, Note_on_c, 2, 66, 0
1, 7926, Note_on_c, 2, 62, 127
1, 7933, Note_on_c, 2, 63, 127
1, 7940, Note_on_c, 2, 62, 0
1, 8039, Note_on_c, 2, 61, 127
1, 8040, Note_on_c, 1, 37, 0
1, 8040, Note_on_c, 2, 63, 0
1, 8040, Note_on_c, 0, 49, 0
1, 8040, Note_on_c, 0, 52, 0
1, 8040, Note_on_c, 0, 56, 0
1, 8040, Note_on_c, 0, 59, 0
1, 8040, Note_on_c, 0, 63, 0
1, 8040, Note_on_c, 1, 30, 127
1, 8040, Note_on_c, 1, 30, 127
1, 8040, Note_on_c, 0, 58, 100
1, 8040, Note_on_c, 0, 52, 100
1, 8040, Note_on_c, 0, 42, 100
1, 8040, Note_on_c, 0, 61, 100
1, 8040, Note_on_c, 1, 30, 127
1, 8125, Note_on_c, 2, 63, 127
1, 8127, Note_on_c, 2, 61, 0
1, 8138, Note_on_c, 2, 61, 127
1, 8149, Note_on_c, 2, 63, 0
1, 8150, Note_on_c, 2, 63, 127
1, 8153, Note_on_c, 2, 61, 0
1, 8160, Note_on_c, 1, 30, 0
1, 8160, Note_on_c, 0, 52, 0
1, 8160, Note_on_c, 0, 42, 0
1, 8160, Note_on_c, 1, 30, 0
1, 8160, Note_on_c, 0, 58, 0
1, 8160, Note_on_c, 1, 30, 0
1, 8160, Note_on_c, 0, 61, 0
1, 8160, Note_on_c, 0, 58, 100
1, 8160, Note_on_c, 1, 35, 127
1, 8160, Note_on_c, 0, 54, 100
1, 8160, Note_on_c, 0, 47, 100
1, 8160, Note_on_c, 0, 63, 100
1, 8220, Note_on_c, 2, 63, 0
1, 8230, Note_on_c, 2, 62, 127
1, 8236, Note_on_c, 2, 62, 0
1, 8236, Note_on_c, 2, 63, 127
1, 8329, Control_c, 2, 1, 11
1, 8395, Note_on_c, 2, 66, 127
1, 8399, Note_on_c, 2, 63, 0
1, 8400, Note_on_c, 0, 47, 0
1, 8400, Note_on_c, 1, 35, 0
1, 8400, Note_on_c, 0, 54, 0
1, 8400, Note_on_c, 0, 58, 0
1, 8400, Note_on_c, 0, 63, 0
1, 8400, Note_on_c, 0, 68, 100
1, 8400, Note_on_c, 0, 58, 100
1, 8400, Note_on_c, 0, 54, 100
1, 8400, Note_on_c, 0, 47, 100
1, 8400, Note_on_c, 1, 35, 127
1, 8406, Note_on_c, 2, 66, 0
1, 8406, Note_on_c, 2, 67, 127
1, 8414, Note_on_c, 2, 68, 111
1, 8417, Note_on_c, 2, 67, 0
1, 8480, Note_on_c, 0, 68, 0
1, 8480, Note_on_c, 0, 66, 100
1, 8487, Note_on_c, 2, 66, 127
1, 8489, Note_on_c, 2, 68, 0
1, 8513, Control_c, 2, 1, 13
1, 8560, Note_on_c, 0, 66, 0
1, 8560, Note_on_c, 0, 63, 100
1, 8565, Note_on_c, 2, 63, 127
1, 8568, Note_on_c, 2, 66, 0
1, 8640, Note_on_c, 0, 58, 0
1, 8640, Note_on_c, 1, 35, 0
1, 8640, Note_on_c, 0, 47, 0
1, 8640, Note_on_c, 0, 54, 0
1, 8640, Note_on_c, 0, 63, 0
1, 8640, Note_on_c, 0, 61, 100
1, 8640, Note_on_c, 0, 56, 100
1, 8640, Note_on_c, 0, 52, 100
1, 8640, Note_on_c, 0, 49, 100
1, 8640, Note_on_c, 0, 59, 100
1, 8640, Note_on_c, 1, 37, 127
1, 8644, Note_on_c, 2, 61, 117
1, 8646, Note_on_c, 2, 63, 0
1, 8674, Control_c, 2, 1, 11
1, 8798, Note_on_c, 2, 61, 0
1, 8800, Note_on_c, 2, 59, 124
1, 8811, Note_on_c, 2, 61, 127
1, 8814, Note_on_c, 2, 59, 0
1, 8819, Note_on_c, 2, 61, 0
1, 8827, Note_on_c, 2, 63, 127
1, 8838, Note_on_c, 2, 63, 0
1, 8850, Note_on_c, 2, 62, 127
1, 8854, Note_on_c, 2, 63, 127
1, 8859, Note_on_c, 2, 62, 0
1, 8878, Note_on_c, 2, 61, 127
1, 8880, Note_on_c, 0, 49, 0
1, 8880, Note_on_c, 0, 61, 0
1, 8880, Note_on_c, 1, 37, 0
1, 8880, Note_on_c, 0, 56, 0
1, 8880, Note_on_c, 0, 52, 0
1, 8880, Note_on_c, 0, 59, 0
1, 8880, Note_on_c, 0, 52, 100
1, 8880, Note_on_c, 0, 46, 100
1, 8880, Note_on_c, 0, 49, 100
1, 8880, Note_on_c, 1, 30, 127
1, 8880, Note_on_c, 1, 30, 127
1, 8880, Note_on_c, 0, 59, 100
1, 8880, Note_on_c, 0, 42, 100
1, 8882, Note_on_c, 2, 63, 0
1, 8899, Note_on_c, 2, 61, 0
1, 8900, Note_on_c, 2, 59, 125
1, 8944, Note_on_c, 2, 61, 127
1, 8950, Note_on_c, 2, 59, 0
1, 9000, Note_on_c, 0, 59, 0
1, 9000, Note_on_c, 0, 61, 100
1, 9047, Note_on_c, 2, 59, 123
1, 9048, Note_on_c, 2, 61, 0
1, 9066, Note_on_c, 2, 61, 127
1, 9067, Note_on_c, 2, 59, 0
1, 9081, Note_on_c, 2, 61, 0
1, 9086, Note_on_c, 2, 61, 127
1, 9096, Note_on_c, 2, 61, 0
1, 9103, Note_on_c, 2, 61, 127
1, 9119, Note_on_c, 2, 61, 0
1, 9120, Note_on_c, 0, 61, 0
1, 9120, Note_on_c, 1, 30, 0
1, 9120, Note_on_c, 0, 52, 0
1, 9120, Note_on_c, 0, 49, 0
1, 9120, Note_on_c, 0, 46, 0
1, 9120, Note_on_c, 1, 30, 0
1, 9120, Note_on_c, 0, 42, 0
1, 9120, Note_on_c, 1, 35, 127
1, 9120, Note_on_c, 0, 66, 100
1, 9120, Note_on_c, 0, 63, 100
1, 9120, Note_on_c, 0, 47, 100
1, 9120, Note_on_c, 0, 58, 100
1, 9120, Note_on_c, 0, 61, 100
1, 9120, Note_on_c, 2, 66, 127
1, 9133, Note_on_c, 2, 66, 0
1, 9134, Note_on_c, 2, 63, 127
1, 9338, Note_on_c, 2, 68, 127
1, 9344, Note_on_c, 2, 69, 116
1, 9345, Note_on_c, 2, 63, 0
1, 9348, Note_on_c, 2, 70, 127
1, 9353, Note_on_c, 2, 69, 0
1, 9353, Note_on_c, 2, 68, 0
1, 9360, Note_on_c, 0, 47, 0
1, 9360, Note_on_c, 0, 61, 0
1, 9360, Note_on_c, 0, 66, 0
1, 9360, Note_on_c, 0, 63, 0
1, 9360, Note_on_c, 1, 35, 0
1, 9360, Note_on_c, 0, 58, 0
1, 9360, Note_on_c, 0, 66, 100
1, 9360, Note_on_c, 0, 58, 100
1, 9360, Note_on_c, 1, 35, 127
1, 9360, Note_on_c, 0, 63, 100
1, 9360, Note_on_c, 0, 61, 100
1, 9360, Note_on_c, 0, 70, 100
1, 9360, Note_on_c, 0, 47, 100
1, 9433, Note_on_c, 2, 70, 0
1, 9435, Note_on_c, 2, 68, 127
1, 9440, Note_on_c, 0, 70, 0
1, 9440, Note_on_c, 0, 66, 100
1, 9494, Note_on_c, 2, 68, 0
1, 9494, Note_on_c, 2, 66, 127
1, 9520, Note_on_c, 0, 66, 0
1, 9520, Note_on_c, 0, 63, 100
1, 9534, Note_on_c, 2, 66, 0
1, 9540, Note_on_c, 2, 63, 127
1, 9600, Note_on_c, 2, 63, 0
1, 9600, Note_on_c, 0, 63, 0
1, 9600, Note_on_c, 0, 61, 0
1, 9600, Note_on_c, 0, 58, 0
1, 9600, Note_on_c, 1, 35, 0
1, 9600, Note_on_c, 0, 63, 0
1, 9600, Note_on_c, 0, 66, 0
1, 9600, Note_on_c, 0, 47, 0
1, 9600, Note_on_c, 2, 61, 120
1, 9600, Note_on_c, 0, 52, 100
1, 9600, Note_on_c, 0, 49, 100
1, 9600, Note_on_c, 0, 61, 100
1, 9600, Note_on_c, 0, 56, 100
1, 9600, Note_on_c, 0, 59, 100
1, 9600, Note_on_c, 1, 37, 127
1, 9750, Note_on_c, 2, 61, 0
1, 9750, Note_on_c, 2, 59, 124
1, 9769, Note_on_c, 2, 59, 0
1, 9770, Note_on_c, 2, 61, 127
1, 9787, Note_on_c, 2, 61, 0
1, 9789, Note_on_c, 2, 63, 127
1, 9806, Note_on_c, 2, 61, 127
1, 9807, Note_on_c, 2, 63, 0
1, 9821, Note_on_c, 2, 61, 0
1, 9822, Note_on_c, 2, 63, 127
1, 9838, Note_on_c, 2, 61, 127
1, 9839, Note_on_c, 2, 63, 0
1, 9840, Note_on_c, 0, 52, 0
1, 9840, Note_on_c, 0, 59, 0
1, 9840, Note_on_c, 0, 49, 0
1, 9840, Note_on_c, 0, 61, 0
1, 9840, Note_on_c, 0, 56, 0
1, 9840, Note_on_c, 1, 37, 0
1, 9840, Note_on_c, 0, 49, 100
1, 9840, Note_on_c, 0, 59, 100
1, 9840, Note_on_c, 1, 30, 127
1, 9840, Note_on_c, 0, 52, 100
1, 9840, Note_on_c, 1, 30, 127
1, 9854, Note_on_c, 2, 61, 0
1, 9856, Note_on_c, 2, 61, 127
1, 9960, Note_on_c, 0, 59, 0
1, 9960, Note_on_c, 0, 58, 100
1, 9961, Note_on_c, 2, 62, 127
1, 9969, Note_on_c, 2, 63, 127
1, 9971, Note_on_c, 2, 61, 0
1, 9973, Note_on_c, 2, 62, 0
1, 10022, Note_on_c, 2, 61, 127
1, 10023, Note_on_c, 2, 63, 0
1, 10055, Note_on_c, 2, 63, 125
1, 10058, Note_on_c, 2, 61, 0
1, 10071, Note_on_c, 2, 61, 127
1, 10076, Note_on_c, 2, 63, 0
1, 10080, Note_on_c, 0, 58, 0
1, 10080, Note_on_c, 1, 30, 0
1, 10080, Note_on_c, 1, 30, 0
1, 10080, Note_on_c, 0, 52, 0
1, 10080, Note_on_c, 0, 49, 0
1, 10080, Note_on_c, 0, 58, 100
1, 10080, Note_on_c, 0, 54, 100
1, 10080, Note_on_c, 1, 47, 127
1, 10080, Note_on_c, 0, 66, 100
1, 10080, Note_on_c, 0, 47, 100
1, 10080, Note_on_c, 0, 61, 100
1, 10088, Note_on_c, 2, 61, 0
1, 10093, Note_on_c, 2, 66, 110
1, 10200, Note_on_c, 0, 66, 0
1, 10200, Note_on_c, 0, 66, 100
1, 10260, Note_on_c, 0, 66, 0
1, 10260, Note_on_c, 0, 66, 100
1, 10313, Note_on_c, 2, 66, 0
1, 10320, Note_on_c, 0, 61, 0
1, 10320, Note_on_c, 0, 54, 0
1, 10320, Note_on_c, 1, 47, 0
1, 10320, Note_on_c, 0, 58, 0
1, 10320, Note_on_c, 0, 66, 0
1, 10320, Note_on_c, 0, 47, 0
1, 10320, Note_on_c, 2, 69, 110
1, 10320, Note_on_c, 0, 62, 100
1, 10320, Note_on_c, 1, 40, 127
1, 10320, Note_on_c, 0, 55, 100
1, 10320, Note_on_c, 0, 40, 100
1, 10320, Note_on_c, 0, 66, 100
1, 10320, Note_on_c, 0, 59, 100
1, 10350, Note_on_c, 2, 69, 0
1, 10350, Note_on_c, 2, 67, 110
1, 10380, Note_on_c, 2, 67, 0
1, 10380, Note_on_c, 2, 66, 110
1, 10410, Note_on_c, 2, 66, 0
1, 10410, Note_on_c, 2, 64, 110
1, 10440, Note_on_c, 2, 64, 0
1, 10440, Note_on_c, 0, 59, 0
1, 10440, Note_on_c, 1, 40, 0
1, 10440, Note_on_c, 0, 55, 0
1, 10440, Note_on_c, 0, 62, 0
1, 10440, Note_on_c, 0, 66, 0
1, 10440, Note_on_c, 0, 40, 0
1, 10440, Note_on_c, 0, 61, 100
1, 10440, Note_on_c, 1, 45, 127
1, 10440, Note_on_c, 0, 45, 100
1, 10440, Note_on_c, 0, 55, 100
1, 10440, Note_on_c, 2, 67, 110
1, 10440, Note_on_c, 0, 66, 100
1, 10460, Note_on_c, 2, 67, 0
1, 10460, Note_on_c, 2, 66, 110
1, 10480, Note_on_c, 2, 66, 0
1, 10480, Note_on_c, 2, 64, 110
1, 10500, Note_on_c, 2, 64, 0
1, 10500, Note_on_c, 2, 62, 110
1, 10520, Note_on_c, 2, 62, 0
1, 10520, Note_on_c, 2, 61, 110
1, 10540, Note_on_c, 2, 61, 0
1, 10540, Note_on_c, 2, 64, 110
1, 10560, Note_on_c, 2, 64, 0
1, 10560, Note_on_c, 0, 66, 0
1, 10560, Note_on_c, 0, 45, 0
1, 10560, Note_on_c, 0, 61, 0
1, 10560, Note_on_c, 1, 45, 0
1, 10560, Note_on_c, 0, 55, 0
1, 10560, Note_on_c, 1, 38, 127
1, 10560, Note_on_c, 0, 61, 100
1, 10560, Note_on_c, 0, 57, 100
1, 10560, Note_on_c, 2, 57, 110
1, 10560, Note_on_c, 0, 50, 100
1, 10560, Note_on_c, 0, 66, 100
1, 10760, Note_on_c, 2, 57, 0
1, 10800, Note_on_c, 0, 61, 0
1, 10800, Note_on_c, 0, 57, 0
1, 10800, Note_on_c, 1, 38, 0
1, 10800, Note_on_c, 0, 66, 0
1, 10800, Note_on_c, 0, 50, 0
1, 10800, Note_on_c, 0, 60, 100
1, 10800, Note_on_c, 0, 53, 100
1, 10800, Note_on_c, 0, 61, 100
1, 10800, Note_on_c, 0, 46, 100
1, 10800, Note_on_c, 1, 46, 127
1, 10800, Note_on_c, 0, 68, 100
1, 10800, Note_on_c, 2, 58, 110
1, 10815, Note_on_c, 2, 58, 0
1, 10815, Note_on_c, 2, 60, 110
1, 10830, Note_on_c, 2, 60, 0
1, 10830, Note_on_c, 2, 61, 110
1, 10845, Note_on_c, 2, 61, 0
1, 10845, Note_on_c, 2, 63, 110
1, 10860, Note_on_c, 2, 63, 0
1, 10860, Note_on_c, 2, 65, 110
1, 10875, Note_on_c, 2, 65, 0
1, 10875, Note_on_c, 2, 67, 110
1, 10890, Note_on_c, 2, 67, 0
1, 10890, Note_on_c, 2, 68, 110
1, 10905, Note_on_c, 2, 68, 0
1, 10905, Note_on_c, 2, 70, 110
1, 10920, Note_on_c, 2, 70, 0
1, 10920, Note_on_c, 0, 68, 0
1, 10920, Note_on_c, 0, 53, 0
1, 10920, Note_on_c, 0, 61, 0
1, 10920, Note_on_c, 0, 60, 0
1, 10920, Note_on_c, 1, 46, 0
1, 10920, Note_on_c, 0, 46, 0
1, 10920, Note_on_c, 0, 61, 100
1, 10920, Note_on_c, 0, 67, 100
1, 10920, Note_on_c, 0, 39, 100
1, 10920, Note_on_c, 0, 70, 100
1, 10920, Note_on_c, 2, 70, 110
1, 10920, Note_on_c, 1, 39, 127
1, 10930, Note_on_c, 2, 70, 0
1, 10930, Note_on_c, 2, 68, 110
1, 10940, Note_on_c, 2, 68, 0
1, 10940, Note_on_c, 2, 67, 110
1, 10950, Note_on_c, 2, 67, 0
1, 10950, Note_on_c, 2, 65, 110
1, 10960, Note_on_c, 2, 65, 0
1, 10960, Note_on_c, 2, 67, 110
1, 10970, Note_on_c, 2, 67, 0
1, 10970, Note_on_c, 2, 65, 110
1, 10980, Note_on_c, 2, 65, 0
1, 10980, Note_on_c, 2, 63, 110
1, 10990, Note_on_c, 2, 61, 110
1, 10995, Note_on_c, 2, 63, 0
1, 11000, Note_on_c, 2, 60, 110
1, 11005, Note_on_c, 2, 61, 0
1, 11010, Note_on_c, 2, 61, 110
1, 11015, Note_on_c, 2, 60, 0
1, 11020, Note_on_c, 2, 63, 110
1, 11025, Note_on_c, 2, 61, 0
1, 11030, Note_on_c, 2, 67, 110
1, 11035, Note_on_c, 2, 63, 0
1, 11040, Note_on_c, 0, 70, 0
1, 11040, Note_on_c, 0, 67, 0
1, 11040, Note_on_c, 0, 39, 0
1, 11040, Note_on_c, 0, 61, 0
1, 11040, Note_on_c, 1, 39, 0
1, 11040, Note_on_c, 0, 63, 100
1, 11040, Note_on_c, 0, 67, 100
1, 11040, Note_on_c, 0, 44, 100
1, 11040, Note_on_c, 2, 58, 110
1, 11040, Note_on_c, 1, 32, 127
1, 11040, Note_on_c, 0, 55, 100
1, 11040, Note_on_c, 0, 72, 100
1, 11045, Note_on_c, 2, 67, 0
1, 11100, Note_on_c, 2, 58, 0
1, 11100, Note_on_c, 2, 60, 110
1, 11130, Note_on_c, 2, 60, 0
1, 11130, Note_on_c, 2, 63, 110
1, 11160, Note_on_c, 2, 63, 0
1, 11160, Note_on_c, 2, 67, 110
1, 11190, Note_on_c, 2, 67, 0
1, 11190, Note_on_c, 0, 72, 100
1, 11190, Note_on_c, 2, 68, 110
1, 11220, Note_on_c, 2, 68, 0
1, 11220, Note_on_c, 0, 72, 0
1, 11220, Note_on_c, 0, 72, 0
1, 11220, Note_on_c, 0, 72, 100
1, 11220, Note_on_c, 2, 70, 110
1, 11250, Note_on_c, 2, 70, 0
1, 11250, Note_on_c, 0, 72, 0
1, 11250, Note_on_c, 2, 67, 110
1, 11280, Note_on_c, 2, 67, 0
1, 11280, Note_on_c, 0, 67, 0
1, 11280, Note_on_c, 0, 44, 0
1, 11280, Note_on_c, 1, 32, 0
1, 11280, Note_on_c, 0, 55, 0
1, 11280, Note_on_c, 0, 63, 0
1, 11280, Note_on_c, 0, 62, 100
1, 11280, Note_on_c, 0, 72, 100
1, 11280, Note_on_c, 0, 43, 100
1, 11280, Note_on_c, 0, 65, 100
1, 11280, Note_on_c, 2, 72, 110
1, 11280, Note_on_c, 0, 58, 100
1, 11280, Note_on_c, 1, 31, 127
1, 11290, Note_on_c, 2, 72, 0
1, 11290, Note_on_c, 2, 70, 110
1, 11300, Note_on_c, 2, 70, 0
1, 11300, Note_on_c, 2, 69, 110
1, 11310, Note_on_c, 2, 69, 0
1, 11310, Note_on_c, 2, 67, 110
1, 11320, Note_on_c, 2, 67, 0
1, 11320, Note_on_c, 2, 65, 110
1, 11330, Note_on_c, 2, 65, 0
1, 11330, Note_on_c, 2, 64, 110
1, 11340, Note_on_c, 2, 64, 0
1, 11340, Note_on_c, 2, 65, 110
1, 11350, Note_on_c, 2, 65, 0
1, 11350, Note_on_c, 2, 67, 110
1, 11360, Note_on_c, 2, 67, 0
1, 11360, Note_on_c, 2, 65, 110
1, 11370, Note_on_c, 2, 65, 0
1, 11370, Note_on_c, 2, 64, 110
1, 11380, Note_on_c, 2, 64, 0
1, 11380, Note_on_c, 2, 62, 110
1, 11390, Note_on_c, 2, 62, 0
1, 11390, Note_on_c, 2, 64, 110
1, 11400, Note_on_c, 2, 64, 0
1, 11400, Note_on_c, 1, 31, 0
1, 11400, Note_on_c, 0, 72, 0
1, 11400, Note_on_c, 0, 43, 0
1, 11400, Note_on_c, 0, 62, 0
1, 11400, Note_on_c, 0, 58, 0
1, 11400, Note_on_c, 0, 65, 0
1, 11400, Note_on_c, 0, 67, 100
1, 11400, Note_on_c, 0, 64, 100
1, 11400, Note_on_c, 0, 72, 100
1, 11400, Note_on_c, 2, 65, 110
1, 11400, Note_on_c, 0, 58, 100
1, 11400, Note_on_c, 0, 48, 100
1, 11400, Note_on_c, 1, 36, 127
1, 11410, Note_on_c, 2, 65, 0
1, 11410, Note_on_c, 2, 67, 110
1, 11420, Note_on_c, 2, 67, 0
1, 11420, Note_on_c, 2, 69, 110
1, 11430, Note_on_c, 2, 69, 0
1, 11430, Note_on_c, 2, 70, 110
1, 11440, Note_on_c, 2, 70, 0
1, 11440, Note_on_c, 2, 72, 110
1, 11450, Note_on_c, 2, 72, 0
1, 11450, Note_on_c, 2, 69, 110
1, 11460, Note_on_c, 2, 69, 0
1, 11460, Note_on_c, 2, 70, 110
1, 11470, Note_on_c, 2, 70, 0
1, 11470, Note_on_c, 2, 72, 110
1, 11480, Note_on_c, 2, 72, 0
1, 11480, Note_on_c, 2, 74, 110
1, 11490, Note_on_c, 2, 74, 0
1, 11490, Note_on_c, 2, 76, 110
1, 11500, Note_on_c, 2, 76, 0
1, 11500, Note_on_c, 2, 72, 110
1, 11510, Note_on_c, 2, 72, 0
1, 11510, Note_on_c, 2, 67, 110
1, 11520, Note_on_c, 2, 67, 0
1, 11520, Note_on_c, 1, 36, 0
1, 11520, Note_on_c, 0, 64, 0
1, 11520, Note_on_c, 0, 72, 0
1, 11520, Note_on_c, 0, 67, 0
1, 11520, Note_on_c, 0, 48, 0
1, 11520, Note_on_c, 0, 58, 0
1, 11520, Note_on_c, 0, 55, 100
1, 11520, Note_on_c, 2, 77, 110
1, 11520, Note_on_c, 0, 52, 100
1, 11520, Note_on_c, 0, 60, 100
1, 11520, Note_on_c, 0, 41, 100
1, 11520, Note_on_c, 1, 29, 127
1, 11520, Note_on_c, 0, 69, 100
1, 11530, Note_on_c, 2, 77, 0
1, 11530, Note_on_c, 2, 76, 110
1, 11540, Note_on_c, 2, 76, 0
1, 11540, Note_on_c, 2, 72, 110
1, 11550, Note_on_c, 2, 72, 0
1, 11550, Note_on_c, 2, 69, 110
1, 11560, Note_on_c, 2, 69, 0
1, 11560, Note_on_c, 2, 67, 110
1, 11570, Note_on_c, 2, 67, 0
1, 11570, Note_on_c, 2, 77, 110
1, 11580, Note_on_c, 2, 77, 0
1, 11580, Note_on_c, 2, 76, 110
1, 11590, Note_on_c, 2, 76, 0
1, 11590, Note_on_c, 2, 72, 110
1, 11600, Note_on_c, 2, 72, 0
1, 11600, Note_on_c, 2, 69, 110
1, 11610, Note_on_c, 2, 69, 0
1, 11610, Note_on_c, 2, 67, 110
1, 11620, Note_on_c, 2, 67, 0
1, 11620, Note_on_c, 2, 77, 110
1, 11630, Note_on_c, 2, 77, 0
1, 11630, Note_on_c, 2, 76, 110
1, 11640, Note_on_c, 2, 76, 0
1, 11640, Note_on_c, 2, 72, 110
1, 11650, Note_on_c, 2, 72, 0
1, 11650, Note_on_c, 2, 69, 110
1, 11660, Note_on_c, 2, 69, 0
1, 11660, Note_on_c, 2, 67, 110
1, 11670, Note_on_c, 2, 67, 0
1, 11670, Note_on_c, 2, 69, 110
1, 11680, Note_on_c, 2, 69, 0
1, 11680, Note_on_c, 2, 72, 110
1, 11690, Note_on_c, 2, 72, 0
1, 11690, Note_on_c, 2, 74, 110
1, 11700, Note_on_c, 2, 74, 0
1, 11700, Note_on_c, 2, 76, 110
1, 11710, Note_on_c, 2, 76, 0
1, 11710, Note_on_c, 2, 77, 110
1, 11720, Note_on_c, 2, 77, 0
1, 11720, Note_on_c, 2, 74, 110
1, 11730, Note_on_c, 2, 74, 0
1, 11730, Note_on_c, 2, 76, 110
1, 11740, Note_on_c, 2, 76, 0
1, 11740, Note_on_c, 2, 77, 110
1, 11750, Note_on_c, 2, 77, 0
1, 11750, Note_on_c, 2, 79, 110
1, 11760, Note_on_c, 2, 79, 0
1, 11760, Note_on_c, 0, 69, 0
1, 11760, Note_on_c, 0, 52, 0
1, 11760, Note_on_c, 0, 60, 0
1, 11760, Note_on_c, 0, 55, 0
1, 11760, Note_on_c, 1, 29, 0
1, 11760, Note_on_c, 0, 41, 0
1, 11760, Note_on_c, 0, 63, 100
1, 11760, Note_on_c, 0, 56, 100
1, 11760, Note_on_c, 0, 52, 100
1, 11760, Note_on_c, 0, 49, 100
1, 11760, Note_on_c, 0, 59, 100
1, 11760, Note_on_c, 1, 37, 127
1, 11760, Note_on_c, 2, 82, 110
1, 11780, Note_on_c, 2, 82, 0
1, 11780, Note_on_c, 2, 80, 110
1, 11790, Note_on_c, 2, 80, 0
1, 11790, Note_on_c, 2, 78, 110
1, 11800, Note_on_c, 2, 78, 0
1, 11800, Note_on_c, 2, 77, 110
1, 11810, Note_on_c, 2, 77, 0
1, 11810, Note_on_c, 2, 75, 110
1, 11820, Note_on_c, 2, 75, 0
1, 11820, Note_on_c, 2, 73, 110
1, 11830, Note_on_c, 2, 73, 0
1, 11830, Note_on_c, 2, 71, 110
1, 11840, Note_on_c, 2, 71, 0
1, 11840, Note_on_c, 2, 70, 110
1, 11850, Note_on_c, 2, 70, 0
1, 11850, Note_on_c, 2, 68, 110
1, 11860, Note_on_c, 2, 68, 0
1, 11860, Note_on_c, 2, 66, 110
1, 11870, Note_on_c, 2, 66, 0
1, 11870, Note_on_c, 2, 64, 110
1, 11880, Note_on_c, 2, 64, 0
1, 11880, Note_on_c, 0, 59, 0
1, 11880, Note_on_c, 0, 56, 0
1, 11880, Note_on_c, 0, 52, 0
1, 11880, Note_on_c, 0, 63, 0
1, 11880, Note_on_c, 1, 37, 0
1, 11880, Note_on_c, 0, 49, 0
1, 11880, Note_on_c, 2, 66, 110
1, 11880, Note_on_c, 1, 30, 127
1, 11880, Note_on_c, 0, 49, 100
1, 11880, Note_on_c, 0, 42, 100
1, 11880, Note_on_c, 0, 61, 100
1, 11880, Note_on_c, 0, 58, 100
1, 11890, Note_on_c, 2, 66, 0
1, 11890, Note_on_c, 2, 68, 110
1, 11900, Note_on_c, 2, 68, 0
1, 11900, Note_on_c, 2, 70, 110
1, 11910, Note_on_c, 2, 70, 0
1, 11910, Note_on_c, 2, 73, 110
1, 11920, Note_on_c, 2, 73, 0
1, 11920, Note_on_c, 2, 70, 110
1, 11930, Note_on_c, 2, 70, 0
1, 11930, Note_on_c, 2, 71, 110
1, 11940, Note_on_c, 2, 71, 0
1, 11940, Note_on_c, 2, 73, 110
1, 11950, Note_on_c, 2, 73, 0
1, 11950, Note_on_c, 2, 75, 110
1, 11960, Note_on_c, 2, 75, 0
1, 11960, Note_on_c, 2, 76, 110
1, 11970, Note_on_c, 2, 76, 0
1, 11970, Note_on_c, 2, 78, 110
1, 11980, Note_on_c, 2, 78, 0
1, 11980, Note_on_c, 2, 75, 110
1, 11990, Note_on_c, 2, 75, 0
1, 11990, Note_on_c, 2, 66, 110
1, 12000, Note_on_c, 2, 66, 0
1, 12000, Note_on_c, 0, 58, 0
1, 12000, Note_on_c, 0, 42, 0
1, 12000, Note_on_c, 1, 30, 0
1, 12000, Note_on_c, 0, 49, 0
1, 12000, Note_on_c, 0, 61, 0
1, 12000, Note_on_c, 2, 73, 110
1, 12000, Note_on_c, 1, 35, 127
1, 12000, Note_on_c, 0, 66, 100
1, 12000, Note_on_c, 0, 51, 100
1, 12000, Note_on_c, 0, 58, 100
1, 12000, Note_on_c, 0, 47, 100
1, 12120, Note_on_c, 0, 66, 0
1, 12120, Note_on_c, 0, 66, 100
1, 12180, Note_on_c, 0, 66, 0
1, 12180, Note_on_c, 0, 66, 100
1, 12210, Note_on_c, 2, 73, 0
1, 12240, Note_on_c, 0, 47, 0
1, 12240, Note_on_c, 0, 51, 0
1, 12240, Note_on_c, 1, 35, 0
1, 12240, Note_on_c, 0, 66, 0
1, 12240, Note_on_c, 0, 58, 0
1, 12240, Note_on_c, 1, 28, 127
1, 12240, Note_on_c, 0, 66, 100
1, 12240, Note_on_c, 0, 62, 100
1, 12240, Note_on_c, 0, 55, 100
1, 12240, Note_on_c, 0, 47, 100
1, 12240, Note_on_c, 0, 40, 100
1, 12240, Note_on_c, 1, 28, 127
1, 12240, Note_on_c, 2, 69, 110
1, 12240, Note_on_c, 1, 28, 127
1, 12250, Note_on_c, 2, 69, 0
1, 12250, Note_on_c, 2, 73, 110
1, 12260, Note_on_c, 2, 73, 0
1, 12260, Note_on_c, 2, 69, 110
1, 12280, Note_on_c, 2, 69, 0
1, 12280, Note_on_c, 2, 66, 110
1, 12290, Note_on_c, 2, 66, 0
1, 12290, Note_on_c, 2, 69, 110
1, 12300, Note_on_c, 2, 69, 0
1, 12300, Note_on_c, 2, 66, 110
1, 12320, Note_on_c, 2, 66, 0
1, 12320, Note_on_c, 2, 62, 110
1, 12330, Note_on_c, 2, 62, 0
1, 12330, Note_on_c, 2, 66, 110
1, 12340, Note_on_c, 2, 66, 0
1, 12340, Note_on_c, 2, 62, 110
1, 12360, Note_on_c, 2, 62, 0
1, 12360, Note_on_c, 1, 28, 0
1, 12360, Note_on_c, 1, 28, 0
1, 12360, Note_on_c, 0, 47, 0
1, 12360, Note_on_c, 0, 66, 0
1, 12360, Note_on_c, 0, 62, 0
1, 12360, Note_on_c, 0, 55, 0
1, 12360, Note_on_c, 0, 40, 0
1, 12360, Note_on_c, 1, 28, 0
1, 12360, Note_on_c, 0, 55, 100
1, 12360, Note_on_c, 1, 33, 127
1, 12360, Note_on_c, 0, 52, 100
1, 12360, Note_on_c, 0, 61, 100
1, 12360, Note_on_c, 0, 45, 100
1, 12360, Note_on_c, 0, 66, 100
1, 12360, Note_on_c, 2, 61, 110
1, 12370, Note_on_c, 2, 61, 0
1, 12370, Note_on_c, 2, 66, 110
1, 12380, Note_on_c, 2, 66, 0
1, 12380, Note_on_c, 2, 61, 110
1, 12400, Note_on_c, 2, 61, 0
1, 12400, Note_on_c, 2, 66, 110
1, 12410, Note_on_c, 2, 66, 0
1, 12410, Note_on_c, 2, 64, 110
1, 12420, Note_on_c, 2, 64, 0
1, 12420, Note_on_c, 2, 57, 110
1, 12430, Note_on_c, 2, 57, 0
1, 12430, Note_on_c, 2, 59, 110
1, 12440, Note_on_c, 2, 59, 0
1, 12440, Note_on_c, 2, 61, 110
1, 12450, Note_on_c, 2, 61, 0
1, 12450, Note_on_c, 2, 62, 110
1, 12460, Note_on_c, 2, 62, 0
1, 12460, Note_on_c, 2, 64, 110
1, 12470, Note_on_c, 2, 64, 0
1, 12470, Note_on_c, 2, 66, 110
1, 12480, Note_on_c, 2, 66, 0
1, 12480, Note_on_c, 0, 45, 0
1, 12480, Note_on_c, 1, 33, 0
1, 12480, Note_on_c, 0, 52, 0
1, 12480, Note_on_c, 0, 55, 0
1, 12480, Note_on_c, 0, 66, 0
1, 12480, Note_on_c, 0, 61, 0
1, 12480, Note_on_c, 0, 38, 100
1, 12480, Note_on_c, 0, 61, 100
1, 12480, Note_on_c, 0, 57, 100
1, 12480, Note_on_c, 0, 54, 100
1, 12480, Note_on_c, 0, 45, 100
1, 12480, Note_on_c, 2, 69, 110
1, 12480, Note_on_c, 1, 38, 127
1, 12480, Note_on_c, 0, 66, 100
1, 12490, Note_on_c, 2, 69, 0
1, 12490, Note_on_c, 2, 66, 110
1, 12500, Note_on_c, 2, 66, 0
1, 12500, Note_on_c, 2, 64, 110
1, 12510, Note_on_c, 2, 64, 0
1, 12510, Note_on_c, 2, 69, 110
1, 12520, Note_on_c, 2, 69, 0
1, 12520, Note_on_c, 2, 69, 110
1, 12530, Note_on_c, 2, 69, 0
1, 12530, Note_on_c, 2, 64, 110
1, 12540, Note_on_c, 2, 64, 0
1, 12540, Note_on_c, 2, 66, 110
1, 12550, Note_on_c, 2, 66, 0
1, 12550, Note_on_c, 2, 69, 110
1, 12560, Note_on_c, 2, 69, 0
1, 12560, Note_on_c, 2, 64, 110
1, 12570, Note_on_c, 2, 64, 0
1, 12570, Note_on_c, 2, 66, 110
1, 12580, Note_on_c, 2, 66, 0
1, 12580, Note_on_c, 2, 69, 110
1, 12590, Note_on_c, 2, 69, 0
1, 12590, Note_on_c, 2, 64, 110
1, 12600, Note_on_c, 2, 64, 0
1, 12600, Note_on_c, 2, 66, 110
1, 12610, Note_on_c, 2, 66, 0
1, 12610, Note_on_c, 2, 69, 110
1, 12620, Note_on_c, 2, 69, 0
1, 12620, Note_on_c, 2, 71, 110
1, 12630, Note_on_c, 2, 71, 0
1, 12630, Note_on_c, 2, 69, 110
1, 12640, Note_on_c, 2, 69, 0
1, 12640, Note_on_c, 2, 69, 110
1, 12640, Note_on_c, 2, 61, 110
1, 12650, Note_on_c, 2, 61, 0
1, 12650, Note_on_c, 2, 69, 0
1, 12650, Note_on_c, 2, 62, 110
1, 12660, Note_on_c, 2, 62, 0
1, 12660, Note_on_c, 2, 64, 110
1, 12670, Note_on_c, 2, 64, 0
1, 12670, Note_on_c, 2, 66, 110
1, 12680, Note_on_c, 2, 66, 0
1, 12680, Note_on_c, 2, 68, 110
1, 12690, Note_on_c, 2, 68, 0
1, 12690, Note_on_c, 2, 69, 110
1, 12700, Note_on_c, 2, 69, 0
1, 12700, Note_on_c, 2, 71, 110
1, 12710, Note_on_c, 2, 71, 0
1, 12710, Note_on_c, 2, 74, 110
1, 12720, Note_on_c, 2, 74, 0
1, 12720, Note_on_c, 0, 38, 0
1, 12720, Note_on_c, 0, 45, 0
1, 12720, Note_on_c, 0, 61, 0
1, 12720, Note_on_c, 0, 57, 0
1, 12720, Note_on_c, 0, 66, 0
1, 12720, Note_on_c, 1, 38, 0
1, 12720, Note_on_c, 0, 54, 0
1, 12720, Note_on_c, 1, 37, 127
1, 12720, Note_on_c, 0, 63, 100
1, 12720, Note_on_c, 0, 56, 100
1, 12720, Note_on_c, 0, 52, 100
1, 12720, Note_on_c, 0, 49, 100
1, 12720, Note_on_c, 0, 59, 100
1, 12720, Note_on_c, 2, 73, 110
1, 12730, Note_on_c, 2, 73, 0
1, 12730, Note_on_c, 2, 71, 110
1, 12740, Note_on_c, 2, 71, 0
1, 12740, Note_on_c, 2, 66, 110
1, 12750, Note_on_c, 2, 66, 0
1, 12750, Note_on_c, 2, 73, 110
1, 12760, Note_on_c, 2, 73, 0
1, 12760, Note_on_c, 2, 73, 110
1, 12770, Note_on_c, 2, 73, 0
1, 12770, Note_on_c, 2, 71, 110
1, 12780, Note_on_c, 2, 71, 0
1, 12780, Note_on_c, 2, 66, 110
1, 12790, Note_on_c, 2, 66, 0
1, 12790, Note_on_c, 2, 71, 110
1, 12800, Note_on_c, 2, 71, 0
1, 12800, Note_on_c, 2, 73, 110
1, 12810, Note_on_c, 2, 73, 0
1, 12810, Note_on_c, 2, 70, 110
1, 12820, Note_on_c, 2, 70, 0
1, 12820, Note_on_c, 2, 71, 110
1, 12830, Note_on_c, 2, 71, 0
1, 12830, Note_on_c, 2, 73, 110
1, 12840, Note_on_c, 2, 73, 0
1, 12840, Note_on_c, 0, 59, 0
1, 12840, Note_on_c, 0, 63, 0
1, 12840, Note_on_c, 0, 56, 0
1, 12840, Note_on_c, 1, 37, 0
1, 12840, Note_on_c, 0, 49, 0
1, 12840, Note_on_c, 0, 52, 0
1, 12840, Note_on_c, 0, 58, 100
1, 12840, Note_on_c, 0, 52, 100
1, 12840, Note_on_c, 1, 30, 127
1, 12840, Note_on_c, 2, 75, 110
1, 12840, Note_on_c, 0, 61, 100
1, 12840, Note_on_c, 0, 42, 100
1, 12850, Note_on_c, 2, 75, 0
1, 12850, Note_on_c, 2, 76, 110
1, 12860, Note_on_c, 2, 76, 0
1, 12860, Note_on_c, 2, 73, 110
1, 12870, Note_on_c, 2, 73, 0
1, 12870, Note_on_c, 2, 75, 110
1, 12880, Note_on_c, 2, 75, 0
1, 12880, Note_on_c, 2, 76, 110
1, 12890, Note_on_c, 2, 76, 0
1, 12890, Note_on_c, 2, 78, 110
1, 12900, Note_on_c, 2, 78, 0
1, 12900, Note_on_c, 2, 66, 110
1, 12910, Note_on_c, 2, 66, 0
1, 12910, Note_on_c, 2, 68, 110
1, 12920, Note_on_c, 2, 68, 0
1, 12920, Note_on_c, 2, 70, 110
1, 12930, Note_on_c, 2, 70, 0
1, 12930, Note_on_c, 2, 73, 110
1, 12940, Note_on_c, 2, 73, 0
1, 12940, Note_on_c, 2, 75, 110
1, 12950, Note_on_c, 2, 75, 0
1, 12950, Note_on_c, 2, 78, 110
1, 12960, Note_on_c, 2, 78, 0
1, 12960, Note_on_c, 0, 42, 0
1, 12960, Note_on_c, 1, 30, 0
1, 12960, Note_on_c, 0, 58, 0
1, 12960, Note_on_c, 0, 52, 0
1, 12960, Note_on_c, 0, 61, 0
1, 12960, Note_on_c, 2, 73, 110
1, 12960, Note_on_c, 0, 54, 100
1, 12960, Note_on_c, 0, 58, 100
1, 12960, Note_on_c, 0, 63, 100
1, 12960, Note_on_c, 1, 35, 127
1, 12960, Note_on_c, 0, 47, 100
1, 13080, Note_on_c, 2, 73, 0
1, 13080, Note_on_c, 2, 75, 110
1, 13100, Note_on_c, 2, 75, 0
1, 13100, Note_on_c, 2, 73, 110
1, 13120, Note_on_c, 2, 73, 0
1, 13120, Note_on_c, 2, 71, 110
1, 13140, Note_on_c, 2, 71, 0
1, 13140, Note_on_c, 2, 70, 110
1, 13160, Note_on_c, 2, 70, 0
1, 13160, Note_on_c, 2, 73, 110
1, 13180, Note_on_c, 2, 73, 0
1, 13180, Note_on_c, 2, 78, 110
1, 13200, Note_on_c, 2, 78, 0
1, 13200, Note_on_c, 0, 58, 0
1, 13200, Note_on_c, 0, 63, 0
1, 13200, Note_on_c, 0, 54, 0
1, 13200, Note_on_c, 0, 47, 0
1, 13200, Note_on_c, 1, 35, 0
1, 13200, Note_on_c, 0, 47, 100
1, 13200, Note_on_c, 1, 35, 127
1, 13200, Note_on_c, 2, 80, 110
1, 13200, Note_on_c, 0, 54, 100
1, 13200, Note_on_c, 0, 58, 100
1, 13200, Note_on_c, 0, 68, 100
1, 13280, Note_on_c, 0, 68, 0
1, 13280, Note_on_c, 2, 80, 0
1, 13280, Note_on_c, 2, 78, 110
1, 13280, Note_on_c, 0, 66, 100
1, 13360, Note_on_c, 0, 66, 0
1, 13360, Note_on_c, 0, 63, 100
1, 13370, Note_on_c, 2, 78, 0
1, 13370, Note_on_c, 2, 75, 110
1, 13440, Note_on_c, 2, 75, 0
1, 13440, Note_on_c, 0, 63, 0
1, 13440, Note_on_c, 0, 58, 0
1, 13440, Note_on_c, 0, 47, 0
1, 13440, Note_on_c, 1, 35, 0
1, 13440, Note_on_c, 0, 54, 0
1, 13440, Note_on_c, 1, 37, 127
1, 13440, Note_on_c, 0, 59, 100
1, 13440, Note_on_c, 0, 56, 100
1, 13440, Note_on_c, 0, 49, 100
1, 13440, Note_on_c, 0, 61, 100
1, 13440, Note_on_c, 0, 52, 100
1, 13440, Note_on_c, 2, 73, 110
1, 13450, Note_on_c, 2, 73, 0
1, 13450, Note_on_c, 2, 75, 110
1, 13460, Note_on_c, 2, 75, 0
1, 13460, Note_on_c, 2, 76, 110
1, 13470, Note_on_c, 2, 76, 0
1, 13470, Note_on_c, 2, 78, 110
1, 13480, Note_on_c, 2, 78, 0
1, 13480, Note_on_c, 2, 75, 110
1, 13490, Note_on_c, 2, 75, 0
1, 13490, Note_on_c, 2, 71, 110
1, 13500, Note_on_c, 2, 71, 0
1, 13500, Note_on_c, 2, 68, 110
1, 13510, Note_on_c, 2, 68, 0
1, 13510, Note_on_c, 2, 63, 110
1, 13520, Note_on_c, 2, 63, 0
1, 13520, Note_on_c, 2, 66, 110
1, 13530, Note_on_c, 2, 66, 0
1, 13530, Note_on_c, 2, 64, 110
1, 13540, Note_on_c, 2, 64, 0
1, 13540, Note_on_c, 2, 63, 110
1, 13550, Note_on_c, 2, 63, 0
1, 13550, Note_on_c, 2, 64, 110
1, 13560, Note_on_c, 2, 64, 0
1, 13560, Note_on_c, 2, 66, 110
1, 13570, Note_on_c, 2, 66, 0
1, 13570, Note_on_c, 2, 68, 110
1, 13580, Note_on_c, 2, 68, 0
1, 13580, Note_on_c, 2, 70, 110
1, 13590, Note_on_c, 2, 70, 0
1, 13590, Note_on_c, 2, 71, 110
1, 13600, Note_on_c, 2, 71, 0
1, 13600, Note_on_c, 2, 68, 110
1, 13610, Note_on_c, 2, 68, 0
1, 13610, Note_on_c, 2, 70, 110
1, 13620, Note_on_c, 2, 70, 0
1, 13620, Note_on_c, 2, 71, 110
1, 13630, Note_on_c, 2, 71, 0
1, 13630, Note_on_c, 2, 73, 110
1, 13640, Note_on_c, 2, 73, 0
1, 13640, Note_on_c, 2, 71, 110
1, 13650, Note_on_c, 2, 71, 0
1, 13650, Note_on_c, 2, 73, 110
1, 13660, Note_on_c, 2, 73, 0
1, 13660, Note_on_c, 2, 75, 110
1, 13670, Note_on_c, 2, 75, 0
1, 13670, Note_on_c, 2, 76, 110
1, 13680, Note_on_c, 2, 76, 0
1, 13680, Note_on_c, 0, 52, 0
1, 13680, Note_on_c, 0, 59, 0
1, 13680, Note_on_c, 0, 56, 0
1, 13680, Note_on_c, 1, 37, 0
1, 13680, Note_on_c, 0, 61, 0
1, 13680, Note_on_c, 0, 49, 0
1, 13680, Note_on_c, 1, 30, 127
1, 13680, Note_on_c, 0, 42, 100
1, 13680, Note_on_c, 2, 75, 110
1, 13680, Note_on_c, 0, 49, 100
1, 13680, Note_on_c, 0, 52, 100
1, 13680, Note_on_c, 0, 59, 100
1, 13680, Note_on_c, 0, 46, 100
1, 13790, Note_on_c, 2, 75, 0
1, 13800, Note_on_c, 0, 59, 0
1, 13800, Note_on_c, 2, 73, 110
1, 13800, Note_on_c, 0, 61, 100
1, 13880, Note_on_c, 2, 73, 0
1, 13880, Note_on_c, 2, 74, 110
1, 13890, Note_on_c, 2, 74, 0
1, 13890, Note_on_c, 2, 75, 110
1, 13900, Note_on_c, 2, 75, 0
1, 13900, Note_on_c, 2, 76, 110
1, 13910, Note_on_c, 2, 76, 0
1, 13910, Note_on_c, 2, 77, 110
1, 13920, Note_on_c, 2, 77, 0
1, 13920, Note_on_c, 0, 42, 0
1, 13920, Note_on_c, 0, 46, 0
1, 13920, Note_on_c, 0, 49, 0
1, 13920, Note_on_c, 1, 30, 0
1, 13920, Note_on_c, 0, 61, 0
1, 13920, Note_on_c, 0, 52, 0
1, 13920, Note_on_c, 0, 63, 100
1, 13920, Note_on_c, 0, 66, 100
1, 13920, Note_on_c, 0, 58, 100
1, 13920, Note_on_c, 2, 78, 110
1, 13920, Note_on_c, 1, 35, 127
1, 13920, Note_on_c, 0, 61, 100
1, 13920, Note_on_c, 0, 47, 100
1, 14000, Note_on_c, 2, 78, 0
1, 14160, Note_on_c, 0, 61, 0
1, 14160, Note_on_c, 0, 66, 0
1, 14160, Note_on_c, 0, 58, 0
1, 14160, Note_on_c, 0, 63, 0
1, 14160, Note_on_c, 0, 47, 0
1, 14160, Note_on_c, 0, 61, 100
1, 14160, Note_on_c, 2, 78, 100
1, 14160, Note_on_c, 0, 70, 100
1, 14160, Note_on_c, 0, 47, 100
1, 14160, Note_on_c, 0, 63, 100
1, 14160, Note_on_c, 0, 66, 100
1, 14160, Note_on_c, 0, 58, 100
1, 14180, Note_on_c, 2, 78, 0
1, 14180, Note_on_c, 2, 76, 100
1, 14200, Note_on_c, 2, 76, 0
1, 14200, Note_on_c, 2, 75, 100
1, 14220, Note_on_c, 2, 75, 0
1, 14220, Note_on_c, 2, 78, 100
1, 14240, Note_on_c, 2, 78, 0
1, 14240, Note_on_c, 0, 70, 0
1, 14240, Note_on_c, 0, 66, 100
1, 14240, Note_on_c, 2, 73, 100
1, 14260, Note_on_c, 2, 73, 0
1, 14260, Note_on_c, 2, 70, 100
1, 14280, Note_on_c, 2, 70, 0
1, 14280, Note_on_c, 2, 73, 100
1, 14295, Note_on_c, 2, 73, 0
1, 14295, Note_on_c, 2, 70, 100
1, 14310, Note_on_c, 2, 70, 0
1, 14310, Note_on_c, 2, 71, 100
1, 14320, Note_on_c, 0, 66, 0
1, 14320, Note_on_c, 0, 63, 100
1, 14325, Note_on_c, 2, 71, 0
1, 14325, Note_on_c, 2, 73, 100
1, 14340, Note_on_c, 2, 73, 0
1, 14340, Note_on_c, 2, 75, 100
1, 14355, Note_on_c, 2, 75, 0
1, 14355, Note_on_c, 2, 73, 100
1, 14370, Note_on_c, 2, 73, 0
1, 14370, Note_on_c, 2, 66, 100
1, 14385, Note_on_c, 2, 66, 0
1, 14385, Note_on_c, 2, 68, 100
1, 14400, Note_on_c, 2, 68, 0
1, 14400, Note_on_c, 0, 63, 0
1, 14400, Note_on_c, 0, 66, 0
1, 14400, Note_on_c, 0, 61, 0
1, 14400, Note_on_c, 0, 47, 0
1, 14400, Note_on_c, 0, 58, 0
1, 14400, Note_on_c, 0, 63, 0
1, 14400, Note_on_c, 1, 35, 0
1, 14400, Note_on_c, 0, 52, 100
1, 14400, Note_on_c, 1, 37, 127
1, 14400, Note_on_c, 0, 61, 100
1, 14400, Note_on_c, 0, 56, 100
1, 14400, Note_on_c, 0, 59, 100
1, 14400, Note_on_c, 0, 49, 100
1, 14400, Note_on_c, 2, 63, 100
1, 14415, Note_on_c, 2, 63, 0
1, 14415, Note_on_c, 2, 64, 100
1, 14430, Note_on_c, 2, 64, 0
1, 14430, Note_on_c, 2, 68, 100
1, 14445, Note_on_c, 2, 68, 0
1, 14445, Note_on_c, 2, 71, 100
1, 14460, Note_on_c, 2, 71, 0
1, 14460, Note_on_c, 2, 64, 100
1, 14475, Note_on_c, 2, 64, 0
1, 14475, Note_on_c, 2, 68, 100
1, 14490, Note_on_c, 2, 68, 0
1, 14490, Note_on_c, 2, 71, 100
1, 14505, Note_on_c, 2, 71, 0
1, 14505, Note_on_c, 2, 73, 100
1, 14520, Note_on_c, 2, 73, 0
1, 14520, Note_on_c, 2, 75, 100
1, 14532, Note_on_c, 2, 75, 0
1, 14533, Note_on_c, 2, 73, 100
1, 14545, Note_on_c, 2, 73, 0
1, 14546, Note_on_c, 2, 68, 100
1, 14557, Note_on_c, 2, 70, 100
1, 14558, Note_on_c, 2, 68, 0
1, 14568, Note_on_c, 2, 71, 100
1, 14569, Note_on_c, 2, 70, 0
1, 14580, Note_on_c, 2, 71, 0
1, 14580, Note_on_c, 2, 73, 100
1, 14590, Note_on_c, 2, 75, 100
1, 14592, Note_on_c, 2, 73, 0
1, 14600, Note_on_c, 2, 73, 100
1, 14602, Note_on_c, 2, 75, 0
1, 14610, Note_on_c, 2, 66, 100
1, 14612, Note_on_c, 2, 73, 0
1, 14620, Note_on_c, 2, 67, 100
1, 14622, Note_on_c, 2, 66, 0
1, 14630, Note_on_c, 2, 78, 100
1, 14632, Note_on_c, 2, 67, 0
1, 14640, Note_on_c, 0, 56, 0
1, 14640, Note_on_c, 0, 49, 0
1, 14640, Note_on_c, 1, 37, 0
1, 14640, Note_on_c, 0, 61, 0
1, 14640, Note_on_c, 0, 52, 0
1, 14640, Note_on_c, 0, 59, 0
1, 14640, Note_on_c, 0, 55, 100
1, 14640, Note_on_c, 2, 79, 100
1, 14640, Note_on_c, 0, 52, 100
1, 14640, Note_on_c, 1, 42, 127
1, 14640, Note_on_c, 0, 59, 100
1, 14640, Note_on_c, 0, 49, 100
1, 14642, Note_on_c, 2, 78, 0
1, 14650, Note_on_c, 2, 78, 100
1, 14652, Note_on_c, 2, 79, 0
1, 14700, Note_on_c, 2, 78, 0
1, 14700, Note_on_c, 2, 76, 100
1, 14710, Note_on_c, 2, 76, 0
1, 14710, Note_on_c, 2, 75, 100
1, 14720, Note_on_c, 2, 75, 0
1, 14720, Note_on_c, 2, 76, 100
1, 14730, Note_on_c, 2, 76, 0
1, 14730, Note_on_c, 2, 75, 100
1, 14740, Note_on_c, 2, 75, 0
1, 14740, Note_on_c, 2, 73, 100
1, 14750, Note_on_c, 2, 73, 0
1, 14750, Note_on_c, 2, 71, 100
1, 14760, Note_on_c, 2, 71, 0
1, 14760, Note_on_c, 0, 59, 0
1, 14760, Note_on_c, 0, 58, 100
1, 14760, Note_on_c, 0, 42, 100
1, 14760, Note_on_c, 2, 70, 100
1, 14770, Note_on_c, 2, 70, 0
1, 14770, Note_on_c, 2, 71, 100
1, 14780, Note_on_c, 2, 71, 0
1, 14780, Note_on_c, 2, 70, 100
1, 14810, Note_on_c, 2, 70, 0
1, 14810, Note_on_c, 2, 71, 100
1, 14820, Note_on_c, 2, 71, 0
1, 14820, Note_on_c, 2, 73, 100
1, 14830, Note_on_c, 2, 73, 0
1, 14830, Note_on_c, 2, 75, 100
1, 14840, Note_on_c, 2, 75, 0
1, 14840, Note_on_c, 2, 73, 100
1, 14850, Note_on_c, 2, 73, 0
1, 14850, Note_on_c, 2, 78, 100
1, 14860, Note_on_c, 2, 78, 0
1, 14860, Note_on_c, 2, 75, 100
1, 14870, Note_on_c, 2, 75, 0
1, 14870, Note_on_c, 2, 71, 100
1, 14880, Note_on_c, 2, 71, 0
1, 14880, Note_on_c, 0, 42, 0
1, 14880, Note_on_c, 0, 49, 0
1, 14880, Note_on_c, 1, 42, 0
1, 14880, Note_on_c, 0, 55, 0
1, 14880, Note_on_c, 0, 58, 0
1, 14880, Note_on_c, 0, 52, 0
1, 14880, Note_on_c, 2, 70, 100
1, 14880, Note_on_c, 0, 58, 100
1, 14880, Note_on_c, 0, 54, 100
1, 14880, Note_on_c, 0, 47, 100
1, 14880, Note_on_c, 0, 66, 100
1, 14880, Note_on_c, 1, 35, 127
1, 14880, Note_on_c, 0, 61, 100
1, 15000, Note_on_c, 0, 66, 0
1, 15000, Note_on_c, 0, 66, 100
1, 15060, Note_on_c, 0, 66, 0
1, 15060, Note_on_c, 0, 66, 100
1, 15120, Note_on_c, 0, 66, 0
1, 15120, Note_on_c, 1, 35, 0
1, 15120, Note_on_c, 0, 58, 0
1, 15120, Note_on_c, 0, 54, 0
1, 15120, Note_on_c, 2, 70, 0
1, 15120, Note_on_c, 0, 61, 0
1, 15120, Note_on_c, 0, 47, 0
1, 15120, Note_on_c, 1, 40, 127
1, 15120, Note_on_c, 0, 55, 100
1, 15120, Note_on_c, 0, 66, 100
1, 15120, Note_on_c, 0, 59, 100
1, 15120, Note_on_c, 0, 62, 100
1, 15120, Note_on_c, 0, 40, 100
1, 15240, Note_on_c, 0, 40, 0
1, 15240, Note_on_c, 0, 55, 0
1, 15240, Note_on_c, 0, 66, 0
1, 15240, Note_on_c, 1, 40, 0
1, 15240, Note_on_c, 0, 62, 0
1, 15240, Note_on_c, 0, 59, 0
1, 15240, Note_on_c, 0, 45, 100
1, 15240, Note_on_c, 0, 55, 100
1, 15240, Note_on_c, 1, 33, 127
1, 15240, Note_on_c, 0, 61, 100
1, 15240, Note_on_c, 0, 66, 100
1, 15360, Note_on_c, 0, 66, 0
1, 15360, Note_on_c, 1, 33, 0
1, 15360, Note_on_c, 0, 45, 0
1, 15360, Note_on_c, 0, 55, 0
1, 15360, Note_on_c, 0, 61, 0
1, 15360, Note_on_c, 0, 50, 127
1, 15360, Note_on_c, 0, 57, 127
1, 15360, Note_on_c, 1, 38, 127
1, 15360, Note_on_c, 0, 64, 127
1, 15360, Note_on_c, 0, 38, 127
1, 15360, Note_on_c, 0, 61, 127
1, 15600, Note_on_c, 1, 38, 0
1, 15840, Note_on_c, 0, 57, 0
1, 15840, Note_on_c, 0, 64, 0
1, 15840, Note_on_c, 0, 50, 0
1, 15840, Note_on_c, 0, 61, 0
1, 15840, Note_on_c, 0, 38, 0
1, 15840, End_track
0, 0, End_of_file
