0, 0, Header, 1, 28, 120
1, 0, Start_track
1, 0, Time_signature, 4, 2, 24, 8
1, 0, Tempo, 705882
1, 0, Marker_t, "C'est pour vivre     2' 48     Slow     ( Céline Dion)"
1, 0, End_track
2, 0, Start_track
2, 0, Title_t, "Soft karaoke"
2, 0, Text_t, "@KMIDI KARAOKE FILE"
2, 0, End_track
3, 0, Start_track
3, 0, Title_t, "Words"
3, 0, Text_t, "@LENGL"
3, 0, Text_t, "@TC'est pour vivre"
3, 0, Text_t, "@TCéline Dion"
3, 0, Text_t, "@TKaraoked by Gildad (Remerciements à Jabri)"
3, 1560, Text_t, "\\C'est pour"
3, 1680, Text_t, " vi"
3, 1800, Text_t, "vre"
3, 1920, Text_t, " que"
3, 1980, Text_t, " le"
3, 2040, Text_t, " mon"
3, 2100, Text_t, "de"
3, 2160, Text_t, " chant'"
3, 2400, Text_t, "/Dans"
3, 2520, Text_t, " la"
3, 2580, Text_t, " dou"
3, 2640, Text_t, "leur"
3, 2760, Text_t, " ou"
3, 2880, Text_t, " dans"
3, 3060, Text_t, " la"
3, 3120, Text_t, " joie"
3, 3360, Text_t, "/C'est"
3, 3480, Text_t, " pour"
3, 3600, Text_t, " vi"
3, 3720, Text_t, "vre"
3, 3840, Text_t, " que"
3, 3900, Text_t, " le"
3, 3960, Text_t, " mond'"
3, 4020, Text_t, " in"
3, 4060, Text_t, "vent'"
3, 4320, Text_t, "/Des"
3, 4500, Text_t, " chan"
3, 4560, Text_t, "sons"
3, 4620, Text_t, " à"
3, 4696, Text_t, " cha"
3, 4744, Text_t, "que"
3, 4800, Text_t, " pas"
3, 5280, Text_t, "\\C'est"
3, 5400, Text_t, " pour"
3, 5520, Text_t, " vi"
3, 5640, Text_t, "vre"
3, 5760, Text_t, " que"
3, 5820, Text_t, " tous"
3, 5880, Text_t, " les"
3, 5940, Text_t, " po"
3, 6000, Text_t, "èt'"
3, 6240, Text_t, "/Les"
3, 6360, Text_t, " mu"
3, 6420, Text_t, "si"
3, 6480, Text_t, "ciens"
3, 6600, Text_t, " les"
3, 6720, Text_t, " fous"
3, 6900, Text_t, " du"
3, 6960, Text_t, " roi"
3, 7200, Text_t, "/C'est"
3, 7320, Text_t, " pour"
3, 7440, Text_t, " vi"
3, 7560, Text_t, "vre"
3, 7680, Text_t, " con"
3, 7740, Text_t, "tre"
3, 7800, Text_t, " la"
3, 7860, Text_t, " tem"
3, 7900, Text_t, "pêt'"
3, 8160, Text_t, "/Qu'ils"
3, 8340, Text_t, " nous"
3, 8400, Text_t, " ont"
3, 8460, Text_t, " prê"
3, 8532, Text_t, "té"
3, 8580, Text_t, " leur"
3, 8640, Text_t, " voix"
3, 9120, Text_t, "\\C'est"
3, 9240, Text_t, " pour"
3, 9360, Text_t, " vi"
3, 9480, Text_t, "vre"
3, 9600, Text_t, " que"
3, 9660, Text_t, " des"
3, 9720, Text_t, " gens"
3, 9780, Text_t, " s'e"
3, 9840, Text_t, "xil'"
3, 10080, Text_t, "/Que"
3, 10200, Text_t, " des"
3, 10260, Text_t, " a"
3, 10320, Text_t, "vions"
3, 10440, Text_t, " bri"
3, 10560, Text_t, "sent"
3, 10740, Text_t, " leurs"
3, 10800, Text_t, " ail'"
3, 11040, Text_t, "/C'est"
3, 11160, Text_t, " pour"
3, 11280, Text_t, " vi"
3, 11400, Text_t, "vre"
3, 11520, Text_t, " que"
3, 11580, Text_t, " l'on"
3, 11640, Text_t, " jett'"
3, 11700, Text_t, " des"
3, 11740, Text_t, " bill'"
3, 12000, Text_t, "/Dans"
3, 12180, Text_t, " les"
3, 12240, Text_t, " qua"
3, 12300, Text_t, "tre"
3, 12372, Text_t, " vents"
3, 12420, Text_t, " du"
3, 12480, Text_t, " ciel"
3, 12960, Text_t, "\\Tous"
3, 13080, Text_t, " ces"
3, 13200, Text_t, " hom"
3, 13320, Text_t, "mes"
3, 13440, Text_t, " qui"
3, 13500, Text_t, " cher"
3, 13560, Text_t, "chent"
3, 13620, Text_t, " la"
3, 13680, Text_t, " rim'"
3, 13920, Text_t, "/Et"
3, 14040, Text_t, " la"
3, 14100, Text_t, " rai"
3, 14160, Text_t, "son"
3, 14280, Text_t, " du"
3, 14400, Text_t, " verb'"
3, 14580, Text_t, " ai"
3, 14640, Text_t, "mer"
3, 14880, Text_t, "/Tous"
3, 15000, Text_t, " ces"
3, 15120, Text_t, " hom"
3, 15240, Text_t, "mes"
3, 15360, Text_t, " qui"
3, 15420, Text_t, " se"
3, 15480, Text_t, " cherch'"
3, 15540, Text_t, " un"
3, 15580, Text_t, " hymn'"
3, 15840, Text_t, "/Que"
3, 16020, Text_t, " d'autr'"
3, 16080, Text_t, " ont"
3, 16140, Text_t, " dé"
3, 16212, Text_t, "jà"
3, 16256, Text_t, " trou"
3, 16320, Text_t, "vés"
3, 16800, Text_t, "\\C'est"
3, 16920, Text_t, " pour"
3, 17040, Text_t, " vi"
3, 17160, Text_t, "vre"
3, 17280, Text_t, " et"
3, 17340, Text_t, " peu"
3, 17400, Text_t, "pler"
3, 17460, Text_t, " la"
3, 17520, Text_t, " terr'"
3, 17760, Text_t, "/Que"
3, 17880, Text_t, " de"
3, 17940, Text_t, " co"
3, 18000, Text_t, "lomb'"
3, 18120, Text_t, " en"
3, 18240, Text_t, " o"
3, 18420, Text_t, "li"
3, 18472, Text_t, "vier"
3, 18720, Text_t, "/C'est"
3, 18840, Text_t, " pour"
3, 18960, Text_t, " vi"
3, 19080, Text_t, "vre"
3, 19200, Text_t, " par"
3, 19260, Text_t, " des"
3, 19320, Text_t, "sus"
3, 19380, Text_t, " les"
3, 19420, Text_t, " guerr'"
3, 19680, Text_t, "/Que"
3, 19860, Text_t, " Jé"
3, 19920, Text_t, "ru"
3, 19980, Text_t, "sa"
3, 20052, Text_t, "lem"
3, 20096, Text_t, " est"
3, 20160, Text_t, " née"
3, 20640, Text_t, "\\C'est"
3, 20760, Text_t, " pour"
3, 20880, Text_t, " vi"
3, 21000, Text_t, "vre"
3, 21120, Text_t, " par"
3, 21180, Text_t, "mi"
3, 21240, Text_t, " les"
3, 21300, Text_t, " é"
3, 21360, Text_t, "toil'"
3, 21600, Text_t, "/Que"
3, 21720, Text_t, " l'homme"
3, 21780, Text_t, " un"
3, 21840, Text_t, " jour"
3, 21960, Text_t, " s'est"
3, 22080, Text_t, " en"
3, 22260, Text_t, "vo"
3, 22320, Text_t, "lé"
3, 22560, Text_t, "/C'est"
3, 22680, Text_t, " pour"
3, 22800, Text_t, " vi"
3, 22920, Text_t, "vre"
3, 23040, Text_t, " par"
3, 23100, Text_t, "mi"
3, 23160, Text_t, " les"
3, 23220, Text_t, " é"
3, 23280, Text_t, "toil'"
3, 23516, Text_t, "/Un"
3, 23700, Text_t, " mo"
3, 23760, Text_t, "ment"
3, 23820, Text_t, " d'é"
3, 23896, Text_t, "ter"
3, 23940, Text_t, "ni"
3, 24000, Text_t, "té"
3, 24480, Text_t, "\\C'est"
3, 24600, Text_t, " pour"
3, 24720, Text_t, " vi"
3, 24840, Text_t, "vre"
3, 24960, Text_t, " que"
3, 25020, Text_t, " des"
3, 25080, Text_t, " ar"
3, 25140, Text_t, "bres"
3, 25200, Text_t, " tomb'"
3, 25440, Text_t, "/A"
3, 25560, Text_t, " l'heur'"
3, 25620, Text_t, " où"
3, 25680, Text_t, " nais"
3, 25800, Text_t, "sent"
3, 25920, Text_t, " des"
3, 26100, Text_t, " en"
3, 26160, Text_t, "fants"
3, 26400, Text_t, "/C'est"
3, 26520, Text_t, " pour"
3, 26640, Text_t, " vi"
3, 26760, Text_t, "vre"
3, 26880, Text_t, " qu'on"
3, 26940, Text_t, " dé"
3, 27000, Text_t, "fend"
3, 27060, Text_t, " ce"
3, 27090, Text_t, " mond'"
3, 27360, Text_t, "/Tant"
3, 27540, Text_t, " que"
3, 27600, Text_t, " l'a"
3, 27660, Text_t, "mour"
3, 27736, Text_t, " est"
3, 27780, Text_t, " vi"
3, 27840, Text_t, "vant"
3, 27840, End_track
4, 0, Start_track
4, 0, Title_t, "Remixé et arrangé par Jabri"
4, 0, Control_c, 0, 7, 0
4, 0, Control_c, 0, 0, 0
4, 0, End_track
5, 0, Start_track
5, 0, Title_t, "Bass"
5, 0, Program_c, 1, 33
5, 0, Control_c, 1, 7, 78
5, 1, Control_c, 1, 0, 0
5, 2, Program_c, 1, 33
5, 3, Control_c, 1, 10, 64
5, 4, Control_c, 1, 91, 20
5, 5, Control_c, 1, 93, 40
5, 6, Control_c, 1, 11, 127
5, 5280, Note_on_c, 1, 36, 100
5, 5400, Note_off_c, 1, 36, 64
5, 5400, Note_on_c, 1, 31, 92
5, 5510, Note_off_c, 1, 31, 64
5, 5520, Note_on_c, 1, 28, 100
5, 5680, Note_off_c, 1, 28, 64
5, 5700, Note_on_c, 1, 28, 78
5, 5700, Note_on_c, 1, 29, 76
5, 5735, Note_off_c, 1, 29, 64
5, 5745, Note_off_c, 1, 28, 64
5, 5760, Note_on_c, 1, 29, 127
5, 5995, Note_off_c, 1, 29, 64
5, 6000, Note_on_c, 1, 31, 127
5, 6240, Note_off_c, 1, 31, 64
5, 6240, Note_on_c, 1, 36, 127
5, 6385, Note_off_c, 1, 36, 64
5, 6420, Note_on_c, 1, 36, 118
5, 6455, Note_off_c, 1, 36, 64
5, 6480, Note_on_c, 1, 33, 122
5, 6705, Note_off_c, 1, 33, 64
5, 6720, Note_on_c, 1, 26, 118
5, 6870, Note_off_c, 1, 26, 64
5, 6900, Note_on_c, 1, 26, 106
5, 6955, Note_off_c, 1, 26, 64
5, 6960, Note_on_c, 1, 31, 127
5, 7195, Note_off_c, 1, 31, 64
5, 7200, Note_on_c, 1, 36, 127
5, 7320, Note_off_c, 1, 36, 64
5, 7320, Note_on_c, 1, 35, 127
5, 7415, Note_off_c, 1, 35, 64
5, 7440, Note_on_c, 1, 33, 127
5, 7545, Note_off_c, 1, 33, 64
5, 7560, Note_on_c, 1, 31, 127
5, 7660, Note_off_c, 1, 31, 64
5, 7680, Note_on_c, 1, 29, 106
5, 7785, Note_off_c, 1, 29, 64
5, 7800, Note_on_c, 1, 31, 118
5, 7910, Note_off_c, 1, 31, 64
5, 7920, Note_on_c, 1, 36, 113
5, 8155, Note_off_c, 1, 36, 64
5, 8160, Note_on_c, 1, 33, 106
5, 8385, Note_off_c, 1, 33, 64
5, 8400, Note_on_c, 1, 28, 110
5, 8520, Note_off_c, 1, 28, 64
5, 8520, Note_on_c, 1, 31, 122
5, 8640, Note_off_c, 1, 31, 64
5, 8640, Note_on_c, 1, 36, 113
5, 8760, Note_off_c, 1, 36, 64
5, 8760, Note_on_c, 1, 29, 127
5, 8870, Note_off_c, 1, 29, 64
5, 8880, Note_on_c, 1, 28, 118
5, 8990, Note_off_c, 1, 28, 64
5, 9000, Note_on_c, 1, 26, 118
5, 9110, Note_off_c, 1, 26, 64
5, 9120, Note_on_c, 1, 36, 100
5, 9240, Note_off_c, 1, 36, 64
5, 9240, Note_on_c, 1, 31, 92
5, 9350, Note_off_c, 1, 31, 64
5, 9360, Note_on_c, 1, 28, 100
5, 9520, Note_off_c, 1, 28, 64
5, 9540, Note_on_c, 1, 28, 78
5, 9540, Note_on_c, 1, 29, 76
5, 9575, Note_off_c, 1, 29, 64
5, 9585, Note_off_c, 1, 28, 64
5, 9600, Note_on_c, 1, 29, 127
5, 9835, Note_off_c, 1, 29, 64
5, 9840, Note_on_c, 1, 31, 127
5, 10080, Note_off_c, 1, 31, 64
5, 10080, Note_on_c, 1, 36, 127
5, 10225, Note_off_c, 1, 36, 64
5, 10260, Note_on_c, 1, 36, 118
5, 10295, Note_off_c, 1, 36, 64
5, 10320, Note_on_c, 1, 33, 122
5, 10545, Note_off_c, 1, 33, 64
5, 10560, Note_on_c, 1, 26, 118
5, 10710, Note_off_c, 1, 26, 64
5, 10740, Note_on_c, 1, 26, 106
5, 10795, Note_off_c, 1, 26, 64
5, 10800, Note_on_c, 1, 31, 127
5, 11035, Note_off_c, 1, 31, 64
5, 11040, Note_on_c, 1, 36, 127
5, 11160, Note_off_c, 1, 36, 64
5, 11160, Note_on_c, 1, 35, 127
5, 11255, Note_off_c, 1, 35, 64
5, 11280, Note_on_c, 1, 33, 127
5, 11385, Note_off_c, 1, 33, 64
5, 11400, Note_on_c, 1, 31, 127
5, 11500, Note_off_c, 1, 31, 64
5, 11520, Note_on_c, 1, 29, 106
5, 11625, Note_off_c, 1, 29, 64
5, 11640, Note_on_c, 1, 31, 118
5, 11750, Note_off_c, 1, 31, 64
5, 11760, Note_on_c, 1, 36, 113
5, 11995, Note_off_c, 1, 36, 64
5, 12000, Note_on_c, 1, 33, 106
5, 12225, Note_off_c, 1, 33, 64
5, 12240, Note_on_c, 1, 28, 110
5, 12360, Note_off_c, 1, 28, 64
5, 12360, Note_on_c, 1, 31, 122
5, 12480, Note_off_c, 1, 31, 64
5, 12480, Note_on_c, 1, 36, 113
5, 12600, Note_off_c, 1, 36, 64
5, 12600, Note_on_c, 1, 29, 127
5, 12710, Note_off_c, 1, 29, 64
5, 12720, Note_on_c, 1, 28, 118
5, 12830, Note_off_c, 1, 28, 64
5, 12840, Note_on_c, 1, 26, 118
5, 12950, Note_off_c, 1, 26, 64
5, 12960, Note_on_c, 1, 36, 100
5, 13080, Note_off_c, 1, 36, 64
5, 13080, Note_on_c, 1, 31, 92
5, 13190, Note_off_c, 1, 31, 64
5, 13200, Note_on_c, 1, 28, 100
5, 13360, Note_off_c, 1, 28, 64
5, 13380, Note_on_c, 1, 28, 78
5, 13380, Note_on_c, 1, 29, 76
5, 13415, Note_off_c, 1, 29, 64
5, 13425, Note_off_c, 1, 28, 64
5, 13440, Note_on_c, 1, 29, 127
5, 13675, Note_off_c, 1, 29, 64
5, 13680, Note_on_c, 1, 31, 127
5, 13920, Note_off_c, 1, 31, 64
5, 13920, Note_on_c, 1, 36, 127
5, 14065, Note_off_c, 1, 36, 64
5, 14100, Note_on_c, 1, 36, 118
5, 14135, Note_off_c, 1, 36, 64
5, 14160, Note_on_c, 1, 33, 122
5, 14385, Note_off_c, 1, 33, 64
5, 14400, Note_on_c, 1, 26, 118
5, 14550, Note_off_c, 1, 26, 64
5, 14580, Note_on_c, 1, 26, 106
5, 14635, Note_off_c, 1, 26, 64
5, 14640, Note_on_c, 1, 31, 127
5, 14875, Note_off_c, 1, 31, 64
5, 14880, Note_on_c, 1, 36, 127
5, 15000, Note_off_c, 1, 36, 64
5, 15000, Note_on_c, 1, 35, 127
5, 15095, Note_off_c, 1, 35, 64
5, 15120, Note_on_c, 1, 33, 127
5, 15225, Note_off_c, 1, 33, 64
5, 15240, Note_on_c, 1, 31, 127
5, 15340, Note_off_c, 1, 31, 64
5, 15360, Note_on_c, 1, 29, 106
5, 15465, Note_off_c, 1, 29, 64
5, 15480, Note_on_c, 1, 31, 118
5, 15590, Note_off_c, 1, 31, 64
5, 15600, Note_on_c, 1, 36, 113
5, 15835, Note_off_c, 1, 36, 64
5, 15840, Note_on_c, 1, 33, 106
5, 16065, Note_off_c, 1, 33, 64
5, 16080, Note_on_c, 1, 28, 110
5, 16200, Note_off_c, 1, 28, 64
5, 16200, Note_on_c, 1, 31, 122
5, 16320, Note_off_c, 1, 31, 64
5, 16320, Note_on_c, 1, 36, 113
5, 16440, Note_off_c, 1, 36, 64
5, 16440, Note_on_c, 1, 29, 127
5, 16550, Note_off_c, 1, 29, 64
5, 16560, Note_on_c, 1, 28, 118
5, 16670, Note_off_c, 1, 28, 64
5, 16680, Note_on_c, 1, 26, 118
5, 16790, Note_off_c, 1, 26, 64
5, 16800, Note_on_c, 1, 36, 100
5, 16920, Note_off_c, 1, 36, 64
5, 16920, Note_on_c, 1, 31, 92
5, 17030, Note_off_c, 1, 31, 64
5, 17040, Note_on_c, 1, 28, 100
5, 17200, Note_off_c, 1, 28, 64
5, 17220, Note_on_c, 1, 28, 78
5, 17220, Note_on_c, 1, 29, 76
5, 17255, Note_off_c, 1, 29, 64
5, 17265, Note_off_c, 1, 28, 64
5, 17280, Note_on_c, 1, 29, 127
5, 17515, Note_off_c, 1, 29, 64
5, 17520, Note_on_c, 1, 31, 127
5, 17760, Note_off_c, 1, 31, 64
5, 17760, Note_on_c, 1, 36, 127
5, 17905, Note_off_c, 1, 36, 64
5, 17940, Note_on_c, 1, 36, 118
5, 17975, Note_off_c, 1, 36, 64
5, 18000, Note_on_c, 1, 33, 122
5, 18225, Note_off_c, 1, 33, 64
5, 18240, Note_on_c, 1, 26, 118
5, 18390, Note_off_c, 1, 26, 64
5, 18420, Note_on_c, 1, 26, 106
5, 18475, Note_off_c, 1, 26, 64
5, 18480, Note_on_c, 1, 31, 127
5, 18715, Note_off_c, 1, 31, 64
5, 18720, Note_on_c, 1, 36, 127
5, 18840, Note_off_c, 1, 36, 64
5, 18840, Note_on_c, 1, 35, 127
5, 18935, Note_off_c, 1, 35, 64
5, 18960, Note_on_c, 1, 33, 127
5, 19065, Note_off_c, 1, 33, 64
5, 19080, Note_on_c, 1, 31, 127
5, 19180, Note_off_c, 1, 31, 64
5, 19200, Note_on_c, 1, 29, 106
5, 19305, Note_off_c, 1, 29, 64
5, 19320, Note_on_c, 1, 31, 118
5, 19430, Note_off_c, 1, 31, 64
5, 19440, Note_on_c, 1, 36, 113
5, 19675, Note_off_c, 1, 36, 64
5, 19680, Note_on_c, 1, 33, 106
5, 19905, Note_off_c, 1, 33, 64
5, 19920, Note_on_c, 1, 28, 110
5, 20040, Note_off_c, 1, 28, 64
5, 20040, Note_on_c, 1, 31, 122
5, 20160, Note_off_c, 1, 31, 64
5, 20160, Note_on_c, 1, 36, 113
5, 20280, Note_off_c, 1, 36, 64
5, 20280, Note_on_c, 1, 29, 127
5, 20390, Note_off_c, 1, 29, 64
5, 20400, Note_on_c, 1, 28, 118
5, 20510, Note_off_c, 1, 28, 64
5, 20520, Note_on_c, 1, 26, 118
5, 20630, Note_off_c, 1, 26, 64
5, 20640, Note_on_c, 1, 36, 127
5, 20760, Note_on_c, 1, 31, 118
5, 20765, Note_off_c, 1, 36, 64
5, 20865, Note_off_c, 1, 31, 64
5, 20880, Note_on_c, 1, 28, 94
5, 21120, Note_off_c, 1, 28, 64
5, 21120, Note_on_c, 1, 29, 127
5, 21265, Note_off_c, 1, 29, 64
5, 21300, Note_on_c, 1, 29, 127
5, 21355, Note_off_c, 1, 29, 64
5, 21360, Note_on_c, 1, 31, 127
5, 21475, Note_off_c, 1, 31, 64
5, 21480, Note_on_c, 1, 33, 90
5, 21535, Note_off_c, 1, 33, 64
5, 21540, Note_on_c, 1, 35, 127
5, 21590, Note_off_c, 1, 35, 64
5, 21600, Note_on_c, 1, 36, 127
5, 21840, Note_on_c, 1, 33, 127
5, 21845, Note_off_c, 1, 36, 64
5, 21990, Note_off_c, 1, 33, 64
5, 22020, Note_on_c, 1, 33, 110
5, 22055, Note_off_c, 1, 33, 64
5, 22080, Note_on_c, 1, 26, 122
5, 22315, Note_off_c, 1, 26, 64
5, 22320, Note_on_c, 1, 31, 127
5, 22550, Note_off_c, 1, 31, 64
5, 22560, Note_on_c, 1, 36, 127
5, 22670, Note_off_c, 1, 36, 64
5, 22680, Note_on_c, 1, 35, 127
5, 22780, Note_off_c, 1, 35, 64
5, 22800, Note_on_c, 1, 33, 127
5, 22910, Note_off_c, 1, 33, 64
5, 22920, Note_on_c, 1, 31, 127
5, 23020, Note_off_c, 1, 31, 64
5, 23040, Note_on_c, 1, 29, 127
5, 23150, Note_off_c, 1, 29, 64
5, 23160, Note_on_c, 1, 31, 127
5, 23270, Note_off_c, 1, 31, 64
5, 23280, Note_on_c, 1, 36, 122
5, 23520, Note_on_c, 1, 33, 106
5, 23525, Note_off_c, 1, 36, 64
5, 23740, Note_off_c, 1, 33, 64
5, 23760, Note_on_c, 1, 28, 110
5, 23880, Note_off_c, 1, 28, 64
5, 23880, Note_on_c, 1, 31, 122
5, 24000, Note_on_c, 1, 36, 122
5, 24005, Note_off_c, 1, 31, 64
5, 24110, Note_off_c, 1, 36, 64
5, 24120, Note_on_c, 1, 29, 127
5, 24220, Note_off_c, 1, 29, 64
5, 24240, Note_on_c, 1, 28, 127
5, 24350, Note_off_c, 1, 28, 64
5, 24360, Note_on_c, 1, 26, 127
5, 24460, Note_off_c, 1, 26, 64
5, 24480, Note_on_c, 1, 36, 100
5, 24600, Note_off_c, 1, 36, 64
5, 24600, Note_on_c, 1, 31, 92
5, 24710, Note_off_c, 1, 31, 64
5, 24720, Note_on_c, 1, 28, 100
5, 24880, Note_off_c, 1, 28, 64
5, 24900, Note_on_c, 1, 28, 78
5, 24900, Note_on_c, 1, 29, 76
5, 24935, Note_off_c, 1, 29, 64
5, 24945, Note_off_c, 1, 28, 64
5, 24960, Note_on_c, 1, 29, 127
5, 25195, Note_off_c, 1, 29, 64
5, 25200, Note_on_c, 1, 31, 127
5, 25440, Note_off_c, 1, 31, 64
5, 25440, Note_on_c, 1, 36, 127
5, 25585, Note_off_c, 1, 36, 64
5, 25620, Note_on_c, 1, 36, 118
5, 25655, Note_off_c, 1, 36, 64
5, 25680, Note_on_c, 1, 33, 122
5, 25905, Note_off_c, 1, 33, 64
5, 25920, Note_on_c, 1, 26, 118
5, 26070, Note_off_c, 1, 26, 64
5, 26100, Note_on_c, 1, 26, 106
5, 26155, Note_off_c, 1, 26, 64
5, 26160, Note_on_c, 1, 31, 127
5, 26395, Note_off_c, 1, 31, 64
5, 26400, Note_on_c, 1, 36, 127
5, 26520, Note_off_c, 1, 36, 64
5, 26520, Note_on_c, 1, 35, 127
5, 26615, Note_off_c, 1, 35, 64
5, 26640, Note_on_c, 1, 33, 127
5, 26745, Note_off_c, 1, 33, 64
5, 26760, Note_on_c, 1, 31, 127
5, 26860, Note_off_c, 1, 31, 64
5, 26880, Note_on_c, 1, 29, 106
5, 26985, Note_off_c, 1, 29, 64
5, 27000, Note_on_c, 1, 31, 118
5, 27110, Note_off_c, 1, 31, 64
5, 27120, Note_on_c, 1, 36, 113
5, 27355, Note_off_c, 1, 36, 64
5, 27360, Note_on_c, 1, 33, 106
5, 27585, Note_off_c, 1, 33, 64
5, 27600, Note_on_c, 1, 28, 110
5, 27720, Note_off_c, 1, 28, 64
5, 27720, Note_on_c, 1, 31, 122
5, 27840, Note_off_c, 1, 31, 64
5, 27840, Note_on_c, 1, 36, 113
5, 27960, Note_off_c, 1, 36, 64
5, 27960, Note_on_c, 1, 29, 127
5, 28070, Note_off_c, 1, 29, 64
5, 28080, Note_on_c, 1, 28, 118
5, 28190, Note_off_c, 1, 28, 64
5, 28200, Note_on_c, 1, 26, 118
5, 28310, Note_off_c, 1, 26, 64
5, 28320, Note_on_c, 1, 36, 127
5, 28445, Note_off_c, 1, 36, 64
5, 28445, End_track
6, 0, Start_track
6, 0, Title_t, "Rythmique"
6, 0, Program_c, 2, 24
6, 0, Control_c, 2, 7, 64
6, 1, Control_c, 2, 0, 0
6, 2, Program_c, 2, 24
6, 3, Control_c, 2, 10, 15
6, 4, Control_c, 2, 91, 85
6, 5, Control_c, 2, 93, 75
6, 6, Control_c, 2, 11, 127
6, 480, Note_on_c, 2, 67, 78
6, 600, Note_on_c, 2, 72, 84
6, 660, Note_off_c, 2, 72, 64
6, 660, Note_on_c, 2, 71, 72
6, 665, Note_off_c, 2, 67, 64
6, 720, Note_on_c, 2, 67, 61
6, 725, Note_off_c, 2, 71, 64
6, 905, Note_off_c, 2, 67, 64
6, 960, Note_on_c, 2, 67, 94
6, 1080, Note_on_c, 2, 76, 82
6, 1140, Note_on_c, 2, 74, 87
6, 1145, Note_off_c, 2, 76, 64
6, 1145, Note_off_c, 2, 67, 64
6, 1200, Note_on_c, 2, 67, 65
6, 1210, Note_off_c, 2, 74, 64
6, 1370, Note_off_c, 2, 67, 64
6, 1440, Note_on_c, 2, 67, 60
6, 1440, Note_on_c, 2, 72, 67
6, 1440, Note_on_c, 2, 76, 70
6, 1540, Note_off_c, 2, 76, 64
6, 1540, Note_off_c, 2, 67, 64
6, 1545, Note_off_c, 2, 72, 64
6, 1560, Note_on_c, 2, 67, 62
6, 1560, Note_on_c, 2, 71, 87
6, 1560, Note_on_c, 2, 74, 73
6, 1655, Note_off_c, 2, 67, 64
6, 1660, Note_off_c, 2, 74, 64
6, 1660, Note_off_c, 2, 71, 64
6, 1680, Note_on_c, 2, 67, 62
6, 1680, Note_on_c, 2, 71, 78
6, 1680, Note_on_c, 2, 76, 90
6, 1785, Note_off_c, 2, 76, 64
6, 1785, Note_off_c, 2, 67, 64
6, 1790, Note_off_c, 2, 71, 64
6, 1800, Note_on_c, 2, 67, 58
6, 1800, Note_on_c, 2, 71, 70
6, 1800, Note_on_c, 2, 76, 70
6, 1890, Note_off_c, 2, 76, 64
6, 1900, Note_off_c, 2, 71, 64
6, 1905, Note_off_c, 2, 67, 64
6, 1920, Note_on_c, 2, 65, 85
6, 1920, Note_on_c, 2, 69, 94
6, 1920, Note_on_c, 2, 72, 74
6, 1970, Note_off_c, 2, 69, 64
6, 2010, Note_on_c, 2, 69, 12
6, 2030, Note_off_c, 2, 65, 64
6, 2035, Note_off_c, 2, 69, 64
6, 2035, Note_off_c, 2, 72, 64
6, 2040, Note_on_c, 2, 65, 74
6, 2040, Note_on_c, 2, 69, 72
6, 2040, Note_on_c, 2, 72, 57
6, 2100, Note_on_c, 2, 60, 46
6, 2115, Note_off_c, 2, 72, 64
6, 2125, Note_off_c, 2, 69, 64
6, 2130, Note_off_c, 2, 65, 64
6, 2145, Note_off_c, 2, 60, 64
6, 2160, Note_on_c, 2, 62, 77
6, 2160, Note_on_c, 2, 67, 74
6, 2160, Note_on_c, 2, 71, 77
6, 2205, Note_off_c, 2, 62, 64
6, 2220, Note_on_c, 2, 62, 53
6, 2240, Note_off_c, 2, 71, 64
6, 2245, Note_off_c, 2, 67, 64
6, 2280, Note_on_c, 2, 67, 55
6, 2280, Note_on_c, 2, 71, 68
6, 2310, Note_off_c, 2, 62, 64
6, 2340, Note_on_c, 2, 62, 54
6, 2350, Note_off_c, 2, 71, 64
6, 2355, Note_off_c, 2, 67, 64
6, 2370, Note_off_c, 2, 62, 64
6, 2400, Note_on_c, 2, 64, 76
6, 2400, Note_on_c, 2, 67, 69
6, 2400, Note_on_c, 2, 72, 77
6, 2500, Note_off_c, 2, 72, 64
6, 2505, Note_off_c, 2, 67, 64
6, 2505, Note_off_c, 2, 64, 64
6, 2520, Note_on_c, 2, 64, 67
6, 2520, Note_on_c, 2, 67, 82
6, 2520, Note_on_c, 2, 72, 77
6, 2555, Note_off_c, 2, 64, 64
6, 2580, Note_on_c, 2, 64, 42
6, 2625, Note_off_c, 2, 67, 64
6, 2640, Note_on_c, 2, 69, 44
6, 2680, Note_off_c, 2, 64, 64
6, 2700, Note_on_c, 2, 64, 43
6, 2710, Note_off_c, 2, 72, 64
6, 2715, Note_off_c, 2, 69, 64
6, 2740, Note_off_c, 2, 64, 64
6, 2760, Note_on_c, 2, 72, 78
6, 2760, Note_on_c, 2, 64, 68
6, 2760, Note_on_c, 2, 69, 92
6, 2800, Note_off_c, 2, 64, 64
6, 2820, Note_on_c, 2, 64, 51
6, 2830, Note_off_c, 2, 69, 64
6, 2850, Note_off_c, 2, 64, 64
6, 2880, Note_on_c, 2, 62, 60
6, 2880, Note_on_c, 2, 66, 46
6, 2880, Note_on_c, 2, 69, 15
6, 2920, Note_off_c, 2, 62, 64
6, 2930, Note_off_c, 2, 69, 64
6, 2940, Note_on_c, 2, 62, 48
6, 2945, Note_off_c, 2, 66, 64
6, 2980, Note_off_c, 2, 72, 64
6, 3000, Note_on_c, 2, 66, 100
6, 3000, Note_on_c, 2, 69, 80
6, 3000, Note_on_c, 2, 72, 62
6, 3025, Note_off_c, 2, 62, 64
6, 3060, Note_on_c, 2, 62, 54
6, 3070, Note_off_c, 2, 72, 64
6, 3095, Note_off_c, 2, 66, 64
6, 3100, Note_off_c, 2, 69, 64
6, 3120, Note_on_c, 2, 67, 65
6, 3120, Note_on_c, 2, 71, 70
6, 3140, Note_off_c, 2, 62, 64
6, 3180, Note_on_c, 2, 62, 48
6, 3190, Note_off_c, 2, 67, 64
6, 3205, Note_off_c, 2, 71, 64
6, 3240, Note_on_c, 2, 67, 77
6, 3240, Note_on_c, 2, 71, 78
6, 3265, Note_off_c, 2, 62, 64
6, 3300, Note_on_c, 2, 62, 56
6, 3310, Note_off_c, 2, 71, 64
6, 3325, Note_off_c, 2, 62, 64
6, 3325, Note_off_c, 2, 67, 64
6, 3360, Note_on_c, 2, 67, 84
6, 3360, Note_on_c, 2, 72, 97
6, 3415, Note_off_c, 2, 67, 64
6, 3420, Note_on_c, 2, 64, 106
6, 3430, Note_off_c, 2, 72, 64
6, 3480, Note_on_c, 2, 67, 59
6, 3480, Note_on_c, 2, 72, 73
6, 3495, Note_off_c, 2, 72, 64
6, 3520, Note_off_c, 2, 67, 64
6, 3540, Note_on_c, 2, 67, 56
6, 3540, Note_on_c, 2, 68, 76
6, 3540, Note_on_c, 2, 71, 80
6, 3541, Note_off_c, 2, 68, 64
6, 3565, Note_off_c, 2, 67, 64
6, 3575, Note_off_c, 2, 71, 64
6, 3600, Note_on_c, 2, 69, 68
6, 3600, Note_on_c, 2, 72, 85
6, 3625, Note_off_c, 2, 64, 64
6, 3660, Note_on_c, 2, 64, 90
6, 3665, Note_off_c, 2, 72, 64
6, 3665, Note_off_c, 2, 69, 64
6, 3720, Note_on_c, 2, 67, 82
6, 3720, Note_on_c, 2, 72, 74
6, 3750, Note_off_c, 2, 64, 64
6, 3780, Note_on_c, 2, 64, 92
6, 3820, Note_off_c, 2, 72, 64
6, 3825, Note_off_c, 2, 67, 64
6, 3830, Note_off_c, 2, 64, 64
6, 3840, Note_on_c, 2, 69, 66
6, 3840, Note_on_c, 2, 72, 82
6, 3900, Note_on_c, 2, 65, 94
6, 3905, Note_off_c, 2, 69, 64
6, 3920, Note_off_c, 2, 72, 64
6, 3945, Note_off_c, 2, 65, 64
6, 3960, Note_on_c, 2, 62, 57
6, 3960, Note_on_c, 2, 64, 50
6, 3960, Note_on_c, 2, 67, 78
6, 3960, Note_on_c, 2, 71, 59
6, 3965, Note_off_c, 2, 64, 64
6, 3975, Note_off_c, 2, 62, 64
6, 4020, Note_on_c, 2, 62, 78
6, 4055, Note_off_c, 2, 71, 64
6, 4060, Note_off_c, 2, 62, 64
6, 4075, Note_off_c, 2, 67, 64
6, 4080, Note_on_c, 2, 72, 94
6, 4110, Note_on_c, 2, 64, 85
6, 4115, Note_off_c, 2, 72, 64
6, 4140, Note_on_c, 2, 67, 56
6, 4155, Note_off_c, 2, 64, 64
6, 4170, Note_on_c, 2, 72, 74
6, 4225, Note_off_c, 2, 67, 64
6, 4230, Note_on_c, 2, 64, 87
6, 4255, Note_off_c, 2, 72, 64
6, 4260, Note_on_c, 2, 67, 59
6, 4290, Note_off_c, 2, 64, 64
6, 4290, Note_on_c, 2, 72, 65
6, 4300, Note_off_c, 2, 67, 64
6, 4320, Note_on_c, 2, 69, 85
6, 4380, Note_on_c, 2, 64, 84
6, 4410, Note_off_c, 2, 72, 64
6, 4415, Note_off_c, 2, 69, 64
6, 4440, Note_on_c, 2, 69, 78
6, 4440, Note_on_c, 2, 72, 85
6, 4465, Note_off_c, 2, 64, 64
6, 4500, Note_on_c, 2, 64, 54
6, 4520, Note_off_c, 2, 69, 64
6, 4535, Note_off_c, 2, 72, 64
6, 4560, Note_on_c, 2, 67, 68
6, 4560, Note_on_c, 2, 71, 68
6, 4590, Note_off_c, 2, 64, 64
6, 4620, Note_on_c, 2, 64, 56
6, 4635, Note_off_c, 2, 71, 64
6, 4635, Note_off_c, 2, 67, 64
6, 4665, Note_off_c, 2, 64, 64
6, 4680, Note_on_c, 2, 62, 67
6, 4680, Note_on_c, 2, 65, 66
6, 4680, Note_on_c, 2, 67, 67
6, 4680, Note_on_c, 2, 69, 44
6, 4715, Note_off_c, 2, 67, 64
6, 4715, Note_off_c, 2, 65, 64
6, 4725, Note_off_c, 2, 62, 64
6, 4740, Note_on_c, 2, 62, 56
6, 4740, Note_on_c, 2, 65, 52
6, 4765, Note_off_c, 2, 65, 64
6, 4775, Note_off_c, 2, 62, 64
6, 4785, Note_off_c, 2, 69, 64
6, 4800, Note_on_c, 2, 67, 82
6, 4800, Note_on_c, 2, 72, 103
6, 4910, Note_off_c, 2, 67, 64
6, 4920, Note_on_c, 2, 65, 100
6, 4920, Note_on_c, 2, 69, 90
6, 5025, Note_off_c, 2, 65, 64
6, 5030, Note_off_c, 2, 69, 64
6, 5040, Note_on_c, 2, 64, 77
6, 5040, Note_on_c, 2, 67, 72
6, 5140, Note_off_c, 2, 64, 64
6, 5145, Note_off_c, 2, 67, 64
6, 5160, Note_on_c, 2, 62, 87
6, 5160, Note_on_c, 2, 65, 70
6, 5230, Note_off_c, 2, 65, 64
6, 5240, Note_off_c, 2, 62, 64
6, 5250, Note_off_c, 2, 72, 64
6, 5280, Note_on_c, 2, 67, 60
6, 5280, Note_on_c, 2, 72, 67
6, 5280, Note_on_c, 2, 76, 70
6, 5380, Note_off_c, 2, 76, 64
6, 5380, Note_off_c, 2, 67, 64
6, 5385, Note_off_c, 2, 72, 64
6, 5400, Note_on_c, 2, 67, 62
6, 5400, Note_on_c, 2, 71, 87
6, 5400, Note_on_c, 2, 74, 73
6, 5495, Note_off_c, 2, 67, 64
6, 5500, Note_off_c, 2, 74, 64
6, 5500, Note_off_c, 2, 71, 64
6, 5520, Note_on_c, 2, 67, 62
6, 5520, Note_on_c, 2, 71, 78
6, 5520, Note_on_c, 2, 76, 90
6, 5625, Note_off_c, 2, 76, 64
6, 5625, Note_off_c, 2, 67, 64
6, 5630, Note_off_c, 2, 71, 64
6, 5640, Note_on_c, 2, 67, 58
6, 5640, Note_on_c, 2, 71, 70
6, 5640, Note_on_c, 2, 76, 70
6, 5730, Note_off_c, 2, 76, 64
6, 5740, Note_off_c, 2, 71, 64
6, 5745, Note_off_c, 2, 67, 64
6, 5760, Note_on_c, 2, 65, 85
6, 5760, Note_on_c, 2, 69, 94
6, 5760, Note_on_c, 2, 72, 74
6, 5810, Note_off_c, 2, 69, 64
6, 5850, Note_on_c, 2, 69, 12
6, 5870, Note_off_c, 2, 65, 64
6, 5875, Note_off_c, 2, 69, 64
6, 5875, Note_off_c, 2, 72, 64
6, 5880, Note_on_c, 2, 65, 74
6, 5880, Note_on_c, 2, 69, 72
6, 5880, Note_on_c, 2, 72, 57
6, 5940, Note_on_c, 2, 60, 46
6, 5955, Note_off_c, 2, 72, 64
6, 5965, Note_off_c, 2, 69, 64
6, 5970, Note_off_c, 2, 65, 64
6, 5985, Note_off_c, 2, 60, 64
6, 6000, Note_on_c, 2, 62, 77
6, 6000, Note_on_c, 2, 67, 74
6, 6000, Note_on_c, 2, 71, 77
6, 6045, Note_off_c, 2, 62, 64
6, 6060, Note_on_c, 2, 62, 53
6, 6080, Note_off_c, 2, 71, 64
6, 6085, Note_off_c, 2, 67, 64
6, 6120, Note_on_c, 2, 67, 55
6, 6120, Note_on_c, 2, 71, 68
6, 6150, Note_off_c, 2, 62, 64
6, 6180, Note_on_c, 2, 62, 54
6, 6190, Note_off_c, 2, 71, 64
6, 6195, Note_off_c, 2, 67, 64
6, 6210, Note_off_c, 2, 62, 64
6, 6240, Note_on_c, 2, 64, 76
6, 6240, Note_on_c, 2, 67, 69
6, 6240, Note_on_c, 2, 72, 77
6, 6340, Note_off_c, 2, 72, 64
6, 6345, Note_off_c, 2, 67, 64
6, 6345, Note_off_c, 2, 64, 64
6, 6360, Note_on_c, 2, 64, 67
6, 6360, Note_on_c, 2, 67, 82
6, 6360, Note_on_c, 2, 72, 77
6, 6395, Note_off_c, 2, 64, 64
6, 6420, Note_on_c, 2, 64, 42
6, 6465, Note_off_c, 2, 67, 64
6, 6480, Note_on_c, 2, 69, 44
6, 6520, Note_off_c, 2, 64, 64
6, 6540, Note_on_c, 2, 64, 43
6, 6550, Note_off_c, 2, 72, 64
6, 6555, Note_off_c, 2, 69, 64
6, 6580, Note_off_c, 2, 64, 64
6, 6600, Note_on_c, 2, 72, 78
6, 6600, Note_on_c, 2, 64, 68
6, 6600, Note_on_c, 2, 69, 92
6, 6640, Note_off_c, 2, 64, 64
6, 6660, Note_on_c, 2, 64, 51
6, 6670, Note_off_c, 2, 69, 64
6, 6690, Note_off_c, 2, 64, 64
6, 6720, Note_on_c, 2, 62, 60
6, 6720, Note_on_c, 2, 66, 46
6, 6720, Note_on_c, 2, 69, 15
6, 6760, Note_off_c, 2, 62, 64
6, 6770, Note_off_c, 2, 69, 64
6, 6780, Note_on_c, 2, 62, 48
6, 6785, Note_off_c, 2, 66, 64
6, 6820, Note_off_c, 2, 72, 64
6, 6840, Note_on_c, 2, 66, 100
6, 6840, Note_on_c, 2, 69, 80
6, 6840, Note_on_c, 2, 72, 62
6, 6865, Note_off_c, 2, 62, 64
6, 6900, Note_on_c, 2, 62, 54
6, 6910, Note_off_c, 2, 72, 64
6, 6935, Note_off_c, 2, 66, 64
6, 6940, Note_off_c, 2, 69, 64
6, 6960, Note_on_c, 2, 67, 65
6, 6960, Note_on_c, 2, 71, 70
6, 6980, Note_off_c, 2, 62, 64
6, 7020, Note_on_c, 2, 62, 48
6, 7030, Note_off_c, 2, 67, 64
6, 7045, Note_off_c, 2, 71, 64
6, 7080, Note_on_c, 2, 67, 77
6, 7080, Note_on_c, 2, 71, 78
6, 7105, Note_off_c, 2, 62, 64
6, 7140, Note_on_c, 2, 62, 56
6, 7150, Note_off_c, 2, 71, 64
6, 7165, Note_off_c, 2, 62, 64
6, 7165, Note_off_c, 2, 67, 64
6, 7200, Note_on_c, 2, 67, 84
6, 7200, Note_on_c, 2, 72, 97
6, 7255, Note_off_c, 2, 67, 64
6, 7260, Note_on_c, 2, 64, 106
6, 7270, Note_off_c, 2, 72, 64
6, 7320, Note_on_c, 2, 67, 59
6, 7320, Note_on_c, 2, 72, 73
6, 7335, Note_off_c, 2, 72, 64
6, 7360, Note_off_c, 2, 67, 64
6, 7380, Note_on_c, 2, 67, 56
6, 7380, Note_on_c, 2, 68, 76
6, 7380, Note_on_c, 2, 71, 80
6, 7381, Note_off_c, 2, 68, 64
6, 7405, Note_off_c, 2, 67, 64
6, 7415, Note_off_c, 2, 71, 64
6, 7440, Note_on_c, 2, 69, 68
6, 7440, Note_on_c, 2, 72, 85
6, 7465, Note_off_c, 2, 64, 64
6, 7500, Note_on_c, 2, 64, 90
6, 7505, Note_off_c, 2, 72, 64
6, 7505, Note_off_c, 2, 69, 64
6, 7560, Note_on_c, 2, 67, 82
6, 7560, Note_on_c, 2, 72, 74
6, 7590, Note_off_c, 2, 64, 64
6, 7620, Note_on_c, 2, 64, 92
6, 7660, Note_off_c, 2, 72, 64
6, 7665, Note_off_c, 2, 67, 64
6, 7670, Note_off_c, 2, 64, 64
6, 7680, Note_on_c, 2, 69, 66
6, 7680, Note_on_c, 2, 72, 82
6, 7740, Note_on_c, 2, 65, 94
6, 7745, Note_off_c, 2, 69, 64
6, 7760, Note_off_c, 2, 72, 64
6, 7785, Note_off_c, 2, 65, 64
6, 7800, Note_on_c, 2, 62, 57
6, 7800, Note_on_c, 2, 64, 50
6, 7800, Note_on_c, 2, 67, 78
6, 7800, Note_on_c, 2, 71, 59
6, 7805, Note_off_c, 2, 64, 64
6, 7815, Note_off_c, 2, 62, 64
6, 7860, Note_on_c, 2, 62, 78
6, 7895, Note_off_c, 2, 71, 64
6, 7900, Note_off_c, 2, 62, 64
6, 7915, Note_off_c, 2, 67, 64
6, 7920, Note_on_c, 2, 72, 94
6, 7950, Note_on_c, 2, 64, 85
6, 7955, Note_off_c, 2, 72, 64
6, 7980, Note_on_c, 2, 67, 56
6, 7995, Note_off_c, 2, 64, 64
6, 8010, Note_on_c, 2, 72, 74
6, 8065, Note_off_c, 2, 67, 64
6, 8070, Note_on_c, 2, 64, 87
6, 8095, Note_off_c, 2, 72, 64
6, 8100, Note_on_c, 2, 67, 59
6, 8130, Note_off_c, 2, 64, 64
6, 8130, Note_on_c, 2, 72, 65
6, 8140, Note_off_c, 2, 67, 64
6, 8160, Note_on_c, 2, 69, 85
6, 8220, Note_on_c, 2, 64, 84
6, 8250, Note_off_c, 2, 72, 64
6, 8255, Note_off_c, 2, 69, 64
6, 8280, Note_on_c, 2, 69, 78
6, 8280, Note_on_c, 2, 72, 85
6, 8305, Note_off_c, 2, 64, 64
6, 8340, Note_on_c, 2, 64, 54
6, 8360, Note_off_c, 2, 69, 64
6, 8375, Note_off_c, 2, 72, 64
6, 8400, Note_on_c, 2, 67, 68
6, 8400, Note_on_c, 2, 71, 68
6, 8430, Note_off_c, 2, 64, 64
6, 8460, Note_on_c, 2, 64, 56
6, 8475, Note_off_c, 2, 71, 64
6, 8475, Note_off_c, 2, 67, 64
6, 8505, Note_off_c, 2, 64, 64
6, 8520, Note_on_c, 2, 62, 67
6, 8520, Note_on_c, 2, 65, 66
6, 8520, Note_on_c, 2, 67, 67
6, 8520, Note_on_c, 2, 69, 44
6, 8555, Note_off_c, 2, 67, 64
6, 8555, Note_off_c, 2, 65, 64
6, 8565, Note_off_c, 2, 62, 64
6, 8580, Note_on_c, 2, 62, 56
6, 8580, Note_on_c, 2, 65, 52
6, 8605, Note_off_c, 2, 65, 64
6, 8615, Note_off_c, 2, 62, 64
6, 8625, Note_off_c, 2, 69, 64
6, 8640, Note_on_c, 2, 67, 82
6, 8640, Note_on_c, 2, 72, 103
6, 8750, Note_off_c, 2, 67, 64
6, 8760, Note_on_c, 2, 65, 100
6, 8760, Note_on_c, 2, 69, 90
6, 8865, Note_off_c, 2, 65, 64
6, 8870, Note_off_c, 2, 69, 64
6, 8880, Note_on_c, 2, 64, 77
6, 8880, Note_on_c, 2, 67, 72
6, 8980, Note_off_c, 2, 64, 64
6, 8985, Note_off_c, 2, 67, 64
6, 9000, Note_on_c, 2, 62, 87
6, 9000, Note_on_c, 2, 65, 70
6, 9070, Note_off_c, 2, 65, 64
6, 9080, Note_off_c, 2, 62, 64
6, 9090, Note_off_c, 2, 72, 64
6, 9120, Note_on_c, 2, 67, 60
6, 9120, Note_on_c, 2, 72, 67
6, 9120, Note_on_c, 2, 76, 70
6, 9220, Note_off_c, 2, 76, 64
6, 9220, Note_off_c, 2, 67, 64
6, 9225, Note_off_c, 2, 72, 64
6, 9240, Note_on_c, 2, 67, 62
6, 9240, Note_on_c, 2, 71, 87
6, 9240, Note_on_c, 2, 74, 73
6, 9335, Note_off_c, 2, 67, 64
6, 9340, Note_off_c, 2, 74, 64
6, 9340, Note_off_c, 2, 71, 64
6, 9360, Note_on_c, 2, 67, 62
6, 9360, Note_on_c, 2, 71, 78
6, 9360, Note_on_c, 2, 76, 90
6, 9465, Note_off_c, 2, 76, 64
6, 9465, Note_off_c, 2, 67, 64
6, 9470, Note_off_c, 2, 71, 64
6, 9480, Note_on_c, 2, 67, 58
6, 9480, Note_on_c, 2, 71, 70
6, 9480, Note_on_c, 2, 76, 70
6, 9570, Note_off_c, 2, 76, 64
6, 9580, Note_off_c, 2, 71, 64
6, 9585, Note_off_c, 2, 67, 64
6, 9600, Note_on_c, 2, 65, 85
6, 9600, Note_on_c, 2, 69, 94
6, 9600, Note_on_c, 2, 72, 74
6, 9650, Note_off_c, 2, 69, 64
6, 9690, Note_on_c, 2, 69, 12
6, 9710, Note_off_c, 2, 65, 64
6, 9715, Note_off_c, 2, 69, 64
6, 9715, Note_off_c, 2, 72, 64
6, 9720, Note_on_c, 2, 65, 74
6, 9720, Note_on_c, 2, 69, 72
6, 9720, Note_on_c, 2, 72, 57
6, 9780, Note_on_c, 2, 60, 46
6, 9795, Note_off_c, 2, 72, 64
6, 9805, Note_off_c, 2, 69, 64
6, 9810, Note_off_c, 2, 65, 64
6, 9825, Note_off_c, 2, 60, 64
6, 9840, Note_on_c, 2, 62, 77
6, 9840, Note_on_c, 2, 67, 74
6, 9840, Note_on_c, 2, 71, 77
6, 9885, Note_off_c, 2, 62, 64
6, 9900, Note_on_c, 2, 62, 53
6, 9920, Note_off_c, 2, 71, 64
6, 9925, Note_off_c, 2, 67, 64
6, 9960, Note_on_c, 2, 67, 55
6, 9960, Note_on_c, 2, 71, 68
6, 9990, Note_off_c, 2, 62, 64
6, 10020, Note_on_c, 2, 62, 54
6, 10030, Note_off_c, 2, 71, 64
6, 10035, Note_off_c, 2, 67, 64
6, 10050, Note_off_c, 2, 62, 64
6, 10080, Note_on_c, 2, 64, 76
6, 10080, Note_on_c, 2, 67, 69
6, 10080, Note_on_c, 2, 72, 77
6, 10180, Note_off_c, 2, 72, 64
6, 10185, Note_off_c, 2, 67, 64
6, 10185, Note_off_c, 2, 64, 64
6, 10200, Note_on_c, 2, 64, 67
6, 10200, Note_on_c, 2, 67, 82
6, 10200, Note_on_c, 2, 72, 77
6, 10235, Note_off_c, 2, 64, 64
6, 10260, Note_on_c, 2, 64, 42
6, 10305, Note_off_c, 2, 67, 64
6, 10320, Note_on_c, 2, 69, 44
6, 10360, Note_off_c, 2, 64, 64
6, 10380, Note_on_c, 2, 64, 43
6, 10390, Note_off_c, 2, 72, 64
6, 10395, Note_off_c, 2, 69, 64
6, 10420, Note_off_c, 2, 64, 64
6, 10440, Note_on_c, 2, 72, 78
6, 10440, Note_on_c, 2, 64, 68
6, 10440, Note_on_c, 2, 69, 92
6, 10480, Note_off_c, 2, 64, 64
6, 10500, Note_on_c, 2, 64, 51
6, 10510, Note_off_c, 2, 69, 64
6, 10530, Note_off_c, 2, 64, 64
6, 10560, Note_on_c, 2, 62, 60
6, 10560, Note_on_c, 2, 66, 46
6, 10560, Note_on_c, 2, 69, 15
6, 10600, Note_off_c, 2, 62, 64
6, 10610, Note_off_c, 2, 69, 64
6, 10620, Note_on_c, 2, 62, 48
6, 10625, Note_off_c, 2, 66, 64
6, 10660, Note_off_c, 2, 72, 64
6, 10680, Note_on_c, 2, 66, 100
6, 10680, Note_on_c, 2, 69, 80
6, 10680, Note_on_c, 2, 72, 62
6, 10705, Note_off_c, 2, 62, 64
6, 10740, Note_on_c, 2, 62, 54
6, 10750, Note_off_c, 2, 72, 64
6, 10775, Note_off_c, 2, 66, 64
6, 10780, Note_off_c, 2, 69, 64
6, 10800, Note_on_c, 2, 67, 65
6, 10800, Note_on_c, 2, 71, 70
6, 10820, Note_off_c, 2, 62, 64
6, 10860, Note_on_c, 2, 62, 48
6, 10870, Note_off_c, 2, 67, 64
6, 10885, Note_off_c, 2, 71, 64
6, 10920, Note_on_c, 2, 67, 77
6, 10920, Note_on_c, 2, 71, 78
6, 10945, Note_off_c, 2, 62, 64
6, 10980, Note_on_c, 2, 62, 56
6, 10990, Note_off_c, 2, 71, 64
6, 11005, Note_off_c, 2, 62, 64
6, 11005, Note_off_c, 2, 67, 64
6, 11040, Note_on_c, 2, 67, 84
6, 11040, Note_on_c, 2, 72, 97
6, 11095, Note_off_c, 2, 67, 64
6, 11100, Note_on_c, 2, 64, 106
6, 11110, Note_off_c, 2, 72, 64
6, 11160, Note_on_c, 2, 67, 59
6, 11160, Note_on_c, 2, 72, 73
6, 11175, Note_off_c, 2, 72, 64
6, 11200, Note_off_c, 2, 67, 64
6, 11220, Note_on_c, 2, 67, 56
6, 11220, Note_on_c, 2, 68, 76
6, 11220, Note_on_c, 2, 71, 80
6, 11221, Note_off_c, 2, 68, 64
6, 11245, Note_off_c, 2, 67, 64
6, 11255, Note_off_c, 2, 71, 64
6, 11280, Note_on_c, 2, 69, 68
6, 11280, Note_on_c, 2, 72, 85
6, 11305, Note_off_c, 2, 64, 64
6, 11340, Note_on_c, 2, 64, 90
6, 11345, Note_off_c, 2, 72, 64
6, 11345, Note_off_c, 2, 69, 64
6, 11400, Note_on_c, 2, 67, 82
6, 11400, Note_on_c, 2, 72, 74
6, 11430, Note_off_c, 2, 64, 64
6, 11460, Note_on_c, 2, 64, 92
6, 11500, Note_off_c, 2, 72, 64
6, 11505, Note_off_c, 2, 67, 64
6, 11510, Note_off_c, 2, 64, 64
6, 11520, Note_on_c, 2, 69, 66
6, 11520, Note_on_c, 2, 72, 82
6, 11580, Note_on_c, 2, 65, 94
6, 11585, Note_off_c, 2, 69, 64
6, 11600, Note_off_c, 2, 72, 64
6, 11625, Note_off_c, 2, 65, 64
6, 11640, Note_on_c, 2, 62, 57
6, 11640, Note_on_c, 2, 64, 50
6, 11640, Note_on_c, 2, 67, 78
6, 11640, Note_on_c, 2, 71, 59
6, 11645, Note_off_c, 2, 64, 64
6, 11655, Note_off_c, 2, 62, 64
6, 11700, Note_on_c, 2, 62, 78
6, 11735, Note_off_c, 2, 71, 64
6, 11740, Note_off_c, 2, 62, 64
6, 11755, Note_off_c, 2, 67, 64
6, 11760, Note_on_c, 2, 72, 94
6, 11790, Note_on_c, 2, 64, 85
6, 11795, Note_off_c, 2, 72, 64
6, 11820, Note_on_c, 2, 67, 56
6, 11835, Note_off_c, 2, 64, 64
6, 11850, Note_on_c, 2, 72, 74
6, 11905, Note_off_c, 2, 67, 64
6, 11910, Note_on_c, 2, 64, 87
6, 11935, Note_off_c, 2, 72, 64
6, 11940, Note_on_c, 2, 67, 59
6, 11970, Note_off_c, 2, 64, 64
6, 11970, Note_on_c, 2, 72, 65
6, 11980, Note_off_c, 2, 67, 64
6, 12000, Note_on_c, 2, 69, 85
6, 12060, Note_on_c, 2, 64, 84
6, 12090, Note_off_c, 2, 72, 64
6, 12095, Note_off_c, 2, 69, 64
6, 12120, Note_on_c, 2, 69, 78
6, 12120, Note_on_c, 2, 72, 85
6, 12145, Note_off_c, 2, 64, 64
6, 12180, Note_on_c, 2, 64, 54
6, 12200, Note_off_c, 2, 69, 64
6, 12215, Note_off_c, 2, 72, 64
6, 12240, Note_on_c, 2, 67, 68
6, 12240, Note_on_c, 2, 71, 68
6, 12270, Note_off_c, 2, 64, 64
6, 12300, Note_on_c, 2, 64, 56
6, 12315, Note_off_c, 2, 71, 64
6, 12315, Note_off_c, 2, 67, 64
6, 12345, Note_off_c, 2, 64, 64
6, 12360, Note_on_c, 2, 62, 67
6, 12360, Note_on_c, 2, 65, 66
6, 12360, Note_on_c, 2, 67, 67
6, 12360, Note_on_c, 2, 69, 44
6, 12395, Note_off_c, 2, 67, 64
6, 12395, Note_off_c, 2, 65, 64
6, 12405, Note_off_c, 2, 62, 64
6, 12420, Note_on_c, 2, 62, 56
6, 12420, Note_on_c, 2, 65, 52
6, 12445, Note_off_c, 2, 65, 64
6, 12455, Note_off_c, 2, 62, 64
6, 12465, Note_off_c, 2, 69, 64
6, 12480, Note_on_c, 2, 67, 82
6, 12480, Note_on_c, 2, 72, 103
6, 12590, Note_off_c, 2, 67, 64
6, 12600, Note_on_c, 2, 65, 100
6, 12600, Note_on_c, 2, 69, 90
6, 12705, Note_off_c, 2, 65, 64
6, 12710, Note_off_c, 2, 69, 64
6, 12720, Note_on_c, 2, 64, 77
6, 12720, Note_on_c, 2, 67, 72
6, 12820, Note_off_c, 2, 64, 64
6, 12825, Note_off_c, 2, 67, 64
6, 12840, Note_on_c, 2, 62, 87
6, 12840, Note_on_c, 2, 65, 70
6, 12910, Note_off_c, 2, 65, 64
6, 12920, Note_off_c, 2, 62, 64
6, 12930, Note_off_c, 2, 72, 64
6, 12960, Note_on_c, 2, 67, 60
6, 12960, Note_on_c, 2, 72, 67
6, 12960, Note_on_c, 2, 76, 70
6, 13060, Note_off_c, 2, 76, 64
6, 13060, Note_off_c, 2, 67, 64
6, 13065, Note_off_c, 2, 72, 64
6, 13080, Note_on_c, 2, 67, 62
6, 13080, Note_on_c, 2, 71, 87
6, 13080, Note_on_c, 2, 74, 73
6, 13175, Note_off_c, 2, 67, 64
6, 13180, Note_off_c, 2, 74, 64
6, 13180, Note_off_c, 2, 71, 64
6, 13200, Note_on_c, 2, 67, 62
6, 13200, Note_on_c, 2, 71, 78
6, 13200, Note_on_c, 2, 76, 90
6, 13305, Note_off_c, 2, 76, 64
6, 13305, Note_off_c, 2, 67, 64
6, 13310, Note_off_c, 2, 71, 64
6, 13320, Note_on_c, 2, 67, 58
6, 13320, Note_on_c, 2, 71, 70
6, 13320, Note_on_c, 2, 76, 70
6, 13410, Note_off_c, 2, 76, 64
6, 13420, Note_off_c, 2, 71, 64
6, 13425, Note_off_c, 2, 67, 64
6, 13440, Note_on_c, 2, 65, 85
6, 13440, Note_on_c, 2, 69, 94
6, 13440, Note_on_c, 2, 72, 74
6, 13490, Note_off_c, 2, 69, 64
6, 13530, Note_on_c, 2, 69, 12
6, 13550, Note_off_c, 2, 65, 64
6, 13555, Note_off_c, 2, 69, 64
6, 13555, Note_off_c, 2, 72, 64
6, 13560, Note_on_c, 2, 65, 74
6, 13560, Note_on_c, 2, 69, 72
6, 13560, Note_on_c, 2, 72, 57
6, 13620, Note_on_c, 2, 60, 46
6, 13635, Note_off_c, 2, 72, 64
6, 13645, Note_off_c, 2, 69, 64
6, 13650, Note_off_c, 2, 65, 64
6, 13665, Note_off_c, 2, 60, 64
6, 13680, Note_on_c, 2, 62, 77
6, 13680, Note_on_c, 2, 67, 74
6, 13680, Note_on_c, 2, 71, 77
6, 13725, Note_off_c, 2, 62, 64
6, 13740, Note_on_c, 2, 62, 53
6, 13760, Note_off_c, 2, 71, 64
6, 13765, Note_off_c, 2, 67, 64
6, 13800, Note_on_c, 2, 67, 55
6, 13800, Note_on_c, 2, 71, 68
6, 13830, Note_off_c, 2, 62, 64
6, 13860, Note_on_c, 2, 62, 54
6, 13870, Note_off_c, 2, 71, 64
6, 13875, Note_off_c, 2, 67, 64
6, 13890, Note_off_c, 2, 62, 64
6, 13920, Note_on_c, 2, 64, 76
6, 13920, Note_on_c, 2, 67, 69
6, 13920, Note_on_c, 2, 72, 77
6, 14020, Note_off_c, 2, 72, 64
6, 14025, Note_off_c, 2, 67, 64
6, 14025, Note_off_c, 2, 64, 64
6, 14040, Note_on_c, 2, 64, 67
6, 14040, Note_on_c, 2, 67, 82
6, 14040, Note_on_c, 2, 72, 77
6, 14075, Note_off_c, 2, 64, 64
6, 14100, Note_on_c, 2, 64, 42
6, 14145, Note_off_c, 2, 67, 64
6, 14160, Note_on_c, 2, 69, 44
6, 14200, Note_off_c, 2, 64, 64
6, 14220, Note_on_c, 2, 64, 43
6, 14230, Note_off_c, 2, 72, 64
6, 14235, Note_off_c, 2, 69, 64
6, 14260, Note_off_c, 2, 64, 64
6, 14280, Note_on_c, 2, 72, 78
6, 14280, Note_on_c, 2, 64, 68
6, 14280, Note_on_c, 2, 69, 92
6, 14320, Note_off_c, 2, 64, 64
6, 14340, Note_on_c, 2, 64, 51
6, 14350, Note_off_c, 2, 69, 64
6, 14370, Note_off_c, 2, 64, 64
6, 14400, Note_on_c, 2, 62, 60
6, 14400, Note_on_c, 2, 66, 46
6, 14400, Note_on_c, 2, 69, 15
6, 14440, Note_off_c, 2, 62, 64
6, 14450, Note_off_c, 2, 69, 64
6, 14460, Note_on_c, 2, 62, 48
6, 14465, Note_off_c, 2, 66, 64
6, 14500, Note_off_c, 2, 72, 64
6, 14520, Note_on_c, 2, 66, 100
6, 14520, Note_on_c, 2, 69, 80
6, 14520, Note_on_c, 2, 72, 62
6, 14545, Note_off_c, 2, 62, 64
6, 14580, Note_on_c, 2, 62, 54
6, 14590, Note_off_c, 2, 72, 64
6, 14615, Note_off_c, 2, 66, 64
6, 14620, Note_off_c, 2, 69, 64
6, 14640, Note_on_c, 2, 67, 65
6, 14640, Note_on_c, 2, 71, 70
6, 14660, Note_off_c, 2, 62, 64
6, 14700, Note_on_c, 2, 62, 48
6, 14710, Note_off_c, 2, 67, 64
6, 14725, Note_off_c, 2, 71, 64
6, 14760, Note_on_c, 2, 67, 77
6, 14760, Note_on_c, 2, 71, 78
6, 14785, Note_off_c, 2, 62, 64
6, 14820, Note_on_c, 2, 62, 56
6, 14830, Note_off_c, 2, 71, 64
6, 14845, Note_off_c, 2, 62, 64
6, 14845, Note_off_c, 2, 67, 64
6, 14880, Note_on_c, 2, 67, 84
6, 14880, Note_on_c, 2, 72, 97
6, 14935, Note_off_c, 2, 67, 64
6, 14940, Note_on_c, 2, 64, 106
6, 14950, Note_off_c, 2, 72, 64
6, 15000, Note_on_c, 2, 67, 59
6, 15000, Note_on_c, 2, 72, 73
6, 15015, Note_off_c, 2, 72, 64
6, 15040, Note_off_c, 2, 67, 64
6, 15060, Note_on_c, 2, 67, 56
6, 15060, Note_on_c, 2, 68, 76
6, 15060, Note_on_c, 2, 71, 80
6, 15061, Note_off_c, 2, 68, 64
6, 15085, Note_off_c, 2, 67, 64
6, 15095, Note_off_c, 2, 71, 64
6, 15120, Note_on_c, 2, 69, 68
6, 15120, Note_on_c, 2, 72, 85
6, 15145, Note_off_c, 2, 64, 64
6, 15180, Note_on_c, 2, 64, 90
6, 15185, Note_off_c, 2, 72, 64
6, 15185, Note_off_c, 2, 69, 64
6, 15240, Note_on_c, 2, 67, 82
6, 15240, Note_on_c, 2, 72, 74
6, 15270, Note_off_c, 2, 64, 64
6, 15300, Note_on_c, 2, 64, 92
6, 15340, Note_off_c, 2, 72, 64
6, 15345, Note_off_c, 2, 67, 64
6, 15350, Note_off_c, 2, 64, 64
6, 15360, Note_on_c, 2, 69, 66
6, 15360, Note_on_c, 2, 72, 82
6, 15420, Note_on_c, 2, 65, 94
6, 15425, Note_off_c, 2, 69, 64
6, 15440, Note_off_c, 2, 72, 64
6, 15465, Note_off_c, 2, 65, 64
6, 15480, Note_on_c, 2, 62, 57
6, 15480, Note_on_c, 2, 64, 50
6, 15480, Note_on_c, 2, 67, 78
6, 15480, Note_on_c, 2, 71, 59
6, 15485, Note_off_c, 2, 64, 64
6, 15495, Note_off_c, 2, 62, 64
6, 15540, Note_on_c, 2, 62, 78
6, 15575, Note_off_c, 2, 71, 64
6, 15580, Note_off_c, 2, 62, 64
6, 15595, Note_off_c, 2, 67, 64
6, 15600, Note_on_c, 2, 72, 94
6, 15630, Note_on_c, 2, 64, 85
6, 15635, Note_off_c, 2, 72, 64
6, 15660, Note_on_c, 2, 67, 56
6, 15675, Note_off_c, 2, 64, 64
6, 15690, Note_on_c, 2, 72, 74
6, 15745, Note_off_c, 2, 67, 64
6, 15750, Note_on_c, 2, 64, 87
6, 15775, Note_off_c, 2, 72, 64
6, 15780, Note_on_c, 2, 67, 59
6, 15810, Note_off_c, 2, 64, 64
6, 15810, Note_on_c, 2, 72, 65
6, 15820, Note_off_c, 2, 67, 64
6, 15840, Note_on_c, 2, 69, 85
6, 15900, Note_on_c, 2, 64, 84
6, 15930, Note_off_c, 2, 72, 64
6, 15935, Note_off_c, 2, 69, 64
6, 15960, Note_on_c, 2, 69, 78
6, 15960, Note_on_c, 2, 72, 85
6, 15985, Note_off_c, 2, 64, 64
6, 16020, Note_on_c, 2, 64, 54
6, 16040, Note_off_c, 2, 69, 64
6, 16055, Note_off_c, 2, 72, 64
6, 16080, Note_on_c, 2, 67, 68
6, 16080, Note_on_c, 2, 71, 68
6, 16110, Note_off_c, 2, 64, 64
6, 16140, Note_on_c, 2, 64, 56
6, 16155, Note_off_c, 2, 71, 64
6, 16155, Note_off_c, 2, 67, 64
6, 16185, Note_off_c, 2, 64, 64
6, 16200, Note_on_c, 2, 62, 67
6, 16200, Note_on_c, 2, 65, 66
6, 16200, Note_on_c, 2, 67, 67
6, 16200, Note_on_c, 2, 69, 44
6, 16235, Note_off_c, 2, 67, 64
6, 16235, Note_off_c, 2, 65, 64
6, 16245, Note_off_c, 2, 62, 64
6, 16260, Note_on_c, 2, 62, 56
6, 16260, Note_on_c, 2, 65, 52
6, 16285, Note_off_c, 2, 65, 64
6, 16295, Note_off_c, 2, 62, 64
6, 16305, Note_off_c, 2, 69, 64
6, 16320, Note_on_c, 2, 67, 82
6, 16320, Note_on_c, 2, 72, 103
6, 16430, Note_off_c, 2, 67, 64
6, 16440, Note_on_c, 2, 65, 100
6, 16440, Note_on_c, 2, 69, 90
6, 16545, Note_off_c, 2, 65, 64
6, 16550, Note_off_c, 2, 69, 64
6, 16560, Note_on_c, 2, 64, 77
6, 16560, Note_on_c, 2, 67, 72
6, 16660, Note_off_c, 2, 64, 64
6, 16665, Note_off_c, 2, 67, 64
6, 16680, Note_on_c, 2, 62, 87
6, 16680, Note_on_c, 2, 65, 70
6, 16750, Note_off_c, 2, 65, 64
6, 16760, Note_off_c, 2, 62, 64
6, 16770, Note_off_c, 2, 72, 64
6, 16800, Note_on_c, 2, 67, 60
6, 16800, Note_on_c, 2, 72, 67
6, 16800, Note_on_c, 2, 76, 70
6, 16900, Note_off_c, 2, 76, 64
6, 16900, Note_off_c, 2, 67, 64
6, 16905, Note_off_c, 2, 72, 64
6, 16920, Note_on_c, 2, 67, 62
6, 16920, Note_on_c, 2, 71, 87
6, 16920, Note_on_c, 2, 74, 73
6, 17015, Note_off_c, 2, 67, 64
6, 17020, Note_off_c, 2, 74, 64
6, 17020, Note_off_c, 2, 71, 64
6, 17040, Note_on_c, 2, 67, 62
6, 17040, Note_on_c, 2, 71, 78
6, 17040, Note_on_c, 2, 76, 90
6, 17145, Note_off_c, 2, 76, 64
6, 17145, Note_off_c, 2, 67, 64
6, 17150, Note_off_c, 2, 71, 64
6, 17160, Note_on_c, 2, 67, 58
6, 17160, Note_on_c, 2, 71, 70
6, 17160, Note_on_c, 2, 76, 70
6, 17250, Note_off_c, 2, 76, 64
6, 17260, Note_off_c, 2, 71, 64
6, 17265, Note_off_c, 2, 67, 64
6, 17280, Note_on_c, 2, 65, 85
6, 17280, Note_on_c, 2, 69, 94
6, 17280, Note_on_c, 2, 72, 74
6, 17330, Note_off_c, 2, 69, 64
6, 17370, Note_on_c, 2, 69, 12
6, 17390, Note_off_c, 2, 65, 64
6, 17395, Note_off_c, 2, 69, 64
6, 17395, Note_off_c, 2, 72, 64
6, 17400, Note_on_c, 2, 65, 74
6, 17400, Note_on_c, 2, 69, 72
6, 17400, Note_on_c, 2, 72, 57
6, 17460, Note_on_c, 2, 60, 46
6, 17475, Note_off_c, 2, 72, 64
6, 17485, Note_off_c, 2, 69, 64
6, 17490, Note_off_c, 2, 65, 64
6, 17505, Note_off_c, 2, 60, 64
6, 17520, Note_on_c, 2, 62, 77
6, 17520, Note_on_c, 2, 67, 74
6, 17520, Note_on_c, 2, 71, 77
6, 17565, Note_off_c, 2, 62, 64
6, 17580, Note_on_c, 2, 62, 53
6, 17600, Note_off_c, 2, 71, 64
6, 17605, Note_off_c, 2, 67, 64
6, 17640, Note_on_c, 2, 67, 55
6, 17640, Note_on_c, 2, 71, 68
6, 17670, Note_off_c, 2, 62, 64
6, 17700, Note_on_c, 2, 62, 54
6, 17710, Note_off_c, 2, 71, 64
6, 17715, Note_off_c, 2, 67, 64
6, 17730, Note_off_c, 2, 62, 64
6, 17760, Note_on_c, 2, 64, 76
6, 17760, Note_on_c, 2, 67, 69
6, 17760, Note_on_c, 2, 72, 77
6, 17860, Note_off_c, 2, 72, 64
6, 17865, Note_off_c, 2, 67, 64
6, 17865, Note_off_c, 2, 64, 64
6, 17880, Note_on_c, 2, 64, 67
6, 17880, Note_on_c, 2, 67, 82
6, 17880, Note_on_c, 2, 72, 77
6, 17915, Note_off_c, 2, 64, 64
6, 17940, Note_on_c, 2, 64, 42
6, 17985, Note_off_c, 2, 67, 64
6, 18000, Note_on_c, 2, 69, 44
6, 18040, Note_off_c, 2, 64, 64
6, 18060, Note_on_c, 2, 64, 43
6, 18070, Note_off_c, 2, 72, 64
6, 18075, Note_off_c, 2, 69, 64
6, 18100, Note_off_c, 2, 64, 64
6, 18120, Note_on_c, 2, 72, 78
6, 18120, Note_on_c, 2, 64, 68
6, 18120, Note_on_c, 2, 69, 92
6, 18160, Note_off_c, 2, 64, 64
6, 18180, Note_on_c, 2, 64, 51
6, 18190, Note_off_c, 2, 69, 64
6, 18210, Note_off_c, 2, 64, 64
6, 18240, Note_on_c, 2, 62, 60
6, 18240, Note_on_c, 2, 66, 46
6, 18240, Note_on_c, 2, 69, 15
6, 18280, Note_off_c, 2, 62, 64
6, 18290, Note_off_c, 2, 69, 64
6, 18300, Note_on_c, 2, 62, 48
6, 18305, Note_off_c, 2, 66, 64
6, 18340, Note_off_c, 2, 72, 64
6, 18360, Note_on_c, 2, 66, 100
6, 18360, Note_on_c, 2, 69, 80
6, 18360, Note_on_c, 2, 72, 62
6, 18385, Note_off_c, 2, 62, 64
6, 18420, Note_on_c, 2, 62, 54
6, 18430, Note_off_c, 2, 72, 64
6, 18455, Note_off_c, 2, 66, 64
6, 18460, Note_off_c, 2, 69, 64
6, 18480, Note_on_c, 2, 67, 65
6, 18480, Note_on_c, 2, 71, 70
6, 18500, Note_off_c, 2, 62, 64
6, 18540, Note_on_c, 2, 62, 48
6, 18550, Note_off_c, 2, 67, 64
6, 18565, Note_off_c, 2, 71, 64
6, 18600, Note_on_c, 2, 67, 77
6, 18600, Note_on_c, 2, 71, 78
6, 18625, Note_off_c, 2, 62, 64
6, 18660, Note_on_c, 2, 62, 56
6, 18670, Note_off_c, 2, 71, 64
6, 18685, Note_off_c, 2, 62, 64
6, 18685, Note_off_c, 2, 67, 64
6, 18720, Note_on_c, 2, 67, 84
6, 18720, Note_on_c, 2, 72, 97
6, 18775, Note_off_c, 2, 67, 64
6, 18780, Note_on_c, 2, 64, 106
6, 18790, Note_off_c, 2, 72, 64
6, 18840, Note_on_c, 2, 67, 59
6, 18840, Note_on_c, 2, 72, 73
6, 18855, Note_off_c, 2, 72, 64
6, 18880, Note_off_c, 2, 67, 64
6, 18900, Note_on_c, 2, 67, 56
6, 18900, Note_on_c, 2, 68, 76
6, 18900, Note_on_c, 2, 71, 80
6, 18901, Note_off_c, 2, 68, 64
6, 18925, Note_off_c, 2, 67, 64
6, 18935, Note_off_c, 2, 71, 64
6, 18960, Note_on_c, 2, 69, 68
6, 18960, Note_on_c, 2, 72, 85
6, 18985, Note_off_c, 2, 64, 64
6, 19020, Note_on_c, 2, 64, 90
6, 19025, Note_off_c, 2, 72, 64
6, 19025, Note_off_c, 2, 69, 64
6, 19080, Note_on_c, 2, 67, 82
6, 19080, Note_on_c, 2, 72, 74
6, 19110, Note_off_c, 2, 64, 64
6, 19140, Note_on_c, 2, 64, 92
6, 19180, Note_off_c, 2, 72, 64
6, 19185, Note_off_c, 2, 67, 64
6, 19190, Note_off_c, 2, 64, 64
6, 19200, Note_on_c, 2, 69, 66
6, 19200, Note_on_c, 2, 72, 82
6, 19260, Note_on_c, 2, 65, 94
6, 19265, Note_off_c, 2, 69, 64
6, 19280, Note_off_c, 2, 72, 64
6, 19305, Note_off_c, 2, 65, 64
6, 19320, Note_on_c, 2, 62, 57
6, 19320, Note_on_c, 2, 64, 50
6, 19320, Note_on_c, 2, 67, 78
6, 19320, Note_on_c, 2, 71, 59
6, 19325, Note_off_c, 2, 64, 64
6, 19335, Note_off_c, 2, 62, 64
6, 19380, Note_on_c, 2, 62, 78
6, 19415, Note_off_c, 2, 71, 64
6, 19420, Note_off_c, 2, 62, 64
6, 19435, Note_off_c, 2, 67, 64
6, 19440, Note_on_c, 2, 72, 94
6, 19470, Note_on_c, 2, 64, 85
6, 19475, Note_off_c, 2, 72, 64
6, 19500, Note_on_c, 2, 67, 56
6, 19515, Note_off_c, 2, 64, 64
6, 19530, Note_on_c, 2, 72, 74
6, 19585, Note_off_c, 2, 67, 64
6, 19590, Note_on_c, 2, 64, 87
6, 19615, Note_off_c, 2, 72, 64
6, 19620, Note_on_c, 2, 67, 59
6, 19650, Note_off_c, 2, 64, 64
6, 19650, Note_on_c, 2, 72, 65
6, 19660, Note_off_c, 2, 67, 64
6, 19680, Note_on_c, 2, 69, 85
6, 19740, Note_on_c, 2, 64, 84
6, 19770, Note_off_c, 2, 72, 64
6, 19775, Note_off_c, 2, 69, 64
6, 19800, Note_on_c, 2, 69, 78
6, 19800, Note_on_c, 2, 72, 85
6, 19825, Note_off_c, 2, 64, 64
6, 19860, Note_on_c, 2, 64, 54
6, 19880, Note_off_c, 2, 69, 64
6, 19895, Note_off_c, 2, 72, 64
6, 19920, Note_on_c, 2, 67, 68
6, 19920, Note_on_c, 2, 71, 68
6, 19950, Note_off_c, 2, 64, 64
6, 19980, Note_on_c, 2, 64, 56
6, 19995, Note_off_c, 2, 71, 64
6, 19995, Note_off_c, 2, 67, 64
6, 20025, Note_off_c, 2, 64, 64
6, 20040, Note_on_c, 2, 62, 67
6, 20040, Note_on_c, 2, 65, 66
6, 20040, Note_on_c, 2, 67, 67
6, 20040, Note_on_c, 2, 69, 44
6, 20075, Note_off_c, 2, 67, 64
6, 20075, Note_off_c, 2, 65, 64
6, 20085, Note_off_c, 2, 62, 64
6, 20100, Note_on_c, 2, 62, 56
6, 20100, Note_on_c, 2, 65, 52
6, 20125, Note_off_c, 2, 65, 64
6, 20135, Note_off_c, 2, 62, 64
6, 20145, Note_off_c, 2, 69, 64
6, 20160, Note_on_c, 2, 67, 82
6, 20160, Note_on_c, 2, 72, 103
6, 20270, Note_off_c, 2, 67, 64
6, 20280, Note_on_c, 2, 65, 100
6, 20280, Note_on_c, 2, 69, 90
6, 20385, Note_off_c, 2, 65, 64
6, 20390, Note_off_c, 2, 69, 64
6, 20400, Note_on_c, 2, 64, 77
6, 20400, Note_on_c, 2, 67, 72
6, 20500, Note_off_c, 2, 64, 64
6, 20505, Note_off_c, 2, 67, 64
6, 20520, Note_on_c, 2, 62, 87
6, 20520, Note_on_c, 2, 65, 70
6, 20590, Note_off_c, 2, 65, 64
6, 20600, Note_off_c, 2, 62, 64
6, 20610, Note_off_c, 2, 72, 64
6, 20640, Note_on_c, 2, 64, 67
6, 20640, Note_on_c, 2, 67, 92
6, 20640, Note_on_c, 2, 72, 90
6, 20675, Note_off_c, 2, 64, 64
6, 20700, Note_on_c, 2, 64, 44
6, 20705, Note_off_c, 2, 72, 64
6, 20740, Note_off_c, 2, 64, 64
6, 20760, Note_on_c, 2, 62, 77
6, 20760, Note_on_c, 2, 71, 73
6, 20850, Note_off_c, 2, 62, 64
6, 20855, Note_off_c, 2, 71, 64
6, 20880, Note_on_c, 2, 64, 72
6, 20880, Note_on_c, 2, 71, 78
6, 20965, Note_off_c, 2, 71, 64
6, 20975, Note_off_c, 2, 67, 64
6, 21000, Note_on_c, 2, 71, 82
6, 21010, Note_off_c, 2, 64, 64
6, 21030, Note_on_c, 2, 67, 65
6, 21060, Note_on_c, 2, 64, 92
6, 21075, Note_off_c, 2, 67, 64
6, 21110, Note_off_c, 2, 71, 64
6, 21115, Note_off_c, 2, 64, 64
6, 21120, Note_on_c, 2, 65, 103
6, 21120, Note_on_c, 2, 69, 90
6, 21180, Note_on_c, 2, 60, 73
6, 21220, Note_off_c, 2, 69, 64
6, 21225, Note_off_c, 2, 60, 64
6, 21240, Note_on_c, 2, 60, 28
6, 21240, Note_on_c, 2, 69, 52
6, 21255, Note_off_c, 2, 60, 64
6, 21300, Note_on_c, 2, 60, 77
6, 21335, Note_off_c, 2, 69, 64
6, 21340, Note_off_c, 2, 60, 64
6, 21345, Note_off_c, 2, 65, 64
6, 21360, Note_on_c, 2, 67, 74
6, 21360, Note_on_c, 2, 71, 78
6, 21420, Note_on_c, 2, 62, 85
6, 21430, Note_off_c, 2, 67, 64
6, 21460, Note_off_c, 2, 71, 64
6, 21480, Note_on_c, 2, 69, 87
6, 21535, Note_off_c, 2, 62, 64
6, 21540, Note_off_c, 2, 69, 64
6, 21540, Note_on_c, 2, 71, 65
6, 21590, Note_off_c, 2, 71, 64
6, 21600, Note_on_c, 2, 64, 80
6, 21600, Note_on_c, 2, 67, 67
6, 21600, Note_on_c, 2, 72, 69
6, 21705, Note_off_c, 2, 72, 64
6, 21710, Note_off_c, 2, 64, 64
6, 21715, Note_off_c, 2, 67, 64
6, 21720, Note_on_c, 2, 64, 73
6, 21720, Note_on_c, 2, 67, 82
6, 21720, Note_on_c, 2, 72, 87
6, 21735, Note_off_c, 2, 64, 64
6, 21780, Note_on_c, 2, 64, 106
6, 21825, Note_off_c, 2, 67, 64
6, 21830, Note_off_c, 2, 64, 64
6, 21830, Note_off_c, 2, 72, 64
6, 21840, Note_on_c, 2, 64, 72
6, 21840, Note_on_c, 2, 69, 90
6, 21840, Note_on_c, 2, 72, 76
6, 21945, Note_off_c, 2, 72, 64
6, 21950, Note_off_c, 2, 69, 64
6, 21950, Note_off_c, 2, 64, 64
6, 21960, Note_on_c, 2, 72, 90
6, 21960, Note_on_c, 2, 64, 85
6, 21960, Note_on_c, 2, 69, 97
6, 22000, Note_off_c, 2, 64, 64
6, 22020, Note_on_c, 2, 64, 55
6, 22055, Note_off_c, 2, 64, 64
6, 22065, Note_off_c, 2, 69, 64
6, 22080, Note_on_c, 2, 62, 70
6, 22080, Note_on_c, 2, 66, 77
6, 22080, Note_on_c, 2, 69, 59
6, 22120, Note_off_c, 2, 62, 64
6, 22140, Note_on_c, 2, 62, 42
6, 22175, Note_off_c, 2, 69, 64
6, 22185, Note_off_c, 2, 66, 64
6, 22200, Note_on_c, 2, 66, 58
6, 22200, Note_on_c, 2, 69, 70
6, 22215, Note_off_c, 2, 62, 64
6, 22260, Note_on_c, 2, 62, 69
6, 22265, Note_off_c, 2, 72, 64
6, 22310, Note_off_c, 2, 69, 64
6, 22310, Note_off_c, 2, 66, 64
6, 22320, Note_on_c, 2, 67, 63
6, 22320, Note_on_c, 2, 71, 62
6, 22360, Note_off_c, 2, 62, 64
6, 22380, Note_on_c, 2, 62, 90
6, 22405, Note_off_c, 2, 67, 64
6, 22440, Note_off_c, 2, 71, 64
6, 22440, Note_on_c, 2, 67, 76
6, 22500, Note_on_c, 2, 71, 55
6, 22545, Note_off_c, 2, 71, 64
6, 22545, Note_off_c, 2, 62, 64
6, 22560, Note_on_c, 2, 72, 84
6, 22620, Note_on_c, 2, 64, 77
6, 22645, Note_off_c, 2, 67, 64
6, 22670, Note_off_c, 2, 72, 64
6, 22680, Note_on_c, 2, 68, 92
6, 22680, Note_on_c, 2, 71, 68
6, 22715, Note_off_c, 2, 64, 64
6, 22740, Note_on_c, 2, 64, 46
6, 22750, Note_off_c, 2, 71, 64
6, 22750, Note_off_c, 2, 68, 64
6, 22785, Note_off_c, 2, 64, 64
6, 22800, Note_on_c, 2, 64, 82
6, 22800, Note_on_c, 2, 69, 76
6, 22860, Note_on_c, 2, 60, 63
6, 22905, Note_off_c, 2, 69, 64
6, 22910, Note_off_c, 2, 64, 64
6, 22920, Note_on_c, 2, 64, 66
6, 22920, Note_on_c, 2, 67, 80
6, 22945, Note_off_c, 2, 60, 64
6, 22980, Note_on_c, 2, 60, 69
6, 22990, Note_off_c, 2, 64, 64
6, 23025, Note_off_c, 2, 67, 64
6, 23040, Note_on_c, 2, 65, 85
6, 23040, Note_on_c, 2, 69, 77
6, 23145, Note_off_c, 2, 60, 64
6, 23150, Note_off_c, 2, 69, 64
6, 23160, Note_off_c, 2, 65, 64
6, 23160, Note_on_c, 2, 62, 80
6, 23160, Note_on_c, 2, 65, 56
6, 23160, Note_on_c, 2, 67, 73
6, 23160, Note_on_c, 2, 71, 90
6, 23165, Note_off_c, 2, 65, 64
6, 23255, Note_off_c, 2, 71, 64
6, 23255, Note_off_c, 2, 62, 64
6, 23280, Note_on_c, 2, 64, 66
6, 23280, Note_on_c, 2, 72, 90
6, 23500, Note_off_c, 2, 72, 64
6, 23500, Note_off_c, 2, 67, 64
6, 23520, Note_on_c, 2, 69, 64
6, 23520, Note_on_c, 2, 72, 70
6, 23625, Note_off_c, 2, 64, 64
6, 23635, Note_off_c, 2, 72, 64
6, 23635, Note_off_c, 2, 69, 64
6, 23640, Note_on_c, 2, 64, 74
6, 23640, Note_on_c, 2, 69, 85
6, 23640, Note_on_c, 2, 72, 66
6, 23680, Note_off_c, 2, 64, 64
6, 23700, Note_on_c, 2, 64, 60
6, 23705, Note_off_c, 2, 72, 64
6, 23740, Note_off_c, 2, 69, 64
6, 23750, Note_off_c, 2, 64, 64
6, 23760, Note_on_c, 2, 64, 67
6, 23760, Note_on_c, 2, 67, 74
6, 23760, Note_on_c, 2, 71, 68
6, 23855, Note_off_c, 2, 64, 64
6, 23865, Note_off_c, 2, 67, 64
6, 23880, Note_on_c, 2, 62, 76
6, 23880, Note_on_c, 2, 65, 63
6, 23970, Note_off_c, 2, 65, 64
6, 23970, Note_off_c, 2, 62, 64
6, 23980, Note_off_c, 2, 71, 64
6, 24000, Note_on_c, 2, 64, 77
6, 24000, Note_on_c, 2, 67, 92
6, 24000, Note_on_c, 2, 72, 94
6, 24100, Note_off_c, 2, 64, 64
6, 24120, Note_off_c, 2, 67, 64
6, 24120, Note_on_c, 2, 65, 76
6, 24120, Note_on_c, 2, 69, 76
6, 24215, Note_off_c, 2, 65, 64
6, 24225, Note_off_c, 2, 69, 64
6, 24240, Note_on_c, 2, 64, 85
6, 24240, Note_on_c, 2, 67, 77
6, 24345, Note_off_c, 2, 67, 64
6, 24345, Note_off_c, 2, 64, 64
6, 24360, Note_on_c, 2, 62, 85
6, 24360, Note_on_c, 2, 65, 82
6, 24465, Note_off_c, 2, 65, 64
6, 24465, Note_off_c, 2, 62, 64
6, 24475, Note_off_c, 2, 72, 64
6, 24480, Note_on_c, 2, 67, 60
6, 24480, Note_on_c, 2, 72, 67
6, 24480, Note_on_c, 2, 76, 70
6, 24580, Note_off_c, 2, 76, 64
6, 24580, Note_off_c, 2, 67, 64
6, 24585, Note_off_c, 2, 72, 64
6, 24600, Note_on_c, 2, 67, 62
6, 24600, Note_on_c, 2, 71, 87
6, 24600, Note_on_c, 2, 74, 73
6, 24695, Note_off_c, 2, 67, 64
6, 24700, Note_off_c, 2, 74, 64
6, 24700, Note_off_c, 2, 71, 64
6, 24720, Note_on_c, 2, 67, 62
6, 24720, Note_on_c, 2, 71, 78
6, 24720, Note_on_c, 2, 76, 90
6, 24825, Note_off_c, 2, 76, 64
6, 24825, Note_off_c, 2, 67, 64
6, 24830, Note_off_c, 2, 71, 64
6, 24840, Note_on_c, 2, 67, 58
6, 24840, Note_on_c, 2, 71, 70
6, 24840, Note_on_c, 2, 76, 70
6, 24930, Note_off_c, 2, 76, 64
6, 24940, Note_off_c, 2, 71, 64
6, 24945, Note_off_c, 2, 67, 64
6, 24960, Note_on_c, 2, 65, 85
6, 24960, Note_on_c, 2, 69, 94
6, 24960, Note_on_c, 2, 72, 74
6, 25010, Note_off_c, 2, 69, 64
6, 25050, Note_on_c, 2, 69, 12
6, 25070, Note_off_c, 2, 65, 64
6, 25075, Note_off_c, 2, 69, 64
6, 25075, Note_off_c, 2, 72, 64
6, 25080, Note_on_c, 2, 65, 74
6, 25080, Note_on_c, 2, 69, 72
6, 25080, Note_on_c, 2, 72, 57
6, 25140, Note_on_c, 2, 60, 46
6, 25155, Note_off_c, 2, 72, 64
6, 25165, Note_off_c, 2, 69, 64
6, 25170, Note_off_c, 2, 65, 64
6, 25185, Note_off_c, 2, 60, 64
6, 25200, Note_on_c, 2, 62, 77
6, 25200, Note_on_c, 2, 67, 74
6, 25200, Note_on_c, 2, 71, 77
6, 25245, Note_off_c, 2, 62, 64
6, 25260, Note_on_c, 2, 62, 53
6, 25280, Note_off_c, 2, 71, 64
6, 25285, Note_off_c, 2, 67, 64
6, 25320, Note_on_c, 2, 67, 55
6, 25320, Note_on_c, 2, 71, 68
6, 25350, Note_off_c, 2, 62, 64
6, 25380, Note_on_c, 2, 62, 54
6, 25390, Note_off_c, 2, 71, 64
6, 25395, Note_off_c, 2, 67, 64
6, 25410, Note_off_c, 2, 62, 64
6, 25440, Note_on_c, 2, 64, 76
6, 25440, Note_on_c, 2, 67, 69
6, 25440, Note_on_c, 2, 72, 77
6, 25540, Note_off_c, 2, 72, 64
6, 25545, Note_off_c, 2, 67, 64
6, 25545, Note_off_c, 2, 64, 64
6, 25560, Note_on_c, 2, 64, 67
6, 25560, Note_on_c, 2, 67, 82
6, 25560, Note_on_c, 2, 72, 77
6, 25595, Note_off_c, 2, 64, 64
6, 25620, Note_on_c, 2, 64, 42
6, 25665, Note_off_c, 2, 67, 64
6, 25680, Note_on_c, 2, 69, 44
6, 25720, Note_off_c, 2, 64, 64
6, 25740, Note_on_c, 2, 64, 43
6, 25750, Note_off_c, 2, 72, 64
6, 25755, Note_off_c, 2, 69, 64
6, 25780, Note_off_c, 2, 64, 64
6, 25800, Note_on_c, 2, 72, 78
6, 25800, Note_on_c, 2, 64, 68
6, 25800, Note_on_c, 2, 69, 92
6, 25840, Note_off_c, 2, 64, 64
6, 25860, Note_on_c, 2, 64, 51
6, 25870, Note_off_c, 2, 69, 64
6, 25890, Note_off_c, 2, 64, 64
6, 25920, Note_on_c, 2, 62, 60
6, 25920, Note_on_c, 2, 66, 46
6, 25920, Note_on_c, 2, 69, 15
6, 25960, Note_off_c, 2, 62, 64
6, 25970, Note_off_c, 2, 69, 64
6, 25980, Note_on_c, 2, 62, 48
6, 25985, Note_off_c, 2, 66, 64
6, 26020, Note_off_c, 2, 72, 64
6, 26040, Note_on_c, 2, 66, 100
6, 26040, Note_on_c, 2, 69, 80
6, 26040, Note_on_c, 2, 72, 62
6, 26065, Note_off_c, 2, 62, 64
6, 26100, Note_on_c, 2, 62, 54
6, 26110, Note_off_c, 2, 72, 64
6, 26135, Note_off_c, 2, 66, 64
6, 26140, Note_off_c, 2, 69, 64
6, 26160, Note_on_c, 2, 67, 65
6, 26160, Note_on_c, 2, 71, 70
6, 26180, Note_off_c, 2, 62, 64
6, 26220, Note_on_c, 2, 62, 48
6, 26230, Note_off_c, 2, 67, 64
6, 26245, Note_off_c, 2, 71, 64
6, 26280, Note_on_c, 2, 67, 77
6, 26280, Note_on_c, 2, 71, 78
6, 26305, Note_off_c, 2, 62, 64
6, 26340, Note_on_c, 2, 62, 56
6, 26350, Note_off_c, 2, 71, 64
6, 26365, Note_off_c, 2, 62, 64
6, 26365, Note_off_c, 2, 67, 64
6, 26400, Note_on_c, 2, 67, 84
6, 26400, Note_on_c, 2, 72, 97
6, 26455, Note_off_c, 2, 67, 64
6, 26460, Note_on_c, 2, 64, 106
6, 26470, Note_off_c, 2, 72, 64
6, 26520, Note_on_c, 2, 67, 59
6, 26520, Note_on_c, 2, 72, 73
6, 26535, Note_off_c, 2, 72, 64
6, 26560, Note_off_c, 2, 67, 64
6, 26580, Note_on_c, 2, 67, 56
6, 26580, Note_on_c, 2, 68, 76
6, 26580, Note_on_c, 2, 71, 80
6, 26581, Note_off_c, 2, 68, 64
6, 26605, Note_off_c, 2, 67, 64
6, 26615, Note_off_c, 2, 71, 64
6, 26640, Note_on_c, 2, 69, 68
6, 26640, Note_on_c, 2, 72, 85
6, 26665, Note_off_c, 2, 64, 64
6, 26700, Note_on_c, 2, 64, 90
6, 26705, Note_off_c, 2, 72, 64
6, 26705, Note_off_c, 2, 69, 64
6, 26760, Note_on_c, 2, 67, 82
6, 26760, Note_on_c, 2, 72, 74
6, 26790, Note_off_c, 2, 64, 64
6, 26820, Note_on_c, 2, 64, 92
6, 26860, Note_off_c, 2, 72, 64
6, 26865, Note_off_c, 2, 67, 64
6, 26870, Note_off_c, 2, 64, 64
6, 26880, Note_on_c, 2, 69, 66
6, 26880, Note_on_c, 2, 72, 82
6, 26940, Note_on_c, 2, 65, 94
6, 26945, Note_off_c, 2, 69, 64
6, 26960, Note_off_c, 2, 72, 64
6, 26985, Note_off_c, 2, 65, 64
6, 27000, Note_on_c, 2, 62, 57
6, 27000, Note_on_c, 2, 64, 50
6, 27000, Note_on_c, 2, 67, 78
6, 27000, Note_on_c, 2, 71, 59
6, 27005, Note_off_c, 2, 64, 64
6, 27015, Note_off_c, 2, 62, 64
6, 27060, Note_on_c, 2, 62, 78
6, 27095, Note_off_c, 2, 71, 64
6, 27100, Note_off_c, 2, 62, 64
6, 27115, Note_off_c, 2, 67, 64
6, 27120, Note_on_c, 2, 72, 94
6, 27150, Note_on_c, 2, 64, 85
6, 27155, Note_off_c, 2, 72, 64
6, 27180, Note_on_c, 2, 67, 56
6, 27195, Note_off_c, 2, 64, 64
6, 27210, Note_on_c, 2, 72, 74
6, 27265, Note_off_c, 2, 67, 64
6, 27270, Note_on_c, 2, 64, 87
6, 27295, Note_off_c, 2, 72, 64
6, 27300, Note_on_c, 2, 67, 59
6, 27330, Note_off_c, 2, 64, 64
6, 27330, Note_on_c, 2, 72, 65
6, 27340, Note_off_c, 2, 67, 64
6, 27360, Note_on_c, 2, 69, 85
6, 27420, Note_on_c, 2, 64, 84
6, 27450, Note_off_c, 2, 72, 64
6, 27455, Note_off_c, 2, 69, 64
6, 27480, Note_on_c, 2, 69, 78
6, 27480, Note_on_c, 2, 72, 85
6, 27505, Note_off_c, 2, 64, 64
6, 27540, Note_on_c, 2, 64, 54
6, 27560, Note_off_c, 2, 69, 64
6, 27575, Note_off_c, 2, 72, 64
6, 27600, Note_on_c, 2, 67, 68
6, 27600, Note_on_c, 2, 71, 68
6, 27630, Note_off_c, 2, 64, 64
6, 27660, Note_on_c, 2, 64, 56
6, 27675, Note_off_c, 2, 71, 64
6, 27675, Note_off_c, 2, 67, 64
6, 27705, Note_off_c, 2, 64, 64
6, 27720, Note_on_c, 2, 62, 67
6, 27720, Note_on_c, 2, 65, 66
6, 27720, Note_on_c, 2, 67, 67
6, 27720, Note_on_c, 2, 69, 44
6, 27755, Note_off_c, 2, 67, 64
6, 27755, Note_off_c, 2, 65, 64
6, 27765, Note_off_c, 2, 62, 64
6, 27780, Note_on_c, 2, 62, 56
6, 27780, Note_on_c, 2, 65, 52
6, 27805, Note_off_c, 2, 65, 64
6, 27815, Note_off_c, 2, 62, 64
6, 27825, Note_off_c, 2, 69, 64
6, 27840, Note_on_c, 2, 67, 82
6, 27840, Note_on_c, 2, 72, 103
6, 27950, Note_off_c, 2, 67, 64
6, 27960, Note_on_c, 2, 65, 100
6, 27960, Note_on_c, 2, 69, 90
6, 28065, Note_off_c, 2, 65, 64
6, 28070, Note_off_c, 2, 69, 64
6, 28080, Note_on_c, 2, 64, 77
6, 28080, Note_on_c, 2, 67, 72
6, 28180, Note_off_c, 2, 64, 64
6, 28185, Note_off_c, 2, 67, 64
6, 28200, Note_on_c, 2, 62, 87
6, 28200, Note_on_c, 2, 65, 70
6, 28270, Note_off_c, 2, 65, 64
6, 28280, Note_off_c, 2, 62, 64
6, 28290, Note_off_c, 2, 72, 64
6, 28320, Note_on_c, 2, 72, 90
6, 28320, Note_on_c, 2, 67, 92
6, 28320, Note_on_c, 2, 64, 67
6, 28800, Note_off_c, 2, 64, 64
6, 28800, Note_off_c, 2, 67, 64
6, 28800, Note_off_c, 2, 72, 64
6, 28800, End_track
7, 0, Start_track
7, 0, Title_t, "Rythmique"
7, 0, Program_c, 3, 25
7, 0, Control_c, 3, 7, 65
7, 1, Control_c, 3, 0, 0
7, 2, Program_c, 3, 25
7, 3, Control_c, 3, 10, 115
7, 4, Control_c, 3, 91, 85
7, 5, Control_c, 3, 93, 75
7, 6, Control_c, 3, 11, 127
7, 480, Note_on_c, 3, 67, 78
7, 600, Note_on_c, 3, 72, 84
7, 660, Note_off_c, 3, 72, 64
7, 660, Note_on_c, 3, 71, 72
7, 665, Note_off_c, 3, 67, 64
7, 720, Note_on_c, 3, 67, 61
7, 725, Note_off_c, 3, 71, 64
7, 905, Note_off_c, 3, 67, 64
7, 960, Note_on_c, 3, 67, 94
7, 1080, Note_on_c, 3, 76, 82
7, 1140, Note_on_c, 3, 74, 87
7, 1145, Note_off_c, 3, 76, 64
7, 1145, Note_off_c, 3, 67, 64
7, 1200, Note_on_c, 3, 67, 65
7, 1210, Note_off_c, 3, 74, 64
7, 1370, Note_off_c, 3, 67, 64
7, 1440, Note_on_c, 3, 67, 60
7, 1440, Note_on_c, 3, 72, 67
7, 1440, Note_on_c, 3, 76, 70
7, 1540, Note_off_c, 3, 76, 64
7, 1540, Note_off_c, 3, 67, 64
7, 1545, Note_off_c, 3, 72, 64
7, 1560, Note_on_c, 3, 67, 62
7, 1560, Note_on_c, 3, 71, 87
7, 1560, Note_on_c, 3, 74, 73
7, 1655, Note_off_c, 3, 67, 64
7, 1660, Note_off_c, 3, 74, 64
7, 1660, Note_off_c, 3, 71, 64
7, 1680, Note_on_c, 3, 67, 62
7, 1680, Note_on_c, 3, 71, 78
7, 1680, Note_on_c, 3, 76, 90
7, 1785, Note_off_c, 3, 76, 64
7, 1785, Note_off_c, 3, 67, 64
7, 1790, Note_off_c, 3, 71, 64
7, 1800, Note_on_c, 3, 67, 58
7, 1800, Note_on_c, 3, 71, 70
7, 1800, Note_on_c, 3, 76, 70
7, 1890, Note_off_c, 3, 76, 64
7, 1900, Note_off_c, 3, 71, 64
7, 1905, Note_off_c, 3, 67, 64
7, 1920, Note_on_c, 3, 65, 85
7, 1920, Note_on_c, 3, 69, 94
7, 1920, Note_on_c, 3, 72, 74
7, 1970, Note_off_c, 3, 69, 64
7, 2010, Note_on_c, 3, 69, 12
7, 2030, Note_off_c, 3, 65, 64
7, 2035, Note_off_c, 3, 69, 64
7, 2035, Note_off_c, 3, 72, 64
7, 2040, Note_on_c, 3, 65, 74
7, 2040, Note_on_c, 3, 69, 72
7, 2040, Note_on_c, 3, 72, 57
7, 2100, Note_on_c, 3, 60, 46
7, 2115, Note_off_c, 3, 72, 64
7, 2125, Note_off_c, 3, 69, 64
7, 2130, Note_off_c, 3, 65, 64
7, 2145, Note_off_c, 3, 60, 64
7, 2160, Note_on_c, 3, 62, 77
7, 2160, Note_on_c, 3, 67, 74
7, 2160, Note_on_c, 3, 71, 77
7, 2205, Note_off_c, 3, 62, 64
7, 2220, Note_on_c, 3, 62, 53
7, 2240, Note_off_c, 3, 71, 64
7, 2245, Note_off_c, 3, 67, 64
7, 2280, Note_on_c, 3, 67, 55
7, 2280, Note_on_c, 3, 71, 68
7, 2310, Note_off_c, 3, 62, 64
7, 2340, Note_on_c, 3, 62, 54
7, 2350, Note_off_c, 3, 71, 64
7, 2355, Note_off_c, 3, 67, 64
7, 2370, Note_off_c, 3, 62, 64
7, 2400, Note_on_c, 3, 64, 76
7, 2400, Note_on_c, 3, 67, 69
7, 2400, Note_on_c, 3, 72, 77
7, 2500, Note_off_c, 3, 72, 64
7, 2505, Note_off_c, 3, 67, 64
7, 2505, Note_off_c, 3, 64, 64
7, 2520, Note_on_c, 3, 64, 67
7, 2520, Note_on_c, 3, 67, 82
7, 2520, Note_on_c, 3, 72, 77
7, 2555, Note_off_c, 3, 64, 64
7, 2580, Note_on_c, 3, 64, 42
7, 2625, Note_off_c, 3, 67, 64
7, 2640, Note_on_c, 3, 69, 44
7, 2680, Note_off_c, 3, 64, 64
7, 2700, Note_on_c, 3, 64, 43
7, 2710, Note_off_c, 3, 72, 64
7, 2715, Note_off_c, 3, 69, 64
7, 2740, Note_off_c, 3, 64, 64
7, 2760, Note_on_c, 3, 72, 78
7, 2760, Note_on_c, 3, 64, 68
7, 2760, Note_on_c, 3, 69, 92
7, 2800, Note_off_c, 3, 64, 64
7, 2820, Note_on_c, 3, 64, 51
7, 2830, Note_off_c, 3, 69, 64
7, 2850, Note_off_c, 3, 64, 64
7, 2880, Note_on_c, 3, 62, 60
7, 2880, Note_on_c, 3, 66, 46
7, 2880, Note_on_c, 3, 69, 15
7, 2920, Note_off_c, 3, 62, 64
7, 2930, Note_off_c, 3, 69, 64
7, 2940, Note_on_c, 3, 62, 48
7, 2945, Note_off_c, 3, 66, 64
7, 2980, Note_off_c, 3, 72, 64
7, 3000, Note_on_c, 3, 66, 100
7, 3000, Note_on_c, 3, 69, 80
7, 3000, Note_on_c, 3, 72, 62
7, 3025, Note_off_c, 3, 62, 64
7, 3060, Note_on_c, 3, 62, 54
7, 3070, Note_off_c, 3, 72, 64
7, 3095, Note_off_c, 3, 66, 64
7, 3100, Note_off_c, 3, 69, 64
7, 3120, Note_on_c, 3, 67, 65
7, 3120, Note_on_c, 3, 71, 70
7, 3140, Note_off_c, 3, 62, 64
7, 3180, Note_on_c, 3, 62, 48
7, 3190, Note_off_c, 3, 67, 64
7, 3205, Note_off_c, 3, 71, 64
7, 3240, Note_on_c, 3, 67, 77
7, 3240, Note_on_c, 3, 71, 78
7, 3265, Note_off_c, 3, 62, 64
7, 3300, Note_on_c, 3, 62, 56
7, 3310, Note_off_c, 3, 71, 64
7, 3325, Note_off_c, 3, 62, 64
7, 3325, Note_off_c, 3, 67, 64
7, 3360, Note_on_c, 3, 67, 84
7, 3360, Note_on_c, 3, 72, 97
7, 3415, Note_off_c, 3, 67, 64
7, 3420, Note_on_c, 3, 64, 106
7, 3430, Note_off_c, 3, 72, 64
7, 3480, Note_on_c, 3, 67, 59
7, 3480, Note_on_c, 3, 72, 73
7, 3495, Note_off_c, 3, 72, 64
7, 3520, Note_off_c, 3, 67, 64
7, 3540, Note_on_c, 3, 67, 56
7, 3540, Note_on_c, 3, 68, 76
7, 3540, Note_on_c, 3, 71, 80
7, 3541, Note_off_c, 3, 68, 64
7, 3565, Note_off_c, 3, 67, 64
7, 3575, Note_off_c, 3, 71, 64
7, 3600, Note_on_c, 3, 69, 68
7, 3600, Note_on_c, 3, 72, 85
7, 3625, Note_off_c, 3, 64, 64
7, 3660, Note_on_c, 3, 64, 90
7, 3665, Note_off_c, 3, 72, 64
7, 3665, Note_off_c, 3, 69, 64
7, 3720, Note_on_c, 3, 67, 82
7, 3720, Note_on_c, 3, 72, 74
7, 3750, Note_off_c, 3, 64, 64
7, 3780, Note_on_c, 3, 64, 92
7, 3820, Note_off_c, 3, 72, 64
7, 3825, Note_off_c, 3, 67, 64
7, 3830, Note_off_c, 3, 64, 64
7, 3840, Note_on_c, 3, 69, 66
7, 3840, Note_on_c, 3, 72, 82
7, 3900, Note_on_c, 3, 65, 94
7, 3905, Note_off_c, 3, 69, 64
7, 3920, Note_off_c, 3, 72, 64
7, 3945, Note_off_c, 3, 65, 64
7, 3960, Note_on_c, 3, 62, 57
7, 3960, Note_on_c, 3, 64, 50
7, 3960, Note_on_c, 3, 67, 78
7, 3960, Note_on_c, 3, 71, 59
7, 3965, Note_off_c, 3, 64, 64
7, 3975, Note_off_c, 3, 62, 64
7, 4020, Note_on_c, 3, 62, 78
7, 4055, Note_off_c, 3, 71, 64
7, 4060, Note_off_c, 3, 62, 64
7, 4075, Note_off_c, 3, 67, 64
7, 4080, Note_on_c, 3, 72, 94
7, 4110, Note_on_c, 3, 64, 85
7, 4115, Note_off_c, 3, 72, 64
7, 4140, Note_on_c, 3, 67, 56
7, 4155, Note_off_c, 3, 64, 64
7, 4170, Note_on_c, 3, 72, 74
7, 4225, Note_off_c, 3, 67, 64
7, 4230, Note_on_c, 3, 64, 87
7, 4255, Note_off_c, 3, 72, 64
7, 4260, Note_on_c, 3, 67, 59
7, 4290, Note_off_c, 3, 64, 64
7, 4290, Note_on_c, 3, 72, 65
7, 4300, Note_off_c, 3, 67, 64
7, 4320, Note_on_c, 3, 69, 85
7, 4380, Note_on_c, 3, 64, 84
7, 4410, Note_off_c, 3, 72, 64
7, 4415, Note_off_c, 3, 69, 64
7, 4440, Note_on_c, 3, 69, 78
7, 4440, Note_on_c, 3, 72, 85
7, 4465, Note_off_c, 3, 64, 64
7, 4500, Note_on_c, 3, 64, 54
7, 4520, Note_off_c, 3, 69, 64
7, 4535, Note_off_c, 3, 72, 64
7, 4560, Note_on_c, 3, 67, 68
7, 4560, Note_on_c, 3, 71, 68
7, 4590, Note_off_c, 3, 64, 64
7, 4620, Note_on_c, 3, 64, 56
7, 4635, Note_off_c, 3, 71, 64
7, 4635, Note_off_c, 3, 67, 64
7, 4665, Note_off_c, 3, 64, 64
7, 4680, Note_on_c, 3, 62, 67
7, 4680, Note_on_c, 3, 65, 66
7, 4680, Note_on_c, 3, 67, 67
7, 4680, Note_on_c, 3, 69, 44
7, 4715, Note_off_c, 3, 67, 64
7, 4715, Note_off_c, 3, 65, 64
7, 4725, Note_off_c, 3, 62, 64
7, 4740, Note_on_c, 3, 62, 56
7, 4740, Note_on_c, 3, 65, 52
7, 4765, Note_off_c, 3, 65, 64
7, 4775, Note_off_c, 3, 62, 64
7, 4785, Note_off_c, 3, 69, 64
7, 4800, Note_on_c, 3, 67, 82
7, 4800, Note_on_c, 3, 72, 103
7, 4910, Note_off_c, 3, 67, 64
7, 4920, Note_on_c, 3, 65, 100
7, 4920, Note_on_c, 3, 69, 90
7, 5025, Note_off_c, 3, 65, 64
7, 5030, Note_off_c, 3, 69, 64
7, 5040, Note_on_c, 3, 64, 77
7, 5040, Note_on_c, 3, 67, 72
7, 5140, Note_off_c, 3, 64, 64
7, 5145, Note_off_c, 3, 67, 64
7, 5160, Note_on_c, 3, 62, 87
7, 5160, Note_on_c, 3, 65, 70
7, 5230, Note_off_c, 3, 65, 64
7, 5240, Note_off_c, 3, 62, 64
7, 5250, Note_off_c, 3, 72, 64
7, 5280, Note_on_c, 3, 67, 60
7, 5280, Note_on_c, 3, 72, 67
7, 5280, Note_on_c, 3, 76, 70
7, 5380, Note_off_c, 3, 76, 64
7, 5380, Note_off_c, 3, 67, 64
7, 5385, Note_off_c, 3, 72, 64
7, 5400, Note_on_c, 3, 67, 62
7, 5400, Note_on_c, 3, 71, 87
7, 5400, Note_on_c, 3, 74, 73
7, 5495, Note_off_c, 3, 67, 64
7, 5500, Note_off_c, 3, 74, 64
7, 5500, Note_off_c, 3, 71, 64
7, 5520, Note_on_c, 3, 67, 62
7, 5520, Note_on_c, 3, 71, 78
7, 5520, Note_on_c, 3, 76, 90
7, 5625, Note_off_c, 3, 76, 64
7, 5625, Note_off_c, 3, 67, 64
7, 5630, Note_off_c, 3, 71, 64
7, 5640, Note_on_c, 3, 67, 58
7, 5640, Note_on_c, 3, 71, 70
7, 5640, Note_on_c, 3, 76, 70
7, 5730, Note_off_c, 3, 76, 64
7, 5740, Note_off_c, 3, 71, 64
7, 5745, Note_off_c, 3, 67, 64
7, 5760, Note_on_c, 3, 65, 85
7, 5760, Note_on_c, 3, 69, 94
7, 5760, Note_on_c, 3, 72, 74
7, 5810, Note_off_c, 3, 69, 64
7, 5850, Note_on_c, 3, 69, 12
7, 5870, Note_off_c, 3, 65, 64
7, 5875, Note_off_c, 3, 69, 64
7, 5875, Note_off_c, 3, 72, 64
7, 5880, Note_on_c, 3, 65, 74
7, 5880, Note_on_c, 3, 69, 72
7, 5880, Note_on_c, 3, 72, 57
7, 5940, Note_on_c, 3, 60, 46
7, 5955, Note_off_c, 3, 72, 64
7, 5965, Note_off_c, 3, 69, 64
7, 5970, Note_off_c, 3, 65, 64
7, 5985, Note_off_c, 3, 60, 64
7, 6000, Note_on_c, 3, 62, 77
7, 6000, Note_on_c, 3, 67, 74
7, 6000, Note_on_c, 3, 71, 77
7, 6045, Note_off_c, 3, 62, 64
7, 6060, Note_on_c, 3, 62, 53
7, 6080, Note_off_c, 3, 71, 64
7, 6085, Note_off_c, 3, 67, 64
7, 6120, Note_on_c, 3, 67, 55
7, 6120, Note_on_c, 3, 71, 68
7, 6150, Note_off_c, 3, 62, 64
7, 6180, Note_on_c, 3, 62, 54
7, 6190, Note_off_c, 3, 71, 64
7, 6195, Note_off_c, 3, 67, 64
7, 6210, Note_off_c, 3, 62, 64
7, 6240, Note_on_c, 3, 64, 76
7, 6240, Note_on_c, 3, 67, 69
7, 6240, Note_on_c, 3, 72, 77
7, 6340, Note_off_c, 3, 72, 64
7, 6345, Note_off_c, 3, 67, 64
7, 6345, Note_off_c, 3, 64, 64
7, 6360, Note_on_c, 3, 64, 67
7, 6360, Note_on_c, 3, 67, 82
7, 6360, Note_on_c, 3, 72, 77
7, 6395, Note_off_c, 3, 64, 64
7, 6420, Note_on_c, 3, 64, 42
7, 6465, Note_off_c, 3, 67, 64
7, 6480, Note_on_c, 3, 69, 44
7, 6520, Note_off_c, 3, 64, 64
7, 6540, Note_on_c, 3, 64, 43
7, 6550, Note_off_c, 3, 72, 64
7, 6555, Note_off_c, 3, 69, 64
7, 6580, Note_off_c, 3, 64, 64
7, 6600, Note_on_c, 3, 72, 78
7, 6600, Note_on_c, 3, 64, 68
7, 6600, Note_on_c, 3, 69, 92
7, 6640, Note_off_c, 3, 64, 64
7, 6660, Note_on_c, 3, 64, 51
7, 6670, Note_off_c, 3, 69, 64
7, 6690, Note_off_c, 3, 64, 64
7, 6720, Note_on_c, 3, 62, 60
7, 6720, Note_on_c, 3, 66, 46
7, 6720, Note_on_c, 3, 69, 15
7, 6760, Note_off_c, 3, 62, 64
7, 6770, Note_off_c, 3, 69, 64
7, 6780, Note_on_c, 3, 62, 48
7, 6785, Note_off_c, 3, 66, 64
7, 6820, Note_off_c, 3, 72, 64
7, 6840, Note_on_c, 3, 66, 100
7, 6840, Note_on_c, 3, 69, 80
7, 6840, Note_on_c, 3, 72, 62
7, 6865, Note_off_c, 3, 62, 64
7, 6900, Note_on_c, 3, 62, 54
7, 6910, Note_off_c, 3, 72, 64
7, 6935, Note_off_c, 3, 66, 64
7, 6940, Note_off_c, 3, 69, 64
7, 6960, Note_on_c, 3, 67, 65
7, 6960, Note_on_c, 3, 71, 70
7, 6980, Note_off_c, 3, 62, 64
7, 7020, Note_on_c, 3, 62, 48
7, 7030, Note_off_c, 3, 67, 64
7, 7045, Note_off_c, 3, 71, 64
7, 7080, Note_on_c, 3, 67, 77
7, 7080, Note_on_c, 3, 71, 78
7, 7105, Note_off_c, 3, 62, 64
7, 7140, Note_on_c, 3, 62, 56
7, 7150, Note_off_c, 3, 71, 64
7, 7165, Note_off_c, 3, 62, 64
7, 7165, Note_off_c, 3, 67, 64
7, 7200, Note_on_c, 3, 67, 84
7, 7200, Note_on_c, 3, 72, 97
7, 7255, Note_off_c, 3, 67, 64
7, 7260, Note_on_c, 3, 64, 106
7, 7270, Note_off_c, 3, 72, 64
7, 7320, Note_on_c, 3, 67, 59
7, 7320, Note_on_c, 3, 72, 73
7, 7335, Note_off_c, 3, 72, 64
7, 7360, Note_off_c, 3, 67, 64
7, 7380, Note_on_c, 3, 67, 56
7, 7380, Note_on_c, 3, 68, 76
7, 7380, Note_on_c, 3, 71, 80
7, 7381, Note_off_c, 3, 68, 64
7, 7405, Note_off_c, 3, 67, 64
7, 7415, Note_off_c, 3, 71, 64
7, 7440, Note_on_c, 3, 69, 68
7, 7440, Note_on_c, 3, 72, 85
7, 7465, Note_off_c, 3, 64, 64
7, 7500, Note_on_c, 3, 64, 90
7, 7505, Note_off_c, 3, 72, 64
7, 7505, Note_off_c, 3, 69, 64
7, 7560, Note_on_c, 3, 67, 82
7, 7560, Note_on_c, 3, 72, 74
7, 7590, Note_off_c, 3, 64, 64
7, 7620, Note_on_c, 3, 64, 92
7, 7660, Note_off_c, 3, 72, 64
7, 7665, Note_off_c, 3, 67, 64
7, 7670, Note_off_c, 3, 64, 64
7, 7680, Note_on_c, 3, 69, 66
7, 7680, Note_on_c, 3, 72, 82
7, 7740, Note_on_c, 3, 65, 94
7, 7745, Note_off_c, 3, 69, 64
7, 7760, Note_off_c, 3, 72, 64
7, 7785, Note_off_c, 3, 65, 64
7, 7800, Note_on_c, 3, 62, 57
7, 7800, Note_on_c, 3, 64, 50
7, 7800, Note_on_c, 3, 67, 78
7, 7800, Note_on_c, 3, 71, 59
7, 7805, Note_off_c, 3, 64, 64
7, 7815, Note_off_c, 3, 62, 64
7, 7860, Note_on_c, 3, 62, 78
7, 7895, Note_off_c, 3, 71, 64
7, 7900, Note_off_c, 3, 62, 64
7, 7915, Note_off_c, 3, 67, 64
7, 7920, Note_on_c, 3, 72, 94
7, 7950, Note_on_c, 3, 64, 85
7, 7955, Note_off_c, 3, 72, 64
7, 7980, Note_on_c, 3, 67, 56
7, 7995, Note_off_c, 3, 64, 64
7, 8010, Note_on_c, 3, 72, 74
7, 8065, Note_off_c, 3, 67, 64
7, 8070, Note_on_c, 3, 64, 87
7, 8095, Note_off_c, 3, 72, 64
7, 8100, Note_on_c, 3, 67, 59
7, 8130, Note_off_c, 3, 64, 64
7, 8130, Note_on_c, 3, 72, 65
7, 8140, Note_off_c, 3, 67, 64
7, 8160, Note_on_c, 3, 69, 85
7, 8220, Note_on_c, 3, 64, 84
7, 8250, Note_off_c, 3, 72, 64
7, 8255, Note_off_c, 3, 69, 64
7, 8280, Note_on_c, 3, 69, 78
7, 8280, Note_on_c, 3, 72, 85
7, 8305, Note_off_c, 3, 64, 64
7, 8340, Note_on_c, 3, 64, 54
7, 8360, Note_off_c, 3, 69, 64
7, 8375, Note_off_c, 3, 72, 64
7, 8400, Note_on_c, 3, 67, 68
7, 8400, Note_on_c, 3, 71, 68
7, 8430, Note_off_c, 3, 64, 64
7, 8460, Note_on_c, 3, 64, 56
7, 8475, Note_off_c, 3, 71, 64
7, 8475, Note_off_c, 3, 67, 64
7, 8505, Note_off_c, 3, 64, 64
7, 8520, Note_on_c, 3, 62, 67
7, 8520, Note_on_c, 3, 65, 66
7, 8520, Note_on_c, 3, 67, 67
7, 8520, Note_on_c, 3, 69, 44
7, 8555, Note_off_c, 3, 67, 64
7, 8555, Note_off_c, 3, 65, 64
7, 8565, Note_off_c, 3, 62, 64
7, 8580, Note_on_c, 3, 62, 56
7, 8580, Note_on_c, 3, 65, 52
7, 8605, Note_off_c, 3, 65, 64
7, 8615, Note_off_c, 3, 62, 64
7, 8625, Note_off_c, 3, 69, 64
7, 8640, Note_on_c, 3, 67, 82
7, 8640, Note_on_c, 3, 72, 103
7, 8750, Note_off_c, 3, 67, 64
7, 8760, Note_on_c, 3, 65, 100
7, 8760, Note_on_c, 3, 69, 90
7, 8865, Note_off_c, 3, 65, 64
7, 8870, Note_off_c, 3, 69, 64
7, 8880, Note_on_c, 3, 64, 77
7, 8880, Note_on_c, 3, 67, 72
7, 8980, Note_off_c, 3, 64, 64
7, 8985, Note_off_c, 3, 67, 64
7, 9000, Note_on_c, 3, 62, 87
7, 9000, Note_on_c, 3, 65, 70
7, 9070, Note_off_c, 3, 65, 64
7, 9080, Note_off_c, 3, 62, 64
7, 9090, Note_off_c, 3, 72, 64
7, 9120, Note_on_c, 3, 67, 60
7, 9120, Note_on_c, 3, 72, 67
7, 9120, Note_on_c, 3, 76, 70
7, 9220, Note_off_c, 3, 76, 64
7, 9220, Note_off_c, 3, 67, 64
7, 9225, Note_off_c, 3, 72, 64
7, 9240, Note_on_c, 3, 67, 62
7, 9240, Note_on_c, 3, 71, 87
7, 9240, Note_on_c, 3, 74, 73
7, 9335, Note_off_c, 3, 67, 64
7, 9340, Note_off_c, 3, 74, 64
7, 9340, Note_off_c, 3, 71, 64
7, 9360, Note_on_c, 3, 67, 62
7, 9360, Note_on_c, 3, 71, 78
7, 9360, Note_on_c, 3, 76, 90
7, 9465, Note_off_c, 3, 76, 64
7, 9465, Note_off_c, 3, 67, 64
7, 9470, Note_off_c, 3, 71, 64
7, 9480, Note_on_c, 3, 67, 58
7, 9480, Note_on_c, 3, 71, 70
7, 9480, Note_on_c, 3, 76, 70
7, 9570, Note_off_c, 3, 76, 64
7, 9580, Note_off_c, 3, 71, 64
7, 9585, Note_off_c, 3, 67, 64
7, 9600, Note_on_c, 3, 65, 85
7, 9600, Note_on_c, 3, 69, 94
7, 9600, Note_on_c, 3, 72, 74
7, 9650, Note_off_c, 3, 69, 64
7, 9690, Note_on_c, 3, 69, 12
7, 9710, Note_off_c, 3, 65, 64
7, 9715, Note_off_c, 3, 69, 64
7, 9715, Note_off_c, 3, 72, 64
7, 9720, Note_on_c, 3, 65, 74
7, 9720, Note_on_c, 3, 69, 72
7, 9720, Note_on_c, 3, 72, 57
7, 9780, Note_on_c, 3, 60, 46
7, 9795, Note_off_c, 3, 72, 64
7, 9805, Note_off_c, 3, 69, 64
7, 9810, Note_off_c, 3, 65, 64
7, 9825, Note_off_c, 3, 60, 64
7, 9840, Note_on_c, 3, 62, 77
7, 9840, Note_on_c, 3, 67, 74
7, 9840, Note_on_c, 3, 71, 77
7, 9885, Note_off_c, 3, 62, 64
7, 9900, Note_on_c, 3, 62, 53
7, 9920, Note_off_c, 3, 71, 64
7, 9925, Note_off_c, 3, 67, 64
7, 9960, Note_on_c, 3, 67, 55
7, 9960, Note_on_c, 3, 71, 68
7, 9990, Note_off_c, 3, 62, 64
7, 10020, Note_on_c, 3, 62, 54
7, 10030, Note_off_c, 3, 71, 64
7, 10035, Note_off_c, 3, 67, 64
7, 10050, Note_off_c, 3, 62, 64
7, 10080, Note_on_c, 3, 64, 76
7, 10080, Note_on_c, 3, 67, 69
7, 10080, Note_on_c, 3, 72, 77
7, 10180, Note_off_c, 3, 72, 64
7, 10185, Note_off_c, 3, 67, 64
7, 10185, Note_off_c, 3, 64, 64
7, 10200, Note_on_c, 3, 64, 67
7, 10200, Note_on_c, 3, 67, 82
7, 10200, Note_on_c, 3, 72, 77
7, 10235, Note_off_c, 3, 64, 64
7, 10260, Note_on_c, 3, 64, 42
7, 10305, Note_off_c, 3, 67, 64
7, 10320, Note_on_c, 3, 69, 44
7, 10360, Note_off_c, 3, 64, 64
7, 10380, Note_on_c, 3, 64, 43
7, 10390, Note_off_c, 3, 72, 64
7, 10395, Note_off_c, 3, 69, 64
7, 10420, Note_off_c, 3, 64, 64
7, 10440, Note_on_c, 3, 72, 78
7, 10440, Note_on_c, 3, 64, 68
7, 10440, Note_on_c, 3, 69, 92
7, 10480, Note_off_c, 3, 64, 64
7, 10500, Note_on_c, 3, 64, 51
7, 10510, Note_off_c, 3, 69, 64
7, 10530, Note_off_c, 3, 64, 64
7, 10560, Note_on_c, 3, 62, 60
7, 10560, Note_on_c, 3, 66, 46
7, 10560, Note_on_c, 3, 69, 15
7, 10600, Note_off_c, 3, 62, 64
7, 10610, Note_off_c, 3, 69, 64
7, 10620, Note_on_c, 3, 62, 48
7, 10625, Note_off_c, 3, 66, 64
7, 10660, Note_off_c, 3, 72, 64
7, 10680, Note_on_c, 3, 66, 100
7, 10680, Note_on_c, 3, 69, 80
7, 10680, Note_on_c, 3, 72, 62
7, 10705, Note_off_c, 3, 62, 64
7, 10740, Note_on_c, 3, 62, 54
7, 10750, Note_off_c, 3, 72, 64
7, 10775, Note_off_c, 3, 66, 64
7, 10780, Note_off_c, 3, 69, 64
7, 10800, Note_on_c, 3, 67, 65
7, 10800, Note_on_c, 3, 71, 70
7, 10820, Note_off_c, 3, 62, 64
7, 10860, Note_on_c, 3, 62, 48
7, 10870, Note_off_c, 3, 67, 64
7, 10885, Note_off_c, 3, 71, 64
7, 10920, Note_on_c, 3, 67, 77
7, 10920, Note_on_c, 3, 71, 78
7, 10945, Note_off_c, 3, 62, 64
7, 10980, Note_on_c, 3, 62, 56
7, 10990, Note_off_c, 3, 71, 64
7, 11005, Note_off_c, 3, 62, 64
7, 11005, Note_off_c, 3, 67, 64
7, 11040, Note_on_c, 3, 67, 84
7, 11040, Note_on_c, 3, 72, 97
7, 11095, Note_off_c, 3, 67, 64
7, 11100, Note_on_c, 3, 64, 106
7, 11110, Note_off_c, 3, 72, 64
7, 11160, Note_on_c, 3, 67, 59
7, 11160, Note_on_c, 3, 72, 73
7, 11175, Note_off_c, 3, 72, 64
7, 11200, Note_off_c, 3, 67, 64
7, 11220, Note_on_c, 3, 67, 56
7, 11220, Note_on_c, 3, 68, 76
7, 11220, Note_on_c, 3, 71, 80
7, 11221, Note_off_c, 3, 68, 64
7, 11245, Note_off_c, 3, 67, 64
7, 11255, Note_off_c, 3, 71, 64
7, 11280, Note_on_c, 3, 69, 68
7, 11280, Note_on_c, 3, 72, 85
7, 11305, Note_off_c, 3, 64, 64
7, 11340, Note_on_c, 3, 64, 90
7, 11345, Note_off_c, 3, 72, 64
7, 11345, Note_off_c, 3, 69, 64
7, 11400, Note_on_c, 3, 67, 82
7, 11400, Note_on_c, 3, 72, 74
7, 11430, Note_off_c, 3, 64, 64
7, 11460, Note_on_c, 3, 64, 92
7, 11500, Note_off_c, 3, 72, 64
7, 11505, Note_off_c, 3, 67, 64
7, 11510, Note_off_c, 3, 64, 64
7, 11520, Note_on_c, 3, 69, 66
7, 11520, Note_on_c, 3, 72, 82
7, 11580, Note_on_c, 3, 65, 94
7, 11585, Note_off_c, 3, 69, 64
7, 11600, Note_off_c, 3, 72, 64
7, 11625, Note_off_c, 3, 65, 64
7, 11640, Note_on_c, 3, 62, 57
7, 11640, Note_on_c, 3, 64, 50
7, 11640, Note_on_c, 3, 67, 78
7, 11640, Note_on_c, 3, 71, 59
7, 11645, Note_off_c, 3, 64, 64
7, 11655, Note_off_c, 3, 62, 64
7, 11700, Note_on_c, 3, 62, 78
7, 11735, Note_off_c, 3, 71, 64
7, 11740, Note_off_c, 3, 62, 64
7, 11755, Note_off_c, 3, 67, 64
7, 11760, Note_on_c, 3, 72, 94
7, 11790, Note_on_c, 3, 64, 85
7, 11795, Note_off_c, 3, 72, 64
7, 11820, Note_on_c, 3, 67, 56
7, 11835, Note_off_c, 3, 64, 64
7, 11850, Note_on_c, 3, 72, 74
7, 11905, Note_off_c, 3, 67, 64
7, 11910, Note_on_c, 3, 64, 87
7, 11935, Note_off_c, 3, 72, 64
7, 11940, Note_on_c, 3, 67, 59
7, 11970, Note_off_c, 3, 64, 64
7, 11970, Note_on_c, 3, 72, 65
7, 11980, Note_off_c, 3, 67, 64
7, 12000, Note_on_c, 3, 69, 85
7, 12060, Note_on_c, 3, 64, 84
7, 12090, Note_off_c, 3, 72, 64
7, 12095, Note_off_c, 3, 69, 64
7, 12120, Note_on_c, 3, 69, 78
7, 12120, Note_on_c, 3, 72, 85
7, 12145, Note_off_c, 3, 64, 64
7, 12180, Note_on_c, 3, 64, 54
7, 12200, Note_off_c, 3, 69, 64
7, 12215, Note_off_c, 3, 72, 64
7, 12240, Note_on_c, 3, 67, 68
7, 12240, Note_on_c, 3, 71, 68
7, 12270, Note_off_c, 3, 64, 64
7, 12300, Note_on_c, 3, 64, 56
7, 12315, Note_off_c, 3, 71, 64
7, 12315, Note_off_c, 3, 67, 64
7, 12345, Note_off_c, 3, 64, 64
7, 12360, Note_on_c, 3, 62, 67
7, 12360, Note_on_c, 3, 65, 66
7, 12360, Note_on_c, 3, 67, 67
7, 12360, Note_on_c, 3, 69, 44
7, 12395, Note_off_c, 3, 67, 64
7, 12395, Note_off_c, 3, 65, 64
7, 12405, Note_off_c, 3, 62, 64
7, 12420, Note_on_c, 3, 62, 56
7, 12420, Note_on_c, 3, 65, 52
7, 12445, Note_off_c, 3, 65, 64
7, 12455, Note_off_c, 3, 62, 64
7, 12465, Note_off_c, 3, 69, 64
7, 12480, Note_on_c, 3, 67, 82
7, 12480, Note_on_c, 3, 72, 103
7, 12590, Note_off_c, 3, 67, 64
7, 12600, Note_on_c, 3, 65, 100
7, 12600, Note_on_c, 3, 69, 90
7, 12705, Note_off_c, 3, 65, 64
7, 12710, Note_off_c, 3, 69, 64
7, 12720, Note_on_c, 3, 64, 77
7, 12720, Note_on_c, 3, 67, 72
7, 12820, Note_off_c, 3, 64, 64
7, 12825, Note_off_c, 3, 67, 64
7, 12840, Note_on_c, 3, 62, 87
7, 12840, Note_on_c, 3, 65, 70
7, 12910, Note_off_c, 3, 65, 64
7, 12920, Note_off_c, 3, 62, 64
7, 12930, Note_off_c, 3, 72, 64
7, 12960, Note_on_c, 3, 67, 60
7, 12960, Note_on_c, 3, 72, 67
7, 12960, Note_on_c, 3, 76, 70
7, 13060, Note_off_c, 3, 76, 64
7, 13060, Note_off_c, 3, 67, 64
7, 13065, Note_off_c, 3, 72, 64
7, 13080, Note_on_c, 3, 67, 62
7, 13080, Note_on_c, 3, 71, 87
7, 13080, Note_on_c, 3, 74, 73
7, 13175, Note_off_c, 3, 67, 64
7, 13180, Note_off_c, 3, 74, 64
7, 13180, Note_off_c, 3, 71, 64
7, 13200, Note_on_c, 3, 67, 62
7, 13200, Note_on_c, 3, 71, 78
7, 13200, Note_on_c, 3, 76, 90
7, 13305, Note_off_c, 3, 76, 64
7, 13305, Note_off_c, 3, 67, 64
7, 13310, Note_off_c, 3, 71, 64
7, 13320, Note_on_c, 3, 67, 58
7, 13320, Note_on_c, 3, 71, 70
7, 13320, Note_on_c, 3, 76, 70
7, 13410, Note_off_c, 3, 76, 64
7, 13420, Note_off_c, 3, 71, 64
7, 13425, Note_off_c, 3, 67, 64
7, 13440, Note_on_c, 3, 65, 85
7, 13440, Note_on_c, 3, 69, 94
7, 13440, Note_on_c, 3, 72, 74
7, 13490, Note_off_c, 3, 69, 64
7, 13530, Note_on_c, 3, 69, 12
7, 13550, Note_off_c, 3, 65, 64
7, 13555, Note_off_c, 3, 69, 64
7, 13555, Note_off_c, 3, 72, 64
7, 13560, Note_on_c, 3, 65, 74
7, 13560, Note_on_c, 3, 69, 72
7, 13560, Note_on_c, 3, 72, 57
7, 13620, Note_on_c, 3, 60, 46
7, 13635, Note_off_c, 3, 72, 64
7, 13645, Note_off_c, 3, 69, 64
7, 13650, Note_off_c, 3, 65, 64
7, 13665, Note_off_c, 3, 60, 64
7, 13680, Note_on_c, 3, 62, 77
7, 13680, Note_on_c, 3, 67, 74
7, 13680, Note_on_c, 3, 71, 77
7, 13725, Note_off_c, 3, 62, 64
7, 13740, Note_on_c, 3, 62, 53
7, 13760, Note_off_c, 3, 71, 64
7, 13765, Note_off_c, 3, 67, 64
7, 13800, Note_on_c, 3, 67, 55
7, 13800, Note_on_c, 3, 71, 68
7, 13830, Note_off_c, 3, 62, 64
7, 13860, Note_on_c, 3, 62, 54
7, 13870, Note_off_c, 3, 71, 64
7, 13875, Note_off_c, 3, 67, 64
7, 13890, Note_off_c, 3, 62, 64
7, 13920, Note_on_c, 3, 64, 76
7, 13920, Note_on_c, 3, 67, 69
7, 13920, Note_on_c, 3, 72, 77
7, 14020, Note_off_c, 3, 72, 64
7, 14025, Note_off_c, 3, 67, 64
7, 14025, Note_off_c, 3, 64, 64
7, 14040, Note_on_c, 3, 64, 67
7, 14040, Note_on_c, 3, 67, 82
7, 14040, Note_on_c, 3, 72, 77
7, 14075, Note_off_c, 3, 64, 64
7, 14100, Note_on_c, 3, 64, 42
7, 14145, Note_off_c, 3, 67, 64
7, 14160, Note_on_c, 3, 69, 44
7, 14200, Note_off_c, 3, 64, 64
7, 14220, Note_on_c, 3, 64, 43
7, 14230, Note_off_c, 3, 72, 64
7, 14235, Note_off_c, 3, 69, 64
7, 14260, Note_off_c, 3, 64, 64
7, 14280, Note_on_c, 3, 72, 78
7, 14280, Note_on_c, 3, 64, 68
7, 14280, Note_on_c, 3, 69, 92
7, 14320, Note_off_c, 3, 64, 64
7, 14340, Note_on_c, 3, 64, 51
7, 14350, Note_off_c, 3, 69, 64
7, 14370, Note_off_c, 3, 64, 64
7, 14400, Note_on_c, 3, 62, 60
7, 14400, Note_on_c, 3, 66, 46
7, 14400, Note_on_c, 3, 69, 15
7, 14440, Note_off_c, 3, 62, 64
7, 14450, Note_off_c, 3, 69, 64
7, 14460, Note_on_c, 3, 62, 48
7, 14465, Note_off_c, 3, 66, 64
7, 14500, Note_off_c, 3, 72, 64
7, 14520, Note_on_c, 3, 66, 100
7, 14520, Note_on_c, 3, 69, 80
7, 14520, Note_on_c, 3, 72, 62
7, 14545, Note_off_c, 3, 62, 64
7, 14580, Note_on_c, 3, 62, 54
7, 14590, Note_off_c, 3, 72, 64
7, 14615, Note_off_c, 3, 66, 64
7, 14620, Note_off_c, 3, 69, 64
7, 14640, Note_on_c, 3, 67, 65
7, 14640, Note_on_c, 3, 71, 70
7, 14660, Note_off_c, 3, 62, 64
7, 14700, Note_on_c, 3, 62, 48
7, 14710, Note_off_c, 3, 67, 64
7, 14725, Note_off_c, 3, 71, 64
7, 14760, Note_on_c, 3, 67, 77
7, 14760, Note_on_c, 3, 71, 78
7, 14785, Note_off_c, 3, 62, 64
7, 14820, Note_on_c, 3, 62, 56
7, 14830, Note_off_c, 3, 71, 64
7, 14845, Note_off_c, 3, 62, 64
7, 14845, Note_off_c, 3, 67, 64
7, 14880, Note_on_c, 3, 67, 84
7, 14880, Note_on_c, 3, 72, 97
7, 14935, Note_off_c, 3, 67, 64
7, 14940, Note_on_c, 3, 64, 106
7, 14950, Note_off_c, 3, 72, 64
7, 15000, Note_on_c, 3, 67, 59
7, 15000, Note_on_c, 3, 72, 73
7, 15015, Note_off_c, 3, 72, 64
7, 15040, Note_off_c, 3, 67, 64
7, 15060, Note_on_c, 3, 67, 56
7, 15060, Note_on_c, 3, 68, 76
7, 15060, Note_on_c, 3, 71, 80
7, 15061, Note_off_c, 3, 68, 64
7, 15085, Note_off_c, 3, 67, 64
7, 15095, Note_off_c, 3, 71, 64
7, 15120, Note_on_c, 3, 69, 68
7, 15120, Note_on_c, 3, 72, 85
7, 15145, Note_off_c, 3, 64, 64
7, 15180, Note_on_c, 3, 64, 90
7, 15185, Note_off_c, 3, 72, 64
7, 15185, Note_off_c, 3, 69, 64
7, 15240, Note_on_c, 3, 67, 82
7, 15240, Note_on_c, 3, 72, 74
7, 15270, Note_off_c, 3, 64, 64
7, 15300, Note_on_c, 3, 64, 92
7, 15340, Note_off_c, 3, 72, 64
7, 15345, Note_off_c, 3, 67, 64
7, 15350, Note_off_c, 3, 64, 64
7, 15360, Note_on_c, 3, 69, 66
7, 15360, Note_on_c, 3, 72, 82
7, 15420, Note_on_c, 3, 65, 94
7, 15425, Note_off_c, 3, 69, 64
7, 15440, Note_off_c, 3, 72, 64
7, 15465, Note_off_c, 3, 65, 64
7, 15480, Note_on_c, 3, 62, 57
7, 15480, Note_on_c, 3, 64, 50
7, 15480, Note_on_c, 3, 67, 78
7, 15480, Note_on_c, 3, 71, 59
7, 15485, Note_off_c, 3, 64, 64
7, 15495, Note_off_c, 3, 62, 64
7, 15540, Note_on_c, 3, 62, 78
7, 15575, Note_off_c, 3, 71, 64
7, 15580, Note_off_c, 3, 62, 64
7, 15595, Note_off_c, 3, 67, 64
7, 15600, Note_on_c, 3, 72, 94
7, 15630, Note_on_c, 3, 64, 85
7, 15635, Note_off_c, 3, 72, 64
7, 15660, Note_on_c, 3, 67, 56
7, 15675, Note_off_c, 3, 64, 64
7, 15690, Note_on_c, 3, 72, 74
7, 15745, Note_off_c, 3, 67, 64
7, 15750, Note_on_c, 3, 64, 87
7, 15775, Note_off_c, 3, 72, 64
7, 15780, Note_on_c, 3, 67, 59
7, 15810, Note_off_c, 3, 64, 64
7, 15810, Note_on_c, 3, 72, 65
7, 15820, Note_off_c, 3, 67, 64
7, 15840, Note_on_c, 3, 69, 85
7, 15900, Note_on_c, 3, 64, 84
7, 15930, Note_off_c, 3, 72, 64
7, 15935, Note_off_c, 3, 69, 64
7, 15960, Note_on_c, 3, 69, 78
7, 15960, Note_on_c, 3, 72, 85
7, 15985, Note_off_c, 3, 64, 64
7, 16020, Note_on_c, 3, 64, 54
7, 16040, Note_off_c, 3, 69, 64
7, 16055, Note_off_c, 3, 72, 64
7, 16080, Note_on_c, 3, 67, 68
7, 16080, Note_on_c, 3, 71, 68
7, 16110, Note_off_c, 3, 64, 64
7, 16140, Note_on_c, 3, 64, 56
7, 16155, Note_off_c, 3, 71, 64
7, 16155, Note_off_c, 3, 67, 64
7, 16185, Note_off_c, 3, 64, 64
7, 16200, Note_on_c, 3, 62, 67
7, 16200, Note_on_c, 3, 65, 66
7, 16200, Note_on_c, 3, 67, 67
7, 16200, Note_on_c, 3, 69, 44
7, 16235, Note_off_c, 3, 67, 64
7, 16235, Note_off_c, 3, 65, 64
7, 16245, Note_off_c, 3, 62, 64
7, 16260, Note_on_c, 3, 62, 56
7, 16260, Note_on_c, 3, 65, 52
7, 16285, Note_off_c, 3, 65, 64
7, 16295, Note_off_c, 3, 62, 64
7, 16305, Note_off_c, 3, 69, 64
7, 16320, Note_on_c, 3, 67, 82
7, 16320, Note_on_c, 3, 72, 103
7, 16430, Note_off_c, 3, 67, 64
7, 16440, Note_on_c, 3, 65, 100
7, 16440, Note_on_c, 3, 69, 90
7, 16545, Note_off_c, 3, 65, 64
7, 16550, Note_off_c, 3, 69, 64
7, 16560, Note_on_c, 3, 64, 77
7, 16560, Note_on_c, 3, 67, 72
7, 16660, Note_off_c, 3, 64, 64
7, 16665, Note_off_c, 3, 67, 64
7, 16680, Note_on_c, 3, 62, 87
7, 16680, Note_on_c, 3, 65, 70
7, 16750, Note_off_c, 3, 65, 64
7, 16760, Note_off_c, 3, 62, 64
7, 16770, Note_off_c, 3, 72, 64
7, 16800, Note_on_c, 3, 67, 60
7, 16800, Note_on_c, 3, 72, 67
7, 16800, Note_on_c, 3, 76, 70
7, 16900, Note_off_c, 3, 76, 64
7, 16900, Note_off_c, 3, 67, 64
7, 16905, Note_off_c, 3, 72, 64
7, 16920, Note_on_c, 3, 67, 62
7, 16920, Note_on_c, 3, 71, 87
7, 16920, Note_on_c, 3, 74, 73
7, 17015, Note_off_c, 3, 67, 64
7, 17020, Note_off_c, 3, 74, 64
7, 17020, Note_off_c, 3, 71, 64
7, 17040, Note_on_c, 3, 67, 62
7, 17040, Note_on_c, 3, 71, 78
7, 17040, Note_on_c, 3, 76, 90
7, 17145, Note_off_c, 3, 76, 64
7, 17145, Note_off_c, 3, 67, 64
7, 17150, Note_off_c, 3, 71, 64
7, 17160, Note_on_c, 3, 67, 58
7, 17160, Note_on_c, 3, 71, 70
7, 17160, Note_on_c, 3, 76, 70
7, 17250, Note_off_c, 3, 76, 64
7, 17260, Note_off_c, 3, 71, 64
7, 17265, Note_off_c, 3, 67, 64
7, 17280, Note_on_c, 3, 65, 85
7, 17280, Note_on_c, 3, 69, 94
7, 17280, Note_on_c, 3, 72, 74
7, 17330, Note_off_c, 3, 69, 64
7, 17370, Note_on_c, 3, 69, 12
7, 17390, Note_off_c, 3, 65, 64
7, 17395, Note_off_c, 3, 69, 64
7, 17395, Note_off_c, 3, 72, 64
7, 17400, Note_on_c, 3, 65, 74
7, 17400, Note_on_c, 3, 69, 72
7, 17400, Note_on_c, 3, 72, 57
7, 17460, Note_on_c, 3, 60, 46
7, 17475, Note_off_c, 3, 72, 64
7, 17485, Note_off_c, 3, 69, 64
7, 17490, Note_off_c, 3, 65, 64
7, 17505, Note_off_c, 3, 60, 64
7, 17520, Note_on_c, 3, 62, 77
7, 17520, Note_on_c, 3, 67, 74
7, 17520, Note_on_c, 3, 71, 77
7, 17565, Note_off_c, 3, 62, 64
7, 17580, Note_on_c, 3, 62, 53
7, 17600, Note_off_c, 3, 71, 64
7, 17605, Note_off_c, 3, 67, 64
7, 17640, Note_on_c, 3, 67, 55
7, 17640, Note_on_c, 3, 71, 68
7, 17670, Note_off_c, 3, 62, 64
7, 17700, Note_on_c, 3, 62, 54
7, 17710, Note_off_c, 3, 71, 64
7, 17715, Note_off_c, 3, 67, 64
7, 17730, Note_off_c, 3, 62, 64
7, 17760, Note_on_c, 3, 64, 76
7, 17760, Note_on_c, 3, 67, 69
7, 17760, Note_on_c, 3, 72, 77
7, 17860, Note_off_c, 3, 72, 64
7, 17865, Note_off_c, 3, 67, 64
7, 17865, Note_off_c, 3, 64, 64
7, 17880, Note_on_c, 3, 64, 67
7, 17880, Note_on_c, 3, 67, 82
7, 17880, Note_on_c, 3, 72, 77
7, 17915, Note_off_c, 3, 64, 64
7, 17940, Note_on_c, 3, 64, 42
7, 17985, Note_off_c, 3, 67, 64
7, 18000, Note_on_c, 3, 69, 44
7, 18040, Note_off_c, 3, 64, 64
7, 18060, Note_on_c, 3, 64, 43
7, 18070, Note_off_c, 3, 72, 64
7, 18075, Note_off_c, 3, 69, 64
7, 18100, Note_off_c, 3, 64, 64
7, 18120, Note_on_c, 3, 72, 78
7, 18120, Note_on_c, 3, 64, 68
7, 18120, Note_on_c, 3, 69, 92
7, 18160, Note_off_c, 3, 64, 64
7, 18180, Note_on_c, 3, 64, 51
7, 18190, Note_off_c, 3, 69, 64
7, 18210, Note_off_c, 3, 64, 64
7, 18240, Note_on_c, 3, 62, 60
7, 18240, Note_on_c, 3, 66, 46
7, 18240, Note_on_c, 3, 69, 15
7, 18280, Note_off_c, 3, 62, 64
7, 18290, Note_off_c, 3, 69, 64
7, 18300, Note_on_c, 3, 62, 48
7, 18305, Note_off_c, 3, 66, 64
7, 18340, Note_off_c, 3, 72, 64
7, 18360, Note_on_c, 3, 66, 100
7, 18360, Note_on_c, 3, 69, 80
7, 18360, Note_on_c, 3, 72, 62
7, 18385, Note_off_c, 3, 62, 64
7, 18420, Note_on_c, 3, 62, 54
7, 18430, Note_off_c, 3, 72, 64
7, 18455, Note_off_c, 3, 66, 64
7, 18460, Note_off_c, 3, 69, 64
7, 18480, Note_on_c, 3, 67, 65
7, 18480, Note_on_c, 3, 71, 70
7, 18500, Note_off_c, 3, 62, 64
7, 18540, Note_on_c, 3, 62, 48
7, 18550, Note_off_c, 3, 67, 64
7, 18565, Note_off_c, 3, 71, 64
7, 18600, Note_on_c, 3, 67, 77
7, 18600, Note_on_c, 3, 71, 78
7, 18625, Note_off_c, 3, 62, 64
7, 18660, Note_on_c, 3, 62, 56
7, 18670, Note_off_c, 3, 71, 64
7, 18685, Note_off_c, 3, 62, 64
7, 18685, Note_off_c, 3, 67, 64
7, 18720, Note_on_c, 3, 67, 84
7, 18720, Note_on_c, 3, 72, 97
7, 18775, Note_off_c, 3, 67, 64
7, 18780, Note_on_c, 3, 64, 106
7, 18790, Note_off_c, 3, 72, 64
7, 18840, Note_on_c, 3, 67, 59
7, 18840, Note_on_c, 3, 72, 73
7, 18855, Note_off_c, 3, 72, 64
7, 18880, Note_off_c, 3, 67, 64
7, 18900, Note_on_c, 3, 67, 56
7, 18900, Note_on_c, 3, 68, 76
7, 18900, Note_on_c, 3, 71, 80
7, 18901, Note_off_c, 3, 68, 64
7, 18925, Note_off_c, 3, 67, 64
7, 18935, Note_off_c, 3, 71, 64
7, 18960, Note_on_c, 3, 69, 68
7, 18960, Note_on_c, 3, 72, 85
7, 18985, Note_off_c, 3, 64, 64
7, 19020, Note_on_c, 3, 64, 90
7, 19025, Note_off_c, 3, 72, 64
7, 19025, Note_off_c, 3, 69, 64
7, 19080, Note_on_c, 3, 67, 82
7, 19080, Note_on_c, 3, 72, 74
7, 19110, Note_off_c, 3, 64, 64
7, 19140, Note_on_c, 3, 64, 92
7, 19180, Note_off_c, 3, 72, 64
7, 19185, Note_off_c, 3, 67, 64
7, 19190, Note_off_c, 3, 64, 64
7, 19200, Note_on_c, 3, 69, 66
7, 19200, Note_on_c, 3, 72, 82
7, 19260, Note_on_c, 3, 65, 94
7, 19265, Note_off_c, 3, 69, 64
7, 19280, Note_off_c, 3, 72, 64
7, 19305, Note_off_c, 3, 65, 64
7, 19320, Note_on_c, 3, 62, 57
7, 19320, Note_on_c, 3, 64, 50
7, 19320, Note_on_c, 3, 67, 78
7, 19320, Note_on_c, 3, 71, 59
7, 19325, Note_off_c, 3, 64, 64
7, 19335, Note_off_c, 3, 62, 64
7, 19380, Note_on_c, 3, 62, 78
7, 19415, Note_off_c, 3, 71, 64
7, 19420, Note_off_c, 3, 62, 64
7, 19435, Note_off_c, 3, 67, 64
7, 19440, Note_on_c, 3, 72, 94
7, 19470, Note_on_c, 3, 64, 85
7, 19475, Note_off_c, 3, 72, 64
7, 19500, Note_on_c, 3, 67, 56
7, 19515, Note_off_c, 3, 64, 64
7, 19530, Note_on_c, 3, 72, 74
7, 19585, Note_off_c, 3, 67, 64
7, 19590, Note_on_c, 3, 64, 87
7, 19615, Note_off_c, 3, 72, 64
7, 19620, Note_on_c, 3, 67, 59
7, 19650, Note_off_c, 3, 64, 64
7, 19650, Note_on_c, 3, 72, 65
7, 19660, Note_off_c, 3, 67, 64
7, 19680, Note_on_c, 3, 69, 85
7, 19740, Note_on_c, 3, 64, 84
7, 19770, Note_off_c, 3, 72, 64
7, 19775, Note_off_c, 3, 69, 64
7, 19800, Note_on_c, 3, 69, 78
7, 19800, Note_on_c, 3, 72, 85
7, 19825, Note_off_c, 3, 64, 64
7, 19860, Note_on_c, 3, 64, 54
7, 19880, Note_off_c, 3, 69, 64
7, 19895, Note_off_c, 3, 72, 64
7, 19920, Note_on_c, 3, 67, 68
7, 19920, Note_on_c, 3, 71, 68
7, 19950, Note_off_c, 3, 64, 64
7, 19980, Note_on_c, 3, 64, 56
7, 19995, Note_off_c, 3, 71, 64
7, 19995, Note_off_c, 3, 67, 64
7, 20025, Note_off_c, 3, 64, 64
7, 20040, Note_on_c, 3, 62, 67
7, 20040, Note_on_c, 3, 65, 66
7, 20040, Note_on_c, 3, 67, 67
7, 20040, Note_on_c, 3, 69, 44
7, 20075, Note_off_c, 3, 67, 64
7, 20075, Note_off_c, 3, 65, 64
7, 20085, Note_off_c, 3, 62, 64
7, 20100, Note_on_c, 3, 62, 56
7, 20100, Note_on_c, 3, 65, 52
7, 20125, Note_off_c, 3, 65, 64
7, 20135, Note_off_c, 3, 62, 64
7, 20145, Note_off_c, 3, 69, 64
7, 20160, Note_on_c, 3, 67, 82
7, 20160, Note_on_c, 3, 72, 103
7, 20270, Note_off_c, 3, 67, 64
7, 20280, Note_on_c, 3, 65, 100
7, 20280, Note_on_c, 3, 69, 90
7, 20385, Note_off_c, 3, 65, 64
7, 20390, Note_off_c, 3, 69, 64
7, 20400, Note_on_c, 3, 64, 77
7, 20400, Note_on_c, 3, 67, 72
7, 20500, Note_off_c, 3, 64, 64
7, 20505, Note_off_c, 3, 67, 64
7, 20520, Note_on_c, 3, 62, 87
7, 20520, Note_on_c, 3, 65, 70
7, 20590, Note_off_c, 3, 65, 64
7, 20600, Note_off_c, 3, 62, 64
7, 20610, Note_off_c, 3, 72, 64
7, 20640, Note_on_c, 3, 64, 67
7, 20640, Note_on_c, 3, 67, 92
7, 20640, Note_on_c, 3, 72, 90
7, 20675, Note_off_c, 3, 64, 64
7, 20700, Note_on_c, 3, 64, 44
7, 20705, Note_off_c, 3, 72, 64
7, 20740, Note_off_c, 3, 64, 64
7, 20760, Note_on_c, 3, 62, 77
7, 20760, Note_on_c, 3, 71, 73
7, 20850, Note_off_c, 3, 62, 64
7, 20855, Note_off_c, 3, 71, 64
7, 20880, Note_on_c, 3, 64, 72
7, 20880, Note_on_c, 3, 71, 78
7, 20965, Note_off_c, 3, 71, 64
7, 20975, Note_off_c, 3, 67, 64
7, 21000, Note_on_c, 3, 71, 82
7, 21010, Note_off_c, 3, 64, 64
7, 21030, Note_on_c, 3, 67, 65
7, 21060, Note_on_c, 3, 64, 92
7, 21075, Note_off_c, 3, 67, 64
7, 21110, Note_off_c, 3, 71, 64
7, 21115, Note_off_c, 3, 64, 64
7, 21120, Note_on_c, 3, 65, 103
7, 21120, Note_on_c, 3, 69, 90
7, 21180, Note_on_c, 3, 60, 73
7, 21220, Note_off_c, 3, 69, 64
7, 21225, Note_off_c, 3, 60, 64
7, 21240, Note_on_c, 3, 60, 28
7, 21240, Note_on_c, 3, 69, 52
7, 21255, Note_off_c, 3, 60, 64
7, 21300, Note_on_c, 3, 60, 77
7, 21335, Note_off_c, 3, 69, 64
7, 21340, Note_off_c, 3, 60, 64
7, 21345, Note_off_c, 3, 65, 64
7, 21360, Note_on_c, 3, 67, 74
7, 21360, Note_on_c, 3, 71, 78
7, 21420, Note_on_c, 3, 62, 85
7, 21430, Note_off_c, 3, 67, 64
7, 21460, Note_off_c, 3, 71, 64
7, 21480, Note_on_c, 3, 69, 87
7, 21535, Note_off_c, 3, 62, 64
7, 21540, Note_off_c, 3, 69, 64
7, 21540, Note_on_c, 3, 71, 65
7, 21590, Note_off_c, 3, 71, 64
7, 21600, Note_on_c, 3, 64, 80
7, 21600, Note_on_c, 3, 67, 67
7, 21600, Note_on_c, 3, 72, 69
7, 21705, Note_off_c, 3, 72, 64
7, 21710, Note_off_c, 3, 64, 64
7, 21715, Note_off_c, 3, 67, 64
7, 21720, Note_on_c, 3, 64, 73
7, 21720, Note_on_c, 3, 67, 82
7, 21720, Note_on_c, 3, 72, 87
7, 21735, Note_off_c, 3, 64, 64
7, 21780, Note_on_c, 3, 64, 106
7, 21825, Note_off_c, 3, 67, 64
7, 21830, Note_off_c, 3, 64, 64
7, 21830, Note_off_c, 3, 72, 64
7, 21840, Note_on_c, 3, 64, 72
7, 21840, Note_on_c, 3, 69, 90
7, 21840, Note_on_c, 3, 72, 76
7, 21945, Note_off_c, 3, 72, 64
7, 21950, Note_off_c, 3, 69, 64
7, 21950, Note_off_c, 3, 64, 64
7, 21960, Note_on_c, 3, 72, 90
7, 21960, Note_on_c, 3, 64, 85
7, 21960, Note_on_c, 3, 69, 97
7, 22000, Note_off_c, 3, 64, 64
7, 22020, Note_on_c, 3, 64, 55
7, 22055, Note_off_c, 3, 64, 64
7, 22065, Note_off_c, 3, 69, 64
7, 22080, Note_on_c, 3, 62, 70
7, 22080, Note_on_c, 3, 66, 77
7, 22080, Note_on_c, 3, 69, 59
7, 22120, Note_off_c, 3, 62, 64
7, 22140, Note_on_c, 3, 62, 42
7, 22175, Note_off_c, 3, 69, 64
7, 22185, Note_off_c, 3, 66, 64
7, 22200, Note_on_c, 3, 66, 58
7, 22200, Note_on_c, 3, 69, 70
7, 22215, Note_off_c, 3, 62, 64
7, 22260, Note_on_c, 3, 62, 69
7, 22265, Note_off_c, 3, 72, 64
7, 22310, Note_off_c, 3, 69, 64
7, 22310, Note_off_c, 3, 66, 64
7, 22320, Note_on_c, 3, 67, 63
7, 22320, Note_on_c, 3, 71, 62
7, 22360, Note_off_c, 3, 62, 64
7, 22380, Note_on_c, 3, 62, 90
7, 22405, Note_off_c, 3, 67, 64
7, 22440, Note_off_c, 3, 71, 64
7, 22440, Note_on_c, 3, 67, 76
7, 22500, Note_on_c, 3, 71, 55
7, 22545, Note_off_c, 3, 71, 64
7, 22545, Note_off_c, 3, 62, 64
7, 22560, Note_on_c, 3, 72, 84
7, 22620, Note_on_c, 3, 64, 77
7, 22645, Note_off_c, 3, 67, 64
7, 22670, Note_off_c, 3, 72, 64
7, 22680, Note_on_c, 3, 68, 92
7, 22680, Note_on_c, 3, 71, 68
7, 22715, Note_off_c, 3, 64, 64
7, 22740, Note_on_c, 3, 64, 46
7, 22750, Note_off_c, 3, 71, 64
7, 22750, Note_off_c, 3, 68, 64
7, 22785, Note_off_c, 3, 64, 64
7, 22800, Note_on_c, 3, 64, 82
7, 22800, Note_on_c, 3, 69, 76
7, 22860, Note_on_c, 3, 60, 63
7, 22905, Note_off_c, 3, 69, 64
7, 22910, Note_off_c, 3, 64, 64
7, 22920, Note_on_c, 3, 64, 66
7, 22920, Note_on_c, 3, 67, 80
7, 22945, Note_off_c, 3, 60, 64
7, 22980, Note_on_c, 3, 60, 69
7, 22990, Note_off_c, 3, 64, 64
7, 23025, Note_off_c, 3, 67, 64
7, 23040, Note_on_c, 3, 65, 85
7, 23040, Note_on_c, 3, 69, 77
7, 23145, Note_off_c, 3, 60, 64
7, 23150, Note_off_c, 3, 69, 64
7, 23160, Note_off_c, 3, 65, 64
7, 23160, Note_on_c, 3, 62, 80
7, 23160, Note_on_c, 3, 65, 56
7, 23160, Note_on_c, 3, 67, 73
7, 23160, Note_on_c, 3, 71, 90
7, 23165, Note_off_c, 3, 65, 64
7, 23255, Note_off_c, 3, 71, 64
7, 23255, Note_off_c, 3, 62, 64
7, 23280, Note_on_c, 3, 64, 66
7, 23280, Note_on_c, 3, 72, 90
7, 23500, Note_off_c, 3, 72, 64
7, 23500, Note_off_c, 3, 67, 64
7, 23520, Note_on_c, 3, 69, 64
7, 23520, Note_on_c, 3, 72, 70
7, 23625, Note_off_c, 3, 64, 64
7, 23635, Note_off_c, 3, 72, 64
7, 23635, Note_off_c, 3, 69, 64
7, 23640, Note_on_c, 3, 64, 74
7, 23640, Note_on_c, 3, 69, 85
7, 23640, Note_on_c, 3, 72, 66
7, 23680, Note_off_c, 3, 64, 64
7, 23700, Note_on_c, 3, 64, 60
7, 23705, Note_off_c, 3, 72, 64
7, 23740, Note_off_c, 3, 69, 64
7, 23750, Note_off_c, 3, 64, 64
7, 23760, Note_on_c, 3, 64, 67
7, 23760, Note_on_c, 3, 67, 74
7, 23760, Note_on_c, 3, 71, 68
7, 23855, Note_off_c, 3, 64, 64
7, 23865, Note_off_c, 3, 67, 64
7, 23880, Note_on_c, 3, 62, 76
7, 23880, Note_on_c, 3, 65, 63
7, 23970, Note_off_c, 3, 65, 64
7, 23970, Note_off_c, 3, 62, 64
7, 23980, Note_off_c, 3, 71, 64
7, 24000, Note_on_c, 3, 64, 77
7, 24000, Note_on_c, 3, 67, 92
7, 24000, Note_on_c, 3, 72, 94
7, 24100, Note_off_c, 3, 64, 64
7, 24120, Note_off_c, 3, 67, 64
7, 24120, Note_on_c, 3, 65, 76
7, 24120, Note_on_c, 3, 69, 76
7, 24215, Note_off_c, 3, 65, 64
7, 24225, Note_off_c, 3, 69, 64
7, 24240, Note_on_c, 3, 64, 85
7, 24240, Note_on_c, 3, 67, 77
7, 24345, Note_off_c, 3, 67, 64
7, 24345, Note_off_c, 3, 64, 64
7, 24360, Note_on_c, 3, 62, 85
7, 24360, Note_on_c, 3, 65, 82
7, 24465, Note_off_c, 3, 65, 64
7, 24465, Note_off_c, 3, 62, 64
7, 24475, Note_off_c, 3, 72, 64
7, 24480, Note_on_c, 3, 67, 60
7, 24480, Note_on_c, 3, 72, 67
7, 24480, Note_on_c, 3, 76, 70
7, 24580, Note_off_c, 3, 76, 64
7, 24580, Note_off_c, 3, 67, 64
7, 24585, Note_off_c, 3, 72, 64
7, 24600, Note_on_c, 3, 67, 62
7, 24600, Note_on_c, 3, 71, 87
7, 24600, Note_on_c, 3, 74, 73
7, 24695, Note_off_c, 3, 67, 64
7, 24700, Note_off_c, 3, 74, 64
7, 24700, Note_off_c, 3, 71, 64
7, 24720, Note_on_c, 3, 67, 62
7, 24720, Note_on_c, 3, 71, 78
7, 24720, Note_on_c, 3, 76, 90
7, 24825, Note_off_c, 3, 76, 64
7, 24825, Note_off_c, 3, 67, 64
7, 24830, Note_off_c, 3, 71, 64
7, 24840, Note_on_c, 3, 67, 58
7, 24840, Note_on_c, 3, 71, 70
7, 24840, Note_on_c, 3, 76, 70
7, 24930, Note_off_c, 3, 76, 64
7, 24940, Note_off_c, 3, 71, 64
7, 24945, Note_off_c, 3, 67, 64
7, 24960, Note_on_c, 3, 65, 85
7, 24960, Note_on_c, 3, 69, 94
7, 24960, Note_on_c, 3, 72, 74
7, 25010, Note_off_c, 3, 69, 64
7, 25050, Note_on_c, 3, 69, 12
7, 25070, Note_off_c, 3, 65, 64
7, 25075, Note_off_c, 3, 69, 64
7, 25075, Note_off_c, 3, 72, 64
7, 25080, Note_on_c, 3, 65, 74
7, 25080, Note_on_c, 3, 69, 72
7, 25080, Note_on_c, 3, 72, 57
7, 25140, Note_on_c, 3, 60, 46
7, 25155, Note_off_c, 3, 72, 64
7, 25165, Note_off_c, 3, 69, 64
7, 25170, Note_off_c, 3, 65, 64
7, 25185, Note_off_c, 3, 60, 64
7, 25200, Note_on_c, 3, 62, 77
7, 25200, Note_on_c, 3, 67, 74
7, 25200, Note_on_c, 3, 71, 77
7, 25245, Note_off_c, 3, 62, 64
7, 25260, Note_on_c, 3, 62, 53
7, 25280, Note_off_c, 3, 71, 64
7, 25285, Note_off_c, 3, 67, 64
7, 25320, Note_on_c, 3, 67, 55
7, 25320, Note_on_c, 3, 71, 68
7, 25350, Note_off_c, 3, 62, 64
7, 25380, Note_on_c, 3, 62, 54
7, 25390, Note_off_c, 3, 71, 64
7, 25395, Note_off_c, 3, 67, 64
7, 25410, Note_off_c, 3, 62, 64
7, 25440, Note_on_c, 3, 64, 76
7, 25440, Note_on_c, 3, 67, 69
7, 25440, Note_on_c, 3, 72, 77
7, 25540, Note_off_c, 3, 72, 64
7, 25545, Note_off_c, 3, 67, 64
7, 25545, Note_off_c, 3, 64, 64
7, 25560, Note_on_c, 3, 64, 67
7, 25560, Note_on_c, 3, 67, 82
7, 25560, Note_on_c, 3, 72, 77
7, 25595, Note_off_c, 3, 64, 64
7, 25620, Note_on_c, 3, 64, 42
7, 25665, Note_off_c, 3, 67, 64
7, 25680, Note_on_c, 3, 69, 44
7, 25720, Note_off_c, 3, 64, 64
7, 25740, Note_on_c, 3, 64, 43
7, 25750, Note_off_c, 3, 72, 64
7, 25755, Note_off_c, 3, 69, 64
7, 25780, Note_off_c, 3, 64, 64
7, 25800, Note_on_c, 3, 72, 78
7, 25800, Note_on_c, 3, 64, 68
7, 25800, Note_on_c, 3, 69, 92
7, 25840, Note_off_c, 3, 64, 64
7, 25860, Note_on_c, 3, 64, 51
7, 25870, Note_off_c, 3, 69, 64
7, 25890, Note_off_c, 3, 64, 64
7, 25920, Note_on_c, 3, 62, 60
7, 25920, Note_on_c, 3, 66, 46
7, 25920, Note_on_c, 3, 69, 15
7, 25960, Note_off_c, 3, 62, 64
7, 25970, Note_off_c, 3, 69, 64
7, 25980, Note_on_c, 3, 62, 48
7, 25985, Note_off_c, 3, 66, 64
7, 26020, Note_off_c, 3, 72, 64
7, 26040, Note_on_c, 3, 66, 100
7, 26040, Note_on_c, 3, 69, 80
7, 26040, Note_on_c, 3, 72, 62
7, 26065, Note_off_c, 3, 62, 64
7, 26100, Note_on_c, 3, 62, 54
7, 26110, Note_off_c, 3, 72, 64
7, 26135, Note_off_c, 3, 66, 64
7, 26140, Note_off_c, 3, 69, 64
7, 26160, Note_on_c, 3, 67, 65
7, 26160, Note_on_c, 3, 71, 70
7, 26180, Note_off_c, 3, 62, 64
7, 26220, Note_on_c, 3, 62, 48
7, 26230, Note_off_c, 3, 67, 64
7, 26245, Note_off_c, 3, 71, 64
7, 26280, Note_on_c, 3, 67, 77
7, 26280, Note_on_c, 3, 71, 78
7, 26305, Note_off_c, 3, 62, 64
7, 26340, Note_on_c, 3, 62, 56
7, 26350, Note_off_c, 3, 71, 64
7, 26365, Note_off_c, 3, 62, 64
7, 26365, Note_off_c, 3, 67, 64
7, 26400, Note_on_c, 3, 67, 84
7, 26400, Note_on_c, 3, 72, 97
7, 26455, Note_off_c, 3, 67, 64
7, 26460, Note_on_c, 3, 64, 106
7, 26470, Note_off_c, 3, 72, 64
7, 26520, Note_on_c, 3, 67, 59
7, 26520, Note_on_c, 3, 72, 73
7, 26535, Note_off_c, 3, 72, 64
7, 26560, Note_off_c, 3, 67, 64
7, 26580, Note_on_c, 3, 67, 56
7, 26580, Note_on_c, 3, 68, 76
7, 26580, Note_on_c, 3, 71, 80
7, 26581, Note_off_c, 3, 68, 64
7, 26605, Note_off_c, 3, 67, 64
7, 26615, Note_off_c, 3, 71, 64
7, 26640, Note_on_c, 3, 69, 68
7, 26640, Note_on_c, 3, 72, 85
7, 26665, Note_off_c, 3, 64, 64
7, 26700, Note_on_c, 3, 64, 90
7, 26705, Note_off_c, 3, 72, 64
7, 26705, Note_off_c, 3, 69, 64
7, 26760, Note_on_c, 3, 67, 82
7, 26760, Note_on_c, 3, 72, 74
7, 26790, Note_off_c, 3, 64, 64
7, 26820, Note_on_c, 3, 64, 92
7, 26860, Note_off_c, 3, 72, 64
7, 26865, Note_off_c, 3, 67, 64
7, 26870, Note_off_c, 3, 64, 64
7, 26880, Note_on_c, 3, 69, 66
7, 26880, Note_on_c, 3, 72, 82
7, 26940, Note_on_c, 3, 65, 94
7, 26945, Note_off_c, 3, 69, 64
7, 26960, Note_off_c, 3, 72, 64
7, 26985, Note_off_c, 3, 65, 64
7, 27000, Note_on_c, 3, 62, 57
7, 27000, Note_on_c, 3, 64, 50
7, 27000, Note_on_c, 3, 67, 78
7, 27000, Note_on_c, 3, 71, 59
7, 27005, Note_off_c, 3, 64, 64
7, 27015, Note_off_c, 3, 62, 64
7, 27060, Note_on_c, 3, 62, 78
7, 27095, Note_off_c, 3, 71, 64
7, 27100, Note_off_c, 3, 62, 64
7, 27115, Note_off_c, 3, 67, 64
7, 27120, Note_on_c, 3, 72, 94
7, 27150, Note_on_c, 3, 64, 85
7, 27155, Note_off_c, 3, 72, 64
7, 27180, Note_on_c, 3, 67, 56
7, 27195, Note_off_c, 3, 64, 64
7, 27210, Note_on_c, 3, 72, 74
7, 27265, Note_off_c, 3, 67, 64
7, 27270, Note_on_c, 3, 64, 87
7, 27295, Note_off_c, 3, 72, 64
7, 27300, Note_on_c, 3, 67, 59
7, 27330, Note_off_c, 3, 64, 64
7, 27330, Note_on_c, 3, 72, 65
7, 27340, Note_off_c, 3, 67, 64
7, 27360, Note_on_c, 3, 69, 85
7, 27420, Note_on_c, 3, 64, 84
7, 27450, Note_off_c, 3, 72, 64
7, 27455, Note_off_c, 3, 69, 64
7, 27480, Note_on_c, 3, 69, 78
7, 27480, Note_on_c, 3, 72, 85
7, 27505, Note_off_c, 3, 64, 64
7, 27540, Note_on_c, 3, 64, 54
7, 27560, Note_off_c, 3, 69, 64
7, 27575, Note_off_c, 3, 72, 64
7, 27600, Note_on_c, 3, 67, 68
7, 27600, Note_on_c, 3, 71, 68
7, 27630, Note_off_c, 3, 64, 64
7, 27660, Note_on_c, 3, 64, 56
7, 27675, Note_off_c, 3, 71, 64
7, 27675, Note_off_c, 3, 67, 64
7, 27705, Note_off_c, 3, 64, 64
7, 27720, Note_on_c, 3, 62, 67
7, 27720, Note_on_c, 3, 65, 66
7, 27720, Note_on_c, 3, 67, 67
7, 27720, Note_on_c, 3, 69, 44
7, 27755, Note_off_c, 3, 67, 64
7, 27755, Note_off_c, 3, 65, 64
7, 27765, Note_off_c, 3, 62, 64
7, 27780, Note_on_c, 3, 62, 56
7, 27780, Note_on_c, 3, 65, 52
7, 27805, Note_off_c, 3, 65, 64
7, 27815, Note_off_c, 3, 62, 64
7, 27825, Note_off_c, 3, 69, 64
7, 27840, Note_on_c, 3, 67, 82
7, 27840, Note_on_c, 3, 72, 103
7, 27950, Note_off_c, 3, 67, 64
7, 27960, Note_on_c, 3, 65, 100
7, 27960, Note_on_c, 3, 69, 90
7, 28065, Note_off_c, 3, 65, 64
7, 28070, Note_off_c, 3, 69, 64
7, 28080, Note_on_c, 3, 64, 77
7, 28080, Note_on_c, 3, 67, 72
7, 28180, Note_off_c, 3, 64, 64
7, 28185, Note_off_c, 3, 67, 64
7, 28200, Note_on_c, 3, 62, 87
7, 28200, Note_on_c, 3, 65, 70
7, 28270, Note_off_c, 3, 65, 64
7, 28280, Note_off_c, 3, 62, 64
7, 28290, Note_off_c, 3, 72, 64
7, 28320, Note_on_c, 3, 72, 90
7, 28320, Note_on_c, 3, 67, 92
7, 28320, Note_on_c, 3, 64, 67
7, 28800, Note_off_c, 3, 64, 64
7, 28800, Note_off_c, 3, 67, 64
7, 28800, Note_off_c, 3, 72, 64
7, 28800, End_track
8, 0, Start_track
8, 0, Control_c, 4, 7, 0
8, 0, Control_c, 4, 0, 0
8, 0, End_track
9, 0, Start_track
9, 0, Title_t, "Piano"
9, 0, Program_c, 5, 4
9, 0, Control_c, 5, 7, 68
9, 1, Control_c, 5, 0, 0
9, 2, Program_c, 5, 4
9, 3, Control_c, 5, 10, 64
9, 4, Control_c, 5, 91, 100
9, 5, Control_c, 5, 93, 40
9, 6, Control_c, 5, 11, 127
9, 480, Note_on_c, 5, 45, 127
9, 480, Control_c, 5, 64, 127
9, 480, Note_on_c, 5, 67, 119
9, 480, Note_on_c, 5, 69, 115
9, 480, Note_on_c, 5, 72, 122
9, 540, Note_off_c, 5, 69, 64
9, 540, Note_off_c, 5, 67, 64
9, 540, Note_on_c, 5, 64, 101
9, 545, Note_off_c, 5, 72, 64
9, 590, Note_off_c, 5, 64, 64
9, 600, Note_on_c, 5, 64, 88
9, 600, Note_on_c, 5, 67, 105
9, 600, Note_on_c, 5, 69, 107
9, 600, Note_on_c, 5, 72, 101
9, 610, Note_off_c, 5, 64, 64
9, 660, Note_on_c, 5, 64, 101
9, 665, Note_off_c, 5, 69, 64
9, 665, Note_off_c, 5, 67, 64
9, 670, Note_off_c, 5, 72, 64
9, 680, Control_c, 5, 64, 0
9, 700, Note_off_c, 5, 64, 64
9, 715, Note_off_c, 5, 45, 64
9, 720, Note_on_c, 5, 43, 119
9, 720, Note_on_c, 5, 65, 108
9, 720, Note_on_c, 5, 67, 110
9, 720, Note_on_c, 5, 71, 113
9, 725, Control_c, 5, 64, 127
9, 780, Note_on_c, 5, 62, 95
9, 785, Note_off_c, 5, 67, 64
9, 785, Note_off_c, 5, 65, 64
9, 790, Note_off_c, 5, 71, 64
9, 820, Note_off_c, 5, 62, 64
9, 840, Note_on_c, 5, 62, 92
9, 840, Note_on_c, 5, 65, 103
9, 840, Note_on_c, 5, 67, 99
9, 840, Note_on_c, 5, 71, 113
9, 855, Note_off_c, 5, 62, 64
9, 895, Note_off_c, 5, 65, 64
9, 900, Note_off_c, 5, 71, 64
9, 900, Note_off_c, 5, 67, 64
9, 900, Note_on_c, 5, 62, 96
9, 930, Note_off_c, 5, 62, 64
9, 930, Control_c, 5, 64, 0
9, 955, Note_off_c, 5, 43, 64
9, 960, Note_on_c, 5, 36, 118
9, 960, Note_on_c, 5, 64, 112
9, 960, Note_on_c, 5, 67, 120
9, 960, Note_on_c, 5, 72, 122
9, 965, Control_c, 5, 64, 127
9, 980, Note_off_c, 5, 64, 64
9, 1015, Note_off_c, 5, 72, 64
9, 1015, Note_off_c, 5, 67, 64
9, 1020, Note_on_c, 5, 64, 92
9, 1060, Note_off_c, 5, 64, 64
9, 1080, Note_on_c, 5, 64, 115
9, 1080, Note_on_c, 5, 67, 123
9, 1080, Note_on_c, 5, 72, 116
9, 1120, Note_off_c, 5, 64, 64
9, 1140, Note_off_c, 5, 72, 64
9, 1140, Note_off_c, 5, 67, 64
9, 1140, Note_on_c, 5, 48, 127
9, 1195, Control_c, 5, 64, 0
9, 1200, Note_off_c, 5, 48, 64
9, 1200, Note_on_c, 5, 43, 119
9, 1200, Note_on_c, 5, 62, 108
9, 1200, Note_on_c, 5, 65, 110
9, 1200, Note_on_c, 5, 67, 107
9, 1200, Note_on_c, 5, 71, 109
9, 1205, Note_off_c, 5, 36, 64
9, 1390, Note_off_c, 5, 65, 64
9, 1390, Note_off_c, 5, 62, 64
9, 1395, Note_off_c, 5, 67, 64
9, 1400, Note_off_c, 5, 71, 64
9, 1400, Note_off_c, 5, 43, 64
9, 1440, Note_on_c, 5, 48, 113
9, 1440, Note_on_c, 5, 64, 116
9, 1440, Note_on_c, 5, 67, 127
9, 1440, Note_on_c, 5, 72, 122
9, 1445, Control_c, 5, 64, 127
9, 1470, Note_off_c, 5, 64, 64
9, 1495, Note_off_c, 5, 72, 64
9, 1500, Note_off_c, 5, 67, 64
9, 1500, Note_on_c, 5, 64, 90
9, 1540, Note_off_c, 5, 64, 64
9, 1550, Note_off_c, 5, 48, 64
9, 1560, Note_on_c, 5, 67, 113
9, 1560, Note_on_c, 5, 71, 105
9, 1620, Note_on_c, 5, 55, 127
9, 1625, Control_c, 5, 64, 0
9, 1670, Note_off_c, 5, 55, 64
9, 1680, Note_on_c, 5, 52, 122
9, 1680, Note_on_c, 5, 64, 97
9, 1705, Note_off_c, 5, 64, 64
9, 1735, Note_off_c, 5, 71, 64
9, 1735, Note_off_c, 5, 67, 64
9, 1740, Note_on_c, 5, 64, 107
9, 1800, Note_on_c, 5, 67, 100
9, 1860, Note_on_c, 5, 71, 105
9, 1865, Note_off_c, 5, 67, 64
9, 1885, Note_off_c, 5, 71, 64
9, 1895, Note_off_c, 5, 64, 64
9, 1920, Note_off_c, 5, 52, 64
9, 1920, Note_on_c, 5, 53, 119
9, 1920, Note_on_c, 5, 65, 113
9, 1920, Note_on_c, 5, 69, 111
9, 1975, Note_off_c, 5, 69, 64
9, 1980, Note_on_c, 5, 60, 105
9, 2030, Note_off_c, 5, 60, 64
9, 2040, Note_on_c, 5, 69, 111
9, 2100, Note_off_c, 5, 53, 64
9, 2100, Note_on_c, 5, 55, 111
9, 2140, Note_off_c, 5, 69, 64
9, 2150, Note_off_c, 5, 65, 64
9, 2160, Note_on_c, 5, 43, 127
9, 2170, Note_off_c, 5, 55, 64
9, 2220, Note_on_c, 5, 59, 105
9, 2260, Note_off_c, 5, 59, 64
9, 2280, Note_on_c, 5, 59, 111
9, 2280, Note_on_c, 5, 62, 115
9, 2280, Note_on_c, 5, 67, 114
9, 2325, Note_off_c, 5, 59, 64
9, 2335, Note_off_c, 5, 62, 64
9, 2335, Control_c, 5, 64, 127
9, 2340, Note_on_c, 5, 55, 126
9, 2345, Note_off_c, 5, 67, 64
9, 2390, Control_c, 5, 64, 0
9, 2400, Note_off_c, 5, 55, 64
9, 2400, Note_on_c, 5, 48, 127
9, 2400, Note_on_c, 5, 64, 101
9, 2400, Note_on_c, 5, 67, 111
9, 2400, Note_on_c, 5, 72, 116
9, 2405, Note_off_c, 5, 43, 64
9, 2420, Note_off_c, 5, 64, 64
9, 2460, Note_on_c, 5, 64, 94
9, 2465, Note_off_c, 5, 72, 64
9, 2465, Note_off_c, 5, 67, 64
9, 2465, Control_c, 5, 64, 127
9, 2505, Note_off_c, 5, 64, 64
9, 2520, Note_on_c, 5, 64, 96
9, 2520, Note_on_c, 5, 67, 110
9, 2520, Note_on_c, 5, 72, 109
9, 2535, Note_off_c, 5, 64, 64
9, 2580, Note_on_c, 5, 64, 122
9, 2585, Note_off_c, 5, 67, 64
9, 2605, Control_c, 5, 64, 0
9, 2620, Note_off_c, 5, 72, 64
9, 2625, Note_off_c, 5, 64, 64
9, 2635, Note_off_c, 5, 48, 64
9, 2640, Note_on_c, 5, 45, 123
9, 2640, Note_on_c, 5, 64, 101
9, 2640, Note_on_c, 5, 69, 105
9, 2640, Note_on_c, 5, 72, 105
9, 2650, Control_c, 5, 64, 127
9, 2665, Note_off_c, 5, 64, 64
9, 2700, Note_on_c, 5, 64, 93
9, 2720, Note_off_c, 5, 72, 64
9, 2725, Note_off_c, 5, 69, 64
9, 2735, Note_off_c, 5, 64, 64
9, 2760, Note_on_c, 5, 64, 106
9, 2760, Note_on_c, 5, 67, 107
9, 2760, Note_on_c, 5, 69, 108
9, 2760, Note_on_c, 5, 72, 107
9, 2780, Note_off_c, 5, 64, 64
9, 2800, Note_off_c, 5, 45, 64
9, 2815, Note_off_c, 5, 72, 64
9, 2815, Note_off_c, 5, 69, 64
9, 2820, Note_off_c, 5, 67, 64
9, 2820, Note_on_c, 5, 45, 122
9, 2820, Note_on_c, 5, 64, 109
9, 2860, Note_off_c, 5, 64, 64
9, 2860, Control_c, 5, 64, 0
9, 2875, Note_off_c, 5, 45, 64
9, 2880, Note_on_c, 5, 36, 113
9, 2880, Note_on_c, 5, 38, 110
9, 2880, Note_on_c, 5, 66, 127
9, 2880, Note_on_c, 5, 69, 116
9, 2890, Control_c, 5, 64, 127
9, 2895, Note_off_c, 5, 36, 64
9, 2940, Note_on_c, 5, 50, 127
9, 2955, Note_off_c, 5, 69, 64
9, 2955, Note_off_c, 5, 66, 64
9, 3000, Note_on_c, 5, 64, 112
9, 3000, Note_on_c, 5, 69, 113
9, 3045, Note_off_c, 5, 64, 64
9, 3060, Note_on_c, 5, 62, 99
9, 3060, Note_on_c, 5, 66, 102
9, 3090, Control_c, 5, 64, 0
9, 3095, Note_off_c, 5, 66, 64
9, 3095, Note_off_c, 5, 62, 64
9, 3095, Note_off_c, 5, 69, 64
9, 3115, Note_off_c, 5, 50, 64
9, 3115, Note_off_c, 5, 38, 64
9, 3120, Note_on_c, 5, 43, 127
9, 3120, Control_c, 5, 64, 127
9, 3180, Note_on_c, 5, 59, 88
9, 3180, Note_on_c, 5, 62, 89
9, 3210, Note_off_c, 5, 62, 64
9, 3215, Note_off_c, 5, 59, 64
9, 3240, Note_on_c, 5, 59, 120
9, 3240, Note_on_c, 5, 62, 111
9, 3240, Note_on_c, 5, 65, 120
9, 3240, Note_on_c, 5, 67, 103
9, 3270, Control_c, 5, 64, 0
9, 3275, Note_off_c, 5, 59, 64
9, 3285, Note_off_c, 5, 62, 64
9, 3295, Note_off_c, 5, 65, 64
9, 3300, Note_off_c, 5, 67, 64
9, 3300, Note_on_c, 5, 55, 118
9, 3360, Note_off_c, 5, 43, 64
9, 3360, Note_on_c, 5, 48, 127
9, 3360, Note_on_c, 5, 64, 107
9, 3360, Note_on_c, 5, 67, 115
9, 3360, Note_on_c, 5, 72, 118
9, 3365, Note_off_c, 5, 55, 64
9, 3375, Control_c, 5, 64, 127
9, 3390, Note_off_c, 5, 64, 64
9, 3420, Note_off_c, 5, 67, 64
9, 3420, Note_on_c, 5, 64, 86
9, 3425, Note_off_c, 5, 72, 64
9, 3460, Note_off_c, 5, 64, 64
9, 3480, Note_on_c, 5, 64, 115
9, 3480, Note_on_c, 5, 68, 124
9, 3480, Note_on_c, 5, 71, 120
9, 3485, Control_c, 5, 64, 0
9, 3500, Note_off_c, 5, 64, 64
9, 3530, Note_off_c, 5, 48, 64
9, 3540, Note_on_c, 5, 47, 127
9, 3575, Note_off_c, 5, 71, 64
9, 3585, Note_off_c, 5, 68, 64
9, 3600, Note_off_c, 5, 47, 64
9, 3600, Note_on_c, 5, 45, 105
9, 3600, Note_on_c, 5, 60, 115
9, 3600, Note_on_c, 5, 64, 127
9, 3600, Note_on_c, 5, 69, 120
9, 3605, Control_c, 5, 64, 127
9, 3620, Note_off_c, 5, 60, 64
9, 3660, Note_on_c, 5, 60, 105
9, 3700, Control_c, 5, 64, 0
9, 3705, Note_off_c, 5, 69, 64
9, 3710, Note_off_c, 5, 60, 64
9, 3710, Note_off_c, 5, 64, 64
9, 3720, Note_off_c, 5, 45, 64
9, 3720, Note_on_c, 5, 43, 127
9, 3720, Note_on_c, 5, 60, 97
9, 3720, Note_on_c, 5, 64, 107
9, 3720, Note_on_c, 5, 67, 115
9, 3750, Note_off_c, 5, 60, 64
9, 3780, Note_on_c, 5, 60, 112
9, 3785, Note_off_c, 5, 64, 64
9, 3815, Note_off_c, 5, 67, 64
9, 3820, Note_off_c, 5, 60, 64
9, 3835, Note_off_c, 5, 43, 64
9, 3840, Note_on_c, 5, 41, 111
9, 3840, Note_on_c, 5, 60, 102
9, 3840, Note_on_c, 5, 65, 116
9, 3840, Note_on_c, 5, 69, 118
9, 3845, Control_c, 5, 64, 127
9, 3875, Note_off_c, 5, 60, 64
9, 3900, Note_on_c, 5, 60, 106
9, 3940, Control_c, 5, 64, 0
9, 3945, Note_off_c, 5, 60, 64
9, 3950, Note_off_c, 5, 69, 64
9, 3955, Note_off_c, 5, 65, 64
9, 3960, Note_off_c, 5, 41, 64
9, 3960, Note_on_c, 5, 43, 120
9, 3960, Note_on_c, 5, 67, 109
9, 3960, Note_on_c, 5, 71, 107
9, 4015, Note_off_c, 5, 71, 64
9, 4015, Note_off_c, 5, 67, 64
9, 4020, Note_on_c, 5, 62, 87
9, 4060, Note_off_c, 5, 62, 64
9, 4070, Note_off_c, 5, 43, 64
9, 4080, Note_on_c, 5, 36, 122
9, 4080, Note_on_c, 5, 64, 92
9, 4080, Note_on_c, 5, 67, 106
9, 4080, Note_on_c, 5, 72, 107
9, 4080, Control_c, 5, 64, 127
9, 4120, Note_off_c, 5, 64, 64
9, 4140, Note_on_c, 5, 48, 94
9, 4155, Note_off_c, 5, 72, 64
9, 4155, Note_off_c, 5, 67, 64
9, 4170, Note_on_c, 5, 64, 118
9, 4200, Note_on_c, 5, 67, 93
9, 4220, Note_off_c, 5, 64, 64
9, 4230, Note_on_c, 5, 72, 102
9, 4240, Note_off_c, 5, 67, 64
9, 4250, Note_off_c, 5, 36, 64
9, 4260, Note_on_c, 5, 64, 119
9, 4305, Note_off_c, 5, 72, 64
9, 4305, Control_c, 5, 64, 0
9, 4310, Note_off_c, 5, 64, 64
9, 4310, Note_off_c, 5, 48, 64
9, 4320, Note_on_c, 5, 45, 124
9, 4320, Note_on_c, 5, 64, 90
9, 4320, Note_on_c, 5, 69, 101
9, 4320, Note_on_c, 5, 72, 111
9, 4335, Note_off_c, 5, 64, 64
9, 4340, Control_c, 5, 64, 127
9, 4380, Note_off_c, 5, 69, 64
9, 4380, Note_on_c, 5, 64, 88
9, 4385, Note_off_c, 5, 72, 64
9, 4420, Note_off_c, 5, 64, 64
9, 4440, Note_on_c, 5, 64, 108
9, 4440, Note_on_c, 5, 69, 108
9, 4440, Note_on_c, 5, 72, 108
9, 4465, Note_off_c, 5, 45, 64
9, 4470, Note_off_c, 5, 64, 64
9, 4500, Note_off_c, 5, 72, 64
9, 4500, Note_on_c, 5, 45, 103
9, 4500, Note_on_c, 5, 64, 119
9, 4505, Note_off_c, 5, 69, 64
9, 4540, Note_off_c, 5, 64, 64
9, 4550, Note_off_c, 5, 45, 64
9, 4560, Note_on_c, 5, 40, 107
9, 4560, Note_on_c, 5, 64, 106
9, 4560, Note_on_c, 5, 67, 113
9, 4560, Note_on_c, 5, 71, 109
9, 4570, Control_c, 5, 64, 0
9, 4600, Note_off_c, 5, 64, 64
9, 4615, Note_off_c, 5, 67, 64
9, 4620, Note_on_c, 5, 64, 83
9, 4655, Note_off_c, 5, 64, 64
9, 4675, Note_off_c, 5, 40, 64
9, 4680, Note_on_c, 5, 43, 100
9, 4680, Note_on_c, 5, 62, 105
9, 4680, Note_on_c, 5, 65, 107
9, 4680, Note_on_c, 5, 67, 103
9, 4720, Note_off_c, 5, 62, 64
9, 4735, Note_off_c, 5, 65, 64
9, 4740, Note_off_c, 5, 67, 64
9, 4740, Note_off_c, 5, 71, 64
9, 4740, Note_on_c, 5, 62, 90
9, 4770, Note_off_c, 5, 62, 64
9, 4800, Note_on_c, 5, 36, 112
9, 4800, Note_on_c, 5, 64, 106
9, 4800, Note_on_c, 5, 67, 109
9, 4800, Note_on_c, 5, 72, 111
9, 4800, Control_c, 5, 64, 127
9, 4805, Note_off_c, 5, 43, 64
9, 4885, Note_off_c, 5, 64, 64
9, 4905, Note_off_c, 5, 67, 64
9, 4910, Note_off_c, 5, 36, 64
9, 4910, Control_c, 5, 64, 0
9, 4920, Note_on_c, 5, 41, 94
9, 4920, Note_on_c, 5, 43, 82
9, 4920, Note_on_c, 5, 65, 105
9, 4920, Note_on_c, 5, 69, 113
9, 4995, Note_off_c, 5, 72, 64
9, 5015, Note_off_c, 5, 65, 64
9, 5025, Note_off_c, 5, 69, 64
9, 5025, Note_off_c, 5, 43, 64
9, 5035, Note_off_c, 5, 41, 64
9, 5040, Note_on_c, 5, 40, 97
9, 5040, Note_on_c, 5, 64, 108
9, 5040, Note_on_c, 5, 67, 108
9, 5040, Note_on_c, 5, 71, 106
9, 5130, Note_off_c, 5, 67, 64
9, 5140, Note_off_c, 5, 71, 64
9, 5145, Note_off_c, 5, 64, 64
9, 5155, Note_off_c, 5, 40, 64
9, 5160, Note_on_c, 5, 38, 96
9, 5160, Note_on_c, 5, 62, 106
9, 5160, Note_on_c, 5, 65, 108
9, 5160, Note_on_c, 5, 69, 104
9, 5230, Note_off_c, 5, 62, 64
9, 5235, Note_off_c, 5, 65, 64
9, 5240, Note_off_c, 5, 69, 64
9, 5265, Note_off_c, 5, 38, 64
9, 5280, Note_on_c, 5, 48, 113
9, 5280, Note_on_c, 5, 64, 116
9, 5280, Note_on_c, 5, 67, 127
9, 5280, Note_on_c, 5, 72, 122
9, 5285, Control_c, 5, 64, 127
9, 5310, Note_off_c, 5, 64, 64
9, 5335, Note_off_c, 5, 72, 64
9, 5340, Note_off_c, 5, 67, 64
9, 5340, Note_on_c, 5, 64, 90
9, 5380, Note_off_c, 5, 64, 64
9, 5390, Note_off_c, 5, 48, 64
9, 5400, Note_on_c, 5, 67, 113
9, 5400, Note_on_c, 5, 71, 105
9, 5460, Note_on_c, 5, 55, 127
9, 5465, Control_c, 5, 64, 0
9, 5510, Note_off_c, 5, 55, 64
9, 5520, Note_on_c, 5, 52, 122
9, 5520, Note_on_c, 5, 64, 97
9, 5545, Note_off_c, 5, 64, 64
9, 5575, Note_off_c, 5, 71, 64
9, 5575, Note_off_c, 5, 67, 64
9, 5580, Note_on_c, 5, 64, 107
9, 5640, Note_on_c, 5, 67, 100
9, 5700, Note_on_c, 5, 71, 105
9, 5705, Note_off_c, 5, 67, 64
9, 5725, Note_off_c, 5, 71, 64
9, 5735, Note_off_c, 5, 64, 64
9, 5760, Note_off_c, 5, 52, 64
9, 5760, Note_on_c, 5, 53, 119
9, 5760, Note_on_c, 5, 65, 113
9, 5760, Note_on_c, 5, 69, 111
9, 5815, Note_off_c, 5, 69, 64
9, 5820, Note_on_c, 5, 60, 105
9, 5870, Note_off_c, 5, 60, 64
9, 5880, Note_on_c, 5, 69, 111
9, 5940, Note_off_c, 5, 53, 64
9, 5940, Note_on_c, 5, 55, 111
9, 5980, Note_off_c, 5, 69, 64
9, 5990, Note_off_c, 5, 65, 64
9, 6000, Note_on_c, 5, 43, 127
9, 6010, Note_off_c, 5, 55, 64
9, 6060, Note_on_c, 5, 59, 105
9, 6100, Note_off_c, 5, 59, 64
9, 6120, Note_on_c, 5, 59, 111
9, 6120, Note_on_c, 5, 62, 115
9, 6120, Note_on_c, 5, 67, 114
9, 6165, Note_off_c, 5, 59, 64
9, 6175, Note_off_c, 5, 62, 64
9, 6175, Control_c, 5, 64, 127
9, 6180, Note_on_c, 5, 55, 126
9, 6185, Note_off_c, 5, 67, 64
9, 6230, Control_c, 5, 64, 0
9, 6240, Note_off_c, 5, 55, 64
9, 6240, Note_on_c, 5, 48, 127
9, 6240, Note_on_c, 5, 64, 101
9, 6240, Note_on_c, 5, 67, 111
9, 6240, Note_on_c, 5, 72, 116
9, 6245, Note_off_c, 5, 43, 64
9, 6260, Note_off_c, 5, 64, 64
9, 6300, Note_on_c, 5, 64, 94
9, 6305, Note_off_c, 5, 72, 64
9, 6305, Note_off_c, 5, 67, 64
9, 6305, Control_c, 5, 64, 127
9, 6345, Note_off_c, 5, 64, 64
9, 6360, Note_on_c, 5, 64, 96
9, 6360, Note_on_c, 5, 67, 110
9, 6360, Note_on_c, 5, 72, 109
9, 6375, Note_off_c, 5, 64, 64
9, 6420, Note_on_c, 5, 64, 122
9, 6425, Note_off_c, 5, 67, 64
9, 6445, Control_c, 5, 64, 0
9, 6460, Note_off_c, 5, 72, 64
9, 6465, Note_off_c, 5, 64, 64
9, 6475, Note_off_c, 5, 48, 64
9, 6480, Note_on_c, 5, 45, 123
9, 6480, Note_on_c, 5, 64, 101
9, 6480, Note_on_c, 5, 69, 105
9, 6480, Note_on_c, 5, 72, 105
9, 6490, Control_c, 5, 64, 127
9, 6505, Note_off_c, 5, 64, 64
9, 6540, Note_on_c, 5, 64, 93
9, 6560, Note_off_c, 5, 72, 64
9, 6565, Note_off_c, 5, 69, 64
9, 6575, Note_off_c, 5, 64, 64
9, 6600, Note_on_c, 5, 64, 106
9, 6600, Note_on_c, 5, 67, 107
9, 6600, Note_on_c, 5, 69, 108
9, 6600, Note_on_c, 5, 72, 107
9, 6620, Note_off_c, 5, 64, 64
9, 6640, Note_off_c, 5, 45, 64
9, 6655, Note_off_c, 5, 72, 64
9, 6655, Note_off_c, 5, 69, 64
9, 6660, Note_off_c, 5, 67, 64
9, 6660, Note_on_c, 5, 45, 122
9, 6660, Note_on_c, 5, 64, 109
9, 6700, Note_off_c, 5, 64, 64
9, 6700, Control_c, 5, 64, 0
9, 6715, Note_off_c, 5, 45, 64
9, 6720, Note_on_c, 5, 36, 113
9, 6720, Note_on_c, 5, 38, 110
9, 6720, Note_on_c, 5, 66, 127
9, 6720, Note_on_c, 5, 69, 116
9, 6730, Control_c, 5, 64, 127
9, 6735, Note_off_c, 5, 36, 64
9, 6780, Note_on_c, 5, 50, 127
9, 6795, Note_off_c, 5, 69, 64
9, 6795, Note_off_c, 5, 66, 64
9, 6840, Note_on_c, 5, 64, 112
9, 6840, Note_on_c, 5, 69, 113
9, 6885, Note_off_c, 5, 64, 64
9, 6900, Note_on_c, 5, 62, 99
9, 6900, Note_on_c, 5, 66, 102
9, 6930, Control_c, 5, 64, 0
9, 6935, Note_off_c, 5, 66, 64
9, 6935, Note_off_c, 5, 62, 64
9, 6935, Note_off_c, 5, 69, 64
9, 6955, Note_off_c, 5, 50, 64
9, 6955, Note_off_c, 5, 38, 64
9, 6960, Note_on_c, 5, 43, 127
9, 6960, Control_c, 5, 64, 127
9, 7020, Note_on_c, 5, 59, 88
9, 7020, Note_on_c, 5, 62, 89
9, 7050, Note_off_c, 5, 62, 64
9, 7055, Note_off_c, 5, 59, 64
9, 7080, Note_on_c, 5, 59, 120
9, 7080, Note_on_c, 5, 62, 111
9, 7080, Note_on_c, 5, 65, 120
9, 7080, Note_on_c, 5, 67, 103
9, 7110, Control_c, 5, 64, 0
9, 7115, Note_off_c, 5, 59, 64
9, 7125, Note_off_c, 5, 62, 64
9, 7135, Note_off_c, 5, 65, 64
9, 7140, Note_off_c, 5, 67, 64
9, 7140, Note_on_c, 5, 55, 118
9, 7200, Note_off_c, 5, 43, 64
9, 7200, Note_on_c, 5, 48, 127
9, 7200, Note_on_c, 5, 64, 107
9, 7200, Note_on_c, 5, 67, 115
9, 7200, Note_on_c, 5, 72, 118
9, 7205, Note_off_c, 5, 55, 64
9, 7215, Control_c, 5, 64, 127
9, 7230, Note_off_c, 5, 64, 64
9, 7260, Note_off_c, 5, 67, 64
9, 7260, Note_on_c, 5, 64, 86
9, 7265, Note_off_c, 5, 72, 64
9, 7300, Note_off_c, 5, 64, 64
9, 7320, Note_on_c, 5, 64, 115
9, 7320, Note_on_c, 5, 68, 124
9, 7320, Note_on_c, 5, 71, 120
9, 7325, Control_c, 5, 64, 0
9, 7340, Note_off_c, 5, 64, 64
9, 7370, Note_off_c, 5, 48, 64
9, 7380, Note_on_c, 5, 47, 127
9, 7415, Note_off_c, 5, 71, 64
9, 7425, Note_off_c, 5, 68, 64
9, 7440, Note_off_c, 5, 47, 64
9, 7440, Note_on_c, 5, 45, 105
9, 7440, Note_on_c, 5, 60, 115
9, 7440, Note_on_c, 5, 64, 127
9, 7440, Note_on_c, 5, 69, 120
9, 7445, Control_c, 5, 64, 127
9, 7460, Note_off_c, 5, 60, 64
9, 7500, Note_on_c, 5, 60, 105
9, 7540, Control_c, 5, 64, 0
9, 7545, Note_off_c, 5, 69, 64
9, 7550, Note_off_c, 5, 60, 64
9, 7550, Note_off_c, 5, 64, 64
9, 7560, Note_off_c, 5, 45, 64
9, 7560, Note_on_c, 5, 43, 127
9, 7560, Note_on_c, 5, 60, 97
9, 7560, Note_on_c, 5, 64, 107
9, 7560, Note_on_c, 5, 67, 115
9, 7590, Note_off_c, 5, 60, 64
9, 7620, Note_on_c, 5, 60, 112
9, 7625, Note_off_c, 5, 64, 64
9, 7655, Note_off_c, 5, 67, 64
9, 7660, Note_off_c, 5, 60, 64
9, 7675, Note_off_c, 5, 43, 64
9, 7680, Note_on_c, 5, 41, 111
9, 7680, Note_on_c, 5, 60, 102
9, 7680, Note_on_c, 5, 65, 116
9, 7680, Note_on_c, 5, 69, 118
9, 7685, Control_c, 5, 64, 127
9, 7715, Note_off_c, 5, 60, 64
9, 7740, Note_on_c, 5, 60, 106
9, 7780, Control_c, 5, 64, 0
9, 7785, Note_off_c, 5, 60, 64
9, 7790, Note_off_c, 5, 69, 64
9, 7795, Note_off_c, 5, 65, 64
9, 7800, Note_off_c, 5, 41, 64
9, 7800, Note_on_c, 5, 43, 120
9, 7800, Note_on_c, 5, 67, 109
9, 7800, Note_on_c, 5, 71, 107
9, 7855, Note_off_c, 5, 71, 64
9, 7855, Note_off_c, 5, 67, 64
9, 7860, Note_on_c, 5, 62, 87
9, 7900, Note_off_c, 5, 62, 64
9, 7910, Note_off_c, 5, 43, 64
9, 7920, Note_on_c, 5, 36, 122
9, 7920, Note_on_c, 5, 64, 92
9, 7920, Note_on_c, 5, 67, 106
9, 7920, Note_on_c, 5, 72, 107
9, 7920, Control_c, 5, 64, 127
9, 7960, Note_off_c, 5, 64, 64
9, 7980, Note_on_c, 5, 48, 94
9, 7995, Note_off_c, 5, 72, 64
9, 7995, Note_off_c, 5, 67, 64
9, 8010, Note_on_c, 5, 64, 118
9, 8040, Note_on_c, 5, 67, 93
9, 8060, Note_off_c, 5, 64, 64
9, 8070, Note_on_c, 5, 72, 102
9, 8080, Note_off_c, 5, 67, 64
9, 8090, Note_off_c, 5, 36, 64
9, 8100, Note_on_c, 5, 64, 119
9, 8145, Note_off_c, 5, 72, 64
9, 8145, Control_c, 5, 64, 0
9, 8150, Note_off_c, 5, 64, 64
9, 8150, Note_off_c, 5, 48, 64
9, 8160, Note_on_c, 5, 45, 124
9, 8160, Note_on_c, 5, 64, 90
9, 8160, Note_on_c, 5, 69, 101
9, 8160, Note_on_c, 5, 72, 111
9, 8175, Note_off_c, 5, 64, 64
9, 8180, Control_c, 5, 64, 127
9, 8220, Note_off_c, 5, 69, 64
9, 8220, Note_on_c, 5, 64, 88
9, 8225, Note_off_c, 5, 72, 64
9, 8260, Note_off_c, 5, 64, 64
9, 8280, Note_on_c, 5, 64, 108
9, 8280, Note_on_c, 5, 69, 108
9, 8280, Note_on_c, 5, 72, 108
9, 8305, Note_off_c, 5, 45, 64
9, 8310, Note_off_c, 5, 64, 64
9, 8340, Note_off_c, 5, 72, 64
9, 8340, Note_on_c, 5, 45, 103
9, 8340, Note_on_c, 5, 64, 119
9, 8345, Note_off_c, 5, 69, 64
9, 8380, Note_off_c, 5, 64, 64
9, 8390, Note_off_c, 5, 45, 64
9, 8400, Note_on_c, 5, 40, 107
9, 8400, Note_on_c, 5, 64, 106
9, 8400, Note_on_c, 5, 67, 113
9, 8400, Note_on_c, 5, 71, 109
9, 8410, Control_c, 5, 64, 0
9, 8440, Note_off_c, 5, 64, 64
9, 8455, Note_off_c, 5, 67, 64
9, 8460, Note_on_c, 5, 64, 83
9, 8495, Note_off_c, 5, 64, 64
9, 8515, Note_off_c, 5, 40, 64
9, 8520, Note_on_c, 5, 43, 100
9, 8520, Note_on_c, 5, 62, 105
9, 8520, Note_on_c, 5, 65, 107
9, 8520, Note_on_c, 5, 67, 103
9, 8560, Note_off_c, 5, 62, 64
9, 8575, Note_off_c, 5, 65, 64
9, 8580, Note_off_c, 5, 67, 64
9, 8580, Note_off_c, 5, 71, 64
9, 8580, Note_on_c, 5, 62, 90
9, 8610, Note_off_c, 5, 62, 64
9, 8640, Note_on_c, 5, 36, 112
9, 8640, Note_on_c, 5, 64, 106
9, 8640, Note_on_c, 5, 67, 109
9, 8640, Note_on_c, 5, 72, 111
9, 8640, Control_c, 5, 64, 127
9, 8645, Note_off_c, 5, 43, 64
9, 8725, Note_off_c, 5, 64, 64
9, 8745, Note_off_c, 5, 67, 64
9, 8750, Note_off_c, 5, 36, 64
9, 8750, Control_c, 5, 64, 0
9, 8760, Note_on_c, 5, 41, 94
9, 8760, Note_on_c, 5, 43, 82
9, 8760, Note_on_c, 5, 65, 105
9, 8760, Note_on_c, 5, 69, 113
9, 8835, Note_off_c, 5, 72, 64
9, 8855, Note_off_c, 5, 65, 64
9, 8865, Note_off_c, 5, 69, 64
9, 8865, Note_off_c, 5, 43, 64
9, 8875, Note_off_c, 5, 41, 64
9, 8880, Note_on_c, 5, 40, 97
9, 8880, Note_on_c, 5, 64, 108
9, 8880, Note_on_c, 5, 67, 108
9, 8880, Note_on_c, 5, 71, 106
9, 8970, Note_off_c, 5, 67, 64
9, 8980, Note_off_c, 5, 71, 64
9, 8985, Note_off_c, 5, 64, 64
9, 8995, Note_off_c, 5, 40, 64
9, 9000, Note_on_c, 5, 38, 96
9, 9000, Note_on_c, 5, 62, 106
9, 9000, Note_on_c, 5, 65, 108
9, 9000, Note_on_c, 5, 69, 104
9, 9070, Note_off_c, 5, 62, 64
9, 9075, Note_off_c, 5, 65, 64
9, 9080, Note_off_c, 5, 69, 64
9, 9105, Note_off_c, 5, 38, 64
9, 9120, Note_on_c, 5, 48, 113
9, 9120, Note_on_c, 5, 64, 116
9, 9120, Note_on_c, 5, 67, 127
9, 9120, Note_on_c, 5, 72, 122
9, 9125, Control_c, 5, 64, 127
9, 9150, Note_off_c, 5, 64, 64
9, 9175, Note_off_c, 5, 72, 64
9, 9180, Note_off_c, 5, 67, 64
9, 9180, Note_on_c, 5, 64, 90
9, 9220, Note_off_c, 5, 64, 64
9, 9230, Note_off_c, 5, 48, 64
9, 9240, Note_on_c, 5, 67, 113
9, 9240, Note_on_c, 5, 71, 105
9, 9300, Note_on_c, 5, 55, 127
9, 9305, Control_c, 5, 64, 0
9, 9350, Note_off_c, 5, 55, 64
9, 9360, Note_on_c, 5, 52, 122
9, 9360, Note_on_c, 5, 64, 97
9, 9385, Note_off_c, 5, 64, 64
9, 9415, Note_off_c, 5, 71, 64
9, 9415, Note_off_c, 5, 67, 64
9, 9420, Note_on_c, 5, 64, 107
9, 9480, Note_on_c, 5, 67, 100
9, 9540, Note_on_c, 5, 71, 105
9, 9545, Note_off_c, 5, 67, 64
9, 9565, Note_off_c, 5, 71, 64
9, 9575, Note_off_c, 5, 64, 64
9, 9600, Note_off_c, 5, 52, 64
9, 9600, Note_on_c, 5, 53, 119
9, 9600, Note_on_c, 5, 65, 113
9, 9600, Note_on_c, 5, 69, 111
9, 9655, Note_off_c, 5, 69, 64
9, 9660, Note_on_c, 5, 60, 105
9, 9710, Note_off_c, 5, 60, 64
9, 9720, Note_on_c, 5, 69, 111
9, 9780, Note_off_c, 5, 53, 64
9, 9780, Note_on_c, 5, 55, 111
9, 9820, Note_off_c, 5, 69, 64
9, 9830, Note_off_c, 5, 65, 64
9, 9840, Note_on_c, 5, 43, 127
9, 9850, Note_off_c, 5, 55, 64
9, 9900, Note_on_c, 5, 59, 105
9, 9940, Note_off_c, 5, 59, 64
9, 9960, Note_on_c, 5, 59, 111
9, 9960, Note_on_c, 5, 62, 115
9, 9960, Note_on_c, 5, 67, 114
9, 10005, Note_off_c, 5, 59, 64
9, 10015, Note_off_c, 5, 62, 64
9, 10015, Control_c, 5, 64, 127
9, 10020, Note_on_c, 5, 55, 126
9, 10025, Note_off_c, 5, 67, 64
9, 10070, Control_c, 5, 64, 0
9, 10080, Note_off_c, 5, 55, 64
9, 10080, Note_on_c, 5, 48, 127
9, 10080, Note_on_c, 5, 64, 101
9, 10080, Note_on_c, 5, 67, 111
9, 10080, Note_on_c, 5, 72, 116
9, 10085, Note_off_c, 5, 43, 64
9, 10100, Note_off_c, 5, 64, 64
9, 10140, Note_on_c, 5, 64, 94
9, 10145, Note_off_c, 5, 72, 64
9, 10145, Note_off_c, 5, 67, 64
9, 10145, Control_c, 5, 64, 127
9, 10185, Note_off_c, 5, 64, 64
9, 10200, Note_on_c, 5, 64, 96
9, 10200, Note_on_c, 5, 67, 110
9, 10200, Note_on_c, 5, 72, 109
9, 10215, Note_off_c, 5, 64, 64
9, 10260, Note_on_c, 5, 64, 122
9, 10265, Note_off_c, 5, 67, 64
9, 10285, Control_c, 5, 64, 0
9, 10300, Note_off_c, 5, 72, 64
9, 10305, Note_off_c, 5, 64, 64
9, 10315, Note_off_c, 5, 48, 64
9, 10320, Note_on_c, 5, 45, 123
9, 10320, Note_on_c, 5, 64, 101
9, 10320, Note_on_c, 5, 69, 105
9, 10320, Note_on_c, 5, 72, 105
9, 10330, Control_c, 5, 64, 127
9, 10345, Note_off_c, 5, 64, 64
9, 10380, Note_on_c, 5, 64, 93
9, 10400, Note_off_c, 5, 72, 64
9, 10405, Note_off_c, 5, 69, 64
9, 10415, Note_off_c, 5, 64, 64
9, 10440, Note_on_c, 5, 64, 106
9, 10440, Note_on_c, 5, 67, 107
9, 10440, Note_on_c, 5, 69, 108
9, 10440, Note_on_c, 5, 72, 107
9, 10460, Note_off_c, 5, 64, 64
9, 10480, Note_off_c, 5, 45, 64
9, 10495, Note_off_c, 5, 72, 64
9, 10495, Note_off_c, 5, 69, 64
9, 10500, Note_off_c, 5, 67, 64
9, 10500, Note_on_c, 5, 45, 122
9, 10500, Note_on_c, 5, 64, 109
9, 10540, Note_off_c, 5, 64, 64
9, 10540, Control_c, 5, 64, 0
9, 10555, Note_off_c, 5, 45, 64
9, 10560, Note_on_c, 5, 36, 113
9, 10560, Note_on_c, 5, 38, 110
9, 10560, Note_on_c, 5, 66, 127
9, 10560, Note_on_c, 5, 69, 116
9, 10570, Control_c, 5, 64, 127
9, 10575, Note_off_c, 5, 36, 64
9, 10620, Note_on_c, 5, 50, 127
9, 10635, Note_off_c, 5, 69, 64
9, 10635, Note_off_c, 5, 66, 64
9, 10680, Note_on_c, 5, 64, 112
9, 10680, Note_on_c, 5, 69, 113
9, 10725, Note_off_c, 5, 64, 64
9, 10740, Note_on_c, 5, 62, 99
9, 10740, Note_on_c, 5, 66, 102
9, 10770, Control_c, 5, 64, 0
9, 10775, Note_off_c, 5, 66, 64
9, 10775, Note_off_c, 5, 62, 64
9, 10775, Note_off_c, 5, 69, 64
9, 10795, Note_off_c, 5, 50, 64
9, 10795, Note_off_c, 5, 38, 64
9, 10800, Note_on_c, 5, 43, 127
9, 10800, Control_c, 5, 64, 127
9, 10860, Note_on_c, 5, 59, 88
9, 10860, Note_on_c, 5, 62, 89
9, 10890, Note_off_c, 5, 62, 64
9, 10895, Note_off_c, 5, 59, 64
9, 10920, Note_on_c, 5, 59, 120
9, 10920, Note_on_c, 5, 62, 111
9, 10920, Note_on_c, 5, 65, 120
9, 10920, Note_on_c, 5, 67, 103
9, 10950, Control_c, 5, 64, 0
9, 10955, Note_off_c, 5, 59, 64
9, 10965, Note_off_c, 5, 62, 64
9, 10975, Note_off_c, 5, 65, 64
9, 10980, Note_off_c, 5, 67, 64
9, 10980, Note_on_c, 5, 55, 118
9, 11040, Note_off_c, 5, 43, 64
9, 11040, Note_on_c, 5, 48, 127
9, 11040, Note_on_c, 5, 64, 107
9, 11040, Note_on_c, 5, 67, 115
9, 11040, Note_on_c, 5, 72, 118
9, 11045, Note_off_c, 5, 55, 64
9, 11055, Control_c, 5, 64, 127
9, 11070, Note_off_c, 5, 64, 64
9, 11100, Note_off_c, 5, 67, 64
9, 11100, Note_on_c, 5, 64, 86
9, 11105, Note_off_c, 5, 72, 64
9, 11140, Note_off_c, 5, 64, 64
9, 11160, Note_on_c, 5, 64, 115
9, 11160, Note_on_c, 5, 68, 124
9, 11160, Note_on_c, 5, 71, 120
9, 11165, Control_c, 5, 64, 0
9, 11180, Note_off_c, 5, 64, 64
9, 11210, Note_off_c, 5, 48, 64
9, 11220, Note_on_c, 5, 47, 127
9, 11255, Note_off_c, 5, 71, 64
9, 11265, Note_off_c, 5, 68, 64
9, 11280, Note_off_c, 5, 47, 64
9, 11280, Note_on_c, 5, 45, 105
9, 11280, Note_on_c, 5, 60, 115
9, 11280, Note_on_c, 5, 64, 127
9, 11280, Note_on_c, 5, 69, 120
9, 11285, Control_c, 5, 64, 127
9, 11300, Note_off_c, 5, 60, 64
9, 11340, Note_on_c, 5, 60, 105
9, 11380, Control_c, 5, 64, 0
9, 11385, Note_off_c, 5, 69, 64
9, 11390, Note_off_c, 5, 60, 64
9, 11390, Note_off_c, 5, 64, 64
9, 11400, Note_off_c, 5, 45, 64
9, 11400, Note_on_c, 5, 43, 127
9, 11400, Note_on_c, 5, 60, 97
9, 11400, Note_on_c, 5, 64, 107
9, 11400, Note_on_c, 5, 67, 115
9, 11430, Note_off_c, 5, 60, 64
9, 11460, Note_on_c, 5, 60, 112
9, 11465, Note_off_c, 5, 64, 64
9, 11495, Note_off_c, 5, 67, 64
9, 11500, Note_off_c, 5, 60, 64
9, 11515, Note_off_c, 5, 43, 64
9, 11520, Note_on_c, 5, 41, 111
9, 11520, Note_on_c, 5, 60, 102
9, 11520, Note_on_c, 5, 65, 116
9, 11520, Note_on_c, 5, 69, 118
9, 11525, Control_c, 5, 64, 127
9, 11555, Note_off_c, 5, 60, 64
9, 11580, Note_on_c, 5, 60, 106
9, 11620, Control_c, 5, 64, 0
9, 11625, Note_off_c, 5, 60, 64
9, 11630, Note_off_c, 5, 69, 64
9, 11635, Note_off_c, 5, 65, 64
9, 11640, Note_off_c, 5, 41, 64
9, 11640, Note_on_c, 5, 43, 120
9, 11640, Note_on_c, 5, 67, 109
9, 11640, Note_on_c, 5, 71, 107
9, 11695, Note_off_c, 5, 71, 64
9, 11695, Note_off_c, 5, 67, 64
9, 11700, Note_on_c, 5, 62, 87
9, 11740, Note_off_c, 5, 62, 64
9, 11750, Note_off_c, 5, 43, 64
9, 11760, Note_on_c, 5, 36, 122
9, 11760, Note_on_c, 5, 64, 92
9, 11760, Note_on_c, 5, 67, 106
9, 11760, Note_on_c, 5, 72, 107
9, 11760, Control_c, 5, 64, 127
9, 11800, Note_off_c, 5, 64, 64
9, 11820, Note_on_c, 5, 48, 94
9, 11835, Note_off_c, 5, 72, 64
9, 11835, Note_off_c, 5, 67, 64
9, 11850, Note_on_c, 5, 64, 118
9, 11880, Note_on_c, 5, 67, 93
9, 11900, Note_off_c, 5, 64, 64
9, 11910, Note_on_c, 5, 72, 102
9, 11920, Note_off_c, 5, 67, 64
9, 11930, Note_off_c, 5, 36, 64
9, 11940, Note_on_c, 5, 64, 119
9, 11985, Note_off_c, 5, 72, 64
9, 11985, Control_c, 5, 64, 0
9, 11990, Note_off_c, 5, 64, 64
9, 11990, Note_off_c, 5, 48, 64
9, 12000, Note_on_c, 5, 45, 124
9, 12000, Note_on_c, 5, 64, 90
9, 12000, Note_on_c, 5, 69, 101
9, 12000, Note_on_c, 5, 72, 111
9, 12015, Note_off_c, 5, 64, 64
9, 12020, Control_c, 5, 64, 127
9, 12060, Note_off_c, 5, 69, 64
9, 12060, Note_on_c, 5, 64, 88
9, 12065, Note_off_c, 5, 72, 64
9, 12100, Note_off_c, 5, 64, 64
9, 12120, Note_on_c, 5, 64, 108
9, 12120, Note_on_c, 5, 69, 108
9, 12120, Note_on_c, 5, 72, 108
9, 12145, Note_off_c, 5, 45, 64
9, 12150, Note_off_c, 5, 64, 64
9, 12180, Note_off_c, 5, 72, 64
9, 12180, Note_on_c, 5, 45, 103
9, 12180, Note_on_c, 5, 64, 119
9, 12185, Note_off_c, 5, 69, 64
9, 12220, Note_off_c, 5, 64, 64
9, 12230, Note_off_c, 5, 45, 64
9, 12240, Note_on_c, 5, 40, 107
9, 12240, Note_on_c, 5, 64, 106
9, 12240, Note_on_c, 5, 67, 113
9, 12240, Note_on_c, 5, 71, 109
9, 12250, Control_c, 5, 64, 0
9, 12280, Note_off_c, 5, 64, 64
9, 12295, Note_off_c, 5, 67, 64
9, 12300, Note_on_c, 5, 64, 83
9, 12335, Note_off_c, 5, 64, 64
9, 12355, Note_off_c, 5, 40, 64
9, 12360, Note_on_c, 5, 43, 100
9, 12360, Note_on_c, 5, 62, 105
9, 12360, Note_on_c, 5, 65, 107
9, 12360, Note_on_c, 5, 67, 103
9, 12400, Note_off_c, 5, 62, 64
9, 12415, Note_off_c, 5, 65, 64
9, 12420, Note_off_c, 5, 67, 64
9, 12420, Note_off_c, 5, 71, 64
9, 12420, Note_on_c, 5, 62, 90
9, 12450, Note_off_c, 5, 62, 64
9, 12480, Note_on_c, 5, 36, 112
9, 12480, Note_on_c, 5, 64, 106
9, 12480, Note_on_c, 5, 67, 109
9, 12480, Note_on_c, 5, 72, 111
9, 12480, Control_c, 5, 64, 127
9, 12485, Note_off_c, 5, 43, 64
9, 12565, Note_off_c, 5, 64, 64
9, 12585, Note_off_c, 5, 67, 64
9, 12590, Note_off_c, 5, 36, 64
9, 12590, Control_c, 5, 64, 0
9, 12600, Note_on_c, 5, 41, 94
9, 12600, Note_on_c, 5, 43, 82
9, 12600, Note_on_c, 5, 65, 105
9, 12600, Note_on_c, 5, 69, 113
9, 12675, Note_off_c, 5, 72, 64
9, 12695, Note_off_c, 5, 65, 64
9, 12705, Note_off_c, 5, 69, 64
9, 12705, Note_off_c, 5, 43, 64
9, 12715, Note_off_c, 5, 41, 64
9, 12720, Note_on_c, 5, 40, 97
9, 12720, Note_on_c, 5, 64, 108
9, 12720, Note_on_c, 5, 67, 108
9, 12720, Note_on_c, 5, 71, 106
9, 12810, Note_off_c, 5, 67, 64
9, 12820, Note_off_c, 5, 71, 64
9, 12825, Note_off_c, 5, 64, 64
9, 12835, Note_off_c, 5, 40, 64
9, 12840, Note_on_c, 5, 38, 96
9, 12840, Note_on_c, 5, 62, 106
9, 12840, Note_on_c, 5, 65, 108
9, 12840, Note_on_c, 5, 69, 104
9, 12910, Note_off_c, 5, 62, 64
9, 12915, Note_off_c, 5, 65, 64
9, 12920, Note_off_c, 5, 69, 64
9, 12945, Note_off_c, 5, 38, 64
9, 12960, Note_on_c, 5, 48, 113
9, 12960, Note_on_c, 5, 64, 116
9, 12960, Note_on_c, 5, 67, 127
9, 12960, Note_on_c, 5, 72, 122
9, 12965, Control_c, 5, 64, 127
9, 12990, Note_off_c, 5, 64, 64
9, 13015, Note_off_c, 5, 72, 64
9, 13020, Note_off_c, 5, 67, 64
9, 13020, Note_on_c, 5, 64, 90
9, 13060, Note_off_c, 5, 64, 64
9, 13070, Note_off_c, 5, 48, 64
9, 13080, Note_on_c, 5, 67, 113
9, 13080, Note_on_c, 5, 71, 105
9, 13140, Note_on_c, 5, 55, 127
9, 13145, Control_c, 5, 64, 0
9, 13190, Note_off_c, 5, 55, 64
9, 13200, Note_on_c, 5, 52, 122
9, 13200, Note_on_c, 5, 64, 97
9, 13225, Note_off_c, 5, 64, 64
9, 13255, Note_off_c, 5, 71, 64
9, 13255, Note_off_c, 5, 67, 64
9, 13260, Note_on_c, 5, 64, 107
9, 13320, Note_on_c, 5, 67, 100
9, 13380, Note_on_c, 5, 71, 105
9, 13385, Note_off_c, 5, 67, 64
9, 13405, Note_off_c, 5, 71, 64
9, 13415, Note_off_c, 5, 64, 64
9, 13440, Note_off_c, 5, 52, 64
9, 13440, Note_on_c, 5, 53, 119
9, 13440, Note_on_c, 5, 65, 113
9, 13440, Note_on_c, 5, 69, 111
9, 13495, Note_off_c, 5, 69, 64
9, 13500, Note_on_c, 5, 60, 105
9, 13550, Note_off_c, 5, 60, 64
9, 13560, Note_on_c, 5, 69, 111
9, 13620, Note_off_c, 5, 53, 64
9, 13620, Note_on_c, 5, 55, 111
9, 13660, Note_off_c, 5, 69, 64
9, 13670, Note_off_c, 5, 65, 64
9, 13680, Note_on_c, 5, 43, 127
9, 13690, Note_off_c, 5, 55, 64
9, 13740, Note_on_c, 5, 59, 105
9, 13780, Note_off_c, 5, 59, 64
9, 13800, Note_on_c, 5, 59, 111
9, 13800, Note_on_c, 5, 62, 115
9, 13800, Note_on_c, 5, 67, 114
9, 13845, Note_off_c, 5, 59, 64
9, 13855, Note_off_c, 5, 62, 64
9, 13855, Control_c, 5, 64, 127
9, 13860, Note_on_c, 5, 55, 126
9, 13865, Note_off_c, 5, 67, 64
9, 13910, Control_c, 5, 64, 0
9, 13920, Note_off_c, 5, 55, 64
9, 13920, Note_on_c, 5, 48, 127
9, 13920, Note_on_c, 5, 64, 101
9, 13920, Note_on_c, 5, 67, 111
9, 13920, Note_on_c, 5, 72, 116
9, 13925, Note_off_c, 5, 43, 64
9, 13940, Note_off_c, 5, 64, 64
9, 13980, Note_on_c, 5, 64, 94
9, 13985, Note_off_c, 5, 72, 64
9, 13985, Note_off_c, 5, 67, 64
9, 13985, Control_c, 5, 64, 127
9, 14025, Note_off_c, 5, 64, 64
9, 14040, Note_on_c, 5, 64, 96
9, 14040, Note_on_c, 5, 67, 110
9, 14040, Note_on_c, 5, 72, 109
9, 14055, Note_off_c, 5, 64, 64
9, 14100, Note_on_c, 5, 64, 122
9, 14105, Note_off_c, 5, 67, 64
9, 14125, Control_c, 5, 64, 0
9, 14140, Note_off_c, 5, 72, 64
9, 14145, Note_off_c, 5, 64, 64
9, 14155, Note_off_c, 5, 48, 64
9, 14160, Note_on_c, 5, 45, 123
9, 14160, Note_on_c, 5, 64, 101
9, 14160, Note_on_c, 5, 69, 105
9, 14160, Note_on_c, 5, 72, 105
9, 14170, Control_c, 5, 64, 127
9, 14185, Note_off_c, 5, 64, 64
9, 14220, Note_on_c, 5, 64, 93
9, 14240, Note_off_c, 5, 72, 64
9, 14245, Note_off_c, 5, 69, 64
9, 14255, Note_off_c, 5, 64, 64
9, 14280, Note_on_c, 5, 64, 106
9, 14280, Note_on_c, 5, 67, 107
9, 14280, Note_on_c, 5, 69, 108
9, 14280, Note_on_c, 5, 72, 107
9, 14300, Note_off_c, 5, 64, 64
9, 14320, Note_off_c, 5, 45, 64
9, 14335, Note_off_c, 5, 72, 64
9, 14335, Note_off_c, 5, 69, 64
9, 14340, Note_off_c, 5, 67, 64
9, 14340, Note_on_c, 5, 45, 122
9, 14340, Note_on_c, 5, 64, 109
9, 14380, Note_off_c, 5, 64, 64
9, 14380, Control_c, 5, 64, 0
9, 14395, Note_off_c, 5, 45, 64
9, 14400, Note_on_c, 5, 36, 113
9, 14400, Note_on_c, 5, 38, 110
9, 14400, Note_on_c, 5, 66, 127
9, 14400, Note_on_c, 5, 69, 116
9, 14410, Control_c, 5, 64, 127
9, 14415, Note_off_c, 5, 36, 64
9, 14460, Note_on_c, 5, 50, 127
9, 14475, Note_off_c, 5, 69, 64
9, 14475, Note_off_c, 5, 66, 64
9, 14520, Note_on_c, 5, 64, 112
9, 14520, Note_on_c, 5, 69, 113
9, 14565, Note_off_c, 5, 64, 64
9, 14580, Note_on_c, 5, 62, 99
9, 14580, Note_on_c, 5, 66, 102
9, 14610, Control_c, 5, 64, 0
9, 14615, Note_off_c, 5, 66, 64
9, 14615, Note_off_c, 5, 62, 64
9, 14615, Note_off_c, 5, 69, 64
9, 14635, Note_off_c, 5, 50, 64
9, 14635, Note_off_c, 5, 38, 64
9, 14640, Note_on_c, 5, 43, 127
9, 14640, Control_c, 5, 64, 127
9, 14700, Note_on_c, 5, 59, 88
9, 14700, Note_on_c, 5, 62, 89
9, 14730, Note_off_c, 5, 62, 64
9, 14735, Note_off_c, 5, 59, 64
9, 14760, Note_on_c, 5, 59, 120
9, 14760, Note_on_c, 5, 62, 111
9, 14760, Note_on_c, 5, 65, 120
9, 14760, Note_on_c, 5, 67, 103
9, 14790, Control_c, 5, 64, 0
9, 14795, Note_off_c, 5, 59, 64
9, 14805, Note_off_c, 5, 62, 64
9, 14815, Note_off_c, 5, 65, 64
9, 14820, Note_off_c, 5, 67, 64
9, 14820, Note_on_c, 5, 55, 118
9, 14880, Note_off_c, 5, 43, 64
9, 14880, Note_on_c, 5, 48, 127
9, 14880, Note_on_c, 5, 64, 107
9, 14880, Note_on_c, 5, 67, 115
9, 14880, Note_on_c, 5, 72, 118
9, 14885, Note_off_c, 5, 55, 64
9, 14895, Control_c, 5, 64, 127
9, 14910, Note_off_c, 5, 64, 64
9, 14940, Note_off_c, 5, 67, 64
9, 14940, Note_on_c, 5, 64, 86
9, 14945, Note_off_c, 5, 72, 64
9, 14980, Note_off_c, 5, 64, 64
9, 15000, Note_on_c, 5, 64, 115
9, 15000, Note_on_c, 5, 68, 124
9, 15000, Note_on_c, 5, 71, 120
9, 15005, Control_c, 5, 64, 0
9, 15020, Note_off_c, 5, 64, 64
9, 15050, Note_off_c, 5, 48, 64
9, 15060, Note_on_c, 5, 47, 127
9, 15095, Note_off_c, 5, 71, 64
9, 15105, Note_off_c, 5, 68, 64
9, 15120, Note_off_c, 5, 47, 64
9, 15120, Note_on_c, 5, 45, 105
9, 15120, Note_on_c, 5, 60, 115
9, 15120, Note_on_c, 5, 64, 127
9, 15120, Note_on_c, 5, 69, 120
9, 15125, Control_c, 5, 64, 127
9, 15140, Note_off_c, 5, 60, 64
9, 15180, Note_on_c, 5, 60, 105
9, 15220, Control_c, 5, 64, 0
9, 15225, Note_off_c, 5, 69, 64
9, 15230, Note_off_c, 5, 60, 64
9, 15230, Note_off_c, 5, 64, 64
9, 15240, Note_off_c, 5, 45, 64
9, 15240, Note_on_c, 5, 43, 127
9, 15240, Note_on_c, 5, 60, 97
9, 15240, Note_on_c, 5, 64, 107
9, 15240, Note_on_c, 5, 67, 115
9, 15270, Note_off_c, 5, 60, 64
9, 15300, Note_on_c, 5, 60, 112
9, 15305, Note_off_c, 5, 64, 64
9, 15335, Note_off_c, 5, 67, 64
9, 15340, Note_off_c, 5, 60, 64
9, 15355, Note_off_c, 5, 43, 64
9, 15360, Note_on_c, 5, 41, 111
9, 15360, Note_on_c, 5, 60, 102
9, 15360, Note_on_c, 5, 65, 116
9, 15360, Note_on_c, 5, 69, 118
9, 15365, Control_c, 5, 64, 127
9, 15395, Note_off_c, 5, 60, 64
9, 15420, Note_on_c, 5, 60, 106
9, 15460, Control_c, 5, 64, 0
9, 15465, Note_off_c, 5, 60, 64
9, 15470, Note_off_c, 5, 69, 64
9, 15475, Note_off_c, 5, 65, 64
9, 15480, Note_off_c, 5, 41, 64
9, 15480, Note_on_c, 5, 43, 120
9, 15480, Note_on_c, 5, 67, 109
9, 15480, Note_on_c, 5, 71, 107
9, 15535, Note_off_c, 5, 71, 64
9, 15535, Note_off_c, 5, 67, 64
9, 15540, Note_on_c, 5, 62, 87
9, 15580, Note_off_c, 5, 62, 64
9, 15590, Note_off_c, 5, 43, 64
9, 15600, Note_on_c, 5, 36, 122
9, 15600, Note_on_c, 5, 64, 92
9, 15600, Note_on_c, 5, 67, 106
9, 15600, Note_on_c, 5, 72, 107
9, 15600, Control_c, 5, 64, 127
9, 15640, Note_off_c, 5, 64, 64
9, 15660, Note_on_c, 5, 48, 94
9, 15675, Note_off_c, 5, 72, 64
9, 15675, Note_off_c, 5, 67, 64
9, 15690, Note_on_c, 5, 64, 118
9, 15720, Note_on_c, 5, 67, 93
9, 15740, Note_off_c, 5, 64, 64
9, 15750, Note_on_c, 5, 72, 102
9, 15760, Note_off_c, 5, 67, 64
9, 15770, Note_off_c, 5, 36, 64
9, 15780, Note_on_c, 5, 64, 119
9, 15825, Note_off_c, 5, 72, 64
9, 15825, Control_c, 5, 64, 0
9, 15830, Note_off_c, 5, 64, 64
9, 15830, Note_off_c, 5, 48, 64
9, 15840, Note_on_c, 5, 45, 124
9, 15840, Note_on_c, 5, 64, 90
9, 15840, Note_on_c, 5, 69, 101
9, 15840, Note_on_c, 5, 72, 111
9, 15855, Note_off_c, 5, 64, 64
9, 15860, Control_c, 5, 64, 127
9, 15900, Note_off_c, 5, 69, 64
9, 15900, Note_on_c, 5, 64, 88
9, 15905, Note_off_c, 5, 72, 64
9, 15940, Note_off_c, 5, 64, 64
9, 15960, Note_on_c, 5, 64, 108
9, 15960, Note_on_c, 5, 69, 108
9, 15960, Note_on_c, 5, 72, 108
9, 15985, Note_off_c, 5, 45, 64
9, 15990, Note_off_c, 5, 64, 64
9, 16020, Note_off_c, 5, 72, 64
9, 16020, Note_on_c, 5, 45, 103
9, 16020, Note_on_c, 5, 64, 119
9, 16025, Note_off_c, 5, 69, 64
9, 16060, Note_off_c, 5, 64, 64
9, 16070, Note_off_c, 5, 45, 64
9, 16080, Note_on_c, 5, 40, 107
9, 16080, Note_on_c, 5, 64, 106
9, 16080, Note_on_c, 5, 67, 113
9, 16080, Note_on_c, 5, 71, 109
9, 16090, Control_c, 5, 64, 0
9, 16120, Note_off_c, 5, 64, 64
9, 16135, Note_off_c, 5, 67, 64
9, 16140, Note_on_c, 5, 64, 83
9, 16175, Note_off_c, 5, 64, 64
9, 16195, Note_off_c, 5, 40, 64
9, 16200, Note_on_c, 5, 43, 100
9, 16200, Note_on_c, 5, 62, 105
9, 16200, Note_on_c, 5, 65, 107
9, 16200, Note_on_c, 5, 67, 103
9, 16240, Note_off_c, 5, 62, 64
9, 16255, Note_off_c, 5, 65, 64
9, 16260, Note_off_c, 5, 67, 64
9, 16260, Note_off_c, 5, 71, 64
9, 16260, Note_on_c, 5, 62, 90
9, 16290, Note_off_c, 5, 62, 64
9, 16320, Note_on_c, 5, 36, 112
9, 16320, Note_on_c, 5, 64, 106
9, 16320, Note_on_c, 5, 67, 109
9, 16320, Note_on_c, 5, 72, 111
9, 16320, Control_c, 5, 64, 127
9, 16325, Note_off_c, 5, 43, 64
9, 16405, Note_off_c, 5, 64, 64
9, 16425, Note_off_c, 5, 67, 64
9, 16430, Note_off_c, 5, 36, 64
9, 16430, Control_c, 5, 64, 0
9, 16440, Note_on_c, 5, 41, 94
9, 16440, Note_on_c, 5, 43, 82
9, 16440, Note_on_c, 5, 65, 105
9, 16440, Note_on_c, 5, 69, 113
9, 16515, Note_off_c, 5, 72, 64
9, 16535, Note_off_c, 5, 65, 64
9, 16545, Note_off_c, 5, 69, 64
9, 16545, Note_off_c, 5, 43, 64
9, 16555, Note_off_c, 5, 41, 64
9, 16560, Note_on_c, 5, 40, 97
9, 16560, Note_on_c, 5, 64, 108
9, 16560, Note_on_c, 5, 67, 108
9, 16560, Note_on_c, 5, 71, 106
9, 16650, Note_off_c, 5, 67, 64
9, 16660, Note_off_c, 5, 71, 64
9, 16665, Note_off_c, 5, 64, 64
9, 16675, Note_off_c, 5, 40, 64
9, 16680, Note_on_c, 5, 38, 96
9, 16680, Note_on_c, 5, 62, 106
9, 16680, Note_on_c, 5, 65, 108
9, 16680, Note_on_c, 5, 69, 104
9, 16750, Note_off_c, 5, 62, 64
9, 16755, Note_off_c, 5, 65, 64
9, 16760, Note_off_c, 5, 69, 64
9, 16785, Note_off_c, 5, 38, 64
9, 16800, Note_on_c, 5, 48, 113
9, 16800, Note_on_c, 5, 64, 116
9, 16800, Note_on_c, 5, 67, 127
9, 16800, Note_on_c, 5, 72, 122
9, 16805, Control_c, 5, 64, 127
9, 16830, Note_off_c, 5, 64, 64
9, 16855, Note_off_c, 5, 72, 64
9, 16860, Note_off_c, 5, 67, 64
9, 16860, Note_on_c, 5, 64, 90
9, 16900, Note_off_c, 5, 64, 64
9, 16910, Note_off_c, 5, 48, 64
9, 16920, Note_on_c, 5, 67, 113
9, 16920, Note_on_c, 5, 71, 105
9, 16980, Note_on_c, 5, 55, 127
9, 16985, Control_c, 5, 64, 0
9, 17030, Note_off_c, 5, 55, 64
9, 17040, Note_on_c, 5, 52, 122
9, 17040, Note_on_c, 5, 64, 97
9, 17065, Note_off_c, 5, 64, 64
9, 17095, Note_off_c, 5, 71, 64
9, 17095, Note_off_c, 5, 67, 64
9, 17100, Note_on_c, 5, 64, 107
9, 17160, Note_on_c, 5, 67, 100
9, 17220, Note_on_c, 5, 71, 105
9, 17225, Note_off_c, 5, 67, 64
9, 17245, Note_off_c, 5, 71, 64
9, 17255, Note_off_c, 5, 64, 64
9, 17280, Note_off_c, 5, 52, 64
9, 17280, Note_on_c, 5, 53, 119
9, 17280, Note_on_c, 5, 65, 113
9, 17280, Note_on_c, 5, 69, 111
9, 17335, Note_off_c, 5, 69, 64
9, 17340, Note_on_c, 5, 60, 105
9, 17390, Note_off_c, 5, 60, 64
9, 17400, Note_on_c, 5, 69, 111
9, 17460, Note_off_c, 5, 53, 64
9, 17460, Note_on_c, 5, 55, 111
9, 17500, Note_off_c, 5, 69, 64
9, 17510, Note_off_c, 5, 65, 64
9, 17520, Note_on_c, 5, 43, 127
9, 17530, Note_off_c, 5, 55, 64
9, 17580, Note_on_c, 5, 59, 105
9, 17620, Note_off_c, 5, 59, 64
9, 17640, Note_on_c, 5, 59, 111
9, 17640, Note_on_c, 5, 62, 115
9, 17640, Note_on_c, 5, 67, 114
9, 17685, Note_off_c, 5, 59, 64
9, 17695, Note_off_c, 5, 62, 64
9, 17695, Control_c, 5, 64, 127
9, 17700, Note_on_c, 5, 55, 126
9, 17705, Note_off_c, 5, 67, 64
9, 17750, Control_c, 5, 64, 0
9, 17760, Note_off_c, 5, 55, 64
9, 17760, Note_on_c, 5, 48, 127
9, 17760, Note_on_c, 5, 64, 101
9, 17760, Note_on_c, 5, 67, 111
9, 17760, Note_on_c, 5, 72, 116
9, 17765, Note_off_c, 5, 43, 64
9, 17780, Note_off_c, 5, 64, 64
9, 17820, Note_on_c, 5, 64, 94
9, 17825, Note_off_c, 5, 72, 64
9, 17825, Note_off_c, 5, 67, 64
9, 17825, Control_c, 5, 64, 127
9, 17865, Note_off_c, 5, 64, 64
9, 17880, Note_on_c, 5, 64, 96
9, 17880, Note_on_c, 5, 67, 110
9, 17880, Note_on_c, 5, 72, 109
9, 17895, Note_off_c, 5, 64, 64
9, 17940, Note_on_c, 5, 64, 122
9, 17945, Note_off_c, 5, 67, 64
9, 17965, Control_c, 5, 64, 0
9, 17980, Note_off_c, 5, 72, 64
9, 17985, Note_off_c, 5, 64, 64
9, 17995, Note_off_c, 5, 48, 64
9, 18000, Note_on_c, 5, 45, 123
9, 18000, Note_on_c, 5, 64, 101
9, 18000, Note_on_c, 5, 69, 105
9, 18000, Note_on_c, 5, 72, 105
9, 18010, Control_c, 5, 64, 127
9, 18025, Note_off_c, 5, 64, 64
9, 18060, Note_on_c, 5, 64, 93
9, 18080, Note_off_c, 5, 72, 64
9, 18085, Note_off_c, 5, 69, 64
9, 18095, Note_off_c, 5, 64, 64
9, 18120, Note_on_c, 5, 64, 106
9, 18120, Note_on_c, 5, 67, 107
9, 18120, Note_on_c, 5, 69, 108
9, 18120, Note_on_c, 5, 72, 107
9, 18140, Note_off_c, 5, 64, 64
9, 18160, Note_off_c, 5, 45, 64
9, 18175, Note_off_c, 5, 72, 64
9, 18175, Note_off_c, 5, 69, 64
9, 18180, Note_off_c, 5, 67, 64
9, 18180, Note_on_c, 5, 45, 122
9, 18180, Note_on_c, 5, 64, 109
9, 18220, Note_off_c, 5, 64, 64
9, 18220, Control_c, 5, 64, 0
9, 18235, Note_off_c, 5, 45, 64
9, 18240, Note_on_c, 5, 36, 113
9, 18240, Note_on_c, 5, 38, 110
9, 18240, Note_on_c, 5, 66, 127
9, 18240, Note_on_c, 5, 69, 116
9, 18250, Control_c, 5, 64, 127
9, 18255, Note_off_c, 5, 36, 64
9, 18300, Note_on_c, 5, 50, 127
9, 18315, Note_off_c, 5, 69, 64
9, 18315, Note_off_c, 5, 66, 64
9, 18360, Note_on_c, 5, 64, 112
9, 18360, Note_on_c, 5, 69, 113
9, 18405, Note_off_c, 5, 64, 64
9, 18420, Note_on_c, 5, 62, 99
9, 18420, Note_on_c, 5, 66, 102
9, 18450, Control_c, 5, 64, 0
9, 18455, Note_off_c, 5, 66, 64
9, 18455, Note_off_c, 5, 62, 64
9, 18455, Note_off_c, 5, 69, 64
9, 18475, Note_off_c, 5, 50, 64
9, 18475, Note_off_c, 5, 38, 64
9, 18480, Note_on_c, 5, 43, 127
9, 18480, Control_c, 5, 64, 127
9, 18540, Note_on_c, 5, 59, 88
9, 18540, Note_on_c, 5, 62, 89
9, 18570, Note_off_c, 5, 62, 64
9, 18575, Note_off_c, 5, 59, 64
9, 18600, Note_on_c, 5, 59, 120
9, 18600, Note_on_c, 5, 62, 111
9, 18600, Note_on_c, 5, 65, 120
9, 18600, Note_on_c, 5, 67, 103
9, 18630, Control_c, 5, 64, 0
9, 18635, Note_off_c, 5, 59, 64
9, 18645, Note_off_c, 5, 62, 64
9, 18655, Note_off_c, 5, 65, 64
9, 18660, Note_off_c, 5, 67, 64
9, 18660, Note_on_c, 5, 55, 118
9, 18720, Note_off_c, 5, 43, 64
9, 18720, Note_on_c, 5, 48, 127
9, 18720, Note_on_c, 5, 64, 107
9, 18720, Note_on_c, 5, 67, 115
9, 18720, Note_on_c, 5, 72, 118
9, 18725, Note_off_c, 5, 55, 64
9, 18735, Control_c, 5, 64, 127
9, 18750, Note_off_c, 5, 64, 64
9, 18780, Note_off_c, 5, 67, 64
9, 18780, Note_on_c, 5, 64, 86
9, 18785, Note_off_c, 5, 72, 64
9, 18820, Note_off_c, 5, 64, 64
9, 18840, Note_on_c, 5, 64, 115
9, 18840, Note_on_c, 5, 68, 124
9, 18840, Note_on_c, 5, 71, 120
9, 18845, Control_c, 5, 64, 0
9, 18860, Note_off_c, 5, 64, 64
9, 18890, Note_off_c, 5, 48, 64
9, 18900, Note_on_c, 5, 47, 127
9, 18935, Note_off_c, 5, 71, 64
9, 18945, Note_off_c, 5, 68, 64
9, 18960, Note_off_c, 5, 47, 64
9, 18960, Note_on_c, 5, 45, 105
9, 18960, Note_on_c, 5, 60, 115
9, 18960, Note_on_c, 5, 64, 127
9, 18960, Note_on_c, 5, 69, 120
9, 18965, Control_c, 5, 64, 127
9, 18980, Note_off_c, 5, 60, 64
9, 19020, Note_on_c, 5, 60, 105
9, 19060, Control_c, 5, 64, 0
9, 19065, Note_off_c, 5, 69, 64
9, 19070, Note_off_c, 5, 60, 64
9, 19070, Note_off_c, 5, 64, 64
9, 19080, Note_off_c, 5, 45, 64
9, 19080, Note_on_c, 5, 43, 127
9, 19080, Note_on_c, 5, 60, 97
9, 19080, Note_on_c, 5, 64, 107
9, 19080, Note_on_c, 5, 67, 115
9, 19110, Note_off_c, 5, 60, 64
9, 19140, Note_on_c, 5, 60, 112
9, 19145, Note_off_c, 5, 64, 64
9, 19175, Note_off_c, 5, 67, 64
9, 19180, Note_off_c, 5, 60, 64
9, 19195, Note_off_c, 5, 43, 64
9, 19200, Note_on_c, 5, 41, 111
9, 19200, Note_on_c, 5, 60, 102
9, 19200, Note_on_c, 5, 65, 116
9, 19200, Note_on_c, 5, 69, 118
9, 19205, Control_c, 5, 64, 127
9, 19235, Note_off_c, 5, 60, 64
9, 19260, Note_on_c, 5, 60, 106
9, 19300, Control_c, 5, 64, 0
9, 19305, Note_off_c, 5, 60, 64
9, 19310, Note_off_c, 5, 69, 64
9, 19315, Note_off_c, 5, 65, 64
9, 19320, Note_off_c, 5, 41, 64
9, 19320, Note_on_c, 5, 43, 120
9, 19320, Note_on_c, 5, 67, 109
9, 19320, Note_on_c, 5, 71, 107
9, 19375, Note_off_c, 5, 71, 64
9, 19375, Note_off_c, 5, 67, 64
9, 19380, Note_on_c, 5, 62, 87
9, 19420, Note_off_c, 5, 62, 64
9, 19430, Note_off_c, 5, 43, 64
9, 19440, Note_on_c, 5, 36, 122
9, 19440, Note_on_c, 5, 64, 92
9, 19440, Note_on_c, 5, 67, 106
9, 19440, Note_on_c, 5, 72, 107
9, 19440, Control_c, 5, 64, 127
9, 19480, Note_off_c, 5, 64, 64
9, 19500, Note_on_c, 5, 48, 94
9, 19515, Note_off_c, 5, 72, 64
9, 19515, Note_off_c, 5, 67, 64
9, 19530, Note_on_c, 5, 64, 118
9, 19560, Note_on_c, 5, 67, 93
9, 19580, Note_off_c, 5, 64, 64
9, 19590, Note_on_c, 5, 72, 102
9, 19600, Note_off_c, 5, 67, 64
9, 19610, Note_off_c, 5, 36, 64
9, 19620, Note_on_c, 5, 64, 119
9, 19665, Note_off_c, 5, 72, 64
9, 19665, Control_c, 5, 64, 0
9, 19670, Note_off_c, 5, 64, 64
9, 19670, Note_off_c, 5, 48, 64
9, 19680, Note_on_c, 5, 45, 124
9, 19680, Note_on_c, 5, 64, 90
9, 19680, Note_on_c, 5, 69, 101
9, 19680, Note_on_c, 5, 72, 111
9, 19695, Note_off_c, 5, 64, 64
9, 19700, Control_c, 5, 64, 127
9, 19740, Note_off_c, 5, 69, 64
9, 19740, Note_on_c, 5, 64, 88
9, 19745, Note_off_c, 5, 72, 64
9, 19780, Note_off_c, 5, 64, 64
9, 19800, Note_on_c, 5, 64, 108
9, 19800, Note_on_c, 5, 69, 108
9, 19800, Note_on_c, 5, 72, 108
9, 19825, Note_off_c, 5, 45, 64
9, 19830, Note_off_c, 5, 64, 64
9, 19860, Note_off_c, 5, 72, 64
9, 19860, Note_on_c, 5, 45, 103
9, 19860, Note_on_c, 5, 64, 119
9, 19865, Note_off_c, 5, 69, 64
9, 19900, Note_off_c, 5, 64, 64
9, 19910, Note_off_c, 5, 45, 64
9, 19920, Note_on_c, 5, 40, 107
9, 19920, Note_on_c, 5, 64, 106
9, 19920, Note_on_c, 5, 67, 113
9, 19920, Note_on_c, 5, 71, 109
9, 19930, Control_c, 5, 64, 0
9, 19960, Note_off_c, 5, 64, 64
9, 19975, Note_off_c, 5, 67, 64
9, 19980, Note_on_c, 5, 64, 83
9, 20015, Note_off_c, 5, 64, 64
9, 20035, Note_off_c, 5, 40, 64
9, 20040, Note_on_c, 5, 43, 100
9, 20040, Note_on_c, 5, 62, 105
9, 20040, Note_on_c, 5, 65, 107
9, 20040, Note_on_c, 5, 67, 103
9, 20080, Note_off_c, 5, 62, 64
9, 20095, Note_off_c, 5, 65, 64
9, 20100, Note_off_c, 5, 67, 64
9, 20100, Note_off_c, 5, 71, 64
9, 20100, Note_on_c, 5, 62, 90
9, 20130, Note_off_c, 5, 62, 64
9, 20160, Note_on_c, 5, 36, 112
9, 20160, Note_on_c, 5, 64, 106
9, 20160, Note_on_c, 5, 67, 109
9, 20160, Note_on_c, 5, 72, 111
9, 20160, Control_c, 5, 64, 127
9, 20165, Note_off_c, 5, 43, 64
9, 20245, Note_off_c, 5, 64, 64
9, 20265, Note_off_c, 5, 67, 64
9, 20270, Note_off_c, 5, 36, 64
9, 20270, Control_c, 5, 64, 0
9, 20280, Note_on_c, 5, 41, 94
9, 20280, Note_on_c, 5, 43, 82
9, 20280, Note_on_c, 5, 65, 105
9, 20280, Note_on_c, 5, 69, 113
9, 20355, Note_off_c, 5, 72, 64
9, 20375, Note_off_c, 5, 65, 64
9, 20385, Note_off_c, 5, 69, 64
9, 20385, Note_off_c, 5, 43, 64
9, 20395, Note_off_c, 5, 41, 64
9, 20400, Note_on_c, 5, 40, 97
9, 20400, Note_on_c, 5, 64, 108
9, 20400, Note_on_c, 5, 67, 108
9, 20400, Note_on_c, 5, 71, 106
9, 20490, Note_off_c, 5, 67, 64
9, 20500, Note_off_c, 5, 71, 64
9, 20505, Note_off_c, 5, 64, 64
9, 20515, Note_off_c, 5, 40, 64
9, 20520, Note_on_c, 5, 38, 96
9, 20520, Note_on_c, 5, 62, 106
9, 20520, Note_on_c, 5, 65, 108
9, 20520, Note_on_c, 5, 69, 104
9, 20590, Note_off_c, 5, 62, 64
9, 20595, Note_off_c, 5, 65, 64
9, 20600, Note_off_c, 5, 69, 64
9, 20625, Note_off_c, 5, 38, 64
9, 20640, Note_on_c, 5, 36, 115
9, 20640, Note_on_c, 5, 64, 99
9, 20640, Note_on_c, 5, 67, 111
9, 20640, Note_on_c, 5, 72, 108
9, 20640, Control_c, 5, 64, 127
9, 20675, Note_off_c, 5, 64, 64
9, 20700, Note_on_c, 5, 64, 85
9, 20705, Note_off_c, 5, 67, 64
9, 20710, Note_off_c, 5, 72, 64
9, 20720, Note_off_c, 5, 64, 64
9, 20760, Note_off_c, 5, 36, 64
9, 20760, Note_on_c, 5, 62, 85
9, 20760, Note_on_c, 5, 67, 111
9, 20760, Note_on_c, 5, 71, 108
9, 20770, Control_c, 5, 64, 0
9, 20780, Note_off_c, 5, 62, 64
9, 20820, Note_on_c, 5, 43, 127
9, 20875, Note_off_c, 5, 71, 64
9, 20880, Note_off_c, 5, 67, 64
9, 20880, Note_on_c, 5, 40, 105
9, 20880, Note_on_c, 5, 64, 108
9, 20880, Note_on_c, 5, 67, 112
9, 20880, Note_on_c, 5, 71, 112
9, 20885, Note_off_c, 5, 43, 64
9, 20940, Note_on_c, 5, 52, 127
9, 20960, Note_off_c, 5, 64, 64
9, 21000, Note_off_c, 5, 67, 64
9, 21000, Note_on_c, 5, 64, 107
9, 21025, Note_off_c, 5, 52, 64
9, 21025, Note_off_c, 5, 71, 64
9, 21060, Note_on_c, 5, 52, 105
9, 21090, Note_off_c, 5, 64, 64
9, 21095, Note_off_c, 5, 40, 64
9, 21120, Note_off_c, 5, 52, 64
9, 21120, Note_on_c, 5, 41, 127
9, 21120, Note_on_c, 5, 60, 97
9, 21120, Note_on_c, 5, 65, 113
9, 21120, Note_on_c, 5, 69, 113
9, 21125, Control_c, 5, 64, 127
9, 21180, Note_off_c, 5, 69, 64
9, 21180, Note_off_c, 5, 60, 64
9, 21180, Note_on_c, 5, 53, 116
9, 21185, Note_off_c, 5, 65, 64
9, 21235, Note_off_c, 5, 53, 64
9, 21240, Note_on_c, 5, 60, 126
9, 21240, Note_on_c, 5, 65, 127
9, 21240, Note_on_c, 5, 69, 119
9, 21300, Note_off_c, 5, 69, 64
9, 21300, Note_off_c, 5, 60, 64
9, 21300, Note_on_c, 5, 53, 127
9, 21310, Note_off_c, 5, 65, 64
9, 21325, Note_off_c, 5, 41, 64
9, 21330, Control_c, 5, 64, 0
9, 21350, Note_off_c, 5, 53, 64
9, 21360, Note_on_c, 5, 43, 122
9, 21360, Note_on_c, 5, 62, 98
9, 21360, Note_on_c, 5, 67, 101
9, 21360, Note_on_c, 5, 71, 108
9, 21370, Control_c, 5, 64, 127
9, 21415, Note_off_c, 5, 62, 64
9, 21420, Note_on_c, 5, 55, 116
9, 21430, Note_off_c, 5, 71, 64
9, 21435, Note_off_c, 5, 67, 64
9, 21450, Note_off_c, 5, 55, 64
9, 21450, Note_on_c, 5, 62, 115
9, 21480, Note_on_c, 5, 50, 101
9, 21490, Note_off_c, 5, 62, 64
9, 21510, Note_on_c, 5, 62, 108
9, 21510, Note_on_c, 5, 67, 112
9, 21510, Note_on_c, 5, 71, 112
9, 21540, Note_on_c, 5, 55, 127
9, 21560, Note_off_c, 5, 62, 64
9, 21565, Note_off_c, 5, 71, 64
9, 21570, Control_c, 5, 64, 0
9, 21575, Note_off_c, 5, 67, 64
9, 21590, Note_off_c, 5, 55, 64
9, 21590, Note_off_c, 5, 50, 64
9, 21600, Note_on_c, 5, 48, 127
9, 21600, Note_on_c, 5, 64, 110
9, 21600, Note_on_c, 5, 67, 120
9, 21600, Note_on_c, 5, 72, 127
9, 21605, Note_off_c, 5, 43, 64
9, 21615, Control_c, 5, 64, 127
9, 21635, Note_off_c, 5, 64, 64
9, 21650, Note_off_c, 5, 72, 64
9, 21660, Note_off_c, 5, 67, 64
9, 21660, Note_on_c, 5, 64, 74
9, 21685, Note_off_c, 5, 64, 64
9, 21720, Note_on_c, 5, 64, 115
9, 21720, Note_on_c, 5, 67, 124
9, 21720, Note_on_c, 5, 72, 112
9, 21730, Note_off_c, 5, 48, 64
9, 21765, Note_off_c, 5, 64, 64
9, 21780, Note_on_c, 5, 48, 123
9, 21790, Note_off_c, 5, 72, 64
9, 21795, Note_off_c, 5, 67, 64
9, 21795, Control_c, 5, 64, 0
9, 21830, Note_off_c, 5, 48, 64
9, 21840, Note_on_c, 5, 45, 120
9, 21840, Note_on_c, 5, 64, 96
9, 21840, Note_on_c, 5, 69, 97
9, 21840, Note_on_c, 5, 72, 105
9, 21840, Control_c, 5, 64, 127
9, 21870, Note_off_c, 5, 64, 64
9, 21900, Note_on_c, 5, 64, 86
9, 21905, Note_off_c, 5, 72, 64
9, 21915, Note_off_c, 5, 69, 64
9, 21930, Note_off_c, 5, 64, 64
9, 21960, Note_on_c, 5, 64, 109
9, 21960, Note_on_c, 5, 67, 108
9, 21960, Note_on_c, 5, 69, 110
9, 21960, Note_on_c, 5, 72, 105
9, 21980, Note_off_c, 5, 45, 64
9, 22010, Note_off_c, 5, 64, 64
9, 22015, Note_off_c, 5, 72, 64
9, 22020, Note_off_c, 5, 69, 64
9, 22020, Note_off_c, 5, 67, 64
9, 22020, Note_on_c, 5, 45, 127
9, 22075, Note_off_c, 5, 45, 64
9, 22080, Note_on_c, 5, 38, 115
9, 22080, Note_on_c, 5, 60, 120
9, 22080, Note_on_c, 5, 62, 114
9, 22080, Note_on_c, 5, 66, 105
9, 22080, Note_on_c, 5, 69, 113
9, 22100, Control_c, 5, 64, 0
9, 22140, Note_off_c, 5, 69, 64
9, 22140, Note_on_c, 5, 50, 127
9, 22150, Note_off_c, 5, 66, 64
9, 22150, Note_off_c, 5, 62, 64
9, 22150, Note_off_c, 5, 60, 64
9, 22185, Control_c, 5, 64, 127
9, 22200, Note_on_c, 5, 60, 113
9, 22200, Note_on_c, 5, 62, 113
9, 22200, Note_on_c, 5, 66, 127
9, 22200, Note_on_c, 5, 69, 124
9, 22205, Note_off_c, 5, 50, 64
9, 22260, Note_off_c, 5, 69, 64
9, 22260, Note_off_c, 5, 62, 64
9, 22260, Note_off_c, 5, 60, 64
9, 22260, Note_on_c, 5, 50, 126
9, 22265, Note_off_c, 5, 66, 64
9, 22315, Note_off_c, 5, 50, 64
9, 22320, Control_c, 5, 64, 0
9, 22320, Note_on_c, 5, 43, 127
9, 22320, Note_on_c, 5, 62, 102
9, 22320, Note_on_c, 5, 67, 101
9, 22320, Note_on_c, 5, 71, 106
9, 22325, Note_off_c, 5, 38, 64
9, 22360, Note_off_c, 5, 62, 64
9, 22370, Control_c, 5, 64, 127
9, 22380, Note_off_c, 5, 67, 64
9, 22380, Note_on_c, 5, 62, 95
9, 22390, Note_off_c, 5, 71, 64
9, 22420, Note_off_c, 5, 62, 64
9, 22440, Note_on_c, 5, 62, 110
9, 22440, Note_on_c, 5, 67, 119
9, 22440, Note_on_c, 5, 71, 112
9, 22500, Note_off_c, 5, 67, 64
9, 22500, Note_off_c, 5, 62, 64
9, 22500, Note_on_c, 5, 55, 126
9, 22505, Note_off_c, 5, 71, 64
9, 22515, Control_c, 5, 64, 0
9, 22550, Note_off_c, 5, 55, 64
9, 22550, Note_off_c, 5, 43, 64
9, 22560, Note_on_c, 5, 48, 127
9, 22560, Note_on_c, 5, 64, 120
9, 22560, Note_on_c, 5, 67, 126
9, 22560, Note_on_c, 5, 72, 111
9, 22565, Control_c, 5, 64, 127
9, 22630, Note_off_c, 5, 72, 64
9, 22630, Note_off_c, 5, 67, 64
9, 22665, Note_off_c, 5, 64, 64
9, 22680, Note_on_c, 5, 47, 106
9, 22680, Note_on_c, 5, 64, 110
9, 22680, Note_on_c, 5, 68, 115
9, 22680, Note_on_c, 5, 71, 120
9, 22695, Note_off_c, 5, 48, 64
9, 22780, Note_off_c, 5, 71, 64
9, 22780, Note_off_c, 5, 64, 64
9, 22780, Control_c, 5, 64, 0
9, 22785, Note_off_c, 5, 68, 64
9, 22790, Note_off_c, 5, 47, 64
9, 22800, Note_on_c, 5, 45, 113
9, 22800, Note_on_c, 5, 60, 118
9, 22800, Note_on_c, 5, 64, 127
9, 22800, Note_on_c, 5, 69, 116
9, 22810, Control_c, 5, 64, 127
9, 22890, Control_c, 5, 64, 0
9, 22895, Note_off_c, 5, 69, 64
9, 22900, Note_off_c, 5, 64, 64
9, 22900, Note_off_c, 5, 60, 64
9, 22910, Note_off_c, 5, 45, 64
9, 22920, Note_on_c, 5, 43, 111
9, 22920, Note_on_c, 5, 60, 107
9, 22920, Note_on_c, 5, 64, 108
9, 22920, Note_on_c, 5, 67, 114
9, 22930, Control_c, 5, 64, 127
9, 23010, Control_c, 5, 64, 0
9, 23020, Note_off_c, 5, 64, 64
9, 23025, Note_off_c, 5, 67, 64
9, 23025, Note_off_c, 5, 60, 64
9, 23035, Note_off_c, 5, 43, 64
9, 23040, Note_on_c, 5, 41, 114
9, 23040, Note_on_c, 5, 60, 102
9, 23040, Note_on_c, 5, 65, 109
9, 23040, Note_on_c, 5, 69, 101
9, 23045, Control_c, 5, 64, 127
9, 23130, Control_c, 5, 64, 0
9, 23135, Note_off_c, 5, 60, 64
9, 23140, Note_off_c, 5, 69, 64
9, 23150, Note_off_c, 5, 65, 64
9, 23150, Note_off_c, 5, 41, 64
9, 23160, Note_on_c, 5, 43, 96
9, 23160, Note_on_c, 5, 45, 92
9, 23160, Note_on_c, 5, 62, 96
9, 23160, Note_on_c, 5, 67, 105
9, 23160, Note_on_c, 5, 71, 106
9, 23170, Note_off_c, 5, 45, 64
9, 23170, Control_c, 5, 64, 127
9, 23245, Control_c, 5, 64, 0
9, 23255, Note_off_c, 5, 71, 64
9, 23255, Note_off_c, 5, 67, 64
9, 23255, Note_off_c, 5, 62, 64
9, 23265, Note_off_c, 5, 43, 64
9, 23280, Note_on_c, 5, 36, 109
9, 23280, Note_on_c, 5, 64, 108
9, 23280, Note_on_c, 5, 67, 113
9, 23280, Note_on_c, 5, 72, 114
9, 23285, Control_c, 5, 64, 127
9, 23340, Note_off_c, 5, 64, 64
9, 23340, Note_on_c, 5, 48, 127
9, 23360, Note_off_c, 5, 72, 64
9, 23365, Note_off_c, 5, 67, 64
9, 23370, Note_on_c, 5, 64, 127
9, 23375, Note_off_c, 5, 48, 64
9, 23400, Note_on_c, 5, 43, 89
9, 23425, Note_off_c, 5, 64, 64
9, 23430, Note_on_c, 5, 67, 106
9, 23460, Note_on_c, 5, 48, 127
9, 23465, Note_off_c, 5, 43, 64
9, 23465, Note_off_c, 5, 36, 64
9, 23500, Note_off_c, 5, 67, 64
9, 23515, Control_c, 5, 64, 0
9, 23520, Note_off_c, 5, 48, 64
9, 23520, Note_on_c, 5, 45, 119
9, 23520, Note_on_c, 5, 64, 100
9, 23520, Note_on_c, 5, 69, 105
9, 23520, Note_on_c, 5, 72, 99
9, 23555, Note_off_c, 5, 64, 64
9, 23560, Control_c, 5, 64, 127
9, 23580, Note_on_c, 5, 64, 78
9, 23600, Note_off_c, 5, 72, 64
9, 23600, Note_off_c, 5, 69, 64
9, 23605, Note_off_c, 5, 64, 64
9, 23640, Note_on_c, 5, 64, 105
9, 23640, Note_on_c, 5, 69, 104
9, 23640, Note_on_c, 5, 72, 106
9, 23665, Note_off_c, 5, 45, 64
9, 23695, Note_off_c, 5, 72, 64
9, 23700, Note_on_c, 5, 45, 112
9, 23705, Note_off_c, 5, 69, 64
9, 23705, Note_off_c, 5, 64, 64
9, 23755, Note_off_c, 5, 45, 64
9, 23760, Note_on_c, 5, 40, 113
9, 23760, Note_on_c, 5, 64, 98
9, 23760, Note_on_c, 5, 67, 102
9, 23760, Note_on_c, 5, 71, 104
9, 23835, Note_off_c, 5, 67, 64
9, 23840, Note_off_c, 5, 71, 64
9, 23845, Note_off_c, 5, 64, 64
9, 23850, Control_c, 5, 64, 0
9, 23875, Note_off_c, 5, 40, 64
9, 23880, Note_on_c, 5, 43, 110
9, 23880, Note_on_c, 5, 62, 108
9, 23880, Note_on_c, 5, 65, 108
9, 23880, Note_on_c, 5, 67, 104
9, 23880, Note_on_c, 5, 71, 102
9, 23900, Control_c, 5, 64, 127
9, 23935, Note_off_c, 5, 65, 64
9, 23950, Note_off_c, 5, 62, 64
9, 23955, Note_off_c, 5, 71, 64
9, 23955, Note_off_c, 5, 67, 64
9, 23975, Control_c, 5, 64, 0
9, 23995, Note_off_c, 5, 43, 64
9, 24000, Note_on_c, 5, 36, 119
9, 24000, Note_on_c, 5, 64, 108
9, 24000, Note_on_c, 5, 67, 108
9, 24000, Note_on_c, 5, 72, 114
9, 24005, Control_c, 5, 64, 127
9, 24100, Note_off_c, 5, 64, 64
9, 24100, Control_c, 5, 64, 0
9, 24105, Note_off_c, 5, 72, 64
9, 24105, Note_off_c, 5, 67, 64
9, 24110, Note_off_c, 5, 36, 64
9, 24120, Note_on_c, 5, 41, 118
9, 24120, Note_on_c, 5, 65, 111
9, 24120, Note_on_c, 5, 69, 109
9, 24120, Note_on_c, 5, 72, 107
9, 24140, Control_c, 5, 64, 127
9, 24210, Control_c, 5, 64, 0
9, 24225, Note_off_c, 5, 65, 64
9, 24230, Note_off_c, 5, 69, 64
9, 24240, Note_on_c, 5, 40, 103
9, 24240, Note_on_c, 5, 64, 111
9, 24240, Note_on_c, 5, 67, 101
9, 24245, Note_off_c, 5, 41, 64
9, 24250, Control_c, 5, 64, 127
9, 24325, Note_off_c, 5, 67, 64
9, 24340, Control_c, 5, 64, 0
9, 24350, Note_off_c, 5, 64, 64
9, 24350, Note_off_c, 5, 72, 64
9, 24360, Note_off_c, 5, 40, 64
9, 24360, Note_on_c, 5, 43, 105
9, 24360, Note_on_c, 5, 62, 88
9, 24360, Note_on_c, 5, 65, 93
9, 24360, Note_on_c, 5, 67, 95
9, 24360, Note_on_c, 5, 71, 105
9, 24375, Control_c, 5, 64, 127
9, 24425, Note_off_c, 5, 65, 64
9, 24425, Note_off_c, 5, 62, 64
9, 24435, Note_off_c, 5, 71, 64
9, 24445, Note_off_c, 5, 67, 64
9, 24450, Control_c, 5, 64, 0
9, 24470, Note_off_c, 5, 43, 64
9, 24480, Note_on_c, 5, 48, 113
9, 24480, Note_on_c, 5, 64, 116
9, 24480, Note_on_c, 5, 67, 127
9, 24480, Note_on_c, 5, 72, 122
9, 24485, Control_c, 5, 64, 127
9, 24510, Note_off_c, 5, 64, 64
9, 24535, Note_off_c, 5, 72, 64
9, 24540, Note_off_c, 5, 67, 64
9, 24540, Note_on_c, 5, 64, 90
9, 24580, Note_off_c, 5, 64, 64
9, 24590, Note_off_c, 5, 48, 64
9, 24600, Note_on_c, 5, 67, 113
9, 24600, Note_on_c, 5, 71, 105
9, 24660, Note_on_c, 5, 55, 127
9, 24665, Control_c, 5, 64, 0
9, 24710, Note_off_c, 5, 55, 64
9, 24720, Note_on_c, 5, 52, 122
9, 24720, Note_on_c, 5, 64, 97
9, 24745, Note_off_c, 5, 64, 64
9, 24775, Note_off_c, 5, 71, 64
9, 24775, Note_off_c, 5, 67, 64
9, 24780, Note_on_c, 5, 64, 107
9, 24840, Note_on_c, 5, 67, 100
9, 24900, Note_on_c, 5, 71, 105
9, 24905, Note_off_c, 5, 67, 64
9, 24925, Note_off_c, 5, 71, 64
9, 24935, Note_off_c, 5, 64, 64
9, 24960, Note_off_c, 5, 52, 64
9, 24960, Note_on_c, 5, 53, 119
9, 24960, Note_on_c, 5, 65, 113
9, 24960, Note_on_c, 5, 69, 111
9, 25015, Note_off_c, 5, 69, 64
9, 25020, Note_on_c, 5, 60, 105
9, 25070, Note_off_c, 5, 60, 64
9, 25080, Note_on_c, 5, 69, 111
9, 25140, Note_off_c, 5, 53, 64
9, 25140, Note_on_c, 5, 55, 111
9, 25180, Note_off_c, 5, 69, 64
9, 25190, Note_off_c, 5, 65, 64
9, 25200, Note_on_c, 5, 43, 127
9, 25210, Note_off_c, 5, 55, 64
9, 25260, Note_on_c, 5, 59, 105
9, 25300, Note_off_c, 5, 59, 64
9, 25320, Note_on_c, 5, 59, 111
9, 25320, Note_on_c, 5, 62, 115
9, 25320, Note_on_c, 5, 67, 114
9, 25365, Note_off_c, 5, 59, 64
9, 25375, Note_off_c, 5, 62, 64
9, 25375, Control_c, 5, 64, 127
9, 25380, Note_on_c, 5, 55, 126
9, 25385, Note_off_c, 5, 67, 64
9, 25430, Control_c, 5, 64, 0
9, 25440, Note_off_c, 5, 55, 64
9, 25440, Note_on_c, 5, 48, 127
9, 25440, Note_on_c, 5, 64, 101
9, 25440, Note_on_c, 5, 67, 111
9, 25440, Note_on_c, 5, 72, 116
9, 25445, Note_off_c, 5, 43, 64
9, 25460, Note_off_c, 5, 64, 64
9, 25500, Note_on_c, 5, 64, 94
9, 25505, Note_off_c, 5, 72, 64
9, 25505, Note_off_c, 5, 67, 64
9, 25505, Control_c, 5, 64, 127
9, 25545, Note_off_c, 5, 64, 64
9, 25560, Note_on_c, 5, 64, 96
9, 25560, Note_on_c, 5, 67, 110
9, 25560, Note_on_c, 5, 72, 109
9, 25575, Note_off_c, 5, 64, 64
9, 25620, Note_on_c, 5, 64, 122
9, 25625, Note_off_c, 5, 67, 64
9, 25645, Control_c, 5, 64, 0
9, 25660, Note_off_c, 5, 72, 64
9, 25665, Note_off_c, 5, 64, 64
9, 25675, Note_off_c, 5, 48, 64
9, 25680, Note_on_c, 5, 45, 123
9, 25680, Note_on_c, 5, 64, 101
9, 25680, Note_on_c, 5, 69, 105
9, 25680, Note_on_c, 5, 72, 105
9, 25690, Control_c, 5, 64, 127
9, 25705, Note_off_c, 5, 64, 64
9, 25740, Note_on_c, 5, 64, 93
9, 25760, Note_off_c, 5, 72, 64
9, 25765, Note_off_c, 5, 69, 64
9, 25775, Note_off_c, 5, 64, 64
9, 25800, Note_on_c, 5, 64, 106
9, 25800, Note_on_c, 5, 67, 107
9, 25800, Note_on_c, 5, 69, 108
9, 25800, Note_on_c, 5, 72, 107
9, 25820, Note_off_c, 5, 64, 64
9, 25840, Note_off_c, 5, 45, 64
9, 25855, Note_off_c, 5, 72, 64
9, 25855, Note_off_c, 5, 69, 64
9, 25860, Note_off_c, 5, 67, 64
9, 25860, Note_on_c, 5, 45, 122
9, 25860, Note_on_c, 5, 64, 109
9, 25900, Note_off_c, 5, 64, 64
9, 25900, Control_c, 5, 64, 0
9, 25915, Note_off_c, 5, 45, 64
9, 25920, Note_on_c, 5, 36, 113
9, 25920, Note_on_c, 5, 38, 110
9, 25920, Note_on_c, 5, 66, 127
9, 25920, Note_on_c, 5, 69, 116
9, 25930, Control_c, 5, 64, 127
9, 25935, Note_off_c, 5, 36, 64
9, 25980, Note_on_c, 5, 50, 127
9, 25995, Note_off_c, 5, 69, 64
9, 25995, Note_off_c, 5, 66, 64
9, 26040, Note_on_c, 5, 64, 112
9, 26040, Note_on_c, 5, 69, 113
9, 26085, Note_off_c, 5, 64, 64
9, 26100, Note_on_c, 5, 62, 99
9, 26100, Note_on_c, 5, 66, 102
9, 26130, Control_c, 5, 64, 0
9, 26135, Note_off_c, 5, 66, 64
9, 26135, Note_off_c, 5, 62, 64
9, 26135, Note_off_c, 5, 69, 64
9, 26155, Note_off_c, 5, 50, 64
9, 26155, Note_off_c, 5, 38, 64
9, 26160, Note_on_c, 5, 43, 127
9, 26160, Control_c, 5, 64, 127
9, 26220, Note_on_c, 5, 59, 88
9, 26220, Note_on_c, 5, 62, 89
9, 26250, Note_off_c, 5, 62, 64
9, 26255, Note_off_c, 5, 59, 64
9, 26280, Note_on_c, 5, 59, 120
9, 26280, Note_on_c, 5, 62, 111
9, 26280, Note_on_c, 5, 65, 120
9, 26280, Note_on_c, 5, 67, 103
9, 26310, Control_c, 5, 64, 0
9, 26315, Note_off_c, 5, 59, 64
9, 26325, Note_off_c, 5, 62, 64
9, 26335, Note_off_c, 5, 65, 64
9, 26340, Note_off_c, 5, 67, 64
9, 26340, Note_on_c, 5, 55, 118
9, 26400, Note_off_c, 5, 43, 64
9, 26400, Note_on_c, 5, 48, 127
9, 26400, Note_on_c, 5, 64, 107
9, 26400, Note_on_c, 5, 67, 115
9, 26400, Note_on_c, 5, 72, 118
9, 26405, Note_off_c, 5, 55, 64
9, 26415, Control_c, 5, 64, 127
9, 26430, Note_off_c, 5, 64, 64
9, 26460, Note_off_c, 5, 67, 64
9, 26460, Note_on_c, 5, 64, 86
9, 26465, Note_off_c, 5, 72, 64
9, 26500, Note_off_c, 5, 64, 64
9, 26520, Note_on_c, 5, 64, 115
9, 26520, Note_on_c, 5, 68, 124
9, 26520, Note_on_c, 5, 71, 120
9, 26525, Control_c, 5, 64, 0
9, 26540, Note_off_c, 5, 64, 64
9, 26570, Note_off_c, 5, 48, 64
9, 26580, Note_on_c, 5, 47, 127
9, 26615, Note_off_c, 5, 71, 64
9, 26625, Note_off_c, 5, 68, 64
9, 26640, Note_off_c, 5, 47, 64
9, 26640, Note_on_c, 5, 45, 105
9, 26640, Note_on_c, 5, 60, 115
9, 26640, Note_on_c, 5, 64, 127
9, 26640, Note_on_c, 5, 69, 120
9, 26645, Control_c, 5, 64, 127
9, 26660, Note_off_c, 5, 60, 64
9, 26700, Note_on_c, 5, 60, 105
9, 26740, Control_c, 5, 64, 0
9, 26745, Note_off_c, 5, 69, 64
9, 26750, Note_off_c, 5, 60, 64
9, 26750, Note_off_c, 5, 64, 64
9, 26760, Note_off_c, 5, 45, 64
9, 26760, Note_on_c, 5, 43, 127
9, 26760, Note_on_c, 5, 60, 97
9, 26760, Note_on_c, 5, 64, 107
9, 26760, Note_on_c, 5, 67, 115
9, 26790, Note_off_c, 5, 60, 64
9, 26820, Note_on_c, 5, 60, 112
9, 26825, Note_off_c, 5, 64, 64
9, 26855, Note_off_c, 5, 67, 64
9, 26860, Note_off_c, 5, 60, 64
9, 26875, Note_off_c, 5, 43, 64
9, 26880, Note_on_c, 5, 41, 111
9, 26880, Note_on_c, 5, 60, 102
9, 26880, Note_on_c, 5, 65, 116
9, 26880, Note_on_c, 5, 69, 118
9, 26885, Control_c, 5, 64, 127
9, 26915, Note_off_c, 5, 60, 64
9, 26940, Note_on_c, 5, 60, 106
9, 26980, Control_c, 5, 64, 0
9, 26985, Note_off_c, 5, 60, 64
9, 26990, Note_off_c, 5, 69, 64
9, 26995, Note_off_c, 5, 65, 64
9, 27000, Note_off_c, 5, 41, 64
9, 27000, Note_on_c, 5, 43, 120
9, 27000, Note_on_c, 5, 67, 109
9, 27000, Note_on_c, 5, 71, 107
9, 27055, Note_off_c, 5, 71, 64
9, 27055, Note_off_c, 5, 67, 64
9, 27060, Note_on_c, 5, 62, 87
9, 27100, Note_off_c, 5, 62, 64
9, 27110, Note_off_c, 5, 43, 64
9, 27120, Note_on_c, 5, 36, 122
9, 27120, Note_on_c, 5, 64, 92
9, 27120, Note_on_c, 5, 67, 106
9, 27120, Note_on_c, 5, 72, 107
9, 27120, Control_c, 5, 64, 127
9, 27160, Note_off_c, 5, 64, 64
9, 27180, Note_on_c, 5, 48, 94
9, 27195, Note_off_c, 5, 72, 64
9, 27195, Note_off_c, 5, 67, 64
9, 27210, Note_on_c, 5, 64, 118
9, 27240, Note_on_c, 5, 67, 93
9, 27260, Note_off_c, 5, 64, 64
9, 27270, Note_on_c, 5, 72, 102
9, 27280, Note_off_c, 5, 67, 64
9, 27290, Note_off_c, 5, 36, 64
9, 27300, Note_on_c, 5, 64, 119
9, 27345, Note_off_c, 5, 72, 64
9, 27345, Control_c, 5, 64, 0
9, 27350, Note_off_c, 5, 64, 64
9, 27350, Note_off_c, 5, 48, 64
9, 27360, Note_on_c, 5, 45, 124
9, 27360, Note_on_c, 5, 64, 90
9, 27360, Note_on_c, 5, 69, 101
9, 27360, Note_on_c, 5, 72, 111
9, 27375, Note_off_c, 5, 64, 64
9, 27380, Control_c, 5, 64, 127
9, 27420, Note_off_c, 5, 69, 64
9, 27420, Note_on_c, 5, 64, 88
9, 27425, Note_off_c, 5, 72, 64
9, 27460, Note_off_c, 5, 64, 64
9, 27480, Note_on_c, 5, 64, 108
9, 27480, Note_on_c, 5, 69, 108
9, 27480, Note_on_c, 5, 72, 108
9, 27505, Note_off_c, 5, 45, 64
9, 27510, Note_off_c, 5, 64, 64
9, 27540, Note_off_c, 5, 72, 64
9, 27540, Note_on_c, 5, 45, 103
9, 27540, Note_on_c, 5, 64, 119
9, 27545, Note_off_c, 5, 69, 64
9, 27580, Note_off_c, 5, 64, 64
9, 27590, Note_off_c, 5, 45, 64
9, 27600, Note_on_c, 5, 40, 107
9, 27600, Note_on_c, 5, 64, 106
9, 27600, Note_on_c, 5, 67, 113
9, 27600, Note_on_c, 5, 71, 109
9, 27610, Control_c, 5, 64, 0
9, 27640, Note_off_c, 5, 64, 64
9, 27655, Note_off_c, 5, 67, 64
9, 27660, Note_on_c, 5, 64, 83
9, 27695, Note_off_c, 5, 64, 64
9, 27715, Note_off_c, 5, 40, 64
9, 27720, Note_on_c, 5, 43, 100
9, 27720, Note_on_c, 5, 62, 105
9, 27720, Note_on_c, 5, 65, 107
9, 27720, Note_on_c, 5, 67, 103
9, 27760, Note_off_c, 5, 62, 64
9, 27775, Note_off_c, 5, 65, 64
9, 27780, Note_off_c, 5, 67, 64
9, 27780, Note_off_c, 5, 71, 64
9, 27780, Note_on_c, 5, 62, 90
9, 27810, Note_off_c, 5, 62, 64
9, 27840, Note_on_c, 5, 36, 112
9, 27840, Note_on_c, 5, 64, 106
9, 27840, Note_on_c, 5, 67, 109
9, 27840, Note_on_c, 5, 72, 111
9, 27840, Control_c, 5, 64, 127
9, 27845, Note_off_c, 5, 43, 64
9, 27925, Note_off_c, 5, 64, 64
9, 27945, Note_off_c, 5, 67, 64
9, 27950, Note_off_c, 5, 36, 64
9, 27950, Control_c, 5, 64, 0
9, 27960, Note_on_c, 5, 41, 94
9, 27960, Note_on_c, 5, 43, 82
9, 27960, Note_on_c, 5, 65, 105
9, 27960, Note_on_c, 5, 69, 113
9, 28035, Note_off_c, 5, 72, 64
9, 28055, Note_off_c, 5, 65, 64
9, 28065, Note_off_c, 5, 69, 64
9, 28065, Note_off_c, 5, 43, 64
9, 28075, Note_off_c, 5, 41, 64
9, 28080, Note_on_c, 5, 40, 97
9, 28080, Note_on_c, 5, 64, 108
9, 28080, Note_on_c, 5, 67, 108
9, 28080, Note_on_c, 5, 71, 106
9, 28170, Note_off_c, 5, 67, 64
9, 28180, Note_off_c, 5, 71, 64
9, 28185, Note_off_c, 5, 64, 64
9, 28195, Note_off_c, 5, 40, 64
9, 28200, Note_on_c, 5, 38, 96
9, 28200, Note_on_c, 5, 62, 106
9, 28200, Note_on_c, 5, 65, 108
9, 28200, Note_on_c, 5, 69, 104
9, 28270, Note_off_c, 5, 62, 64
9, 28275, Note_off_c, 5, 65, 64
9, 28280, Note_off_c, 5, 69, 64
9, 28305, Note_off_c, 5, 38, 64
9, 28320, Note_on_c, 5, 72, 108
9, 28320, Note_on_c, 5, 67, 111
9, 28320, Note_on_c, 5, 64, 99
9, 28320, Note_on_c, 5, 36, 115
9, 28320, Control_c, 5, 64, 127
9, 28740, Control_c, 5, 64, 0
9, 28800, Note_off_c, 5, 36, 64
9, 28800, Note_off_c, 5, 64, 64
9, 28800, Note_off_c, 5, 67, 64
9, 28800, Note_off_c, 5, 72, 64
9, 28800, End_track
10, 0, Start_track
10, 0, Control_c, 6, 7, 0
10, 0, Control_c, 6, 0, 0
10, 0, End_track
11, 0, Start_track
11, 0, Control_c, 7, 7, 0
11, 0, Control_c, 7, 0, 0
11, 0, End_track
12, 0, Start_track
12, 0, Title_t, "Nappes"
12, 0, Program_c, 8, 48
12, 0, Control_c, 8, 7, 56
12, 1, Control_c, 8, 0, 0
12, 2, Program_c, 8, 48
12, 3, Control_c, 8, 10, 64
12, 4, Control_c, 8, 91, 55
12, 5, Control_c, 8, 93, 120
12, 6, Control_c, 8, 11, 127
12, 1440, Note_on_c, 8, 55, 54
12, 1440, Note_on_c, 8, 60, 59
12, 1440, Note_on_c, 8, 64, 62
12, 1550, Note_off_c, 8, 64, 64
12, 1560, Note_off_c, 8, 60, 64
12, 1560, Note_on_c, 8, 59, 69
12, 1560, Note_on_c, 8, 62, 72
12, 1650, Note_off_c, 8, 62, 64
12, 1680, Note_on_c, 8, 64, 62
12, 1885, Note_off_c, 8, 55, 64
12, 1900, Note_off_c, 8, 64, 64
12, 1900, Note_off_c, 8, 59, 64
12, 1920, Note_on_c, 8, 57, 53
12, 1920, Note_on_c, 8, 60, 52
12, 1920, Note_on_c, 8, 65, 76
12, 2125, Note_off_c, 8, 57, 64
12, 2130, Note_off_c, 8, 65, 64
12, 2160, Note_on_c, 8, 55, 53
12, 2160, Note_on_c, 8, 59, 51
12, 2160, Note_on_c, 8, 62, 56
12, 2165, Note_off_c, 8, 60, 64
12, 2370, Note_off_c, 8, 62, 64
12, 2380, Note_off_c, 8, 59, 64
12, 2400, Note_on_c, 8, 60, 74
12, 2400, Note_on_c, 8, 64, 87
12, 2615, Note_off_c, 8, 55, 64
12, 2640, Note_on_c, 8, 57, 87
12, 2825, Note_off_c, 8, 64, 64
12, 2880, Note_on_c, 8, 54, 73
12, 2880, Note_on_c, 8, 62, 55
12, 3050, Note_off_c, 8, 54, 64
12, 3050, Note_off_c, 8, 60, 64
12, 3070, Note_off_c, 8, 57, 64
12, 3120, Note_on_c, 8, 55, 47
12, 3120, Note_on_c, 8, 59, 65
12, 3290, Note_off_c, 8, 59, 64
12, 3310, Note_off_c, 8, 62, 64
12, 3360, Note_on_c, 8, 60, 68
12, 3360, Note_on_c, 8, 64, 76
12, 3455, Note_off_c, 8, 60, 64
12, 3465, Note_off_c, 8, 64, 64
12, 3480, Note_off_c, 8, 55, 64
12, 3480, Note_on_c, 8, 56, 18
12, 3480, Note_on_c, 8, 59, 66
12, 3480, Note_on_c, 8, 62, 78
12, 3575, Note_off_c, 8, 59, 64
12, 3590, Note_off_c, 8, 62, 64
12, 3590, Note_off_c, 8, 56, 64
12, 3600, Note_on_c, 8, 60, 36
12, 3600, Note_on_c, 8, 57, 42
12, 3600, Note_on_c, 8, 64, 62
12, 3720, Note_on_c, 8, 55, 70
12, 3815, Note_off_c, 8, 55, 64
12, 3820, Note_off_c, 8, 64, 64
12, 3840, Note_on_c, 8, 65, 62
12, 3930, Note_off_c, 8, 65, 64
12, 3935, Note_off_c, 8, 57, 64
12, 3960, Note_on_c, 8, 55, 67
12, 3960, Note_on_c, 8, 59, 67
12, 3960, Note_on_c, 8, 62, 65
12, 3970, Note_off_c, 8, 60, 64
12, 4060, Note_off_c, 8, 62, 64
12, 4075, Note_off_c, 8, 59, 64
12, 4080, Note_on_c, 8, 60, 63
12, 4080, Note_on_c, 8, 64, 70
12, 4285, Note_off_c, 8, 55, 64
12, 4295, Note_off_c, 8, 64, 64
12, 4300, Note_off_c, 8, 60, 64
12, 4320, Note_on_c, 8, 57, 67
12, 4320, Note_on_c, 8, 60, 73
12, 4320, Note_on_c, 8, 64, 72
12, 4510, Note_off_c, 8, 57, 64
12, 4515, Note_off_c, 8, 60, 64
12, 4560, Note_on_c, 8, 55, 82
12, 4560, Note_on_c, 8, 59, 73
12, 4635, Note_off_c, 8, 64, 64
12, 4680, Note_on_c, 8, 62, 46
12, 4680, Note_on_c, 8, 65, 56
12, 4775, Note_off_c, 8, 62, 64
12, 4780, Note_off_c, 8, 65, 64
12, 4795, Note_off_c, 8, 59, 64
12, 4800, Note_on_c, 8, 60, 74
12, 4800, Note_on_c, 8, 64, 72
12, 4905, Note_off_c, 8, 64, 64
12, 4910, Note_off_c, 8, 55, 64
12, 4920, Note_on_c, 8, 57, 63
12, 4920, Note_on_c, 8, 65, 82
12, 5025, Note_off_c, 8, 65, 64
12, 5025, Note_off_c, 8, 57, 64
12, 5040, Note_off_c, 8, 60, 64
12, 5040, Note_on_c, 8, 55, 61
12, 5040, Note_on_c, 8, 59, 62
12, 5040, Note_on_c, 8, 64, 77
12, 5150, Note_off_c, 8, 64, 64
12, 5160, Note_on_c, 8, 62, 69
12, 5250, Note_off_c, 8, 62, 64
12, 5265, Note_off_c, 8, 59, 64
12, 5280, Note_off_c, 8, 55, 64
12, 5280, Note_on_c, 8, 55, 54
12, 5280, Note_on_c, 8, 60, 59
12, 5280, Note_on_c, 8, 64, 62
12, 5390, Note_off_c, 8, 64, 64
12, 5400, Note_off_c, 8, 60, 64
12, 5400, Note_on_c, 8, 59, 69
12, 5400, Note_on_c, 8, 62, 72
12, 5490, Note_off_c, 8, 62, 64
12, 5520, Note_on_c, 8, 64, 62
12, 5725, Note_off_c, 8, 55, 64
12, 5740, Note_off_c, 8, 64, 64
12, 5740, Note_off_c, 8, 59, 64
12, 5760, Note_on_c, 8, 57, 53
12, 5760, Note_on_c, 8, 60, 52
12, 5760, Note_on_c, 8, 65, 76
12, 5965, Note_off_c, 8, 57, 64
12, 5970, Note_off_c, 8, 65, 64
12, 6000, Note_on_c, 8, 55, 53
12, 6000, Note_on_c, 8, 59, 51
12, 6000, Note_on_c, 8, 62, 56
12, 6005, Note_off_c, 8, 60, 64
12, 6210, Note_off_c, 8, 62, 64
12, 6220, Note_off_c, 8, 59, 64
12, 6240, Note_on_c, 8, 60, 74
12, 6240, Note_on_c, 8, 64, 87
12, 6455, Note_off_c, 8, 55, 64
12, 6480, Note_on_c, 8, 57, 87
12, 6665, Note_off_c, 8, 64, 64
12, 6720, Note_on_c, 8, 54, 73
12, 6720, Note_on_c, 8, 62, 55
12, 6890, Note_off_c, 8, 54, 64
12, 6890, Note_off_c, 8, 60, 64
12, 6910, Note_off_c, 8, 57, 64
12, 6960, Note_on_c, 8, 55, 47
12, 6960, Note_on_c, 8, 59, 65
12, 7130, Note_off_c, 8, 59, 64
12, 7150, Note_off_c, 8, 62, 64
12, 7200, Note_on_c, 8, 60, 68
12, 7200, Note_on_c, 8, 64, 76
12, 7295, Note_off_c, 8, 60, 64
12, 7305, Note_off_c, 8, 64, 64
12, 7320, Note_off_c, 8, 55, 64
12, 7320, Note_on_c, 8, 56, 18
12, 7320, Note_on_c, 8, 59, 66
12, 7320, Note_on_c, 8, 62, 78
12, 7415, Note_off_c, 8, 59, 64
12, 7430, Note_off_c, 8, 62, 64
12, 7430, Note_off_c, 8, 56, 64
12, 7440, Note_on_c, 8, 60, 36
12, 7440, Note_on_c, 8, 57, 42
12, 7440, Note_on_c, 8, 64, 62
12, 7560, Note_on_c, 8, 55, 70
12, 7655, Note_off_c, 8, 55, 64
12, 7660, Note_off_c, 8, 64, 64
12, 7680, Note_on_c, 8, 65, 62
12, 7770, Note_off_c, 8, 65, 64
12, 7775, Note_off_c, 8, 57, 64
12, 7800, Note_on_c, 8, 55, 67
12, 7800, Note_on_c, 8, 59, 67
12, 7800, Note_on_c, 8, 62, 65
12, 7810, Note_off_c, 8, 60, 64
12, 7900, Note_off_c, 8, 62, 64
12, 7915, Note_off_c, 8, 59, 64
12, 7920, Note_on_c, 8, 60, 63
12, 7920, Note_on_c, 8, 64, 70
12, 8125, Note_off_c, 8, 55, 64
12, 8135, Note_off_c, 8, 64, 64
12, 8140, Note_off_c, 8, 60, 64
12, 8160, Note_on_c, 8, 57, 67
12, 8160, Note_on_c, 8, 60, 73
12, 8160, Note_on_c, 8, 64, 72
12, 8350, Note_off_c, 8, 57, 64
12, 8355, Note_off_c, 8, 60, 64
12, 8400, Note_on_c, 8, 55, 82
12, 8400, Note_on_c, 8, 59, 73
12, 8475, Note_off_c, 8, 64, 64
12, 8520, Note_on_c, 8, 62, 46
12, 8520, Note_on_c, 8, 65, 56
12, 8615, Note_off_c, 8, 62, 64
12, 8620, Note_off_c, 8, 65, 64
12, 8635, Note_off_c, 8, 59, 64
12, 8640, Note_on_c, 8, 60, 74
12, 8640, Note_on_c, 8, 64, 72
12, 8745, Note_off_c, 8, 64, 64
12, 8750, Note_off_c, 8, 55, 64
12, 8760, Note_on_c, 8, 57, 63
12, 8760, Note_on_c, 8, 65, 82
12, 8865, Note_off_c, 8, 65, 64
12, 8865, Note_off_c, 8, 57, 64
12, 8880, Note_off_c, 8, 60, 64
12, 8880, Note_on_c, 8, 55, 61
12, 8880, Note_on_c, 8, 59, 62
12, 8880, Note_on_c, 8, 64, 77
12, 8990, Note_off_c, 8, 64, 64
12, 9000, Note_on_c, 8, 62, 69
12, 9090, Note_off_c, 8, 62, 64
12, 9105, Note_off_c, 8, 59, 64
12, 9120, Note_off_c, 8, 55, 64
12, 9120, Note_on_c, 8, 55, 54
12, 9120, Note_on_c, 8, 60, 59
12, 9120, Note_on_c, 8, 64, 62
12, 9230, Note_off_c, 8, 64, 64
12, 9240, Note_off_c, 8, 60, 64
12, 9240, Note_on_c, 8, 59, 69
12, 9240, Note_on_c, 8, 62, 72
12, 9330, Note_off_c, 8, 62, 64
12, 9360, Note_on_c, 8, 64, 62
12, 9565, Note_off_c, 8, 55, 64
12, 9580, Note_off_c, 8, 64, 64
12, 9580, Note_off_c, 8, 59, 64
12, 9600, Note_on_c, 8, 57, 53
12, 9600, Note_on_c, 8, 60, 52
12, 9600, Note_on_c, 8, 65, 76
12, 9805, Note_off_c, 8, 57, 64
12, 9810, Note_off_c, 8, 65, 64
12, 9840, Note_on_c, 8, 55, 53
12, 9840, Note_on_c, 8, 59, 51
12, 9840, Note_on_c, 8, 62, 56
12, 9845, Note_off_c, 8, 60, 64
12, 10050, Note_off_c, 8, 62, 64
12, 10060, Note_off_c, 8, 59, 64
12, 10080, Note_on_c, 8, 60, 74
12, 10080, Note_on_c, 8, 64, 87
12, 10295, Note_off_c, 8, 55, 64
12, 10320, Note_on_c, 8, 57, 87
12, 10505, Note_off_c, 8, 64, 64
12, 10560, Note_on_c, 8, 54, 73
12, 10560, Note_on_c, 8, 62, 55
12, 10730, Note_off_c, 8, 54, 64
12, 10730, Note_off_c, 8, 60, 64
12, 10750, Note_off_c, 8, 57, 64
12, 10800, Note_on_c, 8, 55, 47
12, 10800, Note_on_c, 8, 59, 65
12, 10970, Note_off_c, 8, 59, 64
12, 10990, Note_off_c, 8, 62, 64
12, 11040, Note_on_c, 8, 60, 68
12, 11040, Note_on_c, 8, 64, 76
12, 11135, Note_off_c, 8, 60, 64
12, 11145, Note_off_c, 8, 64, 64
12, 11160, Note_off_c, 8, 55, 64
12, 11160, Note_on_c, 8, 56, 18
12, 11160, Note_on_c, 8, 59, 66
12, 11160, Note_on_c, 8, 62, 78
12, 11255, Note_off_c, 8, 59, 64
12, 11270, Note_off_c, 8, 62, 64
12, 11270, Note_off_c, 8, 56, 64
12, 11280, Note_on_c, 8, 60, 36
12, 11280, Note_on_c, 8, 57, 42
12, 11280, Note_on_c, 8, 64, 62
12, 11400, Note_on_c, 8, 55, 70
12, 11495, Note_off_c, 8, 55, 64
12, 11500, Note_off_c, 8, 64, 64
12, 11520, Note_on_c, 8, 65, 62
12, 11610, Note_off_c, 8, 65, 64
12, 11615, Note_off_c, 8, 57, 64
12, 11640, Note_on_c, 8, 55, 67
12, 11640, Note_on_c, 8, 59, 67
12, 11640, Note_on_c, 8, 62, 65
12, 11650, Note_off_c, 8, 60, 64
12, 11740, Note_off_c, 8, 62, 64
12, 11755, Note_off_c, 8, 59, 64
12, 11760, Note_on_c, 8, 60, 63
12, 11760, Note_on_c, 8, 64, 70
12, 11965, Note_off_c, 8, 55, 64
12, 11975, Note_off_c, 8, 64, 64
12, 11980, Note_off_c, 8, 60, 64
12, 12000, Note_on_c, 8, 57, 67
12, 12000, Note_on_c, 8, 60, 73
12, 12000, Note_on_c, 8, 64, 72
12, 12190, Note_off_c, 8, 57, 64
12, 12195, Note_off_c, 8, 60, 64
12, 12240, Note_on_c, 8, 55, 82
12, 12240, Note_on_c, 8, 59, 73
12, 12315, Note_off_c, 8, 64, 64
12, 12360, Note_on_c, 8, 62, 46
12, 12360, Note_on_c, 8, 65, 56
12, 12455, Note_off_c, 8, 62, 64
12, 12460, Note_off_c, 8, 65, 64
12, 12475, Note_off_c, 8, 59, 64
12, 12480, Note_on_c, 8, 60, 74
12, 12480, Note_on_c, 8, 64, 72
12, 12585, Note_off_c, 8, 64, 64
12, 12590, Note_off_c, 8, 55, 64
12, 12600, Note_on_c, 8, 57, 63
12, 12600, Note_on_c, 8, 65, 82
12, 12705, Note_off_c, 8, 65, 64
12, 12705, Note_off_c, 8, 57, 64
12, 12720, Note_off_c, 8, 60, 64
12, 12720, Note_on_c, 8, 55, 61
12, 12720, Note_on_c, 8, 59, 62
12, 12720, Note_on_c, 8, 64, 77
12, 12830, Note_off_c, 8, 64, 64
12, 12840, Note_on_c, 8, 62, 69
12, 12930, Note_off_c, 8, 62, 64
12, 12945, Note_off_c, 8, 59, 64
12, 12960, Note_off_c, 8, 55, 64
12, 12960, Note_on_c, 8, 72, 127
12, 12960, Note_on_c, 8, 55, 54
12, 12960, Note_on_c, 8, 60, 59
12, 12960, Note_on_c, 8, 64, 62
12, 13070, Note_off_c, 8, 64, 64
12, 13080, Note_off_c, 8, 60, 64
12, 13080, Note_off_c, 8, 72, 64
12, 13080, Note_on_c, 8, 71, 127
12, 13080, Note_on_c, 8, 59, 69
12, 13080, Note_on_c, 8, 62, 72
12, 13170, Note_off_c, 8, 62, 64
12, 13200, Note_off_c, 8, 71, 64
12, 13200, Note_on_c, 8, 64, 62
12, 13200, Note_on_c, 8, 67, 127
12, 13315, Note_off_c, 8, 67, 64
12, 13320, Note_on_c, 8, 64, 127
12, 13405, Note_off_c, 8, 55, 64
12, 13420, Note_off_c, 8, 64, 64
12, 13420, Note_off_c, 8, 59, 64
12, 13440, Note_on_c, 8, 68, 102
12, 13440, Note_on_c, 8, 69, 127
12, 13440, Note_on_c, 8, 57, 53
12, 13440, Note_on_c, 8, 60, 52
12, 13440, Note_on_c, 8, 65, 76
12, 13445, Note_off_c, 8, 68, 64
12, 13445, Note_off_c, 8, 64, 64
12, 13500, Note_off_c, 8, 69, 64
12, 13500, Note_on_c, 8, 71, 127
12, 13560, Note_on_c, 8, 69, 127
12, 13565, Note_off_c, 8, 71, 64
12, 13620, Note_on_c, 8, 67, 127
12, 13625, Note_off_c, 8, 69, 64
12, 13645, Note_off_c, 8, 57, 64
12, 13650, Note_off_c, 8, 65, 64
12, 13680, Note_on_c, 8, 62, 56
12, 13680, Note_on_c, 8, 55, 53
12, 13680, Note_on_c, 8, 62, 127
12, 13680, Note_on_c, 8, 59, 51
12, 13685, Note_off_c, 8, 60, 64
12, 13690, Note_off_c, 8, 67, 64
12, 13890, Note_off_c, 8, 62, 64
12, 13900, Note_off_c, 8, 59, 64
12, 13920, Note_off_c, 8, 62, 64
12, 13920, Note_on_c, 8, 60, 74
12, 13920, Note_on_c, 8, 60, 127
12, 13920, Note_on_c, 8, 64, 87
12, 14040, Note_on_c, 8, 64, 127
12, 14045, Note_off_c, 8, 60, 64
12, 14100, Note_on_c, 8, 67, 109
12, 14105, Note_off_c, 8, 64, 64
12, 14135, Note_off_c, 8, 55, 64
12, 14155, Note_off_c, 8, 67, 64
12, 14160, Note_on_c, 8, 57, 87
12, 14160, Note_on_c, 8, 72, 111
12, 14265, Note_off_c, 8, 72, 64
12, 14280, Note_on_c, 8, 72, 127
12, 14345, Note_off_c, 8, 64, 64
12, 14400, Note_on_c, 8, 74, 127
12, 14400, Note_on_c, 8, 54, 73
12, 14400, Note_on_c, 8, 62, 55
12, 14405, Note_off_c, 8, 72, 64
12, 14570, Note_off_c, 8, 54, 64
12, 14570, Note_off_c, 8, 60, 64
12, 14580, Note_off_c, 8, 74, 64
12, 14580, Note_on_c, 8, 76, 127
12, 14590, Note_off_c, 8, 57, 64
12, 14640, Note_off_c, 8, 76, 64
12, 14640, Note_on_c, 8, 55, 47
12, 14640, Note_on_c, 8, 74, 127
12, 14640, Note_on_c, 8, 59, 65
12, 14810, Note_off_c, 8, 59, 64
12, 14830, Note_off_c, 8, 62, 64
12, 14880, Note_on_c, 8, 75, 116
12, 14880, Note_on_c, 8, 76, 127
12, 14880, Note_on_c, 8, 60, 68
12, 14880, Note_on_c, 8, 64, 76
12, 14885, Note_off_c, 8, 74, 64
12, 14895, Note_off_c, 8, 75, 64
12, 14975, Note_off_c, 8, 60, 64
12, 14985, Note_off_c, 8, 64, 64
12, 15000, Note_off_c, 8, 55, 64
12, 15000, Note_on_c, 8, 74, 127
12, 15000, Note_on_c, 8, 56, 18
12, 15000, Note_on_c, 8, 59, 66
12, 15000, Note_on_c, 8, 62, 78
12, 15005, Note_off_c, 8, 76, 64
12, 15095, Note_off_c, 8, 59, 64
12, 15110, Note_off_c, 8, 62, 64
12, 15110, Note_off_c, 8, 56, 64
12, 15120, Note_on_c, 8, 60, 36
12, 15120, Note_on_c, 8, 57, 42
12, 15120, Note_on_c, 8, 72, 127
12, 15120, Note_on_c, 8, 64, 62
12, 15125, Note_off_c, 8, 74, 64
12, 15235, Note_off_c, 8, 72, 64
12, 15240, Note_on_c, 8, 67, 127
12, 15240, Note_on_c, 8, 55, 70
12, 15335, Note_off_c, 8, 55, 64
12, 15340, Note_off_c, 8, 64, 64
12, 15360, Note_on_c, 8, 71, 127
12, 15360, Note_on_c, 8, 65, 62
12, 15370, Note_off_c, 8, 67, 64
12, 15420, Note_off_c, 8, 71, 64
12, 15420, Note_on_c, 8, 69, 127
12, 15450, Note_off_c, 8, 65, 64
12, 15455, Note_off_c, 8, 57, 64
12, 15480, Note_on_c, 8, 67, 127
12, 15480, Note_on_c, 8, 55, 67
12, 15480, Note_on_c, 8, 59, 67
12, 15480, Note_on_c, 8, 62, 65
12, 15490, Note_off_c, 8, 69, 64
12, 15490, Note_off_c, 8, 60, 64
12, 15540, Note_off_c, 8, 67, 64
12, 15540, Note_on_c, 8, 65, 127
12, 15570, Note_on_c, 8, 67, 127
12, 15575, Note_off_c, 8, 65, 64
12, 15580, Note_off_c, 8, 62, 64
12, 15595, Note_off_c, 8, 59, 64
12, 15600, Note_on_c, 8, 60, 63
12, 15600, Note_on_c, 8, 64, 70
12, 15710, Note_off_c, 8, 67, 64
12, 15720, Note_on_c, 8, 67, 127
12, 15805, Note_off_c, 8, 55, 64
12, 15815, Note_off_c, 8, 64, 64
12, 15820, Note_off_c, 8, 60, 64
12, 15835, Note_off_c, 8, 67, 64
12, 15840, Note_on_c, 8, 60, 127
12, 15840, Note_on_c, 8, 57, 67
12, 15840, Note_on_c, 8, 60, 73
12, 15840, Note_on_c, 8, 64, 72
12, 16020, Note_on_c, 8, 64, 127
12, 16030, Note_off_c, 8, 57, 64
12, 16030, Note_off_c, 8, 60, 64
12, 16035, Note_off_c, 8, 60, 64
12, 16080, Note_on_c, 8, 55, 82
12, 16080, Note_on_c, 8, 67, 127
12, 16080, Note_on_c, 8, 59, 73
12, 16085, Note_off_c, 8, 64, 64
12, 16140, Note_off_c, 8, 67, 64
12, 16140, Note_on_c, 8, 64, 120
12, 16155, Note_off_c, 8, 64, 64
12, 16200, Note_on_c, 8, 62, 127
12, 16200, Note_on_c, 8, 62, 46
12, 16200, Note_on_c, 8, 65, 56
12, 16205, Note_off_c, 8, 64, 64
12, 16290, Note_on_c, 8, 60, 105
12, 16295, Note_off_c, 8, 62, 64
12, 16300, Note_off_c, 8, 65, 64
12, 16300, Note_off_c, 8, 62, 64
12, 16305, Note_off_c, 8, 60, 64
12, 16315, Note_off_c, 8, 59, 64
12, 16320, Note_on_c, 8, 60, 116
12, 16320, Note_on_c, 8, 60, 74
12, 16320, Note_on_c, 8, 64, 72
12, 16425, Note_off_c, 8, 64, 64
12, 16430, Note_off_c, 8, 55, 64
12, 16440, Note_on_c, 8, 65, 86
12, 16440, Note_on_c, 8, 69, 98
12, 16440, Note_on_c, 8, 57, 63
12, 16440, Note_on_c, 8, 65, 82
12, 16445, Note_off_c, 8, 60, 64
12, 16545, Note_off_c, 8, 57, 64
12, 16545, Note_off_c, 8, 69, 64
12, 16545, Note_off_c, 8, 65, 64
12, 16550, Note_off_c, 8, 65, 64
12, 16560, Note_off_c, 8, 60, 64
12, 16560, Note_on_c, 8, 55, 61
12, 16560, Note_on_c, 8, 64, 89
12, 16560, Note_on_c, 8, 67, 81
12, 16560, Note_on_c, 8, 59, 62
12, 16560, Note_on_c, 8, 64, 77
12, 16670, Note_off_c, 8, 64, 64
12, 16680, Note_off_c, 8, 67, 64
12, 16680, Note_on_c, 8, 62, 87
12, 16680, Note_on_c, 8, 65, 96
12, 16680, Note_on_c, 8, 62, 69
12, 16690, Note_off_c, 8, 64, 64
12, 16740, Note_off_c, 8, 65, 64
12, 16770, Note_off_c, 8, 62, 64
12, 16785, Note_off_c, 8, 62, 64
12, 16785, Note_off_c, 8, 59, 64
12, 16800, Note_off_c, 8, 55, 64
12, 16800, Note_on_c, 8, 72, 127
12, 16800, Note_on_c, 8, 55, 54
12, 16800, Note_on_c, 8, 60, 59
12, 16800, Note_on_c, 8, 64, 62
12, 16910, Note_off_c, 8, 64, 64
12, 16920, Note_off_c, 8, 60, 64
12, 16920, Note_off_c, 8, 72, 64
12, 16920, Note_on_c, 8, 71, 127
12, 16920, Note_on_c, 8, 59, 69
12, 16920, Note_on_c, 8, 62, 72
12, 17010, Note_off_c, 8, 62, 64
12, 17040, Note_off_c, 8, 71, 64
12, 17040, Note_on_c, 8, 64, 62
12, 17040, Note_on_c, 8, 67, 127
12, 17155, Note_off_c, 8, 67, 64
12, 17160, Note_on_c, 8, 64, 127
12, 17245, Note_off_c, 8, 55, 64
12, 17260, Note_off_c, 8, 64, 64
12, 17260, Note_off_c, 8, 59, 64
12, 17280, Note_on_c, 8, 68, 102
12, 17280, Note_on_c, 8, 69, 127
12, 17280, Note_on_c, 8, 57, 53
12, 17280, Note_on_c, 8, 60, 52
12, 17280, Note_on_c, 8, 65, 76
12, 17285, Note_off_c, 8, 68, 64
12, 17285, Note_off_c, 8, 64, 64
12, 17340, Note_off_c, 8, 69, 64
12, 17340, Note_on_c, 8, 71, 127
12, 17400, Note_on_c, 8, 69, 127
12, 17405, Note_off_c, 8, 71, 64
12, 17460, Note_on_c, 8, 67, 127
12, 17465, Note_off_c, 8, 69, 64
12, 17485, Note_off_c, 8, 57, 64
12, 17490, Note_off_c, 8, 65, 64
12, 17520, Note_on_c, 8, 62, 56
12, 17520, Note_on_c, 8, 55, 53
12, 17520, Note_on_c, 8, 62, 127
12, 17520, Note_on_c, 8, 59, 51
12, 17525, Note_off_c, 8, 60, 64
12, 17530, Note_off_c, 8, 67, 64
12, 17730, Note_off_c, 8, 62, 64
12, 17740, Note_off_c, 8, 59, 64
12, 17760, Note_off_c, 8, 62, 64
12, 17760, Note_on_c, 8, 60, 74
12, 17760, Note_on_c, 8, 60, 127
12, 17760, Note_on_c, 8, 64, 87
12, 17880, Note_on_c, 8, 64, 127
12, 17885, Note_off_c, 8, 60, 64
12, 17940, Note_on_c, 8, 67, 109
12, 17945, Note_off_c, 8, 64, 64
12, 17975, Note_off_c, 8, 55, 64
12, 17995, Note_off_c, 8, 67, 64
12, 18000, Note_on_c, 8, 57, 87
12, 18000, Note_on_c, 8, 72, 111
12, 18105, Note_off_c, 8, 72, 64
12, 18120, Note_on_c, 8, 72, 127
12, 18185, Note_off_c, 8, 64, 64
12, 18240, Note_on_c, 8, 74, 127
12, 18240, Note_on_c, 8, 54, 73
12, 18240, Note_on_c, 8, 62, 55
12, 18245, Note_off_c, 8, 72, 64
12, 18410, Note_off_c, 8, 54, 64
12, 18410, Note_off_c, 8, 60, 64
12, 18420, Note_off_c, 8, 74, 64
12, 18420, Note_on_c, 8, 76, 127
12, 18430, Note_off_c, 8, 57, 64
12, 18480, Note_off_c, 8, 76, 64
12, 18480, Note_on_c, 8, 55, 47
12, 18480, Note_on_c, 8, 74, 127
12, 18480, Note_on_c, 8, 59, 65
12, 18650, Note_off_c, 8, 59, 64
12, 18670, Note_off_c, 8, 62, 64
12, 18720, Note_on_c, 8, 75, 116
12, 18720, Note_on_c, 8, 76, 127
12, 18720, Note_on_c, 8, 60, 68
12, 18720, Note_on_c, 8, 64, 76
12, 18725, Note_off_c, 8, 74, 64
12, 18735, Note_off_c, 8, 75, 64
12, 18815, Note_off_c, 8, 60, 64
12, 18825, Note_off_c, 8, 64, 64
12, 18840, Note_off_c, 8, 55, 64
12, 18840, Note_on_c, 8, 74, 127
12, 18840, Note_on_c, 8, 56, 18
12, 18840, Note_on_c, 8, 59, 66
12, 18840, Note_on_c, 8, 62, 78
12, 18845, Note_off_c, 8, 76, 64
12, 18935, Note_off_c, 8, 59, 64
12, 18950, Note_off_c, 8, 62, 64
12, 18950, Note_off_c, 8, 56, 64
12, 18960, Note_on_c, 8, 60, 36
12, 18960, Note_on_c, 8, 57, 42
12, 18960, Note_on_c, 8, 72, 127
12, 18960, Note_on_c, 8, 64, 62
12, 18965, Note_off_c, 8, 74, 64
12, 19075, Note_off_c, 8, 72, 64
12, 19080, Note_on_c, 8, 67, 127
12, 19080, Note_on_c, 8, 55, 70
12, 19175, Note_off_c, 8, 55, 64
12, 19180, Note_off_c, 8, 64, 64
12, 19200, Note_on_c, 8, 71, 127
12, 19200, Note_on_c, 8, 65, 62
12, 19210, Note_off_c, 8, 67, 64
12, 19260, Note_off_c, 8, 71, 64
12, 19260, Note_on_c, 8, 69, 127
12, 19290, Note_off_c, 8, 65, 64
12, 19295, Note_off_c, 8, 57, 64
12, 19320, Note_on_c, 8, 67, 127
12, 19320, Note_on_c, 8, 55, 67
12, 19320, Note_on_c, 8, 59, 67
12, 19320, Note_on_c, 8, 62, 65
12, 19330, Note_off_c, 8, 69, 64
12, 19330, Note_off_c, 8, 60, 64
12, 19380, Note_off_c, 8, 67, 64
12, 19380, Note_on_c, 8, 65, 127
12, 19410, Note_on_c, 8, 67, 127
12, 19415, Note_off_c, 8, 65, 64
12, 19420, Note_off_c, 8, 62, 64
12, 19435, Note_off_c, 8, 59, 64
12, 19440, Note_on_c, 8, 60, 63
12, 19440, Note_on_c, 8, 64, 70
12, 19550, Note_off_c, 8, 67, 64
12, 19560, Note_on_c, 8, 67, 127
12, 19645, Note_off_c, 8, 55, 64
12, 19655, Note_off_c, 8, 64, 64
12, 19660, Note_off_c, 8, 60, 64
12, 19675, Note_off_c, 8, 67, 64
12, 19680, Note_on_c, 8, 60, 127
12, 19680, Note_on_c, 8, 57, 67
12, 19680, Note_on_c, 8, 60, 73
12, 19680, Note_on_c, 8, 64, 72
12, 19860, Note_on_c, 8, 64, 127
12, 19870, Note_off_c, 8, 57, 64
12, 19870, Note_off_c, 8, 60, 64
12, 19875, Note_off_c, 8, 60, 64
12, 19920, Note_on_c, 8, 55, 82
12, 19920, Note_on_c, 8, 67, 127
12, 19920, Note_on_c, 8, 59, 73
12, 19925, Note_off_c, 8, 64, 64
12, 19980, Note_off_c, 8, 67, 64
12, 19980, Note_on_c, 8, 64, 120
12, 19995, Note_off_c, 8, 64, 64
12, 20040, Note_on_c, 8, 62, 127
12, 20040, Note_on_c, 8, 62, 46
12, 20040, Note_on_c, 8, 65, 56
12, 20045, Note_off_c, 8, 64, 64
12, 20130, Note_on_c, 8, 60, 105
12, 20135, Note_off_c, 8, 62, 64
12, 20140, Note_off_c, 8, 65, 64
12, 20140, Note_off_c, 8, 62, 64
12, 20145, Note_off_c, 8, 60, 64
12, 20155, Note_off_c, 8, 59, 64
12, 20160, Note_on_c, 8, 60, 116
12, 20160, Note_on_c, 8, 60, 74
12, 20160, Note_on_c, 8, 64, 72
12, 20265, Note_off_c, 8, 64, 64
12, 20270, Note_off_c, 8, 55, 64
12, 20280, Note_on_c, 8, 65, 86
12, 20280, Note_on_c, 8, 69, 98
12, 20280, Note_on_c, 8, 57, 63
12, 20280, Note_on_c, 8, 65, 82
12, 20285, Note_off_c, 8, 60, 64
12, 20385, Note_off_c, 8, 57, 64
12, 20385, Note_off_c, 8, 69, 64
12, 20385, Note_off_c, 8, 65, 64
12, 20390, Note_off_c, 8, 65, 64
12, 20400, Note_off_c, 8, 60, 64
12, 20400, Note_on_c, 8, 55, 61
12, 20400, Note_on_c, 8, 64, 89
12, 20400, Note_on_c, 8, 67, 81
12, 20400, Note_on_c, 8, 59, 62
12, 20400, Note_on_c, 8, 64, 77
12, 20510, Note_off_c, 8, 64, 64
12, 20520, Note_off_c, 8, 67, 64
12, 20520, Note_on_c, 8, 62, 87
12, 20520, Note_on_c, 8, 65, 96
12, 20520, Note_on_c, 8, 62, 69
12, 20530, Note_off_c, 8, 64, 64
12, 20580, Note_off_c, 8, 65, 64
12, 20610, Note_off_c, 8, 62, 64
12, 20625, Note_off_c, 8, 62, 64
12, 20625, Note_off_c, 8, 59, 64
12, 20640, Note_on_c, 8, 72, 127
12, 20640, Note_on_c, 8, 60, 68
12, 20640, Note_on_c, 8, 64, 90
12, 20745, Note_off_c, 8, 64, 64
12, 20760, Note_off_c, 8, 60, 64
12, 20760, Note_off_c, 8, 72, 64
12, 20760, Note_on_c, 8, 59, 42
12, 20760, Note_on_c, 8, 71, 127
12, 20760, Note_on_c, 8, 62, 63
12, 20850, Note_off_c, 8, 62, 64
12, 20880, Note_on_c, 8, 67, 127
12, 20880, Note_on_c, 8, 64, 59
12, 20885, Note_off_c, 8, 71, 64
12, 21000, Note_on_c, 8, 64, 127
12, 21005, Note_off_c, 8, 67, 64
12, 21105, Note_off_c, 8, 55, 64
12, 21110, Note_off_c, 8, 64, 64
12, 21120, Note_off_c, 8, 59, 64
12, 21120, Note_on_c, 8, 69, 127
12, 21120, Note_on_c, 8, 57, 55
12, 21120, Note_on_c, 8, 60, 62
12, 21120, Note_on_c, 8, 65, 78
12, 21130, Note_off_c, 8, 64, 64
12, 21180, Note_off_c, 8, 69, 64
12, 21180, Note_on_c, 8, 71, 127
12, 21240, Note_on_c, 8, 69, 127
12, 21245, Note_off_c, 8, 71, 64
12, 21300, Note_on_c, 8, 67, 127
12, 21305, Note_off_c, 8, 69, 64
12, 21330, Note_off_c, 8, 57, 64
12, 21340, Note_off_c, 8, 65, 64
12, 21360, Note_off_c, 8, 67, 64
12, 21360, Note_on_c, 8, 62, 64
12, 21360, Note_on_c, 8, 55, 76
12, 21360, Note_on_c, 8, 62, 127
12, 21360, Note_on_c, 8, 59, 59
12, 21370, Note_off_c, 8, 60, 64
12, 21550, Note_off_c, 8, 59, 64
12, 21550, Note_off_c, 8, 62, 64
12, 21600, Note_off_c, 8, 62, 64
12, 21600, Note_on_c, 8, 60, 70
12, 21600, Note_on_c, 8, 60, 127
12, 21600, Note_on_c, 8, 64, 82
12, 21720, Note_on_c, 8, 64, 127
12, 21725, Note_off_c, 8, 60, 64
12, 21770, Note_off_c, 8, 64, 64
12, 21780, Note_on_c, 8, 67, 118
12, 21825, Note_off_c, 8, 55, 64
12, 21835, Note_off_c, 8, 67, 64
12, 21840, Note_on_c, 8, 57, 92
12, 21840, Note_on_c, 8, 69, 127
12, 21840, Note_on_c, 8, 72, 124
12, 21940, Note_off_c, 8, 69, 64
12, 21945, Note_off_c, 8, 72, 64
12, 21960, Note_on_c, 8, 69, 120
12, 21960, Note_on_c, 8, 72, 127
12, 22035, Note_off_c, 8, 64, 64
12, 22055, Note_off_c, 8, 69, 64
12, 22060, Note_off_c, 8, 72, 64
12, 22080, Note_on_c, 8, 71, 127
12, 22080, Note_on_c, 8, 74, 127
12, 22080, Note_on_c, 8, 54, 66
12, 22080, Note_on_c, 8, 62, 73
12, 22255, Note_off_c, 8, 74, 64
12, 22255, Note_off_c, 8, 71, 64
12, 22260, Note_on_c, 8, 72, 114
12, 22260, Note_on_c, 8, 76, 127
12, 22265, Note_off_c, 8, 54, 64
12, 22270, Note_off_c, 8, 60, 64
12, 22280, Note_off_c, 8, 57, 64
12, 22310, Note_off_c, 8, 72, 64
12, 22320, Note_on_c, 8, 55, 49
12, 22320, Note_on_c, 8, 71, 115
12, 22320, Note_on_c, 8, 74, 122
12, 22320, Note_on_c, 8, 59, 52
12, 22325, Note_off_c, 8, 76, 64
12, 22495, Note_off_c, 8, 74, 64
12, 22520, Note_off_c, 8, 59, 64
12, 22540, Note_off_c, 8, 62, 64
12, 22560, Note_on_c, 8, 76, 127
12, 22560, Note_on_c, 8, 60, 68
12, 22560, Note_on_c, 8, 64, 92
12, 22565, Note_off_c, 8, 71, 64
12, 22650, Note_off_c, 8, 60, 64
12, 22670, Note_off_c, 8, 64, 64
12, 22680, Note_on_c, 8, 74, 127
12, 22680, Note_on_c, 8, 56, 30
12, 22680, Note_on_c, 8, 59, 47
12, 22680, Note_on_c, 8, 62, 78
12, 22685, Note_off_c, 8, 76, 64
12, 22685, Note_off_c, 8, 55, 64
12, 22770, Note_off_c, 8, 59, 64
12, 22770, Note_on_c, 8, 60, 47
12, 22770, Note_on_c, 8, 57, 48
12, 22785, Note_off_c, 8, 62, 64
12, 22790, Note_off_c, 8, 56, 64
12, 22800, Note_on_c, 8, 72, 127
12, 22800, Note_on_c, 8, 64, 52
12, 22810, Note_off_c, 8, 74, 64
12, 22880, Note_off_c, 8, 57, 64
12, 22920, Note_off_c, 8, 72, 64
12, 22920, Note_on_c, 8, 67, 127
12, 22920, Note_on_c, 8, 55, 65
12, 23010, Note_off_c, 8, 64, 64
12, 23025, Note_off_c, 8, 55, 64
12, 23040, Note_off_c, 8, 67, 64
12, 23040, Note_on_c, 8, 71, 127
12, 23040, Note_on_c, 8, 57, 55
12, 23040, Note_on_c, 8, 65, 69
12, 23100, Note_on_c, 8, 69, 127
12, 23105, Note_off_c, 8, 71, 64
12, 23160, Note_on_c, 8, 67, 127
12, 23160, Note_on_c, 8, 55, 53
12, 23160, Note_on_c, 8, 59, 68
12, 23160, Note_on_c, 8, 62, 76
12, 23165, Note_off_c, 8, 65, 64
12, 23165, Note_off_c, 8, 60, 64
12, 23170, Note_off_c, 8, 69, 64
12, 23180, Note_off_c, 8, 57, 64
12, 23220, Note_on_c, 8, 65, 127
12, 23225, Note_off_c, 8, 67, 64
12, 23245, Note_off_c, 8, 62, 64
12, 23265, Note_off_c, 8, 59, 64
12, 23280, Note_on_c, 8, 64, 64
12, 23280, Note_on_c, 8, 60, 65
12, 23280, Note_on_c, 8, 67, 127
12, 23290, Note_off_c, 8, 65, 64
12, 23400, Note_off_c, 8, 67, 64
12, 23400, Note_on_c, 8, 67, 124
12, 23490, Note_off_c, 8, 55, 64
12, 23510, Note_off_c, 8, 67, 64
12, 23520, Note_on_c, 8, 60, 127
12, 23520, Note_on_c, 8, 57, 85
12, 23700, Note_on_c, 8, 64, 127
12, 23735, Note_off_c, 8, 57, 64
12, 23740, Note_off_c, 8, 60, 64
12, 23760, Note_on_c, 8, 55, 82
12, 23760, Note_on_c, 8, 67, 119
12, 23760, Note_on_c, 8, 59, 70
12, 23765, Note_off_c, 8, 64, 64
12, 23765, Note_off_c, 8, 60, 64
12, 23820, Note_on_c, 8, 64, 124
12, 23825, Note_off_c, 8, 67, 64
12, 23830, Note_off_c, 8, 64, 64
12, 23880, Note_on_c, 8, 62, 127
12, 23880, Note_on_c, 8, 62, 48
12, 23880, Note_on_c, 8, 65, 58
12, 23885, Note_off_c, 8, 64, 64
12, 23970, Note_on_c, 8, 60, 112
12, 23975, Note_off_c, 8, 62, 64
12, 23975, Note_off_c, 8, 62, 64
12, 23980, Note_off_c, 8, 65, 64
12, 23985, Note_off_c, 8, 60, 64
12, 23990, Note_off_c, 8, 59, 64
12, 24000, Note_on_c, 8, 60, 127
12, 24000, Note_on_c, 8, 60, 68
12, 24000, Note_on_c, 8, 64, 82
12, 24105, Note_off_c, 8, 64, 64
12, 24105, Note_off_c, 8, 55, 64
12, 24120, Note_on_c, 8, 53, 122
12, 24120, Note_on_c, 8, 57, 123
12, 24120, Note_on_c, 8, 57, 30
12, 24120, Note_on_c, 8, 65, 78
12, 24220, Note_off_c, 8, 65, 64
12, 24225, Note_off_c, 8, 53, 64
12, 24230, Note_off_c, 8, 57, 64
12, 24235, Note_off_c, 8, 57, 64
12, 24240, Note_on_c, 8, 52, 108
12, 24240, Note_on_c, 8, 55, 98
12, 24240, Note_on_c, 8, 55, 59
12, 24240, Note_on_c, 8, 64, 64
12, 24340, Note_off_c, 8, 64, 64
12, 24355, Note_off_c, 8, 52, 64
12, 24360, Note_off_c, 8, 60, 64
12, 24360, Note_on_c, 8, 50, 111
12, 24360, Note_on_c, 8, 53, 103
12, 24360, Note_on_c, 8, 59, 56
12, 24360, Note_on_c, 8, 62, 59
12, 24370, Note_off_c, 8, 55, 64
12, 24445, Note_off_c, 8, 60, 64
12, 24450, Note_off_c, 8, 53, 64
12, 24450, Note_off_c, 8, 50, 64
12, 24465, Note_off_c, 8, 62, 64
12, 24465, Note_off_c, 8, 59, 64
12, 24465, Note_off_c, 8, 55, 64
12, 24480, Note_on_c, 8, 84, 127
12, 24480, Note_on_c, 8, 55, 54
12, 24480, Note_on_c, 8, 60, 59
12, 24480, Note_on_c, 8, 64, 62
12, 24590, Note_off_c, 8, 64, 64
12, 24600, Note_off_c, 8, 60, 64
12, 24600, Note_off_c, 8, 84, 64
12, 24600, Note_on_c, 8, 83, 127
12, 24600, Note_on_c, 8, 59, 69
12, 24600, Note_on_c, 8, 62, 72
12, 24690, Note_off_c, 8, 62, 64
12, 24720, Note_off_c, 8, 83, 64
12, 24720, Note_on_c, 8, 79, 127
12, 24720, Note_on_c, 8, 64, 62
12, 24835, Note_off_c, 8, 79, 64
12, 24840, Note_on_c, 8, 76, 127
12, 24925, Note_off_c, 8, 55, 64
12, 24940, Note_off_c, 8, 64, 64
12, 24940, Note_off_c, 8, 59, 64
12, 24960, Note_on_c, 8, 80, 102
12, 24960, Note_on_c, 8, 81, 127
12, 24960, Note_on_c, 8, 57, 53
12, 24960, Note_on_c, 8, 60, 52
12, 24960, Note_on_c, 8, 65, 76
12, 24965, Note_off_c, 8, 80, 64
12, 24965, Note_off_c, 8, 76, 64
12, 25020, Note_off_c, 8, 81, 64
12, 25020, Note_on_c, 8, 83, 127
12, 25080, Note_on_c, 8, 81, 127
12, 25085, Note_off_c, 8, 83, 64
12, 25140, Note_on_c, 8, 79, 127
12, 25145, Note_off_c, 8, 81, 64
12, 25165, Note_off_c, 8, 57, 64
12, 25170, Note_off_c, 8, 65, 64
12, 25200, Note_on_c, 8, 55, 53
12, 25200, Note_on_c, 8, 74, 127
12, 25200, Note_on_c, 8, 59, 51
12, 25200, Note_on_c, 8, 62, 56
12, 25205, Note_off_c, 8, 60, 64
12, 25210, Note_off_c, 8, 79, 64
12, 25410, Note_off_c, 8, 62, 64
12, 25420, Note_off_c, 8, 59, 64
12, 25440, Note_off_c, 8, 74, 64
12, 25440, Note_on_c, 8, 60, 74
12, 25440, Note_on_c, 8, 72, 127
12, 25440, Note_on_c, 8, 64, 87
12, 25560, Note_on_c, 8, 76, 127
12, 25565, Note_off_c, 8, 72, 64
12, 25620, Note_on_c, 8, 79, 109
12, 25625, Note_off_c, 8, 76, 64
12, 25655, Note_off_c, 8, 55, 64
12, 25675, Note_off_c, 8, 79, 64
12, 25680, Note_on_c, 8, 57, 87
12, 25680, Note_on_c, 8, 84, 111
12, 25785, Note_off_c, 8, 84, 64
12, 25800, Note_on_c, 8, 84, 127
12, 25865, Note_off_c, 8, 64, 64
12, 25920, Note_on_c, 8, 86, 127
12, 25920, Note_on_c, 8, 54, 73
12, 25920, Note_on_c, 8, 62, 55
12, 25925, Note_off_c, 8, 84, 64
12, 26090, Note_off_c, 8, 54, 64
12, 26090, Note_off_c, 8, 60, 64
12, 26100, Note_off_c, 8, 86, 64
12, 26100, Note_on_c, 8, 88, 127
12, 26110, Note_off_c, 8, 57, 64
12, 26160, Note_off_c, 8, 88, 64
12, 26160, Note_on_c, 8, 55, 47
12, 26160, Note_on_c, 8, 86, 127
12, 26160, Note_on_c, 8, 59, 65
12, 26330, Note_off_c, 8, 59, 64
12, 26350, Note_off_c, 8, 62, 64
12, 26400, Note_on_c, 8, 87, 116
12, 26400, Note_on_c, 8, 88, 127
12, 26400, Note_on_c, 8, 60, 68
12, 26400, Note_on_c, 8, 64, 76
12, 26405, Note_off_c, 8, 86, 64
12, 26415, Note_off_c, 8, 87, 64
12, 26495, Note_off_c, 8, 60, 64
12, 26505, Note_off_c, 8, 64, 64
12, 26520, Note_off_c, 8, 55, 64
12, 26520, Note_on_c, 8, 86, 127
12, 26520, Note_on_c, 8, 56, 18
12, 26520, Note_on_c, 8, 59, 66
12, 26520, Note_on_c, 8, 62, 78
12, 26525, Note_off_c, 8, 88, 64
12, 26615, Note_off_c, 8, 59, 64
12, 26630, Note_off_c, 8, 62, 64
12, 26630, Note_off_c, 8, 56, 64
12, 26640, Note_on_c, 8, 60, 36
12, 26640, Note_on_c, 8, 57, 42
12, 26640, Note_on_c, 8, 84, 127
12, 26640, Note_on_c, 8, 64, 62
12, 26645, Note_off_c, 8, 86, 64
12, 26755, Note_off_c, 8, 84, 64
12, 26760, Note_on_c, 8, 79, 127
12, 26760, Note_on_c, 8, 55, 70
12, 26855, Note_off_c, 8, 55, 64
12, 26860, Note_off_c, 8, 64, 64
12, 26880, Note_on_c, 8, 83, 127
12, 26880, Note_on_c, 8, 65, 62
12, 26890, Note_off_c, 8, 79, 64
12, 26940, Note_off_c, 8, 83, 64
12, 26940, Note_on_c, 8, 81, 127
12, 26970, Note_off_c, 8, 65, 64
12, 26975, Note_off_c, 8, 57, 64
12, 27000, Note_on_c, 8, 79, 127
12, 27000, Note_on_c, 8, 55, 67
12, 27000, Note_on_c, 8, 59, 67
12, 27000, Note_on_c, 8, 62, 65
12, 27010, Note_off_c, 8, 81, 64
12, 27010, Note_off_c, 8, 60, 64
12, 27060, Note_off_c, 8, 79, 64
12, 27060, Note_on_c, 8, 77, 127
12, 27090, Note_on_c, 8, 79, 127
12, 27095, Note_off_c, 8, 77, 64
12, 27100, Note_off_c, 8, 62, 64
12, 27115, Note_off_c, 8, 59, 64
12, 27120, Note_on_c, 8, 60, 63
12, 27120, Note_on_c, 8, 64, 70
12, 27230, Note_off_c, 8, 79, 64
12, 27240, Note_on_c, 8, 79, 127
12, 27325, Note_off_c, 8, 55, 64
12, 27335, Note_off_c, 8, 64, 64
12, 27340, Note_off_c, 8, 60, 64
12, 27355, Note_off_c, 8, 79, 64
12, 27360, Note_on_c, 8, 72, 127
12, 27360, Note_on_c, 8, 57, 67
12, 27360, Note_on_c, 8, 60, 73
12, 27360, Note_on_c, 8, 64, 72
12, 27540, Note_on_c, 8, 76, 127
12, 27550, Note_off_c, 8, 57, 64
12, 27550, Note_off_c, 8, 72, 64
12, 27555, Note_off_c, 8, 60, 64
12, 27600, Note_on_c, 8, 55, 82
12, 27600, Note_on_c, 8, 79, 127
12, 27600, Note_on_c, 8, 59, 73
12, 27605, Note_off_c, 8, 76, 64
12, 27660, Note_off_c, 8, 79, 64
12, 27660, Note_on_c, 8, 76, 120
12, 27675, Note_off_c, 8, 64, 64
12, 27720, Note_on_c, 8, 74, 127
12, 27720, Note_on_c, 8, 62, 46
12, 27720, Note_on_c, 8, 65, 56
12, 27725, Note_off_c, 8, 76, 64
12, 27810, Note_on_c, 8, 72, 105
12, 27815, Note_off_c, 8, 62, 64
12, 27820, Note_off_c, 8, 65, 64
12, 27820, Note_off_c, 8, 74, 64
12, 27825, Note_off_c, 8, 72, 64
12, 27835, Note_off_c, 8, 59, 64
12, 27840, Note_on_c, 8, 72, 116
12, 27840, Note_on_c, 8, 60, 74
12, 27840, Note_on_c, 8, 64, 72
12, 27945, Note_off_c, 8, 64, 64
12, 27950, Note_off_c, 8, 55, 64
12, 27960, Note_on_c, 8, 65, 86
12, 27960, Note_on_c, 8, 69, 98
12, 27960, Note_on_c, 8, 57, 63
12, 27960, Note_on_c, 8, 65, 82
12, 27965, Note_off_c, 8, 72, 64
12, 28065, Note_off_c, 8, 57, 64
12, 28065, Note_off_c, 8, 69, 64
12, 28065, Note_off_c, 8, 65, 64
12, 28070, Note_off_c, 8, 65, 64
12, 28080, Note_off_c, 8, 60, 64
12, 28080, Note_on_c, 8, 55, 61
12, 28080, Note_on_c, 8, 64, 89
12, 28080, Note_on_c, 8, 67, 81
12, 28080, Note_on_c, 8, 59, 62
12, 28080, Note_on_c, 8, 64, 77
12, 28190, Note_off_c, 8, 64, 64
12, 28200, Note_off_c, 8, 67, 64
12, 28200, Note_on_c, 8, 62, 87
12, 28200, Note_on_c, 8, 65, 96
12, 28200, Note_on_c, 8, 62, 69
12, 28210, Note_off_c, 8, 64, 64
12, 28260, Note_off_c, 8, 65, 64
12, 28290, Note_off_c, 8, 62, 64
12, 28305, Note_off_c, 8, 62, 64
12, 28305, Note_off_c, 8, 59, 64
12, 28320, Note_on_c, 8, 60, 109
12, 28320, Note_on_c, 8, 64, 93
12, 28320, Note_on_c, 8, 60, 68
12, 28320, Note_on_c, 8, 64, 90
12, 28680, Note_off_c, 8, 64, 64
12, 28680, Note_off_c, 8, 60, 64
12, 28705, Note_off_c, 8, 60, 64
12, 28725, Note_off_c, 8, 64, 64
12, 28785, Note_off_c, 8, 55, 64
12, 28785, End_track
13, 0, Start_track
13, 0, Control_c, 9, 7, 83
13, 0, Control_c, 9, 0, 0
13, 0, End_track
14, 0, Start_track
14, 0, Control_c, 10, 7, 0
14, 0, Control_c, 10, 0, 0
14, 0, End_track
15, 0, Start_track
15, 0, Title_t, "Mixé sur Sound Canvas SC 88 pr"
15, 0, Control_c, 11, 7, 0
15, 0, Control_c, 11, 0, 0
15, 0, End_track
16, 0, Start_track
16, 0, Control_c, 12, 7, 0
16, 0, Control_c, 12, 0, 0
16, 0, End_track
17, 0, Start_track
17, 0, Control_c, 13, 7, 0
17, 0, Control_c, 13, 0, 0
17, 0, End_track
18, 0, Start_track
18, 0, Control_c, 14, 7, 0
18, 0, Control_c, 14, 0, 0
18, 0, End_track
19, 0, Start_track
19, 0, Title_t, "Mélodie"
19, 0, Program_c, 15, 11
19, 0, Control_c, 15, 7, 62
19, 1, Control_c, 15, 0, 0
19, 2, Program_c, 15, 11
19, 3, Control_c, 15, 10, 64
19, 4, Control_c, 15, 91, 80
19, 5, Control_c, 15, 93, 40
19, 6, Control_c, 15, 11, 127
19, 1440, Note_on_c, 15, 84, 127
19, 1560, Note_off_c, 15, 84, 64
19, 1560, Note_on_c, 15, 83, 127
19, 1680, Note_off_c, 15, 83, 64
19, 1680, Note_on_c, 15, 79, 127
19, 1795, Note_off_c, 15, 79, 64
19, 1800, Note_on_c, 15, 76, 127
19, 1920, Note_on_c, 15, 81, 127
19, 1925, Note_off_c, 15, 76, 64
19, 1980, Note_off_c, 15, 81, 64
19, 1980, Note_on_c, 15, 83, 127
19, 2040, Note_on_c, 15, 81, 127
19, 2045, Note_off_c, 15, 83, 64
19, 2100, Note_on_c, 15, 79, 127
19, 2105, Note_off_c, 15, 81, 64
19, 2160, Note_on_c, 15, 74, 127
19, 2170, Note_off_c, 15, 79, 64
19, 2400, Note_off_c, 15, 74, 64
19, 2400, Note_on_c, 15, 72, 127
19, 2520, Note_on_c, 15, 76, 127
19, 2525, Note_off_c, 15, 72, 64
19, 2580, Note_on_c, 15, 79, 109
19, 2585, Note_off_c, 15, 76, 64
19, 2635, Note_off_c, 15, 79, 64
19, 2640, Note_on_c, 15, 84, 111
19, 2745, Note_off_c, 15, 84, 64
19, 2760, Note_on_c, 15, 84, 127
19, 2880, Note_on_c, 15, 86, 127
19, 2885, Note_off_c, 15, 84, 64
19, 3060, Note_off_c, 15, 86, 64
19, 3060, Note_on_c, 15, 88, 127
19, 3120, Note_off_c, 15, 88, 64
19, 3120, Note_on_c, 15, 86, 127
19, 3360, Note_on_c, 15, 88, 127
19, 3365, Note_off_c, 15, 86, 64
19, 3480, Note_on_c, 15, 86, 127
19, 3485, Note_off_c, 15, 88, 64
19, 3600, Note_on_c, 15, 84, 127
19, 3605, Note_off_c, 15, 86, 64
19, 3715, Note_off_c, 15, 84, 64
19, 3720, Note_on_c, 15, 79, 127
19, 3840, Note_on_c, 15, 83, 127
19, 3850, Note_off_c, 15, 79, 64
19, 3900, Note_off_c, 15, 83, 64
19, 3900, Note_on_c, 15, 81, 127
19, 3960, Note_on_c, 15, 79, 127
19, 3970, Note_off_c, 15, 81, 64
19, 4020, Note_off_c, 15, 79, 64
19, 4020, Note_on_c, 15, 77, 127
19, 4055, Note_off_c, 15, 77, 64
19, 4060, Note_on_c, 15, 79, 127
19, 4200, Note_off_c, 15, 79, 64
19, 4320, Note_on_c, 15, 72, 127
19, 4500, Note_on_c, 15, 76, 127
19, 4510, Note_off_c, 15, 72, 64
19, 4560, Note_on_c, 15, 79, 127
19, 4565, Note_off_c, 15, 76, 64
19, 4620, Note_off_c, 15, 79, 64
19, 4620, Note_on_c, 15, 76, 120
19, 4685, Note_off_c, 15, 76, 64
19, 4696, Note_on_c, 15, 74, 127
19, 4726, Note_off_c, 15, 74, 64
19, 4744, Note_on_c, 15, 74, 127
19, 4774, Note_off_c, 15, 74, 64
19, 4800, Note_on_c, 15, 72, 116
19, 4925, Note_off_c, 15, 72, 64
19, 5280, Note_on_c, 15, 84, 127
19, 5400, Note_off_c, 15, 84, 64
19, 5400, Note_on_c, 15, 83, 127
19, 5520, Note_off_c, 15, 83, 64
19, 5520, Note_on_c, 15, 79, 127
19, 5635, Note_off_c, 15, 79, 64
19, 5640, Note_on_c, 15, 76, 127
19, 5760, Note_on_c, 15, 81, 127
19, 5765, Note_off_c, 15, 76, 64
19, 5820, Note_off_c, 15, 81, 64
19, 5820, Note_on_c, 15, 83, 127
19, 5880, Note_on_c, 15, 81, 127
19, 5885, Note_off_c, 15, 83, 64
19, 5940, Note_on_c, 15, 79, 127
19, 5945, Note_off_c, 15, 81, 64
19, 6000, Note_on_c, 15, 74, 127
19, 6010, Note_off_c, 15, 79, 64
19, 6240, Note_off_c, 15, 74, 64
19, 6240, Note_on_c, 15, 72, 127
19, 6360, Note_on_c, 15, 76, 127
19, 6365, Note_off_c, 15, 72, 64
19, 6420, Note_on_c, 15, 79, 109
19, 6425, Note_off_c, 15, 76, 64
19, 6475, Note_off_c, 15, 79, 64
19, 6480, Note_on_c, 15, 84, 111
19, 6585, Note_off_c, 15, 84, 64
19, 6600, Note_on_c, 15, 84, 127
19, 6720, Note_on_c, 15, 86, 127
19, 6725, Note_off_c, 15, 84, 64
19, 6900, Note_off_c, 15, 86, 64
19, 6900, Note_on_c, 15, 88, 127
19, 6960, Note_off_c, 15, 88, 64
19, 6960, Note_on_c, 15, 86, 127
19, 7200, Note_on_c, 15, 88, 127
19, 7205, Note_off_c, 15, 86, 64
19, 7320, Note_on_c, 15, 86, 127
19, 7325, Note_off_c, 15, 88, 64
19, 7440, Note_on_c, 15, 84, 127
19, 7445, Note_off_c, 15, 86, 64
19, 7555, Note_off_c, 15, 84, 64
19, 7560, Note_on_c, 15, 79, 127
19, 7680, Note_on_c, 15, 83, 127
19, 7690, Note_off_c, 15, 79, 64
19, 7740, Note_off_c, 15, 83, 64
19, 7740, Note_on_c, 15, 81, 127
19, 7800, Note_on_c, 15, 79, 127
19, 7810, Note_off_c, 15, 81, 64
19, 7860, Note_off_c, 15, 79, 64
19, 7860, Note_on_c, 15, 77, 127
19, 7895, Note_off_c, 15, 77, 64
19, 7900, Note_on_c, 15, 79, 127
19, 8040, Note_off_c, 15, 79, 64
19, 8160, Note_on_c, 15, 72, 127
19, 8340, Note_on_c, 15, 76, 127
19, 8350, Note_off_c, 15, 72, 64
19, 8400, Note_on_c, 15, 79, 127
19, 8405, Note_off_c, 15, 76, 64
19, 8460, Note_off_c, 15, 79, 64
19, 8460, Note_on_c, 15, 76, 120
19, 8525, Note_off_c, 15, 76, 64
19, 8532, Note_on_c, 15, 74, 127
19, 8562, Note_off_c, 15, 74, 64
19, 8580, Note_on_c, 15, 74, 127
19, 8610, Note_off_c, 15, 74, 64
19, 8640, Note_on_c, 15, 72, 116
19, 8765, Note_off_c, 15, 72, 64
19, 9120, Note_on_c, 15, 84, 127
19, 9240, Note_off_c, 15, 84, 64
19, 9240, Note_on_c, 15, 83, 127
19, 9360, Note_off_c, 15, 83, 64
19, 9360, Note_on_c, 15, 79, 127
19, 9475, Note_off_c, 15, 79, 64
19, 9480, Note_on_c, 15, 76, 127
19, 9600, Note_on_c, 15, 81, 127
19, 9605, Note_off_c, 15, 76, 64
19, 9660, Note_off_c, 15, 81, 64
19, 9660, Note_on_c, 15, 83, 127
19, 9720, Note_on_c, 15, 81, 127
19, 9725, Note_off_c, 15, 83, 64
19, 9780, Note_on_c, 15, 79, 127
19, 9785, Note_off_c, 15, 81, 64
19, 9840, Note_on_c, 15, 74, 127
19, 9850, Note_off_c, 15, 79, 64
19, 10080, Note_off_c, 15, 74, 64
19, 10080, Note_on_c, 15, 72, 127
19, 10200, Note_on_c, 15, 76, 127
19, 10205, Note_off_c, 15, 72, 64
19, 10260, Note_on_c, 15, 79, 109
19, 10265, Note_off_c, 15, 76, 64
19, 10315, Note_off_c, 15, 79, 64
19, 10320, Note_on_c, 15, 84, 111
19, 10425, Note_off_c, 15, 84, 64
19, 10440, Note_on_c, 15, 84, 127
19, 10560, Note_on_c, 15, 86, 127
19, 10565, Note_off_c, 15, 84, 64
19, 10740, Note_off_c, 15, 86, 64
19, 10740, Note_on_c, 15, 88, 127
19, 10800, Note_off_c, 15, 88, 64
19, 10800, Note_on_c, 15, 86, 127
19, 11040, Note_on_c, 15, 88, 127
19, 11045, Note_off_c, 15, 86, 64
19, 11160, Note_on_c, 15, 86, 127
19, 11165, Note_off_c, 15, 88, 64
19, 11280, Note_on_c, 15, 84, 127
19, 11285, Note_off_c, 15, 86, 64
19, 11395, Note_off_c, 15, 84, 64
19, 11400, Note_on_c, 15, 79, 127
19, 11520, Note_on_c, 15, 83, 127
19, 11530, Note_off_c, 15, 79, 64
19, 11580, Note_off_c, 15, 83, 64
19, 11580, Note_on_c, 15, 81, 127
19, 11640, Note_on_c, 15, 79, 127
19, 11650, Note_off_c, 15, 81, 64
19, 11700, Note_off_c, 15, 79, 64
19, 11700, Note_on_c, 15, 77, 127
19, 11735, Note_off_c, 15, 77, 64
19, 11740, Note_on_c, 15, 79, 127
19, 11880, Note_off_c, 15, 79, 64
19, 12000, Note_on_c, 15, 72, 127
19, 12180, Note_on_c, 15, 76, 127
19, 12190, Note_off_c, 15, 72, 64
19, 12240, Note_on_c, 15, 79, 127
19, 12245, Note_off_c, 15, 76, 64
19, 12300, Note_off_c, 15, 79, 64
19, 12300, Note_on_c, 15, 76, 120
19, 12365, Note_off_c, 15, 76, 64
19, 12372, Note_on_c, 15, 74, 127
19, 12402, Note_off_c, 15, 74, 64
19, 12420, Note_on_c, 15, 74, 127
19, 12450, Note_off_c, 15, 74, 64
19, 12480, Note_on_c, 15, 72, 116
19, 12605, Note_off_c, 15, 72, 64
19, 12960, Note_on_c, 15, 84, 127
19, 13080, Note_off_c, 15, 84, 64
19, 13080, Note_on_c, 15, 83, 127
19, 13200, Note_off_c, 15, 83, 64
19, 13200, Note_on_c, 15, 79, 127
19, 13315, Note_off_c, 15, 79, 64
19, 13320, Note_on_c, 15, 76, 127
19, 13440, Note_on_c, 15, 81, 127
19, 13445, Note_off_c, 15, 76, 64
19, 13500, Note_off_c, 15, 81, 64
19, 13500, Note_on_c, 15, 83, 127
19, 13560, Note_on_c, 15, 81, 127
19, 13565, Note_off_c, 15, 83, 64
19, 13620, Note_on_c, 15, 79, 127
19, 13625, Note_off_c, 15, 81, 64
19, 13680, Note_on_c, 15, 74, 127
19, 13690, Note_off_c, 15, 79, 64
19, 13920, Note_off_c, 15, 74, 64
19, 13920, Note_on_c, 15, 72, 127
19, 14040, Note_on_c, 15, 76, 127
19, 14045, Note_off_c, 15, 72, 64
19, 14100, Note_on_c, 15, 79, 109
19, 14105, Note_off_c, 15, 76, 64
19, 14155, Note_off_c, 15, 79, 64
19, 14160, Note_on_c, 15, 84, 111
19, 14265, Note_off_c, 15, 84, 64
19, 14280, Note_on_c, 15, 84, 127
19, 14400, Note_on_c, 15, 86, 127
19, 14405, Note_off_c, 15, 84, 64
19, 14580, Note_off_c, 15, 86, 64
19, 14580, Note_on_c, 15, 88, 127
19, 14640, Note_off_c, 15, 88, 64
19, 14640, Note_on_c, 15, 86, 127
19, 14880, Note_on_c, 15, 88, 127
19, 14885, Note_off_c, 15, 86, 64
19, 15000, Note_on_c, 15, 86, 127
19, 15005, Note_off_c, 15, 88, 64
19, 15120, Note_on_c, 15, 84, 127
19, 15125, Note_off_c, 15, 86, 64
19, 15235, Note_off_c, 15, 84, 64
19, 15240, Note_on_c, 15, 79, 127
19, 15360, Note_on_c, 15, 83, 127
19, 15370, Note_off_c, 15, 79, 64
19, 15420, Note_off_c, 15, 83, 64
19, 15420, Note_on_c, 15, 81, 127
19, 15480, Note_on_c, 15, 79, 127
19, 15490, Note_off_c, 15, 81, 64
19, 15540, Note_off_c, 15, 79, 64
19, 15540, Note_on_c, 15, 77, 127
19, 15575, Note_off_c, 15, 77, 64
19, 15580, Note_on_c, 15, 79, 127
19, 15720, Note_off_c, 15, 79, 64
19, 15840, Note_on_c, 15, 72, 127
19, 16020, Note_on_c, 15, 76, 127
19, 16030, Note_off_c, 15, 72, 64
19, 16080, Note_on_c, 15, 79, 127
19, 16085, Note_off_c, 15, 76, 64
19, 16140, Note_off_c, 15, 79, 64
19, 16140, Note_on_c, 15, 76, 120
19, 16205, Note_off_c, 15, 76, 64
19, 16212, Note_on_c, 15, 74, 127
19, 16242, Note_off_c, 15, 74, 64
19, 16256, Note_on_c, 15, 74, 127
19, 16286, Note_off_c, 15, 74, 64
19, 16320, Note_on_c, 15, 72, 116
19, 16445, Note_off_c, 15, 72, 64
19, 16800, Note_on_c, 15, 84, 127
19, 16920, Note_off_c, 15, 84, 64
19, 16920, Note_on_c, 15, 83, 127
19, 17040, Note_off_c, 15, 83, 64
19, 17040, Note_on_c, 15, 79, 127
19, 17155, Note_off_c, 15, 79, 64
19, 17160, Note_on_c, 15, 76, 127
19, 17280, Note_on_c, 15, 81, 127
19, 17285, Note_off_c, 15, 76, 64
19, 17340, Note_off_c, 15, 81, 64
19, 17340, Note_on_c, 15, 83, 127
19, 17400, Note_on_c, 15, 81, 127
19, 17405, Note_off_c, 15, 83, 64
19, 17460, Note_on_c, 15, 79, 127
19, 17465, Note_off_c, 15, 81, 64
19, 17520, Note_on_c, 15, 74, 127
19, 17530, Note_off_c, 15, 79, 64
19, 17760, Note_off_c, 15, 74, 64
19, 17760, Note_on_c, 15, 72, 127
19, 17880, Note_on_c, 15, 76, 127
19, 17885, Note_off_c, 15, 72, 64
19, 17940, Note_on_c, 15, 79, 109
19, 17945, Note_off_c, 15, 76, 64
19, 17995, Note_off_c, 15, 79, 64
19, 18000, Note_on_c, 15, 84, 111
19, 18105, Note_off_c, 15, 84, 64
19, 18120, Note_on_c, 15, 84, 127
19, 18240, Note_on_c, 15, 86, 127
19, 18245, Note_off_c, 15, 84, 64
19, 18420, Note_off_c, 15, 86, 64
19, 18420, Note_on_c, 15, 88, 127
19, 18472, Note_on_c, 15, 86, 127
19, 18480, Note_off_c, 15, 88, 64
19, 18717, Note_off_c, 15, 86, 64
19, 18720, Note_on_c, 15, 88, 127
19, 18840, Note_on_c, 15, 86, 127
19, 18845, Note_off_c, 15, 88, 64
19, 18960, Note_on_c, 15, 84, 127
19, 18965, Note_off_c, 15, 86, 64
19, 19075, Note_off_c, 15, 84, 64
19, 19080, Note_on_c, 15, 79, 127
19, 19200, Note_on_c, 15, 83, 127
19, 19210, Note_off_c, 15, 79, 64
19, 19260, Note_off_c, 15, 83, 64
19, 19260, Note_on_c, 15, 81, 127
19, 19320, Note_on_c, 15, 79, 127
19, 19330, Note_off_c, 15, 81, 64
19, 19380, Note_off_c, 15, 79, 64
19, 19380, Note_on_c, 15, 77, 127
19, 19415, Note_off_c, 15, 77, 64
19, 19420, Note_on_c, 15, 79, 127
19, 19560, Note_off_c, 15, 79, 64
19, 19680, Note_on_c, 15, 72, 127
19, 19860, Note_on_c, 15, 76, 127
19, 19870, Note_off_c, 15, 72, 64
19, 19920, Note_on_c, 15, 79, 127
19, 19925, Note_off_c, 15, 76, 64
19, 19980, Note_off_c, 15, 79, 64
19, 19980, Note_on_c, 15, 76, 120
19, 20045, Note_off_c, 15, 76, 64
19, 20052, Note_on_c, 15, 74, 127
19, 20082, Note_off_c, 15, 74, 64
19, 20096, Note_on_c, 15, 74, 127
19, 20126, Note_off_c, 15, 74, 64
19, 20160, Note_on_c, 15, 72, 116
19, 20285, Note_off_c, 15, 72, 64
19, 20640, Note_on_c, 15, 84, 127
19, 20760, Note_off_c, 15, 84, 64
19, 20760, Note_on_c, 15, 83, 127
19, 20880, Note_on_c, 15, 79, 127
19, 20885, Note_off_c, 15, 83, 64
19, 21000, Note_on_c, 15, 76, 127
19, 21005, Note_off_c, 15, 79, 64
19, 21120, Note_on_c, 15, 81, 127
19, 21130, Note_off_c, 15, 76, 64
19, 21180, Note_off_c, 15, 81, 64
19, 21180, Note_on_c, 15, 83, 127
19, 21240, Note_on_c, 15, 81, 127
19, 21245, Note_off_c, 15, 83, 64
19, 21300, Note_on_c, 15, 79, 127
19, 21305, Note_off_c, 15, 81, 64
19, 21360, Note_off_c, 15, 79, 64
19, 21360, Note_on_c, 15, 74, 127
19, 21600, Note_off_c, 15, 74, 64
19, 21600, Note_on_c, 15, 72, 127
19, 21720, Note_on_c, 15, 76, 127
19, 21725, Note_off_c, 15, 72, 64
19, 21770, Note_off_c, 15, 76, 64
19, 21780, Note_on_c, 15, 79, 118
19, 21835, Note_off_c, 15, 79, 64
19, 21840, Note_on_c, 15, 81, 127
19, 21840, Note_on_c, 15, 84, 124
19, 21940, Note_off_c, 15, 81, 64
19, 21945, Note_off_c, 15, 84, 64
19, 21960, Note_on_c, 15, 81, 120
19, 21960, Note_on_c, 15, 84, 127
19, 22055, Note_off_c, 15, 81, 64
19, 22060, Note_off_c, 15, 84, 64
19, 22080, Note_on_c, 15, 83, 127
19, 22080, Note_on_c, 15, 86, 127
19, 22255, Note_off_c, 15, 86, 64
19, 22255, Note_off_c, 15, 83, 64
19, 22260, Note_on_c, 15, 84, 114
19, 22260, Note_on_c, 15, 88, 127
19, 22310, Note_off_c, 15, 84, 64
19, 22320, Note_on_c, 15, 83, 115
19, 22320, Note_on_c, 15, 86, 122
19, 22325, Note_off_c, 15, 88, 64
19, 22495, Note_off_c, 15, 86, 64
19, 22560, Note_on_c, 15, 88, 127
19, 22565, Note_off_c, 15, 83, 64
19, 22680, Note_on_c, 15, 86, 127
19, 22685, Note_off_c, 15, 88, 64
19, 22800, Note_on_c, 15, 84, 127
19, 22810, Note_off_c, 15, 86, 64
19, 22920, Note_off_c, 15, 84, 64
19, 22920, Note_on_c, 15, 79, 127
19, 23040, Note_off_c, 15, 79, 64
19, 23040, Note_on_c, 15, 83, 127
19, 23100, Note_on_c, 15, 81, 127
19, 23105, Note_off_c, 15, 83, 64
19, 23160, Note_on_c, 15, 79, 127
19, 23170, Note_off_c, 15, 81, 64
19, 23220, Note_on_c, 15, 77, 127
19, 23225, Note_off_c, 15, 79, 64
19, 23280, Note_on_c, 15, 79, 127
19, 23290, Note_off_c, 15, 77, 64
19, 23400, Note_off_c, 15, 79, 64
19, 23516, Note_on_c, 15, 72, 127
19, 23638, Note_off_c, 15, 72, 64
19, 23700, Note_on_c, 15, 76, 127
19, 23760, Note_on_c, 15, 79, 119
19, 23765, Note_off_c, 15, 76, 64
19, 23820, Note_on_c, 15, 76, 124
19, 23825, Note_off_c, 15, 79, 64
19, 23885, Note_off_c, 15, 76, 64
19, 23896, Note_on_c, 15, 74, 127
19, 23926, Note_off_c, 15, 74, 64
19, 23940, Note_on_c, 15, 74, 127
19, 23970, Note_off_c, 15, 74, 64
19, 24000, Note_on_c, 15, 72, 127
19, 24222, Note_off_c, 15, 72, 64
19, 24480, Note_on_c, 15, 84, 127
19, 24600, Note_off_c, 15, 84, 64
19, 24600, Note_on_c, 15, 83, 127
19, 24720, Note_off_c, 15, 83, 64
19, 24720, Note_on_c, 15, 79, 127
19, 24835, Note_off_c, 15, 79, 64
19, 24840, Note_on_c, 15, 76, 127
19, 24960, Note_on_c, 15, 81, 127
19, 24965, Note_off_c, 15, 76, 64
19, 25020, Note_off_c, 15, 81, 64
19, 25020, Note_on_c, 15, 83, 127
19, 25080, Note_on_c, 15, 81, 127
19, 25085, Note_off_c, 15, 83, 64
19, 25140, Note_on_c, 15, 79, 127
19, 25145, Note_off_c, 15, 81, 64
19, 25200, Note_on_c, 15, 74, 127
19, 25210, Note_off_c, 15, 79, 64
19, 25440, Note_off_c, 15, 74, 64
19, 25440, Note_on_c, 15, 72, 127
19, 25560, Note_on_c, 15, 76, 127
19, 25565, Note_off_c, 15, 72, 64
19, 25620, Note_on_c, 15, 79, 109
19, 25625, Note_off_c, 15, 76, 64
19, 25675, Note_off_c, 15, 79, 64
19, 25680, Note_on_c, 15, 84, 111
19, 25785, Note_off_c, 15, 84, 64
19, 25800, Note_on_c, 15, 84, 127
19, 25920, Note_on_c, 15, 86, 127
19, 25925, Note_off_c, 15, 84, 64
19, 26100, Note_off_c, 15, 86, 64
19, 26100, Note_on_c, 15, 88, 127
19, 26160, Note_off_c, 15, 88, 64
19, 26160, Note_on_c, 15, 86, 127
19, 26400, Note_on_c, 15, 88, 127
19, 26405, Note_off_c, 15, 86, 64
19, 26520, Note_on_c, 15, 86, 127
19, 26525, Note_off_c, 15, 88, 64
19, 26640, Note_on_c, 15, 84, 127
19, 26645, Note_off_c, 15, 86, 64
19, 26755, Note_off_c, 15, 84, 64
19, 26760, Note_on_c, 15, 79, 127
19, 26880, Note_on_c, 15, 83, 127
19, 26890, Note_off_c, 15, 79, 64
19, 26940, Note_off_c, 15, 83, 64
19, 26940, Note_on_c, 15, 81, 127
19, 27000, Note_on_c, 15, 79, 127
19, 27010, Note_off_c, 15, 81, 64
19, 27060, Note_off_c, 15, 79, 64
19, 27060, Note_on_c, 15, 77, 127
19, 27090, Note_on_c, 15, 79, 127
19, 27095, Note_off_c, 15, 77, 64
19, 27230, Note_off_c, 15, 79, 64
19, 27360, Note_on_c, 15, 72, 127
19, 27540, Note_on_c, 15, 76, 127
19, 27550, Note_off_c, 15, 72, 64
19, 27600, Note_on_c, 15, 79, 127
19, 27605, Note_off_c, 15, 76, 64
19, 27660, Note_off_c, 15, 79, 64
19, 27660, Note_on_c, 15, 76, 120
19, 27725, Note_off_c, 15, 76, 64
19, 27736, Note_on_c, 15, 74, 127
19, 27766, Note_off_c, 15, 74, 64
19, 27780, Note_on_c, 15, 74, 127
19, 27810, Note_off_c, 15, 74, 64
19, 27840, Note_on_c, 15, 72, 116
19, 27965, Note_off_c, 15, 72, 64
19, 27965, End_track
20, 0, Start_track
20, 0, Title_t, "Basdrum"
20, 0, Program_c, 9, 0
20, 0, Control_c, 9, 7, 83
20, 1, Control_c, 9, 0, 0
20, 2, Program_c, 9, 0
20, 3, Control_c, 9, 10, 64
20, 4, Control_c, 9, 91, 88
20, 5, Control_c, 9, 93, 33
20, 6, Control_c, 9, 11, 127
20, 5280, Note_on_c, 9, 36, 97
20, 5415, Note_off_c, 9, 36, 64
20, 5460, Note_on_c, 9, 36, 84
20, 5480, Note_off_c, 9, 36, 64
20, 5520, Note_on_c, 9, 36, 103
20, 5710, Note_off_c, 9, 36, 64
20, 5760, Note_on_c, 9, 36, 85
20, 5885, Note_off_c, 9, 36, 64
20, 5940, Note_on_c, 9, 36, 94
20, 5955, Note_off_c, 9, 36, 64
20, 6000, Note_on_c, 9, 36, 100
20, 6205, Note_off_c, 9, 36, 64
20, 6240, Note_on_c, 9, 36, 85
20, 6355, Note_off_c, 9, 36, 64
20, 6420, Note_on_c, 9, 36, 97
20, 6430, Note_off_c, 9, 36, 64
20, 6480, Note_on_c, 9, 36, 122
20, 6680, Note_off_c, 9, 36, 64
20, 6720, Note_on_c, 9, 36, 97
20, 6840, Note_off_c, 9, 36, 64
20, 6900, Note_on_c, 9, 36, 92
20, 6920, Note_off_c, 9, 36, 64
20, 6960, Note_on_c, 9, 36, 110
20, 7015, Note_off_c, 9, 36, 64
20, 7050, Note_on_c, 9, 36, 103
20, 7080, Note_off_c, 9, 36, 64
20, 7200, Note_on_c, 9, 36, 110
20, 7325, Note_off_c, 9, 36, 64
20, 7380, Note_on_c, 9, 36, 97
20, 7395, Note_off_c, 9, 36, 64
20, 7440, Note_on_c, 9, 36, 113
20, 7635, Note_off_c, 9, 36, 64
20, 7680, Note_on_c, 9, 36, 103
20, 7805, Note_off_c, 9, 36, 64
20, 7860, Note_on_c, 9, 36, 97
20, 7875, Note_off_c, 9, 36, 64
20, 7920, Note_on_c, 9, 36, 118
20, 8120, Note_off_c, 9, 36, 64
20, 8160, Note_on_c, 9, 36, 94
20, 8280, Note_off_c, 9, 36, 64
20, 8340, Note_on_c, 9, 36, 92
20, 8355, Note_off_c, 9, 36, 64
20, 8400, Note_on_c, 9, 36, 122
20, 8595, Note_off_c, 9, 36, 64
20, 8640, Note_on_c, 9, 36, 97
20, 8770, Note_off_c, 9, 36, 64
20, 8820, Note_on_c, 9, 36, 97
20, 8835, Note_off_c, 9, 36, 64
20, 8880, Note_on_c, 9, 36, 113
20, 8940, Note_off_c, 9, 36, 64
20, 8970, Note_on_c, 9, 36, 77
20, 9010, Note_off_c, 9, 36, 64
20, 9060, Note_on_c, 9, 36, 84
20, 9070, Note_off_c, 9, 36, 64
20, 9090, Note_on_c, 9, 36, 62
20, 9105, Note_off_c, 9, 36, 64
20, 9120, Note_on_c, 9, 36, 113
20, 9220, Note_off_c, 9, 36, 64
20, 9300, Note_on_c, 9, 36, 92
20, 9315, Note_off_c, 9, 36, 64
20, 9360, Note_on_c, 9, 36, 100
20, 9470, Note_off_c, 9, 36, 64
20, 9600, Note_on_c, 9, 36, 106
20, 9715, Note_off_c, 9, 36, 64
20, 9780, Note_on_c, 9, 36, 100
20, 9800, Note_off_c, 9, 36, 64
20, 9840, Note_on_c, 9, 36, 122
20, 9960, Note_off_c, 9, 36, 64
20, 10080, Note_on_c, 9, 36, 113
20, 10190, Note_off_c, 9, 36, 64
20, 10260, Note_on_c, 9, 36, 103
20, 10270, Note_off_c, 9, 36, 64
20, 10320, Note_on_c, 9, 36, 127
20, 10430, Note_off_c, 9, 36, 64
20, 10560, Note_on_c, 9, 36, 97
20, 10690, Note_off_c, 9, 36, 64
20, 10740, Note_on_c, 9, 36, 106
20, 10755, Note_off_c, 9, 36, 64
20, 10800, Note_on_c, 9, 36, 113
20, 10905, Note_off_c, 9, 36, 64
20, 11040, Note_on_c, 9, 36, 127
20, 11150, Note_off_c, 9, 36, 64
20, 11220, Note_on_c, 9, 36, 92
20, 11235, Note_off_c, 9, 36, 64
20, 11280, Note_on_c, 9, 36, 127
20, 11385, Note_off_c, 9, 36, 64
20, 11520, Note_on_c, 9, 36, 127
20, 11625, Note_off_c, 9, 36, 64
20, 11700, Note_on_c, 9, 36, 94
20, 11715, Note_off_c, 9, 36, 64
20, 11760, Note_on_c, 9, 36, 122
20, 11885, Note_off_c, 9, 36, 64
20, 12000, Note_on_c, 9, 36, 103
20, 12115, Note_off_c, 9, 36, 64
20, 12180, Note_on_c, 9, 36, 97
20, 12195, Note_off_c, 9, 36, 64
20, 12240, Note_on_c, 9, 36, 127
20, 12350, Note_off_c, 9, 36, 64
20, 12480, Note_on_c, 9, 36, 118
20, 12605, Note_off_c, 9, 36, 64
20, 12660, Note_on_c, 9, 36, 122
20, 12675, Note_off_c, 9, 36, 64
20, 12720, Note_on_c, 9, 36, 127
20, 12845, Note_off_c, 9, 36, 64
20, 12960, Note_on_c, 9, 36, 113
20, 13060, Note_off_c, 9, 36, 64
20, 13140, Note_on_c, 9, 36, 92
20, 13155, Note_off_c, 9, 36, 64
20, 13200, Note_on_c, 9, 36, 100
20, 13310, Note_off_c, 9, 36, 64
20, 13440, Note_on_c, 9, 36, 106
20, 13555, Note_off_c, 9, 36, 64
20, 13620, Note_on_c, 9, 36, 100
20, 13640, Note_off_c, 9, 36, 64
20, 13680, Note_on_c, 9, 36, 122
20, 13800, Note_off_c, 9, 36, 64
20, 13920, Note_on_c, 9, 36, 113
20, 14030, Note_off_c, 9, 36, 64
20, 14100, Note_on_c, 9, 36, 103
20, 14110, Note_off_c, 9, 36, 64
20, 14160, Note_on_c, 9, 36, 127
20, 14270, Note_off_c, 9, 36, 64
20, 14400, Note_on_c, 9, 36, 97
20, 14530, Note_off_c, 9, 36, 64
20, 14580, Note_on_c, 9, 36, 106
20, 14595, Note_off_c, 9, 36, 64
20, 14640, Note_on_c, 9, 36, 113
20, 14745, Note_off_c, 9, 36, 64
20, 14880, Note_on_c, 9, 36, 127
20, 14990, Note_off_c, 9, 36, 64
20, 15060, Note_on_c, 9, 36, 92
20, 15075, Note_off_c, 9, 36, 64
20, 15120, Note_on_c, 9, 36, 127
20, 15225, Note_off_c, 9, 36, 64
20, 15360, Note_on_c, 9, 36, 127
20, 15465, Note_off_c, 9, 36, 64
20, 15540, Note_on_c, 9, 36, 94
20, 15555, Note_off_c, 9, 36, 64
20, 15600, Note_on_c, 9, 36, 122
20, 15725, Note_off_c, 9, 36, 64
20, 15840, Note_on_c, 9, 36, 103
20, 15955, Note_off_c, 9, 36, 64
20, 16020, Note_on_c, 9, 36, 97
20, 16035, Note_off_c, 9, 36, 64
20, 16080, Note_on_c, 9, 36, 127
20, 16190, Note_off_c, 9, 36, 64
20, 16320, Note_on_c, 9, 36, 118
20, 16445, Note_off_c, 9, 36, 64
20, 16500, Note_on_c, 9, 36, 122
20, 16515, Note_off_c, 9, 36, 64
20, 16560, Note_on_c, 9, 36, 127
20, 16685, Note_off_c, 9, 36, 64
20, 16800, Note_on_c, 9, 36, 113
20, 16900, Note_off_c, 9, 36, 64
20, 16980, Note_on_c, 9, 36, 92
20, 16995, Note_off_c, 9, 36, 64
20, 17040, Note_on_c, 9, 36, 100
20, 17150, Note_off_c, 9, 36, 64
20, 17280, Note_on_c, 9, 36, 106
20, 17395, Note_off_c, 9, 36, 64
20, 17460, Note_on_c, 9, 36, 100
20, 17480, Note_off_c, 9, 36, 64
20, 17520, Note_on_c, 9, 36, 122
20, 17640, Note_off_c, 9, 36, 64
20, 17760, Note_on_c, 9, 36, 113
20, 17870, Note_off_c, 9, 36, 64
20, 17940, Note_on_c, 9, 36, 103
20, 17950, Note_off_c, 9, 36, 64
20, 18000, Note_on_c, 9, 36, 127
20, 18110, Note_off_c, 9, 36, 64
20, 18240, Note_on_c, 9, 36, 97
20, 18370, Note_off_c, 9, 36, 64
20, 18420, Note_on_c, 9, 36, 106
20, 18435, Note_off_c, 9, 36, 64
20, 18480, Note_on_c, 9, 36, 113
20, 18585, Note_off_c, 9, 36, 64
20, 18720, Note_on_c, 9, 36, 127
20, 18830, Note_off_c, 9, 36, 64
20, 18900, Note_on_c, 9, 36, 92
20, 18915, Note_off_c, 9, 36, 64
20, 18960, Note_on_c, 9, 36, 127
20, 19065, Note_off_c, 9, 36, 64
20, 19200, Note_on_c, 9, 36, 127
20, 19305, Note_off_c, 9, 36, 64
20, 19380, Note_on_c, 9, 36, 94
20, 19395, Note_off_c, 9, 36, 64
20, 19440, Note_on_c, 9, 36, 122
20, 19565, Note_off_c, 9, 36, 64
20, 19680, Note_on_c, 9, 36, 103
20, 19795, Note_off_c, 9, 36, 64
20, 19860, Note_on_c, 9, 36, 97
20, 19875, Note_off_c, 9, 36, 64
20, 19920, Note_on_c, 9, 36, 127
20, 20030, Note_off_c, 9, 36, 64
20, 20160, Note_on_c, 9, 36, 118
20, 20285, Note_off_c, 9, 36, 64
20, 20340, Note_on_c, 9, 36, 122
20, 20355, Note_off_c, 9, 36, 64
20, 20400, Note_on_c, 9, 36, 127
20, 20525, Note_off_c, 9, 36, 64
20, 24480, Note_on_c, 9, 36, 127
20, 24610, Note_off_c, 9, 36, 64
20, 24660, Note_on_c, 9, 36, 113
20, 24675, Note_off_c, 9, 36, 64
20, 24720, Note_on_c, 9, 36, 127
20, 24920, Note_off_c, 9, 36, 64
20, 24960, Note_on_c, 9, 36, 127
20, 25095, Note_off_c, 9, 36, 64
20, 25140, Note_on_c, 9, 36, 100
20, 25155, Note_off_c, 9, 36, 64
20, 25200, Note_on_c, 9, 36, 127
20, 25415, Note_off_c, 9, 36, 64
20, 25440, Note_on_c, 9, 36, 127
20, 25580, Note_off_c, 9, 36, 64
20, 25620, Note_on_c, 9, 36, 122
20, 25640, Note_off_c, 9, 36, 64
20, 25680, Note_on_c, 9, 36, 127
20, 25900, Note_off_c, 9, 36, 64
20, 25920, Note_on_c, 9, 36, 122
20, 26055, Note_off_c, 9, 36, 64
20, 26100, Note_on_c, 9, 36, 110
20, 26120, Note_off_c, 9, 36, 64
20, 26160, Note_on_c, 9, 36, 127
20, 26225, Note_off_c, 9, 36, 64
20, 26250, Note_on_c, 9, 36, 70
20, 26280, Note_off_c, 9, 36, 64
20, 26340, Note_on_c, 9, 36, 110
20, 26350, Note_off_c, 9, 36, 64
20, 26370, Note_on_c, 9, 36, 103
20, 26400, Note_on_c, 9, 36, 101
20, 26425, Note_off_c, 9, 36, 64
20, 26455, Note_off_c, 9, 36, 64
20, 26580, Note_on_c, 9, 36, 90
20, 26600, Note_off_c, 9, 36, 64
20, 26640, Note_on_c, 9, 36, 127
20, 26770, Note_off_c, 9, 36, 64
20, 26880, Note_on_c, 9, 36, 127
20, 27015, Note_off_c, 9, 36, 64
20, 27060, Note_on_c, 9, 36, 122
20, 27075, Note_off_c, 9, 36, 64
20, 27120, Note_on_c, 9, 36, 127
20, 27320, Note_off_c, 9, 36, 64
20, 27360, Note_on_c, 9, 36, 127
20, 27490, Note_off_c, 9, 36, 64
20, 27540, Note_on_c, 9, 36, 127
20, 27550, Note_off_c, 9, 36, 64
20, 27600, Note_on_c, 9, 36, 127
20, 27790, Note_off_c, 9, 36, 64
20, 27840, Note_on_c, 9, 36, 127
20, 27910, Note_off_c, 9, 36, 64
20, 27960, Note_on_c, 9, 36, 113
20, 28030, Note_off_c, 9, 36, 64
20, 28080, Note_on_c, 9, 36, 122
20, 28140, Note_off_c, 9, 36, 64
20, 28200, Note_on_c, 9, 36, 122
20, 28270, Note_off_c, 9, 36, 64
20, 28320, Note_on_c, 9, 36, 127
20, 28800, Note_off_c, 9, 36, 64
20, 28800, End_track
21, 0, Start_track
21, 0, Title_t, "Snardrum"
21, 0, Control_c, 9, 7, 83
21, 9240, Note_on_c, 9, 38, 103
21, 9275, Note_off_c, 9, 38, 64
21, 9480, Note_on_c, 9, 38, 127
21, 9575, Note_off_c, 9, 38, 64
21, 9720, Note_on_c, 9, 38, 103
21, 9750, Note_off_c, 9, 38, 64
21, 9960, Note_on_c, 9, 38, 127
21, 10075, Note_off_c, 9, 38, 64
21, 10200, Note_on_c, 9, 38, 106
21, 10230, Note_off_c, 9, 38, 64
21, 10440, Note_on_c, 9, 38, 118
21, 10555, Note_off_c, 9, 38, 64
21, 10680, Note_on_c, 9, 38, 93
21, 10735, Note_off_c, 9, 38, 64
21, 10920, Note_on_c, 9, 38, 127
21, 11020, Note_off_c, 9, 38, 64
21, 11160, Note_on_c, 9, 38, 122
21, 11205, Note_off_c, 9, 38, 64
21, 11400, Note_on_c, 9, 38, 127
21, 11505, Note_off_c, 9, 38, 64
21, 11640, Note_on_c, 9, 38, 103
21, 11675, Note_off_c, 9, 38, 64
21, 11880, Note_on_c, 9, 38, 127
21, 11995, Note_off_c, 9, 38, 64
21, 12120, Note_on_c, 9, 38, 106
21, 12150, Note_off_c, 9, 38, 64
21, 12360, Note_on_c, 9, 38, 113
21, 12475, Note_off_c, 9, 38, 64
21, 12840, Note_on_c, 9, 38, 127
21, 12940, Note_off_c, 9, 38, 64
21, 13080, Note_on_c, 9, 38, 103
21, 13115, Note_off_c, 9, 38, 64
21, 13320, Note_on_c, 9, 38, 127
21, 13415, Note_off_c, 9, 38, 64
21, 13560, Note_on_c, 9, 38, 103
21, 13590, Note_off_c, 9, 38, 64
21, 13800, Note_on_c, 9, 38, 127
21, 13915, Note_off_c, 9, 38, 64
21, 14040, Note_on_c, 9, 38, 106
21, 14070, Note_off_c, 9, 38, 64
21, 14280, Note_on_c, 9, 38, 118
21, 14395, Note_off_c, 9, 38, 64
21, 14520, Note_on_c, 9, 38, 93
21, 14575, Note_off_c, 9, 38, 64
21, 14760, Note_on_c, 9, 38, 127
21, 14860, Note_off_c, 9, 38, 64
21, 15000, Note_on_c, 9, 38, 122
21, 15045, Note_off_c, 9, 38, 64
21, 15240, Note_on_c, 9, 38, 127
21, 15345, Note_off_c, 9, 38, 64
21, 15480, Note_on_c, 9, 38, 103
21, 15515, Note_off_c, 9, 38, 64
21, 15720, Note_on_c, 9, 38, 127
21, 15835, Note_off_c, 9, 38, 64
21, 15960, Note_on_c, 9, 38, 106
21, 15990, Note_off_c, 9, 38, 64
21, 16200, Note_on_c, 9, 38, 113
21, 16315, Note_off_c, 9, 38, 64
21, 16680, Note_on_c, 9, 38, 127
21, 16780, Note_off_c, 9, 38, 64
21, 16920, Note_on_c, 9, 38, 103
21, 16955, Note_off_c, 9, 38, 64
21, 17160, Note_on_c, 9, 38, 127
21, 17255, Note_off_c, 9, 38, 64
21, 17400, Note_on_c, 9, 38, 103
21, 17430, Note_off_c, 9, 38, 64
21, 17640, Note_on_c, 9, 38, 127
21, 17755, Note_off_c, 9, 38, 64
21, 17880, Note_on_c, 9, 38, 106
21, 17910, Note_off_c, 9, 38, 64
21, 18120, Note_on_c, 9, 38, 118
21, 18235, Note_off_c, 9, 38, 64
21, 18360, Note_on_c, 9, 38, 93
21, 18415, Note_off_c, 9, 38, 64
21, 18600, Note_on_c, 9, 38, 127
21, 18700, Note_off_c, 9, 38, 64
21, 18840, Note_on_c, 9, 38, 122
21, 18885, Note_off_c, 9, 38, 64
21, 19080, Note_on_c, 9, 38, 127
21, 19185, Note_off_c, 9, 38, 64
21, 19320, Note_on_c, 9, 38, 103
21, 19355, Note_off_c, 9, 38, 64
21, 19560, Note_on_c, 9, 38, 127
21, 19675, Note_off_c, 9, 38, 64
21, 19800, Note_on_c, 9, 38, 106
21, 19830, Note_off_c, 9, 38, 64
21, 20040, Note_on_c, 9, 38, 113
21, 20155, Note_off_c, 9, 38, 64
21, 20520, Note_on_c, 9, 38, 127
21, 20620, Note_off_c, 9, 38, 64
21, 24600, Note_on_c, 9, 38, 127
21, 24805, Note_off_c, 9, 38, 64
21, 24840, Note_on_c, 9, 38, 127
21, 25050, Note_off_c, 9, 38, 64
21, 25080, Note_on_c, 9, 38, 127
21, 25290, Note_off_c, 9, 38, 64
21, 25320, Note_on_c, 9, 38, 127
21, 25520, Note_off_c, 9, 38, 64
21, 25560, Note_on_c, 9, 38, 127
21, 25755, Note_off_c, 9, 38, 64
21, 25800, Note_on_c, 9, 38, 127
21, 25995, Note_off_c, 9, 38, 64
21, 26040, Note_on_c, 9, 38, 127
21, 26130, Note_off_c, 9, 38, 64
21, 26280, Note_on_c, 9, 38, 127
21, 26345, Note_off_c, 9, 38, 64
21, 26520, Note_on_c, 9, 38, 127
21, 26570, Note_off_c, 9, 38, 64
21, 26760, Note_on_c, 9, 38, 127
21, 26955, Note_off_c, 9, 38, 64
21, 27000, Note_on_c, 9, 38, 127
21, 27210, Note_off_c, 9, 38, 64
21, 27240, Note_on_c, 9, 38, 127
21, 27445, Note_off_c, 9, 38, 64
21, 27480, Note_on_c, 9, 38, 127
21, 27675, Note_off_c, 9, 38, 64
21, 27720, Note_on_c, 9, 38, 127
21, 27840, Note_off_c, 9, 38, 64
21, 27840, End_track
22, 0, Start_track
22, 0, Title_t, "Rimshot"
22, 0, Control_c, 9, 7, 83
22, 5640, Note_on_c, 9, 37, 122
22, 6080, Note_off_c, 9, 37, 64
22, 6120, Note_on_c, 9, 37, 127
22, 6555, Note_off_c, 9, 37, 64
22, 6600, Note_on_c, 9, 37, 127
22, 7055, Note_off_c, 9, 37, 64
22, 7080, Note_on_c, 9, 37, 127
22, 7510, Note_off_c, 9, 37, 64
22, 7560, Note_on_c, 9, 37, 127
22, 8010, Note_off_c, 9, 37, 64
22, 8040, Note_on_c, 9, 37, 127
22, 8475, Note_off_c, 9, 37, 64
22, 8520, Note_on_c, 9, 37, 127
22, 8975, Note_off_c, 9, 37, 64
22, 9000, Note_on_c, 9, 37, 122
22, 9120, Note_off_c, 9, 37, 64
22, 9120, End_track
23, 0, Start_track
23, 0, Title_t, "Closed Hihat"
23, 0, Control_c, 9, 7, 83
23, 480, Note_on_c, 9, 42, 103
23, 540, Note_off_c, 9, 42, 64
23, 600, Note_on_c, 9, 42, 90
23, 670, Note_off_c, 9, 42, 64
23, 720, Note_on_c, 9, 42, 100
23, 780, Note_off_c, 9, 42, 64
23, 840, Note_on_c, 9, 42, 103
23, 900, Note_off_c, 9, 42, 64
23, 960, Note_on_c, 9, 42, 85
23, 1020, Note_off_c, 9, 42, 64
23, 1080, Note_on_c, 9, 42, 103
23, 1140, Note_off_c, 9, 42, 64
23, 1200, Note_on_c, 9, 42, 106
23, 1275, Note_off_c, 9, 42, 64
23, 1320, Note_on_c, 9, 42, 77
23, 1380, Note_off_c, 9, 42, 64
23, 1440, Note_on_c, 9, 42, 110
23, 1440, Note_on_c, 9, 42, 127
23, 1455, Note_off_c, 9, 42, 64
23, 1500, Note_on_c, 9, 42, 87
23, 1501, Note_off_c, 9, 42, 64
23, 1515, Note_off_c, 9, 42, 64
23, 1560, Note_on_c, 9, 42, 127
23, 1560, Note_on_c, 9, 42, 120
23, 1580, Note_off_c, 9, 42, 64
23, 1620, Note_on_c, 9, 42, 127
23, 1630, Note_off_c, 9, 42, 64
23, 1640, Note_off_c, 9, 42, 64
23, 1680, Note_on_c, 9, 42, 127
23, 1680, Note_on_c, 9, 42, 127
23, 1700, Note_off_c, 9, 42, 64
23, 1740, Note_on_c, 9, 42, 94
23, 1741, Note_off_c, 9, 42, 64
23, 1755, Note_off_c, 9, 42, 64
23, 1800, Note_on_c, 9, 42, 127
23, 1800, Note_on_c, 9, 42, 127
23, 1820, Note_off_c, 9, 42, 64
23, 1860, Note_on_c, 9, 42, 106
23, 1861, Note_off_c, 9, 42, 64
23, 1875, Note_off_c, 9, 42, 64
23, 1920, Note_on_c, 9, 42, 122
23, 1920, Note_on_c, 9, 42, 115
23, 1945, Note_off_c, 9, 42, 64
23, 1980, Note_on_c, 9, 42, 110
23, 1981, Note_off_c, 9, 42, 64
23, 1995, Note_off_c, 9, 42, 64
23, 2040, Note_on_c, 9, 42, 127
23, 2040, Note_on_c, 9, 42, 127
23, 2065, Note_off_c, 9, 42, 64
23, 2100, Note_on_c, 9, 42, 103
23, 2101, Note_off_c, 9, 42, 64
23, 2120, Note_off_c, 9, 42, 64
23, 2160, Note_on_c, 9, 42, 127
23, 2160, Note_on_c, 9, 42, 127
23, 2180, Note_off_c, 9, 42, 64
23, 2220, Note_on_c, 9, 42, 122
23, 2235, Note_off_c, 9, 42, 64
23, 2235, Note_off_c, 9, 42, 64
23, 2280, Note_on_c, 9, 42, 127
23, 2280, Note_on_c, 9, 42, 107
23, 2290, Note_off_c, 9, 42, 64
23, 2340, Note_on_c, 9, 42, 127
23, 2341, Note_off_c, 9, 42, 64
23, 2355, Note_off_c, 9, 42, 64
23, 2400, Note_on_c, 9, 42, 127
23, 2400, Note_on_c, 9, 42, 127
23, 2420, Note_off_c, 9, 42, 64
23, 2460, Note_on_c, 9, 42, 127
23, 2461, Note_off_c, 9, 42, 64
23, 2475, Note_off_c, 9, 42, 64
23, 2520, Note_on_c, 9, 42, 127
23, 2520, Note_on_c, 9, 42, 120
23, 2530, Note_off_c, 9, 42, 64
23, 2580, Note_on_c, 9, 42, 127
23, 2590, Note_off_c, 9, 42, 64
23, 2595, Note_off_c, 9, 42, 64
23, 2640, Note_on_c, 9, 42, 127
23, 2640, Note_on_c, 9, 42, 127
23, 2660, Note_off_c, 9, 42, 64
23, 2700, Note_on_c, 9, 42, 127
23, 2701, Note_off_c, 9, 42, 64
23, 2715, Note_off_c, 9, 42, 64
23, 2760, Note_on_c, 9, 42, 127
23, 2760, Note_on_c, 9, 42, 127
23, 2785, Note_off_c, 9, 42, 64
23, 2820, Note_on_c, 9, 42, 127
23, 2821, Note_off_c, 9, 42, 64
23, 2835, Note_off_c, 9, 42, 64
23, 2880, Note_on_c, 9, 42, 127
23, 2880, Note_on_c, 9, 42, 115
23, 2900, Note_off_c, 9, 42, 64
23, 2940, Note_on_c, 9, 42, 113
23, 2941, Note_off_c, 9, 42, 64
23, 2955, Note_off_c, 9, 42, 64
23, 3000, Note_on_c, 9, 42, 127
23, 3000, Note_on_c, 9, 42, 127
23, 3020, Note_off_c, 9, 42, 64
23, 3060, Note_on_c, 9, 42, 127
23, 3061, Note_off_c, 9, 42, 64
23, 3080, Note_off_c, 9, 42, 64
23, 3120, Note_on_c, 9, 42, 127
23, 3120, Note_on_c, 9, 42, 127
23, 3140, Note_off_c, 9, 42, 64
23, 3180, Note_on_c, 9, 42, 100
23, 3190, Note_off_c, 9, 42, 64
23, 3195, Note_off_c, 9, 42, 64
23, 3210, Note_on_c, 9, 42, 127
23, 3230, Note_off_c, 9, 42, 64
23, 3240, Note_on_c, 9, 42, 107
23, 3300, Note_off_c, 9, 42, 64
23, 3300, Note_on_c, 9, 42, 127
23, 3315, Note_off_c, 9, 42, 64
23, 3360, Note_on_c, 9, 42, 127
23, 3360, Note_on_c, 9, 42, 127
23, 3390, Note_off_c, 9, 42, 64
23, 3420, Note_on_c, 9, 42, 127
23, 3421, Note_off_c, 9, 42, 64
23, 3435, Note_off_c, 9, 42, 64
23, 3480, Note_on_c, 9, 42, 127
23, 3480, Note_on_c, 9, 42, 120
23, 3505, Note_off_c, 9, 42, 64
23, 3540, Note_on_c, 9, 42, 127
23, 3550, Note_off_c, 9, 42, 64
23, 3555, Note_off_c, 9, 42, 64
23, 3600, Note_on_c, 9, 42, 127
23, 3600, Note_on_c, 9, 42, 127
23, 3615, Note_off_c, 9, 42, 64
23, 3660, Note_on_c, 9, 42, 127
23, 3661, Note_off_c, 9, 42, 64
23, 3675, Note_off_c, 9, 42, 64
23, 3720, Note_on_c, 9, 42, 127
23, 3720, Note_on_c, 9, 42, 127
23, 3735, Note_off_c, 9, 42, 64
23, 3780, Note_on_c, 9, 42, 127
23, 3781, Note_off_c, 9, 42, 64
23, 3795, Note_off_c, 9, 42, 64
23, 3840, Note_on_c, 9, 42, 127
23, 3840, Note_on_c, 9, 42, 115
23, 3860, Note_off_c, 9, 42, 64
23, 3900, Note_on_c, 9, 42, 127
23, 3901, Note_off_c, 9, 42, 64
23, 3915, Note_off_c, 9, 42, 64
23, 3960, Note_on_c, 9, 42, 127
23, 3960, Note_on_c, 9, 42, 127
23, 3980, Note_off_c, 9, 42, 64
23, 4020, Note_on_c, 9, 42, 127
23, 4021, Note_off_c, 9, 42, 64
23, 4035, Note_off_c, 9, 42, 64
23, 4080, Note_on_c, 9, 42, 127
23, 4080, Note_on_c, 9, 42, 127
23, 4095, Note_off_c, 9, 42, 64
23, 4140, Note_on_c, 9, 42, 127
23, 4155, Note_off_c, 9, 42, 64
23, 4155, Note_off_c, 9, 42, 64
23, 4200, Note_on_c, 9, 42, 127
23, 4200, Note_on_c, 9, 42, 107
23, 4215, Note_off_c, 9, 42, 64
23, 4260, Note_on_c, 9, 42, 127
23, 4261, Note_off_c, 9, 42, 64
23, 4275, Note_off_c, 9, 42, 64
23, 4320, Note_on_c, 9, 42, 127
23, 4320, Note_on_c, 9, 42, 127
23, 4335, Note_off_c, 9, 42, 64
23, 4380, Note_on_c, 9, 42, 127
23, 4381, Note_off_c, 9, 42, 64
23, 4395, Note_off_c, 9, 42, 64
23, 4440, Note_on_c, 9, 42, 127
23, 4440, Note_on_c, 9, 42, 120
23, 4460, Note_off_c, 9, 42, 64
23, 4500, Note_on_c, 9, 42, 113
23, 4510, Note_off_c, 9, 42, 64
23, 4515, Note_off_c, 9, 42, 64
23, 4560, Note_on_c, 9, 42, 127
23, 4560, Note_on_c, 9, 42, 127
23, 4575, Note_off_c, 9, 42, 64
23, 4620, Note_on_c, 9, 42, 127
23, 4621, Note_off_c, 9, 42, 64
23, 4635, Note_off_c, 9, 42, 64
23, 4680, Note_on_c, 9, 42, 127
23, 4680, Note_on_c, 9, 42, 127
23, 4700, Note_off_c, 9, 42, 64
23, 4740, Note_on_c, 9, 42, 92
23, 4741, Note_off_c, 9, 42, 64
23, 4755, Note_off_c, 9, 42, 64
23, 4800, Note_on_c, 9, 42, 127
23, 4800, Note_on_c, 9, 42, 115
23, 4820, Note_off_c, 9, 42, 64
23, 4830, Note_on_c, 9, 42, 100
23, 4845, Note_off_c, 9, 42, 64
23, 4860, Note_off_c, 9, 42, 64
23, 4920, Note_on_c, 9, 42, 127
23, 4980, Note_off_c, 9, 42, 64
23, 5040, Note_on_c, 9, 42, 127
23, 5115, Note_off_c, 9, 42, 64
23, 5160, Note_on_c, 9, 42, 107
23, 5220, Note_off_c, 9, 42, 64
23, 5280, Note_on_c, 9, 42, 110
23, 5280, Note_on_c, 9, 42, 127
23, 5295, Note_off_c, 9, 42, 64
23, 5340, Note_on_c, 9, 42, 87
23, 5341, Note_off_c, 9, 42, 64
23, 5355, Note_off_c, 9, 42, 64
23, 5400, Note_on_c, 9, 42, 127
23, 5400, Note_on_c, 9, 42, 120
23, 5420, Note_off_c, 9, 42, 64
23, 5460, Note_on_c, 9, 42, 127
23, 5470, Note_off_c, 9, 42, 64
23, 5480, Note_off_c, 9, 42, 64
23, 5520, Note_on_c, 9, 42, 127
23, 5520, Note_on_c, 9, 42, 127
23, 5540, Note_off_c, 9, 42, 64
23, 5580, Note_on_c, 9, 42, 94
23, 5581, Note_off_c, 9, 42, 64
23, 5595, Note_off_c, 9, 42, 64
23, 5640, Note_on_c, 9, 42, 127
23, 5640, Note_on_c, 9, 42, 127
23, 5660, Note_off_c, 9, 42, 64
23, 5700, Note_on_c, 9, 42, 106
23, 5701, Note_off_c, 9, 42, 64
23, 5715, Note_off_c, 9, 42, 64
23, 5760, Note_on_c, 9, 42, 122
23, 5760, Note_on_c, 9, 42, 115
23, 5785, Note_off_c, 9, 42, 64
23, 5820, Note_on_c, 9, 42, 110
23, 5821, Note_off_c, 9, 42, 64
23, 5835, Note_off_c, 9, 42, 64
23, 5880, Note_on_c, 9, 42, 127
23, 5880, Note_on_c, 9, 42, 127
23, 5905, Note_off_c, 9, 42, 64
23, 5940, Note_on_c, 9, 42, 103
23, 5941, Note_off_c, 9, 42, 64
23, 5960, Note_off_c, 9, 42, 64
23, 6000, Note_on_c, 9, 42, 127
23, 6000, Note_on_c, 9, 42, 127
23, 6020, Note_off_c, 9, 42, 64
23, 6060, Note_on_c, 9, 42, 122
23, 6075, Note_off_c, 9, 42, 64
23, 6075, Note_off_c, 9, 42, 64
23, 6120, Note_on_c, 9, 42, 127
23, 6120, Note_on_c, 9, 42, 107
23, 6130, Note_off_c, 9, 42, 64
23, 6180, Note_on_c, 9, 42, 127
23, 6181, Note_off_c, 9, 42, 64
23, 6195, Note_off_c, 9, 42, 64
23, 6240, Note_on_c, 9, 42, 127
23, 6240, Note_on_c, 9, 42, 127
23, 6260, Note_off_c, 9, 42, 64
23, 6300, Note_on_c, 9, 42, 127
23, 6301, Note_off_c, 9, 42, 64
23, 6315, Note_off_c, 9, 42, 64
23, 6360, Note_on_c, 9, 42, 127
23, 6360, Note_on_c, 9, 42, 120
23, 6370, Note_off_c, 9, 42, 64
23, 6420, Note_on_c, 9, 42, 127
23, 6430, Note_off_c, 9, 42, 64
23, 6435, Note_off_c, 9, 42, 64
23, 6480, Note_on_c, 9, 42, 127
23, 6480, Note_on_c, 9, 42, 127
23, 6500, Note_off_c, 9, 42, 64
23, 6540, Note_on_c, 9, 42, 127
23, 6541, Note_off_c, 9, 42, 64
23, 6555, Note_off_c, 9, 42, 64
23, 6600, Note_on_c, 9, 42, 127
23, 6600, Note_on_c, 9, 42, 127
23, 6625, Note_off_c, 9, 42, 64
23, 6660, Note_on_c, 9, 42, 127
23, 6661, Note_off_c, 9, 42, 64
23, 6675, Note_off_c, 9, 42, 64
23, 6720, Note_on_c, 9, 42, 127
23, 6720, Note_on_c, 9, 42, 115
23, 6740, Note_off_c, 9, 42, 64
23, 6780, Note_on_c, 9, 42, 113
23, 6781, Note_off_c, 9, 42, 64
23, 6795, Note_off_c, 9, 42, 64
23, 6840, Note_on_c, 9, 42, 127
23, 6840, Note_on_c, 9, 42, 127
23, 6860, Note_off_c, 9, 42, 64
23, 6900, Note_on_c, 9, 42, 127
23, 6901, Note_off_c, 9, 42, 64
23, 6920, Note_off_c, 9, 42, 64
23, 6960, Note_on_c, 9, 42, 127
23, 6960, Note_on_c, 9, 42, 127
23, 6980, Note_off_c, 9, 42, 64
23, 7020, Note_on_c, 9, 42, 100
23, 7030, Note_off_c, 9, 42, 64
23, 7035, Note_off_c, 9, 42, 64
23, 7050, Note_on_c, 9, 42, 127
23, 7070, Note_off_c, 9, 42, 64
23, 7080, Note_on_c, 9, 42, 107
23, 7140, Note_on_c, 9, 42, 127
23, 7141, Note_off_c, 9, 42, 64
23, 7155, Note_off_c, 9, 42, 64
23, 7200, Note_on_c, 9, 42, 127
23, 7200, Note_on_c, 9, 42, 127
23, 7230, Note_off_c, 9, 42, 64
23, 7260, Note_on_c, 9, 42, 127
23, 7261, Note_off_c, 9, 42, 64
23, 7275, Note_off_c, 9, 42, 64
23, 7320, Note_on_c, 9, 42, 127
23, 7320, Note_on_c, 9, 42, 120
23, 7345, Note_off_c, 9, 42, 64
23, 7380, Note_on_c, 9, 42, 127
23, 7390, Note_off_c, 9, 42, 64
23, 7395, Note_off_c, 9, 42, 64
23, 7440, Note_on_c, 9, 42, 127
23, 7440, Note_on_c, 9, 42, 127
23, 7455, Note_off_c, 9, 42, 64
23, 7500, Note_on_c, 9, 42, 127
23, 7501, Note_off_c, 9, 42, 64
23, 7515, Note_off_c, 9, 42, 64
23, 7560, Note_on_c, 9, 42, 127
23, 7560, Note_on_c, 9, 42, 127
23, 7575, Note_off_c, 9, 42, 64
23, 7620, Note_on_c, 9, 42, 127
23, 7621, Note_off_c, 9, 42, 64
23, 7635, Note_off_c, 9, 42, 64
23, 7680, Note_on_c, 9, 42, 127
23, 7680, Note_on_c, 9, 42, 115
23, 7700, Note_off_c, 9, 42, 64
23, 7740, Note_on_c, 9, 42, 127
23, 7741, Note_off_c, 9, 42, 64
23, 7755, Note_off_c, 9, 42, 64
23, 7800, Note_on_c, 9, 42, 127
23, 7800, Note_on_c, 9, 42, 127
23, 7820, Note_off_c, 9, 42, 64
23, 7860, Note_on_c, 9, 42, 127
23, 7861, Note_off_c, 9, 42, 64
23, 7875, Note_off_c, 9, 42, 64
23, 7920, Note_on_c, 9, 42, 127
23, 7920, Note_on_c, 9, 42, 127
23, 7935, Note_off_c, 9, 42, 64
23, 7980, Note_on_c, 9, 42, 127
23, 7995, Note_off_c, 9, 42, 64
23, 7995, Note_off_c, 9, 42, 64
23, 8040, Note_on_c, 9, 42, 127
23, 8040, Note_on_c, 9, 42, 107
23, 8055, Note_off_c, 9, 42, 64
23, 8100, Note_on_c, 9, 42, 127
23, 8101, Note_off_c, 9, 42, 64
23, 8115, Note_off_c, 9, 42, 64
23, 8160, Note_on_c, 9, 42, 127
23, 8160, Note_on_c, 9, 42, 127
23, 8175, Note_off_c, 9, 42, 64
23, 8220, Note_on_c, 9, 42, 127
23, 8221, Note_off_c, 9, 42, 64
23, 8235, Note_off_c, 9, 42, 64
23, 8280, Note_on_c, 9, 42, 127
23, 8280, Note_on_c, 9, 42, 120
23, 8300, Note_off_c, 9, 42, 64
23, 8340, Note_on_c, 9, 42, 113
23, 8350, Note_off_c, 9, 42, 64
23, 8355, Note_off_c, 9, 42, 64
23, 8400, Note_on_c, 9, 42, 127
23, 8400, Note_on_c, 9, 42, 127
23, 8415, Note_off_c, 9, 42, 64
23, 8460, Note_on_c, 9, 42, 127
23, 8461, Note_off_c, 9, 42, 64
23, 8475, Note_off_c, 9, 42, 64
23, 8520, Note_on_c, 9, 42, 127
23, 8520, Note_on_c, 9, 42, 127
23, 8540, Note_off_c, 9, 42, 64
23, 8580, Note_on_c, 9, 42, 92
23, 8581, Note_off_c, 9, 42, 64
23, 8595, Note_off_c, 9, 42, 64
23, 8640, Note_on_c, 9, 42, 127
23, 8640, Note_on_c, 9, 42, 115
23, 8660, Note_off_c, 9, 42, 64
23, 8670, Note_on_c, 9, 42, 100
23, 8685, Note_off_c, 9, 42, 64
23, 8700, Note_off_c, 9, 42, 64
23, 8760, Note_on_c, 9, 42, 127
23, 8820, Note_off_c, 9, 42, 64
23, 8880, Note_on_c, 9, 42, 127
23, 8955, Note_off_c, 9, 42, 64
23, 9000, Note_on_c, 9, 42, 107
23, 9060, Note_off_c, 9, 42, 64
23, 9120, Note_on_c, 9, 42, 110
23, 9120, Note_on_c, 9, 42, 127
23, 9135, Note_off_c, 9, 42, 64
23, 9180, Note_on_c, 9, 42, 87
23, 9181, Note_off_c, 9, 42, 64
23, 9195, Note_off_c, 9, 42, 64
23, 9240, Note_on_c, 9, 42, 127
23, 9240, Note_on_c, 9, 42, 120
23, 9260, Note_off_c, 9, 42, 64
23, 9300, Note_on_c, 9, 42, 127
23, 9310, Note_off_c, 9, 42, 64
23, 9320, Note_off_c, 9, 42, 64
23, 9360, Note_on_c, 9, 42, 127
23, 9360, Note_on_c, 9, 42, 127
23, 9380, Note_off_c, 9, 42, 64
23, 9420, Note_on_c, 9, 42, 94
23, 9421, Note_off_c, 9, 42, 64
23, 9435, Note_off_c, 9, 42, 64
23, 9480, Note_on_c, 9, 42, 127
23, 9480, Note_on_c, 9, 42, 127
23, 9500, Note_off_c, 9, 42, 64
23, 9540, Note_on_c, 9, 42, 106
23, 9541, Note_off_c, 9, 42, 64
23, 9555, Note_off_c, 9, 42, 64
23, 9600, Note_on_c, 9, 42, 122
23, 9600, Note_on_c, 9, 42, 115
23, 9625, Note_off_c, 9, 42, 64
23, 9660, Note_on_c, 9, 42, 110
23, 9661, Note_off_c, 9, 42, 64
23, 9675, Note_off_c, 9, 42, 64
23, 9720, Note_on_c, 9, 42, 127
23, 9720, Note_on_c, 9, 42, 127
23, 9745, Note_off_c, 9, 42, 64
23, 9780, Note_on_c, 9, 42, 103
23, 9781, Note_off_c, 9, 42, 64
23, 9800, Note_off_c, 9, 42, 64
23, 9840, Note_on_c, 9, 42, 127
23, 9840, Note_on_c, 9, 42, 127
23, 9860, Note_off_c, 9, 42, 64
23, 9900, Note_on_c, 9, 42, 122
23, 9915, Note_off_c, 9, 42, 64
23, 9915, Note_off_c, 9, 42, 64
23, 9960, Note_on_c, 9, 42, 127
23, 9960, Note_on_c, 9, 42, 107
23, 9970, Note_off_c, 9, 42, 64
23, 10020, Note_on_c, 9, 42, 127
23, 10021, Note_off_c, 9, 42, 64
23, 10035, Note_off_c, 9, 42, 64
23, 10080, Note_on_c, 9, 42, 127
23, 10080, Note_on_c, 9, 42, 127
23, 10100, Note_off_c, 9, 42, 64
23, 10140, Note_on_c, 9, 42, 127
23, 10141, Note_off_c, 9, 42, 64
23, 10155, Note_off_c, 9, 42, 64
23, 10200, Note_on_c, 9, 42, 127
23, 10200, Note_on_c, 9, 42, 120
23, 10210, Note_off_c, 9, 42, 64
23, 10260, Note_on_c, 9, 42, 127
23, 10270, Note_off_c, 9, 42, 64
23, 10275, Note_off_c, 9, 42, 64
23, 10320, Note_on_c, 9, 42, 127
23, 10320, Note_on_c, 9, 42, 127
23, 10340, Note_off_c, 9, 42, 64
23, 10380, Note_on_c, 9, 42, 127
23, 10381, Note_off_c, 9, 42, 64
23, 10395, Note_off_c, 9, 42, 64
23, 10440, Note_on_c, 9, 42, 127
23, 10440, Note_on_c, 9, 42, 127
23, 10465, Note_off_c, 9, 42, 64
23, 10500, Note_on_c, 9, 42, 127
23, 10501, Note_off_c, 9, 42, 64
23, 10515, Note_off_c, 9, 42, 64
23, 10560, Note_on_c, 9, 42, 127
23, 10560, Note_on_c, 9, 42, 115
23, 10580, Note_off_c, 9, 42, 64
23, 10620, Note_on_c, 9, 42, 113
23, 10621, Note_off_c, 9, 42, 64
23, 10635, Note_off_c, 9, 42, 64
23, 10680, Note_on_c, 9, 42, 127
23, 10680, Note_on_c, 9, 42, 127
23, 10700, Note_off_c, 9, 42, 64
23, 10740, Note_on_c, 9, 42, 127
23, 10741, Note_off_c, 9, 42, 64
23, 10760, Note_off_c, 9, 42, 64
23, 10800, Note_on_c, 9, 42, 127
23, 10800, Note_on_c, 9, 42, 127
23, 10820, Note_off_c, 9, 42, 64
23, 10860, Note_on_c, 9, 42, 100
23, 10870, Note_off_c, 9, 42, 64
23, 10875, Note_off_c, 9, 42, 64
23, 10890, Note_on_c, 9, 42, 127
23, 10910, Note_off_c, 9, 42, 64
23, 10920, Note_on_c, 9, 42, 107
23, 10980, Note_off_c, 9, 42, 64
23, 10980, Note_on_c, 9, 42, 127
23, 10995, Note_off_c, 9, 42, 64
23, 11040, Note_on_c, 9, 42, 127
23, 11040, Note_on_c, 9, 42, 127
23, 11070, Note_off_c, 9, 42, 64
23, 11100, Note_on_c, 9, 42, 127
23, 11101, Note_off_c, 9, 42, 64
23, 11115, Note_off_c, 9, 42, 64
23, 11160, Note_on_c, 9, 42, 127
23, 11160, Note_on_c, 9, 42, 120
23, 11185, Note_off_c, 9, 42, 64
23, 11220, Note_on_c, 9, 42, 127
23, 11230, Note_off_c, 9, 42, 64
23, 11235, Note_off_c, 9, 42, 64
23, 11280, Note_on_c, 9, 42, 127
23, 11280, Note_on_c, 9, 42, 127
23, 11295, Note_off_c, 9, 42, 64
23, 11340, Note_on_c, 9, 42, 127
23, 11341, Note_off_c, 9, 42, 64
23, 11355, Note_off_c, 9, 42, 64
23, 11400, Note_on_c, 9, 42, 127
23, 11400, Note_on_c, 9, 42, 127
23, 11415, Note_off_c, 9, 42, 64
23, 11460, Note_on_c, 9, 42, 127
23, 11461, Note_off_c, 9, 42, 64
23, 11475, Note_off_c, 9, 42, 64
23, 11520, Note_on_c, 9, 42, 127
23, 11520, Note_on_c, 9, 42, 115
23, 11540, Note_off_c, 9, 42, 64
23, 11580, Note_on_c, 9, 42, 127
23, 11581, Note_off_c, 9, 42, 64
23, 11595, Note_off_c, 9, 42, 64
23, 11640, Note_on_c, 9, 42, 127
23, 11640, Note_on_c, 9, 42, 127
23, 11660, Note_off_c, 9, 42, 64
23, 11700, Note_on_c, 9, 42, 127
23, 11701, Note_off_c, 9, 42, 64
23, 11715, Note_off_c, 9, 42, 64
23, 11760, Note_on_c, 9, 42, 127
23, 11760, Note_on_c, 9, 42, 127
23, 11775, Note_off_c, 9, 42, 64
23, 11820, Note_on_c, 9, 42, 127
23, 11835, Note_off_c, 9, 42, 64
23, 11835, Note_off_c, 9, 42, 64
23, 11880, Note_on_c, 9, 42, 127
23, 11880, Note_on_c, 9, 42, 107
23, 11895, Note_off_c, 9, 42, 64
23, 11940, Note_on_c, 9, 42, 127
23, 11941, Note_off_c, 9, 42, 64
23, 11955, Note_off_c, 9, 42, 64
23, 12000, Note_on_c, 9, 42, 127
23, 12000, Note_on_c, 9, 42, 127
23, 12015, Note_off_c, 9, 42, 64
23, 12060, Note_on_c, 9, 42, 127
23, 12061, Note_off_c, 9, 42, 64
23, 12075, Note_off_c, 9, 42, 64
23, 12120, Note_on_c, 9, 42, 127
23, 12120, Note_on_c, 9, 42, 120
23, 12140, Note_off_c, 9, 42, 64
23, 12180, Note_on_c, 9, 42, 113
23, 12190, Note_off_c, 9, 42, 64
23, 12195, Note_off_c, 9, 42, 64
23, 12240, Note_on_c, 9, 42, 127
23, 12240, Note_on_c, 9, 42, 127
23, 12255, Note_off_c, 9, 42, 64
23, 12300, Note_on_c, 9, 42, 127
23, 12301, Note_off_c, 9, 42, 64
23, 12315, Note_off_c, 9, 42, 64
23, 12360, Note_on_c, 9, 42, 127
23, 12360, Note_on_c, 9, 42, 127
23, 12380, Note_off_c, 9, 42, 64
23, 12420, Note_on_c, 9, 42, 92
23, 12421, Note_off_c, 9, 42, 64
23, 12435, Note_off_c, 9, 42, 64
23, 12480, Note_on_c, 9, 42, 127
23, 12480, Note_on_c, 9, 42, 115
23, 12500, Note_off_c, 9, 42, 64
23, 12510, Note_on_c, 9, 42, 100
23, 12525, Note_off_c, 9, 42, 64
23, 12540, Note_off_c, 9, 42, 64
23, 12600, Note_on_c, 9, 42, 127
23, 12660, Note_off_c, 9, 42, 64
23, 12720, Note_on_c, 9, 42, 127
23, 12795, Note_off_c, 9, 42, 64
23, 12840, Note_on_c, 9, 42, 107
23, 12900, Note_off_c, 9, 42, 64
23, 12960, Note_on_c, 9, 42, 110
23, 12975, Note_off_c, 9, 42, 64
23, 13020, Note_on_c, 9, 42, 87
23, 13035, Note_off_c, 9, 42, 64
23, 13080, Note_on_c, 9, 42, 127
23, 13100, Note_off_c, 9, 42, 64
23, 13140, Note_on_c, 9, 42, 127
23, 13160, Note_off_c, 9, 42, 64
23, 13200, Note_on_c, 9, 42, 127
23, 13220, Note_off_c, 9, 42, 64
23, 13260, Note_on_c, 9, 42, 94
23, 13275, Note_off_c, 9, 42, 64
23, 13320, Note_on_c, 9, 42, 127
23, 13340, Note_off_c, 9, 42, 64
23, 13380, Note_on_c, 9, 42, 106
23, 13395, Note_off_c, 9, 42, 64
23, 13440, Note_on_c, 9, 42, 122
23, 13465, Note_off_c, 9, 42, 64
23, 13500, Note_on_c, 9, 42, 110
23, 13515, Note_off_c, 9, 42, 64
23, 13560, Note_on_c, 9, 42, 127
23, 13585, Note_off_c, 9, 42, 64
23, 13620, Note_on_c, 9, 42, 103
23, 13640, Note_off_c, 9, 42, 64
23, 13680, Note_on_c, 9, 42, 127
23, 13700, Note_off_c, 9, 42, 64
23, 13740, Note_on_c, 9, 42, 122
23, 13755, Note_off_c, 9, 42, 64
23, 13800, Note_on_c, 9, 42, 127
23, 13810, Note_off_c, 9, 42, 64
23, 13860, Note_on_c, 9, 42, 127
23, 13875, Note_off_c, 9, 42, 64
23, 13920, Note_on_c, 9, 42, 127
23, 13940, Note_off_c, 9, 42, 64
23, 13980, Note_on_c, 9, 42, 127
23, 13995, Note_off_c, 9, 42, 64
23, 14040, Note_on_c, 9, 42, 127
23, 14050, Note_off_c, 9, 42, 64
23, 14100, Note_on_c, 9, 42, 127
23, 14115, Note_off_c, 9, 42, 64
23, 14160, Note_on_c, 9, 42, 127
23, 14180, Note_off_c, 9, 42, 64
23, 14220, Note_on_c, 9, 42, 127
23, 14235, Note_off_c, 9, 42, 64
23, 14280, Note_on_c, 9, 42, 127
23, 14305, Note_off_c, 9, 42, 64
23, 14340, Note_on_c, 9, 42, 127
23, 14355, Note_off_c, 9, 42, 64
23, 14400, Note_on_c, 9, 42, 127
23, 14420, Note_off_c, 9, 42, 64
23, 14460, Note_on_c, 9, 42, 113
23, 14475, Note_off_c, 9, 42, 64
23, 14520, Note_on_c, 9, 42, 127
23, 14540, Note_off_c, 9, 42, 64
23, 14580, Note_on_c, 9, 42, 127
23, 14600, Note_off_c, 9, 42, 64
23, 14640, Note_on_c, 9, 42, 127
23, 14660, Note_off_c, 9, 42, 64
23, 14700, Note_on_c, 9, 42, 100
23, 14710, Note_off_c, 9, 42, 64
23, 14730, Note_on_c, 9, 42, 127
23, 14750, Note_off_c, 9, 42, 64
23, 14820, Note_on_c, 9, 42, 127
23, 14835, Note_off_c, 9, 42, 64
23, 14880, Note_on_c, 9, 42, 127
23, 14910, Note_off_c, 9, 42, 64
23, 14940, Note_on_c, 9, 42, 127
23, 14955, Note_off_c, 9, 42, 64
23, 15000, Note_on_c, 9, 42, 127
23, 15025, Note_off_c, 9, 42, 64
23, 15060, Note_on_c, 9, 42, 127
23, 15075, Note_off_c, 9, 42, 64
23, 15120, Note_on_c, 9, 42, 127
23, 15135, Note_off_c, 9, 42, 64
23, 15180, Note_on_c, 9, 42, 127
23, 15195, Note_off_c, 9, 42, 64
23, 15240, Note_on_c, 9, 42, 127
23, 15255, Note_off_c, 9, 42, 64
23, 15300, Note_on_c, 9, 42, 127
23, 15315, Note_off_c, 9, 42, 64
23, 15360, Note_on_c, 9, 42, 127
23, 15380, Note_off_c, 9, 42, 64
23, 15420, Note_on_c, 9, 42, 127
23, 15435, Note_off_c, 9, 42, 64
23, 15480, Note_on_c, 9, 42, 127
23, 15500, Note_off_c, 9, 42, 64
23, 15540, Note_on_c, 9, 42, 127
23, 15555, Note_off_c, 9, 42, 64
23, 15600, Note_on_c, 9, 42, 127
23, 15615, Note_off_c, 9, 42, 64
23, 15660, Note_on_c, 9, 42, 127
23, 15675, Note_off_c, 9, 42, 64
23, 15720, Note_on_c, 9, 42, 127
23, 15735, Note_off_c, 9, 42, 64
23, 15780, Note_on_c, 9, 42, 127
23, 15795, Note_off_c, 9, 42, 64
23, 15840, Note_on_c, 9, 42, 127
23, 15855, Note_off_c, 9, 42, 64
23, 15900, Note_on_c, 9, 42, 127
23, 15915, Note_off_c, 9, 42, 64
23, 15960, Note_on_c, 9, 42, 127
23, 15980, Note_off_c, 9, 42, 64
23, 16020, Note_on_c, 9, 42, 113
23, 16035, Note_off_c, 9, 42, 64
23, 16080, Note_on_c, 9, 42, 127
23, 16095, Note_off_c, 9, 42, 64
23, 16140, Note_on_c, 9, 42, 127
23, 16155, Note_off_c, 9, 42, 64
23, 16200, Note_on_c, 9, 42, 127
23, 16220, Note_off_c, 9, 42, 64
23, 16260, Note_on_c, 9, 42, 92
23, 16275, Note_off_c, 9, 42, 64
23, 16320, Note_on_c, 9, 42, 127
23, 16340, Note_off_c, 9, 42, 64
23, 16350, Note_on_c, 9, 42, 100
23, 16365, Note_off_c, 9, 42, 64
23, 16800, Note_on_c, 9, 42, 110
23, 16815, Note_off_c, 9, 42, 64
23, 16860, Note_on_c, 9, 42, 87
23, 16875, Note_off_c, 9, 42, 64
23, 16920, Note_on_c, 9, 42, 127
23, 16940, Note_off_c, 9, 42, 64
23, 16980, Note_on_c, 9, 42, 127
23, 17000, Note_off_c, 9, 42, 64
23, 17040, Note_on_c, 9, 42, 127
23, 17060, Note_off_c, 9, 42, 64
23, 17100, Note_on_c, 9, 42, 94
23, 17115, Note_off_c, 9, 42, 64
23, 17160, Note_on_c, 9, 42, 127
23, 17180, Note_off_c, 9, 42, 64
23, 17220, Note_on_c, 9, 42, 106
23, 17235, Note_off_c, 9, 42, 64
23, 17280, Note_on_c, 9, 42, 122
23, 17305, Note_off_c, 9, 42, 64
23, 17340, Note_on_c, 9, 42, 110
23, 17355, Note_off_c, 9, 42, 64
23, 17400, Note_on_c, 9, 42, 127
23, 17425, Note_off_c, 9, 42, 64
23, 17460, Note_on_c, 9, 42, 103
23, 17480, Note_off_c, 9, 42, 64
23, 17520, Note_on_c, 9, 42, 127
23, 17540, Note_off_c, 9, 42, 64
23, 17580, Note_on_c, 9, 42, 122
23, 17595, Note_off_c, 9, 42, 64
23, 17640, Note_on_c, 9, 42, 127
23, 17650, Note_off_c, 9, 42, 64
23, 17700, Note_on_c, 9, 42, 127
23, 17715, Note_off_c, 9, 42, 64
23, 17760, Note_on_c, 9, 42, 127
23, 17780, Note_off_c, 9, 42, 64
23, 17820, Note_on_c, 9, 42, 127
23, 17835, Note_off_c, 9, 42, 64
23, 17880, Note_on_c, 9, 42, 127
23, 17890, Note_off_c, 9, 42, 64
23, 17940, Note_on_c, 9, 42, 127
23, 17955, Note_off_c, 9, 42, 64
23, 18000, Note_on_c, 9, 42, 127
23, 18020, Note_off_c, 9, 42, 64
23, 18060, Note_on_c, 9, 42, 127
23, 18075, Note_off_c, 9, 42, 64
23, 18120, Note_on_c, 9, 42, 127
23, 18145, Note_off_c, 9, 42, 64
23, 18180, Note_on_c, 9, 42, 127
23, 18195, Note_off_c, 9, 42, 64
23, 18240, Note_on_c, 9, 42, 127
23, 18260, Note_off_c, 9, 42, 64
23, 18300, Note_on_c, 9, 42, 113
23, 18315, Note_off_c, 9, 42, 64
23, 18360, Note_on_c, 9, 42, 127
23, 18380, Note_off_c, 9, 42, 64
23, 18420, Note_on_c, 9, 42, 127
23, 18440, Note_off_c, 9, 42, 64
23, 18480, Note_on_c, 9, 42, 127
23, 18500, Note_off_c, 9, 42, 64
23, 18540, Note_on_c, 9, 42, 100
23, 18550, Note_off_c, 9, 42, 64
23, 18570, Note_on_c, 9, 42, 127
23, 18590, Note_off_c, 9, 42, 64
23, 18660, Note_on_c, 9, 42, 127
23, 18675, Note_off_c, 9, 42, 64
23, 18720, Note_on_c, 9, 42, 127
23, 18750, Note_off_c, 9, 42, 64
23, 18780, Note_on_c, 9, 42, 127
23, 18795, Note_off_c, 9, 42, 64
23, 18840, Note_on_c, 9, 42, 127
23, 18865, Note_off_c, 9, 42, 64
23, 18900, Note_on_c, 9, 42, 127
23, 18915, Note_off_c, 9, 42, 64
23, 18960, Note_on_c, 9, 42, 127
23, 18975, Note_off_c, 9, 42, 64
23, 19020, Note_on_c, 9, 42, 127
23, 19035, Note_off_c, 9, 42, 64
23, 19080, Note_on_c, 9, 42, 127
23, 19095, Note_off_c, 9, 42, 64
23, 19140, Note_on_c, 9, 42, 127
23, 19155, Note_off_c, 9, 42, 64
23, 19200, Note_on_c, 9, 42, 127
23, 19220, Note_off_c, 9, 42, 64
23, 19260, Note_on_c, 9, 42, 127
23, 19275, Note_off_c, 9, 42, 64
23, 19320, Note_on_c, 9, 42, 127
23, 19340, Note_off_c, 9, 42, 64
23, 19380, Note_on_c, 9, 42, 127
23, 19395, Note_off_c, 9, 42, 64
23, 19440, Note_on_c, 9, 42, 127
23, 19455, Note_off_c, 9, 42, 64
23, 19500, Note_on_c, 9, 42, 127
23, 19515, Note_off_c, 9, 42, 64
23, 19560, Note_on_c, 9, 42, 127
23, 19575, Note_off_c, 9, 42, 64
23, 19620, Note_on_c, 9, 42, 127
23, 19635, Note_off_c, 9, 42, 64
23, 19680, Note_on_c, 9, 42, 127
23, 19695, Note_off_c, 9, 42, 64
23, 19740, Note_on_c, 9, 42, 127
23, 19755, Note_off_c, 9, 42, 64
23, 19800, Note_on_c, 9, 42, 127
23, 19820, Note_off_c, 9, 42, 64
23, 19860, Note_on_c, 9, 42, 113
23, 19875, Note_off_c, 9, 42, 64
23, 19920, Note_on_c, 9, 42, 127
23, 19935, Note_off_c, 9, 42, 64
23, 19980, Note_on_c, 9, 42, 127
23, 19995, Note_off_c, 9, 42, 64
23, 20040, Note_on_c, 9, 42, 127
23, 20060, Note_off_c, 9, 42, 64
23, 20100, Note_on_c, 9, 42, 92
23, 20115, Note_off_c, 9, 42, 64
23, 20160, Note_on_c, 9, 42, 127
23, 20180, Note_off_c, 9, 42, 64
23, 20190, Note_on_c, 9, 42, 100
23, 20205, Note_off_c, 9, 42, 64
23, 20700, Note_on_c, 9, 42, 87
23, 20715, Note_off_c, 9, 42, 64
23, 20760, Note_on_c, 9, 42, 127
23, 20780, Note_off_c, 9, 42, 64
23, 20820, Note_on_c, 9, 42, 127
23, 20840, Note_off_c, 9, 42, 64
23, 20880, Note_on_c, 9, 42, 127
23, 20900, Note_off_c, 9, 42, 64
23, 20940, Note_on_c, 9, 42, 94
23, 20955, Note_off_c, 9, 42, 64
23, 21000, Note_on_c, 9, 42, 127
23, 21020, Note_off_c, 9, 42, 64
23, 21060, Note_on_c, 9, 42, 106
23, 21075, Note_off_c, 9, 42, 64
23, 21120, Note_on_c, 9, 42, 122
23, 21145, Note_off_c, 9, 42, 64
23, 21180, Note_on_c, 9, 42, 110
23, 21195, Note_off_c, 9, 42, 64
23, 21240, Note_on_c, 9, 42, 127
23, 21265, Note_off_c, 9, 42, 64
23, 21300, Note_on_c, 9, 42, 103
23, 21320, Note_off_c, 9, 42, 64
23, 21360, Note_on_c, 9, 42, 127
23, 21380, Note_off_c, 9, 42, 64
23, 21420, Note_on_c, 9, 42, 122
23, 21435, Note_off_c, 9, 42, 64
23, 21480, Note_on_c, 9, 42, 127
23, 21490, Note_off_c, 9, 42, 64
23, 21540, Note_on_c, 9, 42, 127
23, 21555, Note_off_c, 9, 42, 64
23, 21600, Note_on_c, 9, 42, 127
23, 21620, Note_off_c, 9, 42, 64
23, 21660, Note_on_c, 9, 42, 127
23, 21675, Note_off_c, 9, 42, 64
23, 21720, Note_on_c, 9, 42, 127
23, 21730, Note_off_c, 9, 42, 64
23, 21780, Note_on_c, 9, 42, 127
23, 21795, Note_off_c, 9, 42, 64
23, 21840, Note_on_c, 9, 42, 127
23, 21860, Note_off_c, 9, 42, 64
23, 21900, Note_on_c, 9, 42, 127
23, 21915, Note_off_c, 9, 42, 64
23, 21960, Note_on_c, 9, 42, 127
23, 21985, Note_off_c, 9, 42, 64
23, 22020, Note_on_c, 9, 42, 127
23, 22035, Note_off_c, 9, 42, 64
23, 22080, Note_on_c, 9, 42, 127
23, 22100, Note_off_c, 9, 42, 64
23, 22140, Note_on_c, 9, 42, 113
23, 22155, Note_off_c, 9, 42, 64
23, 22200, Note_on_c, 9, 42, 127
23, 22220, Note_off_c, 9, 42, 64
23, 22260, Note_on_c, 9, 42, 127
23, 22280, Note_off_c, 9, 42, 64
23, 22320, Note_on_c, 9, 42, 127
23, 22340, Note_off_c, 9, 42, 64
23, 22380, Note_on_c, 9, 42, 100
23, 22390, Note_off_c, 9, 42, 64
23, 22410, Note_on_c, 9, 42, 127
23, 22430, Note_off_c, 9, 42, 64
23, 22500, Note_on_c, 9, 42, 127
23, 22515, Note_off_c, 9, 42, 64
23, 22560, Note_on_c, 9, 42, 127
23, 22590, Note_off_c, 9, 42, 64
23, 22620, Note_on_c, 9, 42, 127
23, 22635, Note_off_c, 9, 42, 64
23, 22680, Note_on_c, 9, 42, 127
23, 22705, Note_off_c, 9, 42, 64
23, 22740, Note_on_c, 9, 42, 127
23, 22755, Note_off_c, 9, 42, 64
23, 22800, Note_on_c, 9, 42, 127
23, 22815, Note_off_c, 9, 42, 64
23, 22860, Note_on_c, 9, 42, 127
23, 22875, Note_off_c, 9, 42, 64
23, 22920, Note_on_c, 9, 42, 127
23, 22935, Note_off_c, 9, 42, 64
23, 22980, Note_on_c, 9, 42, 127
23, 22995, Note_off_c, 9, 42, 64
23, 23040, Note_on_c, 9, 42, 127
23, 23060, Note_off_c, 9, 42, 64
23, 23100, Note_on_c, 9, 42, 127
23, 23115, Note_off_c, 9, 42, 64
23, 23160, Note_on_c, 9, 42, 127
23, 23180, Note_off_c, 9, 42, 64
23, 23220, Note_on_c, 9, 42, 127
23, 23235, Note_off_c, 9, 42, 64
23, 23280, Note_on_c, 9, 42, 127
23, 23295, Note_off_c, 9, 42, 64
23, 23340, Note_on_c, 9, 42, 127
23, 23355, Note_off_c, 9, 42, 64
23, 23400, Note_on_c, 9, 42, 127
23, 23415, Note_off_c, 9, 42, 64
23, 23460, Note_on_c, 9, 42, 127
23, 23475, Note_off_c, 9, 42, 64
23, 23520, Note_on_c, 9, 42, 127
23, 23535, Note_off_c, 9, 42, 64
23, 23580, Note_on_c, 9, 42, 127
23, 23595, Note_off_c, 9, 42, 64
23, 23640, Note_on_c, 9, 42, 127
23, 23660, Note_off_c, 9, 42, 64
23, 23700, Note_on_c, 9, 42, 113
23, 23715, Note_off_c, 9, 42, 64
23, 23760, Note_on_c, 9, 42, 127
23, 23775, Note_off_c, 9, 42, 64
23, 23820, Note_on_c, 9, 42, 127
23, 23835, Note_off_c, 9, 42, 64
23, 23880, Note_on_c, 9, 42, 127
23, 23900, Note_off_c, 9, 42, 64
23, 23940, Note_on_c, 9, 42, 92
23, 23955, Note_off_c, 9, 42, 64
23, 24000, Note_on_c, 9, 42, 127
23, 24020, Note_off_c, 9, 42, 64
23, 24030, Note_on_c, 9, 42, 100
23, 24045, Note_off_c, 9, 42, 64
23, 24480, Note_on_c, 9, 42, 110
23, 24480, Note_on_c, 9, 42, 127
23, 24495, Note_off_c, 9, 42, 64
23, 24540, Note_on_c, 9, 42, 87
23, 24541, Note_off_c, 9, 42, 64
23, 24555, Note_off_c, 9, 42, 64
23, 24600, Note_on_c, 9, 42, 127
23, 24600, Note_on_c, 9, 42, 120
23, 24620, Note_off_c, 9, 42, 64
23, 24660, Note_on_c, 9, 42, 127
23, 24670, Note_off_c, 9, 42, 64
23, 24680, Note_off_c, 9, 42, 64
23, 24720, Note_on_c, 9, 42, 127
23, 24720, Note_on_c, 9, 42, 127
23, 24740, Note_off_c, 9, 42, 64
23, 24780, Note_on_c, 9, 42, 94
23, 24781, Note_off_c, 9, 42, 64
23, 24795, Note_off_c, 9, 42, 64
23, 24840, Note_on_c, 9, 42, 127
23, 24840, Note_on_c, 9, 42, 127
23, 24860, Note_off_c, 9, 42, 64
23, 24900, Note_on_c, 9, 42, 106
23, 24901, Note_off_c, 9, 42, 64
23, 24915, Note_off_c, 9, 42, 64
23, 24960, Note_on_c, 9, 42, 122
23, 24960, Note_on_c, 9, 42, 115
23, 24985, Note_off_c, 9, 42, 64
23, 25020, Note_on_c, 9, 42, 110
23, 25021, Note_off_c, 9, 42, 64
23, 25035, Note_off_c, 9, 42, 64
23, 25080, Note_on_c, 9, 42, 127
23, 25080, Note_on_c, 9, 42, 127
23, 25105, Note_off_c, 9, 42, 64
23, 25140, Note_on_c, 9, 42, 103
23, 25141, Note_off_c, 9, 42, 64
23, 25160, Note_off_c, 9, 42, 64
23, 25200, Note_on_c, 9, 42, 127
23, 25200, Note_on_c, 9, 42, 127
23, 25220, Note_off_c, 9, 42, 64
23, 25260, Note_on_c, 9, 42, 122
23, 25275, Note_off_c, 9, 42, 64
23, 25275, Note_off_c, 9, 42, 64
23, 25320, Note_on_c, 9, 42, 127
23, 25320, Note_on_c, 9, 42, 107
23, 25330, Note_off_c, 9, 42, 64
23, 25380, Note_on_c, 9, 42, 127
23, 25381, Note_off_c, 9, 42, 64
23, 25395, Note_off_c, 9, 42, 64
23, 25440, Note_on_c, 9, 42, 127
23, 25440, Note_on_c, 9, 42, 127
23, 25460, Note_off_c, 9, 42, 64
23, 25500, Note_on_c, 9, 42, 127
23, 25501, Note_off_c, 9, 42, 64
23, 25515, Note_off_c, 9, 42, 64
23, 25560, Note_on_c, 9, 42, 127
23, 25560, Note_on_c, 9, 42, 120
23, 25570, Note_off_c, 9, 42, 64
23, 25620, Note_on_c, 9, 42, 127
23, 25630, Note_off_c, 9, 42, 64
23, 25635, Note_off_c, 9, 42, 64
23, 25680, Note_on_c, 9, 42, 127
23, 25680, Note_on_c, 9, 42, 127
23, 25700, Note_off_c, 9, 42, 64
23, 25740, Note_on_c, 9, 42, 127
23, 25741, Note_off_c, 9, 42, 64
23, 25755, Note_off_c, 9, 42, 64
23, 25800, Note_on_c, 9, 42, 127
23, 25800, Note_on_c, 9, 42, 127
23, 25825, Note_off_c, 9, 42, 64
23, 25860, Note_on_c, 9, 42, 127
23, 25861, Note_off_c, 9, 42, 64
23, 25875, Note_off_c, 9, 42, 64
23, 25920, Note_on_c, 9, 42, 127
23, 25920, Note_on_c, 9, 42, 115
23, 25940, Note_off_c, 9, 42, 64
23, 25980, Note_on_c, 9, 42, 113
23, 25981, Note_off_c, 9, 42, 64
23, 25995, Note_off_c, 9, 42, 64
23, 26040, Note_on_c, 9, 42, 127
23, 26040, Note_on_c, 9, 42, 127
23, 26060, Note_off_c, 9, 42, 64
23, 26100, Note_on_c, 9, 42, 127
23, 26101, Note_off_c, 9, 42, 64
23, 26120, Note_off_c, 9, 42, 64
23, 26160, Note_on_c, 9, 42, 127
23, 26160, Note_on_c, 9, 42, 127
23, 26180, Note_off_c, 9, 42, 64
23, 26220, Note_on_c, 9, 42, 100
23, 26230, Note_off_c, 9, 42, 64
23, 26235, Note_off_c, 9, 42, 64
23, 26250, Note_on_c, 9, 42, 127
23, 26270, Note_off_c, 9, 42, 64
23, 26280, Note_on_c, 9, 42, 107
23, 26340, Note_on_c, 9, 42, 127
23, 26341, Note_off_c, 9, 42, 64
23, 26355, Note_off_c, 9, 42, 64
23, 26400, Note_on_c, 9, 42, 127
23, 26400, Note_on_c, 9, 42, 127
23, 26430, Note_off_c, 9, 42, 64
23, 26460, Note_on_c, 9, 42, 127
23, 26461, Note_off_c, 9, 42, 64
23, 26475, Note_off_c, 9, 42, 64
23, 26520, Note_on_c, 9, 42, 127
23, 26520, Note_on_c, 9, 42, 120
23, 26545, Note_off_c, 9, 42, 64
23, 26580, Note_on_c, 9, 42, 127
23, 26590, Note_off_c, 9, 42, 64
23, 26595, Note_off_c, 9, 42, 64
23, 26640, Note_on_c, 9, 42, 127
23, 26640, Note_on_c, 9, 42, 127
23, 26655, Note_off_c, 9, 42, 64
23, 26700, Note_on_c, 9, 42, 127
23, 26701, Note_off_c, 9, 42, 64
23, 26715, Note_off_c, 9, 42, 64
23, 26760, Note_on_c, 9, 42, 127
23, 26760, Note_on_c, 9, 42, 127
23, 26775, Note_off_c, 9, 42, 64
23, 26820, Note_on_c, 9, 42, 127
23, 26821, Note_off_c, 9, 42, 64
23, 26835, Note_off_c, 9, 42, 64
23, 26880, Note_on_c, 9, 42, 127
23, 26880, Note_on_c, 9, 42, 115
23, 26900, Note_off_c, 9, 42, 64
23, 26940, Note_on_c, 9, 42, 127
23, 26941, Note_off_c, 9, 42, 64
23, 26955, Note_off_c, 9, 42, 64
23, 27000, Note_on_c, 9, 42, 127
23, 27000, Note_on_c, 9, 42, 127
23, 27020, Note_off_c, 9, 42, 64
23, 27060, Note_on_c, 9, 42, 127
23, 27061, Note_off_c, 9, 42, 64
23, 27075, Note_off_c, 9, 42, 64
23, 27120, Note_on_c, 9, 42, 127
23, 27120, Note_on_c, 9, 42, 127
23, 27135, Note_off_c, 9, 42, 64
23, 27180, Note_on_c, 9, 42, 127
23, 27195, Note_off_c, 9, 42, 64
23, 27195, Note_off_c, 9, 42, 64
23, 27240, Note_on_c, 9, 42, 127
23, 27240, Note_on_c, 9, 42, 107
23, 27255, Note_off_c, 9, 42, 64
23, 27300, Note_on_c, 9, 42, 127
23, 27301, Note_off_c, 9, 42, 64
23, 27315, Note_off_c, 9, 42, 64
23, 27360, Note_on_c, 9, 42, 127
23, 27360, Note_on_c, 9, 42, 127
23, 27375, Note_off_c, 9, 42, 64
23, 27420, Note_on_c, 9, 42, 127
23, 27421, Note_off_c, 9, 42, 64
23, 27435, Note_off_c, 9, 42, 64
23, 27480, Note_on_c, 9, 42, 127
23, 27480, Note_on_c, 9, 42, 120
23, 27500, Note_off_c, 9, 42, 64
23, 27540, Note_on_c, 9, 42, 113
23, 27550, Note_off_c, 9, 42, 64
23, 27555, Note_off_c, 9, 42, 64
23, 27600, Note_on_c, 9, 42, 127
23, 27600, Note_on_c, 9, 42, 127
23, 27615, Note_off_c, 9, 42, 64
23, 27660, Note_on_c, 9, 42, 127
23, 27661, Note_off_c, 9, 42, 64
23, 27675, Note_off_c, 9, 42, 64
23, 27720, Note_on_c, 9, 42, 127
23, 27720, Note_on_c, 9, 42, 127
23, 27740, Note_off_c, 9, 42, 64
23, 27780, Note_on_c, 9, 42, 92
23, 27781, Note_off_c, 9, 42, 64
23, 27795, Note_off_c, 9, 42, 64
23, 27840, Note_on_c, 9, 42, 127
23, 27840, Note_on_c, 9, 42, 115
23, 27860, Note_off_c, 9, 42, 64
23, 27870, Note_on_c, 9, 42, 100
23, 27885, Note_off_c, 9, 42, 64
23, 27900, Note_off_c, 9, 42, 64
23, 27960, Note_on_c, 9, 42, 127
23, 28020, Note_off_c, 9, 42, 64
23, 28080, Note_on_c, 9, 42, 127
23, 28155, Note_off_c, 9, 42, 64
23, 28200, Note_on_c, 9, 42, 107
23, 28260, Note_off_c, 9, 42, 64
23, 28260, End_track
24, 0, Start_track
24, 0, Title_t, "Open Hihat"
24, 0, Control_c, 9, 7, 83
24, 1380, Note_on_c, 9, 46, 56
24, 1430, Note_off_c, 9, 46, 64
24, 2340, Note_on_c, 9, 46, 86
24, 2390, Note_off_c, 9, 46, 64
24, 3240, Note_on_c, 9, 46, 127
24, 3300, Note_on_c, 9, 46, 86
24, 3310, Note_off_c, 9, 46, 64
24, 3350, Note_off_c, 9, 46, 64
24, 4260, Note_on_c, 9, 46, 86
24, 4310, Note_off_c, 9, 46, 64
24, 5220, Note_on_c, 9, 46, 86
24, 5270, Note_off_c, 9, 46, 64
24, 6180, Note_on_c, 9, 46, 86
24, 6230, Note_off_c, 9, 46, 64
24, 7080, Note_on_c, 9, 46, 127
24, 7140, Note_on_c, 9, 46, 86
24, 7150, Note_off_c, 9, 46, 64
24, 7190, Note_off_c, 9, 46, 64
24, 8100, Note_on_c, 9, 46, 86
24, 8150, Note_off_c, 9, 46, 64
24, 9060, Note_on_c, 9, 46, 86
24, 9110, Note_off_c, 9, 46, 64
24, 10020, Note_on_c, 9, 46, 86
24, 10070, Note_off_c, 9, 46, 64
24, 10920, Note_on_c, 9, 46, 127
24, 10980, Note_on_c, 9, 46, 86
24, 10990, Note_off_c, 9, 46, 64
24, 11030, Note_off_c, 9, 46, 64
24, 11940, Note_on_c, 9, 46, 86
24, 11990, Note_off_c, 9, 46, 64
24, 12900, Note_on_c, 9, 46, 86
24, 12950, Note_off_c, 9, 46, 64
24, 14760, Note_on_c, 9, 46, 127
24, 14830, Note_off_c, 9, 46, 64
24, 18600, Note_on_c, 9, 46, 127
24, 18670, Note_off_c, 9, 46, 64
24, 22440, Note_on_c, 9, 46, 127
24, 22510, Note_off_c, 9, 46, 64
24, 25380, Note_on_c, 9, 46, 86
24, 25430, Note_off_c, 9, 46, 64
24, 26280, Note_on_c, 9, 46, 127
24, 26340, Note_on_c, 9, 46, 86
24, 26350, Note_off_c, 9, 46, 64
24, 26390, Note_off_c, 9, 46, 64
24, 27300, Note_on_c, 9, 46, 86
24, 27350, Note_off_c, 9, 46, 64
24, 28260, Note_on_c, 9, 46, 86
24, 28310, Note_off_c, 9, 46, 64
24, 28320, Note_on_c, 9, 46, 127
24, 28380, Note_off_c, 9, 46, 64
24, 28380, End_track
25, 0, Start_track
25, 0, Title_t, "Hi Tom"
25, 0, Control_c, 9, 7, 83
25, 4860, Note_on_c, 9, 50, 127
25, 4870, Note_off_c, 9, 50, 64
25, 4980, Note_on_c, 9, 50, 118
25, 4985, Note_off_c, 9, 50, 64
25, 5010, Note_on_c, 9, 48, 127
25, 5040, Note_on_c, 9, 48, 127
25, 5050, Note_off_c, 9, 48, 64
25, 5065, Note_off_c, 9, 48, 64
25, 8700, Note_on_c, 9, 50, 127
25, 8710, Note_off_c, 9, 50, 64
25, 8820, Note_on_c, 9, 50, 118
25, 8825, Note_off_c, 9, 50, 64
25, 8850, Note_on_c, 9, 48, 127
25, 8880, Note_on_c, 9, 48, 127
25, 8890, Note_off_c, 9, 48, 64
25, 8905, Note_off_c, 9, 48, 64
25, 12540, Note_on_c, 9, 50, 127
25, 12550, Note_off_c, 9, 50, 64
25, 12660, Note_on_c, 9, 50, 118
25, 12665, Note_off_c, 9, 50, 64
25, 12690, Note_on_c, 9, 48, 127
25, 12720, Note_on_c, 9, 48, 127
25, 12730, Note_off_c, 9, 48, 64
25, 12745, Note_off_c, 9, 48, 64
25, 16380, Note_on_c, 9, 50, 127
25, 16390, Note_off_c, 9, 50, 64
25, 16500, Note_on_c, 9, 50, 118
25, 16505, Note_off_c, 9, 50, 64
25, 16530, Note_on_c, 9, 48, 127
25, 16560, Note_on_c, 9, 48, 127
25, 16570, Note_off_c, 9, 48, 64
25, 16585, Note_off_c, 9, 48, 64
25, 20220, Note_on_c, 9, 50, 127
25, 20230, Note_off_c, 9, 50, 64
25, 20340, Note_on_c, 9, 50, 118
25, 20345, Note_off_c, 9, 50, 64
25, 20370, Note_on_c, 9, 48, 127
25, 20400, Note_on_c, 9, 48, 127
25, 20410, Note_off_c, 9, 48, 64
25, 20425, Note_off_c, 9, 48, 64
25, 24060, Note_on_c, 9, 50, 127
25, 24070, Note_off_c, 9, 50, 64
25, 24090, Note_on_c, 9, 50, 127
25, 24120, Note_on_c, 9, 50, 118
25, 24125, Note_off_c, 9, 50, 64
25, 24130, Note_off_c, 9, 50, 64
25, 24210, Note_on_c, 9, 48, 127
25, 24240, Note_on_c, 9, 48, 127
25, 24250, Note_off_c, 9, 48, 64
25, 24265, Note_off_c, 9, 48, 64
25, 24270, Note_on_c, 9, 48, 127
25, 24285, Note_off_c, 9, 48, 64
25, 27900, Note_on_c, 9, 50, 127
25, 27900, Note_on_c, 9, 50, 127
25, 27910, Note_off_c, 9, 50, 64
25, 27975, Note_off_c, 9, 50, 64
25, 28020, Note_on_c, 9, 50, 118
25, 28020, Note_on_c, 9, 48, 127
25, 28025, Note_off_c, 9, 50, 64
25, 28050, Note_on_c, 9, 48, 127
25, 28080, Note_on_c, 9, 48, 127
25, 28090, Note_off_c, 9, 48, 64
25, 28090, Note_off_c, 9, 48, 64
25, 28105, Note_off_c, 9, 48, 64
25, 28105, End_track
26, 0, Start_track
26, 0, Title_t, "Med Tom"
26, 0, Control_c, 9, 7, 83
26, 5100, Note_on_c, 9, 47, 127
26, 5115, Note_off_c, 9, 47, 64
26, 5160, Note_on_c, 9, 45, 127
26, 5175, Note_off_c, 9, 45, 64
26, 5220, Note_on_c, 9, 45, 127
26, 5230, Note_off_c, 9, 45, 64
26, 8940, Note_on_c, 9, 47, 127
26, 8955, Note_off_c, 9, 47, 64
26, 9000, Note_on_c, 9, 45, 127
26, 9015, Note_off_c, 9, 45, 64
26, 9060, Note_on_c, 9, 45, 127
26, 9070, Note_off_c, 9, 45, 64
26, 12780, Note_on_c, 9, 47, 127
26, 12795, Note_off_c, 9, 47, 64
26, 12840, Note_on_c, 9, 45, 127
26, 12855, Note_off_c, 9, 45, 64
26, 12900, Note_on_c, 9, 45, 127
26, 12910, Note_off_c, 9, 45, 64
26, 16620, Note_on_c, 9, 47, 127
26, 16635, Note_off_c, 9, 47, 64
26, 16680, Note_on_c, 9, 45, 127
26, 16695, Note_off_c, 9, 45, 64
26, 16740, Note_on_c, 9, 45, 127
26, 16750, Note_off_c, 9, 45, 64
26, 20460, Note_on_c, 9, 47, 127
26, 20475, Note_off_c, 9, 47, 64
26, 20520, Note_on_c, 9, 45, 127
26, 20535, Note_off_c, 9, 45, 64
26, 20580, Note_on_c, 9, 45, 127
26, 20590, Note_off_c, 9, 45, 64
26, 24330, Note_on_c, 9, 47, 127
26, 24345, Note_off_c, 9, 47, 64
26, 24360, Note_on_c, 9, 45, 127
26, 24375, Note_off_c, 9, 45, 64
26, 24420, Note_on_c, 9, 45, 127
26, 24430, Note_off_c, 9, 45, 64
26, 28140, Note_on_c, 9, 47, 127
26, 28140, Note_on_c, 9, 47, 127
26, 28155, Note_off_c, 9, 47, 64
26, 28200, Note_on_c, 9, 45, 127
26, 28205, Note_off_c, 9, 47, 64
26, 28215, Note_off_c, 9, 45, 64
26, 28260, Note_on_c, 9, 45, 127
26, 28260, Note_on_c, 9, 45, 127
26, 28270, Note_off_c, 9, 45, 64
26, 28325, Note_off_c, 9, 45, 64
26, 28325, End_track
27, 0, Start_track
27, 0, Title_t, "Floor Tom"
27, 0, Control_c, 9, 7, 83
27, 5250, Note_on_c, 9, 43, 92
27, 5255, Note_off_c, 9, 43, 64
27, 9090, Note_on_c, 9, 43, 92
27, 9095, Note_off_c, 9, 43, 64
27, 12930, Note_on_c, 9, 43, 92
27, 12935, Note_off_c, 9, 43, 64
27, 16770, Note_on_c, 9, 43, 92
27, 16775, Note_off_c, 9, 43, 64
27, 20610, Note_on_c, 9, 43, 92
27, 20615, Note_off_c, 9, 43, 64
27, 24450, Note_on_c, 9, 43, 92
27, 24455, Note_off_c, 9, 43, 64
27, 28290, Note_on_c, 9, 43, 92
27, 28295, Note_off_c, 9, 43, 64
27, 28295, End_track
28, 0, Start_track
28, 0, Title_t, "Crash"
28, 0, Control_c, 9, 7, 83
28, 9120, Note_on_c, 9, 57, 100
28, 9260, Note_off_c, 9, 57, 64
28, 12960, Note_on_c, 9, 57, 100
28, 13100, Note_off_c, 9, 57, 64
28, 16800, Note_on_c, 9, 57, 100
28, 16940, Note_off_c, 9, 57, 64
28, 20640, Note_on_c, 9, 57, 100
28, 20655, Note_off_c, 9, 57, 64
28, 24480, Note_on_c, 9, 57, 100
28, 24960, Note_off_c, 9, 57, 64
28, 26400, Note_on_c, 9, 57, 100
28, 26540, Note_off_c, 9, 57, 64
28, 28320, Note_on_c, 9, 57, 100
28, 28320, Note_on_c, 9, 57, 100
28, 28335, Note_off_c, 9, 57, 64
28, 28800, Note_off_c, 9, 57, 64
28, 28800, End_track
0, 0, End_of_file
