0, 0, Header, 1, 19, 240
1, 0, Start_track
1, 0, Time_signature, 4, 2, 24, 8
1, 0, Tempo, 461538
1, 1920, Marker_t, "C'EST MAGNIFIQUE..............................................."
1, 83520, Marker_t, "thanks for listening.........................."
1, 83520, End_track
2, 0, Start_track
2, 0, Title_t, "      "" CES'T MAGNIFIQUE """
2, 0, End_track
3, 0, Start_track
3, 0, End_track
4, 0, Start_track
4, 0, Title_t, "Orchestration & midi prep by"
4, 0, End_track
5, 0, Start_track
5, 0, Title_t, "             MEL WEBB"
5, 0, End_track
6, 0, Start_track
6, 0, End_track
7, 0, Start_track
7, 0, Title_t, "Bass / Acoustic bass"
7, 0, Program_c, 1, 32
7, 0, Control_c, 1, 7, 80
7, 0, Control_c, 1, 121, 0
7, 0, Control_c, 1, 10, 64
7, 0, Control_c, 1, 123, 0
7, 0, Control_c, 1, 91, 40
7, 0, Control_c, 1, 93, 0
7, 0, Control_c, 1, 64, 0
7, 1920, Note_on_c, 1, 43, 82
7, 2400, Note_off_c, 1, 43, 64
7, 2400, Note_on_c, 1, 38, 80
7, 2786, Note_off_c, 1, 38, 64
7, 2816, Note_on_c, 1, 38, 80
7, 2880, Note_off_c, 1, 38, 64
7, 2880, Note_on_c, 1, 43, 78
7, 3268, Note_off_c, 1, 43, 64
7, 3296, Note_on_c, 1, 31, 31
7, 3340, Note_off_c, 1, 31, 64
7, 3360, Note_on_c, 1, 38, 85
7, 3812, Note_off_c, 1, 38, 64
7, 3840, Note_on_c, 1, 43, 76
7, 4320, Note_on_c, 1, 50, 61
7, 4348, Note_off_c, 1, 43, 64
7, 4800, Note_on_c, 1, 55, 77
7, 4808, Note_off_c, 1, 50, 64
7, 5280, Note_on_c, 1, 50, 68
7, 5314, Note_off_c, 1, 55, 64
7, 5716, Note_off_c, 1, 50, 64
7, 5760, Note_on_c, 1, 43, 76
7, 6106, Note_off_c, 1, 43, 64
7, 6176, Note_on_c, 1, 43, 84
7, 6240, Note_on_c, 1, 38, 68
7, 6276, Note_off_c, 1, 43, 64
7, 6576, Note_off_c, 1, 38, 64
7, 6656, Note_on_c, 1, 38, 65
7, 6710, Note_off_c, 1, 38, 64
7, 6720, Note_on_c, 1, 40, 76
7, 7200, Note_on_c, 1, 47, 61
7, 7228, Note_off_c, 1, 40, 64
7, 7680, Note_off_c, 1, 47, 64
7, 7680, Note_on_c, 1, 33, 82
7, 8160, Note_on_c, 1, 40, 85
7, 8178, Note_off_c, 1, 33, 64
7, 8576, Note_off_c, 1, 40, 64
7, 8576, Note_on_c, 1, 33, 82
7, 8620, Note_off_c, 1, 33, 64
7, 8640, Note_on_c, 1, 38, 80
7, 9028, Note_off_c, 1, 38, 64
7, 9056, Note_on_c, 1, 37, 81
7, 9120, Note_off_c, 1, 37, 64
7, 9120, Note_on_c, 1, 38, 70
7, 9360, Note_off_c, 1, 38, 64
7, 9360, Note_on_c, 1, 40, 68
7, 9528, Note_off_c, 1, 40, 64
7, 9536, Note_on_c, 1, 28, 73
7, 9578, Note_off_c, 1, 28, 64
7, 9600, Note_on_c, 1, 33, 76
7, 9946, Note_off_c, 1, 33, 64
7, 10016, Note_on_c, 1, 33, 84
7, 10080, Note_on_c, 1, 40, 68
7, 10116, Note_off_c, 1, 33, 64
7, 10416, Note_off_c, 1, 40, 64
7, 10496, Note_on_c, 1, 40, 65
7, 10550, Note_off_c, 1, 40, 64
7, 10560, Note_on_c, 1, 38, 76
7, 11040, Note_on_c, 1, 45, 61
7, 11068, Note_off_c, 1, 38, 64
7, 11520, Note_off_c, 1, 45, 64
7, 11520, Note_on_c, 1, 33, 85
7, 12000, Note_off_c, 1, 33, 64
7, 12000, Note_on_c, 1, 40, 85
7, 12372, Note_off_c, 1, 40, 64
7, 12416, Note_on_c, 1, 39, 80
7, 12480, Note_off_c, 1, 39, 64
7, 12480, Note_on_c, 1, 38, 76
7, 12960, Note_on_c, 1, 45, 61
7, 12988, Note_off_c, 1, 38, 64
7, 13440, Note_off_c, 1, 45, 64
7, 13440, Note_on_c, 1, 33, 85
7, 13920, Note_off_c, 1, 33, 64
7, 13920, Note_on_c, 1, 40, 85
7, 14292, Note_off_c, 1, 40, 64
7, 14336, Note_on_c, 1, 39, 80
7, 14400, Note_off_c, 1, 39, 64
7, 14400, Note_on_c, 1, 38, 72
7, 14802, Note_off_c, 1, 38, 64
7, 14802, Note_on_c, 1, 45, 82
7, 14880, Note_on_c, 1, 50, 74
7, 14912, Note_off_c, 1, 45, 64
7, 14992, Note_off_c, 1, 50, 64
7, 15040, Note_on_c, 1, 45, 100
7, 15120, Note_on_c, 1, 38, 89
7, 15138, Note_off_c, 1, 45, 64
7, 15346, Note_off_c, 1, 38, 64
7, 15360, Note_on_c, 1, 43, 81
7, 15486, Note_off_c, 1, 43, 64
7, 15536, Note_on_c, 1, 43, 71
7, 15600, Note_on_c, 1, 50, 73
7, 15616, Note_off_c, 1, 43, 64
7, 15840, Note_off_c, 1, 50, 64
7, 15840, Note_on_c, 1, 44, 70
7, 16320, Note_off_c, 1, 44, 64
7, 16320, Note_on_c, 1, 33, 80
7, 16708, Note_off_c, 1, 33, 64
7, 16736, Note_on_c, 1, 37, 81
7, 16800, Note_off_c, 1, 37, 64
7, 16800, Note_on_c, 1, 38, 80
7, 17188, Note_off_c, 1, 38, 64
7, 17216, Note_on_c, 1, 42, 81
7, 17280, Note_off_c, 1, 42, 64
7, 17280, Note_on_c, 1, 43, 68
7, 17520, Note_on_c, 1, 44, 74
7, 17546, Note_off_c, 1, 43, 64
7, 17760, Note_off_c, 1, 44, 64
7, 17760, Note_on_c, 1, 45, 61
7, 18000, Note_on_c, 1, 46, 79
7, 18046, Note_off_c, 1, 45, 64
7, 18234, Note_off_c, 1, 46, 64
7, 18240, Note_on_c, 1, 47, 60
7, 18480, Note_on_c, 1, 48, 76
7, 18482, Note_off_c, 1, 47, 64
7, 18720, Note_on_c, 1, 49, 70
7, 18726, Note_off_c, 1, 48, 64
7, 18960, Note_on_c, 1, 50, 72
7, 18976, Note_off_c, 1, 49, 64
7, 19150, Note_off_c, 1, 50, 64
7, 19200, Note_on_c, 1, 43, 68
7, 19440, Note_on_c, 1, 44, 74
7, 19466, Note_off_c, 1, 43, 64
7, 19680, Note_off_c, 1, 44, 64
7, 19680, Note_on_c, 1, 45, 61
7, 19920, Note_on_c, 1, 46, 79
7, 19966, Note_off_c, 1, 45, 64
7, 20154, Note_off_c, 1, 46, 64
7, 20160, Note_on_c, 1, 47, 60
7, 20400, Note_on_c, 1, 48, 76
7, 20402, Note_off_c, 1, 47, 64
7, 20640, Note_on_c, 1, 49, 70
7, 20646, Note_off_c, 1, 48, 64
7, 20880, Note_on_c, 1, 50, 72
7, 20896, Note_off_c, 1, 49, 64
7, 21070, Note_off_c, 1, 50, 64
7, 21120, Note_on_c, 1, 38, 74
7, 21258, Note_off_c, 1, 38, 64
7, 21298, Note_on_c, 1, 26, 82
7, 21344, Note_off_c, 1, 26, 64
7, 21360, Note_on_c, 1, 40, 74
7, 21578, Note_off_c, 1, 40, 64
7, 21600, Note_on_c, 1, 41, 54
7, 21824, Note_off_c, 1, 41, 64
7, 21840, Note_on_c, 1, 45, 67
7, 22006, Note_off_c, 1, 45, 64
7, 22018, Note_on_c, 1, 38, 72
7, 22080, Note_off_c, 1, 38, 64
7, 22080, Note_on_c, 1, 43, 69
7, 22320, Note_on_c, 1, 50, 67
7, 22364, Note_off_c, 1, 43, 64
7, 22560, Note_on_c, 1, 55, 73
7, 22578, Note_off_c, 1, 50, 64
7, 22800, Note_on_c, 1, 50, 84
7, 22810, Note_off_c, 1, 55, 64
7, 22968, Note_on_c, 1, 37, 60
7, 22982, Note_off_c, 1, 50, 64
7, 23040, Note_off_c, 1, 37, 64
7, 23040, Note_on_c, 1, 48, 75
7, 23216, Note_off_c, 1, 48, 64
7, 23216, Note_on_c, 1, 31, 62
7, 23248, Note_off_c, 1, 31, 64
7, 23280, Note_on_c, 1, 43, 75
7, 23520, Note_on_c, 1, 40, 79
7, 23536, Note_off_c, 1, 43, 64
7, 23680, Note_off_c, 1, 40, 64
7, 23696, Note_on_c, 1, 28, 50
7, 23742, Note_off_c, 1, 28, 64
7, 23760, Note_on_c, 1, 31, 64
7, 24012, Note_off_c, 1, 31, 64
7, 24012, Note_on_c, 1, 36, 83
7, 24176, Note_off_c, 1, 36, 64
7, 24176, Note_on_c, 1, 31, 59
7, 24208, Note_off_c, 1, 31, 64
7, 24240, Note_on_c, 1, 38, 81
7, 24472, Note_off_c, 1, 38, 64
7, 24480, Note_on_c, 1, 40, 82
7, 24656, Note_off_c, 1, 40, 64
7, 24656, Note_on_c, 1, 31, 71
7, 24686, Note_off_c, 1, 31, 64
7, 24720, Note_on_c, 1, 43, 76
7, 24880, Note_off_c, 1, 43, 64
7, 24896, Note_on_c, 1, 31, 59
7, 24920, Note_off_c, 1, 31, 64
7, 24960, Note_on_c, 1, 36, 71
7, 25200, Note_on_c, 1, 38, 73
7, 25240, Note_off_c, 1, 36, 64
7, 25440, Note_on_c, 1, 40, 68
7, 25462, Note_off_c, 1, 38, 64
7, 25680, Note_on_c, 1, 43, 69
7, 25720, Note_off_c, 1, 40, 64
7, 25920, Note_off_c, 1, 43, 64
7, 25920, Note_on_c, 1, 36, 69
7, 26068, Note_off_c, 1, 36, 64
7, 26096, Note_on_c, 1, 36, 81
7, 26148, Note_off_c, 1, 36, 64
7, 26160, Note_on_c, 1, 40, 62
7, 26400, Note_off_c, 1, 40, 64
7, 26400, Note_on_c, 1, 41, 71
7, 26640, Note_on_c, 1, 48, 70
7, 26684, Note_off_c, 1, 41, 64
7, 26880, Note_off_c, 1, 48, 64
7, 26880, Note_on_c, 1, 43, 73
7, 27108, Note_off_c, 1, 43, 64
7, 27120, Note_on_c, 1, 35, 67
7, 27360, Note_off_c, 1, 35, 64
7, 27360, Note_on_c, 1, 36, 77
7, 27488, Note_off_c, 1, 36, 64
7, 27538, Note_on_c, 1, 36, 70
7, 27600, Note_on_c, 1, 43, 63
7, 27608, Note_off_c, 1, 36, 64
7, 27840, Note_off_c, 1, 43, 64
7, 27840, Note_on_c, 1, 35, 69
7, 27988, Note_off_c, 1, 35, 64
7, 28016, Note_on_c, 1, 35, 81
7, 28068, Note_off_c, 1, 35, 64
7, 28080, Note_on_c, 1, 39, 62
7, 28320, Note_off_c, 1, 39, 64
7, 28320, Note_on_c, 1, 40, 64
7, 28522, Note_off_c, 1, 40, 64
7, 28560, Note_on_c, 1, 40, 79
7, 28800, Note_off_c, 1, 40, 64
7, 28800, Note_on_c, 1, 33, 69
7, 29040, Note_on_c, 1, 40, 67
7, 29084, Note_off_c, 1, 33, 64
7, 29280, Note_on_c, 1, 45, 73
7, 29298, Note_off_c, 1, 40, 64
7, 29520, Note_on_c, 1, 40, 84
7, 29530, Note_off_c, 1, 45, 64
7, 29688, Note_on_c, 1, 39, 60
7, 29702, Note_off_c, 1, 40, 64
7, 29760, Note_off_c, 1, 39, 64
7, 29760, Note_on_c, 1, 38, 89
7, 29938, Note_on_c, 1, 33, 40
7, 29946, Note_off_c, 1, 38, 64
7, 30000, Note_off_c, 1, 33, 64
7, 30000, Note_on_c, 1, 45, 72
7, 30210, Note_off_c, 1, 45, 64
7, 30240, Note_on_c, 1, 42, 80
7, 30480, Note_off_c, 1, 42, 64
7, 30480, Note_on_c, 1, 38, 82
7, 30582, Note_off_c, 1, 38, 64
7, 30658, Note_on_c, 1, 33, 60
7, 30720, Note_off_c, 1, 33, 64
7, 30720, Note_on_c, 1, 43, 69
7, 30960, Note_on_c, 1, 50, 67
7, 31004, Note_off_c, 1, 43, 64
7, 31200, Note_on_c, 1, 55, 73
7, 31218, Note_off_c, 1, 50, 64
7, 31440, Note_on_c, 1, 50, 84
7, 31450, Note_off_c, 1, 55, 64
7, 31608, Note_on_c, 1, 34, 60
7, 31622, Note_off_c, 1, 50, 64
7, 31680, Note_off_c, 1, 34, 64
7, 31680, Note_on_c, 1, 33, 72
7, 31920, Note_on_c, 1, 36, 69
7, 31950, Note_off_c, 1, 33, 64
7, 32138, Note_off_c, 1, 36, 64
7, 32160, Note_on_c, 1, 38, 72
7, 32400, Note_on_c, 1, 42, 69
7, 32430, Note_off_c, 1, 38, 64
7, 32618, Note_off_c, 1, 42, 64
7, 32640, Note_on_c, 1, 55, 83
7, 32816, Note_off_c, 1, 55, 64
7, 32816, Note_on_c, 1, 38, 32
7, 32846, Note_off_c, 1, 38, 64
7, 32880, Note_on_c, 1, 47, 76
7, 33120, Note_off_c, 1, 47, 64
7, 33120, Note_on_c, 1, 48, 82
7, 33296, Note_on_c, 1, 38, 69
7, 33306, Note_off_c, 1, 48, 64
7, 33324, Note_off_c, 1, 38, 64
7, 33360, Note_on_c, 1, 49, 87
7, 33600, Note_on_c, 1, 50, 83
7, 33610, Note_off_c, 1, 49, 64
7, 33776, Note_on_c, 1, 38, 48
7, 33810, Note_off_c, 1, 38, 64
7, 33840, Note_on_c, 1, 51, 89
7, 33850, Note_off_c, 1, 50, 64
7, 34080, Note_off_c, 1, 51, 64
7, 34080, Note_on_c, 1, 52, 79
7, 34256, Note_on_c, 1, 38, 46
7, 34286, Note_off_c, 1, 38, 64
7, 34286, Note_off_c, 1, 52, 64
7, 34320, Note_on_c, 1, 54, 70
7, 34546, Note_off_c, 1, 54, 64
7, 34560, Note_on_c, 1, 43, 68
7, 34800, Note_on_c, 1, 44, 74
7, 34826, Note_off_c, 1, 43, 64
7, 35040, Note_off_c, 1, 44, 64
7, 35040, Note_on_c, 1, 45, 61
7, 35280, Note_on_c, 1, 46, 79
7, 35326, Note_off_c, 1, 45, 64
7, 35514, Note_off_c, 1, 46, 64
7, 35520, Note_on_c, 1, 47, 60
7, 35760, Note_on_c, 1, 48, 76
7, 35762, Note_off_c, 1, 47, 64
7, 36000, Note_on_c, 1, 49, 70
7, 36006, Note_off_c, 1, 48, 64
7, 36240, Note_on_c, 1, 50, 72
7, 36256, Note_off_c, 1, 49, 64
7, 36430, Note_off_c, 1, 50, 64
7, 36480, Note_on_c, 1, 43, 89
7, 36658, Note_on_c, 1, 38, 40
7, 36666, Note_off_c, 1, 43, 64
7, 36720, Note_off_c, 1, 38, 64
7, 36720, Note_on_c, 1, 50, 72
7, 36930, Note_off_c, 1, 50, 64
7, 36960, Note_on_c, 1, 47, 80
7, 37200, Note_off_c, 1, 47, 64
7, 37200, Note_on_c, 1, 43, 82
7, 37302, Note_off_c, 1, 43, 64
7, 37378, Note_on_c, 1, 38, 60
7, 37440, Note_off_c, 1, 38, 64
7, 37440, Note_on_c, 1, 40, 80
7, 37568, Note_off_c, 1, 40, 64
7, 37616, Note_on_c, 1, 40, 82
7, 37680, Note_on_c, 1, 38, 83
7, 37700, Note_off_c, 1, 40, 64
7, 37920, Note_on_c, 1, 36, 79
7, 37928, Note_off_c, 1, 38, 64
7, 38160, Note_on_c, 1, 35, 74
7, 38164, Note_off_c, 1, 36, 64
7, 38400, Note_off_c, 1, 35, 64
7, 38400, Note_on_c, 1, 33, 87
7, 38578, Note_on_c, 1, 28, 30
7, 38602, Note_off_c, 1, 33, 64
7, 38640, Note_off_c, 1, 28, 64
7, 38640, Note_on_c, 1, 35, 81
7, 38880, Note_on_c, 1, 36, 83
7, 38914, Note_off_c, 1, 35, 64
7, 39058, Note_on_c, 1, 28, 56
7, 39084, Note_off_c, 1, 36, 64
7, 39108, Note_off_c, 1, 28, 64
7, 39120, Note_on_c, 1, 36, 87
7, 39346, Note_off_c, 1, 36, 64
7, 39360, Note_on_c, 1, 50, 68
7, 39436, Note_off_c, 1, 50, 64
7, 39542, Note_on_c, 1, 50, 54
7, 39610, Note_on_c, 1, 45, 75
7, 39618, Note_off_c, 1, 50, 64
7, 39840, Note_off_c, 1, 45, 64
7, 39840, Note_on_c, 1, 38, 67
7, 40020, Note_off_c, 1, 38, 64
7, 40020, Note_on_c, 1, 26, 64
7, 40036, Note_off_c, 1, 26, 64
7, 40080, Note_on_c, 1, 40, 67
7, 40260, Note_off_c, 1, 40, 64
7, 40260, Note_on_c, 1, 28, 64
7, 40276, Note_off_c, 1, 28, 64
7, 40320, Note_on_c, 1, 33, 71
7, 40560, Note_on_c, 1, 35, 68
7, 40600, Note_off_c, 1, 33, 64
7, 40800, Note_on_c, 1, 36, 75
7, 40818, Note_off_c, 1, 35, 64
7, 41040, Note_on_c, 1, 36, 68
7, 41052, Note_off_c, 1, 36, 64
7, 41236, Note_off_c, 1, 36, 64
7, 41280, Note_on_c, 1, 38, 78
7, 41456, Note_on_c, 1, 33, 57
7, 41464, Note_off_c, 1, 38, 64
7, 41494, Note_off_c, 1, 33, 64
7, 41520, Note_on_c, 1, 40, 76
7, 41758, Note_off_c, 1, 40, 64
7, 41760, Note_on_c, 1, 42, 83
7, 41916, Note_off_c, 1, 42, 64
7, 41936, Note_on_c, 1, 33, 61
7, 41972, Note_off_c, 1, 33, 64
7, 42000, Note_on_c, 1, 45, 85
7, 42160, Note_off_c, 1, 45, 64
7, 42176, Note_on_c, 1, 33, 54
7, 42196, Note_off_c, 1, 33, 64
7, 42240, Note_on_c, 1, 33, 74
7, 42378, Note_off_c, 1, 33, 64
7, 42418, Note_on_c, 1, 21, 82
7, 42464, Note_off_c, 1, 21, 64
7, 42480, Note_on_c, 1, 35, 74
7, 42698, Note_off_c, 1, 35, 64
7, 42720, Note_on_c, 1, 36, 54
7, 42944, Note_off_c, 1, 36, 64
7, 42960, Note_on_c, 1, 40, 67
7, 43126, Note_off_c, 1, 40, 64
7, 43138, Note_on_c, 1, 33, 72
7, 43200, Note_off_c, 1, 33, 64
7, 43200, Note_on_c, 1, 38, 69
7, 43440, Note_off_c, 1, 38, 64
7, 43440, Note_on_c, 1, 45, 68
7, 43682, Note_off_c, 1, 45, 64
7, 43682, Note_on_c, 1, 42, 63
7, 43924, Note_off_c, 1, 42, 64
7, 43924, Note_on_c, 1, 38, 81
7, 44160, Note_off_c, 1, 38, 64
7, 44160, Note_on_c, 1, 33, 69
7, 44400, Note_on_c, 1, 40, 67
7, 44444, Note_off_c, 1, 33, 64
7, 44640, Note_on_c, 1, 45, 73
7, 44658, Note_off_c, 1, 40, 64
7, 44880, Note_on_c, 1, 40, 84
7, 44890, Note_off_c, 1, 45, 64
7, 45048, Note_on_c, 1, 39, 60
7, 45062, Note_off_c, 1, 40, 64
7, 45120, Note_off_c, 1, 39, 64
7, 45120, Note_on_c, 1, 38, 87
7, 45298, Note_on_c, 1, 33, 30
7, 45322, Note_off_c, 1, 38, 64
7, 45360, Note_off_c, 1, 33, 64
7, 45360, Note_on_c, 1, 40, 81
7, 45600, Note_on_c, 1, 41, 83
7, 45634, Note_off_c, 1, 40, 64
7, 45778, Note_on_c, 1, 33, 56
7, 45804, Note_off_c, 1, 41, 64
7, 45828, Note_off_c, 1, 33, 64
7, 45840, Note_on_c, 1, 42, 87
7, 46066, Note_off_c, 1, 42, 64
7, 46080, Note_on_c, 1, 43, 78
7, 46248, Note_on_c, 1, 31, 55
7, 46296, Note_off_c, 1, 43, 64
7, 46312, Note_off_c, 1, 31, 64
7, 46320, Note_on_c, 1, 45, 78
7, 46560, Note_off_c, 1, 45, 64
7, 46560, Note_on_c, 1, 44, 71
7, 46800, Note_on_c, 1, 50, 70
7, 46844, Note_off_c, 1, 44, 64
7, 47040, Note_off_c, 1, 50, 64
7, 47040, Note_on_c, 1, 33, 71
7, 47280, Note_on_c, 1, 40, 70
7, 47324, Note_off_c, 1, 33, 64
7, 47520, Note_off_c, 1, 40, 64
7, 47520, Note_on_c, 1, 38, 72
7, 47696, Note_on_c, 1, 26, 65
7, 47702, Note_off_c, 1, 38, 64
7, 47758, Note_off_c, 1, 26, 64
7, 47760, Note_on_c, 1, 38, 74
7, 47998, Note_off_c, 1, 38, 64
7, 48000, Note_on_c, 1, 55, 83
7, 48176, Note_off_c, 1, 55, 64
7, 48176, Note_on_c, 1, 38, 32
7, 48206, Note_off_c, 1, 38, 64
7, 48240, Note_on_c, 1, 47, 76
7, 48480, Note_off_c, 1, 47, 64
7, 48480, Note_on_c, 1, 48, 82
7, 48656, Note_on_c, 1, 38, 69
7, 48666, Note_off_c, 1, 48, 64
7, 48684, Note_off_c, 1, 38, 64
7, 48720, Note_on_c, 1, 49, 87
7, 48960, Note_on_c, 1, 50, 83
7, 48970, Note_off_c, 1, 49, 64
7, 49136, Note_on_c, 1, 38, 48
7, 49170, Note_off_c, 1, 38, 64
7, 49200, Note_on_c, 1, 51, 89
7, 49210, Note_off_c, 1, 50, 64
7, 49440, Note_off_c, 1, 51, 64
7, 49440, Note_on_c, 1, 52, 79
7, 49616, Note_on_c, 1, 38, 46
7, 49646, Note_off_c, 1, 38, 64
7, 49646, Note_off_c, 1, 52, 64
7, 49680, Note_on_c, 1, 54, 70
7, 49906, Note_off_c, 1, 54, 64
7, 49920, Note_on_c, 1, 43, 68
7, 50160, Note_on_c, 1, 44, 74
7, 50186, Note_off_c, 1, 43, 64
7, 50400, Note_off_c, 1, 44, 64
7, 50400, Note_on_c, 1, 45, 61
7, 50640, Note_on_c, 1, 46, 79
7, 50686, Note_off_c, 1, 45, 64
7, 50874, Note_off_c, 1, 46, 64
7, 50880, Note_on_c, 1, 47, 60
7, 51120, Note_on_c, 1, 48, 76
7, 51122, Note_off_c, 1, 47, 64
7, 51360, Note_on_c, 1, 49, 70
7, 51366, Note_off_c, 1, 48, 64
7, 51600, Note_on_c, 1, 50, 72
7, 51616, Note_off_c, 1, 49, 64
7, 51790, Note_off_c, 1, 50, 64
7, 51840, Note_on_c, 1, 38, 69
7, 52080, Note_on_c, 1, 45, 67
7, 52124, Note_off_c, 1, 38, 64
7, 52320, Note_on_c, 1, 50, 73
7, 52338, Note_off_c, 1, 45, 64
7, 52560, Note_on_c, 1, 45, 84
7, 52570, Note_off_c, 1, 50, 64
7, 52728, Note_on_c, 1, 44, 60
7, 52742, Note_off_c, 1, 45, 64
7, 52800, Note_off_c, 1, 44, 64
7, 52800, Note_on_c, 1, 43, 78
7, 52976, Note_on_c, 1, 38, 57
7, 52984, Note_off_c, 1, 43, 64
7, 53014, Note_off_c, 1, 38, 64
7, 53040, Note_on_c, 1, 45, 76
7, 53278, Note_off_c, 1, 45, 64
7, 53280, Note_on_c, 1, 47, 83
7, 53436, Note_off_c, 1, 47, 64
7, 53456, Note_on_c, 1, 38, 61
7, 53492, Note_off_c, 1, 38, 64
7, 53520, Note_on_c, 1, 50, 85
7, 53680, Note_off_c, 1, 50, 64
7, 53696, Note_on_c, 1, 38, 54
7, 53716, Note_off_c, 1, 38, 64
7, 53760, Note_on_c, 1, 36, 77
7, 54000, Note_on_c, 1, 38, 71
7, 54028, Note_off_c, 1, 36, 64
7, 54240, Note_on_c, 1, 40, 73
7, 54262, Note_off_c, 1, 38, 64
7, 54480, Note_off_c, 1, 40, 64
7, 54480, Note_on_c, 1, 43, 74
7, 54720, Note_on_c, 1, 48, 65
7, 54742, Note_off_c, 1, 43, 64
7, 54960, Note_on_c, 1, 43, 58
7, 54972, Note_off_c, 1, 48, 64
7, 55200, Note_on_c, 1, 40, 71
7, 55218, Note_off_c, 1, 43, 64
7, 55440, Note_on_c, 1, 36, 74
7, 55442, Note_off_c, 1, 40, 64
7, 55654, Note_off_c, 1, 36, 64
7, 55680, Note_on_c, 1, 36, 69
7, 55920, Note_on_c, 1, 43, 67
7, 55964, Note_off_c, 1, 36, 64
7, 56160, Note_on_c, 1, 48, 73
7, 56178, Note_off_c, 1, 43, 64
7, 56400, Note_on_c, 1, 43, 84
7, 56410, Note_off_c, 1, 48, 64
7, 56568, Note_on_c, 1, 37, 60
7, 56582, Note_off_c, 1, 43, 64
7, 56640, Note_off_c, 1, 37, 64
7, 56640, Note_on_c, 1, 36, 77
7, 56768, Note_off_c, 1, 36, 64
7, 56818, Note_on_c, 1, 36, 70
7, 56880, Note_on_c, 1, 43, 63
7, 56888, Note_off_c, 1, 36, 64
7, 57120, Note_off_c, 1, 43, 64
7, 57120, Note_on_c, 1, 41, 67
7, 57360, Note_off_c, 1, 41, 64
7, 57360, Note_on_c, 1, 41, 74
7, 57600, Note_off_c, 1, 41, 64
7, 57600, Note_on_c, 1, 43, 67
7, 57840, Note_off_c, 1, 43, 64
7, 57840, Note_on_c, 1, 43, 74
7, 58080, Note_off_c, 1, 43, 64
7, 58080, Note_on_c, 1, 48, 83
7, 58160, Note_on_c, 1, 43, 60
7, 58188, Note_off_c, 1, 48, 64
7, 58240, Note_on_c, 1, 40, 62
7, 58260, Note_off_c, 1, 43, 64
7, 58320, Note_off_c, 1, 40, 64
7, 58320, Note_on_c, 1, 36, 76
7, 58560, Note_off_c, 1, 36, 64
7, 58560, Note_on_c, 1, 47, 68
7, 58636, Note_off_c, 1, 47, 64
7, 58742, Note_on_c, 1, 47, 54
7, 58810, Note_on_c, 1, 42, 75
7, 58818, Note_off_c, 1, 47, 64
7, 59040, Note_off_c, 1, 42, 64
7, 59040, Note_on_c, 1, 40, 73
7, 59268, Note_off_c, 1, 40, 64
7, 59280, Note_on_c, 1, 32, 67
7, 59520, Note_off_c, 1, 32, 64
7, 59520, Note_on_c, 1, 33, 76
7, 59760, Note_on_c, 1, 45, 59
7, 59778, Note_off_c, 1, 33, 64
7, 60000, Note_on_c, 1, 40, 71
7, 60028, Note_off_c, 1, 45, 64
7, 60240, Note_on_c, 1, 37, 77
7, 60246, Note_off_c, 1, 40, 64
7, 60480, Note_off_c, 1, 37, 64
7, 60480, Note_on_c, 1, 38, 69
7, 60720, Note_on_c, 1, 45, 67
7, 60764, Note_off_c, 1, 38, 64
7, 60960, Note_on_c, 1, 50, 73
7, 60978, Note_off_c, 1, 45, 64
7, 61200, Note_on_c, 1, 45, 84
7, 61210, Note_off_c, 1, 50, 64
7, 61368, Note_on_c, 1, 44, 60
7, 61382, Note_off_c, 1, 45, 64
7, 61440, Note_off_c, 1, 44, 64
7, 61440, Note_on_c, 1, 43, 85
7, 61528, Note_off_c, 1, 43, 64
7, 61618, Note_on_c, 1, 43, 73
7, 61680, Note_on_c, 1, 45, 64
7, 61722, Note_off_c, 1, 43, 64
7, 61920, Note_off_c, 1, 45, 64
7, 61920, Note_on_c, 1, 47, 75
7, 62158, Note_off_c, 1, 47, 64
7, 62160, Note_on_c, 1, 50, 67
7, 62400, Note_off_c, 1, 50, 64
7, 62400, Note_on_c, 1, 33, 67
7, 62640, Note_off_c, 1, 33, 64
7, 62640, Note_on_c, 1, 33, 74
7, 62880, Note_off_c, 1, 33, 64
7, 62880, Note_on_c, 1, 50, 71
7, 63120, Note_on_c, 1, 45, 70
7, 63150, Note_off_c, 1, 50, 64
7, 63360, Note_off_c, 1, 45, 64
7, 63360, Note_on_c, 1, 43, 73
7, 63838, Note_off_c, 1, 43, 64
7, 63840, Note_on_c, 1, 50, 77
7, 64308, Note_off_c, 1, 50, 64
7, 64320, Note_on_c, 1, 43, 73
7, 64796, Note_off_c, 1, 43, 64
7, 64800, Note_on_c, 1, 50, 69
7, 65198, Note_off_c, 1, 50, 64
7, 65200, Note_on_c, 1, 31, 60
7, 65212, Note_off_c, 1, 31, 64
7, 65280, Note_on_c, 1, 43, 68
7, 65750, Note_off_c, 1, 43, 64
7, 65760, Note_on_c, 1, 50, 81
7, 66224, Note_off_c, 1, 50, 64
7, 66240, Note_on_c, 1, 43, 60
7, 66648, Note_on_c, 1, 31, 56
7, 66688, Note_off_c, 1, 31, 64
7, 66688, Note_off_c, 1, 43, 64
7, 66720, Note_on_c, 1, 50, 88
7, 67172, Note_off_c, 1, 50, 64
7, 67200, Note_on_c, 1, 43, 85
7, 67680, Note_off_c, 1, 43, 64
7, 67680, Note_on_c, 1, 38, 85
7, 68052, Note_off_c, 1, 38, 64
7, 68096, Note_on_c, 1, 41, 80
7, 68160, Note_off_c, 1, 41, 64
7, 68160, Note_on_c, 1, 40, 72
7, 68562, Note_off_c, 1, 40, 64
7, 68562, Note_on_c, 1, 47, 82
7, 68640, Note_on_c, 1, 52, 74
7, 68672, Note_off_c, 1, 47, 64
7, 68752, Note_off_c, 1, 52, 64
7, 68800, Note_on_c, 1, 47, 100
7, 68880, Note_on_c, 1, 40, 89
7, 68898, Note_off_c, 1, 47, 64
7, 69106, Note_off_c, 1, 40, 64
7, 69120, Note_on_c, 1, 33, 76
7, 69466, Note_off_c, 1, 33, 64
7, 69536, Note_on_c, 1, 33, 84
7, 69600, Note_on_c, 1, 40, 68
7, 69636, Note_off_c, 1, 33, 64
7, 69936, Note_off_c, 1, 40, 64
7, 70016, Note_on_c, 1, 40, 65
7, 70070, Note_off_c, 1, 40, 64
7, 70080, Note_on_c, 1, 38, 80
7, 70468, Note_off_c, 1, 38, 64
7, 70496, Note_on_c, 1, 37, 81
7, 70560, Note_off_c, 1, 37, 64
7, 70560, Note_on_c, 1, 38, 68
7, 70728, Note_off_c, 1, 38, 64
7, 70736, Note_on_c, 1, 26, 73
7, 70778, Note_off_c, 1, 26, 64
7, 70800, Note_on_c, 1, 40, 70
7, 71040, Note_off_c, 1, 40, 64
7, 71040, Note_on_c, 1, 33, 89
7, 71534, Note_off_c, 1, 33, 64
7, 71534, Note_on_c, 1, 40, 82
7, 71956, Note_off_c, 1, 40, 64
7, 72000, Note_on_c, 1, 38, 82
7, 72480, Note_on_c, 1, 45, 85
7, 72498, Note_off_c, 1, 38, 64
7, 72896, Note_off_c, 1, 45, 64
7, 72896, Note_on_c, 1, 38, 82
7, 72940, Note_off_c, 1, 38, 64
7, 72960, Note_on_c, 1, 33, 82
7, 73440, Note_on_c, 1, 40, 85
7, 73458, Note_off_c, 1, 33, 64
7, 73856, Note_off_c, 1, 40, 64
7, 73856, Note_on_c, 1, 33, 82
7, 73900, Note_off_c, 1, 33, 64
7, 73920, Note_on_c, 1, 38, 72
7, 74322, Note_off_c, 1, 38, 64
7, 74322, Note_on_c, 1, 45, 82
7, 74400, Note_on_c, 1, 50, 74
7, 74432, Note_off_c, 1, 45, 64
7, 74512, Note_off_c, 1, 50, 64
7, 74560, Note_on_c, 1, 45, 100
7, 74640, Note_on_c, 1, 38, 89
7, 74658, Note_off_c, 1, 45, 64
7, 74866, Note_off_c, 1, 38, 64
7, 74880, Note_on_c, 1, 33, 82
7, 75360, Note_on_c, 1, 40, 85
7, 75378, Note_off_c, 1, 33, 64
7, 75776, Note_off_c, 1, 40, 64
7, 75776, Note_on_c, 1, 33, 82
7, 75820, Note_off_c, 1, 33, 64
7, 75840, Note_on_c, 1, 38, 78
7, 76310, Note_off_c, 1, 38, 64
7, 76320, Note_on_c, 1, 45, 82
7, 76736, Note_on_c, 1, 26, 60
7, 76750, Note_off_c, 1, 45, 64
7, 76758, Note_off_c, 1, 26, 64
7, 76800, Note_on_c, 1, 43, 76
7, 77216, Note_off_c, 1, 43, 64
7, 77216, Note_on_c, 1, 45, 78
7, 77280, Note_off_c, 1, 45, 64
7, 77280, Note_on_c, 1, 44, 82
7, 77760, Note_off_c, 1, 44, 64
7, 77760, Note_on_c, 1, 33, 82
7, 78240, Note_off_c, 1, 33, 64
7, 78240, Note_on_c, 1, 38, 85
7, 78640, Note_off_c, 1, 38, 64
7, 78640, Note_on_c, 1, 26, 55
7, 78678, Note_off_c, 1, 26, 64
7, 78720, Note_on_c, 1, 55, 83
7, 78896, Note_off_c, 1, 55, 64
7, 78896, Note_on_c, 1, 38, 32
7, 78926, Note_off_c, 1, 38, 64
7, 78960, Note_on_c, 1, 47, 76
7, 79200, Note_off_c, 1, 47, 64
7, 79200, Note_on_c, 1, 48, 82
7, 79376, Note_on_c, 1, 38, 69
7, 79386, Note_off_c, 1, 48, 64
7, 79404, Note_off_c, 1, 38, 64
7, 79440, Note_on_c, 1, 49, 87
7, 79680, Note_on_c, 1, 50, 83
7, 79690, Note_off_c, 1, 49, 64
7, 79856, Note_on_c, 1, 38, 48
7, 79890, Note_off_c, 1, 38, 64
7, 79920, Note_on_c, 1, 51, 89
7, 79930, Note_off_c, 1, 50, 64
7, 80160, Note_off_c, 1, 51, 64
7, 80160, Note_on_c, 1, 52, 79
7, 80336, Note_on_c, 1, 38, 46
7, 80366, Note_off_c, 1, 38, 64
7, 80366, Note_off_c, 1, 52, 64
7, 80400, Note_on_c, 1, 54, 70
7, 80626, Note_off_c, 1, 54, 64
7, 80640, Note_on_c, 1, 43, 77
7, 80880, Note_on_c, 1, 45, 71
7, 80908, Note_off_c, 1, 43, 64
7, 81120, Note_on_c, 1, 47, 73
7, 81142, Note_off_c, 1, 45, 64
7, 81360, Note_off_c, 1, 47, 64
7, 81360, Note_on_c, 1, 50, 74
7, 81600, Note_on_c, 1, 55, 65
7, 81622, Note_off_c, 1, 50, 64
7, 81840, Note_on_c, 1, 50, 58
7, 81852, Note_off_c, 1, 55, 64
7, 82080, Note_on_c, 1, 47, 71
7, 82098, Note_off_c, 1, 50, 64
7, 82320, Note_on_c, 1, 43, 74
7, 82322, Note_off_c, 1, 47, 64
7, 82534, Note_off_c, 1, 43, 64
7, 82560, Note_on_c, 1, 38, 71
7, 82800, Note_on_c, 1, 40, 68
7, 82840, Note_off_c, 1, 38, 64
7, 83040, Note_on_c, 1, 41, 75
7, 83058, Note_off_c, 1, 40, 64
7, 83280, Note_on_c, 1, 41, 68
7, 83292, Note_off_c, 1, 41, 64
7, 83476, Note_off_c, 1, 41, 64
7, 83520, Note_on_c, 1, 43, 69
7, 83760, Note_on_c, 1, 50, 67
7, 83804, Note_off_c, 1, 43, 64
7, 84000, Note_on_c, 1, 55, 73
7, 84018, Note_off_c, 1, 50, 64
7, 84240, Note_on_c, 1, 50, 84
7, 84250, Note_off_c, 1, 55, 64
7, 84408, Note_on_c, 1, 37, 60
7, 84422, Note_off_c, 1, 50, 64
7, 84480, Note_off_c, 1, 37, 64
7, 84480, Note_on_c, 1, 48, 83
7, 84656, Note_off_c, 1, 48, 64
7, 84656, Note_on_c, 1, 31, 32
7, 84686, Note_off_c, 1, 31, 64
7, 84720, Note_on_c, 1, 40, 76
7, 84960, Note_off_c, 1, 40, 64
7, 84960, Note_on_c, 1, 41, 82
7, 85136, Note_on_c, 1, 31, 69
7, 85146, Note_off_c, 1, 41, 64
7, 85164, Note_off_c, 1, 31, 64
7, 85200, Note_on_c, 1, 42, 87
7, 85440, Note_on_c, 1, 43, 83
7, 85450, Note_off_c, 1, 42, 64
7, 85616, Note_on_c, 1, 31, 48
7, 85650, Note_off_c, 1, 31, 64
7, 85680, Note_on_c, 1, 44, 89
7, 85690, Note_off_c, 1, 43, 64
7, 85920, Note_off_c, 1, 44, 64
7, 85920, Note_on_c, 1, 45, 79
7, 86096, Note_on_c, 1, 31, 46
7, 86126, Note_off_c, 1, 31, 64
7, 86126, Note_off_c, 1, 45, 64
7, 86160, Note_on_c, 1, 47, 70
7, 86386, Note_off_c, 1, 47, 64
7, 86400, Note_on_c, 1, 36, 78
7, 86576, Note_on_c, 1, 31, 57
7, 86584, Note_off_c, 1, 36, 64
7, 86614, Note_off_c, 1, 31, 64
7, 86640, Note_on_c, 1, 38, 76
7, 86878, Note_off_c, 1, 38, 64
7, 86880, Note_on_c, 1, 40, 83
7, 87036, Note_off_c, 1, 40, 64
7, 87056, Note_on_c, 1, 31, 61
7, 87092, Note_off_c, 1, 31, 64
7, 87120, Note_on_c, 1, 43, 85
7, 87280, Note_off_c, 1, 43, 64
7, 87296, Note_on_c, 1, 31, 54
7, 87316, Note_off_c, 1, 31, 64
7, 87360, Note_on_c, 1, 36, 78
7, 87528, Note_on_c, 1, 24, 55
7, 87576, Note_off_c, 1, 36, 64
7, 87592, Note_off_c, 1, 24, 64
7, 87600, Note_on_c, 1, 42, 78
7, 87840, Note_off_c, 1, 42, 64
7, 87840, Note_on_c, 1, 41, 67
7, 88080, Note_off_c, 1, 41, 64
7, 88080, Note_on_c, 1, 41, 74
7, 88320, Note_off_c, 1, 41, 64
7, 88320, Note_on_c, 1, 43, 69
7, 88468, Note_off_c, 1, 43, 64
7, 88496, Note_on_c, 1, 43, 81
7, 88548, Note_off_c, 1, 43, 64
7, 88560, Note_on_c, 1, 35, 62
7, 88800, Note_off_c, 1, 35, 64
7, 88800, Note_on_c, 1, 36, 69
7, 88948, Note_off_c, 1, 36, 64
7, 88976, Note_on_c, 1, 36, 81
7, 89028, Note_off_c, 1, 36, 64
7, 89040, Note_on_c, 1, 34, 62
7, 89280, Note_off_c, 1, 34, 64
7, 89280, Note_on_c, 1, 47, 71
7, 89520, Note_on_c, 1, 42, 70
7, 89550, Note_off_c, 1, 47, 64
7, 89760, Note_off_c, 1, 42, 64
7, 89760, Note_on_c, 1, 40, 73
7, 89988, Note_off_c, 1, 40, 64
7, 90000, Note_on_c, 1, 32, 67
7, 90240, Note_off_c, 1, 32, 64
7, 90240, Note_on_c, 1, 33, 85
7, 90328, Note_off_c, 1, 33, 64
7, 90418, Note_on_c, 1, 33, 73
7, 90480, Note_on_c, 1, 35, 64
7, 90522, Note_off_c, 1, 33, 64
7, 90720, Note_off_c, 1, 35, 64
7, 90720, Note_on_c, 1, 37, 75
7, 90958, Note_off_c, 1, 37, 64
7, 90960, Note_on_c, 1, 40, 67
7, 91200, Note_off_c, 1, 40, 64
7, 91200, Note_on_c, 1, 50, 73
7, 91440, Note_on_c, 1, 38, 67
7, 91478, Note_off_c, 1, 50, 64
7, 91680, Note_on_c, 1, 42, 71
7, 91698, Note_off_c, 1, 38, 64
7, 91920, Note_on_c, 1, 45, 69
7, 91936, Note_off_c, 1, 42, 64
7, 92160, Note_off_c, 1, 45, 64
7, 92160, Note_on_c, 1, 43, 89
7, 92338, Note_on_c, 1, 38, 40
7, 92346, Note_off_c, 1, 43, 64
7, 92400, Note_off_c, 1, 38, 64
7, 92400, Note_on_c, 1, 50, 72
7, 92610, Note_off_c, 1, 50, 64
7, 92640, Note_on_c, 1, 47, 80
7, 92880, Note_off_c, 1, 47, 64
7, 92880, Note_on_c, 1, 43, 82
7, 92982, Note_off_c, 1, 43, 64
7, 93058, Note_on_c, 1, 38, 60
7, 93120, Note_off_c, 1, 38, 64
7, 93120, Note_on_c, 1, 33, 72
7, 93296, Note_on_c, 1, 21, 65
7, 93302, Note_off_c, 1, 33, 64
7, 93358, Note_off_c, 1, 21, 64
7, 93360, Note_on_c, 1, 33, 74
7, 93598, Note_off_c, 1, 33, 64
7, 93600, Note_on_c, 1, 38, 84
7, 93776, Note_on_c, 1, 33, 60
7, 93816, Note_off_c, 1, 33, 64
7, 93830, Note_off_c, 1, 38, 64
7, 93840, Note_on_c, 1, 45, 77
7, 94016, Note_off_c, 1, 45, 64
7, 94016, Note_on_c, 1, 33, 62
7, 94050, Note_off_c, 1, 33, 64
7, 94080, Note_on_c, 1, 43, 80
7, 94166, Note_off_c, 1, 43, 64
7, 94256, Note_on_c, 1, 43, 82
7, 94320, Note_on_c, 1, 47, 74
7, 94350, Note_off_c, 1, 43, 64
7, 94560, Note_on_c, 1, 48, 68
7, 94564, Note_off_c, 1, 47, 64
7, 94800, Note_on_c, 1, 49, 72
7, 94834, Note_off_c, 1, 48, 64
7, 95040, Note_on_c, 1, 50, 74
7, 95062, Note_off_c, 1, 49, 64
7, 95204, Note_off_c, 1, 50, 64
7, 95280, Note_on_c, 1, 38, 72
7, 95402, Note_off_c, 1, 38, 64
7, 95456, Note_on_c, 1, 43, 93
7, 95996, Note_off_c, 1, 43, 64
7, 95996, End_track
8, 0, Start_track
8, 0, Title_t, "Accomp. / Vibes"
8, 0, Program_c, 2, 11
8, 0, Control_c, 2, 7, 65
8, 0, Control_c, 2, 121, 0
8, 0, Control_c, 2, 10, 64
8, 0, Control_c, 2, 123, 0
8, 0, Control_c, 2, 91, 40
8, 0, Control_c, 2, 93, 0
8, 0, Control_c, 2, 64, 0
8, 1920, Note_on_c, 2, 62, 60
8, 1920, Note_on_c, 2, 59, 60
8, 1920, Note_on_c, 2, 55, 60
8, 1920, Note_on_c, 2, 52, 60
8, 3840, Note_off_c, 2, 52, 64
8, 3840, Note_off_c, 2, 55, 64
8, 3840, Note_off_c, 2, 59, 64
8, 3840, Note_off_c, 2, 62, 64
8, 3840, Note_on_c, 2, 62, 60
8, 3840, Note_on_c, 2, 59, 60
8, 3840, Note_on_c, 2, 55, 60
8, 3840, Note_on_c, 2, 52, 60
8, 5760, Note_off_c, 2, 52, 64
8, 5760, Note_off_c, 2, 55, 64
8, 5760, Note_off_c, 2, 59, 64
8, 5760, Note_off_c, 2, 62, 64
8, 5760, Note_on_c, 2, 62, 60
8, 5760, Note_on_c, 2, 59, 60
8, 5760, Note_on_c, 2, 67, 60
8, 5760, Note_on_c, 2, 52, 60
8, 6720, Note_off_c, 2, 52, 64
8, 6720, Note_off_c, 2, 67, 64
8, 6720, Note_off_c, 2, 59, 64
8, 6720, Note_off_c, 2, 62, 64
8, 6720, Note_on_c, 2, 59, 60
8, 6720, Note_on_c, 2, 56, 60
8, 6720, Note_on_c, 2, 67, 60
8, 6720, Note_on_c, 2, 62, 60
8, 7680, Note_off_c, 2, 62, 64
8, 7680, Note_off_c, 2, 67, 64
8, 7680, Note_off_c, 2, 56, 64
8, 7680, Note_off_c, 2, 59, 64
8, 7680, Note_on_c, 2, 64, 60
8, 7680, Note_on_c, 2, 60, 60
8, 7680, Note_on_c, 2, 57, 60
8, 7680, Note_on_c, 2, 55, 60
8, 8640, Note_off_c, 2, 55, 64
8, 8640, Note_off_c, 2, 57, 64
8, 8640, Note_off_c, 2, 60, 64
8, 8640, Note_off_c, 2, 64, 64
8, 8640, Note_on_c, 2, 60, 60
8, 8640, Note_on_c, 2, 64, 60
8, 8640, Note_on_c, 2, 54, 60
8, 8640, Note_on_c, 2, 71, 60
8, 9120, Note_off_c, 2, 71, 64
8, 9120, Note_off_c, 2, 54, 64
8, 9120, Note_off_c, 2, 64, 64
8, 9120, Note_off_c, 2, 60, 64
8, 9120, Note_on_c, 2, 60, 60
8, 9120, Note_on_c, 2, 64, 60
8, 9120, Note_on_c, 2, 54, 60
8, 9120, Note_on_c, 2, 59, 60
8, 9360, Note_off_c, 2, 59, 64
8, 9360, Note_off_c, 2, 54, 64
8, 9360, Note_off_c, 2, 64, 64
8, 9360, Note_off_c, 2, 60, 64
8, 9360, Note_on_c, 2, 60, 60
8, 9360, Note_on_c, 2, 56, 60
8, 9360, Note_on_c, 2, 65, 60
8, 9360, Note_on_c, 2, 62, 60
8, 9600, Note_off_c, 2, 62, 64
8, 9600, Note_off_c, 2, 65, 64
8, 9600, Note_off_c, 2, 56, 64
8, 9600, Note_off_c, 2, 60, 64
8, 9600, Note_on_c, 2, 55, 60
8, 9600, Note_on_c, 2, 69, 60
8, 9600, Note_on_c, 2, 60, 60
8, 9600, Note_on_c, 2, 64, 60
8, 10470, Note_off_c, 2, 64, 64
8, 10470, Note_off_c, 2, 60, 64
8, 10470, Note_off_c, 2, 69, 64
8, 10470, Note_off_c, 2, 55, 64
8, 10490, Note_on_c, 2, 69, 60
8, 10490, Note_on_c, 2, 54, 60
8, 10490, Note_on_c, 2, 64, 60
8, 10490, Note_on_c, 2, 60, 60
8, 11430, Note_off_c, 2, 60, 64
8, 11430, Note_off_c, 2, 64, 64
8, 11430, Note_off_c, 2, 54, 64
8, 11430, Note_off_c, 2, 69, 64
8, 11450, Note_on_c, 2, 64, 60
8, 11450, Note_on_c, 2, 60, 60
8, 11450, Note_on_c, 2, 71, 60
8, 11450, Note_on_c, 2, 55, 60
8, 12476, Note_off_c, 2, 55, 64
8, 12476, Note_off_c, 2, 71, 64
8, 12476, Note_off_c, 2, 60, 64
8, 12476, Note_off_c, 2, 64, 64
8, 12720, Note_on_c, 2, 60, 44
8, 12720, Note_on_c, 2, 64, 44
8, 12720, Note_on_c, 2, 54, 44
8, 12720, Note_on_c, 2, 71, 44
8, 12852, Note_off_c, 2, 71, 64
8, 12852, Note_off_c, 2, 54, 64
8, 12852, Note_off_c, 2, 64, 64
8, 12852, Note_off_c, 2, 60, 64
8, 12888, Note_on_c, 2, 60, 46
8, 12888, Note_on_c, 2, 64, 46
8, 12888, Note_on_c, 2, 54, 46
8, 12888, Note_on_c, 2, 71, 46
8, 12960, Note_off_c, 2, 71, 64
8, 12960, Note_off_c, 2, 54, 64
8, 12960, Note_off_c, 2, 64, 64
8, 12960, Note_off_c, 2, 60, 64
8, 12960, Note_on_c, 2, 60, 52
8, 12960, Note_on_c, 2, 64, 52
8, 12960, Note_on_c, 2, 54, 52
8, 12960, Note_on_c, 2, 71, 52
8, 13070, Note_off_c, 2, 71, 64
8, 13070, Note_off_c, 2, 54, 64
8, 13070, Note_off_c, 2, 64, 64
8, 13070, Note_off_c, 2, 60, 64
8, 13128, Note_on_c, 2, 60, 61
8, 13128, Note_on_c, 2, 64, 61
8, 13128, Note_on_c, 2, 54, 61
8, 13128, Note_on_c, 2, 71, 61
8, 13200, Note_off_c, 2, 71, 64
8, 13200, Note_off_c, 2, 54, 64
8, 13200, Note_off_c, 2, 64, 64
8, 13200, Note_off_c, 2, 60, 64
8, 13200, Note_on_c, 2, 60, 72
8, 13200, Note_on_c, 2, 64, 72
8, 13200, Note_on_c, 2, 54, 72
8, 13200, Note_on_c, 2, 71, 72
8, 13318, Note_off_c, 2, 71, 64
8, 13318, Note_off_c, 2, 54, 64
8, 13318, Note_off_c, 2, 64, 64
8, 13318, Note_off_c, 2, 60, 64
8, 13440, Note_on_c, 2, 64, 60
8, 13440, Note_on_c, 2, 60, 60
8, 13440, Note_on_c, 2, 57, 60
8, 13440, Note_on_c, 2, 55, 60
8, 14400, Note_off_c, 2, 55, 64
8, 14400, Note_off_c, 2, 57, 64
8, 14400, Note_off_c, 2, 60, 64
8, 14400, Note_off_c, 2, 64, 64
8, 14400, Note_on_c, 2, 71, 60
8, 14400, Note_on_c, 2, 54, 60
8, 14400, Note_on_c, 2, 64, 60
8, 14400, Note_on_c, 2, 60, 60
8, 15360, Note_off_c, 2, 60, 64
8, 15360, Note_off_c, 2, 64, 64
8, 15360, Note_off_c, 2, 54, 64
8, 15360, Note_off_c, 2, 71, 64
8, 15360, Note_on_c, 2, 52, 60
8, 15360, Note_on_c, 2, 67, 60
8, 15360, Note_on_c, 2, 59, 60
8, 15360, Note_on_c, 2, 62, 60
8, 15840, Note_off_c, 2, 62, 64
8, 15840, Note_off_c, 2, 59, 64
8, 15840, Note_off_c, 2, 67, 64
8, 15840, Note_off_c, 2, 52, 64
8, 15840, Note_on_c, 2, 53, 60
8, 15840, Note_on_c, 2, 56, 60
8, 15840, Note_on_c, 2, 59, 60
8, 15840, Note_on_c, 2, 62, 60
8, 16230, Note_off_c, 2, 62, 64
8, 16230, Note_off_c, 2, 59, 64
8, 16230, Note_off_c, 2, 56, 64
8, 16230, Note_off_c, 2, 53, 64
8, 16250, Note_on_c, 2, 64, 60
8, 16250, Note_on_c, 2, 60, 60
8, 16250, Note_on_c, 2, 59, 60
8, 16250, Note_on_c, 2, 55, 60
8, 16796, Note_off_c, 2, 55, 64
8, 16796, Note_off_c, 2, 59, 64
8, 16796, Note_off_c, 2, 60, 64
8, 16796, Note_off_c, 2, 64, 64
8, 16800, Note_on_c, 2, 69, 60
8, 16800, Note_on_c, 2, 54, 60
8, 16800, Note_on_c, 2, 64, 60
8, 16800, Note_on_c, 2, 60, 60
8, 17280, Note_off_c, 2, 60, 64
8, 17280, Note_off_c, 2, 64, 64
8, 17280, Note_off_c, 2, 54, 64
8, 17280, Note_off_c, 2, 69, 64
8, 17280, Note_on_c, 2, 62, 60
8, 17280, Note_on_c, 2, 59, 60
8, 17280, Note_on_c, 2, 67, 60
8, 17280, Note_on_c, 2, 52, 60
8, 19200, Note_off_c, 2, 52, 64
8, 19200, Note_off_c, 2, 67, 64
8, 19200, Note_off_c, 2, 59, 64
8, 19200, Note_off_c, 2, 62, 64
8, 19200, Note_on_c, 2, 62, 60
8, 19200, Note_on_c, 2, 59, 60
8, 19200, Note_on_c, 2, 55, 60
8, 19200, Note_on_c, 2, 52, 60
8, 21030, Note_off_c, 2, 52, 64
8, 21030, Note_off_c, 2, 55, 64
8, 21030, Note_off_c, 2, 59, 64
8, 21030, Note_off_c, 2, 62, 64
8, 21050, Note_on_c, 2, 14, 14
8, 21116, Note_off_c, 2, 14, 64
8, 21452, Note_on_c, 2, 14, 62
8, 21453, Note_off_c, 2, 14, 64
8, 21858, Note_on_c, 2, 14, 75
8, 22012, Note_off_c, 2, 14, 64
8, 22080, Note_on_c, 2, 62, 60
8, 22080, Note_on_c, 2, 59, 60
8, 22080, Note_on_c, 2, 69, 60
8, 22080, Note_on_c, 2, 53, 60
8, 23040, Note_off_c, 2, 53, 64
8, 23040, Note_off_c, 2, 69, 64
8, 23040, Note_off_c, 2, 59, 64
8, 23040, Note_off_c, 2, 62, 64
8, 23040, Note_on_c, 2, 67, 60
8, 23040, Note_on_c, 2, 52, 60
8, 23040, Note_on_c, 2, 62, 60
8, 23040, Note_on_c, 2, 59, 60
8, 24870, Note_off_c, 2, 59, 64
8, 24870, Note_off_c, 2, 62, 64
8, 24870, Note_off_c, 2, 52, 64
8, 24870, Note_off_c, 2, 67, 64
8, 24890, Note_on_c, 2, 67, 60
8, 24890, Note_on_c, 2, 52, 60
8, 24890, Note_on_c, 2, 60, 60
8, 24890, Note_on_c, 2, 57, 60
8, 25830, Note_off_c, 2, 57, 64
8, 25830, Note_off_c, 2, 60, 64
8, 25830, Note_off_c, 2, 52, 64
8, 25830, Note_off_c, 2, 67, 64
8, 25850, Note_on_c, 2, 12, 12
8, 25916, Note_off_c, 2, 12, 64
8, 26248, Note_on_c, 2, 12, 62
8, 26249, Note_off_c, 2, 12, 64
8, 26400, Note_on_c, 2, 51, 60
8, 26400, Note_on_c, 2, 67, 60
8, 26400, Note_on_c, 2, 57, 60
8, 26400, Note_on_c, 2, 60, 60
8, 26790, Note_off_c, 2, 60, 64
8, 26790, Note_off_c, 2, 57, 64
8, 26790, Note_off_c, 2, 67, 64
8, 26790, Note_off_c, 2, 51, 64
8, 26810, Note_on_c, 2, 19, 19
8, 26876, Note_off_c, 2, 19, 64
8, 27206, Note_on_c, 2, 19, 62
8, 27207, Note_off_c, 2, 19, 64
8, 27360, Note_on_c, 2, 57, 54
8, 27360, Note_on_c, 2, 64, 30
8, 27360, Note_on_c, 2, 55, 36
8, 27360, Note_on_c, 2, 60, 35
8, 27360, Note_on_c, 2, 69, 69
8, 27360, Note_on_c, 2, 76, 60
8, 27500, Note_off_c, 2, 76, 64
8, 27522, Note_off_c, 2, 69, 64
8, 27536, Note_on_c, 2, 72, 60
8, 27536, Note_on_c, 2, 67, 58
8, 27840, Note_off_c, 2, 67, 64
8, 27840, Note_off_c, 2, 72, 64
8, 27840, Note_off_c, 2, 60, 64
8, 27840, Note_off_c, 2, 55, 64
8, 27840, Note_off_c, 2, 64, 64
8, 27840, Note_off_c, 2, 57, 64
8, 27840, Note_on_c, 2, 57, 60
8, 27840, Note_on_c, 2, 71, 60
8, 27840, Note_on_c, 2, 62, 60
8, 27840, Note_on_c, 2, 66, 60
8, 28320, Note_off_c, 2, 66, 64
8, 28320, Note_off_c, 2, 62, 64
8, 28320, Note_off_c, 2, 71, 64
8, 28320, Note_off_c, 2, 57, 64
8, 28320, Note_on_c, 2, 62, 60
8, 28320, Note_on_c, 2, 64, 60
8, 28320, Note_on_c, 2, 55, 60
8, 28320, Note_on_c, 2, 59, 60
8, 28710, Note_off_c, 2, 59, 64
8, 28710, Note_off_c, 2, 55, 64
8, 28710, Note_off_c, 2, 64, 64
8, 28710, Note_off_c, 2, 62, 64
8, 28730, Note_on_c, 2, 21, 21
8, 28796, Note_off_c, 2, 21, 64
8, 29120, Note_on_c, 2, 21, 60
8, 29121, Note_off_c, 2, 21, 64
8, 29512, Note_on_c, 2, 21, 72
8, 29664, Note_off_c, 2, 21, 64
8, 30172, Note_on_c, 2, 60, 60
8, 30172, Note_on_c, 2, 64, 60
8, 30172, Note_on_c, 2, 54, 60
8, 30172, Note_on_c, 2, 71, 60
8, 30630, Note_off_c, 2, 71, 64
8, 30630, Note_off_c, 2, 54, 64
8, 30630, Note_off_c, 2, 64, 64
8, 30630, Note_off_c, 2, 60, 64
8, 30650, Note_on_c, 2, 19, 19
8, 30716, Note_off_c, 2, 19, 64
8, 31058, Note_on_c, 2, 19, 60
8, 31059, Note_off_c, 2, 19, 64
8, 31468, Note_on_c, 2, 19, 72
8, 31620, Note_off_c, 2, 19, 64
8, 31680, Note_on_c, 2, 55, 60
8, 31680, Note_on_c, 2, 71, 60
8, 31680, Note_on_c, 2, 60, 60
8, 31680, Note_on_c, 2, 64, 60
8, 32160, Note_off_c, 2, 64, 64
8, 32160, Note_off_c, 2, 60, 64
8, 32160, Note_off_c, 2, 71, 64
8, 32160, Note_off_c, 2, 55, 64
8, 32160, Note_on_c, 2, 64, 35
8, 32160, Note_on_c, 2, 57, 36
8, 32160, Note_on_c, 2, 72, 69
8, 32160, Note_on_c, 2, 66, 30
8, 32160, Note_on_c, 2, 78, 60
8, 32160, Note_on_c, 2, 60, 54
8, 32300, Note_off_c, 2, 78, 64
8, 32322, Note_off_c, 2, 72, 64
8, 32336, Note_on_c, 2, 69, 58
8, 32336, Note_on_c, 2, 76, 60
8, 32550, Note_off_c, 2, 76, 64
8, 32550, Note_off_c, 2, 69, 64
8, 32550, Note_off_c, 2, 60, 64
8, 32550, Note_off_c, 2, 66, 64
8, 32550, Note_off_c, 2, 57, 64
8, 32550, Note_off_c, 2, 64, 64
8, 32570, Note_on_c, 2, 62, 60
8, 32570, Note_on_c, 2, 59, 60
8, 32570, Note_on_c, 2, 67, 60
8, 32570, Note_on_c, 2, 52, 60
8, 34556, Note_off_c, 2, 52, 64
8, 34556, Note_off_c, 2, 67, 64
8, 34556, Note_off_c, 2, 59, 64
8, 34556, Note_off_c, 2, 62, 64
8, 34560, Note_on_c, 2, 62, 60
8, 34560, Note_on_c, 2, 59, 60
8, 34560, Note_on_c, 2, 67, 60
8, 34560, Note_on_c, 2, 52, 60
8, 36480, Note_off_c, 2, 52, 64
8, 36480, Note_off_c, 2, 67, 64
8, 36480, Note_off_c, 2, 59, 64
8, 36480, Note_off_c, 2, 62, 64
8, 36480, Note_on_c, 2, 19, 19
8, 36481, Note_off_c, 2, 19, 64
8, 36816, Note_on_c, 2, 19, 64
8, 36817, Note_off_c, 2, 19, 64
8, 37224, Note_on_c, 2, 19, 76
8, 37350, Note_off_c, 2, 19, 64
8, 37370, Note_on_c, 2, 16, 16
8, 37436, Note_off_c, 2, 16, 64
8, 37776, Note_on_c, 2, 16, 64
8, 37777, Note_off_c, 2, 16, 64
8, 38184, Note_on_c, 2, 16, 76
8, 38310, Note_off_c, 2, 16, 64
8, 38330, Note_on_c, 2, 64, 60
8, 38330, Note_on_c, 2, 60, 60
8, 38330, Note_on_c, 2, 69, 60
8, 38330, Note_on_c, 2, 55, 60
8, 39356, Note_off_c, 2, 55, 64
8, 39356, Note_off_c, 2, 69, 64
8, 39356, Note_off_c, 2, 60, 64
8, 39356, Note_off_c, 2, 64, 64
8, 39360, Note_on_c, 2, 60, 60
8, 39360, Note_on_c, 2, 64, 60
8, 39360, Note_on_c, 2, 54, 60
8, 39360, Note_on_c, 2, 71, 60
8, 39840, Note_off_c, 2, 71, 64
8, 39840, Note_off_c, 2, 54, 64
8, 39840, Note_off_c, 2, 64, 64
8, 39840, Note_off_c, 2, 60, 64
8, 39840, Note_on_c, 2, 60, 60
8, 39840, Note_on_c, 2, 64, 60
8, 39840, Note_on_c, 2, 54, 60
8, 39840, Note_on_c, 2, 59, 60
8, 39990, Note_off_c, 2, 59, 64
8, 39990, Note_off_c, 2, 54, 64
8, 39990, Note_off_c, 2, 64, 64
8, 39990, Note_off_c, 2, 60, 64
8, 40010, Note_on_c, 2, 62, 60
8, 40010, Note_on_c, 2, 65, 60
8, 40010, Note_on_c, 2, 56, 60
8, 40010, Note_on_c, 2, 60, 60
8, 40230, Note_off_c, 2, 60, 64
8, 40230, Note_off_c, 2, 56, 64
8, 40230, Note_off_c, 2, 65, 64
8, 40230, Note_off_c, 2, 62, 64
8, 40250, Note_on_c, 2, 64, 60
8, 40250, Note_on_c, 2, 60, 60
8, 40250, Note_on_c, 2, 57, 60
8, 40250, Note_on_c, 2, 55, 60
8, 41190, Note_off_c, 2, 55, 64
8, 41190, Note_off_c, 2, 57, 64
8, 41190, Note_off_c, 2, 60, 64
8, 41190, Note_off_c, 2, 64, 64
8, 41692, Note_on_c, 2, 71, 60
8, 41692, Note_on_c, 2, 54, 60
8, 41692, Note_on_c, 2, 64, 60
8, 41692, Note_on_c, 2, 60, 60
8, 42240, Note_off_c, 2, 60, 64
8, 42240, Note_off_c, 2, 64, 64
8, 42240, Note_off_c, 2, 54, 64
8, 42240, Note_off_c, 2, 71, 64
8, 42240, Note_on_c, 2, 21, 21
8, 42241, Note_off_c, 2, 21, 64
8, 42582, Note_on_c, 2, 21, 64
8, 42583, Note_off_c, 2, 21, 64
8, 42986, Note_on_c, 2, 21, 76
8, 43142, Note_off_c, 2, 21, 64
8, 43212, Note_on_c, 2, 66, 58
8, 43218, Note_on_c, 2, 64, 48
8, 43218, Note_on_c, 2, 57, 48
8, 43218, Note_on_c, 2, 60, 55
8, 43452, Note_on_c, 2, 76, 85
8, 43634, Note_on_c, 2, 69, 53
8, 43640, Note_off_c, 2, 76, 64
8, 43712, Note_off_c, 2, 69, 64
8, 43864, Note_on_c, 2, 76, 90
8, 43968, Note_off_c, 2, 76, 64
8, 43968, Note_on_c, 2, 69, 49
8, 44046, Note_off_c, 2, 69, 64
8, 44070, Note_off_c, 2, 60, 64
8, 44070, Note_off_c, 2, 57, 64
8, 44070, Note_off_c, 2, 64, 64
8, 44070, Note_off_c, 2, 66, 64
8, 44090, Note_on_c, 2, 21, 21
8, 44156, Note_off_c, 2, 21, 64
8, 44502, Note_on_c, 2, 21, 64
8, 44503, Note_off_c, 2, 21, 64
8, 44916, Note_on_c, 2, 21, 76
8, 45072, Note_off_c, 2, 21, 64
8, 45120, Note_on_c, 2, 14, 14
8, 45121, Note_off_c, 2, 14, 64
8, 45440, Note_on_c, 2, 14, 64
8, 45441, Note_off_c, 2, 14, 64
8, 45832, Note_on_c, 2, 14, 76
8, 45988, Note_off_c, 2, 14, 64
8, 46010, Note_on_c, 2, 62, 60
8, 46010, Note_on_c, 2, 59, 60
8, 46010, Note_on_c, 2, 67, 60
8, 46010, Note_on_c, 2, 52, 60
8, 46470, Note_off_c, 2, 52, 64
8, 46470, Note_off_c, 2, 67, 64
8, 46470, Note_off_c, 2, 59, 64
8, 46470, Note_off_c, 2, 62, 64
8, 46490, Note_on_c, 2, 62, 35
8, 46490, Note_on_c, 2, 56, 36
8, 46490, Note_on_c, 2, 71, 69
8, 46490, Note_on_c, 2, 65, 30
8, 46490, Note_on_c, 2, 77, 60
8, 46490, Note_on_c, 2, 59, 54
8, 46696, Note_off_c, 2, 77, 64
8, 46718, Note_off_c, 2, 71, 64
8, 46736, Note_on_c, 2, 68, 58
8, 46736, Note_on_c, 2, 74, 60
8, 46950, Note_off_c, 2, 74, 64
8, 46950, Note_off_c, 2, 68, 64
8, 46950, Note_off_c, 2, 59, 64
8, 46950, Note_off_c, 2, 65, 64
8, 46950, Note_off_c, 2, 56, 64
8, 46950, Note_off_c, 2, 62, 64
8, 46970, Note_on_c, 2, 21, 21
8, 47036, Note_off_c, 2, 21, 64
8, 47376, Note_on_c, 2, 21, 62
8, 47377, Note_off_c, 2, 21, 64
8, 47520, Note_on_c, 2, 14, 14
8, 47521, Note_off_c, 2, 14, 64
8, 47838, Note_on_c, 2, 14, 62
8, 47839, Note_off_c, 2, 14, 64
8, 48000, Note_on_c, 2, 62, 60
8, 48000, Note_on_c, 2, 59, 60
8, 48000, Note_on_c, 2, 55, 60
8, 48000, Note_on_c, 2, 52, 60
8, 49830, Note_off_c, 2, 52, 64
8, 49830, Note_off_c, 2, 55, 64
8, 49830, Note_off_c, 2, 59, 64
8, 49830, Note_off_c, 2, 62, 64
8, 49850, Note_on_c, 2, 62, 60
8, 49850, Note_on_c, 2, 59, 60
8, 49850, Note_on_c, 2, 55, 60
8, 49850, Note_on_c, 2, 52, 60
8, 51836, Note_off_c, 2, 52, 64
8, 51836, Note_off_c, 2, 55, 64
8, 51836, Note_off_c, 2, 59, 64
8, 51836, Note_off_c, 2, 62, 64
8, 51840, Note_on_c, 2, 14, 14
8, 51841, Note_off_c, 2, 14, 64
8, 52174, Note_on_c, 2, 14, 62
8, 52175, Note_off_c, 2, 14, 64
8, 52580, Note_on_c, 2, 14, 74
8, 52710, Note_off_c, 2, 14, 64
8, 53212, Note_on_c, 2, 64, 60
8, 53212, Note_on_c, 2, 59, 60
8, 53212, Note_on_c, 2, 69, 60
8, 53212, Note_on_c, 2, 53, 60
8, 53760, Note_off_c, 2, 53, 64
8, 53760, Note_off_c, 2, 69, 64
8, 53760, Note_off_c, 2, 59, 64
8, 53760, Note_off_c, 2, 64, 64
8, 53760, Note_on_c, 2, 67, 60
8, 53760, Note_on_c, 2, 52, 60
8, 53760, Note_on_c, 2, 62, 60
8, 53760, Note_on_c, 2, 59, 60
8, 55590, Note_off_c, 2, 59, 64
8, 55590, Note_off_c, 2, 62, 64
8, 55590, Note_off_c, 2, 52, 64
8, 55590, Note_off_c, 2, 67, 64
8, 55610, Note_on_c, 2, 67, 60
8, 55610, Note_on_c, 2, 52, 60
8, 55610, Note_on_c, 2, 60, 60
8, 55610, Note_on_c, 2, 57, 60
8, 56550, Note_off_c, 2, 57, 64
8, 56550, Note_off_c, 2, 60, 64
8, 56550, Note_off_c, 2, 52, 64
8, 56550, Note_off_c, 2, 67, 64
8, 56570, Note_on_c, 2, 67, 60
8, 56570, Note_on_c, 2, 51, 60
8, 56570, Note_on_c, 2, 60, 60
8, 56570, Note_on_c, 2, 57, 60
8, 57030, Note_off_c, 2, 57, 64
8, 57030, Note_off_c, 2, 60, 64
8, 57030, Note_off_c, 2, 51, 64
8, 57030, Note_off_c, 2, 67, 64
8, 57050, Note_on_c, 2, 51, 60
8, 57050, Note_on_c, 2, 67, 60
8, 57050, Note_on_c, 2, 57, 60
8, 57050, Note_on_c, 2, 62, 60
8, 57510, Note_off_c, 2, 62, 64
8, 57510, Note_off_c, 2, 57, 64
8, 57510, Note_off_c, 2, 67, 64
8, 57510, Note_off_c, 2, 51, 64
8, 57530, Note_on_c, 2, 62, 60
8, 57530, Note_on_c, 2, 59, 60
8, 57530, Note_on_c, 2, 55, 60
8, 57530, Note_on_c, 2, 52, 60
8, 58076, Note_off_c, 2, 52, 64
8, 58076, Note_off_c, 2, 55, 64
8, 58076, Note_off_c, 2, 59, 64
8, 58076, Note_off_c, 2, 62, 64
8, 58080, Note_on_c, 2, 60, 35
8, 58080, Note_on_c, 2, 55, 36
8, 58080, Note_on_c, 2, 69, 69
8, 58080, Note_on_c, 2, 64, 30
8, 58080, Note_on_c, 2, 76, 60
8, 58080, Note_on_c, 2, 57, 54
8, 58220, Note_off_c, 2, 76, 64
8, 58242, Note_off_c, 2, 69, 64
8, 58256, Note_on_c, 2, 67, 58
8, 58256, Note_on_c, 2, 72, 60
8, 58470, Note_off_c, 2, 72, 64
8, 58470, Note_off_c, 2, 67, 64
8, 58470, Note_off_c, 2, 57, 64
8, 58470, Note_off_c, 2, 64, 64
8, 58470, Note_off_c, 2, 55, 64
8, 58470, Note_off_c, 2, 60, 64
8, 58490, Note_on_c, 2, 66, 60
8, 58490, Note_on_c, 2, 62, 60
8, 58490, Note_on_c, 2, 59, 60
8, 58490, Note_on_c, 2, 57, 60
8, 59036, Note_off_c, 2, 57, 64
8, 59036, Note_off_c, 2, 59, 64
8, 59036, Note_off_c, 2, 62, 64
8, 59036, Note_off_c, 2, 66, 64
8, 59040, Note_on_c, 2, 16, 16
8, 59041, Note_off_c, 2, 16, 64
8, 59364, Note_on_c, 2, 16, 60
8, 59365, Note_off_c, 2, 16, 64
8, 59520, Note_on_c, 2, 63, 60
8, 59520, Note_on_c, 2, 66, 60
8, 59520, Note_on_c, 2, 61, 60
8, 59520, Note_on_c, 2, 71, 60
8, 59520, Note_on_c, 2, 55, 60
8, 60480, Note_off_c, 2, 55, 64
8, 60480, Note_off_c, 2, 71, 64
8, 60480, Note_off_c, 2, 61, 64
8, 60480, Note_off_c, 2, 66, 64
8, 60480, Note_off_c, 2, 63, 64
8, 60892, Note_on_c, 2, 60, 60
8, 60892, Note_on_c, 2, 64, 60
8, 60892, Note_on_c, 2, 54, 60
8, 60892, Note_on_c, 2, 69, 60
8, 61350, Note_off_c, 2, 69, 64
8, 61350, Note_off_c, 2, 54, 64
8, 61350, Note_off_c, 2, 64, 64
8, 61350, Note_off_c, 2, 60, 64
8, 61370, Note_on_c, 2, 62, 60
8, 61370, Note_on_c, 2, 59, 60
8, 61370, Note_on_c, 2, 67, 60
8, 61370, Note_on_c, 2, 52, 60
8, 62310, Note_off_c, 2, 52, 64
8, 62310, Note_off_c, 2, 67, 64
8, 62310, Note_off_c, 2, 59, 64
8, 62310, Note_off_c, 2, 62, 64
8, 62330, Note_on_c, 2, 21, 21
8, 62396, Note_off_c, 2, 21, 64
8, 62810, Note_on_c, 2, 14, 14
8, 62876, Note_off_c, 2, 14, 64
8, 63196, Note_on_c, 2, 14, 60
8, 63197, Note_off_c, 2, 14, 64
8, 63360, Note_on_c, 2, 62, 60
8, 63360, Note_on_c, 2, 59, 60
8, 63360, Note_on_c, 2, 67, 60
8, 63360, Note_on_c, 2, 52, 60
8, 65280, Note_off_c, 2, 52, 64
8, 65280, Note_off_c, 2, 67, 64
8, 65280, Note_off_c, 2, 59, 64
8, 65280, Note_off_c, 2, 62, 64
8, 65280, Note_on_c, 2, 62, 60
8, 65280, Note_on_c, 2, 59, 60
8, 65280, Note_on_c, 2, 67, 60
8, 65280, Note_on_c, 2, 52, 60
8, 67200, Note_off_c, 2, 52, 64
8, 67200, Note_off_c, 2, 67, 64
8, 67200, Note_off_c, 2, 59, 64
8, 67200, Note_off_c, 2, 62, 64
8, 67200, Note_on_c, 2, 62, 60
8, 67200, Note_on_c, 2, 59, 60
8, 67200, Note_on_c, 2, 67, 60
8, 67200, Note_on_c, 2, 52, 60
8, 68160, Note_off_c, 2, 52, 64
8, 68160, Note_off_c, 2, 67, 64
8, 68160, Note_off_c, 2, 59, 64
8, 68160, Note_off_c, 2, 62, 64
8, 68160, Note_on_c, 2, 59, 60
8, 68160, Note_on_c, 2, 56, 60
8, 68160, Note_on_c, 2, 67, 60
8, 68160, Note_on_c, 2, 62, 60
8, 69120, Note_off_c, 2, 62, 64
8, 69120, Note_off_c, 2, 67, 64
8, 69120, Note_off_c, 2, 56, 64
8, 69120, Note_off_c, 2, 59, 64
8, 69120, Note_on_c, 2, 64, 60
8, 69120, Note_on_c, 2, 60, 60
8, 69120, Note_on_c, 2, 71, 60
8, 69120, Note_on_c, 2, 55, 60
8, 70080, Note_off_c, 2, 55, 64
8, 70080, Note_off_c, 2, 71, 64
8, 70080, Note_off_c, 2, 60, 64
8, 70080, Note_off_c, 2, 64, 64
8, 70080, Note_on_c, 2, 60, 60
8, 70080, Note_on_c, 2, 64, 60
8, 70080, Note_on_c, 2, 54, 60
8, 70080, Note_on_c, 2, 57, 60
8, 70560, Note_off_c, 2, 57, 64
8, 70560, Note_off_c, 2, 54, 64
8, 70560, Note_off_c, 2, 64, 64
8, 70560, Note_off_c, 2, 60, 64
8, 70560, Note_on_c, 2, 60, 60
8, 70560, Note_on_c, 2, 64, 60
8, 70560, Note_on_c, 2, 54, 60
8, 70560, Note_on_c, 2, 59, 60
8, 70800, Note_off_c, 2, 59, 64
8, 70800, Note_off_c, 2, 54, 64
8, 70800, Note_off_c, 2, 64, 64
8, 70800, Note_off_c, 2, 60, 64
8, 70800, Note_on_c, 2, 71, 60
8, 70800, Note_on_c, 2, 56, 60
8, 70800, Note_on_c, 2, 66, 60
8, 70800, Note_on_c, 2, 62, 60
8, 71040, Note_off_c, 2, 62, 64
8, 71040, Note_off_c, 2, 66, 64
8, 71040, Note_off_c, 2, 56, 64
8, 71040, Note_off_c, 2, 71, 64
8, 71040, Note_on_c, 2, 55, 60
8, 71040, Note_on_c, 2, 57, 60
8, 71040, Note_on_c, 2, 60, 60
8, 71040, Note_on_c, 2, 64, 60
8, 71910, Note_off_c, 2, 64, 64
8, 71910, Note_off_c, 2, 60, 64
8, 71910, Note_off_c, 2, 57, 64
8, 71910, Note_off_c, 2, 55, 64
8, 71930, Note_on_c, 2, 71, 60
8, 71930, Note_on_c, 2, 54, 60
8, 71930, Note_on_c, 2, 64, 60
8, 71930, Note_on_c, 2, 60, 60
8, 72956, Note_off_c, 2, 60, 64
8, 72956, Note_off_c, 2, 64, 64
8, 72956, Note_off_c, 2, 54, 64
8, 72956, Note_off_c, 2, 71, 64
8, 72960, Note_on_c, 2, 64, 60
8, 72960, Note_on_c, 2, 60, 60
8, 72960, Note_on_c, 2, 71, 60
8, 72960, Note_on_c, 2, 55, 60
8, 73920, Note_off_c, 2, 55, 64
8, 73920, Note_off_c, 2, 71, 64
8, 73920, Note_off_c, 2, 60, 64
8, 73920, Note_off_c, 2, 64, 64
8, 73920, Note_on_c, 2, 71, 60
8, 73920, Note_on_c, 2, 54, 60
8, 73920, Note_on_c, 2, 64, 60
8, 73920, Note_on_c, 2, 60, 60
8, 74880, Note_off_c, 2, 60, 64
8, 74880, Note_off_c, 2, 64, 64
8, 74880, Note_off_c, 2, 54, 64
8, 74880, Note_off_c, 2, 71, 64
8, 74880, Note_on_c, 2, 64, 60
8, 74880, Note_on_c, 2, 60, 60
8, 74880, Note_on_c, 2, 57, 60
8, 74880, Note_on_c, 2, 55, 60
8, 75840, Note_off_c, 2, 55, 64
8, 75840, Note_off_c, 2, 57, 64
8, 75840, Note_off_c, 2, 60, 64
8, 75840, Note_off_c, 2, 64, 64
8, 75840, Note_on_c, 2, 60, 60
8, 75840, Note_on_c, 2, 64, 60
8, 75840, Note_on_c, 2, 54, 60
8, 75840, Note_on_c, 2, 71, 60
8, 76710, Note_off_c, 2, 71, 64
8, 76710, Note_off_c, 2, 54, 64
8, 76710, Note_off_c, 2, 64, 64
8, 76710, Note_off_c, 2, 60, 64
8, 76730, Note_on_c, 2, 62, 60
8, 76730, Note_on_c, 2, 59, 60
8, 76730, Note_on_c, 2, 55, 60
8, 76730, Note_on_c, 2, 52, 60
8, 77276, Note_off_c, 2, 52, 64
8, 77276, Note_off_c, 2, 55, 64
8, 77276, Note_off_c, 2, 59, 64
8, 77276, Note_off_c, 2, 62, 64
8, 77280, Note_on_c, 2, 62, 60
8, 77280, Note_on_c, 2, 59, 60
8, 77280, Note_on_c, 2, 68, 60
8, 77280, Note_on_c, 2, 53, 60
8, 77760, Note_off_c, 2, 53, 64
8, 77760, Note_off_c, 2, 68, 64
8, 77760, Note_off_c, 2, 59, 64
8, 77760, Note_off_c, 2, 62, 64
8, 77760, Note_on_c, 2, 55, 60
8, 77760, Note_on_c, 2, 69, 60
8, 77760, Note_on_c, 2, 60, 60
8, 77760, Note_on_c, 2, 64, 60
8, 78240, Note_off_c, 2, 64, 64
8, 78240, Note_off_c, 2, 60, 64
8, 78240, Note_off_c, 2, 69, 64
8, 78240, Note_off_c, 2, 55, 64
8, 78246, Note_on_c, 2, 64, 42
8, 78246, Note_on_c, 2, 57, 46
8, 78246, Note_on_c, 2, 76, 65
8, 78262, Note_on_c, 2, 60, 60
8, 78272, Note_on_c, 2, 66, 38
8, 78424, Note_on_c, 2, 69, 70
8, 78630, Note_off_c, 2, 69, 64
8, 78630, Note_off_c, 2, 66, 64
8, 78630, Note_off_c, 2, 60, 64
8, 78630, Note_off_c, 2, 76, 64
8, 78630, Note_off_c, 2, 57, 64
8, 78630, Note_off_c, 2, 64, 64
8, 78650, Note_on_c, 2, 62, 60
8, 78650, Note_on_c, 2, 59, 60
8, 78650, Note_on_c, 2, 67, 60
8, 78650, Note_on_c, 2, 52, 60
8, 80636, Note_off_c, 2, 52, 64
8, 80636, Note_off_c, 2, 67, 64
8, 80636, Note_off_c, 2, 59, 64
8, 80636, Note_off_c, 2, 62, 64
8, 80640, Note_on_c, 2, 62, 60
8, 80640, Note_on_c, 2, 59, 60
8, 80640, Note_on_c, 2, 67, 60
8, 80640, Note_on_c, 2, 52, 60
8, 82560, Note_off_c, 2, 52, 64
8, 82560, Note_off_c, 2, 67, 64
8, 82560, Note_off_c, 2, 59, 64
8, 82560, Note_off_c, 2, 62, 64
8, 82560, Note_on_c, 2, 60, 60
8, 82560, Note_on_c, 2, 62, 60
8, 82560, Note_on_c, 2, 53, 60
8, 82560, Note_on_c, 2, 69, 60
8, 83430, Note_off_c, 2, 69, 64
8, 83430, Note_off_c, 2, 53, 64
8, 83430, Note_off_c, 2, 62, 64
8, 83430, Note_off_c, 2, 60, 64
8, 83450, Note_on_c, 2, 62, 60
8, 83450, Note_on_c, 2, 59, 60
8, 83450, Note_on_c, 2, 69, 60
8, 83450, Note_on_c, 2, 53, 60
8, 84476, Note_off_c, 2, 53, 64
8, 84476, Note_off_c, 2, 69, 64
8, 84476, Note_off_c, 2, 59, 64
8, 84476, Note_off_c, 2, 62, 64
8, 84480, Note_on_c, 2, 67, 60
8, 84480, Note_on_c, 2, 52, 60
8, 84480, Note_on_c, 2, 62, 60
8, 84480, Note_on_c, 2, 59, 60
8, 86310, Note_off_c, 2, 59, 64
8, 86310, Note_off_c, 2, 62, 64
8, 86310, Note_off_c, 2, 52, 64
8, 86310, Note_off_c, 2, 67, 64
8, 86330, Note_on_c, 2, 12, 12
8, 86396, Note_off_c, 2, 12, 64
8, 86736, Note_on_c, 2, 12, 64
8, 86737, Note_off_c, 2, 12, 64
8, 87144, Note_on_c, 2, 12, 76
8, 87270, Note_off_c, 2, 12, 64
8, 87290, Note_on_c, 2, 67, 60
8, 87290, Note_on_c, 2, 51, 60
8, 87290, Note_on_c, 2, 60, 60
8, 87290, Note_on_c, 2, 57, 60
8, 87836, Note_off_c, 2, 57, 64
8, 87836, Note_off_c, 2, 60, 64
8, 87836, Note_off_c, 2, 51, 64
8, 87836, Note_off_c, 2, 67, 64
8, 87840, Note_on_c, 2, 57, 54
8, 87840, Note_on_c, 2, 63, 30
8, 87840, Note_on_c, 2, 53, 36
8, 87840, Note_on_c, 2, 60, 35
8, 87840, Note_on_c, 2, 69, 69
8, 87840, Note_on_c, 2, 75, 60
8, 87980, Note_off_c, 2, 75, 64
8, 88002, Note_off_c, 2, 69, 64
8, 88016, Note_on_c, 2, 72, 60
8, 88016, Note_on_c, 2, 67, 58
8, 88320, Note_off_c, 2, 67, 64
8, 88320, Note_off_c, 2, 72, 64
8, 88320, Note_off_c, 2, 60, 64
8, 88320, Note_off_c, 2, 53, 64
8, 88320, Note_off_c, 2, 63, 64
8, 88320, Note_off_c, 2, 57, 64
8, 88320, Note_on_c, 2, 52, 60
8, 88320, Note_on_c, 2, 67, 60
8, 88320, Note_on_c, 2, 59, 60
8, 88320, Note_on_c, 2, 62, 60
8, 88800, Note_off_c, 2, 62, 64
8, 88800, Note_off_c, 2, 59, 64
8, 88800, Note_off_c, 2, 67, 64
8, 88800, Note_off_c, 2, 52, 64
8, 88800, Note_on_c, 2, 12, 12
8, 88801, Note_off_c, 2, 12, 64
8, 89128, Note_on_c, 2, 12, 60
8, 89129, Note_off_c, 2, 12, 64
8, 89280, Note_on_c, 2, 23, 23
8, 89281, Note_off_c, 2, 23, 64
8, 89604, Note_on_c, 2, 23, 60
8, 89605, Note_off_c, 2, 23, 64
8, 89936, Note_on_c, 2, 83, 55
8, 89936, Note_on_c, 2, 71, 52
8, 89936, Note_on_c, 2, 62, 50
8, 89936, Note_on_c, 2, 52, 40
8, 89936, Note_on_c, 2, 59, 38
8, 89936, Note_on_c, 2, 55, 57
8, 90150, Note_off_c, 2, 55, 64
8, 90150, Note_off_c, 2, 59, 64
8, 90150, Note_off_c, 2, 52, 64
8, 90150, Note_off_c, 2, 62, 64
8, 90150, Note_off_c, 2, 71, 64
8, 90150, Note_off_c, 2, 83, 64
8, 90170, Note_on_c, 2, 64, 60
8, 90170, Note_on_c, 2, 61, 60
8, 90170, Note_on_c, 2, 59, 60
8, 90170, Note_on_c, 2, 55, 60
8, 91196, Note_off_c, 2, 55, 64
8, 91196, Note_off_c, 2, 59, 64
8, 91196, Note_off_c, 2, 61, 64
8, 91196, Note_off_c, 2, 64, 64
8, 91200, Note_on_c, 2, 14, 14
8, 91201, Note_off_c, 2, 14, 64
8, 91512, Note_on_c, 2, 14, 59
8, 91513, Note_off_c, 2, 14, 64
8, 91902, Note_on_c, 2, 14, 71
8, 92052, Note_off_c, 2, 14, 64
8, 92160, Note_on_c, 2, 62, 60
8, 92160, Note_on_c, 2, 59, 60
8, 92160, Note_on_c, 2, 55, 60
8, 92160, Note_on_c, 2, 52, 60
8, 93120, Note_off_c, 2, 52, 64
8, 93120, Note_off_c, 2, 55, 64
8, 93120, Note_off_c, 2, 59, 64
8, 93120, Note_off_c, 2, 62, 64
8, 93120, Note_on_c, 2, 55, 60
8, 93120, Note_on_c, 2, 59, 60
8, 93120, Note_on_c, 2, 60, 60
8, 93120, Note_on_c, 2, 64, 60
8, 93600, Note_off_c, 2, 64, 64
8, 93600, Note_off_c, 2, 60, 64
8, 93600, Note_off_c, 2, 59, 64
8, 93600, Note_off_c, 2, 55, 64
8, 93600, Note_on_c, 2, 14, 14
8, 93601, Note_off_c, 2, 14, 64
8, 94010, Note_on_c, 2, 55, 57
8, 94010, Note_on_c, 2, 50, 46
8, 94010, Note_on_c, 2, 52, 76
8, 94010, Note_on_c, 2, 59, 64
8, 94320, Note_on_c, 2, 74, 81
8, 94478, Note_off_c, 2, 74, 64
8, 94496, Note_on_c, 2, 69, 57
8, 94688, Note_off_c, 2, 69, 64
8, 94736, Note_on_c, 2, 74, 75
8, 94816, Note_off_c, 2, 74, 64
8, 94816, Note_on_c, 2, 69, 51
8, 94856, Note_off_c, 2, 69, 64
8, 94884, Note_off_c, 2, 50, 64
8, 94884, Note_off_c, 2, 55, 64
8, 94896, Note_off_c, 2, 52, 64
8, 94902, Note_off_c, 2, 59, 64
8, 95040, Note_on_c, 2, 59, 69
8, 95040, Note_on_c, 2, 55, 56
8, 95040, Note_on_c, 2, 50, 53
8, 95040, Note_on_c, 2, 52, 66
8, 95040, Note_on_c, 2, 69, 66
8, 95040, Note_on_c, 2, 74, 85
8, 95098, Note_off_c, 2, 74, 64
8, 95098, Note_off_c, 2, 69, 64
8, 95098, Note_off_c, 2, 52, 64
8, 95098, Note_off_c, 2, 55, 64
8, 95102, Note_off_c, 2, 50, 64
8, 95126, Note_off_c, 2, 59, 64
8, 95456, Note_on_c, 2, 55, 51
8, 95456, Note_on_c, 2, 52, 69
8, 95456, Note_on_c, 2, 59, 54
8, 95456, Note_on_c, 2, 50, 43
8, 95456, Note_on_c, 2, 79, 75
8, 95456, Note_on_c, 2, 69, 65
8, 95456, Note_on_c, 2, 74, 73
8, 96000, Note_off_c, 2, 74, 64
8, 96000, Note_off_c, 2, 69, 64
8, 96000, Note_off_c, 2, 79, 64
8, 96000, Note_off_c, 2, 50, 64
8, 96000, Note_off_c, 2, 59, 64
8, 96000, Note_off_c, 2, 52, 64
8, 96000, Note_off_c, 2, 55, 64
8, 96000, Control_c, 2, 64, 0
8, 96000, End_track
9, 0, Start_track
9, 0, Title_t, "Melody / Accordian"
9, 0, Program_c, 3, 21
9, 0, Control_c, 3, 7, 90
9, 0, Control_c, 3, 121, 0
9, 0, Control_c, 3, 10, 64
9, 0, Control_c, 3, 123, 0
9, 0, Control_c, 3, 91, 40
9, 0, Control_c, 3, 93, 0
9, 1694, Note_on_c, 3, 62, 82
9, 1930, Note_off_c, 3, 62, 64
9, 1934, Note_on_c, 3, 67, 83
9, 2660, Note_on_c, 3, 69, 81
9, 2680, Note_off_c, 3, 67, 64
9, 2828, Note_on_c, 3, 71, 81
9, 2838, Note_off_c, 3, 69, 64
9, 3488, Note_off_c, 3, 71, 64
9, 3608, Note_on_c, 3, 66, 86
9, 3824, Note_off_c, 3, 66, 64
9, 3858, Note_on_c, 3, 64, 70
9, 4084, Note_off_c, 3, 64, 64
9, 4088, Note_on_c, 3, 66, 82
9, 4328, Note_off_c, 3, 66, 64
9, 4342, Note_on_c, 3, 64, 64
9, 4568, Note_off_c, 3, 64, 64
9, 4574, Note_on_c, 3, 66, 90
9, 4728, Note_off_c, 3, 66, 64
9, 4756, Note_on_c, 3, 64, 68
9, 5150, Note_off_c, 3, 64, 64
9, 5156, Note_on_c, 3, 62, 81
9, 5262, Note_off_c, 3, 62, 64
9, 5324, Note_on_c, 3, 62, 68
9, 5472, Note_off_c, 3, 62, 64
9, 5536, Note_on_c, 3, 62, 64
9, 5650, Note_off_c, 3, 62, 64
9, 5708, Note_on_c, 3, 62, 65
9, 6834, Note_off_c, 3, 62, 64
9, 6920, Note_on_c, 3, 64, 76
9, 7160, Note_off_c, 3, 64, 64
9, 7232, Note_on_c, 3, 64, 81
9, 7488, Note_off_c, 3, 64, 64
9, 7540, Note_on_c, 3, 64, 75
9, 7636, Note_off_c, 3, 64, 64
9, 7704, Note_on_c, 3, 64, 74
9, 8194, Note_on_c, 3, 60, 58
9, 8198, Note_off_c, 3, 64, 64
9, 8906, Note_off_c, 3, 60, 64
9, 9366, Note_on_c, 3, 64, 90
9, 9608, Note_off_c, 3, 64, 64
9, 9616, Note_on_c, 3, 69, 78
9, 10324, Note_off_c, 3, 69, 64
9, 10348, Note_on_c, 3, 71, 84
9, 10526, Note_on_c, 3, 72, 84
9, 10536, Note_off_c, 3, 71, 64
9, 11160, Note_off_c, 3, 72, 64
9, 11222, Note_on_c, 3, 67, 77
9, 11544, Note_on_c, 3, 66, 84
9, 11550, Note_off_c, 3, 67, 64
9, 11876, Note_off_c, 3, 66, 64
9, 11882, Note_on_c, 3, 67, 70
9, 12030, Note_on_c, 3, 66, 84
9, 12040, Note_off_c, 3, 67, 64
9, 12232, Note_off_c, 3, 66, 64
9, 12242, Note_on_c, 3, 67, 63
9, 12414, Note_on_c, 3, 66, 79
9, 12454, Note_off_c, 3, 67, 64
9, 12824, Note_off_c, 3, 66, 64
9, 12876, Note_on_c, 3, 64, 82
9, 12992, Note_off_c, 3, 64, 64
9, 13068, Note_on_c, 3, 64, 67
9, 13150, Note_off_c, 3, 64, 64
9, 13218, Note_on_c, 3, 64, 78
9, 13324, Note_off_c, 3, 64, 64
9, 13396, Note_on_c, 3, 64, 73
9, 14472, Note_off_c, 3, 64, 64
9, 14578, Note_on_c, 3, 66, 90
9, 14818, Note_off_c, 3, 66, 64
9, 14896, Note_on_c, 3, 66, 80
9, 15174, Note_off_c, 3, 66, 64
9, 15222, Note_on_c, 3, 66, 94
9, 15348, Note_off_c, 3, 66, 64
9, 15390, Note_on_c, 3, 64, 75
9, 15770, Note_on_c, 3, 59, 74
9, 15776, Note_off_c, 3, 64, 64
9, 16810, Note_off_c, 3, 59, 64
9, 17050, Note_on_c, 3, 62, 84
9, 17294, Note_off_c, 3, 62, 64
9, 17300, Note_on_c, 3, 67, 71
9, 18020, Note_on_c, 3, 69, 79
9, 18054, Note_off_c, 3, 67, 64
9, 18188, Note_on_c, 3, 71, 77
9, 18208, Note_off_c, 3, 69, 64
9, 18972, Note_on_c, 3, 66, 85
9, 18982, Note_off_c, 3, 71, 64
9, 19208, Note_off_c, 3, 66, 64
9, 19214, Note_on_c, 3, 64, 79
9, 19530, Note_on_c, 3, 66, 89
9, 19540, Note_off_c, 3, 64, 64
9, 19694, Note_off_c, 3, 66, 64
9, 19698, Note_on_c, 3, 64, 67
9, 19910, Note_on_c, 3, 66, 73
9, 19920, Note_off_c, 3, 64, 64
9, 20098, Note_on_c, 3, 64, 61
9, 20102, Note_off_c, 3, 66, 64
9, 20492, Note_off_c, 3, 64, 64
9, 20506, Note_on_c, 3, 62, 85
9, 20632, Note_off_c, 3, 62, 64
9, 20680, Note_on_c, 3, 62, 73
9, 20824, Note_off_c, 3, 62, 64
9, 20866, Note_on_c, 3, 62, 72
9, 20992, Note_off_c, 3, 62, 64
9, 21054, Note_on_c, 3, 62, 77
9, 22122, Note_off_c, 3, 62, 64
9, 22262, Note_on_c, 3, 67, 85
9, 22414, Note_on_c, 3, 69, 78
9, 22420, Note_off_c, 3, 67, 64
9, 22540, Note_off_c, 3, 69, 64
9, 22560, Note_on_c, 3, 71, 78
9, 22914, Note_on_c, 3, 67, 82
9, 22924, Note_off_c, 3, 71, 64
9, 23074, Note_off_c, 3, 67, 64
9, 23074, Note_on_c, 3, 71, 74
9, 23458, Note_on_c, 3, 69, 72
9, 23464, Note_off_c, 3, 71, 64
9, 24738, Note_off_c, 3, 69, 64
9, 24742, Note_on_c, 3, 64, 90
9, 24988, Note_on_c, 3, 69, 72
9, 24992, Note_off_c, 3, 64, 64
9, 25688, Note_off_c, 3, 69, 64
9, 25694, Note_on_c, 3, 71, 90
9, 25852, Note_on_c, 3, 72, 81
9, 25858, Note_off_c, 3, 71, 64
9, 26766, Note_on_c, 3, 69, 75
9, 26780, Note_off_c, 3, 72, 64
9, 26914, Note_on_c, 3, 71, 78
9, 26930, Note_off_c, 3, 69, 64
9, 27136, Note_on_c, 3, 69, 75
9, 27150, Note_off_c, 3, 71, 64
9, 27358, Note_on_c, 3, 67, 64
9, 27376, Note_off_c, 3, 69, 64
9, 27616, Note_on_c, 3, 64, 74
9, 27626, Note_off_c, 3, 67, 64
9, 27776, Note_on_c, 3, 62, 65
9, 27786, Note_off_c, 3, 64, 64
9, 28198, Note_on_c, 3, 59, 85
9, 28208, Note_off_c, 3, 62, 64
9, 28352, Note_on_c, 3, 62, 74
9, 28358, Note_off_c, 3, 59, 64
9, 28574, Note_on_c, 3, 71, 73
9, 28592, Note_off_c, 3, 62, 64
9, 28752, Note_on_c, 3, 69, 68
9, 28766, Note_off_c, 3, 71, 64
9, 29780, Note_on_c, 3, 71, 81
9, 29810, Note_off_c, 3, 69, 64
9, 30728, Note_on_c, 3, 67, 74
9, 30756, Note_off_c, 3, 71, 64
9, 32400, Note_off_c, 3, 67, 64
9, 32424, Note_on_c, 3, 62, 69
9, 32588, Note_off_c, 3, 62, 64
9, 63374, Note_on_c, 3, 67, 83
9, 64100, Note_on_c, 3, 69, 81
9, 64120, Note_off_c, 3, 67, 64
9, 64268, Note_on_c, 3, 71, 81
9, 64278, Note_off_c, 3, 69, 64
9, 64928, Note_off_c, 3, 71, 64
9, 65048, Note_on_c, 3, 66, 86
9, 65264, Note_off_c, 3, 66, 64
9, 65298, Note_on_c, 3, 64, 70
9, 65524, Note_off_c, 3, 64, 64
9, 65528, Note_on_c, 3, 66, 82
9, 65768, Note_off_c, 3, 66, 64
9, 65782, Note_on_c, 3, 64, 64
9, 66008, Note_off_c, 3, 64, 64
9, 66014, Note_on_c, 3, 66, 90
9, 66168, Note_off_c, 3, 66, 64
9, 66196, Note_on_c, 3, 64, 68
9, 66590, Note_off_c, 3, 64, 64
9, 66596, Note_on_c, 3, 62, 81
9, 66702, Note_off_c, 3, 62, 64
9, 66764, Note_on_c, 3, 62, 68
9, 66912, Note_off_c, 3, 62, 64
9, 66976, Note_on_c, 3, 62, 64
9, 67090, Note_off_c, 3, 62, 64
9, 67148, Note_on_c, 3, 62, 65
9, 68274, Note_off_c, 3, 62, 64
9, 68360, Note_on_c, 3, 64, 76
9, 68600, Note_off_c, 3, 64, 64
9, 68672, Note_on_c, 3, 64, 81
9, 68928, Note_off_c, 3, 64, 64
9, 68980, Note_on_c, 3, 64, 75
9, 69076, Note_off_c, 3, 64, 64
9, 69144, Note_on_c, 3, 64, 74
9, 69634, Note_on_c, 3, 60, 58
9, 69638, Note_off_c, 3, 64, 64
9, 70346, Note_off_c, 3, 60, 64
9, 70806, Note_on_c, 3, 64, 90
9, 71048, Note_off_c, 3, 64, 64
9, 71056, Note_on_c, 3, 69, 78
9, 71764, Note_off_c, 3, 69, 64
9, 71788, Note_on_c, 3, 71, 84
9, 71966, Note_on_c, 3, 72, 84
9, 71976, Note_off_c, 3, 71, 64
9, 72600, Note_off_c, 3, 72, 64
9, 72662, Note_on_c, 3, 67, 77
9, 72984, Note_on_c, 3, 66, 84
9, 72990, Note_off_c, 3, 67, 64
9, 73316, Note_off_c, 3, 66, 64
9, 73322, Note_on_c, 3, 67, 70
9, 73470, Note_on_c, 3, 66, 84
9, 73480, Note_off_c, 3, 67, 64
9, 73672, Note_off_c, 3, 66, 64
9, 73682, Note_on_c, 3, 67, 63
9, 73854, Note_on_c, 3, 66, 79
9, 73894, Note_off_c, 3, 67, 64
9, 74264, Note_off_c, 3, 66, 64
9, 74316, Note_on_c, 3, 64, 82
9, 74432, Note_off_c, 3, 64, 64
9, 74508, Note_on_c, 3, 64, 67
9, 74590, Note_off_c, 3, 64, 64
9, 74658, Note_on_c, 3, 64, 78
9, 74764, Note_off_c, 3, 64, 64
9, 74836, Note_on_c, 3, 64, 73
9, 75912, Note_off_c, 3, 64, 64
9, 76018, Note_on_c, 3, 66, 90
9, 76258, Note_off_c, 3, 66, 64
9, 76336, Note_on_c, 3, 66, 80
9, 76614, Note_off_c, 3, 66, 64
9, 76662, Note_on_c, 3, 66, 94
9, 76788, Note_off_c, 3, 66, 64
9, 76830, Note_on_c, 3, 64, 75
9, 77210, Note_on_c, 3, 59, 74
9, 77216, Note_off_c, 3, 64, 64
9, 78250, Note_off_c, 3, 59, 64
9, 78490, Note_on_c, 3, 62, 84
9, 78734, Note_off_c, 3, 62, 64
9, 78740, Note_on_c, 3, 67, 71
9, 79460, Note_on_c, 3, 69, 79
9, 79494, Note_off_c, 3, 67, 64
9, 79628, Note_on_c, 3, 71, 77
9, 79648, Note_off_c, 3, 69, 64
9, 80412, Note_on_c, 3, 66, 85
9, 80422, Note_off_c, 3, 71, 64
9, 80648, Note_off_c, 3, 66, 64
9, 80654, Note_on_c, 3, 64, 79
9, 80970, Note_on_c, 3, 66, 89
9, 80980, Note_off_c, 3, 64, 64
9, 81134, Note_off_c, 3, 66, 64
9, 81138, Note_on_c, 3, 64, 67
9, 81350, Note_on_c, 3, 66, 73
9, 81360, Note_off_c, 3, 64, 64
9, 81538, Note_on_c, 3, 64, 61
9, 81542, Note_off_c, 3, 66, 64
9, 81932, Note_off_c, 3, 64, 64
9, 81946, Note_on_c, 3, 62, 85
9, 82072, Note_off_c, 3, 62, 64
9, 82120, Note_on_c, 3, 62, 73
9, 82264, Note_off_c, 3, 62, 64
9, 82306, Note_on_c, 3, 62, 72
9, 82432, Note_off_c, 3, 62, 64
9, 82494, Note_on_c, 3, 62, 77
9, 83562, Note_off_c, 3, 62, 64
9, 83702, Note_on_c, 3, 67, 85
9, 83854, Note_on_c, 3, 69, 78
9, 83860, Note_off_c, 3, 67, 64
9, 83980, Note_off_c, 3, 69, 64
9, 84000, Note_on_c, 3, 71, 78
9, 84354, Note_on_c, 3, 67, 82
9, 84364, Note_off_c, 3, 71, 64
9, 84514, Note_off_c, 3, 67, 64
9, 84514, Note_on_c, 3, 71, 74
9, 84898, Note_on_c, 3, 69, 72
9, 84904, Note_off_c, 3, 71, 64
9, 86178, Note_off_c, 3, 69, 64
9, 86182, Note_on_c, 3, 64, 90
9, 86428, Note_on_c, 3, 69, 72
9, 86432, Note_off_c, 3, 64, 64
9, 87128, Note_off_c, 3, 69, 64
9, 87134, Note_on_c, 3, 71, 90
9, 87292, Note_on_c, 3, 72, 81
9, 87298, Note_off_c, 3, 71, 64
9, 88206, Note_on_c, 3, 69, 75
9, 88220, Note_off_c, 3, 72, 64
9, 88354, Note_on_c, 3, 71, 78
9, 88370, Note_off_c, 3, 69, 64
9, 88576, Note_on_c, 3, 69, 75
9, 88590, Note_off_c, 3, 71, 64
9, 88798, Note_on_c, 3, 67, 64
9, 88816, Note_off_c, 3, 69, 64
9, 89056, Note_on_c, 3, 64, 74
9, 89066, Note_off_c, 3, 67, 64
9, 89216, Note_on_c, 3, 62, 65
9, 89226, Note_off_c, 3, 64, 64
9, 89638, Note_on_c, 3, 59, 85
9, 89648, Note_off_c, 3, 62, 64
9, 89792, Note_on_c, 3, 62, 74
9, 89798, Note_off_c, 3, 59, 64
9, 90014, Note_on_c, 3, 71, 73
9, 90032, Note_off_c, 3, 62, 64
9, 90192, Note_on_c, 3, 69, 68
9, 90206, Note_off_c, 3, 71, 64
9, 91220, Note_on_c, 3, 71, 81
9, 91250, Note_off_c, 3, 69, 64
9, 92168, Note_on_c, 3, 67, 74
9, 92196, Note_off_c, 3, 71, 64
9, 93840, Note_off_c, 3, 67, 64
9, 93864, Note_on_c, 3, 62, 69
9, 94028, Note_off_c, 3, 62, 64
9, 94028, End_track
10, 0, Start_track
10, 0, Title_t, "Solo / Clarinet"
10, 0, Program_c, 4, 71
10, 0, Control_c, 4, 7, 80
10, 0, Control_c, 4, 93, 0
10, 0, Control_c, 4, 91, 40
10, 0, Control_c, 4, 121, 0
10, 0, Control_c, 4, 10, 64
10, 0, Control_c, 4, 123, 0
10, 0, Program_c, 4, 71
10, 33110, Note_on_c, 4, 81, 110
10, 33280, Note_off_c, 4, 81, 64
10, 33310, Note_on_c, 4, 78, 27
10, 33366, Note_off_c, 4, 78, 64
10, 33382, Note_on_c, 4, 79, 83
10, 33510, Note_off_c, 4, 79, 64
10, 33542, Note_on_c, 4, 76, 66
10, 33612, Note_off_c, 4, 76, 64
10, 33632, Note_on_c, 4, 78, 90
10, 33740, Note_off_c, 4, 78, 64
10, 33784, Note_on_c, 4, 74, 59
10, 33864, Note_off_c, 4, 74, 64
10, 33864, Note_on_c, 4, 76, 86
10, 33984, Note_off_c, 4, 76, 64
10, 34032, Note_on_c, 4, 72, 76
10, 34070, Note_off_c, 4, 72, 64
10, 34106, Note_on_c, 4, 74, 69
10, 34236, Note_off_c, 4, 74, 64
10, 34262, Note_on_c, 4, 71, 40
10, 34338, Note_off_c, 4, 71, 64
10, 34344, Note_on_c, 4, 72, 77
10, 34472, Note_off_c, 4, 72, 64
10, 34494, Note_on_c, 4, 69, 47
10, 34588, Note_off_c, 4, 69, 64
10, 34970, Note_on_c, 4, 66, 62
10, 35046, Note_off_c, 4, 66, 64
10, 35054, Note_on_c, 4, 67, 35
10, 35118, Note_on_c, 4, 71, 70
10, 35144, Note_off_c, 4, 67, 64
10, 35186, Note_on_c, 4, 74, 105
10, 35196, Note_off_c, 4, 71, 64
10, 35270, Note_off_c, 4, 74, 64
10, 35274, Note_on_c, 4, 72, 85
10, 35416, Note_off_c, 4, 72, 64
10, 35432, Note_on_c, 4, 70, 103
10, 35512, Note_off_c, 4, 70, 64
10, 35530, Note_on_c, 4, 71, 56
10, 35598, Note_off_c, 4, 71, 64
10, 35620, Note_on_c, 4, 74, 46
10, 35660, Note_on_c, 4, 78, 88
10, 35690, Note_off_c, 4, 74, 64
10, 35716, Note_off_c, 4, 78, 64
10, 35716, Note_on_c, 4, 81, 101
10, 35784, Note_on_c, 4, 80, 60
10, 35794, Note_off_c, 4, 81, 64
10, 35948, Note_on_c, 4, 78, 67
10, 35976, Note_off_c, 4, 80, 64
10, 36010, Note_off_c, 4, 78, 64
10, 36018, Note_on_c, 4, 79, 91
10, 36166, Note_off_c, 4, 79, 64
10, 36176, Note_on_c, 4, 74, 61
10, 36256, Note_on_c, 4, 76, 74
10, 36280, Note_off_c, 4, 74, 64
10, 36378, Note_off_c, 4, 76, 64
10, 36400, Note_on_c, 4, 78, 105
10, 36474, Note_off_c, 4, 78, 64
10, 36498, Note_on_c, 4, 79, 79
10, 36634, Note_off_c, 4, 79, 64
10, 36640, Note_on_c, 4, 81, 85
10, 36722, Note_off_c, 4, 81, 64
10, 36730, Note_on_c, 4, 83, 95
10, 36862, Note_off_c, 4, 83, 64
10, 36874, Note_on_c, 4, 84, 112
10, 36954, Note_off_c, 4, 84, 64
10, 36970, Note_on_c, 4, 83, 72
10, 37074, Note_off_c, 4, 83, 64
10, 37120, Note_on_c, 4, 79, 96
10, 37200, Note_on_c, 4, 74, 61
10, 37202, Note_off_c, 4, 79, 64
10, 37372, Note_off_c, 4, 74, 64
10, 37452, Note_on_c, 4, 76, 88
10, 37594, Note_off_c, 4, 76, 64
10, 37694, Note_on_c, 4, 77, 86
10, 37854, Note_off_c, 4, 77, 64
10, 37934, Note_on_c, 4, 76, 71
10, 38168, Note_off_c, 4, 76, 64
10, 38320, Note_on_c, 4, 71, 82
10, 38396, Note_off_c, 4, 71, 64
10, 38428, Note_on_c, 4, 74, 94
10, 38536, Note_off_c, 4, 74, 64
10, 38568, Note_on_c, 4, 72, 96
10, 38656, Note_off_c, 4, 72, 64
10, 38676, Note_on_c, 4, 71, 79
10, 38784, Note_off_c, 4, 71, 64
10, 38812, Note_on_c, 4, 69, 73
10, 38894, Note_off_c, 4, 69, 64
10, 38920, Note_on_c, 4, 67, 48
10, 39066, Note_off_c, 4, 67, 64
10, 39518, Note_on_c, 4, 66, 86
10, 39598, Note_on_c, 4, 64, 63
10, 39606, Note_off_c, 4, 66, 64
10, 39694, Note_on_c, 4, 62, 66
10, 39702, Note_off_c, 4, 64, 64
10, 39780, Note_on_c, 4, 60, 80
10, 39796, Note_off_c, 4, 62, 64
10, 39854, Note_off_c, 4, 60, 64
10, 39864, Note_on_c, 4, 57, 82
10, 39984, Note_off_c, 4, 57, 64
10, 40012, Note_on_c, 4, 59, 105
10, 40078, Note_off_c, 4, 59, 64
10, 40110, Note_on_c, 4, 56, 62
10, 40224, Note_off_c, 4, 56, 64
10, 40346, Note_on_c, 4, 57, 66
10, 40504, Note_off_c, 4, 57, 64
10, 40570, Note_on_c, 4, 64, 108
10, 40704, Note_off_c, 4, 64, 64
10, 40724, Note_on_c, 4, 57, 57
10, 40824, Note_on_c, 4, 60, 68
10, 40832, Note_off_c, 4, 57, 64
10, 40944, Note_off_c, 4, 60, 64
10, 40968, Note_on_c, 4, 64, 91
10, 41038, Note_off_c, 4, 64, 64
10, 41052, Note_on_c, 4, 67, 82
10, 41202, Note_on_c, 4, 71, 87
10, 41214, Note_off_c, 4, 67, 64
10, 41266, Note_off_c, 4, 71, 64
10, 41296, Note_on_c, 4, 74, 112
10, 41402, Note_off_c, 4, 74, 64
10, 41436, Note_on_c, 4, 73, 107
10, 41526, Note_off_c, 4, 73, 64
10, 41542, Note_on_c, 4, 72, 90
10, 41712, Note_off_c, 4, 72, 64
10, 42398, Note_on_c, 4, 69, 85
10, 42492, Note_on_c, 4, 70, 73
10, 42508, Note_off_c, 4, 69, 64
10, 42570, Note_on_c, 4, 71, 61
10, 42586, Note_off_c, 4, 70, 64
10, 42648, Note_on_c, 4, 72, 91
10, 42662, Note_off_c, 4, 71, 64
10, 42714, Note_off_c, 4, 72, 64
10, 42742, Note_on_c, 4, 72, 80
10, 42910, Note_off_c, 4, 72, 64
10, 42920, Note_on_c, 4, 75, 75
10, 42962, Note_on_c, 4, 76, 90
10, 42988, Note_off_c, 4, 75, 64
10, 43058, Note_off_c, 4, 76, 64
10, 43124, Note_on_c, 4, 76, 95
10, 43238, Note_on_c, 4, 77, 30
10, 43256, Note_off_c, 4, 76, 64
10, 43294, Note_on_c, 4, 78, 76
10, 43328, Note_off_c, 4, 77, 64
10, 43366, Note_on_c, 4, 79, 94
10, 43390, Note_off_c, 4, 78, 64
10, 43416, Note_off_c, 4, 79, 64
10, 43456, Note_on_c, 4, 79, 83
10, 43592, Note_on_c, 4, 81, 35
10, 43616, Note_off_c, 4, 79, 64
10, 43630, Note_on_c, 4, 82, 77
10, 43676, Note_on_c, 4, 83, 96
10, 43692, Note_off_c, 4, 81, 64
10, 43718, Note_off_c, 4, 82, 64
10, 43834, Note_off_c, 4, 83, 64
10, 44670, Note_on_c, 4, 81, 114
10, 44780, Note_off_c, 4, 81, 64
10, 44806, Note_on_c, 4, 82, 110
10, 44894, Note_off_c, 4, 82, 64
10, 44922, Note_on_c, 4, 81, 84
10, 45010, Note_off_c, 4, 81, 64
10, 45044, Note_on_c, 4, 79, 89
10, 45112, Note_off_c, 4, 79, 64
10, 45156, Note_on_c, 4, 77, 86
10, 45250, Note_off_c, 4, 77, 64
10, 45278, Note_on_c, 4, 74, 78
10, 45368, Note_off_c, 4, 74, 64
10, 45378, Note_on_c, 4, 73, 74
10, 45506, Note_off_c, 4, 73, 64
10, 45530, Note_on_c, 4, 72, 89
10, 45612, Note_off_c, 4, 72, 64
10, 45614, Note_on_c, 4, 70, 69
10, 45776, Note_on_c, 4, 67, 76
10, 45782, Note_off_c, 4, 70, 64
10, 45856, Note_on_c, 4, 65, 69
10, 45868, Note_off_c, 4, 67, 64
10, 46022, Note_on_c, 4, 62, 54
10, 46038, Note_off_c, 4, 65, 64
10, 46086, Note_off_c, 4, 62, 64
10, 46092, Note_on_c, 4, 57, 75
10, 46246, Note_off_c, 4, 57, 64
10, 46256, Note_on_c, 4, 55, 87
10, 46346, Note_on_c, 4, 54, 53
10, 46350, Note_off_c, 4, 55, 64
10, 46480, Note_off_c, 4, 54, 64
10, 46504, Note_on_c, 4, 55, 87
10, 46584, Note_off_c, 4, 55, 64
10, 46598, Note_on_c, 4, 56, 71
10, 46650, Note_off_c, 4, 56, 64
10, 46744, Note_on_c, 4, 65, 94
10, 46834, Note_on_c, 4, 64, 73
10, 46838, Note_off_c, 4, 65, 64
10, 46970, Note_off_c, 4, 64, 64
10, 46984, Note_on_c, 4, 59, 68
10, 47076, Note_off_c, 4, 59, 64
10, 47078, Note_on_c, 4, 62, 76
10, 47220, Note_off_c, 4, 62, 64
10, 47220, Note_on_c, 4, 59, 72
10, 47304, Note_off_c, 4, 59, 64
10, 47304, Note_on_c, 4, 60, 79
10, 47424, Note_off_c, 4, 60, 64
10, 47446, Note_on_c, 4, 64, 87
10, 47598, Note_off_c, 4, 64, 64
10, 47692, Note_on_c, 4, 67, 81
10, 47768, Note_off_c, 4, 67, 64
10, 47774, Note_on_c, 4, 71, 68
10, 47902, Note_off_c, 4, 71, 64
10, 47930, Note_on_c, 4, 70, 89
10, 48002, Note_on_c, 4, 69, 90
10, 48006, Note_off_c, 4, 70, 64
10, 48128, Note_off_c, 4, 69, 64
10, 48146, Note_on_c, 4, 68, 88
10, 48242, Note_off_c, 4, 68, 64
10, 48244, Note_on_c, 4, 67, 76
10, 48402, Note_off_c, 4, 67, 64
10, 48486, Note_on_c, 4, 66, 94
10, 48640, Note_off_c, 4, 66, 64
10, 48720, Note_on_c, 4, 69, 94
10, 48878, Note_off_c, 4, 69, 64
10, 48976, Note_on_c, 4, 62, 64
10, 49146, Note_off_c, 4, 62, 64
10, 49208, Note_on_c, 4, 66, 105
10, 49390, Note_off_c, 4, 66, 64
10, 49458, Note_on_c, 4, 59, 54
10, 49644, Note_off_c, 4, 59, 64
10, 50172, Note_on_c, 4, 62, 66
10, 50304, Note_off_c, 4, 62, 64
10, 50306, Note_on_c, 4, 64, 99
10, 50394, Note_off_c, 4, 64, 64
10, 50416, Note_on_c, 4, 66, 94
10, 50524, Note_off_c, 4, 66, 64
10, 50542, Note_on_c, 4, 67, 81
10, 50646, Note_on_c, 4, 69, 85
10, 50662, Note_off_c, 4, 67, 64
10, 50738, Note_off_c, 4, 69, 64
10, 50770, Note_on_c, 4, 71, 99
10, 50858, Note_off_c, 4, 71, 64
10, 50890, Note_on_c, 4, 69, 83
10, 50998, Note_off_c, 4, 69, 64
10, 51018, Note_on_c, 4, 67, 82
10, 51118, Note_off_c, 4, 67, 64
10, 51128, Note_on_c, 4, 66, 85
10, 51236, Note_off_c, 4, 66, 64
10, 51266, Note_on_c, 4, 64, 90
10, 51336, Note_off_c, 4, 64, 64
10, 51364, Note_on_c, 4, 62, 62
10, 51478, Note_off_c, 4, 62, 64
10, 51506, Note_on_c, 4, 60, 88
10, 51594, Note_off_c, 4, 60, 64
10, 51600, Note_on_c, 4, 59, 56
10, 51758, Note_on_c, 4, 57, 54
10, 51760, Note_off_c, 4, 59, 64
10, 51832, Note_off_c, 4, 57, 64
10, 51894, Note_on_c, 4, 62, 62
10, 52022, Note_on_c, 4, 64, 91
10, 52026, Note_off_c, 4, 62, 64
10, 52110, Note_off_c, 4, 64, 64
10, 52122, Note_on_c, 4, 65, 63
10, 52248, Note_off_c, 4, 65, 64
10, 52258, Note_on_c, 4, 67, 87
10, 52338, Note_off_c, 4, 67, 64
10, 52366, Note_on_c, 4, 69, 76
10, 52474, Note_off_c, 4, 69, 64
10, 52488, Note_on_c, 4, 71, 101
10, 52572, Note_off_c, 4, 71, 64
10, 52602, Note_on_c, 4, 72, 82
10, 52686, Note_off_c, 4, 72, 64
10, 52726, Note_on_c, 4, 74, 100
10, 52810, Note_off_c, 4, 74, 64
10, 52846, Note_on_c, 4, 75, 95
10, 52946, Note_off_c, 4, 75, 64
10, 52968, Note_on_c, 4, 71, 76
10, 53052, Note_off_c, 4, 71, 64
10, 53072, Note_on_c, 4, 70, 82
10, 53168, Note_off_c, 4, 70, 64
10, 53212, Note_on_c, 4, 68, 94
10, 53290, Note_off_c, 4, 68, 64
10, 53318, Note_on_c, 4, 67, 65
10, 53424, Note_off_c, 4, 67, 64
10, 53452, Note_on_c, 4, 66, 94
10, 53546, Note_off_c, 4, 66, 64
10, 53552, Note_on_c, 4, 65, 67
10, 53678, Note_off_c, 4, 65, 64
10, 53696, Note_on_c, 4, 63, 86
10, 53772, Note_off_c, 4, 63, 64
10, 53804, Note_on_c, 4, 64, 78
10, 53900, Note_off_c, 4, 64, 64
10, 53938, Note_on_c, 4, 67, 89
10, 54032, Note_off_c, 4, 67, 64
10, 54036, Note_on_c, 4, 61, 68
10, 54166, Note_off_c, 4, 61, 64
10, 54180, Note_on_c, 4, 59, 66
10, 54218, Note_off_c, 4, 59, 64
10, 54264, Note_on_c, 4, 60, 78
10, 54760, Note_off_c, 4, 60, 64
10, 55136, Note_on_c, 4, 71, 100
10, 55228, Note_off_c, 4, 71, 64
10, 55376, Note_on_c, 4, 67, 94
10, 55472, Note_off_c, 4, 67, 64
10, 55614, Note_on_c, 4, 64, 93
10, 55684, Note_off_c, 4, 64, 64
10, 55712, Note_on_c, 4, 60, 55
10, 55866, Note_off_c, 4, 60, 64
10, 55936, Note_on_c, 4, 62, 88
10, 56106, Note_on_c, 4, 60, 56
10, 56120, Note_off_c, 4, 62, 64
10, 56178, Note_on_c, 4, 64, 75
10, 56198, Note_off_c, 4, 60, 64
10, 56366, Note_off_c, 4, 64, 64
10, 56408, Note_on_c, 4, 67, 95
10, 56564, Note_off_c, 4, 67, 64
10, 56806, Note_on_c, 4, 70, 113
10, 56888, Note_off_c, 4, 70, 64
10, 56930, Note_on_c, 4, 71, 96
10, 57018, Note_off_c, 4, 71, 64
10, 57060, Note_on_c, 4, 68, 108
10, 57134, Note_on_c, 4, 67, 32
10, 57144, Note_off_c, 4, 68, 64
10, 57194, Note_off_c, 4, 67, 64
10, 57382, Note_on_c, 4, 67, 56
10, 57448, Note_on_c, 4, 71, 74
10, 57456, Note_off_c, 4, 67, 64
10, 57526, Note_on_c, 4, 74, 91
10, 57538, Note_off_c, 4, 71, 64
10, 57594, Note_off_c, 4, 74, 64
10, 57610, Note_on_c, 4, 71, 63
10, 57780, Note_on_c, 4, 67, 48
10, 57784, Note_off_c, 4, 71, 64
10, 57840, Note_on_c, 4, 76, 91
10, 57862, Note_off_c, 4, 67, 64
10, 58002, Note_off_c, 4, 76, 64
10, 58014, Note_on_c, 4, 71, 57
10, 58076, Note_off_c, 4, 71, 64
10, 58086, Note_on_c, 4, 74, 80
10, 58258, Note_off_c, 4, 74, 64
10, 58262, Note_on_c, 4, 71, 35
10, 58312, Note_on_c, 4, 72, 68
10, 58322, Note_off_c, 4, 71, 64
10, 58480, Note_off_c, 4, 72, 64
10, 59072, Note_on_c, 4, 79, 65
10, 59242, Note_off_c, 4, 79, 64
10, 59308, Note_on_c, 4, 83, 91
10, 59448, Note_off_c, 4, 83, 64
10, 59452, Note_on_c, 4, 82, 98
10, 59522, Note_off_c, 4, 82, 64
10, 59546, Note_on_c, 4, 85, 67
10, 59646, Note_off_c, 4, 85, 64
10, 59678, Note_on_c, 4, 82, 97
10, 59756, Note_off_c, 4, 82, 64
10, 59780, Note_on_c, 4, 81, 72
10, 59898, Note_off_c, 4, 81, 64
10, 59916, Note_on_c, 4, 80, 64
10, 60004, Note_off_c, 4, 80, 64
10, 60014, Note_on_c, 4, 79, 75
10, 60128, Note_off_c, 4, 79, 64
10, 60166, Note_on_c, 4, 83, 97
10, 60262, Note_off_c, 4, 83, 64
10, 60274, Note_on_c, 4, 78, 68
10, 60376, Note_off_c, 4, 78, 64
10, 60402, Note_on_c, 4, 76, 74
10, 60492, Note_off_c, 4, 76, 64
10, 60514, Note_on_c, 4, 74, 60
10, 60622, Note_off_c, 4, 74, 64
10, 60648, Note_on_c, 4, 73, 68
10, 60740, Note_on_c, 4, 72, 75
10, 60744, Note_off_c, 4, 73, 64
10, 60858, Note_off_c, 4, 72, 64
10, 60874, Note_on_c, 4, 76, 93
10, 60962, Note_off_c, 4, 76, 64
10, 60980, Note_on_c, 4, 71, 55
10, 61114, Note_off_c, 4, 71, 64
10, 61144, Note_on_c, 4, 69, 33
10, 61212, Note_off_c, 4, 69, 64
10, 61214, Note_on_c, 4, 72, 85
10, 61360, Note_off_c, 4, 72, 64
10, 61602, Note_on_c, 4, 74, 98
10, 61678, Note_off_c, 4, 74, 64
10, 61706, Note_on_c, 4, 76, 88
10, 61796, Note_off_c, 4, 76, 64
10, 61848, Note_on_c, 4, 79, 99
10, 61928, Note_off_c, 4, 79, 64
10, 61950, Note_on_c, 4, 78, 81
10, 62032, Note_off_c, 4, 78, 64
10, 62094, Note_on_c, 4, 74, 66
10, 62176, Note_off_c, 4, 74, 64
10, 62178, Note_on_c, 4, 76, 74
10, 62292, Note_off_c, 4, 76, 64
10, 62322, Note_on_c, 4, 79, 98
10, 62406, Note_off_c, 4, 79, 64
10, 62442, Note_on_c, 4, 78, 91
10, 62568, Note_off_c, 4, 78, 64
10, 62642, Note_on_c, 4, 74, 64
10, 62816, Note_on_c, 4, 76, 91
10, 62830, Note_off_c, 4, 74, 64
10, 62912, Note_off_c, 4, 76, 64
10, 63064, Note_on_c, 4, 74, 75
10, 63124, Note_off_c, 4, 74, 64
10, 63156, Note_on_c, 4, 76, 86
10, 63250, Note_off_c, 4, 76, 64
10, 63290, Note_on_c, 4, 79, 90
10, 63382, Note_off_c, 4, 79, 64
10, 63382, End_track
11, 0, Start_track
11, 0, Title_t, "Strings / Slow strings"
11, 0, Program_c, 5, 49
11, 0, Control_c, 5, 7, 80
11, 0, Control_c, 5, 121, 0
11, 0, Control_c, 5, 10, 64
11, 0, Control_c, 5, 123, 0
11, 0, Control_c, 5, 91, 100
11, 0, Control_c, 5, 93, 95
11, 0, Control_c, 5, 64, 0
11, 17286, Note_on_c, 5, 71, 33
11, 17288, Note_on_c, 5, 64, 33
11, 19198, Note_off_c, 5, 71, 64
11, 19200, Note_off_c, 5, 64, 64
11, 19206, Note_on_c, 5, 71, 33
11, 19208, Note_on_c, 5, 64, 33
11, 21118, Note_off_c, 5, 71, 64
11, 21120, Note_off_c, 5, 64, 64
11, 21126, Note_on_c, 5, 72, 33
11, 21128, Note_on_c, 5, 65, 33
11, 22080, Note_off_c, 5, 65, 64
11, 22080, Note_off_c, 5, 72, 64
11, 22086, Note_on_c, 5, 71, 33
11, 22088, Note_on_c, 5, 65, 33
11, 23040, Note_off_c, 5, 65, 64
11, 23040, Note_off_c, 5, 71, 64
11, 23046, Note_on_c, 5, 71, 33
11, 23048, Note_on_c, 5, 64, 33
11, 24958, Note_off_c, 5, 71, 64
11, 24960, Note_off_c, 5, 64, 64
11, 24966, Note_on_c, 5, 69, 33
11, 24968, Note_on_c, 5, 64, 33
11, 25920, Note_off_c, 5, 64, 64
11, 25920, Note_off_c, 5, 69, 64
11, 25926, Note_on_c, 5, 69, 33
11, 25928, Note_on_c, 5, 63, 33
11, 26400, Note_off_c, 5, 63, 64
11, 26400, Note_off_c, 5, 69, 64
11, 26406, Note_on_c, 5, 69, 33
11, 26408, Note_on_c, 5, 63, 33
11, 26880, Note_off_c, 5, 63, 64
11, 26880, Note_off_c, 5, 69, 64
11, 26886, Note_on_c, 5, 71, 33
11, 26888, Note_on_c, 5, 64, 33
11, 27360, Note_off_c, 5, 64, 64
11, 27360, Note_off_c, 5, 71, 64
11, 27366, Note_on_c, 5, 69, 33
11, 27368, Note_on_c, 5, 64, 33
11, 27840, Note_off_c, 5, 64, 64
11, 27840, Note_off_c, 5, 69, 64
11, 27846, Note_on_c, 5, 69, 33
11, 27848, Note_on_c, 5, 62, 33
11, 28320, Note_off_c, 5, 62, 64
11, 28320, Note_off_c, 5, 69, 64
11, 28326, Note_on_c, 5, 67, 33
11, 28328, Note_on_c, 5, 62, 33
11, 28800, Note_off_c, 5, 62, 64
11, 28800, Note_off_c, 5, 67, 64
11, 28806, Note_on_c, 5, 67, 33
11, 28808, Note_on_c, 5, 61, 33
11, 29760, Note_off_c, 5, 61, 64
11, 29760, Note_off_c, 5, 67, 64
11, 29766, Note_on_c, 5, 72, 33
11, 29768, Note_on_c, 5, 66, 33
11, 30720, Note_off_c, 5, 66, 64
11, 30720, Note_off_c, 5, 72, 64
11, 30726, Note_on_c, 5, 71, 33
11, 30728, Note_on_c, 5, 64, 33
11, 31680, Note_off_c, 5, 64, 64
11, 31680, Note_off_c, 5, 71, 64
11, 31686, Note_on_c, 5, 67, 33
11, 31688, Note_on_c, 5, 60, 33
11, 32160, Note_off_c, 5, 60, 64
11, 32160, Note_off_c, 5, 67, 64
11, 32166, Note_on_c, 5, 72, 33
11, 32168, Note_on_c, 5, 66, 33
11, 32640, Note_off_c, 5, 66, 64
11, 32640, Note_off_c, 5, 72, 64
11, 32646, Note_on_c, 5, 71, 33
11, 32648, Note_on_c, 5, 64, 33
11, 34558, Note_off_c, 5, 71, 64
11, 34560, Note_off_c, 5, 64, 64
11, 34566, Note_on_c, 5, 71, 33
11, 34568, Note_on_c, 5, 64, 33
11, 36478, Note_off_c, 5, 71, 64
11, 36480, Note_off_c, 5, 64, 64
11, 36486, Note_on_c, 5, 71, 33
11, 36488, Note_on_c, 5, 64, 33
11, 37440, Note_off_c, 5, 64, 64
11, 37440, Note_off_c, 5, 71, 64
11, 37446, Note_on_c, 5, 68, 33
11, 37448, Note_on_c, 5, 62, 33
11, 38400, Note_off_c, 5, 62, 64
11, 38400, Note_off_c, 5, 68, 64
11, 38406, Note_on_c, 5, 67, 33
11, 38408, Note_on_c, 5, 60, 33
11, 39360, Note_off_c, 5, 60, 64
11, 39360, Note_off_c, 5, 67, 64
11, 39366, Note_on_c, 5, 72, 33
11, 39368, Note_on_c, 5, 66, 33
11, 39840, Note_off_c, 5, 66, 64
11, 39840, Note_off_c, 5, 72, 64
11, 39844, Note_on_c, 5, 69, 45
11, 40080, Note_off_c, 5, 69, 64
11, 40084, Note_on_c, 5, 64, 45
11, 40320, Note_off_c, 5, 64, 64
11, 40326, Note_on_c, 5, 67, 33
11, 40328, Note_on_c, 5, 60, 33
11, 41280, Note_off_c, 5, 60, 64
11, 41280, Note_off_c, 5, 67, 64
11, 41286, Note_on_c, 5, 72, 33
11, 41288, Note_on_c, 5, 66, 33
11, 42240, Note_off_c, 5, 66, 64
11, 42240, Note_off_c, 5, 72, 64
11, 42246, Note_on_c, 5, 67, 33
11, 42248, Note_on_c, 5, 60, 33
11, 43200, Note_off_c, 5, 60, 64
11, 43200, Note_off_c, 5, 67, 64
11, 43206, Note_on_c, 5, 72, 33
11, 43208, Note_on_c, 5, 66, 33
11, 44160, Note_off_c, 5, 66, 64
11, 44160, Note_off_c, 5, 72, 64
11, 44166, Note_on_c, 5, 67, 33
11, 44168, Note_on_c, 5, 60, 33
11, 45120, Note_off_c, 5, 60, 64
11, 45120, Note_off_c, 5, 67, 64
11, 45126, Note_on_c, 5, 72, 33
11, 45128, Note_on_c, 5, 66, 33
11, 46080, Note_off_c, 5, 66, 64
11, 46080, Note_off_c, 5, 72, 64
11, 46086, Note_on_c, 5, 71, 33
11, 46088, Note_on_c, 5, 64, 33
11, 46560, Note_off_c, 5, 64, 64
11, 46560, Note_off_c, 5, 71, 64
11, 46566, Note_on_c, 5, 71, 33
11, 46568, Note_on_c, 5, 65, 33
11, 47040, Note_off_c, 5, 65, 64
11, 47040, Note_off_c, 5, 71, 64
11, 47046, Note_on_c, 5, 67, 33
11, 47048, Note_on_c, 5, 60, 33
11, 47520, Note_off_c, 5, 60, 64
11, 47520, Note_off_c, 5, 67, 64
11, 47526, Note_on_c, 5, 72, 33
11, 47528, Note_on_c, 5, 66, 33
11, 48000, Note_off_c, 5, 66, 64
11, 48000, Note_off_c, 5, 72, 64
11, 48006, Note_on_c, 5, 71, 33
11, 48008, Note_on_c, 5, 64, 33
11, 49918, Note_off_c, 5, 71, 64
11, 49920, Note_off_c, 5, 64, 64
11, 49926, Note_on_c, 5, 71, 33
11, 49928, Note_on_c, 5, 64, 33
11, 51838, Note_off_c, 5, 71, 64
11, 51840, Note_off_c, 5, 64, 64
11, 51846, Note_on_c, 5, 72, 33
11, 51848, Note_on_c, 5, 65, 33
11, 52800, Note_off_c, 5, 65, 64
11, 52800, Note_off_c, 5, 72, 64
11, 52806, Note_on_c, 5, 71, 33
11, 52808, Note_on_c, 5, 65, 33
11, 53760, Note_off_c, 5, 65, 64
11, 53760, Note_off_c, 5, 71, 64
11, 53766, Note_on_c, 5, 71, 33
11, 53768, Note_on_c, 5, 64, 33
11, 55678, Note_off_c, 5, 71, 64
11, 55680, Note_off_c, 5, 64, 64
11, 55686, Note_on_c, 5, 69, 33
11, 55688, Note_on_c, 5, 64, 33
11, 56640, Note_off_c, 5, 64, 64
11, 56640, Note_off_c, 5, 69, 64
11, 56646, Note_on_c, 5, 69, 33
11, 56648, Note_on_c, 5, 63, 33
11, 57120, Note_off_c, 5, 63, 64
11, 57120, Note_off_c, 5, 69, 64
11, 57126, Note_on_c, 5, 69, 33
11, 57128, Note_on_c, 5, 63, 33
11, 57600, Note_off_c, 5, 63, 64
11, 57600, Note_off_c, 5, 69, 64
11, 57606, Note_on_c, 5, 71, 33
11, 57608, Note_on_c, 5, 64, 33
11, 58080, Note_off_c, 5, 64, 64
11, 58080, Note_off_c, 5, 71, 64
11, 58086, Note_on_c, 5, 69, 33
11, 58088, Note_on_c, 5, 64, 33
11, 58560, Note_off_c, 5, 64, 64
11, 58560, Note_off_c, 5, 69, 64
11, 58566, Note_on_c, 5, 69, 33
11, 58568, Note_on_c, 5, 62, 33
11, 59040, Note_off_c, 5, 62, 64
11, 59040, Note_off_c, 5, 69, 64
11, 59046, Note_on_c, 5, 67, 33
11, 59048, Note_on_c, 5, 62, 33
11, 59520, Note_off_c, 5, 62, 64
11, 59520, Note_off_c, 5, 67, 64
11, 59526, Note_on_c, 5, 67, 33
11, 59528, Note_on_c, 5, 61, 33
11, 60480, Note_off_c, 5, 61, 64
11, 60480, Note_off_c, 5, 67, 64
11, 60486, Note_on_c, 5, 72, 33
11, 60488, Note_on_c, 5, 66, 33
11, 61440, Note_off_c, 5, 66, 64
11, 61440, Note_off_c, 5, 72, 64
11, 61446, Note_on_c, 5, 71, 33
11, 61448, Note_on_c, 5, 64, 33
11, 62400, Note_off_c, 5, 64, 64
11, 62400, Note_off_c, 5, 71, 64
11, 62406, Note_on_c, 5, 67, 33
11, 62408, Note_on_c, 5, 60, 33
11, 62880, Note_off_c, 5, 60, 64
11, 62880, Note_off_c, 5, 67, 64
11, 62886, Note_on_c, 5, 72, 33
11, 62888, Note_on_c, 5, 66, 33
11, 63360, Note_off_c, 5, 66, 64
11, 63360, Note_off_c, 5, 72, 64
11, 78726, Note_on_c, 5, 71, 33
11, 78728, Note_on_c, 5, 64, 33
11, 80638, Note_off_c, 5, 71, 64
11, 80640, Note_off_c, 5, 64, 64
11, 80646, Note_on_c, 5, 71, 33
11, 80648, Note_on_c, 5, 64, 33
11, 82558, Note_off_c, 5, 71, 64
11, 82560, Note_off_c, 5, 64, 64
11, 82566, Note_on_c, 5, 72, 33
11, 82568, Note_on_c, 5, 65, 33
11, 83520, Note_off_c, 5, 65, 64
11, 83520, Note_off_c, 5, 72, 64
11, 83526, Note_on_c, 5, 71, 33
11, 83528, Note_on_c, 5, 65, 33
11, 84480, Note_off_c, 5, 65, 64
11, 84480, Note_off_c, 5, 71, 64
11, 84486, Note_on_c, 5, 71, 33
11, 84488, Note_on_c, 5, 64, 33
11, 86398, Note_off_c, 5, 71, 64
11, 86400, Note_off_c, 5, 64, 64
11, 86406, Note_on_c, 5, 69, 33
11, 86408, Note_on_c, 5, 64, 33
11, 87360, Note_off_c, 5, 64, 64
11, 87360, Note_off_c, 5, 69, 64
11, 87366, Note_on_c, 5, 69, 33
11, 87368, Note_on_c, 5, 63, 33
11, 87840, Note_off_c, 5, 63, 64
11, 87840, Note_off_c, 5, 69, 64
11, 87846, Note_on_c, 5, 69, 33
11, 87848, Note_on_c, 5, 63, 33
11, 88320, Note_off_c, 5, 63, 64
11, 88320, Note_off_c, 5, 69, 64
11, 88326, Note_on_c, 5, 71, 33
11, 88328, Note_on_c, 5, 64, 33
11, 88800, Note_off_c, 5, 64, 64
11, 88800, Note_off_c, 5, 71, 64
11, 88806, Note_on_c, 5, 69, 33
11, 88808, Note_on_c, 5, 64, 33
11, 89280, Note_off_c, 5, 64, 64
11, 89280, Note_off_c, 5, 69, 64
11, 89286, Note_on_c, 5, 69, 33
11, 89288, Note_on_c, 5, 62, 33
11, 89760, Note_off_c, 5, 62, 64
11, 89760, Note_off_c, 5, 69, 64
11, 89766, Note_on_c, 5, 67, 33
11, 89768, Note_on_c, 5, 62, 33
11, 90240, Note_off_c, 5, 62, 64
11, 90240, Note_off_c, 5, 67, 64
11, 90246, Note_on_c, 5, 67, 33
11, 90248, Note_on_c, 5, 61, 33
11, 91200, Note_off_c, 5, 61, 64
11, 91200, Note_off_c, 5, 67, 64
11, 91206, Note_on_c, 5, 72, 33
11, 91208, Note_on_c, 5, 66, 33
11, 92160, Note_off_c, 5, 66, 64
11, 92160, Note_off_c, 5, 72, 64
11, 92166, Note_on_c, 5, 71, 33
11, 92168, Note_on_c, 5, 64, 33
11, 93120, Note_off_c, 5, 64, 64
11, 93120, Note_off_c, 5, 71, 64
11, 93126, Note_on_c, 5, 67, 33
11, 93128, Note_on_c, 5, 60, 33
11, 93600, Note_off_c, 5, 60, 64
11, 93600, Note_off_c, 5, 67, 64
11, 93606, Note_on_c, 5, 72, 33
11, 93608, Note_on_c, 5, 66, 33
11, 94080, Note_off_c, 5, 66, 64
11, 94080, Note_off_c, 5, 72, 64
11, 94086, Note_on_c, 5, 71, 40
11, 94088, Note_on_c, 5, 64, 40
11, 95998, Note_off_c, 5, 71, 64
11, 96000, Note_off_c, 5, 64, 64
11, 96000, Control_c, 5, 64, 0
11, 96000, End_track
12, 0, Start_track
12, 0, Title_t, "Voices / Who who's"
12, 0, Program_c, 6, 53
12, 0, Control_c, 6, 7, 85
12, 0, Control_c, 6, 121, 0
12, 0, Control_c, 6, 10, 64
12, 0, Control_c, 6, 123, 0
12, 0, Control_c, 6, 91, 40
12, 0, Control_c, 6, 93, 0
12, 0, Control_c, 6, 64, 0
12, 2160, Note_on_c, 6, 59, 73
12, 2160, Note_on_c, 6, 52, 47
12, 2214, Note_off_c, 6, 52, 64
12, 2214, Note_off_c, 6, 59, 64
12, 2640, Note_on_c, 6, 59, 70
12, 2640, Note_on_c, 6, 52, 52
12, 2698, Note_off_c, 6, 59, 64
12, 2706, Note_off_c, 6, 52, 64
12, 3120, Note_on_c, 6, 59, 76
12, 3120, Note_on_c, 6, 52, 51
12, 3178, Note_off_c, 6, 59, 64
12, 3182, Note_off_c, 6, 52, 64
12, 3600, Note_on_c, 6, 59, 67
12, 3600, Note_on_c, 6, 52, 45
12, 3658, Note_off_c, 6, 59, 64
12, 3666, Note_off_c, 6, 52, 64
12, 4080, Note_on_c, 6, 59, 73
12, 4080, Note_on_c, 6, 52, 47
12, 4134, Note_off_c, 6, 52, 64
12, 4134, Note_off_c, 6, 59, 64
12, 4560, Note_on_c, 6, 59, 70
12, 4560, Note_on_c, 6, 52, 52
12, 4618, Note_off_c, 6, 59, 64
12, 4626, Note_off_c, 6, 52, 64
12, 5040, Note_on_c, 6, 59, 76
12, 5040, Note_on_c, 6, 52, 51
12, 5098, Note_off_c, 6, 59, 64
12, 5102, Note_off_c, 6, 52, 64
12, 5520, Note_on_c, 6, 59, 67
12, 5520, Note_on_c, 6, 52, 45
12, 5578, Note_off_c, 6, 59, 64
12, 5586, Note_off_c, 6, 52, 64
12, 6000, Note_on_c, 6, 59, 73
12, 6000, Note_on_c, 6, 52, 47
12, 6062, Note_off_c, 6, 52, 64
12, 6062, Note_off_c, 6, 59, 64
12, 6480, Note_on_c, 6, 59, 70
12, 6480, Note_on_c, 6, 52, 52
12, 6546, Note_off_c, 6, 59, 64
12, 6554, Note_off_c, 6, 52, 64
12, 6960, Note_on_c, 6, 56, 73
12, 6960, Note_on_c, 6, 50, 47
12, 7022, Note_off_c, 6, 50, 64
12, 7022, Note_off_c, 6, 56, 64
12, 7440, Note_on_c, 6, 56, 70
12, 7440, Note_on_c, 6, 50, 52
12, 7506, Note_off_c, 6, 56, 64
12, 7514, Note_off_c, 6, 50, 64
12, 7920, Note_on_c, 6, 55, 73
12, 7920, Note_on_c, 6, 48, 47
12, 7982, Note_off_c, 6, 48, 64
12, 7982, Note_off_c, 6, 55, 64
12, 8400, Note_on_c, 6, 55, 70
12, 8400, Note_on_c, 6, 48, 52
12, 8466, Note_off_c, 6, 55, 64
12, 8474, Note_off_c, 6, 48, 64
12, 8880, Note_on_c, 6, 60, 73
12, 8880, Note_on_c, 6, 54, 47
12, 8942, Note_off_c, 6, 54, 64
12, 8942, Note_off_c, 6, 60, 64
12, 9360, Note_on_c, 6, 56, 65
12, 9360, Note_on_c, 6, 50, 46
12, 9410, Note_off_c, 6, 50, 64
12, 9410, Note_off_c, 6, 56, 64
12, 9840, Note_on_c, 6, 55, 73
12, 9840, Note_on_c, 6, 48, 47
12, 9902, Note_off_c, 6, 48, 64
12, 9902, Note_off_c, 6, 55, 64
12, 10320, Note_on_c, 6, 55, 70
12, 10320, Note_on_c, 6, 48, 52
12, 10386, Note_off_c, 6, 55, 64
12, 10394, Note_off_c, 6, 48, 64
12, 10800, Note_on_c, 6, 60, 73
12, 10800, Note_on_c, 6, 54, 47
12, 10862, Note_off_c, 6, 54, 64
12, 10862, Note_off_c, 6, 60, 64
12, 11280, Note_on_c, 6, 60, 70
12, 11280, Note_on_c, 6, 54, 52
12, 11346, Note_off_c, 6, 60, 64
12, 11354, Note_off_c, 6, 54, 64
12, 11760, Note_on_c, 6, 55, 73
12, 11760, Note_on_c, 6, 48, 47
12, 11822, Note_off_c, 6, 48, 64
12, 11822, Note_off_c, 6, 55, 64
12, 12240, Note_on_c, 6, 55, 70
12, 12240, Note_on_c, 6, 48, 52
12, 12306, Note_off_c, 6, 55, 64
12, 12314, Note_off_c, 6, 48, 64
12, 12720, Note_on_c, 6, 60, 73
12, 12720, Note_on_c, 6, 54, 47
12, 12782, Note_off_c, 6, 54, 64
12, 12782, Note_off_c, 6, 60, 64
12, 13200, Note_on_c, 6, 60, 70
12, 13200, Note_on_c, 6, 54, 52
12, 13266, Note_off_c, 6, 60, 64
12, 13274, Note_off_c, 6, 54, 64
12, 13680, Note_on_c, 6, 55, 73
12, 13680, Note_on_c, 6, 48, 47
12, 13742, Note_off_c, 6, 48, 64
12, 13742, Note_off_c, 6, 55, 64
12, 14160, Note_on_c, 6, 55, 70
12, 14160, Note_on_c, 6, 48, 52
12, 14226, Note_off_c, 6, 55, 64
12, 14234, Note_off_c, 6, 48, 64
12, 14640, Note_on_c, 6, 60, 73
12, 14640, Note_on_c, 6, 54, 47
12, 14702, Note_off_c, 6, 54, 64
12, 14702, Note_off_c, 6, 60, 64
12, 15120, Note_on_c, 6, 60, 70
12, 15120, Note_on_c, 6, 54, 52
12, 15186, Note_off_c, 6, 60, 64
12, 15194, Note_off_c, 6, 54, 64
12, 15600, Note_on_c, 6, 59, 73
12, 15600, Note_on_c, 6, 52, 47
12, 15662, Note_off_c, 6, 52, 64
12, 15662, Note_off_c, 6, 59, 64
12, 16080, Note_on_c, 6, 59, 73
12, 16080, Note_on_c, 6, 53, 47
12, 16142, Note_off_c, 6, 53, 64
12, 16142, Note_off_c, 6, 59, 64
12, 16560, Note_on_c, 6, 55, 68
12, 16616, Note_off_c, 6, 55, 64
12, 17040, Note_on_c, 6, 60, 68
12, 17096, Note_off_c, 6, 60, 64
12, 17280, Note_on_c, 6, 59, 48
12, 17280, Note_on_c, 6, 52, 41
12, 17516, Note_off_c, 6, 59, 64
12, 17520, Note_off_c, 6, 52, 64
12, 17520, Note_on_c, 6, 59, 79
12, 17520, Note_on_c, 6, 52, 57
12, 17602, Note_off_c, 6, 52, 64
12, 17602, Note_off_c, 6, 59, 64
12, 17760, Note_on_c, 6, 59, 30
12, 17760, Note_on_c, 6, 52, 25
12, 17984, Note_off_c, 6, 52, 64
12, 17984, Note_off_c, 6, 59, 64
12, 18000, Note_on_c, 6, 59, 86
12, 18000, Note_on_c, 6, 52, 52
12, 18094, Note_off_c, 6, 52, 64
12, 18094, Note_off_c, 6, 59, 64
12, 18240, Note_on_c, 6, 59, 48
12, 18240, Note_on_c, 6, 52, 37
12, 18452, Note_off_c, 6, 52, 64
12, 18452, Note_off_c, 6, 59, 64
12, 18480, Note_on_c, 6, 59, 78
12, 18480, Note_on_c, 6, 52, 48
12, 18580, Note_off_c, 6, 52, 64
12, 18580, Note_off_c, 6, 59, 64
12, 18720, Note_on_c, 6, 59, 33
12, 18720, Note_on_c, 6, 52, 27
12, 18922, Note_off_c, 6, 52, 64
12, 18922, Note_off_c, 6, 59, 64
12, 18960, Note_on_c, 6, 59, 75
12, 18960, Note_on_c, 6, 52, 44
12, 19066, Note_off_c, 6, 52, 64
12, 19070, Note_off_c, 6, 59, 64
12, 19200, Note_on_c, 6, 52, 52
12, 19200, Note_on_c, 6, 59, 64
12, 19406, Note_off_c, 6, 59, 64
12, 19418, Note_off_c, 6, 52, 64
12, 19440, Note_on_c, 6, 59, 63
12, 19440, Note_on_c, 6, 52, 46
12, 19466, Note_off_c, 6, 52, 64
12, 19482, Note_off_c, 6, 59, 64
12, 19680, Note_on_c, 6, 52, 30
12, 19680, Note_on_c, 6, 59, 43
12, 19894, Note_off_c, 6, 59, 64
12, 19894, Note_off_c, 6, 52, 64
12, 19920, Note_on_c, 6, 59, 66
12, 19920, Note_on_c, 6, 52, 32
12, 19960, Note_off_c, 6, 52, 64
12, 19960, Note_off_c, 6, 59, 64
12, 20160, Note_on_c, 6, 59, 57
12, 20160, Note_on_c, 6, 52, 31
12, 20362, Note_off_c, 6, 59, 64
12, 20400, Note_on_c, 6, 59, 83
12, 20438, Note_off_c, 6, 52, 64
12, 20446, Note_off_c, 6, 59, 64
12, 20640, Note_on_c, 6, 59, 55
12, 20640, Note_on_c, 6, 52, 45
12, 20860, Note_off_c, 6, 52, 64
12, 20860, Note_off_c, 6, 59, 64
12, 20880, Note_on_c, 6, 59, 75
12, 20880, Note_on_c, 6, 52, 50
12, 20922, Note_off_c, 6, 52, 64
12, 20922, Note_off_c, 6, 59, 64
12, 21360, Note_on_c, 6, 60, 73
12, 21360, Note_on_c, 6, 53, 47
12, 21418, Note_off_c, 6, 53, 64
12, 21418, Note_off_c, 6, 60, 64
12, 21840, Note_on_c, 6, 60, 70
12, 21840, Note_on_c, 6, 53, 52
12, 21902, Note_off_c, 6, 60, 64
12, 21910, Note_off_c, 6, 53, 64
12, 22320, Note_on_c, 6, 59, 73
12, 22320, Note_on_c, 6, 53, 47
12, 22378, Note_off_c, 6, 53, 64
12, 22378, Note_off_c, 6, 59, 64
12, 22800, Note_on_c, 6, 59, 70
12, 22800, Note_on_c, 6, 53, 52
12, 22862, Note_off_c, 6, 59, 64
12, 22870, Note_off_c, 6, 53, 64
12, 23280, Note_on_c, 6, 59, 75
12, 23280, Note_on_c, 6, 52, 56
12, 23350, Note_off_c, 6, 52, 64
12, 23350, Note_off_c, 6, 59, 64
12, 23520, Note_on_c, 6, 59, 26
12, 23520, Note_on_c, 6, 52, 30
12, 23730, Note_off_c, 6, 52, 64
12, 23730, Note_off_c, 6, 59, 64
12, 23760, Note_on_c, 6, 59, 71
12, 23760, Note_on_c, 6, 52, 46
12, 23834, Note_off_c, 6, 52, 64
12, 23834, Note_off_c, 6, 59, 64
12, 24960, Note_on_c, 6, 57, 48
12, 24960, Note_on_c, 6, 52, 41
12, 25196, Note_off_c, 6, 57, 64
12, 25200, Note_off_c, 6, 52, 64
12, 25200, Note_on_c, 6, 57, 79
12, 25200, Note_on_c, 6, 52, 57
12, 25282, Note_off_c, 6, 52, 64
12, 25282, Note_off_c, 6, 57, 64
12, 25440, Note_on_c, 6, 57, 30
12, 25440, Note_on_c, 6, 52, 25
12, 25664, Note_off_c, 6, 52, 64
12, 25664, Note_off_c, 6, 57, 64
12, 25680, Note_on_c, 6, 57, 86
12, 25680, Note_on_c, 6, 52, 52
12, 25774, Note_off_c, 6, 52, 64
12, 25774, Note_off_c, 6, 57, 64
12, 25920, Note_on_c, 6, 57, 48
12, 25920, Note_on_c, 6, 51, 41
12, 26116, Note_off_c, 6, 57, 64
12, 26122, Note_off_c, 6, 51, 64
12, 26160, Note_on_c, 6, 57, 79
12, 26160, Note_on_c, 6, 51, 57
12, 26202, Note_off_c, 6, 51, 64
12, 26202, Note_off_c, 6, 57, 64
12, 26400, Note_on_c, 6, 57, 48
12, 26400, Note_on_c, 6, 51, 41
12, 26596, Note_off_c, 6, 57, 64
12, 26602, Note_off_c, 6, 51, 64
12, 26640, Note_on_c, 6, 57, 79
12, 26640, Note_on_c, 6, 51, 57
12, 26682, Note_off_c, 6, 51, 64
12, 26682, Note_off_c, 6, 57, 64
12, 26880, Note_on_c, 6, 59, 48
12, 26880, Note_on_c, 6, 52, 41
12, 27076, Note_off_c, 6, 59, 64
12, 27082, Note_off_c, 6, 52, 64
12, 27120, Note_on_c, 6, 59, 79
12, 27120, Note_on_c, 6, 52, 57
12, 27162, Note_off_c, 6, 52, 64
12, 27162, Note_off_c, 6, 59, 64
12, 27360, Note_on_c, 6, 57, 48
12, 27360, Note_on_c, 6, 52, 41
12, 27556, Note_off_c, 6, 57, 64
12, 27562, Note_off_c, 6, 52, 64
12, 27600, Note_on_c, 6, 57, 79
12, 27600, Note_on_c, 6, 52, 57
12, 27642, Note_off_c, 6, 52, 64
12, 27642, Note_off_c, 6, 57, 64
12, 27840, Note_on_c, 6, 57, 48
12, 27840, Note_on_c, 6, 50, 41
12, 28036, Note_off_c, 6, 57, 64
12, 28042, Note_off_c, 6, 50, 64
12, 28080, Note_on_c, 6, 57, 79
12, 28080, Note_on_c, 6, 50, 57
12, 28122, Note_off_c, 6, 50, 64
12, 28122, Note_off_c, 6, 57, 64
12, 28320, Note_on_c, 6, 55, 54
12, 28320, Note_on_c, 6, 50, 39
12, 28438, Note_off_c, 6, 55, 64
12, 28454, Note_off_c, 6, 50, 64
12, 28560, Note_on_c, 6, 55, 78
12, 28560, Note_on_c, 6, 50, 51
12, 28624, Note_off_c, 6, 55, 64
12, 28636, Note_off_c, 6, 50, 64
12, 28800, Note_on_c, 6, 55, 48
12, 28800, Note_on_c, 6, 49, 41
12, 29036, Note_off_c, 6, 55, 64
12, 29040, Note_off_c, 6, 49, 64
12, 29040, Note_on_c, 6, 55, 79
12, 29040, Note_on_c, 6, 49, 57
12, 29122, Note_off_c, 6, 49, 64
12, 29122, Note_off_c, 6, 55, 64
12, 29280, Note_on_c, 6, 55, 30
12, 29280, Note_on_c, 6, 49, 25
12, 29504, Note_off_c, 6, 49, 64
12, 29504, Note_off_c, 6, 55, 64
12, 29520, Note_on_c, 6, 55, 86
12, 29520, Note_on_c, 6, 49, 52
12, 29614, Note_off_c, 6, 49, 64
12, 29614, Note_off_c, 6, 55, 64
12, 29760, Note_on_c, 6, 54, 48
12, 29760, Note_on_c, 6, 60, 60
12, 29966, Note_off_c, 6, 60, 64
12, 29978, Note_off_c, 6, 54, 64
12, 30000, Note_on_c, 6, 60, 59
12, 30000, Note_on_c, 6, 54, 42
12, 30026, Note_off_c, 6, 54, 64
12, 30042, Note_off_c, 6, 60, 64
12, 30240, Note_on_c, 6, 54, 26
12, 30240, Note_on_c, 6, 60, 39
12, 30454, Note_off_c, 6, 60, 64
12, 30454, Note_off_c, 6, 54, 64
12, 30480, Note_on_c, 6, 60, 62
12, 30480, Note_on_c, 6, 54, 28
12, 30520, Note_off_c, 6, 54, 64
12, 30520, Note_off_c, 6, 60, 64
12, 30720, Note_on_c, 6, 59, 48
12, 30720, Note_on_c, 6, 52, 41
12, 30956, Note_off_c, 6, 59, 64
12, 30960, Note_off_c, 6, 52, 64
12, 30960, Note_on_c, 6, 59, 79
12, 30960, Note_on_c, 6, 52, 57
12, 31042, Note_off_c, 6, 52, 64
12, 31042, Note_off_c, 6, 59, 64
12, 31200, Note_on_c, 6, 59, 30
12, 31200, Note_on_c, 6, 52, 25
12, 31424, Note_off_c, 6, 52, 64
12, 31424, Note_off_c, 6, 59, 64
12, 31440, Note_on_c, 6, 59, 86
12, 31440, Note_on_c, 6, 52, 52
12, 31534, Note_off_c, 6, 52, 64
12, 31534, Note_off_c, 6, 59, 64
12, 31680, Note_on_c, 6, 48, 52
12, 31680, Note_on_c, 6, 55, 64
12, 31906, Note_off_c, 6, 55, 64
12, 31918, Note_off_c, 6, 48, 64
12, 31920, Note_on_c, 6, 55, 63
12, 31920, Note_on_c, 6, 48, 46
12, 31966, Note_off_c, 6, 48, 64
12, 31982, Note_off_c, 6, 55, 64
12, 32160, Note_on_c, 6, 60, 48
12, 32160, Note_on_c, 6, 54, 41
12, 32356, Note_off_c, 6, 60, 64
12, 32362, Note_off_c, 6, 54, 64
12, 32400, Note_on_c, 6, 60, 79
12, 32400, Note_on_c, 6, 54, 57
12, 32442, Note_off_c, 6, 54, 64
12, 32442, Note_off_c, 6, 60, 64
12, 32640, Note_on_c, 6, 52, 52
12, 32640, Note_on_c, 6, 59, 64
12, 32846, Note_off_c, 6, 59, 64
12, 32858, Note_off_c, 6, 52, 64
12, 32880, Note_on_c, 6, 59, 63
12, 32880, Note_on_c, 6, 52, 46
12, 32906, Note_off_c, 6, 52, 64
12, 32922, Note_off_c, 6, 59, 64
12, 33120, Note_on_c, 6, 52, 30
12, 33120, Note_on_c, 6, 59, 43
12, 33334, Note_off_c, 6, 59, 64
12, 33334, Note_off_c, 6, 52, 64
12, 33360, Note_on_c, 6, 59, 66
12, 33360, Note_on_c, 6, 52, 32
12, 33400, Note_off_c, 6, 52, 64
12, 33400, Note_off_c, 6, 59, 64
12, 33600, Note_on_c, 6, 59, 57
12, 33600, Note_on_c, 6, 52, 31
12, 33802, Note_off_c, 6, 59, 64
12, 33840, Note_on_c, 6, 59, 83
12, 33878, Note_off_c, 6, 52, 64
12, 33886, Note_off_c, 6, 59, 64
12, 34080, Note_on_c, 6, 59, 55
12, 34080, Note_on_c, 6, 52, 45
12, 34300, Note_off_c, 6, 52, 64
12, 34300, Note_off_c, 6, 59, 64
12, 34320, Note_on_c, 6, 59, 75
12, 34320, Note_on_c, 6, 52, 50
12, 34362, Note_off_c, 6, 52, 64
12, 34362, Note_off_c, 6, 59, 64
12, 34560, Note_on_c, 6, 52, 52
12, 34560, Note_on_c, 6, 59, 64
12, 34766, Note_off_c, 6, 59, 64
12, 34778, Note_off_c, 6, 52, 64
12, 34800, Note_on_c, 6, 59, 63
12, 34800, Note_on_c, 6, 52, 46
12, 34826, Note_off_c, 6, 52, 64
12, 34842, Note_off_c, 6, 59, 64
12, 35040, Note_on_c, 6, 52, 30
12, 35040, Note_on_c, 6, 59, 43
12, 35254, Note_off_c, 6, 59, 64
12, 35254, Note_off_c, 6, 52, 64
12, 35280, Note_on_c, 6, 59, 66
12, 35280, Note_on_c, 6, 52, 32
12, 35320, Note_off_c, 6, 52, 64
12, 35320, Note_off_c, 6, 59, 64
12, 35520, Note_on_c, 6, 59, 57
12, 35520, Note_on_c, 6, 52, 31
12, 35722, Note_off_c, 6, 59, 64
12, 35760, Note_on_c, 6, 59, 83
12, 35798, Note_off_c, 6, 52, 64
12, 35806, Note_off_c, 6, 59, 64
12, 36000, Note_on_c, 6, 59, 55
12, 36000, Note_on_c, 6, 52, 45
12, 36220, Note_off_c, 6, 52, 64
12, 36220, Note_off_c, 6, 59, 64
12, 36240, Note_on_c, 6, 59, 75
12, 36240, Note_on_c, 6, 52, 50
12, 36282, Note_off_c, 6, 52, 64
12, 36282, Note_off_c, 6, 59, 64
12, 36480, Note_on_c, 6, 52, 48
12, 36480, Note_on_c, 6, 59, 60
12, 36686, Note_off_c, 6, 59, 64
12, 36698, Note_off_c, 6, 52, 64
12, 36720, Note_on_c, 6, 59, 59
12, 36720, Note_on_c, 6, 52, 42
12, 36746, Note_off_c, 6, 52, 64
12, 36762, Note_off_c, 6, 59, 64
12, 36960, Note_on_c, 6, 52, 26
12, 36960, Note_on_c, 6, 59, 39
12, 37174, Note_off_c, 6, 59, 64
12, 37174, Note_off_c, 6, 52, 64
12, 37200, Note_on_c, 6, 59, 62
12, 37200, Note_on_c, 6, 52, 28
12, 37240, Note_off_c, 6, 52, 64
12, 37240, Note_off_c, 6, 59, 64
12, 37680, Note_on_c, 6, 56, 73
12, 37680, Note_on_c, 6, 50, 47
12, 37738, Note_off_c, 6, 50, 64
12, 37738, Note_off_c, 6, 56, 64
12, 38160, Note_on_c, 6, 56, 70
12, 38160, Note_on_c, 6, 50, 52
12, 38222, Note_off_c, 6, 56, 64
12, 38230, Note_off_c, 6, 50, 64
12, 38400, Note_on_c, 6, 55, 48
12, 38400, Note_on_c, 6, 48, 41
12, 38636, Note_off_c, 6, 55, 64
12, 38640, Note_off_c, 6, 48, 64
12, 38640, Note_on_c, 6, 55, 79
12, 38640, Note_on_c, 6, 48, 57
12, 38722, Note_off_c, 6, 48, 64
12, 38722, Note_off_c, 6, 55, 64
12, 38880, Note_on_c, 6, 55, 30
12, 38880, Note_on_c, 6, 48, 25
12, 39104, Note_off_c, 6, 48, 64
12, 39104, Note_off_c, 6, 55, 64
12, 39120, Note_on_c, 6, 55, 86
12, 39120, Note_on_c, 6, 48, 52
12, 39214, Note_off_c, 6, 48, 64
12, 39214, Note_off_c, 6, 55, 64
12, 39360, Note_on_c, 6, 54, 52
12, 39360, Note_on_c, 6, 60, 64
12, 39586, Note_off_c, 6, 60, 64
12, 39598, Note_off_c, 6, 54, 64
12, 39600, Note_on_c, 6, 60, 63
12, 39600, Note_on_c, 6, 54, 46
12, 39646, Note_off_c, 6, 54, 64
12, 39662, Note_off_c, 6, 60, 64
12, 39840, Note_on_c, 6, 60, 51
12, 39840, Note_on_c, 6, 54, 30
12, 40080, Note_off_c, 6, 54, 64
12, 40080, Note_off_c, 6, 60, 64
12, 40080, Note_on_c, 6, 56, 65
12, 40080, Note_on_c, 6, 50, 46
12, 40130, Note_off_c, 6, 50, 64
12, 40130, Note_off_c, 6, 56, 64
12, 40320, Note_on_c, 6, 55, 54
12, 40320, Note_on_c, 6, 48, 39
12, 40438, Note_off_c, 6, 55, 64
12, 40454, Note_off_c, 6, 48, 64
12, 40560, Note_on_c, 6, 55, 78
12, 40560, Note_on_c, 6, 48, 51
12, 40624, Note_off_c, 6, 55, 64
12, 40636, Note_off_c, 6, 48, 64
12, 40800, Note_on_c, 6, 55, 33
12, 40890, Note_off_c, 6, 55, 64
12, 41040, Note_on_c, 6, 55, 80
12, 41040, Note_on_c, 6, 48, 65
12, 41108, Note_off_c, 6, 55, 64
12, 41118, Note_off_c, 6, 48, 64
12, 41280, Note_on_c, 6, 60, 54
12, 41280, Note_on_c, 6, 54, 39
12, 41398, Note_off_c, 6, 60, 64
12, 41414, Note_off_c, 6, 54, 64
12, 41520, Note_on_c, 6, 60, 78
12, 41520, Note_on_c, 6, 54, 51
12, 41584, Note_off_c, 6, 60, 64
12, 41596, Note_off_c, 6, 54, 64
12, 41760, Note_on_c, 6, 60, 33
12, 41850, Note_off_c, 6, 60, 64
12, 42000, Note_on_c, 6, 60, 80
12, 42000, Note_on_c, 6, 54, 65
12, 42068, Note_off_c, 6, 60, 64
12, 42078, Note_off_c, 6, 54, 64
12, 42240, Note_on_c, 6, 55, 54
12, 42240, Note_on_c, 6, 48, 39
12, 42358, Note_off_c, 6, 55, 64
12, 42374, Note_off_c, 6, 48, 64
12, 42480, Note_on_c, 6, 55, 78
12, 42480, Note_on_c, 6, 48, 51
12, 42544, Note_off_c, 6, 55, 64
12, 42556, Note_off_c, 6, 48, 64
12, 42720, Note_on_c, 6, 55, 33
12, 42810, Note_off_c, 6, 55, 64
12, 42960, Note_on_c, 6, 55, 80
12, 42960, Note_on_c, 6, 48, 65
12, 43028, Note_off_c, 6, 55, 64
12, 43038, Note_off_c, 6, 48, 64
12, 43440, Note_on_c, 6, 60, 73
12, 43440, Note_on_c, 6, 54, 47
12, 43498, Note_off_c, 6, 54, 64
12, 43498, Note_off_c, 6, 60, 64
12, 43920, Note_on_c, 6, 60, 70
12, 43920, Note_on_c, 6, 54, 52
12, 43982, Note_off_c, 6, 60, 64
12, 43990, Note_off_c, 6, 54, 64
12, 44160, Note_on_c, 6, 55, 48
12, 44160, Note_on_c, 6, 48, 41
12, 44396, Note_off_c, 6, 55, 64
12, 44400, Note_off_c, 6, 48, 64
12, 44400, Note_on_c, 6, 55, 79
12, 44400, Note_on_c, 6, 48, 57
12, 44482, Note_off_c, 6, 48, 64
12, 44482, Note_off_c, 6, 55, 64
12, 44640, Note_on_c, 6, 55, 30
12, 44640, Note_on_c, 6, 48, 25
12, 44864, Note_off_c, 6, 48, 64
12, 44864, Note_off_c, 6, 55, 64
12, 44880, Note_on_c, 6, 55, 86
12, 44880, Note_on_c, 6, 48, 52
12, 44974, Note_off_c, 6, 48, 64
12, 44974, Note_off_c, 6, 55, 64
12, 45120, Note_on_c, 6, 54, 48
12, 45120, Note_on_c, 6, 60, 60
12, 45326, Note_off_c, 6, 60, 64
12, 45338, Note_off_c, 6, 54, 64
12, 45360, Note_on_c, 6, 60, 59
12, 45360, Note_on_c, 6, 54, 42
12, 45386, Note_off_c, 6, 54, 64
12, 45402, Note_off_c, 6, 60, 64
12, 45600, Note_on_c, 6, 54, 26
12, 45600, Note_on_c, 6, 60, 39
12, 45814, Note_off_c, 6, 60, 64
12, 45814, Note_off_c, 6, 54, 64
12, 45840, Note_on_c, 6, 60, 62
12, 45840, Note_on_c, 6, 54, 28
12, 45880, Note_off_c, 6, 54, 64
12, 45880, Note_off_c, 6, 60, 64
12, 46080, Note_on_c, 6, 52, 52
12, 46080, Note_on_c, 6, 59, 64
12, 46306, Note_off_c, 6, 59, 64
12, 46318, Note_off_c, 6, 52, 64
12, 46320, Note_on_c, 6, 59, 63
12, 46320, Note_on_c, 6, 52, 46
12, 46366, Note_off_c, 6, 52, 64
12, 46382, Note_off_c, 6, 59, 64
12, 46560, Note_on_c, 6, 59, 54
12, 46560, Note_on_c, 6, 53, 39
12, 46678, Note_off_c, 6, 59, 64
12, 46694, Note_off_c, 6, 53, 64
12, 46800, Note_on_c, 6, 59, 78
12, 46800, Note_on_c, 6, 53, 51
12, 46864, Note_off_c, 6, 59, 64
12, 46876, Note_off_c, 6, 53, 64
12, 47040, Note_on_c, 6, 48, 52
12, 47040, Note_on_c, 6, 55, 64
12, 47266, Note_off_c, 6, 55, 64
12, 47278, Note_off_c, 6, 48, 64
12, 47280, Note_on_c, 6, 55, 63
12, 47280, Note_on_c, 6, 48, 46
12, 47326, Note_off_c, 6, 48, 64
12, 47342, Note_off_c, 6, 55, 64
12, 47520, Note_on_c, 6, 60, 48
12, 47520, Note_on_c, 6, 54, 41
12, 47716, Note_off_c, 6, 60, 64
12, 47722, Note_off_c, 6, 54, 64
12, 47760, Note_on_c, 6, 60, 79
12, 47760, Note_on_c, 6, 54, 57
12, 47802, Note_off_c, 6, 54, 64
12, 47802, Note_off_c, 6, 60, 64
12, 48000, Note_on_c, 6, 52, 52
12, 48000, Note_on_c, 6, 59, 64
12, 48226, Note_off_c, 6, 59, 64
12, 48238, Note_off_c, 6, 52, 64
12, 48240, Note_on_c, 6, 59, 63
12, 48240, Note_on_c, 6, 52, 46
12, 48286, Note_off_c, 6, 52, 64
12, 48302, Note_off_c, 6, 59, 64
12, 48480, Note_on_c, 6, 52, 30
12, 48480, Note_on_c, 6, 59, 43
12, 48714, Note_off_c, 6, 59, 64
12, 48714, Note_off_c, 6, 52, 64
12, 48720, Note_on_c, 6, 59, 66
12, 48720, Note_on_c, 6, 52, 32
12, 48780, Note_off_c, 6, 52, 64
12, 48780, Note_off_c, 6, 59, 64
12, 48960, Note_on_c, 6, 59, 57
12, 48960, Note_on_c, 6, 52, 31
12, 49182, Note_off_c, 6, 59, 64
12, 49200, Note_on_c, 6, 59, 83
12, 49258, Note_off_c, 6, 52, 64
12, 49266, Note_off_c, 6, 59, 64
12, 49440, Note_on_c, 6, 59, 55
12, 49440, Note_on_c, 6, 52, 45
12, 49680, Note_off_c, 6, 52, 64
12, 49680, Note_off_c, 6, 59, 64
12, 49680, Note_on_c, 6, 59, 75
12, 49680, Note_on_c, 6, 52, 50
12, 49742, Note_off_c, 6, 52, 64
12, 49742, Note_off_c, 6, 59, 64
12, 49920, Note_on_c, 6, 59, 48
12, 49920, Note_on_c, 6, 52, 41
12, 50156, Note_off_c, 6, 59, 64
12, 50160, Note_off_c, 6, 52, 64
12, 50160, Note_on_c, 6, 59, 79
12, 50160, Note_on_c, 6, 52, 57
12, 50242, Note_off_c, 6, 52, 64
12, 50242, Note_off_c, 6, 59, 64
12, 50400, Note_on_c, 6, 59, 30
12, 50400, Note_on_c, 6, 52, 25
12, 50624, Note_off_c, 6, 52, 64
12, 50624, Note_off_c, 6, 59, 64
12, 50640, Note_on_c, 6, 59, 86
12, 50640, Note_on_c, 6, 52, 52
12, 50734, Note_off_c, 6, 52, 64
12, 50734, Note_off_c, 6, 59, 64
12, 50880, Note_on_c, 6, 59, 48
12, 50880, Note_on_c, 6, 52, 37
12, 51092, Note_off_c, 6, 52, 64
12, 51092, Note_off_c, 6, 59, 64
12, 51120, Note_on_c, 6, 59, 78
12, 51120, Note_on_c, 6, 52, 48
12, 51220, Note_off_c, 6, 52, 64
12, 51220, Note_off_c, 6, 59, 64
12, 51360, Note_on_c, 6, 59, 33
12, 51360, Note_on_c, 6, 52, 27
12, 51562, Note_off_c, 6, 52, 64
12, 51562, Note_off_c, 6, 59, 64
12, 51600, Note_on_c, 6, 59, 75
12, 51600, Note_on_c, 6, 52, 44
12, 51706, Note_off_c, 6, 52, 64
12, 51710, Note_off_c, 6, 59, 64
12, 51840, Note_on_c, 6, 53, 48
12, 51840, Note_on_c, 6, 60, 60
12, 52046, Note_off_c, 6, 60, 64
12, 52058, Note_off_c, 6, 53, 64
12, 52080, Note_on_c, 6, 60, 59
12, 52080, Note_on_c, 6, 53, 42
12, 52106, Note_off_c, 6, 53, 64
12, 52122, Note_off_c, 6, 60, 64
12, 52320, Note_on_c, 6, 53, 26
12, 52320, Note_on_c, 6, 60, 39
12, 52534, Note_off_c, 6, 60, 64
12, 52534, Note_off_c, 6, 53, 64
12, 52560, Note_on_c, 6, 60, 62
12, 52560, Note_on_c, 6, 53, 28
12, 52600, Note_off_c, 6, 53, 64
12, 52600, Note_off_c, 6, 60, 64
12, 52800, Note_on_c, 6, 59, 54
12, 52800, Note_on_c, 6, 53, 39
12, 52918, Note_off_c, 6, 59, 64
12, 52934, Note_off_c, 6, 53, 64
12, 53040, Note_on_c, 6, 59, 78
12, 53040, Note_on_c, 6, 53, 51
12, 53104, Note_off_c, 6, 59, 64
12, 53116, Note_off_c, 6, 53, 64
12, 53280, Note_on_c, 6, 59, 33
12, 53370, Note_off_c, 6, 59, 64
12, 53520, Note_on_c, 6, 59, 80
12, 53520, Note_on_c, 6, 53, 65
12, 53588, Note_off_c, 6, 59, 64
12, 53598, Note_off_c, 6, 53, 64
12, 53760, Note_on_c, 6, 59, 48
12, 53760, Note_on_c, 6, 52, 41
12, 53996, Note_off_c, 6, 59, 64
12, 54000, Note_off_c, 6, 52, 64
12, 54000, Note_on_c, 6, 59, 79
12, 54000, Note_on_c, 6, 52, 57
12, 54082, Note_off_c, 6, 52, 64
12, 54082, Note_off_c, 6, 59, 64
12, 54240, Note_on_c, 6, 59, 30
12, 54240, Note_on_c, 6, 52, 25
12, 54464, Note_off_c, 6, 52, 64
12, 54464, Note_off_c, 6, 59, 64
12, 54480, Note_on_c, 6, 59, 86
12, 54480, Note_on_c, 6, 52, 52
12, 54574, Note_off_c, 6, 52, 64
12, 54574, Note_off_c, 6, 59, 64
12, 54720, Note_on_c, 6, 59, 48
12, 54720, Note_on_c, 6, 52, 37
12, 54932, Note_off_c, 6, 52, 64
12, 54932, Note_off_c, 6, 59, 64
12, 54960, Note_on_c, 6, 59, 78
12, 54960, Note_on_c, 6, 52, 48
12, 55060, Note_off_c, 6, 52, 64
12, 55060, Note_off_c, 6, 59, 64
12, 55200, Note_on_c, 6, 59, 33
12, 55200, Note_on_c, 6, 52, 27
12, 55402, Note_off_c, 6, 52, 64
12, 55402, Note_off_c, 6, 59, 64
12, 55440, Note_on_c, 6, 59, 75
12, 55440, Note_on_c, 6, 52, 44
12, 55546, Note_off_c, 6, 52, 64
12, 55550, Note_off_c, 6, 59, 64
12, 55680, Note_on_c, 6, 57, 48
12, 55680, Note_on_c, 6, 52, 41
12, 55916, Note_off_c, 6, 57, 64
12, 55920, Note_off_c, 6, 52, 64
12, 55920, Note_on_c, 6, 57, 79
12, 55920, Note_on_c, 6, 52, 57
12, 56002, Note_off_c, 6, 52, 64
12, 56002, Note_off_c, 6, 57, 64
12, 56160, Note_on_c, 6, 57, 30
12, 56160, Note_on_c, 6, 52, 25
12, 56384, Note_off_c, 6, 52, 64
12, 56384, Note_off_c, 6, 57, 64
12, 56400, Note_on_c, 6, 57, 86
12, 56400, Note_on_c, 6, 52, 52
12, 56494, Note_off_c, 6, 52, 64
12, 56494, Note_off_c, 6, 57, 64
12, 56640, Note_on_c, 6, 57, 54
12, 56640, Note_on_c, 6, 51, 39
12, 56758, Note_off_c, 6, 57, 64
12, 56774, Note_off_c, 6, 51, 64
12, 56880, Note_on_c, 6, 57, 78
12, 56880, Note_on_c, 6, 51, 51
12, 56944, Note_off_c, 6, 57, 64
12, 56956, Note_off_c, 6, 51, 64
12, 57120, Note_on_c, 6, 51, 52
12, 57120, Note_on_c, 6, 57, 64
12, 57346, Note_off_c, 6, 57, 64
12, 57358, Note_off_c, 6, 51, 64
12, 57360, Note_on_c, 6, 57, 63
12, 57360, Note_on_c, 6, 51, 46
12, 57406, Note_off_c, 6, 51, 64
12, 57422, Note_off_c, 6, 57, 64
12, 57600, Note_on_c, 6, 52, 52
12, 57600, Note_on_c, 6, 59, 64
12, 57826, Note_off_c, 6, 59, 64
12, 57838, Note_off_c, 6, 52, 64
12, 57840, Note_on_c, 6, 59, 63
12, 57840, Note_on_c, 6, 52, 46
12, 57886, Note_off_c, 6, 52, 64
12, 57902, Note_off_c, 6, 59, 64
12, 58080, Note_on_c, 6, 52, 52
12, 58080, Note_on_c, 6, 57, 64
12, 58306, Note_off_c, 6, 57, 64
12, 58318, Note_off_c, 6, 52, 64
12, 58320, Note_on_c, 6, 57, 63
12, 58320, Note_on_c, 6, 52, 46
12, 58366, Note_off_c, 6, 52, 64
12, 58382, Note_off_c, 6, 57, 64
12, 58560, Note_on_c, 6, 50, 52
12, 58560, Note_on_c, 6, 57, 64
12, 58786, Note_off_c, 6, 57, 64
12, 58798, Note_off_c, 6, 50, 64
12, 58800, Note_on_c, 6, 57, 63
12, 58800, Note_on_c, 6, 50, 46
12, 58846, Note_off_c, 6, 50, 64
12, 58862, Note_off_c, 6, 57, 64
12, 59040, Note_on_c, 6, 50, 52
12, 59040, Note_on_c, 6, 55, 64
12, 59266, Note_off_c, 6, 55, 64
12, 59278, Note_off_c, 6, 50, 64
12, 59280, Note_on_c, 6, 55, 63
12, 59280, Note_on_c, 6, 50, 46
12, 59326, Note_off_c, 6, 50, 64
12, 59342, Note_off_c, 6, 55, 64
12, 59520, Note_on_c, 6, 49, 48
12, 59520, Note_on_c, 6, 55, 60
12, 59726, Note_off_c, 6, 55, 64
12, 59738, Note_off_c, 6, 49, 64
12, 59760, Note_on_c, 6, 55, 59
12, 59760, Note_on_c, 6, 49, 42
12, 59786, Note_off_c, 6, 49, 64
12, 59802, Note_off_c, 6, 55, 64
12, 60000, Note_on_c, 6, 49, 26
12, 60000, Note_on_c, 6, 55, 39
12, 60214, Note_off_c, 6, 55, 64
12, 60214, Note_off_c, 6, 49, 64
12, 60240, Note_on_c, 6, 55, 62
12, 60240, Note_on_c, 6, 49, 28
12, 60280, Note_off_c, 6, 49, 64
12, 60280, Note_off_c, 6, 55, 64
12, 60480, Note_on_c, 6, 60, 54
12, 60480, Note_on_c, 6, 54, 39
12, 60598, Note_off_c, 6, 60, 64
12, 60614, Note_off_c, 6, 54, 64
12, 60720, Note_on_c, 6, 60, 78
12, 60720, Note_on_c, 6, 54, 51
12, 60784, Note_off_c, 6, 60, 64
12, 60796, Note_off_c, 6, 54, 64
12, 60960, Note_on_c, 6, 60, 33
12, 61050, Note_off_c, 6, 60, 64
12, 61200, Note_on_c, 6, 60, 80
12, 61200, Note_on_c, 6, 54, 65
12, 61268, Note_off_c, 6, 60, 64
12, 61278, Note_off_c, 6, 54, 64
12, 61440, Note_on_c, 6, 52, 48
12, 61440, Note_on_c, 6, 59, 60
12, 61646, Note_off_c, 6, 59, 64
12, 61658, Note_off_c, 6, 52, 64
12, 61680, Note_on_c, 6, 59, 59
12, 61680, Note_on_c, 6, 52, 42
12, 61706, Note_off_c, 6, 52, 64
12, 61722, Note_off_c, 6, 59, 64
12, 61920, Note_on_c, 6, 52, 26
12, 61920, Note_on_c, 6, 59, 39
12, 62134, Note_off_c, 6, 59, 64
12, 62134, Note_off_c, 6, 52, 64
12, 62160, Note_on_c, 6, 59, 62
12, 62160, Note_on_c, 6, 52, 28
12, 62200, Note_off_c, 6, 52, 64
12, 62200, Note_off_c, 6, 59, 64
12, 62400, Note_on_c, 6, 48, 52
12, 62400, Note_on_c, 6, 55, 64
12, 62626, Note_off_c, 6, 55, 64
12, 62638, Note_off_c, 6, 48, 64
12, 62640, Note_on_c, 6, 55, 63
12, 62640, Note_on_c, 6, 48, 46
12, 62686, Note_off_c, 6, 48, 64
12, 62702, Note_off_c, 6, 55, 64
12, 62880, Note_on_c, 6, 54, 52
12, 62880, Note_on_c, 6, 60, 64
12, 63106, Note_off_c, 6, 60, 64
12, 63118, Note_off_c, 6, 54, 64
12, 63120, Note_on_c, 6, 60, 63
12, 63120, Note_on_c, 6, 54, 46
12, 63166, Note_off_c, 6, 54, 64
12, 63182, Note_off_c, 6, 60, 64
12, 63600, Note_on_c, 6, 59, 73
12, 63600, Note_on_c, 6, 52, 47
12, 63654, Note_off_c, 6, 52, 64
12, 63654, Note_off_c, 6, 59, 64
12, 64080, Note_on_c, 6, 59, 70
12, 64080, Note_on_c, 6, 52, 52
12, 64138, Note_off_c, 6, 59, 64
12, 64146, Note_off_c, 6, 52, 64
12, 64560, Note_on_c, 6, 59, 76
12, 64560, Note_on_c, 6, 52, 51
12, 64618, Note_off_c, 6, 59, 64
12, 64622, Note_off_c, 6, 52, 64
12, 65040, Note_on_c, 6, 59, 67
12, 65040, Note_on_c, 6, 52, 45
12, 65098, Note_off_c, 6, 59, 64
12, 65106, Note_off_c, 6, 52, 64
12, 65520, Note_on_c, 6, 59, 73
12, 65520, Note_on_c, 6, 52, 47
12, 65574, Note_off_c, 6, 52, 64
12, 65574, Note_off_c, 6, 59, 64
12, 66000, Note_on_c, 6, 59, 70
12, 66000, Note_on_c, 6, 52, 52
12, 66058, Note_off_c, 6, 59, 64
12, 66066, Note_off_c, 6, 52, 64
12, 66480, Note_on_c, 6, 59, 76
12, 66480, Note_on_c, 6, 52, 51
12, 66538, Note_off_c, 6, 59, 64
12, 66542, Note_off_c, 6, 52, 64
12, 66960, Note_on_c, 6, 59, 67
12, 66960, Note_on_c, 6, 52, 45
12, 67018, Note_off_c, 6, 59, 64
12, 67026, Note_off_c, 6, 52, 64
12, 67440, Note_on_c, 6, 59, 73
12, 67440, Note_on_c, 6, 52, 47
12, 67502, Note_off_c, 6, 52, 64
12, 67502, Note_off_c, 6, 59, 64
12, 67920, Note_on_c, 6, 59, 70
12, 67920, Note_on_c, 6, 52, 52
12, 67986, Note_off_c, 6, 59, 64
12, 67994, Note_off_c, 6, 52, 64
12, 68400, Note_on_c, 6, 56, 73
12, 68400, Note_on_c, 6, 50, 47
12, 68462, Note_off_c, 6, 50, 64
12, 68462, Note_off_c, 6, 56, 64
12, 68880, Note_on_c, 6, 56, 70
12, 68880, Note_on_c, 6, 50, 52
12, 68946, Note_off_c, 6, 56, 64
12, 68954, Note_off_c, 6, 50, 64
12, 69360, Note_on_c, 6, 55, 73
12, 69360, Note_on_c, 6, 48, 47
12, 69422, Note_off_c, 6, 48, 64
12, 69422, Note_off_c, 6, 55, 64
12, 69840, Note_on_c, 6, 55, 70
12, 69840, Note_on_c, 6, 48, 52
12, 69906, Note_off_c, 6, 55, 64
12, 69914, Note_off_c, 6, 48, 64
12, 70320, Note_on_c, 6, 60, 73
12, 70320, Note_on_c, 6, 54, 47
12, 70382, Note_off_c, 6, 54, 64
12, 70382, Note_off_c, 6, 60, 64
12, 70800, Note_on_c, 6, 56, 65
12, 70800, Note_on_c, 6, 50, 46
12, 70850, Note_off_c, 6, 50, 64
12, 70850, Note_off_c, 6, 56, 64
12, 71280, Note_on_c, 6, 55, 73
12, 71280, Note_on_c, 6, 48, 47
12, 71342, Note_off_c, 6, 48, 64
12, 71342, Note_off_c, 6, 55, 64
12, 71760, Note_on_c, 6, 55, 70
12, 71760, Note_on_c, 6, 48, 52
12, 71826, Note_off_c, 6, 55, 64
12, 71834, Note_off_c, 6, 48, 64
12, 72240, Note_on_c, 6, 60, 73
12, 72240, Note_on_c, 6, 54, 47
12, 72302, Note_off_c, 6, 54, 64
12, 72302, Note_off_c, 6, 60, 64
12, 72720, Note_on_c, 6, 60, 70
12, 72720, Note_on_c, 6, 54, 52
12, 72786, Note_off_c, 6, 60, 64
12, 72794, Note_off_c, 6, 54, 64
12, 73200, Note_on_c, 6, 55, 73
12, 73200, Note_on_c, 6, 48, 47
12, 73262, Note_off_c, 6, 48, 64
12, 73262, Note_off_c, 6, 55, 64
12, 73680, Note_on_c, 6, 55, 70
12, 73680, Note_on_c, 6, 48, 52
12, 73746, Note_off_c, 6, 55, 64
12, 73754, Note_off_c, 6, 48, 64
12, 74160, Note_on_c, 6, 60, 68
12, 74216, Note_off_c, 6, 60, 64
12, 74400, Note_on_c, 6, 60, 61
12, 74400, Note_on_c, 6, 54, 12
12, 74448, Note_off_c, 6, 54, 64
12, 74454, Note_off_c, 6, 60, 64
12, 74640, Note_on_c, 6, 54, 73
12, 74640, Note_on_c, 6, 60, 88
12, 74698, Note_off_c, 6, 60, 64
12, 74698, Note_off_c, 6, 54, 64
12, 75120, Note_on_c, 6, 55, 73
12, 75120, Note_on_c, 6, 48, 47
12, 75182, Note_off_c, 6, 48, 64
12, 75182, Note_off_c, 6, 55, 64
12, 75600, Note_on_c, 6, 55, 70
12, 75600, Note_on_c, 6, 48, 52
12, 75666, Note_off_c, 6, 55, 64
12, 75674, Note_off_c, 6, 48, 64
12, 76080, Note_on_c, 6, 60, 73
12, 76080, Note_on_c, 6, 54, 47
12, 76142, Note_off_c, 6, 54, 64
12, 76142, Note_off_c, 6, 60, 64
12, 76560, Note_on_c, 6, 60, 70
12, 76560, Note_on_c, 6, 54, 52
12, 76626, Note_off_c, 6, 60, 64
12, 76634, Note_off_c, 6, 54, 64
12, 77040, Note_on_c, 6, 59, 73
12, 77040, Note_on_c, 6, 52, 47
12, 77102, Note_off_c, 6, 52, 64
12, 77102, Note_off_c, 6, 59, 64
12, 77520, Note_on_c, 6, 59, 73
12, 77520, Note_on_c, 6, 53, 47
12, 77582, Note_off_c, 6, 53, 64
12, 77582, Note_off_c, 6, 59, 64
12, 78000, Note_on_c, 6, 55, 68
12, 78056, Note_off_c, 6, 55, 64
12, 78480, Note_on_c, 6, 60, 73
12, 78480, Note_on_c, 6, 54, 47
12, 78542, Note_off_c, 6, 54, 64
12, 78542, Note_off_c, 6, 60, 64
12, 78720, Note_on_c, 6, 59, 48
12, 78720, Note_on_c, 6, 52, 41
12, 78956, Note_off_c, 6, 59, 64
12, 78960, Note_off_c, 6, 52, 64
12, 78960, Note_on_c, 6, 59, 79
12, 78960, Note_on_c, 6, 52, 57
12, 79042, Note_off_c, 6, 52, 64
12, 79042, Note_off_c, 6, 59, 64
12, 79200, Note_on_c, 6, 59, 30
12, 79200, Note_on_c, 6, 52, 25
12, 79424, Note_off_c, 6, 52, 64
12, 79424, Note_off_c, 6, 59, 64
12, 79440, Note_on_c, 6, 59, 86
12, 79440, Note_on_c, 6, 52, 52
12, 79534, Note_off_c, 6, 52, 64
12, 79534, Note_off_c, 6, 59, 64
12, 79680, Note_on_c, 6, 59, 48
12, 79680, Note_on_c, 6, 52, 37
12, 79892, Note_off_c, 6, 52, 64
12, 79892, Note_off_c, 6, 59, 64
12, 79920, Note_on_c, 6, 59, 78
12, 79920, Note_on_c, 6, 52, 48
12, 80020, Note_off_c, 6, 52, 64
12, 80020, Note_off_c, 6, 59, 64
12, 80160, Note_on_c, 6, 59, 33
12, 80160, Note_on_c, 6, 52, 27
12, 80362, Note_off_c, 6, 52, 64
12, 80362, Note_off_c, 6, 59, 64
12, 80400, Note_on_c, 6, 59, 75
12, 80400, Note_on_c, 6, 52, 44
12, 80506, Note_off_c, 6, 52, 64
12, 80510, Note_off_c, 6, 59, 64
12, 80640, Note_on_c, 6, 52, 52
12, 80640, Note_on_c, 6, 59, 64
12, 80846, Note_off_c, 6, 59, 64
12, 80858, Note_off_c, 6, 52, 64
12, 80880, Note_on_c, 6, 59, 63
12, 80880, Note_on_c, 6, 52, 46
12, 80906, Note_off_c, 6, 52, 64
12, 80922, Note_off_c, 6, 59, 64
12, 81120, Note_on_c, 6, 52, 30
12, 81120, Note_on_c, 6, 59, 43
12, 81334, Note_off_c, 6, 59, 64
12, 81334, Note_off_c, 6, 52, 64
12, 81360, Note_on_c, 6, 59, 66
12, 81360, Note_on_c, 6, 52, 32
12, 81400, Note_off_c, 6, 52, 64
12, 81400, Note_off_c, 6, 59, 64
12, 81600, Note_on_c, 6, 59, 57
12, 81600, Note_on_c, 6, 52, 31
12, 81802, Note_off_c, 6, 59, 64
12, 81840, Note_on_c, 6, 59, 83
12, 81878, Note_off_c, 6, 52, 64
12, 81886, Note_off_c, 6, 59, 64
12, 82080, Note_on_c, 6, 59, 55
12, 82080, Note_on_c, 6, 52, 45
12, 82300, Note_off_c, 6, 52, 64
12, 82300, Note_off_c, 6, 59, 64
12, 82320, Note_on_c, 6, 59, 75
12, 82320, Note_on_c, 6, 52, 50
12, 82362, Note_off_c, 6, 52, 64
12, 82362, Note_off_c, 6, 59, 64
12, 82560, Note_on_c, 6, 60, 54
12, 82560, Note_on_c, 6, 53, 39
12, 82678, Note_off_c, 6, 60, 64
12, 82694, Note_off_c, 6, 53, 64
12, 82800, Note_on_c, 6, 60, 78
12, 82800, Note_on_c, 6, 53, 51
12, 82864, Note_off_c, 6, 60, 64
12, 82876, Note_off_c, 6, 53, 64
12, 83040, Note_on_c, 6, 60, 33
12, 83130, Note_off_c, 6, 60, 64
12, 83280, Note_on_c, 6, 60, 80
12, 83280, Note_on_c, 6, 53, 65
12, 83348, Note_off_c, 6, 60, 64
12, 83358, Note_off_c, 6, 53, 64
12, 83520, Note_on_c, 6, 53, 48
12, 83520, Note_on_c, 6, 59, 60
12, 83726, Note_off_c, 6, 59, 64
12, 83738, Note_off_c, 6, 53, 64
12, 83760, Note_on_c, 6, 59, 59
12, 83760, Note_on_c, 6, 53, 42
12, 83786, Note_off_c, 6, 53, 64
12, 83802, Note_off_c, 6, 59, 64
12, 84000, Note_on_c, 6, 53, 26
12, 84000, Note_on_c, 6, 59, 39
12, 84214, Note_off_c, 6, 59, 64
12, 84214, Note_off_c, 6, 53, 64
12, 84240, Note_on_c, 6, 59, 62
12, 84240, Note_on_c, 6, 53, 28
12, 84280, Note_off_c, 6, 53, 64
12, 84280, Note_off_c, 6, 59, 64
12, 84480, Note_on_c, 6, 59, 48
12, 84480, Note_on_c, 6, 52, 41
12, 84716, Note_off_c, 6, 59, 64
12, 84720, Note_off_c, 6, 52, 64
12, 84720, Note_on_c, 6, 59, 79
12, 84720, Note_on_c, 6, 52, 57
12, 84802, Note_off_c, 6, 52, 64
12, 84802, Note_off_c, 6, 59, 64
12, 84960, Note_on_c, 6, 59, 30
12, 84960, Note_on_c, 6, 52, 25
12, 85184, Note_off_c, 6, 52, 64
12, 85184, Note_off_c, 6, 59, 64
12, 85200, Note_on_c, 6, 59, 86
12, 85200, Note_on_c, 6, 52, 52
12, 85294, Note_off_c, 6, 52, 64
12, 85294, Note_off_c, 6, 59, 64
12, 85440, Note_on_c, 6, 59, 48
12, 85440, Note_on_c, 6, 52, 37
12, 85652, Note_off_c, 6, 52, 64
12, 85652, Note_off_c, 6, 59, 64
12, 85680, Note_on_c, 6, 59, 78
12, 85680, Note_on_c, 6, 52, 48
12, 85780, Note_off_c, 6, 52, 64
12, 85780, Note_off_c, 6, 59, 64
12, 85920, Note_on_c, 6, 59, 33
12, 85920, Note_on_c, 6, 52, 27
12, 86122, Note_off_c, 6, 52, 64
12, 86122, Note_off_c, 6, 59, 64
12, 86160, Note_on_c, 6, 59, 75
12, 86160, Note_on_c, 6, 52, 44
12, 86266, Note_off_c, 6, 52, 64
12, 86270, Note_off_c, 6, 59, 64
12, 86400, Note_on_c, 6, 57, 48
12, 86400, Note_on_c, 6, 52, 41
12, 86636, Note_off_c, 6, 57, 64
12, 86640, Note_off_c, 6, 52, 64
12, 86640, Note_on_c, 6, 57, 79
12, 86640, Note_on_c, 6, 52, 57
12, 86722, Note_off_c, 6, 52, 64
12, 86722, Note_off_c, 6, 57, 64
12, 86880, Note_on_c, 6, 57, 30
12, 86880, Note_on_c, 6, 52, 25
12, 87104, Note_off_c, 6, 52, 64
12, 87104, Note_off_c, 6, 57, 64
12, 87120, Note_on_c, 6, 57, 86
12, 87120, Note_on_c, 6, 52, 52
12, 87214, Note_off_c, 6, 52, 64
12, 87214, Note_off_c, 6, 57, 64
12, 87360, Note_on_c, 6, 57, 54
12, 87360, Note_on_c, 6, 51, 39
12, 87478, Note_off_c, 6, 57, 64
12, 87494, Note_off_c, 6, 51, 64
12, 87600, Note_on_c, 6, 57, 78
12, 87600, Note_on_c, 6, 51, 51
12, 87664, Note_off_c, 6, 57, 64
12, 87676, Note_off_c, 6, 51, 64
12, 87840, Note_on_c, 6, 57, 54
12, 87840, Note_on_c, 6, 51, 39
12, 87958, Note_off_c, 6, 57, 64
12, 87974, Note_off_c, 6, 51, 64
12, 88080, Note_on_c, 6, 57, 78
12, 88080, Note_on_c, 6, 51, 51
12, 88144, Note_off_c, 6, 57, 64
12, 88156, Note_off_c, 6, 51, 64
12, 88320, Note_on_c, 6, 59, 54
12, 88320, Note_on_c, 6, 52, 39
12, 88438, Note_off_c, 6, 59, 64
12, 88454, Note_off_c, 6, 52, 64
12, 88560, Note_on_c, 6, 59, 78
12, 88560, Note_on_c, 6, 52, 51
12, 88624, Note_off_c, 6, 59, 64
12, 88636, Note_off_c, 6, 52, 64
12, 88800, Note_on_c, 6, 57, 48
12, 88800, Note_on_c, 6, 52, 41
12, 88996, Note_off_c, 6, 57, 64
12, 89002, Note_off_c, 6, 52, 64
12, 89040, Note_on_c, 6, 57, 79
12, 89040, Note_on_c, 6, 52, 57
12, 89082, Note_off_c, 6, 52, 64
12, 89082, Note_off_c, 6, 57, 64
12, 89280, Note_on_c, 6, 57, 48
12, 89280, Note_on_c, 6, 50, 41
12, 89476, Note_off_c, 6, 57, 64
12, 89482, Note_off_c, 6, 50, 64
12, 89520, Note_on_c, 6, 57, 79
12, 89520, Note_on_c, 6, 50, 57
12, 89562, Note_off_c, 6, 50, 64
12, 89562, Note_off_c, 6, 57, 64
12, 89760, Note_on_c, 6, 50, 52
12, 89760, Note_on_c, 6, 55, 64
12, 89986, Note_off_c, 6, 55, 64
12, 89998, Note_off_c, 6, 50, 64
12, 90000, Note_on_c, 6, 55, 63
12, 90000, Note_on_c, 6, 50, 46
12, 90046, Note_off_c, 6, 50, 64
12, 90062, Note_off_c, 6, 55, 64
12, 90480, Note_on_c, 6, 55, 73
12, 90480, Note_on_c, 6, 49, 47
12, 90538, Note_off_c, 6, 49, 64
12, 90538, Note_off_c, 6, 55, 64
12, 90960, Note_on_c, 6, 55, 70
12, 90960, Note_on_c, 6, 49, 52
12, 91022, Note_off_c, 6, 55, 64
12, 91030, Note_off_c, 6, 49, 64
12, 91200, Note_on_c, 6, 60, 54
12, 91200, Note_on_c, 6, 54, 39
12, 91318, Note_off_c, 6, 60, 64
12, 91334, Note_off_c, 6, 54, 64
12, 91440, Note_on_c, 6, 60, 78
12, 91440, Note_on_c, 6, 54, 51
12, 91504, Note_off_c, 6, 60, 64
12, 91516, Note_off_c, 6, 54, 64
12, 91680, Note_on_c, 6, 60, 33
12, 91770, Note_off_c, 6, 60, 64
12, 91920, Note_on_c, 6, 60, 80
12, 91920, Note_on_c, 6, 54, 65
12, 91988, Note_off_c, 6, 60, 64
12, 91998, Note_off_c, 6, 54, 64
12, 92160, Note_on_c, 6, 59, 54
12, 92160, Note_on_c, 6, 52, 39
12, 92278, Note_off_c, 6, 59, 64
12, 92294, Note_off_c, 6, 52, 64
12, 92400, Note_on_c, 6, 59, 78
12, 92400, Note_on_c, 6, 52, 51
12, 92464, Note_off_c, 6, 59, 64
12, 92476, Note_off_c, 6, 52, 64
12, 92640, Note_on_c, 6, 59, 33
12, 92730, Note_off_c, 6, 59, 64
12, 92880, Note_on_c, 6, 59, 80
12, 92880, Note_on_c, 6, 52, 65
12, 92948, Note_off_c, 6, 59, 64
12, 92958, Note_off_c, 6, 52, 64
12, 93120, Note_on_c, 6, 55, 54
12, 93120, Note_on_c, 6, 48, 39
12, 93238, Note_off_c, 6, 55, 64
12, 93254, Note_off_c, 6, 48, 64
12, 93360, Note_on_c, 6, 55, 78
12, 93360, Note_on_c, 6, 48, 51
12, 93424, Note_off_c, 6, 55, 64
12, 93436, Note_off_c, 6, 48, 64
12, 93600, Note_on_c, 6, 54, 52
12, 93600, Note_on_c, 6, 60, 64
12, 93826, Note_off_c, 6, 60, 64
12, 93838, Note_off_c, 6, 54, 64
12, 93840, Note_on_c, 6, 60, 63
12, 93840, Note_on_c, 6, 54, 46
12, 93886, Note_off_c, 6, 54, 64
12, 93902, Note_off_c, 6, 60, 64
12, 94318, Note_on_c, 6, 52, 75
12, 94328, Note_on_c, 6, 47, 55
12, 94358, Note_off_c, 6, 52, 64
12, 94368, Note_off_c, 6, 47, 64
12, 94798, Note_on_c, 6, 52, 63
12, 94808, Note_on_c, 6, 47, 29
12, 94834, Note_off_c, 6, 52, 64
12, 94838, Note_off_c, 6, 47, 64
12, 95046, Note_on_c, 6, 47, 50
12, 95046, Note_on_c, 6, 52, 71
12, 95098, Note_off_c, 6, 52, 64
12, 95108, Note_off_c, 6, 47, 64
12, 95460, Note_on_c, 6, 52, 51
12, 95464, Note_on_c, 6, 47, 16
12, 95944, Note_off_c, 6, 52, 64
12, 95954, Note_off_c, 6, 47, 64
12, 96000, Control_c, 6, 64, 0
12, 96000, End_track
13, 0, Start_track
13, 0, Title_t, "Drums / Traps"
13, 0, Program_c, 9, 25
13, 0, Control_c, 9, 7, 75
13, 0, Control_c, 9, 121, 0
13, 0, Control_c, 9, 10, 64
13, 0, Control_c, 9, 123, 0
13, 0, Control_c, 9, 91, 40
13, 0, Control_c, 9, 93, 0
13, 1920, Note_on_c, 9, 35, 60
13, 1920, Note_on_c, 9, 38, 50
13, 1920, Note_on_c, 9, 42, 70
13, 1920, Note_on_c, 9, 49, 40
13, 1970, Note_off_c, 9, 49, 64
13, 1970, Note_off_c, 9, 42, 64
13, 1970, Note_off_c, 9, 38, 64
13, 1970, Note_off_c, 9, 35, 64
13, 2160, Note_on_c, 9, 42, 80
13, 2160, Note_on_c, 9, 37, 80
13, 2210, Note_off_c, 9, 37, 64
13, 2210, Note_off_c, 9, 42, 64
13, 2332, Note_on_c, 9, 42, 50
13, 2382, Note_off_c, 9, 42, 64
13, 2400, Note_on_c, 9, 35, 60
13, 2400, Note_on_c, 9, 42, 80
13, 2450, Note_off_c, 9, 42, 64
13, 2450, Note_off_c, 9, 35, 64
13, 2640, Note_on_c, 9, 42, 90
13, 2640, Note_on_c, 9, 37, 80
13, 2690, Note_off_c, 9, 37, 64
13, 2690, Note_off_c, 9, 42, 64
13, 2812, Note_on_c, 9, 42, 50
13, 2862, Note_off_c, 9, 42, 64
13, 2880, Note_on_c, 9, 42, 70
13, 2930, Note_off_c, 9, 42, 64
13, 3120, Note_on_c, 9, 42, 70
13, 3120, Note_on_c, 9, 37, 80
13, 3170, Note_off_c, 9, 37, 64
13, 3170, Note_off_c, 9, 42, 64
13, 3292, Note_on_c, 9, 42, 40
13, 3342, Note_off_c, 9, 42, 64
13, 3360, Note_on_c, 9, 35, 60
13, 3360, Note_on_c, 9, 42, 80
13, 3410, Note_off_c, 9, 42, 64
13, 3410, Note_off_c, 9, 35, 64
13, 3600, Note_on_c, 9, 35, 60
13, 3600, Note_on_c, 9, 42, 80
13, 3650, Note_off_c, 9, 42, 64
13, 3650, Note_off_c, 9, 35, 64
13, 3772, Note_on_c, 9, 42, 50
13, 3822, Note_off_c, 9, 42, 64
13, 3840, Note_on_c, 9, 35, 60
13, 3840, Note_on_c, 9, 42, 70
13, 3890, Note_off_c, 9, 42, 64
13, 3890, Note_off_c, 9, 35, 64
13, 4080, Note_on_c, 9, 42, 80
13, 4080, Note_on_c, 9, 37, 70
13, 4130, Note_off_c, 9, 37, 64
13, 4130, Note_off_c, 9, 42, 64
13, 4256, Note_on_c, 9, 42, 40
13, 4306, Note_off_c, 9, 42, 64
13, 4320, Note_on_c, 9, 35, 60
13, 4320, Note_on_c, 9, 42, 80
13, 4370, Note_off_c, 9, 42, 64
13, 4370, Note_off_c, 9, 35, 64
13, 4560, Note_on_c, 9, 42, 80
13, 4560, Note_on_c, 9, 37, 80
13, 4610, Note_off_c, 9, 37, 64
13, 4610, Note_off_c, 9, 42, 64
13, 4736, Note_on_c, 9, 35, 50
13, 4736, Note_on_c, 9, 42, 50
13, 4786, Note_off_c, 9, 42, 64
13, 4786, Note_off_c, 9, 35, 64
13, 4800, Note_on_c, 9, 35, 60
13, 4800, Note_on_c, 9, 42, 80
13, 4850, Note_off_c, 9, 42, 64
13, 4850, Note_off_c, 9, 35, 64
13, 5040, Note_on_c, 9, 42, 70
13, 5040, Note_on_c, 9, 37, 70
13, 5090, Note_off_c, 9, 37, 64
13, 5090, Note_off_c, 9, 42, 64
13, 5212, Note_on_c, 9, 42, 40
13, 5262, Note_off_c, 9, 42, 64
13, 5280, Note_on_c, 9, 35, 60
13, 5280, Note_on_c, 9, 42, 80
13, 5330, Note_off_c, 9, 42, 64
13, 5330, Note_off_c, 9, 35, 64
13, 5520, Note_on_c, 9, 42, 70
13, 5520, Note_on_c, 9, 37, 85
13, 5570, Note_off_c, 9, 37, 64
13, 5570, Note_off_c, 9, 42, 64
13, 5692, Note_on_c, 9, 42, 50
13, 5742, Note_off_c, 9, 42, 64
13, 5760, Note_on_c, 9, 35, 60
13, 5760, Note_on_c, 9, 42, 70
13, 5810, Note_off_c, 9, 42, 64
13, 5810, Note_off_c, 9, 35, 64
13, 5936, Note_on_c, 9, 38, 70
13, 5986, Note_off_c, 9, 38, 64
13, 6000, Note_on_c, 9, 42, 90
13, 6000, Note_on_c, 9, 37, 70
13, 6050, Note_off_c, 9, 37, 64
13, 6050, Note_off_c, 9, 42, 64
13, 6176, Note_on_c, 9, 42, 40
13, 6226, Note_off_c, 9, 42, 64
13, 6240, Note_on_c, 9, 35, 60
13, 6240, Note_on_c, 9, 42, 80
13, 6290, Note_off_c, 9, 42, 64
13, 6290, Note_off_c, 9, 35, 64
13, 6480, Note_on_c, 9, 42, 90
13, 6480, Note_on_c, 9, 37, 80
13, 6530, Note_off_c, 9, 37, 64
13, 6530, Note_off_c, 9, 42, 64
13, 6656, Note_on_c, 9, 42, 50
13, 6706, Note_off_c, 9, 42, 64
13, 6720, Note_on_c, 9, 42, 70
13, 6770, Note_off_c, 9, 42, 64
13, 6960, Note_on_c, 9, 42, 70
13, 6960, Note_on_c, 9, 37, 80
13, 7010, Note_off_c, 9, 37, 64
13, 7010, Note_off_c, 9, 42, 64
13, 7132, Note_on_c, 9, 42, 40
13, 7182, Note_off_c, 9, 42, 64
13, 7200, Note_on_c, 9, 35, 60
13, 7200, Note_on_c, 9, 42, 80
13, 7250, Note_off_c, 9, 42, 64
13, 7250, Note_off_c, 9, 35, 64
13, 7440, Note_on_c, 9, 35, 60
13, 7440, Note_on_c, 9, 42, 80
13, 7490, Note_off_c, 9, 42, 64
13, 7490, Note_off_c, 9, 35, 64
13, 7612, Note_on_c, 9, 42, 50
13, 7662, Note_off_c, 9, 42, 64
13, 7680, Note_on_c, 9, 42, 70
13, 7730, Note_off_c, 9, 42, 64
13, 7920, Note_on_c, 9, 42, 70
13, 7920, Note_on_c, 9, 37, 80
13, 7970, Note_off_c, 9, 37, 64
13, 7970, Note_off_c, 9, 42, 64
13, 8092, Note_on_c, 9, 42, 40
13, 8142, Note_off_c, 9, 42, 64
13, 8160, Note_on_c, 9, 35, 60
13, 8160, Note_on_c, 9, 42, 80
13, 8210, Note_off_c, 9, 42, 64
13, 8210, Note_off_c, 9, 35, 64
13, 8400, Note_on_c, 9, 35, 60
13, 8400, Note_on_c, 9, 42, 80
13, 8450, Note_off_c, 9, 42, 64
13, 8450, Note_off_c, 9, 35, 64
13, 8572, Note_on_c, 9, 42, 50
13, 8622, Note_off_c, 9, 42, 64
13, 8640, Note_on_c, 9, 42, 70
13, 8690, Note_off_c, 9, 42, 64
13, 8880, Note_on_c, 9, 42, 80
13, 8880, Note_on_c, 9, 37, 70
13, 8930, Note_off_c, 9, 37, 64
13, 8930, Note_off_c, 9, 42, 64
13, 9052, Note_on_c, 9, 42, 50
13, 9102, Note_off_c, 9, 42, 64
13, 9120, Note_on_c, 9, 35, 60
13, 9120, Note_on_c, 9, 42, 70
13, 9170, Note_off_c, 9, 42, 64
13, 9170, Note_off_c, 9, 35, 64
13, 9360, Note_on_c, 9, 42, 80
13, 9360, Note_on_c, 9, 37, 85
13, 9410, Note_off_c, 9, 37, 64
13, 9410, Note_off_c, 9, 42, 64
13, 9532, Note_on_c, 9, 46, 60
13, 9582, Note_off_c, 9, 46, 64
13, 9600, Note_on_c, 9, 35, 60
13, 9600, Note_on_c, 9, 42, 70
13, 9650, Note_off_c, 9, 42, 64
13, 9650, Note_off_c, 9, 35, 64
13, 9776, Note_on_c, 9, 38, 70
13, 9826, Note_off_c, 9, 38, 64
13, 9840, Note_on_c, 9, 42, 90
13, 9840, Note_on_c, 9, 37, 70
13, 9890, Note_off_c, 9, 37, 64
13, 9890, Note_off_c, 9, 42, 64
13, 10016, Note_on_c, 9, 42, 40
13, 10066, Note_off_c, 9, 42, 64
13, 10080, Note_on_c, 9, 35, 60
13, 10080, Note_on_c, 9, 42, 80
13, 10130, Note_off_c, 9, 42, 64
13, 10130, Note_off_c, 9, 35, 64
13, 10320, Note_on_c, 9, 42, 90
13, 10320, Note_on_c, 9, 37, 80
13, 10370, Note_off_c, 9, 37, 64
13, 10370, Note_off_c, 9, 42, 64
13, 10496, Note_on_c, 9, 42, 50
13, 10546, Note_off_c, 9, 42, 64
13, 10560, Note_on_c, 9, 35, 60
13, 10560, Note_on_c, 9, 42, 70
13, 10610, Note_off_c, 9, 42, 64
13, 10610, Note_off_c, 9, 35, 64
13, 10800, Note_on_c, 9, 42, 90
13, 10800, Note_on_c, 9, 37, 70
13, 10850, Note_off_c, 9, 37, 64
13, 10850, Note_off_c, 9, 42, 64
13, 10976, Note_on_c, 9, 42, 40
13, 11026, Note_off_c, 9, 42, 64
13, 11040, Note_on_c, 9, 35, 60
13, 11040, Note_on_c, 9, 42, 80
13, 11090, Note_off_c, 9, 42, 64
13, 11090, Note_off_c, 9, 35, 64
13, 11280, Note_on_c, 9, 42, 90
13, 11280, Note_on_c, 9, 37, 80
13, 11330, Note_off_c, 9, 37, 64
13, 11330, Note_off_c, 9, 42, 64
13, 11456, Note_on_c, 9, 42, 50
13, 11506, Note_off_c, 9, 42, 64
13, 11520, Note_on_c, 9, 35, 60
13, 11520, Note_on_c, 9, 42, 70
13, 11570, Note_off_c, 9, 42, 64
13, 11570, Note_off_c, 9, 35, 64
13, 11696, Note_on_c, 9, 38, 70
13, 11746, Note_off_c, 9, 38, 64
13, 11760, Note_on_c, 9, 42, 90
13, 11760, Note_on_c, 9, 37, 70
13, 11810, Note_off_c, 9, 37, 64
13, 11810, Note_off_c, 9, 42, 64
13, 11936, Note_on_c, 9, 42, 40
13, 11986, Note_off_c, 9, 42, 64
13, 12000, Note_on_c, 9, 35, 60
13, 12000, Note_on_c, 9, 42, 80
13, 12050, Note_off_c, 9, 42, 64
13, 12050, Note_off_c, 9, 35, 64
13, 12240, Note_on_c, 9, 42, 90
13, 12240, Note_on_c, 9, 37, 80
13, 12290, Note_off_c, 9, 37, 64
13, 12290, Note_off_c, 9, 42, 64
13, 12416, Note_on_c, 9, 42, 50
13, 12466, Note_off_c, 9, 42, 64
13, 12480, Note_on_c, 9, 35, 60
13, 12480, Note_on_c, 9, 42, 80
13, 12530, Note_off_c, 9, 42, 64
13, 12530, Note_off_c, 9, 35, 64
13, 12720, Note_on_c, 9, 42, 90
13, 12720, Note_on_c, 9, 37, 70
13, 12770, Note_off_c, 9, 37, 64
13, 12770, Note_off_c, 9, 42, 64
13, 12894, Note_on_c, 9, 42, 40
13, 12944, Note_off_c, 9, 42, 64
13, 12960, Note_on_c, 9, 35, 60
13, 12960, Note_on_c, 9, 42, 80
13, 13010, Note_off_c, 9, 42, 64
13, 13010, Note_off_c, 9, 35, 64
13, 13200, Note_on_c, 9, 42, 90
13, 13200, Note_on_c, 9, 37, 85
13, 13250, Note_off_c, 9, 37, 64
13, 13250, Note_off_c, 9, 42, 64
13, 13374, Note_on_c, 9, 42, 50
13, 13424, Note_off_c, 9, 42, 64
13, 13440, Note_on_c, 9, 35, 60
13, 13440, Note_on_c, 9, 42, 80
13, 13490, Note_off_c, 9, 42, 64
13, 13490, Note_off_c, 9, 35, 64
13, 13680, Note_on_c, 9, 42, 90
13, 13680, Note_on_c, 9, 37, 70
13, 13730, Note_off_c, 9, 37, 64
13, 13730, Note_off_c, 9, 42, 64
13, 13854, Note_on_c, 9, 42, 40
13, 13904, Note_off_c, 9, 42, 64
13, 13920, Note_on_c, 9, 35, 60
13, 13920, Note_on_c, 9, 42, 80
13, 13970, Note_off_c, 9, 42, 64
13, 13970, Note_off_c, 9, 35, 64
13, 14160, Note_on_c, 9, 42, 90
13, 14160, Note_on_c, 9, 37, 85
13, 14210, Note_off_c, 9, 37, 64
13, 14210, Note_off_c, 9, 42, 64
13, 14334, Note_on_c, 9, 42, 50
13, 14384, Note_off_c, 9, 42, 64
13, 14400, Note_on_c, 9, 35, 60
13, 14400, Note_on_c, 9, 42, 80
13, 14450, Note_off_c, 9, 42, 64
13, 14450, Note_off_c, 9, 35, 64
13, 14640, Note_on_c, 9, 42, 90
13, 14640, Note_on_c, 9, 37, 70
13, 14690, Note_off_c, 9, 37, 64
13, 14690, Note_off_c, 9, 42, 64
13, 14816, Note_on_c, 9, 42, 40
13, 14866, Note_off_c, 9, 42, 64
13, 14880, Note_on_c, 9, 35, 60
13, 14880, Note_on_c, 9, 42, 80
13, 14930, Note_off_c, 9, 42, 64
13, 14930, Note_off_c, 9, 35, 64
13, 15120, Note_on_c, 9, 42, 90
13, 15120, Note_on_c, 9, 37, 83
13, 15170, Note_off_c, 9, 37, 64
13, 15170, Note_off_c, 9, 42, 64
13, 15296, Note_on_c, 9, 42, 50
13, 15346, Note_off_c, 9, 42, 64
13, 15360, Note_on_c, 9, 35, 60
13, 15360, Note_on_c, 9, 42, 70
13, 15410, Note_off_c, 9, 42, 64
13, 15410, Note_off_c, 9, 35, 64
13, 15600, Note_on_c, 9, 42, 80
13, 15600, Note_on_c, 9, 37, 70
13, 15650, Note_off_c, 9, 37, 64
13, 15650, Note_off_c, 9, 42, 64
13, 15776, Note_on_c, 9, 42, 40
13, 15826, Note_off_c, 9, 42, 64
13, 15840, Note_on_c, 9, 35, 60
13, 15840, Note_on_c, 9, 42, 80
13, 15890, Note_off_c, 9, 42, 64
13, 15890, Note_off_c, 9, 35, 64
13, 16080, Note_on_c, 9, 42, 80
13, 16080, Note_on_c, 9, 37, 80
13, 16130, Note_off_c, 9, 37, 64
13, 16130, Note_off_c, 9, 42, 64
13, 16256, Note_on_c, 9, 42, 50
13, 16306, Note_off_c, 9, 42, 64
13, 16320, Note_on_c, 9, 35, 60
13, 16320, Note_on_c, 9, 42, 80
13, 16370, Note_off_c, 9, 42, 64
13, 16370, Note_off_c, 9, 35, 64
13, 16492, Note_on_c, 9, 38, 40
13, 16542, Note_off_c, 9, 38, 64
13, 16560, Note_on_c, 9, 42, 90
13, 16610, Note_off_c, 9, 42, 64
13, 16732, Note_on_c, 9, 38, 40
13, 16782, Note_off_c, 9, 38, 64
13, 16800, Note_on_c, 9, 35, 60
13, 16800, Note_on_c, 9, 42, 70
13, 16850, Note_off_c, 9, 42, 64
13, 16850, Note_off_c, 9, 35, 64
13, 16972, Note_on_c, 9, 38, 50
13, 17022, Note_off_c, 9, 38, 64
13, 17040, Note_on_c, 9, 35, 70
13, 17040, Note_on_c, 9, 42, 90
13, 17090, Note_off_c, 9, 42, 64
13, 17090, Note_off_c, 9, 35, 64
13, 17120, Note_on_c, 9, 38, 30
13, 17170, Note_off_c, 9, 38, 64
13, 17212, Note_on_c, 9, 38, 50
13, 17262, Note_off_c, 9, 38, 64
13, 17280, Note_on_c, 9, 51, 70
13, 17330, Note_off_c, 9, 51, 64
13, 17520, Note_on_c, 9, 42, 100
13, 17520, Note_on_c, 9, 37, 70
13, 17520, Note_on_c, 9, 51, 90
13, 17570, Note_off_c, 9, 51, 64
13, 17570, Note_off_c, 9, 37, 64
13, 17570, Note_off_c, 9, 42, 64
13, 17694, Note_on_c, 9, 38, 40
13, 17694, Note_on_c, 9, 51, 50
13, 17744, Note_off_c, 9, 51, 64
13, 17744, Note_off_c, 9, 38, 64
13, 17760, Note_on_c, 9, 51, 80
13, 17810, Note_off_c, 9, 51, 64
13, 18000, Note_on_c, 9, 42, 100
13, 18000, Note_on_c, 9, 37, 70
13, 18000, Note_on_c, 9, 51, 90
13, 18050, Note_off_c, 9, 51, 64
13, 18050, Note_off_c, 9, 37, 64
13, 18050, Note_off_c, 9, 42, 64
13, 18174, Note_on_c, 9, 38, 40
13, 18174, Note_on_c, 9, 51, 50
13, 18224, Note_off_c, 9, 51, 64
13, 18224, Note_off_c, 9, 38, 64
13, 18240, Note_on_c, 9, 51, 80
13, 18290, Note_off_c, 9, 51, 64
13, 18480, Note_on_c, 9, 42, 80
13, 18480, Note_on_c, 9, 37, 70
13, 18480, Note_on_c, 9, 51, 90
13, 18530, Note_off_c, 9, 51, 64
13, 18530, Note_off_c, 9, 37, 64
13, 18530, Note_off_c, 9, 42, 64
13, 18656, Note_on_c, 9, 51, 70
13, 18706, Note_off_c, 9, 51, 64
13, 18720, Note_on_c, 9, 38, 40
13, 18720, Note_on_c, 9, 51, 80
13, 18770, Note_off_c, 9, 51, 64
13, 18770, Note_off_c, 9, 38, 64
13, 18960, Note_on_c, 9, 42, 100
13, 18960, Note_on_c, 9, 37, 70
13, 18960, Note_on_c, 9, 51, 90
13, 19010, Note_off_c, 9, 51, 64
13, 19010, Note_off_c, 9, 37, 64
13, 19010, Note_off_c, 9, 42, 64
13, 19136, Note_on_c, 9, 51, 70
13, 19186, Note_off_c, 9, 51, 64
13, 19200, Note_on_c, 9, 51, 70
13, 19250, Note_off_c, 9, 51, 64
13, 19440, Note_on_c, 9, 42, 90
13, 19440, Note_on_c, 9, 37, 60
13, 19440, Note_on_c, 9, 51, 90
13, 19490, Note_off_c, 9, 51, 64
13, 19490, Note_off_c, 9, 37, 64
13, 19490, Note_off_c, 9, 42, 64
13, 19616, Note_on_c, 9, 38, 40
13, 19616, Note_on_c, 9, 51, 70
13, 19666, Note_off_c, 9, 51, 64
13, 19666, Note_off_c, 9, 38, 64
13, 19680, Note_on_c, 9, 51, 80
13, 19730, Note_off_c, 9, 51, 64
13, 19920, Note_on_c, 9, 42, 100
13, 19920, Note_on_c, 9, 37, 70
13, 19920, Note_on_c, 9, 51, 90
13, 19970, Note_off_c, 9, 51, 64
13, 19970, Note_off_c, 9, 37, 64
13, 19970, Note_off_c, 9, 42, 64
13, 20096, Note_on_c, 9, 51, 70
13, 20146, Note_off_c, 9, 51, 64
13, 20160, Note_on_c, 9, 51, 80
13, 20210, Note_off_c, 9, 51, 64
13, 20336, Note_on_c, 9, 38, 30
13, 20386, Note_off_c, 9, 38, 64
13, 20400, Note_on_c, 9, 42, 80
13, 20400, Note_on_c, 9, 37, 70
13, 20400, Note_on_c, 9, 51, 90
13, 20450, Note_off_c, 9, 51, 64
13, 20450, Note_off_c, 9, 37, 64
13, 20450, Note_off_c, 9, 42, 64
13, 20576, Note_on_c, 9, 38, 40
13, 20576, Note_on_c, 9, 51, 70
13, 20626, Note_off_c, 9, 51, 64
13, 20626, Note_off_c, 9, 38, 64
13, 20640, Note_on_c, 9, 51, 80
13, 20690, Note_off_c, 9, 51, 64
13, 20816, Note_on_c, 9, 38, 30
13, 20866, Note_off_c, 9, 38, 64
13, 20880, Note_on_c, 9, 42, 100
13, 20880, Note_on_c, 9, 37, 70
13, 20880, Note_on_c, 9, 51, 90
13, 20930, Note_off_c, 9, 51, 64
13, 20930, Note_off_c, 9, 37, 64
13, 20930, Note_off_c, 9, 42, 64
13, 21056, Note_on_c, 9, 51, 70
13, 21106, Note_off_c, 9, 51, 64
13, 21120, Note_on_c, 9, 51, 70
13, 21170, Note_off_c, 9, 51, 64
13, 21360, Note_on_c, 9, 42, 100
13, 21360, Note_on_c, 9, 37, 70
13, 21360, Note_on_c, 9, 51, 90
13, 21410, Note_off_c, 9, 51, 64
13, 21410, Note_off_c, 9, 37, 64
13, 21410, Note_off_c, 9, 42, 64
13, 21534, Note_on_c, 9, 38, 40
13, 21534, Note_on_c, 9, 51, 50
13, 21584, Note_off_c, 9, 51, 64
13, 21584, Note_off_c, 9, 38, 64
13, 21600, Note_on_c, 9, 51, 80
13, 21650, Note_off_c, 9, 51, 64
13, 21840, Note_on_c, 9, 42, 100
13, 21840, Note_on_c, 9, 37, 70
13, 21840, Note_on_c, 9, 51, 90
13, 21890, Note_off_c, 9, 51, 64
13, 21890, Note_off_c, 9, 37, 64
13, 21890, Note_off_c, 9, 42, 64
13, 22014, Note_on_c, 9, 38, 40
13, 22014, Note_on_c, 9, 51, 50
13, 22064, Note_off_c, 9, 51, 64
13, 22064, Note_off_c, 9, 38, 64
13, 22080, Note_on_c, 9, 51, 80
13, 22130, Note_off_c, 9, 51, 64
13, 22320, Note_on_c, 9, 42, 80
13, 22320, Note_on_c, 9, 37, 70
13, 22320, Note_on_c, 9, 51, 90
13, 22370, Note_off_c, 9, 51, 64
13, 22370, Note_off_c, 9, 37, 64
13, 22370, Note_off_c, 9, 42, 64
13, 22496, Note_on_c, 9, 38, 30
13, 22496, Note_on_c, 9, 51, 70
13, 22546, Note_off_c, 9, 51, 64
13, 22546, Note_off_c, 9, 38, 64
13, 22560, Note_on_c, 9, 38, 40
13, 22560, Note_on_c, 9, 51, 80
13, 22610, Note_off_c, 9, 51, 64
13, 22610, Note_off_c, 9, 38, 64
13, 22800, Note_on_c, 9, 42, 100
13, 22800, Note_on_c, 9, 37, 70
13, 22800, Note_on_c, 9, 51, 90
13, 22850, Note_off_c, 9, 51, 64
13, 22850, Note_off_c, 9, 37, 64
13, 22850, Note_off_c, 9, 42, 64
13, 22976, Note_on_c, 9, 51, 70
13, 23026, Note_off_c, 9, 51, 64
13, 23040, Note_on_c, 9, 51, 70
13, 23090, Note_off_c, 9, 51, 64
13, 23280, Note_on_c, 9, 42, 100
13, 23280, Note_on_c, 9, 37, 70
13, 23280, Note_on_c, 9, 51, 90
13, 23330, Note_off_c, 9, 51, 64
13, 23330, Note_off_c, 9, 37, 64
13, 23330, Note_off_c, 9, 42, 64
13, 23454, Note_on_c, 9, 38, 40
13, 23454, Note_on_c, 9, 51, 50
13, 23504, Note_off_c, 9, 51, 64
13, 23504, Note_off_c, 9, 38, 64
13, 23520, Note_on_c, 9, 51, 80
13, 23570, Note_off_c, 9, 51, 64
13, 23760, Note_on_c, 9, 42, 100
13, 23760, Note_on_c, 9, 37, 70
13, 23760, Note_on_c, 9, 51, 90
13, 23810, Note_off_c, 9, 51, 64
13, 23810, Note_off_c, 9, 37, 64
13, 23810, Note_off_c, 9, 42, 64
13, 23934, Note_on_c, 9, 38, 40
13, 23934, Note_on_c, 9, 51, 50
13, 23984, Note_off_c, 9, 51, 64
13, 23984, Note_off_c, 9, 38, 64
13, 24000, Note_on_c, 9, 51, 80
13, 24050, Note_off_c, 9, 51, 64
13, 24176, Note_on_c, 9, 38, 30
13, 24226, Note_off_c, 9, 38, 64
13, 24240, Note_on_c, 9, 42, 80
13, 24240, Note_on_c, 9, 37, 70
13, 24240, Note_on_c, 9, 51, 90
13, 24290, Note_off_c, 9, 51, 64
13, 24290, Note_off_c, 9, 37, 64
13, 24290, Note_off_c, 9, 42, 64
13, 24416, Note_on_c, 9, 38, 40
13, 24416, Note_on_c, 9, 51, 70
13, 24466, Note_off_c, 9, 51, 64
13, 24466, Note_off_c, 9, 38, 64
13, 24480, Note_on_c, 9, 51, 80
13, 24530, Note_off_c, 9, 51, 64
13, 24656, Note_on_c, 9, 38, 30
13, 24706, Note_off_c, 9, 38, 64
13, 24720, Note_on_c, 9, 42, 100
13, 24720, Note_on_c, 9, 37, 70
13, 24720, Note_on_c, 9, 51, 90
13, 24770, Note_off_c, 9, 51, 64
13, 24770, Note_off_c, 9, 37, 64
13, 24770, Note_off_c, 9, 42, 64
13, 24896, Note_on_c, 9, 51, 70
13, 24946, Note_off_c, 9, 51, 64
13, 24960, Note_on_c, 9, 51, 80
13, 25010, Note_off_c, 9, 51, 64
13, 25200, Note_on_c, 9, 42, 80
13, 25200, Note_on_c, 9, 37, 70
13, 25200, Note_on_c, 9, 51, 90
13, 25250, Note_off_c, 9, 51, 64
13, 25250, Note_off_c, 9, 37, 64
13, 25250, Note_off_c, 9, 42, 64
13, 25376, Note_on_c, 9, 51, 70
13, 25426, Note_off_c, 9, 51, 64
13, 25440, Note_on_c, 9, 38, 40
13, 25440, Note_on_c, 9, 51, 80
13, 25490, Note_off_c, 9, 51, 64
13, 25490, Note_off_c, 9, 38, 64
13, 25680, Note_on_c, 9, 42, 100
13, 25680, Note_on_c, 9, 37, 70
13, 25680, Note_on_c, 9, 51, 90
13, 25730, Note_off_c, 9, 51, 64
13, 25730, Note_off_c, 9, 37, 64
13, 25730, Note_off_c, 9, 42, 64
13, 25856, Note_on_c, 9, 51, 70
13, 25906, Note_off_c, 9, 51, 64
13, 25920, Note_on_c, 9, 51, 80
13, 25970, Note_off_c, 9, 51, 64
13, 26160, Note_on_c, 9, 42, 70
13, 26160, Note_on_c, 9, 37, 70
13, 26160, Note_on_c, 9, 51, 90
13, 26210, Note_off_c, 9, 51, 64
13, 26210, Note_off_c, 9, 37, 64
13, 26210, Note_off_c, 9, 42, 64
13, 26334, Note_on_c, 9, 38, 40
13, 26334, Note_on_c, 9, 51, 70
13, 26384, Note_off_c, 9, 51, 64
13, 26384, Note_off_c, 9, 38, 64
13, 26400, Note_on_c, 9, 51, 90
13, 26450, Note_off_c, 9, 51, 64
13, 26640, Note_on_c, 9, 42, 100
13, 26640, Note_on_c, 9, 51, 90
13, 26690, Note_off_c, 9, 51, 64
13, 26690, Note_off_c, 9, 42, 64
13, 26814, Note_on_c, 9, 51, 70
13, 26864, Note_off_c, 9, 51, 64
13, 26880, Note_on_c, 9, 51, 70
13, 26930, Note_off_c, 9, 51, 64
13, 27120, Note_on_c, 9, 42, 100
13, 27120, Note_on_c, 9, 37, 70
13, 27120, Note_on_c, 9, 51, 90
13, 27170, Note_off_c, 9, 51, 64
13, 27170, Note_off_c, 9, 37, 64
13, 27170, Note_off_c, 9, 42, 64
13, 27294, Note_on_c, 9, 38, 40
13, 27294, Note_on_c, 9, 51, 50
13, 27344, Note_off_c, 9, 51, 64
13, 27344, Note_off_c, 9, 38, 64
13, 27360, Note_on_c, 9, 51, 80
13, 27410, Note_off_c, 9, 51, 64
13, 27600, Note_on_c, 9, 42, 100
13, 27600, Note_on_c, 9, 37, 70
13, 27600, Note_on_c, 9, 51, 90
13, 27650, Note_off_c, 9, 51, 64
13, 27650, Note_off_c, 9, 37, 64
13, 27650, Note_off_c, 9, 42, 64
13, 27774, Note_on_c, 9, 38, 40
13, 27774, Note_on_c, 9, 51, 50
13, 27824, Note_off_c, 9, 51, 64
13, 27824, Note_off_c, 9, 38, 64
13, 27840, Note_on_c, 9, 51, 80
13, 27890, Note_off_c, 9, 51, 64
13, 28080, Note_on_c, 9, 42, 80
13, 28080, Note_on_c, 9, 37, 70
13, 28080, Note_on_c, 9, 51, 100
13, 28130, Note_off_c, 9, 51, 64
13, 28130, Note_off_c, 9, 37, 64
13, 28130, Note_off_c, 9, 42, 64
13, 28256, Note_on_c, 9, 38, 40
13, 28256, Note_on_c, 9, 51, 70
13, 28306, Note_off_c, 9, 51, 64
13, 28306, Note_off_c, 9, 38, 64
13, 28320, Note_on_c, 9, 51, 80
13, 28370, Note_off_c, 9, 51, 64
13, 28496, Note_on_c, 9, 38, 60
13, 28546, Note_off_c, 9, 38, 64
13, 28560, Note_on_c, 9, 42, 100
13, 28560, Note_on_c, 9, 37, 80
13, 28560, Note_on_c, 9, 51, 90
13, 28610, Note_off_c, 9, 51, 64
13, 28610, Note_off_c, 9, 37, 64
13, 28610, Note_off_c, 9, 42, 64
13, 28736, Note_on_c, 9, 38, 50
13, 28736, Note_on_c, 9, 51, 70
13, 28786, Note_off_c, 9, 51, 64
13, 28786, Note_off_c, 9, 38, 64
13, 28800, Note_on_c, 9, 51, 70
13, 28850, Note_off_c, 9, 51, 64
13, 29040, Note_on_c, 9, 42, 90
13, 29040, Note_on_c, 9, 37, 60
13, 29040, Note_on_c, 9, 51, 90
13, 29090, Note_off_c, 9, 51, 64
13, 29090, Note_off_c, 9, 37, 64
13, 29090, Note_off_c, 9, 42, 64
13, 29216, Note_on_c, 9, 38, 40
13, 29216, Note_on_c, 9, 51, 70
13, 29266, Note_off_c, 9, 51, 64
13, 29266, Note_off_c, 9, 38, 64
13, 29280, Note_on_c, 9, 51, 80
13, 29330, Note_off_c, 9, 51, 64
13, 29520, Note_on_c, 9, 42, 100
13, 29520, Note_on_c, 9, 37, 70
13, 29520, Note_on_c, 9, 51, 90
13, 29570, Note_off_c, 9, 51, 64
13, 29570, Note_off_c, 9, 37, 64
13, 29570, Note_off_c, 9, 42, 64
13, 29696, Note_on_c, 9, 51, 70
13, 29746, Note_off_c, 9, 51, 64
13, 29760, Note_on_c, 9, 51, 80
13, 29810, Note_off_c, 9, 51, 64
13, 30000, Note_on_c, 9, 42, 70
13, 30000, Note_on_c, 9, 37, 70
13, 30000, Note_on_c, 9, 51, 90
13, 30050, Note_off_c, 9, 51, 64
13, 30050, Note_off_c, 9, 37, 64
13, 30050, Note_off_c, 9, 42, 64
13, 30174, Note_on_c, 9, 51, 70
13, 30224, Note_off_c, 9, 51, 64
13, 30240, Note_on_c, 9, 51, 90
13, 30290, Note_off_c, 9, 51, 64
13, 30480, Note_on_c, 9, 42, 100
13, 30480, Note_on_c, 9, 51, 90
13, 30530, Note_off_c, 9, 51, 64
13, 30530, Note_off_c, 9, 42, 64
13, 30654, Note_on_c, 9, 51, 70
13, 30704, Note_off_c, 9, 51, 64
13, 30720, Note_on_c, 9, 51, 70
13, 30770, Note_off_c, 9, 51, 64
13, 30960, Note_on_c, 9, 42, 90
13, 30960, Note_on_c, 9, 37, 60
13, 30960, Note_on_c, 9, 51, 90
13, 31010, Note_off_c, 9, 51, 64
13, 31010, Note_off_c, 9, 37, 64
13, 31010, Note_off_c, 9, 42, 64
13, 31136, Note_on_c, 9, 38, 40
13, 31136, Note_on_c, 9, 51, 70
13, 31186, Note_off_c, 9, 51, 64
13, 31186, Note_off_c, 9, 38, 64
13, 31200, Note_on_c, 9, 51, 80
13, 31250, Note_off_c, 9, 51, 64
13, 31440, Note_on_c, 9, 42, 100
13, 31440, Note_on_c, 9, 37, 70
13, 31440, Note_on_c, 9, 51, 90
13, 31490, Note_off_c, 9, 51, 64
13, 31490, Note_off_c, 9, 37, 64
13, 31490, Note_off_c, 9, 42, 64
13, 31616, Note_on_c, 9, 51, 70
13, 31666, Note_off_c, 9, 51, 64
13, 31680, Note_on_c, 9, 35, 70
13, 31680, Note_on_c, 9, 51, 70
13, 31730, Note_off_c, 9, 51, 64
13, 31730, Note_off_c, 9, 35, 64
13, 31920, Note_on_c, 9, 42, 90
13, 31920, Note_on_c, 9, 37, 60
13, 31920, Note_on_c, 9, 51, 90
13, 31970, Note_off_c, 9, 51, 64
13, 31970, Note_off_c, 9, 37, 64
13, 31970, Note_off_c, 9, 42, 64
13, 32096, Note_on_c, 9, 38, 50
13, 32096, Note_on_c, 9, 51, 70
13, 32146, Note_off_c, 9, 51, 64
13, 32146, Note_off_c, 9, 38, 64
13, 32160, Note_on_c, 9, 51, 80
13, 32210, Note_off_c, 9, 51, 64
13, 32336, Note_on_c, 9, 38, 60
13, 32336, Note_on_c, 9, 46, 40
13, 32386, Note_off_c, 9, 46, 64
13, 32386, Note_off_c, 9, 38, 64
13, 32400, Note_on_c, 9, 42, 100
13, 32400, Note_on_c, 9, 37, 100
13, 32400, Note_on_c, 9, 51, 90
13, 32450, Note_off_c, 9, 51, 64
13, 32450, Note_off_c, 9, 37, 64
13, 32450, Note_off_c, 9, 42, 64
13, 32576, Note_on_c, 9, 35, 60
13, 32576, Note_on_c, 9, 38, 70
13, 32576, Note_on_c, 9, 51, 70
13, 32626, Note_off_c, 9, 51, 64
13, 32626, Note_off_c, 9, 38, 64
13, 32626, Note_off_c, 9, 35, 64
13, 32640, Note_on_c, 9, 51, 80
13, 32690, Note_off_c, 9, 51, 64
13, 32880, Note_on_c, 9, 42, 80
13, 32880, Note_on_c, 9, 37, 70
13, 32880, Note_on_c, 9, 51, 90
13, 32930, Note_off_c, 9, 51, 64
13, 32930, Note_off_c, 9, 37, 64
13, 32930, Note_off_c, 9, 42, 64
13, 33056, Note_on_c, 9, 38, 30
13, 33056, Note_on_c, 9, 51, 70
13, 33106, Note_off_c, 9, 51, 64
13, 33106, Note_off_c, 9, 38, 64
13, 33120, Note_on_c, 9, 38, 40
13, 33120, Note_on_c, 9, 51, 80
13, 33170, Note_off_c, 9, 51, 64
13, 33170, Note_off_c, 9, 38, 64
13, 33360, Note_on_c, 9, 42, 100
13, 33360, Note_on_c, 9, 37, 70
13, 33360, Note_on_c, 9, 51, 90
13, 33410, Note_off_c, 9, 51, 64
13, 33410, Note_off_c, 9, 37, 64
13, 33410, Note_off_c, 9, 42, 64
13, 33536, Note_on_c, 9, 51, 70
13, 33586, Note_off_c, 9, 51, 64
13, 33600, Note_on_c, 9, 51, 80
13, 33650, Note_off_c, 9, 51, 64
13, 33840, Note_on_c, 9, 42, 70
13, 33840, Note_on_c, 9, 37, 70
13, 33840, Note_on_c, 9, 51, 90
13, 33890, Note_off_c, 9, 51, 64
13, 33890, Note_off_c, 9, 37, 64
13, 33890, Note_off_c, 9, 42, 64
13, 34014, Note_on_c, 9, 51, 70
13, 34064, Note_off_c, 9, 51, 64
13, 34080, Note_on_c, 9, 51, 90
13, 34130, Note_off_c, 9, 51, 64
13, 34320, Note_on_c, 9, 42, 100
13, 34320, Note_on_c, 9, 51, 90
13, 34370, Note_off_c, 9, 51, 64
13, 34370, Note_off_c, 9, 42, 64
13, 34494, Note_on_c, 9, 51, 70
13, 34544, Note_off_c, 9, 51, 64
13, 34560, Note_on_c, 9, 51, 80
13, 34610, Note_off_c, 9, 51, 64
13, 34800, Note_on_c, 9, 42, 80
13, 34800, Note_on_c, 9, 37, 70
13, 34800, Note_on_c, 9, 51, 90
13, 34850, Note_off_c, 9, 51, 64
13, 34850, Note_off_c, 9, 37, 64
13, 34850, Note_off_c, 9, 42, 64
13, 34976, Note_on_c, 9, 38, 30
13, 34976, Note_on_c, 9, 51, 70
13, 35026, Note_off_c, 9, 51, 64
13, 35026, Note_off_c, 9, 38, 64
13, 35040, Note_on_c, 9, 38, 40
13, 35040, Note_on_c, 9, 51, 80
13, 35090, Note_off_c, 9, 51, 64
13, 35090, Note_off_c, 9, 38, 64
13, 35280, Note_on_c, 9, 42, 100
13, 35280, Note_on_c, 9, 37, 70
13, 35280, Note_on_c, 9, 51, 90
13, 35330, Note_off_c, 9, 51, 64
13, 35330, Note_off_c, 9, 37, 64
13, 35330, Note_off_c, 9, 42, 64
13, 35456, Note_on_c, 9, 51, 70
13, 35506, Note_off_c, 9, 51, 64
13, 35520, Note_on_c, 9, 51, 80
13, 35570, Note_off_c, 9, 51, 64
13, 35760, Note_on_c, 9, 42, 80
13, 35760, Note_on_c, 9, 37, 70
13, 35760, Note_on_c, 9, 51, 90
13, 35810, Note_off_c, 9, 51, 64
13, 35810, Note_off_c, 9, 37, 64
13, 35810, Note_off_c, 9, 42, 64
13, 35936, Note_on_c, 9, 51, 70
13, 35986, Note_off_c, 9, 51, 64
13, 36000, Note_on_c, 9, 38, 40
13, 36000, Note_on_c, 9, 51, 80
13, 36050, Note_off_c, 9, 51, 64
13, 36050, Note_off_c, 9, 38, 64
13, 36240, Note_on_c, 9, 42, 100
13, 36240, Note_on_c, 9, 37, 70
13, 36240, Note_on_c, 9, 51, 90
13, 36290, Note_off_c, 9, 51, 64
13, 36290, Note_off_c, 9, 37, 64
13, 36290, Note_off_c, 9, 42, 64
13, 36416, Note_on_c, 9, 51, 70
13, 36466, Note_off_c, 9, 51, 64
13, 36480, Note_on_c, 9, 51, 70
13, 36530, Note_off_c, 9, 51, 64
13, 36720, Note_on_c, 9, 42, 90
13, 36720, Note_on_c, 9, 37, 60
13, 36720, Note_on_c, 9, 51, 90
13, 36770, Note_off_c, 9, 51, 64
13, 36770, Note_off_c, 9, 37, 64
13, 36770, Note_off_c, 9, 42, 64
13, 36896, Note_on_c, 9, 38, 40
13, 36896, Note_on_c, 9, 51, 70
13, 36946, Note_off_c, 9, 51, 64
13, 36946, Note_off_c, 9, 38, 64
13, 36960, Note_on_c, 9, 51, 80
13, 37010, Note_off_c, 9, 51, 64
13, 37200, Note_on_c, 9, 42, 100
13, 37200, Note_on_c, 9, 37, 70
13, 37200, Note_on_c, 9, 51, 90
13, 37250, Note_off_c, 9, 51, 64
13, 37250, Note_off_c, 9, 37, 64
13, 37250, Note_off_c, 9, 42, 64
13, 37376, Note_on_c, 9, 51, 70
13, 37426, Note_off_c, 9, 51, 64
13, 37440, Note_on_c, 9, 51, 80
13, 37490, Note_off_c, 9, 51, 64
13, 37680, Note_on_c, 9, 42, 80
13, 37680, Note_on_c, 9, 37, 70
13, 37680, Note_on_c, 9, 51, 90
13, 37730, Note_off_c, 9, 51, 64
13, 37730, Note_off_c, 9, 37, 64
13, 37730, Note_off_c, 9, 42, 64
13, 37856, Note_on_c, 9, 51, 70
13, 37906, Note_off_c, 9, 51, 64
13, 37920, Note_on_c, 9, 38, 40
13, 37920, Note_on_c, 9, 51, 80
13, 37970, Note_off_c, 9, 51, 64
13, 37970, Note_off_c, 9, 38, 64
13, 38160, Note_on_c, 9, 42, 100
13, 38160, Note_on_c, 9, 37, 70
13, 38160, Note_on_c, 9, 51, 90
13, 38210, Note_off_c, 9, 51, 64
13, 38210, Note_off_c, 9, 37, 64
13, 38210, Note_off_c, 9, 42, 64
13, 38336, Note_on_c, 9, 51, 70
13, 38386, Note_off_c, 9, 51, 64
13, 38400, Note_on_c, 9, 51, 70
13, 38450, Note_off_c, 9, 51, 64
13, 38576, Note_on_c, 9, 38, 60
13, 38626, Note_off_c, 9, 38, 64
13, 38640, Note_on_c, 9, 42, 90
13, 38640, Note_on_c, 9, 37, 60
13, 38640, Note_on_c, 9, 51, 90
13, 38690, Note_off_c, 9, 51, 64
13, 38690, Note_off_c, 9, 37, 64
13, 38690, Note_off_c, 9, 42, 64
13, 38816, Note_on_c, 9, 38, 40
13, 38816, Note_on_c, 9, 51, 70
13, 38866, Note_off_c, 9, 51, 64
13, 38866, Note_off_c, 9, 38, 64
13, 38880, Note_on_c, 9, 51, 80
13, 38930, Note_off_c, 9, 51, 64
13, 39120, Note_on_c, 9, 42, 100
13, 39120, Note_on_c, 9, 37, 70
13, 39120, Note_on_c, 9, 51, 90
13, 39170, Note_off_c, 9, 51, 64
13, 39170, Note_off_c, 9, 37, 64
13, 39170, Note_off_c, 9, 42, 64
13, 39296, Note_on_c, 9, 51, 70
13, 39346, Note_off_c, 9, 51, 64
13, 39360, Note_on_c, 9, 51, 80
13, 39410, Note_off_c, 9, 51, 64
13, 39600, Note_on_c, 9, 42, 80
13, 39600, Note_on_c, 9, 37, 70
13, 39600, Note_on_c, 9, 51, 100
13, 39650, Note_off_c, 9, 51, 64
13, 39650, Note_off_c, 9, 37, 64
13, 39650, Note_off_c, 9, 42, 64
13, 39776, Note_on_c, 9, 38, 40
13, 39776, Note_on_c, 9, 51, 70
13, 39826, Note_off_c, 9, 51, 64
13, 39826, Note_off_c, 9, 38, 64
13, 39840, Note_on_c, 9, 51, 80
13, 39890, Note_off_c, 9, 51, 64
13, 40016, Note_on_c, 9, 38, 60
13, 40016, Note_on_c, 9, 51, 50
13, 40066, Note_off_c, 9, 51, 64
13, 40066, Note_off_c, 9, 38, 64
13, 40080, Note_on_c, 9, 42, 100
13, 40080, Note_on_c, 9, 37, 80
13, 40080, Note_on_c, 9, 51, 90
13, 40130, Note_off_c, 9, 51, 64
13, 40130, Note_off_c, 9, 37, 64
13, 40130, Note_off_c, 9, 42, 64
13, 40256, Note_on_c, 9, 38, 50
13, 40256, Note_on_c, 9, 51, 70
13, 40306, Note_off_c, 9, 51, 64
13, 40306, Note_off_c, 9, 38, 64
13, 40320, Note_on_c, 9, 51, 70
13, 40370, Note_off_c, 9, 51, 64
13, 40560, Note_on_c, 9, 42, 100
13, 40560, Note_on_c, 9, 37, 70
13, 40560, Note_on_c, 9, 51, 90
13, 40610, Note_off_c, 9, 51, 64
13, 40610, Note_off_c, 9, 37, 64
13, 40610, Note_off_c, 9, 42, 64
13, 40734, Note_on_c, 9, 38, 40
13, 40734, Note_on_c, 9, 51, 50
13, 40784, Note_off_c, 9, 51, 64
13, 40784, Note_off_c, 9, 38, 64
13, 40800, Note_on_c, 9, 51, 80
13, 40850, Note_off_c, 9, 51, 64
13, 41040, Note_on_c, 9, 42, 100
13, 41040, Note_on_c, 9, 37, 70
13, 41040, Note_on_c, 9, 51, 90
13, 41090, Note_off_c, 9, 51, 64
13, 41090, Note_off_c, 9, 37, 64
13, 41090, Note_off_c, 9, 42, 64
13, 41214, Note_on_c, 9, 38, 40
13, 41214, Note_on_c, 9, 51, 50
13, 41264, Note_off_c, 9, 51, 64
13, 41264, Note_off_c, 9, 38, 64
13, 41280, Note_on_c, 9, 51, 80
13, 41330, Note_off_c, 9, 51, 64
13, 41520, Note_on_c, 9, 42, 80
13, 41520, Note_on_c, 9, 37, 70
13, 41520, Note_on_c, 9, 51, 90
13, 41570, Note_off_c, 9, 51, 64
13, 41570, Note_off_c, 9, 37, 64
13, 41570, Note_off_c, 9, 42, 64
13, 41696, Note_on_c, 9, 51, 70
13, 41746, Note_off_c, 9, 51, 64
13, 41760, Note_on_c, 9, 38, 40
13, 41760, Note_on_c, 9, 51, 80
13, 41810, Note_off_c, 9, 51, 64
13, 41810, Note_off_c, 9, 38, 64
13, 42000, Note_on_c, 9, 42, 100
13, 42000, Note_on_c, 9, 37, 70
13, 42000, Note_on_c, 9, 51, 90
13, 42050, Note_off_c, 9, 51, 64
13, 42050, Note_off_c, 9, 37, 64
13, 42050, Note_off_c, 9, 42, 64
13, 42176, Note_on_c, 9, 51, 70
13, 42226, Note_off_c, 9, 51, 64
13, 42240, Note_on_c, 9, 51, 70
13, 42290, Note_off_c, 9, 51, 64
13, 42480, Note_on_c, 9, 42, 100
13, 42480, Note_on_c, 9, 37, 70
13, 42480, Note_on_c, 9, 51, 90
13, 42530, Note_off_c, 9, 51, 64
13, 42530, Note_off_c, 9, 37, 64
13, 42530, Note_off_c, 9, 42, 64
13, 42654, Note_on_c, 9, 38, 40
13, 42654, Note_on_c, 9, 51, 50
13, 42704, Note_off_c, 9, 51, 64
13, 42704, Note_off_c, 9, 38, 64
13, 42720, Note_on_c, 9, 51, 80
13, 42770, Note_off_c, 9, 51, 64
13, 42960, Note_on_c, 9, 42, 100
13, 42960, Note_on_c, 9, 37, 70
13, 42960, Note_on_c, 9, 51, 90
13, 43010, Note_off_c, 9, 51, 64
13, 43010, Note_off_c, 9, 37, 64
13, 43010, Note_off_c, 9, 42, 64
13, 43134, Note_on_c, 9, 38, 40
13, 43134, Note_on_c, 9, 51, 50
13, 43184, Note_off_c, 9, 51, 64
13, 43184, Note_off_c, 9, 38, 64
13, 43200, Note_on_c, 9, 51, 80
13, 43250, Note_off_c, 9, 51, 64
13, 43440, Note_on_c, 9, 42, 80
13, 43440, Note_on_c, 9, 37, 70
13, 43440, Note_on_c, 9, 51, 90
13, 43490, Note_off_c, 9, 51, 64
13, 43490, Note_off_c, 9, 37, 64
13, 43490, Note_off_c, 9, 42, 64
13, 43612, Note_on_c, 9, 35, 70
13, 43612, Note_on_c, 9, 51, 70
13, 43662, Note_off_c, 9, 51, 64
13, 43662, Note_off_c, 9, 35, 64
13, 43680, Note_on_c, 9, 51, 80
13, 43730, Note_off_c, 9, 51, 64
13, 43852, Note_on_c, 9, 38, 60
13, 43902, Note_off_c, 9, 38, 64
13, 43920, Note_on_c, 9, 42, 100
13, 43920, Note_on_c, 9, 37, 80
13, 43920, Note_on_c, 9, 51, 90
13, 43970, Note_off_c, 9, 51, 64
13, 43970, Note_off_c, 9, 37, 64
13, 43970, Note_off_c, 9, 42, 64
13, 44092, Note_on_c, 9, 38, 50
13, 44092, Note_on_c, 9, 51, 70
13, 44142, Note_off_c, 9, 51, 64
13, 44142, Note_off_c, 9, 38, 64
13, 44160, Note_on_c, 9, 51, 80
13, 44210, Note_off_c, 9, 51, 64
13, 44400, Note_on_c, 9, 42, 80
13, 44400, Note_on_c, 9, 37, 70
13, 44400, Note_on_c, 9, 51, 90
13, 44450, Note_off_c, 9, 51, 64
13, 44450, Note_off_c, 9, 37, 64
13, 44450, Note_off_c, 9, 42, 64
13, 44576, Note_on_c, 9, 51, 70
13, 44626, Note_off_c, 9, 51, 64
13, 44640, Note_on_c, 9, 38, 40
13, 44640, Note_on_c, 9, 51, 80
13, 44690, Note_off_c, 9, 51, 64
13, 44690, Note_off_c, 9, 38, 64
13, 44880, Note_on_c, 9, 42, 100
13, 44880, Note_on_c, 9, 37, 70
13, 44880, Note_on_c, 9, 51, 90
13, 44930, Note_off_c, 9, 51, 64
13, 44930, Note_off_c, 9, 37, 64
13, 44930, Note_off_c, 9, 42, 64
13, 45056, Note_on_c, 9, 51, 70
13, 45106, Note_off_c, 9, 51, 64
13, 45120, Note_on_c, 9, 51, 80
13, 45170, Note_off_c, 9, 51, 64
13, 45360, Note_on_c, 9, 42, 70
13, 45360, Note_on_c, 9, 37, 70
13, 45360, Note_on_c, 9, 51, 90
13, 45410, Note_off_c, 9, 51, 64
13, 45410, Note_off_c, 9, 37, 64
13, 45410, Note_off_c, 9, 42, 64
13, 45534, Note_on_c, 9, 51, 70
13, 45584, Note_off_c, 9, 51, 64
13, 45600, Note_on_c, 9, 51, 90
13, 45650, Note_off_c, 9, 51, 64
13, 45840, Note_on_c, 9, 42, 100
13, 45840, Note_on_c, 9, 51, 90
13, 45890, Note_off_c, 9, 51, 64
13, 45890, Note_off_c, 9, 42, 64
13, 46014, Note_on_c, 9, 51, 70
13, 46064, Note_off_c, 9, 51, 64
13, 46080, Note_on_c, 9, 51, 70
13, 46130, Note_off_c, 9, 51, 64
13, 46320, Note_on_c, 9, 42, 100
13, 46320, Note_on_c, 9, 37, 70
13, 46320, Note_on_c, 9, 51, 90
13, 46370, Note_off_c, 9, 51, 64
13, 46370, Note_off_c, 9, 37, 64
13, 46370, Note_off_c, 9, 42, 64
13, 46494, Note_on_c, 9, 38, 40
13, 46494, Note_on_c, 9, 51, 50
13, 46544, Note_off_c, 9, 51, 64
13, 46544, Note_off_c, 9, 38, 64
13, 46560, Note_on_c, 9, 51, 80
13, 46610, Note_off_c, 9, 51, 64
13, 46800, Note_on_c, 9, 42, 100
13, 46800, Note_on_c, 9, 37, 70
13, 46800, Note_on_c, 9, 51, 90
13, 46850, Note_off_c, 9, 51, 64
13, 46850, Note_off_c, 9, 37, 64
13, 46850, Note_off_c, 9, 42, 64
13, 46974, Note_on_c, 9, 38, 40
13, 46974, Note_on_c, 9, 51, 50
13, 47024, Note_off_c, 9, 51, 64
13, 47024, Note_off_c, 9, 38, 64
13, 47040, Note_on_c, 9, 35, 90
13, 47090, Note_off_c, 9, 35, 64
13, 47212, Note_on_c, 9, 38, 70
13, 47262, Note_off_c, 9, 38, 64
13, 47280, Note_on_c, 9, 42, 80
13, 47280, Note_on_c, 9, 51, 90
13, 47330, Note_off_c, 9, 51, 64
13, 47330, Note_off_c, 9, 42, 64
13, 47452, Note_on_c, 9, 38, 60
13, 47452, Note_on_c, 9, 51, 80
13, 47502, Note_off_c, 9, 51, 64
13, 47502, Note_off_c, 9, 38, 64
13, 47520, Note_on_c, 9, 38, 80
13, 47520, Note_on_c, 9, 51, 80
13, 47570, Note_off_c, 9, 51, 64
13, 47570, Note_off_c, 9, 38, 64
13, 47692, Note_on_c, 9, 35, 80
13, 47692, Note_on_c, 9, 38, 50
13, 47742, Note_off_c, 9, 38, 64
13, 47742, Note_off_c, 9, 35, 64
13, 47760, Note_on_c, 9, 42, 100
13, 47760, Note_on_c, 9, 51, 90
13, 47810, Note_off_c, 9, 51, 64
13, 47810, Note_off_c, 9, 42, 64
13, 47840, Note_on_c, 9, 38, 40
13, 47890, Note_off_c, 9, 38, 64
13, 47932, Note_on_c, 9, 38, 60
13, 47932, Note_on_c, 9, 51, 80
13, 47982, Note_off_c, 9, 51, 64
13, 47982, Note_off_c, 9, 38, 64
13, 48000, Note_on_c, 9, 38, 50
13, 48000, Note_on_c, 9, 49, 40
13, 48050, Note_off_c, 9, 49, 64
13, 48050, Note_off_c, 9, 38, 64
13, 48174, Note_on_c, 9, 38, 70
13, 48224, Note_off_c, 9, 38, 64
13, 48240, Note_on_c, 9, 42, 80
13, 48240, Note_on_c, 9, 37, 70
13, 48240, Note_on_c, 9, 51, 90
13, 48290, Note_off_c, 9, 51, 64
13, 48290, Note_off_c, 9, 37, 64
13, 48290, Note_off_c, 9, 42, 64
13, 48414, Note_on_c, 9, 51, 70
13, 48464, Note_off_c, 9, 51, 64
13, 48480, Note_on_c, 9, 38, 40
13, 48480, Note_on_c, 9, 51, 70
13, 48530, Note_off_c, 9, 51, 64
13, 48530, Note_off_c, 9, 38, 64
13, 48720, Note_on_c, 9, 42, 100
13, 48720, Note_on_c, 9, 37, 70
13, 48720, Note_on_c, 9, 51, 90
13, 48770, Note_off_c, 9, 51, 64
13, 48770, Note_off_c, 9, 37, 64
13, 48770, Note_off_c, 9, 42, 64
13, 48894, Note_on_c, 9, 51, 70
13, 48944, Note_off_c, 9, 51, 64
13, 48960, Note_on_c, 9, 51, 80
13, 49010, Note_off_c, 9, 51, 64
13, 49200, Note_on_c, 9, 42, 70
13, 49200, Note_on_c, 9, 37, 70
13, 49200, Note_on_c, 9, 51, 90
13, 49250, Note_off_c, 9, 51, 64
13, 49250, Note_off_c, 9, 37, 64
13, 49250, Note_off_c, 9, 42, 64
13, 49374, Note_on_c, 9, 51, 70
13, 49424, Note_off_c, 9, 51, 64
13, 49440, Note_on_c, 9, 51, 90
13, 49490, Note_off_c, 9, 51, 64
13, 49680, Note_on_c, 9, 42, 100
13, 49680, Note_on_c, 9, 51, 90
13, 49730, Note_off_c, 9, 51, 64
13, 49730, Note_off_c, 9, 42, 64
13, 49854, Note_on_c, 9, 51, 70
13, 49904, Note_off_c, 9, 51, 64
13, 49920, Note_on_c, 9, 51, 70
13, 49970, Note_off_c, 9, 51, 64
13, 50160, Note_on_c, 9, 42, 90
13, 50160, Note_on_c, 9, 37, 60
13, 50160, Note_on_c, 9, 51, 90
13, 50210, Note_off_c, 9, 51, 64
13, 50210, Note_off_c, 9, 37, 64
13, 50210, Note_off_c, 9, 42, 64
13, 50336, Note_on_c, 9, 38, 40
13, 50336, Note_on_c, 9, 51, 70
13, 50386, Note_off_c, 9, 51, 64
13, 50386, Note_off_c, 9, 38, 64
13, 50400, Note_on_c, 9, 51, 80
13, 50450, Note_off_c, 9, 51, 64
13, 50640, Note_on_c, 9, 42, 100
13, 50640, Note_on_c, 9, 37, 70
13, 50640, Note_on_c, 9, 51, 90
13, 50690, Note_off_c, 9, 51, 64
13, 50690, Note_off_c, 9, 37, 64
13, 50690, Note_off_c, 9, 42, 64
13, 50816, Note_on_c, 9, 51, 70
13, 50866, Note_off_c, 9, 51, 64
13, 50880, Note_on_c, 9, 51, 80
13, 50930, Note_off_c, 9, 51, 64
13, 51056, Note_on_c, 9, 38, 30
13, 51106, Note_off_c, 9, 38, 64
13, 51120, Note_on_c, 9, 42, 80
13, 51120, Note_on_c, 9, 37, 70
13, 51120, Note_on_c, 9, 51, 90
13, 51170, Note_off_c, 9, 51, 64
13, 51170, Note_off_c, 9, 37, 64
13, 51170, Note_off_c, 9, 42, 64
13, 51296, Note_on_c, 9, 38, 40
13, 51296, Note_on_c, 9, 51, 70
13, 51346, Note_off_c, 9, 51, 64
13, 51346, Note_off_c, 9, 38, 64
13, 51360, Note_on_c, 9, 51, 80
13, 51410, Note_off_c, 9, 51, 64
13, 51600, Note_on_c, 9, 42, 100
13, 51600, Note_on_c, 9, 37, 70
13, 51600, Note_on_c, 9, 51, 90
13, 51650, Note_off_c, 9, 51, 64
13, 51650, Note_off_c, 9, 37, 64
13, 51650, Note_off_c, 9, 42, 64
13, 51776, Note_on_c, 9, 38, 40
13, 51776, Note_on_c, 9, 51, 70
13, 51826, Note_off_c, 9, 51, 64
13, 51826, Note_off_c, 9, 38, 64
13, 51840, Note_on_c, 9, 51, 70
13, 51890, Note_off_c, 9, 51, 64
13, 52080, Note_on_c, 9, 42, 100
13, 52080, Note_on_c, 9, 37, 70
13, 52080, Note_on_c, 9, 51, 90
13, 52130, Note_off_c, 9, 51, 64
13, 52130, Note_off_c, 9, 37, 64
13, 52130, Note_off_c, 9, 42, 64
13, 52254, Note_on_c, 9, 38, 40
13, 52254, Note_on_c, 9, 51, 50
13, 52304, Note_off_c, 9, 51, 64
13, 52304, Note_off_c, 9, 38, 64
13, 52320, Note_on_c, 9, 51, 80
13, 52370, Note_off_c, 9, 51, 64
13, 52560, Note_on_c, 9, 42, 100
13, 52560, Note_on_c, 9, 37, 70
13, 52560, Note_on_c, 9, 51, 90
13, 52610, Note_off_c, 9, 51, 64
13, 52610, Note_off_c, 9, 37, 64
13, 52610, Note_off_c, 9, 42, 64
13, 52734, Note_on_c, 9, 38, 40
13, 52734, Note_on_c, 9, 51, 50
13, 52784, Note_off_c, 9, 51, 64
13, 52784, Note_off_c, 9, 38, 64
13, 52800, Note_on_c, 9, 51, 80
13, 52850, Note_off_c, 9, 51, 64
13, 53040, Note_on_c, 9, 42, 70
13, 53040, Note_on_c, 9, 37, 70
13, 53040, Note_on_c, 9, 51, 90
13, 53090, Note_off_c, 9, 51, 64
13, 53090, Note_off_c, 9, 37, 64
13, 53090, Note_off_c, 9, 42, 64
13, 53214, Note_on_c, 9, 51, 70
13, 53264, Note_off_c, 9, 51, 64
13, 53280, Note_on_c, 9, 51, 90
13, 53330, Note_off_c, 9, 51, 64
13, 53520, Note_on_c, 9, 42, 100
13, 53520, Note_on_c, 9, 51, 90
13, 53570, Note_off_c, 9, 51, 64
13, 53570, Note_off_c, 9, 42, 64
13, 53694, Note_on_c, 9, 51, 70
13, 53744, Note_off_c, 9, 51, 64
13, 53760, Note_on_c, 9, 51, 70
13, 53810, Note_off_c, 9, 51, 64
13, 54000, Note_on_c, 9, 42, 100
13, 54000, Note_on_c, 9, 37, 70
13, 54000, Note_on_c, 9, 51, 90
13, 54050, Note_off_c, 9, 51, 64
13, 54050, Note_off_c, 9, 37, 64
13, 54050, Note_off_c, 9, 42, 64
13, 54174, Note_on_c, 9, 38, 40
13, 54174, Note_on_c, 9, 51, 50
13, 54224, Note_off_c, 9, 51, 64
13, 54224, Note_off_c, 9, 38, 64
13, 54240, Note_on_c, 9, 51, 80
13, 54290, Note_off_c, 9, 51, 64
13, 54480, Note_on_c, 9, 42, 100
13, 54480, Note_on_c, 9, 37, 70
13, 54480, Note_on_c, 9, 51, 90
13, 54530, Note_off_c, 9, 51, 64
13, 54530, Note_off_c, 9, 37, 64
13, 54530, Note_off_c, 9, 42, 64
13, 54654, Note_on_c, 9, 38, 40
13, 54654, Note_on_c, 9, 51, 50
13, 54704, Note_off_c, 9, 51, 64
13, 54704, Note_off_c, 9, 38, 64
13, 54720, Note_on_c, 9, 51, 80
13, 54770, Note_off_c, 9, 51, 64
13, 54960, Note_on_c, 9, 42, 80
13, 54960, Note_on_c, 9, 37, 70
13, 54960, Note_on_c, 9, 51, 90
13, 55010, Note_off_c, 9, 51, 64
13, 55010, Note_off_c, 9, 37, 64
13, 55010, Note_off_c, 9, 42, 64
13, 55136, Note_on_c, 9, 38, 40
13, 55136, Note_on_c, 9, 51, 70
13, 55186, Note_off_c, 9, 51, 64
13, 55186, Note_off_c, 9, 38, 64
13, 55200, Note_on_c, 9, 51, 80
13, 55250, Note_off_c, 9, 51, 64
13, 55376, Note_on_c, 9, 38, 30
13, 55426, Note_off_c, 9, 38, 64
13, 55440, Note_on_c, 9, 42, 100
13, 55440, Note_on_c, 9, 37, 70
13, 55440, Note_on_c, 9, 51, 90
13, 55490, Note_off_c, 9, 51, 64
13, 55490, Note_off_c, 9, 37, 64
13, 55490, Note_off_c, 9, 42, 64
13, 55616, Note_on_c, 9, 38, 40
13, 55616, Note_on_c, 9, 51, 70
13, 55666, Note_off_c, 9, 51, 64
13, 55666, Note_off_c, 9, 38, 64
13, 55680, Note_on_c, 9, 51, 70
13, 55730, Note_off_c, 9, 51, 64
13, 55920, Note_on_c, 9, 42, 100
13, 55920, Note_on_c, 9, 37, 70
13, 55920, Note_on_c, 9, 51, 90
13, 55970, Note_off_c, 9, 51, 64
13, 55970, Note_off_c, 9, 37, 64
13, 55970, Note_off_c, 9, 42, 64
13, 56094, Note_on_c, 9, 38, 40
13, 56094, Note_on_c, 9, 51, 50
13, 56144, Note_off_c, 9, 51, 64
13, 56144, Note_off_c, 9, 38, 64
13, 56160, Note_on_c, 9, 51, 80
13, 56210, Note_off_c, 9, 51, 64
13, 56400, Note_on_c, 9, 42, 100
13, 56400, Note_on_c, 9, 37, 70
13, 56400, Note_on_c, 9, 51, 90
13, 56450, Note_off_c, 9, 51, 64
13, 56450, Note_off_c, 9, 37, 64
13, 56450, Note_off_c, 9, 42, 64
13, 56574, Note_on_c, 9, 38, 40
13, 56574, Note_on_c, 9, 51, 50
13, 56624, Note_off_c, 9, 51, 64
13, 56624, Note_off_c, 9, 38, 64
13, 56640, Note_on_c, 9, 51, 80
13, 56690, Note_off_c, 9, 51, 64
13, 56880, Note_on_c, 9, 42, 80
13, 56880, Note_on_c, 9, 37, 70
13, 56880, Note_on_c, 9, 51, 90
13, 56930, Note_off_c, 9, 51, 64
13, 56930, Note_off_c, 9, 37, 64
13, 56930, Note_off_c, 9, 42, 64
13, 57056, Note_on_c, 9, 38, 30
13, 57056, Note_on_c, 9, 51, 70
13, 57106, Note_off_c, 9, 51, 64
13, 57106, Note_off_c, 9, 38, 64
13, 57120, Note_on_c, 9, 38, 40
13, 57120, Note_on_c, 9, 51, 80
13, 57170, Note_off_c, 9, 51, 64
13, 57170, Note_off_c, 9, 38, 64
13, 57360, Note_on_c, 9, 42, 100
13, 57360, Note_on_c, 9, 37, 70
13, 57360, Note_on_c, 9, 51, 90
13, 57410, Note_off_c, 9, 51, 64
13, 57410, Note_off_c, 9, 37, 64
13, 57410, Note_off_c, 9, 42, 64
13, 57536, Note_on_c, 9, 51, 70
13, 57586, Note_off_c, 9, 51, 64
13, 57600, Note_on_c, 9, 51, 70
13, 57650, Note_off_c, 9, 51, 64
13, 57840, Note_on_c, 9, 42, 100
13, 57840, Note_on_c, 9, 37, 70
13, 57840, Note_on_c, 9, 51, 90
13, 57890, Note_off_c, 9, 51, 64
13, 57890, Note_off_c, 9, 37, 64
13, 57890, Note_off_c, 9, 42, 64
13, 58014, Note_on_c, 9, 38, 40
13, 58014, Note_on_c, 9, 51, 50
13, 58064, Note_off_c, 9, 51, 64
13, 58064, Note_off_c, 9, 38, 64
13, 58080, Note_on_c, 9, 51, 80
13, 58130, Note_off_c, 9, 51, 64
13, 58320, Note_on_c, 9, 42, 100
13, 58320, Note_on_c, 9, 37, 70
13, 58320, Note_on_c, 9, 51, 90
13, 58370, Note_off_c, 9, 51, 64
13, 58370, Note_off_c, 9, 37, 64
13, 58370, Note_off_c, 9, 42, 64
13, 58494, Note_on_c, 9, 38, 40
13, 58494, Note_on_c, 9, 51, 50
13, 58544, Note_off_c, 9, 51, 64
13, 58544, Note_off_c, 9, 38, 64
13, 58560, Note_on_c, 9, 51, 80
13, 58610, Note_off_c, 9, 51, 64
13, 58800, Note_on_c, 9, 42, 70
13, 58800, Note_on_c, 9, 37, 70
13, 58800, Note_on_c, 9, 51, 90
13, 58850, Note_off_c, 9, 51, 64
13, 58850, Note_off_c, 9, 37, 64
13, 58850, Note_off_c, 9, 42, 64
13, 58974, Note_on_c, 9, 38, 40
13, 58974, Note_on_c, 9, 51, 70
13, 59024, Note_off_c, 9, 51, 64
13, 59024, Note_off_c, 9, 38, 64
13, 59040, Note_on_c, 9, 51, 90
13, 59090, Note_off_c, 9, 51, 64
13, 59280, Note_on_c, 9, 42, 100
13, 59280, Note_on_c, 9, 51, 90
13, 59330, Note_off_c, 9, 51, 64
13, 59330, Note_off_c, 9, 42, 64
13, 59454, Note_on_c, 9, 51, 70
13, 59504, Note_off_c, 9, 51, 64
13, 59520, Note_on_c, 9, 51, 70
13, 59570, Note_off_c, 9, 51, 64
13, 59760, Note_on_c, 9, 42, 90
13, 59760, Note_on_c, 9, 37, 60
13, 59760, Note_on_c, 9, 51, 90
13, 59810, Note_off_c, 9, 51, 64
13, 59810, Note_off_c, 9, 37, 64
13, 59810, Note_off_c, 9, 42, 64
13, 59936, Note_on_c, 9, 38, 40
13, 59936, Note_on_c, 9, 51, 70
13, 59986, Note_off_c, 9, 51, 64
13, 59986, Note_off_c, 9, 38, 64
13, 60000, Note_on_c, 9, 51, 80
13, 60050, Note_off_c, 9, 51, 64
13, 60240, Note_on_c, 9, 42, 100
13, 60240, Note_on_c, 9, 37, 70
13, 60240, Note_on_c, 9, 51, 90
13, 60290, Note_off_c, 9, 51, 64
13, 60290, Note_off_c, 9, 37, 64
13, 60290, Note_off_c, 9, 42, 64
13, 60416, Note_on_c, 9, 51, 70
13, 60466, Note_off_c, 9, 51, 64
13, 60480, Note_on_c, 9, 51, 80
13, 60530, Note_off_c, 9, 51, 64
13, 60720, Note_on_c, 9, 42, 80
13, 60720, Note_on_c, 9, 37, 70
13, 60720, Note_on_c, 9, 51, 90
13, 60770, Note_off_c, 9, 51, 64
13, 60770, Note_off_c, 9, 37, 64
13, 60770, Note_off_c, 9, 42, 64
13, 60896, Note_on_c, 9, 51, 70
13, 60946, Note_off_c, 9, 51, 64
13, 60960, Note_on_c, 9, 38, 40
13, 60960, Note_on_c, 9, 51, 80
13, 61010, Note_off_c, 9, 51, 64
13, 61010, Note_off_c, 9, 38, 64
13, 61200, Note_on_c, 9, 42, 100
13, 61200, Note_on_c, 9, 37, 70
13, 61200, Note_on_c, 9, 51, 90
13, 61250, Note_off_c, 9, 51, 64
13, 61250, Note_off_c, 9, 37, 64
13, 61250, Note_off_c, 9, 42, 64
13, 61376, Note_on_c, 9, 51, 70
13, 61426, Note_off_c, 9, 51, 64
13, 61440, Note_on_c, 9, 51, 70
13, 61490, Note_off_c, 9, 51, 64
13, 61680, Note_on_c, 9, 42, 90
13, 61680, Note_on_c, 9, 37, 60
13, 61680, Note_on_c, 9, 51, 90
13, 61730, Note_off_c, 9, 51, 64
13, 61730, Note_off_c, 9, 37, 64
13, 61730, Note_off_c, 9, 42, 64
13, 61856, Note_on_c, 9, 38, 40
13, 61856, Note_on_c, 9, 51, 70
13, 61906, Note_off_c, 9, 51, 64
13, 61906, Note_off_c, 9, 38, 64
13, 61920, Note_on_c, 9, 51, 80
13, 61970, Note_off_c, 9, 51, 64
13, 62160, Note_on_c, 9, 42, 100
13, 62160, Note_on_c, 9, 37, 70
13, 62160, Note_on_c, 9, 51, 90
13, 62210, Note_off_c, 9, 51, 64
13, 62210, Note_off_c, 9, 37, 64
13, 62210, Note_off_c, 9, 42, 64
13, 62336, Note_on_c, 9, 51, 70
13, 62386, Note_off_c, 9, 51, 64
13, 62400, Note_on_c, 9, 35, 90
13, 62450, Note_off_c, 9, 35, 64
13, 62572, Note_on_c, 9, 38, 70
13, 62622, Note_off_c, 9, 38, 64
13, 62640, Note_on_c, 9, 42, 80
13, 62640, Note_on_c, 9, 51, 90
13, 62690, Note_off_c, 9, 51, 64
13, 62690, Note_off_c, 9, 42, 64
13, 62812, Note_on_c, 9, 38, 60
13, 62812, Note_on_c, 9, 51, 80
13, 62862, Note_off_c, 9, 51, 64
13, 62862, Note_off_c, 9, 38, 64
13, 62880, Note_on_c, 9, 38, 80
13, 62880, Note_on_c, 9, 51, 80
13, 62930, Note_off_c, 9, 51, 64
13, 62930, Note_off_c, 9, 38, 64
13, 63052, Note_on_c, 9, 35, 80
13, 63052, Note_on_c, 9, 38, 50
13, 63102, Note_off_c, 9, 38, 64
13, 63102, Note_off_c, 9, 35, 64
13, 63120, Note_on_c, 9, 42, 100
13, 63120, Note_on_c, 9, 51, 90
13, 63170, Note_off_c, 9, 51, 64
13, 63170, Note_off_c, 9, 42, 64
13, 63200, Note_on_c, 9, 38, 40
13, 63250, Note_off_c, 9, 38, 64
13, 63292, Note_on_c, 9, 38, 60
13, 63292, Note_on_c, 9, 51, 80
13, 63342, Note_off_c, 9, 51, 64
13, 63342, Note_off_c, 9, 38, 64
13, 63360, Note_on_c, 9, 35, 60
13, 63360, Note_on_c, 9, 42, 80
13, 63410, Note_off_c, 9, 42, 64
13, 63410, Note_off_c, 9, 35, 64
13, 63600, Note_on_c, 9, 42, 90
13, 63600, Note_on_c, 9, 37, 70
13, 63650, Note_off_c, 9, 37, 64
13, 63650, Note_off_c, 9, 42, 64
13, 63774, Note_on_c, 9, 42, 40
13, 63824, Note_off_c, 9, 42, 64
13, 63840, Note_on_c, 9, 35, 60
13, 63840, Note_on_c, 9, 42, 80
13, 63890, Note_off_c, 9, 42, 64
13, 63890, Note_off_c, 9, 35, 64
13, 64080, Note_on_c, 9, 42, 90
13, 64080, Note_on_c, 9, 37, 85
13, 64130, Note_off_c, 9, 37, 64
13, 64130, Note_off_c, 9, 42, 64
13, 64254, Note_on_c, 9, 42, 50
13, 64304, Note_off_c, 9, 42, 64
13, 64320, Note_on_c, 9, 35, 60
13, 64320, Note_on_c, 9, 42, 80
13, 64370, Note_off_c, 9, 42, 64
13, 64370, Note_off_c, 9, 35, 64
13, 64560, Note_on_c, 9, 42, 90
13, 64560, Note_on_c, 9, 37, 70
13, 64610, Note_off_c, 9, 37, 64
13, 64610, Note_off_c, 9, 42, 64
13, 64734, Note_on_c, 9, 42, 40
13, 64784, Note_off_c, 9, 42, 64
13, 64800, Note_on_c, 9, 35, 60
13, 64800, Note_on_c, 9, 42, 80
13, 64850, Note_off_c, 9, 42, 64
13, 64850, Note_off_c, 9, 35, 64
13, 65040, Note_on_c, 9, 42, 90
13, 65040, Note_on_c, 9, 37, 85
13, 65090, Note_off_c, 9, 37, 64
13, 65090, Note_off_c, 9, 42, 64
13, 65214, Note_on_c, 9, 42, 50
13, 65264, Note_off_c, 9, 42, 64
13, 65280, Note_on_c, 9, 35, 60
13, 65280, Note_on_c, 9, 42, 70
13, 65330, Note_off_c, 9, 42, 64
13, 65330, Note_off_c, 9, 35, 64
13, 65456, Note_on_c, 9, 38, 70
13, 65506, Note_off_c, 9, 38, 64
13, 65520, Note_on_c, 9, 42, 90
13, 65520, Note_on_c, 9, 37, 70
13, 65570, Note_off_c, 9, 37, 64
13, 65570, Note_off_c, 9, 42, 64
13, 65696, Note_on_c, 9, 42, 40
13, 65746, Note_off_c, 9, 42, 64
13, 65760, Note_on_c, 9, 35, 60
13, 65760, Note_on_c, 9, 42, 80
13, 65810, Note_off_c, 9, 42, 64
13, 65810, Note_off_c, 9, 35, 64
13, 66000, Note_on_c, 9, 42, 90
13, 66000, Note_on_c, 9, 37, 80
13, 66050, Note_off_c, 9, 37, 64
13, 66050, Note_off_c, 9, 42, 64
13, 66176, Note_on_c, 9, 42, 50
13, 66226, Note_off_c, 9, 42, 64
13, 66240, Note_on_c, 9, 35, 60
13, 66240, Note_on_c, 9, 42, 80
13, 66290, Note_off_c, 9, 42, 64
13, 66290, Note_off_c, 9, 35, 64
13, 66480, Note_on_c, 9, 42, 90
13, 66480, Note_on_c, 9, 37, 70
13, 66530, Note_off_c, 9, 37, 64
13, 66530, Note_off_c, 9, 42, 64
13, 66654, Note_on_c, 9, 42, 40
13, 66704, Note_off_c, 9, 42, 64
13, 66720, Note_on_c, 9, 35, 60
13, 66720, Note_on_c, 9, 42, 80
13, 66770, Note_off_c, 9, 42, 64
13, 66770, Note_off_c, 9, 35, 64
13, 66894, Note_on_c, 9, 37, 90
13, 66944, Note_off_c, 9, 37, 64
13, 66960, Note_on_c, 9, 42, 90
13, 67010, Note_off_c, 9, 42, 64
13, 67134, Note_on_c, 9, 42, 50
13, 67184, Note_off_c, 9, 42, 64
13, 67200, Note_on_c, 9, 35, 60
13, 67200, Note_on_c, 9, 42, 70
13, 67250, Note_off_c, 9, 42, 64
13, 67250, Note_off_c, 9, 35, 64
13, 67440, Note_on_c, 9, 42, 90
13, 67440, Note_on_c, 9, 37, 70
13, 67490, Note_off_c, 9, 37, 64
13, 67490, Note_off_c, 9, 42, 64
13, 67616, Note_on_c, 9, 42, 40
13, 67666, Note_off_c, 9, 42, 64
13, 67680, Note_on_c, 9, 35, 60
13, 67680, Note_on_c, 9, 42, 80
13, 67730, Note_off_c, 9, 42, 64
13, 67730, Note_off_c, 9, 35, 64
13, 67920, Note_on_c, 9, 42, 90
13, 67920, Note_on_c, 9, 37, 80
13, 67970, Note_off_c, 9, 37, 64
13, 67970, Note_off_c, 9, 42, 64
13, 68096, Note_on_c, 9, 42, 50
13, 68146, Note_off_c, 9, 42, 64
13, 68160, Note_on_c, 9, 35, 60
13, 68160, Note_on_c, 9, 42, 70
13, 68210, Note_off_c, 9, 42, 64
13, 68210, Note_off_c, 9, 35, 64
13, 68400, Note_on_c, 9, 42, 80
13, 68400, Note_on_c, 9, 37, 70
13, 68450, Note_off_c, 9, 37, 64
13, 68450, Note_off_c, 9, 42, 64
13, 68576, Note_on_c, 9, 42, 40
13, 68626, Note_off_c, 9, 42, 64
13, 68640, Note_on_c, 9, 35, 60
13, 68640, Note_on_c, 9, 42, 80
13, 68690, Note_off_c, 9, 42, 64
13, 68690, Note_off_c, 9, 35, 64
13, 68880, Note_on_c, 9, 42, 80
13, 68880, Note_on_c, 9, 37, 80
13, 68930, Note_off_c, 9, 37, 64
13, 68930, Note_off_c, 9, 42, 64
13, 69056, Note_on_c, 9, 42, 50
13, 69106, Note_off_c, 9, 42, 64
13, 69120, Note_on_c, 9, 35, 60
13, 69120, Note_on_c, 9, 42, 70
13, 69170, Note_off_c, 9, 42, 64
13, 69170, Note_off_c, 9, 35, 64
13, 69360, Note_on_c, 9, 42, 90
13, 69360, Note_on_c, 9, 37, 80
13, 69410, Note_off_c, 9, 37, 64
13, 69410, Note_off_c, 9, 42, 64
13, 69532, Note_on_c, 9, 42, 40
13, 69582, Note_off_c, 9, 42, 64
13, 69600, Note_on_c, 9, 35, 60
13, 69600, Note_on_c, 9, 42, 70
13, 69650, Note_off_c, 9, 42, 64
13, 69650, Note_off_c, 9, 35, 64
13, 69840, Note_on_c, 9, 42, 90
13, 69840, Note_on_c, 9, 37, 78
13, 69890, Note_off_c, 9, 37, 64
13, 69890, Note_off_c, 9, 42, 64
13, 70012, Note_on_c, 9, 42, 50
13, 70062, Note_off_c, 9, 42, 64
13, 70080, Note_on_c, 9, 35, 60
13, 70080, Note_on_c, 9, 42, 70
13, 70130, Note_off_c, 9, 42, 64
13, 70130, Note_off_c, 9, 35, 64
13, 70320, Note_on_c, 9, 42, 90
13, 70320, Note_on_c, 9, 37, 70
13, 70370, Note_off_c, 9, 37, 64
13, 70370, Note_off_c, 9, 42, 64
13, 70496, Note_on_c, 9, 42, 40
13, 70546, Note_off_c, 9, 42, 64
13, 70560, Note_on_c, 9, 35, 60
13, 70560, Note_on_c, 9, 42, 80
13, 70610, Note_off_c, 9, 42, 64
13, 70610, Note_off_c, 9, 35, 64
13, 70800, Note_on_c, 9, 42, 90
13, 70800, Note_on_c, 9, 37, 80
13, 70850, Note_off_c, 9, 37, 64
13, 70850, Note_off_c, 9, 42, 64
13, 70976, Note_on_c, 9, 42, 50
13, 71026, Note_off_c, 9, 42, 64
13, 71040, Note_on_c, 9, 35, 60
13, 71040, Note_on_c, 9, 42, 70
13, 71090, Note_off_c, 9, 42, 64
13, 71090, Note_off_c, 9, 35, 64
13, 71280, Note_on_c, 9, 42, 90
13, 71280, Note_on_c, 9, 37, 70
13, 71330, Note_off_c, 9, 37, 64
13, 71330, Note_off_c, 9, 42, 64
13, 71456, Note_on_c, 9, 42, 40
13, 71506, Note_off_c, 9, 42, 64
13, 71520, Note_on_c, 9, 35, 60
13, 71520, Note_on_c, 9, 42, 80
13, 71570, Note_off_c, 9, 42, 64
13, 71570, Note_off_c, 9, 35, 64
13, 71760, Note_on_c, 9, 42, 90
13, 71760, Note_on_c, 9, 37, 80
13, 71810, Note_off_c, 9, 37, 64
13, 71810, Note_off_c, 9, 42, 64
13, 71936, Note_on_c, 9, 35, 50
13, 71936, Note_on_c, 9, 42, 50
13, 71986, Note_off_c, 9, 42, 64
13, 71986, Note_off_c, 9, 35, 64
13, 72000, Note_on_c, 9, 35, 60
13, 72000, Note_on_c, 9, 42, 70
13, 72050, Note_off_c, 9, 42, 64
13, 72050, Note_off_c, 9, 35, 64
13, 72240, Note_on_c, 9, 42, 90
13, 72240, Note_on_c, 9, 37, 70
13, 72290, Note_off_c, 9, 37, 64
13, 72290, Note_off_c, 9, 42, 64
13, 72416, Note_on_c, 9, 42, 40
13, 72466, Note_off_c, 9, 42, 64
13, 72480, Note_on_c, 9, 35, 60
13, 72480, Note_on_c, 9, 42, 80
13, 72530, Note_off_c, 9, 42, 64
13, 72530, Note_off_c, 9, 35, 64
13, 72720, Note_on_c, 9, 42, 90
13, 72720, Note_on_c, 9, 37, 80
13, 72770, Note_off_c, 9, 37, 64
13, 72770, Note_off_c, 9, 42, 64
13, 72896, Note_on_c, 9, 42, 50
13, 72946, Note_off_c, 9, 42, 64
13, 72960, Note_on_c, 9, 35, 60
13, 72960, Note_on_c, 9, 42, 70
13, 73010, Note_off_c, 9, 42, 64
13, 73010, Note_off_c, 9, 35, 64
13, 73200, Note_on_c, 9, 42, 90
13, 73200, Note_on_c, 9, 37, 70
13, 73250, Note_off_c, 9, 37, 64
13, 73250, Note_off_c, 9, 42, 64
13, 73376, Note_on_c, 9, 42, 40
13, 73426, Note_off_c, 9, 42, 64
13, 73440, Note_on_c, 9, 35, 60
13, 73440, Note_on_c, 9, 42, 80
13, 73490, Note_off_c, 9, 42, 64
13, 73490, Note_off_c, 9, 35, 64
13, 73680, Note_on_c, 9, 42, 90
13, 73680, Note_on_c, 9, 37, 80
13, 73730, Note_off_c, 9, 37, 64
13, 73730, Note_off_c, 9, 42, 64
13, 73856, Note_on_c, 9, 42, 50
13, 73906, Note_off_c, 9, 42, 64
13, 73920, Note_on_c, 9, 35, 60
13, 73920, Note_on_c, 9, 42, 80
13, 73970, Note_off_c, 9, 42, 64
13, 73970, Note_off_c, 9, 35, 64
13, 74160, Note_on_c, 9, 42, 90
13, 74160, Note_on_c, 9, 37, 70
13, 74210, Note_off_c, 9, 37, 64
13, 74210, Note_off_c, 9, 42, 64
13, 74334, Note_on_c, 9, 42, 40
13, 74384, Note_off_c, 9, 42, 64
13, 74400, Note_on_c, 9, 35, 60
13, 74400, Note_on_c, 9, 42, 80
13, 74450, Note_off_c, 9, 42, 64
13, 74450, Note_off_c, 9, 35, 64
13, 74574, Note_on_c, 9, 37, 90
13, 74624, Note_off_c, 9, 37, 64
13, 74640, Note_on_c, 9, 42, 90
13, 74690, Note_off_c, 9, 42, 64
13, 74814, Note_on_c, 9, 35, 50
13, 74814, Note_on_c, 9, 42, 50
13, 74864, Note_off_c, 9, 42, 64
13, 74864, Note_off_c, 9, 35, 64
13, 74880, Note_on_c, 9, 35, 60
13, 74880, Note_on_c, 9, 42, 80
13, 74930, Note_off_c, 9, 42, 64
13, 74930, Note_off_c, 9, 35, 64
13, 75120, Note_on_c, 9, 42, 90
13, 75120, Note_on_c, 9, 37, 70
13, 75170, Note_off_c, 9, 37, 64
13, 75170, Note_off_c, 9, 42, 64
13, 75294, Note_on_c, 9, 42, 40
13, 75344, Note_off_c, 9, 42, 64
13, 75360, Note_on_c, 9, 35, 60
13, 75360, Note_on_c, 9, 42, 80
13, 75410, Note_off_c, 9, 42, 64
13, 75410, Note_off_c, 9, 35, 64
13, 75600, Note_on_c, 9, 42, 90
13, 75600, Note_on_c, 9, 37, 85
13, 75650, Note_off_c, 9, 37, 64
13, 75650, Note_off_c, 9, 42, 64
13, 75774, Note_on_c, 9, 35, 50
13, 75774, Note_on_c, 9, 42, 50
13, 75824, Note_off_c, 9, 42, 64
13, 75824, Note_off_c, 9, 35, 64
13, 75840, Note_on_c, 9, 35, 60
13, 75840, Note_on_c, 9, 42, 70
13, 75890, Note_off_c, 9, 42, 64
13, 75890, Note_off_c, 9, 35, 64
13, 76080, Note_on_c, 9, 42, 90
13, 76080, Note_on_c, 9, 37, 80
13, 76130, Note_off_c, 9, 37, 64
13, 76130, Note_off_c, 9, 42, 64
13, 76252, Note_on_c, 9, 42, 40
13, 76302, Note_off_c, 9, 42, 64
13, 76320, Note_on_c, 9, 35, 60
13, 76320, Note_on_c, 9, 42, 70
13, 76370, Note_off_c, 9, 42, 64
13, 76370, Note_off_c, 9, 35, 64
13, 76560, Note_on_c, 9, 42, 90
13, 76560, Note_on_c, 9, 37, 78
13, 76610, Note_off_c, 9, 37, 64
13, 76610, Note_off_c, 9, 42, 64
13, 76732, Note_on_c, 9, 42, 50
13, 76782, Note_off_c, 9, 42, 64
13, 76800, Note_on_c, 9, 35, 60
13, 76800, Note_on_c, 9, 42, 70
13, 76850, Note_off_c, 9, 42, 64
13, 76850, Note_off_c, 9, 35, 64
13, 77040, Note_on_c, 9, 42, 90
13, 77040, Note_on_c, 9, 37, 80
13, 77090, Note_off_c, 9, 37, 64
13, 77090, Note_off_c, 9, 42, 64
13, 77212, Note_on_c, 9, 42, 40
13, 77262, Note_off_c, 9, 42, 64
13, 77280, Note_on_c, 9, 35, 60
13, 77280, Note_on_c, 9, 42, 70
13, 77330, Note_off_c, 9, 42, 64
13, 77330, Note_off_c, 9, 35, 64
13, 77520, Note_on_c, 9, 42, 90
13, 77520, Note_on_c, 9, 37, 78
13, 77570, Note_off_c, 9, 37, 64
13, 77570, Note_off_c, 9, 42, 64
13, 77692, Note_on_c, 9, 42, 50
13, 77742, Note_off_c, 9, 42, 64
13, 77760, Note_on_c, 9, 35, 60
13, 77760, Note_on_c, 9, 42, 80
13, 77810, Note_off_c, 9, 42, 64
13, 77810, Note_off_c, 9, 35, 64
13, 78000, Note_on_c, 9, 42, 90
13, 78050, Note_off_c, 9, 42, 64
13, 78170, Note_on_c, 9, 38, 40
13, 78170, Note_on_c, 9, 42, 60
13, 78220, Note_off_c, 9, 42, 64
13, 78220, Note_off_c, 9, 38, 64
13, 78240, Note_on_c, 9, 35, 60
13, 78240, Note_on_c, 9, 42, 70
13, 78290, Note_off_c, 9, 42, 64
13, 78290, Note_off_c, 9, 35, 64
13, 78410, Note_on_c, 9, 38, 50
13, 78460, Note_off_c, 9, 38, 64
13, 78480, Note_on_c, 9, 42, 80
13, 78530, Note_off_c, 9, 42, 64
13, 78650, Note_on_c, 9, 38, 60
13, 78650, Note_on_c, 9, 42, 60
13, 78700, Note_off_c, 9, 42, 64
13, 78700, Note_off_c, 9, 38, 64
13, 78720, Note_on_c, 9, 38, 50
13, 78720, Note_on_c, 9, 49, 40
13, 78770, Note_off_c, 9, 49, 64
13, 78770, Note_off_c, 9, 38, 64
13, 78960, Note_on_c, 9, 42, 80
13, 78960, Note_on_c, 9, 37, 70
13, 78960, Note_on_c, 9, 51, 90
13, 79010, Note_off_c, 9, 51, 64
13, 79010, Note_off_c, 9, 37, 64
13, 79010, Note_off_c, 9, 42, 64
13, 79134, Note_on_c, 9, 51, 70
13, 79184, Note_off_c, 9, 51, 64
13, 79200, Note_on_c, 9, 38, 40
13, 79200, Note_on_c, 9, 51, 70
13, 79250, Note_off_c, 9, 51, 64
13, 79250, Note_off_c, 9, 38, 64
13, 79440, Note_on_c, 9, 42, 100
13, 79440, Note_on_c, 9, 37, 70
13, 79440, Note_on_c, 9, 51, 90
13, 79490, Note_off_c, 9, 51, 64
13, 79490, Note_off_c, 9, 37, 64
13, 79490, Note_off_c, 9, 42, 64
13, 79614, Note_on_c, 9, 51, 70
13, 79664, Note_off_c, 9, 51, 64
13, 79680, Note_on_c, 9, 51, 80
13, 79730, Note_off_c, 9, 51, 64
13, 79920, Note_on_c, 9, 42, 70
13, 79920, Note_on_c, 9, 37, 70
13, 79920, Note_on_c, 9, 51, 90
13, 79970, Note_off_c, 9, 51, 64
13, 79970, Note_off_c, 9, 37, 64
13, 79970, Note_off_c, 9, 42, 64
13, 80094, Note_on_c, 9, 51, 70
13, 80144, Note_off_c, 9, 51, 64
13, 80160, Note_on_c, 9, 51, 90
13, 80210, Note_off_c, 9, 51, 64
13, 80400, Note_on_c, 9, 42, 100
13, 80400, Note_on_c, 9, 51, 90
13, 80450, Note_off_c, 9, 51, 64
13, 80450, Note_off_c, 9, 42, 64
13, 80574, Note_on_c, 9, 51, 70
13, 80624, Note_off_c, 9, 51, 64
13, 80640, Note_on_c, 9, 51, 70
13, 80690, Note_off_c, 9, 51, 64
13, 80880, Note_on_c, 9, 42, 90
13, 80880, Note_on_c, 9, 37, 60
13, 80880, Note_on_c, 9, 51, 90
13, 80930, Note_off_c, 9, 51, 64
13, 80930, Note_off_c, 9, 37, 64
13, 80930, Note_off_c, 9, 42, 64
13, 81056, Note_on_c, 9, 38, 40
13, 81056, Note_on_c, 9, 51, 70
13, 81106, Note_off_c, 9, 51, 64
13, 81106, Note_off_c, 9, 38, 64
13, 81120, Note_on_c, 9, 51, 80
13, 81170, Note_off_c, 9, 51, 64
13, 81360, Note_on_c, 9, 42, 100
13, 81360, Note_on_c, 9, 37, 70
13, 81360, Note_on_c, 9, 51, 90
13, 81410, Note_off_c, 9, 51, 64
13, 81410, Note_off_c, 9, 37, 64
13, 81410, Note_off_c, 9, 42, 64
13, 81536, Note_on_c, 9, 51, 70
13, 81586, Note_off_c, 9, 51, 64
13, 81600, Note_on_c, 9, 51, 80
13, 81650, Note_off_c, 9, 51, 64
13, 81840, Note_on_c, 9, 42, 80
13, 81840, Note_on_c, 9, 37, 70
13, 81840, Note_on_c, 9, 51, 90
13, 81890, Note_off_c, 9, 51, 64
13, 81890, Note_off_c, 9, 37, 64
13, 81890, Note_off_c, 9, 42, 64
13, 82012, Note_on_c, 9, 35, 70
13, 82012, Note_on_c, 9, 51, 70
13, 82062, Note_off_c, 9, 51, 64
13, 82062, Note_off_c, 9, 35, 64
13, 82080, Note_on_c, 9, 51, 80
13, 82130, Note_off_c, 9, 51, 64
13, 82252, Note_on_c, 9, 38, 60
13, 82302, Note_off_c, 9, 38, 64
13, 82320, Note_on_c, 9, 42, 100
13, 82320, Note_on_c, 9, 37, 80
13, 82320, Note_on_c, 9, 51, 90
13, 82370, Note_off_c, 9, 51, 64
13, 82370, Note_off_c, 9, 37, 64
13, 82370, Note_off_c, 9, 42, 64
13, 82492, Note_on_c, 9, 38, 50
13, 82492, Note_on_c, 9, 51, 70
13, 82542, Note_off_c, 9, 51, 64
13, 82542, Note_off_c, 9, 38, 64
13, 82560, Note_on_c, 9, 51, 70
13, 82610, Note_off_c, 9, 51, 64
13, 82800, Note_on_c, 9, 42, 90
13, 82800, Note_on_c, 9, 37, 60
13, 82800, Note_on_c, 9, 51, 90
13, 82850, Note_off_c, 9, 51, 64
13, 82850, Note_off_c, 9, 37, 64
13, 82850, Note_off_c, 9, 42, 64
13, 82976, Note_on_c, 9, 38, 40
13, 82976, Note_on_c, 9, 51, 70
13, 83026, Note_off_c, 9, 51, 64
13, 83026, Note_off_c, 9, 38, 64
13, 83040, Note_on_c, 9, 51, 80
13, 83090, Note_off_c, 9, 51, 64
13, 83280, Note_on_c, 9, 42, 100
13, 83280, Note_on_c, 9, 37, 70
13, 83280, Note_on_c, 9, 51, 90
13, 83330, Note_off_c, 9, 51, 64
13, 83330, Note_off_c, 9, 37, 64
13, 83330, Note_off_c, 9, 42, 64
13, 83456, Note_on_c, 9, 51, 70
13, 83506, Note_off_c, 9, 51, 64
13, 83520, Note_on_c, 9, 51, 80
13, 83570, Note_off_c, 9, 51, 64
13, 83760, Note_on_c, 9, 42, 70
13, 83760, Note_on_c, 9, 37, 70
13, 83760, Note_on_c, 9, 51, 90
13, 83810, Note_off_c, 9, 51, 64
13, 83810, Note_off_c, 9, 37, 64
13, 83810, Note_off_c, 9, 42, 64
13, 83934, Note_on_c, 9, 38, 40
13, 83934, Note_on_c, 9, 51, 70
13, 83984, Note_off_c, 9, 51, 64
13, 83984, Note_off_c, 9, 38, 64
13, 84000, Note_on_c, 9, 51, 90
13, 84050, Note_off_c, 9, 51, 64
13, 84240, Note_on_c, 9, 42, 100
13, 84240, Note_on_c, 9, 51, 90
13, 84290, Note_off_c, 9, 51, 64
13, 84290, Note_off_c, 9, 42, 64
13, 84414, Note_on_c, 9, 51, 70
13, 84464, Note_off_c, 9, 51, 64
13, 84480, Note_on_c, 9, 51, 70
13, 84530, Note_off_c, 9, 51, 64
13, 84720, Note_on_c, 9, 42, 90
13, 84720, Note_on_c, 9, 37, 60
13, 84720, Note_on_c, 9, 51, 90
13, 84770, Note_off_c, 9, 51, 64
13, 84770, Note_off_c, 9, 37, 64
13, 84770, Note_off_c, 9, 42, 64
13, 84896, Note_on_c, 9, 38, 40
13, 84896, Note_on_c, 9, 51, 70
13, 84946, Note_off_c, 9, 51, 64
13, 84946, Note_off_c, 9, 38, 64
13, 84960, Note_on_c, 9, 51, 80
13, 85010, Note_off_c, 9, 51, 64
13, 85136, Note_on_c, 9, 38, 50
13, 85186, Note_off_c, 9, 38, 64
13, 85200, Note_on_c, 9, 42, 100
13, 85200, Note_on_c, 9, 37, 70
13, 85200, Note_on_c, 9, 51, 90
13, 85250, Note_off_c, 9, 51, 64
13, 85250, Note_off_c, 9, 37, 64
13, 85250, Note_off_c, 9, 42, 64
13, 85376, Note_on_c, 9, 51, 70
13, 85426, Note_off_c, 9, 51, 64
13, 85440, Note_on_c, 9, 51, 80
13, 85490, Note_off_c, 9, 51, 64
13, 85680, Note_on_c, 9, 42, 80
13, 85680, Note_on_c, 9, 37, 70
13, 85680, Note_on_c, 9, 51, 100
13, 85730, Note_off_c, 9, 51, 64
13, 85730, Note_off_c, 9, 37, 64
13, 85730, Note_off_c, 9, 42, 64
13, 85856, Note_on_c, 9, 38, 40
13, 85856, Note_on_c, 9, 51, 70
13, 85906, Note_off_c, 9, 51, 64
13, 85906, Note_off_c, 9, 38, 64
13, 85920, Note_on_c, 9, 51, 80
13, 85970, Note_off_c, 9, 51, 64
13, 86096, Note_on_c, 9, 38, 60
13, 86146, Note_off_c, 9, 38, 64
13, 86160, Note_on_c, 9, 42, 100
13, 86160, Note_on_c, 9, 37, 80
13, 86160, Note_on_c, 9, 51, 90
13, 86210, Note_off_c, 9, 51, 64
13, 86210, Note_off_c, 9, 37, 64
13, 86210, Note_off_c, 9, 42, 64
13, 86336, Note_on_c, 9, 38, 50
13, 86336, Note_on_c, 9, 51, 70
13, 86386, Note_off_c, 9, 51, 64
13, 86386, Note_off_c, 9, 38, 64
13, 86400, Note_on_c, 9, 51, 70
13, 86450, Note_off_c, 9, 51, 64
13, 86640, Note_on_c, 9, 42, 90
13, 86640, Note_on_c, 9, 37, 60
13, 86640, Note_on_c, 9, 51, 90
13, 86690, Note_off_c, 9, 51, 64
13, 86690, Note_off_c, 9, 37, 64
13, 86690, Note_off_c, 9, 42, 64
13, 86816, Note_on_c, 9, 38, 40
13, 86816, Note_on_c, 9, 51, 70
13, 86866, Note_off_c, 9, 51, 64
13, 86866, Note_off_c, 9, 38, 64
13, 86880, Note_on_c, 9, 51, 80
13, 86930, Note_off_c, 9, 51, 64
13, 87120, Note_on_c, 9, 42, 100
13, 87120, Note_on_c, 9, 37, 70
13, 87120, Note_on_c, 9, 51, 90
13, 87170, Note_off_c, 9, 51, 64
13, 87170, Note_off_c, 9, 37, 64
13, 87170, Note_off_c, 9, 42, 64
13, 87296, Note_on_c, 9, 51, 70
13, 87346, Note_off_c, 9, 51, 64
13, 87360, Note_on_c, 9, 51, 80
13, 87410, Note_off_c, 9, 51, 64
13, 87600, Note_on_c, 9, 42, 80
13, 87600, Note_on_c, 9, 37, 70
13, 87600, Note_on_c, 9, 51, 90
13, 87650, Note_off_c, 9, 51, 64
13, 87650, Note_off_c, 9, 37, 64
13, 87650, Note_off_c, 9, 42, 64
13, 87776, Note_on_c, 9, 51, 70
13, 87826, Note_off_c, 9, 51, 64
13, 87840, Note_on_c, 9, 38, 40
13, 87840, Note_on_c, 9, 51, 80
13, 87890, Note_off_c, 9, 51, 64
13, 87890, Note_off_c, 9, 38, 64
13, 88080, Note_on_c, 9, 42, 100
13, 88080, Note_on_c, 9, 37, 70
13, 88080, Note_on_c, 9, 51, 90
13, 88130, Note_off_c, 9, 51, 64
13, 88130, Note_off_c, 9, 37, 64
13, 88130, Note_off_c, 9, 42, 64
13, 88256, Note_on_c, 9, 51, 70
13, 88306, Note_off_c, 9, 51, 64
13, 88320, Note_on_c, 9, 51, 70
13, 88370, Note_off_c, 9, 51, 64
13, 88560, Note_on_c, 9, 42, 100
13, 88560, Note_on_c, 9, 37, 70
13, 88560, Note_on_c, 9, 51, 90
13, 88610, Note_off_c, 9, 51, 64
13, 88610, Note_off_c, 9, 37, 64
13, 88610, Note_off_c, 9, 42, 64
13, 88734, Note_on_c, 9, 38, 40
13, 88734, Note_on_c, 9, 51, 50
13, 88784, Note_off_c, 9, 51, 64
13, 88784, Note_off_c, 9, 38, 64
13, 88800, Note_on_c, 9, 51, 80
13, 88850, Note_off_c, 9, 51, 64
13, 89040, Note_on_c, 9, 42, 100
13, 89040, Note_on_c, 9, 37, 70
13, 89040, Note_on_c, 9, 51, 90
13, 89090, Note_off_c, 9, 51, 64
13, 89090, Note_off_c, 9, 37, 64
13, 89090, Note_off_c, 9, 42, 64
13, 89214, Note_on_c, 9, 38, 40
13, 89214, Note_on_c, 9, 51, 50
13, 89264, Note_off_c, 9, 51, 64
13, 89264, Note_off_c, 9, 38, 64
13, 89280, Note_on_c, 9, 51, 80
13, 89330, Note_off_c, 9, 51, 64
13, 89520, Note_on_c, 9, 42, 80
13, 89520, Note_on_c, 9, 37, 70
13, 89520, Note_on_c, 9, 51, 100
13, 89570, Note_off_c, 9, 51, 64
13, 89570, Note_off_c, 9, 37, 64
13, 89570, Note_off_c, 9, 42, 64
13, 89696, Note_on_c, 9, 38, 40
13, 89696, Note_on_c, 9, 51, 70
13, 89746, Note_off_c, 9, 51, 64
13, 89746, Note_off_c, 9, 38, 64
13, 89760, Note_on_c, 9, 51, 80
13, 89810, Note_off_c, 9, 51, 64
13, 89936, Note_on_c, 9, 38, 60
13, 89936, Note_on_c, 9, 51, 50
13, 89986, Note_off_c, 9, 51, 64
13, 89986, Note_off_c, 9, 38, 64
13, 90000, Note_on_c, 9, 42, 100
13, 90000, Note_on_c, 9, 37, 80
13, 90000, Note_on_c, 9, 51, 90
13, 90050, Note_off_c, 9, 51, 64
13, 90050, Note_off_c, 9, 37, 64
13, 90050, Note_off_c, 9, 42, 64
13, 90176, Note_on_c, 9, 38, 50
13, 90176, Note_on_c, 9, 51, 70
13, 90226, Note_off_c, 9, 51, 64
13, 90226, Note_off_c, 9, 38, 64
13, 90240, Note_on_c, 9, 51, 70
13, 90290, Note_off_c, 9, 51, 64
13, 90480, Note_on_c, 9, 42, 100
13, 90480, Note_on_c, 9, 37, 70
13, 90480, Note_on_c, 9, 51, 90
13, 90530, Note_off_c, 9, 51, 64
13, 90530, Note_off_c, 9, 37, 64
13, 90530, Note_off_c, 9, 42, 64
13, 90654, Note_on_c, 9, 38, 40
13, 90654, Note_on_c, 9, 51, 50
13, 90704, Note_off_c, 9, 51, 64
13, 90704, Note_off_c, 9, 38, 64
13, 90720, Note_on_c, 9, 51, 80
13, 90770, Note_off_c, 9, 51, 64
13, 90960, Note_on_c, 9, 42, 100
13, 90960, Note_on_c, 9, 37, 70
13, 90960, Note_on_c, 9, 51, 90
13, 91010, Note_off_c, 9, 51, 64
13, 91010, Note_off_c, 9, 37, 64
13, 91010, Note_off_c, 9, 42, 64
13, 91134, Note_on_c, 9, 38, 40
13, 91134, Note_on_c, 9, 51, 50
13, 91184, Note_off_c, 9, 51, 64
13, 91184, Note_off_c, 9, 38, 64
13, 91200, Note_on_c, 9, 51, 80
13, 91250, Note_off_c, 9, 51, 64
13, 91440, Note_on_c, 9, 42, 70
13, 91440, Note_on_c, 9, 37, 70
13, 91440, Note_on_c, 9, 51, 90
13, 91490, Note_off_c, 9, 51, 64
13, 91490, Note_off_c, 9, 37, 64
13, 91490, Note_off_c, 9, 42, 64
13, 91614, Note_on_c, 9, 38, 40
13, 91614, Note_on_c, 9, 51, 70
13, 91664, Note_off_c, 9, 51, 64
13, 91664, Note_off_c, 9, 38, 64
13, 91680, Note_on_c, 9, 51, 90
13, 91730, Note_off_c, 9, 51, 64
13, 91920, Note_on_c, 9, 42, 100
13, 91920, Note_on_c, 9, 51, 90
13, 91970, Note_off_c, 9, 51, 64
13, 91970, Note_off_c, 9, 42, 64
13, 92094, Note_on_c, 9, 51, 70
13, 92144, Note_off_c, 9, 51, 64
13, 92160, Note_on_c, 9, 51, 80
13, 92210, Note_off_c, 9, 51, 64
13, 92400, Note_on_c, 9, 42, 80
13, 92400, Note_on_c, 9, 37, 70
13, 92400, Note_on_c, 9, 51, 90
13, 92450, Note_off_c, 9, 51, 64
13, 92450, Note_off_c, 9, 37, 64
13, 92450, Note_off_c, 9, 42, 64
13, 92576, Note_on_c, 9, 38, 30
13, 92576, Note_on_c, 9, 51, 70
13, 92626, Note_off_c, 9, 51, 64
13, 92626, Note_off_c, 9, 38, 64
13, 92640, Note_on_c, 9, 38, 40
13, 92640, Note_on_c, 9, 51, 80
13, 92690, Note_off_c, 9, 51, 64
13, 92690, Note_off_c, 9, 38, 64
13, 92880, Note_on_c, 9, 42, 100
13, 92880, Note_on_c, 9, 37, 70
13, 92880, Note_on_c, 9, 51, 90
13, 92930, Note_off_c, 9, 51, 64
13, 92930, Note_off_c, 9, 37, 64
13, 92930, Note_off_c, 9, 42, 64
13, 93056, Note_on_c, 9, 51, 70
13, 93106, Note_off_c, 9, 51, 64
13, 93120, Note_on_c, 9, 35, 70
13, 93120, Note_on_c, 9, 51, 70
13, 93170, Note_off_c, 9, 51, 64
13, 93170, Note_off_c, 9, 35, 64
13, 93296, Note_on_c, 9, 38, 60
13, 93346, Note_off_c, 9, 38, 64
13, 93360, Note_on_c, 9, 42, 90
13, 93360, Note_on_c, 9, 37, 60
13, 93360, Note_on_c, 9, 51, 90
13, 93410, Note_off_c, 9, 51, 64
13, 93410, Note_off_c, 9, 37, 64
13, 93410, Note_off_c, 9, 42, 64
13, 93536, Note_on_c, 9, 38, 50
13, 93536, Note_on_c, 9, 51, 70
13, 93586, Note_off_c, 9, 51, 64
13, 93586, Note_off_c, 9, 38, 64
13, 93600, Note_on_c, 9, 51, 80
13, 93650, Note_off_c, 9, 51, 64
13, 93776, Note_on_c, 9, 38, 60
13, 93776, Note_on_c, 9, 46, 40
13, 93826, Note_off_c, 9, 46, 64
13, 93826, Note_off_c, 9, 38, 64
13, 93840, Note_on_c, 9, 42, 100
13, 93840, Note_on_c, 9, 37, 100
13, 93840, Note_on_c, 9, 51, 90
13, 93890, Note_off_c, 9, 51, 64
13, 93890, Note_off_c, 9, 37, 64
13, 93890, Note_off_c, 9, 42, 64
13, 94016, Note_on_c, 9, 35, 60
13, 94016, Note_on_c, 9, 38, 70
13, 94016, Note_on_c, 9, 51, 70
13, 94066, Note_off_c, 9, 51, 64
13, 94066, Note_off_c, 9, 38, 64
13, 94066, Note_off_c, 9, 35, 64
13, 94080, Note_on_c, 9, 35, 60
13, 94080, Note_on_c, 9, 49, 40
13, 94130, Note_off_c, 9, 49, 64
13, 94130, Note_off_c, 9, 35, 64
13, 94252, Note_on_c, 9, 38, 50
13, 94302, Note_off_c, 9, 38, 64
13, 94320, Note_on_c, 9, 42, 80
13, 94370, Note_off_c, 9, 42, 64
13, 94492, Note_on_c, 9, 38, 40
13, 94542, Note_off_c, 9, 38, 64
13, 94560, Note_on_c, 9, 42, 70
13, 94610, Note_off_c, 9, 42, 64
13, 94732, Note_on_c, 9, 38, 60
13, 94782, Note_off_c, 9, 38, 64
13, 94800, Note_on_c, 9, 46, 80
13, 94850, Note_off_c, 9, 46, 64
13, 94880, Note_on_c, 9, 38, 60
13, 94930, Note_off_c, 9, 38, 64
13, 94972, Note_on_c, 9, 38, 50
13, 95022, Note_off_c, 9, 38, 64
13, 95040, Note_on_c, 9, 35, 70
13, 95040, Note_on_c, 9, 38, 70
13, 95090, Note_off_c, 9, 38, 64
13, 95090, Note_off_c, 9, 35, 64
13, 95200, Note_on_c, 9, 38, 30
13, 95250, Note_off_c, 9, 38, 64
13, 95280, Note_on_c, 9, 38, 60
13, 95330, Note_off_c, 9, 38, 64
13, 95440, Note_on_c, 9, 35, 50
13, 95440, Note_on_c, 9, 38, 70
13, 95490, Note_off_c, 9, 38, 64
13, 95490, Note_off_c, 9, 35, 64
13, 95600, Note_on_c, 9, 38, 20
13, 95650, Note_off_c, 9, 38, 64
13, 95680, Note_on_c, 9, 38, 25
13, 95730, Note_off_c, 9, 38, 64
13, 95760, Note_on_c, 9, 35, 80
13, 95760, Note_on_c, 9, 38, 60
13, 95810, Note_off_c, 9, 38, 64
13, 95810, Note_off_c, 9, 35, 64
13, 95810, End_track
14, 0, Start_track
14, 0, End_track
15, 0, Start_track
15, 0, Title_t, "All instr./Roland Sound Canvas"
15, 0, End_track
16, 0, Start_track
16, 0, Title_t, "Freely distr.  /  GMidi type 1"
16, 0, End_track
17, 0, Start_track
17, 0, Title_t, "Contact MEL68@AOL.COM"
17, 0, End_track
18, 0, Start_track
18, 0, Title_t, "Run time 3:06  /  Ez listening"
18, 0, End_track
19, 0, Start_track
19, 0, Title_t, "            FEB / 13 /97"
19, 0, End_track
0, 0, End_of_file
