0, 0, Header, 1, 10, 384
1, 0, Start_track
1, 0, Time_signature, 4, 2, 96, 8
1, 0, Sequencer_specific, 3, 0, 0, 65
1, 0, Tempo, 750000
1, 12288, Tempo, 416666
1, 13824, Tempo, 750000
1, 44544, Tempo, 416666
1, 46080, Tempo, 750000
1, 46080, End_track
2, 0, Start_track
2, 0, Title_t, "CLARINET PIANO1 BRASS4 CLARINET PIANO1 GUIT"
2, 0, Control_c, 0, 0, 0
2, 0, Program_c, 0, 71
2, 0, Key_signature, 0, "major"
2, 0, Pitch_bend_c, 0, 8192
2, 6912, Note_on_c, 0, 74, 107
2, 7008, Note_off_c, 0, 74, 0
2, 7008, Note_on_c, 0, 74, 95
2, 7104, Note_off_c, 0, 74, 0
2, 7104, Note_on_c, 0, 74, 95
2, 7200, Note_off_c, 0, 74, 0
2, 7200, Note_on_c, 0, 74, 95
2, 7296, Note_off_c, 0, 74, 0
2, 7296, Note_on_c, 0, 74, 95
2, 7488, Note_off_c, 0, 74, 0
2, 7488, Note_on_c, 0, 76, 95
2, 8448, Note_off_c, 0, 76, 0
2, 8448, Note_on_c, 0, 74, 107
2, 8736, Note_off_c, 0, 74, 0
2, 8736, Note_on_c, 0, 71, 95
2, 9024, Note_off_c, 0, 71, 0
2, 9024, Note_on_c, 0, 71, 95
2, 9408, Note_off_c, 0, 71, 0
2, 9408, Note_on_c, 0, 71, 95
2, 9696, Note_off_c, 0, 71, 0
2, 9696, Note_on_c, 0, 69, 95
2, 9792, Note_off_c, 0, 69, 0
2, 9792, Note_on_c, 0, 67, 95
2, 10368, Note_off_c, 0, 67, 0
2, 14592, Note_on_c, 0, 74, 95
2, 14688, Note_off_c, 0, 74, 0
2, 14688, Note_on_c, 0, 74, 95
2, 14880, Note_off_c, 0, 74, 0
2, 14880, Note_on_c, 0, 74, 95
2, 14976, Note_off_c, 0, 74, 0
2, 14976, Note_on_c, 0, 74, 95
2, 15168, Note_off_c, 0, 74, 0
2, 15168, Note_on_c, 0, 76, 95
2, 15936, Note_off_c, 0, 76, 0
2, 15936, Note_on_c, 0, 76, 114
2, 16128, Note_off_c, 0, 76, 0
2, 16128, Note_on_c, 0, 71, 95
2, 16224, Note_off_c, 0, 71, 0
2, 16224, Note_on_c, 0, 74, 95
2, 16512, Note_off_c, 0, 74, 0
2, 16512, Note_on_c, 0, 74, 114
2, 16704, Note_off_c, 0, 74, 0
2, 16704, Note_on_c, 0, 71, 95
2, 16800, Note_off_c, 0, 71, 0
2, 16800, Note_on_c, 0, 69, 95
2, 16992, Note_off_c, 0, 69, 0
2, 16992, Note_on_c, 0, 67, 95
2, 17088, Note_off_c, 0, 67, 0
2, 17088, Note_on_c, 0, 64, 95
2, 17664, Note_off_c, 0, 64, 0
2, 19584, Program_c, 0, 0
2, 19584, Note_on_c, 0, 62, 95
2, 19680, Note_off_c, 0, 62, 0
2, 19680, Note_on_c, 0, 64, 95
2, 19968, Note_off_c, 0, 64, 0
2, 19968, Note_on_c, 0, 67, 120
2, 20064, Note_off_c, 0, 67, 0
2, 20064, Note_on_c, 0, 67, 120
2, 20352, Note_off_c, 0, 67, 0
2, 20352, Note_on_c, 0, 69, 120
2, 20544, Note_off_c, 0, 69, 0
2, 20544, Note_on_c, 0, 64, 114
2, 20640, Note_off_c, 0, 64, 0
2, 20640, Note_on_c, 0, 64, 114
2, 21120, Note_off_c, 0, 64, 0
2, 21120, Note_on_c, 0, 62, 114
2, 21216, Note_off_c, 0, 62, 0
2, 21216, Note_on_c, 0, 64, 114
2, 21504, Note_off_c, 0, 64, 0
2, 21504, Note_on_c, 0, 67, 120
2, 21600, Note_off_c, 0, 67, 0
2, 21600, Note_on_c, 0, 67, 120
2, 21792, Note_off_c, 0, 67, 0
2, 21792, Note_on_c, 0, 69, 120
2, 22080, Note_off_c, 0, 69, 0
2, 22080, Note_on_c, 0, 64, 114
2, 22176, Note_off_c, 0, 64, 0
2, 22176, Note_on_c, 0, 62, 114
2, 22272, Note_off_c, 0, 62, 0
2, 22272, Note_on_c, 0, 64, 114
2, 22656, Note_off_c, 0, 64, 0
2, 22656, Note_on_c, 0, 62, 114
2, 22752, Note_off_c, 0, 62, 0
2, 22752, Note_on_c, 0, 64, 114
2, 23040, Note_off_c, 0, 64, 0
2, 23040, Note_on_c, 0, 71, 114
2, 23424, Note_off_c, 0, 71, 0
2, 23424, Note_on_c, 0, 69, 114
2, 23616, Note_off_c, 0, 69, 0
2, 23616, Note_on_c, 0, 67, 114
2, 23808, Note_off_c, 0, 67, 0
2, 23808, Note_on_c, 0, 69, 114
2, 24000, Note_off_c, 0, 69, 0
2, 24000, Note_on_c, 0, 67, 114
2, 24192, Note_off_c, 0, 67, 0
2, 24192, Note_on_c, 0, 64, 114
2, 24288, Note_off_c, 0, 64, 0
2, 24288, Note_on_c, 0, 64, 114
2, 24576, Note_off_c, 0, 64, 0
2, 24576, Note_on_c, 0, 67, 114
2, 24672, Note_off_c, 0, 67, 0
2, 24672, Note_on_c, 0, 64, 114
2, 24960, Note_off_c, 0, 64, 0
2, 24960, Note_on_c, 0, 64, 114
2, 25152, Note_off_c, 0, 64, 0
2, 25152, Note_on_c, 0, 62, 114
2, 25248, Note_off_c, 0, 62, 0
2, 25248, Note_on_c, 0, 64, 114
2, 25728, Note_off_c, 0, 64, 0
2, 25728, Note_on_c, 0, 64, 114
2, 25824, Note_off_c, 0, 64, 0
2, 25824, Note_on_c, 0, 64, 114
2, 26112, Note_off_c, 0, 64, 0
2, 26112, Note_on_c, 0, 67, 114
2, 26208, Note_off_c, 0, 67, 0
2, 26208, Note_on_c, 0, 67, 114
2, 26496, Note_off_c, 0, 67, 0
2, 26496, Note_on_c, 0, 69, 114
2, 26688, Note_off_c, 0, 69, 0
2, 26688, Note_on_c, 0, 64, 114
2, 26784, Note_off_c, 0, 64, 0
2, 26784, Note_on_c, 0, 64, 114
2, 27072, Note_off_c, 0, 64, 0
2, 27264, Note_on_c, 0, 62, 114
2, 27360, Note_off_c, 0, 62, 0
2, 27360, Note_on_c, 0, 64, 114
2, 27648, Note_off_c, 0, 64, 0
2, 27648, Note_on_c, 0, 67, 114
2, 27744, Note_off_c, 0, 67, 0
2, 27744, Note_on_c, 0, 67, 114
2, 27936, Note_off_c, 0, 67, 0
2, 27936, Note_on_c, 0, 69, 114
2, 28224, Note_off_c, 0, 69, 0
2, 28224, Note_on_c, 0, 64, 114
2, 28320, Note_off_c, 0, 64, 0
2, 28320, Note_on_c, 0, 62, 114
2, 28416, Note_off_c, 0, 62, 0
2, 28416, Note_on_c, 0, 64, 114
2, 28800, Note_off_c, 0, 64, 0
2, 28800, Note_on_c, 0, 62, 114
2, 28896, Note_off_c, 0, 62, 0
2, 28896, Note_on_c, 0, 64, 114
2, 29184, Note_off_c, 0, 64, 0
2, 29184, Note_on_c, 0, 71, 114
2, 29568, Note_off_c, 0, 71, 0
2, 29568, Note_on_c, 0, 69, 114
2, 29760, Note_off_c, 0, 69, 0
2, 29760, Note_on_c, 0, 67, 114
2, 29952, Note_off_c, 0, 67, 0
2, 29952, Note_on_c, 0, 69, 114
2, 30144, Note_off_c, 0, 69, 0
2, 30144, Note_on_c, 0, 67, 114
2, 30336, Note_off_c, 0, 67, 0
2, 30336, Note_on_c, 0, 64, 114
2, 30432, Note_off_c, 0, 64, 0
2, 30432, Note_on_c, 0, 64, 114
2, 30720, Note_off_c, 0, 64, 0
2, 30720, Note_on_c, 0, 67, 114
2, 30816, Note_off_c, 0, 67, 0
2, 30816, Note_on_c, 0, 64, 114
2, 31104, Note_off_c, 0, 64, 0
2, 31104, Note_on_c, 0, 64, 114
2, 31296, Note_off_c, 0, 64, 0
2, 31296, Note_on_c, 0, 62, 114
2, 31392, Note_off_c, 0, 62, 0
2, 31392, Note_on_c, 0, 64, 114
2, 32256, Note_off_c, 0, 64, 0
2, 32256, Program_c, 0, 61
2, 38400, Program_c, 0, 71
2, 39168, Note_on_c, 0, 74, 107
2, 39264, Note_off_c, 0, 74, 0
2, 39264, Note_on_c, 0, 74, 95
2, 39360, Note_off_c, 0, 74, 0
2, 39360, Note_on_c, 0, 74, 95
2, 39456, Note_off_c, 0, 74, 0
2, 39456, Note_on_c, 0, 74, 95
2, 39552, Note_off_c, 0, 74, 0
2, 39552, Note_on_c, 0, 74, 95
2, 39744, Note_off_c, 0, 74, 0
2, 39744, Note_on_c, 0, 76, 95
2, 40704, Note_off_c, 0, 76, 0
2, 40704, Note_on_c, 0, 74, 107
2, 40992, Note_off_c, 0, 74, 0
2, 40992, Note_on_c, 0, 71, 95
2, 41280, Note_off_c, 0, 71, 0
2, 41280, Note_on_c, 0, 71, 95
2, 41664, Note_off_c, 0, 71, 0
2, 41664, Note_on_c, 0, 71, 95
2, 41952, Note_off_c, 0, 71, 0
2, 41952, Note_on_c, 0, 69, 95
2, 42048, Note_off_c, 0, 69, 0
2, 42048, Note_on_c, 0, 67, 95
2, 42624, Note_off_c, 0, 67, 0
2, 46848, Note_on_c, 0, 74, 95
2, 46944, Note_off_c, 0, 74, 0
2, 46944, Note_on_c, 0, 74, 95
2, 47136, Note_off_c, 0, 74, 0
2, 47136, Note_on_c, 0, 74, 95
2, 47232, Note_off_c, 0, 74, 0
2, 47232, Note_on_c, 0, 74, 95
2, 47424, Note_off_c, 0, 74, 0
2, 47424, Note_on_c, 0, 76, 95
2, 48192, Note_off_c, 0, 76, 0
2, 48192, Note_on_c, 0, 76, 114
2, 48384, Note_off_c, 0, 76, 0
2, 48384, Note_on_c, 0, 71, 95
2, 48480, Note_off_c, 0, 71, 0
2, 48480, Note_on_c, 0, 74, 95
2, 48768, Note_off_c, 0, 74, 0
2, 48768, Note_on_c, 0, 74, 114
2, 48960, Note_off_c, 0, 74, 0
2, 48960, Note_on_c, 0, 71, 95
2, 49056, Note_off_c, 0, 71, 0
2, 49056, Note_on_c, 0, 69, 95
2, 49248, Note_off_c, 0, 69, 0
2, 49248, Note_on_c, 0, 67, 95
2, 49344, Note_off_c, 0, 67, 0
2, 49344, Note_on_c, 0, 64, 95
2, 49920, Note_off_c, 0, 64, 0
2, 52992, Note_on_c, 0, 74, 95
2, 53184, Note_off_c, 0, 74, 0
2, 53184, Note_on_c, 0, 74, 95
2, 53280, Note_off_c, 0, 74, 0
2, 53280, Note_on_c, 0, 74, 95
2, 53568, Note_off_c, 0, 74, 0
2, 53568, Note_on_c, 0, 76, 95
2, 54336, Note_off_c, 0, 76, 0
2, 54336, Note_on_c, 0, 76, 114
2, 54528, Note_off_c, 0, 76, 0
2, 54528, Note_on_c, 0, 71, 95
2, 54624, Note_off_c, 0, 71, 0
2, 54624, Note_on_c, 0, 74, 95
2, 54912, Note_off_c, 0, 74, 0
2, 54912, Note_on_c, 0, 74, 114
2, 55104, Note_off_c, 0, 74, 0
2, 55104, Note_on_c, 0, 71, 95
2, 55200, Note_off_c, 0, 71, 0
2, 55200, Note_on_c, 0, 69, 95
2, 55392, Note_off_c, 0, 69, 0
2, 55392, Note_on_c, 0, 67, 95
2, 55488, Note_off_c, 0, 67, 0
2, 55488, Note_on_c, 0, 64, 95
2, 56064, Note_off_c, 0, 64, 0
2, 57984, Program_c, 0, 0
2, 57984, Note_on_c, 0, 62, 95
2, 58080, Note_off_c, 0, 62, 0
2, 58080, Note_on_c, 0, 64, 95
2, 58368, Note_off_c, 0, 64, 0
2, 58368, Note_on_c, 0, 67, 120
2, 58464, Note_off_c, 0, 67, 0
2, 58464, Note_on_c, 0, 67, 120
2, 58752, Note_off_c, 0, 67, 0
2, 58752, Note_on_c, 0, 69, 120
2, 58944, Note_off_c, 0, 69, 0
2, 58944, Note_on_c, 0, 64, 114
2, 59040, Note_off_c, 0, 64, 0
2, 59040, Note_on_c, 0, 64, 114
2, 59520, Note_off_c, 0, 64, 0
2, 59520, Note_on_c, 0, 62, 114
2, 59616, Note_off_c, 0, 62, 0
2, 59616, Note_on_c, 0, 64, 114
2, 59904, Note_off_c, 0, 64, 0
2, 59904, Note_on_c, 0, 67, 120
2, 60000, Note_off_c, 0, 67, 0
2, 60000, Note_on_c, 0, 67, 120
2, 60192, Note_off_c, 0, 67, 0
2, 60192, Note_on_c, 0, 69, 120
2, 60480, Note_off_c, 0, 69, 0
2, 60480, Note_on_c, 0, 64, 114
2, 60576, Note_off_c, 0, 64, 0
2, 60576, Note_on_c, 0, 62, 114
2, 60672, Note_off_c, 0, 62, 0
2, 60672, Note_on_c, 0, 64, 114
2, 61056, Note_off_c, 0, 64, 0
2, 61056, Note_on_c, 0, 62, 114
2, 61152, Note_off_c, 0, 62, 0
2, 61152, Note_on_c, 0, 64, 114
2, 61440, Note_off_c, 0, 64, 0
2, 61440, Note_on_c, 0, 71, 114
2, 61824, Note_off_c, 0, 71, 0
2, 61824, Note_on_c, 0, 69, 114
2, 62016, Note_off_c, 0, 69, 0
2, 62016, Note_on_c, 0, 67, 114
2, 62208, Note_off_c, 0, 67, 0
2, 62208, Note_on_c, 0, 69, 114
2, 62400, Note_off_c, 0, 69, 0
2, 62400, Note_on_c, 0, 67, 114
2, 62592, Note_off_c, 0, 67, 0
2, 62592, Note_on_c, 0, 64, 114
2, 62688, Note_off_c, 0, 64, 0
2, 62688, Note_on_c, 0, 64, 114
2, 62976, Note_off_c, 0, 64, 0
2, 62976, Note_on_c, 0, 67, 114
2, 63072, Note_off_c, 0, 67, 0
2, 63072, Note_on_c, 0, 64, 114
2, 63360, Note_off_c, 0, 64, 0
2, 63360, Note_on_c, 0, 64, 114
2, 63552, Note_off_c, 0, 64, 0
2, 63552, Note_on_c, 0, 62, 114
2, 63648, Note_off_c, 0, 62, 0
2, 63648, Note_on_c, 0, 64, 114
2, 64128, Note_off_c, 0, 64, 0
2, 64128, Note_on_c, 0, 64, 114
2, 64224, Note_off_c, 0, 64, 0
2, 64224, Note_on_c, 0, 64, 114
2, 64512, Note_off_c, 0, 64, 0
2, 64512, Note_on_c, 0, 67, 114
2, 64608, Note_off_c, 0, 67, 0
2, 64608, Note_on_c, 0, 67, 114
2, 64896, Note_off_c, 0, 67, 0
2, 64896, Note_on_c, 0, 69, 114
2, 65088, Note_off_c, 0, 69, 0
2, 65088, Note_on_c, 0, 64, 114
2, 65184, Note_off_c, 0, 64, 0
2, 65184, Note_on_c, 0, 64, 114
2, 65472, Note_off_c, 0, 64, 0
2, 65664, Note_on_c, 0, 62, 114
2, 65760, Note_off_c, 0, 62, 0
2, 65760, Note_on_c, 0, 64, 114
2, 66048, Note_off_c, 0, 64, 0
2, 66048, Note_on_c, 0, 67, 114
2, 66144, Note_off_c, 0, 67, 0
2, 66144, Note_on_c, 0, 67, 114
2, 66336, Note_off_c, 0, 67, 0
2, 66336, Note_on_c, 0, 69, 114
2, 66624, Note_off_c, 0, 69, 0
2, 66624, Note_on_c, 0, 64, 114
2, 66720, Note_off_c, 0, 64, 0
2, 66720, Note_on_c, 0, 62, 114
2, 66816, Note_off_c, 0, 62, 0
2, 66816, Note_on_c, 0, 64, 114
2, 67200, Note_off_c, 0, 64, 0
2, 67200, Note_on_c, 0, 62, 114
2, 67296, Note_off_c, 0, 62, 0
2, 67296, Note_on_c, 0, 64, 114
2, 67584, Note_off_c, 0, 64, 0
2, 67584, Note_on_c, 0, 71, 114
2, 67968, Note_off_c, 0, 71, 0
2, 67968, Note_on_c, 0, 69, 114
2, 68160, Note_off_c, 0, 69, 0
2, 68160, Note_on_c, 0, 67, 114
2, 68352, Note_off_c, 0, 67, 0
2, 68352, Note_on_c, 0, 69, 114
2, 68544, Note_off_c, 0, 69, 0
2, 68544, Note_on_c, 0, 67, 114
2, 68736, Note_off_c, 0, 67, 0
2, 68736, Note_on_c, 0, 64, 114
2, 68832, Note_off_c, 0, 64, 0
2, 68832, Note_on_c, 0, 64, 114
2, 69120, Note_off_c, 0, 64, 0
2, 69120, Note_on_c, 0, 67, 114
2, 69216, Note_off_c, 0, 67, 0
2, 69216, Note_on_c, 0, 64, 114
2, 69504, Note_off_c, 0, 64, 0
2, 69504, Note_on_c, 0, 64, 114
2, 69696, Note_off_c, 0, 64, 0
2, 69696, Note_on_c, 0, 62, 114
2, 69792, Note_off_c, 0, 62, 0
2, 69792, Note_on_c, 0, 64, 114
2, 70272, Note_off_c, 0, 64, 0
2, 70272, Note_on_c, 0, 64, 114
2, 70368, Note_off_c, 0, 64, 0
2, 70368, Note_on_c, 0, 64, 114
2, 70656, Note_off_c, 0, 64, 0
2, 70656, Note_on_c, 0, 67, 114
2, 70752, Note_off_c, 0, 67, 0
2, 70752, Note_on_c, 0, 67, 114
2, 71040, Note_off_c, 0, 67, 0
2, 71040, Note_on_c, 0, 69, 114
2, 71232, Note_off_c, 0, 69, 0
2, 71232, Note_on_c, 0, 64, 114
2, 71328, Note_off_c, 0, 64, 0
2, 71328, Note_on_c, 0, 64, 114
2, 71616, Note_off_c, 0, 64, 0
2, 71808, Note_on_c, 0, 62, 114
2, 71904, Note_off_c, 0, 62, 0
2, 71904, Note_on_c, 0, 64, 114
2, 72192, Note_off_c, 0, 64, 0
2, 72192, Note_on_c, 0, 67, 114
2, 72288, Note_off_c, 0, 67, 0
2, 72288, Note_on_c, 0, 67, 114
2, 72480, Note_off_c, 0, 67, 0
2, 72480, Note_on_c, 0, 69, 114
2, 72768, Note_off_c, 0, 69, 0
2, 72768, Note_on_c, 0, 64, 114
2, 72864, Note_off_c, 0, 64, 0
2, 72864, Note_on_c, 0, 62, 114
2, 72960, Note_off_c, 0, 62, 0
2, 72960, Note_on_c, 0, 64, 114
2, 73344, Note_off_c, 0, 64, 0
2, 73344, Note_on_c, 0, 62, 114
2, 73440, Note_off_c, 0, 62, 0
2, 73440, Note_on_c, 0, 64, 114
2, 73728, Note_off_c, 0, 64, 0
2, 73728, Note_on_c, 0, 71, 114
2, 74112, Note_off_c, 0, 71, 0
2, 74112, Note_on_c, 0, 69, 114
2, 74304, Note_off_c, 0, 69, 0
2, 74304, Note_on_c, 0, 67, 114
2, 74496, Note_off_c, 0, 67, 0
2, 74496, Note_on_c, 0, 69, 114
2, 74688, Note_off_c, 0, 69, 0
2, 74688, Note_on_c, 0, 67, 114
2, 74880, Note_off_c, 0, 67, 0
2, 74880, Note_on_c, 0, 64, 114
2, 74976, Note_off_c, 0, 64, 0
2, 74976, Note_on_c, 0, 64, 114
2, 75264, Note_off_c, 0, 64, 0
2, 75264, Note_on_c, 0, 67, 114
2, 75360, Note_off_c, 0, 67, 0
2, 75360, Note_on_c, 0, 64, 114
2, 75648, Note_off_c, 0, 64, 0
2, 75648, Note_on_c, 0, 64, 114
2, 75840, Note_off_c, 0, 64, 0
2, 75840, Note_on_c, 0, 62, 114
2, 75936, Note_off_c, 0, 62, 0
2, 75936, Note_on_c, 0, 64, 114
2, 76800, Note_off_c, 0, 64, 0
2, 76800, Note_on_c, 0, 64, 114
2, 77376, Note_off_c, 0, 64, 0
2, 77376, Note_on_c, 0, 66, 114
2, 77568, Note_off_c, 0, 66, 0
2, 77568, Note_on_c, 0, 66, 114
2, 77760, Note_off_c, 0, 66, 0
2, 77760, Note_on_c, 0, 66, 114
2, 77856, Note_off_c, 0, 66, 0
2, 77856, Note_on_c, 0, 64, 114
2, 77952, Note_off_c, 0, 64, 0
2, 77952, Note_on_c, 0, 60, 114
2, 78048, Note_off_c, 0, 60, 0
2, 78048, Note_on_c, 0, 66, 114
2, 78144, Note_off_c, 0, 66, 0
2, 78144, Note_on_c, 0, 64, 114
2, 78240, Note_off_c, 0, 64, 0
2, 78240, Note_on_c, 0, 59, 114
2, 78912, Note_off_c, 0, 59, 0
2, 78912, Note_on_c, 0, 66, 114
2, 79872, Note_off_c, 0, 66, 0
2, 79872, Program_c, 0, 25
2, 79872, Note_on_c, 0, 64, 114
2, 80448, Note_off_c, 0, 64, 0
2, 80448, Note_on_c, 0, 66, 114
2, 80832, Note_off_c, 0, 66, 0
2, 80832, Note_on_c, 0, 66, 114
2, 80928, Note_off_c, 0, 66, 0
2, 80928, Note_on_c, 0, 64, 114
2, 81024, Note_off_c, 0, 64, 0
2, 81024, Note_on_c, 0, 60, 114
2, 81120, Note_off_c, 0, 60, 0
2, 81120, Note_on_c, 0, 66, 114
2, 81216, Note_off_c, 0, 66, 0
2, 81216, Note_on_c, 0, 64, 114
2, 81312, Note_off_c, 0, 64, 0
2, 81312, Note_on_c, 0, 59, 114
2, 82176, Note_off_c, 0, 59, 0
2, 82176, Note_on_c, 0, 66, 114
2, 82272, Note_off_c, 0, 66, 0
2, 82272, Note_on_c, 0, 64, 114
2, 82368, Note_off_c, 0, 64, 0
2, 82368, Note_on_c, 0, 60, 114
2, 82464, Note_off_c, 0, 60, 0
2, 82464, Note_on_c, 0, 66, 114
2, 82560, Note_off_c, 0, 66, 0
2, 82560, Note_on_c, 0, 64, 114
2, 82656, Note_off_c, 0, 64, 0
2, 82656, Note_on_c, 0, 60, 114
2, 82752, Note_off_c, 0, 60, 0
2, 82752, Note_on_c, 0, 66, 114
2, 82848, Note_off_c, 0, 66, 0
2, 82848, Note_on_c, 0, 59, 114
2, 84480, Note_off_c, 0, 59, 0
2, 90624, Note_on_c, 0, 76, 63
2, 90720, Note_off_c, 0, 76, 0
2, 90720, Note_on_c, 0, 76, 63
2, 90816, Note_off_c, 0, 76, 0
2, 90816, Note_on_c, 0, 76, 63
2, 90912, Note_off_c, 0, 76, 0
2, 90912, Note_on_c, 0, 76, 63
2, 91008, Note_off_c, 0, 76, 0
2, 91008, Note_on_c, 0, 76, 66
2, 91104, Note_off_c, 0, 76, 0
2, 91104, Note_on_c, 0, 76, 66
2, 91200, Note_off_c, 0, 76, 0
2, 91200, Note_on_c, 0, 76, 66
2, 91296, Note_off_c, 0, 76, 0
2, 91296, Note_on_c, 0, 76, 66
2, 91392, Note_off_c, 0, 76, 0
2, 91392, Note_on_c, 0, 76, 68
2, 91488, Note_off_c, 0, 76, 0
2, 91488, Note_on_c, 0, 76, 68
2, 91584, Note_off_c, 0, 76, 0
2, 91584, Note_on_c, 0, 76, 68
2, 91680, Note_off_c, 0, 76, 0
2, 91680, Note_on_c, 0, 76, 68
2, 91776, Note_off_c, 0, 76, 0
2, 91776, Note_on_c, 0, 76, 71
2, 91872, Note_off_c, 0, 76, 0
2, 91872, Note_on_c, 0, 76, 71
2, 91968, Note_off_c, 0, 76, 0
2, 91968, Note_on_c, 0, 76, 71
2, 92064, Note_off_c, 0, 76, 0
2, 92064, Note_on_c, 0, 76, 71
2, 92160, Note_off_c, 0, 76, 0
2, 92160, Note_on_c, 0, 76, 73
2, 92256, Note_off_c, 0, 76, 0
2, 92256, Note_on_c, 0, 76, 73
2, 92352, Note_off_c, 0, 76, 0
2, 92352, Note_on_c, 0, 76, 73
2, 92448, Note_off_c, 0, 76, 0
2, 92448, Note_on_c, 0, 76, 73
2, 92544, Note_off_c, 0, 76, 0
2, 92544, Note_on_c, 0, 76, 76
2, 92640, Note_off_c, 0, 76, 0
2, 92640, Note_on_c, 0, 76, 76
2, 92736, Note_off_c, 0, 76, 0
2, 92736, Note_on_c, 0, 76, 76
2, 92832, Note_off_c, 0, 76, 0
2, 92832, Note_on_c, 0, 76, 76
2, 92928, Note_off_c, 0, 76, 0
2, 92928, Note_on_c, 0, 76, 78
2, 93024, Note_off_c, 0, 76, 0
2, 93024, Note_on_c, 0, 76, 78
2, 93120, Note_off_c, 0, 76, 0
2, 93120, Note_on_c, 0, 76, 78
2, 93216, Note_off_c, 0, 76, 0
2, 93216, Note_on_c, 0, 76, 78
2, 93312, Note_off_c, 0, 76, 0
2, 93312, Note_on_c, 0, 76, 81
2, 93408, Note_off_c, 0, 76, 0
2, 93408, Note_on_c, 0, 76, 81
2, 93504, Note_off_c, 0, 76, 0
2, 93504, Note_on_c, 0, 76, 81
2, 93600, Note_off_c, 0, 76, 0
2, 93600, Note_on_c, 0, 76, 81
2, 93696, Note_off_c, 0, 76, 0
2, 93696, Note_on_c, 0, 76, 83
2, 93792, Note_off_c, 0, 76, 0
2, 93792, Note_on_c, 0, 76, 83
2, 93888, Note_off_c, 0, 76, 0
2, 93888, Note_on_c, 0, 76, 83
2, 93984, Note_off_c, 0, 76, 0
2, 93984, Note_on_c, 0, 76, 83
2, 94080, Note_off_c, 0, 76, 0
2, 94080, Note_on_c, 0, 76, 86
2, 94176, Note_off_c, 0, 76, 0
2, 94176, Note_on_c, 0, 76, 86
2, 94272, Note_off_c, 0, 76, 0
2, 94272, Note_on_c, 0, 76, 86
2, 94368, Note_off_c, 0, 76, 0
2, 94368, Note_on_c, 0, 76, 86
2, 94464, Note_off_c, 0, 76, 0
2, 94464, Note_on_c, 0, 76, 88
2, 94560, Note_off_c, 0, 76, 0
2, 94560, Note_on_c, 0, 76, 88
2, 94656, Note_off_c, 0, 76, 0
2, 94656, Note_on_c, 0, 76, 88
2, 94752, Note_off_c, 0, 76, 0
2, 94752, Note_on_c, 0, 76, 88
2, 94848, Note_off_c, 0, 76, 0
2, 94848, Note_on_c, 0, 76, 91
2, 94944, Note_off_c, 0, 76, 0
2, 94944, Note_on_c, 0, 76, 91
2, 95040, Note_off_c, 0, 76, 0
2, 95040, Note_on_c, 0, 76, 91
2, 95136, Note_off_c, 0, 76, 0
2, 95136, Note_on_c, 0, 76, 91
2, 95232, Note_off_c, 0, 76, 0
2, 95232, Note_on_c, 0, 76, 93
2, 95328, Note_off_c, 0, 76, 0
2, 95328, Note_on_c, 0, 76, 93
2, 95424, Note_off_c, 0, 76, 0
2, 95424, Note_on_c, 0, 76, 93
2, 95520, Note_off_c, 0, 76, 0
2, 95520, Note_on_c, 0, 76, 93
2, 95616, Note_off_c, 0, 76, 0
2, 95616, Note_on_c, 0, 76, 96
2, 95712, Note_off_c, 0, 76, 0
2, 95712, Note_on_c, 0, 76, 96
2, 95808, Note_off_c, 0, 76, 0
2, 95808, Note_on_c, 0, 76, 96
2, 95904, Note_off_c, 0, 76, 0
2, 95904, Note_on_c, 0, 76, 96
2, 96000, Note_off_c, 0, 76, 0
2, 96000, Note_on_c, 0, 76, 99
2, 96096, Note_off_c, 0, 76, 0
2, 96096, Note_on_c, 0, 76, 99
2, 96192, Note_off_c, 0, 76, 0
2, 96192, Note_on_c, 0, 76, 99
2, 96288, Note_off_c, 0, 76, 0
2, 96288, Note_on_c, 0, 76, 99
2, 96384, Note_off_c, 0, 76, 0
2, 96384, Note_on_c, 0, 76, 101
2, 96480, Note_off_c, 0, 76, 0
2, 96480, Note_on_c, 0, 76, 101
2, 96576, Note_off_c, 0, 76, 0
2, 96576, Note_on_c, 0, 76, 101
2, 96672, Note_off_c, 0, 76, 0
2, 96672, Note_on_c, 0, 76, 101
2, 96768, Note_off_c, 0, 76, 0
2, 96768, Note_on_c, 0, 76, 104
2, 96864, Note_off_c, 0, 76, 0
2, 96864, Note_on_c, 0, 76, 104
2, 96960, Note_off_c, 0, 76, 0
2, 96960, Note_on_c, 0, 76, 104
2, 97056, Note_off_c, 0, 76, 0
2, 97056, Note_on_c, 0, 76, 104
2, 97152, Note_off_c, 0, 76, 0
2, 97152, Note_on_c, 0, 76, 106
2, 97248, Note_off_c, 0, 76, 0
2, 97248, Note_on_c, 0, 76, 106
2, 97344, Note_off_c, 0, 76, 0
2, 97344, Note_on_c, 0, 76, 106
2, 97440, Note_off_c, 0, 76, 0
2, 97440, Note_on_c, 0, 76, 106
2, 97536, Note_off_c, 0, 76, 0
2, 97536, Note_on_c, 0, 76, 109
2, 97632, Note_off_c, 0, 76, 0
2, 97632, Note_on_c, 0, 76, 109
2, 97728, Note_off_c, 0, 76, 0
2, 97728, Note_on_c, 0, 76, 109
2, 97824, Note_off_c, 0, 76, 0
2, 97824, Note_on_c, 0, 76, 109
2, 97920, Note_off_c, 0, 76, 0
2, 97920, Note_on_c, 0, 76, 109
2, 98016, Note_off_c, 0, 76, 0
2, 98016, Note_on_c, 0, 76, 109
2, 98112, Note_off_c, 0, 76, 0
2, 98112, Note_on_c, 0, 76, 109
2, 98208, Note_off_c, 0, 76, 0
2, 98208, Note_on_c, 0, 76, 109
2, 98304, Note_off_c, 0, 76, 0
2, 98304, Note_on_c, 0, 76, 109
2, 98400, Note_off_c, 0, 76, 0
2, 98400, Note_on_c, 0, 76, 109
2, 98496, Note_off_c, 0, 76, 0
2, 98496, Note_on_c, 0, 76, 109
2, 98592, Note_off_c, 0, 76, 0
2, 98592, Note_on_c, 0, 76, 109
2, 98688, Note_off_c, 0, 76, 0
2, 98688, Note_on_c, 0, 76, 109
2, 98784, Note_off_c, 0, 76, 0
2, 98784, Note_on_c, 0, 76, 109
2, 98880, Note_off_c, 0, 76, 0
2, 98880, Note_on_c, 0, 76, 109
2, 98976, Note_off_c, 0, 76, 0
2, 98976, Note_on_c, 0, 76, 109
2, 99072, Note_off_c, 0, 76, 0
2, 99072, Note_on_c, 0, 76, 109
2, 99168, Note_off_c, 0, 76, 0
2, 99168, Note_on_c, 0, 76, 109
2, 99264, Note_off_c, 0, 76, 0
2, 99264, Note_on_c, 0, 76, 109
2, 99360, Note_off_c, 0, 76, 0
2, 99360, Note_on_c, 0, 76, 109
2, 99456, Note_off_c, 0, 76, 0
2, 99456, Note_on_c, 0, 76, 109
2, 99552, Note_off_c, 0, 76, 0
2, 99552, Note_on_c, 0, 76, 109
2, 99648, Note_off_c, 0, 76, 0
2, 99648, Note_on_c, 0, 76, 109
2, 99744, Note_off_c, 0, 76, 0
2, 99744, Note_on_c, 0, 76, 109
2, 99840, Note_off_c, 0, 76, 0
2, 99840, Program_c, 0, 71
2, 99840, Note_on_c, 0, 79, 120
2, 100128, Note_off_c, 0, 79, 0
2, 100128, Note_on_c, 0, 78, 120
2, 100416, Note_off_c, 0, 78, 0
2, 100416, Note_on_c, 0, 76, 120
2, 100992, Note_off_c, 0, 76, 0
2, 100992, Note_on_c, 0, 76, 120
2, 101088, Note_off_c, 0, 76, 0
2, 101088, Note_on_c, 0, 76, 120
2, 101280, Note_off_c, 0, 76, 0
2, 101280, Note_on_c, 0, 74, 120
2, 101376, Note_off_c, 0, 74, 0
2, 101376, Note_on_c, 0, 76, 120
2, 101568, Note_off_c, 0, 76, 0
2, 101568, Note_on_c, 0, 76, 120
2, 101760, Note_off_c, 0, 76, 0
2, 102144, Note_on_c, 0, 83, 120
2, 102336, Note_off_c, 0, 83, 0
2, 102336, Note_on_c, 0, 81, 120
2, 102432, Note_off_c, 0, 81, 0
2, 102432, Note_on_c, 0, 79, 120
2, 102528, Note_off_c, 0, 79, 0
2, 102528, Note_on_c, 0, 81, 120
2, 102720, Note_off_c, 0, 81, 0
2, 102720, Note_on_c, 0, 76, 120
2, 102912, Note_off_c, 0, 76, 0
2, 102912, Note_on_c, 0, 79, 101
2, 103200, Note_off_c, 0, 79, 0
2, 103200, Note_on_c, 0, 78, 101
2, 103488, Note_off_c, 0, 78, 0
2, 103488, Note_on_c, 0, 76, 101
2, 104064, Note_off_c, 0, 76, 0
2, 104064, Note_on_c, 0, 76, 101
2, 104160, Note_off_c, 0, 76, 0
2, 104160, Note_on_c, 0, 76, 101
2, 104352, Note_off_c, 0, 76, 0
2, 104352, Note_on_c, 0, 74, 101
2, 104448, Note_off_c, 0, 74, 0
2, 104448, Note_on_c, 0, 76, 101
2, 104640, Note_off_c, 0, 76, 0
2, 104640, Note_on_c, 0, 76, 101
2, 104832, Note_off_c, 0, 76, 0
2, 105216, Note_on_c, 0, 83, 101
2, 105408, Note_off_c, 0, 83, 0
2, 105408, Note_on_c, 0, 81, 101
2, 105504, Note_off_c, 0, 81, 0
2, 105504, Note_on_c, 0, 79, 101
2, 105600, Note_off_c, 0, 79, 0
2, 105600, Note_on_c, 0, 81, 101
2, 105792, Note_off_c, 0, 81, 0
2, 105792, Note_on_c, 0, 76, 101
2, 105984, Note_off_c, 0, 76, 0
2, 105984, Note_on_c, 0, 79, 63
2, 106272, Note_off_c, 0, 79, 0
2, 106272, Note_on_c, 0, 78, 63
2, 106560, Note_off_c, 0, 78, 0
2, 106560, Note_on_c, 0, 76, 63
2, 107136, Note_off_c, 0, 76, 0
2, 107136, Note_on_c, 0, 76, 63
2, 107232, Note_off_c, 0, 76, 0
2, 107232, Note_on_c, 0, 76, 63
2, 107424, Note_off_c, 0, 76, 0
2, 107424, Note_on_c, 0, 74, 63
2, 107520, Note_off_c, 0, 74, 0
2, 107520, Note_on_c, 0, 76, 63
2, 107712, Note_off_c, 0, 76, 0
2, 107712, Note_on_c, 0, 76, 63
2, 107904, Note_off_c, 0, 76, 0
2, 108288, Note_on_c, 0, 83, 63
2, 108480, Note_off_c, 0, 83, 0
2, 108480, Note_on_c, 0, 81, 63
2, 108576, Note_off_c, 0, 81, 0
2, 108576, Note_on_c, 0, 79, 63
2, 108672, Note_off_c, 0, 79, 0
2, 108672, Note_on_c, 0, 81, 63
2, 108864, Note_off_c, 0, 81, 0
2, 108864, Note_on_c, 0, 76, 63
2, 109056, Note_off_c, 0, 76, 0
2, 109056, Note_on_c, 0, 79, 38
2, 109344, Note_off_c, 0, 79, 0
2, 109344, Note_on_c, 0, 78, 38
2, 109632, Note_off_c, 0, 78, 0
2, 109632, Note_on_c, 0, 76, 38
2, 110208, Note_off_c, 0, 76, 0
2, 110208, Note_on_c, 0, 76, 38
2, 110304, Note_off_c, 0, 76, 0
2, 110304, Note_on_c, 0, 76, 38
2, 110496, Note_off_c, 0, 76, 0
2, 110496, Note_on_c, 0, 74, 38
2, 110592, Note_off_c, 0, 74, 0
2, 110592, Note_on_c, 0, 76, 38
2, 110784, Note_off_c, 0, 76, 0
2, 110784, Note_on_c, 0, 76, 38
2, 110976, Note_off_c, 0, 76, 0
2, 111360, Note_on_c, 0, 83, 38
2, 111552, Note_off_c, 0, 83, 0
2, 111552, Note_on_c, 0, 81, 38
2, 111648, Note_off_c, 0, 81, 0
2, 111648, Note_on_c, 0, 79, 38
2, 111744, Note_off_c, 0, 79, 0
2, 111744, Note_on_c, 0, 81, 38
2, 111936, Note_off_c, 0, 81, 0
2, 111936, Note_on_c, 0, 76, 38
2, 112128, Note_off_c, 0, 76, 0
2, 112128, End_track
3, 0, Start_track
3, 0, Title_t, "GUITAR1 "
3, 0, Control_c, 1, 0, 0
3, 0, Program_c, 1, 25
3, 0, Key_signature, 0, "major"
3, 0, Pitch_bend_c, 1, 8192
3, 192, Note_on_c, 1, 52, 95
3, 288, Note_off_c, 1, 52, 0
3, 288, Note_on_c, 1, 62, 95
3, 480, Note_off_c, 1, 62, 0
3, 480, Note_on_c, 1, 59, 95
3, 576, Note_off_c, 1, 59, 0
3, 576, Note_on_c, 1, 66, 95
3, 1152, Note_off_c, 1, 66, 0
3, 1728, Note_on_c, 1, 52, 95
3, 1824, Note_off_c, 1, 52, 0
3, 1824, Note_on_c, 1, 62, 95
3, 2016, Note_off_c, 1, 62, 0
3, 2016, Note_on_c, 1, 59, 95
3, 2112, Note_off_c, 1, 59, 0
3, 2112, Note_on_c, 1, 62, 95
3, 2304, Note_off_c, 1, 62, 0
3, 2304, Note_on_c, 1, 62, 95
3, 2400, Note_off_c, 1, 62, 0
3, 2400, Note_on_c, 1, 64, 95
3, 3072, Note_off_c, 1, 64, 0
3, 3264, Note_on_c, 1, 64, 95
3, 3360, Note_off_c, 1, 64, 0
3, 3360, Note_on_c, 1, 62, 95
3, 3552, Note_off_c, 1, 62, 0
3, 3552, Note_on_c, 1, 59, 95
3, 3648, Note_off_c, 1, 59, 0
3, 3648, Note_on_c, 1, 62, 95
3, 3840, Note_off_c, 1, 62, 0
3, 3840, Note_on_c, 1, 62, 95
3, 3936, Note_off_c, 1, 62, 0
3, 3936, Note_on_c, 1, 64, 95
3, 4608, Note_off_c, 1, 64, 0
3, 4800, Note_on_c, 1, 64, 95
3, 5184, Note_off_c, 1, 64, 0
3, 5184, Note_on_c, 1, 64, 95
3, 5376, Note_off_c, 1, 64, 0
3, 6432, Note_on_c, 1, 59, 82
3, 6720, Note_off_c, 1, 59, 0
3, 6720, Note_on_c, 1, 59, 82
3, 6912, Note_off_c, 1, 59, 0
3, 6912, Note_on_c, 1, 71, 82
3, 7008, Note_off_c, 1, 71, 0
3, 7008, Note_on_c, 1, 71, 82
3, 7104, Note_off_c, 1, 71, 0
3, 7104, Note_on_c, 1, 71, 82
3, 7200, Note_off_c, 1, 71, 0
3, 7200, Note_on_c, 1, 71, 82
3, 7296, Note_off_c, 1, 71, 0
3, 7296, Note_on_c, 1, 71, 82
3, 7488, Note_off_c, 1, 71, 0
3, 7488, Note_on_c, 1, 73, 82
3, 8448, Note_off_c, 1, 73, 0
3, 8448, Note_on_c, 1, 71, 82
3, 8736, Note_off_c, 1, 71, 0
3, 8736, Note_on_c, 1, 67, 82
3, 9024, Note_off_c, 1, 67, 0
3, 9024, Note_on_c, 1, 67, 82
3, 9408, Note_off_c, 1, 67, 0
3, 9408, Note_on_c, 1, 67, 82
3, 9696, Note_off_c, 1, 67, 0
3, 9696, Note_on_c, 1, 66, 82
3, 9792, Note_off_c, 1, 66, 0
3, 9792, Note_on_c, 1, 64, 82
3, 10368, Note_off_c, 1, 64, 0
3, 10560, Note_on_c, 1, 64, 82
3, 10752, Note_off_c, 1, 64, 0
3, 10848, Note_on_c, 1, 64, 82
3, 10944, Note_off_c, 1, 64, 0
3, 10944, Note_on_c, 1, 59, 82
3, 11040, Note_off_c, 1, 59, 0
3, 11040, Note_on_c, 1, 64, 82
3, 11136, Note_off_c, 1, 64, 0
3, 11136, Note_on_c, 1, 52, 82
3, 11328, Note_off_c, 1, 52, 0
3, 11328, Note_on_c, 1, 64, 82
3, 12288, Note_off_c, 1, 64, 0
3, 13056, Note_on_c, 1, 66, 82
3, 13344, Note_off_c, 1, 66, 0
3, 13440, Note_on_c, 1, 62, 82
3, 13728, Note_off_c, 1, 62, 0
3, 13824, Note_on_c, 1, 52, 82
3, 14016, Note_off_c, 1, 52, 0
3, 14016, Note_on_c, 1, 59, 82
3, 14112, Note_off_c, 1, 59, 0
3, 14112, Note_on_c, 1, 64, 82
3, 14208, Note_off_c, 1, 64, 0
3, 14208, Note_on_c, 1, 62, 82
3, 14304, Note_off_c, 1, 62, 0
3, 14304, Note_on_c, 1, 59, 82
3, 14400, Note_off_c, 1, 59, 0
3, 14400, Note_on_c, 1, 64, 82
3, 14592, Note_off_c, 1, 64, 0
3, 14592, Note_on_c, 1, 71, 82
3, 14688, Note_off_c, 1, 71, 0
3, 14688, Note_on_c, 1, 71, 82
3, 14880, Note_off_c, 1, 71, 0
3, 14880, Note_on_c, 1, 71, 82
3, 14976, Note_off_c, 1, 71, 0
3, 14976, Note_on_c, 1, 71, 82
3, 15168, Note_off_c, 1, 71, 0
3, 15168, Note_on_c, 1, 73, 82
3, 15936, Note_off_c, 1, 73, 0
3, 15936, Note_on_c, 1, 71, 101
3, 16128, Note_off_c, 1, 71, 0
3, 16224, Note_on_c, 1, 71, 82
3, 16512, Note_off_c, 1, 71, 0
3, 16800, Note_on_c, 1, 66, 82
3, 16992, Note_off_c, 1, 66, 0
3, 17184, Note_on_c, 1, 71, 82
3, 17376, Note_off_c, 1, 71, 0
3, 17376, Note_on_c, 1, 66, 82
3, 17472, Note_off_c, 1, 66, 0
3, 17472, Note_on_c, 1, 71, 82
3, 17664, Note_off_c, 1, 71, 0
3, 17664, Note_on_c, 1, 69, 82
3, 17856, Note_off_c, 1, 69, 0
3, 17856, Note_on_c, 1, 64, 82
3, 17952, Note_off_c, 1, 64, 0
3, 17952, Note_on_c, 1, 69, 82
3, 18240, Note_off_c, 1, 69, 0
3, 18240, Note_on_c, 1, 64, 82
3, 18432, Note_off_c, 1, 64, 0
3, 18624, Note_on_c, 1, 64, 82
3, 18720, Note_off_c, 1, 64, 0
3, 18720, Note_on_c, 1, 59, 82
3, 18816, Note_off_c, 1, 59, 0
3, 18816, Note_on_c, 1, 62, 82
3, 18912, Note_off_c, 1, 62, 0
3, 18912, Note_on_c, 1, 67, 82
3, 19008, Note_off_c, 1, 67, 0
3, 19008, Note_on_c, 1, 64, 82
3, 19584, Note_off_c, 1, 64, 0
3, 19968, Note_on_c, 1, 64, 107
3, 20064, Note_off_c, 1, 64, 0
3, 20352, Note_on_c, 1, 64, 107
3, 20544, Note_off_c, 1, 64, 0
3, 20640, Note_on_c, 1, 60, 107
3, 21120, Note_off_c, 1, 60, 0
3, 21120, Note_on_c, 1, 60, 107
3, 21216, Note_off_c, 1, 60, 0
3, 21504, Note_on_c, 1, 64, 107
3, 21600, Note_off_c, 1, 64, 0
3, 21792, Note_on_c, 1, 64, 107
3, 22080, Note_off_c, 1, 64, 0
3, 22272, Note_on_c, 1, 60, 107
3, 22656, Note_off_c, 1, 60, 0
3, 22656, Note_on_c, 1, 60, 107
3, 22752, Note_off_c, 1, 60, 0
3, 23040, Note_on_c, 1, 67, 107
3, 23424, Note_off_c, 1, 67, 0
3, 23424, Note_on_c, 1, 64, 107
3, 23808, Note_off_c, 1, 64, 0
3, 23808, Note_on_c, 1, 64, 107
3, 24192, Note_off_c, 1, 64, 0
3, 24192, Note_on_c, 1, 60, 107
3, 24576, Note_off_c, 1, 60, 0
3, 24576, Note_on_c, 1, 62, 107
3, 24960, Note_off_c, 1, 62, 0
3, 25248, Note_on_c, 1, 62, 107
3, 25728, Note_off_c, 1, 62, 0
3, 25728, Note_on_c, 1, 62, 107
3, 26112, Note_off_c, 1, 62, 0
3, 26112, Note_on_c, 1, 64, 107
3, 26208, Note_off_c, 1, 64, 0
3, 26496, Note_on_c, 1, 64, 107
3, 26688, Note_off_c, 1, 64, 0
3, 26784, Note_on_c, 1, 60, 107
3, 27072, Note_off_c, 1, 60, 0
3, 27264, Note_on_c, 1, 60, 107
3, 27360, Note_off_c, 1, 60, 0
3, 27648, Note_on_c, 1, 64, 107
3, 27744, Note_off_c, 1, 64, 0
3, 27936, Note_on_c, 1, 64, 107
3, 28224, Note_off_c, 1, 64, 0
3, 28416, Note_on_c, 1, 60, 107
3, 28800, Note_off_c, 1, 60, 0
3, 28800, Note_on_c, 1, 60, 107
3, 28896, Note_off_c, 1, 60, 0
3, 29184, Note_on_c, 1, 67, 107
3, 29568, Note_off_c, 1, 67, 0
3, 29568, Note_on_c, 1, 64, 107
3, 29952, Note_off_c, 1, 64, 0
3, 29952, Note_on_c, 1, 64, 107
3, 30336, Note_off_c, 1, 64, 0
3, 30336, Note_on_c, 1, 60, 107
3, 30720, Note_off_c, 1, 60, 0
3, 30720, Note_on_c, 1, 62, 107
3, 31104, Note_off_c, 1, 62, 0
3, 31392, Note_on_c, 1, 62, 107
3, 32256, Note_off_c, 1, 62, 0
3, 32448, Note_on_c, 1, 52, 95
3, 32544, Note_off_c, 1, 52, 0
3, 32544, Note_on_c, 1, 64, 95
3, 32640, Note_off_c, 1, 64, 0
3, 32640, Note_on_c, 1, 64, 95
3, 32832, Note_off_c, 1, 64, 0
3, 32832, Note_on_c, 1, 62, 95
3, 33792, Note_off_c, 1, 62, 0
3, 33792, Note_on_c, 1, 52, 95
3, 33888, Note_off_c, 1, 52, 0
3, 33888, Note_on_c, 1, 59, 95
3, 33984, Note_off_c, 1, 59, 0
3, 33984, Note_on_c, 1, 52, 95
3, 34080, Note_off_c, 1, 52, 0
3, 34080, Note_on_c, 1, 62, 95
3, 34368, Note_off_c, 1, 62, 0
3, 34368, Note_on_c, 1, 62, 95
3, 34464, Note_off_c, 1, 62, 0
3, 34464, Note_on_c, 1, 64, 95
3, 35328, Note_off_c, 1, 64, 0
3, 35520, Note_on_c, 1, 52, 95
3, 35616, Note_off_c, 1, 52, 0
3, 35616, Note_on_c, 1, 64, 95
3, 35712, Note_off_c, 1, 64, 0
3, 35712, Note_on_c, 1, 62, 95
3, 35808, Note_off_c, 1, 62, 0
3, 35808, Note_on_c, 1, 59, 95
3, 35904, Note_off_c, 1, 59, 0
3, 35904, Note_on_c, 1, 64, 95
3, 36864, Note_off_c, 1, 64, 0
3, 36960, Note_on_c, 1, 59, 95
3, 37440, Note_off_c, 1, 59, 0
3, 37440, Note_on_c, 1, 59, 95
3, 37632, Note_off_c, 1, 59, 0
3, 37632, Note_on_c, 1, 59, 95
3, 37824, Note_off_c, 1, 59, 0
3, 38688, Note_on_c, 1, 59, 82
3, 38976, Note_off_c, 1, 59, 0
3, 38976, Note_on_c, 1, 59, 82
3, 39168, Note_off_c, 1, 59, 0
3, 39168, Note_on_c, 1, 71, 82
3, 39264, Note_off_c, 1, 71, 0
3, 39264, Note_on_c, 1, 71, 82
3, 39360, Note_off_c, 1, 71, 0
3, 39360, Note_on_c, 1, 71, 82
3, 39456, Note_off_c, 1, 71, 0
3, 39456, Note_on_c, 1, 71, 82
3, 39552, Note_off_c, 1, 71, 0
3, 39552, Note_on_c, 1, 71, 82
3, 39744, Note_off_c, 1, 71, 0
3, 39744, Note_on_c, 1, 73, 82
3, 40704, Note_off_c, 1, 73, 0
3, 40704, Note_on_c, 1, 71, 82
3, 40992, Note_off_c, 1, 71, 0
3, 40992, Note_on_c, 1, 67, 82
3, 41280, Note_off_c, 1, 67, 0
3, 41280, Note_on_c, 1, 67, 82
3, 41664, Note_off_c, 1, 67, 0
3, 41664, Note_on_c, 1, 67, 82
3, 41952, Note_off_c, 1, 67, 0
3, 41952, Note_on_c, 1, 66, 82
3, 42048, Note_off_c, 1, 66, 0
3, 42048, Note_on_c, 1, 64, 82
3, 42624, Note_off_c, 1, 64, 0
3, 42816, Note_on_c, 1, 64, 82
3, 43008, Note_off_c, 1, 64, 0
3, 43104, Note_on_c, 1, 64, 82
3, 43200, Note_off_c, 1, 64, 0
3, 43200, Note_on_c, 1, 59, 82
3, 43296, Note_off_c, 1, 59, 0
3, 43296, Note_on_c, 1, 64, 82
3, 43392, Note_off_c, 1, 64, 0
3, 43392, Note_on_c, 1, 52, 82
3, 43584, Note_off_c, 1, 52, 0
3, 43584, Note_on_c, 1, 64, 82
3, 44544, Note_off_c, 1, 64, 0
3, 45312, Note_on_c, 1, 66, 82
3, 45600, Note_off_c, 1, 66, 0
3, 45696, Note_on_c, 1, 62, 82
3, 45984, Note_off_c, 1, 62, 0
3, 46080, Note_on_c, 1, 52, 82
3, 46272, Note_off_c, 1, 52, 0
3, 46272, Note_on_c, 1, 59, 82
3, 46368, Note_off_c, 1, 59, 0
3, 46368, Note_on_c, 1, 64, 82
3, 46464, Note_off_c, 1, 64, 0
3, 46464, Note_on_c, 1, 62, 82
3, 46560, Note_off_c, 1, 62, 0
3, 46560, Note_on_c, 1, 59, 82
3, 46656, Note_off_c, 1, 59, 0
3, 46656, Note_on_c, 1, 64, 82
3, 46848, Note_off_c, 1, 64, 0
3, 46848, Note_on_c, 1, 71, 82
3, 46944, Note_off_c, 1, 71, 0
3, 46944, Note_on_c, 1, 71, 82
3, 47136, Note_off_c, 1, 71, 0
3, 47136, Note_on_c, 1, 71, 82
3, 47232, Note_off_c, 1, 71, 0
3, 47232, Note_on_c, 1, 71, 82
3, 47424, Note_off_c, 1, 71, 0
3, 47424, Note_on_c, 1, 73, 82
3, 48192, Note_off_c, 1, 73, 0
3, 48192, Note_on_c, 1, 71, 101
3, 48384, Note_off_c, 1, 71, 0
3, 48480, Note_on_c, 1, 71, 82
3, 48768, Note_off_c, 1, 71, 0
3, 49056, Note_on_c, 1, 66, 82
3, 49248, Note_off_c, 1, 66, 0
3, 49440, Note_on_c, 1, 71, 82
3, 49632, Note_off_c, 1, 71, 0
3, 49632, Note_on_c, 1, 66, 82
3, 49728, Note_off_c, 1, 66, 0
3, 49728, Note_on_c, 1, 71, 82
3, 49920, Note_off_c, 1, 71, 0
3, 49920, Note_on_c, 1, 69, 82
3, 50112, Note_off_c, 1, 69, 0
3, 50112, Note_on_c, 1, 64, 82
3, 50208, Note_off_c, 1, 64, 0
3, 50208, Note_on_c, 1, 69, 82
3, 50496, Note_off_c, 1, 69, 0
3, 50496, Note_on_c, 1, 64, 82
3, 50688, Note_off_c, 1, 64, 0
3, 50880, Note_on_c, 1, 64, 82
3, 50976, Note_off_c, 1, 64, 0
3, 50976, Note_on_c, 1, 62, 82
3, 51264, Note_off_c, 1, 62, 0
3, 51264, Note_on_c, 1, 59, 82
3, 51360, Note_off_c, 1, 59, 0
3, 51360, Note_on_c, 1, 64, 82
3, 52224, Note_off_c, 1, 64, 0
3, 52224, Note_on_c, 1, 52, 82
3, 52416, Note_off_c, 1, 52, 0
3, 52416, Note_on_c, 1, 59, 82
3, 52512, Note_off_c, 1, 59, 0
3, 52512, Note_on_c, 1, 64, 82
3, 52608, Note_off_c, 1, 64, 0
3, 52608, Note_on_c, 1, 62, 82
3, 52704, Note_off_c, 1, 62, 0
3, 52704, Note_on_c, 1, 59, 82
3, 52800, Note_off_c, 1, 59, 0
3, 52800, Note_on_c, 1, 64, 82
3, 52992, Note_off_c, 1, 64, 0
3, 52992, Note_on_c, 1, 71, 82
3, 53184, Note_off_c, 1, 71, 0
3, 53184, Note_on_c, 1, 71, 82
3, 53280, Note_off_c, 1, 71, 0
3, 53280, Note_on_c, 1, 71, 82
3, 53568, Note_off_c, 1, 71, 0
3, 53568, Note_on_c, 1, 73, 82
3, 54336, Note_off_c, 1, 73, 0
3, 54336, Note_on_c, 1, 71, 82
3, 54528, Note_off_c, 1, 71, 0
3, 54624, Note_on_c, 1, 71, 82
3, 54912, Note_off_c, 1, 71, 0
3, 54912, Note_on_c, 1, 71, 82
3, 55104, Note_off_c, 1, 71, 0
3, 55200, Note_on_c, 1, 66, 82
3, 55392, Note_off_c, 1, 66, 0
3, 55584, Note_on_c, 1, 66, 82
3, 55680, Note_off_c, 1, 66, 0
3, 55680, Note_on_c, 1, 71, 82
3, 55776, Note_off_c, 1, 71, 0
3, 55776, Note_on_c, 1, 66, 82
3, 55872, Note_off_c, 1, 66, 0
3, 55872, Note_on_c, 1, 71, 82
3, 56064, Note_off_c, 1, 71, 0
3, 56064, Note_on_c, 1, 69, 82
3, 56256, Note_off_c, 1, 69, 0
3, 56256, Note_on_c, 1, 64, 82
3, 56352, Note_off_c, 1, 64, 0
3, 56352, Note_on_c, 1, 69, 82
3, 56640, Note_off_c, 1, 69, 0
3, 56640, Note_on_c, 1, 64, 82
3, 56832, Note_off_c, 1, 64, 0
3, 57024, Note_on_c, 1, 64, 82
3, 57120, Note_off_c, 1, 64, 0
3, 57120, Note_on_c, 1, 59, 82
3, 57216, Note_off_c, 1, 59, 0
3, 57216, Note_on_c, 1, 62, 82
3, 57312, Note_off_c, 1, 62, 0
3, 57312, Note_on_c, 1, 67, 82
3, 57408, Note_off_c, 1, 67, 0
3, 57408, Note_on_c, 1, 64, 82
3, 57984, Note_off_c, 1, 64, 0
3, 58368, Note_on_c, 1, 64, 107
3, 58464, Note_off_c, 1, 64, 0
3, 58752, Note_on_c, 1, 64, 107
3, 58944, Note_off_c, 1, 64, 0
3, 59040, Note_on_c, 1, 60, 107
3, 59520, Note_off_c, 1, 60, 0
3, 59520, Note_on_c, 1, 60, 107
3, 59616, Note_off_c, 1, 60, 0
3, 59904, Note_on_c, 1, 64, 107
3, 60000, Note_off_c, 1, 64, 0
3, 60192, Note_on_c, 1, 64, 107
3, 60480, Note_off_c, 1, 64, 0
3, 60672, Note_on_c, 1, 60, 107
3, 61056, Note_off_c, 1, 60, 0
3, 61056, Note_on_c, 1, 60, 107
3, 61152, Note_off_c, 1, 60, 0
3, 61440, Note_on_c, 1, 67, 107
3, 61824, Note_off_c, 1, 67, 0
3, 61824, Note_on_c, 1, 64, 107
3, 62208, Note_off_c, 1, 64, 0
3, 62208, Note_on_c, 1, 64, 107
3, 62592, Note_off_c, 1, 64, 0
3, 62592, Note_on_c, 1, 60, 107
3, 62976, Note_off_c, 1, 60, 0
3, 62976, Note_on_c, 1, 62, 107
3, 63360, Note_off_c, 1, 62, 0
3, 63648, Note_on_c, 1, 62, 107
3, 64128, Note_off_c, 1, 62, 0
3, 64128, Note_on_c, 1, 62, 107
3, 64512, Note_off_c, 1, 62, 0
3, 64512, Note_on_c, 1, 64, 107
3, 64608, Note_off_c, 1, 64, 0
3, 64896, Note_on_c, 1, 64, 107
3, 65088, Note_off_c, 1, 64, 0
3, 65184, Note_on_c, 1, 60, 107
3, 65472, Note_off_c, 1, 60, 0
3, 65664, Note_on_c, 1, 60, 107
3, 65760, Note_off_c, 1, 60, 0
3, 66048, Note_on_c, 1, 64, 107
3, 66144, Note_off_c, 1, 64, 0
3, 66336, Note_on_c, 1, 64, 107
3, 66624, Note_off_c, 1, 64, 0
3, 66816, Note_on_c, 1, 60, 107
3, 67200, Note_off_c, 1, 60, 0
3, 67200, Note_on_c, 1, 60, 107
3, 67296, Note_off_c, 1, 60, 0
3, 67584, Note_on_c, 1, 67, 107
3, 67968, Note_off_c, 1, 67, 0
3, 67968, Note_on_c, 1, 64, 107
3, 68352, Note_off_c, 1, 64, 0
3, 68352, Note_on_c, 1, 64, 107
3, 68736, Note_off_c, 1, 64, 0
3, 68736, Note_on_c, 1, 60, 107
3, 69120, Note_off_c, 1, 60, 0
3, 69120, Note_on_c, 1, 62, 107
3, 69504, Note_off_c, 1, 62, 0
3, 69792, Note_on_c, 1, 62, 107
3, 70272, Note_off_c, 1, 62, 0
3, 70272, Note_on_c, 1, 62, 107
3, 70656, Note_off_c, 1, 62, 0
3, 70656, Note_on_c, 1, 64, 107
3, 70752, Note_off_c, 1, 64, 0
3, 71040, Note_on_c, 1, 64, 107
3, 71232, Note_off_c, 1, 64, 0
3, 71328, Note_on_c, 1, 60, 107
3, 71616, Note_off_c, 1, 60, 0
3, 71808, Note_on_c, 1, 60, 107
3, 71904, Note_off_c, 1, 60, 0
3, 72192, Note_on_c, 1, 64, 107
3, 72288, Note_off_c, 1, 64, 0
3, 72480, Note_on_c, 1, 64, 107
3, 72768, Note_off_c, 1, 64, 0
3, 72960, Note_on_c, 1, 60, 107
3, 73344, Note_off_c, 1, 60, 0
3, 73344, Note_on_c, 1, 60, 107
3, 73440, Note_off_c, 1, 60, 0
3, 73728, Note_on_c, 1, 67, 107
3, 74112, Note_off_c, 1, 67, 0
3, 74112, Note_on_c, 1, 64, 107
3, 74496, Note_off_c, 1, 64, 0
3, 74496, Note_on_c, 1, 64, 107
3, 74880, Note_off_c, 1, 64, 0
3, 74880, Note_on_c, 1, 60, 107
3, 75264, Note_off_c, 1, 60, 0
3, 75264, Note_on_c, 1, 62, 107
3, 75648, Note_off_c, 1, 62, 0
3, 75936, Note_on_c, 1, 62, 107
3, 76800, Note_off_c, 1, 62, 0
3, 76800, Note_on_c, 1, 59, 107
3, 77376, Note_off_c, 1, 59, 0
3, 77376, Note_on_c, 1, 64, 107
3, 77760, Note_off_c, 1, 64, 0
3, 78912, Note_on_c, 1, 64, 107
3, 79872, Note_off_c, 1, 64, 0
3, 80448, Note_on_c, 1, 64, 107
3, 80832, Note_off_c, 1, 64, 0
3, 90624, Note_on_c, 1, 72, 63
3, 90720, Note_off_c, 1, 72, 0
3, 90720, Note_on_c, 1, 72, 63
3, 90816, Note_off_c, 1, 72, 0
3, 90816, Note_on_c, 1, 72, 63
3, 90912, Note_off_c, 1, 72, 0
3, 90912, Note_on_c, 1, 72, 63
3, 91008, Note_off_c, 1, 72, 0
3, 91008, Note_on_c, 1, 72, 66
3, 91104, Note_off_c, 1, 72, 0
3, 91104, Note_on_c, 1, 72, 66
3, 91200, Note_off_c, 1, 72, 0
3, 91200, Note_on_c, 1, 72, 66
3, 91296, Note_off_c, 1, 72, 0
3, 91296, Note_on_c, 1, 72, 66
3, 91392, Note_off_c, 1, 72, 0
3, 91392, Note_on_c, 1, 72, 68
3, 91488, Note_off_c, 1, 72, 0
3, 91488, Note_on_c, 1, 72, 68
3, 91584, Note_off_c, 1, 72, 0
3, 91584, Note_on_c, 1, 72, 68
3, 91680, Note_off_c, 1, 72, 0
3, 91680, Note_on_c, 1, 72, 68
3, 91776, Note_off_c, 1, 72, 0
3, 91776, Note_on_c, 1, 72, 71
3, 91872, Note_off_c, 1, 72, 0
3, 91872, Note_on_c, 1, 72, 71
3, 91968, Note_off_c, 1, 72, 0
3, 91968, Note_on_c, 1, 71, 71
3, 92064, Note_off_c, 1, 71, 0
3, 92064, Note_on_c, 1, 71, 71
3, 92160, Note_off_c, 1, 71, 0
3, 92160, Note_on_c, 1, 71, 73
3, 92256, Note_off_c, 1, 71, 0
3, 92256, Note_on_c, 1, 71, 73
3, 92352, Note_off_c, 1, 71, 0
3, 92352, Note_on_c, 1, 71, 73
3, 92448, Note_off_c, 1, 71, 0
3, 92448, Note_on_c, 1, 71, 73
3, 92544, Note_off_c, 1, 71, 0
3, 92544, Note_on_c, 1, 71, 73
3, 92640, Note_off_c, 1, 71, 0
3, 92640, Note_on_c, 1, 71, 73
3, 92736, Note_off_c, 1, 71, 0
3, 92736, Note_on_c, 1, 71, 73
3, 92832, Note_off_c, 1, 71, 0
3, 92832, Note_on_c, 1, 71, 73
3, 92928, Note_off_c, 1, 71, 0
3, 92928, Note_on_c, 1, 71, 76
3, 93024, Note_off_c, 1, 71, 0
3, 93024, Note_on_c, 1, 71, 76
3, 93120, Note_off_c, 1, 71, 0
3, 93120, Note_on_c, 1, 71, 76
3, 93216, Note_off_c, 1, 71, 0
3, 93216, Note_on_c, 1, 71, 76
3, 93312, Note_off_c, 1, 71, 0
3, 93312, Note_on_c, 1, 71, 78
3, 93408, Note_off_c, 1, 71, 0
3, 93408, Note_on_c, 1, 71, 78
3, 93504, Note_off_c, 1, 71, 0
3, 93504, Note_on_c, 1, 71, 78
3, 93600, Note_off_c, 1, 71, 0
3, 93600, Note_on_c, 1, 71, 78
3, 93696, Note_off_c, 1, 71, 0
3, 93696, Note_on_c, 1, 72, 81
3, 93792, Note_off_c, 1, 72, 0
3, 93792, Note_on_c, 1, 72, 81
3, 93888, Note_off_c, 1, 72, 0
3, 93888, Note_on_c, 1, 72, 81
3, 93984, Note_off_c, 1, 72, 0
3, 93984, Note_on_c, 1, 72, 81
3, 94080, Note_off_c, 1, 72, 0
3, 94080, Note_on_c, 1, 72, 83
3, 94176, Note_off_c, 1, 72, 0
3, 94176, Note_on_c, 1, 72, 83
3, 94272, Note_off_c, 1, 72, 0
3, 94272, Note_on_c, 1, 72, 83
3, 94368, Note_off_c, 1, 72, 0
3, 94368, Note_on_c, 1, 72, 83
3, 94464, Note_off_c, 1, 72, 0
3, 94464, Note_on_c, 1, 72, 86
3, 94560, Note_off_c, 1, 72, 0
3, 94560, Note_on_c, 1, 72, 86
3, 94656, Note_off_c, 1, 72, 0
3, 94656, Note_on_c, 1, 72, 86
3, 94752, Note_off_c, 1, 72, 0
3, 94752, Note_on_c, 1, 72, 86
3, 94848, Note_off_c, 1, 72, 0
3, 94848, Note_on_c, 1, 72, 88
3, 94944, Note_off_c, 1, 72, 0
3, 94944, Note_on_c, 1, 72, 88
3, 95040, Note_off_c, 1, 72, 0
3, 95040, Note_on_c, 1, 71, 88
3, 95136, Note_off_c, 1, 71, 0
3, 95136, Note_on_c, 1, 71, 88
3, 95232, Note_off_c, 1, 71, 0
3, 95232, Note_on_c, 1, 71, 91
3, 95328, Note_off_c, 1, 71, 0
3, 95328, Note_on_c, 1, 71, 91
3, 95424, Note_off_c, 1, 71, 0
3, 95424, Note_on_c, 1, 71, 91
3, 95520, Note_off_c, 1, 71, 0
3, 95520, Note_on_c, 1, 71, 91
3, 95616, Note_off_c, 1, 71, 0
3, 95616, Note_on_c, 1, 71, 93
3, 95712, Note_off_c, 1, 71, 0
3, 95712, Note_on_c, 1, 71, 93
3, 95808, Note_off_c, 1, 71, 0
3, 95808, Note_on_c, 1, 71, 93
3, 95904, Note_off_c, 1, 71, 0
3, 95904, Note_on_c, 1, 71, 93
3, 96000, Note_off_c, 1, 71, 0
3, 96000, Note_on_c, 1, 71, 96
3, 96096, Note_off_c, 1, 71, 0
3, 96096, Note_on_c, 1, 71, 96
3, 96192, Note_off_c, 1, 71, 0
3, 96192, Note_on_c, 1, 71, 96
3, 96288, Note_off_c, 1, 71, 0
3, 96288, Note_on_c, 1, 71, 96
3, 96384, Note_off_c, 1, 71, 0
3, 96384, Note_on_c, 1, 71, 99
3, 96480, Note_off_c, 1, 71, 0
3, 96480, Note_on_c, 1, 71, 99
3, 96576, Note_off_c, 1, 71, 0
3, 96576, Note_on_c, 1, 71, 99
3, 96672, Note_off_c, 1, 71, 0
3, 96672, Note_on_c, 1, 71, 99
3, 96768, Note_off_c, 1, 71, 0
3, 96768, Note_on_c, 1, 72, 101
3, 96864, Note_off_c, 1, 72, 0
3, 96864, Note_on_c, 1, 72, 101
3, 96960, Note_off_c, 1, 72, 0
3, 96960, Note_on_c, 1, 72, 101
3, 97056, Note_off_c, 1, 72, 0
3, 97056, Note_on_c, 1, 72, 101
3, 97152, Note_off_c, 1, 72, 0
3, 97152, Note_on_c, 1, 72, 104
3, 97248, Note_off_c, 1, 72, 0
3, 97248, Note_on_c, 1, 72, 104
3, 97344, Note_off_c, 1, 72, 0
3, 97344, Note_on_c, 1, 72, 104
3, 97440, Note_off_c, 1, 72, 0
3, 97440, Note_on_c, 1, 72, 104
3, 97536, Note_off_c, 1, 72, 0
3, 97536, Note_on_c, 1, 72, 106
3, 97632, Note_off_c, 1, 72, 0
3, 97632, Note_on_c, 1, 72, 106
3, 97728, Note_off_c, 1, 72, 0
3, 97728, Note_on_c, 1, 72, 106
3, 97824, Note_off_c, 1, 72, 0
3, 97824, Note_on_c, 1, 72, 106
3, 97920, Note_off_c, 1, 72, 0
3, 97920, Note_on_c, 1, 72, 109
3, 98016, Note_off_c, 1, 72, 0
3, 98016, Note_on_c, 1, 72, 109
3, 98112, Note_off_c, 1, 72, 0
3, 98112, Note_on_c, 1, 71, 109
3, 98208, Note_off_c, 1, 71, 0
3, 98208, Note_on_c, 1, 71, 109
3, 98304, Note_off_c, 1, 71, 0
3, 98304, Note_on_c, 1, 71, 109
3, 98400, Note_off_c, 1, 71, 0
3, 98400, Note_on_c, 1, 71, 109
3, 98496, Note_off_c, 1, 71, 0
3, 98496, Note_on_c, 1, 71, 109
3, 98592, Note_off_c, 1, 71, 0
3, 98592, Note_on_c, 1, 71, 109
3, 98688, Note_off_c, 1, 71, 0
3, 98688, Note_on_c, 1, 71, 109
3, 98784, Note_off_c, 1, 71, 0
3, 98784, Note_on_c, 1, 71, 109
3, 98880, Note_off_c, 1, 71, 0
3, 98880, Note_on_c, 1, 71, 109
3, 98976, Note_off_c, 1, 71, 0
3, 98976, Note_on_c, 1, 71, 109
3, 99072, Note_off_c, 1, 71, 0
3, 99072, Note_on_c, 1, 71, 109
3, 99168, Note_off_c, 1, 71, 0
3, 99168, Note_on_c, 1, 71, 109
3, 99264, Note_off_c, 1, 71, 0
3, 99264, Note_on_c, 1, 71, 109
3, 99360, Note_off_c, 1, 71, 0
3, 99360, Note_on_c, 1, 71, 109
3, 99456, Note_off_c, 1, 71, 0
3, 99456, Note_on_c, 1, 71, 109
3, 99552, Note_off_c, 1, 71, 0
3, 99552, Note_on_c, 1, 71, 109
3, 99648, Note_off_c, 1, 71, 0
3, 99648, Note_on_c, 1, 71, 109
3, 99744, Note_off_c, 1, 71, 0
3, 99744, Note_on_c, 1, 71, 109
3, 99840, Note_off_c, 1, 71, 0
3, 99840, Note_on_c, 1, 67, 114
3, 100128, Note_off_c, 1, 67, 0
3, 100128, Note_on_c, 1, 66, 114
3, 100416, Note_off_c, 1, 66, 0
3, 100416, Note_on_c, 1, 64, 114
3, 100992, Note_off_c, 1, 64, 0
3, 100992, Note_on_c, 1, 64, 114
3, 101088, Note_off_c, 1, 64, 0
3, 101088, Note_on_c, 1, 64, 114
3, 101280, Note_off_c, 1, 64, 0
3, 101280, Note_on_c, 1, 62, 114
3, 101376, Note_off_c, 1, 62, 0
3, 101376, Note_on_c, 1, 64, 114
3, 101568, Note_off_c, 1, 64, 0
3, 101568, Note_on_c, 1, 64, 114
3, 101760, Note_off_c, 1, 64, 0
3, 102144, Note_on_c, 1, 71, 114
3, 102336, Note_off_c, 1, 71, 0
3, 102336, Note_on_c, 1, 69, 114
3, 102432, Note_off_c, 1, 69, 0
3, 102432, Note_on_c, 1, 67, 114
3, 102528, Note_off_c, 1, 67, 0
3, 102528, Note_on_c, 1, 69, 114
3, 102720, Note_off_c, 1, 69, 0
3, 102720, Note_on_c, 1, 64, 114
3, 102912, Note_off_c, 1, 64, 0
3, 102912, Note_on_c, 1, 67, 88
3, 103200, Note_off_c, 1, 67, 0
3, 103200, Note_on_c, 1, 66, 88
3, 103488, Note_off_c, 1, 66, 0
3, 103488, Note_on_c, 1, 64, 88
3, 104064, Note_off_c, 1, 64, 0
3, 104064, Note_on_c, 1, 64, 88
3, 104160, Note_off_c, 1, 64, 0
3, 104160, Note_on_c, 1, 64, 88
3, 104352, Note_off_c, 1, 64, 0
3, 104352, Note_on_c, 1, 62, 88
3, 104448, Note_off_c, 1, 62, 0
3, 104448, Note_on_c, 1, 64, 88
3, 104640, Note_off_c, 1, 64, 0
3, 104640, Note_on_c, 1, 64, 88
3, 104832, Note_off_c, 1, 64, 0
3, 105216, Note_on_c, 1, 71, 88
3, 105408, Note_off_c, 1, 71, 0
3, 105408, Note_on_c, 1, 69, 88
3, 105504, Note_off_c, 1, 69, 0
3, 105504, Note_on_c, 1, 67, 88
3, 105600, Note_off_c, 1, 67, 0
3, 105600, Note_on_c, 1, 69, 88
3, 105792, Note_off_c, 1, 69, 0
3, 105792, Note_on_c, 1, 64, 88
3, 105984, Note_off_c, 1, 64, 0
3, 105984, Note_on_c, 1, 67, 63
3, 106272, Note_off_c, 1, 67, 0
3, 106272, Note_on_c, 1, 66, 63
3, 106560, Note_off_c, 1, 66, 0
3, 106560, Note_on_c, 1, 64, 63
3, 107136, Note_off_c, 1, 64, 0
3, 107136, Note_on_c, 1, 64, 63
3, 107232, Note_off_c, 1, 64, 0
3, 107232, Note_on_c, 1, 64, 63
3, 107424, Note_off_c, 1, 64, 0
3, 107424, Note_on_c, 1, 62, 63
3, 107520, Note_off_c, 1, 62, 0
3, 107520, Note_on_c, 1, 64, 63
3, 107712, Note_off_c, 1, 64, 0
3, 107712, Note_on_c, 1, 64, 63
3, 107904, Note_off_c, 1, 64, 0
3, 108288, Note_on_c, 1, 71, 63
3, 108480, Note_off_c, 1, 71, 0
3, 108480, Note_on_c, 1, 69, 63
3, 108576, Note_off_c, 1, 69, 0
3, 108576, Note_on_c, 1, 67, 63
3, 108672, Note_off_c, 1, 67, 0
3, 108672, Note_on_c, 1, 69, 63
3, 108864, Note_off_c, 1, 69, 0
3, 108864, Note_on_c, 1, 64, 63
3, 109056, Note_off_c, 1, 64, 0
3, 109056, Note_on_c, 1, 67, 38
3, 109344, Note_off_c, 1, 67, 0
3, 109344, Note_on_c, 1, 66, 38
3, 109632, Note_off_c, 1, 66, 0
3, 109632, Note_on_c, 1, 64, 38
3, 110208, Note_off_c, 1, 64, 0
3, 110208, Note_on_c, 1, 64, 38
3, 110304, Note_off_c, 1, 64, 0
3, 110304, Note_on_c, 1, 64, 38
3, 110496, Note_off_c, 1, 64, 0
3, 110496, Note_on_c, 1, 62, 38
3, 110592, Note_off_c, 1, 62, 0
3, 110592, Note_on_c, 1, 64, 38
3, 110784, Note_off_c, 1, 64, 0
3, 110784, Note_on_c, 1, 64, 38
3, 110976, Note_off_c, 1, 64, 0
3, 111360, Note_on_c, 1, 71, 38
3, 111552, Note_off_c, 1, 71, 0
3, 111552, Note_on_c, 1, 69, 38
3, 111648, Note_off_c, 1, 69, 0
3, 111648, Note_on_c, 1, 67, 38
3, 111744, Note_off_c, 1, 67, 0
3, 111744, Note_on_c, 1, 69, 38
3, 111936, Note_off_c, 1, 69, 0
3, 111936, Note_on_c, 1, 64, 38
3, 112128, Note_off_c, 1, 64, 0
3, 112128, End_track
4, 0, Start_track
4, 0, Title_t, "GUITAR1 "
4, 0, Control_c, 2, 0, 0
4, 0, Program_c, 2, 25
4, 0, Key_signature, 0, "major"
4, 0, Pitch_bend_c, 2, 8192
4, 2304, Note_on_c, 2, 59, 95
4, 3072, Note_off_c, 2, 59, 0
4, 6432, Note_on_c, 2, 64, 82
4, 6720, Note_off_c, 2, 64, 0
4, 6720, Note_on_c, 2, 64, 82
4, 6912, Note_off_c, 2, 64, 0
4, 6912, Note_on_c, 2, 68, 82
4, 7008, Note_off_c, 2, 68, 0
4, 7008, Note_on_c, 2, 68, 82
4, 7104, Note_off_c, 2, 68, 0
4, 7104, Note_on_c, 2, 68, 82
4, 7200, Note_off_c, 2, 68, 0
4, 7200, Note_on_c, 2, 68, 82
4, 7296, Note_off_c, 2, 68, 0
4, 7296, Note_on_c, 2, 68, 82
4, 7488, Note_off_c, 2, 68, 0
4, 7488, Note_on_c, 2, 69, 82
4, 8448, Note_off_c, 2, 69, 0
4, 8448, Note_on_c, 2, 67, 82
4, 8736, Note_off_c, 2, 67, 0
4, 8736, Note_on_c, 2, 64, 82
4, 9024, Note_off_c, 2, 64, 0
4, 9024, Note_on_c, 2, 64, 82
4, 9408, Note_off_c, 2, 64, 0
4, 9408, Note_on_c, 2, 64, 82
4, 9696, Note_off_c, 2, 64, 0
4, 9696, Note_on_c, 2, 62, 82
4, 9792, Note_off_c, 2, 62, 0
4, 9792, Note_on_c, 2, 60, 82
4, 10368, Note_off_c, 2, 60, 0
4, 10560, Note_on_c, 2, 59, 82
4, 10752, Note_off_c, 2, 59, 0
4, 11328, Note_on_c, 2, 59, 82
4, 12288, Note_off_c, 2, 59, 0
4, 13248, Note_on_c, 2, 64, 82
4, 13536, Note_off_c, 2, 64, 0
4, 13632, Note_on_c, 2, 59, 82
4, 13824, Note_off_c, 2, 59, 0
4, 14592, Note_on_c, 2, 68, 82
4, 14688, Note_off_c, 2, 68, 0
4, 14688, Note_on_c, 2, 68, 82
4, 14880, Note_off_c, 2, 68, 0
4, 14880, Note_on_c, 2, 68, 82
4, 14976, Note_off_c, 2, 68, 0
4, 14976, Note_on_c, 2, 68, 82
4, 15168, Note_off_c, 2, 68, 0
4, 15168, Note_on_c, 2, 69, 82
4, 15936, Note_off_c, 2, 69, 0
4, 15936, Note_on_c, 2, 67, 82
4, 16128, Note_off_c, 2, 67, 0
4, 16224, Note_on_c, 2, 67, 82
4, 16512, Note_off_c, 2, 67, 0
4, 16800, Note_on_c, 2, 62, 82
4, 16992, Note_off_c, 2, 62, 0
4, 18240, Note_on_c, 2, 59, 82
4, 18432, Note_off_c, 2, 59, 0
4, 19968, Note_on_c, 2, 60, 107
4, 20064, Note_off_c, 2, 60, 0
4, 20352, Note_on_c, 2, 60, 107
4, 20544, Note_off_c, 2, 60, 0
4, 20640, Note_on_c, 2, 55, 107
4, 21120, Note_off_c, 2, 55, 0
4, 21120, Note_on_c, 2, 55, 107
4, 21216, Note_off_c, 2, 55, 0
4, 21504, Note_on_c, 2, 60, 107
4, 21600, Note_off_c, 2, 60, 0
4, 21792, Note_on_c, 2, 60, 107
4, 22080, Note_off_c, 2, 60, 0
4, 22272, Note_on_c, 2, 55, 107
4, 22656, Note_off_c, 2, 55, 0
4, 22656, Note_on_c, 2, 55, 107
4, 22752, Note_off_c, 2, 55, 0
4, 23040, Note_on_c, 2, 64, 107
4, 23424, Note_off_c, 2, 64, 0
4, 23424, Note_on_c, 2, 59, 107
4, 23808, Note_off_c, 2, 59, 0
4, 23808, Note_on_c, 2, 60, 107
4, 24192, Note_off_c, 2, 60, 0
4, 24192, Note_on_c, 2, 55, 107
4, 24576, Note_off_c, 2, 55, 0
4, 24576, Note_on_c, 2, 57, 107
4, 24960, Note_off_c, 2, 57, 0
4, 24960, Note_on_c, 2, 57, 107
4, 25248, Note_off_c, 2, 57, 0
4, 25248, Note_on_c, 2, 57, 107
4, 25728, Note_off_c, 2, 57, 0
4, 25728, Note_on_c, 2, 57, 107
4, 26112, Note_off_c, 2, 57, 0
4, 26112, Note_on_c, 2, 60, 107
4, 26208, Note_off_c, 2, 60, 0
4, 26496, Note_on_c, 2, 60, 107
4, 26688, Note_off_c, 2, 60, 0
4, 26784, Note_on_c, 2, 55, 107
4, 27072, Note_off_c, 2, 55, 0
4, 27264, Note_on_c, 2, 55, 107
4, 27360, Note_off_c, 2, 55, 0
4, 27648, Note_on_c, 2, 60, 107
4, 27744, Note_off_c, 2, 60, 0
4, 27936, Note_on_c, 2, 60, 107
4, 28224, Note_off_c, 2, 60, 0
4, 28416, Note_on_c, 2, 55, 107
4, 28800, Note_off_c, 2, 55, 0
4, 28800, Note_on_c, 2, 55, 107
4, 28896, Note_off_c, 2, 55, 0
4, 29184, Note_on_c, 2, 64, 107
4, 29568, Note_off_c, 2, 64, 0
4, 29568, Note_on_c, 2, 59, 107
4, 29952, Note_off_c, 2, 59, 0
4, 29952, Note_on_c, 2, 60, 107
4, 30336, Note_off_c, 2, 60, 0
4, 30336, Note_on_c, 2, 55, 107
4, 30720, Note_off_c, 2, 55, 0
4, 30720, Note_on_c, 2, 59, 107
4, 31104, Note_off_c, 2, 59, 0
4, 31104, Note_on_c, 2, 59, 107
4, 31392, Note_off_c, 2, 59, 0
4, 31392, Note_on_c, 2, 59, 107
4, 32256, Note_off_c, 2, 59, 0
4, 34176, Note_on_c, 2, 52, 95
4, 35328, Note_off_c, 2, 52, 0
4, 37632, Note_on_c, 2, 52, 95
4, 37824, Note_off_c, 2, 52, 0
4, 38688, Note_on_c, 2, 64, 82
4, 38976, Note_off_c, 2, 64, 0
4, 38976, Note_on_c, 2, 64, 82
4, 39168, Note_off_c, 2, 64, 0
4, 39168, Note_on_c, 2, 68, 82
4, 39264, Note_off_c, 2, 68, 0
4, 39264, Note_on_c, 2, 68, 82
4, 39360, Note_off_c, 2, 68, 0
4, 39360, Note_on_c, 2, 68, 82
4, 39456, Note_off_c, 2, 68, 0
4, 39456, Note_on_c, 2, 68, 82
4, 39552, Note_off_c, 2, 68, 0
4, 39552, Note_on_c, 2, 68, 82
4, 39744, Note_off_c, 2, 68, 0
4, 39744, Note_on_c, 2, 69, 82
4, 40704, Note_off_c, 2, 69, 0
4, 40704, Note_on_c, 2, 67, 82
4, 40992, Note_off_c, 2, 67, 0
4, 40992, Note_on_c, 2, 64, 82
4, 41280, Note_off_c, 2, 64, 0
4, 41280, Note_on_c, 2, 64, 82
4, 41664, Note_off_c, 2, 64, 0
4, 41664, Note_on_c, 2, 64, 82
4, 41952, Note_off_c, 2, 64, 0
4, 41952, Note_on_c, 2, 62, 82
4, 42048, Note_off_c, 2, 62, 0
4, 42048, Note_on_c, 2, 60, 82
4, 42624, Note_off_c, 2, 60, 0
4, 42816, Note_on_c, 2, 59, 82
4, 43008, Note_off_c, 2, 59, 0
4, 43584, Note_on_c, 2, 59, 82
4, 44544, Note_off_c, 2, 59, 0
4, 45504, Note_on_c, 2, 64, 82
4, 45792, Note_off_c, 2, 64, 0
4, 45888, Note_on_c, 2, 59, 82
4, 46080, Note_off_c, 2, 59, 0
4, 46848, Note_on_c, 2, 68, 82
4, 46944, Note_off_c, 2, 68, 0
4, 46944, Note_on_c, 2, 68, 82
4, 47136, Note_off_c, 2, 68, 0
4, 47136, Note_on_c, 2, 68, 82
4, 47232, Note_off_c, 2, 68, 0
4, 47232, Note_on_c, 2, 68, 82
4, 47424, Note_off_c, 2, 68, 0
4, 47424, Note_on_c, 2, 69, 82
4, 48192, Note_off_c, 2, 69, 0
4, 48192, Note_on_c, 2, 67, 82
4, 48384, Note_off_c, 2, 67, 0
4, 48480, Note_on_c, 2, 67, 82
4, 48768, Note_off_c, 2, 67, 0
4, 49056, Note_on_c, 2, 62, 82
4, 49248, Note_off_c, 2, 62, 0
4, 50496, Note_on_c, 2, 59, 82
4, 50688, Note_off_c, 2, 59, 0
4, 58368, Note_on_c, 2, 60, 107
4, 58464, Note_off_c, 2, 60, 0
4, 58752, Note_on_c, 2, 60, 107
4, 58944, Note_off_c, 2, 60, 0
4, 59040, Note_on_c, 2, 55, 107
4, 59520, Note_off_c, 2, 55, 0
4, 59520, Note_on_c, 2, 55, 107
4, 59616, Note_off_c, 2, 55, 0
4, 59904, Note_on_c, 2, 60, 107
4, 60000, Note_off_c, 2, 60, 0
4, 60192, Note_on_c, 2, 60, 107
4, 60480, Note_off_c, 2, 60, 0
4, 60672, Note_on_c, 2, 55, 107
4, 61056, Note_off_c, 2, 55, 0
4, 61056, Note_on_c, 2, 55, 107
4, 61152, Note_off_c, 2, 55, 0
4, 61440, Note_on_c, 2, 64, 107
4, 61824, Note_off_c, 2, 64, 0
4, 61824, Note_on_c, 2, 59, 107
4, 62208, Note_off_c, 2, 59, 0
4, 62208, Note_on_c, 2, 60, 107
4, 62592, Note_off_c, 2, 60, 0
4, 62592, Note_on_c, 2, 55, 107
4, 62976, Note_off_c, 2, 55, 0
4, 62976, Note_on_c, 2, 57, 107
4, 63360, Note_off_c, 2, 57, 0
4, 63360, Note_on_c, 2, 57, 107
4, 63648, Note_off_c, 2, 57, 0
4, 63648, Note_on_c, 2, 57, 107
4, 64128, Note_off_c, 2, 57, 0
4, 64128, Note_on_c, 2, 57, 107
4, 64512, Note_off_c, 2, 57, 0
4, 64512, Note_on_c, 2, 60, 107
4, 64608, Note_off_c, 2, 60, 0
4, 64896, Note_on_c, 2, 60, 107
4, 65088, Note_off_c, 2, 60, 0
4, 65184, Note_on_c, 2, 55, 107
4, 65472, Note_off_c, 2, 55, 0
4, 65664, Note_on_c, 2, 55, 107
4, 65760, Note_off_c, 2, 55, 0
4, 66048, Note_on_c, 2, 60, 107
4, 66144, Note_off_c, 2, 60, 0
4, 66336, Note_on_c, 2, 60, 107
4, 66624, Note_off_c, 2, 60, 0
4, 66816, Note_on_c, 2, 55, 107
4, 67200, Note_off_c, 2, 55, 0
4, 67200, Note_on_c, 2, 55, 107
4, 67296, Note_off_c, 2, 55, 0
4, 67584, Note_on_c, 2, 64, 107
4, 67968, Note_off_c, 2, 64, 0
4, 67968, Note_on_c, 2, 59, 107
4, 68352, Note_off_c, 2, 59, 0
4, 68352, Note_on_c, 2, 60, 107
4, 68736, Note_off_c, 2, 60, 0
4, 68736, Note_on_c, 2, 55, 107
4, 69120, Note_off_c, 2, 55, 0
4, 69120, Note_on_c, 2, 59, 107
4, 69504, Note_off_c, 2, 59, 0
4, 69504, Note_on_c, 2, 59, 107
4, 69792, Note_off_c, 2, 59, 0
4, 69792, Note_on_c, 2, 59, 107
4, 70272, Note_off_c, 2, 59, 0
4, 70272, Note_on_c, 2, 57, 107
4, 70656, Note_off_c, 2, 57, 0
4, 70656, Note_on_c, 2, 60, 107
4, 70752, Note_off_c, 2, 60, 0
4, 71040, Note_on_c, 2, 60, 107
4, 71232, Note_off_c, 2, 60, 0
4, 71328, Note_on_c, 2, 55, 107
4, 71616, Note_off_c, 2, 55, 0
4, 71808, Note_on_c, 2, 55, 107
4, 71904, Note_off_c, 2, 55, 0
4, 72192, Note_on_c, 2, 60, 107
4, 72288, Note_off_c, 2, 60, 0
4, 72480, Note_on_c, 2, 60, 107
4, 72768, Note_off_c, 2, 60, 0
4, 72960, Note_on_c, 2, 55, 107
4, 73344, Note_off_c, 2, 55, 0
4, 73344, Note_on_c, 2, 55, 107
4, 73440, Note_off_c, 2, 55, 0
4, 73728, Note_on_c, 2, 64, 107
4, 74112, Note_off_c, 2, 64, 0
4, 74112, Note_on_c, 2, 59, 107
4, 74496, Note_off_c, 2, 59, 0
4, 74496, Note_on_c, 2, 60, 107
4, 74880, Note_off_c, 2, 60, 0
4, 74880, Note_on_c, 2, 55, 107
4, 75264, Note_off_c, 2, 55, 0
4, 75264, Note_on_c, 2, 59, 107
4, 75648, Note_off_c, 2, 59, 0
4, 75648, Note_on_c, 2, 59, 107
4, 75936, Note_off_c, 2, 59, 0
4, 75936, Note_on_c, 2, 59, 107
4, 76704, Note_off_c, 2, 59, 0
4, 76704, Note_on_c, 2, 76, 107
4, 77184, Note_off_c, 2, 76, 0
4, 77376, Note_on_c, 2, 60, 107
4, 77760, Note_off_c, 2, 60, 0
4, 78912, Note_on_c, 2, 59, 107
4, 79872, Note_off_c, 2, 59, 0
4, 79872, Note_on_c, 2, 59, 63
4, 80448, Note_off_c, 2, 59, 0
4, 80448, Note_on_c, 2, 60, 63
4, 80832, Note_off_c, 2, 60, 0
4, 90624, Note_on_c, 2, 69, 63
4, 90720, Note_off_c, 2, 69, 0
4, 90720, Note_on_c, 2, 69, 63
4, 90816, Note_off_c, 2, 69, 0
4, 90816, Note_on_c, 2, 69, 63
4, 90912, Note_off_c, 2, 69, 0
4, 90912, Note_on_c, 2, 69, 63
4, 91008, Note_off_c, 2, 69, 0
4, 91008, Note_on_c, 2, 69, 66
4, 91104, Note_off_c, 2, 69, 0
4, 91104, Note_on_c, 2, 69, 66
4, 91200, Note_off_c, 2, 69, 0
4, 91200, Note_on_c, 2, 69, 66
4, 91296, Note_off_c, 2, 69, 0
4, 91296, Note_on_c, 2, 69, 66
4, 91392, Note_off_c, 2, 69, 0
4, 91392, Note_on_c, 2, 67, 68
4, 91488, Note_off_c, 2, 67, 0
4, 91488, Note_on_c, 2, 67, 68
4, 91584, Note_off_c, 2, 67, 0
4, 91584, Note_on_c, 2, 67, 68
4, 91680, Note_off_c, 2, 67, 0
4, 91680, Note_on_c, 2, 67, 68
4, 91776, Note_off_c, 2, 67, 0
4, 91776, Note_on_c, 2, 67, 71
4, 91872, Note_off_c, 2, 67, 0
4, 91872, Note_on_c, 2, 67, 71
4, 91968, Note_off_c, 2, 67, 0
4, 91968, Note_on_c, 2, 67, 71
4, 92064, Note_off_c, 2, 67, 0
4, 92064, Note_on_c, 2, 67, 71
4, 92160, Note_off_c, 2, 67, 0
4, 92160, Note_on_c, 2, 67, 73
4, 92256, Note_off_c, 2, 67, 0
4, 92256, Note_on_c, 2, 67, 73
4, 92352, Note_off_c, 2, 67, 0
4, 92352, Note_on_c, 2, 67, 73
4, 92448, Note_off_c, 2, 67, 0
4, 92448, Note_on_c, 2, 67, 73
4, 92544, Note_off_c, 2, 67, 0
4, 92544, Note_on_c, 2, 67, 76
4, 92640, Note_off_c, 2, 67, 0
4, 92640, Note_on_c, 2, 67, 76
4, 92736, Note_off_c, 2, 67, 0
4, 92736, Note_on_c, 2, 67, 76
4, 92832, Note_off_c, 2, 67, 0
4, 92832, Note_on_c, 2, 67, 76
4, 92928, Note_off_c, 2, 67, 0
4, 92928, Note_on_c, 2, 67, 78
4, 93024, Note_off_c, 2, 67, 0
4, 93024, Note_on_c, 2, 67, 78
4, 93120, Note_off_c, 2, 67, 0
4, 93120, Note_on_c, 2, 67, 78
4, 93216, Note_off_c, 2, 67, 0
4, 93216, Note_on_c, 2, 67, 78
4, 93312, Note_off_c, 2, 67, 0
4, 93312, Note_on_c, 2, 67, 81
4, 93408, Note_off_c, 2, 67, 0
4, 93408, Note_on_c, 2, 67, 81
4, 93504, Note_off_c, 2, 67, 0
4, 93504, Note_on_c, 2, 67, 81
4, 93600, Note_off_c, 2, 67, 0
4, 93600, Note_on_c, 2, 67, 81
4, 93696, Note_off_c, 2, 67, 0
4, 93696, Note_on_c, 2, 69, 83
4, 93792, Note_off_c, 2, 69, 0
4, 93792, Note_on_c, 2, 69, 83
4, 93888, Note_off_c, 2, 69, 0
4, 93888, Note_on_c, 2, 69, 83
4, 93984, Note_off_c, 2, 69, 0
4, 93984, Note_on_c, 2, 69, 83
4, 94080, Note_off_c, 2, 69, 0
4, 94080, Note_on_c, 2, 69, 86
4, 94176, Note_off_c, 2, 69, 0
4, 94176, Note_on_c, 2, 69, 86
4, 94272, Note_off_c, 2, 69, 0
4, 94272, Note_on_c, 2, 69, 86
4, 94368, Note_off_c, 2, 69, 0
4, 94368, Note_on_c, 2, 69, 86
4, 94464, Note_off_c, 2, 69, 0
4, 94464, Note_on_c, 2, 67, 88
4, 94560, Note_off_c, 2, 67, 0
4, 94560, Note_on_c, 2, 67, 88
4, 94656, Note_off_c, 2, 67, 0
4, 94656, Note_on_c, 2, 67, 88
4, 94752, Note_off_c, 2, 67, 0
4, 94752, Note_on_c, 2, 67, 88
4, 94848, Note_off_c, 2, 67, 0
4, 94848, Note_on_c, 2, 67, 91
4, 94944, Note_off_c, 2, 67, 0
4, 94944, Note_on_c, 2, 67, 91
4, 95040, Note_off_c, 2, 67, 0
4, 95040, Note_on_c, 2, 67, 91
4, 95136, Note_off_c, 2, 67, 0
4, 95136, Note_on_c, 2, 67, 91
4, 95232, Note_off_c, 2, 67, 0
4, 95232, Note_on_c, 2, 67, 93
4, 95328, Note_off_c, 2, 67, 0
4, 95328, Note_on_c, 2, 67, 93
4, 95424, Note_off_c, 2, 67, 0
4, 95424, Note_on_c, 2, 67, 93
4, 95520, Note_off_c, 2, 67, 0
4, 95520, Note_on_c, 2, 67, 93
4, 95616, Note_off_c, 2, 67, 0
4, 95616, Note_on_c, 2, 67, 96
4, 95712, Note_off_c, 2, 67, 0
4, 95712, Note_on_c, 2, 67, 96
4, 95808, Note_off_c, 2, 67, 0
4, 95808, Note_on_c, 2, 67, 96
4, 95904, Note_off_c, 2, 67, 0
4, 95904, Note_on_c, 2, 67, 96
4, 96000, Note_off_c, 2, 67, 0
4, 96000, Note_on_c, 2, 67, 99
4, 96096, Note_off_c, 2, 67, 0
4, 96096, Note_on_c, 2, 67, 99
4, 96192, Note_off_c, 2, 67, 0
4, 96192, Note_on_c, 2, 67, 99
4, 96288, Note_off_c, 2, 67, 0
4, 96288, Note_on_c, 2, 67, 99
4, 96384, Note_off_c, 2, 67, 0
4, 96384, Note_on_c, 2, 67, 101
4, 96480, Note_off_c, 2, 67, 0
4, 96480, Note_on_c, 2, 67, 101
4, 96576, Note_off_c, 2, 67, 0
4, 96576, Note_on_c, 2, 67, 101
4, 96672, Note_off_c, 2, 67, 0
4, 96672, Note_on_c, 2, 67, 101
4, 96768, Note_off_c, 2, 67, 0
4, 96768, Note_on_c, 2, 69, 104
4, 96864, Note_off_c, 2, 69, 0
4, 96864, Note_on_c, 2, 69, 104
4, 96960, Note_off_c, 2, 69, 0
4, 96960, Note_on_c, 2, 69, 104
4, 97056, Note_off_c, 2, 69, 0
4, 97056, Note_on_c, 2, 69, 104
4, 97152, Note_off_c, 2, 69, 0
4, 97152, Note_on_c, 2, 69, 106
4, 97248, Note_off_c, 2, 69, 0
4, 97248, Note_on_c, 2, 69, 106
4, 97344, Note_off_c, 2, 69, 0
4, 97344, Note_on_c, 2, 69, 106
4, 97440, Note_off_c, 2, 69, 0
4, 97440, Note_on_c, 2, 69, 106
4, 97536, Note_off_c, 2, 69, 0
4, 97536, Note_on_c, 2, 67, 109
4, 97632, Note_off_c, 2, 67, 0
4, 97632, Note_on_c, 2, 67, 109
4, 97728, Note_off_c, 2, 67, 0
4, 97728, Note_on_c, 2, 67, 109
4, 97824, Note_off_c, 2, 67, 0
4, 97824, Note_on_c, 2, 67, 109
4, 97920, Note_off_c, 2, 67, 0
4, 97920, Note_on_c, 2, 67, 109
4, 98016, Note_off_c, 2, 67, 0
4, 98016, Note_on_c, 2, 67, 109
4, 98112, Note_off_c, 2, 67, 0
4, 98112, Note_on_c, 2, 67, 109
4, 98208, Note_off_c, 2, 67, 0
4, 98208, Note_on_c, 2, 67, 109
4, 98304, Note_off_c, 2, 67, 0
4, 98304, Note_on_c, 2, 67, 109
4, 98400, Note_off_c, 2, 67, 0
4, 98400, Note_on_c, 2, 67, 109
4, 98496, Note_off_c, 2, 67, 0
4, 98496, Note_on_c, 2, 67, 109
4, 98592, Note_off_c, 2, 67, 0
4, 98592, Note_on_c, 2, 67, 109
4, 98688, Note_off_c, 2, 67, 0
4, 98688, Note_on_c, 2, 67, 109
4, 98784, Note_off_c, 2, 67, 0
4, 98784, Note_on_c, 2, 67, 109
4, 98880, Note_off_c, 2, 67, 0
4, 98880, Note_on_c, 2, 67, 109
4, 98976, Note_off_c, 2, 67, 0
4, 98976, Note_on_c, 2, 67, 109
4, 99072, Note_off_c, 2, 67, 0
4, 99072, Note_on_c, 2, 67, 109
4, 99168, Note_off_c, 2, 67, 0
4, 99168, Note_on_c, 2, 67, 109
4, 99264, Note_off_c, 2, 67, 0
4, 99264, Note_on_c, 2, 67, 109
4, 99360, Note_off_c, 2, 67, 0
4, 99360, Note_on_c, 2, 67, 109
4, 99456, Note_off_c, 2, 67, 0
4, 99456, Note_on_c, 2, 67, 109
4, 99552, Note_off_c, 2, 67, 0
4, 99552, Note_on_c, 2, 67, 109
4, 99648, Note_off_c, 2, 67, 0
4, 99648, Note_on_c, 2, 67, 109
4, 99744, Note_off_c, 2, 67, 0
4, 99744, Note_on_c, 2, 67, 109
4, 99840, Note_off_c, 2, 67, 0
4, 99840, Note_on_c, 2, 64, 114
4, 100128, Note_off_c, 2, 64, 0
4, 101568, Note_on_c, 2, 59, 114
4, 101760, Note_off_c, 2, 59, 0
4, 102144, Note_on_c, 2, 67, 114
4, 102336, Note_off_c, 2, 67, 0
4, 102528, Note_on_c, 2, 64, 114
4, 102720, Note_off_c, 2, 64, 0
4, 102912, Note_on_c, 2, 64, 88
4, 103200, Note_off_c, 2, 64, 0
4, 104640, Note_on_c, 2, 59, 88
4, 104832, Note_off_c, 2, 59, 0
4, 105216, Note_on_c, 2, 67, 88
4, 105408, Note_off_c, 2, 67, 0
4, 105600, Note_on_c, 2, 64, 88
4, 105792, Note_off_c, 2, 64, 0
4, 105984, Note_on_c, 2, 64, 63
4, 106272, Note_off_c, 2, 64, 0
4, 107712, Note_on_c, 2, 59, 63
4, 107904, Note_off_c, 2, 59, 0
4, 108288, Note_on_c, 2, 67, 63
4, 108480, Note_off_c, 2, 67, 0
4, 108672, Note_on_c, 2, 64, 63
4, 108864, Note_off_c, 2, 64, 0
4, 109056, Note_on_c, 2, 64, 38
4, 109344, Note_off_c, 2, 64, 0
4, 110784, Note_on_c, 2, 59, 38
4, 110976, Note_off_c, 2, 59, 0
4, 111360, Note_on_c, 2, 67, 38
4, 111552, Note_off_c, 2, 67, 0
4, 111744, Note_on_c, 2, 64, 38
4, 111936, Note_off_c, 2, 64, 0
4, 111936, End_track
5, 0, Start_track
5, 0, Title_t, "GUITAR1 TRUMPET4 GUITAR1 TRUMPET4"
5, 0, Control_c, 3, 0, 0
5, 0, Program_c, 3, 25
5, 0, Key_signature, 0, "major"
5, 0, Pitch_bend_c, 3, 8192
5, 19968, Pitch_bend_c, 3, 7782
5, 25152, Program_c, 3, 56
5, 25344, Note_on_c, 3, 79, 127
5, 25440, Note_off_c, 3, 79, 0
5, 25440, Note_on_c, 3, 76, 114
5, 25632, Note_off_c, 3, 76, 0
5, 25632, Note_on_c, 3, 76, 114
5, 25824, Note_off_c, 3, 76, 0
5, 25824, Note_on_c, 3, 74, 114
5, 25920, Note_off_c, 3, 74, 0
5, 25920, Note_on_c, 3, 76, 114
5, 26208, Note_off_c, 3, 76, 0
5, 26880, Note_on_c, 3, 79, 127
5, 26976, Note_off_c, 3, 79, 0
5, 26976, Note_on_c, 3, 79, 127
5, 27264, Note_off_c, 3, 79, 0
5, 27264, Note_on_c, 3, 81, 114
5, 27456, Note_off_c, 3, 81, 0
5, 27456, Note_on_c, 3, 76, 114
5, 27552, Note_off_c, 3, 76, 0
5, 27552, Note_on_c, 3, 76, 114
5, 27744, Note_off_c, 3, 76, 0
5, 31488, Note_on_c, 3, 79, 127
5, 31584, Note_off_c, 3, 79, 0
5, 31584, Note_on_c, 3, 76, 127
5, 31872, Note_off_c, 3, 76, 0
5, 31872, Note_on_c, 3, 76, 114
5, 32064, Note_off_c, 3, 76, 0
5, 32064, Note_on_c, 3, 74, 114
5, 32160, Note_off_c, 3, 74, 0
5, 32160, Note_on_c, 3, 76, 114
5, 32640, Note_off_c, 3, 76, 0
5, 38400, Pitch_bend_c, 3, 8192
5, 38400, Program_c, 3, 25
5, 58368, Pitch_bend_c, 3, 7782
5, 63552, Program_c, 3, 56
5, 63744, Note_on_c, 3, 79, 127
5, 63840, Note_off_c, 3, 79, 0
5, 63840, Note_on_c, 3, 76, 114
5, 64032, Note_off_c, 3, 76, 0
5, 64032, Note_on_c, 3, 76, 114
5, 64224, Note_off_c, 3, 76, 0
5, 64224, Note_on_c, 3, 74, 114
5, 64320, Note_off_c, 3, 74, 0
5, 64320, Note_on_c, 3, 76, 114
5, 64608, Note_off_c, 3, 76, 0
5, 65280, Note_on_c, 3, 79, 127
5, 65376, Note_off_c, 3, 79, 0
5, 65376, Note_on_c, 3, 79, 127
5, 65664, Note_off_c, 3, 79, 0
5, 65664, Note_on_c, 3, 81, 114
5, 65856, Note_off_c, 3, 81, 0
5, 65856, Note_on_c, 3, 76, 114
5, 65952, Note_off_c, 3, 76, 0
5, 65952, Note_on_c, 3, 76, 114
5, 66144, Note_off_c, 3, 76, 0
5, 69888, Note_on_c, 3, 79, 114
5, 69984, Note_off_c, 3, 79, 0
5, 69984, Note_on_c, 3, 76, 114
5, 70272, Note_off_c, 3, 76, 0
5, 70272, Note_on_c, 3, 64, 114
5, 70368, Note_off_c, 3, 64, 0
5, 70368, Note_on_c, 3, 62, 114
5, 70464, Note_off_c, 3, 62, 0
5, 70464, Note_on_c, 3, 64, 114
5, 70752, Note_off_c, 3, 64, 0
5, 76032, Note_on_c, 3, 79, 114
5, 76128, Note_off_c, 3, 79, 0
5, 76128, Note_on_c, 3, 76, 114
5, 76416, Note_off_c, 3, 76, 0
5, 76416, Note_on_c, 3, 76, 114
5, 76608, Note_off_c, 3, 76, 0
5, 76608, Note_on_c, 3, 74, 114
5, 76704, Note_off_c, 3, 74, 0
5, 76800, Note_on_c, 3, 47, 114
5, 78336, Note_off_c, 3, 47, 0
5, 79872, Note_on_c, 3, 52, 63
5, 81408, Note_off_c, 3, 52, 0
5, 90624, Note_on_c, 3, 64, 63
5, 90720, Note_off_c, 3, 64, 0
5, 90720, Note_on_c, 3, 64, 63
5, 90816, Note_off_c, 3, 64, 0
5, 90816, Note_on_c, 3, 64, 63
5, 90912, Note_off_c, 3, 64, 0
5, 90912, Note_on_c, 3, 64, 63
5, 91008, Note_off_c, 3, 64, 0
5, 91008, Note_on_c, 3, 64, 66
5, 91104, Note_off_c, 3, 64, 0
5, 91104, Note_on_c, 3, 64, 66
5, 91200, Note_off_c, 3, 64, 0
5, 91200, Note_on_c, 3, 64, 66
5, 91296, Note_off_c, 3, 64, 0
5, 91296, Note_on_c, 3, 64, 66
5, 91392, Note_off_c, 3, 64, 0
5, 91392, Note_on_c, 3, 64, 68
5, 91488, Note_off_c, 3, 64, 0
5, 91488, Note_on_c, 3, 64, 68
5, 91584, Note_off_c, 3, 64, 0
5, 91584, Note_on_c, 3, 64, 68
5, 91680, Note_off_c, 3, 64, 0
5, 91680, Note_on_c, 3, 64, 68
5, 91776, Note_off_c, 3, 64, 0
5, 91776, Note_on_c, 3, 64, 71
5, 91872, Note_off_c, 3, 64, 0
5, 91872, Note_on_c, 3, 64, 71
5, 91968, Note_off_c, 3, 64, 0
5, 91968, Note_on_c, 3, 64, 71
5, 92064, Note_off_c, 3, 64, 0
5, 92064, Note_on_c, 3, 64, 71
5, 92160, Note_off_c, 3, 64, 0
5, 92160, Note_on_c, 3, 64, 73
5, 92256, Note_off_c, 3, 64, 0
5, 92256, Note_on_c, 3, 64, 73
5, 92352, Note_off_c, 3, 64, 0
5, 92352, Note_on_c, 3, 64, 73
5, 92448, Note_off_c, 3, 64, 0
5, 92448, Note_on_c, 3, 64, 73
5, 92544, Note_off_c, 3, 64, 0
5, 92544, Note_on_c, 3, 64, 76
5, 92640, Note_off_c, 3, 64, 0
5, 92640, Note_on_c, 3, 64, 76
5, 92736, Note_off_c, 3, 64, 0
5, 92736, Note_on_c, 3, 64, 76
5, 92832, Note_off_c, 3, 64, 0
5, 92832, Note_on_c, 3, 64, 76
5, 92928, Note_off_c, 3, 64, 0
5, 92928, Note_on_c, 3, 64, 78
5, 93024, Note_off_c, 3, 64, 0
5, 93024, Note_on_c, 3, 64, 78
5, 93120, Note_off_c, 3, 64, 0
5, 93120, Note_on_c, 3, 64, 78
5, 93216, Note_off_c, 3, 64, 0
5, 93216, Note_on_c, 3, 64, 78
5, 93312, Note_off_c, 3, 64, 0
5, 93312, Note_on_c, 3, 64, 81
5, 93408, Note_off_c, 3, 64, 0
5, 93408, Note_on_c, 3, 64, 81
5, 93504, Note_off_c, 3, 64, 0
5, 93504, Note_on_c, 3, 64, 81
5, 93600, Note_off_c, 3, 64, 0
5, 93600, Note_on_c, 3, 64, 81
5, 93696, Note_off_c, 3, 64, 0
5, 93696, Note_on_c, 3, 64, 83
5, 93792, Note_off_c, 3, 64, 0
5, 93792, Note_on_c, 3, 64, 83
5, 93888, Note_off_c, 3, 64, 0
5, 93888, Note_on_c, 3, 64, 83
5, 93984, Note_off_c, 3, 64, 0
5, 93984, Note_on_c, 3, 64, 83
5, 94080, Note_off_c, 3, 64, 0
5, 94080, Note_on_c, 3, 64, 86
5, 94176, Note_off_c, 3, 64, 0
5, 94176, Note_on_c, 3, 64, 86
5, 94272, Note_off_c, 3, 64, 0
5, 94272, Note_on_c, 3, 64, 86
5, 94368, Note_off_c, 3, 64, 0
5, 94368, Note_on_c, 3, 64, 86
5, 94464, Note_off_c, 3, 64, 0
5, 94464, Note_on_c, 3, 64, 88
5, 94560, Note_off_c, 3, 64, 0
5, 94560, Note_on_c, 3, 64, 88
5, 94656, Note_off_c, 3, 64, 0
5, 94656, Note_on_c, 3, 64, 88
5, 94752, Note_off_c, 3, 64, 0
5, 94752, Note_on_c, 3, 64, 88
5, 94848, Note_off_c, 3, 64, 0
5, 94848, Note_on_c, 3, 64, 91
5, 94944, Note_off_c, 3, 64, 0
5, 94944, Note_on_c, 3, 64, 91
5, 95040, Note_off_c, 3, 64, 0
5, 95040, Note_on_c, 3, 64, 91
5, 95136, Note_off_c, 3, 64, 0
5, 95136, Note_on_c, 3, 64, 91
5, 95232, Note_off_c, 3, 64, 0
5, 95232, Note_on_c, 3, 64, 93
5, 95328, Note_off_c, 3, 64, 0
5, 95328, Note_on_c, 3, 64, 93
5, 95424, Note_off_c, 3, 64, 0
5, 95424, Note_on_c, 3, 64, 93
5, 95520, Note_off_c, 3, 64, 0
5, 95520, Note_on_c, 3, 64, 93
5, 95616, Note_off_c, 3, 64, 0
5, 95616, Note_on_c, 3, 64, 96
5, 95712, Note_off_c, 3, 64, 0
5, 95712, Note_on_c, 3, 64, 96
5, 95808, Note_off_c, 3, 64, 0
5, 95808, Note_on_c, 3, 64, 96
5, 95904, Note_off_c, 3, 64, 0
5, 95904, Note_on_c, 3, 64, 96
5, 96000, Note_off_c, 3, 64, 0
5, 96000, Note_on_c, 3, 64, 99
5, 96096, Note_off_c, 3, 64, 0
5, 96096, Note_on_c, 3, 64, 99
5, 96192, Note_off_c, 3, 64, 0
5, 96192, Note_on_c, 3, 64, 99
5, 96288, Note_off_c, 3, 64, 0
5, 96288, Note_on_c, 3, 64, 99
5, 96384, Note_off_c, 3, 64, 0
5, 96384, Note_on_c, 3, 64, 101
5, 96480, Note_off_c, 3, 64, 0
5, 96480, Note_on_c, 3, 64, 101
5, 96576, Note_off_c, 3, 64, 0
5, 96576, Note_on_c, 3, 64, 101
5, 96672, Note_off_c, 3, 64, 0
5, 96672, Note_on_c, 3, 64, 101
5, 96768, Note_off_c, 3, 64, 0
5, 96768, Note_on_c, 3, 64, 104
5, 96864, Note_off_c, 3, 64, 0
5, 96864, Note_on_c, 3, 64, 104
5, 96960, Note_off_c, 3, 64, 0
5, 96960, Note_on_c, 3, 64, 104
5, 97056, Note_off_c, 3, 64, 0
5, 97056, Note_on_c, 3, 64, 104
5, 97152, Note_off_c, 3, 64, 0
5, 97152, Note_on_c, 3, 64, 106
5, 97248, Note_off_c, 3, 64, 0
5, 97248, Note_on_c, 3, 64, 106
5, 97344, Note_off_c, 3, 64, 0
5, 97344, Note_on_c, 3, 64, 106
5, 97440, Note_off_c, 3, 64, 0
5, 97440, Note_on_c, 3, 64, 106
5, 97536, Note_off_c, 3, 64, 0
5, 97536, Note_on_c, 3, 64, 109
5, 97632, Note_off_c, 3, 64, 0
5, 97632, Note_on_c, 3, 64, 109
5, 97728, Note_off_c, 3, 64, 0
5, 97728, Note_on_c, 3, 64, 109
5, 97824, Note_off_c, 3, 64, 0
5, 97824, Note_on_c, 3, 64, 109
5, 97920, Note_off_c, 3, 64, 0
5, 97920, Note_on_c, 3, 64, 109
5, 98016, Note_off_c, 3, 64, 0
5, 98016, Note_on_c, 3, 64, 109
5, 98112, Note_off_c, 3, 64, 0
5, 98112, Note_on_c, 3, 64, 109
5, 98208, Note_off_c, 3, 64, 0
5, 98208, Note_on_c, 3, 64, 109
5, 98304, Note_off_c, 3, 64, 0
5, 98304, Note_on_c, 3, 64, 109
5, 98400, Note_off_c, 3, 64, 0
5, 98400, Note_on_c, 3, 64, 109
5, 98496, Note_off_c, 3, 64, 0
5, 98496, Note_on_c, 3, 64, 109
5, 98592, Note_off_c, 3, 64, 0
5, 98592, Note_on_c, 3, 64, 109
5, 98688, Note_off_c, 3, 64, 0
5, 98688, Note_on_c, 3, 64, 109
5, 98784, Note_off_c, 3, 64, 0
5, 98784, Note_on_c, 3, 64, 109
5, 98880, Note_off_c, 3, 64, 0
5, 98880, Note_on_c, 3, 64, 109
5, 98976, Note_off_c, 3, 64, 0
5, 98976, Note_on_c, 3, 64, 109
5, 99072, Note_off_c, 3, 64, 0
5, 99072, Note_on_c, 3, 64, 109
5, 99168, Note_off_c, 3, 64, 0
5, 99168, Note_on_c, 3, 64, 109
5, 99264, Note_off_c, 3, 64, 0
5, 99264, Note_on_c, 3, 64, 109
5, 99360, Note_off_c, 3, 64, 0
5, 99360, Note_on_c, 3, 64, 109
5, 99456, Note_off_c, 3, 64, 0
5, 99456, Note_on_c, 3, 64, 109
5, 99552, Note_off_c, 3, 64, 0
5, 99552, Note_on_c, 3, 64, 109
5, 99648, Note_off_c, 3, 64, 0
5, 99648, Note_on_c, 3, 64, 109
5, 99744, Note_off_c, 3, 64, 0
5, 99744, Note_on_c, 3, 64, 109
5, 99840, Note_off_c, 3, 64, 0
5, 99840, Note_on_c, 3, 60, 114
5, 100128, Note_off_c, 3, 60, 0
5, 100128, Note_on_c, 3, 60, 114
5, 100416, Note_off_c, 3, 60, 0
5, 100416, Note_on_c, 3, 60, 114
5, 100992, Note_off_c, 3, 60, 0
5, 100992, Note_on_c, 3, 57, 114
5, 101088, Note_off_c, 3, 57, 0
5, 101088, Note_on_c, 3, 57, 114
5, 101280, Note_off_c, 3, 57, 0
5, 101280, Note_on_c, 3, 55, 114
5, 101376, Note_off_c, 3, 55, 0
5, 101376, Note_on_c, 3, 57, 114
5, 101568, Note_off_c, 3, 57, 0
5, 101568, Note_on_c, 3, 55, 114
5, 101760, Note_off_c, 3, 55, 0
5, 102144, Note_on_c, 3, 64, 114
5, 102336, Note_off_c, 3, 64, 0
5, 102336, Note_on_c, 3, 64, 114
5, 102432, Note_off_c, 3, 64, 0
5, 102528, Note_on_c, 3, 59, 114
5, 102720, Note_off_c, 3, 59, 0
5, 102720, Note_on_c, 3, 59, 114
5, 102912, Note_off_c, 3, 59, 0
5, 102912, Note_on_c, 3, 60, 88
5, 103200, Note_off_c, 3, 60, 0
5, 103200, Note_on_c, 3, 60, 88
5, 103488, Note_off_c, 3, 60, 0
5, 103488, Note_on_c, 3, 60, 88
5, 104064, Note_off_c, 3, 60, 0
5, 104064, Note_on_c, 3, 57, 88
5, 104160, Note_off_c, 3, 57, 0
5, 104160, Note_on_c, 3, 57, 88
5, 104352, Note_off_c, 3, 57, 0
5, 104352, Note_on_c, 3, 55, 88
5, 104448, Note_off_c, 3, 55, 0
5, 104448, Note_on_c, 3, 57, 88
5, 104640, Note_off_c, 3, 57, 0
5, 104640, Note_on_c, 3, 55, 88
5, 104832, Note_off_c, 3, 55, 0
5, 105216, Note_on_c, 3, 64, 88
5, 105408, Note_off_c, 3, 64, 0
5, 105408, Note_on_c, 3, 64, 88
5, 105504, Note_off_c, 3, 64, 0
5, 105600, Note_on_c, 3, 59, 88
5, 105792, Note_off_c, 3, 59, 0
5, 105792, Note_on_c, 3, 59, 88
5, 105984, Note_off_c, 3, 59, 0
5, 105984, Note_on_c, 3, 60, 63
5, 106272, Note_off_c, 3, 60, 0
5, 106272, Note_on_c, 3, 60, 63
5, 106560, Note_off_c, 3, 60, 0
5, 106560, Note_on_c, 3, 60, 63
5, 107136, Note_off_c, 3, 60, 0
5, 107136, Note_on_c, 3, 57, 63
5, 107232, Note_off_c, 3, 57, 0
5, 107232, Note_on_c, 3, 57, 63
5, 107424, Note_off_c, 3, 57, 0
5, 107424, Note_on_c, 3, 55, 63
5, 107520, Note_off_c, 3, 55, 0
5, 107520, Note_on_c, 3, 57, 63
5, 107712, Note_off_c, 3, 57, 0
5, 107712, Note_on_c, 3, 55, 63
5, 107904, Note_off_c, 3, 55, 0
5, 108288, Note_on_c, 3, 64, 63
5, 108480, Note_off_c, 3, 64, 0
5, 108480, Note_on_c, 3, 64, 63
5, 108576, Note_off_c, 3, 64, 0
5, 108672, Note_on_c, 3, 59, 63
5, 108864, Note_off_c, 3, 59, 0
5, 108864, Note_on_c, 3, 59, 63
5, 109056, Note_off_c, 3, 59, 0
5, 109056, Note_on_c, 3, 60, 38
5, 109344, Note_off_c, 3, 60, 0
5, 109344, Note_on_c, 3, 60, 38
5, 109632, Note_off_c, 3, 60, 0
5, 109632, Note_on_c, 3, 60, 38
5, 110208, Note_off_c, 3, 60, 0
5, 110208, Note_on_c, 3, 57, 38
5, 110304, Note_off_c, 3, 57, 0
5, 110304, Note_on_c, 3, 57, 38
5, 110496, Note_off_c, 3, 57, 0
5, 110496, Note_on_c, 3, 55, 38
5, 110592, Note_off_c, 3, 55, 0
5, 110592, Note_on_c, 3, 57, 38
5, 110784, Note_off_c, 3, 57, 0
5, 110784, Note_on_c, 3, 55, 38
5, 110976, Note_off_c, 3, 55, 0
5, 111360, Note_on_c, 3, 64, 38
5, 111552, Note_off_c, 3, 64, 0
5, 111552, Note_on_c, 3, 64, 38
5, 111648, Note_off_c, 3, 64, 0
5, 111744, Note_on_c, 3, 59, 38
5, 111936, Note_off_c, 3, 59, 0
5, 111936, Note_on_c, 3, 59, 38
5, 112128, Note_off_c, 3, 59, 0
5, 112128, End_track
6, 0, Start_track
6, 0, Title_t, "PIANO1 CLARINET PIANO3 PIANO1 CLARINET PIANO3"
6, 0, Control_c, 4, 0, 0
6, 0, Program_c, 4, 0
6, 0, Key_signature, 0, "major"
6, 0, Pitch_bend_c, 4, 8192
6, 7872, Note_on_c, 4, 52, 82
6, 7968, Note_off_c, 4, 52, 0
6, 7968, Note_on_c, 4, 57, 82
6, 8160, Note_off_c, 4, 57, 0
6, 8160, Note_on_c, 4, 52, 82
6, 8256, Note_off_c, 4, 52, 0
6, 8256, Note_on_c, 4, 55, 82
6, 9216, Note_off_c, 4, 55, 0
6, 13824, Note_on_c, 4, 47, 82
6, 15360, Note_off_c, 4, 47, 0
6, 19584, Program_c, 4, 71
6, 19584, Note_on_c, 4, 74, 88
6, 19680, Note_off_c, 4, 74, 0
6, 19680, Note_on_c, 4, 76, 88
6, 19968, Note_off_c, 4, 76, 0
6, 19968, Note_on_c, 4, 79, 120
6, 20064, Note_off_c, 4, 79, 0
6, 20064, Note_on_c, 4, 79, 120
6, 20352, Note_off_c, 4, 79, 0
6, 20352, Note_on_c, 4, 81, 120
6, 20544, Note_off_c, 4, 81, 0
6, 20544, Note_on_c, 4, 76, 120
6, 20640, Note_off_c, 4, 76, 0
6, 20640, Note_on_c, 4, 76, 120
6, 21120, Note_off_c, 4, 76, 0
6, 21120, Note_on_c, 4, 74, 114
6, 21216, Note_off_c, 4, 74, 0
6, 21216, Note_on_c, 4, 76, 114
6, 21504, Note_off_c, 4, 76, 0
6, 21504, Note_on_c, 4, 79, 120
6, 21600, Note_off_c, 4, 79, 0
6, 21600, Note_on_c, 4, 79, 120
6, 21792, Note_off_c, 4, 79, 0
6, 21792, Note_on_c, 4, 81, 114
6, 22080, Note_off_c, 4, 81, 0
6, 22080, Note_on_c, 4, 76, 114
6, 22176, Note_off_c, 4, 76, 0
6, 22176, Note_on_c, 4, 74, 114
6, 22272, Note_off_c, 4, 74, 0
6, 22272, Note_on_c, 4, 76, 114
6, 22656, Note_off_c, 4, 76, 0
6, 22656, Note_on_c, 4, 74, 114
6, 22752, Note_off_c, 4, 74, 0
6, 22752, Note_on_c, 4, 76, 114
6, 23040, Note_off_c, 4, 76, 0
6, 23040, Note_on_c, 4, 83, 120
6, 23424, Note_off_c, 4, 83, 0
6, 23424, Note_on_c, 4, 81, 114
6, 23616, Note_off_c, 4, 81, 0
6, 23616, Note_on_c, 4, 79, 114
6, 23808, Note_off_c, 4, 79, 0
6, 23808, Note_on_c, 4, 81, 114
6, 24000, Note_off_c, 4, 81, 0
6, 24000, Note_on_c, 4, 79, 114
6, 24192, Note_off_c, 4, 79, 0
6, 24192, Note_on_c, 4, 76, 114
6, 24288, Note_off_c, 4, 76, 0
6, 24288, Note_on_c, 4, 76, 114
6, 24576, Note_off_c, 4, 76, 0
6, 24576, Note_on_c, 4, 79, 127
6, 24672, Note_off_c, 4, 79, 0
6, 24672, Note_on_c, 4, 76, 114
6, 24960, Note_off_c, 4, 76, 0
6, 24960, Note_on_c, 4, 76, 114
6, 25152, Note_off_c, 4, 76, 0
6, 25152, Note_on_c, 4, 74, 114
6, 25248, Note_off_c, 4, 74, 0
6, 25248, Note_on_c, 4, 76, 114
6, 25728, Note_off_c, 4, 76, 0
6, 25728, Note_on_c, 4, 76, 114
6, 25824, Note_off_c, 4, 76, 0
6, 25824, Note_on_c, 4, 76, 114
6, 26112, Note_off_c, 4, 76, 0
6, 26112, Note_on_c, 4, 79, 127
6, 26208, Note_off_c, 4, 79, 0
6, 26208, Note_on_c, 4, 79, 127
6, 26496, Note_off_c, 4, 79, 0
6, 26496, Note_on_c, 4, 81, 114
6, 26688, Note_off_c, 4, 81, 0
6, 26688, Note_on_c, 4, 76, 114
6, 26784, Note_off_c, 4, 76, 0
6, 26784, Note_on_c, 4, 76, 114
6, 27072, Note_off_c, 4, 76, 0
6, 27264, Note_on_c, 4, 74, 114
6, 27360, Note_off_c, 4, 74, 0
6, 27360, Note_on_c, 4, 76, 114
6, 27648, Note_off_c, 4, 76, 0
6, 27648, Note_on_c, 4, 79, 127
6, 27744, Note_off_c, 4, 79, 0
6, 27744, Note_on_c, 4, 79, 127
6, 27936, Note_off_c, 4, 79, 0
6, 27936, Note_on_c, 4, 81, 114
6, 28224, Note_off_c, 4, 81, 0
6, 28224, Note_on_c, 4, 76, 114
6, 28320, Note_off_c, 4, 76, 0
6, 28320, Note_on_c, 4, 74, 114
6, 28416, Note_off_c, 4, 74, 0
6, 28416, Note_on_c, 4, 76, 114
6, 28800, Note_off_c, 4, 76, 0
6, 28800, Note_on_c, 4, 74, 114
6, 28896, Note_off_c, 4, 74, 0
6, 28896, Note_on_c, 4, 76, 114
6, 29184, Note_off_c, 4, 76, 0
6, 29184, Note_on_c, 4, 83, 127
6, 29568, Note_off_c, 4, 83, 0
6, 29568, Note_on_c, 4, 81, 114
6, 29760, Note_off_c, 4, 81, 0
6, 29760, Note_on_c, 4, 79, 114
6, 29952, Note_off_c, 4, 79, 0
6, 29952, Note_on_c, 4, 81, 127
6, 30144, Note_off_c, 4, 81, 0
6, 30144, Note_on_c, 4, 79, 127
6, 30336, Note_off_c, 4, 79, 0
6, 30336, Note_on_c, 4, 76, 114
6, 30432, Note_off_c, 4, 76, 0
6, 30432, Note_on_c, 4, 76, 114
6, 30720, Note_off_c, 4, 76, 0
6, 30720, Note_on_c, 4, 79, 127
6, 30816, Note_off_c, 4, 79, 0
6, 30816, Note_on_c, 4, 76, 127
6, 31104, Note_off_c, 4, 76, 0
6, 31104, Note_on_c, 4, 76, 114
6, 31296, Note_off_c, 4, 76, 0
6, 31296, Note_on_c, 4, 74, 114
6, 31392, Note_off_c, 4, 74, 0
6, 31392, Note_on_c, 4, 76, 114
6, 32256, Note_off_c, 4, 76, 0
6, 32256, Program_c, 4, 1
6, 38400, Program_c, 4, 0
6, 40128, Note_on_c, 4, 52, 82
6, 40224, Note_off_c, 4, 52, 0
6, 40224, Note_on_c, 4, 57, 82
6, 40416, Note_off_c, 4, 57, 0
6, 40416, Note_on_c, 4, 52, 82
6, 40512, Note_off_c, 4, 52, 0
6, 40512, Note_on_c, 4, 55, 82
6, 41472, Note_off_c, 4, 55, 0
6, 46080, Note_on_c, 4, 47, 82
6, 47616, Note_off_c, 4, 47, 0
6, 57984, Program_c, 4, 71
6, 57984, Note_on_c, 4, 74, 88
6, 58080, Note_off_c, 4, 74, 0
6, 58080, Note_on_c, 4, 76, 88
6, 58368, Note_off_c, 4, 76, 0
6, 58368, Note_on_c, 4, 79, 120
6, 58464, Note_off_c, 4, 79, 0
6, 58464, Note_on_c, 4, 79, 120
6, 58752, Note_off_c, 4, 79, 0
6, 58752, Note_on_c, 4, 81, 120
6, 58944, Note_off_c, 4, 81, 0
6, 58944, Note_on_c, 4, 76, 120
6, 59040, Note_off_c, 4, 76, 0
6, 59040, Note_on_c, 4, 76, 120
6, 59520, Note_off_c, 4, 76, 0
6, 59520, Note_on_c, 4, 74, 114
6, 59616, Note_off_c, 4, 74, 0
6, 59616, Note_on_c, 4, 76, 114
6, 59904, Note_off_c, 4, 76, 0
6, 59904, Note_on_c, 4, 79, 120
6, 60000, Note_off_c, 4, 79, 0
6, 60000, Note_on_c, 4, 79, 120
6, 60192, Note_off_c, 4, 79, 0
6, 60192, Note_on_c, 4, 81, 114
6, 60480, Note_off_c, 4, 81, 0
6, 60480, Note_on_c, 4, 76, 114
6, 60576, Note_off_c, 4, 76, 0
6, 60576, Note_on_c, 4, 74, 114
6, 60672, Note_off_c, 4, 74, 0
6, 60672, Note_on_c, 4, 76, 114
6, 61056, Note_off_c, 4, 76, 0
6, 61056, Note_on_c, 4, 74, 114
6, 61152, Note_off_c, 4, 74, 0
6, 61152, Note_on_c, 4, 76, 114
6, 61440, Note_off_c, 4, 76, 0
6, 61440, Note_on_c, 4, 83, 120
6, 61824, Note_off_c, 4, 83, 0
6, 61824, Note_on_c, 4, 81, 114
6, 62016, Note_off_c, 4, 81, 0
6, 62016, Note_on_c, 4, 79, 114
6, 62208, Note_off_c, 4, 79, 0
6, 62208, Note_on_c, 4, 81, 114
6, 62400, Note_off_c, 4, 81, 0
6, 62400, Note_on_c, 4, 79, 114
6, 62592, Note_off_c, 4, 79, 0
6, 62592, Note_on_c, 4, 76, 114
6, 62688, Note_off_c, 4, 76, 0
6, 62688, Note_on_c, 4, 76, 114
6, 62976, Note_off_c, 4, 76, 0
6, 62976, Note_on_c, 4, 79, 127
6, 63072, Note_off_c, 4, 79, 0
6, 63072, Note_on_c, 4, 76, 114
6, 63360, Note_off_c, 4, 76, 0
6, 63360, Note_on_c, 4, 76, 114
6, 63552, Note_off_c, 4, 76, 0
6, 63552, Note_on_c, 4, 74, 114
6, 63648, Note_off_c, 4, 74, 0
6, 63648, Note_on_c, 4, 76, 114
6, 64128, Note_off_c, 4, 76, 0
6, 64128, Note_on_c, 4, 76, 114
6, 64224, Note_off_c, 4, 76, 0
6, 64224, Note_on_c, 4, 76, 114
6, 64512, Note_off_c, 4, 76, 0
6, 64512, Note_on_c, 4, 79, 127
6, 64608, Note_off_c, 4, 79, 0
6, 64608, Note_on_c, 4, 79, 127
6, 64896, Note_off_c, 4, 79, 0
6, 64896, Note_on_c, 4, 81, 114
6, 65088, Note_off_c, 4, 81, 0
6, 65088, Note_on_c, 4, 76, 114
6, 65184, Note_off_c, 4, 76, 0
6, 65184, Note_on_c, 4, 76, 114
6, 65472, Note_off_c, 4, 76, 0
6, 65664, Note_on_c, 4, 74, 114
6, 65760, Note_off_c, 4, 74, 0
6, 65760, Note_on_c, 4, 76, 114
6, 66048, Note_off_c, 4, 76, 0
6, 66048, Note_on_c, 4, 79, 127
6, 66144, Note_off_c, 4, 79, 0
6, 66144, Note_on_c, 4, 79, 127
6, 66336, Note_off_c, 4, 79, 0
6, 66336, Note_on_c, 4, 81, 114
6, 66624, Note_off_c, 4, 81, 0
6, 66624, Note_on_c, 4, 76, 114
6, 66720, Note_off_c, 4, 76, 0
6, 66720, Note_on_c, 4, 74, 114
6, 66816, Note_off_c, 4, 74, 0
6, 66816, Note_on_c, 4, 76, 114
6, 67200, Note_off_c, 4, 76, 0
6, 67200, Note_on_c, 4, 74, 114
6, 67296, Note_off_c, 4, 74, 0
6, 67296, Note_on_c, 4, 76, 114
6, 67584, Note_off_c, 4, 76, 0
6, 67584, Note_on_c, 4, 83, 127
6, 67968, Note_off_c, 4, 83, 0
6, 67968, Note_on_c, 4, 81, 114
6, 68160, Note_off_c, 4, 81, 0
6, 68160, Note_on_c, 4, 79, 114
6, 68352, Note_off_c, 4, 79, 0
6, 68352, Note_on_c, 4, 81, 127
6, 68544, Note_off_c, 4, 81, 0
6, 68544, Note_on_c, 4, 79, 127
6, 68736, Note_off_c, 4, 79, 0
6, 68736, Note_on_c, 4, 76, 114
6, 68832, Note_off_c, 4, 76, 0
6, 68832, Note_on_c, 4, 76, 114
6, 69120, Note_off_c, 4, 76, 0
6, 69120, Note_on_c, 4, 79, 114
6, 69216, Note_off_c, 4, 79, 0
6, 69216, Note_on_c, 4, 76, 114
6, 69504, Note_off_c, 4, 76, 0
6, 69504, Note_on_c, 4, 76, 114
6, 69696, Note_off_c, 4, 76, 0
6, 69696, Note_on_c, 4, 74, 114
6, 69792, Note_off_c, 4, 74, 0
6, 69792, Note_on_c, 4, 76, 114
6, 70272, Note_off_c, 4, 76, 0
6, 70272, Note_on_c, 4, 76, 114
6, 70368, Note_off_c, 4, 76, 0
6, 70368, Note_on_c, 4, 76, 114
6, 70656, Note_off_c, 4, 76, 0
6, 70656, Note_on_c, 4, 79, 114
6, 70752, Note_off_c, 4, 79, 0
6, 70752, Note_on_c, 4, 79, 114
6, 71040, Note_off_c, 4, 79, 0
6, 71040, Note_on_c, 4, 81, 114
6, 71232, Note_off_c, 4, 81, 0
6, 71232, Note_on_c, 4, 76, 114
6, 71328, Note_off_c, 4, 76, 0
6, 71328, Note_on_c, 4, 76, 114
6, 71616, Note_off_c, 4, 76, 0
6, 71808, Note_on_c, 4, 74, 114
6, 71904, Note_off_c, 4, 74, 0
6, 71904, Note_on_c, 4, 76, 114
6, 72192, Note_off_c, 4, 76, 0
6, 72192, Note_on_c, 4, 79, 114
6, 72288, Note_off_c, 4, 79, 0
6, 72288, Note_on_c, 4, 79, 114
6, 72480, Note_off_c, 4, 79, 0
6, 72480, Note_on_c, 4, 81, 114
6, 72768, Note_off_c, 4, 81, 0
6, 72768, Note_on_c, 4, 76, 114
6, 72864, Note_off_c, 4, 76, 0
6, 72864, Note_on_c, 4, 74, 114
6, 72960, Note_off_c, 4, 74, 0
6, 72960, Note_on_c, 4, 76, 114
6, 73344, Note_off_c, 4, 76, 0
6, 73344, Note_on_c, 4, 74, 114
6, 73440, Note_off_c, 4, 74, 0
6, 73440, Note_on_c, 4, 76, 114
6, 73728, Note_off_c, 4, 76, 0
6, 73728, Note_on_c, 4, 83, 114
6, 74112, Note_off_c, 4, 83, 0
6, 74112, Note_on_c, 4, 81, 114
6, 74304, Note_off_c, 4, 81, 0
6, 74304, Note_on_c, 4, 79, 114
6, 74496, Note_off_c, 4, 79, 0
6, 74496, Note_on_c, 4, 81, 114
6, 74688, Note_off_c, 4, 81, 0
6, 74688, Note_on_c, 4, 79, 114
6, 74880, Note_off_c, 4, 79, 0
6, 74880, Note_on_c, 4, 76, 114
6, 74976, Note_off_c, 4, 76, 0
6, 74976, Note_on_c, 4, 76, 114
6, 75264, Note_off_c, 4, 76, 0
6, 75264, Note_on_c, 4, 79, 114
6, 75360, Note_off_c, 4, 79, 0
6, 75360, Note_on_c, 4, 76, 114
6, 75648, Note_off_c, 4, 76, 0
6, 75648, Note_on_c, 4, 76, 114
6, 75840, Note_off_c, 4, 76, 0
6, 75840, Note_on_c, 4, 74, 114
6, 75936, Note_off_c, 4, 74, 0
6, 75936, Note_on_c, 4, 76, 114
6, 76800, Note_off_c, 4, 76, 0
6, 76800, Program_c, 4, 1
6, 76800, Note_on_c, 4, 52, 114
6, 78336, Note_off_c, 4, 52, 0
6, 79872, Note_on_c, 4, 47, 57
6, 81408, Note_off_c, 4, 47, 0
6, 99840, Note_on_c, 4, 84, 107
6, 100128, Note_off_c, 4, 84, 0
6, 100128, Note_on_c, 4, 83, 107
6, 100416, Note_off_c, 4, 83, 0
6, 100416, Note_on_c, 4, 81, 107
6, 100992, Note_off_c, 4, 81, 0
6, 100992, Note_on_c, 4, 81, 107
6, 101088, Note_off_c, 4, 81, 0
6, 101088, Note_on_c, 4, 81, 107
6, 101280, Note_off_c, 4, 81, 0
6, 101280, Note_on_c, 4, 79, 107
6, 101376, Note_off_c, 4, 79, 0
6, 101376, Note_on_c, 4, 81, 107
6, 101568, Note_off_c, 4, 81, 0
6, 101568, Note_on_c, 4, 83, 107
6, 101760, Note_off_c, 4, 83, 0
6, 102912, Note_on_c, 4, 84, 82
6, 103200, Note_off_c, 4, 84, 0
6, 103200, Note_on_c, 4, 83, 82
6, 103488, Note_off_c, 4, 83, 0
6, 103488, Note_on_c, 4, 81, 82
6, 104064, Note_off_c, 4, 81, 0
6, 104064, Note_on_c, 4, 81, 82
6, 104160, Note_off_c, 4, 81, 0
6, 104160, Note_on_c, 4, 81, 82
6, 104352, Note_off_c, 4, 81, 0
6, 104352, Note_on_c, 4, 79, 82
6, 104448, Note_off_c, 4, 79, 0
6, 104448, Note_on_c, 4, 81, 82
6, 104640, Note_off_c, 4, 81, 0
6, 104640, Note_on_c, 4, 83, 82
6, 104832, Note_off_c, 4, 83, 0
6, 105984, Note_on_c, 4, 84, 57
6, 106272, Note_off_c, 4, 84, 0
6, 106272, Note_on_c, 4, 83, 57
6, 106560, Note_off_c, 4, 83, 0
6, 106560, Note_on_c, 4, 81, 57
6, 107136, Note_off_c, 4, 81, 0
6, 107136, Note_on_c, 4, 81, 57
6, 107232, Note_off_c, 4, 81, 0
6, 107232, Note_on_c, 4, 81, 57
6, 107424, Note_off_c, 4, 81, 0
6, 107424, Note_on_c, 4, 79, 57
6, 107520, Note_off_c, 4, 79, 0
6, 107520, Note_on_c, 4, 81, 57
6, 107712, Note_off_c, 4, 81, 0
6, 107712, Note_on_c, 4, 83, 57
6, 107904, Note_off_c, 4, 83, 0
6, 109056, Note_on_c, 4, 84, 31
6, 109344, Note_off_c, 4, 84, 0
6, 109344, Note_on_c, 4, 83, 31
6, 109632, Note_off_c, 4, 83, 0
6, 109632, Note_on_c, 4, 81, 31
6, 110208, Note_off_c, 4, 81, 0
6, 110208, Note_on_c, 4, 81, 31
6, 110304, Note_off_c, 4, 81, 0
6, 110304, Note_on_c, 4, 81, 31
6, 110496, Note_off_c, 4, 81, 0
6, 110496, Note_on_c, 4, 79, 31
6, 110592, Note_off_c, 4, 79, 0
6, 110592, Note_on_c, 4, 81, 31
6, 110784, Note_off_c, 4, 81, 0
6, 110784, Note_on_c, 4, 83, 31
6, 110976, Note_off_c, 4, 83, 0
6, 110976, End_track
7, 0, Start_track
7, 0, Title_t, "BASS2 "
7, 0, Control_c, 5, 0, 0
7, 0, Program_c, 5, 33
7, 0, Key_signature, 0, "major"
7, 0, Pitch_bend_c, 5, 8192
7, 0, Note_on_c, 5, 40, 93
7, 384, Note_off_c, 5, 40, 0
7, 384, Note_on_c, 5, 40, 93
7, 768, Note_off_c, 5, 40, 0
7, 768, Note_on_c, 5, 40, 93
7, 1152, Note_off_c, 5, 40, 0
7, 1152, Note_on_c, 5, 40, 93
7, 1536, Note_off_c, 5, 40, 0
7, 1536, Note_on_c, 5, 40, 93
7, 1920, Note_off_c, 5, 40, 0
7, 1920, Note_on_c, 5, 40, 93
7, 2304, Note_off_c, 5, 40, 0
7, 2304, Note_on_c, 5, 40, 93
7, 2688, Note_off_c, 5, 40, 0
7, 2688, Note_on_c, 5, 40, 93
7, 3072, Note_off_c, 5, 40, 0
7, 3072, Note_on_c, 5, 40, 93
7, 3456, Note_off_c, 5, 40, 0
7, 3456, Note_on_c, 5, 40, 93
7, 3840, Note_off_c, 5, 40, 0
7, 3840, Note_on_c, 5, 40, 93
7, 4224, Note_off_c, 5, 40, 0
7, 4224, Note_on_c, 5, 40, 93
7, 4608, Note_off_c, 5, 40, 0
7, 4608, Note_on_c, 5, 40, 93
7, 4800, Note_off_c, 5, 40, 0
7, 4800, Note_on_c, 5, 55, 93
7, 4896, Note_off_c, 5, 55, 0
7, 4896, Note_on_c, 5, 52, 93
7, 4992, Note_off_c, 5, 52, 0
7, 4992, Note_on_c, 5, 50, 93
7, 5088, Note_off_c, 5, 50, 0
7, 5088, Note_on_c, 5, 47, 93
7, 5184, Note_off_c, 5, 47, 0
7, 5184, Note_on_c, 5, 52, 93
7, 5376, Note_off_c, 5, 52, 0
7, 5376, Note_on_c, 5, 40, 93
7, 5568, Note_off_c, 5, 40, 0
7, 6144, Note_on_c, 5, 40, 93
7, 6528, Note_off_c, 5, 40, 0
7, 6528, Note_on_c, 5, 40, 93
7, 6912, Note_off_c, 5, 40, 0
7, 6912, Note_on_c, 5, 40, 93
7, 7296, Note_off_c, 5, 40, 0
7, 7296, Note_on_c, 5, 40, 93
7, 7680, Note_off_c, 5, 40, 0
7, 7680, Note_on_c, 5, 45, 93
7, 8448, Note_off_c, 5, 45, 0
7, 8448, Note_on_c, 5, 45, 93
7, 8832, Note_off_c, 5, 45, 0
7, 8832, Note_on_c, 5, 45, 93
7, 9216, Note_off_c, 5, 45, 0
7, 9216, Note_on_c, 5, 50, 93
7, 9600, Note_off_c, 5, 50, 0
7, 9600, Note_on_c, 5, 50, 93
7, 9984, Note_off_c, 5, 50, 0
7, 9984, Note_on_c, 5, 48, 93
7, 10368, Note_off_c, 5, 48, 0
7, 10368, Note_on_c, 5, 43, 93
7, 10464, Note_off_c, 5, 43, 0
7, 10464, Note_on_c, 5, 45, 93
7, 10560, Note_off_c, 5, 45, 0
7, 10560, Note_on_c, 5, 40, 93
7, 10752, Note_off_c, 5, 40, 0
7, 10752, Note_on_c, 5, 52, 93
7, 11136, Note_off_c, 5, 52, 0
7, 11136, Note_on_c, 5, 40, 93
7, 11520, Note_off_c, 5, 40, 0
7, 11520, Note_on_c, 5, 40, 93
7, 11904, Note_off_c, 5, 40, 0
7, 11904, Note_on_c, 5, 40, 93
7, 12288, Note_off_c, 5, 40, 0
7, 13824, Note_on_c, 5, 40, 93
7, 14208, Note_off_c, 5, 40, 0
7, 14208, Note_on_c, 5, 40, 93
7, 14592, Note_off_c, 5, 40, 0
7, 14592, Note_on_c, 5, 40, 93
7, 14976, Note_off_c, 5, 40, 0
7, 14976, Note_on_c, 5, 40, 93
7, 15360, Note_off_c, 5, 40, 0
7, 15360, Note_on_c, 5, 45, 93
7, 15744, Note_off_c, 5, 45, 0
7, 15744, Note_on_c, 5, 45, 93
7, 16128, Note_off_c, 5, 45, 0
7, 16128, Note_on_c, 5, 45, 93
7, 16512, Note_off_c, 5, 45, 0
7, 16512, Note_on_c, 5, 45, 93
7, 16896, Note_off_c, 5, 45, 0
7, 16896, Note_on_c, 5, 50, 93
7, 17280, Note_off_c, 5, 50, 0
7, 17280, Note_on_c, 5, 50, 93
7, 17664, Note_off_c, 5, 50, 0
7, 17664, Note_on_c, 5, 48, 93
7, 18048, Note_off_c, 5, 48, 0
7, 18048, Note_on_c, 5, 43, 93
7, 18144, Note_off_c, 5, 43, 0
7, 18144, Note_on_c, 5, 45, 93
7, 18240, Note_off_c, 5, 45, 0
7, 18240, Note_on_c, 5, 40, 93
7, 18432, Note_off_c, 5, 40, 0
7, 18432, Note_on_c, 5, 52, 93
7, 18816, Note_off_c, 5, 52, 0
7, 18816, Note_on_c, 5, 40, 93
7, 19200, Note_off_c, 5, 40, 0
7, 19200, Note_on_c, 5, 40, 93
7, 19584, Note_off_c, 5, 40, 0
7, 19584, Note_on_c, 5, 52, 93
7, 19680, Note_off_c, 5, 52, 0
7, 19680, Note_on_c, 5, 40, 93
7, 19968, Note_off_c, 5, 40, 0
7, 19968, Note_on_c, 5, 33, 107
7, 20352, Note_off_c, 5, 33, 0
7, 20352, Note_on_c, 5, 33, 107
7, 20736, Note_off_c, 5, 33, 0
7, 20736, Note_on_c, 5, 33, 107
7, 21120, Note_off_c, 5, 33, 0
7, 21120, Note_on_c, 5, 33, 107
7, 21504, Note_off_c, 5, 33, 0
7, 21504, Note_on_c, 5, 33, 107
7, 21888, Note_off_c, 5, 33, 0
7, 21888, Note_on_c, 5, 33, 107
7, 22272, Note_off_c, 5, 33, 0
7, 22272, Note_on_c, 5, 33, 107
7, 22656, Note_off_c, 5, 33, 0
7, 22656, Note_on_c, 5, 33, 107
7, 23040, Note_off_c, 5, 33, 0
7, 23040, Note_on_c, 5, 40, 107
7, 23424, Note_off_c, 5, 40, 0
7, 23424, Note_on_c, 5, 40, 107
7, 23616, Note_off_c, 5, 40, 0
7, 23616, Note_on_c, 5, 40, 107
7, 23712, Note_off_c, 5, 40, 0
7, 23712, Note_on_c, 5, 38, 107
7, 23808, Note_off_c, 5, 38, 0
7, 23808, Note_on_c, 5, 36, 107
7, 24192, Note_off_c, 5, 36, 0
7, 24192, Note_on_c, 5, 36, 107
7, 24576, Note_off_c, 5, 36, 0
7, 24576, Note_on_c, 5, 38, 107
7, 24960, Note_off_c, 5, 38, 0
7, 24960, Note_on_c, 5, 38, 107
7, 25344, Note_off_c, 5, 38, 0
7, 25344, Note_on_c, 5, 38, 107
7, 25728, Note_off_c, 5, 38, 0
7, 25728, Note_on_c, 5, 38, 107
7, 26112, Note_off_c, 5, 38, 0
7, 26112, Note_on_c, 5, 33, 107
7, 26496, Note_off_c, 5, 33, 0
7, 26496, Note_on_c, 5, 33, 107
7, 26880, Note_off_c, 5, 33, 0
7, 26880, Note_on_c, 5, 33, 107
7, 27264, Note_off_c, 5, 33, 0
7, 27264, Note_on_c, 5, 33, 107
7, 27648, Note_off_c, 5, 33, 0
7, 27648, Note_on_c, 5, 33, 107
7, 28032, Note_off_c, 5, 33, 0
7, 28032, Note_on_c, 5, 33, 107
7, 28416, Note_off_c, 5, 33, 0
7, 28416, Note_on_c, 5, 33, 107
7, 28800, Note_off_c, 5, 33, 0
7, 28800, Note_on_c, 5, 33, 107
7, 29184, Note_off_c, 5, 33, 0
7, 29184, Note_on_c, 5, 40, 107
7, 29568, Note_off_c, 5, 40, 0
7, 29568, Note_on_c, 5, 40, 107
7, 29760, Note_off_c, 5, 40, 0
7, 29760, Note_on_c, 5, 40, 107
7, 29856, Note_off_c, 5, 40, 0
7, 29856, Note_on_c, 5, 38, 107
7, 29952, Note_off_c, 5, 38, 0
7, 29952, Note_on_c, 5, 36, 107
7, 30336, Note_off_c, 5, 36, 0
7, 30336, Note_on_c, 5, 36, 107
7, 30720, Note_off_c, 5, 36, 0
7, 30720, Note_on_c, 5, 38, 107
7, 31104, Note_off_c, 5, 38, 0
7, 31104, Note_on_c, 5, 38, 107
7, 31488, Note_off_c, 5, 38, 0
7, 31488, Note_on_c, 5, 38, 107
7, 31680, Note_off_c, 5, 38, 0
7, 31680, Note_on_c, 5, 38, 107
7, 31776, Note_off_c, 5, 38, 0
7, 31776, Note_on_c, 5, 38, 107
7, 31872, Note_off_c, 5, 38, 0
7, 31872, Note_on_c, 5, 38, 107
7, 31968, Note_off_c, 5, 38, 0
7, 31968, Note_on_c, 5, 38, 107
7, 32064, Note_off_c, 5, 38, 0
7, 32064, Note_on_c, 5, 38, 107
7, 32160, Note_off_c, 5, 38, 0
7, 32160, Note_on_c, 5, 38, 107
7, 32256, Note_off_c, 5, 38, 0
7, 32256, Note_on_c, 5, 40, 95
7, 33792, Note_off_c, 5, 40, 0
7, 33792, Note_on_c, 5, 40, 95
7, 34560, Note_off_c, 5, 40, 0
7, 34560, Note_on_c, 5, 40, 95
7, 35328, Note_off_c, 5, 40, 0
7, 35328, Note_on_c, 5, 40, 95
7, 35712, Note_off_c, 5, 40, 0
7, 35712, Note_on_c, 5, 40, 95
7, 36096, Note_off_c, 5, 40, 0
7, 36096, Note_on_c, 5, 40, 95
7, 36480, Note_off_c, 5, 40, 0
7, 36480, Note_on_c, 5, 40, 95
7, 36864, Note_off_c, 5, 40, 0
7, 36864, Note_on_c, 5, 55, 95
7, 36960, Note_off_c, 5, 55, 0
7, 36960, Note_on_c, 5, 52, 95
7, 37056, Note_off_c, 5, 52, 0
7, 37056, Note_on_c, 5, 50, 95
7, 37152, Note_off_c, 5, 50, 0
7, 37152, Note_on_c, 5, 47, 95
7, 37248, Note_off_c, 5, 47, 0
7, 37248, Note_on_c, 5, 43, 95
7, 37344, Note_off_c, 5, 43, 0
7, 37344, Note_on_c, 5, 40, 95
7, 37632, Note_off_c, 5, 40, 0
7, 37632, Note_on_c, 5, 40, 95
7, 37824, Note_off_c, 5, 40, 0
7, 38400, Note_on_c, 5, 40, 93
7, 38784, Note_off_c, 5, 40, 0
7, 38784, Note_on_c, 5, 40, 93
7, 39168, Note_off_c, 5, 40, 0
7, 39168, Note_on_c, 5, 40, 93
7, 39552, Note_off_c, 5, 40, 0
7, 39552, Note_on_c, 5, 40, 93
7, 39936, Note_off_c, 5, 40, 0
7, 39936, Note_on_c, 5, 45, 93
7, 40704, Note_off_c, 5, 45, 0
7, 40704, Note_on_c, 5, 45, 93
7, 41088, Note_off_c, 5, 45, 0
7, 41088, Note_on_c, 5, 45, 93
7, 41472, Note_off_c, 5, 45, 0
7, 41472, Note_on_c, 5, 50, 93
7, 41856, Note_off_c, 5, 50, 0
7, 41856, Note_on_c, 5, 50, 93
7, 42240, Note_off_c, 5, 50, 0
7, 42240, Note_on_c, 5, 48, 93
7, 42624, Note_off_c, 5, 48, 0
7, 42624, Note_on_c, 5, 43, 93
7, 42720, Note_off_c, 5, 43, 0
7, 42720, Note_on_c, 5, 45, 93
7, 42816, Note_off_c, 5, 45, 0
7, 42816, Note_on_c, 5, 40, 93
7, 43008, Note_off_c, 5, 40, 0
7, 43008, Note_on_c, 5, 52, 93
7, 43392, Note_off_c, 5, 52, 0
7, 43392, Note_on_c, 5, 40, 93
7, 43776, Note_off_c, 5, 40, 0
7, 43776, Note_on_c, 5, 40, 93
7, 44160, Note_off_c, 5, 40, 0
7, 44160, Note_on_c, 5, 40, 93
7, 44544, Note_off_c, 5, 40, 0
7, 46080, Note_on_c, 5, 40, 93
7, 46464, Note_off_c, 5, 40, 0
7, 46464, Note_on_c, 5, 40, 93
7, 46848, Note_off_c, 5, 40, 0
7, 46848, Note_on_c, 5, 40, 93
7, 47232, Note_off_c, 5, 40, 0
7, 47232, Note_on_c, 5, 40, 93
7, 47616, Note_off_c, 5, 40, 0
7, 47616, Note_on_c, 5, 45, 93
7, 48000, Note_off_c, 5, 45, 0
7, 48000, Note_on_c, 5, 45, 93
7, 48384, Note_off_c, 5, 45, 0
7, 48384, Note_on_c, 5, 45, 93
7, 48768, Note_off_c, 5, 45, 0
7, 48768, Note_on_c, 5, 45, 93
7, 49152, Note_off_c, 5, 45, 0
7, 49152, Note_on_c, 5, 50, 93
7, 49536, Note_off_c, 5, 50, 0
7, 49536, Note_on_c, 5, 50, 93
7, 49920, Note_off_c, 5, 50, 0
7, 49920, Note_on_c, 5, 48, 93
7, 50304, Note_off_c, 5, 48, 0
7, 50304, Note_on_c, 5, 43, 93
7, 50400, Note_off_c, 5, 43, 0
7, 50400, Note_on_c, 5, 45, 93
7, 50496, Note_off_c, 5, 45, 0
7, 50496, Note_on_c, 5, 40, 93
7, 50688, Note_off_c, 5, 40, 0
7, 50688, Note_on_c, 5, 52, 93
7, 51072, Note_off_c, 5, 52, 0
7, 51072, Note_on_c, 5, 40, 93
7, 51456, Note_off_c, 5, 40, 0
7, 51456, Note_on_c, 5, 40, 93
7, 51840, Note_off_c, 5, 40, 0
7, 51840, Note_on_c, 5, 40, 93
7, 52224, Note_off_c, 5, 40, 0
7, 52224, Note_on_c, 5, 40, 93
7, 52608, Note_off_c, 5, 40, 0
7, 52608, Note_on_c, 5, 40, 93
7, 52992, Note_off_c, 5, 40, 0
7, 52992, Note_on_c, 5, 40, 93
7, 53376, Note_off_c, 5, 40, 0
7, 53376, Note_on_c, 5, 40, 93
7, 53760, Note_off_c, 5, 40, 0
7, 53760, Note_on_c, 5, 45, 93
7, 54144, Note_off_c, 5, 45, 0
7, 54144, Note_on_c, 5, 45, 93
7, 54528, Note_off_c, 5, 45, 0
7, 54528, Note_on_c, 5, 45, 93
7, 54912, Note_off_c, 5, 45, 0
7, 54912, Note_on_c, 5, 45, 93
7, 55296, Note_off_c, 5, 45, 0
7, 55296, Note_on_c, 5, 50, 93
7, 55680, Note_off_c, 5, 50, 0
7, 55680, Note_on_c, 5, 50, 93
7, 56064, Note_off_c, 5, 50, 0
7, 56064, Note_on_c, 5, 48, 93
7, 56448, Note_off_c, 5, 48, 0
7, 56448, Note_on_c, 5, 43, 93
7, 56544, Note_off_c, 5, 43, 0
7, 56544, Note_on_c, 5, 45, 93
7, 56640, Note_off_c, 5, 45, 0
7, 56640, Note_on_c, 5, 40, 93
7, 56832, Note_off_c, 5, 40, 0
7, 56832, Note_on_c, 5, 52, 93
7, 57216, Note_off_c, 5, 52, 0
7, 57216, Note_on_c, 5, 40, 93
7, 57600, Note_off_c, 5, 40, 0
7, 57600, Note_on_c, 5, 40, 93
7, 57984, Note_off_c, 5, 40, 0
7, 57984, Note_on_c, 5, 52, 93
7, 58080, Note_off_c, 5, 52, 0
7, 58080, Note_on_c, 5, 40, 93
7, 58368, Note_off_c, 5, 40, 0
7, 58368, Note_on_c, 5, 33, 107
7, 58752, Note_off_c, 5, 33, 0
7, 58752, Note_on_c, 5, 33, 107
7, 59136, Note_off_c, 5, 33, 0
7, 59136, Note_on_c, 5, 33, 107
7, 59520, Note_off_c, 5, 33, 0
7, 59520, Note_on_c, 5, 33, 107
7, 59904, Note_off_c, 5, 33, 0
7, 59904, Note_on_c, 5, 33, 107
7, 60288, Note_off_c, 5, 33, 0
7, 60288, Note_on_c, 5, 33, 107
7, 60672, Note_off_c, 5, 33, 0
7, 60672, Note_on_c, 5, 33, 107
7, 61056, Note_off_c, 5, 33, 0
7, 61056, Note_on_c, 5, 33, 107
7, 61440, Note_off_c, 5, 33, 0
7, 61440, Note_on_c, 5, 40, 107
7, 61824, Note_off_c, 5, 40, 0
7, 61824, Note_on_c, 5, 40, 107
7, 62016, Note_off_c, 5, 40, 0
7, 62016, Note_on_c, 5, 40, 107
7, 62112, Note_off_c, 5, 40, 0
7, 62112, Note_on_c, 5, 38, 107
7, 62208, Note_off_c, 5, 38, 0
7, 62208, Note_on_c, 5, 36, 107
7, 62592, Note_off_c, 5, 36, 0
7, 62592, Note_on_c, 5, 36, 107
7, 62976, Note_off_c, 5, 36, 0
7, 62976, Note_on_c, 5, 38, 107
7, 63360, Note_off_c, 5, 38, 0
7, 63360, Note_on_c, 5, 38, 107
7, 63744, Note_off_c, 5, 38, 0
7, 63744, Note_on_c, 5, 38, 107
7, 64128, Note_off_c, 5, 38, 0
7, 64128, Note_on_c, 5, 38, 107
7, 64512, Note_off_c, 5, 38, 0
7, 64512, Note_on_c, 5, 33, 107
7, 64896, Note_off_c, 5, 33, 0
7, 64896, Note_on_c, 5, 33, 107
7, 65280, Note_off_c, 5, 33, 0
7, 65280, Note_on_c, 5, 33, 107
7, 65664, Note_off_c, 5, 33, 0
7, 65664, Note_on_c, 5, 33, 107
7, 66048, Note_off_c, 5, 33, 0
7, 66048, Note_on_c, 5, 33, 107
7, 66432, Note_off_c, 5, 33, 0
7, 66432, Note_on_c, 5, 33, 107
7, 66816, Note_off_c, 5, 33, 0
7, 66816, Note_on_c, 5, 33, 107
7, 67200, Note_off_c, 5, 33, 0
7, 67200, Note_on_c, 5, 33, 107
7, 67584, Note_off_c, 5, 33, 0
7, 67584, Note_on_c, 5, 40, 107
7, 67968, Note_off_c, 5, 40, 0
7, 67968, Note_on_c, 5, 40, 107
7, 68160, Note_off_c, 5, 40, 0
7, 68160, Note_on_c, 5, 40, 107
7, 68256, Note_off_c, 5, 40, 0
7, 68256, Note_on_c, 5, 38, 107
7, 68352, Note_off_c, 5, 38, 0
7, 68352, Note_on_c, 5, 36, 107
7, 68736, Note_off_c, 5, 36, 0
7, 68736, Note_on_c, 5, 36, 107
7, 69120, Note_off_c, 5, 36, 0
7, 69120, Note_on_c, 5, 38, 107
7, 69504, Note_off_c, 5, 38, 0
7, 69504, Note_on_c, 5, 38, 107
7, 69888, Note_off_c, 5, 38, 0
7, 69888, Note_on_c, 5, 38, 107
7, 70080, Note_off_c, 5, 38, 0
7, 70080, Note_on_c, 5, 38, 107
7, 70176, Note_off_c, 5, 38, 0
7, 70176, Note_on_c, 5, 38, 107
7, 70272, Note_off_c, 5, 38, 0
7, 70272, Note_on_c, 5, 38, 107
7, 70656, Note_off_c, 5, 38, 0
7, 70656, Note_on_c, 5, 33, 107
7, 71040, Note_off_c, 5, 33, 0
7, 71040, Note_on_c, 5, 33, 107
7, 71424, Note_off_c, 5, 33, 0
7, 71424, Note_on_c, 5, 33, 107
7, 71808, Note_off_c, 5, 33, 0
7, 71808, Note_on_c, 5, 33, 107
7, 72192, Note_off_c, 5, 33, 0
7, 72192, Note_on_c, 5, 33, 107
7, 72576, Note_off_c, 5, 33, 0
7, 72576, Note_on_c, 5, 33, 107
7, 72960, Note_off_c, 5, 33, 0
7, 72960, Note_on_c, 5, 33, 107
7, 73344, Note_off_c, 5, 33, 0
7, 73344, Note_on_c, 5, 33, 107
7, 73728, Note_off_c, 5, 33, 0
7, 73728, Note_on_c, 5, 40, 107
7, 74112, Note_off_c, 5, 40, 0
7, 74112, Note_on_c, 5, 40, 107
7, 74304, Note_off_c, 5, 40, 0
7, 74304, Note_on_c, 5, 40, 107
7, 74400, Note_off_c, 5, 40, 0
7, 74400, Note_on_c, 5, 38, 107
7, 74496, Note_off_c, 5, 38, 0
7, 74496, Note_on_c, 5, 36, 107
7, 74880, Note_off_c, 5, 36, 0
7, 74880, Note_on_c, 5, 36, 107
7, 75264, Note_off_c, 5, 36, 0
7, 75264, Note_on_c, 5, 38, 107
7, 75648, Note_off_c, 5, 38, 0
7, 75648, Note_on_c, 5, 38, 107
7, 76032, Note_off_c, 5, 38, 0
7, 76032, Note_on_c, 5, 38, 107
7, 76416, Note_off_c, 5, 38, 0
7, 76416, Note_on_c, 5, 38, 107
7, 76800, Note_off_c, 5, 38, 0
7, 76800, Note_on_c, 5, 40, 107
7, 78336, Note_off_c, 5, 40, 0
7, 79584, Note_on_c, 5, 45, 107
7, 79680, Note_off_c, 5, 45, 0
7, 79680, Note_on_c, 5, 45, 107
7, 79872, Note_off_c, 5, 45, 0
7, 79872, Note_on_c, 5, 40, 107
7, 81408, Note_off_c, 5, 40, 0
7, 81408, Note_on_c, 5, 40, 107
7, 82944, Note_off_c, 5, 40, 0
7, 82944, Note_on_c, 5, 40, 107
7, 83520, Note_off_c, 5, 40, 0
7, 83520, Note_on_c, 5, 40, 88
7, 83712, Note_off_c, 5, 40, 0
7, 83712, Note_on_c, 5, 52, 88
7, 83904, Note_off_c, 5, 52, 0
7, 83904, Note_on_c, 5, 40, 88
7, 84096, Note_off_c, 5, 40, 0
7, 84096, Note_on_c, 5, 52, 88
7, 84480, Note_off_c, 5, 52, 0
7, 84480, Note_on_c, 5, 33, 114
7, 85056, Note_off_c, 5, 33, 0
7, 85056, Note_on_c, 5, 33, 114
7, 85152, Note_off_c, 5, 33, 0
7, 85152, Note_on_c, 5, 35, 114
7, 85248, Note_off_c, 5, 35, 0
7, 85248, Note_on_c, 5, 36, 114
7, 85440, Note_off_c, 5, 36, 0
7, 85440, Note_on_c, 5, 35, 114
7, 85536, Note_off_c, 5, 35, 0
7, 85536, Note_on_c, 5, 33, 114
7, 85632, Note_off_c, 5, 33, 0
7, 85632, Note_on_c, 5, 31, 114
7, 85728, Note_off_c, 5, 31, 0
7, 85728, Note_on_c, 5, 33, 114
7, 85824, Note_off_c, 5, 33, 0
7, 85824, Note_on_c, 5, 35, 114
7, 86016, Note_off_c, 5, 35, 0
7, 86016, Note_on_c, 5, 28, 114
7, 87552, Note_off_c, 5, 28, 0
7, 87552, Note_on_c, 5, 33, 114
7, 88128, Note_off_c, 5, 33, 0
7, 88128, Note_on_c, 5, 33, 114
7, 88224, Note_off_c, 5, 33, 0
7, 88224, Note_on_c, 5, 35, 114
7, 88320, Note_off_c, 5, 35, 0
7, 88320, Note_on_c, 5, 36, 114
7, 88512, Note_off_c, 5, 36, 0
7, 88512, Note_on_c, 5, 35, 114
7, 88608, Note_off_c, 5, 35, 0
7, 88608, Note_on_c, 5, 33, 114
7, 88704, Note_off_c, 5, 33, 0
7, 88704, Note_on_c, 5, 31, 114
7, 88800, Note_off_c, 5, 31, 0
7, 88800, Note_on_c, 5, 33, 114
7, 88896, Note_off_c, 5, 33, 0
7, 88896, Note_on_c, 5, 35, 114
7, 89088, Note_off_c, 5, 35, 0
7, 89088, Note_on_c, 5, 28, 114
7, 90624, Note_off_c, 5, 28, 0
7, 90624, Note_on_c, 5, 33, 114
7, 91200, Note_off_c, 5, 33, 0
7, 91200, Note_on_c, 5, 33, 114
7, 91296, Note_off_c, 5, 33, 0
7, 91296, Note_on_c, 5, 35, 114
7, 91392, Note_off_c, 5, 35, 0
7, 91392, Note_on_c, 5, 36, 114
7, 91584, Note_off_c, 5, 36, 0
7, 91584, Note_on_c, 5, 35, 114
7, 91680, Note_off_c, 5, 35, 0
7, 91680, Note_on_c, 5, 33, 114
7, 91776, Note_off_c, 5, 33, 0
7, 91776, Note_on_c, 5, 31, 114
7, 91872, Note_off_c, 5, 31, 0
7, 91872, Note_on_c, 5, 33, 114
7, 91968, Note_off_c, 5, 33, 0
7, 91968, Note_on_c, 5, 35, 114
7, 92160, Note_off_c, 5, 35, 0
7, 92160, Note_on_c, 5, 28, 114
7, 93696, Note_off_c, 5, 28, 0
7, 93696, Note_on_c, 5, 33, 114
7, 94272, Note_off_c, 5, 33, 0
7, 94272, Note_on_c, 5, 33, 114
7, 94368, Note_off_c, 5, 33, 0
7, 94368, Note_on_c, 5, 35, 114
7, 94464, Note_off_c, 5, 35, 0
7, 94464, Note_on_c, 5, 36, 114
7, 94656, Note_off_c, 5, 36, 0
7, 94656, Note_on_c, 5, 35, 114
7, 94752, Note_off_c, 5, 35, 0
7, 94752, Note_on_c, 5, 33, 114
7, 94848, Note_off_c, 5, 33, 0
7, 94848, Note_on_c, 5, 31, 114
7, 94944, Note_off_c, 5, 31, 0
7, 94944, Note_on_c, 5, 33, 114
7, 95040, Note_off_c, 5, 33, 0
7, 95040, Note_on_c, 5, 35, 114
7, 95232, Note_off_c, 5, 35, 0
7, 95232, Note_on_c, 5, 28, 114
7, 96768, Note_off_c, 5, 28, 0
7, 96768, Note_on_c, 5, 33, 114
7, 97344, Note_off_c, 5, 33, 0
7, 97344, Note_on_c, 5, 33, 114
7, 97440, Note_off_c, 5, 33, 0
7, 97440, Note_on_c, 5, 35, 114
7, 97536, Note_off_c, 5, 35, 0
7, 97536, Note_on_c, 5, 36, 114
7, 97728, Note_off_c, 5, 36, 0
7, 97728, Note_on_c, 5, 35, 114
7, 97824, Note_off_c, 5, 35, 0
7, 97824, Note_on_c, 5, 33, 114
7, 97920, Note_off_c, 5, 33, 0
7, 97920, Note_on_c, 5, 31, 114
7, 98016, Note_off_c, 5, 31, 0
7, 98016, Note_on_c, 5, 33, 114
7, 98112, Note_off_c, 5, 33, 0
7, 98112, Note_on_c, 5, 35, 114
7, 98304, Note_off_c, 5, 35, 0
7, 98304, Note_on_c, 5, 28, 114
7, 99840, Note_off_c, 5, 28, 0
7, 99840, Note_on_c, 5, 33, 114
7, 100032, Note_off_c, 5, 33, 0
7, 100032, Note_on_c, 5, 33, 114
7, 100224, Note_off_c, 5, 33, 0
7, 100224, Note_on_c, 5, 33, 114
7, 100416, Note_off_c, 5, 33, 0
7, 100416, Note_on_c, 5, 33, 114
7, 100512, Note_off_c, 5, 33, 0
7, 100512, Note_on_c, 5, 35, 114
7, 100608, Note_off_c, 5, 35, 0
7, 100608, Note_on_c, 5, 36, 114
7, 100800, Note_off_c, 5, 36, 0
7, 100800, Note_on_c, 5, 35, 114
7, 100896, Note_off_c, 5, 35, 0
7, 100896, Note_on_c, 5, 33, 114
7, 100992, Note_off_c, 5, 33, 0
7, 100992, Note_on_c, 5, 31, 114
7, 101088, Note_off_c, 5, 31, 0
7, 101088, Note_on_c, 5, 33, 114
7, 101184, Note_off_c, 5, 33, 0
7, 101184, Note_on_c, 5, 35, 114
7, 101376, Note_off_c, 5, 35, 0
7, 101376, Note_on_c, 5, 28, 114
7, 101568, Note_off_c, 5, 28, 0
7, 101568, Note_on_c, 5, 28, 114
7, 101760, Note_off_c, 5, 28, 0
7, 101760, Note_on_c, 5, 28, 114
7, 101952, Note_off_c, 5, 28, 0
7, 101952, Note_on_c, 5, 28, 114
7, 102144, Note_off_c, 5, 28, 0
7, 102144, Note_on_c, 5, 28, 114
7, 102336, Note_off_c, 5, 28, 0
7, 102336, Note_on_c, 5, 28, 114
7, 102528, Note_off_c, 5, 28, 0
7, 102528, Note_on_c, 5, 28, 114
7, 102720, Note_off_c, 5, 28, 0
7, 102720, Note_on_c, 5, 28, 114
7, 102912, Note_off_c, 5, 28, 0
7, 102912, Note_on_c, 5, 33, 88
7, 103104, Note_off_c, 5, 33, 0
7, 103104, Note_on_c, 5, 33, 88
7, 103296, Note_off_c, 5, 33, 0
7, 103296, Note_on_c, 5, 33, 88
7, 103488, Note_off_c, 5, 33, 0
7, 103488, Note_on_c, 5, 33, 88
7, 103584, Note_off_c, 5, 33, 0
7, 103584, Note_on_c, 5, 35, 88
7, 103680, Note_off_c, 5, 35, 0
7, 103680, Note_on_c, 5, 36, 88
7, 103872, Note_off_c, 5, 36, 0
7, 103872, Note_on_c, 5, 35, 88
7, 103968, Note_off_c, 5, 35, 0
7, 103968, Note_on_c, 5, 33, 88
7, 104064, Note_off_c, 5, 33, 0
7, 104064, Note_on_c, 5, 31, 88
7, 104160, Note_off_c, 5, 31, 0
7, 104160, Note_on_c, 5, 33, 88
7, 104256, Note_off_c, 5, 33, 0
7, 104256, Note_on_c, 5, 35, 88
7, 104448, Note_off_c, 5, 35, 0
7, 104448, Note_on_c, 5, 28, 88
7, 104640, Note_off_c, 5, 28, 0
7, 104640, Note_on_c, 5, 28, 88
7, 104832, Note_off_c, 5, 28, 0
7, 104832, Note_on_c, 5, 28, 88
7, 105024, Note_off_c, 5, 28, 0
7, 105024, Note_on_c, 5, 28, 88
7, 105216, Note_off_c, 5, 28, 0
7, 105216, Note_on_c, 5, 28, 88
7, 105408, Note_off_c, 5, 28, 0
7, 105408, Note_on_c, 5, 28, 88
7, 105600, Note_off_c, 5, 28, 0
7, 105600, Note_on_c, 5, 28, 88
7, 105792, Note_off_c, 5, 28, 0
7, 105792, Note_on_c, 5, 28, 88
7, 105984, Note_off_c, 5, 28, 0
7, 105984, Note_on_c, 5, 33, 63
7, 106176, Note_off_c, 5, 33, 0
7, 106176, Note_on_c, 5, 33, 63
7, 106368, Note_off_c, 5, 33, 0
7, 106368, Note_on_c, 5, 33, 63
7, 106560, Note_off_c, 5, 33, 0
7, 106560, Note_on_c, 5, 33, 63
7, 106656, Note_off_c, 5, 33, 0
7, 106656, Note_on_c, 5, 35, 63
7, 106752, Note_off_c, 5, 35, 0
7, 106752, Note_on_c, 5, 36, 63
7, 106944, Note_off_c, 5, 36, 0
7, 106944, Note_on_c, 5, 35, 63
7, 107040, Note_off_c, 5, 35, 0
7, 107040, Note_on_c, 5, 33, 63
7, 107136, Note_off_c, 5, 33, 0
7, 107136, Note_on_c, 5, 31, 63
7, 107232, Note_off_c, 5, 31, 0
7, 107232, Note_on_c, 5, 33, 63
7, 107328, Note_off_c, 5, 33, 0
7, 107328, Note_on_c, 5, 35, 63
7, 107520, Note_off_c, 5, 35, 0
7, 107520, Note_on_c, 5, 28, 63
7, 107712, Note_off_c, 5, 28, 0
7, 107712, Note_on_c, 5, 28, 63
7, 107904, Note_off_c, 5, 28, 0
7, 107904, Note_on_c, 5, 28, 63
7, 108096, Note_off_c, 5, 28, 0
7, 108096, Note_on_c, 5, 28, 63
7, 108288, Note_off_c, 5, 28, 0
7, 108288, Note_on_c, 5, 28, 63
7, 108480, Note_off_c, 5, 28, 0
7, 108480, Note_on_c, 5, 28, 63
7, 108672, Note_off_c, 5, 28, 0
7, 108672, Note_on_c, 5, 28, 63
7, 108864, Note_off_c, 5, 28, 0
7, 108864, Note_on_c, 5, 28, 63
7, 109056, Note_off_c, 5, 28, 0
7, 109056, Note_on_c, 5, 33, 38
7, 109248, Note_off_c, 5, 33, 0
7, 109248, Note_on_c, 5, 33, 38
7, 109440, Note_off_c, 5, 33, 0
7, 109440, Note_on_c, 5, 33, 38
7, 109632, Note_off_c, 5, 33, 0
7, 109632, Note_on_c, 5, 33, 38
7, 109728, Note_off_c, 5, 33, 0
7, 109728, Note_on_c, 5, 35, 38
7, 109824, Note_off_c, 5, 35, 0
7, 109824, Note_on_c, 5, 36, 38
7, 110016, Note_off_c, 5, 36, 0
7, 110016, Note_on_c, 5, 35, 38
7, 110112, Note_off_c, 5, 35, 0
7, 110112, Note_on_c, 5, 33, 38
7, 110208, Note_off_c, 5, 33, 0
7, 110208, Note_on_c, 5, 31, 38
7, 110304, Note_off_c, 5, 31, 0
7, 110304, Note_on_c, 5, 33, 38
7, 110400, Note_off_c, 5, 33, 0
7, 110400, Note_on_c, 5, 35, 38
7, 110592, Note_off_c, 5, 35, 0
7, 110592, Note_on_c, 5, 28, 38
7, 110784, Note_off_c, 5, 28, 0
7, 110784, Note_on_c, 5, 28, 38
7, 110976, Note_off_c, 5, 28, 0
7, 110976, Note_on_c, 5, 28, 38
7, 111168, Note_off_c, 5, 28, 0
7, 111168, Note_on_c, 5, 28, 38
7, 111360, Note_off_c, 5, 28, 0
7, 111360, Note_on_c, 5, 28, 38
7, 111552, Note_off_c, 5, 28, 0
7, 111552, Note_on_c, 5, 28, 38
7, 111744, Note_off_c, 5, 28, 0
7, 111744, Note_on_c, 5, 28, 38
7, 111936, Note_off_c, 5, 28, 0
7, 111936, Note_on_c, 5, 28, 38
7, 112128, Note_off_c, 5, 28, 0
7, 112128, End_track
8, 0, Start_track
8, 0, Title_t, "BDRUM "
8, 0, Key_signature, 0, "major"
8, 0, Pitch_bend_c, 9, 8192
8, 0, Note_on_c, 9, 36, 114
8, 384, Note_off_c, 9, 36, 0
8, 384, Note_on_c, 9, 36, 114
8, 768, Note_off_c, 9, 36, 0
8, 768, Note_on_c, 9, 36, 114
8, 1152, Note_off_c, 9, 36, 0
8, 1152, Note_on_c, 9, 36, 114
8, 1536, Note_off_c, 9, 36, 0
8, 1536, Note_on_c, 9, 36, 114
8, 1920, Note_off_c, 9, 36, 0
8, 1920, Note_on_c, 9, 36, 114
8, 2304, Note_off_c, 9, 36, 0
8, 2304, Note_on_c, 9, 36, 114
8, 2688, Note_off_c, 9, 36, 0
8, 2688, Note_on_c, 9, 36, 114
8, 3072, Note_off_c, 9, 36, 0
8, 3072, Note_on_c, 9, 36, 114
8, 3456, Note_off_c, 9, 36, 0
8, 3456, Note_on_c, 9, 36, 114
8, 3840, Note_off_c, 9, 36, 0
8, 3840, Note_on_c, 9, 36, 114
8, 4224, Note_off_c, 9, 36, 0
8, 4224, Note_on_c, 9, 36, 114
8, 4608, Note_off_c, 9, 36, 0
8, 4608, Note_on_c, 9, 36, 114
8, 4704, Note_off_c, 9, 36, 0
8, 4992, Note_on_c, 9, 36, 114
8, 5088, Note_off_c, 9, 36, 0
8, 5376, Note_on_c, 9, 36, 127
8, 5472, Note_off_c, 9, 36, 0
8, 6144, Note_on_c, 9, 36, 114
8, 6528, Note_off_c, 9, 36, 0
8, 6528, Note_on_c, 9, 36, 114
8, 6912, Note_off_c, 9, 36, 0
8, 6912, Note_on_c, 9, 36, 114
8, 7296, Note_off_c, 9, 36, 0
8, 7296, Note_on_c, 9, 36, 114
8, 7680, Note_off_c, 9, 36, 0
8, 7680, Note_on_c, 9, 36, 114
8, 8064, Note_off_c, 9, 36, 0
8, 8064, Note_on_c, 9, 36, 114
8, 8448, Note_off_c, 9, 36, 0
8, 8448, Note_on_c, 9, 36, 114
8, 8832, Note_off_c, 9, 36, 0
8, 8832, Note_on_c, 9, 36, 114
8, 9216, Note_off_c, 9, 36, 0
8, 9216, Note_on_c, 9, 36, 114
8, 9600, Note_off_c, 9, 36, 0
8, 9600, Note_on_c, 9, 36, 114
8, 9984, Note_off_c, 9, 36, 0
8, 9984, Note_on_c, 9, 36, 114
8, 10368, Note_off_c, 9, 36, 0
8, 10368, Note_on_c, 9, 36, 114
8, 10752, Note_off_c, 9, 36, 0
8, 10752, Note_on_c, 9, 36, 114
8, 11136, Note_off_c, 9, 36, 0
8, 11136, Note_on_c, 9, 36, 114
8, 11520, Note_off_c, 9, 36, 0
8, 11520, Note_on_c, 9, 36, 114
8, 11904, Note_off_c, 9, 36, 0
8, 11904, Note_on_c, 9, 36, 114
8, 12288, Note_off_c, 9, 36, 0
8, 13824, Note_on_c, 9, 36, 114
8, 14208, Note_off_c, 9, 36, 0
8, 14208, Note_on_c, 9, 36, 114
8, 14592, Note_off_c, 9, 36, 0
8, 14592, Note_on_c, 9, 36, 114
8, 14976, Note_off_c, 9, 36, 0
8, 14976, Note_on_c, 9, 36, 114
8, 15360, Note_off_c, 9, 36, 0
8, 15360, Note_on_c, 9, 36, 114
8, 15744, Note_off_c, 9, 36, 0
8, 15744, Note_on_c, 9, 36, 114
8, 16128, Note_off_c, 9, 36, 0
8, 16128, Note_on_c, 9, 36, 114
8, 16512, Note_off_c, 9, 36, 0
8, 16512, Note_on_c, 9, 36, 114
8, 16896, Note_off_c, 9, 36, 0
8, 16896, Note_on_c, 9, 36, 114
8, 17280, Note_off_c, 9, 36, 0
8, 17280, Note_on_c, 9, 36, 114
8, 17664, Note_off_c, 9, 36, 0
8, 17664, Note_on_c, 9, 36, 114
8, 18048, Note_off_c, 9, 36, 0
8, 18048, Note_on_c, 9, 36, 114
8, 18432, Note_off_c, 9, 36, 0
8, 18432, Note_on_c, 9, 36, 127
8, 18816, Note_off_c, 9, 36, 0
8, 18816, Note_on_c, 9, 36, 127
8, 19200, Note_off_c, 9, 36, 0
8, 19200, Note_on_c, 9, 36, 127
8, 19584, Note_off_c, 9, 36, 0
8, 19584, Note_on_c, 9, 36, 127
8, 19680, Note_off_c, 9, 36, 0
8, 19680, Note_on_c, 9, 36, 127
8, 19776, Note_off_c, 9, 36, 0
8, 19776, Note_on_c, 9, 36, 127
8, 19872, Note_off_c, 9, 36, 0
8, 19872, Note_on_c, 9, 36, 127
8, 19968, Note_off_c, 9, 36, 0
8, 19968, Note_on_c, 9, 36, 127
8, 20352, Note_off_c, 9, 36, 0
8, 20352, Note_on_c, 9, 36, 127
8, 20736, Note_off_c, 9, 36, 0
8, 20736, Note_on_c, 9, 36, 127
8, 21120, Note_off_c, 9, 36, 0
8, 21120, Note_on_c, 9, 36, 127
8, 21504, Note_off_c, 9, 36, 0
8, 21504, Note_on_c, 9, 36, 127
8, 21888, Note_off_c, 9, 36, 0
8, 21888, Note_on_c, 9, 36, 127
8, 22272, Note_off_c, 9, 36, 0
8, 22272, Note_on_c, 9, 36, 127
8, 22656, Note_off_c, 9, 36, 0
8, 22656, Note_on_c, 9, 36, 127
8, 23040, Note_off_c, 9, 36, 0
8, 23040, Note_on_c, 9, 36, 127
8, 23424, Note_off_c, 9, 36, 0
8, 23424, Note_on_c, 9, 36, 127
8, 23808, Note_off_c, 9, 36, 0
8, 23808, Note_on_c, 9, 36, 127
8, 24192, Note_off_c, 9, 36, 0
8, 24192, Note_on_c, 9, 36, 127
8, 24384, Note_off_c, 9, 36, 0
8, 24384, Note_on_c, 9, 36, 127
8, 24576, Note_off_c, 9, 36, 0
8, 24576, Note_on_c, 9, 36, 127
8, 24960, Note_off_c, 9, 36, 0
8, 24960, Note_on_c, 9, 36, 127
8, 25344, Note_off_c, 9, 36, 0
8, 25344, Note_on_c, 9, 36, 127
8, 25440, Note_off_c, 9, 36, 0
8, 25440, Note_on_c, 9, 36, 127
8, 25536, Note_off_c, 9, 36, 0
8, 25536, Note_on_c, 9, 36, 127
8, 25632, Note_off_c, 9, 36, 0
8, 25632, Note_on_c, 9, 36, 127
8, 25728, Note_off_c, 9, 36, 0
8, 25728, Note_on_c, 9, 36, 127
8, 25824, Note_off_c, 9, 36, 0
8, 25824, Note_on_c, 9, 36, 127
8, 25920, Note_off_c, 9, 36, 0
8, 25920, Note_on_c, 9, 36, 127
8, 26016, Note_off_c, 9, 36, 0
8, 26016, Note_on_c, 9, 36, 127
8, 26112, Note_off_c, 9, 36, 0
8, 26112, Note_on_c, 9, 36, 127
8, 26496, Note_off_c, 9, 36, 0
8, 26496, Note_on_c, 9, 36, 127
8, 26880, Note_off_c, 9, 36, 0
8, 26880, Note_on_c, 9, 36, 127
8, 27264, Note_off_c, 9, 36, 0
8, 27264, Note_on_c, 9, 36, 127
8, 27648, Note_off_c, 9, 36, 0
8, 27648, Note_on_c, 9, 36, 127
8, 28032, Note_off_c, 9, 36, 0
8, 28032, Note_on_c, 9, 36, 127
8, 28416, Note_off_c, 9, 36, 0
8, 28416, Note_on_c, 9, 36, 127
8, 28800, Note_off_c, 9, 36, 0
8, 28800, Note_on_c, 9, 36, 127
8, 29184, Note_off_c, 9, 36, 0
8, 29184, Note_on_c, 9, 36, 127
8, 29568, Note_off_c, 9, 36, 0
8, 29568, Note_on_c, 9, 36, 127
8, 29952, Note_off_c, 9, 36, 0
8, 29952, Note_on_c, 9, 36, 127
8, 30336, Note_off_c, 9, 36, 0
8, 30336, Note_on_c, 9, 36, 127
8, 30720, Note_off_c, 9, 36, 0
8, 30720, Note_on_c, 9, 36, 127
8, 31104, Note_off_c, 9, 36, 0
8, 31104, Note_on_c, 9, 36, 127
8, 31488, Note_off_c, 9, 36, 0
8, 31488, Note_on_c, 9, 36, 127
8, 31584, Note_off_c, 9, 36, 0
8, 31584, Note_on_c, 9, 36, 127
8, 31680, Note_off_c, 9, 36, 0
8, 31680, Note_on_c, 9, 36, 127
8, 31776, Note_off_c, 9, 36, 0
8, 31776, Note_on_c, 9, 36, 127
8, 31872, Note_off_c, 9, 36, 0
8, 31872, Note_on_c, 9, 36, 127
8, 31968, Note_off_c, 9, 36, 0
8, 31968, Note_on_c, 9, 36, 127
8, 32064, Note_off_c, 9, 36, 0
8, 32064, Note_on_c, 9, 36, 127
8, 32160, Note_off_c, 9, 36, 0
8, 32160, Note_on_c, 9, 36, 127
8, 32256, Note_off_c, 9, 36, 0
8, 38400, Note_on_c, 9, 36, 114
8, 38784, Note_off_c, 9, 36, 0
8, 38784, Note_on_c, 9, 36, 114
8, 39168, Note_off_c, 9, 36, 0
8, 39168, Note_on_c, 9, 36, 114
8, 39552, Note_off_c, 9, 36, 0
8, 39552, Note_on_c, 9, 36, 114
8, 39936, Note_off_c, 9, 36, 0
8, 39936, Note_on_c, 9, 36, 114
8, 40320, Note_off_c, 9, 36, 0
8, 40320, Note_on_c, 9, 36, 114
8, 40704, Note_off_c, 9, 36, 0
8, 40704, Note_on_c, 9, 36, 114
8, 41088, Note_off_c, 9, 36, 0
8, 41088, Note_on_c, 9, 36, 114
8, 41472, Note_off_c, 9, 36, 0
8, 41472, Note_on_c, 9, 36, 114
8, 41856, Note_off_c, 9, 36, 0
8, 41856, Note_on_c, 9, 36, 114
8, 42240, Note_off_c, 9, 36, 0
8, 42240, Note_on_c, 9, 36, 114
8, 42624, Note_off_c, 9, 36, 0
8, 42624, Note_on_c, 9, 36, 114
8, 43008, Note_off_c, 9, 36, 0
8, 43008, Note_on_c, 9, 36, 114
8, 43392, Note_off_c, 9, 36, 0
8, 43392, Note_on_c, 9, 36, 114
8, 43776, Note_off_c, 9, 36, 0
8, 43776, Note_on_c, 9, 36, 114
8, 44160, Note_off_c, 9, 36, 0
8, 44160, Note_on_c, 9, 36, 114
8, 44544, Note_off_c, 9, 36, 0
8, 46080, Note_on_c, 9, 36, 114
8, 46464, Note_off_c, 9, 36, 0
8, 46464, Note_on_c, 9, 36, 114
8, 46848, Note_off_c, 9, 36, 0
8, 46848, Note_on_c, 9, 36, 114
8, 47232, Note_off_c, 9, 36, 0
8, 47232, Note_on_c, 9, 36, 114
8, 47616, Note_off_c, 9, 36, 0
8, 47616, Note_on_c, 9, 36, 114
8, 48000, Note_off_c, 9, 36, 0
8, 48000, Note_on_c, 9, 36, 114
8, 48384, Note_off_c, 9, 36, 0
8, 48384, Note_on_c, 9, 36, 114
8, 48768, Note_off_c, 9, 36, 0
8, 48768, Note_on_c, 9, 36, 114
8, 49152, Note_off_c, 9, 36, 0
8, 49152, Note_on_c, 9, 36, 114
8, 49536, Note_off_c, 9, 36, 0
8, 49536, Note_on_c, 9, 36, 114
8, 49920, Note_off_c, 9, 36, 0
8, 49920, Note_on_c, 9, 36, 114
8, 50304, Note_off_c, 9, 36, 0
8, 50304, Note_on_c, 9, 36, 114
8, 50688, Note_off_c, 9, 36, 0
8, 50688, Note_on_c, 9, 36, 114
8, 51072, Note_off_c, 9, 36, 0
8, 51072, Note_on_c, 9, 36, 114
8, 51456, Note_off_c, 9, 36, 0
8, 51456, Note_on_c, 9, 36, 114
8, 51840, Note_off_c, 9, 36, 0
8, 51840, Note_on_c, 9, 36, 114
8, 52224, Note_off_c, 9, 36, 0
8, 52224, Note_on_c, 9, 36, 114
8, 52608, Note_off_c, 9, 36, 0
8, 52608, Note_on_c, 9, 36, 114
8, 52992, Note_off_c, 9, 36, 0
8, 52992, Note_on_c, 9, 36, 114
8, 53376, Note_off_c, 9, 36, 0
8, 53376, Note_on_c, 9, 36, 114
8, 53760, Note_off_c, 9, 36, 0
8, 53760, Note_on_c, 9, 36, 114
8, 54144, Note_off_c, 9, 36, 0
8, 54144, Note_on_c, 9, 36, 114
8, 54528, Note_off_c, 9, 36, 0
8, 54528, Note_on_c, 9, 36, 114
8, 54912, Note_off_c, 9, 36, 0
8, 54912, Note_on_c, 9, 36, 114
8, 55296, Note_off_c, 9, 36, 0
8, 55296, Note_on_c, 9, 36, 114
8, 55680, Note_off_c, 9, 36, 0
8, 55680, Note_on_c, 9, 36, 114
8, 56064, Note_off_c, 9, 36, 0
8, 56064, Note_on_c, 9, 36, 114
8, 56448, Note_off_c, 9, 36, 0
8, 56448, Note_on_c, 9, 36, 114
8, 56832, Note_off_c, 9, 36, 0
8, 56832, Note_on_c, 9, 36, 127
8, 57216, Note_off_c, 9, 36, 0
8, 57216, Note_on_c, 9, 36, 127
8, 57600, Note_off_c, 9, 36, 0
8, 57600, Note_on_c, 9, 36, 127
8, 57984, Note_off_c, 9, 36, 0
8, 57984, Note_on_c, 9, 36, 127
8, 58080, Note_off_c, 9, 36, 0
8, 58080, Note_on_c, 9, 36, 127
8, 58176, Note_off_c, 9, 36, 0
8, 58176, Note_on_c, 9, 36, 127
8, 58272, Note_off_c, 9, 36, 0
8, 58272, Note_on_c, 9, 36, 127
8, 58368, Note_off_c, 9, 36, 0
8, 58368, Note_on_c, 9, 36, 127
8, 58752, Note_off_c, 9, 36, 0
8, 58752, Note_on_c, 9, 36, 127
8, 59136, Note_off_c, 9, 36, 0
8, 59136, Note_on_c, 9, 36, 127
8, 59520, Note_off_c, 9, 36, 0
8, 59520, Note_on_c, 9, 36, 127
8, 59904, Note_off_c, 9, 36, 0
8, 59904, Note_on_c, 9, 36, 127
8, 60288, Note_off_c, 9, 36, 0
8, 60288, Note_on_c, 9, 36, 127
8, 60672, Note_off_c, 9, 36, 0
8, 60672, Note_on_c, 9, 36, 127
8, 61056, Note_off_c, 9, 36, 0
8, 61056, Note_on_c, 9, 36, 127
8, 61440, Note_off_c, 9, 36, 0
8, 61440, Note_on_c, 9, 36, 127
8, 61824, Note_off_c, 9, 36, 0
8, 61824, Note_on_c, 9, 36, 127
8, 62208, Note_off_c, 9, 36, 0
8, 62208, Note_on_c, 9, 36, 127
8, 62592, Note_off_c, 9, 36, 0
8, 62592, Note_on_c, 9, 36, 127
8, 62784, Note_off_c, 9, 36, 0
8, 62784, Note_on_c, 9, 36, 127
8, 62976, Note_off_c, 9, 36, 0
8, 62976, Note_on_c, 9, 36, 127
8, 63360, Note_off_c, 9, 36, 0
8, 63360, Note_on_c, 9, 36, 127
8, 63744, Note_off_c, 9, 36, 0
8, 63744, Note_on_c, 9, 36, 127
8, 63840, Note_off_c, 9, 36, 0
8, 63840, Note_on_c, 9, 36, 127
8, 63936, Note_off_c, 9, 36, 0
8, 63936, Note_on_c, 9, 36, 127
8, 64032, Note_off_c, 9, 36, 0
8, 64032, Note_on_c, 9, 36, 127
8, 64128, Note_off_c, 9, 36, 0
8, 64128, Note_on_c, 9, 36, 127
8, 64224, Note_off_c, 9, 36, 0
8, 64224, Note_on_c, 9, 36, 127
8, 64320, Note_off_c, 9, 36, 0
8, 64320, Note_on_c, 9, 36, 127
8, 64416, Note_off_c, 9, 36, 0
8, 64416, Note_on_c, 9, 36, 127
8, 64512, Note_off_c, 9, 36, 0
8, 64512, Note_on_c, 9, 36, 127
8, 64896, Note_off_c, 9, 36, 0
8, 64896, Note_on_c, 9, 36, 127
8, 65280, Note_off_c, 9, 36, 0
8, 65280, Note_on_c, 9, 36, 127
8, 65664, Note_off_c, 9, 36, 0
8, 65664, Note_on_c, 9, 36, 127
8, 66048, Note_off_c, 9, 36, 0
8, 66048, Note_on_c, 9, 36, 127
8, 66432, Note_off_c, 9, 36, 0
8, 66432, Note_on_c, 9, 36, 127
8, 66816, Note_off_c, 9, 36, 0
8, 66816, Note_on_c, 9, 36, 127
8, 67200, Note_off_c, 9, 36, 0
8, 67200, Note_on_c, 9, 36, 127
8, 67584, Note_off_c, 9, 36, 0
8, 67584, Note_on_c, 9, 36, 127
8, 67968, Note_off_c, 9, 36, 0
8, 67968, Note_on_c, 9, 36, 127
8, 68352, Note_off_c, 9, 36, 0
8, 68352, Note_on_c, 9, 36, 127
8, 68736, Note_off_c, 9, 36, 0
8, 68736, Note_on_c, 9, 36, 127
8, 69120, Note_off_c, 9, 36, 0
8, 69120, Note_on_c, 9, 36, 127
8, 69504, Note_off_c, 9, 36, 0
8, 69504, Note_on_c, 9, 36, 127
8, 69600, Note_off_c, 9, 36, 0
8, 69600, Note_on_c, 9, 36, 127
8, 69696, Note_off_c, 9, 36, 0
8, 69696, Note_on_c, 9, 36, 127
8, 69792, Note_off_c, 9, 36, 0
8, 69792, Note_on_c, 9, 36, 127
8, 69888, Note_off_c, 9, 36, 0
8, 69888, Note_on_c, 9, 36, 127
8, 70272, Note_off_c, 9, 36, 0
8, 70272, Note_on_c, 9, 36, 127
8, 70656, Note_off_c, 9, 36, 0
8, 70656, Note_on_c, 9, 36, 127
8, 71040, Note_off_c, 9, 36, 0
8, 71040, Note_on_c, 9, 36, 127
8, 71424, Note_off_c, 9, 36, 0
8, 71424, Note_on_c, 9, 36, 127
8, 71808, Note_off_c, 9, 36, 0
8, 71808, Note_on_c, 9, 36, 127
8, 72192, Note_off_c, 9, 36, 0
8, 72192, Note_on_c, 9, 36, 127
8, 72576, Note_off_c, 9, 36, 0
8, 72576, Note_on_c, 9, 36, 127
8, 72960, Note_off_c, 9, 36, 0
8, 72960, Note_on_c, 9, 36, 127
8, 73344, Note_off_c, 9, 36, 0
8, 73344, Note_on_c, 9, 36, 127
8, 73728, Note_off_c, 9, 36, 0
8, 73728, Note_on_c, 9, 36, 127
8, 74112, Note_off_c, 9, 36, 0
8, 74112, Note_on_c, 9, 36, 127
8, 74496, Note_off_c, 9, 36, 0
8, 74496, Note_on_c, 9, 36, 127
8, 74880, Note_off_c, 9, 36, 0
8, 74880, Note_on_c, 9, 36, 127
8, 75264, Note_off_c, 9, 36, 0
8, 75264, Note_on_c, 9, 36, 127
8, 75360, Note_off_c, 9, 36, 0
8, 75360, Note_on_c, 9, 36, 127
8, 75456, Note_off_c, 9, 36, 0
8, 75456, Note_on_c, 9, 36, 127
8, 75552, Note_off_c, 9, 36, 0
8, 75552, Note_on_c, 9, 36, 127
8, 75648, Note_off_c, 9, 36, 0
8, 75648, Note_on_c, 9, 36, 127
8, 75744, Note_off_c, 9, 36, 0
8, 75744, Note_on_c, 9, 36, 127
8, 75840, Note_off_c, 9, 36, 0
8, 75840, Note_on_c, 9, 36, 127
8, 75936, Note_off_c, 9, 36, 0
8, 75936, Note_on_c, 9, 36, 127
8, 76032, Note_off_c, 9, 36, 0
8, 76032, Note_on_c, 9, 36, 127
8, 76128, Note_off_c, 9, 36, 0
8, 76128, Note_on_c, 9, 36, 127
8, 76224, Note_off_c, 9, 36, 0
8, 76224, Note_on_c, 9, 36, 127
8, 76320, Note_off_c, 9, 36, 0
8, 76320, Note_on_c, 9, 36, 127
8, 76416, Note_off_c, 9, 36, 0
8, 76416, Note_on_c, 9, 36, 127
8, 76512, Note_off_c, 9, 36, 0
8, 76512, Note_on_c, 9, 36, 127
8, 76608, Note_off_c, 9, 36, 0
8, 76608, Note_on_c, 9, 36, 127
8, 76704, Note_off_c, 9, 36, 0
8, 76704, Note_on_c, 9, 36, 127
8, 76800, Note_off_c, 9, 36, 0
8, 76800, End_track
9, 0, Start_track
9, 0, Title_t, "SNARE1 "
9, 0, Key_signature, 0, "major"
9, 0, Pitch_bend_c, 9, 8192
9, 77952, Note_on_c, 9, 38, 95
9, 78048, Note_off_c, 9, 38, 0
9, 78048, Note_on_c, 9, 38, 95
9, 78144, Note_off_c, 9, 38, 0
9, 78144, Note_on_c, 9, 38, 95
9, 78240, Note_off_c, 9, 38, 0
9, 78240, Note_on_c, 9, 38, 95
9, 78336, Note_off_c, 9, 38, 0
9, 86784, Note_on_c, 9, 38, 25
9, 86880, Note_off_c, 9, 38, 0
9, 86880, Note_on_c, 9, 38, 25
9, 86976, Note_off_c, 9, 38, 0
9, 86976, Note_on_c, 9, 38, 25
9, 87072, Note_off_c, 9, 38, 0
9, 87072, Note_on_c, 9, 38, 25
9, 87168, Note_off_c, 9, 38, 0
9, 87168, Note_on_c, 9, 38, 29
9, 87264, Note_off_c, 9, 38, 0
9, 87264, Note_on_c, 9, 38, 29
9, 87360, Note_off_c, 9, 38, 0
9, 87360, Note_on_c, 9, 38, 29
9, 87456, Note_off_c, 9, 38, 0
9, 87456, Note_on_c, 9, 38, 29
9, 87552, Note_off_c, 9, 38, 0
9, 87552, Note_on_c, 9, 38, 33
9, 87648, Note_off_c, 9, 38, 0
9, 87648, Note_on_c, 9, 38, 33
9, 87744, Note_off_c, 9, 38, 0
9, 87744, Note_on_c, 9, 38, 33
9, 87840, Note_off_c, 9, 38, 0
9, 87840, Note_on_c, 9, 38, 33
9, 87936, Note_off_c, 9, 38, 0
9, 87936, Note_on_c, 9, 38, 36
9, 88032, Note_off_c, 9, 38, 0
9, 88032, Note_on_c, 9, 38, 36
9, 88128, Note_off_c, 9, 38, 0
9, 88128, Note_on_c, 9, 38, 36
9, 88224, Note_off_c, 9, 38, 0
9, 88224, Note_on_c, 9, 38, 36
9, 88320, Note_off_c, 9, 38, 0
9, 88320, Note_on_c, 9, 38, 40
9, 88416, Note_off_c, 9, 38, 0
9, 88416, Note_on_c, 9, 38, 40
9, 88512, Note_off_c, 9, 38, 0
9, 88512, Note_on_c, 9, 38, 40
9, 88608, Note_off_c, 9, 38, 0
9, 88608, Note_on_c, 9, 38, 40
9, 88704, Note_off_c, 9, 38, 0
9, 88704, Note_on_c, 9, 38, 44
9, 88800, Note_off_c, 9, 38, 0
9, 88800, Note_on_c, 9, 38, 44
9, 88896, Note_off_c, 9, 38, 0
9, 88896, Note_on_c, 9, 38, 44
9, 88992, Note_off_c, 9, 38, 0
9, 88992, Note_on_c, 9, 38, 44
9, 89088, Note_off_c, 9, 38, 0
9, 89088, Note_on_c, 9, 38, 48
9, 89184, Note_off_c, 9, 38, 0
9, 89184, Note_on_c, 9, 38, 48
9, 89280, Note_off_c, 9, 38, 0
9, 89280, Note_on_c, 9, 38, 48
9, 89376, Note_off_c, 9, 38, 0
9, 89376, Note_on_c, 9, 38, 48
9, 89472, Note_off_c, 9, 38, 0
9, 89472, Note_on_c, 9, 38, 52
9, 89568, Note_off_c, 9, 38, 0
9, 89568, Note_on_c, 9, 38, 52
9, 89664, Note_off_c, 9, 38, 0
9, 89664, Note_on_c, 9, 38, 52
9, 89760, Note_off_c, 9, 38, 0
9, 89760, Note_on_c, 9, 38, 52
9, 89856, Note_off_c, 9, 38, 0
9, 89856, Note_on_c, 9, 38, 55
9, 89952, Note_off_c, 9, 38, 0
9, 89952, Note_on_c, 9, 38, 55
9, 90048, Note_off_c, 9, 38, 0
9, 90048, Note_on_c, 9, 38, 55
9, 90144, Note_off_c, 9, 38, 0
9, 90144, Note_on_c, 9, 38, 55
9, 90240, Note_off_c, 9, 38, 0
9, 90240, Note_on_c, 9, 38, 59
9, 90336, Note_off_c, 9, 38, 0
9, 90336, Note_on_c, 9, 38, 59
9, 90432, Note_off_c, 9, 38, 0
9, 90432, Note_on_c, 9, 38, 59
9, 90528, Note_off_c, 9, 38, 0
9, 90528, Note_on_c, 9, 38, 59
9, 90624, Note_off_c, 9, 38, 0
9, 90624, Note_on_c, 9, 38, 64
9, 90720, Note_off_c, 9, 38, 0
9, 90720, Note_on_c, 9, 38, 64
9, 90816, Note_off_c, 9, 38, 0
9, 90816, Note_on_c, 9, 38, 64
9, 90912, Note_off_c, 9, 38, 0
9, 90912, Note_on_c, 9, 38, 64
9, 91008, Note_off_c, 9, 38, 0
9, 91008, Note_on_c, 9, 38, 68
9, 91104, Note_off_c, 9, 38, 0
9, 91104, Note_on_c, 9, 38, 68
9, 91200, Note_off_c, 9, 38, 0
9, 91200, Note_on_c, 9, 38, 68
9, 91296, Note_off_c, 9, 38, 0
9, 91296, Note_on_c, 9, 38, 68
9, 91392, Note_off_c, 9, 38, 0
9, 91392, Note_on_c, 9, 38, 71
9, 91488, Note_off_c, 9, 38, 0
9, 91488, Note_on_c, 9, 38, 71
9, 91584, Note_off_c, 9, 38, 0
9, 91584, Note_on_c, 9, 38, 71
9, 91680, Note_off_c, 9, 38, 0
9, 91680, Note_on_c, 9, 38, 71
9, 91776, Note_off_c, 9, 38, 0
9, 91776, Note_on_c, 9, 38, 73
9, 91872, Note_off_c, 9, 38, 0
9, 91872, Note_on_c, 9, 38, 73
9, 91968, Note_off_c, 9, 38, 0
9, 91968, Note_on_c, 9, 38, 73
9, 92064, Note_off_c, 9, 38, 0
9, 92064, Note_on_c, 9, 38, 73
9, 92160, Note_off_c, 9, 38, 0
9, 92160, Note_on_c, 9, 38, 76
9, 92256, Note_off_c, 9, 38, 0
9, 92256, Note_on_c, 9, 38, 76
9, 92352, Note_off_c, 9, 38, 0
9, 92352, Note_on_c, 9, 38, 76
9, 92448, Note_off_c, 9, 38, 0
9, 92448, Note_on_c, 9, 38, 76
9, 92544, Note_off_c, 9, 38, 0
9, 92544, Note_on_c, 9, 38, 78
9, 92640, Note_off_c, 9, 38, 0
9, 92640, Note_on_c, 9, 38, 78
9, 92736, Note_off_c, 9, 38, 0
9, 92736, Note_on_c, 9, 38, 78
9, 92832, Note_off_c, 9, 38, 0
9, 92832, Note_on_c, 9, 38, 78
9, 92928, Note_off_c, 9, 38, 0
9, 92928, Note_on_c, 9, 38, 81
9, 93024, Note_off_c, 9, 38, 0
9, 93024, Note_on_c, 9, 38, 81
9, 93120, Note_off_c, 9, 38, 0
9, 93120, Note_on_c, 9, 38, 81
9, 93216, Note_off_c, 9, 38, 0
9, 93216, Note_on_c, 9, 38, 81
9, 93312, Note_off_c, 9, 38, 0
9, 93312, Note_on_c, 9, 38, 83
9, 93408, Note_off_c, 9, 38, 0
9, 93408, Note_on_c, 9, 38, 83
9, 93504, Note_off_c, 9, 38, 0
9, 93504, Note_on_c, 9, 38, 83
9, 93600, Note_off_c, 9, 38, 0
9, 93600, Note_on_c, 9, 38, 83
9, 93696, Note_off_c, 9, 38, 0
9, 93696, Note_on_c, 9, 38, 86
9, 93792, Note_off_c, 9, 38, 0
9, 93792, Note_on_c, 9, 38, 86
9, 93888, Note_off_c, 9, 38, 0
9, 93888, Note_on_c, 9, 38, 86
9, 93984, Note_off_c, 9, 38, 0
9, 93984, Note_on_c, 9, 38, 86
9, 94080, Note_off_c, 9, 38, 0
9, 94080, Note_on_c, 9, 38, 88
9, 94176, Note_off_c, 9, 38, 0
9, 94176, Note_on_c, 9, 38, 88
9, 94272, Note_off_c, 9, 38, 0
9, 94272, Note_on_c, 9, 38, 88
9, 94368, Note_off_c, 9, 38, 0
9, 94368, Note_on_c, 9, 38, 88
9, 94464, Note_off_c, 9, 38, 0
9, 94464, Note_on_c, 9, 38, 91
9, 94560, Note_off_c, 9, 38, 0
9, 94560, Note_on_c, 9, 38, 91
9, 94656, Note_off_c, 9, 38, 0
9, 94656, Note_on_c, 9, 38, 91
9, 94752, Note_off_c, 9, 38, 0
9, 94752, Note_on_c, 9, 38, 91
9, 94848, Note_off_c, 9, 38, 0
9, 94848, Note_on_c, 9, 38, 93
9, 94944, Note_off_c, 9, 38, 0
9, 94944, Note_on_c, 9, 38, 93
9, 95040, Note_off_c, 9, 38, 0
9, 95040, Note_on_c, 9, 38, 93
9, 95136, Note_off_c, 9, 38, 0
9, 95136, Note_on_c, 9, 38, 93
9, 95232, Note_off_c, 9, 38, 0
9, 95232, Note_on_c, 9, 38, 97
9, 95328, Note_off_c, 9, 38, 0
9, 95328, Note_on_c, 9, 38, 97
9, 95424, Note_off_c, 9, 38, 0
9, 95424, Note_on_c, 9, 38, 97
9, 95520, Note_off_c, 9, 38, 0
9, 95520, Note_on_c, 9, 38, 97
9, 95616, Note_off_c, 9, 38, 0
9, 95616, Note_on_c, 9, 38, 101
9, 95712, Note_off_c, 9, 38, 0
9, 95712, Note_on_c, 9, 38, 101
9, 95808, Note_off_c, 9, 38, 0
9, 95808, Note_on_c, 9, 38, 101
9, 95904, Note_off_c, 9, 38, 0
9, 95904, Note_on_c, 9, 38, 101
9, 96000, Note_off_c, 9, 38, 0
9, 96000, Note_on_c, 9, 38, 106
9, 96096, Note_off_c, 9, 38, 0
9, 96096, Note_on_c, 9, 38, 106
9, 96192, Note_off_c, 9, 38, 0
9, 96192, Note_on_c, 9, 38, 106
9, 96288, Note_off_c, 9, 38, 0
9, 96288, Note_on_c, 9, 38, 106
9, 96384, Note_off_c, 9, 38, 0
9, 96384, Note_on_c, 9, 38, 110
9, 96480, Note_off_c, 9, 38, 0
9, 96480, Note_on_c, 9, 38, 110
9, 96576, Note_off_c, 9, 38, 0
9, 96576, Note_on_c, 9, 38, 110
9, 96672, Note_off_c, 9, 38, 0
9, 96672, Note_on_c, 9, 38, 110
9, 96768, Note_off_c, 9, 38, 0
9, 96768, Note_on_c, 9, 38, 114
9, 96864, Note_off_c, 9, 38, 0
9, 96864, Note_on_c, 9, 38, 114
9, 96960, Note_off_c, 9, 38, 0
9, 96960, Note_on_c, 9, 38, 114
9, 97056, Note_off_c, 9, 38, 0
9, 97056, Note_on_c, 9, 38, 114
9, 97152, Note_off_c, 9, 38, 0
9, 97152, Note_on_c, 9, 38, 118
9, 97248, Note_off_c, 9, 38, 0
9, 97248, Note_on_c, 9, 38, 118
9, 97344, Note_off_c, 9, 38, 0
9, 97344, Note_on_c, 9, 38, 118
9, 97440, Note_off_c, 9, 38, 0
9, 97440, Note_on_c, 9, 38, 118
9, 97536, Note_off_c, 9, 38, 0
9, 97536, Note_on_c, 9, 38, 121
9, 97632, Note_off_c, 9, 38, 0
9, 97632, Note_on_c, 9, 38, 121
9, 97728, Note_off_c, 9, 38, 0
9, 97728, Note_on_c, 9, 38, 121
9, 97824, Note_off_c, 9, 38, 0
9, 97824, Note_on_c, 9, 38, 121
9, 97920, Note_off_c, 9, 38, 0
9, 97920, Note_on_c, 9, 38, 127
9, 98016, Note_off_c, 9, 38, 0
9, 98016, Note_on_c, 9, 38, 127
9, 98112, Note_off_c, 9, 38, 0
9, 98112, Note_on_c, 9, 38, 127
9, 98208, Note_off_c, 9, 38, 0
9, 98208, Note_on_c, 9, 38, 127
9, 98304, Note_off_c, 9, 38, 0
9, 98304, Note_on_c, 9, 38, 127
9, 98400, Note_off_c, 9, 38, 0
9, 98400, Note_on_c, 9, 38, 127
9, 98496, Note_off_c, 9, 38, 0
9, 98496, Note_on_c, 9, 38, 127
9, 98592, Note_off_c, 9, 38, 0
9, 98592, Note_on_c, 9, 38, 127
9, 98688, Note_off_c, 9, 38, 0
9, 98688, Note_on_c, 9, 38, 127
9, 98784, Note_off_c, 9, 38, 0
9, 98784, Note_on_c, 9, 38, 127
9, 98880, Note_off_c, 9, 38, 0
9, 98880, Note_on_c, 9, 38, 127
9, 98976, Note_off_c, 9, 38, 0
9, 98976, Note_on_c, 9, 38, 127
9, 99072, Note_off_c, 9, 38, 0
9, 99072, Note_on_c, 9, 38, 127
9, 99168, Note_off_c, 9, 38, 0
9, 99168, Note_on_c, 9, 38, 127
9, 99264, Note_off_c, 9, 38, 0
9, 99264, Note_on_c, 9, 38, 127
9, 99360, Note_off_c, 9, 38, 0
9, 99360, Note_on_c, 9, 38, 127
9, 99456, Note_off_c, 9, 38, 0
9, 99456, Note_on_c, 9, 38, 127
9, 99552, Note_off_c, 9, 38, 0
9, 99552, Note_on_c, 9, 38, 127
9, 99648, Note_off_c, 9, 38, 0
9, 99648, Note_on_c, 9, 38, 127
9, 99744, Note_off_c, 9, 38, 0
9, 99744, Note_on_c, 9, 38, 127
9, 99840, Note_off_c, 9, 38, 0
9, 99840, Note_on_c, 9, 38, 101
9, 99936, Note_off_c, 9, 38, 0
9, 99936, Note_on_c, 9, 38, 101
9, 100032, Note_off_c, 9, 38, 0
9, 100032, Note_on_c, 9, 38, 101
9, 100128, Note_off_c, 9, 38, 0
9, 100128, Note_on_c, 9, 38, 101
9, 100224, Note_off_c, 9, 38, 0
9, 100224, Note_on_c, 9, 38, 101
9, 100320, Note_off_c, 9, 38, 0
9, 100320, Note_on_c, 9, 38, 101
9, 100416, Note_off_c, 9, 38, 0
9, 100416, Note_on_c, 9, 38, 101
9, 100512, Note_off_c, 9, 38, 0
9, 100512, Note_on_c, 9, 38, 101
9, 100608, Note_off_c, 9, 38, 0
9, 100608, Note_on_c, 9, 38, 101
9, 100704, Note_off_c, 9, 38, 0
9, 100704, Note_on_c, 9, 38, 101
9, 100800, Note_off_c, 9, 38, 0
9, 100800, Note_on_c, 9, 38, 101
9, 100896, Note_off_c, 9, 38, 0
9, 100896, Note_on_c, 9, 38, 101
9, 100992, Note_off_c, 9, 38, 0
9, 100992, Note_on_c, 9, 38, 101
9, 101088, Note_off_c, 9, 38, 0
9, 101088, Note_on_c, 9, 38, 101
9, 101184, Note_off_c, 9, 38, 0
9, 101184, Note_on_c, 9, 38, 101
9, 101280, Note_off_c, 9, 38, 0
9, 101280, Note_on_c, 9, 38, 101
9, 101376, Note_off_c, 9, 38, 0
9, 101376, Note_on_c, 9, 38, 101
9, 101472, Note_off_c, 9, 38, 0
9, 101472, Note_on_c, 9, 38, 101
9, 101568, Note_off_c, 9, 38, 0
9, 101568, Note_on_c, 9, 38, 101
9, 101664, Note_off_c, 9, 38, 0
9, 101664, Note_on_c, 9, 38, 101
9, 101760, Note_off_c, 9, 38, 0
9, 101760, Note_on_c, 9, 38, 101
9, 101856, Note_off_c, 9, 38, 0
9, 101856, Note_on_c, 9, 38, 101
9, 101952, Note_off_c, 9, 38, 0
9, 101952, Note_on_c, 9, 38, 101
9, 102048, Note_off_c, 9, 38, 0
9, 102048, Note_on_c, 9, 38, 101
9, 102144, Note_off_c, 9, 38, 0
9, 102144, Note_on_c, 9, 38, 101
9, 102240, Note_off_c, 9, 38, 0
9, 102240, Note_on_c, 9, 38, 101
9, 102336, Note_off_c, 9, 38, 0
9, 102336, Note_on_c, 9, 38, 101
9, 102432, Note_off_c, 9, 38, 0
9, 102432, Note_on_c, 9, 38, 101
9, 102528, Note_off_c, 9, 38, 0
9, 102528, Note_on_c, 9, 38, 101
9, 102624, Note_off_c, 9, 38, 0
9, 102624, Note_on_c, 9, 38, 101
9, 102720, Note_off_c, 9, 38, 0
9, 102720, Note_on_c, 9, 38, 101
9, 102816, Note_off_c, 9, 38, 0
9, 102816, Note_on_c, 9, 38, 101
9, 102912, Note_off_c, 9, 38, 0
9, 102912, Note_on_c, 9, 38, 76
9, 103008, Note_off_c, 9, 38, 0
9, 103008, Note_on_c, 9, 38, 76
9, 103104, Note_off_c, 9, 38, 0
9, 103104, Note_on_c, 9, 38, 76
9, 103200, Note_off_c, 9, 38, 0
9, 103200, Note_on_c, 9, 38, 76
9, 103296, Note_off_c, 9, 38, 0
9, 103296, Note_on_c, 9, 38, 76
9, 103392, Note_off_c, 9, 38, 0
9, 103392, Note_on_c, 9, 38, 76
9, 103488, Note_off_c, 9, 38, 0
9, 103488, Note_on_c, 9, 38, 76
9, 103584, Note_off_c, 9, 38, 0
9, 103584, Note_on_c, 9, 38, 76
9, 103680, Note_off_c, 9, 38, 0
9, 103680, Note_on_c, 9, 38, 76
9, 103776, Note_off_c, 9, 38, 0
9, 103776, Note_on_c, 9, 38, 76
9, 103872, Note_off_c, 9, 38, 0
9, 103872, Note_on_c, 9, 38, 76
9, 103968, Note_off_c, 9, 38, 0
9, 103968, Note_on_c, 9, 38, 76
9, 104064, Note_off_c, 9, 38, 0
9, 104064, Note_on_c, 9, 38, 76
9, 104160, Note_off_c, 9, 38, 0
9, 104160, Note_on_c, 9, 38, 76
9, 104256, Note_off_c, 9, 38, 0
9, 104256, Note_on_c, 9, 38, 76
9, 104352, Note_off_c, 9, 38, 0
9, 104352, Note_on_c, 9, 38, 76
9, 104448, Note_off_c, 9, 38, 0
9, 104448, Note_on_c, 9, 38, 76
9, 104544, Note_off_c, 9, 38, 0
9, 104544, Note_on_c, 9, 38, 76
9, 104640, Note_off_c, 9, 38, 0
9, 104640, Note_on_c, 9, 38, 76
9, 104736, Note_off_c, 9, 38, 0
9, 104736, Note_on_c, 9, 38, 76
9, 104832, Note_off_c, 9, 38, 0
9, 104832, Note_on_c, 9, 38, 76
9, 104928, Note_off_c, 9, 38, 0
9, 104928, Note_on_c, 9, 38, 76
9, 105024, Note_off_c, 9, 38, 0
9, 105024, Note_on_c, 9, 38, 76
9, 105120, Note_off_c, 9, 38, 0
9, 105120, Note_on_c, 9, 38, 76
9, 105216, Note_off_c, 9, 38, 0
9, 105216, Note_on_c, 9, 38, 76
9, 105312, Note_off_c, 9, 38, 0
9, 105312, Note_on_c, 9, 38, 76
9, 105408, Note_off_c, 9, 38, 0
9, 105408, Note_on_c, 9, 38, 76
9, 105504, Note_off_c, 9, 38, 0
9, 105504, Note_on_c, 9, 38, 76
9, 105600, Note_off_c, 9, 38, 0
9, 105600, Note_on_c, 9, 38, 76
9, 105696, Note_off_c, 9, 38, 0
9, 105696, Note_on_c, 9, 38, 76
9, 105792, Note_off_c, 9, 38, 0
9, 105792, Note_on_c, 9, 38, 76
9, 105888, Note_off_c, 9, 38, 0
9, 105888, Note_on_c, 9, 38, 76
9, 105984, Note_off_c, 9, 38, 0
9, 105984, Note_on_c, 9, 38, 50
9, 106080, Note_off_c, 9, 38, 0
9, 106080, Note_on_c, 9, 38, 50
9, 106176, Note_off_c, 9, 38, 0
9, 106176, Note_on_c, 9, 38, 50
9, 106272, Note_off_c, 9, 38, 0
9, 106272, Note_on_c, 9, 38, 50
9, 106368, Note_off_c, 9, 38, 0
9, 106368, Note_on_c, 9, 38, 50
9, 106464, Note_off_c, 9, 38, 0
9, 106464, Note_on_c, 9, 38, 50
9, 106560, Note_off_c, 9, 38, 0
9, 106560, Note_on_c, 9, 38, 50
9, 106656, Note_off_c, 9, 38, 0
9, 106656, Note_on_c, 9, 38, 50
9, 106752, Note_off_c, 9, 38, 0
9, 106752, Note_on_c, 9, 38, 50
9, 106848, Note_off_c, 9, 38, 0
9, 106848, Note_on_c, 9, 38, 50
9, 106944, Note_off_c, 9, 38, 0
9, 106944, Note_on_c, 9, 38, 50
9, 107040, Note_off_c, 9, 38, 0
9, 107040, Note_on_c, 9, 38, 50
9, 107136, Note_off_c, 9, 38, 0
9, 107136, Note_on_c, 9, 38, 50
9, 107232, Note_off_c, 9, 38, 0
9, 107232, Note_on_c, 9, 38, 50
9, 107328, Note_off_c, 9, 38, 0
9, 107328, Note_on_c, 9, 38, 50
9, 107424, Note_off_c, 9, 38, 0
9, 107424, Note_on_c, 9, 38, 50
9, 107520, Note_off_c, 9, 38, 0
9, 107520, Note_on_c, 9, 38, 50
9, 107616, Note_off_c, 9, 38, 0
9, 107616, Note_on_c, 9, 38, 50
9, 107712, Note_off_c, 9, 38, 0
9, 107712, Note_on_c, 9, 38, 50
9, 107808, Note_off_c, 9, 38, 0
9, 107808, Note_on_c, 9, 38, 50
9, 107904, Note_off_c, 9, 38, 0
9, 107904, Note_on_c, 9, 38, 50
9, 108000, Note_off_c, 9, 38, 0
9, 108000, Note_on_c, 9, 38, 50
9, 108096, Note_off_c, 9, 38, 0
9, 108096, Note_on_c, 9, 38, 50
9, 108192, Note_off_c, 9, 38, 0
9, 108192, Note_on_c, 9, 38, 50
9, 108288, Note_off_c, 9, 38, 0
9, 108288, Note_on_c, 9, 38, 50
9, 108384, Note_off_c, 9, 38, 0
9, 108384, Note_on_c, 9, 38, 50
9, 108480, Note_off_c, 9, 38, 0
9, 108480, Note_on_c, 9, 38, 50
9, 108576, Note_off_c, 9, 38, 0
9, 108576, Note_on_c, 9, 38, 50
9, 108672, Note_off_c, 9, 38, 0
9, 108672, Note_on_c, 9, 38, 50
9, 108768, Note_off_c, 9, 38, 0
9, 108768, Note_on_c, 9, 38, 50
9, 108864, Note_off_c, 9, 38, 0
9, 108864, Note_on_c, 9, 38, 50
9, 108960, Note_off_c, 9, 38, 0
9, 108960, Note_on_c, 9, 38, 50
9, 109056, Note_off_c, 9, 38, 0
9, 109056, Note_on_c, 9, 38, 25
9, 109152, Note_off_c, 9, 38, 0
9, 109152, Note_on_c, 9, 38, 25
9, 109248, Note_off_c, 9, 38, 0
9, 109248, Note_on_c, 9, 38, 25
9, 109344, Note_off_c, 9, 38, 0
9, 109344, Note_on_c, 9, 38, 25
9, 109440, Note_off_c, 9, 38, 0
9, 109440, Note_on_c, 9, 38, 25
9, 109536, Note_off_c, 9, 38, 0
9, 109536, Note_on_c, 9, 38, 25
9, 109632, Note_off_c, 9, 38, 0
9, 109632, Note_on_c, 9, 38, 25
9, 109728, Note_off_c, 9, 38, 0
9, 109728, Note_on_c, 9, 38, 25
9, 109824, Note_off_c, 9, 38, 0
9, 109824, Note_on_c, 9, 38, 25
9, 109920, Note_off_c, 9, 38, 0
9, 109920, Note_on_c, 9, 38, 25
9, 110016, Note_off_c, 9, 38, 0
9, 110016, Note_on_c, 9, 38, 25
9, 110112, Note_off_c, 9, 38, 0
9, 110112, Note_on_c, 9, 38, 25
9, 110208, Note_off_c, 9, 38, 0
9, 110208, Note_on_c, 9, 38, 25
9, 110304, Note_off_c, 9, 38, 0
9, 110304, Note_on_c, 9, 38, 25
9, 110400, Note_off_c, 9, 38, 0
9, 110400, Note_on_c, 9, 38, 25
9, 110496, Note_off_c, 9, 38, 0
9, 110496, Note_on_c, 9, 38, 25
9, 110592, Note_off_c, 9, 38, 0
9, 110592, Note_on_c, 9, 38, 25
9, 110688, Note_off_c, 9, 38, 0
9, 110688, Note_on_c, 9, 38, 25
9, 110784, Note_off_c, 9, 38, 0
9, 110784, Note_on_c, 9, 38, 25
9, 110880, Note_off_c, 9, 38, 0
9, 110880, Note_on_c, 9, 38, 25
9, 110976, Note_off_c, 9, 38, 0
9, 110976, Note_on_c, 9, 38, 25
9, 111072, Note_off_c, 9, 38, 0
9, 111072, Note_on_c, 9, 38, 25
9, 111168, Note_off_c, 9, 38, 0
9, 111168, Note_on_c, 9, 38, 25
9, 111264, Note_off_c, 9, 38, 0
9, 111264, Note_on_c, 9, 38, 25
9, 111360, Note_off_c, 9, 38, 0
9, 111360, Note_on_c, 9, 38, 25
9, 111456, Note_off_c, 9, 38, 0
9, 111456, Note_on_c, 9, 38, 25
9, 111552, Note_off_c, 9, 38, 0
9, 111552, Note_on_c, 9, 38, 25
9, 111648, Note_off_c, 9, 38, 0
9, 111648, Note_on_c, 9, 38, 25
9, 111744, Note_off_c, 9, 38, 0
9, 111744, Note_on_c, 9, 38, 25
9, 111840, Note_off_c, 9, 38, 0
9, 111840, Note_on_c, 9, 38, 25
9, 111936, Note_off_c, 9, 38, 0
9, 111936, Note_on_c, 9, 38, 25
9, 112032, Note_off_c, 9, 38, 0
9, 112032, Note_on_c, 9, 38, 25
9, 112128, Note_off_c, 9, 38, 0
9, 112128, End_track
10, 0, Start_track
10, 0, Title_t, "HIHAT1 "
10, 0, Key_signature, 0, "major"
10, 0, Pitch_bend_c, 9, 8192
10, 5376, Note_on_c, 9, 42, 127
10, 5472, Note_off_c, 9, 42, 0
10, 10368, Note_on_c, 9, 42, 63
10, 10464, Note_off_c, 9, 42, 0
10, 10560, Note_on_c, 9, 42, 63
10, 10656, Note_off_c, 9, 42, 0
10, 37632, Note_on_c, 9, 42, 63
10, 37824, Note_off_c, 9, 42, 0
10, 42624, Note_on_c, 9, 42, 63
10, 42720, Note_off_c, 9, 42, 0
10, 42816, Note_on_c, 9, 42, 63
10, 42912, Note_off_c, 9, 42, 0
10, 79008, Note_on_c, 9, 42, 63
10, 79392, Note_off_c, 9, 42, 0
10, 80544, Note_on_c, 9, 42, 63
10, 80928, Note_off_c, 9, 42, 0
10, 80928, End_track
0, 0, End_of_file
