0, 0, Header, 1, 7, 192
1, 0, Start_track
1, 0, Title_t, "Cheap Day Return"
1, 0, Text_t, "By Ian Anderson"
1, 0, Copyright_t, "Adam Bodkin & Michael Wroblewski"
1, 0, Text_t, "Generated by NoteWorthy Composer"
1, 0, Tempo, 705882
1, 0, Key_signature, 2, "major"
1, 0, Time_signature, 4, 2, 24, 8
1, 6912, Tempo, 750000
1, 7440, Tempo, 857142
1, 7449, Tempo, 882352
1, 7459, Tempo, 909090
1, 7468, Tempo, 937500
1, 7478, Tempo, 967741
1, 7488, Tempo, 1000000
1, 7497, Tempo, 1034482
1, 7507, Tempo, 1071428
1, 7516, Tempo, 1111111
1, 7526, Tempo, 1153846
1, 7536, Tempo, 1200000
1, 7542, Tempo, 1250000
1, 7549, Tempo, 1304347
1, 7556, Tempo, 1363636
1, 7563, Tempo, 1428571
1, 7570, Tempo, 1500000
1, 7577, Tempo, 1578947
1, 7584, Tempo, 1714285
1, 7680, Tempo, 705882
1, 17664, Time_signature, 6, 3, 24, 8
1, 17664, End_track
2, 0, Start_track
2, 0, MIDI_port, 0
2, 0, Title_t, "Melody"
2, 0, Program_c, 2, 48
2, 0, Control_c, 2, 7, 127
2, 0, Control_c, 2, 10, 64
2, 8544, Note_on_c, 2, 71, 110
2, 8638, Note_on_c, 2, 71, 0
2, 8640, Note_on_c, 2, 72, 110
2, 8734, Note_on_c, 2, 72, 0
2, 8736, Note_on_c, 2, 71, 110
2, 8782, Note_on_c, 2, 71, 0
2, 8784, Note_on_c, 2, 69, 110
2, 8830, Note_on_c, 2, 69, 0
2, 8880, Note_on_c, 2, 66, 110
2, 8928, Note_on_c, 2, 66, 0
2, 8928, Note_on_c, 2, 64, 110
2, 9022, Note_on_c, 2, 64, 0
2, 9072, Note_on_c, 2, 62, 110
2, 9118, Note_on_c, 2, 62, 0
2, 9120, Note_on_c, 2, 64, 110
2, 9166, Note_on_c, 2, 64, 0
2, 9168, Note_on_c, 2, 66, 110
2, 9262, Note_on_c, 2, 66, 0
2, 9264, Note_on_c, 2, 69, 110
2, 9406, Note_on_c, 2, 69, 0
2, 9408, Note_on_c, 2, 69, 110
2, 9454, Note_on_c, 2, 69, 0
2, 9456, Note_on_c, 2, 66, 110
2, 9550, Note_on_c, 2, 66, 0
2, 9552, Note_on_c, 2, 64, 110
2, 9646, Note_on_c, 2, 64, 0
2, 9648, Note_on_c, 2, 62, 110
2, 9742, Note_on_c, 2, 62, 0
2, 9744, Note_on_c, 2, 64, 110
2, 9838, Note_on_c, 2, 64, 0
2, 9840, Note_on_c, 2, 59, 110
2, 9886, Note_on_c, 2, 59, 0
2, 10080, Note_on_c, 2, 71, 110
2, 10126, Note_on_c, 2, 71, 0
2, 10128, Note_on_c, 2, 71, 110
2, 10174, Note_on_c, 2, 71, 0
2, 10176, Note_on_c, 2, 71, 110
2, 10198, Note_on_c, 2, 71, 0
2, 10200, Note_on_c, 2, 72, 110
2, 10270, Note_on_c, 2, 72, 0
2, 10272, Note_on_c, 2, 71, 110
2, 10318, Note_on_c, 2, 71, 0
2, 10320, Note_on_c, 2, 69, 110
2, 10368, Note_on_c, 2, 69, 0
2, 10368, Note_on_c, 2, 69, 110
2, 10414, Note_on_c, 2, 69, 0
2, 10416, Note_on_c, 2, 66, 110
2, 10462, Note_on_c, 2, 66, 0
2, 10464, Note_on_c, 2, 64, 110
2, 10510, Note_on_c, 2, 64, 0
2, 10512, Note_on_c, 2, 62, 110
2, 10558, Note_on_c, 2, 62, 0
2, 10656, Note_on_c, 2, 64, 110
2, 10750, Note_on_c, 2, 64, 0
2, 10752, Note_on_c, 2, 64, 110
2, 10798, Note_on_c, 2, 64, 0
2, 10800, Note_on_c, 2, 69, 110
2, 10894, Note_on_c, 2, 69, 0
2, 10896, Note_on_c, 2, 69, 110
2, 10990, Note_on_c, 2, 69, 0
2, 10992, Note_on_c, 2, 69, 110
2, 11014, Note_on_c, 2, 69, 0
2, 11016, Note_on_c, 2, 71, 110
2, 11086, Note_on_c, 2, 71, 0
2, 11088, Note_on_c, 2, 71, 110
2, 11182, Note_on_c, 2, 71, 0
2, 11184, Note_on_c, 2, 69, 110
2, 11230, Note_on_c, 2, 69, 0
2, 11232, Note_on_c, 2, 68, 110
2, 11278, Note_on_c, 2, 68, 0
2, 11280, Note_on_c, 2, 66, 110
2, 11326, Note_on_c, 2, 66, 0
2, 11328, Note_on_c, 2, 64, 110
2, 11422, Note_on_c, 2, 64, 0
2, 11568, Note_on_c, 2, 71, 110
2, 11614, Note_on_c, 2, 71, 0
2, 11616, Note_on_c, 2, 71, 110
2, 11662, Note_on_c, 2, 71, 0
2, 11664, Note_on_c, 2, 71, 110
2, 11710, Note_on_c, 2, 71, 0
2, 11712, Note_on_c, 2, 72, 110
2, 11806, Note_on_c, 2, 72, 0
2, 11808, Note_on_c, 2, 71, 110
2, 11854, Note_on_c, 2, 71, 0
2, 11856, Note_on_c, 2, 69, 110
2, 11950, Note_on_c, 2, 69, 0
2, 11952, Note_on_c, 2, 66, 110
2, 12000, Note_on_c, 2, 66, 0
2, 12000, Note_on_c, 2, 64, 110
2, 12094, Note_on_c, 2, 64, 0
2, 12144, Note_on_c, 2, 62, 110
2, 12190, Note_on_c, 2, 62, 0
2, 12192, Note_on_c, 2, 64, 110
2, 12238, Note_on_c, 2, 64, 0
2, 12240, Note_on_c, 2, 66, 110
2, 12334, Note_on_c, 2, 66, 0
2, 12336, Note_on_c, 2, 69, 110
2, 12430, Note_on_c, 2, 69, 0
2, 12432, Note_on_c, 2, 69, 110
2, 12526, Note_on_c, 2, 69, 0
2, 12528, Note_on_c, 2, 66, 110
2, 12622, Note_on_c, 2, 66, 0
2, 12624, Note_on_c, 2, 64, 110
2, 12720, Note_on_c, 2, 64, 0
2, 12720, Note_on_c, 2, 64, 110
2, 12766, Note_on_c, 2, 64, 0
2, 12768, Note_on_c, 2, 64, 110
2, 12814, Note_on_c, 2, 64, 0
2, 12816, Note_on_c, 2, 64, 110
2, 12910, Note_on_c, 2, 64, 0
2, 12912, Note_on_c, 2, 62, 110
2, 13006, Note_on_c, 2, 62, 0
2, 13008, Note_on_c, 2, 64, 110
2, 13216, Note_on_c, 2, 64, 0
2, 13776, Note_on_c, 2, 66, 110
2, 13822, Note_on_c, 2, 66, 0
2, 13824, Note_on_c, 2, 67, 110
2, 13918, Note_on_c, 2, 67, 0
2, 13920, Note_on_c, 2, 67, 110
2, 13968, Note_on_c, 2, 67, 0
2, 13968, Note_on_c, 2, 69, 110
2, 14014, Note_on_c, 2, 69, 0
2, 14016, Note_on_c, 2, 66, 110
2, 14064, Note_on_c, 2, 66, 0
2, 14064, Note_on_c, 2, 64, 110
2, 14110, Note_on_c, 2, 64, 0
2, 14112, Note_on_c, 2, 62, 110
2, 14206, Note_on_c, 2, 62, 0
2, 14208, Note_on_c, 2, 62, 110
2, 14302, Note_on_c, 2, 62, 0
2, 14304, Note_on_c, 2, 64, 110
2, 14350, Note_on_c, 2, 64, 0
2, 14352, Note_on_c, 2, 62, 110
2, 14446, Note_on_c, 2, 62, 0
2, 14448, Note_on_c, 2, 59, 110
2, 14494, Note_on_c, 2, 59, 0
2, 14496, Note_on_c, 2, 62, 110
2, 14590, Note_on_c, 2, 62, 0
2, 14832, Note_on_c, 2, 62, 110
2, 14878, Note_on_c, 2, 62, 0
2, 14880, Note_on_c, 2, 62, 110
2, 14926, Note_on_c, 2, 62, 0
2, 14928, Note_on_c, 2, 59, 110
2, 14976, Note_on_c, 2, 59, 0
2, 14976, Note_on_c, 2, 59, 110
2, 15070, Note_on_c, 2, 59, 0
2, 15070, End_track
3, 0, Start_track
3, 0, MIDI_port, 0
3, 0, Title_t, "Soprano Sax"
3, 0, Program_c, 3, 66
3, 0, Control_c, 3, 7, 127
3, 0, Control_c, 3, 10, 64
3, 3072, Control_c, 3, 7, 44
3, 3072, Note_on_c, 3, 71, 110
3, 3110, Control_c, 3, 7, 45
3, 3148, Control_c, 3, 7, 46
3, 3187, Control_c, 3, 7, 47
3, 3225, Control_c, 3, 7, 48
3, 3264, Control_c, 3, 7, 49
3, 3302, Control_c, 3, 7, 50
3, 3340, Control_c, 3, 7, 51
3, 3379, Control_c, 3, 7, 52
3, 3417, Control_c, 3, 7, 53
3, 3456, Control_c, 3, 7, 54
3, 3494, Control_c, 3, 7, 55
3, 3502, Note_off_c, 3, 71, 0
3, 3504, Note_on_c, 3, 69, 110
3, 3532, Control_c, 3, 7, 56
3, 3571, Control_c, 3, 7, 57
3, 3609, Control_c, 3, 7, 58
3, 3646, Note_off_c, 3, 69, 0
3, 3648, Control_c, 3, 7, 59
3, 3648, Note_on_c, 3, 71, 110
3, 3686, Control_c, 3, 7, 60
3, 3724, Control_c, 3, 7, 61
3, 3742, Note_off_c, 3, 71, 0
3, 3744, Note_on_c, 3, 74, 110
3, 3763, Control_c, 3, 7, 62
3, 3801, Control_c, 3, 7, 63
3, 3838, Note_off_c, 3, 74, 0
3, 3840, Control_c, 3, 7, 64
3, 3840, Note_on_c, 3, 71, 110
3, 3949, Control_c, 3, 7, 63
3, 4059, Control_c, 3, 7, 62
3, 4169, Control_c, 3, 7, 61
3, 4270, Note_off_c, 3, 71, 0
3, 4272, Note_on_c, 3, 69, 110
3, 4278, Control_c, 3, 7, 60
3, 4388, Control_c, 3, 7, 59
3, 4414, Note_off_c, 3, 69, 0
3, 4416, Note_on_c, 3, 71, 110
3, 4498, Control_c, 3, 7, 58
3, 4510, Note_off_c, 3, 71, 0
3, 4512, Note_on_c, 3, 74, 110
3, 4606, Note_on_c, 3, 74, 0
3, 4608, Control_c, 3, 7, 57
3, 4608, Control_c, 3, 7, 68
3, 4608, Note_on_c, 3, 71, 110
3, 4632, Control_c, 3, 7, 67
3, 4656, Control_c, 3, 7, 66
3, 4680, Control_c, 3, 7, 65
3, 4704, Control_c, 3, 7, 64
3, 4710, Control_c, 3, 7, 63
3, 4717, Control_c, 3, 7, 62
3, 4724, Control_c, 3, 7, 61
3, 4731, Control_c, 3, 7, 60
3, 4738, Control_c, 3, 7, 59
3, 4745, Control_c, 3, 7, 58
3, 4752, Control_c, 3, 7, 57
3, 4758, Control_c, 3, 7, 56
3, 4765, Control_c, 3, 7, 55
3, 4772, Control_c, 3, 7, 54
3, 4779, Control_c, 3, 7, 53
3, 4786, Control_c, 3, 7, 52
3, 4793, Control_c, 3, 7, 51
3, 4800, Control_c, 3, 7, 50
3, 4805, Control_c, 3, 7, 49
3, 4811, Control_c, 3, 7, 48
3, 4816, Control_c, 3, 7, 47
3, 4822, Control_c, 3, 7, 46
3, 4828, Control_c, 3, 7, 45
3, 4833, Control_c, 3, 7, 44
3, 4839, Control_c, 3, 7, 43
3, 4845, Control_c, 3, 7, 42
3, 4850, Control_c, 3, 7, 41
3, 4856, Control_c, 3, 7, 40
3, 4862, Control_c, 3, 7, 39
3, 4867, Control_c, 3, 7, 38
3, 4873, Control_c, 3, 7, 37
3, 4879, Control_c, 3, 7, 36
3, 4884, Control_c, 3, 7, 35
3, 4890, Control_c, 3, 7, 34
3, 4896, Control_c, 3, 7, 33
3, 5088, Note_off_c, 3, 71, 0
3, 5376, Control_c, 3, 7, 44
3, 5376, Note_on_c, 3, 73, 110
3, 5414, Control_c, 3, 7, 45
3, 5452, Control_c, 3, 7, 46
3, 5491, Control_c, 3, 7, 47
3, 5529, Control_c, 3, 7, 48
3, 5568, Control_c, 3, 7, 49
3, 5606, Control_c, 3, 7, 50
3, 5644, Control_c, 3, 7, 51
3, 5683, Control_c, 3, 7, 52
3, 5721, Control_c, 3, 7, 53
3, 5760, Control_c, 3, 7, 54
3, 5798, Control_c, 3, 7, 55
3, 5836, Control_c, 3, 7, 56
3, 5875, Control_c, 3, 7, 57
3, 5913, Control_c, 3, 7, 58
3, 5952, Control_c, 3, 7, 59
3, 5990, Control_c, 3, 7, 60
3, 6028, Control_c, 3, 7, 61
3, 6067, Control_c, 3, 7, 62
3, 6105, Control_c, 3, 7, 63
3, 6144, Control_c, 3, 7, 64
3, 6198, Control_c, 3, 7, 63
3, 6253, Control_c, 3, 7, 62
3, 6308, Control_c, 3, 7, 61
3, 6363, Control_c, 3, 7, 60
3, 6418, Control_c, 3, 7, 59
3, 6473, Control_c, 3, 7, 58
3, 6528, Control_c, 3, 7, 57
3, 6582, Control_c, 3, 7, 56
3, 6637, Control_c, 3, 7, 55
3, 6692, Control_c, 3, 7, 54
3, 6747, Control_c, 3, 7, 53
3, 6802, Control_c, 3, 7, 52
3, 6857, Control_c, 3, 7, 51
3, 6912, Control_c, 3, 7, 50
3, 7021, Control_c, 3, 7, 49
3, 7131, Control_c, 3, 7, 48
3, 7241, Control_c, 3, 7, 47
3, 7350, Control_c, 3, 7, 46
3, 7460, Control_c, 3, 7, 45
3, 7570, Control_c, 3, 7, 44
3, 7584, Note_off_c, 3, 73, 0
3, 7584, Note_on_c, 3, 74, 110
3, 7632, Note_on_c, 3, 74, 0
3, 7632, Note_on_c, 3, 73, 110
3, 7656, Note_on_c, 3, 73, 0
3, 7656, Note_on_c, 3, 71, 110
3, 7680, Control_c, 3, 7, 43
3, 7680, Note_off_c, 3, 71, 0
3, 7680, Control_c, 3, 7, 68
3, 7680, Note_on_c, 3, 71, 110
3, 7728, Control_c, 3, 7, 67
3, 7776, Control_c, 3, 7, 66
3, 7824, Control_c, 3, 7, 65
3, 7872, Control_c, 3, 7, 64
3, 7885, Control_c, 3, 7, 63
3, 7899, Control_c, 3, 7, 62
3, 7913, Control_c, 3, 7, 61
3, 7926, Control_c, 3, 7, 60
3, 7940, Control_c, 3, 7, 59
3, 7954, Control_c, 3, 7, 58
3, 7968, Control_c, 3, 7, 57
3, 7981, Control_c, 3, 7, 56
3, 7995, Control_c, 3, 7, 55
3, 8009, Control_c, 3, 7, 54
3, 8022, Control_c, 3, 7, 53
3, 8036, Control_c, 3, 7, 52
3, 8050, Control_c, 3, 7, 51
3, 8064, Control_c, 3, 7, 50
3, 8075, Control_c, 3, 7, 49
3, 8086, Control_c, 3, 7, 48
3, 8097, Control_c, 3, 7, 47
3, 8109, Control_c, 3, 7, 46
3, 8120, Control_c, 3, 7, 45
3, 8131, Control_c, 3, 7, 44
3, 8143, Control_c, 3, 7, 43
3, 8154, Control_c, 3, 7, 42
3, 8165, Control_c, 3, 7, 41
3, 8176, Control_c, 3, 7, 40
3, 8188, Control_c, 3, 7, 39
3, 8199, Control_c, 3, 7, 38
3, 8210, Control_c, 3, 7, 37
3, 8222, Control_c, 3, 7, 36
3, 8233, Control_c, 3, 7, 35
3, 8244, Control_c, 3, 7, 34
3, 8256, Control_c, 3, 7, 33
3, 8400, Note_off_c, 3, 71, 0
3, 8448, Control_c, 3, 7, 68
3, 8832, Note_on_c, 3, 71, 110
3, 8880, Note_on_c, 3, 71, 0
3, 8880, Note_on_c, 3, 73, 110
3, 8912, Note_on_c, 3, 73, 0
3, 8928, Note_on_c, 3, 73, 110
3, 8960, Note_on_c, 3, 73, 0
3, 8976, Note_on_c, 3, 73, 110
3, 9008, Note_on_c, 3, 73, 0
3, 9024, Note_on_c, 3, 71, 110
3, 9072, Note_on_c, 3, 71, 0
3, 9072, Note_on_c, 3, 73, 110
3, 9104, Note_on_c, 3, 73, 0
3, 9120, Note_on_c, 3, 73, 110
3, 9152, Note_on_c, 3, 73, 0
3, 9168, Note_on_c, 3, 73, 110
3, 9200, Note_on_c, 3, 73, 0
3, 9984, Control_c, 3, 7, 68
3, 10368, Note_on_c, 3, 71, 110
3, 10416, Note_on_c, 3, 71, 0
3, 10416, Note_on_c, 3, 73, 110
3, 10448, Note_on_c, 3, 73, 0
3, 10464, Note_on_c, 3, 73, 110
3, 10496, Note_on_c, 3, 73, 0
3, 10512, Note_on_c, 3, 73, 110
3, 10544, Note_on_c, 3, 73, 0
3, 10560, Note_on_c, 3, 71, 110
3, 10608, Note_on_c, 3, 71, 0
3, 10608, Note_on_c, 3, 73, 110
3, 10640, Note_on_c, 3, 73, 0
3, 10656, Note_on_c, 3, 73, 110
3, 10688, Note_on_c, 3, 73, 0
3, 10704, Note_on_c, 3, 73, 110
3, 10736, Note_on_c, 3, 73, 0
3, 11520, Control_c, 3, 7, 68
3, 11904, Note_on_c, 3, 71, 110
3, 11952, Note_on_c, 3, 71, 0
3, 11952, Note_on_c, 3, 73, 110
3, 11984, Note_on_c, 3, 73, 0
3, 12000, Note_on_c, 3, 73, 110
3, 12032, Note_on_c, 3, 73, 0
3, 12048, Note_on_c, 3, 73, 110
3, 12080, Note_on_c, 3, 73, 0
3, 12096, Note_on_c, 3, 71, 110
3, 12144, Note_on_c, 3, 71, 0
3, 12144, Note_on_c, 3, 73, 110
3, 12176, Note_on_c, 3, 73, 0
3, 12192, Note_on_c, 3, 73, 110
3, 12224, Note_on_c, 3, 73, 0
3, 12240, Note_on_c, 3, 73, 110
3, 12272, Note_on_c, 3, 73, 0
3, 13056, Control_c, 3, 7, 68
3, 13056, Note_on_c, 3, 71, 110
3, 13102, Note_on_c, 3, 71, 0
3, 13104, Note_on_c, 3, 73, 110
3, 13150, Note_on_c, 3, 73, 0
3, 13152, Note_on_c, 3, 73, 110
3, 13198, Note_on_c, 3, 73, 0
3, 13200, Note_on_c, 3, 71, 110
3, 13246, Note_on_c, 3, 71, 0
3, 13248, Note_on_c, 3, 73, 110
3, 13408, Note_on_c, 3, 73, 0
3, 13440, Note_on_c, 3, 71, 110
3, 13488, Note_on_c, 3, 71, 0
3, 13488, Note_on_c, 3, 73, 110
3, 13520, Note_on_c, 3, 73, 0
3, 13536, Note_on_c, 3, 73, 110
3, 13568, Note_on_c, 3, 73, 0
3, 13584, Note_on_c, 3, 73, 110
3, 13616, Note_on_c, 3, 73, 0
3, 13632, Note_on_c, 3, 71, 110
3, 13680, Note_on_c, 3, 71, 0
3, 13680, Note_on_c, 3, 73, 110
3, 13712, Note_on_c, 3, 73, 0
3, 13728, Note_on_c, 3, 73, 110
3, 13760, Note_on_c, 3, 73, 0
3, 13776, Note_on_c, 3, 73, 110
3, 13808, Note_on_c, 3, 73, 0
3, 13824, Control_c, 3, 7, 68
3, 13824, Note_on_c, 3, 71, 110
3, 13848, Control_c, 3, 7, 67
3, 13872, Control_c, 3, 7, 66
3, 13896, Control_c, 3, 7, 65
3, 13920, Control_c, 3, 7, 64
3, 13926, Control_c, 3, 7, 63
3, 13933, Control_c, 3, 7, 62
3, 13940, Control_c, 3, 7, 61
3, 13947, Control_c, 3, 7, 60
3, 13954, Control_c, 3, 7, 59
3, 13961, Control_c, 3, 7, 58
3, 13968, Control_c, 3, 7, 57
3, 13974, Control_c, 3, 7, 56
3, 13981, Control_c, 3, 7, 55
3, 13988, Control_c, 3, 7, 54
3, 13995, Control_c, 3, 7, 53
3, 14002, Control_c, 3, 7, 52
3, 14009, Control_c, 3, 7, 51
3, 14016, Control_c, 3, 7, 50
3, 14021, Control_c, 3, 7, 49
3, 14027, Control_c, 3, 7, 48
3, 14032, Control_c, 3, 7, 47
3, 14038, Control_c, 3, 7, 46
3, 14044, Control_c, 3, 7, 45
3, 14049, Control_c, 3, 7, 44
3, 14055, Control_c, 3, 7, 43
3, 14061, Control_c, 3, 7, 42
3, 14066, Control_c, 3, 7, 41
3, 14072, Control_c, 3, 7, 40
3, 14078, Control_c, 3, 7, 39
3, 14083, Control_c, 3, 7, 38
3, 14089, Control_c, 3, 7, 37
3, 14095, Control_c, 3, 7, 36
3, 14100, Control_c, 3, 7, 35
3, 14106, Control_c, 3, 7, 34
3, 14112, Control_c, 3, 7, 33
3, 14160, Note_off_c, 3, 71, 0
3, 15360, Control_c, 3, 7, 68
3, 15360, Note_on_c, 3, 71, 110
3, 15406, Note_on_c, 3, 71, 0
3, 15408, Note_on_c, 3, 73, 110
3, 15454, Note_on_c, 3, 73, 0
3, 15456, Note_on_c, 3, 73, 110
3, 15502, Note_on_c, 3, 73, 0
3, 15504, Note_on_c, 3, 71, 110
3, 15550, Note_on_c, 3, 71, 0
3, 15552, Note_on_c, 3, 73, 110
3, 15712, Note_on_c, 3, 73, 0
3, 15744, Note_on_c, 3, 71, 110
3, 15792, Note_on_c, 3, 71, 0
3, 15792, Note_on_c, 3, 73, 110
3, 15824, Note_on_c, 3, 73, 0
3, 15840, Note_on_c, 3, 73, 110
3, 15872, Note_on_c, 3, 73, 0
3, 15888, Note_on_c, 3, 73, 110
3, 15920, Note_on_c, 3, 73, 0
3, 15936, Note_on_c, 3, 71, 110
3, 15984, Note_on_c, 3, 71, 0
3, 15984, Note_on_c, 3, 73, 110
3, 16016, Note_on_c, 3, 73, 0
3, 16032, Note_on_c, 3, 73, 110
3, 16064, Note_on_c, 3, 73, 0
3, 16080, Note_on_c, 3, 73, 110
3, 16112, Note_on_c, 3, 73, 0
3, 16128, Control_c, 3, 7, 68
3, 16128, Note_on_c, 3, 71, 110
3, 16176, Control_c, 3, 7, 67
3, 16224, Control_c, 3, 7, 66
3, 16272, Control_c, 3, 7, 65
3, 16320, Control_c, 3, 7, 64
3, 16333, Control_c, 3, 7, 63
3, 16347, Control_c, 3, 7, 62
3, 16361, Control_c, 3, 7, 61
3, 16374, Control_c, 3, 7, 60
3, 16388, Control_c, 3, 7, 59
3, 16402, Control_c, 3, 7, 58
3, 16416, Control_c, 3, 7, 57
3, 16429, Control_c, 3, 7, 56
3, 16443, Control_c, 3, 7, 55
3, 16457, Control_c, 3, 7, 54
3, 16470, Control_c, 3, 7, 53
3, 16484, Control_c, 3, 7, 52
3, 16498, Control_c, 3, 7, 51
3, 16512, Control_c, 3, 7, 50
3, 16523, Control_c, 3, 7, 49
3, 16534, Control_c, 3, 7, 48
3, 16545, Control_c, 3, 7, 47
3, 16557, Control_c, 3, 7, 46
3, 16568, Control_c, 3, 7, 45
3, 16579, Control_c, 3, 7, 44
3, 16591, Control_c, 3, 7, 43
3, 16602, Control_c, 3, 7, 42
3, 16613, Control_c, 3, 7, 41
3, 16624, Control_c, 3, 7, 40
3, 16636, Control_c, 3, 7, 39
3, 16647, Control_c, 3, 7, 38
3, 16658, Control_c, 3, 7, 37
3, 16670, Control_c, 3, 7, 36
3, 16681, Control_c, 3, 7, 35
3, 16692, Control_c, 3, 7, 34
3, 16704, Control_c, 3, 7, 33
3, 16848, Note_off_c, 3, 71, 0
3, 16896, Control_c, 3, 7, 68
3, 16896, Note_on_c, 3, 71, 110
3, 16942, Note_on_c, 3, 71, 0
3, 16944, Note_on_c, 3, 73, 110
3, 16990, Note_on_c, 3, 73, 0
3, 16992, Note_on_c, 3, 73, 110
3, 17038, Note_on_c, 3, 73, 0
3, 17040, Note_on_c, 3, 71, 110
3, 17086, Note_on_c, 3, 71, 0
3, 17088, Note_on_c, 3, 73, 110
3, 17248, Note_on_c, 3, 73, 0
3, 17280, Note_on_c, 3, 71, 110
3, 17328, Note_on_c, 3, 71, 0
3, 17328, Note_on_c, 3, 73, 110
3, 17360, Note_on_c, 3, 73, 0
3, 17376, Note_on_c, 3, 73, 110
3, 17408, Note_on_c, 3, 73, 0
3, 17424, Note_on_c, 3, 73, 110
3, 17456, Note_on_c, 3, 73, 0
3, 17472, Note_on_c, 3, 71, 110
3, 17520, Note_on_c, 3, 71, 0
3, 17520, Note_on_c, 3, 73, 110
3, 17552, Note_on_c, 3, 73, 0
3, 17568, Note_on_c, 3, 73, 110
3, 17600, Note_on_c, 3, 73, 0
3, 17616, Note_on_c, 3, 73, 110
3, 17648, Note_on_c, 3, 73, 0
3, 17664, Control_c, 3, 7, 68
3, 17664, Note_on_c, 3, 71, 110
3, 17688, Control_c, 3, 7, 67
3, 17712, Control_c, 3, 7, 66
3, 17736, Control_c, 3, 7, 65
3, 17760, Control_c, 3, 7, 64
3, 17766, Control_c, 3, 7, 63
3, 17773, Control_c, 3, 7, 62
3, 17780, Control_c, 3, 7, 61
3, 17787, Control_c, 3, 7, 60
3, 17794, Control_c, 3, 7, 59
3, 17801, Control_c, 3, 7, 58
3, 17808, Control_c, 3, 7, 57
3, 17814, Control_c, 3, 7, 56
3, 17821, Control_c, 3, 7, 55
3, 17828, Control_c, 3, 7, 54
3, 17835, Control_c, 3, 7, 53
3, 17842, Control_c, 3, 7, 52
3, 17849, Control_c, 3, 7, 51
3, 17856, Control_c, 3, 7, 50
3, 17861, Control_c, 3, 7, 49
3, 17867, Control_c, 3, 7, 48
3, 17872, Control_c, 3, 7, 47
3, 17878, Control_c, 3, 7, 46
3, 17884, Control_c, 3, 7, 45
3, 17889, Control_c, 3, 7, 44
3, 17895, Control_c, 3, 7, 43
3, 17901, Control_c, 3, 7, 42
3, 17906, Control_c, 3, 7, 41
3, 17912, Control_c, 3, 7, 40
3, 17918, Control_c, 3, 7, 39
3, 17920, Note_off_c, 3, 71, 0
3, 17923, Control_c, 3, 7, 38
3, 17929, Control_c, 3, 7, 37
3, 17935, Control_c, 3, 7, 36
3, 17940, Control_c, 3, 7, 35
3, 17946, Control_c, 3, 7, 34
3, 17952, Control_c, 3, 7, 33
3, 17952, Control_c, 3, 7, 68
3, 17952, Note_on_c, 3, 66, 110
3, 17984, Control_c, 3, 7, 67
3, 18016, Control_c, 3, 7, 66
3, 18048, Control_c, 3, 7, 65
3, 18080, Control_c, 3, 7, 64
3, 18112, Control_c, 3, 7, 63
3, 18144, Control_c, 3, 7, 62
3, 18176, Control_c, 3, 7, 61
3, 18208, Control_c, 3, 7, 60
3, 18240, Control_c, 3, 7, 59
3, 18272, Control_c, 3, 7, 58
3, 18304, Control_c, 3, 7, 57
3, 18336, Control_c, 3, 7, 56
3, 18368, Control_c, 3, 7, 55
3, 18400, Control_c, 3, 7, 54
3, 18432, Control_c, 3, 7, 53
3, 18464, Control_c, 3, 7, 52
3, 18496, Control_c, 3, 7, 51
3, 18528, Control_c, 3, 7, 50
3, 18560, Control_c, 3, 7, 49
3, 18592, Control_c, 3, 7, 48
3, 18624, Control_c, 3, 7, 47
3, 18656, Control_c, 3, 7, 46
3, 18688, Control_c, 3, 7, 45
3, 18720, Control_c, 3, 7, 44
3, 18758, Control_c, 3, 7, 43
3, 18796, Control_c, 3, 7, 42
3, 18835, Control_c, 3, 7, 41
3, 18873, Control_c, 3, 7, 40
3, 18912, Control_c, 3, 7, 39
3, 18950, Control_c, 3, 7, 38
3, 18988, Control_c, 3, 7, 37
3, 19027, Control_c, 3, 7, 36
3, 19065, Control_c, 3, 7, 35
3, 19104, Control_c, 3, 7, 34
3, 19360, Note_off_c, 3, 66, 0
3, 19360, End_track
4, 0, Start_track
4, 0, MIDI_port, 0
4, 0, Title_t, "Cor Englais"
4, 0, Program_c, 5, 69
4, 0, Control_c, 5, 7, 127
4, 0, Control_c, 5, 10, 64
4, 5376, Control_c, 5, 7, 44
4, 5376, Note_on_c, 5, 61, 110
4, 5376, Note_on_c, 5, 69, 110
4, 5414, Control_c, 5, 7, 45
4, 5452, Control_c, 5, 7, 46
4, 5491, Control_c, 5, 7, 47
4, 5529, Control_c, 5, 7, 48
4, 5568, Control_c, 5, 7, 49
4, 5606, Control_c, 5, 7, 50
4, 5644, Control_c, 5, 7, 51
4, 5683, Control_c, 5, 7, 52
4, 5721, Control_c, 5, 7, 53
4, 5760, Control_c, 5, 7, 54
4, 5798, Control_c, 5, 7, 55
4, 5836, Control_c, 5, 7, 56
4, 5875, Control_c, 5, 7, 57
4, 5913, Control_c, 5, 7, 58
4, 5952, Control_c, 5, 7, 59
4, 5990, Control_c, 5, 7, 60
4, 6028, Control_c, 5, 7, 61
4, 6067, Control_c, 5, 7, 62
4, 6105, Control_c, 5, 7, 63
4, 6144, Control_c, 5, 7, 64
4, 6198, Control_c, 5, 7, 63
4, 6253, Control_c, 5, 7, 62
4, 6308, Control_c, 5, 7, 61
4, 6363, Control_c, 5, 7, 60
4, 6418, Control_c, 5, 7, 59
4, 6473, Control_c, 5, 7, 58
4, 6528, Control_c, 5, 7, 57
4, 6582, Control_c, 5, 7, 56
4, 6637, Control_c, 5, 7, 55
4, 6692, Control_c, 5, 7, 54
4, 6747, Control_c, 5, 7, 53
4, 6802, Control_c, 5, 7, 52
4, 6857, Control_c, 5, 7, 51
4, 6912, Control_c, 5, 7, 50
4, 7021, Control_c, 5, 7, 49
4, 7131, Control_c, 5, 7, 48
4, 7241, Control_c, 5, 7, 47
4, 7350, Control_c, 5, 7, 46
4, 7460, Control_c, 5, 7, 45
4, 7570, Control_c, 5, 7, 44
4, 7584, Note_off_c, 5, 61, 0
4, 7584, Note_off_c, 5, 69, 0
4, 7584, Note_on_c, 5, 62, 110
4, 7632, Note_on_c, 5, 62, 0
4, 7632, Note_on_c, 5, 61, 110
4, 7656, Note_on_c, 5, 61, 0
4, 7656, Note_on_c, 5, 59, 110
4, 7680, Control_c, 5, 7, 43
4, 7680, Note_off_c, 5, 59, 0
4, 7680, Control_c, 5, 7, 68
4, 7680, Note_on_c, 5, 59, 110
4, 7680, Note_on_c, 5, 66, 110
4, 7728, Control_c, 5, 7, 67
4, 7776, Control_c, 5, 7, 66
4, 7824, Control_c, 5, 7, 65
4, 7872, Control_c, 5, 7, 64
4, 7885, Control_c, 5, 7, 63
4, 7899, Control_c, 5, 7, 62
4, 7913, Control_c, 5, 7, 61
4, 7926, Control_c, 5, 7, 60
4, 7940, Control_c, 5, 7, 59
4, 7954, Control_c, 5, 7, 58
4, 7968, Control_c, 5, 7, 57
4, 7981, Control_c, 5, 7, 56
4, 7995, Control_c, 5, 7, 55
4, 8009, Control_c, 5, 7, 54
4, 8022, Control_c, 5, 7, 53
4, 8036, Control_c, 5, 7, 52
4, 8050, Control_c, 5, 7, 51
4, 8064, Control_c, 5, 7, 50
4, 8075, Control_c, 5, 7, 49
4, 8086, Control_c, 5, 7, 48
4, 8097, Control_c, 5, 7, 47
4, 8109, Control_c, 5, 7, 46
4, 8120, Control_c, 5, 7, 45
4, 8131, Control_c, 5, 7, 44
4, 8143, Control_c, 5, 7, 43
4, 8154, Control_c, 5, 7, 42
4, 8165, Control_c, 5, 7, 41
4, 8176, Control_c, 5, 7, 40
4, 8188, Control_c, 5, 7, 39
4, 8199, Control_c, 5, 7, 38
4, 8210, Control_c, 5, 7, 37
4, 8222, Control_c, 5, 7, 36
4, 8233, Control_c, 5, 7, 35
4, 8244, Control_c, 5, 7, 34
4, 8256, Control_c, 5, 7, 33
4, 8400, Note_off_c, 5, 59, 0
4, 8400, Note_off_c, 5, 66, 0
4, 8448, Control_c, 5, 7, 68
4, 8832, Note_on_c, 5, 62, 110
4, 8880, Note_on_c, 5, 62, 0
4, 8880, Note_on_c, 5, 64, 110
4, 8912, Note_on_c, 5, 64, 0
4, 8928, Note_on_c, 5, 64, 110
4, 8960, Note_on_c, 5, 64, 0
4, 8976, Note_on_c, 5, 64, 110
4, 9008, Note_on_c, 5, 64, 0
4, 9024, Note_on_c, 5, 62, 110
4, 9072, Note_on_c, 5, 62, 0
4, 9072, Note_on_c, 5, 64, 110
4, 9104, Note_on_c, 5, 64, 0
4, 9120, Note_on_c, 5, 64, 110
4, 9152, Note_on_c, 5, 64, 0
4, 9168, Note_on_c, 5, 64, 110
4, 9200, Note_on_c, 5, 64, 0
4, 9984, Control_c, 5, 7, 68
4, 10368, Note_on_c, 5, 62, 110
4, 10416, Note_on_c, 5, 62, 0
4, 10416, Note_on_c, 5, 64, 110
4, 10448, Note_on_c, 5, 64, 0
4, 10464, Note_on_c, 5, 64, 110
4, 10496, Note_on_c, 5, 64, 0
4, 10512, Note_on_c, 5, 64, 110
4, 10544, Note_on_c, 5, 64, 0
4, 10560, Note_on_c, 5, 62, 110
4, 10608, Note_on_c, 5, 62, 0
4, 10608, Note_on_c, 5, 64, 110
4, 10640, Note_on_c, 5, 64, 0
4, 10656, Note_on_c, 5, 64, 110
4, 10688, Note_on_c, 5, 64, 0
4, 10704, Note_on_c, 5, 64, 110
4, 10736, Note_on_c, 5, 64, 0
4, 11520, Control_c, 5, 7, 68
4, 11904, Note_on_c, 5, 62, 110
4, 11952, Note_on_c, 5, 62, 0
4, 11952, Note_on_c, 5, 64, 110
4, 11984, Note_on_c, 5, 64, 0
4, 12000, Note_on_c, 5, 64, 110
4, 12032, Note_on_c, 5, 64, 0
4, 12048, Note_on_c, 5, 64, 110
4, 12080, Note_on_c, 5, 64, 0
4, 12096, Note_on_c, 5, 62, 110
4, 12144, Note_on_c, 5, 62, 0
4, 12144, Note_on_c, 5, 64, 110
4, 12176, Note_on_c, 5, 64, 0
4, 12192, Note_on_c, 5, 64, 110
4, 12224, Note_on_c, 5, 64, 0
4, 12240, Note_on_c, 5, 64, 110
4, 12272, Note_on_c, 5, 64, 0
4, 13056, Control_c, 5, 7, 68
4, 13056, Note_on_c, 5, 62, 110
4, 13102, Note_on_c, 5, 62, 0
4, 13104, Note_on_c, 5, 64, 110
4, 13150, Note_on_c, 5, 64, 0
4, 13152, Note_on_c, 5, 64, 110
4, 13198, Note_on_c, 5, 64, 0
4, 13200, Note_on_c, 5, 62, 110
4, 13246, Note_on_c, 5, 62, 0
4, 13248, Note_on_c, 5, 64, 110
4, 13408, Note_on_c, 5, 64, 0
4, 13440, Note_on_c, 5, 62, 110
4, 13488, Note_on_c, 5, 62, 0
4, 13488, Note_on_c, 5, 64, 110
4, 13520, Note_on_c, 5, 64, 0
4, 13536, Note_on_c, 5, 64, 110
4, 13568, Note_on_c, 5, 64, 0
4, 13584, Note_on_c, 5, 64, 110
4, 13616, Note_on_c, 5, 64, 0
4, 13632, Note_on_c, 5, 62, 110
4, 13680, Note_on_c, 5, 62, 0
4, 13680, Note_on_c, 5, 64, 110
4, 13712, Note_on_c, 5, 64, 0
4, 13728, Note_on_c, 5, 64, 110
4, 13760, Note_on_c, 5, 64, 0
4, 13776, Note_on_c, 5, 64, 110
4, 13808, Note_on_c, 5, 64, 0
4, 13824, Control_c, 5, 7, 68
4, 13824, Note_on_c, 5, 64, 110
4, 13848, Control_c, 5, 7, 67
4, 13872, Control_c, 5, 7, 66
4, 13896, Control_c, 5, 7, 65
4, 13920, Control_c, 5, 7, 64
4, 13926, Control_c, 5, 7, 63
4, 13933, Control_c, 5, 7, 62
4, 13940, Control_c, 5, 7, 61
4, 13947, Control_c, 5, 7, 60
4, 13954, Control_c, 5, 7, 59
4, 13961, Control_c, 5, 7, 58
4, 13968, Control_c, 5, 7, 57
4, 13974, Control_c, 5, 7, 56
4, 13981, Control_c, 5, 7, 55
4, 13988, Control_c, 5, 7, 54
4, 13995, Control_c, 5, 7, 53
4, 14002, Control_c, 5, 7, 52
4, 14009, Control_c, 5, 7, 51
4, 14016, Control_c, 5, 7, 50
4, 14021, Control_c, 5, 7, 49
4, 14027, Control_c, 5, 7, 48
4, 14032, Control_c, 5, 7, 47
4, 14038, Control_c, 5, 7, 46
4, 14044, Control_c, 5, 7, 45
4, 14049, Control_c, 5, 7, 44
4, 14055, Control_c, 5, 7, 43
4, 14061, Control_c, 5, 7, 42
4, 14066, Control_c, 5, 7, 41
4, 14072, Control_c, 5, 7, 40
4, 14078, Control_c, 5, 7, 39
4, 14083, Control_c, 5, 7, 38
4, 14089, Control_c, 5, 7, 37
4, 14095, Control_c, 5, 7, 36
4, 14100, Control_c, 5, 7, 35
4, 14106, Control_c, 5, 7, 34
4, 14112, Control_c, 5, 7, 33
4, 14160, Note_off_c, 5, 64, 0
4, 15360, Control_c, 5, 7, 68
4, 15360, Note_on_c, 5, 62, 110
4, 15406, Note_on_c, 5, 62, 0
4, 15408, Note_on_c, 5, 64, 110
4, 15454, Note_on_c, 5, 64, 0
4, 15456, Note_on_c, 5, 64, 110
4, 15502, Note_on_c, 5, 64, 0
4, 15504, Note_on_c, 5, 62, 110
4, 15550, Note_on_c, 5, 62, 0
4, 15552, Note_on_c, 5, 64, 110
4, 15712, Note_on_c, 5, 64, 0
4, 15744, Note_on_c, 5, 62, 110
4, 15792, Note_on_c, 5, 62, 0
4, 15792, Note_on_c, 5, 64, 110
4, 15824, Note_on_c, 5, 64, 0
4, 15840, Note_on_c, 5, 64, 110
4, 15872, Note_on_c, 5, 64, 0
4, 15888, Note_on_c, 5, 64, 110
4, 15920, Note_on_c, 5, 64, 0
4, 15936, Note_on_c, 5, 62, 110
4, 15984, Note_on_c, 5, 62, 0
4, 15984, Note_on_c, 5, 64, 110
4, 16016, Note_on_c, 5, 64, 0
4, 16032, Note_on_c, 5, 64, 110
4, 16064, Note_on_c, 5, 64, 0
4, 16080, Note_on_c, 5, 64, 110
4, 16112, Note_on_c, 5, 64, 0
4, 16128, Control_c, 5, 7, 68
4, 16128, Note_on_c, 5, 64, 110
4, 16176, Control_c, 5, 7, 67
4, 16224, Control_c, 5, 7, 66
4, 16272, Control_c, 5, 7, 65
4, 16320, Control_c, 5, 7, 64
4, 16333, Control_c, 5, 7, 63
4, 16347, Control_c, 5, 7, 62
4, 16361, Control_c, 5, 7, 61
4, 16374, Control_c, 5, 7, 60
4, 16388, Control_c, 5, 7, 59
4, 16402, Control_c, 5, 7, 58
4, 16416, Control_c, 5, 7, 57
4, 16429, Control_c, 5, 7, 56
4, 16443, Control_c, 5, 7, 55
4, 16457, Control_c, 5, 7, 54
4, 16470, Control_c, 5, 7, 53
4, 16484, Control_c, 5, 7, 52
4, 16498, Control_c, 5, 7, 51
4, 16512, Control_c, 5, 7, 50
4, 16523, Control_c, 5, 7, 49
4, 16534, Control_c, 5, 7, 48
4, 16545, Control_c, 5, 7, 47
4, 16557, Control_c, 5, 7, 46
4, 16568, Control_c, 5, 7, 45
4, 16579, Control_c, 5, 7, 44
4, 16591, Control_c, 5, 7, 43
4, 16602, Control_c, 5, 7, 42
4, 16613, Control_c, 5, 7, 41
4, 16624, Control_c, 5, 7, 40
4, 16636, Control_c, 5, 7, 39
4, 16647, Control_c, 5, 7, 38
4, 16658, Control_c, 5, 7, 37
4, 16670, Control_c, 5, 7, 36
4, 16681, Control_c, 5, 7, 35
4, 16692, Control_c, 5, 7, 34
4, 16704, Control_c, 5, 7, 33
4, 16848, Note_off_c, 5, 64, 0
4, 16896, Control_c, 5, 7, 68
4, 16896, Note_on_c, 5, 64, 110
4, 16942, Note_on_c, 5, 64, 0
4, 16944, Note_on_c, 5, 64, 110
4, 16990, Note_on_c, 5, 64, 0
4, 16992, Note_on_c, 5, 64, 110
4, 17038, Note_on_c, 5, 64, 0
4, 17040, Note_on_c, 5, 62, 110
4, 17086, Note_on_c, 5, 62, 0
4, 17088, Note_on_c, 5, 64, 110
4, 17248, Note_on_c, 5, 64, 0
4, 17280, Note_on_c, 5, 62, 110
4, 17328, Note_on_c, 5, 62, 0
4, 17328, Note_on_c, 5, 64, 110
4, 17360, Note_on_c, 5, 64, 0
4, 17376, Note_on_c, 5, 64, 110
4, 17408, Note_on_c, 5, 64, 0
4, 17424, Note_on_c, 5, 64, 110
4, 17456, Note_on_c, 5, 64, 0
4, 17472, Note_on_c, 5, 62, 110
4, 17520, Note_on_c, 5, 62, 0
4, 17520, Note_on_c, 5, 64, 110
4, 17552, Note_on_c, 5, 64, 0
4, 17568, Note_on_c, 5, 64, 110
4, 17600, Note_on_c, 5, 64, 0
4, 17616, Note_on_c, 5, 64, 110
4, 17648, Note_on_c, 5, 64, 0
4, 17664, Control_c, 5, 7, 68
4, 17664, Note_on_c, 5, 64, 110
4, 17688, Control_c, 5, 7, 67
4, 17712, Control_c, 5, 7, 66
4, 17736, Control_c, 5, 7, 65
4, 17760, Control_c, 5, 7, 64
4, 17766, Control_c, 5, 7, 63
4, 17773, Control_c, 5, 7, 62
4, 17780, Control_c, 5, 7, 61
4, 17787, Control_c, 5, 7, 60
4, 17794, Control_c, 5, 7, 59
4, 17801, Control_c, 5, 7, 58
4, 17808, Control_c, 5, 7, 57
4, 17814, Control_c, 5, 7, 56
4, 17821, Control_c, 5, 7, 55
4, 17828, Control_c, 5, 7, 54
4, 17835, Control_c, 5, 7, 53
4, 17842, Control_c, 5, 7, 52
4, 17849, Control_c, 5, 7, 51
4, 17856, Control_c, 5, 7, 50
4, 17861, Control_c, 5, 7, 49
4, 17867, Control_c, 5, 7, 48
4, 17872, Control_c, 5, 7, 47
4, 17878, Control_c, 5, 7, 46
4, 17884, Control_c, 5, 7, 45
4, 17889, Control_c, 5, 7, 44
4, 17895, Control_c, 5, 7, 43
4, 17901, Control_c, 5, 7, 42
4, 17906, Control_c, 5, 7, 41
4, 17912, Control_c, 5, 7, 40
4, 17918, Control_c, 5, 7, 39
4, 17920, Note_off_c, 5, 64, 0
4, 17923, Control_c, 5, 7, 38
4, 17929, Control_c, 5, 7, 37
4, 17935, Control_c, 5, 7, 36
4, 17940, Control_c, 5, 7, 35
4, 17946, Control_c, 5, 7, 34
4, 17952, Control_c, 5, 7, 33
4, 17952, Control_c, 5, 7, 68
4, 17952, Note_on_c, 5, 59, 110
4, 17984, Control_c, 5, 7, 67
4, 18016, Control_c, 5, 7, 66
4, 18048, Control_c, 5, 7, 65
4, 18080, Control_c, 5, 7, 64
4, 18112, Control_c, 5, 7, 63
4, 18144, Control_c, 5, 7, 62
4, 18176, Control_c, 5, 7, 61
4, 18208, Control_c, 5, 7, 60
4, 18240, Control_c, 5, 7, 59
4, 18272, Control_c, 5, 7, 58
4, 18304, Control_c, 5, 7, 57
4, 18336, Control_c, 5, 7, 56
4, 18368, Control_c, 5, 7, 55
4, 18400, Control_c, 5, 7, 54
4, 18432, Control_c, 5, 7, 53
4, 18464, Control_c, 5, 7, 52
4, 18496, Control_c, 5, 7, 51
4, 18528, Control_c, 5, 7, 50
4, 18560, Control_c, 5, 7, 49
4, 18592, Control_c, 5, 7, 48
4, 18624, Control_c, 5, 7, 47
4, 18656, Control_c, 5, 7, 46
4, 18688, Control_c, 5, 7, 45
4, 18720, Control_c, 5, 7, 44
4, 18758, Control_c, 5, 7, 43
4, 18796, Control_c, 5, 7, 42
4, 18835, Control_c, 5, 7, 41
4, 18873, Control_c, 5, 7, 40
4, 18912, Control_c, 5, 7, 39
4, 18950, Control_c, 5, 7, 38
4, 18988, Control_c, 5, 7, 37
4, 19027, Control_c, 5, 7, 36
4, 19065, Control_c, 5, 7, 35
4, 19104, Control_c, 5, 7, 34
4, 19360, Note_off_c, 5, 59, 0
4, 19360, End_track
5, 0, Start_track
5, 0, MIDI_port, 0
5, 0, Title_t, "Acoustic Guitar 1"
5, 0, Program_c, 0, 25
5, 0, Control_c, 0, 7, 127
5, 0, Control_c, 0, 10, 64
5, 0, Control_c, 0, 7, 79
5, 0, Note_on_c, 0, 71, 110
5, 12, Control_c, 0, 7, 80
5, 25, Control_c, 0, 7, 81
5, 38, Control_c, 0, 7, 82
5, 48, Note_off_c, 0, 71, 0
5, 48, Note_on_c, 0, 66, 110
5, 51, Control_c, 0, 7, 83
5, 64, Control_c, 0, 7, 84
5, 76, Control_c, 0, 7, 85
5, 89, Control_c, 0, 7, 86
5, 96, Note_on_c, 0, 71, 110
5, 102, Control_c, 0, 7, 87
5, 115, Control_c, 0, 7, 88
5, 128, Control_c, 0, 7, 89
5, 140, Control_c, 0, 7, 90
5, 144, Note_off_c, 0, 71, 0
5, 144, Note_on_c, 0, 71, 110
5, 153, Control_c, 0, 7, 91
5, 166, Control_c, 0, 7, 92
5, 179, Control_c, 0, 7, 93
5, 192, Control_c, 0, 7, 94
5, 192, Note_off_c, 0, 66, 0
5, 192, Note_off_c, 0, 71, 0
5, 192, Note_on_c, 0, 66, 110
5, 206, Control_c, 0, 7, 95
5, 221, Control_c, 0, 7, 96
5, 236, Control_c, 0, 7, 97
5, 240, Note_on_c, 0, 71, 110
5, 251, Control_c, 0, 7, 98
5, 265, Control_c, 0, 7, 99
5, 280, Control_c, 0, 7, 100
5, 288, Note_off_c, 0, 71, 0
5, 288, Note_on_c, 0, 71, 110
5, 295, Control_c, 0, 7, 101
5, 310, Control_c, 0, 7, 102
5, 324, Control_c, 0, 7, 103
5, 336, Note_off_c, 0, 66, 0
5, 336, Note_off_c, 0, 71, 0
5, 336, Note_on_c, 0, 66, 110
5, 339, Control_c, 0, 7, 104
5, 354, Control_c, 0, 7, 105
5, 369, Control_c, 0, 7, 106
5, 384, Control_c, 0, 7, 107
5, 384, Note_on_c, 0, 71, 110
5, 394, Control_c, 0, 7, 108
5, 405, Control_c, 0, 7, 109
5, 416, Control_c, 0, 7, 110
5, 426, Control_c, 0, 7, 111
5, 432, Note_off_c, 0, 71, 0
5, 432, Note_on_c, 0, 71, 110
5, 437, Control_c, 0, 7, 112
5, 448, Control_c, 0, 7, 113
5, 458, Control_c, 0, 7, 114
5, 469, Control_c, 0, 7, 115
5, 480, Control_c, 0, 7, 116
5, 480, Note_off_c, 0, 66, 0
5, 480, Note_off_c, 0, 71, 0
5, 480, Note_on_c, 0, 66, 110
5, 490, Control_c, 0, 7, 117
5, 501, Control_c, 0, 7, 118
5, 512, Control_c, 0, 7, 119
5, 522, Control_c, 0, 7, 120
5, 528, Note_on_c, 0, 71, 110
5, 533, Control_c, 0, 7, 121
5, 544, Control_c, 0, 7, 122
5, 554, Control_c, 0, 7, 123
5, 565, Control_c, 0, 7, 124
5, 576, Control_c, 0, 7, 125
5, 576, Note_off_c, 0, 71, 0
5, 576, Note_on_c, 0, 71, 110
5, 624, Note_on_c, 0, 66, 0
5, 624, Note_on_c, 0, 71, 0
5, 624, Note_on_c, 0, 66, 110
5, 672, Note_on_c, 0, 71, 110
5, 720, Note_on_c, 0, 66, 0
5, 720, Note_on_c, 0, 71, 0
5, 720, Note_on_c, 0, 66, 110
5, 768, Control_c, 0, 7, 127
5, 768, Note_on_c, 0, 71, 110
5, 776, Control_c, 0, 7, 126
5, 784, Control_c, 0, 7, 125
5, 792, Control_c, 0, 7, 124
5, 800, Control_c, 0, 7, 123
5, 808, Control_c, 0, 7, 122
5, 816, Control_c, 0, 7, 121
5, 816, Note_off_c, 0, 66, 0
5, 816, Note_off_c, 0, 71, 0
5, 816, Note_on_c, 0, 66, 110
5, 824, Control_c, 0, 7, 120
5, 832, Control_c, 0, 7, 119
5, 840, Control_c, 0, 7, 118
5, 848, Control_c, 0, 7, 117
5, 856, Control_c, 0, 7, 116
5, 864, Control_c, 0, 7, 115
5, 864, Note_on_c, 0, 71, 110
5, 872, Control_c, 0, 7, 114
5, 880, Control_c, 0, 7, 113
5, 888, Control_c, 0, 7, 112
5, 896, Control_c, 0, 7, 111
5, 904, Control_c, 0, 7, 110
5, 912, Control_c, 0, 7, 109
5, 912, Note_off_c, 0, 71, 0
5, 912, Note_on_c, 0, 69, 110
5, 920, Control_c, 0, 7, 108
5, 928, Control_c, 0, 7, 107
5, 936, Control_c, 0, 7, 106
5, 944, Control_c, 0, 7, 105
5, 952, Control_c, 0, 7, 104
5, 960, Control_c, 0, 7, 103
5, 960, Note_off_c, 0, 66, 0
5, 960, Note_off_c, 0, 69, 0
5, 960, Note_on_c, 0, 66, 110
5, 969, Control_c, 0, 7, 102
5, 979, Control_c, 0, 7, 101
5, 988, Control_c, 0, 7, 100
5, 998, Control_c, 0, 7, 99
5, 1008, Control_c, 0, 7, 98
5, 1008, Note_on_c, 0, 71, 110
5, 1017, Control_c, 0, 7, 97
5, 1027, Control_c, 0, 7, 96
5, 1036, Control_c, 0, 7, 95
5, 1046, Control_c, 0, 7, 94
5, 1056, Control_c, 0, 7, 93
5, 1056, Note_off_c, 0, 71, 0
5, 1056, Note_on_c, 0, 69, 110
5, 1065, Control_c, 0, 7, 92
5, 1075, Control_c, 0, 7, 91
5, 1084, Control_c, 0, 7, 90
5, 1094, Control_c, 0, 7, 89
5, 1104, Control_c, 0, 7, 88
5, 1104, Note_off_c, 0, 66, 0
5, 1104, Note_off_c, 0, 69, 0
5, 1104, Note_on_c, 0, 66, 110
5, 1113, Control_c, 0, 7, 87
5, 1123, Control_c, 0, 7, 86
5, 1132, Control_c, 0, 7, 85
5, 1142, Control_c, 0, 7, 84
5, 1152, Control_c, 0, 7, 83
5, 1152, Note_on_c, 0, 71, 110
5, 1200, Note_on_c, 0, 71, 0
5, 1200, Note_on_c, 0, 69, 110
5, 1248, Note_on_c, 0, 66, 0
5, 1248, Note_on_c, 0, 69, 0
5, 1248, Note_on_c, 0, 66, 110
5, 1296, Note_on_c, 0, 71, 110
5, 1344, Note_on_c, 0, 71, 0
5, 1344, Note_on_c, 0, 69, 110
5, 1392, Note_on_c, 0, 66, 0
5, 1392, Note_on_c, 0, 69, 0
5, 1392, Note_on_c, 0, 66, 110
5, 1440, Note_on_c, 0, 69, 110
5, 1488, Note_on_c, 0, 66, 0
5, 1488, Note_on_c, 0, 69, 0
5, 1488, Note_on_c, 0, 66, 110
5, 1536, Control_c, 0, 7, 79
5, 1536, Note_on_c, 0, 71, 110
5, 1548, Control_c, 0, 7, 80
5, 1561, Control_c, 0, 7, 81
5, 1574, Control_c, 0, 7, 82
5, 1584, Note_off_c, 0, 66, 0
5, 1584, Note_off_c, 0, 71, 0
5, 1584, Note_on_c, 0, 66, 110
5, 1587, Control_c, 0, 7, 83
5, 1600, Control_c, 0, 7, 84
5, 1612, Control_c, 0, 7, 85
5, 1625, Control_c, 0, 7, 86
5, 1632, Note_on_c, 0, 71, 110
5, 1638, Control_c, 0, 7, 87
5, 1651, Control_c, 0, 7, 88
5, 1664, Control_c, 0, 7, 89
5, 1676, Control_c, 0, 7, 90
5, 1680, Note_off_c, 0, 71, 0
5, 1680, Note_on_c, 0, 71, 110
5, 1689, Control_c, 0, 7, 91
5, 1702, Control_c, 0, 7, 92
5, 1715, Control_c, 0, 7, 93
5, 1728, Control_c, 0, 7, 94
5, 1728, Note_off_c, 0, 66, 0
5, 1728, Note_off_c, 0, 71, 0
5, 1728, Note_on_c, 0, 66, 110
5, 1742, Control_c, 0, 7, 95
5, 1757, Control_c, 0, 7, 96
5, 1772, Control_c, 0, 7, 97
5, 1776, Note_on_c, 0, 71, 110
5, 1787, Control_c, 0, 7, 98
5, 1801, Control_c, 0, 7, 99
5, 1816, Control_c, 0, 7, 100
5, 1824, Note_off_c, 0, 71, 0
5, 1824, Note_on_c, 0, 71, 110
5, 1831, Control_c, 0, 7, 101
5, 1846, Control_c, 0, 7, 102
5, 1860, Control_c, 0, 7, 103
5, 1872, Note_off_c, 0, 66, 0
5, 1872, Note_off_c, 0, 71, 0
5, 1872, Note_on_c, 0, 66, 110
5, 1875, Control_c, 0, 7, 104
5, 1890, Control_c, 0, 7, 105
5, 1905, Control_c, 0, 7, 106
5, 1920, Control_c, 0, 7, 107
5, 1920, Note_on_c, 0, 71, 110
5, 1930, Control_c, 0, 7, 108
5, 1941, Control_c, 0, 7, 109
5, 1952, Control_c, 0, 7, 110
5, 1962, Control_c, 0, 7, 111
5, 1968, Note_off_c, 0, 71, 0
5, 1968, Note_on_c, 0, 71, 110
5, 1973, Control_c, 0, 7, 112
5, 1984, Control_c, 0, 7, 113
5, 1994, Control_c, 0, 7, 114
5, 2005, Control_c, 0, 7, 115
5, 2016, Control_c, 0, 7, 116
5, 2016, Note_off_c, 0, 66, 0
5, 2016, Note_off_c, 0, 71, 0
5, 2016, Note_on_c, 0, 66, 110
5, 2026, Control_c, 0, 7, 117
5, 2037, Control_c, 0, 7, 118
5, 2048, Control_c, 0, 7, 119
5, 2058, Control_c, 0, 7, 120
5, 2064, Note_on_c, 0, 71, 110
5, 2069, Control_c, 0, 7, 121
5, 2080, Control_c, 0, 7, 122
5, 2090, Control_c, 0, 7, 123
5, 2101, Control_c, 0, 7, 124
5, 2112, Control_c, 0, 7, 125
5, 2112, Note_off_c, 0, 71, 0
5, 2112, Note_on_c, 0, 71, 110
5, 2160, Note_on_c, 0, 66, 0
5, 2160, Note_on_c, 0, 71, 0
5, 2160, Note_on_c, 0, 66, 110
5, 2208, Note_on_c, 0, 71, 110
5, 2256, Note_on_c, 0, 66, 0
5, 2256, Note_on_c, 0, 71, 0
5, 2256, Note_on_c, 0, 66, 110
5, 2304, Control_c, 0, 7, 127
5, 2304, Note_on_c, 0, 71, 110
5, 2312, Control_c, 0, 7, 126
5, 2320, Control_c, 0, 7, 125
5, 2328, Control_c, 0, 7, 124
5, 2336, Control_c, 0, 7, 123
5, 2344, Control_c, 0, 7, 122
5, 2352, Control_c, 0, 7, 121
5, 2352, Note_off_c, 0, 66, 0
5, 2352, Note_off_c, 0, 71, 0
5, 2352, Note_on_c, 0, 66, 110
5, 2360, Control_c, 0, 7, 120
5, 2368, Control_c, 0, 7, 119
5, 2376, Control_c, 0, 7, 118
5, 2384, Control_c, 0, 7, 117
5, 2392, Control_c, 0, 7, 116
5, 2400, Control_c, 0, 7, 115
5, 2400, Note_on_c, 0, 71, 110
5, 2408, Control_c, 0, 7, 114
5, 2416, Control_c, 0, 7, 113
5, 2424, Control_c, 0, 7, 112
5, 2432, Control_c, 0, 7, 111
5, 2440, Control_c, 0, 7, 110
5, 2448, Control_c, 0, 7, 109
5, 2448, Note_off_c, 0, 71, 0
5, 2448, Note_on_c, 0, 69, 110
5, 2456, Control_c, 0, 7, 108
5, 2464, Control_c, 0, 7, 107
5, 2472, Control_c, 0, 7, 106
5, 2480, Control_c, 0, 7, 105
5, 2488, Control_c, 0, 7, 104
5, 2496, Control_c, 0, 7, 103
5, 2496, Note_off_c, 0, 66, 0
5, 2496, Note_off_c, 0, 69, 0
5, 2496, Note_on_c, 0, 66, 110
5, 2505, Control_c, 0, 7, 102
5, 2515, Control_c, 0, 7, 101
5, 2524, Control_c, 0, 7, 100
5, 2534, Control_c, 0, 7, 99
5, 2544, Control_c, 0, 7, 98
5, 2544, Note_on_c, 0, 71, 110
5, 2553, Control_c, 0, 7, 97
5, 2563, Control_c, 0, 7, 96
5, 2572, Control_c, 0, 7, 95
5, 2582, Control_c, 0, 7, 94
5, 2592, Control_c, 0, 7, 93
5, 2592, Note_off_c, 0, 71, 0
5, 2592, Note_on_c, 0, 69, 110
5, 2601, Control_c, 0, 7, 92
5, 2611, Control_c, 0, 7, 91
5, 2620, Control_c, 0, 7, 90
5, 2630, Control_c, 0, 7, 89
5, 2640, Control_c, 0, 7, 88
5, 2640, Note_off_c, 0, 66, 0
5, 2640, Note_off_c, 0, 69, 0
5, 2640, Note_on_c, 0, 66, 110
5, 2649, Control_c, 0, 7, 87
5, 2659, Control_c, 0, 7, 86
5, 2668, Control_c, 0, 7, 85
5, 2678, Control_c, 0, 7, 84
5, 2688, Control_c, 0, 7, 83
5, 2688, Note_on_c, 0, 71, 110
5, 2736, Note_on_c, 0, 71, 0
5, 2736, Note_on_c, 0, 69, 110
5, 2784, Note_on_c, 0, 66, 0
5, 2784, Note_on_c, 0, 69, 0
5, 2784, Note_on_c, 0, 66, 110
5, 2832, Note_on_c, 0, 71, 110
5, 2880, Note_on_c, 0, 71, 0
5, 2880, Note_on_c, 0, 69, 110
5, 2928, Note_on_c, 0, 66, 0
5, 2928, Note_on_c, 0, 69, 0
5, 2928, Note_on_c, 0, 66, 110
5, 2976, Note_on_c, 0, 69, 110
5, 3024, Note_on_c, 0, 66, 0
5, 3024, Note_on_c, 0, 69, 0
5, 3024, Note_on_c, 0, 66, 110
5, 3072, Note_on_c, 0, 66, 0
5, 3072, Control_c, 0, 7, 90
5, 3072, Note_on_c, 0, 66, 110
5, 3078, Control_c, 0, 7, 91
5, 3084, Control_c, 0, 7, 92
5, 3091, Control_c, 0, 7, 93
5, 3097, Control_c, 0, 7, 94
5, 3104, Control_c, 0, 7, 95
5, 3110, Control_c, 0, 7, 96
5, 3116, Control_c, 0, 7, 97
5, 3120, Note_off_c, 0, 66, 0
5, 3120, Note_on_c, 0, 66, 110
5, 3123, Control_c, 0, 7, 98
5, 3129, Control_c, 0, 7, 99
5, 3136, Control_c, 0, 7, 100
5, 3142, Control_c, 0, 7, 101
5, 3148, Control_c, 0, 7, 102
5, 3155, Control_c, 0, 7, 103
5, 3161, Control_c, 0, 7, 104
5, 3168, Control_c, 0, 7, 105
5, 3168, Note_on_c, 0, 71, 110
5, 3176, Control_c, 0, 7, 106
5, 3184, Control_c, 0, 7, 107
5, 3192, Control_c, 0, 7, 108
5, 3200, Control_c, 0, 7, 109
5, 3208, Control_c, 0, 7, 110
5, 3216, Control_c, 0, 7, 111
5, 3216, Note_off_c, 0, 66, 0
5, 3216, Note_off_c, 0, 71, 0
5, 3216, Note_on_c, 0, 64, 110
5, 3224, Control_c, 0, 7, 112
5, 3232, Control_c, 0, 7, 113
5, 3240, Control_c, 0, 7, 114
5, 3248, Control_c, 0, 7, 115
5, 3256, Control_c, 0, 7, 116
5, 3264, Control_c, 0, 7, 117
5, 3264, Note_on_c, 0, 66, 110
5, 3273, Control_c, 0, 7, 118
5, 3283, Control_c, 0, 7, 119
5, 3292, Control_c, 0, 7, 120
5, 3302, Control_c, 0, 7, 121
5, 3312, Control_c, 0, 7, 122
5, 3312, Note_off_c, 0, 66, 0
5, 3312, Note_on_c, 0, 71, 110
5, 3321, Control_c, 0, 7, 123
5, 3331, Control_c, 0, 7, 124
5, 3340, Control_c, 0, 7, 125
5, 3350, Control_c, 0, 7, 126
5, 3360, Control_c, 0, 7, 127
5, 3360, Note_off_c, 0, 64, 0
5, 3360, Note_off_c, 0, 71, 0
5, 3360, Note_on_c, 0, 63, 110
5, 3408, Note_on_c, 0, 66, 110
5, 3456, Note_on_c, 0, 66, 0
5, 3456, Note_on_c, 0, 71, 110
5, 3504, Note_on_c, 0, 63, 0
5, 3504, Note_on_c, 0, 71, 0
5, 3504, Note_on_c, 0, 64, 110
5, 3552, Note_on_c, 0, 66, 110
5, 3600, Note_on_c, 0, 66, 0
5, 3600, Note_on_c, 0, 71, 110
5, 3648, Note_on_c, 0, 64, 0
5, 3648, Note_on_c, 0, 71, 0
5, 3648, Note_on_c, 0, 66, 110
5, 3696, Note_on_c, 0, 66, 0
5, 3696, Note_on_c, 0, 66, 110
5, 3744, Note_on_c, 0, 66, 0
5, 3744, Note_on_c, 0, 64, 110
5, 3840, Note_on_c, 0, 64, 0
5, 3840, Note_on_c, 0, 66, 110
5, 3888, Note_on_c, 0, 66, 0
5, 3888, Note_on_c, 0, 66, 110
5, 3936, Note_on_c, 0, 71, 110
5, 3984, Note_on_c, 0, 66, 0
5, 3984, Note_on_c, 0, 71, 0
5, 3984, Note_on_c, 0, 64, 110
5, 4032, Note_on_c, 0, 66, 110
5, 4080, Note_on_c, 0, 66, 0
5, 4080, Note_on_c, 0, 71, 110
5, 4128, Note_on_c, 0, 64, 0
5, 4128, Note_on_c, 0, 71, 0
5, 4128, Note_on_c, 0, 63, 110
5, 4176, Note_on_c, 0, 66, 110
5, 4224, Note_on_c, 0, 66, 0
5, 4224, Control_c, 0, 7, 127
5, 4224, Note_on_c, 0, 71, 110
5, 4232, Control_c, 0, 7, 126
5, 4240, Control_c, 0, 7, 125
5, 4248, Control_c, 0, 7, 124
5, 4256, Control_c, 0, 7, 123
5, 4264, Control_c, 0, 7, 122
5, 4272, Control_c, 0, 7, 121
5, 4272, Note_off_c, 0, 63, 0
5, 4272, Note_off_c, 0, 71, 0
5, 4272, Note_on_c, 0, 64, 110
5, 4280, Control_c, 0, 7, 120
5, 4288, Control_c, 0, 7, 119
5, 4296, Control_c, 0, 7, 118
5, 4304, Control_c, 0, 7, 117
5, 4312, Control_c, 0, 7, 116
5, 4320, Control_c, 0, 7, 115
5, 4320, Note_on_c, 0, 66, 110
5, 4332, Control_c, 0, 7, 114
5, 4344, Control_c, 0, 7, 113
5, 4356, Control_c, 0, 7, 112
5, 4368, Control_c, 0, 7, 111
5, 4368, Note_off_c, 0, 66, 0
5, 4368, Note_on_c, 0, 71, 110
5, 4380, Control_c, 0, 7, 110
5, 4392, Control_c, 0, 7, 109
5, 4404, Control_c, 0, 7, 108
5, 4416, Control_c, 0, 7, 107
5, 4416, Note_off_c, 0, 64, 0
5, 4416, Note_off_c, 0, 71, 0
5, 4416, Note_on_c, 0, 66, 110
5, 4425, Control_c, 0, 7, 106
5, 4435, Control_c, 0, 7, 105
5, 4444, Control_c, 0, 7, 104
5, 4454, Control_c, 0, 7, 103
5, 4464, Control_c, 0, 7, 102
5, 4464, Note_off_c, 0, 66, 0
5, 4464, Note_on_c, 0, 66, 110
5, 4473, Control_c, 0, 7, 101
5, 4483, Control_c, 0, 7, 100
5, 4492, Control_c, 0, 7, 99
5, 4502, Control_c, 0, 7, 98
5, 4512, Control_c, 0, 7, 97
5, 4512, Note_off_c, 0, 66, 0
5, 4512, Note_on_c, 0, 64, 110
5, 4608, Note_on_c, 0, 64, 0
5, 4608, Note_on_c, 0, 66, 110
5, 4632, Note_on_c, 0, 71, 110
5, 4656, Note_on_c, 0, 59, 110
5, 4656, Note_on_c, 0, 62, 110
5, 4992, Control_c, 0, 7, 97
5, 5004, Control_c, 0, 7, 98
5, 5016, Control_c, 0, 7, 99
5, 5028, Control_c, 0, 7, 100
5, 5040, Control_c, 0, 7, 101
5, 5052, Control_c, 0, 7, 102
5, 5064, Control_c, 0, 7, 103
5, 5076, Control_c, 0, 7, 104
5, 5088, Control_c, 0, 7, 105
5, 5088, Note_off_c, 0, 59, 0
5, 5088, Note_off_c, 0, 62, 0
5, 5088, Note_off_c, 0, 66, 0
5, 5088, Note_off_c, 0, 71, 0
5, 5096, Control_c, 0, 7, 106
5, 5104, Control_c, 0, 7, 107
5, 5112, Control_c, 0, 7, 108
5, 5120, Control_c, 0, 7, 109
5, 5128, Control_c, 0, 7, 110
5, 5136, Control_c, 0, 7, 111
5, 5136, Note_on_c, 0, 54, 110
5, 5144, Control_c, 0, 7, 112
5, 5152, Control_c, 0, 7, 113
5, 5160, Control_c, 0, 7, 114
5, 5168, Control_c, 0, 7, 115
5, 5176, Control_c, 0, 7, 116
5, 5184, Control_c, 0, 7, 117
5, 5184, Note_off_c, 0, 54, 0
5, 5184, Note_on_c, 0, 55, 110
5, 5193, Control_c, 0, 7, 118
5, 5203, Control_c, 0, 7, 119
5, 5212, Control_c, 0, 7, 120
5, 5222, Control_c, 0, 7, 121
5, 5232, Control_c, 0, 7, 122
5, 5232, Note_off_c, 0, 55, 0
5, 5232, Note_on_c, 0, 57, 110
5, 5241, Control_c, 0, 7, 123
5, 5251, Control_c, 0, 7, 124
5, 5260, Control_c, 0, 7, 125
5, 5270, Control_c, 0, 7, 126
5, 5280, Control_c, 0, 7, 127
5, 5280, Note_off_c, 0, 57, 0
5, 5280, Note_on_c, 0, 59, 110
5, 5328, Note_on_c, 0, 59, 0
5, 5328, Note_on_c, 0, 62, 110
5, 5376, Note_on_c, 0, 62, 0
5, 5376, Note_on_c, 0, 61, 110
5, 5376, Note_on_c, 0, 62, 110
5, 5472, Note_on_c, 0, 61, 0
5, 5472, Note_on_c, 0, 62, 0
5, 5472, Note_on_c, 0, 59, 110
5, 5472, Note_on_c, 0, 62, 110
5, 5520, Note_on_c, 0, 59, 0
5, 5520, Note_on_c, 0, 62, 0
5, 5520, Note_on_c, 0, 61, 110
5, 5520, Note_on_c, 0, 62, 110
5, 5616, Note_on_c, 0, 61, 0
5, 5616, Note_on_c, 0, 62, 0
5, 5616, Note_on_c, 0, 59, 110
5, 5616, Note_on_c, 0, 62, 110
5, 5664, Note_on_c, 0, 59, 0
5, 5664, Note_on_c, 0, 62, 0
5, 5664, Note_on_c, 0, 61, 110
5, 5664, Note_on_c, 0, 62, 110
5, 5760, Note_on_c, 0, 61, 0
5, 5760, Note_on_c, 0, 62, 0
5, 5760, Note_on_c, 0, 59, 110
5, 5760, Note_on_c, 0, 62, 110
5, 5808, Note_on_c, 0, 59, 0
5, 5808, Note_on_c, 0, 62, 0
5, 5808, Note_on_c, 0, 61, 110
5, 5808, Note_on_c, 0, 62, 110
5, 5904, Note_on_c, 0, 61, 0
5, 5904, Note_on_c, 0, 62, 0
5, 5904, Note_on_c, 0, 54, 110
5, 5952, Note_on_c, 0, 54, 0
5, 5952, Note_on_c, 0, 55, 110
5, 6000, Note_on_c, 0, 55, 0
5, 6000, Note_on_c, 0, 57, 110
5, 6048, Note_on_c, 0, 57, 0
5, 6048, Note_on_c, 0, 59, 110
5, 6096, Note_on_c, 0, 59, 0
5, 6096, Note_on_c, 0, 62, 110
5, 6144, Note_on_c, 0, 62, 0
5, 6144, Note_on_c, 0, 61, 110
5, 6144, Note_on_c, 0, 62, 110
5, 6240, Note_on_c, 0, 61, 0
5, 6240, Note_on_c, 0, 62, 0
5, 6240, Note_on_c, 0, 59, 110
5, 6240, Note_on_c, 0, 62, 110
5, 6288, Note_on_c, 0, 59, 0
5, 6288, Note_on_c, 0, 62, 0
5, 6288, Note_on_c, 0, 61, 110
5, 6288, Note_on_c, 0, 62, 110
5, 6384, Note_on_c, 0, 61, 0
5, 6384, Note_on_c, 0, 62, 0
5, 6384, Note_on_c, 0, 59, 110
5, 6384, Note_on_c, 0, 62, 110
5, 6432, Note_on_c, 0, 59, 0
5, 6432, Note_on_c, 0, 62, 0
5, 6432, Note_on_c, 0, 61, 110
5, 6432, Note_on_c, 0, 62, 110
5, 6528, Note_on_c, 0, 61, 0
5, 6528, Note_on_c, 0, 62, 0
5, 6528, Note_on_c, 0, 59, 110
5, 6528, Note_on_c, 0, 62, 110
5, 6576, Note_on_c, 0, 59, 0
5, 6576, Note_on_c, 0, 62, 0
5, 6576, Note_on_c, 0, 61, 110
5, 6576, Note_on_c, 0, 62, 110
5, 6672, Note_on_c, 0, 61, 0
5, 6672, Note_on_c, 0, 62, 0
5, 6672, Note_on_c, 0, 54, 110
5, 6720, Note_on_c, 0, 54, 0
5, 6720, Note_on_c, 0, 55, 110
5, 6768, Note_on_c, 0, 55, 0
5, 6768, Note_on_c, 0, 57, 110
5, 6816, Note_on_c, 0, 57, 0
5, 6816, Note_on_c, 0, 59, 110
5, 6864, Note_on_c, 0, 59, 0
5, 6864, Note_on_c, 0, 62, 110
5, 6912, Note_on_c, 0, 62, 0
5, 6912, Note_on_c, 0, 61, 110
5, 7008, Note_on_c, 0, 61, 0
5, 7008, Note_on_c, 0, 59, 110
5, 7056, Note_on_c, 0, 59, 0
5, 7056, Note_on_c, 0, 61, 110
5, 7152, Note_on_c, 0, 61, 0
5, 7152, Note_on_c, 0, 59, 110
5, 7200, Note_on_c, 0, 59, 0
5, 7200, Note_on_c, 0, 61, 110
5, 7296, Note_on_c, 0, 61, 0
5, 7296, Note_on_c, 0, 59, 110
5, 7344, Note_on_c, 0, 59, 0
5, 7344, Note_on_c, 0, 61, 110
5, 7440, Note_on_c, 0, 61, 0
5, 7440, Note_on_c, 0, 59, 110
5, 7488, Note_on_c, 0, 59, 0
5, 7488, Note_on_c, 0, 61, 110
5, 7536, Note_on_c, 0, 61, 0
5, 7536, Note_on_c, 0, 64, 110
5, 7584, Note_on_c, 0, 64, 0
5, 7584, Note_on_c, 0, 62, 110
5, 7632, Note_on_c, 0, 62, 0
5, 7632, Note_on_c, 0, 61, 110
5, 7656, Note_on_c, 0, 61, 0
5, 7656, Note_on_c, 0, 59, 110
5, 7680, Note_on_c, 0, 59, 0
5, 7680, Note_on_c, 0, 47, 110
5, 7680, Note_on_c, 0, 50, 110
5, 7774, Note_on_c, 0, 47, 0
5, 7774, Note_on_c, 0, 50, 0
5, 7776, Note_on_c, 0, 47, 110
5, 7822, Note_on_c, 0, 47, 0
5, 7824, Note_on_c, 0, 47, 110
5, 7870, Note_on_c, 0, 47, 0
5, 7872, Note_on_c, 0, 47, 110
5, 7872, Note_on_c, 0, 50, 110
5, 7966, Note_on_c, 0, 47, 0
5, 7966, Note_on_c, 0, 50, 0
5, 7968, Note_on_c, 0, 47, 110
5, 8014, Note_on_c, 0, 47, 0
5, 8016, Note_on_c, 0, 47, 110
5, 8062, Note_on_c, 0, 47, 0
5, 8064, Note_on_c, 0, 45, 110
5, 8110, Note_on_c, 0, 45, 0
5, 8112, Note_on_c, 0, 47, 110
5, 8158, Note_on_c, 0, 47, 0
5, 8160, Note_on_c, 0, 47, 110
5, 8160, Note_on_c, 0, 50, 110
5, 8254, Note_on_c, 0, 47, 0
5, 8254, Note_on_c, 0, 50, 0
5, 8256, Note_on_c, 0, 47, 110
5, 8256, Note_on_c, 0, 50, 110
5, 8350, Note_on_c, 0, 47, 0
5, 8350, Note_on_c, 0, 50, 0
5, 8352, Note_on_c, 0, 47, 110
5, 8352, Note_on_c, 0, 50, 110
5, 8446, Note_on_c, 0, 47, 0
5, 8446, Note_on_c, 0, 50, 0
5, 8448, Note_on_c, 0, 50, 110
5, 8448, Note_on_c, 0, 55, 110
5, 8542, Note_on_c, 0, 50, 0
5, 8542, Note_on_c, 0, 55, 0
5, 8544, Note_on_c, 0, 50, 110
5, 8544, Note_on_c, 0, 55, 110
5, 8638, Note_on_c, 0, 50, 0
5, 8638, Note_on_c, 0, 55, 0
5, 8640, Note_on_c, 0, 50, 110
5, 8640, Note_on_c, 0, 55, 110
5, 8734, Note_on_c, 0, 50, 0
5, 8734, Note_on_c, 0, 55, 0
5, 8736, Note_on_c, 0, 55, 110
5, 8782, Note_on_c, 0, 55, 0
5, 8784, Note_on_c, 0, 55, 110
5, 8830, Note_on_c, 0, 55, 0
5, 8832, Note_on_c, 0, 52, 110
5, 8832, Note_on_c, 0, 57, 110
5, 8926, Note_on_c, 0, 52, 0
5, 8926, Note_on_c, 0, 57, 0
5, 8928, Note_on_c, 0, 52, 110
5, 8928, Note_on_c, 0, 57, 110
5, 8974, Note_on_c, 0, 52, 0
5, 8974, Note_on_c, 0, 57, 0
5, 8976, Note_on_c, 0, 52, 110
5, 8976, Note_on_c, 0, 57, 110
5, 9022, Note_on_c, 0, 52, 0
5, 9022, Note_on_c, 0, 57, 0
5, 9024, Note_on_c, 0, 57, 110
5, 9070, Note_on_c, 0, 57, 0
5, 9072, Note_on_c, 0, 57, 110
5, 9118, Note_on_c, 0, 57, 0
5, 9120, Note_on_c, 0, 52, 110
5, 9120, Note_on_c, 0, 57, 110
5, 9214, Note_on_c, 0, 52, 0
5, 9214, Note_on_c, 0, 57, 0
5, 9216, Note_on_c, 0, 45, 110
5, 9216, Note_on_c, 0, 50, 110
5, 9262, Note_on_c, 0, 50, 0
5, 9264, Note_on_c, 0, 50, 110
5, 9310, Note_on_c, 0, 45, 0
5, 9310, Note_on_c, 0, 50, 0
5, 9312, Note_on_c, 0, 45, 110
5, 9312, Note_on_c, 0, 50, 110
5, 9406, Note_on_c, 0, 45, 0
5, 9406, Note_on_c, 0, 50, 0
5, 9408, Note_on_c, 0, 45, 110
5, 9408, Note_on_c, 0, 49, 110
5, 9454, Note_on_c, 0, 45, 0
5, 9454, Note_on_c, 0, 49, 0
5, 9456, Note_on_c, 0, 45, 110
5, 9456, Note_on_c, 0, 49, 110
5, 9502, Note_on_c, 0, 45, 0
5, 9502, Note_on_c, 0, 49, 0
5, 9504, Note_on_c, 0, 45, 110
5, 9504, Note_on_c, 0, 49, 110
5, 9598, Note_on_c, 0, 45, 0
5, 9598, Note_on_c, 0, 49, 0
5, 9600, Note_on_c, 0, 47, 110
5, 9600, Note_on_c, 0, 50, 110
5, 9694, Note_on_c, 0, 47, 0
5, 9694, Note_on_c, 0, 50, 0
5, 9696, Note_on_c, 0, 47, 110
5, 9742, Note_on_c, 0, 47, 0
5, 9744, Note_on_c, 0, 47, 110
5, 9790, Note_on_c, 0, 47, 0
5, 9792, Note_on_c, 0, 47, 110
5, 9792, Note_on_c, 0, 50, 110
5, 9886, Note_on_c, 0, 47, 0
5, 9886, Note_on_c, 0, 50, 0
5, 9888, Note_on_c, 0, 47, 110
5, 9934, Note_on_c, 0, 47, 0
5, 9936, Note_on_c, 0, 47, 110
5, 9982, Note_on_c, 0, 47, 0
5, 9984, Note_on_c, 0, 50, 110
5, 9984, Note_on_c, 0, 55, 110
5, 10078, Note_on_c, 0, 50, 0
5, 10078, Note_on_c, 0, 55, 0
5, 10080, Note_on_c, 0, 50, 110
5, 10080, Note_on_c, 0, 55, 110
5, 10174, Note_on_c, 0, 50, 0
5, 10174, Note_on_c, 0, 55, 0
5, 10176, Note_on_c, 0, 55, 110
5, 10270, Note_on_c, 0, 55, 0
5, 10272, Note_on_c, 0, 55, 110
5, 10318, Note_on_c, 0, 55, 0
5, 10320, Note_on_c, 0, 55, 110
5, 10366, Note_on_c, 0, 55, 0
5, 10368, Note_on_c, 0, 49, 110
5, 10368, Note_on_c, 0, 52, 110
5, 10368, Note_on_c, 0, 57, 110
5, 10462, Note_on_c, 0, 49, 0
5, 10462, Note_on_c, 0, 52, 0
5, 10462, Note_on_c, 0, 57, 0
5, 10464, Note_on_c, 0, 57, 110
5, 10510, Note_on_c, 0, 57, 0
5, 10512, Note_on_c, 0, 57, 110
5, 10558, Note_on_c, 0, 57, 0
5, 10560, Note_on_c, 0, 57, 110
5, 10606, Note_on_c, 0, 57, 0
5, 10608, Note_on_c, 0, 57, 110
5, 10654, Note_on_c, 0, 57, 0
5, 10656, Note_on_c, 0, 49, 110
5, 10656, Note_on_c, 0, 52, 110
5, 10656, Note_on_c, 0, 57, 110
5, 10750, Note_on_c, 0, 49, 0
5, 10750, Note_on_c, 0, 52, 0
5, 10750, Note_on_c, 0, 57, 0
5, 10752, Note_on_c, 0, 45, 110
5, 10752, Note_on_c, 0, 50, 110
5, 10798, Note_on_c, 0, 45, 0
5, 10798, Note_on_c, 0, 50, 0
5, 10800, Note_on_c, 0, 45, 110
5, 10800, Note_on_c, 0, 50, 110
5, 10846, Note_on_c, 0, 45, 0
5, 10846, Note_on_c, 0, 50, 0
5, 10848, Note_on_c, 0, 45, 110
5, 10848, Note_on_c, 0, 50, 110
5, 10942, Note_on_c, 0, 45, 0
5, 10942, Note_on_c, 0, 50, 0
5, 10944, Note_on_c, 0, 45, 110
5, 10944, Note_on_c, 0, 50, 110
5, 11038, Note_on_c, 0, 45, 0
5, 11038, Note_on_c, 0, 50, 0
5, 11040, Note_on_c, 0, 50, 110
5, 11086, Note_on_c, 0, 50, 0
5, 11088, Note_on_c, 0, 50, 110
5, 11134, Note_on_c, 0, 50, 0
5, 11136, Note_on_c, 0, 44, 110
5, 11136, Note_on_c, 0, 47, 110
5, 11136, Note_on_c, 0, 52, 110
5, 11230, Note_on_c, 0, 44, 0
5, 11230, Note_on_c, 0, 47, 0
5, 11230, Note_on_c, 0, 52, 0
5, 11232, Note_on_c, 0, 52, 110
5, 11278, Note_on_c, 0, 52, 0
5, 11280, Note_on_c, 0, 52, 110
5, 11326, Note_on_c, 0, 52, 0
5, 11328, Note_on_c, 0, 52, 110
5, 11374, Note_on_c, 0, 52, 0
5, 11376, Note_on_c, 0, 52, 110
5, 11422, Note_on_c, 0, 52, 0
5, 11424, Note_on_c, 0, 49, 110
5, 11424, Note_on_c, 0, 52, 110
5, 11470, Note_on_c, 0, 49, 0
5, 11470, Note_on_c, 0, 52, 0
5, 11472, Note_on_c, 0, 52, 110
5, 11518, Note_on_c, 0, 52, 0
5, 11520, Note_on_c, 0, 50, 110
5, 11520, Note_on_c, 0, 55, 110
5, 11566, Note_on_c, 0, 50, 0
5, 11566, Note_on_c, 0, 55, 0
5, 11568, Note_on_c, 0, 55, 110
5, 11614, Note_on_c, 0, 55, 0
5, 11616, Note_on_c, 0, 50, 110
5, 11616, Note_on_c, 0, 55, 110
5, 11710, Note_on_c, 0, 50, 0
5, 11710, Note_on_c, 0, 55, 0
5, 11712, Note_on_c, 0, 50, 110
5, 11712, Note_on_c, 0, 55, 110
5, 11806, Note_on_c, 0, 50, 0
5, 11806, Note_on_c, 0, 55, 0
5, 11808, Note_on_c, 0, 55, 110
5, 11854, Note_on_c, 0, 55, 0
5, 11856, Note_on_c, 0, 55, 110
5, 11902, Note_on_c, 0, 55, 0
5, 11904, Note_on_c, 0, 49, 110
5, 11904, Note_on_c, 0, 52, 110
5, 11904, Note_on_c, 0, 57, 110
5, 11998, Note_on_c, 0, 49, 0
5, 11998, Note_on_c, 0, 52, 0
5, 11998, Note_on_c, 0, 57, 0
5, 12000, Note_on_c, 0, 57, 110
5, 12046, Note_on_c, 0, 57, 0
5, 12048, Note_on_c, 0, 57, 110
5, 12094, Note_on_c, 0, 57, 0
5, 12096, Note_on_c, 0, 57, 110
5, 12142, Note_on_c, 0, 57, 0
5, 12144, Note_on_c, 0, 57, 110
5, 12190, Note_on_c, 0, 57, 0
5, 12192, Note_on_c, 0, 57, 110
5, 12286, Note_on_c, 0, 57, 0
5, 12288, Note_on_c, 0, 45, 110
5, 12288, Note_on_c, 0, 50, 110
5, 12334, Note_on_c, 0, 50, 0
5, 12336, Note_on_c, 0, 50, 110
5, 12382, Note_on_c, 0, 45, 0
5, 12382, Note_on_c, 0, 50, 0
5, 12384, Note_on_c, 0, 45, 110
5, 12384, Note_on_c, 0, 50, 110
5, 12478, Note_on_c, 0, 45, 0
5, 12478, Note_on_c, 0, 50, 0
5, 12480, Note_on_c, 0, 45, 110
5, 12480, Note_on_c, 0, 49, 110
5, 12526, Note_on_c, 0, 45, 0
5, 12526, Note_on_c, 0, 49, 0
5, 12528, Note_on_c, 0, 45, 110
5, 12528, Note_on_c, 0, 49, 110
5, 12574, Note_on_c, 0, 45, 0
5, 12574, Note_on_c, 0, 49, 0
5, 12576, Note_on_c, 0, 45, 110
5, 12576, Note_on_c, 0, 49, 110
5, 12670, Note_on_c, 0, 45, 0
5, 12670, Note_on_c, 0, 49, 0
5, 12672, Note_on_c, 0, 47, 110
5, 12672, Note_on_c, 0, 50, 110
5, 12766, Note_on_c, 0, 47, 0
5, 12766, Note_on_c, 0, 50, 0
5, 12768, Note_on_c, 0, 47, 110
5, 12814, Note_on_c, 0, 47, 0
5, 12816, Note_on_c, 0, 47, 110
5, 12862, Note_on_c, 0, 47, 0
5, 12864, Note_on_c, 0, 47, 110
5, 12864, Note_on_c, 0, 50, 110
5, 12958, Note_on_c, 0, 47, 0
5, 12958, Note_on_c, 0, 50, 0
5, 12960, Note_on_c, 0, 47, 110
5, 13006, Note_on_c, 0, 47, 0
5, 13008, Note_on_c, 0, 47, 110
5, 13054, Note_on_c, 0, 47, 0
5, 13056, Note_on_c, 0, 45, 110
5, 13102, Note_on_c, 0, 45, 0
5, 13104, Note_on_c, 0, 45, 110
5, 13150, Note_on_c, 0, 45, 0
5, 13152, Note_on_c, 0, 45, 110
5, 13198, Note_on_c, 0, 45, 0
5, 13200, Note_on_c, 0, 45, 110
5, 13246, Note_on_c, 0, 45, 0
5, 13248, Note_on_c, 0, 45, 110
5, 13342, Note_on_c, 0, 45, 0
5, 13344, Note_on_c, 0, 45, 110
5, 13390, Note_on_c, 0, 45, 0
5, 13392, Note_on_c, 0, 45, 110
5, 13438, Note_on_c, 0, 45, 0
5, 13440, Note_on_c, 0, 43, 110
5, 13486, Note_on_c, 0, 43, 0
5, 13488, Note_on_c, 0, 45, 110
5, 13534, Note_on_c, 0, 45, 0
5, 13536, Note_on_c, 0, 45, 110
5, 13582, Note_on_c, 0, 45, 0
5, 13584, Note_on_c, 0, 45, 110
5, 13630, Note_on_c, 0, 45, 0
5, 13632, Note_on_c, 0, 43, 110
5, 13678, Note_on_c, 0, 43, 0
5, 13680, Note_on_c, 0, 45, 110
5, 13726, Note_on_c, 0, 45, 0
5, 13728, Note_on_c, 0, 45, 110
5, 13774, Note_on_c, 0, 45, 0
5, 13776, Note_on_c, 0, 45, 110
5, 13822, Note_on_c, 0, 45, 0
5, 13824, Note_on_c, 0, 43, 110
5, 13918, Note_on_c, 0, 43, 0
5, 13920, Note_on_c, 0, 55, 110
5, 14014, Note_on_c, 0, 55, 0
5, 14016, Note_on_c, 0, 54, 110
5, 14064, Note_on_c, 0, 54, 0
5, 14064, Note_on_c, 0, 52, 110
5, 14110, Note_on_c, 0, 52, 0
5, 14112, Note_on_c, 0, 50, 110
5, 14206, Note_on_c, 0, 50, 0
5, 14208, Note_on_c, 0, 50, 110
5, 14544, Note_on_c, 0, 50, 0
5, 14592, Note_on_c, 0, 38, 110
5, 14640, Note_on_c, 0, 45, 110
5, 14686, Note_on_c, 0, 45, 0
5, 14688, Note_on_c, 0, 50, 110
5, 14848, Note_on_c, 0, 38, 0
5, 14848, Note_on_c, 0, 50, 0
5, 14880, Note_on_c, 0, 50, 110
5, 14926, Note_on_c, 0, 50, 0
5, 14928, Note_on_c, 0, 50, 110
5, 14974, Note_on_c, 0, 50, 0
5, 14976, Note_on_c, 0, 47, 110
5, 15070, Note_on_c, 0, 47, 0
5, 15072, Note_on_c, 0, 47, 110
5, 15118, Note_on_c, 0, 47, 0
5, 15120, Note_on_c, 0, 47, 110
5, 15166, Note_on_c, 0, 47, 0
5, 15168, Note_on_c, 0, 47, 110
5, 15262, Note_on_c, 0, 47, 0
5, 15264, Note_on_c, 0, 47, 110
5, 15310, Note_on_c, 0, 47, 0
5, 15312, Note_on_c, 0, 47, 110
5, 15358, Note_on_c, 0, 47, 0
5, 15360, Note_on_c, 0, 45, 110
5, 15406, Note_on_c, 0, 45, 0
5, 15408, Note_on_c, 0, 45, 110
5, 15454, Note_on_c, 0, 45, 0
5, 15456, Note_on_c, 0, 45, 110
5, 15502, Note_on_c, 0, 45, 0
5, 15504, Note_on_c, 0, 43, 110
5, 15550, Note_on_c, 0, 43, 0
5, 15552, Note_on_c, 0, 45, 110
5, 15646, Note_on_c, 0, 45, 0
5, 15648, Note_on_c, 0, 45, 110
5, 15694, Note_on_c, 0, 45, 0
5, 15696, Note_on_c, 0, 45, 110
5, 15742, Note_on_c, 0, 45, 0
5, 15744, Note_on_c, 0, 43, 110
5, 15790, Note_on_c, 0, 43, 0
5, 15792, Note_on_c, 0, 45, 110
5, 15838, Note_on_c, 0, 45, 0
5, 15840, Note_on_c, 0, 45, 110
5, 15886, Note_on_c, 0, 45, 0
5, 15888, Note_on_c, 0, 45, 110
5, 15934, Note_on_c, 0, 45, 0
5, 15936, Note_on_c, 0, 43, 110
5, 15982, Note_on_c, 0, 43, 0
5, 15984, Note_on_c, 0, 45, 110
5, 16030, Note_on_c, 0, 45, 0
5, 16032, Note_on_c, 0, 45, 110
5, 16078, Note_on_c, 0, 45, 0
5, 16080, Note_on_c, 0, 45, 110
5, 16126, Note_on_c, 0, 45, 0
5, 16128, Note_on_c, 0, 52, 110
5, 16174, Note_on_c, 0, 52, 0
5, 16176, Note_on_c, 0, 52, 110
5, 16222, Note_on_c, 0, 52, 0
5, 16224, Note_on_c, 0, 52, 110
5, 16270, Note_on_c, 0, 52, 0
5, 16272, Note_on_c, 0, 50, 110
5, 16318, Note_on_c, 0, 50, 0
5, 16320, Note_on_c, 0, 52, 110
5, 16414, Note_on_c, 0, 52, 0
5, 16416, Note_on_c, 0, 47, 110
5, 16558, Note_on_c, 0, 47, 0
5, 16560, Note_on_c, 0, 47, 110
5, 16654, Note_on_c, 0, 47, 0
5, 16656, Note_on_c, 0, 47, 110
5, 16702, Note_on_c, 0, 47, 0
5, 16704, Note_on_c, 0, 45, 110
5, 16704, Note_on_c, 0, 49, 110
5, 16750, Note_on_c, 0, 45, 0
5, 16750, Note_on_c, 0, 49, 0
5, 16752, Note_on_c, 0, 45, 110
5, 16752, Note_on_c, 0, 49, 110
5, 16798, Note_on_c, 0, 45, 0
5, 16798, Note_on_c, 0, 49, 0
5, 16800, Note_on_c, 0, 45, 110
5, 16800, Note_on_c, 0, 49, 110
5, 16846, Note_on_c, 0, 45, 0
5, 16846, Note_on_c, 0, 49, 0
5, 16848, Note_on_c, 0, 45, 110
5, 16848, Note_on_c, 0, 49, 110
5, 16894, Note_on_c, 0, 45, 0
5, 16894, Note_on_c, 0, 49, 0
5, 16896, Note_on_c, 0, 45, 110
5, 16942, Note_on_c, 0, 45, 0
5, 16944, Note_on_c, 0, 45, 110
5, 16990, Note_on_c, 0, 45, 0
5, 16992, Note_on_c, 0, 45, 110
5, 17038, Note_on_c, 0, 45, 0
5, 17040, Note_on_c, 0, 43, 110
5, 17086, Note_on_c, 0, 43, 0
5, 17088, Note_on_c, 0, 45, 110
5, 17182, Note_on_c, 0, 45, 0
5, 17184, Note_on_c, 0, 45, 110
5, 17230, Note_on_c, 0, 45, 0
5, 17232, Note_on_c, 0, 45, 110
5, 17278, Note_on_c, 0, 45, 0
5, 17280, Note_on_c, 0, 43, 110
5, 17326, Note_on_c, 0, 43, 0
5, 17328, Note_on_c, 0, 45, 110
5, 17374, Note_on_c, 0, 45, 0
5, 17376, Note_on_c, 0, 45, 110
5, 17422, Note_on_c, 0, 45, 0
5, 17424, Note_on_c, 0, 45, 110
5, 17470, Note_on_c, 0, 45, 0
5, 17472, Note_on_c, 0, 43, 110
5, 17518, Note_on_c, 0, 43, 0
5, 17520, Note_on_c, 0, 45, 110
5, 17566, Note_on_c, 0, 45, 0
5, 17568, Note_on_c, 0, 45, 110
5, 17614, Note_on_c, 0, 45, 0
5, 17616, Note_on_c, 0, 45, 110
5, 17662, Note_on_c, 0, 45, 0
5, 17664, Note_on_c, 0, 52, 110
5, 17710, Note_on_c, 0, 52, 0
5, 17712, Note_on_c, 0, 52, 110
5, 17758, Note_on_c, 0, 52, 0
5, 17760, Note_on_c, 0, 52, 110
5, 17806, Note_on_c, 0, 52, 0
5, 17808, Note_on_c, 0, 50, 110
5, 17854, Note_on_c, 0, 50, 0
5, 17856, Note_on_c, 0, 52, 110
5, 17950, Note_on_c, 0, 52, 0
5, 17952, Control_c, 0, 7, 114
5, 17952, Note_on_c, 0, 47, 110
5, 17973, Control_c, 0, 7, 113
5, 17994, Control_c, 0, 7, 112
5, 18016, Control_c, 0, 7, 111
5, 18037, Control_c, 0, 7, 110
5, 18058, Control_c, 0, 7, 109
5, 18080, Control_c, 0, 7, 108
5, 18096, Note_on_c, 0, 61, 110
5, 18101, Control_c, 0, 7, 107
5, 18122, Control_c, 0, 7, 106
5, 18144, Control_c, 0, 7, 105
5, 18165, Control_c, 0, 7, 104
5, 18186, Control_c, 0, 7, 103
5, 18190, Note_off_c, 0, 61, 0
5, 18192, Note_on_c, 0, 64, 110
5, 18208, Control_c, 0, 7, 102
5, 18208, Note_off_c, 0, 47, 0
5, 18229, Control_c, 0, 7, 101
5, 18238, Note_off_c, 0, 64, 0
5, 18240, Note_on_c, 0, 47, 110
5, 18240, Note_on_c, 0, 61, 110
5, 18250, Control_c, 0, 7, 100
5, 18272, Control_c, 0, 7, 99
5, 18293, Control_c, 0, 7, 98
5, 18314, Control_c, 0, 7, 97
5, 18336, Control_c, 0, 7, 96
5, 18353, Control_c, 0, 7, 95
5, 18370, Control_c, 0, 7, 94
5, 18382, Note_off_c, 0, 61, 0
5, 18384, Note_on_c, 0, 59, 110
5, 18388, Control_c, 0, 7, 93
5, 18405, Control_c, 0, 7, 92
5, 18423, Control_c, 0, 7, 91
5, 18440, Control_c, 0, 7, 90
5, 18458, Control_c, 0, 7, 89
5, 18475, Control_c, 0, 7, 88
5, 18478, Note_off_c, 0, 59, 0
5, 18480, Note_on_c, 0, 61, 110
5, 18493, Control_c, 0, 7, 87
5, 18496, Note_off_c, 0, 47, 0
5, 18510, Control_c, 0, 7, 86
5, 18526, Note_off_c, 0, 61, 0
5, 18528, Control_c, 0, 7, 85
5, 18528, Note_on_c, 0, 47, 110
5, 18528, Note_on_c, 0, 64, 110
5, 18545, Control_c, 0, 7, 84
5, 18562, Control_c, 0, 7, 83
5, 18580, Control_c, 0, 7, 82
5, 18597, Control_c, 0, 7, 81
5, 18615, Control_c, 0, 7, 80
5, 18632, Control_c, 0, 7, 79
5, 18650, Control_c, 0, 7, 78
5, 18667, Control_c, 0, 7, 77
5, 18670, Note_off_c, 0, 64, 0
5, 18672, Note_on_c, 0, 61, 110
5, 18685, Control_c, 0, 7, 76
5, 18702, Control_c, 0, 7, 75
5, 18720, Control_c, 0, 7, 74
5, 18739, Control_c, 0, 7, 73
5, 18758, Control_c, 0, 7, 72
5, 18766, Note_off_c, 0, 61, 0
5, 18768, Note_on_c, 0, 64, 110
5, 18777, Control_c, 0, 7, 71
5, 18784, Note_off_c, 0, 47, 0
5, 18796, Control_c, 0, 7, 70
5, 18814, Note_off_c, 0, 64, 0
5, 18816, Control_c, 0, 7, 69
5, 18816, Note_on_c, 0, 47, 110
5, 18816, Note_on_c, 0, 61, 110
5, 18835, Control_c, 0, 7, 68
5, 18854, Control_c, 0, 7, 67
5, 18873, Control_c, 0, 7, 66
5, 18892, Control_c, 0, 7, 65
5, 18912, Control_c, 0, 7, 64
5, 18931, Control_c, 0, 7, 63
5, 18950, Control_c, 0, 7, 62
5, 18958, Note_off_c, 0, 61, 0
5, 18960, Note_on_c, 0, 59, 110
5, 18969, Control_c, 0, 7, 61
5, 18988, Control_c, 0, 7, 60
5, 19008, Control_c, 0, 7, 59
5, 19027, Control_c, 0, 7, 58
5, 19046, Control_c, 0, 7, 57
5, 19054, Note_off_c, 0, 59, 0
5, 19056, Note_on_c, 0, 61, 110
5, 19065, Control_c, 0, 7, 56
5, 19072, Note_off_c, 0, 47, 0
5, 19084, Control_c, 0, 7, 55
5, 19102, Note_off_c, 0, 61, 0
5, 19104, Control_c, 0, 7, 54
5, 19104, Note_on_c, 0, 47, 110
5, 19104, Note_on_c, 0, 64, 110
5, 19360, Note_on_c, 0, 47, 0
5, 19360, Note_on_c, 0, 64, 0
5, 19360, End_track
6, 0, Start_track
6, 0, MIDI_port, 0
6, 0, Title_t, "Acoustic Guitar 2"
6, 0, Program_c, 1, 25
6, 0, Control_c, 1, 7, 127
6, 0, Control_c, 1, 10, 64
6, 0, Control_c, 1, 7, 79
6, 0, Note_on_c, 1, 71, 110
6, 12, Control_c, 1, 7, 80
6, 25, Control_c, 1, 7, 81
6, 38, Control_c, 1, 7, 82
6, 51, Control_c, 1, 7, 83
6, 64, Control_c, 1, 7, 84
6, 76, Control_c, 1, 7, 85
6, 89, Control_c, 1, 7, 86
6, 102, Control_c, 1, 7, 87
6, 115, Control_c, 1, 7, 88
6, 128, Control_c, 1, 7, 89
6, 140, Control_c, 1, 7, 90
6, 153, Control_c, 1, 7, 91
6, 166, Control_c, 1, 7, 92
6, 179, Control_c, 1, 7, 93
6, 192, Control_c, 1, 7, 94
6, 206, Control_c, 1, 7, 95
6, 221, Control_c, 1, 7, 96
6, 236, Control_c, 1, 7, 97
6, 251, Control_c, 1, 7, 98
6, 265, Control_c, 1, 7, 99
6, 280, Control_c, 1, 7, 100
6, 295, Control_c, 1, 7, 101
6, 310, Control_c, 1, 7, 102
6, 324, Control_c, 1, 7, 103
6, 339, Control_c, 1, 7, 104
6, 354, Control_c, 1, 7, 105
6, 369, Control_c, 1, 7, 106
6, 384, Control_c, 1, 7, 107
6, 394, Control_c, 1, 7, 108
6, 405, Control_c, 1, 7, 109
6, 416, Control_c, 1, 7, 110
6, 426, Control_c, 1, 7, 111
6, 437, Control_c, 1, 7, 112
6, 448, Control_c, 1, 7, 113
6, 458, Control_c, 1, 7, 114
6, 469, Control_c, 1, 7, 115
6, 480, Control_c, 1, 7, 116
6, 490, Control_c, 1, 7, 117
6, 501, Control_c, 1, 7, 118
6, 512, Control_c, 1, 7, 119
6, 522, Control_c, 1, 7, 120
6, 533, Control_c, 1, 7, 121
6, 544, Control_c, 1, 7, 122
6, 554, Control_c, 1, 7, 123
6, 565, Control_c, 1, 7, 124
6, 576, Control_c, 1, 7, 125
6, 768, Note_off_c, 1, 71, 0
6, 768, Note_on_c, 1, 71, 110
6, 816, Note_on_c, 1, 71, 0
6, 816, Note_on_c, 1, 73, 110
6, 864, Note_on_c, 1, 73, 0
6, 864, Note_on_c, 1, 74, 110
6, 1536, Note_on_c, 1, 74, 0
6, 1536, Control_c, 1, 7, 79
6, 1536, Note_on_c, 1, 71, 110
6, 1548, Control_c, 1, 7, 80
6, 1561, Control_c, 1, 7, 81
6, 1574, Control_c, 1, 7, 82
6, 1587, Control_c, 1, 7, 83
6, 1600, Control_c, 1, 7, 84
6, 1612, Control_c, 1, 7, 85
6, 1625, Control_c, 1, 7, 86
6, 1638, Control_c, 1, 7, 87
6, 1651, Control_c, 1, 7, 88
6, 1664, Control_c, 1, 7, 89
6, 1676, Control_c, 1, 7, 90
6, 1689, Control_c, 1, 7, 91
6, 1702, Control_c, 1, 7, 92
6, 1715, Control_c, 1, 7, 93
6, 1728, Control_c, 1, 7, 94
6, 1742, Control_c, 1, 7, 95
6, 1757, Control_c, 1, 7, 96
6, 1772, Control_c, 1, 7, 97
6, 1787, Control_c, 1, 7, 98
6, 1801, Control_c, 1, 7, 99
6, 1816, Control_c, 1, 7, 100
6, 1831, Control_c, 1, 7, 101
6, 1846, Control_c, 1, 7, 102
6, 1860, Control_c, 1, 7, 103
6, 1875, Control_c, 1, 7, 104
6, 1890, Control_c, 1, 7, 105
6, 1905, Control_c, 1, 7, 106
6, 1920, Control_c, 1, 7, 107
6, 1930, Control_c, 1, 7, 108
6, 1941, Control_c, 1, 7, 109
6, 1952, Control_c, 1, 7, 110
6, 1962, Control_c, 1, 7, 111
6, 1973, Control_c, 1, 7, 112
6, 1984, Control_c, 1, 7, 113
6, 1994, Control_c, 1, 7, 114
6, 2005, Control_c, 1, 7, 115
6, 2016, Control_c, 1, 7, 116
6, 2026, Control_c, 1, 7, 117
6, 2037, Control_c, 1, 7, 118
6, 2048, Control_c, 1, 7, 119
6, 2058, Control_c, 1, 7, 120
6, 2069, Control_c, 1, 7, 121
6, 2080, Control_c, 1, 7, 122
6, 2090, Control_c, 1, 7, 123
6, 2101, Control_c, 1, 7, 124
6, 2112, Control_c, 1, 7, 125
6, 2304, Note_off_c, 1, 71, 0
6, 2304, Note_on_c, 1, 71, 110
6, 2352, Note_on_c, 1, 71, 0
6, 2352, Note_on_c, 1, 73, 110
6, 2400, Note_on_c, 1, 73, 0
6, 2400, Note_on_c, 1, 74, 110
6, 3072, Note_on_c, 1, 74, 0
6, 3072, Note_on_c, 1, 71, 110
6, 3216, Note_on_c, 1, 71, 0
6, 3216, Note_on_c, 1, 69, 110
6, 3360, Note_on_c, 1, 69, 0
6, 3360, Note_on_c, 1, 66, 110
6, 3504, Note_on_c, 1, 66, 0
6, 3504, Note_on_c, 1, 69, 110
6, 3648, Note_on_c, 1, 69, 0
6, 3648, Note_on_c, 1, 66, 110
6, 3648, Note_on_c, 1, 71, 110
6, 3744, Note_on_c, 1, 66, 0
6, 3744, Note_on_c, 1, 71, 0
6, 3744, Note_on_c, 1, 74, 110
6, 3840, Note_on_c, 1, 74, 0
6, 3840, Note_on_c, 1, 71, 110
6, 3984, Note_on_c, 1, 71, 0
6, 3984, Note_on_c, 1, 69, 110
6, 4128, Note_on_c, 1, 69, 0
6, 4128, Note_on_c, 1, 66, 110
6, 4272, Note_on_c, 1, 66, 0
6, 4272, Note_on_c, 1, 69, 110
6, 4416, Note_on_c, 1, 69, 0
6, 4416, Note_on_c, 1, 66, 110
6, 4416, Note_on_c, 1, 71, 110
6, 4512, Note_on_c, 1, 66, 0
6, 4512, Note_on_c, 1, 71, 0
6, 4512, Note_on_c, 1, 74, 110
6, 4608, Note_on_c, 1, 74, 0
6, 4608, Note_on_c, 1, 66, 110
6, 5088, Note_on_c, 1, 66, 0
6, 5376, Note_on_c, 1, 69, 110
6, 5472, Note_on_c, 1, 69, 0
6, 5472, Note_on_c, 1, 66, 110
6, 5520, Note_on_c, 1, 66, 0
6, 5520, Note_on_c, 1, 69, 110
6, 5616, Note_on_c, 1, 69, 0
6, 5616, Note_on_c, 1, 66, 110
6, 5664, Note_on_c, 1, 66, 0
6, 5664, Note_on_c, 1, 69, 110
6, 5760, Note_on_c, 1, 69, 0
6, 5760, Note_on_c, 1, 66, 110
6, 5808, Note_on_c, 1, 66, 0
6, 5808, Note_on_c, 1, 69, 110
6, 5904, Note_on_c, 1, 69, 0
6, 6144, Note_on_c, 1, 69, 110
6, 6240, Note_on_c, 1, 69, 0
6, 6240, Note_on_c, 1, 66, 110
6, 6288, Note_on_c, 1, 66, 0
6, 6288, Note_on_c, 1, 69, 110
6, 6384, Note_on_c, 1, 69, 0
6, 6384, Note_on_c, 1, 66, 110
6, 6432, Note_on_c, 1, 66, 0
6, 6432, Note_on_c, 1, 69, 110
6, 6528, Note_on_c, 1, 69, 0
6, 6528, Note_on_c, 1, 66, 110
6, 6576, Note_on_c, 1, 66, 0
6, 6576, Note_on_c, 1, 69, 110
6, 6672, Note_on_c, 1, 69, 0
6, 6912, Note_on_c, 1, 69, 110
6, 7008, Note_on_c, 1, 69, 0
6, 7008, Note_on_c, 1, 64, 110
6, 7056, Note_on_c, 1, 64, 0
6, 7056, Note_on_c, 1, 69, 110
6, 7152, Note_on_c, 1, 69, 0
6, 7152, Note_on_c, 1, 64, 110
6, 7200, Note_on_c, 1, 64, 0
6, 7200, Note_on_c, 1, 69, 110
6, 7296, Note_on_c, 1, 69, 0
6, 7296, Note_on_c, 1, 64, 110
6, 7344, Note_on_c, 1, 64, 0
6, 7344, Note_on_c, 1, 69, 110
6, 7488, Note_on_c, 1, 69, 0
6, 7872, Note_on_c, 1, 66, 110
6, 8032, Note_on_c, 1, 66, 0
6, 8064, Note_on_c, 1, 66, 110
6, 8110, Note_on_c, 1, 66, 0
6, 8112, Note_on_c, 1, 64, 110
6, 8158, Note_on_c, 1, 64, 0
6, 8160, Note_on_c, 1, 62, 110
6, 8254, Note_on_c, 1, 62, 0
6, 8256, Note_on_c, 1, 62, 110
6, 8302, Note_on_c, 1, 62, 0
6, 8304, Note_on_c, 1, 61, 110
6, 8350, Note_on_c, 1, 61, 0
6, 8352, Note_on_c, 1, 59, 110
6, 8398, Note_on_c, 1, 59, 0
6, 8400, Note_on_c, 1, 57, 110
6, 8446, Note_on_c, 1, 57, 0
6, 8448, Note_on_c, 1, 59, 110
6, 8784, Note_on_c, 1, 59, 0
6, 9024, Note_on_c, 1, 52, 110
6, 9072, Note_on_c, 1, 52, 0
6, 9072, Note_on_c, 1, 54, 110
6, 9118, Note_on_c, 1, 54, 0
6, 9120, Note_on_c, 1, 57, 110
6, 9214, Note_on_c, 1, 57, 0
6, 9408, Note_on_c, 1, 57, 110
6, 9456, Note_on_c, 1, 57, 0
6, 9456, Note_on_c, 1, 59, 110
6, 9502, Note_on_c, 1, 59, 0
6, 9504, Note_on_c, 1, 62, 110
6, 9598, Note_on_c, 1, 62, 0
6, 9792, Pitch_bend_c, 1, 4151
6, 9792, Note_on_c, 1, 65, 110
6, 9816, Pitch_bend_c, 1, 8192
6, 9838, Note_off_c, 1, 65, 0
6, 9840, Note_on_c, 1, 64, 110
6, 9886, Note_on_c, 1, 64, 0
6, 9888, Note_on_c, 1, 62, 110
6, 9934, Note_on_c, 1, 62, 0
6, 9936, Note_on_c, 1, 59, 110
6, 9982, Note_on_c, 1, 59, 0
6, 9984, Note_on_c, 1, 64, 110
6, 10030, Note_on_c, 1, 64, 0
6, 10032, Note_on_c, 1, 62, 110
6, 10078, Note_on_c, 1, 62, 0
6, 10080, Note_on_c, 1, 59, 110
6, 10174, Note_on_c, 1, 59, 0
6, 10176, Note_on_c, 1, 62, 110
6, 10336, Note_on_c, 1, 62, 0
6, 10368, Note_on_c, 1, 62, 110
6, 10416, Note_on_c, 1, 62, 0
6, 10416, Note_on_c, 1, 64, 110
6, 10462, Note_on_c, 1, 64, 0
6, 10464, Note_on_c, 1, 64, 110
6, 10558, Note_on_c, 1, 64, 0
6, 10560, Note_on_c, 1, 62, 110
6, 10608, Note_on_c, 1, 62, 0
6, 10608, Note_on_c, 1, 64, 110
6, 10654, Note_on_c, 1, 64, 0
6, 10656, Note_on_c, 1, 64, 110
6, 10750, Note_on_c, 1, 64, 0
6, 11232, Note_on_c, 1, 69, 110
6, 11278, Note_on_c, 1, 69, 0
6, 11280, Note_on_c, 1, 71, 110
6, 11326, Note_on_c, 1, 71, 0
6, 11328, Note_on_c, 1, 74, 110
6, 11374, Note_on_c, 1, 74, 0
6, 11376, Note_on_c, 1, 71, 110
6, 11422, Note_on_c, 1, 71, 0
6, 11424, Pitch_bend_c, 1, 4151
6, 11424, Note_on_c, 1, 78, 110
6, 11425, Pitch_bend_c, 1, 4247
6, 11426, Pitch_bend_c, 1, 4343
6, 11427, Pitch_bend_c, 1, 4407
6, 11428, Pitch_bend_c, 1, 4503
6, 11429, Pitch_bend_c, 1, 4599
6, 11430, Pitch_bend_c, 1, 4663
6, 11431, Pitch_bend_c, 1, 4759
6, 11432, Pitch_bend_c, 1, 4823
6, 11433, Pitch_bend_c, 1, 4919
6, 11434, Pitch_bend_c, 1, 5015
6, 11435, Pitch_bend_c, 1, 5079
6, 11436, Pitch_bend_c, 1, 5175
6, 11437, Pitch_bend_c, 1, 5271
6, 11438, Pitch_bend_c, 1, 5335
6, 11439, Pitch_bend_c, 1, 5431
6, 11440, Pitch_bend_c, 1, 5495
6, 11441, Pitch_bend_c, 1, 5591
6, 11442, Pitch_bend_c, 1, 5687
6, 11443, Pitch_bend_c, 1, 5751
6, 11444, Pitch_bend_c, 1, 5847
6, 11445, Pitch_bend_c, 1, 5943
6, 11446, Pitch_bend_c, 1, 6007
6, 11447, Pitch_bend_c, 1, 6103
6, 11448, Pitch_bend_c, 1, 6167
6, 11449, Pitch_bend_c, 1, 6263
6, 11450, Pitch_bend_c, 1, 6359
6, 11451, Pitch_bend_c, 1, 6423
6, 11452, Pitch_bend_c, 1, 6519
6, 11453, Pitch_bend_c, 1, 6615
6, 11454, Pitch_bend_c, 1, 6679
6, 11455, Pitch_bend_c, 1, 6775
6, 11456, Pitch_bend_c, 1, 6839
6, 11457, Pitch_bend_c, 1, 6935
6, 11458, Pitch_bend_c, 1, 7031
6, 11459, Pitch_bend_c, 1, 7095
6, 11460, Pitch_bend_c, 1, 7191
6, 11461, Pitch_bend_c, 1, 7287
6, 11462, Pitch_bend_c, 1, 7351
6, 11463, Pitch_bend_c, 1, 7447
6, 11464, Pitch_bend_c, 1, 7511
6, 11465, Pitch_bend_c, 1, 7607
6, 11466, Pitch_bend_c, 1, 7703
6, 11467, Pitch_bend_c, 1, 7767
6, 11468, Pitch_bend_c, 1, 7863
6, 11469, Pitch_bend_c, 1, 7959
6, 11470, Pitch_bend_c, 1, 8023
6, 11471, Pitch_bend_c, 1, 8119
6, 11472, Pitch_bend_c, 1, 8192
6, 11518, Note_off_c, 1, 78, 0
6, 11520, Note_on_c, 1, 76, 110
6, 11568, Note_on_c, 1, 76, 0
6, 11568, Note_on_c, 1, 74, 110
6, 11614, Note_on_c, 1, 74, 0
6, 11616, Note_on_c, 1, 71, 110
6, 11712, Note_on_c, 1, 71, 0
6, 11712, Note_on_c, 1, 74, 110
6, 11872, Note_on_c, 1, 74, 0
6, 11904, Note_on_c, 1, 71, 110
6, 11998, Note_on_c, 1, 71, 0
6, 12000, Note_on_c, 1, 71, 110
6, 12046, Note_on_c, 1, 71, 0
6, 12048, Note_on_c, 1, 73, 110
6, 12094, Note_on_c, 1, 73, 0
6, 12096, Note_on_c, 1, 69, 110
6, 12256, Note_on_c, 1, 69, 0
6, 13344, Note_on_c, 1, 66, 110
6, 13390, Note_on_c, 1, 66, 0
6, 13392, Note_on_c, 1, 64, 110
6, 13438, Note_on_c, 1, 64, 0
6, 13440, Note_on_c, 1, 62, 110
6, 13486, Note_on_c, 1, 62, 0
6, 13488, Note_on_c, 1, 59, 110
6, 13534, Note_on_c, 1, 59, 0
6, 13536, Note_on_c, 1, 57, 110
6, 13582, Note_on_c, 1, 57, 0
6, 13584, Note_on_c, 1, 59, 110
6, 13630, Note_on_c, 1, 59, 0
6, 13632, Note_on_c, 1, 62, 110
6, 13726, Note_on_c, 1, 62, 0
6, 13728, Note_on_c, 1, 64, 110
6, 13822, Note_on_c, 1, 64, 0
6, 13824, Note_on_c, 1, 62, 110
6, 14160, Note_on_c, 1, 62, 0
6, 14688, Note_on_c, 1, 52, 110
6, 14736, Note_on_c, 1, 52, 0
6, 14736, Note_on_c, 1, 54, 110
6, 14782, Note_on_c, 1, 54, 0
6, 14784, Note_on_c, 1, 57, 110
6, 14878, Note_on_c, 1, 57, 0
6, 14880, Note_on_c, 1, 57, 110
6, 14928, Note_on_c, 1, 57, 0
6, 14928, Note_on_c, 1, 59, 110
6, 14974, Note_on_c, 1, 59, 0
6, 14976, Note_on_c, 1, 62, 110
6, 15070, Note_on_c, 1, 62, 0
6, 15072, Pitch_bend_c, 1, 4151
6, 15072, Note_on_c, 1, 65, 110
6, 15096, Pitch_bend_c, 1, 8192
6, 15166, Note_off_c, 1, 65, 0
6, 15168, Note_on_c, 1, 64, 110
6, 15214, Note_on_c, 1, 64, 0
6, 15216, Note_on_c, 1, 62, 110
6, 15262, Note_on_c, 1, 62, 0
6, 15264, Note_on_c, 1, 59, 110
6, 15312, Note_on_c, 1, 59, 0
6, 15312, Note_on_c, 1, 57, 110
6, 15358, Note_on_c, 1, 57, 0
6, 15360, Note_on_c, 1, 57, 110
6, 15454, Note_on_c, 1, 57, 0
6, 15456, Note_on_c, 1, 57, 110
6, 15502, Note_on_c, 1, 57, 0
6, 15504, Note_on_c, 1, 55, 110
6, 15550, Note_on_c, 1, 55, 0
6, 15552, Note_on_c, 1, 57, 110
6, 15646, Note_on_c, 1, 57, 0
6, 15648, Note_on_c, 1, 50, 110
6, 15694, Note_on_c, 1, 50, 0
6, 15696, Note_on_c, 1, 51, 110
6, 15744, Note_on_c, 1, 51, 0
6, 15744, Note_on_c, 1, 52, 110
6, 15790, Note_on_c, 1, 52, 0
6, 15792, Note_on_c, 1, 55, 110
6, 15840, Note_on_c, 1, 55, 0
6, 15840, Note_on_c, 1, 57, 110
6, 15934, Note_on_c, 1, 57, 0
6, 15936, Note_on_c, 1, 57, 110
6, 16030, Note_on_c, 1, 57, 0
6, 16032, Note_on_c, 1, 57, 110
6, 16126, Note_on_c, 1, 57, 0
6, 16128, Note_on_c, 1, 52, 110
6, 16174, Note_on_c, 1, 52, 0
6, 16176, Note_on_c, 1, 52, 110
6, 16222, Note_on_c, 1, 52, 0
6, 16224, Note_on_c, 1, 52, 110
6, 16270, Note_on_c, 1, 52, 0
6, 16272, Note_on_c, 1, 50, 110
6, 16318, Note_on_c, 1, 50, 0
6, 16320, Note_on_c, 1, 52, 110
6, 16414, Note_on_c, 1, 52, 0
6, 16416, Note_on_c, 1, 55, 110
6, 16462, Note_on_c, 1, 55, 0
6, 16464, Note_on_c, 1, 52, 110
6, 16558, Note_on_c, 1, 52, 0
6, 16560, Note_on_c, 1, 50, 110
6, 16606, Note_on_c, 1, 50, 0
6, 16608, Note_on_c, 1, 50, 110
6, 16656, Note_on_c, 1, 50, 0
6, 16656, Note_on_c, 1, 52, 110
6, 16702, Note_on_c, 1, 52, 0
6, 16704, Note_on_c, 1, 52, 110
6, 16752, Note_on_c, 1, 52, 0
6, 16752, Note_on_c, 1, 54, 110
6, 16798, Note_on_c, 1, 54, 0
6, 16800, Note_on_c, 1, 57, 110
6, 16848, Note_on_c, 1, 57, 0
6, 16848, Note_on_c, 1, 59, 110
6, 16894, Note_on_c, 1, 59, 0
6, 16896, Note_on_c, 1, 57, 110
6, 16990, Note_on_c, 1, 57, 0
6, 16992, Note_on_c, 1, 57, 110
6, 17038, Note_on_c, 1, 57, 0
6, 17040, Note_on_c, 1, 55, 110
6, 17086, Note_on_c, 1, 55, 0
6, 17088, Note_on_c, 1, 57, 110
6, 17182, Note_on_c, 1, 57, 0
6, 17184, Note_on_c, 1, 50, 110
6, 17230, Note_on_c, 1, 50, 0
6, 17232, Note_on_c, 1, 51, 110
6, 17280, Note_on_c, 1, 51, 0
6, 17280, Note_on_c, 1, 52, 110
6, 17326, Note_on_c, 1, 52, 0
6, 17328, Note_on_c, 1, 55, 110
6, 17376, Note_on_c, 1, 55, 0
6, 17376, Note_on_c, 1, 57, 110
6, 17470, Note_on_c, 1, 57, 0
6, 17472, Note_on_c, 1, 57, 110
6, 17566, Note_on_c, 1, 57, 0
6, 17568, Note_on_c, 1, 57, 110
6, 17662, Note_on_c, 1, 57, 0
6, 17664, Note_on_c, 1, 52, 110
6, 17710, Note_on_c, 1, 52, 0
6, 17712, Note_on_c, 1, 52, 110
6, 17758, Note_on_c, 1, 52, 0
6, 17760, Note_on_c, 1, 52, 110
6, 17806, Note_on_c, 1, 52, 0
6, 17808, Note_on_c, 1, 50, 110
6, 17854, Note_on_c, 1, 50, 0
6, 17856, Note_on_c, 1, 52, 110
6, 17950, Note_on_c, 1, 52, 0
6, 17952, Control_c, 1, 7, 114
6, 17952, Note_on_c, 1, 54, 110
6, 17973, Control_c, 1, 7, 113
6, 17994, Control_c, 1, 7, 112
6, 18016, Control_c, 1, 7, 111
6, 18037, Control_c, 1, 7, 110
6, 18058, Control_c, 1, 7, 109
6, 18080, Control_c, 1, 7, 108
6, 18101, Control_c, 1, 7, 107
6, 18122, Control_c, 1, 7, 106
6, 18144, Control_c, 1, 7, 105
6, 18144, Note_on_c, 1, 52, 110
6, 18165, Control_c, 1, 7, 104
6, 18186, Control_c, 1, 7, 103
6, 18190, Note_off_c, 1, 52, 0
6, 18192, Note_on_c, 1, 54, 110
6, 18208, Control_c, 1, 7, 102
6, 18208, Note_off_c, 1, 54, 0
6, 18229, Control_c, 1, 7, 101
6, 18238, Note_off_c, 1, 54, 0
6, 18240, Note_on_c, 1, 57, 110
6, 18250, Control_c, 1, 7, 100
6, 18272, Control_c, 1, 7, 99
6, 18293, Control_c, 1, 7, 98
6, 18314, Control_c, 1, 7, 97
6, 18336, Control_c, 1, 7, 96
6, 18353, Control_c, 1, 7, 95
6, 18370, Control_c, 1, 7, 94
6, 18388, Control_c, 1, 7, 93
6, 18400, Note_off_c, 1, 57, 0
6, 18405, Control_c, 1, 7, 92
6, 18423, Control_c, 1, 7, 91
6, 18432, Note_on_c, 1, 52, 110
6, 18440, Control_c, 1, 7, 90
6, 18458, Control_c, 1, 7, 89
6, 18475, Control_c, 1, 7, 88
6, 18478, Note_off_c, 1, 52, 0
6, 18480, Note_on_c, 1, 54, 110
6, 18493, Control_c, 1, 7, 87
6, 18510, Control_c, 1, 7, 86
6, 18526, Note_off_c, 1, 54, 0
6, 18528, Control_c, 1, 7, 85
6, 18528, Note_on_c, 1, 52, 110
6, 18545, Control_c, 1, 7, 84
6, 18562, Control_c, 1, 7, 83
6, 18580, Control_c, 1, 7, 82
6, 18597, Control_c, 1, 7, 81
6, 18615, Control_c, 1, 7, 80
6, 18632, Control_c, 1, 7, 79
6, 18650, Control_c, 1, 7, 78
6, 18667, Control_c, 1, 7, 77
6, 18685, Control_c, 1, 7, 76
6, 18688, Note_off_c, 1, 52, 0
6, 18702, Control_c, 1, 7, 75
6, 18720, Control_c, 1, 7, 74
6, 18720, Note_on_c, 1, 52, 110
6, 18739, Control_c, 1, 7, 73
6, 18758, Control_c, 1, 7, 72
6, 18766, Note_off_c, 1, 52, 0
6, 18768, Note_on_c, 1, 54, 110
6, 18777, Control_c, 1, 7, 71
6, 18796, Control_c, 1, 7, 70
6, 18814, Note_off_c, 1, 54, 0
6, 18816, Control_c, 1, 7, 69
6, 18816, Note_on_c, 1, 57, 110
6, 18835, Control_c, 1, 7, 68
6, 18854, Control_c, 1, 7, 67
6, 18873, Control_c, 1, 7, 66
6, 18892, Control_c, 1, 7, 65
6, 18912, Control_c, 1, 7, 64
6, 18931, Control_c, 1, 7, 63
6, 18950, Control_c, 1, 7, 62
6, 18969, Control_c, 1, 7, 61
6, 18976, Note_off_c, 1, 57, 0
6, 18988, Control_c, 1, 7, 60
6, 19008, Control_c, 1, 7, 59
6, 19008, Note_on_c, 1, 52, 110
6, 19027, Control_c, 1, 7, 58
6, 19046, Control_c, 1, 7, 57
6, 19054, Note_off_c, 1, 52, 0
6, 19056, Note_on_c, 1, 54, 110
6, 19065, Control_c, 1, 7, 56
6, 19084, Control_c, 1, 7, 55
6, 19102, Note_off_c, 1, 54, 0
6, 19104, Control_c, 1, 7, 54
6, 19104, Note_on_c, 1, 52, 110
6, 19360, Note_on_c, 1, 52, 0
6, 19360, End_track
7, 0, Start_track
7, 0, MIDI_port, 0
7, 0, Title_t, "Cheap Day Return"
7, 0, Program_c, 4, 33
7, 0, Control_c, 4, 7, 127
7, 0, Control_c, 4, 10, 64
7, 0, Note_on_c, 4, 47, 92
7, 768, Note_on_c, 4, 47, 0
7, 768, Note_on_c, 4, 45, 92
7, 1536, Note_on_c, 4, 45, 0
7, 1536, Note_on_c, 4, 47, 92
7, 2304, Note_on_c, 4, 47, 0
7, 2304, Note_on_c, 4, 45, 92
7, 3072, Note_on_c, 4, 45, 0
7, 3072, Note_on_c, 4, 47, 92
7, 3216, Note_on_c, 4, 47, 0
7, 3216, Note_on_c, 4, 45, 92
7, 3360, Note_on_c, 4, 45, 0
7, 3360, Note_on_c, 4, 42, 92
7, 3504, Note_on_c, 4, 42, 0
7, 3504, Note_on_c, 4, 45, 92
7, 3648, Note_on_c, 4, 45, 0
7, 3648, Note_on_c, 4, 47, 92
7, 3744, Note_on_c, 4, 47, 0
7, 3744, Note_on_c, 4, 45, 92
7, 3840, Note_on_c, 4, 45, 0
7, 3840, Note_on_c, 4, 47, 92
7, 3984, Note_on_c, 4, 47, 0
7, 3984, Note_on_c, 4, 45, 92
7, 4128, Note_on_c, 4, 45, 0
7, 4128, Note_on_c, 4, 42, 92
7, 4272, Note_on_c, 4, 42, 0
7, 4272, Note_on_c, 4, 45, 92
7, 4416, Note_on_c, 4, 45, 0
7, 4416, Note_on_c, 4, 47, 92
7, 4512, Note_on_c, 4, 47, 0
7, 4512, Note_on_c, 4, 45, 92
7, 4608, Note_on_c, 4, 45, 0
7, 4608, Note_on_c, 4, 47, 92
7, 5088, Note_on_c, 4, 47, 0
7, 5376, Note_on_c, 4, 49, 92
7, 5472, Note_on_c, 4, 49, 0
7, 5472, Note_on_c, 4, 47, 92
7, 5520, Note_on_c, 4, 47, 0
7, 5520, Note_on_c, 4, 49, 92
7, 5616, Note_on_c, 4, 49, 0
7, 5616, Note_on_c, 4, 47, 92
7, 5664, Note_on_c, 4, 47, 0
7, 5664, Note_on_c, 4, 49, 92
7, 5760, Note_on_c, 4, 49, 0
7, 5760, Note_on_c, 4, 47, 92
7, 5808, Note_on_c, 4, 47, 0
7, 5808, Note_on_c, 4, 49, 92
7, 5904, Note_on_c, 4, 49, 0
7, 6144, Note_on_c, 4, 49, 92
7, 6240, Note_on_c, 4, 49, 0
7, 6240, Note_on_c, 4, 47, 92
7, 6288, Note_on_c, 4, 47, 0
7, 6288, Note_on_c, 4, 49, 92
7, 6384, Note_on_c, 4, 49, 0
7, 6384, Note_on_c, 4, 47, 92
7, 6432, Note_on_c, 4, 47, 0
7, 6432, Note_on_c, 4, 49, 92
7, 6528, Note_on_c, 4, 49, 0
7, 6528, Note_on_c, 4, 47, 92
7, 6576, Note_on_c, 4, 47, 0
7, 6576, Note_on_c, 4, 49, 92
7, 6672, Note_on_c, 4, 49, 0
7, 6912, Note_on_c, 4, 45, 92
7, 7008, Note_on_c, 4, 45, 0
7, 7008, Note_on_c, 4, 40, 92
7, 7056, Note_on_c, 4, 40, 0
7, 7056, Note_on_c, 4, 45, 92
7, 7152, Note_on_c, 4, 45, 0
7, 7152, Note_on_c, 4, 40, 92
7, 7200, Note_on_c, 4, 40, 0
7, 7200, Note_on_c, 4, 45, 92
7, 7296, Note_on_c, 4, 45, 0
7, 7296, Note_on_c, 4, 40, 92
7, 7344, Note_on_c, 4, 40, 0
7, 7344, Note_on_c, 4, 45, 92
7, 7440, Note_on_c, 4, 45, 0
7, 8256, Note_on_c, 4, 47, 92
7, 8352, Note_on_c, 4, 47, 0
7, 8352, Note_on_c, 4, 45, 92
7, 8448, Note_on_c, 4, 45, 0
7, 8448, Note_on_c, 4, 43, 92
7, 8640, Note_on_c, 4, 43, 0
7, 8640, Note_on_c, 4, 43, 92
7, 8832, Note_on_c, 4, 43, 0
7, 8832, Note_on_c, 4, 45, 92
7, 9024, Note_on_c, 4, 45, 0
7, 9024, Note_on_c, 4, 45, 92
7, 9216, Note_on_c, 4, 45, 0
7, 9216, Note_on_c, 4, 38, 92
7, 9376, Note_on_c, 4, 38, 0
7, 9408, Note_on_c, 4, 37, 92
7, 9568, Note_on_c, 4, 37, 0
7, 9600, Note_on_c, 4, 35, 92
7, 9936, Note_on_c, 4, 35, 0
7, 9984, Note_on_c, 4, 43, 92
7, 10176, Note_on_c, 4, 43, 0
7, 10176, Note_on_c, 4, 43, 92
7, 10368, Note_on_c, 4, 43, 0
7, 10368, Note_on_c, 4, 45, 92
7, 10560, Note_on_c, 4, 45, 0
7, 10560, Note_on_c, 4, 45, 92
7, 10752, Note_on_c, 4, 45, 0
7, 10752, Note_on_c, 4, 38, 92
7, 10912, Note_on_c, 4, 38, 0
7, 10944, Note_on_c, 4, 38, 92
7, 11104, Note_on_c, 4, 38, 0
7, 11136, Note_on_c, 4, 40, 92
7, 11472, Note_on_c, 4, 40, 0
7, 11616, Note_on_c, 4, 43, 92
7, 11712, Note_on_c, 4, 43, 0
7, 11712, Note_on_c, 4, 43, 92
7, 11904, Note_on_c, 4, 43, 0
7, 11904, Note_on_c, 4, 45, 92
7, 12096, Note_on_c, 4, 45, 0
7, 12096, Note_on_c, 4, 45, 92
7, 12288, Note_on_c, 4, 45, 0
7, 12288, Note_on_c, 4, 38, 92
7, 12448, Note_on_c, 4, 38, 0
7, 12480, Note_on_c, 4, 37, 92
7, 12640, Note_on_c, 4, 37, 0
7, 12672, Note_on_c, 4, 35, 92
7, 13008, Note_on_c, 4, 35, 0
7, 13056, Note_on_c, 4, 45, 92
7, 13248, Note_on_c, 4, 45, 0
7, 13248, Note_on_c, 4, 45, 92
7, 13632, Note_on_c, 4, 45, 0
7, 13632, Note_on_c, 4, 45, 92
7, 13824, Note_on_c, 4, 45, 0
7, 13824, Note_on_c, 4, 43, 92
7, 14208, Note_on_c, 4, 43, 0
7, 14208, Note_on_c, 4, 43, 92
7, 14592, Note_on_c, 4, 43, 0
7, 14592, Control_c, 4, 7, 68
7, 14592, Note_on_c, 4, 38, 92
7, 14616, Control_c, 4, 7, 67
7, 14640, Control_c, 4, 7, 66
7, 14664, Control_c, 4, 7, 65
7, 14688, Control_c, 4, 7, 64
7, 14694, Control_c, 4, 7, 63
7, 14701, Control_c, 4, 7, 62
7, 14708, Control_c, 4, 7, 61
7, 14715, Control_c, 4, 7, 60
7, 14722, Control_c, 4, 7, 59
7, 14729, Control_c, 4, 7, 58
7, 14736, Control_c, 4, 7, 57
7, 14742, Control_c, 4, 7, 56
7, 14749, Control_c, 4, 7, 55
7, 14756, Control_c, 4, 7, 54
7, 14763, Control_c, 4, 7, 53
7, 14770, Control_c, 4, 7, 52
7, 14777, Control_c, 4, 7, 51
7, 14784, Control_c, 4, 7, 50
7, 14789, Control_c, 4, 7, 49
7, 14795, Control_c, 4, 7, 48
7, 14800, Control_c, 4, 7, 47
7, 14806, Control_c, 4, 7, 46
7, 14812, Control_c, 4, 7, 45
7, 14817, Control_c, 4, 7, 44
7, 14823, Control_c, 4, 7, 43
7, 14829, Control_c, 4, 7, 42
7, 14834, Control_c, 4, 7, 41
7, 14840, Control_c, 4, 7, 40
7, 14846, Control_c, 4, 7, 39
7, 14851, Control_c, 4, 7, 38
7, 14857, Control_c, 4, 7, 37
7, 14863, Control_c, 4, 7, 36
7, 14868, Control_c, 4, 7, 35
7, 14874, Control_c, 4, 7, 34
7, 14880, Control_c, 4, 7, 33
7, 14928, Note_off_c, 4, 38, 0
7, 15360, Control_c, 4, 7, 127
7, 15360, Note_on_c, 4, 45, 92
7, 15408, Note_on_c, 4, 45, 0
7, 15408, Note_on_c, 4, 45, 92
7, 15456, Note_on_c, 4, 45, 0
7, 15456, Note_on_c, 4, 45, 92
7, 15504, Note_on_c, 4, 45, 0
7, 15504, Note_on_c, 4, 43, 92
7, 15552, Note_on_c, 4, 43, 0
7, 15552, Note_on_c, 4, 45, 92
7, 15744, Note_on_c, 4, 45, 0
7, 15744, Note_on_c, 4, 43, 92
7, 15792, Note_on_c, 4, 43, 0
7, 15792, Note_on_c, 4, 45, 92
7, 15840, Note_on_c, 4, 45, 0
7, 15840, Note_on_c, 4, 45, 92
7, 15888, Note_on_c, 4, 45, 0
7, 15888, Note_on_c, 4, 45, 92
7, 15936, Note_on_c, 4, 45, 0
7, 15936, Note_on_c, 4, 43, 92
7, 15984, Note_on_c, 4, 43, 0
7, 15984, Note_on_c, 4, 45, 92
7, 16032, Note_on_c, 4, 45, 0
7, 16032, Note_on_c, 4, 45, 92
7, 16080, Note_on_c, 4, 45, 0
7, 16080, Note_on_c, 4, 45, 92
7, 16128, Note_on_c, 4, 45, 0
7, 16128, Note_on_c, 4, 47, 92
7, 16176, Note_on_c, 4, 47, 0
7, 16176, Note_on_c, 4, 47, 92
7, 16224, Note_on_c, 4, 47, 0
7, 16224, Note_on_c, 4, 47, 92
7, 16272, Note_on_c, 4, 47, 0
7, 16272, Note_on_c, 4, 45, 92
7, 16320, Note_on_c, 4, 45, 0
7, 16320, Note_on_c, 4, 47, 92
7, 16416, Note_on_c, 4, 47, 0
7, 16416, Note_on_c, 4, 49, 92
7, 16896, Note_on_c, 4, 49, 0
7, 16896, Note_on_c, 4, 45, 92
7, 16944, Note_on_c, 4, 45, 0
7, 16944, Note_on_c, 4, 45, 92
7, 16992, Note_on_c, 4, 45, 0
7, 16992, Note_on_c, 4, 45, 92
7, 17040, Note_on_c, 4, 45, 0
7, 17040, Note_on_c, 4, 43, 92
7, 17088, Note_on_c, 4, 43, 0
7, 17088, Note_on_c, 4, 45, 92
7, 17280, Note_on_c, 4, 45, 0
7, 17280, Note_on_c, 4, 43, 92
7, 17328, Note_on_c, 4, 43, 0
7, 17328, Note_on_c, 4, 45, 92
7, 17376, Note_on_c, 4, 45, 0
7, 17376, Note_on_c, 4, 45, 92
7, 17424, Note_on_c, 4, 45, 0
7, 17424, Note_on_c, 4, 45, 92
7, 17472, Note_on_c, 4, 45, 0
7, 17472, Note_on_c, 4, 43, 92
7, 17520, Note_on_c, 4, 43, 0
7, 17520, Note_on_c, 4, 45, 92
7, 17568, Note_on_c, 4, 45, 0
7, 17568, Note_on_c, 4, 45, 92
7, 17616, Note_on_c, 4, 45, 0
7, 17616, Note_on_c, 4, 45, 92
7, 17664, Note_on_c, 4, 45, 0
7, 17664, Note_on_c, 4, 47, 92
7, 17712, Note_on_c, 4, 47, 0
7, 17712, Note_on_c, 4, 47, 92
7, 17760, Note_on_c, 4, 47, 0
7, 17760, Note_on_c, 4, 47, 92
7, 17808, Note_on_c, 4, 47, 0
7, 17808, Note_on_c, 4, 45, 92
7, 17856, Note_on_c, 4, 45, 0
7, 17856, Note_on_c, 4, 47, 92
7, 17952, Note_on_c, 4, 47, 0
7, 17952, Control_c, 4, 7, 114
7, 17952, Note_on_c, 4, 49, 92
7, 17973, Control_c, 4, 7, 113
7, 17994, Control_c, 4, 7, 112
7, 18016, Control_c, 4, 7, 111
7, 18037, Control_c, 4, 7, 110
7, 18058, Control_c, 4, 7, 109
7, 18080, Control_c, 4, 7, 108
7, 18101, Control_c, 4, 7, 107
7, 18122, Control_c, 4, 7, 106
7, 18144, Control_c, 4, 7, 105
7, 18165, Control_c, 4, 7, 104
7, 18186, Control_c, 4, 7, 103
7, 18208, Control_c, 4, 7, 102
7, 18229, Control_c, 4, 7, 101
7, 18240, Note_off_c, 4, 49, 0
7, 18240, Note_on_c, 4, 35, 92
7, 18250, Control_c, 4, 7, 100
7, 18272, Control_c, 4, 7, 99
7, 18293, Control_c, 4, 7, 98
7, 18314, Control_c, 4, 7, 97
7, 18336, Control_c, 4, 7, 96
7, 18353, Control_c, 4, 7, 95
7, 18370, Control_c, 4, 7, 94
7, 18388, Control_c, 4, 7, 93
7, 18405, Control_c, 4, 7, 92
7, 18423, Control_c, 4, 7, 91
7, 18440, Control_c, 4, 7, 90
7, 18458, Control_c, 4, 7, 89
7, 18475, Control_c, 4, 7, 88
7, 18493, Control_c, 4, 7, 87
7, 18496, Note_off_c, 4, 35, 0
7, 18510, Control_c, 4, 7, 86
7, 18528, Control_c, 4, 7, 85
7, 18528, Note_on_c, 4, 37, 92
7, 18545, Control_c, 4, 7, 84
7, 18562, Control_c, 4, 7, 83
7, 18580, Control_c, 4, 7, 82
7, 18597, Control_c, 4, 7, 81
7, 18615, Control_c, 4, 7, 80
7, 18632, Control_c, 4, 7, 79
7, 18650, Control_c, 4, 7, 78
7, 18667, Control_c, 4, 7, 77
7, 18685, Control_c, 4, 7, 76
7, 18702, Control_c, 4, 7, 75
7, 18720, Control_c, 4, 7, 74
7, 18739, Control_c, 4, 7, 73
7, 18758, Control_c, 4, 7, 72
7, 18777, Control_c, 4, 7, 71
7, 18784, Note_off_c, 4, 37, 0
7, 18796, Control_c, 4, 7, 70
7, 18816, Control_c, 4, 7, 69
7, 18816, Note_on_c, 4, 35, 92
7, 18835, Control_c, 4, 7, 68
7, 18854, Control_c, 4, 7, 67
7, 18873, Control_c, 4, 7, 66
7, 18892, Control_c, 4, 7, 65
7, 18912, Control_c, 4, 7, 64
7, 18931, Control_c, 4, 7, 63
7, 18950, Control_c, 4, 7, 62
7, 18969, Control_c, 4, 7, 61
7, 18988, Control_c, 4, 7, 60
7, 19008, Control_c, 4, 7, 59
7, 19027, Control_c, 4, 7, 58
7, 19046, Control_c, 4, 7, 57
7, 19065, Control_c, 4, 7, 56
7, 19072, Note_off_c, 4, 35, 0
7, 19084, Control_c, 4, 7, 55
7, 19104, Control_c, 4, 7, 54
7, 19104, Note_on_c, 4, 37, 92
7, 19360, Note_on_c, 4, 37, 0
7, 19360, End_track
0, 0, End_of_file
