0, 0, Header, 1, 8, 192
1, 0, Start_track
1, 0, Tempo, 612244
1, 0, Time_signature, 4, 2, 24, 8
1, 80256, Tempo, 645161
1, 80448, Tempo, 697674
1, 80640, Tempo, 731707
1, 262143, End_track
2, 0, Start_track
2, 0, Text_t, "Drums.  "
2, 0, Control_c, 9, 121, 0
2, 0, Note_on_c, 9, 42, 64
2, 8, Note_off_c, 9, 42, 64
2, 160, Control_c, 9, 7, 100
2, 180, Control_c, 9, 10, 64
2, 192, Note_on_c, 9, 42, 64
2, 200, Note_off_c, 9, 42, 64
2, 384, Note_on_c, 9, 42, 64
2, 392, Note_off_c, 9, 42, 64
2, 576, Note_on_c, 9, 42, 64
2, 584, Note_off_c, 9, 42, 64
2, 19008, Note_on_c, 9, 38, 70
2, 19016, Note_off_c, 9, 38, 70
2, 19200, Note_on_c, 9, 49, 64
2, 19200, Note_on_c, 9, 36, 80
2, 19200, Note_on_c, 9, 42, 64
2, 19208, Note_off_c, 9, 42, 64
2, 19208, Note_off_c, 9, 36, 80
2, 19208, Note_off_c, 9, 49, 64
2, 19296, Note_on_c, 9, 42, 64
2, 19304, Note_off_c, 9, 42, 64
2, 19392, Note_on_c, 9, 38, 70
2, 19392, Note_on_c, 9, 42, 64
2, 19400, Note_off_c, 9, 42, 64
2, 19400, Note_off_c, 9, 38, 70
2, 19488, Note_on_c, 9, 42, 64
2, 19488, Note_on_c, 9, 36, 80
2, 19496, Note_off_c, 9, 36, 80
2, 19496, Note_off_c, 9, 42, 64
2, 19584, Note_on_c, 9, 42, 64
2, 19584, Note_on_c, 9, 36, 80
2, 19592, Note_off_c, 9, 36, 80
2, 19592, Note_off_c, 9, 42, 64
2, 19680, Note_on_c, 9, 42, 64
2, 19688, Note_off_c, 9, 42, 64
2, 19776, Note_on_c, 9, 38, 70
2, 19776, Note_on_c, 9, 42, 64
2, 19784, Note_off_c, 9, 42, 64
2, 19784, Note_off_c, 9, 38, 70
2, 19872, Note_on_c, 9, 42, 64
2, 19880, Note_off_c, 9, 42, 64
2, 19968, Note_on_c, 9, 36, 80
2, 19968, Note_on_c, 9, 42, 64
2, 19976, Note_off_c, 9, 42, 64
2, 19976, Note_off_c, 9, 36, 80
2, 20064, Note_on_c, 9, 42, 64
2, 20072, Note_off_c, 9, 42, 64
2, 20160, Note_on_c, 9, 38, 70
2, 20160, Note_on_c, 9, 42, 64
2, 20168, Note_off_c, 9, 42, 64
2, 20168, Note_off_c, 9, 38, 70
2, 20256, Note_on_c, 9, 42, 64
2, 20256, Note_on_c, 9, 36, 80
2, 20264, Note_off_c, 9, 36, 80
2, 20264, Note_off_c, 9, 42, 64
2, 20352, Note_on_c, 9, 42, 64
2, 20352, Note_on_c, 9, 36, 80
2, 20360, Note_off_c, 9, 36, 80
2, 20360, Note_off_c, 9, 42, 64
2, 20448, Note_on_c, 9, 42, 64
2, 20456, Note_off_c, 9, 42, 64
2, 20544, Note_on_c, 9, 38, 70
2, 20544, Note_on_c, 9, 42, 64
2, 20552, Note_off_c, 9, 42, 64
2, 20552, Note_off_c, 9, 38, 70
2, 20640, Note_on_c, 9, 42, 64
2, 20648, Note_off_c, 9, 42, 64
2, 20736, Note_on_c, 9, 36, 80
2, 20736, Note_on_c, 9, 42, 64
2, 20744, Note_off_c, 9, 42, 64
2, 20744, Note_off_c, 9, 36, 80
2, 20832, Note_on_c, 9, 42, 64
2, 20840, Note_off_c, 9, 42, 64
2, 20928, Note_on_c, 9, 38, 70
2, 20928, Note_on_c, 9, 42, 64
2, 20936, Note_off_c, 9, 42, 64
2, 20936, Note_off_c, 9, 38, 70
2, 21024, Note_on_c, 9, 42, 64
2, 21024, Note_on_c, 9, 36, 80
2, 21032, Note_off_c, 9, 36, 80
2, 21032, Note_off_c, 9, 42, 64
2, 21120, Note_on_c, 9, 42, 64
2, 21120, Note_on_c, 9, 36, 80
2, 21128, Note_off_c, 9, 36, 80
2, 21128, Note_off_c, 9, 42, 64
2, 21216, Note_on_c, 9, 42, 64
2, 21224, Note_off_c, 9, 42, 64
2, 21312, Note_on_c, 9, 38, 70
2, 21312, Note_on_c, 9, 42, 64
2, 21320, Note_off_c, 9, 42, 64
2, 21320, Note_off_c, 9, 38, 70
2, 21408, Note_on_c, 9, 42, 64
2, 21416, Note_off_c, 9, 42, 64
2, 21504, Note_on_c, 9, 36, 80
2, 21504, Note_on_c, 9, 42, 64
2, 21512, Note_off_c, 9, 42, 64
2, 21512, Note_off_c, 9, 36, 80
2, 21600, Note_on_c, 9, 42, 64
2, 21608, Note_off_c, 9, 42, 64
2, 21696, Note_on_c, 9, 38, 70
2, 21696, Note_on_c, 9, 42, 64
2, 21704, Note_off_c, 9, 42, 64
2, 21704, Note_off_c, 9, 38, 70
2, 21792, Note_on_c, 9, 42, 64
2, 21792, Note_on_c, 9, 36, 80
2, 21800, Note_off_c, 9, 36, 80
2, 21800, Note_off_c, 9, 42, 64
2, 21888, Note_on_c, 9, 42, 64
2, 21888, Note_on_c, 9, 36, 80
2, 21896, Note_off_c, 9, 36, 80
2, 21896, Note_off_c, 9, 42, 64
2, 21984, Note_on_c, 9, 42, 64
2, 21992, Note_off_c, 9, 42, 64
2, 22080, Note_on_c, 9, 38, 70
2, 22080, Note_on_c, 9, 42, 64
2, 22088, Note_off_c, 9, 42, 64
2, 22088, Note_off_c, 9, 38, 70
2, 22176, Note_on_c, 9, 42, 64
2, 22184, Note_off_c, 9, 42, 64
2, 22272, Note_on_c, 9, 36, 80
2, 22272, Note_on_c, 9, 42, 64
2, 22280, Note_off_c, 9, 42, 64
2, 22280, Note_off_c, 9, 36, 80
2, 22368, Note_on_c, 9, 42, 64
2, 22376, Note_off_c, 9, 42, 64
2, 22464, Note_on_c, 9, 38, 70
2, 22464, Note_on_c, 9, 42, 64
2, 22472, Note_off_c, 9, 42, 64
2, 22472, Note_off_c, 9, 38, 70
2, 22560, Note_on_c, 9, 42, 64
2, 22560, Note_on_c, 9, 36, 80
2, 22568, Note_off_c, 9, 36, 80
2, 22568, Note_off_c, 9, 42, 64
2, 22656, Note_on_c, 9, 42, 64
2, 22656, Note_on_c, 9, 36, 80
2, 22664, Note_off_c, 9, 36, 80
2, 22664, Note_off_c, 9, 42, 64
2, 22752, Note_on_c, 9, 42, 64
2, 22760, Note_off_c, 9, 42, 64
2, 22848, Note_on_c, 9, 38, 70
2, 22848, Note_on_c, 9, 42, 64
2, 22856, Note_off_c, 9, 42, 64
2, 22856, Note_off_c, 9, 38, 70
2, 22944, Note_on_c, 9, 42, 64
2, 22952, Note_off_c, 9, 42, 64
2, 23040, Note_on_c, 9, 36, 80
2, 23040, Note_on_c, 9, 42, 64
2, 23048, Note_off_c, 9, 42, 64
2, 23048, Note_off_c, 9, 36, 80
2, 23136, Note_on_c, 9, 42, 64
2, 23144, Note_off_c, 9, 42, 64
2, 23232, Note_on_c, 9, 38, 70
2, 23232, Note_on_c, 9, 42, 64
2, 23240, Note_off_c, 9, 42, 64
2, 23240, Note_off_c, 9, 38, 70
2, 23328, Note_on_c, 9, 42, 64
2, 23328, Note_on_c, 9, 36, 80
2, 23336, Note_off_c, 9, 36, 80
2, 23336, Note_off_c, 9, 42, 64
2, 23424, Note_on_c, 9, 42, 64
2, 23424, Note_on_c, 9, 36, 80
2, 23432, Note_off_c, 9, 36, 80
2, 23432, Note_off_c, 9, 42, 64
2, 23520, Note_on_c, 9, 42, 64
2, 23528, Note_off_c, 9, 42, 64
2, 23616, Note_on_c, 9, 38, 70
2, 23616, Note_on_c, 9, 42, 64
2, 23624, Note_off_c, 9, 42, 64
2, 23624, Note_off_c, 9, 38, 70
2, 23712, Note_on_c, 9, 42, 64
2, 23720, Note_off_c, 9, 42, 64
2, 23808, Note_on_c, 9, 36, 80
2, 23808, Note_on_c, 9, 42, 64
2, 23816, Note_off_c, 9, 42, 64
2, 23816, Note_off_c, 9, 36, 80
2, 23904, Note_on_c, 9, 42, 64
2, 23912, Note_off_c, 9, 42, 64
2, 24000, Note_on_c, 9, 38, 70
2, 24000, Note_on_c, 9, 42, 64
2, 24008, Note_off_c, 9, 42, 64
2, 24008, Note_off_c, 9, 38, 70
2, 24096, Note_on_c, 9, 42, 64
2, 24096, Note_on_c, 9, 36, 80
2, 24104, Note_off_c, 9, 36, 80
2, 24104, Note_off_c, 9, 42, 64
2, 24192, Note_on_c, 9, 42, 64
2, 24192, Note_on_c, 9, 36, 80
2, 24200, Note_off_c, 9, 36, 80
2, 24200, Note_off_c, 9, 42, 64
2, 24288, Note_on_c, 9, 42, 64
2, 24296, Note_off_c, 9, 42, 64
2, 24384, Note_on_c, 9, 38, 70
2, 24384, Note_on_c, 9, 42, 64
2, 24392, Note_off_c, 9, 42, 64
2, 24392, Note_off_c, 9, 38, 70
2, 24480, Note_on_c, 9, 42, 64
2, 24488, Note_off_c, 9, 42, 64
2, 24576, Note_on_c, 9, 36, 80
2, 24576, Note_on_c, 9, 42, 64
2, 24584, Note_off_c, 9, 42, 64
2, 24584, Note_off_c, 9, 36, 80
2, 24672, Note_on_c, 9, 42, 64
2, 24680, Note_off_c, 9, 42, 64
2, 24768, Note_on_c, 9, 38, 70
2, 24768, Note_on_c, 9, 42, 64
2, 24776, Note_off_c, 9, 42, 64
2, 24776, Note_off_c, 9, 38, 70
2, 24864, Note_on_c, 9, 42, 64
2, 24864, Note_on_c, 9, 36, 80
2, 24872, Note_off_c, 9, 36, 80
2, 24872, Note_off_c, 9, 42, 64
2, 24960, Note_on_c, 9, 42, 64
2, 24960, Note_on_c, 9, 36, 80
2, 24968, Note_off_c, 9, 36, 80
2, 24968, Note_off_c, 9, 42, 64
2, 25056, Note_on_c, 9, 42, 64
2, 25064, Note_off_c, 9, 42, 64
2, 25152, Note_on_c, 9, 38, 70
2, 25152, Note_on_c, 9, 42, 64
2, 25160, Note_off_c, 9, 42, 64
2, 25160, Note_off_c, 9, 38, 70
2, 25248, Note_on_c, 9, 42, 64
2, 25256, Note_off_c, 9, 42, 64
2, 25344, Note_on_c, 9, 49, 64
2, 25344, Note_on_c, 9, 36, 80
2, 25344, Note_on_c, 9, 42, 64
2, 25352, Note_off_c, 9, 42, 64
2, 25352, Note_off_c, 9, 36, 80
2, 25352, Note_off_c, 9, 49, 64
2, 25440, Note_on_c, 9, 42, 64
2, 25448, Note_off_c, 9, 42, 64
2, 25536, Note_on_c, 9, 38, 70
2, 25536, Note_on_c, 9, 42, 64
2, 25544, Note_off_c, 9, 42, 64
2, 25544, Note_off_c, 9, 38, 70
2, 25632, Note_on_c, 9, 42, 64
2, 25632, Note_on_c, 9, 36, 80
2, 25640, Note_off_c, 9, 36, 80
2, 25640, Note_off_c, 9, 42, 64
2, 25728, Note_on_c, 9, 42, 64
2, 25728, Note_on_c, 9, 36, 80
2, 25736, Note_off_c, 9, 36, 80
2, 25736, Note_off_c, 9, 42, 64
2, 25824, Note_on_c, 9, 42, 64
2, 25832, Note_off_c, 9, 42, 64
2, 25920, Note_on_c, 9, 38, 70
2, 25920, Note_on_c, 9, 42, 64
2, 25928, Note_off_c, 9, 42, 64
2, 25928, Note_off_c, 9, 38, 70
2, 26016, Note_on_c, 9, 42, 64
2, 26024, Note_off_c, 9, 42, 64
2, 26112, Note_on_c, 9, 36, 80
2, 26112, Note_on_c, 9, 42, 64
2, 26120, Note_off_c, 9, 42, 64
2, 26120, Note_off_c, 9, 36, 80
2, 26208, Note_on_c, 9, 42, 64
2, 26216, Note_off_c, 9, 42, 64
2, 26304, Note_on_c, 9, 38, 70
2, 26304, Note_on_c, 9, 42, 64
2, 26312, Note_off_c, 9, 42, 64
2, 26312, Note_off_c, 9, 38, 70
2, 26400, Note_on_c, 9, 42, 64
2, 26400, Note_on_c, 9, 36, 80
2, 26408, Note_off_c, 9, 36, 80
2, 26408, Note_off_c, 9, 42, 64
2, 26496, Note_on_c, 9, 42, 64
2, 26496, Note_on_c, 9, 36, 80
2, 26504, Note_off_c, 9, 36, 80
2, 26504, Note_off_c, 9, 42, 64
2, 26592, Note_on_c, 9, 42, 64
2, 26600, Note_off_c, 9, 42, 64
2, 26688, Note_on_c, 9, 38, 70
2, 26688, Note_on_c, 9, 42, 64
2, 26696, Note_off_c, 9, 42, 64
2, 26696, Note_off_c, 9, 38, 70
2, 26784, Note_on_c, 9, 42, 64
2, 26792, Note_off_c, 9, 42, 64
2, 26880, Note_on_c, 9, 36, 80
2, 26880, Note_on_c, 9, 42, 64
2, 26888, Note_off_c, 9, 42, 64
2, 26888, Note_off_c, 9, 36, 80
2, 26976, Note_on_c, 9, 42, 64
2, 26984, Note_off_c, 9, 42, 64
2, 27072, Note_on_c, 9, 38, 70
2, 27072, Note_on_c, 9, 42, 64
2, 27080, Note_off_c, 9, 42, 64
2, 27080, Note_off_c, 9, 38, 70
2, 27168, Note_on_c, 9, 42, 64
2, 27168, Note_on_c, 9, 36, 80
2, 27176, Note_off_c, 9, 36, 80
2, 27176, Note_off_c, 9, 42, 64
2, 27264, Note_on_c, 9, 42, 64
2, 27264, Note_on_c, 9, 36, 80
2, 27272, Note_off_c, 9, 36, 80
2, 27272, Note_off_c, 9, 42, 64
2, 27360, Note_on_c, 9, 42, 64
2, 27368, Note_off_c, 9, 42, 64
2, 27456, Note_on_c, 9, 38, 70
2, 27456, Note_on_c, 9, 42, 64
2, 27464, Note_off_c, 9, 42, 64
2, 27464, Note_off_c, 9, 38, 70
2, 27552, Note_on_c, 9, 42, 64
2, 27560, Note_off_c, 9, 42, 64
2, 27648, Note_on_c, 9, 36, 80
2, 27648, Note_on_c, 9, 42, 64
2, 27656, Note_off_c, 9, 42, 64
2, 27656, Note_off_c, 9, 36, 80
2, 27744, Note_on_c, 9, 42, 64
2, 27752, Note_off_c, 9, 42, 64
2, 27840, Note_on_c, 9, 38, 70
2, 27840, Note_on_c, 9, 42, 64
2, 27848, Note_off_c, 9, 42, 64
2, 27848, Note_off_c, 9, 38, 70
2, 27936, Note_on_c, 9, 42, 64
2, 27936, Note_on_c, 9, 36, 80
2, 27944, Note_off_c, 9, 36, 80
2, 27944, Note_off_c, 9, 42, 64
2, 28032, Note_on_c, 9, 42, 64
2, 28032, Note_on_c, 9, 36, 80
2, 28040, Note_off_c, 9, 36, 80
2, 28040, Note_off_c, 9, 42, 64
2, 28128, Note_on_c, 9, 42, 64
2, 28136, Note_off_c, 9, 42, 64
2, 28224, Note_on_c, 9, 38, 70
2, 28224, Note_on_c, 9, 42, 64
2, 28232, Note_off_c, 9, 42, 64
2, 28232, Note_off_c, 9, 38, 70
2, 28320, Note_on_c, 9, 42, 64
2, 28328, Note_off_c, 9, 42, 64
2, 28416, Note_on_c, 9, 36, 80
2, 28416, Note_on_c, 9, 42, 64
2, 28424, Note_off_c, 9, 42, 64
2, 28424, Note_off_c, 9, 36, 80
2, 28512, Note_on_c, 9, 42, 64
2, 28520, Note_off_c, 9, 42, 64
2, 28608, Note_on_c, 9, 38, 70
2, 28608, Note_on_c, 9, 42, 64
2, 28616, Note_off_c, 9, 42, 64
2, 28616, Note_off_c, 9, 38, 70
2, 28704, Note_on_c, 9, 42, 64
2, 28704, Note_on_c, 9, 36, 80
2, 28712, Note_off_c, 9, 36, 80
2, 28712, Note_off_c, 9, 42, 64
2, 28800, Note_on_c, 9, 42, 64
2, 28800, Note_on_c, 9, 36, 80
2, 28808, Note_off_c, 9, 36, 80
2, 28808, Note_off_c, 9, 42, 64
2, 28896, Note_on_c, 9, 42, 64
2, 28904, Note_off_c, 9, 42, 64
2, 28992, Note_on_c, 9, 38, 70
2, 28992, Note_on_c, 9, 42, 64
2, 29000, Note_off_c, 9, 42, 64
2, 29000, Note_off_c, 9, 38, 70
2, 29088, Note_on_c, 9, 42, 64
2, 29096, Note_off_c, 9, 42, 64
2, 29184, Note_on_c, 9, 36, 80
2, 29184, Note_on_c, 9, 42, 64
2, 29192, Note_off_c, 9, 42, 64
2, 29192, Note_off_c, 9, 36, 80
2, 29280, Note_on_c, 9, 42, 64
2, 29288, Note_off_c, 9, 42, 64
2, 29376, Note_on_c, 9, 38, 70
2, 29376, Note_on_c, 9, 42, 64
2, 29384, Note_off_c, 9, 42, 64
2, 29384, Note_off_c, 9, 38, 70
2, 29472, Note_on_c, 9, 42, 64
2, 29472, Note_on_c, 9, 36, 80
2, 29480, Note_off_c, 9, 36, 80
2, 29480, Note_off_c, 9, 42, 64
2, 29568, Note_on_c, 9, 42, 64
2, 29568, Note_on_c, 9, 36, 80
2, 29576, Note_off_c, 9, 36, 80
2, 29576, Note_off_c, 9, 42, 64
2, 29664, Note_on_c, 9, 42, 64
2, 29672, Note_off_c, 9, 42, 64
2, 29760, Note_on_c, 9, 38, 70
2, 29760, Note_on_c, 9, 42, 64
2, 29768, Note_off_c, 9, 42, 64
2, 29768, Note_off_c, 9, 38, 70
2, 29856, Note_on_c, 9, 42, 64
2, 29864, Note_off_c, 9, 42, 64
2, 29952, Note_on_c, 9, 36, 80
2, 29952, Note_on_c, 9, 42, 64
2, 29960, Note_off_c, 9, 42, 64
2, 29960, Note_off_c, 9, 36, 80
2, 30048, Note_on_c, 9, 42, 64
2, 30056, Note_off_c, 9, 42, 64
2, 30144, Note_on_c, 9, 38, 70
2, 30144, Note_on_c, 9, 42, 64
2, 30152, Note_off_c, 9, 42, 64
2, 30152, Note_off_c, 9, 38, 70
2, 30240, Note_on_c, 9, 42, 64
2, 30240, Note_on_c, 9, 36, 80
2, 30248, Note_off_c, 9, 36, 80
2, 30248, Note_off_c, 9, 42, 64
2, 30336, Note_on_c, 9, 42, 64
2, 30336, Note_on_c, 9, 36, 80
2, 30344, Note_off_c, 9, 36, 80
2, 30344, Note_off_c, 9, 42, 64
2, 30432, Note_on_c, 9, 42, 64
2, 30440, Note_off_c, 9, 42, 64
2, 30528, Note_on_c, 9, 38, 70
2, 30528, Note_on_c, 9, 42, 64
2, 30536, Note_off_c, 9, 42, 64
2, 30536, Note_off_c, 9, 38, 70
2, 30624, Note_on_c, 9, 42, 64
2, 30632, Note_off_c, 9, 42, 64
2, 30720, Note_on_c, 9, 36, 80
2, 30720, Note_on_c, 9, 42, 64
2, 30728, Note_off_c, 9, 42, 64
2, 30728, Note_off_c, 9, 36, 80
2, 30816, Note_on_c, 9, 42, 64
2, 30824, Note_off_c, 9, 42, 64
2, 30912, Note_on_c, 9, 38, 70
2, 30912, Note_on_c, 9, 42, 64
2, 30920, Note_off_c, 9, 42, 64
2, 30920, Note_off_c, 9, 38, 70
2, 31008, Note_on_c, 9, 42, 64
2, 31008, Note_on_c, 9, 36, 80
2, 31016, Note_off_c, 9, 36, 80
2, 31016, Note_off_c, 9, 42, 64
2, 31104, Note_on_c, 9, 42, 64
2, 31104, Note_on_c, 9, 36, 80
2, 31112, Note_off_c, 9, 36, 80
2, 31112, Note_off_c, 9, 42, 64
2, 31200, Note_on_c, 9, 42, 64
2, 31208, Note_off_c, 9, 42, 64
2, 31296, Note_on_c, 9, 38, 70
2, 31296, Note_on_c, 9, 42, 64
2, 31304, Note_off_c, 9, 42, 64
2, 31304, Note_off_c, 9, 38, 70
2, 31392, Note_on_c, 9, 42, 64
2, 31400, Note_off_c, 9, 42, 64
2, 31488, Note_on_c, 9, 49, 64
2, 31488, Note_on_c, 9, 36, 80
2, 31488, Note_on_c, 9, 42, 64
2, 31496, Note_off_c, 9, 42, 64
2, 31496, Note_off_c, 9, 36, 80
2, 31496, Note_off_c, 9, 49, 64
2, 31584, Note_on_c, 9, 42, 64
2, 31592, Note_off_c, 9, 42, 64
2, 31680, Note_on_c, 9, 38, 70
2, 31680, Note_on_c, 9, 42, 64
2, 31688, Note_off_c, 9, 42, 64
2, 31688, Note_off_c, 9, 38, 70
2, 31776, Note_on_c, 9, 42, 64
2, 31776, Note_on_c, 9, 36, 80
2, 31784, Note_off_c, 9, 36, 80
2, 31784, Note_off_c, 9, 42, 64
2, 31872, Note_on_c, 9, 42, 64
2, 31872, Note_on_c, 9, 36, 80
2, 31880, Note_off_c, 9, 36, 80
2, 31880, Note_off_c, 9, 42, 64
2, 31968, Note_on_c, 9, 42, 64
2, 31976, Note_off_c, 9, 42, 64
2, 32064, Note_on_c, 9, 38, 70
2, 32064, Note_on_c, 9, 42, 64
2, 32072, Note_off_c, 9, 42, 64
2, 32072, Note_off_c, 9, 38, 70
2, 32160, Note_on_c, 9, 42, 64
2, 32168, Note_off_c, 9, 42, 64
2, 32256, Note_on_c, 9, 36, 80
2, 32256, Note_on_c, 9, 42, 64
2, 32264, Note_off_c, 9, 42, 64
2, 32264, Note_off_c, 9, 36, 80
2, 32352, Note_on_c, 9, 42, 64
2, 32360, Note_off_c, 9, 42, 64
2, 32448, Note_on_c, 9, 38, 70
2, 32448, Note_on_c, 9, 42, 64
2, 32456, Note_off_c, 9, 42, 64
2, 32456, Note_off_c, 9, 38, 70
2, 32544, Note_on_c, 9, 42, 64
2, 32544, Note_on_c, 9, 36, 80
2, 32552, Note_off_c, 9, 36, 80
2, 32552, Note_off_c, 9, 42, 64
2, 32640, Note_on_c, 9, 42, 64
2, 32640, Note_on_c, 9, 36, 80
2, 32648, Note_off_c, 9, 36, 80
2, 32648, Note_off_c, 9, 42, 64
2, 32736, Note_on_c, 9, 42, 64
2, 32744, Note_off_c, 9, 42, 64
2, 32832, Note_on_c, 9, 38, 70
2, 32832, Note_on_c, 9, 42, 64
2, 32840, Note_off_c, 9, 42, 64
2, 32840, Note_off_c, 9, 38, 70
2, 32928, Note_on_c, 9, 42, 64
2, 32936, Note_off_c, 9, 42, 64
2, 33024, Note_on_c, 9, 36, 80
2, 33024, Note_on_c, 9, 42, 64
2, 33032, Note_off_c, 9, 42, 64
2, 33032, Note_off_c, 9, 36, 80
2, 33120, Note_on_c, 9, 42, 64
2, 33128, Note_off_c, 9, 42, 64
2, 33216, Note_on_c, 9, 38, 70
2, 33216, Note_on_c, 9, 42, 64
2, 33224, Note_off_c, 9, 42, 64
2, 33224, Note_off_c, 9, 38, 70
2, 33312, Note_on_c, 9, 42, 64
2, 33312, Note_on_c, 9, 36, 80
2, 33320, Note_off_c, 9, 36, 80
2, 33320, Note_off_c, 9, 42, 64
2, 33408, Note_on_c, 9, 42, 64
2, 33408, Note_on_c, 9, 36, 80
2, 33416, Note_off_c, 9, 36, 80
2, 33416, Note_off_c, 9, 42, 64
2, 33504, Note_on_c, 9, 42, 64
2, 33512, Note_off_c, 9, 42, 64
2, 33600, Note_on_c, 9, 38, 70
2, 33600, Note_on_c, 9, 42, 64
2, 33608, Note_off_c, 9, 42, 64
2, 33608, Note_off_c, 9, 38, 70
2, 33696, Note_on_c, 9, 42, 64
2, 33704, Note_off_c, 9, 42, 64
2, 33792, Note_on_c, 9, 36, 80
2, 33792, Note_on_c, 9, 42, 64
2, 33800, Note_off_c, 9, 42, 64
2, 33800, Note_off_c, 9, 36, 80
2, 33888, Note_on_c, 9, 42, 64
2, 33896, Note_off_c, 9, 42, 64
2, 33984, Note_on_c, 9, 38, 70
2, 33984, Note_on_c, 9, 42, 64
2, 33992, Note_off_c, 9, 42, 64
2, 33992, Note_off_c, 9, 38, 70
2, 34080, Note_on_c, 9, 42, 64
2, 34080, Note_on_c, 9, 36, 80
2, 34088, Note_off_c, 9, 36, 80
2, 34088, Note_off_c, 9, 42, 64
2, 34176, Note_on_c, 9, 42, 64
2, 34176, Note_on_c, 9, 36, 80
2, 34184, Note_off_c, 9, 36, 80
2, 34184, Note_off_c, 9, 42, 64
2, 34272, Note_on_c, 9, 42, 64
2, 34280, Note_off_c, 9, 42, 64
2, 34368, Note_on_c, 9, 38, 70
2, 34368, Note_on_c, 9, 42, 64
2, 34376, Note_off_c, 9, 42, 64
2, 34376, Note_off_c, 9, 38, 70
2, 34464, Note_on_c, 9, 42, 64
2, 34472, Note_off_c, 9, 42, 64
2, 34560, Note_on_c, 9, 36, 80
2, 34560, Note_on_c, 9, 42, 64
2, 34568, Note_off_c, 9, 42, 64
2, 34568, Note_off_c, 9, 36, 80
2, 34656, Note_on_c, 9, 42, 64
2, 34664, Note_off_c, 9, 42, 64
2, 34752, Note_on_c, 9, 38, 70
2, 34752, Note_on_c, 9, 42, 64
2, 34760, Note_off_c, 9, 42, 64
2, 34760, Note_off_c, 9, 38, 70
2, 34848, Note_on_c, 9, 42, 64
2, 34848, Note_on_c, 9, 36, 80
2, 34856, Note_off_c, 9, 36, 80
2, 34856, Note_off_c, 9, 42, 64
2, 34944, Note_on_c, 9, 42, 64
2, 34944, Note_on_c, 9, 36, 80
2, 34952, Note_off_c, 9, 36, 80
2, 34952, Note_off_c, 9, 42, 64
2, 35040, Note_on_c, 9, 42, 64
2, 35048, Note_off_c, 9, 42, 64
2, 35136, Note_on_c, 9, 38, 70
2, 35136, Note_on_c, 9, 42, 64
2, 35144, Note_off_c, 9, 42, 64
2, 35144, Note_off_c, 9, 38, 70
2, 35232, Note_on_c, 9, 42, 64
2, 35240, Note_off_c, 9, 42, 64
2, 35328, Note_on_c, 9, 36, 80
2, 35328, Note_on_c, 9, 42, 64
2, 35336, Note_off_c, 9, 42, 64
2, 35336, Note_off_c, 9, 36, 80
2, 35424, Note_on_c, 9, 42, 64
2, 35432, Note_off_c, 9, 42, 64
2, 35520, Note_on_c, 9, 38, 70
2, 35520, Note_on_c, 9, 42, 64
2, 35528, Note_off_c, 9, 42, 64
2, 35528, Note_off_c, 9, 38, 70
2, 35616, Note_on_c, 9, 42, 64
2, 35616, Note_on_c, 9, 36, 80
2, 35624, Note_off_c, 9, 36, 80
2, 35624, Note_off_c, 9, 42, 64
2, 35712, Note_on_c, 9, 42, 64
2, 35712, Note_on_c, 9, 36, 80
2, 35720, Note_off_c, 9, 36, 80
2, 35720, Note_off_c, 9, 42, 64
2, 35808, Note_on_c, 9, 42, 64
2, 35816, Note_off_c, 9, 42, 64
2, 35904, Note_on_c, 9, 38, 70
2, 35904, Note_on_c, 9, 42, 64
2, 35912, Note_off_c, 9, 42, 64
2, 35912, Note_off_c, 9, 38, 70
2, 36000, Note_on_c, 9, 42, 64
2, 36008, Note_off_c, 9, 42, 64
2, 36096, Note_on_c, 9, 36, 80
2, 36096, Note_on_c, 9, 42, 64
2, 36104, Note_off_c, 9, 42, 64
2, 36104, Note_off_c, 9, 36, 80
2, 36192, Note_on_c, 9, 42, 64
2, 36200, Note_off_c, 9, 42, 64
2, 36288, Note_on_c, 9, 38, 70
2, 36288, Note_on_c, 9, 42, 64
2, 36296, Note_off_c, 9, 42, 64
2, 36296, Note_off_c, 9, 38, 70
2, 36384, Note_on_c, 9, 42, 64
2, 36384, Note_on_c, 9, 36, 80
2, 36392, Note_off_c, 9, 36, 80
2, 36392, Note_off_c, 9, 42, 64
2, 36480, Note_on_c, 9, 42, 64
2, 36480, Note_on_c, 9, 36, 80
2, 36488, Note_off_c, 9, 36, 80
2, 36488, Note_off_c, 9, 42, 64
2, 36576, Note_on_c, 9, 42, 64
2, 36584, Note_off_c, 9, 42, 64
2, 36672, Note_on_c, 9, 38, 70
2, 36672, Note_on_c, 9, 42, 64
2, 36680, Note_off_c, 9, 42, 64
2, 36680, Note_off_c, 9, 38, 70
2, 36768, Note_on_c, 9, 42, 64
2, 36776, Note_off_c, 9, 42, 64
2, 36864, Note_on_c, 9, 36, 80
2, 36864, Note_on_c, 9, 42, 64
2, 36872, Note_off_c, 9, 42, 64
2, 36872, Note_off_c, 9, 36, 80
2, 36960, Note_on_c, 9, 42, 64
2, 36968, Note_off_c, 9, 42, 64
2, 37056, Note_on_c, 9, 38, 70
2, 37056, Note_on_c, 9, 42, 64
2, 37064, Note_off_c, 9, 42, 64
2, 37064, Note_off_c, 9, 38, 70
2, 37152, Note_on_c, 9, 42, 64
2, 37152, Note_on_c, 9, 36, 80
2, 37160, Note_off_c, 9, 36, 80
2, 37160, Note_off_c, 9, 42, 64
2, 37248, Note_on_c, 9, 42, 64
2, 37248, Note_on_c, 9, 36, 80
2, 37256, Note_off_c, 9, 36, 80
2, 37256, Note_off_c, 9, 42, 64
2, 37344, Note_on_c, 9, 42, 64
2, 37352, Note_off_c, 9, 42, 64
2, 37440, Note_on_c, 9, 38, 70
2, 37440, Note_on_c, 9, 42, 64
2, 37448, Note_off_c, 9, 42, 64
2, 37448, Note_off_c, 9, 38, 70
2, 37536, Note_on_c, 9, 42, 64
2, 37544, Note_off_c, 9, 42, 64
2, 37632, Note_on_c, 9, 49, 64
2, 37632, Note_on_c, 9, 36, 80
2, 37632, Note_on_c, 9, 42, 64
2, 37640, Note_off_c, 9, 42, 64
2, 37640, Note_off_c, 9, 36, 80
2, 37640, Note_off_c, 9, 49, 64
2, 37728, Note_on_c, 9, 42, 64
2, 37736, Note_off_c, 9, 42, 64
2, 37824, Note_on_c, 9, 38, 70
2, 37824, Note_on_c, 9, 42, 64
2, 37832, Note_off_c, 9, 42, 64
2, 37832, Note_off_c, 9, 38, 70
2, 37920, Note_on_c, 9, 42, 64
2, 37920, Note_on_c, 9, 36, 80
2, 37928, Note_off_c, 9, 36, 80
2, 37928, Note_off_c, 9, 42, 64
2, 38016, Note_on_c, 9, 42, 64
2, 38016, Note_on_c, 9, 36, 80
2, 38024, Note_off_c, 9, 36, 80
2, 38024, Note_off_c, 9, 42, 64
2, 38112, Note_on_c, 9, 42, 64
2, 38120, Note_off_c, 9, 42, 64
2, 38208, Note_on_c, 9, 38, 70
2, 38208, Note_on_c, 9, 42, 64
2, 38216, Note_off_c, 9, 42, 64
2, 38216, Note_off_c, 9, 38, 70
2, 38304, Note_on_c, 9, 42, 64
2, 38312, Note_off_c, 9, 42, 64
2, 38400, Note_on_c, 9, 36, 80
2, 38400, Note_on_c, 9, 42, 64
2, 38408, Note_off_c, 9, 42, 64
2, 38408, Note_off_c, 9, 36, 80
2, 38496, Note_on_c, 9, 42, 64
2, 38504, Note_off_c, 9, 42, 64
2, 38592, Note_on_c, 9, 38, 70
2, 38592, Note_on_c, 9, 42, 64
2, 38600, Note_off_c, 9, 42, 64
2, 38600, Note_off_c, 9, 38, 70
2, 38688, Note_on_c, 9, 42, 64
2, 38688, Note_on_c, 9, 36, 80
2, 38696, Note_off_c, 9, 36, 80
2, 38696, Note_off_c, 9, 42, 64
2, 38784, Note_on_c, 9, 42, 64
2, 38784, Note_on_c, 9, 36, 80
2, 38792, Note_off_c, 9, 36, 80
2, 38792, Note_off_c, 9, 42, 64
2, 38880, Note_on_c, 9, 42, 64
2, 38888, Note_off_c, 9, 42, 64
2, 38976, Note_on_c, 9, 38, 70
2, 38976, Note_on_c, 9, 42, 64
2, 38984, Note_off_c, 9, 42, 64
2, 38984, Note_off_c, 9, 38, 70
2, 39072, Note_on_c, 9, 42, 64
2, 39080, Note_off_c, 9, 42, 64
2, 39168, Note_on_c, 9, 36, 80
2, 39168, Note_on_c, 9, 42, 64
2, 39176, Note_off_c, 9, 42, 64
2, 39176, Note_off_c, 9, 36, 80
2, 39264, Note_on_c, 9, 42, 64
2, 39272, Note_off_c, 9, 42, 64
2, 39360, Note_on_c, 9, 38, 70
2, 39360, Note_on_c, 9, 42, 64
2, 39368, Note_off_c, 9, 42, 64
2, 39368, Note_off_c, 9, 38, 70
2, 39456, Note_on_c, 9, 42, 64
2, 39456, Note_on_c, 9, 36, 80
2, 39464, Note_off_c, 9, 36, 80
2, 39464, Note_off_c, 9, 42, 64
2, 39552, Note_on_c, 9, 42, 64
2, 39552, Note_on_c, 9, 36, 80
2, 39560, Note_off_c, 9, 36, 80
2, 39560, Note_off_c, 9, 42, 64
2, 39648, Note_on_c, 9, 42, 64
2, 39656, Note_off_c, 9, 42, 64
2, 39744, Note_on_c, 9, 38, 70
2, 39744, Note_on_c, 9, 42, 64
2, 39752, Note_off_c, 9, 42, 64
2, 39752, Note_off_c, 9, 38, 70
2, 39840, Note_on_c, 9, 42, 64
2, 39848, Note_off_c, 9, 42, 64
2, 39936, Note_on_c, 9, 36, 80
2, 39936, Note_on_c, 9, 42, 64
2, 39944, Note_off_c, 9, 42, 64
2, 39944, Note_off_c, 9, 36, 80
2, 40032, Note_on_c, 9, 42, 64
2, 40040, Note_off_c, 9, 42, 64
2, 40128, Note_on_c, 9, 38, 70
2, 40128, Note_on_c, 9, 42, 64
2, 40136, Note_off_c, 9, 42, 64
2, 40136, Note_off_c, 9, 38, 70
2, 40224, Note_on_c, 9, 42, 64
2, 40224, Note_on_c, 9, 36, 80
2, 40232, Note_off_c, 9, 36, 80
2, 40232, Note_off_c, 9, 42, 64
2, 40320, Note_on_c, 9, 42, 64
2, 40320, Note_on_c, 9, 36, 80
2, 40328, Note_off_c, 9, 36, 80
2, 40328, Note_off_c, 9, 42, 64
2, 40416, Note_on_c, 9, 42, 64
2, 40424, Note_off_c, 9, 42, 64
2, 40512, Note_on_c, 9, 38, 70
2, 40512, Note_on_c, 9, 42, 64
2, 40520, Note_off_c, 9, 42, 64
2, 40520, Note_off_c, 9, 38, 70
2, 40608, Note_on_c, 9, 42, 64
2, 40616, Note_off_c, 9, 42, 64
2, 40704, Note_on_c, 9, 36, 80
2, 40704, Note_on_c, 9, 42, 64
2, 40712, Note_off_c, 9, 42, 64
2, 40712, Note_off_c, 9, 36, 80
2, 40800, Note_on_c, 9, 42, 64
2, 40808, Note_off_c, 9, 42, 64
2, 40896, Note_on_c, 9, 38, 70
2, 40896, Note_on_c, 9, 42, 64
2, 40904, Note_off_c, 9, 42, 64
2, 40904, Note_off_c, 9, 38, 70
2, 40992, Note_on_c, 9, 42, 64
2, 40992, Note_on_c, 9, 36, 80
2, 41000, Note_off_c, 9, 36, 80
2, 41000, Note_off_c, 9, 42, 64
2, 41088, Note_on_c, 9, 42, 64
2, 41088, Note_on_c, 9, 36, 80
2, 41096, Note_off_c, 9, 36, 80
2, 41096, Note_off_c, 9, 42, 64
2, 41184, Note_on_c, 9, 42, 64
2, 41192, Note_off_c, 9, 42, 64
2, 41280, Note_on_c, 9, 38, 70
2, 41280, Note_on_c, 9, 42, 64
2, 41288, Note_off_c, 9, 42, 64
2, 41288, Note_off_c, 9, 38, 70
2, 41376, Note_on_c, 9, 42, 64
2, 41384, Note_off_c, 9, 42, 64
2, 41472, Note_on_c, 9, 36, 80
2, 41472, Note_on_c, 9, 42, 64
2, 41480, Note_off_c, 9, 42, 64
2, 41480, Note_off_c, 9, 36, 80
2, 41568, Note_on_c, 9, 42, 64
2, 41576, Note_off_c, 9, 42, 64
2, 41664, Note_on_c, 9, 38, 70
2, 41664, Note_on_c, 9, 42, 64
2, 41672, Note_off_c, 9, 42, 64
2, 41672, Note_off_c, 9, 38, 70
2, 41760, Note_on_c, 9, 42, 64
2, 41760, Note_on_c, 9, 36, 80
2, 41768, Note_off_c, 9, 36, 80
2, 41768, Note_off_c, 9, 42, 64
2, 41856, Note_on_c, 9, 42, 64
2, 41856, Note_on_c, 9, 36, 80
2, 41864, Note_off_c, 9, 36, 80
2, 41864, Note_off_c, 9, 42, 64
2, 41952, Note_on_c, 9, 42, 64
2, 41960, Note_off_c, 9, 42, 64
2, 42048, Note_on_c, 9, 38, 70
2, 42048, Note_on_c, 9, 42, 64
2, 42056, Note_off_c, 9, 42, 64
2, 42056, Note_off_c, 9, 38, 70
2, 42144, Note_on_c, 9, 42, 64
2, 42152, Note_off_c, 9, 42, 64
2, 42240, Note_on_c, 9, 36, 80
2, 42240, Note_on_c, 9, 42, 64
2, 42248, Note_off_c, 9, 42, 64
2, 42248, Note_off_c, 9, 36, 80
2, 42336, Note_on_c, 9, 42, 64
2, 42344, Note_off_c, 9, 42, 64
2, 42432, Note_on_c, 9, 38, 70
2, 42432, Note_on_c, 9, 42, 64
2, 42440, Note_off_c, 9, 42, 64
2, 42440, Note_off_c, 9, 38, 70
2, 42528, Note_on_c, 9, 42, 64
2, 42528, Note_on_c, 9, 36, 80
2, 42536, Note_off_c, 9, 36, 80
2, 42536, Note_off_c, 9, 42, 64
2, 42624, Note_on_c, 9, 42, 64
2, 42624, Note_on_c, 9, 36, 80
2, 42632, Note_off_c, 9, 36, 80
2, 42632, Note_off_c, 9, 42, 64
2, 42720, Note_on_c, 9, 42, 64
2, 42728, Note_off_c, 9, 42, 64
2, 42816, Note_on_c, 9, 38, 70
2, 42816, Note_on_c, 9, 42, 64
2, 42824, Note_off_c, 9, 42, 64
2, 42824, Note_off_c, 9, 38, 70
2, 42912, Note_on_c, 9, 42, 64
2, 42920, Note_off_c, 9, 42, 64
2, 43008, Note_on_c, 9, 36, 80
2, 43008, Note_on_c, 9, 42, 64
2, 43016, Note_off_c, 9, 42, 64
2, 43016, Note_off_c, 9, 36, 80
2, 43104, Note_on_c, 9, 42, 64
2, 43112, Note_off_c, 9, 42, 64
2, 43200, Note_on_c, 9, 38, 70
2, 43200, Note_on_c, 9, 42, 64
2, 43208, Note_off_c, 9, 42, 64
2, 43208, Note_off_c, 9, 38, 70
2, 43296, Note_on_c, 9, 42, 64
2, 43296, Note_on_c, 9, 36, 80
2, 43304, Note_off_c, 9, 36, 80
2, 43304, Note_off_c, 9, 42, 64
2, 43392, Note_on_c, 9, 42, 64
2, 43392, Note_on_c, 9, 36, 80
2, 43400, Note_off_c, 9, 36, 80
2, 43400, Note_off_c, 9, 42, 64
2, 43488, Note_on_c, 9, 42, 64
2, 43496, Note_off_c, 9, 42, 64
2, 43584, Note_on_c, 9, 38, 70
2, 43584, Note_on_c, 9, 42, 64
2, 43592, Note_off_c, 9, 42, 64
2, 43592, Note_off_c, 9, 38, 70
2, 43680, Note_on_c, 9, 42, 64
2, 43688, Note_off_c, 9, 42, 64
2, 43776, Note_on_c, 9, 49, 64
2, 43776, Note_on_c, 9, 36, 80
2, 43776, Note_on_c, 9, 42, 64
2, 43784, Note_off_c, 9, 42, 64
2, 43784, Note_off_c, 9, 36, 80
2, 43784, Note_off_c, 9, 49, 64
2, 43872, Note_on_c, 9, 42, 64
2, 43880, Note_off_c, 9, 42, 64
2, 43968, Note_on_c, 9, 38, 70
2, 43968, Note_on_c, 9, 42, 64
2, 43976, Note_off_c, 9, 42, 64
2, 43976, Note_off_c, 9, 38, 70
2, 44064, Note_on_c, 9, 42, 64
2, 44064, Note_on_c, 9, 36, 80
2, 44072, Note_off_c, 9, 36, 80
2, 44072, Note_off_c, 9, 42, 64
2, 44160, Note_on_c, 9, 42, 64
2, 44160, Note_on_c, 9, 36, 80
2, 44168, Note_off_c, 9, 36, 80
2, 44168, Note_off_c, 9, 42, 64
2, 44256, Note_on_c, 9, 42, 64
2, 44264, Note_off_c, 9, 42, 64
2, 44352, Note_on_c, 9, 38, 70
2, 44352, Note_on_c, 9, 42, 64
2, 44360, Note_off_c, 9, 42, 64
2, 44360, Note_off_c, 9, 38, 70
2, 44448, Note_on_c, 9, 42, 64
2, 44456, Note_off_c, 9, 42, 64
2, 44544, Note_on_c, 9, 36, 80
2, 44544, Note_on_c, 9, 42, 64
2, 44552, Note_off_c, 9, 42, 64
2, 44552, Note_off_c, 9, 36, 80
2, 44640, Note_on_c, 9, 42, 64
2, 44648, Note_off_c, 9, 42, 64
2, 44736, Note_on_c, 9, 38, 70
2, 44736, Note_on_c, 9, 42, 64
2, 44744, Note_off_c, 9, 42, 64
2, 44744, Note_off_c, 9, 38, 70
2, 44832, Note_on_c, 9, 42, 64
2, 44832, Note_on_c, 9, 36, 80
2, 44840, Note_off_c, 9, 36, 80
2, 44840, Note_off_c, 9, 42, 64
2, 44928, Note_on_c, 9, 42, 64
2, 44928, Note_on_c, 9, 36, 80
2, 44936, Note_off_c, 9, 36, 80
2, 44936, Note_off_c, 9, 42, 64
2, 45024, Note_on_c, 9, 42, 64
2, 45032, Note_off_c, 9, 42, 64
2, 45120, Note_on_c, 9, 38, 70
2, 45120, Note_on_c, 9, 42, 64
2, 45128, Note_off_c, 9, 42, 64
2, 45128, Note_off_c, 9, 38, 70
2, 45216, Note_on_c, 9, 42, 64
2, 45224, Note_off_c, 9, 42, 64
2, 45312, Note_on_c, 9, 36, 80
2, 45312, Note_on_c, 9, 42, 64
2, 45320, Note_off_c, 9, 42, 64
2, 45320, Note_off_c, 9, 36, 80
2, 45408, Note_on_c, 9, 42, 64
2, 45416, Note_off_c, 9, 42, 64
2, 45504, Note_on_c, 9, 38, 70
2, 45504, Note_on_c, 9, 42, 64
2, 45512, Note_off_c, 9, 42, 64
2, 45512, Note_off_c, 9, 38, 70
2, 45600, Note_on_c, 9, 42, 64
2, 45600, Note_on_c, 9, 36, 80
2, 45608, Note_off_c, 9, 36, 80
2, 45608, Note_off_c, 9, 42, 64
2, 45696, Note_on_c, 9, 42, 64
2, 45696, Note_on_c, 9, 36, 80
2, 45704, Note_off_c, 9, 36, 80
2, 45704, Note_off_c, 9, 42, 64
2, 45792, Note_on_c, 9, 42, 64
2, 45800, Note_off_c, 9, 42, 64
2, 45888, Note_on_c, 9, 38, 70
2, 45888, Note_on_c, 9, 42, 64
2, 45896, Note_off_c, 9, 42, 64
2, 45896, Note_off_c, 9, 38, 70
2, 45984, Note_on_c, 9, 42, 64
2, 45992, Note_off_c, 9, 42, 64
2, 46080, Note_on_c, 9, 36, 80
2, 46080, Note_on_c, 9, 42, 64
2, 46088, Note_off_c, 9, 42, 64
2, 46088, Note_off_c, 9, 36, 80
2, 46176, Note_on_c, 9, 42, 64
2, 46184, Note_off_c, 9, 42, 64
2, 46272, Note_on_c, 9, 38, 70
2, 46272, Note_on_c, 9, 42, 64
2, 46280, Note_off_c, 9, 42, 64
2, 46280, Note_off_c, 9, 38, 70
2, 46368, Note_on_c, 9, 42, 64
2, 46368, Note_on_c, 9, 36, 80
2, 46376, Note_off_c, 9, 36, 80
2, 46376, Note_off_c, 9, 42, 64
2, 46464, Note_on_c, 9, 42, 64
2, 46464, Note_on_c, 9, 36, 80
2, 46472, Note_off_c, 9, 36, 80
2, 46472, Note_off_c, 9, 42, 64
2, 46560, Note_on_c, 9, 42, 64
2, 46568, Note_off_c, 9, 42, 64
2, 46656, Note_on_c, 9, 38, 70
2, 46656, Note_on_c, 9, 42, 64
2, 46664, Note_off_c, 9, 42, 64
2, 46664, Note_off_c, 9, 38, 70
2, 46752, Note_on_c, 9, 42, 64
2, 46760, Note_off_c, 9, 42, 64
2, 46848, Note_on_c, 9, 36, 80
2, 46848, Note_on_c, 9, 42, 64
2, 46856, Note_off_c, 9, 42, 64
2, 46856, Note_off_c, 9, 36, 80
2, 46944, Note_on_c, 9, 42, 64
2, 46952, Note_off_c, 9, 42, 64
2, 47040, Note_on_c, 9, 38, 70
2, 47040, Note_on_c, 9, 42, 64
2, 47048, Note_off_c, 9, 42, 64
2, 47048, Note_off_c, 9, 38, 70
2, 47136, Note_on_c, 9, 42, 64
2, 47136, Note_on_c, 9, 36, 80
2, 47144, Note_off_c, 9, 36, 80
2, 47144, Note_off_c, 9, 42, 64
2, 47232, Note_on_c, 9, 42, 64
2, 47232, Note_on_c, 9, 36, 80
2, 47240, Note_off_c, 9, 36, 80
2, 47240, Note_off_c, 9, 42, 64
2, 47328, Note_on_c, 9, 42, 64
2, 47336, Note_off_c, 9, 42, 64
2, 47424, Note_on_c, 9, 38, 70
2, 47424, Note_on_c, 9, 42, 64
2, 47432, Note_off_c, 9, 42, 64
2, 47432, Note_off_c, 9, 38, 70
2, 47520, Note_on_c, 9, 42, 64
2, 47528, Note_off_c, 9, 42, 64
2, 47616, Note_on_c, 9, 36, 80
2, 47616, Note_on_c, 9, 42, 64
2, 47624, Note_off_c, 9, 42, 64
2, 47624, Note_off_c, 9, 36, 80
2, 47712, Note_on_c, 9, 42, 64
2, 47720, Note_off_c, 9, 42, 64
2, 47808, Note_on_c, 9, 38, 70
2, 47808, Note_on_c, 9, 42, 64
2, 47816, Note_off_c, 9, 42, 64
2, 47816, Note_off_c, 9, 38, 70
2, 47904, Note_on_c, 9, 42, 64
2, 47904, Note_on_c, 9, 36, 80
2, 47912, Note_off_c, 9, 36, 80
2, 47912, Note_off_c, 9, 42, 64
2, 48000, Note_on_c, 9, 42, 64
2, 48000, Note_on_c, 9, 36, 80
2, 48008, Note_off_c, 9, 36, 80
2, 48008, Note_off_c, 9, 42, 64
2, 48096, Note_on_c, 9, 42, 64
2, 48104, Note_off_c, 9, 42, 64
2, 48192, Note_on_c, 9, 38, 70
2, 48192, Note_on_c, 9, 42, 64
2, 48200, Note_off_c, 9, 42, 64
2, 48200, Note_off_c, 9, 38, 70
2, 48288, Note_on_c, 9, 42, 64
2, 48296, Note_off_c, 9, 42, 64
2, 48384, Note_on_c, 9, 36, 80
2, 48384, Note_on_c, 9, 42, 64
2, 48392, Note_off_c, 9, 42, 64
2, 48392, Note_off_c, 9, 36, 80
2, 48480, Note_on_c, 9, 42, 64
2, 48488, Note_off_c, 9, 42, 64
2, 48576, Note_on_c, 9, 38, 70
2, 48576, Note_on_c, 9, 42, 64
2, 48584, Note_off_c, 9, 42, 64
2, 48584, Note_off_c, 9, 38, 70
2, 48672, Note_on_c, 9, 42, 64
2, 48672, Note_on_c, 9, 36, 80
2, 48680, Note_off_c, 9, 36, 80
2, 48680, Note_off_c, 9, 42, 64
2, 48768, Note_on_c, 9, 42, 64
2, 48768, Note_on_c, 9, 36, 80
2, 48776, Note_off_c, 9, 36, 80
2, 48776, Note_off_c, 9, 42, 64
2, 48864, Note_on_c, 9, 42, 64
2, 48872, Note_off_c, 9, 42, 64
2, 48960, Note_on_c, 9, 38, 70
2, 48960, Note_on_c, 9, 42, 64
2, 48968, Note_off_c, 9, 42, 64
2, 48968, Note_off_c, 9, 38, 70
2, 49056, Note_on_c, 9, 42, 64
2, 49064, Note_off_c, 9, 42, 64
2, 49152, Note_on_c, 9, 36, 80
2, 49152, Note_on_c, 9, 42, 64
2, 49160, Note_off_c, 9, 42, 64
2, 49160, Note_off_c, 9, 36, 80
2, 49248, Note_on_c, 9, 42, 64
2, 49256, Note_off_c, 9, 42, 64
2, 49344, Note_on_c, 9, 38, 70
2, 49344, Note_on_c, 9, 42, 64
2, 49352, Note_off_c, 9, 42, 64
2, 49352, Note_off_c, 9, 38, 70
2, 49440, Note_on_c, 9, 42, 64
2, 49440, Note_on_c, 9, 36, 80
2, 49448, Note_off_c, 9, 36, 80
2, 49448, Note_off_c, 9, 42, 64
2, 49536, Note_on_c, 9, 42, 64
2, 49536, Note_on_c, 9, 36, 80
2, 49544, Note_off_c, 9, 36, 80
2, 49544, Note_off_c, 9, 42, 64
2, 49632, Note_on_c, 9, 42, 64
2, 49640, Note_off_c, 9, 42, 64
2, 49728, Note_on_c, 9, 38, 70
2, 49728, Note_on_c, 9, 42, 64
2, 49736, Note_off_c, 9, 42, 64
2, 49736, Note_off_c, 9, 38, 70
2, 49824, Note_on_c, 9, 42, 64
2, 49832, Note_off_c, 9, 42, 64
2, 49920, Note_on_c, 9, 49, 64
2, 49920, Note_on_c, 9, 36, 80
2, 49920, Note_on_c, 9, 42, 64
2, 49928, Note_off_c, 9, 42, 64
2, 49928, Note_off_c, 9, 36, 80
2, 49928, Note_off_c, 9, 49, 64
2, 50016, Note_on_c, 9, 42, 64
2, 50024, Note_off_c, 9, 42, 64
2, 50112, Note_on_c, 9, 38, 70
2, 50112, Note_on_c, 9, 42, 64
2, 50120, Note_off_c, 9, 42, 64
2, 50120, Note_off_c, 9, 38, 70
2, 50208, Note_on_c, 9, 42, 64
2, 50208, Note_on_c, 9, 36, 80
2, 50216, Note_off_c, 9, 36, 80
2, 50216, Note_off_c, 9, 42, 64
2, 50304, Note_on_c, 9, 42, 64
2, 50304, Note_on_c, 9, 36, 80
2, 50312, Note_off_c, 9, 36, 80
2, 50312, Note_off_c, 9, 42, 64
2, 50400, Note_on_c, 9, 42, 64
2, 50408, Note_off_c, 9, 42, 64
2, 50496, Note_on_c, 9, 38, 70
2, 50496, Note_on_c, 9, 42, 64
2, 50504, Note_off_c, 9, 42, 64
2, 50504, Note_off_c, 9, 38, 70
2, 50592, Note_on_c, 9, 42, 64
2, 50600, Note_off_c, 9, 42, 64
2, 50688, Note_on_c, 9, 36, 80
2, 50688, Note_on_c, 9, 42, 64
2, 50696, Note_off_c, 9, 42, 64
2, 50696, Note_off_c, 9, 36, 80
2, 50784, Note_on_c, 9, 42, 64
2, 50792, Note_off_c, 9, 42, 64
2, 50880, Note_on_c, 9, 38, 70
2, 50880, Note_on_c, 9, 42, 64
2, 50888, Note_off_c, 9, 42, 64
2, 50888, Note_off_c, 9, 38, 70
2, 50976, Note_on_c, 9, 42, 64
2, 50976, Note_on_c, 9, 36, 80
2, 50984, Note_off_c, 9, 36, 80
2, 50984, Note_off_c, 9, 42, 64
2, 51072, Note_on_c, 9, 42, 64
2, 51072, Note_on_c, 9, 36, 80
2, 51080, Note_off_c, 9, 36, 80
2, 51080, Note_off_c, 9, 42, 64
2, 51168, Note_on_c, 9, 42, 64
2, 51176, Note_off_c, 9, 42, 64
2, 51264, Note_on_c, 9, 38, 70
2, 51264, Note_on_c, 9, 42, 64
2, 51272, Note_off_c, 9, 42, 64
2, 51272, Note_off_c, 9, 38, 70
2, 51360, Note_on_c, 9, 42, 64
2, 51368, Note_off_c, 9, 42, 64
2, 51456, Note_on_c, 9, 36, 80
2, 51456, Note_on_c, 9, 42, 64
2, 51464, Note_off_c, 9, 42, 64
2, 51464, Note_off_c, 9, 36, 80
2, 51552, Note_on_c, 9, 42, 64
2, 51560, Note_off_c, 9, 42, 64
2, 51648, Note_on_c, 9, 38, 70
2, 51648, Note_on_c, 9, 42, 64
2, 51656, Note_off_c, 9, 42, 64
2, 51656, Note_off_c, 9, 38, 70
2, 51744, Note_on_c, 9, 42, 64
2, 51744, Note_on_c, 9, 36, 80
2, 51752, Note_off_c, 9, 36, 80
2, 51752, Note_off_c, 9, 42, 64
2, 51840, Note_on_c, 9, 42, 64
2, 51840, Note_on_c, 9, 36, 80
2, 51848, Note_off_c, 9, 36, 80
2, 51848, Note_off_c, 9, 42, 64
2, 51936, Note_on_c, 9, 42, 64
2, 51944, Note_off_c, 9, 42, 64
2, 52032, Note_on_c, 9, 38, 70
2, 52032, Note_on_c, 9, 42, 64
2, 52040, Note_off_c, 9, 42, 64
2, 52040, Note_off_c, 9, 38, 70
2, 52128, Note_on_c, 9, 42, 64
2, 52136, Note_off_c, 9, 42, 64
2, 52224, Note_on_c, 9, 36, 80
2, 52224, Note_on_c, 9, 42, 64
2, 52232, Note_off_c, 9, 42, 64
2, 52232, Note_off_c, 9, 36, 80
2, 52320, Note_on_c, 9, 42, 64
2, 52328, Note_off_c, 9, 42, 64
2, 52416, Note_on_c, 9, 38, 70
2, 52416, Note_on_c, 9, 42, 64
2, 52424, Note_off_c, 9, 42, 64
2, 52424, Note_off_c, 9, 38, 70
2, 52512, Note_on_c, 9, 42, 64
2, 52512, Note_on_c, 9, 36, 80
2, 52520, Note_off_c, 9, 36, 80
2, 52520, Note_off_c, 9, 42, 64
2, 52608, Note_on_c, 9, 42, 64
2, 52608, Note_on_c, 9, 36, 80
2, 52616, Note_off_c, 9, 36, 80
2, 52616, Note_off_c, 9, 42, 64
2, 52704, Note_on_c, 9, 42, 64
2, 52712, Note_off_c, 9, 42, 64
2, 52800, Note_on_c, 9, 38, 70
2, 52800, Note_on_c, 9, 42, 64
2, 52808, Note_off_c, 9, 42, 64
2, 52808, Note_off_c, 9, 38, 70
2, 52896, Note_on_c, 9, 42, 64
2, 52904, Note_off_c, 9, 42, 64
2, 52992, Note_on_c, 9, 36, 80
2, 52992, Note_on_c, 9, 42, 64
2, 53000, Note_off_c, 9, 42, 64
2, 53000, Note_off_c, 9, 36, 80
2, 53088, Note_on_c, 9, 42, 64
2, 53096, Note_off_c, 9, 42, 64
2, 53184, Note_on_c, 9, 38, 70
2, 53184, Note_on_c, 9, 42, 64
2, 53192, Note_off_c, 9, 42, 64
2, 53192, Note_off_c, 9, 38, 70
2, 53280, Note_on_c, 9, 42, 64
2, 53280, Note_on_c, 9, 36, 80
2, 53288, Note_off_c, 9, 36, 80
2, 53288, Note_off_c, 9, 42, 64
2, 53376, Note_on_c, 9, 42, 64
2, 53376, Note_on_c, 8, 36, 80
2, 53384, Note_off_c, 9, 36, 80
2, 53384, Note_off_c, 9, 42, 64
2, 53472, Note_on_c, 9, 42, 64
2, 53480, Note_off_c, 9, 42, 64
2, 53568, Note_on_c, 9, 38, 70
2, 53568, Note_on_c, 9, 42, 64
2, 53576, Note_off_c, 9, 42, 64
2, 53576, Note_off_c, 9, 38, 70
2, 53664, Note_on_c, 9, 42, 64
2, 53672, Note_off_c, 9, 42, 64
2, 53760, Note_on_c, 9, 36, 80
2, 53760, Note_on_c, 9, 42, 64
2, 53768, Note_off_c, 9, 42, 64
2, 53768, Note_off_c, 9, 36, 80
2, 53856, Note_on_c, 9, 42, 64
2, 53864, Note_off_c, 9, 42, 64
2, 53952, Note_on_c, 9, 38, 70
2, 53952, Note_on_c, 9, 42, 64
2, 53960, Note_off_c, 9, 42, 64
2, 53960, Note_off_c, 9, 38, 70
2, 54048, Note_on_c, 9, 42, 64
2, 54048, Note_on_c, 9, 36, 80
2, 54056, Note_off_c, 9, 36, 80
2, 54056, Note_off_c, 9, 42, 64
2, 54144, Note_on_c, 9, 42, 64
2, 54144, Note_on_c, 9, 36, 80
2, 54152, Note_off_c, 9, 36, 80
2, 54152, Note_off_c, 9, 42, 64
2, 54240, Note_on_c, 9, 42, 64
2, 54248, Note_off_c, 9, 42, 64
2, 54336, Note_on_c, 9, 38, 70
2, 54336, Note_on_c, 9, 42, 64
2, 54344, Note_off_c, 9, 42, 64
2, 54344, Note_off_c, 9, 38, 70
2, 54432, Note_on_c, 9, 42, 64
2, 54440, Note_off_c, 9, 42, 64
2, 54528, Note_on_c, 9, 36, 80
2, 54528, Note_on_c, 9, 42, 64
2, 54536, Note_off_c, 9, 42, 64
2, 54536, Note_off_c, 9, 36, 80
2, 54624, Note_on_c, 9, 42, 64
2, 54632, Note_off_c, 9, 42, 64
2, 54720, Note_on_c, 9, 38, 70
2, 54720, Note_on_c, 9, 42, 64
2, 54728, Note_off_c, 9, 42, 64
2, 54728, Note_off_c, 9, 38, 70
2, 54816, Note_on_c, 9, 42, 64
2, 54816, Note_on_c, 9, 36, 80
2, 54824, Note_off_c, 9, 36, 80
2, 54824, Note_off_c, 9, 42, 64
2, 54912, Note_on_c, 9, 42, 64
2, 54912, Note_on_c, 9, 36, 80
2, 54920, Note_off_c, 9, 36, 80
2, 54920, Note_off_c, 9, 42, 64
2, 55008, Note_on_c, 9, 42, 64
2, 55016, Note_off_c, 9, 42, 64
2, 55104, Note_on_c, 9, 38, 70
2, 55104, Note_on_c, 9, 42, 64
2, 55112, Note_off_c, 9, 42, 64
2, 55112, Note_off_c, 9, 38, 70
2, 55200, Note_on_c, 9, 42, 64
2, 55208, Note_off_c, 9, 42, 64
2, 55296, Note_on_c, 9, 36, 80
2, 55296, Note_on_c, 9, 42, 64
2, 55304, Note_off_c, 9, 42, 64
2, 55304, Note_off_c, 9, 36, 80
2, 55392, Note_on_c, 9, 42, 64
2, 55400, Note_off_c, 9, 42, 64
2, 55488, Note_on_c, 9, 38, 70
2, 55488, Note_on_c, 9, 42, 64
2, 55496, Note_off_c, 9, 42, 64
2, 55496, Note_off_c, 9, 38, 70
2, 55584, Note_on_c, 9, 42, 64
2, 55584, Note_on_c, 9, 36, 80
2, 55592, Note_off_c, 9, 36, 80
2, 55592, Note_off_c, 9, 42, 64
2, 55680, Note_on_c, 9, 42, 64
2, 55680, Note_on_c, 9, 36, 80
2, 55688, Note_off_c, 9, 36, 80
2, 55688, Note_off_c, 9, 42, 64
2, 55776, Note_on_c, 9, 42, 64
2, 55784, Note_off_c, 9, 42, 64
2, 55872, Note_on_c, 9, 38, 70
2, 55872, Note_on_c, 9, 42, 64
2, 55880, Note_off_c, 9, 42, 64
2, 55880, Note_off_c, 9, 38, 70
2, 55968, Note_on_c, 9, 42, 64
2, 55976, Note_off_c, 9, 42, 64
2, 56064, Note_on_c, 9, 49, 64
2, 56064, Note_on_c, 9, 36, 80
2, 56064, Note_on_c, 9, 42, 64
2, 56072, Note_off_c, 9, 42, 64
2, 56072, Note_off_c, 9, 36, 80
2, 56072, Note_off_c, 9, 49, 64
2, 56160, Note_on_c, 9, 42, 64
2, 56168, Note_off_c, 9, 42, 64
2, 56256, Note_on_c, 9, 38, 70
2, 56256, Note_on_c, 9, 42, 64
2, 56264, Note_off_c, 9, 42, 64
2, 56264, Note_off_c, 9, 38, 70
2, 56352, Note_on_c, 9, 42, 64
2, 56352, Note_on_c, 9, 36, 80
2, 56360, Note_off_c, 9, 36, 80
2, 56360, Note_off_c, 9, 42, 64
2, 56448, Note_on_c, 9, 42, 64
2, 56448, Note_on_c, 9, 36, 80
2, 56456, Note_off_c, 9, 36, 80
2, 56456, Note_off_c, 9, 42, 64
2, 56544, Note_on_c, 9, 42, 64
2, 56552, Note_off_c, 9, 42, 64
2, 56640, Note_on_c, 9, 38, 70
2, 56640, Note_on_c, 9, 42, 64
2, 56648, Note_off_c, 9, 42, 64
2, 56648, Note_off_c, 9, 38, 70
2, 56736, Note_on_c, 9, 42, 64
2, 56744, Note_off_c, 9, 42, 64
2, 56832, Note_on_c, 9, 36, 80
2, 56832, Note_on_c, 9, 42, 64
2, 56840, Note_off_c, 9, 42, 64
2, 56840, Note_off_c, 9, 36, 80
2, 56928, Note_on_c, 9, 42, 64
2, 56936, Note_off_c, 9, 42, 64
2, 57024, Note_on_c, 9, 38, 70
2, 57024, Note_on_c, 9, 42, 64
2, 57032, Note_off_c, 9, 42, 64
2, 57032, Note_off_c, 9, 38, 70
2, 57120, Note_on_c, 9, 42, 64
2, 57120, Note_on_c, 9, 36, 80
2, 57128, Note_off_c, 9, 36, 80
2, 57128, Note_off_c, 9, 42, 64
2, 57216, Note_on_c, 9, 42, 64
2, 57216, Note_on_c, 9, 36, 80
2, 57224, Note_off_c, 9, 36, 80
2, 57224, Note_off_c, 9, 42, 64
2, 57312, Note_on_c, 9, 42, 64
2, 57320, Note_off_c, 9, 42, 64
2, 57408, Note_on_c, 9, 38, 70
2, 57408, Note_on_c, 9, 42, 64
2, 57416, Note_off_c, 9, 42, 64
2, 57416, Note_off_c, 9, 38, 70
2, 57504, Note_on_c, 9, 42, 64
2, 57512, Note_off_c, 9, 42, 64
2, 57600, Note_on_c, 9, 36, 80
2, 57600, Note_on_c, 9, 42, 64
2, 57608, Note_off_c, 9, 42, 64
2, 57608, Note_off_c, 9, 36, 80
2, 57696, Note_on_c, 9, 42, 64
2, 57704, Note_off_c, 9, 42, 64
2, 57792, Note_on_c, 9, 38, 70
2, 57792, Note_on_c, 9, 42, 64
2, 57800, Note_off_c, 9, 42, 64
2, 57800, Note_off_c, 9, 38, 70
2, 57888, Note_on_c, 9, 42, 64
2, 57888, Note_on_c, 9, 36, 80
2, 57896, Note_off_c, 9, 36, 80
2, 57896, Note_off_c, 9, 42, 64
2, 57984, Note_on_c, 9, 42, 64
2, 57984, Note_on_c, 9, 36, 80
2, 57992, Note_off_c, 9, 36, 80
2, 57992, Note_off_c, 9, 42, 64
2, 58080, Note_on_c, 9, 42, 64
2, 58088, Note_off_c, 9, 42, 64
2, 58176, Note_on_c, 9, 38, 70
2, 58176, Note_on_c, 9, 42, 64
2, 58184, Note_off_c, 9, 42, 64
2, 58184, Note_off_c, 9, 38, 70
2, 58272, Note_on_c, 9, 42, 64
2, 58280, Note_off_c, 9, 42, 64
2, 58368, Note_on_c, 9, 36, 80
2, 58368, Note_on_c, 9, 42, 64
2, 58376, Note_off_c, 9, 42, 64
2, 58376, Note_off_c, 9, 36, 80
2, 58464, Note_on_c, 9, 42, 64
2, 58472, Note_off_c, 9, 42, 64
2, 58560, Note_on_c, 9, 38, 70
2, 58560, Note_on_c, 9, 42, 64
2, 58568, Note_off_c, 9, 42, 64
2, 58568, Note_off_c, 9, 38, 70
2, 58656, Note_on_c, 9, 42, 64
2, 58656, Note_on_c, 9, 36, 80
2, 58664, Note_off_c, 9, 36, 80
2, 58664, Note_off_c, 9, 42, 64
2, 58752, Note_on_c, 9, 42, 64
2, 58752, Note_on_c, 9, 36, 80
2, 58760, Note_off_c, 9, 36, 80
2, 58760, Note_off_c, 9, 42, 64
2, 58848, Note_on_c, 9, 42, 64
2, 58856, Note_off_c, 9, 42, 64
2, 58944, Note_on_c, 9, 38, 70
2, 58944, Note_on_c, 9, 42, 64
2, 58952, Note_off_c, 9, 42, 64
2, 58952, Note_off_c, 9, 38, 70
2, 59040, Note_on_c, 9, 42, 64
2, 59048, Note_off_c, 9, 42, 64
2, 59136, Note_on_c, 9, 36, 80
2, 59136, Note_on_c, 9, 42, 64
2, 59144, Note_off_c, 9, 42, 64
2, 59144, Note_off_c, 9, 36, 80
2, 59232, Note_on_c, 9, 42, 64
2, 59240, Note_off_c, 9, 42, 64
2, 59328, Note_on_c, 9, 38, 70
2, 59328, Note_on_c, 9, 42, 64
2, 59336, Note_off_c, 9, 42, 64
2, 59336, Note_off_c, 9, 38, 70
2, 59424, Note_on_c, 9, 42, 64
2, 59424, Note_on_c, 9, 36, 80
2, 59432, Note_off_c, 9, 36, 80
2, 59432, Note_off_c, 9, 42, 64
2, 59520, Note_on_c, 9, 42, 64
2, 59520, Note_on_c, 9, 36, 80
2, 59528, Note_off_c, 9, 36, 80
2, 59528, Note_off_c, 9, 42, 64
2, 59616, Note_on_c, 9, 42, 64
2, 59624, Note_off_c, 9, 42, 64
2, 59712, Note_on_c, 9, 38, 70
2, 59712, Note_on_c, 9, 42, 64
2, 59720, Note_off_c, 9, 42, 64
2, 59720, Note_off_c, 9, 38, 70
2, 59808, Note_on_c, 9, 42, 64
2, 59816, Note_off_c, 9, 42, 64
2, 59904, Note_on_c, 9, 36, 80
2, 59904, Note_on_c, 9, 42, 64
2, 59912, Note_off_c, 9, 42, 64
2, 59912, Note_off_c, 9, 36, 80
2, 60000, Note_on_c, 9, 42, 64
2, 60008, Note_off_c, 9, 42, 64
2, 60096, Note_on_c, 9, 38, 70
2, 60096, Note_on_c, 9, 42, 64
2, 60104, Note_off_c, 9, 42, 64
2, 60104, Note_off_c, 9, 38, 70
2, 60192, Note_on_c, 9, 42, 64
2, 60192, Note_on_c, 9, 36, 80
2, 60200, Note_off_c, 9, 36, 80
2, 60200, Note_off_c, 9, 42, 64
2, 60288, Note_on_c, 9, 42, 64
2, 60288, Note_on_c, 9, 36, 80
2, 60296, Note_off_c, 9, 36, 80
2, 60296, Note_off_c, 9, 42, 64
2, 60384, Note_on_c, 9, 42, 64
2, 60392, Note_off_c, 9, 42, 64
2, 60480, Note_on_c, 9, 38, 70
2, 60480, Note_on_c, 9, 42, 64
2, 60488, Note_off_c, 9, 42, 64
2, 60488, Note_off_c, 9, 38, 70
2, 60576, Note_on_c, 9, 42, 64
2, 60584, Note_off_c, 9, 42, 64
2, 60672, Note_on_c, 9, 36, 80
2, 60672, Note_on_c, 9, 42, 64
2, 60680, Note_off_c, 9, 42, 64
2, 60680, Note_off_c, 9, 36, 80
2, 60768, Note_on_c, 9, 42, 64
2, 60776, Note_off_c, 9, 42, 64
2, 60864, Note_on_c, 9, 38, 70
2, 60864, Note_on_c, 9, 42, 64
2, 60872, Note_off_c, 9, 42, 64
2, 60872, Note_off_c, 9, 38, 70
2, 60960, Note_on_c, 9, 42, 64
2, 60960, Note_on_c, 9, 36, 80
2, 60968, Note_off_c, 9, 36, 80
2, 60968, Note_off_c, 9, 42, 64
2, 61056, Note_on_c, 9, 42, 64
2, 61056, Note_on_c, 9, 36, 80
2, 61064, Note_off_c, 9, 36, 80
2, 61064, Note_off_c, 9, 42, 64
2, 61152, Note_on_c, 9, 42, 64
2, 61160, Note_off_c, 9, 42, 64
2, 61248, Note_on_c, 9, 38, 70
2, 61248, Note_on_c, 9, 42, 64
2, 61256, Note_off_c, 9, 42, 64
2, 61256, Note_off_c, 9, 38, 70
2, 61344, Note_on_c, 9, 42, 64
2, 61352, Note_off_c, 9, 42, 64
2, 61440, Note_on_c, 9, 36, 80
2, 61440, Note_on_c, 9, 42, 64
2, 61448, Note_off_c, 9, 42, 64
2, 61448, Note_off_c, 9, 36, 80
2, 61536, Note_on_c, 9, 42, 64
2, 61544, Note_off_c, 9, 42, 64
2, 61632, Note_on_c, 9, 38, 70
2, 61632, Note_on_c, 9, 42, 64
2, 61640, Note_off_c, 9, 42, 64
2, 61640, Note_off_c, 9, 38, 70
2, 61728, Note_on_c, 9, 42, 64
2, 61728, Note_on_c, 9, 36, 80
2, 61736, Note_off_c, 9, 36, 80
2, 61736, Note_off_c, 9, 42, 64
2, 61824, Note_on_c, 9, 42, 64
2, 61824, Note_on_c, 9, 36, 80
2, 61832, Note_off_c, 9, 36, 80
2, 61832, Note_off_c, 9, 42, 64
2, 61920, Note_on_c, 9, 42, 64
2, 61928, Note_off_c, 9, 42, 64
2, 62016, Note_on_c, 9, 38, 70
2, 62016, Note_on_c, 9, 42, 64
2, 62024, Note_off_c, 9, 42, 64
2, 62024, Note_off_c, 9, 38, 70
2, 62112, Note_on_c, 9, 42, 64
2, 62120, Note_off_c, 9, 42, 64
2, 62208, Note_on_c, 9, 49, 64
2, 62208, Note_on_c, 9, 36, 80
2, 62208, Note_on_c, 9, 42, 64
2, 62216, Note_off_c, 9, 42, 64
2, 62216, Note_off_c, 9, 36, 80
2, 62216, Note_off_c, 9, 49, 64
2, 62304, Note_on_c, 9, 42, 64
2, 62312, Note_off_c, 9, 42, 64
2, 62400, Note_on_c, 9, 38, 70
2, 62400, Note_on_c, 9, 42, 64
2, 62408, Note_off_c, 9, 42, 64
2, 62408, Note_off_c, 9, 38, 70
2, 62496, Note_on_c, 9, 42, 64
2, 62496, Note_on_c, 9, 36, 80
2, 62504, Note_off_c, 9, 36, 80
2, 62504, Note_off_c, 9, 42, 64
2, 62592, Note_on_c, 9, 42, 64
2, 62592, Note_on_c, 9, 36, 80
2, 62600, Note_off_c, 9, 36, 80
2, 62600, Note_off_c, 9, 42, 64
2, 62688, Note_on_c, 9, 42, 64
2, 62696, Note_off_c, 9, 42, 64
2, 62784, Note_on_c, 9, 38, 70
2, 62784, Note_on_c, 9, 42, 64
2, 62792, Note_off_c, 9, 42, 64
2, 62792, Note_off_c, 9, 38, 70
2, 62880, Note_on_c, 9, 42, 64
2, 62888, Note_off_c, 9, 42, 64
2, 62976, Note_on_c, 9, 36, 80
2, 62976, Note_on_c, 9, 42, 64
2, 62984, Note_off_c, 9, 42, 64
2, 62984, Note_off_c, 9, 36, 80
2, 63072, Note_on_c, 9, 42, 64
2, 63080, Note_off_c, 9, 42, 64
2, 63168, Note_on_c, 9, 38, 70
2, 63168, Note_on_c, 9, 42, 64
2, 63176, Note_off_c, 9, 42, 64
2, 63176, Note_off_c, 9, 38, 70
2, 63264, Note_on_c, 9, 42, 64
2, 63264, Note_on_c, 9, 36, 80
2, 63272, Note_off_c, 9, 36, 80
2, 63272, Note_off_c, 9, 42, 64
2, 63360, Note_on_c, 9, 42, 64
2, 63360, Note_on_c, 9, 36, 80
2, 63368, Note_off_c, 9, 36, 80
2, 63368, Note_off_c, 9, 42, 64
2, 63456, Note_on_c, 9, 42, 64
2, 63464, Note_off_c, 9, 42, 64
2, 63552, Note_on_c, 9, 38, 70
2, 63552, Note_on_c, 9, 42, 64
2, 63560, Note_off_c, 9, 42, 64
2, 63560, Note_off_c, 9, 38, 70
2, 63648, Note_on_c, 9, 42, 64
2, 63656, Note_off_c, 9, 42, 64
2, 63744, Note_on_c, 9, 36, 80
2, 63744, Note_on_c, 9, 42, 64
2, 63752, Note_off_c, 9, 42, 64
2, 63752, Note_off_c, 9, 36, 80
2, 63840, Note_on_c, 9, 42, 64
2, 63848, Note_off_c, 9, 42, 64
2, 63936, Note_on_c, 9, 38, 70
2, 63936, Note_on_c, 9, 42, 64
2, 63944, Note_off_c, 9, 42, 64
2, 63944, Note_off_c, 9, 38, 70
2, 64032, Note_on_c, 9, 42, 64
2, 64032, Note_on_c, 9, 36, 80
2, 64040, Note_off_c, 9, 36, 80
2, 64040, Note_off_c, 9, 42, 64
2, 64128, Note_on_c, 9, 42, 64
2, 64128, Note_on_c, 9, 36, 80
2, 64136, Note_off_c, 9, 36, 80
2, 64136, Note_off_c, 9, 42, 64
2, 64224, Note_on_c, 9, 42, 64
2, 64232, Note_off_c, 9, 42, 64
2, 64320, Note_on_c, 9, 38, 70
2, 64320, Note_on_c, 9, 42, 64
2, 64328, Note_off_c, 9, 42, 64
2, 64328, Note_off_c, 9, 38, 70
2, 64416, Note_on_c, 9, 42, 64
2, 64424, Note_off_c, 9, 42, 64
2, 64512, Note_on_c, 9, 36, 80
2, 64512, Note_on_c, 9, 42, 64
2, 64520, Note_off_c, 9, 42, 64
2, 64520, Note_off_c, 9, 36, 80
2, 64608, Note_on_c, 9, 42, 64
2, 64616, Note_off_c, 9, 42, 64
2, 64704, Note_on_c, 9, 38, 70
2, 64704, Note_on_c, 9, 42, 64
2, 64712, Note_off_c, 9, 42, 64
2, 64712, Note_off_c, 9, 38, 70
2, 64800, Note_on_c, 9, 42, 64
2, 64800, Note_on_c, 9, 36, 80
2, 64808, Note_off_c, 9, 36, 80
2, 64808, Note_off_c, 9, 42, 64
2, 64896, Note_on_c, 9, 42, 64
2, 64896, Note_on_c, 9, 36, 80
2, 64904, Note_off_c, 9, 36, 80
2, 64904, Note_off_c, 9, 42, 64
2, 64992, Note_on_c, 9, 42, 64
2, 65000, Note_off_c, 9, 42, 64
2, 65088, Note_on_c, 9, 38, 70
2, 65088, Note_on_c, 9, 42, 64
2, 65096, Note_off_c, 9, 42, 64
2, 65096, Note_off_c, 9, 38, 70
2, 65184, Note_on_c, 9, 42, 64
2, 65192, Note_off_c, 9, 42, 64
2, 65280, Note_on_c, 9, 36, 80
2, 65280, Note_on_c, 9, 42, 64
2, 65288, Note_off_c, 9, 42, 64
2, 65288, Note_off_c, 9, 36, 80
2, 65376, Note_on_c, 9, 42, 64
2, 65384, Note_off_c, 9, 42, 64
2, 65472, Note_on_c, 9, 38, 70
2, 65472, Note_on_c, 9, 42, 64
2, 65480, Note_off_c, 9, 42, 64
2, 65480, Note_off_c, 9, 38, 70
2, 65568, Note_on_c, 9, 42, 64
2, 65568, Note_on_c, 9, 36, 80
2, 65576, Note_off_c, 9, 36, 80
2, 65576, Note_off_c, 9, 42, 64
2, 65664, Note_on_c, 9, 42, 64
2, 65664, Note_on_c, 9, 36, 80
2, 65672, Note_off_c, 9, 36, 80
2, 65672, Note_off_c, 9, 42, 64
2, 65760, Note_on_c, 9, 42, 64
2, 65768, Note_off_c, 9, 42, 64
2, 65856, Note_on_c, 9, 38, 70
2, 65856, Note_on_c, 9, 42, 64
2, 65864, Note_off_c, 9, 42, 64
2, 65864, Note_off_c, 9, 38, 70
2, 65952, Note_on_c, 9, 42, 64
2, 65960, Note_off_c, 9, 42, 64
2, 66048, Note_on_c, 9, 36, 80
2, 66048, Note_on_c, 9, 42, 64
2, 66056, Note_off_c, 9, 42, 64
2, 66056, Note_off_c, 9, 36, 80
2, 66144, Note_on_c, 9, 42, 64
2, 66152, Note_off_c, 9, 42, 64
2, 66240, Note_on_c, 9, 38, 70
2, 66240, Note_on_c, 9, 42, 64
2, 66248, Note_off_c, 9, 42, 64
2, 66248, Note_off_c, 9, 38, 70
2, 66336, Note_on_c, 9, 42, 64
2, 66336, Note_on_c, 9, 36, 80
2, 66344, Note_off_c, 9, 36, 80
2, 66344, Note_off_c, 9, 42, 64
2, 66432, Note_on_c, 9, 42, 64
2, 66432, Note_on_c, 9, 36, 80
2, 66440, Note_off_c, 9, 36, 80
2, 66440, Note_off_c, 9, 42, 64
2, 66528, Note_on_c, 9, 42, 64
2, 66536, Note_off_c, 9, 42, 64
2, 66624, Note_on_c, 9, 38, 70
2, 66624, Note_on_c, 9, 42, 64
2, 66632, Note_off_c, 9, 42, 64
2, 66632, Note_off_c, 9, 38, 70
2, 66720, Note_on_c, 9, 42, 64
2, 66728, Note_off_c, 9, 42, 64
2, 66816, Note_on_c, 9, 36, 80
2, 66816, Note_on_c, 9, 42, 64
2, 66824, Note_off_c, 9, 42, 64
2, 66824, Note_off_c, 9, 36, 80
2, 66912, Note_on_c, 9, 42, 64
2, 66920, Note_off_c, 9, 42, 64
2, 67008, Note_on_c, 9, 38, 70
2, 67008, Note_on_c, 9, 42, 64
2, 67016, Note_off_c, 9, 42, 64
2, 67016, Note_off_c, 9, 38, 70
2, 67104, Note_on_c, 9, 42, 64
2, 67104, Note_on_c, 9, 36, 80
2, 67112, Note_off_c, 9, 36, 80
2, 67112, Note_off_c, 9, 42, 64
2, 67200, Note_on_c, 9, 42, 64
2, 67200, Note_on_c, 9, 36, 80
2, 67208, Note_off_c, 9, 36, 80
2, 67208, Note_off_c, 9, 42, 64
2, 67296, Note_on_c, 9, 42, 64
2, 67304, Note_off_c, 9, 42, 64
2, 67392, Note_on_c, 9, 38, 70
2, 67392, Note_on_c, 9, 42, 64
2, 67400, Note_off_c, 9, 42, 64
2, 67400, Note_off_c, 9, 38, 70
2, 67488, Note_on_c, 9, 42, 64
2, 67496, Note_off_c, 9, 42, 64
2, 67584, Note_on_c, 9, 36, 80
2, 67584, Note_on_c, 9, 42, 64
2, 67592, Note_off_c, 9, 42, 64
2, 67592, Note_off_c, 9, 36, 80
2, 67680, Note_on_c, 9, 42, 64
2, 67688, Note_off_c, 9, 42, 64
2, 67776, Note_on_c, 9, 38, 70
2, 67776, Note_on_c, 9, 42, 64
2, 67784, Note_off_c, 9, 42, 64
2, 67784, Note_off_c, 9, 38, 70
2, 67872, Note_on_c, 9, 42, 64
2, 67872, Note_on_c, 9, 36, 80
2, 67880, Note_off_c, 9, 36, 80
2, 67880, Note_off_c, 9, 42, 64
2, 67968, Note_on_c, 9, 42, 64
2, 67968, Note_on_c, 9, 36, 80
2, 67976, Note_off_c, 9, 36, 80
2, 67976, Note_off_c, 9, 42, 64
2, 68064, Note_on_c, 9, 42, 64
2, 68072, Note_off_c, 9, 42, 64
2, 68160, Note_on_c, 9, 38, 70
2, 68160, Note_on_c, 9, 42, 64
2, 68168, Note_off_c, 9, 42, 64
2, 68168, Note_off_c, 9, 38, 70
2, 68256, Note_on_c, 9, 42, 64
2, 68264, Note_off_c, 9, 42, 64
2, 68352, Note_on_c, 9, 49, 64
2, 68352, Note_on_c, 9, 36, 80
2, 68352, Note_on_c, 9, 42, 64
2, 68360, Note_off_c, 9, 42, 64
2, 68360, Note_off_c, 9, 36, 80
2, 68360, Note_off_c, 9, 49, 64
2, 68448, Note_on_c, 9, 42, 64
2, 68456, Note_off_c, 9, 42, 64
2, 68544, Note_on_c, 9, 38, 70
2, 68544, Note_on_c, 9, 42, 64
2, 68552, Note_off_c, 9, 42, 64
2, 68552, Note_off_c, 9, 38, 70
2, 68640, Note_on_c, 9, 42, 64
2, 68640, Note_on_c, 9, 36, 80
2, 68648, Note_off_c, 9, 36, 80
2, 68648, Note_off_c, 9, 42, 64
2, 68736, Note_on_c, 9, 42, 64
2, 68736, Note_on_c, 9, 36, 80
2, 68744, Note_off_c, 9, 36, 80
2, 68744, Note_off_c, 9, 42, 64
2, 68832, Note_on_c, 9, 42, 64
2, 68840, Note_off_c, 9, 42, 64
2, 68928, Note_on_c, 9, 38, 70
2, 68928, Note_on_c, 9, 42, 64
2, 68936, Note_off_c, 9, 42, 64
2, 68936, Note_off_c, 9, 38, 70
2, 69024, Note_on_c, 9, 42, 64
2, 69032, Note_off_c, 9, 42, 64
2, 69120, Note_on_c, 9, 36, 80
2, 69120, Note_on_c, 9, 42, 64
2, 69128, Note_off_c, 9, 42, 64
2, 69128, Note_off_c, 9, 36, 80
2, 69216, Note_on_c, 9, 42, 64
2, 69224, Note_off_c, 9, 42, 64
2, 69312, Note_on_c, 9, 38, 70
2, 69312, Note_on_c, 9, 42, 64
2, 69320, Note_off_c, 9, 42, 64
2, 69320, Note_off_c, 9, 38, 70
2, 69408, Note_on_c, 9, 42, 64
2, 69408, Note_on_c, 9, 36, 80
2, 69416, Note_off_c, 9, 36, 80
2, 69416, Note_off_c, 9, 42, 64
2, 69504, Note_on_c, 9, 42, 64
2, 69504, Note_on_c, 9, 36, 80
2, 69512, Note_off_c, 9, 36, 80
2, 69512, Note_off_c, 9, 42, 64
2, 69600, Note_on_c, 9, 42, 64
2, 69608, Note_off_c, 9, 42, 64
2, 69696, Note_on_c, 9, 38, 70
2, 69696, Note_on_c, 9, 42, 64
2, 69704, Note_off_c, 9, 42, 64
2, 69704, Note_off_c, 9, 38, 70
2, 69792, Note_on_c, 9, 42, 64
2, 69800, Note_off_c, 9, 42, 64
2, 69888, Note_on_c, 9, 36, 80
2, 69888, Note_on_c, 9, 42, 64
2, 69896, Note_off_c, 9, 42, 64
2, 69896, Note_off_c, 9, 36, 80
2, 69984, Note_on_c, 9, 42, 64
2, 69992, Note_off_c, 9, 42, 64
2, 70080, Note_on_c, 9, 38, 70
2, 70080, Note_on_c, 9, 42, 64
2, 70088, Note_off_c, 9, 42, 64
2, 70088, Note_off_c, 9, 38, 70
2, 70176, Note_on_c, 9, 42, 64
2, 70176, Note_on_c, 9, 36, 80
2, 70184, Note_off_c, 9, 36, 80
2, 70184, Note_off_c, 9, 42, 64
2, 70272, Note_on_c, 9, 42, 64
2, 70272, Note_on_c, 9, 36, 80
2, 70280, Note_off_c, 9, 36, 80
2, 70280, Note_off_c, 9, 42, 64
2, 70368, Note_on_c, 9, 42, 64
2, 70376, Note_off_c, 9, 42, 64
2, 70464, Note_on_c, 9, 38, 70
2, 70464, Note_on_c, 9, 42, 64
2, 70472, Note_off_c, 9, 42, 64
2, 70472, Note_off_c, 9, 38, 70
2, 70560, Note_on_c, 9, 42, 64
2, 70568, Note_off_c, 9, 42, 64
2, 70656, Note_on_c, 9, 36, 80
2, 70656, Note_on_c, 9, 42, 64
2, 70664, Note_off_c, 9, 42, 64
2, 70664, Note_off_c, 9, 36, 80
2, 70752, Note_on_c, 9, 42, 64
2, 70760, Note_off_c, 9, 42, 64
2, 70848, Note_on_c, 9, 38, 70
2, 70848, Note_on_c, 9, 42, 64
2, 70856, Note_off_c, 9, 42, 64
2, 70856, Note_off_c, 9, 38, 70
2, 70944, Note_on_c, 9, 42, 64
2, 70944, Note_on_c, 9, 36, 80
2, 70952, Note_off_c, 9, 36, 80
2, 70952, Note_off_c, 9, 42, 64
2, 71040, Note_on_c, 9, 42, 64
2, 71040, Note_on_c, 9, 36, 80
2, 71048, Note_off_c, 9, 36, 80
2, 71048, Note_off_c, 9, 42, 64
2, 71136, Note_on_c, 9, 42, 64
2, 71144, Note_off_c, 9, 42, 64
2, 71232, Note_on_c, 9, 38, 70
2, 71232, Note_on_c, 9, 42, 64
2, 71240, Note_off_c, 9, 42, 64
2, 71240, Note_off_c, 9, 38, 70
2, 71328, Note_on_c, 9, 42, 64
2, 71336, Note_off_c, 9, 42, 64
2, 71424, Note_on_c, 9, 36, 80
2, 71424, Note_on_c, 9, 42, 64
2, 71432, Note_off_c, 9, 42, 64
2, 71432, Note_off_c, 9, 36, 80
2, 71520, Note_on_c, 9, 42, 64
2, 71528, Note_off_c, 9, 42, 64
2, 71616, Note_on_c, 9, 38, 70
2, 71616, Note_on_c, 9, 42, 64
2, 71624, Note_off_c, 9, 42, 64
2, 71624, Note_off_c, 9, 38, 70
2, 71712, Note_on_c, 9, 42, 64
2, 71712, Note_on_c, 9, 36, 80
2, 71720, Note_off_c, 9, 36, 80
2, 71720, Note_off_c, 9, 42, 64
2, 71808, Note_on_c, 9, 42, 64
2, 71808, Note_on_c, 9, 36, 80
2, 71816, Note_off_c, 9, 36, 80
2, 71816, Note_off_c, 9, 42, 64
2, 71904, Note_on_c, 9, 42, 64
2, 71912, Note_off_c, 9, 42, 64
2, 72000, Note_on_c, 9, 38, 70
2, 72000, Note_on_c, 9, 42, 64
2, 72008, Note_off_c, 9, 42, 64
2, 72008, Note_off_c, 9, 38, 70
2, 72096, Note_on_c, 9, 42, 64
2, 72104, Note_off_c, 9, 42, 64
2, 72192, Note_on_c, 9, 36, 80
2, 72192, Note_on_c, 9, 42, 64
2, 72200, Note_off_c, 9, 42, 64
2, 72200, Note_off_c, 9, 36, 80
2, 72288, Note_on_c, 9, 42, 64
2, 72296, Note_off_c, 9, 42, 64
2, 72384, Note_on_c, 9, 38, 70
2, 72384, Note_on_c, 9, 42, 64
2, 72392, Note_off_c, 9, 42, 64
2, 72392, Note_off_c, 9, 38, 70
2, 72480, Note_on_c, 9, 42, 64
2, 72480, Note_on_c, 9, 36, 80
2, 72488, Note_off_c, 9, 36, 80
2, 72488, Note_off_c, 9, 42, 64
2, 72576, Note_on_c, 9, 42, 64
2, 72576, Note_on_c, 9, 36, 80
2, 72584, Note_off_c, 9, 36, 80
2, 72584, Note_off_c, 9, 42, 64
2, 72672, Note_on_c, 9, 42, 64
2, 72680, Note_off_c, 9, 42, 64
2, 72768, Note_on_c, 9, 38, 70
2, 72768, Note_on_c, 9, 42, 64
2, 72776, Note_off_c, 9, 42, 64
2, 72776, Note_off_c, 9, 38, 70
2, 72864, Note_on_c, 9, 42, 64
2, 72872, Note_off_c, 9, 42, 64
2, 72960, Note_on_c, 9, 36, 80
2, 72960, Note_on_c, 9, 42, 64
2, 72968, Note_off_c, 9, 42, 64
2, 72968, Note_off_c, 9, 36, 80
2, 73056, Note_on_c, 9, 42, 64
2, 73064, Note_off_c, 9, 42, 64
2, 73152, Note_on_c, 9, 38, 70
2, 73152, Note_on_c, 9, 42, 64
2, 73160, Note_off_c, 9, 42, 64
2, 73160, Note_off_c, 9, 38, 70
2, 73248, Note_on_c, 9, 42, 64
2, 73248, Note_on_c, 9, 36, 80
2, 73256, Note_off_c, 9, 36, 80
2, 73256, Note_off_c, 9, 42, 64
2, 73344, Note_on_c, 9, 42, 64
2, 73344, Note_on_c, 9, 36, 80
2, 73352, Note_off_c, 9, 36, 80
2, 73352, Note_off_c, 9, 42, 64
2, 73440, Note_on_c, 9, 42, 64
2, 73448, Note_off_c, 9, 42, 64
2, 73536, Note_on_c, 9, 38, 70
2, 73536, Note_on_c, 9, 42, 64
2, 73544, Note_off_c, 9, 42, 64
2, 73544, Note_off_c, 9, 38, 70
2, 73632, Note_on_c, 9, 42, 64
2, 73640, Note_off_c, 9, 42, 64
2, 73728, Note_on_c, 9, 36, 80
2, 73728, Note_on_c, 9, 42, 64
2, 73736, Note_off_c, 9, 42, 64
2, 73736, Note_off_c, 9, 36, 80
2, 73824, Note_on_c, 9, 42, 64
2, 73832, Note_off_c, 9, 42, 64
2, 73920, Note_on_c, 9, 38, 70
2, 73920, Note_on_c, 9, 42, 64
2, 73928, Note_off_c, 9, 42, 64
2, 73928, Note_off_c, 9, 38, 70
2, 74016, Note_on_c, 9, 42, 64
2, 74016, Note_on_c, 9, 36, 80
2, 74024, Note_off_c, 9, 36, 80
2, 74024, Note_off_c, 9, 42, 64
2, 74112, Note_on_c, 9, 42, 64
2, 74112, Note_on_c, 9, 36, 80
2, 74120, Note_off_c, 9, 36, 80
2, 74120, Note_off_c, 9, 42, 64
2, 74208, Note_on_c, 9, 42, 64
2, 74216, Note_off_c, 9, 42, 64
2, 74304, Note_on_c, 9, 38, 70
2, 74304, Note_on_c, 9, 42, 64
2, 74312, Note_off_c, 9, 42, 64
2, 74312, Note_off_c, 9, 38, 70
2, 74400, Note_on_c, 9, 42, 64
2, 74408, Note_off_c, 9, 42, 64
2, 74496, Note_on_c, 9, 36, 80
2, 74496, Note_on_c, 9, 42, 64
2, 74504, Note_off_c, 9, 42, 64
2, 74504, Note_off_c, 9, 36, 80
2, 74592, Note_on_c, 9, 42, 64
2, 74600, Note_off_c, 9, 42, 64
2, 74688, Note_on_c, 9, 38, 70
2, 74688, Note_on_c, 9, 42, 64
2, 74696, Note_off_c, 9, 42, 64
2, 74696, Note_off_c, 9, 38, 70
2, 74784, Note_on_c, 9, 42, 64
2, 74784, Note_on_c, 9, 36, 80
2, 74792, Note_off_c, 9, 36, 80
2, 74792, Note_off_c, 9, 42, 64
2, 74880, Note_on_c, 9, 42, 64
2, 74880, Note_on_c, 9, 36, 80
2, 74888, Note_off_c, 9, 36, 80
2, 74888, Note_off_c, 9, 42, 64
2, 74976, Note_on_c, 9, 42, 64
2, 74984, Note_off_c, 9, 42, 64
2, 75072, Note_on_c, 9, 38, 70
2, 75072, Note_on_c, 9, 42, 64
2, 75080, Note_off_c, 9, 42, 64
2, 75080, Note_off_c, 9, 38, 70
2, 75168, Note_on_c, 9, 42, 64
2, 75176, Note_off_c, 9, 42, 64
2, 75264, Note_on_c, 9, 36, 80
2, 75264, Note_on_c, 9, 42, 64
2, 75272, Note_off_c, 9, 42, 64
2, 75272, Note_off_c, 9, 36, 80
2, 75360, Note_on_c, 9, 42, 64
2, 75368, Note_off_c, 9, 42, 64
2, 75456, Note_on_c, 9, 38, 70
2, 75456, Note_on_c, 9, 42, 64
2, 75464, Note_off_c, 9, 42, 64
2, 75464, Note_off_c, 9, 38, 70
2, 75552, Note_on_c, 9, 42, 64
2, 75552, Note_on_c, 9, 36, 80
2, 75560, Note_off_c, 9, 36, 80
2, 75560, Note_off_c, 9, 42, 64
2, 75648, Note_on_c, 9, 42, 64
2, 75648, Note_on_c, 9, 36, 80
2, 75656, Note_off_c, 9, 36, 80
2, 75656, Note_off_c, 9, 42, 64
2, 75744, Note_on_c, 9, 42, 64
2, 75752, Note_off_c, 9, 42, 64
2, 75840, Note_on_c, 9, 38, 70
2, 75840, Note_on_c, 9, 42, 64
2, 75848, Note_off_c, 9, 42, 64
2, 75848, Note_off_c, 9, 38, 70
2, 75936, Note_on_c, 9, 42, 64
2, 75944, Note_off_c, 9, 42, 64
2, 76032, Note_on_c, 9, 36, 80
2, 76032, Note_on_c, 9, 42, 64
2, 76040, Note_off_c, 9, 42, 64
2, 76040, Note_off_c, 9, 36, 80
2, 76128, Note_on_c, 9, 42, 64
2, 76136, Note_off_c, 9, 42, 64
2, 76224, Note_on_c, 9, 38, 70
2, 76224, Note_on_c, 9, 42, 64
2, 76232, Note_off_c, 9, 42, 64
2, 76232, Note_off_c, 9, 38, 70
2, 76320, Note_on_c, 9, 42, 64
2, 76320, Note_on_c, 9, 36, 80
2, 76328, Note_off_c, 9, 36, 80
2, 76328, Note_off_c, 9, 42, 64
2, 76416, Note_on_c, 9, 42, 64
2, 76416, Note_on_c, 9, 36, 80
2, 76424, Note_off_c, 9, 36, 80
2, 76424, Note_off_c, 9, 42, 64
2, 76512, Note_on_c, 9, 42, 64
2, 76520, Note_off_c, 9, 42, 64
2, 76608, Note_on_c, 9, 38, 70
2, 76608, Note_on_c, 9, 42, 64
2, 76616, Note_off_c, 9, 42, 64
2, 76616, Note_off_c, 9, 38, 70
2, 76704, Note_on_c, 9, 42, 64
2, 76712, Note_off_c, 9, 42, 64
2, 76800, Note_on_c, 9, 36, 80
2, 76800, Note_on_c, 9, 42, 64
2, 76808, Note_off_c, 9, 42, 64
2, 76808, Note_off_c, 9, 36, 80
2, 76896, Note_on_c, 9, 42, 64
2, 76904, Note_off_c, 9, 42, 64
2, 76992, Note_on_c, 9, 38, 70
2, 76992, Note_on_c, 9, 42, 64
2, 77000, Note_off_c, 9, 42, 64
2, 77000, Note_off_c, 9, 38, 70
2, 77088, Note_on_c, 9, 42, 64
2, 77088, Note_on_c, 9, 36, 80
2, 77096, Note_off_c, 9, 36, 80
2, 77096, Note_off_c, 9, 42, 64
2, 77184, Note_on_c, 9, 42, 64
2, 77184, Note_on_c, 9, 36, 80
2, 77192, Note_off_c, 9, 36, 80
2, 77192, Note_off_c, 9, 42, 64
2, 77280, Note_on_c, 9, 42, 64
2, 77288, Note_off_c, 9, 42, 64
2, 77376, Note_on_c, 9, 38, 70
2, 77376, Note_on_c, 9, 42, 64
2, 77384, Note_off_c, 9, 42, 64
2, 77384, Note_off_c, 9, 38, 70
2, 77472, Note_on_c, 9, 42, 64
2, 77480, Note_off_c, 9, 42, 64
2, 77568, Note_on_c, 9, 36, 80
2, 77568, Note_on_c, 9, 42, 64
2, 77576, Note_off_c, 9, 42, 64
2, 77576, Note_off_c, 9, 36, 80
2, 77664, Note_on_c, 9, 42, 64
2, 77672, Note_off_c, 9, 42, 64
2, 77760, Note_on_c, 9, 38, 70
2, 77760, Note_on_c, 9, 42, 64
2, 77768, Note_off_c, 9, 42, 64
2, 77768, Note_off_c, 9, 38, 70
2, 77856, Note_on_c, 9, 42, 64
2, 77856, Note_on_c, 9, 36, 80
2, 77864, Note_off_c, 9, 36, 80
2, 77864, Note_off_c, 9, 42, 64
2, 77952, Note_on_c, 9, 42, 64
2, 77952, Note_on_c, 9, 36, 80
2, 77960, Note_off_c, 9, 36, 80
2, 77960, Note_off_c, 9, 42, 64
2, 78048, Note_on_c, 9, 42, 64
2, 78056, Note_off_c, 9, 42, 64
2, 78144, Note_on_c, 9, 38, 70
2, 78144, Note_on_c, 9, 42, 64
2, 78152, Note_off_c, 9, 42, 64
2, 78152, Note_off_c, 9, 38, 70
2, 78240, Note_on_c, 9, 42, 64
2, 78248, Note_off_c, 9, 42, 64
2, 78336, Note_on_c, 9, 36, 80
2, 78336, Note_on_c, 9, 42, 64
2, 78344, Note_off_c, 9, 42, 64
2, 78344, Note_off_c, 9, 36, 80
2, 78432, Note_on_c, 9, 42, 64
2, 78440, Note_off_c, 9, 42, 64
2, 78528, Note_on_c, 9, 38, 70
2, 78528, Note_on_c, 9, 42, 64
2, 78536, Note_off_c, 9, 42, 64
2, 78536, Note_off_c, 9, 38, 70
2, 78624, Note_on_c, 9, 42, 64
2, 78624, Note_on_c, 9, 36, 80
2, 78632, Note_off_c, 9, 36, 80
2, 78632, Note_off_c, 9, 42, 64
2, 78720, Note_on_c, 9, 42, 64
2, 78720, Note_on_c, 9, 36, 80
2, 78728, Note_off_c, 9, 36, 80
2, 78728, Note_off_c, 9, 42, 64
2, 78816, Note_on_c, 9, 42, 64
2, 78824, Note_off_c, 9, 42, 64
2, 78912, Note_on_c, 9, 38, 70
2, 78912, Note_on_c, 9, 42, 64
2, 78920, Note_off_c, 9, 42, 64
2, 78920, Note_off_c, 9, 38, 70
2, 79008, Note_on_c, 9, 42, 64
2, 79016, Note_off_c, 9, 42, 64
2, 79104, Note_on_c, 9, 36, 80
2, 79104, Note_on_c, 9, 42, 64
2, 79112, Note_off_c, 9, 42, 64
2, 79112, Note_off_c, 9, 36, 80
2, 79200, Note_on_c, 9, 42, 64
2, 79208, Note_off_c, 9, 42, 64
2, 79296, Note_on_c, 9, 38, 70
2, 79296, Note_on_c, 9, 42, 64
2, 79304, Note_off_c, 9, 42, 64
2, 79304, Note_off_c, 9, 38, 70
2, 79392, Note_on_c, 9, 42, 64
2, 79392, Note_on_c, 9, 36, 80
2, 79400, Note_off_c, 9, 36, 80
2, 79400, Note_off_c, 9, 42, 64
2, 79488, Note_on_c, 9, 42, 64
2, 79488, Note_on_c, 9, 36, 80
2, 79496, Note_off_c, 9, 36, 80
2, 79496, Note_off_c, 9, 42, 64
2, 79584, Note_on_c, 9, 42, 64
2, 79592, Note_off_c, 9, 42, 64
2, 79680, Note_on_c, 9, 38, 70
2, 79680, Note_on_c, 9, 42, 64
2, 79688, Note_off_c, 9, 42, 64
2, 79688, Note_off_c, 9, 38, 70
2, 79776, Note_on_c, 9, 42, 64
2, 79784, Note_off_c, 9, 42, 64
2, 79872, Note_on_c, 9, 36, 80
2, 79872, Note_on_c, 9, 42, 64
2, 79880, Note_off_c, 9, 42, 64
2, 79880, Note_off_c, 9, 36, 80
2, 79968, Note_on_c, 9, 42, 64
2, 79976, Note_off_c, 9, 42, 64
2, 80064, Note_on_c, 9, 38, 70
2, 80064, Note_on_c, 9, 42, 64
2, 80072, Note_off_c, 9, 42, 64
2, 80072, Note_off_c, 9, 38, 70
2, 80160, Note_on_c, 9, 42, 64
2, 80160, Note_on_c, 9, 36, 80
2, 80168, Note_off_c, 9, 36, 80
2, 80168, Note_off_c, 9, 42, 64
2, 80256, Note_on_c, 9, 42, 64
2, 80256, Note_on_c, 9, 36, 80
2, 80264, Note_off_c, 9, 36, 80
2, 80264, Note_off_c, 9, 42, 64
2, 80352, Note_on_c, 9, 42, 64
2, 80360, Note_off_c, 9, 42, 64
2, 80448, Note_on_c, 9, 38, 70
2, 80448, Note_on_c, 9, 42, 64
2, 80456, Note_off_c, 9, 42, 64
2, 80456, Note_off_c, 9, 38, 70
2, 80544, Note_on_c, 9, 42, 64
2, 80552, Note_off_c, 9, 42, 64
2, 80640, Note_on_c, 9, 36, 80
2, 80640, Note_on_c, 9, 42, 64
2, 80648, Note_off_c, 9, 42, 64
2, 80648, Note_off_c, 9, 36, 80
2, 80648, End_track
3, 0, Start_track
3, 0, Text_t, "Bass Gtr"
3, 0, Control_c, 1, 121, 0
3, 0, Program_c, 1, 64
3, 144, Control_c, 1, 7, 100
3, 164, Control_c, 1, 10, 64
3, 768, Note_on_c, 1, 58, 74
3, 2296, Note_off_c, 1, 58, 74
3, 2304, Note_on_c, 1, 54, 74
3, 3640, Note_off_c, 1, 54, 74
3, 3648, Note_on_c, 1, 53, 74
3, 3832, Note_off_c, 1, 53, 74
3, 3840, Note_on_c, 1, 51, 74
3, 5368, Note_off_c, 1, 51, 74
3, 5376, Note_on_c, 1, 54, 74
3, 6136, Note_off_c, 1, 54, 74
3, 6144, Note_on_c, 1, 56, 74
3, 6904, Note_off_c, 1, 56, 74
3, 6912, Note_on_c, 1, 58, 74
3, 6952, Note_off_c, 1, 58, 74
3, 6960, Note_on_c, 1, 53, 74
3, 7000, Note_off_c, 1, 53, 74
3, 7104, Note_on_c, 1, 58, 74
3, 7144, Note_off_c, 1, 58, 74
3, 7248, Note_on_c, 1, 53, 74
3, 7288, Note_off_c, 1, 53, 74
3, 7344, Note_on_c, 1, 53, 74
3, 7384, Note_off_c, 1, 53, 74
3, 7392, Note_on_c, 1, 58, 74
3, 7432, Note_off_c, 1, 58, 74
3, 7536, Note_on_c, 1, 53, 74
3, 7576, Note_off_c, 1, 53, 74
3, 7584, Note_on_c, 1, 58, 74
3, 7624, Note_off_c, 1, 58, 74
3, 7728, Note_on_c, 1, 53, 74
3, 7768, Note_off_c, 1, 53, 74
3, 7872, Note_on_c, 1, 53, 74
3, 7912, Note_off_c, 1, 53, 74
3, 8016, Note_on_c, 1, 53, 74
3, 8056, Note_off_c, 1, 53, 74
3, 8112, Note_on_c, 1, 53, 74
3, 8152, Note_off_c, 1, 53, 74
3, 8160, Note_on_c, 1, 53, 74
3, 8200, Note_off_c, 1, 53, 74
3, 8304, Note_on_c, 1, 53, 74
3, 8344, Note_off_c, 1, 53, 74
3, 8352, Note_on_c, 1, 58, 74
3, 8392, Note_off_c, 1, 58, 74
3, 8400, Note_on_c, 1, 58, 74
3, 8440, Note_off_c, 1, 58, 74
3, 8448, Note_on_c, 1, 58, 74
3, 8488, Note_off_c, 1, 58, 74
3, 8496, Note_on_c, 1, 56, 74
3, 8536, Note_off_c, 1, 56, 74
3, 8544, Note_on_c, 1, 58, 74
3, 8584, Note_off_c, 1, 58, 74
3, 8592, Note_on_c, 1, 54, 74
3, 8632, Note_off_c, 1, 54, 74
3, 8640, Note_on_c, 1, 61, 74
3, 8680, Note_off_c, 1, 61, 74
3, 8688, Note_on_c, 1, 54, 74
3, 8728, Note_off_c, 1, 54, 74
3, 8736, Note_on_c, 1, 54, 74
3, 8776, Note_off_c, 1, 54, 74
3, 8784, Note_on_c, 1, 61, 74
3, 8824, Note_off_c, 1, 61, 74
3, 8880, Note_on_c, 1, 61, 74
3, 8920, Note_off_c, 1, 61, 74
3, 8928, Note_on_c, 1, 54, 74
3, 9016, Note_off_c, 1, 54, 74
3, 9024, Note_on_c, 1, 54, 74
3, 9064, Note_off_c, 1, 54, 74
3, 9072, Note_on_c, 1, 54, 74
3, 9112, Note_off_c, 1, 54, 74
3, 9168, Note_on_c, 1, 61, 74
3, 9208, Note_off_c, 1, 61, 74
3, 9216, Note_on_c, 1, 66, 74
3, 9256, Note_off_c, 1, 66, 74
3, 9264, Note_on_c, 1, 61, 74
3, 9304, Note_off_c, 1, 61, 74
3, 9408, Note_on_c, 1, 54, 74
3, 9448, Note_off_c, 1, 54, 74
3, 9552, Note_on_c, 1, 54, 74
3, 9592, Note_off_c, 1, 54, 74
3, 9600, Note_on_c, 1, 58, 74
3, 9640, Note_off_c, 1, 58, 74
3, 9648, Note_on_c, 1, 54, 74
3, 9688, Note_off_c, 1, 54, 74
3, 9696, Note_on_c, 1, 61, 74
3, 9736, Note_off_c, 1, 61, 74
3, 9840, Note_on_c, 1, 58, 74
3, 9880, Note_off_c, 1, 58, 74
3, 9984, Note_on_c, 1, 56, 74
3, 10024, Note_off_c, 1, 56, 74
3, 10032, Note_on_c, 1, 53, 74
3, 10072, Note_off_c, 1, 53, 74
3, 10128, Note_on_c, 1, 58, 74
3, 10168, Note_off_c, 1, 58, 74
3, 10176, Note_on_c, 1, 61, 74
3, 10216, Note_off_c, 1, 61, 74
3, 10368, Note_on_c, 1, 61, 74
3, 10408, Note_off_c, 1, 61, 74
3, 10416, Note_on_c, 1, 61, 74
3, 10456, Note_off_c, 1, 61, 74
3, 10464, Note_on_c, 1, 68, 74
3, 10504, Note_off_c, 1, 68, 74
3, 10656, Note_on_c, 1, 61, 74
3, 10696, Note_off_c, 1, 61, 74
3, 10752, Note_on_c, 1, 58, 74
3, 10792, Note_off_c, 1, 58, 74
3, 10800, Note_on_c, 1, 58, 74
3, 10840, Note_off_c, 1, 58, 74
3, 10896, Note_on_c, 1, 58, 74
3, 10936, Note_off_c, 1, 58, 74
3, 10944, Note_on_c, 1, 65, 74
3, 10984, Note_off_c, 1, 65, 74
3, 11040, Note_on_c, 1, 58, 74
3, 11080, Note_off_c, 1, 58, 74
3, 11088, Note_on_c, 1, 61, 74
3, 11128, Note_off_c, 1, 61, 74
3, 11232, Note_on_c, 1, 58, 74
3, 11272, Note_off_c, 1, 58, 74
3, 11328, Note_on_c, 1, 58, 74
3, 11368, Note_off_c, 1, 58, 74
3, 11376, Note_on_c, 1, 53, 74
3, 11416, Note_off_c, 1, 53, 74
3, 11568, Note_on_c, 1, 54, 74
3, 11608, Note_off_c, 1, 54, 74
3, 11664, Note_on_c, 1, 54, 74
3, 11704, Note_off_c, 1, 54, 74
3, 11712, Note_on_c, 1, 54, 74
3, 11752, Note_off_c, 1, 54, 74
3, 11808, Note_on_c, 1, 54, 74
3, 11848, Note_off_c, 1, 54, 74
3, 11856, Note_on_c, 1, 54, 74
3, 11896, Note_off_c, 1, 54, 74
3, 11904, Note_on_c, 1, 54, 74
3, 12088, Note_off_c, 1, 54, 74
3, 12096, Note_on_c, 1, 54, 74
3, 12136, Note_off_c, 1, 54, 74
3, 12144, Note_on_c, 1, 61, 74
3, 12184, Note_off_c, 1, 61, 74
3, 12192, Note_on_c, 1, 58, 74
3, 12232, Note_off_c, 1, 58, 74
3, 12288, Note_on_c, 1, 54, 74
3, 12472, Note_off_c, 1, 54, 74
3, 12480, Note_on_c, 1, 54, 74
3, 12520, Note_off_c, 1, 54, 74
3, 12528, Note_on_c, 1, 61, 74
3, 12568, Note_off_c, 1, 61, 74
3, 12576, Note_on_c, 1, 58, 74
3, 12616, Note_off_c, 1, 58, 74
3, 12624, Note_on_c, 1, 54, 74
3, 12664, Note_off_c, 1, 54, 74
3, 12720, Note_on_c, 1, 61, 74
3, 12760, Note_off_c, 1, 61, 74
3, 12768, Note_on_c, 1, 61, 74
3, 12808, Note_off_c, 1, 61, 74
3, 12816, Note_on_c, 1, 58, 74
3, 12856, Note_off_c, 1, 58, 74
3, 12912, Note_on_c, 1, 54, 74
3, 12952, Note_off_c, 1, 54, 74
3, 12960, Note_on_c, 1, 49, 74
3, 13000, Note_off_c, 1, 49, 74
3, 13008, Note_on_c, 1, 51, 74
3, 13048, Note_off_c, 1, 51, 74
3, 13056, Note_on_c, 1, 39, 95
3, 13336, Note_off_c, 1, 39, 95
3, 13344, Note_on_c, 1, 39, 95
3, 13432, Note_off_c, 1, 39, 95
3, 13440, Note_on_c, 1, 39, 95
3, 13720, Note_off_c, 1, 39, 95
3, 13824, Note_on_c, 1, 39, 95
3, 14100, Note_off_c, 1, 39, 95
3, 14112, Note_on_c, 1, 39, 95
3, 14196, Note_off_c, 1, 39, 95
3, 14208, Note_on_c, 1, 39, 95
3, 14392, Note_off_c, 1, 39, 95
3, 14400, Note_on_c, 1, 44, 95
3, 14584, Note_off_c, 1, 44, 95
3, 14592, Note_on_c, 1, 41, 95
3, 14872, Note_off_c, 1, 41, 95
3, 14880, Note_on_c, 1, 41, 95
3, 14964, Note_off_c, 1, 41, 95
3, 14976, Note_on_c, 1, 41, 95
3, 15352, Note_off_c, 1, 41, 95
3, 15360, Note_on_c, 1, 41, 95
3, 15640, Note_off_c, 1, 41, 95
3, 15648, Note_on_c, 1, 41, 95
3, 15736, Note_off_c, 1, 41, 95
3, 15744, Note_on_c, 1, 41, 86
3, 16120, Note_off_c, 1, 41, 86
3, 16128, Note_on_c, 1, 42, 95
3, 16408, Note_off_c, 1, 42, 95
3, 16416, Note_on_c, 1, 42, 86
3, 16504, Note_off_c, 1, 42, 86
3, 16512, Note_on_c, 1, 42, 89
3, 16792, Note_off_c, 1, 42, 89
3, 16800, Note_on_c, 1, 49, 86
3, 16888, Note_off_c, 1, 49, 86
3, 16896, Note_on_c, 1, 42, 86
3, 17176, Note_off_c, 1, 42, 86
3, 17184, Note_on_c, 1, 42, 91
3, 17272, Note_off_c, 1, 42, 91
3, 17280, Note_on_c, 1, 42, 84
3, 17440, Note_off_c, 1, 42, 84
3, 17448, Note_on_c, 1, 46, 91
3, 17464, Note_off_c, 1, 46, 91
3, 17472, Note_on_c, 1, 46, 86
3, 17656, Note_off_c, 1, 46, 86
3, 17664, Note_on_c, 1, 44, 69
3, 17944, Note_off_c, 1, 44, 69
3, 17952, Note_on_c, 1, 44, 95
3, 18040, Note_off_c, 1, 44, 95
3, 18048, Note_on_c, 1, 44, 81
3, 18328, Note_off_c, 1, 44, 81
3, 18432, Note_on_c, 1, 44, 67
3, 18616, Note_off_c, 1, 44, 67
3, 18720, Note_on_c, 1, 44, 87
3, 18808, Note_off_c, 1, 44, 87
3, 18816, Note_on_c, 1, 44, 95
3, 19000, Note_off_c, 1, 44, 95
3, 19080, Note_on_c, 1, 44, 78
3, 19096, Note_off_c, 1, 44, 78
3, 19104, Note_on_c, 1, 51, 95
3, 19144, Note_off_c, 1, 51, 95
3, 19152, Note_on_c, 1, 53, 95
3, 19192, Note_off_c, 1, 53, 95
3, 19200, Note_on_c, 1, 46, 74
3, 19288, Note_off_c, 1, 46, 74
3, 19296, Note_on_c, 1, 46, 95
3, 19336, Note_off_c, 1, 46, 95
3, 19392, Note_on_c, 1, 46, 71
3, 19432, Note_off_c, 1, 46, 71
3, 19488, Note_on_c, 1, 46, 95
3, 19768, Note_off_c, 1, 46, 95
3, 19776, Note_on_c, 1, 44, 87
3, 19816, Note_off_c, 1, 44, 87
3, 19872, Note_on_c, 1, 46, 89
3, 20344, Note_off_c, 1, 46, 89
3, 20352, Note_on_c, 1, 44, 95
3, 20536, Note_off_c, 1, 44, 95
3, 20544, Note_on_c, 1, 46, 95
3, 20728, Note_off_c, 1, 46, 95
3, 20736, Note_on_c, 1, 49, 91
3, 20824, Note_off_c, 1, 49, 91
3, 20832, Note_on_c, 1, 51, 95
3, 20872, Note_off_c, 1, 51, 95
3, 20928, Note_on_c, 1, 51, 95
3, 20968, Note_off_c, 1, 51, 95
3, 21024, Note_on_c, 1, 51, 95
3, 21304, Note_off_c, 1, 51, 95
3, 21312, Note_on_c, 1, 49, 91
3, 21352, Note_off_c, 1, 49, 91
3, 21408, Note_on_c, 1, 51, 94
3, 21876, Note_off_c, 1, 51, 94
3, 21888, Note_on_c, 1, 49, 72
3, 22072, Note_off_c, 1, 49, 72
3, 22080, Note_on_c, 1, 51, 89
3, 22264, Note_off_c, 1, 51, 89
3, 22272, Note_on_c, 1, 44, 89
3, 22360, Note_off_c, 1, 44, 89
3, 22368, Note_on_c, 1, 44, 76
3, 22408, Note_off_c, 1, 44, 76
3, 22464, Note_on_c, 1, 44, 76
3, 22504, Note_off_c, 1, 44, 76
3, 22560, Note_on_c, 1, 44, 87
3, 23032, Note_off_c, 1, 44, 87
3, 23040, Note_on_c, 1, 44, 84
3, 23128, Note_off_c, 1, 44, 84
3, 23136, Note_on_c, 1, 44, 76
3, 23176, Note_off_c, 1, 44, 76
3, 23232, Note_on_c, 1, 44, 91
3, 23272, Note_off_c, 1, 44, 91
3, 23328, Note_on_c, 1, 44, 95
3, 23800, Note_off_c, 1, 44, 95
3, 23808, Note_on_c, 1, 49, 66
3, 23896, Note_off_c, 1, 49, 66
3, 23904, Note_on_c, 1, 49, 76
3, 23944, Note_off_c, 1, 49, 76
3, 24000, Note_on_c, 1, 49, 81
3, 24040, Note_off_c, 1, 49, 81
3, 24096, Note_on_c, 1, 49, 95
3, 24472, Note_off_c, 1, 49, 95
3, 24480, Note_on_c, 1, 51, 94
3, 24520, Note_off_c, 1, 51, 94
3, 24528, Note_on_c, 1, 53, 95
3, 24568, Note_off_c, 1, 53, 95
3, 24576, Note_on_c, 1, 41, 95
3, 24664, Note_off_c, 1, 41, 95
3, 24672, Note_on_c, 1, 41, 84
3, 24712, Note_off_c, 1, 41, 84
3, 24768, Note_on_c, 1, 41, 53
3, 24808, Note_off_c, 1, 41, 53
3, 24864, Note_on_c, 1, 41, 91
3, 24952, Note_off_c, 1, 41, 91
3, 24960, Note_on_c, 1, 41, 89
3, 25000, Note_off_c, 1, 41, 89
3, 25008, Note_on_c, 1, 41, 75
3, 25048, Note_off_c, 1, 41, 75
3, 25056, Note_on_c, 1, 53, 74
3, 25096, Note_off_c, 1, 53, 74
3, 25104, Note_on_c, 1, 41, 74
3, 25144, Note_off_c, 1, 41, 74
3, 25152, Note_on_c, 1, 51, 95
3, 25192, Note_off_c, 1, 51, 95
3, 25200, Note_on_c, 1, 53, 95
3, 25240, Note_off_c, 1, 53, 95
3, 25296, Note_on_c, 1, 41, 95
3, 25336, Note_off_c, 1, 41, 95
3, 25344, Note_on_c, 1, 44, 95
3, 25432, Note_off_c, 1, 44, 95
3, 25440, Note_on_c, 1, 46, 95
3, 25480, Note_off_c, 1, 46, 95
3, 25536, Note_on_c, 1, 46, 95
3, 25576, Note_off_c, 1, 46, 95
3, 25632, Note_on_c, 1, 46, 95
3, 25912, Note_off_c, 1, 46, 95
3, 25920, Note_on_c, 1, 44, 95
3, 25960, Note_off_c, 1, 44, 95
3, 26016, Note_on_c, 1, 46, 87
3, 26488, Note_off_c, 1, 46, 87
3, 26496, Note_on_c, 1, 44, 89
3, 26680, Note_off_c, 1, 44, 89
3, 26688, Note_on_c, 1, 46, 95
3, 26872, Note_off_c, 1, 46, 95
3, 26880, Note_on_c, 1, 49, 82
3, 26968, Note_off_c, 1, 49, 82
3, 26976, Note_on_c, 1, 51, 95
3, 27016, Note_off_c, 1, 51, 95
3, 27072, Note_on_c, 1, 51, 89
3, 27112, Note_off_c, 1, 51, 89
3, 27168, Note_on_c, 1, 51, 95
3, 27448, Note_off_c, 1, 51, 95
3, 27456, Note_on_c, 1, 49, 95
3, 27496, Note_off_c, 1, 49, 95
3, 27552, Note_on_c, 1, 51, 95
3, 28024, Note_off_c, 1, 51, 95
3, 28032, Note_on_c, 1, 49, 84
3, 28216, Note_off_c, 1, 49, 84
3, 28224, Note_on_c, 1, 51, 91
3, 28408, Note_off_c, 1, 51, 91
3, 28416, Note_on_c, 1, 44, 66
3, 28504, Note_off_c, 1, 44, 66
3, 28512, Note_on_c, 1, 44, 70
3, 28552, Note_off_c, 1, 44, 70
3, 28608, Note_on_c, 1, 44, 89
3, 28648, Note_off_c, 1, 44, 89
3, 28704, Note_on_c, 1, 44, 95
3, 28984, Note_off_c, 1, 44, 95
3, 28992, Note_on_c, 1, 58, 95
3, 29032, Note_off_c, 1, 58, 95
3, 29088, Note_on_c, 1, 56, 80
3, 29176, Note_off_c, 1, 56, 80
3, 29184, Note_on_c, 1, 56, 87
3, 29264, Note_off_c, 1, 56, 87
3, 29268, Pitch_bend_c, 1, 6656
3, 29272, Note_on_c, 1, 53, 95
3, 29274, Pitch_bend_c, 1, 7040
3, 29280, Pitch_bend_c, 1, 7424
3, 29286, Pitch_bend_c, 1, 7808
3, 29292, Pitch_bend_c, 1, 8192
3, 29320, Note_off_c, 1, 53, 95
3, 29376, Note_on_c, 1, 49, 95
3, 29416, Note_off_c, 1, 49, 95
3, 29472, Note_on_c, 1, 44, 95
3, 29944, Note_off_c, 1, 44, 95
3, 29952, Note_on_c, 1, 49, 86
3, 30040, Note_off_c, 1, 49, 86
3, 30048, Note_on_c, 1, 49, 75
3, 30088, Note_off_c, 1, 49, 75
3, 30144, Note_on_c, 1, 49, 76
3, 30184, Note_off_c, 1, 49, 76
3, 30240, Note_on_c, 1, 49, 84
3, 30616, Note_off_c, 1, 49, 84
3, 30624, Note_on_c, 1, 51, 95
3, 30664, Note_off_c, 1, 51, 95
3, 30672, Note_on_c, 1, 53, 82
3, 30712, Note_off_c, 1, 53, 82
3, 30720, Note_on_c, 1, 41, 82
3, 30808, Note_off_c, 1, 41, 82
3, 30816, Note_on_c, 1, 41, 75
3, 30856, Note_off_c, 1, 41, 75
3, 30912, Note_on_c, 1, 41, 95
3, 30952, Note_off_c, 1, 41, 95
3, 31008, Note_on_c, 1, 41, 89
3, 31144, Note_off_c, 1, 41, 89
3, 31152, Note_on_c, 1, 41, 91
3, 31192, Note_off_c, 1, 41, 91
3, 31200, Note_on_c, 1, 53, 84
3, 31240, Note_off_c, 1, 53, 84
3, 31248, Note_on_c, 1, 41, 81
3, 31288, Note_off_c, 1, 41, 81
3, 31296, Note_on_c, 1, 51, 95
3, 31336, Note_off_c, 1, 51, 95
3, 31344, Note_on_c, 1, 53, 95
3, 31384, Note_off_c, 1, 53, 95
3, 31392, Note_on_c, 1, 49, 76
3, 31432, Note_off_c, 1, 49, 76
3, 31488, Note_on_c, 1, 46, 95
3, 31672, Note_off_c, 1, 46, 95
3, 31776, Note_on_c, 1, 46, 95
3, 31864, Note_off_c, 1, 46, 95
3, 31872, Note_on_c, 1, 46, 95
3, 32248, Note_off_c, 1, 46, 95
3, 32256, Note_on_c, 1, 46, 95
3, 32440, Note_off_c, 1, 46, 95
3, 32544, Note_on_c, 1, 46, 91
3, 32584, Note_off_c, 1, 46, 91
3, 32640, Note_on_c, 1, 46, 86
3, 32920, Note_off_c, 1, 46, 86
3, 32928, Note_on_c, 1, 44, 91
3, 33016, Note_off_c, 1, 44, 91
3, 33024, Note_on_c, 1, 42, 89
3, 33304, Note_off_c, 1, 42, 89
3, 33312, Note_on_c, 1, 42, 95
3, 33352, Note_off_c, 1, 42, 95
3, 33408, Note_on_c, 1, 42, 95
3, 33784, Note_off_c, 1, 42, 95
3, 33792, Note_on_c, 1, 42, 95
3, 33972, Note_off_c, 1, 42, 95
3, 34080, Note_on_c, 1, 42, 95
3, 34120, Note_off_c, 1, 42, 95
3, 34176, Note_on_c, 1, 42, 95
3, 34552, Note_off_c, 1, 42, 95
3, 34560, Note_on_c, 1, 46, 95
3, 34744, Note_off_c, 1, 46, 95
3, 34848, Note_on_c, 1, 46, 95
3, 34888, Note_off_c, 1, 46, 95
3, 34944, Note_on_c, 1, 46, 94
3, 35320, Note_off_c, 1, 46, 94
3, 35328, Note_on_c, 1, 46, 87
3, 35512, Note_off_c, 1, 46, 87
3, 35616, Note_on_c, 1, 46, 95
3, 35704, Note_off_c, 1, 46, 95
3, 35712, Note_on_c, 1, 46, 95
3, 35800, Note_off_c, 1, 46, 95
3, 35808, Note_on_c, 1, 48, 91
3, 35896, Note_off_c, 1, 48, 91
3, 35904, Note_on_c, 1, 49, 95
3, 35992, Note_off_c, 1, 49, 95
3, 36000, Note_on_c, 1, 44, 95
3, 36088, Note_off_c, 1, 44, 95
3, 36096, Note_on_c, 1, 42, 95
3, 36276, Note_off_c, 1, 42, 95
3, 36384, Note_on_c, 1, 42, 95
3, 36424, Note_off_c, 1, 42, 95
3, 36480, Note_on_c, 1, 42, 95
3, 36856, Note_off_c, 1, 42, 95
3, 36864, Note_on_c, 1, 42, 95
3, 37044, Note_off_c, 1, 42, 95
3, 37152, Note_on_c, 1, 42, 95
3, 37192, Note_off_c, 1, 42, 95
3, 37248, Note_on_c, 1, 42, 95
3, 37432, Note_off_c, 1, 42, 95
3, 37488, Note_on_c, 1, 42, 95
3, 37524, Note_off_c, 1, 42, 95
3, 37632, Note_on_c, 1, 51, 95
3, 37912, Note_off_c, 1, 51, 95
3, 37920, Note_on_c, 1, 51, 95
3, 38004, Note_off_c, 1, 51, 95
3, 38016, Note_on_c, 1, 51, 95
3, 38392, Note_off_c, 1, 51, 95
3, 38400, Note_on_c, 1, 51, 91
3, 38680, Note_off_c, 1, 51, 91
3, 38688, Note_on_c, 1, 51, 95
3, 38776, Note_off_c, 1, 51, 95
3, 38784, Note_on_c, 1, 51, 95
3, 39032, Note_off_c, 1, 51, 95
3, 39040, Note_on_c, 1, 48, 95
3, 39096, Note_off_c, 1, 48, 95
3, 39104, Note_on_c, 1, 44, 95
3, 39160, Note_off_c, 1, 44, 95
3, 39168, Note_on_c, 1, 41, 74
3, 39352, Note_off_c, 1, 41, 74
3, 39456, Note_on_c, 1, 41, 95
3, 39496, Note_off_c, 1, 41, 95
3, 39552, Note_on_c, 1, 41, 95
3, 39928, Note_off_c, 1, 41, 95
3, 39936, Note_on_c, 1, 41, 95
3, 40120, Note_off_c, 1, 41, 95
3, 40224, Note_on_c, 1, 41, 95
3, 40264, Note_off_c, 1, 41, 95
3, 40320, Note_on_c, 1, 41, 95
3, 40696, Note_off_c, 1, 41, 95
3, 40704, Note_on_c, 1, 42, 95
3, 40888, Note_off_c, 1, 42, 95
3, 40992, Note_on_c, 1, 42, 95
3, 41032, Note_off_c, 1, 42, 95
3, 41088, Note_on_c, 1, 42, 95
3, 41368, Note_off_c, 1, 42, 95
3, 41376, Note_on_c, 1, 46, 95
3, 41464, Note_off_c, 1, 46, 95
3, 41472, Note_on_c, 1, 42, 95
3, 41656, Note_off_c, 1, 42, 95
3, 41760, Note_on_c, 1, 42, 89
3, 41800, Note_off_c, 1, 42, 89
3, 41856, Note_on_c, 1, 42, 95
3, 42136, Note_off_c, 1, 42, 95
3, 42144, Note_on_c, 1, 46, 95
3, 42184, Note_off_c, 1, 46, 95
3, 42192, Note_on_c, 1, 46, 95
3, 42232, Note_off_c, 1, 46, 95
3, 42240, Note_on_c, 1, 44, 95
3, 42416, Note_off_c, 1, 44, 95
3, 42528, Note_on_c, 1, 44, 84
3, 42612, Note_off_c, 1, 44, 84
3, 42624, Note_on_c, 1, 44, 82
3, 43000, Note_off_c, 1, 44, 82
3, 43008, Note_on_c, 1, 44, 88
3, 43188, Note_off_c, 1, 44, 88
3, 43296, Note_on_c, 1, 44, 89
3, 43380, Note_off_c, 1, 44, 89
3, 43392, Note_on_c, 1, 44, 80
3, 43576, Note_off_c, 1, 44, 80
3, 43584, Note_on_c, 1, 51, 91
3, 43624, Note_off_c, 1, 51, 91
3, 43632, Note_on_c, 1, 53, 76
3, 43720, Note_off_c, 1, 53, 76
3, 43724, Note_on_c, 1, 41, 95
3, 43772, Note_off_c, 1, 41, 95
3, 43776, Note_on_c, 1, 46, 55
3, 43864, Note_off_c, 1, 46, 55
3, 43872, Note_on_c, 1, 46, 95
3, 43912, Note_off_c, 1, 46, 95
3, 43968, Note_on_c, 1, 46, 71
3, 44008, Note_off_c, 1, 46, 71
3, 44064, Note_on_c, 1, 46, 95
3, 44344, Note_off_c, 1, 46, 95
3, 44352, Note_on_c, 1, 44, 87
3, 44392, Note_off_c, 1, 44, 87
3, 44448, Note_on_c, 1, 46, 89
3, 44920, Note_off_c, 1, 46, 89
3, 44928, Note_on_c, 1, 44, 95
3, 45112, Note_off_c, 1, 44, 95
3, 45120, Note_on_c, 1, 46, 95
3, 45304, Note_off_c, 1, 46, 95
3, 45312, Note_on_c, 1, 49, 91
3, 45400, Note_off_c, 1, 49, 91
3, 45408, Note_on_c, 1, 51, 95
3, 45448, Note_off_c, 1, 51, 95
3, 45504, Note_on_c, 1, 51, 95
3, 45544, Note_off_c, 1, 51, 95
3, 45600, Note_on_c, 1, 51, 95
3, 45880, Note_off_c, 1, 51, 95
3, 45888, Note_on_c, 1, 49, 91
3, 45928, Note_off_c, 1, 49, 91
3, 45984, Note_on_c, 1, 51, 94
3, 46452, Note_off_c, 1, 51, 94
3, 46464, Note_on_c, 1, 49, 72
3, 46648, Note_off_c, 1, 49, 72
3, 46656, Note_on_c, 1, 51, 89
3, 46840, Note_off_c, 1, 51, 89
3, 46848, Note_on_c, 1, 44, 89
3, 46936, Note_off_c, 1, 44, 89
3, 46944, Note_on_c, 1, 44, 76
3, 46984, Note_off_c, 1, 44, 76
3, 47040, Note_on_c, 1, 44, 76
3, 47080, Note_off_c, 1, 44, 76
3, 47136, Note_on_c, 1, 44, 87
3, 47368, Note_off_c, 1, 44, 87
3, 47376, Note_on_c, 1, 56, 74
3, 47416, Note_off_c, 1, 56, 74
3, 47424, Note_on_c, 1, 58, 74
3, 47464, Note_off_c, 1, 58, 74
3, 47520, Note_on_c, 1, 56, 74
3, 47560, Note_off_c, 1, 56, 74
3, 47616, Note_on_c, 1, 56, 84
3, 47704, Note_off_c, 1, 56, 84
3, 47712, Note_on_c, 1, 44, 76
3, 47752, Note_off_c, 1, 44, 76
3, 47808, Note_on_c, 1, 44, 91
3, 47848, Note_off_c, 1, 44, 91
3, 47904, Note_on_c, 1, 44, 95
3, 48232, Note_off_c, 1, 44, 95
3, 48240, Note_on_c, 1, 44, 74
3, 48280, Note_off_c, 1, 44, 74
3, 48288, Note_on_c, 1, 46, 74
3, 48376, Note_off_c, 1, 46, 74
3, 48384, Note_on_c, 1, 49, 66
3, 48472, Note_off_c, 1, 49, 66
3, 48480, Note_on_c, 1, 49, 76
3, 48520, Note_off_c, 1, 49, 76
3, 48576, Note_on_c, 1, 49, 81
3, 48616, Note_off_c, 1, 49, 81
3, 48672, Note_on_c, 1, 49, 95
3, 49048, Note_off_c, 1, 49, 95
3, 49056, Note_on_c, 1, 51, 94
3, 49096, Note_off_c, 1, 51, 94
3, 49104, Note_on_c, 1, 53, 95
3, 49144, Note_off_c, 1, 53, 95
3, 49152, Note_on_c, 1, 41, 95
3, 49240, Note_off_c, 1, 41, 95
3, 49248, Note_on_c, 1, 41, 84
3, 49288, Note_off_c, 1, 41, 84
3, 49344, Note_on_c, 1, 41, 53
3, 49384, Note_off_c, 1, 41, 53
3, 49440, Note_on_c, 1, 41, 91
3, 49528, Note_off_c, 1, 41, 91
3, 49536, Note_on_c, 1, 41, 89
3, 49576, Note_off_c, 1, 41, 89
3, 49584, Note_on_c, 1, 41, 75
3, 49624, Note_off_c, 1, 41, 75
3, 49632, Note_on_c, 1, 53, 74
3, 49672, Note_off_c, 1, 53, 74
3, 49680, Note_on_c, 1, 41, 74
3, 49720, Note_off_c, 1, 41, 74
3, 49728, Note_on_c, 1, 51, 95
3, 49768, Note_off_c, 1, 51, 95
3, 49776, Note_on_c, 1, 53, 95
3, 49816, Note_off_c, 1, 53, 95
3, 49872, Note_on_c, 1, 41, 95
3, 49912, Note_off_c, 1, 41, 95
3, 49920, Note_on_c, 1, 44, 95
3, 50008, Note_off_c, 1, 44, 95
3, 50016, Note_on_c, 1, 46, 95
3, 50056, Note_off_c, 1, 46, 95
3, 50112, Note_on_c, 1, 46, 95
3, 50152, Note_off_c, 1, 46, 95
3, 50208, Note_on_c, 1, 46, 95
3, 50488, Note_off_c, 1, 46, 95
3, 50496, Note_on_c, 1, 44, 95
3, 50536, Note_off_c, 1, 44, 95
3, 50592, Note_on_c, 1, 46, 87
3, 51064, Note_off_c, 1, 46, 87
3, 51072, Note_on_c, 1, 44, 89
3, 51256, Note_off_c, 1, 44, 89
3, 51264, Note_on_c, 1, 46, 95
3, 51448, Note_off_c, 1, 46, 95
3, 51456, Note_on_c, 1, 49, 82
3, 51544, Note_off_c, 1, 49, 82
3, 51552, Note_on_c, 1, 51, 95
3, 51592, Note_off_c, 1, 51, 95
3, 51648, Note_on_c, 1, 51, 89
3, 51688, Note_off_c, 1, 51, 89
3, 51744, Note_on_c, 1, 51, 95
3, 52024, Note_off_c, 1, 51, 95
3, 52032, Note_on_c, 1, 49, 95
3, 52072, Note_off_c, 1, 49, 95
3, 52128, Note_on_c, 1, 51, 95
3, 52600, Note_off_c, 1, 51, 95
3, 52608, Note_on_c, 1, 49, 84
3, 52792, Note_off_c, 1, 49, 84
3, 52800, Note_on_c, 1, 51, 91
3, 52984, Note_off_c, 1, 51, 91
3, 52992, Note_on_c, 1, 44, 66
3, 53080, Note_off_c, 1, 44, 66
3, 53088, Note_on_c, 1, 44, 70
3, 53128, Note_off_c, 1, 44, 70
3, 53184, Note_on_c, 1, 44, 89
3, 53224, Note_off_c, 1, 44, 89
3, 53280, Note_on_c, 1, 44, 95
3, 53560, Note_off_c, 1, 44, 95
3, 53568, Note_on_c, 1, 58, 95
3, 53608, Note_off_c, 1, 58, 95
3, 53664, Note_on_c, 1, 56, 80
3, 53752, Note_off_c, 1, 56, 80
3, 53760, Note_on_c, 1, 56, 87
3, 53840, Note_off_c, 1, 56, 87
3, 53844, Pitch_bend_c, 1, 6656
3, 53848, Note_on_c, 1, 53, 95
3, 53850, Pitch_bend_c, 1, 7040
3, 53856, Pitch_bend_c, 1, 7424
3, 53862, Pitch_bend_c, 1, 7808
3, 53868, Pitch_bend_c, 1, 8192
3, 53896, Note_off_c, 1, 53, 95
3, 53952, Note_on_c, 1, 49, 95
3, 53992, Note_off_c, 1, 49, 95
3, 54048, Note_on_c, 1, 44, 95
3, 54520, Note_off_c, 1, 44, 95
3, 54528, Note_on_c, 1, 49, 86
3, 54616, Note_off_c, 1, 49, 86
3, 54624, Note_on_c, 1, 49, 75
3, 54664, Note_off_c, 1, 49, 75
3, 54720, Note_on_c, 1, 49, 76
3, 54760, Note_off_c, 1, 49, 76
3, 54816, Note_on_c, 1, 49, 84
3, 55192, Note_off_c, 1, 49, 84
3, 55200, Note_on_c, 1, 51, 95
3, 55240, Note_off_c, 1, 51, 95
3, 55248, Note_on_c, 1, 53, 82
3, 55288, Note_off_c, 1, 53, 82
3, 55296, Note_on_c, 1, 41, 82
3, 55384, Note_off_c, 1, 41, 82
3, 55392, Note_on_c, 1, 41, 75
3, 55432, Note_off_c, 1, 41, 75
3, 55488, Note_on_c, 1, 41, 95
3, 55528, Note_off_c, 1, 41, 95
3, 55584, Note_on_c, 1, 41, 89
3, 55720, Note_off_c, 1, 41, 89
3, 55728, Note_on_c, 1, 41, 91
3, 55768, Note_off_c, 1, 41, 91
3, 55776, Note_on_c, 1, 53, 84
3, 55816, Note_off_c, 1, 53, 84
3, 55824, Note_on_c, 1, 41, 81
3, 55864, Note_off_c, 1, 41, 81
3, 55872, Note_on_c, 1, 51, 95
3, 55912, Note_off_c, 1, 51, 95
3, 55920, Note_on_c, 1, 53, 95
3, 55960, Note_off_c, 1, 53, 95
3, 55968, Note_on_c, 1, 49, 76
3, 56008, Note_off_c, 1, 49, 76
3, 56064, Note_on_c, 1, 46, 95
3, 56344, Note_off_c, 1, 46, 95
3, 56352, Note_on_c, 1, 46, 95
3, 56440, Note_off_c, 1, 46, 95
3, 56448, Note_on_c, 1, 46, 95
3, 56824, Note_off_c, 1, 46, 95
3, 56832, Note_on_c, 1, 46, 95
3, 57112, Note_off_c, 1, 46, 95
3, 57120, Note_on_c, 1, 46, 95
3, 57208, Note_off_c, 1, 46, 95
3, 57216, Note_on_c, 1, 46, 95
3, 57400, Note_off_c, 1, 46, 95
3, 57408, Note_on_c, 1, 44, 95
3, 57592, Note_off_c, 1, 44, 95
3, 57600, Note_on_c, 1, 42, 95
3, 57880, Note_off_c, 1, 42, 95
3, 57888, Note_on_c, 1, 42, 65
3, 57976, Note_off_c, 1, 42, 65
3, 57984, Note_on_c, 1, 42, 95
3, 58360, Note_off_c, 1, 42, 95
3, 58368, Note_on_c, 1, 42, 95
3, 58648, Note_off_c, 1, 42, 95
3, 58656, Note_on_c, 1, 42, 95
3, 58744, Note_off_c, 1, 42, 95
3, 58752, Note_on_c, 1, 42, 88
3, 58932, Note_off_c, 1, 42, 88
3, 58944, Note_on_c, 1, 41, 95
3, 59128, Note_off_c, 1, 41, 95
3, 59136, Note_on_c, 1, 39, 95
3, 59416, Note_off_c, 1, 39, 95
3, 59424, Note_on_c, 1, 39, 95
3, 59512, Note_off_c, 1, 39, 95
3, 59520, Note_on_c, 1, 39, 95
3, 59892, Note_off_c, 1, 39, 95
3, 59904, Note_on_c, 1, 39, 95
3, 60184, Note_off_c, 1, 39, 95
3, 60192, Note_on_c, 1, 39, 95
3, 60280, Note_off_c, 1, 39, 95
3, 60288, Note_on_c, 1, 39, 95
3, 60664, Note_off_c, 1, 39, 95
3, 60672, Note_on_c, 1, 42, 95
3, 60952, Note_off_c, 1, 42, 95
3, 60960, Note_on_c, 1, 42, 95
3, 61044, Note_off_c, 1, 42, 95
3, 61056, Note_on_c, 1, 42, 95
3, 61432, Note_off_c, 1, 42, 95
3, 61440, Note_on_c, 1, 44, 95
3, 61720, Note_off_c, 1, 44, 95
3, 61728, Note_on_c, 1, 44, 95
3, 61816, Note_off_c, 1, 44, 95
3, 61824, Note_on_c, 1, 51, 95
3, 61864, Note_off_c, 1, 51, 95
3, 61872, Note_on_c, 1, 53, 95
3, 61960, Note_off_c, 1, 53, 95
3, 61968, Note_on_c, 1, 41, 91
3, 62008, Note_off_c, 1, 41, 91
3, 62064, Note_on_c, 1, 41, 95
3, 62104, Note_off_c, 1, 41, 95
3, 62112, Note_on_c, 1, 51, 95
3, 62152, Note_off_c, 1, 51, 95
3, 62160, Note_on_c, 1, 53, 57
3, 62200, Note_off_c, 1, 53, 57
3, 62208, Note_on_c, 1, 46, 74
3, 62296, Note_off_c, 1, 46, 74
3, 62304, Note_on_c, 1, 46, 95
3, 62344, Note_off_c, 1, 46, 95
3, 62400, Note_on_c, 1, 46, 71
3, 62440, Note_off_c, 1, 46, 71
3, 62496, Note_on_c, 1, 46, 95
3, 62776, Note_off_c, 1, 46, 95
3, 62784, Note_on_c, 1, 44, 87
3, 62824, Note_off_c, 1, 44, 87
3, 62880, Note_on_c, 1, 46, 89
3, 63352, Note_off_c, 1, 46, 89
3, 63360, Note_on_c, 1, 44, 95
3, 63544, Note_off_c, 1, 44, 95
3, 63552, Note_on_c, 1, 46, 95
3, 63736, Note_off_c, 1, 46, 95
3, 63744, Note_on_c, 1, 49, 91
3, 63832, Note_off_c, 1, 49, 91
3, 63840, Note_on_c, 1, 51, 95
3, 63880, Note_off_c, 1, 51, 95
3, 63936, Note_on_c, 1, 51, 95
3, 63976, Note_off_c, 1, 51, 95
3, 64032, Note_on_c, 1, 51, 95
3, 64312, Note_off_c, 1, 51, 95
3, 64320, Note_on_c, 1, 49, 91
3, 64360, Note_off_c, 1, 49, 91
3, 64416, Note_on_c, 1, 51, 94
3, 64884, Note_off_c, 1, 51, 94
3, 64896, Note_on_c, 1, 49, 72
3, 65080, Note_off_c, 1, 49, 72
3, 65088, Note_on_c, 1, 51, 89
3, 65272, Note_off_c, 1, 51, 89
3, 65280, Note_on_c, 1, 44, 89
3, 65368, Note_off_c, 1, 44, 89
3, 65376, Note_on_c, 1, 44, 76
3, 65416, Note_off_c, 1, 44, 76
3, 65472, Note_on_c, 1, 44, 76
3, 65512, Note_off_c, 1, 44, 76
3, 65568, Note_on_c, 1, 44, 87
3, 65800, Note_off_c, 1, 44, 87
3, 65808, Note_on_c, 1, 56, 74
3, 65848, Note_off_c, 1, 56, 74
3, 65856, Note_on_c, 1, 58, 74
3, 65896, Note_off_c, 1, 58, 74
3, 65952, Note_on_c, 1, 56, 74
3, 65992, Note_off_c, 1, 56, 74
3, 66048, Note_on_c, 1, 56, 84
3, 66136, Note_off_c, 1, 56, 84
3, 66144, Note_on_c, 1, 44, 76
3, 66184, Note_off_c, 1, 44, 76
3, 66240, Note_on_c, 1, 44, 91
3, 66280, Note_off_c, 1, 44, 91
3, 66336, Note_on_c, 1, 44, 95
3, 66664, Note_off_c, 1, 44, 95
3, 66672, Note_on_c, 1, 44, 74
3, 66712, Note_off_c, 1, 44, 74
3, 66720, Note_on_c, 1, 46, 74
3, 66808, Note_off_c, 1, 46, 74
3, 66816, Note_on_c, 1, 49, 66
3, 66904, Note_off_c, 1, 49, 66
3, 66912, Note_on_c, 1, 49, 76
3, 66952, Note_off_c, 1, 49, 76
3, 67008, Note_on_c, 1, 49, 81
3, 67048, Note_off_c, 1, 49, 81
3, 67104, Note_on_c, 1, 49, 95
3, 67480, Note_off_c, 1, 49, 95
3, 67488, Note_on_c, 1, 51, 94
3, 67528, Note_off_c, 1, 51, 94
3, 67536, Note_on_c, 1, 53, 95
3, 67576, Note_off_c, 1, 53, 95
3, 67584, Note_on_c, 1, 41, 95
3, 67672, Note_off_c, 1, 41, 95
3, 67680, Note_on_c, 1, 41, 84
3, 67720, Note_off_c, 1, 41, 84
3, 67776, Note_on_c, 1, 41, 53
3, 67816, Note_off_c, 1, 41, 53
3, 67872, Note_on_c, 1, 41, 91
3, 67960, Note_off_c, 1, 41, 91
3, 67968, Note_on_c, 1, 41, 89
3, 68008, Note_off_c, 1, 41, 89
3, 68016, Note_on_c, 1, 41, 75
3, 68056, Note_off_c, 1, 41, 75
3, 68064, Note_on_c, 1, 53, 74
3, 68104, Note_off_c, 1, 53, 74
3, 68112, Note_on_c, 1, 41, 74
3, 68152, Note_off_c, 1, 41, 74
3, 68160, Note_on_c, 1, 51, 95
3, 68200, Note_off_c, 1, 51, 95
3, 68208, Note_on_c, 1, 53, 95
3, 68248, Note_off_c, 1, 53, 95
3, 68304, Note_on_c, 1, 41, 95
3, 68344, Note_off_c, 1, 41, 95
3, 68352, Note_on_c, 1, 44, 95
3, 68440, Note_off_c, 1, 44, 95
3, 68448, Note_on_c, 1, 46, 95
3, 68488, Note_off_c, 1, 46, 95
3, 68544, Note_on_c, 1, 46, 95
3, 68584, Note_off_c, 1, 46, 95
3, 68640, Note_on_c, 1, 46, 95
3, 68920, Note_off_c, 1, 46, 95
3, 68928, Note_on_c, 1, 44, 95
3, 68968, Note_off_c, 1, 44, 95
3, 69024, Note_on_c, 1, 46, 87
3, 69496, Note_off_c, 1, 46, 87
3, 69504, Note_on_c, 1, 44, 89
3, 69688, Note_off_c, 1, 44, 89
3, 69696, Note_on_c, 1, 46, 95
3, 69880, Note_off_c, 1, 46, 95
3, 69888, Note_on_c, 1, 49, 82
3, 69976, Note_off_c, 1, 49, 82
3, 69984, Note_on_c, 1, 51, 95
3, 70024, Note_off_c, 1, 51, 95
3, 70080, Note_on_c, 1, 51, 89
3, 70120, Note_off_c, 1, 51, 89
3, 70176, Note_on_c, 1, 51, 95
3, 70456, Note_off_c, 1, 51, 95
3, 70464, Note_on_c, 1, 49, 95
3, 70504, Note_off_c, 1, 49, 95
3, 70560, Note_on_c, 1, 51, 95
3, 71032, Note_off_c, 1, 51, 95
3, 71040, Note_on_c, 1, 49, 84
3, 71224, Note_off_c, 1, 49, 84
3, 71232, Note_on_c, 1, 51, 91
3, 71416, Note_off_c, 1, 51, 91
3, 71424, Note_on_c, 1, 44, 66
3, 71512, Note_off_c, 1, 44, 66
3, 71520, Note_on_c, 1, 44, 70
3, 71560, Note_off_c, 1, 44, 70
3, 71616, Note_on_c, 1, 44, 89
3, 71656, Note_off_c, 1, 44, 89
3, 71712, Note_on_c, 1, 44, 95
3, 71992, Note_off_c, 1, 44, 95
3, 72000, Note_on_c, 1, 58, 95
3, 72040, Note_off_c, 1, 58, 95
3, 72096, Note_on_c, 1, 56, 80
3, 72184, Note_off_c, 1, 56, 80
3, 72192, Note_on_c, 1, 56, 87
3, 72272, Note_off_c, 1, 56, 87
3, 72276, Pitch_bend_c, 1, 6656
3, 72280, Note_on_c, 1, 53, 95
3, 72288, Pitch_bend_c, 1, 7040
3, 72288, Pitch_bend_c, 1, 7424
3, 72294, Pitch_bend_c, 1, 7808
3, 72300, Pitch_bend_c, 1, 8192
3, 72328, Note_off_c, 1, 53, 95
3, 72384, Note_on_c, 1, 49, 95
3, 72424, Note_off_c, 1, 49, 95
3, 72480, Note_on_c, 1, 44, 95
3, 72952, Note_off_c, 1, 44, 95
3, 72960, Note_on_c, 1, 49, 74
3, 73048, Note_off_c, 1, 49, 74
3, 73056, Note_on_c, 1, 49, 74
3, 73096, Note_off_c, 1, 49, 74
3, 73152, Note_on_c, 1, 49, 74
3, 73192, Note_off_c, 1, 49, 74
3, 73248, Note_on_c, 1, 49, 74
3, 73624, Note_off_c, 1, 49, 74
3, 73632, Note_on_c, 1, 51, 74
3, 73672, Note_off_c, 1, 51, 74
3, 73680, Note_on_c, 1, 53, 74
3, 73720, Note_off_c, 1, 53, 74
3, 73728, Note_on_c, 1, 41, 74
3, 73816, Note_off_c, 1, 41, 74
3, 73824, Note_on_c, 1, 41, 74
3, 73864, Note_off_c, 1, 41, 74
3, 73920, Note_on_c, 1, 41, 74
3, 73960, Note_off_c, 1, 41, 74
3, 74016, Note_on_c, 1, 41, 74
3, 74152, Note_off_c, 1, 41, 74
3, 74160, Note_on_c, 1, 41, 74
3, 74200, Note_off_c, 1, 41, 74
3, 74208, Note_on_c, 1, 53, 74
3, 74256, Note_on_c, 1, 41, 74
3, 74258, Note_off_c, 1, 53, 74
3, 74296, Note_off_c, 1, 41, 74
3, 74304, Note_on_c, 1, 51, 74
3, 74344, Note_off_c, 1, 51, 74
3, 74352, Note_on_c, 1, 53, 74
3, 74392, Note_off_c, 1, 53, 74
3, 74400, Note_on_c, 1, 49, 74
3, 74440, Note_off_c, 1, 49, 74
3, 74496, Note_on_c, 1, 46, 74
3, 74776, Note_off_c, 1, 46, 74
3, 74784, Note_on_c, 1, 46, 74
3, 74872, Note_off_c, 1, 46, 74
3, 74880, Note_on_c, 1, 46, 74
3, 75256, Note_off_c, 1, 46, 74
3, 75264, Note_on_c, 1, 46, 74
3, 75544, Note_off_c, 1, 46, 74
3, 75552, Note_on_c, 1, 46, 74
3, 75640, Note_off_c, 1, 46, 74
3, 75648, Note_on_c, 1, 46, 74
3, 75832, Note_off_c, 1, 46, 74
3, 75840, Note_on_c, 1, 44, 74
3, 76024, Note_off_c, 1, 44, 74
3, 76032, Note_on_c, 1, 42, 74
3, 76312, Note_off_c, 1, 42, 74
3, 76320, Note_on_c, 1, 42, 74
3, 76408, Note_off_c, 1, 42, 74
3, 76416, Note_on_c, 1, 42, 74
3, 76792, Note_off_c, 1, 42, 74
3, 76800, Note_on_c, 1, 42, 74
3, 77080, Note_off_c, 1, 42, 74
3, 77088, Note_on_c, 1, 42, 74
3, 77176, Note_off_c, 1, 42, 74
3, 77184, Note_on_c, 1, 42, 74
3, 77368, Note_off_c, 1, 42, 74
3, 77376, Note_on_c, 1, 41, 74
3, 77560, Note_off_c, 1, 41, 74
3, 77568, Note_on_c, 1, 39, 74
3, 77848, Note_off_c, 1, 39, 74
3, 77856, Note_on_c, 1, 39, 74
3, 77944, Note_off_c, 1, 39, 74
3, 77952, Note_on_c, 1, 39, 74
3, 78328, Note_off_c, 1, 39, 74
3, 78336, Note_on_c, 1, 39, 74
3, 78616, Note_off_c, 1, 39, 74
3, 78624, Note_on_c, 1, 39, 74
3, 78712, Note_off_c, 1, 39, 74
3, 78720, Note_on_c, 1, 39, 74
3, 79096, Note_off_c, 1, 39, 74
3, 79104, Note_on_c, 1, 42, 74
3, 79384, Note_off_c, 1, 42, 74
3, 79392, Note_on_c, 1, 42, 74
3, 79480, Note_off_c, 1, 42, 74
3, 79488, Note_on_c, 1, 42, 74
3, 79864, Note_off_c, 1, 42, 74
3, 79872, Note_on_c, 1, 44, 74
3, 80152, Note_off_c, 1, 44, 74
3, 80160, Note_on_c, 1, 44, 74
3, 80248, Note_off_c, 1, 44, 74
3, 80256, Note_on_c, 1, 44, 74
3, 80632, Note_off_c, 1, 44, 74
3, 80640, Note_on_c, 1, 37, 94
3, 80832, Pitch_bend_c, 1, 8576
3, 80856, Pitch_bend_c, 1, 8960
3, 80880, Pitch_bend_c, 1, 9344
3, 80904, Pitch_bend_c, 1, 9728
3, 80928, Pitch_bend_c, 1, 10112
3, 80952, Pitch_bend_c, 1, 10496
3, 80976, Pitch_bend_c, 1, 10880
3, 81000, Pitch_bend_c, 1, 11264
3, 81024, Pitch_bend_c, 1, 11520
3, 81048, Pitch_bend_c, 1, 11904
3, 81072, Pitch_bend_c, 1, 12288
3, 81096, Pitch_bend_c, 1, 12672
3, 81120, Pitch_bend_c, 1, 13056
3, 81144, Pitch_bend_c, 1, 13440
3, 81168, Pitch_bend_c, 1, 13824
3, 81192, Pitch_bend_c, 1, 14208
3, 81216, Pitch_bend_c, 1, 14592
3, 81240, Pitch_bend_c, 1, 14976
3, 81264, Pitch_bend_c, 1, 15360
3, 81288, Pitch_bend_c, 1, 15872
3, 81312, Pitch_bend_c, 1, 16256
3, 81784, Note_off_c, 1, 37, 94
3, 82172, Pitch_bend_c, 1, 8192
3, 82172, End_track
4, 0, Start_track
4, 0, Text_t, "Piano.  "
4, 0, Control_c, 2, 121, 0
4, 126, Program_c, 2, 3
4, 146, Control_c, 2, 7, 100
4, 166, Control_c, 2, 10, 64
4, 768, Note_on_c, 2, 73, 64
4, 856, Note_off_c, 2, 73, 64
4, 864, Note_on_c, 2, 65, 64
4, 952, Note_off_c, 2, 65, 64
4, 960, Note_on_c, 2, 72, 64
4, 1048, Note_off_c, 2, 72, 64
4, 1056, Note_on_c, 2, 65, 64
4, 1144, Note_off_c, 2, 65, 64
4, 1152, Note_on_c, 2, 73, 64
4, 1240, Note_off_c, 2, 73, 64
4, 1248, Note_on_c, 2, 65, 64
4, 1336, Note_off_c, 2, 65, 64
4, 1344, Note_on_c, 2, 72, 64
4, 1432, Note_off_c, 2, 72, 64
4, 1440, Note_on_c, 2, 65, 64
4, 1528, Note_off_c, 2, 65, 64
4, 1536, Note_on_c, 2, 73, 64
4, 1624, Note_off_c, 2, 73, 64
4, 1632, Note_on_c, 2, 65, 64
4, 1720, Note_off_c, 2, 65, 64
4, 1728, Note_on_c, 2, 72, 64
4, 1816, Note_off_c, 2, 72, 64
4, 1824, Note_on_c, 2, 65, 64
4, 1912, Note_off_c, 2, 65, 64
4, 1920, Note_on_c, 2, 73, 64
4, 2008, Note_off_c, 2, 73, 64
4, 2016, Note_on_c, 2, 72, 64
4, 2104, Note_off_c, 2, 72, 64
4, 2112, Note_on_c, 2, 70, 64
4, 2200, Note_off_c, 2, 70, 64
4, 2208, Note_on_c, 2, 68, 64
4, 2296, Note_off_c, 2, 68, 64
4, 2304, Note_on_c, 2, 70, 64
4, 2392, Note_off_c, 2, 70, 64
4, 2400, Note_on_c, 2, 61, 64
4, 2488, Note_off_c, 2, 61, 64
4, 2496, Note_on_c, 2, 68, 64
4, 2584, Note_off_c, 2, 68, 64
4, 2592, Note_on_c, 2, 61, 64
4, 2680, Note_off_c, 2, 61, 64
4, 2688, Note_on_c, 2, 70, 64
4, 2776, Note_off_c, 2, 70, 64
4, 2784, Note_on_c, 2, 61, 64
4, 2872, Note_off_c, 2, 61, 64
4, 2880, Note_on_c, 2, 68, 64
4, 2968, Note_off_c, 2, 68, 64
4, 2976, Note_on_c, 2, 61, 64
4, 3064, Note_off_c, 2, 61, 64
4, 3072, Note_on_c, 2, 70, 64
4, 3160, Note_off_c, 2, 70, 64
4, 3168, Note_on_c, 2, 61, 64
4, 3256, Note_off_c, 2, 61, 64
4, 3264, Note_on_c, 2, 68, 64
4, 3352, Note_off_c, 2, 68, 64
4, 3360, Note_on_c, 2, 61, 64
4, 3448, Note_off_c, 2, 61, 64
4, 3456, Note_on_c, 2, 70, 64
4, 3544, Note_off_c, 2, 70, 64
4, 3552, Note_on_c, 2, 68, 64
4, 3640, Note_off_c, 2, 68, 64
4, 3648, Note_on_c, 2, 66, 64
4, 3736, Note_off_c, 2, 66, 64
4, 3744, Note_on_c, 2, 65, 64
4, 3832, Note_off_c, 2, 65, 64
4, 3840, Note_on_c, 2, 66, 64
4, 3928, Note_off_c, 2, 66, 64
4, 3936, Note_on_c, 2, 58, 64
4, 4024, Note_off_c, 2, 58, 64
4, 4032, Note_on_c, 2, 65, 64
4, 4120, Note_off_c, 2, 65, 64
4, 4128, Note_on_c, 2, 58, 64
4, 4216, Note_off_c, 2, 58, 64
4, 4224, Note_on_c, 2, 66, 64
4, 4312, Note_off_c, 2, 66, 64
4, 4320, Note_on_c, 2, 58, 64
4, 4408, Note_off_c, 2, 58, 64
4, 4416, Note_on_c, 2, 65, 64
4, 4504, Note_off_c, 2, 65, 64
4, 4512, Note_on_c, 2, 58, 64
4, 4600, Note_off_c, 2, 58, 64
4, 4608, Note_on_c, 2, 66, 64
4, 4696, Note_off_c, 2, 66, 64
4, 4704, Note_on_c, 2, 58, 64
4, 4792, Note_off_c, 2, 58, 64
4, 4800, Note_on_c, 2, 65, 64
4, 4888, Note_off_c, 2, 65, 64
4, 4896, Note_on_c, 2, 58, 64
4, 4984, Note_off_c, 2, 58, 64
4, 4992, Note_on_c, 2, 66, 64
4, 5080, Note_off_c, 2, 66, 64
4, 5088, Note_on_c, 2, 65, 64
4, 5176, Note_off_c, 2, 65, 64
4, 5184, Note_on_c, 2, 63, 64
4, 5272, Note_off_c, 2, 63, 64
4, 5280, Note_on_c, 2, 61, 64
4, 5368, Note_off_c, 2, 61, 64
4, 5376, Note_on_c, 2, 54, 64
4, 5376, Note_on_c, 2, 61, 64
4, 5376, Note_on_c, 2, 58, 64
4, 5848, Note_off_c, 2, 58, 64
4, 5848, Note_off_c, 2, 61, 64
4, 5848, Note_off_c, 2, 54, 64
4, 5856, Note_on_c, 2, 58, 64
4, 5856, Note_on_c, 2, 54, 64
4, 5856, Note_on_c, 2, 61, 64
4, 5944, Note_off_c, 2, 61, 64
4, 5944, Note_off_c, 2, 54, 64
4, 5944, Note_off_c, 2, 58, 64
4, 5952, Note_on_c, 2, 66, 64
4, 5992, Note_off_c, 2, 66, 64
4, 6000, Note_on_c, 2, 61, 64
4, 6040, Note_off_c, 2, 61, 64
4, 6048, Note_on_c, 2, 70, 64
4, 6136, Note_off_c, 2, 70, 64
4, 6144, Note_on_c, 2, 68, 64
4, 6144, Note_on_c, 2, 72, 64
4, 6144, Note_on_c, 2, 63, 64
4, 6616, Note_off_c, 2, 63, 64
4, 6616, Note_off_c, 2, 72, 64
4, 6616, Note_off_c, 2, 68, 64
4, 6624, Note_on_c, 2, 72, 64
4, 6760, Note_off_c, 2, 72, 64
4, 6768, Note_on_c, 2, 73, 64
4, 6856, Note_off_c, 2, 73, 64
4, 6864, Note_on_c, 2, 73, 64
4, 6880, Note_off_c, 2, 73, 64
4, 6888, Note_on_c, 2, 75, 64
4, 6904, Note_off_c, 2, 75, 64
4, 6912, Note_on_c, 2, 73, 64
4, 7528, Note_off_c, 2, 73, 64
4, 7536, Note_on_c, 2, 75, 64
4, 7672, Note_off_c, 2, 75, 64
4, 7680, Note_on_c, 2, 77, 64
4, 7680, Note_on_c, 2, 68, 64
4, 7680, Note_on_c, 2, 73, 64
4, 7912, Note_off_c, 2, 73, 64
4, 7920, Note_on_c, 2, 72, 64
4, 8008, Note_off_c, 2, 72, 64
4, 8016, Note_on_c, 2, 73, 64
4, 8296, Note_off_c, 2, 73, 64
4, 8304, Note_on_c, 2, 72, 64
4, 8344, Note_off_c, 2, 72, 64
4, 8352, Note_on_c, 2, 73, 64
4, 8440, Note_off_c, 2, 73, 64
4, 8440, Note_off_c, 2, 68, 64
4, 8440, Note_off_c, 2, 77, 64
4, 8448, Note_on_c, 2, 73, 64
4, 8448, Note_on_c, 2, 70, 64
4, 8448, Note_on_c, 2, 66, 64
4, 8872, Note_off_c, 2, 66, 64
4, 8880, Note_on_c, 2, 65, 64
4, 9064, Note_off_c, 2, 65, 64
4, 9072, Note_on_c, 2, 66, 64
4, 9208, Note_off_c, 2, 66, 64
4, 9208, Note_off_c, 2, 70, 64
4, 9208, Note_off_c, 2, 73, 64
4, 9216, Note_on_c, 2, 70, 64
4, 9216, Note_on_c, 2, 66, 64
4, 9216, Note_on_c, 2, 73, 64
4, 9216, Note_on_c, 2, 65, 64
4, 9736, Note_off_c, 2, 65, 64
4, 9736, Note_off_c, 2, 73, 64
4, 9736, Note_off_c, 2, 66, 64
4, 9736, Note_off_c, 2, 70, 64
4, 9744, Note_on_c, 2, 65, 64
4, 9784, Note_off_c, 2, 65, 64
4, 9792, Note_on_c, 2, 66, 64
4, 9832, Note_off_c, 2, 66, 64
4, 9840, Note_on_c, 2, 70, 64
4, 9880, Note_off_c, 2, 70, 64
4, 9888, Note_on_c, 2, 72, 64
4, 9976, Note_off_c, 2, 72, 64
4, 9984, Note_on_c, 2, 73, 64
4, 9984, Note_on_c, 2, 63, 64
4, 9984, Note_on_c, 2, 65, 64
4, 9984, Note_on_c, 2, 68, 64
4, 10600, Note_off_c, 2, 73, 64
4, 10608, Note_on_c, 2, 80, 64
4, 10744, Note_off_c, 2, 80, 64
4, 10752, Note_on_c, 2, 73, 64
4, 11368, Note_off_c, 2, 73, 64
4, 11368, Note_off_c, 2, 68, 64
4, 11368, Note_off_c, 2, 65, 64
4, 11368, Note_off_c, 2, 63, 64
4, 11376, Note_on_c, 2, 68, 64
4, 11376, Note_on_c, 2, 73, 64
4, 11376, Note_on_c, 2, 65, 64
4, 11512, Note_off_c, 2, 65, 64
4, 11512, Note_off_c, 2, 73, 64
4, 11512, Note_off_c, 2, 68, 64
4, 11520, Note_on_c, 2, 61, 64
4, 11520, Note_on_c, 2, 66, 64
4, 11520, Note_on_c, 2, 65, 64
4, 11520, Note_on_c, 2, 70, 64
4, 11896, Note_off_c, 2, 70, 64
4, 11896, Note_off_c, 2, 65, 64
4, 11896, Note_off_c, 2, 66, 64
4, 11896, Note_off_c, 2, 61, 64
4, 11904, Note_on_c, 2, 73, 64
4, 11904, Note_on_c, 2, 70, 64
4, 11904, Note_on_c, 2, 66, 64
4, 11904, Note_on_c, 2, 65, 64
4, 12184, Note_off_c, 2, 65, 64
4, 12184, Note_off_c, 2, 66, 64
4, 12184, Note_off_c, 2, 70, 64
4, 12184, Note_off_c, 2, 73, 64
4, 12192, Note_on_c, 2, 61, 64
4, 12192, Note_on_c, 2, 66, 64
4, 12192, Note_on_c, 2, 65, 64
4, 12192, Note_on_c, 2, 70, 64
4, 13048, Note_off_c, 2, 70, 64
4, 13048, Note_off_c, 2, 65, 64
4, 13048, Note_off_c, 2, 66, 64
4, 13048, Note_off_c, 2, 61, 64
4, 13056, Note_on_c, 2, 68, 64
4, 13056, Note_on_c, 2, 73, 64
4, 13056, Note_on_c, 2, 77, 64
4, 13432, Note_off_c, 2, 77, 64
4, 13432, Note_off_c, 2, 73, 64
4, 13432, Note_off_c, 2, 68, 64
4, 13440, Note_on_c, 2, 70, 64
4, 13440, Note_on_c, 2, 66, 64
4, 13576, Note_off_c, 2, 66, 64
4, 13576, Note_off_c, 2, 70, 64
4, 13584, Note_on_c, 2, 72, 64
4, 13584, Note_on_c, 2, 68, 64
4, 13720, Note_off_c, 2, 68, 64
4, 13720, Note_off_c, 2, 72, 64
4, 13728, Note_on_c, 2, 70, 64
4, 13728, Note_on_c, 2, 73, 64
4, 13816, Note_off_c, 2, 73, 64
4, 13816, Note_off_c, 2, 70, 64
4, 13824, Note_on_c, 2, 70, 64
4, 13824, Note_on_c, 2, 65, 64
4, 13824, Note_on_c, 2, 66, 64
4, 14344, Note_off_c, 2, 66, 64
4, 14344, Note_off_c, 2, 65, 64
4, 14344, Note_off_c, 2, 70, 64
4, 14352, Note_on_c, 2, 72, 64
4, 14368, Note_off_c, 2, 72, 64
4, 14376, Note_on_c, 2, 73, 64
4, 14584, Note_off_c, 2, 73, 64
4, 14592, Note_on_c, 2, 65, 64
4, 14592, Note_on_c, 2, 72, 64
4, 14592, Note_on_c, 2, 68, 64
4, 14592, Note_on_c, 2, 75, 64
4, 14968, Note_off_c, 2, 75, 64
4, 14968, Note_off_c, 2, 68, 64
4, 14968, Note_off_c, 2, 72, 64
4, 14968, Note_off_c, 2, 65, 64
4, 14976, Note_on_c, 2, 80, 64
4, 14976, Note_on_c, 2, 84, 64
4, 14976, Note_on_c, 2, 77, 64
4, 15352, Note_off_c, 2, 77, 64
4, 15352, Note_off_c, 2, 84, 64
4, 15352, Note_off_c, 2, 80, 64
4, 15360, Note_on_c, 2, 72, 64
4, 15360, Note_on_c, 2, 68, 64
4, 15360, Note_on_c, 2, 63, 64
4, 15496, Note_off_c, 2, 63, 64
4, 15496, Note_off_c, 2, 68, 64
4, 15496, Note_off_c, 2, 72, 64
4, 15504, Note_on_c, 2, 70, 64
4, 15504, Note_on_c, 2, 65, 64
4, 15504, Note_on_c, 2, 73, 64
4, 15640, Note_off_c, 2, 73, 64
4, 15640, Note_off_c, 2, 65, 64
4, 15640, Note_off_c, 2, 70, 64
4, 15648, Note_on_c, 2, 72, 64
4, 15648, Note_on_c, 2, 63, 64
4, 15648, Note_on_c, 2, 68, 64
4, 15928, Note_off_c, 2, 68, 64
4, 15928, Note_off_c, 2, 63, 64
4, 15928, Note_off_c, 2, 72, 64
4, 15936, Note_on_c, 2, 63, 64
4, 15976, Note_off_c, 2, 63, 64
4, 15984, Note_on_c, 2, 60, 64
4, 16024, Note_off_c, 2, 60, 64
4, 16032, Note_on_c, 2, 56, 64
4, 16120, Note_off_c, 2, 56, 64
4, 16128, Note_on_c, 2, 58, 64
4, 16128, Note_on_c, 2, 65, 64
4, 16128, Note_on_c, 2, 61, 64
4, 16600, Note_off_c, 2, 61, 64
4, 16600, Note_off_c, 2, 65, 64
4, 16600, Note_off_c, 2, 58, 64
4, 16608, Note_on_c, 2, 58, 64
4, 16608, Note_on_c, 2, 61, 64
4, 16608, Note_on_c, 2, 65, 64
4, 16744, Note_off_c, 2, 65, 64
4, 16752, Note_on_c, 2, 66, 64
4, 16888, Note_off_c, 2, 66, 64
4, 16888, Note_off_c, 2, 61, 64
4, 16888, Note_off_c, 2, 58, 64
4, 16896, Note_on_c, 2, 70, 64
4, 16896, Note_on_c, 2, 65, 64
4, 16896, Note_on_c, 2, 61, 64
4, 17656, Note_off_c, 2, 61, 64
4, 17656, Note_off_c, 2, 65, 64
4, 17656, Note_off_c, 2, 70, 64
4, 17664, Note_on_c, 2, 80, 64
4, 17664, Note_on_c, 2, 70, 64
4, 17664, Note_on_c, 2, 73, 64
4, 17664, Note_on_c, 2, 66, 64
4, 18424, Note_off_c, 2, 66, 64
4, 18424, Note_off_c, 2, 73, 64
4, 18424, Note_off_c, 2, 70, 64
4, 18424, Note_off_c, 2, 80, 64
4, 18432, Note_on_c, 2, 66, 64
4, 18432, Note_on_c, 2, 73, 64
4, 18432, Note_on_c, 2, 70, 64
4, 18432, Note_on_c, 2, 77, 64
4, 18520, Note_off_c, 2, 77, 64
4, 18528, Note_on_c, 2, 78, 64
4, 18712, Note_off_c, 2, 78, 64
4, 18712, Note_off_c, 2, 70, 64
4, 18712, Note_off_c, 2, 73, 64
4, 18712, Note_off_c, 2, 66, 64
4, 18720, Note_on_c, 2, 66, 64
4, 18720, Note_on_c, 2, 75, 64
4, 18720, Note_on_c, 2, 73, 64
4, 18720, Note_on_c, 2, 70, 64
4, 19096, Note_off_c, 2, 70, 64
4, 19096, Note_off_c, 2, 73, 64
4, 19096, Note_off_c, 2, 75, 64
4, 19096, Note_off_c, 2, 66, 64
4, 19200, Note_on_c, 2, 72, 64
4, 19200, Note_on_c, 2, 75, 64
4, 19200, Note_on_c, 2, 68, 64
4, 19288, Note_off_c, 2, 68, 64
4, 19288, Note_off_c, 2, 75, 64
4, 19288, Note_off_c, 2, 72, 64
4, 19296, Note_on_c, 2, 68, 64
4, 19296, Note_on_c, 2, 77, 64
4, 19296, Note_on_c, 2, 73, 64
4, 19336, Note_off_c, 2, 73, 64
4, 19336, Note_off_c, 2, 77, 64
4, 19336, Note_off_c, 2, 68, 64
4, 19392, Note_on_c, 2, 73, 64
4, 19392, Note_on_c, 2, 68, 64
4, 19392, Note_on_c, 2, 77, 64
4, 19432, Note_off_c, 2, 77, 64
4, 19432, Note_off_c, 2, 68, 64
4, 19432, Note_off_c, 2, 73, 64
4, 19488, Note_on_c, 2, 77, 64
4, 19488, Note_on_c, 2, 68, 64
4, 19488, Note_on_c, 2, 73, 64
4, 19768, Note_off_c, 2, 73, 64
4, 19768, Note_off_c, 2, 68, 64
4, 19768, Note_off_c, 2, 77, 64
4, 19776, Note_on_c, 2, 72, 64
4, 19776, Note_on_c, 2, 68, 64
4, 19776, Note_on_c, 2, 75, 64
4, 19816, Note_off_c, 2, 75, 64
4, 19816, Note_off_c, 2, 68, 64
4, 19816, Note_off_c, 2, 72, 64
4, 19872, Note_on_c, 2, 77, 64
4, 19872, Note_on_c, 2, 73, 64
4, 19872, Note_on_c, 2, 68, 64
4, 20344, Note_off_c, 2, 68, 64
4, 20344, Note_off_c, 2, 73, 64
4, 20344, Note_off_c, 2, 77, 64
4, 20352, Note_on_c, 2, 75, 64
4, 20352, Note_on_c, 2, 68, 64
4, 20352, Note_on_c, 2, 72, 64
4, 20536, Note_off_c, 2, 72, 64
4, 20536, Note_off_c, 2, 68, 64
4, 20536, Note_off_c, 2, 75, 64
4, 20544, Note_on_c, 2, 77, 64
4, 20544, Note_on_c, 2, 68, 64
4, 20544, Note_on_c, 2, 73, 64
4, 20728, Note_off_c, 2, 73, 64
4, 20728, Note_off_c, 2, 68, 64
4, 20728, Note_off_c, 2, 77, 64
4, 20736, Note_on_c, 2, 77, 64
4, 20736, Note_on_c, 2, 73, 64
4, 20736, Note_on_c, 2, 68, 64
4, 20824, Note_off_c, 2, 68, 64
4, 20824, Note_off_c, 2, 73, 64
4, 20824, Note_off_c, 2, 77, 64
4, 20832, Note_on_c, 2, 73, 64
4, 20832, Note_on_c, 2, 78, 64
4, 20832, Note_on_c, 2, 70, 64
4, 20872, Note_off_c, 2, 70, 64
4, 20872, Note_off_c, 2, 78, 64
4, 20872, Note_off_c, 2, 73, 64
4, 20928, Note_on_c, 2, 73, 64
4, 20928, Note_on_c, 2, 70, 64
4, 20928, Note_on_c, 2, 78, 64
4, 20968, Note_off_c, 2, 78, 64
4, 20968, Note_off_c, 2, 70, 64
4, 20968, Note_off_c, 2, 73, 64
4, 21024, Note_on_c, 2, 70, 64
4, 21024, Note_on_c, 2, 78, 64
4, 21024, Note_on_c, 2, 73, 64
4, 21304, Note_off_c, 2, 73, 64
4, 21304, Note_off_c, 2, 78, 64
4, 21304, Note_off_c, 2, 70, 64
4, 21312, Note_on_c, 2, 73, 64
4, 21312, Note_on_c, 2, 68, 64
4, 21312, Note_on_c, 2, 77, 64
4, 21352, Note_off_c, 2, 77, 64
4, 21352, Note_off_c, 2, 68, 64
4, 21352, Note_off_c, 2, 73, 64
4, 21408, Note_on_c, 2, 73, 64
4, 21408, Note_on_c, 2, 78, 64
4, 21408, Note_on_c, 2, 70, 64
4, 21880, Note_off_c, 2, 70, 64
4, 21880, Note_off_c, 2, 78, 64
4, 21880, Note_off_c, 2, 73, 64
4, 21888, Note_on_c, 2, 73, 64
4, 21888, Note_on_c, 2, 77, 64
4, 21888, Note_on_c, 2, 68, 64
4, 22072, Note_off_c, 2, 68, 64
4, 22072, Note_off_c, 2, 77, 64
4, 22072, Note_off_c, 2, 73, 64
4, 22080, Note_on_c, 2, 78, 64
4, 22080, Note_on_c, 2, 73, 64
4, 22080, Note_on_c, 2, 70, 64
4, 22264, Note_off_c, 2, 70, 64
4, 22264, Note_off_c, 2, 73, 64
4, 22264, Note_off_c, 2, 78, 64
4, 22272, Note_on_c, 2, 70, 64
4, 22272, Note_on_c, 2, 73, 64
4, 22272, Note_on_c, 2, 78, 64
4, 22360, Note_off_c, 2, 78, 64
4, 22360, Note_off_c, 2, 73, 64
4, 22360, Note_off_c, 2, 70, 64
4, 22368, Note_on_c, 2, 78, 64
4, 22368, Note_on_c, 2, 73, 64
4, 22368, Note_on_c, 2, 70, 64
4, 22408, Note_off_c, 2, 70, 64
4, 22408, Note_off_c, 2, 73, 64
4, 22408, Note_off_c, 2, 78, 64
4, 22464, Note_on_c, 2, 73, 64
4, 22464, Note_on_c, 2, 70, 64
4, 22464, Note_on_c, 2, 78, 64
4, 22504, Note_off_c, 2, 78, 64
4, 22504, Note_off_c, 2, 70, 64
4, 22504, Note_off_c, 2, 73, 64
4, 22560, Note_on_c, 2, 78, 64
4, 22560, Note_on_c, 2, 73, 64
4, 22560, Note_on_c, 2, 70, 64
4, 23032, Note_off_c, 2, 70, 64
4, 23032, Note_off_c, 2, 73, 64
4, 23032, Note_off_c, 2, 78, 64
4, 23040, Note_on_c, 2, 73, 64
4, 23040, Note_on_c, 2, 70, 64
4, 23040, Note_on_c, 2, 78, 64
4, 23128, Note_off_c, 2, 78, 64
4, 23128, Note_off_c, 2, 70, 64
4, 23128, Note_off_c, 2, 73, 64
4, 23136, Note_on_c, 2, 78, 64
4, 23136, Note_on_c, 2, 73, 64
4, 23136, Note_on_c, 2, 70, 64
4, 23176, Note_off_c, 2, 70, 64
4, 23176, Note_off_c, 2, 73, 64
4, 23176, Note_off_c, 2, 78, 64
4, 23232, Note_on_c, 2, 73, 64
4, 23232, Note_on_c, 2, 78, 64
4, 23232, Note_on_c, 2, 70, 64
4, 23272, Note_off_c, 2, 70, 64
4, 23272, Note_off_c, 2, 78, 64
4, 23272, Note_off_c, 2, 73, 64
4, 23328, Note_on_c, 2, 78, 64
4, 23328, Note_on_c, 2, 73, 64
4, 23328, Note_on_c, 2, 70, 64
4, 23800, Note_off_c, 2, 70, 64
4, 23800, Note_off_c, 2, 73, 64
4, 23800, Note_off_c, 2, 78, 64
4, 23808, Note_on_c, 2, 72, 64
4, 23808, Note_on_c, 2, 68, 64
4, 23808, Note_on_c, 2, 75, 64
4, 23896, Note_off_c, 2, 75, 64
4, 23896, Note_off_c, 2, 68, 64
4, 23896, Note_off_c, 2, 72, 64
4, 23904, Note_on_c, 2, 68, 64
4, 23904, Note_on_c, 2, 77, 64
4, 23904, Note_on_c, 2, 73, 64
4, 23944, Note_off_c, 2, 73, 64
4, 23944, Note_off_c, 2, 77, 64
4, 23944, Note_off_c, 2, 68, 64
4, 24000, Note_on_c, 2, 77, 64
4, 24000, Note_on_c, 2, 68, 64
4, 24000, Note_on_c, 2, 73, 64
4, 24040, Note_off_c, 2, 73, 64
4, 24040, Note_off_c, 2, 68, 64
4, 24040, Note_off_c, 2, 77, 64
4, 24096, Note_on_c, 2, 77, 64
4, 24096, Note_on_c, 2, 68, 64
4, 24096, Note_on_c, 2, 73, 64
4, 24568, Note_off_c, 2, 73, 64
4, 24568, Note_off_c, 2, 68, 64
4, 24568, Note_off_c, 2, 77, 64
4, 24576, Note_on_c, 2, 69, 64
4, 24576, Note_on_c, 2, 72, 64
4, 24576, Note_on_c, 2, 75, 64
4, 24664, Note_off_c, 2, 75, 64
4, 24664, Note_off_c, 2, 72, 64
4, 24664, Note_off_c, 2, 69, 64
4, 24672, Note_on_c, 2, 77, 64
4, 24672, Note_on_c, 2, 69, 64
4, 24672, Note_on_c, 2, 73, 64
4, 24712, Note_off_c, 2, 73, 64
4, 24712, Note_off_c, 2, 69, 64
4, 24712, Note_off_c, 2, 77, 64
4, 24768, Note_on_c, 2, 77, 64
4, 24768, Note_on_c, 2, 69, 64
4, 24768, Note_on_c, 2, 73, 64
4, 24808, Note_off_c, 2, 73, 64
4, 24808, Note_off_c, 2, 69, 64
4, 24808, Note_off_c, 2, 77, 64
4, 24864, Note_on_c, 2, 69, 64
4, 24864, Note_on_c, 2, 77, 64
4, 24864, Note_on_c, 2, 73, 64
4, 25336, Note_off_c, 2, 73, 64
4, 25336, Note_off_c, 2, 77, 64
4, 25336, Note_off_c, 2, 69, 64
4, 25344, Note_on_c, 2, 68, 64
4, 25344, Note_on_c, 2, 72, 64
4, 25344, Note_on_c, 2, 75, 64
4, 25432, Note_off_c, 2, 75, 64
4, 25432, Note_off_c, 2, 72, 64
4, 25432, Note_off_c, 2, 68, 64
4, 25440, Note_on_c, 2, 68, 64
4, 25440, Note_on_c, 2, 77, 64
4, 25440, Note_on_c, 2, 73, 64
4, 25480, Note_off_c, 2, 73, 64
4, 25480, Note_off_c, 2, 77, 64
4, 25480, Note_off_c, 2, 68, 64
4, 25536, Note_on_c, 2, 68, 64
4, 25536, Note_on_c, 2, 77, 64
4, 25536, Note_on_c, 2, 73, 64
4, 25576, Note_off_c, 2, 73, 64
4, 25576, Note_off_c, 2, 77, 64
4, 25576, Note_off_c, 2, 68, 64
4, 25632, Note_on_c, 2, 77, 64
4, 25632, Note_on_c, 2, 68, 64
4, 25632, Note_on_c, 2, 73, 64
4, 25912, Note_off_c, 2, 73, 64
4, 25912, Note_off_c, 2, 68, 64
4, 25912, Note_off_c, 2, 77, 64
4, 25920, Note_on_c, 2, 72, 64
4, 25920, Note_on_c, 2, 68, 64
4, 25920, Note_on_c, 2, 75, 64
4, 25960, Note_off_c, 2, 75, 64
4, 25960, Note_off_c, 2, 68, 64
4, 25960, Note_off_c, 2, 72, 64
4, 26016, Note_on_c, 2, 77, 64
4, 26016, Note_on_c, 2, 68, 64
4, 26016, Note_on_c, 2, 73, 64
4, 26488, Note_off_c, 2, 73, 64
4, 26488, Note_off_c, 2, 68, 64
4, 26488, Note_off_c, 2, 77, 64
4, 26496, Note_on_c, 2, 68, 64
4, 26496, Note_on_c, 2, 72, 64
4, 26496, Note_on_c, 2, 75, 64
4, 26680, Note_off_c, 2, 75, 64
4, 26680, Note_off_c, 2, 72, 64
4, 26680, Note_off_c, 2, 68, 64
4, 26688, Note_on_c, 2, 77, 64
4, 26688, Note_on_c, 2, 68, 64
4, 26688, Note_on_c, 2, 73, 64
4, 26872, Note_off_c, 2, 73, 64
4, 26872, Note_off_c, 2, 68, 64
4, 26872, Note_off_c, 2, 77, 64
4, 26880, Note_on_c, 2, 77, 64
4, 26880, Note_on_c, 2, 73, 64
4, 26880, Note_on_c, 2, 68, 64
4, 26968, Note_off_c, 2, 68, 64
4, 26968, Note_off_c, 2, 73, 64
4, 26968, Note_off_c, 2, 77, 64
4, 26976, Note_on_c, 2, 73, 64
4, 26976, Note_on_c, 2, 70, 64
4, 26976, Note_on_c, 2, 78, 64
4, 27016, Note_off_c, 2, 78, 64
4, 27016, Note_off_c, 2, 70, 64
4, 27016, Note_off_c, 2, 73, 64
4, 27072, Note_on_c, 2, 73, 64
4, 27072, Note_on_c, 2, 78, 64
4, 27072, Note_on_c, 2, 70, 64
4, 27112, Note_off_c, 2, 70, 64
4, 27112, Note_off_c, 2, 78, 64
4, 27112, Note_off_c, 2, 73, 64
4, 27168, Note_on_c, 2, 78, 64
4, 27168, Note_on_c, 2, 70, 64
4, 27168, Note_on_c, 2, 73, 64
4, 27448, Note_off_c, 2, 73, 64
4, 27448, Note_off_c, 2, 70, 64
4, 27448, Note_off_c, 2, 78, 64
4, 27456, Note_on_c, 2, 73, 64
4, 27456, Note_on_c, 2, 68, 64
4, 27456, Note_on_c, 2, 77, 64
4, 27496, Note_off_c, 2, 77, 64
4, 27496, Note_off_c, 2, 68, 64
4, 27496, Note_off_c, 2, 73, 64
4, 27552, Note_on_c, 2, 73, 64
4, 27552, Note_on_c, 2, 78, 64
4, 27552, Note_on_c, 2, 70, 64
4, 28024, Note_off_c, 2, 70, 64
4, 28024, Note_off_c, 2, 78, 64
4, 28024, Note_off_c, 2, 73, 64
4, 28032, Note_on_c, 2, 68, 64
4, 28032, Note_on_c, 2, 73, 64
4, 28032, Note_on_c, 2, 77, 64
4, 28216, Note_off_c, 2, 77, 64
4, 28216, Note_off_c, 2, 73, 64
4, 28216, Note_off_c, 2, 68, 64
4, 28224, Note_on_c, 2, 73, 64
4, 28224, Note_on_c, 2, 78, 64
4, 28224, Note_on_c, 2, 70, 64
4, 28408, Note_off_c, 2, 70, 64
4, 28408, Note_off_c, 2, 78, 64
4, 28408, Note_off_c, 2, 73, 64
4, 28416, Note_on_c, 2, 73, 64
4, 28416, Note_on_c, 2, 78, 64
4, 28416, Note_on_c, 2, 70, 64
4, 28504, Note_off_c, 2, 70, 64
4, 28504, Note_off_c, 2, 78, 64
4, 28504, Note_off_c, 2, 73, 64
4, 28512, Note_on_c, 2, 70, 64
4, 28512, Note_on_c, 2, 73, 64
4, 28512, Note_on_c, 2, 78, 64
4, 28552, Note_off_c, 2, 78, 64
4, 28552, Note_off_c, 2, 73, 64
4, 28552, Note_off_c, 2, 70, 64
4, 28608, Note_on_c, 2, 78, 64
4, 28608, Note_on_c, 2, 73, 64
4, 28608, Note_on_c, 2, 70, 64
4, 28648, Note_off_c, 2, 70, 64
4, 28648, Note_off_c, 2, 73, 64
4, 28648, Note_off_c, 2, 78, 64
4, 28704, Note_on_c, 2, 73, 64
4, 28704, Note_on_c, 2, 70, 64
4, 28704, Note_on_c, 2, 78, 64
4, 29176, Note_off_c, 2, 78, 64
4, 29176, Note_off_c, 2, 70, 64
4, 29176, Note_off_c, 2, 73, 64
4, 29184, Note_on_c, 2, 70, 64
4, 29184, Note_on_c, 2, 78, 64
4, 29184, Note_on_c, 2, 73, 64
4, 29272, Note_off_c, 2, 73, 64
4, 29272, Note_off_c, 2, 78, 64
4, 29272, Note_off_c, 2, 70, 64
4, 29280, Note_on_c, 2, 78, 64
4, 29280, Note_on_c, 2, 73, 64
4, 29280, Note_on_c, 2, 70, 64
4, 29320, Note_off_c, 2, 70, 64
4, 29320, Note_off_c, 2, 73, 64
4, 29320, Note_off_c, 2, 78, 64
4, 29376, Note_on_c, 2, 78, 64
4, 29376, Note_on_c, 2, 73, 64
4, 29376, Note_on_c, 2, 70, 64
4, 29416, Note_off_c, 2, 70, 64
4, 29416, Note_off_c, 2, 73, 64
4, 29416, Note_off_c, 2, 78, 64
4, 29472, Note_on_c, 2, 78, 64
4, 29472, Note_on_c, 2, 73, 64
4, 29472, Note_on_c, 2, 70, 64
4, 29944, Note_off_c, 2, 70, 64
4, 29944, Note_off_c, 2, 73, 64
4, 29944, Note_off_c, 2, 78, 64
4, 29952, Note_on_c, 2, 68, 64
4, 29952, Note_on_c, 2, 72, 64
4, 29952, Note_on_c, 2, 75, 64
4, 30040, Note_off_c, 2, 75, 64
4, 30040, Note_off_c, 2, 72, 64
4, 30040, Note_off_c, 2, 68, 64
4, 30048, Note_on_c, 2, 68, 64
4, 30048, Note_on_c, 2, 73, 64
4, 30048, Note_on_c, 2, 77, 64
4, 30088, Note_off_c, 2, 77, 64
4, 30088, Note_off_c, 2, 73, 64
4, 30088, Note_off_c, 2, 68, 64
4, 30144, Note_on_c, 2, 68, 64
4, 30144, Note_on_c, 2, 77, 64
4, 30144, Note_on_c, 2, 73, 64
4, 30184, Note_off_c, 2, 73, 64
4, 30184, Note_off_c, 2, 77, 64
4, 30184, Note_off_c, 2, 68, 64
4, 30240, Note_on_c, 2, 73, 64
4, 30240, Note_on_c, 2, 77, 64
4, 30240, Note_on_c, 2, 68, 64
4, 30712, Note_off_c, 2, 68, 64
4, 30712, Note_off_c, 2, 77, 64
4, 30712, Note_off_c, 2, 73, 64
4, 30720, Note_on_c, 2, 72, 64
4, 30720, Note_on_c, 2, 69, 64
4, 30720, Note_on_c, 2, 75, 64
4, 30808, Note_off_c, 2, 75, 64
4, 30808, Note_off_c, 2, 69, 64
4, 30808, Note_off_c, 2, 72, 64
4, 30816, Note_on_c, 2, 77, 64
4, 30816, Note_on_c, 2, 69, 64
4, 30816, Note_on_c, 2, 73, 64
4, 30856, Note_off_c, 2, 73, 64
4, 30856, Note_off_c, 2, 69, 64
4, 30856, Note_off_c, 2, 77, 64
4, 30912, Note_on_c, 2, 77, 64
4, 30912, Note_on_c, 2, 69, 64
4, 30912, Note_on_c, 2, 73, 64
4, 30952, Note_off_c, 2, 73, 64
4, 30952, Note_off_c, 2, 69, 64
4, 30952, Note_off_c, 2, 77, 64
4, 31008, Note_on_c, 2, 77, 64
4, 31008, Note_on_c, 2, 73, 64
4, 31008, Note_on_c, 2, 69, 64
4, 31104, Note_on_c, 2, 89, 64
4, 31240, Note_off_c, 2, 89, 64
4, 31248, Note_on_c, 2, 84, 64
4, 31384, Note_off_c, 2, 84, 64
4, 31392, Note_on_c, 2, 81, 64
4, 31480, Note_off_c, 2, 81, 64
4, 31480, Note_off_c, 2, 69, 64
4, 31480, Note_off_c, 2, 73, 64
4, 31480, Note_off_c, 2, 77, 64
4, 31488, Note_on_c, 2, 73, 64
4, 31488, Note_on_c, 2, 68, 64
4, 31488, Note_on_c, 2, 65, 64
4, 32248, Note_off_c, 2, 65, 64
4, 32248, Note_off_c, 2, 68, 64
4, 32248, Note_off_c, 2, 73, 64
4, 32256, Note_on_c, 2, 68, 64
4, 32268, Note_on_c, 2, 73, 64
4, 32280, Note_on_c, 2, 77, 64
4, 32728, Note_off_c, 2, 68, 64
4, 32736, Note_on_c, 2, 65, 64
4, 32736, Note_on_c, 2, 61, 64
4, 32872, Note_off_c, 2, 61, 64
4, 32872, Note_off_c, 2, 65, 64
4, 32880, Note_on_c, 2, 72, 64
4, 33016, Note_off_c, 2, 72, 64
4, 33016, Note_off_c, 2, 77, 64
4, 33016, Note_off_c, 2, 73, 64
4, 33024, Note_on_c, 2, 73, 64
4, 33024, Note_on_c, 2, 70, 64
4, 33024, Note_on_c, 2, 66, 64
4, 33400, Note_off_c, 2, 66, 64
4, 33400, Note_off_c, 2, 70, 64
4, 33400, Note_off_c, 2, 73, 64
4, 33408, Note_on_c, 2, 73, 64
4, 33408, Note_on_c, 2, 70, 64
4, 33408, Note_on_c, 2, 66, 64
4, 33592, Note_off_c, 2, 66, 64
4, 33592, Note_off_c, 2, 70, 64
4, 33592, Note_off_c, 2, 73, 64
4, 33600, Note_on_c, 2, 68, 64
4, 33600, Note_on_c, 2, 72, 64
4, 33688, Note_off_c, 2, 72, 64
4, 33688, Note_off_c, 2, 68, 64
4, 33696, Note_on_c, 2, 66, 64
4, 33696, Note_on_c, 2, 70, 64
4, 33784, Note_off_c, 2, 70, 64
4, 33784, Note_off_c, 2, 66, 64
4, 33792, Note_on_c, 2, 66, 64
4, 33792, Note_on_c, 2, 70, 64
4, 33792, Note_on_c, 2, 61, 64
4, 34168, Note_off_c, 2, 61, 64
4, 34168, Note_off_c, 2, 70, 64
4, 34168, Note_off_c, 2, 66, 64
4, 34176, Note_on_c, 2, 70, 64
4, 34176, Note_on_c, 2, 66, 64
4, 34312, Note_off_c, 2, 66, 64
4, 34312, Note_off_c, 2, 70, 64
4, 34320, Note_on_c, 2, 72, 64
4, 34320, Note_on_c, 2, 68, 64
4, 34456, Note_off_c, 2, 68, 64
4, 34456, Note_off_c, 2, 72, 64
4, 34464, Note_on_c, 2, 70, 64
4, 34464, Note_on_c, 2, 73, 64
4, 34552, Note_off_c, 2, 73, 64
4, 34552, Note_off_c, 2, 70, 64
4, 34560, Note_on_c, 2, 77, 64
4, 34560, Note_on_c, 2, 68, 64
4, 34560, Note_on_c, 2, 73, 64
4, 35308, Note_off_c, 2, 73, 64
4, 35308, Note_off_c, 2, 68, 64
4, 35308, Note_off_c, 2, 77, 64
4, 35316, Note_on_c, 2, 89, 64
4, 35328, Note_on_c, 2, 85, 64
4, 35340, Note_on_c, 2, 80, 64
4, 35692, Note_off_c, 2, 80, 64
4, 35692, Note_off_c, 2, 85, 64
4, 35692, Note_off_c, 2, 89, 64
4, 35700, Note_on_c, 2, 85, 64
4, 35712, Note_on_c, 2, 80, 64
4, 35724, Note_on_c, 2, 77, 64
4, 36076, Note_off_c, 2, 77, 64
4, 36076, Note_off_c, 2, 80, 64
4, 36076, Note_off_c, 2, 85, 64
4, 36084, Note_on_c, 2, 73, 64
4, 36096, Note_on_c, 2, 70, 64
4, 36106, Note_on_c, 2, 68, 64
4, 36116, Note_on_c, 2, 65, 64
4, 36460, Note_off_c, 2, 73, 64
4, 36462, Note_off_c, 2, 65, 64
4, 36462, Note_off_c, 2, 68, 64
4, 36462, Note_off_c, 2, 70, 64
4, 36480, Note_on_c, 2, 70, 64
4, 36480, Note_on_c, 2, 73, 64
4, 36616, Note_off_c, 2, 73, 64
4, 36616, Note_off_c, 2, 70, 64
4, 36624, Note_on_c, 2, 72, 64
4, 36624, Note_on_c, 2, 68, 64
4, 36760, Note_off_c, 2, 68, 64
4, 36760, Note_off_c, 2, 72, 64
4, 36768, Note_on_c, 2, 70, 64
4, 36768, Note_on_c, 2, 66, 64
4, 36856, Note_off_c, 2, 66, 64
4, 36856, Note_off_c, 2, 70, 64
4, 36864, Note_on_c, 2, 61, 64
4, 36864, Note_on_c, 2, 66, 64
4, 36864, Note_on_c, 2, 70, 64
4, 37624, Note_off_c, 2, 70, 64
4, 37624, Note_off_c, 2, 66, 64
4, 37624, Note_off_c, 2, 61, 64
4, 37632, Note_on_c, 2, 73, 64
4, 37632, Note_on_c, 2, 66, 64
4, 37632, Note_on_c, 2, 70, 64
4, 38008, Note_off_c, 2, 70, 64
4, 38008, Note_off_c, 2, 66, 64
4, 38008, Note_off_c, 2, 73, 64
4, 38016, Note_on_c, 2, 70, 64
4, 38016, Note_on_c, 2, 66, 64
4, 38152, Note_off_c, 2, 66, 64
4, 38152, Note_off_c, 2, 70, 64
4, 38160, Note_on_c, 2, 72, 64
4, 38160, Note_on_c, 2, 68, 64
4, 38296, Note_off_c, 2, 68, 64
4, 38296, Note_off_c, 2, 72, 64
4, 38304, Note_on_c, 2, 70, 64
4, 38304, Note_on_c, 2, 73, 64
4, 38392, Note_off_c, 2, 73, 64
4, 38392, Note_off_c, 2, 70, 64
4, 38400, Note_on_c, 2, 61, 64
4, 38400, Note_on_c, 2, 70, 64
4, 38400, Note_on_c, 2, 66, 64
4, 38680, Note_off_c, 2, 66, 64
4, 38680, Note_off_c, 2, 70, 64
4, 38680, Note_off_c, 2, 61, 64
4, 38688, Note_on_c, 2, 70, 64
4, 38688, Note_on_c, 2, 73, 64
4, 38776, Note_off_c, 2, 73, 64
4, 38776, Note_off_c, 2, 70, 64
4, 38784, Note_on_c, 2, 72, 64
4, 38784, Note_on_c, 2, 68, 64
4, 38872, Note_off_c, 2, 68, 64
4, 38872, Note_off_c, 2, 72, 64
4, 38880, Note_on_c, 2, 70, 64
4, 38880, Note_on_c, 2, 73, 64
4, 39160, Note_off_c, 2, 73, 64
4, 39160, Note_off_c, 2, 70, 64
4, 39168, Note_on_c, 2, 65, 64
4, 39168, Note_on_c, 2, 75, 64
4, 39168, Note_on_c, 2, 72, 64
4, 39168, Note_on_c, 2, 68, 64
4, 39544, Note_off_c, 2, 68, 64
4, 39544, Note_off_c, 2, 72, 64
4, 39544, Note_off_c, 2, 75, 64
4, 39544, Note_off_c, 2, 65, 64
4, 39552, Note_on_c, 2, 72, 64
4, 39552, Note_on_c, 2, 68, 64
4, 39552, Note_on_c, 2, 63, 64
4, 39928, Note_off_c, 2, 63, 64
4, 39928, Note_off_c, 2, 68, 64
4, 39928, Note_off_c, 2, 72, 64
4, 39936, Note_on_c, 2, 75, 64
4, 39936, Note_on_c, 2, 72, 64
4, 40072, Note_off_c, 2, 72, 64
4, 40072, Note_off_c, 2, 75, 64
4, 40080, Note_on_c, 2, 73, 64
4, 40080, Note_on_c, 2, 70, 64
4, 40216, Note_off_c, 2, 70, 64
4, 40216, Note_off_c, 2, 73, 64
4, 40224, Note_on_c, 2, 72, 64
4, 40224, Note_on_c, 2, 68, 64
4, 40696, Note_off_c, 2, 68, 64
4, 40696, Note_off_c, 2, 72, 64
4, 40704, Note_on_c, 2, 68, 64
4, 40704, Note_on_c, 2, 73, 64
4, 40704, Note_on_c, 2, 70, 64
4, 40704, Note_on_c, 2, 77, 64
4, 41320, Note_off_c, 2, 77, 64
4, 41320, Note_off_c, 2, 70, 64
4, 41320, Note_off_c, 2, 73, 64
4, 41320, Note_off_c, 2, 68, 64
4, 41328, Note_on_c, 2, 70, 64
4, 41464, Note_off_c, 2, 70, 64
4, 41472, Note_on_c, 2, 70, 64
4, 41472, Note_on_c, 2, 65, 64
4, 41472, Note_on_c, 2, 68, 64
4, 41472, Note_on_c, 2, 73, 64
4, 42088, Note_off_c, 2, 73, 64
4, 42088, Note_off_c, 2, 68, 64
4, 42088, Note_off_c, 2, 65, 64
4, 42088, Note_off_c, 2, 70, 64
4, 42096, Note_on_c, 2, 70, 64
4, 42184, Note_off_c, 2, 70, 64
4, 42192, Note_on_c, 2, 72, 64
4, 42232, Note_off_c, 2, 72, 64
4, 42240, Note_on_c, 2, 73, 64
4, 42240, Note_on_c, 2, 66, 64
4, 42240, Note_on_c, 2, 70, 64
4, 42424, Note_off_c, 2, 70, 64
4, 42424, Note_off_c, 2, 66, 64
4, 42424, Note_off_c, 2, 73, 64
4, 42432, Note_on_c, 2, 75, 64
4, 42432, Note_on_c, 2, 68, 64
4, 42432, Note_on_c, 2, 72, 64
4, 42616, Note_off_c, 2, 72, 64
4, 42616, Note_off_c, 2, 68, 64
4, 42616, Note_off_c, 2, 75, 64
4, 42624, Note_on_c, 2, 77, 64
4, 42624, Note_on_c, 2, 73, 64
4, 42624, Note_on_c, 2, 70, 64
4, 42904, Note_off_c, 2, 70, 64
4, 42904, Note_off_c, 2, 73, 64
4, 42904, Note_off_c, 2, 77, 64
4, 42912, Note_on_c, 2, 75, 64
4, 42952, Note_off_c, 2, 75, 64
4, 42960, Note_on_c, 2, 73, 64
4, 43000, Note_off_c, 2, 73, 64
4, 43008, Note_on_c, 2, 70, 64
4, 43008, Note_on_c, 2, 75, 64
4, 43008, Note_on_c, 2, 66, 64
4, 43392, Note_on_c, 2, 80, 64
4, 43768, Note_off_c, 2, 80, 64
4, 43768, Note_off_c, 2, 66, 64
4, 43768, Note_off_c, 2, 75, 64
4, 43768, Note_off_c, 2, 70, 64
4, 43776, Note_on_c, 2, 72, 64
4, 43776, Note_on_c, 2, 75, 64
4, 43776, Note_on_c, 2, 68, 64
4, 43864, Note_off_c, 2, 68, 64
4, 43864, Note_off_c, 2, 75, 64
4, 43864, Note_off_c, 2, 72, 64
4, 43872, Note_on_c, 2, 68, 64
4, 43872, Note_on_c, 2, 77, 64
4, 43872, Note_on_c, 2, 73, 64
4, 43912, Note_off_c, 2, 73, 64
4, 43912, Note_off_c, 2, 77, 64
4, 43912, Note_off_c, 2, 68, 64
4, 43968, Note_on_c, 2, 73, 64
4, 43968, Note_on_c, 2, 68, 64
4, 43968, Note_on_c, 2, 77, 64
4, 44008, Note_off_c, 2, 77, 64
4, 44008, Note_off_c, 2, 68, 64
4, 44008, Note_off_c, 2, 73, 64
4, 44064, Note_on_c, 2, 77, 64
4, 44064, Note_on_c, 2, 68, 64
4, 44064, Note_on_c, 2, 73, 64
4, 44344, Note_off_c, 2, 73, 64
4, 44344, Note_off_c, 2, 68, 64
4, 44344, Note_off_c, 2, 77, 64
4, 44352, Note_on_c, 2, 72, 64
4, 44352, Note_on_c, 2, 68, 64
4, 44352, Note_on_c, 2, 75, 64
4, 44392, Note_off_c, 2, 75, 64
4, 44392, Note_off_c, 2, 68, 64
4, 44392, Note_off_c, 2, 72, 64
4, 44448, Note_on_c, 2, 77, 64
4, 44448, Note_on_c, 2, 73, 64
4, 44448, Note_on_c, 2, 68, 64
4, 44920, Note_off_c, 2, 68, 64
4, 44920, Note_off_c, 2, 73, 64
4, 44920, Note_off_c, 2, 77, 64
4, 44928, Note_on_c, 2, 75, 64
4, 44928, Note_on_c, 2, 68, 64
4, 44928, Note_on_c, 2, 72, 64
4, 45112, Note_off_c, 2, 72, 64
4, 45112, Note_off_c, 2, 68, 64
4, 45112, Note_off_c, 2, 75, 64
4, 45120, Note_on_c, 2, 77, 64
4, 45120, Note_on_c, 2, 68, 64
4, 45120, Note_on_c, 2, 73, 64
4, 45304, Note_off_c, 2, 73, 64
4, 45304, Note_off_c, 2, 68, 64
4, 45304, Note_off_c, 2, 77, 64
4, 45312, Note_on_c, 2, 77, 64
4, 45312, Note_on_c, 2, 73, 64
4, 45312, Note_on_c, 2, 68, 64
4, 45400, Note_off_c, 2, 68, 64
4, 45400, Note_off_c, 2, 73, 64
4, 45400, Note_off_c, 2, 77, 64
4, 45408, Note_on_c, 2, 73, 64
4, 45408, Note_on_c, 2, 78, 64
4, 45408, Note_on_c, 2, 70, 64
4, 45448, Note_off_c, 2, 70, 64
4, 45448, Note_off_c, 2, 78, 64
4, 45448, Note_off_c, 2, 73, 64
4, 45504, Note_on_c, 2, 73, 64
4, 45504, Note_on_c, 2, 70, 64
4, 45504, Note_on_c, 2, 78, 64
4, 45544, Note_off_c, 2, 78, 64
4, 45544, Note_off_c, 2, 70, 64
4, 45544, Note_off_c, 2, 73, 64
4, 45600, Note_on_c, 2, 70, 64
4, 45600, Note_on_c, 2, 78, 64
4, 45600, Note_on_c, 2, 73, 64
4, 45880, Note_off_c, 2, 73, 64
4, 45880, Note_off_c, 2, 78, 64
4, 45880, Note_off_c, 2, 70, 64
4, 45888, Note_on_c, 2, 73, 64
4, 45888, Note_on_c, 2, 68, 64
4, 45888, Note_on_c, 2, 77, 64
4, 45928, Note_off_c, 2, 77, 64
4, 45928, Note_off_c, 2, 68, 64
4, 45928, Note_off_c, 2, 73, 64
4, 45984, Note_on_c, 2, 73, 64
4, 45984, Note_on_c, 2, 78, 64
4, 45984, Note_on_c, 2, 70, 64
4, 46456, Note_off_c, 2, 70, 64
4, 46456, Note_off_c, 2, 78, 64
4, 46456, Note_off_c, 2, 73, 64
4, 46464, Note_on_c, 2, 73, 64
4, 46464, Note_on_c, 2, 77, 64
4, 46464, Note_on_c, 2, 68, 64
4, 46648, Note_off_c, 2, 68, 64
4, 46648, Note_off_c, 2, 77, 64
4, 46648, Note_off_c, 2, 73, 64
4, 46656, Note_on_c, 2, 78, 64
4, 46656, Note_on_c, 2, 73, 64
4, 46656, Note_on_c, 2, 70, 64
4, 46840, Note_off_c, 2, 70, 64
4, 46840, Note_off_c, 2, 73, 64
4, 46840, Note_off_c, 2, 78, 64
4, 46848, Note_on_c, 2, 70, 64
4, 46848, Note_on_c, 2, 73, 64
4, 46848, Note_on_c, 2, 78, 64
4, 46936, Note_off_c, 2, 78, 64
4, 46936, Note_off_c, 2, 73, 64
4, 46936, Note_off_c, 2, 70, 64
4, 46944, Note_on_c, 2, 78, 64
4, 46944, Note_on_c, 2, 73, 64
4, 46944, Note_on_c, 2, 70, 64
4, 46984, Note_off_c, 2, 70, 64
4, 46984, Note_off_c, 2, 73, 64
4, 46984, Note_off_c, 2, 78, 64
4, 47040, Note_on_c, 2, 73, 64
4, 47040, Note_on_c, 2, 70, 64
4, 47040, Note_on_c, 2, 78, 64
4, 47080, Note_off_c, 2, 78, 64
4, 47080, Note_off_c, 2, 70, 64
4, 47080, Note_off_c, 2, 73, 64
4, 47136, Note_on_c, 2, 78, 64
4, 47136, Note_on_c, 2, 73, 64
4, 47136, Note_on_c, 2, 70, 64
4, 47608, Note_off_c, 2, 70, 64
4, 47608, Note_off_c, 2, 73, 64
4, 47608, Note_off_c, 2, 78, 64
4, 47616, Note_on_c, 2, 73, 64
4, 47616, Note_on_c, 2, 70, 64
4, 47616, Note_on_c, 2, 78, 64
4, 47704, Note_off_c, 2, 78, 64
4, 47704, Note_off_c, 2, 70, 64
4, 47704, Note_off_c, 2, 73, 64
4, 47712, Note_on_c, 2, 78, 64
4, 47712, Note_on_c, 2, 73, 64
4, 47712, Note_on_c, 2, 70, 64
4, 47752, Note_off_c, 2, 70, 64
4, 47752, Note_off_c, 2, 73, 64
4, 47752, Note_off_c, 2, 78, 64
4, 47808, Note_on_c, 2, 73, 64
4, 47808, Note_on_c, 2, 78, 64
4, 47808, Note_on_c, 2, 70, 64
4, 47848, Note_off_c, 2, 70, 64
4, 47848, Note_off_c, 2, 78, 64
4, 47848, Note_off_c, 2, 73, 64
4, 47904, Note_on_c, 2, 78, 64
4, 47904, Note_on_c, 2, 73, 64
4, 47904, Note_on_c, 2, 70, 64
4, 48376, Note_off_c, 2, 70, 64
4, 48376, Note_off_c, 2, 73, 64
4, 48376, Note_off_c, 2, 78, 64
4, 48384, Note_on_c, 2, 72, 64
4, 48384, Note_on_c, 2, 68, 64
4, 48384, Note_on_c, 2, 75, 64
4, 48472, Note_off_c, 2, 75, 64
4, 48472, Note_off_c, 2, 68, 64
4, 48472, Note_off_c, 2, 72, 64
4, 48480, Note_on_c, 2, 68, 64
4, 48480, Note_on_c, 2, 77, 64
4, 48480, Note_on_c, 2, 73, 64
4, 48520, Note_off_c, 2, 73, 64
4, 48520, Note_off_c, 2, 77, 64
4, 48520, Note_off_c, 2, 68, 64
4, 48576, Note_on_c, 2, 77, 64
4, 48576, Note_on_c, 2, 68, 64
4, 48576, Note_on_c, 2, 73, 64
4, 48616, Note_off_c, 2, 73, 64
4, 48616, Note_off_c, 2, 68, 64
4, 48616, Note_off_c, 2, 77, 64
4, 48672, Note_on_c, 2, 77, 64
4, 48672, Note_on_c, 2, 68, 64
4, 48672, Note_on_c, 2, 73, 64
4, 49144, Note_off_c, 2, 73, 64
4, 49144, Note_off_c, 2, 68, 64
4, 49144, Note_off_c, 2, 77, 64
4, 49152, Note_on_c, 2, 69, 64
4, 49152, Note_on_c, 2, 72, 64
4, 49152, Note_on_c, 2, 75, 64
4, 49240, Note_off_c, 2, 75, 64
4, 49240, Note_off_c, 2, 72, 64
4, 49240, Note_off_c, 2, 69, 64
4, 49248, Note_on_c, 2, 77, 64
4, 49248, Note_on_c, 2, 69, 64
4, 49248, Note_on_c, 2, 73, 64
4, 49288, Note_off_c, 2, 73, 64
4, 49288, Note_off_c, 2, 69, 64
4, 49288, Note_off_c, 2, 77, 64
4, 49344, Note_on_c, 2, 77, 64
4, 49344, Note_on_c, 2, 69, 64
4, 49344, Note_on_c, 2, 73, 64
4, 49384, Note_off_c, 2, 73, 64
4, 49384, Note_off_c, 2, 69, 64
4, 49384, Note_off_c, 2, 77, 64
4, 49440, Note_on_c, 2, 69, 64
4, 49440, Note_on_c, 2, 77, 64
4, 49440, Note_on_c, 2, 73, 64
4, 49912, Note_off_c, 2, 73, 64
4, 49912, Note_off_c, 2, 77, 64
4, 49912, Note_off_c, 2, 69, 64
4, 49920, Note_on_c, 2, 68, 64
4, 49920, Note_on_c, 2, 72, 64
4, 49920, Note_on_c, 2, 75, 64
4, 50008, Note_off_c, 2, 75, 64
4, 50008, Note_off_c, 2, 72, 64
4, 50008, Note_off_c, 2, 68, 64
4, 50016, Note_on_c, 2, 68, 64
4, 50016, Note_on_c, 2, 77, 64
4, 50016, Note_on_c, 2, 73, 64
4, 50056, Note_off_c, 2, 73, 64
4, 50056, Note_off_c, 2, 77, 64
4, 50056, Note_off_c, 2, 68, 64
4, 50112, Note_on_c, 2, 68, 64
4, 50112, Note_on_c, 2, 77, 64
4, 50112, Note_on_c, 2, 73, 64
4, 50152, Note_off_c, 2, 73, 64
4, 50152, Note_off_c, 2, 77, 64
4, 50152, Note_off_c, 2, 68, 64
4, 50208, Note_on_c, 2, 77, 64
4, 50208, Note_on_c, 2, 68, 64
4, 50208, Note_on_c, 2, 73, 64
4, 50488, Note_off_c, 2, 73, 64
4, 50488, Note_off_c, 2, 68, 64
4, 50488, Note_off_c, 2, 77, 64
4, 50496, Note_on_c, 2, 72, 64
4, 50496, Note_on_c, 2, 68, 64
4, 50496, Note_on_c, 2, 75, 64
4, 50536, Note_off_c, 2, 75, 64
4, 50536, Note_off_c, 2, 68, 64
4, 50536, Note_off_c, 2, 72, 64
4, 50592, Note_on_c, 2, 77, 64
4, 50592, Note_on_c, 2, 68, 64
4, 50592, Note_on_c, 2, 73, 64
4, 51064, Note_off_c, 2, 73, 64
4, 51064, Note_off_c, 2, 68, 64
4, 51064, Note_off_c, 2, 77, 64
4, 51072, Note_on_c, 2, 68, 64
4, 51072, Note_on_c, 2, 72, 64
4, 51072, Note_on_c, 2, 75, 64
4, 51256, Note_off_c, 2, 75, 64
4, 51256, Note_off_c, 2, 72, 64
4, 51256, Note_off_c, 2, 68, 64
4, 51264, Note_on_c, 2, 77, 64
4, 51264, Note_on_c, 2, 68, 64
4, 51264, Note_on_c, 2, 73, 64
4, 51448, Note_off_c, 2, 73, 64
4, 51448, Note_off_c, 2, 68, 64
4, 51448, Note_off_c, 2, 77, 64
4, 51456, Note_on_c, 2, 77, 64
4, 51456, Note_on_c, 2, 73, 64
4, 51456, Note_on_c, 2, 68, 64
4, 51544, Note_off_c, 2, 68, 64
4, 51544, Note_off_c, 2, 73, 64
4, 51544, Note_off_c, 2, 77, 64
4, 51552, Note_on_c, 2, 73, 64
4, 51552, Note_on_c, 2, 70, 64
4, 51552, Note_on_c, 2, 78, 64
4, 51592, Note_off_c, 2, 78, 64
4, 51592, Note_off_c, 2, 70, 64
4, 51592, Note_off_c, 2, 73, 64
4, 51648, Note_on_c, 2, 73, 64
4, 51648, Note_on_c, 2, 78, 64
4, 51648, Note_on_c, 2, 70, 64
4, 51688, Note_off_c, 2, 70, 64
4, 51688, Note_off_c, 2, 78, 64
4, 51688, Note_off_c, 2, 73, 64
4, 51744, Note_on_c, 2, 78, 64
4, 51744, Note_on_c, 2, 70, 64
4, 51744, Note_on_c, 2, 73, 64
4, 52024, Note_off_c, 2, 73, 64
4, 52024, Note_off_c, 2, 70, 64
4, 52024, Note_off_c, 2, 78, 64
4, 52032, Note_on_c, 2, 73, 64
4, 52032, Note_on_c, 2, 68, 64
4, 52032, Note_on_c, 2, 77, 64
4, 52072, Note_off_c, 2, 77, 64
4, 52072, Note_off_c, 2, 68, 64
4, 52072, Note_off_c, 2, 73, 64
4, 52128, Note_on_c, 2, 73, 64
4, 52128, Note_on_c, 2, 78, 64
4, 52128, Note_on_c, 2, 70, 64
4, 52600, Note_off_c, 2, 70, 64
4, 52600, Note_off_c, 2, 78, 64
4, 52600, Note_off_c, 2, 73, 64
4, 52608, Note_on_c, 2, 68, 64
4, 52608, Note_on_c, 2, 73, 64
4, 52608, Note_on_c, 2, 77, 64
4, 52792, Note_off_c, 2, 77, 64
4, 52792, Note_off_c, 2, 73, 64
4, 52792, Note_off_c, 2, 68, 64
4, 52800, Note_on_c, 2, 73, 64
4, 52800, Note_on_c, 2, 78, 64
4, 52800, Note_on_c, 2, 70, 64
4, 52984, Note_off_c, 2, 70, 64
4, 52984, Note_off_c, 2, 78, 64
4, 52984, Note_off_c, 2, 73, 64
4, 52992, Note_on_c, 2, 73, 64
4, 52992, Note_on_c, 2, 78, 64
4, 52992, Note_on_c, 2, 70, 64
4, 53080, Note_off_c, 2, 70, 64
4, 53080, Note_off_c, 2, 78, 64
4, 53080, Note_off_c, 2, 73, 64
4, 53088, Note_on_c, 2, 70, 64
4, 53088, Note_on_c, 2, 73, 64
4, 53088, Note_on_c, 2, 78, 64
4, 53128, Note_off_c, 2, 78, 64
4, 53128, Note_off_c, 2, 73, 64
4, 53128, Note_off_c, 2, 70, 64
4, 53184, Note_on_c, 2, 78, 64
4, 53184, Note_on_c, 2, 73, 64
4, 53184, Note_on_c, 2, 70, 64
4, 53224, Note_off_c, 2, 70, 64
4, 53224, Note_off_c, 2, 73, 64
4, 53224, Note_off_c, 2, 78, 64
4, 53280, Note_on_c, 2, 73, 64
4, 53280, Note_on_c, 2, 70, 64
4, 53280, Note_on_c, 2, 78, 64
4, 53752, Note_off_c, 2, 78, 64
4, 53752, Note_off_c, 2, 70, 64
4, 53752, Note_off_c, 2, 73, 64
4, 53760, Note_on_c, 2, 70, 64
4, 53760, Note_on_c, 2, 78, 64
4, 53760, Note_on_c, 2, 73, 64
4, 53848, Note_off_c, 2, 73, 64
4, 53848, Note_off_c, 2, 78, 64
4, 53848, Note_off_c, 2, 70, 64
4, 53856, Note_on_c, 2, 78, 64
4, 53856, Note_on_c, 2, 73, 64
4, 53856, Note_on_c, 2, 70, 64
4, 53896, Note_off_c, 2, 70, 64
4, 53896, Note_off_c, 2, 73, 64
4, 53896, Note_off_c, 2, 78, 64
4, 53952, Note_on_c, 2, 78, 64
4, 53952, Note_on_c, 2, 73, 64
4, 53952, Note_on_c, 2, 70, 64
4, 53992, Note_off_c, 2, 70, 64
4, 53992, Note_off_c, 2, 73, 64
4, 53992, Note_off_c, 2, 78, 64
4, 54048, Note_on_c, 2, 78, 64
4, 54048, Note_on_c, 2, 73, 64
4, 54048, Note_on_c, 2, 70, 64
4, 54520, Note_off_c, 2, 70, 64
4, 54520, Note_off_c, 2, 73, 64
4, 54520, Note_off_c, 2, 78, 64
4, 54528, Note_on_c, 2, 68, 64
4, 54528, Note_on_c, 2, 72, 64
4, 54528, Note_on_c, 2, 75, 64
4, 54616, Note_off_c, 2, 75, 64
4, 54616, Note_off_c, 2, 72, 64
4, 54616, Note_off_c, 2, 68, 64
4, 54624, Note_on_c, 2, 68, 64
4, 54624, Note_on_c, 2, 73, 64
4, 54624, Note_on_c, 2, 77, 64
4, 54664, Note_off_c, 2, 77, 64
4, 54664, Note_off_c, 2, 73, 64
4, 54664, Note_off_c, 2, 68, 64
4, 54720, Note_on_c, 2, 68, 64
4, 54720, Note_on_c, 2, 77, 64
4, 54720, Note_on_c, 2, 73, 64
4, 54760, Note_off_c, 2, 73, 64
4, 54760, Note_off_c, 2, 77, 64
4, 54760, Note_off_c, 2, 68, 64
4, 54816, Note_on_c, 2, 73, 64
4, 54816, Note_on_c, 2, 77, 64
4, 54816, Note_on_c, 2, 68, 64
4, 55288, Note_off_c, 2, 68, 64
4, 55288, Note_off_c, 2, 77, 64
4, 55288, Note_off_c, 2, 73, 64
4, 55296, Note_on_c, 2, 72, 64
4, 55296, Note_on_c, 2, 69, 64
4, 55296, Note_on_c, 2, 75, 64
4, 55384, Note_off_c, 2, 75, 64
4, 55384, Note_off_c, 2, 69, 64
4, 55384, Note_off_c, 2, 72, 64
4, 55392, Note_on_c, 2, 77, 64
4, 55392, Note_on_c, 2, 69, 64
4, 55392, Note_on_c, 2, 73, 64
4, 55432, Note_off_c, 2, 73, 64
4, 55432, Note_off_c, 2, 69, 64
4, 55432, Note_off_c, 2, 77, 64
4, 55488, Note_on_c, 2, 77, 64
4, 55488, Note_on_c, 2, 69, 64
4, 55488, Note_on_c, 2, 73, 64
4, 55528, Note_off_c, 2, 73, 64
4, 55528, Note_off_c, 2, 69, 64
4, 55528, Note_off_c, 2, 77, 64
4, 55584, Note_on_c, 2, 77, 64
4, 55584, Note_on_c, 2, 73, 64
4, 55584, Note_on_c, 2, 69, 64
4, 56056, Note_off_c, 2, 69, 64
4, 56056, Note_off_c, 2, 73, 64
4, 56056, Note_off_c, 2, 77, 64
4, 56064, Note_on_c, 2, 73, 64
4, 56152, Note_off_c, 2, 73, 64
4, 56160, Note_on_c, 2, 65, 64
4, 56248, Note_off_c, 2, 65, 64
4, 56256, Note_on_c, 2, 72, 64
4, 56344, Note_off_c, 2, 72, 64
4, 56352, Note_on_c, 2, 65, 64
4, 56440, Note_off_c, 2, 65, 64
4, 56448, Note_on_c, 2, 73, 64
4, 56536, Note_off_c, 2, 73, 64
4, 56544, Note_on_c, 2, 65, 64
4, 56632, Note_off_c, 2, 65, 64
4, 56640, Note_on_c, 2, 72, 64
4, 56728, Note_off_c, 2, 72, 64
4, 56736, Note_on_c, 2, 65, 64
4, 56824, Note_off_c, 2, 65, 64
4, 56832, Note_on_c, 2, 73, 64
4, 56920, Note_off_c, 2, 73, 64
4, 56928, Note_on_c, 2, 65, 64
4, 57016, Note_off_c, 2, 65, 64
4, 57024, Note_on_c, 2, 72, 64
4, 57112, Note_off_c, 2, 72, 64
4, 57120, Note_on_c, 2, 65, 64
4, 57208, Note_off_c, 2, 65, 64
4, 57216, Note_on_c, 2, 73, 64
4, 57304, Note_off_c, 2, 73, 64
4, 57312, Note_on_c, 2, 72, 64
4, 57400, Note_off_c, 2, 72, 64
4, 57408, Note_on_c, 2, 70, 64
4, 57496, Note_off_c, 2, 70, 64
4, 57504, Note_on_c, 2, 68, 64
4, 57592, Note_off_c, 2, 68, 64
4, 57600, Note_on_c, 2, 70, 64
4, 57688, Note_off_c, 2, 70, 64
4, 57696, Note_on_c, 2, 61, 64
4, 57784, Note_off_c, 2, 61, 64
4, 57792, Note_on_c, 2, 68, 64
4, 57880, Note_off_c, 2, 68, 64
4, 57888, Note_on_c, 2, 61, 64
4, 57976, Note_off_c, 2, 61, 64
4, 57984, Note_on_c, 2, 70, 64
4, 58072, Note_off_c, 2, 70, 64
4, 58080, Note_on_c, 2, 61, 64
4, 58168, Note_off_c, 2, 61, 64
4, 58176, Note_on_c, 2, 68, 64
4, 58264, Note_off_c, 2, 68, 64
4, 58272, Note_on_c, 2, 61, 64
4, 58360, Note_off_c, 2, 61, 64
4, 58368, Note_on_c, 2, 70, 64
4, 58456, Note_off_c, 2, 70, 64
4, 58464, Note_on_c, 2, 61, 64
4, 58552, Note_off_c, 2, 61, 64
4, 58560, Note_on_c, 2, 68, 64
4, 58648, Note_off_c, 2, 68, 64
4, 58656, Note_on_c, 2, 61, 64
4, 58744, Note_off_c, 2, 61, 64
4, 58752, Note_on_c, 2, 70, 64
4, 58840, Note_off_c, 2, 70, 64
4, 58848, Note_on_c, 2, 68, 64
4, 58936, Note_off_c, 2, 68, 64
4, 58944, Note_on_c, 2, 66, 64
4, 59032, Note_off_c, 2, 66, 64
4, 59040, Note_on_c, 2, 65, 64
4, 59128, Note_off_c, 2, 65, 64
4, 59136, Note_on_c, 2, 66, 64
4, 59224, Note_off_c, 2, 66, 64
4, 59232, Note_on_c, 2, 58, 64
4, 59320, Note_off_c, 2, 58, 64
4, 59328, Note_on_c, 2, 65, 64
4, 59416, Note_off_c, 2, 65, 64
4, 59424, Note_on_c, 2, 58, 64
4, 59512, Note_off_c, 2, 58, 64
4, 59520, Note_on_c, 2, 66, 64
4, 59608, Note_off_c, 2, 66, 64
4, 59616, Note_on_c, 2, 58, 64
4, 59704, Note_off_c, 2, 58, 64
4, 59712, Note_on_c, 2, 65, 64
4, 59800, Note_off_c, 2, 65, 64
4, 59808, Note_on_c, 2, 58, 64
4, 59896, Note_off_c, 2, 58, 64
4, 59904, Note_on_c, 2, 66, 64
4, 59992, Note_off_c, 2, 66, 64
4, 60000, Note_on_c, 2, 58, 64
4, 60088, Note_off_c, 2, 58, 64
4, 60096, Note_on_c, 2, 65, 64
4, 60184, Note_off_c, 2, 65, 64
4, 60192, Note_on_c, 2, 58, 64
4, 60280, Note_off_c, 2, 58, 64
4, 60288, Note_on_c, 2, 66, 64
4, 60376, Note_off_c, 2, 66, 64
4, 60384, Note_on_c, 2, 65, 64
4, 60472, Note_off_c, 2, 65, 64
4, 60480, Note_on_c, 2, 63, 64
4, 60568, Note_off_c, 2, 63, 64
4, 60576, Note_on_c, 2, 61, 64
4, 60664, Note_off_c, 2, 61, 64
4, 60672, Note_on_c, 2, 54, 64
4, 60672, Note_on_c, 2, 58, 64
4, 60672, Note_on_c, 2, 61, 64
4, 61048, Note_off_c, 2, 61, 64
4, 61048, Note_off_c, 2, 58, 64
4, 61048, Note_off_c, 2, 54, 64
4, 61056, Note_on_c, 2, 61, 64
4, 61056, Note_on_c, 2, 58, 64
4, 61056, Note_on_c, 2, 66, 64
4, 61192, Note_off_c, 2, 66, 64
4, 61200, Note_on_c, 2, 70, 64
4, 61336, Note_off_c, 2, 70, 64
4, 61344, Note_on_c, 2, 73, 64
4, 61432, Note_off_c, 2, 73, 64
4, 61432, Note_off_c, 2, 58, 64
4, 61432, Note_off_c, 2, 61, 64
4, 61440, Note_on_c, 2, 80, 64
4, 61440, Note_on_c, 2, 73, 64
4, 61440, Note_on_c, 2, 70, 64
4, 61440, Note_on_c, 2, 66, 64
4, 61824, Note_on_c, 2, 92, 64
4, 62200, Note_off_c, 2, 92, 64
4, 62200, Note_off_c, 2, 66, 64
4, 62200, Note_off_c, 2, 70, 64
4, 62200, Note_off_c, 2, 73, 64
4, 62200, Note_off_c, 2, 80, 64
4, 62208, Note_on_c, 2, 72, 64
4, 62208, Note_on_c, 2, 75, 64
4, 62208, Note_on_c, 2, 68, 64
4, 62296, Note_off_c, 2, 68, 64
4, 62296, Note_off_c, 2, 75, 64
4, 62296, Note_off_c, 2, 72, 64
4, 62304, Note_on_c, 2, 68, 64
4, 62304, Note_on_c, 2, 77, 64
4, 62304, Note_on_c, 2, 73, 64
4, 62344, Note_off_c, 2, 73, 64
4, 62344, Note_off_c, 2, 77, 64
4, 62344, Note_off_c, 2, 68, 64
4, 62400, Note_on_c, 2, 73, 64
4, 62400, Note_on_c, 2, 68, 64
4, 62400, Note_on_c, 2, 77, 64
4, 62440, Note_off_c, 2, 77, 64
4, 62440, Note_off_c, 2, 68, 64
4, 62440, Note_off_c, 2, 73, 64
4, 62496, Note_on_c, 2, 77, 64
4, 62496, Note_on_c, 2, 68, 64
4, 62496, Note_on_c, 2, 73, 64
4, 62776, Note_off_c, 2, 73, 64
4, 62776, Note_off_c, 2, 68, 64
4, 62776, Note_off_c, 2, 77, 64
4, 62784, Note_on_c, 2, 72, 64
4, 62784, Note_on_c, 2, 68, 64
4, 62784, Note_on_c, 2, 75, 64
4, 62824, Note_off_c, 2, 75, 64
4, 62824, Note_off_c, 2, 68, 64
4, 62824, Note_off_c, 2, 72, 64
4, 62880, Note_on_c, 2, 77, 64
4, 62880, Note_on_c, 2, 73, 64
4, 62880, Note_on_c, 2, 68, 64
4, 63352, Note_off_c, 2, 68, 64
4, 63352, Note_off_c, 2, 73, 64
4, 63352, Note_off_c, 2, 77, 64
4, 63360, Note_on_c, 2, 75, 64
4, 63360, Note_on_c, 2, 68, 64
4, 63360, Note_on_c, 2, 72, 64
4, 63544, Note_off_c, 2, 72, 64
4, 63544, Note_off_c, 2, 68, 64
4, 63544, Note_off_c, 2, 75, 64
4, 63552, Note_on_c, 2, 77, 64
4, 63552, Note_on_c, 2, 68, 64
4, 63552, Note_on_c, 2, 73, 64
4, 63736, Note_off_c, 2, 73, 64
4, 63736, Note_off_c, 2, 68, 64
4, 63736, Note_off_c, 2, 77, 64
4, 63744, Note_on_c, 2, 77, 64
4, 63744, Note_on_c, 2, 73, 64
4, 63744, Note_on_c, 2, 68, 64
4, 63832, Note_off_c, 2, 68, 64
4, 63832, Note_off_c, 2, 73, 64
4, 63832, Note_off_c, 2, 77, 64
4, 63840, Note_on_c, 2, 73, 64
4, 63840, Note_on_c, 2, 78, 64
4, 63840, Note_on_c, 2, 70, 64
4, 63880, Note_off_c, 2, 70, 64
4, 63880, Note_off_c, 2, 78, 64
4, 63880, Note_off_c, 2, 73, 64
4, 63936, Note_on_c, 2, 73, 64
4, 63936, Note_on_c, 2, 70, 64
4, 63936, Note_on_c, 2, 78, 64
4, 63976, Note_off_c, 2, 78, 64
4, 63976, Note_off_c, 2, 70, 64
4, 63976, Note_off_c, 2, 73, 64
4, 64032, Note_on_c, 2, 70, 64
4, 64032, Note_on_c, 2, 78, 64
4, 64032, Note_on_c, 2, 73, 64
4, 64312, Note_off_c, 2, 73, 64
4, 64312, Note_off_c, 2, 78, 64
4, 64312, Note_off_c, 2, 70, 64
4, 64320, Note_on_c, 2, 73, 64
4, 64320, Note_on_c, 2, 68, 64
4, 64320, Note_on_c, 2, 77, 64
4, 64360, Note_off_c, 2, 77, 64
4, 64360, Note_off_c, 2, 68, 64
4, 64360, Note_off_c, 2, 73, 64
4, 64416, Note_on_c, 2, 73, 64
4, 64416, Note_on_c, 2, 78, 64
4, 64416, Note_on_c, 2, 70, 64
4, 64888, Note_off_c, 2, 70, 64
4, 64888, Note_off_c, 2, 78, 64
4, 64888, Note_off_c, 2, 73, 64
4, 64896, Note_on_c, 2, 73, 64
4, 64896, Note_on_c, 2, 77, 64
4, 64896, Note_on_c, 2, 68, 64
4, 65080, Note_off_c, 2, 68, 64
4, 65080, Note_off_c, 2, 77, 64
4, 65080, Note_off_c, 2, 73, 64
4, 65088, Note_on_c, 2, 78, 64
4, 65088, Note_on_c, 2, 73, 64
4, 65088, Note_on_c, 2, 70, 64
4, 65272, Note_off_c, 2, 70, 64
4, 65272, Note_off_c, 2, 73, 64
4, 65272, Note_off_c, 2, 78, 64
4, 65280, Note_on_c, 2, 70, 64
4, 65280, Note_on_c, 2, 73, 64
4, 65280, Note_on_c, 2, 78, 64
4, 65368, Note_off_c, 2, 78, 64
4, 65368, Note_off_c, 2, 73, 64
4, 65368, Note_off_c, 2, 70, 64
4, 65376, Note_on_c, 2, 78, 64
4, 65376, Note_on_c, 2, 73, 64
4, 65376, Note_on_c, 2, 70, 64
4, 65416, Note_off_c, 2, 70, 64
4, 65416, Note_off_c, 2, 73, 64
4, 65416, Note_off_c, 2, 78, 64
4, 65472, Note_on_c, 2, 73, 64
4, 65472, Note_on_c, 2, 70, 64
4, 65472, Note_on_c, 2, 78, 64
4, 65512, Note_off_c, 2, 78, 64
4, 65512, Note_off_c, 2, 70, 64
4, 65512, Note_off_c, 2, 73, 64
4, 65568, Note_on_c, 2, 78, 64
4, 65568, Note_on_c, 2, 73, 64
4, 65568, Note_on_c, 2, 70, 64
4, 66040, Note_off_c, 2, 70, 64
4, 66040, Note_off_c, 2, 73, 64
4, 66040, Note_off_c, 2, 78, 64
4, 66048, Note_on_c, 2, 73, 64
4, 66048, Note_on_c, 2, 70, 64
4, 66048, Note_on_c, 2, 78, 64
4, 66136, Note_off_c, 2, 78, 64
4, 66136, Note_off_c, 2, 70, 64
4, 66136, Note_off_c, 2, 73, 64
4, 66144, Note_on_c, 2, 78, 64
4, 66144, Note_on_c, 2, 73, 64
4, 66144, Note_on_c, 2, 70, 64
4, 66184, Note_off_c, 2, 70, 64
4, 66184, Note_off_c, 2, 73, 64
4, 66184, Note_off_c, 2, 78, 64
4, 66240, Note_on_c, 2, 73, 64
4, 66240, Note_on_c, 2, 78, 64
4, 66240, Note_on_c, 2, 70, 64
4, 66280, Note_off_c, 2, 70, 64
4, 66280, Note_off_c, 2, 78, 64
4, 66280, Note_off_c, 2, 73, 64
4, 66336, Note_on_c, 2, 78, 64
4, 66336, Note_on_c, 2, 73, 64
4, 66336, Note_on_c, 2, 70, 64
4, 66808, Note_off_c, 2, 70, 64
4, 66808, Note_off_c, 2, 73, 64
4, 66808, Note_off_c, 2, 78, 64
4, 66816, Note_on_c, 2, 72, 64
4, 66816, Note_on_c, 2, 68, 64
4, 66816, Note_on_c, 2, 75, 64
4, 66904, Note_off_c, 2, 75, 64
4, 66904, Note_off_c, 2, 68, 64
4, 66904, Note_off_c, 2, 72, 64
4, 66912, Note_on_c, 2, 68, 64
4, 66912, Note_on_c, 2, 77, 64
4, 66912, Note_on_c, 2, 73, 64
4, 66952, Note_off_c, 2, 73, 64
4, 66952, Note_off_c, 2, 77, 64
4, 66952, Note_off_c, 2, 68, 64
4, 67008, Note_on_c, 2, 77, 64
4, 67008, Note_on_c, 2, 68, 64
4, 67008, Note_on_c, 2, 73, 64
4, 67048, Note_off_c, 2, 73, 64
4, 67048, Note_off_c, 2, 68, 64
4, 67048, Note_off_c, 2, 77, 64
4, 67104, Note_on_c, 2, 77, 64
4, 67104, Note_on_c, 2, 68, 64
4, 67104, Note_on_c, 2, 73, 64
4, 67576, Note_off_c, 2, 73, 64
4, 67576, Note_off_c, 2, 68, 64
4, 67576, Note_off_c, 2, 77, 64
4, 67584, Note_on_c, 2, 69, 64
4, 67584, Note_on_c, 2, 72, 64
4, 67584, Note_on_c, 2, 75, 64
4, 67672, Note_off_c, 2, 75, 64
4, 67672, Note_off_c, 2, 72, 64
4, 67672, Note_off_c, 2, 69, 64
4, 67680, Note_on_c, 2, 77, 64
4, 67680, Note_on_c, 2, 69, 64
4, 67680, Note_on_c, 2, 73, 64
4, 67720, Note_off_c, 2, 73, 64
4, 67720, Note_off_c, 2, 69, 64
4, 67720, Note_off_c, 2, 77, 64
4, 67776, Note_on_c, 2, 77, 64
4, 67776, Note_on_c, 2, 69, 64
4, 67776, Note_on_c, 2, 73, 64
4, 67816, Note_off_c, 2, 73, 64
4, 67816, Note_off_c, 2, 69, 64
4, 67816, Note_off_c, 2, 77, 64
4, 67872, Note_on_c, 2, 69, 64
4, 67872, Note_on_c, 2, 77, 64
4, 67872, Note_on_c, 2, 73, 64
4, 68344, Note_off_c, 2, 73, 64
4, 68344, Note_off_c, 2, 77, 64
4, 68344, Note_off_c, 2, 69, 64
4, 68352, Note_on_c, 2, 68, 64
4, 68352, Note_on_c, 2, 72, 64
4, 68352, Note_on_c, 2, 75, 64
4, 68440, Note_off_c, 2, 75, 64
4, 68440, Note_off_c, 2, 72, 64
4, 68440, Note_off_c, 2, 68, 64
4, 68448, Note_on_c, 2, 68, 64
4, 68448, Note_on_c, 2, 77, 64
4, 68448, Note_on_c, 2, 73, 64
4, 68488, Note_off_c, 2, 73, 64
4, 68488, Note_off_c, 2, 77, 64
4, 68488, Note_off_c, 2, 68, 64
4, 68544, Note_on_c, 2, 68, 64
4, 68544, Note_on_c, 2, 77, 64
4, 68544, Note_on_c, 2, 73, 64
4, 68584, Note_off_c, 2, 73, 64
4, 68584, Note_off_c, 2, 77, 64
4, 68584, Note_off_c, 2, 68, 64
4, 68640, Note_on_c, 2, 77, 64
4, 68640, Note_on_c, 2, 68, 64
4, 68640, Note_on_c, 2, 73, 64
4, 68920, Note_off_c, 2, 73, 64
4, 68920, Note_off_c, 2, 68, 64
4, 68920, Note_off_c, 2, 77, 64
4, 68928, Note_on_c, 2, 72, 64
4, 68928, Note_on_c, 2, 68, 64
4, 68928, Note_on_c, 2, 75, 64
4, 68968, Note_off_c, 2, 75, 64
4, 68968, Note_off_c, 2, 68, 64
4, 68968, Note_off_c, 2, 72, 64
4, 69024, Note_on_c, 2, 77, 64
4, 69024, Note_on_c, 2, 68, 64
4, 69024, Note_on_c, 2, 73, 64
4, 69496, Note_off_c, 2, 73, 64
4, 69496, Note_off_c, 2, 68, 64
4, 69496, Note_off_c, 2, 77, 64
4, 69504, Note_on_c, 2, 68, 64
4, 69504, Note_on_c, 2, 72, 64
4, 69504, Note_on_c, 2, 75, 64
4, 69688, Note_off_c, 2, 75, 64
4, 69688, Note_off_c, 2, 72, 64
4, 69688, Note_off_c, 2, 68, 64
4, 69696, Note_on_c, 2, 77, 64
4, 69696, Note_on_c, 2, 68, 64
4, 69696, Note_on_c, 2, 73, 64
4, 69880, Note_off_c, 2, 73, 64
4, 69880, Note_off_c, 2, 68, 64
4, 69880, Note_off_c, 2, 77, 64
4, 69888, Note_on_c, 2, 77, 64
4, 69888, Note_on_c, 2, 73, 64
4, 69888, Note_on_c, 2, 68, 64
4, 69976, Note_off_c, 2, 68, 64
4, 69976, Note_off_c, 2, 73, 64
4, 69976, Note_off_c, 2, 77, 64
4, 69984, Note_on_c, 2, 73, 64
4, 69984, Note_on_c, 2, 70, 64
4, 69984, Note_on_c, 2, 78, 64
4, 70024, Note_off_c, 2, 78, 64
4, 70024, Note_off_c, 2, 70, 64
4, 70024, Note_off_c, 2, 73, 64
4, 70080, Note_on_c, 2, 73, 64
4, 70080, Note_on_c, 2, 78, 64
4, 70080, Note_on_c, 2, 70, 64
4, 70120, Note_off_c, 2, 70, 64
4, 70120, Note_off_c, 2, 78, 64
4, 70120, Note_off_c, 2, 73, 64
4, 70176, Note_on_c, 2, 78, 64
4, 70176, Note_on_c, 2, 70, 64
4, 70176, Note_on_c, 2, 73, 64
4, 70456, Note_off_c, 2, 73, 64
4, 70456, Note_off_c, 2, 70, 64
4, 70456, Note_off_c, 2, 78, 64
4, 70464, Note_on_c, 2, 73, 64
4, 70464, Note_on_c, 2, 68, 64
4, 70464, Note_on_c, 2, 77, 64
4, 70504, Note_off_c, 2, 77, 64
4, 70504, Note_off_c, 2, 68, 64
4, 70504, Note_off_c, 2, 73, 64
4, 70560, Note_on_c, 2, 73, 64
4, 70560, Note_on_c, 2, 78, 64
4, 70560, Note_on_c, 2, 70, 64
4, 71032, Note_off_c, 2, 70, 64
4, 71032, Note_off_c, 2, 78, 64
4, 71032, Note_off_c, 2, 73, 64
4, 71040, Note_on_c, 2, 68, 64
4, 71040, Note_on_c, 2, 73, 64
4, 71040, Note_on_c, 2, 77, 64
4, 71224, Note_off_c, 2, 77, 64
4, 71224, Note_off_c, 2, 73, 64
4, 71224, Note_off_c, 2, 68, 64
4, 71232, Note_on_c, 2, 73, 64
4, 71232, Note_on_c, 2, 78, 64
4, 71232, Note_on_c, 2, 70, 64
4, 71416, Note_off_c, 2, 70, 64
4, 71416, Note_off_c, 2, 78, 64
4, 71416, Note_off_c, 2, 73, 64
4, 71424, Note_on_c, 2, 73, 64
4, 71424, Note_on_c, 2, 78, 64
4, 71424, Note_on_c, 2, 70, 64
4, 71512, Note_off_c, 2, 70, 64
4, 71512, Note_off_c, 2, 78, 64
4, 71512, Note_off_c, 2, 73, 64
4, 71520, Note_on_c, 2, 70, 64
4, 71520, Note_on_c, 2, 73, 64
4, 71520, Note_on_c, 2, 78, 64
4, 71560, Note_off_c, 2, 78, 64
4, 71560, Note_off_c, 2, 73, 64
4, 71560, Note_off_c, 2, 70, 64
4, 71616, Note_on_c, 2, 78, 64
4, 71616, Note_on_c, 2, 73, 64
4, 71616, Note_on_c, 2, 70, 64
4, 71656, Note_off_c, 2, 70, 64
4, 71656, Note_off_c, 2, 73, 64
4, 71656, Note_off_c, 2, 78, 64
4, 71712, Note_on_c, 2, 73, 64
4, 71712, Note_on_c, 2, 70, 64
4, 71712, Note_on_c, 2, 78, 64
4, 72184, Note_off_c, 2, 78, 64
4, 72184, Note_off_c, 2, 70, 64
4, 72184, Note_off_c, 2, 73, 64
4, 72192, Note_on_c, 2, 70, 64
4, 72192, Note_on_c, 2, 78, 64
4, 72192, Note_on_c, 2, 73, 64
4, 72280, Note_off_c, 2, 73, 64
4, 72280, Note_off_c, 2, 78, 64
4, 72280, Note_off_c, 2, 70, 64
4, 72288, Note_on_c, 2, 78, 64
4, 72288, Note_on_c, 2, 73, 64
4, 72288, Note_on_c, 2, 70, 64
4, 72328, Note_off_c, 2, 70, 64
4, 72328, Note_off_c, 2, 73, 64
4, 72328, Note_off_c, 2, 78, 64
4, 72384, Note_on_c, 2, 78, 64
4, 72384, Note_on_c, 2, 73, 64
4, 72384, Note_on_c, 2, 70, 64
4, 72424, Note_off_c, 2, 70, 64
4, 72424, Note_off_c, 2, 73, 64
4, 72424, Note_off_c, 2, 78, 64
4, 72480, Note_on_c, 2, 78, 64
4, 72480, Note_on_c, 2, 73, 64
4, 72480, Note_on_c, 2, 70, 64
4, 72952, Note_off_c, 2, 70, 64
4, 72952, Note_off_c, 2, 73, 64
4, 72952, Note_off_c, 2, 78, 64
4, 72960, Note_on_c, 2, 68, 64
4, 72960, Note_on_c, 2, 72, 64
4, 72960, Note_on_c, 2, 75, 64
4, 73048, Note_off_c, 2, 75, 64
4, 73048, Note_off_c, 2, 72, 64
4, 73048, Note_off_c, 2, 68, 64
4, 73056, Note_on_c, 2, 68, 64
4, 73056, Note_on_c, 2, 73, 64
4, 73056, Note_on_c, 2, 77, 64
4, 73096, Note_off_c, 2, 77, 64
4, 73096, Note_off_c, 2, 73, 64
4, 73096, Note_off_c, 2, 68, 64
4, 73152, Note_on_c, 2, 68, 64
4, 73152, Note_on_c, 2, 77, 64
4, 73152, Note_on_c, 2, 73, 64
4, 73192, Note_off_c, 2, 73, 64
4, 73192, Note_off_c, 2, 77, 64
4, 73192, Note_off_c, 2, 68, 64
4, 73248, Note_on_c, 2, 73, 64
4, 73248, Note_on_c, 2, 77, 64
4, 73248, Note_on_c, 2, 68, 64
4, 73720, Note_off_c, 2, 68, 64
4, 73720, Note_off_c, 2, 77, 64
4, 73720, Note_off_c, 2, 73, 64
4, 73728, Note_on_c, 2, 72, 64
4, 73728, Note_on_c, 2, 69, 64
4, 73728, Note_on_c, 2, 75, 64
4, 73816, Note_off_c, 2, 75, 64
4, 73816, Note_off_c, 2, 69, 64
4, 73816, Note_off_c, 2, 72, 64
4, 73824, Note_on_c, 2, 77, 64
4, 73824, Note_on_c, 2, 69, 64
4, 73824, Note_on_c, 2, 73, 64
4, 73864, Note_off_c, 2, 73, 64
4, 73864, Note_off_c, 2, 69, 64
4, 73864, Note_off_c, 2, 77, 64
4, 73920, Note_on_c, 2, 77, 64
4, 73920, Note_on_c, 2, 69, 64
4, 73920, Note_on_c, 2, 73, 64
4, 73960, Note_off_c, 2, 73, 64
4, 73960, Note_off_c, 2, 69, 64
4, 73960, Note_off_c, 2, 77, 64
4, 74016, Note_on_c, 2, 77, 64
4, 74016, Note_on_c, 2, 73, 64
4, 74016, Note_on_c, 2, 69, 64
4, 74488, Note_off_c, 2, 69, 64
4, 74488, Note_off_c, 2, 73, 64
4, 74488, Note_off_c, 2, 77, 64
4, 74496, Note_on_c, 2, 73, 64
4, 74592, Note_off_c, 2, 73, 64
4, 74592, Note_on_c, 2, 65, 64
4, 74688, Note_off_c, 2, 65, 64
4, 74688, Note_on_c, 2, 72, 64
4, 74784, Note_off_c, 2, 72, 64
4, 74784, Note_on_c, 2, 65, 64
4, 74880, Note_off_c, 2, 65, 64
4, 74880, Note_on_c, 2, 73, 64
4, 74976, Note_off_c, 2, 73, 64
4, 74976, Note_on_c, 2, 65, 64
4, 75072, Note_off_c, 2, 65, 64
4, 75072, Note_on_c, 2, 72, 64
4, 75168, Note_off_c, 2, 72, 64
4, 75168, Note_on_c, 2, 65, 64
4, 75264, Note_off_c, 2, 65, 64
4, 75264, Note_on_c, 2, 73, 64
4, 75360, Note_off_c, 2, 73, 64
4, 75360, Note_on_c, 2, 65, 64
4, 75456, Note_off_c, 2, 65, 64
4, 75456, Note_on_c, 2, 72, 64
4, 75552, Note_off_c, 2, 72, 64
4, 75552, Note_on_c, 2, 65, 64
4, 75648, Note_off_c, 2, 65, 64
4, 75648, Note_on_c, 2, 73, 64
4, 75744, Note_off_c, 2, 73, 64
4, 75744, Note_on_c, 2, 72, 64
4, 75840, Note_off_c, 2, 72, 64
4, 75840, Note_on_c, 2, 70, 64
4, 75936, Note_off_c, 2, 70, 64
4, 75936, Note_on_c, 2, 68, 64
4, 76032, Note_off_c, 2, 68, 64
4, 76032, Note_on_c, 2, 70, 64
4, 76128, Note_off_c, 2, 70, 64
4, 76128, Note_on_c, 2, 61, 64
4, 76224, Note_off_c, 2, 61, 64
4, 76224, Note_on_c, 2, 68, 64
4, 76320, Note_off_c, 2, 68, 64
4, 76320, Note_on_c, 2, 61, 64
4, 76416, Note_off_c, 2, 61, 64
4, 76416, Note_on_c, 2, 70, 64
4, 76512, Note_off_c, 2, 70, 64
4, 76512, Note_on_c, 2, 61, 64
4, 76608, Note_off_c, 2, 61, 64
4, 76608, Note_on_c, 2, 68, 64
4, 76704, Note_off_c, 2, 68, 64
4, 76704, Note_on_c, 2, 61, 64
4, 76800, Note_off_c, 2, 61, 64
4, 76800, Note_on_c, 2, 70, 64
4, 76896, Note_off_c, 2, 70, 64
4, 76896, Note_on_c, 2, 61, 64
4, 76992, Note_off_c, 2, 61, 64
4, 76992, Note_on_c, 2, 68, 64
4, 77088, Note_off_c, 2, 68, 64
4, 77088, Note_on_c, 2, 61, 64
4, 77184, Note_off_c, 2, 61, 64
4, 77184, Note_on_c, 2, 70, 64
4, 77280, Note_off_c, 2, 70, 64
4, 77280, Note_on_c, 2, 68, 64
4, 77376, Note_off_c, 2, 68, 64
4, 77376, Note_on_c, 2, 66, 64
4, 77472, Note_off_c, 2, 66, 64
4, 77472, Note_on_c, 2, 65, 64
4, 77568, Note_off_c, 2, 65, 64
4, 77568, Note_on_c, 2, 66, 64
4, 77664, Note_off_c, 2, 66, 64
4, 77664, Note_on_c, 2, 58, 64
4, 77760, Note_off_c, 2, 58, 64
4, 77760, Note_on_c, 2, 65, 64
4, 77856, Note_off_c, 2, 65, 64
4, 77856, Note_on_c, 2, 58, 64
4, 77952, Note_off_c, 2, 58, 64
4, 77952, Note_on_c, 2, 66, 64
4, 78048, Note_off_c, 2, 66, 64
4, 78048, Note_on_c, 2, 58, 64
4, 78144, Note_off_c, 2, 58, 64
4, 78144, Note_on_c, 2, 65, 64
4, 78240, Note_off_c, 2, 65, 64
4, 78240, Note_on_c, 2, 58, 64
4, 78336, Note_off_c, 2, 58, 64
4, 78336, Note_on_c, 2, 66, 64
4, 78432, Note_off_c, 2, 66, 64
4, 78432, Note_on_c, 2, 58, 64
4, 78528, Note_off_c, 2, 58, 64
4, 78528, Note_on_c, 2, 65, 64
4, 78624, Note_off_c, 2, 65, 64
4, 78624, Note_on_c, 2, 58, 64
4, 78720, Note_off_c, 2, 58, 64
4, 78720, Note_on_c, 2, 66, 64
4, 78816, Note_off_c, 2, 66, 64
4, 78816, Note_on_c, 2, 65, 64
4, 78912, Note_off_c, 2, 65, 64
4, 78912, Note_on_c, 2, 63, 64
4, 79008, Note_off_c, 2, 63, 64
4, 79008, Note_on_c, 2, 61, 64
4, 79104, Note_off_c, 2, 61, 64
4, 79104, Note_on_c, 2, 58, 64
4, 79104, Note_on_c, 2, 61, 64
4, 79104, Note_on_c, 2, 54, 64
4, 79488, Note_off_c, 2, 54, 64
4, 79488, Note_off_c, 2, 61, 64
4, 79488, Note_off_c, 2, 58, 64
4, 79488, Note_on_c, 2, 58, 64
4, 79488, Note_on_c, 2, 61, 64
4, 79488, Note_on_c, 2, 66, 64
4, 79632, Note_off_c, 2, 66, 64
4, 79632, Note_on_c, 2, 70, 64
4, 79776, Note_off_c, 2, 70, 64
4, 79776, Note_on_c, 2, 73, 64
4, 79872, Note_off_c, 2, 73, 64
4, 79872, Note_off_c, 2, 61, 64
4, 79872, Note_off_c, 2, 58, 64
4, 79872, Note_on_c, 2, 66, 64
4, 79872, Note_on_c, 2, 73, 64
4, 79872, Note_on_c, 2, 80, 64
4, 79872, Note_on_c, 2, 70, 64
4, 80640, Note_off_c, 2, 70, 64
4, 80640, Note_off_c, 2, 80, 64
4, 80640, Note_off_c, 2, 73, 64
4, 80640, Note_off_c, 2, 66, 64
4, 80640, Note_on_c, 2, 68, 64
4, 80640, Note_on_c, 2, 77, 64
4, 80640, Note_on_c, 2, 72, 64
4, 81784, Note_off_c, 2, 72, 64
4, 81784, Note_off_c, 2, 77, 64
4, 81784, Note_off_c, 2, 68, 64
4, 81784, End_track
5, 0, Start_track
5, 0, Text_t, "Strings."
5, 0, Control_c, 3, 121, 0
5, 128, Program_c, 3, 50
5, 148, Control_c, 3, 7, 90
5, 168, Control_c, 3, 10, 64
5, 768, Note_on_c, 3, 58, 35
5, 768, Note_on_c, 3, 46, 35
5, 768, Note_on_c, 3, 73, 35
5, 856, Note_off_c, 3, 73, 35
5, 864, Note_on_c, 3, 65, 35
5, 952, Note_off_c, 3, 65, 35
5, 960, Note_on_c, 3, 72, 35
5, 1048, Note_off_c, 3, 72, 35
5, 1056, Note_on_c, 3, 65, 35
5, 1144, Note_off_c, 3, 65, 35
5, 1152, Note_on_c, 3, 73, 35
5, 1240, Note_off_c, 3, 73, 35
5, 1248, Note_on_c, 3, 65, 35
5, 1336, Note_off_c, 3, 65, 35
5, 1344, Note_on_c, 3, 72, 35
5, 1432, Note_off_c, 3, 72, 35
5, 1440, Note_on_c, 3, 65, 35
5, 1528, Note_off_c, 3, 65, 35
5, 1536, Note_on_c, 3, 73, 35
5, 1624, Note_off_c, 3, 73, 35
5, 1632, Note_on_c, 3, 65, 35
5, 1720, Note_off_c, 3, 65, 35
5, 1728, Note_on_c, 3, 72, 35
5, 1816, Note_off_c, 3, 72, 35
5, 1824, Note_on_c, 3, 65, 35
5, 1912, Note_off_c, 3, 65, 35
5, 1920, Note_on_c, 3, 73, 35
5, 2008, Note_off_c, 3, 73, 35
5, 2016, Note_on_c, 3, 72, 35
5, 2104, Note_off_c, 3, 72, 35
5, 2112, Note_on_c, 3, 70, 35
5, 2200, Note_off_c, 3, 70, 35
5, 2208, Note_on_c, 3, 68, 35
5, 2296, Note_off_c, 3, 68, 35
5, 2296, Note_off_c, 3, 46, 35
5, 2296, Note_off_c, 3, 58, 35
5, 2304, Note_on_c, 3, 54, 35
5, 2304, Note_on_c, 3, 42, 35
5, 2304, Note_on_c, 3, 70, 35
5, 2392, Note_off_c, 3, 70, 35
5, 2400, Note_on_c, 3, 61, 35
5, 2488, Note_off_c, 3, 61, 35
5, 2496, Note_on_c, 3, 68, 35
5, 2584, Note_off_c, 3, 68, 35
5, 2592, Note_on_c, 3, 61, 35
5, 2680, Note_off_c, 3, 61, 35
5, 2688, Note_on_c, 3, 70, 35
5, 2776, Note_off_c, 3, 70, 35
5, 2784, Note_on_c, 3, 61, 35
5, 2872, Note_off_c, 3, 61, 35
5, 2880, Note_on_c, 3, 68, 35
5, 2968, Note_off_c, 3, 68, 35
5, 2976, Note_on_c, 3, 61, 35
5, 3064, Note_off_c, 3, 61, 35
5, 3072, Note_on_c, 3, 70, 35
5, 3160, Note_off_c, 3, 70, 35
5, 3168, Note_on_c, 3, 61, 35
5, 3256, Note_off_c, 3, 61, 35
5, 3264, Note_on_c, 3, 68, 35
5, 3352, Note_off_c, 3, 68, 35
5, 3360, Note_on_c, 3, 61, 35
5, 3448, Note_off_c, 3, 61, 35
5, 3456, Note_on_c, 3, 70, 35
5, 3544, Note_off_c, 3, 70, 35
5, 3552, Note_on_c, 3, 68, 35
5, 3640, Note_off_c, 3, 68, 35
5, 3640, Note_off_c, 3, 42, 35
5, 3640, Note_off_c, 3, 54, 35
5, 3648, Note_on_c, 3, 53, 35
5, 3648, Note_on_c, 3, 41, 35
5, 3648, Note_on_c, 3, 66, 35
5, 3736, Note_off_c, 3, 66, 35
5, 3744, Note_on_c, 3, 65, 35
5, 3832, Note_off_c, 3, 65, 35
5, 3832, Note_off_c, 3, 41, 35
5, 3832, Note_off_c, 3, 53, 35
5, 3840, Note_on_c, 3, 51, 35
5, 3840, Note_on_c, 3, 39, 35
5, 3840, Note_on_c, 3, 66, 35
5, 3928, Note_off_c, 3, 66, 35
5, 3936, Note_on_c, 3, 58, 35
5, 4024, Note_off_c, 3, 58, 35
5, 4032, Note_on_c, 3, 65, 35
5, 4120, Note_off_c, 3, 65, 35
5, 4128, Note_on_c, 3, 58, 35
5, 4216, Note_off_c, 3, 58, 35
5, 4224, Note_on_c, 3, 66, 35
5, 4312, Note_off_c, 3, 66, 35
5, 4320, Note_on_c, 3, 58, 35
5, 4408, Note_off_c, 3, 58, 35
5, 4416, Note_on_c, 3, 65, 35
5, 4504, Note_off_c, 3, 65, 35
5, 4512, Note_on_c, 3, 58, 35
5, 4600, Note_off_c, 3, 58, 35
5, 4608, Note_on_c, 3, 66, 35
5, 4696, Note_off_c, 3, 66, 35
5, 4704, Note_on_c, 3, 58, 35
5, 4792, Note_off_c, 3, 58, 35
5, 4800, Note_on_c, 3, 65, 35
5, 4888, Note_off_c, 3, 65, 35
5, 4896, Note_on_c, 3, 58, 35
5, 4984, Note_off_c, 3, 58, 35
5, 4992, Note_on_c, 3, 66, 35
5, 5080, Note_off_c, 3, 66, 35
5, 5088, Note_on_c, 3, 65, 35
5, 5176, Note_off_c, 3, 65, 35
5, 5184, Note_on_c, 3, 63, 35
5, 5272, Note_off_c, 3, 63, 35
5, 5280, Note_on_c, 3, 61, 35
5, 5368, Note_off_c, 3, 61, 35
5, 5368, Note_off_c, 3, 39, 35
5, 5368, Note_off_c, 3, 51, 35
5, 5376, Note_off_c, 3, 54, 35
5, 5376, Note_on_c, 3, 54, 35
5, 5376, Note_on_c, 3, 42, 35
5, 5376, Note_on_c, 3, 61, 35
5, 5376, Note_on_c, 3, 58, 35
5, 5376, Note_on_c, 3, 54, 35
5, 6136, Note_off_c, 3, 54, 35
5, 6136, Note_off_c, 3, 58, 35
5, 6136, Note_off_c, 3, 61, 35
5, 6136, Note_off_c, 3, 42, 35
5, 6144, Note_off_c, 3, 56, 35
5, 6144, Note_on_c, 3, 56, 35
5, 6144, Note_on_c, 3, 44, 35
5, 6144, Note_on_c, 3, 56, 35
5, 6144, Note_on_c, 3, 60, 35
5, 6144, Note_on_c, 3, 63, 35
5, 6904, Note_off_c, 3, 63, 35
5, 6904, Note_off_c, 3, 60, 35
5, 6904, Note_off_c, 3, 56, 35
5, 6904, Note_off_c, 3, 44, 35
5, 6912, Note_on_c, 3, 53, 35
5, 6912, Note_on_c, 3, 58, 35
5, 6912, Note_on_c, 3, 61, 35
5, 8440, Note_off_c, 3, 61, 35
5, 8440, Note_off_c, 3, 58, 35
5, 8440, Note_off_c, 3, 53, 35
5, 8448, Note_on_c, 3, 61, 35
5, 8448, Note_on_c, 3, 58, 35
5, 8448, Note_on_c, 3, 54, 35
5, 9976, Note_off_c, 3, 54, 35
5, 9976, Note_off_c, 3, 58, 35
5, 9976, Note_off_c, 3, 61, 35
5, 9984, Note_on_c, 3, 63, 35
5, 9984, Note_on_c, 3, 65, 35
5, 9984, Note_on_c, 3, 68, 35
5, 11512, Note_off_c, 3, 68, 35
5, 11512, Note_off_c, 3, 65, 35
5, 11512, Note_off_c, 3, 63, 35
5, 11520, Note_on_c, 3, 61, 35
5, 11520, Note_on_c, 3, 70, 35
5, 11520, Note_on_c, 3, 66, 35
5, 13048, Note_off_c, 3, 66, 35
5, 13048, Note_off_c, 3, 70, 35
5, 13048, Note_off_c, 3, 61, 35
5, 13056, Note_on_c, 3, 63, 35
5, 13056, Note_on_c, 3, 66, 35
5, 13056, Note_on_c, 3, 61, 35
5, 13056, Note_on_c, 3, 70, 35
5, 14584, Note_off_c, 3, 70, 35
5, 14584, Note_off_c, 3, 61, 35
5, 14584, Note_off_c, 3, 66, 35
5, 14584, Note_off_c, 3, 63, 35
5, 14592, Note_on_c, 3, 72, 35
5, 14592, Note_on_c, 3, 68, 35
5, 14592, Note_on_c, 3, 63, 35
5, 14592, Note_on_c, 3, 65, 35
5, 16120, Note_off_c, 3, 65, 35
5, 16120, Note_off_c, 3, 63, 35
5, 16120, Note_off_c, 3, 68, 35
5, 16120, Note_off_c, 3, 72, 35
5, 16128, Note_on_c, 3, 61, 35
5, 16128, Note_on_c, 3, 70, 35
5, 16128, Note_on_c, 3, 65, 35
5, 17656, Note_off_c, 3, 65, 35
5, 17656, Note_off_c, 3, 70, 35
5, 17664, Note_on_c, 3, 63, 35
5, 17664, Note_on_c, 3, 66, 35
5, 18432, Note_on_c, 3, 75, 35
5, 19192, Note_off_c, 3, 75, 35
5, 19192, Note_off_c, 3, 66, 35
5, 19192, Note_off_c, 3, 63, 35
5, 19192, Note_off_c, 3, 61, 35
5, 19200, Note_on_c, 3, 65, 35
5, 19200, Note_on_c, 3, 61, 35
5, 19200, Note_on_c, 3, 68, 35
5, 20344, Note_off_c, 3, 61, 35
5, 20344, Note_off_c, 3, 65, 35
5, 20352, Note_on_c, 3, 60, 35
5, 20352, Note_on_c, 3, 63, 35
5, 20536, Note_off_c, 3, 63, 35
5, 20536, Note_off_c, 3, 60, 35
5, 20544, Note_on_c, 3, 61, 35
5, 20544, Note_on_c, 3, 65, 35
5, 20728, Note_off_c, 3, 65, 35
5, 20728, Note_off_c, 3, 61, 35
5, 20728, Note_off_c, 3, 68, 35
5, 20736, Note_on_c, 3, 63, 35
5, 20736, Note_on_c, 3, 66, 35
5, 20736, Note_on_c, 3, 70, 35
5, 21880, Note_off_c, 3, 66, 35
5, 21880, Note_off_c, 3, 63, 35
5, 21888, Note_on_c, 3, 65, 35
5, 21888, Note_on_c, 3, 61, 35
5, 22072, Note_off_c, 3, 61, 35
5, 22072, Note_off_c, 3, 65, 35
5, 22080, Note_on_c, 3, 63, 35
5, 22080, Note_on_c, 3, 66, 35
5, 23800, Note_off_c, 3, 66, 35
5, 23800, Note_off_c, 3, 63, 35
5, 23800, Note_off_c, 3, 70, 35
5, 23808, Note_on_c, 3, 61, 35
5, 23808, Note_on_c, 3, 65, 35
5, 23808, Note_on_c, 3, 68, 35
5, 24568, Note_off_c, 3, 68, 35
5, 24568, Note_off_c, 3, 61, 35
5, 24576, Note_on_c, 3, 60, 35
5, 24576, Note_on_c, 3, 69, 35
5, 24664, Note_off_c, 3, 60, 35
5, 24672, Note_on_c, 3, 61, 35
5, 24760, Note_off_c, 3, 61, 35
5, 24768, Note_on_c, 3, 61, 35
5, 24856, Note_off_c, 3, 61, 35
5, 24864, Note_on_c, 3, 61, 35
5, 25336, Note_off_c, 3, 61, 35
5, 25336, Note_off_c, 3, 69, 35
5, 25336, Note_off_c, 3, 65, 35
5, 25344, Note_on_c, 3, 61, 35
5, 25344, Note_on_c, 3, 65, 35
5, 25344, Note_on_c, 3, 68, 35
5, 26488, Note_off_c, 3, 65, 35
5, 26488, Note_off_c, 3, 61, 35
5, 26496, Note_on_c, 3, 63, 35
5, 26496, Note_on_c, 3, 60, 35
5, 26680, Note_off_c, 3, 60, 35
5, 26680, Note_off_c, 3, 63, 35
5, 26688, Note_on_c, 3, 65, 35
5, 26688, Note_on_c, 3, 61, 35
5, 26872, Note_off_c, 3, 61, 35
5, 26872, Note_off_c, 3, 65, 35
5, 26872, Note_off_c, 3, 68, 35
5, 26880, Note_on_c, 3, 63, 35
5, 26880, Note_on_c, 3, 66, 35
5, 26880, Note_on_c, 3, 70, 35
5, 28024, Note_off_c, 3, 66, 35
5, 28024, Note_off_c, 3, 63, 35
5, 28032, Note_on_c, 3, 61, 35
5, 28032, Note_on_c, 3, 65, 35
5, 28216, Note_off_c, 3, 65, 35
5, 28216, Note_off_c, 3, 61, 35
5, 28224, Note_on_c, 3, 66, 35
5, 28224, Note_on_c, 3, 63, 35
5, 29944, Note_off_c, 3, 63, 35
5, 29944, Note_off_c, 3, 66, 35
5, 29944, Note_off_c, 3, 70, 35
5, 29952, Note_on_c, 3, 61, 35
5, 29952, Note_on_c, 3, 65, 35
5, 29952, Note_on_c, 3, 68, 35
5, 30712, Note_off_c, 3, 68, 35
5, 30712, Note_off_c, 3, 61, 35
5, 30720, Note_on_c, 3, 69, 35
5, 30720, Note_on_c, 3, 60, 35
5, 30808, Note_off_c, 3, 60, 35
5, 30816, Note_on_c, 3, 61, 35
5, 30904, Note_off_c, 3, 61, 35
5, 30912, Note_on_c, 3, 61, 35
5, 31000, Note_off_c, 3, 61, 35
5, 31008, Note_on_c, 3, 61, 35
5, 31480, Note_off_c, 3, 61, 35
5, 31480, Note_off_c, 3, 69, 35
5, 31480, Note_off_c, 3, 65, 35
5, 31488, Note_on_c, 3, 58, 35
5, 31488, Note_on_c, 3, 53, 35
5, 31488, Note_on_c, 3, 61, 35
5, 33016, Note_off_c, 3, 53, 35
5, 33024, Note_on_c, 3, 54, 35
5, 34552, Note_off_c, 3, 54, 35
5, 34552, Note_off_c, 3, 58, 35
5, 34560, Note_on_c, 3, 56, 35
5, 34560, Note_on_c, 3, 65, 35
5, 36088, Note_off_c, 3, 65, 35
5, 36088, Note_off_c, 3, 56, 35
5, 36088, Note_off_c, 3, 61, 35
5, 36096, Note_on_c, 3, 61, 35
5, 36096, Note_on_c, 3, 65, 35
5, 36096, Note_on_c, 3, 70, 35
5, 36856, Note_off_c, 3, 65, 35
5, 36864, Note_on_c, 3, 66, 35
5, 37632, Note_on_c, 3, 63, 35
5, 39160, Note_off_c, 3, 63, 35
5, 39160, Note_off_c, 3, 66, 35
5, 39160, Note_off_c, 3, 70, 35
5, 39160, Note_off_c, 3, 61, 35
5, 39168, Note_on_c, 3, 68, 35
5, 39168, Note_on_c, 3, 65, 35
5, 39168, Note_on_c, 3, 63, 35
5, 39168, Note_on_c, 3, 72, 35
5, 40696, Note_off_c, 3, 72, 35
5, 40696, Note_off_c, 3, 63, 35
5, 40696, Note_off_c, 3, 65, 35
5, 40696, Note_off_c, 3, 68, 35
5, 40704, Note_on_c, 3, 73, 35
5, 40704, Note_on_c, 3, 65, 35
5, 40704, Note_on_c, 3, 70, 35
5, 42232, Note_off_c, 3, 65, 35
5, 42240, Note_on_c, 3, 75, 35
5, 42240, Note_on_c, 3, 66, 35
5, 43768, Note_off_c, 3, 66, 35
5, 43768, Note_off_c, 3, 75, 35
5, 43768, Note_off_c, 3, 70, 35
5, 43768, Note_off_c, 3, 73, 35
5, 43776, Note_on_c, 3, 65, 35
5, 43776, Note_on_c, 3, 61, 35
5, 43776, Note_on_c, 3, 68, 35
5, 44920, Note_off_c, 3, 61, 35
5, 44920, Note_off_c, 3, 65, 35
5, 44928, Note_on_c, 3, 60, 35
5, 44928, Note_on_c, 3, 63, 35
5, 45112, Note_off_c, 3, 63, 35
5, 45112, Note_off_c, 3, 60, 35
5, 45120, Note_on_c, 3, 61, 35
5, 45120, Note_on_c, 3, 65, 35
5, 45304, Note_off_c, 3, 65, 35
5, 45304, Note_off_c, 3, 61, 35
5, 45304, Note_off_c, 3, 68, 35
5, 45312, Note_on_c, 3, 63, 35
5, 45312, Note_on_c, 3, 66, 35
5, 45312, Note_on_c, 3, 70, 35
5, 46456, Note_off_c, 3, 66, 35
5, 46456, Note_off_c, 3, 63, 35
5, 46464, Note_on_c, 3, 65, 35
5, 46464, Note_on_c, 3, 61, 35
5, 46648, Note_off_c, 3, 61, 35
5, 46648, Note_off_c, 3, 65, 35
5, 46656, Note_on_c, 3, 63, 35
5, 46656, Note_on_c, 3, 66, 35
5, 48376, Note_off_c, 3, 66, 35
5, 48376, Note_off_c, 3, 63, 35
5, 48376, Note_off_c, 3, 70, 35
5, 48384, Note_on_c, 3, 61, 35
5, 48384, Note_on_c, 3, 65, 35
5, 48384, Note_on_c, 3, 68, 35
5, 49144, Note_off_c, 3, 68, 35
5, 49144, Note_off_c, 3, 61, 35
5, 49152, Note_on_c, 3, 60, 35
5, 49152, Note_on_c, 3, 69, 35
5, 49240, Note_off_c, 3, 60, 35
5, 49248, Note_on_c, 3, 61, 35
5, 49336, Note_off_c, 3, 61, 35
5, 49344, Note_on_c, 3, 61, 35
5, 49432, Note_off_c, 3, 61, 35
5, 49440, Note_on_c, 3, 61, 35
5, 49912, Note_off_c, 3, 61, 35
5, 49912, Note_off_c, 3, 69, 35
5, 49912, Note_off_c, 3, 65, 35
5, 49920, Note_on_c, 3, 61, 35
5, 49920, Note_on_c, 3, 65, 35
5, 49920, Note_on_c, 3, 68, 35
5, 51064, Note_off_c, 3, 65, 35
5, 51064, Note_off_c, 3, 61, 35
5, 51072, Note_on_c, 3, 63, 35
5, 51072, Note_on_c, 3, 60, 35
5, 51256, Note_off_c, 3, 60, 35
5, 51256, Note_off_c, 3, 63, 35
5, 51264, Note_on_c, 3, 65, 35
5, 51264, Note_on_c, 3, 61, 35
5, 51448, Note_off_c, 3, 61, 35
5, 51448, Note_off_c, 3, 65, 35
5, 51448, Note_off_c, 3, 68, 35
5, 51456, Note_on_c, 3, 63, 35
5, 51456, Note_on_c, 3, 66, 35
5, 51456, Note_on_c, 3, 70, 35
5, 52600, Note_off_c, 3, 66, 35
5, 52600, Note_off_c, 3, 63, 35
5, 52608, Note_on_c, 3, 61, 35
5, 52608, Note_on_c, 3, 65, 35
5, 52792, Note_off_c, 3, 65, 35
5, 52792, Note_off_c, 3, 61, 35
5, 52800, Note_on_c, 3, 66, 35
5, 52800, Note_on_c, 3, 63, 35
5, 54520, Note_off_c, 3, 63, 35
5, 54520, Note_off_c, 3, 66, 35
5, 54520, Note_off_c, 3, 70, 35
5, 54528, Note_on_c, 3, 61, 35
5, 54528, Note_on_c, 3, 65, 35
5, 54528, Note_on_c, 3, 68, 35
5, 55288, Note_off_c, 3, 68, 35
5, 55288, Note_off_c, 3, 61, 35
5, 55296, Note_on_c, 3, 69, 35
5, 55296, Note_on_c, 3, 60, 35
5, 55384, Note_off_c, 3, 60, 35
5, 55392, Note_on_c, 3, 61, 35
5, 55480, Note_off_c, 3, 61, 35
5, 55488, Note_on_c, 3, 61, 35
5, 55576, Note_off_c, 3, 61, 35
5, 55584, Note_on_c, 3, 61, 35
5, 56056, Note_off_c, 3, 61, 35
5, 56056, Note_off_c, 3, 69, 35
5, 56056, Note_off_c, 3, 65, 35
5, 56064, Note_on_c, 3, 58, 35
5, 56064, Note_on_c, 3, 73, 35
5, 56152, Note_off_c, 3, 73, 35
5, 56160, Note_on_c, 3, 65, 35
5, 56248, Note_off_c, 3, 65, 35
5, 56256, Note_on_c, 3, 72, 35
5, 56344, Note_off_c, 3, 72, 35
5, 56352, Note_on_c, 3, 65, 35
5, 56440, Note_off_c, 3, 65, 35
5, 56448, Note_on_c, 3, 73, 35
5, 56536, Note_off_c, 3, 73, 35
5, 56544, Note_on_c, 3, 65, 35
5, 56632, Note_off_c, 3, 65, 35
5, 56640, Note_on_c, 3, 72, 35
5, 56728, Note_off_c, 3, 72, 35
5, 56736, Note_on_c, 3, 65, 35
5, 56824, Note_off_c, 3, 65, 35
5, 56832, Note_on_c, 3, 73, 35
5, 56920, Note_off_c, 3, 73, 35
5, 56928, Note_on_c, 3, 65, 35
5, 57016, Note_off_c, 3, 65, 35
5, 57024, Note_on_c, 3, 72, 35
5, 57112, Note_off_c, 3, 72, 35
5, 57120, Note_on_c, 3, 65, 35
5, 57208, Note_off_c, 3, 65, 35
5, 57216, Note_on_c, 3, 73, 35
5, 57304, Note_off_c, 3, 73, 35
5, 57312, Note_on_c, 3, 72, 35
5, 57400, Note_off_c, 3, 72, 35
5, 57408, Note_on_c, 3, 70, 35
5, 57496, Note_off_c, 3, 70, 35
5, 57504, Note_on_c, 3, 68, 35
5, 57592, Note_off_c, 3, 68, 35
5, 57592, Note_off_c, 3, 58, 35
5, 57600, Note_on_c, 3, 54, 35
5, 57600, Note_on_c, 3, 70, 35
5, 57688, Note_off_c, 3, 70, 35
5, 57696, Note_on_c, 3, 61, 35
5, 57784, Note_off_c, 3, 61, 35
5, 57792, Note_on_c, 3, 68, 35
5, 57880, Note_off_c, 3, 68, 35
5, 57888, Note_on_c, 3, 61, 35
5, 57976, Note_off_c, 3, 61, 35
5, 57984, Note_on_c, 3, 70, 35
5, 58072, Note_off_c, 3, 70, 35
5, 58080, Note_on_c, 3, 61, 35
5, 58168, Note_off_c, 3, 61, 35
5, 58176, Note_on_c, 3, 68, 35
5, 58264, Note_off_c, 3, 68, 35
5, 58272, Note_on_c, 3, 61, 35
5, 58360, Note_off_c, 3, 61, 35
5, 58368, Note_on_c, 3, 70, 35
5, 58456, Note_off_c, 3, 70, 35
5, 58464, Note_on_c, 3, 61, 35
5, 58552, Note_off_c, 3, 61, 35
5, 58560, Note_on_c, 3, 68, 35
5, 58648, Note_off_c, 3, 68, 35
5, 58656, Note_on_c, 3, 61, 35
5, 58744, Note_off_c, 3, 61, 35
5, 58752, Note_on_c, 3, 70, 35
5, 58840, Note_off_c, 3, 70, 35
5, 58848, Note_on_c, 3, 68, 35
5, 58936, Note_off_c, 3, 68, 35
5, 58936, Note_off_c, 3, 54, 35
5, 58944, Note_on_c, 3, 53, 35
5, 58944, Note_on_c, 3, 66, 35
5, 59032, Note_off_c, 3, 66, 35
5, 59040, Note_on_c, 3, 65, 35
5, 59128, Note_off_c, 3, 65, 35
5, 59128, Note_off_c, 3, 53, 35
5, 59136, Note_on_c, 3, 51, 35
5, 59136, Note_on_c, 3, 66, 35
5, 59224, Note_off_c, 3, 66, 35
5, 59232, Note_on_c, 3, 58, 35
5, 59320, Note_off_c, 3, 58, 35
5, 59328, Note_on_c, 3, 65, 35
5, 59416, Note_off_c, 3, 65, 35
5, 59424, Note_on_c, 3, 58, 35
5, 59512, Note_off_c, 3, 58, 35
5, 59520, Note_on_c, 3, 66, 35
5, 59608, Note_off_c, 3, 66, 35
5, 59616, Note_on_c, 3, 58, 35
5, 59704, Note_off_c, 3, 58, 35
5, 59712, Note_on_c, 3, 65, 35
5, 59800, Note_off_c, 3, 65, 35
5, 59808, Note_on_c, 3, 58, 35
5, 59896, Note_off_c, 3, 58, 35
5, 59904, Note_on_c, 3, 66, 35
5, 59992, Note_off_c, 3, 66, 35
5, 60000, Note_on_c, 3, 58, 35
5, 60088, Note_off_c, 3, 58, 35
5, 60096, Note_on_c, 3, 65, 35
5, 60184, Note_off_c, 3, 65, 35
5, 60192, Note_on_c, 3, 58, 35
5, 60280, Note_off_c, 3, 58, 35
5, 60288, Note_on_c, 3, 66, 35
5, 60376, Note_off_c, 3, 66, 35
5, 60384, Note_on_c, 3, 65, 35
5, 60472, Note_off_c, 3, 65, 35
5, 60480, Note_on_c, 3, 63, 35
5, 60568, Note_off_c, 3, 63, 35
5, 60576, Note_on_c, 3, 61, 35
5, 60664, Note_off_c, 3, 61, 35
5, 60664, Note_off_c, 3, 51, 35
5, 60672, Note_on_c, 3, 54, 35
5, 60672, Note_on_c, 3, 58, 35
5, 60672, Note_on_c, 3, 61, 35
5, 61440, Note_on_c, 3, 63, 35
5, 61824, Note_on_c, 3, 68, 35
5, 62200, Note_off_c, 3, 68, 35
5, 62200, Note_off_c, 3, 63, 35
5, 62200, Note_off_c, 3, 61, 35
5, 62200, Note_off_c, 3, 58, 35
5, 62200, Note_off_c, 3, 54, 35
5, 62208, Note_on_c, 3, 65, 35
5, 62208, Note_on_c, 3, 61, 35
5, 62208, Note_on_c, 3, 68, 35
5, 63352, Note_off_c, 3, 61, 35
5, 63352, Note_off_c, 3, 65, 35
5, 63360, Note_on_c, 3, 60, 35
5, 63360, Note_on_c, 3, 63, 35
5, 63544, Note_off_c, 3, 63, 35
5, 63544, Note_off_c, 3, 60, 35
5, 63552, Note_on_c, 3, 61, 35
5, 63552, Note_on_c, 3, 65, 35
5, 63736, Note_off_c, 3, 65, 35
5, 63736, Note_off_c, 3, 61, 35
5, 63736, Note_off_c, 3, 68, 35
5, 63744, Note_on_c, 3, 63, 35
5, 63744, Note_on_c, 3, 66, 35
5, 63744, Note_on_c, 3, 70, 35
5, 64888, Note_off_c, 3, 66, 35
5, 64888, Note_off_c, 3, 63, 35
5, 64896, Note_on_c, 3, 65, 35
5, 64896, Note_on_c, 3, 61, 35
5, 65080, Note_off_c, 3, 61, 35
5, 65080, Note_off_c, 3, 65, 35
5, 65088, Note_on_c, 3, 63, 35
5, 65088, Note_on_c, 3, 66, 35
5, 66808, Note_off_c, 3, 66, 35
5, 66808, Note_off_c, 3, 63, 35
5, 66808, Note_off_c, 3, 70, 35
5, 66816, Note_on_c, 3, 61, 35
5, 66816, Note_on_c, 3, 65, 35
5, 66816, Note_on_c, 3, 68, 35
5, 67576, Note_off_c, 3, 68, 35
5, 67576, Note_off_c, 3, 61, 35
5, 67584, Note_on_c, 3, 60, 35
5, 67584, Note_on_c, 3, 69, 35
5, 67672, Note_off_c, 3, 60, 35
5, 67680, Note_on_c, 3, 61, 35
5, 67768, Note_off_c, 3, 61, 35
5, 67776, Note_on_c, 3, 61, 35
5, 67864, Note_off_c, 3, 61, 35
5, 67872, Note_on_c, 3, 61, 35
5, 68344, Note_off_c, 3, 61, 35
5, 68344, Note_off_c, 3, 69, 35
5, 68344, Note_off_c, 3, 65, 35
5, 68352, Note_on_c, 3, 61, 35
5, 68352, Note_on_c, 3, 65, 35
5, 68352, Note_on_c, 3, 68, 35
5, 69496, Note_off_c, 3, 65, 35
5, 69496, Note_off_c, 3, 61, 35
5, 69504, Note_on_c, 3, 63, 35
5, 69504, Note_on_c, 3, 60, 35
5, 69688, Note_off_c, 3, 60, 35
5, 69688, Note_off_c, 3, 63, 35
5, 69696, Note_on_c, 3, 65, 35
5, 69696, Note_on_c, 3, 61, 35
5, 69880, Note_off_c, 3, 61, 35
5, 69880, Note_off_c, 3, 65, 35
5, 69880, Note_off_c, 3, 68, 35
5, 69888, Note_on_c, 3, 63, 35
5, 69888, Note_on_c, 3, 66, 35
5, 69888, Note_on_c, 3, 70, 35
5, 71032, Note_off_c, 3, 66, 35
5, 71032, Note_off_c, 3, 63, 35
5, 71040, Note_on_c, 3, 61, 35
5, 71040, Note_on_c, 3, 65, 35
5, 71224, Note_off_c, 3, 65, 35
5, 71224, Note_off_c, 3, 61, 35
5, 71232, Note_on_c, 3, 66, 35
5, 71232, Note_on_c, 3, 63, 35
5, 72952, Note_off_c, 3, 63, 35
5, 72952, Note_off_c, 3, 66, 35
5, 72952, Note_off_c, 3, 70, 35
5, 72960, Note_on_c, 3, 61, 35
5, 72960, Note_on_c, 3, 65, 35
5, 72960, Note_on_c, 3, 68, 35
5, 73720, Note_off_c, 3, 68, 35
5, 73720, Note_off_c, 3, 61, 35
5, 73728, Note_on_c, 3, 69, 35
5, 73728, Note_on_c, 3, 60, 35
5, 73816, Note_off_c, 3, 60, 35
5, 73824, Note_on_c, 3, 61, 35
5, 73912, Note_off_c, 3, 61, 35
5, 73920, Note_on_c, 3, 61, 35
5, 74008, Note_off_c, 3, 61, 35
5, 74016, Note_on_c, 3, 61, 35
5, 74488, Note_off_c, 3, 61, 35
5, 74488, Note_off_c, 3, 69, 35
5, 74488, Note_off_c, 3, 65, 35
5, 74496, Note_on_c, 3, 73, 35
5, 74496, Note_on_c, 3, 58, 35
5, 74496, Note_on_c, 3, 46, 35
5, 74584, Note_off_c, 3, 73, 35
5, 74592, Note_on_c, 3, 65, 35
5, 74680, Note_off_c, 3, 65, 35
5, 74688, Note_on_c, 3, 72, 35
5, 74776, Note_off_c, 3, 72, 35
5, 74784, Note_on_c, 3, 65, 35
5, 74872, Note_off_c, 3, 65, 35
5, 74880, Note_on_c, 3, 73, 35
5, 74968, Note_off_c, 3, 73, 35
5, 74976, Note_on_c, 3, 65, 35
5, 75064, Note_off_c, 3, 65, 35
5, 75072, Note_on_c, 3, 72, 35
5, 75160, Note_off_c, 3, 72, 35
5, 75168, Note_on_c, 3, 65, 35
5, 75256, Note_off_c, 3, 65, 35
5, 75264, Note_on_c, 3, 73, 35
5, 75352, Note_off_c, 3, 73, 35
5, 75360, Note_on_c, 3, 65, 35
5, 75448, Note_off_c, 3, 65, 35
5, 75456, Note_on_c, 3, 72, 35
5, 75544, Note_off_c, 3, 72, 35
5, 75552, Note_on_c, 3, 65, 35
5, 75640, Note_off_c, 3, 65, 35
5, 75648, Note_on_c, 3, 73, 35
5, 75736, Note_off_c, 3, 73, 35
5, 75744, Note_on_c, 3, 72, 35
5, 75832, Note_off_c, 3, 72, 35
5, 75840, Note_on_c, 3, 70, 35
5, 75928, Note_off_c, 3, 70, 35
5, 75936, Note_on_c, 3, 68, 35
5, 76024, Note_off_c, 3, 68, 35
5, 76024, Note_off_c, 3, 46, 35
5, 76024, Note_off_c, 3, 58, 35
5, 76032, Note_on_c, 3, 70, 35
5, 76032, Note_on_c, 3, 54, 35
5, 76032, Note_on_c, 3, 42, 35
5, 76120, Note_off_c, 3, 70, 35
5, 76128, Note_on_c, 3, 61, 35
5, 76216, Note_off_c, 3, 61, 35
5, 76224, Note_on_c, 3, 68, 35
5, 76312, Note_off_c, 3, 68, 35
5, 76320, Note_on_c, 3, 61, 35
5, 76408, Note_off_c, 3, 61, 35
5, 76416, Note_on_c, 3, 70, 35
5, 76504, Note_off_c, 3, 70, 35
5, 76512, Note_on_c, 3, 61, 35
5, 76600, Note_off_c, 3, 61, 35
5, 76608, Note_on_c, 3, 68, 35
5, 76696, Note_off_c, 3, 68, 35
5, 76704, Note_on_c, 3, 61, 35
5, 76792, Note_off_c, 3, 61, 35
5, 76800, Note_on_c, 3, 70, 35
5, 76888, Note_off_c, 3, 70, 35
5, 76896, Note_on_c, 3, 61, 35
5, 76984, Note_off_c, 3, 61, 35
5, 76992, Note_on_c, 3, 68, 35
5, 77080, Note_off_c, 3, 68, 35
5, 77088, Note_on_c, 3, 61, 35
5, 77176, Note_off_c, 3, 61, 35
5, 77184, Note_on_c, 3, 70, 35
5, 77272, Note_off_c, 3, 70, 35
5, 77280, Note_on_c, 3, 68, 35
5, 77368, Note_off_c, 3, 68, 35
5, 77368, Note_off_c, 3, 42, 35
5, 77368, Note_off_c, 3, 54, 35
5, 77376, Note_on_c, 3, 66, 35
5, 77376, Note_on_c, 3, 41, 35
5, 77376, Note_on_c, 3, 53, 35
5, 77464, Note_off_c, 3, 66, 35
5, 77472, Note_on_c, 3, 65, 35
5, 77560, Note_off_c, 3, 65, 35
5, 77560, Note_off_c, 3, 53, 35
5, 77560, Note_off_c, 3, 41, 35
5, 77568, Note_on_c, 3, 66, 35
5, 77568, Note_on_c, 3, 39, 35
5, 77568, Note_on_c, 3, 51, 35
5, 77656, Note_off_c, 3, 66, 35
5, 77664, Note_on_c, 3, 58, 35
5, 77752, Note_off_c, 3, 58, 35
5, 77760, Note_on_c, 3, 65, 35
5, 77848, Note_off_c, 3, 65, 35
5, 77856, Note_on_c, 3, 58, 35
5, 77944, Note_off_c, 3, 58, 35
5, 77952, Note_on_c, 3, 66, 35
5, 78040, Note_off_c, 3, 66, 35
5, 78048, Note_on_c, 3, 58, 35
5, 78136, Note_off_c, 3, 58, 35
5, 78144, Note_on_c, 3, 65, 35
5, 78232, Note_off_c, 3, 65, 35
5, 78240, Note_on_c, 3, 58, 35
5, 78328, Note_off_c, 3, 58, 35
5, 78336, Note_on_c, 3, 66, 35
5, 78424, Note_off_c, 3, 66, 35
5, 78432, Note_on_c, 3, 58, 35
5, 78520, Note_off_c, 3, 58, 35
5, 78528, Note_on_c, 3, 65, 35
5, 78616, Note_off_c, 3, 65, 35
5, 78624, Note_on_c, 3, 58, 35
5, 78712, Note_off_c, 3, 58, 35
5, 78720, Note_on_c, 3, 66, 35
5, 78808, Note_off_c, 3, 66, 35
5, 78816, Note_on_c, 3, 65, 35
5, 78904, Note_off_c, 3, 65, 35
5, 78912, Note_on_c, 3, 63, 35
5, 79000, Note_off_c, 3, 63, 35
5, 79008, Note_on_c, 3, 61, 35
5, 79096, Note_off_c, 3, 61, 35
5, 79096, Note_off_c, 3, 51, 35
5, 79096, Note_off_c, 3, 39, 35
5, 79104, Note_off_c, 3, 54, 35
5, 79104, Note_on_c, 3, 54, 35
5, 79104, Note_on_c, 3, 58, 35
5, 79104, Note_on_c, 3, 61, 35
5, 79104, Note_on_c, 3, 42, 35
5, 79104, Note_on_c, 3, 54, 35
5, 79864, Note_off_c, 3, 54, 35
5, 79864, Note_off_c, 3, 42, 35
5, 79864, Note_off_c, 3, 61, 35
5, 79864, Note_off_c, 3, 58, 35
5, 79872, Note_on_c, 3, 58, 35
5, 79872, Note_on_c, 3, 63, 35
5, 79872, Note_on_c, 3, 66, 35
5, 79872, Note_on_c, 3, 44, 35
5, 79872, Note_on_c, 3, 56, 35
5, 80632, Note_off_c, 3, 56, 35
5, 80632, Note_off_c, 3, 44, 35
5, 80632, Note_off_c, 3, 66, 35
5, 80632, Note_off_c, 3, 63, 35
5, 80632, Note_off_c, 3, 58, 35
5, 80640, Note_on_c, 3, 65, 35
5, 80640, Note_on_c, 3, 60, 35
5, 80640, Note_on_c, 3, 68, 35
5, 80640, Note_on_c, 3, 61, 35
5, 80640, Note_on_c, 3, 49, 35
5, 81408, Control_c, 3, 7, 87
5, 81456, Control_c, 3, 7, 84
5, 81504, Control_c, 3, 7, 81
5, 81552, Control_c, 3, 7, 78
5, 81600, Control_c, 3, 7, 75
5, 81648, Control_c, 3, 7, 72
5, 81696, Control_c, 3, 7, 67
5, 81784, Note_off_c, 3, 49, 35
5, 81784, Note_off_c, 3, 61, 35
5, 81784, Note_off_c, 3, 68, 35
5, 81784, Note_off_c, 3, 60, 35
5, 81784, Note_off_c, 3, 65, 35
5, 81784, End_track
6, 0, Start_track
6, 0, Text_t, "Guitar. "
6, 0, Control_c, 4, 121, 0
6, 130, Program_c, 4, 59
6, 150, Control_c, 4, 7, 100
6, 170, Control_c, 4, 10, 64
6, 19200, Note_on_c, 4, 63, 64
6, 19200, Note_on_c, 4, 56, 64
6, 19200, Note_on_c, 4, 60, 64
6, 19288, Note_off_c, 4, 60, 64
6, 19288, Note_off_c, 4, 56, 64
6, 19288, Note_off_c, 4, 63, 64
6, 19296, Note_on_c, 4, 56, 64
6, 19296, Note_on_c, 4, 61, 64
6, 19296, Note_on_c, 4, 65, 64
6, 19336, Note_off_c, 4, 65, 64
6, 19336, Note_off_c, 4, 61, 64
6, 19336, Note_off_c, 4, 56, 64
6, 19392, Note_on_c, 4, 56, 64
6, 19392, Note_on_c, 4, 61, 64
6, 19392, Note_on_c, 4, 65, 64
6, 19432, Note_off_c, 4, 65, 64
6, 19432, Note_off_c, 4, 61, 64
6, 19432, Note_off_c, 4, 56, 64
6, 19488, Note_on_c, 4, 65, 64
6, 19488, Note_on_c, 4, 61, 64
6, 19488, Note_on_c, 4, 56, 64
6, 19768, Note_off_c, 4, 56, 64
6, 19768, Note_off_c, 4, 61, 64
6, 19768, Note_off_c, 4, 65, 64
6, 19968, Note_on_c, 4, 60, 64
6, 19968, Note_on_c, 4, 63, 64
6, 19968, Note_on_c, 4, 56, 64
6, 20056, Note_off_c, 4, 56, 64
6, 20056, Note_off_c, 4, 63, 64
6, 20056, Note_off_c, 4, 60, 64
6, 20064, Note_on_c, 4, 61, 64
6, 20064, Note_on_c, 4, 56, 64
6, 20064, Note_on_c, 4, 65, 64
6, 20104, Note_off_c, 4, 65, 64
6, 20104, Note_off_c, 4, 56, 64
6, 20104, Note_off_c, 4, 61, 64
6, 20160, Note_on_c, 4, 61, 64
6, 20160, Note_on_c, 4, 65, 64
6, 20160, Note_on_c, 4, 56, 64
6, 20200, Note_off_c, 4, 56, 64
6, 20200, Note_off_c, 4, 65, 64
6, 20200, Note_off_c, 4, 61, 64
6, 20256, Note_on_c, 4, 61, 64
6, 20256, Note_on_c, 4, 65, 64
6, 20256, Note_on_c, 4, 56, 64
6, 20536, Note_off_c, 4, 56, 64
6, 20536, Note_off_c, 4, 65, 64
6, 20536, Note_off_c, 4, 61, 64
6, 20736, Note_on_c, 4, 56, 64
6, 20736, Note_on_c, 4, 61, 64
6, 20736, Note_on_c, 4, 65, 64
6, 20824, Note_off_c, 4, 65, 64
6, 20824, Note_off_c, 4, 61, 64
6, 20824, Note_off_c, 4, 56, 64
6, 20832, Note_on_c, 4, 66, 64
6, 20832, Note_on_c, 4, 58, 64
6, 20832, Note_on_c, 4, 61, 64
6, 20872, Note_off_c, 4, 61, 64
6, 20872, Note_off_c, 4, 58, 64
6, 20872, Note_off_c, 4, 66, 64
6, 20928, Note_on_c, 4, 66, 64
6, 20928, Note_on_c, 4, 61, 64
6, 20928, Note_on_c, 4, 58, 64
6, 20968, Note_off_c, 4, 58, 64
6, 20968, Note_off_c, 4, 61, 64
6, 20968, Note_off_c, 4, 66, 64
6, 21024, Note_on_c, 4, 66, 64
6, 21024, Note_on_c, 4, 61, 64
6, 21024, Note_on_c, 4, 58, 64
6, 21304, Note_off_c, 4, 58, 64
6, 21304, Note_off_c, 4, 61, 64
6, 21304, Note_off_c, 4, 66, 64
6, 21504, Note_on_c, 4, 61, 64
6, 21504, Note_on_c, 4, 56, 64
6, 21504, Note_on_c, 4, 65, 64
6, 21592, Note_off_c, 4, 65, 64
6, 21592, Note_off_c, 4, 56, 64
6, 21592, Note_off_c, 4, 61, 64
6, 21600, Note_on_c, 4, 61, 64
6, 21600, Note_on_c, 4, 66, 64
6, 21600, Note_on_c, 4, 58, 64
6, 21640, Note_off_c, 4, 58, 64
6, 21640, Note_off_c, 4, 66, 64
6, 21640, Note_off_c, 4, 61, 64
6, 21696, Note_on_c, 4, 66, 64
6, 21696, Note_on_c, 4, 58, 64
6, 21696, Note_on_c, 4, 61, 64
6, 21736, Note_off_c, 4, 61, 64
6, 21736, Note_off_c, 4, 58, 64
6, 21736, Note_off_c, 4, 66, 64
6, 21792, Note_on_c, 4, 66, 64
6, 21792, Note_on_c, 4, 61, 64
6, 21792, Note_on_c, 4, 58, 64
6, 22072, Note_off_c, 4, 58, 64
6, 22072, Note_off_c, 4, 61, 64
6, 22072, Note_off_c, 4, 66, 64
6, 22272, Note_on_c, 4, 58, 64
6, 22272, Note_on_c, 4, 66, 64
6, 22272, Note_on_c, 4, 61, 64
6, 22360, Note_off_c, 4, 61, 64
6, 22360, Note_off_c, 4, 66, 64
6, 22360, Note_off_c, 4, 58, 64
6, 22368, Note_on_c, 4, 58, 64
6, 22368, Note_on_c, 4, 61, 64
6, 22368, Note_on_c, 4, 66, 64
6, 22408, Note_off_c, 4, 66, 64
6, 22408, Note_off_c, 4, 61, 64
6, 22408, Note_off_c, 4, 58, 64
6, 22464, Note_on_c, 4, 66, 64
6, 22464, Note_on_c, 4, 58, 64
6, 22464, Note_on_c, 4, 61, 64
6, 22504, Note_off_c, 4, 61, 64
6, 22504, Note_off_c, 4, 58, 64
6, 22504, Note_off_c, 4, 66, 64
6, 22560, Note_on_c, 4, 61, 64
6, 22560, Note_on_c, 4, 66, 64
6, 22560, Note_on_c, 4, 58, 64
6, 22696, Note_off_c, 4, 58, 64
6, 22696, Note_off_c, 4, 66, 64
6, 22696, Note_off_c, 4, 61, 64
6, 22752, Note_on_c, 4, 58, 64
6, 22752, Note_on_c, 4, 66, 64
6, 22752, Note_on_c, 4, 61, 64
6, 22792, Note_off_c, 4, 61, 64
6, 22792, Note_off_c, 4, 66, 64
6, 22792, Note_off_c, 4, 58, 64
6, 22848, Note_on_c, 4, 61, 64
6, 22848, Note_on_c, 4, 66, 64
6, 22848, Note_on_c, 4, 58, 64
6, 22888, Note_off_c, 4, 58, 64
6, 22888, Note_off_c, 4, 66, 64
6, 22888, Note_off_c, 4, 61, 64
6, 22944, Note_on_c, 4, 61, 64
6, 22944, Note_on_c, 4, 66, 64
6, 22944, Note_on_c, 4, 58, 64
6, 22984, Note_off_c, 4, 58, 64
6, 22984, Note_off_c, 4, 66, 64
6, 22984, Note_off_c, 4, 61, 64
6, 23040, Note_on_c, 4, 66, 64
6, 23040, Note_on_c, 4, 61, 64
6, 23040, Note_on_c, 4, 58, 64
6, 23128, Note_off_c, 4, 58, 64
6, 23128, Note_off_c, 4, 61, 64
6, 23128, Note_off_c, 4, 66, 64
6, 23136, Note_on_c, 4, 66, 64
6, 23136, Note_on_c, 4, 58, 64
6, 23136, Note_on_c, 4, 61, 64
6, 23176, Note_off_c, 4, 61, 64
6, 23176, Note_off_c, 4, 58, 64
6, 23176, Note_off_c, 4, 66, 64
6, 23232, Note_on_c, 4, 66, 64
6, 23232, Note_on_c, 4, 61, 64
6, 23232, Note_on_c, 4, 58, 64
6, 23272, Note_off_c, 4, 58, 64
6, 23272, Note_off_c, 4, 61, 64
6, 23272, Note_off_c, 4, 66, 64
6, 23328, Note_on_c, 4, 58, 64
6, 23328, Note_on_c, 4, 61, 64
6, 23328, Note_on_c, 4, 66, 64
6, 23464, Note_off_c, 4, 66, 64
6, 23464, Note_off_c, 4, 61, 64
6, 23464, Note_off_c, 4, 58, 64
6, 23520, Note_on_c, 4, 66, 64
6, 23520, Note_on_c, 4, 61, 64
6, 23520, Note_on_c, 4, 58, 64
6, 23560, Note_off_c, 4, 58, 64
6, 23560, Note_off_c, 4, 61, 64
6, 23560, Note_off_c, 4, 66, 64
6, 23616, Note_on_c, 4, 61, 64
6, 23616, Note_on_c, 4, 66, 64
6, 23616, Note_on_c, 4, 58, 64
6, 23656, Note_off_c, 4, 58, 64
6, 23656, Note_off_c, 4, 66, 64
6, 23656, Note_off_c, 4, 61, 64
6, 23712, Note_on_c, 4, 66, 64
6, 23712, Note_on_c, 4, 61, 64
6, 23712, Note_on_c, 4, 58, 64
6, 23752, Note_off_c, 4, 58, 64
6, 23752, Note_off_c, 4, 61, 64
6, 23752, Note_off_c, 4, 66, 64
6, 23808, Note_on_c, 4, 60, 64
6, 23808, Note_on_c, 4, 56, 64
6, 23808, Note_on_c, 4, 63, 64
6, 23896, Note_off_c, 4, 63, 64
6, 23896, Note_off_c, 4, 56, 64
6, 23896, Note_off_c, 4, 60, 64
6, 23904, Note_on_c, 4, 56, 64
6, 23904, Note_on_c, 4, 65, 64
6, 23904, Note_on_c, 4, 61, 64
6, 23944, Note_off_c, 4, 61, 64
6, 23944, Note_off_c, 4, 65, 64
6, 23944, Note_off_c, 4, 56, 64
6, 24000, Note_on_c, 4, 65, 64
6, 24000, Note_on_c, 4, 56, 64
6, 24000, Note_on_c, 4, 61, 64
6, 24040, Note_off_c, 4, 61, 64
6, 24040, Note_off_c, 4, 56, 64
6, 24040, Note_off_c, 4, 65, 64
6, 24096, Note_on_c, 4, 65, 64
6, 24096, Note_on_c, 4, 56, 64
6, 24096, Note_on_c, 4, 61, 64
6, 24232, Note_off_c, 4, 61, 64
6, 24232, Note_off_c, 4, 56, 64
6, 24232, Note_off_c, 4, 65, 64
6, 24288, Note_on_c, 4, 65, 64
6, 24288, Note_on_c, 4, 56, 64
6, 24288, Note_on_c, 4, 61, 64
6, 24328, Note_off_c, 4, 61, 64
6, 24328, Note_off_c, 4, 56, 64
6, 24328, Note_off_c, 4, 65, 64
6, 24384, Note_on_c, 4, 65, 64
6, 24384, Note_on_c, 4, 56, 64
6, 24384, Note_on_c, 4, 61, 64
6, 24424, Note_off_c, 4, 61, 64
6, 24424, Note_off_c, 4, 56, 64
6, 24424, Note_off_c, 4, 65, 64
6, 24480, Note_on_c, 4, 56, 64
6, 24480, Note_on_c, 4, 65, 64
6, 24480, Note_on_c, 4, 61, 64
6, 24520, Note_off_c, 4, 61, 64
6, 24520, Note_off_c, 4, 65, 64
6, 24520, Note_off_c, 4, 56, 64
6, 24576, Note_on_c, 4, 60, 64
6, 24576, Note_on_c, 4, 63, 64
6, 24576, Note_on_c, 4, 57, 64
6, 24664, Note_off_c, 4, 57, 64
6, 24664, Note_off_c, 4, 63, 64
6, 24664, Note_off_c, 4, 60, 64
6, 24672, Note_on_c, 4, 61, 64
6, 24672, Note_on_c, 4, 57, 64
6, 24672, Note_on_c, 4, 65, 64
6, 24712, Note_off_c, 4, 65, 64
6, 24712, Note_off_c, 4, 57, 64
6, 24712, Note_off_c, 4, 61, 64
6, 24768, Note_on_c, 4, 57, 64
6, 24768, Note_on_c, 4, 61, 64
6, 24768, Note_on_c, 4, 65, 64
6, 24808, Note_off_c, 4, 65, 64
6, 24808, Note_off_c, 4, 61, 64
6, 24808, Note_off_c, 4, 57, 64
6, 24864, Note_on_c, 4, 61, 64
6, 24864, Note_on_c, 4, 57, 64
6, 24864, Note_on_c, 4, 65, 64
6, 25000, Note_off_c, 4, 65, 64
6, 25000, Note_off_c, 4, 57, 64
6, 25000, Note_off_c, 4, 61, 64
6, 25056, Note_on_c, 4, 57, 64
6, 25056, Note_on_c, 4, 61, 64
6, 25056, Note_on_c, 4, 65, 64
6, 25096, Note_off_c, 4, 65, 64
6, 25096, Note_off_c, 4, 61, 64
6, 25096, Note_off_c, 4, 57, 64
6, 25152, Note_on_c, 4, 57, 64
6, 25152, Note_on_c, 4, 61, 64
6, 25152, Note_on_c, 4, 65, 64
6, 25192, Note_off_c, 4, 65, 64
6, 25192, Note_off_c, 4, 61, 64
6, 25192, Note_off_c, 4, 57, 64
6, 25248, Note_on_c, 4, 57, 64
6, 25248, Note_on_c, 4, 61, 64
6, 25248, Note_on_c, 4, 65, 64
6, 25288, Note_off_c, 4, 65, 64
6, 25288, Note_off_c, 4, 61, 64
6, 25288, Note_off_c, 4, 57, 64
6, 25344, Note_on_c, 4, 56, 64
6, 25344, Note_on_c, 4, 60, 64
6, 25344, Note_on_c, 4, 63, 64
6, 25432, Note_off_c, 4, 63, 64
6, 25432, Note_off_c, 4, 60, 64
6, 25432, Note_off_c, 4, 56, 64
6, 25440, Note_on_c, 4, 56, 64
6, 25440, Note_on_c, 4, 61, 64
6, 25440, Note_on_c, 4, 65, 64
6, 25480, Note_off_c, 4, 65, 64
6, 25480, Note_off_c, 4, 61, 64
6, 25480, Note_off_c, 4, 56, 64
6, 25536, Note_on_c, 4, 61, 64
6, 25536, Note_on_c, 4, 65, 64
6, 25536, Note_on_c, 4, 56, 64
6, 25576, Note_off_c, 4, 56, 64
6, 25576, Note_off_c, 4, 65, 64
6, 25576, Note_off_c, 4, 61, 64
6, 25632, Note_on_c, 4, 65, 64
6, 25632, Note_on_c, 4, 61, 64
6, 25632, Note_on_c, 4, 56, 64
6, 25912, Note_off_c, 4, 56, 64
6, 25912, Note_off_c, 4, 61, 64
6, 25912, Note_off_c, 4, 65, 64
6, 26112, Note_on_c, 4, 63, 64
6, 26112, Note_on_c, 4, 60, 64
6, 26112, Note_on_c, 4, 56, 64
6, 26200, Note_off_c, 4, 56, 64
6, 26200, Note_off_c, 4, 60, 64
6, 26200, Note_off_c, 4, 63, 64
6, 26208, Note_on_c, 4, 56, 64
6, 26208, Note_on_c, 4, 65, 64
6, 26208, Note_on_c, 4, 61, 64
6, 26248, Note_off_c, 4, 61, 64
6, 26248, Note_off_c, 4, 65, 64
6, 26248, Note_off_c, 4, 56, 64
6, 26304, Note_on_c, 4, 61, 64
6, 26304, Note_on_c, 4, 65, 64
6, 26304, Note_on_c, 4, 56, 64
6, 26344, Note_off_c, 4, 56, 64
6, 26344, Note_off_c, 4, 65, 64
6, 26344, Note_off_c, 4, 61, 64
6, 26400, Note_on_c, 4, 65, 64
6, 26400, Note_on_c, 4, 61, 64
6, 26400, Note_on_c, 4, 56, 64
6, 26680, Note_off_c, 4, 56, 64
6, 26680, Note_off_c, 4, 61, 64
6, 26680, Note_off_c, 4, 65, 64
6, 26880, Note_on_c, 4, 61, 64
6, 26880, Note_on_c, 4, 65, 64
6, 26880, Note_on_c, 4, 56, 64
6, 26968, Note_off_c, 4, 56, 64
6, 26968, Note_off_c, 4, 65, 64
6, 26968, Note_off_c, 4, 61, 64
6, 26976, Note_on_c, 4, 58, 64
6, 26976, Note_on_c, 4, 66, 64
6, 26976, Note_on_c, 4, 61, 64
6, 27016, Note_off_c, 4, 61, 64
6, 27016, Note_off_c, 4, 66, 64
6, 27016, Note_off_c, 4, 58, 64
6, 27072, Note_on_c, 4, 66, 64
6, 27072, Note_on_c, 4, 61, 64
6, 27072, Note_on_c, 4, 58, 64
6, 27112, Note_off_c, 4, 58, 64
6, 27112, Note_off_c, 4, 61, 64
6, 27112, Note_off_c, 4, 66, 64
6, 27168, Note_on_c, 4, 66, 64
6, 27168, Note_on_c, 4, 58, 64
6, 27168, Note_on_c, 4, 61, 64
6, 27444, Note_off_c, 4, 58, 64
6, 27444, Note_off_c, 4, 66, 64
6, 27448, Note_off_c, 4, 61, 64
6, 27648, Note_on_c, 4, 61, 64
6, 27648, Note_on_c, 4, 65, 64
6, 27648, Note_on_c, 4, 56, 64
6, 27732, Note_off_c, 4, 56, 64
6, 27736, Note_off_c, 4, 65, 64
6, 27736, Note_off_c, 4, 61, 64
6, 27744, Note_on_c, 4, 66, 64
6, 27744, Note_on_c, 4, 61, 64
6, 27744, Note_on_c, 4, 58, 64
6, 27784, Note_off_c, 4, 58, 64
6, 27784, Note_off_c, 4, 61, 64
6, 27784, Note_off_c, 4, 66, 64
6, 27840, Note_on_c, 4, 61, 64
6, 27840, Note_on_c, 4, 66, 64
6, 27840, Note_on_c, 4, 58, 64
6, 27880, Note_off_c, 4, 58, 64
6, 27880, Note_off_c, 4, 66, 64
6, 27880, Note_off_c, 4, 61, 64
6, 27936, Note_on_c, 4, 66, 64
6, 27936, Note_on_c, 4, 58, 64
6, 27936, Note_on_c, 4, 61, 64
6, 28212, Note_off_c, 4, 61, 64
6, 28212, Note_off_c, 4, 58, 64
6, 28212, Note_off_c, 4, 66, 64
6, 28416, Note_on_c, 4, 66, 64
6, 28416, Note_on_c, 4, 58, 64
6, 28416, Note_on_c, 4, 61, 64
6, 28500, Note_off_c, 4, 58, 64
6, 28504, Note_off_c, 4, 61, 64
6, 28504, Note_off_c, 4, 66, 64
6, 28512, Note_on_c, 4, 66, 64
6, 28512, Note_on_c, 4, 61, 64
6, 28512, Note_on_c, 4, 58, 64
6, 28552, Note_off_c, 4, 58, 64
6, 28552, Note_off_c, 4, 61, 64
6, 28552, Note_off_c, 4, 66, 64
6, 28608, Note_on_c, 4, 66, 64
6, 28608, Note_on_c, 4, 58, 64
6, 28608, Note_on_c, 4, 61, 64
6, 28648, Note_off_c, 4, 61, 64
6, 28648, Note_off_c, 4, 58, 64
6, 28648, Note_off_c, 4, 66, 64
6, 28704, Note_on_c, 4, 58, 64
6, 28704, Note_on_c, 4, 66, 64
6, 28704, Note_on_c, 4, 61, 64
6, 28840, Note_off_c, 4, 61, 64
6, 28840, Note_off_c, 4, 66, 64
6, 28840, Note_off_c, 4, 58, 64
6, 28896, Note_on_c, 4, 66, 64
6, 28896, Note_on_c, 4, 61, 64
6, 28896, Note_on_c, 4, 58, 64
6, 28936, Note_off_c, 4, 58, 64
6, 28936, Note_off_c, 4, 61, 64
6, 28936, Note_off_c, 4, 66, 64
6, 28992, Note_on_c, 4, 66, 64
6, 28992, Note_on_c, 4, 61, 64
6, 28992, Note_on_c, 4, 58, 64
6, 29032, Note_off_c, 4, 58, 64
6, 29032, Note_off_c, 4, 61, 64
6, 29032, Note_off_c, 4, 66, 64
6, 29088, Note_on_c, 4, 61, 64
6, 29088, Note_on_c, 4, 66, 64
6, 29088, Note_on_c, 4, 58, 64
6, 29128, Note_off_c, 4, 58, 64
6, 29128, Note_off_c, 4, 66, 64
6, 29128, Note_off_c, 4, 61, 64
6, 29184, Note_on_c, 4, 66, 64
6, 29184, Note_on_c, 4, 58, 64
6, 29184, Note_on_c, 4, 61, 64
6, 29268, Note_off_c, 4, 58, 64
6, 29272, Note_off_c, 4, 61, 64
6, 29272, Note_off_c, 4, 66, 64
6, 29280, Note_on_c, 4, 58, 64
6, 29280, Note_on_c, 4, 66, 64
6, 29280, Note_on_c, 4, 61, 64
6, 29320, Note_off_c, 4, 61, 64
6, 29320, Note_off_c, 4, 66, 64
6, 29320, Note_off_c, 4, 58, 64
6, 29376, Note_on_c, 4, 66, 64
6, 29376, Note_on_c, 4, 61, 64
6, 29376, Note_on_c, 4, 58, 64
6, 29416, Note_off_c, 4, 58, 64
6, 29416, Note_off_c, 4, 61, 64
6, 29416, Note_off_c, 4, 66, 64
6, 29472, Note_on_c, 4, 58, 64
6, 29472, Note_on_c, 4, 66, 64
6, 29472, Note_on_c, 4, 61, 64
6, 29608, Note_off_c, 4, 61, 64
6, 29608, Note_off_c, 4, 66, 64
6, 29608, Note_off_c, 4, 58, 64
6, 29664, Note_on_c, 4, 66, 64
6, 29664, Note_on_c, 4, 61, 64
6, 29664, Note_on_c, 4, 58, 64
6, 29704, Note_off_c, 4, 58, 64
6, 29704, Note_off_c, 4, 61, 64
6, 29704, Note_off_c, 4, 66, 64
6, 29760, Note_on_c, 4, 61, 64
6, 29760, Note_on_c, 4, 66, 64
6, 29760, Note_on_c, 4, 58, 64
6, 29800, Note_off_c, 4, 58, 64
6, 29800, Note_off_c, 4, 66, 64
6, 29800, Note_off_c, 4, 61, 64
6, 29856, Note_on_c, 4, 66, 64
6, 29856, Note_on_c, 4, 61, 64
6, 29856, Note_on_c, 4, 58, 64
6, 29896, Note_off_c, 4, 58, 64
6, 29896, Note_off_c, 4, 61, 64
6, 29896, Note_off_c, 4, 66, 64
6, 29952, Note_on_c, 4, 56, 64
6, 29952, Note_on_c, 4, 63, 64
6, 29952, Note_on_c, 4, 60, 64
6, 30036, Note_off_c, 4, 56, 64
6, 30040, Note_off_c, 4, 60, 64
6, 30040, Note_off_c, 4, 63, 64
6, 30048, Note_on_c, 4, 56, 64
6, 30048, Note_on_c, 4, 61, 64
6, 30048, Note_on_c, 4, 65, 64
6, 30088, Note_off_c, 4, 65, 64
6, 30088, Note_off_c, 4, 61, 64
6, 30088, Note_off_c, 4, 56, 64
6, 30144, Note_on_c, 4, 61, 64
6, 30144, Note_on_c, 4, 56, 64
6, 30144, Note_on_c, 4, 65, 64
6, 30184, Note_off_c, 4, 65, 64
6, 30184, Note_off_c, 4, 56, 64
6, 30184, Note_off_c, 4, 61, 64
6, 30240, Note_on_c, 4, 65, 64
6, 30240, Note_on_c, 4, 56, 64
6, 30240, Note_on_c, 4, 61, 64
6, 30376, Note_off_c, 4, 56, 64
6, 30376, Note_off_c, 4, 65, 64
6, 30380, Note_off_c, 4, 61, 64
6, 30432, Note_on_c, 4, 65, 64
6, 30432, Note_on_c, 4, 56, 64
6, 30432, Note_on_c, 4, 61, 64
6, 30472, Note_off_c, 4, 61, 64
6, 30472, Note_off_c, 4, 56, 64
6, 30472, Note_off_c, 4, 65, 64
6, 30528, Note_on_c, 4, 65, 64
6, 30528, Note_on_c, 4, 61, 64
6, 30528, Note_on_c, 4, 56, 64
6, 30568, Note_off_c, 4, 56, 64
6, 30568, Note_off_c, 4, 61, 64
6, 30568, Note_off_c, 4, 65, 64
6, 30624, Note_on_c, 4, 65, 64
6, 30624, Note_on_c, 4, 61, 64
6, 30624, Note_on_c, 4, 56, 64
6, 30664, Note_off_c, 4, 56, 64
6, 30664, Note_off_c, 4, 61, 64
6, 30664, Note_off_c, 4, 65, 64
6, 31488, Note_on_c, 4, 58, 64
6, 31488, Note_on_c, 4, 61, 64
6, 31488, Note_on_c, 4, 65, 64
6, 31672, Note_off_c, 4, 65, 64
6, 31672, Note_off_c, 4, 61, 64
6, 31672, Note_off_c, 4, 58, 64
6, 31776, Note_on_c, 4, 61, 64
6, 31776, Note_on_c, 4, 65, 64
6, 31776, Note_on_c, 4, 58, 64
6, 31816, Note_off_c, 4, 58, 64
6, 31816, Note_off_c, 4, 65, 64
6, 31816, Note_off_c, 4, 61, 64
6, 31872, Note_on_c, 4, 58, 64
6, 31872, Note_on_c, 4, 61, 64
6, 31872, Note_on_c, 4, 65, 64
6, 31912, Note_off_c, 4, 65, 64
6, 31912, Note_off_c, 4, 61, 64
6, 31912, Note_off_c, 4, 58, 64
6, 31968, Note_on_c, 4, 58, 64
6, 31968, Note_on_c, 4, 65, 64
6, 31968, Note_on_c, 4, 61, 64
6, 32104, Note_off_c, 4, 61, 64
6, 32104, Note_off_c, 4, 65, 64
6, 32104, Note_off_c, 4, 58, 64
6, 32160, Note_on_c, 4, 61, 64
6, 32160, Note_on_c, 4, 65, 64
6, 32160, Note_on_c, 4, 58, 64
6, 32200, Note_off_c, 4, 58, 64
6, 32200, Note_off_c, 4, 65, 64
6, 32200, Note_off_c, 4, 61, 64
6, 32256, Note_on_c, 4, 61, 64
6, 32256, Note_on_c, 4, 65, 64
6, 32256, Note_on_c, 4, 58, 64
6, 32440, Note_off_c, 4, 58, 64
6, 32440, Note_off_c, 4, 65, 64
6, 32440, Note_off_c, 4, 61, 64
6, 32544, Note_on_c, 4, 61, 64
6, 32544, Note_on_c, 4, 58, 64
6, 32544, Note_on_c, 4, 65, 64
6, 32584, Note_off_c, 4, 65, 64
6, 32584, Note_off_c, 4, 58, 64
6, 32584, Note_off_c, 4, 61, 64
6, 32640, Note_on_c, 4, 61, 64
6, 32640, Note_on_c, 4, 65, 64
6, 32640, Note_on_c, 4, 58, 64
6, 32680, Note_off_c, 4, 58, 64
6, 32680, Note_off_c, 4, 65, 64
6, 32680, Note_off_c, 4, 61, 64
6, 32736, Note_on_c, 4, 58, 64
6, 32736, Note_on_c, 4, 61, 64
6, 32736, Note_on_c, 4, 65, 64
6, 32872, Note_off_c, 4, 65, 64
6, 32872, Note_off_c, 4, 61, 64
6, 32872, Note_off_c, 4, 58, 64
6, 32928, Note_on_c, 4, 65, 64
6, 32928, Note_on_c, 4, 61, 64
6, 32928, Note_on_c, 4, 58, 64
6, 32968, Note_off_c, 4, 58, 64
6, 32968, Note_off_c, 4, 61, 64
6, 32968, Note_off_c, 4, 65, 64
6, 33024, Note_on_c, 4, 58, 64
6, 33024, Note_on_c, 4, 54, 64
6, 33024, Note_on_c, 4, 61, 64
6, 33208, Note_off_c, 4, 61, 64
6, 33208, Note_off_c, 4, 54, 64
6, 33208, Note_off_c, 4, 58, 64
6, 33312, Note_on_c, 4, 58, 64
6, 33312, Note_on_c, 4, 54, 64
6, 33312, Note_on_c, 4, 61, 64
6, 33352, Note_off_c, 4, 61, 64
6, 33352, Note_off_c, 4, 54, 64
6, 33352, Note_off_c, 4, 58, 64
6, 33408, Note_on_c, 4, 58, 64
6, 33408, Note_on_c, 4, 61, 64
6, 33408, Note_on_c, 4, 54, 64
6, 33448, Note_off_c, 4, 54, 64
6, 33448, Note_off_c, 4, 61, 64
6, 33448, Note_off_c, 4, 58, 64
6, 33504, Note_on_c, 4, 61, 64
6, 33504, Note_on_c, 4, 58, 64
6, 33504, Note_on_c, 4, 54, 64
6, 33640, Note_off_c, 4, 54, 64
6, 33640, Note_off_c, 4, 58, 64
6, 33640, Note_off_c, 4, 61, 64
6, 33696, Note_on_c, 4, 58, 64
6, 33696, Note_on_c, 4, 54, 64
6, 33696, Note_on_c, 4, 61, 64
6, 33736, Note_off_c, 4, 61, 64
6, 33736, Note_off_c, 4, 54, 64
6, 33736, Note_off_c, 4, 58, 64
6, 33792, Note_on_c, 4, 61, 64
6, 33792, Note_on_c, 4, 58, 64
6, 33792, Note_on_c, 4, 54, 64
6, 33976, Note_off_c, 4, 54, 64
6, 33976, Note_off_c, 4, 58, 64
6, 33976, Note_off_c, 4, 61, 64
6, 34080, Note_on_c, 4, 58, 64
6, 34080, Note_on_c, 4, 61, 64
6, 34080, Note_on_c, 4, 54, 64
6, 34120, Note_off_c, 4, 54, 64
6, 34120, Note_off_c, 4, 61, 64
6, 34120, Note_off_c, 4, 58, 64
6, 34176, Note_on_c, 4, 58, 64
6, 34176, Note_on_c, 4, 61, 64
6, 34176, Note_on_c, 4, 54, 64
6, 34264, Note_off_c, 4, 54, 64
6, 34264, Note_off_c, 4, 61, 64
6, 34264, Note_off_c, 4, 58, 64
6, 34320, Note_on_c, 4, 61, 64
6, 34320, Note_on_c, 4, 58, 64
6, 34320, Note_on_c, 4, 54, 64
6, 34360, Note_off_c, 4, 54, 64
6, 34360, Note_off_c, 4, 58, 64
6, 34360, Note_off_c, 4, 61, 64
6, 34464, Note_on_c, 4, 54, 64
6, 34464, Note_on_c, 4, 58, 64
6, 34464, Note_on_c, 4, 61, 64
6, 34504, Note_off_c, 4, 61, 64
6, 34504, Note_off_c, 4, 58, 64
6, 34504, Note_off_c, 4, 54, 64
6, 34560, Note_on_c, 4, 65, 64
6, 34560, Note_on_c, 4, 61, 64
6, 34560, Note_on_c, 4, 58, 64
6, 34744, Note_off_c, 4, 58, 64
6, 34744, Note_off_c, 4, 61, 64
6, 34744, Note_off_c, 4, 65, 64
6, 34848, Note_on_c, 4, 61, 64
6, 34848, Note_on_c, 4, 65, 64
6, 34848, Note_on_c, 4, 58, 64
6, 34888, Note_off_c, 4, 58, 64
6, 34888, Note_off_c, 4, 65, 64
6, 34888, Note_off_c, 4, 61, 64
6, 34944, Note_on_c, 4, 61, 64
6, 34944, Note_on_c, 4, 65, 64
6, 34944, Note_on_c, 4, 58, 64
6, 35032, Note_off_c, 4, 58, 64
6, 35032, Note_off_c, 4, 65, 64
6, 35032, Note_off_c, 4, 61, 64
6, 35088, Note_on_c, 4, 61, 64
6, 35088, Note_on_c, 4, 58, 64
6, 35088, Note_on_c, 4, 65, 64
6, 35176, Note_off_c, 4, 65, 64
6, 35176, Note_off_c, 4, 58, 64
6, 35176, Note_off_c, 4, 61, 64
6, 35232, Note_on_c, 4, 61, 64
6, 35232, Note_on_c, 4, 65, 64
6, 35232, Note_on_c, 4, 58, 64
6, 35272, Note_off_c, 4, 58, 64
6, 35272, Note_off_c, 4, 65, 64
6, 35272, Note_off_c, 4, 61, 64
6, 35328, Note_on_c, 4, 61, 64
6, 35328, Note_on_c, 4, 65, 64
6, 35328, Note_on_c, 4, 58, 64
6, 35512, Note_off_c, 4, 58, 64
6, 35512, Note_off_c, 4, 65, 64
6, 35512, Note_off_c, 4, 61, 64
6, 35616, Note_on_c, 4, 61, 64
6, 35616, Note_on_c, 4, 58, 64
6, 35616, Note_on_c, 4, 65, 64
6, 35656, Note_off_c, 4, 65, 64
6, 35656, Note_off_c, 4, 58, 64
6, 35656, Note_off_c, 4, 61, 64
6, 35712, Note_on_c, 4, 61, 64
6, 35712, Note_on_c, 4, 65, 64
6, 35712, Note_on_c, 4, 58, 64
6, 35848, Note_off_c, 4, 58, 64
6, 35848, Note_off_c, 4, 65, 64
6, 35848, Note_off_c, 4, 61, 64
6, 35856, Note_on_c, 4, 58, 64
6, 35856, Note_on_c, 4, 61, 64
6, 35856, Note_on_c, 4, 65, 64
6, 35896, Note_off_c, 4, 65, 64
6, 35896, Note_off_c, 4, 61, 64
6, 35896, Note_off_c, 4, 58, 64
6, 36000, Note_on_c, 4, 61, 64
6, 36000, Note_on_c, 4, 65, 64
6, 36000, Note_on_c, 4, 58, 64
6, 36040, Note_off_c, 4, 58, 64
6, 36040, Note_off_c, 4, 65, 64
6, 36040, Note_off_c, 4, 61, 64
6, 36096, Note_on_c, 4, 58, 64
6, 36096, Note_on_c, 4, 61, 64
6, 36096, Note_on_c, 4, 53, 64
6, 36280, Note_off_c, 4, 53, 64
6, 36280, Note_off_c, 4, 61, 64
6, 36280, Note_off_c, 4, 58, 64
6, 36384, Note_on_c, 4, 58, 64
6, 36384, Note_on_c, 4, 61, 64
6, 36384, Note_on_c, 4, 53, 64
6, 36424, Note_off_c, 4, 53, 64
6, 36424, Note_off_c, 4, 61, 64
6, 36424, Note_off_c, 4, 58, 64
6, 36480, Note_on_c, 4, 58, 64
6, 36480, Note_on_c, 4, 53, 64
6, 36480, Note_on_c, 4, 61, 64
6, 36616, Note_off_c, 4, 61, 64
6, 36616, Note_off_c, 4, 53, 64
6, 36616, Note_off_c, 4, 58, 64
6, 36624, Note_on_c, 4, 58, 64
6, 36624, Note_on_c, 4, 53, 64
6, 36624, Note_on_c, 4, 61, 64
6, 36664, Note_off_c, 4, 61, 64
6, 36664, Note_off_c, 4, 53, 64
6, 36664, Note_off_c, 4, 58, 64
6, 36768, Note_on_c, 4, 58, 64
6, 36768, Note_on_c, 4, 53, 64
6, 36768, Note_on_c, 4, 61, 64
6, 36808, Note_off_c, 4, 61, 64
6, 36808, Note_off_c, 4, 53, 64
6, 36808, Note_off_c, 4, 58, 64
6, 36864, Note_on_c, 4, 54, 64
6, 36864, Note_on_c, 4, 58, 64
6, 36864, Note_on_c, 4, 61, 64
6, 37048, Note_off_c, 4, 61, 64
6, 37048, Note_off_c, 4, 58, 64
6, 37048, Note_off_c, 4, 54, 64
6, 37152, Note_on_c, 4, 61, 64
6, 37152, Note_on_c, 4, 58, 64
6, 37152, Note_on_c, 4, 54, 64
6, 37192, Note_off_c, 4, 54, 64
6, 37192, Note_off_c, 4, 58, 64
6, 37192, Note_off_c, 4, 61, 64
6, 37248, Note_on_c, 4, 58, 64
6, 37248, Note_on_c, 4, 61, 64
6, 37248, Note_on_c, 4, 54, 64
6, 37384, Note_off_c, 4, 54, 64
6, 37384, Note_off_c, 4, 61, 64
6, 37384, Note_off_c, 4, 58, 64
6, 37392, Note_on_c, 4, 61, 64
6, 37392, Note_on_c, 4, 58, 64
6, 37392, Note_on_c, 4, 54, 64
6, 37432, Note_off_c, 4, 54, 64
6, 37432, Note_off_c, 4, 58, 64
6, 37432, Note_off_c, 4, 61, 64
6, 37536, Note_on_c, 4, 58, 64
6, 37536, Note_on_c, 4, 61, 64
6, 37536, Note_on_c, 4, 54, 64
6, 37576, Note_off_c, 4, 54, 64
6, 37576, Note_off_c, 4, 61, 64
6, 37576, Note_off_c, 4, 58, 64
6, 37632, Note_on_c, 4, 58, 64
6, 37632, Note_on_c, 4, 54, 64
6, 37632, Note_on_c, 4, 63, 64
6, 37816, Note_off_c, 4, 63, 64
6, 37816, Note_off_c, 4, 54, 64
6, 37816, Note_off_c, 4, 58, 64
6, 37920, Note_on_c, 4, 58, 64
6, 37920, Note_on_c, 4, 63, 64
6, 37920, Note_on_c, 4, 54, 64
6, 37960, Note_off_c, 4, 54, 64
6, 37960, Note_off_c, 4, 63, 64
6, 37960, Note_off_c, 4, 58, 64
6, 38016, Note_on_c, 4, 58, 64
6, 38016, Note_on_c, 4, 63, 64
6, 38016, Note_on_c, 4, 54, 64
6, 38152, Note_off_c, 4, 54, 64
6, 38152, Note_off_c, 4, 63, 64
6, 38152, Note_off_c, 4, 58, 64
6, 38160, Note_on_c, 4, 63, 64
6, 38160, Note_on_c, 4, 58, 64
6, 38160, Note_on_c, 4, 54, 64
6, 38200, Note_off_c, 4, 54, 64
6, 38200, Note_off_c, 4, 58, 64
6, 38200, Note_off_c, 4, 63, 64
6, 38304, Note_on_c, 4, 58, 64
6, 38304, Note_on_c, 4, 54, 64
6, 38304, Note_on_c, 4, 63, 64
6, 38344, Note_off_c, 4, 63, 64
6, 38344, Note_off_c, 4, 54, 64
6, 38344, Note_off_c, 4, 58, 64
6, 38400, Note_on_c, 4, 58, 64
6, 38400, Note_on_c, 4, 54, 64
6, 38400, Note_on_c, 4, 63, 64
6, 38584, Note_off_c, 4, 63, 64
6, 38584, Note_off_c, 4, 54, 64
6, 38584, Note_off_c, 4, 58, 64
6, 38688, Note_on_c, 4, 58, 64
6, 38688, Note_on_c, 4, 63, 64
6, 38688, Note_on_c, 4, 54, 64
6, 38728, Note_off_c, 4, 54, 64
6, 38728, Note_off_c, 4, 63, 64
6, 38728, Note_off_c, 4, 58, 64
6, 38784, Note_on_c, 4, 63, 64
6, 38784, Note_on_c, 4, 58, 64
6, 38784, Note_on_c, 4, 54, 64
6, 38872, Note_off_c, 4, 54, 64
6, 38872, Note_off_c, 4, 58, 64
6, 38872, Note_off_c, 4, 63, 64
6, 38928, Note_on_c, 4, 58, 64
6, 38928, Note_on_c, 4, 63, 64
6, 38928, Note_on_c, 4, 54, 64
6, 38968, Note_off_c, 4, 54, 64
6, 38968, Note_off_c, 4, 63, 64
6, 38968, Note_off_c, 4, 58, 64
6, 39072, Note_on_c, 4, 54, 64
6, 39072, Note_on_c, 4, 58, 64
6, 39072, Note_on_c, 4, 63, 64
6, 39112, Note_off_c, 4, 63, 64
6, 39112, Note_off_c, 4, 58, 64
6, 39112, Note_off_c, 4, 54, 64
6, 39168, Note_on_c, 4, 60, 64
6, 39168, Note_on_c, 4, 56, 64
6, 39168, Note_on_c, 4, 65, 64
6, 39352, Note_off_c, 4, 65, 64
6, 39352, Note_off_c, 4, 56, 64
6, 39352, Note_off_c, 4, 60, 64
6, 39456, Note_on_c, 4, 60, 64
6, 39456, Note_on_c, 4, 56, 64
6, 39456, Note_on_c, 4, 65, 64
6, 39496, Note_off_c, 4, 65, 64
6, 39496, Note_off_c, 4, 56, 64
6, 39496, Note_off_c, 4, 60, 64
6, 39552, Note_on_c, 4, 60, 64
6, 39552, Note_on_c, 4, 56, 64
6, 39552, Note_on_c, 4, 65, 64
6, 39688, Note_off_c, 4, 65, 64
6, 39688, Note_off_c, 4, 56, 64
6, 39688, Note_off_c, 4, 60, 64
6, 39696, Note_on_c, 4, 60, 64
6, 39696, Note_on_c, 4, 65, 64
6, 39696, Note_on_c, 4, 56, 64
6, 39736, Note_off_c, 4, 56, 64
6, 39736, Note_off_c, 4, 65, 64
6, 39736, Note_off_c, 4, 60, 64
6, 39840, Note_on_c, 4, 56, 64
6, 39840, Note_on_c, 4, 60, 64
6, 39840, Note_on_c, 4, 65, 64
6, 39880, Note_off_c, 4, 65, 64
6, 39880, Note_off_c, 4, 60, 64
6, 39880, Note_off_c, 4, 56, 64
6, 39936, Note_on_c, 4, 60, 64
6, 39936, Note_on_c, 4, 56, 64
6, 39936, Note_on_c, 4, 65, 64
6, 40120, Note_off_c, 4, 65, 64
6, 40120, Note_off_c, 4, 56, 64
6, 40120, Note_off_c, 4, 60, 64
6, 40224, Note_on_c, 4, 60, 64
6, 40224, Note_on_c, 4, 56, 64
6, 40224, Note_on_c, 4, 65, 64
6, 40264, Note_off_c, 4, 65, 64
6, 40264, Note_off_c, 4, 56, 64
6, 40264, Note_off_c, 4, 60, 64
6, 40320, Note_on_c, 4, 60, 64
6, 40320, Note_on_c, 4, 65, 64
6, 40320, Note_on_c, 4, 56, 64
6, 40456, Note_off_c, 4, 56, 64
6, 40456, Note_off_c, 4, 65, 64
6, 40456, Note_off_c, 4, 60, 64
6, 40464, Note_on_c, 4, 60, 64
6, 40464, Note_on_c, 4, 65, 64
6, 40464, Note_on_c, 4, 56, 64
6, 40504, Note_off_c, 4, 56, 64
6, 40504, Note_off_c, 4, 65, 64
6, 40504, Note_off_c, 4, 60, 64
6, 40608, Note_on_c, 4, 56, 64
6, 40608, Note_on_c, 4, 60, 64
6, 40608, Note_on_c, 4, 65, 64
6, 40648, Note_off_c, 4, 65, 64
6, 40648, Note_off_c, 4, 60, 64
6, 40648, Note_off_c, 4, 56, 64
6, 40704, Note_on_c, 4, 58, 64
6, 40704, Note_on_c, 4, 61, 64
6, 40704, Note_on_c, 4, 65, 64
6, 40888, Note_off_c, 4, 65, 64
6, 40888, Note_off_c, 4, 61, 64
6, 40888, Note_off_c, 4, 58, 64
6, 40992, Note_on_c, 4, 65, 64
6, 40992, Note_on_c, 4, 61, 64
6, 40992, Note_on_c, 4, 58, 64
6, 41032, Note_off_c, 4, 58, 64
6, 41032, Note_off_c, 4, 61, 64
6, 41032, Note_off_c, 4, 65, 64
6, 41088, Note_on_c, 4, 65, 64
6, 41088, Note_on_c, 4, 61, 64
6, 41088, Note_on_c, 4, 58, 64
6, 41224, Note_off_c, 4, 58, 64
6, 41224, Note_off_c, 4, 61, 64
6, 41224, Note_off_c, 4, 65, 64
6, 41232, Note_on_c, 4, 61, 64
6, 41232, Note_on_c, 4, 58, 64
6, 41232, Note_on_c, 4, 65, 64
6, 41272, Note_off_c, 4, 65, 64
6, 41272, Note_off_c, 4, 58, 64
6, 41272, Note_off_c, 4, 61, 64
6, 41376, Note_on_c, 4, 58, 64
6, 41376, Note_on_c, 4, 61, 64
6, 41376, Note_on_c, 4, 65, 64
6, 41416, Note_off_c, 4, 65, 64
6, 41416, Note_off_c, 4, 61, 64
6, 41416, Note_off_c, 4, 58, 64
6, 41472, Note_on_c, 4, 61, 64
6, 41472, Note_on_c, 4, 58, 64
6, 41472, Note_on_c, 4, 65, 64
6, 41656, Note_off_c, 4, 65, 64
6, 41656, Note_off_c, 4, 58, 64
6, 41656, Note_off_c, 4, 61, 64
6, 41760, Note_on_c, 4, 61, 64
6, 41760, Note_on_c, 4, 58, 64
6, 41760, Note_on_c, 4, 65, 64
6, 41800, Note_off_c, 4, 65, 64
6, 41800, Note_off_c, 4, 58, 64
6, 41800, Note_off_c, 4, 61, 64
6, 41856, Note_on_c, 4, 61, 64
6, 41856, Note_on_c, 4, 58, 64
6, 41856, Note_on_c, 4, 65, 64
6, 41944, Note_off_c, 4, 65, 64
6, 41944, Note_off_c, 4, 58, 64
6, 41944, Note_off_c, 4, 61, 64
6, 42000, Note_on_c, 4, 61, 64
6, 42000, Note_on_c, 4, 65, 64
6, 42000, Note_on_c, 4, 58, 64
6, 42040, Note_off_c, 4, 58, 64
6, 42040, Note_off_c, 4, 65, 64
6, 42040, Note_off_c, 4, 61, 64
6, 42144, Note_on_c, 4, 61, 64
6, 42144, Note_on_c, 4, 58, 64
6, 42144, Note_on_c, 4, 65, 64
6, 42184, Note_off_c, 4, 65, 64
6, 42184, Note_off_c, 4, 58, 64
6, 42184, Note_off_c, 4, 61, 64
6, 42240, Note_on_c, 4, 66, 64
6, 42240, Note_on_c, 4, 58, 64
6, 42240, Note_on_c, 4, 63, 64
6, 42424, Note_off_c, 4, 63, 64
6, 42424, Note_off_c, 4, 58, 64
6, 42424, Note_off_c, 4, 66, 64
6, 42528, Note_on_c, 4, 63, 64
6, 42528, Note_on_c, 4, 66, 64
6, 42528, Note_on_c, 4, 58, 64
6, 42568, Note_off_c, 4, 58, 64
6, 42568, Note_off_c, 4, 66, 64
6, 42568, Note_off_c, 4, 63, 64
6, 42624, Note_on_c, 4, 66, 64
6, 42624, Note_on_c, 4, 63, 64
6, 42624, Note_on_c, 4, 58, 64
6, 42760, Note_off_c, 4, 58, 64
6, 42760, Note_off_c, 4, 63, 64
6, 42760, Note_off_c, 4, 66, 64
6, 42768, Note_on_c, 4, 58, 64
6, 42768, Note_on_c, 4, 63, 64
6, 42768, Note_on_c, 4, 66, 64
6, 42856, Note_off_c, 4, 66, 64
6, 42856, Note_off_c, 4, 63, 64
6, 42856, Note_off_c, 4, 58, 64
6, 42912, Note_on_c, 4, 66, 64
6, 42912, Note_on_c, 4, 63, 64
6, 42912, Note_on_c, 4, 58, 64
6, 42952, Note_off_c, 4, 58, 64
6, 42952, Note_off_c, 4, 63, 64
6, 42952, Note_off_c, 4, 66, 64
6, 43008, Note_on_c, 4, 66, 64
6, 43008, Note_on_c, 4, 58, 64
6, 43008, Note_on_c, 4, 63, 64
6, 43192, Note_off_c, 4, 63, 64
6, 43192, Note_off_c, 4, 58, 64
6, 43192, Note_off_c, 4, 66, 64
6, 43296, Note_on_c, 4, 58, 64
6, 43296, Note_on_c, 4, 63, 64
6, 43296, Note_on_c, 4, 66, 64
6, 43336, Note_off_c, 4, 66, 64
6, 43336, Note_off_c, 4, 63, 64
6, 43336, Note_off_c, 4, 58, 64
6, 43392, Note_on_c, 4, 66, 64
6, 43392, Note_on_c, 4, 58, 64
6, 43392, Note_on_c, 4, 63, 64
6, 43528, Note_off_c, 4, 63, 64
6, 43528, Note_off_c, 4, 58, 64
6, 43528, Note_off_c, 4, 66, 64
6, 43536, Note_on_c, 4, 58, 64
6, 43536, Note_on_c, 4, 66, 64
6, 43536, Note_on_c, 4, 63, 64
6, 43576, Note_off_c, 4, 63, 64
6, 43576, Note_off_c, 4, 66, 64
6, 43576, Note_off_c, 4, 58, 64
6, 43680, Note_on_c, 4, 66, 64
6, 43680, Note_on_c, 4, 63, 64
6, 43680, Note_on_c, 4, 58, 64
6, 43720, Note_off_c, 4, 58, 64
6, 43720, Note_off_c, 4, 63, 64
6, 43720, Note_off_c, 4, 66, 64
6, 43776, Note_on_c, 4, 63, 64
6, 43776, Note_on_c, 4, 56, 64
6, 43776, Note_on_c, 4, 60, 64
6, 43864, Note_off_c, 4, 60, 64
6, 43864, Note_off_c, 4, 56, 64
6, 43864, Note_off_c, 4, 63, 64
6, 43872, Note_on_c, 4, 56, 64
6, 43872, Note_on_c, 4, 61, 64
6, 43872, Note_on_c, 4, 65, 64
6, 43912, Note_off_c, 4, 65, 64
6, 43912, Note_off_c, 4, 61, 64
6, 43912, Note_off_c, 4, 56, 64
6, 43968, Note_on_c, 4, 56, 64
6, 43968, Note_on_c, 4, 61, 64
6, 43968, Note_on_c, 4, 65, 64
6, 44008, Note_off_c, 4, 65, 64
6, 44008, Note_off_c, 4, 61, 64
6, 44008, Note_off_c, 4, 56, 64
6, 44064, Note_on_c, 4, 65, 64
6, 44064, Note_on_c, 4, 61, 64
6, 44064, Note_on_c, 4, 56, 64
6, 44344, Note_off_c, 4, 56, 64
6, 44344, Note_off_c, 4, 61, 64
6, 44344, Note_off_c, 4, 65, 64
6, 44544, Note_on_c, 4, 60, 64
6, 44544, Note_on_c, 4, 63, 64
6, 44544, Note_on_c, 4, 56, 64
6, 44632, Note_off_c, 4, 56, 64
6, 44632, Note_off_c, 4, 63, 64
6, 44632, Note_off_c, 4, 60, 64
6, 44640, Note_on_c, 4, 61, 64
6, 44640, Note_on_c, 4, 56, 64
6, 44640, Note_on_c, 4, 65, 64
6, 44680, Note_off_c, 4, 65, 64
6, 44680, Note_off_c, 4, 56, 64
6, 44680, Note_off_c, 4, 61, 64
6, 44736, Note_on_c, 4, 61, 64
6, 44736, Note_on_c, 4, 65, 64
6, 44736, Note_on_c, 4, 56, 64
6, 44776, Note_off_c, 4, 56, 64
6, 44776, Note_off_c, 4, 65, 64
6, 44776, Note_off_c, 4, 61, 64
6, 44832, Note_on_c, 4, 61, 64
6, 44832, Note_on_c, 4, 65, 64
6, 44832, Note_on_c, 4, 56, 64
6, 45112, Note_off_c, 4, 56, 64
6, 45112, Note_off_c, 4, 65, 64
6, 45112, Note_off_c, 4, 61, 64
6, 45312, Note_on_c, 4, 56, 64
6, 45312, Note_on_c, 4, 61, 64
6, 45312, Note_on_c, 4, 65, 64
6, 45400, Note_off_c, 4, 65, 64
6, 45400, Note_off_c, 4, 61, 64
6, 45400, Note_off_c, 4, 56, 64
6, 45408, Note_on_c, 4, 66, 64
6, 45408, Note_on_c, 4, 58, 64
6, 45408, Note_on_c, 4, 61, 64
6, 45448, Note_off_c, 4, 61, 64
6, 45448, Note_off_c, 4, 58, 64
6, 45448, Note_off_c, 4, 66, 64
6, 45504, Note_on_c, 4, 66, 64
6, 45504, Note_on_c, 4, 61, 64
6, 45504, Note_on_c, 4, 58, 64
6, 45544, Note_off_c, 4, 58, 64
6, 45544, Note_off_c, 4, 61, 64
6, 45544, Note_off_c, 4, 66, 64
6, 45600, Note_on_c, 4, 66, 64
6, 45600, Note_on_c, 4, 61, 64
6, 45600, Note_on_c, 4, 58, 64
6, 45880, Note_off_c, 4, 58, 64
6, 45880, Note_off_c, 4, 61, 64
6, 45880, Note_off_c, 4, 66, 64
6, 46080, Note_on_c, 4, 61, 64
6, 46080, Note_on_c, 4, 56, 64
6, 46080, Note_on_c, 4, 65, 64
6, 46168, Note_off_c, 4, 65, 64
6, 46168, Note_off_c, 4, 56, 64
6, 46168, Note_off_c, 4, 61, 64
6, 46176, Note_on_c, 4, 61, 64
6, 46176, Note_on_c, 4, 66, 64
6, 46176, Note_on_c, 4, 58, 64
6, 46216, Note_off_c, 4, 58, 64
6, 46216, Note_off_c, 4, 66, 64
6, 46216, Note_off_c, 4, 61, 64
6, 46272, Note_on_c, 4, 66, 64
6, 46272, Note_on_c, 4, 58, 64
6, 46272, Note_on_c, 4, 61, 64
6, 46312, Note_off_c, 4, 61, 64
6, 46312, Note_off_c, 4, 58, 64
6, 46312, Note_off_c, 4, 66, 64
6, 46368, Note_on_c, 4, 66, 64
6, 46368, Note_on_c, 4, 61, 64
6, 46368, Note_on_c, 4, 58, 64
6, 46648, Note_off_c, 4, 58, 64
6, 46648, Note_off_c, 4, 61, 64
6, 46648, Note_off_c, 4, 66, 64
6, 46848, Note_on_c, 4, 58, 64
6, 46848, Note_on_c, 4, 66, 64
6, 46848, Note_on_c, 4, 61, 64
6, 46936, Note_off_c, 4, 61, 64
6, 46936, Note_off_c, 4, 66, 64
6, 46936, Note_off_c, 4, 58, 64
6, 46944, Note_on_c, 4, 58, 64
6, 46944, Note_on_c, 4, 61, 64
6, 46944, Note_on_c, 4, 66, 64
6, 46984, Note_off_c, 4, 66, 64
6, 46984, Note_off_c, 4, 61, 64
6, 46984, Note_off_c, 4, 58, 64
6, 47040, Note_on_c, 4, 66, 64
6, 47040, Note_on_c, 4, 58, 64
6, 47040, Note_on_c, 4, 61, 64
6, 47080, Note_off_c, 4, 61, 64
6, 47080, Note_off_c, 4, 58, 64
6, 47080, Note_off_c, 4, 66, 64
6, 47136, Note_on_c, 4, 61, 64
6, 47136, Note_on_c, 4, 66, 64
6, 47136, Note_on_c, 4, 58, 64
6, 47272, Note_off_c, 4, 58, 64
6, 47272, Note_off_c, 4, 66, 64
6, 47272, Note_off_c, 4, 61, 64
6, 47328, Note_on_c, 4, 58, 64
6, 47328, Note_on_c, 4, 66, 64
6, 47328, Note_on_c, 4, 61, 64
6, 47368, Note_off_c, 4, 61, 64
6, 47368, Note_off_c, 4, 66, 64
6, 47368, Note_off_c, 4, 58, 64
6, 47424, Note_on_c, 4, 61, 64
6, 47424, Note_on_c, 4, 66, 64
6, 47424, Note_on_c, 4, 58, 64
6, 47464, Note_off_c, 4, 58, 64
6, 47464, Note_off_c, 4, 66, 64
6, 47464, Note_off_c, 4, 61, 64
6, 47520, Note_on_c, 4, 61, 64
6, 47520, Note_on_c, 4, 66, 64
6, 47520, Note_on_c, 4, 58, 64
6, 47560, Note_off_c, 4, 58, 64
6, 47560, Note_off_c, 4, 66, 64
6, 47560, Note_off_c, 4, 61, 64
6, 47616, Note_on_c, 4, 66, 64
6, 47616, Note_on_c, 4, 61, 64
6, 47616, Note_on_c, 4, 58, 64
6, 47704, Note_off_c, 4, 58, 64
6, 47704, Note_off_c, 4, 61, 64
6, 47704, Note_off_c, 4, 66, 64
6, 47712, Note_on_c, 4, 66, 64
6, 47712, Note_on_c, 4, 58, 64
6, 47712, Note_on_c, 4, 61, 64
6, 47752, Note_off_c, 4, 61, 64
6, 47752, Note_off_c, 4, 58, 64
6, 47752, Note_off_c, 4, 66, 64
6, 47808, Note_on_c, 4, 66, 64
6, 47808, Note_on_c, 4, 61, 64
6, 47808, Note_on_c, 4, 58, 64
6, 47848, Note_off_c, 4, 58, 64
6, 47848, Note_off_c, 4, 61, 64
6, 47848, Note_off_c, 4, 66, 64
6, 47904, Note_on_c, 4, 58, 64
6, 47904, Note_on_c, 4, 61, 64
6, 47904, Note_on_c, 4, 66, 64
6, 48040, Note_off_c, 4, 66, 64
6, 48040, Note_off_c, 4, 61, 64
6, 48040, Note_off_c, 4, 58, 64
6, 48096, Note_on_c, 4, 66, 64
6, 48096, Note_on_c, 4, 61, 64
6, 48096, Note_on_c, 4, 58, 64
6, 48136, Note_off_c, 4, 58, 64
6, 48136, Note_off_c, 4, 61, 64
6, 48136, Note_off_c, 4, 66, 64
6, 48192, Note_on_c, 4, 61, 64
6, 48192, Note_on_c, 4, 66, 64
6, 48192, Note_on_c, 4, 58, 64
6, 48232, Note_off_c, 4, 58, 64
6, 48232, Note_off_c, 4, 66, 64
6, 48232, Note_off_c, 4, 61, 64
6, 48288, Note_on_c, 4, 66, 64
6, 48288, Note_on_c, 4, 61, 64
6, 48288, Note_on_c, 4, 58, 64
6, 48328, Note_off_c, 4, 58, 64
6, 48328, Note_off_c, 4, 61, 64
6, 48328, Note_off_c, 4, 66, 64
6, 48384, Note_on_c, 4, 60, 64
6, 48384, Note_on_c, 4, 56, 64
6, 48384, Note_on_c, 4, 63, 64
6, 48472, Note_off_c, 4, 63, 64
6, 48472, Note_off_c, 4, 56, 64
6, 48472, Note_off_c, 4, 60, 64
6, 48480, Note_on_c, 4, 56, 64
6, 48480, Note_on_c, 4, 65, 64
6, 48480, Note_on_c, 4, 61, 64
6, 48520, Note_off_c, 4, 61, 64
6, 48520, Note_off_c, 4, 65, 64
6, 48520, Note_off_c, 4, 56, 64
6, 48576, Note_on_c, 4, 65, 64
6, 48576, Note_on_c, 4, 56, 64
6, 48576, Note_on_c, 4, 61, 64
6, 48616, Note_off_c, 4, 61, 64
6, 48616, Note_off_c, 4, 56, 64
6, 48616, Note_off_c, 4, 65, 64
6, 48672, Note_on_c, 4, 65, 64
6, 48672, Note_on_c, 4, 56, 64
6, 48672, Note_on_c, 4, 61, 64
6, 48808, Note_off_c, 4, 61, 64
6, 48808, Note_off_c, 4, 56, 64
6, 48808, Note_off_c, 4, 65, 64
6, 48864, Note_on_c, 4, 65, 64
6, 48864, Note_on_c, 4, 56, 64
6, 48864, Note_on_c, 4, 61, 64
6, 48904, Note_off_c, 4, 61, 64
6, 48904, Note_off_c, 4, 56, 64
6, 48904, Note_off_c, 4, 65, 64
6, 48960, Note_on_c, 4, 65, 64
6, 48960, Note_on_c, 4, 56, 64
6, 48960, Note_on_c, 4, 61, 64
6, 49000, Note_off_c, 4, 61, 64
6, 49000, Note_off_c, 4, 56, 64
6, 49000, Note_off_c, 4, 65, 64
6, 49056, Note_on_c, 4, 56, 64
6, 49056, Note_on_c, 4, 65, 64
6, 49056, Note_on_c, 4, 61, 64
6, 49096, Note_off_c, 4, 61, 64
6, 49096, Note_off_c, 4, 65, 64
6, 49096, Note_off_c, 4, 56, 64
6, 49152, Note_on_c, 4, 60, 64
6, 49152, Note_on_c, 4, 63, 64
6, 49152, Note_on_c, 4, 57, 64
6, 49240, Note_off_c, 4, 57, 64
6, 49240, Note_off_c, 4, 63, 64
6, 49240, Note_off_c, 4, 60, 64
6, 49248, Note_on_c, 4, 61, 64
6, 49248, Note_on_c, 4, 57, 64
6, 49248, Note_on_c, 4, 65, 64
6, 49288, Note_off_c, 4, 65, 64
6, 49288, Note_off_c, 4, 57, 64
6, 49288, Note_off_c, 4, 61, 64
6, 49344, Note_on_c, 4, 57, 64
6, 49344, Note_on_c, 4, 61, 64
6, 49344, Note_on_c, 4, 65, 64
6, 49384, Note_off_c, 4, 65, 64
6, 49384, Note_off_c, 4, 61, 64
6, 49384, Note_off_c, 4, 57, 64
6, 49440, Note_on_c, 4, 61, 64
6, 49440, Note_on_c, 4, 57, 64
6, 49440, Note_on_c, 4, 65, 64
6, 49576, Note_off_c, 4, 65, 64
6, 49576, Note_off_c, 4, 57, 64
6, 49576, Note_off_c, 4, 61, 64
6, 49632, Note_on_c, 4, 57, 64
6, 49632, Note_on_c, 4, 61, 64
6, 49632, Note_on_c, 4, 65, 64
6, 49672, Note_off_c, 4, 65, 64
6, 49672, Note_off_c, 4, 61, 64
6, 49672, Note_off_c, 4, 57, 64
6, 49728, Note_on_c, 4, 57, 64
6, 49728, Note_on_c, 4, 61, 64
6, 49728, Note_on_c, 4, 65, 64
6, 49768, Note_off_c, 4, 65, 64
6, 49768, Note_off_c, 4, 61, 64
6, 49768, Note_off_c, 4, 57, 64
6, 49824, Note_on_c, 4, 57, 64
6, 49824, Note_on_c, 4, 61, 64
6, 49824, Note_on_c, 4, 65, 64
6, 49864, Note_off_c, 4, 65, 64
6, 49864, Note_off_c, 4, 61, 64
6, 49864, Note_off_c, 4, 57, 64
6, 49920, Note_on_c, 4, 56, 64
6, 49920, Note_on_c, 4, 60, 64
6, 49920, Note_on_c, 4, 63, 64
6, 50008, Note_off_c, 4, 63, 64
6, 50008, Note_off_c, 4, 60, 64
6, 50008, Note_off_c, 4, 56, 64
6, 50016, Note_on_c, 4, 56, 64
6, 50016, Note_on_c, 4, 61, 64
6, 50016, Note_on_c, 4, 65, 64
6, 50056, Note_off_c, 4, 65, 64
6, 50056, Note_off_c, 4, 61, 64
6, 50056, Note_off_c, 4, 56, 64
6, 50112, Note_on_c, 4, 61, 64
6, 50112, Note_on_c, 4, 65, 64
6, 50112, Note_on_c, 4, 56, 64
6, 50152, Note_off_c, 4, 56, 64
6, 50152, Note_off_c, 4, 65, 64
6, 50152, Note_off_c, 4, 61, 64
6, 50208, Note_on_c, 4, 65, 64
6, 50208, Note_on_c, 4, 61, 64
6, 50208, Note_on_c, 4, 56, 64
6, 50488, Note_off_c, 4, 56, 64
6, 50488, Note_off_c, 4, 61, 64
6, 50488, Note_off_c, 4, 65, 64
6, 50688, Note_on_c, 4, 63, 64
6, 50688, Note_on_c, 4, 60, 64
6, 50688, Note_on_c, 4, 56, 64
6, 50776, Note_off_c, 4, 56, 64
6, 50776, Note_off_c, 4, 60, 64
6, 50776, Note_off_c, 4, 63, 64
6, 50784, Note_on_c, 4, 56, 64
6, 50784, Note_on_c, 4, 65, 64
6, 50784, Note_on_c, 4, 61, 64
6, 50824, Note_off_c, 4, 61, 64
6, 50824, Note_off_c, 4, 65, 64
6, 50824, Note_off_c, 4, 56, 64
6, 50880, Note_on_c, 4, 61, 64
6, 50880, Note_on_c, 4, 65, 64
6, 50880, Note_on_c, 4, 56, 64
6, 50920, Note_off_c, 4, 56, 64
6, 50920, Note_off_c, 4, 65, 64
6, 50920, Note_off_c, 4, 61, 64
6, 50976, Note_on_c, 4, 65, 64
6, 50976, Note_on_c, 4, 61, 64
6, 50976, Note_on_c, 4, 56, 64
6, 51256, Note_off_c, 4, 56, 64
6, 51256, Note_off_c, 4, 61, 64
6, 51256, Note_off_c, 4, 65, 64
6, 51456, Note_on_c, 4, 61, 64
6, 51456, Note_on_c, 4, 65, 64
6, 51456, Note_on_c, 4, 56, 64
6, 51544, Note_off_c, 4, 56, 64
6, 51544, Note_off_c, 4, 65, 64
6, 51544, Note_off_c, 4, 61, 64
6, 51552, Note_on_c, 4, 58, 64
6, 51552, Note_on_c, 4, 66, 64
6, 51552, Note_on_c, 4, 61, 64
6, 51592, Note_off_c, 4, 61, 64
6, 51592, Note_off_c, 4, 66, 64
6, 51592, Note_off_c, 4, 58, 64
6, 51648, Note_on_c, 4, 66, 64
6, 51648, Note_on_c, 4, 61, 64
6, 51648, Note_on_c, 4, 58, 64
6, 51688, Note_off_c, 4, 58, 64
6, 51688, Note_off_c, 4, 61, 64
6, 51688, Note_off_c, 4, 66, 64
6, 51744, Note_on_c, 4, 66, 64
6, 51744, Note_on_c, 4, 58, 64
6, 51744, Note_on_c, 4, 61, 64
6, 52020, Note_off_c, 4, 58, 64
6, 52020, Note_off_c, 4, 66, 64
6, 52024, Note_off_c, 4, 61, 64
6, 52224, Note_on_c, 4, 61, 64
6, 52224, Note_on_c, 4, 65, 64
6, 52224, Note_on_c, 4, 56, 64
6, 52308, Note_off_c, 4, 56, 64
6, 52312, Note_off_c, 4, 65, 64
6, 52312, Note_off_c, 4, 61, 64
6, 52320, Note_on_c, 4, 66, 64
6, 52320, Note_on_c, 4, 61, 64
6, 52320, Note_on_c, 4, 58, 64
6, 52360, Note_off_c, 4, 58, 64
6, 52360, Note_off_c, 4, 61, 64
6, 52360, Note_off_c, 4, 66, 64
6, 52416, Note_on_c, 4, 61, 64
6, 52416, Note_on_c, 4, 66, 64
6, 52416, Note_on_c, 4, 58, 64
6, 52456, Note_off_c, 4, 58, 64
6, 52456, Note_off_c, 4, 66, 64
6, 52456, Note_off_c, 4, 61, 64
6, 52512, Note_on_c, 4, 66, 64
6, 52512, Note_on_c, 4, 58, 64
6, 52512, Note_on_c, 4, 61, 64
6, 52788, Note_off_c, 4, 61, 64
6, 52788, Note_off_c, 4, 58, 64
6, 52788, Note_off_c, 4, 66, 64
6, 52992, Note_on_c, 4, 66, 64
6, 52992, Note_on_c, 4, 58, 64
6, 52992, Note_on_c, 4, 61, 64
6, 53076, Note_off_c, 4, 58, 64
6, 53080, Note_off_c, 4, 61, 64
6, 53080, Note_off_c, 4, 66, 64
6, 53088, Note_on_c, 4, 66, 64
6, 53088, Note_on_c, 4, 61, 64
6, 53088, Note_on_c, 4, 58, 64
6, 53128, Note_off_c, 4, 58, 64
6, 53128, Note_off_c, 4, 61, 64
6, 53128, Note_off_c, 4, 66, 64
6, 53184, Note_on_c, 4, 66, 64
6, 53184, Note_on_c, 4, 58, 64
6, 53184, Note_on_c, 4, 61, 64
6, 53224, Note_off_c, 4, 61, 64
6, 53224, Note_off_c, 4, 58, 64
6, 53224, Note_off_c, 4, 66, 64
6, 53280, Note_on_c, 4, 58, 64
6, 53280, Note_on_c, 4, 66, 64
6, 53280, Note_on_c, 4, 61, 64
6, 53416, Note_off_c, 4, 61, 64
6, 53416, Note_off_c, 4, 66, 64
6, 53416, Note_off_c, 4, 58, 64
6, 53472, Note_on_c, 4, 66, 64
6, 53472, Note_on_c, 4, 61, 64
6, 53472, Note_on_c, 4, 58, 64
6, 53512, Note_off_c, 4, 58, 64
6, 53512, Note_off_c, 4, 61, 64
6, 53512, Note_off_c, 4, 66, 64
6, 53568, Note_on_c, 4, 66, 64
6, 53568, Note_on_c, 4, 61, 64
6, 53568, Note_on_c, 4, 58, 64
6, 53608, Note_off_c, 4, 58, 64
6, 53608, Note_off_c, 4, 61, 64
6, 53608, Note_off_c, 4, 66, 64
6, 53664, Note_on_c, 4, 61, 64
6, 53664, Note_on_c, 4, 66, 64
6, 53664, Note_on_c, 4, 58, 64
6, 53704, Note_off_c, 4, 58, 64
6, 53704, Note_off_c, 4, 66, 64
6, 53704, Note_off_c, 4, 61, 64
6, 53760, Note_on_c, 4, 66, 64
6, 53760, Note_on_c, 4, 58, 64
6, 53760, Note_on_c, 4, 61, 64
6, 53844, Note_off_c, 4, 58, 64
6, 53848, Note_off_c, 4, 61, 64
6, 53848, Note_off_c, 4, 66, 64
6, 53856, Note_on_c, 4, 58, 64
6, 53856, Note_on_c, 4, 66, 64
6, 53856, Note_on_c, 4, 61, 64
6, 53896, Note_off_c, 4, 61, 64
6, 53896, Note_off_c, 4, 66, 64
6, 53896, Note_off_c, 4, 58, 64
6, 53952, Note_on_c, 4, 66, 64
6, 53952, Note_on_c, 4, 61, 64
6, 53952, Note_on_c, 4, 58, 64
6, 53992, Note_off_c, 4, 58, 64
6, 53992, Note_off_c, 4, 61, 64
6, 53992, Note_off_c, 4, 66, 64
6, 54048, Note_on_c, 4, 58, 64
6, 54048, Note_on_c, 4, 66, 64
6, 54048, Note_on_c, 4, 61, 64
6, 54184, Note_off_c, 4, 61, 64
6, 54184, Note_off_c, 4, 66, 64
6, 54184, Note_off_c, 4, 58, 64
6, 54240, Note_on_c, 4, 66, 64
6, 54240, Note_on_c, 4, 61, 64
6, 54240, Note_on_c, 4, 58, 64
6, 54280, Note_off_c, 4, 58, 64
6, 54280, Note_off_c, 4, 61, 64
6, 54280, Note_off_c, 4, 66, 64
6, 54336, Note_on_c, 4, 61, 64
6, 54336, Note_on_c, 4, 66, 64
6, 54336, Note_on_c, 4, 58, 64
6, 54376, Note_off_c, 4, 58, 64
6, 54376, Note_off_c, 4, 66, 64
6, 54376, Note_off_c, 4, 61, 64
6, 54432, Note_on_c, 4, 66, 64
6, 54432, Note_on_c, 4, 61, 64
6, 54432, Note_on_c, 4, 58, 64
6, 54472, Note_off_c, 4, 58, 64
6, 54472, Note_off_c, 4, 61, 64
6, 54472, Note_off_c, 4, 66, 64
6, 54528, Note_on_c, 4, 56, 64
6, 54528, Note_on_c, 4, 63, 64
6, 54528, Note_on_c, 4, 60, 64
6, 54612, Note_off_c, 4, 56, 64
6, 54616, Note_off_c, 4, 60, 64
6, 54616, Note_off_c, 4, 63, 64
6, 54624, Note_on_c, 4, 56, 64
6, 54624, Note_on_c, 4, 61, 64
6, 54624, Note_on_c, 4, 65, 64
6, 54664, Note_off_c, 4, 65, 64
6, 54664, Note_off_c, 4, 61, 64
6, 54664, Note_off_c, 4, 56, 64
6, 54720, Note_on_c, 4, 61, 64
6, 54720, Note_on_c, 4, 56, 64
6, 54720, Note_on_c, 4, 65, 64
6, 54760, Note_off_c, 4, 65, 64
6, 54760, Note_off_c, 4, 56, 64
6, 54760, Note_off_c, 4, 61, 64
6, 54816, Note_on_c, 4, 65, 64
6, 54816, Note_on_c, 4, 56, 64
6, 54816, Note_on_c, 4, 61, 64
6, 54952, Note_off_c, 4, 56, 64
6, 54952, Note_off_c, 4, 65, 64
6, 54956, Note_off_c, 4, 61, 64
6, 55008, Note_on_c, 4, 65, 64
6, 55008, Note_on_c, 4, 56, 64
6, 55008, Note_on_c, 4, 61, 64
6, 55048, Note_off_c, 4, 61, 64
6, 55048, Note_off_c, 4, 56, 64
6, 55048, Note_off_c, 4, 65, 64
6, 55104, Note_on_c, 4, 65, 64
6, 55104, Note_on_c, 4, 61, 64
6, 55104, Note_on_c, 4, 56, 64
6, 55144, Note_off_c, 4, 56, 64
6, 55144, Note_off_c, 4, 61, 64
6, 55144, Note_off_c, 4, 65, 64
6, 55200, Note_on_c, 4, 65, 64
6, 55200, Note_on_c, 4, 61, 64
6, 55200, Note_on_c, 4, 56, 64
6, 55240, Note_off_c, 4, 56, 64
6, 55240, Note_off_c, 4, 61, 64
6, 55240, Note_off_c, 4, 65, 64
6, 62208, Note_on_c, 4, 63, 64
6, 62208, Note_on_c, 4, 56, 64
6, 62208, Note_on_c, 4, 60, 64
6, 62296, Note_off_c, 4, 60, 64
6, 62296, Note_off_c, 4, 56, 64
6, 62296, Note_off_c, 4, 63, 64
6, 62304, Note_on_c, 4, 56, 64
6, 62304, Note_on_c, 4, 61, 64
6, 62304, Note_on_c, 4, 65, 64
6, 62344, Note_off_c, 4, 65, 64
6, 62344, Note_off_c, 4, 61, 64
6, 62344, Note_off_c, 4, 56, 64
6, 62400, Note_on_c, 4, 56, 64
6, 62400, Note_on_c, 4, 61, 64
6, 62400, Note_on_c, 4, 65, 64
6, 62440, Note_off_c, 4, 65, 64
6, 62440, Note_off_c, 4, 61, 64
6, 62440, Note_off_c, 4, 56, 64
6, 62496, Note_on_c, 4, 65, 64
6, 62496, Note_on_c, 4, 61, 64
6, 62496, Note_on_c, 4, 56, 64
6, 62776, Note_off_c, 4, 56, 64
6, 62776, Note_off_c, 4, 61, 64
6, 62776, Note_off_c, 4, 65, 64
6, 62976, Note_on_c, 4, 60, 64
6, 62976, Note_on_c, 4, 63, 64
6, 62976, Note_on_c, 4, 56, 64
6, 63064, Note_off_c, 4, 56, 64
6, 63064, Note_off_c, 4, 63, 64
6, 63064, Note_off_c, 4, 60, 64
6, 63072, Note_on_c, 4, 61, 64
6, 63072, Note_on_c, 4, 56, 64
6, 63072, Note_on_c, 4, 65, 64
6, 63112, Note_off_c, 4, 65, 64
6, 63112, Note_off_c, 4, 56, 64
6, 63112, Note_off_c, 4, 61, 64
6, 63168, Note_on_c, 4, 61, 64
6, 63168, Note_on_c, 4, 65, 64
6, 63168, Note_on_c, 4, 56, 64
6, 63208, Note_off_c, 4, 56, 64
6, 63208, Note_off_c, 4, 65, 64
6, 63208, Note_off_c, 4, 61, 64
6, 63264, Note_on_c, 4, 61, 64
6, 63264, Note_on_c, 4, 65, 64
6, 63264, Note_on_c, 4, 56, 64
6, 63544, Note_off_c, 4, 56, 64
6, 63544, Note_off_c, 4, 65, 64
6, 63544, Note_off_c, 4, 61, 64
6, 63744, Note_on_c, 4, 56, 64
6, 63744, Note_on_c, 4, 61, 64
6, 63744, Note_on_c, 4, 65, 64
6, 63832, Note_off_c, 4, 65, 64
6, 63832, Note_off_c, 4, 61, 64
6, 63832, Note_off_c, 4, 56, 64
6, 63840, Note_on_c, 4, 66, 64
6, 63840, Note_on_c, 4, 58, 64
6, 63840, Note_on_c, 4, 61, 64
6, 63880, Note_off_c, 4, 61, 64
6, 63880, Note_off_c, 4, 58, 64
6, 63880, Note_off_c, 4, 66, 64
6, 63936, Note_on_c, 4, 66, 64
6, 63936, Note_on_c, 4, 61, 64
6, 63936, Note_on_c, 4, 58, 64
6, 63976, Note_off_c, 4, 58, 64
6, 63976, Note_off_c, 4, 61, 64
6, 63976, Note_off_c, 4, 66, 64
6, 64032, Note_on_c, 4, 66, 64
6, 64032, Note_on_c, 4, 61, 64
6, 64032, Note_on_c, 4, 58, 64
6, 64312, Note_off_c, 4, 58, 64
6, 64312, Note_off_c, 4, 61, 64
6, 64312, Note_off_c, 4, 66, 64
6, 64512, Note_on_c, 4, 61, 64
6, 64512, Note_on_c, 4, 56, 64
6, 64512, Note_on_c, 4, 65, 64
6, 64600, Note_off_c, 4, 65, 64
6, 64600, Note_off_c, 4, 56, 64
6, 64600, Note_off_c, 4, 61, 64
6, 64608, Note_on_c, 4, 61, 64
6, 64608, Note_on_c, 4, 66, 64
6, 64608, Note_on_c, 4, 58, 64
6, 64648, Note_off_c, 4, 58, 64
6, 64648, Note_off_c, 4, 66, 64
6, 64648, Note_off_c, 4, 61, 64
6, 64704, Note_on_c, 4, 66, 64
6, 64704, Note_on_c, 4, 58, 64
6, 64704, Note_on_c, 4, 61, 64
6, 64744, Note_off_c, 4, 61, 64
6, 64744, Note_off_c, 4, 58, 64
6, 64744, Note_off_c, 4, 66, 64
6, 64800, Note_on_c, 4, 66, 64
6, 64800, Note_on_c, 4, 61, 64
6, 64800, Note_on_c, 4, 58, 64
6, 65080, Note_off_c, 4, 58, 64
6, 65080, Note_off_c, 4, 61, 64
6, 65080, Note_off_c, 4, 66, 64
6, 65280, Note_on_c, 4, 58, 64
6, 65280, Note_on_c, 4, 66, 64
6, 65280, Note_on_c, 4, 61, 64
6, 65368, Note_off_c, 4, 61, 64
6, 65368, Note_off_c, 4, 66, 64
6, 65368, Note_off_c, 4, 58, 64
6, 65376, Note_on_c, 4, 58, 64
6, 65376, Note_on_c, 4, 61, 64
6, 65376, Note_on_c, 4, 66, 64
6, 65416, Note_off_c, 4, 66, 64
6, 65416, Note_off_c, 4, 61, 64
6, 65416, Note_off_c, 4, 58, 64
6, 65472, Note_on_c, 4, 66, 64
6, 65472, Note_on_c, 4, 58, 64
6, 65472, Note_on_c, 4, 61, 64
6, 65512, Note_off_c, 4, 61, 64
6, 65512, Note_off_c, 4, 58, 64
6, 65512, Note_off_c, 4, 66, 64
6, 65568, Note_on_c, 4, 61, 64
6, 65568, Note_on_c, 4, 66, 64
6, 65568, Note_on_c, 4, 58, 64
6, 65704, Note_off_c, 4, 58, 64
6, 65704, Note_off_c, 4, 66, 64
6, 65704, Note_off_c, 4, 61, 64
6, 65760, Note_on_c, 4, 58, 64
6, 65760, Note_on_c, 4, 66, 64
6, 65760, Note_on_c, 4, 61, 64
6, 65800, Note_off_c, 4, 61, 64
6, 65800, Note_off_c, 4, 66, 64
6, 65800, Note_off_c, 4, 58, 64
6, 65856, Note_on_c, 4, 61, 64
6, 65856, Note_on_c, 4, 66, 64
6, 65856, Note_on_c, 4, 58, 64
6, 65896, Note_off_c, 4, 58, 64
6, 65896, Note_off_c, 4, 66, 64
6, 65896, Note_off_c, 4, 61, 64
6, 65952, Note_on_c, 4, 61, 64
6, 65952, Note_on_c, 4, 66, 64
6, 65952, Note_on_c, 4, 58, 64
6, 65992, Note_off_c, 4, 58, 64
6, 65992, Note_off_c, 4, 66, 64
6, 65992, Note_off_c, 4, 61, 64
6, 66048, Note_on_c, 4, 66, 64
6, 66048, Note_on_c, 4, 61, 64
6, 66048, Note_on_c, 4, 58, 64
6, 66136, Note_off_c, 4, 58, 64
6, 66136, Note_off_c, 4, 61, 64
6, 66136, Note_off_c, 4, 66, 64
6, 66144, Note_on_c, 4, 66, 64
6, 66144, Note_on_c, 4, 58, 64
6, 66144, Note_on_c, 4, 61, 64
6, 66184, Note_off_c, 4, 61, 64
6, 66184, Note_off_c, 4, 58, 64
6, 66184, Note_off_c, 4, 66, 64
6, 66240, Note_on_c, 4, 66, 64
6, 66240, Note_on_c, 4, 61, 64
6, 66240, Note_on_c, 4, 58, 64
6, 66280, Note_off_c, 4, 58, 64
6, 66280, Note_off_c, 4, 61, 64
6, 66280, Note_off_c, 4, 66, 64
6, 66336, Note_on_c, 4, 58, 64
6, 66336, Note_on_c, 4, 61, 64
6, 66336, Note_on_c, 4, 66, 64
6, 66472, Note_off_c, 4, 66, 64
6, 66472, Note_off_c, 4, 61, 64
6, 66472, Note_off_c, 4, 58, 64
6, 66528, Note_on_c, 4, 66, 64
6, 66528, Note_on_c, 4, 61, 64
6, 66528, Note_on_c, 4, 58, 64
6, 66568, Note_off_c, 4, 58, 64
6, 66568, Note_off_c, 4, 61, 64
6, 66568, Note_off_c, 4, 66, 64
6, 66624, Note_on_c, 4, 61, 64
6, 66624, Note_on_c, 4, 66, 64
6, 66624, Note_on_c, 4, 58, 64
6, 66664, Note_off_c, 4, 58, 64
6, 66664, Note_off_c, 4, 66, 64
6, 66664, Note_off_c, 4, 61, 64
6, 66720, Note_on_c, 4, 66, 64
6, 66720, Note_on_c, 4, 61, 64
6, 66720, Note_on_c, 4, 58, 64
6, 66760, Note_off_c, 4, 58, 64
6, 66760, Note_off_c, 4, 61, 64
6, 66760, Note_off_c, 4, 66, 64
6, 66816, Note_on_c, 4, 60, 64
6, 66816, Note_on_c, 4, 56, 64
6, 66816, Note_on_c, 4, 63, 64
6, 66904, Note_off_c, 4, 63, 64
6, 66904, Note_off_c, 4, 56, 64
6, 66904, Note_off_c, 4, 60, 64
6, 66912, Note_on_c, 4, 56, 64
6, 66912, Note_on_c, 4, 65, 64
6, 66912, Note_on_c, 4, 61, 64
6, 66952, Note_off_c, 4, 61, 64
6, 66952, Note_off_c, 4, 65, 64
6, 66952, Note_off_c, 4, 56, 64
6, 67008, Note_on_c, 4, 65, 64
6, 67008, Note_on_c, 4, 56, 64
6, 67008, Note_on_c, 4, 61, 64
6, 67048, Note_off_c, 4, 61, 64
6, 67048, Note_off_c, 4, 56, 64
6, 67048, Note_off_c, 4, 65, 64
6, 67104, Note_on_c, 4, 65, 64
6, 67104, Note_on_c, 4, 56, 64
6, 67104, Note_on_c, 4, 61, 64
6, 67240, Note_off_c, 4, 61, 64
6, 67240, Note_off_c, 4, 56, 64
6, 67240, Note_off_c, 4, 65, 64
6, 67296, Note_on_c, 4, 65, 64
6, 67296, Note_on_c, 4, 56, 64
6, 67296, Note_on_c, 4, 61, 64
6, 67336, Note_off_c, 4, 61, 64
6, 67336, Note_off_c, 4, 56, 64
6, 67336, Note_off_c, 4, 65, 64
6, 67392, Note_on_c, 4, 65, 64
6, 67392, Note_on_c, 4, 56, 64
6, 67392, Note_on_c, 4, 61, 64
6, 67432, Note_off_c, 4, 61, 64
6, 67432, Note_off_c, 4, 56, 64
6, 67432, Note_off_c, 4, 65, 64
6, 67488, Note_on_c, 4, 56, 64
6, 67488, Note_on_c, 4, 65, 64
6, 67488, Note_on_c, 4, 61, 64
6, 67528, Note_off_c, 4, 61, 64
6, 67528, Note_off_c, 4, 65, 64
6, 67528, Note_off_c, 4, 56, 64
6, 67584, Note_on_c, 4, 60, 64
6, 67584, Note_on_c, 4, 63, 64
6, 67584, Note_on_c, 4, 57, 64
6, 67672, Note_off_c, 4, 57, 64
6, 67672, Note_off_c, 4, 63, 64
6, 67672, Note_off_c, 4, 60, 64
6, 67680, Note_on_c, 4, 61, 64
6, 67680, Note_on_c, 4, 57, 64
6, 67680, Note_on_c, 4, 65, 64
6, 67720, Note_off_c, 4, 65, 64
6, 67720, Note_off_c, 4, 57, 64
6, 67720, Note_off_c, 4, 61, 64
6, 67776, Note_on_c, 4, 57, 64
6, 67776, Note_on_c, 4, 61, 64
6, 67776, Note_on_c, 4, 65, 64
6, 67816, Note_off_c, 4, 65, 64
6, 67816, Note_off_c, 4, 61, 64
6, 67816, Note_off_c, 4, 57, 64
6, 67872, Note_on_c, 4, 61, 64
6, 67872, Note_on_c, 4, 57, 64
6, 67872, Note_on_c, 4, 65, 64
6, 68008, Note_off_c, 4, 65, 64
6, 68008, Note_off_c, 4, 57, 64
6, 68008, Note_off_c, 4, 61, 64
6, 68064, Note_on_c, 4, 57, 64
6, 68064, Note_on_c, 4, 61, 64
6, 68064, Note_on_c, 4, 65, 64
6, 68104, Note_off_c, 4, 65, 64
6, 68104, Note_off_c, 4, 61, 64
6, 68104, Note_off_c, 4, 57, 64
6, 68160, Note_on_c, 4, 57, 64
6, 68160, Note_on_c, 4, 61, 64
6, 68160, Note_on_c, 4, 65, 64
6, 68200, Note_off_c, 4, 65, 64
6, 68200, Note_off_c, 4, 61, 64
6, 68200, Note_off_c, 4, 57, 64
6, 68256, Note_on_c, 4, 57, 64
6, 68256, Note_on_c, 4, 61, 64
6, 68256, Note_on_c, 4, 65, 64
6, 68296, Note_off_c, 4, 65, 64
6, 68296, Note_off_c, 4, 61, 64
6, 68296, Note_off_c, 4, 57, 64
6, 68448, Note_on_c, 4, 56, 64
6, 68448, Note_on_c, 4, 61, 64
6, 68448, Note_on_c, 4, 65, 64
6, 68488, Note_off_c, 4, 65, 64
6, 68488, Note_off_c, 4, 61, 64
6, 68488, Note_off_c, 4, 56, 64
6, 68544, Note_on_c, 4, 61, 64
6, 68544, Note_on_c, 4, 65, 64
6, 68544, Note_on_c, 4, 56, 64
6, 68584, Note_off_c, 4, 56, 64
6, 68584, Note_off_c, 4, 65, 64
6, 68584, Note_off_c, 4, 61, 64
6, 68640, Note_on_c, 4, 65, 64
6, 68640, Note_on_c, 4, 61, 64
6, 68640, Note_on_c, 4, 56, 64
6, 68920, Note_off_c, 4, 56, 64
6, 68920, Note_off_c, 4, 61, 64
6, 68920, Note_off_c, 4, 65, 64
6, 69120, Note_on_c, 4, 63, 64
6, 69120, Note_on_c, 4, 60, 64
6, 69120, Note_on_c, 4, 56, 64
6, 69208, Note_off_c, 4, 56, 64
6, 69208, Note_off_c, 4, 60, 64
6, 69208, Note_off_c, 4, 63, 64
6, 69216, Note_on_c, 4, 56, 64
6, 69216, Note_on_c, 4, 65, 64
6, 69216, Note_on_c, 4, 61, 64
6, 69256, Note_off_c, 4, 61, 64
6, 69256, Note_off_c, 4, 65, 64
6, 69256, Note_off_c, 4, 56, 64
6, 69312, Note_on_c, 4, 61, 64
6, 69312, Note_on_c, 4, 65, 64
6, 69312, Note_on_c, 4, 56, 64
6, 69352, Note_off_c, 4, 56, 64
6, 69352, Note_off_c, 4, 65, 64
6, 69352, Note_off_c, 4, 61, 64
6, 69408, Note_on_c, 4, 65, 64
6, 69408, Note_on_c, 4, 61, 64
6, 69408, Note_on_c, 4, 56, 64
6, 69688, Note_off_c, 4, 56, 64
6, 69688, Note_off_c, 4, 61, 64
6, 69688, Note_off_c, 4, 65, 64
6, 69888, Note_on_c, 4, 61, 64
6, 69888, Note_on_c, 4, 65, 64
6, 69888, Note_on_c, 4, 56, 64
6, 69976, Note_off_c, 4, 56, 64
6, 69976, Note_off_c, 4, 65, 64
6, 69976, Note_off_c, 4, 61, 64
6, 69984, Note_on_c, 4, 58, 64
6, 69984, Note_on_c, 4, 66, 64
6, 69984, Note_on_c, 4, 61, 64
6, 70024, Note_off_c, 4, 61, 64
6, 70024, Note_off_c, 4, 66, 64
6, 70024, Note_off_c, 4, 58, 64
6, 70080, Note_on_c, 4, 66, 64
6, 70080, Note_on_c, 4, 61, 64
6, 70080, Note_on_c, 4, 58, 64
6, 70120, Note_off_c, 4, 58, 64
6, 70120, Note_off_c, 4, 61, 64
6, 70120, Note_off_c, 4, 66, 64
6, 70176, Note_on_c, 4, 66, 64
6, 70176, Note_on_c, 4, 58, 64
6, 70176, Note_on_c, 4, 61, 64
6, 70452, Note_off_c, 4, 58, 64
6, 70452, Note_off_c, 4, 66, 64
6, 70456, Note_off_c, 4, 61, 64
6, 70656, Note_on_c, 4, 61, 64
6, 70656, Note_on_c, 4, 65, 64
6, 70656, Note_on_c, 4, 56, 64
6, 70740, Note_off_c, 4, 56, 64
6, 70744, Note_off_c, 4, 65, 64
6, 70744, Note_off_c, 4, 61, 64
6, 70752, Note_on_c, 4, 66, 64
6, 70752, Note_on_c, 4, 61, 64
6, 70752, Note_on_c, 4, 58, 64
6, 70792, Note_off_c, 4, 58, 64
6, 70792, Note_off_c, 4, 61, 64
6, 70792, Note_off_c, 4, 66, 64
6, 70848, Note_on_c, 4, 61, 64
6, 70848, Note_on_c, 4, 66, 64
6, 70848, Note_on_c, 4, 58, 64
6, 70888, Note_off_c, 4, 58, 64
6, 70888, Note_off_c, 4, 66, 64
6, 70888, Note_off_c, 4, 61, 64
6, 70944, Note_on_c, 4, 66, 64
6, 70944, Note_on_c, 4, 58, 64
6, 70944, Note_on_c, 4, 61, 64
6, 71220, Note_off_c, 4, 61, 64
6, 71220, Note_off_c, 4, 58, 64
6, 71220, Note_off_c, 4, 66, 64
6, 71424, Note_on_c, 4, 66, 64
6, 71424, Note_on_c, 4, 58, 64
6, 71424, Note_on_c, 4, 61, 64
6, 71508, Note_off_c, 4, 58, 64
6, 71512, Note_off_c, 4, 61, 64
6, 71512, Note_off_c, 4, 66, 64
6, 71520, Note_on_c, 4, 66, 64
6, 71520, Note_on_c, 4, 61, 64
6, 71520, Note_on_c, 4, 58, 64
6, 71560, Note_off_c, 4, 58, 64
6, 71560, Note_off_c, 4, 61, 64
6, 71560, Note_off_c, 4, 66, 64
6, 71616, Note_on_c, 4, 66, 64
6, 71616, Note_on_c, 4, 58, 64
6, 71616, Note_on_c, 4, 61, 64
6, 71656, Note_off_c, 4, 61, 64
6, 71656, Note_off_c, 4, 58, 64
6, 71656, Note_off_c, 4, 66, 64
6, 71712, Note_on_c, 4, 58, 64
6, 71712, Note_on_c, 4, 66, 64
6, 71712, Note_on_c, 4, 61, 64
6, 71848, Note_off_c, 4, 61, 64
6, 71848, Note_off_c, 4, 66, 64
6, 71848, Note_off_c, 4, 58, 64
6, 71904, Note_on_c, 4, 66, 64
6, 71904, Note_on_c, 4, 61, 64
6, 71904, Note_on_c, 4, 58, 64
6, 71944, Note_off_c, 4, 58, 64
6, 71944, Note_off_c, 4, 61, 64
6, 71944, Note_off_c, 4, 66, 64
6, 72000, Note_on_c, 4, 66, 64
6, 72000, Note_on_c, 4, 61, 64
6, 72000, Note_on_c, 4, 58, 64
6, 72040, Note_off_c, 4, 58, 64
6, 72040, Note_off_c, 4, 61, 64
6, 72040, Note_off_c, 4, 66, 64
6, 72096, Note_on_c, 4, 61, 64
6, 72096, Note_on_c, 4, 66, 64
6, 72096, Note_on_c, 4, 58, 64
6, 72136, Note_off_c, 4, 58, 64
6, 72136, Note_off_c, 4, 66, 64
6, 72136, Note_off_c, 4, 61, 64
6, 72192, Note_on_c, 4, 66, 64
6, 72192, Note_on_c, 4, 58, 64
6, 72192, Note_on_c, 4, 61, 64
6, 72276, Note_off_c, 4, 58, 64
6, 72280, Note_off_c, 4, 61, 64
6, 72280, Note_off_c, 4, 66, 64
6, 72288, Note_on_c, 4, 58, 64
6, 72288, Note_on_c, 4, 66, 64
6, 72288, Note_on_c, 4, 61, 64
6, 72328, Note_off_c, 4, 61, 64
6, 72328, Note_off_c, 4, 66, 64
6, 72328, Note_off_c, 4, 58, 64
6, 72384, Note_on_c, 4, 66, 64
6, 72384, Note_on_c, 4, 61, 64
6, 72384, Note_on_c, 4, 58, 64
6, 72424, Note_off_c, 4, 58, 64
6, 72424, Note_off_c, 4, 61, 64
6, 72424, Note_off_c, 4, 66, 64
6, 72480, Note_on_c, 4, 58, 64
6, 72480, Note_on_c, 4, 66, 64
6, 72480, Note_on_c, 4, 61, 64
6, 72616, Note_off_c, 4, 61, 64
6, 72616, Note_off_c, 4, 66, 64
6, 72616, Note_off_c, 4, 58, 64
6, 72672, Note_on_c, 4, 66, 64
6, 72672, Note_on_c, 4, 61, 64
6, 72672, Note_on_c, 4, 58, 64
6, 72712, Note_off_c, 4, 58, 64
6, 72712, Note_off_c, 4, 61, 64
6, 72712, Note_off_c, 4, 66, 64
6, 72768, Note_on_c, 4, 61, 64
6, 72768, Note_on_c, 4, 66, 64
6, 72768, Note_on_c, 4, 58, 64
6, 72808, Note_off_c, 4, 58, 64
6, 72808, Note_off_c, 4, 66, 64
6, 72808, Note_off_c, 4, 61, 64
6, 72864, Note_on_c, 4, 66, 64
6, 72864, Note_on_c, 4, 61, 64
6, 72864, Note_on_c, 4, 58, 64
6, 72904, Note_off_c, 4, 58, 64
6, 72904, Note_off_c, 4, 61, 64
6, 72904, Note_off_c, 4, 66, 64
6, 72960, Note_on_c, 4, 56, 64
6, 72960, Note_on_c, 4, 63, 64
6, 72960, Note_on_c, 4, 60, 64
6, 73044, Note_off_c, 4, 56, 64
6, 73048, Note_off_c, 4, 60, 64
6, 73048, Note_off_c, 4, 63, 64
6, 73056, Note_on_c, 4, 56, 64
6, 73056, Note_on_c, 4, 61, 64
6, 73056, Note_on_c, 4, 65, 64
6, 73096, Note_off_c, 4, 65, 64
6, 73096, Note_off_c, 4, 61, 64
6, 73096, Note_off_c, 4, 56, 64
6, 73152, Note_on_c, 4, 61, 64
6, 73152, Note_on_c, 4, 56, 64
6, 73152, Note_on_c, 4, 65, 64
6, 73192, Note_off_c, 4, 65, 64
6, 73192, Note_off_c, 4, 56, 64
6, 73192, Note_off_c, 4, 61, 64
6, 73248, Note_on_c, 4, 65, 64
6, 73248, Note_on_c, 4, 56, 64
6, 73248, Note_on_c, 4, 61, 64
6, 73384, Note_off_c, 4, 56, 64
6, 73384, Note_off_c, 4, 65, 64
6, 73388, Note_off_c, 4, 61, 64
6, 73440, Note_on_c, 4, 65, 64
6, 73440, Note_on_c, 4, 56, 64
6, 73440, Note_on_c, 4, 61, 64
6, 73480, Note_off_c, 4, 61, 64
6, 73480, Note_off_c, 4, 56, 64
6, 73480, Note_off_c, 4, 65, 64
6, 73536, Note_on_c, 4, 65, 64
6, 73536, Note_on_c, 4, 61, 64
6, 73536, Note_on_c, 4, 56, 64
6, 73576, Note_off_c, 4, 56, 64
6, 73576, Note_off_c, 4, 61, 64
6, 73576, Note_off_c, 4, 65, 64
6, 73632, Note_on_c, 4, 65, 64
6, 73632, Note_on_c, 4, 61, 64
6, 73632, Note_on_c, 4, 56, 64
6, 73672, Note_off_c, 4, 56, 64
6, 73672, Note_off_c, 4, 61, 64
6, 73672, Note_off_c, 4, 65, 64
6, 73672, End_track
7, 0, Start_track
7, 0, Text_t, "Vox Cue2"
7, 0, Control_c, 5, 121, 0
7, 132, Program_c, 5, 73
7, 152, Control_c, 5, 7, 100
7, 172, Control_c, 5, 10, 64
7, 15360, Note_on_c, 5, 68, 70
7, 15360, Note_on_c, 5, 75, 70
7, 15496, Note_off_c, 5, 75, 70
7, 15496, Note_off_c, 5, 68, 70
7, 15504, Note_on_c, 5, 66, 70
7, 15504, Note_on_c, 5, 73, 70
7, 15640, Note_off_c, 5, 66, 70
7, 15648, Note_off_c, 5, 73, 70
7, 15648, Note_on_c, 5, 65, 70
7, 15648, Note_on_c, 5, 72, 70
7, 15928, Note_off_c, 5, 72, 70
7, 15928, Note_off_c, 5, 65, 70
7, 19200, Note_on_c, 5, 72, 70
7, 19200, Note_on_c, 5, 68, 70
7, 19280, Note_off_c, 5, 68, 70
7, 19280, Note_off_c, 5, 72, 70
7, 19296, Note_on_c, 5, 73, 70
7, 19296, Note_on_c, 5, 68, 70
7, 19376, Note_off_c, 5, 68, 70
7, 19376, Note_off_c, 5, 73, 70
7, 19392, Note_on_c, 5, 73, 70
7, 19392, Note_on_c, 5, 68, 70
7, 19472, Note_off_c, 5, 68, 70
7, 19472, Note_off_c, 5, 73, 70
7, 19488, Note_on_c, 5, 73, 70
7, 19488, Note_on_c, 5, 68, 70
7, 19760, Note_off_c, 5, 68, 70
7, 19760, Note_off_c, 5, 73, 70
7, 19776, Note_on_c, 5, 72, 70
7, 19776, Note_on_c, 5, 68, 70
7, 19856, Note_off_c, 5, 68, 70
7, 19856, Note_off_c, 5, 72, 70
7, 19872, Note_on_c, 5, 73, 70
7, 19872, Note_on_c, 5, 68, 70
7, 20240, Note_off_c, 5, 68, 70
7, 20240, Note_off_c, 5, 73, 70
7, 20352, Note_on_c, 5, 72, 70
7, 20352, Note_on_c, 5, 68, 70
7, 20528, Note_off_c, 5, 68, 70
7, 20528, Note_off_c, 5, 72, 70
7, 20544, Note_on_c, 5, 73, 70
7, 20544, Note_on_c, 5, 68, 70
7, 20720, Note_off_c, 5, 68, 70
7, 20720, Note_off_c, 5, 73, 70
7, 20736, Note_on_c, 5, 73, 70
7, 20736, Note_on_c, 5, 68, 70
7, 20816, Note_off_c, 5, 68, 70
7, 20816, Note_off_c, 5, 73, 70
7, 20832, Note_on_c, 5, 73, 70
7, 20832, Note_on_c, 5, 70, 70
7, 20912, Note_off_c, 5, 70, 70
7, 20912, Note_off_c, 5, 73, 70
7, 20928, Note_on_c, 5, 73, 70
7, 20928, Note_on_c, 5, 70, 70
7, 21008, Note_off_c, 5, 70, 70
7, 21008, Note_off_c, 5, 73, 70
7, 21024, Note_on_c, 5, 73, 70
7, 21024, Note_on_c, 5, 70, 70
7, 21296, Note_off_c, 5, 70, 70
7, 21296, Note_off_c, 5, 73, 70
7, 21312, Note_on_c, 5, 73, 70
7, 21312, Note_on_c, 5, 68, 70
7, 21392, Note_off_c, 5, 68, 70
7, 21392, Note_off_c, 5, 73, 70
7, 21408, Note_on_c, 5, 73, 70
7, 21408, Note_on_c, 5, 70, 70
7, 21872, Note_off_c, 5, 70, 70
7, 21872, Note_off_c, 5, 73, 70
7, 22272, Note_on_c, 5, 82, 70
7, 22272, Note_on_c, 5, 73, 70
7, 22352, Note_off_c, 5, 73, 70
7, 22352, Note_off_c, 5, 82, 70
7, 22368, Note_on_c, 5, 82, 70
7, 22368, Note_on_c, 5, 73, 70
7, 22448, Note_off_c, 5, 73, 70
7, 22448, Note_off_c, 5, 82, 70
7, 22464, Note_on_c, 5, 82, 70
7, 22464, Note_on_c, 5, 73, 70
7, 22544, Note_off_c, 5, 73, 70
7, 22544, Note_off_c, 5, 82, 70
7, 22560, Note_on_c, 5, 82, 70
7, 22560, Note_on_c, 5, 73, 70
7, 22928, Note_off_c, 5, 73, 70
7, 22928, Note_off_c, 5, 82, 70
7, 23040, Note_on_c, 5, 82, 70
7, 23040, Note_on_c, 5, 73, 70
7, 23120, Note_off_c, 5, 73, 70
7, 23120, Note_off_c, 5, 82, 70
7, 23136, Note_on_c, 5, 73, 70
7, 23136, Note_on_c, 5, 82, 70
7, 23216, Note_off_c, 5, 82, 70
7, 23216, Note_off_c, 5, 73, 70
7, 23232, Note_on_c, 5, 73, 70
7, 23232, Note_on_c, 5, 82, 70
7, 23312, Note_off_c, 5, 82, 70
7, 23312, Note_off_c, 5, 73, 70
7, 23328, Note_on_c, 5, 73, 70
7, 23328, Note_on_c, 5, 82, 70
7, 23696, Note_off_c, 5, 82, 70
7, 23696, Note_off_c, 5, 73, 70
7, 23808, Note_on_c, 5, 80, 70
7, 23808, Note_on_c, 5, 72, 70
7, 23888, Note_off_c, 5, 72, 70
7, 23888, Note_off_c, 5, 80, 70
7, 23904, Note_on_c, 5, 73, 70
7, 23904, Note_on_c, 5, 80, 70
7, 23984, Note_off_c, 5, 80, 70
7, 23984, Note_off_c, 5, 73, 70
7, 24000, Note_on_c, 5, 80, 70
7, 24000, Note_on_c, 5, 73, 70
7, 24080, Note_off_c, 5, 73, 70
7, 24080, Note_off_c, 5, 80, 70
7, 24096, Note_on_c, 5, 80, 70
7, 24096, Note_on_c, 5, 73, 70
7, 24560, Note_off_c, 5, 73, 70
7, 24560, Note_off_c, 5, 80, 70
7, 25344, Note_on_c, 5, 68, 70
7, 25344, Note_on_c, 5, 72, 70
7, 25424, Note_off_c, 5, 72, 70
7, 25424, Note_off_c, 5, 68, 70
7, 25440, Note_on_c, 5, 73, 70
7, 25440, Note_on_c, 5, 68, 70
7, 25520, Note_off_c, 5, 68, 70
7, 25520, Note_off_c, 5, 73, 70
7, 25536, Note_on_c, 5, 68, 70
7, 25536, Note_on_c, 5, 73, 70
7, 25616, Note_off_c, 5, 73, 70
7, 25616, Note_off_c, 5, 68, 70
7, 25632, Note_on_c, 5, 73, 70
7, 25632, Note_on_c, 5, 68, 70
7, 25904, Note_off_c, 5, 68, 70
7, 25904, Note_off_c, 5, 73, 70
7, 25920, Note_on_c, 5, 72, 70
7, 25920, Note_on_c, 5, 68, 70
7, 26000, Note_off_c, 5, 68, 70
7, 26000, Note_off_c, 5, 72, 70
7, 26016, Note_on_c, 5, 73, 70
7, 26016, Note_on_c, 5, 68, 70
7, 26384, Note_off_c, 5, 68, 70
7, 26384, Note_off_c, 5, 73, 70
7, 26496, Note_on_c, 5, 72, 70
7, 26496, Note_on_c, 5, 68, 70
7, 26672, Note_off_c, 5, 68, 70
7, 26672, Note_off_c, 5, 72, 70
7, 26688, Note_on_c, 5, 68, 70
7, 26688, Note_on_c, 5, 73, 70
7, 26864, Note_off_c, 5, 73, 70
7, 26864, Note_off_c, 5, 68, 70
7, 26880, Note_on_c, 5, 73, 70
7, 26880, Note_on_c, 5, 68, 70
7, 26960, Note_off_c, 5, 68, 70
7, 26960, Note_off_c, 5, 73, 70
7, 26976, Note_on_c, 5, 73, 70
7, 26976, Note_on_c, 5, 70, 70
7, 27056, Note_off_c, 5, 70, 70
7, 27056, Note_off_c, 5, 73, 70
7, 27072, Note_on_c, 5, 70, 70
7, 27072, Note_on_c, 5, 73, 70
7, 27152, Note_off_c, 5, 73, 70
7, 27152, Note_off_c, 5, 70, 70
7, 27168, Note_on_c, 5, 70, 70
7, 27168, Note_on_c, 5, 73, 70
7, 27440, Note_off_c, 5, 73, 70
7, 27440, Note_off_c, 5, 70, 70
7, 27456, Note_on_c, 5, 72, 70
7, 27456, Note_on_c, 5, 68, 70
7, 27536, Note_off_c, 5, 68, 70
7, 27536, Note_off_c, 5, 72, 70
7, 27552, Note_on_c, 5, 70, 70
7, 27552, Note_on_c, 5, 73, 70
7, 28016, Note_off_c, 5, 73, 70
7, 28016, Note_off_c, 5, 70, 70
7, 28416, Note_on_c, 5, 73, 70
7, 28416, Note_on_c, 5, 82, 70
7, 28496, Note_off_c, 5, 82, 70
7, 28496, Note_off_c, 5, 73, 70
7, 28512, Note_on_c, 5, 73, 70
7, 28512, Note_on_c, 5, 82, 70
7, 28592, Note_off_c, 5, 82, 70
7, 28592, Note_off_c, 5, 73, 70
7, 28608, Note_on_c, 5, 73, 70
7, 28608, Note_on_c, 5, 82, 70
7, 28688, Note_off_c, 5, 82, 70
7, 28688, Note_off_c, 5, 73, 70
7, 28704, Note_on_c, 5, 73, 70
7, 28704, Note_on_c, 5, 82, 70
7, 29072, Note_off_c, 5, 82, 70
7, 29072, Note_off_c, 5, 73, 70
7, 29184, Note_on_c, 5, 73, 70
7, 29184, Note_on_c, 5, 82, 70
7, 29264, Note_off_c, 5, 82, 70
7, 29264, Note_off_c, 5, 73, 70
7, 29280, Note_on_c, 5, 73, 70
7, 29280, Note_on_c, 5, 82, 70
7, 29360, Note_off_c, 5, 82, 70
7, 29360, Note_off_c, 5, 73, 70
7, 29376, Note_on_c, 5, 73, 70
7, 29376, Note_on_c, 5, 82, 70
7, 29456, Note_off_c, 5, 82, 70
7, 29456, Note_off_c, 5, 73, 70
7, 29472, Note_on_c, 5, 82, 70
7, 29472, Note_on_c, 5, 73, 70
7, 29840, Note_off_c, 5, 73, 70
7, 29840, Note_off_c, 5, 82, 70
7, 29952, Note_on_c, 5, 80, 70
7, 29952, Note_on_c, 5, 72, 70
7, 30032, Note_off_c, 5, 72, 70
7, 30032, Note_off_c, 5, 80, 70
7, 30048, Note_on_c, 5, 73, 70
7, 30048, Note_on_c, 5, 80, 70
7, 30128, Note_off_c, 5, 80, 70
7, 30128, Note_off_c, 5, 73, 70
7, 30144, Note_on_c, 5, 80, 70
7, 30144, Note_on_c, 5, 73, 70
7, 30224, Note_off_c, 5, 73, 70
7, 30224, Note_off_c, 5, 80, 70
7, 30240, Note_on_c, 5, 80, 70
7, 30240, Note_on_c, 5, 73, 70
7, 30704, Note_off_c, 5, 73, 70
7, 30704, Note_off_c, 5, 80, 70
7, 39936, Note_on_c, 5, 75, 70
7, 39936, Note_on_c, 5, 68, 70
7, 40072, Note_off_c, 5, 68, 70
7, 40072, Note_off_c, 5, 75, 70
7, 40080, Note_on_c, 5, 73, 70
7, 40080, Note_on_c, 5, 66, 70
7, 40216, Note_off_c, 5, 66, 70
7, 40224, Note_off_c, 5, 73, 70
7, 40224, Note_on_c, 5, 72, 70
7, 40224, Note_on_c, 5, 65, 70
7, 40504, Note_off_c, 5, 65, 70
7, 40504, Note_off_c, 5, 72, 70
7, 43776, Note_on_c, 5, 72, 70
7, 43776, Note_on_c, 5, 68, 70
7, 43856, Note_off_c, 5, 68, 70
7, 43856, Note_off_c, 5, 72, 70
7, 43872, Note_on_c, 5, 73, 70
7, 43872, Note_on_c, 5, 68, 70
7, 43952, Note_off_c, 5, 68, 70
7, 43952, Note_off_c, 5, 73, 70
7, 43968, Note_on_c, 5, 73, 70
7, 43968, Note_on_c, 5, 68, 70
7, 44048, Note_off_c, 5, 68, 70
7, 44048, Note_off_c, 5, 73, 70
7, 44064, Note_on_c, 5, 73, 70
7, 44064, Note_on_c, 5, 68, 70
7, 44336, Note_off_c, 5, 68, 70
7, 44336, Note_off_c, 5, 73, 70
7, 44352, Note_on_c, 5, 72, 70
7, 44352, Note_on_c, 5, 68, 70
7, 44432, Note_off_c, 5, 68, 70
7, 44432, Note_off_c, 5, 72, 70
7, 44448, Note_on_c, 5, 73, 70
7, 44448, Note_on_c, 5, 68, 70
7, 44816, Note_off_c, 5, 68, 70
7, 44816, Note_off_c, 5, 73, 70
7, 44928, Note_on_c, 5, 72, 70
7, 44928, Note_on_c, 5, 68, 70
7, 45104, Note_off_c, 5, 68, 70
7, 45104, Note_off_c, 5, 72, 70
7, 45120, Note_on_c, 5, 73, 70
7, 45120, Note_on_c, 5, 68, 70
7, 45296, Note_off_c, 5, 68, 70
7, 45296, Note_off_c, 5, 73, 70
7, 45312, Note_on_c, 5, 73, 70
7, 45312, Note_on_c, 5, 68, 70
7, 45392, Note_off_c, 5, 68, 70
7, 45392, Note_off_c, 5, 73, 70
7, 45408, Note_on_c, 5, 73, 70
7, 45408, Note_on_c, 5, 70, 70
7, 45488, Note_off_c, 5, 70, 70
7, 45488, Note_off_c, 5, 73, 70
7, 45504, Note_on_c, 5, 73, 70
7, 45504, Note_on_c, 5, 70, 70
7, 45584, Note_off_c, 5, 70, 70
7, 45584, Note_off_c, 5, 73, 70
7, 45600, Note_on_c, 5, 73, 70
7, 45600, Note_on_c, 5, 70, 70
7, 45872, Note_off_c, 5, 70, 70
7, 45872, Note_off_c, 5, 73, 70
7, 45888, Note_on_c, 5, 73, 70
7, 45888, Note_on_c, 5, 68, 70
7, 45968, Note_off_c, 5, 68, 70
7, 45968, Note_off_c, 5, 73, 70
7, 45984, Note_on_c, 5, 73, 70
7, 45984, Note_on_c, 5, 70, 70
7, 46448, Note_off_c, 5, 70, 70
7, 46448, Note_off_c, 5, 73, 70
7, 46848, Note_on_c, 5, 82, 70
7, 46848, Note_on_c, 5, 73, 70
7, 46928, Note_off_c, 5, 73, 70
7, 46928, Note_off_c, 5, 82, 70
7, 46944, Note_on_c, 5, 82, 70
7, 46944, Note_on_c, 5, 73, 70
7, 47024, Note_off_c, 5, 73, 70
7, 47024, Note_off_c, 5, 82, 70
7, 47040, Note_on_c, 5, 82, 70
7, 47040, Note_on_c, 5, 73, 70
7, 47120, Note_off_c, 5, 73, 70
7, 47120, Note_off_c, 5, 82, 70
7, 47136, Note_on_c, 5, 82, 70
7, 47136, Note_on_c, 5, 73, 70
7, 47504, Note_off_c, 5, 73, 70
7, 47504, Note_off_c, 5, 82, 70
7, 47616, Note_on_c, 5, 82, 70
7, 47616, Note_on_c, 5, 73, 70
7, 47696, Note_off_c, 5, 73, 70
7, 47696, Note_off_c, 5, 82, 70
7, 47712, Note_on_c, 5, 73, 70
7, 47712, Note_on_c, 5, 82, 70
7, 47792, Note_off_c, 5, 82, 70
7, 47792, Note_off_c, 5, 73, 70
7, 47808, Note_on_c, 5, 73, 70
7, 47808, Note_on_c, 5, 82, 70
7, 47888, Note_off_c, 5, 82, 70
7, 47888, Note_off_c, 5, 73, 70
7, 47904, Note_on_c, 5, 73, 70
7, 47904, Note_on_c, 5, 82, 70
7, 48272, Note_off_c, 5, 82, 70
7, 48272, Note_off_c, 5, 73, 70
7, 48384, Note_on_c, 5, 80, 70
7, 48384, Note_on_c, 5, 72, 70
7, 48464, Note_off_c, 5, 72, 70
7, 48464, Note_off_c, 5, 80, 70
7, 48480, Note_on_c, 5, 73, 70
7, 48480, Note_on_c, 5, 80, 70
7, 48560, Note_off_c, 5, 80, 70
7, 48560, Note_off_c, 5, 73, 70
7, 48576, Note_on_c, 5, 80, 70
7, 48576, Note_on_c, 5, 73, 70
7, 48656, Note_off_c, 5, 73, 70
7, 48656, Note_off_c, 5, 80, 70
7, 48672, Note_on_c, 5, 80, 70
7, 48672, Note_on_c, 5, 73, 70
7, 49136, Note_off_c, 5, 73, 70
7, 49136, Note_off_c, 5, 80, 70
7, 49920, Note_on_c, 5, 68, 70
7, 49920, Note_on_c, 5, 72, 70
7, 50000, Note_off_c, 5, 72, 70
7, 50000, Note_off_c, 5, 68, 70
7, 50016, Note_on_c, 5, 73, 70
7, 50016, Note_on_c, 5, 68, 70
7, 50096, Note_off_c, 5, 68, 70
7, 50096, Note_off_c, 5, 73, 70
7, 50112, Note_on_c, 5, 68, 70
7, 50112, Note_on_c, 5, 73, 70
7, 50192, Note_off_c, 5, 73, 70
7, 50192, Note_off_c, 5, 68, 70
7, 50208, Note_on_c, 5, 73, 70
7, 50208, Note_on_c, 5, 68, 70
7, 50480, Note_off_c, 5, 68, 70
7, 50480, Note_off_c, 5, 73, 70
7, 50496, Note_on_c, 5, 72, 70
7, 50496, Note_on_c, 5, 68, 70
7, 50576, Note_off_c, 5, 68, 70
7, 50576, Note_off_c, 5, 72, 70
7, 50592, Note_on_c, 5, 73, 70
7, 50592, Note_on_c, 5, 68, 70
7, 50960, Note_off_c, 5, 68, 70
7, 50960, Note_off_c, 5, 73, 70
7, 51072, Note_on_c, 5, 72, 70
7, 51072, Note_on_c, 5, 68, 70
7, 51248, Note_off_c, 5, 68, 70
7, 51248, Note_off_c, 5, 72, 70
7, 51264, Note_on_c, 5, 68, 70
7, 51264, Note_on_c, 5, 73, 70
7, 51440, Note_off_c, 5, 73, 70
7, 51440, Note_off_c, 5, 68, 70
7, 51456, Note_on_c, 5, 73, 70
7, 51456, Note_on_c, 5, 68, 70
7, 51536, Note_off_c, 5, 68, 70
7, 51536, Note_off_c, 5, 73, 70
7, 51552, Note_on_c, 5, 73, 70
7, 51552, Note_on_c, 5, 70, 70
7, 51632, Note_off_c, 5, 70, 70
7, 51632, Note_off_c, 5, 73, 70
7, 51648, Note_on_c, 5, 70, 70
7, 51648, Note_on_c, 5, 73, 70
7, 51728, Note_off_c, 5, 73, 70
7, 51728, Note_off_c, 5, 70, 70
7, 51744, Note_on_c, 5, 70, 70
7, 51744, Note_on_c, 5, 73, 70
7, 52016, Note_off_c, 5, 73, 70
7, 52016, Note_off_c, 5, 70, 70
7, 52032, Note_on_c, 5, 72, 70
7, 52032, Note_on_c, 5, 68, 70
7, 52112, Note_off_c, 5, 68, 70
7, 52112, Note_off_c, 5, 72, 70
7, 52128, Note_on_c, 5, 70, 70
7, 52128, Note_on_c, 5, 73, 70
7, 52592, Note_off_c, 5, 73, 70
7, 52592, Note_off_c, 5, 70, 70
7, 52992, Note_on_c, 5, 73, 70
7, 52992, Note_on_c, 5, 82, 70
7, 53072, Note_off_c, 5, 82, 70
7, 53072, Note_off_c, 5, 73, 70
7, 53088, Note_on_c, 5, 73, 70
7, 53088, Note_on_c, 5, 82, 70
7, 53168, Note_off_c, 5, 82, 70
7, 53168, Note_off_c, 5, 73, 70
7, 53184, Note_on_c, 5, 73, 70
7, 53184, Note_on_c, 5, 82, 70
7, 53264, Note_off_c, 5, 82, 70
7, 53264, Note_off_c, 5, 73, 70
7, 53280, Note_on_c, 5, 73, 70
7, 53280, Note_on_c, 5, 82, 70
7, 53648, Note_off_c, 5, 82, 70
7, 53648, Note_off_c, 5, 73, 70
7, 53760, Note_on_c, 5, 73, 70
7, 53760, Note_on_c, 5, 82, 70
7, 53840, Note_off_c, 5, 82, 70
7, 53840, Note_off_c, 5, 73, 70
7, 53856, Note_on_c, 5, 73, 70
7, 53856, Note_on_c, 5, 82, 70
7, 53936, Note_off_c, 5, 82, 70
7, 53936, Note_off_c, 5, 73, 70
7, 53952, Note_on_c, 5, 73, 70
7, 53952, Note_on_c, 5, 82, 70
7, 54032, Note_off_c, 5, 82, 70
7, 54032, Note_off_c, 5, 73, 70
7, 54048, Note_on_c, 5, 82, 70
7, 54048, Note_on_c, 5, 73, 70
7, 54416, Note_off_c, 5, 73, 70
7, 54416, Note_off_c, 5, 82, 70
7, 54528, Note_on_c, 5, 80, 70
7, 54528, Note_on_c, 5, 72, 70
7, 54608, Note_off_c, 5, 72, 70
7, 54608, Note_off_c, 5, 80, 70
7, 54624, Note_on_c, 5, 73, 70
7, 54624, Note_on_c, 5, 80, 70
7, 54704, Note_off_c, 5, 80, 70
7, 54704, Note_off_c, 5, 73, 70
7, 54720, Note_on_c, 5, 80, 70
7, 54720, Note_on_c, 5, 73, 70
7, 54800, Note_off_c, 5, 73, 70
7, 54800, Note_off_c, 5, 80, 70
7, 54816, Note_on_c, 5, 80, 70
7, 54816, Note_on_c, 5, 73, 70
7, 55280, Note_off_c, 5, 73, 70
7, 55280, Note_off_c, 5, 80, 70
7, 62208, Note_on_c, 5, 72, 70
7, 62208, Note_on_c, 5, 68, 70
7, 62288, Note_off_c, 5, 68, 70
7, 62288, Note_off_c, 5, 72, 70
7, 62304, Note_on_c, 5, 73, 70
7, 62304, Note_on_c, 5, 68, 70
7, 62384, Note_off_c, 5, 68, 70
7, 62384, Note_off_c, 5, 73, 70
7, 62400, Note_on_c, 5, 73, 70
7, 62400, Note_on_c, 5, 68, 70
7, 62480, Note_off_c, 5, 68, 70
7, 62480, Note_off_c, 5, 73, 70
7, 62496, Note_on_c, 5, 73, 70
7, 62496, Note_on_c, 5, 68, 70
7, 62768, Note_off_c, 5, 68, 70
7, 62768, Note_off_c, 5, 73, 70
7, 62784, Note_on_c, 5, 72, 70
7, 62784, Note_on_c, 5, 68, 70
7, 62864, Note_off_c, 5, 68, 70
7, 62864, Note_off_c, 5, 72, 70
7, 62880, Note_on_c, 5, 73, 70
7, 62880, Note_on_c, 5, 68, 70
7, 63248, Note_off_c, 5, 68, 70
7, 63248, Note_off_c, 5, 73, 70
7, 63360, Note_on_c, 5, 72, 70
7, 63360, Note_on_c, 5, 68, 70
7, 63536, Note_off_c, 5, 68, 70
7, 63536, Note_off_c, 5, 72, 70
7, 63552, Note_on_c, 5, 73, 70
7, 63552, Note_on_c, 5, 68, 70
7, 63728, Note_off_c, 5, 68, 70
7, 63728, Note_off_c, 5, 73, 70
7, 63744, Note_on_c, 5, 73, 70
7, 63744, Note_on_c, 5, 68, 70
7, 63824, Note_off_c, 5, 68, 70
7, 63824, Note_off_c, 5, 73, 70
7, 63840, Note_on_c, 5, 73, 70
7, 63840, Note_on_c, 5, 70, 70
7, 63920, Note_off_c, 5, 70, 70
7, 63920, Note_off_c, 5, 73, 70
7, 63936, Note_on_c, 5, 73, 70
7, 63936, Note_on_c, 5, 70, 70
7, 64016, Note_off_c, 5, 70, 70
7, 64016, Note_off_c, 5, 73, 70
7, 64032, Note_on_c, 5, 73, 70
7, 64032, Note_on_c, 5, 70, 70
7, 64304, Note_off_c, 5, 70, 70
7, 64304, Note_off_c, 5, 73, 70
7, 64320, Note_on_c, 5, 73, 70
7, 64320, Note_on_c, 5, 68, 70
7, 64400, Note_off_c, 5, 68, 70
7, 64400, Note_off_c, 5, 73, 70
7, 64416, Note_on_c, 5, 73, 70
7, 64416, Note_on_c, 5, 70, 70
7, 64880, Note_off_c, 5, 70, 70
7, 64880, Note_off_c, 5, 73, 70
7, 65280, Note_on_c, 5, 82, 70
7, 65280, Note_on_c, 5, 73, 70
7, 65360, Note_off_c, 5, 73, 70
7, 65360, Note_off_c, 5, 82, 70
7, 65376, Note_on_c, 5, 82, 70
7, 65376, Note_on_c, 5, 73, 70
7, 65456, Note_off_c, 5, 73, 70
7, 65456, Note_off_c, 5, 82, 70
7, 65472, Note_on_c, 5, 82, 70
7, 65472, Note_on_c, 5, 73, 70
7, 65552, Note_off_c, 5, 73, 70
7, 65552, Note_off_c, 5, 82, 70
7, 65568, Note_on_c, 5, 82, 70
7, 65568, Note_on_c, 5, 73, 70
7, 65936, Note_off_c, 5, 73, 70
7, 65936, Note_off_c, 5, 82, 70
7, 66048, Note_on_c, 5, 82, 70
7, 66048, Note_on_c, 5, 73, 70
7, 66128, Note_off_c, 5, 73, 70
7, 66128, Note_off_c, 5, 82, 70
7, 66144, Note_on_c, 5, 73, 70
7, 66144, Note_on_c, 5, 82, 70
7, 66224, Note_off_c, 5, 82, 70
7, 66224, Note_off_c, 5, 73, 70
7, 66240, Note_on_c, 5, 73, 70
7, 66240, Note_on_c, 5, 82, 70
7, 66320, Note_off_c, 5, 82, 70
7, 66320, Note_off_c, 5, 73, 70
7, 66336, Note_on_c, 5, 73, 70
7, 66336, Note_on_c, 5, 82, 70
7, 66704, Note_off_c, 5, 82, 70
7, 66704, Note_off_c, 5, 73, 70
7, 66816, Note_on_c, 5, 80, 70
7, 66816, Note_on_c, 5, 72, 70
7, 66896, Note_off_c, 5, 72, 70
7, 66896, Note_off_c, 5, 80, 70
7, 66912, Note_on_c, 5, 73, 70
7, 66912, Note_on_c, 5, 80, 70
7, 66992, Note_off_c, 5, 80, 70
7, 66992, Note_off_c, 5, 73, 70
7, 67008, Note_on_c, 5, 80, 70
7, 67008, Note_on_c, 5, 73, 70
7, 67088, Note_off_c, 5, 73, 70
7, 67088, Note_off_c, 5, 80, 70
7, 67104, Note_on_c, 5, 80, 70
7, 67104, Note_on_c, 5, 73, 70
7, 67568, Note_off_c, 5, 73, 70
7, 67568, Note_off_c, 5, 80, 70
7, 68352, Note_on_c, 5, 68, 70
7, 68352, Note_on_c, 5, 72, 70
7, 68432, Note_off_c, 5, 72, 70
7, 68432, Note_off_c, 5, 68, 70
7, 68448, Note_on_c, 5, 73, 70
7, 68448, Note_on_c, 5, 68, 70
7, 68528, Note_off_c, 5, 68, 70
7, 68528, Note_off_c, 5, 73, 70
7, 68544, Note_on_c, 5, 68, 70
7, 68544, Note_on_c, 5, 73, 70
7, 68624, Note_off_c, 5, 73, 70
7, 68624, Note_off_c, 5, 68, 70
7, 68640, Note_on_c, 5, 73, 70
7, 68640, Note_on_c, 5, 68, 70
7, 68912, Note_off_c, 5, 68, 70
7, 68912, Note_off_c, 5, 73, 70
7, 68928, Note_on_c, 5, 72, 70
7, 68928, Note_on_c, 5, 68, 70
7, 69008, Note_off_c, 5, 68, 70
7, 69008, Note_off_c, 5, 72, 70
7, 69024, Note_on_c, 5, 73, 70
7, 69024, Note_on_c, 5, 68, 70
7, 69392, Note_off_c, 5, 68, 70
7, 69392, Note_off_c, 5, 73, 70
7, 69504, Note_on_c, 5, 72, 70
7, 69504, Note_on_c, 5, 68, 70
7, 69680, Note_off_c, 5, 68, 70
7, 69680, Note_off_c, 5, 72, 70
7, 69696, Note_on_c, 5, 68, 70
7, 69696, Note_on_c, 5, 73, 70
7, 69872, Note_off_c, 5, 73, 70
7, 69872, Note_off_c, 5, 68, 70
7, 69888, Note_on_c, 5, 73, 70
7, 69888, Note_on_c, 5, 68, 70
7, 69968, Note_off_c, 5, 68, 70
7, 69968, Note_off_c, 5, 73, 70
7, 69984, Note_on_c, 5, 73, 70
7, 69984, Note_on_c, 5, 70, 70
7, 70064, Note_off_c, 5, 70, 70
7, 70064, Note_off_c, 5, 73, 70
7, 70080, Note_on_c, 5, 70, 70
7, 70080, Note_on_c, 5, 73, 70
7, 70160, Note_off_c, 5, 73, 70
7, 70160, Note_off_c, 5, 70, 70
7, 70176, Note_on_c, 5, 70, 70
7, 70176, Note_on_c, 5, 73, 70
7, 70448, Note_off_c, 5, 73, 70
7, 70448, Note_off_c, 5, 70, 70
7, 70464, Note_on_c, 5, 72, 70
7, 70464, Note_on_c, 5, 68, 70
7, 70544, Note_off_c, 5, 68, 70
7, 70544, Note_off_c, 5, 72, 70
7, 70560, Note_on_c, 5, 70, 70
7, 70560, Note_on_c, 5, 73, 70
7, 71024, Note_off_c, 5, 73, 70
7, 71024, Note_off_c, 5, 70, 70
7, 71424, Note_on_c, 5, 73, 70
7, 71424, Note_on_c, 5, 82, 70
7, 71504, Note_off_c, 5, 82, 70
7, 71504, Note_off_c, 5, 73, 70
7, 71520, Note_on_c, 5, 73, 70
7, 71520, Note_on_c, 5, 82, 70
7, 71600, Note_off_c, 5, 82, 70
7, 71600, Note_off_c, 5, 73, 70
7, 71616, Note_on_c, 5, 73, 70
7, 71616, Note_on_c, 5, 82, 70
7, 71696, Note_off_c, 5, 82, 70
7, 71696, Note_off_c, 5, 73, 70
7, 71712, Note_on_c, 5, 73, 70
7, 71712, Note_on_c, 5, 82, 70
7, 72080, Note_off_c, 5, 82, 70
7, 72080, Note_off_c, 5, 73, 70
7, 72192, Note_on_c, 5, 73, 70
7, 72192, Note_on_c, 5, 82, 70
7, 72272, Note_off_c, 5, 82, 70
7, 72272, Note_off_c, 5, 73, 70
7, 72288, Note_on_c, 5, 73, 70
7, 72288, Note_on_c, 5, 82, 70
7, 72368, Note_off_c, 5, 82, 70
7, 72368, Note_off_c, 5, 73, 70
7, 72384, Note_on_c, 5, 73, 70
7, 72384, Note_on_c, 5, 82, 70
7, 72464, Note_off_c, 5, 82, 70
7, 72464, Note_off_c, 5, 73, 70
7, 72480, Note_on_c, 5, 82, 70
7, 72480, Note_on_c, 5, 73, 70
7, 72848, Note_off_c, 5, 73, 70
7, 72848, Note_off_c, 5, 82, 70
7, 72960, Note_on_c, 5, 80, 70
7, 72960, Note_on_c, 5, 72, 70
7, 73040, Note_off_c, 5, 72, 70
7, 73040, Note_off_c, 5, 80, 70
7, 73056, Note_on_c, 5, 73, 70
7, 73056, Note_on_c, 5, 80, 70
7, 73136, Note_off_c, 5, 80, 70
7, 73136, Note_off_c, 5, 73, 70
7, 73152, Note_on_c, 5, 80, 70
7, 73152, Note_on_c, 5, 73, 70
7, 73232, Note_off_c, 5, 73, 70
7, 73232, Note_off_c, 5, 80, 70
7, 73248, Note_on_c, 5, 80, 70
7, 73248, Note_on_c, 5, 73, 70
7, 73712, Note_off_c, 5, 73, 70
7, 73712, Note_off_c, 5, 80, 70
7, 73712, End_track
8, 0, Start_track
8, 0, Text_t, "Vox Cue1"
8, 0, Control_c, 6, 121, 0
8, 134, Program_c, 6, 6
8, 154, Control_c, 6, 7, 100
8, 174, Control_c, 6, 10, 64
8, 6816, Note_on_c, 6, 68, 80
8, 6896, Note_off_c, 6, 68, 80
8, 6912, Note_on_c, 6, 73, 80
8, 6992, Note_off_c, 6, 73, 80
8, 7008, Note_on_c, 6, 73, 80
8, 7040, Note_off_c, 6, 73, 80
8, 7056, Note_on_c, 6, 73, 80
8, 7136, Note_off_c, 6, 73, 80
8, 7152, Note_on_c, 6, 73, 80
8, 7232, Note_off_c, 6, 73, 80
8, 7248, Note_on_c, 6, 75, 80
8, 7328, Note_off_c, 6, 75, 80
8, 7344, Note_on_c, 6, 73, 80
8, 7472, Note_off_c, 6, 73, 80
8, 7680, Note_on_c, 6, 73, 80
8, 7760, Note_off_c, 6, 73, 80
8, 7776, Note_on_c, 6, 72, 80
8, 7808, Note_off_c, 6, 72, 80
8, 7824, Note_on_c, 6, 73, 80
8, 7904, Note_off_c, 6, 73, 80
8, 7920, Note_on_c, 6, 72, 80
8, 8000, Note_off_c, 6, 72, 80
8, 8016, Note_on_c, 6, 73, 80
8, 8048, Note_off_c, 6, 73, 80
8, 8064, Note_on_c, 6, 70, 80
8, 8240, Note_off_c, 6, 70, 80
8, 8640, Note_on_c, 6, 73, 80
8, 8720, Note_off_c, 6, 73, 80
8, 8736, Note_on_c, 6, 73, 80
8, 8768, Note_off_c, 6, 73, 80
8, 8784, Note_on_c, 6, 73, 80
8, 9008, Note_off_c, 6, 73, 80
8, 9024, Note_on_c, 6, 70, 80
8, 9104, Note_off_c, 6, 70, 80
8, 9120, Note_on_c, 6, 70, 80
8, 9152, Note_off_c, 6, 70, 80
8, 9168, Note_on_c, 6, 70, 80
8, 9584, Note_off_c, 6, 70, 80
8, 9888, Note_on_c, 6, 68, 80
8, 9968, Note_off_c, 6, 68, 80
8, 9984, Note_on_c, 6, 73, 80
8, 10016, Note_off_c, 6, 73, 80
8, 10032, Note_on_c, 6, 73, 80
8, 10112, Note_off_c, 6, 73, 80
8, 10128, Note_on_c, 6, 73, 80
8, 10208, Note_off_c, 6, 73, 80
8, 10224, Note_on_c, 6, 73, 80
8, 10304, Note_off_c, 6, 73, 80
8, 10320, Note_on_c, 6, 75, 80
8, 10448, Note_off_c, 6, 75, 80
8, 10464, Note_on_c, 6, 73, 80
8, 10544, Note_off_c, 6, 73, 80
8, 10752, Note_on_c, 6, 72, 80
8, 10880, Note_off_c, 6, 72, 80
8, 10896, Note_on_c, 6, 73, 80
8, 11024, Note_off_c, 6, 73, 80
8, 11040, Note_on_c, 6, 72, 80
8, 11120, Note_off_c, 6, 72, 80
8, 11136, Note_on_c, 6, 72, 80
8, 11216, Note_off_c, 6, 72, 80
8, 11232, Note_on_c, 6, 73, 80
8, 11312, Note_off_c, 6, 73, 80
8, 11808, Note_on_c, 6, 70, 80
8, 11840, Note_off_c, 6, 70, 80
8, 11856, Note_on_c, 6, 73, 80
8, 11980, Note_off_c, 6, 73, 80
8, 12000, Note_on_c, 6, 73, 80
8, 12080, Note_off_c, 6, 73, 80
8, 12096, Note_on_c, 6, 72, 80
8, 12128, Note_off_c, 6, 72, 80
8, 12144, Note_on_c, 6, 70, 80
8, 12224, Note_off_c, 6, 70, 80
8, 12240, Note_on_c, 6, 72, 80
8, 12272, Note_off_c, 6, 72, 80
8, 12288, Note_on_c, 6, 70, 80
8, 12656, Note_off_c, 6, 70, 80
8, 13440, Note_on_c, 6, 70, 80
8, 13568, Note_off_c, 6, 70, 80
8, 13584, Note_on_c, 6, 72, 80
8, 13664, Note_off_c, 6, 72, 80
8, 13680, Note_on_c, 6, 73, 80
8, 13760, Note_off_c, 6, 73, 80
8, 13776, Note_on_c, 6, 70, 80
8, 14000, Note_off_c, 6, 70, 80
8, 14112, Note_on_c, 6, 73, 80
8, 14192, Note_off_c, 6, 73, 80
8, 14208, Note_on_c, 6, 72, 80
8, 14288, Note_off_c, 6, 72, 80
8, 14304, Note_on_c, 6, 73, 80
8, 14480, Note_off_c, 6, 73, 80
8, 14496, Note_on_c, 6, 75, 80
8, 14672, Note_off_c, 6, 75, 80
8, 14688, Note_on_c, 6, 72, 80
8, 14720, Note_off_c, 6, 72, 80
8, 14736, Note_on_c, 6, 70, 80
8, 14768, Note_off_c, 6, 70, 80
8, 14784, Note_on_c, 6, 68, 80
8, 15344, Note_off_c, 6, 68, 80
8, 15360, Note_on_c, 6, 72, 80
8, 15488, Note_off_c, 6, 72, 80
8, 15504, Note_on_c, 6, 70, 80
8, 15632, Note_off_c, 6, 70, 80
8, 15648, Note_on_c, 6, 68, 80
8, 15920, Note_off_c, 6, 68, 80
8, 16032, Note_on_c, 6, 68, 80
8, 16112, Note_off_c, 6, 68, 80
8, 16128, Note_on_c, 6, 73, 80
8, 16160, Note_off_c, 6, 73, 80
8, 16176, Note_on_c, 6, 73, 80
8, 16256, Note_off_c, 6, 73, 80
8, 16272, Note_on_c, 6, 73, 80
8, 16352, Note_off_c, 6, 73, 80
8, 16368, Note_on_c, 6, 73, 80
8, 16448, Note_off_c, 6, 73, 80
8, 16464, Note_on_c, 6, 75, 80
8, 16592, Note_off_c, 6, 75, 80
8, 16608, Note_on_c, 6, 73, 80
8, 16688, Note_off_c, 6, 73, 80
8, 16848, Note_on_c, 6, 72, 80
8, 16880, Note_off_c, 6, 72, 80
8, 16896, Note_on_c, 6, 72, 80
8, 17072, Note_off_c, 6, 72, 80
8, 17088, Note_on_c, 6, 73, 80
8, 17168, Note_off_c, 6, 73, 80
8, 17184, Note_on_c, 6, 72, 80
8, 17216, Note_off_c, 6, 72, 80
8, 17232, Note_on_c, 6, 73, 80
8, 17264, Note_off_c, 6, 73, 80
8, 17536, Note_on_c, 6, 70, 80
8, 17584, Note_off_c, 6, 70, 80
8, 17600, Note_on_c, 6, 72, 80
8, 17648, Note_off_c, 6, 72, 80
8, 17664, Note_on_c, 6, 73, 80
8, 17744, Note_off_c, 6, 73, 80
8, 17760, Note_on_c, 6, 75, 80
8, 17936, Note_off_c, 6, 75, 80
8, 17952, Note_on_c, 6, 77, 80
8, 18320, Note_off_c, 6, 77, 80
8, 18336, Note_on_c, 6, 78, 80
8, 18368, Note_off_c, 6, 78, 80
8, 18384, Note_on_c, 6, 75, 80
8, 18416, Note_off_c, 6, 75, 80
8, 18432, Note_on_c, 6, 75, 80
8, 18992, Note_off_c, 6, 75, 80
8, 19194, Program_c, 6, 73
8, 19200, Note_on_c, 6, 75, 80
8, 19280, Note_off_c, 6, 75, 80
8, 19296, Note_on_c, 6, 77, 80
8, 19376, Note_off_c, 6, 77, 80
8, 19392, Note_on_c, 6, 77, 80
8, 19472, Note_off_c, 6, 77, 80
8, 19488, Note_on_c, 6, 77, 80
8, 19760, Note_off_c, 6, 77, 80
8, 19776, Note_on_c, 6, 75, 80
8, 19856, Note_off_c, 6, 75, 80
8, 19872, Note_on_c, 6, 77, 80
8, 20240, Note_off_c, 6, 77, 80
8, 20352, Note_on_c, 6, 75, 80
8, 20528, Note_off_c, 6, 75, 80
8, 20544, Note_on_c, 6, 77, 80
8, 20720, Note_off_c, 6, 77, 80
8, 20736, Note_on_c, 6, 77, 80
8, 20816, Note_off_c, 6, 77, 80
8, 20832, Note_on_c, 6, 78, 80
8, 20912, Note_off_c, 6, 78, 80
8, 20928, Note_on_c, 6, 78, 80
8, 21008, Note_off_c, 6, 78, 80
8, 21024, Note_on_c, 6, 78, 80
8, 21296, Note_off_c, 6, 78, 80
8, 21312, Note_on_c, 6, 77, 80
8, 21392, Note_off_c, 6, 77, 80
8, 21408, Note_on_c, 6, 78, 80
8, 21872, Note_off_c, 6, 78, 80
8, 22272, Note_on_c, 6, 78, 80
8, 22352, Note_off_c, 6, 78, 80
8, 22368, Note_on_c, 6, 78, 80
8, 22448, Note_off_c, 6, 78, 80
8, 22464, Note_on_c, 6, 78, 80
8, 22544, Note_off_c, 6, 78, 80
8, 22560, Note_on_c, 6, 78, 80
8, 22928, Note_off_c, 6, 78, 80
8, 23040, Note_on_c, 6, 78, 80
8, 23120, Note_off_c, 6, 78, 80
8, 23136, Note_on_c, 6, 78, 80
8, 23216, Note_off_c, 6, 78, 80
8, 23232, Note_on_c, 6, 78, 80
8, 23312, Note_off_c, 6, 78, 80
8, 23328, Note_on_c, 6, 78, 80
8, 23696, Note_off_c, 6, 78, 80
8, 23808, Note_on_c, 6, 75, 80
8, 23888, Note_off_c, 6, 75, 80
8, 23904, Note_on_c, 6, 77, 80
8, 23984, Note_off_c, 6, 77, 80
8, 24000, Note_on_c, 6, 77, 80
8, 24080, Note_off_c, 6, 77, 80
8, 24096, Note_on_c, 6, 77, 80
8, 24560, Note_off_c, 6, 77, 80
8, 25344, Note_on_c, 6, 75, 80
8, 25424, Note_off_c, 6, 75, 80
8, 25440, Note_on_c, 6, 77, 80
8, 25520, Note_off_c, 6, 77, 80
8, 25536, Note_on_c, 6, 77, 80
8, 25616, Note_off_c, 6, 77, 80
8, 25632, Note_on_c, 6, 77, 80
8, 25904, Note_off_c, 6, 77, 80
8, 25920, Note_on_c, 6, 75, 80
8, 26000, Note_off_c, 6, 75, 80
8, 26016, Note_on_c, 6, 77, 80
8, 26384, Note_off_c, 6, 77, 80
8, 26496, Note_on_c, 6, 75, 80
8, 26672, Note_off_c, 6, 75, 80
8, 26688, Note_on_c, 6, 77, 80
8, 26864, Note_off_c, 6, 77, 80
8, 26880, Note_on_c, 6, 77, 80
8, 26960, Note_off_c, 6, 77, 80
8, 26976, Note_on_c, 6, 78, 80
8, 27056, Note_off_c, 6, 78, 80
8, 27072, Note_on_c, 6, 78, 80
8, 27152, Note_off_c, 6, 78, 80
8, 27168, Note_on_c, 6, 78, 80
8, 27440, Note_off_c, 6, 78, 80
8, 27456, Note_on_c, 6, 77, 80
8, 27536, Note_off_c, 6, 77, 80
8, 27552, Note_on_c, 6, 78, 80
8, 28016, Note_off_c, 6, 78, 80
8, 28416, Note_on_c, 6, 78, 80
8, 28496, Note_off_c, 6, 78, 80
8, 28512, Note_on_c, 6, 78, 80
8, 28592, Note_off_c, 6, 78, 80
8, 28608, Note_on_c, 6, 78, 80
8, 28688, Note_off_c, 6, 78, 80
8, 28704, Note_on_c, 6, 78, 80
8, 29072, Note_off_c, 6, 78, 80
8, 29184, Note_on_c, 6, 78, 80
8, 29264, Note_off_c, 6, 78, 80
8, 29280, Note_on_c, 6, 78, 80
8, 29360, Note_off_c, 6, 78, 80
8, 29376, Note_on_c, 6, 78, 80
8, 29456, Note_off_c, 6, 78, 80
8, 29472, Note_on_c, 6, 78, 80
8, 29840, Note_off_c, 6, 78, 80
8, 29952, Note_on_c, 6, 75, 80
8, 30032, Note_off_c, 6, 75, 80
8, 30048, Note_on_c, 6, 77, 80
8, 30128, Note_off_c, 6, 77, 80
8, 30144, Note_on_c, 6, 77, 80
8, 30224, Note_off_c, 6, 77, 80
8, 30240, Note_on_c, 6, 77, 80
8, 30704, Note_off_c, 6, 77, 80
8, 31392, Program_c, 6, 6
8, 31440, Note_on_c, 6, 65, 80
8, 31472, Note_off_c, 6, 65, 80
8, 31488, Note_on_c, 6, 73, 80
8, 31568, Note_off_c, 6, 73, 80
8, 31584, Note_on_c, 6, 72, 80
8, 31616, Note_off_c, 6, 72, 80
8, 31632, Note_on_c, 6, 73, 80
8, 31712, Note_off_c, 6, 73, 80
8, 31728, Note_on_c, 6, 72, 80
8, 31808, Note_off_c, 6, 72, 80
8, 31824, Note_on_c, 6, 75, 80
8, 31904, Note_off_c, 6, 75, 80
8, 31920, Note_on_c, 6, 73, 80
8, 32048, Note_off_c, 6, 73, 80
8, 32256, Note_on_c, 6, 73, 80
8, 32288, Note_off_c, 6, 73, 80
8, 32304, Note_on_c, 6, 72, 80
8, 32384, Note_off_c, 6, 72, 80
8, 32404, Note_on_c, 6, 73, 80
8, 32484, Note_off_c, 6, 73, 80
8, 32496, Note_on_c, 6, 72, 80
8, 32576, Note_off_c, 6, 72, 80
8, 32592, Note_on_c, 6, 73, 80
8, 32624, Note_off_c, 6, 73, 80
8, 32644, Note_on_c, 6, 70, 80
8, 32820, Note_off_c, 6, 70, 80
8, 33120, Note_on_c, 6, 73, 80
8, 33200, Note_off_c, 6, 73, 80
8, 33216, Note_on_c, 6, 73, 80
8, 33296, Note_off_c, 6, 73, 80
8, 33312, Note_on_c, 6, 73, 80
8, 33392, Note_off_c, 6, 73, 80
8, 33408, Note_on_c, 6, 73, 80
8, 33488, Note_off_c, 6, 73, 80
8, 33504, Note_on_c, 6, 73, 80
8, 33536, Note_off_c, 6, 73, 80
8, 33552, Note_on_c, 6, 72, 80
8, 33632, Note_off_c, 6, 72, 80
8, 33648, Note_on_c, 6, 70, 80
8, 33728, Note_off_c, 6, 70, 80
8, 33744, Note_on_c, 6, 70, 80
8, 34160, Note_off_c, 6, 70, 80
8, 34512, Note_on_c, 6, 68, 80
8, 34544, Note_off_c, 6, 68, 80
8, 34560, Note_on_c, 6, 73, 80
8, 34640, Note_off_c, 6, 73, 80
8, 34656, Note_on_c, 6, 73, 80
8, 34736, Note_off_c, 6, 73, 80
8, 34752, Note_on_c, 6, 73, 80
8, 34832, Note_off_c, 6, 73, 80
8, 34848, Note_on_c, 6, 73, 80
8, 34928, Note_off_c, 6, 73, 80
8, 34944, Note_on_c, 6, 75, 80
8, 35024, Note_off_c, 6, 75, 80
8, 35040, Note_on_c, 6, 73, 80
8, 35120, Note_off_c, 6, 73, 80
8, 35280, Note_on_c, 6, 72, 80
8, 35312, Note_off_c, 6, 72, 80
8, 35328, Note_on_c, 6, 73, 80
8, 35456, Note_off_c, 6, 73, 80
8, 35472, Note_on_c, 6, 77, 80
8, 35552, Note_off_c, 6, 77, 80
8, 35568, Note_on_c, 6, 77, 80
8, 35600, Note_off_c, 6, 77, 80
8, 35616, Note_on_c, 6, 75, 80
8, 35696, Note_off_c, 6, 75, 80
8, 35712, Note_on_c, 6, 75, 80
8, 35744, Note_off_c, 6, 75, 80
8, 35760, Note_on_c, 6, 73, 80
8, 35888, Note_off_c, 6, 73, 80
8, 36288, Note_on_c, 6, 73, 80
8, 36368, Note_off_c, 6, 73, 80
8, 36384, Note_on_c, 6, 73, 80
8, 36464, Note_off_c, 6, 73, 80
8, 36480, Note_on_c, 6, 73, 80
8, 36608, Note_off_c, 6, 73, 80
8, 36624, Note_on_c, 6, 72, 80
8, 36752, Note_off_c, 6, 72, 80
8, 36768, Note_on_c, 6, 70, 80
8, 36848, Note_off_c, 6, 70, 80
8, 36864, Note_on_c, 6, 70, 80
8, 36896, Note_off_c, 6, 70, 80
8, 36912, Note_on_c, 6, 68, 80
8, 36944, Note_off_c, 6, 68, 80
8, 36960, Note_on_c, 6, 66, 80
8, 37232, Note_off_c, 6, 66, 80
8, 38016, Note_on_c, 6, 70, 80
8, 38144, Note_off_c, 6, 70, 80
8, 38160, Note_on_c, 6, 72, 80
8, 38240, Note_off_c, 6, 72, 80
8, 38256, Note_on_c, 6, 73, 80
8, 38336, Note_off_c, 6, 73, 80
8, 38352, Note_on_c, 6, 70, 80
8, 38576, Note_off_c, 6, 70, 80
8, 38688, Note_on_c, 6, 73, 80
8, 38768, Note_off_c, 6, 73, 80
8, 38784, Note_on_c, 6, 72, 80
8, 38864, Note_off_c, 6, 72, 80
8, 38880, Note_on_c, 6, 73, 80
8, 39056, Note_off_c, 6, 73, 80
8, 39072, Note_on_c, 6, 75, 80
8, 39204, Note_off_c, 6, 75, 80
8, 39264, Note_on_c, 6, 72, 80
8, 39296, Note_off_c, 6, 72, 80
8, 39312, Note_on_c, 6, 70, 80
8, 39344, Note_off_c, 6, 70, 80
8, 39360, Note_on_c, 6, 68, 80
8, 39728, Note_off_c, 6, 68, 80
8, 39936, Note_on_c, 6, 72, 80
8, 40064, Note_off_c, 6, 72, 80
8, 40080, Note_on_c, 6, 70, 80
8, 40208, Note_off_c, 6, 70, 80
8, 40224, Note_on_c, 6, 68, 80
8, 40496, Note_off_c, 6, 68, 80
8, 40608, Note_on_c, 6, 68, 80
8, 40688, Note_off_c, 6, 68, 80
8, 40704, Note_on_c, 6, 73, 80
8, 40736, Note_off_c, 6, 73, 80
8, 40752, Note_on_c, 6, 73, 80
8, 40832, Note_off_c, 6, 73, 80
8, 40848, Note_on_c, 6, 73, 80
8, 40928, Note_off_c, 6, 73, 80
8, 40944, Note_on_c, 6, 73, 80
8, 41024, Note_off_c, 6, 73, 80
8, 41040, Note_on_c, 6, 75, 80
8, 41168, Note_off_c, 6, 75, 80
8, 41184, Note_on_c, 6, 73, 80
8, 41264, Note_off_c, 6, 73, 80
8, 41424, Note_on_c, 6, 72, 80
8, 41456, Note_off_c, 6, 72, 80
8, 41472, Note_on_c, 6, 72, 80
8, 41648, Note_off_c, 6, 72, 80
8, 41664, Note_on_c, 6, 73, 80
8, 41744, Note_off_c, 6, 73, 80
8, 41760, Note_on_c, 6, 72, 80
8, 41792, Note_off_c, 6, 72, 80
8, 41808, Note_on_c, 6, 73, 80
8, 41840, Note_off_c, 6, 73, 80
8, 42112, Note_on_c, 6, 70, 80
8, 42162, Note_off_c, 6, 70, 80
8, 42176, Note_on_c, 6, 72, 80
8, 42224, Note_off_c, 6, 72, 80
8, 42240, Note_on_c, 6, 73, 80
8, 42320, Note_off_c, 6, 73, 80
8, 42336, Note_on_c, 6, 75, 80
8, 42512, Note_off_c, 6, 75, 80
8, 42528, Note_on_c, 6, 77, 80
8, 42896, Note_off_c, 6, 77, 80
8, 42912, Note_on_c, 6, 78, 80
8, 42944, Note_off_c, 6, 78, 80
8, 42960, Note_on_c, 6, 75, 80
8, 42992, Note_off_c, 6, 75, 80
8, 43008, Note_on_c, 6, 75, 80
8, 43568, Note_off_c, 6, 75, 80
8, 43770, Program_c, 6, 73
8, 43776, Note_on_c, 6, 75, 80
8, 43856, Note_off_c, 6, 75, 80
8, 43872, Note_on_c, 6, 77, 80
8, 43952, Note_off_c, 6, 77, 80
8, 43968, Note_on_c, 6, 77, 80
8, 44048, Note_off_c, 6, 77, 80
8, 44064, Note_on_c, 6, 77, 80
8, 44336, Note_off_c, 6, 77, 80
8, 44352, Note_on_c, 6, 75, 80
8, 44432, Note_off_c, 6, 75, 80
8, 44448, Note_on_c, 6, 77, 80
8, 44816, Note_off_c, 6, 77, 80
8, 44928, Note_on_c, 6, 75, 80
8, 45104, Note_off_c, 6, 75, 80
8, 45120, Note_on_c, 6, 77, 80
8, 45296, Note_off_c, 6, 77, 80
8, 45312, Note_on_c, 6, 77, 80
8, 45392, Note_off_c, 6, 77, 80
8, 45408, Note_on_c, 6, 78, 80
8, 45488, Note_off_c, 6, 78, 80
8, 45504, Note_on_c, 6, 78, 80
8, 45584, Note_off_c, 6, 78, 80
8, 45600, Note_on_c, 6, 78, 80
8, 45872, Note_off_c, 6, 78, 80
8, 45888, Note_on_c, 6, 77, 80
8, 45968, Note_off_c, 6, 77, 80
8, 45984, Note_on_c, 6, 78, 80
8, 46448, Note_off_c, 6, 78, 80
8, 46848, Note_on_c, 6, 78, 85
8, 46928, Note_off_c, 6, 78, 85
8, 46944, Note_on_c, 6, 78, 78
8, 47024, Note_off_c, 6, 78, 78
8, 47040, Note_on_c, 6, 78, 85
8, 47120, Note_off_c, 6, 78, 85
8, 47136, Note_on_c, 6, 78, 85
8, 47504, Note_off_c, 6, 78, 85
8, 47616, Note_on_c, 6, 78, 85
8, 47696, Note_off_c, 6, 78, 85
8, 47712, Note_on_c, 6, 78, 84
8, 47792, Note_off_c, 6, 78, 84
8, 47808, Note_on_c, 6, 78, 85
8, 47888, Note_off_c, 6, 78, 85
8, 47904, Note_on_c, 6, 78, 85
8, 48272, Note_off_c, 6, 78, 85
8, 48384, Note_on_c, 6, 75, 85
8, 48464, Note_off_c, 6, 75, 85
8, 48480, Note_on_c, 6, 77, 74
8, 48560, Note_off_c, 6, 77, 74
8, 48576, Note_on_c, 6, 77, 85
8, 48656, Note_off_c, 6, 77, 85
8, 48672, Note_on_c, 6, 77, 85
8, 49136, Note_off_c, 6, 77, 85
8, 49920, Note_on_c, 6, 75, 80
8, 50000, Note_off_c, 6, 75, 80
8, 50016, Note_on_c, 6, 77, 80
8, 50096, Note_off_c, 6, 77, 80
8, 50112, Note_on_c, 6, 77, 80
8, 50192, Note_off_c, 6, 77, 80
8, 50208, Note_on_c, 6, 77, 80
8, 50480, Note_off_c, 6, 77, 80
8, 50496, Note_on_c, 6, 75, 80
8, 50576, Note_off_c, 6, 75, 80
8, 50592, Note_on_c, 6, 77, 80
8, 50960, Note_off_c, 6, 77, 80
8, 51072, Note_on_c, 6, 75, 80
8, 51248, Note_off_c, 6, 75, 80
8, 51264, Note_on_c, 6, 77, 80
8, 51440, Note_off_c, 6, 77, 80
8, 51456, Note_on_c, 6, 77, 80
8, 51536, Note_off_c, 6, 77, 80
8, 51552, Note_on_c, 6, 78, 80
8, 51632, Note_off_c, 6, 78, 80
8, 51648, Note_on_c, 6, 78, 80
8, 51728, Note_off_c, 6, 78, 80
8, 51744, Note_on_c, 6, 78, 80
8, 52016, Note_off_c, 6, 78, 80
8, 52032, Note_on_c, 6, 77, 80
8, 52112, Note_off_c, 6, 77, 80
8, 52128, Note_on_c, 6, 78, 80
8, 52592, Note_off_c, 6, 78, 80
8, 52992, Note_on_c, 6, 78, 85
8, 53072, Note_off_c, 6, 78, 85
8, 53088, Note_on_c, 6, 78, 78
8, 53168, Note_off_c, 6, 78, 78
8, 53184, Note_on_c, 6, 78, 85
8, 53264, Note_off_c, 6, 78, 85
8, 53280, Note_on_c, 6, 78, 85
8, 53648, Note_off_c, 6, 78, 85
8, 53760, Note_on_c, 6, 78, 85
8, 53840, Note_off_c, 6, 78, 85
8, 53856, Note_on_c, 6, 78, 84
8, 53936, Note_off_c, 6, 78, 84
8, 53952, Note_on_c, 6, 78, 85
8, 54032, Note_off_c, 6, 78, 85
8, 54048, Note_on_c, 6, 78, 85
8, 54416, Note_off_c, 6, 78, 85
8, 54528, Note_on_c, 6, 75, 85
8, 54608, Note_off_c, 6, 75, 85
8, 54624, Note_on_c, 6, 77, 74
8, 54704, Note_off_c, 6, 77, 74
8, 54720, Note_on_c, 6, 77, 85
8, 54800, Note_off_c, 6, 77, 85
8, 54816, Note_on_c, 6, 77, 85
8, 55280, Note_off_c, 6, 77, 85
8, 62208, Note_on_c, 6, 75, 80
8, 62288, Note_off_c, 6, 75, 80
8, 62304, Note_on_c, 6, 77, 80
8, 62384, Note_off_c, 6, 77, 80
8, 62400, Note_on_c, 6, 77, 80
8, 62480, Note_off_c, 6, 77, 80
8, 62496, Note_on_c, 6, 77, 80
8, 62768, Note_off_c, 6, 77, 80
8, 62784, Note_on_c, 6, 75, 80
8, 62864, Note_off_c, 6, 75, 80
8, 62880, Note_on_c, 6, 77, 80
8, 63248, Note_off_c, 6, 77, 80
8, 63360, Note_on_c, 6, 75, 80
8, 63536, Note_off_c, 6, 75, 80
8, 63552, Note_on_c, 6, 77, 80
8, 63728, Note_off_c, 6, 77, 80
8, 63744, Note_on_c, 6, 77, 80
8, 63824, Note_off_c, 6, 77, 80
8, 63840, Note_on_c, 6, 78, 80
8, 63920, Note_off_c, 6, 78, 80
8, 63936, Note_on_c, 6, 78, 80
8, 64016, Note_off_c, 6, 78, 80
8, 64032, Note_on_c, 6, 78, 80
8, 64304, Note_off_c, 6, 78, 80
8, 64320, Note_on_c, 6, 77, 80
8, 64400, Note_off_c, 6, 77, 80
8, 64416, Note_on_c, 6, 78, 80
8, 64880, Note_off_c, 6, 78, 80
8, 65280, Note_on_c, 6, 78, 80
8, 65360, Note_off_c, 6, 78, 80
8, 65376, Note_on_c, 6, 78, 80
8, 65456, Note_off_c, 6, 78, 80
8, 65472, Note_on_c, 6, 78, 80
8, 65552, Note_off_c, 6, 78, 80
8, 65568, Note_on_c, 6, 78, 80
8, 65936, Note_off_c, 6, 78, 80
8, 66048, Note_on_c, 6, 78, 80
8, 66128, Note_off_c, 6, 78, 80
8, 66144, Note_on_c, 6, 78, 80
8, 66224, Note_off_c, 6, 78, 80
8, 66240, Note_on_c, 6, 78, 80
8, 66320, Note_off_c, 6, 78, 80
8, 66336, Note_on_c, 6, 78, 80
8, 66704, Note_off_c, 6, 78, 80
8, 66816, Note_on_c, 6, 75, 80
8, 66896, Note_off_c, 6, 75, 80
8, 66912, Note_on_c, 6, 77, 80
8, 66992, Note_off_c, 6, 77, 80
8, 67008, Note_on_c, 6, 77, 80
8, 67088, Note_off_c, 6, 77, 80
8, 67104, Note_on_c, 6, 77, 80
8, 67568, Note_off_c, 6, 77, 80
8, 68352, Note_on_c, 6, 75, 80
8, 68432, Note_off_c, 6, 75, 80
8, 68448, Note_on_c, 6, 77, 80
8, 68528, Note_off_c, 6, 77, 80
8, 68544, Note_on_c, 6, 77, 80
8, 68624, Note_off_c, 6, 77, 80
8, 68640, Note_on_c, 6, 77, 80
8, 68912, Note_off_c, 6, 77, 80
8, 68928, Note_on_c, 6, 75, 80
8, 69008, Note_off_c, 6, 75, 80
8, 69024, Note_on_c, 6, 77, 80
8, 69392, Note_off_c, 6, 77, 80
8, 69504, Note_on_c, 6, 75, 80
8, 69680, Note_off_c, 6, 75, 80
8, 69696, Note_on_c, 6, 77, 80
8, 69872, Note_off_c, 6, 77, 80
8, 69888, Note_on_c, 6, 77, 80
8, 69968, Note_off_c, 6, 77, 80
8, 69984, Note_on_c, 6, 78, 80
8, 70064, Note_off_c, 6, 78, 80
8, 70080, Note_on_c, 6, 78, 80
8, 70160, Note_off_c, 6, 78, 80
8, 70176, Note_on_c, 6, 78, 80
8, 70448, Note_off_c, 6, 78, 80
8, 70464, Note_on_c, 6, 77, 80
8, 70544, Note_off_c, 6, 77, 80
8, 70560, Note_on_c, 6, 78, 80
8, 71024, Note_off_c, 6, 78, 80
8, 71424, Note_on_c, 6, 78, 80
8, 71504, Note_off_c, 6, 78, 80
8, 71520, Note_on_c, 6, 78, 80
8, 71600, Note_off_c, 6, 78, 80
8, 71616, Note_on_c, 6, 78, 80
8, 71696, Note_off_c, 6, 78, 80
8, 71712, Note_on_c, 6, 78, 80
8, 72080, Note_off_c, 6, 78, 80
8, 72192, Note_on_c, 6, 78, 80
8, 72272, Note_off_c, 6, 78, 80
8, 72288, Note_on_c, 6, 78, 80
8, 72368, Note_off_c, 6, 78, 80
8, 72384, Note_on_c, 6, 78, 80
8, 72464, Note_off_c, 6, 78, 80
8, 72480, Note_on_c, 6, 78, 80
8, 72848, Note_off_c, 6, 78, 80
8, 72960, Note_on_c, 6, 75, 80
8, 73040, Note_off_c, 6, 75, 80
8, 73056, Note_on_c, 6, 77, 80
8, 73136, Note_off_c, 6, 77, 80
8, 73152, Note_on_c, 6, 77, 80
8, 73232, Note_off_c, 6, 77, 80
8, 73248, Note_on_c, 6, 77, 80
8, 73712, Note_off_c, 6, 77, 80
8, 73712, End_track
0, 0, End_of_file
