0, 0, Header, 1, 23, 480
1, 0, Start_track
1, 0, Title_t, "Cherish the day (Sade)"
1, 0, Text_t, "(c) Wild West Productions 2002\012"
1, 0, Text_t, """Cherish The Day"" By Sade\012"
1, 0, Text_t, "All rights reserved\012"
1, 0, Text_t, "http://musichotel.cjb.net\012"
1, 0, Text_t, "wild-west@worldnet.att.net\012"
1, 0, Time_signature, 4, 2, 24, 8
1, 0, Key_signature, -3, "major"
1, 0, Tempo, 750000
1, 0, End_track
2, 0, Start_track
2, 0, Title_t, "Soft karaoke"
2, 0, Text_t, "@KMIDI KARAOKE FILE"
2, 0, End_track
3, 0, Start_track
3, 0, Title_t, "Words"
3, 0, Text_t, "@LENGL"
3, 0, Text_t, "@TTitle: Cherish The Day"
3, 0, Text_t, "@TArtist: Sade"
3, 0, Text_t, "@TSequenced by: Dan West"
3, 18600, Text_t, "\\You're"
3, 18720, Text_t, " rul"
3, 18900, Text_t, "ing"
3, 19080, Text_t, " the"
3, 19200, Text_t, " way"
3, 19500, Text_t, "/that"
3, 19620, Text_t, " I"
3, 19800, Text_t, " move"
3, 21960, Text_t, "/And"
3, 22080, Text_t, " I"
3, 22320, Text_t, " breathe"
3, 22560, Text_t, " your"
3, 22800, Text_t, " air"
3, 26280, Text_t, "/You"
3, 26400, Text_t, " on"
3, 26580, Text_t, "ly"
3, 26760, Text_t, " can"
3, 26880, Text_t, " res"
3, 27240, Text_t, "cue"
3, 27480, Text_t, " me"
3, 29760, Text_t, "/This"
3, 30000, Text_t, " is"
3, 30240, Text_t, " my"
3, 30480, Text_t, " pray"
3, 30600, Text_t, "er"
3, 34560, Text_t, "\\If"
3, 34800, Text_t, " you"
3, 35040, Text_t, " were"
3, 35280, Text_t, " mine"
3, 38400, Text_t, "/If"
3, 38640, Text_t, " you"
3, 38880, Text_t, " were"
3, 39120, Text_t, " mine"
3, 42000, Text_t, "/I"
3, 42240, Text_t, " would"
3, 42480, Text_t, "n't"
3, 42720, Text_t, " want"
3, 42960, Text_t, " to"
3, 43200, Text_t, " go"
3, 45600, Text_t, "/to"
3, 45840, Text_t, " heav"
3, 46140, Text_t, "en"
3, 49440, Text_t, "\\I"
3, 49620, Text_t, " cher"
3, 49800, Text_t, "ish"
3, 49920, Text_t, " the"
3, 49980, Text_t, " day"
3, 51240, Text_t, "/I"
3, 51360, Text_t, " won't"
3, 51600, Text_t, " go"
3, 51720, Text_t, " a"
3, 51840, Text_t, "stray"
3, 53160, Text_t, "/I"
3, 53280, Text_t, " won't"
3, 53520, Text_t, " be"
3, 53640, Text_t, " a"
3, 53760, Text_t, "fraid"
3, 55140, Text_t, "/You"
3, 55200, Text_t, " won't"
3, 55440, Text_t, " catch"
3, 55560, Text_t, " me"
3, 55800, Text_t, " run"
3, 56100, Text_t, "ning"
3, 57000, Text_t, "/You're"
3, 57120, Text_t, " rul"
3, 57300, Text_t, "ing"
3, 57480, Text_t, " the"
3, 57600, Text_t, " way"
3, 57840, Text_t, "/that"
3, 57960, Text_t, " I"
3, 58200, Text_t, " move"
3, 60480, Text_t, "/You"
3, 60720, Text_t, " take"
3, 60960, Text_t, " my"
3, 61200, Text_t, " air"
3, 64680, Text_t, "\\You"
3, 64800, Text_t, " show"
3, 64980, Text_t, " me"
3, 65100, Text_t, "/how"
3, 65280, Text_t, " deep"
3, 65400, Text_t, " love"
3, 65760, Text_t, " can"
3, 66120, Text_t, " be"
3, 87720, Text_t, "\\You're"
3, 87840, Text_t, " rul"
3, 88020, Text_t, "ing"
3, 88200, Text_t, " the"
3, 88320, Text_t, " way"
3, 88560, Text_t, "/that"
3, 88680, Text_t, " I"
3, 88920, Text_t, " move"
3, 91080, Text_t, "/And"
3, 91200, Text_t, " I"
3, 91440, Text_t, " breathe"
3, 91680, Text_t, " your"
3, 91920, Text_t, " air"
3, 95400, Text_t, "/You"
3, 95520, Text_t, " on"
3, 95700, Text_t, "ly"
3, 95880, Text_t, " can"
3, 96000, Text_t, " res"
3, 96360, Text_t, "cue"
3, 96600, Text_t, " me"
3, 98880, Text_t, "/This"
3, 99120, Text_t, " is"
3, 99360, Text_t, " my"
3, 99600, Text_t, " pray"
3, 100080, Text_t, "er"
3, 118560, Text_t, "\\I"
3, 118740, Text_t, " cher"
3, 118920, Text_t, "ish"
3, 119040, Text_t, " the"
3, 119160, Text_t, " day"
3, 120360, Text_t, "/I"
3, 120480, Text_t, " won't"
3, 120720, Text_t, " go"
3, 120840, Text_t, " a"
3, 120960, Text_t, "stray"
3, 122280, Text_t, "/I"
3, 122400, Text_t, " won't"
3, 122640, Text_t, " be"
3, 122760, Text_t, " a"
3, 122880, Text_t, "fraid"
3, 124200, Text_t, "/You"
3, 124320, Text_t, " won't"
3, 124560, Text_t, " catch"
3, 124680, Text_t, " me"
3, 124920, Text_t, " run"
3, 125160, Text_t, "ning"
3, 125760, Text_t, "/I"
3, 126240, Text_t, " cher"
3, 126420, Text_t, "ish"
3, 126600, Text_t, " the"
3, 126720, Text_t, " day"
3, 128040, Text_t, "/I"
3, 128160, Text_t, " won't"
3, 128400, Text_t, " go"
3, 128520, Text_t, " a"
3, 128640, Text_t, "stray"
3, 129960, Text_t, "/I"
3, 130080, Text_t, " won't"
3, 130320, Text_t, " be"
3, 130560, Text_t, " a"
3, 130620, Text_t, "fraid"
3, 132000, Text_t, "/Won't"
3, 132180, Text_t, " run"
3, 132300, Text_t, " a"
3, 132480, Text_t, "way"
3, 149160, Text_t, "\\You"
3, 149280, Text_t, " show"
3, 149460, Text_t, " me"
3, 149640, Text_t, "/how"
3, 149760, Text_t, " deep"
3, 149880, Text_t, " love"
3, 150180, Text_t, " can"
3, 150360, Text_t, " be"
3, 156840, Text_t, "/You"
3, 156960, Text_t, " show"
3, 157140, Text_t, " me"
3, 157320, Text_t, "/how"
3, 157440, Text_t, " deep"
3, 157500, Text_t, " love"
3, 157800, Text_t, " can"
3, 158040, Text_t, " be"
3, 160320, Text_t, "/This"
3, 160560, Text_t, " is"
3, 160800, Text_t, " my"
3, 161040, Text_t, " pray"
3, 161160, Text_t, "er"
3, 164520, Text_t, "\\I"
3, 164640, Text_t, " cher"
3, 164820, Text_t, "ish"
3, 164940, Text_t, " the"
3, 165120, Text_t, " day"
3, 166440, Text_t, "/I"
3, 166560, Text_t, " won't"
3, 166800, Text_t, " go"
3, 166920, Text_t, " a"
3, 167040, Text_t, "stray"
3, 168360, Text_t, "/I"
3, 168480, Text_t, " won't"
3, 168720, Text_t, " be"
3, 168840, Text_t, " a"
3, 168960, Text_t, "fraid"
3, 170520, Text_t, "/Won't"
3, 170880, Text_t, " run"
3, 171000, Text_t, " a"
3, 171120, Text_t, "way"
3, 171480, Text_t, "/Won't"
3, 171840, Text_t, " shy"
3, 172200, Text_t, "\\I"
3, 172320, Text_t, " cher"
3, 172440, Text_t, "ish"
3, 172620, Text_t, " the"
3, 172800, Text_t, " day"
3, 174120, Text_t, "/I"
3, 174240, Text_t, " won't"
3, 174480, Text_t, " go"
3, 174600, Text_t, " a"
3, 174720, Text_t, "stray"
3, 179280, Text_t, "\\I"
3, 179520, Text_t, " cher"
3, 179760, Text_t, "ish"
3, 180000, Text_t, " the"
3, 180240, Text_t, " day"
3, 186960, Text_t, "/I"
3, 187200, Text_t, " cher"
3, 187440, Text_t, "ish"
3, 187680, Text_t, " the"
3, 187920, Text_t, " day"
3, 194640, Text_t, "/I"
3, 194880, Text_t, " cher"
3, 195120, Text_t, "ish"
3, 195360, Text_t, " the"
3, 195600, Text_t, " day"
3, 202320, Text_t, "/I"
3, 202560, Text_t, " cher"
3, 202800, Text_t, "ish"
3, 203040, Text_t, " the"
3, 203280, Text_t, " day"
3, 210000, Text_t, "/I"
3, 210240, Text_t, " cher"
3, 210480, Text_t, "ish"
3, 210720, Text_t, " the"
3, 210960, Text_t, " day"
3, 210960, End_track
4, 0, Start_track
4, 0, Title_t, "© Wild West Productions 2002"
4, 0, Program_c, 1, 37
4, 0, Control_c, 1, 7, 111
4, 0, Control_c, 1, 10, 34
4, 0, Control_c, 1, 91, 40
4, 0, Control_c, 1, 93, 0
4, 0, Control_c, 1, 123, 0
4, 0, Control_c, 1, 64, 0
4, 3844, Note_on_c, 1, 34, 90
4, 4760, Note_on_c, 1, 34, 0
4, 4804, Note_on_c, 1, 38, 90
4, 5720, Note_on_c, 1, 38, 0
4, 5764, Note_on_c, 1, 34, 90
4, 7432, Note_on_c, 1, 34, 0
4, 7560, Note_on_c, 1, 34, 99
4, 7664, Note_on_c, 1, 34, 0
4, 7680, Note_on_c, 1, 29, 84
4, 8388, Note_on_c, 1, 29, 0
4, 8412, Note_on_c, 1, 29, 78
4, 8528, Note_on_c, 1, 29, 0
4, 8640, Note_on_c, 1, 29, 100
4, 8824, Note_on_c, 1, 29, 0
4, 8880, Note_on_c, 1, 29, 94
4, 9184, Note_on_c, 1, 29, 0
4, 9260, Note_on_c, 1, 29, 97
4, 9580, Note_on_c, 1, 29, 0
4, 9600, Note_on_c, 1, 43, 88
4, 10552, Note_on_c, 1, 38, 86
4, 10592, Note_on_c, 1, 43, 0
4, 11164, Note_on_c, 1, 38, 0
4, 11168, Note_on_c, 1, 43, 98
4, 11444, Note_on_c, 1, 43, 0
4, 11520, Note_on_c, 1, 34, 81
4, 12268, Note_on_c, 1, 34, 0
4, 12360, Note_on_c, 1, 34, 100
4, 12440, Note_on_c, 1, 34, 0
4, 12484, Note_on_c, 1, 38, 90
4, 13400, Note_on_c, 1, 38, 0
4, 13444, Note_on_c, 1, 34, 90
4, 15112, Note_on_c, 1, 34, 0
4, 15240, Note_on_c, 1, 34, 99
4, 15344, Note_on_c, 1, 34, 0
4, 15360, Note_on_c, 1, 29, 84
4, 16068, Note_on_c, 1, 29, 0
4, 16092, Note_on_c, 1, 29, 78
4, 16208, Note_on_c, 1, 29, 0
4, 16320, Note_on_c, 1, 29, 100
4, 16504, Note_on_c, 1, 29, 0
4, 16560, Note_on_c, 1, 29, 94
4, 16864, Note_on_c, 1, 29, 0
4, 16940, Note_on_c, 1, 29, 97
4, 17260, Note_on_c, 1, 29, 0
4, 17280, Note_on_c, 1, 43, 88
4, 18232, Note_on_c, 1, 38, 86
4, 18272, Note_on_c, 1, 43, 0
4, 18844, Note_on_c, 1, 38, 0
4, 18848, Note_on_c, 1, 43, 98
4, 19124, Note_on_c, 1, 43, 0
4, 19208, Note_on_c, 1, 22, 104
4, 20156, Note_on_c, 1, 34, 105
4, 20160, Note_on_c, 1, 22, 0
4, 20736, Note_on_c, 1, 34, 0
4, 20880, Note_on_c, 1, 34, 97
4, 21104, Note_on_c, 1, 34, 0
4, 21124, Note_on_c, 1, 34, 90
4, 22792, Note_on_c, 1, 34, 0
4, 22920, Note_on_c, 1, 34, 99
4, 23024, Note_on_c, 1, 34, 0
4, 23048, Note_on_c, 1, 29, 104
4, 23996, Note_on_c, 1, 36, 105
4, 24000, Note_on_c, 1, 29, 0
4, 24576, Note_on_c, 1, 36, 0
4, 24720, Note_on_c, 1, 41, 97
4, 24944, Note_on_c, 1, 41, 0
4, 24980, Note_on_c, 1, 43, 98
4, 25916, Note_on_c, 1, 43, 97
4, 25944, Note_on_c, 1, 43, 0
4, 26284, Note_on_c, 1, 38, 100
4, 26296, Note_on_c, 1, 43, 0
4, 26640, Note_on_c, 1, 43, 98
4, 26652, Note_on_c, 1, 38, 0
4, 26868, Note_on_c, 1, 43, 0
4, 26880, Note_on_c, 1, 34, 100
4, 27640, Note_on_c, 1, 34, 0
4, 27720, Note_on_c, 1, 22, 86
4, 27776, Note_on_c, 1, 22, 0
4, 27832, Note_on_c, 1, 34, 98
4, 27908, Note_on_c, 1, 34, 0
4, 28084, Note_on_c, 1, 34, 102
4, 28488, Note_on_c, 1, 34, 0
4, 28560, Note_on_c, 1, 34, 104
4, 28800, Note_on_c, 1, 34, 0
4, 28808, Note_on_c, 1, 34, 93
4, 29772, Note_on_c, 1, 34, 97
4, 29800, Note_on_c, 1, 34, 0
4, 30244, Note_on_c, 1, 41, 111
4, 30252, Note_on_c, 1, 34, 0
4, 30432, Note_on_c, 1, 41, 0
4, 30480, Note_on_c, 1, 34, 90
4, 30668, Note_on_c, 1, 34, 0
4, 30728, Note_on_c, 1, 29, 93
4, 31692, Note_on_c, 1, 29, 97
4, 31720, Note_on_c, 1, 29, 0
4, 32164, Note_on_c, 1, 36, 111
4, 32172, Note_on_c, 1, 29, 0
4, 32352, Note_on_c, 1, 36, 0
4, 32400, Note_on_c, 1, 29, 90
4, 32588, Note_on_c, 1, 29, 0
4, 32640, Note_on_c, 1, 31, 106
4, 33368, Note_on_c, 1, 31, 0
4, 33600, Note_on_c, 1, 31, 103
4, 33680, Note_on_c, 1, 31, 0
4, 33840, Note_on_c, 1, 31, 92
4, 34324, Note_on_c, 1, 31, 108
4, 34328, Note_on_c, 1, 31, 0
4, 34560, Note_on_c, 1, 31, 0
4, 34580, Note_on_c, 1, 34, 98
4, 35516, Note_on_c, 1, 34, 97
4, 35544, Note_on_c, 1, 34, 0
4, 35884, Note_on_c, 1, 34, 100
4, 35896, Note_on_c, 1, 34, 0
4, 36240, Note_on_c, 1, 34, 98
4, 36252, Note_on_c, 1, 34, 0
4, 36468, Note_on_c, 1, 34, 0
4, 36480, Note_on_c, 1, 34, 106
4, 37208, Note_on_c, 1, 34, 0
4, 37440, Note_on_c, 1, 34, 103
4, 37520, Note_on_c, 1, 34, 0
4, 37680, Note_on_c, 1, 34, 92
4, 38164, Note_on_c, 1, 34, 108
4, 38168, Note_on_c, 1, 34, 0
4, 38400, Note_on_c, 1, 34, 0
4, 38424, Note_on_c, 1, 41, 108
4, 39356, Note_on_c, 1, 41, 0
4, 39364, Note_on_c, 1, 36, 96
4, 39936, Note_on_c, 1, 36, 0
4, 40080, Note_on_c, 1, 41, 90
4, 40292, Note_on_c, 1, 41, 0
4, 40328, Note_on_c, 1, 31, 93
4, 41292, Note_on_c, 1, 31, 97
4, 41320, Note_on_c, 1, 31, 0
4, 41764, Note_on_c, 1, 38, 111
4, 41772, Note_on_c, 1, 31, 0
4, 41952, Note_on_c, 1, 38, 0
4, 42000, Note_on_c, 1, 31, 90
4, 42188, Note_on_c, 1, 31, 0
4, 42240, Note_on_c, 1, 34, 91
4, 42988, Note_on_c, 1, 34, 0
4, 43080, Note_on_c, 1, 34, 110
4, 43160, Note_on_c, 1, 34, 0
4, 43200, Note_on_c, 1, 39, 91
4, 43948, Note_on_c, 1, 39, 0
4, 44040, Note_on_c, 1, 39, 110
4, 44120, Note_on_c, 1, 39, 0
4, 44184, Note_on_c, 1, 34, 108
4, 45116, Note_on_c, 1, 34, 0
4, 45124, Note_on_c, 1, 29, 96
4, 45696, Note_on_c, 1, 29, 0
4, 45840, Note_on_c, 1, 34, 90
4, 46052, Note_on_c, 1, 34, 0
4, 46104, Note_on_c, 1, 41, 108
4, 47036, Note_on_c, 1, 41, 0
4, 47044, Note_on_c, 1, 36, 96
4, 47616, Note_on_c, 1, 36, 0
4, 47760, Note_on_c, 1, 41, 90
4, 47972, Note_on_c, 1, 41, 0
4, 48004, Note_on_c, 1, 31, 90
4, 49672, Note_on_c, 1, 31, 0
4, 49800, Note_on_c, 1, 31, 99
4, 49904, Note_on_c, 1, 31, 0
4, 49920, Note_on_c, 1, 34, 91
4, 50668, Note_on_c, 1, 34, 0
4, 50760, Note_on_c, 1, 34, 110
4, 50840, Note_on_c, 1, 34, 0
4, 50880, Note_on_c, 1, 36, 98
4, 51840, Note_on_c, 1, 36, 0
4, 51860, Note_on_c, 1, 34, 98
4, 52796, Note_on_c, 1, 34, 97
4, 52824, Note_on_c, 1, 34, 0
4, 53164, Note_on_c, 1, 29, 100
4, 53176, Note_on_c, 1, 34, 0
4, 53520, Note_on_c, 1, 34, 98
4, 53532, Note_on_c, 1, 29, 0
4, 53748, Note_on_c, 1, 34, 0
4, 53764, Note_on_c, 1, 29, 90
4, 55432, Note_on_c, 1, 29, 0
4, 55560, Note_on_c, 1, 29, 99
4, 55664, Note_on_c, 1, 29, 0
4, 55684, Note_on_c, 1, 31, 100
4, 56600, Note_on_c, 1, 31, 0
4, 56640, Note_on_c, 1, 36, 94
4, 57348, Note_on_c, 1, 36, 0
4, 57372, Note_on_c, 1, 36, 88
4, 57488, Note_on_c, 1, 36, 0
4, 57620, Note_on_c, 1, 34, 98
4, 58556, Note_on_c, 1, 34, 97
4, 58584, Note_on_c, 1, 34, 0
4, 58924, Note_on_c, 1, 34, 100
4, 58936, Note_on_c, 1, 34, 0
4, 59280, Note_on_c, 1, 34, 98
4, 59292, Note_on_c, 1, 34, 0
4, 59508, Note_on_c, 1, 34, 0
4, 59544, Note_on_c, 1, 34, 108
4, 60476, Note_on_c, 1, 34, 0
4, 60484, Note_on_c, 1, 29, 96
4, 61056, Note_on_c, 1, 29, 0
4, 61200, Note_on_c, 1, 34, 90
4, 61412, Note_on_c, 1, 34, 0
4, 61448, Note_on_c, 1, 29, 104
4, 62396, Note_on_c, 1, 36, 105
4, 62400, Note_on_c, 1, 29, 0
4, 62976, Note_on_c, 1, 36, 0
4, 63120, Note_on_c, 1, 41, 97
4, 63344, Note_on_c, 1, 41, 0
4, 63384, Note_on_c, 1, 43, 108
4, 64316, Note_on_c, 1, 43, 0
4, 64324, Note_on_c, 1, 38, 96
4, 64896, Note_on_c, 1, 38, 0
4, 65040, Note_on_c, 1, 43, 90
4, 65252, Note_on_c, 1, 43, 0
4, 65288, Note_on_c, 1, 36, 93
4, 66252, Note_on_c, 1, 36, 97
4, 66280, Note_on_c, 1, 36, 0
4, 66724, Note_on_c, 1, 43, 111
4, 66732, Note_on_c, 1, 36, 0
4, 66912, Note_on_c, 1, 43, 0
4, 66960, Note_on_c, 1, 36, 90
4, 67148, Note_on_c, 1, 36, 0
4, 67204, Note_on_c, 1, 36, 90
4, 68052, Note_on_c, 1, 36, 0
4, 68164, Note_on_c, 1, 36, 99
4, 68352, Note_on_c, 1, 36, 0
4, 68400, Note_on_c, 1, 36, 90
4, 68552, Note_on_c, 1, 36, 0
4, 68760, Note_on_c, 1, 36, 90
4, 69080, Note_on_c, 1, 36, 0
4, 69140, Note_on_c, 1, 36, 98
4, 70076, Note_on_c, 1, 36, 97
4, 70104, Note_on_c, 1, 36, 0
4, 70444, Note_on_c, 1, 36, 100
4, 70456, Note_on_c, 1, 36, 0
4, 70800, Note_on_c, 1, 36, 98
4, 70812, Note_on_c, 1, 36, 0
4, 71028, Note_on_c, 1, 36, 0
4, 71060, Note_on_c, 1, 36, 98
4, 71996, Note_on_c, 1, 36, 97
4, 72024, Note_on_c, 1, 36, 0
4, 72364, Note_on_c, 1, 31, 100
4, 72376, Note_on_c, 1, 36, 0
4, 72720, Note_on_c, 1, 36, 98
4, 72732, Note_on_c, 1, 31, 0
4, 72948, Note_on_c, 1, 36, 0
4, 72984, Note_on_c, 1, 36, 108
4, 73916, Note_on_c, 1, 36, 0
4, 73924, Note_on_c, 1, 31, 96
4, 74496, Note_on_c, 1, 31, 0
4, 74640, Note_on_c, 1, 36, 90
4, 74852, Note_on_c, 1, 36, 0
4, 74880, Note_on_c, 1, 48, 99
4, 75840, Note_on_c, 1, 48, 0
4, 75840, Note_on_c, 1, 43, 103
4, 76328, Note_on_c, 1, 48, 99
4, 76336, Note_on_c, 1, 43, 0
4, 76512, Note_on_c, 1, 48, 0
4, 76560, Note_on_c, 1, 36, 102
4, 76768, Note_on_c, 1, 36, 0
4, 76808, Note_on_c, 1, 36, 93
4, 77772, Note_on_c, 1, 36, 97
4, 77800, Note_on_c, 1, 36, 0
4, 78244, Note_on_c, 1, 48, 111
4, 78252, Note_on_c, 1, 36, 0
4, 78432, Note_on_c, 1, 48, 0
4, 78480, Note_on_c, 1, 36, 90
4, 78668, Note_on_c, 1, 36, 0
4, 78720, Note_on_c, 1, 36, 106
4, 79448, Note_on_c, 1, 36, 0
4, 79680, Note_on_c, 1, 36, 103
4, 79760, Note_on_c, 1, 36, 0
4, 79920, Note_on_c, 1, 36, 92
4, 80404, Note_on_c, 1, 36, 108
4, 80408, Note_on_c, 1, 36, 0
4, 80640, Note_on_c, 1, 36, 0
4, 80644, Note_on_c, 1, 36, 90
4, 82312, Note_on_c, 1, 36, 0
4, 82440, Note_on_c, 1, 36, 99
4, 82544, Note_on_c, 1, 36, 0
4, 82580, Note_on_c, 1, 36, 98
4, 83516, Note_on_c, 1, 36, 97
4, 83544, Note_on_c, 1, 36, 0
4, 83884, Note_on_c, 1, 31, 100
4, 83896, Note_on_c, 1, 36, 0
4, 84240, Note_on_c, 1, 36, 98
4, 84252, Note_on_c, 1, 31, 0
4, 84468, Note_on_c, 1, 36, 0
4, 84480, Note_on_c, 1, 36, 106
4, 85208, Note_on_c, 1, 36, 0
4, 85440, Note_on_c, 1, 36, 103
4, 85520, Note_on_c, 1, 36, 0
4, 85680, Note_on_c, 1, 36, 92
4, 86164, Note_on_c, 1, 36, 108
4, 86168, Note_on_c, 1, 36, 0
4, 86400, Note_on_c, 1, 36, 0
4, 86408, Note_on_c, 1, 36, 93
4, 87372, Note_on_c, 1, 36, 97
4, 87400, Note_on_c, 1, 36, 0
4, 87844, Note_on_c, 1, 43, 111
4, 87852, Note_on_c, 1, 36, 0
4, 88032, Note_on_c, 1, 43, 0
4, 88080, Note_on_c, 1, 36, 90
4, 88268, Note_on_c, 1, 36, 0
4, 88340, Note_on_c, 1, 36, 98
4, 89276, Note_on_c, 1, 36, 97
4, 89304, Note_on_c, 1, 36, 0
4, 89644, Note_on_c, 1, 31, 100
4, 89656, Note_on_c, 1, 36, 0
4, 90000, Note_on_c, 1, 36, 98
4, 90012, Note_on_c, 1, 31, 0
4, 90228, Note_on_c, 1, 36, 0
4, 90264, Note_on_c, 1, 36, 108
4, 91196, Note_on_c, 1, 36, 0
4, 91204, Note_on_c, 1, 31, 96
4, 91776, Note_on_c, 1, 31, 0
4, 91920, Note_on_c, 1, 36, 90
4, 92132, Note_on_c, 1, 36, 0
4, 92184, Note_on_c, 1, 36, 108
4, 93116, Note_on_c, 1, 36, 0
4, 93124, Note_on_c, 1, 36, 96
4, 93696, Note_on_c, 1, 36, 0
4, 93840, Note_on_c, 1, 36, 90
4, 94052, Note_on_c, 1, 36, 0
4, 94080, Note_on_c, 1, 48, 99
4, 95040, Note_on_c, 1, 48, 0
4, 95040, Note_on_c, 1, 43, 103
4, 95528, Note_on_c, 1, 48, 99
4, 95536, Note_on_c, 1, 43, 0
4, 95712, Note_on_c, 1, 48, 0
4, 95760, Note_on_c, 1, 36, 102
4, 95968, Note_on_c, 1, 36, 0
4, 96024, Note_on_c, 1, 36, 108
4, 96956, Note_on_c, 1, 36, 0
4, 96964, Note_on_c, 1, 31, 96
4, 97536, Note_on_c, 1, 31, 0
4, 97680, Note_on_c, 1, 36, 90
4, 97892, Note_on_c, 1, 36, 0
4, 97928, Note_on_c, 1, 36, 93
4, 98892, Note_on_c, 1, 36, 97
4, 98920, Note_on_c, 1, 36, 0
4, 99364, Note_on_c, 1, 43, 111
4, 99372, Note_on_c, 1, 36, 0
4, 99552, Note_on_c, 1, 43, 0
4, 99600, Note_on_c, 1, 36, 90
4, 99788, Note_on_c, 1, 36, 0
4, 99840, Note_on_c, 1, 36, 99
4, 100800, Note_on_c, 1, 36, 0
4, 100800, Note_on_c, 1, 36, 103
4, 101288, Note_on_c, 1, 24, 99
4, 101296, Note_on_c, 1, 36, 0
4, 101760, Note_on_c, 1, 24, 0
4, 101764, Note_on_c, 1, 36, 90
4, 102612, Note_on_c, 1, 36, 0
4, 102724, Note_on_c, 1, 36, 99
4, 102912, Note_on_c, 1, 36, 0
4, 102960, Note_on_c, 1, 36, 90
4, 103112, Note_on_c, 1, 36, 0
4, 103320, Note_on_c, 1, 36, 90
4, 103640, Note_on_c, 1, 36, 0
4, 103680, Note_on_c, 1, 48, 99
4, 104640, Note_on_c, 1, 48, 0
4, 104640, Note_on_c, 1, 43, 103
4, 105128, Note_on_c, 1, 48, 99
4, 105136, Note_on_c, 1, 43, 0
4, 105312, Note_on_c, 1, 48, 0
4, 105360, Note_on_c, 1, 36, 102
4, 105568, Note_on_c, 1, 36, 0
4, 105604, Note_on_c, 1, 36, 90
4, 107272, Note_on_c, 1, 36, 0
4, 107400, Note_on_c, 1, 36, 99
4, 107504, Note_on_c, 1, 36, 0
4, 107520, Note_on_c, 1, 36, 100
4, 108280, Note_on_c, 1, 36, 0
4, 108360, Note_on_c, 1, 24, 86
4, 108416, Note_on_c, 1, 24, 0
4, 108472, Note_on_c, 1, 36, 98
4, 108548, Note_on_c, 1, 36, 0
4, 108724, Note_on_c, 1, 36, 102
4, 109128, Note_on_c, 1, 36, 0
4, 109200, Note_on_c, 1, 36, 104
4, 109440, Note_on_c, 1, 36, 0
4, 109444, Note_on_c, 1, 36, 90
4, 111112, Note_on_c, 1, 36, 0
4, 111240, Note_on_c, 1, 36, 99
4, 111344, Note_on_c, 1, 36, 0
4, 111368, Note_on_c, 1, 36, 93
4, 112332, Note_on_c, 1, 36, 97
4, 112360, Note_on_c, 1, 36, 0
4, 112804, Note_on_c, 1, 43, 111
4, 112812, Note_on_c, 1, 36, 0
4, 112992, Note_on_c, 1, 43, 0
4, 113040, Note_on_c, 1, 36, 90
4, 113228, Note_on_c, 1, 36, 0
4, 113288, Note_on_c, 1, 36, 93
4, 114252, Note_on_c, 1, 36, 97
4, 114280, Note_on_c, 1, 36, 0
4, 114724, Note_on_c, 1, 43, 111
4, 114732, Note_on_c, 1, 36, 0
4, 114912, Note_on_c, 1, 43, 0
4, 114960, Note_on_c, 1, 36, 90
4, 115148, Note_on_c, 1, 36, 0
4, 115204, Note_on_c, 1, 36, 90
4, 116872, Note_on_c, 1, 36, 0
4, 117000, Note_on_c, 1, 36, 99
4, 117104, Note_on_c, 1, 36, 0
4, 117140, Note_on_c, 1, 36, 98
4, 118076, Note_on_c, 1, 36, 97
4, 118104, Note_on_c, 1, 36, 0
4, 118444, Note_on_c, 1, 31, 100
4, 118456, Note_on_c, 1, 36, 0
4, 118800, Note_on_c, 1, 36, 98
4, 118812, Note_on_c, 1, 31, 0
4, 119028, Note_on_c, 1, 36, 0
4, 119048, Note_on_c, 1, 36, 93
4, 120012, Note_on_c, 1, 36, 97
4, 120040, Note_on_c, 1, 36, 0
4, 120484, Note_on_c, 1, 43, 111
4, 120492, Note_on_c, 1, 36, 0
4, 120672, Note_on_c, 1, 43, 0
4, 120720, Note_on_c, 1, 36, 90
4, 120908, Note_on_c, 1, 36, 0
4, 120980, Note_on_c, 1, 36, 98
4, 121916, Note_on_c, 1, 36, 97
4, 121944, Note_on_c, 1, 36, 0
4, 122284, Note_on_c, 1, 31, 100
4, 122296, Note_on_c, 1, 36, 0
4, 122640, Note_on_c, 1, 36, 98
4, 122652, Note_on_c, 1, 31, 0
4, 122868, Note_on_c, 1, 36, 0
4, 122880, Note_on_c, 1, 36, 106
4, 123608, Note_on_c, 1, 36, 0
4, 123840, Note_on_c, 1, 36, 103
4, 123920, Note_on_c, 1, 36, 0
4, 124080, Note_on_c, 1, 36, 92
4, 124564, Note_on_c, 1, 36, 108
4, 124568, Note_on_c, 1, 36, 0
4, 124800, Note_on_c, 1, 36, 0
4, 124820, Note_on_c, 1, 36, 98
4, 125756, Note_on_c, 1, 36, 97
4, 125784, Note_on_c, 1, 36, 0
4, 126124, Note_on_c, 1, 31, 100
4, 126136, Note_on_c, 1, 36, 0
4, 126480, Note_on_c, 1, 36, 98
4, 126492, Note_on_c, 1, 31, 0
4, 126708, Note_on_c, 1, 36, 0
4, 126724, Note_on_c, 1, 36, 90
4, 127572, Note_on_c, 1, 36, 0
4, 127684, Note_on_c, 1, 36, 99
4, 127872, Note_on_c, 1, 36, 0
4, 127920, Note_on_c, 1, 36, 90
4, 128072, Note_on_c, 1, 36, 0
4, 128280, Note_on_c, 1, 36, 90
4, 128600, Note_on_c, 1, 36, 0
4, 128644, Note_on_c, 1, 36, 90
4, 129492, Note_on_c, 1, 36, 0
4, 129604, Note_on_c, 1, 36, 99
4, 129792, Note_on_c, 1, 36, 0
4, 129840, Note_on_c, 1, 36, 90
4, 129992, Note_on_c, 1, 36, 0
4, 130200, Note_on_c, 1, 36, 90
4, 130520, Note_on_c, 1, 36, 0
4, 130560, Note_on_c, 1, 36, 100
4, 131320, Note_on_c, 1, 36, 0
4, 131400, Note_on_c, 1, 24, 86
4, 131456, Note_on_c, 1, 24, 0
4, 131512, Note_on_c, 1, 36, 98
4, 131588, Note_on_c, 1, 36, 0
4, 131764, Note_on_c, 1, 36, 102
4, 132168, Note_on_c, 1, 36, 0
4, 132240, Note_on_c, 1, 36, 104
4, 132480, Note_on_c, 1, 36, 0
4, 132500, Note_on_c, 1, 36, 98
4, 133436, Note_on_c, 1, 36, 97
4, 133464, Note_on_c, 1, 36, 0
4, 133804, Note_on_c, 1, 31, 100
4, 133816, Note_on_c, 1, 36, 0
4, 134160, Note_on_c, 1, 36, 98
4, 134172, Note_on_c, 1, 31, 0
4, 134388, Note_on_c, 1, 36, 0
4, 134400, Note_on_c, 1, 36, 108
4, 134676, Note_on_c, 1, 36, 0
4, 134744, Note_on_c, 1, 36, 106
4, 134808, Note_on_c, 1, 36, 0
4, 135352, Note_on_c, 1, 36, 96
4, 135412, Note_on_c, 1, 36, 0
4, 135596, Note_on_c, 1, 36, 115
4, 135820, Note_on_c, 1, 36, 0
4, 135832, Note_on_c, 1, 31, 95
4, 135928, Note_on_c, 1, 31, 0
4, 135952, Note_on_c, 1, 36, 77
4, 136032, Note_on_c, 1, 36, 0
4, 136068, Note_on_c, 1, 31, 99
4, 136184, Note_on_c, 1, 31, 0
4, 136316, Note_on_c, 1, 36, 107
4, 136388, Note_on_c, 1, 36, 0
4, 136552, Note_on_c, 1, 36, 95
4, 136664, Note_on_c, 1, 36, 0
4, 136684, Note_on_c, 1, 43, 97
4, 136748, Note_on_c, 1, 43, 0
4, 136928, Note_on_c, 1, 43, 103
4, 137016, Note_on_c, 1, 43, 0
4, 137032, Note_on_c, 1, 36, 107
4, 137172, Note_on_c, 1, 36, 0
4, 137640, Note_on_c, 1, 43, 98
4, 137712, Note_on_c, 1, 43, 0
4, 137756, Note_on_c, 1, 48, 94
4, 137876, Note_on_c, 1, 43, 96
4, 137904, Note_on_c, 1, 48, 0
4, 137992, Note_on_c, 1, 36, 120
4, 137996, Note_on_c, 1, 43, 0
4, 138160, Note_on_c, 1, 36, 0
4, 138264, Note_on_c, 1, 36, 108
4, 139176, Note_on_c, 1, 31, 96
4, 139196, Note_on_c, 1, 36, 0
4, 139892, Note_on_c, 1, 31, 0
4, 140184, Note_on_c, 1, 36, 106
4, 140368, Note_on_c, 1, 36, 0
4, 140532, Note_on_c, 1, 36, 106
4, 141384, Note_on_c, 1, 36, 0
4, 141488, Note_on_c, 1, 31, 95
4, 141560, Note_on_c, 1, 31, 0
4, 141596, Note_on_c, 1, 36, 104
4, 141836, Note_on_c, 1, 36, 89
4, 141848, Note_on_c, 1, 36, 0
4, 142080, Note_on_c, 1, 36, 0
4, 142080, Note_on_c, 1, 36, 108
4, 142356, Note_on_c, 1, 36, 0
4, 142424, Note_on_c, 1, 36, 106
4, 142488, Note_on_c, 1, 36, 0
4, 143032, Note_on_c, 1, 36, 96
4, 143092, Note_on_c, 1, 36, 0
4, 143276, Note_on_c, 1, 36, 115
4, 143500, Note_on_c, 1, 36, 0
4, 143512, Note_on_c, 1, 31, 95
4, 143608, Note_on_c, 1, 31, 0
4, 143632, Note_on_c, 1, 36, 77
4, 143712, Note_on_c, 1, 36, 0
4, 143748, Note_on_c, 1, 31, 99
4, 143864, Note_on_c, 1, 31, 0
4, 143996, Note_on_c, 1, 36, 107
4, 144068, Note_on_c, 1, 36, 0
4, 144232, Note_on_c, 1, 36, 95
4, 144344, Note_on_c, 1, 36, 0
4, 144364, Note_on_c, 1, 43, 97
4, 144428, Note_on_c, 1, 43, 0
4, 144608, Note_on_c, 1, 43, 103
4, 144696, Note_on_c, 1, 43, 0
4, 144712, Note_on_c, 1, 36, 107
4, 144852, Note_on_c, 1, 36, 0
4, 145320, Note_on_c, 1, 43, 98
4, 145392, Note_on_c, 1, 43, 0
4, 145436, Note_on_c, 1, 48, 94
4, 145556, Note_on_c, 1, 43, 96
4, 145584, Note_on_c, 1, 48, 0
4, 145672, Note_on_c, 1, 36, 120
4, 145676, Note_on_c, 1, 43, 0
4, 145840, Note_on_c, 1, 36, 0
4, 145920, Note_on_c, 1, 36, 103
4, 146720, Note_on_c, 1, 36, 0
4, 146888, Note_on_c, 1, 36, 108
4, 147212, Note_on_c, 1, 36, 0
4, 147232, Note_on_c, 1, 43, 87
4, 147580, Note_on_c, 1, 36, 102
4, 147608, Note_on_c, 1, 43, 0
4, 147836, Note_on_c, 1, 36, 90
4, 147856, Note_on_c, 1, 36, 0
4, 148804, Note_on_c, 1, 43, 116
4, 148828, Note_on_c, 1, 36, 0
4, 149280, Note_on_c, 1, 36, 97
4, 149292, Note_on_c, 1, 43, 0
4, 149760, Note_on_c, 1, 36, 0
4, 149764, Note_on_c, 1, 36, 90
4, 151432, Note_on_c, 1, 36, 0
4, 151560, Note_on_c, 1, 36, 99
4, 151664, Note_on_c, 1, 36, 0
4, 151688, Note_on_c, 1, 36, 93
4, 152652, Note_on_c, 1, 36, 97
4, 152680, Note_on_c, 1, 36, 0
4, 153124, Note_on_c, 1, 43, 111
4, 153132, Note_on_c, 1, 36, 0
4, 153312, Note_on_c, 1, 43, 0
4, 153360, Note_on_c, 1, 36, 90
4, 153548, Note_on_c, 1, 36, 0
4, 153624, Note_on_c, 1, 36, 108
4, 154556, Note_on_c, 1, 36, 0
4, 154564, Note_on_c, 1, 36, 96
4, 155136, Note_on_c, 1, 36, 0
4, 155280, Note_on_c, 1, 36, 90
4, 155492, Note_on_c, 1, 36, 0
4, 155544, Note_on_c, 1, 36, 108
4, 156476, Note_on_c, 1, 36, 0
4, 156484, Note_on_c, 1, 31, 96
4, 157056, Note_on_c, 1, 31, 0
4, 157200, Note_on_c, 1, 36, 90
4, 157412, Note_on_c, 1, 36, 0
4, 157440, Note_on_c, 1, 48, 99
4, 158400, Note_on_c, 1, 48, 0
4, 158400, Note_on_c, 1, 43, 103
4, 158888, Note_on_c, 1, 48, 99
4, 158896, Note_on_c, 1, 43, 0
4, 159072, Note_on_c, 1, 48, 0
4, 159120, Note_on_c, 1, 36, 102
4, 159328, Note_on_c, 1, 36, 0
4, 159368, Note_on_c, 1, 36, 93
4, 160332, Note_on_c, 1, 36, 97
4, 160360, Note_on_c, 1, 36, 0
4, 160804, Note_on_c, 1, 43, 111
4, 160812, Note_on_c, 1, 36, 0
4, 160992, Note_on_c, 1, 43, 0
4, 161040, Note_on_c, 1, 36, 90
4, 161228, Note_on_c, 1, 36, 0
4, 161304, Note_on_c, 1, 36, 107
4, 161488, Note_on_c, 1, 36, 0
4, 161652, Note_on_c, 1, 36, 107
4, 162504, Note_on_c, 1, 36, 0
4, 162608, Note_on_c, 1, 36, 96
4, 162680, Note_on_c, 1, 36, 0
4, 162716, Note_on_c, 1, 36, 105
4, 162956, Note_on_c, 1, 36, 90
4, 162968, Note_on_c, 1, 36, 0
4, 163200, Note_on_c, 1, 36, 0
4, 163204, Note_on_c, 1, 36, 90
4, 164052, Note_on_c, 1, 36, 0
4, 164164, Note_on_c, 1, 36, 99
4, 164352, Note_on_c, 1, 36, 0
4, 164400, Note_on_c, 1, 36, 90
4, 164552, Note_on_c, 1, 36, 0
4, 164760, Note_on_c, 1, 36, 90
4, 165080, Note_on_c, 1, 36, 0
4, 165124, Note_on_c, 1, 36, 90
4, 165972, Note_on_c, 1, 36, 0
4, 166084, Note_on_c, 1, 36, 99
4, 166272, Note_on_c, 1, 36, 0
4, 166320, Note_on_c, 1, 36, 90
4, 166472, Note_on_c, 1, 36, 0
4, 166680, Note_on_c, 1, 36, 90
4, 167000, Note_on_c, 1, 36, 0
4, 167064, Note_on_c, 1, 36, 108
4, 167996, Note_on_c, 1, 36, 0
4, 168004, Note_on_c, 1, 31, 96
4, 168576, Note_on_c, 1, 31, 0
4, 168720, Note_on_c, 1, 36, 90
4, 168932, Note_on_c, 1, 36, 0
4, 168984, Note_on_c, 1, 36, 107
4, 169168, Note_on_c, 1, 36, 0
4, 169332, Note_on_c, 1, 36, 107
4, 170184, Note_on_c, 1, 36, 0
4, 170288, Note_on_c, 1, 36, 96
4, 170360, Note_on_c, 1, 36, 0
4, 170396, Note_on_c, 1, 36, 105
4, 170636, Note_on_c, 1, 36, 90
4, 170648, Note_on_c, 1, 36, 0
4, 170880, Note_on_c, 1, 36, 0
4, 170888, Note_on_c, 1, 36, 93
4, 171852, Note_on_c, 1, 36, 97
4, 171880, Note_on_c, 1, 36, 0
4, 172324, Note_on_c, 1, 43, 111
4, 172332, Note_on_c, 1, 36, 0
4, 172512, Note_on_c, 1, 43, 0
4, 172560, Note_on_c, 1, 36, 90
4, 172748, Note_on_c, 1, 36, 0
4, 172820, Note_on_c, 1, 36, 98
4, 173756, Note_on_c, 1, 36, 97
4, 173784, Note_on_c, 1, 36, 0
4, 174124, Note_on_c, 1, 31, 100
4, 174136, Note_on_c, 1, 36, 0
4, 174480, Note_on_c, 1, 36, 98
4, 174492, Note_on_c, 1, 31, 0
4, 174708, Note_on_c, 1, 36, 0
4, 174720, Note_on_c, 1, 36, 106
4, 175448, Note_on_c, 1, 36, 0
4, 175680, Note_on_c, 1, 36, 103
4, 175760, Note_on_c, 1, 36, 0
4, 175920, Note_on_c, 1, 36, 92
4, 176404, Note_on_c, 1, 36, 108
4, 176408, Note_on_c, 1, 36, 0
4, 176640, Note_on_c, 1, 36, 0
4, 176648, Note_on_c, 1, 24, 104
4, 177596, Note_on_c, 1, 36, 105
4, 177600, Note_on_c, 1, 24, 0
4, 178176, Note_on_c, 1, 36, 0
4, 178320, Note_on_c, 1, 36, 97
4, 178544, Note_on_c, 1, 36, 0
4, 178584, Note_on_c, 1, 36, 108
4, 179516, Note_on_c, 1, 36, 0
4, 179524, Note_on_c, 1, 31, 96
4, 180096, Note_on_c, 1, 31, 0
4, 180240, Note_on_c, 1, 36, 90
4, 180452, Note_on_c, 1, 36, 0
4, 180484, Note_on_c, 1, 36, 90
4, 182152, Note_on_c, 1, 36, 0
4, 182280, Note_on_c, 1, 36, 99
4, 182384, Note_on_c, 1, 36, 0
4, 182408, Note_on_c, 1, 36, 93
4, 183372, Note_on_c, 1, 36, 97
4, 183400, Note_on_c, 1, 36, 0
4, 183844, Note_on_c, 1, 43, 111
4, 183852, Note_on_c, 1, 36, 0
4, 184032, Note_on_c, 1, 43, 0
4, 184080, Note_on_c, 1, 36, 90
4, 184268, Note_on_c, 1, 36, 0
4, 184320, Note_on_c, 1, 36, 100
4, 185080, Note_on_c, 1, 36, 0
4, 185160, Note_on_c, 1, 24, 86
4, 185216, Note_on_c, 1, 24, 0
4, 185272, Note_on_c, 1, 36, 98
4, 185348, Note_on_c, 1, 36, 0
4, 185524, Note_on_c, 1, 36, 102
4, 185928, Note_on_c, 1, 36, 0
4, 186000, Note_on_c, 1, 36, 104
4, 186240, Note_on_c, 1, 36, 0
4, 186244, Note_on_c, 1, 36, 90
4, 187912, Note_on_c, 1, 36, 0
4, 188040, Note_on_c, 1, 36, 99
4, 188144, Note_on_c, 1, 36, 0
4, 188168, Note_on_c, 1, 36, 93
4, 189132, Note_on_c, 1, 36, 97
4, 189160, Note_on_c, 1, 36, 0
4, 189604, Note_on_c, 1, 43, 111
4, 189612, Note_on_c, 1, 36, 0
4, 189792, Note_on_c, 1, 43, 0
4, 189840, Note_on_c, 1, 36, 90
4, 190028, Note_on_c, 1, 36, 0
4, 190080, Note_on_c, 1, 36, 106
4, 190808, Note_on_c, 1, 36, 0
4, 191040, Note_on_c, 1, 36, 103
4, 191120, Note_on_c, 1, 36, 0
4, 191280, Note_on_c, 1, 36, 92
4, 191764, Note_on_c, 1, 36, 108
4, 191768, Note_on_c, 1, 36, 0
4, 192000, Note_on_c, 1, 36, 0
4, 192008, Note_on_c, 1, 24, 104
4, 192956, Note_on_c, 1, 36, 105
4, 192960, Note_on_c, 1, 24, 0
4, 193536, Note_on_c, 1, 36, 0
4, 193680, Note_on_c, 1, 36, 97
4, 193904, Note_on_c, 1, 36, 0
4, 193920, Note_on_c, 1, 36, 106
4, 194648, Note_on_c, 1, 36, 0
4, 194880, Note_on_c, 1, 36, 103
4, 194960, Note_on_c, 1, 36, 0
4, 195120, Note_on_c, 1, 36, 92
4, 195604, Note_on_c, 1, 36, 108
4, 195608, Note_on_c, 1, 36, 0
4, 195840, Note_on_c, 1, 36, 0
4, 195848, Note_on_c, 1, 36, 93
4, 196812, Note_on_c, 1, 36, 97
4, 196840, Note_on_c, 1, 36, 0
4, 197284, Note_on_c, 1, 43, 111
4, 197292, Note_on_c, 1, 36, 0
4, 197472, Note_on_c, 1, 43, 0
4, 197520, Note_on_c, 1, 36, 90
4, 197708, Note_on_c, 1, 36, 0
4, 197784, Note_on_c, 1, 36, 108
4, 198716, Note_on_c, 1, 36, 0
4, 198724, Note_on_c, 1, 31, 96
4, 199296, Note_on_c, 1, 31, 0
4, 199440, Note_on_c, 1, 36, 90
4, 199652, Note_on_c, 1, 36, 0
4, 199688, Note_on_c, 1, 24, 104
4, 200636, Note_on_c, 1, 36, 105
4, 200640, Note_on_c, 1, 24, 0
4, 201216, Note_on_c, 1, 36, 0
4, 201360, Note_on_c, 1, 36, 97
4, 201584, Note_on_c, 1, 36, 0
4, 201620, Note_on_c, 1, 36, 98
4, 202556, Note_on_c, 1, 36, 97
4, 202584, Note_on_c, 1, 36, 0
4, 202924, Note_on_c, 1, 31, 100
4, 202936, Note_on_c, 1, 36, 0
4, 203280, Note_on_c, 1, 36, 98
4, 203292, Note_on_c, 1, 31, 0
4, 203508, Note_on_c, 1, 36, 0
4, 203524, Note_on_c, 1, 36, 90
4, 204372, Note_on_c, 1, 36, 0
4, 204484, Note_on_c, 1, 36, 99
4, 204672, Note_on_c, 1, 36, 0
4, 204720, Note_on_c, 1, 36, 90
4, 204872, Note_on_c, 1, 36, 0
4, 205080, Note_on_c, 1, 36, 90
4, 205400, Note_on_c, 1, 36, 0
4, 205448, Note_on_c, 1, 36, 93
4, 206412, Note_on_c, 1, 36, 97
4, 206440, Note_on_c, 1, 36, 0
4, 206884, Note_on_c, 1, 43, 111
4, 206892, Note_on_c, 1, 36, 0
4, 207072, Note_on_c, 1, 43, 0
4, 207120, Note_on_c, 1, 36, 90
4, 207308, Note_on_c, 1, 36, 0
4, 207384, Note_on_c, 1, 36, 107
4, 207568, Note_on_c, 1, 36, 0
4, 207732, Note_on_c, 1, 36, 107
4, 208584, Note_on_c, 1, 36, 0
4, 208688, Note_on_c, 1, 36, 96
4, 208760, Note_on_c, 1, 36, 0
4, 208796, Note_on_c, 1, 36, 105
4, 209036, Note_on_c, 1, 36, 90
4, 209048, Note_on_c, 1, 36, 0
4, 209280, Note_on_c, 1, 36, 0
4, 209284, Note_on_c, 1, 36, 90
4, 210952, Note_on_c, 1, 36, 0
4, 211080, Note_on_c, 1, 36, 99
4, 211184, Note_on_c, 1, 36, 0
4, 211224, Note_on_c, 1, 36, 108
4, 212136, Note_on_c, 1, 31, 96
4, 212156, Note_on_c, 1, 36, 0
4, 212852, Note_on_c, 1, 31, 0
4, 213144, Note_on_c, 1, 36, 106
4, 213328, Note_on_c, 1, 36, 0
4, 213492, Note_on_c, 1, 36, 106
4, 214344, Note_on_c, 1, 36, 0
4, 214448, Note_on_c, 1, 31, 95
4, 214520, Note_on_c, 1, 31, 0
4, 214556, Note_on_c, 1, 36, 104
4, 214796, Note_on_c, 1, 36, 89
4, 214808, Note_on_c, 1, 36, 0
4, 215040, Note_on_c, 1, 36, 0
4, 215044, Note_on_c, 1, 36, 90
4, 216712, Note_on_c, 1, 36, 0
4, 216840, Note_on_c, 1, 36, 99
4, 216944, Note_on_c, 1, 36, 0
4, 216960, Note_on_c, 1, 36, 100
4, 217904, Note_on_c, 1, 31, 108
4, 217932, Note_on_c, 1, 36, 0
4, 218672, Note_on_c, 1, 31, 0
4, 218760, Note_on_c, 1, 31, 103
4, 218816, Note_on_c, 1, 31, 0
4, 218876, Note_on_c, 1, 36, 102
4, 219184, Note_on_c, 1, 36, 0
4, 219244, Note_on_c, 1, 36, 94
4, 219324, Note_on_c, 1, 36, 0
4, 219604, Note_on_c, 1, 36, 96
4, 220636, Note_on_c, 1, 36, 0
4, 220636, End_track
5, 0, Start_track
5, 0, Title_t, "power drums"
5, 0, Program_c, 9, 8
5, 0, Control_c, 9, 7, 110
5, 0, Control_c, 9, 10, 64
5, 0, Control_c, 9, 91, 40
5, 0, Control_c, 9, 93, 0
5, 0, Control_c, 9, 123, 0
5, 3840, Note_on_c, 9, 36, 80
5, 3840, Note_on_c, 9, 51, 106
5, 3900, Note_on_c, 9, 44, 48
5, 3940, Note_on_c, 9, 51, 0
5, 3940, Note_on_c, 9, 36, 0
5, 4000, Note_on_c, 9, 44, 0
5, 4080, Note_on_c, 9, 51, 60
5, 4180, Note_on_c, 9, 51, 0
5, 4320, Note_on_c, 9, 38, 80
5, 4320, Note_on_c, 9, 44, 60
5, 4320, Note_on_c, 9, 51, 126
5, 4420, Note_on_c, 9, 51, 0
5, 4420, Note_on_c, 9, 44, 0
5, 4420, Note_on_c, 9, 38, 0
5, 4560, Note_on_c, 9, 51, 60
5, 4660, Note_on_c, 9, 51, 0
5, 4800, Note_on_c, 9, 44, 60
5, 4800, Note_on_c, 9, 51, 61
5, 4900, Note_on_c, 9, 51, 0
5, 4900, Note_on_c, 9, 44, 0
5, 5280, Note_on_c, 9, 38, 127
5, 5280, Note_on_c, 9, 44, 60
5, 5280, Note_on_c, 9, 51, 127
5, 5380, Note_on_c, 9, 51, 0
5, 5380, Note_on_c, 9, 44, 0
5, 5380, Note_on_c, 9, 38, 0
5, 5640, Note_on_c, 9, 51, 105
5, 5740, Note_on_c, 9, 51, 0
5, 5760, Note_on_c, 9, 36, 71
5, 5760, Note_on_c, 9, 44, 21
5, 5760, Note_on_c, 9, 51, 127
5, 5860, Note_on_c, 9, 51, 0
5, 5860, Note_on_c, 9, 44, 0
5, 5860, Note_on_c, 9, 36, 0
5, 6240, Note_on_c, 9, 38, 60
5, 6240, Note_on_c, 9, 51, 85
5, 6340, Note_on_c, 9, 51, 0
5, 6340, Note_on_c, 9, 38, 0
5, 6480, Note_on_c, 9, 44, 80
5, 6580, Note_on_c, 9, 44, 0
5, 6600, Note_on_c, 9, 51, 80
5, 6700, Note_on_c, 9, 51, 0
5, 6720, Note_on_c, 9, 51, 88
5, 6820, Note_on_c, 9, 51, 0
5, 7200, Note_on_c, 9, 38, 127
5, 7200, Note_on_c, 9, 51, 121
5, 7300, Note_on_c, 9, 51, 0
5, 7300, Note_on_c, 9, 38, 0
5, 7440, Note_on_c, 9, 44, 70
5, 7540, Note_on_c, 9, 44, 0
5, 7560, Note_on_c, 9, 36, 61
5, 7560, Note_on_c, 9, 51, 60
5, 7660, Note_on_c, 9, 51, 0
5, 7660, Note_on_c, 9, 36, 0
5, 7680, Note_on_c, 9, 36, 71
5, 7680, Note_on_c, 9, 44, 21
5, 7680, Note_on_c, 9, 51, 127
5, 7780, Note_on_c, 9, 51, 0
5, 7780, Note_on_c, 9, 44, 0
5, 7780, Note_on_c, 9, 36, 0
5, 8160, Note_on_c, 9, 38, 60
5, 8160, Note_on_c, 9, 51, 85
5, 8260, Note_on_c, 9, 51, 0
5, 8260, Note_on_c, 9, 38, 0
5, 8400, Note_on_c, 9, 44, 80
5, 8500, Note_on_c, 9, 44, 0
5, 8520, Note_on_c, 9, 51, 80
5, 8620, Note_on_c, 9, 51, 0
5, 8640, Note_on_c, 9, 51, 88
5, 8740, Note_on_c, 9, 51, 0
5, 8880, Note_on_c, 9, 44, 40
5, 8980, Note_on_c, 9, 44, 0
5, 9120, Note_on_c, 9, 38, 127
5, 9120, Note_on_c, 9, 51, 121
5, 9220, Note_on_c, 9, 51, 0
5, 9220, Note_on_c, 9, 38, 0
5, 9480, Note_on_c, 9, 36, 61
5, 9480, Note_on_c, 9, 51, 60
5, 9580, Note_on_c, 9, 51, 0
5, 9580, Note_on_c, 9, 36, 0
5, 9600, Note_on_c, 9, 36, 71
5, 9600, Note_on_c, 9, 44, 21
5, 9600, Note_on_c, 9, 51, 127
5, 9700, Note_on_c, 9, 51, 0
5, 9700, Note_on_c, 9, 44, 0
5, 9700, Note_on_c, 9, 36, 0
5, 10080, Note_on_c, 9, 38, 60
5, 10080, Note_on_c, 9, 51, 85
5, 10180, Note_on_c, 9, 51, 0
5, 10180, Note_on_c, 9, 38, 0
5, 10320, Note_on_c, 9, 44, 80
5, 10420, Note_on_c, 9, 44, 0
5, 10440, Note_on_c, 9, 51, 80
5, 10540, Note_on_c, 9, 51, 0
5, 10560, Note_on_c, 9, 51, 88
5, 10660, Note_on_c, 9, 51, 0
5, 10800, Note_on_c, 9, 44, 40
5, 10900, Note_on_c, 9, 44, 0
5, 11040, Note_on_c, 9, 38, 127
5, 11040, Note_on_c, 9, 51, 121
5, 11140, Note_on_c, 9, 51, 0
5, 11140, Note_on_c, 9, 38, 0
5, 11400, Note_on_c, 9, 36, 61
5, 11400, Note_on_c, 9, 51, 60
5, 11500, Note_on_c, 9, 51, 0
5, 11500, Note_on_c, 9, 36, 0
5, 11520, Note_on_c, 9, 36, 74
5, 11520, Note_on_c, 9, 51, 127
5, 11620, Note_on_c, 9, 51, 0
5, 11620, Note_on_c, 9, 36, 0
5, 11760, Note_on_c, 9, 51, 60
5, 11860, Note_on_c, 9, 51, 0
5, 12000, Note_on_c, 9, 38, 90
5, 12000, Note_on_c, 9, 51, 103
5, 12100, Note_on_c, 9, 51, 0
5, 12100, Note_on_c, 9, 38, 0
5, 12360, Note_on_c, 9, 51, 60
5, 12460, Note_on_c, 9, 51, 0
5, 12480, Note_on_c, 9, 51, 113
5, 12580, Note_on_c, 9, 51, 0
5, 12720, Note_on_c, 9, 36, 3
5, 12820, Note_on_c, 9, 36, 0
5, 12960, Note_on_c, 9, 38, 119
5, 12960, Note_on_c, 9, 51, 114
5, 13060, Note_on_c, 9, 51, 0
5, 13060, Note_on_c, 9, 38, 0
5, 13320, Note_on_c, 9, 51, 77
5, 13420, Note_on_c, 9, 51, 0
5, 13440, Note_on_c, 9, 36, 71
5, 13440, Note_on_c, 9, 44, 21
5, 13440, Note_on_c, 9, 51, 127
5, 13540, Note_on_c, 9, 51, 0
5, 13540, Note_on_c, 9, 44, 0
5, 13540, Note_on_c, 9, 36, 0
5, 13920, Note_on_c, 9, 38, 60
5, 13920, Note_on_c, 9, 51, 85
5, 14020, Note_on_c, 9, 51, 0
5, 14020, Note_on_c, 9, 38, 0
5, 14160, Note_on_c, 9, 44, 80
5, 14260, Note_on_c, 9, 44, 0
5, 14280, Note_on_c, 9, 51, 80
5, 14380, Note_on_c, 9, 51, 0
5, 14400, Note_on_c, 9, 51, 88
5, 14500, Note_on_c, 9, 51, 0
5, 14880, Note_on_c, 9, 38, 127
5, 14880, Note_on_c, 9, 51, 121
5, 14980, Note_on_c, 9, 51, 0
5, 14980, Note_on_c, 9, 38, 0
5, 15120, Note_on_c, 9, 44, 70
5, 15220, Note_on_c, 9, 44, 0
5, 15240, Note_on_c, 9, 36, 61
5, 15240, Note_on_c, 9, 51, 60
5, 15340, Note_on_c, 9, 51, 0
5, 15340, Note_on_c, 9, 36, 0
5, 15360, Note_on_c, 9, 36, 60
5, 15360, Note_on_c, 9, 51, 127
5, 15460, Note_on_c, 9, 51, 0
5, 15460, Note_on_c, 9, 36, 0
5, 15840, Note_on_c, 9, 38, 90
5, 15840, Note_on_c, 9, 51, 105
5, 15940, Note_on_c, 9, 51, 0
5, 15940, Note_on_c, 9, 38, 0
5, 16080, Note_on_c, 9, 51, 70
5, 16180, Note_on_c, 9, 51, 0
5, 16320, Note_on_c, 9, 51, 85
5, 16420, Note_on_c, 9, 51, 0
5, 16560, Note_on_c, 9, 44, 40
5, 16660, Note_on_c, 9, 44, 0
5, 16800, Note_on_c, 9, 38, 127
5, 16800, Note_on_c, 9, 51, 116
5, 16900, Note_on_c, 9, 51, 0
5, 16900, Note_on_c, 9, 38, 0
5, 17040, Note_on_c, 9, 51, 60
5, 17140, Note_on_c, 9, 51, 0
5, 17160, Note_on_c, 9, 51, 40
5, 17260, Note_on_c, 9, 51, 0
5, 17280, Note_on_c, 9, 36, 88
5, 17280, Note_on_c, 9, 49, 54
5, 17280, Note_on_c, 9, 51, 77
5, 17380, Note_on_c, 9, 51, 0
5, 17380, Note_on_c, 9, 49, 0
5, 17380, Note_on_c, 9, 36, 0
5, 17640, Note_on_c, 9, 44, 16
5, 17740, Note_on_c, 9, 44, 0
5, 17760, Note_on_c, 9, 38, 56
5, 17760, Note_on_c, 9, 51, 127
5, 17860, Note_on_c, 9, 51, 0
5, 17860, Note_on_c, 9, 38, 0
5, 18240, Note_on_c, 9, 51, 83
5, 18340, Note_on_c, 9, 51, 0
5, 18480, Note_on_c, 9, 46, 101
5, 18580, Note_on_c, 9, 46, 0
5, 18720, Note_on_c, 9, 38, 127
5, 18820, Note_on_c, 9, 38, 0
5, 18840, Note_on_c, 9, 48, 51
5, 18940, Note_on_c, 9, 48, 0
5, 18960, Note_on_c, 9, 45, 127
5, 19060, Note_on_c, 9, 45, 0
5, 19200, Note_on_c, 9, 36, 102
5, 19200, Note_on_c, 9, 51, 106
5, 19300, Note_on_c, 9, 51, 0
5, 19300, Note_on_c, 9, 36, 0
5, 19440, Note_on_c, 9, 51, 82
5, 19540, Note_on_c, 9, 51, 0
5, 19680, Note_on_c, 9, 38, 127
5, 19680, Note_on_c, 9, 51, 113
5, 19780, Note_on_c, 9, 51, 0
5, 19780, Note_on_c, 9, 38, 0
5, 19920, Note_on_c, 9, 51, 95
5, 20020, Note_on_c, 9, 51, 0
5, 20160, Note_on_c, 9, 51, 116
5, 20260, Note_on_c, 9, 51, 0
5, 20400, Note_on_c, 9, 36, 89
5, 20400, Note_on_c, 9, 51, 126
5, 20500, Note_on_c, 9, 51, 0
5, 20500, Note_on_c, 9, 36, 0
5, 20640, Note_on_c, 9, 38, 127
5, 20640, Note_on_c, 9, 51, 126
5, 20740, Note_on_c, 9, 51, 0
5, 20740, Note_on_c, 9, 38, 0
5, 20880, Note_on_c, 9, 51, 118
5, 20980, Note_on_c, 9, 51, 0
5, 21000, Note_on_c, 9, 36, 65
5, 21100, Note_on_c, 9, 36, 0
5, 21120, Note_on_c, 9, 36, 102
5, 21120, Note_on_c, 9, 51, 106
5, 21220, Note_on_c, 9, 51, 0
5, 21220, Note_on_c, 9, 36, 0
5, 21360, Note_on_c, 9, 51, 108
5, 21460, Note_on_c, 9, 51, 0
5, 21600, Note_on_c, 9, 38, 109
5, 21600, Note_on_c, 9, 51, 127
5, 21700, Note_on_c, 9, 51, 0
5, 21700, Note_on_c, 9, 38, 0
5, 21840, Note_on_c, 9, 51, 127
5, 21940, Note_on_c, 9, 51, 0
5, 22080, Note_on_c, 9, 51, 127
5, 22180, Note_on_c, 9, 51, 0
5, 22200, Note_on_c, 9, 36, 58
5, 22200, Note_on_c, 9, 51, 80
5, 22300, Note_on_c, 9, 51, 0
5, 22300, Note_on_c, 9, 36, 0
5, 22320, Note_on_c, 9, 36, 96
5, 22320, Note_on_c, 9, 51, 127
5, 22420, Note_on_c, 9, 51, 0
5, 22420, Note_on_c, 9, 36, 0
5, 22560, Note_on_c, 9, 38, 113
5, 22560, Note_on_c, 9, 51, 98
5, 22660, Note_on_c, 9, 51, 0
5, 22660, Note_on_c, 9, 38, 0
5, 22800, Note_on_c, 9, 51, 127
5, 22900, Note_on_c, 9, 51, 0
5, 22920, Note_on_c, 9, 51, 80
5, 23020, Note_on_c, 9, 51, 0
5, 23040, Note_on_c, 9, 36, 92
5, 23040, Note_on_c, 9, 49, 66
5, 23040, Note_on_c, 9, 51, 98
5, 23140, Note_on_c, 9, 51, 0
5, 23140, Note_on_c, 9, 49, 0
5, 23140, Note_on_c, 9, 36, 0
5, 23280, Note_on_c, 9, 51, 98
5, 23380, Note_on_c, 9, 51, 0
5, 23520, Note_on_c, 9, 38, 127
5, 23520, Note_on_c, 9, 51, 124
5, 23620, Note_on_c, 9, 51, 0
5, 23620, Note_on_c, 9, 38, 0
5, 23760, Note_on_c, 9, 51, 114
5, 23860, Note_on_c, 9, 51, 0
5, 24000, Note_on_c, 9, 51, 103
5, 24100, Note_on_c, 9, 51, 0
5, 24240, Note_on_c, 9, 51, 127
5, 24340, Note_on_c, 9, 51, 0
5, 24360, Note_on_c, 9, 36, 86
5, 24460, Note_on_c, 9, 36, 0
5, 24480, Note_on_c, 9, 38, 127
5, 24480, Note_on_c, 9, 51, 127
5, 24580, Note_on_c, 9, 51, 0
5, 24580, Note_on_c, 9, 38, 0
5, 24720, Note_on_c, 9, 51, 90
5, 24820, Note_on_c, 9, 51, 0
5, 24840, Note_on_c, 9, 36, 70
5, 24840, Note_on_c, 9, 51, 70
5, 24940, Note_on_c, 9, 51, 0
5, 24940, Note_on_c, 9, 36, 0
5, 24960, Note_on_c, 9, 36, 96
5, 24960, Note_on_c, 9, 51, 127
5, 25060, Note_on_c, 9, 51, 0
5, 25060, Note_on_c, 9, 36, 0
5, 25200, Note_on_c, 9, 51, 113
5, 25300, Note_on_c, 9, 51, 0
5, 25440, Note_on_c, 9, 38, 127
5, 25440, Note_on_c, 9, 51, 127
5, 25540, Note_on_c, 9, 51, 0
5, 25540, Note_on_c, 9, 38, 0
5, 25680, Note_on_c, 9, 51, 79
5, 25780, Note_on_c, 9, 51, 0
5, 25800, Note_on_c, 9, 51, 78
5, 25900, Note_on_c, 9, 51, 0
5, 25920, Note_on_c, 9, 51, 88
5, 26020, Note_on_c, 9, 51, 0
5, 26040, Note_on_c, 9, 38, 127
5, 26040, Note_on_c, 9, 51, 88
5, 26140, Note_on_c, 9, 51, 0
5, 26140, Note_on_c, 9, 38, 0
5, 26160, Note_on_c, 9, 36, 82
5, 26160, Note_on_c, 9, 51, 90
5, 26260, Note_on_c, 9, 51, 0
5, 26260, Note_on_c, 9, 36, 0
5, 26400, Note_on_c, 9, 50, 124
5, 26400, Note_on_c, 9, 51, 116
5, 26500, Note_on_c, 9, 51, 0
5, 26500, Note_on_c, 9, 50, 0
5, 26520, Note_on_c, 9, 51, 70
5, 26620, Note_on_c, 9, 51, 0
5, 26640, Note_on_c, 9, 51, 127
5, 26740, Note_on_c, 9, 51, 0
5, 26760, Note_on_c, 9, 48, 127
5, 26860, Note_on_c, 9, 48, 0
5, 26880, Note_on_c, 9, 36, 77
5, 26880, Note_on_c, 9, 49, 61
5, 26880, Note_on_c, 9, 51, 127
5, 26980, Note_on_c, 9, 51, 0
5, 26980, Note_on_c, 9, 49, 0
5, 26980, Note_on_c, 9, 36, 0
5, 27120, Note_on_c, 9, 51, 121
5, 27220, Note_on_c, 9, 51, 0
5, 27360, Note_on_c, 9, 38, 119
5, 27360, Note_on_c, 9, 51, 127
5, 27460, Note_on_c, 9, 51, 0
5, 27460, Note_on_c, 9, 38, 0
5, 27600, Note_on_c, 9, 51, 127
5, 27700, Note_on_c, 9, 51, 0
5, 27840, Note_on_c, 9, 51, 127
5, 27940, Note_on_c, 9, 51, 0
5, 27960, Note_on_c, 9, 36, 65
5, 28060, Note_on_c, 9, 36, 0
5, 28080, Note_on_c, 9, 36, 80
5, 28080, Note_on_c, 9, 51, 108
5, 28180, Note_on_c, 9, 51, 0
5, 28180, Note_on_c, 9, 36, 0
5, 28320, Note_on_c, 9, 38, 127
5, 28320, Note_on_c, 9, 51, 92
5, 28420, Note_on_c, 9, 51, 0
5, 28420, Note_on_c, 9, 38, 0
5, 28560, Note_on_c, 9, 51, 113
5, 28660, Note_on_c, 9, 51, 0
5, 28680, Note_on_c, 9, 36, 63
5, 28780, Note_on_c, 9, 36, 0
5, 28800, Note_on_c, 9, 36, 102
5, 28800, Note_on_c, 9, 51, 106
5, 28900, Note_on_c, 9, 51, 0
5, 28900, Note_on_c, 9, 36, 0
5, 29040, Note_on_c, 9, 51, 82
5, 29140, Note_on_c, 9, 51, 0
5, 29280, Note_on_c, 9, 38, 127
5, 29280, Note_on_c, 9, 51, 113
5, 29380, Note_on_c, 9, 51, 0
5, 29380, Note_on_c, 9, 38, 0
5, 29520, Note_on_c, 9, 51, 95
5, 29620, Note_on_c, 9, 51, 0
5, 29760, Note_on_c, 9, 51, 116
5, 29860, Note_on_c, 9, 51, 0
5, 30000, Note_on_c, 9, 36, 89
5, 30000, Note_on_c, 9, 51, 126
5, 30100, Note_on_c, 9, 51, 0
5, 30100, Note_on_c, 9, 36, 0
5, 30240, Note_on_c, 9, 38, 127
5, 30240, Note_on_c, 9, 51, 126
5, 30340, Note_on_c, 9, 51, 0
5, 30340, Note_on_c, 9, 38, 0
5, 30480, Note_on_c, 9, 51, 118
5, 30580, Note_on_c, 9, 51, 0
5, 30600, Note_on_c, 9, 36, 65
5, 30700, Note_on_c, 9, 36, 0
5, 30720, Note_on_c, 9, 36, 102
5, 30720, Note_on_c, 9, 51, 106
5, 30820, Note_on_c, 9, 51, 0
5, 30820, Note_on_c, 9, 36, 0
5, 30960, Note_on_c, 9, 51, 108
5, 31060, Note_on_c, 9, 51, 0
5, 31200, Note_on_c, 9, 38, 109
5, 31200, Note_on_c, 9, 51, 127
5, 31300, Note_on_c, 9, 51, 0
5, 31300, Note_on_c, 9, 38, 0
5, 31440, Note_on_c, 9, 51, 127
5, 31540, Note_on_c, 9, 51, 0
5, 31680, Note_on_c, 9, 51, 127
5, 31780, Note_on_c, 9, 51, 0
5, 31800, Note_on_c, 9, 36, 58
5, 31800, Note_on_c, 9, 51, 80
5, 31900, Note_on_c, 9, 51, 0
5, 31900, Note_on_c, 9, 36, 0
5, 31920, Note_on_c, 9, 36, 96
5, 31920, Note_on_c, 9, 51, 127
5, 32020, Note_on_c, 9, 51, 0
5, 32020, Note_on_c, 9, 36, 0
5, 32160, Note_on_c, 9, 38, 113
5, 32160, Note_on_c, 9, 51, 98
5, 32260, Note_on_c, 9, 51, 0
5, 32260, Note_on_c, 9, 38, 0
5, 32400, Note_on_c, 9, 51, 127
5, 32500, Note_on_c, 9, 51, 0
5, 32520, Note_on_c, 9, 51, 80
5, 32620, Note_on_c, 9, 51, 0
5, 32640, Note_on_c, 9, 36, 102
5, 32640, Note_on_c, 9, 51, 106
5, 32740, Note_on_c, 9, 51, 0
5, 32740, Note_on_c, 9, 36, 0
5, 32880, Note_on_c, 9, 51, 82
5, 32980, Note_on_c, 9, 51, 0
5, 33120, Note_on_c, 9, 38, 127
5, 33120, Note_on_c, 9, 51, 113
5, 33220, Note_on_c, 9, 51, 0
5, 33220, Note_on_c, 9, 38, 0
5, 33360, Note_on_c, 9, 51, 95
5, 33460, Note_on_c, 9, 51, 0
5, 33600, Note_on_c, 9, 51, 116
5, 33700, Note_on_c, 9, 51, 0
5, 33840, Note_on_c, 9, 36, 89
5, 33840, Note_on_c, 9, 51, 126
5, 33940, Note_on_c, 9, 51, 0
5, 33940, Note_on_c, 9, 36, 0
5, 34080, Note_on_c, 9, 38, 127
5, 34080, Note_on_c, 9, 51, 126
5, 34180, Note_on_c, 9, 51, 0
5, 34180, Note_on_c, 9, 38, 0
5, 34320, Note_on_c, 9, 51, 118
5, 34420, Note_on_c, 9, 51, 0
5, 34440, Note_on_c, 9, 36, 65
5, 34540, Note_on_c, 9, 36, 0
5, 34560, Note_on_c, 9, 36, 102
5, 34560, Note_on_c, 9, 51, 106
5, 34660, Note_on_c, 9, 51, 0
5, 34660, Note_on_c, 9, 36, 0
5, 34800, Note_on_c, 9, 51, 108
5, 34900, Note_on_c, 9, 51, 0
5, 35040, Note_on_c, 9, 38, 109
5, 35040, Note_on_c, 9, 51, 127
5, 35140, Note_on_c, 9, 51, 0
5, 35140, Note_on_c, 9, 38, 0
5, 35280, Note_on_c, 9, 51, 127
5, 35380, Note_on_c, 9, 51, 0
5, 35520, Note_on_c, 9, 51, 127
5, 35620, Note_on_c, 9, 51, 0
5, 35640, Note_on_c, 9, 36, 58
5, 35640, Note_on_c, 9, 51, 80
5, 35740, Note_on_c, 9, 51, 0
5, 35740, Note_on_c, 9, 36, 0
5, 35760, Note_on_c, 9, 36, 96
5, 35760, Note_on_c, 9, 51, 127
5, 35860, Note_on_c, 9, 51, 0
5, 35860, Note_on_c, 9, 36, 0
5, 36000, Note_on_c, 9, 38, 113
5, 36000, Note_on_c, 9, 51, 98
5, 36100, Note_on_c, 9, 51, 0
5, 36100, Note_on_c, 9, 38, 0
5, 36240, Note_on_c, 9, 51, 127
5, 36340, Note_on_c, 9, 51, 0
5, 36360, Note_on_c, 9, 51, 80
5, 36460, Note_on_c, 9, 51, 0
5, 36480, Note_on_c, 9, 36, 82
5, 36480, Note_on_c, 9, 51, 100
5, 36580, Note_on_c, 9, 51, 0
5, 36580, Note_on_c, 9, 36, 0
5, 36720, Note_on_c, 9, 51, 85
5, 36820, Note_on_c, 9, 51, 0
5, 36960, Note_on_c, 9, 38, 127
5, 36960, Note_on_c, 9, 51, 118
5, 37060, Note_on_c, 9, 51, 0
5, 37060, Note_on_c, 9, 38, 0
5, 37200, Note_on_c, 9, 51, 127
5, 37300, Note_on_c, 9, 51, 0
5, 37440, Note_on_c, 9, 51, 121
5, 37540, Note_on_c, 9, 51, 0
5, 37680, Note_on_c, 9, 36, 73
5, 37680, Note_on_c, 9, 51, 119
5, 37780, Note_on_c, 9, 51, 0
5, 37780, Note_on_c, 9, 36, 0
5, 37920, Note_on_c, 9, 38, 127
5, 37920, Note_on_c, 9, 51, 127
5, 38020, Note_on_c, 9, 51, 0
5, 38020, Note_on_c, 9, 38, 0
5, 38160, Note_on_c, 9, 51, 127
5, 38260, Note_on_c, 9, 51, 0
5, 38280, Note_on_c, 9, 36, 68
5, 38280, Note_on_c, 9, 51, 70
5, 38380, Note_on_c, 9, 51, 0
5, 38380, Note_on_c, 9, 36, 0
5, 38400, Note_on_c, 9, 36, 77
5, 38400, Note_on_c, 9, 38, 70
5, 38400, Note_on_c, 9, 49, 80
5, 38500, Note_on_c, 9, 49, 0
5, 38500, Note_on_c, 9, 38, 0
5, 38500, Note_on_c, 9, 36, 0
5, 38640, Note_on_c, 9, 51, 75
5, 38740, Note_on_c, 9, 51, 0
5, 38880, Note_on_c, 9, 38, 127
5, 38880, Note_on_c, 9, 44, 17
5, 38880, Note_on_c, 9, 51, 122
5, 38980, Note_on_c, 9, 51, 0
5, 38980, Note_on_c, 9, 44, 0
5, 38980, Note_on_c, 9, 38, 0
5, 39120, Note_on_c, 9, 51, 90
5, 39220, Note_on_c, 9, 51, 0
5, 39360, Note_on_c, 9, 51, 127
5, 39460, Note_on_c, 9, 51, 0
5, 39600, Note_on_c, 9, 36, 70
5, 39600, Note_on_c, 9, 51, 126
5, 39700, Note_on_c, 9, 51, 0
5, 39700, Note_on_c, 9, 36, 0
5, 39840, Note_on_c, 9, 38, 127
5, 39840, Note_on_c, 9, 51, 101
5, 39940, Note_on_c, 9, 51, 0
5, 39940, Note_on_c, 9, 38, 0
5, 40080, Note_on_c, 9, 51, 124
5, 40180, Note_on_c, 9, 51, 0
5, 40200, Note_on_c, 9, 36, 57
5, 40200, Note_on_c, 9, 51, 60
5, 40300, Note_on_c, 9, 51, 0
5, 40300, Note_on_c, 9, 36, 0
5, 40320, Note_on_c, 9, 36, 102
5, 40320, Note_on_c, 9, 51, 106
5, 40420, Note_on_c, 9, 51, 0
5, 40420, Note_on_c, 9, 36, 0
5, 40560, Note_on_c, 9, 51, 108
5, 40660, Note_on_c, 9, 51, 0
5, 40800, Note_on_c, 9, 38, 109
5, 40800, Note_on_c, 9, 51, 127
5, 40900, Note_on_c, 9, 51, 0
5, 40900, Note_on_c, 9, 38, 0
5, 41040, Note_on_c, 9, 51, 127
5, 41140, Note_on_c, 9, 51, 0
5, 41280, Note_on_c, 9, 51, 127
5, 41380, Note_on_c, 9, 51, 0
5, 41400, Note_on_c, 9, 36, 58
5, 41400, Note_on_c, 9, 51, 80
5, 41500, Note_on_c, 9, 51, 0
5, 41500, Note_on_c, 9, 36, 0
5, 41520, Note_on_c, 9, 36, 96
5, 41520, Note_on_c, 9, 51, 127
5, 41620, Note_on_c, 9, 51, 0
5, 41620, Note_on_c, 9, 36, 0
5, 41760, Note_on_c, 9, 38, 113
5, 41760, Note_on_c, 9, 51, 98
5, 41860, Note_on_c, 9, 51, 0
5, 41860, Note_on_c, 9, 38, 0
5, 42000, Note_on_c, 9, 51, 127
5, 42100, Note_on_c, 9, 51, 0
5, 42120, Note_on_c, 9, 51, 80
5, 42220, Note_on_c, 9, 51, 0
5, 42240, Note_on_c, 9, 36, 86
5, 42240, Note_on_c, 9, 51, 127
5, 42340, Note_on_c, 9, 51, 0
5, 42340, Note_on_c, 9, 36, 0
5, 42480, Note_on_c, 9, 51, 113
5, 42580, Note_on_c, 9, 51, 0
5, 42720, Note_on_c, 9, 38, 106
5, 42720, Note_on_c, 9, 51, 127
5, 42820, Note_on_c, 9, 51, 0
5, 42820, Note_on_c, 9, 38, 0
5, 42960, Note_on_c, 9, 51, 127
5, 43060, Note_on_c, 9, 51, 0
5, 43200, Note_on_c, 9, 51, 80
5, 43300, Note_on_c, 9, 51, 0
5, 43320, Note_on_c, 9, 36, 70
5, 43320, Note_on_c, 9, 51, 108
5, 43420, Note_on_c, 9, 51, 0
5, 43420, Note_on_c, 9, 36, 0
5, 43440, Note_on_c, 9, 36, 95
5, 43440, Note_on_c, 9, 51, 122
5, 43540, Note_on_c, 9, 51, 0
5, 43540, Note_on_c, 9, 36, 0
5, 43680, Note_on_c, 9, 38, 114
5, 43680, Note_on_c, 9, 51, 127
5, 43780, Note_on_c, 9, 51, 0
5, 43780, Note_on_c, 9, 38, 0
5, 43800, Note_on_c, 9, 36, 57
5, 43800, Note_on_c, 9, 51, 70
5, 43900, Note_on_c, 9, 51, 0
5, 43900, Note_on_c, 9, 36, 0
5, 43920, Note_on_c, 9, 36, 80
5, 43920, Note_on_c, 9, 51, 127
5, 44020, Note_on_c, 9, 51, 0
5, 44020, Note_on_c, 9, 36, 0
5, 44160, Note_on_c, 9, 36, 82
5, 44160, Note_on_c, 9, 51, 90
5, 44260, Note_on_c, 9, 51, 0
5, 44260, Note_on_c, 9, 36, 0
5, 44400, Note_on_c, 9, 51, 80
5, 44500, Note_on_c, 9, 51, 0
5, 44640, Note_on_c, 9, 38, 119
5, 44640, Note_on_c, 9, 51, 92
5, 44740, Note_on_c, 9, 51, 0
5, 44740, Note_on_c, 9, 38, 0
5, 44880, Note_on_c, 9, 51, 72
5, 44980, Note_on_c, 9, 51, 0
5, 45120, Note_on_c, 9, 51, 100
5, 45220, Note_on_c, 9, 51, 0
5, 45360, Note_on_c, 9, 36, 95
5, 45360, Note_on_c, 9, 51, 127
5, 45460, Note_on_c, 9, 51, 0
5, 45460, Note_on_c, 9, 36, 0
5, 45600, Note_on_c, 9, 38, 124
5, 45600, Note_on_c, 9, 51, 106
5, 45700, Note_on_c, 9, 51, 0
5, 45700, Note_on_c, 9, 38, 0
5, 45840, Note_on_c, 9, 51, 127
5, 45940, Note_on_c, 9, 51, 0
5, 45960, Note_on_c, 9, 36, 65
5, 46060, Note_on_c, 9, 36, 0
5, 46080, Note_on_c, 9, 36, 82
5, 46080, Note_on_c, 9, 51, 100
5, 46180, Note_on_c, 9, 51, 0
5, 46180, Note_on_c, 9, 36, 0
5, 46320, Note_on_c, 9, 51, 85
5, 46420, Note_on_c, 9, 51, 0
5, 46560, Note_on_c, 9, 38, 127
5, 46560, Note_on_c, 9, 51, 118
5, 46660, Note_on_c, 9, 51, 0
5, 46660, Note_on_c, 9, 38, 0
5, 46800, Note_on_c, 9, 51, 127
5, 46900, Note_on_c, 9, 51, 0
5, 47040, Note_on_c, 9, 51, 121
5, 47140, Note_on_c, 9, 51, 0
5, 47280, Note_on_c, 9, 36, 73
5, 47280, Note_on_c, 9, 51, 119
5, 47380, Note_on_c, 9, 51, 0
5, 47380, Note_on_c, 9, 36, 0
5, 47520, Note_on_c, 9, 38, 127
5, 47520, Note_on_c, 9, 51, 127
5, 47620, Note_on_c, 9, 51, 0
5, 47620, Note_on_c, 9, 38, 0
5, 47760, Note_on_c, 9, 51, 127
5, 47860, Note_on_c, 9, 51, 0
5, 47880, Note_on_c, 9, 36, 68
5, 47880, Note_on_c, 9, 51, 70
5, 47980, Note_on_c, 9, 51, 0
5, 47980, Note_on_c, 9, 36, 0
5, 48000, Note_on_c, 9, 36, 82
5, 48000, Note_on_c, 9, 51, 100
5, 48100, Note_on_c, 9, 51, 0
5, 48100, Note_on_c, 9, 36, 0
5, 48240, Note_on_c, 9, 51, 85
5, 48340, Note_on_c, 9, 51, 0
5, 48480, Note_on_c, 9, 38, 127
5, 48480, Note_on_c, 9, 51, 118
5, 48580, Note_on_c, 9, 51, 0
5, 48580, Note_on_c, 9, 38, 0
5, 48720, Note_on_c, 9, 51, 127
5, 48820, Note_on_c, 9, 51, 0
5, 48960, Note_on_c, 9, 51, 121
5, 49060, Note_on_c, 9, 51, 0
5, 49200, Note_on_c, 9, 36, 73
5, 49200, Note_on_c, 9, 51, 119
5, 49300, Note_on_c, 9, 51, 0
5, 49300, Note_on_c, 9, 36, 0
5, 49440, Note_on_c, 9, 38, 127
5, 49440, Note_on_c, 9, 51, 127
5, 49540, Note_on_c, 9, 51, 0
5, 49540, Note_on_c, 9, 38, 0
5, 49680, Note_on_c, 9, 51, 127
5, 49780, Note_on_c, 9, 51, 0
5, 49800, Note_on_c, 9, 36, 68
5, 49800, Note_on_c, 9, 51, 70
5, 49900, Note_on_c, 9, 51, 0
5, 49900, Note_on_c, 9, 36, 0
5, 49920, Note_on_c, 9, 36, 77
5, 49920, Note_on_c, 9, 49, 61
5, 49920, Note_on_c, 9, 51, 127
5, 50020, Note_on_c, 9, 51, 0
5, 50020, Note_on_c, 9, 49, 0
5, 50020, Note_on_c, 9, 36, 0
5, 50160, Note_on_c, 9, 51, 121
5, 50260, Note_on_c, 9, 51, 0
5, 50400, Note_on_c, 9, 38, 119
5, 50400, Note_on_c, 9, 51, 127
5, 50500, Note_on_c, 9, 51, 0
5, 50500, Note_on_c, 9, 38, 0
5, 50640, Note_on_c, 9, 51, 127
5, 50740, Note_on_c, 9, 51, 0
5, 50880, Note_on_c, 9, 51, 127
5, 50980, Note_on_c, 9, 51, 0
5, 51000, Note_on_c, 9, 36, 65
5, 51100, Note_on_c, 9, 36, 0
5, 51120, Note_on_c, 9, 36, 80
5, 51120, Note_on_c, 9, 51, 108
5, 51220, Note_on_c, 9, 51, 0
5, 51220, Note_on_c, 9, 36, 0
5, 51360, Note_on_c, 9, 38, 127
5, 51360, Note_on_c, 9, 51, 92
5, 51460, Note_on_c, 9, 51, 0
5, 51460, Note_on_c, 9, 38, 0
5, 51600, Note_on_c, 9, 51, 113
5, 51700, Note_on_c, 9, 51, 0
5, 51720, Note_on_c, 9, 36, 63
5, 51820, Note_on_c, 9, 36, 0
5, 51840, Note_on_c, 9, 36, 82
5, 51840, Note_on_c, 9, 51, 90
5, 51940, Note_on_c, 9, 51, 0
5, 51940, Note_on_c, 9, 36, 0
5, 52080, Note_on_c, 9, 51, 80
5, 52180, Note_on_c, 9, 51, 0
5, 52320, Note_on_c, 9, 38, 119
5, 52320, Note_on_c, 9, 51, 92
5, 52420, Note_on_c, 9, 51, 0
5, 52420, Note_on_c, 9, 38, 0
5, 52560, Note_on_c, 9, 51, 72
5, 52660, Note_on_c, 9, 51, 0
5, 52800, Note_on_c, 9, 51, 100
5, 52900, Note_on_c, 9, 51, 0
5, 53040, Note_on_c, 9, 36, 95
5, 53040, Note_on_c, 9, 51, 127
5, 53140, Note_on_c, 9, 51, 0
5, 53140, Note_on_c, 9, 36, 0
5, 53280, Note_on_c, 9, 38, 124
5, 53280, Note_on_c, 9, 51, 106
5, 53380, Note_on_c, 9, 51, 0
5, 53380, Note_on_c, 9, 38, 0
5, 53520, Note_on_c, 9, 51, 127
5, 53620, Note_on_c, 9, 51, 0
5, 53640, Note_on_c, 9, 36, 65
5, 53740, Note_on_c, 9, 36, 0
5, 53760, Note_on_c, 9, 36, 102
5, 53760, Note_on_c, 9, 51, 106
5, 53860, Note_on_c, 9, 51, 0
5, 53860, Note_on_c, 9, 36, 0
5, 54000, Note_on_c, 9, 51, 82
5, 54100, Note_on_c, 9, 51, 0
5, 54240, Note_on_c, 9, 38, 127
5, 54240, Note_on_c, 9, 51, 113
5, 54340, Note_on_c, 9, 51, 0
5, 54340, Note_on_c, 9, 38, 0
5, 54480, Note_on_c, 9, 51, 95
5, 54580, Note_on_c, 9, 51, 0
5, 54720, Note_on_c, 9, 51, 116
5, 54820, Note_on_c, 9, 51, 0
5, 54960, Note_on_c, 9, 36, 89
5, 54960, Note_on_c, 9, 51, 126
5, 55060, Note_on_c, 9, 51, 0
5, 55060, Note_on_c, 9, 36, 0
5, 55200, Note_on_c, 9, 38, 127
5, 55200, Note_on_c, 9, 51, 126
5, 55300, Note_on_c, 9, 51, 0
5, 55300, Note_on_c, 9, 38, 0
5, 55440, Note_on_c, 9, 51, 118
5, 55540, Note_on_c, 9, 51, 0
5, 55560, Note_on_c, 9, 36, 65
5, 55660, Note_on_c, 9, 36, 0
5, 55680, Note_on_c, 9, 36, 86
5, 55680, Note_on_c, 9, 51, 127
5, 55780, Note_on_c, 9, 51, 0
5, 55780, Note_on_c, 9, 36, 0
5, 55920, Note_on_c, 9, 51, 113
5, 56020, Note_on_c, 9, 51, 0
5, 56160, Note_on_c, 9, 38, 106
5, 56160, Note_on_c, 9, 51, 127
5, 56260, Note_on_c, 9, 51, 0
5, 56260, Note_on_c, 9, 38, 0
5, 56400, Note_on_c, 9, 51, 127
5, 56500, Note_on_c, 9, 51, 0
5, 56640, Note_on_c, 9, 51, 80
5, 56740, Note_on_c, 9, 51, 0
5, 56760, Note_on_c, 9, 36, 70
5, 56760, Note_on_c, 9, 51, 108
5, 56860, Note_on_c, 9, 51, 0
5, 56860, Note_on_c, 9, 36, 0
5, 56880, Note_on_c, 9, 36, 95
5, 56880, Note_on_c, 9, 51, 122
5, 56980, Note_on_c, 9, 51, 0
5, 56980, Note_on_c, 9, 36, 0
5, 57120, Note_on_c, 9, 38, 114
5, 57120, Note_on_c, 9, 51, 127
5, 57220, Note_on_c, 9, 51, 0
5, 57220, Note_on_c, 9, 38, 0
5, 57240, Note_on_c, 9, 36, 57
5, 57240, Note_on_c, 9, 51, 70
5, 57340, Note_on_c, 9, 51, 0
5, 57340, Note_on_c, 9, 36, 0
5, 57360, Note_on_c, 9, 36, 80
5, 57360, Note_on_c, 9, 51, 127
5, 57460, Note_on_c, 9, 51, 0
5, 57460, Note_on_c, 9, 36, 0
5, 57600, Note_on_c, 9, 36, 82
5, 57600, Note_on_c, 9, 51, 100
5, 57700, Note_on_c, 9, 51, 0
5, 57700, Note_on_c, 9, 36, 0
5, 57840, Note_on_c, 9, 51, 85
5, 57940, Note_on_c, 9, 51, 0
5, 58080, Note_on_c, 9, 38, 127
5, 58080, Note_on_c, 9, 51, 118
5, 58180, Note_on_c, 9, 51, 0
5, 58180, Note_on_c, 9, 38, 0
5, 58320, Note_on_c, 9, 51, 127
5, 58420, Note_on_c, 9, 51, 0
5, 58560, Note_on_c, 9, 51, 121
5, 58660, Note_on_c, 9, 51, 0
5, 58800, Note_on_c, 9, 36, 73
5, 58800, Note_on_c, 9, 51, 119
5, 58900, Note_on_c, 9, 51, 0
5, 58900, Note_on_c, 9, 36, 0
5, 59040, Note_on_c, 9, 38, 127
5, 59040, Note_on_c, 9, 51, 127
5, 59140, Note_on_c, 9, 51, 0
5, 59140, Note_on_c, 9, 38, 0
5, 59280, Note_on_c, 9, 51, 127
5, 59380, Note_on_c, 9, 51, 0
5, 59400, Note_on_c, 9, 36, 68
5, 59400, Note_on_c, 9, 51, 70
5, 59500, Note_on_c, 9, 51, 0
5, 59500, Note_on_c, 9, 36, 0
5, 59520, Note_on_c, 9, 36, 92
5, 59520, Note_on_c, 9, 49, 66
5, 59520, Note_on_c, 9, 51, 98
5, 59620, Note_on_c, 9, 51, 0
5, 59620, Note_on_c, 9, 49, 0
5, 59620, Note_on_c, 9, 36, 0
5, 59760, Note_on_c, 9, 51, 98
5, 59860, Note_on_c, 9, 51, 0
5, 60000, Note_on_c, 9, 38, 127
5, 60000, Note_on_c, 9, 51, 124
5, 60100, Note_on_c, 9, 51, 0
5, 60100, Note_on_c, 9, 38, 0
5, 60240, Note_on_c, 9, 51, 114
5, 60340, Note_on_c, 9, 51, 0
5, 60480, Note_on_c, 9, 51, 103
5, 60580, Note_on_c, 9, 51, 0
5, 60720, Note_on_c, 9, 51, 127
5, 60820, Note_on_c, 9, 51, 0
5, 60840, Note_on_c, 9, 36, 86
5, 60940, Note_on_c, 9, 36, 0
5, 60960, Note_on_c, 9, 38, 127
5, 60960, Note_on_c, 9, 51, 127
5, 61060, Note_on_c, 9, 51, 0
5, 61060, Note_on_c, 9, 38, 0
5, 61200, Note_on_c, 9, 51, 90
5, 61300, Note_on_c, 9, 51, 0
5, 61320, Note_on_c, 9, 36, 70
5, 61320, Note_on_c, 9, 51, 70
5, 61420, Note_on_c, 9, 51, 0
5, 61420, Note_on_c, 9, 36, 0
5, 61440, Note_on_c, 9, 36, 82
5, 61440, Note_on_c, 9, 51, 90
5, 61540, Note_on_c, 9, 51, 0
5, 61540, Note_on_c, 9, 36, 0
5, 61680, Note_on_c, 9, 51, 80
5, 61780, Note_on_c, 9, 51, 0
5, 61920, Note_on_c, 9, 38, 119
5, 61920, Note_on_c, 9, 51, 92
5, 62020, Note_on_c, 9, 51, 0
5, 62020, Note_on_c, 9, 38, 0
5, 62160, Note_on_c, 9, 51, 72
5, 62260, Note_on_c, 9, 51, 0
5, 62400, Note_on_c, 9, 51, 100
5, 62500, Note_on_c, 9, 51, 0
5, 62640, Note_on_c, 9, 36, 95
5, 62640, Note_on_c, 9, 51, 127
5, 62740, Note_on_c, 9, 51, 0
5, 62740, Note_on_c, 9, 36, 0
5, 62880, Note_on_c, 9, 38, 124
5, 62880, Note_on_c, 9, 51, 106
5, 62980, Note_on_c, 9, 51, 0
5, 62980, Note_on_c, 9, 38, 0
5, 63120, Note_on_c, 9, 51, 127
5, 63220, Note_on_c, 9, 51, 0
5, 63240, Note_on_c, 9, 36, 65
5, 63340, Note_on_c, 9, 36, 0
5, 63360, Note_on_c, 9, 36, 82
5, 63360, Note_on_c, 9, 51, 100
5, 63460, Note_on_c, 9, 51, 0
5, 63460, Note_on_c, 9, 36, 0
5, 63600, Note_on_c, 9, 51, 85
5, 63700, Note_on_c, 9, 51, 0
5, 63840, Note_on_c, 9, 38, 127
5, 63840, Note_on_c, 9, 51, 118
5, 63940, Note_on_c, 9, 51, 0
5, 63940, Note_on_c, 9, 38, 0
5, 64080, Note_on_c, 9, 51, 127
5, 64180, Note_on_c, 9, 51, 0
5, 64320, Note_on_c, 9, 51, 121
5, 64420, Note_on_c, 9, 51, 0
5, 64560, Note_on_c, 9, 36, 73
5, 64560, Note_on_c, 9, 51, 119
5, 64660, Note_on_c, 9, 51, 0
5, 64660, Note_on_c, 9, 36, 0
5, 64800, Note_on_c, 9, 38, 127
5, 64800, Note_on_c, 9, 51, 127
5, 64900, Note_on_c, 9, 51, 0
5, 64900, Note_on_c, 9, 38, 0
5, 65040, Note_on_c, 9, 51, 127
5, 65140, Note_on_c, 9, 51, 0
5, 65160, Note_on_c, 9, 36, 68
5, 65160, Note_on_c, 9, 51, 70
5, 65260, Note_on_c, 9, 51, 0
5, 65260, Note_on_c, 9, 36, 0
5, 65280, Note_on_c, 9, 36, 83
5, 65280, Note_on_c, 9, 51, 83
5, 65380, Note_on_c, 9, 51, 0
5, 65380, Note_on_c, 9, 36, 0
5, 65520, Note_on_c, 9, 51, 121
5, 65620, Note_on_c, 9, 51, 0
5, 65760, Note_on_c, 9, 38, 127
5, 65760, Note_on_c, 9, 51, 127
5, 65860, Note_on_c, 9, 51, 0
5, 65860, Note_on_c, 9, 38, 0
5, 66000, Note_on_c, 9, 51, 98
5, 66100, Note_on_c, 9, 51, 0
5, 66240, Note_on_c, 9, 51, 127
5, 66340, Note_on_c, 9, 51, 0
5, 66360, Note_on_c, 9, 51, 92
5, 66460, Note_on_c, 9, 51, 0
5, 66480, Note_on_c, 9, 36, 73
5, 66480, Note_on_c, 9, 53, 127
5, 66580, Note_on_c, 9, 53, 0
5, 66580, Note_on_c, 9, 36, 0
5, 66720, Note_on_c, 9, 38, 116
5, 66720, Note_on_c, 9, 51, 105
5, 66820, Note_on_c, 9, 51, 0
5, 66820, Note_on_c, 9, 38, 0
5, 66840, Note_on_c, 9, 53, 77
5, 66940, Note_on_c, 9, 53, 0
5, 66960, Note_on_c, 9, 36, 70
5, 67060, Note_on_c, 9, 36, 0
5, 67200, Note_on_c, 9, 36, 82
5, 67200, Note_on_c, 9, 51, 93
5, 67300, Note_on_c, 9, 51, 0
5, 67300, Note_on_c, 9, 36, 0
5, 67440, Note_on_c, 9, 51, 127
5, 67540, Note_on_c, 9, 51, 0
5, 67680, Note_on_c, 9, 38, 127
5, 67680, Note_on_c, 9, 51, 127
5, 67780, Note_on_c, 9, 51, 0
5, 67780, Note_on_c, 9, 38, 0
5, 67920, Note_on_c, 9, 51, 118
5, 68020, Note_on_c, 9, 51, 0
5, 68160, Note_on_c, 9, 51, 127
5, 68260, Note_on_c, 9, 51, 0
5, 68400, Note_on_c, 9, 36, 76
5, 68400, Note_on_c, 9, 51, 127
5, 68500, Note_on_c, 9, 51, 0
5, 68500, Note_on_c, 9, 36, 0
5, 68640, Note_on_c, 9, 38, 127
5, 68640, Note_on_c, 9, 51, 127
5, 68740, Note_on_c, 9, 51, 0
5, 68740, Note_on_c, 9, 38, 0
5, 68760, Note_on_c, 9, 36, 65
5, 68760, Note_on_c, 9, 51, 80
5, 68860, Note_on_c, 9, 51, 0
5, 68860, Note_on_c, 9, 36, 0
5, 68880, Note_on_c, 9, 36, 85
5, 68880, Note_on_c, 9, 51, 126
5, 68980, Note_on_c, 9, 51, 0
5, 68980, Note_on_c, 9, 36, 0
5, 69120, Note_on_c, 9, 36, 77
5, 69120, Note_on_c, 9, 49, 61
5, 69120, Note_on_c, 9, 51, 127
5, 69220, Note_on_c, 9, 51, 0
5, 69220, Note_on_c, 9, 49, 0
5, 69220, Note_on_c, 9, 36, 0
5, 69360, Note_on_c, 9, 51, 121
5, 69460, Note_on_c, 9, 51, 0
5, 69600, Note_on_c, 9, 38, 119
5, 69600, Note_on_c, 9, 51, 127
5, 69700, Note_on_c, 9, 51, 0
5, 69700, Note_on_c, 9, 38, 0
5, 69840, Note_on_c, 9, 51, 127
5, 69940, Note_on_c, 9, 51, 0
5, 70080, Note_on_c, 9, 51, 127
5, 70180, Note_on_c, 9, 51, 0
5, 70200, Note_on_c, 9, 36, 65
5, 70300, Note_on_c, 9, 36, 0
5, 70320, Note_on_c, 9, 36, 80
5, 70320, Note_on_c, 9, 51, 108
5, 70420, Note_on_c, 9, 51, 0
5, 70420, Note_on_c, 9, 36, 0
5, 70560, Note_on_c, 9, 38, 127
5, 70560, Note_on_c, 9, 51, 92
5, 70660, Note_on_c, 9, 51, 0
5, 70660, Note_on_c, 9, 38, 0
5, 70800, Note_on_c, 9, 51, 113
5, 70900, Note_on_c, 9, 51, 0
5, 70920, Note_on_c, 9, 36, 63
5, 71020, Note_on_c, 9, 36, 0
5, 71040, Note_on_c, 9, 36, 86
5, 71040, Note_on_c, 9, 51, 127
5, 71140, Note_on_c, 9, 51, 0
5, 71140, Note_on_c, 9, 36, 0
5, 71280, Note_on_c, 9, 51, 113
5, 71380, Note_on_c, 9, 51, 0
5, 71520, Note_on_c, 9, 38, 106
5, 71520, Note_on_c, 9, 51, 127
5, 71620, Note_on_c, 9, 51, 0
5, 71620, Note_on_c, 9, 38, 0
5, 71760, Note_on_c, 9, 51, 127
5, 71860, Note_on_c, 9, 51, 0
5, 72000, Note_on_c, 9, 51, 80
5, 72100, Note_on_c, 9, 51, 0
5, 72120, Note_on_c, 9, 36, 70
5, 72120, Note_on_c, 9, 51, 108
5, 72220, Note_on_c, 9, 51, 0
5, 72220, Note_on_c, 9, 36, 0
5, 72240, Note_on_c, 9, 36, 95
5, 72240, Note_on_c, 9, 51, 122
5, 72340, Note_on_c, 9, 51, 0
5, 72340, Note_on_c, 9, 36, 0
5, 72480, Note_on_c, 9, 38, 114
5, 72480, Note_on_c, 9, 51, 127
5, 72580, Note_on_c, 9, 51, 0
5, 72580, Note_on_c, 9, 38, 0
5, 72600, Note_on_c, 9, 36, 57
5, 72600, Note_on_c, 9, 51, 70
5, 72700, Note_on_c, 9, 51, 0
5, 72700, Note_on_c, 9, 36, 0
5, 72720, Note_on_c, 9, 36, 80
5, 72720, Note_on_c, 9, 51, 127
5, 72820, Note_on_c, 9, 51, 0
5, 72820, Note_on_c, 9, 36, 0
5, 72960, Note_on_c, 9, 36, 82
5, 72960, Note_on_c, 9, 51, 90
5, 73060, Note_on_c, 9, 51, 0
5, 73060, Note_on_c, 9, 36, 0
5, 73200, Note_on_c, 9, 51, 80
5, 73300, Note_on_c, 9, 51, 0
5, 73440, Note_on_c, 9, 38, 119
5, 73440, Note_on_c, 9, 51, 92
5, 73540, Note_on_c, 9, 51, 0
5, 73540, Note_on_c, 9, 38, 0
5, 73680, Note_on_c, 9, 51, 72
5, 73780, Note_on_c, 9, 51, 0
5, 73920, Note_on_c, 9, 51, 100
5, 74020, Note_on_c, 9, 51, 0
5, 74160, Note_on_c, 9, 36, 95
5, 74160, Note_on_c, 9, 51, 127
5, 74260, Note_on_c, 9, 51, 0
5, 74260, Note_on_c, 9, 36, 0
5, 74400, Note_on_c, 9, 38, 124
5, 74400, Note_on_c, 9, 51, 106
5, 74500, Note_on_c, 9, 51, 0
5, 74500, Note_on_c, 9, 38, 0
5, 74640, Note_on_c, 9, 51, 127
5, 74740, Note_on_c, 9, 51, 0
5, 74760, Note_on_c, 9, 36, 65
5, 74860, Note_on_c, 9, 36, 0
5, 74880, Note_on_c, 9, 36, 86
5, 74880, Note_on_c, 9, 51, 127
5, 74980, Note_on_c, 9, 51, 0
5, 74980, Note_on_c, 9, 36, 0
5, 75120, Note_on_c, 9, 51, 113
5, 75220, Note_on_c, 9, 51, 0
5, 75360, Note_on_c, 9, 38, 106
5, 75360, Note_on_c, 9, 51, 127
5, 75460, Note_on_c, 9, 51, 0
5, 75460, Note_on_c, 9, 38, 0
5, 75600, Note_on_c, 9, 51, 127
5, 75700, Note_on_c, 9, 51, 0
5, 75840, Note_on_c, 9, 51, 80
5, 75940, Note_on_c, 9, 51, 0
5, 75960, Note_on_c, 9, 36, 70
5, 75960, Note_on_c, 9, 51, 108
5, 76060, Note_on_c, 9, 51, 0
5, 76060, Note_on_c, 9, 36, 0
5, 76080, Note_on_c, 9, 36, 95
5, 76080, Note_on_c, 9, 51, 122
5, 76180, Note_on_c, 9, 51, 0
5, 76180, Note_on_c, 9, 36, 0
5, 76320, Note_on_c, 9, 38, 114
5, 76320, Note_on_c, 9, 51, 127
5, 76420, Note_on_c, 9, 51, 0
5, 76420, Note_on_c, 9, 38, 0
5, 76440, Note_on_c, 9, 36, 57
5, 76440, Note_on_c, 9, 51, 70
5, 76540, Note_on_c, 9, 51, 0
5, 76540, Note_on_c, 9, 36, 0
5, 76560, Note_on_c, 9, 36, 80
5, 76560, Note_on_c, 9, 51, 127
5, 76660, Note_on_c, 9, 51, 0
5, 76660, Note_on_c, 9, 36, 0
5, 76800, Note_on_c, 9, 36, 82
5, 76800, Note_on_c, 9, 51, 93
5, 76900, Note_on_c, 9, 51, 0
5, 76900, Note_on_c, 9, 36, 0
5, 77040, Note_on_c, 9, 51, 127
5, 77140, Note_on_c, 9, 51, 0
5, 77280, Note_on_c, 9, 38, 127
5, 77280, Note_on_c, 9, 51, 127
5, 77380, Note_on_c, 9, 51, 0
5, 77380, Note_on_c, 9, 38, 0
5, 77520, Note_on_c, 9, 51, 118
5, 77620, Note_on_c, 9, 51, 0
5, 77760, Note_on_c, 9, 51, 127
5, 77860, Note_on_c, 9, 51, 0
5, 78000, Note_on_c, 9, 36, 76
5, 78000, Note_on_c, 9, 51, 127
5, 78100, Note_on_c, 9, 51, 0
5, 78100, Note_on_c, 9, 36, 0
5, 78240, Note_on_c, 9, 38, 127
5, 78240, Note_on_c, 9, 51, 127
5, 78340, Note_on_c, 9, 51, 0
5, 78340, Note_on_c, 9, 38, 0
5, 78360, Note_on_c, 9, 36, 65
5, 78360, Note_on_c, 9, 51, 80
5, 78460, Note_on_c, 9, 51, 0
5, 78460, Note_on_c, 9, 36, 0
5, 78480, Note_on_c, 9, 36, 85
5, 78480, Note_on_c, 9, 51, 126
5, 78580, Note_on_c, 9, 51, 0
5, 78580, Note_on_c, 9, 36, 0
5, 78720, Note_on_c, 9, 36, 70
5, 78720, Note_on_c, 9, 51, 127
5, 78820, Note_on_c, 9, 51, 0
5, 78820, Note_on_c, 9, 36, 0
5, 78960, Note_on_c, 9, 51, 127
5, 79060, Note_on_c, 9, 51, 0
5, 79200, Note_on_c, 9, 38, 109
5, 79200, Note_on_c, 9, 51, 127
5, 79300, Note_on_c, 9, 51, 0
5, 79300, Note_on_c, 9, 38, 0
5, 79440, Note_on_c, 9, 51, 127
5, 79540, Note_on_c, 9, 51, 0
5, 79680, Note_on_c, 9, 51, 127
5, 79780, Note_on_c, 9, 51, 0
5, 79800, Note_on_c, 9, 50, 113
5, 79800, Note_on_c, 9, 51, 127
5, 79900, Note_on_c, 9, 51, 0
5, 79900, Note_on_c, 9, 50, 0
5, 79920, Note_on_c, 9, 51, 80
5, 80020, Note_on_c, 9, 51, 0
5, 80040, Note_on_c, 9, 51, 93
5, 80140, Note_on_c, 9, 51, 0
5, 80160, Note_on_c, 9, 48, 127
5, 80160, Note_on_c, 9, 51, 127
5, 80260, Note_on_c, 9, 51, 0
5, 80260, Note_on_c, 9, 48, 0
5, 80400, Note_on_c, 9, 51, 98
5, 80500, Note_on_c, 9, 51, 0
5, 80520, Note_on_c, 9, 45, 127
5, 80620, Note_on_c, 9, 45, 0
5, 80640, Note_on_c, 9, 36, 82
5, 80640, Note_on_c, 9, 51, 93
5, 80740, Note_on_c, 9, 51, 0
5, 80740, Note_on_c, 9, 36, 0
5, 80880, Note_on_c, 9, 51, 127
5, 80980, Note_on_c, 9, 51, 0
5, 81120, Note_on_c, 9, 38, 127
5, 81120, Note_on_c, 9, 51, 127
5, 81220, Note_on_c, 9, 51, 0
5, 81220, Note_on_c, 9, 38, 0
5, 81360, Note_on_c, 9, 51, 118
5, 81460, Note_on_c, 9, 51, 0
5, 81600, Note_on_c, 9, 51, 127
5, 81700, Note_on_c, 9, 51, 0
5, 81840, Note_on_c, 9, 36, 76
5, 81840, Note_on_c, 9, 51, 127
5, 81940, Note_on_c, 9, 51, 0
5, 81940, Note_on_c, 9, 36, 0
5, 82080, Note_on_c, 9, 38, 127
5, 82080, Note_on_c, 9, 51, 127
5, 82180, Note_on_c, 9, 51, 0
5, 82180, Note_on_c, 9, 38, 0
5, 82200, Note_on_c, 9, 36, 65
5, 82200, Note_on_c, 9, 51, 80
5, 82300, Note_on_c, 9, 51, 0
5, 82300, Note_on_c, 9, 36, 0
5, 82320, Note_on_c, 9, 36, 85
5, 82320, Note_on_c, 9, 51, 126
5, 82420, Note_on_c, 9, 51, 0
5, 82420, Note_on_c, 9, 36, 0
5, 82560, Note_on_c, 9, 36, 82
5, 82560, Note_on_c, 9, 51, 93
5, 82660, Note_on_c, 9, 51, 0
5, 82660, Note_on_c, 9, 36, 0
5, 82800, Note_on_c, 9, 51, 127
5, 82900, Note_on_c, 9, 51, 0
5, 83040, Note_on_c, 9, 38, 127
5, 83040, Note_on_c, 9, 51, 127
5, 83140, Note_on_c, 9, 51, 0
5, 83140, Note_on_c, 9, 38, 0
5, 83280, Note_on_c, 9, 51, 118
5, 83380, Note_on_c, 9, 51, 0
5, 83520, Note_on_c, 9, 51, 127
5, 83620, Note_on_c, 9, 51, 0
5, 83760, Note_on_c, 9, 36, 76
5, 83760, Note_on_c, 9, 51, 127
5, 83860, Note_on_c, 9, 51, 0
5, 83860, Note_on_c, 9, 36, 0
5, 84000, Note_on_c, 9, 38, 127
5, 84000, Note_on_c, 9, 51, 127
5, 84100, Note_on_c, 9, 51, 0
5, 84100, Note_on_c, 9, 38, 0
5, 84120, Note_on_c, 9, 36, 65
5, 84120, Note_on_c, 9, 51, 80
5, 84220, Note_on_c, 9, 51, 0
5, 84220, Note_on_c, 9, 36, 0
5, 84240, Note_on_c, 9, 36, 85
5, 84240, Note_on_c, 9, 51, 126
5, 84340, Note_on_c, 9, 51, 0
5, 84340, Note_on_c, 9, 36, 0
5, 84480, Note_on_c, 9, 36, 92
5, 84480, Note_on_c, 9, 49, 66
5, 84480, Note_on_c, 9, 51, 98
5, 84580, Note_on_c, 9, 51, 0
5, 84580, Note_on_c, 9, 49, 0
5, 84580, Note_on_c, 9, 36, 0
5, 84720, Note_on_c, 9, 51, 98
5, 84820, Note_on_c, 9, 51, 0
5, 84960, Note_on_c, 9, 38, 127
5, 84960, Note_on_c, 9, 51, 124
5, 85060, Note_on_c, 9, 51, 0
5, 85060, Note_on_c, 9, 38, 0
5, 85200, Note_on_c, 9, 51, 114
5, 85300, Note_on_c, 9, 51, 0
5, 85440, Note_on_c, 9, 51, 103
5, 85540, Note_on_c, 9, 51, 0
5, 85680, Note_on_c, 9, 51, 127
5, 85780, Note_on_c, 9, 51, 0
5, 85800, Note_on_c, 9, 36, 86
5, 85900, Note_on_c, 9, 36, 0
5, 85920, Note_on_c, 9, 38, 127
5, 85920, Note_on_c, 9, 51, 127
5, 86020, Note_on_c, 9, 51, 0
5, 86020, Note_on_c, 9, 38, 0
5, 86160, Note_on_c, 9, 51, 90
5, 86260, Note_on_c, 9, 51, 0
5, 86280, Note_on_c, 9, 36, 70
5, 86280, Note_on_c, 9, 51, 70
5, 86380, Note_on_c, 9, 51, 0
5, 86380, Note_on_c, 9, 36, 0
5, 86400, Note_on_c, 9, 36, 102
5, 86400, Note_on_c, 9, 51, 106
5, 86500, Note_on_c, 9, 51, 0
5, 86500, Note_on_c, 9, 36, 0
5, 86640, Note_on_c, 9, 51, 108
5, 86740, Note_on_c, 9, 51, 0
5, 86880, Note_on_c, 9, 38, 109
5, 86880, Note_on_c, 9, 51, 127
5, 86980, Note_on_c, 9, 51, 0
5, 86980, Note_on_c, 9, 38, 0
5, 87120, Note_on_c, 9, 51, 127
5, 87220, Note_on_c, 9, 51, 0
5, 87360, Note_on_c, 9, 51, 127
5, 87460, Note_on_c, 9, 51, 0
5, 87480, Note_on_c, 9, 36, 58
5, 87480, Note_on_c, 9, 51, 80
5, 87580, Note_on_c, 9, 51, 0
5, 87580, Note_on_c, 9, 36, 0
5, 87600, Note_on_c, 9, 36, 96
5, 87600, Note_on_c, 9, 51, 127
5, 87700, Note_on_c, 9, 51, 0
5, 87700, Note_on_c, 9, 36, 0
5, 87840, Note_on_c, 9, 38, 113
5, 87840, Note_on_c, 9, 51, 98
5, 87940, Note_on_c, 9, 51, 0
5, 87940, Note_on_c, 9, 38, 0
5, 88080, Note_on_c, 9, 51, 127
5, 88180, Note_on_c, 9, 51, 0
5, 88200, Note_on_c, 9, 51, 80
5, 88300, Note_on_c, 9, 51, 0
5, 88320, Note_on_c, 9, 36, 102
5, 88320, Note_on_c, 9, 51, 106
5, 88420, Note_on_c, 9, 51, 0
5, 88420, Note_on_c, 9, 36, 0
5, 88560, Note_on_c, 9, 51, 82
5, 88660, Note_on_c, 9, 51, 0
5, 88800, Note_on_c, 9, 38, 127
5, 88800, Note_on_c, 9, 51, 113
5, 88900, Note_on_c, 9, 51, 0
5, 88900, Note_on_c, 9, 38, 0
5, 89040, Note_on_c, 9, 51, 95
5, 89140, Note_on_c, 9, 51, 0
5, 89280, Note_on_c, 9, 51, 116
5, 89380, Note_on_c, 9, 51, 0
5, 89520, Note_on_c, 9, 36, 89
5, 89520, Note_on_c, 9, 51, 126
5, 89620, Note_on_c, 9, 51, 0
5, 89620, Note_on_c, 9, 36, 0
5, 89760, Note_on_c, 9, 38, 127
5, 89760, Note_on_c, 9, 51, 126
5, 89860, Note_on_c, 9, 51, 0
5, 89860, Note_on_c, 9, 38, 0
5, 90000, Note_on_c, 9, 51, 118
5, 90100, Note_on_c, 9, 51, 0
5, 90120, Note_on_c, 9, 36, 65
5, 90220, Note_on_c, 9, 36, 0
5, 90240, Note_on_c, 9, 36, 102
5, 90240, Note_on_c, 9, 51, 106
5, 90340, Note_on_c, 9, 51, 0
5, 90340, Note_on_c, 9, 36, 0
5, 90480, Note_on_c, 9, 51, 108
5, 90580, Note_on_c, 9, 51, 0
5, 90720, Note_on_c, 9, 38, 109
5, 90720, Note_on_c, 9, 51, 127
5, 90820, Note_on_c, 9, 51, 0
5, 90820, Note_on_c, 9, 38, 0
5, 90960, Note_on_c, 9, 51, 127
5, 91060, Note_on_c, 9, 51, 0
5, 91200, Note_on_c, 9, 51, 127
5, 91300, Note_on_c, 9, 51, 0
5, 91320, Note_on_c, 9, 36, 58
5, 91320, Note_on_c, 9, 51, 80
5, 91420, Note_on_c, 9, 51, 0
5, 91420, Note_on_c, 9, 36, 0
5, 91440, Note_on_c, 9, 36, 96
5, 91440, Note_on_c, 9, 51, 127
5, 91540, Note_on_c, 9, 51, 0
5, 91540, Note_on_c, 9, 36, 0
5, 91680, Note_on_c, 9, 38, 113
5, 91680, Note_on_c, 9, 51, 98
5, 91780, Note_on_c, 9, 51, 0
5, 91780, Note_on_c, 9, 38, 0
5, 91920, Note_on_c, 9, 51, 127
5, 92020, Note_on_c, 9, 51, 0
5, 92040, Note_on_c, 9, 51, 80
5, 92140, Note_on_c, 9, 51, 0
5, 92160, Note_on_c, 9, 36, 102
5, 92160, Note_on_c, 9, 51, 106
5, 92260, Note_on_c, 9, 51, 0
5, 92260, Note_on_c, 9, 36, 0
5, 92400, Note_on_c, 9, 51, 108
5, 92500, Note_on_c, 9, 51, 0
5, 92640, Note_on_c, 9, 38, 109
5, 92640, Note_on_c, 9, 51, 127
5, 92740, Note_on_c, 9, 51, 0
5, 92740, Note_on_c, 9, 38, 0
5, 92880, Note_on_c, 9, 51, 127
5, 92980, Note_on_c, 9, 51, 0
5, 93120, Note_on_c, 9, 51, 127
5, 93220, Note_on_c, 9, 51, 0
5, 93240, Note_on_c, 9, 36, 58
5, 93240, Note_on_c, 9, 51, 80
5, 93340, Note_on_c, 9, 51, 0
5, 93340, Note_on_c, 9, 36, 0
5, 93360, Note_on_c, 9, 36, 96
5, 93360, Note_on_c, 9, 51, 127
5, 93460, Note_on_c, 9, 51, 0
5, 93460, Note_on_c, 9, 36, 0
5, 93600, Note_on_c, 9, 38, 113
5, 93600, Note_on_c, 9, 51, 98
5, 93700, Note_on_c, 9, 51, 0
5, 93700, Note_on_c, 9, 38, 0
5, 93840, Note_on_c, 9, 51, 127
5, 93940, Note_on_c, 9, 51, 0
5, 93960, Note_on_c, 9, 51, 80
5, 94060, Note_on_c, 9, 51, 0
5, 94080, Note_on_c, 9, 36, 92
5, 94080, Note_on_c, 9, 49, 66
5, 94080, Note_on_c, 9, 51, 98
5, 94180, Note_on_c, 9, 51, 0
5, 94180, Note_on_c, 9, 49, 0
5, 94180, Note_on_c, 9, 36, 0
5, 94320, Note_on_c, 9, 51, 98
5, 94420, Note_on_c, 9, 51, 0
5, 94560, Note_on_c, 9, 38, 127
5, 94560, Note_on_c, 9, 51, 124
5, 94660, Note_on_c, 9, 51, 0
5, 94660, Note_on_c, 9, 38, 0
5, 94800, Note_on_c, 9, 51, 114
5, 94900, Note_on_c, 9, 51, 0
5, 95040, Note_on_c, 9, 51, 103
5, 95140, Note_on_c, 9, 51, 0
5, 95280, Note_on_c, 9, 51, 127
5, 95380, Note_on_c, 9, 51, 0
5, 95400, Note_on_c, 9, 36, 86
5, 95500, Note_on_c, 9, 36, 0
5, 95520, Note_on_c, 9, 38, 127
5, 95520, Note_on_c, 9, 51, 127
5, 95620, Note_on_c, 9, 51, 0
5, 95620, Note_on_c, 9, 38, 0
5, 95760, Note_on_c, 9, 51, 90
5, 95860, Note_on_c, 9, 51, 0
5, 95880, Note_on_c, 9, 36, 70
5, 95880, Note_on_c, 9, 51, 70
5, 95980, Note_on_c, 9, 51, 0
5, 95980, Note_on_c, 9, 36, 0
5, 96000, Note_on_c, 9, 36, 82
5, 96000, Note_on_c, 9, 51, 90
5, 96100, Note_on_c, 9, 51, 0
5, 96100, Note_on_c, 9, 36, 0
5, 96240, Note_on_c, 9, 51, 80
5, 96340, Note_on_c, 9, 51, 0
5, 96480, Note_on_c, 9, 38, 119
5, 96480, Note_on_c, 9, 51, 92
5, 96580, Note_on_c, 9, 51, 0
5, 96580, Note_on_c, 9, 38, 0
5, 96720, Note_on_c, 9, 51, 72
5, 96820, Note_on_c, 9, 51, 0
5, 96960, Note_on_c, 9, 51, 100
5, 97060, Note_on_c, 9, 51, 0
5, 97200, Note_on_c, 9, 36, 95
5, 97200, Note_on_c, 9, 51, 127
5, 97300, Note_on_c, 9, 51, 0
5, 97300, Note_on_c, 9, 36, 0
5, 97440, Note_on_c, 9, 38, 124
5, 97440, Note_on_c, 9, 51, 106
5, 97540, Note_on_c, 9, 51, 0
5, 97540, Note_on_c, 9, 38, 0
5, 97680, Note_on_c, 9, 51, 127
5, 97780, Note_on_c, 9, 51, 0
5, 97800, Note_on_c, 9, 36, 65
5, 97900, Note_on_c, 9, 36, 0
5, 97920, Note_on_c, 9, 36, 92
5, 97920, Note_on_c, 9, 49, 66
5, 97920, Note_on_c, 9, 51, 98
5, 98020, Note_on_c, 9, 51, 0
5, 98020, Note_on_c, 9, 49, 0
5, 98020, Note_on_c, 9, 36, 0
5, 98160, Note_on_c, 9, 51, 98
5, 98260, Note_on_c, 9, 51, 0
5, 98400, Note_on_c, 9, 38, 127
5, 98400, Note_on_c, 9, 51, 124
5, 98500, Note_on_c, 9, 51, 0
5, 98500, Note_on_c, 9, 38, 0
5, 98640, Note_on_c, 9, 51, 114
5, 98740, Note_on_c, 9, 51, 0
5, 98880, Note_on_c, 9, 51, 103
5, 98980, Note_on_c, 9, 51, 0
5, 99120, Note_on_c, 9, 51, 127
5, 99220, Note_on_c, 9, 51, 0
5, 99240, Note_on_c, 9, 36, 86
5, 99340, Note_on_c, 9, 36, 0
5, 99360, Note_on_c, 9, 38, 127
5, 99360, Note_on_c, 9, 51, 127
5, 99460, Note_on_c, 9, 51, 0
5, 99460, Note_on_c, 9, 38, 0
5, 99600, Note_on_c, 9, 51, 90
5, 99700, Note_on_c, 9, 51, 0
5, 99720, Note_on_c, 9, 36, 70
5, 99720, Note_on_c, 9, 51, 70
5, 99820, Note_on_c, 9, 51, 0
5, 99820, Note_on_c, 9, 36, 0
5, 99840, Note_on_c, 9, 36, 92
5, 99840, Note_on_c, 9, 49, 66
5, 99840, Note_on_c, 9, 51, 98
5, 99940, Note_on_c, 9, 51, 0
5, 99940, Note_on_c, 9, 49, 0
5, 99940, Note_on_c, 9, 36, 0
5, 100080, Note_on_c, 9, 51, 98
5, 100180, Note_on_c, 9, 51, 0
5, 100320, Note_on_c, 9, 38, 127
5, 100320, Note_on_c, 9, 51, 124
5, 100420, Note_on_c, 9, 51, 0
5, 100420, Note_on_c, 9, 38, 0
5, 100560, Note_on_c, 9, 51, 114
5, 100660, Note_on_c, 9, 51, 0
5, 100800, Note_on_c, 9, 51, 103
5, 100900, Note_on_c, 9, 51, 0
5, 101040, Note_on_c, 9, 51, 127
5, 101140, Note_on_c, 9, 51, 0
5, 101160, Note_on_c, 9, 36, 86
5, 101260, Note_on_c, 9, 36, 0
5, 101280, Note_on_c, 9, 38, 127
5, 101280, Note_on_c, 9, 51, 127
5, 101380, Note_on_c, 9, 51, 0
5, 101380, Note_on_c, 9, 38, 0
5, 101520, Note_on_c, 9, 51, 90
5, 101620, Note_on_c, 9, 51, 0
5, 101640, Note_on_c, 9, 36, 70
5, 101640, Note_on_c, 9, 51, 70
5, 101740, Note_on_c, 9, 51, 0
5, 101740, Note_on_c, 9, 36, 0
5, 101760, Note_on_c, 9, 36, 92
5, 101760, Note_on_c, 9, 51, 127
5, 101860, Note_on_c, 9, 51, 0
5, 101860, Note_on_c, 9, 36, 0
5, 102000, Note_on_c, 9, 51, 103
5, 102100, Note_on_c, 9, 51, 0
5, 102240, Note_on_c, 9, 38, 127
5, 102240, Note_on_c, 9, 51, 127
5, 102340, Note_on_c, 9, 51, 0
5, 102340, Note_on_c, 9, 38, 0
5, 102480, Note_on_c, 9, 50, 127
5, 102480, Note_on_c, 9, 51, 127
5, 102580, Note_on_c, 9, 51, 0
5, 102580, Note_on_c, 9, 50, 0
5, 102720, Note_on_c, 9, 51, 127
5, 102820, Note_on_c, 9, 51, 0
5, 102960, Note_on_c, 9, 48, 124
5, 102960, Note_on_c, 9, 51, 127
5, 103060, Note_on_c, 9, 51, 0
5, 103060, Note_on_c, 9, 48, 0
5, 103200, Note_on_c, 9, 51, 113
5, 103300, Note_on_c, 9, 51, 0
5, 103320, Note_on_c, 9, 45, 100
5, 103420, Note_on_c, 9, 45, 0
5, 103440, Note_on_c, 9, 41, 127
5, 103540, Note_on_c, 9, 41, 0
5, 103680, Note_on_c, 9, 36, 92
5, 103680, Note_on_c, 9, 49, 66
5, 103680, Note_on_c, 9, 51, 98
5, 103780, Note_on_c, 9, 51, 0
5, 103780, Note_on_c, 9, 49, 0
5, 103780, Note_on_c, 9, 36, 0
5, 103920, Note_on_c, 9, 51, 98
5, 104020, Note_on_c, 9, 51, 0
5, 104160, Note_on_c, 9, 38, 127
5, 104160, Note_on_c, 9, 51, 124
5, 104260, Note_on_c, 9, 51, 0
5, 104260, Note_on_c, 9, 38, 0
5, 104400, Note_on_c, 9, 51, 114
5, 104500, Note_on_c, 9, 51, 0
5, 104640, Note_on_c, 9, 51, 103
5, 104740, Note_on_c, 9, 51, 0
5, 104880, Note_on_c, 9, 51, 127
5, 104980, Note_on_c, 9, 51, 0
5, 105000, Note_on_c, 9, 36, 86
5, 105100, Note_on_c, 9, 36, 0
5, 105120, Note_on_c, 9, 38, 127
5, 105120, Note_on_c, 9, 51, 127
5, 105220, Note_on_c, 9, 51, 0
5, 105220, Note_on_c, 9, 38, 0
5, 105360, Note_on_c, 9, 51, 90
5, 105460, Note_on_c, 9, 51, 0
5, 105480, Note_on_c, 9, 36, 70
5, 105480, Note_on_c, 9, 51, 70
5, 105580, Note_on_c, 9, 51, 0
5, 105580, Note_on_c, 9, 36, 0
5, 105600, Note_on_c, 9, 36, 82
5, 105600, Note_on_c, 9, 51, 93
5, 105700, Note_on_c, 9, 51, 0
5, 105700, Note_on_c, 9, 36, 0
5, 105840, Note_on_c, 9, 51, 127
5, 105940, Note_on_c, 9, 51, 0
5, 106080, Note_on_c, 9, 38, 127
5, 106080, Note_on_c, 9, 51, 127
5, 106180, Note_on_c, 9, 51, 0
5, 106180, Note_on_c, 9, 38, 0
5, 106320, Note_on_c, 9, 51, 118
5, 106420, Note_on_c, 9, 51, 0
5, 106560, Note_on_c, 9, 51, 127
5, 106660, Note_on_c, 9, 51, 0
5, 106800, Note_on_c, 9, 36, 76
5, 106800, Note_on_c, 9, 51, 127
5, 106900, Note_on_c, 9, 51, 0
5, 106900, Note_on_c, 9, 36, 0
5, 107040, Note_on_c, 9, 38, 127
5, 107040, Note_on_c, 9, 51, 127
5, 107140, Note_on_c, 9, 51, 0
5, 107140, Note_on_c, 9, 38, 0
5, 107160, Note_on_c, 9, 36, 65
5, 107160, Note_on_c, 9, 51, 80
5, 107260, Note_on_c, 9, 51, 0
5, 107260, Note_on_c, 9, 36, 0
5, 107280, Note_on_c, 9, 36, 85
5, 107280, Note_on_c, 9, 51, 126
5, 107380, Note_on_c, 9, 51, 0
5, 107380, Note_on_c, 9, 36, 0
5, 107520, Note_on_c, 9, 36, 82
5, 107520, Note_on_c, 9, 51, 100
5, 107620, Note_on_c, 9, 51, 0
5, 107620, Note_on_c, 9, 36, 0
5, 107760, Note_on_c, 9, 51, 85
5, 107860, Note_on_c, 9, 51, 0
5, 108000, Note_on_c, 9, 38, 127
5, 108000, Note_on_c, 9, 51, 118
5, 108100, Note_on_c, 9, 51, 0
5, 108100, Note_on_c, 9, 38, 0
5, 108240, Note_on_c, 9, 51, 127
5, 108340, Note_on_c, 9, 51, 0
5, 108480, Note_on_c, 9, 51, 121
5, 108580, Note_on_c, 9, 51, 0
5, 108720, Note_on_c, 9, 36, 73
5, 108720, Note_on_c, 9, 51, 119
5, 108820, Note_on_c, 9, 51, 0
5, 108820, Note_on_c, 9, 36, 0
5, 108960, Note_on_c, 9, 38, 127
5, 108960, Note_on_c, 9, 51, 127
5, 109060, Note_on_c, 9, 51, 0
5, 109060, Note_on_c, 9, 38, 0
5, 109200, Note_on_c, 9, 51, 127
5, 109300, Note_on_c, 9, 51, 0
5, 109320, Note_on_c, 9, 36, 68
5, 109320, Note_on_c, 9, 51, 70
5, 109420, Note_on_c, 9, 51, 0
5, 109420, Note_on_c, 9, 36, 0
5, 109440, Note_on_c, 9, 36, 82
5, 109440, Note_on_c, 9, 51, 90
5, 109540, Note_on_c, 9, 51, 0
5, 109540, Note_on_c, 9, 36, 0
5, 109680, Note_on_c, 9, 51, 80
5, 109780, Note_on_c, 9, 51, 0
5, 109920, Note_on_c, 9, 38, 119
5, 109920, Note_on_c, 9, 51, 92
5, 110020, Note_on_c, 9, 51, 0
5, 110020, Note_on_c, 9, 38, 0
5, 110160, Note_on_c, 9, 51, 72
5, 110260, Note_on_c, 9, 51, 0
5, 110400, Note_on_c, 9, 51, 100
5, 110500, Note_on_c, 9, 51, 0
5, 110640, Note_on_c, 9, 36, 95
5, 110640, Note_on_c, 9, 51, 127
5, 110740, Note_on_c, 9, 51, 0
5, 110740, Note_on_c, 9, 36, 0
5, 110880, Note_on_c, 9, 38, 124
5, 110880, Note_on_c, 9, 51, 106
5, 110980, Note_on_c, 9, 51, 0
5, 110980, Note_on_c, 9, 38, 0
5, 111120, Note_on_c, 9, 51, 127
5, 111220, Note_on_c, 9, 51, 0
5, 111240, Note_on_c, 9, 36, 65
5, 111340, Note_on_c, 9, 36, 0
5, 111360, Note_on_c, 9, 36, 83
5, 111360, Note_on_c, 9, 51, 83
5, 111460, Note_on_c, 9, 51, 0
5, 111460, Note_on_c, 9, 36, 0
5, 111600, Note_on_c, 9, 51, 121
5, 111700, Note_on_c, 9, 51, 0
5, 111840, Note_on_c, 9, 38, 127
5, 111840, Note_on_c, 9, 51, 127
5, 111940, Note_on_c, 9, 51, 0
5, 111940, Note_on_c, 9, 38, 0
5, 112080, Note_on_c, 9, 51, 98
5, 112180, Note_on_c, 9, 51, 0
5, 112320, Note_on_c, 9, 51, 127
5, 112420, Note_on_c, 9, 51, 0
5, 112440, Note_on_c, 9, 51, 92
5, 112540, Note_on_c, 9, 51, 0
5, 112560, Note_on_c, 9, 36, 73
5, 112560, Note_on_c, 9, 53, 127
5, 112660, Note_on_c, 9, 53, 0
5, 112660, Note_on_c, 9, 36, 0
5, 112800, Note_on_c, 9, 38, 116
5, 112800, Note_on_c, 9, 51, 105
5, 112900, Note_on_c, 9, 51, 0
5, 112900, Note_on_c, 9, 38, 0
5, 112920, Note_on_c, 9, 53, 77
5, 113020, Note_on_c, 9, 53, 0
5, 113040, Note_on_c, 9, 36, 70
5, 113140, Note_on_c, 9, 36, 0
5, 113280, Note_on_c, 9, 36, 82
5, 113280, Note_on_c, 9, 51, 100
5, 113380, Note_on_c, 9, 51, 0
5, 113380, Note_on_c, 9, 36, 0
5, 113520, Note_on_c, 9, 51, 85
5, 113620, Note_on_c, 9, 51, 0
5, 113760, Note_on_c, 9, 38, 127
5, 113760, Note_on_c, 9, 51, 118
5, 113860, Note_on_c, 9, 51, 0
5, 113860, Note_on_c, 9, 38, 0
5, 114000, Note_on_c, 9, 51, 127
5, 114100, Note_on_c, 9, 51, 0
5, 114240, Note_on_c, 9, 51, 121
5, 114340, Note_on_c, 9, 51, 0
5, 114480, Note_on_c, 9, 36, 73
5, 114480, Note_on_c, 9, 51, 119
5, 114580, Note_on_c, 9, 51, 0
5, 114580, Note_on_c, 9, 36, 0
5, 114720, Note_on_c, 9, 38, 127
5, 114720, Note_on_c, 9, 51, 127
5, 114820, Note_on_c, 9, 51, 0
5, 114820, Note_on_c, 9, 38, 0
5, 114960, Note_on_c, 9, 51, 127
5, 115060, Note_on_c, 9, 51, 0
5, 115080, Note_on_c, 9, 36, 68
5, 115080, Note_on_c, 9, 51, 70
5, 115180, Note_on_c, 9, 51, 0
5, 115180, Note_on_c, 9, 36, 0
5, 115200, Note_on_c, 9, 36, 86
5, 115200, Note_on_c, 9, 51, 127
5, 115300, Note_on_c, 9, 51, 0
5, 115300, Note_on_c, 9, 36, 0
5, 115440, Note_on_c, 9, 51, 113
5, 115540, Note_on_c, 9, 51, 0
5, 115680, Note_on_c, 9, 38, 106
5, 115680, Note_on_c, 9, 51, 127
5, 115780, Note_on_c, 9, 51, 0
5, 115780, Note_on_c, 9, 38, 0
5, 115920, Note_on_c, 9, 51, 127
5, 116020, Note_on_c, 9, 51, 0
5, 116160, Note_on_c, 9, 51, 80
5, 116260, Note_on_c, 9, 51, 0
5, 116280, Note_on_c, 9, 36, 70
5, 116280, Note_on_c, 9, 51, 108
5, 116380, Note_on_c, 9, 51, 0
5, 116380, Note_on_c, 9, 36, 0
5, 116400, Note_on_c, 9, 36, 95
5, 116400, Note_on_c, 9, 51, 122
5, 116500, Note_on_c, 9, 51, 0
5, 116500, Note_on_c, 9, 36, 0
5, 116640, Note_on_c, 9, 38, 114
5, 116640, Note_on_c, 9, 51, 127
5, 116740, Note_on_c, 9, 51, 0
5, 116740, Note_on_c, 9, 38, 0
5, 116760, Note_on_c, 9, 36, 57
5, 116760, Note_on_c, 9, 51, 70
5, 116860, Note_on_c, 9, 51, 0
5, 116860, Note_on_c, 9, 36, 0
5, 116880, Note_on_c, 9, 36, 80
5, 116880, Note_on_c, 9, 51, 127
5, 116980, Note_on_c, 9, 51, 0
5, 116980, Note_on_c, 9, 36, 0
5, 117120, Note_on_c, 9, 36, 82
5, 117120, Note_on_c, 9, 51, 100
5, 117220, Note_on_c, 9, 51, 0
5, 117220, Note_on_c, 9, 36, 0
5, 117360, Note_on_c, 9, 51, 85
5, 117460, Note_on_c, 9, 51, 0
5, 117600, Note_on_c, 9, 38, 127
5, 117600, Note_on_c, 9, 51, 118
5, 117700, Note_on_c, 9, 51, 0
5, 117700, Note_on_c, 9, 38, 0
5, 117840, Note_on_c, 9, 51, 127
5, 117940, Note_on_c, 9, 51, 0
5, 118080, Note_on_c, 9, 51, 121
5, 118180, Note_on_c, 9, 51, 0
5, 118320, Note_on_c, 9, 36, 73
5, 118320, Note_on_c, 9, 51, 119
5, 118420, Note_on_c, 9, 51, 0
5, 118420, Note_on_c, 9, 36, 0
5, 118560, Note_on_c, 9, 38, 127
5, 118560, Note_on_c, 9, 51, 127
5, 118660, Note_on_c, 9, 51, 0
5, 118660, Note_on_c, 9, 38, 0
5, 118800, Note_on_c, 9, 51, 127
5, 118900, Note_on_c, 9, 51, 0
5, 118920, Note_on_c, 9, 36, 68
5, 118920, Note_on_c, 9, 51, 70
5, 119020, Note_on_c, 9, 51, 0
5, 119020, Note_on_c, 9, 36, 0
5, 119040, Note_on_c, 9, 36, 86
5, 119040, Note_on_c, 9, 51, 127
5, 119140, Note_on_c, 9, 51, 0
5, 119140, Note_on_c, 9, 36, 0
5, 119280, Note_on_c, 9, 51, 113
5, 119380, Note_on_c, 9, 51, 0
5, 119520, Note_on_c, 9, 38, 106
5, 119520, Note_on_c, 9, 51, 127
5, 119620, Note_on_c, 9, 51, 0
5, 119620, Note_on_c, 9, 38, 0
5, 119760, Note_on_c, 9, 51, 127
5, 119860, Note_on_c, 9, 51, 0
5, 120000, Note_on_c, 9, 51, 80
5, 120100, Note_on_c, 9, 51, 0
5, 120120, Note_on_c, 9, 36, 70
5, 120120, Note_on_c, 9, 51, 108
5, 120220, Note_on_c, 9, 51, 0
5, 120220, Note_on_c, 9, 36, 0
5, 120240, Note_on_c, 9, 36, 95
5, 120240, Note_on_c, 9, 51, 122
5, 120340, Note_on_c, 9, 51, 0
5, 120340, Note_on_c, 9, 36, 0
5, 120480, Note_on_c, 9, 38, 114
5, 120480, Note_on_c, 9, 51, 127
5, 120580, Note_on_c, 9, 51, 0
5, 120580, Note_on_c, 9, 38, 0
5, 120600, Note_on_c, 9, 36, 57
5, 120600, Note_on_c, 9, 51, 70
5, 120700, Note_on_c, 9, 51, 0
5, 120700, Note_on_c, 9, 36, 0
5, 120720, Note_on_c, 9, 36, 80
5, 120720, Note_on_c, 9, 51, 127
5, 120820, Note_on_c, 9, 51, 0
5, 120820, Note_on_c, 9, 36, 0
5, 120960, Note_on_c, 9, 36, 82
5, 120960, Note_on_c, 9, 51, 100
5, 121060, Note_on_c, 9, 51, 0
5, 121060, Note_on_c, 9, 36, 0
5, 121200, Note_on_c, 9, 51, 85
5, 121300, Note_on_c, 9, 51, 0
5, 121440, Note_on_c, 9, 38, 127
5, 121440, Note_on_c, 9, 51, 118
5, 121540, Note_on_c, 9, 51, 0
5, 121540, Note_on_c, 9, 38, 0
5, 121680, Note_on_c, 9, 51, 127
5, 121780, Note_on_c, 9, 51, 0
5, 121920, Note_on_c, 9, 51, 121
5, 122020, Note_on_c, 9, 51, 0
5, 122160, Note_on_c, 9, 36, 73
5, 122160, Note_on_c, 9, 51, 119
5, 122260, Note_on_c, 9, 51, 0
5, 122260, Note_on_c, 9, 36, 0
5, 122400, Note_on_c, 9, 38, 127
5, 122400, Note_on_c, 9, 51, 127
5, 122500, Note_on_c, 9, 51, 0
5, 122500, Note_on_c, 9, 38, 0
5, 122640, Note_on_c, 9, 51, 127
5, 122740, Note_on_c, 9, 51, 0
5, 122760, Note_on_c, 9, 36, 68
5, 122760, Note_on_c, 9, 51, 70
5, 122860, Note_on_c, 9, 51, 0
5, 122860, Note_on_c, 9, 36, 0
5, 122880, Note_on_c, 9, 36, 102
5, 122880, Note_on_c, 9, 51, 106
5, 122980, Note_on_c, 9, 51, 0
5, 122980, Note_on_c, 9, 36, 0
5, 123120, Note_on_c, 9, 51, 82
5, 123220, Note_on_c, 9, 51, 0
5, 123360, Note_on_c, 9, 38, 127
5, 123360, Note_on_c, 9, 51, 113
5, 123460, Note_on_c, 9, 51, 0
5, 123460, Note_on_c, 9, 38, 0
5, 123600, Note_on_c, 9, 51, 95
5, 123700, Note_on_c, 9, 51, 0
5, 123840, Note_on_c, 9, 51, 116
5, 123940, Note_on_c, 9, 51, 0
5, 124080, Note_on_c, 9, 36, 89
5, 124080, Note_on_c, 9, 51, 126
5, 124180, Note_on_c, 9, 51, 0
5, 124180, Note_on_c, 9, 36, 0
5, 124320, Note_on_c, 9, 38, 127
5, 124320, Note_on_c, 9, 51, 126
5, 124420, Note_on_c, 9, 51, 0
5, 124420, Note_on_c, 9, 38, 0
5, 124560, Note_on_c, 9, 51, 118
5, 124660, Note_on_c, 9, 51, 0
5, 124680, Note_on_c, 9, 36, 65
5, 124780, Note_on_c, 9, 36, 0
5, 124800, Note_on_c, 9, 36, 86
5, 124800, Note_on_c, 9, 51, 127
5, 124900, Note_on_c, 9, 51, 0
5, 124900, Note_on_c, 9, 36, 0
5, 125040, Note_on_c, 9, 51, 113
5, 125140, Note_on_c, 9, 51, 0
5, 125280, Note_on_c, 9, 38, 106
5, 125280, Note_on_c, 9, 51, 127
5, 125380, Note_on_c, 9, 51, 0
5, 125380, Note_on_c, 9, 38, 0
5, 125520, Note_on_c, 9, 51, 127
5, 125620, Note_on_c, 9, 51, 0
5, 125760, Note_on_c, 9, 51, 80
5, 125860, Note_on_c, 9, 51, 0
5, 125880, Note_on_c, 9, 36, 70
5, 125880, Note_on_c, 9, 51, 108
5, 125980, Note_on_c, 9, 51, 0
5, 125980, Note_on_c, 9, 36, 0
5, 126000, Note_on_c, 9, 36, 95
5, 126000, Note_on_c, 9, 51, 122
5, 126100, Note_on_c, 9, 51, 0
5, 126100, Note_on_c, 9, 36, 0
5, 126240, Note_on_c, 9, 38, 114
5, 126240, Note_on_c, 9, 51, 127
5, 126340, Note_on_c, 9, 51, 0
5, 126340, Note_on_c, 9, 38, 0
5, 126360, Note_on_c, 9, 36, 57
5, 126360, Note_on_c, 9, 51, 70
5, 126460, Note_on_c, 9, 51, 0
5, 126460, Note_on_c, 9, 36, 0
5, 126480, Note_on_c, 9, 36, 80
5, 126480, Note_on_c, 9, 51, 127
5, 126580, Note_on_c, 9, 51, 0
5, 126580, Note_on_c, 9, 36, 0
5, 126720, Note_on_c, 9, 36, 83
5, 126720, Note_on_c, 9, 51, 83
5, 126820, Note_on_c, 9, 51, 0
5, 126820, Note_on_c, 9, 36, 0
5, 126960, Note_on_c, 9, 51, 121
5, 127060, Note_on_c, 9, 51, 0
5, 127200, Note_on_c, 9, 38, 127
5, 127200, Note_on_c, 9, 51, 127
5, 127300, Note_on_c, 9, 51, 0
5, 127300, Note_on_c, 9, 38, 0
5, 127440, Note_on_c, 9, 51, 98
5, 127540, Note_on_c, 9, 51, 0
5, 127680, Note_on_c, 9, 51, 127
5, 127780, Note_on_c, 9, 51, 0
5, 127800, Note_on_c, 9, 51, 92
5, 127900, Note_on_c, 9, 51, 0
5, 127920, Note_on_c, 9, 36, 73
5, 127920, Note_on_c, 9, 53, 127
5, 128020, Note_on_c, 9, 53, 0
5, 128020, Note_on_c, 9, 36, 0
5, 128160, Note_on_c, 9, 38, 116
5, 128160, Note_on_c, 9, 51, 105
5, 128260, Note_on_c, 9, 51, 0
5, 128260, Note_on_c, 9, 38, 0
5, 128280, Note_on_c, 9, 53, 77
5, 128380, Note_on_c, 9, 53, 0
5, 128400, Note_on_c, 9, 36, 70
5, 128500, Note_on_c, 9, 36, 0
5, 128640, Note_on_c, 9, 36, 102
5, 128640, Note_on_c, 9, 51, 106
5, 128740, Note_on_c, 9, 51, 0
5, 128740, Note_on_c, 9, 36, 0
5, 128880, Note_on_c, 9, 51, 82
5, 128980, Note_on_c, 9, 51, 0
5, 129120, Note_on_c, 9, 38, 127
5, 129120, Note_on_c, 9, 51, 113
5, 129220, Note_on_c, 9, 51, 0
5, 129220, Note_on_c, 9, 38, 0
5, 129360, Note_on_c, 9, 51, 95
5, 129460, Note_on_c, 9, 51, 0
5, 129600, Note_on_c, 9, 51, 116
5, 129700, Note_on_c, 9, 51, 0
5, 129840, Note_on_c, 9, 36, 89
5, 129840, Note_on_c, 9, 51, 126
5, 129940, Note_on_c, 9, 51, 0
5, 129940, Note_on_c, 9, 36, 0
5, 130080, Note_on_c, 9, 38, 127
5, 130080, Note_on_c, 9, 51, 126
5, 130180, Note_on_c, 9, 51, 0
5, 130180, Note_on_c, 9, 38, 0
5, 130320, Note_on_c, 9, 51, 118
5, 130420, Note_on_c, 9, 51, 0
5, 130440, Note_on_c, 9, 36, 65
5, 130540, Note_on_c, 9, 36, 0
5, 130560, Note_on_c, 9, 36, 92
5, 130560, Note_on_c, 9, 49, 66
5, 130560, Note_on_c, 9, 51, 98
5, 130660, Note_on_c, 9, 51, 0
5, 130660, Note_on_c, 9, 49, 0
5, 130660, Note_on_c, 9, 36, 0
5, 130800, Note_on_c, 9, 51, 98
5, 130900, Note_on_c, 9, 51, 0
5, 131040, Note_on_c, 9, 38, 127
5, 131040, Note_on_c, 9, 51, 124
5, 131140, Note_on_c, 9, 51, 0
5, 131140, Note_on_c, 9, 38, 0
5, 131280, Note_on_c, 9, 51, 114
5, 131380, Note_on_c, 9, 51, 0
5, 131520, Note_on_c, 9, 51, 103
5, 131620, Note_on_c, 9, 51, 0
5, 131760, Note_on_c, 9, 51, 127
5, 131860, Note_on_c, 9, 51, 0
5, 131880, Note_on_c, 9, 36, 86
5, 131980, Note_on_c, 9, 36, 0
5, 132000, Note_on_c, 9, 38, 127
5, 132000, Note_on_c, 9, 51, 127
5, 132100, Note_on_c, 9, 51, 0
5, 132100, Note_on_c, 9, 38, 0
5, 132240, Note_on_c, 9, 51, 90
5, 132340, Note_on_c, 9, 51, 0
5, 132360, Note_on_c, 9, 36, 70
5, 132360, Note_on_c, 9, 51, 70
5, 132460, Note_on_c, 9, 51, 0
5, 132460, Note_on_c, 9, 36, 0
5, 132480, Note_on_c, 9, 36, 102
5, 132480, Note_on_c, 9, 51, 106
5, 132580, Note_on_c, 9, 51, 0
5, 132580, Note_on_c, 9, 36, 0
5, 132720, Note_on_c, 9, 51, 82
5, 132820, Note_on_c, 9, 51, 0
5, 132960, Note_on_c, 9, 38, 127
5, 132960, Note_on_c, 9, 51, 113
5, 133060, Note_on_c, 9, 51, 0
5, 133060, Note_on_c, 9, 38, 0
5, 133200, Note_on_c, 9, 51, 95
5, 133300, Note_on_c, 9, 51, 0
5, 133440, Note_on_c, 9, 51, 116
5, 133540, Note_on_c, 9, 51, 0
5, 133680, Note_on_c, 9, 36, 89
5, 133680, Note_on_c, 9, 51, 126
5, 133780, Note_on_c, 9, 51, 0
5, 133780, Note_on_c, 9, 36, 0
5, 133920, Note_on_c, 9, 38, 127
5, 133920, Note_on_c, 9, 51, 126
5, 134020, Note_on_c, 9, 51, 0
5, 134020, Note_on_c, 9, 38, 0
5, 134160, Note_on_c, 9, 51, 118
5, 134260, Note_on_c, 9, 51, 0
5, 134280, Note_on_c, 9, 36, 65
5, 134380, Note_on_c, 9, 36, 0
5, 134400, Note_on_c, 9, 36, 82
5, 134400, Note_on_c, 9, 51, 90
5, 134500, Note_on_c, 9, 51, 0
5, 134500, Note_on_c, 9, 36, 0
5, 134640, Note_on_c, 9, 51, 80
5, 134740, Note_on_c, 9, 51, 0
5, 134880, Note_on_c, 9, 38, 119
5, 134880, Note_on_c, 9, 51, 92
5, 134980, Note_on_c, 9, 51, 0
5, 134980, Note_on_c, 9, 38, 0
5, 135120, Note_on_c, 9, 51, 72
5, 135220, Note_on_c, 9, 51, 0
5, 135360, Note_on_c, 9, 51, 100
5, 135460, Note_on_c, 9, 51, 0
5, 135600, Note_on_c, 9, 36, 95
5, 135600, Note_on_c, 9, 51, 127
5, 135700, Note_on_c, 9, 51, 0
5, 135700, Note_on_c, 9, 36, 0
5, 135840, Note_on_c, 9, 38, 124
5, 135840, Note_on_c, 9, 51, 106
5, 135940, Note_on_c, 9, 51, 0
5, 135940, Note_on_c, 9, 38, 0
5, 136080, Note_on_c, 9, 51, 127
5, 136180, Note_on_c, 9, 51, 0
5, 136200, Note_on_c, 9, 36, 65
5, 136300, Note_on_c, 9, 36, 0
5, 136320, Note_on_c, 9, 36, 102
5, 136320, Note_on_c, 9, 51, 106
5, 136420, Note_on_c, 9, 51, 0
5, 136420, Note_on_c, 9, 36, 0
5, 136560, Note_on_c, 9, 51, 108
5, 136660, Note_on_c, 9, 51, 0
5, 136800, Note_on_c, 9, 38, 109
5, 136800, Note_on_c, 9, 51, 127
5, 136900, Note_on_c, 9, 51, 0
5, 136900, Note_on_c, 9, 38, 0
5, 137040, Note_on_c, 9, 51, 127
5, 137140, Note_on_c, 9, 51, 0
5, 137280, Note_on_c, 9, 51, 127
5, 137380, Note_on_c, 9, 51, 0
5, 137400, Note_on_c, 9, 36, 58
5, 137400, Note_on_c, 9, 51, 80
5, 137500, Note_on_c, 9, 51, 0
5, 137500, Note_on_c, 9, 36, 0
5, 137520, Note_on_c, 9, 36, 96
5, 137520, Note_on_c, 9, 51, 127
5, 137620, Note_on_c, 9, 51, 0
5, 137620, Note_on_c, 9, 36, 0
5, 137760, Note_on_c, 9, 38, 113
5, 137760, Note_on_c, 9, 51, 98
5, 137860, Note_on_c, 9, 51, 0
5, 137860, Note_on_c, 9, 38, 0
5, 138000, Note_on_c, 9, 51, 127
5, 138100, Note_on_c, 9, 51, 0
5, 138120, Note_on_c, 9, 51, 80
5, 138220, Note_on_c, 9, 51, 0
5, 138240, Note_on_c, 9, 36, 102
5, 138240, Note_on_c, 9, 51, 106
5, 138340, Note_on_c, 9, 51, 0
5, 138340, Note_on_c, 9, 36, 0
5, 138480, Note_on_c, 9, 51, 108
5, 138580, Note_on_c, 9, 51, 0
5, 138720, Note_on_c, 9, 38, 109
5, 138720, Note_on_c, 9, 51, 127
5, 138820, Note_on_c, 9, 51, 0
5, 138820, Note_on_c, 9, 38, 0
5, 138960, Note_on_c, 9, 51, 127
5, 139060, Note_on_c, 9, 51, 0
5, 139200, Note_on_c, 9, 51, 127
5, 139300, Note_on_c, 9, 51, 0
5, 139320, Note_on_c, 9, 36, 58
5, 139320, Note_on_c, 9, 51, 80
5, 139420, Note_on_c, 9, 51, 0
5, 139420, Note_on_c, 9, 36, 0
5, 139440, Note_on_c, 9, 36, 96
5, 139440, Note_on_c, 9, 51, 127
5, 139540, Note_on_c, 9, 51, 0
5, 139540, Note_on_c, 9, 36, 0
5, 139680, Note_on_c, 9, 38, 113
5, 139680, Note_on_c, 9, 51, 98
5, 139780, Note_on_c, 9, 51, 0
5, 139780, Note_on_c, 9, 38, 0
5, 139920, Note_on_c, 9, 51, 127
5, 140020, Note_on_c, 9, 51, 0
5, 140040, Note_on_c, 9, 51, 80
5, 140140, Note_on_c, 9, 51, 0
5, 140160, Note_on_c, 9, 36, 102
5, 140160, Note_on_c, 9, 51, 106
5, 140260, Note_on_c, 9, 51, 0
5, 140260, Note_on_c, 9, 36, 0
5, 140400, Note_on_c, 9, 51, 108
5, 140500, Note_on_c, 9, 51, 0
5, 140640, Note_on_c, 9, 38, 109
5, 140640, Note_on_c, 9, 51, 127
5, 140740, Note_on_c, 9, 51, 0
5, 140740, Note_on_c, 9, 38, 0
5, 140880, Note_on_c, 9, 51, 127
5, 140980, Note_on_c, 9, 51, 0
5, 141120, Note_on_c, 9, 51, 127
5, 141220, Note_on_c, 9, 51, 0
5, 141240, Note_on_c, 9, 36, 58
5, 141240, Note_on_c, 9, 51, 80
5, 141340, Note_on_c, 9, 51, 0
5, 141340, Note_on_c, 9, 36, 0
5, 141360, Note_on_c, 9, 36, 96
5, 141360, Note_on_c, 9, 51, 127
5, 141460, Note_on_c, 9, 51, 0
5, 141460, Note_on_c, 9, 36, 0
5, 141600, Note_on_c, 9, 38, 113
5, 141600, Note_on_c, 9, 51, 98
5, 141700, Note_on_c, 9, 51, 0
5, 141700, Note_on_c, 9, 38, 0
5, 141840, Note_on_c, 9, 51, 127
5, 141940, Note_on_c, 9, 51, 0
5, 141960, Note_on_c, 9, 51, 80
5, 142060, Note_on_c, 9, 51, 0
5, 142080, Note_on_c, 9, 36, 82
5, 142080, Note_on_c, 9, 51, 90
5, 142180, Note_on_c, 9, 51, 0
5, 142180, Note_on_c, 9, 36, 0
5, 142320, Note_on_c, 9, 51, 80
5, 142420, Note_on_c, 9, 51, 0
5, 142560, Note_on_c, 9, 38, 119
5, 142560, Note_on_c, 9, 51, 92
5, 142660, Note_on_c, 9, 51, 0
5, 142660, Note_on_c, 9, 38, 0
5, 142800, Note_on_c, 9, 51, 72
5, 142900, Note_on_c, 9, 51, 0
5, 143040, Note_on_c, 9, 51, 100
5, 143140, Note_on_c, 9, 51, 0
5, 143280, Note_on_c, 9, 36, 95
5, 143280, Note_on_c, 9, 51, 127
5, 143380, Note_on_c, 9, 51, 0
5, 143380, Note_on_c, 9, 36, 0
5, 143520, Note_on_c, 9, 38, 124
5, 143520, Note_on_c, 9, 51, 106
5, 143620, Note_on_c, 9, 51, 0
5, 143620, Note_on_c, 9, 38, 0
5, 143760, Note_on_c, 9, 51, 127
5, 143860, Note_on_c, 9, 51, 0
5, 143880, Note_on_c, 9, 36, 65
5, 143980, Note_on_c, 9, 36, 0
5, 144000, Note_on_c, 9, 36, 82
5, 144000, Note_on_c, 9, 51, 100
5, 144100, Note_on_c, 9, 51, 0
5, 144100, Note_on_c, 9, 36, 0
5, 144240, Note_on_c, 9, 51, 85
5, 144340, Note_on_c, 9, 51, 0
5, 144480, Note_on_c, 9, 38, 127
5, 144480, Note_on_c, 9, 51, 118
5, 144580, Note_on_c, 9, 51, 0
5, 144580, Note_on_c, 9, 38, 0
5, 144720, Note_on_c, 9, 51, 127
5, 144820, Note_on_c, 9, 51, 0
5, 144960, Note_on_c, 9, 51, 121
5, 145060, Note_on_c, 9, 51, 0
5, 145200, Note_on_c, 9, 36, 73
5, 145200, Note_on_c, 9, 51, 119
5, 145300, Note_on_c, 9, 51, 0
5, 145300, Note_on_c, 9, 36, 0
5, 145440, Note_on_c, 9, 38, 127
5, 145440, Note_on_c, 9, 51, 127
5, 145540, Note_on_c, 9, 51, 0
5, 145540, Note_on_c, 9, 38, 0
5, 145680, Note_on_c, 9, 51, 127
5, 145780, Note_on_c, 9, 51, 0
5, 145800, Note_on_c, 9, 36, 68
5, 145800, Note_on_c, 9, 51, 70
5, 145900, Note_on_c, 9, 51, 0
5, 145900, Note_on_c, 9, 36, 0
5, 145920, Note_on_c, 9, 36, 82
5, 145920, Note_on_c, 9, 51, 100
5, 146020, Note_on_c, 9, 51, 0
5, 146020, Note_on_c, 9, 36, 0
5, 146160, Note_on_c, 9, 51, 85
5, 146260, Note_on_c, 9, 51, 0
5, 146400, Note_on_c, 9, 38, 127
5, 146400, Note_on_c, 9, 51, 118
5, 146500, Note_on_c, 9, 51, 0
5, 146500, Note_on_c, 9, 38, 0
5, 146640, Note_on_c, 9, 51, 127
5, 146740, Note_on_c, 9, 51, 0
5, 146880, Note_on_c, 9, 51, 121
5, 146980, Note_on_c, 9, 51, 0
5, 147120, Note_on_c, 9, 36, 73
5, 147120, Note_on_c, 9, 51, 119
5, 147220, Note_on_c, 9, 51, 0
5, 147220, Note_on_c, 9, 36, 0
5, 147360, Note_on_c, 9, 38, 127
5, 147360, Note_on_c, 9, 51, 127
5, 147460, Note_on_c, 9, 51, 0
5, 147460, Note_on_c, 9, 38, 0
5, 147600, Note_on_c, 9, 51, 127
5, 147700, Note_on_c, 9, 51, 0
5, 147720, Note_on_c, 9, 36, 68
5, 147720, Note_on_c, 9, 51, 70
5, 147820, Note_on_c, 9, 51, 0
5, 147820, Note_on_c, 9, 36, 0
5, 147840, Note_on_c, 9, 36, 96
5, 147840, Note_on_c, 9, 51, 127
5, 147940, Note_on_c, 9, 51, 0
5, 147940, Note_on_c, 9, 36, 0
5, 148080, Note_on_c, 9, 51, 113
5, 148180, Note_on_c, 9, 51, 0
5, 148320, Note_on_c, 9, 38, 127
5, 148320, Note_on_c, 9, 51, 127
5, 148420, Note_on_c, 9, 51, 0
5, 148420, Note_on_c, 9, 38, 0
5, 148560, Note_on_c, 9, 51, 79
5, 148660, Note_on_c, 9, 51, 0
5, 148680, Note_on_c, 9, 51, 78
5, 148780, Note_on_c, 9, 51, 0
5, 148800, Note_on_c, 9, 51, 88
5, 148900, Note_on_c, 9, 51, 0
5, 148920, Note_on_c, 9, 38, 127
5, 148920, Note_on_c, 9, 51, 88
5, 149020, Note_on_c, 9, 51, 0
5, 149020, Note_on_c, 9, 38, 0
5, 149040, Note_on_c, 9, 36, 82
5, 149040, Note_on_c, 9, 51, 90
5, 149140, Note_on_c, 9, 51, 0
5, 149140, Note_on_c, 9, 36, 0
5, 149280, Note_on_c, 9, 50, 124
5, 149280, Note_on_c, 9, 51, 116
5, 149380, Note_on_c, 9, 51, 0
5, 149380, Note_on_c, 9, 50, 0
5, 149400, Note_on_c, 9, 51, 70
5, 149500, Note_on_c, 9, 51, 0
5, 149520, Note_on_c, 9, 51, 127
5, 149620, Note_on_c, 9, 51, 0
5, 149640, Note_on_c, 9, 48, 127
5, 149740, Note_on_c, 9, 48, 0
5, 149760, Note_on_c, 9, 36, 102
5, 149760, Note_on_c, 9, 51, 106
5, 149860, Note_on_c, 9, 51, 0
5, 149860, Note_on_c, 9, 36, 0
5, 150000, Note_on_c, 9, 51, 82
5, 150100, Note_on_c, 9, 51, 0
5, 150240, Note_on_c, 9, 38, 127
5, 150240, Note_on_c, 9, 51, 113
5, 150340, Note_on_c, 9, 51, 0
5, 150340, Note_on_c, 9, 38, 0
5, 150480, Note_on_c, 9, 51, 95
5, 150580, Note_on_c, 9, 51, 0
5, 150720, Note_on_c, 9, 51, 116
5, 150820, Note_on_c, 9, 51, 0
5, 150960, Note_on_c, 9, 36, 89
5, 150960, Note_on_c, 9, 51, 126
5, 151060, Note_on_c, 9, 51, 0
5, 151060, Note_on_c, 9, 36, 0
5, 151200, Note_on_c, 9, 38, 127
5, 151200, Note_on_c, 9, 51, 126
5, 151300, Note_on_c, 9, 51, 0
5, 151300, Note_on_c, 9, 38, 0
5, 151440, Note_on_c, 9, 51, 118
5, 151540, Note_on_c, 9, 51, 0
5, 151560, Note_on_c, 9, 36, 65
5, 151660, Note_on_c, 9, 36, 0
5, 151680, Note_on_c, 9, 36, 82
5, 151680, Note_on_c, 9, 51, 93
5, 151780, Note_on_c, 9, 51, 0
5, 151780, Note_on_c, 9, 36, 0
5, 151920, Note_on_c, 9, 51, 127
5, 152020, Note_on_c, 9, 51, 0
5, 152160, Note_on_c, 9, 38, 127
5, 152160, Note_on_c, 9, 51, 127
5, 152260, Note_on_c, 9, 51, 0
5, 152260, Note_on_c, 9, 38, 0
5, 152400, Note_on_c, 9, 51, 118
5, 152500, Note_on_c, 9, 51, 0
5, 152640, Note_on_c, 9, 51, 127
5, 152740, Note_on_c, 9, 51, 0
5, 152880, Note_on_c, 9, 36, 76
5, 152880, Note_on_c, 9, 51, 127
5, 152980, Note_on_c, 9, 51, 0
5, 152980, Note_on_c, 9, 36, 0
5, 153120, Note_on_c, 9, 38, 127
5, 153120, Note_on_c, 9, 51, 127
5, 153220, Note_on_c, 9, 51, 0
5, 153220, Note_on_c, 9, 38, 0
5, 153240, Note_on_c, 9, 36, 65
5, 153240, Note_on_c, 9, 51, 80
5, 153340, Note_on_c, 9, 51, 0
5, 153340, Note_on_c, 9, 36, 0
5, 153360, Note_on_c, 9, 36, 85
5, 153360, Note_on_c, 9, 51, 126
5, 153460, Note_on_c, 9, 51, 0
5, 153460, Note_on_c, 9, 36, 0
5, 153600, Note_on_c, 9, 36, 77
5, 153600, Note_on_c, 9, 49, 61
5, 153600, Note_on_c, 9, 51, 127
5, 153700, Note_on_c, 9, 51, 0
5, 153700, Note_on_c, 9, 49, 0
5, 153700, Note_on_c, 9, 36, 0
5, 153840, Note_on_c, 9, 51, 121
5, 153940, Note_on_c, 9, 51, 0
5, 154080, Note_on_c, 9, 38, 119
5, 154080, Note_on_c, 9, 51, 127
5, 154180, Note_on_c, 9, 51, 0
5, 154180, Note_on_c, 9, 38, 0
5, 154320, Note_on_c, 9, 51, 127
5, 154420, Note_on_c, 9, 51, 0
5, 154560, Note_on_c, 9, 51, 127
5, 154660, Note_on_c, 9, 51, 0
5, 154680, Note_on_c, 9, 36, 65
5, 154780, Note_on_c, 9, 36, 0
5, 154800, Note_on_c, 9, 36, 80
5, 154800, Note_on_c, 9, 51, 108
5, 154900, Note_on_c, 9, 51, 0
5, 154900, Note_on_c, 9, 36, 0
5, 155040, Note_on_c, 9, 38, 127
5, 155040, Note_on_c, 9, 51, 92
5, 155140, Note_on_c, 9, 51, 0
5, 155140, Note_on_c, 9, 38, 0
5, 155280, Note_on_c, 9, 51, 113
5, 155380, Note_on_c, 9, 51, 0
5, 155400, Note_on_c, 9, 36, 63
5, 155500, Note_on_c, 9, 36, 0
5, 155520, Note_on_c, 9, 36, 102
5, 155520, Note_on_c, 9, 51, 106
5, 155620, Note_on_c, 9, 51, 0
5, 155620, Note_on_c, 9, 36, 0
5, 155760, Note_on_c, 9, 51, 82
5, 155860, Note_on_c, 9, 51, 0
5, 156000, Note_on_c, 9, 38, 127
5, 156000, Note_on_c, 9, 51, 113
5, 156100, Note_on_c, 9, 51, 0
5, 156100, Note_on_c, 9, 38, 0
5, 156240, Note_on_c, 9, 51, 95
5, 156340, Note_on_c, 9, 51, 0
5, 156480, Note_on_c, 9, 51, 116
5, 156580, Note_on_c, 9, 51, 0
5, 156720, Note_on_c, 9, 36, 89
5, 156720, Note_on_c, 9, 51, 126
5, 156820, Note_on_c, 9, 51, 0
5, 156820, Note_on_c, 9, 36, 0
5, 156960, Note_on_c, 9, 38, 127
5, 156960, Note_on_c, 9, 51, 126
5, 157060, Note_on_c, 9, 51, 0
5, 157060, Note_on_c, 9, 38, 0
5, 157200, Note_on_c, 9, 51, 118
5, 157300, Note_on_c, 9, 51, 0
5, 157320, Note_on_c, 9, 36, 65
5, 157420, Note_on_c, 9, 36, 0
5, 157440, Note_on_c, 9, 36, 82
5, 157440, Note_on_c, 9, 51, 90
5, 157540, Note_on_c, 9, 51, 0
5, 157540, Note_on_c, 9, 36, 0
5, 157680, Note_on_c, 9, 51, 80
5, 157780, Note_on_c, 9, 51, 0
5, 157920, Note_on_c, 9, 38, 119
5, 157920, Note_on_c, 9, 51, 92
5, 158020, Note_on_c, 9, 51, 0
5, 158020, Note_on_c, 9, 38, 0
5, 158160, Note_on_c, 9, 51, 72
5, 158260, Note_on_c, 9, 51, 0
5, 158400, Note_on_c, 9, 51, 100
5, 158500, Note_on_c, 9, 51, 0
5, 158640, Note_on_c, 9, 36, 95
5, 158640, Note_on_c, 9, 51, 127
5, 158740, Note_on_c, 9, 51, 0
5, 158740, Note_on_c, 9, 36, 0
5, 158880, Note_on_c, 9, 38, 124
5, 158880, Note_on_c, 9, 51, 106
5, 158980, Note_on_c, 9, 51, 0
5, 158980, Note_on_c, 9, 38, 0
5, 159120, Note_on_c, 9, 51, 127
5, 159220, Note_on_c, 9, 51, 0
5, 159240, Note_on_c, 9, 36, 65
5, 159340, Note_on_c, 9, 36, 0
5, 159360, Note_on_c, 9, 36, 82
5, 159360, Note_on_c, 9, 51, 93
5, 159460, Note_on_c, 9, 51, 0
5, 159460, Note_on_c, 9, 36, 0
5, 159600, Note_on_c, 9, 51, 127
5, 159700, Note_on_c, 9, 51, 0
5, 159840, Note_on_c, 9, 38, 127
5, 159840, Note_on_c, 9, 51, 127
5, 159940, Note_on_c, 9, 51, 0
5, 159940, Note_on_c, 9, 38, 0
5, 160080, Note_on_c, 9, 51, 118
5, 160180, Note_on_c, 9, 51, 0
5, 160320, Note_on_c, 9, 51, 127
5, 160420, Note_on_c, 9, 51, 0
5, 160560, Note_on_c, 9, 36, 76
5, 160560, Note_on_c, 9, 51, 127
5, 160660, Note_on_c, 9, 51, 0
5, 160660, Note_on_c, 9, 36, 0
5, 160800, Note_on_c, 9, 38, 127
5, 160800, Note_on_c, 9, 51, 127
5, 160900, Note_on_c, 9, 51, 0
5, 160900, Note_on_c, 9, 38, 0
5, 160920, Note_on_c, 9, 36, 65
5, 160920, Note_on_c, 9, 51, 80
5, 161020, Note_on_c, 9, 51, 0
5, 161020, Note_on_c, 9, 36, 0
5, 161040, Note_on_c, 9, 36, 85
5, 161040, Note_on_c, 9, 51, 126
5, 161140, Note_on_c, 9, 51, 0
5, 161140, Note_on_c, 9, 36, 0
5, 161280, Note_on_c, 9, 36, 102
5, 161280, Note_on_c, 9, 51, 106
5, 161380, Note_on_c, 9, 51, 0
5, 161380, Note_on_c, 9, 36, 0
5, 161520, Note_on_c, 9, 51, 108
5, 161620, Note_on_c, 9, 51, 0
5, 161760, Note_on_c, 9, 38, 109
5, 161760, Note_on_c, 9, 51, 127
5, 161860, Note_on_c, 9, 51, 0
5, 161860, Note_on_c, 9, 38, 0
5, 162000, Note_on_c, 9, 51, 127
5, 162100, Note_on_c, 9, 51, 0
5, 162240, Note_on_c, 9, 51, 127
5, 162340, Note_on_c, 9, 51, 0
5, 162360, Note_on_c, 9, 36, 58
5, 162360, Note_on_c, 9, 51, 80
5, 162460, Note_on_c, 9, 51, 0
5, 162460, Note_on_c, 9, 36, 0
5, 162480, Note_on_c, 9, 36, 96
5, 162480, Note_on_c, 9, 51, 127
5, 162580, Note_on_c, 9, 51, 0
5, 162580, Note_on_c, 9, 36, 0
5, 162720, Note_on_c, 9, 38, 113
5, 162720, Note_on_c, 9, 51, 98
5, 162820, Note_on_c, 9, 51, 0
5, 162820, Note_on_c, 9, 38, 0
5, 162960, Note_on_c, 9, 51, 127
5, 163060, Note_on_c, 9, 51, 0
5, 163080, Note_on_c, 9, 51, 80
5, 163180, Note_on_c, 9, 51, 0
5, 163200, Note_on_c, 9, 36, 102
5, 163200, Note_on_c, 9, 51, 106
5, 163300, Note_on_c, 9, 51, 0
5, 163300, Note_on_c, 9, 36, 0
5, 163440, Note_on_c, 9, 51, 108
5, 163540, Note_on_c, 9, 51, 0
5, 163680, Note_on_c, 9, 38, 109
5, 163680, Note_on_c, 9, 51, 127
5, 163780, Note_on_c, 9, 51, 0
5, 163780, Note_on_c, 9, 38, 0
5, 163920, Note_on_c, 9, 51, 127
5, 164020, Note_on_c, 9, 51, 0
5, 164160, Note_on_c, 9, 51, 127
5, 164260, Note_on_c, 9, 51, 0
5, 164280, Note_on_c, 9, 36, 58
5, 164280, Note_on_c, 9, 51, 80
5, 164380, Note_on_c, 9, 51, 0
5, 164380, Note_on_c, 9, 36, 0
5, 164400, Note_on_c, 9, 36, 96
5, 164400, Note_on_c, 9, 51, 127
5, 164500, Note_on_c, 9, 51, 0
5, 164500, Note_on_c, 9, 36, 0
5, 164640, Note_on_c, 9, 38, 113
5, 164640, Note_on_c, 9, 51, 98
5, 164740, Note_on_c, 9, 51, 0
5, 164740, Note_on_c, 9, 38, 0
5, 164880, Note_on_c, 9, 51, 127
5, 164980, Note_on_c, 9, 51, 0
5, 165000, Note_on_c, 9, 51, 80
5, 165100, Note_on_c, 9, 51, 0
5, 165120, Note_on_c, 9, 36, 86
5, 165120, Note_on_c, 9, 51, 127
5, 165220, Note_on_c, 9, 51, 0
5, 165220, Note_on_c, 9, 36, 0
5, 165360, Note_on_c, 9, 51, 113
5, 165460, Note_on_c, 9, 51, 0
5, 165600, Note_on_c, 9, 38, 106
5, 165600, Note_on_c, 9, 51, 127
5, 165700, Note_on_c, 9, 51, 0
5, 165700, Note_on_c, 9, 38, 0
5, 165840, Note_on_c, 9, 51, 127
5, 165940, Note_on_c, 9, 51, 0
5, 166080, Note_on_c, 9, 51, 80
5, 166180, Note_on_c, 9, 51, 0
5, 166200, Note_on_c, 9, 36, 70
5, 166200, Note_on_c, 9, 51, 108
5, 166300, Note_on_c, 9, 51, 0
5, 166300, Note_on_c, 9, 36, 0
5, 166320, Note_on_c, 9, 36, 95
5, 166320, Note_on_c, 9, 51, 122
5, 166420, Note_on_c, 9, 51, 0
5, 166420, Note_on_c, 9, 36, 0
5, 166560, Note_on_c, 9, 38, 114
5, 166560, Note_on_c, 9, 51, 127
5, 166660, Note_on_c, 9, 51, 0
5, 166660, Note_on_c, 9, 38, 0
5, 166680, Note_on_c, 9, 36, 57
5, 166680, Note_on_c, 9, 51, 70
5, 166780, Note_on_c, 9, 51, 0
5, 166780, Note_on_c, 9, 36, 0
5, 166800, Note_on_c, 9, 36, 80
5, 166800, Note_on_c, 9, 51, 127
5, 166900, Note_on_c, 9, 51, 0
5, 166900, Note_on_c, 9, 36, 0
5, 167040, Note_on_c, 9, 36, 86
5, 167040, Note_on_c, 9, 51, 127
5, 167140, Note_on_c, 9, 51, 0
5, 167140, Note_on_c, 9, 36, 0
5, 167280, Note_on_c, 9, 51, 113
5, 167380, Note_on_c, 9, 51, 0
5, 167520, Note_on_c, 9, 38, 106
5, 167520, Note_on_c, 9, 51, 127
5, 167620, Note_on_c, 9, 51, 0
5, 167620, Note_on_c, 9, 38, 0
5, 167760, Note_on_c, 9, 51, 127
5, 167860, Note_on_c, 9, 51, 0
5, 168000, Note_on_c, 9, 51, 80
5, 168100, Note_on_c, 9, 51, 0
5, 168120, Note_on_c, 9, 36, 70
5, 168120, Note_on_c, 9, 51, 108
5, 168220, Note_on_c, 9, 51, 0
5, 168220, Note_on_c, 9, 36, 0
5, 168240, Note_on_c, 9, 36, 95
5, 168240, Note_on_c, 9, 51, 122
5, 168340, Note_on_c, 9, 51, 0
5, 168340, Note_on_c, 9, 36, 0
5, 168480, Note_on_c, 9, 38, 114
5, 168480, Note_on_c, 9, 51, 127
5, 168580, Note_on_c, 9, 51, 0
5, 168580, Note_on_c, 9, 38, 0
5, 168600, Note_on_c, 9, 36, 57
5, 168600, Note_on_c, 9, 51, 70
5, 168700, Note_on_c, 9, 51, 0
5, 168700, Note_on_c, 9, 36, 0
5, 168720, Note_on_c, 9, 36, 80
5, 168720, Note_on_c, 9, 51, 127
5, 168820, Note_on_c, 9, 51, 0
5, 168820, Note_on_c, 9, 36, 0
5, 168960, Note_on_c, 9, 36, 77
5, 168960, Note_on_c, 9, 38, 70
5, 168960, Note_on_c, 9, 49, 80
5, 169060, Note_on_c, 9, 49, 0
5, 169060, Note_on_c, 9, 38, 0
5, 169060, Note_on_c, 9, 36, 0
5, 169200, Note_on_c, 9, 51, 75
5, 169300, Note_on_c, 9, 51, 0
5, 169440, Note_on_c, 9, 38, 127
5, 169440, Note_on_c, 9, 44, 17
5, 169440, Note_on_c, 9, 51, 122
5, 169540, Note_on_c, 9, 51, 0
5, 169540, Note_on_c, 9, 44, 0
5, 169540, Note_on_c, 9, 38, 0
5, 169680, Note_on_c, 9, 51, 90
5, 169780, Note_on_c, 9, 51, 0
5, 169920, Note_on_c, 9, 51, 127
5, 170020, Note_on_c, 9, 51, 0
5, 170160, Note_on_c, 9, 36, 70
5, 170160, Note_on_c, 9, 51, 126
5, 170260, Note_on_c, 9, 51, 0
5, 170260, Note_on_c, 9, 36, 0
5, 170400, Note_on_c, 9, 38, 127
5, 170400, Note_on_c, 9, 51, 101
5, 170500, Note_on_c, 9, 51, 0
5, 170500, Note_on_c, 9, 38, 0
5, 170640, Note_on_c, 9, 51, 124
5, 170740, Note_on_c, 9, 51, 0
5, 170760, Note_on_c, 9, 36, 57
5, 170760, Note_on_c, 9, 51, 60
5, 170860, Note_on_c, 9, 51, 0
5, 170860, Note_on_c, 9, 36, 0
5, 170880, Note_on_c, 9, 36, 86
5, 170880, Note_on_c, 9, 51, 127
5, 170980, Note_on_c, 9, 51, 0
5, 170980, Note_on_c, 9, 36, 0
5, 171120, Note_on_c, 9, 51, 113
5, 171220, Note_on_c, 9, 51, 0
5, 171360, Note_on_c, 9, 38, 106
5, 171360, Note_on_c, 9, 51, 127
5, 171460, Note_on_c, 9, 51, 0
5, 171460, Note_on_c, 9, 38, 0
5, 171600, Note_on_c, 9, 51, 127
5, 171700, Note_on_c, 9, 51, 0
5, 171840, Note_on_c, 9, 51, 80
5, 171940, Note_on_c, 9, 51, 0
5, 171960, Note_on_c, 9, 36, 70
5, 171960, Note_on_c, 9, 51, 108
5, 172060, Note_on_c, 9, 51, 0
5, 172060, Note_on_c, 9, 36, 0
5, 172080, Note_on_c, 9, 36, 95
5, 172080, Note_on_c, 9, 51, 122
5, 172180, Note_on_c, 9, 51, 0
5, 172180, Note_on_c, 9, 36, 0
5, 172320, Note_on_c, 9, 38, 114
5, 172320, Note_on_c, 9, 51, 127
5, 172420, Note_on_c, 9, 51, 0
5, 172420, Note_on_c, 9, 38, 0
5, 172440, Note_on_c, 9, 36, 57
5, 172440, Note_on_c, 9, 51, 70
5, 172540, Note_on_c, 9, 51, 0
5, 172540, Note_on_c, 9, 36, 0
5, 172560, Note_on_c, 9, 36, 80
5, 172560, Note_on_c, 9, 51, 127
5, 172660, Note_on_c, 9, 51, 0
5, 172660, Note_on_c, 9, 36, 0
5, 172800, Note_on_c, 9, 36, 77
5, 172800, Note_on_c, 9, 49, 61
5, 172800, Note_on_c, 9, 51, 127
5, 172900, Note_on_c, 9, 51, 0
5, 172900, Note_on_c, 9, 49, 0
5, 172900, Note_on_c, 9, 36, 0
5, 173040, Note_on_c, 9, 51, 121
5, 173140, Note_on_c, 9, 51, 0
5, 173280, Note_on_c, 9, 38, 119
5, 173280, Note_on_c, 9, 51, 127
5, 173380, Note_on_c, 9, 51, 0
5, 173380, Note_on_c, 9, 38, 0
5, 173520, Note_on_c, 9, 51, 127
5, 173620, Note_on_c, 9, 51, 0
5, 173760, Note_on_c, 9, 51, 127
5, 173860, Note_on_c, 9, 51, 0
5, 173880, Note_on_c, 9, 36, 65
5, 173980, Note_on_c, 9, 36, 0
5, 174000, Note_on_c, 9, 36, 80
5, 174000, Note_on_c, 9, 51, 108
5, 174100, Note_on_c, 9, 51, 0
5, 174100, Note_on_c, 9, 36, 0
5, 174240, Note_on_c, 9, 38, 127
5, 174240, Note_on_c, 9, 51, 92
5, 174340, Note_on_c, 9, 51, 0
5, 174340, Note_on_c, 9, 38, 0
5, 174480, Note_on_c, 9, 51, 113
5, 174580, Note_on_c, 9, 51, 0
5, 174600, Note_on_c, 9, 36, 63
5, 174700, Note_on_c, 9, 36, 0
5, 174720, Note_on_c, 9, 36, 82
5, 174720, Note_on_c, 9, 51, 90
5, 174820, Note_on_c, 9, 51, 0
5, 174820, Note_on_c, 9, 36, 0
5, 174960, Note_on_c, 9, 51, 80
5, 175060, Note_on_c, 9, 51, 0
5, 175200, Note_on_c, 9, 38, 119
5, 175200, Note_on_c, 9, 51, 92
5, 175300, Note_on_c, 9, 51, 0
5, 175300, Note_on_c, 9, 38, 0
5, 175440, Note_on_c, 9, 51, 72
5, 175540, Note_on_c, 9, 51, 0
5, 175680, Note_on_c, 9, 51, 100
5, 175780, Note_on_c, 9, 51, 0
5, 175920, Note_on_c, 9, 36, 95
5, 175920, Note_on_c, 9, 51, 127
5, 176020, Note_on_c, 9, 51, 0
5, 176020, Note_on_c, 9, 36, 0
5, 176160, Note_on_c, 9, 38, 124
5, 176160, Note_on_c, 9, 51, 106
5, 176260, Note_on_c, 9, 51, 0
5, 176260, Note_on_c, 9, 38, 0
5, 176400, Note_on_c, 9, 51, 127
5, 176500, Note_on_c, 9, 51, 0
5, 176520, Note_on_c, 9, 36, 65
5, 176620, Note_on_c, 9, 36, 0
5, 176640, Note_on_c, 9, 36, 86
5, 176640, Note_on_c, 9, 51, 127
5, 176740, Note_on_c, 9, 51, 0
5, 176740, Note_on_c, 9, 36, 0
5, 176880, Note_on_c, 9, 51, 113
5, 176980, Note_on_c, 9, 51, 0
5, 177120, Note_on_c, 9, 38, 106
5, 177120, Note_on_c, 9, 51, 127
5, 177220, Note_on_c, 9, 51, 0
5, 177220, Note_on_c, 9, 38, 0
5, 177360, Note_on_c, 9, 51, 127
5, 177460, Note_on_c, 9, 51, 0
5, 177600, Note_on_c, 9, 51, 80
5, 177700, Note_on_c, 9, 51, 0
5, 177720, Note_on_c, 9, 36, 70
5, 177720, Note_on_c, 9, 51, 108
5, 177820, Note_on_c, 9, 51, 0
5, 177820, Note_on_c, 9, 36, 0
5, 177840, Note_on_c, 9, 36, 95
5, 177840, Note_on_c, 9, 51, 122
5, 177940, Note_on_c, 9, 51, 0
5, 177940, Note_on_c, 9, 36, 0
5, 178080, Note_on_c, 9, 38, 114
5, 178080, Note_on_c, 9, 51, 127
5, 178180, Note_on_c, 9, 51, 0
5, 178180, Note_on_c, 9, 38, 0
5, 178200, Note_on_c, 9, 36, 57
5, 178200, Note_on_c, 9, 51, 70
5, 178300, Note_on_c, 9, 51, 0
5, 178300, Note_on_c, 9, 36, 0
5, 178320, Note_on_c, 9, 36, 80
5, 178320, Note_on_c, 9, 51, 127
5, 178420, Note_on_c, 9, 51, 0
5, 178420, Note_on_c, 9, 36, 0
5, 178560, Note_on_c, 9, 36, 82
5, 178560, Note_on_c, 9, 51, 100
5, 178660, Note_on_c, 9, 51, 0
5, 178660, Note_on_c, 9, 36, 0
5, 178800, Note_on_c, 9, 51, 85
5, 178900, Note_on_c, 9, 51, 0
5, 179040, Note_on_c, 9, 38, 127
5, 179040, Note_on_c, 9, 51, 118
5, 179140, Note_on_c, 9, 51, 0
5, 179140, Note_on_c, 9, 38, 0
5, 179280, Note_on_c, 9, 51, 127
5, 179380, Note_on_c, 9, 51, 0
5, 179520, Note_on_c, 9, 51, 121
5, 179620, Note_on_c, 9, 51, 0
5, 179760, Note_on_c, 9, 36, 73
5, 179760, Note_on_c, 9, 51, 119
5, 179860, Note_on_c, 9, 51, 0
5, 179860, Note_on_c, 9, 36, 0
5, 180000, Note_on_c, 9, 38, 127
5, 180000, Note_on_c, 9, 51, 127
5, 180100, Note_on_c, 9, 51, 0
5, 180100, Note_on_c, 9, 38, 0
5, 180240, Note_on_c, 9, 51, 127
5, 180340, Note_on_c, 9, 51, 0
5, 180360, Note_on_c, 9, 36, 68
5, 180360, Note_on_c, 9, 51, 70
5, 180460, Note_on_c, 9, 51, 0
5, 180460, Note_on_c, 9, 36, 0
5, 180480, Note_on_c, 9, 36, 77
5, 180480, Note_on_c, 9, 38, 70
5, 180480, Note_on_c, 9, 49, 80
5, 180580, Note_on_c, 9, 49, 0
5, 180580, Note_on_c, 9, 38, 0
5, 180580, Note_on_c, 9, 36, 0
5, 180720, Note_on_c, 9, 51, 75
5, 180820, Note_on_c, 9, 51, 0
5, 180960, Note_on_c, 9, 38, 127
5, 180960, Note_on_c, 9, 44, 17
5, 180960, Note_on_c, 9, 51, 122
5, 181060, Note_on_c, 9, 51, 0
5, 181060, Note_on_c, 9, 44, 0
5, 181060, Note_on_c, 9, 38, 0
5, 181200, Note_on_c, 9, 51, 90
5, 181300, Note_on_c, 9, 51, 0
5, 181440, Note_on_c, 9, 51, 127
5, 181540, Note_on_c, 9, 51, 0
5, 181680, Note_on_c, 9, 36, 70
5, 181680, Note_on_c, 9, 51, 126
5, 181780, Note_on_c, 9, 51, 0
5, 181780, Note_on_c, 9, 36, 0
5, 181920, Note_on_c, 9, 38, 127
5, 181920, Note_on_c, 9, 51, 101
5, 182020, Note_on_c, 9, 51, 0
5, 182020, Note_on_c, 9, 38, 0
5, 182160, Note_on_c, 9, 51, 124
5, 182260, Note_on_c, 9, 51, 0
5, 182280, Note_on_c, 9, 36, 57
5, 182280, Note_on_c, 9, 51, 60
5, 182380, Note_on_c, 9, 51, 0
5, 182380, Note_on_c, 9, 36, 0
5, 182400, Note_on_c, 9, 36, 92
5, 182400, Note_on_c, 9, 49, 66
5, 182400, Note_on_c, 9, 51, 98
5, 182500, Note_on_c, 9, 51, 0
5, 182500, Note_on_c, 9, 49, 0
5, 182500, Note_on_c, 9, 36, 0
5, 182640, Note_on_c, 9, 51, 98
5, 182740, Note_on_c, 9, 51, 0
5, 182880, Note_on_c, 9, 38, 127
5, 182880, Note_on_c, 9, 51, 124
5, 182980, Note_on_c, 9, 51, 0
5, 182980, Note_on_c, 9, 38, 0
5, 183120, Note_on_c, 9, 51, 114
5, 183220, Note_on_c, 9, 51, 0
5, 183360, Note_on_c, 9, 51, 103
5, 183460, Note_on_c, 9, 51, 0
5, 183600, Note_on_c, 9, 51, 127
5, 183700, Note_on_c, 9, 51, 0
5, 183720, Note_on_c, 9, 36, 86
5, 183820, Note_on_c, 9, 36, 0
5, 183840, Note_on_c, 9, 38, 127
5, 183840, Note_on_c, 9, 51, 127
5, 183940, Note_on_c, 9, 51, 0
5, 183940, Note_on_c, 9, 38, 0
5, 184080, Note_on_c, 9, 51, 90
5, 184180, Note_on_c, 9, 51, 0
5, 184200, Note_on_c, 9, 36, 70
5, 184200, Note_on_c, 9, 51, 70
5, 184300, Note_on_c, 9, 51, 0
5, 184300, Note_on_c, 9, 36, 0
5, 184320, Note_on_c, 9, 36, 92
5, 184320, Note_on_c, 9, 49, 66
5, 184320, Note_on_c, 9, 51, 98
5, 184420, Note_on_c, 9, 51, 0
5, 184420, Note_on_c, 9, 49, 0
5, 184420, Note_on_c, 9, 36, 0
5, 184560, Note_on_c, 9, 51, 98
5, 184660, Note_on_c, 9, 51, 0
5, 184800, Note_on_c, 9, 38, 127
5, 184800, Note_on_c, 9, 51, 124
5, 184900, Note_on_c, 9, 51, 0
5, 184900, Note_on_c, 9, 38, 0
5, 185040, Note_on_c, 9, 51, 114
5, 185140, Note_on_c, 9, 51, 0
5, 185280, Note_on_c, 9, 51, 103
5, 185380, Note_on_c, 9, 51, 0
5, 185520, Note_on_c, 9, 51, 127
5, 185620, Note_on_c, 9, 51, 0
5, 185640, Note_on_c, 9, 36, 86
5, 185740, Note_on_c, 9, 36, 0
5, 185760, Note_on_c, 9, 38, 127
5, 185760, Note_on_c, 9, 51, 127
5, 185860, Note_on_c, 9, 51, 0
5, 185860, Note_on_c, 9, 38, 0
5, 186000, Note_on_c, 9, 51, 90
5, 186100, Note_on_c, 9, 51, 0
5, 186120, Note_on_c, 9, 36, 70
5, 186120, Note_on_c, 9, 51, 70
5, 186220, Note_on_c, 9, 51, 0
5, 186220, Note_on_c, 9, 36, 0
5, 186240, Note_on_c, 9, 36, 92
5, 186240, Note_on_c, 9, 49, 66
5, 186240, Note_on_c, 9, 51, 98
5, 186340, Note_on_c, 9, 51, 0
5, 186340, Note_on_c, 9, 49, 0
5, 186340, Note_on_c, 9, 36, 0
5, 186480, Note_on_c, 9, 51, 98
5, 186580, Note_on_c, 9, 51, 0
5, 186720, Note_on_c, 9, 38, 127
5, 186720, Note_on_c, 9, 51, 124
5, 186820, Note_on_c, 9, 51, 0
5, 186820, Note_on_c, 9, 38, 0
5, 186960, Note_on_c, 9, 51, 114
5, 187060, Note_on_c, 9, 51, 0
5, 187200, Note_on_c, 9, 51, 103
5, 187300, Note_on_c, 9, 51, 0
5, 187440, Note_on_c, 9, 51, 127
5, 187540, Note_on_c, 9, 51, 0
5, 187560, Note_on_c, 9, 36, 86
5, 187660, Note_on_c, 9, 36, 0
5, 187680, Note_on_c, 9, 38, 127
5, 187680, Note_on_c, 9, 51, 127
5, 187780, Note_on_c, 9, 51, 0
5, 187780, Note_on_c, 9, 38, 0
5, 187920, Note_on_c, 9, 51, 90
5, 188020, Note_on_c, 9, 51, 0
5, 188040, Note_on_c, 9, 36, 70
5, 188040, Note_on_c, 9, 51, 70
5, 188140, Note_on_c, 9, 51, 0
5, 188140, Note_on_c, 9, 36, 0
5, 188160, Note_on_c, 9, 36, 86
5, 188160, Note_on_c, 9, 51, 127
5, 188260, Note_on_c, 9, 51, 0
5, 188260, Note_on_c, 9, 36, 0
5, 188400, Note_on_c, 9, 51, 113
5, 188500, Note_on_c, 9, 51, 0
5, 188640, Note_on_c, 9, 38, 106
5, 188640, Note_on_c, 9, 51, 127
5, 188740, Note_on_c, 9, 51, 0
5, 188740, Note_on_c, 9, 38, 0
5, 188880, Note_on_c, 9, 51, 127
5, 188980, Note_on_c, 9, 51, 0
5, 189120, Note_on_c, 9, 51, 80
5, 189220, Note_on_c, 9, 51, 0
5, 189240, Note_on_c, 9, 36, 70
5, 189240, Note_on_c, 9, 51, 108
5, 189340, Note_on_c, 9, 51, 0
5, 189340, Note_on_c, 9, 36, 0
5, 189360, Note_on_c, 9, 36, 95
5, 189360, Note_on_c, 9, 51, 122
5, 189460, Note_on_c, 9, 51, 0
5, 189460, Note_on_c, 9, 36, 0
5, 189600, Note_on_c, 9, 38, 114
5, 189600, Note_on_c, 9, 51, 127
5, 189700, Note_on_c, 9, 51, 0
5, 189700, Note_on_c, 9, 38, 0
5, 189720, Note_on_c, 9, 36, 57
5, 189720, Note_on_c, 9, 51, 70
5, 189820, Note_on_c, 9, 51, 0
5, 189820, Note_on_c, 9, 36, 0
5, 189840, Note_on_c, 9, 36, 80
5, 189840, Note_on_c, 9, 51, 127
5, 189940, Note_on_c, 9, 51, 0
5, 189940, Note_on_c, 9, 36, 0
5, 190080, Note_on_c, 9, 36, 102
5, 190080, Note_on_c, 9, 51, 106
5, 190180, Note_on_c, 9, 51, 0
5, 190180, Note_on_c, 9, 36, 0
5, 190320, Note_on_c, 9, 51, 108
5, 190420, Note_on_c, 9, 51, 0
5, 190560, Note_on_c, 9, 38, 109
5, 190560, Note_on_c, 9, 51, 127
5, 190660, Note_on_c, 9, 51, 0
5, 190660, Note_on_c, 9, 38, 0
5, 190800, Note_on_c, 9, 51, 127
5, 190900, Note_on_c, 9, 51, 0
5, 191040, Note_on_c, 9, 51, 127
5, 191140, Note_on_c, 9, 51, 0
5, 191160, Note_on_c, 9, 36, 58
5, 191160, Note_on_c, 9, 51, 80
5, 191260, Note_on_c, 9, 51, 0
5, 191260, Note_on_c, 9, 36, 0
5, 191280, Note_on_c, 9, 36, 96
5, 191280, Note_on_c, 9, 51, 127
5, 191380, Note_on_c, 9, 51, 0
5, 191380, Note_on_c, 9, 36, 0
5, 191520, Note_on_c, 9, 38, 113
5, 191520, Note_on_c, 9, 51, 98
5, 191620, Note_on_c, 9, 51, 0
5, 191620, Note_on_c, 9, 38, 0
5, 191760, Note_on_c, 9, 51, 127
5, 191860, Note_on_c, 9, 51, 0
5, 191880, Note_on_c, 9, 51, 80
5, 191980, Note_on_c, 9, 51, 0
5, 192000, Note_on_c, 9, 36, 77
5, 192000, Note_on_c, 9, 49, 61
5, 192000, Note_on_c, 9, 51, 127
5, 192100, Note_on_c, 9, 51, 0
5, 192100, Note_on_c, 9, 49, 0
5, 192100, Note_on_c, 9, 36, 0
5, 192240, Note_on_c, 9, 51, 121
5, 192340, Note_on_c, 9, 51, 0
5, 192480, Note_on_c, 9, 38, 119
5, 192480, Note_on_c, 9, 51, 127
5, 192580, Note_on_c, 9, 51, 0
5, 192580, Note_on_c, 9, 38, 0
5, 192720, Note_on_c, 9, 51, 127
5, 192820, Note_on_c, 9, 51, 0
5, 192960, Note_on_c, 9, 51, 127
5, 193060, Note_on_c, 9, 51, 0
5, 193080, Note_on_c, 9, 36, 65
5, 193180, Note_on_c, 9, 36, 0
5, 193200, Note_on_c, 9, 36, 80
5, 193200, Note_on_c, 9, 51, 108
5, 193300, Note_on_c, 9, 51, 0
5, 193300, Note_on_c, 9, 36, 0
5, 193440, Note_on_c, 9, 38, 127
5, 193440, Note_on_c, 9, 51, 92
5, 193540, Note_on_c, 9, 51, 0
5, 193540, Note_on_c, 9, 38, 0
5, 193680, Note_on_c, 9, 51, 113
5, 193780, Note_on_c, 9, 51, 0
5, 193800, Note_on_c, 9, 36, 63
5, 193900, Note_on_c, 9, 36, 0
5, 193920, Note_on_c, 9, 36, 82
5, 193920, Note_on_c, 9, 51, 100
5, 194020, Note_on_c, 9, 51, 0
5, 194020, Note_on_c, 9, 36, 0
5, 194160, Note_on_c, 9, 51, 85
5, 194260, Note_on_c, 9, 51, 0
5, 194400, Note_on_c, 9, 38, 127
5, 194400, Note_on_c, 9, 51, 118
5, 194500, Note_on_c, 9, 51, 0
5, 194500, Note_on_c, 9, 38, 0
5, 194640, Note_on_c, 9, 51, 127
5, 194740, Note_on_c, 9, 51, 0
5, 194880, Note_on_c, 9, 51, 121
5, 194980, Note_on_c, 9, 51, 0
5, 195120, Note_on_c, 9, 36, 73
5, 195120, Note_on_c, 9, 51, 119
5, 195220, Note_on_c, 9, 51, 0
5, 195220, Note_on_c, 9, 36, 0
5, 195360, Note_on_c, 9, 38, 127
5, 195360, Note_on_c, 9, 51, 127
5, 195460, Note_on_c, 9, 51, 0
5, 195460, Note_on_c, 9, 38, 0
5, 195600, Note_on_c, 9, 51, 127
5, 195700, Note_on_c, 9, 51, 0
5, 195720, Note_on_c, 9, 36, 68
5, 195720, Note_on_c, 9, 51, 70
5, 195820, Note_on_c, 9, 51, 0
5, 195820, Note_on_c, 9, 36, 0
5, 195840, Note_on_c, 9, 36, 82
5, 195840, Note_on_c, 9, 51, 90
5, 195940, Note_on_c, 9, 51, 0
5, 195940, Note_on_c, 9, 36, 0
5, 196080, Note_on_c, 9, 51, 80
5, 196180, Note_on_c, 9, 51, 0
5, 196320, Note_on_c, 9, 38, 119
5, 196320, Note_on_c, 9, 51, 92
5, 196420, Note_on_c, 9, 51, 0
5, 196420, Note_on_c, 9, 38, 0
5, 196560, Note_on_c, 9, 51, 72
5, 196660, Note_on_c, 9, 51, 0
5, 196800, Note_on_c, 9, 51, 100
5, 196900, Note_on_c, 9, 51, 0
5, 197040, Note_on_c, 9, 36, 95
5, 197040, Note_on_c, 9, 51, 127
5, 197140, Note_on_c, 9, 51, 0
5, 197140, Note_on_c, 9, 36, 0
5, 197280, Note_on_c, 9, 38, 124
5, 197280, Note_on_c, 9, 51, 106
5, 197380, Note_on_c, 9, 51, 0
5, 197380, Note_on_c, 9, 38, 0
5, 197520, Note_on_c, 9, 51, 127
5, 197620, Note_on_c, 9, 51, 0
5, 197640, Note_on_c, 9, 36, 65
5, 197740, Note_on_c, 9, 36, 0
5, 197760, Note_on_c, 9, 36, 82
5, 197760, Note_on_c, 9, 51, 100
5, 197860, Note_on_c, 9, 51, 0
5, 197860, Note_on_c, 9, 36, 0
5, 198000, Note_on_c, 9, 51, 85
5, 198100, Note_on_c, 9, 51, 0
5, 198240, Note_on_c, 9, 38, 127
5, 198240, Note_on_c, 9, 51, 118
5, 198340, Note_on_c, 9, 51, 0
5, 198340, Note_on_c, 9, 38, 0
5, 198480, Note_on_c, 9, 51, 127
5, 198580, Note_on_c, 9, 51, 0
5, 198720, Note_on_c, 9, 51, 121
5, 198820, Note_on_c, 9, 51, 0
5, 198960, Note_on_c, 9, 36, 73
5, 198960, Note_on_c, 9, 51, 119
5, 199060, Note_on_c, 9, 51, 0
5, 199060, Note_on_c, 9, 36, 0
5, 199200, Note_on_c, 9, 38, 127
5, 199200, Note_on_c, 9, 51, 127
5, 199300, Note_on_c, 9, 51, 0
5, 199300, Note_on_c, 9, 38, 0
5, 199440, Note_on_c, 9, 51, 127
5, 199540, Note_on_c, 9, 51, 0
5, 199560, Note_on_c, 9, 36, 68
5, 199560, Note_on_c, 9, 51, 70
5, 199660, Note_on_c, 9, 51, 0
5, 199660, Note_on_c, 9, 36, 0
5, 199680, Note_on_c, 9, 36, 82
5, 199680, Note_on_c, 9, 51, 100
5, 199780, Note_on_c, 9, 51, 0
5, 199780, Note_on_c, 9, 36, 0
5, 199920, Note_on_c, 9, 51, 85
5, 200020, Note_on_c, 9, 51, 0
5, 200160, Note_on_c, 9, 38, 127
5, 200160, Note_on_c, 9, 51, 118
5, 200260, Note_on_c, 9, 51, 0
5, 200260, Note_on_c, 9, 38, 0
5, 200400, Note_on_c, 9, 51, 127
5, 200500, Note_on_c, 9, 51, 0
5, 200640, Note_on_c, 9, 51, 121
5, 200740, Note_on_c, 9, 51, 0
5, 200880, Note_on_c, 9, 36, 73
5, 200880, Note_on_c, 9, 51, 119
5, 200980, Note_on_c, 9, 51, 0
5, 200980, Note_on_c, 9, 36, 0
5, 201120, Note_on_c, 9, 38, 127
5, 201120, Note_on_c, 9, 51, 127
5, 201220, Note_on_c, 9, 51, 0
5, 201220, Note_on_c, 9, 38, 0
5, 201360, Note_on_c, 9, 51, 127
5, 201460, Note_on_c, 9, 51, 0
5, 201480, Note_on_c, 9, 36, 68
5, 201480, Note_on_c, 9, 51, 70
5, 201580, Note_on_c, 9, 51, 0
5, 201580, Note_on_c, 9, 36, 0
5, 201600, Note_on_c, 9, 36, 88
5, 201600, Note_on_c, 9, 51, 100
5, 201700, Note_on_c, 9, 51, 0
5, 201700, Note_on_c, 9, 36, 0
5, 201840, Note_on_c, 9, 51, 127
5, 201940, Note_on_c, 9, 51, 0
5, 202080, Note_on_c, 9, 38, 127
5, 202080, Note_on_c, 9, 51, 127
5, 202180, Note_on_c, 9, 51, 0
5, 202180, Note_on_c, 9, 38, 0
5, 202320, Note_on_c, 9, 51, 127
5, 202420, Note_on_c, 9, 51, 0
5, 202560, Note_on_c, 9, 51, 121
5, 202660, Note_on_c, 9, 51, 0
5, 202680, Note_on_c, 9, 50, 116
5, 202780, Note_on_c, 9, 50, 0
5, 202800, Note_on_c, 9, 51, 127
5, 202900, Note_on_c, 9, 51, 0
5, 202920, Note_on_c, 9, 36, 65
5, 203020, Note_on_c, 9, 36, 0
5, 203040, Note_on_c, 9, 48, 127
5, 203040, Note_on_c, 9, 51, 127
5, 203140, Note_on_c, 9, 51, 0
5, 203140, Note_on_c, 9, 48, 0
5, 203280, Note_on_c, 9, 51, 127
5, 203380, Note_on_c, 9, 51, 0
5, 203400, Note_on_c, 9, 45, 124
5, 203500, Note_on_c, 9, 45, 0
5, 203520, Note_on_c, 9, 36, 83
5, 203520, Note_on_c, 9, 51, 83
5, 203620, Note_on_c, 9, 51, 0
5, 203620, Note_on_c, 9, 36, 0
5, 203760, Note_on_c, 9, 51, 121
5, 203860, Note_on_c, 9, 51, 0
5, 204000, Note_on_c, 9, 38, 127
5, 204000, Note_on_c, 9, 51, 127
5, 204100, Note_on_c, 9, 51, 0
5, 204100, Note_on_c, 9, 38, 0
5, 204240, Note_on_c, 9, 51, 98
5, 204340, Note_on_c, 9, 51, 0
5, 204480, Note_on_c, 9, 51, 127
5, 204580, Note_on_c, 9, 51, 0
5, 204600, Note_on_c, 9, 51, 92
5, 204700, Note_on_c, 9, 51, 0
5, 204720, Note_on_c, 9, 36, 73
5, 204720, Note_on_c, 9, 53, 127
5, 204820, Note_on_c, 9, 53, 0
5, 204820, Note_on_c, 9, 36, 0
5, 204960, Note_on_c, 9, 38, 116
5, 204960, Note_on_c, 9, 51, 105
5, 205060, Note_on_c, 9, 51, 0
5, 205060, Note_on_c, 9, 38, 0
5, 205080, Note_on_c, 9, 53, 77
5, 205180, Note_on_c, 9, 53, 0
5, 205200, Note_on_c, 9, 36, 70
5, 205300, Note_on_c, 9, 36, 0
5, 205440, Note_on_c, 9, 36, 102
5, 205440, Note_on_c, 9, 51, 106
5, 205540, Note_on_c, 9, 51, 0
5, 205540, Note_on_c, 9, 36, 0
5, 205680, Note_on_c, 9, 51, 108
5, 205780, Note_on_c, 9, 51, 0
5, 205920, Note_on_c, 9, 38, 109
5, 205920, Note_on_c, 9, 51, 127
5, 206020, Note_on_c, 9, 51, 0
5, 206020, Note_on_c, 9, 38, 0
5, 206160, Note_on_c, 9, 51, 127
5, 206260, Note_on_c, 9, 51, 0
5, 206400, Note_on_c, 9, 51, 127
5, 206500, Note_on_c, 9, 51, 0
5, 206520, Note_on_c, 9, 36, 58
5, 206520, Note_on_c, 9, 51, 80
5, 206620, Note_on_c, 9, 51, 0
5, 206620, Note_on_c, 9, 36, 0
5, 206640, Note_on_c, 9, 36, 96
5, 206640, Note_on_c, 9, 51, 127
5, 206740, Note_on_c, 9, 51, 0
5, 206740, Note_on_c, 9, 36, 0
5, 206880, Note_on_c, 9, 38, 113
5, 206880, Note_on_c, 9, 51, 98
5, 206980, Note_on_c, 9, 51, 0
5, 206980, Note_on_c, 9, 38, 0
5, 207120, Note_on_c, 9, 51, 127
5, 207220, Note_on_c, 9, 51, 0
5, 207240, Note_on_c, 9, 51, 80
5, 207340, Note_on_c, 9, 51, 0
5, 207360, Note_on_c, 9, 36, 102
5, 207360, Note_on_c, 9, 51, 106
5, 207460, Note_on_c, 9, 51, 0
5, 207460, Note_on_c, 9, 36, 0
5, 207600, Note_on_c, 9, 51, 108
5, 207700, Note_on_c, 9, 51, 0
5, 207840, Note_on_c, 9, 38, 109
5, 207840, Note_on_c, 9, 51, 127
5, 207940, Note_on_c, 9, 51, 0
5, 207940, Note_on_c, 9, 38, 0
5, 208080, Note_on_c, 9, 51, 127
5, 208180, Note_on_c, 9, 51, 0
5, 208320, Note_on_c, 9, 51, 127
5, 208420, Note_on_c, 9, 51, 0
5, 208440, Note_on_c, 9, 36, 58
5, 208440, Note_on_c, 9, 51, 80
5, 208540, Note_on_c, 9, 51, 0
5, 208540, Note_on_c, 9, 36, 0
5, 208560, Note_on_c, 9, 36, 96
5, 208560, Note_on_c, 9, 51, 127
5, 208660, Note_on_c, 9, 51, 0
5, 208660, Note_on_c, 9, 36, 0
5, 208800, Note_on_c, 9, 38, 113
5, 208800, Note_on_c, 9, 51, 98
5, 208900, Note_on_c, 9, 51, 0
5, 208900, Note_on_c, 9, 38, 0
5, 209040, Note_on_c, 9, 51, 127
5, 209140, Note_on_c, 9, 51, 0
5, 209160, Note_on_c, 9, 51, 80
5, 209260, Note_on_c, 9, 51, 0
5, 209280, Note_on_c, 9, 36, 88
5, 209280, Note_on_c, 9, 51, 100
5, 209380, Note_on_c, 9, 51, 0
5, 209380, Note_on_c, 9, 36, 0
5, 209520, Note_on_c, 9, 51, 127
5, 209620, Note_on_c, 9, 51, 0
5, 209760, Note_on_c, 9, 38, 127
5, 209760, Note_on_c, 9, 51, 127
5, 209860, Note_on_c, 9, 51, 0
5, 209860, Note_on_c, 9, 38, 0
5, 210000, Note_on_c, 9, 51, 127
5, 210100, Note_on_c, 9, 51, 0
5, 210240, Note_on_c, 9, 51, 121
5, 210340, Note_on_c, 9, 51, 0
5, 210360, Note_on_c, 9, 50, 116
5, 210460, Note_on_c, 9, 50, 0
5, 210480, Note_on_c, 9, 51, 127
5, 210580, Note_on_c, 9, 51, 0
5, 210600, Note_on_c, 9, 36, 65
5, 210700, Note_on_c, 9, 36, 0
5, 210720, Note_on_c, 9, 48, 127
5, 210720, Note_on_c, 9, 51, 127
5, 210820, Note_on_c, 9, 51, 0
5, 210820, Note_on_c, 9, 48, 0
5, 210960, Note_on_c, 9, 51, 127
5, 211060, Note_on_c, 9, 51, 0
5, 211080, Note_on_c, 9, 45, 124
5, 211180, Note_on_c, 9, 45, 0
5, 211200, Note_on_c, 9, 36, 82
5, 211200, Note_on_c, 9, 51, 90
5, 211300, Note_on_c, 9, 51, 0
5, 211300, Note_on_c, 9, 36, 0
5, 211440, Note_on_c, 9, 51, 80
5, 211540, Note_on_c, 9, 51, 0
5, 211680, Note_on_c, 9, 38, 119
5, 211680, Note_on_c, 9, 51, 92
5, 211780, Note_on_c, 9, 51, 0
5, 211780, Note_on_c, 9, 38, 0
5, 211920, Note_on_c, 9, 51, 72
5, 212020, Note_on_c, 9, 51, 0
5, 212160, Note_on_c, 9, 51, 100
5, 212260, Note_on_c, 9, 51, 0
5, 212400, Note_on_c, 9, 36, 95
5, 212400, Note_on_c, 9, 51, 127
5, 212500, Note_on_c, 9, 51, 0
5, 212500, Note_on_c, 9, 36, 0
5, 212640, Note_on_c, 9, 38, 124
5, 212640, Note_on_c, 9, 51, 106
5, 212740, Note_on_c, 9, 51, 0
5, 212740, Note_on_c, 9, 38, 0
5, 212880, Note_on_c, 9, 51, 127
5, 212980, Note_on_c, 9, 51, 0
5, 213000, Note_on_c, 9, 36, 65
5, 213100, Note_on_c, 9, 36, 0
5, 213120, Note_on_c, 9, 36, 83
5, 213120, Note_on_c, 9, 51, 83
5, 213220, Note_on_c, 9, 51, 0
5, 213220, Note_on_c, 9, 36, 0
5, 213360, Note_on_c, 9, 51, 121
5, 213460, Note_on_c, 9, 51, 0
5, 213600, Note_on_c, 9, 38, 127
5, 213600, Note_on_c, 9, 51, 127
5, 213700, Note_on_c, 9, 51, 0
5, 213700, Note_on_c, 9, 38, 0
5, 213840, Note_on_c, 9, 51, 98
5, 213940, Note_on_c, 9, 51, 0
5, 214080, Note_on_c, 9, 51, 127
5, 214180, Note_on_c, 9, 51, 0
5, 214200, Note_on_c, 9, 51, 92
5, 214300, Note_on_c, 9, 51, 0
5, 214320, Note_on_c, 9, 36, 73
5, 214320, Note_on_c, 9, 53, 127
5, 214420, Note_on_c, 9, 53, 0
5, 214420, Note_on_c, 9, 36, 0
5, 214560, Note_on_c, 9, 38, 116
5, 214560, Note_on_c, 9, 51, 105
5, 214660, Note_on_c, 9, 51, 0
5, 214660, Note_on_c, 9, 38, 0
5, 214680, Note_on_c, 9, 53, 77
5, 214780, Note_on_c, 9, 53, 0
5, 214800, Note_on_c, 9, 36, 70
5, 214900, Note_on_c, 9, 36, 0
5, 215040, Note_on_c, 9, 36, 70
5, 215040, Note_on_c, 9, 51, 127
5, 215140, Note_on_c, 9, 51, 0
5, 215140, Note_on_c, 9, 36, 0
5, 215280, Note_on_c, 9, 51, 127
5, 215380, Note_on_c, 9, 51, 0
5, 215520, Note_on_c, 9, 38, 109
5, 215520, Note_on_c, 9, 51, 127
5, 215620, Note_on_c, 9, 51, 0
5, 215620, Note_on_c, 9, 38, 0
5, 215760, Note_on_c, 9, 51, 127
5, 215860, Note_on_c, 9, 51, 0
5, 216000, Note_on_c, 9, 51, 127
5, 216100, Note_on_c, 9, 51, 0
5, 216120, Note_on_c, 9, 50, 113
5, 216120, Note_on_c, 9, 51, 127
5, 216220, Note_on_c, 9, 51, 0
5, 216220, Note_on_c, 9, 50, 0
5, 216240, Note_on_c, 9, 51, 80
5, 216340, Note_on_c, 9, 51, 0
5, 216360, Note_on_c, 9, 51, 93
5, 216460, Note_on_c, 9, 51, 0
5, 216480, Note_on_c, 9, 48, 127
5, 216480, Note_on_c, 9, 51, 127
5, 216580, Note_on_c, 9, 51, 0
5, 216580, Note_on_c, 9, 48, 0
5, 216720, Note_on_c, 9, 51, 98
5, 216820, Note_on_c, 9, 51, 0
5, 216840, Note_on_c, 9, 45, 127
5, 216940, Note_on_c, 9, 45, 0
5, 216960, Note_on_c, 9, 36, 79
5, 216960, Note_on_c, 9, 51, 124
5, 217060, Note_on_c, 9, 51, 0
5, 217060, Note_on_c, 9, 36, 0
5, 217440, Note_on_c, 9, 38, 80
5, 217440, Note_on_c, 9, 51, 92
5, 217540, Note_on_c, 9, 51, 0
5, 217540, Note_on_c, 9, 38, 0
5, 217920, Note_on_c, 9, 51, 119
5, 218020, Note_on_c, 9, 51, 0
5, 218160, Note_on_c, 9, 36, 67
5, 218260, Note_on_c, 9, 36, 0
5, 218400, Note_on_c, 9, 38, 67
5, 218400, Note_on_c, 9, 44, 28
5, 218400, Note_on_c, 9, 51, 98
5, 218500, Note_on_c, 9, 51, 0
5, 218500, Note_on_c, 9, 44, 0
5, 218500, Note_on_c, 9, 38, 0
5, 218640, Note_on_c, 9, 44, 35
5, 218740, Note_on_c, 9, 44, 0
5, 218880, Note_on_c, 9, 36, 64
5, 218880, Note_on_c, 9, 51, 90
5, 218980, Note_on_c, 9, 51, 0
5, 218980, Note_on_c, 9, 36, 0
5, 219120, Note_on_c, 9, 51, 66
5, 219220, Note_on_c, 9, 51, 0
5, 219240, Note_on_c, 9, 49, 77
5, 219340, Note_on_c, 9, 49, 0
5, 219480, Note_on_c, 9, 44, 12
5, 219580, Note_on_c, 9, 44, 0
5, 219600, Note_on_c, 9, 46, 82
5, 219600, Note_on_c, 9, 51, 127
5, 219700, Note_on_c, 9, 51, 0
5, 219700, Note_on_c, 9, 46, 0
5, 219700, End_track
6, 0, Start_track
6, 0, Title_t, "el. piano"
6, 0, Program_c, 2, 5
6, 0, Control_c, 2, 7, 82
6, 0, Control_c, 2, 10, 94
6, 0, Control_c, 2, 91, 72
6, 0, Control_c, 2, 93, 110
6, 0, Control_c, 2, 123, 0
6, 0, Control_c, 2, 64, 0
6, 3840, Note_on_c, 2, 67, 76
6, 3840, Note_on_c, 2, 63, 65
6, 3840, Note_on_c, 2, 51, 72
6, 3840, Note_on_c, 2, 58, 65
6, 4064, Control_c, 2, 64, 127
6, 4568, Note_on_c, 2, 58, 0
6, 4568, Note_on_c, 2, 67, 0
6, 4572, Note_on_c, 2, 63, 0
6, 4800, Note_on_c, 2, 51, 0
6, 4800, Control_c, 2, 64, 0
6, 4812, Note_on_c, 2, 63, 47
6, 4812, Note_on_c, 2, 51, 50
6, 4812, Note_on_c, 2, 58, 52
6, 4816, Note_on_c, 2, 67, 56
6, 4824, Control_c, 2, 64, 0
6, 5304, Control_c, 2, 0, 0
6, 5760, Note_on_c, 2, 67, 0
6, 5760, Note_on_c, 2, 63, 0
6, 5760, Note_on_c, 2, 51, 0
6, 5760, Note_on_c, 2, 58, 0
6, 5760, Control_c, 2, 0, 0
6, 5764, Note_on_c, 2, 58, 68
6, 5772, Note_on_c, 2, 74, 81
6, 5792, Control_c, 2, 64, 0
6, 6272, Control_c, 2, 0, 0
6, 6752, Control_c, 2, 0, 0
6, 7176, Control_c, 2, 64, 127
6, 7416, Note_on_c, 2, 74, 0
6, 7452, Note_on_c, 2, 58, 0
6, 7680, Control_c, 2, 64, 0
6, 7684, Note_on_c, 2, 60, 68
6, 7692, Note_on_c, 2, 75, 81
6, 7712, Control_c, 2, 64, 0
6, 8192, Control_c, 2, 0, 0
6, 8672, Control_c, 2, 0, 0
6, 9096, Control_c, 2, 64, 127
6, 9336, Note_on_c, 2, 75, 0
6, 9372, Note_on_c, 2, 60, 0
6, 9600, Control_c, 2, 64, 0
6, 9600, Note_on_c, 2, 67, 76
6, 9600, Note_on_c, 2, 62, 65
6, 9600, Note_on_c, 2, 53, 72
6, 9600, Note_on_c, 2, 58, 65
6, 9824, Control_c, 2, 64, 127
6, 10328, Note_on_c, 2, 58, 0
6, 10328, Note_on_c, 2, 67, 0
6, 10332, Note_on_c, 2, 62, 0
6, 10612, Note_on_c, 2, 53, 0
6, 11488, Control_c, 2, 64, 0
6, 11520, Note_on_c, 2, 70, 64
6, 11964, Control_c, 2, 64, 127
6, 12200, Note_on_c, 2, 70, 0
6, 12480, Control_c, 2, 64, 0
6, 12480, Control_c, 2, 64, 0
6, 12480, Note_on_c, 2, 63, 80
6, 12480, Note_on_c, 2, 55, 69
6, 12480, Note_on_c, 2, 70, 79
6, 12772, Control_c, 2, 64, 127
6, 13152, Note_on_c, 2, 63, 0
6, 13160, Note_on_c, 2, 70, 0
6, 13252, Note_on_c, 2, 55, 0
6, 13440, Control_c, 2, 64, 0
6, 14520, Note_on_c, 2, 53, 73
6, 14520, Control_c, 2, 64, 0
6, 14620, Note_on_c, 2, 53, 0
6, 14640, Note_on_c, 2, 57, 62
6, 14760, Note_on_c, 2, 62, 56
6, 14880, Note_on_c, 2, 69, 84
6, 15000, Note_on_c, 2, 69, 0
6, 15000, Note_on_c, 2, 53, 53
6, 15056, Note_on_c, 2, 53, 0
6, 15120, Note_on_c, 2, 65, 82
6, 15120, Control_c, 2, 64, 127
6, 15184, Note_on_c, 2, 62, 0
6, 15220, Note_on_c, 2, 57, 0
6, 15248, Note_on_c, 2, 65, 0
6, 15360, Control_c, 2, 64, 0
6, 15360, Control_c, 2, 64, 0
6, 15360, Note_on_c, 2, 63, 80
6, 15360, Note_on_c, 2, 53, 69
6, 15360, Note_on_c, 2, 68, 79
6, 15360, Note_on_c, 2, 60, 69
6, 15652, Control_c, 2, 64, 127
6, 16032, Note_on_c, 2, 63, 0
6, 16040, Note_on_c, 2, 60, 0
6, 16040, Note_on_c, 2, 68, 0
6, 16132, Note_on_c, 2, 53, 0
6, 16792, Control_c, 2, 64, 0
6, 16804, Note_on_c, 2, 63, 64
6, 16804, Note_on_c, 2, 68, 75
6, 16804, Note_on_c, 2, 77, 75
6, 16804, Note_on_c, 2, 65, 75
6, 16948, Control_c, 2, 64, 127
6, 17036, Note_on_c, 2, 65, 0
6, 17044, Note_on_c, 2, 63, 0
6, 17092, Note_on_c, 2, 68, 0
6, 17280, Note_on_c, 2, 77, 0
6, 17280, Control_c, 2, 64, 0
6, 18360, Note_on_c, 2, 55, 73
6, 18360, Control_c, 2, 64, 0
6, 18460, Note_on_c, 2, 55, 0
6, 18480, Note_on_c, 2, 58, 62
6, 18600, Note_on_c, 2, 65, 56
6, 18720, Note_on_c, 2, 70, 84
6, 18840, Note_on_c, 2, 70, 0
6, 18840, Note_on_c, 2, 55, 53
6, 18896, Note_on_c, 2, 55, 0
6, 18960, Note_on_c, 2, 67, 82
6, 18960, Control_c, 2, 64, 127
6, 19024, Note_on_c, 2, 65, 0
6, 19060, Note_on_c, 2, 58, 0
6, 19088, Note_on_c, 2, 67, 0
6, 19200, Control_c, 2, 64, 0
6, 19200, Note_on_c, 2, 70, 64
6, 19644, Control_c, 2, 64, 127
6, 19880, Note_on_c, 2, 70, 0
6, 20180, Note_on_c, 2, 63, 69
6, 20180, Note_on_c, 2, 51, 59
6, 20204, Control_c, 2, 64, 0
6, 20696, Control_c, 2, 64, 127
6, 20892, Note_on_c, 2, 63, 0
6, 20956, Note_on_c, 2, 51, 0
6, 21120, Control_c, 2, 64, 0
6, 21140, Note_on_c, 2, 53, 44
6, 21144, Note_on_c, 2, 62, 67
6, 21144, Note_on_c, 2, 69, 61
6, 21144, Note_on_c, 2, 60, 66
6, 21152, Note_on_c, 2, 50, 46
6, 21372, Note_on_c, 2, 62, 0
6, 21372, Note_on_c, 2, 65, 74
6, 21380, Note_on_c, 2, 50, 0
6, 21388, Note_on_c, 2, 50, 43
6, 21392, Note_on_c, 2, 53, 0
6, 21400, Note_on_c, 2, 69, 0
6, 21432, Note_on_c, 2, 50, 0
6, 21496, Note_on_c, 2, 65, 0
6, 21504, Note_on_c, 2, 62, 70
6, 21516, Note_on_c, 2, 53, 77
6, 21932, Control_c, 2, 64, 127
6, 21944, Note_on_c, 2, 53, 0
6, 21964, Note_on_c, 2, 60, 0
6, 21992, Note_on_c, 2, 62, 0
6, 22656, Control_c, 2, 64, 0
6, 23052, Note_on_c, 2, 63, 47
6, 23052, Note_on_c, 2, 51, 50
6, 23052, Note_on_c, 2, 56, 52
6, 23056, Note_on_c, 2, 65, 56
6, 23064, Control_c, 2, 64, 0
6, 23544, Control_c, 2, 0, 0
6, 24024, Control_c, 2, 0, 0
6, 24464, Control_c, 2, 64, 127
6, 24612, Note_on_c, 2, 63, 0
6, 24624, Note_on_c, 2, 56, 0
6, 24628, Note_on_c, 2, 65, 0
6, 24704, Note_on_c, 2, 51, 0
6, 24928, Control_c, 2, 64, 0
6, 24960, Control_c, 2, 64, 76
6, 24960, Control_c, 2, 64, 0
6, 25200, Note_on_c, 2, 86, 87
6, 25204, Note_on_c, 2, 70, 70
6, 25204, Note_on_c, 2, 77, 63
6, 25204, Note_on_c, 2, 65, 71
6, 25308, Note_on_c, 2, 65, 0
6, 25312, Note_on_c, 2, 70, 0
6, 25316, Note_on_c, 2, 86, 0
6, 25340, Note_on_c, 2, 82, 47
6, 25344, Note_on_c, 2, 89, 61
6, 25352, Note_on_c, 2, 65, 41
6, 25352, Note_on_c, 2, 70, 46
6, 25404, Note_on_c, 2, 82, 0
6, 25412, Note_on_c, 2, 89, 0
6, 25416, Note_on_c, 2, 70, 0
6, 25416, Note_on_c, 2, 65, 0
6, 25420, Note_on_c, 2, 77, 0
6, 25916, Note_on_c, 2, 77, 84
6, 25920, Note_on_c, 2, 70, 65
6, 25920, Note_on_c, 2, 65, 67
6, 25924, Note_on_c, 2, 62, 63
6, 26024, Note_on_c, 2, 77, 0
6, 26028, Note_on_c, 2, 77, 54
6, 26040, Note_on_c, 2, 79, 39
6, 26148, Note_on_c, 2, 77, 0
6, 26152, Note_on_c, 2, 77, 60
6, 26160, Note_on_c, 2, 79, 0
6, 26296, Note_on_c, 2, 77, 0
6, 26308, Note_on_c, 2, 62, 0
6, 26308, Note_on_c, 2, 70, 0
6, 26316, Note_on_c, 2, 65, 0
6, 26880, Control_c, 2, 64, 0
6, 26904, Note_on_c, 2, 75, 68
6, 26904, Note_on_c, 2, 63, 76
6, 26908, Note_on_c, 2, 70, 68
6, 27388, Control_c, 2, 64, 127
6, 27596, Note_on_c, 2, 75, 0
6, 27612, Note_on_c, 2, 70, 0
6, 27620, Note_on_c, 2, 63, 0
6, 28084, Note_on_c, 2, 63, 67
6, 28088, Note_on_c, 2, 58, 60
6, 28120, Control_c, 2, 64, 0
6, 28468, Note_on_c, 2, 75, 79
6, 28800, Note_on_c, 2, 75, 0
6, 28800, Note_on_c, 2, 58, 0
6, 28800, Note_on_c, 2, 63, 0
6, 28820, Note_on_c, 2, 72, 86
6, 28820, Note_on_c, 2, 62, 74
6, 28820, Note_on_c, 2, 60, 62
6, 28828, Note_on_c, 2, 57, 63
6, 29240, Control_c, 2, 64, 127
6, 29252, Note_on_c, 2, 72, 0
6, 29268, Note_on_c, 2, 60, 0
6, 29284, Note_on_c, 2, 62, 0
6, 29296, Note_on_c, 2, 57, 0
6, 29512, Control_c, 2, 64, 0
6, 29516, Note_on_c, 2, 53, 49
6, 29520, Note_on_c, 2, 69, 53
6, 29520, Note_on_c, 2, 62, 60
6, 29520, Note_on_c, 2, 60, 50
6, 29780, Control_c, 2, 64, 127
6, 29948, Note_on_c, 2, 53, 0
6, 29952, Note_on_c, 2, 69, 0
6, 29960, Note_on_c, 2, 62, 0
6, 30000, Note_on_c, 2, 60, 0
6, 30232, Control_c, 2, 64, 0
6, 30732, Note_on_c, 2, 63, 47
6, 30732, Note_on_c, 2, 51, 50
6, 30732, Note_on_c, 2, 56, 52
6, 30736, Note_on_c, 2, 65, 56
6, 30744, Control_c, 2, 64, 0
6, 31224, Control_c, 2, 0, 0
6, 31704, Control_c, 2, 0, 0
6, 32144, Control_c, 2, 64, 127
6, 32292, Note_on_c, 2, 63, 0
6, 32304, Note_on_c, 2, 56, 0
6, 32308, Note_on_c, 2, 65, 0
6, 32384, Note_on_c, 2, 51, 0
6, 32608, Control_c, 2, 64, 0
6, 32640, Control_c, 2, 64, 76
6, 32640, Control_c, 2, 64, 0
6, 32640, Control_c, 2, 64, 0
6, 32664, Note_on_c, 2, 77, 68
6, 32664, Note_on_c, 2, 62, 76
6, 32668, Note_on_c, 2, 70, 68
6, 32684, Note_on_c, 2, 65, 53
6, 33148, Control_c, 2, 64, 127
6, 33356, Note_on_c, 2, 77, 0
6, 33372, Note_on_c, 2, 70, 0
6, 33380, Note_on_c, 2, 65, 0
6, 33460, Note_on_c, 2, 62, 0
6, 33844, Note_on_c, 2, 65, 67
6, 33848, Note_on_c, 2, 58, 60
6, 33848, Note_on_c, 2, 62, 72
6, 33880, Control_c, 2, 64, 0
6, 34228, Note_on_c, 2, 74, 79
6, 34560, Note_on_c, 2, 74, 0
6, 34560, Note_on_c, 2, 65, 0
6, 34560, Note_on_c, 2, 58, 0
6, 34560, Note_on_c, 2, 62, 0
6, 34572, Note_on_c, 2, 63, 47
6, 34572, Note_on_c, 2, 51, 50
6, 34572, Note_on_c, 2, 58, 52
6, 34576, Note_on_c, 2, 67, 56
6, 34584, Control_c, 2, 64, 0
6, 35064, Control_c, 2, 0, 0
6, 35544, Control_c, 2, 0, 0
6, 35984, Control_c, 2, 64, 127
6, 36132, Note_on_c, 2, 63, 0
6, 36144, Note_on_c, 2, 58, 0
6, 36148, Note_on_c, 2, 67, 0
6, 36224, Note_on_c, 2, 51, 0
6, 36448, Control_c, 2, 64, 0
6, 36480, Control_c, 2, 64, 76
6, 36480, Control_c, 2, 64, 0
6, 36500, Note_on_c, 2, 72, 86
6, 36500, Note_on_c, 2, 62, 74
6, 36500, Note_on_c, 2, 60, 62
6, 36508, Note_on_c, 2, 57, 63
6, 36920, Control_c, 2, 64, 127
6, 36932, Note_on_c, 2, 72, 0
6, 36948, Note_on_c, 2, 60, 0
6, 36964, Note_on_c, 2, 62, 0
6, 36976, Note_on_c, 2, 57, 0
6, 37192, Control_c, 2, 64, 0
6, 37196, Note_on_c, 2, 53, 49
6, 37200, Note_on_c, 2, 69, 53
6, 37200, Note_on_c, 2, 62, 60
6, 37200, Note_on_c, 2, 60, 50
6, 37460, Control_c, 2, 64, 127
6, 37628, Note_on_c, 2, 53, 0
6, 37632, Note_on_c, 2, 69, 0
6, 37640, Note_on_c, 2, 62, 0
6, 37680, Note_on_c, 2, 60, 0
6, 37912, Control_c, 2, 64, 0
6, 38412, Note_on_c, 2, 63, 57
6, 38416, Note_on_c, 2, 68, 63
6, 38416, Note_on_c, 2, 60, 55
6, 38420, Note_on_c, 2, 51, 57
6, 38420, Control_c, 2, 64, 0
6, 38940, Control_c, 2, 64, 127
6, 39304, Note_on_c, 2, 60, 0
6, 39320, Note_on_c, 2, 63, 0
6, 39356, Note_on_c, 2, 68, 0
6, 40060, Note_on_c, 2, 51, 0
6, 40076, Note_on_c, 2, 63, 50
6, 40188, Note_on_c, 2, 68, 58
6, 40320, Note_on_c, 2, 68, 0
6, 40320, Note_on_c, 2, 63, 0
6, 40320, Control_c, 2, 64, 0
6, 40340, Note_on_c, 2, 74, 86
6, 40340, Note_on_c, 2, 65, 74
6, 40340, Note_on_c, 2, 62, 62
6, 40348, Note_on_c, 2, 58, 63
6, 40760, Control_c, 2, 64, 127
6, 40772, Note_on_c, 2, 74, 0
6, 40788, Note_on_c, 2, 62, 0
6, 40804, Note_on_c, 2, 65, 0
6, 40816, Note_on_c, 2, 58, 0
6, 41032, Control_c, 2, 64, 0
6, 41036, Note_on_c, 2, 55, 49
6, 41040, Note_on_c, 2, 70, 53
6, 41040, Note_on_c, 2, 65, 60
6, 41040, Note_on_c, 2, 62, 50
6, 41300, Control_c, 2, 64, 127
6, 41468, Note_on_c, 2, 55, 0
6, 41472, Note_on_c, 2, 70, 0
6, 41480, Note_on_c, 2, 65, 0
6, 41520, Note_on_c, 2, 62, 0
6, 41752, Control_c, 2, 64, 0
6, 42252, Note_on_c, 2, 63, 58
6, 42252, Note_on_c, 2, 58, 75
6, 42252, Note_on_c, 2, 55, 42
6, 42480, Note_on_c, 2, 67, 68
6, 43200, Note_on_c, 2, 67, 0
6, 43200, Note_on_c, 2, 63, 0
6, 43200, Note_on_c, 2, 58, 0
6, 43200, Note_on_c, 2, 55, 0
6, 43200, Note_on_c, 2, 63, 76
6, 43200, Note_on_c, 2, 58, 65
6, 43200, Note_on_c, 2, 48, 72
6, 43200, Note_on_c, 2, 55, 65
6, 43424, Control_c, 2, 64, 127
6, 43928, Note_on_c, 2, 55, 0
6, 43928, Note_on_c, 2, 63, 0
6, 43932, Note_on_c, 2, 58, 0
6, 44160, Note_on_c, 2, 48, 0
6, 44160, Control_c, 2, 64, 0
6, 44160, Control_c, 2, 64, 0
6, 44184, Note_on_c, 2, 74, 68
6, 44184, Note_on_c, 2, 60, 76
6, 44188, Note_on_c, 2, 69, 68
6, 44204, Note_on_c, 2, 62, 53
6, 44668, Control_c, 2, 64, 127
6, 44876, Note_on_c, 2, 74, 0
6, 44892, Note_on_c, 2, 69, 0
6, 44900, Note_on_c, 2, 62, 0
6, 44980, Note_on_c, 2, 60, 0
6, 45364, Note_on_c, 2, 62, 67
6, 45368, Note_on_c, 2, 57, 60
6, 45368, Note_on_c, 2, 60, 72
6, 45400, Control_c, 2, 64, 0
6, 45748, Note_on_c, 2, 72, 79
6, 46080, Note_on_c, 2, 72, 0
6, 46080, Note_on_c, 2, 62, 0
6, 46080, Note_on_c, 2, 57, 0
6, 46080, Note_on_c, 2, 60, 0
6, 46080, Note_on_c, 2, 67, 76
6, 46080, Note_on_c, 2, 60, 65
6, 46080, Note_on_c, 2, 51, 72
6, 46080, Note_on_c, 2, 56, 65
6, 46304, Control_c, 2, 64, 127
6, 46808, Note_on_c, 2, 56, 0
6, 46808, Note_on_c, 2, 67, 0
6, 46812, Note_on_c, 2, 60, 0
6, 47092, Note_on_c, 2, 51, 0
6, 47968, Control_c, 2, 64, 0
6, 48000, Control_c, 2, 64, 0
6, 48024, Note_on_c, 2, 77, 68
6, 48024, Note_on_c, 2, 62, 76
6, 48028, Note_on_c, 2, 70, 68
6, 48044, Note_on_c, 2, 65, 53
6, 48508, Control_c, 2, 64, 127
6, 48716, Note_on_c, 2, 77, 0
6, 48732, Note_on_c, 2, 70, 0
6, 48740, Note_on_c, 2, 65, 0
6, 48820, Note_on_c, 2, 62, 0
6, 49204, Note_on_c, 2, 65, 67
6, 49208, Note_on_c, 2, 58, 60
6, 49208, Note_on_c, 2, 62, 72
6, 49240, Control_c, 2, 64, 0
6, 49588, Note_on_c, 2, 74, 79
6, 49920, Note_on_c, 2, 74, 0
6, 49920, Note_on_c, 2, 65, 0
6, 49920, Note_on_c, 2, 58, 0
6, 49920, Note_on_c, 2, 62, 0
6, 49920, Note_on_c, 2, 67, 76
6, 49920, Note_on_c, 2, 63, 65
6, 49920, Note_on_c, 2, 51, 72
6, 49920, Note_on_c, 2, 58, 65
6, 50144, Control_c, 2, 64, 127
6, 50648, Note_on_c, 2, 58, 0
6, 50648, Note_on_c, 2, 67, 0
6, 50652, Note_on_c, 2, 63, 0
6, 50880, Note_on_c, 2, 51, 0
6, 50880, Control_c, 2, 64, 0
6, 50892, Note_on_c, 2, 63, 57
6, 50896, Note_on_c, 2, 70, 63
6, 50896, Note_on_c, 2, 60, 55
6, 50900, Note_on_c, 2, 51, 57
6, 50900, Control_c, 2, 64, 0
6, 51420, Control_c, 2, 64, 127
6, 51784, Note_on_c, 2, 60, 0
6, 51800, Note_on_c, 2, 63, 0
6, 51836, Note_on_c, 2, 70, 0
6, 51840, Note_on_c, 2, 51, 0
6, 51840, Control_c, 2, 64, 0
6, 51840, Note_on_c, 2, 69, 64
6, 52284, Control_c, 2, 64, 127
6, 52520, Note_on_c, 2, 69, 0
6, 52820, Note_on_c, 2, 62, 69
6, 52820, Note_on_c, 2, 50, 59
6, 52824, Note_on_c, 2, 60, 50
6, 52844, Control_c, 2, 64, 0
6, 53336, Control_c, 2, 64, 127
6, 53532, Note_on_c, 2, 60, 0
6, 53556, Note_on_c, 2, 62, 0
6, 53596, Note_on_c, 2, 50, 0
6, 53760, Control_c, 2, 64, 0
6, 53760, Note_on_c, 2, 68, 64
6, 54204, Control_c, 2, 64, 127
6, 54440, Note_on_c, 2, 68, 0
6, 54740, Note_on_c, 2, 63, 69
6, 54740, Note_on_c, 2, 51, 59
6, 54744, Note_on_c, 2, 60, 50
6, 54764, Control_c, 2, 64, 0
6, 55256, Control_c, 2, 64, 127
6, 55452, Note_on_c, 2, 60, 0
6, 55476, Note_on_c, 2, 63, 0
6, 55516, Note_on_c, 2, 51, 0
6, 55680, Control_c, 2, 64, 0
6, 55912, Note_on_c, 2, 67, 65
6, 55920, Note_on_c, 2, 65, 58
6, 55920, Note_on_c, 2, 62, 54
6, 55932, Note_on_c, 2, 58, 64
6, 55936, Note_on_c, 2, 55, 29
6, 56096, Control_c, 2, 64, 127
6, 56172, Note_on_c, 2, 58, 0
6, 56176, Note_on_c, 2, 55, 0
6, 56184, Note_on_c, 2, 62, 0
6, 56196, Note_on_c, 2, 67, 0
6, 56200, Note_on_c, 2, 65, 0
6, 56284, Note_on_c, 2, 67, 58
6, 56300, Note_on_c, 2, 65, 44
6, 56308, Note_on_c, 2, 58, 68
6, 56308, Note_on_c, 2, 55, 23
6, 56316, Note_on_c, 2, 62, 45
6, 56568, Note_on_c, 2, 62, 0
6, 56568, Note_on_c, 2, 58, 0
6, 56580, Note_on_c, 2, 55, 0
6, 56580, Note_on_c, 2, 67, 0
6, 56592, Note_on_c, 2, 65, 0
6, 56640, Control_c, 2, 64, 0
6, 56652, Note_on_c, 2, 58, 81
6, 56664, Note_on_c, 2, 55, 63
6, 56776, Note_on_c, 2, 67, 64
6, 56896, Note_on_c, 2, 65, 63
6, 57012, Note_on_c, 2, 62, 55
6, 57600, Note_on_c, 2, 62, 0
6, 57600, Note_on_c, 2, 67, 0
6, 57600, Note_on_c, 2, 58, 0
6, 57600, Note_on_c, 2, 55, 0
6, 57600, Note_on_c, 2, 65, 0
6, 57600, Control_c, 2, 64, 0
6, 57600, Note_on_c, 2, 63, 67
6, 57600, Note_on_c, 2, 55, 56
6, 57600, Note_on_c, 2, 70, 66
6, 57892, Control_c, 2, 64, 127
6, 58272, Note_on_c, 2, 63, 0
6, 58280, Note_on_c, 2, 70, 0
6, 58372, Note_on_c, 2, 55, 0
6, 59032, Control_c, 2, 64, 0
6, 59044, Note_on_c, 2, 63, 51
6, 59044, Note_on_c, 2, 70, 62
6, 59044, Note_on_c, 2, 79, 62
6, 59044, Note_on_c, 2, 67, 62
6, 59188, Control_c, 2, 64, 127
6, 59276, Note_on_c, 2, 67, 0
6, 59284, Note_on_c, 2, 63, 0
6, 59332, Note_on_c, 2, 70, 0
6, 59520, Note_on_c, 2, 79, 0
6, 59520, Control_c, 2, 64, 0
6, 59520, Control_c, 2, 64, 0
6, 59520, Note_on_c, 2, 62, 67
6, 59520, Note_on_c, 2, 53, 56
6, 59520, Note_on_c, 2, 69, 66
6, 59520, Note_on_c, 2, 60, 56
6, 59812, Control_c, 2, 64, 127
6, 60192, Note_on_c, 2, 62, 0
6, 60200, Note_on_c, 2, 60, 0
6, 60200, Note_on_c, 2, 69, 0
6, 60292, Note_on_c, 2, 53, 0
6, 60952, Control_c, 2, 64, 0
6, 60964, Note_on_c, 2, 62, 51
6, 60964, Note_on_c, 2, 69, 62
6, 60964, Note_on_c, 2, 77, 62
6, 60964, Note_on_c, 2, 65, 62
6, 61108, Control_c, 2, 64, 127
6, 61196, Note_on_c, 2, 65, 0
6, 61204, Note_on_c, 2, 62, 0
6, 61252, Note_on_c, 2, 69, 0
6, 61440, Note_on_c, 2, 77, 0
6, 61440, Control_c, 2, 64, 0
6, 61444, Note_on_c, 2, 60, 68
6, 61452, Note_on_c, 2, 75, 81
6, 61472, Control_c, 2, 64, 0
6, 61952, Control_c, 2, 0, 0
6, 62432, Control_c, 2, 0, 0
6, 62856, Control_c, 2, 64, 127
6, 63096, Note_on_c, 2, 75, 0
6, 63132, Note_on_c, 2, 60, 0
6, 63360, Control_c, 2, 64, 0
6, 63360, Note_on_c, 2, 67, 76
6, 63360, Note_on_c, 2, 62, 65
6, 63360, Note_on_c, 2, 53, 72
6, 63360, Note_on_c, 2, 58, 65
6, 63584, Control_c, 2, 64, 127
6, 64088, Note_on_c, 2, 58, 0
6, 64088, Note_on_c, 2, 67, 0
6, 64092, Note_on_c, 2, 62, 0
6, 64372, Note_on_c, 2, 53, 0
6, 65248, Control_c, 2, 64, 0
6, 65280, Control_c, 2, 64, 0
6, 65304, Note_on_c, 2, 75, 68
6, 65304, Note_on_c, 2, 60, 76
6, 65308, Note_on_c, 2, 70, 68
6, 65324, Note_on_c, 2, 63, 53
6, 65788, Control_c, 2, 64, 127
6, 65996, Note_on_c, 2, 75, 0
6, 66012, Note_on_c, 2, 70, 0
6, 66020, Note_on_c, 2, 63, 0
6, 66100, Note_on_c, 2, 60, 0
6, 66484, Note_on_c, 2, 63, 67
6, 66488, Note_on_c, 2, 58, 60
6, 66488, Note_on_c, 2, 60, 72
6, 66520, Control_c, 2, 64, 0
6, 66868, Note_on_c, 2, 72, 79
6, 67200, Note_on_c, 2, 72, 0
6, 67200, Note_on_c, 2, 63, 0
6, 67200, Note_on_c, 2, 58, 0
6, 67200, Note_on_c, 2, 60, 0
6, 67212, Note_on_c, 2, 65, 47
6, 67212, Note_on_c, 2, 53, 50
6, 67212, Note_on_c, 2, 58, 52
6, 67216, Note_on_c, 2, 67, 56
6, 67224, Control_c, 2, 64, 0
6, 67704, Control_c, 2, 0, 0
6, 68184, Control_c, 2, 0, 0
6, 68624, Control_c, 2, 64, 127
6, 68772, Note_on_c, 2, 65, 0
6, 68784, Note_on_c, 2, 58, 0
6, 68788, Note_on_c, 2, 67, 0
6, 68864, Note_on_c, 2, 53, 0
6, 69088, Control_c, 2, 64, 0
6, 69120, Control_c, 2, 64, 76
6, 69120, Control_c, 2, 64, 0
6, 69124, Note_on_c, 2, 60, 68
6, 69132, Note_on_c, 2, 75, 81
6, 69152, Control_c, 2, 64, 0
6, 69632, Control_c, 2, 0, 0
6, 70112, Control_c, 2, 0, 0
6, 70536, Control_c, 2, 64, 127
6, 70776, Note_on_c, 2, 75, 0
6, 70812, Note_on_c, 2, 60, 0
6, 71040, Control_c, 2, 64, 0
6, 71040, Control_c, 2, 64, 0
6, 71064, Note_on_c, 2, 77, 68
6, 71064, Note_on_c, 2, 62, 76
6, 71068, Note_on_c, 2, 70, 68
6, 71084, Note_on_c, 2, 65, 53
6, 71548, Control_c, 2, 64, 127
6, 71756, Note_on_c, 2, 77, 0
6, 71772, Note_on_c, 2, 70, 0
6, 71780, Note_on_c, 2, 65, 0
6, 71860, Note_on_c, 2, 62, 0
6, 72244, Note_on_c, 2, 65, 67
6, 72248, Note_on_c, 2, 58, 60
6, 72248, Note_on_c, 2, 62, 72
6, 72280, Control_c, 2, 64, 0
6, 72628, Note_on_c, 2, 74, 79
6, 72960, Note_on_c, 2, 74, 0
6, 72960, Note_on_c, 2, 65, 0
6, 72960, Note_on_c, 2, 58, 0
6, 72960, Note_on_c, 2, 62, 0
6, 72960, Note_on_c, 2, 70, 64
6, 73404, Control_c, 2, 64, 127
6, 73640, Note_on_c, 2, 70, 0
6, 73940, Note_on_c, 2, 63, 69
6, 73940, Note_on_c, 2, 51, 59
6, 73944, Note_on_c, 2, 62, 50
6, 73964, Control_c, 2, 64, 0
6, 74456, Control_c, 2, 64, 127
6, 74652, Note_on_c, 2, 62, 0
6, 74676, Note_on_c, 2, 63, 0
6, 74716, Note_on_c, 2, 51, 0
6, 74880, Control_c, 2, 64, 0
6, 74892, Note_on_c, 2, 65, 47
6, 74892, Note_on_c, 2, 53, 50
6, 74892, Note_on_c, 2, 58, 52
6, 74896, Note_on_c, 2, 69, 56
6, 74904, Control_c, 2, 64, 0
6, 75384, Control_c, 2, 0, 0
6, 75864, Control_c, 2, 0, 0
6, 76304, Control_c, 2, 64, 127
6, 76452, Note_on_c, 2, 65, 0
6, 76464, Note_on_c, 2, 58, 0
6, 76468, Note_on_c, 2, 69, 0
6, 76544, Note_on_c, 2, 53, 0
6, 76768, Control_c, 2, 64, 0
6, 76800, Control_c, 2, 64, 76
6, 76800, Control_c, 2, 64, 0
6, 76812, Note_on_c, 2, 63, 57
6, 76816, Note_on_c, 2, 68, 63
6, 76816, Note_on_c, 2, 60, 55
6, 76820, Note_on_c, 2, 51, 57
6, 76820, Control_c, 2, 64, 0
6, 77340, Control_c, 2, 64, 127
6, 77704, Note_on_c, 2, 60, 0
6, 77720, Note_on_c, 2, 63, 0
6, 77756, Note_on_c, 2, 68, 0
6, 78460, Note_on_c, 2, 51, 0
6, 78476, Note_on_c, 2, 63, 50
6, 78588, Note_on_c, 2, 68, 58
6, 78720, Note_on_c, 2, 68, 0
6, 78720, Note_on_c, 2, 63, 0
6, 78720, Control_c, 2, 64, 0
6, 79208, Note_on_c, 2, 89, 83
6, 79208, Note_on_c, 2, 58, 50
6, 79208, Note_on_c, 2, 62, 44
6, 79212, Note_on_c, 2, 65, 36
6, 79336, Note_on_c, 2, 79, 26
6, 79372, Note_on_c, 2, 89, 0
6, 79436, Note_on_c, 2, 79, 0
6, 79448, Note_on_c, 2, 82, 48
6, 79564, Note_on_c, 2, 77, 51
6, 79700, Control_c, 2, 64, 127
6, 79736, Note_on_c, 2, 58, 0
6, 79736, Note_on_c, 2, 62, 0
6, 79740, Note_on_c, 2, 82, 0
6, 79756, Note_on_c, 2, 65, 0
6, 79760, Note_on_c, 2, 77, 0
6, 80640, Control_c, 2, 64, 0
6, 80640, Note_on_c, 2, 70, 64
6, 81084, Control_c, 2, 64, 127
6, 81320, Note_on_c, 2, 70, 0
6, 81620, Note_on_c, 2, 63, 69
6, 81620, Note_on_c, 2, 51, 59
6, 81624, Note_on_c, 2, 62, 50
6, 81644, Control_c, 2, 64, 0
6, 82136, Control_c, 2, 64, 127
6, 82332, Note_on_c, 2, 62, 0
6, 82356, Note_on_c, 2, 63, 0
6, 82396, Note_on_c, 2, 51, 0
6, 82560, Control_c, 2, 64, 0
6, 82580, Note_on_c, 2, 57, 44
6, 82584, Note_on_c, 2, 65, 67
6, 82584, Note_on_c, 2, 70, 61
6, 82584, Note_on_c, 2, 62, 66
6, 82592, Note_on_c, 2, 53, 46
6, 82812, Note_on_c, 2, 65, 0
6, 82812, Note_on_c, 2, 69, 74
6, 82820, Note_on_c, 2, 53, 0
6, 82828, Note_on_c, 2, 53, 43
6, 82832, Note_on_c, 2, 57, 0
6, 82840, Note_on_c, 2, 70, 0
6, 82872, Note_on_c, 2, 53, 0
6, 82936, Note_on_c, 2, 69, 0
6, 82944, Note_on_c, 2, 65, 70
6, 82956, Note_on_c, 2, 57, 77
6, 83372, Control_c, 2, 64, 127
6, 83384, Note_on_c, 2, 57, 0
6, 83404, Note_on_c, 2, 62, 0
6, 83432, Note_on_c, 2, 65, 0
6, 84096, Control_c, 2, 64, 0
6, 84480, Control_c, 2, 64, 0
6, 84504, Note_on_c, 2, 75, 68
6, 84504, Note_on_c, 2, 60, 76
6, 84508, Note_on_c, 2, 68, 68
6, 84524, Note_on_c, 2, 63, 53
6, 84988, Control_c, 2, 64, 127
6, 85196, Note_on_c, 2, 75, 0
6, 85212, Note_on_c, 2, 68, 0
6, 85220, Note_on_c, 2, 63, 0
6, 85300, Note_on_c, 2, 60, 0
6, 85684, Note_on_c, 2, 63, 67
6, 85688, Note_on_c, 2, 56, 60
6, 85688, Note_on_c, 2, 60, 72
6, 85720, Control_c, 2, 64, 0
6, 86068, Note_on_c, 2, 72, 79
6, 86400, Note_on_c, 2, 72, 0
6, 86400, Note_on_c, 2, 63, 0
6, 86400, Note_on_c, 2, 56, 0
6, 86400, Note_on_c, 2, 60, 0
6, 86756, Note_on_c, 2, 58, 44
6, 86756, Note_on_c, 2, 81, 76
6, 86760, Note_on_c, 2, 65, 58
6, 86764, Note_on_c, 2, 70, 57
6, 86768, Note_on_c, 2, 77, 67
6, 86820, Note_on_c, 2, 58, 0
6, 86828, Note_on_c, 2, 70, 0
6, 86844, Note_on_c, 2, 65, 0
6, 86848, Note_on_c, 2, 81, 0
6, 86860, Note_on_c, 2, 77, 0
6, 86892, Note_on_c, 2, 70, 46
6, 86892, Note_on_c, 2, 77, 48
6, 86896, Note_on_c, 2, 69, 30
6, 86900, Note_on_c, 2, 58, 28
6, 86904, Note_on_c, 2, 65, 42
6, 86956, Note_on_c, 2, 58, 0
6, 86956, Note_on_c, 2, 70, 0
6, 86960, Note_on_c, 2, 65, 0
6, 86968, Note_on_c, 2, 69, 0
6, 86968, Note_on_c, 2, 77, 0
6, 87720, Note_on_c, 2, 69, 63
6, 87720, Note_on_c, 2, 65, 56
6, 87720, Note_on_c, 2, 58, 54
6, 87724, Note_on_c, 2, 70, 68
6, 87728, Note_on_c, 2, 53, 42
6, 87772, Note_on_c, 2, 65, 0
6, 87796, Note_on_c, 2, 53, 0
6, 87804, Note_on_c, 2, 69, 0
6, 87820, Note_on_c, 2, 70, 0
6, 87836, Note_on_c, 2, 58, 0
6, 87840, Note_on_c, 2, 57, 47
6, 87844, Note_on_c, 2, 58, 42
6, 87844, Note_on_c, 2, 65, 48
6, 87848, Note_on_c, 2, 70, 41
6, 87852, Note_on_c, 2, 77, 47
6, 87916, Note_on_c, 2, 58, 0
6, 87920, Note_on_c, 2, 57, 0
6, 87920, Note_on_c, 2, 65, 0
6, 87924, Note_on_c, 2, 70, 0
6, 87936, Note_on_c, 2, 77, 0
6, 88092, Note_on_c, 2, 69, 29
6, 88092, Note_on_c, 2, 58, 27
6, 88096, Note_on_c, 2, 65, 38
6, 88096, Note_on_c, 2, 70, 45
6, 88116, Note_on_c, 2, 53, 5
6, 88144, Note_on_c, 2, 69, 0
6, 88156, Note_on_c, 2, 70, 0
6, 88156, Note_on_c, 2, 58, 0
6, 88156, Note_on_c, 2, 53, 0
6, 88160, Note_on_c, 2, 65, 0
6, 88332, Note_on_c, 2, 63, 47
6, 88332, Note_on_c, 2, 51, 50
6, 88332, Note_on_c, 2, 58, 52
6, 88336, Note_on_c, 2, 67, 56
6, 88344, Control_c, 2, 64, 0
6, 88824, Control_c, 2, 0, 0
6, 89304, Control_c, 2, 0, 0
6, 89744, Control_c, 2, 64, 127
6, 89892, Note_on_c, 2, 63, 0
6, 89904, Note_on_c, 2, 58, 0
6, 89908, Note_on_c, 2, 67, 0
6, 89984, Note_on_c, 2, 51, 0
6, 90208, Control_c, 2, 64, 0
6, 90240, Control_c, 2, 64, 76
6, 90240, Control_c, 2, 64, 0
6, 90260, Note_on_c, 2, 74, 86
6, 90260, Note_on_c, 2, 65, 74
6, 90260, Note_on_c, 2, 62, 62
6, 90268, Note_on_c, 2, 58, 63
6, 90680, Control_c, 2, 64, 127
6, 90692, Note_on_c, 2, 74, 0
6, 90708, Note_on_c, 2, 62, 0
6, 90724, Note_on_c, 2, 65, 0
6, 90736, Note_on_c, 2, 58, 0
6, 90952, Control_c, 2, 64, 0
6, 90956, Note_on_c, 2, 55, 49
6, 90960, Note_on_c, 2, 70, 53
6, 90960, Note_on_c, 2, 65, 60
6, 90960, Note_on_c, 2, 62, 50
6, 91220, Control_c, 2, 64, 127
6, 91388, Note_on_c, 2, 55, 0
6, 91392, Note_on_c, 2, 70, 0
6, 91400, Note_on_c, 2, 65, 0
6, 91440, Note_on_c, 2, 62, 0
6, 91672, Control_c, 2, 64, 0
6, 92160, Control_c, 2, 64, 0
6, 92164, Note_on_c, 2, 60, 70
6, 92164, Note_on_c, 2, 75, 79
6, 92164, Note_on_c, 2, 68, 76
6, 92176, Note_on_c, 2, 65, 47
6, 92492, Control_c, 2, 64, 127
6, 92600, Note_on_c, 2, 75, 0
6, 92608, Note_on_c, 2, 68, 0
6, 92636, Note_on_c, 2, 65, 0
6, 92680, Note_on_c, 2, 60, 0
6, 93132, Note_on_c, 2, 53, 57
6, 93132, Note_on_c, 2, 63, 57
6, 93136, Note_on_c, 2, 68, 46
6, 93136, Note_on_c, 2, 60, 42
6, 93140, Control_c, 2, 64, 0
6, 93616, Note_on_c, 2, 65, 61
6, 93656, Note_on_c, 2, 68, 0
6, 93684, Control_c, 2, 64, 127
6, 93848, Note_on_c, 2, 53, 0
6, 93876, Note_on_c, 2, 60, 0
6, 93888, Note_on_c, 2, 63, 0
6, 93896, Note_on_c, 2, 65, 0
6, 94080, Control_c, 2, 64, 0
6, 94080, Control_c, 2, 64, 0
6, 94080, Note_on_c, 2, 65, 67
6, 94080, Note_on_c, 2, 55, 56
6, 94080, Note_on_c, 2, 70, 66
6, 94080, Note_on_c, 2, 62, 56
6, 94372, Control_c, 2, 64, 127
6, 94752, Note_on_c, 2, 65, 0
6, 94760, Note_on_c, 2, 62, 0
6, 94760, Note_on_c, 2, 70, 0
6, 94852, Note_on_c, 2, 55, 0
6, 95512, Control_c, 2, 64, 0
6, 95524, Note_on_c, 2, 65, 51
6, 95524, Note_on_c, 2, 70, 62
6, 95524, Note_on_c, 2, 79, 62
6, 95524, Note_on_c, 2, 67, 62
6, 95668, Control_c, 2, 64, 127
6, 95756, Note_on_c, 2, 67, 0
6, 95764, Note_on_c, 2, 65, 0
6, 95812, Note_on_c, 2, 70, 0
6, 96000, Note_on_c, 2, 79, 0
6, 96000, Control_c, 2, 64, 0
6, 96000, Note_on_c, 2, 70, 64
6, 96444, Control_c, 2, 64, 127
6, 96680, Note_on_c, 2, 70, 0
6, 96980, Note_on_c, 2, 63, 69
6, 96980, Note_on_c, 2, 51, 59
6, 96984, Note_on_c, 2, 62, 50
6, 97004, Control_c, 2, 64, 0
6, 97496, Control_c, 2, 64, 127
6, 97692, Note_on_c, 2, 62, 0
6, 97716, Note_on_c, 2, 63, 0
6, 97756, Note_on_c, 2, 51, 0
6, 97920, Control_c, 2, 64, 0
6, 97920, Control_c, 2, 64, 0
6, 97920, Note_on_c, 2, 65, 67
6, 97920, Note_on_c, 2, 55, 56
6, 97920, Note_on_c, 2, 70, 66
6, 97920, Note_on_c, 2, 62, 56
6, 98212, Control_c, 2, 64, 127
6, 98592, Note_on_c, 2, 65, 0
6, 98600, Note_on_c, 2, 62, 0
6, 98600, Note_on_c, 2, 70, 0
6, 98692, Note_on_c, 2, 55, 0
6, 99352, Control_c, 2, 64, 0
6, 99364, Note_on_c, 2, 65, 51
6, 99364, Note_on_c, 2, 70, 62
6, 99364, Note_on_c, 2, 79, 62
6, 99364, Note_on_c, 2, 67, 62
6, 99508, Control_c, 2, 64, 127
6, 99596, Note_on_c, 2, 67, 0
6, 99604, Note_on_c, 2, 65, 0
6, 99652, Note_on_c, 2, 70, 0
6, 99840, Note_on_c, 2, 79, 0
6, 99840, Control_c, 2, 64, 0
6, 99860, Note_on_c, 2, 91, 85
6, 99972, Note_on_c, 2, 84, 67
6, 100072, Note_on_c, 2, 84, 0
6, 100084, Note_on_c, 2, 87, 64
6, 100192, Note_on_c, 2, 75, 79
6, 100196, Note_on_c, 2, 60, 60
6, 100196, Note_on_c, 2, 56, 65
6, 100200, Note_on_c, 2, 63, 49
6, 100200, Note_on_c, 2, 51, 49
6, 100264, Control_c, 2, 64, 127
6, 100420, Note_on_c, 2, 91, 0
6, 100448, Note_on_c, 2, 75, 0
6, 100452, Note_on_c, 2, 87, 0
6, 100904, Note_on_c, 2, 63, 0
6, 101052, Note_on_c, 2, 79, 79
6, 101068, Control_c, 2, 64, 0
6, 101180, Note_on_c, 2, 72, 53
6, 101300, Note_on_c, 2, 75, 61
6, 101324, Note_on_c, 2, 72, 0
6, 101416, Note_on_c, 2, 63, 66
6, 101456, Control_c, 2, 64, 127
6, 101472, Note_on_c, 2, 56, 0
6, 101484, Note_on_c, 2, 60, 0
6, 101484, Note_on_c, 2, 51, 0
6, 101504, Note_on_c, 2, 63, 0
6, 101516, Note_on_c, 2, 75, 0
6, 101524, Note_on_c, 2, 79, 0
6, 101752, Control_c, 2, 64, 0
6, 102000, Note_on_c, 2, 86, 87
6, 102004, Note_on_c, 2, 70, 70
6, 102004, Note_on_c, 2, 77, 63
6, 102004, Note_on_c, 2, 65, 71
6, 102108, Note_on_c, 2, 65, 0
6, 102112, Note_on_c, 2, 70, 0
6, 102116, Note_on_c, 2, 86, 0
6, 102140, Note_on_c, 2, 82, 47
6, 102144, Note_on_c, 2, 89, 61
6, 102152, Note_on_c, 2, 65, 41
6, 102152, Note_on_c, 2, 70, 46
6, 102204, Note_on_c, 2, 82, 0
6, 102212, Note_on_c, 2, 89, 0
6, 102216, Note_on_c, 2, 70, 0
6, 102216, Note_on_c, 2, 65, 0
6, 102220, Note_on_c, 2, 77, 0
6, 102716, Note_on_c, 2, 77, 84
6, 102720, Note_on_c, 2, 70, 65
6, 102720, Note_on_c, 2, 65, 67
6, 102724, Note_on_c, 2, 62, 63
6, 102824, Note_on_c, 2, 77, 0
6, 102828, Note_on_c, 2, 77, 54
6, 102840, Note_on_c, 2, 79, 39
6, 102948, Note_on_c, 2, 77, 0
6, 102952, Note_on_c, 2, 77, 60
6, 102960, Note_on_c, 2, 79, 0
6, 103096, Note_on_c, 2, 77, 0
6, 103108, Note_on_c, 2, 62, 0
6, 103108, Note_on_c, 2, 70, 0
6, 103116, Note_on_c, 2, 65, 0
6, 103680, Control_c, 2, 64, 0
6, 103680, Note_on_c, 2, 63, 67
6, 103680, Note_on_c, 2, 55, 56
6, 103680, Note_on_c, 2, 70, 66
6, 103680, Note_on_c, 2, 60, 56
6, 103972, Control_c, 2, 64, 127
6, 104352, Note_on_c, 2, 63, 0
6, 104360, Note_on_c, 2, 60, 0
6, 104360, Note_on_c, 2, 70, 0
6, 104452, Note_on_c, 2, 55, 0
6, 105112, Control_c, 2, 64, 0
6, 105124, Note_on_c, 2, 63, 51
6, 105124, Note_on_c, 2, 70, 62
6, 105124, Note_on_c, 2, 79, 62
6, 105124, Note_on_c, 2, 67, 62
6, 105268, Control_c, 2, 64, 127
6, 105356, Note_on_c, 2, 67, 0
6, 105364, Note_on_c, 2, 63, 0
6, 105412, Note_on_c, 2, 70, 0
6, 105600, Note_on_c, 2, 79, 0
6, 105600, Control_c, 2, 64, 0
6, 105600, Control_c, 2, 64, 0
6, 105604, Note_on_c, 2, 62, 70
6, 105604, Note_on_c, 2, 77, 79
6, 105604, Note_on_c, 2, 70, 76
6, 105616, Note_on_c, 2, 67, 47
6, 105932, Control_c, 2, 64, 127
6, 106040, Note_on_c, 2, 77, 0
6, 106048, Note_on_c, 2, 70, 0
6, 106076, Note_on_c, 2, 67, 0
6, 106120, Note_on_c, 2, 62, 0
6, 106572, Note_on_c, 2, 55, 57
6, 106572, Note_on_c, 2, 65, 57
6, 106576, Note_on_c, 2, 70, 46
6, 106576, Note_on_c, 2, 62, 42
6, 106580, Control_c, 2, 64, 0
6, 107056, Note_on_c, 2, 67, 61
6, 107096, Note_on_c, 2, 70, 0
6, 107124, Control_c, 2, 64, 127
6, 107288, Note_on_c, 2, 55, 0
6, 107316, Note_on_c, 2, 62, 0
6, 107328, Note_on_c, 2, 65, 0
6, 107336, Note_on_c, 2, 67, 0
6, 107520, Control_c, 2, 64, 0
6, 107532, Note_on_c, 2, 63, 57
6, 107536, Note_on_c, 2, 68, 63
6, 107536, Note_on_c, 2, 60, 55
6, 107540, Note_on_c, 2, 51, 57
6, 107540, Control_c, 2, 64, 0
6, 108060, Control_c, 2, 64, 127
6, 108424, Note_on_c, 2, 60, 0
6, 108440, Note_on_c, 2, 63, 0
6, 108476, Note_on_c, 2, 68, 0
6, 109180, Note_on_c, 2, 51, 0
6, 109196, Note_on_c, 2, 63, 50
6, 109308, Note_on_c, 2, 68, 58
6, 109440, Note_on_c, 2, 68, 0
6, 109440, Note_on_c, 2, 63, 0
6, 109440, Control_c, 2, 64, 0
6, 109672, Note_on_c, 2, 65, 50
6, 109672, Note_on_c, 2, 93, 69
6, 109672, Note_on_c, 2, 62, 47
6, 109672, Note_on_c, 2, 89, 65
6, 109676, Note_on_c, 2, 81, 56
6, 109684, Note_on_c, 2, 58, 29
6, 109684, Note_on_c, 2, 53, 15
6, 109712, Note_on_c, 2, 89, 0
6, 109720, Note_on_c, 2, 58, 0
6, 109720, Note_on_c, 2, 93, 0
6, 109720, Note_on_c, 2, 62, 0
6, 109720, Note_on_c, 2, 53, 0
6, 109724, Note_on_c, 2, 81, 0
6, 109728, Note_on_c, 2, 65, 0
6, 109920, Note_on_c, 2, 81, 66
6, 109920, Note_on_c, 2, 65, 57
6, 109920, Note_on_c, 2, 93, 72
6, 109920, Note_on_c, 2, 89, 71
6, 109924, Note_on_c, 2, 62, 53
6, 109936, Note_on_c, 2, 53, 21
6, 109940, Note_on_c, 2, 58, 26
6, 109972, Note_on_c, 2, 89, 0
6, 109980, Note_on_c, 2, 81, 0
6, 109984, Note_on_c, 2, 93, 0
6, 109988, Note_on_c, 2, 58, 0
6, 109988, Note_on_c, 2, 53, 0
6, 109992, Note_on_c, 2, 65, 0
6, 109992, Note_on_c, 2, 62, 0
6, 110772, Note_on_c, 2, 81, 60
6, 110776, Note_on_c, 2, 89, 63
6, 110776, Note_on_c, 2, 93, 61
6, 110780, Note_on_c, 2, 53, 51
6, 110780, Note_on_c, 2, 62, 50
6, 110780, Note_on_c, 2, 65, 48
6, 110784, Note_on_c, 2, 58, 56
6, 110832, Note_on_c, 2, 89, 0
6, 110836, Note_on_c, 2, 81, 0
6, 110836, Note_on_c, 2, 93, 0
6, 110844, Note_on_c, 2, 62, 0
6, 110848, Note_on_c, 2, 53, 0
6, 110848, Note_on_c, 2, 58, 0
6, 110856, Note_on_c, 2, 65, 0
6, 110884, Note_on_c, 2, 65, 9
6, 110884, Note_on_c, 2, 81, 46
6, 110888, Note_on_c, 2, 62, 36
6, 110888, Note_on_c, 2, 89, 58
6, 110888, Note_on_c, 2, 58, 41
6, 110892, Note_on_c, 2, 53, 39
6, 110892, Note_on_c, 2, 93, 31
6, 110952, Note_on_c, 2, 89, 0
6, 110952, Note_on_c, 2, 81, 0
6, 110960, Note_on_c, 2, 62, 0
6, 110960, Note_on_c, 2, 93, 0
6, 110968, Note_on_c, 2, 53, 0
6, 110972, Note_on_c, 2, 58, 0
6, 110972, Note_on_c, 2, 65, 0
6, 111004, Note_on_c, 2, 58, 27
6, 111004, Note_on_c, 2, 65, 19
6, 111008, Note_on_c, 2, 53, 30
6, 111008, Note_on_c, 2, 62, 49
6, 111008, Note_on_c, 2, 89, 56
6, 111008, Note_on_c, 2, 81, 40
6, 111012, Note_on_c, 2, 93, 44
6, 111056, Note_on_c, 2, 65, 0
6, 111060, Note_on_c, 2, 89, 0
6, 111060, Note_on_c, 2, 93, 0
6, 111064, Note_on_c, 2, 62, 0
6, 111064, Note_on_c, 2, 81, 0
6, 111068, Note_on_c, 2, 53, 0
6, 111068, Note_on_c, 2, 58, 0
6, 111360, Note_on_c, 2, 67, 76
6, 111360, Note_on_c, 2, 60, 65
6, 111360, Note_on_c, 2, 51, 72
6, 111360, Note_on_c, 2, 58, 65
6, 111584, Control_c, 2, 64, 127
6, 112088, Note_on_c, 2, 58, 0
6, 112088, Note_on_c, 2, 67, 0
6, 112092, Note_on_c, 2, 60, 0
6, 112372, Note_on_c, 2, 51, 0
6, 113248, Control_c, 2, 64, 0
6, 113292, Note_on_c, 2, 65, 57
6, 113296, Note_on_c, 2, 70, 63
6, 113296, Note_on_c, 2, 62, 55
6, 113300, Note_on_c, 2, 53, 57
6, 113300, Control_c, 2, 64, 0
6, 113820, Control_c, 2, 64, 127
6, 114184, Note_on_c, 2, 62, 0
6, 114200, Note_on_c, 2, 65, 0
6, 114236, Note_on_c, 2, 70, 0
6, 114940, Note_on_c, 2, 53, 0
6, 114956, Note_on_c, 2, 65, 50
6, 115068, Note_on_c, 2, 70, 58
6, 115200, Note_on_c, 2, 70, 0
6, 115200, Note_on_c, 2, 65, 0
6, 115200, Control_c, 2, 64, 0
6, 115220, Note_on_c, 2, 89, 85
6, 115332, Note_on_c, 2, 84, 67
6, 115432, Note_on_c, 2, 84, 0
6, 115444, Note_on_c, 2, 87, 64
6, 115552, Note_on_c, 2, 75, 79
6, 115556, Note_on_c, 2, 60, 60
6, 115556, Note_on_c, 2, 56, 65
6, 115560, Note_on_c, 2, 63, 49
6, 115560, Note_on_c, 2, 51, 49
6, 115624, Control_c, 2, 64, 127
6, 115780, Note_on_c, 2, 89, 0
6, 115808, Note_on_c, 2, 75, 0
6, 115812, Note_on_c, 2, 87, 0
6, 116264, Note_on_c, 2, 63, 0
6, 116412, Note_on_c, 2, 77, 79
6, 116428, Control_c, 2, 64, 0
6, 116540, Note_on_c, 2, 72, 53
6, 116660, Note_on_c, 2, 75, 61
6, 116684, Note_on_c, 2, 72, 0
6, 116776, Note_on_c, 2, 63, 66
6, 116816, Control_c, 2, 64, 127
6, 116832, Note_on_c, 2, 56, 0
6, 116844, Note_on_c, 2, 60, 0
6, 116844, Note_on_c, 2, 51, 0
6, 116864, Note_on_c, 2, 63, 0
6, 116876, Note_on_c, 2, 75, 0
6, 116884, Note_on_c, 2, 77, 0
6, 117112, Control_c, 2, 64, 0
6, 117352, Note_on_c, 2, 65, 50
6, 117352, Note_on_c, 2, 91, 69
6, 117352, Note_on_c, 2, 62, 47
6, 117352, Note_on_c, 2, 89, 65
6, 117356, Note_on_c, 2, 79, 56
6, 117364, Note_on_c, 2, 58, 29
6, 117364, Note_on_c, 2, 53, 15
6, 117392, Note_on_c, 2, 89, 0
6, 117400, Note_on_c, 2, 58, 0
6, 117400, Note_on_c, 2, 91, 0
6, 117400, Note_on_c, 2, 62, 0
6, 117400, Note_on_c, 2, 53, 0
6, 117404, Note_on_c, 2, 79, 0
6, 117408, Note_on_c, 2, 65, 0
6, 117600, Note_on_c, 2, 79, 66
6, 117600, Note_on_c, 2, 65, 57
6, 117600, Note_on_c, 2, 91, 72
6, 117600, Note_on_c, 2, 89, 71
6, 117604, Note_on_c, 2, 62, 53
6, 117616, Note_on_c, 2, 53, 21
6, 117620, Note_on_c, 2, 58, 26
6, 117652, Note_on_c, 2, 89, 0
6, 117660, Note_on_c, 2, 79, 0
6, 117664, Note_on_c, 2, 91, 0
6, 117668, Note_on_c, 2, 58, 0
6, 117668, Note_on_c, 2, 53, 0
6, 117672, Note_on_c, 2, 65, 0
6, 117672, Note_on_c, 2, 62, 0
6, 118452, Note_on_c, 2, 79, 60
6, 118456, Note_on_c, 2, 89, 63
6, 118456, Note_on_c, 2, 91, 61
6, 118460, Note_on_c, 2, 53, 51
6, 118460, Note_on_c, 2, 62, 50
6, 118460, Note_on_c, 2, 65, 48
6, 118464, Note_on_c, 2, 58, 56
6, 118512, Note_on_c, 2, 89, 0
6, 118516, Note_on_c, 2, 79, 0
6, 118516, Note_on_c, 2, 91, 0
6, 118524, Note_on_c, 2, 62, 0
6, 118528, Note_on_c, 2, 53, 0
6, 118528, Note_on_c, 2, 58, 0
6, 118536, Note_on_c, 2, 65, 0
6, 118564, Note_on_c, 2, 65, 9
6, 118564, Note_on_c, 2, 79, 46
6, 118568, Note_on_c, 2, 62, 36
6, 118568, Note_on_c, 2, 89, 58
6, 118568, Note_on_c, 2, 58, 41
6, 118572, Note_on_c, 2, 53, 39
6, 118572, Note_on_c, 2, 91, 31
6, 118632, Note_on_c, 2, 89, 0
6, 118632, Note_on_c, 2, 79, 0
6, 118640, Note_on_c, 2, 62, 0
6, 118640, Note_on_c, 2, 91, 0
6, 118648, Note_on_c, 2, 53, 0
6, 118652, Note_on_c, 2, 58, 0
6, 118652, Note_on_c, 2, 65, 0
6, 118684, Note_on_c, 2, 58, 27
6, 118684, Note_on_c, 2, 65, 19
6, 118688, Note_on_c, 2, 53, 30
6, 118688, Note_on_c, 2, 62, 49
6, 118688, Note_on_c, 2, 89, 56
6, 118688, Note_on_c, 2, 79, 40
6, 118692, Note_on_c, 2, 91, 44
6, 118736, Note_on_c, 2, 65, 0
6, 118740, Note_on_c, 2, 89, 0
6, 118740, Note_on_c, 2, 91, 0
6, 118744, Note_on_c, 2, 62, 0
6, 118744, Note_on_c, 2, 79, 0
6, 118748, Note_on_c, 2, 53, 0
6, 118748, Note_on_c, 2, 58, 0
6, 119052, Note_on_c, 2, 63, 57
6, 119056, Note_on_c, 2, 70, 63
6, 119056, Note_on_c, 2, 60, 55
6, 119060, Note_on_c, 2, 51, 57
6, 119060, Control_c, 2, 64, 0
6, 119580, Control_c, 2, 64, 127
6, 119944, Note_on_c, 2, 60, 0
6, 119960, Note_on_c, 2, 63, 0
6, 119996, Note_on_c, 2, 70, 0
6, 120700, Note_on_c, 2, 51, 0
6, 120716, Note_on_c, 2, 63, 50
6, 120828, Note_on_c, 2, 70, 58
6, 120960, Note_on_c, 2, 70, 0
6, 120960, Note_on_c, 2, 63, 0
6, 120960, Control_c, 2, 64, 0
6, 120960, Control_c, 2, 64, 0
6, 120964, Note_on_c, 2, 62, 70
6, 120964, Note_on_c, 2, 77, 79
6, 120964, Note_on_c, 2, 70, 76
6, 120976, Note_on_c, 2, 67, 47
6, 121292, Control_c, 2, 64, 127
6, 121400, Note_on_c, 2, 77, 0
6, 121408, Note_on_c, 2, 70, 0
6, 121436, Note_on_c, 2, 67, 0
6, 121480, Note_on_c, 2, 62, 0
6, 121932, Note_on_c, 2, 55, 57
6, 121932, Note_on_c, 2, 65, 57
6, 121936, Note_on_c, 2, 70, 46
6, 121936, Note_on_c, 2, 62, 42
6, 121940, Control_c, 2, 64, 0
6, 122416, Note_on_c, 2, 67, 61
6, 122456, Note_on_c, 2, 70, 0
6, 122484, Control_c, 2, 64, 127
6, 122648, Note_on_c, 2, 55, 0
6, 122676, Note_on_c, 2, 62, 0
6, 122688, Note_on_c, 2, 65, 0
6, 122696, Note_on_c, 2, 67, 0
6, 122880, Control_c, 2, 64, 0
6, 122880, Control_c, 2, 64, 0
6, 122880, Note_on_c, 2, 63, 67
6, 122880, Note_on_c, 2, 53, 56
6, 122880, Note_on_c, 2, 68, 66
6, 122880, Note_on_c, 2, 60, 56
6, 123172, Control_c, 2, 64, 127
6, 123552, Note_on_c, 2, 63, 0
6, 123560, Note_on_c, 2, 60, 0
6, 123560, Note_on_c, 2, 68, 0
6, 123652, Note_on_c, 2, 53, 0
6, 124312, Control_c, 2, 64, 0
6, 124324, Note_on_c, 2, 63, 51
6, 124324, Note_on_c, 2, 68, 62
6, 124324, Note_on_c, 2, 77, 62
6, 124324, Note_on_c, 2, 65, 62
6, 124468, Control_c, 2, 64, 127
6, 124556, Note_on_c, 2, 65, 0
6, 124564, Note_on_c, 2, 63, 0
6, 124612, Note_on_c, 2, 68, 0
6, 124800, Note_on_c, 2, 77, 0
6, 124800, Control_c, 2, 64, 0
6, 124812, Note_on_c, 2, 65, 57
6, 124816, Note_on_c, 2, 70, 63
6, 124816, Note_on_c, 2, 62, 55
6, 124820, Note_on_c, 2, 53, 57
6, 124820, Control_c, 2, 64, 0
6, 125340, Control_c, 2, 64, 127
6, 125704, Note_on_c, 2, 62, 0
6, 125720, Note_on_c, 2, 65, 0
6, 125756, Note_on_c, 2, 70, 0
6, 126460, Note_on_c, 2, 53, 0
6, 126476, Note_on_c, 2, 65, 50
6, 126588, Note_on_c, 2, 70, 58
6, 126720, Note_on_c, 2, 70, 0
6, 126720, Note_on_c, 2, 65, 0
6, 126720, Control_c, 2, 64, 0
6, 126720, Control_c, 2, 64, 0
6, 126720, Note_on_c, 2, 63, 67
6, 126720, Note_on_c, 2, 55, 56
6, 126720, Note_on_c, 2, 70, 66
6, 126720, Note_on_c, 2, 60, 56
6, 127012, Control_c, 2, 64, 127
6, 127392, Note_on_c, 2, 63, 0
6, 127400, Note_on_c, 2, 60, 0
6, 127400, Note_on_c, 2, 70, 0
6, 127492, Note_on_c, 2, 55, 0
6, 128152, Control_c, 2, 64, 0
6, 128164, Note_on_c, 2, 63, 51
6, 128164, Note_on_c, 2, 70, 62
6, 128164, Note_on_c, 2, 79, 62
6, 128164, Note_on_c, 2, 67, 62
6, 128308, Control_c, 2, 64, 127
6, 128396, Note_on_c, 2, 67, 0
6, 128404, Note_on_c, 2, 63, 0
6, 128452, Note_on_c, 2, 70, 0
6, 128640, Note_on_c, 2, 79, 0
6, 128640, Control_c, 2, 64, 0
6, 128660, Note_on_c, 2, 74, 86
6, 128660, Note_on_c, 2, 65, 74
6, 128660, Note_on_c, 2, 62, 62
6, 128668, Note_on_c, 2, 58, 63
6, 129080, Control_c, 2, 64, 127
6, 129092, Note_on_c, 2, 74, 0
6, 129108, Note_on_c, 2, 62, 0
6, 129124, Note_on_c, 2, 65, 0
6, 129136, Note_on_c, 2, 58, 0
6, 129352, Control_c, 2, 64, 0
6, 129356, Note_on_c, 2, 57, 49
6, 129360, Note_on_c, 2, 70, 53
6, 129360, Note_on_c, 2, 65, 60
6, 129360, Note_on_c, 2, 62, 50
6, 129620, Control_c, 2, 64, 127
6, 129788, Note_on_c, 2, 57, 0
6, 129792, Note_on_c, 2, 70, 0
6, 129800, Note_on_c, 2, 65, 0
6, 129840, Note_on_c, 2, 62, 0
6, 130072, Control_c, 2, 64, 0
6, 130560, Note_on_c, 2, 67, 76
6, 130560, Note_on_c, 2, 60, 65
6, 130560, Note_on_c, 2, 51, 72
6, 130560, Note_on_c, 2, 56, 65
6, 130784, Control_c, 2, 64, 127
6, 131288, Note_on_c, 2, 56, 0
6, 131288, Note_on_c, 2, 67, 0
6, 131292, Note_on_c, 2, 60, 0
6, 131572, Note_on_c, 2, 51, 0
6, 132448, Control_c, 2, 64, 0
6, 132480, Note_on_c, 2, 69, 76
6, 132480, Note_on_c, 2, 62, 65
6, 132480, Note_on_c, 2, 53, 72
6, 132480, Note_on_c, 2, 58, 65
6, 132704, Control_c, 2, 64, 127
6, 133208, Note_on_c, 2, 58, 0
6, 133208, Note_on_c, 2, 69, 0
6, 133212, Note_on_c, 2, 62, 0
6, 133492, Note_on_c, 2, 53, 0
6, 134368, Control_c, 2, 64, 0
6, 134400, Control_c, 2, 64, 0
6, 134412, Note_on_c, 2, 67, 85
6, 134416, Note_on_c, 2, 63, 77
6, 134416, Note_on_c, 2, 75, 85
6, 134416, Note_on_c, 2, 60, 71
6, 134644, Note_on_c, 2, 75, 0
6, 134648, Note_on_c, 2, 63, 0
6, 134652, Note_on_c, 2, 67, 0
6, 134668, Note_on_c, 2, 60, 0
6, 134756, Note_on_c, 2, 67, 65
6, 134756, Note_on_c, 2, 60, 65
6, 134764, Note_on_c, 2, 72, 74
6, 134764, Note_on_c, 2, 63, 75
6, 134816, Note_on_c, 2, 60, 0
6, 134816, Note_on_c, 2, 67, 0
6, 134820, Note_on_c, 2, 72, 0
6, 134832, Note_on_c, 2, 63, 0
6, 136344, Note_on_c, 2, 75, 106
6, 136344, Note_on_c, 2, 72, 87
6, 136344, Note_on_c, 2, 63, 94
6, 136456, Note_on_c, 2, 79, 74
6, 136488, Note_on_c, 2, 72, 0
6, 136488, Note_on_c, 2, 75, 0
6, 136504, Note_on_c, 2, 63, 0
6, 136564, Note_on_c, 2, 79, 0
6, 136580, Note_on_c, 2, 75, 39
6, 136616, Note_on_c, 2, 75, 0
6, 136684, Note_on_c, 2, 75, 86
6, 136688, Note_on_c, 2, 72, 80
6, 136692, Note_on_c, 2, 63, 73
6, 136752, Note_on_c, 2, 75, 0
6, 136768, Note_on_c, 2, 72, 0
6, 136776, Note_on_c, 2, 63, 0
6, 138260, Note_on_c, 2, 55, 44
6, 138264, Note_on_c, 2, 63, 67
6, 138264, Note_on_c, 2, 72, 61
6, 138272, Note_on_c, 2, 51, 46
6, 138492, Note_on_c, 2, 63, 0
6, 138492, Note_on_c, 2, 67, 74
6, 138500, Note_on_c, 2, 51, 0
6, 138508, Note_on_c, 2, 51, 43
6, 138512, Note_on_c, 2, 55, 0
6, 138520, Note_on_c, 2, 72, 0
6, 138552, Note_on_c, 2, 51, 0
6, 138616, Note_on_c, 2, 67, 0
6, 138624, Note_on_c, 2, 63, 70
6, 138636, Note_on_c, 2, 55, 77
6, 139052, Control_c, 2, 64, 127
6, 139064, Note_on_c, 2, 55, 0
6, 139084, Note_on_c, 2, 63, 0
6, 139776, Control_c, 2, 64, 0
6, 140180, Note_on_c, 2, 91, 85
6, 140292, Note_on_c, 2, 87, 67
6, 140392, Note_on_c, 2, 87, 0
6, 140404, Note_on_c, 2, 87, 64
6, 140512, Note_on_c, 2, 75, 79
6, 140516, Note_on_c, 2, 63, 60
6, 140516, Note_on_c, 2, 60, 65
6, 140520, Note_on_c, 2, 51, 49
6, 140584, Control_c, 2, 64, 127
6, 140740, Note_on_c, 2, 91, 0
6, 140768, Note_on_c, 2, 75, 0
6, 140772, Note_on_c, 2, 87, 0
6, 141224, Note_on_c, 2, 63, 0
6, 141372, Note_on_c, 2, 79, 79
6, 141388, Control_c, 2, 64, 0
6, 141500, Note_on_c, 2, 75, 53
6, 141644, Note_on_c, 2, 75, 0
6, 141736, Note_on_c, 2, 63, 66
6, 141776, Control_c, 2, 64, 127
6, 141792, Note_on_c, 2, 60, 0
6, 141804, Note_on_c, 2, 51, 0
6, 141804, Note_on_c, 2, 63, 0
6, 141844, Note_on_c, 2, 79, 0
6, 142072, Control_c, 2, 64, 0
6, 142084, Note_on_c, 2, 70, 94
6, 142088, Note_on_c, 2, 63, 86
6, 142092, Note_on_c, 2, 60, 76
6, 142092, Note_on_c, 2, 58, 83
6, 142636, Note_on_c, 2, 63, 0
6, 142644, Note_on_c, 2, 60, 0
6, 142648, Note_on_c, 2, 58, 0
6, 142656, Note_on_c, 2, 70, 0
6, 142712, Note_on_c, 2, 67, 51
6, 142712, Note_on_c, 2, 58, 67
6, 142716, Note_on_c, 2, 60, 50
6, 142756, Note_on_c, 2, 60, 0
6, 142756, Note_on_c, 2, 58, 0
6, 142756, Note_on_c, 2, 67, 0
6, 142812, Note_on_c, 2, 58, 55
6, 142812, Note_on_c, 2, 63, 53
6, 142812, Note_on_c, 2, 60, 52
6, 142812, Note_on_c, 2, 70, 60
6, 142876, Note_on_c, 2, 70, 0
6, 142876, Note_on_c, 2, 63, 0
6, 142884, Note_on_c, 2, 60, 0
6, 142888, Note_on_c, 2, 58, 0
6, 143048, Note_on_c, 2, 67, 55
6, 143052, Note_on_c, 2, 63, 58
6, 143052, Note_on_c, 2, 60, 48
6, 143056, Note_on_c, 2, 58, 60
6, 143136, Note_on_c, 2, 60, 0
6, 143136, Note_on_c, 2, 67, 0
6, 143140, Note_on_c, 2, 63, 0
6, 143140, Note_on_c, 2, 58, 0
6, 144248, Note_on_c, 2, 60, 69
6, 144248, Note_on_c, 2, 58, 59
6, 144256, Note_on_c, 2, 51, 71
6, 144256, Note_on_c, 2, 55, 49
6, 144688, Control_c, 2, 64, 127
6, 144800, Note_on_c, 2, 58, 0
6, 144812, Note_on_c, 2, 55, 0
6, 144816, Note_on_c, 2, 51, 0
6, 144828, Note_on_c, 2, 60, 0
6, 144948, Control_c, 2, 64, 0
6, 144968, Note_on_c, 2, 58, 88
6, 144972, Note_on_c, 2, 63, 101
6, 144972, Note_on_c, 2, 51, 88
6, 144976, Note_on_c, 2, 55, 64
6, 145024, Note_on_c, 2, 58, 0
6, 145028, Note_on_c, 2, 51, 0
6, 145032, Note_on_c, 2, 63, 0
6, 145036, Note_on_c, 2, 55, 0
6, 145200, Note_on_c, 2, 60, 96
6, 145200, Note_on_c, 2, 67, 92
6, 145204, Note_on_c, 2, 58, 82
6, 145208, Note_on_c, 2, 51, 73
6, 145208, Note_on_c, 2, 55, 47
6, 145520, Note_on_c, 2, 51, 0
6, 145524, Note_on_c, 2, 55, 0
6, 145528, Note_on_c, 2, 67, 0
6, 145544, Note_on_c, 2, 60, 0
6, 145556, Note_on_c, 2, 58, 0
6, 145572, Note_on_c, 2, 51, 75
6, 145576, Note_on_c, 2, 63, 87
6, 145576, Note_on_c, 2, 55, 56
6, 145680, Note_on_c, 2, 60, 68
6, 145684, Note_on_c, 2, 63, 0
6, 145712, Control_c, 2, 64, 127
6, 145740, Note_on_c, 2, 55, 0
6, 145772, Note_on_c, 2, 60, 0
6, 145776, Note_on_c, 2, 51, 0
6, 145796, Note_on_c, 2, 58, 49
6, 145840, Note_on_c, 2, 58, 0
6, 145896, Control_c, 2, 64, 0
6, 145920, Control_c, 2, 64, 0
6, 145932, Note_on_c, 2, 67, 85
6, 145936, Note_on_c, 2, 63, 77
6, 145936, Note_on_c, 2, 75, 85
6, 145936, Note_on_c, 2, 58, 71
6, 146164, Note_on_c, 2, 75, 0
6, 146168, Note_on_c, 2, 63, 0
6, 146172, Note_on_c, 2, 67, 0
6, 146188, Note_on_c, 2, 58, 0
6, 146276, Note_on_c, 2, 67, 65
6, 146276, Note_on_c, 2, 58, 65
6, 146284, Note_on_c, 2, 70, 74
6, 146284, Note_on_c, 2, 63, 75
6, 146336, Note_on_c, 2, 58, 0
6, 146336, Note_on_c, 2, 67, 0
6, 146340, Note_on_c, 2, 70, 0
6, 146352, Note_on_c, 2, 63, 0
6, 147864, Note_on_c, 2, 75, 106
6, 147864, Note_on_c, 2, 70, 87
6, 147864, Note_on_c, 2, 63, 94
6, 147976, Note_on_c, 2, 79, 74
6, 148008, Note_on_c, 2, 70, 0
6, 148008, Note_on_c, 2, 75, 0
6, 148024, Note_on_c, 2, 63, 0
6, 148084, Note_on_c, 2, 79, 0
6, 148100, Note_on_c, 2, 75, 39
6, 148136, Note_on_c, 2, 75, 0
6, 148204, Note_on_c, 2, 75, 86
6, 148208, Note_on_c, 2, 70, 80
6, 148212, Note_on_c, 2, 63, 73
6, 148272, Note_on_c, 2, 75, 0
6, 148288, Note_on_c, 2, 70, 0
6, 148296, Note_on_c, 2, 63, 0
6, 149760, Note_on_c, 2, 70, 64
6, 150204, Control_c, 2, 64, 127
6, 150440, Note_on_c, 2, 70, 0
6, 150740, Note_on_c, 2, 63, 69
6, 150740, Note_on_c, 2, 51, 59
6, 150744, Note_on_c, 2, 60, 50
6, 150764, Control_c, 2, 64, 0
6, 151256, Control_c, 2, 64, 127
6, 151452, Note_on_c, 2, 60, 0
6, 151476, Note_on_c, 2, 63, 0
6, 151516, Note_on_c, 2, 51, 0
6, 151680, Control_c, 2, 64, 0
6, 151680, Control_c, 2, 64, 0
6, 151680, Note_on_c, 2, 65, 67
6, 151680, Note_on_c, 2, 57, 56
6, 151680, Note_on_c, 2, 70, 66
6, 151680, Note_on_c, 2, 62, 56
6, 151972, Control_c, 2, 64, 127
6, 152352, Note_on_c, 2, 65, 0
6, 152360, Note_on_c, 2, 62, 0
6, 152360, Note_on_c, 2, 70, 0
6, 152452, Note_on_c, 2, 57, 0
6, 153112, Control_c, 2, 64, 0
6, 153124, Note_on_c, 2, 65, 51
6, 153124, Note_on_c, 2, 70, 62
6, 153124, Note_on_c, 2, 81, 62
6, 153124, Note_on_c, 2, 69, 62
6, 153268, Control_c, 2, 64, 127
6, 153356, Note_on_c, 2, 69, 0
6, 153364, Note_on_c, 2, 65, 0
6, 153412, Note_on_c, 2, 70, 0
6, 153600, Note_on_c, 2, 81, 0
6, 153600, Control_c, 2, 64, 0
6, 153600, Note_on_c, 2, 65, 76
6, 153600, Note_on_c, 2, 60, 65
6, 153600, Note_on_c, 2, 51, 72
6, 153600, Note_on_c, 2, 56, 65
6, 153824, Control_c, 2, 64, 127
6, 154328, Note_on_c, 2, 56, 0
6, 154328, Note_on_c, 2, 65, 0
6, 154332, Note_on_c, 2, 60, 0
6, 154612, Note_on_c, 2, 51, 0
6, 155488, Control_c, 2, 64, 0
6, 155524, Note_on_c, 2, 62, 68
6, 155532, Note_on_c, 2, 77, 81
6, 155552, Control_c, 2, 64, 0
6, 156032, Control_c, 2, 0, 0
6, 156512, Control_c, 2, 0, 0
6, 156936, Control_c, 2, 64, 127
6, 157176, Note_on_c, 2, 77, 0
6, 157212, Note_on_c, 2, 62, 0
6, 157440, Control_c, 2, 64, 0
6, 157440, Note_on_c, 2, 67, 76
6, 157440, Note_on_c, 2, 60, 65
6, 157440, Note_on_c, 2, 51, 72
6, 157440, Note_on_c, 2, 58, 65
6, 157664, Control_c, 2, 64, 127
6, 158168, Note_on_c, 2, 58, 0
6, 158168, Note_on_c, 2, 67, 0
6, 158172, Note_on_c, 2, 60, 0
6, 158452, Note_on_c, 2, 51, 0
6, 159328, Control_c, 2, 64, 0
6, 159364, Note_on_c, 2, 62, 68
6, 159372, Note_on_c, 2, 77, 81
6, 159392, Control_c, 2, 64, 0
6, 159872, Control_c, 2, 0, 0
6, 160352, Control_c, 2, 0, 0
6, 160776, Control_c, 2, 64, 127
6, 161016, Note_on_c, 2, 77, 0
6, 161052, Note_on_c, 2, 62, 0
6, 161280, Control_c, 2, 64, 0
6, 161280, Control_c, 2, 64, 0
6, 161280, Note_on_c, 2, 63, 67
6, 161280, Note_on_c, 2, 53, 56
6, 161280, Note_on_c, 2, 68, 66
6, 161280, Note_on_c, 2, 60, 56
6, 161572, Control_c, 2, 64, 127
6, 161952, Note_on_c, 2, 63, 0
6, 161960, Note_on_c, 2, 60, 0
6, 161960, Note_on_c, 2, 68, 0
6, 162052, Note_on_c, 2, 53, 0
6, 162712, Control_c, 2, 64, 0
6, 162724, Note_on_c, 2, 63, 51
6, 162724, Note_on_c, 2, 68, 62
6, 162724, Note_on_c, 2, 79, 62
6, 162724, Note_on_c, 2, 67, 62
6, 162868, Control_c, 2, 64, 127
6, 162956, Note_on_c, 2, 67, 0
6, 162964, Note_on_c, 2, 63, 0
6, 163012, Note_on_c, 2, 68, 0
6, 163200, Note_on_c, 2, 79, 0
6, 163200, Control_c, 2, 64, 0
6, 163212, Note_on_c, 2, 65, 47
6, 163212, Note_on_c, 2, 53, 50
6, 163212, Note_on_c, 2, 58, 52
6, 163216, Note_on_c, 2, 69, 56
6, 163224, Control_c, 2, 64, 0
6, 163704, Control_c, 2, 0, 0
6, 164184, Control_c, 2, 0, 0
6, 164624, Control_c, 2, 64, 127
6, 164772, Note_on_c, 2, 65, 0
6, 164784, Note_on_c, 2, 58, 0
6, 164788, Note_on_c, 2, 69, 0
6, 164864, Note_on_c, 2, 53, 0
6, 165088, Control_c, 2, 64, 0
6, 165120, Control_c, 2, 64, 76
6, 165120, Control_c, 2, 64, 0
6, 165120, Control_c, 2, 64, 0
6, 165144, Note_on_c, 2, 75, 68
6, 165144, Note_on_c, 2, 60, 76
6, 165148, Note_on_c, 2, 70, 68
6, 165164, Note_on_c, 2, 63, 53
6, 165628, Control_c, 2, 64, 127
6, 165836, Note_on_c, 2, 75, 0
6, 165852, Note_on_c, 2, 70, 0
6, 165860, Note_on_c, 2, 63, 0
6, 165940, Note_on_c, 2, 60, 0
6, 166324, Note_on_c, 2, 63, 67
6, 166328, Note_on_c, 2, 58, 60
6, 166328, Note_on_c, 2, 60, 72
6, 166360, Control_c, 2, 64, 0
6, 166708, Note_on_c, 2, 72, 79
6, 167040, Note_on_c, 2, 72, 0
6, 167040, Note_on_c, 2, 63, 0
6, 167040, Note_on_c, 2, 58, 0
6, 167040, Note_on_c, 2, 60, 0
6, 167040, Control_c, 2, 64, 0
6, 167040, Note_on_c, 2, 65, 67
6, 167040, Note_on_c, 2, 57, 56
6, 167040, Note_on_c, 2, 70, 66
6, 167040, Note_on_c, 2, 62, 56
6, 167332, Control_c, 2, 64, 127
6, 167712, Note_on_c, 2, 65, 0
6, 167720, Note_on_c, 2, 62, 0
6, 167720, Note_on_c, 2, 70, 0
6, 167812, Note_on_c, 2, 57, 0
6, 168472, Control_c, 2, 64, 0
6, 168484, Note_on_c, 2, 65, 51
6, 168484, Note_on_c, 2, 70, 62
6, 168484, Note_on_c, 2, 81, 62
6, 168484, Note_on_c, 2, 69, 62
6, 168628, Control_c, 2, 64, 127
6, 168716, Note_on_c, 2, 69, 0
6, 168724, Note_on_c, 2, 65, 0
6, 168772, Note_on_c, 2, 70, 0
6, 168960, Note_on_c, 2, 81, 0
6, 168960, Control_c, 2, 64, 0
6, 168960, Note_on_c, 2, 68, 64
6, 169404, Control_c, 2, 64, 127
6, 169640, Note_on_c, 2, 68, 0
6, 169940, Note_on_c, 2, 63, 69
6, 169940, Note_on_c, 2, 51, 59
6, 169944, Note_on_c, 2, 60, 50
6, 169964, Control_c, 2, 64, 0
6, 170456, Control_c, 2, 64, 127
6, 170652, Note_on_c, 2, 60, 0
6, 170676, Note_on_c, 2, 63, 0
6, 170716, Note_on_c, 2, 51, 0
6, 170880, Control_c, 2, 64, 0
6, 170880, Control_c, 2, 64, 0
6, 170904, Note_on_c, 2, 77, 68
6, 170904, Note_on_c, 2, 62, 76
6, 170908, Note_on_c, 2, 70, 68
6, 170924, Note_on_c, 2, 65, 53
6, 171388, Control_c, 2, 64, 127
6, 171596, Note_on_c, 2, 77, 0
6, 171612, Note_on_c, 2, 70, 0
6, 171620, Note_on_c, 2, 65, 0
6, 171700, Note_on_c, 2, 62, 0
6, 172084, Note_on_c, 2, 65, 67
6, 172088, Note_on_c, 2, 58, 60
6, 172088, Note_on_c, 2, 62, 72
6, 172120, Control_c, 2, 64, 0
6, 172468, Note_on_c, 2, 74, 79
6, 172800, Note_on_c, 2, 74, 0
6, 172800, Note_on_c, 2, 65, 0
6, 172800, Note_on_c, 2, 58, 0
6, 172800, Note_on_c, 2, 62, 0
6, 172812, Note_on_c, 2, 63, 57
6, 172816, Note_on_c, 2, 70, 63
6, 172816, Note_on_c, 2, 60, 55
6, 172820, Note_on_c, 2, 51, 57
6, 172820, Control_c, 2, 64, 0
6, 173340, Control_c, 2, 64, 127
6, 173704, Note_on_c, 2, 60, 0
6, 173720, Note_on_c, 2, 63, 0
6, 173756, Note_on_c, 2, 70, 0
6, 174460, Note_on_c, 2, 51, 0
6, 174476, Note_on_c, 2, 63, 50
6, 174588, Note_on_c, 2, 70, 58
6, 174720, Note_on_c, 2, 70, 0
6, 174720, Note_on_c, 2, 63, 0
6, 174720, Control_c, 2, 64, 0
6, 174740, Note_on_c, 2, 74, 86
6, 174740, Note_on_c, 2, 65, 74
6, 174740, Note_on_c, 2, 62, 62
6, 174748, Note_on_c, 2, 58, 63
6, 175160, Control_c, 2, 64, 127
6, 175172, Note_on_c, 2, 74, 0
6, 175188, Note_on_c, 2, 62, 0
6, 175204, Note_on_c, 2, 65, 0
6, 175216, Note_on_c, 2, 58, 0
6, 175432, Control_c, 2, 64, 0
6, 175436, Note_on_c, 2, 57, 49
6, 175440, Note_on_c, 2, 70, 53
6, 175440, Note_on_c, 2, 65, 60
6, 175440, Note_on_c, 2, 62, 50
6, 175700, Control_c, 2, 64, 127
6, 175868, Note_on_c, 2, 57, 0
6, 175872, Note_on_c, 2, 70, 0
6, 175880, Note_on_c, 2, 65, 0
6, 175920, Note_on_c, 2, 62, 0
6, 176152, Control_c, 2, 64, 0
6, 176640, Note_on_c, 2, 65, 76
6, 176640, Note_on_c, 2, 60, 65
6, 176640, Note_on_c, 2, 51, 72
6, 176640, Note_on_c, 2, 56, 65
6, 176864, Control_c, 2, 64, 127
6, 177368, Note_on_c, 2, 56, 0
6, 177368, Note_on_c, 2, 65, 0
6, 177372, Note_on_c, 2, 60, 0
6, 177652, Note_on_c, 2, 51, 0
6, 178528, Control_c, 2, 64, 0
6, 178916, Note_on_c, 2, 58, 44
6, 178916, Note_on_c, 2, 81, 76
6, 178920, Note_on_c, 2, 65, 58
6, 178924, Note_on_c, 2, 70, 57
6, 178928, Note_on_c, 2, 77, 67
6, 178980, Note_on_c, 2, 58, 0
6, 178988, Note_on_c, 2, 70, 0
6, 179004, Note_on_c, 2, 65, 0
6, 179008, Note_on_c, 2, 81, 0
6, 179020, Note_on_c, 2, 77, 0
6, 179052, Note_on_c, 2, 70, 46
6, 179052, Note_on_c, 2, 77, 48
6, 179056, Note_on_c, 2, 69, 30
6, 179060, Note_on_c, 2, 58, 28
6, 179064, Note_on_c, 2, 65, 42
6, 179116, Note_on_c, 2, 58, 0
6, 179116, Note_on_c, 2, 70, 0
6, 179120, Note_on_c, 2, 65, 0
6, 179128, Note_on_c, 2, 69, 0
6, 179128, Note_on_c, 2, 77, 0
6, 179880, Note_on_c, 2, 69, 63
6, 179880, Note_on_c, 2, 65, 56
6, 179880, Note_on_c, 2, 58, 54
6, 179884, Note_on_c, 2, 70, 68
6, 179888, Note_on_c, 2, 53, 42
6, 179932, Note_on_c, 2, 65, 0
6, 179956, Note_on_c, 2, 53, 0
6, 179964, Note_on_c, 2, 69, 0
6, 179980, Note_on_c, 2, 70, 0
6, 179996, Note_on_c, 2, 58, 0
6, 180000, Note_on_c, 2, 57, 47
6, 180004, Note_on_c, 2, 58, 42
6, 180004, Note_on_c, 2, 65, 48
6, 180008, Note_on_c, 2, 70, 41
6, 180012, Note_on_c, 2, 77, 47
6, 180076, Note_on_c, 2, 58, 0
6, 180080, Note_on_c, 2, 57, 0
6, 180080, Note_on_c, 2, 65, 0
6, 180084, Note_on_c, 2, 70, 0
6, 180096, Note_on_c, 2, 77, 0
6, 180252, Note_on_c, 2, 69, 29
6, 180252, Note_on_c, 2, 58, 27
6, 180256, Note_on_c, 2, 65, 38
6, 180256, Note_on_c, 2, 70, 45
6, 180276, Note_on_c, 2, 53, 5
6, 180304, Note_on_c, 2, 69, 0
6, 180316, Note_on_c, 2, 70, 0
6, 180316, Note_on_c, 2, 58, 0
6, 180316, Note_on_c, 2, 53, 0
6, 180320, Note_on_c, 2, 65, 0
6, 180480, Note_on_c, 2, 70, 64
6, 180924, Control_c, 2, 64, 127
6, 181160, Note_on_c, 2, 70, 0
6, 181460, Note_on_c, 2, 63, 69
6, 181460, Note_on_c, 2, 51, 59
6, 181464, Note_on_c, 2, 60, 50
6, 181484, Control_c, 2, 64, 0
6, 181976, Control_c, 2, 64, 127
6, 182172, Note_on_c, 2, 60, 0
6, 182196, Note_on_c, 2, 63, 0
6, 182236, Note_on_c, 2, 51, 0
6, 182400, Control_c, 2, 64, 0
6, 182412, Note_on_c, 2, 65, 57
6, 182416, Note_on_c, 2, 70, 63
6, 182416, Note_on_c, 2, 62, 55
6, 182420, Note_on_c, 2, 53, 57
6, 182420, Control_c, 2, 64, 0
6, 182940, Control_c, 2, 64, 127
6, 183304, Note_on_c, 2, 62, 0
6, 183320, Note_on_c, 2, 65, 0
6, 183356, Note_on_c, 2, 70, 0
6, 184060, Note_on_c, 2, 53, 0
6, 184076, Note_on_c, 2, 65, 50
6, 184188, Note_on_c, 2, 70, 58
6, 184320, Note_on_c, 2, 70, 0
6, 184320, Note_on_c, 2, 65, 0
6, 184320, Control_c, 2, 64, 0
6, 184340, Note_on_c, 2, 89, 85
6, 184452, Note_on_c, 2, 84, 67
6, 184552, Note_on_c, 2, 84, 0
6, 184564, Note_on_c, 2, 87, 64
6, 184672, Note_on_c, 2, 75, 79
6, 184676, Note_on_c, 2, 60, 60
6, 184676, Note_on_c, 2, 56, 65
6, 184680, Note_on_c, 2, 63, 49
6, 184680, Note_on_c, 2, 51, 49
6, 184744, Control_c, 2, 64, 127
6, 184900, Note_on_c, 2, 89, 0
6, 184928, Note_on_c, 2, 75, 0
6, 184932, Note_on_c, 2, 87, 0
6, 185384, Note_on_c, 2, 63, 0
6, 185532, Note_on_c, 2, 77, 79
6, 185548, Control_c, 2, 64, 0
6, 185660, Note_on_c, 2, 72, 53
6, 185780, Note_on_c, 2, 75, 61
6, 185804, Note_on_c, 2, 72, 0
6, 185896, Note_on_c, 2, 63, 66
6, 185936, Control_c, 2, 64, 127
6, 185952, Note_on_c, 2, 56, 0
6, 185964, Note_on_c, 2, 60, 0
6, 185964, Note_on_c, 2, 51, 0
6, 185984, Note_on_c, 2, 63, 0
6, 185996, Note_on_c, 2, 75, 0
6, 186004, Note_on_c, 2, 77, 0
6, 186232, Control_c, 2, 64, 0
6, 186472, Note_on_c, 2, 65, 50
6, 186472, Note_on_c, 2, 93, 69
6, 186472, Note_on_c, 2, 62, 47
6, 186472, Note_on_c, 2, 89, 65
6, 186476, Note_on_c, 2, 81, 56
6, 186484, Note_on_c, 2, 58, 29
6, 186484, Note_on_c, 2, 53, 15
6, 186512, Note_on_c, 2, 89, 0
6, 186520, Note_on_c, 2, 58, 0
6, 186520, Note_on_c, 2, 93, 0
6, 186520, Note_on_c, 2, 62, 0
6, 186520, Note_on_c, 2, 53, 0
6, 186524, Note_on_c, 2, 81, 0
6, 186528, Note_on_c, 2, 65, 0
6, 186720, Note_on_c, 2, 81, 66
6, 186720, Note_on_c, 2, 65, 57
6, 186720, Note_on_c, 2, 93, 72
6, 186720, Note_on_c, 2, 89, 71
6, 186724, Note_on_c, 2, 62, 53
6, 186736, Note_on_c, 2, 53, 21
6, 186740, Note_on_c, 2, 58, 26
6, 186772, Note_on_c, 2, 89, 0
6, 186780, Note_on_c, 2, 81, 0
6, 186784, Note_on_c, 2, 93, 0
6, 186788, Note_on_c, 2, 58, 0
6, 186788, Note_on_c, 2, 53, 0
6, 186792, Note_on_c, 2, 65, 0
6, 186792, Note_on_c, 2, 62, 0
6, 187572, Note_on_c, 2, 81, 60
6, 187576, Note_on_c, 2, 89, 63
6, 187576, Note_on_c, 2, 93, 61
6, 187580, Note_on_c, 2, 53, 51
6, 187580, Note_on_c, 2, 62, 50
6, 187580, Note_on_c, 2, 65, 48
6, 187584, Note_on_c, 2, 58, 56
6, 187632, Note_on_c, 2, 89, 0
6, 187636, Note_on_c, 2, 81, 0
6, 187636, Note_on_c, 2, 93, 0
6, 187644, Note_on_c, 2, 62, 0
6, 187648, Note_on_c, 2, 53, 0
6, 187648, Note_on_c, 2, 58, 0
6, 187656, Note_on_c, 2, 65, 0
6, 187684, Note_on_c, 2, 65, 9
6, 187684, Note_on_c, 2, 81, 46
6, 187688, Note_on_c, 2, 62, 36
6, 187688, Note_on_c, 2, 89, 58
6, 187688, Note_on_c, 2, 58, 41
6, 187692, Note_on_c, 2, 53, 39
6, 187692, Note_on_c, 2, 93, 31
6, 187752, Note_on_c, 2, 89, 0
6, 187752, Note_on_c, 2, 81, 0
6, 187760, Note_on_c, 2, 62, 0
6, 187760, Note_on_c, 2, 93, 0
6, 187768, Note_on_c, 2, 53, 0
6, 187772, Note_on_c, 2, 58, 0
6, 187772, Note_on_c, 2, 65, 0
6, 187804, Note_on_c, 2, 58, 27
6, 187804, Note_on_c, 2, 65, 19
6, 187808, Note_on_c, 2, 53, 30
6, 187808, Note_on_c, 2, 62, 49
6, 187808, Note_on_c, 2, 89, 56
6, 187808, Note_on_c, 2, 81, 40
6, 187812, Note_on_c, 2, 93, 44
6, 187856, Note_on_c, 2, 65, 0
6, 187860, Note_on_c, 2, 89, 0
6, 187860, Note_on_c, 2, 93, 0
6, 187864, Note_on_c, 2, 62, 0
6, 187864, Note_on_c, 2, 81, 0
6, 187868, Note_on_c, 2, 53, 0
6, 187868, Note_on_c, 2, 58, 0
6, 188160, Control_c, 2, 64, 0
6, 188160, Note_on_c, 2, 63, 67
6, 188160, Note_on_c, 2, 55, 56
6, 188160, Note_on_c, 2, 70, 66
6, 188160, Note_on_c, 2, 62, 56
6, 188452, Control_c, 2, 64, 127
6, 188832, Note_on_c, 2, 63, 0
6, 188840, Note_on_c, 2, 62, 0
6, 188840, Note_on_c, 2, 70, 0
6, 188932, Note_on_c, 2, 55, 0
6, 189592, Control_c, 2, 64, 0
6, 189604, Note_on_c, 2, 63, 51
6, 189604, Note_on_c, 2, 70, 62
6, 189604, Note_on_c, 2, 79, 62
6, 189604, Note_on_c, 2, 67, 62
6, 189748, Control_c, 2, 64, 127
6, 189836, Note_on_c, 2, 67, 0
6, 189844, Note_on_c, 2, 63, 0
6, 189892, Note_on_c, 2, 70, 0
6, 190080, Note_on_c, 2, 79, 0
6, 190080, Control_c, 2, 64, 0
6, 190092, Note_on_c, 2, 65, 47
6, 190092, Note_on_c, 2, 53, 50
6, 190092, Note_on_c, 2, 58, 52
6, 190096, Note_on_c, 2, 69, 56
6, 190104, Control_c, 2, 64, 0
6, 190584, Control_c, 2, 0, 0
6, 191064, Control_c, 2, 0, 0
6, 191504, Control_c, 2, 64, 127
6, 191652, Note_on_c, 2, 65, 0
6, 191664, Note_on_c, 2, 58, 0
6, 191668, Note_on_c, 2, 69, 0
6, 191744, Note_on_c, 2, 53, 0
6, 191968, Control_c, 2, 64, 0
6, 192000, Control_c, 2, 64, 76
6, 192000, Control_c, 2, 64, 0
6, 192012, Note_on_c, 2, 63, 47
6, 192012, Note_on_c, 2, 51, 50
6, 192012, Note_on_c, 2, 56, 52
6, 192016, Note_on_c, 2, 65, 56
6, 192024, Control_c, 2, 64, 0
6, 192504, Control_c, 2, 0, 0
6, 192984, Control_c, 2, 0, 0
6, 193424, Control_c, 2, 64, 127
6, 193572, Note_on_c, 2, 63, 0
6, 193584, Note_on_c, 2, 56, 0
6, 193588, Note_on_c, 2, 65, 0
6, 193664, Note_on_c, 2, 51, 0
6, 193888, Control_c, 2, 64, 0
6, 193920, Control_c, 2, 64, 76
6, 193920, Control_c, 2, 64, 0
6, 193920, Control_c, 2, 64, 0
6, 193924, Note_on_c, 2, 62, 70
6, 193924, Note_on_c, 2, 77, 79
6, 193924, Note_on_c, 2, 70, 76
6, 193936, Note_on_c, 2, 69, 47
6, 194252, Control_c, 2, 64, 127
6, 194360, Note_on_c, 2, 77, 0
6, 194368, Note_on_c, 2, 70, 0
6, 194396, Note_on_c, 2, 69, 0
6, 194440, Note_on_c, 2, 62, 0
6, 194892, Note_on_c, 2, 57, 57
6, 194892, Note_on_c, 2, 65, 57
6, 194896, Note_on_c, 2, 70, 46
6, 194896, Note_on_c, 2, 62, 42
6, 194900, Control_c, 2, 64, 0
6, 195376, Note_on_c, 2, 69, 61
6, 195416, Note_on_c, 2, 70, 0
6, 195444, Control_c, 2, 64, 127
6, 195608, Note_on_c, 2, 57, 0
6, 195636, Note_on_c, 2, 62, 0
6, 195648, Note_on_c, 2, 65, 0
6, 195656, Note_on_c, 2, 69, 0
6, 195840, Control_c, 2, 64, 0
6, 195840, Note_on_c, 2, 67, 76
6, 195840, Note_on_c, 2, 62, 65
6, 195840, Note_on_c, 2, 51, 72
6, 195840, Note_on_c, 2, 58, 65
6, 196064, Control_c, 2, 64, 127
6, 196568, Note_on_c, 2, 58, 0
6, 196568, Note_on_c, 2, 67, 0
6, 196572, Note_on_c, 2, 62, 0
6, 196852, Note_on_c, 2, 51, 0
6, 197728, Control_c, 2, 64, 0
6, 197772, Note_on_c, 2, 65, 47
6, 197772, Note_on_c, 2, 53, 50
6, 197772, Note_on_c, 2, 58, 52
6, 197776, Note_on_c, 2, 69, 56
6, 197784, Control_c, 2, 64, 0
6, 198264, Control_c, 2, 0, 0
6, 198744, Control_c, 2, 0, 0
6, 199184, Control_c, 2, 64, 127
6, 199332, Note_on_c, 2, 65, 0
6, 199344, Note_on_c, 2, 58, 0
6, 199348, Note_on_c, 2, 69, 0
6, 199424, Note_on_c, 2, 53, 0
6, 199648, Control_c, 2, 64, 0
6, 199680, Control_c, 2, 64, 76
6, 199680, Control_c, 2, 64, 0
6, 199680, Control_c, 2, 64, 0
6, 199704, Note_on_c, 2, 75, 68
6, 199704, Note_on_c, 2, 60, 76
6, 199708, Note_on_c, 2, 68, 68
6, 199724, Note_on_c, 2, 63, 53
6, 200188, Control_c, 2, 64, 127
6, 200396, Note_on_c, 2, 75, 0
6, 200412, Note_on_c, 2, 68, 0
6, 200420, Note_on_c, 2, 63, 0
6, 200500, Note_on_c, 2, 60, 0
6, 200884, Note_on_c, 2, 63, 67
6, 200888, Note_on_c, 2, 56, 60
6, 200888, Note_on_c, 2, 60, 72
6, 200920, Control_c, 2, 64, 0
6, 201268, Note_on_c, 2, 72, 79
6, 201600, Note_on_c, 2, 72, 0
6, 201600, Note_on_c, 2, 63, 0
6, 201600, Note_on_c, 2, 56, 0
6, 201600, Note_on_c, 2, 60, 0
6, 201612, Note_on_c, 2, 65, 47
6, 201612, Note_on_c, 2, 53, 50
6, 201612, Note_on_c, 2, 58, 52
6, 201616, Note_on_c, 2, 69, 56
6, 201624, Control_c, 2, 64, 0
6, 202104, Control_c, 2, 0, 0
6, 202584, Control_c, 2, 0, 0
6, 203024, Control_c, 2, 64, 127
6, 203172, Note_on_c, 2, 65, 0
6, 203184, Note_on_c, 2, 58, 0
6, 203188, Note_on_c, 2, 69, 0
6, 203264, Note_on_c, 2, 53, 0
6, 203488, Control_c, 2, 64, 0
6, 203520, Control_c, 2, 64, 76
6, 203520, Control_c, 2, 64, 0
6, 203532, Note_on_c, 2, 63, 57
6, 203536, Note_on_c, 2, 70, 63
6, 203536, Note_on_c, 2, 62, 55
6, 203540, Note_on_c, 2, 51, 57
6, 203540, Control_c, 2, 64, 0
6, 204060, Control_c, 2, 64, 127
6, 204424, Note_on_c, 2, 62, 0
6, 204440, Note_on_c, 2, 63, 0
6, 204476, Note_on_c, 2, 70, 0
6, 205180, Note_on_c, 2, 51, 0
6, 205196, Note_on_c, 2, 63, 50
6, 205308, Note_on_c, 2, 70, 58
6, 205440, Note_on_c, 2, 70, 0
6, 205440, Note_on_c, 2, 63, 0
6, 205440, Control_c, 2, 64, 0
6, 205460, Note_on_c, 2, 57, 44
6, 205464, Note_on_c, 2, 65, 67
6, 205464, Note_on_c, 2, 70, 61
6, 205464, Note_on_c, 2, 62, 66
6, 205472, Note_on_c, 2, 53, 46
6, 205692, Note_on_c, 2, 65, 0
6, 205692, Note_on_c, 2, 69, 74
6, 205700, Note_on_c, 2, 53, 0
6, 205708, Note_on_c, 2, 53, 43
6, 205712, Note_on_c, 2, 57, 0
6, 205720, Note_on_c, 2, 70, 0
6, 205752, Note_on_c, 2, 53, 0
6, 205816, Note_on_c, 2, 69, 0
6, 205824, Note_on_c, 2, 65, 70
6, 205836, Note_on_c, 2, 57, 77
6, 206252, Control_c, 2, 64, 127
6, 206264, Note_on_c, 2, 57, 0
6, 206284, Note_on_c, 2, 62, 0
6, 206312, Note_on_c, 2, 65, 0
6, 206976, Control_c, 2, 64, 0
6, 207360, Note_on_c, 2, 68, 64
6, 207804, Control_c, 2, 64, 127
6, 208040, Note_on_c, 2, 68, 0
6, 208340, Note_on_c, 2, 63, 69
6, 208340, Note_on_c, 2, 51, 59
6, 208344, Note_on_c, 2, 60, 50
6, 208364, Control_c, 2, 64, 0
6, 208856, Control_c, 2, 64, 127
6, 209052, Note_on_c, 2, 60, 0
6, 209076, Note_on_c, 2, 63, 0
6, 209116, Note_on_c, 2, 51, 0
6, 209280, Control_c, 2, 64, 0
6, 209280, Note_on_c, 2, 70, 64
6, 209296, Note_on_c, 2, 58, 66
6, 209296, Note_on_c, 2, 62, 57
6, 209296, Note_on_c, 2, 55, 54
6, 209476, Control_c, 2, 64, 127
6, 209572, Note_on_c, 2, 70, 0
6, 209636, Note_on_c, 2, 62, 0
6, 209644, Note_on_c, 2, 55, 0
6, 209668, Note_on_c, 2, 58, 0
6, 210252, Note_on_c, 2, 53, 75
6, 210272, Control_c, 2, 64, 0
6, 210368, Note_on_c, 2, 55, 62
6, 210612, Note_on_c, 2, 55, 0
6, 210616, Note_on_c, 2, 62, 57
6, 210700, Note_on_c, 2, 62, 0
6, 210744, Note_on_c, 2, 65, 79
6, 210764, Control_c, 2, 64, 127
6, 210772, Note_on_c, 2, 65, 0
6, 210804, Note_on_c, 2, 53, 0
6, 210856, Note_on_c, 2, 67, 51
6, 210960, Note_on_c, 2, 74, 80
6, 211076, Note_on_c, 2, 77, 88
6, 211084, Note_on_c, 2, 67, 0
6, 211092, Note_on_c, 2, 74, 0
6, 211144, Note_on_c, 2, 77, 0
6, 211200, Control_c, 2, 64, 0
6, 211200, Control_c, 2, 64, 0
6, 211212, Note_on_c, 2, 67, 85
6, 211216, Note_on_c, 2, 63, 77
6, 211216, Note_on_c, 2, 75, 85
6, 211216, Note_on_c, 2, 58, 71
6, 211444, Note_on_c, 2, 75, 0
6, 211448, Note_on_c, 2, 63, 0
6, 211452, Note_on_c, 2, 67, 0
6, 211468, Note_on_c, 2, 58, 0
6, 211556, Note_on_c, 2, 67, 65
6, 211556, Note_on_c, 2, 58, 65
6, 211564, Note_on_c, 2, 70, 74
6, 211564, Note_on_c, 2, 63, 75
6, 211616, Note_on_c, 2, 58, 0
6, 211616, Note_on_c, 2, 67, 0
6, 211620, Note_on_c, 2, 70, 0
6, 211632, Note_on_c, 2, 63, 0
6, 213144, Note_on_c, 2, 75, 106
6, 213144, Note_on_c, 2, 70, 87
6, 213144, Note_on_c, 2, 63, 94
6, 213256, Note_on_c, 2, 79, 74
6, 213288, Note_on_c, 2, 70, 0
6, 213288, Note_on_c, 2, 75, 0
6, 213304, Note_on_c, 2, 63, 0
6, 213364, Note_on_c, 2, 79, 0
6, 213380, Note_on_c, 2, 75, 39
6, 213416, Note_on_c, 2, 75, 0
6, 213484, Note_on_c, 2, 75, 86
6, 213488, Note_on_c, 2, 70, 80
6, 213492, Note_on_c, 2, 63, 73
6, 213552, Note_on_c, 2, 75, 0
6, 213568, Note_on_c, 2, 70, 0
6, 213576, Note_on_c, 2, 63, 0
6, 215052, Note_on_c, 2, 63, 57
6, 215056, Note_on_c, 2, 70, 63
6, 215056, Note_on_c, 2, 62, 55
6, 215060, Note_on_c, 2, 51, 57
6, 215060, Control_c, 2, 64, 0
6, 215580, Control_c, 2, 64, 127
6, 215944, Note_on_c, 2, 62, 0
6, 215960, Note_on_c, 2, 63, 0
6, 215996, Note_on_c, 2, 70, 0
6, 216700, Note_on_c, 2, 51, 0
6, 216716, Note_on_c, 2, 63, 50
6, 216828, Note_on_c, 2, 70, 58
6, 216960, Note_on_c, 2, 70, 0
6, 216960, Note_on_c, 2, 63, 0
6, 216960, Control_c, 2, 64, 0
6, 216964, Note_on_c, 2, 60, 64
6, 216964, Note_on_c, 2, 58, 71
6, 216964, Note_on_c, 2, 70, 79
6, 217108, Control_c, 2, 64, 127
6, 217184, Note_on_c, 2, 70, 0
6, 217216, Note_on_c, 2, 60, 0
6, 217220, Note_on_c, 2, 58, 0
6, 217452, Note_on_c, 2, 70, 75
6, 217508, Control_c, 2, 64, 0
6, 217572, Note_on_c, 2, 67, 51
6, 217680, Note_on_c, 2, 63, 71
6, 217680, Note_on_c, 2, 58, 52
6, 217684, Note_on_c, 2, 51, 60
6, 217688, Note_on_c, 2, 60, 66
6, 217988, Control_c, 2, 64, 127
6, 218136, Note_on_c, 2, 60, 0
6, 218140, Note_on_c, 2, 63, 0
6, 218156, Note_on_c, 2, 67, 0
6, 218164, Note_on_c, 2, 70, 0
6, 218384, Control_c, 2, 64, 0
6, 218396, Note_on_c, 2, 63, 87
6, 218620, Note_on_c, 2, 63, 0
6, 218632, Note_on_c, 2, 67, 64
6, 218672, Control_c, 2, 64, 127
6, 218724, Note_on_c, 2, 51, 0
6, 218736, Note_on_c, 2, 58, 0
6, 218752, Note_on_c, 2, 67, 0
6, 218756, Note_on_c, 2, 70, 71
6, 218796, Note_on_c, 2, 70, 0
6, 218876, Control_c, 2, 64, 0
6, 218884, Note_on_c, 2, 63, 71
6, 218884, Note_on_c, 2, 67, 66
6, 218888, Note_on_c, 2, 58, 60
6, 218892, Note_on_c, 2, 51, 60
6, 218948, Note_on_c, 2, 63, 0
6, 218952, Note_on_c, 2, 67, 0
6, 218956, Note_on_c, 2, 51, 0
6, 218960, Note_on_c, 2, 58, 0
6, 219244, Note_on_c, 2, 63, 67
6, 219248, Note_on_c, 2, 60, 69
6, 219248, Note_on_c, 2, 67, 65
6, 219248, Note_on_c, 2, 58, 51
6, 219256, Note_on_c, 2, 51, 51
6, 219300, Note_on_c, 2, 63, 0
6, 219304, Note_on_c, 2, 58, 0
6, 219304, Note_on_c, 2, 51, 0
6, 219304, Note_on_c, 2, 67, 0
6, 219308, Note_on_c, 2, 60, 0
6, 219616, Note_on_c, 2, 63, 68
6, 219616, Note_on_c, 2, 67, 64
6, 219616, Note_on_c, 2, 58, 49
6, 219616, Note_on_c, 2, 60, 61
6, 219620, Note_on_c, 2, 51, 52
6, 220196, Control_c, 2, 64, 127
6, 220520, Note_on_c, 2, 60, 0
6, 220524, Note_on_c, 2, 67, 0
6, 220528, Note_on_c, 2, 63, 0
6, 220540, Note_on_c, 2, 58, 0
6, 220540, Control_c, 2, 64, 0
6, 220552, Note_on_c, 2, 51, 0
6, 220800, Control_c, 2, 64, 0
6, 220800, End_track
7, 0, Start_track
7, 0, Title_t, "new wave"
7, 0, Program_c, 6, 88
7, 0, Control_c, 6, 7, 115
7, 0, Control_c, 6, 10, 66
7, 0, Control_c, 6, 91, 88
7, 0, Control_c, 6, 93, 0
7, 0, Control_c, 6, 123, 0
7, 0, Control_c, 6, 64, 0
7, 3844, Note_on_c, 6, 55, 64
7, 3860, Note_on_c, 6, 63, 56
7, 4800, Note_on_c, 6, 63, 0
7, 4800, Note_on_c, 6, 55, 0
7, 4804, Note_on_c, 6, 55, 64
7, 4820, Note_on_c, 6, 63, 56
7, 5760, Note_on_c, 6, 63, 0
7, 5760, Note_on_c, 6, 55, 0
7, 5764, Note_on_c, 6, 57, 64
7, 5780, Note_on_c, 6, 62, 56
7, 7680, Note_on_c, 6, 62, 0
7, 7680, Note_on_c, 6, 57, 0
7, 7684, Note_on_c, 6, 56, 64
7, 7700, Note_on_c, 6, 63, 56
7, 9600, Note_on_c, 6, 63, 0
7, 9600, Note_on_c, 6, 56, 0
7, 9604, Note_on_c, 6, 58, 64
7, 9620, Note_on_c, 6, 65, 56
7, 11520, Note_on_c, 6, 65, 0
7, 11520, Note_on_c, 6, 58, 0
7, 11524, Note_on_c, 6, 55, 64
7, 11540, Note_on_c, 6, 63, 56
7, 12480, Note_on_c, 6, 63, 0
7, 12480, Note_on_c, 6, 55, 0
7, 12484, Note_on_c, 6, 55, 64
7, 12500, Note_on_c, 6, 63, 56
7, 13440, Note_on_c, 6, 63, 0
7, 13440, Note_on_c, 6, 55, 0
7, 13444, Note_on_c, 6, 57, 64
7, 13460, Note_on_c, 6, 62, 56
7, 15360, Note_on_c, 6, 62, 0
7, 15360, Note_on_c, 6, 57, 0
7, 15364, Note_on_c, 6, 56, 64
7, 15380, Note_on_c, 6, 63, 56
7, 17280, Note_on_c, 6, 63, 0
7, 17280, Note_on_c, 6, 56, 0
7, 17284, Note_on_c, 6, 58, 64
7, 17300, Note_on_c, 6, 65, 56
7, 19200, Note_on_c, 6, 65, 0
7, 19200, Note_on_c, 6, 58, 0
7, 19204, Note_on_c, 6, 55, 64
7, 19220, Note_on_c, 6, 63, 56
7, 21120, Note_on_c, 6, 63, 0
7, 21120, Note_on_c, 6, 55, 0
7, 21124, Note_on_c, 6, 57, 64
7, 21140, Note_on_c, 6, 62, 56
7, 23040, Note_on_c, 6, 62, 0
7, 23040, Note_on_c, 6, 57, 0
7, 23044, Note_on_c, 6, 56, 64
7, 23060, Note_on_c, 6, 63, 56
7, 24960, Note_on_c, 6, 63, 0
7, 24960, Note_on_c, 6, 56, 0
7, 24964, Note_on_c, 6, 58, 64
7, 24980, Note_on_c, 6, 65, 56
7, 26880, Note_on_c, 6, 65, 0
7, 26880, Note_on_c, 6, 58, 0
7, 26884, Note_on_c, 6, 55, 64
7, 26900, Note_on_c, 6, 63, 56
7, 28800, Note_on_c, 6, 63, 0
7, 28800, Note_on_c, 6, 55, 0
7, 28804, Note_on_c, 6, 57, 64
7, 28820, Note_on_c, 6, 62, 56
7, 30720, Note_on_c, 6, 62, 0
7, 30720, Note_on_c, 6, 57, 0
7, 30724, Note_on_c, 6, 56, 64
7, 30740, Note_on_c, 6, 63, 56
7, 32640, Note_on_c, 6, 63, 0
7, 32640, Note_on_c, 6, 56, 0
7, 32644, Note_on_c, 6, 58, 64
7, 32660, Note_on_c, 6, 65, 56
7, 34560, Note_on_c, 6, 65, 0
7, 34560, Note_on_c, 6, 58, 0
7, 34564, Note_on_c, 6, 55, 64
7, 34580, Note_on_c, 6, 63, 56
7, 36480, Note_on_c, 6, 63, 0
7, 36480, Note_on_c, 6, 55, 0
7, 36484, Note_on_c, 6, 57, 64
7, 36500, Note_on_c, 6, 62, 56
7, 38400, Note_on_c, 6, 62, 0
7, 38400, Note_on_c, 6, 57, 0
7, 38404, Note_on_c, 6, 56, 64
7, 38420, Note_on_c, 6, 63, 56
7, 40320, Note_on_c, 6, 63, 0
7, 40320, Note_on_c, 6, 56, 0
7, 40324, Note_on_c, 6, 58, 64
7, 40340, Note_on_c, 6, 65, 56
7, 42240, Note_on_c, 6, 65, 0
7, 42240, Note_on_c, 6, 58, 0
7, 42244, Note_on_c, 6, 55, 64
7, 42260, Note_on_c, 6, 63, 56
7, 43200, Note_on_c, 6, 63, 0
7, 43200, Note_on_c, 6, 55, 0
7, 43204, Note_on_c, 6, 55, 64
7, 43220, Note_on_c, 6, 60, 56
7, 44160, Note_on_c, 6, 60, 0
7, 44160, Note_on_c, 6, 55, 0
7, 44164, Note_on_c, 6, 57, 64
7, 44180, Note_on_c, 6, 62, 56
7, 46080, Note_on_c, 6, 62, 0
7, 46080, Note_on_c, 6, 57, 0
7, 46084, Note_on_c, 6, 56, 64
7, 46100, Note_on_c, 6, 63, 56
7, 48000, Note_on_c, 6, 63, 0
7, 48000, Note_on_c, 6, 56, 0
7, 48004, Note_on_c, 6, 58, 64
7, 48020, Note_on_c, 6, 65, 56
7, 49920, Note_on_c, 6, 65, 0
7, 49920, Note_on_c, 6, 58, 0
7, 49924, Note_on_c, 6, 55, 64
7, 49940, Note_on_c, 6, 63, 56
7, 50880, Note_on_c, 6, 63, 0
7, 50880, Note_on_c, 6, 55, 0
7, 50884, Note_on_c, 6, 58, 64
7, 50900, Note_on_c, 6, 63, 56
7, 51840, Note_on_c, 6, 63, 0
7, 51840, Note_on_c, 6, 58, 0
7, 51844, Note_on_c, 6, 57, 64
7, 51860, Note_on_c, 6, 62, 56
7, 53760, Note_on_c, 6, 62, 0
7, 53760, Note_on_c, 6, 57, 0
7, 53764, Note_on_c, 6, 56, 64
7, 53780, Note_on_c, 6, 63, 56
7, 55680, Note_on_c, 6, 63, 0
7, 55680, Note_on_c, 6, 56, 0
7, 55684, Note_on_c, 6, 58, 64
7, 55700, Note_on_c, 6, 65, 56
7, 56640, Note_on_c, 6, 65, 0
7, 56640, Note_on_c, 6, 58, 0
7, 56644, Note_on_c, 6, 58, 64
7, 56660, Note_on_c, 6, 65, 56
7, 57600, Note_on_c, 6, 65, 0
7, 57600, Note_on_c, 6, 58, 0
7, 57604, Note_on_c, 6, 55, 64
7, 57620, Note_on_c, 6, 63, 56
7, 59520, Note_on_c, 6, 63, 0
7, 59520, Note_on_c, 6, 55, 0
7, 59524, Note_on_c, 6, 57, 64
7, 59540, Note_on_c, 6, 62, 56
7, 61440, Note_on_c, 6, 62, 0
7, 61440, Note_on_c, 6, 57, 0
7, 61444, Note_on_c, 6, 56, 64
7, 61460, Note_on_c, 6, 63, 56
7, 63360, Note_on_c, 6, 63, 0
7, 63360, Note_on_c, 6, 56, 0
7, 63364, Note_on_c, 6, 58, 64
7, 63380, Note_on_c, 6, 65, 56
7, 65280, Note_on_c, 6, 65, 0
7, 65280, Note_on_c, 6, 58, 0
7, 65284, Note_on_c, 6, 58, 64
7, 65300, Note_on_c, 6, 63, 56
7, 67200, Note_on_c, 6, 63, 0
7, 67200, Note_on_c, 6, 58, 0
7, 67204, Note_on_c, 6, 58, 64
7, 67220, Note_on_c, 6, 65, 56
7, 69120, Note_on_c, 6, 65, 0
7, 69120, Note_on_c, 6, 58, 0
7, 69124, Note_on_c, 6, 56, 64
7, 69140, Note_on_c, 6, 63, 56
7, 71040, Note_on_c, 6, 63, 0
7, 71040, Note_on_c, 6, 56, 0
7, 71044, Note_on_c, 6, 58, 64
7, 71060, Note_on_c, 6, 65, 56
7, 72960, Note_on_c, 6, 65, 0
7, 72960, Note_on_c, 6, 58, 0
7, 72964, Note_on_c, 6, 58, 64
7, 72980, Note_on_c, 6, 63, 56
7, 74880, Note_on_c, 6, 63, 0
7, 74880, Note_on_c, 6, 58, 0
7, 74884, Note_on_c, 6, 58, 64
7, 74900, Note_on_c, 6, 65, 56
7, 76800, Note_on_c, 6, 65, 0
7, 76800, Note_on_c, 6, 58, 0
7, 76804, Note_on_c, 6, 56, 64
7, 76820, Note_on_c, 6, 63, 56
7, 78720, Note_on_c, 6, 63, 0
7, 78720, Note_on_c, 6, 56, 0
7, 78724, Note_on_c, 6, 58, 64
7, 78740, Note_on_c, 6, 65, 56
7, 80640, Note_on_c, 6, 65, 0
7, 80640, Note_on_c, 6, 58, 0
7, 80644, Note_on_c, 6, 58, 64
7, 80660, Note_on_c, 6, 63, 56
7, 82560, Note_on_c, 6, 63, 0
7, 82560, Note_on_c, 6, 58, 0
7, 82564, Note_on_c, 6, 58, 64
7, 82580, Note_on_c, 6, 65, 56
7, 84480, Note_on_c, 6, 65, 0
7, 84480, Note_on_c, 6, 58, 0
7, 84484, Note_on_c, 6, 56, 64
7, 84500, Note_on_c, 6, 63, 56
7, 86400, Note_on_c, 6, 63, 0
7, 86400, Note_on_c, 6, 56, 0
7, 86404, Note_on_c, 6, 58, 64
7, 86420, Note_on_c, 6, 65, 56
7, 88320, Note_on_c, 6, 65, 0
7, 88320, Note_on_c, 6, 58, 0
7, 88324, Note_on_c, 6, 58, 64
7, 88340, Note_on_c, 6, 63, 56
7, 90240, Note_on_c, 6, 63, 0
7, 90240, Note_on_c, 6, 58, 0
7, 90244, Note_on_c, 6, 58, 64
7, 90260, Note_on_c, 6, 65, 56
7, 92160, Note_on_c, 6, 65, 0
7, 92160, Note_on_c, 6, 58, 0
7, 92164, Note_on_c, 6, 56, 64
7, 92180, Note_on_c, 6, 63, 56
7, 94080, Note_on_c, 6, 63, 0
7, 94080, Note_on_c, 6, 56, 0
7, 94084, Note_on_c, 6, 58, 64
7, 94100, Note_on_c, 6, 65, 56
7, 96000, Note_on_c, 6, 65, 0
7, 96000, Note_on_c, 6, 58, 0
7, 96004, Note_on_c, 6, 58, 64
7, 96020, Note_on_c, 6, 63, 56
7, 97920, Note_on_c, 6, 63, 0
7, 97920, Note_on_c, 6, 58, 0
7, 97924, Note_on_c, 6, 58, 64
7, 97940, Note_on_c, 6, 65, 56
7, 99840, Note_on_c, 6, 65, 0
7, 99840, Note_on_c, 6, 58, 0
7, 99844, Note_on_c, 6, 56, 64
7, 99860, Note_on_c, 6, 63, 56
7, 101760, Note_on_c, 6, 63, 0
7, 101760, Note_on_c, 6, 56, 0
7, 101764, Note_on_c, 6, 58, 64
7, 101780, Note_on_c, 6, 65, 56
7, 103680, Note_on_c, 6, 65, 0
7, 103680, Note_on_c, 6, 58, 0
7, 103684, Note_on_c, 6, 58, 64
7, 103700, Note_on_c, 6, 63, 56
7, 105600, Note_on_c, 6, 63, 0
7, 105600, Note_on_c, 6, 58, 0
7, 105604, Note_on_c, 6, 58, 64
7, 105620, Note_on_c, 6, 65, 56
7, 107520, Note_on_c, 6, 65, 0
7, 107520, Note_on_c, 6, 58, 0
7, 107524, Note_on_c, 6, 56, 64
7, 107540, Note_on_c, 6, 63, 56
7, 109440, Note_on_c, 6, 63, 0
7, 109440, Note_on_c, 6, 56, 0
7, 109444, Note_on_c, 6, 58, 64
7, 109460, Note_on_c, 6, 65, 56
7, 111360, Note_on_c, 6, 65, 0
7, 111360, Note_on_c, 6, 58, 0
7, 111364, Note_on_c, 6, 58, 64
7, 111380, Note_on_c, 6, 63, 56
7, 113280, Note_on_c, 6, 63, 0
7, 113280, Note_on_c, 6, 58, 0
7, 113284, Note_on_c, 6, 58, 64
7, 113300, Note_on_c, 6, 65, 56
7, 115200, Note_on_c, 6, 65, 0
7, 115200, Note_on_c, 6, 58, 0
7, 115204, Note_on_c, 6, 56, 64
7, 115220, Note_on_c, 6, 63, 56
7, 117120, Note_on_c, 6, 63, 0
7, 117120, Note_on_c, 6, 56, 0
7, 117124, Note_on_c, 6, 58, 64
7, 117140, Note_on_c, 6, 65, 56
7, 119040, Note_on_c, 6, 65, 0
7, 119040, Note_on_c, 6, 58, 0
7, 119044, Note_on_c, 6, 58, 64
7, 119060, Note_on_c, 6, 63, 56
7, 120960, Note_on_c, 6, 63, 0
7, 120960, Note_on_c, 6, 58, 0
7, 120964, Note_on_c, 6, 58, 64
7, 120980, Note_on_c, 6, 65, 56
7, 122880, Note_on_c, 6, 65, 0
7, 122880, Note_on_c, 6, 58, 0
7, 122884, Note_on_c, 6, 56, 64
7, 122900, Note_on_c, 6, 63, 56
7, 124800, Note_on_c, 6, 63, 0
7, 124800, Note_on_c, 6, 56, 0
7, 124804, Note_on_c, 6, 58, 64
7, 124820, Note_on_c, 6, 65, 56
7, 126720, Note_on_c, 6, 65, 0
7, 126720, Note_on_c, 6, 58, 0
7, 126724, Note_on_c, 6, 58, 64
7, 126740, Note_on_c, 6, 63, 56
7, 128640, Note_on_c, 6, 63, 0
7, 128640, Note_on_c, 6, 58, 0
7, 128644, Note_on_c, 6, 58, 64
7, 128660, Note_on_c, 6, 65, 56
7, 130560, Note_on_c, 6, 65, 0
7, 130560, Note_on_c, 6, 58, 0
7, 130564, Note_on_c, 6, 56, 64
7, 130580, Note_on_c, 6, 63, 56
7, 132480, Note_on_c, 6, 63, 0
7, 132480, Note_on_c, 6, 56, 0
7, 132484, Note_on_c, 6, 58, 64
7, 132500, Note_on_c, 6, 65, 56
7, 134400, Note_on_c, 6, 65, 0
7, 134400, Note_on_c, 6, 58, 0
7, 134404, Note_on_c, 6, 55, 64
7, 134420, Note_on_c, 6, 63, 56
7, 138228, Note_on_c, 6, 55, 0
7, 138240, Note_on_c, 6, 63, 0
7, 138244, Note_on_c, 6, 55, 64
7, 138260, Note_on_c, 6, 63, 56
7, 142068, Note_on_c, 6, 55, 0
7, 142080, Note_on_c, 6, 63, 0
7, 142084, Note_on_c, 6, 58, 64
7, 142100, Note_on_c, 6, 63, 56
7, 145908, Note_on_c, 6, 58, 0
7, 145920, Note_on_c, 6, 63, 0
7, 145924, Note_on_c, 6, 58, 64
7, 145940, Note_on_c, 6, 63, 56
7, 149748, Note_on_c, 6, 58, 0
7, 149760, Note_on_c, 6, 63, 0
7, 149764, Note_on_c, 6, 58, 64
7, 149780, Note_on_c, 6, 63, 56
7, 151680, Note_on_c, 6, 63, 0
7, 151680, Note_on_c, 6, 58, 0
7, 151684, Note_on_c, 6, 58, 64
7, 151700, Note_on_c, 6, 65, 56
7, 153600, Note_on_c, 6, 65, 0
7, 153600, Note_on_c, 6, 58, 0
7, 153604, Note_on_c, 6, 56, 64
7, 153620, Note_on_c, 6, 63, 56
7, 155520, Note_on_c, 6, 63, 0
7, 155520, Note_on_c, 6, 56, 0
7, 155524, Note_on_c, 6, 58, 64
7, 155540, Note_on_c, 6, 65, 56
7, 157440, Note_on_c, 6, 65, 0
7, 157440, Note_on_c, 6, 58, 0
7, 157444, Note_on_c, 6, 58, 64
7, 157460, Note_on_c, 6, 63, 56
7, 159360, Note_on_c, 6, 63, 0
7, 159360, Note_on_c, 6, 58, 0
7, 159364, Note_on_c, 6, 58, 64
7, 159380, Note_on_c, 6, 65, 56
7, 161280, Note_on_c, 6, 65, 0
7, 161280, Note_on_c, 6, 58, 0
7, 161284, Note_on_c, 6, 56, 64
7, 161300, Note_on_c, 6, 63, 56
7, 163200, Note_on_c, 6, 63, 0
7, 163200, Note_on_c, 6, 56, 0
7, 163204, Note_on_c, 6, 58, 64
7, 163220, Note_on_c, 6, 65, 56
7, 165120, Note_on_c, 6, 65, 0
7, 165120, Note_on_c, 6, 58, 0
7, 165124, Note_on_c, 6, 58, 64
7, 165140, Note_on_c, 6, 63, 56
7, 167040, Note_on_c, 6, 63, 0
7, 167040, Note_on_c, 6, 58, 0
7, 167044, Note_on_c, 6, 58, 64
7, 167060, Note_on_c, 6, 65, 56
7, 168960, Note_on_c, 6, 65, 0
7, 168960, Note_on_c, 6, 58, 0
7, 168964, Note_on_c, 6, 56, 64
7, 168980, Note_on_c, 6, 63, 56
7, 170880, Note_on_c, 6, 63, 0
7, 170880, Note_on_c, 6, 56, 0
7, 170884, Note_on_c, 6, 58, 64
7, 170900, Note_on_c, 6, 65, 56
7, 172800, Note_on_c, 6, 65, 0
7, 172800, Note_on_c, 6, 58, 0
7, 172804, Note_on_c, 6, 58, 64
7, 172820, Note_on_c, 6, 63, 56
7, 174720, Note_on_c, 6, 63, 0
7, 174720, Note_on_c, 6, 58, 0
7, 174724, Note_on_c, 6, 58, 64
7, 174740, Note_on_c, 6, 65, 56
7, 176640, Note_on_c, 6, 65, 0
7, 176640, Note_on_c, 6, 58, 0
7, 176644, Note_on_c, 6, 56, 64
7, 176660, Note_on_c, 6, 63, 56
7, 178560, Note_on_c, 6, 63, 0
7, 178560, Note_on_c, 6, 56, 0
7, 178564, Note_on_c, 6, 58, 64
7, 178580, Note_on_c, 6, 65, 56
7, 180480, Note_on_c, 6, 65, 0
7, 180480, Note_on_c, 6, 58, 0
7, 180484, Note_on_c, 6, 58, 64
7, 180500, Note_on_c, 6, 63, 56
7, 182400, Note_on_c, 6, 63, 0
7, 182400, Note_on_c, 6, 58, 0
7, 182404, Note_on_c, 6, 58, 64
7, 182420, Note_on_c, 6, 65, 56
7, 184320, Note_on_c, 6, 65, 0
7, 184320, Note_on_c, 6, 58, 0
7, 184324, Note_on_c, 6, 56, 64
7, 184340, Note_on_c, 6, 63, 56
7, 186240, Note_on_c, 6, 63, 0
7, 186240, Note_on_c, 6, 56, 0
7, 186244, Note_on_c, 6, 58, 64
7, 186260, Note_on_c, 6, 65, 56
7, 188160, Note_on_c, 6, 65, 0
7, 188160, Note_on_c, 6, 58, 0
7, 188164, Note_on_c, 6, 58, 64
7, 188180, Note_on_c, 6, 63, 56
7, 190080, Note_on_c, 6, 63, 0
7, 190080, Note_on_c, 6, 58, 0
7, 190084, Note_on_c, 6, 58, 64
7, 190100, Note_on_c, 6, 65, 56
7, 192000, Note_on_c, 6, 65, 0
7, 192000, Note_on_c, 6, 58, 0
7, 192004, Note_on_c, 6, 56, 64
7, 192020, Note_on_c, 6, 63, 56
7, 193920, Note_on_c, 6, 63, 0
7, 193920, Note_on_c, 6, 56, 0
7, 193924, Note_on_c, 6, 58, 64
7, 193940, Note_on_c, 6, 65, 56
7, 195840, Note_on_c, 6, 65, 0
7, 195840, Note_on_c, 6, 58, 0
7, 195844, Note_on_c, 6, 58, 64
7, 195860, Note_on_c, 6, 63, 56
7, 197760, Note_on_c, 6, 63, 0
7, 197760, Note_on_c, 6, 58, 0
7, 197764, Note_on_c, 6, 58, 64
7, 197780, Note_on_c, 6, 65, 56
7, 199680, Note_on_c, 6, 65, 0
7, 199680, Note_on_c, 6, 58, 0
7, 199684, Note_on_c, 6, 56, 64
7, 199700, Note_on_c, 6, 63, 56
7, 201600, Note_on_c, 6, 63, 0
7, 201600, Note_on_c, 6, 56, 0
7, 201604, Note_on_c, 6, 58, 64
7, 201620, Note_on_c, 6, 65, 56
7, 203520, Note_on_c, 6, 65, 0
7, 203520, Note_on_c, 6, 58, 0
7, 203524, Note_on_c, 6, 58, 64
7, 203540, Note_on_c, 6, 63, 56
7, 205440, Note_on_c, 6, 63, 0
7, 205440, Note_on_c, 6, 58, 0
7, 205444, Note_on_c, 6, 58, 64
7, 205460, Note_on_c, 6, 65, 56
7, 207360, Note_on_c, 6, 65, 0
7, 207360, Note_on_c, 6, 58, 0
7, 207364, Note_on_c, 6, 56, 64
7, 207380, Note_on_c, 6, 63, 56
7, 209280, Note_on_c, 6, 63, 0
7, 209280, Note_on_c, 6, 56, 0
7, 209284, Note_on_c, 6, 58, 64
7, 209300, Note_on_c, 6, 65, 56
7, 211200, Note_on_c, 6, 65, 0
7, 211200, Note_on_c, 6, 58, 0
7, 211204, Note_on_c, 6, 58, 64
7, 211220, Note_on_c, 6, 63, 56
7, 215028, Note_on_c, 6, 58, 0
7, 215040, Note_on_c, 6, 63, 0
7, 215044, Note_on_c, 6, 58, 64
7, 215060, Note_on_c, 6, 63, 56
7, 216960, Note_on_c, 6, 63, 0
7, 216960, Note_on_c, 6, 58, 0
7, 216964, Note_on_c, 6, 58, 64
7, 216980, Note_on_c, 6, 63, 56
7, 220004, Note_on_c, 6, 58, 0
7, 220036, Note_on_c, 6, 63, 0
7, 220800, Control_c, 6, 64, 0
7, 220800, End_track
8, 0, Start_track
8, 0, Title_t, "strings 1"
8, 0, Program_c, 5, 52
8, 0, Control_c, 5, 7, 115
8, 0, Control_c, 5, 10, 64
8, 0, Control_c, 5, 91, 89
8, 0, Control_c, 5, 93, 45
8, 0, Control_c, 5, 123, 0
8, 0, Control_c, 5, 64, 0
8, 19208, Note_on_c, 5, 67, 35
8, 21120, Note_on_c, 5, 67, 0
8, 21128, Note_on_c, 5, 65, 35
8, 23040, Note_on_c, 5, 65, 0
8, 23048, Note_on_c, 5, 65, 35
8, 24960, Note_on_c, 5, 65, 0
8, 24968, Note_on_c, 5, 67, 35
8, 26880, Note_on_c, 5, 67, 0
8, 26888, Note_on_c, 5, 67, 35
8, 28800, Note_on_c, 5, 67, 0
8, 28808, Note_on_c, 5, 65, 35
8, 30720, Note_on_c, 5, 65, 0
8, 30728, Note_on_c, 5, 65, 35
8, 32640, Note_on_c, 5, 65, 0
8, 32648, Note_on_c, 5, 67, 35
8, 34560, Note_on_c, 5, 67, 0
8, 34568, Note_on_c, 5, 67, 35
8, 36480, Note_on_c, 5, 67, 0
8, 36488, Note_on_c, 5, 65, 35
8, 38400, Note_on_c, 5, 65, 0
8, 38408, Note_on_c, 5, 65, 35
8, 40320, Note_on_c, 5, 65, 0
8, 40328, Note_on_c, 5, 67, 35
8, 42240, Note_on_c, 5, 67, 0
8, 42248, Note_on_c, 5, 67, 33
8, 43200, Note_on_c, 5, 67, 0
8, 43208, Note_on_c, 5, 63, 33
8, 44160, Note_on_c, 5, 63, 0
8, 44168, Note_on_c, 5, 65, 35
8, 46080, Note_on_c, 5, 65, 0
8, 46088, Note_on_c, 5, 65, 35
8, 48000, Note_on_c, 5, 65, 0
8, 48008, Note_on_c, 5, 67, 35
8, 49920, Note_on_c, 5, 67, 0
8, 49928, Note_on_c, 5, 67, 33
8, 50880, Note_on_c, 5, 67, 0
8, 50888, Note_on_c, 5, 67, 33
8, 51840, Note_on_c, 5, 67, 0
8, 51848, Note_on_c, 5, 65, 35
8, 53760, Note_on_c, 5, 65, 0
8, 53768, Note_on_c, 5, 65, 35
8, 55680, Note_on_c, 5, 65, 0
8, 55688, Note_on_c, 5, 67, 33
8, 56640, Note_on_c, 5, 67, 0
8, 56648, Note_on_c, 5, 67, 33
8, 57600, Note_on_c, 5, 67, 0
8, 57608, Note_on_c, 5, 67, 35
8, 59520, Note_on_c, 5, 67, 0
8, 59528, Note_on_c, 5, 65, 35
8, 61440, Note_on_c, 5, 65, 0
8, 61448, Note_on_c, 5, 65, 35
8, 63360, Note_on_c, 5, 65, 0
8, 63368, Note_on_c, 5, 67, 35
8, 65280, Note_on_c, 5, 67, 0
8, 65288, Note_on_c, 5, 67, 35
8, 67200, Note_on_c, 5, 67, 0
8, 67208, Note_on_c, 5, 67, 35
8, 69120, Note_on_c, 5, 67, 0
8, 69128, Note_on_c, 5, 65, 35
8, 71040, Note_on_c, 5, 65, 0
8, 71048, Note_on_c, 5, 67, 35
8, 72960, Note_on_c, 5, 67, 0
8, 72968, Note_on_c, 5, 67, 35
8, 74880, Note_on_c, 5, 67, 0
8, 74888, Note_on_c, 5, 67, 35
8, 76800, Note_on_c, 5, 67, 0
8, 76808, Note_on_c, 5, 65, 35
8, 78720, Note_on_c, 5, 65, 0
8, 78728, Note_on_c, 5, 67, 35
8, 80640, Note_on_c, 5, 67, 0
8, 80648, Note_on_c, 5, 67, 35
8, 82560, Note_on_c, 5, 67, 0
8, 82568, Note_on_c, 5, 67, 35
8, 84480, Note_on_c, 5, 67, 0
8, 84488, Note_on_c, 5, 65, 35
8, 86400, Note_on_c, 5, 65, 0
8, 86408, Note_on_c, 5, 67, 35
8, 88320, Note_on_c, 5, 67, 0
8, 88328, Note_on_c, 5, 67, 35
8, 90240, Note_on_c, 5, 67, 0
8, 90248, Note_on_c, 5, 67, 35
8, 92160, Note_on_c, 5, 67, 0
8, 92168, Note_on_c, 5, 65, 35
8, 94080, Note_on_c, 5, 65, 0
8, 94088, Note_on_c, 5, 67, 35
8, 96000, Note_on_c, 5, 67, 0
8, 96008, Note_on_c, 5, 67, 35
8, 97920, Note_on_c, 5, 67, 0
8, 97928, Note_on_c, 5, 67, 35
8, 99840, Note_on_c, 5, 67, 0
8, 99848, Note_on_c, 5, 65, 35
8, 101760, Note_on_c, 5, 65, 0
8, 101768, Note_on_c, 5, 67, 35
8, 103680, Note_on_c, 5, 67, 0
8, 103688, Note_on_c, 5, 67, 35
8, 105600, Note_on_c, 5, 67, 0
8, 105608, Note_on_c, 5, 67, 35
8, 107520, Note_on_c, 5, 67, 0
8, 107528, Note_on_c, 5, 65, 35
8, 109440, Note_on_c, 5, 65, 0
8, 109448, Note_on_c, 5, 67, 35
8, 111360, Note_on_c, 5, 67, 0
8, 111368, Note_on_c, 5, 67, 35
8, 113280, Note_on_c, 5, 67, 0
8, 113288, Note_on_c, 5, 67, 35
8, 115200, Note_on_c, 5, 67, 0
8, 115208, Note_on_c, 5, 65, 35
8, 117120, Note_on_c, 5, 65, 0
8, 117128, Note_on_c, 5, 67, 35
8, 119040, Note_on_c, 5, 67, 0
8, 119048, Note_on_c, 5, 67, 35
8, 120960, Note_on_c, 5, 67, 0
8, 120968, Note_on_c, 5, 67, 35
8, 122880, Note_on_c, 5, 67, 0
8, 122888, Note_on_c, 5, 65, 35
8, 124800, Note_on_c, 5, 65, 0
8, 124808, Note_on_c, 5, 67, 35
8, 126720, Note_on_c, 5, 67, 0
8, 126728, Note_on_c, 5, 67, 35
8, 128640, Note_on_c, 5, 67, 0
8, 128648, Note_on_c, 5, 67, 35
8, 130560, Note_on_c, 5, 67, 0
8, 130568, Note_on_c, 5, 65, 35
8, 132480, Note_on_c, 5, 65, 0
8, 132488, Note_on_c, 5, 67, 35
8, 134400, Note_on_c, 5, 67, 0
8, 134408, Note_on_c, 5, 67, 35
8, 138228, Note_on_c, 5, 67, 0
8, 138248, Note_on_c, 5, 67, 35
8, 142068, Note_on_c, 5, 67, 0
8, 142088, Note_on_c, 5, 67, 35
8, 145908, Note_on_c, 5, 67, 0
8, 145928, Note_on_c, 5, 67, 35
8, 149748, Note_on_c, 5, 67, 0
8, 149768, Note_on_c, 5, 67, 35
8, 151680, Note_on_c, 5, 67, 0
8, 151688, Note_on_c, 5, 67, 35
8, 153600, Note_on_c, 5, 67, 0
8, 153608, Note_on_c, 5, 65, 35
8, 155520, Note_on_c, 5, 65, 0
8, 155528, Note_on_c, 5, 67, 35
8, 157440, Note_on_c, 5, 67, 0
8, 157448, Note_on_c, 5, 67, 35
8, 159360, Note_on_c, 5, 67, 0
8, 159368, Note_on_c, 5, 67, 35
8, 161280, Note_on_c, 5, 67, 0
8, 161288, Note_on_c, 5, 65, 35
8, 163200, Note_on_c, 5, 65, 0
8, 163208, Note_on_c, 5, 67, 35
8, 165120, Note_on_c, 5, 67, 0
8, 165128, Note_on_c, 5, 67, 35
8, 167040, Note_on_c, 5, 67, 0
8, 167048, Note_on_c, 5, 67, 35
8, 168960, Note_on_c, 5, 67, 0
8, 168968, Note_on_c, 5, 65, 35
8, 170880, Note_on_c, 5, 65, 0
8, 170888, Note_on_c, 5, 67, 35
8, 172800, Note_on_c, 5, 67, 0
8, 172808, Note_on_c, 5, 67, 35
8, 174720, Note_on_c, 5, 67, 0
8, 174728, Note_on_c, 5, 67, 35
8, 176640, Note_on_c, 5, 67, 0
8, 176648, Note_on_c, 5, 65, 35
8, 178560, Note_on_c, 5, 65, 0
8, 178568, Note_on_c, 5, 67, 35
8, 180480, Note_on_c, 5, 67, 0
8, 180488, Note_on_c, 5, 67, 35
8, 182400, Note_on_c, 5, 67, 0
8, 182408, Note_on_c, 5, 67, 35
8, 184320, Note_on_c, 5, 67, 0
8, 184328, Note_on_c, 5, 65, 35
8, 186240, Note_on_c, 5, 65, 0
8, 186248, Note_on_c, 5, 67, 35
8, 188160, Note_on_c, 5, 67, 0
8, 188168, Note_on_c, 5, 67, 35
8, 190080, Note_on_c, 5, 67, 0
8, 190088, Note_on_c, 5, 67, 35
8, 192000, Note_on_c, 5, 67, 0
8, 192008, Note_on_c, 5, 65, 35
8, 193920, Note_on_c, 5, 65, 0
8, 193928, Note_on_c, 5, 67, 35
8, 195840, Note_on_c, 5, 67, 0
8, 195848, Note_on_c, 5, 67, 35
8, 197760, Note_on_c, 5, 67, 0
8, 197768, Note_on_c, 5, 67, 35
8, 199680, Note_on_c, 5, 67, 0
8, 199688, Note_on_c, 5, 65, 35
8, 201600, Note_on_c, 5, 65, 0
8, 201608, Note_on_c, 5, 67, 35
8, 203520, Note_on_c, 5, 67, 0
8, 203528, Note_on_c, 5, 67, 35
8, 205440, Note_on_c, 5, 67, 0
8, 205448, Note_on_c, 5, 67, 35
8, 207360, Note_on_c, 5, 67, 0
8, 207368, Note_on_c, 5, 65, 35
8, 209280, Note_on_c, 5, 65, 0
8, 209288, Note_on_c, 5, 67, 35
8, 211200, Note_on_c, 5, 67, 0
8, 211208, Note_on_c, 5, 67, 35
8, 215028, Note_on_c, 5, 67, 0
8, 215048, Note_on_c, 5, 67, 35
8, 216960, Note_on_c, 5, 67, 0
8, 216960, Note_on_c, 5, 70, 45
8, 216964, Note_on_c, 5, 67, 45
8, 216968, Note_on_c, 5, 63, 45
8, 220288, Note_on_c, 5, 63, 0
8, 220296, Note_on_c, 5, 67, 0
8, 220308, Note_on_c, 5, 70, 0
8, 220800, Control_c, 5, 64, 0
8, 220800, End_track
9, 0, Start_track
9, 0, Title_t, "bass 2"
9, 0, Program_c, 7, 36
9, 0, Control_c, 7, 7, 110
9, 0, Control_c, 7, 10, 97
9, 0, Control_c, 7, 91, 54
9, 0, Control_c, 7, 93, 0
9, 0, Control_c, 7, 123, 0
9, 17280, Control_c, 7, 64, 0
9, 17280, Control_c, 7, 7, 90
9, 18600, Note_on_c, 7, 55, 79
9, 18696, Note_on_c, 7, 55, 0
9, 18720, Note_on_c, 7, 53, 79
9, 18840, Note_on_c, 7, 53, 0
9, 18840, Note_on_c, 7, 48, 86
9, 18960, Note_on_c, 7, 51, 86
9, 18968, Note_on_c, 7, 48, 0
9, 19164, Note_on_c, 7, 51, 0
9, 64680, Note_on_c, 7, 55, 79
9, 64776, Note_on_c, 7, 55, 0
9, 64800, Note_on_c, 7, 53, 79
9, 64920, Note_on_c, 7, 53, 0
9, 64920, Note_on_c, 7, 48, 86
9, 65040, Note_on_c, 7, 51, 86
9, 65048, Note_on_c, 7, 48, 0
9, 65244, Note_on_c, 7, 51, 0
9, 65520, Note_on_c, 7, 48, 86
9, 65640, Note_on_c, 7, 48, 0
9, 65640, Note_on_c, 7, 43, 63
9, 65760, Note_on_c, 7, 36, 86
9, 65764, Note_on_c, 7, 43, 0
9, 65880, Note_on_c, 7, 36, 0
9, 66120, Note_on_c, 7, 36, 86
9, 66192, Note_on_c, 7, 36, 0
9, 66240, Note_on_c, 7, 36, 79
9, 66360, Note_on_c, 7, 36, 0
9, 66360, Note_on_c, 7, 39, 63
9, 66480, Note_on_c, 7, 43, 79
9, 66484, Note_on_c, 7, 39, 0
9, 66576, Note_on_c, 7, 43, 0
9, 66720, Note_on_c, 7, 41, 86
9, 66824, Note_on_c, 7, 41, 0
9, 66840, Note_on_c, 7, 39, 59
9, 66960, Note_on_c, 7, 36, 86
9, 66976, Note_on_c, 7, 39, 0
9, 67068, Note_on_c, 7, 36, 0
9, 67200, Note_on_c, 7, 36, 94
9, 67316, Note_on_c, 7, 36, 0
9, 67320, Note_on_c, 7, 43, 41
9, 67360, Note_on_c, 7, 43, 0
9, 67440, Note_on_c, 7, 48, 94
9, 67560, Note_on_c, 7, 43, 59
9, 67564, Note_on_c, 7, 48, 0
9, 67660, Note_on_c, 7, 43, 0
9, 67680, Note_on_c, 7, 36, 68
9, 67808, Note_on_c, 7, 36, 0
9, 68040, Note_on_c, 7, 36, 73
9, 68116, Note_on_c, 7, 36, 0
9, 68160, Note_on_c, 7, 36, 73
9, 68264, Note_on_c, 7, 36, 0
9, 68280, Note_on_c, 7, 39, 59
9, 68376, Note_on_c, 7, 39, 0
9, 68400, Note_on_c, 7, 43, 79
9, 68496, Note_on_c, 7, 43, 0
9, 68640, Note_on_c, 7, 41, 86
9, 68736, Note_on_c, 7, 41, 0
9, 68760, Note_on_c, 7, 39, 73
9, 68860, Note_on_c, 7, 39, 0
9, 68880, Note_on_c, 7, 36, 94
9, 68984, Note_on_c, 7, 36, 0
9, 69120, Note_on_c, 7, 36, 94
9, 69232, Note_on_c, 7, 36, 0
9, 69360, Note_on_c, 7, 48, 86
9, 69480, Note_on_c, 7, 48, 0
9, 69480, Note_on_c, 7, 43, 63
9, 69600, Note_on_c, 7, 36, 86
9, 69604, Note_on_c, 7, 43, 0
9, 69720, Note_on_c, 7, 36, 0
9, 69960, Note_on_c, 7, 36, 86
9, 70032, Note_on_c, 7, 36, 0
9, 70080, Note_on_c, 7, 36, 79
9, 70200, Note_on_c, 7, 36, 0
9, 70200, Note_on_c, 7, 39, 63
9, 70320, Note_on_c, 7, 43, 79
9, 70324, Note_on_c, 7, 39, 0
9, 70416, Note_on_c, 7, 43, 0
9, 70560, Note_on_c, 7, 41, 86
9, 70664, Note_on_c, 7, 41, 0
9, 70680, Note_on_c, 7, 39, 59
9, 70800, Note_on_c, 7, 36, 86
9, 70816, Note_on_c, 7, 39, 0
9, 70908, Note_on_c, 7, 36, 0
9, 71040, Note_on_c, 7, 36, 94
9, 71156, Note_on_c, 7, 36, 0
9, 71160, Note_on_c, 7, 43, 41
9, 71200, Note_on_c, 7, 43, 0
9, 71280, Note_on_c, 7, 48, 94
9, 71400, Note_on_c, 7, 43, 59
9, 71404, Note_on_c, 7, 48, 0
9, 71500, Note_on_c, 7, 43, 0
9, 71520, Note_on_c, 7, 36, 68
9, 71648, Note_on_c, 7, 36, 0
9, 71880, Note_on_c, 7, 36, 73
9, 71956, Note_on_c, 7, 36, 0
9, 72000, Note_on_c, 7, 36, 73
9, 72104, Note_on_c, 7, 36, 0
9, 72120, Note_on_c, 7, 39, 59
9, 72216, Note_on_c, 7, 39, 0
9, 72240, Note_on_c, 7, 43, 79
9, 72336, Note_on_c, 7, 43, 0
9, 72480, Note_on_c, 7, 41, 86
9, 72576, Note_on_c, 7, 41, 0
9, 72600, Note_on_c, 7, 39, 73
9, 72700, Note_on_c, 7, 39, 0
9, 72720, Note_on_c, 7, 36, 94
9, 72824, Note_on_c, 7, 36, 0
9, 72960, Note_on_c, 7, 36, 94
9, 73072, Note_on_c, 7, 36, 0
9, 73200, Note_on_c, 7, 48, 86
9, 73320, Note_on_c, 7, 48, 0
9, 73320, Note_on_c, 7, 43, 63
9, 73440, Note_on_c, 7, 36, 86
9, 73444, Note_on_c, 7, 43, 0
9, 73560, Note_on_c, 7, 36, 0
9, 73800, Note_on_c, 7, 36, 86
9, 73872, Note_on_c, 7, 36, 0
9, 73920, Note_on_c, 7, 36, 79
9, 74040, Note_on_c, 7, 36, 0
9, 74040, Note_on_c, 7, 39, 63
9, 74160, Note_on_c, 7, 43, 79
9, 74164, Note_on_c, 7, 39, 0
9, 74256, Note_on_c, 7, 43, 0
9, 74400, Note_on_c, 7, 41, 86
9, 74504, Note_on_c, 7, 41, 0
9, 74520, Note_on_c, 7, 39, 59
9, 74640, Note_on_c, 7, 36, 86
9, 74656, Note_on_c, 7, 39, 0
9, 74748, Note_on_c, 7, 36, 0
9, 74880, Note_on_c, 7, 36, 94
9, 74996, Note_on_c, 7, 36, 0
9, 75000, Note_on_c, 7, 43, 41
9, 75040, Note_on_c, 7, 43, 0
9, 75120, Note_on_c, 7, 48, 94
9, 75240, Note_on_c, 7, 43, 59
9, 75244, Note_on_c, 7, 48, 0
9, 75340, Note_on_c, 7, 43, 0
9, 75360, Note_on_c, 7, 36, 68
9, 75488, Note_on_c, 7, 36, 0
9, 75720, Note_on_c, 7, 36, 73
9, 75796, Note_on_c, 7, 36, 0
9, 75840, Note_on_c, 7, 36, 73
9, 75944, Note_on_c, 7, 36, 0
9, 75960, Note_on_c, 7, 39, 59
9, 76056, Note_on_c, 7, 39, 0
9, 76080, Note_on_c, 7, 43, 79
9, 76176, Note_on_c, 7, 43, 0
9, 76320, Note_on_c, 7, 41, 86
9, 76416, Note_on_c, 7, 41, 0
9, 76440, Note_on_c, 7, 39, 73
9, 76540, Note_on_c, 7, 39, 0
9, 76560, Note_on_c, 7, 36, 94
9, 76664, Note_on_c, 7, 36, 0
9, 76800, Note_on_c, 7, 36, 94
9, 76912, Note_on_c, 7, 36, 0
9, 77040, Note_on_c, 7, 48, 86
9, 77160, Note_on_c, 7, 48, 0
9, 77160, Note_on_c, 7, 43, 63
9, 77280, Note_on_c, 7, 36, 86
9, 77284, Note_on_c, 7, 43, 0
9, 77400, Note_on_c, 7, 36, 0
9, 77640, Note_on_c, 7, 36, 86
9, 77712, Note_on_c, 7, 36, 0
9, 77760, Note_on_c, 7, 36, 79
9, 77880, Note_on_c, 7, 36, 0
9, 77880, Note_on_c, 7, 39, 63
9, 78000, Note_on_c, 7, 43, 79
9, 78004, Note_on_c, 7, 39, 0
9, 78096, Note_on_c, 7, 43, 0
9, 78240, Note_on_c, 7, 41, 86
9, 78344, Note_on_c, 7, 41, 0
9, 78360, Note_on_c, 7, 39, 59
9, 78480, Note_on_c, 7, 36, 86
9, 78496, Note_on_c, 7, 39, 0
9, 78588, Note_on_c, 7, 36, 0
9, 78720, Note_on_c, 7, 36, 94
9, 78836, Note_on_c, 7, 36, 0
9, 78840, Note_on_c, 7, 43, 41
9, 78880, Note_on_c, 7, 43, 0
9, 78960, Note_on_c, 7, 48, 94
9, 79080, Note_on_c, 7, 43, 59
9, 79084, Note_on_c, 7, 48, 0
9, 79180, Note_on_c, 7, 43, 0
9, 79200, Note_on_c, 7, 36, 68
9, 79328, Note_on_c, 7, 36, 0
9, 79560, Note_on_c, 7, 36, 73
9, 79636, Note_on_c, 7, 36, 0
9, 79680, Note_on_c, 7, 36, 73
9, 79784, Note_on_c, 7, 36, 0
9, 79800, Note_on_c, 7, 39, 59
9, 79896, Note_on_c, 7, 39, 0
9, 79920, Note_on_c, 7, 43, 79
9, 80016, Note_on_c, 7, 43, 0
9, 80160, Note_on_c, 7, 41, 86
9, 80256, Note_on_c, 7, 41, 0
9, 80280, Note_on_c, 7, 39, 73
9, 80380, Note_on_c, 7, 39, 0
9, 80400, Note_on_c, 7, 36, 94
9, 80504, Note_on_c, 7, 36, 0
9, 80640, Note_on_c, 7, 36, 94
9, 80752, Note_on_c, 7, 36, 0
9, 80880, Note_on_c, 7, 48, 86
9, 81000, Note_on_c, 7, 48, 0
9, 81000, Note_on_c, 7, 43, 63
9, 81120, Note_on_c, 7, 36, 86
9, 81124, Note_on_c, 7, 43, 0
9, 81240, Note_on_c, 7, 36, 0
9, 81480, Note_on_c, 7, 36, 86
9, 81552, Note_on_c, 7, 36, 0
9, 81600, Note_on_c, 7, 36, 79
9, 81720, Note_on_c, 7, 36, 0
9, 81720, Note_on_c, 7, 39, 63
9, 81840, Note_on_c, 7, 43, 79
9, 81844, Note_on_c, 7, 39, 0
9, 81936, Note_on_c, 7, 43, 0
9, 82080, Note_on_c, 7, 41, 86
9, 82184, Note_on_c, 7, 41, 0
9, 82200, Note_on_c, 7, 39, 59
9, 82320, Note_on_c, 7, 36, 86
9, 82336, Note_on_c, 7, 39, 0
9, 82428, Note_on_c, 7, 36, 0
9, 82560, Note_on_c, 7, 36, 94
9, 82676, Note_on_c, 7, 36, 0
9, 82680, Note_on_c, 7, 43, 41
9, 82720, Note_on_c, 7, 43, 0
9, 82800, Note_on_c, 7, 48, 94
9, 82920, Note_on_c, 7, 43, 59
9, 82924, Note_on_c, 7, 48, 0
9, 83020, Note_on_c, 7, 43, 0
9, 83040, Note_on_c, 7, 36, 68
9, 83168, Note_on_c, 7, 36, 0
9, 83400, Note_on_c, 7, 36, 73
9, 83476, Note_on_c, 7, 36, 0
9, 83520, Note_on_c, 7, 36, 73
9, 83624, Note_on_c, 7, 36, 0
9, 83640, Note_on_c, 7, 39, 59
9, 83736, Note_on_c, 7, 39, 0
9, 83760, Note_on_c, 7, 43, 79
9, 83856, Note_on_c, 7, 43, 0
9, 84000, Note_on_c, 7, 41, 86
9, 84096, Note_on_c, 7, 41, 0
9, 84120, Note_on_c, 7, 39, 73
9, 84220, Note_on_c, 7, 39, 0
9, 84240, Note_on_c, 7, 36, 94
9, 84344, Note_on_c, 7, 36, 0
9, 84480, Note_on_c, 7, 36, 94
9, 84592, Note_on_c, 7, 36, 0
9, 84720, Note_on_c, 7, 48, 86
9, 84840, Note_on_c, 7, 48, 0
9, 84840, Note_on_c, 7, 43, 63
9, 84960, Note_on_c, 7, 36, 86
9, 84964, Note_on_c, 7, 43, 0
9, 85080, Note_on_c, 7, 36, 0
9, 85320, Note_on_c, 7, 36, 86
9, 85392, Note_on_c, 7, 36, 0
9, 85440, Note_on_c, 7, 36, 79
9, 85560, Note_on_c, 7, 36, 0
9, 85560, Note_on_c, 7, 39, 63
9, 85680, Note_on_c, 7, 43, 79
9, 85684, Note_on_c, 7, 39, 0
9, 85776, Note_on_c, 7, 43, 0
9, 85920, Note_on_c, 7, 41, 86
9, 86024, Note_on_c, 7, 41, 0
9, 86040, Note_on_c, 7, 39, 59
9, 86160, Note_on_c, 7, 36, 86
9, 86176, Note_on_c, 7, 39, 0
9, 86268, Note_on_c, 7, 36, 0
9, 86400, Note_on_c, 7, 36, 94
9, 86516, Note_on_c, 7, 36, 0
9, 86520, Note_on_c, 7, 43, 41
9, 86560, Note_on_c, 7, 43, 0
9, 86640, Note_on_c, 7, 48, 94
9, 86760, Note_on_c, 7, 43, 59
9, 86764, Note_on_c, 7, 48, 0
9, 86860, Note_on_c, 7, 43, 0
9, 86880, Note_on_c, 7, 36, 68
9, 87008, Note_on_c, 7, 36, 0
9, 87240, Note_on_c, 7, 36, 73
9, 87316, Note_on_c, 7, 36, 0
9, 87360, Note_on_c, 7, 36, 73
9, 87464, Note_on_c, 7, 36, 0
9, 87480, Note_on_c, 7, 39, 59
9, 87576, Note_on_c, 7, 39, 0
9, 87600, Note_on_c, 7, 43, 79
9, 87696, Note_on_c, 7, 43, 0
9, 87840, Note_on_c, 7, 41, 86
9, 87936, Note_on_c, 7, 41, 0
9, 87960, Note_on_c, 7, 39, 73
9, 88060, Note_on_c, 7, 39, 0
9, 88080, Note_on_c, 7, 36, 94
9, 88184, Note_on_c, 7, 36, 0
9, 88320, Note_on_c, 7, 36, 94
9, 88432, Note_on_c, 7, 36, 0
9, 88560, Note_on_c, 7, 48, 86
9, 88680, Note_on_c, 7, 48, 0
9, 88680, Note_on_c, 7, 43, 63
9, 88800, Note_on_c, 7, 36, 86
9, 88804, Note_on_c, 7, 43, 0
9, 88920, Note_on_c, 7, 36, 0
9, 89160, Note_on_c, 7, 36, 86
9, 89232, Note_on_c, 7, 36, 0
9, 89280, Note_on_c, 7, 36, 79
9, 89400, Note_on_c, 7, 36, 0
9, 89400, Note_on_c, 7, 39, 63
9, 89520, Note_on_c, 7, 43, 79
9, 89524, Note_on_c, 7, 39, 0
9, 89616, Note_on_c, 7, 43, 0
9, 89760, Note_on_c, 7, 41, 86
9, 89864, Note_on_c, 7, 41, 0
9, 89880, Note_on_c, 7, 39, 59
9, 90000, Note_on_c, 7, 36, 86
9, 90016, Note_on_c, 7, 39, 0
9, 90108, Note_on_c, 7, 36, 0
9, 90240, Note_on_c, 7, 36, 94
9, 90356, Note_on_c, 7, 36, 0
9, 90360, Note_on_c, 7, 43, 41
9, 90400, Note_on_c, 7, 43, 0
9, 90480, Note_on_c, 7, 48, 94
9, 90600, Note_on_c, 7, 43, 59
9, 90604, Note_on_c, 7, 48, 0
9, 90700, Note_on_c, 7, 43, 0
9, 90720, Note_on_c, 7, 36, 68
9, 90848, Note_on_c, 7, 36, 0
9, 91080, Note_on_c, 7, 36, 73
9, 91156, Note_on_c, 7, 36, 0
9, 91200, Note_on_c, 7, 36, 73
9, 91304, Note_on_c, 7, 36, 0
9, 91320, Note_on_c, 7, 39, 59
9, 91416, Note_on_c, 7, 39, 0
9, 91440, Note_on_c, 7, 43, 79
9, 91536, Note_on_c, 7, 43, 0
9, 91680, Note_on_c, 7, 41, 86
9, 91776, Note_on_c, 7, 41, 0
9, 91800, Note_on_c, 7, 39, 73
9, 91900, Note_on_c, 7, 39, 0
9, 91920, Note_on_c, 7, 36, 94
9, 92024, Note_on_c, 7, 36, 0
9, 92160, Note_on_c, 7, 36, 94
9, 92272, Note_on_c, 7, 36, 0
9, 92400, Note_on_c, 7, 48, 86
9, 92520, Note_on_c, 7, 48, 0
9, 92520, Note_on_c, 7, 43, 63
9, 92640, Note_on_c, 7, 36, 86
9, 92644, Note_on_c, 7, 43, 0
9, 92760, Note_on_c, 7, 36, 0
9, 93000, Note_on_c, 7, 36, 86
9, 93072, Note_on_c, 7, 36, 0
9, 93120, Note_on_c, 7, 36, 79
9, 93240, Note_on_c, 7, 36, 0
9, 93240, Note_on_c, 7, 39, 63
9, 93360, Note_on_c, 7, 43, 79
9, 93364, Note_on_c, 7, 39, 0
9, 93456, Note_on_c, 7, 43, 0
9, 93600, Note_on_c, 7, 41, 86
9, 93704, Note_on_c, 7, 41, 0
9, 93720, Note_on_c, 7, 39, 59
9, 93840, Note_on_c, 7, 36, 86
9, 93856, Note_on_c, 7, 39, 0
9, 93948, Note_on_c, 7, 36, 0
9, 94080, Note_on_c, 7, 36, 94
9, 94196, Note_on_c, 7, 36, 0
9, 94200, Note_on_c, 7, 43, 41
9, 94240, Note_on_c, 7, 43, 0
9, 94320, Note_on_c, 7, 48, 94
9, 94440, Note_on_c, 7, 43, 59
9, 94444, Note_on_c, 7, 48, 0
9, 94540, Note_on_c, 7, 43, 0
9, 94560, Note_on_c, 7, 36, 68
9, 94688, Note_on_c, 7, 36, 0
9, 94920, Note_on_c, 7, 36, 73
9, 94996, Note_on_c, 7, 36, 0
9, 95040, Note_on_c, 7, 36, 73
9, 95144, Note_on_c, 7, 36, 0
9, 95160, Note_on_c, 7, 39, 59
9, 95256, Note_on_c, 7, 39, 0
9, 95280, Note_on_c, 7, 43, 79
9, 95376, Note_on_c, 7, 43, 0
9, 95520, Note_on_c, 7, 41, 86
9, 95616, Note_on_c, 7, 41, 0
9, 95640, Note_on_c, 7, 39, 73
9, 95740, Note_on_c, 7, 39, 0
9, 95760, Note_on_c, 7, 36, 94
9, 95864, Note_on_c, 7, 36, 0
9, 96000, Note_on_c, 7, 36, 94
9, 96112, Note_on_c, 7, 36, 0
9, 96240, Note_on_c, 7, 48, 86
9, 96360, Note_on_c, 7, 48, 0
9, 96360, Note_on_c, 7, 43, 63
9, 96480, Note_on_c, 7, 36, 86
9, 96484, Note_on_c, 7, 43, 0
9, 96600, Note_on_c, 7, 36, 0
9, 96840, Note_on_c, 7, 36, 86
9, 96912, Note_on_c, 7, 36, 0
9, 96960, Note_on_c, 7, 36, 79
9, 97080, Note_on_c, 7, 36, 0
9, 97080, Note_on_c, 7, 39, 63
9, 97200, Note_on_c, 7, 43, 79
9, 97204, Note_on_c, 7, 39, 0
9, 97296, Note_on_c, 7, 43, 0
9, 97440, Note_on_c, 7, 41, 86
9, 97544, Note_on_c, 7, 41, 0
9, 97560, Note_on_c, 7, 39, 59
9, 97680, Note_on_c, 7, 36, 86
9, 97696, Note_on_c, 7, 39, 0
9, 97788, Note_on_c, 7, 36, 0
9, 97920, Note_on_c, 7, 36, 94
9, 98036, Note_on_c, 7, 36, 0
9, 98040, Note_on_c, 7, 43, 41
9, 98080, Note_on_c, 7, 43, 0
9, 98160, Note_on_c, 7, 48, 94
9, 98280, Note_on_c, 7, 43, 59
9, 98284, Note_on_c, 7, 48, 0
9, 98380, Note_on_c, 7, 43, 0
9, 98400, Note_on_c, 7, 36, 68
9, 98528, Note_on_c, 7, 36, 0
9, 98760, Note_on_c, 7, 36, 73
9, 98836, Note_on_c, 7, 36, 0
9, 98880, Note_on_c, 7, 36, 73
9, 98984, Note_on_c, 7, 36, 0
9, 99000, Note_on_c, 7, 39, 59
9, 99096, Note_on_c, 7, 39, 0
9, 99120, Note_on_c, 7, 43, 79
9, 99216, Note_on_c, 7, 43, 0
9, 99360, Note_on_c, 7, 41, 86
9, 99456, Note_on_c, 7, 41, 0
9, 99480, Note_on_c, 7, 39, 73
9, 99580, Note_on_c, 7, 39, 0
9, 99600, Note_on_c, 7, 36, 94
9, 99704, Note_on_c, 7, 36, 0
9, 99840, Note_on_c, 7, 36, 94
9, 99952, Note_on_c, 7, 36, 0
9, 100080, Note_on_c, 7, 48, 86
9, 100200, Note_on_c, 7, 48, 0
9, 100200, Note_on_c, 7, 43, 63
9, 100320, Note_on_c, 7, 36, 86
9, 100324, Note_on_c, 7, 43, 0
9, 100440, Note_on_c, 7, 36, 0
9, 100680, Note_on_c, 7, 36, 86
9, 100752, Note_on_c, 7, 36, 0
9, 100800, Note_on_c, 7, 36, 79
9, 100920, Note_on_c, 7, 36, 0
9, 100920, Note_on_c, 7, 39, 63
9, 101040, Note_on_c, 7, 43, 79
9, 101044, Note_on_c, 7, 39, 0
9, 101136, Note_on_c, 7, 43, 0
9, 101280, Note_on_c, 7, 41, 86
9, 101384, Note_on_c, 7, 41, 0
9, 101400, Note_on_c, 7, 39, 59
9, 101520, Note_on_c, 7, 36, 86
9, 101536, Note_on_c, 7, 39, 0
9, 101628, Note_on_c, 7, 36, 0
9, 101760, Note_on_c, 7, 36, 94
9, 101876, Note_on_c, 7, 36, 0
9, 101880, Note_on_c, 7, 43, 41
9, 101920, Note_on_c, 7, 43, 0
9, 103080, Note_on_c, 7, 55, 79
9, 103176, Note_on_c, 7, 55, 0
9, 103200, Note_on_c, 7, 53, 79
9, 103320, Note_on_c, 7, 53, 0
9, 103320, Note_on_c, 7, 48, 86
9, 103440, Note_on_c, 7, 51, 86
9, 103448, Note_on_c, 7, 48, 0
9, 103644, Note_on_c, 7, 51, 0
9, 103920, Note_on_c, 7, 48, 86
9, 104040, Note_on_c, 7, 48, 0
9, 104040, Note_on_c, 7, 43, 63
9, 104160, Note_on_c, 7, 36, 86
9, 104164, Note_on_c, 7, 43, 0
9, 104280, Note_on_c, 7, 36, 0
9, 104520, Note_on_c, 7, 36, 86
9, 104592, Note_on_c, 7, 36, 0
9, 104640, Note_on_c, 7, 36, 79
9, 104760, Note_on_c, 7, 36, 0
9, 104760, Note_on_c, 7, 39, 63
9, 104880, Note_on_c, 7, 43, 79
9, 104884, Note_on_c, 7, 39, 0
9, 104976, Note_on_c, 7, 43, 0
9, 105120, Note_on_c, 7, 41, 86
9, 105224, Note_on_c, 7, 41, 0
9, 105240, Note_on_c, 7, 39, 59
9, 105360, Note_on_c, 7, 36, 86
9, 105376, Note_on_c, 7, 39, 0
9, 105468, Note_on_c, 7, 36, 0
9, 105600, Note_on_c, 7, 36, 94
9, 105716, Note_on_c, 7, 36, 0
9, 105720, Note_on_c, 7, 43, 41
9, 105760, Note_on_c, 7, 43, 0
9, 105840, Note_on_c, 7, 48, 94
9, 105960, Note_on_c, 7, 43, 59
9, 105964, Note_on_c, 7, 48, 0
9, 106060, Note_on_c, 7, 43, 0
9, 106080, Note_on_c, 7, 36, 68
9, 106208, Note_on_c, 7, 36, 0
9, 106440, Note_on_c, 7, 36, 73
9, 106516, Note_on_c, 7, 36, 0
9, 106560, Note_on_c, 7, 36, 73
9, 106664, Note_on_c, 7, 36, 0
9, 106680, Note_on_c, 7, 39, 59
9, 106776, Note_on_c, 7, 39, 0
9, 106800, Note_on_c, 7, 43, 79
9, 106896, Note_on_c, 7, 43, 0
9, 107040, Note_on_c, 7, 41, 86
9, 107136, Note_on_c, 7, 41, 0
9, 107160, Note_on_c, 7, 39, 73
9, 107260, Note_on_c, 7, 39, 0
9, 107280, Note_on_c, 7, 36, 94
9, 107384, Note_on_c, 7, 36, 0
9, 107760, Note_on_c, 7, 48, 86
9, 107880, Note_on_c, 7, 48, 0
9, 107880, Note_on_c, 7, 43, 63
9, 108000, Note_on_c, 7, 36, 86
9, 108004, Note_on_c, 7, 43, 0
9, 108120, Note_on_c, 7, 36, 0
9, 108360, Note_on_c, 7, 36, 86
9, 108432, Note_on_c, 7, 36, 0
9, 108480, Note_on_c, 7, 36, 79
9, 108600, Note_on_c, 7, 36, 0
9, 108600, Note_on_c, 7, 39, 63
9, 108720, Note_on_c, 7, 43, 79
9, 108724, Note_on_c, 7, 39, 0
9, 108816, Note_on_c, 7, 43, 0
9, 108960, Note_on_c, 7, 41, 86
9, 109064, Note_on_c, 7, 41, 0
9, 109080, Note_on_c, 7, 39, 59
9, 109200, Note_on_c, 7, 36, 86
9, 109216, Note_on_c, 7, 39, 0
9, 109308, Note_on_c, 7, 36, 0
9, 109440, Note_on_c, 7, 36, 94
9, 109556, Note_on_c, 7, 36, 0
9, 109560, Note_on_c, 7, 43, 41
9, 109600, Note_on_c, 7, 43, 0
9, 109680, Note_on_c, 7, 48, 94
9, 109800, Note_on_c, 7, 43, 59
9, 109804, Note_on_c, 7, 48, 0
9, 109900, Note_on_c, 7, 43, 0
9, 109920, Note_on_c, 7, 36, 68
9, 110048, Note_on_c, 7, 36, 0
9, 110280, Note_on_c, 7, 36, 73
9, 110356, Note_on_c, 7, 36, 0
9, 110400, Note_on_c, 7, 36, 73
9, 110504, Note_on_c, 7, 36, 0
9, 110520, Note_on_c, 7, 39, 59
9, 110616, Note_on_c, 7, 39, 0
9, 110640, Note_on_c, 7, 43, 79
9, 110736, Note_on_c, 7, 43, 0
9, 110880, Note_on_c, 7, 41, 86
9, 110976, Note_on_c, 7, 41, 0
9, 111000, Note_on_c, 7, 39, 73
9, 111100, Note_on_c, 7, 39, 0
9, 111120, Note_on_c, 7, 36, 94
9, 111224, Note_on_c, 7, 36, 0
9, 111360, Note_on_c, 7, 36, 94
9, 111472, Note_on_c, 7, 36, 0
9, 111600, Note_on_c, 7, 48, 86
9, 111720, Note_on_c, 7, 48, 0
9, 111720, Note_on_c, 7, 43, 63
9, 111840, Note_on_c, 7, 36, 86
9, 111844, Note_on_c, 7, 43, 0
9, 111960, Note_on_c, 7, 36, 0
9, 112200, Note_on_c, 7, 36, 86
9, 112272, Note_on_c, 7, 36, 0
9, 112320, Note_on_c, 7, 36, 79
9, 112440, Note_on_c, 7, 36, 0
9, 112440, Note_on_c, 7, 39, 63
9, 112560, Note_on_c, 7, 43, 79
9, 112564, Note_on_c, 7, 39, 0
9, 112656, Note_on_c, 7, 43, 0
9, 112800, Note_on_c, 7, 41, 86
9, 112904, Note_on_c, 7, 41, 0
9, 112920, Note_on_c, 7, 39, 59
9, 113040, Note_on_c, 7, 36, 86
9, 113056, Note_on_c, 7, 39, 0
9, 113148, Note_on_c, 7, 36, 0
9, 113280, Note_on_c, 7, 36, 94
9, 113396, Note_on_c, 7, 36, 0
9, 113400, Note_on_c, 7, 43, 41
9, 113440, Note_on_c, 7, 43, 0
9, 113520, Note_on_c, 7, 48, 94
9, 113640, Note_on_c, 7, 43, 59
9, 113644, Note_on_c, 7, 48, 0
9, 113740, Note_on_c, 7, 43, 0
9, 113760, Note_on_c, 7, 36, 68
9, 113888, Note_on_c, 7, 36, 0
9, 114120, Note_on_c, 7, 36, 73
9, 114196, Note_on_c, 7, 36, 0
9, 114240, Note_on_c, 7, 36, 73
9, 114344, Note_on_c, 7, 36, 0
9, 114360, Note_on_c, 7, 39, 59
9, 114456, Note_on_c, 7, 39, 0
9, 114480, Note_on_c, 7, 43, 79
9, 114576, Note_on_c, 7, 43, 0
9, 114720, Note_on_c, 7, 41, 86
9, 114816, Note_on_c, 7, 41, 0
9, 114840, Note_on_c, 7, 39, 73
9, 114940, Note_on_c, 7, 39, 0
9, 114960, Note_on_c, 7, 36, 94
9, 115064, Note_on_c, 7, 36, 0
9, 115200, Note_on_c, 7, 36, 94
9, 115312, Note_on_c, 7, 36, 0
9, 115440, Note_on_c, 7, 48, 86
9, 115560, Note_on_c, 7, 48, 0
9, 115560, Note_on_c, 7, 43, 63
9, 115680, Note_on_c, 7, 36, 86
9, 115684, Note_on_c, 7, 43, 0
9, 115800, Note_on_c, 7, 36, 0
9, 116040, Note_on_c, 7, 36, 86
9, 116112, Note_on_c, 7, 36, 0
9, 116160, Note_on_c, 7, 36, 79
9, 116280, Note_on_c, 7, 36, 0
9, 116280, Note_on_c, 7, 39, 63
9, 116400, Note_on_c, 7, 43, 79
9, 116404, Note_on_c, 7, 39, 0
9, 116496, Note_on_c, 7, 43, 0
9, 116640, Note_on_c, 7, 41, 86
9, 116744, Note_on_c, 7, 41, 0
9, 116760, Note_on_c, 7, 39, 59
9, 116880, Note_on_c, 7, 36, 86
9, 116896, Note_on_c, 7, 39, 0
9, 116988, Note_on_c, 7, 36, 0
9, 117120, Note_on_c, 7, 36, 94
9, 117236, Note_on_c, 7, 36, 0
9, 117240, Note_on_c, 7, 43, 41
9, 117280, Note_on_c, 7, 43, 0
9, 117360, Note_on_c, 7, 48, 94
9, 117480, Note_on_c, 7, 43, 59
9, 117484, Note_on_c, 7, 48, 0
9, 117580, Note_on_c, 7, 43, 0
9, 117600, Note_on_c, 7, 36, 68
9, 117728, Note_on_c, 7, 36, 0
9, 117960, Note_on_c, 7, 36, 73
9, 118036, Note_on_c, 7, 36, 0
9, 118080, Note_on_c, 7, 36, 73
9, 118184, Note_on_c, 7, 36, 0
9, 118200, Note_on_c, 7, 39, 59
9, 118296, Note_on_c, 7, 39, 0
9, 118320, Note_on_c, 7, 43, 79
9, 118416, Note_on_c, 7, 43, 0
9, 118560, Note_on_c, 7, 41, 86
9, 118656, Note_on_c, 7, 41, 0
9, 118680, Note_on_c, 7, 39, 73
9, 118780, Note_on_c, 7, 39, 0
9, 118800, Note_on_c, 7, 36, 94
9, 118904, Note_on_c, 7, 36, 0
9, 119040, Note_on_c, 7, 36, 94
9, 119152, Note_on_c, 7, 36, 0
9, 119280, Note_on_c, 7, 48, 86
9, 119400, Note_on_c, 7, 48, 0
9, 119400, Note_on_c, 7, 43, 63
9, 119520, Note_on_c, 7, 36, 86
9, 119524, Note_on_c, 7, 43, 0
9, 119640, Note_on_c, 7, 36, 0
9, 119880, Note_on_c, 7, 36, 86
9, 119952, Note_on_c, 7, 36, 0
9, 120000, Note_on_c, 7, 36, 79
9, 120120, Note_on_c, 7, 36, 0
9, 120120, Note_on_c, 7, 39, 63
9, 120240, Note_on_c, 7, 43, 79
9, 120244, Note_on_c, 7, 39, 0
9, 120336, Note_on_c, 7, 43, 0
9, 120480, Note_on_c, 7, 41, 86
9, 120584, Note_on_c, 7, 41, 0
9, 120600, Note_on_c, 7, 39, 59
9, 120720, Note_on_c, 7, 36, 86
9, 120736, Note_on_c, 7, 39, 0
9, 120828, Note_on_c, 7, 36, 0
9, 120960, Note_on_c, 7, 36, 94
9, 121076, Note_on_c, 7, 36, 0
9, 121080, Note_on_c, 7, 43, 41
9, 121120, Note_on_c, 7, 43, 0
9, 121200, Note_on_c, 7, 48, 94
9, 121320, Note_on_c, 7, 43, 59
9, 121324, Note_on_c, 7, 48, 0
9, 121420, Note_on_c, 7, 43, 0
9, 121440, Note_on_c, 7, 36, 68
9, 121568, Note_on_c, 7, 36, 0
9, 121800, Note_on_c, 7, 36, 73
9, 121876, Note_on_c, 7, 36, 0
9, 121920, Note_on_c, 7, 36, 73
9, 122024, Note_on_c, 7, 36, 0
9, 122040, Note_on_c, 7, 39, 59
9, 122136, Note_on_c, 7, 39, 0
9, 122160, Note_on_c, 7, 43, 79
9, 122256, Note_on_c, 7, 43, 0
9, 122400, Note_on_c, 7, 41, 86
9, 122496, Note_on_c, 7, 41, 0
9, 122520, Note_on_c, 7, 39, 73
9, 122620, Note_on_c, 7, 39, 0
9, 122640, Note_on_c, 7, 36, 94
9, 122744, Note_on_c, 7, 36, 0
9, 123120, Note_on_c, 7, 48, 86
9, 123240, Note_on_c, 7, 48, 0
9, 123240, Note_on_c, 7, 43, 63
9, 123360, Note_on_c, 7, 36, 86
9, 123364, Note_on_c, 7, 43, 0
9, 123480, Note_on_c, 7, 36, 0
9, 123720, Note_on_c, 7, 36, 86
9, 123792, Note_on_c, 7, 36, 0
9, 123840, Note_on_c, 7, 36, 79
9, 123960, Note_on_c, 7, 36, 0
9, 123960, Note_on_c, 7, 39, 63
9, 124080, Note_on_c, 7, 43, 79
9, 124084, Note_on_c, 7, 39, 0
9, 124176, Note_on_c, 7, 43, 0
9, 124320, Note_on_c, 7, 41, 86
9, 124424, Note_on_c, 7, 41, 0
9, 124440, Note_on_c, 7, 39, 59
9, 124560, Note_on_c, 7, 36, 86
9, 124576, Note_on_c, 7, 39, 0
9, 124668, Note_on_c, 7, 36, 0
9, 124800, Note_on_c, 7, 36, 94
9, 124916, Note_on_c, 7, 36, 0
9, 124920, Note_on_c, 7, 43, 41
9, 124960, Note_on_c, 7, 43, 0
9, 125040, Note_on_c, 7, 48, 94
9, 125160, Note_on_c, 7, 43, 59
9, 125164, Note_on_c, 7, 48, 0
9, 125260, Note_on_c, 7, 43, 0
9, 125280, Note_on_c, 7, 36, 68
9, 125408, Note_on_c, 7, 36, 0
9, 125640, Note_on_c, 7, 36, 73
9, 125716, Note_on_c, 7, 36, 0
9, 125760, Note_on_c, 7, 36, 73
9, 125864, Note_on_c, 7, 36, 0
9, 125880, Note_on_c, 7, 39, 59
9, 125976, Note_on_c, 7, 39, 0
9, 126000, Note_on_c, 7, 43, 79
9, 126096, Note_on_c, 7, 43, 0
9, 126240, Note_on_c, 7, 41, 86
9, 126336, Note_on_c, 7, 41, 0
9, 126360, Note_on_c, 7, 39, 73
9, 126460, Note_on_c, 7, 39, 0
9, 126480, Note_on_c, 7, 36, 94
9, 126584, Note_on_c, 7, 36, 0
9, 126720, Note_on_c, 7, 36, 94
9, 126832, Note_on_c, 7, 36, 0
9, 126960, Note_on_c, 7, 48, 86
9, 127080, Note_on_c, 7, 48, 0
9, 127080, Note_on_c, 7, 43, 63
9, 127200, Note_on_c, 7, 36, 86
9, 127204, Note_on_c, 7, 43, 0
9, 127320, Note_on_c, 7, 36, 0
9, 127560, Note_on_c, 7, 36, 86
9, 127632, Note_on_c, 7, 36, 0
9, 127680, Note_on_c, 7, 36, 79
9, 127800, Note_on_c, 7, 36, 0
9, 127800, Note_on_c, 7, 39, 63
9, 127920, Note_on_c, 7, 43, 79
9, 127924, Note_on_c, 7, 39, 0
9, 128016, Note_on_c, 7, 43, 0
9, 128160, Note_on_c, 7, 41, 86
9, 128264, Note_on_c, 7, 41, 0
9, 128280, Note_on_c, 7, 39, 59
9, 128400, Note_on_c, 7, 36, 86
9, 128416, Note_on_c, 7, 39, 0
9, 128508, Note_on_c, 7, 36, 0
9, 128640, Note_on_c, 7, 36, 94
9, 128756, Note_on_c, 7, 36, 0
9, 128760, Note_on_c, 7, 43, 41
9, 128800, Note_on_c, 7, 43, 0
9, 128880, Note_on_c, 7, 48, 94
9, 129000, Note_on_c, 7, 43, 59
9, 129004, Note_on_c, 7, 48, 0
9, 129100, Note_on_c, 7, 43, 0
9, 129120, Note_on_c, 7, 36, 68
9, 129248, Note_on_c, 7, 36, 0
9, 129480, Note_on_c, 7, 36, 73
9, 129556, Note_on_c, 7, 36, 0
9, 129600, Note_on_c, 7, 36, 73
9, 129704, Note_on_c, 7, 36, 0
9, 129720, Note_on_c, 7, 39, 59
9, 129816, Note_on_c, 7, 39, 0
9, 129840, Note_on_c, 7, 43, 79
9, 129936, Note_on_c, 7, 43, 0
9, 130080, Note_on_c, 7, 41, 86
9, 130176, Note_on_c, 7, 41, 0
9, 130200, Note_on_c, 7, 39, 73
9, 130300, Note_on_c, 7, 39, 0
9, 130320, Note_on_c, 7, 36, 94
9, 130424, Note_on_c, 7, 36, 0
9, 130560, Note_on_c, 7, 36, 94
9, 130672, Note_on_c, 7, 36, 0
9, 130800, Note_on_c, 7, 48, 86
9, 130920, Note_on_c, 7, 48, 0
9, 130920, Note_on_c, 7, 43, 63
9, 131040, Note_on_c, 7, 36, 86
9, 131044, Note_on_c, 7, 43, 0
9, 131160, Note_on_c, 7, 36, 0
9, 131400, Note_on_c, 7, 36, 86
9, 131472, Note_on_c, 7, 36, 0
9, 131520, Note_on_c, 7, 36, 79
9, 131640, Note_on_c, 7, 36, 0
9, 131640, Note_on_c, 7, 39, 63
9, 131760, Note_on_c, 7, 43, 79
9, 131764, Note_on_c, 7, 39, 0
9, 131856, Note_on_c, 7, 43, 0
9, 132000, Note_on_c, 7, 41, 86
9, 132104, Note_on_c, 7, 41, 0
9, 132120, Note_on_c, 7, 39, 59
9, 132240, Note_on_c, 7, 36, 86
9, 132256, Note_on_c, 7, 39, 0
9, 132348, Note_on_c, 7, 36, 0
9, 132480, Note_on_c, 7, 36, 94
9, 132596, Note_on_c, 7, 36, 0
9, 132600, Note_on_c, 7, 43, 41
9, 132640, Note_on_c, 7, 43, 0
9, 132720, Note_on_c, 7, 48, 94
9, 132840, Note_on_c, 7, 43, 59
9, 132844, Note_on_c, 7, 48, 0
9, 132940, Note_on_c, 7, 43, 0
9, 132960, Note_on_c, 7, 36, 68
9, 133088, Note_on_c, 7, 36, 0
9, 133320, Note_on_c, 7, 36, 73
9, 133396, Note_on_c, 7, 36, 0
9, 133440, Note_on_c, 7, 36, 73
9, 133544, Note_on_c, 7, 36, 0
9, 133560, Note_on_c, 7, 39, 59
9, 133656, Note_on_c, 7, 39, 0
9, 133680, Note_on_c, 7, 43, 79
9, 133776, Note_on_c, 7, 43, 0
9, 133920, Note_on_c, 7, 41, 86
9, 134016, Note_on_c, 7, 41, 0
9, 134040, Note_on_c, 7, 39, 73
9, 134140, Note_on_c, 7, 39, 0
9, 134160, Note_on_c, 7, 36, 94
9, 134264, Note_on_c, 7, 36, 0
9, 134400, Note_on_c, 7, 36, 94
9, 134512, Note_on_c, 7, 36, 0
9, 134640, Note_on_c, 7, 48, 86
9, 134760, Note_on_c, 7, 48, 0
9, 134760, Note_on_c, 7, 43, 63
9, 134880, Note_on_c, 7, 36, 86
9, 134884, Note_on_c, 7, 43, 0
9, 135000, Note_on_c, 7, 36, 0
9, 135240, Note_on_c, 7, 36, 86
9, 135312, Note_on_c, 7, 36, 0
9, 135360, Note_on_c, 7, 36, 79
9, 135480, Note_on_c, 7, 36, 0
9, 135480, Note_on_c, 7, 39, 63
9, 135600, Note_on_c, 7, 43, 79
9, 135604, Note_on_c, 7, 39, 0
9, 135696, Note_on_c, 7, 43, 0
9, 135840, Note_on_c, 7, 41, 86
9, 135944, Note_on_c, 7, 41, 0
9, 135960, Note_on_c, 7, 39, 59
9, 136080, Note_on_c, 7, 36, 86
9, 136096, Note_on_c, 7, 39, 0
9, 136188, Note_on_c, 7, 36, 0
9, 136320, Note_on_c, 7, 36, 94
9, 136436, Note_on_c, 7, 36, 0
9, 136440, Note_on_c, 7, 43, 41
9, 136480, Note_on_c, 7, 43, 0
9, 136560, Note_on_c, 7, 48, 94
9, 136680, Note_on_c, 7, 43, 59
9, 136684, Note_on_c, 7, 48, 0
9, 136780, Note_on_c, 7, 43, 0
9, 136800, Note_on_c, 7, 36, 68
9, 136928, Note_on_c, 7, 36, 0
9, 137160, Note_on_c, 7, 36, 73
9, 137236, Note_on_c, 7, 36, 0
9, 137280, Note_on_c, 7, 36, 73
9, 137384, Note_on_c, 7, 36, 0
9, 137400, Note_on_c, 7, 39, 59
9, 137496, Note_on_c, 7, 39, 0
9, 137520, Note_on_c, 7, 43, 79
9, 137616, Note_on_c, 7, 43, 0
9, 137760, Note_on_c, 7, 41, 86
9, 137856, Note_on_c, 7, 41, 0
9, 137880, Note_on_c, 7, 39, 73
9, 137980, Note_on_c, 7, 39, 0
9, 138000, Note_on_c, 7, 36, 94
9, 138104, Note_on_c, 7, 36, 0
9, 138240, Note_on_c, 7, 36, 94
9, 138352, Note_on_c, 7, 36, 0
9, 138480, Note_on_c, 7, 48, 86
9, 138600, Note_on_c, 7, 48, 0
9, 138600, Note_on_c, 7, 43, 63
9, 138720, Note_on_c, 7, 36, 86
9, 138724, Note_on_c, 7, 43, 0
9, 138840, Note_on_c, 7, 36, 0
9, 139080, Note_on_c, 7, 36, 86
9, 139152, Note_on_c, 7, 36, 0
9, 139200, Note_on_c, 7, 36, 79
9, 139320, Note_on_c, 7, 36, 0
9, 139320, Note_on_c, 7, 39, 63
9, 139440, Note_on_c, 7, 43, 79
9, 139444, Note_on_c, 7, 39, 0
9, 139536, Note_on_c, 7, 43, 0
9, 139680, Note_on_c, 7, 41, 86
9, 139784, Note_on_c, 7, 41, 0
9, 139800, Note_on_c, 7, 39, 59
9, 139920, Note_on_c, 7, 36, 86
9, 139936, Note_on_c, 7, 39, 0
9, 140028, Note_on_c, 7, 36, 0
9, 140160, Note_on_c, 7, 36, 94
9, 140276, Note_on_c, 7, 36, 0
9, 140280, Note_on_c, 7, 43, 41
9, 140320, Note_on_c, 7, 43, 0
9, 140400, Note_on_c, 7, 48, 94
9, 140520, Note_on_c, 7, 43, 59
9, 140524, Note_on_c, 7, 48, 0
9, 140620, Note_on_c, 7, 43, 0
9, 140640, Note_on_c, 7, 36, 68
9, 140768, Note_on_c, 7, 36, 0
9, 141000, Note_on_c, 7, 36, 73
9, 141076, Note_on_c, 7, 36, 0
9, 141120, Note_on_c, 7, 36, 73
9, 141224, Note_on_c, 7, 36, 0
9, 141240, Note_on_c, 7, 39, 59
9, 141336, Note_on_c, 7, 39, 0
9, 141360, Note_on_c, 7, 43, 79
9, 141456, Note_on_c, 7, 43, 0
9, 141600, Note_on_c, 7, 41, 86
9, 141696, Note_on_c, 7, 41, 0
9, 141720, Note_on_c, 7, 39, 73
9, 141820, Note_on_c, 7, 39, 0
9, 141840, Note_on_c, 7, 36, 94
9, 141944, Note_on_c, 7, 36, 0
9, 142080, Note_on_c, 7, 36, 94
9, 142192, Note_on_c, 7, 36, 0
9, 142320, Note_on_c, 7, 48, 86
9, 142440, Note_on_c, 7, 48, 0
9, 142440, Note_on_c, 7, 43, 63
9, 142560, Note_on_c, 7, 36, 86
9, 142564, Note_on_c, 7, 43, 0
9, 142680, Note_on_c, 7, 36, 0
9, 142920, Note_on_c, 7, 36, 86
9, 142992, Note_on_c, 7, 36, 0
9, 143040, Note_on_c, 7, 36, 79
9, 143160, Note_on_c, 7, 36, 0
9, 143160, Note_on_c, 7, 39, 63
9, 143280, Note_on_c, 7, 43, 79
9, 143284, Note_on_c, 7, 39, 0
9, 143376, Note_on_c, 7, 43, 0
9, 143520, Note_on_c, 7, 41, 86
9, 143624, Note_on_c, 7, 41, 0
9, 143640, Note_on_c, 7, 39, 59
9, 143760, Note_on_c, 7, 36, 86
9, 143776, Note_on_c, 7, 39, 0
9, 143868, Note_on_c, 7, 36, 0
9, 144000, Note_on_c, 7, 36, 94
9, 144116, Note_on_c, 7, 36, 0
9, 144120, Note_on_c, 7, 43, 41
9, 144160, Note_on_c, 7, 43, 0
9, 144240, Note_on_c, 7, 48, 94
9, 144360, Note_on_c, 7, 43, 59
9, 144364, Note_on_c, 7, 48, 0
9, 144460, Note_on_c, 7, 43, 0
9, 144480, Note_on_c, 7, 36, 68
9, 144608, Note_on_c, 7, 36, 0
9, 144840, Note_on_c, 7, 36, 73
9, 144916, Note_on_c, 7, 36, 0
9, 144960, Note_on_c, 7, 36, 73
9, 145064, Note_on_c, 7, 36, 0
9, 145080, Note_on_c, 7, 39, 59
9, 145176, Note_on_c, 7, 39, 0
9, 145200, Note_on_c, 7, 43, 79
9, 145296, Note_on_c, 7, 43, 0
9, 145440, Note_on_c, 7, 41, 86
9, 145536, Note_on_c, 7, 41, 0
9, 145560, Note_on_c, 7, 39, 73
9, 145660, Note_on_c, 7, 39, 0
9, 145680, Note_on_c, 7, 36, 94
9, 145784, Note_on_c, 7, 36, 0
9, 145920, Note_on_c, 7, 36, 94
9, 146032, Note_on_c, 7, 36, 0
9, 146160, Note_on_c, 7, 48, 86
9, 146280, Note_on_c, 7, 48, 0
9, 146280, Note_on_c, 7, 43, 63
9, 146400, Note_on_c, 7, 36, 86
9, 146404, Note_on_c, 7, 43, 0
9, 146520, Note_on_c, 7, 36, 0
9, 146760, Note_on_c, 7, 36, 86
9, 146832, Note_on_c, 7, 36, 0
9, 146880, Note_on_c, 7, 36, 79
9, 147000, Note_on_c, 7, 36, 0
9, 147000, Note_on_c, 7, 39, 63
9, 147120, Note_on_c, 7, 43, 79
9, 147124, Note_on_c, 7, 39, 0
9, 147216, Note_on_c, 7, 43, 0
9, 147360, Note_on_c, 7, 41, 86
9, 147464, Note_on_c, 7, 41, 0
9, 147480, Note_on_c, 7, 39, 59
9, 147600, Note_on_c, 7, 36, 86
9, 147616, Note_on_c, 7, 39, 0
9, 147708, Note_on_c, 7, 36, 0
9, 147840, Note_on_c, 7, 36, 94
9, 147956, Note_on_c, 7, 36, 0
9, 147960, Note_on_c, 7, 43, 41
9, 148000, Note_on_c, 7, 43, 0
9, 148080, Note_on_c, 7, 48, 94
9, 148200, Note_on_c, 7, 43, 59
9, 148204, Note_on_c, 7, 48, 0
9, 148300, Note_on_c, 7, 43, 0
9, 148320, Note_on_c, 7, 36, 68
9, 148448, Note_on_c, 7, 36, 0
9, 148680, Note_on_c, 7, 36, 73
9, 148756, Note_on_c, 7, 36, 0
9, 148800, Note_on_c, 7, 36, 73
9, 148904, Note_on_c, 7, 36, 0
9, 148920, Note_on_c, 7, 39, 59
9, 149016, Note_on_c, 7, 39, 0
9, 149040, Note_on_c, 7, 43, 79
9, 149136, Note_on_c, 7, 43, 0
9, 149280, Note_on_c, 7, 41, 86
9, 149376, Note_on_c, 7, 41, 0
9, 149400, Note_on_c, 7, 39, 73
9, 149500, Note_on_c, 7, 39, 0
9, 149520, Note_on_c, 7, 36, 94
9, 149624, Note_on_c, 7, 36, 0
9, 149760, Note_on_c, 7, 36, 94
9, 149872, Note_on_c, 7, 36, 0
9, 150000, Note_on_c, 7, 48, 86
9, 150120, Note_on_c, 7, 48, 0
9, 150120, Note_on_c, 7, 43, 63
9, 150240, Note_on_c, 7, 36, 86
9, 150244, Note_on_c, 7, 43, 0
9, 150360, Note_on_c, 7, 36, 0
9, 150600, Note_on_c, 7, 36, 86
9, 150672, Note_on_c, 7, 36, 0
9, 150720, Note_on_c, 7, 36, 79
9, 150840, Note_on_c, 7, 36, 0
9, 150840, Note_on_c, 7, 39, 63
9, 150960, Note_on_c, 7, 43, 79
9, 150964, Note_on_c, 7, 39, 0
9, 151056, Note_on_c, 7, 43, 0
9, 151200, Note_on_c, 7, 41, 86
9, 151304, Note_on_c, 7, 41, 0
9, 151320, Note_on_c, 7, 39, 59
9, 151440, Note_on_c, 7, 36, 86
9, 151456, Note_on_c, 7, 39, 0
9, 151548, Note_on_c, 7, 36, 0
9, 151680, Note_on_c, 7, 36, 94
9, 151796, Note_on_c, 7, 36, 0
9, 151800, Note_on_c, 7, 43, 41
9, 151840, Note_on_c, 7, 43, 0
9, 151920, Note_on_c, 7, 48, 94
9, 152040, Note_on_c, 7, 43, 59
9, 152044, Note_on_c, 7, 48, 0
9, 152140, Note_on_c, 7, 43, 0
9, 152160, Note_on_c, 7, 36, 68
9, 152288, Note_on_c, 7, 36, 0
9, 152520, Note_on_c, 7, 36, 73
9, 152596, Note_on_c, 7, 36, 0
9, 152640, Note_on_c, 7, 36, 73
9, 152744, Note_on_c, 7, 36, 0
9, 152760, Note_on_c, 7, 39, 59
9, 152856, Note_on_c, 7, 39, 0
9, 152880, Note_on_c, 7, 43, 79
9, 152976, Note_on_c, 7, 43, 0
9, 153120, Note_on_c, 7, 41, 86
9, 153216, Note_on_c, 7, 41, 0
9, 153240, Note_on_c, 7, 39, 73
9, 153340, Note_on_c, 7, 39, 0
9, 153360, Note_on_c, 7, 36, 94
9, 153464, Note_on_c, 7, 36, 0
9, 153600, Note_on_c, 7, 36, 94
9, 153712, Note_on_c, 7, 36, 0
9, 153840, Note_on_c, 7, 48, 86
9, 153960, Note_on_c, 7, 48, 0
9, 153960, Note_on_c, 7, 43, 63
9, 154080, Note_on_c, 7, 36, 86
9, 154084, Note_on_c, 7, 43, 0
9, 154200, Note_on_c, 7, 36, 0
9, 154440, Note_on_c, 7, 36, 86
9, 154512, Note_on_c, 7, 36, 0
9, 154560, Note_on_c, 7, 36, 79
9, 154680, Note_on_c, 7, 36, 0
9, 154680, Note_on_c, 7, 39, 63
9, 154800, Note_on_c, 7, 43, 79
9, 154804, Note_on_c, 7, 39, 0
9, 154896, Note_on_c, 7, 43, 0
9, 155040, Note_on_c, 7, 41, 86
9, 155144, Note_on_c, 7, 41, 0
9, 155160, Note_on_c, 7, 39, 59
9, 155280, Note_on_c, 7, 36, 86
9, 155296, Note_on_c, 7, 39, 0
9, 155388, Note_on_c, 7, 36, 0
9, 155520, Note_on_c, 7, 36, 94
9, 155636, Note_on_c, 7, 36, 0
9, 155640, Note_on_c, 7, 43, 41
9, 155680, Note_on_c, 7, 43, 0
9, 156840, Note_on_c, 7, 55, 79
9, 156936, Note_on_c, 7, 55, 0
9, 156960, Note_on_c, 7, 53, 79
9, 157080, Note_on_c, 7, 53, 0
9, 157080, Note_on_c, 7, 48, 86
9, 157200, Note_on_c, 7, 51, 86
9, 157208, Note_on_c, 7, 48, 0
9, 157404, Note_on_c, 7, 51, 0
9, 157680, Note_on_c, 7, 48, 86
9, 157800, Note_on_c, 7, 48, 0
9, 157800, Note_on_c, 7, 43, 63
9, 157920, Note_on_c, 7, 36, 86
9, 157924, Note_on_c, 7, 43, 0
9, 158040, Note_on_c, 7, 36, 0
9, 158280, Note_on_c, 7, 36, 86
9, 158352, Note_on_c, 7, 36, 0
9, 158400, Note_on_c, 7, 36, 79
9, 158520, Note_on_c, 7, 36, 0
9, 158520, Note_on_c, 7, 39, 63
9, 158640, Note_on_c, 7, 43, 79
9, 158644, Note_on_c, 7, 39, 0
9, 158736, Note_on_c, 7, 43, 0
9, 158880, Note_on_c, 7, 41, 86
9, 158984, Note_on_c, 7, 41, 0
9, 159000, Note_on_c, 7, 39, 59
9, 159120, Note_on_c, 7, 36, 86
9, 159136, Note_on_c, 7, 39, 0
9, 159228, Note_on_c, 7, 36, 0
9, 159360, Note_on_c, 7, 36, 94
9, 159476, Note_on_c, 7, 36, 0
9, 159480, Note_on_c, 7, 43, 41
9, 159520, Note_on_c, 7, 43, 0
9, 159600, Note_on_c, 7, 48, 94
9, 159720, Note_on_c, 7, 43, 59
9, 159724, Note_on_c, 7, 48, 0
9, 159820, Note_on_c, 7, 43, 0
9, 159840, Note_on_c, 7, 36, 68
9, 159968, Note_on_c, 7, 36, 0
9, 160200, Note_on_c, 7, 36, 73
9, 160276, Note_on_c, 7, 36, 0
9, 160320, Note_on_c, 7, 36, 73
9, 160424, Note_on_c, 7, 36, 0
9, 160440, Note_on_c, 7, 39, 59
9, 160536, Note_on_c, 7, 39, 0
9, 160560, Note_on_c, 7, 43, 79
9, 160656, Note_on_c, 7, 43, 0
9, 160800, Note_on_c, 7, 41, 86
9, 160896, Note_on_c, 7, 41, 0
9, 160920, Note_on_c, 7, 39, 73
9, 161020, Note_on_c, 7, 39, 0
9, 161040, Note_on_c, 7, 36, 94
9, 161144, Note_on_c, 7, 36, 0
9, 161280, Note_on_c, 7, 36, 94
9, 161392, Note_on_c, 7, 36, 0
9, 161520, Note_on_c, 7, 48, 86
9, 161640, Note_on_c, 7, 48, 0
9, 161640, Note_on_c, 7, 43, 63
9, 161760, Note_on_c, 7, 36, 86
9, 161764, Note_on_c, 7, 43, 0
9, 161880, Note_on_c, 7, 36, 0
9, 162120, Note_on_c, 7, 36, 86
9, 162192, Note_on_c, 7, 36, 0
9, 162240, Note_on_c, 7, 36, 79
9, 162360, Note_on_c, 7, 36, 0
9, 162360, Note_on_c, 7, 39, 63
9, 162480, Note_on_c, 7, 43, 79
9, 162484, Note_on_c, 7, 39, 0
9, 162576, Note_on_c, 7, 43, 0
9, 162720, Note_on_c, 7, 41, 86
9, 162824, Note_on_c, 7, 41, 0
9, 162840, Note_on_c, 7, 39, 59
9, 162960, Note_on_c, 7, 36, 86
9, 162976, Note_on_c, 7, 39, 0
9, 163068, Note_on_c, 7, 36, 0
9, 163200, Note_on_c, 7, 36, 94
9, 163316, Note_on_c, 7, 36, 0
9, 163320, Note_on_c, 7, 43, 41
9, 163360, Note_on_c, 7, 43, 0
9, 163440, Note_on_c, 7, 48, 94
9, 163560, Note_on_c, 7, 43, 59
9, 163564, Note_on_c, 7, 48, 0
9, 163660, Note_on_c, 7, 43, 0
9, 163680, Note_on_c, 7, 36, 68
9, 163808, Note_on_c, 7, 36, 0
9, 164040, Note_on_c, 7, 36, 73
9, 164116, Note_on_c, 7, 36, 0
9, 164160, Note_on_c, 7, 36, 73
9, 164264, Note_on_c, 7, 36, 0
9, 164280, Note_on_c, 7, 39, 59
9, 164376, Note_on_c, 7, 39, 0
9, 164400, Note_on_c, 7, 43, 79
9, 164496, Note_on_c, 7, 43, 0
9, 164640, Note_on_c, 7, 41, 86
9, 164736, Note_on_c, 7, 41, 0
9, 164760, Note_on_c, 7, 39, 73
9, 164860, Note_on_c, 7, 39, 0
9, 164880, Note_on_c, 7, 36, 94
9, 164984, Note_on_c, 7, 36, 0
9, 165120, Note_on_c, 7, 36, 94
9, 165232, Note_on_c, 7, 36, 0
9, 165360, Note_on_c, 7, 48, 86
9, 165480, Note_on_c, 7, 48, 0
9, 165480, Note_on_c, 7, 43, 63
9, 165600, Note_on_c, 7, 36, 86
9, 165604, Note_on_c, 7, 43, 0
9, 165720, Note_on_c, 7, 36, 0
9, 165960, Note_on_c, 7, 36, 86
9, 166032, Note_on_c, 7, 36, 0
9, 166080, Note_on_c, 7, 36, 79
9, 166200, Note_on_c, 7, 36, 0
9, 166200, Note_on_c, 7, 39, 63
9, 166320, Note_on_c, 7, 43, 79
9, 166324, Note_on_c, 7, 39, 0
9, 166416, Note_on_c, 7, 43, 0
9, 166560, Note_on_c, 7, 41, 86
9, 166664, Note_on_c, 7, 41, 0
9, 166680, Note_on_c, 7, 39, 59
9, 166800, Note_on_c, 7, 36, 86
9, 166816, Note_on_c, 7, 39, 0
9, 166908, Note_on_c, 7, 36, 0
9, 167040, Note_on_c, 7, 36, 94
9, 167156, Note_on_c, 7, 36, 0
9, 167160, Note_on_c, 7, 43, 41
9, 167200, Note_on_c, 7, 43, 0
9, 167280, Note_on_c, 7, 48, 94
9, 167400, Note_on_c, 7, 43, 59
9, 167404, Note_on_c, 7, 48, 0
9, 167500, Note_on_c, 7, 43, 0
9, 167520, Note_on_c, 7, 36, 68
9, 167648, Note_on_c, 7, 36, 0
9, 167880, Note_on_c, 7, 36, 73
9, 167956, Note_on_c, 7, 36, 0
9, 168000, Note_on_c, 7, 36, 73
9, 168104, Note_on_c, 7, 36, 0
9, 168120, Note_on_c, 7, 39, 59
9, 168216, Note_on_c, 7, 39, 0
9, 168240, Note_on_c, 7, 43, 79
9, 168336, Note_on_c, 7, 43, 0
9, 168480, Note_on_c, 7, 41, 86
9, 168576, Note_on_c, 7, 41, 0
9, 168600, Note_on_c, 7, 39, 73
9, 168700, Note_on_c, 7, 39, 0
9, 168720, Note_on_c, 7, 36, 94
9, 168824, Note_on_c, 7, 36, 0
9, 169200, Note_on_c, 7, 48, 86
9, 169320, Note_on_c, 7, 48, 0
9, 169320, Note_on_c, 7, 43, 63
9, 169440, Note_on_c, 7, 36, 86
9, 169444, Note_on_c, 7, 43, 0
9, 169560, Note_on_c, 7, 36, 0
9, 169800, Note_on_c, 7, 36, 86
9, 169872, Note_on_c, 7, 36, 0
9, 169920, Note_on_c, 7, 36, 79
9, 170040, Note_on_c, 7, 36, 0
9, 170040, Note_on_c, 7, 39, 63
9, 170160, Note_on_c, 7, 43, 79
9, 170164, Note_on_c, 7, 39, 0
9, 170256, Note_on_c, 7, 43, 0
9, 170400, Note_on_c, 7, 41, 86
9, 170504, Note_on_c, 7, 41, 0
9, 170520, Note_on_c, 7, 39, 59
9, 170640, Note_on_c, 7, 36, 86
9, 170656, Note_on_c, 7, 39, 0
9, 170748, Note_on_c, 7, 36, 0
9, 170880, Note_on_c, 7, 36, 94
9, 170996, Note_on_c, 7, 36, 0
9, 171000, Note_on_c, 7, 43, 41
9, 171040, Note_on_c, 7, 43, 0
9, 171120, Note_on_c, 7, 48, 94
9, 171240, Note_on_c, 7, 43, 59
9, 171244, Note_on_c, 7, 48, 0
9, 171340, Note_on_c, 7, 43, 0
9, 171360, Note_on_c, 7, 36, 68
9, 171488, Note_on_c, 7, 36, 0
9, 171720, Note_on_c, 7, 36, 73
9, 171796, Note_on_c, 7, 36, 0
9, 171840, Note_on_c, 7, 36, 73
9, 171944, Note_on_c, 7, 36, 0
9, 171960, Note_on_c, 7, 39, 59
9, 172056, Note_on_c, 7, 39, 0
9, 172080, Note_on_c, 7, 43, 79
9, 172176, Note_on_c, 7, 43, 0
9, 172320, Note_on_c, 7, 41, 86
9, 172416, Note_on_c, 7, 41, 0
9, 172440, Note_on_c, 7, 39, 73
9, 172540, Note_on_c, 7, 39, 0
9, 172560, Note_on_c, 7, 36, 94
9, 172664, Note_on_c, 7, 36, 0
9, 172800, Note_on_c, 7, 36, 94
9, 172912, Note_on_c, 7, 36, 0
9, 173040, Note_on_c, 7, 48, 86
9, 173160, Note_on_c, 7, 48, 0
9, 173160, Note_on_c, 7, 43, 63
9, 173280, Note_on_c, 7, 36, 86
9, 173284, Note_on_c, 7, 43, 0
9, 173400, Note_on_c, 7, 36, 0
9, 173640, Note_on_c, 7, 36, 86
9, 173712, Note_on_c, 7, 36, 0
9, 173760, Note_on_c, 7, 36, 79
9, 173880, Note_on_c, 7, 36, 0
9, 173880, Note_on_c, 7, 39, 63
9, 174000, Note_on_c, 7, 43, 79
9, 174004, Note_on_c, 7, 39, 0
9, 174096, Note_on_c, 7, 43, 0
9, 174240, Note_on_c, 7, 41, 86
9, 174344, Note_on_c, 7, 41, 0
9, 174360, Note_on_c, 7, 39, 59
9, 174480, Note_on_c, 7, 36, 86
9, 174496, Note_on_c, 7, 39, 0
9, 174588, Note_on_c, 7, 36, 0
9, 174720, Note_on_c, 7, 36, 94
9, 174836, Note_on_c, 7, 36, 0
9, 174840, Note_on_c, 7, 43, 41
9, 174880, Note_on_c, 7, 43, 0
9, 174960, Note_on_c, 7, 48, 94
9, 175080, Note_on_c, 7, 43, 59
9, 175084, Note_on_c, 7, 48, 0
9, 175180, Note_on_c, 7, 43, 0
9, 175200, Note_on_c, 7, 36, 68
9, 175328, Note_on_c, 7, 36, 0
9, 175560, Note_on_c, 7, 36, 73
9, 175636, Note_on_c, 7, 36, 0
9, 175680, Note_on_c, 7, 36, 73
9, 175784, Note_on_c, 7, 36, 0
9, 175800, Note_on_c, 7, 39, 59
9, 175896, Note_on_c, 7, 39, 0
9, 175920, Note_on_c, 7, 43, 79
9, 176016, Note_on_c, 7, 43, 0
9, 176160, Note_on_c, 7, 41, 86
9, 176256, Note_on_c, 7, 41, 0
9, 176280, Note_on_c, 7, 39, 73
9, 176380, Note_on_c, 7, 39, 0
9, 176400, Note_on_c, 7, 36, 94
9, 176504, Note_on_c, 7, 36, 0
9, 176640, Note_on_c, 7, 36, 94
9, 176752, Note_on_c, 7, 36, 0
9, 176880, Note_on_c, 7, 48, 86
9, 177000, Note_on_c, 7, 48, 0
9, 177000, Note_on_c, 7, 43, 63
9, 177120, Note_on_c, 7, 36, 86
9, 177124, Note_on_c, 7, 43, 0
9, 177240, Note_on_c, 7, 36, 0
9, 177480, Note_on_c, 7, 36, 86
9, 177552, Note_on_c, 7, 36, 0
9, 177600, Note_on_c, 7, 36, 79
9, 177720, Note_on_c, 7, 36, 0
9, 177720, Note_on_c, 7, 39, 63
9, 177840, Note_on_c, 7, 43, 79
9, 177844, Note_on_c, 7, 39, 0
9, 177936, Note_on_c, 7, 43, 0
9, 178080, Note_on_c, 7, 41, 86
9, 178184, Note_on_c, 7, 41, 0
9, 178200, Note_on_c, 7, 39, 59
9, 178320, Note_on_c, 7, 36, 86
9, 178336, Note_on_c, 7, 39, 0
9, 178428, Note_on_c, 7, 36, 0
9, 178560, Note_on_c, 7, 36, 94
9, 178676, Note_on_c, 7, 36, 0
9, 178680, Note_on_c, 7, 43, 41
9, 178720, Note_on_c, 7, 43, 0
9, 178800, Note_on_c, 7, 48, 94
9, 178920, Note_on_c, 7, 43, 59
9, 178924, Note_on_c, 7, 48, 0
9, 179020, Note_on_c, 7, 43, 0
9, 179040, Note_on_c, 7, 36, 68
9, 179168, Note_on_c, 7, 36, 0
9, 179400, Note_on_c, 7, 36, 73
9, 179476, Note_on_c, 7, 36, 0
9, 179520, Note_on_c, 7, 36, 73
9, 179624, Note_on_c, 7, 36, 0
9, 179640, Note_on_c, 7, 39, 59
9, 179736, Note_on_c, 7, 39, 0
9, 179760, Note_on_c, 7, 43, 79
9, 179856, Note_on_c, 7, 43, 0
9, 180000, Note_on_c, 7, 41, 86
9, 180096, Note_on_c, 7, 41, 0
9, 180120, Note_on_c, 7, 39, 73
9, 180220, Note_on_c, 7, 39, 0
9, 180240, Note_on_c, 7, 36, 94
9, 180344, Note_on_c, 7, 36, 0
9, 180480, Note_on_c, 7, 36, 94
9, 180592, Note_on_c, 7, 36, 0
9, 180720, Note_on_c, 7, 48, 86
9, 180840, Note_on_c, 7, 48, 0
9, 180840, Note_on_c, 7, 43, 63
9, 180960, Note_on_c, 7, 36, 86
9, 180964, Note_on_c, 7, 43, 0
9, 181080, Note_on_c, 7, 36, 0
9, 181320, Note_on_c, 7, 36, 86
9, 181392, Note_on_c, 7, 36, 0
9, 181440, Note_on_c, 7, 36, 79
9, 181560, Note_on_c, 7, 36, 0
9, 181560, Note_on_c, 7, 39, 63
9, 181680, Note_on_c, 7, 43, 79
9, 181684, Note_on_c, 7, 39, 0
9, 181776, Note_on_c, 7, 43, 0
9, 181920, Note_on_c, 7, 41, 86
9, 182024, Note_on_c, 7, 41, 0
9, 182040, Note_on_c, 7, 39, 59
9, 182160, Note_on_c, 7, 36, 86
9, 182176, Note_on_c, 7, 39, 0
9, 182268, Note_on_c, 7, 36, 0
9, 182400, Note_on_c, 7, 36, 94
9, 182516, Note_on_c, 7, 36, 0
9, 182520, Note_on_c, 7, 43, 41
9, 182560, Note_on_c, 7, 43, 0
9, 182640, Note_on_c, 7, 48, 94
9, 182760, Note_on_c, 7, 43, 59
9, 182764, Note_on_c, 7, 48, 0
9, 182860, Note_on_c, 7, 43, 0
9, 182880, Note_on_c, 7, 36, 68
9, 183008, Note_on_c, 7, 36, 0
9, 183240, Note_on_c, 7, 36, 73
9, 183316, Note_on_c, 7, 36, 0
9, 183360, Note_on_c, 7, 36, 73
9, 183464, Note_on_c, 7, 36, 0
9, 183480, Note_on_c, 7, 39, 59
9, 183576, Note_on_c, 7, 39, 0
9, 183600, Note_on_c, 7, 43, 79
9, 183696, Note_on_c, 7, 43, 0
9, 183840, Note_on_c, 7, 41, 86
9, 183936, Note_on_c, 7, 41, 0
9, 183960, Note_on_c, 7, 39, 73
9, 184060, Note_on_c, 7, 39, 0
9, 184080, Note_on_c, 7, 36, 94
9, 184184, Note_on_c, 7, 36, 0
9, 184560, Note_on_c, 7, 48, 86
9, 184680, Note_on_c, 7, 48, 0
9, 184680, Note_on_c, 7, 43, 63
9, 184800, Note_on_c, 7, 36, 86
9, 184804, Note_on_c, 7, 43, 0
9, 184920, Note_on_c, 7, 36, 0
9, 185160, Note_on_c, 7, 36, 86
9, 185232, Note_on_c, 7, 36, 0
9, 185280, Note_on_c, 7, 36, 79
9, 185400, Note_on_c, 7, 36, 0
9, 185400, Note_on_c, 7, 39, 63
9, 185520, Note_on_c, 7, 43, 79
9, 185524, Note_on_c, 7, 39, 0
9, 185616, Note_on_c, 7, 43, 0
9, 185760, Note_on_c, 7, 41, 86
9, 185864, Note_on_c, 7, 41, 0
9, 185880, Note_on_c, 7, 39, 59
9, 186000, Note_on_c, 7, 36, 86
9, 186016, Note_on_c, 7, 39, 0
9, 186108, Note_on_c, 7, 36, 0
9, 186240, Note_on_c, 7, 36, 94
9, 186356, Note_on_c, 7, 36, 0
9, 186360, Note_on_c, 7, 43, 41
9, 186400, Note_on_c, 7, 43, 0
9, 186480, Note_on_c, 7, 48, 94
9, 186600, Note_on_c, 7, 43, 59
9, 186604, Note_on_c, 7, 48, 0
9, 186700, Note_on_c, 7, 43, 0
9, 186720, Note_on_c, 7, 36, 68
9, 186848, Note_on_c, 7, 36, 0
9, 187080, Note_on_c, 7, 36, 73
9, 187156, Note_on_c, 7, 36, 0
9, 187200, Note_on_c, 7, 36, 73
9, 187304, Note_on_c, 7, 36, 0
9, 187320, Note_on_c, 7, 39, 59
9, 187416, Note_on_c, 7, 39, 0
9, 187440, Note_on_c, 7, 43, 79
9, 187536, Note_on_c, 7, 43, 0
9, 187680, Note_on_c, 7, 41, 86
9, 187776, Note_on_c, 7, 41, 0
9, 187800, Note_on_c, 7, 39, 73
9, 187900, Note_on_c, 7, 39, 0
9, 187920, Note_on_c, 7, 36, 94
9, 188024, Note_on_c, 7, 36, 0
9, 188160, Note_on_c, 7, 36, 94
9, 188272, Note_on_c, 7, 36, 0
9, 188400, Note_on_c, 7, 48, 86
9, 188520, Note_on_c, 7, 48, 0
9, 188520, Note_on_c, 7, 43, 63
9, 188640, Note_on_c, 7, 36, 86
9, 188644, Note_on_c, 7, 43, 0
9, 188760, Note_on_c, 7, 36, 0
9, 189000, Note_on_c, 7, 36, 86
9, 189072, Note_on_c, 7, 36, 0
9, 189120, Note_on_c, 7, 36, 79
9, 189240, Note_on_c, 7, 36, 0
9, 189240, Note_on_c, 7, 39, 63
9, 189360, Note_on_c, 7, 43, 79
9, 189364, Note_on_c, 7, 39, 0
9, 189456, Note_on_c, 7, 43, 0
9, 189600, Note_on_c, 7, 41, 86
9, 189704, Note_on_c, 7, 41, 0
9, 189720, Note_on_c, 7, 39, 59
9, 189840, Note_on_c, 7, 36, 86
9, 189856, Note_on_c, 7, 39, 0
9, 189948, Note_on_c, 7, 36, 0
9, 190080, Note_on_c, 7, 36, 94
9, 190196, Note_on_c, 7, 36, 0
9, 190200, Note_on_c, 7, 43, 41
9, 190240, Note_on_c, 7, 43, 0
9, 190320, Note_on_c, 7, 48, 94
9, 190440, Note_on_c, 7, 43, 59
9, 190444, Note_on_c, 7, 48, 0
9, 190540, Note_on_c, 7, 43, 0
9, 190560, Note_on_c, 7, 36, 68
9, 190688, Note_on_c, 7, 36, 0
9, 190920, Note_on_c, 7, 36, 73
9, 190996, Note_on_c, 7, 36, 0
9, 191040, Note_on_c, 7, 36, 73
9, 191144, Note_on_c, 7, 36, 0
9, 191160, Note_on_c, 7, 39, 59
9, 191256, Note_on_c, 7, 39, 0
9, 191280, Note_on_c, 7, 43, 79
9, 191376, Note_on_c, 7, 43, 0
9, 191520, Note_on_c, 7, 41, 86
9, 191616, Note_on_c, 7, 41, 0
9, 191640, Note_on_c, 7, 39, 73
9, 191740, Note_on_c, 7, 39, 0
9, 191760, Note_on_c, 7, 36, 94
9, 191864, Note_on_c, 7, 36, 0
9, 192000, Note_on_c, 7, 36, 94
9, 192112, Note_on_c, 7, 36, 0
9, 192240, Note_on_c, 7, 48, 86
9, 192360, Note_on_c, 7, 48, 0
9, 192360, Note_on_c, 7, 43, 63
9, 192480, Note_on_c, 7, 36, 86
9, 192484, Note_on_c, 7, 43, 0
9, 192600, Note_on_c, 7, 36, 0
9, 192840, Note_on_c, 7, 36, 86
9, 192912, Note_on_c, 7, 36, 0
9, 192960, Note_on_c, 7, 36, 79
9, 193080, Note_on_c, 7, 36, 0
9, 193080, Note_on_c, 7, 39, 63
9, 193200, Note_on_c, 7, 43, 79
9, 193204, Note_on_c, 7, 39, 0
9, 193296, Note_on_c, 7, 43, 0
9, 193440, Note_on_c, 7, 41, 86
9, 193544, Note_on_c, 7, 41, 0
9, 193560, Note_on_c, 7, 39, 59
9, 193680, Note_on_c, 7, 36, 86
9, 193696, Note_on_c, 7, 39, 0
9, 193788, Note_on_c, 7, 36, 0
9, 193920, Note_on_c, 7, 36, 94
9, 194036, Note_on_c, 7, 36, 0
9, 194040, Note_on_c, 7, 43, 41
9, 194080, Note_on_c, 7, 43, 0
9, 194160, Note_on_c, 7, 48, 94
9, 194280, Note_on_c, 7, 43, 59
9, 194284, Note_on_c, 7, 48, 0
9, 194380, Note_on_c, 7, 43, 0
9, 194400, Note_on_c, 7, 36, 68
9, 194528, Note_on_c, 7, 36, 0
9, 194760, Note_on_c, 7, 36, 73
9, 194836, Note_on_c, 7, 36, 0
9, 194880, Note_on_c, 7, 36, 73
9, 194984, Note_on_c, 7, 36, 0
9, 195000, Note_on_c, 7, 39, 59
9, 195096, Note_on_c, 7, 39, 0
9, 195120, Note_on_c, 7, 43, 79
9, 195216, Note_on_c, 7, 43, 0
9, 195360, Note_on_c, 7, 41, 86
9, 195456, Note_on_c, 7, 41, 0
9, 195480, Note_on_c, 7, 39, 73
9, 195580, Note_on_c, 7, 39, 0
9, 195600, Note_on_c, 7, 36, 94
9, 195704, Note_on_c, 7, 36, 0
9, 195840, Note_on_c, 7, 36, 94
9, 195952, Note_on_c, 7, 36, 0
9, 196080, Note_on_c, 7, 48, 86
9, 196200, Note_on_c, 7, 48, 0
9, 196200, Note_on_c, 7, 43, 63
9, 196320, Note_on_c, 7, 36, 86
9, 196324, Note_on_c, 7, 43, 0
9, 196440, Note_on_c, 7, 36, 0
9, 196680, Note_on_c, 7, 36, 86
9, 196752, Note_on_c, 7, 36, 0
9, 196800, Note_on_c, 7, 36, 79
9, 196920, Note_on_c, 7, 36, 0
9, 196920, Note_on_c, 7, 39, 63
9, 197040, Note_on_c, 7, 43, 79
9, 197044, Note_on_c, 7, 39, 0
9, 197136, Note_on_c, 7, 43, 0
9, 197280, Note_on_c, 7, 41, 86
9, 197384, Note_on_c, 7, 41, 0
9, 197400, Note_on_c, 7, 39, 59
9, 197520, Note_on_c, 7, 36, 86
9, 197536, Note_on_c, 7, 39, 0
9, 197628, Note_on_c, 7, 36, 0
9, 197760, Note_on_c, 7, 36, 94
9, 197876, Note_on_c, 7, 36, 0
9, 197880, Note_on_c, 7, 43, 41
9, 197920, Note_on_c, 7, 43, 0
9, 198000, Note_on_c, 7, 48, 94
9, 198120, Note_on_c, 7, 43, 59
9, 198124, Note_on_c, 7, 48, 0
9, 198220, Note_on_c, 7, 43, 0
9, 198240, Note_on_c, 7, 36, 68
9, 198368, Note_on_c, 7, 36, 0
9, 198600, Note_on_c, 7, 36, 73
9, 198676, Note_on_c, 7, 36, 0
9, 198720, Note_on_c, 7, 36, 73
9, 198824, Note_on_c, 7, 36, 0
9, 198840, Note_on_c, 7, 39, 59
9, 198936, Note_on_c, 7, 39, 0
9, 198960, Note_on_c, 7, 43, 79
9, 199056, Note_on_c, 7, 43, 0
9, 199200, Note_on_c, 7, 41, 86
9, 199296, Note_on_c, 7, 41, 0
9, 199320, Note_on_c, 7, 39, 73
9, 199420, Note_on_c, 7, 39, 0
9, 199440, Note_on_c, 7, 36, 94
9, 199544, Note_on_c, 7, 36, 0
9, 199920, Note_on_c, 7, 48, 86
9, 200040, Note_on_c, 7, 48, 0
9, 200040, Note_on_c, 7, 43, 63
9, 200160, Note_on_c, 7, 36, 86
9, 200164, Note_on_c, 7, 43, 0
9, 200280, Note_on_c, 7, 36, 0
9, 200520, Note_on_c, 7, 36, 86
9, 200592, Note_on_c, 7, 36, 0
9, 200640, Note_on_c, 7, 36, 79
9, 200760, Note_on_c, 7, 36, 0
9, 200760, Note_on_c, 7, 39, 63
9, 200880, Note_on_c, 7, 43, 79
9, 200884, Note_on_c, 7, 39, 0
9, 200976, Note_on_c, 7, 43, 0
9, 201120, Note_on_c, 7, 41, 86
9, 201224, Note_on_c, 7, 41, 0
9, 201240, Note_on_c, 7, 39, 59
9, 201360, Note_on_c, 7, 36, 86
9, 201376, Note_on_c, 7, 39, 0
9, 201468, Note_on_c, 7, 36, 0
9, 201600, Note_on_c, 7, 36, 94
9, 201716, Note_on_c, 7, 36, 0
9, 201720, Note_on_c, 7, 43, 41
9, 201760, Note_on_c, 7, 43, 0
9, 201840, Note_on_c, 7, 48, 94
9, 201960, Note_on_c, 7, 43, 59
9, 201964, Note_on_c, 7, 48, 0
9, 202060, Note_on_c, 7, 43, 0
9, 202080, Note_on_c, 7, 36, 68
9, 202208, Note_on_c, 7, 36, 0
9, 202440, Note_on_c, 7, 36, 73
9, 202516, Note_on_c, 7, 36, 0
9, 202560, Note_on_c, 7, 36, 73
9, 202664, Note_on_c, 7, 36, 0
9, 202680, Note_on_c, 7, 39, 59
9, 202776, Note_on_c, 7, 39, 0
9, 202800, Note_on_c, 7, 43, 79
9, 202896, Note_on_c, 7, 43, 0
9, 203040, Note_on_c, 7, 41, 86
9, 203136, Note_on_c, 7, 41, 0
9, 203160, Note_on_c, 7, 39, 73
9, 203260, Note_on_c, 7, 39, 0
9, 203280, Note_on_c, 7, 36, 94
9, 203384, Note_on_c, 7, 36, 0
9, 203520, Note_on_c, 7, 36, 94
9, 203632, Note_on_c, 7, 36, 0
9, 203760, Note_on_c, 7, 48, 86
9, 203880, Note_on_c, 7, 48, 0
9, 203880, Note_on_c, 7, 43, 63
9, 204000, Note_on_c, 7, 36, 86
9, 204004, Note_on_c, 7, 43, 0
9, 204120, Note_on_c, 7, 36, 0
9, 204360, Note_on_c, 7, 36, 86
9, 204432, Note_on_c, 7, 36, 0
9, 204480, Note_on_c, 7, 36, 79
9, 204600, Note_on_c, 7, 36, 0
9, 204600, Note_on_c, 7, 39, 63
9, 204720, Note_on_c, 7, 43, 79
9, 204724, Note_on_c, 7, 39, 0
9, 204816, Note_on_c, 7, 43, 0
9, 204960, Note_on_c, 7, 41, 86
9, 205064, Note_on_c, 7, 41, 0
9, 205080, Note_on_c, 7, 39, 59
9, 205200, Note_on_c, 7, 36, 86
9, 205216, Note_on_c, 7, 39, 0
9, 205308, Note_on_c, 7, 36, 0
9, 205440, Note_on_c, 7, 36, 94
9, 205556, Note_on_c, 7, 36, 0
9, 205560, Note_on_c, 7, 43, 41
9, 205600, Note_on_c, 7, 43, 0
9, 205680, Note_on_c, 7, 48, 94
9, 205800, Note_on_c, 7, 43, 59
9, 205804, Note_on_c, 7, 48, 0
9, 205900, Note_on_c, 7, 43, 0
9, 205920, Note_on_c, 7, 36, 68
9, 206048, Note_on_c, 7, 36, 0
9, 206280, Note_on_c, 7, 36, 73
9, 206356, Note_on_c, 7, 36, 0
9, 206400, Note_on_c, 7, 36, 73
9, 206504, Note_on_c, 7, 36, 0
9, 206520, Note_on_c, 7, 39, 59
9, 206616, Note_on_c, 7, 39, 0
9, 206640, Note_on_c, 7, 43, 79
9, 206736, Note_on_c, 7, 43, 0
9, 206880, Note_on_c, 7, 41, 86
9, 206976, Note_on_c, 7, 41, 0
9, 207000, Note_on_c, 7, 39, 73
9, 207100, Note_on_c, 7, 39, 0
9, 207120, Note_on_c, 7, 36, 94
9, 207224, Note_on_c, 7, 36, 0
9, 207360, Note_on_c, 7, 36, 94
9, 207472, Note_on_c, 7, 36, 0
9, 207600, Note_on_c, 7, 48, 86
9, 207720, Note_on_c, 7, 48, 0
9, 207720, Note_on_c, 7, 43, 63
9, 207840, Note_on_c, 7, 36, 86
9, 207844, Note_on_c, 7, 43, 0
9, 207960, Note_on_c, 7, 36, 0
9, 208200, Note_on_c, 7, 36, 86
9, 208272, Note_on_c, 7, 36, 0
9, 208320, Note_on_c, 7, 36, 79
9, 208440, Note_on_c, 7, 36, 0
9, 208440, Note_on_c, 7, 39, 63
9, 208560, Note_on_c, 7, 43, 79
9, 208564, Note_on_c, 7, 39, 0
9, 208656, Note_on_c, 7, 43, 0
9, 208800, Note_on_c, 7, 41, 86
9, 208904, Note_on_c, 7, 41, 0
9, 208920, Note_on_c, 7, 39, 59
9, 209040, Note_on_c, 7, 36, 86
9, 209056, Note_on_c, 7, 39, 0
9, 209148, Note_on_c, 7, 36, 0
9, 209280, Note_on_c, 7, 36, 94
9, 209396, Note_on_c, 7, 36, 0
9, 209400, Note_on_c, 7, 43, 41
9, 209440, Note_on_c, 7, 43, 0
9, 209520, Note_on_c, 7, 48, 94
9, 209640, Note_on_c, 7, 43, 59
9, 209644, Note_on_c, 7, 48, 0
9, 209740, Note_on_c, 7, 43, 0
9, 209760, Note_on_c, 7, 36, 68
9, 209888, Note_on_c, 7, 36, 0
9, 210120, Note_on_c, 7, 36, 73
9, 210196, Note_on_c, 7, 36, 0
9, 210240, Note_on_c, 7, 36, 73
9, 210344, Note_on_c, 7, 36, 0
9, 210360, Note_on_c, 7, 39, 59
9, 210456, Note_on_c, 7, 39, 0
9, 210480, Note_on_c, 7, 43, 79
9, 210576, Note_on_c, 7, 43, 0
9, 210720, Note_on_c, 7, 41, 86
9, 210816, Note_on_c, 7, 41, 0
9, 210840, Note_on_c, 7, 39, 73
9, 210940, Note_on_c, 7, 39, 0
9, 210960, Note_on_c, 7, 36, 94
9, 211064, Note_on_c, 7, 36, 0
9, 211200, Note_on_c, 7, 36, 94
9, 212800, Note_on_c, 7, 36, 0
9, 212800, End_track
10, 0, Start_track
10, 0, Title_t, "el. piano 2"
10, 0, Program_c, 0, 5
10, 0, Control_c, 0, 7, 80
10, 0, Control_c, 0, 10, 33
10, 0, Control_c, 0, 91, 75
10, 0, Control_c, 0, 93, 109
10, 0, Control_c, 0, 123, 0
10, 0, Control_c, 0, 64, 0
10, 3840, Note_on_c, 0, 67, 76
10, 3840, Note_on_c, 0, 63, 65
10, 3840, Note_on_c, 0, 51, 72
10, 3840, Note_on_c, 0, 58, 65
10, 4064, Control_c, 0, 64, 127
10, 4568, Note_on_c, 0, 58, 0
10, 4568, Note_on_c, 0, 67, 0
10, 4572, Note_on_c, 0, 63, 0
10, 4800, Note_on_c, 0, 51, 0
10, 4800, Control_c, 0, 64, 0
10, 4812, Note_on_c, 0, 63, 47
10, 4812, Note_on_c, 0, 51, 50
10, 4812, Note_on_c, 0, 58, 52
10, 4816, Note_on_c, 0, 67, 56
10, 4824, Control_c, 0, 64, 0
10, 5304, Control_c, 0, 0, 0
10, 5760, Note_on_c, 0, 67, 0
10, 5760, Note_on_c, 0, 63, 0
10, 5760, Note_on_c, 0, 51, 0
10, 5760, Note_on_c, 0, 58, 0
10, 5760, Control_c, 0, 0, 0
10, 5764, Note_on_c, 0, 58, 68
10, 5772, Note_on_c, 0, 74, 81
10, 5792, Control_c, 0, 64, 0
10, 6272, Control_c, 0, 0, 0
10, 6752, Control_c, 0, 0, 0
10, 7176, Control_c, 0, 64, 127
10, 7416, Note_on_c, 0, 74, 0
10, 7452, Note_on_c, 0, 58, 0
10, 7680, Control_c, 0, 64, 0
10, 7684, Note_on_c, 0, 60, 68
10, 7692, Note_on_c, 0, 75, 81
10, 7712, Control_c, 0, 64, 0
10, 8192, Control_c, 0, 0, 0
10, 8672, Control_c, 0, 0, 0
10, 9096, Control_c, 0, 64, 127
10, 9336, Note_on_c, 0, 75, 0
10, 9372, Note_on_c, 0, 60, 0
10, 9600, Control_c, 0, 64, 0
10, 9600, Note_on_c, 0, 67, 76
10, 9600, Note_on_c, 0, 62, 65
10, 9600, Note_on_c, 0, 53, 72
10, 9600, Note_on_c, 0, 58, 65
10, 9824, Control_c, 0, 64, 127
10, 10328, Note_on_c, 0, 58, 0
10, 10328, Note_on_c, 0, 67, 0
10, 10332, Note_on_c, 0, 62, 0
10, 10612, Note_on_c, 0, 53, 0
10, 11488, Control_c, 0, 64, 0
10, 11520, Note_on_c, 0, 70, 64
10, 11964, Control_c, 0, 64, 127
10, 12200, Note_on_c, 0, 70, 0
10, 12480, Control_c, 0, 64, 0
10, 12480, Control_c, 0, 64, 0
10, 12480, Note_on_c, 0, 63, 80
10, 12480, Note_on_c, 0, 55, 69
10, 12480, Note_on_c, 0, 70, 79
10, 12772, Control_c, 0, 64, 127
10, 13152, Note_on_c, 0, 63, 0
10, 13160, Note_on_c, 0, 70, 0
10, 13252, Note_on_c, 0, 55, 0
10, 13440, Control_c, 0, 64, 0
10, 14520, Note_on_c, 0, 53, 73
10, 14520, Control_c, 0, 64, 0
10, 14620, Note_on_c, 0, 53, 0
10, 14640, Note_on_c, 0, 57, 62
10, 14760, Note_on_c, 0, 62, 56
10, 14880, Note_on_c, 0, 69, 84
10, 15000, Note_on_c, 0, 69, 0
10, 15000, Note_on_c, 0, 53, 53
10, 15056, Note_on_c, 0, 53, 0
10, 15120, Note_on_c, 0, 65, 82
10, 15120, Control_c, 0, 64, 127
10, 15184, Note_on_c, 0, 62, 0
10, 15220, Note_on_c, 0, 57, 0
10, 15248, Note_on_c, 0, 65, 0
10, 15360, Control_c, 0, 64, 0
10, 15360, Control_c, 0, 64, 0
10, 15360, Note_on_c, 0, 63, 80
10, 15360, Note_on_c, 0, 53, 69
10, 15360, Note_on_c, 0, 68, 79
10, 15360, Note_on_c, 0, 60, 69
10, 15652, Control_c, 0, 64, 127
10, 16032, Note_on_c, 0, 63, 0
10, 16040, Note_on_c, 0, 60, 0
10, 16040, Note_on_c, 0, 68, 0
10, 16132, Note_on_c, 0, 53, 0
10, 16792, Control_c, 0, 64, 0
10, 16804, Note_on_c, 0, 63, 64
10, 16804, Note_on_c, 0, 68, 75
10, 16804, Note_on_c, 0, 77, 75
10, 16804, Note_on_c, 0, 65, 75
10, 16948, Control_c, 0, 64, 127
10, 17036, Note_on_c, 0, 65, 0
10, 17044, Note_on_c, 0, 63, 0
10, 17092, Note_on_c, 0, 68, 0
10, 17280, Note_on_c, 0, 77, 0
10, 17280, Control_c, 0, 64, 0
10, 18360, Note_on_c, 0, 55, 73
10, 18360, Control_c, 0, 64, 0
10, 18460, Note_on_c, 0, 55, 0
10, 18480, Note_on_c, 0, 58, 62
10, 18600, Note_on_c, 0, 65, 56
10, 18720, Note_on_c, 0, 70, 84
10, 18840, Note_on_c, 0, 70, 0
10, 18840, Note_on_c, 0, 55, 53
10, 18896, Note_on_c, 0, 55, 0
10, 18960, Note_on_c, 0, 67, 82
10, 18960, Control_c, 0, 64, 127
10, 19024, Note_on_c, 0, 65, 0
10, 19060, Note_on_c, 0, 58, 0
10, 19088, Note_on_c, 0, 67, 0
10, 19200, Control_c, 0, 64, 0
10, 19200, Note_on_c, 0, 70, 64
10, 19644, Control_c, 0, 64, 127
10, 19880, Note_on_c, 0, 70, 0
10, 20180, Note_on_c, 0, 63, 69
10, 20180, Note_on_c, 0, 51, 59
10, 20204, Control_c, 0, 64, 0
10, 20696, Control_c, 0, 64, 127
10, 20892, Note_on_c, 0, 63, 0
10, 20956, Note_on_c, 0, 51, 0
10, 21120, Control_c, 0, 64, 0
10, 21140, Note_on_c, 0, 53, 44
10, 21144, Note_on_c, 0, 62, 67
10, 21144, Note_on_c, 0, 69, 61
10, 21144, Note_on_c, 0, 60, 66
10, 21152, Note_on_c, 0, 50, 46
10, 21372, Note_on_c, 0, 62, 0
10, 21372, Note_on_c, 0, 65, 74
10, 21380, Note_on_c, 0, 50, 0
10, 21388, Note_on_c, 0, 50, 43
10, 21392, Note_on_c, 0, 53, 0
10, 21400, Note_on_c, 0, 69, 0
10, 21432, Note_on_c, 0, 50, 0
10, 21496, Note_on_c, 0, 65, 0
10, 21504, Note_on_c, 0, 62, 70
10, 21516, Note_on_c, 0, 53, 77
10, 21932, Control_c, 0, 64, 127
10, 21944, Note_on_c, 0, 53, 0
10, 21964, Note_on_c, 0, 60, 0
10, 21992, Note_on_c, 0, 62, 0
10, 22656, Control_c, 0, 64, 0
10, 23052, Note_on_c, 0, 63, 47
10, 23052, Note_on_c, 0, 51, 50
10, 23052, Note_on_c, 0, 56, 52
10, 23056, Note_on_c, 0, 65, 56
10, 23064, Control_c, 0, 64, 0
10, 23544, Control_c, 0, 0, 0
10, 24024, Control_c, 0, 0, 0
10, 24464, Control_c, 0, 64, 127
10, 24612, Note_on_c, 0, 63, 0
10, 24624, Note_on_c, 0, 56, 0
10, 24628, Note_on_c, 0, 65, 0
10, 24704, Note_on_c, 0, 51, 0
10, 24928, Control_c, 0, 64, 0
10, 24960, Control_c, 0, 64, 76
10, 24960, Control_c, 0, 64, 0
10, 25200, Note_on_c, 0, 86, 87
10, 25204, Note_on_c, 0, 70, 70
10, 25204, Note_on_c, 0, 77, 63
10, 25204, Note_on_c, 0, 65, 71
10, 25308, Note_on_c, 0, 65, 0
10, 25312, Note_on_c, 0, 70, 0
10, 25316, Note_on_c, 0, 86, 0
10, 25340, Note_on_c, 0, 82, 47
10, 25344, Note_on_c, 0, 89, 61
10, 25352, Note_on_c, 0, 65, 41
10, 25352, Note_on_c, 0, 70, 46
10, 25404, Note_on_c, 0, 82, 0
10, 25412, Note_on_c, 0, 89, 0
10, 25416, Note_on_c, 0, 70, 0
10, 25416, Note_on_c, 0, 65, 0
10, 25420, Note_on_c, 0, 77, 0
10, 25916, Note_on_c, 0, 77, 84
10, 25920, Note_on_c, 0, 70, 65
10, 25920, Note_on_c, 0, 65, 67
10, 25924, Note_on_c, 0, 62, 63
10, 26024, Note_on_c, 0, 77, 0
10, 26028, Note_on_c, 0, 77, 54
10, 26040, Note_on_c, 0, 79, 39
10, 26148, Note_on_c, 0, 77, 0
10, 26152, Note_on_c, 0, 77, 60
10, 26160, Note_on_c, 0, 79, 0
10, 26296, Note_on_c, 0, 77, 0
10, 26308, Note_on_c, 0, 62, 0
10, 26308, Note_on_c, 0, 70, 0
10, 26316, Note_on_c, 0, 65, 0
10, 26880, Control_c, 0, 64, 0
10, 26904, Note_on_c, 0, 75, 68
10, 26904, Note_on_c, 0, 63, 76
10, 26908, Note_on_c, 0, 70, 68
10, 27388, Control_c, 0, 64, 127
10, 27596, Note_on_c, 0, 75, 0
10, 27612, Note_on_c, 0, 70, 0
10, 27620, Note_on_c, 0, 63, 0
10, 28084, Note_on_c, 0, 63, 67
10, 28088, Note_on_c, 0, 58, 60
10, 28120, Control_c, 0, 64, 0
10, 28468, Note_on_c, 0, 75, 79
10, 28800, Note_on_c, 0, 75, 0
10, 28800, Note_on_c, 0, 58, 0
10, 28800, Note_on_c, 0, 63, 0
10, 28820, Note_on_c, 0, 72, 86
10, 28820, Note_on_c, 0, 62, 74
10, 28820, Note_on_c, 0, 60, 62
10, 28828, Note_on_c, 0, 57, 63
10, 29240, Control_c, 0, 64, 127
10, 29252, Note_on_c, 0, 72, 0
10, 29268, Note_on_c, 0, 60, 0
10, 29284, Note_on_c, 0, 62, 0
10, 29296, Note_on_c, 0, 57, 0
10, 29512, Control_c, 0, 64, 0
10, 29516, Note_on_c, 0, 53, 49
10, 29520, Note_on_c, 0, 69, 53
10, 29520, Note_on_c, 0, 62, 60
10, 29520, Note_on_c, 0, 60, 50
10, 29780, Control_c, 0, 64, 127
10, 29948, Note_on_c, 0, 53, 0
10, 29952, Note_on_c, 0, 69, 0
10, 29960, Note_on_c, 0, 62, 0
10, 30000, Note_on_c, 0, 60, 0
10, 30232, Control_c, 0, 64, 0
10, 30732, Note_on_c, 0, 63, 47
10, 30732, Note_on_c, 0, 51, 50
10, 30732, Note_on_c, 0, 56, 52
10, 30736, Note_on_c, 0, 65, 56
10, 30744, Control_c, 0, 64, 0
10, 31224, Control_c, 0, 0, 0
10, 31704, Control_c, 0, 0, 0
10, 32144, Control_c, 0, 64, 127
10, 32292, Note_on_c, 0, 63, 0
10, 32304, Note_on_c, 0, 56, 0
10, 32308, Note_on_c, 0, 65, 0
10, 32384, Note_on_c, 0, 51, 0
10, 32608, Control_c, 0, 64, 0
10, 32640, Control_c, 0, 64, 76
10, 32640, Control_c, 0, 64, 0
10, 32640, Control_c, 0, 64, 0
10, 32664, Note_on_c, 0, 77, 68
10, 32664, Note_on_c, 0, 62, 76
10, 32668, Note_on_c, 0, 70, 68
10, 32684, Note_on_c, 0, 65, 53
10, 33148, Control_c, 0, 64, 127
10, 33356, Note_on_c, 0, 77, 0
10, 33372, Note_on_c, 0, 70, 0
10, 33380, Note_on_c, 0, 65, 0
10, 33460, Note_on_c, 0, 62, 0
10, 33844, Note_on_c, 0, 65, 67
10, 33848, Note_on_c, 0, 58, 60
10, 33848, Note_on_c, 0, 62, 72
10, 33880, Control_c, 0, 64, 0
10, 34228, Note_on_c, 0, 74, 79
10, 34560, Note_on_c, 0, 74, 0
10, 34560, Note_on_c, 0, 65, 0
10, 34560, Note_on_c, 0, 58, 0
10, 34560, Note_on_c, 0, 62, 0
10, 34572, Note_on_c, 0, 63, 47
10, 34572, Note_on_c, 0, 51, 50
10, 34572, Note_on_c, 0, 58, 52
10, 34576, Note_on_c, 0, 67, 56
10, 34584, Control_c, 0, 64, 0
10, 35064, Control_c, 0, 0, 0
10, 35544, Control_c, 0, 0, 0
10, 35984, Control_c, 0, 64, 127
10, 36132, Note_on_c, 0, 63, 0
10, 36144, Note_on_c, 0, 58, 0
10, 36148, Note_on_c, 0, 67, 0
10, 36224, Note_on_c, 0, 51, 0
10, 36448, Control_c, 0, 64, 0
10, 36480, Control_c, 0, 64, 76
10, 36480, Control_c, 0, 64, 0
10, 36500, Note_on_c, 0, 72, 86
10, 36500, Note_on_c, 0, 62, 74
10, 36500, Note_on_c, 0, 60, 62
10, 36508, Note_on_c, 0, 57, 63
10, 36920, Control_c, 0, 64, 127
10, 36932, Note_on_c, 0, 72, 0
10, 36948, Note_on_c, 0, 60, 0
10, 36964, Note_on_c, 0, 62, 0
10, 36976, Note_on_c, 0, 57, 0
10, 37192, Control_c, 0, 64, 0
10, 37196, Note_on_c, 0, 53, 49
10, 37200, Note_on_c, 0, 69, 53
10, 37200, Note_on_c, 0, 62, 60
10, 37200, Note_on_c, 0, 60, 50
10, 37460, Control_c, 0, 64, 127
10, 37628, Note_on_c, 0, 53, 0
10, 37632, Note_on_c, 0, 69, 0
10, 37640, Note_on_c, 0, 62, 0
10, 37680, Note_on_c, 0, 60, 0
10, 37912, Control_c, 0, 64, 0
10, 38412, Note_on_c, 0, 63, 57
10, 38416, Note_on_c, 0, 68, 63
10, 38416, Note_on_c, 0, 60, 55
10, 38420, Note_on_c, 0, 51, 57
10, 38420, Control_c, 0, 64, 0
10, 38940, Control_c, 0, 64, 127
10, 39304, Note_on_c, 0, 60, 0
10, 39320, Note_on_c, 0, 63, 0
10, 39356, Note_on_c, 0, 68, 0
10, 40060, Note_on_c, 0, 51, 0
10, 40076, Note_on_c, 0, 63, 50
10, 40188, Note_on_c, 0, 68, 58
10, 40320, Note_on_c, 0, 68, 0
10, 40320, Note_on_c, 0, 63, 0
10, 40320, Control_c, 0, 64, 0
10, 40340, Note_on_c, 0, 74, 86
10, 40340, Note_on_c, 0, 65, 74
10, 40340, Note_on_c, 0, 62, 62
10, 40348, Note_on_c, 0, 58, 63
10, 40760, Control_c, 0, 64, 127
10, 40772, Note_on_c, 0, 74, 0
10, 40788, Note_on_c, 0, 62, 0
10, 40804, Note_on_c, 0, 65, 0
10, 40816, Note_on_c, 0, 58, 0
10, 41032, Control_c, 0, 64, 0
10, 41036, Note_on_c, 0, 55, 49
10, 41040, Note_on_c, 0, 70, 53
10, 41040, Note_on_c, 0, 65, 60
10, 41040, Note_on_c, 0, 62, 50
10, 41300, Control_c, 0, 64, 127
10, 41468, Note_on_c, 0, 55, 0
10, 41472, Note_on_c, 0, 70, 0
10, 41480, Note_on_c, 0, 65, 0
10, 41520, Note_on_c, 0, 62, 0
10, 41752, Control_c, 0, 64, 0
10, 42252, Note_on_c, 0, 63, 58
10, 42252, Note_on_c, 0, 58, 75
10, 42252, Note_on_c, 0, 55, 42
10, 42480, Note_on_c, 0, 67, 68
10, 43200, Note_on_c, 0, 67, 0
10, 43200, Note_on_c, 0, 63, 0
10, 43200, Note_on_c, 0, 58, 0
10, 43200, Note_on_c, 0, 55, 0
10, 43200, Note_on_c, 0, 63, 76
10, 43200, Note_on_c, 0, 58, 65
10, 43200, Note_on_c, 0, 48, 72
10, 43200, Note_on_c, 0, 55, 65
10, 43424, Control_c, 0, 64, 127
10, 43928, Note_on_c, 0, 55, 0
10, 43928, Note_on_c, 0, 63, 0
10, 43932, Note_on_c, 0, 58, 0
10, 44160, Note_on_c, 0, 48, 0
10, 44160, Control_c, 0, 64, 0
10, 44160, Control_c, 0, 64, 0
10, 44184, Note_on_c, 0, 74, 68
10, 44184, Note_on_c, 0, 60, 76
10, 44188, Note_on_c, 0, 69, 68
10, 44204, Note_on_c, 0, 62, 53
10, 44668, Control_c, 0, 64, 127
10, 44876, Note_on_c, 0, 74, 0
10, 44892, Note_on_c, 0, 69, 0
10, 44900, Note_on_c, 0, 62, 0
10, 44980, Note_on_c, 0, 60, 0
10, 45364, Note_on_c, 0, 62, 67
10, 45368, Note_on_c, 0, 57, 60
10, 45368, Note_on_c, 0, 60, 72
10, 45400, Control_c, 0, 64, 0
10, 45748, Note_on_c, 0, 72, 79
10, 46080, Note_on_c, 0, 72, 0
10, 46080, Note_on_c, 0, 62, 0
10, 46080, Note_on_c, 0, 57, 0
10, 46080, Note_on_c, 0, 60, 0
10, 46080, Note_on_c, 0, 67, 76
10, 46080, Note_on_c, 0, 60, 65
10, 46080, Note_on_c, 0, 51, 72
10, 46080, Note_on_c, 0, 56, 65
10, 46304, Control_c, 0, 64, 127
10, 46808, Note_on_c, 0, 56, 0
10, 46808, Note_on_c, 0, 67, 0
10, 46812, Note_on_c, 0, 60, 0
10, 47092, Note_on_c, 0, 51, 0
10, 47968, Control_c, 0, 64, 0
10, 48000, Control_c, 0, 64, 0
10, 48024, Note_on_c, 0, 77, 68
10, 48024, Note_on_c, 0, 62, 76
10, 48028, Note_on_c, 0, 70, 68
10, 48044, Note_on_c, 0, 65, 53
10, 48508, Control_c, 0, 64, 127
10, 48716, Note_on_c, 0, 77, 0
10, 48732, Note_on_c, 0, 70, 0
10, 48740, Note_on_c, 0, 65, 0
10, 48820, Note_on_c, 0, 62, 0
10, 49204, Note_on_c, 0, 65, 67
10, 49208, Note_on_c, 0, 58, 60
10, 49208, Note_on_c, 0, 62, 72
10, 49240, Control_c, 0, 64, 0
10, 49588, Note_on_c, 0, 74, 79
10, 49920, Note_on_c, 0, 74, 0
10, 49920, Note_on_c, 0, 65, 0
10, 49920, Note_on_c, 0, 58, 0
10, 49920, Note_on_c, 0, 62, 0
10, 49920, Note_on_c, 0, 67, 76
10, 49920, Note_on_c, 0, 63, 65
10, 49920, Note_on_c, 0, 51, 72
10, 49920, Note_on_c, 0, 58, 65
10, 50144, Control_c, 0, 64, 127
10, 50648, Note_on_c, 0, 58, 0
10, 50648, Note_on_c, 0, 67, 0
10, 50652, Note_on_c, 0, 63, 0
10, 50880, Note_on_c, 0, 51, 0
10, 50880, Control_c, 0, 64, 0
10, 50892, Note_on_c, 0, 63, 57
10, 50896, Note_on_c, 0, 70, 63
10, 50896, Note_on_c, 0, 60, 55
10, 50900, Note_on_c, 0, 51, 57
10, 50900, Control_c, 0, 64, 0
10, 51420, Control_c, 0, 64, 127
10, 51784, Note_on_c, 0, 60, 0
10, 51800, Note_on_c, 0, 63, 0
10, 51836, Note_on_c, 0, 70, 0
10, 51840, Note_on_c, 0, 51, 0
10, 51840, Control_c, 0, 64, 0
10, 51840, Note_on_c, 0, 69, 64
10, 52284, Control_c, 0, 64, 127
10, 52520, Note_on_c, 0, 69, 0
10, 52820, Note_on_c, 0, 62, 69
10, 52820, Note_on_c, 0, 50, 59
10, 52824, Note_on_c, 0, 60, 50
10, 52844, Control_c, 0, 64, 0
10, 53336, Control_c, 0, 64, 127
10, 53532, Note_on_c, 0, 60, 0
10, 53556, Note_on_c, 0, 62, 0
10, 53596, Note_on_c, 0, 50, 0
10, 53760, Control_c, 0, 64, 0
10, 53760, Note_on_c, 0, 68, 64
10, 54204, Control_c, 0, 64, 127
10, 54440, Note_on_c, 0, 68, 0
10, 54740, Note_on_c, 0, 63, 69
10, 54740, Note_on_c, 0, 51, 59
10, 54744, Note_on_c, 0, 60, 50
10, 54764, Control_c, 0, 64, 0
10, 55256, Control_c, 0, 64, 127
10, 55452, Note_on_c, 0, 60, 0
10, 55476, Note_on_c, 0, 63, 0
10, 55516, Note_on_c, 0, 51, 0
10, 55680, Control_c, 0, 64, 0
10, 55912, Note_on_c, 0, 67, 65
10, 55920, Note_on_c, 0, 65, 58
10, 55920, Note_on_c, 0, 62, 54
10, 55932, Note_on_c, 0, 58, 64
10, 55936, Note_on_c, 0, 55, 29
10, 56096, Control_c, 0, 64, 127
10, 56172, Note_on_c, 0, 58, 0
10, 56176, Note_on_c, 0, 55, 0
10, 56184, Note_on_c, 0, 62, 0
10, 56196, Note_on_c, 0, 67, 0
10, 56200, Note_on_c, 0, 65, 0
10, 56284, Note_on_c, 0, 67, 58
10, 56300, Note_on_c, 0, 65, 44
10, 56308, Note_on_c, 0, 58, 68
10, 56308, Note_on_c, 0, 55, 23
10, 56316, Note_on_c, 0, 62, 45
10, 56568, Note_on_c, 0, 62, 0
10, 56568, Note_on_c, 0, 58, 0
10, 56580, Note_on_c, 0, 55, 0
10, 56580, Note_on_c, 0, 67, 0
10, 56592, Note_on_c, 0, 65, 0
10, 56640, Control_c, 0, 64, 0
10, 56652, Note_on_c, 0, 58, 81
10, 56664, Note_on_c, 0, 55, 63
10, 56776, Note_on_c, 0, 67, 64
10, 56896, Note_on_c, 0, 65, 63
10, 57012, Note_on_c, 0, 62, 55
10, 57600, Note_on_c, 0, 62, 0
10, 57600, Note_on_c, 0, 67, 0
10, 57600, Note_on_c, 0, 58, 0
10, 57600, Note_on_c, 0, 55, 0
10, 57600, Note_on_c, 0, 65, 0
10, 57600, Control_c, 0, 64, 0
10, 57600, Note_on_c, 0, 63, 67
10, 57600, Note_on_c, 0, 55, 56
10, 57600, Note_on_c, 0, 70, 66
10, 57892, Control_c, 0, 64, 127
10, 58272, Note_on_c, 0, 63, 0
10, 58280, Note_on_c, 0, 70, 0
10, 58372, Note_on_c, 0, 55, 0
10, 59032, Control_c, 0, 64, 0
10, 59044, Note_on_c, 0, 63, 51
10, 59044, Note_on_c, 0, 70, 62
10, 59044, Note_on_c, 0, 79, 62
10, 59044, Note_on_c, 0, 67, 62
10, 59188, Control_c, 0, 64, 127
10, 59276, Note_on_c, 0, 67, 0
10, 59284, Note_on_c, 0, 63, 0
10, 59332, Note_on_c, 0, 70, 0
10, 59520, Note_on_c, 0, 79, 0
10, 59520, Control_c, 0, 64, 0
10, 59520, Control_c, 0, 64, 0
10, 59520, Note_on_c, 0, 62, 67
10, 59520, Note_on_c, 0, 53, 56
10, 59520, Note_on_c, 0, 69, 66
10, 59520, Note_on_c, 0, 60, 56
10, 59812, Control_c, 0, 64, 127
10, 60192, Note_on_c, 0, 62, 0
10, 60200, Note_on_c, 0, 60, 0
10, 60200, Note_on_c, 0, 69, 0
10, 60292, Note_on_c, 0, 53, 0
10, 60952, Control_c, 0, 64, 0
10, 60964, Note_on_c, 0, 62, 51
10, 60964, Note_on_c, 0, 69, 62
10, 60964, Note_on_c, 0, 77, 62
10, 60964, Note_on_c, 0, 65, 62
10, 61108, Control_c, 0, 64, 127
10, 61196, Note_on_c, 0, 65, 0
10, 61204, Note_on_c, 0, 62, 0
10, 61252, Note_on_c, 0, 69, 0
10, 61440, Note_on_c, 0, 77, 0
10, 61440, Control_c, 0, 64, 0
10, 61444, Note_on_c, 0, 60, 68
10, 61452, Note_on_c, 0, 75, 81
10, 61472, Control_c, 0, 64, 0
10, 61952, Control_c, 0, 0, 0
10, 62432, Control_c, 0, 0, 0
10, 62856, Control_c, 0, 64, 127
10, 63096, Note_on_c, 0, 75, 0
10, 63132, Note_on_c, 0, 60, 0
10, 63360, Control_c, 0, 64, 0
10, 63360, Note_on_c, 0, 67, 76
10, 63360, Note_on_c, 0, 62, 65
10, 63360, Note_on_c, 0, 53, 72
10, 63360, Note_on_c, 0, 58, 65
10, 63584, Control_c, 0, 64, 127
10, 64088, Note_on_c, 0, 58, 0
10, 64088, Note_on_c, 0, 67, 0
10, 64092, Note_on_c, 0, 62, 0
10, 64372, Note_on_c, 0, 53, 0
10, 65248, Control_c, 0, 64, 0
10, 65280, Control_c, 0, 64, 0
10, 65304, Note_on_c, 0, 75, 68
10, 65304, Note_on_c, 0, 60, 76
10, 65308, Note_on_c, 0, 70, 68
10, 65324, Note_on_c, 0, 63, 53
10, 65788, Control_c, 0, 64, 127
10, 65996, Note_on_c, 0, 75, 0
10, 66012, Note_on_c, 0, 70, 0
10, 66020, Note_on_c, 0, 63, 0
10, 66100, Note_on_c, 0, 60, 0
10, 66484, Note_on_c, 0, 63, 67
10, 66488, Note_on_c, 0, 58, 60
10, 66488, Note_on_c, 0, 60, 72
10, 66520, Control_c, 0, 64, 0
10, 66868, Note_on_c, 0, 72, 79
10, 67200, Note_on_c, 0, 72, 0
10, 67200, Note_on_c, 0, 63, 0
10, 67200, Note_on_c, 0, 58, 0
10, 67200, Note_on_c, 0, 60, 0
10, 67212, Note_on_c, 0, 65, 47
10, 67212, Note_on_c, 0, 53, 50
10, 67212, Note_on_c, 0, 58, 52
10, 67216, Note_on_c, 0, 67, 56
10, 67224, Control_c, 0, 64, 0
10, 67704, Control_c, 0, 0, 0
10, 68184, Control_c, 0, 0, 0
10, 68624, Control_c, 0, 64, 127
10, 68772, Note_on_c, 0, 65, 0
10, 68784, Note_on_c, 0, 58, 0
10, 68788, Note_on_c, 0, 67, 0
10, 68864, Note_on_c, 0, 53, 0
10, 69088, Control_c, 0, 64, 0
10, 69120, Control_c, 0, 64, 76
10, 69120, Control_c, 0, 64, 0
10, 69124, Note_on_c, 0, 60, 68
10, 69132, Note_on_c, 0, 75, 81
10, 69152, Control_c, 0, 64, 0
10, 69632, Control_c, 0, 0, 0
10, 70112, Control_c, 0, 0, 0
10, 70536, Control_c, 0, 64, 127
10, 70776, Note_on_c, 0, 75, 0
10, 70812, Note_on_c, 0, 60, 0
10, 71040, Control_c, 0, 64, 0
10, 71040, Control_c, 0, 64, 0
10, 71064, Note_on_c, 0, 77, 68
10, 71064, Note_on_c, 0, 62, 76
10, 71068, Note_on_c, 0, 70, 68
10, 71084, Note_on_c, 0, 65, 53
10, 71548, Control_c, 0, 64, 127
10, 71756, Note_on_c, 0, 77, 0
10, 71772, Note_on_c, 0, 70, 0
10, 71780, Note_on_c, 0, 65, 0
10, 71860, Note_on_c, 0, 62, 0
10, 72244, Note_on_c, 0, 65, 67
10, 72248, Note_on_c, 0, 58, 60
10, 72248, Note_on_c, 0, 62, 72
10, 72280, Control_c, 0, 64, 0
10, 72628, Note_on_c, 0, 74, 79
10, 72960, Note_on_c, 0, 74, 0
10, 72960, Note_on_c, 0, 65, 0
10, 72960, Note_on_c, 0, 58, 0
10, 72960, Note_on_c, 0, 62, 0
10, 72960, Note_on_c, 0, 70, 64
10, 73404, Control_c, 0, 64, 127
10, 73640, Note_on_c, 0, 70, 0
10, 73940, Note_on_c, 0, 63, 69
10, 73940, Note_on_c, 0, 51, 59
10, 73944, Note_on_c, 0, 62, 50
10, 73964, Control_c, 0, 64, 0
10, 74456, Control_c, 0, 64, 127
10, 74652, Note_on_c, 0, 62, 0
10, 74676, Note_on_c, 0, 63, 0
10, 74716, Note_on_c, 0, 51, 0
10, 74880, Control_c, 0, 64, 0
10, 74892, Note_on_c, 0, 65, 47
10, 74892, Note_on_c, 0, 53, 50
10, 74892, Note_on_c, 0, 58, 52
10, 74896, Note_on_c, 0, 69, 56
10, 74904, Control_c, 0, 64, 0
10, 75384, Control_c, 0, 0, 0
10, 75864, Control_c, 0, 0, 0
10, 76304, Control_c, 0, 64, 127
10, 76452, Note_on_c, 0, 65, 0
10, 76464, Note_on_c, 0, 58, 0
10, 76468, Note_on_c, 0, 69, 0
10, 76544, Note_on_c, 0, 53, 0
10, 76768, Control_c, 0, 64, 0
10, 76800, Control_c, 0, 64, 76
10, 76800, Control_c, 0, 64, 0
10, 76812, Note_on_c, 0, 63, 57
10, 76816, Note_on_c, 0, 68, 63
10, 76816, Note_on_c, 0, 60, 55
10, 76820, Note_on_c, 0, 51, 57
10, 76820, Control_c, 0, 64, 0
10, 77340, Control_c, 0, 64, 127
10, 77704, Note_on_c, 0, 60, 0
10, 77720, Note_on_c, 0, 63, 0
10, 77756, Note_on_c, 0, 68, 0
10, 78460, Note_on_c, 0, 51, 0
10, 78476, Note_on_c, 0, 63, 50
10, 78588, Note_on_c, 0, 68, 58
10, 78720, Note_on_c, 0, 68, 0
10, 78720, Note_on_c, 0, 63, 0
10, 78720, Control_c, 0, 64, 0
10, 79208, Note_on_c, 0, 89, 83
10, 79208, Note_on_c, 0, 58, 50
10, 79208, Note_on_c, 0, 62, 44
10, 79212, Note_on_c, 0, 65, 36
10, 79336, Note_on_c, 0, 79, 26
10, 79372, Note_on_c, 0, 89, 0
10, 79436, Note_on_c, 0, 79, 0
10, 79448, Note_on_c, 0, 82, 48
10, 79564, Note_on_c, 0, 77, 51
10, 79700, Control_c, 0, 64, 127
10, 79736, Note_on_c, 0, 58, 0
10, 79736, Note_on_c, 0, 62, 0
10, 79740, Note_on_c, 0, 82, 0
10, 79756, Note_on_c, 0, 65, 0
10, 79760, Note_on_c, 0, 77, 0
10, 80640, Control_c, 0, 64, 0
10, 80640, Note_on_c, 0, 70, 64
10, 81084, Control_c, 0, 64, 127
10, 81320, Note_on_c, 0, 70, 0
10, 81620, Note_on_c, 0, 63, 69
10, 81620, Note_on_c, 0, 51, 59
10, 81624, Note_on_c, 0, 62, 50
10, 81644, Control_c, 0, 64, 0
10, 82136, Control_c, 0, 64, 127
10, 82332, Note_on_c, 0, 62, 0
10, 82356, Note_on_c, 0, 63, 0
10, 82396, Note_on_c, 0, 51, 0
10, 82560, Control_c, 0, 64, 0
10, 82580, Note_on_c, 0, 57, 44
10, 82584, Note_on_c, 0, 65, 67
10, 82584, Note_on_c, 0, 70, 61
10, 82584, Note_on_c, 0, 62, 66
10, 82592, Note_on_c, 0, 53, 46
10, 82812, Note_on_c, 0, 65, 0
10, 82812, Note_on_c, 0, 69, 74
10, 82820, Note_on_c, 0, 53, 0
10, 82828, Note_on_c, 0, 53, 43
10, 82832, Note_on_c, 0, 57, 0
10, 82840, Note_on_c, 0, 70, 0
10, 82872, Note_on_c, 0, 53, 0
10, 82936, Note_on_c, 0, 69, 0
10, 82944, Note_on_c, 0, 65, 70
10, 82956, Note_on_c, 0, 57, 77
10, 83372, Control_c, 0, 64, 127
10, 83384, Note_on_c, 0, 57, 0
10, 83404, Note_on_c, 0, 62, 0
10, 83432, Note_on_c, 0, 65, 0
10, 84096, Control_c, 0, 64, 0
10, 84480, Control_c, 0, 64, 0
10, 84504, Note_on_c, 0, 75, 68
10, 84504, Note_on_c, 0, 60, 76
10, 84508, Note_on_c, 0, 68, 68
10, 84524, Note_on_c, 0, 63, 53
10, 84988, Control_c, 0, 64, 127
10, 85196, Note_on_c, 0, 75, 0
10, 85212, Note_on_c, 0, 68, 0
10, 85220, Note_on_c, 0, 63, 0
10, 85300, Note_on_c, 0, 60, 0
10, 85684, Note_on_c, 0, 63, 67
10, 85688, Note_on_c, 0, 56, 60
10, 85688, Note_on_c, 0, 60, 72
10, 85720, Control_c, 0, 64, 0
10, 86068, Note_on_c, 0, 72, 79
10, 86400, Note_on_c, 0, 72, 0
10, 86400, Note_on_c, 0, 63, 0
10, 86400, Note_on_c, 0, 56, 0
10, 86400, Note_on_c, 0, 60, 0
10, 86756, Note_on_c, 0, 58, 44
10, 86756, Note_on_c, 0, 81, 76
10, 86760, Note_on_c, 0, 65, 58
10, 86764, Note_on_c, 0, 70, 57
10, 86768, Note_on_c, 0, 77, 67
10, 86820, Note_on_c, 0, 58, 0
10, 86828, Note_on_c, 0, 70, 0
10, 86844, Note_on_c, 0, 65, 0
10, 86848, Note_on_c, 0, 81, 0
10, 86860, Note_on_c, 0, 77, 0
10, 86892, Note_on_c, 0, 70, 46
10, 86892, Note_on_c, 0, 77, 48
10, 86896, Note_on_c, 0, 69, 30
10, 86900, Note_on_c, 0, 58, 28
10, 86904, Note_on_c, 0, 65, 42
10, 86956, Note_on_c, 0, 58, 0
10, 86956, Note_on_c, 0, 70, 0
10, 86960, Note_on_c, 0, 65, 0
10, 86968, Note_on_c, 0, 69, 0
10, 86968, Note_on_c, 0, 77, 0
10, 87720, Note_on_c, 0, 69, 63
10, 87720, Note_on_c, 0, 65, 56
10, 87720, Note_on_c, 0, 58, 54
10, 87724, Note_on_c, 0, 70, 68
10, 87728, Note_on_c, 0, 53, 42
10, 87772, Note_on_c, 0, 65, 0
10, 87796, Note_on_c, 0, 53, 0
10, 87804, Note_on_c, 0, 69, 0
10, 87820, Note_on_c, 0, 70, 0
10, 87836, Note_on_c, 0, 58, 0
10, 87840, Note_on_c, 0, 57, 47
10, 87844, Note_on_c, 0, 58, 42
10, 87844, Note_on_c, 0, 65, 48
10, 87848, Note_on_c, 0, 70, 41
10, 87852, Note_on_c, 0, 77, 47
10, 87916, Note_on_c, 0, 58, 0
10, 87920, Note_on_c, 0, 57, 0
10, 87920, Note_on_c, 0, 65, 0
10, 87924, Note_on_c, 0, 70, 0
10, 87936, Note_on_c, 0, 77, 0
10, 88092, Note_on_c, 0, 69, 29
10, 88092, Note_on_c, 0, 58, 27
10, 88096, Note_on_c, 0, 65, 38
10, 88096, Note_on_c, 0, 70, 45
10, 88116, Note_on_c, 0, 53, 5
10, 88144, Note_on_c, 0, 69, 0
10, 88156, Note_on_c, 0, 70, 0
10, 88156, Note_on_c, 0, 58, 0
10, 88156, Note_on_c, 0, 53, 0
10, 88160, Note_on_c, 0, 65, 0
10, 88332, Note_on_c, 0, 63, 47
10, 88332, Note_on_c, 0, 51, 50
10, 88332, Note_on_c, 0, 58, 52
10, 88336, Note_on_c, 0, 67, 56
10, 88344, Control_c, 0, 64, 0
10, 88824, Control_c, 0, 0, 0
10, 89304, Control_c, 0, 0, 0
10, 89744, Control_c, 0, 64, 127
10, 89892, Note_on_c, 0, 63, 0
10, 89904, Note_on_c, 0, 58, 0
10, 89908, Note_on_c, 0, 67, 0
10, 89984, Note_on_c, 0, 51, 0
10, 90208, Control_c, 0, 64, 0
10, 90240, Control_c, 0, 64, 76
10, 90240, Control_c, 0, 64, 0
10, 90260, Note_on_c, 0, 74, 86
10, 90260, Note_on_c, 0, 65, 74
10, 90260, Note_on_c, 0, 62, 62
10, 90268, Note_on_c, 0, 58, 63
10, 90680, Control_c, 0, 64, 127
10, 90692, Note_on_c, 0, 74, 0
10, 90708, Note_on_c, 0, 62, 0
10, 90724, Note_on_c, 0, 65, 0
10, 90736, Note_on_c, 0, 58, 0
10, 90952, Control_c, 0, 64, 0
10, 90956, Note_on_c, 0, 55, 49
10, 90960, Note_on_c, 0, 70, 53
10, 90960, Note_on_c, 0, 65, 60
10, 90960, Note_on_c, 0, 62, 50
10, 91220, Control_c, 0, 64, 127
10, 91388, Note_on_c, 0, 55, 0
10, 91392, Note_on_c, 0, 70, 0
10, 91400, Note_on_c, 0, 65, 0
10, 91440, Note_on_c, 0, 62, 0
10, 91672, Control_c, 0, 64, 0
10, 92160, Control_c, 0, 64, 0
10, 92164, Note_on_c, 0, 60, 70
10, 92164, Note_on_c, 0, 75, 79
10, 92164, Note_on_c, 0, 68, 76
10, 92176, Note_on_c, 0, 65, 47
10, 92492, Control_c, 0, 64, 127
10, 92600, Note_on_c, 0, 75, 0
10, 92608, Note_on_c, 0, 68, 0
10, 92636, Note_on_c, 0, 65, 0
10, 92680, Note_on_c, 0, 60, 0
10, 93132, Note_on_c, 0, 53, 57
10, 93132, Note_on_c, 0, 63, 57
10, 93136, Note_on_c, 0, 68, 46
10, 93136, Note_on_c, 0, 60, 42
10, 93140, Control_c, 0, 64, 0
10, 93616, Note_on_c, 0, 65, 61
10, 93656, Note_on_c, 0, 68, 0
10, 93684, Control_c, 0, 64, 127
10, 93848, Note_on_c, 0, 53, 0
10, 93876, Note_on_c, 0, 60, 0
10, 93888, Note_on_c, 0, 63, 0
10, 93896, Note_on_c, 0, 65, 0
10, 94080, Control_c, 0, 64, 0
10, 94080, Control_c, 0, 64, 0
10, 94080, Note_on_c, 0, 65, 67
10, 94080, Note_on_c, 0, 55, 56
10, 94080, Note_on_c, 0, 70, 66
10, 94080, Note_on_c, 0, 62, 56
10, 94372, Control_c, 0, 64, 127
10, 94752, Note_on_c, 0, 65, 0
10, 94760, Note_on_c, 0, 62, 0
10, 94760, Note_on_c, 0, 70, 0
10, 94852, Note_on_c, 0, 55, 0
10, 95512, Control_c, 0, 64, 0
10, 95524, Note_on_c, 0, 65, 51
10, 95524, Note_on_c, 0, 70, 62
10, 95524, Note_on_c, 0, 79, 62
10, 95524, Note_on_c, 0, 67, 62
10, 95668, Control_c, 0, 64, 127
10, 95756, Note_on_c, 0, 67, 0
10, 95764, Note_on_c, 0, 65, 0
10, 95812, Note_on_c, 0, 70, 0
10, 96000, Note_on_c, 0, 79, 0
10, 96000, Control_c, 0, 64, 0
10, 96000, Note_on_c, 0, 70, 64
10, 96444, Control_c, 0, 64, 127
10, 96680, Note_on_c, 0, 70, 0
10, 96980, Note_on_c, 0, 63, 69
10, 96980, Note_on_c, 0, 51, 59
10, 96984, Note_on_c, 0, 62, 50
10, 97004, Control_c, 0, 64, 0
10, 97496, Control_c, 0, 64, 127
10, 97692, Note_on_c, 0, 62, 0
10, 97716, Note_on_c, 0, 63, 0
10, 97756, Note_on_c, 0, 51, 0
10, 97920, Control_c, 0, 64, 0
10, 97920, Control_c, 0, 64, 0
10, 97920, Note_on_c, 0, 65, 67
10, 97920, Note_on_c, 0, 55, 56
10, 97920, Note_on_c, 0, 70, 66
10, 97920, Note_on_c, 0, 62, 56
10, 98212, Control_c, 0, 64, 127
10, 98592, Note_on_c, 0, 65, 0
10, 98600, Note_on_c, 0, 62, 0
10, 98600, Note_on_c, 0, 70, 0
10, 98692, Note_on_c, 0, 55, 0
10, 99352, Control_c, 0, 64, 0
10, 99364, Note_on_c, 0, 65, 51
10, 99364, Note_on_c, 0, 70, 62
10, 99364, Note_on_c, 0, 79, 62
10, 99364, Note_on_c, 0, 67, 62
10, 99508, Control_c, 0, 64, 127
10, 99596, Note_on_c, 0, 67, 0
10, 99604, Note_on_c, 0, 65, 0
10, 99652, Note_on_c, 0, 70, 0
10, 99840, Note_on_c, 0, 79, 0
10, 99840, Control_c, 0, 64, 0
10, 99860, Note_on_c, 0, 91, 85
10, 99972, Note_on_c, 0, 84, 67
10, 100072, Note_on_c, 0, 84, 0
10, 100084, Note_on_c, 0, 87, 64
10, 100192, Note_on_c, 0, 75, 79
10, 100196, Note_on_c, 0, 60, 60
10, 100196, Note_on_c, 0, 56, 65
10, 100200, Note_on_c, 0, 63, 49
10, 100200, Note_on_c, 0, 51, 49
10, 100264, Control_c, 0, 64, 127
10, 100420, Note_on_c, 0, 91, 0
10, 100448, Note_on_c, 0, 75, 0
10, 100452, Note_on_c, 0, 87, 0
10, 100904, Note_on_c, 0, 63, 0
10, 101052, Note_on_c, 0, 79, 79
10, 101068, Control_c, 0, 64, 0
10, 101180, Note_on_c, 0, 72, 53
10, 101300, Note_on_c, 0, 75, 61
10, 101324, Note_on_c, 0, 72, 0
10, 101416, Note_on_c, 0, 63, 66
10, 101456, Control_c, 0, 64, 127
10, 101472, Note_on_c, 0, 56, 0
10, 101484, Note_on_c, 0, 60, 0
10, 101484, Note_on_c, 0, 51, 0
10, 101504, Note_on_c, 0, 63, 0
10, 101516, Note_on_c, 0, 75, 0
10, 101524, Note_on_c, 0, 79, 0
10, 101752, Control_c, 0, 64, 0
10, 102000, Note_on_c, 0, 86, 87
10, 102004, Note_on_c, 0, 70, 70
10, 102004, Note_on_c, 0, 77, 63
10, 102004, Note_on_c, 0, 65, 71
10, 102108, Note_on_c, 0, 65, 0
10, 102112, Note_on_c, 0, 70, 0
10, 102116, Note_on_c, 0, 86, 0
10, 102140, Note_on_c, 0, 82, 47
10, 102144, Note_on_c, 0, 89, 61
10, 102152, Note_on_c, 0, 65, 41
10, 102152, Note_on_c, 0, 70, 46
10, 102204, Note_on_c, 0, 82, 0
10, 102212, Note_on_c, 0, 89, 0
10, 102216, Note_on_c, 0, 70, 0
10, 102216, Note_on_c, 0, 65, 0
10, 102220, Note_on_c, 0, 77, 0
10, 102716, Note_on_c, 0, 77, 84
10, 102720, Note_on_c, 0, 70, 65
10, 102720, Note_on_c, 0, 65, 67
10, 102724, Note_on_c, 0, 62, 63
10, 102824, Note_on_c, 0, 77, 0
10, 102828, Note_on_c, 0, 77, 54
10, 102840, Note_on_c, 0, 79, 39
10, 102948, Note_on_c, 0, 77, 0
10, 102952, Note_on_c, 0, 77, 60
10, 102960, Note_on_c, 0, 79, 0
10, 103096, Note_on_c, 0, 77, 0
10, 103108, Note_on_c, 0, 62, 0
10, 103108, Note_on_c, 0, 70, 0
10, 103116, Note_on_c, 0, 65, 0
10, 103680, Control_c, 0, 64, 0
10, 103680, Note_on_c, 0, 63, 67
10, 103680, Note_on_c, 0, 55, 56
10, 103680, Note_on_c, 0, 70, 66
10, 103680, Note_on_c, 0, 60, 56
10, 103972, Control_c, 0, 64, 127
10, 104352, Note_on_c, 0, 63, 0
10, 104360, Note_on_c, 0, 60, 0
10, 104360, Note_on_c, 0, 70, 0
10, 104452, Note_on_c, 0, 55, 0
10, 105112, Control_c, 0, 64, 0
10, 105124, Note_on_c, 0, 63, 51
10, 105124, Note_on_c, 0, 70, 62
10, 105124, Note_on_c, 0, 79, 62
10, 105124, Note_on_c, 0, 67, 62
10, 105268, Control_c, 0, 64, 127
10, 105356, Note_on_c, 0, 67, 0
10, 105364, Note_on_c, 0, 63, 0
10, 105412, Note_on_c, 0, 70, 0
10, 105600, Note_on_c, 0, 79, 0
10, 105600, Control_c, 0, 64, 0
10, 105600, Control_c, 0, 64, 0
10, 105604, Note_on_c, 0, 62, 70
10, 105604, Note_on_c, 0, 77, 79
10, 105604, Note_on_c, 0, 70, 76
10, 105616, Note_on_c, 0, 67, 47
10, 105932, Control_c, 0, 64, 127
10, 106040, Note_on_c, 0, 77, 0
10, 106048, Note_on_c, 0, 70, 0
10, 106076, Note_on_c, 0, 67, 0
10, 106120, Note_on_c, 0, 62, 0
10, 106572, Note_on_c, 0, 55, 57
10, 106572, Note_on_c, 0, 65, 57
10, 106576, Note_on_c, 0, 70, 46
10, 106576, Note_on_c, 0, 62, 42
10, 106580, Control_c, 0, 64, 0
10, 107056, Note_on_c, 0, 67, 61
10, 107096, Note_on_c, 0, 70, 0
10, 107124, Control_c, 0, 64, 127
10, 107288, Note_on_c, 0, 55, 0
10, 107316, Note_on_c, 0, 62, 0
10, 107328, Note_on_c, 0, 65, 0
10, 107336, Note_on_c, 0, 67, 0
10, 107520, Control_c, 0, 64, 0
10, 107532, Note_on_c, 0, 63, 57
10, 107536, Note_on_c, 0, 68, 63
10, 107536, Note_on_c, 0, 60, 55
10, 107540, Note_on_c, 0, 51, 57
10, 107540, Control_c, 0, 64, 0
10, 108060, Control_c, 0, 64, 127
10, 108424, Note_on_c, 0, 60, 0
10, 108440, Note_on_c, 0, 63, 0
10, 108476, Note_on_c, 0, 68, 0
10, 109180, Note_on_c, 0, 51, 0
10, 109196, Note_on_c, 0, 63, 50
10, 109308, Note_on_c, 0, 68, 58
10, 109440, Note_on_c, 0, 68, 0
10, 109440, Note_on_c, 0, 63, 0
10, 109440, Control_c, 0, 64, 0
10, 109672, Note_on_c, 0, 65, 50
10, 109672, Note_on_c, 0, 93, 69
10, 109672, Note_on_c, 0, 62, 47
10, 109672, Note_on_c, 0, 89, 65
10, 109676, Note_on_c, 0, 81, 56
10, 109684, Note_on_c, 0, 58, 29
10, 109684, Note_on_c, 0, 53, 15
10, 109712, Note_on_c, 0, 89, 0
10, 109720, Note_on_c, 0, 58, 0
10, 109720, Note_on_c, 0, 93, 0
10, 109720, Note_on_c, 0, 62, 0
10, 109720, Note_on_c, 0, 53, 0
10, 109724, Note_on_c, 0, 81, 0
10, 109728, Note_on_c, 0, 65, 0
10, 109920, Note_on_c, 0, 81, 66
10, 109920, Note_on_c, 0, 65, 57
10, 109920, Note_on_c, 0, 93, 72
10, 109920, Note_on_c, 0, 89, 71
10, 109924, Note_on_c, 0, 62, 53
10, 109936, Note_on_c, 0, 53, 21
10, 109940, Note_on_c, 0, 58, 26
10, 109972, Note_on_c, 0, 89, 0
10, 109980, Note_on_c, 0, 81, 0
10, 109984, Note_on_c, 0, 93, 0
10, 109988, Note_on_c, 0, 58, 0
10, 109988, Note_on_c, 0, 53, 0
10, 109992, Note_on_c, 0, 65, 0
10, 109992, Note_on_c, 0, 62, 0
10, 110772, Note_on_c, 0, 81, 60
10, 110776, Note_on_c, 0, 89, 63
10, 110776, Note_on_c, 0, 93, 61
10, 110780, Note_on_c, 0, 53, 51
10, 110780, Note_on_c, 0, 62, 50
10, 110780, Note_on_c, 0, 65, 48
10, 110784, Note_on_c, 0, 58, 56
10, 110832, Note_on_c, 0, 89, 0
10, 110836, Note_on_c, 0, 81, 0
10, 110836, Note_on_c, 0, 93, 0
10, 110844, Note_on_c, 0, 62, 0
10, 110848, Note_on_c, 0, 53, 0
10, 110848, Note_on_c, 0, 58, 0
10, 110856, Note_on_c, 0, 65, 0
10, 110884, Note_on_c, 0, 65, 9
10, 110884, Note_on_c, 0, 81, 46
10, 110888, Note_on_c, 0, 62, 36
10, 110888, Note_on_c, 0, 89, 58
10, 110888, Note_on_c, 0, 58, 41
10, 110892, Note_on_c, 0, 53, 39
10, 110892, Note_on_c, 0, 93, 31
10, 110952, Note_on_c, 0, 89, 0
10, 110952, Note_on_c, 0, 81, 0
10, 110960, Note_on_c, 0, 62, 0
10, 110960, Note_on_c, 0, 93, 0
10, 110968, Note_on_c, 0, 53, 0
10, 110972, Note_on_c, 0, 58, 0
10, 110972, Note_on_c, 0, 65, 0
10, 111004, Note_on_c, 0, 58, 27
10, 111004, Note_on_c, 0, 65, 19
10, 111008, Note_on_c, 0, 53, 30
10, 111008, Note_on_c, 0, 62, 49
10, 111008, Note_on_c, 0, 89, 56
10, 111008, Note_on_c, 0, 81, 40
10, 111012, Note_on_c, 0, 93, 44
10, 111056, Note_on_c, 0, 65, 0
10, 111060, Note_on_c, 0, 89, 0
10, 111060, Note_on_c, 0, 93, 0
10, 111064, Note_on_c, 0, 62, 0
10, 111064, Note_on_c, 0, 81, 0
10, 111068, Note_on_c, 0, 53, 0
10, 111068, Note_on_c, 0, 58, 0
10, 111360, Note_on_c, 0, 67, 76
10, 111360, Note_on_c, 0, 60, 65
10, 111360, Note_on_c, 0, 51, 72
10, 111360, Note_on_c, 0, 58, 65
10, 111584, Control_c, 0, 64, 127
10, 112088, Note_on_c, 0, 58, 0
10, 112088, Note_on_c, 0, 67, 0
10, 112092, Note_on_c, 0, 60, 0
10, 112372, Note_on_c, 0, 51, 0
10, 113248, Control_c, 0, 64, 0
10, 113292, Note_on_c, 0, 65, 57
10, 113296, Note_on_c, 0, 70, 63
10, 113296, Note_on_c, 0, 62, 55
10, 113300, Note_on_c, 0, 53, 57
10, 113300, Control_c, 0, 64, 0
10, 113820, Control_c, 0, 64, 127
10, 114184, Note_on_c, 0, 62, 0
10, 114200, Note_on_c, 0, 65, 0
10, 114236, Note_on_c, 0, 70, 0
10, 114940, Note_on_c, 0, 53, 0
10, 114956, Note_on_c, 0, 65, 50
10, 115068, Note_on_c, 0, 70, 58
10, 115200, Note_on_c, 0, 70, 0
10, 115200, Note_on_c, 0, 65, 0
10, 115200, Control_c, 0, 64, 0
10, 115220, Note_on_c, 0, 89, 85
10, 115332, Note_on_c, 0, 84, 67
10, 115432, Note_on_c, 0, 84, 0
10, 115444, Note_on_c, 0, 87, 64
10, 115552, Note_on_c, 0, 75, 79
10, 115556, Note_on_c, 0, 60, 60
10, 115556, Note_on_c, 0, 56, 65
10, 115560, Note_on_c, 0, 63, 49
10, 115560, Note_on_c, 0, 51, 49
10, 115624, Control_c, 0, 64, 127
10, 115780, Note_on_c, 0, 89, 0
10, 115808, Note_on_c, 0, 75, 0
10, 115812, Note_on_c, 0, 87, 0
10, 116264, Note_on_c, 0, 63, 0
10, 116412, Note_on_c, 0, 77, 79
10, 116428, Control_c, 0, 64, 0
10, 116540, Note_on_c, 0, 72, 53
10, 116660, Note_on_c, 0, 75, 61
10, 116684, Note_on_c, 0, 72, 0
10, 116776, Note_on_c, 0, 63, 66
10, 116816, Control_c, 0, 64, 127
10, 116832, Note_on_c, 0, 56, 0
10, 116844, Note_on_c, 0, 60, 0
10, 116844, Note_on_c, 0, 51, 0
10, 116864, Note_on_c, 0, 63, 0
10, 116876, Note_on_c, 0, 75, 0
10, 116884, Note_on_c, 0, 77, 0
10, 117112, Control_c, 0, 64, 0
10, 117352, Note_on_c, 0, 65, 50
10, 117352, Note_on_c, 0, 91, 69
10, 117352, Note_on_c, 0, 62, 47
10, 117352, Note_on_c, 0, 89, 65
10, 117356, Note_on_c, 0, 79, 56
10, 117364, Note_on_c, 0, 58, 29
10, 117364, Note_on_c, 0, 53, 15
10, 117392, Note_on_c, 0, 89, 0
10, 117400, Note_on_c, 0, 58, 0
10, 117400, Note_on_c, 0, 91, 0
10, 117400, Note_on_c, 0, 62, 0
10, 117400, Note_on_c, 0, 53, 0
10, 117404, Note_on_c, 0, 79, 0
10, 117408, Note_on_c, 0, 65, 0
10, 117600, Note_on_c, 0, 79, 66
10, 117600, Note_on_c, 0, 65, 57
10, 117600, Note_on_c, 0, 91, 72
10, 117600, Note_on_c, 0, 89, 71
10, 117604, Note_on_c, 0, 62, 53
10, 117616, Note_on_c, 0, 53, 21
10, 117620, Note_on_c, 0, 58, 26
10, 117652, Note_on_c, 0, 89, 0
10, 117660, Note_on_c, 0, 79, 0
10, 117664, Note_on_c, 0, 91, 0
10, 117668, Note_on_c, 0, 58, 0
10, 117668, Note_on_c, 0, 53, 0
10, 117672, Note_on_c, 0, 65, 0
10, 117672, Note_on_c, 0, 62, 0
10, 118452, Note_on_c, 0, 79, 60
10, 118456, Note_on_c, 0, 89, 63
10, 118456, Note_on_c, 0, 91, 61
10, 118460, Note_on_c, 0, 53, 51
10, 118460, Note_on_c, 0, 62, 50
10, 118460, Note_on_c, 0, 65, 48
10, 118464, Note_on_c, 0, 58, 56
10, 118512, Note_on_c, 0, 89, 0
10, 118516, Note_on_c, 0, 79, 0
10, 118516, Note_on_c, 0, 91, 0
10, 118524, Note_on_c, 0, 62, 0
10, 118528, Note_on_c, 0, 53, 0
10, 118528, Note_on_c, 0, 58, 0
10, 118536, Note_on_c, 0, 65, 0
10, 118564, Note_on_c, 0, 65, 9
10, 118564, Note_on_c, 0, 79, 46
10, 118568, Note_on_c, 0, 62, 36
10, 118568, Note_on_c, 0, 89, 58
10, 118568, Note_on_c, 0, 58, 41
10, 118572, Note_on_c, 0, 53, 39
10, 118572, Note_on_c, 0, 91, 31
10, 118632, Note_on_c, 0, 89, 0
10, 118632, Note_on_c, 0, 79, 0
10, 118640, Note_on_c, 0, 62, 0
10, 118640, Note_on_c, 0, 91, 0
10, 118648, Note_on_c, 0, 53, 0
10, 118652, Note_on_c, 0, 58, 0
10, 118652, Note_on_c, 0, 65, 0
10, 118684, Note_on_c, 0, 58, 27
10, 118684, Note_on_c, 0, 65, 19
10, 118688, Note_on_c, 0, 53, 30
10, 118688, Note_on_c, 0, 62, 49
10, 118688, Note_on_c, 0, 89, 56
10, 118688, Note_on_c, 0, 79, 40
10, 118692, Note_on_c, 0, 91, 44
10, 118736, Note_on_c, 0, 65, 0
10, 118740, Note_on_c, 0, 89, 0
10, 118740, Note_on_c, 0, 91, 0
10, 118744, Note_on_c, 0, 62, 0
10, 118744, Note_on_c, 0, 79, 0
10, 118748, Note_on_c, 0, 53, 0
10, 118748, Note_on_c, 0, 58, 0
10, 119052, Note_on_c, 0, 63, 57
10, 119056, Note_on_c, 0, 70, 63
10, 119056, Note_on_c, 0, 60, 55
10, 119060, Note_on_c, 0, 51, 57
10, 119060, Control_c, 0, 64, 0
10, 119580, Control_c, 0, 64, 127
10, 119944, Note_on_c, 0, 60, 0
10, 119960, Note_on_c, 0, 63, 0
10, 119996, Note_on_c, 0, 70, 0
10, 120700, Note_on_c, 0, 51, 0
10, 120716, Note_on_c, 0, 63, 50
10, 120828, Note_on_c, 0, 70, 58
10, 120960, Note_on_c, 0, 70, 0
10, 120960, Note_on_c, 0, 63, 0
10, 120960, Control_c, 0, 64, 0
10, 120960, Control_c, 0, 64, 0
10, 120964, Note_on_c, 0, 62, 70
10, 120964, Note_on_c, 0, 77, 79
10, 120964, Note_on_c, 0, 70, 76
10, 120976, Note_on_c, 0, 67, 47
10, 121292, Control_c, 0, 64, 127
10, 121400, Note_on_c, 0, 77, 0
10, 121408, Note_on_c, 0, 70, 0
10, 121436, Note_on_c, 0, 67, 0
10, 121480, Note_on_c, 0, 62, 0
10, 121932, Note_on_c, 0, 55, 57
10, 121932, Note_on_c, 0, 65, 57
10, 121936, Note_on_c, 0, 70, 46
10, 121936, Note_on_c, 0, 62, 42
10, 121940, Control_c, 0, 64, 0
10, 122416, Note_on_c, 0, 67, 61
10, 122456, Note_on_c, 0, 70, 0
10, 122484, Control_c, 0, 64, 127
10, 122648, Note_on_c, 0, 55, 0
10, 122676, Note_on_c, 0, 62, 0
10, 122688, Note_on_c, 0, 65, 0
10, 122696, Note_on_c, 0, 67, 0
10, 122880, Control_c, 0, 64, 0
10, 122880, Control_c, 0, 64, 0
10, 122880, Note_on_c, 0, 63, 67
10, 122880, Note_on_c, 0, 53, 56
10, 122880, Note_on_c, 0, 68, 66
10, 122880, Note_on_c, 0, 60, 56
10, 123172, Control_c, 0, 64, 127
10, 123552, Note_on_c, 0, 63, 0
10, 123560, Note_on_c, 0, 60, 0
10, 123560, Note_on_c, 0, 68, 0
10, 123652, Note_on_c, 0, 53, 0
10, 124312, Control_c, 0, 64, 0
10, 124324, Note_on_c, 0, 63, 51
10, 124324, Note_on_c, 0, 68, 62
10, 124324, Note_on_c, 0, 77, 62
10, 124324, Note_on_c, 0, 65, 62
10, 124468, Control_c, 0, 64, 127
10, 124556, Note_on_c, 0, 65, 0
10, 124564, Note_on_c, 0, 63, 0
10, 124612, Note_on_c, 0, 68, 0
10, 124800, Note_on_c, 0, 77, 0
10, 124800, Control_c, 0, 64, 0
10, 124812, Note_on_c, 0, 65, 57
10, 124816, Note_on_c, 0, 70, 63
10, 124816, Note_on_c, 0, 62, 55
10, 124820, Note_on_c, 0, 53, 57
10, 124820, Control_c, 0, 64, 0
10, 125340, Control_c, 0, 64, 127
10, 125704, Note_on_c, 0, 62, 0
10, 125720, Note_on_c, 0, 65, 0
10, 125756, Note_on_c, 0, 70, 0
10, 126460, Note_on_c, 0, 53, 0
10, 126476, Note_on_c, 0, 65, 50
10, 126588, Note_on_c, 0, 70, 58
10, 126720, Note_on_c, 0, 70, 0
10, 126720, Note_on_c, 0, 65, 0
10, 126720, Control_c, 0, 64, 0
10, 126720, Control_c, 0, 64, 0
10, 126720, Note_on_c, 0, 63, 67
10, 126720, Note_on_c, 0, 55, 56
10, 126720, Note_on_c, 0, 70, 66
10, 126720, Note_on_c, 0, 60, 56
10, 127012, Control_c, 0, 64, 127
10, 127392, Note_on_c, 0, 63, 0
10, 127400, Note_on_c, 0, 60, 0
10, 127400, Note_on_c, 0, 70, 0
10, 127492, Note_on_c, 0, 55, 0
10, 128152, Control_c, 0, 64, 0
10, 128164, Note_on_c, 0, 63, 51
10, 128164, Note_on_c, 0, 70, 62
10, 128164, Note_on_c, 0, 79, 62
10, 128164, Note_on_c, 0, 67, 62
10, 128308, Control_c, 0, 64, 127
10, 128396, Note_on_c, 0, 67, 0
10, 128404, Note_on_c, 0, 63, 0
10, 128452, Note_on_c, 0, 70, 0
10, 128640, Note_on_c, 0, 79, 0
10, 128640, Control_c, 0, 64, 0
10, 128660, Note_on_c, 0, 74, 86
10, 128660, Note_on_c, 0, 65, 74
10, 128660, Note_on_c, 0, 62, 62
10, 128668, Note_on_c, 0, 58, 63
10, 129080, Control_c, 0, 64, 127
10, 129092, Note_on_c, 0, 74, 0
10, 129108, Note_on_c, 0, 62, 0
10, 129124, Note_on_c, 0, 65, 0
10, 129136, Note_on_c, 0, 58, 0
10, 129352, Control_c, 0, 64, 0
10, 129356, Note_on_c, 0, 57, 49
10, 129360, Note_on_c, 0, 70, 53
10, 129360, Note_on_c, 0, 65, 60
10, 129360, Note_on_c, 0, 62, 50
10, 129620, Control_c, 0, 64, 127
10, 129788, Note_on_c, 0, 57, 0
10, 129792, Note_on_c, 0, 70, 0
10, 129800, Note_on_c, 0, 65, 0
10, 129840, Note_on_c, 0, 62, 0
10, 130072, Control_c, 0, 64, 0
10, 130560, Note_on_c, 0, 67, 76
10, 130560, Note_on_c, 0, 60, 65
10, 130560, Note_on_c, 0, 51, 72
10, 130560, Note_on_c, 0, 56, 65
10, 130784, Control_c, 0, 64, 127
10, 131288, Note_on_c, 0, 56, 0
10, 131288, Note_on_c, 0, 67, 0
10, 131292, Note_on_c, 0, 60, 0
10, 131572, Note_on_c, 0, 51, 0
10, 132448, Control_c, 0, 64, 0
10, 132480, Note_on_c, 0, 69, 76
10, 132480, Note_on_c, 0, 62, 65
10, 132480, Note_on_c, 0, 53, 72
10, 132480, Note_on_c, 0, 58, 65
10, 132704, Control_c, 0, 64, 127
10, 133208, Note_on_c, 0, 58, 0
10, 133208, Note_on_c, 0, 69, 0
10, 133212, Note_on_c, 0, 62, 0
10, 133492, Note_on_c, 0, 53, 0
10, 134368, Control_c, 0, 64, 0
10, 134400, Control_c, 0, 64, 0
10, 134412, Note_on_c, 0, 67, 85
10, 134416, Note_on_c, 0, 63, 77
10, 134416, Note_on_c, 0, 75, 85
10, 134416, Note_on_c, 0, 60, 71
10, 134644, Note_on_c, 0, 75, 0
10, 134648, Note_on_c, 0, 63, 0
10, 134652, Note_on_c, 0, 67, 0
10, 134668, Note_on_c, 0, 60, 0
10, 134756, Note_on_c, 0, 67, 65
10, 134756, Note_on_c, 0, 60, 65
10, 134764, Note_on_c, 0, 72, 74
10, 134764, Note_on_c, 0, 63, 75
10, 134816, Note_on_c, 0, 60, 0
10, 134816, Note_on_c, 0, 67, 0
10, 134820, Note_on_c, 0, 72, 0
10, 134832, Note_on_c, 0, 63, 0
10, 136344, Note_on_c, 0, 75, 106
10, 136344, Note_on_c, 0, 72, 87
10, 136344, Note_on_c, 0, 63, 94
10, 136456, Note_on_c, 0, 79, 74
10, 136488, Note_on_c, 0, 72, 0
10, 136488, Note_on_c, 0, 75, 0
10, 136504, Note_on_c, 0, 63, 0
10, 136564, Note_on_c, 0, 79, 0
10, 136580, Note_on_c, 0, 75, 39
10, 136616, Note_on_c, 0, 75, 0
10, 136684, Note_on_c, 0, 75, 86
10, 136688, Note_on_c, 0, 72, 80
10, 136692, Note_on_c, 0, 63, 73
10, 136752, Note_on_c, 0, 75, 0
10, 136768, Note_on_c, 0, 72, 0
10, 136776, Note_on_c, 0, 63, 0
10, 138260, Note_on_c, 0, 55, 44
10, 138264, Note_on_c, 0, 63, 67
10, 138264, Note_on_c, 0, 72, 61
10, 138272, Note_on_c, 0, 51, 46
10, 138492, Note_on_c, 0, 63, 0
10, 138492, Note_on_c, 0, 67, 74
10, 138500, Note_on_c, 0, 51, 0
10, 138508, Note_on_c, 0, 51, 43
10, 138512, Note_on_c, 0, 55, 0
10, 138520, Note_on_c, 0, 72, 0
10, 138552, Note_on_c, 0, 51, 0
10, 138616, Note_on_c, 0, 67, 0
10, 138624, Note_on_c, 0, 63, 70
10, 138636, Note_on_c, 0, 55, 77
10, 139052, Control_c, 0, 64, 127
10, 139064, Note_on_c, 0, 55, 0
10, 139084, Note_on_c, 0, 63, 0
10, 139776, Control_c, 0, 64, 0
10, 140180, Note_on_c, 0, 91, 85
10, 140292, Note_on_c, 0, 87, 67
10, 140392, Note_on_c, 0, 87, 0
10, 140404, Note_on_c, 0, 87, 64
10, 140512, Note_on_c, 0, 75, 79
10, 140516, Note_on_c, 0, 63, 60
10, 140516, Note_on_c, 0, 60, 65
10, 140520, Note_on_c, 0, 51, 49
10, 140584, Control_c, 0, 64, 127
10, 140740, Note_on_c, 0, 91, 0
10, 140768, Note_on_c, 0, 75, 0
10, 140772, Note_on_c, 0, 87, 0
10, 141224, Note_on_c, 0, 63, 0
10, 141372, Note_on_c, 0, 79, 79
10, 141388, Control_c, 0, 64, 0
10, 141500, Note_on_c, 0, 75, 53
10, 141644, Note_on_c, 0, 75, 0
10, 141736, Note_on_c, 0, 63, 66
10, 141776, Control_c, 0, 64, 127
10, 141792, Note_on_c, 0, 60, 0
10, 141804, Note_on_c, 0, 51, 0
10, 141804, Note_on_c, 0, 63, 0
10, 141844, Note_on_c, 0, 79, 0
10, 142072, Control_c, 0, 64, 0
10, 142084, Note_on_c, 0, 70, 94
10, 142088, Note_on_c, 0, 63, 86
10, 142092, Note_on_c, 0, 60, 76
10, 142092, Note_on_c, 0, 58, 83
10, 142636, Note_on_c, 0, 63, 0
10, 142644, Note_on_c, 0, 60, 0
10, 142648, Note_on_c, 0, 58, 0
10, 142656, Note_on_c, 0, 70, 0
10, 142712, Note_on_c, 0, 67, 51
10, 142712, Note_on_c, 0, 58, 67
10, 142716, Note_on_c, 0, 60, 50
10, 142756, Note_on_c, 0, 60, 0
10, 142756, Note_on_c, 0, 58, 0
10, 142756, Note_on_c, 0, 67, 0
10, 142812, Note_on_c, 0, 58, 55
10, 142812, Note_on_c, 0, 63, 53
10, 142812, Note_on_c, 0, 60, 52
10, 142812, Note_on_c, 0, 70, 60
10, 142876, Note_on_c, 0, 70, 0
10, 142876, Note_on_c, 0, 63, 0
10, 142884, Note_on_c, 0, 60, 0
10, 142888, Note_on_c, 0, 58, 0
10, 143048, Note_on_c, 0, 67, 55
10, 143052, Note_on_c, 0, 63, 58
10, 143052, Note_on_c, 0, 60, 48
10, 143056, Note_on_c, 0, 58, 60
10, 143136, Note_on_c, 0, 60, 0
10, 143136, Note_on_c, 0, 67, 0
10, 143140, Note_on_c, 0, 63, 0
10, 143140, Note_on_c, 0, 58, 0
10, 144248, Note_on_c, 0, 60, 69
10, 144248, Note_on_c, 0, 58, 59
10, 144256, Note_on_c, 0, 51, 71
10, 144256, Note_on_c, 0, 55, 49
10, 144688, Control_c, 0, 64, 127
10, 144800, Note_on_c, 0, 58, 0
10, 144812, Note_on_c, 0, 55, 0
10, 144816, Note_on_c, 0, 51, 0
10, 144828, Note_on_c, 0, 60, 0
10, 144948, Control_c, 0, 64, 0
10, 144968, Note_on_c, 0, 58, 88
10, 144972, Note_on_c, 0, 63, 101
10, 144972, Note_on_c, 0, 51, 88
10, 144976, Note_on_c, 0, 55, 64
10, 145024, Note_on_c, 0, 58, 0
10, 145028, Note_on_c, 0, 51, 0
10, 145032, Note_on_c, 0, 63, 0
10, 145036, Note_on_c, 0, 55, 0
10, 145200, Note_on_c, 0, 60, 96
10, 145200, Note_on_c, 0, 67, 92
10, 145204, Note_on_c, 0, 58, 82
10, 145208, Note_on_c, 0, 51, 73
10, 145208, Note_on_c, 0, 55, 47
10, 145520, Note_on_c, 0, 51, 0
10, 145524, Note_on_c, 0, 55, 0
10, 145528, Note_on_c, 0, 67, 0
10, 145544, Note_on_c, 0, 60, 0
10, 145556, Note_on_c, 0, 58, 0
10, 145572, Note_on_c, 0, 51, 75
10, 145576, Note_on_c, 0, 63, 87
10, 145576, Note_on_c, 0, 55, 56
10, 145680, Note_on_c, 0, 60, 68
10, 145684, Note_on_c, 0, 63, 0
10, 145712, Control_c, 0, 64, 127
10, 145740, Note_on_c, 0, 55, 0
10, 145772, Note_on_c, 0, 60, 0
10, 145776, Note_on_c, 0, 51, 0
10, 145796, Note_on_c, 0, 58, 49
10, 145840, Note_on_c, 0, 58, 0
10, 145896, Control_c, 0, 64, 0
10, 145920, Control_c, 0, 64, 0
10, 145932, Note_on_c, 0, 67, 85
10, 145936, Note_on_c, 0, 63, 77
10, 145936, Note_on_c, 0, 75, 85
10, 145936, Note_on_c, 0, 58, 71
10, 146164, Note_on_c, 0, 75, 0
10, 146168, Note_on_c, 0, 63, 0
10, 146172, Note_on_c, 0, 67, 0
10, 146188, Note_on_c, 0, 58, 0
10, 146276, Note_on_c, 0, 67, 65
10, 146276, Note_on_c, 0, 58, 65
10, 146284, Note_on_c, 0, 70, 74
10, 146284, Note_on_c, 0, 63, 75
10, 146336, Note_on_c, 0, 58, 0
10, 146336, Note_on_c, 0, 67, 0
10, 146340, Note_on_c, 0, 70, 0
10, 146352, Note_on_c, 0, 63, 0
10, 147864, Note_on_c, 0, 75, 106
10, 147864, Note_on_c, 0, 70, 87
10, 147864, Note_on_c, 0, 63, 94
10, 147976, Note_on_c, 0, 79, 74
10, 148008, Note_on_c, 0, 70, 0
10, 148008, Note_on_c, 0, 75, 0
10, 148024, Note_on_c, 0, 63, 0
10, 148084, Note_on_c, 0, 79, 0
10, 148100, Note_on_c, 0, 75, 39
10, 148136, Note_on_c, 0, 75, 0
10, 148204, Note_on_c, 0, 75, 86
10, 148208, Note_on_c, 0, 70, 80
10, 148212, Note_on_c, 0, 63, 73
10, 148272, Note_on_c, 0, 75, 0
10, 148288, Note_on_c, 0, 70, 0
10, 148296, Note_on_c, 0, 63, 0
10, 149760, Note_on_c, 0, 70, 64
10, 150204, Control_c, 0, 64, 127
10, 150440, Note_on_c, 0, 70, 0
10, 150740, Note_on_c, 0, 63, 69
10, 150740, Note_on_c, 0, 51, 59
10, 150744, Note_on_c, 0, 60, 50
10, 150764, Control_c, 0, 64, 0
10, 151256, Control_c, 0, 64, 127
10, 151452, Note_on_c, 0, 60, 0
10, 151476, Note_on_c, 0, 63, 0
10, 151516, Note_on_c, 0, 51, 0
10, 151680, Control_c, 0, 64, 0
10, 151680, Control_c, 0, 64, 0
10, 151680, Note_on_c, 0, 65, 67
10, 151680, Note_on_c, 0, 57, 56
10, 151680, Note_on_c, 0, 70, 66
10, 151680, Note_on_c, 0, 62, 56
10, 151972, Control_c, 0, 64, 127
10, 152352, Note_on_c, 0, 65, 0
10, 152360, Note_on_c, 0, 62, 0
10, 152360, Note_on_c, 0, 70, 0
10, 152452, Note_on_c, 0, 57, 0
10, 153112, Control_c, 0, 64, 0
10, 153124, Note_on_c, 0, 65, 51
10, 153124, Note_on_c, 0, 70, 62
10, 153124, Note_on_c, 0, 81, 62
10, 153124, Note_on_c, 0, 69, 62
10, 153268, Control_c, 0, 64, 127
10, 153356, Note_on_c, 0, 69, 0
10, 153364, Note_on_c, 0, 65, 0
10, 153412, Note_on_c, 0, 70, 0
10, 153600, Note_on_c, 0, 81, 0
10, 153600, Control_c, 0, 64, 0
10, 153600, Note_on_c, 0, 65, 76
10, 153600, Note_on_c, 0, 60, 65
10, 153600, Note_on_c, 0, 51, 72
10, 153600, Note_on_c, 0, 56, 65
10, 153824, Control_c, 0, 64, 127
10, 154328, Note_on_c, 0, 56, 0
10, 154328, Note_on_c, 0, 65, 0
10, 154332, Note_on_c, 0, 60, 0
10, 154612, Note_on_c, 0, 51, 0
10, 155488, Control_c, 0, 64, 0
10, 155524, Note_on_c, 0, 62, 68
10, 155532, Note_on_c, 0, 77, 81
10, 155552, Control_c, 0, 64, 0
10, 156032, Control_c, 0, 0, 0
10, 156512, Control_c, 0, 0, 0
10, 156936, Control_c, 0, 64, 127
10, 157176, Note_on_c, 0, 77, 0
10, 157212, Note_on_c, 0, 62, 0
10, 157440, Control_c, 0, 64, 0
10, 157440, Note_on_c, 0, 67, 76
10, 157440, Note_on_c, 0, 60, 65
10, 157440, Note_on_c, 0, 51, 72
10, 157440, Note_on_c, 0, 58, 65
10, 157664, Control_c, 0, 64, 127
10, 158168, Note_on_c, 0, 58, 0
10, 158168, Note_on_c, 0, 67, 0
10, 158172, Note_on_c, 0, 60, 0
10, 158452, Note_on_c, 0, 51, 0
10, 159328, Control_c, 0, 64, 0
10, 159364, Note_on_c, 0, 62, 68
10, 159372, Note_on_c, 0, 77, 81
10, 159392, Control_c, 0, 64, 0
10, 159872, Control_c, 0, 0, 0
10, 160352, Control_c, 0, 0, 0
10, 160776, Control_c, 0, 64, 127
10, 161016, Note_on_c, 0, 77, 0
10, 161052, Note_on_c, 0, 62, 0
10, 161280, Control_c, 0, 64, 0
10, 161280, Control_c, 0, 64, 0
10, 161280, Note_on_c, 0, 63, 67
10, 161280, Note_on_c, 0, 53, 56
10, 161280, Note_on_c, 0, 68, 66
10, 161280, Note_on_c, 0, 60, 56
10, 161572, Control_c, 0, 64, 127
10, 161952, Note_on_c, 0, 63, 0
10, 161960, Note_on_c, 0, 60, 0
10, 161960, Note_on_c, 0, 68, 0
10, 162052, Note_on_c, 0, 53, 0
10, 162712, Control_c, 0, 64, 0
10, 162724, Note_on_c, 0, 63, 51
10, 162724, Note_on_c, 0, 68, 62
10, 162724, Note_on_c, 0, 79, 62
10, 162724, Note_on_c, 0, 67, 62
10, 162868, Control_c, 0, 64, 127
10, 162956, Note_on_c, 0, 67, 0
10, 162964, Note_on_c, 0, 63, 0
10, 163012, Note_on_c, 0, 68, 0
10, 163200, Note_on_c, 0, 79, 0
10, 163200, Control_c, 0, 64, 0
10, 163212, Note_on_c, 0, 65, 47
10, 163212, Note_on_c, 0, 53, 50
10, 163212, Note_on_c, 0, 58, 52
10, 163216, Note_on_c, 0, 69, 56
10, 163224, Control_c, 0, 64, 0
10, 163704, Control_c, 0, 0, 0
10, 164184, Control_c, 0, 0, 0
10, 164624, Control_c, 0, 64, 127
10, 164772, Note_on_c, 0, 65, 0
10, 164784, Note_on_c, 0, 58, 0
10, 164788, Note_on_c, 0, 69, 0
10, 164864, Note_on_c, 0, 53, 0
10, 165088, Control_c, 0, 64, 0
10, 165120, Control_c, 0, 64, 76
10, 165120, Control_c, 0, 64, 0
10, 165120, Control_c, 0, 64, 0
10, 165144, Note_on_c, 0, 75, 68
10, 165144, Note_on_c, 0, 60, 76
10, 165148, Note_on_c, 0, 70, 68
10, 165164, Note_on_c, 0, 63, 53
10, 165628, Control_c, 0, 64, 127
10, 165836, Note_on_c, 0, 75, 0
10, 165852, Note_on_c, 0, 70, 0
10, 165860, Note_on_c, 0, 63, 0
10, 165940, Note_on_c, 0, 60, 0
10, 166324, Note_on_c, 0, 63, 67
10, 166328, Note_on_c, 0, 58, 60
10, 166328, Note_on_c, 0, 60, 72
10, 166360, Control_c, 0, 64, 0
10, 166708, Note_on_c, 0, 72, 79
10, 167040, Note_on_c, 0, 72, 0
10, 167040, Note_on_c, 0, 63, 0
10, 167040, Note_on_c, 0, 58, 0
10, 167040, Note_on_c, 0, 60, 0
10, 167040, Control_c, 0, 64, 0
10, 167040, Note_on_c, 0, 65, 67
10, 167040, Note_on_c, 0, 57, 56
10, 167040, Note_on_c, 0, 70, 66
10, 167040, Note_on_c, 0, 62, 56
10, 167332, Control_c, 0, 64, 127
10, 167712, Note_on_c, 0, 65, 0
10, 167720, Note_on_c, 0, 62, 0
10, 167720, Note_on_c, 0, 70, 0
10, 167812, Note_on_c, 0, 57, 0
10, 168472, Control_c, 0, 64, 0
10, 168484, Note_on_c, 0, 65, 51
10, 168484, Note_on_c, 0, 70, 62
10, 168484, Note_on_c, 0, 81, 62
10, 168484, Note_on_c, 0, 69, 62
10, 168628, Control_c, 0, 64, 127
10, 168716, Note_on_c, 0, 69, 0
10, 168724, Note_on_c, 0, 65, 0
10, 168772, Note_on_c, 0, 70, 0
10, 168960, Note_on_c, 0, 81, 0
10, 168960, Control_c, 0, 64, 0
10, 168960, Note_on_c, 0, 68, 64
10, 169404, Control_c, 0, 64, 127
10, 169640, Note_on_c, 0, 68, 0
10, 169940, Note_on_c, 0, 63, 69
10, 169940, Note_on_c, 0, 51, 59
10, 169944, Note_on_c, 0, 60, 50
10, 169964, Control_c, 0, 64, 0
10, 170456, Control_c, 0, 64, 127
10, 170652, Note_on_c, 0, 60, 0
10, 170676, Note_on_c, 0, 63, 0
10, 170716, Note_on_c, 0, 51, 0
10, 170880, Control_c, 0, 64, 0
10, 170880, Control_c, 0, 64, 0
10, 170904, Note_on_c, 0, 77, 68
10, 170904, Note_on_c, 0, 62, 76
10, 170908, Note_on_c, 0, 70, 68
10, 170924, Note_on_c, 0, 65, 53
10, 171388, Control_c, 0, 64, 127
10, 171596, Note_on_c, 0, 77, 0
10, 171612, Note_on_c, 0, 70, 0
10, 171620, Note_on_c, 0, 65, 0
10, 171700, Note_on_c, 0, 62, 0
10, 172084, Note_on_c, 0, 65, 67
10, 172088, Note_on_c, 0, 58, 60
10, 172088, Note_on_c, 0, 62, 72
10, 172120, Control_c, 0, 64, 0
10, 172468, Note_on_c, 0, 74, 79
10, 172800, Note_on_c, 0, 74, 0
10, 172800, Note_on_c, 0, 65, 0
10, 172800, Note_on_c, 0, 58, 0
10, 172800, Note_on_c, 0, 62, 0
10, 172812, Note_on_c, 0, 63, 57
10, 172816, Note_on_c, 0, 70, 63
10, 172816, Note_on_c, 0, 60, 55
10, 172820, Note_on_c, 0, 51, 57
10, 172820, Control_c, 0, 64, 0
10, 173340, Control_c, 0, 64, 127
10, 173704, Note_on_c, 0, 60, 0
10, 173720, Note_on_c, 0, 63, 0
10, 173756, Note_on_c, 0, 70, 0
10, 174460, Note_on_c, 0, 51, 0
10, 174476, Note_on_c, 0, 63, 50
10, 174588, Note_on_c, 0, 70, 58
10, 174720, Note_on_c, 0, 70, 0
10, 174720, Note_on_c, 0, 63, 0
10, 174720, Control_c, 0, 64, 0
10, 174740, Note_on_c, 0, 74, 86
10, 174740, Note_on_c, 0, 65, 74
10, 174740, Note_on_c, 0, 62, 62
10, 174748, Note_on_c, 0, 58, 63
10, 175160, Control_c, 0, 64, 127
10, 175172, Note_on_c, 0, 74, 0
10, 175188, Note_on_c, 0, 62, 0
10, 175204, Note_on_c, 0, 65, 0
10, 175216, Note_on_c, 0, 58, 0
10, 175432, Control_c, 0, 64, 0
10, 175436, Note_on_c, 0, 57, 49
10, 175440, Note_on_c, 0, 70, 53
10, 175440, Note_on_c, 0, 65, 60
10, 175440, Note_on_c, 0, 62, 50
10, 175700, Control_c, 0, 64, 127
10, 175868, Note_on_c, 0, 57, 0
10, 175872, Note_on_c, 0, 70, 0
10, 175880, Note_on_c, 0, 65, 0
10, 175920, Note_on_c, 0, 62, 0
10, 176152, Control_c, 0, 64, 0
10, 176640, Note_on_c, 0, 65, 76
10, 176640, Note_on_c, 0, 60, 65
10, 176640, Note_on_c, 0, 51, 72
10, 176640, Note_on_c, 0, 56, 65
10, 176864, Control_c, 0, 64, 127
10, 177368, Note_on_c, 0, 56, 0
10, 177368, Note_on_c, 0, 65, 0
10, 177372, Note_on_c, 0, 60, 0
10, 177652, Note_on_c, 0, 51, 0
10, 178528, Control_c, 0, 64, 0
10, 178916, Note_on_c, 0, 58, 44
10, 178916, Note_on_c, 0, 81, 76
10, 178920, Note_on_c, 0, 65, 58
10, 178924, Note_on_c, 0, 70, 57
10, 178928, Note_on_c, 0, 77, 67
10, 178980, Note_on_c, 0, 58, 0
10, 178988, Note_on_c, 0, 70, 0
10, 179004, Note_on_c, 0, 65, 0
10, 179008, Note_on_c, 0, 81, 0
10, 179020, Note_on_c, 0, 77, 0
10, 179052, Note_on_c, 0, 70, 46
10, 179052, Note_on_c, 0, 77, 48
10, 179056, Note_on_c, 0, 69, 30
10, 179060, Note_on_c, 0, 58, 28
10, 179064, Note_on_c, 0, 65, 42
10, 179116, Note_on_c, 0, 58, 0
10, 179116, Note_on_c, 0, 70, 0
10, 179120, Note_on_c, 0, 65, 0
10, 179128, Note_on_c, 0, 69, 0
10, 179128, Note_on_c, 0, 77, 0
10, 179880, Note_on_c, 0, 69, 63
10, 179880, Note_on_c, 0, 65, 56
10, 179880, Note_on_c, 0, 58, 54
10, 179884, Note_on_c, 0, 70, 68
10, 179888, Note_on_c, 0, 53, 42
10, 179932, Note_on_c, 0, 65, 0
10, 179956, Note_on_c, 0, 53, 0
10, 179964, Note_on_c, 0, 69, 0
10, 179980, Note_on_c, 0, 70, 0
10, 179996, Note_on_c, 0, 58, 0
10, 180000, Note_on_c, 0, 57, 47
10, 180004, Note_on_c, 0, 58, 42
10, 180004, Note_on_c, 0, 65, 48
10, 180008, Note_on_c, 0, 70, 41
10, 180012, Note_on_c, 0, 77, 47
10, 180076, Note_on_c, 0, 58, 0
10, 180080, Note_on_c, 0, 57, 0
10, 180080, Note_on_c, 0, 65, 0
10, 180084, Note_on_c, 0, 70, 0
10, 180096, Note_on_c, 0, 77, 0
10, 180252, Note_on_c, 0, 69, 29
10, 180252, Note_on_c, 0, 58, 27
10, 180256, Note_on_c, 0, 65, 38
10, 180256, Note_on_c, 0, 70, 45
10, 180276, Note_on_c, 0, 53, 5
10, 180304, Note_on_c, 0, 69, 0
10, 180316, Note_on_c, 0, 70, 0
10, 180316, Note_on_c, 0, 58, 0
10, 180316, Note_on_c, 0, 53, 0
10, 180320, Note_on_c, 0, 65, 0
10, 180480, Note_on_c, 0, 70, 64
10, 180924, Control_c, 0, 64, 127
10, 181160, Note_on_c, 0, 70, 0
10, 181460, Note_on_c, 0, 63, 69
10, 181460, Note_on_c, 0, 51, 59
10, 181464, Note_on_c, 0, 60, 50
10, 181484, Control_c, 0, 64, 0
10, 181976, Control_c, 0, 64, 127
10, 182172, Note_on_c, 0, 60, 0
10, 182196, Note_on_c, 0, 63, 0
10, 182236, Note_on_c, 0, 51, 0
10, 182400, Control_c, 0, 64, 0
10, 182412, Note_on_c, 0, 65, 57
10, 182416, Note_on_c, 0, 70, 63
10, 182416, Note_on_c, 0, 62, 55
10, 182420, Note_on_c, 0, 53, 57
10, 182420, Control_c, 0, 64, 0
10, 182940, Control_c, 0, 64, 127
10, 183304, Note_on_c, 0, 62, 0
10, 183320, Note_on_c, 0, 65, 0
10, 183356, Note_on_c, 0, 70, 0
10, 184060, Note_on_c, 0, 53, 0
10, 184076, Note_on_c, 0, 65, 50
10, 184188, Note_on_c, 0, 70, 58
10, 184320, Note_on_c, 0, 70, 0
10, 184320, Note_on_c, 0, 65, 0
10, 184320, Control_c, 0, 64, 0
10, 184340, Note_on_c, 0, 89, 85
10, 184452, Note_on_c, 0, 84, 67
10, 184552, Note_on_c, 0, 84, 0
10, 184564, Note_on_c, 0, 87, 64
10, 184672, Note_on_c, 0, 75, 79
10, 184676, Note_on_c, 0, 60, 60
10, 184676, Note_on_c, 0, 56, 65
10, 184680, Note_on_c, 0, 63, 49
10, 184680, Note_on_c, 0, 51, 49
10, 184744, Control_c, 0, 64, 127
10, 184900, Note_on_c, 0, 89, 0
10, 184928, Note_on_c, 0, 75, 0
10, 184932, Note_on_c, 0, 87, 0
10, 185384, Note_on_c, 0, 63, 0
10, 185532, Note_on_c, 0, 77, 79
10, 185548, Control_c, 0, 64, 0
10, 185660, Note_on_c, 0, 72, 53
10, 185780, Note_on_c, 0, 75, 61
10, 185804, Note_on_c, 0, 72, 0
10, 185896, Note_on_c, 0, 63, 66
10, 185936, Control_c, 0, 64, 127
10, 185952, Note_on_c, 0, 56, 0
10, 185964, Note_on_c, 0, 60, 0
10, 185964, Note_on_c, 0, 51, 0
10, 185984, Note_on_c, 0, 63, 0
10, 185996, Note_on_c, 0, 75, 0
10, 186004, Note_on_c, 0, 77, 0
10, 186232, Control_c, 0, 64, 0
10, 186472, Note_on_c, 0, 65, 50
10, 186472, Note_on_c, 0, 93, 69
10, 186472, Note_on_c, 0, 62, 47
10, 186472, Note_on_c, 0, 89, 65
10, 186476, Note_on_c, 0, 81, 56
10, 186484, Note_on_c, 0, 58, 29
10, 186484, Note_on_c, 0, 53, 15
10, 186512, Note_on_c, 0, 89, 0
10, 186520, Note_on_c, 0, 58, 0
10, 186520, Note_on_c, 0, 93, 0
10, 186520, Note_on_c, 0, 62, 0
10, 186520, Note_on_c, 0, 53, 0
10, 186524, Note_on_c, 0, 81, 0
10, 186528, Note_on_c, 0, 65, 0
10, 186720, Note_on_c, 0, 81, 66
10, 186720, Note_on_c, 0, 65, 57
10, 186720, Note_on_c, 0, 93, 72
10, 186720, Note_on_c, 0, 89, 71
10, 186724, Note_on_c, 0, 62, 53
10, 186736, Note_on_c, 0, 53, 21
10, 186740, Note_on_c, 0, 58, 26
10, 186772, Note_on_c, 0, 89, 0
10, 186780, Note_on_c, 0, 81, 0
10, 186784, Note_on_c, 0, 93, 0
10, 186788, Note_on_c, 0, 58, 0
10, 186788, Note_on_c, 0, 53, 0
10, 186792, Note_on_c, 0, 65, 0
10, 186792, Note_on_c, 0, 62, 0
10, 187572, Note_on_c, 0, 81, 60
10, 187576, Note_on_c, 0, 89, 63
10, 187576, Note_on_c, 0, 93, 61
10, 187580, Note_on_c, 0, 53, 51
10, 187580, Note_on_c, 0, 62, 50
10, 187580, Note_on_c, 0, 65, 48
10, 187584, Note_on_c, 0, 58, 56
10, 187632, Note_on_c, 0, 89, 0
10, 187636, Note_on_c, 0, 81, 0
10, 187636, Note_on_c, 0, 93, 0
10, 187644, Note_on_c, 0, 62, 0
10, 187648, Note_on_c, 0, 53, 0
10, 187648, Note_on_c, 0, 58, 0
10, 187656, Note_on_c, 0, 65, 0
10, 187684, Note_on_c, 0, 65, 9
10, 187684, Note_on_c, 0, 81, 46
10, 187688, Note_on_c, 0, 62, 36
10, 187688, Note_on_c, 0, 89, 58
10, 187688, Note_on_c, 0, 58, 41
10, 187692, Note_on_c, 0, 53, 39
10, 187692, Note_on_c, 0, 93, 31
10, 187752, Note_on_c, 0, 89, 0
10, 187752, Note_on_c, 0, 81, 0
10, 187760, Note_on_c, 0, 62, 0
10, 187760, Note_on_c, 0, 93, 0
10, 187768, Note_on_c, 0, 53, 0
10, 187772, Note_on_c, 0, 58, 0
10, 187772, Note_on_c, 0, 65, 0
10, 187804, Note_on_c, 0, 58, 27
10, 187804, Note_on_c, 0, 65, 19
10, 187808, Note_on_c, 0, 53, 30
10, 187808, Note_on_c, 0, 62, 49
10, 187808, Note_on_c, 0, 89, 56
10, 187808, Note_on_c, 0, 81, 40
10, 187812, Note_on_c, 0, 93, 44
10, 187856, Note_on_c, 0, 65, 0
10, 187860, Note_on_c, 0, 89, 0
10, 187860, Note_on_c, 0, 93, 0
10, 187864, Note_on_c, 0, 62, 0
10, 187864, Note_on_c, 0, 81, 0
10, 187868, Note_on_c, 0, 53, 0
10, 187868, Note_on_c, 0, 58, 0
10, 188160, Control_c, 0, 64, 0
10, 188160, Note_on_c, 0, 63, 67
10, 188160, Note_on_c, 0, 55, 56
10, 188160, Note_on_c, 0, 70, 66
10, 188160, Note_on_c, 0, 62, 56
10, 188452, Control_c, 0, 64, 127
10, 188832, Note_on_c, 0, 63, 0
10, 188840, Note_on_c, 0, 62, 0
10, 188840, Note_on_c, 0, 70, 0
10, 188932, Note_on_c, 0, 55, 0
10, 189592, Control_c, 0, 64, 0
10, 189604, Note_on_c, 0, 63, 51
10, 189604, Note_on_c, 0, 70, 62
10, 189604, Note_on_c, 0, 79, 62
10, 189604, Note_on_c, 0, 67, 62
10, 189748, Control_c, 0, 64, 127
10, 189836, Note_on_c, 0, 67, 0
10, 189844, Note_on_c, 0, 63, 0
10, 189892, Note_on_c, 0, 70, 0
10, 190080, Note_on_c, 0, 79, 0
10, 190080, Control_c, 0, 64, 0
10, 190092, Note_on_c, 0, 65, 47
10, 190092, Note_on_c, 0, 53, 50
10, 190092, Note_on_c, 0, 58, 52
10, 190096, Note_on_c, 0, 69, 56
10, 190104, Control_c, 0, 64, 0
10, 190584, Control_c, 0, 0, 0
10, 191064, Control_c, 0, 0, 0
10, 191504, Control_c, 0, 64, 127
10, 191652, Note_on_c, 0, 65, 0
10, 191664, Note_on_c, 0, 58, 0
10, 191668, Note_on_c, 0, 69, 0
10, 191744, Note_on_c, 0, 53, 0
10, 191968, Control_c, 0, 64, 0
10, 192000, Control_c, 0, 64, 76
10, 192000, Control_c, 0, 64, 0
10, 192012, Note_on_c, 0, 63, 47
10, 192012, Note_on_c, 0, 51, 50
10, 192012, Note_on_c, 0, 56, 52
10, 192016, Note_on_c, 0, 65, 56
10, 192024, Control_c, 0, 64, 0
10, 192504, Control_c, 0, 0, 0
10, 192984, Control_c, 0, 0, 0
10, 193424, Control_c, 0, 64, 127
10, 193572, Note_on_c, 0, 63, 0
10, 193584, Note_on_c, 0, 56, 0
10, 193588, Note_on_c, 0, 65, 0
10, 193664, Note_on_c, 0, 51, 0
10, 193888, Control_c, 0, 64, 0
10, 193920, Control_c, 0, 64, 76
10, 193920, Control_c, 0, 64, 0
10, 193920, Control_c, 0, 64, 0
10, 193924, Note_on_c, 0, 62, 70
10, 193924, Note_on_c, 0, 77, 79
10, 193924, Note_on_c, 0, 70, 76
10, 193936, Note_on_c, 0, 69, 47
10, 194252, Control_c, 0, 64, 127
10, 194360, Note_on_c, 0, 77, 0
10, 194368, Note_on_c, 0, 70, 0
10, 194396, Note_on_c, 0, 69, 0
10, 194440, Note_on_c, 0, 62, 0
10, 194892, Note_on_c, 0, 57, 57
10, 194892, Note_on_c, 0, 65, 57
10, 194896, Note_on_c, 0, 70, 46
10, 194896, Note_on_c, 0, 62, 42
10, 194900, Control_c, 0, 64, 0
10, 195376, Note_on_c, 0, 69, 61
10, 195416, Note_on_c, 0, 70, 0
10, 195444, Control_c, 0, 64, 127
10, 195608, Note_on_c, 0, 57, 0
10, 195636, Note_on_c, 0, 62, 0
10, 195648, Note_on_c, 0, 65, 0
10, 195656, Note_on_c, 0, 69, 0
10, 195840, Control_c, 0, 64, 0
10, 195840, Note_on_c, 0, 67, 76
10, 195840, Note_on_c, 0, 62, 65
10, 195840, Note_on_c, 0, 51, 72
10, 195840, Note_on_c, 0, 58, 65
10, 196064, Control_c, 0, 64, 127
10, 196568, Note_on_c, 0, 58, 0
10, 196568, Note_on_c, 0, 67, 0
10, 196572, Note_on_c, 0, 62, 0
10, 196852, Note_on_c, 0, 51, 0
10, 197728, Control_c, 0, 64, 0
10, 197772, Note_on_c, 0, 65, 47
10, 197772, Note_on_c, 0, 53, 50
10, 197772, Note_on_c, 0, 58, 52
10, 197776, Note_on_c, 0, 69, 56
10, 197784, Control_c, 0, 64, 0
10, 198264, Control_c, 0, 0, 0
10, 198744, Control_c, 0, 0, 0
10, 199184, Control_c, 0, 64, 127
10, 199332, Note_on_c, 0, 65, 0
10, 199344, Note_on_c, 0, 58, 0
10, 199348, Note_on_c, 0, 69, 0
10, 199424, Note_on_c, 0, 53, 0
10, 199648, Control_c, 0, 64, 0
10, 199680, Control_c, 0, 64, 76
10, 199680, Control_c, 0, 64, 0
10, 199680, Control_c, 0, 64, 0
10, 199704, Note_on_c, 0, 75, 68
10, 199704, Note_on_c, 0, 60, 76
10, 199708, Note_on_c, 0, 68, 68
10, 199724, Note_on_c, 0, 63, 53
10, 200188, Control_c, 0, 64, 127
10, 200396, Note_on_c, 0, 75, 0
10, 200412, Note_on_c, 0, 68, 0
10, 200420, Note_on_c, 0, 63, 0
10, 200500, Note_on_c, 0, 60, 0
10, 200884, Note_on_c, 0, 63, 67
10, 200888, Note_on_c, 0, 56, 60
10, 200888, Note_on_c, 0, 60, 72
10, 200920, Control_c, 0, 64, 0
10, 201268, Note_on_c, 0, 72, 79
10, 201600, Note_on_c, 0, 72, 0
10, 201600, Note_on_c, 0, 63, 0
10, 201600, Note_on_c, 0, 56, 0
10, 201600, Note_on_c, 0, 60, 0
10, 201612, Note_on_c, 0, 65, 47
10, 201612, Note_on_c, 0, 53, 50
10, 201612, Note_on_c, 0, 58, 52
10, 201616, Note_on_c, 0, 69, 56
10, 201624, Control_c, 0, 64, 0
10, 202104, Control_c, 0, 0, 0
10, 202584, Control_c, 0, 0, 0
10, 203024, Control_c, 0, 64, 127
10, 203172, Note_on_c, 0, 65, 0
10, 203184, Note_on_c, 0, 58, 0
10, 203188, Note_on_c, 0, 69, 0
10, 203264, Note_on_c, 0, 53, 0
10, 203488, Control_c, 0, 64, 0
10, 203520, Control_c, 0, 64, 76
10, 203520, Control_c, 0, 64, 0
10, 203532, Note_on_c, 0, 63, 57
10, 203536, Note_on_c, 0, 70, 63
10, 203536, Note_on_c, 0, 62, 55
10, 203540, Note_on_c, 0, 51, 57
10, 203540, Control_c, 0, 64, 0
10, 204060, Control_c, 0, 64, 127
10, 204424, Note_on_c, 0, 62, 0
10, 204440, Note_on_c, 0, 63, 0
10, 204476, Note_on_c, 0, 70, 0
10, 205180, Note_on_c, 0, 51, 0
10, 205196, Note_on_c, 0, 63, 50
10, 205308, Note_on_c, 0, 70, 58
10, 205440, Note_on_c, 0, 70, 0
10, 205440, Note_on_c, 0, 63, 0
10, 205440, Control_c, 0, 64, 0
10, 205460, Note_on_c, 0, 57, 44
10, 205464, Note_on_c, 0, 65, 67
10, 205464, Note_on_c, 0, 70, 61
10, 205464, Note_on_c, 0, 62, 66
10, 205472, Note_on_c, 0, 53, 46
10, 205692, Note_on_c, 0, 65, 0
10, 205692, Note_on_c, 0, 69, 74
10, 205700, Note_on_c, 0, 53, 0
10, 205708, Note_on_c, 0, 53, 43
10, 205712, Note_on_c, 0, 57, 0
10, 205720, Note_on_c, 0, 70, 0
10, 205752, Note_on_c, 0, 53, 0
10, 205816, Note_on_c, 0, 69, 0
10, 205824, Note_on_c, 0, 65, 70
10, 205836, Note_on_c, 0, 57, 77
10, 206252, Control_c, 0, 64, 127
10, 206264, Note_on_c, 0, 57, 0
10, 206284, Note_on_c, 0, 62, 0
10, 206312, Note_on_c, 0, 65, 0
10, 206976, Control_c, 0, 64, 0
10, 207360, Note_on_c, 0, 68, 64
10, 207804, Control_c, 0, 64, 127
10, 208040, Note_on_c, 0, 68, 0
10, 208340, Note_on_c, 0, 63, 69
10, 208340, Note_on_c, 0, 51, 59
10, 208344, Note_on_c, 0, 60, 50
10, 208364, Control_c, 0, 64, 0
10, 208856, Control_c, 0, 64, 127
10, 209052, Note_on_c, 0, 60, 0
10, 209076, Note_on_c, 0, 63, 0
10, 209116, Note_on_c, 0, 51, 0
10, 209280, Control_c, 0, 64, 0
10, 209280, Note_on_c, 0, 70, 64
10, 209296, Note_on_c, 0, 58, 66
10, 209296, Note_on_c, 0, 62, 57
10, 209296, Note_on_c, 0, 55, 54
10, 209476, Control_c, 0, 64, 127
10, 209572, Note_on_c, 0, 70, 0
10, 209636, Note_on_c, 0, 62, 0
10, 209644, Note_on_c, 0, 55, 0
10, 209668, Note_on_c, 0, 58, 0
10, 210252, Note_on_c, 0, 53, 75
10, 210272, Control_c, 0, 64, 0
10, 210368, Note_on_c, 0, 55, 62
10, 210612, Note_on_c, 0, 55, 0
10, 210616, Note_on_c, 0, 62, 57
10, 210700, Note_on_c, 0, 62, 0
10, 210744, Note_on_c, 0, 65, 79
10, 210764, Control_c, 0, 64, 127
10, 210772, Note_on_c, 0, 65, 0
10, 210804, Note_on_c, 0, 53, 0
10, 210856, Note_on_c, 0, 67, 51
10, 210960, Note_on_c, 0, 74, 80
10, 211076, Note_on_c, 0, 77, 88
10, 211084, Note_on_c, 0, 67, 0
10, 211092, Note_on_c, 0, 74, 0
10, 211144, Note_on_c, 0, 77, 0
10, 211200, Control_c, 0, 64, 0
10, 211200, Control_c, 0, 64, 0
10, 211212, Note_on_c, 0, 67, 85
10, 211216, Note_on_c, 0, 63, 77
10, 211216, Note_on_c, 0, 75, 85
10, 211216, Note_on_c, 0, 58, 71
10, 211444, Note_on_c, 0, 75, 0
10, 211448, Note_on_c, 0, 63, 0
10, 211452, Note_on_c, 0, 67, 0
10, 211468, Note_on_c, 0, 58, 0
10, 211556, Note_on_c, 0, 67, 65
10, 211556, Note_on_c, 0, 58, 65
10, 211564, Note_on_c, 0, 70, 74
10, 211564, Note_on_c, 0, 63, 75
10, 211616, Note_on_c, 0, 58, 0
10, 211616, Note_on_c, 0, 67, 0
10, 211620, Note_on_c, 0, 70, 0
10, 211632, Note_on_c, 0, 63, 0
10, 213144, Note_on_c, 0, 75, 106
10, 213144, Note_on_c, 0, 70, 87
10, 213144, Note_on_c, 0, 63, 94
10, 213256, Note_on_c, 0, 79, 74
10, 213288, Note_on_c, 0, 70, 0
10, 213288, Note_on_c, 0, 75, 0
10, 213304, Note_on_c, 0, 63, 0
10, 213364, Note_on_c, 0, 79, 0
10, 213380, Note_on_c, 0, 75, 39
10, 213416, Note_on_c, 0, 75, 0
10, 213484, Note_on_c, 0, 75, 86
10, 213488, Note_on_c, 0, 70, 80
10, 213492, Note_on_c, 0, 63, 73
10, 213552, Note_on_c, 0, 75, 0
10, 213568, Note_on_c, 0, 70, 0
10, 213576, Note_on_c, 0, 63, 0
10, 215052, Note_on_c, 0, 63, 57
10, 215056, Note_on_c, 0, 70, 63
10, 215056, Note_on_c, 0, 62, 55
10, 215060, Note_on_c, 0, 51, 57
10, 215060, Control_c, 0, 64, 0
10, 215580, Control_c, 0, 64, 127
10, 215944, Note_on_c, 0, 62, 0
10, 215960, Note_on_c, 0, 63, 0
10, 215996, Note_on_c, 0, 70, 0
10, 216700, Note_on_c, 0, 51, 0
10, 216716, Note_on_c, 0, 63, 50
10, 216828, Note_on_c, 0, 70, 58
10, 216960, Note_on_c, 0, 70, 0
10, 216960, Note_on_c, 0, 63, 0
10, 216960, Control_c, 0, 64, 0
10, 216964, Note_on_c, 0, 60, 64
10, 216964, Note_on_c, 0, 58, 71
10, 216964, Note_on_c, 0, 70, 79
10, 217108, Control_c, 0, 64, 127
10, 217184, Note_on_c, 0, 70, 0
10, 217216, Note_on_c, 0, 60, 0
10, 217220, Note_on_c, 0, 58, 0
10, 217452, Note_on_c, 0, 70, 75
10, 217508, Control_c, 0, 64, 0
10, 217572, Note_on_c, 0, 67, 51
10, 217680, Note_on_c, 0, 63, 71
10, 217680, Note_on_c, 0, 58, 52
10, 217684, Note_on_c, 0, 51, 60
10, 217688, Note_on_c, 0, 60, 66
10, 217988, Control_c, 0, 64, 127
10, 218136, Note_on_c, 0, 60, 0
10, 218140, Note_on_c, 0, 63, 0
10, 218156, Note_on_c, 0, 67, 0
10, 218164, Note_on_c, 0, 70, 0
10, 218384, Control_c, 0, 64, 0
10, 218396, Note_on_c, 0, 63, 87
10, 218620, Note_on_c, 0, 63, 0
10, 218632, Note_on_c, 0, 67, 64
10, 218672, Control_c, 0, 64, 127
10, 218724, Note_on_c, 0, 51, 0
10, 218736, Note_on_c, 0, 58, 0
10, 218752, Note_on_c, 0, 67, 0
10, 218756, Note_on_c, 0, 70, 71
10, 218796, Note_on_c, 0, 70, 0
10, 218876, Control_c, 0, 64, 0
10, 218884, Note_on_c, 0, 63, 71
10, 218884, Note_on_c, 0, 67, 66
10, 218888, Note_on_c, 0, 58, 60
10, 218892, Note_on_c, 0, 51, 60
10, 218948, Note_on_c, 0, 63, 0
10, 218952, Note_on_c, 0, 67, 0
10, 218956, Note_on_c, 0, 51, 0
10, 218960, Note_on_c, 0, 58, 0
10, 219244, Note_on_c, 0, 63, 67
10, 219248, Note_on_c, 0, 60, 69
10, 219248, Note_on_c, 0, 67, 65
10, 219248, Note_on_c, 0, 58, 51
10, 219256, Note_on_c, 0, 51, 51
10, 219300, Note_on_c, 0, 63, 0
10, 219304, Note_on_c, 0, 58, 0
10, 219304, Note_on_c, 0, 51, 0
10, 219304, Note_on_c, 0, 67, 0
10, 219308, Note_on_c, 0, 60, 0
10, 219616, Note_on_c, 0, 63, 68
10, 219616, Note_on_c, 0, 67, 64
10, 219616, Note_on_c, 0, 58, 49
10, 219616, Note_on_c, 0, 60, 61
10, 219620, Note_on_c, 0, 51, 52
10, 220196, Control_c, 0, 64, 127
10, 220520, Note_on_c, 0, 60, 0
10, 220524, Note_on_c, 0, 67, 0
10, 220528, Note_on_c, 0, 63, 0
10, 220540, Note_on_c, 0, 58, 0
10, 220540, Control_c, 0, 64, 0
10, 220552, Note_on_c, 0, 51, 0
10, 220552, End_track
11, 0, Start_track
11, 0, Title_t, "voice 1"
11, 0, Program_c, 3, 75
11, 0, Control_c, 3, 7, 97
11, 0, Control_c, 3, 10, 41
11, 0, Control_c, 3, 91, 100
11, 0, Control_c, 3, 93, 33
11, 0, Control_c, 3, 123, 0
11, 18600, Note_on_c, 3, 67, 94
11, 18720, Note_on_c, 3, 77, 104
11, 18740, Note_on_c, 3, 67, 0
11, 18884, Note_on_c, 3, 77, 0
11, 18900, Note_on_c, 3, 75, 104
11, 19068, Note_on_c, 3, 75, 0
11, 19080, Note_on_c, 3, 74, 104
11, 19176, Note_on_c, 3, 74, 0
11, 19200, Note_on_c, 3, 72, 94
11, 19260, Note_on_c, 3, 74, 104
11, 19288, Note_on_c, 3, 72, 0
11, 19460, Note_on_c, 3, 74, 0
11, 19500, Note_on_c, 3, 72, 104
11, 19576, Note_on_c, 3, 72, 0
11, 19620, Note_on_c, 3, 72, 94
11, 19764, Note_on_c, 3, 72, 0
11, 19800, Note_on_c, 3, 72, 104
11, 20316, Note_on_c, 3, 72, 0
11, 21960, Note_on_c, 3, 72, 86
11, 22060, Note_on_c, 3, 72, 0
11, 22080, Note_on_c, 3, 77, 115
11, 22140, Note_on_c, 3, 79, 94
11, 22168, Note_on_c, 3, 77, 0
11, 22320, Note_on_c, 3, 79, 0
11, 22320, Note_on_c, 3, 82, 104
11, 22544, Note_on_c, 3, 82, 0
11, 22560, Note_on_c, 3, 79, 94
11, 22560, Note_on_c, 3, 77, 104
11, 22604, Note_on_c, 3, 77, 0
11, 22784, Note_on_c, 3, 79, 0
11, 22800, Note_on_c, 3, 77, 115
11, 22880, Note_on_c, 3, 77, 0
11, 22920, Note_on_c, 3, 75, 104
11, 24264, Note_on_c, 3, 75, 0
11, 26280, Note_on_c, 3, 67, 79
11, 26400, Note_on_c, 3, 76, 59
11, 26400, Note_on_c, 3, 77, 94
11, 26400, Note_on_c, 3, 75, 104
11, 26416, Note_on_c, 3, 76, 0
11, 26416, Note_on_c, 3, 67, 0
11, 26436, Note_on_c, 3, 75, 0
11, 26576, Note_on_c, 3, 77, 0
11, 26580, Note_on_c, 3, 75, 115
11, 26752, Note_on_c, 3, 75, 0
11, 26760, Note_on_c, 3, 74, 104
11, 26880, Note_on_c, 3, 72, 115
11, 26900, Note_on_c, 3, 74, 0
11, 26928, Note_on_c, 3, 72, 0
11, 26940, Note_on_c, 3, 74, 94
11, 27220, Note_on_c, 3, 74, 0
11, 27240, Note_on_c, 3, 72, 104
11, 27364, Note_on_c, 3, 72, 0
11, 27480, Note_on_c, 3, 72, 94
11, 27532, Note_on_c, 3, 72, 0
11, 27600, Note_on_c, 3, 72, 94
11, 28088, Note_on_c, 3, 72, 0
11, 29760, Note_on_c, 3, 77, 104
11, 29820, Note_on_c, 3, 79, 94
11, 29836, Note_on_c, 3, 77, 0
11, 30000, Note_on_c, 3, 80, 59
11, 30000, Note_on_c, 3, 82, 104
11, 30016, Note_on_c, 3, 80, 0
11, 30020, Note_on_c, 3, 79, 0
11, 30212, Note_on_c, 3, 82, 0
11, 30240, Note_on_c, 3, 79, 104
11, 30240, Note_on_c, 3, 77, 79
11, 30292, Note_on_c, 3, 77, 0
11, 30460, Note_on_c, 3, 79, 0
11, 30480, Note_on_c, 3, 77, 104
11, 30560, Note_on_c, 3, 77, 0
11, 30600, Note_on_c, 3, 75, 94
11, 31824, Note_on_c, 3, 75, 0
11, 34560, Note_on_c, 3, 79, 104
11, 34736, Note_on_c, 3, 79, 0
11, 34800, Note_on_c, 3, 79, 86
11, 34976, Note_on_c, 3, 79, 0
11, 35040, Note_on_c, 3, 79, 104
11, 35268, Note_on_c, 3, 79, 0
11, 35280, Note_on_c, 3, 77, 86
11, 35340, Note_on_c, 3, 79, 86
11, 35344, Note_on_c, 3, 77, 0
11, 36004, Note_on_c, 3, 79, 0
11, 38400, Note_on_c, 3, 79, 115
11, 38564, Note_on_c, 3, 79, 0
11, 38640, Note_on_c, 3, 79, 86
11, 38804, Note_on_c, 3, 79, 0
11, 38880, Note_on_c, 3, 79, 115
11, 39100, Note_on_c, 3, 79, 0
11, 39120, Note_on_c, 3, 77, 86
11, 39180, Note_on_c, 3, 79, 94
11, 39188, Note_on_c, 3, 77, 0
11, 40052, Note_on_c, 3, 79, 0
11, 42000, Note_on_c, 3, 79, 94
11, 42000, Note_on_c, 3, 77, 86
11, 42048, Note_on_c, 3, 77, 0
11, 42212, Note_on_c, 3, 79, 0
11, 42240, Note_on_c, 3, 77, 79
11, 42300, Note_on_c, 3, 75, 104
11, 42336, Note_on_c, 3, 77, 0
11, 42400, Note_on_c, 3, 75, 0
11, 42480, Note_on_c, 3, 75, 73
11, 42664, Note_on_c, 3, 75, 0
11, 42720, Note_on_c, 3, 75, 94
11, 42940, Note_on_c, 3, 75, 0
11, 42960, Note_on_c, 3, 79, 86
11, 42960, Note_on_c, 3, 77, 79
11, 43024, Note_on_c, 3, 77, 0
11, 43156, Note_on_c, 3, 79, 0
11, 43200, Note_on_c, 3, 77, 86
11, 43260, Note_on_c, 3, 75, 104
11, 43296, Note_on_c, 3, 77, 0
11, 44124, Note_on_c, 3, 75, 0
11, 45600, Note_on_c, 3, 77, 104
11, 45660, Note_on_c, 3, 79, 104
11, 45668, Note_on_c, 3, 77, 0
11, 45840, Note_on_c, 3, 82, 115
11, 45844, Note_on_c, 3, 79, 0
11, 46060, Note_on_c, 3, 82, 0
11, 46080, Note_on_c, 3, 77, 94
11, 46140, Note_on_c, 3, 79, 86
11, 46144, Note_on_c, 3, 77, 0
11, 47244, Note_on_c, 3, 79, 0
11, 49440, Note_on_c, 3, 79, 115
11, 49584, Note_on_c, 3, 79, 0
11, 49620, Note_on_c, 3, 79, 86
11, 49716, Note_on_c, 3, 79, 0
11, 49800, Note_on_c, 3, 79, 94
11, 49908, Note_on_c, 3, 79, 0
11, 49920, Note_on_c, 3, 77, 86
11, 49980, Note_on_c, 3, 79, 79
11, 49992, Note_on_c, 3, 77, 0
11, 50280, Note_on_c, 3, 79, 0
11, 51240, Note_on_c, 3, 72, 63
11, 51332, Note_on_c, 3, 72, 0
11, 51360, Note_on_c, 3, 79, 104
11, 51532, Note_on_c, 3, 79, 0
11, 51600, Note_on_c, 3, 79, 104
11, 51688, Note_on_c, 3, 79, 0
11, 51720, Note_on_c, 3, 79, 86
11, 51808, Note_on_c, 3, 79, 0
11, 51840, Note_on_c, 3, 77, 104
11, 51900, Note_on_c, 3, 79, 94
11, 51908, Note_on_c, 3, 77, 0
11, 52164, Note_on_c, 3, 79, 0
11, 53160, Note_on_c, 3, 72, 68
11, 53272, Note_on_c, 3, 72, 0
11, 53280, Note_on_c, 3, 79, 86
11, 53476, Note_on_c, 3, 79, 0
11, 53520, Note_on_c, 3, 79, 86
11, 53584, Note_on_c, 3, 79, 0
11, 53640, Note_on_c, 3, 79, 86
11, 53728, Note_on_c, 3, 79, 0
11, 53760, Note_on_c, 3, 77, 104
11, 53820, Note_on_c, 3, 79, 104
11, 53832, Note_on_c, 3, 77, 0
11, 54148, Note_on_c, 3, 79, 0
11, 55140, Note_on_c, 3, 72, 86
11, 55200, Note_on_c, 3, 72, 0
11, 55200, Note_on_c, 3, 82, 104
11, 55408, Note_on_c, 3, 82, 0
11, 55440, Note_on_c, 3, 80, 94
11, 55560, Note_on_c, 3, 79, 79
11, 55568, Note_on_c, 3, 80, 0
11, 55748, Note_on_c, 3, 79, 0
11, 55800, Note_on_c, 3, 79, 68
11, 55860, Note_on_c, 3, 80, 94
11, 55888, Note_on_c, 3, 79, 0
11, 56024, Note_on_c, 3, 80, 0
11, 56100, Note_on_c, 3, 80, 86
11, 56216, Note_on_c, 3, 80, 0
11, 57000, Note_on_c, 3, 72, 34
11, 57036, Note_on_c, 3, 72, 0
11, 57120, Note_on_c, 3, 76, 63
11, 57120, Note_on_c, 3, 77, 115
11, 57136, Note_on_c, 3, 76, 0
11, 57280, Note_on_c, 3, 77, 0
11, 57300, Note_on_c, 3, 75, 94
11, 57456, Note_on_c, 3, 75, 0
11, 57480, Note_on_c, 3, 74, 86
11, 57600, Note_on_c, 3, 72, 104
11, 57604, Note_on_c, 3, 74, 0
11, 57660, Note_on_c, 3, 72, 0
11, 57660, Note_on_c, 3, 74, 94
11, 57836, Note_on_c, 3, 74, 0
11, 57840, Note_on_c, 3, 72, 94
11, 57900, Note_on_c, 3, 72, 0
11, 57960, Note_on_c, 3, 72, 94
11, 58120, Note_on_c, 3, 72, 0
11, 58200, Note_on_c, 3, 72, 94
11, 58600, Note_on_c, 3, 72, 0
11, 60480, Note_on_c, 3, 77, 104
11, 60540, Note_on_c, 3, 79, 94
11, 60556, Note_on_c, 3, 77, 0
11, 60720, Note_on_c, 3, 82, 104
11, 60736, Note_on_c, 3, 79, 0
11, 60960, Note_on_c, 3, 79, 104
11, 60960, Note_on_c, 3, 77, 86
11, 60964, Note_on_c, 3, 82, 0
11, 61004, Note_on_c, 3, 77, 0
11, 61180, Note_on_c, 3, 79, 0
11, 61200, Note_on_c, 3, 77, 115
11, 61288, Note_on_c, 3, 77, 0
11, 61320, Note_on_c, 3, 75, 104
11, 62288, Note_on_c, 3, 75, 0
11, 64680, Note_on_c, 3, 67, 79
11, 64800, Note_on_c, 3, 77, 94
11, 64800, Note_on_c, 3, 75, 94
11, 64820, Note_on_c, 3, 67, 0
11, 64860, Note_on_c, 3, 75, 0
11, 64980, Note_on_c, 3, 77, 0
11, 64980, Note_on_c, 3, 75, 104
11, 65100, Note_on_c, 3, 74, 94
11, 65124, Note_on_c, 3, 75, 0
11, 65208, Note_on_c, 3, 74, 0
11, 65280, Note_on_c, 3, 72, 127
11, 65352, Note_on_c, 3, 72, 0
11, 65400, Note_on_c, 3, 74, 94
11, 65640, Note_on_c, 3, 74, 0
11, 65640, Note_on_c, 3, 72, 104
11, 65740, Note_on_c, 3, 72, 0
11, 65760, Note_on_c, 3, 72, 94
11, 66084, Note_on_c, 3, 72, 0
11, 66120, Note_on_c, 3, 72, 79
11, 66532, Note_on_c, 3, 72, 0
11, 87720, Note_on_c, 3, 67, 94
11, 87840, Note_on_c, 3, 75, 104
11, 87876, Note_on_c, 3, 67, 0
11, 87900, Note_on_c, 3, 77, 86
11, 87908, Note_on_c, 3, 75, 0
11, 88020, Note_on_c, 3, 75, 104
11, 88072, Note_on_c, 3, 77, 0
11, 88156, Note_on_c, 3, 75, 0
11, 88200, Note_on_c, 3, 74, 94
11, 88320, Note_on_c, 3, 72, 104
11, 88324, Note_on_c, 3, 74, 0
11, 88380, Note_on_c, 3, 74, 94
11, 88384, Note_on_c, 3, 72, 0
11, 88556, Note_on_c, 3, 74, 0
11, 88560, Note_on_c, 3, 72, 104
11, 88620, Note_on_c, 3, 72, 0
11, 88680, Note_on_c, 3, 72, 94
11, 88836, Note_on_c, 3, 72, 0
11, 88920, Note_on_c, 3, 72, 86
11, 89452, Note_on_c, 3, 72, 0
11, 91080, Note_on_c, 3, 72, 79
11, 91156, Note_on_c, 3, 72, 0
11, 91200, Note_on_c, 3, 77, 104
11, 91260, Note_on_c, 3, 79, 86
11, 91280, Note_on_c, 3, 77, 0
11, 91428, Note_on_c, 3, 79, 0
11, 91440, Note_on_c, 3, 82, 104
11, 91672, Note_on_c, 3, 82, 0
11, 91680, Note_on_c, 3, 79, 104
11, 91680, Note_on_c, 3, 77, 104
11, 91728, Note_on_c, 3, 77, 0
11, 91900, Note_on_c, 3, 79, 0
11, 91920, Note_on_c, 3, 77, 94
11, 92040, Note_on_c, 3, 77, 0
11, 92040, Note_on_c, 3, 75, 104
11, 93584, Note_on_c, 3, 75, 0
11, 95400, Note_on_c, 3, 67, 86
11, 95520, Note_on_c, 3, 77, 86
11, 95520, Note_on_c, 3, 75, 104
11, 95552, Note_on_c, 3, 67, 0
11, 95584, Note_on_c, 3, 75, 0
11, 95672, Note_on_c, 3, 77, 0
11, 95700, Note_on_c, 3, 75, 115
11, 95852, Note_on_c, 3, 75, 0
11, 95880, Note_on_c, 3, 74, 104
11, 96000, Note_on_c, 3, 72, 115
11, 96020, Note_on_c, 3, 74, 0
11, 96056, Note_on_c, 3, 72, 0
11, 96120, Note_on_c, 3, 74, 94
11, 96360, Note_on_c, 3, 72, 104
11, 96380, Note_on_c, 3, 74, 0
11, 96508, Note_on_c, 3, 72, 0
11, 96600, Note_on_c, 3, 72, 94
11, 97100, Note_on_c, 3, 72, 0
11, 98880, Note_on_c, 3, 77, 104
11, 98940, Note_on_c, 3, 79, 86
11, 98956, Note_on_c, 3, 77, 0
11, 99120, Note_on_c, 3, 82, 104
11, 99132, Note_on_c, 3, 79, 0
11, 99352, Note_on_c, 3, 82, 0
11, 99360, Note_on_c, 3, 79, 94
11, 99360, Note_on_c, 3, 77, 94
11, 99424, Note_on_c, 3, 77, 0
11, 99476, Note_on_c, 3, 79, 0
11, 99600, Note_on_c, 3, 79, 73
11, 99600, Note_on_c, 3, 77, 104
11, 99660, Note_on_c, 3, 77, 0
11, 99960, Note_on_c, 3, 77, 104
11, 99972, Note_on_c, 3, 79, 0
11, 100060, Note_on_c, 3, 77, 0
11, 100080, Note_on_c, 3, 75, 94
11, 101260, Note_on_c, 3, 75, 0
11, 118560, Note_on_c, 3, 79, 104
11, 118700, Note_on_c, 3, 79, 0
11, 118740, Note_on_c, 3, 79, 86
11, 118836, Note_on_c, 3, 79, 0
11, 118920, Note_on_c, 3, 79, 79
11, 119024, Note_on_c, 3, 79, 0
11, 119040, Note_on_c, 3, 77, 104
11, 119104, Note_on_c, 3, 77, 0
11, 119160, Note_on_c, 3, 79, 94
11, 119508, Note_on_c, 3, 79, 0
11, 120360, Note_on_c, 3, 72, 86
11, 120472, Note_on_c, 3, 72, 0
11, 120480, Note_on_c, 3, 79, 104
11, 120660, Note_on_c, 3, 79, 0
11, 120720, Note_on_c, 3, 79, 73
11, 120816, Note_on_c, 3, 79, 0
11, 120840, Note_on_c, 3, 79, 73
11, 120944, Note_on_c, 3, 79, 0
11, 120960, Note_on_c, 3, 77, 94
11, 121020, Note_on_c, 3, 79, 86
11, 121044, Note_on_c, 3, 77, 0
11, 121356, Note_on_c, 3, 79, 0
11, 122280, Note_on_c, 3, 72, 79
11, 122392, Note_on_c, 3, 72, 0
11, 122400, Note_on_c, 3, 79, 104
11, 122580, Note_on_c, 3, 79, 0
11, 122640, Note_on_c, 3, 79, 86
11, 122728, Note_on_c, 3, 79, 0
11, 122760, Note_on_c, 3, 79, 79
11, 122856, Note_on_c, 3, 79, 0
11, 122880, Note_on_c, 3, 77, 104
11, 122932, Note_on_c, 3, 77, 0
11, 122940, Note_on_c, 3, 79, 86
11, 123204, Note_on_c, 3, 79, 0
11, 124200, Note_on_c, 3, 72, 79
11, 124292, Note_on_c, 3, 72, 0
11, 124320, Note_on_c, 3, 82, 115
11, 124540, Note_on_c, 3, 82, 0
11, 124560, Note_on_c, 3, 80, 104
11, 124676, Note_on_c, 3, 80, 0
11, 124680, Note_on_c, 3, 79, 104
11, 124840, Note_on_c, 3, 79, 0
11, 124920, Note_on_c, 3, 79, 86
11, 124980, Note_on_c, 3, 80, 104
11, 125020, Note_on_c, 3, 79, 0
11, 125092, Note_on_c, 3, 80, 0
11, 125160, Note_on_c, 3, 80, 94
11, 125320, Note_on_c, 3, 80, 0
11, 125760, Note_on_c, 3, 82, 127
11, 126012, Note_on_c, 3, 82, 0
11, 126240, Note_on_c, 3, 82, 94
11, 126240, Note_on_c, 3, 79, 127
11, 126360, Note_on_c, 3, 79, 0
11, 126420, Note_on_c, 3, 82, 0
11, 126420, Note_on_c, 3, 79, 86
11, 126528, Note_on_c, 3, 79, 0
11, 126600, Note_on_c, 3, 79, 104
11, 126676, Note_on_c, 3, 79, 0
11, 126720, Note_on_c, 3, 82, 84
11, 126720, Note_on_c, 3, 77, 104
11, 126780, Note_on_c, 3, 79, 86
11, 126784, Note_on_c, 3, 77, 0
11, 126900, Note_on_c, 3, 82, 0
11, 127028, Note_on_c, 3, 79, 0
11, 127200, Note_on_c, 3, 82, 74
11, 127380, Note_on_c, 3, 82, 0
11, 127680, Note_on_c, 3, 82, 64
11, 127860, Note_on_c, 3, 82, 0
11, 128040, Note_on_c, 3, 72, 63
11, 128120, Note_on_c, 3, 72, 0
11, 128160, Note_on_c, 3, 82, 54
11, 128160, Note_on_c, 3, 79, 115
11, 128336, Note_on_c, 3, 79, 0
11, 128340, Note_on_c, 3, 82, 0
11, 128400, Note_on_c, 3, 79, 86
11, 128472, Note_on_c, 3, 79, 0
11, 128520, Note_on_c, 3, 79, 73
11, 128612, Note_on_c, 3, 79, 0
11, 128640, Note_on_c, 3, 77, 104
11, 128700, Note_on_c, 3, 79, 86
11, 128716, Note_on_c, 3, 77, 0
11, 128920, Note_on_c, 3, 79, 0
11, 129960, Note_on_c, 3, 72, 79
11, 130052, Note_on_c, 3, 72, 0
11, 130080, Note_on_c, 3, 79, 94
11, 130080, Note_on_c, 3, 77, 94
11, 130136, Note_on_c, 3, 77, 0
11, 130252, Note_on_c, 3, 79, 0
11, 130320, Note_on_c, 3, 79, 79
11, 130540, Note_on_c, 3, 79, 0
11, 130560, Note_on_c, 3, 77, 115
11, 130620, Note_on_c, 3, 79, 94
11, 130640, Note_on_c, 3, 77, 0
11, 130804, Note_on_c, 3, 79, 0
11, 132000, Note_on_c, 3, 82, 104
11, 132000, Note_on_c, 3, 80, 86
11, 132036, Note_on_c, 3, 80, 0
11, 132180, Note_on_c, 3, 80, 115
11, 132204, Note_on_c, 3, 82, 0
11, 132300, Note_on_c, 3, 79, 115
11, 132312, Note_on_c, 3, 80, 0
11, 132428, Note_on_c, 3, 79, 0
11, 132480, Note_on_c, 3, 77, 94
11, 132540, Note_on_c, 3, 77, 0
11, 132540, Note_on_c, 3, 79, 86
11, 132848, Note_on_c, 3, 79, 0
11, 133440, Note_on_c, 3, 72, 86
11, 133552, Note_on_c, 3, 72, 0
11, 133560, Note_on_c, 3, 75, 59
11, 133648, Note_on_c, 3, 75, 0
11, 149160, Note_on_c, 3, 67, 79
11, 149280, Note_on_c, 3, 77, 104
11, 149284, Note_on_c, 3, 67, 0
11, 149340, Note_on_c, 3, 79, 68
11, 149380, Note_on_c, 3, 79, 0
11, 149460, Note_on_c, 3, 75, 104
11, 149488, Note_on_c, 3, 77, 0
11, 149616, Note_on_c, 3, 75, 0
11, 149640, Note_on_c, 3, 74, 94
11, 149760, Note_on_c, 3, 72, 104
11, 149804, Note_on_c, 3, 74, 0
11, 149824, Note_on_c, 3, 72, 0
11, 149880, Note_on_c, 3, 74, 94
11, 150060, Note_on_c, 3, 72, 86
11, 150072, Note_on_c, 3, 74, 0
11, 150140, Note_on_c, 3, 72, 0
11, 150180, Note_on_c, 3, 72, 94
11, 150320, Note_on_c, 3, 72, 0
11, 150360, Note_on_c, 3, 72, 94
11, 150792, Note_on_c, 3, 72, 0
11, 156840, Note_on_c, 3, 67, 104
11, 156960, Note_on_c, 3, 75, 104
11, 156964, Note_on_c, 3, 67, 0
11, 157020, Note_on_c, 3, 77, 86
11, 157024, Note_on_c, 3, 75, 0
11, 157140, Note_on_c, 3, 75, 104
11, 157180, Note_on_c, 3, 77, 0
11, 157280, Note_on_c, 3, 75, 0
11, 157320, Note_on_c, 3, 74, 104
11, 157440, Note_on_c, 3, 72, 104
11, 157444, Note_on_c, 3, 74, 0
11, 157500, Note_on_c, 3, 74, 94
11, 157500, Note_on_c, 3, 75, 23
11, 157504, Note_on_c, 3, 72, 0
11, 157548, Note_on_c, 3, 75, 0
11, 157648, Note_on_c, 3, 74, 0
11, 157680, Note_on_c, 3, 72, 104
11, 157740, Note_on_c, 3, 72, 0
11, 157800, Note_on_c, 3, 72, 94
11, 157972, Note_on_c, 3, 72, 0
11, 158040, Note_on_c, 3, 72, 86
11, 158512, Note_on_c, 3, 72, 0
11, 160320, Note_on_c, 3, 77, 104
11, 160380, Note_on_c, 3, 77, 0
11, 160380, Note_on_c, 3, 79, 104
11, 160560, Note_on_c, 3, 82, 115
11, 160580, Note_on_c, 3, 79, 0
11, 160800, Note_on_c, 3, 82, 0
11, 160800, Note_on_c, 3, 79, 115
11, 160800, Note_on_c, 3, 77, 79
11, 160852, Note_on_c, 3, 77, 0
11, 161008, Note_on_c, 3, 79, 0
11, 161040, Note_on_c, 3, 77, 104
11, 161148, Note_on_c, 3, 77, 0
11, 161160, Note_on_c, 3, 75, 104
11, 162724, Note_on_c, 3, 75, 0
11, 164520, Note_on_c, 3, 72, 79
11, 164600, Note_on_c, 3, 72, 0
11, 164640, Note_on_c, 3, 79, 104
11, 164776, Note_on_c, 3, 79, 0
11, 164820, Note_on_c, 3, 79, 86
11, 164916, Note_on_c, 3, 79, 0
11, 164940, Note_on_c, 3, 79, 79
11, 165040, Note_on_c, 3, 79, 0
11, 165120, Note_on_c, 3, 77, 104
11, 165180, Note_on_c, 3, 79, 94
11, 165192, Note_on_c, 3, 77, 0
11, 165512, Note_on_c, 3, 79, 0
11, 166440, Note_on_c, 3, 72, 86
11, 166536, Note_on_c, 3, 72, 0
11, 166560, Note_on_c, 3, 79, 115
11, 166744, Note_on_c, 3, 79, 0
11, 166800, Note_on_c, 3, 79, 86
11, 166880, Note_on_c, 3, 79, 0
11, 166920, Note_on_c, 3, 79, 79
11, 166996, Note_on_c, 3, 79, 0
11, 167040, Note_on_c, 3, 77, 104
11, 167100, Note_on_c, 3, 79, 94
11, 167108, Note_on_c, 3, 77, 0
11, 167364, Note_on_c, 3, 79, 0
11, 168360, Note_on_c, 3, 72, 73
11, 168440, Note_on_c, 3, 72, 0
11, 168480, Note_on_c, 3, 79, 79
11, 168480, Note_on_c, 3, 77, 79
11, 168540, Note_on_c, 3, 77, 0
11, 168648, Note_on_c, 3, 79, 0
11, 168720, Note_on_c, 3, 79, 86
11, 168788, Note_on_c, 3, 79, 0
11, 168840, Note_on_c, 3, 79, 79
11, 168928, Note_on_c, 3, 79, 0
11, 168960, Note_on_c, 3, 77, 104
11, 169020, Note_on_c, 3, 79, 94
11, 169044, Note_on_c, 3, 77, 0
11, 169352, Note_on_c, 3, 79, 0
11, 170520, Note_on_c, 3, 79, 68
11, 170520, Note_on_c, 3, 77, 104
11, 170576, Note_on_c, 3, 77, 0
11, 170832, Note_on_c, 3, 79, 0
11, 170880, Note_on_c, 3, 77, 68
11, 171000, Note_on_c, 3, 75, 104
11, 171028, Note_on_c, 3, 77, 0
11, 171088, Note_on_c, 3, 75, 0
11, 171120, Note_on_c, 3, 75, 104
11, 171360, Note_on_c, 3, 75, 0
11, 171480, Note_on_c, 3, 79, 104
11, 171480, Note_on_c, 3, 77, 104
11, 171528, Note_on_c, 3, 77, 0
11, 171680, Note_on_c, 3, 79, 0
11, 171840, Note_on_c, 3, 77, 104
11, 171960, Note_on_c, 3, 75, 104
11, 171972, Note_on_c, 3, 77, 0
11, 172168, Note_on_c, 3, 75, 0
11, 172200, Note_on_c, 3, 72, 73
11, 172312, Note_on_c, 3, 72, 0
11, 172320, Note_on_c, 3, 79, 115
11, 172412, Note_on_c, 3, 79, 0
11, 172440, Note_on_c, 3, 79, 94
11, 172548, Note_on_c, 3, 79, 0
11, 172620, Note_on_c, 3, 79, 86
11, 172712, Note_on_c, 3, 79, 0
11, 172800, Note_on_c, 3, 77, 104
11, 172860, Note_on_c, 3, 79, 94
11, 172872, Note_on_c, 3, 77, 0
11, 173136, Note_on_c, 3, 79, 0
11, 174120, Note_on_c, 3, 72, 68
11, 174224, Note_on_c, 3, 72, 0
11, 174240, Note_on_c, 3, 81, 94
11, 174240, Note_on_c, 3, 79, 104
11, 174260, Note_on_c, 3, 81, 0
11, 174412, Note_on_c, 3, 79, 0
11, 174480, Note_on_c, 3, 79, 94
11, 174568, Note_on_c, 3, 79, 0
11, 174600, Note_on_c, 3, 79, 79
11, 174676, Note_on_c, 3, 79, 0
11, 174720, Note_on_c, 3, 77, 115
11, 174780, Note_on_c, 3, 79, 94
11, 174796, Note_on_c, 3, 77, 0
11, 175064, Note_on_c, 3, 79, 0
11, 179280, Note_on_c, 3, 79, 115
11, 179444, Note_on_c, 3, 79, 0
11, 179520, Note_on_c, 3, 77, 104
11, 179580, Note_on_c, 3, 75, 94
11, 179632, Note_on_c, 3, 77, 0
11, 179668, Note_on_c, 3, 75, 0
11, 179760, Note_on_c, 3, 75, 94
11, 179924, Note_on_c, 3, 75, 0
11, 180000, Note_on_c, 3, 72, 115
11, 180144, Note_on_c, 3, 72, 0
11, 180240, Note_on_c, 3, 70, 94
11, 180300, Note_on_c, 3, 72, 104
11, 180316, Note_on_c, 3, 70, 0
11, 180648, Note_on_c, 3, 72, 0
11, 186960, Note_on_c, 3, 79, 94
11, 186960, Note_on_c, 3, 77, 104
11, 187016, Note_on_c, 3, 77, 0
11, 187160, Note_on_c, 3, 79, 0
11, 187200, Note_on_c, 3, 77, 94
11, 187260, Note_on_c, 3, 75, 104
11, 187300, Note_on_c, 3, 77, 0
11, 187388, Note_on_c, 3, 75, 0
11, 187440, Note_on_c, 3, 72, 104
11, 187612, Note_on_c, 3, 72, 0
11, 187680, Note_on_c, 3, 72, 104
11, 187860, Note_on_c, 3, 72, 0
11, 187920, Note_on_c, 3, 70, 104
11, 187980, Note_on_c, 3, 72, 79
11, 187980, Note_on_c, 3, 71, 41
11, 187988, Note_on_c, 3, 70, 0
11, 188052, Note_on_c, 3, 71, 0
11, 188392, Note_on_c, 3, 72, 0
11, 194640, Note_on_c, 3, 79, 94
11, 194640, Note_on_c, 3, 77, 104
11, 194684, Note_on_c, 3, 77, 0
11, 194828, Note_on_c, 3, 79, 0
11, 194880, Note_on_c, 3, 77, 86
11, 194940, Note_on_c, 3, 75, 86
11, 194968, Note_on_c, 3, 77, 0
11, 195056, Note_on_c, 3, 75, 0
11, 195120, Note_on_c, 3, 75, 51
11, 195360, Note_on_c, 3, 72, 104
11, 195368, Note_on_c, 3, 75, 0
11, 195492, Note_on_c, 3, 72, 0
11, 195600, Note_on_c, 3, 70, 94
11, 195660, Note_on_c, 3, 72, 86
11, 195668, Note_on_c, 3, 70, 0
11, 196008, Note_on_c, 3, 72, 0
11, 202320, Note_on_c, 3, 79, 63
11, 202320, Note_on_c, 3, 77, 104
11, 202380, Note_on_c, 3, 77, 0
11, 202508, Note_on_c, 3, 79, 0
11, 202560, Note_on_c, 3, 77, 94
11, 202620, Note_on_c, 3, 75, 94
11, 202688, Note_on_c, 3, 77, 0
11, 202704, Note_on_c, 3, 75, 0
11, 202800, Note_on_c, 3, 75, 104
11, 203024, Note_on_c, 3, 75, 0
11, 203040, Note_on_c, 3, 72, 104
11, 203184, Note_on_c, 3, 72, 0
11, 203280, Note_on_c, 3, 70, 94
11, 203340, Note_on_c, 3, 72, 94
11, 203344, Note_on_c, 3, 70, 0
11, 203968, Note_on_c, 3, 72, 0
11, 210000, Note_on_c, 3, 79, 68
11, 210000, Note_on_c, 3, 77, 104
11, 210060, Note_on_c, 3, 77, 0
11, 210188, Note_on_c, 3, 79, 0
11, 210240, Note_on_c, 3, 77, 86
11, 210300, Note_on_c, 3, 75, 86
11, 210348, Note_on_c, 3, 77, 0
11, 210388, Note_on_c, 3, 75, 0
11, 210480, Note_on_c, 3, 75, 104
11, 210552, Note_on_c, 3, 75, 0
11, 210600, Note_on_c, 3, 75, 59
11, 210632, Note_on_c, 3, 75, 0
11, 210720, Note_on_c, 3, 72, 115
11, 210864, Note_on_c, 3, 72, 0
11, 210960, Note_on_c, 3, 70, 104
11, 211020, Note_on_c, 3, 72, 86
11, 211048, Note_on_c, 3, 70, 0
11, 211376, Note_on_c, 3, 72, 0
11, 211376, End_track
12, 0, Start_track
12, 0, Title_t, "1"
12, 0, Program_c, 3, 75
12, 0, Control_c, 3, 7, 97
12, 0, Control_c, 3, 10, 41
12, 0, Control_c, 3, 91, 100
12, 0, Control_c, 3, 93, 33
12, 0, Control_c, 3, 123, 0
12, 18600, Note_on_c, 3, 58, 87
12, 18720, Note_on_c, 3, 74, 97
12, 18740, Note_on_c, 3, 58, 0
12, 18884, Note_on_c, 3, 74, 0
12, 22320, Note_on_c, 3, 74, 97
12, 22544, Note_on_c, 3, 74, 0
12, 22920, Note_on_c, 3, 72, 97
12, 24264, Note_on_c, 3, 72, 0
12, 26280, Note_on_c, 3, 58, 72
12, 26416, Note_on_c, 3, 58, 0
12, 30600, Note_on_c, 3, 72, 87
12, 31824, Note_on_c, 3, 72, 0
12, 34560, Note_on_c, 3, 70, 97
12, 34736, Note_on_c, 3, 70, 0
12, 34800, Note_on_c, 3, 70, 79
12, 34976, Note_on_c, 3, 70, 0
12, 35040, Note_on_c, 3, 70, 97
12, 35268, Note_on_c, 3, 70, 0
12, 38400, Note_on_c, 3, 72, 108
12, 38564, Note_on_c, 3, 72, 0
12, 42480, Note_on_c, 3, 67, 66
12, 42664, Note_on_c, 3, 67, 0
12, 42720, Note_on_c, 3, 67, 87
12, 42940, Note_on_c, 3, 67, 0
12, 45840, Note_on_c, 3, 75, 108
12, 46060, Note_on_c, 3, 75, 0
12, 49440, Note_on_c, 3, 70, 108
12, 49584, Note_on_c, 3, 70, 0
12, 49620, Note_on_c, 3, 70, 79
12, 49716, Note_on_c, 3, 70, 0
12, 51240, Note_on_c, 3, 63, 56
12, 51332, Note_on_c, 3, 63, 0
12, 51360, Note_on_c, 3, 75, 97
12, 51532, Note_on_c, 3, 75, 0
12, 53160, Note_on_c, 3, 65, 61
12, 53272, Note_on_c, 3, 65, 0
12, 55560, Note_on_c, 3, 70, 72
12, 55748, Note_on_c, 3, 70, 0
12, 60720, Note_on_c, 3, 74, 97
12, 60964, Note_on_c, 3, 74, 0
12, 61200, Note_on_c, 3, 74, 108
12, 61288, Note_on_c, 3, 74, 0
12, 61320, Note_on_c, 3, 72, 97
12, 62288, Note_on_c, 3, 72, 0
12, 64680, Note_on_c, 3, 58, 72
12, 64820, Note_on_c, 3, 58, 0
12, 65280, Note_on_c, 3, 63, 120
12, 65352, Note_on_c, 3, 63, 0
12, 65760, Note_on_c, 3, 63, 87
12, 66084, Note_on_c, 3, 63, 0
12, 66120, Note_on_c, 3, 63, 72
12, 66532, Note_on_c, 3, 63, 0
12, 88560, Note_on_c, 3, 63, 97
12, 88620, Note_on_c, 3, 63, 0
12, 88680, Note_on_c, 3, 63, 87
12, 88836, Note_on_c, 3, 63, 0
12, 88920, Note_on_c, 3, 63, 79
12, 89452, Note_on_c, 3, 63, 0
12, 91080, Note_on_c, 3, 65, 72
12, 91156, Note_on_c, 3, 65, 0
12, 91440, Note_on_c, 3, 79, 97
12, 91672, Note_on_c, 3, 79, 0
12, 91920, Note_on_c, 3, 74, 87
12, 92040, Note_on_c, 3, 74, 0
12, 92040, Note_on_c, 3, 72, 97
12, 93584, Note_on_c, 3, 72, 0
12, 95400, Note_on_c, 3, 62, 79
12, 95552, Note_on_c, 3, 62, 0
12, 96000, Note_on_c, 3, 63, 108
12, 96056, Note_on_c, 3, 63, 0
12, 96360, Note_on_c, 3, 63, 97
12, 96508, Note_on_c, 3, 63, 0
12, 96600, Note_on_c, 3, 63, 87
12, 97100, Note_on_c, 3, 63, 0
12, 99120, Note_on_c, 3, 79, 97
12, 99352, Note_on_c, 3, 79, 0
12, 99960, Note_on_c, 3, 68, 97
12, 100060, Note_on_c, 3, 68, 0
12, 100080, Note_on_c, 3, 72, 87
12, 101260, Note_on_c, 3, 72, 0
12, 118560, Note_on_c, 3, 74, 97
12, 118700, Note_on_c, 3, 74, 0
12, 118740, Note_on_c, 3, 74, 79
12, 118836, Note_on_c, 3, 74, 0
12, 119040, Note_on_c, 3, 70, 97
12, 119104, Note_on_c, 3, 70, 0
12, 119160, Note_on_c, 3, 75, 87
12, 119508, Note_on_c, 3, 75, 0
12, 120480, Note_on_c, 3, 75, 97
12, 120660, Note_on_c, 3, 75, 0
12, 122400, Note_on_c, 3, 74, 97
12, 122580, Note_on_c, 3, 74, 0
12, 124560, Note_on_c, 3, 72, 97
12, 124676, Note_on_c, 3, 72, 0
12, 124680, Note_on_c, 3, 74, 97
12, 124840, Note_on_c, 3, 74, 0
12, 125760, Note_on_c, 3, 79, 120
12, 126012, Note_on_c, 3, 79, 0
12, 127200, Note_on_c, 3, 79, 67
12, 127380, Note_on_c, 3, 79, 0
12, 127680, Note_on_c, 3, 79, 57
12, 127860, Note_on_c, 3, 79, 0
12, 130320, Note_on_c, 3, 72, 72
12, 130540, Note_on_c, 3, 72, 0
12, 133440, Note_on_c, 3, 65, 79
12, 133552, Note_on_c, 3, 65, 0
12, 149460, Note_on_c, 3, 67, 97
12, 149616, Note_on_c, 3, 67, 0
12, 150180, Note_on_c, 3, 63, 87
12, 150320, Note_on_c, 3, 63, 0
12, 150360, Note_on_c, 3, 63, 87
12, 150792, Note_on_c, 3, 63, 0
12, 157800, Note_on_c, 3, 63, 87
12, 157972, Note_on_c, 3, 63, 0
12, 158040, Note_on_c, 3, 63, 79
12, 158512, Note_on_c, 3, 63, 0
12, 160560, Note_on_c, 3, 79, 108
12, 160800, Note_on_c, 3, 79, 0
12, 161160, Note_on_c, 3, 72, 97
12, 162724, Note_on_c, 3, 72, 0
12, 164520, Note_on_c, 3, 65, 72
12, 164600, Note_on_c, 3, 65, 0
12, 164640, Note_on_c, 3, 74, 97
12, 164776, Note_on_c, 3, 74, 0
12, 164940, Note_on_c, 3, 74, 72
12, 165040, Note_on_c, 3, 74, 0
12, 166440, Note_on_c, 3, 63, 79
12, 166536, Note_on_c, 3, 63, 0
12, 166560, Note_on_c, 3, 75, 108
12, 166744, Note_on_c, 3, 75, 0
12, 166800, Note_on_c, 3, 75, 79
12, 166880, Note_on_c, 3, 75, 0
12, 168840, Note_on_c, 3, 74, 72
12, 168928, Note_on_c, 3, 74, 0
12, 170880, Note_on_c, 3, 74, 61
12, 171028, Note_on_c, 3, 74, 0
12, 172620, Note_on_c, 3, 74, 79
12, 172712, Note_on_c, 3, 74, 0
12, 174600, Note_on_c, 3, 75, 72
12, 174676, Note_on_c, 3, 75, 0
12, 179280, Note_on_c, 3, 74, 108
12, 179444, Note_on_c, 3, 74, 0
12, 180000, Note_on_c, 3, 65, 108
12, 180144, Note_on_c, 3, 65, 0
12, 187440, Note_on_c, 3, 65, 97
12, 187612, Note_on_c, 3, 65, 0
12, 187680, Note_on_c, 3, 65, 97
12, 187860, Note_on_c, 3, 65, 0
12, 195360, Note_on_c, 3, 65, 97
12, 195492, Note_on_c, 3, 65, 0
12, 203040, Note_on_c, 3, 65, 97
12, 203184, Note_on_c, 3, 65, 0
12, 210720, Note_on_c, 3, 65, 108
12, 210864, Note_on_c, 3, 65, 0
12, 210864, End_track
13, 0, Start_track
13, 0, Title_t, "1"
13, 0, Program_c, 3, 75
13, 0, Control_c, 3, 7, 97
13, 0, Control_c, 3, 10, 41
13, 0, Control_c, 3, 91, 100
13, 0, Control_c, 3, 93, 33
13, 0, Control_c, 3, 123, 0
13, 18600, Note_on_c, 3, 55, 87
13, 18720, Note_on_c, 3, 65, 97
13, 18740, Note_on_c, 3, 55, 0
13, 18884, Note_on_c, 3, 65, 0
13, 22320, Note_on_c, 3, 70, 97
13, 22544, Note_on_c, 3, 70, 0
13, 22920, Note_on_c, 3, 63, 97
13, 24264, Note_on_c, 3, 63, 0
13, 26280, Note_on_c, 3, 55, 72
13, 26416, Note_on_c, 3, 55, 0
13, 30600, Note_on_c, 3, 63, 87
13, 31824, Note_on_c, 3, 63, 0
13, 34560, Note_on_c, 3, 67, 97
13, 34736, Note_on_c, 3, 67, 0
13, 34800, Note_on_c, 3, 67, 79
13, 34976, Note_on_c, 3, 67, 0
13, 35040, Note_on_c, 3, 67, 97
13, 35268, Note_on_c, 3, 67, 0
13, 38400, Note_on_c, 3, 67, 108
13, 38564, Note_on_c, 3, 67, 0
13, 42480, Note_on_c, 3, 63, 66
13, 42664, Note_on_c, 3, 63, 0
13, 42720, Note_on_c, 3, 63, 87
13, 42940, Note_on_c, 3, 63, 0
13, 45840, Note_on_c, 3, 70, 108
13, 46060, Note_on_c, 3, 70, 0
13, 49440, Note_on_c, 3, 67, 108
13, 49584, Note_on_c, 3, 67, 0
13, 49620, Note_on_c, 3, 67, 79
13, 49716, Note_on_c, 3, 67, 0
13, 51240, Note_on_c, 3, 60, 56
13, 51332, Note_on_c, 3, 60, 0
13, 51360, Note_on_c, 3, 67, 97
13, 51532, Note_on_c, 3, 67, 0
13, 53160, Note_on_c, 3, 60, 61
13, 53272, Note_on_c, 3, 60, 0
13, 55560, Note_on_c, 3, 67, 72
13, 55748, Note_on_c, 3, 67, 0
13, 60720, Note_on_c, 3, 70, 97
13, 60964, Note_on_c, 3, 70, 0
13, 61200, Note_on_c, 3, 65, 108
13, 61288, Note_on_c, 3, 65, 0
13, 61320, Note_on_c, 3, 63, 97
13, 62288, Note_on_c, 3, 63, 0
13, 64680, Note_on_c, 3, 55, 72
13, 64820, Note_on_c, 3, 55, 0
13, 65280, Note_on_c, 3, 60, 120
13, 65352, Note_on_c, 3, 60, 0
13, 65760, Note_on_c, 3, 60, 87
13, 66084, Note_on_c, 3, 60, 0
13, 66120, Note_on_c, 3, 60, 72
13, 66532, Note_on_c, 3, 60, 0
13, 88560, Note_on_c, 3, 60, 97
13, 88620, Note_on_c, 3, 60, 0
13, 88680, Note_on_c, 3, 60, 87
13, 88836, Note_on_c, 3, 60, 0
13, 88920, Note_on_c, 3, 60, 79
13, 89452, Note_on_c, 3, 60, 0
13, 91080, Note_on_c, 3, 60, 72
13, 91156, Note_on_c, 3, 60, 0
13, 91440, Note_on_c, 3, 70, 97
13, 91672, Note_on_c, 3, 70, 0
13, 91920, Note_on_c, 3, 65, 87
13, 92040, Note_on_c, 3, 65, 0
13, 92040, Note_on_c, 3, 63, 97
13, 93584, Note_on_c, 3, 63, 0
13, 95400, Note_on_c, 3, 55, 79
13, 95552, Note_on_c, 3, 55, 0
13, 96000, Note_on_c, 3, 60, 108
13, 96056, Note_on_c, 3, 60, 0
13, 96360, Note_on_c, 3, 60, 97
13, 96508, Note_on_c, 3, 60, 0
13, 96600, Note_on_c, 3, 60, 87
13, 97100, Note_on_c, 3, 60, 0
13, 99120, Note_on_c, 3, 70, 97
13, 99352, Note_on_c, 3, 70, 0
13, 99960, Note_on_c, 3, 65, 97
13, 100060, Note_on_c, 3, 65, 0
13, 100080, Note_on_c, 3, 63, 87
13, 101260, Note_on_c, 3, 63, 0
13, 118560, Note_on_c, 3, 67, 97
13, 118700, Note_on_c, 3, 67, 0
13, 118740, Note_on_c, 3, 67, 79
13, 118836, Note_on_c, 3, 67, 0
13, 119040, Note_on_c, 3, 65, 97
13, 119104, Note_on_c, 3, 65, 0
13, 119160, Note_on_c, 3, 67, 87
13, 119508, Note_on_c, 3, 67, 0
13, 120480, Note_on_c, 3, 67, 97
13, 120660, Note_on_c, 3, 67, 0
13, 122400, Note_on_c, 3, 67, 97
13, 122580, Note_on_c, 3, 67, 0
13, 124560, Note_on_c, 3, 68, 97
13, 124676, Note_on_c, 3, 68, 0
13, 124680, Note_on_c, 3, 67, 97
13, 124840, Note_on_c, 3, 67, 0
13, 125760, Note_on_c, 3, 70, 120
13, 126012, Note_on_c, 3, 70, 0
13, 127200, Note_on_c, 3, 70, 67
13, 127380, Note_on_c, 3, 70, 0
13, 127680, Note_on_c, 3, 70, 57
13, 127860, Note_on_c, 3, 70, 0
13, 130320, Note_on_c, 3, 67, 72
13, 130540, Note_on_c, 3, 67, 0
13, 133440, Note_on_c, 3, 60, 79
13, 133552, Note_on_c, 3, 60, 0
13, 149460, Note_on_c, 3, 63, 97
13, 149616, Note_on_c, 3, 63, 0
13, 150180, Note_on_c, 3, 60, 87
13, 150320, Note_on_c, 3, 60, 0
13, 150360, Note_on_c, 3, 60, 87
13, 150792, Note_on_c, 3, 60, 0
13, 157800, Note_on_c, 3, 60, 87
13, 157972, Note_on_c, 3, 60, 0
13, 158040, Note_on_c, 3, 60, 79
13, 158512, Note_on_c, 3, 60, 0
13, 160560, Note_on_c, 3, 70, 108
13, 160800, Note_on_c, 3, 70, 0
13, 161160, Note_on_c, 3, 63, 97
13, 162724, Note_on_c, 3, 63, 0
13, 164520, Note_on_c, 3, 60, 72
13, 164600, Note_on_c, 3, 60, 0
13, 164640, Note_on_c, 3, 67, 97
13, 164776, Note_on_c, 3, 67, 0
13, 164940, Note_on_c, 3, 67, 72
13, 165040, Note_on_c, 3, 67, 0
13, 166440, Note_on_c, 3, 60, 79
13, 166536, Note_on_c, 3, 60, 0
13, 166560, Note_on_c, 3, 67, 108
13, 166744, Note_on_c, 3, 67, 0
13, 166800, Note_on_c, 3, 67, 79
13, 166880, Note_on_c, 3, 67, 0
13, 168840, Note_on_c, 3, 67, 72
13, 168928, Note_on_c, 3, 67, 0
13, 170880, Note_on_c, 3, 65, 61
13, 171028, Note_on_c, 3, 65, 0
13, 172620, Note_on_c, 3, 67, 79
13, 172712, Note_on_c, 3, 67, 0
13, 174600, Note_on_c, 3, 67, 72
13, 174676, Note_on_c, 3, 67, 0
13, 179280, Note_on_c, 3, 67, 108
13, 179444, Note_on_c, 3, 67, 0
13, 180000, Note_on_c, 3, 60, 108
13, 180144, Note_on_c, 3, 60, 0
13, 187440, Note_on_c, 3, 60, 97
13, 187612, Note_on_c, 3, 60, 0
13, 187680, Note_on_c, 3, 60, 97
13, 187860, Note_on_c, 3, 60, 0
13, 195360, Note_on_c, 3, 60, 97
13, 195492, Note_on_c, 3, 60, 0
13, 203040, Note_on_c, 3, 60, 97
13, 203184, Note_on_c, 3, 60, 0
13, 210720, Note_on_c, 3, 60, 108
13, 210864, Note_on_c, 3, 60, 0
13, 210864, End_track
14, 0, Start_track
14, 0, Title_t, "strings 2"
14, 0, Program_c, 10, 49
14, 0, Control_c, 10, 7, 52
14, 0, Control_c, 10, 10, 0
14, 0, Control_c, 10, 91, 80
14, 0, Control_c, 10, 93, 35
14, 0, Control_c, 10, 123, 0
14, 3900, Note_on_c, 10, 67, 76
14, 3900, Note_on_c, 10, 70, 69
14, 3900, Note_on_c, 10, 63, 69
14, 3900, Note_on_c, 10, 58, 75
14, 3900, Note_on_c, 10, 60, 74
14, 4428, Control_c, 10, 64, 127
14, 5356, Note_on_c, 10, 63, 0
14, 5380, Note_on_c, 10, 58, 0
14, 5388, Note_on_c, 10, 67, 0
14, 5392, Note_on_c, 10, 60, 0
14, 5396, Note_on_c, 10, 70, 0
14, 5744, Control_c, 10, 64, 0
14, 5760, Note_on_c, 10, 62, 73
14, 5760, Note_on_c, 10, 72, 78
14, 5760, Note_on_c, 10, 65, 75
14, 5760, Note_on_c, 10, 69, 73
14, 5760, Note_on_c, 10, 58, 74
14, 5780, Control_c, 10, 64, 127
14, 5792, Control_c, 10, 64, 0
14, 5796, Control_c, 10, 64, 127
14, 5800, Control_c, 10, 64, 0
14, 5980, Control_c, 10, 64, 127
14, 7244, Note_on_c, 10, 62, 0
14, 7304, Note_on_c, 10, 65, 0
14, 7312, Note_on_c, 10, 72, 0
14, 7316, Note_on_c, 10, 58, 0
14, 7324, Note_on_c, 10, 69, 0
14, 7636, Control_c, 10, 64, 0
14, 7644, Control_c, 10, 64, 0
14, 7644, Control_c, 10, 64, 127
14, 7680, Note_on_c, 10, 60, 86
14, 7680, Note_on_c, 10, 68, 79
14, 7680, Note_on_c, 10, 63, 86
14, 7680, Note_on_c, 10, 53, 73
14, 7680, Note_on_c, 10, 56, 68
14, 8144, Control_c, 10, 64, 127
14, 9280, Note_on_c, 10, 60, 0
14, 9292, Note_on_c, 10, 53, 0
14, 9308, Note_on_c, 10, 56, 0
14, 9320, Note_on_c, 10, 68, 0
14, 9328, Note_on_c, 10, 63, 0
14, 9600, Note_on_c, 10, 62, 73
14, 9600, Note_on_c, 10, 65, 73
14, 9600, Note_on_c, 10, 58, 63
14, 9600, Note_on_c, 10, 55, 59
14, 9600, Note_on_c, 10, 70, 79
14, 9616, Control_c, 10, 64, 0
14, 10084, Control_c, 10, 64, 127
14, 11224, Note_on_c, 10, 62, 0
14, 11236, Note_on_c, 10, 65, 0
14, 11240, Note_on_c, 10, 55, 0
14, 11252, Note_on_c, 10, 58, 0
14, 11268, Note_on_c, 10, 70, 0
14, 11484, Control_c, 10, 64, 0
14, 11492, Control_c, 10, 64, 127
14, 11496, Control_c, 10, 64, 0
14, 11520, Note_on_c, 10, 63, 68
14, 11520, Note_on_c, 10, 60, 79
14, 11520, Note_on_c, 10, 58, 47
14, 11520, Note_on_c, 10, 67, 86
14, 11520, Note_on_c, 10, 70, 59
14, 12040, Control_c, 10, 64, 127
14, 13016, Note_on_c, 10, 63, 0
14, 13056, Note_on_c, 10, 67, 0
14, 13068, Note_on_c, 10, 70, 0
14, 13072, Note_on_c, 10, 60, 0
14, 13084, Note_on_c, 10, 58, 0
14, 13440, Note_on_c, 10, 72, 73
14, 13440, Note_on_c, 10, 62, 79
14, 13440, Note_on_c, 10, 58, 55
14, 13440, Note_on_c, 10, 65, 59
14, 13440, Note_on_c, 10, 69, 79
14, 13456, Control_c, 10, 64, 0
14, 13948, Control_c, 10, 64, 127
14, 14956, Note_on_c, 10, 62, 0
14, 14976, Note_on_c, 10, 72, 0
14, 14992, Note_on_c, 10, 65, 0
14, 14992, Note_on_c, 10, 69, 0
14, 14996, Note_on_c, 10, 58, 0
14, 15356, Control_c, 10, 64, 0
14, 15360, Note_on_c, 10, 68, 73
14, 15360, Note_on_c, 10, 60, 68
14, 15360, Note_on_c, 10, 53, 73
14, 15360, Note_on_c, 10, 63, 79
14, 15360, Note_on_c, 10, 56, 63
14, 15860, Control_c, 10, 64, 127
14, 16940, Note_on_c, 10, 53, 0
14, 16940, Note_on_c, 10, 60, 0
14, 16952, Note_on_c, 10, 56, 0
14, 16952, Note_on_c, 10, 68, 0
14, 16968, Note_on_c, 10, 63, 0
14, 17280, Note_on_c, 10, 62, 59
14, 17280, Note_on_c, 10, 58, 44
14, 17280, Note_on_c, 10, 65, 73
14, 17280, Note_on_c, 10, 70, 73
14, 17280, Note_on_c, 10, 55, 63
14, 17300, Control_c, 10, 64, 0
14, 17780, Control_c, 10, 64, 127
14, 18844, Note_on_c, 10, 62, 0
14, 18876, Note_on_c, 10, 65, 0
14, 18892, Note_on_c, 10, 55, 0
14, 18900, Note_on_c, 10, 70, 0
14, 18908, Note_on_c, 10, 58, 0
14, 19140, Control_c, 10, 64, 0
14, 19148, Control_c, 10, 64, 127
14, 19148, Control_c, 10, 64, 0
14, 19152, Control_c, 10, 64, 127
14, 19156, Control_c, 10, 64, 0
14, 19200, Note_on_c, 10, 60, 73
14, 19200, Note_on_c, 10, 70, 79
14, 19200, Note_on_c, 10, 67, 73
14, 19200, Note_on_c, 10, 63, 79
14, 19200, Note_on_c, 10, 58, 68
14, 19692, Control_c, 10, 64, 127
14, 20472, Note_on_c, 10, 63, 0
14, 20616, Note_on_c, 10, 60, 0
14, 20640, Note_on_c, 10, 67, 0
14, 20660, Note_on_c, 10, 70, 0
14, 20676, Note_on_c, 10, 58, 0
14, 21120, Note_on_c, 10, 62, 73
14, 21120, Note_on_c, 10, 69, 68
14, 21120, Note_on_c, 10, 65, 59
14, 21120, Note_on_c, 10, 72, 73
14, 21120, Note_on_c, 10, 58, 41
14, 21132, Control_c, 10, 64, 0
14, 21596, Control_c, 10, 64, 127
14, 22564, Note_on_c, 10, 62, 0
14, 22592, Note_on_c, 10, 69, 0
14, 22596, Note_on_c, 10, 72, 0
14, 22596, Note_on_c, 10, 65, 0
14, 22604, Note_on_c, 10, 58, 0
14, 23004, Control_c, 10, 64, 0
14, 23012, Control_c, 10, 64, 127
14, 23012, Control_c, 10, 64, 0
14, 23040, Note_on_c, 10, 68, 79
14, 23040, Note_on_c, 10, 60, 79
14, 23040, Note_on_c, 10, 53, 73
14, 23040, Note_on_c, 10, 63, 94
14, 23040, Note_on_c, 10, 56, 59
14, 23556, Control_c, 10, 64, 127
14, 24536, Note_on_c, 10, 60, 0
14, 24548, Note_on_c, 10, 56, 0
14, 24552, Note_on_c, 10, 53, 0
14, 24564, Note_on_c, 10, 68, 0
14, 24576, Note_on_c, 10, 63, 0
14, 24940, Control_c, 10, 64, 0
14, 24960, Note_on_c, 10, 62, 68
14, 24960, Note_on_c, 10, 58, 47
14, 24960, Note_on_c, 10, 70, 73
14, 24960, Note_on_c, 10, 55, 73
14, 24960, Note_on_c, 10, 65, 73
14, 25420, Control_c, 10, 64, 127
14, 26576, Note_on_c, 10, 62, 0
14, 26596, Note_on_c, 10, 65, 0
14, 26624, Note_on_c, 10, 70, 0
14, 26636, Note_on_c, 10, 58, 0
14, 26652, Note_on_c, 10, 55, 0
14, 26880, Note_on_c, 10, 67, 86
14, 26880, Note_on_c, 10, 58, 51
14, 26880, Note_on_c, 10, 63, 63
14, 26880, Note_on_c, 10, 70, 55
14, 26880, Note_on_c, 10, 60, 79
14, 26920, Control_c, 10, 64, 0
14, 27344, Control_c, 10, 64, 127
14, 28356, Note_on_c, 10, 63, 0
14, 28376, Note_on_c, 10, 60, 0
14, 28376, Note_on_c, 10, 67, 0
14, 28392, Note_on_c, 10, 70, 0
14, 28404, Note_on_c, 10, 58, 0
14, 28800, Note_on_c, 10, 62, 86
14, 28800, Note_on_c, 10, 69, 68
14, 28800, Note_on_c, 10, 65, 63
14, 28800, Note_on_c, 10, 72, 73
14, 28800, Note_on_c, 10, 58, 63
14, 28824, Control_c, 10, 64, 0
14, 28828, Control_c, 10, 64, 0
14, 28828, Control_c, 10, 64, 127
14, 29200, Control_c, 10, 64, 127
14, 30292, Note_on_c, 10, 62, 0
14, 30356, Note_on_c, 10, 72, 0
14, 30356, Note_on_c, 10, 58, 0
14, 30360, Note_on_c, 10, 69, 0
14, 30376, Note_on_c, 10, 65, 0
14, 30660, Control_c, 10, 64, 0
14, 30720, Note_on_c, 10, 68, 79
14, 30720, Note_on_c, 10, 60, 68
14, 30720, Note_on_c, 10, 63, 86
14, 30720, Note_on_c, 10, 56, 55
14, 30720, Note_on_c, 10, 53, 79
14, 31228, Control_c, 10, 64, 127
14, 32292, Note_on_c, 10, 60, 0
14, 32292, Note_on_c, 10, 68, 0
14, 32308, Note_on_c, 10, 56, 0
14, 32312, Note_on_c, 10, 53, 0
14, 32328, Note_on_c, 10, 63, 0
14, 32640, Note_on_c, 10, 55, 63
14, 32640, Note_on_c, 10, 65, 79
14, 32640, Note_on_c, 10, 70, 86
14, 32640, Note_on_c, 10, 58, 63
14, 32640, Note_on_c, 10, 62, 86
14, 32656, Control_c, 10, 64, 0
14, 33100, Control_c, 10, 64, 127
14, 34212, Note_on_c, 10, 65, 0
14, 34212, Note_on_c, 10, 55, 0
14, 34216, Note_on_c, 10, 58, 0
14, 34216, Note_on_c, 10, 62, 0
14, 34244, Note_on_c, 10, 70, 0
14, 34496, Control_c, 10, 64, 0
14, 34508, Control_c, 10, 64, 127
14, 34508, Control_c, 10, 64, 0
14, 34560, Note_on_c, 10, 67, 79
14, 34560, Note_on_c, 10, 63, 79
14, 34560, Note_on_c, 10, 70, 63
14, 34560, Note_on_c, 10, 60, 79
14, 34560, Note_on_c, 10, 58, 73
14, 35072, Control_c, 10, 64, 127
14, 36044, Note_on_c, 10, 63, 0
14, 36060, Note_on_c, 10, 67, 0
14, 36064, Note_on_c, 10, 60, 0
14, 36084, Note_on_c, 10, 70, 0
14, 36088, Note_on_c, 10, 58, 0
14, 36468, Control_c, 10, 64, 0
14, 36480, Note_on_c, 10, 65, 63
14, 36480, Note_on_c, 10, 62, 73
14, 36480, Note_on_c, 10, 72, 79
14, 36480, Note_on_c, 10, 69, 79
14, 36480, Note_on_c, 10, 58, 44
14, 36808, Control_c, 10, 64, 127
14, 38076, Note_on_c, 10, 62, 0
14, 38104, Note_on_c, 10, 69, 0
14, 38104, Note_on_c, 10, 58, 0
14, 38108, Note_on_c, 10, 72, 0
14, 38112, Note_on_c, 10, 65, 0
14, 38400, Note_on_c, 10, 56, 63
14, 38400, Note_on_c, 10, 53, 86
14, 38400, Note_on_c, 10, 63, 79
14, 38400, Note_on_c, 10, 68, 73
14, 38400, Note_on_c, 10, 60, 86
14, 38440, Control_c, 10, 64, 0
14, 38888, Control_c, 10, 64, 127
14, 39900, Note_on_c, 10, 60, 0
14, 39904, Note_on_c, 10, 56, 0
14, 39904, Note_on_c, 10, 53, 0
14, 39932, Note_on_c, 10, 63, 0
14, 39936, Note_on_c, 10, 68, 0
14, 40316, Control_c, 10, 64, 0
14, 40320, Note_on_c, 10, 62, 73
14, 40320, Note_on_c, 10, 55, 73
14, 40320, Note_on_c, 10, 65, 79
14, 40320, Note_on_c, 10, 58, 55
14, 40320, Note_on_c, 10, 70, 55
14, 40784, Channel_aftertouch_c, 10, 0
14, 40796, Control_c, 10, 64, 127
14, 40848, Channel_aftertouch_c, 10, 2
14, 40976, Channel_aftertouch_c, 10, 0
14, 41824, Note_on_c, 10, 62, 0
14, 41848, Note_on_c, 10, 65, 0
14, 41876, Note_on_c, 10, 55, 0
14, 41892, Note_on_c, 10, 58, 0
14, 41896, Note_on_c, 10, 70, 0
14, 42240, Note_on_c, 10, 63, 59
14, 42240, Note_on_c, 10, 67, 79
14, 42240, Note_on_c, 10, 60, 79
14, 42240, Note_on_c, 10, 70, 59
14, 42240, Note_on_c, 10, 58, 44
14, 42240, Control_c, 10, 64, 0
14, 42732, Control_c, 10, 64, 127
14, 43684, Note_on_c, 10, 63, 0
14, 43704, Note_on_c, 10, 67, 0
14, 43708, Note_on_c, 10, 60, 0
14, 43720, Note_on_c, 10, 70, 0
14, 43764, Note_on_c, 10, 58, 0
14, 44136, Control_c, 10, 64, 0
14, 44160, Note_on_c, 10, 69, 73
14, 44160, Note_on_c, 10, 72, 73
14, 44160, Note_on_c, 10, 62, 79
14, 44160, Note_on_c, 10, 65, 68
14, 44160, Note_on_c, 10, 58, 47
14, 44648, Control_c, 10, 64, 127
14, 44680, Channel_aftertouch_c, 10, 2
14, 44712, Channel_aftertouch_c, 10, 6
14, 44832, Channel_aftertouch_c, 10, 4
14, 44876, Channel_aftertouch_c, 10, 0
14, 44888, Channel_aftertouch_c, 10, 0
14, 45088, Note_on_c, 10, 58, 0
14, 45120, Note_on_c, 10, 58, 51
14, 45724, Note_on_c, 10, 62, 0
14, 45736, Note_on_c, 10, 58, 0
14, 45752, Note_on_c, 10, 69, 0
14, 45752, Note_on_c, 10, 72, 0
14, 45772, Note_on_c, 10, 65, 0
14, 46064, Control_c, 10, 64, 0
14, 46080, Note_on_c, 10, 60, 68
14, 46080, Note_on_c, 10, 56, 59
14, 46080, Note_on_c, 10, 53, 79
14, 46080, Note_on_c, 10, 68, 59
14, 46080, Note_on_c, 10, 63, 63
14, 46556, Control_c, 10, 64, 127
14, 47708, Note_on_c, 10, 53, 0
14, 47712, Note_on_c, 10, 60, 0
14, 47712, Note_on_c, 10, 56, 0
14, 47744, Note_on_c, 10, 68, 0
14, 47748, Note_on_c, 10, 63, 0
14, 48000, Note_on_c, 10, 55, 73
14, 48000, Note_on_c, 10, 58, 44
14, 48000, Note_on_c, 10, 62, 73
14, 48000, Note_on_c, 10, 65, 79
14, 48000, Note_on_c, 10, 70, 86
14, 48012, Control_c, 10, 64, 0
14, 48476, Control_c, 10, 64, 127
14, 49548, Note_on_c, 10, 62, 0
14, 49552, Note_on_c, 10, 58, 0
14, 49556, Note_on_c, 10, 55, 0
14, 49560, Note_on_c, 10, 65, 0
14, 49592, Note_on_c, 10, 70, 0
14, 49828, Control_c, 10, 64, 0
14, 49836, Control_c, 10, 64, 127
14, 49836, Control_c, 10, 64, 0
14, 49920, Note_on_c, 10, 67, 79
14, 49920, Note_on_c, 10, 60, 76
14, 49920, Note_on_c, 10, 63, 76
14, 49920, Note_on_c, 10, 70, 73
14, 49920, Note_on_c, 10, 58, 76
14, 50424, Control_c, 10, 64, 127
14, 51372, Note_on_c, 10, 63, 0
14, 51396, Note_on_c, 10, 67, 0
14, 51408, Note_on_c, 10, 60, 0
14, 51428, Note_on_c, 10, 70, 0
14, 51456, Note_on_c, 10, 58, 0
14, 51840, Note_on_c, 10, 58, 55
14, 51840, Note_on_c, 10, 65, 68
14, 51840, Note_on_c, 10, 72, 79
14, 51840, Note_on_c, 10, 69, 68
14, 51840, Note_on_c, 10, 62, 73
14, 51856, Control_c, 10, 64, 0
14, 52324, Control_c, 10, 64, 127
14, 53336, Note_on_c, 10, 62, 0
14, 53372, Note_on_c, 10, 58, 0
14, 53380, Note_on_c, 10, 72, 0
14, 53388, Note_on_c, 10, 65, 0
14, 53388, Note_on_c, 10, 69, 0
14, 53760, Note_on_c, 10, 68, 79
14, 53760, Note_on_c, 10, 60, 86
14, 53760, Note_on_c, 10, 53, 73
14, 53760, Note_on_c, 10, 63, 79
14, 53760, Note_on_c, 10, 56, 55
14, 53776, Control_c, 10, 64, 0
14, 54248, Control_c, 10, 64, 127
14, 55344, Note_on_c, 10, 53, 0
14, 55364, Note_on_c, 10, 56, 0
14, 55376, Note_on_c, 10, 60, 0
14, 55408, Note_on_c, 10, 68, 0
14, 55412, Note_on_c, 10, 63, 0
14, 55680, Note_on_c, 10, 62, 79
14, 55680, Note_on_c, 10, 58, 63
14, 55680, Note_on_c, 10, 55, 68
14, 55680, Note_on_c, 10, 65, 79
14, 55680, Note_on_c, 10, 70, 73
14, 55704, Control_c, 10, 64, 0
14, 56156, Control_c, 10, 64, 127
14, 57272, Note_on_c, 10, 58, 0
14, 57280, Note_on_c, 10, 55, 0
14, 57292, Note_on_c, 10, 62, 0
14, 57300, Note_on_c, 10, 65, 0
14, 57336, Note_on_c, 10, 70, 0
14, 57564, Control_c, 10, 64, 127
14, 57564, Control_c, 10, 64, 0
14, 57572, Control_c, 10, 64, 0
14, 57600, Note_on_c, 10, 67, 86
14, 57600, Note_on_c, 10, 58, 73
14, 57600, Note_on_c, 10, 70, 55
14, 57600, Note_on_c, 10, 63, 68
14, 57600, Note_on_c, 10, 60, 86
14, 58064, Control_c, 10, 64, 127
14, 59108, Note_on_c, 10, 63, 0
14, 59120, Note_on_c, 10, 60, 0
14, 59140, Note_on_c, 10, 67, 0
14, 59148, Note_on_c, 10, 70, 0
14, 59156, Note_on_c, 10, 58, 0
14, 59520, Note_on_c, 10, 62, 73
14, 59520, Note_on_c, 10, 65, 73
14, 59520, Note_on_c, 10, 69, 73
14, 59520, Note_on_c, 10, 72, 79
14, 59520, Note_on_c, 10, 58, 63
14, 59536, Control_c, 10, 64, 0
14, 59960, Control_c, 10, 64, 127
14, 61028, Note_on_c, 10, 62, 0
14, 61064, Note_on_c, 10, 65, 0
14, 61064, Note_on_c, 10, 58, 0
14, 61064, Note_on_c, 10, 69, 0
14, 61068, Note_on_c, 10, 72, 0
14, 61368, Control_c, 10, 64, 0
14, 61376, Control_c, 10, 64, 0
14, 61376, Control_c, 10, 64, 127
14, 61440, Note_on_c, 10, 63, 74
14, 61440, Note_on_c, 10, 68, 76
14, 61440, Note_on_c, 10, 60, 76
14, 61440, Note_on_c, 10, 53, 73
14, 61440, Note_on_c, 10, 56, 68
14, 61900, Control_c, 10, 64, 127
14, 62976, Note_on_c, 10, 53, 0
14, 62980, Note_on_c, 10, 60, 0
14, 62980, Note_on_c, 10, 56, 0
14, 63004, Note_on_c, 10, 68, 0
14, 63016, Note_on_c, 10, 63, 0
14, 63320, Control_c, 10, 64, 0
14, 63324, Control_c, 10, 64, 127
14, 63328, Control_c, 10, 64, 127
14, 63328, Control_c, 10, 64, 0
14, 63332, Control_c, 10, 64, 0
14, 63360, Note_on_c, 10, 58, 51
14, 63360, Note_on_c, 10, 62, 68
14, 63360, Note_on_c, 10, 55, 68
14, 63360, Note_on_c, 10, 70, 73
14, 63360, Note_on_c, 10, 65, 73
14, 63828, Control_c, 10, 64, 127
14, 64896, Note_on_c, 10, 55, 0
14, 64900, Note_on_c, 10, 62, 0
14, 64908, Note_on_c, 10, 65, 0
14, 64912, Note_on_c, 10, 58, 0
14, 64956, Note_on_c, 10, 70, 0
14, 65208, Control_c, 10, 64, 0
14, 65208, Control_c, 10, 64, 127
14, 65216, Control_c, 10, 64, 0
14, 65280, Note_on_c, 10, 70, 63
14, 65280, Note_on_c, 10, 63, 73
14, 65280, Note_on_c, 10, 67, 73
14, 65280, Note_on_c, 10, 60, 79
14, 65280, Note_on_c, 10, 58, 55
14, 65744, Control_c, 10, 64, 127
14, 66796, Note_on_c, 10, 63, 0
14, 66816, Note_on_c, 10, 67, 0
14, 66824, Note_on_c, 10, 60, 0
14, 66832, Note_on_c, 10, 70, 0
14, 66848, Note_on_c, 10, 58, 0
14, 67200, Note_on_c, 10, 69, 79
14, 67200, Note_on_c, 10, 65, 63
14, 67200, Note_on_c, 10, 72, 86
14, 67200, Note_on_c, 10, 62, 79
14, 67200, Note_on_c, 10, 58, 59
14, 67220, Control_c, 10, 64, 0
14, 67688, Control_c, 10, 64, 127
14, 68684, Note_on_c, 10, 62, 0
14, 68700, Note_on_c, 10, 72, 0
14, 68704, Note_on_c, 10, 69, 0
14, 68712, Note_on_c, 10, 58, 0
14, 68724, Note_on_c, 10, 65, 0
14, 69072, Control_c, 10, 64, 0
14, 69076, Control_c, 10, 64, 127
14, 69076, Control_c, 10, 64, 0
14, 69084, Control_c, 10, 64, 127
14, 69084, Control_c, 10, 64, 0
14, 69120, Note_on_c, 10, 68, 73
14, 69120, Note_on_c, 10, 60, 68
14, 69120, Note_on_c, 10, 56, 51
14, 69120, Note_on_c, 10, 53, 79
14, 69120, Note_on_c, 10, 63, 79
14, 69576, Control_c, 10, 64, 127
14, 70708, Note_on_c, 10, 53, 0
14, 70716, Note_on_c, 10, 60, 0
14, 70720, Note_on_c, 10, 56, 0
14, 70748, Note_on_c, 10, 68, 0
14, 70748, Note_on_c, 10, 63, 0
14, 71004, Control_c, 10, 64, 0
14, 71008, Control_c, 10, 64, 0
14, 71008, Control_c, 10, 64, 127
14, 71020, Control_c, 10, 64, 127
14, 71020, Control_c, 10, 64, 0
14, 71040, Note_on_c, 10, 55, 68
14, 71040, Note_on_c, 10, 62, 68
14, 71040, Note_on_c, 10, 65, 68
14, 71040, Note_on_c, 10, 70, 73
14, 71040, Note_on_c, 10, 58, 63
14, 71516, Control_c, 10, 64, 127
14, 72572, Note_on_c, 10, 62, 0
14, 72584, Note_on_c, 10, 55, 0
14, 72588, Note_on_c, 10, 65, 0
14, 72592, Note_on_c, 10, 58, 0
14, 72620, Note_on_c, 10, 70, 0
14, 72936, Control_c, 10, 64, 0
14, 72940, Control_c, 10, 64, 127
14, 72948, Control_c, 10, 64, 0
14, 72960, Note_on_c, 10, 67, 79
14, 72960, Note_on_c, 10, 63, 63
14, 72960, Note_on_c, 10, 70, 51
14, 72960, Note_on_c, 10, 60, 79
14, 72960, Note_on_c, 10, 58, 59
14, 73400, Control_c, 10, 64, 127
14, 74504, Note_on_c, 10, 60, 0
14, 74504, Note_on_c, 10, 63, 0
14, 74508, Note_on_c, 10, 67, 0
14, 74532, Note_on_c, 10, 70, 0
14, 74540, Note_on_c, 10, 58, 0
14, 74856, Control_c, 10, 64, 0
14, 74864, Control_c, 10, 64, 127
14, 74864, Control_c, 10, 64, 0
14, 74880, Note_on_c, 10, 62, 73
14, 74880, Note_on_c, 10, 69, 79
14, 74880, Note_on_c, 10, 72, 73
14, 74880, Note_on_c, 10, 65, 51
14, 74880, Note_on_c, 10, 58, 55
14, 75304, Control_c, 10, 64, 127
14, 76352, Note_on_c, 10, 62, 0
14, 76392, Note_on_c, 10, 65, 0
14, 76396, Note_on_c, 10, 69, 0
14, 76396, Note_on_c, 10, 72, 0
14, 76400, Note_on_c, 10, 58, 0
14, 76776, Control_c, 10, 64, 0
14, 76800, Note_on_c, 10, 68, 73
14, 76800, Note_on_c, 10, 60, 68
14, 76800, Note_on_c, 10, 56, 55
14, 76800, Note_on_c, 10, 63, 86
14, 76800, Note_on_c, 10, 53, 79
14, 77244, Control_c, 10, 64, 127
14, 78344, Note_on_c, 10, 60, 0
14, 78360, Note_on_c, 10, 56, 0
14, 78364, Note_on_c, 10, 53, 0
14, 78376, Note_on_c, 10, 68, 0
14, 78392, Note_on_c, 10, 63, 0
14, 78720, Note_on_c, 10, 62, 79
14, 78720, Note_on_c, 10, 55, 73
14, 78720, Note_on_c, 10, 65, 79
14, 78720, Note_on_c, 10, 70, 73
14, 78720, Note_on_c, 10, 58, 73
14, 78788, Control_c, 10, 64, 0
14, 78788, Control_c, 10, 64, 127
14, 78792, Control_c, 10, 64, 0
14, 78800, Control_c, 10, 64, 127
14, 78800, Control_c, 10, 64, 0
14, 79160, Control_c, 10, 64, 127
14, 80288, Note_on_c, 10, 62, 0
14, 80308, Note_on_c, 10, 65, 0
14, 80320, Note_on_c, 10, 58, 0
14, 80320, Note_on_c, 10, 55, 0
14, 80340, Note_on_c, 10, 70, 0
14, 80640, Note_on_c, 10, 60, 79
14, 80640, Note_on_c, 10, 63, 73
14, 80640, Note_on_c, 10, 67, 79
14, 80640, Note_on_c, 10, 70, 51
14, 80640, Note_on_c, 10, 58, 63
14, 80640, Control_c, 10, 64, 0
14, 81100, Control_c, 10, 64, 127
14, 82220, Note_on_c, 10, 63, 0
14, 82236, Note_on_c, 10, 60, 0
14, 82248, Note_on_c, 10, 67, 0
14, 82280, Note_on_c, 10, 70, 0
14, 82280, Note_on_c, 10, 58, 0
14, 82560, Note_on_c, 10, 62, 68
14, 82560, Note_on_c, 10, 69, 79
14, 82560, Note_on_c, 10, 65, 73
14, 82560, Note_on_c, 10, 72, 86
14, 82560, Note_on_c, 10, 58, 68
14, 82564, Control_c, 10, 64, 0
14, 83048, Control_c, 10, 64, 127
14, 84064, Note_on_c, 10, 62, 0
14, 84100, Note_on_c, 10, 72, 0
14, 84104, Note_on_c, 10, 69, 0
14, 84116, Note_on_c, 10, 58, 0
14, 84124, Note_on_c, 10, 65, 0
14, 84456, Control_c, 10, 64, 0
14, 84480, Note_on_c, 10, 68, 73
14, 84480, Note_on_c, 10, 53, 79
14, 84480, Note_on_c, 10, 60, 79
14, 84480, Note_on_c, 10, 56, 55
14, 84480, Note_on_c, 10, 63, 79
14, 84952, Control_c, 10, 64, 127
14, 86072, Note_on_c, 10, 60, 0
14, 86088, Note_on_c, 10, 53, 0
14, 86092, Note_on_c, 10, 56, 0
14, 86112, Note_on_c, 10, 68, 0
14, 86116, Note_on_c, 10, 63, 0
14, 86400, Note_on_c, 10, 62, 63
14, 86400, Note_on_c, 10, 58, 47
14, 86400, Note_on_c, 10, 55, 68
14, 86400, Note_on_c, 10, 70, 68
14, 86400, Note_on_c, 10, 65, 73
14, 86420, Control_c, 10, 64, 0
14, 86432, Control_c, 10, 64, 127
14, 86436, Control_c, 10, 64, 0
14, 86436, Control_c, 10, 64, 127
14, 86440, Control_c, 10, 64, 0
14, 86848, Control_c, 10, 64, 127
14, 87896, Note_on_c, 10, 62, 0
14, 87920, Note_on_c, 10, 65, 0
14, 87928, Note_on_c, 10, 55, 0
14, 87936, Note_on_c, 10, 58, 0
14, 87956, Note_on_c, 10, 70, 0
14, 88260, Control_c, 10, 64, 0
14, 88320, Note_on_c, 10, 67, 76
14, 88320, Note_on_c, 10, 70, 74
14, 88320, Note_on_c, 10, 63, 68
14, 88320, Note_on_c, 10, 60, 73
14, 88320, Note_on_c, 10, 58, 77
14, 88808, Control_c, 10, 64, 127
14, 89860, Note_on_c, 10, 63, 0
14, 89876, Note_on_c, 10, 67, 0
14, 89880, Note_on_c, 10, 60, 0
14, 89896, Note_on_c, 10, 70, 0
14, 89928, Note_on_c, 10, 58, 0
14, 90240, Note_on_c, 10, 62, 79
14, 90240, Note_on_c, 10, 58, 79
14, 90240, Note_on_c, 10, 69, 76
14, 90240, Note_on_c, 10, 65, 68
14, 90240, Note_on_c, 10, 72, 79
14, 90276, Control_c, 10, 64, 0
14, 90280, Control_c, 10, 64, 127
14, 90284, Control_c, 10, 64, 0
14, 90288, Control_c, 10, 64, 127
14, 90292, Control_c, 10, 64, 0
14, 90308, Control_c, 10, 64, 127
14, 90312, Control_c, 10, 64, 0
14, 90708, Control_c, 10, 64, 127
14, 91720, Note_on_c, 10, 62, 0
14, 91756, Note_on_c, 10, 58, 0
14, 91776, Note_on_c, 10, 72, 0
14, 91776, Note_on_c, 10, 69, 0
14, 91780, Note_on_c, 10, 65, 0
14, 92160, Note_on_c, 10, 60, 68
14, 92160, Note_on_c, 10, 53, 73
14, 92160, Note_on_c, 10, 56, 55
14, 92160, Note_on_c, 10, 68, 59
14, 92160, Note_on_c, 10, 63, 73
14, 92176, Control_c, 10, 64, 0
14, 92184, Control_c, 10, 64, 127
14, 92184, Control_c, 10, 64, 0
14, 92636, Control_c, 10, 64, 127
14, 93736, Note_on_c, 10, 53, 0
14, 93740, Note_on_c, 10, 60, 0
14, 93744, Note_on_c, 10, 56, 0
14, 93780, Note_on_c, 10, 68, 0
14, 93784, Note_on_c, 10, 63, 0
14, 94080, Note_on_c, 10, 55, 68
14, 94080, Note_on_c, 10, 62, 63
14, 94080, Note_on_c, 10, 58, 47
14, 94080, Note_on_c, 10, 65, 73
14, 94080, Note_on_c, 10, 70, 68
14, 94096, Control_c, 10, 64, 0
14, 94556, Control_c, 10, 64, 127
14, 95740, Note_on_c, 10, 62, 0
14, 95760, Note_on_c, 10, 65, 0
14, 95772, Note_on_c, 10, 55, 0
14, 95772, Note_on_c, 10, 58, 0
14, 95800, Note_on_c, 10, 70, 0
14, 95984, Control_c, 10, 64, 0
14, 95988, Control_c, 10, 64, 127
14, 95988, Control_c, 10, 64, 0
14, 95996, Control_c, 10, 64, 0
14, 95996, Control_c, 10, 64, 127
14, 96000, Note_on_c, 10, 58, 55
14, 96000, Note_on_c, 10, 70, 59
14, 96000, Note_on_c, 10, 63, 68
14, 96000, Note_on_c, 10, 67, 79
14, 96000, Note_on_c, 10, 60, 79
14, 96488, Control_c, 10, 64, 127
14, 97540, Note_on_c, 10, 63, 0
14, 97552, Note_on_c, 10, 67, 0
14, 97560, Note_on_c, 10, 60, 0
14, 97576, Note_on_c, 10, 70, 0
14, 97576, Note_on_c, 10, 58, 0
14, 97920, Note_on_c, 10, 62, 68
14, 97920, Note_on_c, 10, 65, 59
14, 97920, Note_on_c, 10, 69, 68
14, 97920, Note_on_c, 10, 72, 73
14, 97920, Note_on_c, 10, 58, 63
14, 97940, Control_c, 10, 64, 0
14, 97944, Control_c, 10, 64, 127
14, 97944, Control_c, 10, 64, 0
14, 97948, Control_c, 10, 64, 127
14, 97952, Control_c, 10, 64, 0
14, 98388, Control_c, 10, 64, 127
14, 99408, Note_on_c, 10, 62, 0
14, 99448, Note_on_c, 10, 58, 0
14, 99460, Note_on_c, 10, 72, 0
14, 99464, Note_on_c, 10, 69, 0
14, 99468, Note_on_c, 10, 65, 0
14, 99828, Control_c, 10, 64, 0
14, 99828, Control_c, 10, 64, 127
14, 99840, Note_on_c, 10, 60, 79
14, 99840, Note_on_c, 10, 68, 73
14, 99840, Note_on_c, 10, 56, 63
14, 99840, Note_on_c, 10, 63, 74
14, 99840, Note_on_c, 10, 53, 79
14, 99856, Control_c, 10, 64, 0
14, 100340, Control_c, 10, 64, 127
14, 101348, Note_on_c, 10, 60, 0
14, 101368, Note_on_c, 10, 56, 0
14, 101376, Note_on_c, 10, 53, 0
14, 101388, Note_on_c, 10, 68, 0
14, 101412, Note_on_c, 10, 63, 0
14, 101692, Control_c, 10, 64, 0
14, 101696, Control_c, 10, 64, 127
14, 101696, Control_c, 10, 64, 0
14, 101700, Control_c, 10, 64, 127
14, 101708, Control_c, 10, 64, 0
14, 101760, Note_on_c, 10, 58, 63
14, 101760, Note_on_c, 10, 62, 79
14, 101760, Note_on_c, 10, 55, 68
14, 101760, Note_on_c, 10, 70, 68
14, 101760, Note_on_c, 10, 65, 73
14, 102248, Control_c, 10, 64, 127
14, 103292, Note_on_c, 10, 62, 0
14, 103316, Note_on_c, 10, 55, 0
14, 103320, Note_on_c, 10, 65, 0
14, 103320, Note_on_c, 10, 58, 0
14, 103348, Note_on_c, 10, 70, 0
14, 103652, Control_c, 10, 64, 0
14, 103652, Control_c, 10, 64, 127
14, 103660, Control_c, 10, 64, 0
14, 103680, Note_on_c, 10, 58, 68
14, 103680, Note_on_c, 10, 60, 79
14, 103680, Note_on_c, 10, 70, 68
14, 103680, Note_on_c, 10, 63, 79
14, 103680, Note_on_c, 10, 67, 86
14, 104176, Control_c, 10, 64, 127
14, 105120, Note_on_c, 10, 63, 0
14, 105152, Note_on_c, 10, 67, 0
14, 105164, Note_on_c, 10, 60, 0
14, 105168, Note_on_c, 10, 70, 0
14, 105192, Note_on_c, 10, 58, 0
14, 105568, Control_c, 10, 64, 0
14, 105572, Control_c, 10, 64, 127
14, 105576, Control_c, 10, 64, 0
14, 105600, Note_on_c, 10, 72, 68
14, 105600, Note_on_c, 10, 62, 79
14, 105600, Note_on_c, 10, 69, 79
14, 105600, Note_on_c, 10, 70, 59
14, 105600, Note_on_c, 10, 65, 68
14, 105600, Note_on_c, 10, 58, 47
14, 105728, Control_c, 10, 64, 127
14, 105832, Control_c, 10, 64, 0
14, 105848, Control_c, 10, 64, 127
14, 105848, Control_c, 10, 64, 0
14, 105860, Control_c, 10, 64, 127
14, 105864, Control_c, 10, 64, 0
14, 105892, Control_c, 10, 64, 127
14, 107080, Note_on_c, 10, 62, 0
14, 107120, Note_on_c, 10, 65, 0
14, 107120, Note_on_c, 10, 72, 0
14, 107120, Note_on_c, 10, 69, 0
14, 107128, Note_on_c, 10, 70, 0
14, 107140, Note_on_c, 10, 58, 0
14, 107488, Control_c, 10, 64, 0
14, 107492, Control_c, 10, 64, 127
14, 107496, Control_c, 10, 64, 0
14, 107496, Control_c, 10, 64, 127
14, 107504, Control_c, 10, 64, 0
14, 107520, Note_on_c, 10, 68, 73
14, 107520, Note_on_c, 10, 60, 73
14, 107520, Note_on_c, 10, 63, 86
14, 107520, Note_on_c, 10, 53, 73
14, 107520, Note_on_c, 10, 56, 63
14, 107988, Control_c, 10, 64, 127
14, 109060, Note_on_c, 10, 60, 0
14, 109072, Note_on_c, 10, 56, 0
14, 109080, Note_on_c, 10, 53, 0
14, 109092, Note_on_c, 10, 68, 0
14, 109100, Note_on_c, 10, 63, 0
14, 109420, Control_c, 10, 64, 0
14, 109432, Control_c, 10, 64, 127
14, 109440, Note_on_c, 10, 62, 68
14, 109440, Note_on_c, 10, 58, 63
14, 109440, Note_on_c, 10, 70, 79
14, 109440, Note_on_c, 10, 55, 73
14, 109440, Note_on_c, 10, 65, 73
14, 109456, Control_c, 10, 64, 0
14, 109940, Control_c, 10, 64, 127
14, 110944, Note_on_c, 10, 62, 0
14, 110976, Note_on_c, 10, 55, 0
14, 110980, Note_on_c, 10, 65, 0
14, 110984, Note_on_c, 10, 58, 0
14, 111008, Note_on_c, 10, 70, 0
14, 111316, Control_c, 10, 64, 0
14, 111324, Control_c, 10, 64, 0
14, 111324, Control_c, 10, 64, 127
14, 111360, Note_on_c, 10, 63, 73
14, 111360, Note_on_c, 10, 70, 63
14, 111360, Note_on_c, 10, 67, 86
14, 111360, Note_on_c, 10, 58, 47
14, 111360, Note_on_c, 10, 60, 86
14, 111860, Control_c, 10, 64, 127
14, 112868, Note_on_c, 10, 63, 0
14, 112888, Note_on_c, 10, 60, 0
14, 112892, Note_on_c, 10, 67, 0
14, 112904, Note_on_c, 10, 70, 0
14, 112916, Note_on_c, 10, 58, 0
14, 113252, Control_c, 10, 64, 0
14, 113256, Control_c, 10, 64, 127
14, 113260, Control_c, 10, 64, 0
14, 113260, Control_c, 10, 64, 127
14, 113260, Control_c, 10, 64, 0
14, 113280, Note_on_c, 10, 62, 73
14, 113280, Note_on_c, 10, 58, 73
14, 113280, Note_on_c, 10, 65, 68
14, 113280, Note_on_c, 10, 69, 68
14, 113280, Note_on_c, 10, 72, 73
14, 113776, Control_c, 10, 64, 127
14, 114772, Note_on_c, 10, 62, 0
14, 114832, Note_on_c, 10, 58, 0
14, 114860, Note_on_c, 10, 69, 0
14, 114860, Note_on_c, 10, 65, 0
14, 114860, Note_on_c, 10, 72, 0
14, 115200, Note_on_c, 10, 60, 73
14, 115200, Note_on_c, 10, 68, 73
14, 115200, Note_on_c, 10, 56, 59
14, 115200, Note_on_c, 10, 63, 94
14, 115200, Note_on_c, 10, 53, 79
14, 115216, Control_c, 10, 64, 0
14, 115644, Control_c, 10, 64, 127
14, 116744, Note_on_c, 10, 60, 0
14, 116760, Note_on_c, 10, 53, 0
14, 116760, Note_on_c, 10, 56, 0
14, 116764, Note_on_c, 10, 68, 0
14, 116788, Note_on_c, 10, 63, 0
14, 117096, Control_c, 10, 64, 0
14, 117100, Control_c, 10, 64, 127
14, 117104, Control_c, 10, 64, 0
14, 117120, Note_on_c, 10, 62, 79
14, 117120, Note_on_c, 10, 70, 79
14, 117120, Note_on_c, 10, 55, 68
14, 117120, Note_on_c, 10, 65, 73
14, 117120, Note_on_c, 10, 58, 59
14, 117588, Control_c, 10, 64, 127
14, 118768, Note_on_c, 10, 62, 0
14, 118780, Note_on_c, 10, 65, 0
14, 118792, Note_on_c, 10, 58, 0
14, 118792, Note_on_c, 10, 55, 0
14, 118820, Note_on_c, 10, 70, 0
14, 118964, Control_c, 10, 64, 0
14, 118976, Control_c, 10, 64, 127
14, 118980, Control_c, 10, 64, 0
14, 119040, Note_on_c, 10, 60, 73
14, 119040, Note_on_c, 10, 58, 59
14, 119040, Note_on_c, 10, 67, 79
14, 119040, Note_on_c, 10, 63, 68
14, 119040, Note_on_c, 10, 70, 63
14, 119540, Control_c, 10, 64, 127
14, 120552, Note_on_c, 10, 60, 0
14, 120564, Note_on_c, 10, 63, 0
14, 120592, Note_on_c, 10, 58, 0
14, 120596, Note_on_c, 10, 67, 0
14, 120608, Note_on_c, 10, 70, 0
14, 120936, Control_c, 10, 64, 0
14, 120960, Note_on_c, 10, 62, 68
14, 120960, Note_on_c, 10, 69, 68
14, 120960, Note_on_c, 10, 65, 73
14, 120960, Note_on_c, 10, 72, 68
14, 120960, Note_on_c, 10, 58, 68
14, 121428, Control_c, 10, 64, 127
14, 122456, Note_on_c, 10, 62, 0
14, 122508, Note_on_c, 10, 65, 0
14, 122512, Note_on_c, 10, 69, 0
14, 122512, Note_on_c, 10, 72, 0
14, 122512, Note_on_c, 10, 58, 0
14, 122832, Control_c, 10, 64, 0
14, 122840, Control_c, 10, 64, 127
14, 122844, Control_c, 10, 64, 0
14, 122880, Note_on_c, 10, 56, 59
14, 122880, Note_on_c, 10, 60, 68
14, 122880, Note_on_c, 10, 68, 73
14, 122880, Note_on_c, 10, 53, 73
14, 122880, Note_on_c, 10, 63, 73
14, 123348, Control_c, 10, 64, 127
14, 124452, Note_on_c, 10, 60, 0
14, 124468, Note_on_c, 10, 53, 0
14, 124468, Note_on_c, 10, 56, 0
14, 124484, Note_on_c, 10, 68, 0
14, 124504, Note_on_c, 10, 63, 0
14, 124800, Note_on_c, 10, 55, 68
14, 124800, Note_on_c, 10, 62, 86
14, 124800, Note_on_c, 10, 58, 59
14, 124800, Note_on_c, 10, 65, 79
14, 124800, Note_on_c, 10, 70, 79
14, 124820, Control_c, 10, 64, 0
14, 124828, Control_c, 10, 64, 127
14, 124832, Control_c, 10, 64, 0
14, 125272, Control_c, 10, 64, 127
14, 126384, Note_on_c, 10, 62, 0
14, 126400, Note_on_c, 10, 65, 0
14, 126400, Note_on_c, 10, 55, 0
14, 126404, Note_on_c, 10, 58, 0
14, 126436, Note_on_c, 10, 70, 0
14, 126700, Control_c, 10, 64, 0
14, 126700, Control_c, 10, 64, 127
14, 126704, Control_c, 10, 64, 0
14, 126720, Note_on_c, 10, 70, 63
14, 126720, Note_on_c, 10, 60, 79
14, 126720, Note_on_c, 10, 63, 73
14, 126720, Note_on_c, 10, 67, 86
14, 126720, Note_on_c, 10, 58, 63
14, 127212, Control_c, 10, 64, 127
14, 128236, Note_on_c, 10, 63, 0
14, 128244, Note_on_c, 10, 60, 0
14, 128276, Note_on_c, 10, 67, 0
14, 128280, Note_on_c, 10, 70, 0
14, 128292, Note_on_c, 10, 58, 0
14, 128640, Note_on_c, 10, 62, 73
14, 128640, Note_on_c, 10, 72, 79
14, 128640, Note_on_c, 10, 65, 63
14, 128640, Note_on_c, 10, 69, 79
14, 128640, Note_on_c, 10, 58, 55
14, 128656, Control_c, 10, 64, 0
14, 129104, Control_c, 10, 64, 127
14, 130132, Note_on_c, 10, 62, 0
14, 130164, Note_on_c, 10, 72, 0
14, 130176, Note_on_c, 10, 58, 0
14, 130184, Note_on_c, 10, 69, 0
14, 130192, Note_on_c, 10, 65, 0
14, 130560, Note_on_c, 10, 68, 73
14, 130560, Note_on_c, 10, 60, 79
14, 130560, Note_on_c, 10, 63, 94
14, 130560, Note_on_c, 10, 56, 47
14, 130560, Note_on_c, 10, 53, 68
14, 130580, Control_c, 10, 64, 0
14, 131048, Control_c, 10, 64, 127
14, 132180, Note_on_c, 10, 53, 0
14, 132180, Note_on_c, 10, 60, 0
14, 132180, Note_on_c, 10, 56, 0
14, 132212, Note_on_c, 10, 63, 0
14, 132212, Note_on_c, 10, 68, 0
14, 132480, Note_on_c, 10, 65, 68
14, 132480, Note_on_c, 10, 70, 73
14, 132480, Note_on_c, 10, 58, 55
14, 132480, Note_on_c, 10, 55, 73
14, 132480, Note_on_c, 10, 62, 73
14, 132504, Control_c, 10, 64, 0
14, 132952, Control_c, 10, 64, 127
14, 134076, Note_on_c, 10, 55, 0
14, 134208, Note_on_c, 10, 58, 0
14, 134264, Note_on_c, 10, 65, 0
14, 134268, Note_on_c, 10, 62, 0
14, 134288, Note_on_c, 10, 70, 0
14, 134500, Control_c, 10, 64, 0
14, 134504, Control_c, 10, 64, 127
14, 134512, Control_c, 10, 64, 0
14, 142080, Note_on_c, 10, 55, 53
14, 142080, Note_on_c, 10, 51, 55
14, 142080, Note_on_c, 10, 62, 53
14, 142080, Note_on_c, 10, 58, 44
14, 142600, Control_c, 10, 64, 127
14, 142632, Channel_aftertouch_c, 10, 2
14, 142652, Channel_aftertouch_c, 10, 6
14, 142684, Channel_aftertouch_c, 10, 8
14, 142732, Channel_aftertouch_c, 10, 6
14, 142752, Channel_aftertouch_c, 10, 2
14, 142776, Channel_aftertouch_c, 10, 0
14, 142784, Channel_aftertouch_c, 10, 0
14, 145908, Control_c, 10, 64, 0
14, 145912, Control_c, 10, 64, 127
14, 145920, Control_c, 10, 64, 0
14, 145988, Control_c, 10, 64, 0
14, 145988, Control_c, 10, 64, 127
14, 145996, Control_c, 10, 64, 127
14, 146108, Control_c, 10, 64, 0
14, 149496, Note_on_c, 10, 55, 0
14, 149512, Note_on_c, 10, 51, 0
14, 149528, Note_on_c, 10, 62, 0
14, 149528, Note_on_c, 10, 58, 0
14, 149760, Note_on_c, 10, 67, 63
14, 149760, Note_on_c, 10, 63, 47
14, 149760, Note_on_c, 10, 70, 38
14, 149760, Note_on_c, 10, 60, 79
14, 149760, Note_on_c, 10, 58, 38
14, 150200, Control_c, 10, 64, 127
14, 151224, Note_on_c, 10, 63, 0
14, 151252, Note_on_c, 10, 67, 0
14, 151272, Note_on_c, 10, 70, 0
14, 151300, Note_on_c, 10, 60, 0
14, 151332, Note_on_c, 10, 58, 0
14, 151680, Note_on_c, 10, 58, 55
14, 151680, Note_on_c, 10, 69, 63
14, 151680, Note_on_c, 10, 65, 59
14, 151680, Note_on_c, 10, 72, 68
14, 151680, Note_on_c, 10, 62, 68
14, 151684, Control_c, 10, 64, 0
14, 152140, Control_c, 10, 64, 127
14, 153184, Note_on_c, 10, 62, 0
14, 153212, Note_on_c, 10, 58, 0
14, 153220, Note_on_c, 10, 69, 0
14, 153220, Note_on_c, 10, 65, 0
14, 153220, Note_on_c, 10, 72, 0
14, 153504, Control_c, 10, 64, 0
14, 153508, Control_c, 10, 64, 127
14, 153508, Control_c, 10, 64, 0
14, 153520, Control_c, 10, 64, 0
14, 153520, Control_c, 10, 64, 127
14, 153600, Note_on_c, 10, 56, 63
14, 153600, Note_on_c, 10, 53, 73
14, 153600, Note_on_c, 10, 60, 68
14, 153600, Note_on_c, 10, 68, 68
14, 153600, Note_on_c, 10, 63, 73
14, 154100, Control_c, 10, 64, 127
14, 155240, Note_on_c, 10, 60, 0
14, 155240, Note_on_c, 10, 56, 0
14, 155248, Note_on_c, 10, 53, 0
14, 155272, Note_on_c, 10, 63, 0
14, 155272, Note_on_c, 10, 68, 0
14, 155468, Control_c, 10, 64, 0
14, 155472, Control_c, 10, 64, 127
14, 155480, Control_c, 10, 64, 0
14, 155520, Note_on_c, 10, 62, 73
14, 155520, Note_on_c, 10, 55, 63
14, 155520, Note_on_c, 10, 58, 55
14, 155520, Note_on_c, 10, 70, 59
14, 155520, Note_on_c, 10, 65, 73
14, 156036, Control_c, 10, 64, 127
14, 157076, Note_on_c, 10, 58, 0
14, 157076, Note_on_c, 10, 62, 0
14, 157084, Note_on_c, 10, 55, 0
14, 157092, Note_on_c, 10, 65, 0
14, 157132, Note_on_c, 10, 70, 0
14, 157392, Control_c, 10, 64, 0
14, 157396, Control_c, 10, 64, 127
14, 157404, Control_c, 10, 64, 0
14, 157404, Control_c, 10, 64, 127
14, 157408, Control_c, 10, 64, 0
14, 157440, Note_on_c, 10, 67, 66
14, 157440, Note_on_c, 10, 70, 59
14, 157440, Note_on_c, 10, 63, 59
14, 157440, Note_on_c, 10, 60, 79
14, 157440, Note_on_c, 10, 58, 65
14, 157976, Control_c, 10, 64, 127
14, 158916, Note_on_c, 10, 63, 0
14, 158936, Note_on_c, 10, 60, 0
14, 158952, Note_on_c, 10, 67, 0
14, 158960, Note_on_c, 10, 58, 0
14, 158964, Note_on_c, 10, 70, 0
14, 159360, Note_on_c, 10, 62, 73
14, 159360, Note_on_c, 10, 65, 59
14, 159360, Note_on_c, 10, 69, 63
14, 159360, Note_on_c, 10, 72, 73
14, 159360, Note_on_c, 10, 58, 68
14, 159376, Control_c, 10, 64, 0
14, 159824, Control_c, 10, 64, 127
14, 160808, Note_on_c, 10, 62, 0
14, 160852, Note_on_c, 10, 58, 0
14, 160860, Note_on_c, 10, 65, 0
14, 160860, Note_on_c, 10, 72, 0
14, 160864, Note_on_c, 10, 69, 0
14, 161260, Control_c, 10, 64, 0
14, 161280, Note_on_c, 10, 60, 73
14, 161280, Note_on_c, 10, 56, 47
14, 161280, Note_on_c, 10, 63, 79
14, 161280, Note_on_c, 10, 53, 79
14, 161280, Note_on_c, 10, 68, 73
14, 161776, Control_c, 10, 64, 127
14, 162824, Note_on_c, 10, 60, 0
14, 162828, Note_on_c, 10, 56, 0
14, 162844, Note_on_c, 10, 53, 0
14, 162864, Note_on_c, 10, 68, 0
14, 162868, Note_on_c, 10, 63, 0
14, 163184, Control_c, 10, 64, 0
14, 163200, Note_on_c, 10, 55, 59
14, 163200, Note_on_c, 10, 58, 47
14, 163200, Note_on_c, 10, 62, 63
14, 163200, Note_on_c, 10, 70, 73
14, 163200, Note_on_c, 10, 65, 63
14, 163200, Control_c, 10, 64, 0
14, 163200, Control_c, 10, 64, 127
14, 163660, Control_c, 10, 64, 127
14, 164828, Note_on_c, 10, 62, 0
14, 164836, Note_on_c, 10, 65, 0
14, 164844, Note_on_c, 10, 58, 0
14, 164864, Note_on_c, 10, 55, 0
14, 164872, Note_on_c, 10, 70, 0
14, 165076, Control_c, 10, 64, 0
14, 165120, Note_on_c, 10, 70, 63
14, 165120, Note_on_c, 10, 63, 73
14, 165120, Note_on_c, 10, 60, 79
14, 165120, Note_on_c, 10, 67, 79
14, 165120, Note_on_c, 10, 58, 51
14, 165608, Control_c, 10, 64, 127
14, 166636, Note_on_c, 10, 63, 0
14, 166644, Note_on_c, 10, 60, 0
14, 166660, Note_on_c, 10, 67, 0
14, 166676, Note_on_c, 10, 70, 0
14, 166684, Note_on_c, 10, 58, 0
14, 167040, Note_on_c, 10, 72, 73
14, 167040, Note_on_c, 10, 65, 68
14, 167040, Note_on_c, 10, 62, 68
14, 167040, Note_on_c, 10, 69, 63
14, 167040, Note_on_c, 10, 58, 63
14, 167056, Control_c, 10, 64, 0
14, 167512, Control_c, 10, 64, 127
14, 168524, Note_on_c, 10, 62, 0
14, 168564, Note_on_c, 10, 69, 0
14, 168564, Note_on_c, 10, 72, 0
14, 168564, Note_on_c, 10, 65, 0
14, 168564, Note_on_c, 10, 58, 0
14, 168944, Control_c, 10, 64, 0
14, 168952, Control_c, 10, 64, 127
14, 168960, Note_on_c, 10, 68, 68
14, 168960, Note_on_c, 10, 60, 79
14, 168960, Note_on_c, 10, 53, 86
14, 168960, Note_on_c, 10, 56, 59
14, 168960, Note_on_c, 10, 63, 86
14, 168972, Control_c, 10, 64, 0
14, 169452, Control_c, 10, 64, 127
14, 170524, Note_on_c, 10, 56, 0
14, 170524, Note_on_c, 10, 60, 0
14, 170528, Note_on_c, 10, 53, 0
14, 170548, Note_on_c, 10, 68, 0
14, 170560, Note_on_c, 10, 63, 0
14, 170880, Note_on_c, 10, 62, 73
14, 170880, Note_on_c, 10, 58, 47
14, 170880, Note_on_c, 10, 55, 73
14, 170880, Note_on_c, 10, 65, 68
14, 170880, Note_on_c, 10, 70, 73
14, 170896, Control_c, 10, 64, 0
14, 170896, Control_c, 10, 64, 127
14, 170908, Control_c, 10, 64, 0
14, 171392, Control_c, 10, 64, 127
14, 172508, Note_on_c, 10, 62, 0
14, 172512, Note_on_c, 10, 65, 0
14, 172516, Note_on_c, 10, 58, 0
14, 172520, Note_on_c, 10, 55, 0
14, 172552, Note_on_c, 10, 70, 0
14, 172800, Note_on_c, 10, 60, 68
14, 172800, Note_on_c, 10, 63, 63
14, 172800, Note_on_c, 10, 70, 55
14, 172800, Note_on_c, 10, 67, 79
14, 172800, Note_on_c, 10, 58, 59
14, 172820, Control_c, 10, 64, 0
14, 173308, Control_c, 10, 64, 127
14, 174312, Note_on_c, 10, 63, 0
14, 174328, Note_on_c, 10, 60, 0
14, 174348, Note_on_c, 10, 67, 0
14, 174364, Note_on_c, 10, 70, 0
14, 174368, Note_on_c, 10, 58, 0
14, 174720, Note_on_c, 10, 65, 68
14, 174720, Note_on_c, 10, 62, 73
14, 174720, Note_on_c, 10, 69, 73
14, 174720, Note_on_c, 10, 72, 79
14, 174720, Note_on_c, 10, 58, 59
14, 174732, Control_c, 10, 64, 0
14, 174736, Control_c, 10, 64, 127
14, 174744, Control_c, 10, 64, 0
14, 174744, Control_c, 10, 64, 127
14, 174748, Control_c, 10, 64, 0
14, 175224, Control_c, 10, 64, 127
14, 176212, Note_on_c, 10, 62, 0
14, 176248, Note_on_c, 10, 58, 0
14, 176256, Note_on_c, 10, 72, 0
14, 176256, Note_on_c, 10, 69, 0
14, 176260, Note_on_c, 10, 65, 0
14, 176640, Note_on_c, 10, 53, 76
14, 176640, Note_on_c, 10, 63, 74
14, 176640, Note_on_c, 10, 60, 79
14, 176640, Note_on_c, 10, 68, 79
14, 176640, Note_on_c, 10, 56, 65
14, 176660, Control_c, 10, 64, 0
14, 177188, Control_c, 10, 64, 127
14, 178208, Note_on_c, 10, 60, 0
14, 178212, Note_on_c, 10, 56, 0
14, 178212, Note_on_c, 10, 53, 0
14, 178232, Note_on_c, 10, 68, 0
14, 178240, Note_on_c, 10, 63, 0
14, 178560, Note_on_c, 10, 58, 47
14, 178560, Note_on_c, 10, 62, 73
14, 178560, Note_on_c, 10, 55, 68
14, 178560, Note_on_c, 10, 70, 73
14, 178560, Note_on_c, 10, 65, 79
14, 178580, Control_c, 10, 64, 0
14, 179012, Control_c, 10, 64, 127
14, 180196, Note_on_c, 10, 62, 0
14, 180212, Note_on_c, 10, 58, 0
14, 180220, Note_on_c, 10, 65, 0
14, 180236, Note_on_c, 10, 55, 0
14, 180244, Note_on_c, 10, 70, 0
14, 180456, Control_c, 10, 64, 0
14, 180456, Control_c, 10, 64, 127
14, 180460, Control_c, 10, 64, 0
14, 180460, Control_c, 10, 64, 127
14, 180464, Control_c, 10, 64, 0
14, 180468, Control_c, 10, 64, 127
14, 180468, Control_c, 10, 64, 0
14, 180480, Note_on_c, 10, 58, 51
14, 180480, Note_on_c, 10, 70, 44
14, 180480, Note_on_c, 10, 60, 73
14, 180480, Note_on_c, 10, 63, 59
14, 180480, Note_on_c, 10, 67, 73
14, 180968, Control_c, 10, 64, 127
14, 181976, Note_on_c, 10, 63, 0
14, 181988, Note_on_c, 10, 60, 0
14, 181996, Note_on_c, 10, 67, 0
14, 182008, Note_on_c, 10, 70, 0
14, 182016, Note_on_c, 10, 58, 0
14, 182400, Note_on_c, 10, 62, 59
14, 182400, Note_on_c, 10, 69, 63
14, 182400, Note_on_c, 10, 65, 63
14, 182400, Note_on_c, 10, 72, 73
14, 182400, Note_on_c, 10, 58, 59
14, 182448, Control_c, 10, 64, 0
14, 182456, Control_c, 10, 64, 127
14, 182460, Control_c, 10, 64, 0
14, 182888, Control_c, 10, 64, 127
14, 183880, Note_on_c, 10, 62, 0
14, 183924, Note_on_c, 10, 69, 0
14, 183928, Note_on_c, 10, 72, 0
14, 183928, Note_on_c, 10, 58, 0
14, 183936, Note_on_c, 10, 65, 0
14, 184320, Note_on_c, 10, 53, 79
14, 184320, Note_on_c, 10, 68, 63
14, 184320, Note_on_c, 10, 56, 55
14, 184320, Note_on_c, 10, 60, 79
14, 184320, Note_on_c, 10, 63, 86
14, 184340, Control_c, 10, 64, 0
14, 184344, Control_c, 10, 64, 127
14, 184348, Control_c, 10, 64, 0
14, 184776, Control_c, 10, 64, 127
14, 185872, Note_on_c, 10, 53, 0
14, 185888, Note_on_c, 10, 60, 0
14, 185888, Note_on_c, 10, 56, 0
14, 185904, Note_on_c, 10, 68, 0
14, 185932, Note_on_c, 10, 63, 0
14, 186240, Note_on_c, 10, 55, 63
14, 186240, Note_on_c, 10, 62, 68
14, 186240, Note_on_c, 10, 58, 71
14, 186240, Note_on_c, 10, 65, 63
14, 186240, Note_on_c, 10, 70, 63
14, 186256, Control_c, 10, 64, 0
14, 186260, Control_c, 10, 64, 127
14, 186260, Control_c, 10, 64, 0
14, 186700, Control_c, 10, 64, 127
14, 187820, Note_on_c, 10, 62, 0
14, 187828, Note_on_c, 10, 55, 0
14, 187836, Note_on_c, 10, 58, 0
14, 187840, Note_on_c, 10, 65, 0
14, 187876, Note_on_c, 10, 70, 0
14, 188160, Note_on_c, 10, 70, 59
14, 188160, Note_on_c, 10, 60, 79
14, 188160, Note_on_c, 10, 63, 73
14, 188160, Note_on_c, 10, 67, 76
14, 188160, Note_on_c, 10, 58, 59
14, 188180, Control_c, 10, 64, 0
14, 188616, Control_c, 10, 64, 127
14, 189664, Note_on_c, 10, 63, 0
14, 189676, Note_on_c, 10, 60, 0
14, 189680, Note_on_c, 10, 67, 0
14, 189708, Note_on_c, 10, 70, 0
14, 189720, Note_on_c, 10, 58, 0
14, 190080, Note_on_c, 10, 62, 79
14, 190080, Note_on_c, 10, 69, 76
14, 190080, Note_on_c, 10, 72, 79
14, 190080, Note_on_c, 10, 65, 63
14, 190080, Note_on_c, 10, 58, 71
14, 190100, Control_c, 10, 64, 0
14, 190108, Control_c, 10, 64, 127
14, 190112, Control_c, 10, 64, 0
14, 190580, Control_c, 10, 64, 127
14, 191216, Note_on_c, 10, 58, 0
14, 191280, Note_on_c, 10, 58, 63
14, 191632, Note_on_c, 10, 62, 0
14, 191676, Note_on_c, 10, 58, 0
14, 191700, Note_on_c, 10, 72, 0
14, 191708, Note_on_c, 10, 69, 0
14, 191732, Note_on_c, 10, 65, 0
14, 192000, Note_on_c, 10, 60, 68
14, 192000, Note_on_c, 10, 63, 68
14, 192000, Note_on_c, 10, 53, 68
14, 192000, Note_on_c, 10, 68, 68
14, 192000, Note_on_c, 10, 56, 51
14, 192044, Control_c, 10, 64, 0
14, 192044, Control_c, 10, 64, 127
14, 192048, Control_c, 10, 64, 0
14, 192428, Control_c, 10, 64, 127
14, 193592, Note_on_c, 10, 53, 0
14, 193604, Note_on_c, 10, 56, 0
14, 193608, Note_on_c, 10, 60, 0
14, 193644, Note_on_c, 10, 63, 0
14, 193652, Note_on_c, 10, 68, 0
14, 193920, Note_on_c, 10, 55, 68
14, 193920, Note_on_c, 10, 62, 73
14, 193920, Note_on_c, 10, 58, 51
14, 193920, Note_on_c, 10, 70, 68
14, 193920, Note_on_c, 10, 65, 68
14, 193956, Control_c, 10, 64, 0
14, 194384, Control_c, 10, 64, 127
14, 195540, Note_on_c, 10, 62, 0
14, 195564, Note_on_c, 10, 65, 0
14, 195576, Note_on_c, 10, 58, 0
14, 195580, Note_on_c, 10, 55, 0
14, 195596, Note_on_c, 10, 70, 0
14, 195808, Control_c, 10, 64, 0
14, 195812, Control_c, 10, 64, 127
14, 195816, Control_c, 10, 64, 127
14, 195816, Control_c, 10, 64, 0
14, 195824, Control_c, 10, 64, 0
14, 195840, Note_on_c, 10, 58, 59
14, 195840, Note_on_c, 10, 70, 59
14, 195840, Note_on_c, 10, 63, 68
14, 195840, Note_on_c, 10, 67, 79
14, 195840, Note_on_c, 10, 60, 73
14, 196316, Control_c, 10, 64, 127
14, 197372, Note_on_c, 10, 60, 0
14, 197372, Note_on_c, 10, 63, 0
14, 197376, Note_on_c, 10, 67, 0
14, 197396, Note_on_c, 10, 70, 0
14, 197396, Note_on_c, 10, 58, 0
14, 197760, Note_on_c, 10, 65, 63
14, 197760, Note_on_c, 10, 72, 73
14, 197760, Note_on_c, 10, 69, 79
14, 197760, Note_on_c, 10, 62, 73
14, 197760, Note_on_c, 10, 58, 63
14, 197844, Control_c, 10, 64, 0
14, 198208, Control_c, 10, 64, 127
14, 199236, Note_on_c, 10, 62, 0
14, 199268, Note_on_c, 10, 65, 0
14, 199280, Note_on_c, 10, 72, 0
14, 199288, Note_on_c, 10, 69, 0
14, 199288, Note_on_c, 10, 58, 0
14, 199680, Note_on_c, 10, 53, 68
14, 199680, Note_on_c, 10, 56, 63
14, 199680, Note_on_c, 10, 60, 63
14, 199680, Note_on_c, 10, 68, 68
14, 199680, Note_on_c, 10, 63, 68
14, 199700, Control_c, 10, 64, 0
14, 199700, Control_c, 10, 64, 127
14, 199704, Control_c, 10, 64, 0
14, 200168, Control_c, 10, 64, 127
14, 201304, Note_on_c, 10, 56, 0
14, 201312, Note_on_c, 10, 53, 0
14, 201312, Note_on_c, 10, 60, 0
14, 201340, Note_on_c, 10, 68, 0
14, 201352, Note_on_c, 10, 63, 0
14, 201600, Note_on_c, 10, 62, 73
14, 201600, Note_on_c, 10, 58, 55
14, 201600, Note_on_c, 10, 70, 73
14, 201600, Note_on_c, 10, 55, 73
14, 201600, Note_on_c, 10, 65, 73
14, 201632, Control_c, 10, 64, 0
14, 202108, Control_c, 10, 64, 127
14, 203200, Note_on_c, 10, 62, 0
14, 203216, Note_on_c, 10, 58, 0
14, 203224, Note_on_c, 10, 65, 0
14, 203236, Note_on_c, 10, 55, 0
14, 203260, Note_on_c, 10, 70, 0
14, 203476, Control_c, 10, 64, 0
14, 203520, Note_on_c, 10, 67, 73
14, 203520, Note_on_c, 10, 63, 59
14, 203520, Note_on_c, 10, 58, 47
14, 203520, Note_on_c, 10, 60, 73
14, 203520, Note_on_c, 10, 70, 47
14, 204028, Control_c, 10, 64, 127
14, 205040, Note_on_c, 10, 63, 0
14, 205052, Note_on_c, 10, 67, 0
14, 205072, Note_on_c, 10, 60, 0
14, 205088, Note_on_c, 10, 70, 0
14, 205092, Note_on_c, 10, 58, 0
14, 205420, Control_c, 10, 64, 0
14, 205424, Control_c, 10, 64, 127
14, 205428, Control_c, 10, 64, 0
14, 205440, Note_on_c, 10, 72, 79
14, 205440, Note_on_c, 10, 65, 59
14, 205440, Note_on_c, 10, 69, 68
14, 205440, Note_on_c, 10, 62, 68
14, 205440, Note_on_c, 10, 58, 51
14, 205928, Control_c, 10, 64, 127
14, 206928, Note_on_c, 10, 62, 0
14, 206956, Note_on_c, 10, 72, 0
14, 206960, Note_on_c, 10, 65, 0
14, 206960, Note_on_c, 10, 69, 0
14, 206964, Note_on_c, 10, 58, 0
14, 207360, Note_on_c, 10, 60, 76
14, 207360, Note_on_c, 10, 68, 79
14, 207360, Note_on_c, 10, 63, 74
14, 207360, Note_on_c, 10, 56, 65
14, 207360, Note_on_c, 10, 53, 73
14, 207376, Control_c, 10, 64, 0
14, 207900, Control_c, 10, 64, 127
14, 208272, Control_c, 10, 64, 0
14, 208276, Control_c, 10, 64, 127
14, 208896, Note_on_c, 10, 60, 0
14, 208908, Note_on_c, 10, 56, 0
14, 208920, Note_on_c, 10, 53, 0
14, 208932, Note_on_c, 10, 68, 0
14, 208940, Note_on_c, 10, 63, 0
14, 209280, Note_on_c, 10, 62, 79
14, 209280, Note_on_c, 10, 55, 68
14, 209280, Note_on_c, 10, 65, 86
14, 209280, Note_on_c, 10, 58, 59
14, 209280, Note_on_c, 10, 70, 86
14, 209296, Control_c, 10, 64, 0
14, 209780, Control_c, 10, 64, 127
14, 210852, Note_on_c, 10, 62, 0
14, 210860, Note_on_c, 10, 58, 0
14, 210860, Note_on_c, 10, 65, 0
14, 210880, Note_on_c, 10, 55, 0
14, 210900, Note_on_c, 10, 70, 0
14, 211144, Control_c, 10, 64, 0
14, 211148, Control_c, 10, 64, 127
14, 211152, Control_c, 10, 64, 0
14, 211152, Control_c, 10, 64, 127
14, 211156, Control_c, 10, 64, 0
14, 211200, Note_on_c, 10, 63, 73
14, 211200, Note_on_c, 10, 67, 73
14, 211200, Note_on_c, 10, 58, 55
14, 211200, Note_on_c, 10, 60, 79
14, 211200, Note_on_c, 10, 70, 68
14, 211688, Control_c, 10, 64, 127
14, 212756, Note_on_c, 10, 63, 0
14, 212768, Note_on_c, 10, 67, 0
14, 212772, Note_on_c, 10, 60, 0
14, 212796, Note_on_c, 10, 58, 0
14, 212808, Note_on_c, 10, 70, 0
14, 213096, Control_c, 10, 64, 0
14, 213096, Control_c, 10, 64, 127
14, 213100, Control_c, 10, 64, 0
14, 213640, Control_c, 10, 64, 127
14, 215012, Control_c, 10, 64, 0
14, 215016, Control_c, 10, 64, 127
14, 215032, Control_c, 10, 64, 0
14, 215032, End_track
15, 0, Start_track
15, 0, Title_t, "strings 4"
15, 0, Program_c, 11, 89
15, 0, Control_c, 11, 7, 52
15, 0, Control_c, 11, 10, 127
15, 0, Control_c, 11, 91, 80
15, 0, Control_c, 11, 93, 31
15, 0, Control_c, 11, 123, 0
15, 3900, Note_on_c, 11, 67, 76
15, 3900, Note_on_c, 11, 70, 69
15, 3900, Note_on_c, 11, 63, 69
15, 3900, Note_on_c, 11, 58, 75
15, 3900, Note_on_c, 11, 60, 74
15, 4428, Control_c, 11, 64, 127
15, 5356, Note_on_c, 11, 63, 0
15, 5380, Note_on_c, 11, 58, 0
15, 5388, Note_on_c, 11, 67, 0
15, 5392, Note_on_c, 11, 60, 0
15, 5396, Note_on_c, 11, 70, 0
15, 5744, Control_c, 11, 64, 0
15, 5760, Note_on_c, 11, 62, 73
15, 5760, Note_on_c, 11, 72, 78
15, 5760, Note_on_c, 11, 65, 75
15, 5760, Note_on_c, 11, 69, 73
15, 5760, Note_on_c, 11, 58, 74
15, 5780, Control_c, 11, 64, 127
15, 5792, Control_c, 11, 64, 0
15, 5796, Control_c, 11, 64, 127
15, 5800, Control_c, 11, 64, 0
15, 5980, Control_c, 11, 64, 127
15, 7244, Note_on_c, 11, 62, 0
15, 7304, Note_on_c, 11, 65, 0
15, 7312, Note_on_c, 11, 72, 0
15, 7316, Note_on_c, 11, 58, 0
15, 7324, Note_on_c, 11, 69, 0
15, 7636, Control_c, 11, 64, 0
15, 7644, Control_c, 11, 64, 0
15, 7644, Control_c, 11, 64, 127
15, 7680, Note_on_c, 11, 60, 86
15, 7680, Note_on_c, 11, 68, 79
15, 7680, Note_on_c, 11, 63, 86
15, 7680, Note_on_c, 11, 53, 73
15, 7680, Note_on_c, 11, 56, 68
15, 8144, Control_c, 11, 64, 127
15, 9280, Note_on_c, 11, 60, 0
15, 9292, Note_on_c, 11, 53, 0
15, 9308, Note_on_c, 11, 56, 0
15, 9320, Note_on_c, 11, 68, 0
15, 9328, Note_on_c, 11, 63, 0
15, 9600, Note_on_c, 11, 62, 73
15, 9600, Note_on_c, 11, 65, 73
15, 9600, Note_on_c, 11, 58, 63
15, 9600, Note_on_c, 11, 55, 59
15, 9600, Note_on_c, 11, 70, 79
15, 9616, Control_c, 11, 64, 0
15, 10084, Control_c, 11, 64, 127
15, 11224, Note_on_c, 11, 62, 0
15, 11236, Note_on_c, 11, 65, 0
15, 11240, Note_on_c, 11, 55, 0
15, 11252, Note_on_c, 11, 58, 0
15, 11268, Note_on_c, 11, 70, 0
15, 11484, Control_c, 11, 64, 0
15, 11492, Control_c, 11, 64, 127
15, 11496, Control_c, 11, 64, 0
15, 11520, Note_on_c, 11, 63, 68
15, 11520, Note_on_c, 11, 60, 79
15, 11520, Note_on_c, 11, 58, 47
15, 11520, Note_on_c, 11, 67, 86
15, 11520, Note_on_c, 11, 70, 59
15, 12040, Control_c, 11, 64, 127
15, 13016, Note_on_c, 11, 63, 0
15, 13056, Note_on_c, 11, 67, 0
15, 13068, Note_on_c, 11, 70, 0
15, 13072, Note_on_c, 11, 60, 0
15, 13084, Note_on_c, 11, 58, 0
15, 13440, Note_on_c, 11, 72, 73
15, 13440, Note_on_c, 11, 62, 79
15, 13440, Note_on_c, 11, 58, 55
15, 13440, Note_on_c, 11, 65, 59
15, 13440, Note_on_c, 11, 69, 79
15, 13456, Control_c, 11, 64, 0
15, 13948, Control_c, 11, 64, 127
15, 14956, Note_on_c, 11, 62, 0
15, 14976, Note_on_c, 11, 72, 0
15, 14992, Note_on_c, 11, 65, 0
15, 14992, Note_on_c, 11, 69, 0
15, 14996, Note_on_c, 11, 58, 0
15, 15356, Control_c, 11, 64, 0
15, 15360, Note_on_c, 11, 68, 73
15, 15360, Note_on_c, 11, 60, 68
15, 15360, Note_on_c, 11, 53, 73
15, 15360, Note_on_c, 11, 63, 79
15, 15360, Note_on_c, 11, 56, 63
15, 15860, Control_c, 11, 64, 127
15, 16940, Note_on_c, 11, 53, 0
15, 16940, Note_on_c, 11, 60, 0
15, 16952, Note_on_c, 11, 56, 0
15, 16952, Note_on_c, 11, 68, 0
15, 16968, Note_on_c, 11, 63, 0
15, 17280, Note_on_c, 11, 62, 59
15, 17280, Note_on_c, 11, 58, 44
15, 17280, Note_on_c, 11, 65, 73
15, 17280, Note_on_c, 11, 70, 73
15, 17280, Note_on_c, 11, 55, 63
15, 17300, Control_c, 11, 64, 0
15, 17780, Control_c, 11, 64, 127
15, 18844, Note_on_c, 11, 62, 0
15, 18876, Note_on_c, 11, 65, 0
15, 18892, Note_on_c, 11, 55, 0
15, 18900, Note_on_c, 11, 70, 0
15, 18908, Note_on_c, 11, 58, 0
15, 19140, Control_c, 11, 64, 0
15, 19148, Control_c, 11, 64, 127
15, 19148, Control_c, 11, 64, 0
15, 19152, Control_c, 11, 64, 127
15, 19156, Control_c, 11, 64, 0
15, 19200, Note_on_c, 11, 60, 73
15, 19200, Note_on_c, 11, 70, 79
15, 19200, Note_on_c, 11, 67, 73
15, 19200, Note_on_c, 11, 63, 79
15, 19200, Note_on_c, 11, 58, 68
15, 19692, Control_c, 11, 64, 127
15, 20472, Note_on_c, 11, 63, 0
15, 20616, Note_on_c, 11, 60, 0
15, 20640, Note_on_c, 11, 67, 0
15, 20660, Note_on_c, 11, 70, 0
15, 20676, Note_on_c, 11, 58, 0
15, 21120, Note_on_c, 11, 62, 73
15, 21120, Note_on_c, 11, 69, 68
15, 21120, Note_on_c, 11, 65, 59
15, 21120, Note_on_c, 11, 72, 73
15, 21120, Note_on_c, 11, 58, 41
15, 21132, Control_c, 11, 64, 0
15, 21596, Control_c, 11, 64, 127
15, 22564, Note_on_c, 11, 62, 0
15, 22592, Note_on_c, 11, 69, 0
15, 22596, Note_on_c, 11, 72, 0
15, 22596, Note_on_c, 11, 65, 0
15, 22604, Note_on_c, 11, 58, 0
15, 23004, Control_c, 11, 64, 0
15, 23012, Control_c, 11, 64, 127
15, 23012, Control_c, 11, 64, 0
15, 23040, Note_on_c, 11, 68, 79
15, 23040, Note_on_c, 11, 60, 79
15, 23040, Note_on_c, 11, 53, 73
15, 23040, Note_on_c, 11, 63, 94
15, 23040, Note_on_c, 11, 56, 59
15, 23556, Control_c, 11, 64, 127
15, 24536, Note_on_c, 11, 60, 0
15, 24548, Note_on_c, 11, 56, 0
15, 24552, Note_on_c, 11, 53, 0
15, 24564, Note_on_c, 11, 68, 0
15, 24576, Note_on_c, 11, 63, 0
15, 24940, Control_c, 11, 64, 0
15, 24960, Note_on_c, 11, 62, 68
15, 24960, Note_on_c, 11, 58, 47
15, 24960, Note_on_c, 11, 70, 73
15, 24960, Note_on_c, 11, 55, 73
15, 24960, Note_on_c, 11, 65, 73
15, 25420, Control_c, 11, 64, 127
15, 26576, Note_on_c, 11, 62, 0
15, 26596, Note_on_c, 11, 65, 0
15, 26624, Note_on_c, 11, 70, 0
15, 26636, Note_on_c, 11, 58, 0
15, 26652, Note_on_c, 11, 55, 0
15, 26880, Note_on_c, 11, 67, 86
15, 26880, Note_on_c, 11, 58, 51
15, 26880, Note_on_c, 11, 63, 63
15, 26880, Note_on_c, 11, 70, 55
15, 26880, Note_on_c, 11, 60, 79
15, 26920, Control_c, 11, 64, 0
15, 27344, Control_c, 11, 64, 127
15, 28356, Note_on_c, 11, 63, 0
15, 28376, Note_on_c, 11, 60, 0
15, 28376, Note_on_c, 11, 67, 0
15, 28392, Note_on_c, 11, 70, 0
15, 28404, Note_on_c, 11, 58, 0
15, 28800, Note_on_c, 11, 62, 86
15, 28800, Note_on_c, 11, 69, 68
15, 28800, Note_on_c, 11, 65, 63
15, 28800, Note_on_c, 11, 72, 73
15, 28800, Note_on_c, 11, 58, 63
15, 28824, Control_c, 11, 64, 0
15, 28828, Control_c, 11, 64, 0
15, 28828, Control_c, 11, 64, 127
15, 29200, Control_c, 11, 64, 127
15, 30292, Note_on_c, 11, 62, 0
15, 30356, Note_on_c, 11, 72, 0
15, 30356, Note_on_c, 11, 58, 0
15, 30360, Note_on_c, 11, 69, 0
15, 30376, Note_on_c, 11, 65, 0
15, 30660, Control_c, 11, 64, 0
15, 30720, Note_on_c, 11, 68, 79
15, 30720, Note_on_c, 11, 60, 68
15, 30720, Note_on_c, 11, 63, 86
15, 30720, Note_on_c, 11, 56, 55
15, 30720, Note_on_c, 11, 53, 79
15, 31228, Control_c, 11, 64, 127
15, 32292, Note_on_c, 11, 60, 0
15, 32292, Note_on_c, 11, 68, 0
15, 32308, Note_on_c, 11, 56, 0
15, 32312, Note_on_c, 11, 53, 0
15, 32328, Note_on_c, 11, 63, 0
15, 32640, Note_on_c, 11, 55, 63
15, 32640, Note_on_c, 11, 65, 79
15, 32640, Note_on_c, 11, 70, 86
15, 32640, Note_on_c, 11, 58, 63
15, 32640, Note_on_c, 11, 62, 86
15, 32656, Control_c, 11, 64, 0
15, 33100, Control_c, 11, 64, 127
15, 34212, Note_on_c, 11, 65, 0
15, 34212, Note_on_c, 11, 55, 0
15, 34216, Note_on_c, 11, 58, 0
15, 34216, Note_on_c, 11, 62, 0
15, 34244, Note_on_c, 11, 70, 0
15, 34496, Control_c, 11, 64, 0
15, 34508, Control_c, 11, 64, 127
15, 34508, Control_c, 11, 64, 0
15, 34560, Note_on_c, 11, 67, 79
15, 34560, Note_on_c, 11, 63, 79
15, 34560, Note_on_c, 11, 70, 63
15, 34560, Note_on_c, 11, 60, 79
15, 34560, Note_on_c, 11, 58, 73
15, 35072, Control_c, 11, 64, 127
15, 36044, Note_on_c, 11, 63, 0
15, 36060, Note_on_c, 11, 67, 0
15, 36064, Note_on_c, 11, 60, 0
15, 36084, Note_on_c, 11, 70, 0
15, 36088, Note_on_c, 11, 58, 0
15, 36468, Control_c, 11, 64, 0
15, 36480, Note_on_c, 11, 65, 63
15, 36480, Note_on_c, 11, 62, 73
15, 36480, Note_on_c, 11, 72, 79
15, 36480, Note_on_c, 11, 69, 79
15, 36480, Note_on_c, 11, 58, 44
15, 36808, Control_c, 11, 64, 127
15, 38076, Note_on_c, 11, 62, 0
15, 38104, Note_on_c, 11, 69, 0
15, 38104, Note_on_c, 11, 58, 0
15, 38108, Note_on_c, 11, 72, 0
15, 38112, Note_on_c, 11, 65, 0
15, 38400, Note_on_c, 11, 56, 63
15, 38400, Note_on_c, 11, 53, 86
15, 38400, Note_on_c, 11, 63, 79
15, 38400, Note_on_c, 11, 68, 73
15, 38400, Note_on_c, 11, 60, 86
15, 38440, Control_c, 11, 64, 0
15, 38888, Control_c, 11, 64, 127
15, 39900, Note_on_c, 11, 60, 0
15, 39904, Note_on_c, 11, 56, 0
15, 39904, Note_on_c, 11, 53, 0
15, 39932, Note_on_c, 11, 63, 0
15, 39936, Note_on_c, 11, 68, 0
15, 40316, Control_c, 11, 64, 0
15, 40320, Note_on_c, 11, 62, 73
15, 40320, Note_on_c, 11, 55, 73
15, 40320, Note_on_c, 11, 65, 79
15, 40320, Note_on_c, 11, 58, 55
15, 40320, Note_on_c, 11, 70, 55
15, 40784, Channel_aftertouch_c, 11, 0
15, 40796, Control_c, 11, 64, 127
15, 40848, Channel_aftertouch_c, 11, 2
15, 40976, Channel_aftertouch_c, 11, 0
15, 41824, Note_on_c, 11, 62, 0
15, 41848, Note_on_c, 11, 65, 0
15, 41876, Note_on_c, 11, 55, 0
15, 41892, Note_on_c, 11, 58, 0
15, 41896, Note_on_c, 11, 70, 0
15, 42240, Note_on_c, 11, 63, 59
15, 42240, Note_on_c, 11, 67, 79
15, 42240, Note_on_c, 11, 60, 79
15, 42240, Note_on_c, 11, 70, 59
15, 42240, Note_on_c, 11, 58, 44
15, 42240, Control_c, 11, 64, 0
15, 42732, Control_c, 11, 64, 127
15, 43684, Note_on_c, 11, 63, 0
15, 43704, Note_on_c, 11, 67, 0
15, 43708, Note_on_c, 11, 60, 0
15, 43720, Note_on_c, 11, 70, 0
15, 43764, Note_on_c, 11, 58, 0
15, 44136, Control_c, 11, 64, 0
15, 44160, Note_on_c, 11, 69, 73
15, 44160, Note_on_c, 11, 72, 73
15, 44160, Note_on_c, 11, 62, 79
15, 44160, Note_on_c, 11, 65, 68
15, 44160, Note_on_c, 11, 58, 47
15, 44648, Control_c, 11, 64, 127
15, 44680, Channel_aftertouch_c, 11, 2
15, 44712, Channel_aftertouch_c, 11, 6
15, 44832, Channel_aftertouch_c, 11, 4
15, 44876, Channel_aftertouch_c, 11, 0
15, 44888, Channel_aftertouch_c, 11, 0
15, 45088, Note_on_c, 11, 58, 0
15, 45120, Note_on_c, 11, 58, 51
15, 45724, Note_on_c, 11, 62, 0
15, 45736, Note_on_c, 11, 58, 0
15, 45752, Note_on_c, 11, 69, 0
15, 45752, Note_on_c, 11, 72, 0
15, 45772, Note_on_c, 11, 65, 0
15, 46064, Control_c, 11, 64, 0
15, 46080, Note_on_c, 11, 60, 68
15, 46080, Note_on_c, 11, 56, 59
15, 46080, Note_on_c, 11, 53, 79
15, 46080, Note_on_c, 11, 68, 59
15, 46080, Note_on_c, 11, 63, 63
15, 46556, Control_c, 11, 64, 127
15, 47708, Note_on_c, 11, 53, 0
15, 47712, Note_on_c, 11, 60, 0
15, 47712, Note_on_c, 11, 56, 0
15, 47744, Note_on_c, 11, 68, 0
15, 47748, Note_on_c, 11, 63, 0
15, 48000, Note_on_c, 11, 55, 73
15, 48000, Note_on_c, 11, 58, 44
15, 48000, Note_on_c, 11, 62, 73
15, 48000, Note_on_c, 11, 65, 79
15, 48000, Note_on_c, 11, 70, 86
15, 48012, Control_c, 11, 64, 0
15, 48476, Control_c, 11, 64, 127
15, 49548, Note_on_c, 11, 62, 0
15, 49552, Note_on_c, 11, 58, 0
15, 49556, Note_on_c, 11, 55, 0
15, 49560, Note_on_c, 11, 65, 0
15, 49592, Note_on_c, 11, 70, 0
15, 49828, Control_c, 11, 64, 0
15, 49836, Control_c, 11, 64, 127
15, 49836, Control_c, 11, 64, 0
15, 49920, Note_on_c, 11, 67, 79
15, 49920, Note_on_c, 11, 60, 76
15, 49920, Note_on_c, 11, 63, 76
15, 49920, Note_on_c, 11, 70, 73
15, 49920, Note_on_c, 11, 58, 76
15, 50424, Control_c, 11, 64, 127
15, 51372, Note_on_c, 11, 63, 0
15, 51396, Note_on_c, 11, 67, 0
15, 51408, Note_on_c, 11, 60, 0
15, 51428, Note_on_c, 11, 70, 0
15, 51456, Note_on_c, 11, 58, 0
15, 51840, Note_on_c, 11, 58, 55
15, 51840, Note_on_c, 11, 65, 68
15, 51840, Note_on_c, 11, 72, 79
15, 51840, Note_on_c, 11, 69, 68
15, 51840, Note_on_c, 11, 62, 73
15, 51856, Control_c, 11, 64, 0
15, 52324, Control_c, 11, 64, 127
15, 53336, Note_on_c, 11, 62, 0
15, 53372, Note_on_c, 11, 58, 0
15, 53380, Note_on_c, 11, 72, 0
15, 53388, Note_on_c, 11, 65, 0
15, 53388, Note_on_c, 11, 69, 0
15, 53760, Note_on_c, 11, 68, 79
15, 53760, Note_on_c, 11, 60, 86
15, 53760, Note_on_c, 11, 53, 73
15, 53760, Note_on_c, 11, 63, 79
15, 53760, Note_on_c, 11, 56, 55
15, 53776, Control_c, 11, 64, 0
15, 54248, Control_c, 11, 64, 127
15, 55344, Note_on_c, 11, 53, 0
15, 55364, Note_on_c, 11, 56, 0
15, 55376, Note_on_c, 11, 60, 0
15, 55408, Note_on_c, 11, 68, 0
15, 55412, Note_on_c, 11, 63, 0
15, 55680, Note_on_c, 11, 62, 79
15, 55680, Note_on_c, 11, 58, 63
15, 55680, Note_on_c, 11, 55, 68
15, 55680, Note_on_c, 11, 65, 79
15, 55680, Note_on_c, 11, 70, 73
15, 55704, Control_c, 11, 64, 0
15, 56156, Control_c, 11, 64, 127
15, 57272, Note_on_c, 11, 58, 0
15, 57280, Note_on_c, 11, 55, 0
15, 57292, Note_on_c, 11, 62, 0
15, 57300, Note_on_c, 11, 65, 0
15, 57336, Note_on_c, 11, 70, 0
15, 57564, Control_c, 11, 64, 127
15, 57564, Control_c, 11, 64, 0
15, 57572, Control_c, 11, 64, 0
15, 57600, Note_on_c, 11, 67, 86
15, 57600, Note_on_c, 11, 58, 73
15, 57600, Note_on_c, 11, 70, 55
15, 57600, Note_on_c, 11, 63, 68
15, 57600, Note_on_c, 11, 60, 86
15, 58064, Control_c, 11, 64, 127
15, 59108, Note_on_c, 11, 63, 0
15, 59120, Note_on_c, 11, 60, 0
15, 59140, Note_on_c, 11, 67, 0
15, 59148, Note_on_c, 11, 70, 0
15, 59156, Note_on_c, 11, 58, 0
15, 59520, Note_on_c, 11, 62, 73
15, 59520, Note_on_c, 11, 65, 73
15, 59520, Note_on_c, 11, 69, 73
15, 59520, Note_on_c, 11, 72, 79
15, 59520, Note_on_c, 11, 58, 63
15, 59536, Control_c, 11, 64, 0
15, 59960, Control_c, 11, 64, 127
15, 61028, Note_on_c, 11, 62, 0
15, 61064, Note_on_c, 11, 65, 0
15, 61064, Note_on_c, 11, 58, 0
15, 61064, Note_on_c, 11, 69, 0
15, 61068, Note_on_c, 11, 72, 0
15, 61368, Control_c, 11, 64, 0
15, 61376, Control_c, 11, 64, 0
15, 61376, Control_c, 11, 64, 127
15, 61440, Note_on_c, 11, 63, 74
15, 61440, Note_on_c, 11, 68, 76
15, 61440, Note_on_c, 11, 60, 76
15, 61440, Note_on_c, 11, 53, 73
15, 61440, Note_on_c, 11, 56, 68
15, 61900, Control_c, 11, 64, 127
15, 62976, Note_on_c, 11, 53, 0
15, 62980, Note_on_c, 11, 60, 0
15, 62980, Note_on_c, 11, 56, 0
15, 63004, Note_on_c, 11, 68, 0
15, 63016, Note_on_c, 11, 63, 0
15, 63320, Control_c, 11, 64, 0
15, 63324, Control_c, 11, 64, 127
15, 63328, Control_c, 11, 64, 127
15, 63328, Control_c, 11, 64, 0
15, 63332, Control_c, 11, 64, 0
15, 63360, Note_on_c, 11, 58, 51
15, 63360, Note_on_c, 11, 62, 68
15, 63360, Note_on_c, 11, 55, 68
15, 63360, Note_on_c, 11, 70, 73
15, 63360, Note_on_c, 11, 65, 73
15, 63828, Control_c, 11, 64, 127
15, 64896, Note_on_c, 11, 55, 0
15, 64900, Note_on_c, 11, 62, 0
15, 64908, Note_on_c, 11, 65, 0
15, 64912, Note_on_c, 11, 58, 0
15, 64956, Note_on_c, 11, 70, 0
15, 65208, Control_c, 11, 64, 0
15, 65208, Control_c, 11, 64, 127
15, 65216, Control_c, 11, 64, 0
15, 65280, Note_on_c, 11, 70, 63
15, 65280, Note_on_c, 11, 63, 73
15, 65280, Note_on_c, 11, 67, 73
15, 65280, Note_on_c, 11, 60, 79
15, 65280, Note_on_c, 11, 58, 55
15, 65744, Control_c, 11, 64, 127
15, 66796, Note_on_c, 11, 63, 0
15, 66816, Note_on_c, 11, 67, 0
15, 66824, Note_on_c, 11, 60, 0
15, 66832, Note_on_c, 11, 70, 0
15, 66848, Note_on_c, 11, 58, 0
15, 67200, Note_on_c, 11, 69, 79
15, 67200, Note_on_c, 11, 65, 63
15, 67200, Note_on_c, 11, 72, 86
15, 67200, Note_on_c, 11, 62, 79
15, 67200, Note_on_c, 11, 58, 59
15, 67220, Control_c, 11, 64, 0
15, 67688, Control_c, 11, 64, 127
15, 68684, Note_on_c, 11, 62, 0
15, 68700, Note_on_c, 11, 72, 0
15, 68704, Note_on_c, 11, 69, 0
15, 68712, Note_on_c, 11, 58, 0
15, 68724, Note_on_c, 11, 65, 0
15, 69072, Control_c, 11, 64, 0
15, 69076, Control_c, 11, 64, 127
15, 69076, Control_c, 11, 64, 0
15, 69084, Control_c, 11, 64, 127
15, 69084, Control_c, 11, 64, 0
15, 69120, Note_on_c, 11, 68, 73
15, 69120, Note_on_c, 11, 60, 68
15, 69120, Note_on_c, 11, 56, 51
15, 69120, Note_on_c, 11, 53, 79
15, 69120, Note_on_c, 11, 63, 79
15, 69576, Control_c, 11, 64, 127
15, 70708, Note_on_c, 11, 53, 0
15, 70716, Note_on_c, 11, 60, 0
15, 70720, Note_on_c, 11, 56, 0
15, 70748, Note_on_c, 11, 68, 0
15, 70748, Note_on_c, 11, 63, 0
15, 71004, Control_c, 11, 64, 0
15, 71008, Control_c, 11, 64, 0
15, 71008, Control_c, 11, 64, 127
15, 71020, Control_c, 11, 64, 127
15, 71020, Control_c, 11, 64, 0
15, 71040, Note_on_c, 11, 55, 68
15, 71040, Note_on_c, 11, 62, 68
15, 71040, Note_on_c, 11, 65, 68
15, 71040, Note_on_c, 11, 70, 73
15, 71040, Note_on_c, 11, 58, 63
15, 71516, Control_c, 11, 64, 127
15, 72572, Note_on_c, 11, 62, 0
15, 72584, Note_on_c, 11, 55, 0
15, 72588, Note_on_c, 11, 65, 0
15, 72592, Note_on_c, 11, 58, 0
15, 72620, Note_on_c, 11, 70, 0
15, 72936, Control_c, 11, 64, 0
15, 72940, Control_c, 11, 64, 127
15, 72948, Control_c, 11, 64, 0
15, 72960, Note_on_c, 11, 67, 79
15, 72960, Note_on_c, 11, 63, 63
15, 72960, Note_on_c, 11, 70, 51
15, 72960, Note_on_c, 11, 60, 79
15, 72960, Note_on_c, 11, 58, 59
15, 73400, Control_c, 11, 64, 127
15, 74504, Note_on_c, 11, 60, 0
15, 74504, Note_on_c, 11, 63, 0
15, 74508, Note_on_c, 11, 67, 0
15, 74532, Note_on_c, 11, 70, 0
15, 74540, Note_on_c, 11, 58, 0
15, 74856, Control_c, 11, 64, 0
15, 74864, Control_c, 11, 64, 127
15, 74864, Control_c, 11, 64, 0
15, 74880, Note_on_c, 11, 62, 73
15, 74880, Note_on_c, 11, 69, 79
15, 74880, Note_on_c, 11, 72, 73
15, 74880, Note_on_c, 11, 65, 51
15, 74880, Note_on_c, 11, 58, 55
15, 75304, Control_c, 11, 64, 127
15, 76352, Note_on_c, 11, 62, 0
15, 76392, Note_on_c, 11, 65, 0
15, 76396, Note_on_c, 11, 69, 0
15, 76396, Note_on_c, 11, 72, 0
15, 76400, Note_on_c, 11, 58, 0
15, 76776, Control_c, 11, 64, 0
15, 76800, Note_on_c, 11, 68, 73
15, 76800, Note_on_c, 11, 60, 68
15, 76800, Note_on_c, 11, 56, 55
15, 76800, Note_on_c, 11, 63, 86
15, 76800, Note_on_c, 11, 53, 79
15, 77244, Control_c, 11, 64, 127
15, 78344, Note_on_c, 11, 60, 0
15, 78360, Note_on_c, 11, 56, 0
15, 78364, Note_on_c, 11, 53, 0
15, 78376, Note_on_c, 11, 68, 0
15, 78392, Note_on_c, 11, 63, 0
15, 78720, Note_on_c, 11, 62, 79
15, 78720, Note_on_c, 11, 55, 73
15, 78720, Note_on_c, 11, 65, 79
15, 78720, Note_on_c, 11, 70, 73
15, 78720, Note_on_c, 11, 58, 73
15, 78788, Control_c, 11, 64, 0
15, 78788, Control_c, 11, 64, 127
15, 78792, Control_c, 11, 64, 0
15, 78800, Control_c, 11, 64, 127
15, 78800, Control_c, 11, 64, 0
15, 79160, Control_c, 11, 64, 127
15, 80288, Note_on_c, 11, 62, 0
15, 80308, Note_on_c, 11, 65, 0
15, 80320, Note_on_c, 11, 58, 0
15, 80320, Note_on_c, 11, 55, 0
15, 80340, Note_on_c, 11, 70, 0
15, 80640, Note_on_c, 11, 60, 79
15, 80640, Note_on_c, 11, 63, 73
15, 80640, Note_on_c, 11, 67, 79
15, 80640, Note_on_c, 11, 70, 51
15, 80640, Note_on_c, 11, 58, 63
15, 80640, Control_c, 11, 64, 0
15, 81100, Control_c, 11, 64, 127
15, 82220, Note_on_c, 11, 63, 0
15, 82236, Note_on_c, 11, 60, 0
15, 82248, Note_on_c, 11, 67, 0
15, 82280, Note_on_c, 11, 70, 0
15, 82280, Note_on_c, 11, 58, 0
15, 82560, Note_on_c, 11, 62, 68
15, 82560, Note_on_c, 11, 69, 79
15, 82560, Note_on_c, 11, 65, 73
15, 82560, Note_on_c, 11, 72, 86
15, 82560, Note_on_c, 11, 58, 68
15, 82564, Control_c, 11, 64, 0
15, 83048, Control_c, 11, 64, 127
15, 84064, Note_on_c, 11, 62, 0
15, 84100, Note_on_c, 11, 72, 0
15, 84104, Note_on_c, 11, 69, 0
15, 84116, Note_on_c, 11, 58, 0
15, 84124, Note_on_c, 11, 65, 0
15, 84456, Control_c, 11, 64, 0
15, 84480, Note_on_c, 11, 68, 73
15, 84480, Note_on_c, 11, 53, 79
15, 84480, Note_on_c, 11, 60, 79
15, 84480, Note_on_c, 11, 56, 55
15, 84480, Note_on_c, 11, 63, 79
15, 84952, Control_c, 11, 64, 127
15, 86072, Note_on_c, 11, 60, 0
15, 86088, Note_on_c, 11, 53, 0
15, 86092, Note_on_c, 11, 56, 0
15, 86112, Note_on_c, 11, 68, 0
15, 86116, Note_on_c, 11, 63, 0
15, 86400, Note_on_c, 11, 62, 63
15, 86400, Note_on_c, 11, 58, 47
15, 86400, Note_on_c, 11, 55, 68
15, 86400, Note_on_c, 11, 70, 68
15, 86400, Note_on_c, 11, 65, 73
15, 86420, Control_c, 11, 64, 0
15, 86432, Control_c, 11, 64, 127
15, 86436, Control_c, 11, 64, 0
15, 86436, Control_c, 11, 64, 127
15, 86440, Control_c, 11, 64, 0
15, 86848, Control_c, 11, 64, 127
15, 87896, Note_on_c, 11, 62, 0
15, 87920, Note_on_c, 11, 65, 0
15, 87928, Note_on_c, 11, 55, 0
15, 87936, Note_on_c, 11, 58, 0
15, 87956, Note_on_c, 11, 70, 0
15, 88260, Control_c, 11, 64, 0
15, 88320, Note_on_c, 11, 67, 76
15, 88320, Note_on_c, 11, 70, 74
15, 88320, Note_on_c, 11, 63, 68
15, 88320, Note_on_c, 11, 60, 73
15, 88320, Note_on_c, 11, 58, 77
15, 88808, Control_c, 11, 64, 127
15, 89860, Note_on_c, 11, 63, 0
15, 89876, Note_on_c, 11, 67, 0
15, 89880, Note_on_c, 11, 60, 0
15, 89896, Note_on_c, 11, 70, 0
15, 89928, Note_on_c, 11, 58, 0
15, 90240, Note_on_c, 11, 62, 79
15, 90240, Note_on_c, 11, 58, 79
15, 90240, Note_on_c, 11, 69, 76
15, 90240, Note_on_c, 11, 65, 68
15, 90240, Note_on_c, 11, 72, 79
15, 90276, Control_c, 11, 64, 0
15, 90280, Control_c, 11, 64, 127
15, 90284, Control_c, 11, 64, 0
15, 90288, Control_c, 11, 64, 127
15, 90292, Control_c, 11, 64, 0
15, 90308, Control_c, 11, 64, 127
15, 90312, Control_c, 11, 64, 0
15, 90708, Control_c, 11, 64, 127
15, 91720, Note_on_c, 11, 62, 0
15, 91756, Note_on_c, 11, 58, 0
15, 91776, Note_on_c, 11, 72, 0
15, 91776, Note_on_c, 11, 69, 0
15, 91780, Note_on_c, 11, 65, 0
15, 92160, Note_on_c, 11, 60, 68
15, 92160, Note_on_c, 11, 53, 73
15, 92160, Note_on_c, 11, 56, 55
15, 92160, Note_on_c, 11, 68, 59
15, 92160, Note_on_c, 11, 63, 73
15, 92176, Control_c, 11, 64, 0
15, 92184, Control_c, 11, 64, 127
15, 92184, Control_c, 11, 64, 0
15, 92636, Control_c, 11, 64, 127
15, 93736, Note_on_c, 11, 53, 0
15, 93740, Note_on_c, 11, 60, 0
15, 93744, Note_on_c, 11, 56, 0
15, 93780, Note_on_c, 11, 68, 0
15, 93784, Note_on_c, 11, 63, 0
15, 94080, Note_on_c, 11, 55, 68
15, 94080, Note_on_c, 11, 62, 63
15, 94080, Note_on_c, 11, 58, 47
15, 94080, Note_on_c, 11, 65, 73
15, 94080, Note_on_c, 11, 70, 68
15, 94096, Control_c, 11, 64, 0
15, 94556, Control_c, 11, 64, 127
15, 95740, Note_on_c, 11, 62, 0
15, 95760, Note_on_c, 11, 65, 0
15, 95772, Note_on_c, 11, 55, 0
15, 95772, Note_on_c, 11, 58, 0
15, 95800, Note_on_c, 11, 70, 0
15, 95984, Control_c, 11, 64, 0
15, 95988, Control_c, 11, 64, 127
15, 95988, Control_c, 11, 64, 0
15, 95996, Control_c, 11, 64, 0
15, 95996, Control_c, 11, 64, 127
15, 96000, Note_on_c, 11, 58, 55
15, 96000, Note_on_c, 11, 70, 59
15, 96000, Note_on_c, 11, 63, 68
15, 96000, Note_on_c, 11, 67, 79
15, 96000, Note_on_c, 11, 60, 79
15, 96488, Control_c, 11, 64, 127
15, 97540, Note_on_c, 11, 63, 0
15, 97552, Note_on_c, 11, 67, 0
15, 97560, Note_on_c, 11, 60, 0
15, 97576, Note_on_c, 11, 70, 0
15, 97576, Note_on_c, 11, 58, 0
15, 97920, Note_on_c, 11, 62, 68
15, 97920, Note_on_c, 11, 65, 59
15, 97920, Note_on_c, 11, 69, 68
15, 97920, Note_on_c, 11, 72, 73
15, 97920, Note_on_c, 11, 58, 63
15, 97940, Control_c, 11, 64, 0
15, 97944, Control_c, 11, 64, 127
15, 97944, Control_c, 11, 64, 0
15, 97948, Control_c, 11, 64, 127
15, 97952, Control_c, 11, 64, 0
15, 98388, Control_c, 11, 64, 127
15, 99408, Note_on_c, 11, 62, 0
15, 99448, Note_on_c, 11, 58, 0
15, 99460, Note_on_c, 11, 72, 0
15, 99464, Note_on_c, 11, 69, 0
15, 99468, Note_on_c, 11, 65, 0
15, 99828, Control_c, 11, 64, 0
15, 99828, Control_c, 11, 64, 127
15, 99840, Note_on_c, 11, 60, 79
15, 99840, Note_on_c, 11, 68, 73
15, 99840, Note_on_c, 11, 56, 63
15, 99840, Note_on_c, 11, 63, 74
15, 99840, Note_on_c, 11, 53, 79
15, 99856, Control_c, 11, 64, 0
15, 100340, Control_c, 11, 64, 127
15, 101348, Note_on_c, 11, 60, 0
15, 101368, Note_on_c, 11, 56, 0
15, 101376, Note_on_c, 11, 53, 0
15, 101388, Note_on_c, 11, 68, 0
15, 101412, Note_on_c, 11, 63, 0
15, 101692, Control_c, 11, 64, 0
15, 101696, Control_c, 11, 64, 127
15, 101696, Control_c, 11, 64, 0
15, 101700, Control_c, 11, 64, 127
15, 101708, Control_c, 11, 64, 0
15, 101760, Note_on_c, 11, 58, 63
15, 101760, Note_on_c, 11, 62, 79
15, 101760, Note_on_c, 11, 55, 68
15, 101760, Note_on_c, 11, 70, 68
15, 101760, Note_on_c, 11, 65, 73
15, 102248, Control_c, 11, 64, 127
15, 103292, Note_on_c, 11, 62, 0
15, 103316, Note_on_c, 11, 55, 0
15, 103320, Note_on_c, 11, 65, 0
15, 103320, Note_on_c, 11, 58, 0
15, 103348, Note_on_c, 11, 70, 0
15, 103652, Control_c, 11, 64, 0
15, 103652, Control_c, 11, 64, 127
15, 103660, Control_c, 11, 64, 0
15, 103680, Note_on_c, 11, 58, 68
15, 103680, Note_on_c, 11, 60, 79
15, 103680, Note_on_c, 11, 70, 68
15, 103680, Note_on_c, 11, 63, 79
15, 103680, Note_on_c, 11, 67, 86
15, 104176, Control_c, 11, 64, 127
15, 105120, Note_on_c, 11, 63, 0
15, 105152, Note_on_c, 11, 67, 0
15, 105164, Note_on_c, 11, 60, 0
15, 105168, Note_on_c, 11, 70, 0
15, 105192, Note_on_c, 11, 58, 0
15, 105568, Control_c, 11, 64, 0
15, 105572, Control_c, 11, 64, 127
15, 105576, Control_c, 11, 64, 0
15, 105600, Note_on_c, 11, 72, 68
15, 105600, Note_on_c, 11, 62, 79
15, 105600, Note_on_c, 11, 69, 79
15, 105600, Note_on_c, 11, 70, 59
15, 105600, Note_on_c, 11, 65, 68
15, 105600, Note_on_c, 11, 58, 47
15, 105728, Control_c, 11, 64, 127
15, 105832, Control_c, 11, 64, 0
15, 105848, Control_c, 11, 64, 127
15, 105848, Control_c, 11, 64, 0
15, 105860, Control_c, 11, 64, 127
15, 105864, Control_c, 11, 64, 0
15, 105892, Control_c, 11, 64, 127
15, 107080, Note_on_c, 11, 62, 0
15, 107120, Note_on_c, 11, 65, 0
15, 107120, Note_on_c, 11, 72, 0
15, 107120, Note_on_c, 11, 69, 0
15, 107128, Note_on_c, 11, 70, 0
15, 107140, Note_on_c, 11, 58, 0
15, 107488, Control_c, 11, 64, 0
15, 107492, Control_c, 11, 64, 127
15, 107496, Control_c, 11, 64, 0
15, 107496, Control_c, 11, 64, 127
15, 107504, Control_c, 11, 64, 0
15, 107520, Note_on_c, 11, 68, 73
15, 107520, Note_on_c, 11, 60, 73
15, 107520, Note_on_c, 11, 63, 86
15, 107520, Note_on_c, 11, 53, 73
15, 107520, Note_on_c, 11, 56, 63
15, 107988, Control_c, 11, 64, 127
15, 109060, Note_on_c, 11, 60, 0
15, 109072, Note_on_c, 11, 56, 0
15, 109080, Note_on_c, 11, 53, 0
15, 109092, Note_on_c, 11, 68, 0
15, 109100, Note_on_c, 11, 63, 0
15, 109420, Control_c, 11, 64, 0
15, 109432, Control_c, 11, 64, 127
15, 109440, Note_on_c, 11, 62, 68
15, 109440, Note_on_c, 11, 58, 63
15, 109440, Note_on_c, 11, 70, 79
15, 109440, Note_on_c, 11, 55, 73
15, 109440, Note_on_c, 11, 65, 73
15, 109456, Control_c, 11, 64, 0
15, 109940, Control_c, 11, 64, 127
15, 110944, Note_on_c, 11, 62, 0
15, 110976, Note_on_c, 11, 55, 0
15, 110980, Note_on_c, 11, 65, 0
15, 110984, Note_on_c, 11, 58, 0
15, 111008, Note_on_c, 11, 70, 0
15, 111316, Control_c, 11, 64, 0
15, 111324, Control_c, 11, 64, 0
15, 111324, Control_c, 11, 64, 127
15, 111360, Note_on_c, 11, 63, 73
15, 111360, Note_on_c, 11, 70, 63
15, 111360, Note_on_c, 11, 67, 86
15, 111360, Note_on_c, 11, 58, 47
15, 111360, Note_on_c, 11, 60, 86
15, 111860, Control_c, 11, 64, 127
15, 112868, Note_on_c, 11, 63, 0
15, 112888, Note_on_c, 11, 60, 0
15, 112892, Note_on_c, 11, 67, 0
15, 112904, Note_on_c, 11, 70, 0
15, 112916, Note_on_c, 11, 58, 0
15, 113252, Control_c, 11, 64, 0
15, 113256, Control_c, 11, 64, 127
15, 113260, Control_c, 11, 64, 0
15, 113260, Control_c, 11, 64, 127
15, 113260, Control_c, 11, 64, 0
15, 113280, Note_on_c, 11, 62, 73
15, 113280, Note_on_c, 11, 58, 73
15, 113280, Note_on_c, 11, 65, 68
15, 113280, Note_on_c, 11, 69, 68
15, 113280, Note_on_c, 11, 72, 73
15, 113776, Control_c, 11, 64, 127
15, 114772, Note_on_c, 11, 62, 0
15, 114832, Note_on_c, 11, 58, 0
15, 114860, Note_on_c, 11, 69, 0
15, 114860, Note_on_c, 11, 65, 0
15, 114860, Note_on_c, 11, 72, 0
15, 115200, Note_on_c, 11, 60, 73
15, 115200, Note_on_c, 11, 68, 73
15, 115200, Note_on_c, 11, 56, 59
15, 115200, Note_on_c, 11, 63, 94
15, 115200, Note_on_c, 11, 53, 79
15, 115216, Control_c, 11, 64, 0
15, 115644, Control_c, 11, 64, 127
15, 116744, Note_on_c, 11, 60, 0
15, 116760, Note_on_c, 11, 53, 0
15, 116760, Note_on_c, 11, 56, 0
15, 116764, Note_on_c, 11, 68, 0
15, 116788, Note_on_c, 11, 63, 0
15, 117096, Control_c, 11, 64, 0
15, 117100, Control_c, 11, 64, 127
15, 117104, Control_c, 11, 64, 0
15, 117120, Note_on_c, 11, 62, 79
15, 117120, Note_on_c, 11, 70, 79
15, 117120, Note_on_c, 11, 55, 68
15, 117120, Note_on_c, 11, 65, 73
15, 117120, Note_on_c, 11, 58, 59
15, 117588, Control_c, 11, 64, 127
15, 118768, Note_on_c, 11, 62, 0
15, 118780, Note_on_c, 11, 65, 0
15, 118792, Note_on_c, 11, 58, 0
15, 118792, Note_on_c, 11, 55, 0
15, 118820, Note_on_c, 11, 70, 0
15, 118964, Control_c, 11, 64, 0
15, 118976, Control_c, 11, 64, 127
15, 118980, Control_c, 11, 64, 0
15, 119040, Note_on_c, 11, 60, 73
15, 119040, Note_on_c, 11, 58, 59
15, 119040, Note_on_c, 11, 67, 79
15, 119040, Note_on_c, 11, 63, 68
15, 119040, Note_on_c, 11, 70, 63
15, 119540, Control_c, 11, 64, 127
15, 120552, Note_on_c, 11, 60, 0
15, 120564, Note_on_c, 11, 63, 0
15, 120592, Note_on_c, 11, 58, 0
15, 120596, Note_on_c, 11, 67, 0
15, 120608, Note_on_c, 11, 70, 0
15, 120936, Control_c, 11, 64, 0
15, 120960, Note_on_c, 11, 62, 68
15, 120960, Note_on_c, 11, 69, 68
15, 120960, Note_on_c, 11, 65, 73
15, 120960, Note_on_c, 11, 72, 68
15, 120960, Note_on_c, 11, 58, 68
15, 121428, Control_c, 11, 64, 127
15, 122456, Note_on_c, 11, 62, 0
15, 122508, Note_on_c, 11, 65, 0
15, 122512, Note_on_c, 11, 69, 0
15, 122512, Note_on_c, 11, 72, 0
15, 122512, Note_on_c, 11, 58, 0
15, 122832, Control_c, 11, 64, 0
15, 122840, Control_c, 11, 64, 127
15, 122844, Control_c, 11, 64, 0
15, 122880, Note_on_c, 11, 56, 59
15, 122880, Note_on_c, 11, 60, 68
15, 122880, Note_on_c, 11, 68, 73
15, 122880, Note_on_c, 11, 53, 73
15, 122880, Note_on_c, 11, 63, 73
15, 123348, Control_c, 11, 64, 127
15, 124452, Note_on_c, 11, 60, 0
15, 124468, Note_on_c, 11, 53, 0
15, 124468, Note_on_c, 11, 56, 0
15, 124484, Note_on_c, 11, 68, 0
15, 124504, Note_on_c, 11, 63, 0
15, 124800, Note_on_c, 11, 55, 68
15, 124800, Note_on_c, 11, 62, 86
15, 124800, Note_on_c, 11, 58, 59
15, 124800, Note_on_c, 11, 65, 79
15, 124800, Note_on_c, 11, 70, 79
15, 124820, Control_c, 11, 64, 0
15, 124828, Control_c, 11, 64, 127
15, 124832, Control_c, 11, 64, 0
15, 125272, Control_c, 11, 64, 127
15, 126384, Note_on_c, 11, 62, 0
15, 126400, Note_on_c, 11, 65, 0
15, 126400, Note_on_c, 11, 55, 0
15, 126404, Note_on_c, 11, 58, 0
15, 126436, Note_on_c, 11, 70, 0
15, 126700, Control_c, 11, 64, 0
15, 126700, Control_c, 11, 64, 127
15, 126704, Control_c, 11, 64, 0
15, 126720, Note_on_c, 11, 70, 63
15, 126720, Note_on_c, 11, 60, 79
15, 126720, Note_on_c, 11, 63, 73
15, 126720, Note_on_c, 11, 67, 86
15, 126720, Note_on_c, 11, 58, 63
15, 127212, Control_c, 11, 64, 127
15, 128236, Note_on_c, 11, 63, 0
15, 128244, Note_on_c, 11, 60, 0
15, 128276, Note_on_c, 11, 67, 0
15, 128280, Note_on_c, 11, 70, 0
15, 128292, Note_on_c, 11, 58, 0
15, 128640, Note_on_c, 11, 62, 73
15, 128640, Note_on_c, 11, 72, 79
15, 128640, Note_on_c, 11, 65, 63
15, 128640, Note_on_c, 11, 69, 79
15, 128640, Note_on_c, 11, 58, 55
15, 128656, Control_c, 11, 64, 0
15, 129104, Control_c, 11, 64, 127
15, 130132, Note_on_c, 11, 62, 0
15, 130164, Note_on_c, 11, 72, 0
15, 130176, Note_on_c, 11, 58, 0
15, 130184, Note_on_c, 11, 69, 0
15, 130192, Note_on_c, 11, 65, 0
15, 130560, Note_on_c, 11, 68, 73
15, 130560, Note_on_c, 11, 60, 79
15, 130560, Note_on_c, 11, 63, 94
15, 130560, Note_on_c, 11, 56, 47
15, 130560, Note_on_c, 11, 53, 68
15, 130580, Control_c, 11, 64, 0
15, 131048, Control_c, 11, 64, 127
15, 132180, Note_on_c, 11, 53, 0
15, 132180, Note_on_c, 11, 60, 0
15, 132180, Note_on_c, 11, 56, 0
15, 132212, Note_on_c, 11, 63, 0
15, 132212, Note_on_c, 11, 68, 0
15, 132480, Note_on_c, 11, 65, 68
15, 132480, Note_on_c, 11, 70, 73
15, 132480, Note_on_c, 11, 58, 55
15, 132480, Note_on_c, 11, 55, 73
15, 132480, Note_on_c, 11, 62, 73
15, 132504, Control_c, 11, 64, 0
15, 132952, Control_c, 11, 64, 127
15, 134076, Note_on_c, 11, 55, 0
15, 134208, Note_on_c, 11, 58, 0
15, 134264, Note_on_c, 11, 65, 0
15, 134268, Note_on_c, 11, 62, 0
15, 134288, Note_on_c, 11, 70, 0
15, 134500, Control_c, 11, 64, 0
15, 134504, Control_c, 11, 64, 127
15, 134512, Control_c, 11, 64, 0
15, 142080, Note_on_c, 11, 55, 53
15, 142080, Note_on_c, 11, 51, 55
15, 142080, Note_on_c, 11, 62, 53
15, 142080, Note_on_c, 11, 58, 44
15, 142600, Control_c, 11, 64, 127
15, 142632, Channel_aftertouch_c, 11, 2
15, 142652, Channel_aftertouch_c, 11, 6
15, 142684, Channel_aftertouch_c, 11, 8
15, 142732, Channel_aftertouch_c, 11, 6
15, 142752, Channel_aftertouch_c, 11, 2
15, 142776, Channel_aftertouch_c, 11, 0
15, 142784, Channel_aftertouch_c, 11, 0
15, 145908, Control_c, 11, 64, 0
15, 145912, Control_c, 11, 64, 127
15, 145920, Control_c, 11, 64, 0
15, 145988, Control_c, 11, 64, 0
15, 145988, Control_c, 11, 64, 127
15, 145996, Control_c, 11, 64, 127
15, 146108, Control_c, 11, 64, 0
15, 149496, Note_on_c, 11, 55, 0
15, 149512, Note_on_c, 11, 51, 0
15, 149528, Note_on_c, 11, 62, 0
15, 149528, Note_on_c, 11, 58, 0
15, 149760, Note_on_c, 11, 67, 63
15, 149760, Note_on_c, 11, 63, 47
15, 149760, Note_on_c, 11, 70, 38
15, 149760, Note_on_c, 11, 60, 79
15, 149760, Note_on_c, 11, 58, 38
15, 150200, Control_c, 11, 64, 127
15, 151224, Note_on_c, 11, 63, 0
15, 151252, Note_on_c, 11, 67, 0
15, 151272, Note_on_c, 11, 70, 0
15, 151300, Note_on_c, 11, 60, 0
15, 151332, Note_on_c, 11, 58, 0
15, 151680, Note_on_c, 11, 58, 55
15, 151680, Note_on_c, 11, 69, 63
15, 151680, Note_on_c, 11, 65, 59
15, 151680, Note_on_c, 11, 72, 68
15, 151680, Note_on_c, 11, 62, 68
15, 151684, Control_c, 11, 64, 0
15, 152140, Control_c, 11, 64, 127
15, 153184, Note_on_c, 11, 62, 0
15, 153212, Note_on_c, 11, 58, 0
15, 153220, Note_on_c, 11, 69, 0
15, 153220, Note_on_c, 11, 65, 0
15, 153220, Note_on_c, 11, 72, 0
15, 153504, Control_c, 11, 64, 0
15, 153508, Control_c, 11, 64, 127
15, 153508, Control_c, 11, 64, 0
15, 153520, Control_c, 11, 64, 0
15, 153520, Control_c, 11, 64, 127
15, 153600, Note_on_c, 11, 56, 63
15, 153600, Note_on_c, 11, 53, 73
15, 153600, Note_on_c, 11, 60, 68
15, 153600, Note_on_c, 11, 68, 68
15, 153600, Note_on_c, 11, 63, 73
15, 154100, Control_c, 11, 64, 127
15, 155240, Note_on_c, 11, 60, 0
15, 155240, Note_on_c, 11, 56, 0
15, 155248, Note_on_c, 11, 53, 0
15, 155272, Note_on_c, 11, 63, 0
15, 155272, Note_on_c, 11, 68, 0
15, 155468, Control_c, 11, 64, 0
15, 155472, Control_c, 11, 64, 127
15, 155480, Control_c, 11, 64, 0
15, 155520, Note_on_c, 11, 62, 73
15, 155520, Note_on_c, 11, 55, 63
15, 155520, Note_on_c, 11, 58, 55
15, 155520, Note_on_c, 11, 70, 59
15, 155520, Note_on_c, 11, 65, 73
15, 156036, Control_c, 11, 64, 127
15, 157076, Note_on_c, 11, 58, 0
15, 157076, Note_on_c, 11, 62, 0
15, 157084, Note_on_c, 11, 55, 0
15, 157092, Note_on_c, 11, 65, 0
15, 157132, Note_on_c, 11, 70, 0
15, 157392, Control_c, 11, 64, 0
15, 157396, Control_c, 11, 64, 127
15, 157404, Control_c, 11, 64, 0
15, 157404, Control_c, 11, 64, 127
15, 157408, Control_c, 11, 64, 0
15, 157440, Note_on_c, 11, 67, 66
15, 157440, Note_on_c, 11, 70, 59
15, 157440, Note_on_c, 11, 63, 59
15, 157440, Note_on_c, 11, 60, 79
15, 157440, Note_on_c, 11, 58, 65
15, 157976, Control_c, 11, 64, 127
15, 158916, Note_on_c, 11, 63, 0
15, 158936, Note_on_c, 11, 60, 0
15, 158952, Note_on_c, 11, 67, 0
15, 158960, Note_on_c, 11, 58, 0
15, 158964, Note_on_c, 11, 70, 0
15, 159360, Note_on_c, 11, 62, 73
15, 159360, Note_on_c, 11, 65, 59
15, 159360, Note_on_c, 11, 69, 63
15, 159360, Note_on_c, 11, 72, 73
15, 159360, Note_on_c, 11, 58, 68
15, 159376, Control_c, 11, 64, 0
15, 159824, Control_c, 11, 64, 127
15, 160808, Note_on_c, 11, 62, 0
15, 160852, Note_on_c, 11, 58, 0
15, 160860, Note_on_c, 11, 65, 0
15, 160860, Note_on_c, 11, 72, 0
15, 160864, Note_on_c, 11, 69, 0
15, 161260, Control_c, 11, 64, 0
15, 161280, Note_on_c, 11, 60, 73
15, 161280, Note_on_c, 11, 56, 47
15, 161280, Note_on_c, 11, 63, 79
15, 161280, Note_on_c, 11, 53, 79
15, 161280, Note_on_c, 11, 68, 73
15, 161776, Control_c, 11, 64, 127
15, 162824, Note_on_c, 11, 60, 0
15, 162828, Note_on_c, 11, 56, 0
15, 162844, Note_on_c, 11, 53, 0
15, 162864, Note_on_c, 11, 68, 0
15, 162868, Note_on_c, 11, 63, 0
15, 163184, Control_c, 11, 64, 0
15, 163200, Note_on_c, 11, 55, 59
15, 163200, Note_on_c, 11, 58, 47
15, 163200, Note_on_c, 11, 62, 63
15, 163200, Note_on_c, 11, 70, 73
15, 163200, Note_on_c, 11, 65, 63
15, 163200, Control_c, 11, 64, 0
15, 163200, Control_c, 11, 64, 127
15, 163660, Control_c, 11, 64, 127
15, 164828, Note_on_c, 11, 62, 0
15, 164836, Note_on_c, 11, 65, 0
15, 164844, Note_on_c, 11, 58, 0
15, 164864, Note_on_c, 11, 55, 0
15, 164872, Note_on_c, 11, 70, 0
15, 165076, Control_c, 11, 64, 0
15, 165120, Note_on_c, 11, 70, 63
15, 165120, Note_on_c, 11, 63, 73
15, 165120, Note_on_c, 11, 60, 79
15, 165120, Note_on_c, 11, 67, 79
15, 165120, Note_on_c, 11, 58, 51
15, 165608, Control_c, 11, 64, 127
15, 166636, Note_on_c, 11, 63, 0
15, 166644, Note_on_c, 11, 60, 0
15, 166660, Note_on_c, 11, 67, 0
15, 166676, Note_on_c, 11, 70, 0
15, 166684, Note_on_c, 11, 58, 0
15, 167040, Note_on_c, 11, 72, 73
15, 167040, Note_on_c, 11, 65, 68
15, 167040, Note_on_c, 11, 62, 68
15, 167040, Note_on_c, 11, 69, 63
15, 167040, Note_on_c, 11, 58, 63
15, 167056, Control_c, 11, 64, 0
15, 167512, Control_c, 11, 64, 127
15, 168524, Note_on_c, 11, 62, 0
15, 168564, Note_on_c, 11, 69, 0
15, 168564, Note_on_c, 11, 72, 0
15, 168564, Note_on_c, 11, 65, 0
15, 168564, Note_on_c, 11, 58, 0
15, 168944, Control_c, 11, 64, 0
15, 168952, Control_c, 11, 64, 127
15, 168960, Note_on_c, 11, 68, 68
15, 168960, Note_on_c, 11, 60, 79
15, 168960, Note_on_c, 11, 53, 86
15, 168960, Note_on_c, 11, 56, 59
15, 168960, Note_on_c, 11, 63, 86
15, 168972, Control_c, 11, 64, 0
15, 169452, Control_c, 11, 64, 127
15, 170524, Note_on_c, 11, 56, 0
15, 170524, Note_on_c, 11, 60, 0
15, 170528, Note_on_c, 11, 53, 0
15, 170548, Note_on_c, 11, 68, 0
15, 170560, Note_on_c, 11, 63, 0
15, 170880, Note_on_c, 11, 62, 73
15, 170880, Note_on_c, 11, 58, 47
15, 170880, Note_on_c, 11, 55, 73
15, 170880, Note_on_c, 11, 65, 68
15, 170880, Note_on_c, 11, 70, 73
15, 170896, Control_c, 11, 64, 0
15, 170896, Control_c, 11, 64, 127
15, 170908, Control_c, 11, 64, 0
15, 171392, Control_c, 11, 64, 127
15, 172508, Note_on_c, 11, 62, 0
15, 172512, Note_on_c, 11, 65, 0
15, 172516, Note_on_c, 11, 58, 0
15, 172520, Note_on_c, 11, 55, 0
15, 172552, Note_on_c, 11, 70, 0
15, 172800, Note_on_c, 11, 60, 68
15, 172800, Note_on_c, 11, 63, 63
15, 172800, Note_on_c, 11, 70, 55
15, 172800, Note_on_c, 11, 67, 79
15, 172800, Note_on_c, 11, 58, 59
15, 172820, Control_c, 11, 64, 0
15, 173308, Control_c, 11, 64, 127
15, 174312, Note_on_c, 11, 63, 0
15, 174328, Note_on_c, 11, 60, 0
15, 174348, Note_on_c, 11, 67, 0
15, 174364, Note_on_c, 11, 70, 0
15, 174368, Note_on_c, 11, 58, 0
15, 174720, Note_on_c, 11, 65, 68
15, 174720, Note_on_c, 11, 62, 73
15, 174720, Note_on_c, 11, 69, 73
15, 174720, Note_on_c, 11, 72, 79
15, 174720, Note_on_c, 11, 58, 59
15, 174732, Control_c, 11, 64, 0
15, 174736, Control_c, 11, 64, 127
15, 174744, Control_c, 11, 64, 0
15, 174744, Control_c, 11, 64, 127
15, 174748, Control_c, 11, 64, 0
15, 175224, Control_c, 11, 64, 127
15, 176212, Note_on_c, 11, 62, 0
15, 176248, Note_on_c, 11, 58, 0
15, 176256, Note_on_c, 11, 72, 0
15, 176256, Note_on_c, 11, 69, 0
15, 176260, Note_on_c, 11, 65, 0
15, 176640, Note_on_c, 11, 53, 76
15, 176640, Note_on_c, 11, 63, 74
15, 176640, Note_on_c, 11, 60, 79
15, 176640, Note_on_c, 11, 68, 79
15, 176640, Note_on_c, 11, 56, 65
15, 176660, Control_c, 11, 64, 0
15, 177188, Control_c, 11, 64, 127
15, 178208, Note_on_c, 11, 60, 0
15, 178212, Note_on_c, 11, 56, 0
15, 178212, Note_on_c, 11, 53, 0
15, 178232, Note_on_c, 11, 68, 0
15, 178240, Note_on_c, 11, 63, 0
15, 178560, Note_on_c, 11, 58, 47
15, 178560, Note_on_c, 11, 62, 73
15, 178560, Note_on_c, 11, 55, 68
15, 178560, Note_on_c, 11, 70, 73
15, 178560, Note_on_c, 11, 65, 79
15, 178580, Control_c, 11, 64, 0
15, 179012, Control_c, 11, 64, 127
15, 180196, Note_on_c, 11, 62, 0
15, 180212, Note_on_c, 11, 58, 0
15, 180220, Note_on_c, 11, 65, 0
15, 180236, Note_on_c, 11, 55, 0
15, 180244, Note_on_c, 11, 70, 0
15, 180456, Control_c, 11, 64, 0
15, 180456, Control_c, 11, 64, 127
15, 180460, Control_c, 11, 64, 0
15, 180460, Control_c, 11, 64, 127
15, 180464, Control_c, 11, 64, 0
15, 180468, Control_c, 11, 64, 127
15, 180468, Control_c, 11, 64, 0
15, 180480, Note_on_c, 11, 58, 51
15, 180480, Note_on_c, 11, 70, 44
15, 180480, Note_on_c, 11, 60, 73
15, 180480, Note_on_c, 11, 63, 59
15, 180480, Note_on_c, 11, 67, 73
15, 180968, Control_c, 11, 64, 127
15, 181976, Note_on_c, 11, 63, 0
15, 181988, Note_on_c, 11, 60, 0
15, 181996, Note_on_c, 11, 67, 0
15, 182008, Note_on_c, 11, 70, 0
15, 182016, Note_on_c, 11, 58, 0
15, 182400, Note_on_c, 11, 62, 59
15, 182400, Note_on_c, 11, 69, 63
15, 182400, Note_on_c, 11, 65, 63
15, 182400, Note_on_c, 11, 72, 73
15, 182400, Note_on_c, 11, 58, 59
15, 182448, Control_c, 11, 64, 0
15, 182456, Control_c, 11, 64, 127
15, 182460, Control_c, 11, 64, 0
15, 182888, Control_c, 11, 64, 127
15, 183880, Note_on_c, 11, 62, 0
15, 183924, Note_on_c, 11, 69, 0
15, 183928, Note_on_c, 11, 72, 0
15, 183928, Note_on_c, 11, 58, 0
15, 183936, Note_on_c, 11, 65, 0
15, 184320, Note_on_c, 11, 53, 79
15, 184320, Note_on_c, 11, 68, 63
15, 184320, Note_on_c, 11, 56, 55
15, 184320, Note_on_c, 11, 60, 79
15, 184320, Note_on_c, 11, 63, 86
15, 184340, Control_c, 11, 64, 0
15, 184344, Control_c, 11, 64, 127
15, 184348, Control_c, 11, 64, 0
15, 184776, Control_c, 11, 64, 127
15, 185872, Note_on_c, 11, 53, 0
15, 185888, Note_on_c, 11, 60, 0
15, 185888, Note_on_c, 11, 56, 0
15, 185904, Note_on_c, 11, 68, 0
15, 185932, Note_on_c, 11, 63, 0
15, 186240, Note_on_c, 11, 55, 63
15, 186240, Note_on_c, 11, 62, 68
15, 186240, Note_on_c, 11, 58, 71
15, 186240, Note_on_c, 11, 65, 63
15, 186240, Note_on_c, 11, 70, 63
15, 186256, Control_c, 11, 64, 0
15, 186260, Control_c, 11, 64, 127
15, 186260, Control_c, 11, 64, 0
15, 186700, Control_c, 11, 64, 127
15, 187820, Note_on_c, 11, 62, 0
15, 187828, Note_on_c, 11, 55, 0
15, 187836, Note_on_c, 11, 58, 0
15, 187840, Note_on_c, 11, 65, 0
15, 187876, Note_on_c, 11, 70, 0
15, 188160, Note_on_c, 11, 70, 59
15, 188160, Note_on_c, 11, 60, 79
15, 188160, Note_on_c, 11, 63, 73
15, 188160, Note_on_c, 11, 67, 76
15, 188160, Note_on_c, 11, 58, 59
15, 188180, Control_c, 11, 64, 0
15, 188616, Control_c, 11, 64, 127
15, 189664, Note_on_c, 11, 63, 0
15, 189676, Note_on_c, 11, 60, 0
15, 189680, Note_on_c, 11, 67, 0
15, 189708, Note_on_c, 11, 70, 0
15, 189720, Note_on_c, 11, 58, 0
15, 190080, Note_on_c, 11, 62, 79
15, 190080, Note_on_c, 11, 69, 76
15, 190080, Note_on_c, 11, 72, 79
15, 190080, Note_on_c, 11, 65, 63
15, 190080, Note_on_c, 11, 58, 71
15, 190100, Control_c, 11, 64, 0
15, 190108, Control_c, 11, 64, 127
15, 190112, Control_c, 11, 64, 0
15, 190580, Control_c, 11, 64, 127
15, 191216, Note_on_c, 11, 58, 0
15, 191280, Note_on_c, 11, 58, 63
15, 191632, Note_on_c, 11, 62, 0
15, 191676, Note_on_c, 11, 58, 0
15, 191700, Note_on_c, 11, 72, 0
15, 191708, Note_on_c, 11, 69, 0
15, 191732, Note_on_c, 11, 65, 0
15, 192000, Note_on_c, 11, 60, 68
15, 192000, Note_on_c, 11, 63, 68
15, 192000, Note_on_c, 11, 53, 68
15, 192000, Note_on_c, 11, 68, 68
15, 192000, Note_on_c, 11, 56, 51
15, 192044, Control_c, 11, 64, 0
15, 192044, Control_c, 11, 64, 127
15, 192048, Control_c, 11, 64, 0
15, 192428, Control_c, 11, 64, 127
15, 193592, Note_on_c, 11, 53, 0
15, 193604, Note_on_c, 11, 56, 0
15, 193608, Note_on_c, 11, 60, 0
15, 193644, Note_on_c, 11, 63, 0
15, 193652, Note_on_c, 11, 68, 0
15, 193920, Note_on_c, 11, 55, 68
15, 193920, Note_on_c, 11, 62, 73
15, 193920, Note_on_c, 11, 58, 51
15, 193920, Note_on_c, 11, 70, 68
15, 193920, Note_on_c, 11, 65, 68
15, 193956, Control_c, 11, 64, 0
15, 194384, Control_c, 11, 64, 127
15, 195540, Note_on_c, 11, 62, 0
15, 195564, Note_on_c, 11, 65, 0
15, 195576, Note_on_c, 11, 58, 0
15, 195580, Note_on_c, 11, 55, 0
15, 195596, Note_on_c, 11, 70, 0
15, 195808, Control_c, 11, 64, 0
15, 195812, Control_c, 11, 64, 127
15, 195816, Control_c, 11, 64, 127
15, 195816, Control_c, 11, 64, 0
15, 195824, Control_c, 11, 64, 0
15, 195840, Note_on_c, 11, 58, 59
15, 195840, Note_on_c, 11, 70, 59
15, 195840, Note_on_c, 11, 63, 68
15, 195840, Note_on_c, 11, 67, 79
15, 195840, Note_on_c, 11, 60, 73
15, 196316, Control_c, 11, 64, 127
15, 197372, Note_on_c, 11, 60, 0
15, 197372, Note_on_c, 11, 63, 0
15, 197376, Note_on_c, 11, 67, 0
15, 197396, Note_on_c, 11, 70, 0
15, 197396, Note_on_c, 11, 58, 0
15, 197760, Note_on_c, 11, 65, 63
15, 197760, Note_on_c, 11, 72, 73
15, 197760, Note_on_c, 11, 69, 79
15, 197760, Note_on_c, 11, 62, 73
15, 197760, Note_on_c, 11, 58, 63
15, 197844, Control_c, 11, 64, 0
15, 198208, Control_c, 11, 64, 127
15, 199236, Note_on_c, 11, 62, 0
15, 199268, Note_on_c, 11, 65, 0
15, 199280, Note_on_c, 11, 72, 0
15, 199288, Note_on_c, 11, 69, 0
15, 199288, Note_on_c, 11, 58, 0
15, 199680, Note_on_c, 11, 53, 68
15, 199680, Note_on_c, 11, 56, 63
15, 199680, Note_on_c, 11, 60, 63
15, 199680, Note_on_c, 11, 68, 68
15, 199680, Note_on_c, 11, 63, 68
15, 199700, Control_c, 11, 64, 0
15, 199700, Control_c, 11, 64, 127
15, 199704, Control_c, 11, 64, 0
15, 200168, Control_c, 11, 64, 127
15, 201304, Note_on_c, 11, 56, 0
15, 201312, Note_on_c, 11, 53, 0
15, 201312, Note_on_c, 11, 60, 0
15, 201340, Note_on_c, 11, 68, 0
15, 201352, Note_on_c, 11, 63, 0
15, 201600, Note_on_c, 11, 62, 73
15, 201600, Note_on_c, 11, 58, 55
15, 201600, Note_on_c, 11, 70, 73
15, 201600, Note_on_c, 11, 55, 73
15, 201600, Note_on_c, 11, 65, 73
15, 201632, Control_c, 11, 64, 0
15, 202108, Control_c, 11, 64, 127
15, 203200, Note_on_c, 11, 62, 0
15, 203216, Note_on_c, 11, 58, 0
15, 203224, Note_on_c, 11, 65, 0
15, 203236, Note_on_c, 11, 55, 0
15, 203260, Note_on_c, 11, 70, 0
15, 203476, Control_c, 11, 64, 0
15, 203520, Note_on_c, 11, 67, 73
15, 203520, Note_on_c, 11, 63, 59
15, 203520, Note_on_c, 11, 58, 47
15, 203520, Note_on_c, 11, 60, 73
15, 203520, Note_on_c, 11, 70, 47
15, 204028, Control_c, 11, 64, 127
15, 205040, Note_on_c, 11, 63, 0
15, 205052, Note_on_c, 11, 67, 0
15, 205072, Note_on_c, 11, 60, 0
15, 205088, Note_on_c, 11, 70, 0
15, 205092, Note_on_c, 11, 58, 0
15, 205420, Control_c, 11, 64, 0
15, 205424, Control_c, 11, 64, 127
15, 205428, Control_c, 11, 64, 0
15, 205440, Note_on_c, 11, 72, 79
15, 205440, Note_on_c, 11, 65, 59
15, 205440, Note_on_c, 11, 69, 68
15, 205440, Note_on_c, 11, 62, 68
15, 205440, Note_on_c, 11, 58, 51
15, 205928, Control_c, 11, 64, 127
15, 206928, Note_on_c, 11, 62, 0
15, 206956, Note_on_c, 11, 72, 0
15, 206960, Note_on_c, 11, 65, 0
15, 206960, Note_on_c, 11, 69, 0
15, 206964, Note_on_c, 11, 58, 0
15, 207360, Note_on_c, 11, 60, 76
15, 207360, Note_on_c, 11, 68, 79
15, 207360, Note_on_c, 11, 63, 74
15, 207360, Note_on_c, 11, 56, 65
15, 207360, Note_on_c, 11, 53, 73
15, 207376, Control_c, 11, 64, 0
15, 207900, Control_c, 11, 64, 127
15, 208272, Control_c, 11, 64, 0
15, 208276, Control_c, 11, 64, 127
15, 208896, Note_on_c, 11, 60, 0
15, 208908, Note_on_c, 11, 56, 0
15, 208920, Note_on_c, 11, 53, 0
15, 208932, Note_on_c, 11, 68, 0
15, 208940, Note_on_c, 11, 63, 0
15, 209280, Note_on_c, 11, 62, 79
15, 209280, Note_on_c, 11, 55, 68
15, 209280, Note_on_c, 11, 65, 86
15, 209280, Note_on_c, 11, 58, 59
15, 209280, Note_on_c, 11, 70, 86
15, 209296, Control_c, 11, 64, 0
15, 209780, Control_c, 11, 64, 127
15, 210852, Note_on_c, 11, 62, 0
15, 210860, Note_on_c, 11, 58, 0
15, 210860, Note_on_c, 11, 65, 0
15, 210880, Note_on_c, 11, 55, 0
15, 210900, Note_on_c, 11, 70, 0
15, 211144, Control_c, 11, 64, 0
15, 211148, Control_c, 11, 64, 127
15, 211152, Control_c, 11, 64, 0
15, 211152, Control_c, 11, 64, 127
15, 211156, Control_c, 11, 64, 0
15, 211200, Note_on_c, 11, 63, 73
15, 211200, Note_on_c, 11, 67, 73
15, 211200, Note_on_c, 11, 58, 55
15, 211200, Note_on_c, 11, 60, 79
15, 211200, Note_on_c, 11, 70, 68
15, 211688, Control_c, 11, 64, 127
15, 212756, Note_on_c, 11, 63, 0
15, 212768, Note_on_c, 11, 67, 0
15, 212772, Note_on_c, 11, 60, 0
15, 212796, Note_on_c, 11, 58, 0
15, 212808, Note_on_c, 11, 70, 0
15, 213096, Control_c, 11, 64, 0
15, 213096, Control_c, 11, 64, 127
15, 213100, Control_c, 11, 64, 0
15, 213640, Control_c, 11, 64, 127
15, 215012, Control_c, 11, 64, 0
15, 215016, Control_c, 11, 64, 127
15, 215032, Control_c, 11, 64, 0
15, 215032, End_track
16, 0, Start_track
16, 0, Title_t, "dis guitar"
16, 0, Program_c, 12, 84
16, 0, Control_c, 12, 7, 115
16, 0, Control_c, 12, 10, 64
16, 0, Control_c, 12, 91, 108
16, 0, Control_c, 12, 93, 49
16, 0, Control_c, 12, 123, 0
16, 140160, Program_c, 12, 84
16, 140160, Control_c, 12, 91, 100
16, 140160, Control_c, 12, 7, 120
16, 141600, Note_on_c, 12, 60, 104
16, 141692, Note_on_c, 12, 60, 0
16, 141840, Note_on_c, 12, 60, 104
16, 141928, Note_on_c, 12, 60, 0
16, 142080, Note_on_c, 12, 63, 94
16, 142168, Note_on_c, 12, 63, 0
16, 142200, Note_on_c, 12, 65, 86
16, 142848, Control_c, 12, 1, 8
16, 142868, Control_c, 12, 1, 12
16, 142932, Control_c, 12, 1, 20
16, 142956, Control_c, 12, 1, 28
16, 142976, Control_c, 12, 1, 32
16, 143016, Control_c, 12, 1, 36
16, 143036, Control_c, 12, 1, 40
16, 143120, Control_c, 12, 1, 48
16, 143140, Control_c, 12, 1, 52
16, 143160, Control_c, 12, 1, 56
16, 143420, Control_c, 12, 1, 60
16, 143464, Control_c, 12, 1, 64
16, 143504, Control_c, 12, 1, 68
16, 144036, Control_c, 12, 1, 64
16, 144080, Control_c, 12, 1, 56
16, 144100, Control_c, 12, 1, 48
16, 144120, Control_c, 12, 1, 44
16, 144144, Control_c, 12, 1, 28
16, 144168, Control_c, 12, 1, 8
16, 144188, Control_c, 12, 1, 0
16, 144192, Note_on_c, 12, 65, 0
16, 144960, Note_on_c, 12, 65, 86
16, 145032, Pitch_bend_c, 12, 10624
16, 145044, Pitch_bend_c, 12, 14720
16, 145052, Pitch_bend_c, 12, 16256
16, 145128, Note_on_c, 12, 65, 0
16, 145160, Pitch_bend_c, 12, 13824
16, 145168, Pitch_bend_c, 12, 12032
16, 145180, Pitch_bend_c, 12, 10624
16, 145188, Pitch_bend_c, 12, 10112
16, 145216, Pitch_bend_c, 12, 9728
16, 145228, Pitch_bend_c, 12, 9216
16, 145236, Pitch_bend_c, 12, 8704
16, 145248, Pitch_bend_c, 12, 8192
16, 145440, Note_on_c, 12, 63, 104
16, 145492, Pitch_bend_c, 12, 8576
16, 145504, Pitch_bend_c, 12, 12032
16, 145512, Pitch_bend_c, 12, 15872
16, 145524, Pitch_bend_c, 12, 16256
16, 145792, Note_on_c, 12, 63, 0
16, 145896, Pitch_bend_c, 12, 12672
16, 145908, Pitch_bend_c, 12, 8192
16, 145920, Note_on_c, 12, 63, 86
16, 145992, Note_on_c, 12, 63, 0
16, 146040, Note_on_c, 12, 60, 94
16, 146360, Control_c, 12, 1, 8
16, 146400, Control_c, 12, 1, 12
16, 146428, Control_c, 12, 1, 28
16, 146448, Control_c, 12, 1, 36
16, 146468, Control_c, 12, 1, 44
16, 146552, Control_c, 12, 1, 48
16, 146572, Control_c, 12, 1, 56
16, 146596, Control_c, 12, 1, 60
16, 146680, Control_c, 12, 1, 64
16, 146720, Control_c, 12, 1, 72
16, 146760, Control_c, 12, 1, 76
16, 146804, Control_c, 12, 1, 88
16, 146848, Control_c, 12, 1, 92
16, 147060, Control_c, 12, 1, 96
16, 147100, Control_c, 12, 1, 100
16, 147440, Control_c, 12, 1, 96
16, 147836, Control_c, 12, 1, 92
16, 147860, Control_c, 12, 1, 84
16, 147880, Control_c, 12, 1, 80
16, 148116, Control_c, 12, 1, 76
16, 148140, Control_c, 12, 1, 68
16, 148160, Control_c, 12, 1, 48
16, 148180, Control_c, 12, 1, 28
16, 148200, Control_c, 12, 1, 0
16, 148228, Note_on_c, 12, 60, 0
16, 180000, Note_on_c, 12, 60, 94
16, 180092, Note_on_c, 12, 60, 0
16, 180240, Note_on_c, 12, 60, 79
16, 180328, Note_on_c, 12, 60, 0
16, 180480, Note_on_c, 12, 63, 73
16, 180588, Note_on_c, 12, 63, 0
16, 180600, Note_on_c, 12, 65, 86
16, 182604, Note_on_c, 12, 65, 0
16, 183840, Note_on_c, 12, 60, 86
16, 183936, Note_on_c, 12, 60, 0
16, 184080, Note_on_c, 12, 60, 79
16, 184180, Note_on_c, 12, 60, 0
16, 184320, Note_on_c, 12, 63, 79
16, 184428, Note_on_c, 12, 63, 0
16, 184440, Note_on_c, 12, 65, 79
16, 186324, Note_on_c, 12, 65, 0
16, 187680, Note_on_c, 12, 60, 86
16, 187764, Note_on_c, 12, 60, 0
16, 187920, Note_on_c, 12, 60, 73
16, 188020, Note_on_c, 12, 60, 0
16, 188160, Note_on_c, 12, 63, 73
16, 188256, Note_on_c, 12, 63, 0
16, 188280, Note_on_c, 12, 65, 73
16, 189656, Note_on_c, 12, 65, 0
16, 189656, End_track
17, 0, Start_track
17, 0, Title_t, "el guitar"
17, 0, Program_c, 13, 26
17, 0, Control_c, 13, 7, 111
17, 0, Control_c, 13, 10, 64
17, 0, Control_c, 13, 91, 72
17, 0, Control_c, 13, 93, 36
17, 0, Control_c, 13, 123, 0
17, 3860, Note_on_c, 13, 74, 73
17, 4012, Control_c, 13, 1, 12
17, 4028, Control_c, 13, 1, 40
17, 4048, Control_c, 13, 1, 60
17, 4072, Control_c, 13, 1, 80
17, 4092, Control_c, 13, 1, 100
17, 4116, Control_c, 13, 1, 112
17, 4136, Control_c, 13, 1, 120
17, 4156, Control_c, 13, 1, 124
17, 4676, Control_c, 13, 1, 120
17, 4700, Control_c, 13, 1, 96
17, 4720, Control_c, 13, 1, 48
17, 4740, Control_c, 13, 1, 0
17, 4748, Note_on_c, 13, 74, 0
17, 4800, Note_on_c, 13, 74, 86
17, 5104, Note_on_c, 13, 74, 0
17, 5160, Note_on_c, 13, 74, 73
17, 5464, Note_on_c, 13, 74, 0
17, 5524, Note_on_c, 13, 74, 68
17, 5800, Control_c, 13, 1, 12
17, 5820, Control_c, 13, 1, 24
17, 5840, Control_c, 13, 1, 36
17, 5860, Control_c, 13, 1, 48
17, 5880, Control_c, 13, 1, 60
17, 5904, Control_c, 13, 1, 64
17, 5928, Control_c, 13, 1, 72
17, 5948, Control_c, 13, 1, 76
17, 5968, Control_c, 13, 1, 84
17, 5988, Control_c, 13, 1, 88
17, 6032, Control_c, 13, 1, 92
17, 6072, Control_c, 13, 1, 96
17, 6112, Control_c, 13, 1, 100
17, 6324, Control_c, 13, 1, 104
17, 6388, Control_c, 13, 1, 112
17, 6428, Control_c, 13, 1, 116
17, 6448, Control_c, 13, 1, 124
17, 6472, Control_c, 13, 1, 124
17, 6576, Control_c, 13, 1, 112
17, 6596, Control_c, 13, 1, 108
17, 6620, Control_c, 13, 1, 92
17, 6640, Control_c, 13, 1, 60
17, 6660, Control_c, 13, 1, 0
17, 6692, Note_on_c, 13, 74, 0
17, 6724, Note_on_c, 13, 72, 63
17, 7000, Note_on_c, 13, 72, 0
17, 7064, Note_on_c, 13, 72, 63
17, 7376, Note_on_c, 13, 72, 0
17, 7440, Note_on_c, 13, 72, 68
17, 7592, Control_c, 13, 1, 24
17, 7612, Control_c, 13, 1, 60
17, 7632, Control_c, 13, 1, 80
17, 7652, Control_c, 13, 1, 100
17, 7672, Control_c, 13, 1, 108
17, 7728, Control_c, 13, 1, 96
17, 7748, Control_c, 13, 1, 68
17, 7768, Control_c, 13, 1, 36
17, 7788, Control_c, 13, 1, 0
17, 7824, Note_on_c, 13, 72, 0
17, 7916, Note_on_c, 13, 74, 68
17, 8016, Pitch_bend_c, 13, 8576
17, 8028, Pitch_bend_c, 13, 9600
17, 8036, Pitch_bend_c, 13, 10368
17, 8048, Pitch_bend_c, 13, 10624
17, 8204, Note_on_c, 13, 74, 0
17, 8208, Pitch_bend_c, 13, 9984
17, 8216, Control_c, 13, 1, 0
17, 8220, Pitch_bend_c, 13, 8192
17, 8268, Note_on_c, 13, 74, 68
17, 8556, Note_on_c, 13, 74, 0
17, 8640, Note_on_c, 13, 74, 68
17, 8704, Pitch_bend_c, 13, 8704
17, 8716, Pitch_bend_c, 13, 9344
17, 8724, Pitch_bend_c, 13, 9728
17, 8736, Pitch_bend_c, 13, 10112
17, 8812, Pitch_bend_c, 13, 10496
17, 8820, Pitch_bend_c, 13, 11008
17, 8840, Pitch_bend_c, 13, 11264
17, 8928, Note_on_c, 13, 74, 0
17, 9024, Note_on_c, 13, 74, 73
17, 9180, Note_on_c, 13, 74, 0
17, 9252, Note_on_c, 13, 74, 73
17, 9420, Note_on_c, 13, 74, 0
17, 9424, Pitch_bend_c, 13, 10368
17, 9432, Pitch_bend_c, 13, 8704
17, 9444, Pitch_bend_c, 13, 8192
17, 9480, Note_on_c, 13, 74, 79
17, 9572, Pitch_bend_c, 13, 8192
17, 9584, Pitch_bend_c, 13, 9344
17, 9592, Pitch_bend_c, 13, 10368
17, 9620, Pitch_bend_c, 13, 11136
17, 9624, Pitch_bend_c, 13, 11392
17, 9644, Pitch_bend_c, 13, 11776
17, 9684, Pitch_bend_c, 13, 12032
17, 9740, Pitch_bend_c, 13, 12288
17, 9760, Pitch_bend_c, 13, 12672
17, 9792, Pitch_bend_c, 13, 13056
17, 9924, Pitch_bend_c, 13, 12800
17, 9944, Pitch_bend_c, 13, 12416
17, 9956, Pitch_bend_c, 13, 12160
17, 9984, Pitch_bend_c, 13, 11776
17, 10004, Pitch_bend_c, 13, 11392
17, 10016, Pitch_bend_c, 13, 11136
17, 10028, Pitch_bend_c, 13, 10752
17, 10048, Pitch_bend_c, 13, 10368
17, 10068, Pitch_bend_c, 13, 10112
17, 10092, Pitch_bend_c, 13, 9344
17, 10104, Pitch_bend_c, 13, 9088
17, 10124, Pitch_bend_c, 13, 8832
17, 10136, Pitch_bend_c, 13, 8576
17, 10156, Pitch_bend_c, 13, 8192
17, 10192, Note_on_c, 13, 74, 0
17, 10304, Note_on_c, 13, 74, 47
17, 10372, Note_on_c, 13, 74, 0
17, 10428, Note_on_c, 13, 74, 63
17, 10592, Control_c, 13, 1, 28
17, 10612, Control_c, 13, 1, 48
17, 10632, Control_c, 13, 1, 64
17, 10652, Control_c, 13, 1, 76
17, 10672, Control_c, 13, 1, 88
17, 10696, Control_c, 13, 1, 100
17, 10716, Control_c, 13, 1, 108
17, 10736, Control_c, 13, 1, 112
17, 10780, Control_c, 13, 1, 120
17, 10820, Control_c, 13, 1, 124
17, 10840, Control_c, 13, 1, 124
17, 11408, Control_c, 13, 1, 92
17, 11424, Control_c, 13, 1, 40
17, 11444, Control_c, 13, 1, 0
17, 11468, Control_c, 13, 1, 0
17, 11516, Note_on_c, 13, 74, 0
17, 11656, Note_on_c, 13, 74, 68
17, 11936, Note_on_c, 13, 74, 0
17, 12000, Note_on_c, 13, 74, 73
17, 12092, Control_c, 13, 1, 20
17, 12112, Control_c, 13, 1, 52
17, 12132, Control_c, 13, 1, 76
17, 12152, Control_c, 13, 1, 96
17, 12172, Control_c, 13, 1, 104
17, 12192, Control_c, 13, 1, 108
17, 12260, Control_c, 13, 1, 60
17, 12280, Control_c, 13, 1, 0
17, 12292, Note_on_c, 13, 74, 0
17, 12364, Note_on_c, 13, 74, 68
17, 12644, Note_on_c, 13, 74, 0
17, 12712, Note_on_c, 13, 74, 68
17, 12796, Control_c, 13, 1, 4
17, 12816, Control_c, 13, 1, 28
17, 12836, Control_c, 13, 1, 60
17, 12860, Control_c, 13, 1, 76
17, 12880, Control_c, 13, 1, 88
17, 12900, Control_c, 13, 1, 96
17, 12920, Control_c, 13, 1, 100
17, 12960, Control_c, 13, 1, 92
17, 12988, Control_c, 13, 1, 40
17, 13000, Note_on_c, 13, 74, 0
17, 13008, Control_c, 13, 1, 0
17, 13076, Note_on_c, 13, 74, 73
17, 13356, Note_on_c, 13, 74, 0
17, 13440, Note_on_c, 13, 74, 68
17, 13552, Control_c, 13, 1, 8
17, 13576, Control_c, 13, 1, 44
17, 13596, Control_c, 13, 1, 68
17, 13616, Control_c, 13, 1, 88
17, 13636, Control_c, 13, 1, 96
17, 13656, Control_c, 13, 1, 108
17, 13676, Control_c, 13, 1, 112
17, 13720, Control_c, 13, 1, 116
17, 13888, Control_c, 13, 1, 124
17, 14264, Control_c, 13, 1, 116
17, 14284, Control_c, 13, 1, 92
17, 14304, Control_c, 13, 1, 36
17, 14320, Note_on_c, 13, 74, 0
17, 14324, Control_c, 13, 1, 0
17, 14408, Note_on_c, 13, 72, 63
17, 14704, Note_on_c, 13, 72, 0
17, 14756, Note_on_c, 13, 72, 73
17, 15044, Note_on_c, 13, 72, 0
17, 15112, Note_on_c, 13, 72, 73
17, 15328, Control_c, 13, 1, 0
17, 15504, Note_on_c, 13, 72, 0
17, 15592, Note_on_c, 13, 74, 68
17, 15684, Pitch_bend_c, 13, 9344
17, 15692, Pitch_bend_c, 13, 10112
17, 15700, Pitch_bend_c, 13, 10752
17, 15712, Pitch_bend_c, 13, 11008
17, 15892, Note_on_c, 13, 74, 0
17, 15932, Pitch_bend_c, 13, 10368
17, 15944, Pitch_bend_c, 13, 8320
17, 15956, Pitch_bend_c, 13, 8192
17, 15960, Note_on_c, 13, 74, 73
17, 16252, Note_on_c, 13, 74, 0
17, 16332, Note_on_c, 13, 74, 63
17, 16380, Pitch_bend_c, 13, 8576
17, 16392, Pitch_bend_c, 13, 8960
17, 16400, Pitch_bend_c, 13, 9344
17, 16424, Pitch_bend_c, 13, 9728
17, 16436, Pitch_bend_c, 13, 10112
17, 16444, Pitch_bend_c, 13, 10624
17, 16456, Pitch_bend_c, 13, 11008
17, 16464, Pitch_bend_c, 13, 11264
17, 16516, Pitch_bend_c, 13, 11648
17, 16536, Pitch_bend_c, 13, 12032
17, 16548, Pitch_bend_c, 13, 12288
17, 16568, Note_on_c, 13, 74, 0
17, 16580, Pitch_bend_c, 13, 12672
17, 16664, Note_on_c, 13, 74, 68
17, 16780, Note_on_c, 13, 74, 0
17, 16896, Note_on_c, 13, 74, 73
17, 17084, Note_on_c, 13, 74, 0
17, 17092, Pitch_bend_c, 13, 12288
17, 17104, Pitch_bend_c, 13, 11776
17, 17112, Pitch_bend_c, 13, 11264
17, 17124, Pitch_bend_c, 13, 10624
17, 17136, Pitch_bend_c, 13, 9984
17, 17144, Pitch_bend_c, 13, 9216
17, 17156, Pitch_bend_c, 13, 8832
17, 17160, Note_on_c, 13, 74, 79
17, 17164, Pitch_bend_c, 13, 8576
17, 17176, Pitch_bend_c, 13, 8320
17, 17184, Pitch_bend_c, 13, 8192
17, 17256, Pitch_bend_c, 13, 8960
17, 17268, Pitch_bend_c, 13, 9600
17, 17276, Pitch_bend_c, 13, 9984
17, 17304, Pitch_bend_c, 13, 10624
17, 17328, Pitch_bend_c, 13, 11008
17, 17340, Pitch_bend_c, 13, 11648
17, 17376, Pitch_bend_c, 13, 12288
17, 17416, Pitch_bend_c, 13, 12672
17, 17600, Pitch_bend_c, 13, 12288
17, 17608, Pitch_bend_c, 13, 12032
17, 17620, Pitch_bend_c, 13, 11776
17, 17656, Pitch_bend_c, 13, 11392
17, 17676, Pitch_bend_c, 13, 11008
17, 17684, Pitch_bend_c, 13, 10624
17, 17696, Pitch_bend_c, 13, 10368
17, 17704, Pitch_bend_c, 13, 10112
17, 17724, Pitch_bend_c, 13, 9728
17, 17744, Pitch_bend_c, 13, 9472
17, 17772, Pitch_bend_c, 13, 8960
17, 17780, Pitch_bend_c, 13, 8704
17, 17812, Pitch_bend_c, 13, 8192
17, 17948, Note_on_c, 13, 74, 0
17, 18020, Note_on_c, 13, 74, 51
17, 18096, Note_on_c, 13, 74, 0
17, 18128, Note_on_c, 13, 74, 32
17, 18268, Control_c, 13, 1, 28
17, 18288, Control_c, 13, 1, 44
17, 18308, Control_c, 13, 1, 52
17, 18328, Control_c, 13, 1, 60
17, 18348, Control_c, 13, 1, 68
17, 18388, Control_c, 13, 1, 76
17, 18432, Control_c, 13, 1, 88
17, 18448, Control_c, 13, 1, 92
17, 18472, Control_c, 13, 1, 96
17, 18496, Control_c, 13, 1, 100
17, 18516, Control_c, 13, 1, 108
17, 18536, Control_c, 13, 1, 112
17, 18576, Control_c, 13, 1, 120
17, 18640, Control_c, 13, 1, 124
17, 18732, Control_c, 13, 1, 116
17, 18748, Control_c, 13, 1, 112
17, 18768, Control_c, 13, 1, 104
17, 18792, Control_c, 13, 1, 88
17, 18808, Control_c, 13, 1, 72
17, 18832, Control_c, 13, 1, 64
17, 18856, Control_c, 13, 1, 60
17, 18876, Control_c, 13, 1, 48
17, 18896, Control_c, 13, 1, 20
17, 18916, Control_c, 13, 1, 0
17, 18952, Note_on_c, 13, 74, 0
17, 72728, Note_on_c, 13, 74, 68
17, 72928, Note_on_c, 13, 74, 0
17, 72988, Note_on_c, 13, 74, 79
17, 73172, Control_c, 13, 1, 4
17, 73192, Control_c, 13, 1, 12
17, 73216, Control_c, 13, 1, 24
17, 73236, Control_c, 13, 1, 28
17, 73256, Control_c, 13, 1, 44
17, 73276, Control_c, 13, 1, 56
17, 73296, Control_c, 13, 1, 64
17, 73340, Control_c, 13, 1, 72
17, 73360, Control_c, 13, 1, 76
17, 73468, Control_c, 13, 1, 80
17, 73656, Control_c, 13, 1, 76
17, 73676, Control_c, 13, 1, 68
17, 73696, Control_c, 13, 1, 60
17, 73716, Control_c, 13, 1, 48
17, 73736, Control_c, 13, 1, 24
17, 73756, Control_c, 13, 1, 0
17, 73840, Note_on_c, 13, 74, 0
17, 73920, Note_on_c, 13, 74, 73
17, 74220, Note_on_c, 13, 74, 0
17, 74284, Note_on_c, 13, 74, 73
17, 74564, Note_on_c, 13, 74, 0
17, 74644, Note_on_c, 13, 74, 86
17, 74828, Control_c, 13, 1, 4
17, 74848, Control_c, 13, 1, 12
17, 74868, Control_c, 13, 1, 20
17, 74904, Control_c, 13, 1, 28
17, 74920, Control_c, 13, 1, 36
17, 74944, Control_c, 13, 1, 44
17, 74980, Control_c, 13, 1, 48
17, 75088, Control_c, 13, 1, 56
17, 75128, Control_c, 13, 1, 60
17, 75168, Control_c, 13, 1, 64
17, 75652, Control_c, 13, 1, 60
17, 75696, Control_c, 13, 1, 44
17, 75716, Control_c, 13, 1, 12
17, 75732, Note_on_c, 13, 74, 0
17, 75740, Control_c, 13, 1, 0
17, 75824, Note_on_c, 13, 72, 73
17, 76124, Note_on_c, 13, 72, 0
17, 76200, Note_on_c, 13, 72, 79
17, 76492, Note_on_c, 13, 72, 0
17, 76556, Note_on_c, 13, 72, 79
17, 76976, Note_on_c, 13, 72, 0
17, 77052, Note_on_c, 13, 74, 68
17, 77188, Pitch_bend_c, 13, 9088
17, 77196, Pitch_bend_c, 13, 9728
17, 77204, Pitch_bend_c, 13, 10112
17, 77352, Note_on_c, 13, 74, 0
17, 77356, Pitch_bend_c, 13, 9728
17, 77364, Pitch_bend_c, 13, 8576
17, 77376, Pitch_bend_c, 13, 8192
17, 77408, Note_on_c, 13, 74, 73
17, 77684, Note_on_c, 13, 74, 0
17, 77756, Note_on_c, 13, 74, 79
17, 77820, Pitch_bend_c, 13, 8704
17, 77828, Pitch_bend_c, 13, 9216
17, 77840, Pitch_bend_c, 13, 9728
17, 77860, Pitch_bend_c, 13, 9984
17, 77944, Pitch_bend_c, 13, 10240
17, 77976, Pitch_bend_c, 13, 10624
17, 78008, Note_on_c, 13, 74, 0
17, 78072, Pitch_bend_c, 13, 10880
17, 78100, Pitch_bend_c, 13, 11264
17, 78108, Note_on_c, 13, 74, 73
17, 78140, Pitch_bend_c, 13, 11520
17, 78268, Note_on_c, 13, 74, 0
17, 78360, Note_on_c, 13, 74, 73
17, 78516, Note_on_c, 13, 74, 0
17, 78532, Pitch_bend_c, 13, 10752
17, 78544, Pitch_bend_c, 13, 9344
17, 78552, Pitch_bend_c, 13, 8192
17, 78592, Note_on_c, 13, 74, 73
17, 78696, Pitch_bend_c, 13, 8704
17, 78704, Pitch_bend_c, 13, 9344
17, 78716, Pitch_bend_c, 13, 9984
17, 78744, Pitch_bend_c, 13, 10624
17, 78764, Pitch_bend_c, 13, 11008
17, 78776, Pitch_bend_c, 13, 11264
17, 78784, Pitch_bend_c, 13, 11776
17, 78804, Pitch_bend_c, 13, 12032
17, 78836, Pitch_bend_c, 13, 12288
17, 79132, Pitch_bend_c, 13, 12032
17, 79140, Pitch_bend_c, 13, 11776
17, 79152, Pitch_bend_c, 13, 11264
17, 79160, Pitch_bend_c, 13, 10880
17, 79172, Pitch_bend_c, 13, 10624
17, 79192, Pitch_bend_c, 13, 10368
17, 79216, Pitch_bend_c, 13, 10112
17, 79228, Pitch_bend_c, 13, 9728
17, 79248, Pitch_bend_c, 13, 9088
17, 79260, Pitch_bend_c, 13, 8704
17, 79268, Pitch_bend_c, 13, 8192
17, 79396, Note_on_c, 13, 74, 0
17, 79448, Note_on_c, 13, 74, 68
17, 79524, Note_on_c, 13, 74, 0
17, 79568, Note_on_c, 13, 74, 68
17, 79780, Control_c, 13, 1, 12
17, 79804, Control_c, 13, 1, 24
17, 79824, Control_c, 13, 1, 28
17, 79844, Control_c, 13, 1, 32
17, 79864, Control_c, 13, 1, 44
17, 79884, Control_c, 13, 1, 56
17, 79908, Control_c, 13, 1, 64
17, 79928, Control_c, 13, 1, 68
17, 79968, Control_c, 13, 1, 76
17, 80056, Control_c, 13, 1, 80
17, 80536, Control_c, 13, 1, 72
17, 80556, Control_c, 13, 1, 56
17, 80576, Control_c, 13, 1, 32
17, 80596, Control_c, 13, 1, 12
17, 80616, Control_c, 13, 1, 0
17, 80668, Note_on_c, 13, 74, 0
17, 80768, Note_on_c, 13, 74, 73
17, 81080, Note_on_c, 13, 74, 0
17, 81136, Note_on_c, 13, 74, 79
17, 81252, Control_c, 13, 1, 4
17, 81272, Control_c, 13, 1, 12
17, 81292, Control_c, 13, 1, 24
17, 81312, Control_c, 13, 1, 28
17, 81336, Control_c, 13, 1, 44
17, 81352, Control_c, 13, 1, 64
17, 81372, Control_c, 13, 1, 68
17, 81412, Control_c, 13, 1, 60
17, 81432, Note_on_c, 13, 74, 0
17, 81432, Control_c, 13, 1, 28
17, 81456, Control_c, 13, 1, 0
17, 81492, Note_on_c, 13, 74, 79
17, 81768, Note_on_c, 13, 74, 0
17, 81836, Note_on_c, 13, 74, 79
17, 81896, Control_c, 13, 1, 4
17, 81916, Control_c, 13, 1, 28
17, 81936, Control_c, 13, 1, 52
17, 81956, Control_c, 13, 1, 60
17, 82020, Control_c, 13, 1, 64
17, 82040, Control_c, 13, 1, 76
17, 82060, Control_c, 13, 1, 84
17, 82108, Control_c, 13, 1, 76
17, 82128, Control_c, 13, 1, 60
17, 82136, Note_on_c, 13, 74, 0
17, 82148, Control_c, 13, 1, 20
17, 82168, Control_c, 13, 1, 0
17, 82204, Note_on_c, 13, 74, 73
17, 82512, Note_on_c, 13, 74, 0
17, 82580, Note_on_c, 13, 74, 79
17, 82660, Control_c, 13, 1, 8
17, 82680, Control_c, 13, 1, 20
17, 82704, Control_c, 13, 1, 28
17, 82728, Control_c, 13, 1, 36
17, 82748, Control_c, 13, 1, 48
17, 82768, Control_c, 13, 1, 56
17, 82788, Control_c, 13, 1, 64
17, 82808, Control_c, 13, 1, 68
17, 82828, Control_c, 13, 1, 76
17, 82868, Control_c, 13, 1, 84
17, 82912, Control_c, 13, 1, 92
17, 82936, Control_c, 13, 1, 96
17, 83396, Control_c, 13, 1, 76
17, 83420, Control_c, 13, 1, 32
17, 83424, Note_on_c, 13, 74, 0
17, 83440, Control_c, 13, 1, 0
17, 83528, Note_on_c, 13, 72, 79
17, 83828, Note_on_c, 13, 72, 0
17, 83884, Note_on_c, 13, 72, 79
17, 84172, Note_on_c, 13, 72, 0
17, 84244, Note_on_c, 13, 72, 79
17, 84640, Note_on_c, 13, 72, 0
17, 84728, Note_on_c, 13, 74, 73
17, 84800, Pitch_bend_c, 13, 8704
17, 84812, Pitch_bend_c, 13, 9344
17, 84820, Pitch_bend_c, 13, 9984
17, 84832, Pitch_bend_c, 13, 10368
17, 85024, Pitch_bend_c, 13, 10112
17, 85028, Note_on_c, 13, 74, 0
17, 85036, Pitch_bend_c, 13, 8960
17, 85044, Pitch_bend_c, 13, 8192
17, 85084, Note_on_c, 13, 74, 79
17, 85344, Note_on_c, 13, 74, 0
17, 85440, Note_on_c, 13, 74, 79
17, 85488, Pitch_bend_c, 13, 8576
17, 85508, Pitch_bend_c, 13, 9088
17, 85520, Pitch_bend_c, 13, 9344
17, 85548, Pitch_bend_c, 13, 9728
17, 85584, Pitch_bend_c, 13, 9984
17, 85616, Pitch_bend_c, 13, 10624
17, 85624, Pitch_bend_c, 13, 11008
17, 85636, Pitch_bend_c, 13, 11264
17, 85684, Note_on_c, 13, 74, 0
17, 85804, Note_on_c, 13, 74, 73
17, 85940, Note_on_c, 13, 74, 0
17, 86040, Note_on_c, 13, 74, 79
17, 86172, Pitch_bend_c, 13, 9984
17, 86180, Note_on_c, 13, 74, 0
17, 86180, Pitch_bend_c, 13, 8192
17, 86252, Note_on_c, 13, 74, 73
17, 86336, Pitch_bend_c, 13, 8576
17, 86348, Pitch_bend_c, 13, 8960
17, 86360, Pitch_bend_c, 13, 9344
17, 86368, Pitch_bend_c, 13, 9728
17, 86380, Pitch_bend_c, 13, 10112
17, 86388, Pitch_bend_c, 13, 10752
17, 86400, Pitch_bend_c, 13, 11264
17, 86428, Pitch_bend_c, 13, 11776
17, 86460, Pitch_bend_c, 13, 12032
17, 86492, Pitch_bend_c, 13, 12288
17, 86892, Pitch_bend_c, 13, 12032
17, 86912, Pitch_bend_c, 13, 11776
17, 86944, Pitch_bend_c, 13, 11392
17, 86972, Pitch_bend_c, 13, 11136
17, 86984, Pitch_bend_c, 13, 10752
17, 86996, Pitch_bend_c, 13, 10368
17, 87008, Pitch_bend_c, 13, 9984
17, 87020, Pitch_bend_c, 13, 9728
17, 87028, Pitch_bend_c, 13, 9344
17, 87048, Pitch_bend_c, 13, 9088
17, 87068, Pitch_bend_c, 13, 8576
17, 87080, Pitch_bend_c, 13, 8320
17, 87088, Pitch_bend_c, 13, 8192
17, 87100, Note_on_c, 13, 74, 0
17, 87412, Control_c, 13, 1, 12
17, 87432, Control_c, 13, 1, 32
17, 87452, Control_c, 13, 1, 40
17, 87496, Control_c, 13, 1, 48
17, 87516, Control_c, 13, 1, 56
17, 87536, Control_c, 13, 1, 68
17, 87556, Control_c, 13, 1, 76
17, 87660, Control_c, 13, 1, 84
17, 87680, Control_c, 13, 1, 88
17, 88064, Control_c, 13, 1, 80
17, 88088, Control_c, 13, 1, 52
17, 88108, Control_c, 13, 1, 16
17, 88128, Control_c, 13, 1, 0
17, 195600, Note_on_c, 13, 74, 79
17, 195816, Note_on_c, 13, 74, 0
17, 195840, Note_on_c, 13, 74, 73
17, 196048, Control_c, 13, 1, 12
17, 196072, Control_c, 13, 1, 28
17, 196132, Control_c, 13, 1, 36
17, 196152, Control_c, 13, 1, 48
17, 196172, Control_c, 13, 1, 56
17, 196192, Control_c, 13, 1, 60
17, 196316, Control_c, 13, 1, 68
17, 196344, Control_c, 13, 1, 76
17, 196724, Note_on_c, 13, 74, 0
17, 196732, Control_c, 13, 1, 72
17, 196756, Control_c, 13, 1, 44
17, 196776, Control_c, 13, 1, 0
17, 196800, Note_on_c, 13, 74, 73
17, 197084, Note_on_c, 13, 74, 0
17, 197160, Note_on_c, 13, 74, 73
17, 197456, Note_on_c, 13, 74, 0
17, 197520, Note_on_c, 13, 74, 79
17, 197816, Control_c, 13, 1, 16
17, 197836, Control_c, 13, 1, 28
17, 197856, Control_c, 13, 1, 36
17, 197960, Control_c, 13, 1, 40
17, 197980, Control_c, 13, 1, 48
17, 198020, Control_c, 13, 1, 52
17, 198104, Control_c, 13, 1, 64
17, 198144, Control_c, 13, 1, 68
17, 198648, Control_c, 13, 1, 60
17, 198668, Control_c, 13, 1, 4
17, 198676, Note_on_c, 13, 74, 0
17, 198688, Control_c, 13, 1, 0
17, 198720, Note_on_c, 13, 72, 73
17, 199016, Note_on_c, 13, 72, 0
17, 199080, Note_on_c, 13, 72, 86
17, 199360, Note_on_c, 13, 72, 0
17, 199440, Note_on_c, 13, 72, 79
17, 199676, Control_c, 13, 1, 8
17, 199704, Control_c, 13, 1, 28
17, 199744, Control_c, 13, 1, 32
17, 199828, Control_c, 13, 1, 24
17, 199848, Control_c, 13, 1, 0
17, 199872, Note_on_c, 13, 72, 0
17, 199920, Note_on_c, 13, 74, 73
17, 200032, Pitch_bend_c, 13, 8832
17, 200044, Pitch_bend_c, 13, 9728
17, 200056, Pitch_bend_c, 13, 10624
17, 200064, Pitch_bend_c, 13, 11136
17, 200240, Note_on_c, 13, 74, 0
17, 200244, Pitch_bend_c, 13, 10112
17, 200256, Pitch_bend_c, 13, 9088
17, 200264, Pitch_bend_c, 13, 8192
17, 200280, Note_on_c, 13, 74, 79
17, 200556, Note_on_c, 13, 74, 0
17, 200640, Note_on_c, 13, 74, 73
17, 200700, Pitch_bend_c, 13, 8192
17, 200712, Pitch_bend_c, 13, 8704
17, 200720, Pitch_bend_c, 13, 9088
17, 200732, Pitch_bend_c, 13, 9344
17, 200740, Pitch_bend_c, 13, 9728
17, 200752, Pitch_bend_c, 13, 10112
17, 200776, Pitch_bend_c, 13, 10368
17, 200796, Pitch_bend_c, 13, 10624
17, 200804, Pitch_bend_c, 13, 11136
17, 200824, Pitch_bend_c, 13, 11648
17, 200844, Pitch_bend_c, 13, 12288
17, 200868, Pitch_bend_c, 13, 12544
17, 200920, Note_on_c, 13, 74, 0
17, 201000, Note_on_c, 13, 74, 79
17, 201192, Note_on_c, 13, 74, 0
17, 201240, Note_on_c, 13, 74, 79
17, 201404, Note_on_c, 13, 74, 0
17, 201428, Pitch_bend_c, 13, 12032
17, 201440, Pitch_bend_c, 13, 11136
17, 201448, Pitch_bend_c, 13, 10112
17, 201460, Pitch_bend_c, 13, 9088
17, 201468, Pitch_bend_c, 13, 8320
17, 201480, Note_on_c, 13, 74, 79
17, 201480, Pitch_bend_c, 13, 8192
17, 201576, Pitch_bend_c, 13, 8576
17, 201584, Pitch_bend_c, 13, 9728
17, 201596, Pitch_bend_c, 13, 10624
17, 201616, Pitch_bend_c, 13, 11776
17, 201624, Pitch_bend_c, 13, 12032
17, 201696, Pitch_bend_c, 13, 12288
17, 201708, Pitch_bend_c, 13, 12672
17, 202092, Pitch_bend_c, 13, 12288
17, 202112, Pitch_bend_c, 13, 11776
17, 202132, Pitch_bend_c, 13, 11392
17, 202144, Pitch_bend_c, 13, 11136
17, 202152, Pitch_bend_c, 13, 10752
17, 202172, Pitch_bend_c, 13, 10368
17, 202192, Pitch_bend_c, 13, 10112
17, 202208, Pitch_bend_c, 13, 9728
17, 202216, Pitch_bend_c, 13, 9216
17, 202228, Pitch_bend_c, 13, 8960
17, 202236, Pitch_bend_c, 13, 8576
17, 202248, Pitch_bend_c, 13, 8192
17, 202292, Note_on_c, 13, 74, 0
17, 202320, Note_on_c, 13, 74, 63
17, 202376, Note_on_c, 13, 74, 0
17, 202440, Note_on_c, 13, 74, 79
17, 202620, Control_c, 13, 1, 12
17, 202640, Control_c, 13, 1, 16
17, 202660, Control_c, 13, 1, 20
17, 202684, Control_c, 13, 1, 28
17, 202704, Control_c, 13, 1, 36
17, 202724, Control_c, 13, 1, 48
17, 202744, Control_c, 13, 1, 56
17, 202764, Control_c, 13, 1, 60
17, 202788, Control_c, 13, 1, 64
17, 202808, Control_c, 13, 1, 68
17, 202828, Control_c, 13, 1, 76
17, 202868, Control_c, 13, 1, 84
17, 202908, Control_c, 13, 1, 88
17, 202952, Control_c, 13, 1, 92
17, 202996, Control_c, 13, 1, 100
17, 203060, Control_c, 13, 1, 108
17, 203104, Control_c, 13, 1, 112
17, 203500, Control_c, 13, 1, 100
17, 203532, Control_c, 13, 1, 72
17, 203548, Control_c, 13, 1, 0
17, 203552, Note_on_c, 13, 74, 0
17, 203640, Note_on_c, 13, 74, 68
17, 203780, Control_c, 13, 1, 12
17, 203800, Control_c, 13, 1, 20
17, 203816, Control_c, 13, 1, 36
17, 203836, Control_c, 13, 1, 48
17, 203860, Control_c, 13, 1, 60
17, 203880, Control_c, 13, 1, 68
17, 203948, Note_on_c, 13, 74, 0
17, 203960, Control_c, 13, 1, 56
17, 203980, Control_c, 13, 1, 16
17, 204000, Note_on_c, 13, 74, 79
17, 204004, Control_c, 13, 1, 0
17, 204296, Note_on_c, 13, 74, 0
17, 204360, Note_on_c, 13, 74, 79
17, 204628, Note_on_c, 13, 74, 0
17, 204720, Note_on_c, 13, 74, 73
17, 204868, Control_c, 13, 1, 4
17, 204888, Control_c, 13, 1, 12
17, 205000, Control_c, 13, 1, 4
17, 205016, Note_on_c, 13, 74, 0
17, 205020, Control_c, 13, 1, 0
17, 205080, Note_on_c, 13, 74, 73
17, 205344, Note_on_c, 13, 74, 0
17, 205440, Note_on_c, 13, 74, 79
17, 205580, Control_c, 13, 1, 0
17, 205600, Control_c, 13, 1, 12
17, 205620, Control_c, 13, 1, 28
17, 205640, Control_c, 13, 1, 36
17, 205660, Control_c, 13, 1, 44
17, 205700, Control_c, 13, 1, 48
17, 205720, Control_c, 13, 1, 64
17, 205740, Control_c, 13, 1, 68
17, 205764, Control_c, 13, 1, 76
17, 206204, Control_c, 13, 1, 72
17, 206224, Control_c, 13, 1, 64
17, 206244, Control_c, 13, 1, 56
17, 206264, Control_c, 13, 1, 48
17, 206288, Control_c, 13, 1, 32
17, 206308, Control_c, 13, 1, 4
17, 206328, Control_c, 13, 1, 0
17, 206336, Note_on_c, 13, 74, 0
17, 206400, Note_on_c, 13, 72, 68
17, 206720, Note_on_c, 13, 72, 0
17, 206760, Note_on_c, 13, 72, 86
17, 207040, Note_on_c, 13, 72, 0
17, 207120, Note_on_c, 13, 72, 79
17, 207496, Note_on_c, 13, 72, 0
17, 207600, Note_on_c, 13, 74, 79
17, 207704, Pitch_bend_c, 13, 8576
17, 207764, Pitch_bend_c, 13, 8832
17, 207788, Pitch_bend_c, 13, 9728
17, 207796, Pitch_bend_c, 13, 10624
17, 207808, Pitch_bend_c, 13, 11776
17, 207816, Pitch_bend_c, 13, 12160
17, 207892, Pitch_bend_c, 13, 11520
17, 207900, Pitch_bend_c, 13, 10624
17, 207912, Pitch_bend_c, 13, 9728
17, 207920, Pitch_bend_c, 13, 8960
17, 207932, Pitch_bend_c, 13, 8192
17, 207948, Note_on_c, 13, 74, 0
17, 207960, Note_on_c, 13, 74, 79
17, 208232, Note_on_c, 13, 74, 0
17, 208320, Note_on_c, 13, 74, 79
17, 208408, Pitch_bend_c, 13, 8704
17, 208420, Pitch_bend_c, 13, 9088
17, 208428, Pitch_bend_c, 13, 9600
17, 208456, Pitch_bend_c, 13, 9984
17, 208544, Pitch_bend_c, 13, 10368
17, 208580, Pitch_bend_c, 13, 10624
17, 208604, Note_on_c, 13, 74, 0
17, 208680, Note_on_c, 13, 74, 73
17, 208856, Note_on_c, 13, 74, 0
17, 208920, Note_on_c, 13, 74, 73
17, 209000, Pitch_bend_c, 13, 11008
17, 209068, Note_on_c, 13, 74, 0
17, 209092, Pitch_bend_c, 13, 10624
17, 209104, Pitch_bend_c, 13, 9856
17, 209112, Pitch_bend_c, 13, 8832
17, 209124, Pitch_bend_c, 13, 8192
17, 209160, Note_on_c, 13, 74, 73
17, 209232, Pitch_bend_c, 13, 8960
17, 209244, Pitch_bend_c, 13, 9600
17, 209252, Pitch_bend_c, 13, 10112
17, 209264, Pitch_bend_c, 13, 10368
17, 209276, Pitch_bend_c, 13, 10624
17, 209292, Pitch_bend_c, 13, 10880
17, 209308, Pitch_bend_c, 13, 11264
17, 209328, Pitch_bend_c, 13, 11776
17, 209352, Pitch_bend_c, 13, 12032
17, 209768, Pitch_bend_c, 13, 11776
17, 209796, Pitch_bend_c, 13, 11264
17, 209820, Pitch_bend_c, 13, 10624
17, 209828, Pitch_bend_c, 13, 10112
17, 209840, Pitch_bend_c, 13, 9856
17, 209848, Pitch_bend_c, 13, 9344
17, 209860, Pitch_bend_c, 13, 8704
17, 209868, Pitch_bend_c, 13, 8192
17, 209976, Control_c, 13, 1, 0
17, 209992, Control_c, 13, 1, 8
17, 210012, Control_c, 13, 1, 12
17, 210036, Control_c, 13, 1, 16
17, 210056, Control_c, 13, 1, 24
17, 210072, Control_c, 13, 1, 28
17, 210120, Note_on_c, 13, 74, 63
17, 210128, Note_on_c, 13, 74, 0
17, 210160, Control_c, 13, 1, 32
17, 210180, Note_on_c, 13, 74, 0
17, 210240, Note_on_c, 13, 74, 73
17, 210288, Control_c, 13, 1, 36
17, 210328, Control_c, 13, 1, 44
17, 210352, Control_c, 13, 1, 48
17, 210396, Control_c, 13, 1, 52
17, 210436, Control_c, 13, 1, 60
17, 210456, Control_c, 13, 1, 64
17, 210704, Control_c, 13, 1, 68
17, 210952, Control_c, 13, 1, 72
17, 210972, Control_c, 13, 1, 76
17, 211056, Control_c, 13, 1, 48
17, 211072, Control_c, 13, 1, 0
17, 211096, Note_on_c, 13, 74, 0
17, 211096, End_track
18, 0, Start_track
18, 0, Title_t, "whisle"
18, 0, Program_c, 14, 78
18, 0, Control_c, 14, 7, 113
18, 0, Control_c, 14, 10, 64
18, 0, Control_c, 14, 91, 81
18, 0, Control_c, 14, 93, 33
18, 0, Control_c, 14, 123, 0
18, 101760, Control_c, 14, 7, 70
18, 103200, Note_on_c, 14, 79, 68
18, 103320, Note_on_c, 14, 82, 59
18, 103348, Note_on_c, 14, 79, 0
18, 103432, Note_on_c, 14, 82, 0
18, 103560, Note_on_c, 14, 84, 63
18, 103660, Note_on_c, 14, 84, 0
18, 103680, Note_on_c, 14, 86, 73
18, 105600, Note_on_c, 14, 89, 72
18, 105632, Note_on_c, 14, 86, 0
18, 108480, Note_on_c, 14, 89, 0
18, 110880, Note_on_c, 14, 79, 68
18, 111000, Note_on_c, 14, 82, 68
18, 111024, Note_on_c, 14, 79, 0
18, 111120, Note_on_c, 14, 82, 0
18, 111240, Note_on_c, 14, 84, 59
18, 111316, Note_on_c, 14, 84, 0
18, 111360, Note_on_c, 14, 86, 86
18, 112800, Note_on_c, 14, 89, 73
18, 112840, Note_on_c, 14, 86, 0
18, 114960, Note_on_c, 14, 77, 94
18, 114972, Note_on_c, 14, 89, 0
18, 115080, Note_on_c, 14, 79, 47
18, 115096, Note_on_c, 14, 77, 0
18, 115200, Note_on_c, 14, 77, 68
18, 115204, Note_on_c, 14, 79, 0
18, 117200, Note_on_c, 14, 77, 0
18, 117200, End_track
19, 0, Start_track
19, 0, Title_t, ""
19, 0, End_track
20, 0, Start_track
20, 0, Title_t, "voice 2"
20, 0, Program_c, 15, 74
20, 0, Control_c, 15, 7, 99
20, 0, Control_c, 15, 10, 90
20, 0, Control_c, 15, 91, 83
20, 0, Control_c, 15, 93, 33
20, 0, Control_c, 15, 123, 0
20, 18600, Note_on_c, 15, 67, 94
20, 18720, Note_on_c, 15, 77, 104
20, 18740, Note_on_c, 15, 67, 0
20, 18884, Note_on_c, 15, 77, 0
20, 18900, Note_on_c, 15, 75, 104
20, 19068, Note_on_c, 15, 75, 0
20, 19080, Note_on_c, 15, 74, 104
20, 19176, Note_on_c, 15, 74, 0
20, 19200, Note_on_c, 15, 72, 94
20, 19260, Note_on_c, 15, 74, 104
20, 19288, Note_on_c, 15, 72, 0
20, 19460, Note_on_c, 15, 74, 0
20, 19500, Note_on_c, 15, 72, 104
20, 19576, Note_on_c, 15, 72, 0
20, 19620, Note_on_c, 15, 72, 94
20, 19764, Note_on_c, 15, 72, 0
20, 19800, Note_on_c, 15, 72, 104
20, 20316, Note_on_c, 15, 72, 0
20, 21960, Note_on_c, 15, 72, 86
20, 22060, Note_on_c, 15, 72, 0
20, 22080, Note_on_c, 15, 77, 115
20, 22140, Note_on_c, 15, 79, 94
20, 22168, Note_on_c, 15, 77, 0
20, 22320, Note_on_c, 15, 79, 0
20, 22320, Note_on_c, 15, 82, 104
20, 22544, Note_on_c, 15, 82, 0
20, 22560, Note_on_c, 15, 79, 94
20, 22560, Note_on_c, 15, 77, 104
20, 22604, Note_on_c, 15, 77, 0
20, 22784, Note_on_c, 15, 79, 0
20, 22800, Note_on_c, 15, 77, 115
20, 22880, Note_on_c, 15, 77, 0
20, 22920, Note_on_c, 15, 75, 104
20, 24264, Note_on_c, 15, 75, 0
20, 26280, Note_on_c, 15, 67, 79
20, 26400, Note_on_c, 15, 76, 59
20, 26400, Note_on_c, 15, 77, 94
20, 26400, Note_on_c, 15, 75, 104
20, 26416, Note_on_c, 15, 76, 0
20, 26416, Note_on_c, 15, 67, 0
20, 26436, Note_on_c, 15, 75, 0
20, 26576, Note_on_c, 15, 77, 0
20, 26580, Note_on_c, 15, 75, 115
20, 26752, Note_on_c, 15, 75, 0
20, 26760, Note_on_c, 15, 74, 104
20, 26880, Note_on_c, 15, 72, 115
20, 26900, Note_on_c, 15, 74, 0
20, 26928, Note_on_c, 15, 72, 0
20, 26940, Note_on_c, 15, 74, 94
20, 27220, Note_on_c, 15, 74, 0
20, 27240, Note_on_c, 15, 72, 104
20, 27364, Note_on_c, 15, 72, 0
20, 27480, Note_on_c, 15, 72, 94
20, 27532, Note_on_c, 15, 72, 0
20, 27600, Note_on_c, 15, 72, 94
20, 28088, Note_on_c, 15, 72, 0
20, 29760, Note_on_c, 15, 77, 104
20, 29820, Note_on_c, 15, 79, 94
20, 29836, Note_on_c, 15, 77, 0
20, 30000, Note_on_c, 15, 80, 59
20, 30000, Note_on_c, 15, 82, 104
20, 30016, Note_on_c, 15, 80, 0
20, 30020, Note_on_c, 15, 79, 0
20, 30212, Note_on_c, 15, 82, 0
20, 30240, Note_on_c, 15, 79, 104
20, 30240, Note_on_c, 15, 77, 79
20, 30292, Note_on_c, 15, 77, 0
20, 30460, Note_on_c, 15, 79, 0
20, 30480, Note_on_c, 15, 77, 104
20, 30560, Note_on_c, 15, 77, 0
20, 30600, Note_on_c, 15, 75, 94
20, 31824, Note_on_c, 15, 75, 0
20, 34560, Note_on_c, 15, 79, 104
20, 34736, Note_on_c, 15, 79, 0
20, 34800, Note_on_c, 15, 79, 86
20, 34976, Note_on_c, 15, 79, 0
20, 35040, Note_on_c, 15, 79, 104
20, 35268, Note_on_c, 15, 79, 0
20, 35280, Note_on_c, 15, 77, 86
20, 35340, Note_on_c, 15, 79, 86
20, 35344, Note_on_c, 15, 77, 0
20, 36004, Note_on_c, 15, 79, 0
20, 38400, Note_on_c, 15, 79, 115
20, 38564, Note_on_c, 15, 79, 0
20, 38640, Note_on_c, 15, 79, 86
20, 38804, Note_on_c, 15, 79, 0
20, 38880, Note_on_c, 15, 79, 115
20, 39100, Note_on_c, 15, 79, 0
20, 39120, Note_on_c, 15, 77, 86
20, 39180, Note_on_c, 15, 79, 94
20, 39188, Note_on_c, 15, 77, 0
20, 40052, Note_on_c, 15, 79, 0
20, 42000, Note_on_c, 15, 79, 94
20, 42000, Note_on_c, 15, 77, 86
20, 42048, Note_on_c, 15, 77, 0
20, 42212, Note_on_c, 15, 79, 0
20, 42240, Note_on_c, 15, 77, 79
20, 42300, Note_on_c, 15, 75, 104
20, 42336, Note_on_c, 15, 77, 0
20, 42400, Note_on_c, 15, 75, 0
20, 42480, Note_on_c, 15, 75, 73
20, 42664, Note_on_c, 15, 75, 0
20, 42720, Note_on_c, 15, 75, 94
20, 42940, Note_on_c, 15, 75, 0
20, 42960, Note_on_c, 15, 79, 86
20, 42960, Note_on_c, 15, 77, 79
20, 43024, Note_on_c, 15, 77, 0
20, 43156, Note_on_c, 15, 79, 0
20, 43200, Note_on_c, 15, 77, 86
20, 43260, Note_on_c, 15, 75, 104
20, 43296, Note_on_c, 15, 77, 0
20, 44124, Note_on_c, 15, 75, 0
20, 45600, Note_on_c, 15, 77, 104
20, 45660, Note_on_c, 15, 79, 104
20, 45668, Note_on_c, 15, 77, 0
20, 45840, Note_on_c, 15, 82, 115
20, 45844, Note_on_c, 15, 79, 0
20, 46060, Note_on_c, 15, 82, 0
20, 46080, Note_on_c, 15, 77, 94
20, 46140, Note_on_c, 15, 79, 86
20, 46144, Note_on_c, 15, 77, 0
20, 47244, Note_on_c, 15, 79, 0
20, 49440, Note_on_c, 15, 79, 115
20, 49584, Note_on_c, 15, 79, 0
20, 49620, Note_on_c, 15, 79, 86
20, 49716, Note_on_c, 15, 79, 0
20, 49800, Note_on_c, 15, 79, 94
20, 49908, Note_on_c, 15, 79, 0
20, 49920, Note_on_c, 15, 77, 86
20, 49980, Note_on_c, 15, 79, 79
20, 49992, Note_on_c, 15, 77, 0
20, 50280, Note_on_c, 15, 79, 0
20, 51240, Note_on_c, 15, 72, 63
20, 51332, Note_on_c, 15, 72, 0
20, 51360, Note_on_c, 15, 79, 104
20, 51532, Note_on_c, 15, 79, 0
20, 51600, Note_on_c, 15, 79, 104
20, 51688, Note_on_c, 15, 79, 0
20, 51720, Note_on_c, 15, 79, 86
20, 51808, Note_on_c, 15, 79, 0
20, 51840, Note_on_c, 15, 77, 104
20, 51900, Note_on_c, 15, 79, 94
20, 51908, Note_on_c, 15, 77, 0
20, 52164, Note_on_c, 15, 79, 0
20, 53160, Note_on_c, 15, 72, 68
20, 53272, Note_on_c, 15, 72, 0
20, 53280, Note_on_c, 15, 79, 86
20, 53476, Note_on_c, 15, 79, 0
20, 53520, Note_on_c, 15, 79, 86
20, 53584, Note_on_c, 15, 79, 0
20, 53640, Note_on_c, 15, 79, 86
20, 53728, Note_on_c, 15, 79, 0
20, 53760, Note_on_c, 15, 77, 104
20, 53820, Note_on_c, 15, 79, 104
20, 53832, Note_on_c, 15, 77, 0
20, 54148, Note_on_c, 15, 79, 0
20, 55140, Note_on_c, 15, 72, 86
20, 55200, Note_on_c, 15, 72, 0
20, 55200, Note_on_c, 15, 82, 104
20, 55408, Note_on_c, 15, 82, 0
20, 55440, Note_on_c, 15, 80, 94
20, 55560, Note_on_c, 15, 79, 79
20, 55568, Note_on_c, 15, 80, 0
20, 55748, Note_on_c, 15, 79, 0
20, 55800, Note_on_c, 15, 79, 68
20, 55860, Note_on_c, 15, 80, 94
20, 55888, Note_on_c, 15, 79, 0
20, 56024, Note_on_c, 15, 80, 0
20, 56100, Note_on_c, 15, 80, 86
20, 56216, Note_on_c, 15, 80, 0
20, 57000, Note_on_c, 15, 72, 34
20, 57036, Note_on_c, 15, 72, 0
20, 57120, Note_on_c, 15, 76, 63
20, 57120, Note_on_c, 15, 77, 115
20, 57136, Note_on_c, 15, 76, 0
20, 57280, Note_on_c, 15, 77, 0
20, 57300, Note_on_c, 15, 75, 94
20, 57456, Note_on_c, 15, 75, 0
20, 57480, Note_on_c, 15, 74, 86
20, 57600, Note_on_c, 15, 72, 104
20, 57604, Note_on_c, 15, 74, 0
20, 57660, Note_on_c, 15, 72, 0
20, 57660, Note_on_c, 15, 74, 94
20, 57836, Note_on_c, 15, 74, 0
20, 57840, Note_on_c, 15, 72, 94
20, 57900, Note_on_c, 15, 72, 0
20, 57960, Note_on_c, 15, 72, 94
20, 58120, Note_on_c, 15, 72, 0
20, 58200, Note_on_c, 15, 72, 94
20, 58600, Note_on_c, 15, 72, 0
20, 60480, Note_on_c, 15, 77, 104
20, 60540, Note_on_c, 15, 79, 94
20, 60556, Note_on_c, 15, 77, 0
20, 60720, Note_on_c, 15, 82, 104
20, 60736, Note_on_c, 15, 79, 0
20, 60960, Note_on_c, 15, 79, 104
20, 60960, Note_on_c, 15, 77, 86
20, 60964, Note_on_c, 15, 82, 0
20, 61004, Note_on_c, 15, 77, 0
20, 61180, Note_on_c, 15, 79, 0
20, 61200, Note_on_c, 15, 77, 115
20, 61288, Note_on_c, 15, 77, 0
20, 61320, Note_on_c, 15, 75, 104
20, 62288, Note_on_c, 15, 75, 0
20, 64680, Note_on_c, 15, 67, 79
20, 64800, Note_on_c, 15, 77, 94
20, 64800, Note_on_c, 15, 75, 94
20, 64820, Note_on_c, 15, 67, 0
20, 64860, Note_on_c, 15, 75, 0
20, 64980, Note_on_c, 15, 77, 0
20, 64980, Note_on_c, 15, 75, 104
20, 65100, Note_on_c, 15, 74, 94
20, 65124, Note_on_c, 15, 75, 0
20, 65208, Note_on_c, 15, 74, 0
20, 65280, Note_on_c, 15, 72, 127
20, 65352, Note_on_c, 15, 72, 0
20, 65400, Note_on_c, 15, 74, 94
20, 65640, Note_on_c, 15, 74, 0
20, 65640, Note_on_c, 15, 72, 104
20, 65740, Note_on_c, 15, 72, 0
20, 65760, Note_on_c, 15, 72, 94
20, 66084, Note_on_c, 15, 72, 0
20, 66120, Note_on_c, 15, 72, 79
20, 66532, Note_on_c, 15, 72, 0
20, 87720, Note_on_c, 15, 67, 94
20, 87840, Note_on_c, 15, 75, 104
20, 87876, Note_on_c, 15, 67, 0
20, 87900, Note_on_c, 15, 77, 86
20, 87908, Note_on_c, 15, 75, 0
20, 88020, Note_on_c, 15, 75, 104
20, 88072, Note_on_c, 15, 77, 0
20, 88156, Note_on_c, 15, 75, 0
20, 88200, Note_on_c, 15, 74, 94
20, 88320, Note_on_c, 15, 72, 104
20, 88324, Note_on_c, 15, 74, 0
20, 88380, Note_on_c, 15, 74, 94
20, 88384, Note_on_c, 15, 72, 0
20, 88556, Note_on_c, 15, 74, 0
20, 88560, Note_on_c, 15, 72, 104
20, 88620, Note_on_c, 15, 72, 0
20, 88680, Note_on_c, 15, 72, 94
20, 88836, Note_on_c, 15, 72, 0
20, 88920, Note_on_c, 15, 72, 86
20, 89452, Note_on_c, 15, 72, 0
20, 91080, Note_on_c, 15, 72, 79
20, 91156, Note_on_c, 15, 72, 0
20, 91200, Note_on_c, 15, 77, 104
20, 91260, Note_on_c, 15, 79, 86
20, 91280, Note_on_c, 15, 77, 0
20, 91428, Note_on_c, 15, 79, 0
20, 91440, Note_on_c, 15, 82, 104
20, 91672, Note_on_c, 15, 82, 0
20, 91680, Note_on_c, 15, 79, 104
20, 91680, Note_on_c, 15, 77, 104
20, 91728, Note_on_c, 15, 77, 0
20, 91900, Note_on_c, 15, 79, 0
20, 91920, Note_on_c, 15, 77, 94
20, 92040, Note_on_c, 15, 77, 0
20, 92040, Note_on_c, 15, 75, 104
20, 93584, Note_on_c, 15, 75, 0
20, 95400, Note_on_c, 15, 67, 86
20, 95520, Note_on_c, 15, 77, 86
20, 95520, Note_on_c, 15, 75, 104
20, 95552, Note_on_c, 15, 67, 0
20, 95584, Note_on_c, 15, 75, 0
20, 95672, Note_on_c, 15, 77, 0
20, 95700, Note_on_c, 15, 75, 115
20, 95852, Note_on_c, 15, 75, 0
20, 95880, Note_on_c, 15, 74, 104
20, 96000, Note_on_c, 15, 72, 115
20, 96020, Note_on_c, 15, 74, 0
20, 96056, Note_on_c, 15, 72, 0
20, 96120, Note_on_c, 15, 74, 94
20, 96360, Note_on_c, 15, 72, 104
20, 96380, Note_on_c, 15, 74, 0
20, 96508, Note_on_c, 15, 72, 0
20, 96600, Note_on_c, 15, 72, 94
20, 97100, Note_on_c, 15, 72, 0
20, 98880, Note_on_c, 15, 77, 104
20, 98940, Note_on_c, 15, 79, 86
20, 98956, Note_on_c, 15, 77, 0
20, 99120, Note_on_c, 15, 82, 104
20, 99132, Note_on_c, 15, 79, 0
20, 99352, Note_on_c, 15, 82, 0
20, 99360, Note_on_c, 15, 79, 94
20, 99360, Note_on_c, 15, 77, 94
20, 99424, Note_on_c, 15, 77, 0
20, 99476, Note_on_c, 15, 79, 0
20, 99600, Note_on_c, 15, 79, 73
20, 99600, Note_on_c, 15, 77, 104
20, 99660, Note_on_c, 15, 77, 0
20, 99960, Note_on_c, 15, 77, 104
20, 99972, Note_on_c, 15, 79, 0
20, 100060, Note_on_c, 15, 77, 0
20, 100080, Note_on_c, 15, 75, 94
20, 101260, Note_on_c, 15, 75, 0
20, 118560, Note_on_c, 15, 79, 104
20, 118700, Note_on_c, 15, 79, 0
20, 118740, Note_on_c, 15, 79, 86
20, 118836, Note_on_c, 15, 79, 0
20, 118920, Note_on_c, 15, 79, 79
20, 119024, Note_on_c, 15, 79, 0
20, 119040, Note_on_c, 15, 77, 104
20, 119104, Note_on_c, 15, 77, 0
20, 119160, Note_on_c, 15, 79, 94
20, 119508, Note_on_c, 15, 79, 0
20, 120360, Note_on_c, 15, 72, 86
20, 120472, Note_on_c, 15, 72, 0
20, 120480, Note_on_c, 15, 79, 104
20, 120660, Note_on_c, 15, 79, 0
20, 120720, Note_on_c, 15, 79, 73
20, 120816, Note_on_c, 15, 79, 0
20, 120840, Note_on_c, 15, 79, 73
20, 120944, Note_on_c, 15, 79, 0
20, 120960, Note_on_c, 15, 77, 94
20, 121020, Note_on_c, 15, 79, 86
20, 121044, Note_on_c, 15, 77, 0
20, 121356, Note_on_c, 15, 79, 0
20, 122280, Note_on_c, 15, 72, 79
20, 122392, Note_on_c, 15, 72, 0
20, 122400, Note_on_c, 15, 79, 104
20, 122580, Note_on_c, 15, 79, 0
20, 122640, Note_on_c, 15, 79, 86
20, 122728, Note_on_c, 15, 79, 0
20, 122760, Note_on_c, 15, 79, 79
20, 122856, Note_on_c, 15, 79, 0
20, 122880, Note_on_c, 15, 77, 104
20, 122932, Note_on_c, 15, 77, 0
20, 122940, Note_on_c, 15, 79, 86
20, 123204, Note_on_c, 15, 79, 0
20, 124200, Note_on_c, 15, 72, 79
20, 124292, Note_on_c, 15, 72, 0
20, 124320, Note_on_c, 15, 82, 115
20, 124540, Note_on_c, 15, 82, 0
20, 124560, Note_on_c, 15, 80, 104
20, 124676, Note_on_c, 15, 80, 0
20, 124680, Note_on_c, 15, 79, 104
20, 124840, Note_on_c, 15, 79, 0
20, 124920, Note_on_c, 15, 79, 86
20, 124980, Note_on_c, 15, 80, 104
20, 125020, Note_on_c, 15, 79, 0
20, 125092, Note_on_c, 15, 80, 0
20, 125160, Note_on_c, 15, 80, 94
20, 125320, Note_on_c, 15, 80, 0
20, 125760, Note_on_c, 15, 82, 127
20, 126012, Note_on_c, 15, 82, 0
20, 126240, Note_on_c, 15, 82, 94
20, 126240, Note_on_c, 15, 79, 127
20, 126360, Note_on_c, 15, 79, 0
20, 126420, Note_on_c, 15, 82, 0
20, 126420, Note_on_c, 15, 79, 86
20, 126528, Note_on_c, 15, 79, 0
20, 126600, Note_on_c, 15, 79, 104
20, 126676, Note_on_c, 15, 79, 0
20, 126720, Note_on_c, 15, 82, 84
20, 126720, Note_on_c, 15, 77, 104
20, 126780, Note_on_c, 15, 79, 86
20, 126784, Note_on_c, 15, 77, 0
20, 126900, Note_on_c, 15, 82, 0
20, 127028, Note_on_c, 15, 79, 0
20, 127200, Note_on_c, 15, 82, 74
20, 127380, Note_on_c, 15, 82, 0
20, 127680, Note_on_c, 15, 82, 64
20, 127860, Note_on_c, 15, 82, 0
20, 128040, Note_on_c, 15, 72, 63
20, 128120, Note_on_c, 15, 72, 0
20, 128160, Note_on_c, 15, 82, 54
20, 128160, Note_on_c, 15, 79, 115
20, 128336, Note_on_c, 15, 79, 0
20, 128340, Note_on_c, 15, 82, 0
20, 128400, Note_on_c, 15, 79, 86
20, 128472, Note_on_c, 15, 79, 0
20, 128520, Note_on_c, 15, 79, 73
20, 128612, Note_on_c, 15, 79, 0
20, 128640, Note_on_c, 15, 77, 104
20, 128700, Note_on_c, 15, 79, 86
20, 128716, Note_on_c, 15, 77, 0
20, 128920, Note_on_c, 15, 79, 0
20, 129960, Note_on_c, 15, 72, 79
20, 130052, Note_on_c, 15, 72, 0
20, 130080, Note_on_c, 15, 79, 94
20, 130080, Note_on_c, 15, 77, 94
20, 130136, Note_on_c, 15, 77, 0
20, 130252, Note_on_c, 15, 79, 0
20, 130320, Note_on_c, 15, 79, 79
20, 130540, Note_on_c, 15, 79, 0
20, 130560, Note_on_c, 15, 77, 115
20, 130620, Note_on_c, 15, 79, 94
20, 130640, Note_on_c, 15, 77, 0
20, 130804, Note_on_c, 15, 79, 0
20, 132000, Note_on_c, 15, 82, 104
20, 132000, Note_on_c, 15, 80, 86
20, 132036, Note_on_c, 15, 80, 0
20, 132180, Note_on_c, 15, 80, 115
20, 132204, Note_on_c, 15, 82, 0
20, 132300, Note_on_c, 15, 79, 115
20, 132312, Note_on_c, 15, 80, 0
20, 132428, Note_on_c, 15, 79, 0
20, 132480, Note_on_c, 15, 77, 94
20, 132540, Note_on_c, 15, 77, 0
20, 132540, Note_on_c, 15, 79, 86
20, 132848, Note_on_c, 15, 79, 0
20, 133440, Note_on_c, 15, 72, 86
20, 133552, Note_on_c, 15, 72, 0
20, 133560, Note_on_c, 15, 75, 59
20, 133648, Note_on_c, 15, 75, 0
20, 149160, Note_on_c, 15, 67, 79
20, 149280, Note_on_c, 15, 77, 104
20, 149284, Note_on_c, 15, 67, 0
20, 149340, Note_on_c, 15, 79, 68
20, 149380, Note_on_c, 15, 79, 0
20, 149460, Note_on_c, 15, 75, 104
20, 149488, Note_on_c, 15, 77, 0
20, 149616, Note_on_c, 15, 75, 0
20, 149640, Note_on_c, 15, 74, 94
20, 149760, Note_on_c, 15, 72, 104
20, 149804, Note_on_c, 15, 74, 0
20, 149824, Note_on_c, 15, 72, 0
20, 149880, Note_on_c, 15, 74, 94
20, 150060, Note_on_c, 15, 72, 86
20, 150072, Note_on_c, 15, 74, 0
20, 150140, Note_on_c, 15, 72, 0
20, 150180, Note_on_c, 15, 72, 94
20, 150320, Note_on_c, 15, 72, 0
20, 150360, Note_on_c, 15, 72, 94
20, 150792, Note_on_c, 15, 72, 0
20, 156840, Note_on_c, 15, 67, 104
20, 156960, Note_on_c, 15, 75, 104
20, 156964, Note_on_c, 15, 67, 0
20, 157020, Note_on_c, 15, 77, 86
20, 157024, Note_on_c, 15, 75, 0
20, 157140, Note_on_c, 15, 75, 104
20, 157180, Note_on_c, 15, 77, 0
20, 157280, Note_on_c, 15, 75, 0
20, 157320, Note_on_c, 15, 74, 104
20, 157440, Note_on_c, 15, 72, 104
20, 157444, Note_on_c, 15, 74, 0
20, 157500, Note_on_c, 15, 74, 94
20, 157500, Note_on_c, 15, 75, 23
20, 157504, Note_on_c, 15, 72, 0
20, 157548, Note_on_c, 15, 75, 0
20, 157648, Note_on_c, 15, 74, 0
20, 157680, Note_on_c, 15, 72, 104
20, 157740, Note_on_c, 15, 72, 0
20, 157800, Note_on_c, 15, 72, 94
20, 157972, Note_on_c, 15, 72, 0
20, 158040, Note_on_c, 15, 72, 86
20, 158512, Note_on_c, 15, 72, 0
20, 160320, Note_on_c, 15, 77, 104
20, 160380, Note_on_c, 15, 77, 0
20, 160380, Note_on_c, 15, 79, 104
20, 160560, Note_on_c, 15, 82, 115
20, 160580, Note_on_c, 15, 79, 0
20, 160800, Note_on_c, 15, 82, 0
20, 160800, Note_on_c, 15, 79, 115
20, 160800, Note_on_c, 15, 77, 79
20, 160852, Note_on_c, 15, 77, 0
20, 161008, Note_on_c, 15, 79, 0
20, 161040, Note_on_c, 15, 77, 104
20, 161148, Note_on_c, 15, 77, 0
20, 161160, Note_on_c, 15, 75, 104
20, 162724, Note_on_c, 15, 75, 0
20, 164520, Note_on_c, 15, 72, 79
20, 164600, Note_on_c, 15, 72, 0
20, 164640, Note_on_c, 15, 79, 104
20, 164776, Note_on_c, 15, 79, 0
20, 164820, Note_on_c, 15, 79, 86
20, 164916, Note_on_c, 15, 79, 0
20, 164940, Note_on_c, 15, 79, 79
20, 165040, Note_on_c, 15, 79, 0
20, 165120, Note_on_c, 15, 77, 104
20, 165180, Note_on_c, 15, 79, 94
20, 165192, Note_on_c, 15, 77, 0
20, 165512, Note_on_c, 15, 79, 0
20, 166440, Note_on_c, 15, 72, 86
20, 166536, Note_on_c, 15, 72, 0
20, 166560, Note_on_c, 15, 79, 115
20, 166744, Note_on_c, 15, 79, 0
20, 166800, Note_on_c, 15, 79, 86
20, 166880, Note_on_c, 15, 79, 0
20, 166920, Note_on_c, 15, 79, 79
20, 166996, Note_on_c, 15, 79, 0
20, 167040, Note_on_c, 15, 77, 104
20, 167100, Note_on_c, 15, 79, 94
20, 167108, Note_on_c, 15, 77, 0
20, 167364, Note_on_c, 15, 79, 0
20, 168360, Note_on_c, 15, 72, 73
20, 168440, Note_on_c, 15, 72, 0
20, 168480, Note_on_c, 15, 79, 79
20, 168480, Note_on_c, 15, 77, 79
20, 168540, Note_on_c, 15, 77, 0
20, 168648, Note_on_c, 15, 79, 0
20, 168720, Note_on_c, 15, 79, 86
20, 168788, Note_on_c, 15, 79, 0
20, 168840, Note_on_c, 15, 79, 79
20, 168928, Note_on_c, 15, 79, 0
20, 168960, Note_on_c, 15, 77, 104
20, 169020, Note_on_c, 15, 79, 94
20, 169044, Note_on_c, 15, 77, 0
20, 169352, Note_on_c, 15, 79, 0
20, 170520, Note_on_c, 15, 79, 68
20, 170520, Note_on_c, 15, 77, 104
20, 170576, Note_on_c, 15, 77, 0
20, 170832, Note_on_c, 15, 79, 0
20, 170880, Note_on_c, 15, 77, 68
20, 171000, Note_on_c, 15, 75, 104
20, 171028, Note_on_c, 15, 77, 0
20, 171088, Note_on_c, 15, 75, 0
20, 171120, Note_on_c, 15, 75, 104
20, 171360, Note_on_c, 15, 75, 0
20, 171480, Note_on_c, 15, 79, 104
20, 171480, Note_on_c, 15, 77, 104
20, 171528, Note_on_c, 15, 77, 0
20, 171680, Note_on_c, 15, 79, 0
20, 171840, Note_on_c, 15, 77, 104
20, 171960, Note_on_c, 15, 75, 104
20, 171972, Note_on_c, 15, 77, 0
20, 172168, Note_on_c, 15, 75, 0
20, 172200, Note_on_c, 15, 72, 73
20, 172312, Note_on_c, 15, 72, 0
20, 172320, Note_on_c, 15, 79, 115
20, 172412, Note_on_c, 15, 79, 0
20, 172440, Note_on_c, 15, 79, 94
20, 172548, Note_on_c, 15, 79, 0
20, 172620, Note_on_c, 15, 79, 86
20, 172712, Note_on_c, 15, 79, 0
20, 172800, Note_on_c, 15, 77, 104
20, 172860, Note_on_c, 15, 79, 94
20, 172872, Note_on_c, 15, 77, 0
20, 173136, Note_on_c, 15, 79, 0
20, 174120, Note_on_c, 15, 72, 68
20, 174224, Note_on_c, 15, 72, 0
20, 174240, Note_on_c, 15, 81, 94
20, 174240, Note_on_c, 15, 79, 104
20, 174260, Note_on_c, 15, 81, 0
20, 174412, Note_on_c, 15, 79, 0
20, 174480, Note_on_c, 15, 79, 94
20, 174568, Note_on_c, 15, 79, 0
20, 174600, Note_on_c, 15, 79, 79
20, 174676, Note_on_c, 15, 79, 0
20, 174720, Note_on_c, 15, 77, 115
20, 174780, Note_on_c, 15, 79, 94
20, 174796, Note_on_c, 15, 77, 0
20, 175064, Note_on_c, 15, 79, 0
20, 179280, Note_on_c, 15, 79, 115
20, 179444, Note_on_c, 15, 79, 0
20, 179520, Note_on_c, 15, 77, 104
20, 179580, Note_on_c, 15, 75, 94
20, 179632, Note_on_c, 15, 77, 0
20, 179668, Note_on_c, 15, 75, 0
20, 179760, Note_on_c, 15, 75, 94
20, 179924, Note_on_c, 15, 75, 0
20, 180000, Note_on_c, 15, 72, 115
20, 180144, Note_on_c, 15, 72, 0
20, 180240, Note_on_c, 15, 70, 94
20, 180300, Note_on_c, 15, 72, 104
20, 180316, Note_on_c, 15, 70, 0
20, 180648, Note_on_c, 15, 72, 0
20, 186960, Note_on_c, 15, 79, 94
20, 186960, Note_on_c, 15, 77, 104
20, 187016, Note_on_c, 15, 77, 0
20, 187160, Note_on_c, 15, 79, 0
20, 187200, Note_on_c, 15, 77, 94
20, 187260, Note_on_c, 15, 75, 104
20, 187300, Note_on_c, 15, 77, 0
20, 187388, Note_on_c, 15, 75, 0
20, 187440, Note_on_c, 15, 72, 104
20, 187612, Note_on_c, 15, 72, 0
20, 187680, Note_on_c, 15, 72, 104
20, 187860, Note_on_c, 15, 72, 0
20, 187920, Note_on_c, 15, 70, 104
20, 187980, Note_on_c, 15, 72, 79
20, 187980, Note_on_c, 15, 71, 41
20, 187988, Note_on_c, 15, 70, 0
20, 188052, Note_on_c, 15, 71, 0
20, 188392, Note_on_c, 15, 72, 0
20, 194640, Note_on_c, 15, 79, 94
20, 194640, Note_on_c, 15, 77, 104
20, 194684, Note_on_c, 15, 77, 0
20, 194828, Note_on_c, 15, 79, 0
20, 194880, Note_on_c, 15, 77, 86
20, 194940, Note_on_c, 15, 75, 86
20, 194968, Note_on_c, 15, 77, 0
20, 195056, Note_on_c, 15, 75, 0
20, 195120, Note_on_c, 15, 75, 51
20, 195360, Note_on_c, 15, 72, 104
20, 195368, Note_on_c, 15, 75, 0
20, 195492, Note_on_c, 15, 72, 0
20, 195600, Note_on_c, 15, 70, 94
20, 195660, Note_on_c, 15, 72, 86
20, 195668, Note_on_c, 15, 70, 0
20, 196008, Note_on_c, 15, 72, 0
20, 202320, Note_on_c, 15, 79, 63
20, 202320, Note_on_c, 15, 77, 104
20, 202380, Note_on_c, 15, 77, 0
20, 202508, Note_on_c, 15, 79, 0
20, 202560, Note_on_c, 15, 77, 94
20, 202620, Note_on_c, 15, 75, 94
20, 202688, Note_on_c, 15, 77, 0
20, 202704, Note_on_c, 15, 75, 0
20, 202800, Note_on_c, 15, 75, 104
20, 203024, Note_on_c, 15, 75, 0
20, 203040, Note_on_c, 15, 72, 104
20, 203184, Note_on_c, 15, 72, 0
20, 203280, Note_on_c, 15, 70, 94
20, 203340, Note_on_c, 15, 72, 94
20, 203344, Note_on_c, 15, 70, 0
20, 203968, Note_on_c, 15, 72, 0
20, 210000, Note_on_c, 15, 79, 68
20, 210000, Note_on_c, 15, 77, 104
20, 210060, Note_on_c, 15, 77, 0
20, 210188, Note_on_c, 15, 79, 0
20, 210240, Note_on_c, 15, 77, 86
20, 210300, Note_on_c, 15, 75, 86
20, 210348, Note_on_c, 15, 77, 0
20, 210388, Note_on_c, 15, 75, 0
20, 210480, Note_on_c, 15, 75, 104
20, 210552, Note_on_c, 15, 75, 0
20, 210600, Note_on_c, 15, 75, 59
20, 210632, Note_on_c, 15, 75, 0
20, 210720, Note_on_c, 15, 72, 115
20, 210864, Note_on_c, 15, 72, 0
20, 210960, Note_on_c, 15, 70, 104
20, 211020, Note_on_c, 15, 72, 86
20, 211048, Note_on_c, 15, 70, 0
20, 211376, Note_on_c, 15, 72, 0
20, 211376, End_track
21, 0, Start_track
21, 0, Title_t, ""
21, 0, End_track
22, 0, Start_track
22, 0, Title_t, "2"
22, 0, Program_c, 15, 74
22, 0, Control_c, 15, 7, 99
22, 0, Control_c, 15, 10, 90
22, 0, Control_c, 15, 91, 83
22, 0, Control_c, 15, 93, 33
22, 0, Control_c, 15, 123, 0
22, 18720, Note_on_c, 15, 74, 97
22, 18884, Note_on_c, 15, 74, 0
22, 22320, Note_on_c, 15, 74, 97
22, 22544, Note_on_c, 15, 74, 0
22, 22920, Note_on_c, 15, 72, 97
22, 24264, Note_on_c, 15, 72, 0
22, 30480, Note_on_c, 15, 74, 97
22, 30560, Note_on_c, 15, 74, 0
22, 30600, Note_on_c, 15, 72, 87
22, 31824, Note_on_c, 15, 72, 0
22, 34560, Note_on_c, 15, 70, 97
22, 34736, Note_on_c, 15, 70, 0
22, 34800, Note_on_c, 15, 70, 79
22, 34976, Note_on_c, 15, 70, 0
22, 35040, Note_on_c, 15, 70, 97
22, 35268, Note_on_c, 15, 70, 0
22, 38400, Note_on_c, 15, 72, 108
22, 38564, Note_on_c, 15, 72, 0
22, 42480, Note_on_c, 15, 67, 66
22, 42664, Note_on_c, 15, 67, 0
22, 42720, Note_on_c, 15, 67, 87
22, 42940, Note_on_c, 15, 67, 0
22, 45840, Note_on_c, 15, 75, 108
22, 46060, Note_on_c, 15, 75, 0
22, 49440, Note_on_c, 15, 70, 108
22, 49584, Note_on_c, 15, 70, 0
22, 49620, Note_on_c, 15, 70, 79
22, 49716, Note_on_c, 15, 70, 0
22, 51360, Note_on_c, 15, 75, 97
22, 51532, Note_on_c, 15, 75, 0
22, 51720, Note_on_c, 15, 75, 79
22, 51808, Note_on_c, 15, 75, 0
22, 55560, Note_on_c, 15, 70, 72
22, 55748, Note_on_c, 15, 70, 0
22, 60720, Note_on_c, 15, 74, 97
22, 60964, Note_on_c, 15, 74, 0
22, 61200, Note_on_c, 15, 74, 108
22, 61288, Note_on_c, 15, 74, 0
22, 61320, Note_on_c, 15, 72, 97
22, 62288, Note_on_c, 15, 72, 0
22, 65280, Note_on_c, 15, 63, 120
22, 65352, Note_on_c, 15, 63, 0
22, 65760, Note_on_c, 15, 63, 87
22, 66084, Note_on_c, 15, 63, 0
22, 66120, Note_on_c, 15, 63, 72
22, 66532, Note_on_c, 15, 63, 0
22, 87720, Note_on_c, 15, 62, 87
22, 87876, Note_on_c, 15, 62, 0
22, 88680, Note_on_c, 15, 63, 87
22, 88836, Note_on_c, 15, 63, 0
22, 88920, Note_on_c, 15, 63, 79
22, 89452, Note_on_c, 15, 63, 0
22, 91440, Note_on_c, 15, 79, 97
22, 91672, Note_on_c, 15, 79, 0
22, 92040, Note_on_c, 15, 72, 97
22, 93584, Note_on_c, 15, 72, 0
22, 95400, Note_on_c, 15, 62, 79
22, 95552, Note_on_c, 15, 62, 0
22, 96000, Note_on_c, 15, 63, 108
22, 96056, Note_on_c, 15, 63, 0
22, 96360, Note_on_c, 15, 63, 97
22, 96508, Note_on_c, 15, 63, 0
22, 96600, Note_on_c, 15, 63, 87
22, 97100, Note_on_c, 15, 63, 0
22, 99120, Note_on_c, 15, 79, 97
22, 99352, Note_on_c, 15, 79, 0
22, 99960, Note_on_c, 15, 68, 97
22, 100060, Note_on_c, 15, 68, 0
22, 100080, Note_on_c, 15, 72, 87
22, 101260, Note_on_c, 15, 72, 0
22, 118560, Note_on_c, 15, 74, 97
22, 118700, Note_on_c, 15, 74, 0
22, 118740, Note_on_c, 15, 74, 79
22, 118836, Note_on_c, 15, 74, 0
22, 119040, Note_on_c, 15, 70, 97
22, 119104, Note_on_c, 15, 70, 0
22, 119160, Note_on_c, 15, 75, 87
22, 119508, Note_on_c, 15, 75, 0
22, 120480, Note_on_c, 15, 75, 97
22, 120660, Note_on_c, 15, 75, 0
22, 120720, Note_on_c, 15, 75, 66
22, 120816, Note_on_c, 15, 75, 0
22, 120840, Note_on_c, 15, 75, 66
22, 120944, Note_on_c, 15, 75, 0
22, 122400, Note_on_c, 15, 74, 97
22, 122580, Note_on_c, 15, 74, 0
22, 124560, Note_on_c, 15, 72, 97
22, 124676, Note_on_c, 15, 72, 0
22, 124680, Note_on_c, 15, 74, 97
22, 124840, Note_on_c, 15, 74, 0
22, 125760, Note_on_c, 15, 79, 120
22, 126012, Note_on_c, 15, 79, 0
22, 127200, Note_on_c, 15, 79, 67
22, 127380, Note_on_c, 15, 79, 0
22, 127680, Note_on_c, 15, 79, 57
22, 127860, Note_on_c, 15, 79, 0
22, 130320, Note_on_c, 15, 72, 72
22, 130540, Note_on_c, 15, 72, 0
22, 133440, Note_on_c, 15, 65, 79
22, 133552, Note_on_c, 15, 65, 0
22, 149160, Note_on_c, 15, 63, 72
22, 149284, Note_on_c, 15, 63, 0
22, 149460, Note_on_c, 15, 67, 97
22, 149616, Note_on_c, 15, 67, 0
22, 149760, Note_on_c, 15, 63, 97
22, 149824, Note_on_c, 15, 63, 0
22, 150360, Note_on_c, 15, 63, 87
22, 150792, Note_on_c, 15, 63, 0
22, 156840, Note_on_c, 15, 62, 97
22, 156964, Note_on_c, 15, 62, 0
22, 157800, Note_on_c, 15, 63, 87
22, 157972, Note_on_c, 15, 63, 0
22, 158040, Note_on_c, 15, 63, 79
22, 158512, Note_on_c, 15, 63, 0
22, 160560, Note_on_c, 15, 79, 108
22, 160800, Note_on_c, 15, 79, 0
22, 161040, Note_on_c, 15, 74, 97
22, 161148, Note_on_c, 15, 74, 0
22, 161160, Note_on_c, 15, 72, 97
22, 162724, Note_on_c, 15, 72, 0
22, 164640, Note_on_c, 15, 74, 97
22, 164776, Note_on_c, 15, 74, 0
22, 164940, Note_on_c, 15, 74, 72
22, 165040, Note_on_c, 15, 74, 0
22, 166440, Note_on_c, 15, 63, 79
22, 166536, Note_on_c, 15, 63, 0
22, 166560, Note_on_c, 15, 75, 108
22, 166744, Note_on_c, 15, 75, 0
22, 166920, Note_on_c, 15, 75, 72
22, 166996, Note_on_c, 15, 75, 0
22, 168360, Note_on_c, 15, 65, 66
22, 168440, Note_on_c, 15, 65, 0
22, 168720, Note_on_c, 15, 74, 79
22, 168788, Note_on_c, 15, 74, 0
22, 168840, Note_on_c, 15, 74, 72
22, 168928, Note_on_c, 15, 74, 0
22, 170880, Note_on_c, 15, 74, 61
22, 171028, Note_on_c, 15, 74, 0
22, 171840, Note_on_c, 15, 74, 97
22, 171972, Note_on_c, 15, 74, 0
22, 172440, Note_on_c, 15, 74, 87
22, 172548, Note_on_c, 15, 74, 0
22, 179280, Note_on_c, 15, 74, 108
22, 179444, Note_on_c, 15, 74, 0
22, 180000, Note_on_c, 15, 65, 108
22, 180144, Note_on_c, 15, 65, 0
22, 187440, Note_on_c, 15, 65, 97
22, 187612, Note_on_c, 15, 65, 0
22, 187680, Note_on_c, 15, 65, 97
22, 187860, Note_on_c, 15, 65, 0
22, 195360, Note_on_c, 15, 65, 97
22, 195492, Note_on_c, 15, 65, 0
22, 203040, Note_on_c, 15, 65, 97
22, 203184, Note_on_c, 15, 65, 0
22, 210720, Note_on_c, 15, 65, 108
22, 210864, Note_on_c, 15, 65, 0
22, 210864, End_track
23, 0, Start_track
23, 0, Title_t, "2"
23, 0, Program_c, 15, 74
23, 0, Control_c, 15, 7, 99
23, 0, Control_c, 15, 10, 90
23, 0, Control_c, 15, 91, 83
23, 0, Control_c, 15, 93, 33
23, 0, Control_c, 15, 123, 0
23, 18720, Note_on_c, 15, 65, 97
23, 18884, Note_on_c, 15, 65, 0
23, 22320, Note_on_c, 15, 70, 97
23, 22544, Note_on_c, 15, 70, 0
23, 22920, Note_on_c, 15, 63, 97
23, 24264, Note_on_c, 15, 63, 0
23, 30480, Note_on_c, 15, 65, 97
23, 30560, Note_on_c, 15, 65, 0
23, 30600, Note_on_c, 15, 63, 87
23, 31824, Note_on_c, 15, 63, 0
23, 34560, Note_on_c, 15, 67, 97
23, 34736, Note_on_c, 15, 67, 0
23, 34800, Note_on_c, 15, 67, 79
23, 34976, Note_on_c, 15, 67, 0
23, 35040, Note_on_c, 15, 67, 97
23, 35268, Note_on_c, 15, 67, 0
23, 38400, Note_on_c, 15, 67, 108
23, 38564, Note_on_c, 15, 67, 0
23, 42480, Note_on_c, 15, 63, 66
23, 42664, Note_on_c, 15, 63, 0
23, 42720, Note_on_c, 15, 63, 87
23, 42940, Note_on_c, 15, 63, 0
23, 45840, Note_on_c, 15, 70, 108
23, 46060, Note_on_c, 15, 70, 0
23, 49440, Note_on_c, 15, 67, 108
23, 49584, Note_on_c, 15, 67, 0
23, 49620, Note_on_c, 15, 67, 79
23, 49716, Note_on_c, 15, 67, 0
23, 51360, Note_on_c, 15, 67, 97
23, 51532, Note_on_c, 15, 67, 0
23, 51720, Note_on_c, 15, 67, 79
23, 51808, Note_on_c, 15, 67, 0
23, 55560, Note_on_c, 15, 67, 72
23, 55748, Note_on_c, 15, 67, 0
23, 60720, Note_on_c, 15, 70, 97
23, 60964, Note_on_c, 15, 70, 0
23, 61200, Note_on_c, 15, 65, 108
23, 61288, Note_on_c, 15, 65, 0
23, 61320, Note_on_c, 15, 63, 97
23, 62288, Note_on_c, 15, 63, 0
23, 65280, Note_on_c, 15, 60, 120
23, 65352, Note_on_c, 15, 60, 0
23, 65760, Note_on_c, 15, 60, 87
23, 66084, Note_on_c, 15, 60, 0
23, 66120, Note_on_c, 15, 60, 72
23, 66532, Note_on_c, 15, 60, 0
23, 87720, Note_on_c, 15, 55, 87
23, 87876, Note_on_c, 15, 55, 0
23, 88680, Note_on_c, 15, 60, 87
23, 88836, Note_on_c, 15, 60, 0
23, 88920, Note_on_c, 15, 60, 79
23, 89452, Note_on_c, 15, 60, 0
23, 91440, Note_on_c, 15, 70, 97
23, 91672, Note_on_c, 15, 70, 0
23, 92040, Note_on_c, 15, 63, 97
23, 93584, Note_on_c, 15, 63, 0
23, 95400, Note_on_c, 15, 55, 79
23, 95552, Note_on_c, 15, 55, 0
23, 96000, Note_on_c, 15, 60, 108
23, 96056, Note_on_c, 15, 60, 0
23, 96360, Note_on_c, 15, 60, 97
23, 96508, Note_on_c, 15, 60, 0
23, 96600, Note_on_c, 15, 60, 87
23, 97100, Note_on_c, 15, 60, 0
23, 99120, Note_on_c, 15, 70, 97
23, 99352, Note_on_c, 15, 70, 0
23, 99960, Note_on_c, 15, 65, 97
23, 100060, Note_on_c, 15, 65, 0
23, 100080, Note_on_c, 15, 63, 87
23, 101260, Note_on_c, 15, 63, 0
23, 118560, Note_on_c, 15, 67, 97
23, 118700, Note_on_c, 15, 67, 0
23, 118740, Note_on_c, 15, 67, 79
23, 118836, Note_on_c, 15, 67, 0
23, 119040, Note_on_c, 15, 65, 97
23, 119104, Note_on_c, 15, 65, 0
23, 119160, Note_on_c, 15, 67, 87
23, 119508, Note_on_c, 15, 67, 0
23, 120480, Note_on_c, 15, 67, 97
23, 120660, Note_on_c, 15, 67, 0
23, 120720, Note_on_c, 15, 67, 66
23, 120816, Note_on_c, 15, 67, 0
23, 120840, Note_on_c, 15, 67, 66
23, 120944, Note_on_c, 15, 67, 0
23, 122400, Note_on_c, 15, 67, 97
23, 122580, Note_on_c, 15, 67, 0
23, 124560, Note_on_c, 15, 68, 97
23, 124676, Note_on_c, 15, 68, 0
23, 124680, Note_on_c, 15, 67, 97
23, 124840, Note_on_c, 15, 67, 0
23, 125760, Note_on_c, 15, 70, 120
23, 126012, Note_on_c, 15, 70, 0
23, 127200, Note_on_c, 15, 70, 67
23, 127380, Note_on_c, 15, 70, 0
23, 127680, Note_on_c, 15, 70, 57
23, 127860, Note_on_c, 15, 70, 0
23, 130320, Note_on_c, 15, 67, 72
23, 130540, Note_on_c, 15, 67, 0
23, 133440, Note_on_c, 15, 60, 79
23, 133552, Note_on_c, 15, 60, 0
23, 149160, Note_on_c, 15, 55, 72
23, 149284, Note_on_c, 15, 55, 0
23, 149460, Note_on_c, 15, 63, 97
23, 149616, Note_on_c, 15, 63, 0
23, 149760, Note_on_c, 15, 60, 97
23, 149824, Note_on_c, 15, 60, 0
23, 150360, Note_on_c, 15, 60, 87
23, 150792, Note_on_c, 15, 60, 0
23, 156840, Note_on_c, 15, 55, 97
23, 156964, Note_on_c, 15, 55, 0
23, 157800, Note_on_c, 15, 60, 87
23, 157972, Note_on_c, 15, 60, 0
23, 158040, Note_on_c, 15, 60, 79
23, 158512, Note_on_c, 15, 60, 0
23, 160560, Note_on_c, 15, 70, 108
23, 160800, Note_on_c, 15, 70, 0
23, 161040, Note_on_c, 15, 65, 97
23, 161148, Note_on_c, 15, 65, 0
23, 161160, Note_on_c, 15, 63, 97
23, 162724, Note_on_c, 15, 63, 0
23, 164640, Note_on_c, 15, 67, 97
23, 164776, Note_on_c, 15, 67, 0
23, 164940, Note_on_c, 15, 67, 72
23, 165040, Note_on_c, 15, 67, 0
23, 166440, Note_on_c, 15, 60, 79
23, 166536, Note_on_c, 15, 60, 0
23, 166560, Note_on_c, 15, 67, 108
23, 166744, Note_on_c, 15, 67, 0
23, 166920, Note_on_c, 15, 67, 72
23, 166996, Note_on_c, 15, 67, 0
23, 168360, Note_on_c, 15, 60, 66
23, 168440, Note_on_c, 15, 60, 0
23, 168720, Note_on_c, 15, 67, 79
23, 168788, Note_on_c, 15, 67, 0
23, 168840, Note_on_c, 15, 67, 72
23, 168928, Note_on_c, 15, 67, 0
23, 170880, Note_on_c, 15, 65, 61
23, 171028, Note_on_c, 15, 65, 0
23, 171840, Note_on_c, 15, 65, 97
23, 171972, Note_on_c, 15, 65, 0
23, 172440, Note_on_c, 15, 67, 87
23, 172548, Note_on_c, 15, 67, 0
23, 179280, Note_on_c, 15, 67, 108
23, 179444, Note_on_c, 15, 67, 0
23, 180000, Note_on_c, 15, 60, 108
23, 180144, Note_on_c, 15, 60, 0
23, 187440, Note_on_c, 15, 60, 97
23, 187612, Note_on_c, 15, 60, 0
23, 187680, Note_on_c, 15, 60, 97
23, 187860, Note_on_c, 15, 60, 0
23, 195360, Note_on_c, 15, 60, 97
23, 195492, Note_on_c, 15, 60, 0
23, 203040, Note_on_c, 15, 60, 97
23, 203184, Note_on_c, 15, 60, 0
23, 210720, Note_on_c, 15, 60, 108
23, 210864, Note_on_c, 15, 60, 0
23, 210864, End_track
0, 0, End_of_file
