0, 0, Header, 1, 15, 120
1, 0, Start_track
1, 0, Time_signature, 6, 3, 12, 8
1, 0, Key_signature, 0, "major"
1, 0, Tempo, 625000
1, 0, End_track
2, 0, Start_track
2, 0, MIDI_port, 0
2, 0, Title_t, "String Sfz"
2, 0, Program_c, 0, 48
2, 360, Note_on_c, 0, 81, 78
2, 390, Note_on_c, 0, 81, 0
2, 540, Note_on_c, 0, 81, 61
2, 575, Note_on_c, 0, 81, 0
2, 720, Note_on_c, 0, 81, 36
2, 755, Note_on_c, 0, 81, 0
2, 900, Note_on_c, 0, 81, 35
2, 930, Note_on_c, 0, 81, 0
2, 1080, Note_on_c, 0, 81, 27
2, 1110, Note_on_c, 0, 81, 0
2, 1260, Note_on_c, 0, 81, 32
2, 1290, Note_on_c, 0, 81, 0
2, 1440, Note_on_c, 0, 81, 71
2, 1465, Note_on_c, 0, 81, 0
2, 1620, Note_on_c, 0, 81, 94
2, 1655, Note_on_c, 0, 81, 0
2, 1800, Note_on_c, 0, 85, 97
2, 1845, Note_on_c, 0, 85, 0
2, 2160, Note_on_c, 0, 85, 89
2, 2185, Note_on_c, 0, 85, 0
2, 2340, Note_on_c, 0, 85, 101
2, 2380, Note_on_c, 0, 85, 0
2, 2760, Note_on_c, 0, 83, 86
2, 2790, Note_on_c, 0, 83, 0
2, 2820, Note_on_c, 0, 81, 94
2, 2840, Note_on_c, 0, 81, 0
2, 2880, Note_on_c, 0, 83, 83
2, 2915, Note_on_c, 0, 83, 0
2, 3240, Note_on_c, 0, 81, 79
2, 3270, Note_on_c, 0, 81, 0
2, 3420, Note_on_c, 0, 78, 77
2, 3460, Note_on_c, 0, 78, 0
2, 3780, Note_on_c, 0, 80, 79
2, 3825, Note_on_c, 0, 80, 0
2, 3900, Note_on_c, 0, 81, 79
2, 3920, Note_on_c, 0, 81, 0
2, 3960, Note_on_c, 0, 81, 94
2, 4000, Note_on_c, 0, 81, 0
2, 4140, Note_on_c, 0, 74, 76
2, 4175, Note_on_c, 0, 74, 0
2, 4500, Note_on_c, 0, 80, 89
2, 4545, Note_on_c, 0, 80, 0
2, 4620, Note_on_c, 0, 78, 81
2, 4635, Note_on_c, 0, 78, 0
2, 4680, Note_on_c, 0, 80, 83
2, 4725, Note_on_c, 0, 80, 0
2, 4860, Note_on_c, 0, 73, 78
2, 4905, Note_on_c, 0, 73, 0
2, 5580, Note_on_c, 0, 78, 66
2, 5620, Note_on_c, 0, 78, 0
2, 5700, Note_on_c, 0, 76, 56
2, 5720, Note_on_c, 0, 76, 0
2, 5760, Note_on_c, 0, 78, 68
2, 5820, Note_on_c, 0, 78, 0
2, 5940, Note_on_c, 0, 71, 63
2, 5995, Note_on_c, 0, 71, 0
2, 6300, Note_on_c, 0, 85, 89
2, 6355, Note_on_c, 0, 85, 0
2, 6480, Note_on_c, 0, 83, 76
2, 6540, Note_on_c, 0, 83, 0
2, 6830, Note_on_c, 0, 85, 77
2, 6860, Note_on_c, 0, 85, 0
2, 7560, Note_on_c, 0, 85, 97
2, 7605, Note_on_c, 0, 85, 0
2, 7910, Note_on_c, 0, 85, 101
2, 7960, Note_on_c, 0, 85, 0
2, 8085, Note_on_c, 0, 85, 92
2, 8135, Note_on_c, 0, 85, 0
2, 8510, Note_on_c, 0, 83, 92
2, 8545, Note_on_c, 0, 83, 0
2, 8570, Note_on_c, 0, 81, 89
2, 8595, Note_on_c, 0, 81, 0
2, 8635, Note_on_c, 0, 83, 97
2, 8705, Note_on_c, 0, 83, 0
2, 8990, Note_on_c, 0, 81, 94
2, 9045, Note_on_c, 0, 81, 0
2, 9180, Note_on_c, 0, 90, 97
2, 9240, Note_on_c, 0, 90, 0
2, 9535, Note_on_c, 0, 80, 97
2, 9585, Note_on_c, 0, 80, 0
2, 9650, Note_on_c, 0, 81, 83
2, 9675, Note_on_c, 0, 81, 0
2, 9710, Note_on_c, 0, 74, 97
2, 9790, Note_on_c, 0, 74, 0
2, 10080, Note_on_c, 0, 80, 97
2, 10110, Note_on_c, 0, 78, 68
2, 10115, Note_on_c, 0, 80, 0
2, 10130, Note_on_c, 0, 80, 68
2, 10130, Note_on_c, 0, 78, 0
2, 10155, Note_on_c, 0, 80, 0
2, 10195, Note_on_c, 0, 80, 97
2, 10215, Note_on_c, 0, 78, 76
2, 10215, Note_on_c, 0, 80, 0
2, 10240, Note_on_c, 0, 80, 83
2, 10240, Note_on_c, 0, 78, 0
2, 10260, Note_on_c, 0, 80, 0
2, 10305, Note_on_c, 0, 80, 97
2, 10325, Note_on_c, 0, 78, 74
2, 10330, Note_on_c, 0, 80, 0
2, 10355, Note_on_c, 0, 80, 92
2, 10355, Note_on_c, 0, 78, 0
2, 10375, Note_on_c, 0, 80, 0
2, 10415, Note_on_c, 0, 80, 97
2, 10470, Note_on_c, 0, 80, 0
2, 10620, Note_on_c, 0, 73, 92
2, 10675, Note_on_c, 0, 73, 0
2, 11160, Note_on_c, 0, 78, 97
2, 11220, Note_on_c, 0, 78, 0
2, 11510, Note_on_c, 0, 78, 83
2, 11540, Note_on_c, 0, 76, 72
2, 11540, Note_on_c, 0, 78, 0
2, 11560, Note_on_c, 0, 78, 89
2, 11570, Note_on_c, 0, 76, 0
2, 11590, Note_on_c, 0, 78, 0
2, 11630, Note_on_c, 0, 78, 94
2, 11655, Note_on_c, 0, 76, 67
2, 11655, Note_on_c, 0, 78, 0
2, 11685, Note_on_c, 0, 78, 89
2, 11690, Note_on_c, 0, 76, 0
2, 11710, Note_on_c, 0, 78, 0
2, 11750, Note_on_c, 0, 78, 89
2, 11775, Note_on_c, 0, 76, 56
2, 11775, Note_on_c, 0, 78, 0
2, 11800, Note_on_c, 0, 78, 86
2, 11810, Note_on_c, 0, 76, 0
2, 11820, Note_on_c, 0, 78, 0
2, 11870, Note_on_c, 0, 71, 68
2, 11945, Note_on_c, 0, 71, 0
2, 12045, Note_on_c, 0, 71, 45
2, 12140, Note_on_c, 0, 71, 0
2, 12590, Note_on_c, 0, 77, 105
2, 12685, Note_on_c, 0, 77, 0
2, 12955, Note_on_c, 0, 77, 92
2, 12980, Note_on_c, 0, 75, 86
2, 12985, Note_on_c, 0, 77, 0
2, 13005, Note_on_c, 0, 77, 79
2, 13005, Note_on_c, 0, 75, 0
2, 13030, Note_on_c, 0, 77, 0
2, 13070, Note_on_c, 0, 77, 74
2, 13090, Note_on_c, 0, 75, 74
2, 13095, Note_on_c, 0, 77, 0
2, 13120, Note_on_c, 0, 77, 78
2, 13130, Note_on_c, 0, 75, 0
2, 13150, Note_on_c, 0, 77, 0
2, 13190, Note_on_c, 0, 77, 89
2, 13215, Note_on_c, 0, 75, 76
2, 13215, Note_on_c, 0, 77, 0
2, 13240, Note_on_c, 0, 77, 74
2, 13240, Note_on_c, 0, 75, 0
2, 13260, Note_on_c, 0, 77, 0
2, 13310, Note_on_c, 0, 77, 56
2, 13420, Note_on_c, 0, 77, 0
2, 13505, Note_on_c, 0, 78, 46
2, 14395, Note_on_c, 0, 78, 0
2, 14760, Note_on_c, 0, 73, 55
2, 14995, Note_on_c, 0, 71, 67
2, 15000, Note_on_c, 0, 73, 0
2, 15020, Note_on_c, 0, 73, 65
2, 15030, Note_on_c, 0, 71, 0
2, 15050, Note_on_c, 0, 74, 71
2, 15050, Note_on_c, 0, 73, 0
2, 15075, Note_on_c, 0, 73, 68
2, 15080, Note_on_c, 0, 74, 0
2, 15105, Note_on_c, 0, 71, 68
2, 15120, Note_on_c, 0, 73, 0
2, 15415, Note_on_c, 0, 69, 70
2, 15420, Note_on_c, 0, 71, 0
2, 15440, Note_on_c, 0, 68, 53
2, 15450, Note_on_c, 0, 69, 0
2, 15470, Note_on_c, 0, 69, 62
2, 15475, Note_on_c, 0, 68, 0
2, 16100, Note_on_c, 0, 69, 0
2, 16180, Note_on_c, 0, 78, 71
2, 16430, Note_on_c, 0, 76, 71
2, 16430, Note_on_c, 0, 78, 0
2, 16460, Note_on_c, 0, 78, 65
2, 16475, Note_on_c, 0, 76, 0
2, 16490, Note_on_c, 0, 79, 60
2, 16490, Note_on_c, 0, 78, 0
2, 16520, Note_on_c, 0, 78, 65
2, 16530, Note_on_c, 0, 79, 0
2, 16555, Note_on_c, 0, 76, 67
2, 16560, Note_on_c, 0, 78, 0
2, 16865, Note_on_c, 0, 74, 67
2, 16870, Note_on_c, 0, 76, 0
2, 16885, Note_on_c, 0, 73, 58
2, 16890, Note_on_c, 0, 74, 0
2, 16910, Note_on_c, 0, 74, 65
2, 16915, Note_on_c, 0, 73, 0
2, 17480, Note_on_c, 0, 74, 0
2, 17550, Note_on_c, 0, 73, 22
2, 17560, Note_on_c, 0, 73, 0
2, 17580, Note_on_c, 0, 73, 66
2, 17600, Note_on_c, 0, 71, 67
2, 17600, Note_on_c, 0, 73, 0
2, 17635, Note_on_c, 0, 73, 73
2, 17645, Note_on_c, 0, 71, 0
2, 17815, Note_on_c, 0, 78, 74
2, 17825, Note_on_c, 0, 73, 0
2, 17995, Note_on_c, 0, 80, 65
2, 18005, Note_on_c, 0, 78, 0
2, 18290, Note_on_c, 0, 75, 67
2, 18290, Note_on_c, 0, 80, 0
2, 18355, Note_on_c, 0, 77, 68
2, 18360, Note_on_c, 0, 75, 0
2, 18955, Note_on_c, 0, 78, 94
2, 18965, Note_on_c, 0, 77, 0
2, 19020, Note_on_c, 0, 80, 79
2, 19025, Note_on_c, 0, 78, 0
2, 19085, Note_on_c, 0, 81, 68
2, 19095, Note_on_c, 0, 80, 0
2, 19255, Note_on_c, 0, 85, 89
2, 19275, Note_on_c, 0, 81, 0
2, 19435, Note_on_c, 0, 83, 68
2, 19440, Note_on_c, 0, 85, 0
2, 19710, Note_on_c, 0, 78, 72
2, 19720, Note_on_c, 0, 83, 0
2, 19795, Note_on_c, 0, 80, 60
2, 19800, Note_on_c, 0, 78, 0
2, 20240, Note_on_c, 0, 80, 0
2, 20520, Note_on_c, 0, 85, 97
2, 20565, Note_on_c, 0, 85, 0
2, 20880, Note_on_c, 0, 85, 89
2, 20905, Note_on_c, 0, 85, 0
2, 21060, Note_on_c, 0, 85, 101
2, 21100, Note_on_c, 0, 85, 0
2, 21480, Note_on_c, 0, 83, 86
2, 21510, Note_on_c, 0, 83, 0
2, 21540, Note_on_c, 0, 81, 94
2, 21560, Note_on_c, 0, 81, 0
2, 21600, Note_on_c, 0, 83, 83
2, 21635, Note_on_c, 0, 83, 0
2, 21960, Note_on_c, 0, 81, 79
2, 21990, Note_on_c, 0, 81, 0
2, 22140, Note_on_c, 0, 78, 77
2, 22180, Note_on_c, 0, 78, 0
2, 22500, Note_on_c, 0, 80, 79
2, 22545, Note_on_c, 0, 80, 0
2, 22620, Note_on_c, 0, 81, 79
2, 22640, Note_on_c, 0, 81, 0
2, 22680, Note_on_c, 0, 81, 94
2, 22720, Note_on_c, 0, 81, 0
2, 22860, Note_on_c, 0, 74, 76
2, 22895, Note_on_c, 0, 74, 0
2, 23220, Note_on_c, 0, 80, 89
2, 23265, Note_on_c, 0, 80, 0
2, 23340, Note_on_c, 0, 78, 81
2, 23355, Note_on_c, 0, 78, 0
2, 23400, Note_on_c, 0, 80, 83
2, 23445, Note_on_c, 0, 80, 0
2, 23580, Note_on_c, 0, 73, 78
2, 23625, Note_on_c, 0, 73, 0
2, 24300, Note_on_c, 0, 78, 66
2, 24340, Note_on_c, 0, 78, 0
2, 24420, Note_on_c, 0, 76, 56
2, 24440, Note_on_c, 0, 76, 0
2, 24480, Note_on_c, 0, 78, 68
2, 24540, Note_on_c, 0, 78, 0
2, 24660, Note_on_c, 0, 71, 63
2, 24715, Note_on_c, 0, 71, 0
2, 25020, Note_on_c, 0, 85, 89
2, 25075, Note_on_c, 0, 85, 0
2, 25200, Note_on_c, 0, 83, 76
2, 25260, Note_on_c, 0, 83, 0
2, 25550, Note_on_c, 0, 85, 77
2, 25580, Note_on_c, 0, 85, 0
2, 26280, Note_on_c, 0, 85, 97
2, 26325, Note_on_c, 0, 85, 0
2, 26630, Note_on_c, 0, 85, 101
2, 26680, Note_on_c, 0, 85, 0
2, 26805, Note_on_c, 0, 85, 92
2, 26855, Note_on_c, 0, 85, 0
2, 27230, Note_on_c, 0, 83, 92
2, 27265, Note_on_c, 0, 83, 0
2, 27290, Note_on_c, 0, 81, 89
2, 27315, Note_on_c, 0, 81, 0
2, 27355, Note_on_c, 0, 83, 97
2, 27425, Note_on_c, 0, 83, 0
2, 27710, Note_on_c, 0, 81, 94
2, 27765, Note_on_c, 0, 81, 0
2, 27900, Note_on_c, 0, 90, 97
2, 27960, Note_on_c, 0, 90, 0
2, 28255, Note_on_c, 0, 80, 97
2, 28305, Note_on_c, 0, 80, 0
2, 28370, Note_on_c, 0, 81, 83
2, 28395, Note_on_c, 0, 81, 0
2, 28430, Note_on_c, 0, 74, 97
2, 28510, Note_on_c, 0, 74, 0
2, 28800, Note_on_c, 0, 80, 97
2, 28830, Note_on_c, 0, 78, 68
2, 28835, Note_on_c, 0, 80, 0
2, 28850, Note_on_c, 0, 80, 68
2, 28850, Note_on_c, 0, 78, 0
2, 28875, Note_on_c, 0, 80, 0
2, 28915, Note_on_c, 0, 80, 97
2, 28935, Note_on_c, 0, 78, 76
2, 28935, Note_on_c, 0, 80, 0
2, 28960, Note_on_c, 0, 80, 83
2, 28960, Note_on_c, 0, 78, 0
2, 28980, Note_on_c, 0, 80, 0
2, 29025, Note_on_c, 0, 80, 97
2, 29045, Note_on_c, 0, 78, 74
2, 29050, Note_on_c, 0, 80, 0
2, 29075, Note_on_c, 0, 80, 92
2, 29075, Note_on_c, 0, 78, 0
2, 29095, Note_on_c, 0, 80, 0
2, 29135, Note_on_c, 0, 80, 97
2, 29190, Note_on_c, 0, 80, 0
2, 29340, Note_on_c, 0, 73, 92
2, 29395, Note_on_c, 0, 73, 0
2, 29880, Note_on_c, 0, 78, 97
2, 29940, Note_on_c, 0, 78, 0
2, 30230, Note_on_c, 0, 78, 83
2, 30260, Note_on_c, 0, 76, 72
2, 30260, Note_on_c, 0, 78, 0
2, 30280, Note_on_c, 0, 78, 89
2, 30290, Note_on_c, 0, 76, 0
2, 30310, Note_on_c, 0, 78, 0
2, 30350, Note_on_c, 0, 78, 94
2, 30375, Note_on_c, 0, 76, 67
2, 30375, Note_on_c, 0, 78, 0
2, 30405, Note_on_c, 0, 78, 89
2, 30410, Note_on_c, 0, 76, 0
2, 30430, Note_on_c, 0, 78, 0
2, 30470, Note_on_c, 0, 78, 89
2, 30495, Note_on_c, 0, 76, 56
2, 30495, Note_on_c, 0, 78, 0
2, 30520, Note_on_c, 0, 78, 86
2, 30530, Note_on_c, 0, 76, 0
2, 30540, Note_on_c, 0, 78, 0
2, 30590, Note_on_c, 0, 71, 68
2, 30665, Note_on_c, 0, 71, 0
2, 30765, Note_on_c, 0, 71, 45
2, 30860, Note_on_c, 0, 71, 0
2, 31310, Note_on_c, 0, 77, 105
2, 31405, Note_on_c, 0, 77, 0
2, 31675, Note_on_c, 0, 77, 92
2, 31700, Note_on_c, 0, 75, 86
2, 31705, Note_on_c, 0, 77, 0
2, 31725, Note_on_c, 0, 77, 79
2, 31725, Note_on_c, 0, 75, 0
2, 31750, Note_on_c, 0, 77, 0
2, 31790, Note_on_c, 0, 77, 74
2, 31810, Note_on_c, 0, 75, 74
2, 31815, Note_on_c, 0, 77, 0
2, 31840, Note_on_c, 0, 77, 78
2, 31850, Note_on_c, 0, 75, 0
2, 31870, Note_on_c, 0, 77, 0
2, 31910, Note_on_c, 0, 77, 89
2, 31935, Note_on_c, 0, 75, 76
2, 31935, Note_on_c, 0, 77, 0
2, 31960, Note_on_c, 0, 77, 74
2, 31960, Note_on_c, 0, 75, 0
2, 31980, Note_on_c, 0, 77, 0
2, 32030, Note_on_c, 0, 77, 56
2, 32140, Note_on_c, 0, 77, 0
2, 32225, Note_on_c, 0, 78, 46
2, 33115, Note_on_c, 0, 78, 0
2, 33480, Note_on_c, 0, 73, 55
2, 33715, Note_on_c, 0, 71, 67
2, 33720, Note_on_c, 0, 73, 0
2, 33740, Note_on_c, 0, 73, 65
2, 33750, Note_on_c, 0, 71, 0
2, 33770, Note_on_c, 0, 74, 71
2, 33770, Note_on_c, 0, 73, 0
2, 33795, Note_on_c, 0, 73, 68
2, 33800, Note_on_c, 0, 74, 0
2, 33825, Note_on_c, 0, 71, 68
2, 33840, Note_on_c, 0, 73, 0
2, 34135, Note_on_c, 0, 69, 70
2, 34140, Note_on_c, 0, 71, 0
2, 34160, Note_on_c, 0, 68, 53
2, 34170, Note_on_c, 0, 69, 0
2, 34190, Note_on_c, 0, 69, 62
2, 34195, Note_on_c, 0, 68, 0
2, 34820, Note_on_c, 0, 69, 0
2, 34900, Note_on_c, 0, 78, 71
2, 35150, Note_on_c, 0, 76, 71
2, 35150, Note_on_c, 0, 78, 0
2, 35180, Note_on_c, 0, 78, 65
2, 35195, Note_on_c, 0, 76, 0
2, 35210, Note_on_c, 0, 79, 60
2, 35210, Note_on_c, 0, 78, 0
2, 35240, Note_on_c, 0, 78, 65
2, 35250, Note_on_c, 0, 79, 0
2, 35275, Note_on_c, 0, 76, 67
2, 35280, Note_on_c, 0, 78, 0
2, 35585, Note_on_c, 0, 74, 67
2, 35590, Note_on_c, 0, 76, 0
2, 35605, Note_on_c, 0, 73, 58
2, 35610, Note_on_c, 0, 74, 0
2, 35630, Note_on_c, 0, 74, 65
2, 35635, Note_on_c, 0, 73, 0
2, 36200, Note_on_c, 0, 74, 0
2, 36270, Note_on_c, 0, 73, 22
2, 36280, Note_on_c, 0, 73, 0
2, 36300, Note_on_c, 0, 73, 66
2, 36320, Note_on_c, 0, 71, 67
2, 36320, Note_on_c, 0, 73, 0
2, 36355, Note_on_c, 0, 73, 73
2, 36365, Note_on_c, 0, 71, 0
2, 36535, Note_on_c, 0, 78, 74
2, 36545, Note_on_c, 0, 73, 0
2, 36715, Note_on_c, 0, 80, 65
2, 36725, Note_on_c, 0, 78, 0
2, 37010, Note_on_c, 0, 75, 67
2, 37010, Note_on_c, 0, 80, 0
2, 37075, Note_on_c, 0, 77, 68
2, 37080, Note_on_c, 0, 75, 0
2, 37675, Note_on_c, 0, 78, 94
2, 37685, Note_on_c, 0, 77, 0
2, 37740, Note_on_c, 0, 80, 79
2, 37745, Note_on_c, 0, 78, 0
2, 37805, Note_on_c, 0, 81, 68
2, 37815, Note_on_c, 0, 80, 0
2, 37975, Note_on_c, 0, 85, 89
2, 37995, Note_on_c, 0, 81, 0
2, 38155, Note_on_c, 0, 83, 68
2, 38160, Note_on_c, 0, 85, 0
2, 38430, Note_on_c, 0, 78, 72
2, 38440, Note_on_c, 0, 83, 0
2, 38515, Note_on_c, 0, 80, 60
2, 38520, Note_on_c, 0, 78, 0
2, 38960, Note_on_c, 0, 80, 0
2, 39240, Note_on_c, 0, 85, 97
2, 39285, Note_on_c, 0, 85, 0
2, 39600, Note_on_c, 0, 85, 89
2, 39625, Note_on_c, 0, 85, 0
2, 39780, Note_on_c, 0, 85, 101
2, 39820, Note_on_c, 0, 85, 0
2, 40200, Note_on_c, 0, 83, 86
2, 40230, Note_on_c, 0, 83, 0
2, 40260, Note_on_c, 0, 81, 94
2, 40280, Note_on_c, 0, 81, 0
2, 40320, Note_on_c, 0, 83, 83
2, 40355, Note_on_c, 0, 83, 0
2, 40680, Note_on_c, 0, 81, 79
2, 40710, Note_on_c, 0, 81, 0
2, 40860, Note_on_c, 0, 78, 77
2, 40900, Note_on_c, 0, 78, 0
2, 41220, Note_on_c, 0, 80, 79
2, 41265, Note_on_c, 0, 80, 0
2, 41340, Note_on_c, 0, 81, 79
2, 41360, Note_on_c, 0, 81, 0
2, 41400, Note_on_c, 0, 81, 94
2, 41440, Note_on_c, 0, 81, 0
2, 41580, Note_on_c, 0, 74, 76
2, 41615, Note_on_c, 0, 74, 0
2, 41940, Note_on_c, 0, 80, 89
2, 41985, Note_on_c, 0, 80, 0
2, 42060, Note_on_c, 0, 78, 81
2, 42075, Note_on_c, 0, 78, 0
2, 42120, Note_on_c, 0, 80, 83
2, 42165, Note_on_c, 0, 80, 0
2, 42300, Note_on_c, 0, 73, 78
2, 42345, Note_on_c, 0, 73, 0
2, 43020, Note_on_c, 0, 78, 66
2, 43060, Note_on_c, 0, 78, 0
2, 43140, Note_on_c, 0, 76, 56
2, 43160, Note_on_c, 0, 76, 0
2, 43200, Note_on_c, 0, 78, 68
2, 43260, Note_on_c, 0, 78, 0
2, 43380, Note_on_c, 0, 71, 63
2, 43435, Note_on_c, 0, 71, 0
2, 43740, Note_on_c, 0, 85, 89
2, 43795, Note_on_c, 0, 85, 0
2, 43920, Note_on_c, 0, 83, 76
2, 43980, Note_on_c, 0, 83, 0
2, 44270, Note_on_c, 0, 85, 77
2, 44300, Note_on_c, 0, 85, 0
2, 45000, Note_on_c, 0, 85, 97
2, 45045, Note_on_c, 0, 85, 0
2, 45350, Note_on_c, 0, 85, 101
2, 45400, Note_on_c, 0, 85, 0
2, 45525, Note_on_c, 0, 85, 92
2, 45575, Note_on_c, 0, 85, 0
2, 45950, Note_on_c, 0, 83, 92
2, 45985, Note_on_c, 0, 83, 0
2, 46010, Note_on_c, 0, 81, 89
2, 46035, Note_on_c, 0, 81, 0
2, 46075, Note_on_c, 0, 83, 97
2, 46145, Note_on_c, 0, 83, 0
2, 46430, Note_on_c, 0, 81, 94
2, 46485, Note_on_c, 0, 81, 0
2, 46620, Note_on_c, 0, 90, 97
2, 46680, Note_on_c, 0, 90, 0
2, 46975, Note_on_c, 0, 80, 97
2, 47025, Note_on_c, 0, 80, 0
2, 47090, Note_on_c, 0, 81, 83
2, 47115, Note_on_c, 0, 81, 0
2, 47150, Note_on_c, 0, 74, 97
2, 47230, Note_on_c, 0, 74, 0
2, 47520, Note_on_c, 0, 80, 97
2, 47550, Note_on_c, 0, 78, 68
2, 47555, Note_on_c, 0, 80, 0
2, 47570, Note_on_c, 0, 80, 68
2, 47570, Note_on_c, 0, 78, 0
2, 47595, Note_on_c, 0, 80, 0
2, 47635, Note_on_c, 0, 80, 97
2, 47655, Note_on_c, 0, 78, 76
2, 47655, Note_on_c, 0, 80, 0
2, 47680, Note_on_c, 0, 80, 83
2, 47680, Note_on_c, 0, 78, 0
2, 47700, Note_on_c, 0, 80, 0
2, 47745, Note_on_c, 0, 80, 97
2, 47765, Note_on_c, 0, 78, 74
2, 47770, Note_on_c, 0, 80, 0
2, 47795, Note_on_c, 0, 80, 92
2, 47795, Note_on_c, 0, 78, 0
2, 47815, Note_on_c, 0, 80, 0
2, 47855, Note_on_c, 0, 80, 97
2, 47910, Note_on_c, 0, 80, 0
2, 48060, Note_on_c, 0, 73, 92
2, 48115, Note_on_c, 0, 73, 0
2, 48600, Note_on_c, 0, 78, 97
2, 48660, Note_on_c, 0, 78, 0
2, 48950, Note_on_c, 0, 78, 83
2, 48980, Note_on_c, 0, 76, 72
2, 48980, Note_on_c, 0, 78, 0
2, 49000, Note_on_c, 0, 78, 89
2, 49010, Note_on_c, 0, 76, 0
2, 49030, Note_on_c, 0, 78, 0
2, 49070, Note_on_c, 0, 78, 94
2, 49095, Note_on_c, 0, 76, 67
2, 49095, Note_on_c, 0, 78, 0
2, 49125, Note_on_c, 0, 78, 89
2, 49130, Note_on_c, 0, 76, 0
2, 49150, Note_on_c, 0, 78, 0
2, 49190, Note_on_c, 0, 78, 89
2, 49215, Note_on_c, 0, 76, 56
2, 49215, Note_on_c, 0, 78, 0
2, 49240, Note_on_c, 0, 78, 86
2, 49250, Note_on_c, 0, 76, 0
2, 49260, Note_on_c, 0, 78, 0
2, 49310, Note_on_c, 0, 71, 68
2, 49385, Note_on_c, 0, 71, 0
2, 49485, Note_on_c, 0, 71, 45
2, 49580, Note_on_c, 0, 71, 0
2, 50030, Note_on_c, 0, 77, 105
2, 50125, Note_on_c, 0, 77, 0
2, 50395, Note_on_c, 0, 77, 92
2, 50420, Note_on_c, 0, 75, 86
2, 50425, Note_on_c, 0, 77, 0
2, 50445, Note_on_c, 0, 77, 79
2, 50445, Note_on_c, 0, 75, 0
2, 50470, Note_on_c, 0, 77, 0
2, 50510, Note_on_c, 0, 77, 74
2, 50530, Note_on_c, 0, 75, 74
2, 50535, Note_on_c, 0, 77, 0
2, 50560, Note_on_c, 0, 77, 78
2, 50570, Note_on_c, 0, 75, 0
2, 50590, Note_on_c, 0, 77, 0
2, 50630, Note_on_c, 0, 77, 89
2, 50655, Note_on_c, 0, 75, 76
2, 50655, Note_on_c, 0, 77, 0
2, 50680, Note_on_c, 0, 77, 74
2, 50680, Note_on_c, 0, 75, 0
2, 50700, Note_on_c, 0, 77, 0
2, 50750, Note_on_c, 0, 77, 56
2, 50820, Note_on_c, 0, 78, 86
2, 50850, Note_on_c, 0, 78, 0
2, 50860, Note_on_c, 0, 77, 0
2, 50940, Note_on_c, 0, 78, 94
2, 50985, Note_on_c, 0, 78, 0
2, 51420, Note_on_c, 0, 78, 74
2, 51445, Note_on_c, 0, 78, 0
2, 51660, Note_on_c, 0, 78, 68
2, 51720, Note_on_c, 0, 78, 0
2, 52080, Note_on_c, 0, 78, 72
2, 52115, Note_on_c, 0, 78, 0
2, 52200, Note_on_c, 0, 78, 105
2, 52240, Note_on_c, 0, 78, 0
2, 52320, Note_on_c, 0, 78, 97
2, 52375, Note_on_c, 0, 78, 0
2, 52560, Note_on_c, 0, 78, 79
2, 52600, Note_on_c, 0, 78, 0
2, 53100, Note_on_c, 0, 78, 89
2, 53145, Note_on_c, 0, 78, 0
2, 53280, Note_on_c, 0, 78, 78
2, 53340, Note_on_c, 0, 78, 0
2, 53700, Note_on_c, 0, 78, 92
2, 53745, Note_on_c, 0, 78, 0
2, 53820, Note_on_c, 0, 78, 94
2, 53880, Note_on_c, 0, 78, 0
2, 54240, Note_on_c, 0, 78, 68
2, 54280, Note_on_c, 0, 78, 0
2, 54540, Note_on_c, 0, 78, 76
2, 54590, Note_on_c, 0, 78, 0
2, 54960, Note_on_c, 0, 78, 78
2, 54995, Note_on_c, 0, 78, 0
2, 55080, Note_on_c, 0, 78, 83
2, 55115, Note_on_c, 0, 78, 0
2, 55200, Note_on_c, 0, 78, 77
2, 55240, Note_on_c, 0, 78, 0
2, 55440, Note_on_c, 0, 78, 74
2, 55490, Note_on_c, 0, 78, 0
2, 55975, Note_on_c, 0, 78, 68
2, 56030, Note_on_c, 0, 78, 0
2, 56180, Note_on_c, 0, 78, 56
2, 56250, Note_on_c, 0, 78, 0
2, 56635, Note_on_c, 0, 78, 14
2, 56910, Note_on_c, 0, 78, 33
2, 56910, Note_on_c, 0, 78, 0
2, 57120, Note_on_c, 0, 78, 24
2, 57120, Note_on_c, 0, 78, 0
2, 58240, Note_on_c, 0, 78, 0
2, 58240, End_track
3, 0, Start_track
3, 0, MIDI_port, 0
3, 0, Title_t, "String Ensemble 2"
3, 0, Program_c, 1, 49
3, 7260, Note_on_c, 1, 61, 64
3, 7320, Note_on_c, 1, 59, 64
3, 7335, Note_on_c, 1, 61, 0
3, 7380, Note_on_c, 1, 57, 69
3, 7395, Note_on_c, 1, 59, 0
3, 7440, Note_on_c, 1, 56, 79
3, 7445, Note_on_c, 1, 57, 0
3, 7500, Note_on_c, 1, 49, 58
3, 7510, Note_on_c, 1, 56, 0
3, 7560, Note_on_c, 1, 54, 34
3, 7560, Note_on_c, 1, 69, 45
3, 7560, Note_on_c, 1, 61, 25
3, 7560, Note_on_c, 1, 66, 29
3, 7580, Note_on_c, 1, 49, 0
3, 8240, Note_on_c, 1, 61, 0
3, 8280, Note_on_c, 1, 52, 51
3, 8280, Note_on_c, 1, 64, 23
3, 8280, Note_on_c, 1, 68, 34
3, 8280, Note_on_c, 1, 59, 28
3, 8280, Note_on_c, 1, 66, 0
3, 8290, Note_on_c, 1, 54, 0
3, 8300, Note_on_c, 1, 69, 0
3, 8935, Note_on_c, 1, 64, 0
3, 9000, Note_on_c, 1, 62, 28
3, 9000, Note_on_c, 1, 66, 41
3, 9000, Note_on_c, 1, 50, 48
3, 9000, Note_on_c, 1, 57, 10
3, 9015, Note_on_c, 1, 59, 0
3, 9035, Note_on_c, 1, 68, 0
3, 9050, Note_on_c, 1, 52, 0
3, 9635, Note_on_c, 1, 57, 0
3, 9720, Note_on_c, 1, 62, 20
3, 9720, Note_on_c, 1, 59, 33
3, 9720, Note_on_c, 1, 47, 45
3, 9720, Note_on_c, 1, 66, 30
3, 9720, Note_on_c, 1, 62, 0
3, 9720, Note_on_c, 1, 66, 0
3, 9730, Note_on_c, 1, 50, 0
3, 10075, Note_on_c, 1, 47, 0
3, 10075, Note_on_c, 1, 66, 0
3, 10080, Note_on_c, 1, 64, 57
3, 10080, Note_on_c, 1, 68, 27
3, 10080, Note_on_c, 1, 52, 51
3, 10080, Note_on_c, 1, 62, 0
3, 10430, Note_on_c, 1, 59, 0
3, 10440, Note_on_c, 1, 61, 45
3, 10440, Note_on_c, 1, 45, 61
3, 10450, Note_on_c, 1, 52, 0
3, 11160, Note_on_c, 1, 50, 58
3, 11160, Note_on_c, 1, 62, 46
3, 11160, Note_on_c, 1, 66, 47
3, 11160, Note_on_c, 1, 57, 5
3, 11170, Note_on_c, 1, 61, 0
3, 11185, Note_on_c, 1, 45, 0
3, 11200, Note_on_c, 1, 68, 0
3, 11200, Note_on_c, 1, 64, 0
3, 11805, Note_on_c, 1, 57, 0
3, 11855, Note_on_c, 1, 50, 0
3, 11880, Note_on_c, 1, 59, 57
3, 11880, Note_on_c, 1, 44, 57
3, 12570, Note_on_c, 1, 66, 0
3, 12575, Note_on_c, 1, 62, 0
3, 12580, Note_on_c, 1, 59, 0
3, 12600, Note_on_c, 1, 49, 53
3, 12600, Note_on_c, 1, 65, 51
3, 12600, Note_on_c, 1, 68, 46
3, 12600, Note_on_c, 1, 61, 41
3, 12610, Note_on_c, 1, 44, 0
3, 12960, Note_on_c, 1, 56, 28
3, 13295, Note_on_c, 1, 61, 0
3, 13320, Note_on_c, 1, 57, 64
3, 13320, Note_on_c, 1, 61, 43
3, 13320, Note_on_c, 1, 66, 42
3, 13320, Note_on_c, 1, 54, 57
3, 13330, Note_on_c, 1, 56, 0
3, 13335, Note_on_c, 1, 65, 0
3, 13355, Note_on_c, 1, 68, 0
3, 13370, Note_on_c, 1, 49, 0
3, 14040, Note_on_c, 1, 69, 14
3, 14045, Note_on_c, 1, 78, 46
3, 14090, Note_on_c, 1, 73, 42
3, 14095, Note_on_c, 1, 78, 0
3, 14145, Note_on_c, 1, 80, 47
3, 14155, Note_on_c, 1, 73, 0
3, 14205, Note_on_c, 1, 81, 52
3, 14215, Note_on_c, 1, 80, 0
3, 14265, Note_on_c, 1, 80, 46
3, 14275, Note_on_c, 1, 81, 0
3, 14325, Note_on_c, 1, 78, 45
3, 14335, Note_on_c, 1, 80, 0
3, 14395, Note_on_c, 1, 73, 52
3, 14395, Note_on_c, 1, 78, 0
3, 14450, Note_on_c, 1, 69, 58
3, 14450, Note_on_c, 1, 69, 0
3, 14455, Note_on_c, 1, 73, 0
3, 14510, Note_on_c, 1, 68, 42
3, 14520, Note_on_c, 1, 69, 0
3, 14565, Note_on_c, 1, 66, 53
3, 14565, Note_on_c, 1, 66, 0
3, 14570, Note_on_c, 1, 68, 0
3, 14625, Note_on_c, 1, 61, 48
3, 14625, Note_on_c, 1, 61, 0
3, 14625, Note_on_c, 1, 66, 0
3, 14685, Note_on_c, 1, 57, 52
3, 14685, Note_on_c, 1, 57, 0
3, 14690, Note_on_c, 1, 61, 0
3, 14735, Note_on_c, 1, 57, 0
3, 14740, Note_on_c, 1, 54, 0
3, 14750, Note_on_c, 1, 61, 24
3, 14760, Note_on_c, 1, 61, 26
3, 14760, Note_on_c, 1, 57, 38
3, 14760, Note_on_c, 1, 64, 34
3, 14760, Note_on_c, 1, 69, 32
3, 14760, Note_on_c, 1, 61, 0
3, 15045, Note_on_c, 1, 61, 0
3, 15050, Note_on_c, 1, 64, 0
3, 15110, Note_on_c, 1, 57, 0
3, 15115, Note_on_c, 1, 69, 0
3, 15120, Note_on_c, 1, 61, 19
3, 15120, Note_on_c, 1, 65, 47
3, 15120, Note_on_c, 1, 56, 45
3, 15120, Note_on_c, 1, 68, 45
3, 15480, Note_on_c, 1, 61, 19
3, 15480, Note_on_c, 1, 54, 48
3, 15480, Note_on_c, 1, 69, 47
3, 15480, Note_on_c, 1, 66, 38
3, 15480, Note_on_c, 1, 61, 0
3, 15485, Note_on_c, 1, 78, 63
3, 15510, Note_on_c, 1, 68, 0
3, 15510, Note_on_c, 1, 65, 0
3, 15515, Note_on_c, 1, 56, 0
3, 15550, Note_on_c, 1, 78, 0
3, 15655, Note_on_c, 1, 73, 64
3, 15725, Note_on_c, 1, 73, 0
3, 15835, Note_on_c, 1, 69, 67
3, 15835, Note_on_c, 1, 69, 0
3, 15840, Note_on_c, 1, 52, 64
3, 15855, Note_on_c, 1, 54, 0
3, 15915, Note_on_c, 1, 69, 0
3, 16005, Note_on_c, 1, 66, 61
3, 16005, Note_on_c, 1, 66, 0
3, 16080, Note_on_c, 1, 66, 0
3, 16185, Note_on_c, 1, 62, 64
3, 16195, Note_on_c, 1, 61, 0
3, 16200, Note_on_c, 1, 62, 32
3, 16200, Note_on_c, 1, 50, 63
3, 16200, Note_on_c, 1, 62, 0
3, 16205, Note_on_c, 1, 52, 0
3, 16265, Note_on_c, 1, 62, 0
3, 16545, Note_on_c, 1, 50, 0
3, 16560, Note_on_c, 1, 66, 55
3, 16560, Note_on_c, 1, 49, 69
3, 16560, Note_on_c, 1, 61, 61
3, 16560, Note_on_c, 1, 70, 58
3, 16915, Note_on_c, 1, 61, 0
3, 16920, Note_on_c, 1, 78, 68
3, 16920, Note_on_c, 1, 47, 52
3, 16920, Note_on_c, 1, 71, 62
3, 16920, Note_on_c, 1, 62, 58
3, 16930, Note_on_c, 1, 49, 0
3, 16940, Note_on_c, 1, 70, 0
3, 16990, Note_on_c, 1, 78, 0
3, 17095, Note_on_c, 1, 74, 71
3, 17175, Note_on_c, 1, 74, 0
3, 17275, Note_on_c, 1, 71, 79
3, 17275, Note_on_c, 1, 71, 0
3, 17350, Note_on_c, 1, 71, 0
3, 17455, Note_on_c, 1, 66, 79
3, 17455, Note_on_c, 1, 66, 0
3, 17535, Note_on_c, 1, 66, 0
3, 17640, Note_on_c, 1, 45, 58
3, 17640, Note_on_c, 1, 61, 38
3, 17640, Note_on_c, 1, 57, 45
3, 17640, Note_on_c, 1, 66, 42
3, 17640, Note_on_c, 1, 78, 46
3, 17640, Note_on_c, 1, 62, 0
3, 17645, Note_on_c, 1, 66, 0
3, 17650, Note_on_c, 1, 47, 0
3, 17945, Note_on_c, 1, 61, 0
3, 17960, Note_on_c, 1, 78, 0
3, 18000, Note_on_c, 1, 80, 57
3, 18000, Note_on_c, 1, 63, 56
3, 18000, Note_on_c, 1, 44, 67
3, 18000, Note_on_c, 1, 60, 40
3, 18000, Note_on_c, 1, 45, 0
3, 18000, Note_on_c, 1, 57, 0
3, 18335, Note_on_c, 1, 60, 0
3, 18360, Note_on_c, 1, 77, 20
3, 18360, Note_on_c, 1, 77, 38
3, 18360, Note_on_c, 1, 65, 60
3, 18360, Note_on_c, 1, 61, 33
3, 18360, Note_on_c, 1, 68, 55
3, 18360, Note_on_c, 1, 49, 64
3, 18361, Note_on_c, 1, 77, 0
3, 18380, Note_on_c, 1, 63, 0
3, 18380, Note_on_c, 1, 44, 0
3, 18390, Note_on_c, 1, 80, 0
3, 18535, Note_on_c, 1, 66, 95
3, 18650, Note_on_c, 1, 65, 79
3, 18650, Note_on_c, 1, 66, 0
3, 18650, Note_on_c, 1, 65, 0
3, 18715, Note_on_c, 1, 68, 87
3, 18715, Note_on_c, 1, 68, 0
3, 18725, Note_on_c, 1, 65, 0
3, 18945, Note_on_c, 1, 68, 0
3, 18950, Note_on_c, 1, 69, 60
3, 18975, Note_on_c, 1, 77, 0
3, 19015, Note_on_c, 1, 71, 71
3, 19025, Note_on_c, 1, 69, 0
3, 19070, Note_on_c, 1, 73, 69
3, 19080, Note_on_c, 1, 42, 36
3, 19080, Note_on_c, 1, 61, 45
3, 19080, Note_on_c, 1, 57, 55
3, 19080, Note_on_c, 1, 66, 56
3, 19080, Note_on_c, 1, 61, 0
3, 19085, Note_on_c, 1, 71, 0
3, 19105, Note_on_c, 1, 61, 0
3, 19105, Note_on_c, 1, 49, 0
3, 19405, Note_on_c, 1, 57, 0
3, 19415, Note_on_c, 1, 66, 0
3, 19440, Note_on_c, 1, 78, 66
3, 19440, Note_on_c, 1, 66, 43
3, 19440, Note_on_c, 1, 47, 55
3, 19440, Note_on_c, 1, 59, 13
3, 19440, Note_on_c, 1, 63, 23
3, 19440, Note_on_c, 1, 63, 27
3, 19441, Note_on_c, 1, 63, 0
3, 19445, Note_on_c, 1, 63, 0
3, 19450, Note_on_c, 1, 73, 0
3, 19465, Note_on_c, 1, 42, 0
3, 19780, Note_on_c, 1, 59, 0
3, 19790, Note_on_c, 1, 80, 37
3, 19800, Note_on_c, 1, 49, 45
3, 19800, Note_on_c, 1, 61, 38
3, 19800, Note_on_c, 1, 65, 57
3, 19800, Note_on_c, 1, 68, 32
3, 19800, Note_on_c, 1, 78, 0
3, 19810, Note_on_c, 1, 47, 0
3, 19820, Note_on_c, 1, 66, 0
3, 20185, Note_on_c, 1, 80, 0
3, 20185, Note_on_c, 1, 49, 0
3, 20185, Note_on_c, 1, 61, 0
3, 20190, Note_on_c, 1, 65, 0
3, 20190, Note_on_c, 1, 68, 0
3, 25980, Note_on_c, 1, 61, 64
3, 26040, Note_on_c, 1, 59, 64
3, 26055, Note_on_c, 1, 61, 0
3, 26100, Note_on_c, 1, 57, 69
3, 26115, Note_on_c, 1, 59, 0
3, 26160, Note_on_c, 1, 56, 79
3, 26165, Note_on_c, 1, 57, 0
3, 26220, Note_on_c, 1, 49, 58
3, 26230, Note_on_c, 1, 56, 0
3, 26280, Note_on_c, 1, 54, 34
3, 26280, Note_on_c, 1, 69, 45
3, 26280, Note_on_c, 1, 61, 25
3, 26280, Note_on_c, 1, 66, 29
3, 26300, Note_on_c, 1, 49, 0
3, 26960, Note_on_c, 1, 61, 0
3, 27000, Note_on_c, 1, 52, 51
3, 27000, Note_on_c, 1, 64, 23
3, 27000, Note_on_c, 1, 68, 34
3, 27000, Note_on_c, 1, 59, 28
3, 27000, Note_on_c, 1, 66, 0
3, 27010, Note_on_c, 1, 54, 0
3, 27020, Note_on_c, 1, 69, 0
3, 27655, Note_on_c, 1, 64, 0
3, 27720, Note_on_c, 1, 62, 28
3, 27720, Note_on_c, 1, 66, 41
3, 27720, Note_on_c, 1, 50, 48
3, 27720, Note_on_c, 1, 57, 10
3, 27735, Note_on_c, 1, 59, 0
3, 27755, Note_on_c, 1, 68, 0
3, 27770, Note_on_c, 1, 52, 0
3, 28355, Note_on_c, 1, 57, 0
3, 28440, Note_on_c, 1, 62, 20
3, 28440, Note_on_c, 1, 59, 33
3, 28440, Note_on_c, 1, 47, 45
3, 28440, Note_on_c, 1, 66, 30
3, 28440, Note_on_c, 1, 62, 0
3, 28440, Note_on_c, 1, 66, 0
3, 28450, Note_on_c, 1, 50, 0
3, 28795, Note_on_c, 1, 47, 0
3, 28795, Note_on_c, 1, 66, 0
3, 28800, Note_on_c, 1, 64, 57
3, 28800, Note_on_c, 1, 68, 27
3, 28800, Note_on_c, 1, 52, 51
3, 28800, Note_on_c, 1, 62, 0
3, 29150, Note_on_c, 1, 59, 0
3, 29160, Note_on_c, 1, 61, 45
3, 29160, Note_on_c, 1, 45, 61
3, 29170, Note_on_c, 1, 52, 0
3, 29880, Note_on_c, 1, 50, 58
3, 29880, Note_on_c, 1, 62, 46
3, 29880, Note_on_c, 1, 66, 47
3, 29880, Note_on_c, 1, 57, 5
3, 29890, Note_on_c, 1, 61, 0
3, 29905, Note_on_c, 1, 45, 0
3, 29920, Note_on_c, 1, 68, 0
3, 29920, Note_on_c, 1, 64, 0
3, 30525, Note_on_c, 1, 57, 0
3, 30575, Note_on_c, 1, 50, 0
3, 30600, Note_on_c, 1, 59, 57
3, 30600, Note_on_c, 1, 44, 57
3, 31290, Note_on_c, 1, 66, 0
3, 31295, Note_on_c, 1, 62, 0
3, 31300, Note_on_c, 1, 59, 0
3, 31320, Note_on_c, 1, 49, 53
3, 31320, Note_on_c, 1, 65, 51
3, 31320, Note_on_c, 1, 68, 46
3, 31320, Note_on_c, 1, 61, 41
3, 31330, Note_on_c, 1, 44, 0
3, 31680, Note_on_c, 1, 56, 28
3, 32015, Note_on_c, 1, 61, 0
3, 32040, Note_on_c, 1, 57, 64
3, 32040, Note_on_c, 1, 61, 43
3, 32040, Note_on_c, 1, 66, 42
3, 32040, Note_on_c, 1, 54, 57
3, 32050, Note_on_c, 1, 56, 0
3, 32055, Note_on_c, 1, 65, 0
3, 32075, Note_on_c, 1, 68, 0
3, 32090, Note_on_c, 1, 49, 0
3, 32760, Note_on_c, 1, 69, 14
3, 32765, Note_on_c, 1, 78, 46
3, 32810, Note_on_c, 1, 73, 42
3, 32815, Note_on_c, 1, 78, 0
3, 32865, Note_on_c, 1, 80, 47
3, 32875, Note_on_c, 1, 73, 0
3, 32925, Note_on_c, 1, 81, 52
3, 32935, Note_on_c, 1, 80, 0
3, 32985, Note_on_c, 1, 80, 46
3, 32995, Note_on_c, 1, 81, 0
3, 33045, Note_on_c, 1, 78, 45
3, 33055, Note_on_c, 1, 80, 0
3, 33115, Note_on_c, 1, 73, 52
3, 33115, Note_on_c, 1, 78, 0
3, 33170, Note_on_c, 1, 69, 58
3, 33170, Note_on_c, 1, 69, 0
3, 33175, Note_on_c, 1, 73, 0
3, 33230, Note_on_c, 1, 68, 42
3, 33240, Note_on_c, 1, 69, 0
3, 33285, Note_on_c, 1, 66, 53
3, 33285, Note_on_c, 1, 66, 0
3, 33290, Note_on_c, 1, 68, 0
3, 33345, Note_on_c, 1, 61, 48
3, 33345, Note_on_c, 1, 61, 0
3, 33345, Note_on_c, 1, 66, 0
3, 33405, Note_on_c, 1, 57, 52
3, 33405, Note_on_c, 1, 57, 0
3, 33410, Note_on_c, 1, 61, 0
3, 33455, Note_on_c, 1, 57, 0
3, 33460, Note_on_c, 1, 54, 0
3, 33470, Note_on_c, 1, 61, 24
3, 33480, Note_on_c, 1, 61, 26
3, 33480, Note_on_c, 1, 57, 38
3, 33480, Note_on_c, 1, 64, 34
3, 33480, Note_on_c, 1, 69, 32
3, 33480, Note_on_c, 1, 61, 0
3, 33765, Note_on_c, 1, 61, 0
3, 33770, Note_on_c, 1, 64, 0
3, 33830, Note_on_c, 1, 57, 0
3, 33835, Note_on_c, 1, 69, 0
3, 33840, Note_on_c, 1, 61, 19
3, 33840, Note_on_c, 1, 65, 47
3, 33840, Note_on_c, 1, 56, 45
3, 33840, Note_on_c, 1, 68, 45
3, 34200, Note_on_c, 1, 61, 19
3, 34200, Note_on_c, 1, 54, 48
3, 34200, Note_on_c, 1, 69, 47
3, 34200, Note_on_c, 1, 66, 38
3, 34200, Note_on_c, 1, 61, 0
3, 34205, Note_on_c, 1, 78, 63
3, 34230, Note_on_c, 1, 68, 0
3, 34230, Note_on_c, 1, 65, 0
3, 34235, Note_on_c, 1, 56, 0
3, 34270, Note_on_c, 1, 78, 0
3, 34375, Note_on_c, 1, 73, 64
3, 34445, Note_on_c, 1, 73, 0
3, 34555, Note_on_c, 1, 69, 67
3, 34555, Note_on_c, 1, 69, 0
3, 34560, Note_on_c, 1, 52, 64
3, 34575, Note_on_c, 1, 54, 0
3, 34635, Note_on_c, 1, 69, 0
3, 34725, Note_on_c, 1, 66, 61
3, 34725, Note_on_c, 1, 66, 0
3, 34800, Note_on_c, 1, 66, 0
3, 34905, Note_on_c, 1, 62, 64
3, 34915, Note_on_c, 1, 61, 0
3, 34920, Note_on_c, 1, 62, 32
3, 34920, Note_on_c, 1, 50, 63
3, 34920, Note_on_c, 1, 62, 0
3, 34925, Note_on_c, 1, 52, 0
3, 34985, Note_on_c, 1, 62, 0
3, 35265, Note_on_c, 1, 50, 0
3, 35280, Note_on_c, 1, 66, 55
3, 35280, Note_on_c, 1, 49, 69
3, 35280, Note_on_c, 1, 61, 61
3, 35280, Note_on_c, 1, 70, 58
3, 35635, Note_on_c, 1, 61, 0
3, 35640, Note_on_c, 1, 78, 68
3, 35640, Note_on_c, 1, 47, 52
3, 35640, Note_on_c, 1, 71, 62
3, 35640, Note_on_c, 1, 62, 58
3, 35650, Note_on_c, 1, 49, 0
3, 35660, Note_on_c, 1, 70, 0
3, 35710, Note_on_c, 1, 78, 0
3, 35815, Note_on_c, 1, 74, 71
3, 35895, Note_on_c, 1, 74, 0
3, 35995, Note_on_c, 1, 71, 79
3, 35995, Note_on_c, 1, 71, 0
3, 36070, Note_on_c, 1, 71, 0
3, 36175, Note_on_c, 1, 66, 79
3, 36175, Note_on_c, 1, 66, 0
3, 36255, Note_on_c, 1, 66, 0
3, 36360, Note_on_c, 1, 45, 58
3, 36360, Note_on_c, 1, 61, 38
3, 36360, Note_on_c, 1, 57, 45
3, 36360, Note_on_c, 1, 66, 42
3, 36360, Note_on_c, 1, 78, 46
3, 36360, Note_on_c, 1, 62, 0
3, 36365, Note_on_c, 1, 66, 0
3, 36370, Note_on_c, 1, 47, 0
3, 36665, Note_on_c, 1, 61, 0
3, 36680, Note_on_c, 1, 78, 0
3, 36720, Note_on_c, 1, 80, 57
3, 36720, Note_on_c, 1, 63, 56
3, 36720, Note_on_c, 1, 44, 67
3, 36720, Note_on_c, 1, 60, 40
3, 36720, Note_on_c, 1, 45, 0
3, 36720, Note_on_c, 1, 57, 0
3, 37055, Note_on_c, 1, 60, 0
3, 37080, Note_on_c, 1, 77, 20
3, 37080, Note_on_c, 1, 77, 38
3, 37080, Note_on_c, 1, 65, 60
3, 37080, Note_on_c, 1, 61, 33
3, 37080, Note_on_c, 1, 68, 55
3, 37080, Note_on_c, 1, 49, 64
3, 37081, Note_on_c, 1, 77, 0
3, 37100, Note_on_c, 1, 63, 0
3, 37100, Note_on_c, 1, 44, 0
3, 37110, Note_on_c, 1, 80, 0
3, 37255, Note_on_c, 1, 66, 95
3, 37370, Note_on_c, 1, 65, 79
3, 37370, Note_on_c, 1, 66, 0
3, 37370, Note_on_c, 1, 65, 0
3, 37435, Note_on_c, 1, 68, 87
3, 37435, Note_on_c, 1, 68, 0
3, 37445, Note_on_c, 1, 65, 0
3, 37665, Note_on_c, 1, 68, 0
3, 37670, Note_on_c, 1, 69, 60
3, 37695, Note_on_c, 1, 77, 0
3, 37735, Note_on_c, 1, 71, 71
3, 37745, Note_on_c, 1, 69, 0
3, 37790, Note_on_c, 1, 73, 69
3, 37800, Note_on_c, 1, 42, 36
3, 37800, Note_on_c, 1, 61, 45
3, 37800, Note_on_c, 1, 57, 55
3, 37800, Note_on_c, 1, 66, 56
3, 37800, Note_on_c, 1, 61, 0
3, 37805, Note_on_c, 1, 71, 0
3, 37825, Note_on_c, 1, 61, 0
3, 37825, Note_on_c, 1, 49, 0
3, 38125, Note_on_c, 1, 57, 0
3, 38135, Note_on_c, 1, 66, 0
3, 38160, Note_on_c, 1, 78, 66
3, 38160, Note_on_c, 1, 66, 43
3, 38160, Note_on_c, 1, 47, 55
3, 38160, Note_on_c, 1, 59, 13
3, 38160, Note_on_c, 1, 63, 23
3, 38160, Note_on_c, 1, 63, 27
3, 38161, Note_on_c, 1, 63, 0
3, 38165, Note_on_c, 1, 63, 0
3, 38170, Note_on_c, 1, 73, 0
3, 38185, Note_on_c, 1, 42, 0
3, 38500, Note_on_c, 1, 59, 0
3, 38510, Note_on_c, 1, 80, 37
3, 38520, Note_on_c, 1, 49, 45
3, 38520, Note_on_c, 1, 61, 38
3, 38520, Note_on_c, 1, 65, 57
3, 38520, Note_on_c, 1, 68, 32
3, 38520, Note_on_c, 1, 78, 0
3, 38530, Note_on_c, 1, 47, 0
3, 38540, Note_on_c, 1, 66, 0
3, 38905, Note_on_c, 1, 80, 0
3, 38905, Note_on_c, 1, 49, 0
3, 38905, Note_on_c, 1, 61, 0
3, 38910, Note_on_c, 1, 65, 0
3, 38910, Note_on_c, 1, 68, 0
3, 39245, Note_on_c, 1, 69, 11
3, 39250, Note_on_c, 1, 73, 9
3, 39250, Note_on_c, 1, 66, 14
3, 39940, Note_on_c, 1, 71, 11
3, 39950, Note_on_c, 1, 68, 14
3, 39950, Note_on_c, 1, 64, 4
3, 39975, Note_on_c, 1, 66, 0
3, 40000, Note_on_c, 1, 69, 0
3, 40005, Note_on_c, 1, 73, 0
3, 40660, Note_on_c, 1, 69, 6
3, 40670, Note_on_c, 1, 66, 5
3, 40670, Note_on_c, 1, 62, 21
3, 40705, Note_on_c, 1, 68, 0
3, 40710, Note_on_c, 1, 64, 0
3, 40720, Note_on_c, 1, 73, 2
3, 40725, Note_on_c, 1, 71, 0
3, 41370, Note_on_c, 1, 59, 17
3, 41395, Note_on_c, 1, 62, 0
3, 41495, Note_on_c, 1, 62, 4
3, 41700, Note_on_c, 1, 66, 0
3, 41710, Note_on_c, 1, 73, 0
3, 41740, Note_on_c, 1, 64, 13
3, 41755, Note_on_c, 1, 68, 10
3, 41760, Note_on_c, 1, 71, 20
3, 41770, Note_on_c, 1, 62, 0
3, 41770, Note_on_c, 1, 59, 0
3, 41780, Note_on_c, 1, 69, 0
3, 42110, Note_on_c, 1, 61, 6
3, 42115, Note_on_c, 1, 57, 9
3, 42575, Note_on_c, 1, 69, 22
3, 42585, Note_on_c, 1, 68, 0
3, 42635, Note_on_c, 1, 71, 0
3, 42700, Note_on_c, 1, 68, 24
3, 42745, Note_on_c, 1, 69, 0
3, 42785, Note_on_c, 1, 61, 0
3, 42795, Note_on_c, 1, 61, 22
3, 42815, Note_on_c, 1, 66, 14
3, 42825, Note_on_c, 1, 64, 0
3, 42865, Note_on_c, 1, 68, 0
3, 43200, Note_on_c, 1, 57, 0
3, 44260, Note_on_c, 1, 65, 32
3, 44275, Note_on_c, 1, 66, 0
3, 44610, Note_on_c, 1, 68, 15
3, 44620, Note_on_c, 1, 73, 6
3, 44700, Note_on_c, 1, 61, 64
3, 44700, Note_on_c, 1, 61, 0
3, 44760, Note_on_c, 1, 59, 64
3, 44775, Note_on_c, 1, 61, 0
3, 44820, Note_on_c, 1, 57, 69
3, 44835, Note_on_c, 1, 59, 0
3, 44880, Note_on_c, 1, 56, 79
3, 44885, Note_on_c, 1, 57, 0
3, 44940, Note_on_c, 1, 49, 58
3, 44950, Note_on_c, 1, 56, 0
3, 44990, Note_on_c, 1, 65, 0
3, 45000, Note_on_c, 1, 54, 34
3, 45000, Note_on_c, 1, 69, 45
3, 45000, Note_on_c, 1, 61, 25
3, 45000, Note_on_c, 1, 66, 29
3, 45000, Note_on_c, 1, 68, 0
3, 45005, Note_on_c, 1, 73, 0
3, 45005, Note_on_c, 1, 61, 0
3, 45020, Note_on_c, 1, 49, 0
3, 45720, Note_on_c, 1, 52, 51
3, 45720, Note_on_c, 1, 64, 23
3, 45720, Note_on_c, 1, 68, 34
3, 45720, Note_on_c, 1, 59, 28
3, 45720, Note_on_c, 1, 66, 0
3, 45730, Note_on_c, 1, 54, 0
3, 45740, Note_on_c, 1, 69, 0
3, 46375, Note_on_c, 1, 64, 0
3, 46440, Note_on_c, 1, 62, 28
3, 46440, Note_on_c, 1, 66, 41
3, 46440, Note_on_c, 1, 50, 48
3, 46440, Note_on_c, 1, 57, 10
3, 46455, Note_on_c, 1, 59, 0
3, 46475, Note_on_c, 1, 68, 0
3, 46490, Note_on_c, 1, 52, 0
3, 47075, Note_on_c, 1, 57, 0
3, 47160, Note_on_c, 1, 62, 20
3, 47160, Note_on_c, 1, 59, 33
3, 47160, Note_on_c, 1, 47, 45
3, 47160, Note_on_c, 1, 66, 30
3, 47160, Note_on_c, 1, 62, 0
3, 47160, Note_on_c, 1, 66, 0
3, 47170, Note_on_c, 1, 50, 0
3, 47515, Note_on_c, 1, 47, 0
3, 47515, Note_on_c, 1, 66, 0
3, 47520, Note_on_c, 1, 64, 57
3, 47520, Note_on_c, 1, 68, 27
3, 47520, Note_on_c, 1, 52, 51
3, 47520, Note_on_c, 1, 62, 0
3, 47870, Note_on_c, 1, 59, 0
3, 47880, Note_on_c, 1, 61, 45
3, 47880, Note_on_c, 1, 45, 61
3, 47890, Note_on_c, 1, 52, 0
3, 48600, Note_on_c, 1, 50, 58
3, 48600, Note_on_c, 1, 62, 46
3, 48600, Note_on_c, 1, 66, 47
3, 48600, Note_on_c, 1, 57, 5
3, 48610, Note_on_c, 1, 61, 0
3, 48625, Note_on_c, 1, 45, 0
3, 48640, Note_on_c, 1, 68, 0
3, 48640, Note_on_c, 1, 64, 0
3, 49245, Note_on_c, 1, 57, 0
3, 49295, Note_on_c, 1, 50, 0
3, 49320, Note_on_c, 1, 59, 57
3, 49320, Note_on_c, 1, 44, 57
3, 50010, Note_on_c, 1, 66, 0
3, 50015, Note_on_c, 1, 62, 0
3, 50020, Note_on_c, 1, 59, 0
3, 50040, Note_on_c, 1, 49, 53
3, 50040, Note_on_c, 1, 65, 51
3, 50040, Note_on_c, 1, 68, 46
3, 50040, Note_on_c, 1, 61, 41
3, 50050, Note_on_c, 1, 44, 0
3, 50400, Note_on_c, 1, 56, 28
3, 50735, Note_on_c, 1, 61, 0
3, 50760, Note_on_c, 1, 54, 55
3, 50760, Note_on_c, 1, 61, 21
3, 50760, Note_on_c, 1, 57, 28
3, 50760, Note_on_c, 1, 66, 35
3, 50770, Note_on_c, 1, 56, 0
3, 50775, Note_on_c, 1, 65, 0
3, 50795, Note_on_c, 1, 68, 0
3, 50810, Note_on_c, 1, 49, 0
3, 51480, Note_on_c, 1, 52, 38
3, 51500, Note_on_c, 1, 54, 0
3, 52195, Note_on_c, 1, 66, 0
3, 52205, Note_on_c, 1, 57, 0
3, 52215, Note_on_c, 1, 57, 9
3, 52215, Note_on_c, 1, 66, 17
3, 52220, Note_on_c, 1, 62, 27
3, 52220, Note_on_c, 1, 50, 40
3, 52240, Note_on_c, 1, 52, 0
3, 52240, Note_on_c, 1, 61, 0
3, 52940, Note_on_c, 1, 49, 30
3, 52950, Note_on_c, 1, 50, 0
3, 53680, Note_on_c, 1, 59, 25
3, 53685, Note_on_c, 1, 47, 37
3, 53695, Note_on_c, 1, 49, 0
3, 54370, Note_on_c, 1, 45, 35
3, 54385, Note_on_c, 1, 47, 0
3, 55025, Note_on_c, 1, 57, 0
3, 55060, Note_on_c, 1, 44, 47
3, 55060, Note_on_c, 1, 56, 38
3, 55100, Note_on_c, 1, 45, 0
3, 55505, Note_on_c, 1, 62, 0
3, 55530, Note_on_c, 1, 62, 11
3, 55700, Note_on_c, 1, 56, 0
3, 55740, Note_on_c, 1, 43, 52
3, 55740, Note_on_c, 1, 55, 6
3, 55740, Note_on_c, 1, 66, 0
3, 55745, Note_on_c, 1, 67, 7
3, 55755, Note_on_c, 1, 44, 0
3, 56495, Note_on_c, 1, 55, 0
3, 56515, Note_on_c, 1, 62, 0
3, 56515, Note_on_c, 1, 43, 0
3, 56520, Note_on_c, 1, 67, 0
3, 56520, Note_on_c, 1, 59, 0
3, 56665, Note_on_c, 1, 42, 11
3, 56670, Note_on_c, 1, 54, 10
3, 56670, Note_on_c, 1, 61, 5
3, 56675, Note_on_c, 1, 57, 9
3, 56675, Note_on_c, 1, 66, 18
3, 57210, Note_on_c, 1, 71, 22
3, 57400, Note_on_c, 1, 76, 11
3, 57400, Note_on_c, 1, 71, 0
3, 57635, Note_on_c, 1, 81, 19
3, 57635, Note_on_c, 1, 76, 0
3, 57880, Note_on_c, 1, 85, 7
3, 57880, Note_on_c, 1, 81, 0
3, 58390, Note_on_c, 1, 57, 0
3, 58405, Note_on_c, 1, 54, 0
3, 58420, Note_on_c, 1, 61, 0
3, 58465, Note_on_c, 1, 42, 0
3, 58465, Note_on_c, 1, 66, 0
3, 58540, Note_on_c, 1, 85, 0
3, 58540, End_track
4, 0, Start_track
4, 0, MIDI_port, 0
4, 0, Title_t, "Harp"
4, 0, Program_c, 2, 46
4, 1800, Note_on_c, 2, 78, 46
4, 1860, Note_on_c, 2, 80, 36
4, 1920, Note_on_c, 2, 81, 47
4, 1930, Note_on_c, 2, 80, 0
4, 1980, Note_on_c, 2, 85, 48
4, 1995, Note_on_c, 2, 81, 0
4, 2040, Note_on_c, 2, 80, 34
4, 2100, Note_on_c, 2, 81, 45
4, 2100, Note_on_c, 2, 78, 0
4, 2125, Note_on_c, 2, 80, 0
4, 2160, Note_on_c, 2, 78, 28
4, 2220, Note_on_c, 2, 80, 30
4, 2230, Note_on_c, 2, 81, 0
4, 2250, Note_on_c, 2, 85, 0
4, 2280, Note_on_c, 2, 81, 51
4, 2305, Note_on_c, 2, 80, 0
4, 2340, Note_on_c, 2, 85, 57
4, 2355, Note_on_c, 2, 81, 0
4, 2400, Note_on_c, 2, 80, 23
4, 2460, Note_on_c, 2, 81, 35
4, 2465, Note_on_c, 2, 80, 0
4, 2480, Note_on_c, 2, 78, 0
4, 2520, Note_on_c, 2, 76, 26
4, 2580, Note_on_c, 2, 78, 36
4, 2585, Note_on_c, 2, 81, 0
4, 2590, Note_on_c, 2, 85, 0
4, 2640, Note_on_c, 2, 80, 46
4, 2700, Note_on_c, 2, 83, 33
4, 2705, Note_on_c, 2, 78, 0
4, 2735, Note_on_c, 2, 80, 0
4, 2760, Note_on_c, 2, 78, 33
4, 2820, Note_on_c, 2, 80, 43
4, 2845, Note_on_c, 2, 76, 0
4, 2880, Note_on_c, 2, 76, 43
4, 2895, Note_on_c, 2, 78, 0
4, 2915, Note_on_c, 2, 80, 0
4, 2940, Note_on_c, 2, 78, 25
4, 2970, Note_on_c, 2, 83, 0
4, 3000, Note_on_c, 2, 80, 38
4, 3055, Note_on_c, 2, 78, 0
4, 3060, Note_on_c, 2, 83, 58
4, 3080, Note_on_c, 2, 80, 0
4, 3120, Note_on_c, 2, 78, 45
4, 3170, Note_on_c, 2, 76, 0
4, 3180, Note_on_c, 2, 80, 51
4, 3200, Note_on_c, 2, 78, 0
4, 3225, Note_on_c, 2, 83, 0
4, 3240, Note_on_c, 2, 78, 37
4, 3255, Note_on_c, 2, 80, 0
4, 3300, Note_on_c, 2, 80, 33
4, 3360, Note_on_c, 2, 81, 52
4, 3385, Note_on_c, 2, 80, 0
4, 3420, Note_on_c, 2, 85, 58
4, 3435, Note_on_c, 2, 81, 0
4, 3480, Note_on_c, 2, 80, 33
4, 3540, Note_on_c, 2, 81, 52
4, 3565, Note_on_c, 2, 80, 0
4, 3570, Note_on_c, 2, 78, 0
4, 3600, Note_on_c, 2, 78, 28
4, 3640, Note_on_c, 2, 81, 0
4, 3660, Note_on_c, 2, 80, 35
4, 3680, Note_on_c, 2, 85, 0
4, 3720, Note_on_c, 2, 81, 64
4, 3745, Note_on_c, 2, 80, 0
4, 3780, Note_on_c, 2, 85, 61
4, 3795, Note_on_c, 2, 81, 0
4, 3840, Note_on_c, 2, 80, 22
4, 3900, Note_on_c, 2, 81, 31
4, 3915, Note_on_c, 2, 80, 0
4, 3915, Note_on_c, 2, 85, 0
4, 3960, Note_on_c, 2, 86, 45
4, 3960, Note_on_c, 2, 81, 0
4, 4020, Note_on_c, 2, 85, 62
4, 4020, Note_on_c, 2, 86, 0
4, 4080, Note_on_c, 2, 86, 69
4, 4140, Note_on_c, 2, 83, 57
4, 4145, Note_on_c, 2, 85, 0
4, 4155, Note_on_c, 2, 78, 0
4, 4190, Note_on_c, 2, 86, 0
4, 4200, Note_on_c, 2, 78, 41
4, 4210, Note_on_c, 2, 83, 0
4, 4260, Note_on_c, 2, 81, 47
4, 4320, Note_on_c, 2, 80, 53
4, 4325, Note_on_c, 2, 78, 0
4, 4335, Note_on_c, 2, 81, 0
4, 4380, Note_on_c, 2, 81, 46
4, 4440, Note_on_c, 2, 83, 46
4, 4445, Note_on_c, 2, 80, 0
4, 4450, Note_on_c, 2, 81, 0
4, 4500, Note_on_c, 2, 76, 47
4, 4515, Note_on_c, 2, 83, 0
4, 4560, Note_on_c, 2, 88, 61
4, 4620, Note_on_c, 2, 86, 69
4, 4630, Note_on_c, 2, 88, 0
4, 4680, Note_on_c, 2, 85, 58
4, 4695, Note_on_c, 2, 86, 0
4, 4705, Note_on_c, 2, 76, 0
4, 4740, Note_on_c, 2, 83, 48
4, 4750, Note_on_c, 2, 85, 0
4, 4800, Note_on_c, 2, 85, 47
4, 4825, Note_on_c, 2, 83, 0
4, 4860, Note_on_c, 2, 80, 22
4, 4920, Note_on_c, 2, 76, 38
4, 4920, Note_on_c, 2, 80, 0
4, 4980, Note_on_c, 2, 80, 48
4, 4980, Note_on_c, 2, 85, 0
4, 5040, Note_on_c, 2, 85, 64
4, 5060, Note_on_c, 2, 80, 0
4, 5100, Note_on_c, 2, 86, 69
4, 5105, Note_on_c, 2, 85, 0
4, 5105, Note_on_c, 2, 76, 0
4, 5160, Note_on_c, 2, 85, 61
4, 5180, Note_on_c, 2, 86, 0
4, 5220, Note_on_c, 2, 80, 36
4, 5230, Note_on_c, 2, 85, 0
4, 5280, Note_on_c, 2, 76, 42
4, 5290, Note_on_c, 2, 80, 0
4, 5340, Note_on_c, 2, 80, 30
4, 5345, Note_on_c, 2, 76, 0
4, 5400, Note_on_c, 2, 78, 50
4, 5405, Note_on_c, 2, 80, 0
4, 5460, Note_on_c, 2, 81, 38
4, 5475, Note_on_c, 2, 78, 0
4, 5520, Note_on_c, 2, 74, 41
4, 5565, Note_on_c, 2, 81, 0
4, 5580, Note_on_c, 2, 78, 48
4, 5585, Note_on_c, 2, 74, 0
4, 5640, Note_on_c, 2, 69, 53
4, 5650, Note_on_c, 2, 78, 0
4, 5700, Note_on_c, 2, 74, 35
4, 5700, Note_on_c, 2, 69, 0
4, 5760, Note_on_c, 2, 71, 33
4, 5770, Note_on_c, 2, 74, 0
4, 5820, Note_on_c, 2, 74, 38
4, 5855, Note_on_c, 2, 71, 0
4, 5880, Note_on_c, 2, 78, 38
4, 5895, Note_on_c, 2, 74, 0
4, 5940, Note_on_c, 2, 74, 48
4, 5955, Note_on_c, 2, 78, 0
4, 6000, Note_on_c, 2, 83, 55
4, 6060, Note_on_c, 2, 78, 56
4, 6065, Note_on_c, 2, 83, 0
4, 6115, Note_on_c, 2, 74, 0
4, 6120, Note_on_c, 2, 73, 34
4, 6120, Note_on_c, 2, 78, 0
4, 6180, Note_on_c, 2, 78, 38
4, 6240, Note_on_c, 2, 80, 46
4, 6300, Note_on_c, 2, 85, 50
4, 6310, Note_on_c, 2, 78, 0
4, 6315, Note_on_c, 2, 80, 0
4, 6360, Note_on_c, 2, 78, 46
4, 6420, Note_on_c, 2, 80, 33
4, 6430, Note_on_c, 2, 73, 0
4, 6440, Note_on_c, 2, 78, 0
4, 6480, Note_on_c, 2, 73, 33
4, 6485, Note_on_c, 2, 85, 0
4, 6540, Note_on_c, 2, 78, 43
4, 6550, Note_on_c, 2, 80, 0
4, 6600, Note_on_c, 2, 80, 47
4, 6660, Note_on_c, 2, 85, 58
4, 6670, Note_on_c, 2, 78, 0
4, 6675, Note_on_c, 2, 80, 0
4, 6720, Note_on_c, 2, 78, 36
4, 6780, Note_on_c, 2, 80, 45
4, 6795, Note_on_c, 2, 73, 0
4, 6835, Note_on_c, 2, 78, 0
4, 6840, Note_on_c, 2, 73, 26
4, 6840, Note_on_c, 2, 85, 0
4, 6900, Note_on_c, 2, 77, 36
4, 6910, Note_on_c, 2, 80, 0
4, 6960, Note_on_c, 2, 80, 46
4, 7020, Note_on_c, 2, 85, 63
4, 7025, Note_on_c, 2, 77, 0
4, 7035, Note_on_c, 2, 80, 0
4, 7080, Note_on_c, 2, 77, 58
4, 7140, Note_on_c, 2, 80, 47
4, 7145, Note_on_c, 2, 73, 0
4, 7200, Note_on_c, 2, 73, 32
4, 7210, Note_on_c, 2, 77, 0
4, 7260, Note_on_c, 2, 77, 26
4, 7260, Note_on_c, 2, 80, 0
4, 7280, Note_on_c, 2, 85, 0
4, 7320, Note_on_c, 2, 80, 50
4, 7380, Note_on_c, 2, 85, 62
4, 7385, Note_on_c, 2, 77, 0
4, 7390, Note_on_c, 2, 80, 0
4, 7440, Note_on_c, 2, 77, 57
4, 7490, Note_on_c, 2, 85, 0
4, 7500, Note_on_c, 2, 80, 43
4, 7545, Note_on_c, 2, 73, 0
4, 7560, Note_on_c, 2, 77, 0
4, 7570, Note_on_c, 2, 80, 0
4, 20520, Note_on_c, 2, 78, 46
4, 20580, Note_on_c, 2, 80, 36
4, 20640, Note_on_c, 2, 81, 47
4, 20650, Note_on_c, 2, 80, 0
4, 20700, Note_on_c, 2, 85, 48
4, 20715, Note_on_c, 2, 81, 0
4, 20760, Note_on_c, 2, 80, 34
4, 20820, Note_on_c, 2, 81, 45
4, 20820, Note_on_c, 2, 78, 0
4, 20845, Note_on_c, 2, 80, 0
4, 20880, Note_on_c, 2, 78, 28
4, 20940, Note_on_c, 2, 80, 30
4, 20950, Note_on_c, 2, 81, 0
4, 20970, Note_on_c, 2, 85, 0
4, 21000, Note_on_c, 2, 81, 51
4, 21025, Note_on_c, 2, 80, 0
4, 21060, Note_on_c, 2, 85, 57
4, 21075, Note_on_c, 2, 81, 0
4, 21120, Note_on_c, 2, 80, 23
4, 21180, Note_on_c, 2, 81, 35
4, 21185, Note_on_c, 2, 80, 0
4, 21200, Note_on_c, 2, 78, 0
4, 21240, Note_on_c, 2, 76, 26
4, 21300, Note_on_c, 2, 78, 36
4, 21305, Note_on_c, 2, 81, 0
4, 21310, Note_on_c, 2, 85, 0
4, 21360, Note_on_c, 2, 80, 46
4, 21420, Note_on_c, 2, 83, 33
4, 21425, Note_on_c, 2, 78, 0
4, 21455, Note_on_c, 2, 80, 0
4, 21480, Note_on_c, 2, 78, 33
4, 21540, Note_on_c, 2, 80, 43
4, 21565, Note_on_c, 2, 76, 0
4, 21600, Note_on_c, 2, 76, 43
4, 21615, Note_on_c, 2, 78, 0
4, 21635, Note_on_c, 2, 80, 0
4, 21660, Note_on_c, 2, 78, 25
4, 21690, Note_on_c, 2, 83, 0
4, 21720, Note_on_c, 2, 80, 38
4, 21775, Note_on_c, 2, 78, 0
4, 21780, Note_on_c, 2, 83, 58
4, 21800, Note_on_c, 2, 80, 0
4, 21840, Note_on_c, 2, 78, 45
4, 21890, Note_on_c, 2, 76, 0
4, 21900, Note_on_c, 2, 80, 51
4, 21920, Note_on_c, 2, 78, 0
4, 21945, Note_on_c, 2, 83, 0
4, 21960, Note_on_c, 2, 78, 37
4, 21975, Note_on_c, 2, 80, 0
4, 22020, Note_on_c, 2, 80, 33
4, 22080, Note_on_c, 2, 81, 52
4, 22105, Note_on_c, 2, 80, 0
4, 22140, Note_on_c, 2, 85, 58
4, 22155, Note_on_c, 2, 81, 0
4, 22200, Note_on_c, 2, 80, 33
4, 22260, Note_on_c, 2, 81, 52
4, 22285, Note_on_c, 2, 80, 0
4, 22290, Note_on_c, 2, 78, 0
4, 22320, Note_on_c, 2, 78, 28
4, 22360, Note_on_c, 2, 81, 0
4, 22380, Note_on_c, 2, 80, 35
4, 22400, Note_on_c, 2, 85, 0
4, 22440, Note_on_c, 2, 81, 64
4, 22465, Note_on_c, 2, 80, 0
4, 22500, Note_on_c, 2, 85, 61
4, 22515, Note_on_c, 2, 81, 0
4, 22560, Note_on_c, 2, 80, 22
4, 22620, Note_on_c, 2, 81, 31
4, 22635, Note_on_c, 2, 80, 0
4, 22635, Note_on_c, 2, 85, 0
4, 22680, Note_on_c, 2, 86, 45
4, 22680, Note_on_c, 2, 81, 0
4, 22740, Note_on_c, 2, 85, 62
4, 22740, Note_on_c, 2, 86, 0
4, 22800, Note_on_c, 2, 86, 69
4, 22860, Note_on_c, 2, 83, 57
4, 22865, Note_on_c, 2, 85, 0
4, 22875, Note_on_c, 2, 78, 0
4, 22910, Note_on_c, 2, 86, 0
4, 22920, Note_on_c, 2, 78, 41
4, 22930, Note_on_c, 2, 83, 0
4, 22980, Note_on_c, 2, 81, 47
4, 23040, Note_on_c, 2, 80, 53
4, 23045, Note_on_c, 2, 78, 0
4, 23055, Note_on_c, 2, 81, 0
4, 23100, Note_on_c, 2, 81, 46
4, 23160, Note_on_c, 2, 83, 46
4, 23165, Note_on_c, 2, 80, 0
4, 23170, Note_on_c, 2, 81, 0
4, 23220, Note_on_c, 2, 76, 47
4, 23235, Note_on_c, 2, 83, 0
4, 23280, Note_on_c, 2, 88, 61
4, 23340, Note_on_c, 2, 86, 69
4, 23350, Note_on_c, 2, 88, 0
4, 23400, Note_on_c, 2, 85, 58
4, 23415, Note_on_c, 2, 86, 0
4, 23425, Note_on_c, 2, 76, 0
4, 23460, Note_on_c, 2, 83, 48
4, 23470, Note_on_c, 2, 85, 0
4, 23520, Note_on_c, 2, 85, 47
4, 23545, Note_on_c, 2, 83, 0
4, 23580, Note_on_c, 2, 80, 22
4, 23640, Note_on_c, 2, 76, 38
4, 23640, Note_on_c, 2, 80, 0
4, 23700, Note_on_c, 2, 80, 48
4, 23700, Note_on_c, 2, 85, 0
4, 23760, Note_on_c, 2, 85, 64
4, 23780, Note_on_c, 2, 80, 0
4, 23820, Note_on_c, 2, 86, 69
4, 23825, Note_on_c, 2, 85, 0
4, 23825, Note_on_c, 2, 76, 0
4, 23880, Note_on_c, 2, 85, 61
4, 23900, Note_on_c, 2, 86, 0
4, 23940, Note_on_c, 2, 80, 36
4, 23950, Note_on_c, 2, 85, 0
4, 24000, Note_on_c, 2, 76, 42
4, 24010, Note_on_c, 2, 80, 0
4, 24060, Note_on_c, 2, 80, 30
4, 24065, Note_on_c, 2, 76, 0
4, 24120, Note_on_c, 2, 78, 50
4, 24125, Note_on_c, 2, 80, 0
4, 24180, Note_on_c, 2, 81, 38
4, 24195, Note_on_c, 2, 78, 0
4, 24240, Note_on_c, 2, 74, 41
4, 24285, Note_on_c, 2, 81, 0
4, 24300, Note_on_c, 2, 78, 48
4, 24305, Note_on_c, 2, 74, 0
4, 24360, Note_on_c, 2, 69, 53
4, 24370, Note_on_c, 2, 78, 0
4, 24420, Note_on_c, 2, 74, 35
4, 24420, Note_on_c, 2, 69, 0
4, 24480, Note_on_c, 2, 71, 33
4, 24490, Note_on_c, 2, 74, 0
4, 24540, Note_on_c, 2, 74, 38
4, 24575, Note_on_c, 2, 71, 0
4, 24600, Note_on_c, 2, 78, 38
4, 24615, Note_on_c, 2, 74, 0
4, 24660, Note_on_c, 2, 74, 48
4, 24675, Note_on_c, 2, 78, 0
4, 24720, Note_on_c, 2, 83, 55
4, 24780, Note_on_c, 2, 78, 56
4, 24785, Note_on_c, 2, 83, 0
4, 24835, Note_on_c, 2, 74, 0
4, 24840, Note_on_c, 2, 73, 34
4, 24840, Note_on_c, 2, 78, 0
4, 24900, Note_on_c, 2, 78, 38
4, 24960, Note_on_c, 2, 80, 46
4, 25020, Note_on_c, 2, 85, 50
4, 25030, Note_on_c, 2, 78, 0
4, 25035, Note_on_c, 2, 80, 0
4, 25080, Note_on_c, 2, 78, 46
4, 25140, Note_on_c, 2, 80, 33
4, 25150, Note_on_c, 2, 73, 0
4, 25160, Note_on_c, 2, 78, 0
4, 25200, Note_on_c, 2, 73, 33
4, 25205, Note_on_c, 2, 85, 0
4, 25260, Note_on_c, 2, 78, 43
4, 25270, Note_on_c, 2, 80, 0
4, 25320, Note_on_c, 2, 80, 47
4, 25380, Note_on_c, 2, 85, 58
4, 25390, Note_on_c, 2, 78, 0
4, 25395, Note_on_c, 2, 80, 0
4, 25440, Note_on_c, 2, 78, 36
4, 25500, Note_on_c, 2, 80, 45
4, 25515, Note_on_c, 2, 73, 0
4, 25555, Note_on_c, 2, 78, 0
4, 25560, Note_on_c, 2, 73, 26
4, 25560, Note_on_c, 2, 85, 0
4, 25620, Note_on_c, 2, 77, 36
4, 25630, Note_on_c, 2, 80, 0
4, 25680, Note_on_c, 2, 80, 46
4, 25740, Note_on_c, 2, 85, 63
4, 25745, Note_on_c, 2, 77, 0
4, 25755, Note_on_c, 2, 80, 0
4, 25800, Note_on_c, 2, 77, 58
4, 25860, Note_on_c, 2, 80, 47
4, 25865, Note_on_c, 2, 73, 0
4, 25920, Note_on_c, 2, 73, 32
4, 25930, Note_on_c, 2, 77, 0
4, 25980, Note_on_c, 2, 77, 26
4, 25980, Note_on_c, 2, 80, 0
4, 26000, Note_on_c, 2, 85, 0
4, 26040, Note_on_c, 2, 80, 50
4, 26100, Note_on_c, 2, 85, 62
4, 26105, Note_on_c, 2, 77, 0
4, 26110, Note_on_c, 2, 80, 0
4, 26160, Note_on_c, 2, 77, 57
4, 26210, Note_on_c, 2, 85, 0
4, 26220, Note_on_c, 2, 80, 43
4, 26265, Note_on_c, 2, 73, 0
4, 26280, Note_on_c, 2, 77, 0
4, 26290, Note_on_c, 2, 80, 0
4, 39240, Note_on_c, 2, 78, 46
4, 39300, Note_on_c, 2, 80, 36
4, 39360, Note_on_c, 2, 81, 47
4, 39370, Note_on_c, 2, 80, 0
4, 39420, Note_on_c, 2, 85, 48
4, 39435, Note_on_c, 2, 81, 0
4, 39480, Note_on_c, 2, 80, 34
4, 39540, Note_on_c, 2, 81, 45
4, 39540, Note_on_c, 2, 78, 0
4, 39565, Note_on_c, 2, 80, 0
4, 39600, Note_on_c, 2, 78, 28
4, 39660, Note_on_c, 2, 80, 30
4, 39670, Note_on_c, 2, 81, 0
4, 39690, Note_on_c, 2, 85, 0
4, 39720, Note_on_c, 2, 81, 51
4, 39745, Note_on_c, 2, 80, 0
4, 39780, Note_on_c, 2, 85, 57
4, 39795, Note_on_c, 2, 81, 0
4, 39840, Note_on_c, 2, 80, 23
4, 39900, Note_on_c, 2, 81, 35
4, 39905, Note_on_c, 2, 80, 0
4, 39920, Note_on_c, 2, 78, 0
4, 39960, Note_on_c, 2, 76, 26
4, 40020, Note_on_c, 2, 78, 36
4, 40025, Note_on_c, 2, 81, 0
4, 40030, Note_on_c, 2, 85, 0
4, 40080, Note_on_c, 2, 80, 46
4, 40140, Note_on_c, 2, 83, 33
4, 40145, Note_on_c, 2, 78, 0
4, 40175, Note_on_c, 2, 80, 0
4, 40200, Note_on_c, 2, 78, 33
4, 40260, Note_on_c, 2, 80, 43
4, 40285, Note_on_c, 2, 76, 0
4, 40320, Note_on_c, 2, 76, 43
4, 40335, Note_on_c, 2, 78, 0
4, 40355, Note_on_c, 2, 80, 0
4, 40380, Note_on_c, 2, 78, 25
4, 40410, Note_on_c, 2, 83, 0
4, 40440, Note_on_c, 2, 80, 38
4, 40495, Note_on_c, 2, 78, 0
4, 40500, Note_on_c, 2, 83, 58
4, 40520, Note_on_c, 2, 80, 0
4, 40560, Note_on_c, 2, 78, 45
4, 40610, Note_on_c, 2, 76, 0
4, 40620, Note_on_c, 2, 80, 51
4, 40640, Note_on_c, 2, 78, 0
4, 40665, Note_on_c, 2, 83, 0
4, 40680, Note_on_c, 2, 78, 37
4, 40695, Note_on_c, 2, 80, 0
4, 40740, Note_on_c, 2, 80, 33
4, 40800, Note_on_c, 2, 81, 52
4, 40825, Note_on_c, 2, 80, 0
4, 40860, Note_on_c, 2, 85, 58
4, 40875, Note_on_c, 2, 81, 0
4, 40920, Note_on_c, 2, 80, 33
4, 40980, Note_on_c, 2, 81, 52
4, 41005, Note_on_c, 2, 80, 0
4, 41010, Note_on_c, 2, 78, 0
4, 41040, Note_on_c, 2, 78, 28
4, 41080, Note_on_c, 2, 81, 0
4, 41100, Note_on_c, 2, 80, 35
4, 41120, Note_on_c, 2, 85, 0
4, 41160, Note_on_c, 2, 81, 64
4, 41185, Note_on_c, 2, 80, 0
4, 41220, Note_on_c, 2, 85, 61
4, 41235, Note_on_c, 2, 81, 0
4, 41280, Note_on_c, 2, 80, 22
4, 41340, Note_on_c, 2, 81, 31
4, 41355, Note_on_c, 2, 80, 0
4, 41355, Note_on_c, 2, 85, 0
4, 41400, Note_on_c, 2, 86, 45
4, 41400, Note_on_c, 2, 81, 0
4, 41460, Note_on_c, 2, 85, 62
4, 41460, Note_on_c, 2, 86, 0
4, 41520, Note_on_c, 2, 86, 69
4, 41580, Note_on_c, 2, 83, 57
4, 41585, Note_on_c, 2, 85, 0
4, 41595, Note_on_c, 2, 78, 0
4, 41630, Note_on_c, 2, 86, 0
4, 41640, Note_on_c, 2, 78, 41
4, 41650, Note_on_c, 2, 83, 0
4, 41700, Note_on_c, 2, 81, 47
4, 41760, Note_on_c, 2, 80, 53
4, 41765, Note_on_c, 2, 78, 0
4, 41775, Note_on_c, 2, 81, 0
4, 41820, Note_on_c, 2, 81, 46
4, 41880, Note_on_c, 2, 83, 46
4, 41885, Note_on_c, 2, 80, 0
4, 41890, Note_on_c, 2, 81, 0
4, 41940, Note_on_c, 2, 76, 47
4, 41955, Note_on_c, 2, 83, 0
4, 42000, Note_on_c, 2, 88, 61
4, 42060, Note_on_c, 2, 86, 69
4, 42070, Note_on_c, 2, 88, 0
4, 42120, Note_on_c, 2, 85, 58
4, 42135, Note_on_c, 2, 86, 0
4, 42145, Note_on_c, 2, 76, 0
4, 42180, Note_on_c, 2, 83, 48
4, 42190, Note_on_c, 2, 85, 0
4, 42240, Note_on_c, 2, 85, 47
4, 42265, Note_on_c, 2, 83, 0
4, 42300, Note_on_c, 2, 80, 22
4, 42360, Note_on_c, 2, 76, 38
4, 42360, Note_on_c, 2, 80, 0
4, 42420, Note_on_c, 2, 80, 48
4, 42420, Note_on_c, 2, 85, 0
4, 42480, Note_on_c, 2, 85, 64
4, 42500, Note_on_c, 2, 80, 0
4, 42540, Note_on_c, 2, 86, 69
4, 42545, Note_on_c, 2, 85, 0
4, 42545, Note_on_c, 2, 76, 0
4, 42600, Note_on_c, 2, 85, 61
4, 42620, Note_on_c, 2, 86, 0
4, 42660, Note_on_c, 2, 80, 36
4, 42670, Note_on_c, 2, 85, 0
4, 42720, Note_on_c, 2, 76, 42
4, 42730, Note_on_c, 2, 80, 0
4, 42780, Note_on_c, 2, 80, 30
4, 42785, Note_on_c, 2, 76, 0
4, 42840, Note_on_c, 2, 78, 50
4, 42845, Note_on_c, 2, 80, 0
4, 42900, Note_on_c, 2, 81, 38
4, 42915, Note_on_c, 2, 78, 0
4, 42960, Note_on_c, 2, 74, 41
4, 43005, Note_on_c, 2, 81, 0
4, 43020, Note_on_c, 2, 78, 48
4, 43025, Note_on_c, 2, 74, 0
4, 43080, Note_on_c, 2, 69, 53
4, 43090, Note_on_c, 2, 78, 0
4, 43140, Note_on_c, 2, 74, 35
4, 43140, Note_on_c, 2, 69, 0
4, 43200, Note_on_c, 2, 71, 33
4, 43210, Note_on_c, 2, 74, 0
4, 43260, Note_on_c, 2, 74, 38
4, 43295, Note_on_c, 2, 71, 0
4, 43320, Note_on_c, 2, 78, 38
4, 43335, Note_on_c, 2, 74, 0
4, 43380, Note_on_c, 2, 74, 48
4, 43395, Note_on_c, 2, 78, 0
4, 43440, Note_on_c, 2, 83, 55
4, 43500, Note_on_c, 2, 78, 56
4, 43505, Note_on_c, 2, 83, 0
4, 43555, Note_on_c, 2, 74, 0
4, 43560, Note_on_c, 2, 73, 34
4, 43560, Note_on_c, 2, 78, 0
4, 43620, Note_on_c, 2, 78, 38
4, 43680, Note_on_c, 2, 80, 46
4, 43740, Note_on_c, 2, 85, 50
4, 43750, Note_on_c, 2, 78, 0
4, 43755, Note_on_c, 2, 80, 0
4, 43800, Note_on_c, 2, 78, 46
4, 43860, Note_on_c, 2, 80, 33
4, 43870, Note_on_c, 2, 73, 0
4, 43880, Note_on_c, 2, 78, 0
4, 43920, Note_on_c, 2, 73, 33
4, 43925, Note_on_c, 2, 85, 0
4, 43980, Note_on_c, 2, 78, 43
4, 43990, Note_on_c, 2, 80, 0
4, 44040, Note_on_c, 2, 80, 47
4, 44100, Note_on_c, 2, 85, 58
4, 44110, Note_on_c, 2, 78, 0
4, 44115, Note_on_c, 2, 80, 0
4, 44160, Note_on_c, 2, 78, 36
4, 44220, Note_on_c, 2, 80, 45
4, 44235, Note_on_c, 2, 73, 0
4, 44275, Note_on_c, 2, 78, 0
4, 44280, Note_on_c, 2, 73, 26
4, 44280, Note_on_c, 2, 85, 0
4, 44340, Note_on_c, 2, 77, 36
4, 44350, Note_on_c, 2, 80, 0
4, 44400, Note_on_c, 2, 80, 46
4, 44460, Note_on_c, 2, 85, 63
4, 44465, Note_on_c, 2, 77, 0
4, 44475, Note_on_c, 2, 80, 0
4, 44520, Note_on_c, 2, 77, 58
4, 44580, Note_on_c, 2, 80, 47
4, 44585, Note_on_c, 2, 73, 0
4, 44640, Note_on_c, 2, 73, 32
4, 44650, Note_on_c, 2, 77, 0
4, 44700, Note_on_c, 2, 77, 26
4, 44700, Note_on_c, 2, 80, 0
4, 44720, Note_on_c, 2, 85, 0
4, 44760, Note_on_c, 2, 80, 50
4, 44820, Note_on_c, 2, 85, 62
4, 44825, Note_on_c, 2, 77, 0
4, 44830, Note_on_c, 2, 80, 0
4, 44880, Note_on_c, 2, 77, 57
4, 44930, Note_on_c, 2, 85, 0
4, 44940, Note_on_c, 2, 80, 43
4, 44985, Note_on_c, 2, 73, 0
4, 45000, Note_on_c, 2, 77, 0
4, 45010, Note_on_c, 2, 80, 0
4, 45010, End_track
5, 0, Start_track
5, 0, MIDI_port, 0
5, 0, Title_t, "Grand Piano "
5, 0, Program_c, 3, 0
5, 1800, Note_on_c, 3, 66, 25
5, 1800, Note_on_c, 3, 69, 34
5, 1800, Note_on_c, 3, 73, 23
5, 1920, Note_on_c, 3, 69, 23
5, 1920, Note_on_c, 3, 66, 17
5, 1920, Note_on_c, 3, 73, 22
5, 1920, Note_on_c, 3, 73, 0
5, 1920, Note_on_c, 3, 66, 0
5, 1920, Note_on_c, 3, 69, 0
5, 1925, Note_on_c, 3, 69, 0
5, 1925, Note_on_c, 3, 66, 0
5, 2040, Note_on_c, 3, 69, 46
5, 2040, Note_on_c, 3, 66, 22
5, 2040, Note_on_c, 3, 73, 26
5, 2040, Note_on_c, 3, 73, 0
5, 2050, Note_on_c, 3, 73, 0
5, 2060, Note_on_c, 3, 66, 0
5, 2060, Note_on_c, 3, 69, 0
5, 2160, Note_on_c, 3, 66, 27
5, 2160, Note_on_c, 3, 73, 29
5, 2160, Note_on_c, 3, 69, 42
5, 2175, Note_on_c, 3, 69, 0
5, 2175, Note_on_c, 3, 66, 0
5, 2280, Note_on_c, 3, 66, 19
5, 2280, Note_on_c, 3, 69, 20
5, 2280, Note_on_c, 3, 73, 15
5, 2280, Note_on_c, 3, 73, 0
5, 2290, Note_on_c, 3, 73, 0
5, 2300, Note_on_c, 3, 69, 0
5, 2300, Note_on_c, 3, 66, 0
5, 2400, Note_on_c, 3, 69, 35
5, 2400, Note_on_c, 3, 66, 22
5, 2400, Note_on_c, 3, 73, 27
5, 2405, Note_on_c, 3, 73, 0
5, 2415, Note_on_c, 3, 66, 0
5, 2415, Note_on_c, 3, 69, 0
5, 2520, Note_on_c, 3, 64, 23
5, 2520, Note_on_c, 3, 68, 21
5, 2520, Note_on_c, 3, 71, 31
5, 2635, Note_on_c, 3, 68, 0
5, 2640, Note_on_c, 3, 64, 35
5, 2640, Note_on_c, 3, 71, 34
5, 2640, Note_on_c, 3, 68, 28
5, 2640, Note_on_c, 3, 71, 0
5, 2640, Note_on_c, 3, 64, 0
5, 2650, Note_on_c, 3, 64, 0
5, 2760, Note_on_c, 3, 64, 24
5, 2760, Note_on_c, 3, 71, 27
5, 2760, Note_on_c, 3, 68, 21
5, 2760, Note_on_c, 3, 71, 0
5, 2760, Note_on_c, 3, 68, 0
5, 2765, Note_on_c, 3, 68, 0
5, 2770, Note_on_c, 3, 71, 0
5, 2775, Note_on_c, 3, 64, 0
5, 2880, Note_on_c, 3, 64, 28
5, 2880, Note_on_c, 3, 68, 20
5, 2880, Note_on_c, 3, 71, 34
5, 2890, Note_on_c, 3, 71, 0
5, 2890, Note_on_c, 3, 68, 0
5, 2895, Note_on_c, 3, 64, 0
5, 3000, Note_on_c, 3, 71, 29
5, 3000, Note_on_c, 3, 64, 22
5, 3000, Note_on_c, 3, 68, 24
5, 3005, Note_on_c, 3, 68, 0
5, 3005, Note_on_c, 3, 71, 0
5, 3010, Note_on_c, 3, 64, 0
5, 3120, Note_on_c, 3, 64, 34
5, 3120, Note_on_c, 3, 68, 34
5, 3120, Note_on_c, 3, 71, 41
5, 3240, Note_on_c, 3, 66, 30
5, 3240, Note_on_c, 3, 69, 46
5, 3240, Note_on_c, 3, 73, 27
5, 3245, Note_on_c, 3, 64, 0
5, 3280, Note_on_c, 3, 71, 0
5, 3295, Note_on_c, 3, 68, 0
5, 3355, Note_on_c, 3, 73, 0
5, 3360, Note_on_c, 3, 69, 23
5, 3360, Note_on_c, 3, 66, 22
5, 3360, Note_on_c, 3, 73, 27
5, 3360, Note_on_c, 3, 66, 0
5, 3360, Note_on_c, 3, 69, 0
5, 3375, Note_on_c, 3, 66, 0
5, 3380, Note_on_c, 3, 69, 0
5, 3480, Note_on_c, 3, 66, 18
5, 3480, Note_on_c, 3, 69, 45
5, 3480, Note_on_c, 3, 73, 24
5, 3480, Note_on_c, 3, 73, 0
5, 3490, Note_on_c, 3, 73, 0
5, 3500, Note_on_c, 3, 69, 0
5, 3500, Note_on_c, 3, 66, 0
5, 3600, Note_on_c, 3, 66, 23
5, 3600, Note_on_c, 3, 69, 25
5, 3600, Note_on_c, 3, 73, 26
5, 3615, Note_on_c, 3, 69, 0
5, 3620, Note_on_c, 3, 73, 0
5, 3620, Note_on_c, 3, 66, 0
5, 3720, Note_on_c, 3, 69, 26
5, 3720, Note_on_c, 3, 66, 25
5, 3720, Note_on_c, 3, 73, 23
5, 3840, Note_on_c, 3, 73, 24
5, 3840, Note_on_c, 3, 66, 18
5, 3840, Note_on_c, 3, 69, 23
5, 3840, Note_on_c, 3, 73, 0
5, 3840, Note_on_c, 3, 69, 0
5, 3840, Note_on_c, 3, 66, 0
5, 3845, Note_on_c, 3, 69, 0
5, 3960, Note_on_c, 3, 69, 27
5, 3960, Note_on_c, 3, 62, 23
5, 3960, Note_on_c, 3, 66, 26
5, 3960, Note_on_c, 3, 66, 0
5, 3965, Note_on_c, 3, 66, 0
5, 3970, Note_on_c, 3, 73, 0
5, 4075, Note_on_c, 3, 62, 0
5, 4080, Note_on_c, 3, 69, 28
5, 4080, Note_on_c, 3, 66, 26
5, 4080, Note_on_c, 3, 62, 34
5, 4080, Note_on_c, 3, 69, 0
5, 4085, Note_on_c, 3, 69, 0
5, 4200, Note_on_c, 3, 62, 36
5, 4200, Note_on_c, 3, 66, 24
5, 4200, Note_on_c, 3, 69, 34
5, 4200, Note_on_c, 3, 66, 0
5, 4200, Note_on_c, 3, 62, 0
5, 4210, Note_on_c, 3, 66, 0
5, 4210, Note_on_c, 3, 62, 0
5, 4210, Note_on_c, 3, 69, 0
5, 4320, Note_on_c, 3, 64, 28
5, 4320, Note_on_c, 3, 68, 22
5, 4320, Note_on_c, 3, 71, 28
5, 4440, Note_on_c, 3, 68, 20
5, 4440, Note_on_c, 3, 64, 27
5, 4440, Note_on_c, 3, 71, 35
5, 4440, Note_on_c, 3, 71, 0
5, 4440, Note_on_c, 3, 64, 0
5, 4440, Note_on_c, 3, 68, 0
5, 4445, Note_on_c, 3, 71, 0
5, 4455, Note_on_c, 3, 64, 0
5, 4455, Note_on_c, 3, 68, 0
5, 4560, Note_on_c, 3, 64, 27
5, 4560, Note_on_c, 3, 71, 37
5, 4560, Note_on_c, 3, 68, 33
5, 4575, Note_on_c, 3, 68, 0
5, 4575, Note_on_c, 3, 71, 0
5, 4580, Note_on_c, 3, 64, 0
5, 4680, Note_on_c, 3, 61, 19
5, 4680, Note_on_c, 3, 68, 27
5, 4680, Note_on_c, 3, 64, 40
5, 4800, Note_on_c, 3, 64, 33
5, 4800, Note_on_c, 3, 61, 26
5, 4800, Note_on_c, 3, 68, 26
5, 4800, Note_on_c, 3, 64, 0
5, 4800, Note_on_c, 3, 61, 0
5, 4800, Note_on_c, 3, 68, 0
5, 4805, Note_on_c, 3, 61, 0
5, 4920, Note_on_c, 3, 68, 27
5, 4920, Note_on_c, 3, 64, 35
5, 4920, Note_on_c, 3, 61, 27
5, 4920, Note_on_c, 3, 68, 0
5, 4920, Note_on_c, 3, 64, 0
5, 4935, Note_on_c, 3, 61, 0
5, 4935, Note_on_c, 3, 68, 0
5, 4940, Note_on_c, 3, 64, 0
5, 5040, Note_on_c, 3, 61, 23
5, 5040, Note_on_c, 3, 64, 27
5, 5040, Note_on_c, 3, 68, 27
5, 5045, Note_on_c, 3, 64, 0
5, 5045, Note_on_c, 3, 61, 0
5, 5050, Note_on_c, 3, 68, 0
5, 5160, Note_on_c, 3, 61, 27
5, 5160, Note_on_c, 3, 64, 34
5, 5160, Note_on_c, 3, 68, 28
5, 5165, Note_on_c, 3, 64, 0
5, 5280, Note_on_c, 3, 64, 23
5, 5280, Note_on_c, 3, 68, 33
5, 5280, Note_on_c, 3, 61, 28
5, 5280, Note_on_c, 3, 68, 0
5, 5280, Note_on_c, 3, 61, 0
5, 5285, Note_on_c, 3, 64, 0
5, 5395, Note_on_c, 3, 61, 0
5, 5400, Note_on_c, 3, 66, 31
5, 5400, Note_on_c, 3, 69, 30
5, 5400, Note_on_c, 3, 62, 22
5, 5445, Note_on_c, 3, 68, 0
5, 5520, Note_on_c, 3, 66, 26
5, 5520, Note_on_c, 3, 69, 35
5, 5520, Note_on_c, 3, 62, 35
5, 5520, Note_on_c, 3, 66, 0
5, 5520, Note_on_c, 3, 62, 0
5, 5520, Note_on_c, 3, 69, 0
5, 5525, Note_on_c, 3, 66, 0
5, 5525, Note_on_c, 3, 69, 0
5, 5525, Note_on_c, 3, 62, 0
5, 5640, Note_on_c, 3, 69, 24
5, 5640, Note_on_c, 3, 66, 28
5, 5640, Note_on_c, 3, 62, 27
5, 5660, Note_on_c, 3, 62, 0
5, 5660, Note_on_c, 3, 66, 0
5, 5660, Note_on_c, 3, 69, 0
5, 5760, Note_on_c, 3, 66, 34
5, 5760, Note_on_c, 3, 62, 29
5, 5760, Note_on_c, 3, 59, 22
5, 5765, Note_on_c, 3, 62, 0
5, 5770, Note_on_c, 3, 66, 0
5, 5880, Note_on_c, 3, 59, 22
5, 5880, Note_on_c, 3, 62, 30
5, 5880, Note_on_c, 3, 66, 25
5, 5880, Note_on_c, 3, 59, 0
5, 5900, Note_on_c, 3, 59, 0
5, 5900, Note_on_c, 3, 62, 0
5, 5900, Note_on_c, 3, 66, 0
5, 6000, Note_on_c, 3, 66, 36
5, 6000, Note_on_c, 3, 62, 30
5, 6000, Note_on_c, 3, 59, 33
5, 6010, Note_on_c, 3, 59, 0
5, 6010, Note_on_c, 3, 62, 0
5, 6010, Note_on_c, 3, 66, 0
5, 6120, Note_on_c, 3, 66, 35
5, 6120, Note_on_c, 3, 61, 42
5, 6120, Note_on_c, 3, 68, 20
5, 6150, Note_on_c, 3, 66, 0
5, 6235, Note_on_c, 3, 68, 0
5, 6240, Note_on_c, 3, 61, 14
5, 6240, Note_on_c, 3, 68, 25
5, 6240, Note_on_c, 3, 66, 33
5, 6240, Note_on_c, 3, 61, 0
5, 6245, Note_on_c, 3, 61, 0
5, 6360, Note_on_c, 3, 61, 25
5, 6360, Note_on_c, 3, 66, 35
5, 6360, Note_on_c, 3, 68, 24
5, 6360, Note_on_c, 3, 68, 0
5, 6360, Note_on_c, 3, 66, 0
5, 6370, Note_on_c, 3, 66, 0
5, 6370, Note_on_c, 3, 68, 0
5, 6375, Note_on_c, 3, 61, 0
5, 6480, Note_on_c, 3, 61, 25
5, 6480, Note_on_c, 3, 66, 35
5, 6485, Note_on_c, 3, 68, 30
5, 6490, Note_on_c, 3, 61, 0
5, 6495, Note_on_c, 3, 66, 0
5, 6600, Note_on_c, 3, 68, 28
5, 6600, Note_on_c, 3, 68, 0
5, 6605, Note_on_c, 3, 61, 27
5, 6605, Note_on_c, 3, 66, 38
5, 6610, Note_on_c, 3, 66, 0
5, 6610, Note_on_c, 3, 61, 0
5, 6615, Note_on_c, 3, 68, 0
5, 6720, Note_on_c, 3, 61, 37
5, 6720, Note_on_c, 3, 68, 43
5, 6725, Note_on_c, 3, 66, 42
5, 6730, Note_on_c, 3, 68, 0
5, 6735, Note_on_c, 3, 66, 0
5, 6735, Note_on_c, 3, 61, 0
5, 6840, Note_on_c, 3, 61, 28
5, 6845, Note_on_c, 3, 65, 32
5, 6850, Note_on_c, 3, 68, 27
5, 6850, Note_on_c, 3, 61, 0
5, 6851, Note_on_c, 3, 68, 0
5, 6955, Note_on_c, 3, 65, 32
5, 6955, Note_on_c, 3, 61, 30
5, 6955, Note_on_c, 3, 68, 42
5, 6955, Note_on_c, 3, 65, 0
5, 6970, Note_on_c, 3, 68, 0
5, 6970, Note_on_c, 3, 61, 0
5, 6975, Note_on_c, 3, 65, 0
5, 7075, Note_on_c, 3, 61, 35
5, 7075, Note_on_c, 3, 68, 37
5, 7075, Note_on_c, 3, 65, 36
5, 7076, Note_on_c, 3, 68, 0
5, 7080, Note_on_c, 3, 65, 0
5, 7190, Note_on_c, 3, 61, 34
5, 7190, Note_on_c, 3, 68, 35
5, 7190, Note_on_c, 3, 65, 30
5, 7190, Note_on_c, 3, 61, 0
5, 7210, Note_on_c, 3, 61, 0
5, 7210, Note_on_c, 3, 68, 0
5, 7210, Note_on_c, 3, 65, 0
5, 7305, Note_on_c, 3, 68, 37
5, 7305, Note_on_c, 3, 65, 46
5, 7305, Note_on_c, 3, 61, 33
5, 7325, Note_on_c, 3, 61, 0
5, 7325, Note_on_c, 3, 65, 0
5, 7325, Note_on_c, 3, 68, 0
5, 7420, Note_on_c, 3, 68, 27
5, 7420, Note_on_c, 3, 61, 29
5, 7420, Note_on_c, 3, 65, 46
5, 7555, Note_on_c, 3, 65, 0
5, 7555, Note_on_c, 3, 61, 0
5, 7555, Note_on_c, 3, 68, 0
5, 14760, Note_on_c, 3, 85, 95
5, 15000, Note_on_c, 3, 83, 71
5, 15010, Note_on_c, 3, 85, 0
5, 15030, Note_on_c, 3, 85, 84
5, 15035, Note_on_c, 3, 83, 0
5, 15055, Note_on_c, 3, 86, 66
5, 15055, Note_on_c, 3, 85, 0
5, 15085, Note_on_c, 3, 85, 79
5, 15100, Note_on_c, 3, 86, 0
5, 15115, Note_on_c, 3, 83, 95
5, 15120, Note_on_c, 3, 85, 0
5, 15365, Note_on_c, 3, 83, 0
5, 15425, Note_on_c, 3, 81, 87
5, 15455, Note_on_c, 3, 80, 82
5, 15460, Note_on_c, 3, 81, 0
5, 15485, Note_on_c, 3, 81, 73
5, 15495, Note_on_c, 3, 80, 0
5, 15695, Note_on_c, 3, 81, 0
5, 15705, Note_on_c, 3, 81, 5
5, 15750, Note_on_c, 3, 81, 0
5, 16075, Note_on_c, 3, 78, 45
5, 16085, Note_on_c, 3, 80, 79
5, 16095, Note_on_c, 3, 78, 0
5, 16100, Note_on_c, 3, 81, 64
5, 16110, Note_on_c, 3, 83, 67
5, 16110, Note_on_c, 3, 80, 0
5, 16115, Note_on_c, 3, 85, 62
5, 16120, Note_on_c, 3, 81, 0
5, 16130, Note_on_c, 3, 83, 0
5, 16135, Note_on_c, 3, 85, 0
5, 16140, Note_on_c, 3, 86, 61
5, 16165, Note_on_c, 3, 88, 68
5, 16170, Note_on_c, 3, 86, 0
5, 16185, Note_on_c, 3, 90, 95
5, 16190, Note_on_c, 3, 88, 0
5, 16425, Note_on_c, 3, 90, 0
5, 16440, Note_on_c, 3, 88, 87
5, 16465, Note_on_c, 3, 90, 82
5, 16475, Note_on_c, 3, 88, 0
5, 16495, Note_on_c, 3, 91, 68
5, 16500, Note_on_c, 3, 90, 0
5, 16525, Note_on_c, 3, 90, 84
5, 16540, Note_on_c, 3, 91, 0
5, 16555, Note_on_c, 3, 88, 95
5, 16560, Note_on_c, 3, 90, 0
5, 16815, Note_on_c, 3, 88, 0
5, 16865, Note_on_c, 3, 86, 82
5, 16890, Note_on_c, 3, 85, 79
5, 16895, Note_on_c, 3, 86, 0
5, 16920, Note_on_c, 3, 86, 84
5, 16925, Note_on_c, 3, 85, 0
5, 17350, Note_on_c, 3, 86, 0
5, 17585, Note_on_c, 3, 85, 91
5, 17605, Note_on_c, 3, 85, 0
5, 17610, Note_on_c, 3, 83, 64
5, 17610, Note_on_c, 3, 84, 63
5, 17615, Note_on_c, 3, 84, 0
5, 17645, Note_on_c, 3, 85, 103
5, 17650, Note_on_c, 3, 83, 0
5, 17780, Note_on_c, 3, 85, 0
5, 17830, Note_on_c, 3, 90, 87
5, 17950, Note_on_c, 3, 90, 0
5, 18000, Note_on_c, 3, 92, 87
5, 18285, Note_on_c, 3, 92, 0
5, 18295, Note_on_c, 3, 87, 91
5, 18360, Note_on_c, 3, 89, 62
5, 18360, Note_on_c, 3, 87, 0
5, 18780, Note_on_c, 3, 89, 0
5, 18960, Note_on_c, 3, 78, 95
5, 19015, Note_on_c, 3, 80, 87
5, 19020, Note_on_c, 3, 78, 0
5, 19080, Note_on_c, 3, 81, 76
5, 19095, Note_on_c, 3, 80, 0
5, 19260, Note_on_c, 3, 85, 95
5, 19265, Note_on_c, 3, 81, 0
5, 19445, Note_on_c, 3, 83, 95
5, 19455, Note_on_c, 3, 85, 0
5, 19695, Note_on_c, 3, 83, 0
5, 19735, Note_on_c, 3, 78, 87
5, 19800, Note_on_c, 3, 80, 87
5, 19805, Note_on_c, 3, 78, 0
5, 20185, Note_on_c, 3, 80, 0
5, 20520, Note_on_c, 3, 66, 25
5, 20520, Note_on_c, 3, 69, 34
5, 20520, Note_on_c, 3, 73, 23
5, 20640, Note_on_c, 3, 69, 23
5, 20640, Note_on_c, 3, 66, 17
5, 20640, Note_on_c, 3, 73, 22
5, 20640, Note_on_c, 3, 73, 0
5, 20640, Note_on_c, 3, 66, 0
5, 20640, Note_on_c, 3, 69, 0
5, 20645, Note_on_c, 3, 69, 0
5, 20645, Note_on_c, 3, 66, 0
5, 20760, Note_on_c, 3, 69, 46
5, 20760, Note_on_c, 3, 66, 22
5, 20760, Note_on_c, 3, 73, 26
5, 20760, Note_on_c, 3, 73, 0
5, 20770, Note_on_c, 3, 73, 0
5, 20780, Note_on_c, 3, 66, 0
5, 20780, Note_on_c, 3, 69, 0
5, 20880, Note_on_c, 3, 66, 27
5, 20880, Note_on_c, 3, 73, 29
5, 20880, Note_on_c, 3, 69, 42
5, 20895, Note_on_c, 3, 69, 0
5, 20895, Note_on_c, 3, 66, 0
5, 21000, Note_on_c, 3, 66, 19
5, 21000, Note_on_c, 3, 69, 20
5, 21000, Note_on_c, 3, 73, 15
5, 21000, Note_on_c, 3, 73, 0
5, 21010, Note_on_c, 3, 73, 0
5, 21020, Note_on_c, 3, 69, 0
5, 21020, Note_on_c, 3, 66, 0
5, 21120, Note_on_c, 3, 69, 35
5, 21120, Note_on_c, 3, 66, 22
5, 21120, Note_on_c, 3, 73, 27
5, 21125, Note_on_c, 3, 73, 0
5, 21135, Note_on_c, 3, 66, 0
5, 21135, Note_on_c, 3, 69, 0
5, 21240, Note_on_c, 3, 64, 23
5, 21240, Note_on_c, 3, 68, 21
5, 21240, Note_on_c, 3, 71, 31
5, 21355, Note_on_c, 3, 68, 0
5, 21360, Note_on_c, 3, 64, 35
5, 21360, Note_on_c, 3, 71, 34
5, 21360, Note_on_c, 3, 68, 28
5, 21360, Note_on_c, 3, 71, 0
5, 21360, Note_on_c, 3, 64, 0
5, 21370, Note_on_c, 3, 64, 0
5, 21480, Note_on_c, 3, 64, 24
5, 21480, Note_on_c, 3, 71, 27
5, 21480, Note_on_c, 3, 68, 21
5, 21480, Note_on_c, 3, 71, 0
5, 21480, Note_on_c, 3, 68, 0
5, 21485, Note_on_c, 3, 68, 0
5, 21490, Note_on_c, 3, 71, 0
5, 21495, Note_on_c, 3, 64, 0
5, 21600, Note_on_c, 3, 64, 28
5, 21600, Note_on_c, 3, 68, 20
5, 21600, Note_on_c, 3, 71, 34
5, 21610, Note_on_c, 3, 71, 0
5, 21610, Note_on_c, 3, 68, 0
5, 21615, Note_on_c, 3, 64, 0
5, 21720, Note_on_c, 3, 71, 29
5, 21720, Note_on_c, 3, 64, 22
5, 21720, Note_on_c, 3, 68, 24
5, 21725, Note_on_c, 3, 68, 0
5, 21725, Note_on_c, 3, 71, 0
5, 21730, Note_on_c, 3, 64, 0
5, 21840, Note_on_c, 3, 64, 34
5, 21840, Note_on_c, 3, 68, 34
5, 21840, Note_on_c, 3, 71, 41
5, 21960, Note_on_c, 3, 66, 30
5, 21960, Note_on_c, 3, 69, 46
5, 21960, Note_on_c, 3, 73, 27
5, 21965, Note_on_c, 3, 64, 0
5, 22000, Note_on_c, 3, 71, 0
5, 22015, Note_on_c, 3, 68, 0
5, 22075, Note_on_c, 3, 73, 0
5, 22080, Note_on_c, 3, 69, 23
5, 22080, Note_on_c, 3, 66, 22
5, 22080, Note_on_c, 3, 73, 27
5, 22080, Note_on_c, 3, 66, 0
5, 22080, Note_on_c, 3, 69, 0
5, 22095, Note_on_c, 3, 66, 0
5, 22100, Note_on_c, 3, 69, 0
5, 22200, Note_on_c, 3, 66, 18
5, 22200, Note_on_c, 3, 69, 45
5, 22200, Note_on_c, 3, 73, 24
5, 22200, Note_on_c, 3, 73, 0
5, 22210, Note_on_c, 3, 73, 0
5, 22220, Note_on_c, 3, 69, 0
5, 22220, Note_on_c, 3, 66, 0
5, 22320, Note_on_c, 3, 66, 23
5, 22320, Note_on_c, 3, 69, 25
5, 22320, Note_on_c, 3, 73, 26
5, 22335, Note_on_c, 3, 69, 0
5, 22340, Note_on_c, 3, 73, 0
5, 22340, Note_on_c, 3, 66, 0
5, 22440, Note_on_c, 3, 69, 26
5, 22440, Note_on_c, 3, 66, 25
5, 22440, Note_on_c, 3, 73, 23
5, 22560, Note_on_c, 3, 73, 24
5, 22560, Note_on_c, 3, 66, 18
5, 22560, Note_on_c, 3, 69, 23
5, 22560, Note_on_c, 3, 73, 0
5, 22560, Note_on_c, 3, 69, 0
5, 22560, Note_on_c, 3, 66, 0
5, 22565, Note_on_c, 3, 69, 0
5, 22680, Note_on_c, 3, 69, 27
5, 22680, Note_on_c, 3, 62, 23
5, 22680, Note_on_c, 3, 66, 26
5, 22680, Note_on_c, 3, 66, 0
5, 22685, Note_on_c, 3, 66, 0
5, 22690, Note_on_c, 3, 73, 0
5, 22795, Note_on_c, 3, 62, 0
5, 22800, Note_on_c, 3, 69, 28
5, 22800, Note_on_c, 3, 66, 26
5, 22800, Note_on_c, 3, 62, 34
5, 22800, Note_on_c, 3, 69, 0
5, 22805, Note_on_c, 3, 69, 0
5, 22920, Note_on_c, 3, 62, 36
5, 22920, Note_on_c, 3, 66, 24
5, 22920, Note_on_c, 3, 69, 34
5, 22920, Note_on_c, 3, 66, 0
5, 22920, Note_on_c, 3, 62, 0
5, 22930, Note_on_c, 3, 66, 0
5, 22930, Note_on_c, 3, 62, 0
5, 22930, Note_on_c, 3, 69, 0
5, 23040, Note_on_c, 3, 64, 28
5, 23040, Note_on_c, 3, 68, 22
5, 23040, Note_on_c, 3, 71, 28
5, 23160, Note_on_c, 3, 68, 20
5, 23160, Note_on_c, 3, 64, 27
5, 23160, Note_on_c, 3, 71, 35
5, 23160, Note_on_c, 3, 71, 0
5, 23160, Note_on_c, 3, 64, 0
5, 23160, Note_on_c, 3, 68, 0
5, 23165, Note_on_c, 3, 71, 0
5, 23175, Note_on_c, 3, 64, 0
5, 23175, Note_on_c, 3, 68, 0
5, 23280, Note_on_c, 3, 64, 27
5, 23280, Note_on_c, 3, 71, 37
5, 23280, Note_on_c, 3, 68, 33
5, 23295, Note_on_c, 3, 68, 0
5, 23295, Note_on_c, 3, 71, 0
5, 23300, Note_on_c, 3, 64, 0
5, 23400, Note_on_c, 3, 61, 19
5, 23400, Note_on_c, 3, 68, 27
5, 23400, Note_on_c, 3, 64, 40
5, 23520, Note_on_c, 3, 64, 33
5, 23520, Note_on_c, 3, 61, 26
5, 23520, Note_on_c, 3, 68, 26
5, 23520, Note_on_c, 3, 64, 0
5, 23520, Note_on_c, 3, 61, 0
5, 23520, Note_on_c, 3, 68, 0
5, 23525, Note_on_c, 3, 61, 0
5, 23640, Note_on_c, 3, 68, 27
5, 23640, Note_on_c, 3, 64, 35
5, 23640, Note_on_c, 3, 61, 27
5, 23640, Note_on_c, 3, 68, 0
5, 23640, Note_on_c, 3, 64, 0
5, 23655, Note_on_c, 3, 61, 0
5, 23655, Note_on_c, 3, 68, 0
5, 23660, Note_on_c, 3, 64, 0
5, 23760, Note_on_c, 3, 61, 23
5, 23760, Note_on_c, 3, 64, 27
5, 23760, Note_on_c, 3, 68, 27
5, 23765, Note_on_c, 3, 64, 0
5, 23765, Note_on_c, 3, 61, 0
5, 23770, Note_on_c, 3, 68, 0
5, 23880, Note_on_c, 3, 61, 27
5, 23880, Note_on_c, 3, 64, 34
5, 23880, Note_on_c, 3, 68, 28
5, 23885, Note_on_c, 3, 64, 0
5, 24000, Note_on_c, 3, 64, 23
5, 24000, Note_on_c, 3, 68, 33
5, 24000, Note_on_c, 3, 61, 28
5, 24000, Note_on_c, 3, 68, 0
5, 24000, Note_on_c, 3, 61, 0
5, 24005, Note_on_c, 3, 64, 0
5, 24115, Note_on_c, 3, 61, 0
5, 24120, Note_on_c, 3, 66, 31
5, 24120, Note_on_c, 3, 69, 30
5, 24120, Note_on_c, 3, 62, 22
5, 24165, Note_on_c, 3, 68, 0
5, 24240, Note_on_c, 3, 66, 26
5, 24240, Note_on_c, 3, 69, 35
5, 24240, Note_on_c, 3, 62, 35
5, 24240, Note_on_c, 3, 66, 0
5, 24240, Note_on_c, 3, 62, 0
5, 24240, Note_on_c, 3, 69, 0
5, 24245, Note_on_c, 3, 66, 0
5, 24245, Note_on_c, 3, 69, 0
5, 24245, Note_on_c, 3, 62, 0
5, 24360, Note_on_c, 3, 69, 24
5, 24360, Note_on_c, 3, 66, 28
5, 24360, Note_on_c, 3, 62, 27
5, 24380, Note_on_c, 3, 62, 0
5, 24380, Note_on_c, 3, 66, 0
5, 24380, Note_on_c, 3, 69, 0
5, 24480, Note_on_c, 3, 66, 34
5, 24480, Note_on_c, 3, 62, 29
5, 24480, Note_on_c, 3, 59, 22
5, 24485, Note_on_c, 3, 62, 0
5, 24490, Note_on_c, 3, 66, 0
5, 24600, Note_on_c, 3, 59, 22
5, 24600, Note_on_c, 3, 62, 30
5, 24600, Note_on_c, 3, 66, 25
5, 24600, Note_on_c, 3, 59, 0
5, 24620, Note_on_c, 3, 59, 0
5, 24620, Note_on_c, 3, 62, 0
5, 24620, Note_on_c, 3, 66, 0
5, 24720, Note_on_c, 3, 66, 36
5, 24720, Note_on_c, 3, 62, 30
5, 24720, Note_on_c, 3, 59, 33
5, 24730, Note_on_c, 3, 59, 0
5, 24730, Note_on_c, 3, 62, 0
5, 24730, Note_on_c, 3, 66, 0
5, 24840, Note_on_c, 3, 66, 35
5, 24840, Note_on_c, 3, 61, 42
5, 24840, Note_on_c, 3, 68, 20
5, 24870, Note_on_c, 3, 66, 0
5, 24955, Note_on_c, 3, 68, 0
5, 24960, Note_on_c, 3, 61, 14
5, 24960, Note_on_c, 3, 68, 25
5, 24960, Note_on_c, 3, 66, 33
5, 24960, Note_on_c, 3, 61, 0
5, 24965, Note_on_c, 3, 61, 0
5, 25080, Note_on_c, 3, 61, 25
5, 25080, Note_on_c, 3, 66, 35
5, 25080, Note_on_c, 3, 68, 24
5, 25080, Note_on_c, 3, 68, 0
5, 25080, Note_on_c, 3, 66, 0
5, 25090, Note_on_c, 3, 66, 0
5, 25090, Note_on_c, 3, 68, 0
5, 25095, Note_on_c, 3, 61, 0
5, 25200, Note_on_c, 3, 61, 25
5, 25200, Note_on_c, 3, 66, 35
5, 25205, Note_on_c, 3, 68, 30
5, 25210, Note_on_c, 3, 61, 0
5, 25215, Note_on_c, 3, 66, 0
5, 25320, Note_on_c, 3, 68, 28
5, 25320, Note_on_c, 3, 68, 0
5, 25325, Note_on_c, 3, 61, 27
5, 25325, Note_on_c, 3, 66, 38
5, 25330, Note_on_c, 3, 66, 0
5, 25330, Note_on_c, 3, 61, 0
5, 25335, Note_on_c, 3, 68, 0
5, 25440, Note_on_c, 3, 61, 37
5, 25440, Note_on_c, 3, 68, 43
5, 25445, Note_on_c, 3, 66, 42
5, 25450, Note_on_c, 3, 68, 0
5, 25455, Note_on_c, 3, 66, 0
5, 25455, Note_on_c, 3, 61, 0
5, 25560, Note_on_c, 3, 61, 28
5, 25565, Note_on_c, 3, 65, 32
5, 25570, Note_on_c, 3, 68, 27
5, 25570, Note_on_c, 3, 61, 0
5, 25571, Note_on_c, 3, 68, 0
5, 25675, Note_on_c, 3, 65, 32
5, 25675, Note_on_c, 3, 61, 30
5, 25675, Note_on_c, 3, 68, 42
5, 25675, Note_on_c, 3, 65, 0
5, 25690, Note_on_c, 3, 68, 0
5, 25690, Note_on_c, 3, 61, 0
5, 25695, Note_on_c, 3, 65, 0
5, 25795, Note_on_c, 3, 61, 35
5, 25795, Note_on_c, 3, 68, 37
5, 25795, Note_on_c, 3, 65, 36
5, 25796, Note_on_c, 3, 68, 0
5, 25800, Note_on_c, 3, 65, 0
5, 25910, Note_on_c, 3, 61, 34
5, 25910, Note_on_c, 3, 68, 35
5, 25910, Note_on_c, 3, 65, 30
5, 25910, Note_on_c, 3, 61, 0
5, 25930, Note_on_c, 3, 61, 0
5, 25930, Note_on_c, 3, 68, 0
5, 25930, Note_on_c, 3, 65, 0
5, 26025, Note_on_c, 3, 68, 37
5, 26025, Note_on_c, 3, 65, 46
5, 26025, Note_on_c, 3, 61, 33
5, 26045, Note_on_c, 3, 61, 0
5, 26045, Note_on_c, 3, 65, 0
5, 26045, Note_on_c, 3, 68, 0
5, 26140, Note_on_c, 3, 68, 27
5, 26140, Note_on_c, 3, 61, 29
5, 26140, Note_on_c, 3, 65, 46
5, 26275, Note_on_c, 3, 65, 0
5, 26275, Note_on_c, 3, 61, 0
5, 26275, Note_on_c, 3, 68, 0
5, 26280, Note_on_c, 3, 80, 46
5, 26335, Note_on_c, 3, 81, 46
5, 26365, Note_on_c, 3, 80, 0
5, 26390, Note_on_c, 3, 85, 62
5, 26405, Note_on_c, 3, 81, 0
5, 26450, Note_on_c, 3, 80, 51
5, 26460, Note_on_c, 3, 85, 0
5, 26515, Note_on_c, 3, 81, 56
5, 26525, Note_on_c, 3, 80, 0
5, 26575, Note_on_c, 3, 73, 37
5, 26590, Note_on_c, 3, 81, 0
5, 26640, Note_on_c, 3, 80, 31
5, 26660, Note_on_c, 3, 73, 0
5, 26700, Note_on_c, 3, 81, 55
5, 26720, Note_on_c, 3, 80, 0
5, 26760, Note_on_c, 3, 85, 61
5, 26770, Note_on_c, 3, 81, 0
5, 26815, Note_on_c, 3, 80, 51
5, 26830, Note_on_c, 3, 85, 0
5, 26875, Note_on_c, 3, 81, 57
5, 26890, Note_on_c, 3, 80, 0
5, 26930, Note_on_c, 3, 73, 33
5, 26935, Note_on_c, 3, 81, 0
5, 26995, Note_on_c, 3, 78, 40
5, 27005, Note_on_c, 3, 73, 0
5, 27055, Note_on_c, 3, 80, 42
5, 27075, Note_on_c, 3, 78, 0
5, 27115, Note_on_c, 3, 83, 66
5, 27120, Note_on_c, 3, 80, 0
5, 27170, Note_on_c, 3, 78, 48
5, 27185, Note_on_c, 3, 83, 0
5, 27235, Note_on_c, 3, 80, 51
5, 27245, Note_on_c, 3, 78, 0
5, 27295, Note_on_c, 3, 71, 51
5, 27300, Note_on_c, 3, 80, 0
5, 27355, Note_on_c, 3, 78, 38
5, 27395, Note_on_c, 3, 71, 0
5, 27420, Note_on_c, 3, 80, 51
5, 27450, Note_on_c, 3, 78, 0
5, 27480, Note_on_c, 3, 83, 62
5, 27495, Note_on_c, 3, 80, 0
5, 27535, Note_on_c, 3, 78, 52
5, 27585, Note_on_c, 3, 83, 0
5, 27595, Note_on_c, 3, 80, 52
5, 27610, Note_on_c, 3, 78, 0
5, 27655, Note_on_c, 3, 71, 48
5, 27685, Note_on_c, 3, 80, 0
5, 27720, Note_on_c, 3, 76, 51
5, 27725, Note_on_c, 3, 71, 0
5, 27780, Note_on_c, 3, 78, 53
5, 27800, Note_on_c, 3, 76, 0
5, 27835, Note_on_c, 3, 81, 66
5, 27845, Note_on_c, 3, 78, 0
5, 27895, Note_on_c, 3, 76, 58
5, 27905, Note_on_c, 3, 81, 0
5, 27960, Note_on_c, 3, 78, 51
5, 27965, Note_on_c, 3, 76, 0
5, 28025, Note_on_c, 3, 69, 53
5, 28025, Note_on_c, 3, 78, 0
5, 28085, Note_on_c, 3, 76, 52
5, 28105, Note_on_c, 3, 69, 0
5, 28145, Note_on_c, 3, 78, 55
5, 28175, Note_on_c, 3, 76, 0
5, 28205, Note_on_c, 3, 81, 68
5, 28210, Note_on_c, 3, 78, 0
5, 28260, Note_on_c, 3, 76, 62
5, 28270, Note_on_c, 3, 81, 0
5, 28320, Note_on_c, 3, 78, 43
5, 28325, Note_on_c, 3, 76, 0
5, 28380, Note_on_c, 3, 69, 51
5, 28385, Note_on_c, 3, 78, 0
5, 28440, Note_on_c, 3, 74, 61
5, 28445, Note_on_c, 3, 69, 0
5, 28500, Note_on_c, 3, 76, 58
5, 28510, Note_on_c, 3, 74, 0
5, 28560, Note_on_c, 3, 78, 60
5, 28570, Note_on_c, 3, 76, 0
5, 28625, Note_on_c, 3, 81, 64
5, 28630, Note_on_c, 3, 78, 0
5, 28675, Note_on_c, 3, 78, 56
5, 28685, Note_on_c, 3, 81, 0
5, 28735, Note_on_c, 3, 81, 58
5, 28740, Note_on_c, 3, 78, 0
5, 28800, Note_on_c, 3, 80, 68
5, 28805, Note_on_c, 3, 81, 0
5, 28860, Note_on_c, 3, 81, 62
5, 28865, Note_on_c, 3, 80, 0
5, 28915, Note_on_c, 3, 83, 64
5, 28920, Note_on_c, 3, 81, 0
5, 28980, Note_on_c, 3, 76, 57
5, 28985, Note_on_c, 3, 83, 0
5, 29035, Note_on_c, 3, 78, 55
5, 29045, Note_on_c, 3, 76, 0
5, 29095, Note_on_c, 3, 80, 63
5, 29105, Note_on_c, 3, 78, 0
5, 29155, Note_on_c, 3, 81, 63
5, 29165, Note_on_c, 3, 80, 0
5, 29390, Note_on_c, 3, 81, 0
5, 29590, Note_on_c, 3, 86, 62
5, 29645, Note_on_c, 3, 85, 57
5, 29655, Note_on_c, 3, 86, 0
5, 29705, Note_on_c, 3, 83, 56
5, 29710, Note_on_c, 3, 85, 0
5, 29760, Note_on_c, 3, 81, 48
5, 29760, Note_on_c, 3, 83, 0
5, 29810, Note_on_c, 3, 80, 45
5, 29820, Note_on_c, 3, 81, 0
5, 29880, Note_on_c, 3, 78, 55
5, 29885, Note_on_c, 3, 80, 0
5, 30130, Note_on_c, 3, 78, 0
5, 30960, Note_on_c, 3, 83, 66
5, 31080, Note_on_c, 3, 85, 79
5, 31090, Note_on_c, 3, 83, 0
5, 31185, Note_on_c, 3, 83, 58
5, 31195, Note_on_c, 3, 85, 0
5, 31245, Note_on_c, 3, 81, 66
5, 31250, Note_on_c, 3, 83, 0
5, 31310, Note_on_c, 3, 80, 64
5, 31320, Note_on_c, 3, 81, 0
5, 31535, Note_on_c, 3, 80, 0
5, 31855, Note_on_c, 3, 80, 73
5, 31915, Note_on_c, 3, 83, 67
5, 31915, Note_on_c, 3, 80, 0
5, 31975, Note_on_c, 3, 80, 63
5, 31980, Note_on_c, 3, 83, 0
5, 32005, Note_on_c, 3, 80, 0
5, 32040, Note_on_c, 3, 80, 73
5, 32220, Note_on_c, 3, 81, 67
5, 32230, Note_on_c, 3, 80, 0
5, 32515, Note_on_c, 3, 83, 64
5, 32520, Note_on_c, 3, 81, 0
5, 32640, Note_on_c, 3, 85, 67
5, 32655, Note_on_c, 3, 83, 0
5, 32990, Note_on_c, 3, 85, 0
5, 33125, Note_on_c, 3, 90, 47
5, 33310, Note_on_c, 3, 90, 0
5, 33480, Note_on_c, 3, 85, 95
5, 33720, Note_on_c, 3, 83, 71
5, 33730, Note_on_c, 3, 85, 0
5, 33750, Note_on_c, 3, 85, 84
5, 33755, Note_on_c, 3, 83, 0
5, 33775, Note_on_c, 3, 86, 66
5, 33775, Note_on_c, 3, 85, 0
5, 33805, Note_on_c, 3, 85, 79
5, 33820, Note_on_c, 3, 86, 0
5, 33835, Note_on_c, 3, 83, 95
5, 33840, Note_on_c, 3, 85, 0
5, 34085, Note_on_c, 3, 83, 0
5, 34145, Note_on_c, 3, 81, 87
5, 34175, Note_on_c, 3, 80, 82
5, 34180, Note_on_c, 3, 81, 0
5, 34205, Note_on_c, 3, 81, 73
5, 34215, Note_on_c, 3, 80, 0
5, 34415, Note_on_c, 3, 81, 0
5, 34425, Note_on_c, 3, 81, 5
5, 34470, Note_on_c, 3, 81, 0
5, 34795, Note_on_c, 3, 78, 45
5, 34805, Note_on_c, 3, 80, 79
5, 34815, Note_on_c, 3, 78, 0
5, 34820, Note_on_c, 3, 81, 64
5, 34830, Note_on_c, 3, 83, 67
5, 34830, Note_on_c, 3, 80, 0
5, 34835, Note_on_c, 3, 85, 62
5, 34840, Note_on_c, 3, 81, 0
5, 34850, Note_on_c, 3, 83, 0
5, 34855, Note_on_c, 3, 85, 0
5, 34860, Note_on_c, 3, 86, 61
5, 34885, Note_on_c, 3, 88, 68
5, 34890, Note_on_c, 3, 86, 0
5, 34905, Note_on_c, 3, 90, 95
5, 34910, Note_on_c, 3, 88, 0
5, 35145, Note_on_c, 3, 90, 0
5, 35160, Note_on_c, 3, 88, 87
5, 35185, Note_on_c, 3, 90, 82
5, 35195, Note_on_c, 3, 88, 0
5, 35215, Note_on_c, 3, 91, 68
5, 35220, Note_on_c, 3, 90, 0
5, 35245, Note_on_c, 3, 90, 84
5, 35260, Note_on_c, 3, 91, 0
5, 35275, Note_on_c, 3, 88, 95
5, 35280, Note_on_c, 3, 90, 0
5, 35535, Note_on_c, 3, 88, 0
5, 35585, Note_on_c, 3, 86, 82
5, 35610, Note_on_c, 3, 85, 79
5, 35615, Note_on_c, 3, 86, 0
5, 35640, Note_on_c, 3, 86, 84
5, 35645, Note_on_c, 3, 85, 0
5, 36070, Note_on_c, 3, 86, 0
5, 36305, Note_on_c, 3, 85, 91
5, 36325, Note_on_c, 3, 85, 0
5, 36330, Note_on_c, 3, 83, 64
5, 36330, Note_on_c, 3, 84, 63
5, 36335, Note_on_c, 3, 84, 0
5, 36365, Note_on_c, 3, 85, 103
5, 36370, Note_on_c, 3, 83, 0
5, 36500, Note_on_c, 3, 85, 0
5, 36550, Note_on_c, 3, 90, 87
5, 36670, Note_on_c, 3, 90, 0
5, 36720, Note_on_c, 3, 92, 87
5, 37005, Note_on_c, 3, 92, 0
5, 37015, Note_on_c, 3, 87, 91
5, 37080, Note_on_c, 3, 89, 62
5, 37080, Note_on_c, 3, 87, 0
5, 37500, Note_on_c, 3, 89, 0
5, 37680, Note_on_c, 3, 78, 95
5, 37735, Note_on_c, 3, 80, 87
5, 37740, Note_on_c, 3, 78, 0
5, 37800, Note_on_c, 3, 81, 76
5, 37815, Note_on_c, 3, 80, 0
5, 37980, Note_on_c, 3, 85, 95
5, 37985, Note_on_c, 3, 81, 0
5, 38165, Note_on_c, 3, 83, 95
5, 38175, Note_on_c, 3, 85, 0
5, 38415, Note_on_c, 3, 83, 0
5, 38455, Note_on_c, 3, 78, 87
5, 38520, Note_on_c, 3, 80, 87
5, 38525, Note_on_c, 3, 78, 0
5, 38905, Note_on_c, 3, 80, 0
5, 39240, Note_on_c, 3, 66, 25
5, 39240, Note_on_c, 3, 69, 34
5, 39240, Note_on_c, 3, 73, 23
5, 39360, Note_on_c, 3, 69, 23
5, 39360, Note_on_c, 3, 66, 17
5, 39360, Note_on_c, 3, 73, 22
5, 39360, Note_on_c, 3, 73, 0
5, 39360, Note_on_c, 3, 66, 0
5, 39360, Note_on_c, 3, 69, 0
5, 39365, Note_on_c, 3, 69, 0
5, 39365, Note_on_c, 3, 66, 0
5, 39480, Note_on_c, 3, 69, 46
5, 39480, Note_on_c, 3, 66, 22
5, 39480, Note_on_c, 3, 73, 26
5, 39480, Note_on_c, 3, 73, 0
5, 39490, Note_on_c, 3, 73, 0
5, 39500, Note_on_c, 3, 66, 0
5, 39500, Note_on_c, 3, 69, 0
5, 39600, Note_on_c, 3, 66, 27
5, 39600, Note_on_c, 3, 73, 29
5, 39600, Note_on_c, 3, 69, 42
5, 39615, Note_on_c, 3, 69, 0
5, 39615, Note_on_c, 3, 66, 0
5, 39720, Note_on_c, 3, 66, 19
5, 39720, Note_on_c, 3, 69, 20
5, 39720, Note_on_c, 3, 73, 15
5, 39720, Note_on_c, 3, 73, 0
5, 39730, Note_on_c, 3, 73, 0
5, 39740, Note_on_c, 3, 69, 0
5, 39740, Note_on_c, 3, 66, 0
5, 39840, Note_on_c, 3, 69, 35
5, 39840, Note_on_c, 3, 66, 22
5, 39840, Note_on_c, 3, 73, 27
5, 39845, Note_on_c, 3, 73, 0
5, 39855, Note_on_c, 3, 66, 0
5, 39855, Note_on_c, 3, 69, 0
5, 39960, Note_on_c, 3, 64, 23
5, 39960, Note_on_c, 3, 68, 21
5, 39960, Note_on_c, 3, 71, 31
5, 40075, Note_on_c, 3, 68, 0
5, 40080, Note_on_c, 3, 64, 35
5, 40080, Note_on_c, 3, 71, 34
5, 40080, Note_on_c, 3, 68, 28
5, 40080, Note_on_c, 3, 71, 0
5, 40080, Note_on_c, 3, 64, 0
5, 40090, Note_on_c, 3, 64, 0
5, 40200, Note_on_c, 3, 64, 24
5, 40200, Note_on_c, 3, 71, 27
5, 40200, Note_on_c, 3, 68, 21
5, 40200, Note_on_c, 3, 71, 0
5, 40200, Note_on_c, 3, 68, 0
5, 40205, Note_on_c, 3, 68, 0
5, 40210, Note_on_c, 3, 71, 0
5, 40215, Note_on_c, 3, 64, 0
5, 40320, Note_on_c, 3, 64, 28
5, 40320, Note_on_c, 3, 68, 20
5, 40320, Note_on_c, 3, 71, 34
5, 40330, Note_on_c, 3, 71, 0
5, 40330, Note_on_c, 3, 68, 0
5, 40335, Note_on_c, 3, 64, 0
5, 40440, Note_on_c, 3, 71, 29
5, 40440, Note_on_c, 3, 64, 22
5, 40440, Note_on_c, 3, 68, 24
5, 40445, Note_on_c, 3, 68, 0
5, 40445, Note_on_c, 3, 71, 0
5, 40450, Note_on_c, 3, 64, 0
5, 40560, Note_on_c, 3, 64, 34
5, 40560, Note_on_c, 3, 68, 34
5, 40560, Note_on_c, 3, 71, 41
5, 40680, Note_on_c, 3, 66, 30
5, 40680, Note_on_c, 3, 69, 46
5, 40680, Note_on_c, 3, 73, 27
5, 40685, Note_on_c, 3, 64, 0
5, 40720, Note_on_c, 3, 71, 0
5, 40735, Note_on_c, 3, 68, 0
5, 40795, Note_on_c, 3, 73, 0
5, 40800, Note_on_c, 3, 69, 23
5, 40800, Note_on_c, 3, 66, 22
5, 40800, Note_on_c, 3, 73, 27
5, 40800, Note_on_c, 3, 66, 0
5, 40800, Note_on_c, 3, 69, 0
5, 40815, Note_on_c, 3, 66, 0
5, 40820, Note_on_c, 3, 69, 0
5, 40920, Note_on_c, 3, 66, 18
5, 40920, Note_on_c, 3, 69, 45
5, 40920, Note_on_c, 3, 73, 24
5, 40920, Note_on_c, 3, 73, 0
5, 40930, Note_on_c, 3, 73, 0
5, 40940, Note_on_c, 3, 69, 0
5, 40940, Note_on_c, 3, 66, 0
5, 41040, Note_on_c, 3, 66, 23
5, 41040, Note_on_c, 3, 69, 25
5, 41040, Note_on_c, 3, 73, 26
5, 41055, Note_on_c, 3, 69, 0
5, 41060, Note_on_c, 3, 73, 0
5, 41060, Note_on_c, 3, 66, 0
5, 41160, Note_on_c, 3, 69, 26
5, 41160, Note_on_c, 3, 66, 25
5, 41160, Note_on_c, 3, 73, 23
5, 41280, Note_on_c, 3, 73, 24
5, 41280, Note_on_c, 3, 66, 18
5, 41280, Note_on_c, 3, 69, 23
5, 41280, Note_on_c, 3, 73, 0
5, 41280, Note_on_c, 3, 69, 0
5, 41280, Note_on_c, 3, 66, 0
5, 41285, Note_on_c, 3, 69, 0
5, 41400, Note_on_c, 3, 69, 27
5, 41400, Note_on_c, 3, 62, 23
5, 41400, Note_on_c, 3, 66, 26
5, 41400, Note_on_c, 3, 66, 0
5, 41405, Note_on_c, 3, 66, 0
5, 41410, Note_on_c, 3, 73, 0
5, 41515, Note_on_c, 3, 62, 0
5, 41520, Note_on_c, 3, 69, 28
5, 41520, Note_on_c, 3, 66, 26
5, 41520, Note_on_c, 3, 62, 34
5, 41520, Note_on_c, 3, 69, 0
5, 41525, Note_on_c, 3, 69, 0
5, 41640, Note_on_c, 3, 62, 36
5, 41640, Note_on_c, 3, 66, 24
5, 41640, Note_on_c, 3, 69, 34
5, 41640, Note_on_c, 3, 66, 0
5, 41640, Note_on_c, 3, 62, 0
5, 41650, Note_on_c, 3, 66, 0
5, 41650, Note_on_c, 3, 62, 0
5, 41650, Note_on_c, 3, 69, 0
5, 41760, Note_on_c, 3, 64, 28
5, 41760, Note_on_c, 3, 68, 22
5, 41760, Note_on_c, 3, 71, 28
5, 41880, Note_on_c, 3, 68, 20
5, 41880, Note_on_c, 3, 64, 27
5, 41880, Note_on_c, 3, 71, 35
5, 41880, Note_on_c, 3, 71, 0
5, 41880, Note_on_c, 3, 64, 0
5, 41880, Note_on_c, 3, 68, 0
5, 41885, Note_on_c, 3, 71, 0
5, 41895, Note_on_c, 3, 64, 0
5, 41895, Note_on_c, 3, 68, 0
5, 42000, Note_on_c, 3, 64, 27
5, 42000, Note_on_c, 3, 71, 37
5, 42000, Note_on_c, 3, 68, 33
5, 42015, Note_on_c, 3, 68, 0
5, 42015, Note_on_c, 3, 71, 0
5, 42020, Note_on_c, 3, 64, 0
5, 42120, Note_on_c, 3, 61, 19
5, 42120, Note_on_c, 3, 68, 27
5, 42120, Note_on_c, 3, 64, 40
5, 42240, Note_on_c, 3, 64, 33
5, 42240, Note_on_c, 3, 61, 26
5, 42240, Note_on_c, 3, 68, 26
5, 42240, Note_on_c, 3, 64, 0
5, 42240, Note_on_c, 3, 61, 0
5, 42240, Note_on_c, 3, 68, 0
5, 42245, Note_on_c, 3, 61, 0
5, 42360, Note_on_c, 3, 68, 27
5, 42360, Note_on_c, 3, 64, 35
5, 42360, Note_on_c, 3, 61, 27
5, 42360, Note_on_c, 3, 68, 0
5, 42360, Note_on_c, 3, 64, 0
5, 42375, Note_on_c, 3, 61, 0
5, 42375, Note_on_c, 3, 68, 0
5, 42380, Note_on_c, 3, 64, 0
5, 42480, Note_on_c, 3, 61, 23
5, 42480, Note_on_c, 3, 64, 27
5, 42480, Note_on_c, 3, 68, 27
5, 42485, Note_on_c, 3, 64, 0
5, 42485, Note_on_c, 3, 61, 0
5, 42490, Note_on_c, 3, 68, 0
5, 42600, Note_on_c, 3, 61, 27
5, 42600, Note_on_c, 3, 64, 34
5, 42600, Note_on_c, 3, 68, 28
5, 42605, Note_on_c, 3, 64, 0
5, 42720, Note_on_c, 3, 64, 23
5, 42720, Note_on_c, 3, 68, 33
5, 42720, Note_on_c, 3, 61, 28
5, 42720, Note_on_c, 3, 68, 0
5, 42720, Note_on_c, 3, 61, 0
5, 42725, Note_on_c, 3, 64, 0
5, 42835, Note_on_c, 3, 61, 0
5, 42840, Note_on_c, 3, 66, 31
5, 42840, Note_on_c, 3, 69, 30
5, 42840, Note_on_c, 3, 62, 22
5, 42885, Note_on_c, 3, 68, 0
5, 42960, Note_on_c, 3, 66, 26
5, 42960, Note_on_c, 3, 69, 35
5, 42960, Note_on_c, 3, 62, 35
5, 42960, Note_on_c, 3, 66, 0
5, 42960, Note_on_c, 3, 62, 0
5, 42960, Note_on_c, 3, 69, 0
5, 42965, Note_on_c, 3, 66, 0
5, 42965, Note_on_c, 3, 69, 0
5, 42965, Note_on_c, 3, 62, 0
5, 43080, Note_on_c, 3, 69, 24
5, 43080, Note_on_c, 3, 66, 28
5, 43080, Note_on_c, 3, 62, 27
5, 43100, Note_on_c, 3, 62, 0
5, 43100, Note_on_c, 3, 66, 0
5, 43100, Note_on_c, 3, 69, 0
5, 43200, Note_on_c, 3, 66, 34
5, 43200, Note_on_c, 3, 62, 29
5, 43200, Note_on_c, 3, 59, 22
5, 43205, Note_on_c, 3, 62, 0
5, 43210, Note_on_c, 3, 66, 0
5, 43320, Note_on_c, 3, 59, 22
5, 43320, Note_on_c, 3, 62, 30
5, 43320, Note_on_c, 3, 66, 25
5, 43320, Note_on_c, 3, 59, 0
5, 43340, Note_on_c, 3, 59, 0
5, 43340, Note_on_c, 3, 62, 0
5, 43340, Note_on_c, 3, 66, 0
5, 43440, Note_on_c, 3, 66, 36
5, 43440, Note_on_c, 3, 62, 30
5, 43440, Note_on_c, 3, 59, 33
5, 43450, Note_on_c, 3, 59, 0
5, 43450, Note_on_c, 3, 62, 0
5, 43450, Note_on_c, 3, 66, 0
5, 43560, Note_on_c, 3, 66, 35
5, 43560, Note_on_c, 3, 61, 42
5, 43560, Note_on_c, 3, 68, 20
5, 43590, Note_on_c, 3, 66, 0
5, 43675, Note_on_c, 3, 68, 0
5, 43680, Note_on_c, 3, 61, 14
5, 43680, Note_on_c, 3, 68, 25
5, 43680, Note_on_c, 3, 66, 33
5, 43680, Note_on_c, 3, 61, 0
5, 43685, Note_on_c, 3, 61, 0
5, 43800, Note_on_c, 3, 61, 25
5, 43800, Note_on_c, 3, 66, 35
5, 43800, Note_on_c, 3, 68, 24
5, 43800, Note_on_c, 3, 68, 0
5, 43800, Note_on_c, 3, 66, 0
5, 43810, Note_on_c, 3, 66, 0
5, 43810, Note_on_c, 3, 68, 0
5, 43815, Note_on_c, 3, 61, 0
5, 43920, Note_on_c, 3, 61, 25
5, 43920, Note_on_c, 3, 66, 35
5, 43925, Note_on_c, 3, 68, 30
5, 43930, Note_on_c, 3, 61, 0
5, 43935, Note_on_c, 3, 66, 0
5, 44040, Note_on_c, 3, 68, 28
5, 44040, Note_on_c, 3, 68, 0
5, 44045, Note_on_c, 3, 61, 27
5, 44045, Note_on_c, 3, 66, 38
5, 44050, Note_on_c, 3, 66, 0
5, 44050, Note_on_c, 3, 61, 0
5, 44055, Note_on_c, 3, 68, 0
5, 44160, Note_on_c, 3, 61, 37
5, 44160, Note_on_c, 3, 68, 43
5, 44165, Note_on_c, 3, 66, 42
5, 44170, Note_on_c, 3, 68, 0
5, 44175, Note_on_c, 3, 66, 0
5, 44175, Note_on_c, 3, 61, 0
5, 44280, Note_on_c, 3, 61, 28
5, 44285, Note_on_c, 3, 65, 32
5, 44290, Note_on_c, 3, 68, 27
5, 44290, Note_on_c, 3, 61, 0
5, 44291, Note_on_c, 3, 68, 0
5, 44395, Note_on_c, 3, 65, 32
5, 44395, Note_on_c, 3, 61, 30
5, 44395, Note_on_c, 3, 68, 42
5, 44395, Note_on_c, 3, 65, 0
5, 44410, Note_on_c, 3, 68, 0
5, 44410, Note_on_c, 3, 61, 0
5, 44415, Note_on_c, 3, 65, 0
5, 44515, Note_on_c, 3, 61, 35
5, 44515, Note_on_c, 3, 68, 37
5, 44515, Note_on_c, 3, 65, 36
5, 44516, Note_on_c, 3, 68, 0
5, 44520, Note_on_c, 3, 65, 0
5, 44630, Note_on_c, 3, 61, 34
5, 44630, Note_on_c, 3, 68, 35
5, 44630, Note_on_c, 3, 65, 30
5, 44630, Note_on_c, 3, 61, 0
5, 44650, Note_on_c, 3, 61, 0
5, 44650, Note_on_c, 3, 68, 0
5, 44650, Note_on_c, 3, 65, 0
5, 44745, Note_on_c, 3, 68, 37
5, 44745, Note_on_c, 3, 65, 46
5, 44745, Note_on_c, 3, 61, 33
5, 44765, Note_on_c, 3, 61, 0
5, 44765, Note_on_c, 3, 65, 0
5, 44765, Note_on_c, 3, 68, 0
5, 44860, Note_on_c, 3, 68, 27
5, 44860, Note_on_c, 3, 61, 29
5, 44860, Note_on_c, 3, 65, 46
5, 44995, Note_on_c, 3, 65, 0
5, 44995, Note_on_c, 3, 61, 0
5, 44995, Note_on_c, 3, 68, 0
5, 45000, Note_on_c, 3, 80, 46
5, 45055, Note_on_c, 3, 81, 46
5, 45085, Note_on_c, 3, 80, 0
5, 45110, Note_on_c, 3, 85, 62
5, 45125, Note_on_c, 3, 81, 0
5, 45170, Note_on_c, 3, 80, 51
5, 45180, Note_on_c, 3, 85, 0
5, 45235, Note_on_c, 3, 81, 56
5, 45245, Note_on_c, 3, 80, 0
5, 45295, Note_on_c, 3, 73, 37
5, 45310, Note_on_c, 3, 81, 0
5, 45360, Note_on_c, 3, 80, 31
5, 45380, Note_on_c, 3, 73, 0
5, 45420, Note_on_c, 3, 81, 55
5, 45440, Note_on_c, 3, 80, 0
5, 45480, Note_on_c, 3, 85, 61
5, 45490, Note_on_c, 3, 81, 0
5, 45535, Note_on_c, 3, 80, 51
5, 45550, Note_on_c, 3, 85, 0
5, 45595, Note_on_c, 3, 81, 57
5, 45610, Note_on_c, 3, 80, 0
5, 45650, Note_on_c, 3, 73, 33
5, 45655, Note_on_c, 3, 81, 0
5, 45715, Note_on_c, 3, 78, 40
5, 45725, Note_on_c, 3, 73, 0
5, 45775, Note_on_c, 3, 80, 42
5, 45795, Note_on_c, 3, 78, 0
5, 45835, Note_on_c, 3, 83, 66
5, 45840, Note_on_c, 3, 80, 0
5, 45890, Note_on_c, 3, 78, 48
5, 45905, Note_on_c, 3, 83, 0
5, 45955, Note_on_c, 3, 80, 51
5, 45965, Note_on_c, 3, 78, 0
5, 46015, Note_on_c, 3, 71, 51
5, 46020, Note_on_c, 3, 80, 0
5, 46075, Note_on_c, 3, 78, 38
5, 46115, Note_on_c, 3, 71, 0
5, 46140, Note_on_c, 3, 80, 51
5, 46170, Note_on_c, 3, 78, 0
5, 46200, Note_on_c, 3, 83, 62
5, 46215, Note_on_c, 3, 80, 0
5, 46255, Note_on_c, 3, 78, 52
5, 46305, Note_on_c, 3, 83, 0
5, 46315, Note_on_c, 3, 80, 52
5, 46330, Note_on_c, 3, 78, 0
5, 46375, Note_on_c, 3, 71, 48
5, 46405, Note_on_c, 3, 80, 0
5, 46440, Note_on_c, 3, 76, 51
5, 46445, Note_on_c, 3, 71, 0
5, 46500, Note_on_c, 3, 78, 53
5, 46520, Note_on_c, 3, 76, 0
5, 46555, Note_on_c, 3, 81, 66
5, 46565, Note_on_c, 3, 78, 0
5, 46615, Note_on_c, 3, 76, 58
5, 46625, Note_on_c, 3, 81, 0
5, 46680, Note_on_c, 3, 78, 51
5, 46685, Note_on_c, 3, 76, 0
5, 46745, Note_on_c, 3, 69, 53
5, 46745, Note_on_c, 3, 78, 0
5, 46805, Note_on_c, 3, 76, 52
5, 46825, Note_on_c, 3, 69, 0
5, 46865, Note_on_c, 3, 78, 55
5, 46895, Note_on_c, 3, 76, 0
5, 46925, Note_on_c, 3, 81, 68
5, 46930, Note_on_c, 3, 78, 0
5, 46980, Note_on_c, 3, 76, 62
5, 46990, Note_on_c, 3, 81, 0
5, 47040, Note_on_c, 3, 78, 43
5, 47045, Note_on_c, 3, 76, 0
5, 47100, Note_on_c, 3, 69, 51
5, 47105, Note_on_c, 3, 78, 0
5, 47160, Note_on_c, 3, 74, 61
5, 47165, Note_on_c, 3, 69, 0
5, 47220, Note_on_c, 3, 76, 58
5, 47230, Note_on_c, 3, 74, 0
5, 47280, Note_on_c, 3, 78, 60
5, 47290, Note_on_c, 3, 76, 0
5, 47345, Note_on_c, 3, 81, 64
5, 47350, Note_on_c, 3, 78, 0
5, 47395, Note_on_c, 3, 78, 56
5, 47405, Note_on_c, 3, 81, 0
5, 47455, Note_on_c, 3, 81, 58
5, 47460, Note_on_c, 3, 78, 0
5, 47520, Note_on_c, 3, 80, 68
5, 47525, Note_on_c, 3, 81, 0
5, 47580, Note_on_c, 3, 81, 62
5, 47585, Note_on_c, 3, 80, 0
5, 47635, Note_on_c, 3, 83, 64
5, 47640, Note_on_c, 3, 81, 0
5, 47700, Note_on_c, 3, 76, 57
5, 47705, Note_on_c, 3, 83, 0
5, 47755, Note_on_c, 3, 78, 55
5, 47765, Note_on_c, 3, 76, 0
5, 47815, Note_on_c, 3, 80, 63
5, 47825, Note_on_c, 3, 78, 0
5, 47875, Note_on_c, 3, 81, 63
5, 47885, Note_on_c, 3, 80, 0
5, 48110, Note_on_c, 3, 81, 0
5, 48310, Note_on_c, 3, 86, 62
5, 48365, Note_on_c, 3, 85, 57
5, 48375, Note_on_c, 3, 86, 0
5, 48425, Note_on_c, 3, 83, 56
5, 48430, Note_on_c, 3, 85, 0
5, 48480, Note_on_c, 3, 81, 48
5, 48480, Note_on_c, 3, 83, 0
5, 48530, Note_on_c, 3, 80, 45
5, 48540, Note_on_c, 3, 81, 0
5, 48600, Note_on_c, 3, 78, 55
5, 48605, Note_on_c, 3, 80, 0
5, 48850, Note_on_c, 3, 78, 0
5, 49680, Note_on_c, 3, 83, 66
5, 49800, Note_on_c, 3, 85, 79
5, 49810, Note_on_c, 3, 83, 0
5, 49905, Note_on_c, 3, 83, 58
5, 49915, Note_on_c, 3, 85, 0
5, 49965, Note_on_c, 3, 81, 66
5, 49970, Note_on_c, 3, 83, 0
5, 50030, Note_on_c, 3, 80, 64
5, 50040, Note_on_c, 3, 81, 0
5, 50255, Note_on_c, 3, 80, 0
5, 50575, Note_on_c, 3, 80, 73
5, 50635, Note_on_c, 3, 83, 67
5, 50635, Note_on_c, 3, 80, 0
5, 50695, Note_on_c, 3, 80, 63
5, 50700, Note_on_c, 3, 83, 0
5, 50725, Note_on_c, 3, 80, 0
5, 50760, Note_on_c, 3, 80, 73
5, 50940, Note_on_c, 3, 81, 67
5, 50950, Note_on_c, 3, 80, 0
5, 51235, Note_on_c, 3, 83, 64
5, 51240, Note_on_c, 3, 81, 0
5, 51360, Note_on_c, 3, 85, 67
5, 51375, Note_on_c, 3, 83, 0
5, 51710, Note_on_c, 3, 85, 0
5, 56670, Note_on_c, 3, 42, 58
5, 56675, Note_on_c, 3, 61, 45
5, 56675, Note_on_c, 3, 57, 51
5, 56675, Note_on_c, 3, 66, 48
5, 56805, Note_on_c, 3, 66, 0
5, 56805, Note_on_c, 3, 57, 0
5, 56805, Note_on_c, 3, 61, 0
5, 56850, Note_on_c, 3, 61, 34
5, 56850, Note_on_c, 3, 57, 42
5, 56850, Note_on_c, 3, 66, 43
5, 56970, Note_on_c, 3, 66, 0
5, 56970, Note_on_c, 3, 57, 0
5, 56975, Note_on_c, 3, 61, 0
5, 57025, Note_on_c, 3, 61, 40
5, 57025, Note_on_c, 3, 57, 45
5, 57030, Note_on_c, 3, 66, 43
5, 57175, Note_on_c, 3, 57, 0
5, 57175, Note_on_c, 3, 61, 0
5, 57180, Note_on_c, 3, 66, 0
5, 57205, Note_on_c, 3, 61, 48
5, 57205, Note_on_c, 3, 57, 51
5, 57205, Note_on_c, 3, 66, 46
5, 57335, Note_on_c, 3, 66, 0
5, 57335, Note_on_c, 3, 57, 0
5, 57340, Note_on_c, 3, 61, 0
5, 57370, Note_on_c, 3, 61, 37
5, 57375, Note_on_c, 3, 57, 47
5, 57375, Note_on_c, 3, 66, 41
5, 57505, Note_on_c, 3, 66, 0
5, 57505, Note_on_c, 3, 57, 0
5, 57505, Note_on_c, 3, 61, 0
5, 57560, Note_on_c, 3, 61, 33
5, 57560, Note_on_c, 3, 57, 55
5, 57560, Note_on_c, 3, 66, 45
5, 57695, Note_on_c, 3, 66, 0
5, 57695, Note_on_c, 3, 57, 0
5, 57695, Note_on_c, 3, 61, 0
5, 57795, Note_on_c, 3, 61, 53
5, 57800, Note_on_c, 3, 57, 58
5, 57800, Note_on_c, 3, 66, 53
5, 58225, Note_on_c, 3, 57, 0
5, 58230, Note_on_c, 3, 66, 0
5, 58230, Note_on_c, 3, 61, 0
5, 58235, Note_on_c, 3, 42, 0
5, 58235, End_track
6, 0, Start_track
6, 0, MIDI_port, 0
6, 0, Title_t, "Flute"
6, 0, Program_c, 4, 73
6, 14760, Note_on_c, 4, 61, 46
6, 15025, Note_on_c, 4, 59, 55
6, 15030, Note_on_c, 4, 61, 0
6, 15050, Note_on_c, 4, 61, 58
6, 15050, Note_on_c, 4, 59, 0
6, 15070, Note_on_c, 4, 62, 45
6, 15070, Note_on_c, 4, 61, 0
6, 15090, Note_on_c, 4, 61, 51
6, 15100, Note_on_c, 4, 62, 0
6, 15120, Note_on_c, 4, 59, 51
6, 15125, Note_on_c, 4, 61, 0
6, 15160, Note_on_c, 4, 57, 45
6, 15160, Note_on_c, 4, 59, 0
6, 15180, Note_on_c, 4, 59, 51
6, 15185, Note_on_c, 4, 57, 0
6, 15400, Note_on_c, 4, 59, 0
6, 15430, Note_on_c, 4, 57, 62
6, 15455, Note_on_c, 4, 56, 43
6, 15460, Note_on_c, 4, 57, 0
6, 15475, Note_on_c, 4, 57, 56
6, 15480, Note_on_c, 4, 56, 0
6, 15985, Note_on_c, 4, 57, 0
6, 16060, Note_on_c, 4, 54, 45
6, 16070, Note_on_c, 4, 56, 58
6, 16080, Note_on_c, 4, 57, 48
6, 16080, Note_on_c, 4, 54, 0
6, 16090, Note_on_c, 4, 59, 62
6, 16095, Note_on_c, 4, 56, 0
6, 16100, Note_on_c, 4, 57, 0
6, 16110, Note_on_c, 4, 61, 66
6, 16110, Note_on_c, 4, 59, 0
6, 16130, Note_on_c, 4, 61, 0
6, 16135, Note_on_c, 4, 62, 67
6, 16155, Note_on_c, 4, 64, 51
6, 16155, Note_on_c, 4, 65, 38
6, 16165, Note_on_c, 4, 62, 0
6, 16180, Note_on_c, 4, 66, 67
6, 16180, Note_on_c, 4, 65, 0
6, 16185, Note_on_c, 4, 64, 0
6, 16465, Note_on_c, 4, 64, 62
6, 16470, Note_on_c, 4, 66, 0
6, 16485, Note_on_c, 4, 66, 56
6, 16490, Note_on_c, 4, 64, 0
6, 16505, Note_on_c, 4, 67, 56
6, 16505, Note_on_c, 4, 66, 0
6, 16530, Note_on_c, 4, 66, 55
6, 16535, Note_on_c, 4, 67, 0
6, 16555, Note_on_c, 4, 64, 48
6, 16570, Note_on_c, 4, 66, 0
6, 16840, Note_on_c, 4, 62, 37
6, 16850, Note_on_c, 4, 64, 0
6, 16870, Note_on_c, 4, 61, 48
6, 16870, Note_on_c, 4, 62, 0
6, 16900, Note_on_c, 4, 62, 45
6, 16905, Note_on_c, 4, 61, 0
6, 17525, Note_on_c, 4, 62, 0
6, 17580, Note_on_c, 4, 61, 56
6, 17595, Note_on_c, 4, 61, 0
6, 17600, Note_on_c, 4, 59, 52
6, 17635, Note_on_c, 4, 61, 84
6, 17640, Note_on_c, 4, 59, 0
6, 17825, Note_on_c, 4, 66, 73
6, 17830, Note_on_c, 4, 61, 0
6, 18000, Note_on_c, 4, 68, 68
6, 18010, Note_on_c, 4, 66, 0
6, 18290, Note_on_c, 4, 68, 0
6, 18295, Note_on_c, 4, 63, 71
6, 18360, Note_on_c, 4, 65, 58
6, 18370, Note_on_c, 4, 63, 0
6, 18925, Note_on_c, 4, 65, 0
6, 18955, Note_on_c, 4, 66, 95
6, 19015, Note_on_c, 4, 68, 82
6, 19020, Note_on_c, 4, 66, 0
6, 19080, Note_on_c, 4, 68, 0
6, 19085, Note_on_c, 4, 69, 87
6, 19260, Note_on_c, 4, 73, 91
6, 19270, Note_on_c, 4, 69, 0
6, 19440, Note_on_c, 4, 71, 60
6, 19455, Note_on_c, 4, 73, 0
6, 19730, Note_on_c, 4, 71, 0
6, 19735, Note_on_c, 4, 66, 62
6, 19805, Note_on_c, 4, 68, 46
6, 19810, Note_on_c, 4, 66, 0
6, 20310, Note_on_c, 4, 68, 0
6, 33480, Note_on_c, 4, 61, 46
6, 33745, Note_on_c, 4, 59, 55
6, 33750, Note_on_c, 4, 61, 0
6, 33770, Note_on_c, 4, 61, 58
6, 33770, Note_on_c, 4, 59, 0
6, 33790, Note_on_c, 4, 62, 45
6, 33790, Note_on_c, 4, 61, 0
6, 33810, Note_on_c, 4, 61, 51
6, 33820, Note_on_c, 4, 62, 0
6, 33840, Note_on_c, 4, 59, 51
6, 33845, Note_on_c, 4, 61, 0
6, 33880, Note_on_c, 4, 57, 45
6, 33880, Note_on_c, 4, 59, 0
6, 33900, Note_on_c, 4, 59, 51
6, 33905, Note_on_c, 4, 57, 0
6, 34120, Note_on_c, 4, 59, 0
6, 34150, Note_on_c, 4, 57, 62
6, 34175, Note_on_c, 4, 56, 43
6, 34180, Note_on_c, 4, 57, 0
6, 34195, Note_on_c, 4, 57, 56
6, 34200, Note_on_c, 4, 56, 0
6, 34705, Note_on_c, 4, 57, 0
6, 34780, Note_on_c, 4, 54, 45
6, 34790, Note_on_c, 4, 56, 58
6, 34800, Note_on_c, 4, 57, 48
6, 34800, Note_on_c, 4, 54, 0
6, 34810, Note_on_c, 4, 59, 62
6, 34815, Note_on_c, 4, 56, 0
6, 34820, Note_on_c, 4, 57, 0
6, 34830, Note_on_c, 4, 61, 66
6, 34830, Note_on_c, 4, 59, 0
6, 34850, Note_on_c, 4, 61, 0
6, 34855, Note_on_c, 4, 62, 67
6, 34875, Note_on_c, 4, 64, 51
6, 34875, Note_on_c, 4, 65, 38
6, 34885, Note_on_c, 4, 62, 0
6, 34900, Note_on_c, 4, 66, 67
6, 34900, Note_on_c, 4, 65, 0
6, 34905, Note_on_c, 4, 64, 0
6, 35185, Note_on_c, 4, 64, 62
6, 35190, Note_on_c, 4, 66, 0
6, 35205, Note_on_c, 4, 66, 56
6, 35210, Note_on_c, 4, 64, 0
6, 35225, Note_on_c, 4, 67, 56
6, 35225, Note_on_c, 4, 66, 0
6, 35250, Note_on_c, 4, 66, 55
6, 35255, Note_on_c, 4, 67, 0
6, 35275, Note_on_c, 4, 64, 48
6, 35290, Note_on_c, 4, 66, 0
6, 35560, Note_on_c, 4, 62, 37
6, 35570, Note_on_c, 4, 64, 0
6, 35590, Note_on_c, 4, 61, 48
6, 35590, Note_on_c, 4, 62, 0
6, 35620, Note_on_c, 4, 62, 45
6, 35625, Note_on_c, 4, 61, 0
6, 36245, Note_on_c, 4, 62, 0
6, 36300, Note_on_c, 4, 61, 56
6, 36315, Note_on_c, 4, 61, 0
6, 36320, Note_on_c, 4, 59, 52
6, 36355, Note_on_c, 4, 61, 84
6, 36360, Note_on_c, 4, 59, 0
6, 36545, Note_on_c, 4, 66, 73
6, 36550, Note_on_c, 4, 61, 0
6, 36720, Note_on_c, 4, 68, 68
6, 36730, Note_on_c, 4, 66, 0
6, 37010, Note_on_c, 4, 68, 0
6, 37015, Note_on_c, 4, 63, 71
6, 37080, Note_on_c, 4, 65, 58
6, 37090, Note_on_c, 4, 63, 0
6, 37645, Note_on_c, 4, 65, 0
6, 37675, Note_on_c, 4, 66, 95
6, 37735, Note_on_c, 4, 68, 82
6, 37740, Note_on_c, 4, 66, 0
6, 37800, Note_on_c, 4, 68, 0
6, 37805, Note_on_c, 4, 69, 87
6, 37980, Note_on_c, 4, 73, 91
6, 37990, Note_on_c, 4, 69, 0
6, 38160, Note_on_c, 4, 71, 60
6, 38175, Note_on_c, 4, 73, 0
6, 38450, Note_on_c, 4, 71, 0
6, 38455, Note_on_c, 4, 66, 62
6, 38525, Note_on_c, 4, 68, 46
6, 38530, Note_on_c, 4, 66, 0
6, 39030, Note_on_c, 4, 68, 0
6, 39030, End_track
7, 0, Start_track
7, 0, MIDI_port, 0
7, 0, Title_t, "Baz"
7, 0, Program_c, 5, 33
7, 7560, Note_on_c, 5, 42, 99
7, 8069, Note_on_c, 5, 42, 0
7, 8100, Note_on_c, 5, 42, 99
7, 8279, Note_on_c, 5, 42, 0
7, 8280, Note_on_c, 5, 40, 99
7, 8999, Note_on_c, 5, 40, 0
7, 9000, Note_on_c, 5, 38, 104
7, 9720, Note_on_c, 5, 35, 104
7, 9749, Note_on_c, 5, 38, 0
7, 10049, Note_on_c, 5, 35, 0
7, 10080, Note_on_c, 5, 40, 91
7, 10439, Note_on_c, 5, 40, 0
7, 10440, Note_on_c, 5, 33, 93
7, 11159, Note_on_c, 5, 33, 0
7, 11160, Note_on_c, 5, 38, 99
7, 11879, Note_on_c, 5, 38, 0
7, 11880, Note_on_c, 5, 32, 104
7, 12599, Note_on_c, 5, 32, 0
7, 12600, Note_on_c, 5, 37, 99
7, 13319, Note_on_c, 5, 37, 0
7, 13320, Note_on_c, 5, 30, 84
7, 13860, Note_on_c, 5, 37, 68
7, 13919, Note_on_c, 5, 37, 0
7, 13919, Note_on_c, 5, 30, 0
7, 13920, Note_on_c, 5, 42, 76
7, 13979, Note_on_c, 5, 42, 0
7, 13980, Note_on_c, 5, 37, 76
7, 14039, Note_on_c, 5, 37, 0
7, 14040, Note_on_c, 5, 30, 82
7, 14699, Note_on_c, 5, 30, 0
7, 14760, Note_on_c, 5, 33, 88
7, 15029, Note_on_c, 5, 33, 0
7, 15060, Note_on_c, 5, 33, 87
7, 15119, Note_on_c, 5, 33, 0
7, 15120, Note_on_c, 5, 32, 87
7, 15479, Note_on_c, 5, 32, 0
7, 15480, Note_on_c, 5, 30, 83
7, 15749, Note_on_c, 5, 30, 0
7, 15780, Note_on_c, 5, 30, 84
7, 15839, Note_on_c, 5, 30, 0
7, 15840, Note_on_c, 5, 28, 84
7, 16199, Note_on_c, 5, 28, 0
7, 16200, Note_on_c, 5, 38, 87
7, 16469, Note_on_c, 5, 38, 0
7, 16500, Note_on_c, 5, 38, 88
7, 16559, Note_on_c, 5, 38, 0
7, 16560, Note_on_c, 5, 37, 93
7, 16919, Note_on_c, 5, 37, 0
7, 16920, Note_on_c, 5, 35, 87
7, 17189, Note_on_c, 5, 35, 0
7, 17220, Note_on_c, 5, 30, 82
7, 17279, Note_on_c, 5, 30, 0
7, 17280, Note_on_c, 5, 35, 87
7, 17489, Note_on_c, 5, 35, 0
7, 17520, Note_on_c, 5, 35, 88
7, 17639, Note_on_c, 5, 35, 0
7, 17640, Note_on_c, 5, 33, 84
7, 17909, Note_on_c, 5, 33, 0
7, 17940, Note_on_c, 5, 33, 87
7, 18000, Note_on_c, 5, 32, 99
7, 18029, Note_on_c, 5, 33, 0
7, 18269, Note_on_c, 5, 32, 0
7, 18300, Note_on_c, 5, 32, 87
7, 18360, Note_on_c, 5, 37, 91
7, 18389, Note_on_c, 5, 32, 0
7, 18689, Note_on_c, 5, 37, 0
7, 18720, Note_on_c, 5, 37, 102
7, 18959, Note_on_c, 5, 37, 0
7, 18960, Note_on_c, 5, 32, 102
7, 19079, Note_on_c, 5, 32, 0
7, 19080, Note_on_c, 5, 30, 93
7, 19349, Note_on_c, 5, 30, 0
7, 19380, Note_on_c, 5, 30, 93
7, 19439, Note_on_c, 5, 30, 0
7, 19440, Note_on_c, 5, 35, 87
7, 19709, Note_on_c, 5, 35, 0
7, 19740, Note_on_c, 5, 35, 73
7, 19800, Note_on_c, 5, 37, 86
7, 19829, Note_on_c, 5, 35, 0
7, 20219, Note_on_c, 5, 37, 0
7, 20520, Note_on_c, 5, 42, 93
7, 20549, Note_on_c, 5, 42, 0
7, 20580, Note_on_c, 5, 42, 55
7, 20609, Note_on_c, 5, 42, 0
7, 20640, Note_on_c, 5, 42, 82
7, 20669, Note_on_c, 5, 42, 0
7, 20700, Note_on_c, 5, 42, 49
7, 20729, Note_on_c, 5, 42, 0
7, 20760, Note_on_c, 5, 42, 87
7, 20789, Note_on_c, 5, 42, 0
7, 20820, Note_on_c, 5, 42, 35
7, 20849, Note_on_c, 5, 42, 0
7, 20880, Note_on_c, 5, 42, 82
7, 20939, Note_on_c, 5, 42, 0
7, 20940, Note_on_c, 5, 42, 58
7, 20999, Note_on_c, 5, 42, 0
7, 21000, Note_on_c, 5, 42, 91
7, 21029, Note_on_c, 5, 42, 0
7, 21060, Note_on_c, 5, 42, 48
7, 21119, Note_on_c, 5, 42, 0
7, 21120, Note_on_c, 5, 42, 88
7, 21179, Note_on_c, 5, 42, 0
7, 21180, Note_on_c, 5, 42, 48
7, 21239, Note_on_c, 5, 42, 0
7, 21240, Note_on_c, 5, 40, 88
7, 21269, Note_on_c, 5, 40, 0
7, 21300, Note_on_c, 5, 40, 65
7, 21359, Note_on_c, 5, 40, 0
7, 21360, Note_on_c, 5, 40, 91
7, 21389, Note_on_c, 5, 40, 0
7, 21420, Note_on_c, 5, 40, 46
7, 21479, Note_on_c, 5, 40, 0
7, 21480, Note_on_c, 5, 40, 84
7, 21539, Note_on_c, 5, 40, 0
7, 21540, Note_on_c, 5, 40, 48
7, 21599, Note_on_c, 5, 40, 0
7, 21600, Note_on_c, 5, 40, 89
7, 21659, Note_on_c, 5, 40, 0
7, 21660, Note_on_c, 5, 40, 44
7, 21719, Note_on_c, 5, 40, 0
7, 21720, Note_on_c, 5, 40, 87
7, 21749, Note_on_c, 5, 40, 0
7, 21780, Note_on_c, 5, 40, 66
7, 21839, Note_on_c, 5, 40, 0
7, 21840, Note_on_c, 5, 40, 91
7, 21869, Note_on_c, 5, 40, 0
7, 21900, Note_on_c, 5, 40, 68
7, 21959, Note_on_c, 5, 40, 0
7, 21960, Note_on_c, 5, 38, 93
7, 22019, Note_on_c, 5, 38, 0
7, 22020, Note_on_c, 5, 38, 52
7, 22049, Note_on_c, 5, 38, 0
7, 22080, Note_on_c, 5, 38, 87
7, 22139, Note_on_c, 5, 38, 0
7, 22140, Note_on_c, 5, 38, 67
7, 22199, Note_on_c, 5, 38, 0
7, 22200, Note_on_c, 5, 38, 88
7, 22229, Note_on_c, 5, 38, 0
7, 22260, Note_on_c, 5, 38, 50
7, 22319, Note_on_c, 5, 38, 0
7, 22320, Note_on_c, 5, 38, 84
7, 22379, Note_on_c, 5, 38, 0
7, 22380, Note_on_c, 5, 38, 62
7, 22439, Note_on_c, 5, 38, 0
7, 22440, Note_on_c, 5, 38, 88
7, 22499, Note_on_c, 5, 38, 0
7, 22500, Note_on_c, 5, 38, 65
7, 22559, Note_on_c, 5, 38, 0
7, 22560, Note_on_c, 5, 38, 86
7, 22619, Note_on_c, 5, 38, 0
7, 22620, Note_on_c, 5, 38, 58
7, 22679, Note_on_c, 5, 38, 0
7, 22680, Note_on_c, 5, 35, 81
7, 22739, Note_on_c, 5, 35, 0
7, 22740, Note_on_c, 5, 35, 61
7, 22799, Note_on_c, 5, 35, 0
7, 22800, Note_on_c, 5, 35, 80
7, 22859, Note_on_c, 5, 35, 0
7, 22860, Note_on_c, 5, 35, 45
7, 22919, Note_on_c, 5, 35, 0
7, 22920, Note_on_c, 5, 35, 76
7, 22979, Note_on_c, 5, 35, 0
7, 22980, Note_on_c, 5, 35, 68
7, 23039, Note_on_c, 5, 35, 0
7, 23040, Note_on_c, 5, 40, 88
7, 23099, Note_on_c, 5, 40, 0
7, 23100, Note_on_c, 5, 40, 67
7, 23159, Note_on_c, 5, 40, 0
7, 23160, Note_on_c, 5, 40, 88
7, 23219, Note_on_c, 5, 40, 0
7, 23220, Note_on_c, 5, 40, 65
7, 23279, Note_on_c, 5, 40, 0
7, 23280, Note_on_c, 5, 40, 87
7, 23339, Note_on_c, 5, 40, 0
7, 23340, Note_on_c, 5, 40, 76
7, 23399, Note_on_c, 5, 40, 0
7, 23400, Note_on_c, 5, 33, 80
7, 23459, Note_on_c, 5, 33, 0
7, 23460, Note_on_c, 5, 33, 56
7, 23519, Note_on_c, 5, 33, 0
7, 23520, Note_on_c, 5, 33, 82
7, 23579, Note_on_c, 5, 33, 0
7, 23580, Note_on_c, 5, 33, 66
7, 23639, Note_on_c, 5, 33, 0
7, 23640, Note_on_c, 5, 33, 86
7, 23699, Note_on_c, 5, 33, 0
7, 23700, Note_on_c, 5, 33, 62
7, 23759, Note_on_c, 5, 33, 0
7, 23760, Note_on_c, 5, 33, 87
7, 23819, Note_on_c, 5, 33, 0
7, 23820, Note_on_c, 5, 33, 44
7, 23879, Note_on_c, 5, 33, 0
7, 23880, Note_on_c, 5, 33, 82
7, 23939, Note_on_c, 5, 33, 0
7, 23940, Note_on_c, 5, 33, 62
7, 23999, Note_on_c, 5, 33, 0
7, 24000, Note_on_c, 5, 33, 86
7, 24059, Note_on_c, 5, 33, 0
7, 24060, Note_on_c, 5, 33, 67
7, 24089, Note_on_c, 5, 33, 0
7, 24120, Note_on_c, 5, 38, 87
7, 24179, Note_on_c, 5, 38, 0
7, 24180, Note_on_c, 5, 38, 61
7, 24239, Note_on_c, 5, 38, 0
7, 24240, Note_on_c, 5, 38, 86
7, 24299, Note_on_c, 5, 38, 0
7, 24300, Note_on_c, 5, 38, 62
7, 24359, Note_on_c, 5, 38, 0
7, 24360, Note_on_c, 5, 38, 88
7, 24419, Note_on_c, 5, 38, 0
7, 24420, Note_on_c, 5, 38, 65
7, 24479, Note_on_c, 5, 38, 0
7, 24480, Note_on_c, 5, 32, 88
7, 24539, Note_on_c, 5, 32, 0
7, 24540, Note_on_c, 5, 32, 45
7, 24599, Note_on_c, 5, 32, 0
7, 24600, Note_on_c, 5, 32, 68
7, 24659, Note_on_c, 5, 32, 0
7, 24660, Note_on_c, 5, 32, 48
7, 24719, Note_on_c, 5, 32, 0
7, 24720, Note_on_c, 5, 32, 81
7, 24779, Note_on_c, 5, 32, 0
7, 24780, Note_on_c, 5, 32, 63
7, 24839, Note_on_c, 5, 32, 0
7, 24840, Note_on_c, 5, 37, 82
7, 24899, Note_on_c, 5, 37, 0
7, 24900, Note_on_c, 5, 37, 56
7, 24959, Note_on_c, 5, 37, 0
7, 24960, Note_on_c, 5, 37, 77
7, 25019, Note_on_c, 5, 37, 0
7, 25020, Note_on_c, 5, 37, 58
7, 25079, Note_on_c, 5, 37, 0
7, 25080, Note_on_c, 5, 37, 82
7, 25139, Note_on_c, 5, 37, 0
7, 25140, Note_on_c, 5, 37, 65
7, 25199, Note_on_c, 5, 37, 0
7, 25200, Note_on_c, 5, 37, 84
7, 25259, Note_on_c, 5, 37, 0
7, 25260, Note_on_c, 5, 37, 66
7, 25319, Note_on_c, 5, 37, 0
7, 25320, Note_on_c, 5, 37, 88
7, 25379, Note_on_c, 5, 37, 0
7, 25380, Note_on_c, 5, 37, 62
7, 25439, Note_on_c, 5, 37, 0
7, 25440, Note_on_c, 5, 37, 81
7, 25499, Note_on_c, 5, 37, 0
7, 25500, Note_on_c, 5, 37, 56
7, 25559, Note_on_c, 5, 37, 0
7, 25560, Note_on_c, 5, 37, 80
7, 25619, Note_on_c, 5, 37, 0
7, 25620, Note_on_c, 5, 37, 66
7, 25679, Note_on_c, 5, 37, 0
7, 25680, Note_on_c, 5, 37, 84
7, 25739, Note_on_c, 5, 37, 0
7, 25740, Note_on_c, 5, 37, 62
7, 25799, Note_on_c, 5, 37, 0
7, 25800, Note_on_c, 5, 37, 87
7, 25859, Note_on_c, 5, 37, 0
7, 25860, Note_on_c, 5, 37, 66
7, 25919, Note_on_c, 5, 37, 0
7, 25920, Note_on_c, 5, 37, 78
7, 25979, Note_on_c, 5, 37, 0
7, 25980, Note_on_c, 5, 37, 68
7, 26039, Note_on_c, 5, 37, 0
7, 26040, Note_on_c, 5, 37, 83
7, 26099, Note_on_c, 5, 37, 0
7, 26100, Note_on_c, 5, 37, 52
7, 26159, Note_on_c, 5, 37, 0
7, 26160, Note_on_c, 5, 37, 78
7, 26219, Note_on_c, 5, 37, 0
7, 26220, Note_on_c, 5, 37, 60
7, 26249, Note_on_c, 5, 37, 0
7, 26280, Note_on_c, 5, 42, 99
7, 26789, Note_on_c, 5, 42, 0
7, 26820, Note_on_c, 5, 42, 99
7, 26999, Note_on_c, 5, 42, 0
7, 27000, Note_on_c, 5, 40, 99
7, 27719, Note_on_c, 5, 40, 0
7, 27720, Note_on_c, 5, 38, 104
7, 28440, Note_on_c, 5, 35, 104
7, 28469, Note_on_c, 5, 38, 0
7, 28769, Note_on_c, 5, 35, 0
7, 28800, Note_on_c, 5, 40, 91
7, 29159, Note_on_c, 5, 40, 0
7, 29160, Note_on_c, 5, 33, 93
7, 29879, Note_on_c, 5, 33, 0
7, 29880, Note_on_c, 5, 38, 99
7, 30599, Note_on_c, 5, 38, 0
7, 30600, Note_on_c, 5, 32, 104
7, 31319, Note_on_c, 5, 32, 0
7, 31320, Note_on_c, 5, 37, 99
7, 32039, Note_on_c, 5, 37, 0
7, 32040, Note_on_c, 5, 30, 84
7, 32580, Note_on_c, 5, 37, 68
7, 32639, Note_on_c, 5, 37, 0
7, 32639, Note_on_c, 5, 30, 0
7, 32640, Note_on_c, 5, 42, 76
7, 32699, Note_on_c, 5, 42, 0
7, 32700, Note_on_c, 5, 37, 76
7, 32759, Note_on_c, 5, 37, 0
7, 32760, Note_on_c, 5, 30, 82
7, 33419, Note_on_c, 5, 30, 0
7, 33480, Note_on_c, 5, 33, 88
7, 33749, Note_on_c, 5, 33, 0
7, 33780, Note_on_c, 5, 33, 87
7, 33839, Note_on_c, 5, 33, 0
7, 33840, Note_on_c, 5, 32, 87
7, 34199, Note_on_c, 5, 32, 0
7, 34200, Note_on_c, 5, 30, 83
7, 34469, Note_on_c, 5, 30, 0
7, 34500, Note_on_c, 5, 30, 84
7, 34559, Note_on_c, 5, 30, 0
7, 34560, Note_on_c, 5, 28, 84
7, 34919, Note_on_c, 5, 28, 0
7, 34920, Note_on_c, 5, 38, 87
7, 35189, Note_on_c, 5, 38, 0
7, 35220, Note_on_c, 5, 38, 88
7, 35279, Note_on_c, 5, 38, 0
7, 35280, Note_on_c, 5, 37, 93
7, 35639, Note_on_c, 5, 37, 0
7, 35640, Note_on_c, 5, 35, 87
7, 35909, Note_on_c, 5, 35, 0
7, 35940, Note_on_c, 5, 30, 82
7, 35999, Note_on_c, 5, 30, 0
7, 36000, Note_on_c, 5, 35, 87
7, 36209, Note_on_c, 5, 35, 0
7, 36240, Note_on_c, 5, 35, 88
7, 36359, Note_on_c, 5, 35, 0
7, 36360, Note_on_c, 5, 33, 84
7, 36629, Note_on_c, 5, 33, 0
7, 36660, Note_on_c, 5, 33, 87
7, 36720, Note_on_c, 5, 32, 99
7, 36749, Note_on_c, 5, 33, 0
7, 36989, Note_on_c, 5, 32, 0
7, 37020, Note_on_c, 5, 32, 87
7, 37080, Note_on_c, 5, 37, 91
7, 37109, Note_on_c, 5, 32, 0
7, 37409, Note_on_c, 5, 37, 0
7, 37440, Note_on_c, 5, 37, 102
7, 37679, Note_on_c, 5, 37, 0
7, 37680, Note_on_c, 5, 32, 102
7, 37799, Note_on_c, 5, 32, 0
7, 37800, Note_on_c, 5, 30, 93
7, 38069, Note_on_c, 5, 30, 0
7, 38100, Note_on_c, 5, 30, 93
7, 38159, Note_on_c, 5, 30, 0
7, 38160, Note_on_c, 5, 35, 87
7, 38429, Note_on_c, 5, 35, 0
7, 38460, Note_on_c, 5, 35, 73
7, 38520, Note_on_c, 5, 37, 86
7, 38549, Note_on_c, 5, 35, 0
7, 38939, Note_on_c, 5, 37, 0
7, 39240, Note_on_c, 5, 42, 93
7, 39269, Note_on_c, 5, 42, 0
7, 39300, Note_on_c, 5, 42, 55
7, 39329, Note_on_c, 5, 42, 0
7, 39360, Note_on_c, 5, 42, 82
7, 39389, Note_on_c, 5, 42, 0
7, 39420, Note_on_c, 5, 42, 49
7, 39449, Note_on_c, 5, 42, 0
7, 39480, Note_on_c, 5, 42, 87
7, 39509, Note_on_c, 5, 42, 0
7, 39540, Note_on_c, 5, 42, 35
7, 39569, Note_on_c, 5, 42, 0
7, 39600, Note_on_c, 5, 42, 82
7, 39659, Note_on_c, 5, 42, 0
7, 39660, Note_on_c, 5, 42, 58
7, 39719, Note_on_c, 5, 42, 0
7, 39720, Note_on_c, 5, 42, 91
7, 39749, Note_on_c, 5, 42, 0
7, 39780, Note_on_c, 5, 42, 48
7, 39839, Note_on_c, 5, 42, 0
7, 39840, Note_on_c, 5, 42, 88
7, 39899, Note_on_c, 5, 42, 0
7, 39900, Note_on_c, 5, 42, 48
7, 39959, Note_on_c, 5, 42, 0
7, 39960, Note_on_c, 5, 40, 88
7, 39989, Note_on_c, 5, 40, 0
7, 40020, Note_on_c, 5, 40, 65
7, 40079, Note_on_c, 5, 40, 0
7, 40080, Note_on_c, 5, 40, 91
7, 40109, Note_on_c, 5, 40, 0
7, 40140, Note_on_c, 5, 40, 46
7, 40199, Note_on_c, 5, 40, 0
7, 40200, Note_on_c, 5, 40, 84
7, 40259, Note_on_c, 5, 40, 0
7, 40260, Note_on_c, 5, 40, 48
7, 40319, Note_on_c, 5, 40, 0
7, 40320, Note_on_c, 5, 40, 89
7, 40379, Note_on_c, 5, 40, 0
7, 40380, Note_on_c, 5, 40, 44
7, 40439, Note_on_c, 5, 40, 0
7, 40440, Note_on_c, 5, 40, 87
7, 40469, Note_on_c, 5, 40, 0
7, 40500, Note_on_c, 5, 40, 66
7, 40559, Note_on_c, 5, 40, 0
7, 40560, Note_on_c, 5, 40, 91
7, 40589, Note_on_c, 5, 40, 0
7, 40620, Note_on_c, 5, 40, 68
7, 40679, Note_on_c, 5, 40, 0
7, 40680, Note_on_c, 5, 38, 93
7, 40739, Note_on_c, 5, 38, 0
7, 40740, Note_on_c, 5, 38, 52
7, 40769, Note_on_c, 5, 38, 0
7, 40800, Note_on_c, 5, 38, 87
7, 40859, Note_on_c, 5, 38, 0
7, 40860, Note_on_c, 5, 38, 67
7, 40919, Note_on_c, 5, 38, 0
7, 40920, Note_on_c, 5, 38, 88
7, 40949, Note_on_c, 5, 38, 0
7, 40980, Note_on_c, 5, 38, 50
7, 41039, Note_on_c, 5, 38, 0
7, 41040, Note_on_c, 5, 38, 84
7, 41099, Note_on_c, 5, 38, 0
7, 41100, Note_on_c, 5, 38, 62
7, 41159, Note_on_c, 5, 38, 0
7, 41160, Note_on_c, 5, 38, 88
7, 41219, Note_on_c, 5, 38, 0
7, 41220, Note_on_c, 5, 38, 65
7, 41279, Note_on_c, 5, 38, 0
7, 41280, Note_on_c, 5, 38, 86
7, 41339, Note_on_c, 5, 38, 0
7, 41340, Note_on_c, 5, 38, 58
7, 41399, Note_on_c, 5, 38, 0
7, 41400, Note_on_c, 5, 35, 81
7, 41459, Note_on_c, 5, 35, 0
7, 41460, Note_on_c, 5, 35, 61
7, 41519, Note_on_c, 5, 35, 0
7, 41520, Note_on_c, 5, 35, 80
7, 41579, Note_on_c, 5, 35, 0
7, 41580, Note_on_c, 5, 35, 45
7, 41639, Note_on_c, 5, 35, 0
7, 41640, Note_on_c, 5, 35, 76
7, 41699, Note_on_c, 5, 35, 0
7, 41700, Note_on_c, 5, 35, 68
7, 41759, Note_on_c, 5, 35, 0
7, 41760, Note_on_c, 5, 40, 88
7, 41819, Note_on_c, 5, 40, 0
7, 41820, Note_on_c, 5, 40, 67
7, 41879, Note_on_c, 5, 40, 0
7, 41880, Note_on_c, 5, 40, 88
7, 41939, Note_on_c, 5, 40, 0
7, 41940, Note_on_c, 5, 40, 65
7, 41999, Note_on_c, 5, 40, 0
7, 42000, Note_on_c, 5, 40, 87
7, 42059, Note_on_c, 5, 40, 0
7, 42060, Note_on_c, 5, 40, 76
7, 42119, Note_on_c, 5, 40, 0
7, 42120, Note_on_c, 5, 33, 80
7, 42179, Note_on_c, 5, 33, 0
7, 42180, Note_on_c, 5, 33, 56
7, 42239, Note_on_c, 5, 33, 0
7, 42240, Note_on_c, 5, 33, 82
7, 42299, Note_on_c, 5, 33, 0
7, 42300, Note_on_c, 5, 33, 66
7, 42359, Note_on_c, 5, 33, 0
7, 42360, Note_on_c, 5, 33, 86
7, 42419, Note_on_c, 5, 33, 0
7, 42420, Note_on_c, 5, 33, 62
7, 42479, Note_on_c, 5, 33, 0
7, 42480, Note_on_c, 5, 33, 87
7, 42539, Note_on_c, 5, 33, 0
7, 42540, Note_on_c, 5, 33, 44
7, 42599, Note_on_c, 5, 33, 0
7, 42600, Note_on_c, 5, 33, 82
7, 42659, Note_on_c, 5, 33, 0
7, 42660, Note_on_c, 5, 33, 62
7, 42719, Note_on_c, 5, 33, 0
7, 42720, Note_on_c, 5, 33, 86
7, 42779, Note_on_c, 5, 33, 0
7, 42780, Note_on_c, 5, 33, 67
7, 42809, Note_on_c, 5, 33, 0
7, 42840, Note_on_c, 5, 38, 87
7, 42899, Note_on_c, 5, 38, 0
7, 42900, Note_on_c, 5, 38, 61
7, 42959, Note_on_c, 5, 38, 0
7, 42960, Note_on_c, 5, 38, 86
7, 43019, Note_on_c, 5, 38, 0
7, 43020, Note_on_c, 5, 38, 62
7, 43079, Note_on_c, 5, 38, 0
7, 43080, Note_on_c, 5, 38, 88
7, 43139, Note_on_c, 5, 38, 0
7, 43140, Note_on_c, 5, 38, 65
7, 43199, Note_on_c, 5, 38, 0
7, 43200, Note_on_c, 5, 32, 88
7, 43259, Note_on_c, 5, 32, 0
7, 43260, Note_on_c, 5, 32, 45
7, 43319, Note_on_c, 5, 32, 0
7, 43320, Note_on_c, 5, 32, 68
7, 43379, Note_on_c, 5, 32, 0
7, 43380, Note_on_c, 5, 32, 48
7, 43439, Note_on_c, 5, 32, 0
7, 43440, Note_on_c, 5, 32, 81
7, 43499, Note_on_c, 5, 32, 0
7, 43500, Note_on_c, 5, 32, 63
7, 43559, Note_on_c, 5, 32, 0
7, 43560, Note_on_c, 5, 37, 82
7, 43619, Note_on_c, 5, 37, 0
7, 43620, Note_on_c, 5, 37, 56
7, 43679, Note_on_c, 5, 37, 0
7, 43680, Note_on_c, 5, 37, 77
7, 43739, Note_on_c, 5, 37, 0
7, 43740, Note_on_c, 5, 37, 58
7, 43799, Note_on_c, 5, 37, 0
7, 43800, Note_on_c, 5, 37, 82
7, 43859, Note_on_c, 5, 37, 0
7, 43860, Note_on_c, 5, 37, 65
7, 43919, Note_on_c, 5, 37, 0
7, 43920, Note_on_c, 5, 37, 84
7, 43979, Note_on_c, 5, 37, 0
7, 43980, Note_on_c, 5, 37, 66
7, 44039, Note_on_c, 5, 37, 0
7, 44040, Note_on_c, 5, 37, 88
7, 44099, Note_on_c, 5, 37, 0
7, 44100, Note_on_c, 5, 37, 62
7, 44159, Note_on_c, 5, 37, 0
7, 44160, Note_on_c, 5, 37, 81
7, 44219, Note_on_c, 5, 37, 0
7, 44220, Note_on_c, 5, 37, 56
7, 44279, Note_on_c, 5, 37, 0
7, 44280, Note_on_c, 5, 37, 80
7, 44339, Note_on_c, 5, 37, 0
7, 44340, Note_on_c, 5, 37, 66
7, 44399, Note_on_c, 5, 37, 0
7, 44400, Note_on_c, 5, 37, 84
7, 44459, Note_on_c, 5, 37, 0
7, 44460, Note_on_c, 5, 37, 62
7, 44519, Note_on_c, 5, 37, 0
7, 44520, Note_on_c, 5, 37, 87
7, 44579, Note_on_c, 5, 37, 0
7, 44580, Note_on_c, 5, 37, 66
7, 44639, Note_on_c, 5, 37, 0
7, 44640, Note_on_c, 5, 37, 78
7, 44699, Note_on_c, 5, 37, 0
7, 44700, Note_on_c, 5, 37, 68
7, 44759, Note_on_c, 5, 37, 0
7, 44760, Note_on_c, 5, 37, 83
7, 44819, Note_on_c, 5, 37, 0
7, 44820, Note_on_c, 5, 37, 52
7, 44879, Note_on_c, 5, 37, 0
7, 44880, Note_on_c, 5, 37, 78
7, 44939, Note_on_c, 5, 37, 0
7, 44940, Note_on_c, 5, 37, 60
7, 44969, Note_on_c, 5, 37, 0
7, 45000, Note_on_c, 5, 42, 99
7, 45509, Note_on_c, 5, 42, 0
7, 45540, Note_on_c, 5, 42, 99
7, 45719, Note_on_c, 5, 42, 0
7, 45720, Note_on_c, 5, 40, 99
7, 46439, Note_on_c, 5, 40, 0
7, 46440, Note_on_c, 5, 38, 104
7, 47160, Note_on_c, 5, 35, 104
7, 47189, Note_on_c, 5, 38, 0
7, 47489, Note_on_c, 5, 35, 0
7, 47520, Note_on_c, 5, 40, 91
7, 47879, Note_on_c, 5, 40, 0
7, 47880, Note_on_c, 5, 33, 93
7, 48599, Note_on_c, 5, 33, 0
7, 48600, Note_on_c, 5, 38, 99
7, 49319, Note_on_c, 5, 38, 0
7, 49320, Note_on_c, 5, 32, 104
7, 50039, Note_on_c, 5, 32, 0
7, 50040, Note_on_c, 5, 37, 99
7, 50759, Note_on_c, 5, 37, 0
7, 50760, Note_on_c, 5, 30, 84
7, 51300, Note_on_c, 5, 37, 68
7, 51359, Note_on_c, 5, 37, 0
7, 51359, Note_on_c, 5, 30, 0
7, 51360, Note_on_c, 5, 42, 76
7, 51419, Note_on_c, 5, 42, 0
7, 51420, Note_on_c, 5, 37, 76
7, 51479, Note_on_c, 5, 37, 0
7, 51480, Note_on_c, 5, 40, 84
7, 52049, Note_on_c, 5, 40, 0
7, 52080, Note_on_c, 5, 40, 86
7, 52140, Pitch_bend_c, 5, 8064
7, 52140, Pitch_bend_c, 5, 7936
7, 52140, Pitch_bend_c, 5, 7680
7, 52199, Note_on_c, 5, 40, 0
7, 52200, Pitch_bend_c, 5, 7296
7, 52200, Pitch_bend_c, 5, 7168
7, 52200, Pitch_bend_c, 5, 6912
7, 52200, Pitch_bend_c, 5, 6656
7, 52200, Pitch_bend_c, 5, 6400
7, 52200, Pitch_bend_c, 5, 6144
7, 52200, Pitch_bend_c, 5, 6016
7, 52200, Pitch_bend_c, 5, 5632
7, 52200, Pitch_bend_c, 5, 5376
7, 52200, Pitch_bend_c, 5, 5120
7, 52200, Pitch_bend_c, 5, 4864
7, 52200, Pitch_bend_c, 5, 4736
7, 52200, Pitch_bend_c, 5, 4992
7, 52200, Pitch_bend_c, 5, 6400
7, 52200, Pitch_bend_c, 5, 7680
7, 52200, Pitch_bend_c, 5, 8192
7, 52200, Note_on_c, 5, 38, 82
7, 52919, Note_on_c, 5, 38, 0
7, 52920, Note_on_c, 5, 37, 72
7, 53520, Note_on_c, 5, 38, 65
7, 53549, Note_on_c, 5, 37, 0
7, 53579, Note_on_c, 5, 38, 0
7, 53580, Note_on_c, 5, 37, 77
7, 53639, Note_on_c, 5, 37, 0
7, 53640, Note_on_c, 5, 35, 80
7, 54269, Note_on_c, 5, 35, 0
7, 54300, Note_on_c, 5, 35, 77
7, 54359, Note_on_c, 5, 35, 0
7, 54360, Note_on_c, 5, 33, 84
7, 55080, Note_on_c, 5, 32, 81
7, 55109, Note_on_c, 5, 33, 0
7, 55830, Note_on_c, 5, 31, 63
7, 55859, Note_on_c, 5, 32, 0
7, 56579, Note_on_c, 5, 31, 0
7, 56670, Note_on_c, 5, 30, 75
7, 58229, Note_on_c, 5, 30, 0
7, 58229, End_track
8, 0, Start_track
8, 0, MIDI_port, 0
8, 0, Title_t, "Oboe"
8, 0, Program_c, 6, 68
8, 14760, Note_on_c, 6, 73, 46
8, 15015, Note_on_c, 6, 71, 57
8, 15025, Note_on_c, 6, 73, 0
8, 15040, Note_on_c, 6, 73, 48
8, 15040, Note_on_c, 6, 71, 0
8, 15060, Note_on_c, 6, 73, 0
8, 15065, Note_on_c, 6, 74, 56
8, 15085, Note_on_c, 6, 73, 50
8, 15095, Note_on_c, 6, 74, 0
8, 15115, Note_on_c, 6, 71, 47
8, 15130, Note_on_c, 6, 73, 0
8, 15415, Note_on_c, 6, 71, 0
8, 15425, Note_on_c, 6, 69, 47
8, 15450, Note_on_c, 6, 68, 48
8, 15455, Note_on_c, 6, 69, 0
8, 15480, Note_on_c, 6, 69, 35
8, 15485, Note_on_c, 6, 68, 0
8, 16030, Note_on_c, 6, 69, 0
8, 16075, Note_on_c, 6, 66, 53
8, 16085, Note_on_c, 6, 68, 55
8, 16095, Note_on_c, 6, 66, 0
8, 16100, Note_on_c, 6, 69, 57
8, 16105, Note_on_c, 6, 71, 58
8, 16105, Note_on_c, 6, 68, 0
8, 16120, Note_on_c, 6, 69, 0
8, 16125, Note_on_c, 6, 73, 60
8, 16125, Note_on_c, 6, 71, 0
8, 16145, Note_on_c, 6, 73, 0
8, 16150, Note_on_c, 6, 74, 66
8, 16170, Note_on_c, 6, 76, 62
8, 16175, Note_on_c, 6, 74, 0
8, 16190, Note_on_c, 6, 78, 57
8, 16200, Note_on_c, 6, 76, 0
8, 16435, Note_on_c, 6, 76, 56
8, 16440, Note_on_c, 6, 78, 0
8, 16460, Note_on_c, 6, 78, 52
8, 16475, Note_on_c, 6, 76, 0
8, 16485, Note_on_c, 6, 79, 47
8, 16485, Note_on_c, 6, 78, 0
8, 16515, Note_on_c, 6, 78, 48
8, 16525, Note_on_c, 6, 79, 0
8, 16550, Note_on_c, 6, 76, 41
8, 16565, Note_on_c, 6, 78, 0
8, 16845, Note_on_c, 6, 76, 0
8, 16865, Note_on_c, 6, 74, 66
8, 16890, Note_on_c, 6, 73, 55
8, 16895, Note_on_c, 6, 74, 0
8, 16915, Note_on_c, 6, 74, 58
8, 16915, Note_on_c, 6, 73, 0
8, 17530, Note_on_c, 6, 74, 0
8, 17585, Note_on_c, 6, 73, 73
8, 17610, Note_on_c, 6, 73, 0
8, 17615, Note_on_c, 6, 71, 60
8, 17640, Note_on_c, 6, 73, 68
8, 17645, Note_on_c, 6, 71, 0
8, 17820, Note_on_c, 6, 78, 73
8, 17825, Note_on_c, 6, 73, 0
8, 18000, Note_on_c, 6, 80, 69
8, 18015, Note_on_c, 6, 78, 0
8, 18290, Note_on_c, 6, 75, 79
8, 18290, Note_on_c, 6, 80, 0
8, 18365, Note_on_c, 6, 77, 61
8, 18370, Note_on_c, 6, 75, 0
8, 18900, Note_on_c, 6, 77, 0
8, 18950, Note_on_c, 6, 78, 87
8, 19015, Note_on_c, 6, 80, 84
8, 19025, Note_on_c, 6, 78, 0
8, 19080, Note_on_c, 6, 81, 68
8, 19090, Note_on_c, 6, 80, 0
8, 19265, Note_on_c, 6, 85, 73
8, 19275, Note_on_c, 6, 81, 0
8, 19440, Note_on_c, 6, 83, 56
8, 19450, Note_on_c, 6, 85, 0
8, 19730, Note_on_c, 6, 78, 68
8, 19740, Note_on_c, 6, 83, 0
8, 19815, Note_on_c, 6, 80, 45
8, 19825, Note_on_c, 6, 78, 0
8, 20255, Note_on_c, 6, 80, 0
8, 33480, Note_on_c, 6, 73, 46
8, 33735, Note_on_c, 6, 71, 57
8, 33745, Note_on_c, 6, 73, 0
8, 33760, Note_on_c, 6, 73, 48
8, 33760, Note_on_c, 6, 71, 0
8, 33780, Note_on_c, 6, 73, 0
8, 33785, Note_on_c, 6, 74, 56
8, 33805, Note_on_c, 6, 73, 50
8, 33815, Note_on_c, 6, 74, 0
8, 33835, Note_on_c, 6, 71, 47
8, 33850, Note_on_c, 6, 73, 0
8, 34135, Note_on_c, 6, 71, 0
8, 34145, Note_on_c, 6, 69, 47
8, 34170, Note_on_c, 6, 68, 48
8, 34175, Note_on_c, 6, 69, 0
8, 34200, Note_on_c, 6, 69, 35
8, 34205, Note_on_c, 6, 68, 0
8, 34750, Note_on_c, 6, 69, 0
8, 34795, Note_on_c, 6, 66, 53
8, 34805, Note_on_c, 6, 68, 55
8, 34815, Note_on_c, 6, 66, 0
8, 34820, Note_on_c, 6, 69, 57
8, 34825, Note_on_c, 6, 71, 58
8, 34825, Note_on_c, 6, 68, 0
8, 34840, Note_on_c, 6, 69, 0
8, 34845, Note_on_c, 6, 73, 60
8, 34845, Note_on_c, 6, 71, 0
8, 34865, Note_on_c, 6, 73, 0
8, 34870, Note_on_c, 6, 74, 66
8, 34890, Note_on_c, 6, 76, 62
8, 34895, Note_on_c, 6, 74, 0
8, 34910, Note_on_c, 6, 78, 57
8, 34920, Note_on_c, 6, 76, 0
8, 35155, Note_on_c, 6, 76, 56
8, 35160, Note_on_c, 6, 78, 0
8, 35180, Note_on_c, 6, 78, 52
8, 35195, Note_on_c, 6, 76, 0
8, 35205, Note_on_c, 6, 79, 47
8, 35205, Note_on_c, 6, 78, 0
8, 35235, Note_on_c, 6, 78, 48
8, 35245, Note_on_c, 6, 79, 0
8, 35270, Note_on_c, 6, 76, 41
8, 35285, Note_on_c, 6, 78, 0
8, 35565, Note_on_c, 6, 76, 0
8, 35585, Note_on_c, 6, 74, 66
8, 35610, Note_on_c, 6, 73, 55
8, 35615, Note_on_c, 6, 74, 0
8, 35635, Note_on_c, 6, 74, 58
8, 35635, Note_on_c, 6, 73, 0
8, 36250, Note_on_c, 6, 74, 0
8, 36305, Note_on_c, 6, 73, 73
8, 36330, Note_on_c, 6, 73, 0
8, 36335, Note_on_c, 6, 71, 60
8, 36360, Note_on_c, 6, 73, 68
8, 36365, Note_on_c, 6, 71, 0
8, 36540, Note_on_c, 6, 78, 73
8, 36545, Note_on_c, 6, 73, 0
8, 36720, Note_on_c, 6, 80, 69
8, 36735, Note_on_c, 6, 78, 0
8, 37010, Note_on_c, 6, 75, 79
8, 37010, Note_on_c, 6, 80, 0
8, 37085, Note_on_c, 6, 77, 61
8, 37090, Note_on_c, 6, 75, 0
8, 37620, Note_on_c, 6, 77, 0
8, 37670, Note_on_c, 6, 78, 87
8, 37735, Note_on_c, 6, 80, 84
8, 37745, Note_on_c, 6, 78, 0
8, 37800, Note_on_c, 6, 81, 68
8, 37810, Note_on_c, 6, 80, 0
8, 37985, Note_on_c, 6, 85, 73
8, 37995, Note_on_c, 6, 81, 0
8, 38160, Note_on_c, 6, 83, 56
8, 38170, Note_on_c, 6, 85, 0
8, 38450, Note_on_c, 6, 78, 68
8, 38460, Note_on_c, 6, 83, 0
8, 38535, Note_on_c, 6, 80, 45
8, 38545, Note_on_c, 6, 78, 0
8, 38975, Note_on_c, 6, 80, 0
8, 38975, End_track
9, 0, Start_track
9, 0, MIDI_port, 0
9, 0, Title_t, "Drum Set"
9, 7380, Note_on_c, 9, 48, 91
9, 7405, Note_on_c, 9, 48, 0
9, 7440, Note_on_c, 9, 47, 99
9, 7460, Note_on_c, 9, 47, 0
9, 7500, Note_on_c, 9, 45, 103
9, 7520, Note_on_c, 9, 45, 0
9, 7560, Note_on_c, 9, 36, 120
9, 7605, Note_on_c, 9, 36, 0
9, 7620, Note_on_c, 9, 36, 120
9, 7665, Note_on_c, 9, 36, 0
9, 7740, Note_on_c, 9, 38, 120
9, 7740, Note_on_c, 9, 40, 56
9, 7785, Note_on_c, 9, 40, 0
9, 7785, Note_on_c, 9, 38, 0
9, 8040, Note_on_c, 9, 36, 120
9, 8085, Note_on_c, 9, 36, 0
9, 8100, Note_on_c, 9, 42, 88
9, 8120, Note_on_c, 9, 42, 0
9, 8220, Note_on_c, 9, 36, 88
9, 8265, Note_on_c, 9, 36, 0
9, 8280, Note_on_c, 9, 36, 120
9, 8325, Note_on_c, 9, 36, 0
9, 8340, Note_on_c, 9, 36, 120
9, 8385, Note_on_c, 9, 36, 0
9, 8460, Note_on_c, 9, 38, 120
9, 8460, Note_on_c, 9, 40, 56
9, 8505, Note_on_c, 9, 40, 0
9, 8505, Note_on_c, 9, 38, 0
9, 8700, Note_on_c, 9, 36, 120
9, 8745, Note_on_c, 9, 36, 0
9, 8760, Note_on_c, 9, 36, 120
9, 8795, Note_on_c, 9, 53, 62
9, 8805, Note_on_c, 9, 53, 0
9, 8805, Note_on_c, 9, 36, 0
9, 8810, Note_on_c, 9, 53, 33
9, 8820, Note_on_c, 9, 53, 56
9, 8820, Note_on_c, 9, 53, 0
9, 8915, Note_on_c, 9, 53, 0
9, 9000, Note_on_c, 9, 36, 120
9, 9045, Note_on_c, 9, 36, 0
9, 9060, Note_on_c, 9, 36, 120
9, 9105, Note_on_c, 9, 36, 0
9, 9180, Note_on_c, 9, 38, 120
9, 9180, Note_on_c, 9, 40, 56
9, 9225, Note_on_c, 9, 40, 0
9, 9225, Note_on_c, 9, 38, 0
9, 9480, Note_on_c, 9, 36, 120
9, 9525, Note_on_c, 9, 36, 0
9, 9540, Note_on_c, 9, 42, 88
9, 9560, Note_on_c, 9, 42, 0
9, 9660, Note_on_c, 9, 36, 88
9, 9705, Note_on_c, 9, 36, 0
9, 9720, Note_on_c, 9, 36, 120
9, 9765, Note_on_c, 9, 36, 0
9, 9780, Note_on_c, 9, 36, 120
9, 9825, Note_on_c, 9, 36, 0
9, 9900, Note_on_c, 9, 38, 120
9, 9900, Note_on_c, 9, 40, 56
9, 9945, Note_on_c, 9, 40, 0
9, 9945, Note_on_c, 9, 38, 0
9, 10140, Note_on_c, 9, 36, 120
9, 10185, Note_on_c, 9, 36, 0
9, 10200, Note_on_c, 9, 36, 120
9, 10235, Note_on_c, 9, 53, 62
9, 10245, Note_on_c, 9, 53, 0
9, 10245, Note_on_c, 9, 36, 0
9, 10250, Note_on_c, 9, 53, 33
9, 10260, Note_on_c, 9, 53, 56
9, 10260, Note_on_c, 9, 53, 0
9, 10355, Note_on_c, 9, 53, 0
9, 10380, Note_on_c, 9, 36, 88
9, 10425, Note_on_c, 9, 36, 0
9, 10440, Note_on_c, 9, 36, 120
9, 10485, Note_on_c, 9, 36, 0
9, 10500, Note_on_c, 9, 36, 120
9, 10545, Note_on_c, 9, 36, 0
9, 10620, Note_on_c, 9, 38, 120
9, 10620, Note_on_c, 9, 40, 56
9, 10665, Note_on_c, 9, 40, 0
9, 10665, Note_on_c, 9, 38, 0
9, 10920, Note_on_c, 9, 36, 120
9, 10965, Note_on_c, 9, 36, 0
9, 10980, Note_on_c, 9, 42, 88
9, 11000, Note_on_c, 9, 42, 0
9, 11100, Note_on_c, 9, 36, 88
9, 11145, Note_on_c, 9, 36, 0
9, 11160, Note_on_c, 9, 36, 120
9, 11205, Note_on_c, 9, 36, 0
9, 11220, Note_on_c, 9, 36, 120
9, 11265, Note_on_c, 9, 36, 0
9, 11340, Note_on_c, 9, 38, 120
9, 11340, Note_on_c, 9, 40, 56
9, 11385, Note_on_c, 9, 40, 0
9, 11385, Note_on_c, 9, 38, 0
9, 11580, Note_on_c, 9, 36, 120
9, 11625, Note_on_c, 9, 36, 0
9, 11640, Note_on_c, 9, 36, 120
9, 11675, Note_on_c, 9, 53, 62
9, 11685, Note_on_c, 9, 53, 0
9, 11685, Note_on_c, 9, 36, 0
9, 11690, Note_on_c, 9, 53, 33
9, 11700, Note_on_c, 9, 53, 56
9, 11700, Note_on_c, 9, 53, 0
9, 11795, Note_on_c, 9, 53, 0
9, 11880, Note_on_c, 9, 36, 120
9, 11925, Note_on_c, 9, 36, 0
9, 11940, Note_on_c, 9, 36, 120
9, 11985, Note_on_c, 9, 36, 0
9, 12060, Note_on_c, 9, 38, 120
9, 12060, Note_on_c, 9, 40, 56
9, 12105, Note_on_c, 9, 40, 0
9, 12105, Note_on_c, 9, 38, 0
9, 12360, Note_on_c, 9, 36, 120
9, 12405, Note_on_c, 9, 36, 0
9, 12420, Note_on_c, 9, 42, 88
9, 12440, Note_on_c, 9, 42, 0
9, 12540, Note_on_c, 9, 36, 88
9, 12585, Note_on_c, 9, 36, 0
9, 12600, Note_on_c, 9, 36, 120
9, 12645, Note_on_c, 9, 36, 0
9, 12660, Note_on_c, 9, 36, 120
9, 12705, Note_on_c, 9, 36, 0
9, 12780, Note_on_c, 9, 38, 120
9, 12780, Note_on_c, 9, 40, 56
9, 12825, Note_on_c, 9, 40, 0
9, 12825, Note_on_c, 9, 38, 0
9, 13020, Note_on_c, 9, 36, 120
9, 13065, Note_on_c, 9, 36, 0
9, 13080, Note_on_c, 9, 36, 120
9, 13115, Note_on_c, 9, 53, 62
9, 13125, Note_on_c, 9, 53, 0
9, 13125, Note_on_c, 9, 36, 0
9, 13130, Note_on_c, 9, 53, 33
9, 13140, Note_on_c, 9, 53, 56
9, 13140, Note_on_c, 9, 53, 0
9, 13195, Note_on_c, 9, 48, 84
9, 13220, Note_on_c, 9, 47, 76
9, 13220, Note_on_c, 9, 48, 0
9, 13235, Note_on_c, 9, 53, 0
9, 13240, Note_on_c, 9, 47, 0
9, 13250, Note_on_c, 9, 45, 91
9, 13270, Note_on_c, 9, 45, 0
9, 13320, Note_on_c, 9, 36, 120
9, 13365, Note_on_c, 9, 36, 0
9, 13380, Note_on_c, 9, 36, 120
9, 13425, Note_on_c, 9, 36, 0
9, 13500, Note_on_c, 9, 38, 120
9, 13500, Note_on_c, 9, 40, 56
9, 13545, Note_on_c, 9, 40, 0
9, 13545, Note_on_c, 9, 38, 0
9, 13680, Note_on_c, 9, 36, 120
9, 13725, Note_on_c, 9, 36, 0
9, 13740, Note_on_c, 9, 36, 120
9, 13785, Note_on_c, 9, 36, 0
9, 13830, Note_on_c, 9, 53, 31
9, 13845, Note_on_c, 9, 53, 53
9, 13845, Note_on_c, 9, 53, 0
9, 13850, Note_on_c, 9, 53, 0
9, 13860, Note_on_c, 9, 53, 62
9, 13865, Note_on_c, 9, 53, 0
9, 14040, Note_on_c, 9, 36, 120
9, 14085, Note_on_c, 9, 36, 0
9, 14100, Note_on_c, 9, 36, 120
9, 14145, Note_on_c, 9, 36, 0
9, 14220, Note_on_c, 9, 38, 120
9, 14220, Note_on_c, 9, 40, 56
9, 14265, Note_on_c, 9, 40, 0
9, 14265, Note_on_c, 9, 38, 0
9, 14400, Note_on_c, 9, 36, 120
9, 14445, Note_on_c, 9, 36, 0
9, 14460, Note_on_c, 9, 36, 120
9, 14505, Note_on_c, 9, 36, 0
9, 14580, Note_on_c, 9, 48, 120
9, 14625, Note_on_c, 9, 48, 0
9, 14640, Note_on_c, 9, 47, 120
9, 14685, Note_on_c, 9, 47, 0
9, 14700, Note_on_c, 9, 45, 120
9, 14745, Note_on_c, 9, 45, 0
9, 14760, Note_on_c, 9, 49, 68
9, 14760, Note_on_c, 9, 36, 120
9, 14760, Note_on_c, 9, 51, 58
9, 14780, Note_on_c, 9, 51, 0
9, 14805, Note_on_c, 9, 36, 0
9, 14820, Note_on_c, 9, 51, 18
9, 14845, Note_on_c, 9, 51, 0
9, 14880, Note_on_c, 9, 51, 32
9, 14880, Note_on_c, 9, 51, 16
9, 14881, Note_on_c, 9, 51, 0
9, 14900, Note_on_c, 9, 51, 0
9, 14910, Note_on_c, 9, 49, 0
9, 14940, Note_on_c, 9, 38, 120
9, 14940, Note_on_c, 9, 51, 40
9, 14980, Note_on_c, 9, 51, 0
9, 14985, Note_on_c, 9, 38, 0
9, 15000, Note_on_c, 9, 51, 22
9, 15020, Note_on_c, 9, 51, 0
9, 15060, Note_on_c, 9, 51, 14
9, 15060, Note_on_c, 9, 36, 120
9, 15085, Note_on_c, 9, 51, 0
9, 15105, Note_on_c, 9, 36, 0
9, 15120, Note_on_c, 9, 51, 14
9, 15120, Note_on_c, 9, 36, 120
9, 15120, Note_on_c, 9, 51, 26
9, 15121, Note_on_c, 9, 51, 0
9, 15140, Note_on_c, 9, 51, 0
9, 15165, Note_on_c, 9, 36, 0
9, 15180, Note_on_c, 9, 51, 25
9, 15200, Note_on_c, 9, 51, 0
9, 15240, Note_on_c, 9, 51, 18
9, 15260, Note_on_c, 9, 51, 0
9, 15300, Note_on_c, 9, 51, 26
9, 15300, Note_on_c, 9, 38, 120
9, 15325, Note_on_c, 9, 51, 0
9, 15345, Note_on_c, 9, 38, 0
9, 15360, Note_on_c, 9, 51, 23
9, 15360, Note_on_c, 9, 36, 120
9, 15375, Note_on_c, 9, 51, 0
9, 15405, Note_on_c, 9, 36, 0
9, 15420, Note_on_c, 9, 51, 20
9, 15440, Note_on_c, 9, 51, 0
9, 15480, Note_on_c, 9, 51, 46
9, 15480, Note_on_c, 9, 36, 120
9, 15500, Note_on_c, 9, 51, 0
9, 15525, Note_on_c, 9, 36, 0
9, 15540, Note_on_c, 9, 51, 26
9, 15555, Note_on_c, 9, 51, 0
9, 15600, Note_on_c, 9, 51, 21
9, 15625, Note_on_c, 9, 51, 0
9, 15660, Note_on_c, 9, 51, 45
9, 15660, Note_on_c, 9, 38, 120
9, 15680, Note_on_c, 9, 51, 0
9, 15705, Note_on_c, 9, 38, 0
9, 15720, Note_on_c, 9, 51, 6
9, 15720, Note_on_c, 9, 51, 24
9, 15721, Note_on_c, 9, 51, 0
9, 15735, Note_on_c, 9, 51, 0
9, 15780, Note_on_c, 9, 51, 19
9, 15780, Note_on_c, 9, 36, 120
9, 15795, Note_on_c, 9, 51, 0
9, 15825, Note_on_c, 9, 36, 0
9, 15840, Note_on_c, 9, 51, 46
9, 15840, Note_on_c, 9, 36, 120
9, 15860, Note_on_c, 9, 51, 0
9, 15885, Note_on_c, 9, 36, 0
9, 15900, Note_on_c, 9, 51, 16
9, 15900, Note_on_c, 9, 51, 14
9, 15901, Note_on_c, 9, 51, 0
9, 15920, Note_on_c, 9, 51, 0
9, 15960, Note_on_c, 9, 51, 6
9, 15975, Note_on_c, 9, 51, 0
9, 16020, Note_on_c, 9, 51, 55
9, 16020, Note_on_c, 9, 38, 120
9, 16045, Note_on_c, 9, 51, 0
9, 16065, Note_on_c, 9, 38, 0
9, 16080, Note_on_c, 9, 51, 35
9, 16080, Note_on_c, 9, 51, 13
9, 16081, Note_on_c, 9, 51, 0
9, 16095, Note_on_c, 9, 51, 0
9, 16140, Note_on_c, 9, 51, 21
9, 16155, Note_on_c, 9, 51, 0
9, 16200, Note_on_c, 9, 36, 120
9, 16200, Note_on_c, 9, 51, 48
9, 16220, Note_on_c, 9, 51, 0
9, 16245, Note_on_c, 9, 36, 0
9, 16260, Note_on_c, 9, 51, 5
9, 16275, Note_on_c, 9, 51, 0
9, 16320, Note_on_c, 9, 51, 23
9, 16340, Note_on_c, 9, 51, 0
9, 16380, Note_on_c, 9, 51, 46
9, 16380, Note_on_c, 9, 38, 120
9, 16405, Note_on_c, 9, 51, 0
9, 16425, Note_on_c, 9, 38, 0
9, 16440, Note_on_c, 9, 51, 9
9, 16460, Note_on_c, 9, 51, 0
9, 16500, Note_on_c, 9, 51, 12
9, 16500, Note_on_c, 9, 36, 120
9, 16520, Note_on_c, 9, 51, 0
9, 16545, Note_on_c, 9, 36, 0
9, 16560, Note_on_c, 9, 51, 38
9, 16560, Note_on_c, 9, 36, 120
9, 16585, Note_on_c, 9, 51, 0
9, 16605, Note_on_c, 9, 36, 0
9, 16620, Note_on_c, 9, 51, 42
9, 16640, Note_on_c, 9, 51, 0
9, 16680, Note_on_c, 9, 51, 12
9, 16700, Note_on_c, 9, 51, 0
9, 16740, Note_on_c, 9, 51, 55
9, 16740, Note_on_c, 9, 38, 120
9, 16765, Note_on_c, 9, 51, 0
9, 16785, Note_on_c, 9, 38, 0
9, 16800, Note_on_c, 9, 51, 11
9, 16825, Note_on_c, 9, 51, 0
9, 16860, Note_on_c, 9, 51, 17
9, 16875, Note_on_c, 9, 51, 0
9, 16920, Note_on_c, 9, 51, 50
9, 16920, Note_on_c, 9, 36, 120
9, 16945, Note_on_c, 9, 51, 0
9, 16965, Note_on_c, 9, 36, 0
9, 16980, Note_on_c, 9, 51, 7
9, 17005, Note_on_c, 9, 51, 0
9, 17040, Note_on_c, 9, 51, 16
9, 17060, Note_on_c, 9, 51, 0
9, 17100, Note_on_c, 9, 51, 50
9, 17100, Note_on_c, 9, 38, 120
9, 17125, Note_on_c, 9, 51, 0
9, 17145, Note_on_c, 9, 38, 0
9, 17160, Note_on_c, 9, 51, 11
9, 17185, Note_on_c, 9, 51, 0
9, 17220, Note_on_c, 9, 36, 120
9, 17220, Note_on_c, 9, 51, 40
9, 17235, Note_on_c, 9, 51, 0
9, 17265, Note_on_c, 9, 36, 0
9, 17280, Note_on_c, 9, 51, 57
9, 17280, Note_on_c, 9, 36, 120
9, 17295, Note_on_c, 9, 51, 0
9, 17325, Note_on_c, 9, 36, 0
9, 17340, Note_on_c, 9, 51, 56
9, 17355, Note_on_c, 9, 51, 0
9, 17400, Note_on_c, 9, 51, 6
9, 17420, Note_on_c, 9, 51, 0
9, 17460, Note_on_c, 9, 51, 45
9, 17460, Note_on_c, 9, 38, 120
9, 17485, Note_on_c, 9, 51, 0
9, 17505, Note_on_c, 9, 38, 0
9, 17520, Note_on_c, 9, 51, 9
9, 17520, Note_on_c, 9, 47, 120
9, 17540, Note_on_c, 9, 51, 0
9, 17565, Note_on_c, 9, 47, 0
9, 17580, Note_on_c, 9, 51, 32
9, 17580, Note_on_c, 9, 45, 120
9, 17600, Note_on_c, 9, 51, 0
9, 17625, Note_on_c, 9, 45, 0
9, 17640, Note_on_c, 9, 49, 68
9, 17640, Note_on_c, 9, 36, 120
9, 17640, Note_on_c, 9, 51, 58
9, 17660, Note_on_c, 9, 51, 0
9, 17685, Note_on_c, 9, 36, 0
9, 17700, Note_on_c, 9, 51, 18
9, 17725, Note_on_c, 9, 51, 0
9, 17760, Note_on_c, 9, 51, 32
9, 17760, Note_on_c, 9, 51, 16
9, 17761, Note_on_c, 9, 51, 0
9, 17780, Note_on_c, 9, 51, 0
9, 17790, Note_on_c, 9, 49, 0
9, 17820, Note_on_c, 9, 38, 120
9, 17820, Note_on_c, 9, 51, 40
9, 17860, Note_on_c, 9, 51, 0
9, 17865, Note_on_c, 9, 38, 0
9, 17880, Note_on_c, 9, 51, 22
9, 17900, Note_on_c, 9, 51, 0
9, 17940, Note_on_c, 9, 51, 14
9, 17940, Note_on_c, 9, 36, 120
9, 17965, Note_on_c, 9, 51, 0
9, 17985, Note_on_c, 9, 36, 0
9, 18000, Note_on_c, 9, 51, 14
9, 18000, Note_on_c, 9, 36, 120
9, 18000, Note_on_c, 9, 51, 26
9, 18001, Note_on_c, 9, 51, 0
9, 18020, Note_on_c, 9, 51, 0
9, 18045, Note_on_c, 9, 36, 0
9, 18060, Note_on_c, 9, 51, 25
9, 18080, Note_on_c, 9, 51, 0
9, 18120, Note_on_c, 9, 51, 18
9, 18140, Note_on_c, 9, 51, 0
9, 18180, Note_on_c, 9, 51, 26
9, 18180, Note_on_c, 9, 38, 120
9, 18205, Note_on_c, 9, 51, 0
9, 18225, Note_on_c, 9, 38, 0
9, 18240, Note_on_c, 9, 51, 23
9, 18240, Note_on_c, 9, 36, 120
9, 18255, Note_on_c, 9, 51, 0
9, 18285, Note_on_c, 9, 36, 0
9, 18300, Note_on_c, 9, 51, 20
9, 18320, Note_on_c, 9, 51, 0
9, 18360, Note_on_c, 9, 51, 46
9, 18360, Note_on_c, 9, 36, 120
9, 18380, Note_on_c, 9, 51, 0
9, 18405, Note_on_c, 9, 36, 0
9, 18420, Note_on_c, 9, 51, 26
9, 18435, Note_on_c, 9, 51, 0
9, 18480, Note_on_c, 9, 51, 21
9, 18505, Note_on_c, 9, 51, 0
9, 18540, Note_on_c, 9, 51, 45
9, 18540, Note_on_c, 9, 38, 120
9, 18560, Note_on_c, 9, 51, 0
9, 18585, Note_on_c, 9, 38, 0
9, 18600, Note_on_c, 9, 51, 6
9, 18600, Note_on_c, 9, 51, 24
9, 18601, Note_on_c, 9, 51, 0
9, 18615, Note_on_c, 9, 51, 0
9, 18660, Note_on_c, 9, 51, 19
9, 18660, Note_on_c, 9, 36, 120
9, 18675, Note_on_c, 9, 51, 0
9, 18705, Note_on_c, 9, 36, 0
9, 18720, Note_on_c, 9, 51, 46
9, 18720, Note_on_c, 9, 36, 120
9, 18740, Note_on_c, 9, 51, 0
9, 18765, Note_on_c, 9, 36, 0
9, 18780, Note_on_c, 9, 51, 16
9, 18780, Note_on_c, 9, 51, 14
9, 18781, Note_on_c, 9, 51, 0
9, 18800, Note_on_c, 9, 51, 0
9, 18840, Note_on_c, 9, 51, 6
9, 18855, Note_on_c, 9, 51, 0
9, 18900, Note_on_c, 9, 51, 55
9, 18900, Note_on_c, 9, 38, 120
9, 18900, Note_on_c, 9, 48, 82
9, 18925, Note_on_c, 9, 48, 0
9, 18925, Note_on_c, 9, 51, 0
9, 18945, Note_on_c, 9, 38, 0
9, 18960, Note_on_c, 9, 47, 95
9, 18960, Note_on_c, 9, 51, 35
9, 18960, Note_on_c, 9, 51, 13
9, 18961, Note_on_c, 9, 51, 0
9, 18975, Note_on_c, 9, 51, 0
9, 18980, Note_on_c, 9, 47, 0
9, 19020, Note_on_c, 9, 45, 115
9, 19020, Note_on_c, 9, 51, 21
9, 19035, Note_on_c, 9, 51, 0
9, 19040, Note_on_c, 9, 45, 0
9, 19080, Note_on_c, 9, 49, 79
9, 19080, Note_on_c, 9, 36, 120
9, 19080, Note_on_c, 9, 51, 48
9, 19095, Note_on_c, 9, 49, 0
9, 19100, Note_on_c, 9, 51, 0
9, 19125, Note_on_c, 9, 36, 0
9, 19140, Note_on_c, 9, 51, 5
9, 19155, Note_on_c, 9, 51, 0
9, 19200, Note_on_c, 9, 51, 23
9, 19220, Note_on_c, 9, 51, 0
9, 19260, Note_on_c, 9, 51, 46
9, 19260, Note_on_c, 9, 38, 120
9, 19285, Note_on_c, 9, 51, 0
9, 19305, Note_on_c, 9, 38, 0
9, 19320, Note_on_c, 9, 51, 9
9, 19340, Note_on_c, 9, 51, 0
9, 19380, Note_on_c, 9, 51, 12
9, 19380, Note_on_c, 9, 36, 120
9, 19400, Note_on_c, 9, 51, 0
9, 19425, Note_on_c, 9, 36, 0
9, 19440, Note_on_c, 9, 51, 38
9, 19440, Note_on_c, 9, 36, 120
9, 19465, Note_on_c, 9, 51, 0
9, 19485, Note_on_c, 9, 36, 0
9, 19500, Note_on_c, 9, 51, 42
9, 19520, Note_on_c, 9, 51, 0
9, 19560, Note_on_c, 9, 51, 12
9, 19580, Note_on_c, 9, 51, 0
9, 19620, Note_on_c, 9, 51, 55
9, 19620, Note_on_c, 9, 38, 120
9, 19645, Note_on_c, 9, 51, 0
9, 19665, Note_on_c, 9, 38, 0
9, 19680, Note_on_c, 9, 51, 11
9, 19705, Note_on_c, 9, 51, 0
9, 19740, Note_on_c, 9, 51, 17
9, 19755, Note_on_c, 9, 51, 0
9, 19800, Note_on_c, 9, 51, 50
9, 19800, Note_on_c, 9, 36, 120
9, 19825, Note_on_c, 9, 51, 0
9, 19845, Note_on_c, 9, 36, 0
9, 19855, Note_on_c, 9, 57, 55
9, 19860, Note_on_c, 9, 51, 7
9, 19885, Note_on_c, 9, 51, 0
9, 19920, Note_on_c, 9, 51, 16
9, 19940, Note_on_c, 9, 51, 0
9, 19980, Note_on_c, 9, 51, 50
9, 19980, Note_on_c, 9, 38, 120
9, 20005, Note_on_c, 9, 51, 0
9, 20025, Note_on_c, 9, 38, 0
9, 20040, Note_on_c, 9, 51, 11
9, 20065, Note_on_c, 9, 51, 0
9, 20100, Note_on_c, 9, 36, 120
9, 20100, Note_on_c, 9, 51, 40
9, 20115, Note_on_c, 9, 51, 0
9, 20145, Note_on_c, 9, 36, 0
9, 20160, Note_on_c, 9, 36, 120
9, 20160, Note_on_c, 9, 49, 56
9, 20185, Note_on_c, 9, 57, 0
9, 20255, Note_on_c, 9, 49, 0
9, 20255, Note_on_c, 9, 36, 0
9, 26100, Note_on_c, 9, 48, 91
9, 26125, Note_on_c, 9, 48, 0
9, 26160, Note_on_c, 9, 47, 99
9, 26180, Note_on_c, 9, 47, 0
9, 26220, Note_on_c, 9, 45, 103
9, 26240, Note_on_c, 9, 45, 0
9, 26280, Note_on_c, 9, 36, 120
9, 26325, Note_on_c, 9, 36, 0
9, 26340, Note_on_c, 9, 36, 120
9, 26385, Note_on_c, 9, 36, 0
9, 26460, Note_on_c, 9, 38, 120
9, 26460, Note_on_c, 9, 40, 56
9, 26505, Note_on_c, 9, 40, 0
9, 26505, Note_on_c, 9, 38, 0
9, 26760, Note_on_c, 9, 36, 120
9, 26805, Note_on_c, 9, 36, 0
9, 26820, Note_on_c, 9, 42, 88
9, 26840, Note_on_c, 9, 42, 0
9, 26940, Note_on_c, 9, 36, 88
9, 26985, Note_on_c, 9, 36, 0
9, 27000, Note_on_c, 9, 36, 120
9, 27045, Note_on_c, 9, 36, 0
9, 27060, Note_on_c, 9, 36, 120
9, 27105, Note_on_c, 9, 36, 0
9, 27180, Note_on_c, 9, 38, 120
9, 27180, Note_on_c, 9, 40, 56
9, 27225, Note_on_c, 9, 40, 0
9, 27225, Note_on_c, 9, 38, 0
9, 27420, Note_on_c, 9, 36, 120
9, 27465, Note_on_c, 9, 36, 0
9, 27480, Note_on_c, 9, 36, 120
9, 27515, Note_on_c, 9, 53, 62
9, 27525, Note_on_c, 9, 53, 0
9, 27525, Note_on_c, 9, 36, 0
9, 27530, Note_on_c, 9, 53, 33
9, 27540, Note_on_c, 9, 53, 56
9, 27540, Note_on_c, 9, 53, 0
9, 27635, Note_on_c, 9, 53, 0
9, 27720, Note_on_c, 9, 36, 120
9, 27765, Note_on_c, 9, 36, 0
9, 27780, Note_on_c, 9, 36, 120
9, 27825, Note_on_c, 9, 36, 0
9, 27900, Note_on_c, 9, 38, 120
9, 27900, Note_on_c, 9, 40, 56
9, 27945, Note_on_c, 9, 40, 0
9, 27945, Note_on_c, 9, 38, 0
9, 28200, Note_on_c, 9, 36, 120
9, 28245, Note_on_c, 9, 36, 0
9, 28260, Note_on_c, 9, 42, 88
9, 28280, Note_on_c, 9, 42, 0
9, 28380, Note_on_c, 9, 36, 88
9, 28425, Note_on_c, 9, 36, 0
9, 28440, Note_on_c, 9, 36, 120
9, 28485, Note_on_c, 9, 36, 0
9, 28500, Note_on_c, 9, 36, 120
9, 28545, Note_on_c, 9, 36, 0
9, 28620, Note_on_c, 9, 38, 120
9, 28620, Note_on_c, 9, 40, 56
9, 28665, Note_on_c, 9, 40, 0
9, 28665, Note_on_c, 9, 38, 0
9, 28860, Note_on_c, 9, 36, 120
9, 28905, Note_on_c, 9, 36, 0
9, 28920, Note_on_c, 9, 36, 120
9, 28955, Note_on_c, 9, 53, 62
9, 28965, Note_on_c, 9, 53, 0
9, 28965, Note_on_c, 9, 36, 0
9, 28970, Note_on_c, 9, 53, 33
9, 28980, Note_on_c, 9, 53, 56
9, 28980, Note_on_c, 9, 53, 0
9, 29075, Note_on_c, 9, 53, 0
9, 29100, Note_on_c, 9, 36, 88
9, 29145, Note_on_c, 9, 36, 0
9, 29160, Note_on_c, 9, 36, 120
9, 29205, Note_on_c, 9, 36, 0
9, 29220, Note_on_c, 9, 36, 120
9, 29265, Note_on_c, 9, 36, 0
9, 29340, Note_on_c, 9, 38, 120
9, 29340, Note_on_c, 9, 40, 56
9, 29385, Note_on_c, 9, 40, 0
9, 29385, Note_on_c, 9, 38, 0
9, 29640, Note_on_c, 9, 36, 120
9, 29685, Note_on_c, 9, 36, 0
9, 29700, Note_on_c, 9, 42, 88
9, 29720, Note_on_c, 9, 42, 0
9, 29820, Note_on_c, 9, 36, 88
9, 29865, Note_on_c, 9, 36, 0
9, 29880, Note_on_c, 9, 36, 120
9, 29925, Note_on_c, 9, 36, 0
9, 29940, Note_on_c, 9, 36, 120
9, 29985, Note_on_c, 9, 36, 0
9, 30060, Note_on_c, 9, 38, 120
9, 30060, Note_on_c, 9, 40, 56
9, 30105, Note_on_c, 9, 40, 0
9, 30105, Note_on_c, 9, 38, 0
9, 30300, Note_on_c, 9, 36, 120
9, 30345, Note_on_c, 9, 36, 0
9, 30360, Note_on_c, 9, 36, 120
9, 30395, Note_on_c, 9, 53, 62
9, 30405, Note_on_c, 9, 53, 0
9, 30405, Note_on_c, 9, 36, 0
9, 30410, Note_on_c, 9, 53, 33
9, 30420, Note_on_c, 9, 53, 56
9, 30420, Note_on_c, 9, 53, 0
9, 30515, Note_on_c, 9, 53, 0
9, 30600, Note_on_c, 9, 36, 120
9, 30645, Note_on_c, 9, 36, 0
9, 30660, Note_on_c, 9, 36, 120
9, 30705, Note_on_c, 9, 36, 0
9, 30780, Note_on_c, 9, 38, 120
9, 30780, Note_on_c, 9, 40, 56
9, 30825, Note_on_c, 9, 40, 0
9, 30825, Note_on_c, 9, 38, 0
9, 31080, Note_on_c, 9, 36, 120
9, 31125, Note_on_c, 9, 36, 0
9, 31140, Note_on_c, 9, 42, 88
9, 31160, Note_on_c, 9, 42, 0
9, 31260, Note_on_c, 9, 36, 88
9, 31305, Note_on_c, 9, 36, 0
9, 31320, Note_on_c, 9, 36, 120
9, 31365, Note_on_c, 9, 36, 0
9, 31380, Note_on_c, 9, 36, 120
9, 31425, Note_on_c, 9, 36, 0
9, 31500, Note_on_c, 9, 38, 120
9, 31500, Note_on_c, 9, 40, 56
9, 31545, Note_on_c, 9, 40, 0
9, 31545, Note_on_c, 9, 38, 0
9, 31740, Note_on_c, 9, 36, 120
9, 31785, Note_on_c, 9, 36, 0
9, 31800, Note_on_c, 9, 36, 120
9, 31835, Note_on_c, 9, 53, 62
9, 31845, Note_on_c, 9, 53, 0
9, 31845, Note_on_c, 9, 36, 0
9, 31850, Note_on_c, 9, 53, 33
9, 31860, Note_on_c, 9, 53, 56
9, 31860, Note_on_c, 9, 53, 0
9, 31915, Note_on_c, 9, 48, 84
9, 31940, Note_on_c, 9, 47, 76
9, 31940, Note_on_c, 9, 48, 0
9, 31955, Note_on_c, 9, 53, 0
9, 31960, Note_on_c, 9, 47, 0
9, 31970, Note_on_c, 9, 45, 91
9, 31990, Note_on_c, 9, 45, 0
9, 32040, Note_on_c, 9, 36, 120
9, 32085, Note_on_c, 9, 36, 0
9, 32100, Note_on_c, 9, 36, 120
9, 32145, Note_on_c, 9, 36, 0
9, 32220, Note_on_c, 9, 38, 120
9, 32220, Note_on_c, 9, 40, 56
9, 32265, Note_on_c, 9, 40, 0
9, 32265, Note_on_c, 9, 38, 0
9, 32400, Note_on_c, 9, 36, 120
9, 32445, Note_on_c, 9, 36, 0
9, 32460, Note_on_c, 9, 36, 120
9, 32505, Note_on_c, 9, 36, 0
9, 32550, Note_on_c, 9, 53, 31
9, 32565, Note_on_c, 9, 53, 53
9, 32565, Note_on_c, 9, 53, 0
9, 32570, Note_on_c, 9, 53, 0
9, 32580, Note_on_c, 9, 53, 62
9, 32585, Note_on_c, 9, 53, 0
9, 32760, Note_on_c, 9, 36, 120
9, 32805, Note_on_c, 9, 36, 0
9, 32820, Note_on_c, 9, 36, 120
9, 32865, Note_on_c, 9, 36, 0
9, 32940, Note_on_c, 9, 38, 120
9, 32940, Note_on_c, 9, 40, 56
9, 32985, Note_on_c, 9, 40, 0
9, 32985, Note_on_c, 9, 38, 0
9, 33120, Note_on_c, 9, 36, 120
9, 33165, Note_on_c, 9, 36, 0
9, 33180, Note_on_c, 9, 36, 120
9, 33225, Note_on_c, 9, 36, 0
9, 33300, Note_on_c, 9, 48, 120
9, 33345, Note_on_c, 9, 48, 0
9, 33360, Note_on_c, 9, 47, 120
9, 33405, Note_on_c, 9, 47, 0
9, 33420, Note_on_c, 9, 45, 120
9, 33465, Note_on_c, 9, 45, 0
9, 33480, Note_on_c, 9, 49, 68
9, 33480, Note_on_c, 9, 36, 120
9, 33480, Note_on_c, 9, 51, 58
9, 33500, Note_on_c, 9, 51, 0
9, 33525, Note_on_c, 9, 36, 0
9, 33540, Note_on_c, 9, 51, 18
9, 33565, Note_on_c, 9, 51, 0
9, 33600, Note_on_c, 9, 51, 32
9, 33600, Note_on_c, 9, 51, 16
9, 33601, Note_on_c, 9, 51, 0
9, 33620, Note_on_c, 9, 51, 0
9, 33630, Note_on_c, 9, 49, 0
9, 33660, Note_on_c, 9, 38, 120
9, 33660, Note_on_c, 9, 51, 40
9, 33700, Note_on_c, 9, 51, 0
9, 33705, Note_on_c, 9, 38, 0
9, 33720, Note_on_c, 9, 51, 22
9, 33740, Note_on_c, 9, 51, 0
9, 33780, Note_on_c, 9, 51, 14
9, 33780, Note_on_c, 9, 36, 120
9, 33805, Note_on_c, 9, 51, 0
9, 33825, Note_on_c, 9, 36, 0
9, 33840, Note_on_c, 9, 51, 14
9, 33840, Note_on_c, 9, 36, 120
9, 33840, Note_on_c, 9, 51, 26
9, 33841, Note_on_c, 9, 51, 0
9, 33860, Note_on_c, 9, 51, 0
9, 33885, Note_on_c, 9, 36, 0
9, 33900, Note_on_c, 9, 51, 25
9, 33920, Note_on_c, 9, 51, 0
9, 33960, Note_on_c, 9, 51, 18
9, 33980, Note_on_c, 9, 51, 0
9, 34020, Note_on_c, 9, 51, 26
9, 34020, Note_on_c, 9, 38, 120
9, 34045, Note_on_c, 9, 51, 0
9, 34065, Note_on_c, 9, 38, 0
9, 34080, Note_on_c, 9, 51, 23
9, 34080, Note_on_c, 9, 36, 120
9, 34095, Note_on_c, 9, 51, 0
9, 34125, Note_on_c, 9, 36, 0
9, 34140, Note_on_c, 9, 51, 20
9, 34160, Note_on_c, 9, 51, 0
9, 34200, Note_on_c, 9, 51, 46
9, 34200, Note_on_c, 9, 36, 120
9, 34220, Note_on_c, 9, 51, 0
9, 34245, Note_on_c, 9, 36, 0
9, 34260, Note_on_c, 9, 51, 26
9, 34275, Note_on_c, 9, 51, 0
9, 34320, Note_on_c, 9, 51, 21
9, 34345, Note_on_c, 9, 51, 0
9, 34380, Note_on_c, 9, 51, 45
9, 34380, Note_on_c, 9, 38, 120
9, 34400, Note_on_c, 9, 51, 0
9, 34425, Note_on_c, 9, 38, 0
9, 34440, Note_on_c, 9, 51, 6
9, 34440, Note_on_c, 9, 51, 24
9, 34441, Note_on_c, 9, 51, 0
9, 34455, Note_on_c, 9, 51, 0
9, 34500, Note_on_c, 9, 51, 19
9, 34500, Note_on_c, 9, 36, 120
9, 34515, Note_on_c, 9, 51, 0
9, 34545, Note_on_c, 9, 36, 0
9, 34560, Note_on_c, 9, 51, 46
9, 34560, Note_on_c, 9, 36, 120
9, 34580, Note_on_c, 9, 51, 0
9, 34605, Note_on_c, 9, 36, 0
9, 34620, Note_on_c, 9, 51, 16
9, 34620, Note_on_c, 9, 51, 14
9, 34621, Note_on_c, 9, 51, 0
9, 34640, Note_on_c, 9, 51, 0
9, 34680, Note_on_c, 9, 51, 6
9, 34695, Note_on_c, 9, 51, 0
9, 34740, Note_on_c, 9, 51, 55
9, 34740, Note_on_c, 9, 38, 120
9, 34765, Note_on_c, 9, 51, 0
9, 34785, Note_on_c, 9, 38, 0
9, 34800, Note_on_c, 9, 51, 35
9, 34800, Note_on_c, 9, 51, 13
9, 34801, Note_on_c, 9, 51, 0
9, 34815, Note_on_c, 9, 51, 0
9, 34860, Note_on_c, 9, 51, 21
9, 34875, Note_on_c, 9, 51, 0
9, 34920, Note_on_c, 9, 36, 120
9, 34920, Note_on_c, 9, 51, 48
9, 34940, Note_on_c, 9, 51, 0
9, 34965, Note_on_c, 9, 36, 0
9, 34980, Note_on_c, 9, 51, 5
9, 34995, Note_on_c, 9, 51, 0
9, 35040, Note_on_c, 9, 51, 23
9, 35060, Note_on_c, 9, 51, 0
9, 35100, Note_on_c, 9, 51, 46
9, 35100, Note_on_c, 9, 38, 120
9, 35125, Note_on_c, 9, 51, 0
9, 35145, Note_on_c, 9, 38, 0
9, 35160, Note_on_c, 9, 51, 9
9, 35180, Note_on_c, 9, 51, 0
9, 35220, Note_on_c, 9, 51, 12
9, 35220, Note_on_c, 9, 36, 120
9, 35240, Note_on_c, 9, 51, 0
9, 35265, Note_on_c, 9, 36, 0
9, 35280, Note_on_c, 9, 51, 38
9, 35280, Note_on_c, 9, 36, 120
9, 35305, Note_on_c, 9, 51, 0
9, 35325, Note_on_c, 9, 36, 0
9, 35340, Note_on_c, 9, 51, 42
9, 35360, Note_on_c, 9, 51, 0
9, 35400, Note_on_c, 9, 51, 12
9, 35420, Note_on_c, 9, 51, 0
9, 35460, Note_on_c, 9, 51, 55
9, 35460, Note_on_c, 9, 38, 120
9, 35485, Note_on_c, 9, 51, 0
9, 35505, Note_on_c, 9, 38, 0
9, 35520, Note_on_c, 9, 51, 11
9, 35545, Note_on_c, 9, 51, 0
9, 35580, Note_on_c, 9, 51, 17
9, 35595, Note_on_c, 9, 51, 0
9, 35640, Note_on_c, 9, 51, 50
9, 35640, Note_on_c, 9, 36, 120
9, 35665, Note_on_c, 9, 51, 0
9, 35685, Note_on_c, 9, 36, 0
9, 35700, Note_on_c, 9, 51, 7
9, 35725, Note_on_c, 9, 51, 0
9, 35760, Note_on_c, 9, 51, 16
9, 35780, Note_on_c, 9, 51, 0
9, 35820, Note_on_c, 9, 51, 50
9, 35820, Note_on_c, 9, 38, 120
9, 35845, Note_on_c, 9, 51, 0
9, 35865, Note_on_c, 9, 38, 0
9, 35880, Note_on_c, 9, 51, 11
9, 35905, Note_on_c, 9, 51, 0
9, 35940, Note_on_c, 9, 36, 120
9, 35940, Note_on_c, 9, 51, 40
9, 35955, Note_on_c, 9, 51, 0
9, 35985, Note_on_c, 9, 36, 0
9, 36000, Note_on_c, 9, 51, 57
9, 36000, Note_on_c, 9, 36, 120
9, 36015, Note_on_c, 9, 51, 0
9, 36045, Note_on_c, 9, 36, 0
9, 36060, Note_on_c, 9, 51, 56
9, 36075, Note_on_c, 9, 51, 0
9, 36120, Note_on_c, 9, 51, 6
9, 36140, Note_on_c, 9, 51, 0
9, 36180, Note_on_c, 9, 51, 45
9, 36180, Note_on_c, 9, 38, 120
9, 36205, Note_on_c, 9, 51, 0
9, 36225, Note_on_c, 9, 38, 0
9, 36240, Note_on_c, 9, 51, 9
9, 36240, Note_on_c, 9, 47, 120
9, 36260, Note_on_c, 9, 51, 0
9, 36285, Note_on_c, 9, 47, 0
9, 36300, Note_on_c, 9, 51, 32
9, 36300, Note_on_c, 9, 45, 120
9, 36320, Note_on_c, 9, 51, 0
9, 36345, Note_on_c, 9, 45, 0
9, 36360, Note_on_c, 9, 49, 68
9, 36360, Note_on_c, 9, 36, 120
9, 36360, Note_on_c, 9, 51, 58
9, 36380, Note_on_c, 9, 51, 0
9, 36405, Note_on_c, 9, 36, 0
9, 36420, Note_on_c, 9, 51, 18
9, 36445, Note_on_c, 9, 51, 0
9, 36480, Note_on_c, 9, 51, 32
9, 36480, Note_on_c, 9, 51, 16
9, 36481, Note_on_c, 9, 51, 0
9, 36500, Note_on_c, 9, 51, 0
9, 36510, Note_on_c, 9, 49, 0
9, 36540, Note_on_c, 9, 38, 120
9, 36540, Note_on_c, 9, 51, 40
9, 36580, Note_on_c, 9, 51, 0
9, 36585, Note_on_c, 9, 38, 0
9, 36600, Note_on_c, 9, 51, 22
9, 36620, Note_on_c, 9, 51, 0
9, 36660, Note_on_c, 9, 51, 14
9, 36660, Note_on_c, 9, 36, 120
9, 36685, Note_on_c, 9, 51, 0
9, 36705, Note_on_c, 9, 36, 0
9, 36720, Note_on_c, 9, 51, 14
9, 36720, Note_on_c, 9, 36, 120
9, 36720, Note_on_c, 9, 51, 26
9, 36721, Note_on_c, 9, 51, 0
9, 36740, Note_on_c, 9, 51, 0
9, 36765, Note_on_c, 9, 36, 0
9, 36780, Note_on_c, 9, 51, 25
9, 36800, Note_on_c, 9, 51, 0
9, 36840, Note_on_c, 9, 51, 18
9, 36860, Note_on_c, 9, 51, 0
9, 36900, Note_on_c, 9, 51, 26
9, 36900, Note_on_c, 9, 38, 120
9, 36925, Note_on_c, 9, 51, 0
9, 36945, Note_on_c, 9, 38, 0
9, 36960, Note_on_c, 9, 51, 23
9, 36960, Note_on_c, 9, 36, 120
9, 36975, Note_on_c, 9, 51, 0
9, 37005, Note_on_c, 9, 36, 0
9, 37020, Note_on_c, 9, 51, 20
9, 37040, Note_on_c, 9, 51, 0
9, 37080, Note_on_c, 9, 51, 46
9, 37080, Note_on_c, 9, 36, 120
9, 37100, Note_on_c, 9, 51, 0
9, 37125, Note_on_c, 9, 36, 0
9, 37140, Note_on_c, 9, 51, 26
9, 37155, Note_on_c, 9, 51, 0
9, 37200, Note_on_c, 9, 51, 21
9, 37225, Note_on_c, 9, 51, 0
9, 37260, Note_on_c, 9, 51, 45
9, 37260, Note_on_c, 9, 38, 120
9, 37280, Note_on_c, 9, 51, 0
9, 37305, Note_on_c, 9, 38, 0
9, 37320, Note_on_c, 9, 51, 6
9, 37320, Note_on_c, 9, 51, 24
9, 37321, Note_on_c, 9, 51, 0
9, 37335, Note_on_c, 9, 51, 0
9, 37380, Note_on_c, 9, 51, 19
9, 37380, Note_on_c, 9, 36, 120
9, 37395, Note_on_c, 9, 51, 0
9, 37425, Note_on_c, 9, 36, 0
9, 37440, Note_on_c, 9, 51, 46
9, 37440, Note_on_c, 9, 36, 120
9, 37460, Note_on_c, 9, 51, 0
9, 37485, Note_on_c, 9, 36, 0
9, 37500, Note_on_c, 9, 51, 16
9, 37500, Note_on_c, 9, 51, 14
9, 37501, Note_on_c, 9, 51, 0
9, 37520, Note_on_c, 9, 51, 0
9, 37560, Note_on_c, 9, 51, 6
9, 37575, Note_on_c, 9, 51, 0
9, 37620, Note_on_c, 9, 51, 55
9, 37620, Note_on_c, 9, 38, 120
9, 37620, Note_on_c, 9, 48, 82
9, 37645, Note_on_c, 9, 48, 0
9, 37645, Note_on_c, 9, 51, 0
9, 37665, Note_on_c, 9, 38, 0
9, 37680, Note_on_c, 9, 47, 95
9, 37680, Note_on_c, 9, 51, 35
9, 37680, Note_on_c, 9, 51, 13
9, 37681, Note_on_c, 9, 51, 0
9, 37695, Note_on_c, 9, 51, 0
9, 37700, Note_on_c, 9, 47, 0
9, 37740, Note_on_c, 9, 45, 115
9, 37740, Note_on_c, 9, 51, 21
9, 37755, Note_on_c, 9, 51, 0
9, 37760, Note_on_c, 9, 45, 0
9, 37800, Note_on_c, 9, 49, 79
9, 37800, Note_on_c, 9, 36, 120
9, 37800, Note_on_c, 9, 51, 48
9, 37815, Note_on_c, 9, 49, 0
9, 37820, Note_on_c, 9, 51, 0
9, 37845, Note_on_c, 9, 36, 0
9, 37860, Note_on_c, 9, 51, 5
9, 37875, Note_on_c, 9, 51, 0
9, 37920, Note_on_c, 9, 51, 23
9, 37940, Note_on_c, 9, 51, 0
9, 37980, Note_on_c, 9, 51, 46
9, 37980, Note_on_c, 9, 38, 120
9, 38005, Note_on_c, 9, 51, 0
9, 38025, Note_on_c, 9, 38, 0
9, 38040, Note_on_c, 9, 51, 9
9, 38060, Note_on_c, 9, 51, 0
9, 38100, Note_on_c, 9, 51, 12
9, 38100, Note_on_c, 9, 36, 120
9, 38120, Note_on_c, 9, 51, 0
9, 38145, Note_on_c, 9, 36, 0
9, 38160, Note_on_c, 9, 51, 38
9, 38160, Note_on_c, 9, 36, 120
9, 38185, Note_on_c, 9, 51, 0
9, 38205, Note_on_c, 9, 36, 0
9, 38220, Note_on_c, 9, 51, 42
9, 38240, Note_on_c, 9, 51, 0
9, 38280, Note_on_c, 9, 51, 12
9, 38300, Note_on_c, 9, 51, 0
9, 38340, Note_on_c, 9, 51, 55
9, 38340, Note_on_c, 9, 38, 120
9, 38365, Note_on_c, 9, 51, 0
9, 38385, Note_on_c, 9, 38, 0
9, 38400, Note_on_c, 9, 51, 11
9, 38425, Note_on_c, 9, 51, 0
9, 38460, Note_on_c, 9, 51, 17
9, 38475, Note_on_c, 9, 51, 0
9, 38520, Note_on_c, 9, 51, 50
9, 38520, Note_on_c, 9, 36, 120
9, 38545, Note_on_c, 9, 51, 0
9, 38565, Note_on_c, 9, 36, 0
9, 38575, Note_on_c, 9, 57, 55
9, 38580, Note_on_c, 9, 51, 7
9, 38605, Note_on_c, 9, 51, 0
9, 38640, Note_on_c, 9, 51, 16
9, 38660, Note_on_c, 9, 51, 0
9, 38700, Note_on_c, 9, 51, 50
9, 38700, Note_on_c, 9, 38, 120
9, 38725, Note_on_c, 9, 51, 0
9, 38745, Note_on_c, 9, 38, 0
9, 38760, Note_on_c, 9, 51, 11
9, 38785, Note_on_c, 9, 51, 0
9, 38820, Note_on_c, 9, 36, 120
9, 38820, Note_on_c, 9, 51, 40
9, 38835, Note_on_c, 9, 51, 0
9, 38865, Note_on_c, 9, 36, 0
9, 38880, Note_on_c, 9, 36, 120
9, 38880, Note_on_c, 9, 49, 56
9, 38905, Note_on_c, 9, 57, 0
9, 38975, Note_on_c, 9, 49, 0
9, 38975, Note_on_c, 9, 36, 0
9, 44820, Note_on_c, 9, 48, 91
9, 44845, Note_on_c, 9, 48, 0
9, 44880, Note_on_c, 9, 47, 99
9, 44900, Note_on_c, 9, 47, 0
9, 44940, Note_on_c, 9, 45, 103
9, 44960, Note_on_c, 9, 45, 0
9, 45000, Note_on_c, 9, 36, 120
9, 45045, Note_on_c, 9, 36, 0
9, 45060, Note_on_c, 9, 36, 120
9, 45105, Note_on_c, 9, 36, 0
9, 45180, Note_on_c, 9, 38, 120
9, 45180, Note_on_c, 9, 40, 56
9, 45225, Note_on_c, 9, 40, 0
9, 45225, Note_on_c, 9, 38, 0
9, 45480, Note_on_c, 9, 36, 120
9, 45525, Note_on_c, 9, 36, 0
9, 45540, Note_on_c, 9, 42, 88
9, 45560, Note_on_c, 9, 42, 0
9, 45660, Note_on_c, 9, 36, 88
9, 45705, Note_on_c, 9, 36, 0
9, 45720, Note_on_c, 9, 36, 120
9, 45765, Note_on_c, 9, 36, 0
9, 45780, Note_on_c, 9, 36, 120
9, 45825, Note_on_c, 9, 36, 0
9, 45900, Note_on_c, 9, 38, 120
9, 45900, Note_on_c, 9, 40, 56
9, 45945, Note_on_c, 9, 40, 0
9, 45945, Note_on_c, 9, 38, 0
9, 46140, Note_on_c, 9, 36, 120
9, 46185, Note_on_c, 9, 36, 0
9, 46200, Note_on_c, 9, 36, 120
9, 46235, Note_on_c, 9, 53, 62
9, 46245, Note_on_c, 9, 53, 0
9, 46245, Note_on_c, 9, 36, 0
9, 46250, Note_on_c, 9, 53, 33
9, 46260, Note_on_c, 9, 53, 56
9, 46260, Note_on_c, 9, 53, 0
9, 46355, Note_on_c, 9, 53, 0
9, 46440, Note_on_c, 9, 36, 120
9, 46485, Note_on_c, 9, 36, 0
9, 46500, Note_on_c, 9, 36, 120
9, 46545, Note_on_c, 9, 36, 0
9, 46620, Note_on_c, 9, 38, 120
9, 46620, Note_on_c, 9, 40, 56
9, 46665, Note_on_c, 9, 40, 0
9, 46665, Note_on_c, 9, 38, 0
9, 46920, Note_on_c, 9, 36, 120
9, 46965, Note_on_c, 9, 36, 0
9, 46980, Note_on_c, 9, 42, 88
9, 47000, Note_on_c, 9, 42, 0
9, 47100, Note_on_c, 9, 36, 88
9, 47145, Note_on_c, 9, 36, 0
9, 47160, Note_on_c, 9, 36, 120
9, 47205, Note_on_c, 9, 36, 0
9, 47220, Note_on_c, 9, 36, 120
9, 47265, Note_on_c, 9, 36, 0
9, 47340, Note_on_c, 9, 38, 120
9, 47340, Note_on_c, 9, 40, 56
9, 47385, Note_on_c, 9, 40, 0
9, 47385, Note_on_c, 9, 38, 0
9, 47580, Note_on_c, 9, 36, 120
9, 47625, Note_on_c, 9, 36, 0
9, 47640, Note_on_c, 9, 36, 120
9, 47675, Note_on_c, 9, 53, 62
9, 47685, Note_on_c, 9, 53, 0
9, 47685, Note_on_c, 9, 36, 0
9, 47690, Note_on_c, 9, 53, 33
9, 47700, Note_on_c, 9, 53, 56
9, 47700, Note_on_c, 9, 53, 0
9, 47795, Note_on_c, 9, 53, 0
9, 47820, Note_on_c, 9, 36, 88
9, 47865, Note_on_c, 9, 36, 0
9, 47880, Note_on_c, 9, 36, 120
9, 47925, Note_on_c, 9, 36, 0
9, 47940, Note_on_c, 9, 36, 120
9, 47985, Note_on_c, 9, 36, 0
9, 48060, Note_on_c, 9, 38, 120
9, 48060, Note_on_c, 9, 40, 56
9, 48105, Note_on_c, 9, 40, 0
9, 48105, Note_on_c, 9, 38, 0
9, 48360, Note_on_c, 9, 36, 120
9, 48405, Note_on_c, 9, 36, 0
9, 48420, Note_on_c, 9, 42, 88
9, 48440, Note_on_c, 9, 42, 0
9, 48540, Note_on_c, 9, 36, 88
9, 48585, Note_on_c, 9, 36, 0
9, 48600, Note_on_c, 9, 36, 120
9, 48645, Note_on_c, 9, 36, 0
9, 48660, Note_on_c, 9, 36, 120
9, 48705, Note_on_c, 9, 36, 0
9, 48780, Note_on_c, 9, 38, 120
9, 48780, Note_on_c, 9, 40, 56
9, 48825, Note_on_c, 9, 40, 0
9, 48825, Note_on_c, 9, 38, 0
9, 49020, Note_on_c, 9, 36, 120
9, 49065, Note_on_c, 9, 36, 0
9, 49080, Note_on_c, 9, 36, 120
9, 49115, Note_on_c, 9, 53, 62
9, 49125, Note_on_c, 9, 53, 0
9, 49125, Note_on_c, 9, 36, 0
9, 49130, Note_on_c, 9, 53, 33
9, 49140, Note_on_c, 9, 53, 56
9, 49140, Note_on_c, 9, 53, 0
9, 49235, Note_on_c, 9, 53, 0
9, 49320, Note_on_c, 9, 36, 120
9, 49365, Note_on_c, 9, 36, 0
9, 49380, Note_on_c, 9, 36, 120
9, 49425, Note_on_c, 9, 36, 0
9, 49500, Note_on_c, 9, 38, 120
9, 49500, Note_on_c, 9, 40, 56
9, 49545, Note_on_c, 9, 40, 0
9, 49545, Note_on_c, 9, 38, 0
9, 49800, Note_on_c, 9, 36, 120
9, 49845, Note_on_c, 9, 36, 0
9, 49860, Note_on_c, 9, 42, 88
9, 49880, Note_on_c, 9, 42, 0
9, 49980, Note_on_c, 9, 36, 88
9, 50025, Note_on_c, 9, 36, 0
9, 50040, Note_on_c, 9, 36, 120
9, 50085, Note_on_c, 9, 36, 0
9, 50100, Note_on_c, 9, 36, 120
9, 50145, Note_on_c, 9, 36, 0
9, 50220, Note_on_c, 9, 38, 120
9, 50220, Note_on_c, 9, 40, 56
9, 50265, Note_on_c, 9, 40, 0
9, 50265, Note_on_c, 9, 38, 0
9, 50460, Note_on_c, 9, 36, 120
9, 50505, Note_on_c, 9, 36, 0
9, 50520, Note_on_c, 9, 36, 120
9, 50555, Note_on_c, 9, 53, 62
9, 50565, Note_on_c, 9, 53, 0
9, 50565, Note_on_c, 9, 36, 0
9, 50570, Note_on_c, 9, 53, 33
9, 50580, Note_on_c, 9, 53, 56
9, 50580, Note_on_c, 9, 53, 0
9, 50635, Note_on_c, 9, 48, 84
9, 50660, Note_on_c, 9, 47, 76
9, 50660, Note_on_c, 9, 48, 0
9, 50675, Note_on_c, 9, 53, 0
9, 50680, Note_on_c, 9, 47, 0
9, 50690, Note_on_c, 9, 45, 91
9, 50710, Note_on_c, 9, 45, 0
9, 50760, Note_on_c, 9, 59, 67
9, 50760, Note_on_c, 9, 36, 120
9, 50805, Note_on_c, 9, 36, 0
9, 50865, Note_on_c, 9, 59, 0
9, 50945, Note_on_c, 9, 59, 84
9, 51060, Note_on_c, 9, 36, 120
9, 51105, Note_on_c, 9, 36, 0
9, 51120, Note_on_c, 9, 36, 120
9, 51165, Note_on_c, 9, 36, 0
9, 51170, Note_on_c, 9, 59, 0
9, 51180, Note_on_c, 9, 59, 68
9, 51375, Note_on_c, 9, 59, 0
9, 51425, Note_on_c, 9, 59, 46
9, 51440, Note_on_c, 9, 59, 0
9, 51455, Note_on_c, 9, 59, 61
9, 51465, Note_on_c, 9, 59, 0
9, 51480, Note_on_c, 9, 36, 120
9, 51480, Note_on_c, 9, 59, 91
9, 51525, Note_on_c, 9, 36, 0
9, 51630, Note_on_c, 9, 59, 0
9, 51675, Note_on_c, 9, 59, 95
9, 51780, Note_on_c, 9, 36, 120
9, 51825, Note_on_c, 9, 36, 0
9, 51840, Note_on_c, 9, 36, 120
9, 51885, Note_on_c, 9, 36, 0
9, 51890, Note_on_c, 9, 59, 0
9, 51895, Note_on_c, 9, 59, 68
9, 52085, Note_on_c, 9, 59, 0
9, 52140, Note_on_c, 9, 51, 37
9, 52185, Note_on_c, 9, 51, 0
9, 52200, Note_on_c, 9, 59, 67
9, 52200, Note_on_c, 9, 36, 120
9, 52245, Note_on_c, 9, 36, 0
9, 52305, Note_on_c, 9, 59, 0
9, 52385, Note_on_c, 9, 59, 84
9, 52500, Note_on_c, 9, 36, 120
9, 52545, Note_on_c, 9, 36, 0
9, 52560, Note_on_c, 9, 36, 120
9, 52605, Note_on_c, 9, 36, 0
9, 52610, Note_on_c, 9, 59, 0
9, 52620, Note_on_c, 9, 59, 68
9, 52815, Note_on_c, 9, 59, 0
9, 52865, Note_on_c, 9, 59, 46
9, 52880, Note_on_c, 9, 59, 0
9, 52895, Note_on_c, 9, 59, 61
9, 52905, Note_on_c, 9, 59, 0
9, 52920, Note_on_c, 9, 36, 120
9, 52920, Note_on_c, 9, 59, 91
9, 52965, Note_on_c, 9, 36, 0
9, 53070, Note_on_c, 9, 59, 0
9, 53100, Note_on_c, 9, 59, 95
9, 53220, Note_on_c, 9, 36, 120
9, 53265, Note_on_c, 9, 36, 0
9, 53280, Note_on_c, 9, 36, 120
9, 53315, Note_on_c, 9, 59, 0
9, 53325, Note_on_c, 9, 36, 0
9, 53340, Note_on_c, 9, 59, 68
9, 53530, Note_on_c, 9, 59, 0
9, 53580, Note_on_c, 9, 59, 60
9, 53610, Note_on_c, 9, 59, 0
9, 53640, Note_on_c, 9, 59, 66
9, 53640, Note_on_c, 9, 36, 120
9, 53720, Note_on_c, 9, 59, 0
9, 53735, Note_on_c, 9, 36, 0
9, 53755, Note_on_c, 9, 59, 14
9, 53775, Note_on_c, 9, 59, 0
9, 53820, Note_on_c, 9, 59, 62
9, 53885, Note_on_c, 9, 59, 0
9, 53935, Note_on_c, 9, 59, 16
9, 53940, Note_on_c, 9, 36, 120
9, 53960, Note_on_c, 9, 59, 0
9, 53995, Note_on_c, 9, 59, 64
9, 54000, Note_on_c, 9, 36, 120
9, 54000, Note_on_c, 9, 36, 0
9, 54035, Note_on_c, 9, 36, 0
9, 54070, Note_on_c, 9, 59, 0
9, 54120, Note_on_c, 9, 59, 16
9, 54140, Note_on_c, 9, 59, 0
9, 54180, Note_on_c, 9, 59, 64
9, 54260, Note_on_c, 9, 59, 0
9, 54290, Note_on_c, 9, 59, 17
9, 54315, Note_on_c, 9, 59, 0
9, 54360, Note_on_c, 9, 36, 120
9, 54365, Note_on_c, 9, 59, 66
9, 54440, Note_on_c, 9, 59, 0
9, 54455, Note_on_c, 9, 36, 0
9, 54485, Note_on_c, 9, 59, 14
9, 54510, Note_on_c, 9, 59, 0
9, 54545, Note_on_c, 9, 59, 63
9, 54625, Note_on_c, 9, 59, 0
9, 54660, Note_on_c, 9, 36, 120
9, 54665, Note_on_c, 9, 59, 11
9, 54685, Note_on_c, 9, 59, 0
9, 54720, Note_on_c, 9, 36, 120
9, 54720, Note_on_c, 9, 36, 0
9, 54725, Note_on_c, 9, 59, 64
9, 54755, Note_on_c, 9, 36, 0
9, 54795, Note_on_c, 9, 59, 0
9, 54845, Note_on_c, 9, 59, 23
9, 54870, Note_on_c, 9, 59, 0
9, 54905, Note_on_c, 9, 59, 62
9, 54990, Note_on_c, 9, 59, 0
9, 55030, Note_on_c, 9, 59, 21
9, 55060, Note_on_c, 9, 59, 0
9, 55100, Note_on_c, 9, 59, 51
9, 55385, Note_on_c, 9, 59, 0
9, 55385, End_track
10, 0, Start_track
10, 0, MIDI_port, 0
10, 0, Title_t, "Chi Mai"
10, 0, End_track
11, 0, Start_track
11, 0, MIDI_port, 0
11, 0, Title_t, "Original by Ennio Morricone"
11, 0, End_track
12, 0, Start_track
12, 0, MIDI_port, 0
12, 0, Title_t, "Sequenced by HMW"
12, 0, End_track
13, 0, Start_track
13, 0, MIDI_port, 0
13, 0, Title_t, "4th June 94"
13, 0, End_track
14, 0, Start_track
14, 0, MIDI_port, 0
14, 0, Title_t, "Contact me:"
14, 0, End_track
15, 0, Start_track
15, 0, MIDI_port, 0
15, 0, Title_t, "hmw%mmgs%linuxpub@csah.com"
15, 0, End_track
0, 0, End_of_file
