0, 0, Header, 1, 21, 480
1, 0, Start_track
1, 0, Title_t, "Choosey Lover"
1, 0, SMPTE_offset, 96, 0, 0, 0, 0
1, 0, Tempo, 857142
1, 0, Time_signature, 1, 2, 24, 8
1, 480, Time_signature, 4, 2, 24, 8
1, 146400, End_track
2, 0, Start_track
2, 0, Instrument_name_t, "SB AWE32 MIDI Synth [62"
2, 0, Title_t, "Choosey Lover"
2, 0, Control_c, 9, 121, 127
2, 2, Program_c, 9, 0
2, 5, Control_c, 9, 91, 0
2, 10, Control_c, 9, 7, 127
2, 15, Control_c, 9, 92, 0
2, 20, Control_c, 9, 93, 0
2, 25, Control_c, 9, 94, 0
2, 30, Control_c, 9, 95, 0
2, 95, Copyright_t, "1998 Sequenced by Taro Sato"
2, 480, Note_on_c, 9, 35, 127
2, 480, Control_c, 9, 91, 0
2, 480, Note_on_c, 9, 42, 127
2, 480, Note_on_c, 9, 35, 127
2, 600, Note_off_c, 9, 35, 64
2, 600, Note_off_c, 9, 42, 64
2, 600, Note_off_c, 9, 35, 64
2, 725, Note_on_c, 9, 42, 127
2, 845, Note_off_c, 9, 42, 64
2, 968, Control_c, 9, 91, 127
2, 968, Note_on_c, 9, 38, 127
2, 968, Note_on_c, 9, 42, 127
2, 968, Note_on_c, 9, 38, 127
2, 1088, Note_off_c, 9, 38, 64
2, 1088, Note_off_c, 9, 42, 64
2, 1088, Note_off_c, 9, 38, 64
2, 1200, Control_c, 9, 91, 0
2, 1208, Note_on_c, 9, 42, 127
2, 1208, Note_on_c, 9, 35, 127
2, 1208, Note_on_c, 9, 35, 127
2, 1328, Note_off_c, 9, 42, 64
2, 1328, Note_off_c, 9, 35, 64
2, 1328, Note_off_c, 9, 35, 64
2, 1443, Note_on_c, 9, 42, 127
2, 1443, Note_on_c, 9, 35, 127
2, 1443, Note_on_c, 9, 35, 127
2, 1563, Note_off_c, 9, 42, 64
2, 1563, Note_off_c, 9, 35, 64
2, 1563, Note_off_c, 9, 35, 64
2, 1683, Note_on_c, 9, 42, 127
2, 1803, Note_off_c, 9, 42, 64
2, 1925, Control_c, 9, 91, 127
2, 1925, Note_on_c, 9, 38, 127
2, 1925, Note_on_c, 9, 42, 127
2, 1925, Note_on_c, 9, 38, 127
2, 2045, Note_off_c, 9, 38, 64
2, 2045, Note_off_c, 9, 42, 64
2, 2045, Note_off_c, 9, 38, 64
2, 2160, Control_c, 9, 91, 0
2, 2163, Note_on_c, 9, 46, 127
2, 2283, Note_off_c, 9, 46, 64
2, 2403, Note_on_c, 9, 35, 127
2, 2403, Note_on_c, 9, 35, 127
2, 2403, Note_on_c, 9, 42, 127
2, 2523, Note_off_c, 9, 35, 64
2, 2523, Note_off_c, 9, 35, 64
2, 2523, Note_off_c, 9, 42, 64
2, 2640, Note_on_c, 9, 42, 127
2, 2760, Note_off_c, 9, 42, 64
2, 2880, Control_c, 9, 91, 127
2, 2880, Note_on_c, 9, 38, 127
2, 2880, Note_on_c, 9, 42, 127
2, 2880, Note_on_c, 9, 38, 127
2, 3000, Note_off_c, 9, 38, 64
2, 3000, Note_off_c, 9, 42, 64
2, 3000, Note_off_c, 9, 38, 64
2, 3120, Control_c, 9, 91, 0
2, 3128, Note_on_c, 9, 42, 127
2, 3128, Note_on_c, 9, 35, 127
2, 3128, Note_on_c, 9, 35, 127
2, 3248, Note_off_c, 9, 42, 64
2, 3248, Note_off_c, 9, 35, 64
2, 3248, Note_off_c, 9, 35, 64
2, 3358, Note_on_c, 9, 42, 127
2, 3358, Note_on_c, 9, 35, 127
2, 3358, Note_on_c, 9, 35, 127
2, 3478, Note_off_c, 9, 42, 64
2, 3478, Note_off_c, 9, 35, 64
2, 3478, Note_off_c, 9, 35, 64
2, 3595, Note_on_c, 9, 42, 127
2, 3715, Note_off_c, 9, 42, 64
2, 3835, Control_c, 9, 91, 127
2, 3835, Note_on_c, 9, 38, 127
2, 3835, Note_on_c, 9, 42, 127
2, 3835, Note_on_c, 9, 38, 127
2, 3840, Note_on_c, 9, 83, 89
2, 3955, Control_c, 9, 91, 0
2, 3955, Note_off_c, 9, 38, 64
2, 3955, Note_off_c, 9, 42, 64
2, 3955, Note_off_c, 9, 38, 64
2, 3960, Note_off_c, 9, 83, 64
2, 3960, Control_c, 9, 91, 127
2, 3960, Note_on_c, 9, 83, 127
2, 3960, Note_on_c, 9, 38, 127
2, 3960, Note_on_c, 9, 38, 127
2, 4080, Note_off_c, 9, 83, 64
2, 4080, Note_off_c, 9, 38, 64
2, 4080, Note_off_c, 9, 38, 64
2, 4085, Note_on_c, 9, 46, 127
2, 4205, Note_off_c, 9, 46, 64
2, 4320, Control_c, 9, 91, 0
2, 4320, Note_on_c, 9, 35, 127
2, 4320, Note_on_c, 9, 42, 127
2, 4320, Note_on_c, 9, 55, 127
2, 4320, Note_on_c, 9, 35, 127
2, 4440, Note_off_c, 9, 35, 64
2, 4440, Note_off_c, 9, 42, 64
2, 4440, Note_off_c, 9, 55, 64
2, 4440, Note_off_c, 9, 35, 64
2, 4565, Note_on_c, 9, 42, 127
2, 4685, Note_off_c, 9, 42, 64
2, 4808, Control_c, 9, 91, 127
2, 4808, Note_on_c, 9, 38, 127
2, 4808, Note_on_c, 9, 42, 127
2, 4808, Note_on_c, 9, 38, 127
2, 4928, Note_off_c, 9, 38, 64
2, 4928, Note_off_c, 9, 42, 64
2, 4928, Note_off_c, 9, 38, 64
2, 5040, Control_c, 9, 91, 0
2, 5048, Note_on_c, 9, 42, 127
2, 5048, Note_on_c, 9, 35, 127
2, 5048, Note_on_c, 9, 35, 127
2, 5168, Note_off_c, 9, 42, 64
2, 5168, Note_off_c, 9, 35, 64
2, 5168, Note_off_c, 9, 35, 64
2, 5283, Note_on_c, 9, 42, 127
2, 5283, Note_on_c, 9, 35, 127
2, 5283, Note_on_c, 9, 35, 127
2, 5403, Note_off_c, 9, 42, 64
2, 5403, Note_off_c, 9, 35, 64
2, 5403, Note_off_c, 9, 35, 64
2, 5523, Note_on_c, 9, 42, 127
2, 5643, Note_off_c, 9, 42, 64
2, 5765, Control_c, 9, 91, 127
2, 5765, Note_on_c, 9, 38, 127
2, 5765, Note_on_c, 9, 42, 127
2, 5765, Note_on_c, 9, 38, 127
2, 5885, Note_off_c, 9, 38, 64
2, 5885, Note_off_c, 9, 42, 64
2, 5885, Note_off_c, 9, 38, 64
2, 6000, Control_c, 9, 91, 0
2, 6003, Note_on_c, 9, 46, 127
2, 6123, Note_off_c, 9, 46, 64
2, 6243, Note_on_c, 9, 35, 127
2, 6243, Note_on_c, 9, 42, 127
2, 6243, Note_on_c, 9, 35, 127
2, 6363, Note_off_c, 9, 35, 64
2, 6363, Note_off_c, 9, 42, 64
2, 6363, Note_off_c, 9, 35, 64
2, 6480, Note_on_c, 9, 42, 127
2, 6600, Note_off_c, 9, 42, 64
2, 6720, Control_c, 9, 91, 127
2, 6720, Note_on_c, 9, 38, 127
2, 6720, Note_on_c, 9, 42, 127
2, 6720, Note_on_c, 9, 38, 127
2, 6840, Note_off_c, 9, 38, 64
2, 6840, Note_off_c, 9, 42, 64
2, 6840, Note_off_c, 9, 38, 64
2, 6960, Control_c, 9, 91, 0
2, 6968, Note_on_c, 9, 42, 127
2, 6968, Note_on_c, 9, 35, 127
2, 6968, Note_on_c, 9, 35, 127
2, 7088, Note_off_c, 9, 42, 64
2, 7088, Note_off_c, 9, 35, 64
2, 7088, Note_off_c, 9, 35, 64
2, 7198, Note_on_c, 9, 42, 127
2, 7198, Note_on_c, 9, 35, 127
2, 7198, Note_on_c, 9, 35, 127
2, 7318, Note_off_c, 9, 42, 64
2, 7318, Note_off_c, 9, 35, 64
2, 7318, Note_off_c, 9, 35, 64
2, 7435, Note_on_c, 9, 42, 127
2, 7555, Note_off_c, 9, 42, 64
2, 7675, Control_c, 9, 91, 127
2, 7675, Note_on_c, 9, 38, 127
2, 7675, Note_on_c, 9, 42, 127
2, 7675, Note_on_c, 9, 38, 127
2, 7795, Note_off_c, 9, 38, 64
2, 7795, Note_off_c, 9, 42, 64
2, 7795, Note_off_c, 9, 38, 64
2, 7920, Control_c, 9, 91, 0
2, 7925, Note_on_c, 9, 46, 127
2, 8045, Note_off_c, 9, 46, 64
2, 8160, Note_on_c, 9, 35, 127
2, 8160, Note_on_c, 9, 35, 127
2, 8160, Note_on_c, 9, 42, 127
2, 8280, Note_off_c, 9, 35, 64
2, 8280, Note_off_c, 9, 35, 64
2, 8280, Note_off_c, 9, 42, 64
2, 8405, Note_on_c, 9, 42, 127
2, 8525, Note_off_c, 9, 42, 64
2, 8648, Control_c, 9, 91, 127
2, 8648, Note_on_c, 9, 38, 127
2, 8648, Note_on_c, 9, 42, 127
2, 8648, Note_on_c, 9, 38, 127
2, 8768, Note_off_c, 9, 38, 64
2, 8768, Note_off_c, 9, 42, 64
2, 8768, Note_off_c, 9, 38, 64
2, 8880, Control_c, 9, 91, 0
2, 8888, Note_on_c, 9, 42, 127
2, 8888, Note_on_c, 9, 35, 127
2, 8888, Note_on_c, 9, 35, 127
2, 9008, Note_off_c, 9, 42, 64
2, 9008, Note_off_c, 9, 35, 64
2, 9008, Note_off_c, 9, 35, 64
2, 9123, Note_on_c, 9, 42, 127
2, 9123, Note_on_c, 9, 35, 127
2, 9123, Note_on_c, 9, 35, 127
2, 9243, Note_off_c, 9, 42, 64
2, 9243, Note_off_c, 9, 35, 64
2, 9243, Note_off_c, 9, 35, 64
2, 9363, Note_on_c, 9, 42, 127
2, 9483, Note_off_c, 9, 42, 64
2, 9605, Control_c, 9, 91, 127
2, 9605, Note_on_c, 9, 38, 127
2, 9605, Note_on_c, 9, 42, 127
2, 9605, Note_on_c, 9, 38, 127
2, 9725, Note_off_c, 9, 38, 64
2, 9725, Note_off_c, 9, 42, 64
2, 9725, Note_off_c, 9, 38, 64
2, 9840, Control_c, 9, 91, 0
2, 9843, Note_on_c, 9, 46, 127
2, 9963, Note_off_c, 9, 46, 64
2, 10083, Note_on_c, 9, 35, 127
2, 10083, Note_on_c, 9, 35, 127
2, 10083, Note_on_c, 9, 42, 127
2, 10203, Note_off_c, 9, 35, 64
2, 10203, Note_off_c, 9, 35, 64
2, 10203, Note_off_c, 9, 42, 64
2, 10320, Note_on_c, 9, 42, 127
2, 10440, Note_off_c, 9, 42, 64
2, 10560, Control_c, 9, 91, 127
2, 10560, Note_on_c, 9, 38, 127
2, 10560, Note_on_c, 9, 42, 127
2, 10560, Note_on_c, 9, 38, 127
2, 10680, Note_off_c, 9, 38, 64
2, 10680, Note_off_c, 9, 42, 64
2, 10680, Note_off_c, 9, 38, 64
2, 10800, Control_c, 9, 91, 0
2, 10808, Note_on_c, 9, 42, 127
2, 10808, Note_on_c, 9, 35, 127
2, 10808, Note_on_c, 9, 35, 127
2, 10928, Note_off_c, 9, 42, 64
2, 10928, Note_off_c, 9, 35, 64
2, 10928, Note_off_c, 9, 35, 64
2, 11038, Note_on_c, 9, 42, 127
2, 11038, Note_on_c, 9, 35, 127
2, 11038, Note_on_c, 9, 35, 127
2, 11158, Note_off_c, 9, 42, 64
2, 11158, Note_off_c, 9, 35, 64
2, 11158, Note_off_c, 9, 35, 64
2, 11275, Note_on_c, 9, 42, 127
2, 11395, Note_off_c, 9, 42, 64
2, 11515, Control_c, 9, 91, 127
2, 11515, Note_on_c, 9, 38, 127
2, 11515, Note_on_c, 9, 42, 127
2, 11515, Note_on_c, 9, 38, 127
2, 11520, Note_on_c, 9, 83, 89
2, 11635, Control_c, 9, 91, 0
2, 11635, Note_off_c, 9, 38, 64
2, 11635, Note_off_c, 9, 42, 64
2, 11635, Note_off_c, 9, 38, 64
2, 11640, Note_off_c, 9, 83, 64
2, 11640, Control_c, 9, 91, 127
2, 11640, Note_on_c, 9, 38, 127
2, 11640, Note_on_c, 9, 83, 127
2, 11640, Note_on_c, 9, 38, 127
2, 11760, Note_off_c, 9, 38, 64
2, 11760, Note_off_c, 9, 83, 64
2, 11760, Note_off_c, 9, 38, 64
2, 11765, Note_on_c, 9, 46, 127
2, 11885, Note_off_c, 9, 46, 64
2, 12000, Control_c, 9, 91, 0
2, 12000, Note_on_c, 9, 35, 127
2, 12000, Note_on_c, 9, 42, 127
2, 12000, Note_on_c, 9, 35, 127
2, 12120, Note_off_c, 9, 35, 64
2, 12120, Note_off_c, 9, 42, 64
2, 12120, Note_off_c, 9, 35, 64
2, 12245, Note_on_c, 9, 42, 127
2, 12365, Note_off_c, 9, 42, 64
2, 12488, Control_c, 9, 91, 127
2, 12488, Note_on_c, 9, 38, 127
2, 12488, Note_on_c, 9, 42, 127
2, 12488, Note_on_c, 9, 38, 127
2, 12608, Note_off_c, 9, 38, 64
2, 12608, Note_off_c, 9, 42, 64
2, 12608, Note_off_c, 9, 38, 64
2, 12720, Control_c, 9, 91, 0
2, 12728, Note_on_c, 9, 42, 127
2, 12728, Note_on_c, 9, 35, 127
2, 12728, Note_on_c, 9, 35, 127
2, 12848, Note_off_c, 9, 42, 64
2, 12848, Note_off_c, 9, 35, 64
2, 12848, Note_off_c, 9, 35, 64
2, 12963, Note_on_c, 9, 42, 127
2, 12963, Note_on_c, 9, 35, 127
2, 12963, Note_on_c, 9, 35, 127
2, 13083, Note_off_c, 9, 42, 64
2, 13083, Note_off_c, 9, 35, 64
2, 13083, Note_off_c, 9, 35, 64
2, 13203, Note_on_c, 9, 42, 127
2, 13323, Note_off_c, 9, 42, 64
2, 13445, Control_c, 9, 91, 127
2, 13445, Note_on_c, 9, 38, 127
2, 13445, Note_on_c, 9, 42, 127
2, 13445, Note_on_c, 9, 38, 127
2, 13565, Note_off_c, 9, 38, 64
2, 13565, Note_off_c, 9, 42, 64
2, 13565, Note_off_c, 9, 38, 64
2, 13680, Control_c, 9, 91, 0
2, 13683, Note_on_c, 9, 46, 127
2, 13803, Note_off_c, 9, 46, 64
2, 13923, Note_on_c, 9, 35, 127
2, 13923, Note_on_c, 9, 42, 127
2, 13923, Note_on_c, 9, 35, 127
2, 14043, Note_off_c, 9, 35, 64
2, 14043, Note_off_c, 9, 42, 64
2, 14043, Note_off_c, 9, 35, 64
2, 14160, Note_on_c, 9, 42, 127
2, 14280, Note_off_c, 9, 42, 64
2, 14400, Control_c, 9, 91, 127
2, 14400, Note_on_c, 9, 38, 127
2, 14400, Note_on_c, 9, 42, 127
2, 14400, Note_on_c, 9, 38, 127
2, 14520, Note_off_c, 9, 38, 64
2, 14520, Note_off_c, 9, 42, 64
2, 14520, Note_off_c, 9, 38, 64
2, 14640, Control_c, 9, 91, 0
2, 14648, Note_on_c, 9, 42, 127
2, 14648, Note_on_c, 9, 35, 127
2, 14648, Note_on_c, 9, 35, 127
2, 14768, Note_off_c, 9, 42, 64
2, 14768, Note_off_c, 9, 35, 64
2, 14768, Note_off_c, 9, 35, 64
2, 14878, Note_on_c, 9, 42, 127
2, 14878, Note_on_c, 9, 35, 127
2, 14878, Note_on_c, 9, 35, 127
2, 14998, Note_off_c, 9, 42, 64
2, 14998, Note_off_c, 9, 35, 64
2, 14998, Note_off_c, 9, 35, 64
2, 15115, Note_on_c, 9, 42, 127
2, 15235, Note_off_c, 9, 42, 64
2, 15355, Control_c, 9, 91, 127
2, 15355, Note_on_c, 9, 38, 127
2, 15355, Note_on_c, 9, 42, 127
2, 15355, Note_on_c, 9, 38, 127
2, 15475, Note_off_c, 9, 38, 64
2, 15475, Note_off_c, 9, 42, 64
2, 15475, Note_off_c, 9, 38, 64
2, 15600, Control_c, 9, 91, 0
2, 15605, Note_on_c, 9, 46, 127
2, 15725, Note_off_c, 9, 46, 64
2, 15840, Note_on_c, 9, 35, 127
2, 15840, Note_on_c, 9, 35, 127
2, 15840, Note_on_c, 9, 42, 127
2, 15960, Note_off_c, 9, 35, 64
2, 15960, Note_off_c, 9, 35, 64
2, 15960, Note_off_c, 9, 42, 64
2, 16085, Note_on_c, 9, 42, 127
2, 16205, Note_off_c, 9, 42, 64
2, 16328, Control_c, 9, 91, 127
2, 16328, Note_on_c, 9, 38, 127
2, 16328, Note_on_c, 9, 42, 127
2, 16328, Note_on_c, 9, 38, 127
2, 16448, Note_off_c, 9, 38, 64
2, 16448, Note_off_c, 9, 42, 64
2, 16448, Note_off_c, 9, 38, 64
2, 16560, Control_c, 9, 91, 0
2, 16568, Note_on_c, 9, 42, 127
2, 16568, Note_on_c, 9, 35, 127
2, 16568, Note_on_c, 9, 35, 127
2, 16688, Note_off_c, 9, 42, 64
2, 16688, Note_off_c, 9, 35, 64
2, 16688, Note_off_c, 9, 35, 64
2, 16803, Note_on_c, 9, 42, 127
2, 16803, Note_on_c, 9, 35, 127
2, 16803, Note_on_c, 9, 35, 127
2, 16923, Note_off_c, 9, 42, 64
2, 16923, Note_off_c, 9, 35, 64
2, 16923, Note_off_c, 9, 35, 64
2, 17043, Note_on_c, 9, 42, 127
2, 17163, Note_off_c, 9, 42, 64
2, 17285, Control_c, 9, 91, 127
2, 17285, Note_on_c, 9, 38, 127
2, 17285, Note_on_c, 9, 42, 127
2, 17285, Note_on_c, 9, 38, 127
2, 17405, Note_off_c, 9, 38, 64
2, 17405, Note_off_c, 9, 42, 64
2, 17405, Note_off_c, 9, 38, 64
2, 17520, Control_c, 9, 91, 0
2, 17523, Note_on_c, 9, 46, 127
2, 17643, Note_off_c, 9, 46, 64
2, 17763, Note_on_c, 9, 35, 127
2, 17763, Note_on_c, 9, 35, 127
2, 17763, Note_on_c, 9, 42, 127
2, 17883, Note_off_c, 9, 35, 64
2, 17883, Note_off_c, 9, 35, 64
2, 17883, Note_off_c, 9, 42, 64
2, 18000, Note_on_c, 9, 42, 127
2, 18120, Note_off_c, 9, 42, 64
2, 18240, Control_c, 9, 91, 127
2, 18240, Note_on_c, 9, 38, 127
2, 18240, Note_on_c, 9, 42, 127
2, 18240, Note_on_c, 9, 38, 127
2, 18360, Note_off_c, 9, 38, 64
2, 18360, Note_off_c, 9, 42, 64
2, 18360, Note_off_c, 9, 38, 64
2, 18480, Control_c, 9, 91, 0
2, 18488, Note_on_c, 9, 42, 127
2, 18488, Note_on_c, 9, 35, 127
2, 18488, Note_on_c, 9, 35, 127
2, 18608, Note_off_c, 9, 42, 64
2, 18608, Note_off_c, 9, 35, 64
2, 18608, Note_off_c, 9, 35, 64
2, 18718, Note_on_c, 9, 42, 127
2, 18718, Note_on_c, 9, 35, 127
2, 18718, Note_on_c, 9, 35, 127
2, 18838, Note_off_c, 9, 42, 64
2, 18838, Note_off_c, 9, 35, 64
2, 18838, Note_off_c, 9, 35, 64
2, 18955, Note_on_c, 9, 42, 127
2, 19075, Note_off_c, 9, 42, 64
2, 19195, Control_c, 9, 91, 127
2, 19195, Note_on_c, 9, 38, 127
2, 19195, Note_on_c, 9, 42, 127
2, 19195, Note_on_c, 9, 38, 127
2, 19200, Note_on_c, 9, 83, 89
2, 19315, Control_c, 9, 91, 0
2, 19315, Note_off_c, 9, 38, 64
2, 19315, Note_off_c, 9, 42, 64
2, 19315, Note_off_c, 9, 38, 64
2, 19320, Note_off_c, 9, 83, 64
2, 19320, Control_c, 9, 91, 127
2, 19320, Note_on_c, 9, 83, 127
2, 19320, Note_on_c, 9, 38, 127
2, 19343, Note_on_c, 9, 38, 99
2, 19440, Note_off_c, 9, 83, 64
2, 19440, Note_off_c, 9, 38, 64
2, 19440, Note_on_c, 9, 84, 127
2, 19445, Note_on_c, 9, 46, 127
2, 19463, Note_off_c, 9, 38, 64
2, 19565, Note_off_c, 9, 46, 64
2, 19680, Control_c, 9, 91, 0
2, 19680, Note_off_c, 9, 84, 64
2, 19680, Note_on_c, 9, 35, 127
2, 19680, Note_on_c, 9, 42, 127
2, 19680, Note_on_c, 9, 55, 127
2, 19680, Note_on_c, 9, 35, 127
2, 19800, Note_off_c, 9, 35, 64
2, 19800, Note_off_c, 9, 42, 64
2, 19800, Note_off_c, 9, 55, 64
2, 19800, Note_off_c, 9, 35, 64
2, 19925, Note_on_c, 9, 42, 127
2, 20045, Note_off_c, 9, 42, 64
2, 20168, Control_c, 9, 91, 127
2, 20168, Note_on_c, 9, 38, 127
2, 20168, Note_on_c, 9, 42, 127
2, 20168, Note_on_c, 9, 38, 127
2, 20288, Note_off_c, 9, 38, 64
2, 20288, Note_off_c, 9, 42, 64
2, 20288, Note_off_c, 9, 38, 64
2, 20400, Control_c, 9, 91, 0
2, 20408, Note_on_c, 9, 42, 127
2, 20408, Note_on_c, 9, 35, 127
2, 20408, Note_on_c, 9, 35, 127
2, 20528, Note_off_c, 9, 42, 64
2, 20528, Note_off_c, 9, 35, 64
2, 20528, Note_off_c, 9, 35, 64
2, 20643, Note_on_c, 9, 42, 127
2, 20643, Note_on_c, 9, 35, 127
2, 20643, Note_on_c, 9, 35, 127
2, 20763, Note_off_c, 9, 42, 64
2, 20763, Note_off_c, 9, 35, 64
2, 20763, Note_off_c, 9, 35, 64
2, 20883, Note_on_c, 9, 42, 127
2, 21003, Note_off_c, 9, 42, 64
2, 21125, Control_c, 9, 91, 127
2, 21125, Note_on_c, 9, 38, 127
2, 21125, Note_on_c, 9, 42, 127
2, 21125, Note_on_c, 9, 38, 127
2, 21245, Note_off_c, 9, 38, 64
2, 21245, Note_off_c, 9, 42, 64
2, 21245, Note_off_c, 9, 38, 64
2, 21360, Control_c, 9, 91, 0
2, 21363, Note_on_c, 9, 46, 127
2, 21483, Note_off_c, 9, 46, 64
2, 21603, Note_on_c, 9, 35, 127
2, 21603, Note_on_c, 9, 42, 127
2, 21603, Note_on_c, 9, 35, 127
2, 21723, Note_off_c, 9, 35, 64
2, 21723, Note_off_c, 9, 42, 64
2, 21723, Note_off_c, 9, 35, 64
2, 21840, Note_on_c, 9, 42, 127
2, 21960, Note_off_c, 9, 42, 64
2, 22080, Control_c, 9, 91, 127
2, 22080, Note_on_c, 9, 38, 127
2, 22080, Note_on_c, 9, 42, 127
2, 22080, Note_on_c, 9, 38, 127
2, 22200, Note_off_c, 9, 38, 64
2, 22200, Note_off_c, 9, 42, 64
2, 22200, Note_off_c, 9, 38, 64
2, 22320, Control_c, 9, 91, 0
2, 22328, Note_on_c, 9, 42, 127
2, 22328, Note_on_c, 9, 35, 127
2, 22328, Note_on_c, 9, 35, 127
2, 22448, Note_off_c, 9, 42, 64
2, 22448, Note_off_c, 9, 35, 64
2, 22448, Note_off_c, 9, 35, 64
2, 22558, Note_on_c, 9, 42, 127
2, 22558, Note_on_c, 9, 35, 127
2, 22558, Note_on_c, 9, 35, 127
2, 22678, Note_off_c, 9, 42, 64
2, 22678, Note_off_c, 9, 35, 64
2, 22678, Note_off_c, 9, 35, 64
2, 22795, Note_on_c, 9, 42, 127
2, 22915, Note_off_c, 9, 42, 64
2, 23035, Control_c, 9, 91, 127
2, 23035, Note_on_c, 9, 38, 127
2, 23035, Note_on_c, 9, 42, 127
2, 23035, Note_on_c, 9, 38, 127
2, 23155, Note_off_c, 9, 38, 64
2, 23155, Note_off_c, 9, 42, 64
2, 23155, Note_off_c, 9, 38, 64
2, 23280, Control_c, 9, 91, 0
2, 23285, Note_on_c, 9, 46, 127
2, 23405, Note_off_c, 9, 46, 64
2, 23520, Note_on_c, 9, 35, 127
2, 23520, Note_on_c, 9, 35, 127
2, 23520, Note_on_c, 9, 42, 127
2, 23640, Note_off_c, 9, 35, 64
2, 23640, Note_off_c, 9, 35, 64
2, 23640, Note_off_c, 9, 42, 64
2, 23765, Note_on_c, 9, 42, 127
2, 23885, Note_off_c, 9, 42, 64
2, 24008, Control_c, 9, 91, 127
2, 24008, Note_on_c, 9, 38, 127
2, 24008, Note_on_c, 9, 42, 127
2, 24008, Note_on_c, 9, 38, 127
2, 24128, Note_off_c, 9, 38, 64
2, 24128, Note_off_c, 9, 42, 64
2, 24128, Note_off_c, 9, 38, 64
2, 24240, Control_c, 9, 91, 0
2, 24248, Note_on_c, 9, 42, 127
2, 24248, Note_on_c, 9, 35, 127
2, 24248, Note_on_c, 9, 35, 127
2, 24368, Note_off_c, 9, 42, 64
2, 24368, Note_off_c, 9, 35, 64
2, 24368, Note_off_c, 9, 35, 64
2, 24483, Note_on_c, 9, 42, 127
2, 24483, Note_on_c, 9, 35, 127
2, 24483, Note_on_c, 9, 35, 127
2, 24603, Note_off_c, 9, 42, 64
2, 24603, Note_off_c, 9, 35, 64
2, 24603, Note_off_c, 9, 35, 64
2, 24723, Note_on_c, 9, 42, 127
2, 24843, Note_off_c, 9, 42, 64
2, 24965, Control_c, 9, 91, 127
2, 24965, Note_on_c, 9, 38, 127
2, 24965, Note_on_c, 9, 42, 127
2, 24965, Note_on_c, 9, 38, 127
2, 25085, Note_off_c, 9, 38, 64
2, 25085, Note_off_c, 9, 42, 64
2, 25085, Note_off_c, 9, 38, 64
2, 25200, Control_c, 9, 91, 0
2, 25203, Note_on_c, 9, 46, 127
2, 25323, Note_off_c, 9, 46, 64
2, 25443, Note_on_c, 9, 35, 127
2, 25443, Note_on_c, 9, 35, 127
2, 25443, Note_on_c, 9, 42, 127
2, 25563, Note_off_c, 9, 35, 64
2, 25563, Note_off_c, 9, 35, 64
2, 25563, Note_off_c, 9, 42, 64
2, 25680, Note_on_c, 9, 42, 127
2, 25800, Note_off_c, 9, 42, 64
2, 25920, Control_c, 9, 91, 127
2, 25920, Note_on_c, 9, 38, 127
2, 25920, Note_on_c, 9, 42, 127
2, 25920, Note_on_c, 9, 38, 127
2, 26040, Note_off_c, 9, 38, 64
2, 26040, Note_off_c, 9, 42, 64
2, 26040, Note_off_c, 9, 38, 64
2, 26160, Control_c, 9, 91, 0
2, 26168, Note_on_c, 9, 42, 127
2, 26168, Note_on_c, 9, 35, 127
2, 26168, Note_on_c, 9, 35, 127
2, 26288, Note_off_c, 9, 42, 64
2, 26288, Note_off_c, 9, 35, 64
2, 26288, Note_off_c, 9, 35, 64
2, 26398, Note_on_c, 9, 42, 127
2, 26398, Note_on_c, 9, 35, 127
2, 26398, Note_on_c, 9, 35, 127
2, 26518, Note_off_c, 9, 42, 64
2, 26518, Note_off_c, 9, 35, 64
2, 26518, Note_off_c, 9, 35, 64
2, 26635, Note_on_c, 9, 42, 127
2, 26755, Note_off_c, 9, 42, 64
2, 26875, Control_c, 9, 91, 127
2, 26875, Note_on_c, 9, 38, 127
2, 26875, Note_on_c, 9, 42, 127
2, 26875, Note_on_c, 9, 38, 127
2, 26880, Note_on_c, 9, 83, 89
2, 26995, Control_c, 9, 91, 0
2, 26995, Note_off_c, 9, 38, 64
2, 26995, Note_off_c, 9, 42, 64
2, 26995, Note_off_c, 9, 38, 64
2, 27000, Note_off_c, 9, 83, 64
2, 27000, Control_c, 9, 91, 127
2, 27000, Note_on_c, 9, 38, 127
2, 27000, Note_on_c, 9, 83, 127
2, 27000, Note_on_c, 9, 38, 127
2, 27120, Note_off_c, 9, 38, 64
2, 27120, Note_off_c, 9, 83, 64
2, 27120, Note_off_c, 9, 38, 64
2, 27125, Note_on_c, 9, 46, 127
2, 27245, Note_off_c, 9, 46, 64
2, 27360, Control_c, 9, 91, 0
2, 27360, Note_on_c, 9, 35, 127
2, 27360, Note_on_c, 9, 42, 127
2, 27360, Note_on_c, 9, 35, 127
2, 27480, Note_off_c, 9, 35, 64
2, 27480, Note_off_c, 9, 42, 64
2, 27480, Note_off_c, 9, 35, 64
2, 27605, Note_on_c, 9, 42, 127
2, 27725, Note_off_c, 9, 42, 64
2, 27848, Control_c, 9, 91, 127
2, 27848, Note_on_c, 9, 38, 127
2, 27848, Note_on_c, 9, 42, 127
2, 27848, Note_on_c, 9, 38, 127
2, 27968, Note_off_c, 9, 38, 64
2, 27968, Note_off_c, 9, 42, 64
2, 27968, Note_off_c, 9, 38, 64
2, 28080, Control_c, 9, 91, 0
2, 28088, Note_on_c, 9, 42, 127
2, 28088, Note_on_c, 9, 35, 127
2, 28088, Note_on_c, 9, 35, 127
2, 28208, Note_off_c, 9, 42, 64
2, 28208, Note_off_c, 9, 35, 64
2, 28208, Note_off_c, 9, 35, 64
2, 28323, Note_on_c, 9, 42, 127
2, 28323, Note_on_c, 9, 35, 127
2, 28323, Note_on_c, 9, 35, 127
2, 28443, Note_off_c, 9, 42, 64
2, 28443, Note_off_c, 9, 35, 64
2, 28443, Note_off_c, 9, 35, 64
2, 28563, Note_on_c, 9, 42, 127
2, 28683, Note_off_c, 9, 42, 64
2, 28805, Control_c, 9, 91, 127
2, 28805, Note_on_c, 9, 38, 127
2, 28805, Note_on_c, 9, 42, 127
2, 28805, Note_on_c, 9, 38, 127
2, 28925, Note_off_c, 9, 38, 64
2, 28925, Note_off_c, 9, 42, 64
2, 28925, Note_off_c, 9, 38, 64
2, 29040, Control_c, 9, 91, 0
2, 29043, Note_on_c, 9, 46, 127
2, 29163, Note_off_c, 9, 46, 64
2, 29283, Note_on_c, 9, 35, 127
2, 29283, Note_on_c, 9, 42, 127
2, 29283, Note_on_c, 9, 35, 127
2, 29403, Note_off_c, 9, 35, 64
2, 29403, Note_off_c, 9, 42, 64
2, 29403, Note_off_c, 9, 35, 64
2, 29520, Note_on_c, 9, 42, 127
2, 29640, Note_off_c, 9, 42, 64
2, 29760, Control_c, 9, 91, 127
2, 29760, Note_on_c, 9, 38, 127
2, 29760, Note_on_c, 9, 42, 127
2, 29760, Note_on_c, 9, 38, 127
2, 29880, Note_off_c, 9, 38, 64
2, 29880, Note_off_c, 9, 42, 64
2, 29880, Note_off_c, 9, 38, 64
2, 30000, Control_c, 9, 91, 0
2, 30008, Note_on_c, 9, 42, 127
2, 30008, Note_on_c, 9, 35, 127
2, 30008, Note_on_c, 9, 35, 127
2, 30128, Note_off_c, 9, 42, 64
2, 30128, Note_off_c, 9, 35, 64
2, 30128, Note_off_c, 9, 35, 64
2, 30238, Note_on_c, 9, 42, 127
2, 30238, Note_on_c, 9, 35, 127
2, 30238, Note_on_c, 9, 35, 127
2, 30358, Note_off_c, 9, 42, 64
2, 30358, Note_off_c, 9, 35, 64
2, 30358, Note_off_c, 9, 35, 64
2, 30475, Note_on_c, 9, 42, 127
2, 30595, Note_off_c, 9, 42, 64
2, 30715, Control_c, 9, 91, 127
2, 30715, Note_on_c, 9, 38, 127
2, 30715, Note_on_c, 9, 42, 127
2, 30715, Note_on_c, 9, 38, 127
2, 30835, Note_off_c, 9, 38, 64
2, 30835, Note_off_c, 9, 42, 64
2, 30835, Note_off_c, 9, 38, 64
2, 30960, Control_c, 9, 91, 0
2, 30965, Note_on_c, 9, 46, 127
2, 31085, Note_off_c, 9, 46, 64
2, 31200, Note_on_c, 9, 35, 127
2, 31200, Note_on_c, 9, 35, 127
2, 31200, Note_on_c, 9, 42, 127
2, 31320, Note_off_c, 9, 35, 64
2, 31320, Note_off_c, 9, 35, 64
2, 31320, Note_off_c, 9, 42, 64
2, 31445, Note_on_c, 9, 42, 127
2, 31565, Note_off_c, 9, 42, 64
2, 31688, Control_c, 9, 91, 127
2, 31688, Note_on_c, 9, 38, 127
2, 31688, Note_on_c, 9, 42, 127
2, 31688, Note_on_c, 9, 38, 127
2, 31808, Note_off_c, 9, 38, 64
2, 31808, Note_off_c, 9, 42, 64
2, 31808, Note_off_c, 9, 38, 64
2, 31920, Control_c, 9, 91, 0
2, 31928, Note_on_c, 9, 42, 127
2, 31928, Note_on_c, 9, 35, 127
2, 31928, Note_on_c, 9, 35, 127
2, 32048, Note_off_c, 9, 42, 64
2, 32048, Note_off_c, 9, 35, 64
2, 32048, Note_off_c, 9, 35, 64
2, 32163, Note_on_c, 9, 42, 127
2, 32163, Note_on_c, 9, 35, 127
2, 32163, Note_on_c, 9, 35, 127
2, 32283, Note_off_c, 9, 42, 64
2, 32283, Note_off_c, 9, 35, 64
2, 32283, Note_off_c, 9, 35, 64
2, 32403, Note_on_c, 9, 42, 127
2, 32523, Note_off_c, 9, 42, 64
2, 32645, Control_c, 9, 91, 127
2, 32645, Note_on_c, 9, 38, 127
2, 32645, Note_on_c, 9, 42, 127
2, 32645, Note_on_c, 9, 38, 127
2, 32765, Note_off_c, 9, 38, 64
2, 32765, Note_off_c, 9, 42, 64
2, 32765, Note_off_c, 9, 38, 64
2, 32880, Control_c, 9, 91, 0
2, 32883, Note_on_c, 9, 46, 127
2, 33003, Note_off_c, 9, 46, 64
2, 33123, Note_on_c, 9, 35, 127
2, 33123, Note_on_c, 9, 35, 127
2, 33123, Note_on_c, 9, 42, 127
2, 33243, Note_off_c, 9, 35, 64
2, 33243, Note_off_c, 9, 35, 64
2, 33243, Note_off_c, 9, 42, 64
2, 33360, Note_on_c, 9, 42, 127
2, 33480, Note_off_c, 9, 42, 64
2, 33600, Control_c, 9, 91, 127
2, 33600, Note_on_c, 9, 38, 127
2, 33600, Note_on_c, 9, 42, 127
2, 33600, Note_on_c, 9, 38, 127
2, 33720, Note_off_c, 9, 38, 64
2, 33720, Note_off_c, 9, 42, 64
2, 33720, Note_off_c, 9, 38, 64
2, 33840, Control_c, 9, 91, 0
2, 33848, Note_on_c, 9, 42, 127
2, 33848, Note_on_c, 9, 35, 127
2, 33848, Note_on_c, 9, 35, 127
2, 33968, Note_off_c, 9, 42, 64
2, 33968, Note_off_c, 9, 35, 64
2, 33968, Note_off_c, 9, 35, 64
2, 34078, Note_on_c, 9, 42, 127
2, 34078, Note_on_c, 9, 35, 127
2, 34078, Note_on_c, 9, 35, 127
2, 34198, Note_off_c, 9, 42, 64
2, 34198, Note_off_c, 9, 35, 64
2, 34198, Note_off_c, 9, 35, 64
2, 34315, Note_on_c, 9, 42, 127
2, 34435, Note_off_c, 9, 42, 64
2, 34555, Control_c, 9, 91, 127
2, 34555, Note_on_c, 9, 38, 127
2, 34555, Note_on_c, 9, 42, 127
2, 34555, Note_on_c, 9, 38, 127
2, 34560, Note_on_c, 9, 83, 89
2, 34675, Control_c, 9, 91, 0
2, 34675, Note_off_c, 9, 38, 64
2, 34675, Note_off_c, 9, 42, 64
2, 34675, Note_off_c, 9, 38, 64
2, 34680, Note_off_c, 9, 83, 64
2, 34680, Control_c, 9, 91, 127
2, 34680, Note_on_c, 9, 83, 127
2, 34680, Note_on_c, 9, 38, 127
2, 34703, Note_on_c, 9, 38, 99
2, 34800, Note_off_c, 9, 83, 64
2, 34800, Note_off_c, 9, 38, 64
2, 34800, Note_on_c, 9, 84, 127
2, 34805, Note_on_c, 9, 46, 127
2, 34823, Note_off_c, 9, 38, 64
2, 34925, Note_off_c, 9, 46, 64
2, 35040, Note_off_c, 9, 84, 64
2, 35040, Note_on_c, 9, 35, 127
2, 35040, Control_c, 9, 91, 0
2, 35040, Note_on_c, 9, 42, 127
2, 35040, Note_on_c, 9, 55, 127
2, 35040, Note_on_c, 9, 35, 127
2, 35160, Note_off_c, 9, 35, 64
2, 35160, Note_off_c, 9, 42, 64
2, 35160, Note_off_c, 9, 55, 64
2, 35160, Note_off_c, 9, 35, 64
2, 35285, Note_on_c, 9, 42, 127
2, 35405, Note_off_c, 9, 42, 64
2, 35528, Control_c, 9, 91, 127
2, 35528, Note_on_c, 9, 38, 127
2, 35528, Note_on_c, 9, 42, 127
2, 35528, Note_on_c, 9, 38, 127
2, 35648, Note_off_c, 9, 38, 64
2, 35648, Note_off_c, 9, 42, 64
2, 35648, Note_off_c, 9, 38, 64
2, 35760, Control_c, 9, 91, 0
2, 35768, Note_on_c, 9, 42, 127
2, 35768, Note_on_c, 9, 35, 127
2, 35768, Note_on_c, 9, 35, 127
2, 35888, Note_off_c, 9, 42, 64
2, 35888, Note_off_c, 9, 35, 64
2, 35888, Note_off_c, 9, 35, 64
2, 36003, Note_on_c, 9, 42, 127
2, 36003, Note_on_c, 9, 35, 127
2, 36003, Note_on_c, 9, 35, 127
2, 36123, Note_off_c, 9, 42, 64
2, 36123, Note_off_c, 9, 35, 64
2, 36123, Note_off_c, 9, 35, 64
2, 36243, Note_on_c, 9, 42, 127
2, 36363, Note_off_c, 9, 42, 64
2, 36485, Control_c, 9, 91, 127
2, 36485, Note_on_c, 9, 38, 127
2, 36485, Note_on_c, 9, 42, 127
2, 36485, Note_on_c, 9, 38, 127
2, 36605, Note_off_c, 9, 38, 64
2, 36605, Note_off_c, 9, 42, 64
2, 36605, Note_off_c, 9, 38, 64
2, 36720, Control_c, 9, 91, 0
2, 36723, Note_on_c, 9, 46, 127
2, 36843, Note_off_c, 9, 46, 64
2, 36963, Note_on_c, 9, 35, 127
2, 36963, Note_on_c, 9, 42, 127
2, 36963, Note_on_c, 9, 35, 127
2, 37083, Note_off_c, 9, 35, 64
2, 37083, Note_off_c, 9, 42, 64
2, 37083, Note_off_c, 9, 35, 64
2, 37200, Note_on_c, 9, 42, 127
2, 37320, Note_off_c, 9, 42, 64
2, 37440, Control_c, 9, 91, 127
2, 37440, Note_on_c, 9, 38, 127
2, 37440, Note_on_c, 9, 42, 127
2, 37440, Note_on_c, 9, 38, 127
2, 37560, Note_off_c, 9, 38, 64
2, 37560, Note_off_c, 9, 42, 64
2, 37560, Note_off_c, 9, 38, 64
2, 37680, Control_c, 9, 91, 0
2, 37688, Note_on_c, 9, 42, 127
2, 37688, Note_on_c, 9, 35, 127
2, 37688, Note_on_c, 9, 35, 127
2, 37808, Note_off_c, 9, 42, 64
2, 37808, Note_off_c, 9, 35, 64
2, 37808, Note_off_c, 9, 35, 64
2, 37918, Note_on_c, 9, 42, 127
2, 37918, Note_on_c, 9, 35, 127
2, 37918, Note_on_c, 9, 35, 127
2, 38038, Note_off_c, 9, 42, 64
2, 38038, Note_off_c, 9, 35, 64
2, 38038, Note_off_c, 9, 35, 64
2, 38155, Note_on_c, 9, 42, 127
2, 38275, Note_off_c, 9, 42, 64
2, 38395, Control_c, 9, 91, 127
2, 38395, Note_on_c, 9, 38, 127
2, 38395, Note_on_c, 9, 42, 127
2, 38395, Note_on_c, 9, 38, 127
2, 38515, Note_off_c, 9, 38, 64
2, 38515, Note_off_c, 9, 42, 64
2, 38515, Note_off_c, 9, 38, 64
2, 38640, Control_c, 9, 91, 0
2, 38645, Note_on_c, 9, 46, 127
2, 38765, Note_off_c, 9, 46, 64
2, 38880, Note_on_c, 9, 35, 127
2, 38880, Note_on_c, 9, 35, 127
2, 38880, Note_on_c, 9, 42, 127
2, 39000, Note_off_c, 9, 35, 64
2, 39000, Note_off_c, 9, 35, 64
2, 39000, Note_off_c, 9, 42, 64
2, 39125, Note_on_c, 9, 42, 127
2, 39245, Note_off_c, 9, 42, 64
2, 39368, Control_c, 9, 91, 127
2, 39368, Note_on_c, 9, 38, 127
2, 39368, Note_on_c, 9, 42, 127
2, 39368, Note_on_c, 9, 38, 127
2, 39488, Note_off_c, 9, 38, 64
2, 39488, Note_off_c, 9, 42, 64
2, 39488, Note_off_c, 9, 38, 64
2, 39600, Control_c, 9, 91, 0
2, 39608, Note_on_c, 9, 42, 127
2, 39608, Note_on_c, 9, 35, 127
2, 39608, Note_on_c, 9, 35, 127
2, 39728, Note_off_c, 9, 42, 64
2, 39728, Note_off_c, 9, 35, 64
2, 39728, Note_off_c, 9, 35, 64
2, 39843, Note_on_c, 9, 42, 127
2, 39843, Note_on_c, 9, 35, 127
2, 39843, Note_on_c, 9, 35, 127
2, 39963, Note_off_c, 9, 42, 64
2, 39963, Note_off_c, 9, 35, 64
2, 39963, Note_off_c, 9, 35, 64
2, 40083, Note_on_c, 9, 42, 127
2, 40203, Note_off_c, 9, 42, 64
2, 40325, Control_c, 9, 91, 127
2, 40325, Note_on_c, 9, 38, 127
2, 40325, Note_on_c, 9, 42, 127
2, 40325, Note_on_c, 9, 38, 127
2, 40445, Note_off_c, 9, 38, 64
2, 40445, Note_off_c, 9, 42, 64
2, 40445, Note_off_c, 9, 38, 64
2, 40560, Control_c, 9, 91, 0
2, 40563, Note_on_c, 9, 46, 127
2, 40683, Note_off_c, 9, 46, 64
2, 40803, Note_on_c, 9, 35, 127
2, 40803, Note_on_c, 9, 35, 127
2, 40803, Note_on_c, 9, 42, 127
2, 40923, Note_off_c, 9, 35, 64
2, 40923, Note_off_c, 9, 35, 64
2, 40923, Note_off_c, 9, 42, 64
2, 41040, Note_on_c, 9, 42, 127
2, 41160, Note_off_c, 9, 42, 64
2, 41280, Control_c, 9, 91, 127
2, 41280, Note_on_c, 9, 38, 127
2, 41280, Note_on_c, 9, 42, 127
2, 41280, Note_on_c, 9, 38, 127
2, 41400, Note_off_c, 9, 38, 64
2, 41400, Note_off_c, 9, 42, 64
2, 41400, Note_off_c, 9, 38, 64
2, 41520, Control_c, 9, 91, 0
2, 41528, Note_on_c, 9, 42, 127
2, 41528, Note_on_c, 9, 35, 127
2, 41528, Note_on_c, 9, 35, 127
2, 41648, Note_off_c, 9, 42, 64
2, 41648, Note_off_c, 9, 35, 64
2, 41648, Note_off_c, 9, 35, 64
2, 41758, Note_on_c, 9, 42, 127
2, 41758, Note_on_c, 9, 35, 127
2, 41758, Note_on_c, 9, 35, 127
2, 41878, Note_off_c, 9, 42, 64
2, 41878, Note_off_c, 9, 35, 64
2, 41878, Note_off_c, 9, 35, 64
2, 41995, Note_on_c, 9, 42, 127
2, 42115, Note_off_c, 9, 42, 64
2, 42235, Control_c, 9, 91, 127
2, 42235, Note_on_c, 9, 38, 127
2, 42235, Note_on_c, 9, 42, 127
2, 42235, Note_on_c, 9, 38, 127
2, 42240, Note_on_c, 9, 83, 89
2, 42355, Control_c, 9, 91, 0
2, 42355, Note_off_c, 9, 38, 64
2, 42355, Note_off_c, 9, 42, 64
2, 42355, Note_off_c, 9, 38, 64
2, 42360, Note_off_c, 9, 83, 64
2, 42360, Control_c, 9, 91, 127
2, 42360, Note_on_c, 9, 38, 127
2, 42360, Note_on_c, 9, 83, 127
2, 42360, Note_on_c, 9, 38, 127
2, 42480, Note_off_c, 9, 38, 64
2, 42480, Note_off_c, 9, 83, 64
2, 42480, Note_off_c, 9, 38, 64
2, 42485, Note_on_c, 9, 46, 127
2, 42605, Note_off_c, 9, 46, 64
2, 42720, Control_c, 9, 91, 0
2, 42720, Note_on_c, 9, 35, 127
2, 42720, Note_on_c, 9, 42, 127
2, 42720, Note_on_c, 9, 35, 127
2, 42840, Note_off_c, 9, 35, 64
2, 42840, Note_off_c, 9, 42, 64
2, 42840, Note_off_c, 9, 35, 64
2, 42965, Note_on_c, 9, 42, 127
2, 43085, Note_off_c, 9, 42, 64
2, 43208, Control_c, 9, 91, 127
2, 43208, Note_on_c, 9, 38, 127
2, 43208, Note_on_c, 9, 42, 127
2, 43208, Note_on_c, 9, 38, 127
2, 43328, Note_off_c, 9, 38, 64
2, 43328, Note_off_c, 9, 42, 64
2, 43328, Note_off_c, 9, 38, 64
2, 43440, Control_c, 9, 91, 0
2, 43448, Note_on_c, 9, 42, 127
2, 43448, Note_on_c, 9, 35, 127
2, 43448, Note_on_c, 9, 35, 127
2, 43568, Note_off_c, 9, 42, 64
2, 43568, Note_off_c, 9, 35, 64
2, 43568, Note_off_c, 9, 35, 64
2, 43683, Note_on_c, 9, 42, 127
2, 43683, Note_on_c, 9, 35, 127
2, 43683, Note_on_c, 9, 35, 127
2, 43803, Note_off_c, 9, 42, 64
2, 43803, Note_off_c, 9, 35, 64
2, 43803, Note_off_c, 9, 35, 64
2, 43923, Note_on_c, 9, 42, 127
2, 44043, Note_off_c, 9, 42, 64
2, 44165, Control_c, 9, 91, 127
2, 44165, Note_on_c, 9, 38, 127
2, 44165, Note_on_c, 9, 42, 127
2, 44165, Note_on_c, 9, 38, 127
2, 44285, Note_off_c, 9, 38, 64
2, 44285, Note_off_c, 9, 42, 64
2, 44285, Note_off_c, 9, 38, 64
2, 44400, Control_c, 9, 91, 0
2, 44403, Note_on_c, 9, 46, 127
2, 44523, Note_off_c, 9, 46, 64
2, 44643, Note_on_c, 9, 35, 127
2, 44643, Note_on_c, 9, 42, 127
2, 44643, Note_on_c, 9, 35, 127
2, 44763, Note_off_c, 9, 35, 64
2, 44763, Note_off_c, 9, 42, 64
2, 44763, Note_off_c, 9, 35, 64
2, 44880, Note_on_c, 9, 42, 127
2, 45000, Note_off_c, 9, 42, 64
2, 45120, Control_c, 9, 91, 127
2, 45120, Note_on_c, 9, 38, 127
2, 45120, Note_on_c, 9, 42, 127
2, 45120, Note_on_c, 9, 38, 127
2, 45240, Note_off_c, 9, 38, 64
2, 45240, Note_off_c, 9, 42, 64
2, 45240, Note_off_c, 9, 38, 64
2, 45360, Control_c, 9, 91, 0
2, 45368, Note_on_c, 9, 42, 127
2, 45368, Note_on_c, 9, 35, 127
2, 45368, Note_on_c, 9, 35, 127
2, 45488, Note_off_c, 9, 42, 64
2, 45488, Note_off_c, 9, 35, 64
2, 45488, Note_off_c, 9, 35, 64
2, 45598, Note_on_c, 9, 42, 127
2, 45598, Note_on_c, 9, 35, 127
2, 45598, Note_on_c, 9, 35, 127
2, 45718, Note_off_c, 9, 42, 64
2, 45718, Note_off_c, 9, 35, 64
2, 45718, Note_off_c, 9, 35, 64
2, 45835, Note_on_c, 9, 42, 127
2, 45955, Note_off_c, 9, 42, 64
2, 46075, Control_c, 9, 91, 127
2, 46075, Note_on_c, 9, 38, 127
2, 46075, Note_on_c, 9, 42, 127
2, 46075, Note_on_c, 9, 38, 127
2, 46195, Note_off_c, 9, 38, 64
2, 46195, Note_off_c, 9, 42, 64
2, 46195, Note_off_c, 9, 38, 64
2, 46320, Control_c, 9, 91, 0
2, 46325, Note_on_c, 9, 46, 127
2, 46445, Note_off_c, 9, 46, 64
2, 46560, Note_on_c, 9, 35, 127
2, 46560, Note_on_c, 9, 35, 127
2, 46560, Note_on_c, 9, 42, 127
2, 46680, Note_off_c, 9, 35, 64
2, 46680, Note_off_c, 9, 35, 64
2, 46680, Note_off_c, 9, 42, 64
2, 46805, Note_on_c, 9, 42, 127
2, 46925, Note_off_c, 9, 42, 64
2, 47048, Control_c, 9, 91, 127
2, 47048, Note_on_c, 9, 38, 127
2, 47048, Note_on_c, 9, 42, 127
2, 47048, Note_on_c, 9, 38, 127
2, 47168, Note_off_c, 9, 38, 64
2, 47168, Note_off_c, 9, 42, 64
2, 47168, Note_off_c, 9, 38, 64
2, 47280, Control_c, 9, 91, 0
2, 47288, Note_on_c, 9, 42, 127
2, 47288, Note_on_c, 9, 35, 127
2, 47288, Note_on_c, 9, 35, 127
2, 47408, Note_off_c, 9, 42, 64
2, 47408, Note_off_c, 9, 35, 64
2, 47408, Note_off_c, 9, 35, 64
2, 47523, Note_on_c, 9, 42, 127
2, 47523, Note_on_c, 9, 35, 127
2, 47523, Note_on_c, 9, 35, 127
2, 47643, Note_off_c, 9, 42, 64
2, 47643, Note_off_c, 9, 35, 64
2, 47643, Note_off_c, 9, 35, 64
2, 47763, Note_on_c, 9, 42, 127
2, 47883, Note_off_c, 9, 42, 64
2, 48005, Control_c, 9, 91, 127
2, 48005, Note_on_c, 9, 38, 127
2, 48005, Note_on_c, 9, 42, 127
2, 48005, Note_on_c, 9, 38, 127
2, 48125, Note_off_c, 9, 38, 64
2, 48125, Note_off_c, 9, 42, 64
2, 48125, Note_off_c, 9, 38, 64
2, 48240, Control_c, 9, 91, 0
2, 48243, Note_on_c, 9, 46, 127
2, 48363, Note_off_c, 9, 46, 64
2, 48483, Note_on_c, 9, 35, 127
2, 48483, Note_on_c, 9, 35, 127
2, 48483, Note_on_c, 9, 42, 127
2, 48603, Note_off_c, 9, 35, 64
2, 48603, Note_off_c, 9, 35, 64
2, 48603, Note_off_c, 9, 42, 64
2, 48720, Note_on_c, 9, 42, 127
2, 48840, Note_off_c, 9, 42, 64
2, 48960, Control_c, 9, 91, 127
2, 48960, Note_on_c, 9, 38, 127
2, 48960, Note_on_c, 9, 42, 127
2, 48960, Note_on_c, 9, 38, 127
2, 49080, Note_off_c, 9, 38, 64
2, 49080, Note_off_c, 9, 42, 64
2, 49080, Note_off_c, 9, 38, 64
2, 49200, Control_c, 9, 91, 0
2, 49208, Note_on_c, 9, 42, 127
2, 49208, Note_on_c, 9, 35, 127
2, 49208, Note_on_c, 9, 35, 127
2, 49328, Note_off_c, 9, 42, 64
2, 49328, Note_off_c, 9, 35, 64
2, 49328, Note_off_c, 9, 35, 64
2, 49438, Note_on_c, 9, 42, 127
2, 49438, Note_on_c, 9, 35, 127
2, 49438, Note_on_c, 9, 35, 127
2, 49558, Note_off_c, 9, 42, 64
2, 49558, Note_off_c, 9, 35, 64
2, 49558, Note_off_c, 9, 35, 64
2, 49675, Note_on_c, 9, 42, 127
2, 49795, Note_off_c, 9, 42, 64
2, 49915, Control_c, 9, 91, 127
2, 49915, Note_on_c, 9, 38, 127
2, 49915, Note_on_c, 9, 42, 127
2, 49915, Note_on_c, 9, 38, 127
2, 49920, Note_on_c, 9, 83, 89
2, 50035, Control_c, 9, 91, 0
2, 50035, Note_off_c, 9, 38, 64
2, 50035, Note_off_c, 9, 42, 64
2, 50035, Note_off_c, 9, 38, 64
2, 50040, Note_off_c, 9, 83, 64
2, 50040, Control_c, 9, 91, 127
2, 50040, Note_on_c, 9, 83, 127
2, 50040, Note_on_c, 9, 38, 127
2, 50063, Note_on_c, 9, 38, 99
2, 50160, Note_off_c, 9, 83, 64
2, 50160, Note_off_c, 9, 38, 64
2, 50160, Note_on_c, 9, 84, 127
2, 50165, Note_on_c, 9, 46, 127
2, 50183, Note_off_c, 9, 38, 64
2, 50285, Note_off_c, 9, 46, 64
2, 50400, Note_off_c, 9, 84, 64
2, 50400, Note_on_c, 9, 35, 127
2, 50400, Control_c, 9, 91, 0
2, 50400, Note_on_c, 9, 42, 127
2, 50400, Note_on_c, 9, 55, 127
2, 50400, Note_on_c, 9, 35, 127
2, 50520, Note_off_c, 9, 35, 64
2, 50520, Note_off_c, 9, 42, 64
2, 50520, Note_off_c, 9, 55, 64
2, 50520, Note_off_c, 9, 35, 64
2, 50645, Note_on_c, 9, 42, 127
2, 50765, Note_off_c, 9, 42, 64
2, 50888, Control_c, 9, 91, 127
2, 50888, Note_on_c, 9, 38, 127
2, 50888, Note_on_c, 9, 42, 127
2, 50888, Note_on_c, 9, 38, 127
2, 51008, Note_off_c, 9, 38, 64
2, 51008, Note_off_c, 9, 42, 64
2, 51008, Note_off_c, 9, 38, 64
2, 51120, Control_c, 9, 91, 0
2, 51128, Note_on_c, 9, 42, 127
2, 51128, Note_on_c, 9, 35, 127
2, 51128, Note_on_c, 9, 35, 127
2, 51248, Note_off_c, 9, 42, 64
2, 51248, Note_off_c, 9, 35, 64
2, 51248, Note_off_c, 9, 35, 64
2, 51363, Note_on_c, 9, 42, 127
2, 51363, Note_on_c, 9, 35, 127
2, 51363, Note_on_c, 9, 35, 127
2, 51483, Note_off_c, 9, 42, 64
2, 51483, Note_off_c, 9, 35, 64
2, 51483, Note_off_c, 9, 35, 64
2, 51603, Note_on_c, 9, 42, 127
2, 51723, Note_off_c, 9, 42, 64
2, 51845, Control_c, 9, 91, 127
2, 51845, Note_on_c, 9, 38, 127
2, 51845, Note_on_c, 9, 42, 127
2, 51845, Note_on_c, 9, 38, 127
2, 51965, Note_off_c, 9, 38, 64
2, 51965, Note_off_c, 9, 42, 64
2, 51965, Note_off_c, 9, 38, 64
2, 52080, Control_c, 9, 91, 0
2, 52083, Note_on_c, 9, 46, 127
2, 52203, Note_off_c, 9, 46, 64
2, 52323, Note_on_c, 9, 35, 127
2, 52323, Note_on_c, 9, 42, 127
2, 52323, Note_on_c, 9, 35, 127
2, 52443, Note_off_c, 9, 35, 64
2, 52443, Note_off_c, 9, 42, 64
2, 52443, Note_off_c, 9, 35, 64
2, 52560, Note_on_c, 9, 42, 127
2, 52680, Note_off_c, 9, 42, 64
2, 52800, Control_c, 9, 91, 127
2, 52800, Note_on_c, 9, 38, 127
2, 52800, Note_on_c, 9, 42, 127
2, 52800, Note_on_c, 9, 38, 127
2, 52920, Note_off_c, 9, 38, 64
2, 52920, Note_off_c, 9, 42, 64
2, 52920, Note_off_c, 9, 38, 64
2, 53040, Control_c, 9, 91, 0
2, 53048, Note_on_c, 9, 42, 127
2, 53048, Note_on_c, 9, 35, 127
2, 53048, Note_on_c, 9, 35, 127
2, 53168, Note_off_c, 9, 42, 64
2, 53168, Note_off_c, 9, 35, 64
2, 53168, Note_off_c, 9, 35, 64
2, 53278, Note_on_c, 9, 42, 127
2, 53278, Note_on_c, 9, 35, 127
2, 53278, Note_on_c, 9, 35, 127
2, 53398, Note_off_c, 9, 42, 64
2, 53398, Note_off_c, 9, 35, 64
2, 53398, Note_off_c, 9, 35, 64
2, 53515, Note_on_c, 9, 42, 127
2, 53635, Note_off_c, 9, 42, 64
2, 53755, Control_c, 9, 91, 127
2, 53755, Note_on_c, 9, 38, 127
2, 53755, Note_on_c, 9, 42, 127
2, 53755, Note_on_c, 9, 38, 127
2, 53875, Note_off_c, 9, 38, 64
2, 53875, Note_off_c, 9, 42, 64
2, 53875, Note_off_c, 9, 38, 64
2, 54000, Control_c, 9, 91, 0
2, 54005, Note_on_c, 9, 46, 127
2, 54125, Note_off_c, 9, 46, 64
2, 54240, Note_on_c, 9, 35, 127
2, 54240, Note_on_c, 9, 35, 127
2, 54240, Note_on_c, 9, 42, 127
2, 54360, Note_off_c, 9, 35, 64
2, 54360, Note_off_c, 9, 35, 64
2, 54360, Note_off_c, 9, 42, 64
2, 54485, Note_on_c, 9, 42, 127
2, 54605, Note_off_c, 9, 42, 64
2, 54728, Control_c, 9, 91, 127
2, 54728, Note_on_c, 9, 38, 127
2, 54728, Note_on_c, 9, 42, 127
2, 54728, Note_on_c, 9, 38, 127
2, 54848, Note_off_c, 9, 38, 64
2, 54848, Note_off_c, 9, 42, 64
2, 54848, Note_off_c, 9, 38, 64
2, 54960, Control_c, 9, 91, 0
2, 54968, Note_on_c, 9, 42, 127
2, 54968, Note_on_c, 9, 35, 127
2, 54968, Note_on_c, 9, 35, 127
2, 55088, Note_off_c, 9, 42, 64
2, 55088, Note_off_c, 9, 35, 64
2, 55088, Note_off_c, 9, 35, 64
2, 55203, Note_on_c, 9, 42, 127
2, 55203, Note_on_c, 9, 35, 127
2, 55203, Note_on_c, 9, 35, 127
2, 55323, Note_off_c, 9, 42, 64
2, 55323, Note_off_c, 9, 35, 64
2, 55323, Note_off_c, 9, 35, 64
2, 55443, Note_on_c, 9, 42, 127
2, 55563, Note_off_c, 9, 42, 64
2, 55685, Control_c, 9, 91, 127
2, 55685, Note_on_c, 9, 38, 127
2, 55685, Note_on_c, 9, 42, 127
2, 55685, Note_on_c, 9, 38, 127
2, 55805, Note_off_c, 9, 38, 64
2, 55805, Note_off_c, 9, 42, 64
2, 55805, Note_off_c, 9, 38, 64
2, 55920, Control_c, 9, 91, 0
2, 55923, Note_on_c, 9, 46, 127
2, 56043, Note_off_c, 9, 46, 64
2, 56163, Note_on_c, 9, 35, 127
2, 56163, Note_on_c, 9, 35, 127
2, 56163, Note_on_c, 9, 42, 127
2, 56283, Note_off_c, 9, 35, 64
2, 56283, Note_off_c, 9, 35, 64
2, 56283, Note_off_c, 9, 42, 64
2, 56400, Note_on_c, 9, 42, 127
2, 56520, Note_off_c, 9, 42, 64
2, 56640, Control_c, 9, 91, 127
2, 56640, Note_on_c, 9, 38, 127
2, 56640, Note_on_c, 9, 42, 127
2, 56640, Note_on_c, 9, 38, 127
2, 56760, Note_off_c, 9, 38, 64
2, 56760, Note_off_c, 9, 42, 64
2, 56760, Note_off_c, 9, 38, 64
2, 56880, Control_c, 9, 91, 0
2, 56888, Note_on_c, 9, 42, 127
2, 56888, Note_on_c, 9, 35, 127
2, 56888, Note_on_c, 9, 35, 127
2, 57008, Note_off_c, 9, 42, 64
2, 57008, Note_off_c, 9, 35, 64
2, 57008, Note_off_c, 9, 35, 64
2, 57118, Note_on_c, 9, 42, 127
2, 57118, Note_on_c, 9, 35, 127
2, 57118, Note_on_c, 9, 35, 127
2, 57238, Note_off_c, 9, 42, 64
2, 57238, Note_off_c, 9, 35, 64
2, 57238, Note_off_c, 9, 35, 64
2, 57355, Note_on_c, 9, 42, 127
2, 57475, Note_off_c, 9, 42, 64
2, 57595, Control_c, 9, 91, 127
2, 57595, Note_on_c, 9, 38, 127
2, 57595, Note_on_c, 9, 42, 127
2, 57595, Note_on_c, 9, 38, 127
2, 57600, Note_on_c, 9, 83, 89
2, 57715, Control_c, 9, 91, 0
2, 57715, Note_off_c, 9, 38, 64
2, 57715, Note_off_c, 9, 42, 64
2, 57715, Note_off_c, 9, 38, 64
2, 57720, Note_off_c, 9, 83, 64
2, 57720, Control_c, 9, 91, 127
2, 57720, Note_on_c, 9, 38, 127
2, 57720, Note_on_c, 9, 83, 127
2, 57720, Note_on_c, 9, 38, 127
2, 57840, Note_off_c, 9, 38, 64
2, 57840, Note_off_c, 9, 83, 64
2, 57840, Note_off_c, 9, 38, 64
2, 57845, Note_on_c, 9, 46, 127
2, 57965, Note_off_c, 9, 46, 64
2, 58080, Control_c, 9, 91, 0
2, 58080, Note_on_c, 9, 35, 127
2, 58080, Note_on_c, 9, 42, 127
2, 58080, Note_on_c, 9, 35, 127
2, 58200, Note_off_c, 9, 35, 64
2, 58200, Note_off_c, 9, 42, 64
2, 58200, Note_off_c, 9, 35, 64
2, 58325, Note_on_c, 9, 42, 127
2, 58445, Note_off_c, 9, 42, 64
2, 58568, Control_c, 9, 91, 127
2, 58568, Note_on_c, 9, 38, 127
2, 58568, Note_on_c, 9, 42, 127
2, 58568, Note_on_c, 9, 38, 127
2, 58688, Note_off_c, 9, 38, 64
2, 58688, Note_off_c, 9, 42, 64
2, 58688, Note_off_c, 9, 38, 64
2, 58800, Control_c, 9, 91, 0
2, 58808, Note_on_c, 9, 42, 127
2, 58808, Note_on_c, 9, 35, 127
2, 58808, Note_on_c, 9, 35, 127
2, 58928, Note_off_c, 9, 42, 64
2, 58928, Note_off_c, 9, 35, 64
2, 58928, Note_off_c, 9, 35, 64
2, 59043, Note_on_c, 9, 42, 127
2, 59043, Note_on_c, 9, 35, 127
2, 59043, Note_on_c, 9, 35, 127
2, 59163, Note_off_c, 9, 42, 64
2, 59163, Note_off_c, 9, 35, 64
2, 59163, Note_off_c, 9, 35, 64
2, 59283, Note_on_c, 9, 42, 127
2, 59403, Note_off_c, 9, 42, 64
2, 59525, Control_c, 9, 91, 127
2, 59525, Note_on_c, 9, 38, 127
2, 59525, Note_on_c, 9, 42, 127
2, 59525, Note_on_c, 9, 38, 127
2, 59645, Note_off_c, 9, 38, 64
2, 59645, Note_off_c, 9, 42, 64
2, 59645, Note_off_c, 9, 38, 64
2, 59760, Control_c, 9, 91, 0
2, 59763, Note_on_c, 9, 46, 127
2, 59883, Note_off_c, 9, 46, 64
2, 60003, Note_on_c, 9, 35, 127
2, 60003, Note_on_c, 9, 42, 127
2, 60003, Note_on_c, 9, 35, 127
2, 60123, Note_off_c, 9, 35, 64
2, 60123, Note_off_c, 9, 42, 64
2, 60123, Note_off_c, 9, 35, 64
2, 60240, Note_on_c, 9, 42, 127
2, 60360, Note_off_c, 9, 42, 64
2, 60480, Control_c, 9, 91, 127
2, 60480, Note_on_c, 9, 38, 127
2, 60480, Note_on_c, 9, 42, 127
2, 60480, Note_on_c, 9, 38, 127
2, 60600, Note_off_c, 9, 38, 64
2, 60600, Note_off_c, 9, 42, 64
2, 60600, Note_off_c, 9, 38, 64
2, 60720, Control_c, 9, 91, 0
2, 60728, Note_on_c, 9, 42, 127
2, 60728, Note_on_c, 9, 35, 127
2, 60728, Note_on_c, 9, 35, 127
2, 60848, Note_off_c, 9, 42, 64
2, 60848, Note_off_c, 9, 35, 64
2, 60848, Note_off_c, 9, 35, 64
2, 60958, Note_on_c, 9, 42, 127
2, 60958, Note_on_c, 9, 35, 127
2, 60958, Note_on_c, 9, 35, 127
2, 61078, Note_off_c, 9, 42, 64
2, 61078, Note_off_c, 9, 35, 64
2, 61078, Note_off_c, 9, 35, 64
2, 61195, Note_on_c, 9, 42, 127
2, 61315, Note_off_c, 9, 42, 64
2, 61435, Control_c, 9, 91, 127
2, 61435, Note_on_c, 9, 38, 127
2, 61435, Note_on_c, 9, 42, 127
2, 61435, Note_on_c, 9, 38, 127
2, 61555, Note_off_c, 9, 38, 64
2, 61555, Note_off_c, 9, 42, 64
2, 61555, Note_off_c, 9, 38, 64
2, 61680, Control_c, 9, 91, 0
2, 61685, Note_on_c, 9, 46, 127
2, 61805, Note_off_c, 9, 46, 64
2, 61920, Note_on_c, 9, 35, 127
2, 61920, Note_on_c, 9, 35, 127
2, 61920, Note_on_c, 9, 42, 127
2, 62040, Note_off_c, 9, 35, 64
2, 62040, Note_off_c, 9, 35, 64
2, 62040, Note_off_c, 9, 42, 64
2, 62165, Note_on_c, 9, 42, 127
2, 62285, Note_off_c, 9, 42, 64
2, 62408, Control_c, 9, 91, 127
2, 62408, Note_on_c, 9, 38, 127
2, 62408, Note_on_c, 9, 42, 127
2, 62408, Note_on_c, 9, 38, 127
2, 62528, Note_off_c, 9, 38, 64
2, 62528, Note_off_c, 9, 42, 64
2, 62528, Note_off_c, 9, 38, 64
2, 62640, Control_c, 9, 91, 0
2, 62648, Note_on_c, 9, 42, 127
2, 62648, Note_on_c, 9, 35, 127
2, 62648, Note_on_c, 9, 35, 127
2, 62768, Note_off_c, 9, 42, 64
2, 62768, Note_off_c, 9, 35, 64
2, 62768, Note_off_c, 9, 35, 64
2, 62883, Note_on_c, 9, 42, 127
2, 62883, Note_on_c, 9, 35, 127
2, 62883, Note_on_c, 9, 35, 127
2, 63003, Note_off_c, 9, 42, 64
2, 63003, Note_off_c, 9, 35, 64
2, 63003, Note_off_c, 9, 35, 64
2, 63123, Note_on_c, 9, 42, 127
2, 63243, Note_off_c, 9, 42, 64
2, 63365, Control_c, 9, 91, 127
2, 63365, Note_on_c, 9, 38, 127
2, 63365, Note_on_c, 9, 42, 127
2, 63365, Note_on_c, 9, 38, 127
2, 63485, Note_off_c, 9, 38, 64
2, 63485, Note_off_c, 9, 42, 64
2, 63485, Note_off_c, 9, 38, 64
2, 63600, Control_c, 9, 91, 0
2, 63603, Note_on_c, 9, 46, 127
2, 63723, Note_off_c, 9, 46, 64
2, 63843, Note_on_c, 9, 35, 127
2, 63843, Note_on_c, 9, 35, 127
2, 63843, Note_on_c, 9, 42, 127
2, 63963, Note_off_c, 9, 35, 64
2, 63963, Note_off_c, 9, 35, 64
2, 63963, Note_off_c, 9, 42, 64
2, 64080, Note_on_c, 9, 42, 127
2, 64200, Note_off_c, 9, 42, 64
2, 64320, Control_c, 9, 91, 127
2, 64320, Note_on_c, 9, 38, 127
2, 64320, Note_on_c, 9, 42, 127
2, 64320, Note_on_c, 9, 38, 127
2, 64440, Note_off_c, 9, 38, 64
2, 64440, Note_off_c, 9, 42, 64
2, 64440, Note_off_c, 9, 38, 64
2, 64560, Control_c, 9, 91, 0
2, 64568, Note_on_c, 9, 42, 127
2, 64568, Note_on_c, 9, 35, 127
2, 64568, Note_on_c, 9, 35, 127
2, 64688, Note_off_c, 9, 42, 64
2, 64688, Note_off_c, 9, 35, 64
2, 64688, Note_off_c, 9, 35, 64
2, 64798, Note_on_c, 9, 42, 127
2, 64798, Note_on_c, 9, 35, 127
2, 64798, Note_on_c, 9, 35, 127
2, 64918, Note_off_c, 9, 42, 64
2, 64918, Note_off_c, 9, 35, 64
2, 64918, Note_off_c, 9, 35, 64
2, 65035, Note_on_c, 9, 42, 127
2, 65155, Note_off_c, 9, 42, 64
2, 65275, Control_c, 9, 91, 127
2, 65275, Note_on_c, 9, 38, 127
2, 65275, Note_on_c, 9, 42, 127
2, 65275, Note_on_c, 9, 38, 127
2, 65280, Note_on_c, 9, 83, 89
2, 65395, Control_c, 9, 91, 0
2, 65395, Note_off_c, 9, 38, 64
2, 65395, Note_off_c, 9, 42, 64
2, 65395, Note_off_c, 9, 38, 64
2, 65400, Note_off_c, 9, 83, 64
2, 65400, Control_c, 9, 91, 127
2, 65400, Note_on_c, 9, 83, 127
2, 65400, Note_on_c, 9, 38, 127
2, 65423, Note_on_c, 9, 38, 99
2, 65520, Note_off_c, 9, 83, 64
2, 65520, Note_off_c, 9, 38, 64
2, 65520, Note_on_c, 9, 84, 127
2, 65525, Note_on_c, 9, 46, 127
2, 65543, Note_off_c, 9, 38, 64
2, 65645, Note_off_c, 9, 46, 64
2, 65760, Note_off_c, 9, 84, 64
2, 65760, Note_on_c, 9, 35, 127
2, 65760, Control_c, 9, 91, 0
2, 65760, Note_on_c, 9, 42, 127
2, 65760, Note_on_c, 9, 55, 127
2, 65760, Note_on_c, 9, 35, 127
2, 65880, Note_off_c, 9, 35, 64
2, 65880, Note_off_c, 9, 42, 64
2, 65880, Note_off_c, 9, 55, 64
2, 65880, Note_off_c, 9, 35, 64
2, 66005, Note_on_c, 9, 42, 127
2, 66125, Note_off_c, 9, 42, 64
2, 66248, Control_c, 9, 91, 127
2, 66248, Note_on_c, 9, 38, 127
2, 66248, Note_on_c, 9, 42, 127
2, 66248, Note_on_c, 9, 38, 127
2, 66368, Note_off_c, 9, 38, 64
2, 66368, Note_off_c, 9, 42, 64
2, 66368, Note_off_c, 9, 38, 64
2, 66480, Control_c, 9, 91, 0
2, 66488, Note_on_c, 9, 42, 127
2, 66488, Note_on_c, 9, 35, 127
2, 66488, Note_on_c, 9, 35, 127
2, 66608, Note_off_c, 9, 42, 64
2, 66608, Note_off_c, 9, 35, 64
2, 66608, Note_off_c, 9, 35, 64
2, 66723, Note_on_c, 9, 42, 127
2, 66723, Note_on_c, 9, 35, 127
2, 66723, Note_on_c, 9, 35, 127
2, 66843, Note_off_c, 9, 42, 64
2, 66843, Note_off_c, 9, 35, 64
2, 66843, Note_off_c, 9, 35, 64
2, 66963, Note_on_c, 9, 42, 127
2, 67083, Note_off_c, 9, 42, 64
2, 67205, Control_c, 9, 91, 127
2, 67205, Note_on_c, 9, 38, 127
2, 67205, Note_on_c, 9, 42, 127
2, 67205, Note_on_c, 9, 38, 127
2, 67325, Note_off_c, 9, 38, 64
2, 67325, Note_off_c, 9, 42, 64
2, 67325, Note_off_c, 9, 38, 64
2, 67440, Control_c, 9, 91, 0
2, 67443, Note_on_c, 9, 46, 127
2, 67563, Note_off_c, 9, 46, 64
2, 67683, Note_on_c, 9, 35, 127
2, 67683, Note_on_c, 9, 42, 127
2, 67683, Note_on_c, 9, 35, 127
2, 67803, Note_off_c, 9, 35, 64
2, 67803, Note_off_c, 9, 42, 64
2, 67803, Note_off_c, 9, 35, 64
2, 67920, Note_on_c, 9, 42, 127
2, 68040, Note_off_c, 9, 42, 64
2, 68160, Control_c, 9, 91, 127
2, 68160, Note_on_c, 9, 38, 127
2, 68160, Note_on_c, 9, 42, 127
2, 68160, Note_on_c, 9, 38, 127
2, 68280, Note_off_c, 9, 38, 64
2, 68280, Note_off_c, 9, 42, 64
2, 68280, Note_off_c, 9, 38, 64
2, 68400, Control_c, 9, 91, 0
2, 68408, Note_on_c, 9, 42, 127
2, 68408, Note_on_c, 9, 35, 127
2, 68408, Note_on_c, 9, 35, 127
2, 68528, Note_off_c, 9, 42, 64
2, 68528, Note_off_c, 9, 35, 64
2, 68528, Note_off_c, 9, 35, 64
2, 68638, Note_on_c, 9, 42, 127
2, 68638, Note_on_c, 9, 35, 127
2, 68638, Note_on_c, 9, 35, 127
2, 68758, Note_off_c, 9, 42, 64
2, 68758, Note_off_c, 9, 35, 64
2, 68758, Note_off_c, 9, 35, 64
2, 68875, Note_on_c, 9, 42, 127
2, 68995, Note_off_c, 9, 42, 64
2, 69115, Control_c, 9, 91, 127
2, 69115, Note_on_c, 9, 38, 127
2, 69115, Note_on_c, 9, 42, 127
2, 69115, Note_on_c, 9, 38, 127
2, 69235, Note_off_c, 9, 38, 64
2, 69235, Note_off_c, 9, 42, 64
2, 69235, Note_off_c, 9, 38, 64
2, 69360, Control_c, 9, 91, 0
2, 69365, Note_on_c, 9, 46, 127
2, 69485, Note_off_c, 9, 46, 64
2, 69600, Note_on_c, 9, 35, 127
2, 69600, Note_on_c, 9, 35, 127
2, 69600, Note_on_c, 9, 42, 127
2, 69720, Note_off_c, 9, 35, 64
2, 69720, Note_off_c, 9, 35, 64
2, 69720, Note_off_c, 9, 42, 64
2, 69845, Note_on_c, 9, 42, 127
2, 69965, Note_off_c, 9, 42, 64
2, 70088, Control_c, 9, 91, 127
2, 70088, Note_on_c, 9, 38, 127
2, 70088, Note_on_c, 9, 42, 127
2, 70088, Note_on_c, 9, 38, 127
2, 70208, Note_off_c, 9, 38, 64
2, 70208, Note_off_c, 9, 42, 64
2, 70208, Note_off_c, 9, 38, 64
2, 70320, Control_c, 9, 91, 0
2, 70328, Note_on_c, 9, 42, 127
2, 70328, Note_on_c, 9, 35, 127
2, 70328, Note_on_c, 9, 35, 127
2, 70448, Note_off_c, 9, 42, 64
2, 70448, Note_off_c, 9, 35, 64
2, 70448, Note_off_c, 9, 35, 64
2, 70563, Note_on_c, 9, 42, 127
2, 70563, Note_on_c, 9, 35, 127
2, 70563, Note_on_c, 9, 35, 127
2, 70683, Note_off_c, 9, 42, 64
2, 70683, Note_off_c, 9, 35, 64
2, 70683, Note_off_c, 9, 35, 64
2, 70803, Note_on_c, 9, 42, 127
2, 70923, Note_off_c, 9, 42, 64
2, 71045, Control_c, 9, 91, 127
2, 71045, Note_on_c, 9, 38, 127
2, 71045, Note_on_c, 9, 42, 127
2, 71045, Note_on_c, 9, 38, 127
2, 71165, Note_off_c, 9, 38, 64
2, 71165, Note_off_c, 9, 42, 64
2, 71165, Note_off_c, 9, 38, 64
2, 71280, Control_c, 9, 91, 0
2, 71283, Note_on_c, 9, 46, 127
2, 71403, Note_off_c, 9, 46, 64
2, 71523, Note_on_c, 9, 35, 127
2, 71523, Note_on_c, 9, 35, 127
2, 71523, Note_on_c, 9, 42, 127
2, 71643, Note_off_c, 9, 35, 64
2, 71643, Note_off_c, 9, 35, 64
2, 71643, Note_off_c, 9, 42, 64
2, 71760, Note_on_c, 9, 42, 127
2, 71880, Note_off_c, 9, 42, 64
2, 72000, Control_c, 9, 91, 127
2, 72000, Note_on_c, 9, 38, 127
2, 72000, Note_on_c, 9, 42, 127
2, 72000, Note_on_c, 9, 38, 127
2, 72120, Note_off_c, 9, 38, 64
2, 72120, Note_off_c, 9, 42, 64
2, 72120, Note_off_c, 9, 38, 64
2, 72240, Control_c, 9, 91, 0
2, 72248, Note_on_c, 9, 42, 127
2, 72248, Note_on_c, 9, 35, 127
2, 72248, Note_on_c, 9, 35, 127
2, 72368, Note_off_c, 9, 42, 64
2, 72368, Note_off_c, 9, 35, 64
2, 72368, Note_off_c, 9, 35, 64
2, 72478, Note_on_c, 9, 42, 127
2, 72478, Note_on_c, 9, 35, 127
2, 72478, Note_on_c, 9, 35, 127
2, 72598, Note_off_c, 9, 42, 64
2, 72598, Note_off_c, 9, 35, 64
2, 72598, Note_off_c, 9, 35, 64
2, 72715, Note_on_c, 9, 42, 127
2, 72835, Note_off_c, 9, 42, 64
2, 72955, Control_c, 9, 91, 127
2, 72955, Note_on_c, 9, 38, 127
2, 72955, Note_on_c, 9, 42, 127
2, 72955, Note_on_c, 9, 38, 127
2, 72960, Note_on_c, 9, 83, 89
2, 73075, Control_c, 9, 91, 0
2, 73075, Note_off_c, 9, 38, 64
2, 73075, Note_off_c, 9, 42, 64
2, 73075, Note_off_c, 9, 38, 64
2, 73080, Note_off_c, 9, 83, 64
2, 73080, Control_c, 9, 91, 127
2, 73080, Note_on_c, 9, 38, 127
2, 73080, Note_on_c, 9, 83, 127
2, 73080, Note_on_c, 9, 38, 127
2, 73200, Note_off_c, 9, 38, 64
2, 73200, Note_off_c, 9, 83, 64
2, 73200, Note_off_c, 9, 38, 64
2, 73205, Note_on_c, 9, 46, 127
2, 73325, Note_off_c, 9, 46, 64
2, 73440, Control_c, 9, 91, 0
2, 73440, Note_on_c, 9, 35, 127
2, 73440, Note_on_c, 9, 42, 127
2, 73440, Note_on_c, 9, 35, 127
2, 73560, Note_off_c, 9, 35, 64
2, 73560, Note_off_c, 9, 42, 64
2, 73560, Note_off_c, 9, 35, 64
2, 73685, Note_on_c, 9, 42, 127
2, 73805, Note_off_c, 9, 42, 64
2, 73928, Control_c, 9, 91, 127
2, 73928, Note_on_c, 9, 38, 127
2, 73928, Note_on_c, 9, 42, 127
2, 73928, Note_on_c, 9, 38, 127
2, 74048, Note_off_c, 9, 38, 64
2, 74048, Note_off_c, 9, 42, 64
2, 74048, Note_off_c, 9, 38, 64
2, 74160, Control_c, 9, 91, 0
2, 74168, Note_on_c, 9, 42, 127
2, 74168, Note_on_c, 9, 35, 127
2, 74168, Note_on_c, 9, 35, 127
2, 74288, Note_off_c, 9, 42, 64
2, 74288, Note_off_c, 9, 35, 64
2, 74288, Note_off_c, 9, 35, 64
2, 74403, Note_on_c, 9, 42, 127
2, 74403, Note_on_c, 9, 35, 127
2, 74403, Note_on_c, 9, 35, 127
2, 74523, Note_off_c, 9, 42, 64
2, 74523, Note_off_c, 9, 35, 64
2, 74523, Note_off_c, 9, 35, 64
2, 74643, Note_on_c, 9, 42, 127
2, 74763, Note_off_c, 9, 42, 64
2, 74885, Control_c, 9, 91, 127
2, 74885, Note_on_c, 9, 38, 127
2, 74885, Note_on_c, 9, 42, 127
2, 74885, Note_on_c, 9, 38, 127
2, 75005, Note_off_c, 9, 38, 64
2, 75005, Note_off_c, 9, 42, 64
2, 75005, Note_off_c, 9, 38, 64
2, 75120, Control_c, 9, 91, 0
2, 75123, Note_on_c, 9, 46, 127
2, 75243, Note_off_c, 9, 46, 64
2, 75363, Note_on_c, 9, 35, 127
2, 75363, Note_on_c, 9, 42, 127
2, 75363, Note_on_c, 9, 35, 127
2, 75483, Note_off_c, 9, 35, 64
2, 75483, Note_off_c, 9, 42, 64
2, 75483, Note_off_c, 9, 35, 64
2, 75600, Note_on_c, 9, 42, 127
2, 75720, Note_off_c, 9, 42, 64
2, 75840, Control_c, 9, 91, 127
2, 75840, Note_on_c, 9, 38, 127
2, 75840, Note_on_c, 9, 42, 127
2, 75840, Note_on_c, 9, 38, 127
2, 75960, Note_off_c, 9, 38, 64
2, 75960, Note_off_c, 9, 42, 64
2, 75960, Note_off_c, 9, 38, 64
2, 76080, Control_c, 9, 91, 0
2, 76088, Note_on_c, 9, 42, 127
2, 76088, Note_on_c, 9, 35, 127
2, 76088, Note_on_c, 9, 35, 127
2, 76208, Note_off_c, 9, 42, 64
2, 76208, Note_off_c, 9, 35, 64
2, 76208, Note_off_c, 9, 35, 64
2, 76318, Note_on_c, 9, 42, 127
2, 76318, Note_on_c, 9, 35, 127
2, 76318, Note_on_c, 9, 35, 127
2, 76438, Note_off_c, 9, 42, 64
2, 76438, Note_off_c, 9, 35, 64
2, 76438, Note_off_c, 9, 35, 64
2, 76555, Note_on_c, 9, 42, 127
2, 76675, Note_off_c, 9, 42, 64
2, 76795, Control_c, 9, 91, 127
2, 76795, Note_on_c, 9, 38, 127
2, 76795, Note_on_c, 9, 42, 127
2, 76795, Note_on_c, 9, 38, 127
2, 76915, Note_off_c, 9, 38, 64
2, 76915, Note_off_c, 9, 42, 64
2, 76915, Note_off_c, 9, 38, 64
2, 77040, Control_c, 9, 91, 0
2, 77045, Note_on_c, 9, 46, 127
2, 77165, Note_off_c, 9, 46, 64
2, 77280, Note_on_c, 9, 35, 127
2, 77280, Note_on_c, 9, 35, 127
2, 77280, Note_on_c, 9, 42, 127
2, 77400, Note_off_c, 9, 35, 64
2, 77400, Note_off_c, 9, 35, 64
2, 77400, Note_off_c, 9, 42, 64
2, 77525, Note_on_c, 9, 42, 127
2, 77645, Note_off_c, 9, 42, 64
2, 77768, Control_c, 9, 91, 127
2, 77768, Note_on_c, 9, 38, 127
2, 77768, Note_on_c, 9, 42, 127
2, 77768, Note_on_c, 9, 38, 127
2, 77888, Note_off_c, 9, 38, 64
2, 77888, Note_off_c, 9, 42, 64
2, 77888, Note_off_c, 9, 38, 64
2, 78000, Control_c, 9, 91, 0
2, 78008, Note_on_c, 9, 42, 127
2, 78008, Note_on_c, 9, 35, 127
2, 78008, Note_on_c, 9, 35, 127
2, 78128, Note_off_c, 9, 42, 64
2, 78128, Note_off_c, 9, 35, 64
2, 78128, Note_off_c, 9, 35, 64
2, 78243, Note_on_c, 9, 42, 127
2, 78243, Note_on_c, 9, 35, 127
2, 78243, Note_on_c, 9, 35, 127
2, 78363, Note_off_c, 9, 42, 64
2, 78363, Note_off_c, 9, 35, 64
2, 78363, Note_off_c, 9, 35, 64
2, 78483, Note_on_c, 9, 42, 127
2, 78603, Note_off_c, 9, 42, 64
2, 78725, Control_c, 9, 91, 127
2, 78725, Note_on_c, 9, 38, 127
2, 78725, Note_on_c, 9, 42, 127
2, 78725, Note_on_c, 9, 38, 127
2, 78845, Note_off_c, 9, 38, 64
2, 78845, Note_off_c, 9, 42, 64
2, 78845, Note_off_c, 9, 38, 64
2, 78960, Control_c, 9, 91, 0
2, 78963, Note_on_c, 9, 46, 127
2, 79083, Note_off_c, 9, 46, 64
2, 79203, Note_on_c, 9, 35, 127
2, 79203, Note_on_c, 9, 35, 127
2, 79203, Note_on_c, 9, 42, 127
2, 79323, Note_off_c, 9, 35, 64
2, 79323, Note_off_c, 9, 35, 64
2, 79323, Note_off_c, 9, 42, 64
2, 79440, Note_on_c, 9, 42, 127
2, 79560, Note_off_c, 9, 42, 64
2, 79680, Control_c, 9, 91, 127
2, 79680, Note_on_c, 9, 38, 127
2, 79680, Note_on_c, 9, 42, 127
2, 79680, Note_on_c, 9, 38, 127
2, 79800, Note_off_c, 9, 38, 64
2, 79800, Note_off_c, 9, 42, 64
2, 79800, Note_off_c, 9, 38, 64
2, 79920, Control_c, 9, 91, 0
2, 79928, Note_on_c, 9, 42, 127
2, 79928, Note_on_c, 9, 35, 127
2, 79928, Note_on_c, 9, 35, 127
2, 80048, Note_off_c, 9, 42, 64
2, 80048, Note_off_c, 9, 35, 64
2, 80048, Note_off_c, 9, 35, 64
2, 80158, Note_on_c, 9, 42, 127
2, 80158, Note_on_c, 9, 35, 127
2, 80158, Note_on_c, 9, 35, 127
2, 80278, Note_off_c, 9, 42, 64
2, 80278, Note_off_c, 9, 35, 64
2, 80278, Note_off_c, 9, 35, 64
2, 80635, Control_c, 9, 91, 127
2, 80755, Control_c, 9, 91, 0
2, 80760, Control_c, 9, 91, 127
2, 81120, Control_c, 9, 91, 0
2, 81608, Control_c, 9, 91, 127
2, 81608, Note_on_c, 9, 42, 127
2, 81608, Note_on_c, 9, 38, 127
2, 81608, Note_on_c, 9, 38, 127
2, 81728, Note_off_c, 9, 42, 64
2, 81728, Note_off_c, 9, 38, 64
2, 81728, Note_off_c, 9, 38, 64
2, 81840, Control_c, 9, 91, 0
2, 81848, Note_on_c, 9, 42, 127
2, 81848, Note_on_c, 9, 35, 127
2, 81848, Note_on_c, 9, 35, 127
2, 81968, Note_off_c, 9, 42, 64
2, 81968, Note_off_c, 9, 35, 64
2, 81968, Note_off_c, 9, 35, 64
2, 82083, Note_on_c, 9, 42, 127
2, 82083, Note_on_c, 9, 35, 127
2, 82083, Note_on_c, 9, 35, 127
2, 82203, Note_off_c, 9, 42, 64
2, 82203, Note_off_c, 9, 35, 64
2, 82203, Note_off_c, 9, 35, 64
2, 82323, Note_on_c, 9, 42, 127
2, 82443, Note_off_c, 9, 42, 64
2, 82565, Control_c, 9, 91, 127
2, 82565, Note_on_c, 9, 38, 127
2, 82565, Note_on_c, 9, 42, 127
2, 82565, Note_on_c, 9, 38, 127
2, 82685, Note_off_c, 9, 38, 64
2, 82685, Note_off_c, 9, 42, 64
2, 82685, Note_off_c, 9, 38, 64
2, 82800, Control_c, 9, 91, 0
2, 82803, Note_on_c, 9, 46, 127
2, 82923, Note_off_c, 9, 46, 64
2, 83043, Note_on_c, 9, 35, 127
2, 83043, Note_on_c, 9, 42, 127
2, 83043, Note_on_c, 9, 35, 127
2, 83163, Note_off_c, 9, 35, 64
2, 83163, Note_off_c, 9, 42, 64
2, 83163, Note_off_c, 9, 35, 64
2, 83280, Note_on_c, 9, 42, 127
2, 83400, Note_off_c, 9, 42, 64
2, 83520, Control_c, 9, 91, 127
2, 83520, Note_on_c, 9, 38, 127
2, 83520, Note_on_c, 9, 42, 127
2, 83520, Note_on_c, 9, 38, 127
2, 83640, Note_off_c, 9, 38, 64
2, 83640, Note_off_c, 9, 42, 64
2, 83640, Note_off_c, 9, 38, 64
2, 83760, Control_c, 9, 91, 0
2, 83768, Note_on_c, 9, 42, 127
2, 83768, Note_on_c, 9, 35, 127
2, 83768, Note_on_c, 9, 35, 127
2, 83888, Note_off_c, 9, 42, 64
2, 83888, Note_off_c, 9, 35, 64
2, 83888, Note_off_c, 9, 35, 64
2, 83998, Note_on_c, 9, 42, 127
2, 83998, Note_on_c, 9, 35, 127
2, 83998, Note_on_c, 9, 35, 127
2, 84118, Note_off_c, 9, 42, 64
2, 84118, Note_off_c, 9, 35, 64
2, 84118, Note_off_c, 9, 35, 64
2, 84235, Note_on_c, 9, 42, 127
2, 84355, Note_off_c, 9, 42, 64
2, 84475, Control_c, 9, 91, 127
2, 84475, Note_on_c, 9, 38, 127
2, 84475, Note_on_c, 9, 42, 127
2, 84475, Note_on_c, 9, 38, 127
2, 84595, Note_off_c, 9, 38, 64
2, 84595, Note_off_c, 9, 42, 64
2, 84595, Note_off_c, 9, 38, 64
2, 84720, Control_c, 9, 91, 0
2, 84725, Note_on_c, 9, 46, 127
2, 84845, Note_off_c, 9, 46, 64
2, 84960, Note_on_c, 9, 35, 127
2, 84960, Note_on_c, 9, 35, 127
2, 84960, Note_on_c, 9, 42, 127
2, 85080, Note_off_c, 9, 35, 64
2, 85080, Note_off_c, 9, 35, 64
2, 85080, Note_off_c, 9, 42, 64
2, 85205, Note_on_c, 9, 42, 127
2, 85325, Note_off_c, 9, 42, 64
2, 85448, Control_c, 9, 91, 127
2, 85448, Note_on_c, 9, 38, 127
2, 85448, Note_on_c, 9, 42, 127
2, 85448, Note_on_c, 9, 38, 127
2, 85568, Note_off_c, 9, 38, 64
2, 85568, Note_off_c, 9, 42, 64
2, 85568, Note_off_c, 9, 38, 64
2, 85680, Control_c, 9, 91, 0
2, 85688, Note_on_c, 9, 42, 127
2, 85688, Note_on_c, 9, 35, 127
2, 85688, Note_on_c, 9, 35, 127
2, 85808, Note_off_c, 9, 42, 64
2, 85808, Note_off_c, 9, 35, 64
2, 85808, Note_off_c, 9, 35, 64
2, 85923, Note_on_c, 9, 42, 127
2, 85923, Note_on_c, 9, 35, 127
2, 85923, Note_on_c, 9, 35, 127
2, 86043, Note_off_c, 9, 42, 64
2, 86043, Note_off_c, 9, 35, 64
2, 86043, Note_off_c, 9, 35, 64
2, 86163, Note_on_c, 9, 42, 127
2, 86283, Note_off_c, 9, 42, 64
2, 86405, Control_c, 9, 91, 127
2, 86405, Note_on_c, 9, 38, 127
2, 86405, Note_on_c, 9, 42, 127
2, 86405, Note_on_c, 9, 38, 127
2, 86525, Note_off_c, 9, 38, 64
2, 86525, Note_off_c, 9, 42, 64
2, 86525, Note_off_c, 9, 38, 64
2, 86640, Control_c, 9, 91, 0
2, 86643, Note_on_c, 9, 46, 127
2, 86763, Note_off_c, 9, 46, 64
2, 86883, Note_on_c, 9, 35, 127
2, 86883, Note_on_c, 9, 35, 127
2, 86883, Note_on_c, 9, 42, 127
2, 87003, Note_off_c, 9, 35, 64
2, 87003, Note_off_c, 9, 35, 64
2, 87003, Note_off_c, 9, 42, 64
2, 87120, Note_on_c, 9, 42, 127
2, 87240, Note_off_c, 9, 42, 64
2, 87360, Control_c, 9, 91, 127
2, 87360, Note_on_c, 9, 38, 127
2, 87360, Note_on_c, 9, 42, 127
2, 87360, Note_on_c, 9, 38, 127
2, 87480, Note_off_c, 9, 38, 64
2, 87480, Note_off_c, 9, 42, 64
2, 87480, Note_off_c, 9, 38, 64
2, 87600, Control_c, 9, 91, 0
2, 87608, Note_on_c, 9, 42, 127
2, 87608, Note_on_c, 9, 35, 127
2, 87608, Note_on_c, 9, 35, 127
2, 87728, Note_off_c, 9, 42, 64
2, 87728, Note_off_c, 9, 35, 64
2, 87728, Note_off_c, 9, 35, 64
2, 87838, Note_on_c, 9, 42, 127
2, 87838, Note_on_c, 9, 35, 127
2, 87838, Note_on_c, 9, 35, 127
2, 87958, Note_off_c, 9, 42, 64
2, 87958, Note_off_c, 9, 35, 64
2, 87958, Note_off_c, 9, 35, 64
2, 88075, Note_on_c, 9, 42, 127
2, 88195, Note_off_c, 9, 42, 64
2, 88315, Control_c, 9, 91, 127
2, 88315, Note_on_c, 9, 38, 127
2, 88315, Note_on_c, 9, 42, 127
2, 88315, Note_on_c, 9, 38, 127
2, 88320, Note_on_c, 9, 83, 89
2, 88435, Control_c, 9, 91, 0
2, 88435, Note_off_c, 9, 38, 64
2, 88435, Note_off_c, 9, 42, 64
2, 88435, Note_off_c, 9, 38, 64
2, 88440, Note_off_c, 9, 83, 64
2, 88440, Control_c, 9, 91, 127
2, 88440, Note_on_c, 9, 38, 127
2, 88440, Note_on_c, 9, 83, 127
2, 88440, Note_on_c, 9, 38, 127
2, 88560, Note_off_c, 9, 38, 64
2, 88560, Note_off_c, 9, 83, 64
2, 88560, Note_off_c, 9, 38, 64
2, 88565, Note_on_c, 9, 46, 127
2, 88685, Note_off_c, 9, 46, 64
2, 88800, Control_c, 9, 91, 0
2, 88800, Note_on_c, 9, 35, 127
2, 88800, Note_on_c, 9, 42, 127
2, 88800, Note_on_c, 9, 35, 127
2, 88920, Note_off_c, 9, 35, 64
2, 88920, Note_off_c, 9, 42, 64
2, 88920, Note_off_c, 9, 35, 64
2, 89045, Note_on_c, 9, 42, 127
2, 89165, Note_off_c, 9, 42, 64
2, 89288, Control_c, 9, 91, 127
2, 89288, Note_on_c, 9, 38, 127
2, 89288, Note_on_c, 9, 42, 127
2, 89288, Note_on_c, 9, 38, 127
2, 89408, Note_off_c, 9, 38, 64
2, 89408, Note_off_c, 9, 42, 64
2, 89408, Note_off_c, 9, 38, 64
2, 89520, Control_c, 9, 91, 0
2, 89528, Note_on_c, 9, 42, 127
2, 89528, Note_on_c, 9, 35, 127
2, 89528, Note_on_c, 9, 35, 127
2, 89648, Note_off_c, 9, 42, 64
2, 89648, Note_off_c, 9, 35, 64
2, 89648, Note_off_c, 9, 35, 64
2, 89763, Note_on_c, 9, 42, 127
2, 89763, Note_on_c, 9, 35, 127
2, 89763, Note_on_c, 9, 35, 127
2, 89883, Note_off_c, 9, 42, 64
2, 89883, Note_off_c, 9, 35, 64
2, 89883, Note_off_c, 9, 35, 64
2, 90003, Note_on_c, 9, 42, 127
2, 90123, Note_off_c, 9, 42, 64
2, 90245, Control_c, 9, 91, 127
2, 90245, Note_on_c, 9, 38, 127
2, 90245, Note_on_c, 9, 42, 127
2, 90245, Note_on_c, 9, 38, 127
2, 90365, Note_off_c, 9, 38, 64
2, 90365, Note_off_c, 9, 42, 64
2, 90365, Note_off_c, 9, 38, 64
2, 90480, Control_c, 9, 91, 0
2, 90483, Note_on_c, 9, 46, 127
2, 90603, Note_off_c, 9, 46, 64
2, 90723, Note_on_c, 9, 35, 127
2, 90723, Note_on_c, 9, 42, 127
2, 90723, Note_on_c, 9, 35, 127
2, 90843, Note_off_c, 9, 35, 64
2, 90843, Note_off_c, 9, 42, 64
2, 90843, Note_off_c, 9, 35, 64
2, 90960, Note_on_c, 9, 42, 127
2, 91080, Note_off_c, 9, 42, 64
2, 91200, Control_c, 9, 91, 127
2, 91200, Note_on_c, 9, 38, 127
2, 91200, Note_on_c, 9, 42, 127
2, 91200, Note_on_c, 9, 38, 127
2, 91320, Note_off_c, 9, 38, 64
2, 91320, Note_off_c, 9, 42, 64
2, 91320, Note_off_c, 9, 38, 64
2, 91440, Control_c, 9, 91, 0
2, 91448, Note_on_c, 9, 42, 127
2, 91448, Note_on_c, 9, 35, 127
2, 91448, Note_on_c, 9, 35, 127
2, 91568, Note_off_c, 9, 42, 64
2, 91568, Note_off_c, 9, 35, 64
2, 91568, Note_off_c, 9, 35, 64
2, 91678, Note_on_c, 9, 42, 127
2, 91678, Note_on_c, 9, 35, 127
2, 91678, Note_on_c, 9, 35, 127
2, 91798, Note_off_c, 9, 42, 64
2, 91798, Note_off_c, 9, 35, 64
2, 91798, Note_off_c, 9, 35, 64
2, 91915, Note_on_c, 9, 42, 127
2, 92035, Note_off_c, 9, 42, 64
2, 92155, Control_c, 9, 91, 127
2, 92155, Note_on_c, 9, 38, 127
2, 92155, Note_on_c, 9, 42, 127
2, 92155, Note_on_c, 9, 38, 127
2, 92275, Note_off_c, 9, 38, 64
2, 92275, Note_off_c, 9, 42, 64
2, 92275, Note_off_c, 9, 38, 64
2, 92400, Control_c, 9, 91, 0
2, 92405, Note_on_c, 9, 46, 127
2, 92525, Note_off_c, 9, 46, 64
2, 92640, Note_on_c, 9, 35, 127
2, 92640, Note_on_c, 9, 35, 127
2, 92640, Note_on_c, 9, 42, 127
2, 92760, Note_off_c, 9, 35, 64
2, 92760, Note_off_c, 9, 35, 64
2, 92760, Note_off_c, 9, 42, 64
2, 92885, Note_on_c, 9, 42, 127
2, 93005, Note_off_c, 9, 42, 64
2, 93128, Control_c, 9, 91, 127
2, 93128, Note_on_c, 9, 38, 127
2, 93128, Note_on_c, 9, 42, 127
2, 93128, Note_on_c, 9, 38, 127
2, 93248, Note_off_c, 9, 38, 64
2, 93248, Note_off_c, 9, 42, 64
2, 93248, Note_off_c, 9, 38, 64
2, 93360, Control_c, 9, 91, 0
2, 93368, Note_on_c, 9, 42, 127
2, 93368, Note_on_c, 9, 35, 127
2, 93368, Note_on_c, 9, 35, 127
2, 93488, Note_off_c, 9, 42, 64
2, 93488, Note_off_c, 9, 35, 64
2, 93488, Note_off_c, 9, 35, 64
2, 93603, Note_on_c, 9, 42, 127
2, 93603, Note_on_c, 9, 35, 127
2, 93603, Note_on_c, 9, 35, 127
2, 93723, Note_off_c, 9, 42, 64
2, 93723, Note_off_c, 9, 35, 64
2, 93723, Note_off_c, 9, 35, 64
2, 93843, Note_on_c, 9, 42, 127
2, 93963, Note_off_c, 9, 42, 64
2, 94085, Control_c, 9, 91, 127
2, 94085, Note_on_c, 9, 38, 127
2, 94085, Note_on_c, 9, 42, 127
2, 94085, Note_on_c, 9, 38, 127
2, 94205, Note_off_c, 9, 38, 64
2, 94205, Note_off_c, 9, 42, 64
2, 94205, Note_off_c, 9, 38, 64
2, 94320, Control_c, 9, 91, 0
2, 94323, Note_on_c, 9, 46, 127
2, 94443, Note_off_c, 9, 46, 64
2, 94563, Note_on_c, 9, 35, 127
2, 94563, Note_on_c, 9, 35, 127
2, 94563, Note_on_c, 9, 42, 127
2, 94683, Note_off_c, 9, 35, 64
2, 94683, Note_off_c, 9, 35, 64
2, 94683, Note_off_c, 9, 42, 64
2, 94800, Note_on_c, 9, 42, 127
2, 94920, Note_off_c, 9, 42, 64
2, 95040, Control_c, 9, 91, 127
2, 95040, Note_on_c, 9, 38, 127
2, 95040, Note_on_c, 9, 42, 127
2, 95040, Note_on_c, 9, 38, 127
2, 95160, Note_off_c, 9, 38, 64
2, 95160, Note_off_c, 9, 42, 64
2, 95160, Note_off_c, 9, 38, 64
2, 95280, Control_c, 9, 91, 0
2, 95288, Note_on_c, 9, 42, 127
2, 95288, Note_on_c, 9, 35, 127
2, 95288, Note_on_c, 9, 35, 127
2, 95408, Note_off_c, 9, 42, 64
2, 95408, Note_off_c, 9, 35, 64
2, 95408, Note_off_c, 9, 35, 64
2, 95518, Note_on_c, 9, 42, 127
2, 95518, Note_on_c, 9, 35, 127
2, 95518, Note_on_c, 9, 35, 127
2, 95638, Note_off_c, 9, 42, 64
2, 95638, Note_off_c, 9, 35, 64
2, 95638, Note_off_c, 9, 35, 64
2, 95755, Note_on_c, 9, 42, 127
2, 95875, Note_off_c, 9, 42, 64
2, 95995, Control_c, 9, 91, 127
2, 95995, Note_on_c, 9, 38, 127
2, 95995, Note_on_c, 9, 42, 127
2, 95995, Note_on_c, 9, 38, 127
2, 96000, Note_on_c, 9, 83, 89
2, 96115, Control_c, 9, 91, 0
2, 96115, Note_off_c, 9, 38, 64
2, 96115, Note_off_c, 9, 42, 64
2, 96115, Note_off_c, 9, 38, 64
2, 96120, Note_off_c, 9, 83, 64
2, 96120, Control_c, 9, 91, 127
2, 96120, Note_on_c, 9, 83, 127
2, 96120, Note_on_c, 9, 38, 127
2, 96143, Note_on_c, 9, 38, 99
2, 96240, Note_off_c, 9, 83, 64
2, 96240, Note_off_c, 9, 38, 64
2, 96240, Note_on_c, 9, 84, 127
2, 96245, Note_on_c, 9, 46, 127
2, 96263, Note_off_c, 9, 38, 64
2, 96365, Note_off_c, 9, 46, 64
2, 96480, Note_off_c, 9, 84, 64
2, 96480, Note_on_c, 9, 35, 127
2, 96480, Control_c, 9, 91, 0
2, 96480, Note_on_c, 9, 42, 127
2, 96480, Note_on_c, 9, 55, 127
2, 96480, Note_on_c, 9, 35, 127
2, 96600, Note_off_c, 9, 35, 64
2, 96600, Note_off_c, 9, 42, 64
2, 96600, Note_off_c, 9, 55, 64
2, 96600, Note_off_c, 9, 35, 64
2, 96725, Note_on_c, 9, 42, 127
2, 96845, Note_off_c, 9, 42, 64
2, 96968, Control_c, 9, 91, 127
2, 96968, Note_on_c, 9, 38, 127
2, 96968, Note_on_c, 9, 42, 127
2, 96968, Note_on_c, 9, 38, 127
2, 97088, Note_off_c, 9, 38, 64
2, 97088, Note_off_c, 9, 42, 64
2, 97088, Note_off_c, 9, 38, 64
2, 97200, Control_c, 9, 91, 0
2, 97208, Note_on_c, 9, 42, 127
2, 97208, Note_on_c, 9, 35, 127
2, 97208, Note_on_c, 9, 35, 127
2, 97328, Note_off_c, 9, 42, 64
2, 97328, Note_off_c, 9, 35, 64
2, 97328, Note_off_c, 9, 35, 64
2, 97443, Note_on_c, 9, 42, 127
2, 97443, Note_on_c, 9, 35, 127
2, 97443, Note_on_c, 9, 35, 127
2, 97563, Note_off_c, 9, 42, 64
2, 97563, Note_off_c, 9, 35, 64
2, 97563, Note_off_c, 9, 35, 64
2, 97683, Note_on_c, 9, 42, 127
2, 97803, Note_off_c, 9, 42, 64
2, 97925, Control_c, 9, 91, 127
2, 97925, Note_on_c, 9, 38, 127
2, 97925, Note_on_c, 9, 42, 127
2, 97925, Note_on_c, 9, 38, 127
2, 98045, Note_off_c, 9, 38, 64
2, 98045, Note_off_c, 9, 42, 64
2, 98045, Note_off_c, 9, 38, 64
2, 98160, Control_c, 9, 91, 0
2, 98163, Note_on_c, 9, 46, 127
2, 98283, Note_off_c, 9, 46, 64
2, 98403, Note_on_c, 9, 35, 127
2, 98403, Note_on_c, 9, 42, 127
2, 98403, Note_on_c, 9, 35, 127
2, 98523, Note_off_c, 9, 35, 64
2, 98523, Note_off_c, 9, 42, 64
2, 98523, Note_off_c, 9, 35, 64
2, 98640, Note_on_c, 9, 42, 127
2, 98760, Note_off_c, 9, 42, 64
2, 98880, Control_c, 9, 91, 127
2, 98880, Note_on_c, 9, 38, 127
2, 98880, Note_on_c, 9, 42, 127
2, 98880, Note_on_c, 9, 38, 127
2, 99000, Note_off_c, 9, 38, 64
2, 99000, Note_off_c, 9, 42, 64
2, 99000, Note_off_c, 9, 38, 64
2, 99120, Control_c, 9, 91, 0
2, 99128, Note_on_c, 9, 42, 127
2, 99128, Note_on_c, 9, 35, 127
2, 99128, Note_on_c, 9, 35, 127
2, 99248, Note_off_c, 9, 42, 64
2, 99248, Note_off_c, 9, 35, 64
2, 99248, Note_off_c, 9, 35, 64
2, 99358, Note_on_c, 9, 42, 127
2, 99358, Note_on_c, 9, 35, 127
2, 99358, Note_on_c, 9, 35, 127
2, 99478, Note_off_c, 9, 42, 64
2, 99478, Note_off_c, 9, 35, 64
2, 99478, Note_off_c, 9, 35, 64
2, 99595, Note_on_c, 9, 42, 127
2, 99715, Note_off_c, 9, 42, 64
2, 99835, Control_c, 9, 91, 127
2, 99835, Note_on_c, 9, 38, 127
2, 99835, Note_on_c, 9, 42, 127
2, 99835, Note_on_c, 9, 38, 127
2, 99955, Note_off_c, 9, 38, 64
2, 99955, Note_off_c, 9, 42, 64
2, 99955, Note_off_c, 9, 38, 64
2, 100080, Control_c, 9, 91, 0
2, 100085, Note_on_c, 9, 46, 127
2, 100205, Note_off_c, 9, 46, 64
2, 100320, Note_on_c, 9, 35, 127
2, 100320, Note_on_c, 9, 35, 127
2, 100320, Note_on_c, 9, 42, 127
2, 100440, Note_off_c, 9, 35, 64
2, 100440, Note_off_c, 9, 35, 64
2, 100440, Note_off_c, 9, 42, 64
2, 100565, Note_on_c, 9, 42, 127
2, 100685, Note_off_c, 9, 42, 64
2, 100808, Control_c, 9, 91, 127
2, 100808, Note_on_c, 9, 38, 127
2, 100808, Note_on_c, 9, 42, 127
2, 100808, Note_on_c, 9, 38, 127
2, 100928, Note_off_c, 9, 38, 64
2, 100928, Note_off_c, 9, 42, 64
2, 100928, Note_off_c, 9, 38, 64
2, 101040, Control_c, 9, 91, 0
2, 101048, Note_on_c, 9, 42, 127
2, 101048, Note_on_c, 9, 35, 127
2, 101048, Note_on_c, 9, 35, 127
2, 101168, Note_off_c, 9, 42, 64
2, 101168, Note_off_c, 9, 35, 64
2, 101168, Note_off_c, 9, 35, 64
2, 101283, Note_on_c, 9, 42, 127
2, 101283, Note_on_c, 9, 35, 127
2, 101283, Note_on_c, 9, 35, 127
2, 101403, Note_off_c, 9, 42, 64
2, 101403, Note_off_c, 9, 35, 64
2, 101403, Note_off_c, 9, 35, 64
2, 101523, Note_on_c, 9, 42, 127
2, 101643, Note_off_c, 9, 42, 64
2, 101765, Control_c, 9, 91, 127
2, 101765, Note_on_c, 9, 38, 127
2, 101765, Note_on_c, 9, 42, 127
2, 101765, Note_on_c, 9, 38, 127
2, 101885, Note_off_c, 9, 38, 64
2, 101885, Note_off_c, 9, 42, 64
2, 101885, Note_off_c, 9, 38, 64
2, 102000, Control_c, 9, 91, 0
2, 102003, Note_on_c, 9, 46, 127
2, 102123, Note_off_c, 9, 46, 64
2, 102243, Note_on_c, 9, 35, 127
2, 102243, Note_on_c, 9, 35, 127
2, 102243, Note_on_c, 9, 42, 127
2, 102363, Note_off_c, 9, 35, 64
2, 102363, Note_off_c, 9, 35, 64
2, 102363, Note_off_c, 9, 42, 64
2, 102480, Note_on_c, 9, 42, 127
2, 102600, Note_off_c, 9, 42, 64
2, 102720, Control_c, 9, 91, 127
2, 102720, Note_on_c, 9, 38, 127
2, 102720, Note_on_c, 9, 42, 127
2, 102720, Note_on_c, 9, 38, 127
2, 102840, Note_off_c, 9, 38, 64
2, 102840, Note_off_c, 9, 42, 64
2, 102840, Note_off_c, 9, 38, 64
2, 102960, Control_c, 9, 91, 0
2, 102968, Note_on_c, 9, 42, 127
2, 102968, Note_on_c, 9, 35, 127
2, 102968, Note_on_c, 9, 35, 127
2, 103088, Note_off_c, 9, 42, 64
2, 103088, Note_off_c, 9, 35, 64
2, 103088, Note_off_c, 9, 35, 64
2, 103198, Note_on_c, 9, 42, 127
2, 103198, Note_on_c, 9, 35, 127
2, 103198, Note_on_c, 9, 35, 127
2, 103318, Note_off_c, 9, 42, 64
2, 103318, Note_off_c, 9, 35, 64
2, 103318, Note_off_c, 9, 35, 64
2, 103435, Note_on_c, 9, 42, 127
2, 103555, Note_off_c, 9, 42, 64
2, 103675, Control_c, 9, 91, 127
2, 103675, Note_on_c, 9, 38, 127
2, 103675, Note_on_c, 9, 42, 127
2, 103675, Note_on_c, 9, 38, 127
2, 103680, Note_on_c, 9, 83, 89
2, 103795, Control_c, 9, 91, 0
2, 103795, Note_off_c, 9, 38, 64
2, 103795, Note_off_c, 9, 42, 64
2, 103795, Note_off_c, 9, 38, 64
2, 103800, Note_off_c, 9, 83, 64
2, 103800, Control_c, 9, 91, 127
2, 103800, Note_on_c, 9, 38, 127
2, 103800, Note_on_c, 9, 83, 127
2, 103800, Note_on_c, 9, 38, 127
2, 103920, Note_off_c, 9, 38, 64
2, 103920, Note_off_c, 9, 83, 64
2, 103920, Note_off_c, 9, 38, 64
2, 103925, Note_on_c, 9, 46, 127
2, 104045, Note_off_c, 9, 46, 64
2, 104160, Control_c, 9, 91, 0
2, 104160, Note_on_c, 9, 35, 127
2, 104160, Note_on_c, 9, 42, 127
2, 104160, Note_on_c, 9, 35, 127
2, 104280, Note_off_c, 9, 35, 64
2, 104280, Note_off_c, 9, 42, 64
2, 104280, Note_off_c, 9, 35, 64
2, 104405, Note_on_c, 9, 42, 127
2, 104525, Note_off_c, 9, 42, 64
2, 104648, Control_c, 9, 91, 127
2, 104648, Note_on_c, 9, 38, 127
2, 104648, Note_on_c, 9, 42, 127
2, 104648, Note_on_c, 9, 38, 127
2, 104768, Note_off_c, 9, 38, 64
2, 104768, Note_off_c, 9, 42, 64
2, 104768, Note_off_c, 9, 38, 64
2, 104880, Control_c, 9, 91, 0
2, 104888, Note_on_c, 9, 42, 127
2, 104888, Note_on_c, 9, 35, 127
2, 104888, Note_on_c, 9, 35, 127
2, 105008, Note_off_c, 9, 42, 64
2, 105008, Note_off_c, 9, 35, 64
2, 105008, Note_off_c, 9, 35, 64
2, 105123, Note_on_c, 9, 42, 127
2, 105123, Note_on_c, 9, 35, 127
2, 105123, Note_on_c, 9, 35, 127
2, 105243, Note_off_c, 9, 42, 64
2, 105243, Note_off_c, 9, 35, 64
2, 105243, Note_off_c, 9, 35, 64
2, 105363, Note_on_c, 9, 42, 127
2, 105483, Note_off_c, 9, 42, 64
2, 105605, Control_c, 9, 91, 127
2, 105605, Note_on_c, 9, 38, 127
2, 105605, Note_on_c, 9, 42, 127
2, 105605, Note_on_c, 9, 38, 127
2, 105725, Note_off_c, 9, 38, 64
2, 105725, Note_off_c, 9, 42, 64
2, 105725, Note_off_c, 9, 38, 64
2, 105840, Control_c, 9, 91, 0
2, 105843, Note_on_c, 9, 46, 127
2, 105963, Note_off_c, 9, 46, 64
2, 106083, Note_on_c, 9, 35, 127
2, 106083, Note_on_c, 9, 42, 127
2, 106083, Note_on_c, 9, 35, 127
2, 106203, Note_off_c, 9, 35, 64
2, 106203, Note_off_c, 9, 42, 64
2, 106203, Note_off_c, 9, 35, 64
2, 106320, Note_on_c, 9, 42, 127
2, 106440, Note_off_c, 9, 42, 64
2, 106560, Control_c, 9, 91, 127
2, 106560, Note_on_c, 9, 38, 127
2, 106560, Note_on_c, 9, 42, 127
2, 106560, Note_on_c, 9, 38, 127
2, 106680, Note_off_c, 9, 38, 64
2, 106680, Note_off_c, 9, 42, 64
2, 106680, Note_off_c, 9, 38, 64
2, 106800, Control_c, 9, 91, 0
2, 106808, Note_on_c, 9, 42, 127
2, 106808, Note_on_c, 9, 35, 127
2, 106808, Note_on_c, 9, 35, 127
2, 106928, Note_off_c, 9, 42, 64
2, 106928, Note_off_c, 9, 35, 64
2, 106928, Note_off_c, 9, 35, 64
2, 107038, Note_on_c, 9, 42, 127
2, 107038, Note_on_c, 9, 35, 127
2, 107038, Note_on_c, 9, 35, 127
2, 107158, Note_off_c, 9, 42, 64
2, 107158, Note_off_c, 9, 35, 64
2, 107158, Note_off_c, 9, 35, 64
2, 107275, Note_on_c, 9, 42, 127
2, 107395, Note_off_c, 9, 42, 64
2, 107515, Control_c, 9, 91, 127
2, 107515, Note_on_c, 9, 38, 127
2, 107515, Note_on_c, 9, 42, 127
2, 107515, Note_on_c, 9, 38, 127
2, 107635, Note_off_c, 9, 38, 64
2, 107635, Note_off_c, 9, 42, 64
2, 107635, Note_off_c, 9, 38, 64
2, 107760, Control_c, 9, 91, 0
2, 107765, Note_on_c, 9, 46, 127
2, 107885, Note_off_c, 9, 46, 64
2, 108000, Note_on_c, 9, 35, 127
2, 108000, Note_on_c, 9, 35, 127
2, 108000, Note_on_c, 9, 42, 127
2, 108120, Note_off_c, 9, 35, 64
2, 108120, Note_off_c, 9, 35, 64
2, 108120, Note_off_c, 9, 42, 64
2, 108245, Note_on_c, 9, 42, 127
2, 108365, Note_off_c, 9, 42, 64
2, 108488, Control_c, 9, 91, 127
2, 108488, Note_on_c, 9, 38, 127
2, 108488, Note_on_c, 9, 42, 127
2, 108488, Note_on_c, 9, 38, 127
2, 108608, Note_off_c, 9, 38, 64
2, 108608, Note_off_c, 9, 42, 64
2, 108608, Note_off_c, 9, 38, 64
2, 108720, Control_c, 9, 91, 0
2, 108728, Note_on_c, 9, 42, 127
2, 108728, Note_on_c, 9, 35, 127
2, 108728, Note_on_c, 9, 35, 127
2, 108848, Note_off_c, 9, 42, 64
2, 108848, Note_off_c, 9, 35, 64
2, 108848, Note_off_c, 9, 35, 64
2, 108963, Note_on_c, 9, 42, 127
2, 108963, Note_on_c, 9, 35, 127
2, 108963, Note_on_c, 9, 35, 127
2, 109083, Note_off_c, 9, 42, 64
2, 109083, Note_off_c, 9, 35, 64
2, 109083, Note_off_c, 9, 35, 64
2, 109203, Note_on_c, 9, 42, 127
2, 109323, Note_off_c, 9, 42, 64
2, 109445, Control_c, 9, 91, 127
2, 109445, Note_on_c, 9, 38, 127
2, 109445, Note_on_c, 9, 42, 127
2, 109445, Note_on_c, 9, 38, 127
2, 109565, Note_off_c, 9, 38, 64
2, 109565, Note_off_c, 9, 42, 64
2, 109565, Note_off_c, 9, 38, 64
2, 109680, Control_c, 9, 91, 0
2, 109683, Note_on_c, 9, 46, 127
2, 109803, Note_off_c, 9, 46, 64
2, 109923, Note_on_c, 9, 35, 127
2, 109923, Note_on_c, 9, 35, 127
2, 109923, Note_on_c, 9, 42, 127
2, 110043, Note_off_c, 9, 35, 64
2, 110043, Note_off_c, 9, 35, 64
2, 110043, Note_off_c, 9, 42, 64
2, 110160, Note_on_c, 9, 42, 127
2, 110280, Note_off_c, 9, 42, 64
2, 110400, Control_c, 9, 91, 127
2, 110400, Note_on_c, 9, 38, 127
2, 110400, Note_on_c, 9, 42, 127
2, 110400, Note_on_c, 9, 38, 127
2, 110520, Note_off_c, 9, 38, 64
2, 110520, Note_off_c, 9, 42, 64
2, 110520, Note_off_c, 9, 38, 64
2, 110640, Control_c, 9, 91, 0
2, 110648, Note_on_c, 9, 42, 127
2, 110648, Note_on_c, 9, 35, 127
2, 110648, Note_on_c, 9, 35, 127
2, 110768, Note_off_c, 9, 42, 64
2, 110768, Note_off_c, 9, 35, 64
2, 110768, Note_off_c, 9, 35, 64
2, 110878, Note_on_c, 9, 42, 127
2, 110878, Note_on_c, 9, 35, 127
2, 110878, Note_on_c, 9, 35, 127
2, 110998, Note_off_c, 9, 42, 64
2, 110998, Note_off_c, 9, 35, 64
2, 110998, Note_off_c, 9, 35, 64
2, 111115, Note_on_c, 9, 42, 127
2, 111235, Note_off_c, 9, 42, 64
2, 111355, Control_c, 9, 91, 127
2, 111355, Note_on_c, 9, 38, 127
2, 111355, Note_on_c, 9, 42, 127
2, 111355, Note_on_c, 9, 38, 127
2, 111360, Note_on_c, 9, 83, 89
2, 111475, Control_c, 9, 91, 0
2, 111475, Note_off_c, 9, 38, 64
2, 111475, Note_off_c, 9, 42, 64
2, 111475, Note_off_c, 9, 38, 64
2, 111480, Note_off_c, 9, 83, 64
2, 111480, Control_c, 9, 91, 127
2, 111480, Note_on_c, 9, 83, 127
2, 111480, Note_on_c, 9, 38, 127
2, 111503, Note_on_c, 9, 38, 99
2, 111600, Note_off_c, 9, 83, 64
2, 111600, Note_off_c, 9, 38, 64
2, 111600, Note_on_c, 9, 84, 127
2, 111605, Note_on_c, 9, 46, 127
2, 111623, Note_off_c, 9, 38, 64
2, 111725, Note_off_c, 9, 46, 64
2, 111840, Control_c, 9, 91, 0
2, 111840, Note_off_c, 9, 84, 64
2, 111840, Note_on_c, 9, 35, 127
2, 111840, Note_on_c, 9, 42, 127
2, 111840, Note_on_c, 9, 55, 127
2, 111840, Note_on_c, 9, 35, 127
2, 111960, Note_off_c, 9, 35, 64
2, 111960, Note_off_c, 9, 42, 64
2, 111960, Note_off_c, 9, 55, 64
2, 111960, Note_off_c, 9, 35, 64
2, 112085, Note_on_c, 9, 42, 127
2, 112205, Note_off_c, 9, 42, 64
2, 112328, Control_c, 9, 91, 127
2, 112328, Note_on_c, 9, 38, 127
2, 112328, Note_on_c, 9, 42, 127
2, 112328, Note_on_c, 9, 38, 127
2, 112448, Note_off_c, 9, 38, 64
2, 112448, Note_off_c, 9, 42, 64
2, 112448, Note_off_c, 9, 38, 64
2, 112560, Control_c, 9, 91, 0
2, 112568, Note_on_c, 9, 42, 127
2, 112568, Note_on_c, 9, 35, 127
2, 112568, Note_on_c, 9, 35, 127
2, 112688, Note_off_c, 9, 42, 64
2, 112688, Note_off_c, 9, 35, 64
2, 112688, Note_off_c, 9, 35, 64
2, 112803, Note_on_c, 9, 42, 127
2, 112803, Note_on_c, 9, 35, 127
2, 112803, Note_on_c, 9, 35, 127
2, 112923, Note_off_c, 9, 42, 64
2, 112923, Note_off_c, 9, 35, 64
2, 112923, Note_off_c, 9, 35, 64
2, 113043, Note_on_c, 9, 42, 127
2, 113163, Note_off_c, 9, 42, 64
2, 113285, Control_c, 9, 91, 127
2, 113285, Note_on_c, 9, 38, 127
2, 113285, Note_on_c, 9, 42, 127
2, 113285, Note_on_c, 9, 38, 127
2, 113405, Note_off_c, 9, 38, 64
2, 113405, Note_off_c, 9, 42, 64
2, 113405, Note_off_c, 9, 38, 64
2, 113520, Control_c, 9, 91, 0
2, 113523, Note_on_c, 9, 46, 127
2, 113643, Note_off_c, 9, 46, 64
2, 113763, Note_on_c, 9, 35, 127
2, 113763, Note_on_c, 9, 42, 127
2, 113763, Note_on_c, 9, 35, 127
2, 113883, Note_off_c, 9, 35, 64
2, 113883, Note_off_c, 9, 42, 64
2, 113883, Note_off_c, 9, 35, 64
2, 114000, Note_on_c, 9, 42, 127
2, 114120, Note_off_c, 9, 42, 64
2, 114240, Control_c, 9, 91, 127
2, 114240, Note_on_c, 9, 38, 127
2, 114240, Note_on_c, 9, 42, 127
2, 114240, Note_on_c, 9, 38, 127
2, 114360, Note_off_c, 9, 38, 64
2, 114360, Note_off_c, 9, 42, 64
2, 114360, Note_off_c, 9, 38, 64
2, 114480, Control_c, 9, 91, 0
2, 114488, Note_on_c, 9, 42, 127
2, 114488, Note_on_c, 9, 35, 127
2, 114488, Note_on_c, 9, 35, 127
2, 114608, Note_off_c, 9, 42, 64
2, 114608, Note_off_c, 9, 35, 64
2, 114608, Note_off_c, 9, 35, 64
2, 114718, Note_on_c, 9, 42, 127
2, 114718, Note_on_c, 9, 35, 127
2, 114718, Note_on_c, 9, 35, 127
2, 114838, Note_off_c, 9, 42, 64
2, 114838, Note_off_c, 9, 35, 64
2, 114838, Note_off_c, 9, 35, 64
2, 114955, Note_on_c, 9, 42, 127
2, 115075, Note_off_c, 9, 42, 64
2, 115195, Control_c, 9, 91, 127
2, 115195, Note_on_c, 9, 38, 127
2, 115195, Note_on_c, 9, 42, 127
2, 115195, Note_on_c, 9, 38, 127
2, 115315, Note_off_c, 9, 38, 64
2, 115315, Note_off_c, 9, 42, 64
2, 115315, Note_off_c, 9, 38, 64
2, 115440, Control_c, 9, 91, 0
2, 115445, Note_on_c, 9, 46, 127
2, 115565, Note_off_c, 9, 46, 64
2, 115680, Note_on_c, 9, 35, 127
2, 115680, Note_on_c, 9, 35, 127
2, 115680, Note_on_c, 9, 42, 127
2, 115800, Note_off_c, 9, 35, 64
2, 115800, Note_off_c, 9, 35, 64
2, 115800, Note_off_c, 9, 42, 64
2, 115925, Note_on_c, 9, 42, 127
2, 116045, Note_off_c, 9, 42, 64
2, 116168, Control_c, 9, 91, 127
2, 116168, Note_on_c, 9, 38, 127
2, 116168, Note_on_c, 9, 42, 127
2, 116168, Note_on_c, 9, 38, 127
2, 116288, Note_off_c, 9, 38, 64
2, 116288, Note_off_c, 9, 42, 64
2, 116288, Note_off_c, 9, 38, 64
2, 116400, Control_c, 9, 91, 0
2, 116408, Note_on_c, 9, 42, 127
2, 116408, Note_on_c, 9, 35, 127
2, 116408, Note_on_c, 9, 35, 127
2, 116528, Note_off_c, 9, 42, 64
2, 116528, Note_off_c, 9, 35, 64
2, 116528, Note_off_c, 9, 35, 64
2, 116643, Note_on_c, 9, 42, 127
2, 116643, Note_on_c, 9, 35, 127
2, 116643, Note_on_c, 9, 35, 127
2, 116763, Note_off_c, 9, 42, 64
2, 116763, Note_off_c, 9, 35, 64
2, 116763, Note_off_c, 9, 35, 64
2, 116883, Note_on_c, 9, 42, 127
2, 117003, Note_off_c, 9, 42, 64
2, 117125, Control_c, 9, 91, 127
2, 117125, Note_on_c, 9, 38, 127
2, 117125, Note_on_c, 9, 42, 127
2, 117125, Note_on_c, 9, 38, 127
2, 117245, Note_off_c, 9, 38, 64
2, 117245, Note_off_c, 9, 42, 64
2, 117245, Note_off_c, 9, 38, 64
2, 117360, Control_c, 9, 91, 0
2, 117363, Note_on_c, 9, 46, 127
2, 117483, Note_off_c, 9, 46, 64
2, 117603, Note_on_c, 9, 35, 127
2, 117603, Note_on_c, 9, 35, 127
2, 117603, Note_on_c, 9, 42, 127
2, 117723, Note_off_c, 9, 35, 64
2, 117723, Note_off_c, 9, 35, 64
2, 117723, Note_off_c, 9, 42, 64
2, 117840, Note_on_c, 9, 42, 127
2, 117960, Note_off_c, 9, 42, 64
2, 118080, Control_c, 9, 91, 127
2, 118080, Note_on_c, 9, 38, 127
2, 118080, Note_on_c, 9, 42, 127
2, 118080, Note_on_c, 9, 38, 127
2, 118200, Note_off_c, 9, 38, 64
2, 118200, Note_off_c, 9, 42, 64
2, 118200, Note_off_c, 9, 38, 64
2, 118320, Control_c, 9, 91, 0
2, 118328, Note_on_c, 9, 42, 127
2, 118328, Note_on_c, 9, 35, 127
2, 118328, Note_on_c, 9, 35, 127
2, 118448, Note_off_c, 9, 42, 64
2, 118448, Note_off_c, 9, 35, 64
2, 118448, Note_off_c, 9, 35, 64
2, 118558, Note_on_c, 9, 42, 127
2, 118558, Note_on_c, 9, 35, 127
2, 118558, Note_on_c, 9, 35, 127
2, 118678, Note_off_c, 9, 42, 64
2, 118678, Note_off_c, 9, 35, 64
2, 118678, Note_off_c, 9, 35, 64
2, 118795, Note_on_c, 9, 42, 127
2, 118915, Note_off_c, 9, 42, 64
2, 119035, Control_c, 9, 91, 127
2, 119035, Note_on_c, 9, 38, 127
2, 119035, Note_on_c, 9, 42, 127
2, 119035, Note_on_c, 9, 38, 127
2, 119040, Note_on_c, 9, 83, 89
2, 119155, Control_c, 9, 91, 0
2, 119155, Note_off_c, 9, 38, 64
2, 119155, Note_off_c, 9, 42, 64
2, 119155, Note_off_c, 9, 38, 64
2, 119160, Note_off_c, 9, 83, 64
2, 119160, Control_c, 9, 91, 127
2, 119160, Note_on_c, 9, 38, 127
2, 119160, Note_on_c, 9, 83, 127
2, 119160, Note_on_c, 9, 38, 127
2, 119280, Note_off_c, 9, 38, 64
2, 119280, Note_off_c, 9, 83, 64
2, 119280, Note_off_c, 9, 38, 64
2, 119285, Note_on_c, 9, 46, 127
2, 119405, Note_off_c, 9, 46, 64
2, 119520, Control_c, 9, 91, 0
2, 119520, Note_on_c, 9, 35, 127
2, 119520, Note_on_c, 9, 42, 127
2, 119520, Note_on_c, 9, 35, 127
2, 119640, Note_off_c, 9, 35, 64
2, 119640, Note_off_c, 9, 42, 64
2, 119640, Note_off_c, 9, 35, 64
2, 119765, Note_on_c, 9, 42, 127
2, 119885, Note_off_c, 9, 42, 64
2, 120008, Control_c, 9, 91, 127
2, 120008, Note_on_c, 9, 38, 127
2, 120008, Note_on_c, 9, 42, 127
2, 120008, Note_on_c, 9, 38, 127
2, 120128, Note_off_c, 9, 38, 64
2, 120128, Note_off_c, 9, 42, 64
2, 120128, Note_off_c, 9, 38, 64
2, 120240, Control_c, 9, 91, 0
2, 120248, Note_on_c, 9, 42, 127
2, 120248, Note_on_c, 9, 35, 127
2, 120248, Note_on_c, 9, 35, 127
2, 120368, Note_off_c, 9, 42, 64
2, 120368, Note_off_c, 9, 35, 64
2, 120368, Note_off_c, 9, 35, 64
2, 120483, Note_on_c, 9, 42, 127
2, 120483, Note_on_c, 9, 35, 127
2, 120483, Note_on_c, 9, 35, 127
2, 120603, Note_off_c, 9, 42, 64
2, 120603, Note_off_c, 9, 35, 64
2, 120603, Note_off_c, 9, 35, 64
2, 120723, Note_on_c, 9, 42, 127
2, 120843, Note_off_c, 9, 42, 64
2, 120965, Control_c, 9, 91, 127
2, 120965, Note_on_c, 9, 38, 127
2, 120965, Note_on_c, 9, 42, 127
2, 120965, Note_on_c, 9, 38, 127
2, 121085, Note_off_c, 9, 38, 64
2, 121085, Note_off_c, 9, 42, 64
2, 121085, Note_off_c, 9, 38, 64
2, 121200, Control_c, 9, 91, 0
2, 121203, Note_on_c, 9, 46, 127
2, 121323, Note_off_c, 9, 46, 64
2, 121443, Note_on_c, 9, 35, 127
2, 121443, Note_on_c, 9, 42, 127
2, 121443, Note_on_c, 9, 35, 127
2, 121563, Note_off_c, 9, 35, 64
2, 121563, Note_off_c, 9, 42, 64
2, 121563, Note_off_c, 9, 35, 64
2, 121680, Note_on_c, 9, 42, 127
2, 121800, Note_off_c, 9, 42, 64
2, 121920, Control_c, 9, 91, 127
2, 121920, Note_on_c, 9, 38, 127
2, 121920, Note_on_c, 9, 42, 127
2, 121920, Note_on_c, 9, 38, 127
2, 122040, Note_off_c, 9, 38, 64
2, 122040, Note_off_c, 9, 42, 64
2, 122040, Note_off_c, 9, 38, 64
2, 122160, Control_c, 9, 91, 0
2, 122168, Note_on_c, 9, 42, 127
2, 122168, Note_on_c, 9, 35, 127
2, 122168, Note_on_c, 9, 35, 127
2, 122288, Note_off_c, 9, 42, 64
2, 122288, Note_off_c, 9, 35, 64
2, 122288, Note_off_c, 9, 35, 64
2, 122398, Note_on_c, 9, 42, 127
2, 122398, Note_on_c, 9, 35, 127
2, 122398, Note_on_c, 9, 35, 127
2, 122518, Note_off_c, 9, 42, 64
2, 122518, Note_off_c, 9, 35, 64
2, 122518, Note_off_c, 9, 35, 64
2, 122635, Note_on_c, 9, 42, 127
2, 122755, Note_off_c, 9, 42, 64
2, 122875, Control_c, 9, 91, 127
2, 122875, Note_on_c, 9, 38, 127
2, 122875, Note_on_c, 9, 42, 127
2, 122875, Note_on_c, 9, 38, 127
2, 122995, Note_off_c, 9, 38, 64
2, 122995, Note_off_c, 9, 42, 64
2, 122995, Note_off_c, 9, 38, 64
2, 123120, Control_c, 9, 91, 0
2, 123125, Note_on_c, 9, 46, 127
2, 123245, Note_off_c, 9, 46, 64
2, 123360, Note_on_c, 9, 35, 127
2, 123360, Note_on_c, 9, 35, 127
2, 123360, Note_on_c, 9, 42, 127
2, 123480, Note_off_c, 9, 35, 64
2, 123480, Note_off_c, 9, 35, 64
2, 123480, Note_off_c, 9, 42, 64
2, 123605, Note_on_c, 9, 42, 127
2, 123725, Note_off_c, 9, 42, 64
2, 123848, Control_c, 9, 91, 127
2, 123848, Note_on_c, 9, 38, 127
2, 123848, Note_on_c, 9, 42, 127
2, 123848, Note_on_c, 9, 38, 127
2, 123968, Note_off_c, 9, 38, 64
2, 123968, Note_off_c, 9, 42, 64
2, 123968, Note_off_c, 9, 38, 64
2, 124080, Control_c, 9, 91, 0
2, 124088, Note_on_c, 9, 42, 127
2, 124088, Note_on_c, 9, 35, 127
2, 124088, Note_on_c, 9, 35, 127
2, 124208, Note_off_c, 9, 42, 64
2, 124208, Note_off_c, 9, 35, 64
2, 124208, Note_off_c, 9, 35, 64
2, 124323, Note_on_c, 9, 42, 127
2, 124323, Note_on_c, 9, 35, 127
2, 124323, Note_on_c, 9, 35, 127
2, 124443, Note_off_c, 9, 42, 64
2, 124443, Note_off_c, 9, 35, 64
2, 124443, Note_off_c, 9, 35, 64
2, 124563, Note_on_c, 9, 42, 127
2, 124683, Note_off_c, 9, 42, 64
2, 124805, Control_c, 9, 91, 127
2, 124805, Note_on_c, 9, 38, 127
2, 124805, Note_on_c, 9, 42, 127
2, 124805, Note_on_c, 9, 38, 127
2, 124925, Note_off_c, 9, 38, 64
2, 124925, Note_off_c, 9, 42, 64
2, 124925, Note_off_c, 9, 38, 64
2, 125040, Control_c, 9, 91, 0
2, 125043, Note_on_c, 9, 46, 127
2, 125163, Note_off_c, 9, 46, 64
2, 125283, Note_on_c, 9, 35, 127
2, 125283, Note_on_c, 9, 35, 127
2, 125283, Note_on_c, 9, 42, 127
2, 125403, Note_off_c, 9, 35, 64
2, 125403, Note_off_c, 9, 35, 64
2, 125403, Note_off_c, 9, 42, 64
2, 125520, Note_on_c, 9, 42, 127
2, 125640, Note_off_c, 9, 42, 64
2, 125760, Control_c, 9, 91, 127
2, 125760, Note_on_c, 9, 38, 127
2, 125760, Note_on_c, 9, 42, 127
2, 125760, Note_on_c, 9, 38, 127
2, 125880, Note_off_c, 9, 38, 64
2, 125880, Note_off_c, 9, 42, 64
2, 125880, Note_off_c, 9, 38, 64
2, 126000, Control_c, 9, 91, 0
2, 126008, Note_on_c, 9, 42, 127
2, 126008, Note_on_c, 9, 35, 127
2, 126008, Note_on_c, 9, 35, 127
2, 126128, Note_off_c, 9, 42, 64
2, 126128, Note_off_c, 9, 35, 64
2, 126128, Note_off_c, 9, 35, 64
2, 126238, Note_on_c, 9, 42, 127
2, 126238, Note_on_c, 9, 35, 127
2, 126238, Note_on_c, 9, 35, 127
2, 126358, Note_off_c, 9, 42, 64
2, 126358, Note_off_c, 9, 35, 64
2, 126358, Note_off_c, 9, 35, 64
2, 126475, Note_on_c, 9, 42, 127
2, 126595, Note_off_c, 9, 42, 64
2, 126715, Control_c, 9, 91, 127
2, 126715, Note_on_c, 9, 38, 127
2, 126715, Note_on_c, 9, 42, 127
2, 126715, Note_on_c, 9, 38, 127
2, 126720, Note_on_c, 9, 83, 89
2, 126835, Control_c, 9, 91, 0
2, 126835, Note_off_c, 9, 38, 64
2, 126835, Note_off_c, 9, 42, 64
2, 126835, Note_off_c, 9, 38, 64
2, 126840, Note_off_c, 9, 83, 64
2, 126840, Control_c, 9, 91, 127
2, 126840, Note_on_c, 9, 83, 127
2, 126840, Note_on_c, 9, 38, 127
2, 126863, Note_on_c, 9, 38, 99
2, 126960, Note_off_c, 9, 83, 64
2, 126960, Note_off_c, 9, 38, 64
2, 126960, Note_on_c, 9, 84, 127
2, 126965, Note_on_c, 9, 46, 127
2, 126983, Note_off_c, 9, 38, 64
2, 127085, Note_off_c, 9, 46, 64
2, 127200, Note_off_c, 9, 84, 64
2, 127200, Note_on_c, 9, 55, 127
2, 127200, Control_c, 9, 91, 0
2, 127320, Note_off_c, 9, 55, 64
2, 127688, Control_c, 9, 91, 127
2, 127920, Control_c, 9, 91, 0
2, 128645, Control_c, 9, 91, 127
2, 128880, Control_c, 9, 91, 0
2, 129600, Control_c, 9, 91, 127
2, 129840, Control_c, 9, 91, 0
2, 130555, Control_c, 9, 91, 127
2, 130800, Control_c, 9, 91, 0
2, 131528, Control_c, 9, 91, 127
2, 131760, Control_c, 9, 91, 0
2, 132485, Control_c, 9, 91, 127
2, 132720, Control_c, 9, 91, 0
2, 133440, Control_c, 9, 91, 127
2, 133680, Control_c, 9, 91, 0
2, 134395, Control_c, 9, 91, 127
2, 134395, Note_on_c, 9, 42, 127
2, 134395, Note_on_c, 9, 38, 127
2, 134395, Note_on_c, 9, 38, 127
2, 134400, Note_on_c, 9, 83, 89
2, 134515, Control_c, 9, 91, 0
2, 134515, Note_off_c, 9, 42, 64
2, 134515, Note_off_c, 9, 38, 64
2, 134515, Note_off_c, 9, 38, 64
2, 134520, Note_off_c, 9, 83, 64
2, 134520, Control_c, 9, 91, 127
2, 134520, Note_on_c, 9, 38, 127
2, 134520, Note_on_c, 9, 83, 127
2, 134520, Note_on_c, 9, 38, 127
2, 134640, Note_off_c, 9, 38, 64
2, 134640, Note_off_c, 9, 83, 64
2, 134640, Note_off_c, 9, 38, 64
2, 134645, Note_on_c, 9, 46, 127
2, 134765, Note_off_c, 9, 46, 64
2, 134880, Control_c, 9, 91, 0
2, 134880, Note_on_c, 9, 35, 127
2, 134880, Note_on_c, 9, 42, 127
2, 134880, Note_on_c, 9, 35, 127
2, 135000, Note_off_c, 9, 35, 64
2, 135000, Note_off_c, 9, 42, 64
2, 135000, Note_off_c, 9, 35, 64
2, 135125, Note_on_c, 9, 42, 127
2, 135245, Note_off_c, 9, 42, 64
2, 135368, Control_c, 9, 91, 127
2, 135368, Note_on_c, 9, 38, 127
2, 135368, Note_on_c, 9, 42, 127
2, 135368, Note_on_c, 9, 38, 127
2, 135488, Note_off_c, 9, 38, 64
2, 135488, Note_off_c, 9, 42, 64
2, 135488, Note_off_c, 9, 38, 64
2, 135600, Control_c, 9, 91, 0
2, 135608, Note_on_c, 9, 42, 127
2, 135608, Note_on_c, 9, 35, 127
2, 135608, Note_on_c, 9, 35, 127
2, 135728, Note_off_c, 9, 42, 64
2, 135728, Note_off_c, 9, 35, 64
2, 135728, Note_off_c, 9, 35, 64
2, 135843, Note_on_c, 9, 42, 127
2, 135843, Note_on_c, 9, 35, 127
2, 135843, Note_on_c, 9, 35, 127
2, 135963, Note_off_c, 9, 42, 64
2, 135963, Note_off_c, 9, 35, 64
2, 135963, Note_off_c, 9, 35, 64
2, 136083, Note_on_c, 9, 42, 127
2, 136203, Note_off_c, 9, 42, 64
2, 136325, Control_c, 9, 91, 127
2, 136325, Note_on_c, 9, 38, 127
2, 136325, Note_on_c, 9, 42, 127
2, 136325, Note_on_c, 9, 38, 127
2, 136445, Note_off_c, 9, 38, 64
2, 136445, Note_off_c, 9, 42, 64
2, 136445, Note_off_c, 9, 38, 64
2, 136560, Control_c, 9, 91, 0
2, 136563, Note_on_c, 9, 46, 127
2, 136683, Note_off_c, 9, 46, 64
2, 136803, Note_on_c, 9, 35, 127
2, 136803, Note_on_c, 9, 42, 127
2, 136803, Note_on_c, 9, 35, 127
2, 136923, Note_off_c, 9, 35, 64
2, 136923, Note_off_c, 9, 42, 64
2, 136923, Note_off_c, 9, 35, 64
2, 137040, Note_on_c, 9, 42, 127
2, 137160, Note_off_c, 9, 42, 64
2, 137280, Control_c, 9, 91, 127
2, 137280, Note_on_c, 9, 38, 127
2, 137280, Note_on_c, 9, 42, 127
2, 137280, Note_on_c, 9, 38, 127
2, 137400, Note_off_c, 9, 38, 64
2, 137400, Note_off_c, 9, 42, 64
2, 137400, Note_off_c, 9, 38, 64
2, 137520, Control_c, 9, 91, 0
2, 137528, Note_on_c, 9, 42, 127
2, 137528, Note_on_c, 9, 35, 127
2, 137528, Note_on_c, 9, 35, 127
2, 137648, Note_off_c, 9, 42, 64
2, 137648, Note_off_c, 9, 35, 64
2, 137648, Note_off_c, 9, 35, 64
2, 137758, Note_on_c, 9, 42, 127
2, 137758, Note_on_c, 9, 35, 127
2, 137758, Note_on_c, 9, 35, 127
2, 137878, Note_off_c, 9, 42, 64
2, 137878, Note_off_c, 9, 35, 64
2, 137878, Note_off_c, 9, 35, 64
2, 137995, Note_on_c, 9, 42, 127
2, 138115, Note_off_c, 9, 42, 64
2, 138235, Control_c, 9, 91, 127
2, 138235, Note_on_c, 9, 38, 127
2, 138235, Note_on_c, 9, 42, 127
2, 138235, Note_on_c, 9, 38, 127
2, 138355, Note_off_c, 9, 38, 64
2, 138355, Note_off_c, 9, 42, 64
2, 138355, Note_off_c, 9, 38, 64
2, 138480, Control_c, 9, 91, 0
2, 138485, Note_on_c, 9, 46, 127
2, 138605, Note_off_c, 9, 46, 64
2, 138720, Note_on_c, 9, 35, 127
2, 138720, Note_on_c, 9, 35, 127
2, 138720, Note_on_c, 9, 42, 127
2, 138840, Note_off_c, 9, 35, 64
2, 138840, Note_off_c, 9, 35, 64
2, 138840, Note_off_c, 9, 42, 64
2, 138965, Note_on_c, 9, 42, 127
2, 139085, Note_off_c, 9, 42, 64
2, 139208, Control_c, 9, 91, 127
2, 139208, Note_on_c, 9, 38, 127
2, 139208, Note_on_c, 9, 42, 127
2, 139208, Note_on_c, 9, 38, 127
2, 139328, Note_off_c, 9, 38, 64
2, 139328, Note_off_c, 9, 42, 64
2, 139328, Note_off_c, 9, 38, 64
2, 139440, Control_c, 9, 91, 0
2, 139448, Note_on_c, 9, 42, 127
2, 139448, Note_on_c, 9, 35, 127
2, 139448, Note_on_c, 9, 35, 127
2, 139568, Note_off_c, 9, 42, 64
2, 139568, Note_off_c, 9, 35, 64
2, 139568, Note_off_c, 9, 35, 64
2, 139683, Note_on_c, 9, 42, 127
2, 139683, Note_on_c, 9, 35, 127
2, 139683, Note_on_c, 9, 35, 127
2, 139803, Note_off_c, 9, 42, 64
2, 139803, Note_off_c, 9, 35, 64
2, 139803, Note_off_c, 9, 35, 64
2, 139923, Note_on_c, 9, 42, 127
2, 140043, Note_off_c, 9, 42, 64
2, 140165, Control_c, 9, 91, 127
2, 140165, Note_on_c, 9, 38, 127
2, 140165, Note_on_c, 9, 42, 127
2, 140165, Note_on_c, 9, 38, 127
2, 140285, Note_off_c, 9, 38, 64
2, 140285, Note_off_c, 9, 42, 64
2, 140285, Note_off_c, 9, 38, 64
2, 140400, Control_c, 9, 91, 0
2, 140403, Note_on_c, 9, 46, 127
2, 140523, Note_off_c, 9, 46, 64
2, 140643, Note_on_c, 9, 35, 127
2, 140643, Note_on_c, 9, 35, 127
2, 140643, Note_on_c, 9, 42, 127
2, 140763, Note_off_c, 9, 35, 64
2, 140763, Note_off_c, 9, 35, 64
2, 140763, Note_off_c, 9, 42, 64
2, 140880, Note_on_c, 9, 42, 127
2, 141000, Note_off_c, 9, 42, 64
2, 141120, Control_c, 9, 91, 127
2, 141120, Note_on_c, 9, 38, 127
2, 141120, Note_on_c, 9, 42, 127
2, 141120, Note_on_c, 9, 38, 127
2, 141240, Note_off_c, 9, 38, 64
2, 141240, Note_off_c, 9, 42, 64
2, 141240, Note_off_c, 9, 38, 64
2, 141360, Control_c, 9, 91, 0
2, 141368, Note_on_c, 9, 42, 127
2, 141368, Note_on_c, 9, 35, 127
2, 141368, Note_on_c, 9, 35, 127
2, 141488, Note_off_c, 9, 42, 64
2, 141488, Note_off_c, 9, 35, 64
2, 141488, Note_off_c, 9, 35, 64
2, 141598, Note_on_c, 9, 42, 127
2, 141598, Note_on_c, 9, 35, 127
2, 141598, Note_on_c, 9, 35, 127
2, 141718, Note_off_c, 9, 42, 64
2, 141718, Note_off_c, 9, 35, 64
2, 141718, Note_off_c, 9, 35, 64
2, 141835, Note_on_c, 9, 42, 127
2, 141955, Note_off_c, 9, 42, 64
2, 142075, Control_c, 9, 91, 127
2, 142075, Note_on_c, 9, 38, 127
2, 142075, Note_on_c, 9, 42, 127
2, 142075, Note_on_c, 9, 38, 127
2, 142080, Note_on_c, 9, 83, 89
2, 142195, Control_c, 9, 91, 0
2, 142195, Note_off_c, 9, 38, 64
2, 142195, Note_off_c, 9, 42, 64
2, 142195, Note_off_c, 9, 38, 64
2, 142200, Note_off_c, 9, 83, 64
2, 142200, Control_c, 9, 91, 127
2, 142200, Note_on_c, 9, 83, 127
2, 142200, Note_on_c, 9, 38, 127
2, 142223, Note_on_c, 9, 38, 99
2, 142320, Note_off_c, 9, 83, 64
2, 142320, Note_off_c, 9, 38, 64
2, 142320, Note_on_c, 9, 84, 127
2, 142325, Note_on_c, 9, 46, 127
2, 142343, Note_off_c, 9, 38, 64
2, 142445, Note_off_c, 9, 46, 64
2, 142554, Note_on_c, 9, 38, 127
2, 142556, Note_on_c, 9, 42, 127
2, 142556, Note_on_c, 9, 38, 127
2, 142560, Note_off_c, 9, 84, 64
2, 142560, Note_on_c, 9, 83, 89
2, 142674, Note_off_c, 9, 38, 64
2, 142676, Note_off_c, 9, 42, 64
2, 142676, Note_off_c, 9, 38, 64
2, 142680, Control_c, 9, 91, 127
2, 142680, Note_off_c, 9, 83, 64
2, 142680, Note_on_c, 9, 38, 127
2, 142680, Note_on_c, 9, 83, 127
2, 142703, Note_on_c, 9, 38, 99
2, 142800, Note_off_c, 9, 38, 64
2, 142800, Note_off_c, 9, 83, 64
2, 142800, Note_on_c, 9, 84, 127
2, 142805, Note_on_c, 9, 46, 127
2, 142823, Note_off_c, 9, 38, 64
2, 142925, Note_off_c, 9, 46, 64
2, 143034, Note_on_c, 9, 38, 127
2, 143037, Note_on_c, 9, 42, 127
2, 143037, Note_on_c, 9, 38, 127
2, 143040, Note_off_c, 9, 84, 64
2, 143040, Note_on_c, 9, 83, 89
2, 143154, Note_off_c, 9, 38, 64
2, 143157, Note_off_c, 9, 42, 64
2, 143157, Note_off_c, 9, 38, 64
2, 143160, Control_c, 9, 91, 127
2, 143160, Note_off_c, 9, 83, 64
2, 143160, Note_on_c, 9, 38, 127
2, 143160, Note_on_c, 9, 83, 127
2, 143183, Note_on_c, 9, 38, 99
2, 143280, Note_off_c, 9, 38, 64
2, 143280, Note_off_c, 9, 83, 64
2, 143280, Note_on_c, 9, 84, 127
2, 143285, Note_on_c, 9, 46, 127
2, 143303, Note_off_c, 9, 38, 64
2, 143405, Note_off_c, 9, 46, 64
2, 143514, Note_on_c, 9, 38, 127
2, 143518, Note_on_c, 9, 42, 127
2, 143518, Note_on_c, 9, 38, 127
2, 143520, Note_off_c, 9, 84, 64
2, 143520, Note_on_c, 9, 83, 89
2, 143634, Note_off_c, 9, 38, 64
2, 143635, Control_c, 9, 91, 0
2, 143638, Note_off_c, 9, 42, 64
2, 143638, Note_off_c, 9, 38, 64
2, 143640, Note_off_c, 9, 83, 64
2, 143640, Control_c, 9, 91, 127
2, 143640, Note_on_c, 9, 83, 127
2, 143640, Note_on_c, 9, 38, 127
2, 143663, Note_on_c, 9, 38, 99
2, 143760, Note_off_c, 9, 83, 64
2, 143760, Note_off_c, 9, 38, 64
2, 143760, Note_on_c, 9, 84, 127
2, 143765, Note_on_c, 9, 46, 127
2, 143783, Note_off_c, 9, 38, 64
2, 143885, Note_off_c, 9, 46, 64
2, 144000, Note_off_c, 9, 84, 64
2, 146400, End_track
3, 0, Start_track
3, 0, Instrument_name_t, "SB AWE32 MIDI Synth [62"
3, 0, Title_t, "Choosey Lover"
3, 0, Control_c, 0, 121, 126
3, 1, Program_c, 0, 0
3, 2, Program_c, 0, 30
3, 5, Control_c, 0, 91, 100
3, 10, Control_c, 0, 93, 64
3, 15, Control_c, 0, 7, 80
3, 20, Control_c, 0, 10, 54
3, 25, Control_c, 0, 1, 0
3, 30, Control_c, 0, 92, 0
3, 35, Control_c, 0, 95, 0
3, 40, Control_c, 0, 94, 0
3, 95, Copyright_t, "1998 Sequenced by Taro Sato"
3, 146400, End_track
4, 0, Start_track
4, 0, Instrument_name_t, "SB AWE32 MIDI Synth [62"
4, 0, Title_t, "Choosey Lover"
4, 0, Control_c, 1, 121, 127
4, 2, Program_c, 1, 35
4, 5, Control_c, 1, 7, 127
4, 10, Control_c, 1, 1, 0
4, 15, Control_c, 1, 10, 64
4, 20, Control_c, 1, 92, 0
4, 25, Control_c, 1, 91, 0
4, 30, Control_c, 1, 93, 0
4, 35, Control_c, 1, 94, 0
4, 40, Control_c, 1, 95, 0
4, 95, Copyright_t, "1998 Sequenced by Taro Sato"
4, 3720, Note_on_c, 1, 32, 127
4, 3840, Note_off_c, 1, 32, 64
4, 3840, Note_on_c, 1, 37, 127
4, 3930, Note_off_c, 1, 37, 64
4, 3960, Note_on_c, 1, 37, 127
4, 4080, Note_off_c, 1, 37, 64
4, 4200, Note_on_c, 1, 25, 127
4, 4320, Note_off_c, 1, 25, 64
4, 4320, Note_on_c, 1, 30, 127
4, 4920, Note_off_c, 1, 30, 64
4, 5040, Note_on_c, 1, 30, 127
4, 5160, Note_off_c, 1, 30, 64
4, 5280, Note_on_c, 1, 30, 127
4, 5760, Note_off_c, 1, 30, 64
4, 5760, Note_on_c, 1, 28, 127
4, 5880, Note_off_c, 1, 28, 64
4, 6000, Note_on_c, 1, 33, 127
4, 7200, Note_off_c, 1, 33, 64
4, 7200, Note_on_c, 1, 32, 127
4, 7560, Note_off_c, 1, 32, 64
4, 7560, Note_on_c, 1, 32, 127
4, 7680, Note_off_c, 1, 32, 64
4, 7680, Note_on_c, 1, 32, 127
4, 7800, Note_off_c, 1, 32, 64
4, 7800, Note_on_c, 1, 28, 127
4, 7920, Note_off_c, 1, 28, 64
4, 7920, Note_on_c, 1, 32, 127
4, 8160, Note_off_c, 1, 32, 64
4, 8160, Note_on_c, 1, 30, 127
4, 8280, Note_off_c, 1, 30, 64
4, 8400, Note_on_c, 1, 28, 127
4, 8520, Note_off_c, 1, 28, 64
4, 8520, Note_on_c, 1, 30, 127
4, 8640, Note_off_c, 1, 30, 64
4, 8760, Note_on_c, 1, 28, 127
4, 8880, Note_off_c, 1, 28, 64
4, 8880, Note_on_c, 1, 30, 127
4, 9000, Note_off_c, 1, 30, 64
4, 9120, Note_on_c, 1, 30, 127
4, 9600, Note_off_c, 1, 30, 64
4, 9600, Note_on_c, 1, 28, 127
4, 9720, Note_off_c, 1, 28, 64
4, 9840, Note_on_c, 1, 33, 127
4, 11040, Note_off_c, 1, 33, 64
4, 11040, Note_on_c, 1, 32, 127
4, 11520, Note_off_c, 1, 32, 64
4, 11520, Note_on_c, 1, 37, 127
4, 11610, Note_off_c, 1, 37, 64
4, 11640, Note_on_c, 1, 37, 127
4, 11760, Note_off_c, 1, 37, 64
4, 11880, Note_on_c, 1, 25, 127
4, 12000, Note_off_c, 1, 25, 64
4, 12000, Note_on_c, 1, 30, 127
4, 12600, Note_off_c, 1, 30, 64
4, 12720, Note_on_c, 1, 30, 127
4, 12840, Note_off_c, 1, 30, 64
4, 12960, Note_on_c, 1, 30, 127
4, 13440, Note_off_c, 1, 30, 64
4, 13440, Note_on_c, 1, 28, 127
4, 13560, Note_off_c, 1, 28, 64
4, 13680, Note_on_c, 1, 33, 127
4, 14880, Note_off_c, 1, 33, 64
4, 14880, Note_on_c, 1, 32, 127
4, 15240, Note_off_c, 1, 32, 64
4, 15240, Note_on_c, 1, 32, 127
4, 15360, Note_off_c, 1, 32, 64
4, 15360, Note_on_c, 1, 32, 127
4, 15480, Note_off_c, 1, 32, 64
4, 15480, Note_on_c, 1, 28, 127
4, 15600, Note_off_c, 1, 28, 64
4, 15600, Note_on_c, 1, 32, 127
4, 15840, Note_off_c, 1, 32, 64
4, 15840, Note_on_c, 1, 30, 127
4, 16440, Note_off_c, 1, 30, 64
4, 16560, Note_on_c, 1, 30, 127
4, 16680, Note_off_c, 1, 30, 64
4, 16800, Note_on_c, 1, 30, 127
4, 17280, Note_off_c, 1, 30, 64
4, 17280, Note_on_c, 1, 28, 127
4, 17400, Note_off_c, 1, 28, 64
4, 17520, Note_on_c, 1, 33, 127
4, 18720, Note_off_c, 1, 33, 64
4, 18720, Note_on_c, 1, 32, 127
4, 19200, Note_off_c, 1, 32, 64
4, 19200, Note_on_c, 1, 37, 127
4, 19290, Note_off_c, 1, 37, 64
4, 19320, Note_on_c, 1, 37, 127
4, 19440, Note_off_c, 1, 37, 64
4, 19560, Note_on_c, 1, 25, 127
4, 19680, Note_off_c, 1, 25, 64
4, 19680, Note_on_c, 1, 30, 127
4, 20280, Note_off_c, 1, 30, 64
4, 20400, Note_on_c, 1, 30, 127
4, 20520, Note_off_c, 1, 30, 64
4, 20640, Note_on_c, 1, 30, 127
4, 21120, Note_off_c, 1, 30, 64
4, 21120, Note_on_c, 1, 28, 127
4, 21240, Note_off_c, 1, 28, 64
4, 21360, Note_on_c, 1, 33, 127
4, 22560, Note_off_c, 1, 33, 64
4, 22560, Note_on_c, 1, 32, 127
4, 22920, Note_off_c, 1, 32, 64
4, 22920, Note_on_c, 1, 32, 127
4, 23040, Note_off_c, 1, 32, 64
4, 23040, Note_on_c, 1, 32, 127
4, 23160, Note_off_c, 1, 32, 64
4, 23160, Note_on_c, 1, 28, 127
4, 23280, Note_off_c, 1, 28, 64
4, 23280, Note_on_c, 1, 32, 127
4, 23520, Note_off_c, 1, 32, 64
4, 23520, Note_on_c, 1, 30, 127
4, 23640, Note_off_c, 1, 30, 64
4, 23760, Note_on_c, 1, 28, 127
4, 23880, Note_off_c, 1, 28, 64
4, 23880, Note_on_c, 1, 30, 127
4, 24000, Note_off_c, 1, 30, 64
4, 24120, Note_on_c, 1, 28, 127
4, 24240, Note_off_c, 1, 28, 64
4, 24240, Note_on_c, 1, 30, 127
4, 24360, Note_off_c, 1, 30, 64
4, 24480, Note_on_c, 1, 30, 127
4, 24960, Note_off_c, 1, 30, 64
4, 24960, Note_on_c, 1, 28, 127
4, 25080, Note_off_c, 1, 28, 64
4, 25200, Note_on_c, 1, 33, 127
4, 26400, Note_off_c, 1, 33, 64
4, 26400, Note_on_c, 1, 32, 127
4, 26880, Note_off_c, 1, 32, 64
4, 26880, Note_on_c, 1, 37, 127
4, 26970, Note_off_c, 1, 37, 64
4, 27000, Note_on_c, 1, 37, 127
4, 27120, Note_off_c, 1, 37, 64
4, 27240, Note_on_c, 1, 25, 127
4, 27360, Note_off_c, 1, 25, 64
4, 27360, Note_on_c, 1, 30, 127
4, 27960, Note_off_c, 1, 30, 64
4, 28080, Note_on_c, 1, 30, 127
4, 28200, Note_off_c, 1, 30, 64
4, 28320, Note_on_c, 1, 30, 127
4, 28800, Note_off_c, 1, 30, 64
4, 28800, Note_on_c, 1, 28, 127
4, 28920, Note_off_c, 1, 28, 64
4, 29040, Note_on_c, 1, 33, 127
4, 30240, Note_off_c, 1, 33, 64
4, 30240, Note_on_c, 1, 32, 127
4, 30600, Note_off_c, 1, 32, 64
4, 30600, Note_on_c, 1, 32, 127
4, 30720, Note_off_c, 1, 32, 64
4, 30720, Note_on_c, 1, 32, 127
4, 30840, Note_off_c, 1, 32, 64
4, 30840, Note_on_c, 1, 28, 127
4, 30960, Note_off_c, 1, 28, 64
4, 30960, Note_on_c, 1, 32, 127
4, 31200, Note_off_c, 1, 32, 64
4, 31200, Note_on_c, 1, 30, 127
4, 31800, Note_off_c, 1, 30, 64
4, 31920, Note_on_c, 1, 30, 127
4, 32040, Note_off_c, 1, 30, 64
4, 32160, Note_on_c, 1, 30, 127
4, 32640, Note_off_c, 1, 30, 64
4, 32640, Note_on_c, 1, 28, 127
4, 32760, Note_off_c, 1, 28, 64
4, 32880, Note_on_c, 1, 33, 127
4, 34080, Note_off_c, 1, 33, 64
4, 34080, Note_on_c, 1, 32, 127
4, 34560, Note_off_c, 1, 32, 64
4, 34560, Note_on_c, 1, 37, 127
4, 34650, Note_off_c, 1, 37, 64
4, 34680, Note_on_c, 1, 37, 127
4, 34800, Note_off_c, 1, 37, 64
4, 34920, Note_on_c, 1, 25, 127
4, 35040, Note_off_c, 1, 25, 64
4, 35040, Note_on_c, 1, 30, 127
4, 35640, Note_off_c, 1, 30, 64
4, 35760, Note_on_c, 1, 30, 127
4, 35880, Note_off_c, 1, 30, 64
4, 36000, Note_on_c, 1, 30, 127
4, 36480, Note_off_c, 1, 30, 64
4, 36480, Note_on_c, 1, 28, 127
4, 36600, Note_off_c, 1, 28, 64
4, 36720, Note_on_c, 1, 33, 127
4, 37920, Note_off_c, 1, 33, 64
4, 37920, Note_on_c, 1, 32, 127
4, 38280, Note_off_c, 1, 32, 64
4, 38280, Note_on_c, 1, 32, 127
4, 38400, Note_off_c, 1, 32, 64
4, 38400, Note_on_c, 1, 28, 127
4, 38520, Note_off_c, 1, 28, 64
4, 38520, Note_on_c, 1, 32, 127
4, 38640, Note_off_c, 1, 32, 64
4, 38640, Note_on_c, 1, 30, 127
4, 38760, Note_off_c, 1, 30, 64
4, 38760, Note_on_c, 1, 28, 127
4, 38880, Note_off_c, 1, 28, 64
4, 38880, Note_on_c, 1, 30, 127
4, 39420, Note_off_c, 1, 30, 64
4, 39600, Note_on_c, 1, 30, 127
4, 39720, Note_off_c, 1, 30, 64
4, 39840, Note_on_c, 1, 30, 127
4, 40320, Note_off_c, 1, 30, 64
4, 40320, Note_on_c, 1, 28, 127
4, 40440, Note_off_c, 1, 28, 64
4, 40560, Note_on_c, 1, 33, 127
4, 41760, Note_off_c, 1, 33, 64
4, 41760, Note_on_c, 1, 32, 127
4, 42240, Note_off_c, 1, 32, 64
4, 42240, Note_on_c, 1, 37, 127
4, 42330, Note_off_c, 1, 37, 64
4, 42360, Note_on_c, 1, 37, 127
4, 42480, Note_off_c, 1, 37, 64
4, 42600, Note_on_c, 1, 25, 127
4, 42720, Note_off_c, 1, 25, 64
4, 42720, Note_on_c, 1, 30, 127
4, 43320, Note_off_c, 1, 30, 64
4, 43440, Note_on_c, 1, 30, 127
4, 43560, Note_off_c, 1, 30, 64
4, 43680, Note_on_c, 1, 30, 127
4, 44160, Note_off_c, 1, 30, 64
4, 44160, Note_on_c, 1, 28, 127
4, 44280, Note_off_c, 1, 28, 64
4, 44400, Note_on_c, 1, 33, 127
4, 45600, Note_off_c, 1, 33, 64
4, 45600, Note_on_c, 1, 32, 127
4, 45960, Note_off_c, 1, 32, 64
4, 45960, Note_on_c, 1, 32, 127
4, 46080, Note_off_c, 1, 32, 64
4, 46200, Note_on_c, 1, 28, 127
4, 46320, Note_off_c, 1, 28, 64
4, 46320, Note_on_c, 1, 30, 127
4, 46440, Note_off_c, 1, 30, 64
4, 46440, Note_on_c, 1, 28, 127
4, 46560, Note_off_c, 1, 28, 64
4, 46560, Note_on_c, 1, 30, 127
4, 47160, Note_off_c, 1, 30, 64
4, 47280, Note_on_c, 1, 30, 127
4, 47400, Note_off_c, 1, 30, 64
4, 47520, Note_on_c, 1, 30, 127
4, 48000, Note_off_c, 1, 30, 64
4, 48000, Note_on_c, 1, 28, 127
4, 48120, Note_off_c, 1, 28, 64
4, 48240, Note_on_c, 1, 33, 127
4, 48960, Note_off_c, 1, 33, 64
4, 48960, Note_on_c, 1, 40, 127
4, 49080, Note_off_c, 1, 40, 64
4, 49080, Note_on_c, 1, 42, 127
4, 49200, Note_off_c, 1, 42, 64
4, 49200, Note_on_c, 1, 45, 127
4, 49320, Note_off_c, 1, 45, 64
4, 49320, Note_on_c, 1, 40, 127
4, 49440, Note_off_c, 1, 40, 64
4, 49440, Note_on_c, 1, 44, 127
4, 49920, Note_off_c, 1, 44, 64
4, 49920, Note_on_c, 1, 37, 127
4, 50010, Note_off_c, 1, 37, 64
4, 50040, Note_on_c, 1, 37, 127
4, 50160, Note_off_c, 1, 37, 64
4, 50280, Note_on_c, 1, 25, 127
4, 50400, Note_off_c, 1, 25, 64
4, 50400, Note_on_c, 1, 30, 127
4, 51000, Note_off_c, 1, 30, 64
4, 51120, Note_on_c, 1, 30, 127
4, 51240, Note_off_c, 1, 30, 64
4, 51360, Note_on_c, 1, 30, 127
4, 51840, Note_off_c, 1, 30, 64
4, 51840, Note_on_c, 1, 28, 127
4, 51960, Note_off_c, 1, 28, 64
4, 52080, Note_on_c, 1, 33, 127
4, 53280, Note_off_c, 1, 33, 64
4, 53280, Note_on_c, 1, 32, 127
4, 53640, Note_off_c, 1, 32, 64
4, 53640, Note_on_c, 1, 32, 127
4, 53760, Note_off_c, 1, 32, 64
4, 53880, Note_on_c, 1, 28, 127
4, 54000, Note_off_c, 1, 28, 64
4, 54000, Note_on_c, 1, 30, 127
4, 54120, Note_off_c, 1, 30, 64
4, 54120, Note_on_c, 1, 28, 127
4, 54240, Note_off_c, 1, 28, 64
4, 54240, Note_on_c, 1, 30, 127
4, 54840, Note_off_c, 1, 30, 64
4, 54960, Note_on_c, 1, 30, 127
4, 55080, Note_off_c, 1, 30, 64
4, 55200, Note_on_c, 1, 30, 127
4, 55680, Note_off_c, 1, 30, 64
4, 55680, Note_on_c, 1, 28, 127
4, 55800, Note_off_c, 1, 28, 64
4, 55920, Note_on_c, 1, 33, 127
4, 56640, Note_off_c, 1, 33, 64
4, 56640, Note_on_c, 1, 40, 127
4, 56760, Note_off_c, 1, 40, 64
4, 56760, Note_on_c, 1, 42, 127
4, 56880, Note_off_c, 1, 42, 64
4, 56880, Note_on_c, 1, 45, 127
4, 57000, Note_off_c, 1, 45, 64
4, 57000, Note_on_c, 1, 40, 127
4, 57120, Note_off_c, 1, 40, 64
4, 57120, Note_on_c, 1, 44, 127
4, 57600, Note_off_c, 1, 44, 64
4, 57600, Note_on_c, 1, 37, 127
4, 57690, Note_off_c, 1, 37, 64
4, 57720, Note_on_c, 1, 37, 127
4, 57840, Note_off_c, 1, 37, 64
4, 57960, Note_on_c, 1, 25, 127
4, 58080, Note_off_c, 1, 25, 64
4, 58080, Note_on_c, 1, 30, 127
4, 58680, Note_off_c, 1, 30, 64
4, 58800, Note_on_c, 1, 30, 127
4, 58920, Note_off_c, 1, 30, 64
4, 59040, Note_on_c, 1, 30, 127
4, 59520, Note_off_c, 1, 30, 64
4, 59520, Note_on_c, 1, 28, 127
4, 59640, Note_off_c, 1, 28, 64
4, 59760, Note_on_c, 1, 33, 127
4, 60960, Note_off_c, 1, 33, 64
4, 60960, Note_on_c, 1, 32, 127
4, 61320, Note_off_c, 1, 32, 64
4, 61320, Note_on_c, 1, 32, 127
4, 61440, Note_off_c, 1, 32, 64
4, 61440, Note_on_c, 1, 28, 127
4, 61560, Note_off_c, 1, 28, 64
4, 61560, Note_on_c, 1, 32, 127
4, 61680, Note_off_c, 1, 32, 64
4, 61680, Note_on_c, 1, 30, 127
4, 61800, Note_off_c, 1, 30, 64
4, 61800, Note_on_c, 1, 28, 127
4, 61920, Note_off_c, 1, 28, 64
4, 61920, Note_on_c, 1, 30, 127
4, 62460, Note_off_c, 1, 30, 64
4, 62640, Note_on_c, 1, 30, 127
4, 62760, Note_off_c, 1, 30, 64
4, 62880, Note_on_c, 1, 30, 127
4, 63360, Note_off_c, 1, 30, 64
4, 63360, Note_on_c, 1, 28, 127
4, 63480, Note_off_c, 1, 28, 64
4, 63600, Note_on_c, 1, 33, 127
4, 64800, Note_off_c, 1, 33, 64
4, 64800, Note_on_c, 1, 32, 127
4, 65280, Note_off_c, 1, 32, 64
4, 65280, Note_on_c, 1, 37, 127
4, 65370, Note_off_c, 1, 37, 64
4, 65400, Note_on_c, 1, 37, 127
4, 65520, Note_off_c, 1, 37, 64
4, 65640, Note_on_c, 1, 25, 127
4, 65760, Note_off_c, 1, 25, 64
4, 65760, Note_on_c, 1, 30, 127
4, 66360, Note_off_c, 1, 30, 64
4, 66480, Note_on_c, 1, 30, 127
4, 66600, Note_off_c, 1, 30, 64
4, 66720, Note_on_c, 1, 30, 127
4, 67200, Note_off_c, 1, 30, 64
4, 67200, Note_on_c, 1, 28, 127
4, 67320, Note_off_c, 1, 28, 64
4, 67440, Note_on_c, 1, 33, 127
4, 68640, Note_off_c, 1, 33, 64
4, 68640, Note_on_c, 1, 32, 127
4, 69000, Note_off_c, 1, 32, 64
4, 69000, Note_on_c, 1, 32, 127
4, 69120, Note_off_c, 1, 32, 64
4, 69120, Note_on_c, 1, 28, 127
4, 69240, Note_off_c, 1, 28, 64
4, 69240, Note_on_c, 1, 32, 127
4, 69360, Note_off_c, 1, 32, 64
4, 69360, Note_on_c, 1, 30, 127
4, 69480, Note_off_c, 1, 30, 64
4, 69480, Note_on_c, 1, 28, 127
4, 69600, Note_off_c, 1, 28, 64
4, 69600, Note_on_c, 1, 30, 127
4, 70140, Note_off_c, 1, 30, 64
4, 70320, Note_on_c, 1, 30, 127
4, 70440, Note_off_c, 1, 30, 64
4, 70560, Note_on_c, 1, 30, 127
4, 71040, Note_off_c, 1, 30, 64
4, 71040, Note_on_c, 1, 28, 127
4, 71160, Note_off_c, 1, 28, 64
4, 71280, Note_on_c, 1, 33, 127
4, 72480, Note_off_c, 1, 33, 64
4, 72480, Note_on_c, 1, 32, 127
4, 72960, Note_off_c, 1, 32, 64
4, 72960, Note_on_c, 1, 37, 127
4, 73050, Note_off_c, 1, 37, 64
4, 73080, Note_on_c, 1, 37, 127
4, 73200, Note_off_c, 1, 37, 64
4, 73320, Note_on_c, 1, 25, 127
4, 73440, Note_off_c, 1, 25, 64
4, 73440, Note_on_c, 1, 30, 127
4, 74040, Note_off_c, 1, 30, 64
4, 74160, Note_on_c, 1, 30, 127
4, 74280, Note_off_c, 1, 30, 64
4, 74400, Note_on_c, 1, 30, 127
4, 74880, Note_off_c, 1, 30, 64
4, 74880, Note_on_c, 1, 28, 127
4, 75000, Note_off_c, 1, 28, 64
4, 75120, Note_on_c, 1, 33, 127
4, 76320, Note_off_c, 1, 33, 64
4, 76320, Note_on_c, 1, 32, 127
4, 76680, Note_off_c, 1, 32, 64
4, 76680, Note_on_c, 1, 32, 127
4, 76800, Note_off_c, 1, 32, 64
4, 76920, Note_on_c, 1, 32, 127
4, 77040, Note_off_c, 1, 32, 64
4, 77040, Note_on_c, 1, 30, 127
4, 77160, Note_off_c, 1, 30, 64
4, 77160, Note_on_c, 1, 28, 127
4, 77280, Note_off_c, 1, 28, 64
4, 77280, Note_on_c, 1, 30, 127
4, 77400, Note_off_c, 1, 30, 64
4, 77520, Note_on_c, 1, 28, 127
4, 77640, Note_off_c, 1, 28, 64
4, 77640, Note_on_c, 1, 30, 127
4, 77760, Note_off_c, 1, 30, 64
4, 77880, Note_on_c, 1, 28, 127
4, 78000, Note_off_c, 1, 28, 64
4, 78000, Note_on_c, 1, 30, 127
4, 78120, Note_off_c, 1, 30, 64
4, 78240, Note_on_c, 1, 30, 127
4, 78720, Note_off_c, 1, 30, 64
4, 78720, Note_on_c, 1, 28, 127
4, 78840, Note_off_c, 1, 28, 64
4, 78960, Note_on_c, 1, 33, 127
4, 79680, Note_off_c, 1, 33, 64
4, 79680, Note_on_c, 1, 40, 127
4, 79800, Note_off_c, 1, 40, 64
4, 79800, Note_on_c, 1, 42, 127
4, 79920, Note_off_c, 1, 42, 64
4, 79920, Note_on_c, 1, 45, 127
4, 80040, Note_off_c, 1, 45, 64
4, 80040, Note_on_c, 1, 40, 127
4, 80160, Note_off_c, 1, 40, 64
4, 80160, Note_on_c, 1, 44, 127
4, 80640, Note_off_c, 1, 44, 64
4, 80640, Note_on_c, 1, 37, 127
4, 80730, Note_off_c, 1, 37, 64
4, 80760, Note_on_c, 1, 37, 127
4, 80880, Note_off_c, 1, 37, 64
4, 81120, Note_on_c, 1, 30, 127
4, 81720, Note_off_c, 1, 30, 64
4, 81840, Note_on_c, 1, 30, 127
4, 81960, Note_off_c, 1, 30, 64
4, 82080, Note_on_c, 1, 30, 127
4, 82560, Note_off_c, 1, 30, 64
4, 82560, Note_on_c, 1, 28, 127
4, 82680, Note_off_c, 1, 28, 64
4, 82800, Note_on_c, 1, 33, 127
4, 84000, Note_off_c, 1, 33, 64
4, 84000, Note_on_c, 1, 32, 127
4, 84360, Note_off_c, 1, 32, 64
4, 84360, Note_on_c, 1, 32, 127
4, 84480, Note_off_c, 1, 32, 64
4, 84480, Note_on_c, 1, 32, 127
4, 84600, Note_off_c, 1, 32, 64
4, 84600, Note_on_c, 1, 28, 127
4, 84720, Note_off_c, 1, 28, 64
4, 84720, Note_on_c, 1, 32, 127
4, 84960, Note_off_c, 1, 32, 64
4, 84960, Note_on_c, 1, 30, 127
4, 85500, Note_off_c, 1, 30, 64
4, 85680, Note_on_c, 1, 30, 127
4, 85800, Note_off_c, 1, 30, 64
4, 85920, Note_on_c, 1, 30, 127
4, 86400, Note_off_c, 1, 30, 64
4, 86400, Note_on_c, 1, 28, 127
4, 86520, Note_off_c, 1, 28, 64
4, 86640, Note_on_c, 1, 33, 127
4, 87840, Note_off_c, 1, 33, 64
4, 87840, Note_on_c, 1, 32, 127
4, 88320, Note_off_c, 1, 32, 64
4, 88320, Note_on_c, 1, 37, 127
4, 88410, Note_off_c, 1, 37, 64
4, 88440, Note_on_c, 1, 37, 127
4, 88560, Note_off_c, 1, 37, 64
4, 88680, Note_on_c, 1, 25, 127
4, 88800, Note_off_c, 1, 25, 64
4, 88800, Note_on_c, 1, 30, 127
4, 89400, Note_off_c, 1, 30, 64
4, 89520, Note_on_c, 1, 30, 127
4, 89640, Note_off_c, 1, 30, 64
4, 89760, Note_on_c, 1, 30, 127
4, 90240, Note_off_c, 1, 30, 64
4, 90240, Note_on_c, 1, 28, 127
4, 90360, Note_off_c, 1, 28, 64
4, 90480, Note_on_c, 1, 33, 127
4, 91680, Note_off_c, 1, 33, 64
4, 91680, Note_on_c, 1, 32, 127
4, 92040, Note_off_c, 1, 32, 64
4, 92040, Note_on_c, 1, 32, 127
4, 92160, Note_off_c, 1, 32, 64
4, 92160, Note_on_c, 1, 28, 127
4, 92280, Note_off_c, 1, 28, 64
4, 92280, Note_on_c, 1, 32, 127
4, 92400, Note_off_c, 1, 32, 64
4, 92400, Note_on_c, 1, 30, 127
4, 92520, Note_off_c, 1, 30, 64
4, 92520, Note_on_c, 1, 28, 127
4, 92640, Note_off_c, 1, 28, 64
4, 92640, Note_on_c, 1, 30, 127
4, 93180, Note_off_c, 1, 30, 64
4, 93360, Note_on_c, 1, 30, 127
4, 93480, Note_off_c, 1, 30, 64
4, 93600, Note_on_c, 1, 30, 127
4, 94080, Note_off_c, 1, 30, 64
4, 94080, Note_on_c, 1, 28, 127
4, 94200, Note_off_c, 1, 28, 64
4, 94320, Note_on_c, 1, 33, 127
4, 95520, Note_off_c, 1, 33, 64
4, 95520, Note_on_c, 1, 32, 127
4, 96000, Note_off_c, 1, 32, 64
4, 96000, Note_on_c, 1, 37, 127
4, 96090, Note_off_c, 1, 37, 64
4, 96120, Note_on_c, 1, 37, 127
4, 96240, Note_off_c, 1, 37, 64
4, 96360, Note_on_c, 1, 25, 127
4, 96480, Note_off_c, 1, 25, 64
4, 96480, Note_on_c, 1, 30, 127
4, 97080, Note_off_c, 1, 30, 64
4, 97200, Note_on_c, 1, 30, 127
4, 97320, Note_off_c, 1, 30, 64
4, 97440, Note_on_c, 1, 30, 127
4, 97920, Note_off_c, 1, 30, 64
4, 97920, Note_on_c, 1, 28, 127
4, 98040, Note_off_c, 1, 28, 64
4, 98160, Note_on_c, 1, 33, 127
4, 99360, Note_off_c, 1, 33, 64
4, 99360, Note_on_c, 1, 32, 127
4, 99720, Note_off_c, 1, 32, 64
4, 99720, Note_on_c, 1, 32, 127
4, 99840, Note_off_c, 1, 32, 64
4, 99960, Note_on_c, 1, 28, 127
4, 100080, Note_off_c, 1, 28, 64
4, 100080, Note_on_c, 1, 30, 127
4, 100200, Note_off_c, 1, 30, 64
4, 100200, Note_on_c, 1, 28, 127
4, 100320, Note_off_c, 1, 28, 64
4, 100320, Note_on_c, 1, 30, 127
4, 100920, Note_off_c, 1, 30, 64
4, 101040, Note_on_c, 1, 30, 127
4, 101160, Note_off_c, 1, 30, 64
4, 101280, Note_on_c, 1, 30, 127
4, 101760, Note_off_c, 1, 30, 64
4, 101760, Note_on_c, 1, 28, 127
4, 101880, Note_off_c, 1, 28, 64
4, 102000, Note_on_c, 1, 33, 127
4, 102720, Note_off_c, 1, 33, 64
4, 102720, Note_on_c, 1, 40, 127
4, 102840, Note_off_c, 1, 40, 64
4, 102840, Note_on_c, 1, 42, 127
4, 102960, Note_off_c, 1, 42, 64
4, 102960, Note_on_c, 1, 45, 127
4, 103080, Note_off_c, 1, 45, 64
4, 103080, Note_on_c, 1, 40, 127
4, 103200, Note_off_c, 1, 40, 64
4, 103200, Note_on_c, 1, 44, 127
4, 103680, Note_off_c, 1, 44, 64
4, 103680, Note_on_c, 1, 37, 127
4, 103770, Note_off_c, 1, 37, 64
4, 103800, Note_on_c, 1, 37, 127
4, 103920, Note_off_c, 1, 37, 64
4, 104040, Note_on_c, 1, 25, 127
4, 104160, Note_off_c, 1, 25, 64
4, 104160, Note_on_c, 1, 30, 127
4, 104760, Note_off_c, 1, 30, 64
4, 104880, Note_on_c, 1, 30, 127
4, 105000, Note_off_c, 1, 30, 64
4, 105120, Note_on_c, 1, 30, 127
4, 105600, Note_off_c, 1, 30, 64
4, 105600, Note_on_c, 1, 28, 127
4, 105720, Note_off_c, 1, 28, 64
4, 105840, Note_on_c, 1, 33, 127
4, 107040, Note_off_c, 1, 33, 64
4, 107040, Note_on_c, 1, 32, 127
4, 107400, Note_off_c, 1, 32, 64
4, 107400, Note_on_c, 1, 32, 127
4, 107520, Note_off_c, 1, 32, 64
4, 107520, Note_on_c, 1, 28, 127
4, 107640, Note_off_c, 1, 28, 64
4, 107640, Note_on_c, 1, 32, 127
4, 107760, Note_off_c, 1, 32, 64
4, 107760, Note_on_c, 1, 30, 127
4, 107880, Note_off_c, 1, 30, 64
4, 107880, Note_on_c, 1, 28, 127
4, 108000, Note_off_c, 1, 28, 64
4, 108000, Note_on_c, 1, 30, 127
4, 108540, Note_off_c, 1, 30, 64
4, 108720, Note_on_c, 1, 30, 127
4, 108840, Note_off_c, 1, 30, 64
4, 108960, Note_on_c, 1, 30, 127
4, 109440, Note_off_c, 1, 30, 64
4, 109440, Note_on_c, 1, 28, 127
4, 109560, Note_off_c, 1, 28, 64
4, 109680, Note_on_c, 1, 33, 127
4, 110880, Note_off_c, 1, 33, 64
4, 110880, Note_on_c, 1, 32, 127
4, 111360, Note_off_c, 1, 32, 64
4, 111360, Note_on_c, 1, 37, 127
4, 111450, Note_off_c, 1, 37, 64
4, 111480, Note_on_c, 1, 37, 127
4, 111600, Note_off_c, 1, 37, 64
4, 111720, Note_on_c, 1, 25, 127
4, 111840, Note_off_c, 1, 25, 64
4, 111840, Note_on_c, 1, 30, 127
4, 112440, Note_off_c, 1, 30, 64
4, 112560, Note_on_c, 1, 30, 127
4, 112680, Note_off_c, 1, 30, 64
4, 112800, Note_on_c, 1, 30, 127
4, 113280, Note_off_c, 1, 30, 64
4, 113280, Note_on_c, 1, 28, 127
4, 113400, Note_off_c, 1, 28, 64
4, 113520, Note_on_c, 1, 33, 127
4, 114720, Note_off_c, 1, 33, 64
4, 114720, Note_on_c, 1, 32, 127
4, 115080, Note_off_c, 1, 32, 64
4, 115080, Note_on_c, 1, 32, 127
4, 115200, Note_off_c, 1, 32, 64
4, 115320, Note_on_c, 1, 28, 127
4, 115440, Note_off_c, 1, 28, 64
4, 115440, Note_on_c, 1, 30, 127
4, 115560, Note_off_c, 1, 30, 64
4, 115560, Note_on_c, 1, 28, 127
4, 115680, Note_off_c, 1, 28, 64
4, 115680, Note_on_c, 1, 30, 127
4, 116280, Note_off_c, 1, 30, 64
4, 116400, Note_on_c, 1, 30, 127
4, 116520, Note_off_c, 1, 30, 64
4, 116640, Note_on_c, 1, 30, 127
4, 117120, Note_off_c, 1, 30, 64
4, 117120, Note_on_c, 1, 28, 127
4, 117240, Note_off_c, 1, 28, 64
4, 117360, Note_on_c, 1, 33, 127
4, 118080, Note_off_c, 1, 33, 64
4, 118080, Note_on_c, 1, 40, 127
4, 118200, Note_off_c, 1, 40, 64
4, 118200, Note_on_c, 1, 42, 127
4, 118320, Note_off_c, 1, 42, 64
4, 118320, Note_on_c, 1, 45, 127
4, 118440, Note_off_c, 1, 45, 64
4, 118440, Note_on_c, 1, 40, 127
4, 118560, Note_off_c, 1, 40, 64
4, 118560, Note_on_c, 1, 44, 127
4, 119040, Note_off_c, 1, 44, 64
4, 119040, Note_on_c, 1, 37, 127
4, 119130, Note_off_c, 1, 37, 64
4, 119160, Note_on_c, 1, 37, 127
4, 119280, Note_off_c, 1, 37, 64
4, 119400, Note_on_c, 1, 25, 127
4, 119520, Note_off_c, 1, 25, 64
4, 119520, Note_on_c, 1, 30, 127
4, 120120, Note_off_c, 1, 30, 64
4, 120240, Note_on_c, 1, 30, 127
4, 120360, Note_off_c, 1, 30, 64
4, 120480, Note_on_c, 1, 30, 127
4, 120960, Note_off_c, 1, 30, 64
4, 120960, Note_on_c, 1, 28, 127
4, 121080, Note_off_c, 1, 28, 64
4, 121200, Note_on_c, 1, 33, 127
4, 122400, Note_off_c, 1, 33, 64
4, 122400, Note_on_c, 1, 32, 127
4, 122760, Note_off_c, 1, 32, 64
4, 122760, Note_on_c, 1, 32, 127
4, 122880, Note_off_c, 1, 32, 64
4, 122880, Note_on_c, 1, 32, 127
4, 123000, Note_off_c, 1, 32, 64
4, 123000, Note_on_c, 1, 28, 127
4, 123120, Note_off_c, 1, 28, 64
4, 123120, Note_on_c, 1, 32, 127
4, 123360, Note_off_c, 1, 32, 64
4, 123360, Note_on_c, 1, 30, 127
4, 123480, Note_off_c, 1, 30, 64
4, 123600, Note_on_c, 1, 28, 127
4, 123720, Note_off_c, 1, 28, 64
4, 123720, Note_on_c, 1, 30, 127
4, 123840, Note_off_c, 1, 30, 64
4, 123960, Note_on_c, 1, 28, 127
4, 124080, Note_off_c, 1, 28, 64
4, 124080, Note_on_c, 1, 30, 127
4, 124200, Note_off_c, 1, 30, 64
4, 124320, Note_on_c, 1, 30, 127
4, 124800, Note_off_c, 1, 30, 64
4, 124800, Note_on_c, 1, 28, 127
4, 124920, Note_off_c, 1, 28, 64
4, 125040, Note_on_c, 1, 33, 127
4, 125760, Note_off_c, 1, 33, 64
4, 125760, Note_on_c, 1, 37, 127
4, 125880, Note_off_c, 1, 37, 64
4, 125880, Note_on_c, 1, 40, 127
4, 126000, Note_off_c, 1, 40, 64
4, 126000, Note_on_c, 1, 42, 127
4, 126120, Note_off_c, 1, 42, 64
4, 126120, Note_on_c, 1, 45, 127
4, 126240, Note_off_c, 1, 45, 64
4, 126240, Note_on_c, 1, 44, 127
4, 126720, Note_off_c, 1, 44, 64
4, 126720, Note_on_c, 1, 37, 127
4, 126810, Note_off_c, 1, 37, 64
4, 126840, Note_on_c, 1, 37, 127
4, 126960, Note_off_c, 1, 37, 64
4, 127080, Note_on_c, 1, 25, 127
4, 127200, Note_off_c, 1, 25, 64
4, 128640, Note_on_c, 1, 28, 127
4, 128760, Note_off_c, 1, 28, 64
4, 128880, Note_on_c, 1, 33, 127
4, 130080, Note_off_c, 1, 33, 64
4, 134760, Note_on_c, 1, 25, 127
4, 134880, Note_off_c, 1, 25, 64
4, 136320, Note_on_c, 1, 28, 127
4, 136440, Note_off_c, 1, 28, 64
4, 136560, Note_on_c, 1, 33, 127
4, 137760, Note_off_c, 1, 33, 64
4, 138720, Note_on_c, 1, 30, 127
4, 139200, Note_off_c, 1, 30, 64
4, 139440, Note_on_c, 1, 30, 127
4, 139560, Note_off_c, 1, 30, 64
4, 139680, Note_on_c, 1, 30, 127
4, 140160, Note_off_c, 1, 30, 64
4, 140160, Note_on_c, 1, 28, 127
4, 140280, Note_off_c, 1, 28, 64
4, 140400, Note_on_c, 1, 33, 127
4, 141600, Note_off_c, 1, 33, 64
4, 141600, Note_on_c, 1, 32, 127
4, 142080, Note_off_c, 1, 32, 64
4, 142080, Note_on_c, 1, 37, 127
4, 142170, Note_off_c, 1, 37, 64
4, 142200, Note_on_c, 1, 37, 127
4, 142320, Note_off_c, 1, 37, 64
4, 142560, Note_on_c, 1, 37, 127
4, 142650, Note_off_c, 1, 37, 64
4, 142680, Note_on_c, 1, 37, 127
4, 142800, Note_off_c, 1, 37, 64
4, 143040, Note_on_c, 1, 37, 127
4, 143130, Note_off_c, 1, 37, 64
4, 143160, Note_on_c, 1, 37, 127
4, 143280, Note_off_c, 1, 37, 64
4, 143520, Note_on_c, 1, 37, 127
4, 143610, Note_off_c, 1, 37, 64
4, 143640, Note_on_c, 1, 37, 127
4, 143760, Note_off_c, 1, 37, 64
4, 146400, End_track
5, 0, Start_track
5, 0, Instrument_name_t, "SB AWE32 MIDI Synth [62"
5, 0, Title_t, "Choosey Lover"
5, 0, Control_c, 2, 121, 0
5, 2, Program_c, 2, 0
5, 4, Program_c, 2, 62
5, 6, Control_c, 2, 7, 75
5, 10, Control_c, 2, 1, 0
5, 15, Control_c, 2, 10, 54
5, 20, Control_c, 2, 91, 0
5, 25, Control_c, 2, 92, 0
5, 30, Control_c, 2, 93, 0
5, 35, Control_c, 2, 94, 0
5, 40, Control_c, 2, 95, 0
5, 95, Copyright_t, "1998 Sequenced by Taro Sato"
5, 4320, Note_on_c, 2, 64, 127
5, 4320, Note_on_c, 2, 61, 127
5, 4320, Note_on_c, 2, 57, 127
5, 5760, Note_off_c, 2, 64, 64
5, 5760, Note_off_c, 2, 61, 64
5, 5760, Note_off_c, 2, 57, 64
5, 5760, Note_on_c, 2, 63, 127
5, 5760, Note_on_c, 2, 59, 127
5, 5760, Note_on_c, 2, 56, 127
5, 5820, Note_off_c, 2, 63, 64
5, 5820, Note_off_c, 2, 59, 64
5, 5820, Note_off_c, 2, 56, 64
5, 6000, Note_on_c, 2, 64, 127
5, 6000, Note_on_c, 2, 56, 127
5, 6000, Note_on_c, 2, 61, 127
5, 6000, Note_on_c, 2, 59, 127
5, 7200, Note_off_c, 2, 64, 64
5, 7200, Note_off_c, 2, 56, 64
5, 7200, Note_off_c, 2, 61, 64
5, 7200, Note_off_c, 2, 59, 64
5, 7200, Note_on_c, 2, 63, 127
5, 7200, Note_on_c, 2, 59, 127
5, 7200, Note_on_c, 2, 54, 127
5, 8160, Note_off_c, 2, 63, 64
5, 8160, Note_off_c, 2, 59, 64
5, 8160, Note_off_c, 2, 54, 64
5, 8160, Note_on_c, 2, 64, 127
5, 8160, Note_on_c, 2, 61, 127
5, 8160, Note_on_c, 2, 57, 127
5, 9600, Note_off_c, 2, 64, 64
5, 9600, Note_off_c, 2, 61, 64
5, 9600, Note_off_c, 2, 57, 64
5, 9600, Note_on_c, 2, 63, 127
5, 9600, Note_on_c, 2, 59, 127
5, 9600, Note_on_c, 2, 56, 127
5, 9660, Note_off_c, 2, 63, 64
5, 9660, Note_off_c, 2, 59, 64
5, 9660, Note_off_c, 2, 56, 64
5, 9840, Note_on_c, 2, 64, 127
5, 9840, Note_on_c, 2, 61, 127
5, 9840, Note_on_c, 2, 59, 127
5, 9840, Note_on_c, 2, 56, 127
5, 11040, Note_off_c, 2, 64, 64
5, 11040, Note_off_c, 2, 61, 64
5, 11040, Note_off_c, 2, 59, 64
5, 11040, Note_off_c, 2, 56, 64
5, 11040, Note_on_c, 2, 63, 127
5, 11040, Note_on_c, 2, 59, 127
5, 11040, Note_on_c, 2, 54, 127
5, 11520, Note_off_c, 2, 63, 64
5, 11520, Note_off_c, 2, 59, 64
5, 11520, Note_off_c, 2, 54, 64
5, 12000, Note_on_c, 2, 64, 127
5, 12000, Note_on_c, 2, 61, 127
5, 12000, Note_on_c, 2, 57, 127
5, 13440, Note_off_c, 2, 64, 64
5, 13440, Note_off_c, 2, 61, 64
5, 13440, Note_off_c, 2, 57, 64
5, 13440, Note_on_c, 2, 63, 127
5, 13440, Note_on_c, 2, 59, 127
5, 13440, Note_on_c, 2, 56, 127
5, 13500, Note_off_c, 2, 63, 64
5, 13500, Note_off_c, 2, 59, 64
5, 13500, Note_off_c, 2, 56, 64
5, 13680, Note_on_c, 2, 64, 127
5, 13680, Note_on_c, 2, 56, 127
5, 13680, Note_on_c, 2, 61, 127
5, 13680, Note_on_c, 2, 59, 127
5, 14880, Note_off_c, 2, 64, 64
5, 14880, Note_off_c, 2, 56, 64
5, 14880, Note_off_c, 2, 61, 64
5, 14880, Note_off_c, 2, 59, 64
5, 14880, Note_on_c, 2, 63, 127
5, 14880, Note_on_c, 2, 59, 127
5, 14880, Note_on_c, 2, 54, 127
5, 15840, Note_off_c, 2, 63, 64
5, 15840, Note_off_c, 2, 59, 64
5, 15840, Note_off_c, 2, 54, 64
5, 15840, Note_on_c, 2, 64, 127
5, 15840, Note_on_c, 2, 61, 127
5, 15840, Note_on_c, 2, 57, 127
5, 17280, Note_off_c, 2, 64, 64
5, 17280, Note_off_c, 2, 61, 64
5, 17280, Note_off_c, 2, 57, 64
5, 17280, Note_on_c, 2, 63, 127
5, 17280, Note_on_c, 2, 59, 127
5, 17280, Note_on_c, 2, 56, 127
5, 17340, Note_off_c, 2, 63, 64
5, 17340, Note_off_c, 2, 59, 64
5, 17340, Note_off_c, 2, 56, 64
5, 17520, Note_on_c, 2, 64, 127
5, 17520, Note_on_c, 2, 61, 127
5, 17520, Note_on_c, 2, 59, 127
5, 17520, Note_on_c, 2, 56, 127
5, 18720, Note_off_c, 2, 64, 64
5, 18720, Note_off_c, 2, 61, 64
5, 18720, Note_off_c, 2, 59, 64
5, 18720, Note_off_c, 2, 56, 64
5, 18720, Note_on_c, 2, 63, 127
5, 18720, Note_on_c, 2, 59, 127
5, 18720, Note_on_c, 2, 54, 127
5, 19200, Note_off_c, 2, 63, 64
5, 19200, Note_off_c, 2, 59, 64
5, 19200, Note_off_c, 2, 54, 64
5, 19680, Note_on_c, 2, 64, 127
5, 19680, Note_on_c, 2, 61, 127
5, 19680, Note_on_c, 2, 57, 127
5, 21120, Note_off_c, 2, 64, 64
5, 21120, Note_off_c, 2, 61, 64
5, 21120, Note_off_c, 2, 57, 64
5, 21120, Note_on_c, 2, 63, 127
5, 21120, Note_on_c, 2, 59, 127
5, 21120, Note_on_c, 2, 56, 127
5, 21180, Note_off_c, 2, 63, 64
5, 21180, Note_off_c, 2, 59, 64
5, 21180, Note_off_c, 2, 56, 64
5, 21360, Note_on_c, 2, 64, 127
5, 21360, Note_on_c, 2, 56, 127
5, 21360, Note_on_c, 2, 61, 127
5, 21360, Note_on_c, 2, 59, 127
5, 22320, Note_on_c, 2, 64, 127
5, 22440, Note_off_c, 2, 64, 64
5, 22440, Note_on_c, 2, 66, 127
5, 22560, Note_off_c, 2, 64, 64
5, 22560, Note_off_c, 2, 56, 64
5, 22560, Note_off_c, 2, 61, 64
5, 22560, Note_off_c, 2, 59, 64
5, 22560, Note_off_c, 2, 66, 64
5, 22560, Note_on_c, 2, 63, 127
5, 22560, Note_on_c, 2, 59, 127
5, 22560, Note_on_c, 2, 54, 127
5, 22560, Note_on_c, 2, 69, 127
5, 22800, Note_off_c, 2, 69, 64
5, 22800, Note_on_c, 2, 68, 127
5, 23040, Note_off_c, 2, 68, 64
5, 23040, Note_on_c, 2, 64, 127
5, 23280, Note_off_c, 2, 64, 64
5, 23280, Note_on_c, 2, 59, 127
5, 23340, Note_off_c, 2, 59, 64
5, 23340, Note_on_c, 2, 61, 127
5, 23400, Note_off_c, 2, 61, 64
5, 23520, Note_off_c, 2, 63, 64
5, 23520, Note_off_c, 2, 59, 64
5, 23520, Note_off_c, 2, 54, 64
5, 23520, Note_on_c, 2, 64, 127
5, 23520, Note_on_c, 2, 61, 127
5, 23520, Note_on_c, 2, 57, 127
5, 24960, Note_off_c, 2, 64, 64
5, 24960, Note_off_c, 2, 61, 64
5, 24960, Note_off_c, 2, 57, 64
5, 24960, Note_on_c, 2, 63, 127
5, 24960, Note_on_c, 2, 59, 127
5, 24960, Note_on_c, 2, 56, 127
5, 25020, Note_off_c, 2, 63, 64
5, 25020, Note_off_c, 2, 59, 64
5, 25020, Note_off_c, 2, 56, 64
5, 25200, Note_on_c, 2, 64, 127
5, 25200, Note_on_c, 2, 61, 127
5, 25200, Note_on_c, 2, 59, 127
5, 25200, Note_on_c, 2, 56, 127
5, 26400, Note_off_c, 2, 64, 64
5, 26400, Note_off_c, 2, 61, 64
5, 26400, Note_off_c, 2, 59, 64
5, 26400, Note_off_c, 2, 56, 64
5, 26400, Note_on_c, 2, 63, 127
5, 26400, Note_on_c, 2, 59, 127
5, 26400, Note_on_c, 2, 54, 127
5, 26880, Note_off_c, 2, 63, 64
5, 26880, Note_off_c, 2, 59, 64
5, 26880, Note_off_c, 2, 54, 64
5, 27360, Note_on_c, 2, 64, 127
5, 27360, Note_on_c, 2, 61, 127
5, 27360, Note_on_c, 2, 57, 127
5, 28800, Note_off_c, 2, 64, 64
5, 28800, Note_off_c, 2, 61, 64
5, 28800, Note_off_c, 2, 57, 64
5, 28800, Note_on_c, 2, 63, 127
5, 28800, Note_on_c, 2, 59, 127
5, 28800, Note_on_c, 2, 56, 127
5, 28860, Note_off_c, 2, 63, 64
5, 28860, Note_off_c, 2, 59, 64
5, 28860, Note_off_c, 2, 56, 64
5, 29040, Note_on_c, 2, 64, 127
5, 29040, Note_on_c, 2, 56, 127
5, 29040, Note_on_c, 2, 61, 127
5, 29040, Note_on_c, 2, 59, 127
5, 30000, Note_on_c, 2, 64, 127
5, 30120, Note_off_c, 2, 64, 64
5, 30120, Note_on_c, 2, 66, 127
5, 30240, Note_off_c, 2, 64, 64
5, 30240, Note_off_c, 2, 56, 64
5, 30240, Note_off_c, 2, 61, 64
5, 30240, Note_off_c, 2, 59, 64
5, 30240, Note_off_c, 2, 66, 64
5, 30240, Note_on_c, 2, 63, 127
5, 30240, Note_on_c, 2, 59, 127
5, 30240, Note_on_c, 2, 54, 127
5, 30240, Note_on_c, 2, 69, 127
5, 30480, Note_off_c, 2, 69, 64
5, 30480, Note_on_c, 2, 68, 127
5, 30720, Note_off_c, 2, 68, 64
5, 30720, Note_on_c, 2, 64, 127
5, 30960, Note_off_c, 2, 64, 64
5, 30960, Note_on_c, 2, 59, 127
5, 31020, Note_off_c, 2, 59, 64
5, 31020, Note_on_c, 2, 61, 127
5, 31080, Note_off_c, 2, 61, 64
5, 31200, Note_off_c, 2, 63, 64
5, 31200, Note_off_c, 2, 59, 64
5, 31200, Note_off_c, 2, 54, 64
5, 31200, Note_on_c, 2, 64, 127
5, 31200, Note_on_c, 2, 61, 127
5, 31200, Note_on_c, 2, 57, 127
5, 32640, Note_off_c, 2, 64, 64
5, 32640, Note_off_c, 2, 61, 64
5, 32640, Note_off_c, 2, 57, 64
5, 32640, Note_on_c, 2, 63, 127
5, 32640, Note_on_c, 2, 59, 127
5, 32640, Note_on_c, 2, 56, 127
5, 32700, Note_off_c, 2, 63, 64
5, 32700, Note_off_c, 2, 59, 64
5, 32700, Note_off_c, 2, 56, 64
5, 32880, Note_on_c, 2, 64, 127
5, 32880, Note_on_c, 2, 61, 127
5, 32880, Note_on_c, 2, 59, 127
5, 32880, Note_on_c, 2, 56, 127
5, 34080, Note_off_c, 2, 64, 64
5, 34080, Note_off_c, 2, 61, 64
5, 34080, Note_off_c, 2, 59, 64
5, 34080, Note_off_c, 2, 56, 64
5, 34080, Note_on_c, 2, 63, 127
5, 34080, Note_on_c, 2, 59, 127
5, 34080, Note_on_c, 2, 54, 127
5, 34560, Note_off_c, 2, 63, 64
5, 34560, Note_off_c, 2, 59, 64
5, 34560, Note_off_c, 2, 54, 64
5, 35040, Note_on_c, 2, 64, 127
5, 35040, Note_on_c, 2, 61, 127
5, 35040, Note_on_c, 2, 57, 127
5, 36480, Note_off_c, 2, 64, 64
5, 36480, Note_off_c, 2, 61, 64
5, 36480, Note_off_c, 2, 57, 64
5, 36480, Note_on_c, 2, 63, 127
5, 36480, Note_on_c, 2, 59, 127
5, 36480, Note_on_c, 2, 56, 127
5, 36540, Note_off_c, 2, 63, 64
5, 36540, Note_off_c, 2, 59, 64
5, 36540, Note_off_c, 2, 56, 64
5, 36720, Note_on_c, 2, 64, 127
5, 36720, Note_on_c, 2, 56, 127
5, 36720, Note_on_c, 2, 61, 127
5, 36720, Note_on_c, 2, 59, 127
5, 37680, Note_on_c, 2, 64, 127
5, 37800, Note_off_c, 2, 64, 64
5, 37800, Note_on_c, 2, 66, 127
5, 37920, Note_off_c, 2, 64, 64
5, 37920, Note_off_c, 2, 56, 64
5, 37920, Note_off_c, 2, 61, 64
5, 37920, Note_off_c, 2, 59, 64
5, 37920, Note_off_c, 2, 66, 64
5, 37920, Note_on_c, 2, 63, 127
5, 37920, Note_on_c, 2, 59, 127
5, 37920, Note_on_c, 2, 54, 127
5, 37920, Note_on_c, 2, 69, 127
5, 38160, Note_off_c, 2, 69, 64
5, 38160, Note_on_c, 2, 68, 127
5, 38400, Note_off_c, 2, 68, 64
5, 38400, Note_on_c, 2, 64, 127
5, 38640, Note_off_c, 2, 64, 64
5, 38640, Note_on_c, 2, 59, 127
5, 38700, Note_off_c, 2, 59, 64
5, 38700, Note_on_c, 2, 61, 127
5, 38760, Note_off_c, 2, 61, 64
5, 38880, Note_off_c, 2, 63, 64
5, 38880, Note_off_c, 2, 59, 64
5, 38880, Note_off_c, 2, 54, 64
5, 38880, Note_on_c, 2, 64, 127
5, 38880, Note_on_c, 2, 61, 127
5, 38880, Note_on_c, 2, 57, 127
5, 40320, Note_off_c, 2, 64, 64
5, 40320, Note_off_c, 2, 61, 64
5, 40320, Note_off_c, 2, 57, 64
5, 40320, Note_on_c, 2, 63, 127
5, 40320, Note_on_c, 2, 59, 127
5, 40320, Note_on_c, 2, 56, 127
5, 40380, Note_off_c, 2, 63, 64
5, 40380, Note_off_c, 2, 59, 64
5, 40380, Note_off_c, 2, 56, 64
5, 40560, Note_on_c, 2, 64, 127
5, 40560, Note_on_c, 2, 61, 127
5, 40560, Note_on_c, 2, 59, 127
5, 40560, Note_on_c, 2, 56, 127
5, 41760, Note_off_c, 2, 64, 64
5, 41760, Note_off_c, 2, 61, 64
5, 41760, Note_off_c, 2, 59, 64
5, 41760, Note_off_c, 2, 56, 64
5, 41760, Note_on_c, 2, 63, 127
5, 41760, Note_on_c, 2, 59, 127
5, 41760, Note_on_c, 2, 54, 127
5, 42240, Note_off_c, 2, 63, 64
5, 42240, Note_off_c, 2, 59, 64
5, 42240, Note_off_c, 2, 54, 64
5, 42720, Note_on_c, 2, 64, 127
5, 42720, Note_on_c, 2, 61, 127
5, 42720, Note_on_c, 2, 57, 127
5, 44160, Note_off_c, 2, 64, 64
5, 44160, Note_off_c, 2, 61, 64
5, 44160, Note_off_c, 2, 57, 64
5, 44160, Note_on_c, 2, 63, 127
5, 44160, Note_on_c, 2, 59, 127
5, 44160, Note_on_c, 2, 56, 127
5, 44220, Note_off_c, 2, 63, 64
5, 44220, Note_off_c, 2, 59, 64
5, 44220, Note_off_c, 2, 56, 64
5, 44400, Note_on_c, 2, 64, 127
5, 44400, Note_on_c, 2, 56, 127
5, 44400, Note_on_c, 2, 61, 127
5, 44400, Note_on_c, 2, 59, 127
5, 45360, Note_on_c, 2, 64, 127
5, 45480, Note_off_c, 2, 64, 64
5, 45480, Note_on_c, 2, 66, 127
5, 45600, Note_off_c, 2, 64, 64
5, 45600, Note_off_c, 2, 56, 64
5, 45600, Note_off_c, 2, 61, 64
5, 45600, Note_off_c, 2, 59, 64
5, 45600, Note_off_c, 2, 66, 64
5, 45600, Note_on_c, 2, 63, 127
5, 45600, Note_on_c, 2, 59, 127
5, 45600, Note_on_c, 2, 54, 127
5, 45600, Note_on_c, 2, 69, 127
5, 45840, Note_off_c, 2, 69, 64
5, 45840, Note_on_c, 2, 68, 127
5, 46080, Note_off_c, 2, 68, 64
5, 46080, Note_on_c, 2, 64, 127
5, 46320, Note_off_c, 2, 64, 64
5, 46320, Note_on_c, 2, 59, 127
5, 46380, Note_off_c, 2, 59, 64
5, 46380, Note_on_c, 2, 61, 127
5, 46440, Note_off_c, 2, 61, 64
5, 46560, Note_off_c, 2, 63, 64
5, 46560, Note_off_c, 2, 59, 64
5, 46560, Note_off_c, 2, 54, 64
5, 46560, Note_on_c, 2, 64, 127
5, 46560, Note_on_c, 2, 61, 127
5, 46560, Note_on_c, 2, 57, 127
5, 48000, Note_off_c, 2, 64, 64
5, 48000, Note_off_c, 2, 61, 64
5, 48000, Note_off_c, 2, 57, 64
5, 48000, Note_on_c, 2, 63, 127
5, 48000, Note_on_c, 2, 59, 127
5, 48000, Note_on_c, 2, 56, 127
5, 48060, Note_off_c, 2, 63, 64
5, 48060, Note_off_c, 2, 59, 64
5, 48060, Note_off_c, 2, 56, 64
5, 48240, Note_on_c, 2, 64, 127
5, 48240, Note_on_c, 2, 61, 127
5, 48240, Note_on_c, 2, 59, 127
5, 48240, Note_on_c, 2, 56, 127
5, 49440, Note_off_c, 2, 64, 64
5, 49440, Note_off_c, 2, 61, 64
5, 49440, Note_off_c, 2, 59, 64
5, 49440, Note_off_c, 2, 56, 64
5, 49440, Note_on_c, 2, 63, 127
5, 49440, Note_on_c, 2, 59, 127
5, 49440, Note_on_c, 2, 54, 127
5, 49920, Note_off_c, 2, 63, 64
5, 49920, Note_off_c, 2, 59, 64
5, 49920, Note_off_c, 2, 54, 64
5, 50400, Note_on_c, 2, 64, 127
5, 50400, Note_on_c, 2, 61, 127
5, 50400, Note_on_c, 2, 57, 127
5, 51840, Note_off_c, 2, 64, 64
5, 51840, Note_off_c, 2, 61, 64
5, 51840, Note_off_c, 2, 57, 64
5, 51840, Note_on_c, 2, 63, 127
5, 51840, Note_on_c, 2, 59, 127
5, 51840, Note_on_c, 2, 56, 127
5, 51900, Note_off_c, 2, 63, 64
5, 51900, Note_off_c, 2, 59, 64
5, 51900, Note_off_c, 2, 56, 64
5, 52080, Note_on_c, 2, 64, 127
5, 52080, Note_on_c, 2, 56, 127
5, 52080, Note_on_c, 2, 61, 127
5, 52080, Note_on_c, 2, 59, 127
5, 53040, Note_on_c, 2, 64, 127
5, 53160, Note_off_c, 2, 64, 64
5, 53160, Note_on_c, 2, 66, 127
5, 53280, Note_off_c, 2, 64, 64
5, 53280, Note_off_c, 2, 56, 64
5, 53280, Note_off_c, 2, 61, 64
5, 53280, Note_off_c, 2, 59, 64
5, 53280, Note_off_c, 2, 66, 64
5, 53280, Note_on_c, 2, 63, 127
5, 53280, Note_on_c, 2, 59, 127
5, 53280, Note_on_c, 2, 54, 127
5, 53280, Note_on_c, 2, 69, 127
5, 53520, Note_off_c, 2, 69, 64
5, 53520, Note_on_c, 2, 68, 127
5, 53760, Note_off_c, 2, 68, 64
5, 53760, Note_on_c, 2, 64, 127
5, 54000, Note_off_c, 2, 64, 64
5, 54000, Note_on_c, 2, 59, 127
5, 54060, Note_off_c, 2, 59, 64
5, 54060, Note_on_c, 2, 61, 127
5, 54120, Note_off_c, 2, 61, 64
5, 54240, Note_off_c, 2, 63, 64
5, 54240, Note_off_c, 2, 59, 64
5, 54240, Note_off_c, 2, 54, 64
5, 54240, Note_on_c, 2, 64, 127
5, 54240, Note_on_c, 2, 61, 127
5, 54240, Note_on_c, 2, 57, 127
5, 55680, Note_off_c, 2, 64, 64
5, 55680, Note_off_c, 2, 61, 64
5, 55680, Note_off_c, 2, 57, 64
5, 55680, Note_on_c, 2, 63, 127
5, 55680, Note_on_c, 2, 59, 127
5, 55680, Note_on_c, 2, 56, 127
5, 55740, Note_off_c, 2, 63, 64
5, 55740, Note_off_c, 2, 59, 64
5, 55740, Note_off_c, 2, 56, 64
5, 55920, Note_on_c, 2, 64, 127
5, 55920, Note_on_c, 2, 61, 127
5, 55920, Note_on_c, 2, 59, 127
5, 55920, Note_on_c, 2, 56, 127
5, 57120, Note_off_c, 2, 64, 64
5, 57120, Note_off_c, 2, 61, 64
5, 57120, Note_off_c, 2, 59, 64
5, 57120, Note_off_c, 2, 56, 64
5, 57120, Note_on_c, 2, 63, 127
5, 57120, Note_on_c, 2, 59, 127
5, 57120, Note_on_c, 2, 54, 127
5, 57600, Note_off_c, 2, 63, 64
5, 57600, Note_off_c, 2, 59, 64
5, 57600, Note_off_c, 2, 54, 64
5, 58080, Note_on_c, 2, 64, 127
5, 58080, Note_on_c, 2, 61, 127
5, 58080, Note_on_c, 2, 57, 127
5, 59520, Note_off_c, 2, 64, 64
5, 59520, Note_off_c, 2, 61, 64
5, 59520, Note_off_c, 2, 57, 64
5, 59520, Note_on_c, 2, 63, 127
5, 59520, Note_on_c, 2, 59, 127
5, 59520, Note_on_c, 2, 56, 127
5, 59580, Note_off_c, 2, 63, 64
5, 59580, Note_off_c, 2, 59, 64
5, 59580, Note_off_c, 2, 56, 64
5, 59760, Note_on_c, 2, 64, 127
5, 59760, Note_on_c, 2, 56, 127
5, 59760, Note_on_c, 2, 61, 127
5, 59760, Note_on_c, 2, 59, 127
5, 60720, Note_on_c, 2, 64, 127
5, 60840, Note_off_c, 2, 64, 64
5, 60840, Note_on_c, 2, 66, 127
5, 60960, Note_off_c, 2, 64, 64
5, 60960, Note_off_c, 2, 56, 64
5, 60960, Note_off_c, 2, 61, 64
5, 60960, Note_off_c, 2, 59, 64
5, 60960, Note_off_c, 2, 66, 64
5, 60960, Note_on_c, 2, 63, 127
5, 60960, Note_on_c, 2, 59, 127
5, 60960, Note_on_c, 2, 54, 127
5, 60960, Note_on_c, 2, 69, 127
5, 61200, Note_off_c, 2, 69, 64
5, 61200, Note_on_c, 2, 68, 127
5, 61440, Note_off_c, 2, 68, 64
5, 61440, Note_on_c, 2, 64, 127
5, 61680, Note_off_c, 2, 64, 64
5, 61680, Note_on_c, 2, 59, 127
5, 61740, Note_off_c, 2, 59, 64
5, 61740, Note_on_c, 2, 61, 127
5, 61800, Note_off_c, 2, 61, 64
5, 61920, Note_off_c, 2, 63, 64
5, 61920, Note_off_c, 2, 59, 64
5, 61920, Note_off_c, 2, 54, 64
5, 61920, Note_on_c, 2, 64, 127
5, 61920, Note_on_c, 2, 61, 127
5, 61920, Note_on_c, 2, 57, 127
5, 63360, Note_off_c, 2, 64, 64
5, 63360, Note_off_c, 2, 61, 64
5, 63360, Note_off_c, 2, 57, 64
5, 63360, Note_on_c, 2, 63, 127
5, 63360, Note_on_c, 2, 59, 127
5, 63360, Note_on_c, 2, 56, 127
5, 63420, Note_off_c, 2, 63, 64
5, 63420, Note_off_c, 2, 59, 64
5, 63420, Note_off_c, 2, 56, 64
5, 63600, Note_on_c, 2, 64, 127
5, 63600, Note_on_c, 2, 61, 127
5, 63600, Note_on_c, 2, 59, 127
5, 63600, Note_on_c, 2, 56, 127
5, 64800, Note_off_c, 2, 64, 64
5, 64800, Note_off_c, 2, 61, 64
5, 64800, Note_off_c, 2, 59, 64
5, 64800, Note_off_c, 2, 56, 64
5, 64800, Note_on_c, 2, 63, 127
5, 64800, Note_on_c, 2, 59, 127
5, 64800, Note_on_c, 2, 54, 127
5, 65280, Note_off_c, 2, 63, 64
5, 65280, Note_off_c, 2, 59, 64
5, 65280, Note_off_c, 2, 54, 64
5, 65760, Note_on_c, 2, 64, 127
5, 65760, Note_on_c, 2, 61, 127
5, 65760, Note_on_c, 2, 57, 127
5, 67200, Note_off_c, 2, 64, 64
5, 67200, Note_off_c, 2, 61, 64
5, 67200, Note_off_c, 2, 57, 64
5, 67200, Note_on_c, 2, 63, 127
5, 67200, Note_on_c, 2, 59, 127
5, 67200, Note_on_c, 2, 56, 127
5, 67260, Note_off_c, 2, 63, 64
5, 67260, Note_off_c, 2, 59, 64
5, 67260, Note_off_c, 2, 56, 64
5, 67440, Note_on_c, 2, 64, 127
5, 67440, Note_on_c, 2, 56, 127
5, 67440, Note_on_c, 2, 61, 127
5, 67440, Note_on_c, 2, 59, 127
5, 68400, Note_on_c, 2, 64, 127
5, 68520, Note_off_c, 2, 64, 64
5, 68520, Note_on_c, 2, 66, 127
5, 68640, Note_off_c, 2, 64, 64
5, 68640, Note_off_c, 2, 56, 64
5, 68640, Note_off_c, 2, 61, 64
5, 68640, Note_off_c, 2, 59, 64
5, 68640, Note_off_c, 2, 66, 64
5, 68640, Note_on_c, 2, 63, 127
5, 68640, Note_on_c, 2, 59, 127
5, 68640, Note_on_c, 2, 54, 127
5, 68640, Note_on_c, 2, 69, 127
5, 68880, Note_off_c, 2, 69, 64
5, 68880, Note_on_c, 2, 68, 127
5, 69120, Note_off_c, 2, 68, 64
5, 69120, Note_on_c, 2, 64, 127
5, 69360, Note_off_c, 2, 64, 64
5, 69360, Note_on_c, 2, 59, 127
5, 69420, Note_off_c, 2, 59, 64
5, 69420, Note_on_c, 2, 61, 127
5, 69480, Note_off_c, 2, 61, 64
5, 69600, Note_off_c, 2, 63, 64
5, 69600, Note_off_c, 2, 59, 64
5, 69600, Note_off_c, 2, 54, 64
5, 69600, Note_on_c, 2, 64, 127
5, 69600, Note_on_c, 2, 61, 127
5, 69600, Note_on_c, 2, 57, 127
5, 71040, Note_off_c, 2, 64, 64
5, 71040, Note_off_c, 2, 61, 64
5, 71040, Note_off_c, 2, 57, 64
5, 71040, Note_on_c, 2, 63, 127
5, 71040, Note_on_c, 2, 59, 127
5, 71040, Note_on_c, 2, 56, 127
5, 71100, Note_off_c, 2, 63, 64
5, 71100, Note_off_c, 2, 59, 64
5, 71100, Note_off_c, 2, 56, 64
5, 71280, Note_on_c, 2, 64, 127
5, 71280, Note_on_c, 2, 61, 127
5, 71280, Note_on_c, 2, 59, 127
5, 71280, Note_on_c, 2, 56, 127
5, 72480, Note_off_c, 2, 64, 64
5, 72480, Note_off_c, 2, 61, 64
5, 72480, Note_off_c, 2, 59, 64
5, 72480, Note_off_c, 2, 56, 64
5, 72480, Note_on_c, 2, 63, 127
5, 72480, Note_on_c, 2, 59, 127
5, 72480, Note_on_c, 2, 54, 127
5, 72960, Note_off_c, 2, 63, 64
5, 72960, Note_off_c, 2, 59, 64
5, 72960, Note_off_c, 2, 54, 64
5, 73440, Note_on_c, 2, 64, 127
5, 73440, Note_on_c, 2, 61, 127
5, 73440, Note_on_c, 2, 57, 127
5, 74880, Note_off_c, 2, 64, 64
5, 74880, Note_off_c, 2, 61, 64
5, 74880, Note_off_c, 2, 57, 64
5, 74880, Note_on_c, 2, 63, 127
5, 74880, Note_on_c, 2, 59, 127
5, 74880, Note_on_c, 2, 56, 127
5, 74940, Note_off_c, 2, 63, 64
5, 74940, Note_off_c, 2, 59, 64
5, 74940, Note_off_c, 2, 56, 64
5, 75120, Note_on_c, 2, 64, 127
5, 75120, Note_on_c, 2, 56, 127
5, 75120, Note_on_c, 2, 61, 127
5, 75120, Note_on_c, 2, 59, 127
5, 76080, Note_on_c, 2, 64, 127
5, 76200, Note_off_c, 2, 64, 64
5, 76200, Note_on_c, 2, 66, 127
5, 76320, Note_off_c, 2, 64, 64
5, 76320, Note_off_c, 2, 56, 64
5, 76320, Note_off_c, 2, 61, 64
5, 76320, Note_off_c, 2, 59, 64
5, 76320, Note_off_c, 2, 66, 64
5, 76320, Note_on_c, 2, 63, 127
5, 76320, Note_on_c, 2, 59, 127
5, 76320, Note_on_c, 2, 54, 127
5, 76320, Note_on_c, 2, 69, 127
5, 76560, Note_off_c, 2, 69, 64
5, 76560, Note_on_c, 2, 68, 127
5, 76800, Note_off_c, 2, 68, 64
5, 76800, Note_on_c, 2, 64, 127
5, 77040, Note_off_c, 2, 64, 64
5, 77040, Note_on_c, 2, 59, 127
5, 77100, Note_off_c, 2, 59, 64
5, 77100, Note_on_c, 2, 61, 127
5, 77160, Note_off_c, 2, 61, 64
5, 77280, Note_off_c, 2, 63, 64
5, 77280, Note_off_c, 2, 59, 64
5, 77280, Note_off_c, 2, 54, 64
5, 77280, Note_on_c, 2, 64, 127
5, 77280, Note_on_c, 2, 61, 127
5, 77280, Note_on_c, 2, 57, 127
5, 78720, Note_off_c, 2, 64, 64
5, 78720, Note_off_c, 2, 61, 64
5, 78720, Note_off_c, 2, 57, 64
5, 78720, Note_on_c, 2, 63, 127
5, 78720, Note_on_c, 2, 59, 127
5, 78720, Note_on_c, 2, 56, 127
5, 78780, Note_off_c, 2, 63, 64
5, 78780, Note_off_c, 2, 59, 64
5, 78780, Note_off_c, 2, 56, 64
5, 78960, Note_on_c, 2, 64, 127
5, 78960, Note_on_c, 2, 61, 127
5, 78960, Note_on_c, 2, 59, 127
5, 78960, Note_on_c, 2, 56, 127
5, 80160, Note_off_c, 2, 64, 64
5, 80160, Note_off_c, 2, 61, 64
5, 80160, Note_off_c, 2, 59, 64
5, 80160, Note_off_c, 2, 56, 64
5, 80160, Note_on_c, 2, 63, 127
5, 80160, Note_on_c, 2, 59, 127
5, 80160, Note_on_c, 2, 54, 127
5, 80640, Note_off_c, 2, 63, 64
5, 80640, Note_off_c, 2, 59, 64
5, 80640, Note_off_c, 2, 54, 64
5, 81120, Note_on_c, 2, 64, 127
5, 81120, Note_on_c, 2, 61, 127
5, 81120, Note_on_c, 2, 57, 127
5, 82560, Note_off_c, 2, 64, 64
5, 82560, Note_off_c, 2, 61, 64
5, 82560, Note_off_c, 2, 57, 64
5, 82560, Note_on_c, 2, 63, 127
5, 82560, Note_on_c, 2, 59, 127
5, 82560, Note_on_c, 2, 56, 127
5, 82620, Note_off_c, 2, 63, 64
5, 82620, Note_off_c, 2, 59, 64
5, 82620, Note_off_c, 2, 56, 64
5, 82800, Note_on_c, 2, 64, 127
5, 82800, Note_on_c, 2, 56, 127
5, 82800, Note_on_c, 2, 61, 127
5, 82800, Note_on_c, 2, 59, 127
5, 83760, Note_on_c, 2, 64, 127
5, 83880, Note_off_c, 2, 64, 64
5, 83880, Note_on_c, 2, 66, 127
5, 84000, Note_off_c, 2, 64, 64
5, 84000, Note_off_c, 2, 56, 64
5, 84000, Note_off_c, 2, 61, 64
5, 84000, Note_off_c, 2, 59, 64
5, 84000, Note_off_c, 2, 66, 64
5, 84000, Note_on_c, 2, 63, 127
5, 84000, Note_on_c, 2, 59, 127
5, 84000, Note_on_c, 2, 54, 127
5, 84000, Note_on_c, 2, 69, 127
5, 84240, Note_off_c, 2, 69, 64
5, 84240, Note_on_c, 2, 68, 127
5, 84480, Note_off_c, 2, 68, 64
5, 84480, Note_on_c, 2, 64, 127
5, 84720, Note_off_c, 2, 64, 64
5, 84720, Note_on_c, 2, 59, 127
5, 84780, Note_off_c, 2, 59, 64
5, 84780, Note_on_c, 2, 61, 127
5, 84840, Note_off_c, 2, 61, 64
5, 84960, Note_off_c, 2, 63, 64
5, 84960, Note_off_c, 2, 59, 64
5, 84960, Note_off_c, 2, 54, 64
5, 84960, Note_on_c, 2, 64, 127
5, 84960, Note_on_c, 2, 61, 127
5, 84960, Note_on_c, 2, 57, 127
5, 86400, Note_off_c, 2, 64, 64
5, 86400, Note_off_c, 2, 61, 64
5, 86400, Note_off_c, 2, 57, 64
5, 86400, Note_on_c, 2, 63, 127
5, 86400, Note_on_c, 2, 59, 127
5, 86400, Note_on_c, 2, 56, 127
5, 86460, Note_off_c, 2, 63, 64
5, 86460, Note_off_c, 2, 59, 64
5, 86460, Note_off_c, 2, 56, 64
5, 86640, Note_on_c, 2, 64, 127
5, 86640, Note_on_c, 2, 61, 127
5, 86640, Note_on_c, 2, 59, 127
5, 86640, Note_on_c, 2, 56, 127
5, 87840, Note_off_c, 2, 64, 64
5, 87840, Note_off_c, 2, 61, 64
5, 87840, Note_off_c, 2, 59, 64
5, 87840, Note_off_c, 2, 56, 64
5, 87840, Note_on_c, 2, 63, 127
5, 87840, Note_on_c, 2, 59, 127
5, 87840, Note_on_c, 2, 54, 127
5, 88320, Note_off_c, 2, 63, 64
5, 88320, Note_off_c, 2, 59, 64
5, 88320, Note_off_c, 2, 54, 64
5, 88800, Note_on_c, 2, 64, 127
5, 88800, Note_on_c, 2, 61, 127
5, 88800, Note_on_c, 2, 57, 127
5, 90240, Note_off_c, 2, 64, 64
5, 90240, Note_off_c, 2, 61, 64
5, 90240, Note_off_c, 2, 57, 64
5, 90240, Note_on_c, 2, 63, 127
5, 90240, Note_on_c, 2, 59, 127
5, 90240, Note_on_c, 2, 56, 127
5, 90300, Note_off_c, 2, 63, 64
5, 90300, Note_off_c, 2, 59, 64
5, 90300, Note_off_c, 2, 56, 64
5, 90480, Note_on_c, 2, 64, 127
5, 90480, Note_on_c, 2, 56, 127
5, 90480, Note_on_c, 2, 61, 127
5, 90480, Note_on_c, 2, 59, 127
5, 91440, Note_on_c, 2, 64, 127
5, 91560, Note_off_c, 2, 64, 64
5, 91560, Note_on_c, 2, 66, 127
5, 91680, Note_off_c, 2, 64, 64
5, 91680, Note_off_c, 2, 56, 64
5, 91680, Note_off_c, 2, 61, 64
5, 91680, Note_off_c, 2, 59, 64
5, 91680, Note_off_c, 2, 66, 64
5, 91680, Note_on_c, 2, 63, 127
5, 91680, Note_on_c, 2, 59, 127
5, 91680, Note_on_c, 2, 54, 127
5, 91680, Note_on_c, 2, 69, 127
5, 91920, Note_off_c, 2, 69, 64
5, 91920, Note_on_c, 2, 68, 127
5, 92160, Note_off_c, 2, 68, 64
5, 92160, Note_on_c, 2, 64, 127
5, 92400, Note_off_c, 2, 64, 64
5, 92400, Note_on_c, 2, 59, 127
5, 92460, Note_off_c, 2, 59, 64
5, 92460, Note_on_c, 2, 61, 127
5, 92520, Note_off_c, 2, 61, 64
5, 92640, Note_off_c, 2, 63, 64
5, 92640, Note_off_c, 2, 59, 64
5, 92640, Note_off_c, 2, 54, 64
5, 92640, Note_on_c, 2, 64, 127
5, 92640, Note_on_c, 2, 61, 127
5, 92640, Note_on_c, 2, 57, 127
5, 94080, Note_off_c, 2, 64, 64
5, 94080, Note_off_c, 2, 61, 64
5, 94080, Note_off_c, 2, 57, 64
5, 94080, Note_on_c, 2, 63, 127
5, 94080, Note_on_c, 2, 59, 127
5, 94080, Note_on_c, 2, 56, 127
5, 94140, Note_off_c, 2, 63, 64
5, 94140, Note_off_c, 2, 59, 64
5, 94140, Note_off_c, 2, 56, 64
5, 94320, Note_on_c, 2, 64, 127
5, 94320, Note_on_c, 2, 61, 127
5, 94320, Note_on_c, 2, 59, 127
5, 94320, Note_on_c, 2, 56, 127
5, 95520, Note_off_c, 2, 64, 64
5, 95520, Note_off_c, 2, 61, 64
5, 95520, Note_off_c, 2, 59, 64
5, 95520, Note_off_c, 2, 56, 64
5, 95520, Note_on_c, 2, 63, 127
5, 95520, Note_on_c, 2, 59, 127
5, 95520, Note_on_c, 2, 54, 127
5, 96000, Note_off_c, 2, 63, 64
5, 96000, Note_off_c, 2, 59, 64
5, 96000, Note_off_c, 2, 54, 64
5, 96480, Note_on_c, 2, 64, 127
5, 96480, Note_on_c, 2, 61, 127
5, 96480, Note_on_c, 2, 57, 127
5, 97920, Note_off_c, 2, 64, 64
5, 97920, Note_off_c, 2, 61, 64
5, 97920, Note_off_c, 2, 57, 64
5, 97920, Note_on_c, 2, 63, 127
5, 97920, Note_on_c, 2, 59, 127
5, 97920, Note_on_c, 2, 56, 127
5, 97980, Note_off_c, 2, 63, 64
5, 97980, Note_off_c, 2, 59, 64
5, 97980, Note_off_c, 2, 56, 64
5, 98160, Note_on_c, 2, 64, 127
5, 98160, Note_on_c, 2, 56, 127
5, 98160, Note_on_c, 2, 61, 127
5, 98160, Note_on_c, 2, 59, 127
5, 99360, Note_off_c, 2, 64, 64
5, 99360, Note_off_c, 2, 56, 64
5, 99360, Note_off_c, 2, 61, 64
5, 99360, Note_off_c, 2, 59, 64
5, 99360, Note_on_c, 2, 63, 127
5, 99360, Note_on_c, 2, 59, 127
5, 99360, Note_on_c, 2, 54, 127
5, 100320, Note_off_c, 2, 63, 64
5, 100320, Note_off_c, 2, 59, 64
5, 100320, Note_off_c, 2, 54, 64
5, 100320, Note_on_c, 2, 64, 127
5, 100320, Note_on_c, 2, 61, 127
5, 100320, Note_on_c, 2, 57, 127
5, 101760, Note_off_c, 2, 64, 64
5, 101760, Note_off_c, 2, 61, 64
5, 101760, Note_off_c, 2, 57, 64
5, 101760, Note_on_c, 2, 63, 127
5, 101760, Note_on_c, 2, 59, 127
5, 101760, Note_on_c, 2, 56, 127
5, 101820, Note_off_c, 2, 63, 64
5, 101820, Note_off_c, 2, 59, 64
5, 101820, Note_off_c, 2, 56, 64
5, 102000, Note_on_c, 2, 64, 127
5, 102000, Note_on_c, 2, 61, 127
5, 102000, Note_on_c, 2, 59, 127
5, 102000, Note_on_c, 2, 56, 127
5, 103200, Note_off_c, 2, 64, 64
5, 103200, Note_off_c, 2, 61, 64
5, 103200, Note_off_c, 2, 59, 64
5, 103200, Note_off_c, 2, 56, 64
5, 103200, Note_on_c, 2, 63, 127
5, 103200, Note_on_c, 2, 59, 127
5, 103200, Note_on_c, 2, 54, 127
5, 103680, Note_off_c, 2, 63, 64
5, 103680, Note_off_c, 2, 59, 64
5, 103680, Note_off_c, 2, 54, 64
5, 104160, Note_on_c, 2, 64, 127
5, 104160, Note_on_c, 2, 61, 127
5, 104160, Note_on_c, 2, 57, 127
5, 105600, Note_off_c, 2, 64, 64
5, 105600, Note_off_c, 2, 61, 64
5, 105600, Note_off_c, 2, 57, 64
5, 105600, Note_on_c, 2, 63, 127
5, 105600, Note_on_c, 2, 59, 127
5, 105600, Note_on_c, 2, 56, 127
5, 105660, Note_off_c, 2, 63, 64
5, 105660, Note_off_c, 2, 59, 64
5, 105660, Note_off_c, 2, 56, 64
5, 105840, Note_on_c, 2, 64, 127
5, 105840, Note_on_c, 2, 56, 127
5, 105840, Note_on_c, 2, 61, 127
5, 105840, Note_on_c, 2, 59, 127
5, 107040, Note_off_c, 2, 64, 64
5, 107040, Note_off_c, 2, 56, 64
5, 107040, Note_off_c, 2, 61, 64
5, 107040, Note_off_c, 2, 59, 64
5, 107040, Note_on_c, 2, 63, 127
5, 107040, Note_on_c, 2, 59, 127
5, 107040, Note_on_c, 2, 54, 127
5, 108000, Note_off_c, 2, 63, 64
5, 108000, Note_off_c, 2, 59, 64
5, 108000, Note_off_c, 2, 54, 64
5, 108000, Note_on_c, 2, 64, 127
5, 108000, Note_on_c, 2, 61, 127
5, 108000, Note_on_c, 2, 57, 127
5, 109440, Note_off_c, 2, 64, 64
5, 109440, Note_off_c, 2, 61, 64
5, 109440, Note_off_c, 2, 57, 64
5, 109440, Note_on_c, 2, 63, 127
5, 109440, Note_on_c, 2, 59, 127
5, 109440, Note_on_c, 2, 56, 127
5, 109500, Note_off_c, 2, 63, 64
5, 109500, Note_off_c, 2, 59, 64
5, 109500, Note_off_c, 2, 56, 64
5, 109680, Note_on_c, 2, 64, 127
5, 109680, Note_on_c, 2, 61, 127
5, 109680, Note_on_c, 2, 59, 127
5, 109680, Note_on_c, 2, 56, 127
5, 110880, Note_off_c, 2, 64, 64
5, 110880, Note_off_c, 2, 61, 64
5, 110880, Note_off_c, 2, 59, 64
5, 110880, Note_off_c, 2, 56, 64
5, 110880, Note_on_c, 2, 63, 127
5, 110880, Note_on_c, 2, 59, 127
5, 110880, Note_on_c, 2, 54, 127
5, 111360, Note_off_c, 2, 63, 64
5, 111360, Note_off_c, 2, 59, 64
5, 111360, Note_off_c, 2, 54, 64
5, 111840, Note_on_c, 2, 64, 127
5, 111840, Note_on_c, 2, 61, 127
5, 111840, Note_on_c, 2, 57, 127
5, 113280, Note_off_c, 2, 64, 64
5, 113280, Note_off_c, 2, 61, 64
5, 113280, Note_off_c, 2, 57, 64
5, 113280, Note_on_c, 2, 63, 127
5, 113280, Note_on_c, 2, 59, 127
5, 113280, Note_on_c, 2, 56, 127
5, 113340, Note_off_c, 2, 63, 64
5, 113340, Note_off_c, 2, 59, 64
5, 113340, Note_off_c, 2, 56, 64
5, 113520, Note_on_c, 2, 64, 127
5, 113520, Note_on_c, 2, 56, 127
5, 113520, Note_on_c, 2, 61, 127
5, 113520, Note_on_c, 2, 59, 127
5, 114480, Note_on_c, 2, 64, 127
5, 114600, Note_off_c, 2, 64, 64
5, 114600, Note_on_c, 2, 66, 127
5, 114720, Note_off_c, 2, 64, 64
5, 114720, Note_off_c, 2, 56, 64
5, 114720, Note_off_c, 2, 61, 64
5, 114720, Note_off_c, 2, 59, 64
5, 114720, Note_off_c, 2, 66, 64
5, 114720, Note_on_c, 2, 63, 127
5, 114720, Note_on_c, 2, 59, 127
5, 114720, Note_on_c, 2, 54, 127
5, 114720, Note_on_c, 2, 69, 127
5, 114960, Note_off_c, 2, 69, 64
5, 114960, Note_on_c, 2, 68, 127
5, 115200, Note_off_c, 2, 68, 64
5, 115200, Note_on_c, 2, 64, 127
5, 115440, Note_off_c, 2, 64, 64
5, 115440, Note_on_c, 2, 59, 127
5, 115500, Note_off_c, 2, 59, 64
5, 115500, Note_on_c, 2, 61, 127
5, 115560, Note_off_c, 2, 61, 64
5, 115680, Note_off_c, 2, 63, 64
5, 115680, Note_off_c, 2, 59, 64
5, 115680, Note_off_c, 2, 54, 64
5, 115680, Note_on_c, 2, 64, 127
5, 115680, Note_on_c, 2, 61, 127
5, 115680, Note_on_c, 2, 57, 127
5, 117120, Note_off_c, 2, 64, 64
5, 117120, Note_off_c, 2, 61, 64
5, 117120, Note_off_c, 2, 57, 64
5, 117120, Note_on_c, 2, 63, 127
5, 117120, Note_on_c, 2, 59, 127
5, 117120, Note_on_c, 2, 56, 127
5, 117180, Note_off_c, 2, 63, 64
5, 117180, Note_off_c, 2, 59, 64
5, 117180, Note_off_c, 2, 56, 64
5, 117360, Note_on_c, 2, 64, 127
5, 117360, Note_on_c, 2, 61, 127
5, 117360, Note_on_c, 2, 59, 127
5, 117360, Note_on_c, 2, 56, 127
5, 118560, Note_off_c, 2, 64, 64
5, 118560, Note_off_c, 2, 61, 64
5, 118560, Note_off_c, 2, 59, 64
5, 118560, Note_off_c, 2, 56, 64
5, 118560, Note_on_c, 2, 63, 127
5, 118560, Note_on_c, 2, 59, 127
5, 118560, Note_on_c, 2, 54, 127
5, 119040, Note_off_c, 2, 63, 64
5, 119040, Note_off_c, 2, 59, 64
5, 119040, Note_off_c, 2, 54, 64
5, 119520, Note_on_c, 2, 64, 127
5, 119520, Note_on_c, 2, 61, 127
5, 119520, Note_on_c, 2, 57, 127
5, 120960, Note_off_c, 2, 64, 64
5, 120960, Note_off_c, 2, 61, 64
5, 120960, Note_off_c, 2, 57, 64
5, 120960, Note_on_c, 2, 63, 127
5, 120960, Note_on_c, 2, 59, 127
5, 120960, Note_on_c, 2, 56, 127
5, 121020, Note_off_c, 2, 63, 64
5, 121020, Note_off_c, 2, 59, 64
5, 121020, Note_off_c, 2, 56, 64
5, 121200, Note_on_c, 2, 64, 127
5, 121200, Note_on_c, 2, 56, 127
5, 121200, Note_on_c, 2, 61, 127
5, 121200, Note_on_c, 2, 59, 127
5, 122160, Note_on_c, 2, 64, 127
5, 122280, Note_off_c, 2, 64, 64
5, 122280, Note_on_c, 2, 66, 127
5, 122400, Note_off_c, 2, 64, 64
5, 122400, Note_off_c, 2, 56, 64
5, 122400, Note_off_c, 2, 61, 64
5, 122400, Note_off_c, 2, 59, 64
5, 122400, Note_off_c, 2, 66, 64
5, 122400, Note_on_c, 2, 63, 127
5, 122400, Note_on_c, 2, 59, 127
5, 122400, Note_on_c, 2, 54, 127
5, 122400, Note_on_c, 2, 69, 127
5, 122640, Note_off_c, 2, 69, 64
5, 122640, Note_on_c, 2, 68, 127
5, 122880, Note_off_c, 2, 68, 64
5, 122880, Note_on_c, 2, 64, 127
5, 123120, Note_off_c, 2, 64, 64
5, 123120, Note_on_c, 2, 59, 127
5, 123180, Note_off_c, 2, 59, 64
5, 123180, Note_on_c, 2, 61, 127
5, 123240, Note_off_c, 2, 61, 64
5, 123360, Note_off_c, 2, 63, 64
5, 123360, Note_off_c, 2, 59, 64
5, 123360, Note_off_c, 2, 54, 64
5, 123360, Note_on_c, 2, 64, 127
5, 123360, Note_on_c, 2, 61, 127
5, 123360, Note_on_c, 2, 57, 127
5, 124800, Note_off_c, 2, 64, 64
5, 124800, Note_off_c, 2, 61, 64
5, 124800, Note_off_c, 2, 57, 64
5, 124800, Note_on_c, 2, 63, 127
5, 124800, Note_on_c, 2, 59, 127
5, 124800, Note_on_c, 2, 56, 127
5, 124860, Note_off_c, 2, 63, 64
5, 124860, Note_off_c, 2, 59, 64
5, 124860, Note_off_c, 2, 56, 64
5, 125040, Note_on_c, 2, 64, 127
5, 125040, Note_on_c, 2, 61, 127
5, 125040, Note_on_c, 2, 59, 127
5, 125040, Note_on_c, 2, 56, 127
5, 126240, Note_off_c, 2, 64, 64
5, 126240, Note_off_c, 2, 61, 64
5, 126240, Note_off_c, 2, 59, 64
5, 126240, Note_off_c, 2, 56, 64
5, 126240, Note_on_c, 2, 63, 127
5, 126240, Note_on_c, 2, 59, 127
5, 126240, Note_on_c, 2, 54, 127
5, 126720, Note_off_c, 2, 63, 64
5, 126720, Note_off_c, 2, 59, 64
5, 126720, Note_off_c, 2, 54, 64
5, 127200, Note_on_c, 2, 64, 127
5, 127200, Note_on_c, 2, 61, 127
5, 127200, Note_on_c, 2, 57, 127
5, 128640, Note_off_c, 2, 64, 64
5, 128640, Note_off_c, 2, 61, 64
5, 128640, Note_off_c, 2, 57, 64
5, 128640, Note_on_c, 2, 63, 127
5, 128640, Note_on_c, 2, 59, 127
5, 128640, Note_on_c, 2, 56, 127
5, 128700, Note_off_c, 2, 63, 64
5, 128700, Note_off_c, 2, 59, 64
5, 128700, Note_off_c, 2, 56, 64
5, 128880, Note_on_c, 2, 64, 127
5, 128880, Note_on_c, 2, 56, 127
5, 128880, Note_on_c, 2, 61, 127
5, 128880, Note_on_c, 2, 59, 127
5, 129840, Note_on_c, 2, 64, 127
5, 129960, Note_off_c, 2, 64, 64
5, 129960, Note_on_c, 2, 66, 127
5, 130080, Note_off_c, 2, 64, 64
5, 130080, Note_off_c, 2, 56, 64
5, 130080, Note_off_c, 2, 61, 64
5, 130080, Note_off_c, 2, 59, 64
5, 130080, Note_off_c, 2, 66, 64
5, 130080, Note_on_c, 2, 63, 127
5, 130080, Note_on_c, 2, 59, 127
5, 130080, Note_on_c, 2, 54, 127
5, 130080, Note_on_c, 2, 69, 127
5, 130320, Note_off_c, 2, 69, 64
5, 130320, Note_on_c, 2, 68, 127
5, 130560, Note_off_c, 2, 68, 64
5, 130560, Note_on_c, 2, 64, 127
5, 130800, Note_off_c, 2, 64, 64
5, 130800, Note_on_c, 2, 59, 127
5, 130860, Note_off_c, 2, 59, 64
5, 130860, Note_on_c, 2, 61, 127
5, 130920, Note_off_c, 2, 61, 64
5, 131040, Note_off_c, 2, 63, 64
5, 131040, Note_off_c, 2, 59, 64
5, 131040, Note_off_c, 2, 54, 64
5, 131040, Note_on_c, 2, 64, 127
5, 131040, Note_on_c, 2, 61, 127
5, 131040, Note_on_c, 2, 57, 127
5, 132480, Note_off_c, 2, 64, 64
5, 132480, Note_off_c, 2, 61, 64
5, 132480, Note_off_c, 2, 57, 64
5, 132480, Note_on_c, 2, 63, 127
5, 132480, Note_on_c, 2, 59, 127
5, 132480, Note_on_c, 2, 56, 127
5, 132540, Note_off_c, 2, 63, 64
5, 132540, Note_off_c, 2, 59, 64
5, 132540, Note_off_c, 2, 56, 64
5, 132720, Note_on_c, 2, 64, 127
5, 132720, Note_on_c, 2, 61, 127
5, 132720, Note_on_c, 2, 59, 127
5, 132720, Note_on_c, 2, 56, 127
5, 133920, Note_off_c, 2, 64, 64
5, 133920, Note_off_c, 2, 61, 64
5, 133920, Note_off_c, 2, 59, 64
5, 133920, Note_off_c, 2, 56, 64
5, 133920, Note_on_c, 2, 63, 127
5, 133920, Note_on_c, 2, 59, 127
5, 133920, Note_on_c, 2, 54, 127
5, 134400, Note_off_c, 2, 63, 64
5, 134400, Note_off_c, 2, 59, 64
5, 134400, Note_off_c, 2, 54, 64
5, 134880, Note_on_c, 2, 64, 127
5, 134880, Note_on_c, 2, 61, 127
5, 134880, Note_on_c, 2, 57, 127
5, 136320, Note_off_c, 2, 64, 64
5, 136320, Note_off_c, 2, 61, 64
5, 136320, Note_off_c, 2, 57, 64
5, 136320, Note_on_c, 2, 63, 127
5, 136320, Note_on_c, 2, 59, 127
5, 136320, Note_on_c, 2, 56, 127
5, 136380, Note_off_c, 2, 63, 64
5, 136380, Note_off_c, 2, 59, 64
5, 136380, Note_off_c, 2, 56, 64
5, 136560, Note_on_c, 2, 64, 127
5, 136560, Note_on_c, 2, 56, 127
5, 136560, Note_on_c, 2, 61, 127
5, 136560, Note_on_c, 2, 59, 127
5, 137520, Note_on_c, 2, 64, 127
5, 137640, Note_off_c, 2, 64, 64
5, 137640, Note_on_c, 2, 66, 127
5, 137760, Note_off_c, 2, 64, 64
5, 137760, Note_off_c, 2, 56, 64
5, 137760, Note_off_c, 2, 61, 64
5, 137760, Note_off_c, 2, 59, 64
5, 137760, Note_off_c, 2, 66, 64
5, 137760, Note_on_c, 2, 63, 127
5, 137760, Note_on_c, 2, 59, 127
5, 137760, Note_on_c, 2, 54, 127
5, 137760, Note_on_c, 2, 69, 127
5, 138000, Note_off_c, 2, 69, 64
5, 138000, Note_on_c, 2, 68, 127
5, 138240, Note_off_c, 2, 68, 64
5, 138240, Note_on_c, 2, 64, 127
5, 138480, Note_off_c, 2, 64, 64
5, 138480, Note_on_c, 2, 59, 127
5, 138540, Note_off_c, 2, 59, 64
5, 138540, Note_on_c, 2, 61, 127
5, 138600, Note_off_c, 2, 61, 64
5, 138720, Note_off_c, 2, 63, 64
5, 138720, Note_off_c, 2, 59, 64
5, 138720, Note_off_c, 2, 54, 64
5, 138720, Note_on_c, 2, 64, 127
5, 138720, Note_on_c, 2, 61, 127
5, 138720, Note_on_c, 2, 57, 127
5, 140160, Note_off_c, 2, 64, 64
5, 140160, Note_off_c, 2, 61, 64
5, 140160, Note_off_c, 2, 57, 64
5, 140160, Note_on_c, 2, 63, 127
5, 140160, Note_on_c, 2, 59, 127
5, 140160, Note_on_c, 2, 56, 127
5, 140220, Note_off_c, 2, 63, 64
5, 140220, Note_off_c, 2, 59, 64
5, 140220, Note_off_c, 2, 56, 64
5, 140400, Note_on_c, 2, 64, 127
5, 140400, Note_on_c, 2, 61, 127
5, 140400, Note_on_c, 2, 59, 127
5, 140400, Note_on_c, 2, 56, 127
5, 141600, Note_off_c, 2, 64, 64
5, 141600, Note_off_c, 2, 61, 64
5, 141600, Note_off_c, 2, 59, 64
5, 141600, Note_off_c, 2, 56, 64
5, 141600, Note_on_c, 2, 63, 127
5, 141600, Note_on_c, 2, 59, 127
5, 141600, Note_on_c, 2, 54, 127
5, 142080, Note_off_c, 2, 63, 64
5, 142080, Note_off_c, 2, 59, 64
5, 142080, Note_off_c, 2, 54, 64
5, 146400, End_track
6, 0, Start_track
6, 0, Instrument_name_t, "SB AWE32 MIDI Synth [62"
6, 0, Title_t, "Choosey Lover"
6, 0, Control_c, 3, 121, 127
6, 2, Program_c, 3, 61
6, 5, Control_c, 3, 91, 127
6, 10, Control_c, 3, 93, 0
6, 15, Control_c, 3, 10, 64
6, 20, Control_c, 3, 7, 100
6, 25, Control_c, 3, 1, 0
6, 30, Control_c, 3, 92, 0
6, 35, Control_c, 3, 94, 0
6, 40, Control_c, 3, 95, 0
6, 95, Copyright_t, "1998 Sequenced by Taro Sato"
6, 3840, Note_on_c, 3, 71, 113
6, 3840, Note_on_c, 3, 59, 113
6, 3840, Note_on_c, 3, 63, 71
6, 3840, Note_on_c, 3, 66, 71
6, 3930, Note_off_c, 3, 71, 64
6, 3930, Note_off_c, 3, 59, 64
6, 3930, Note_off_c, 3, 63, 64
6, 3930, Note_off_c, 3, 66, 64
6, 3960, Note_on_c, 3, 71, 127
6, 3960, Note_on_c, 3, 59, 127
6, 3960, Note_on_c, 3, 63, 127
6, 3960, Note_on_c, 3, 66, 127
6, 4080, Note_off_c, 3, 71, 64
6, 4080, Note_off_c, 3, 59, 64
6, 4080, Note_off_c, 3, 63, 64
6, 4080, Note_off_c, 3, 66, 64
6, 11520, Note_on_c, 3, 71, 113
6, 11520, Note_on_c, 3, 59, 113
6, 11520, Note_on_c, 3, 63, 71
6, 11520, Note_on_c, 3, 66, 71
6, 11610, Note_off_c, 3, 71, 64
6, 11610, Note_off_c, 3, 59, 64
6, 11610, Note_off_c, 3, 63, 64
6, 11610, Note_off_c, 3, 66, 64
6, 11640, Note_on_c, 3, 71, 127
6, 11640, Note_on_c, 3, 59, 127
6, 11640, Note_on_c, 3, 63, 127
6, 11640, Note_on_c, 3, 66, 127
6, 11760, Note_off_c, 3, 71, 64
6, 11760, Note_off_c, 3, 59, 64
6, 11760, Note_off_c, 3, 63, 64
6, 11760, Note_off_c, 3, 66, 64
6, 19200, Note_on_c, 3, 71, 113
6, 19200, Note_on_c, 3, 59, 113
6, 19200, Note_on_c, 3, 63, 71
6, 19200, Note_on_c, 3, 66, 71
6, 19290, Note_off_c, 3, 71, 64
6, 19290, Note_off_c, 3, 59, 64
6, 19290, Note_off_c, 3, 63, 64
6, 19290, Note_off_c, 3, 66, 64
6, 19320, Note_on_c, 3, 71, 127
6, 19320, Note_on_c, 3, 59, 127
6, 19320, Note_on_c, 3, 63, 127
6, 19320, Note_on_c, 3, 66, 127
6, 19440, Note_off_c, 3, 71, 64
6, 19440, Note_off_c, 3, 59, 64
6, 19440, Note_off_c, 3, 63, 64
6, 19440, Note_off_c, 3, 66, 64
6, 26880, Note_on_c, 3, 71, 113
6, 26880, Note_on_c, 3, 59, 113
6, 26880, Note_on_c, 3, 63, 71
6, 26880, Note_on_c, 3, 66, 71
6, 26970, Note_off_c, 3, 71, 64
6, 26970, Note_off_c, 3, 59, 64
6, 26970, Note_off_c, 3, 63, 64
6, 26970, Note_off_c, 3, 66, 64
6, 27000, Note_on_c, 3, 71, 127
6, 27000, Note_on_c, 3, 59, 127
6, 27000, Note_on_c, 3, 63, 127
6, 27000, Note_on_c, 3, 66, 127
6, 27120, Note_off_c, 3, 71, 64
6, 27120, Note_off_c, 3, 59, 64
6, 27120, Note_off_c, 3, 63, 64
6, 27120, Note_off_c, 3, 66, 64
6, 34560, Note_on_c, 3, 71, 113
6, 34560, Note_on_c, 3, 59, 113
6, 34560, Note_on_c, 3, 63, 71
6, 34560, Note_on_c, 3, 66, 71
6, 34650, Note_off_c, 3, 71, 64
6, 34650, Note_off_c, 3, 59, 64
6, 34650, Note_off_c, 3, 63, 64
6, 34650, Note_off_c, 3, 66, 64
6, 34680, Note_on_c, 3, 71, 127
6, 34680, Note_on_c, 3, 59, 127
6, 34680, Note_on_c, 3, 63, 127
6, 34680, Note_on_c, 3, 66, 127
6, 34800, Note_off_c, 3, 71, 64
6, 34800, Note_off_c, 3, 59, 64
6, 34800, Note_off_c, 3, 63, 64
6, 34800, Note_off_c, 3, 66, 64
6, 42240, Note_on_c, 3, 71, 113
6, 42240, Note_on_c, 3, 59, 113
6, 42240, Note_on_c, 3, 63, 71
6, 42240, Note_on_c, 3, 66, 71
6, 42330, Note_off_c, 3, 71, 64
6, 42330, Note_off_c, 3, 59, 64
6, 42330, Note_off_c, 3, 63, 64
6, 42330, Note_off_c, 3, 66, 64
6, 42360, Note_on_c, 3, 71, 127
6, 42360, Note_on_c, 3, 59, 127
6, 42360, Note_on_c, 3, 63, 127
6, 42360, Note_on_c, 3, 66, 127
6, 42480, Note_off_c, 3, 71, 64
6, 42480, Note_off_c, 3, 59, 64
6, 42480, Note_off_c, 3, 63, 64
6, 42480, Note_off_c, 3, 66, 64
6, 49920, Note_on_c, 3, 71, 113
6, 49920, Note_on_c, 3, 59, 113
6, 49920, Note_on_c, 3, 63, 71
6, 49920, Note_on_c, 3, 66, 71
6, 50010, Note_off_c, 3, 71, 64
6, 50010, Note_off_c, 3, 59, 64
6, 50010, Note_off_c, 3, 63, 64
6, 50010, Note_off_c, 3, 66, 64
6, 50040, Note_on_c, 3, 71, 127
6, 50040, Note_on_c, 3, 59, 127
6, 50040, Note_on_c, 3, 63, 127
6, 50040, Note_on_c, 3, 66, 127
6, 50160, Note_off_c, 3, 71, 64
6, 50160, Note_off_c, 3, 59, 64
6, 50160, Note_off_c, 3, 63, 64
6, 50160, Note_off_c, 3, 66, 64
6, 57600, Note_on_c, 3, 71, 113
6, 57600, Note_on_c, 3, 59, 113
6, 57600, Note_on_c, 3, 63, 71
6, 57600, Note_on_c, 3, 66, 71
6, 57690, Note_off_c, 3, 71, 64
6, 57690, Note_off_c, 3, 59, 64
6, 57690, Note_off_c, 3, 63, 64
6, 57690, Note_off_c, 3, 66, 64
6, 57720, Note_on_c, 3, 71, 127
6, 57720, Note_on_c, 3, 59, 127
6, 57720, Note_on_c, 3, 63, 127
6, 57720, Note_on_c, 3, 66, 127
6, 57840, Note_off_c, 3, 71, 64
6, 57840, Note_off_c, 3, 59, 64
6, 57840, Note_off_c, 3, 63, 64
6, 57840, Note_off_c, 3, 66, 64
6, 65280, Note_on_c, 3, 71, 113
6, 65280, Note_on_c, 3, 59, 113
6, 65280, Note_on_c, 3, 63, 71
6, 65280, Note_on_c, 3, 66, 71
6, 65370, Note_off_c, 3, 71, 64
6, 65370, Note_off_c, 3, 59, 64
6, 65370, Note_off_c, 3, 63, 64
6, 65370, Note_off_c, 3, 66, 64
6, 65400, Note_on_c, 3, 71, 127
6, 65400, Note_on_c, 3, 59, 127
6, 65400, Note_on_c, 3, 63, 127
6, 65400, Note_on_c, 3, 66, 127
6, 65520, Note_off_c, 3, 71, 64
6, 65520, Note_off_c, 3, 59, 64
6, 65520, Note_off_c, 3, 63, 64
6, 65520, Note_off_c, 3, 66, 64
6, 72960, Note_on_c, 3, 71, 113
6, 72960, Note_on_c, 3, 59, 113
6, 72960, Note_on_c, 3, 63, 71
6, 72960, Note_on_c, 3, 66, 71
6, 73050, Note_off_c, 3, 71, 64
6, 73050, Note_off_c, 3, 59, 64
6, 73050, Note_off_c, 3, 63, 64
6, 73050, Note_off_c, 3, 66, 64
6, 73080, Note_on_c, 3, 71, 127
6, 73080, Note_on_c, 3, 59, 127
6, 73080, Note_on_c, 3, 63, 127
6, 73080, Note_on_c, 3, 66, 127
6, 73200, Note_off_c, 3, 71, 64
6, 73200, Note_off_c, 3, 59, 64
6, 73200, Note_off_c, 3, 63, 64
6, 73200, Note_off_c, 3, 66, 64
6, 88320, Note_on_c, 3, 71, 113
6, 88320, Note_on_c, 3, 59, 113
6, 88320, Note_on_c, 3, 63, 71
6, 88320, Note_on_c, 3, 66, 71
6, 88410, Note_off_c, 3, 71, 64
6, 88410, Note_off_c, 3, 59, 64
6, 88410, Note_off_c, 3, 63, 64
6, 88410, Note_off_c, 3, 66, 64
6, 88440, Note_on_c, 3, 71, 127
6, 88440, Note_on_c, 3, 59, 127
6, 88440, Note_on_c, 3, 63, 127
6, 88440, Note_on_c, 3, 66, 127
6, 88560, Note_off_c, 3, 71, 64
6, 88560, Note_off_c, 3, 59, 64
6, 88560, Note_off_c, 3, 63, 64
6, 88560, Note_off_c, 3, 66, 64
6, 96000, Note_on_c, 3, 71, 113
6, 96000, Note_on_c, 3, 59, 113
6, 96000, Note_on_c, 3, 63, 71
6, 96000, Note_on_c, 3, 66, 71
6, 96090, Note_off_c, 3, 71, 64
6, 96090, Note_off_c, 3, 59, 64
6, 96090, Note_off_c, 3, 63, 64
6, 96090, Note_off_c, 3, 66, 64
6, 96120, Note_on_c, 3, 71, 127
6, 96120, Note_on_c, 3, 59, 127
6, 96120, Note_on_c, 3, 63, 127
6, 96120, Note_on_c, 3, 66, 127
6, 96240, Note_off_c, 3, 71, 64
6, 96240, Note_off_c, 3, 59, 64
6, 96240, Note_off_c, 3, 63, 64
6, 96240, Note_off_c, 3, 66, 64
6, 103680, Note_on_c, 3, 71, 113
6, 103680, Note_on_c, 3, 59, 113
6, 103680, Note_on_c, 3, 63, 71
6, 103680, Note_on_c, 3, 66, 71
6, 103770, Note_off_c, 3, 71, 64
6, 103770, Note_off_c, 3, 59, 64
6, 103770, Note_off_c, 3, 63, 64
6, 103770, Note_off_c, 3, 66, 64
6, 103800, Note_on_c, 3, 71, 127
6, 103800, Note_on_c, 3, 59, 127
6, 103800, Note_on_c, 3, 63, 127
6, 103800, Note_on_c, 3, 66, 127
6, 103920, Note_off_c, 3, 71, 64
6, 103920, Note_off_c, 3, 59, 64
6, 103920, Note_off_c, 3, 63, 64
6, 103920, Note_off_c, 3, 66, 64
6, 111360, Note_on_c, 3, 71, 113
6, 111360, Note_on_c, 3, 59, 113
6, 111360, Note_on_c, 3, 63, 71
6, 111360, Note_on_c, 3, 66, 71
6, 111450, Note_off_c, 3, 71, 64
6, 111450, Note_off_c, 3, 59, 64
6, 111450, Note_off_c, 3, 63, 64
6, 111450, Note_off_c, 3, 66, 64
6, 111480, Note_on_c, 3, 71, 127
6, 111480, Note_on_c, 3, 59, 127
6, 111480, Note_on_c, 3, 63, 127
6, 111480, Note_on_c, 3, 66, 127
6, 111600, Note_off_c, 3, 71, 64
6, 111600, Note_off_c, 3, 59, 64
6, 111600, Note_off_c, 3, 63, 64
6, 111600, Note_off_c, 3, 66, 64
6, 119040, Note_on_c, 3, 71, 113
6, 119040, Note_on_c, 3, 59, 113
6, 119040, Note_on_c, 3, 63, 71
6, 119040, Note_on_c, 3, 66, 71
6, 119130, Note_off_c, 3, 71, 64
6, 119130, Note_off_c, 3, 59, 64
6, 119130, Note_off_c, 3, 63, 64
6, 119130, Note_off_c, 3, 66, 64
6, 119160, Note_on_c, 3, 71, 127
6, 119160, Note_on_c, 3, 59, 127
6, 119160, Note_on_c, 3, 63, 127
6, 119160, Note_on_c, 3, 66, 127
6, 119280, Note_off_c, 3, 71, 64
6, 119280, Note_off_c, 3, 59, 64
6, 119280, Note_off_c, 3, 63, 64
6, 119280, Note_off_c, 3, 66, 64
6, 126720, Note_on_c, 3, 71, 113
6, 126720, Note_on_c, 3, 59, 113
6, 126720, Note_on_c, 3, 63, 71
6, 126720, Note_on_c, 3, 66, 71
6, 126810, Note_off_c, 3, 71, 64
6, 126810, Note_off_c, 3, 59, 64
6, 126810, Note_off_c, 3, 63, 64
6, 126810, Note_off_c, 3, 66, 64
6, 126840, Note_on_c, 3, 71, 127
6, 126840, Note_on_c, 3, 59, 127
6, 126840, Note_on_c, 3, 63, 127
6, 126840, Note_on_c, 3, 66, 127
6, 126960, Note_off_c, 3, 71, 64
6, 126960, Note_off_c, 3, 59, 64
6, 126960, Note_off_c, 3, 63, 64
6, 126960, Note_off_c, 3, 66, 64
6, 134400, Note_on_c, 3, 71, 113
6, 134400, Note_on_c, 3, 59, 113
6, 134400, Note_on_c, 3, 63, 71
6, 134400, Note_on_c, 3, 66, 71
6, 134490, Note_off_c, 3, 71, 64
6, 134490, Note_off_c, 3, 59, 64
6, 134490, Note_off_c, 3, 63, 64
6, 134490, Note_off_c, 3, 66, 64
6, 134520, Note_on_c, 3, 71, 127
6, 134520, Note_on_c, 3, 59, 127
6, 134520, Note_on_c, 3, 63, 127
6, 134520, Note_on_c, 3, 66, 127
6, 134640, Note_off_c, 3, 71, 64
6, 134640, Note_off_c, 3, 59, 64
6, 134640, Note_off_c, 3, 63, 64
6, 134640, Note_off_c, 3, 66, 64
6, 142080, Note_on_c, 3, 71, 113
6, 142080, Note_on_c, 3, 59, 113
6, 142080, Note_on_c, 3, 63, 71
6, 142080, Note_on_c, 3, 66, 71
6, 142170, Note_off_c, 3, 71, 64
6, 142170, Note_off_c, 3, 59, 64
6, 142170, Note_off_c, 3, 63, 64
6, 142170, Note_off_c, 3, 66, 64
6, 142200, Note_on_c, 3, 71, 127
6, 142200, Note_on_c, 3, 59, 127
6, 142200, Note_on_c, 3, 63, 127
6, 142200, Note_on_c, 3, 66, 127
6, 142320, Note_off_c, 3, 71, 64
6, 142320, Note_off_c, 3, 59, 64
6, 142320, Note_off_c, 3, 63, 64
6, 142320, Note_off_c, 3, 66, 64
6, 142560, Note_on_c, 3, 71, 113
6, 142560, Note_on_c, 3, 59, 113
6, 142560, Note_on_c, 3, 63, 71
6, 142560, Note_on_c, 3, 66, 71
6, 142650, Note_off_c, 3, 71, 64
6, 142650, Note_off_c, 3, 59, 64
6, 142650, Note_off_c, 3, 63, 64
6, 142650, Note_off_c, 3, 66, 64
6, 142680, Note_on_c, 3, 71, 127
6, 142680, Note_on_c, 3, 59, 127
6, 142680, Note_on_c, 3, 63, 127
6, 142680, Note_on_c, 3, 66, 127
6, 142800, Note_off_c, 3, 71, 64
6, 142800, Note_off_c, 3, 59, 64
6, 142800, Note_off_c, 3, 63, 64
6, 142800, Note_off_c, 3, 66, 64
6, 143040, Note_on_c, 3, 71, 113
6, 143040, Note_on_c, 3, 59, 113
6, 143040, Note_on_c, 3, 63, 71
6, 143040, Note_on_c, 3, 66, 71
6, 143130, Note_off_c, 3, 71, 64
6, 143130, Note_off_c, 3, 59, 64
6, 143130, Note_off_c, 3, 63, 64
6, 143130, Note_off_c, 3, 66, 64
6, 143160, Note_on_c, 3, 71, 127
6, 143160, Note_on_c, 3, 59, 127
6, 143160, Note_on_c, 3, 63, 127
6, 143160, Note_on_c, 3, 66, 127
6, 143280, Note_off_c, 3, 71, 64
6, 143280, Note_off_c, 3, 59, 64
6, 143280, Note_off_c, 3, 63, 64
6, 143280, Note_off_c, 3, 66, 64
6, 143520, Note_on_c, 3, 71, 113
6, 143520, Note_on_c, 3, 59, 113
6, 143520, Note_on_c, 3, 63, 71
6, 143520, Note_on_c, 3, 66, 71
6, 143610, Note_off_c, 3, 71, 64
6, 143610, Note_off_c, 3, 59, 64
6, 143610, Note_off_c, 3, 63, 64
6, 143610, Note_off_c, 3, 66, 64
6, 143640, Note_on_c, 3, 71, 127
6, 143640, Note_on_c, 3, 59, 127
6, 143640, Note_on_c, 3, 63, 127
6, 143640, Note_on_c, 3, 66, 127
6, 143760, Note_off_c, 3, 71, 64
6, 143760, Note_off_c, 3, 59, 64
6, 143760, Note_off_c, 3, 63, 64
6, 143760, Note_off_c, 3, 66, 64
6, 146400, End_track
7, 0, Start_track
7, 0, Instrument_name_t, "SB AWE32 MIDI Synth [62"
7, 0, Title_t, "Choosey Lover"
7, 0, Control_c, 4, 121, 127
7, 2, Program_c, 4, 25
7, 5, Control_c, 4, 7, 100
7, 10, Control_c, 4, 10, 0
7, 15, Control_c, 4, 1, 0
7, 20, Control_c, 4, 91, 0
7, 25, Control_c, 4, 92, 0
7, 30, Control_c, 4, 94, 0
7, 35, Control_c, 4, 95, 0
7, 40, Control_c, 4, 93, 0
7, 95, Copyright_t, "1998 Sequenced by Taro Sato"
7, 4320, Note_on_c, 4, 61, 127
7, 4329, Note_on_c, 4, 64, 127
7, 4338, Note_on_c, 4, 69, 79
7, 5040, Note_off_c, 4, 61, 64
7, 5040, Note_off_c, 4, 64, 64
7, 5040, Note_off_c, 4, 69, 64
7, 5040, Note_on_c, 4, 61, 127
7, 5049, Note_on_c, 4, 64, 97
7, 5058, Note_on_c, 4, 69, 55
7, 5280, Note_off_c, 4, 61, 64
7, 5280, Note_off_c, 4, 69, 64
7, 5280, Note_on_c, 4, 69, 127
7, 5283, Note_off_c, 4, 64, 64
7, 5289, Note_on_c, 4, 64, 127
7, 5298, Note_on_c, 4, 61, 79
7, 5520, Note_off_c, 4, 69, 64
7, 5520, Note_off_c, 4, 64, 64
7, 5520, Note_off_c, 4, 61, 64
7, 5520, Note_on_c, 4, 61, 127
7, 5529, Note_on_c, 4, 64, 97
7, 5538, Note_on_c, 4, 69, 55
7, 5760, Note_off_c, 4, 61, 64
7, 5760, Note_off_c, 4, 64, 64
7, 5760, Note_off_c, 4, 69, 64
7, 6000, Note_on_c, 4, 61, 127
7, 6009, Note_on_c, 4, 64, 127
7, 6018, Note_on_c, 4, 68, 79
7, 7020, Note_off_c, 4, 61, 64
7, 7020, Note_off_c, 4, 64, 64
7, 7020, Note_off_c, 4, 68, 64
7, 8160, Note_on_c, 4, 61, 127
7, 8169, Note_on_c, 4, 64, 127
7, 8178, Note_on_c, 4, 69, 79
7, 8880, Note_off_c, 4, 61, 64
7, 8880, Note_off_c, 4, 64, 64
7, 8880, Note_off_c, 4, 69, 64
7, 8880, Note_on_c, 4, 61, 127
7, 8889, Note_on_c, 4, 64, 97
7, 8898, Note_on_c, 4, 69, 55
7, 9120, Note_off_c, 4, 61, 64
7, 9120, Note_off_c, 4, 69, 64
7, 9120, Note_on_c, 4, 69, 127
7, 9123, Note_off_c, 4, 64, 64
7, 9129, Note_on_c, 4, 64, 127
7, 9138, Note_on_c, 4, 61, 79
7, 9360, Note_off_c, 4, 69, 64
7, 9360, Note_off_c, 4, 64, 64
7, 9360, Note_off_c, 4, 61, 64
7, 9360, Note_on_c, 4, 61, 127
7, 9369, Note_on_c, 4, 64, 97
7, 9378, Note_on_c, 4, 69, 55
7, 9600, Note_off_c, 4, 61, 64
7, 9600, Note_off_c, 4, 64, 64
7, 9600, Note_off_c, 4, 69, 64
7, 9840, Note_on_c, 4, 61, 127
7, 9849, Note_on_c, 4, 64, 127
7, 9858, Note_on_c, 4, 68, 79
7, 11040, Note_off_c, 4, 61, 64
7, 11040, Note_off_c, 4, 64, 64
7, 11040, Note_off_c, 4, 68, 64
7, 11040, Note_on_c, 4, 59, 127
7, 11049, Note_on_c, 4, 63, 127
7, 11058, Note_on_c, 4, 66, 79
7, 11520, Note_off_c, 4, 59, 64
7, 11529, Note_off_c, 4, 63, 64
7, 11538, Note_off_c, 4, 66, 64
7, 12000, Note_on_c, 4, 61, 127
7, 12009, Note_on_c, 4, 64, 127
7, 12018, Note_on_c, 4, 69, 79
7, 12720, Note_off_c, 4, 61, 64
7, 12720, Note_off_c, 4, 64, 64
7, 12720, Note_off_c, 4, 69, 64
7, 12720, Note_on_c, 4, 61, 127
7, 12729, Note_on_c, 4, 64, 97
7, 12738, Note_on_c, 4, 69, 55
7, 12960, Note_off_c, 4, 61, 64
7, 12960, Note_off_c, 4, 69, 64
7, 12960, Note_on_c, 4, 69, 127
7, 12963, Note_off_c, 4, 64, 64
7, 12969, Note_on_c, 4, 64, 127
7, 12978, Note_on_c, 4, 61, 79
7, 13200, Note_off_c, 4, 69, 64
7, 13200, Note_off_c, 4, 64, 64
7, 13200, Note_off_c, 4, 61, 64
7, 13200, Note_on_c, 4, 61, 127
7, 13209, Note_on_c, 4, 64, 97
7, 13218, Note_on_c, 4, 69, 55
7, 13440, Note_off_c, 4, 61, 64
7, 13440, Note_off_c, 4, 64, 64
7, 13440, Note_off_c, 4, 69, 64
7, 13680, Note_on_c, 4, 61, 127
7, 13689, Note_on_c, 4, 64, 127
7, 13698, Note_on_c, 4, 68, 79
7, 14880, Note_off_c, 4, 61, 64
7, 14880, Note_off_c, 4, 64, 64
7, 14880, Note_off_c, 4, 68, 64
7, 15840, Note_on_c, 4, 61, 127
7, 15849, Note_on_c, 4, 64, 127
7, 15858, Note_on_c, 4, 69, 79
7, 16560, Note_off_c, 4, 61, 64
7, 16560, Note_off_c, 4, 64, 64
7, 16560, Note_off_c, 4, 69, 64
7, 16560, Note_on_c, 4, 61, 127
7, 16569, Note_on_c, 4, 64, 97
7, 16578, Note_on_c, 4, 69, 55
7, 16800, Note_off_c, 4, 61, 64
7, 16800, Note_off_c, 4, 69, 64
7, 16800, Note_on_c, 4, 69, 127
7, 16803, Note_off_c, 4, 64, 64
7, 16809, Note_on_c, 4, 64, 127
7, 16818, Note_on_c, 4, 61, 79
7, 17040, Note_off_c, 4, 69, 64
7, 17040, Note_off_c, 4, 64, 64
7, 17040, Note_off_c, 4, 61, 64
7, 17040, Note_on_c, 4, 61, 127
7, 17049, Note_on_c, 4, 64, 97
7, 17058, Note_on_c, 4, 69, 55
7, 17280, Note_off_c, 4, 61, 64
7, 17280, Note_off_c, 4, 64, 64
7, 17280, Note_off_c, 4, 69, 64
7, 17520, Note_on_c, 4, 61, 127
7, 17529, Note_on_c, 4, 64, 127
7, 17538, Note_on_c, 4, 68, 79
7, 18720, Note_off_c, 4, 61, 64
7, 18720, Note_off_c, 4, 64, 64
7, 18720, Note_off_c, 4, 68, 64
7, 18720, Note_on_c, 4, 59, 127
7, 18729, Note_on_c, 4, 63, 127
7, 18738, Note_on_c, 4, 66, 79
7, 19200, Note_off_c, 4, 59, 64
7, 19209, Note_off_c, 4, 63, 64
7, 19218, Note_off_c, 4, 66, 64
7, 19680, Note_on_c, 4, 61, 127
7, 19689, Note_on_c, 4, 64, 127
7, 19698, Note_on_c, 4, 69, 79
7, 20400, Note_off_c, 4, 61, 64
7, 20400, Note_off_c, 4, 64, 64
7, 20400, Note_off_c, 4, 69, 64
7, 20400, Note_on_c, 4, 61, 127
7, 20409, Note_on_c, 4, 64, 97
7, 20418, Note_on_c, 4, 69, 55
7, 20640, Note_off_c, 4, 61, 64
7, 20640, Note_off_c, 4, 69, 64
7, 20640, Note_on_c, 4, 69, 127
7, 20643, Note_off_c, 4, 64, 64
7, 20649, Note_on_c, 4, 64, 127
7, 20658, Note_on_c, 4, 61, 79
7, 20880, Note_off_c, 4, 69, 64
7, 20880, Note_off_c, 4, 64, 64
7, 20880, Note_off_c, 4, 61, 64
7, 20880, Note_on_c, 4, 61, 127
7, 20889, Note_on_c, 4, 64, 97
7, 20898, Note_on_c, 4, 69, 55
7, 21120, Note_off_c, 4, 61, 64
7, 21120, Note_off_c, 4, 64, 64
7, 21120, Note_off_c, 4, 69, 64
7, 21360, Note_on_c, 4, 61, 127
7, 21369, Note_on_c, 4, 64, 127
7, 21378, Note_on_c, 4, 68, 79
7, 22560, Note_off_c, 4, 61, 64
7, 22560, Note_off_c, 4, 64, 64
7, 22560, Note_off_c, 4, 68, 64
7, 23520, Note_on_c, 4, 61, 127
7, 23529, Note_on_c, 4, 64, 127
7, 23538, Note_on_c, 4, 69, 79
7, 24240, Note_off_c, 4, 61, 64
7, 24240, Note_off_c, 4, 64, 64
7, 24240, Note_off_c, 4, 69, 64
7, 24240, Note_on_c, 4, 61, 127
7, 24249, Note_on_c, 4, 64, 97
7, 24258, Note_on_c, 4, 69, 55
7, 24480, Note_off_c, 4, 61, 64
7, 24480, Note_off_c, 4, 69, 64
7, 24480, Note_on_c, 4, 69, 127
7, 24483, Note_off_c, 4, 64, 64
7, 24489, Note_on_c, 4, 64, 127
7, 24498, Note_on_c, 4, 61, 79
7, 24720, Note_off_c, 4, 69, 64
7, 24720, Note_off_c, 4, 64, 64
7, 24720, Note_off_c, 4, 61, 64
7, 24720, Note_on_c, 4, 61, 127
7, 24729, Note_on_c, 4, 64, 97
7, 24738, Note_on_c, 4, 69, 55
7, 24960, Note_off_c, 4, 61, 64
7, 24960, Note_off_c, 4, 64, 64
7, 24960, Note_off_c, 4, 69, 64
7, 25200, Note_on_c, 4, 61, 127
7, 25209, Note_on_c, 4, 64, 127
7, 25218, Note_on_c, 4, 68, 79
7, 26400, Note_off_c, 4, 61, 64
7, 26400, Note_off_c, 4, 64, 64
7, 26400, Note_off_c, 4, 68, 64
7, 26400, Note_on_c, 4, 59, 127
7, 26409, Note_on_c, 4, 63, 127
7, 26418, Note_on_c, 4, 66, 79
7, 26880, Note_off_c, 4, 59, 64
7, 26889, Note_off_c, 4, 63, 64
7, 26898, Note_off_c, 4, 66, 64
7, 27360, Note_on_c, 4, 61, 127
7, 27369, Note_on_c, 4, 64, 127
7, 27378, Note_on_c, 4, 69, 79
7, 28080, Note_off_c, 4, 61, 64
7, 28080, Note_off_c, 4, 64, 64
7, 28080, Note_off_c, 4, 69, 64
7, 28080, Note_on_c, 4, 61, 127
7, 28089, Note_on_c, 4, 64, 97
7, 28098, Note_on_c, 4, 69, 55
7, 28320, Note_off_c, 4, 61, 64
7, 28320, Note_off_c, 4, 69, 64
7, 28320, Note_on_c, 4, 69, 127
7, 28323, Note_off_c, 4, 64, 64
7, 28329, Note_on_c, 4, 64, 127
7, 28338, Note_on_c, 4, 61, 79
7, 28560, Note_off_c, 4, 69, 64
7, 28560, Note_off_c, 4, 64, 64
7, 28560, Note_off_c, 4, 61, 64
7, 28560, Note_on_c, 4, 61, 127
7, 28569, Note_on_c, 4, 64, 97
7, 28578, Note_on_c, 4, 69, 55
7, 28800, Note_off_c, 4, 61, 64
7, 28800, Note_off_c, 4, 64, 64
7, 28800, Note_off_c, 4, 69, 64
7, 29040, Note_on_c, 4, 61, 127
7, 29049, Note_on_c, 4, 64, 127
7, 29058, Note_on_c, 4, 68, 79
7, 30240, Note_off_c, 4, 61, 64
7, 30240, Note_off_c, 4, 64, 64
7, 30240, Note_off_c, 4, 68, 64
7, 31200, Note_on_c, 4, 61, 127
7, 31209, Note_on_c, 4, 64, 127
7, 31218, Note_on_c, 4, 69, 79
7, 31920, Note_off_c, 4, 61, 64
7, 31920, Note_off_c, 4, 64, 64
7, 31920, Note_off_c, 4, 69, 64
7, 31920, Note_on_c, 4, 61, 127
7, 31929, Note_on_c, 4, 64, 97
7, 31938, Note_on_c, 4, 69, 55
7, 32160, Note_off_c, 4, 61, 64
7, 32160, Note_off_c, 4, 69, 64
7, 32160, Note_on_c, 4, 69, 127
7, 32163, Note_off_c, 4, 64, 64
7, 32169, Note_on_c, 4, 64, 127
7, 32178, Note_on_c, 4, 61, 79
7, 32400, Note_off_c, 4, 69, 64
7, 32400, Note_off_c, 4, 64, 64
7, 32400, Note_off_c, 4, 61, 64
7, 32400, Note_on_c, 4, 61, 127
7, 32409, Note_on_c, 4, 64, 97
7, 32418, Note_on_c, 4, 69, 55
7, 32640, Note_off_c, 4, 61, 64
7, 32640, Note_off_c, 4, 64, 64
7, 32640, Note_off_c, 4, 69, 64
7, 32880, Note_on_c, 4, 61, 127
7, 32889, Note_on_c, 4, 64, 127
7, 32898, Note_on_c, 4, 68, 79
7, 34080, Note_off_c, 4, 61, 64
7, 34080, Note_off_c, 4, 64, 64
7, 34080, Note_off_c, 4, 68, 64
7, 34080, Note_on_c, 4, 59, 127
7, 34089, Note_on_c, 4, 63, 127
7, 34098, Note_on_c, 4, 66, 79
7, 34560, Note_off_c, 4, 59, 64
7, 34569, Note_off_c, 4, 63, 64
7, 34578, Note_off_c, 4, 66, 64
7, 35040, Note_on_c, 4, 61, 127
7, 35049, Note_on_c, 4, 64, 127
7, 35058, Note_on_c, 4, 69, 79
7, 35760, Note_off_c, 4, 61, 64
7, 35760, Note_off_c, 4, 64, 64
7, 35760, Note_off_c, 4, 69, 64
7, 35760, Note_on_c, 4, 61, 127
7, 35769, Note_on_c, 4, 64, 97
7, 35778, Note_on_c, 4, 69, 55
7, 36000, Note_off_c, 4, 61, 64
7, 36000, Note_off_c, 4, 69, 64
7, 36000, Note_on_c, 4, 69, 127
7, 36003, Note_off_c, 4, 64, 64
7, 36009, Note_on_c, 4, 64, 127
7, 36018, Note_on_c, 4, 61, 79
7, 36240, Note_off_c, 4, 69, 64
7, 36240, Note_off_c, 4, 64, 64
7, 36240, Note_off_c, 4, 61, 64
7, 36240, Note_on_c, 4, 61, 127
7, 36249, Note_on_c, 4, 64, 97
7, 36258, Note_on_c, 4, 69, 55
7, 36480, Note_off_c, 4, 61, 64
7, 36480, Note_off_c, 4, 64, 64
7, 36480, Note_off_c, 4, 69, 64
7, 36720, Note_on_c, 4, 61, 127
7, 36729, Note_on_c, 4, 64, 127
7, 36738, Note_on_c, 4, 68, 79
7, 37920, Note_off_c, 4, 61, 64
7, 37920, Note_off_c, 4, 64, 64
7, 37920, Note_off_c, 4, 68, 64
7, 38880, Note_on_c, 4, 61, 127
7, 38889, Note_on_c, 4, 64, 127
7, 38898, Note_on_c, 4, 69, 79
7, 39600, Note_off_c, 4, 61, 64
7, 39600, Note_off_c, 4, 64, 64
7, 39600, Note_off_c, 4, 69, 64
7, 39600, Note_on_c, 4, 61, 127
7, 39609, Note_on_c, 4, 64, 97
7, 39618, Note_on_c, 4, 69, 55
7, 39840, Note_off_c, 4, 61, 64
7, 39840, Note_off_c, 4, 69, 64
7, 39840, Note_on_c, 4, 69, 127
7, 39843, Note_off_c, 4, 64, 64
7, 39849, Note_on_c, 4, 64, 127
7, 39858, Note_on_c, 4, 61, 79
7, 40080, Note_off_c, 4, 69, 64
7, 40080, Note_off_c, 4, 64, 64
7, 40080, Note_off_c, 4, 61, 64
7, 40080, Note_on_c, 4, 61, 127
7, 40089, Note_on_c, 4, 64, 97
7, 40098, Note_on_c, 4, 69, 55
7, 40320, Note_off_c, 4, 61, 64
7, 40320, Note_off_c, 4, 64, 64
7, 40320, Note_off_c, 4, 69, 64
7, 40560, Note_on_c, 4, 61, 127
7, 40569, Note_on_c, 4, 64, 127
7, 40578, Note_on_c, 4, 68, 79
7, 41760, Note_off_c, 4, 61, 64
7, 41760, Note_off_c, 4, 64, 64
7, 41760, Note_off_c, 4, 68, 64
7, 41760, Note_on_c, 4, 59, 127
7, 41769, Note_on_c, 4, 63, 127
7, 41778, Note_on_c, 4, 66, 79
7, 42240, Note_off_c, 4, 59, 64
7, 42249, Note_off_c, 4, 63, 64
7, 42258, Note_off_c, 4, 66, 64
7, 42720, Note_on_c, 4, 61, 127
7, 42729, Note_on_c, 4, 64, 127
7, 42738, Note_on_c, 4, 69, 79
7, 43440, Note_off_c, 4, 61, 64
7, 43440, Note_off_c, 4, 64, 64
7, 43440, Note_off_c, 4, 69, 64
7, 43440, Note_on_c, 4, 61, 127
7, 43449, Note_on_c, 4, 64, 97
7, 43458, Note_on_c, 4, 69, 55
7, 43680, Note_off_c, 4, 61, 64
7, 43680, Note_off_c, 4, 69, 64
7, 43680, Note_on_c, 4, 69, 127
7, 43683, Note_off_c, 4, 64, 64
7, 43689, Note_on_c, 4, 64, 127
7, 43698, Note_on_c, 4, 61, 79
7, 43920, Note_off_c, 4, 69, 64
7, 43920, Note_off_c, 4, 64, 64
7, 43920, Note_off_c, 4, 61, 64
7, 43920, Note_on_c, 4, 61, 127
7, 43929, Note_on_c, 4, 64, 97
7, 43938, Note_on_c, 4, 69, 55
7, 44160, Note_off_c, 4, 61, 64
7, 44160, Note_off_c, 4, 64, 64
7, 44160, Note_off_c, 4, 69, 64
7, 44400, Note_on_c, 4, 61, 127
7, 44409, Note_on_c, 4, 64, 127
7, 44418, Note_on_c, 4, 68, 79
7, 45600, Note_off_c, 4, 61, 64
7, 45600, Note_off_c, 4, 64, 64
7, 45600, Note_off_c, 4, 68, 64
7, 46560, Note_on_c, 4, 61, 127
7, 46569, Note_on_c, 4, 64, 127
7, 46578, Note_on_c, 4, 69, 79
7, 47280, Note_off_c, 4, 61, 64
7, 47280, Note_off_c, 4, 64, 64
7, 47280, Note_off_c, 4, 69, 64
7, 47280, Note_on_c, 4, 61, 127
7, 47289, Note_on_c, 4, 64, 97
7, 47298, Note_on_c, 4, 69, 55
7, 47520, Note_off_c, 4, 61, 64
7, 47520, Note_off_c, 4, 69, 64
7, 47520, Note_on_c, 4, 69, 127
7, 47523, Note_off_c, 4, 64, 64
7, 47529, Note_on_c, 4, 64, 127
7, 47538, Note_on_c, 4, 61, 79
7, 47760, Note_off_c, 4, 69, 64
7, 47760, Note_off_c, 4, 64, 64
7, 47760, Note_off_c, 4, 61, 64
7, 47760, Note_on_c, 4, 61, 127
7, 47769, Note_on_c, 4, 64, 97
7, 47778, Note_on_c, 4, 69, 55
7, 48000, Note_off_c, 4, 61, 64
7, 48000, Note_off_c, 4, 64, 64
7, 48000, Note_off_c, 4, 69, 64
7, 48240, Note_on_c, 4, 61, 127
7, 48249, Note_on_c, 4, 64, 127
7, 48258, Note_on_c, 4, 68, 79
7, 49440, Note_off_c, 4, 61, 64
7, 49440, Note_off_c, 4, 64, 64
7, 49440, Note_off_c, 4, 68, 64
7, 49440, Note_on_c, 4, 59, 127
7, 49449, Note_on_c, 4, 63, 127
7, 49458, Note_on_c, 4, 66, 79
7, 49920, Note_off_c, 4, 59, 64
7, 49929, Note_off_c, 4, 63, 64
7, 49938, Note_off_c, 4, 66, 64
7, 50400, Note_on_c, 4, 61, 127
7, 50409, Note_on_c, 4, 64, 127
7, 50418, Note_on_c, 4, 69, 79
7, 51120, Note_off_c, 4, 61, 64
7, 51120, Note_off_c, 4, 64, 64
7, 51120, Note_off_c, 4, 69, 64
7, 51120, Note_on_c, 4, 61, 127
7, 51129, Note_on_c, 4, 64, 97
7, 51138, Note_on_c, 4, 69, 55
7, 51360, Note_off_c, 4, 61, 64
7, 51360, Note_off_c, 4, 69, 64
7, 51360, Note_on_c, 4, 69, 127
7, 51363, Note_off_c, 4, 64, 64
7, 51369, Note_on_c, 4, 64, 127
7, 51378, Note_on_c, 4, 61, 79
7, 51600, Note_off_c, 4, 69, 64
7, 51600, Note_off_c, 4, 64, 64
7, 51600, Note_off_c, 4, 61, 64
7, 51600, Note_on_c, 4, 61, 127
7, 51609, Note_on_c, 4, 64, 97
7, 51618, Note_on_c, 4, 69, 55
7, 51840, Note_off_c, 4, 61, 64
7, 51840, Note_off_c, 4, 64, 64
7, 51840, Note_off_c, 4, 69, 64
7, 52080, Note_on_c, 4, 61, 127
7, 52089, Note_on_c, 4, 64, 127
7, 52098, Note_on_c, 4, 68, 79
7, 53280, Note_off_c, 4, 61, 64
7, 53280, Note_off_c, 4, 64, 64
7, 53280, Note_off_c, 4, 68, 64
7, 54240, Note_on_c, 4, 61, 127
7, 54249, Note_on_c, 4, 64, 127
7, 54258, Note_on_c, 4, 69, 79
7, 54960, Note_off_c, 4, 61, 64
7, 54960, Note_off_c, 4, 64, 64
7, 54960, Note_off_c, 4, 69, 64
7, 54960, Note_on_c, 4, 61, 127
7, 54969, Note_on_c, 4, 64, 97
7, 54978, Note_on_c, 4, 69, 55
7, 55200, Note_off_c, 4, 61, 64
7, 55200, Note_off_c, 4, 69, 64
7, 55200, Note_on_c, 4, 69, 127
7, 55203, Note_off_c, 4, 64, 64
7, 55209, Note_on_c, 4, 64, 127
7, 55218, Note_on_c, 4, 61, 79
7, 55440, Note_off_c, 4, 69, 64
7, 55440, Note_off_c, 4, 64, 64
7, 55440, Note_off_c, 4, 61, 64
7, 55440, Note_on_c, 4, 61, 127
7, 55449, Note_on_c, 4, 64, 97
7, 55458, Note_on_c, 4, 69, 55
7, 55680, Note_off_c, 4, 61, 64
7, 55680, Note_off_c, 4, 64, 64
7, 55680, Note_off_c, 4, 69, 64
7, 55920, Note_on_c, 4, 61, 127
7, 55929, Note_on_c, 4, 64, 127
7, 55938, Note_on_c, 4, 68, 79
7, 57120, Note_off_c, 4, 61, 64
7, 57120, Note_off_c, 4, 64, 64
7, 57120, Note_off_c, 4, 68, 64
7, 57120, Note_on_c, 4, 59, 127
7, 57129, Note_on_c, 4, 63, 127
7, 57138, Note_on_c, 4, 66, 79
7, 57600, Note_off_c, 4, 59, 64
7, 57609, Note_off_c, 4, 63, 64
7, 57618, Note_off_c, 4, 66, 64
7, 58080, Note_on_c, 4, 61, 127
7, 58089, Note_on_c, 4, 64, 127
7, 58098, Note_on_c, 4, 69, 79
7, 58800, Note_off_c, 4, 61, 64
7, 58800, Note_off_c, 4, 64, 64
7, 58800, Note_off_c, 4, 69, 64
7, 58800, Note_on_c, 4, 61, 127
7, 58809, Note_on_c, 4, 64, 97
7, 58818, Note_on_c, 4, 69, 55
7, 59040, Note_off_c, 4, 61, 64
7, 59040, Note_off_c, 4, 69, 64
7, 59040, Note_on_c, 4, 69, 127
7, 59043, Note_off_c, 4, 64, 64
7, 59049, Note_on_c, 4, 64, 127
7, 59058, Note_on_c, 4, 61, 79
7, 59280, Note_off_c, 4, 69, 64
7, 59280, Note_off_c, 4, 64, 64
7, 59280, Note_off_c, 4, 61, 64
7, 59280, Note_on_c, 4, 61, 127
7, 59289, Note_on_c, 4, 64, 97
7, 59298, Note_on_c, 4, 69, 55
7, 59520, Note_off_c, 4, 61, 64
7, 59520, Note_off_c, 4, 64, 64
7, 59520, Note_off_c, 4, 69, 64
7, 59760, Note_on_c, 4, 61, 127
7, 59769, Note_on_c, 4, 64, 127
7, 59778, Note_on_c, 4, 68, 79
7, 60960, Note_off_c, 4, 61, 64
7, 60960, Note_off_c, 4, 64, 64
7, 60960, Note_off_c, 4, 68, 64
7, 61920, Note_on_c, 4, 61, 127
7, 61929, Note_on_c, 4, 64, 127
7, 61938, Note_on_c, 4, 69, 79
7, 62640, Note_off_c, 4, 61, 64
7, 62640, Note_off_c, 4, 64, 64
7, 62640, Note_off_c, 4, 69, 64
7, 62640, Note_on_c, 4, 61, 127
7, 62649, Note_on_c, 4, 64, 97
7, 62658, Note_on_c, 4, 69, 55
7, 62880, Note_off_c, 4, 61, 64
7, 62880, Note_off_c, 4, 69, 64
7, 62880, Note_on_c, 4, 69, 127
7, 62883, Note_off_c, 4, 64, 64
7, 62889, Note_on_c, 4, 64, 127
7, 62898, Note_on_c, 4, 61, 79
7, 63120, Note_off_c, 4, 69, 64
7, 63120, Note_off_c, 4, 64, 64
7, 63120, Note_off_c, 4, 61, 64
7, 63120, Note_on_c, 4, 61, 127
7, 63129, Note_on_c, 4, 64, 97
7, 63138, Note_on_c, 4, 69, 55
7, 63360, Note_off_c, 4, 61, 64
7, 63360, Note_off_c, 4, 64, 64
7, 63360, Note_off_c, 4, 69, 64
7, 63600, Note_on_c, 4, 61, 127
7, 63609, Note_on_c, 4, 64, 127
7, 63618, Note_on_c, 4, 68, 79
7, 64800, Note_off_c, 4, 61, 64
7, 64800, Note_off_c, 4, 64, 64
7, 64800, Note_off_c, 4, 68, 64
7, 64800, Note_on_c, 4, 59, 127
7, 64809, Note_on_c, 4, 63, 127
7, 64818, Note_on_c, 4, 66, 79
7, 65280, Note_off_c, 4, 59, 64
7, 65289, Note_off_c, 4, 63, 64
7, 65298, Note_off_c, 4, 66, 64
7, 65760, Note_on_c, 4, 61, 127
7, 65769, Note_on_c, 4, 64, 127
7, 65778, Note_on_c, 4, 69, 79
7, 66480, Note_off_c, 4, 61, 64
7, 66480, Note_off_c, 4, 64, 64
7, 66480, Note_off_c, 4, 69, 64
7, 66480, Note_on_c, 4, 61, 127
7, 66489, Note_on_c, 4, 64, 97
7, 66498, Note_on_c, 4, 69, 55
7, 66720, Note_off_c, 4, 61, 64
7, 66720, Note_off_c, 4, 69, 64
7, 66720, Note_on_c, 4, 69, 127
7, 66723, Note_off_c, 4, 64, 64
7, 66729, Note_on_c, 4, 64, 127
7, 66738, Note_on_c, 4, 61, 79
7, 66960, Note_off_c, 4, 69, 64
7, 66960, Note_off_c, 4, 64, 64
7, 66960, Note_off_c, 4, 61, 64
7, 66960, Note_on_c, 4, 61, 127
7, 66969, Note_on_c, 4, 64, 97
7, 66978, Note_on_c, 4, 69, 55
7, 67200, Note_off_c, 4, 61, 64
7, 67200, Note_off_c, 4, 64, 64
7, 67200, Note_off_c, 4, 69, 64
7, 67440, Note_on_c, 4, 61, 127
7, 67449, Note_on_c, 4, 64, 127
7, 67458, Note_on_c, 4, 68, 79
7, 68640, Note_off_c, 4, 61, 64
7, 68640, Note_off_c, 4, 64, 64
7, 68640, Note_off_c, 4, 68, 64
7, 69600, Note_on_c, 4, 61, 127
7, 69609, Note_on_c, 4, 64, 127
7, 69618, Note_on_c, 4, 69, 79
7, 70320, Note_off_c, 4, 61, 64
7, 70320, Note_off_c, 4, 64, 64
7, 70320, Note_off_c, 4, 69, 64
7, 70320, Note_on_c, 4, 61, 127
7, 70329, Note_on_c, 4, 64, 97
7, 70338, Note_on_c, 4, 69, 55
7, 70560, Note_off_c, 4, 61, 64
7, 70560, Note_off_c, 4, 69, 64
7, 70560, Note_on_c, 4, 69, 127
7, 70563, Note_off_c, 4, 64, 64
7, 70569, Note_on_c, 4, 64, 127
7, 70578, Note_on_c, 4, 61, 79
7, 70800, Note_off_c, 4, 69, 64
7, 70800, Note_off_c, 4, 64, 64
7, 70800, Note_off_c, 4, 61, 64
7, 70800, Note_on_c, 4, 61, 127
7, 70809, Note_on_c, 4, 64, 97
7, 70818, Note_on_c, 4, 69, 55
7, 71040, Note_off_c, 4, 61, 64
7, 71040, Note_off_c, 4, 64, 64
7, 71040, Note_off_c, 4, 69, 64
7, 71280, Note_on_c, 4, 61, 127
7, 71289, Note_on_c, 4, 64, 127
7, 71298, Note_on_c, 4, 68, 79
7, 72480, Note_off_c, 4, 61, 64
7, 72480, Note_off_c, 4, 64, 64
7, 72480, Note_off_c, 4, 68, 64
7, 72480, Note_on_c, 4, 59, 127
7, 72489, Note_on_c, 4, 63, 127
7, 72498, Note_on_c, 4, 66, 79
7, 72960, Note_off_c, 4, 59, 64
7, 72969, Note_off_c, 4, 63, 64
7, 72978, Note_off_c, 4, 66, 64
7, 73440, Note_on_c, 4, 61, 127
7, 73449, Note_on_c, 4, 64, 127
7, 73458, Note_on_c, 4, 69, 79
7, 74160, Note_off_c, 4, 61, 64
7, 74160, Note_off_c, 4, 64, 64
7, 74160, Note_off_c, 4, 69, 64
7, 74160, Note_on_c, 4, 61, 127
7, 74169, Note_on_c, 4, 64, 97
7, 74178, Note_on_c, 4, 69, 55
7, 74400, Note_off_c, 4, 61, 64
7, 74400, Note_off_c, 4, 69, 64
7, 74400, Note_on_c, 4, 69, 127
7, 74403, Note_off_c, 4, 64, 64
7, 74409, Note_on_c, 4, 64, 127
7, 74418, Note_on_c, 4, 61, 79
7, 74640, Note_off_c, 4, 69, 64
7, 74640, Note_off_c, 4, 64, 64
7, 74640, Note_off_c, 4, 61, 64
7, 74640, Note_on_c, 4, 61, 127
7, 74649, Note_on_c, 4, 64, 97
7, 74658, Note_on_c, 4, 69, 55
7, 74880, Note_off_c, 4, 61, 64
7, 74880, Note_off_c, 4, 64, 64
7, 74880, Note_off_c, 4, 69, 64
7, 75120, Note_on_c, 4, 61, 127
7, 75129, Note_on_c, 4, 64, 127
7, 75138, Note_on_c, 4, 68, 79
7, 76320, Note_off_c, 4, 61, 64
7, 76320, Note_off_c, 4, 64, 64
7, 76320, Note_off_c, 4, 68, 64
7, 77280, Note_on_c, 4, 61, 127
7, 77289, Note_on_c, 4, 64, 127
7, 77298, Note_on_c, 4, 69, 79
7, 78000, Note_off_c, 4, 61, 64
7, 78000, Note_off_c, 4, 64, 64
7, 78000, Note_off_c, 4, 69, 64
7, 78000, Note_on_c, 4, 61, 127
7, 78009, Note_on_c, 4, 64, 97
7, 78018, Note_on_c, 4, 69, 55
7, 78240, Note_off_c, 4, 61, 64
7, 78240, Note_off_c, 4, 69, 64
7, 78240, Note_on_c, 4, 69, 127
7, 78243, Note_off_c, 4, 64, 64
7, 78249, Note_on_c, 4, 64, 127
7, 78258, Note_on_c, 4, 61, 79
7, 78480, Note_off_c, 4, 69, 64
7, 78480, Note_off_c, 4, 64, 64
7, 78480, Note_off_c, 4, 61, 64
7, 78480, Note_on_c, 4, 61, 127
7, 78489, Note_on_c, 4, 64, 97
7, 78498, Note_on_c, 4, 69, 55
7, 78720, Note_off_c, 4, 61, 64
7, 78720, Note_off_c, 4, 64, 64
7, 78720, Note_off_c, 4, 69, 64
7, 78960, Note_on_c, 4, 61, 127
7, 78969, Note_on_c, 4, 64, 127
7, 78978, Note_on_c, 4, 68, 79
7, 80160, Note_off_c, 4, 61, 64
7, 80160, Note_off_c, 4, 64, 64
7, 80160, Note_off_c, 4, 68, 64
7, 80160, Note_on_c, 4, 59, 127
7, 80169, Note_on_c, 4, 63, 127
7, 80178, Note_on_c, 4, 66, 79
7, 80640, Note_off_c, 4, 59, 64
7, 80649, Note_off_c, 4, 63, 64
7, 80658, Note_off_c, 4, 66, 64
7, 81120, Note_on_c, 4, 61, 127
7, 81129, Note_on_c, 4, 64, 127
7, 81138, Note_on_c, 4, 69, 79
7, 81840, Note_off_c, 4, 61, 64
7, 81840, Note_off_c, 4, 64, 64
7, 81840, Note_off_c, 4, 69, 64
7, 81840, Note_on_c, 4, 61, 127
7, 81849, Note_on_c, 4, 64, 97
7, 81858, Note_on_c, 4, 69, 55
7, 82080, Note_off_c, 4, 61, 64
7, 82080, Note_off_c, 4, 69, 64
7, 82080, Note_on_c, 4, 69, 127
7, 82083, Note_off_c, 4, 64, 64
7, 82089, Note_on_c, 4, 64, 127
7, 82098, Note_on_c, 4, 61, 79
7, 82320, Note_off_c, 4, 69, 64
7, 82320, Note_off_c, 4, 64, 64
7, 82320, Note_off_c, 4, 61, 64
7, 82320, Note_on_c, 4, 61, 127
7, 82329, Note_on_c, 4, 64, 97
7, 82338, Note_on_c, 4, 69, 55
7, 82560, Note_off_c, 4, 61, 64
7, 82560, Note_off_c, 4, 64, 64
7, 82560, Note_off_c, 4, 69, 64
7, 82800, Note_on_c, 4, 61, 127
7, 82809, Note_on_c, 4, 64, 127
7, 82818, Note_on_c, 4, 68, 79
7, 84000, Note_off_c, 4, 61, 64
7, 84000, Note_off_c, 4, 64, 64
7, 84000, Note_off_c, 4, 68, 64
7, 84960, Note_on_c, 4, 61, 127
7, 84969, Note_on_c, 4, 64, 127
7, 84978, Note_on_c, 4, 69, 79
7, 85680, Note_off_c, 4, 61, 64
7, 85680, Note_off_c, 4, 64, 64
7, 85680, Note_off_c, 4, 69, 64
7, 85680, Note_on_c, 4, 61, 127
7, 85689, Note_on_c, 4, 64, 97
7, 85698, Note_on_c, 4, 69, 55
7, 85920, Note_off_c, 4, 61, 64
7, 85920, Note_off_c, 4, 69, 64
7, 85920, Note_on_c, 4, 69, 127
7, 85923, Note_off_c, 4, 64, 64
7, 85929, Note_on_c, 4, 64, 127
7, 85938, Note_on_c, 4, 61, 79
7, 86160, Note_off_c, 4, 69, 64
7, 86160, Note_off_c, 4, 64, 64
7, 86160, Note_off_c, 4, 61, 64
7, 86160, Note_on_c, 4, 61, 127
7, 86169, Note_on_c, 4, 64, 97
7, 86178, Note_on_c, 4, 69, 55
7, 86400, Note_off_c, 4, 61, 64
7, 86400, Note_off_c, 4, 64, 64
7, 86400, Note_off_c, 4, 69, 64
7, 86640, Note_on_c, 4, 61, 127
7, 86649, Note_on_c, 4, 64, 127
7, 86658, Note_on_c, 4, 68, 79
7, 87840, Note_off_c, 4, 61, 64
7, 87840, Note_off_c, 4, 64, 64
7, 87840, Note_off_c, 4, 68, 64
7, 87840, Note_on_c, 4, 59, 127
7, 87849, Note_on_c, 4, 63, 127
7, 87858, Note_on_c, 4, 66, 79
7, 88320, Note_off_c, 4, 59, 64
7, 88329, Note_off_c, 4, 63, 64
7, 88338, Note_off_c, 4, 66, 64
7, 88800, Note_on_c, 4, 61, 127
7, 88809, Note_on_c, 4, 64, 127
7, 88818, Note_on_c, 4, 69, 79
7, 89520, Note_off_c, 4, 61, 64
7, 89520, Note_off_c, 4, 64, 64
7, 89520, Note_off_c, 4, 69, 64
7, 89520, Note_on_c, 4, 61, 127
7, 89529, Note_on_c, 4, 64, 97
7, 89538, Note_on_c, 4, 69, 55
7, 89760, Note_off_c, 4, 61, 64
7, 89760, Note_off_c, 4, 69, 64
7, 89760, Note_on_c, 4, 69, 127
7, 89763, Note_off_c, 4, 64, 64
7, 89769, Note_on_c, 4, 64, 127
7, 89778, Note_on_c, 4, 61, 79
7, 90000, Note_off_c, 4, 69, 64
7, 90000, Note_off_c, 4, 64, 64
7, 90000, Note_off_c, 4, 61, 64
7, 90000, Note_on_c, 4, 61, 127
7, 90009, Note_on_c, 4, 64, 97
7, 90018, Note_on_c, 4, 69, 55
7, 90240, Note_off_c, 4, 61, 64
7, 90240, Note_off_c, 4, 64, 64
7, 90240, Note_off_c, 4, 69, 64
7, 90480, Note_on_c, 4, 61, 127
7, 90489, Note_on_c, 4, 64, 127
7, 90498, Note_on_c, 4, 68, 79
7, 91680, Note_off_c, 4, 61, 64
7, 91680, Note_off_c, 4, 64, 64
7, 91680, Note_off_c, 4, 68, 64
7, 92640, Note_on_c, 4, 61, 127
7, 92649, Note_on_c, 4, 64, 127
7, 92658, Note_on_c, 4, 69, 79
7, 93360, Note_off_c, 4, 61, 64
7, 93360, Note_off_c, 4, 64, 64
7, 93360, Note_off_c, 4, 69, 64
7, 93360, Note_on_c, 4, 61, 127
7, 93369, Note_on_c, 4, 64, 97
7, 93378, Note_on_c, 4, 69, 55
7, 93600, Note_off_c, 4, 61, 64
7, 93600, Note_off_c, 4, 69, 64
7, 93600, Note_on_c, 4, 69, 127
7, 93603, Note_off_c, 4, 64, 64
7, 93609, Note_on_c, 4, 64, 127
7, 93618, Note_on_c, 4, 61, 79
7, 93840, Note_off_c, 4, 69, 64
7, 93840, Note_off_c, 4, 64, 64
7, 93840, Note_off_c, 4, 61, 64
7, 93840, Note_on_c, 4, 61, 127
7, 93849, Note_on_c, 4, 64, 97
7, 93858, Note_on_c, 4, 69, 55
7, 94080, Note_off_c, 4, 61, 64
7, 94080, Note_off_c, 4, 64, 64
7, 94080, Note_off_c, 4, 69, 64
7, 94320, Note_on_c, 4, 61, 127
7, 94329, Note_on_c, 4, 64, 127
7, 94338, Note_on_c, 4, 68, 79
7, 95520, Note_off_c, 4, 61, 64
7, 95520, Note_off_c, 4, 64, 64
7, 95520, Note_off_c, 4, 68, 64
7, 95520, Note_on_c, 4, 59, 127
7, 95529, Note_on_c, 4, 63, 127
7, 95538, Note_on_c, 4, 66, 79
7, 96000, Note_off_c, 4, 59, 64
7, 96009, Note_off_c, 4, 63, 64
7, 96018, Note_off_c, 4, 66, 64
7, 96480, Note_on_c, 4, 61, 127
7, 96489, Note_on_c, 4, 64, 127
7, 96498, Note_on_c, 4, 69, 79
7, 97200, Note_off_c, 4, 61, 64
7, 97200, Note_off_c, 4, 64, 64
7, 97200, Note_off_c, 4, 69, 64
7, 97200, Note_on_c, 4, 61, 127
7, 97209, Note_on_c, 4, 64, 97
7, 97218, Note_on_c, 4, 69, 55
7, 97440, Note_off_c, 4, 61, 64
7, 97440, Note_off_c, 4, 69, 64
7, 97440, Note_on_c, 4, 69, 127
7, 97443, Note_off_c, 4, 64, 64
7, 97449, Note_on_c, 4, 64, 127
7, 97458, Note_on_c, 4, 61, 79
7, 97680, Note_off_c, 4, 69, 64
7, 97680, Note_off_c, 4, 64, 64
7, 97680, Note_off_c, 4, 61, 64
7, 97680, Note_on_c, 4, 61, 127
7, 97689, Note_on_c, 4, 64, 97
7, 97698, Note_on_c, 4, 69, 55
7, 97920, Note_off_c, 4, 61, 64
7, 97920, Note_off_c, 4, 64, 64
7, 97920, Note_off_c, 4, 69, 64
7, 98160, Note_on_c, 4, 61, 127
7, 98169, Note_on_c, 4, 64, 127
7, 98178, Note_on_c, 4, 68, 79
7, 99360, Note_off_c, 4, 61, 64
7, 99360, Note_off_c, 4, 64, 64
7, 99360, Note_off_c, 4, 68, 64
7, 100320, Note_on_c, 4, 61, 127
7, 100329, Note_on_c, 4, 64, 127
7, 100338, Note_on_c, 4, 69, 79
7, 101040, Note_off_c, 4, 61, 64
7, 101040, Note_off_c, 4, 64, 64
7, 101040, Note_off_c, 4, 69, 64
7, 101040, Note_on_c, 4, 61, 127
7, 101049, Note_on_c, 4, 64, 97
7, 101058, Note_on_c, 4, 69, 55
7, 101280, Note_off_c, 4, 61, 64
7, 101280, Note_off_c, 4, 69, 64
7, 101280, Note_on_c, 4, 69, 127
7, 101283, Note_off_c, 4, 64, 64
7, 101289, Note_on_c, 4, 64, 127
7, 101298, Note_on_c, 4, 61, 79
7, 101520, Note_off_c, 4, 69, 64
7, 101520, Note_off_c, 4, 64, 64
7, 101520, Note_off_c, 4, 61, 64
7, 101520, Note_on_c, 4, 61, 127
7, 101529, Note_on_c, 4, 64, 97
7, 101538, Note_on_c, 4, 69, 55
7, 101760, Note_off_c, 4, 61, 64
7, 101760, Note_off_c, 4, 64, 64
7, 101760, Note_off_c, 4, 69, 64
7, 102000, Note_on_c, 4, 61, 127
7, 102009, Note_on_c, 4, 64, 127
7, 102018, Note_on_c, 4, 68, 79
7, 103200, Note_off_c, 4, 61, 64
7, 103200, Note_off_c, 4, 64, 64
7, 103200, Note_off_c, 4, 68, 64
7, 103200, Note_on_c, 4, 59, 127
7, 103209, Note_on_c, 4, 63, 127
7, 103218, Note_on_c, 4, 66, 79
7, 103680, Note_off_c, 4, 59, 64
7, 103689, Note_off_c, 4, 63, 64
7, 103698, Note_off_c, 4, 66, 64
7, 104160, Note_on_c, 4, 61, 127
7, 104169, Note_on_c, 4, 64, 127
7, 104178, Note_on_c, 4, 69, 79
7, 104880, Note_off_c, 4, 61, 64
7, 104880, Note_off_c, 4, 64, 64
7, 104880, Note_off_c, 4, 69, 64
7, 104880, Note_on_c, 4, 61, 127
7, 104889, Note_on_c, 4, 64, 97
7, 104898, Note_on_c, 4, 69, 55
7, 105120, Note_off_c, 4, 61, 64
7, 105120, Note_off_c, 4, 69, 64
7, 105120, Note_on_c, 4, 69, 127
7, 105123, Note_off_c, 4, 64, 64
7, 105129, Note_on_c, 4, 64, 127
7, 105138, Note_on_c, 4, 61, 79
7, 105360, Note_off_c, 4, 69, 64
7, 105360, Note_off_c, 4, 64, 64
7, 105360, Note_off_c, 4, 61, 64
7, 105360, Note_on_c, 4, 61, 127
7, 105369, Note_on_c, 4, 64, 97
7, 105378, Note_on_c, 4, 69, 55
7, 105600, Note_off_c, 4, 61, 64
7, 105600, Note_off_c, 4, 64, 64
7, 105600, Note_off_c, 4, 69, 64
7, 105840, Note_on_c, 4, 61, 127
7, 105849, Note_on_c, 4, 64, 127
7, 105858, Note_on_c, 4, 68, 79
7, 107040, Note_off_c, 4, 61, 64
7, 107040, Note_off_c, 4, 64, 64
7, 107040, Note_off_c, 4, 68, 64
7, 108000, Note_on_c, 4, 61, 127
7, 108009, Note_on_c, 4, 64, 127
7, 108018, Note_on_c, 4, 69, 79
7, 108720, Note_off_c, 4, 61, 64
7, 108720, Note_off_c, 4, 64, 64
7, 108720, Note_off_c, 4, 69, 64
7, 108720, Note_on_c, 4, 61, 127
7, 108729, Note_on_c, 4, 64, 97
7, 108738, Note_on_c, 4, 69, 55
7, 108960, Note_off_c, 4, 61, 64
7, 108960, Note_off_c, 4, 69, 64
7, 108960, Note_on_c, 4, 69, 127
7, 108963, Note_off_c, 4, 64, 64
7, 108969, Note_on_c, 4, 64, 127
7, 108978, Note_on_c, 4, 61, 79
7, 109200, Note_off_c, 4, 69, 64
7, 109200, Note_off_c, 4, 64, 64
7, 109200, Note_off_c, 4, 61, 64
7, 109200, Note_on_c, 4, 61, 127
7, 109209, Note_on_c, 4, 64, 97
7, 109218, Note_on_c, 4, 69, 55
7, 109440, Note_off_c, 4, 61, 64
7, 109440, Note_off_c, 4, 64, 64
7, 109440, Note_off_c, 4, 69, 64
7, 109680, Note_on_c, 4, 61, 127
7, 109689, Note_on_c, 4, 64, 127
7, 109698, Note_on_c, 4, 68, 79
7, 110880, Note_off_c, 4, 61, 64
7, 110880, Note_off_c, 4, 64, 64
7, 110880, Note_off_c, 4, 68, 64
7, 110880, Note_on_c, 4, 59, 127
7, 110889, Note_on_c, 4, 63, 127
7, 110898, Note_on_c, 4, 66, 79
7, 111360, Note_off_c, 4, 59, 64
7, 111369, Note_off_c, 4, 63, 64
7, 111378, Note_off_c, 4, 66, 64
7, 111840, Note_on_c, 4, 61, 127
7, 111849, Note_on_c, 4, 64, 127
7, 111858, Note_on_c, 4, 69, 79
7, 112560, Note_off_c, 4, 61, 64
7, 112560, Note_off_c, 4, 64, 64
7, 112560, Note_off_c, 4, 69, 64
7, 112560, Note_on_c, 4, 61, 127
7, 112569, Note_on_c, 4, 64, 97
7, 112578, Note_on_c, 4, 69, 55
7, 112800, Note_off_c, 4, 61, 64
7, 112800, Note_off_c, 4, 69, 64
7, 112800, Note_on_c, 4, 69, 127
7, 112803, Note_off_c, 4, 64, 64
7, 112809, Note_on_c, 4, 64, 127
7, 112818, Note_on_c, 4, 61, 79
7, 113040, Note_off_c, 4, 69, 64
7, 113040, Note_off_c, 4, 64, 64
7, 113040, Note_off_c, 4, 61, 64
7, 113040, Note_on_c, 4, 61, 127
7, 113049, Note_on_c, 4, 64, 97
7, 113058, Note_on_c, 4, 69, 55
7, 113280, Note_off_c, 4, 61, 64
7, 113280, Note_off_c, 4, 64, 64
7, 113280, Note_off_c, 4, 69, 64
7, 113520, Note_on_c, 4, 61, 127
7, 113529, Note_on_c, 4, 64, 127
7, 113538, Note_on_c, 4, 68, 79
7, 114720, Note_off_c, 4, 61, 64
7, 114720, Note_off_c, 4, 64, 64
7, 114720, Note_off_c, 4, 68, 64
7, 115680, Note_on_c, 4, 61, 127
7, 115689, Note_on_c, 4, 64, 127
7, 115698, Note_on_c, 4, 69, 79
7, 116400, Note_off_c, 4, 61, 64
7, 116400, Note_off_c, 4, 64, 64
7, 116400, Note_off_c, 4, 69, 64
7, 116400, Note_on_c, 4, 61, 127
7, 116409, Note_on_c, 4, 64, 97
7, 116418, Note_on_c, 4, 69, 55
7, 116640, Note_off_c, 4, 61, 64
7, 116640, Note_off_c, 4, 69, 64
7, 116640, Note_on_c, 4, 69, 127
7, 116643, Note_off_c, 4, 64, 64
7, 116649, Note_on_c, 4, 64, 127
7, 116658, Note_on_c, 4, 61, 79
7, 116880, Note_off_c, 4, 69, 64
7, 116880, Note_off_c, 4, 64, 64
7, 116880, Note_off_c, 4, 61, 64
7, 116880, Note_on_c, 4, 61, 127
7, 116889, Note_on_c, 4, 64, 97
7, 116898, Note_on_c, 4, 69, 55
7, 117120, Note_off_c, 4, 61, 64
7, 117120, Note_off_c, 4, 64, 64
7, 117120, Note_off_c, 4, 69, 64
7, 117360, Note_on_c, 4, 61, 127
7, 117369, Note_on_c, 4, 64, 127
7, 117378, Note_on_c, 4, 68, 79
7, 118560, Note_off_c, 4, 61, 64
7, 118560, Note_off_c, 4, 64, 64
7, 118560, Note_off_c, 4, 68, 64
7, 118560, Note_on_c, 4, 59, 127
7, 118569, Note_on_c, 4, 63, 127
7, 118578, Note_on_c, 4, 66, 79
7, 119040, Note_off_c, 4, 59, 64
7, 119049, Note_off_c, 4, 63, 64
7, 119058, Note_off_c, 4, 66, 64
7, 119520, Note_on_c, 4, 61, 127
7, 119529, Note_on_c, 4, 64, 127
7, 119538, Note_on_c, 4, 69, 79
7, 120240, Note_off_c, 4, 61, 64
7, 120240, Note_off_c, 4, 64, 64
7, 120240, Note_off_c, 4, 69, 64
7, 120240, Note_on_c, 4, 61, 127
7, 120249, Note_on_c, 4, 64, 97
7, 120258, Note_on_c, 4, 69, 55
7, 120480, Note_off_c, 4, 61, 64
7, 120480, Note_off_c, 4, 69, 64
7, 120480, Note_on_c, 4, 69, 127
7, 120483, Note_off_c, 4, 64, 64
7, 120489, Note_on_c, 4, 64, 127
7, 120498, Note_on_c, 4, 61, 79
7, 120720, Note_off_c, 4, 69, 64
7, 120720, Note_off_c, 4, 64, 64
7, 120720, Note_off_c, 4, 61, 64
7, 120720, Note_on_c, 4, 61, 127
7, 120729, Note_on_c, 4, 64, 97
7, 120738, Note_on_c, 4, 69, 55
7, 120960, Note_off_c, 4, 61, 64
7, 120960, Note_off_c, 4, 64, 64
7, 120960, Note_off_c, 4, 69, 64
7, 121200, Note_on_c, 4, 61, 127
7, 121209, Note_on_c, 4, 64, 127
7, 121218, Note_on_c, 4, 68, 79
7, 122400, Note_off_c, 4, 61, 64
7, 122400, Note_off_c, 4, 64, 64
7, 122400, Note_off_c, 4, 68, 64
7, 123360, Note_on_c, 4, 61, 127
7, 123369, Note_on_c, 4, 64, 127
7, 123378, Note_on_c, 4, 69, 79
7, 124080, Note_off_c, 4, 61, 64
7, 124080, Note_off_c, 4, 64, 64
7, 124080, Note_off_c, 4, 69, 64
7, 124080, Note_on_c, 4, 61, 127
7, 124089, Note_on_c, 4, 64, 97
7, 124098, Note_on_c, 4, 69, 55
7, 124320, Note_off_c, 4, 61, 64
7, 124320, Note_off_c, 4, 69, 64
7, 124320, Note_on_c, 4, 69, 127
7, 124323, Note_off_c, 4, 64, 64
7, 124329, Note_on_c, 4, 64, 127
7, 124338, Note_on_c, 4, 61, 79
7, 124560, Note_off_c, 4, 69, 64
7, 124560, Note_off_c, 4, 64, 64
7, 124560, Note_off_c, 4, 61, 64
7, 124560, Note_on_c, 4, 61, 127
7, 124569, Note_on_c, 4, 64, 97
7, 124578, Note_on_c, 4, 69, 55
7, 124800, Note_off_c, 4, 61, 64
7, 124800, Note_off_c, 4, 64, 64
7, 124800, Note_off_c, 4, 69, 64
7, 125040, Note_on_c, 4, 61, 127
7, 125049, Note_on_c, 4, 64, 127
7, 125058, Note_on_c, 4, 68, 79
7, 126240, Note_off_c, 4, 61, 64
7, 126240, Note_off_c, 4, 64, 64
7, 126240, Note_off_c, 4, 68, 64
7, 126240, Note_on_c, 4, 59, 127
7, 126249, Note_on_c, 4, 63, 127
7, 126258, Note_on_c, 4, 66, 79
7, 126720, Note_off_c, 4, 59, 64
7, 126729, Note_off_c, 4, 63, 64
7, 126738, Note_off_c, 4, 66, 64
7, 127200, Note_on_c, 4, 61, 127
7, 127209, Note_on_c, 4, 64, 127
7, 127218, Note_on_c, 4, 69, 79
7, 127920, Note_off_c, 4, 61, 64
7, 127920, Note_off_c, 4, 64, 64
7, 127920, Note_off_c, 4, 69, 64
7, 127920, Note_on_c, 4, 61, 127
7, 127929, Note_on_c, 4, 64, 97
7, 127938, Note_on_c, 4, 69, 55
7, 128160, Note_off_c, 4, 61, 64
7, 128160, Note_off_c, 4, 69, 64
7, 128160, Note_on_c, 4, 69, 127
7, 128163, Note_off_c, 4, 64, 64
7, 128169, Note_on_c, 4, 64, 127
7, 128178, Note_on_c, 4, 61, 79
7, 128400, Note_off_c, 4, 69, 64
7, 128400, Note_off_c, 4, 64, 64
7, 128400, Note_off_c, 4, 61, 64
7, 128400, Note_on_c, 4, 61, 127
7, 128409, Note_on_c, 4, 64, 97
7, 128418, Note_on_c, 4, 69, 55
7, 128640, Note_off_c, 4, 61, 64
7, 128640, Note_off_c, 4, 64, 64
7, 128640, Note_off_c, 4, 69, 64
7, 128880, Note_on_c, 4, 61, 127
7, 128889, Note_on_c, 4, 64, 127
7, 128898, Note_on_c, 4, 68, 79
7, 130080, Note_off_c, 4, 61, 64
7, 130080, Note_off_c, 4, 64, 64
7, 130080, Note_off_c, 4, 68, 64
7, 131040, Note_on_c, 4, 61, 127
7, 131049, Note_on_c, 4, 64, 127
7, 131058, Note_on_c, 4, 69, 79
7, 131760, Note_off_c, 4, 61, 64
7, 131760, Note_off_c, 4, 64, 64
7, 131760, Note_off_c, 4, 69, 64
7, 131760, Note_on_c, 4, 61, 127
7, 131769, Note_on_c, 4, 64, 97
7, 131778, Note_on_c, 4, 69, 55
7, 132000, Note_off_c, 4, 61, 64
7, 132000, Note_off_c, 4, 69, 64
7, 132000, Note_on_c, 4, 69, 127
7, 132003, Note_off_c, 4, 64, 64
7, 132009, Note_on_c, 4, 64, 127
7, 132018, Note_on_c, 4, 61, 79
7, 132240, Note_off_c, 4, 69, 64
7, 132240, Note_off_c, 4, 64, 64
7, 132240, Note_off_c, 4, 61, 64
7, 132240, Note_on_c, 4, 61, 127
7, 132249, Note_on_c, 4, 64, 97
7, 132258, Note_on_c, 4, 69, 55
7, 132480, Note_off_c, 4, 61, 64
7, 132480, Note_off_c, 4, 64, 64
7, 132480, Note_off_c, 4, 69, 64
7, 132720, Note_on_c, 4, 61, 127
7, 132729, Note_on_c, 4, 64, 127
7, 132738, Note_on_c, 4, 68, 79
7, 133920, Note_off_c, 4, 61, 64
7, 133920, Note_off_c, 4, 64, 64
7, 133920, Note_off_c, 4, 68, 64
7, 133920, Note_on_c, 4, 59, 127
7, 133929, Note_on_c, 4, 63, 127
7, 133938, Note_on_c, 4, 66, 79
7, 134400, Note_off_c, 4, 59, 64
7, 134409, Note_off_c, 4, 63, 64
7, 134418, Note_off_c, 4, 66, 64
7, 134880, Note_on_c, 4, 61, 127
7, 134889, Note_on_c, 4, 64, 127
7, 134898, Note_on_c, 4, 69, 79
7, 135600, Note_off_c, 4, 61, 64
7, 135600, Note_off_c, 4, 64, 64
7, 135600, Note_off_c, 4, 69, 64
7, 135600, Note_on_c, 4, 61, 127
7, 135609, Note_on_c, 4, 64, 97
7, 135618, Note_on_c, 4, 69, 55
7, 135840, Note_off_c, 4, 61, 64
7, 135840, Note_off_c, 4, 69, 64
7, 135840, Note_on_c, 4, 69, 127
7, 135843, Note_off_c, 4, 64, 64
7, 135849, Note_on_c, 4, 64, 127
7, 135858, Note_on_c, 4, 61, 79
7, 136080, Note_off_c, 4, 69, 64
7, 136080, Note_off_c, 4, 64, 64
7, 136080, Note_off_c, 4, 61, 64
7, 136080, Note_on_c, 4, 61, 127
7, 136089, Note_on_c, 4, 64, 97
7, 136098, Note_on_c, 4, 69, 55
7, 136320, Note_off_c, 4, 61, 64
7, 136320, Note_off_c, 4, 64, 64
7, 136320, Note_off_c, 4, 69, 64
7, 136560, Note_on_c, 4, 61, 127
7, 136569, Note_on_c, 4, 64, 127
7, 136578, Note_on_c, 4, 68, 79
7, 137760, Note_off_c, 4, 61, 64
7, 137760, Note_off_c, 4, 64, 64
7, 137760, Note_off_c, 4, 68, 64
7, 138720, Note_on_c, 4, 61, 127
7, 138729, Note_on_c, 4, 64, 127
7, 138738, Note_on_c, 4, 69, 79
7, 139440, Note_off_c, 4, 61, 64
7, 139440, Note_off_c, 4, 64, 64
7, 139440, Note_off_c, 4, 69, 64
7, 139440, Note_on_c, 4, 61, 127
7, 139449, Note_on_c, 4, 64, 97
7, 139458, Note_on_c, 4, 69, 55
7, 139680, Note_off_c, 4, 61, 64
7, 139680, Note_off_c, 4, 69, 64
7, 139680, Note_on_c, 4, 69, 127
7, 139683, Note_off_c, 4, 64, 64
7, 139689, Note_on_c, 4, 64, 127
7, 139698, Note_on_c, 4, 61, 79
7, 139920, Note_off_c, 4, 69, 64
7, 139920, Note_off_c, 4, 64, 64
7, 139920, Note_off_c, 4, 61, 64
7, 139920, Note_on_c, 4, 61, 127
7, 139929, Note_on_c, 4, 64, 97
7, 139938, Note_on_c, 4, 69, 55
7, 140160, Note_off_c, 4, 61, 64
7, 140160, Note_off_c, 4, 64, 64
7, 140160, Note_off_c, 4, 69, 64
7, 140400, Note_on_c, 4, 61, 127
7, 140409, Note_on_c, 4, 64, 127
7, 140418, Note_on_c, 4, 68, 79
7, 141600, Note_off_c, 4, 61, 64
7, 141600, Note_off_c, 4, 64, 64
7, 141600, Note_off_c, 4, 68, 64
7, 141600, Note_on_c, 4, 59, 127
7, 141609, Note_on_c, 4, 63, 127
7, 141618, Note_on_c, 4, 66, 79
7, 142080, Note_off_c, 4, 59, 64
7, 142089, Note_off_c, 4, 63, 64
7, 142098, Note_off_c, 4, 66, 64
7, 146400, End_track
8, 0, Start_track
8, 0, Instrument_name_t, "SB AWE32 MIDI Synth [62"
8, 0, Title_t, "Choosey Lover"
8, 0, Control_c, 5, 121, 127
8, 2, Program_c, 5, 8
8, 5, Control_c, 5, 7, 127
8, 10, Control_c, 5, 10, 34
8, 15, Control_c, 5, 91, 80
8, 20, Control_c, 5, 1, 0
8, 25, Control_c, 5, 92, 0
8, 30, Control_c, 5, 93, 0
8, 35, Control_c, 5, 94, 0
8, 40, Control_c, 5, 95, 0
8, 95, Copyright_t, "1998 Sequenced by Taro Sato"
8, 9120, Note_on_c, 5, 80, 127
8, 9180, Note_off_c, 5, 80, 64
8, 9180, Note_on_c, 5, 81, 127
8, 9240, Note_off_c, 5, 81, 64
8, 9240, Note_on_c, 5, 80, 127
8, 9300, Note_off_c, 5, 80, 64
8, 9300, Note_on_c, 5, 76, 73
8, 9360, Note_off_c, 5, 76, 64
8, 9360, Note_on_c, 5, 80, 127
8, 9420, Note_off_c, 5, 80, 64
8, 9420, Note_on_c, 5, 81, 115
8, 9480, Note_off_c, 5, 81, 64
8, 9480, Note_on_c, 5, 80, 79
8, 9540, Note_off_c, 5, 80, 64
8, 9540, Note_on_c, 5, 76, 43
8, 9600, Note_off_c, 5, 76, 64
8, 9600, Note_on_c, 5, 80, 89
8, 9660, Note_off_c, 5, 80, 64
8, 9660, Note_on_c, 5, 81, 67
8, 9720, Note_off_c, 5, 81, 64
8, 9720, Note_on_c, 5, 80, 47
8, 9780, Note_off_c, 5, 80, 64
8, 9780, Note_on_c, 5, 76, 25
8, 9840, Note_off_c, 5, 76, 64
8, 9840, Note_on_c, 5, 80, 53
8, 9900, Note_off_c, 5, 80, 64
8, 9900, Note_on_c, 5, 81, 39
8, 9960, Note_off_c, 5, 81, 64
8, 9960, Note_on_c, 5, 80, 27
8, 10020, Note_off_c, 5, 80, 64
8, 10020, Note_on_c, 5, 76, 13
8, 10080, Note_off_c, 5, 76, 64
8, 13920, Note_on_c, 5, 80, 127
8, 13980, Note_off_c, 5, 80, 64
8, 13980, Note_on_c, 5, 81, 127
8, 14040, Note_off_c, 5, 81, 64
8, 14040, Note_on_c, 5, 80, 127
8, 14100, Note_off_c, 5, 80, 64
8, 14100, Note_on_c, 5, 76, 73
8, 14160, Note_off_c, 5, 76, 64
8, 14160, Note_on_c, 5, 80, 127
8, 14220, Note_off_c, 5, 80, 64
8, 14220, Note_on_c, 5, 81, 115
8, 14280, Note_off_c, 5, 81, 64
8, 14280, Note_on_c, 5, 80, 79
8, 14340, Note_off_c, 5, 80, 64
8, 14340, Note_on_c, 5, 76, 43
8, 14400, Note_off_c, 5, 76, 64
8, 14400, Note_on_c, 5, 80, 89
8, 14460, Note_off_c, 5, 80, 64
8, 14460, Note_on_c, 5, 81, 67
8, 14520, Note_off_c, 5, 81, 64
8, 14520, Note_on_c, 5, 80, 47
8, 14580, Note_off_c, 5, 80, 64
8, 14580, Note_on_c, 5, 76, 25
8, 14640, Note_off_c, 5, 76, 64
8, 14640, Note_on_c, 5, 80, 53
8, 14700, Note_off_c, 5, 80, 64
8, 14700, Note_on_c, 5, 81, 39
8, 14760, Note_off_c, 5, 81, 64
8, 14760, Note_on_c, 5, 80, 27
8, 14820, Note_off_c, 5, 80, 64
8, 14820, Note_on_c, 5, 76, 13
8, 14880, Note_off_c, 5, 76, 64
8, 27360, Note_on_c, 5, 80, 127
8, 27420, Note_off_c, 5, 80, 64
8, 27420, Note_on_c, 5, 81, 127
8, 27480, Note_off_c, 5, 81, 64
8, 27480, Note_on_c, 5, 80, 127
8, 27540, Note_off_c, 5, 80, 64
8, 27540, Note_on_c, 5, 76, 73
8, 27600, Note_off_c, 5, 76, 64
8, 27600, Note_on_c, 5, 80, 127
8, 27660, Note_off_c, 5, 80, 64
8, 27660, Note_on_c, 5, 81, 115
8, 27720, Note_off_c, 5, 81, 64
8, 27720, Note_on_c, 5, 80, 79
8, 27780, Note_off_c, 5, 80, 64
8, 27780, Note_on_c, 5, 76, 43
8, 27840, Note_off_c, 5, 76, 64
8, 27840, Note_on_c, 5, 80, 89
8, 27900, Note_off_c, 5, 80, 64
8, 27900, Note_on_c, 5, 81, 67
8, 27960, Note_off_c, 5, 81, 64
8, 27960, Note_on_c, 5, 80, 47
8, 28020, Note_off_c, 5, 80, 64
8, 28020, Note_on_c, 5, 76, 25
8, 28080, Note_off_c, 5, 76, 64
8, 28080, Note_on_c, 5, 80, 53
8, 28140, Note_off_c, 5, 80, 64
8, 28140, Note_on_c, 5, 81, 39
8, 28200, Note_off_c, 5, 81, 64
8, 28200, Note_on_c, 5, 80, 27
8, 28260, Note_off_c, 5, 80, 64
8, 28260, Note_on_c, 5, 76, 13
8, 28320, Note_off_c, 5, 76, 64
8, 42720, Note_on_c, 5, 80, 127
8, 42780, Note_off_c, 5, 80, 64
8, 42780, Note_on_c, 5, 81, 127
8, 42840, Note_off_c, 5, 81, 64
8, 42840, Note_on_c, 5, 80, 127
8, 42900, Note_off_c, 5, 80, 64
8, 42900, Note_on_c, 5, 76, 73
8, 42960, Note_off_c, 5, 76, 64
8, 42960, Note_on_c, 5, 80, 127
8, 43020, Note_off_c, 5, 80, 64
8, 43020, Note_on_c, 5, 81, 115
8, 43080, Note_off_c, 5, 81, 64
8, 43080, Note_on_c, 5, 80, 79
8, 43140, Note_off_c, 5, 80, 64
8, 43140, Note_on_c, 5, 76, 43
8, 43200, Note_off_c, 5, 76, 64
8, 43200, Note_on_c, 5, 80, 89
8, 43260, Note_off_c, 5, 80, 64
8, 43260, Note_on_c, 5, 81, 67
8, 43320, Note_off_c, 5, 81, 64
8, 43320, Note_on_c, 5, 80, 47
8, 43380, Note_off_c, 5, 80, 64
8, 43380, Note_on_c, 5, 76, 25
8, 43440, Note_off_c, 5, 76, 64
8, 43440, Note_on_c, 5, 80, 53
8, 43500, Note_off_c, 5, 80, 64
8, 43500, Note_on_c, 5, 81, 39
8, 43560, Note_off_c, 5, 81, 64
8, 43560, Note_on_c, 5, 80, 27
8, 43620, Note_off_c, 5, 80, 64
8, 43620, Note_on_c, 5, 76, 13
8, 43680, Note_off_c, 5, 76, 64
8, 52380, Note_on_c, 5, 71, 127
8, 52440, Note_off_c, 5, 71, 64
8, 52440, Note_on_c, 5, 76, 127
8, 52500, Note_off_c, 5, 76, 64
8, 52500, Note_on_c, 5, 83, 127
8, 52560, Note_off_c, 5, 83, 64
8, 52620, Note_on_c, 5, 71, 107
8, 52680, Note_off_c, 5, 71, 64
8, 52680, Note_on_c, 5, 76, 127
8, 52740, Note_off_c, 5, 76, 64
8, 52740, Note_on_c, 5, 83, 127
8, 52800, Note_off_c, 5, 83, 64
8, 52860, Note_on_c, 5, 71, 61
8, 52920, Note_off_c, 5, 71, 64
8, 52920, Note_on_c, 5, 76, 75
8, 52980, Note_off_c, 5, 76, 64
8, 52980, Note_on_c, 5, 83, 89
8, 53040, Note_off_c, 5, 83, 64
8, 53100, Note_on_c, 5, 71, 33
8, 53160, Note_off_c, 5, 71, 64
8, 53160, Note_on_c, 5, 76, 43
8, 53220, Note_off_c, 5, 76, 64
8, 53222, Note_on_c, 5, 83, 53
8, 53282, Note_off_c, 5, 83, 64
8, 60120, Note_on_c, 5, 80, 127
8, 60180, Note_off_c, 5, 80, 64
8, 60180, Note_on_c, 5, 81, 127
8, 60240, Note_off_c, 5, 81, 64
8, 60240, Note_on_c, 5, 80, 127
8, 60300, Note_off_c, 5, 80, 64
8, 60300, Note_on_c, 5, 76, 73
8, 60360, Note_off_c, 5, 76, 64
8, 60360, Note_on_c, 5, 80, 127
8, 60420, Note_off_c, 5, 80, 64
8, 60420, Note_on_c, 5, 81, 115
8, 60480, Note_off_c, 5, 81, 64
8, 60480, Note_on_c, 5, 80, 79
8, 60540, Note_off_c, 5, 80, 64
8, 60540, Note_on_c, 5, 76, 43
8, 60600, Note_off_c, 5, 76, 64
8, 60600, Note_on_c, 5, 80, 89
8, 60660, Note_off_c, 5, 80, 64
8, 60660, Note_on_c, 5, 81, 67
8, 60720, Note_off_c, 5, 81, 64
8, 60720, Note_on_c, 5, 80, 47
8, 60780, Note_off_c, 5, 80, 64
8, 60780, Note_on_c, 5, 76, 25
8, 60840, Note_off_c, 5, 76, 64
8, 60840, Note_on_c, 5, 80, 53
8, 60900, Note_off_c, 5, 80, 64
8, 60900, Note_on_c, 5, 81, 39
8, 60960, Note_off_c, 5, 81, 64
8, 60960, Note_on_c, 5, 80, 27
8, 61020, Note_off_c, 5, 80, 64
8, 61020, Note_on_c, 5, 76, 13
8, 61080, Note_off_c, 5, 76, 64
8, 75480, Note_on_c, 5, 80, 127
8, 75540, Note_off_c, 5, 80, 64
8, 75540, Note_on_c, 5, 81, 127
8, 75600, Note_off_c, 5, 81, 64
8, 75600, Note_on_c, 5, 80, 127
8, 75660, Note_off_c, 5, 80, 64
8, 75660, Note_on_c, 5, 76, 73
8, 75720, Note_off_c, 5, 76, 64
8, 75720, Note_on_c, 5, 80, 127
8, 75780, Note_off_c, 5, 80, 64
8, 75780, Note_on_c, 5, 81, 115
8, 75840, Note_off_c, 5, 81, 64
8, 75840, Note_on_c, 5, 80, 79
8, 75900, Note_off_c, 5, 80, 64
8, 75900, Note_on_c, 5, 76, 43
8, 75960, Note_off_c, 5, 76, 64
8, 75960, Note_on_c, 5, 80, 89
8, 76020, Note_off_c, 5, 80, 64
8, 76020, Note_on_c, 5, 81, 67
8, 76080, Note_off_c, 5, 81, 64
8, 76080, Note_on_c, 5, 80, 47
8, 76140, Note_off_c, 5, 80, 64
8, 76140, Note_on_c, 5, 76, 25
8, 76200, Note_off_c, 5, 76, 64
8, 76200, Note_on_c, 5, 80, 53
8, 76260, Note_off_c, 5, 80, 64
8, 76260, Note_on_c, 5, 81, 39
8, 76320, Note_off_c, 5, 81, 64
8, 76320, Note_on_c, 5, 80, 27
8, 76380, Note_off_c, 5, 80, 64
8, 76380, Note_on_c, 5, 76, 13
8, 76440, Note_off_c, 5, 76, 64
8, 83100, Note_on_c, 5, 71, 127
8, 83160, Note_off_c, 5, 71, 64
8, 83160, Note_on_c, 5, 76, 127
8, 83220, Note_off_c, 5, 76, 64
8, 83220, Note_on_c, 5, 83, 127
8, 83280, Note_off_c, 5, 83, 64
8, 83340, Note_on_c, 5, 71, 107
8, 83400, Note_off_c, 5, 71, 64
8, 83400, Note_on_c, 5, 76, 127
8, 83460, Note_off_c, 5, 76, 64
8, 83460, Note_on_c, 5, 83, 127
8, 83520, Note_off_c, 5, 83, 64
8, 83580, Note_on_c, 5, 71, 61
8, 83640, Note_off_c, 5, 71, 64
8, 83640, Note_on_c, 5, 76, 75
8, 83700, Note_off_c, 5, 76, 64
8, 83700, Note_on_c, 5, 83, 89
8, 83760, Note_off_c, 5, 83, 64
8, 83820, Note_on_c, 5, 71, 33
8, 83880, Note_off_c, 5, 71, 64
8, 83880, Note_on_c, 5, 76, 43
8, 83940, Note_off_c, 5, 76, 64
8, 83940, Note_on_c, 5, 83, 53
8, 84000, Note_off_c, 5, 83, 64
8, 88800, Note_on_c, 5, 80, 127
8, 88860, Note_off_c, 5, 80, 64
8, 88860, Note_on_c, 5, 81, 127
8, 88920, Note_off_c, 5, 81, 64
8, 88920, Note_on_c, 5, 80, 127
8, 88980, Note_off_c, 5, 80, 64
8, 88980, Note_on_c, 5, 76, 73
8, 89040, Note_off_c, 5, 76, 64
8, 89040, Note_on_c, 5, 80, 127
8, 89100, Note_off_c, 5, 80, 64
8, 89100, Note_on_c, 5, 81, 115
8, 89160, Note_off_c, 5, 81, 64
8, 89160, Note_on_c, 5, 80, 79
8, 89220, Note_off_c, 5, 80, 64
8, 89220, Note_on_c, 5, 76, 43
8, 89280, Note_off_c, 5, 76, 64
8, 89280, Note_on_c, 5, 80, 89
8, 89340, Note_off_c, 5, 80, 64
8, 89340, Note_on_c, 5, 81, 67
8, 89400, Note_off_c, 5, 81, 64
8, 89400, Note_on_c, 5, 80, 47
8, 89460, Note_off_c, 5, 80, 64
8, 89460, Note_on_c, 5, 76, 25
8, 89520, Note_off_c, 5, 76, 64
8, 89520, Note_on_c, 5, 80, 53
8, 89580, Note_off_c, 5, 80, 64
8, 89580, Note_on_c, 5, 81, 39
8, 89640, Note_off_c, 5, 81, 64
8, 89640, Note_on_c, 5, 80, 27
8, 89700, Note_off_c, 5, 80, 64
8, 89700, Note_on_c, 5, 76, 13
8, 89760, Note_off_c, 5, 76, 64
8, 94680, Note_on_c, 5, 80, 127
8, 94740, Note_off_c, 5, 80, 64
8, 94740, Note_on_c, 5, 81, 127
8, 94800, Note_off_c, 5, 81, 64
8, 94800, Note_on_c, 5, 80, 127
8, 94860, Note_off_c, 5, 80, 64
8, 94860, Note_on_c, 5, 76, 73
8, 94920, Note_off_c, 5, 76, 64
8, 94920, Note_on_c, 5, 80, 127
8, 94980, Note_off_c, 5, 80, 64
8, 94980, Note_on_c, 5, 81, 115
8, 95040, Note_off_c, 5, 81, 64
8, 95040, Note_on_c, 5, 80, 79
8, 95100, Note_off_c, 5, 80, 64
8, 95100, Note_on_c, 5, 76, 43
8, 95160, Note_off_c, 5, 76, 64
8, 95160, Note_on_c, 5, 80, 89
8, 95220, Note_off_c, 5, 80, 64
8, 95220, Note_on_c, 5, 81, 67
8, 95280, Note_off_c, 5, 81, 64
8, 95280, Note_on_c, 5, 80, 47
8, 95340, Note_off_c, 5, 80, 64
8, 95340, Note_on_c, 5, 76, 25
8, 95400, Note_off_c, 5, 76, 64
8, 95400, Note_on_c, 5, 80, 53
8, 95460, Note_off_c, 5, 80, 64
8, 95460, Note_on_c, 5, 81, 39
8, 95520, Note_off_c, 5, 81, 64
8, 95520, Note_on_c, 5, 80, 27
8, 95580, Note_off_c, 5, 80, 64
8, 95580, Note_on_c, 5, 76, 13
8, 95640, Note_off_c, 5, 76, 64
8, 98280, Note_on_c, 5, 71, 127
8, 98340, Note_off_c, 5, 71, 64
8, 98340, Note_on_c, 5, 76, 127
8, 98400, Note_off_c, 5, 76, 64
8, 98400, Note_on_c, 5, 83, 127
8, 98460, Note_off_c, 5, 83, 64
8, 98520, Note_on_c, 5, 71, 107
8, 98580, Note_off_c, 5, 71, 64
8, 98580, Note_on_c, 5, 76, 127
8, 98640, Note_off_c, 5, 76, 64
8, 98640, Note_on_c, 5, 83, 127
8, 98700, Note_off_c, 5, 83, 64
8, 98760, Note_on_c, 5, 71, 61
8, 98820, Note_off_c, 5, 71, 64
8, 98820, Note_on_c, 5, 76, 75
8, 98880, Note_off_c, 5, 76, 64
8, 98880, Note_on_c, 5, 83, 89
8, 98940, Note_off_c, 5, 83, 64
8, 99000, Note_on_c, 5, 71, 33
8, 99060, Note_off_c, 5, 71, 64
8, 99060, Note_on_c, 5, 76, 43
8, 99120, Note_off_c, 5, 76, 64
8, 99120, Note_on_c, 5, 83, 53
8, 99180, Note_off_c, 5, 83, 64
8, 105960, Note_on_c, 5, 71, 127
8, 106020, Note_off_c, 5, 71, 64
8, 106020, Note_on_c, 5, 76, 127
8, 106080, Note_off_c, 5, 76, 64
8, 106080, Note_on_c, 5, 83, 127
8, 106140, Note_off_c, 5, 83, 64
8, 106200, Note_on_c, 5, 71, 107
8, 106260, Note_off_c, 5, 71, 64
8, 106260, Note_on_c, 5, 76, 127
8, 106320, Note_off_c, 5, 76, 64
8, 106320, Note_on_c, 5, 83, 127
8, 106380, Note_off_c, 5, 83, 64
8, 106440, Note_on_c, 5, 71, 61
8, 106500, Note_off_c, 5, 71, 64
8, 106500, Note_on_c, 5, 76, 75
8, 106560, Note_off_c, 5, 76, 64
8, 106560, Note_on_c, 5, 83, 89
8, 106620, Note_off_c, 5, 83, 64
8, 106680, Note_on_c, 5, 71, 33
8, 106740, Note_off_c, 5, 71, 64
8, 106740, Note_on_c, 5, 76, 43
8, 106800, Note_off_c, 5, 76, 64
8, 106800, Note_on_c, 5, 83, 53
8, 106860, Note_off_c, 5, 83, 64
8, 111840, Note_on_c, 5, 80, 127
8, 111900, Note_off_c, 5, 80, 64
8, 111900, Note_on_c, 5, 81, 127
8, 111960, Note_off_c, 5, 81, 64
8, 111960, Note_on_c, 5, 80, 127
8, 112020, Note_off_c, 5, 80, 64
8, 112020, Note_on_c, 5, 76, 73
8, 112080, Note_off_c, 5, 76, 64
8, 112080, Note_on_c, 5, 80, 127
8, 112140, Note_off_c, 5, 80, 64
8, 112140, Note_on_c, 5, 81, 115
8, 112200, Note_off_c, 5, 81, 64
8, 112200, Note_on_c, 5, 80, 79
8, 112260, Note_off_c, 5, 80, 64
8, 112260, Note_on_c, 5, 76, 43
8, 112320, Note_off_c, 5, 76, 64
8, 112320, Note_on_c, 5, 80, 89
8, 112380, Note_off_c, 5, 80, 64
8, 112380, Note_on_c, 5, 81, 67
8, 112440, Note_off_c, 5, 81, 64
8, 112440, Note_on_c, 5, 80, 47
8, 112500, Note_off_c, 5, 80, 64
8, 112500, Note_on_c, 5, 76, 25
8, 112560, Note_off_c, 5, 76, 64
8, 112560, Note_on_c, 5, 80, 53
8, 112620, Note_off_c, 5, 80, 64
8, 112620, Note_on_c, 5, 81, 39
8, 112680, Note_off_c, 5, 81, 64
8, 112680, Note_on_c, 5, 80, 27
8, 112740, Note_off_c, 5, 80, 64
8, 112740, Note_on_c, 5, 76, 13
8, 112800, Note_off_c, 5, 76, 64
8, 113880, Note_on_c, 5, 71, 127
8, 113940, Note_off_c, 5, 71, 64
8, 113940, Note_on_c, 5, 76, 127
8, 114000, Note_off_c, 5, 76, 64
8, 114000, Note_on_c, 5, 83, 127
8, 114060, Note_off_c, 5, 83, 64
8, 114120, Note_on_c, 5, 71, 107
8, 114180, Note_off_c, 5, 71, 64
8, 114180, Note_on_c, 5, 76, 127
8, 114240, Note_off_c, 5, 76, 64
8, 114240, Note_on_c, 5, 83, 127
8, 114300, Note_off_c, 5, 83, 64
8, 114360, Note_on_c, 5, 71, 61
8, 114420, Note_off_c, 5, 71, 64
8, 114420, Note_on_c, 5, 76, 75
8, 114480, Note_off_c, 5, 76, 64
8, 114480, Note_on_c, 5, 83, 89
8, 114540, Note_off_c, 5, 83, 64
8, 114600, Note_on_c, 5, 71, 33
8, 114660, Note_off_c, 5, 71, 64
8, 114660, Note_on_c, 5, 76, 43
8, 114720, Note_off_c, 5, 76, 64
8, 114720, Note_on_c, 5, 83, 53
8, 114780, Note_off_c, 5, 83, 64
8, 125400, Note_on_c, 5, 71, 127
8, 125460, Note_off_c, 5, 71, 64
8, 125460, Note_on_c, 5, 76, 127
8, 125520, Note_off_c, 5, 76, 64
8, 125520, Note_on_c, 5, 83, 127
8, 125580, Note_off_c, 5, 83, 64
8, 125640, Note_on_c, 5, 71, 107
8, 125700, Note_off_c, 5, 71, 64
8, 125700, Note_on_c, 5, 76, 127
8, 125760, Note_off_c, 5, 76, 64
8, 125760, Note_on_c, 5, 83, 127
8, 125820, Note_off_c, 5, 83, 64
8, 125880, Note_on_c, 5, 71, 61
8, 125940, Note_off_c, 5, 71, 64
8, 125940, Note_on_c, 5, 76, 75
8, 126000, Note_off_c, 5, 76, 64
8, 126000, Note_on_c, 5, 83, 89
8, 126060, Note_off_c, 5, 83, 64
8, 126120, Note_on_c, 5, 71, 33
8, 126180, Note_off_c, 5, 71, 64
8, 126180, Note_on_c, 5, 76, 43
8, 126240, Note_off_c, 5, 76, 64
8, 126240, Note_on_c, 5, 83, 53
8, 126300, Note_off_c, 5, 83, 64
8, 127200, Note_on_c, 5, 80, 127
8, 127260, Note_off_c, 5, 80, 64
8, 127260, Note_on_c, 5, 81, 127
8, 127320, Note_off_c, 5, 81, 64
8, 127320, Note_on_c, 5, 80, 127
8, 127380, Note_off_c, 5, 80, 64
8, 127380, Note_on_c, 5, 76, 73
8, 127440, Note_off_c, 5, 76, 64
8, 127440, Note_on_c, 5, 80, 127
8, 127500, Note_off_c, 5, 80, 64
8, 127500, Note_on_c, 5, 81, 115
8, 127560, Note_off_c, 5, 81, 64
8, 127560, Note_on_c, 5, 80, 79
8, 127620, Note_off_c, 5, 80, 64
8, 127620, Note_on_c, 5, 76, 43
8, 127680, Note_off_c, 5, 76, 64
8, 127680, Note_on_c, 5, 80, 89
8, 127740, Note_off_c, 5, 80, 64
8, 127740, Note_on_c, 5, 81, 67
8, 127800, Note_off_c, 5, 81, 64
8, 127800, Note_on_c, 5, 80, 47
8, 127860, Note_off_c, 5, 80, 64
8, 127860, Note_on_c, 5, 76, 25
8, 127920, Note_off_c, 5, 76, 64
8, 127920, Note_on_c, 5, 80, 53
8, 127980, Note_off_c, 5, 80, 64
8, 127980, Note_on_c, 5, 81, 39
8, 128040, Note_off_c, 5, 81, 64
8, 128040, Note_on_c, 5, 80, 27
8, 128100, Note_off_c, 5, 80, 64
8, 128100, Note_on_c, 5, 76, 13
8, 128160, Note_off_c, 5, 76, 64
8, 133080, Note_on_c, 5, 71, 127
8, 133140, Note_off_c, 5, 71, 64
8, 133140, Note_on_c, 5, 76, 127
8, 133200, Note_off_c, 5, 76, 64
8, 133200, Note_on_c, 5, 83, 127
8, 133260, Note_off_c, 5, 83, 64
8, 133320, Note_on_c, 5, 71, 107
8, 133380, Note_off_c, 5, 71, 64
8, 133380, Note_on_c, 5, 76, 127
8, 133440, Note_off_c, 5, 76, 64
8, 133440, Note_on_c, 5, 83, 127
8, 133500, Note_off_c, 5, 83, 64
8, 133560, Note_on_c, 5, 71, 61
8, 133620, Note_off_c, 5, 71, 64
8, 133620, Note_on_c, 5, 76, 75
8, 133680, Note_off_c, 5, 76, 64
8, 133680, Note_on_c, 5, 83, 89
8, 133740, Note_off_c, 5, 83, 64
8, 133800, Note_on_c, 5, 71, 33
8, 133860, Note_off_c, 5, 71, 64
8, 133860, Note_on_c, 5, 76, 43
8, 133920, Note_off_c, 5, 76, 64
8, 133920, Note_on_c, 5, 83, 53
8, 133980, Note_off_c, 5, 83, 64
8, 140760, Note_on_c, 5, 71, 127
8, 140820, Note_off_c, 5, 71, 64
8, 140820, Note_on_c, 5, 76, 127
8, 140880, Note_off_c, 5, 76, 64
8, 140880, Note_on_c, 5, 83, 127
8, 140940, Note_off_c, 5, 83, 64
8, 141000, Note_on_c, 5, 71, 107
8, 141060, Note_off_c, 5, 71, 64
8, 141060, Note_on_c, 5, 76, 127
8, 141120, Note_off_c, 5, 76, 64
8, 141120, Note_on_c, 5, 83, 127
8, 141180, Note_off_c, 5, 83, 64
8, 141240, Note_on_c, 5, 71, 61
8, 141300, Note_off_c, 5, 71, 64
8, 141300, Note_on_c, 5, 76, 75
8, 141360, Note_off_c, 5, 76, 64
8, 141360, Note_on_c, 5, 83, 89
8, 141420, Note_off_c, 5, 83, 64
8, 141480, Note_on_c, 5, 71, 33
8, 141540, Note_off_c, 5, 71, 64
8, 141540, Note_on_c, 5, 76, 43
8, 141600, Note_off_c, 5, 76, 64
8, 141600, Note_on_c, 5, 83, 53
8, 141660, Note_off_c, 5, 83, 64
8, 146400, End_track
9, 0, Start_track
9, 0, Instrument_name_t, "SB AWE32 MIDI Synth [62"
9, 0, Title_t, "Choosey Lover"
9, 0, Control_c, 6, 121, 8
9, 2, Program_c, 6, 0
9, 4, Program_c, 6, 62
9, 6, Control_c, 6, 7, 65
9, 10, Control_c, 6, 1, 0
9, 15, Control_c, 6, 10, 74
9, 20, Control_c, 6, 91, 0
9, 25, Control_c, 6, 92, 0
9, 30, Control_c, 6, 93, 0
9, 35, Control_c, 6, 94, 0
9, 40, Control_c, 6, 95, 0
9, 95, Copyright_t, "1998 Sequenced by Taro Sato"
9, 22320, Note_on_c, 6, 64, 127
9, 22320, Note_on_c, 6, 59, 127
9, 22440, Note_off_c, 6, 64, 64
9, 22440, Note_off_c, 6, 59, 64
9, 22440, Note_on_c, 6, 66, 127
9, 22440, Note_on_c, 6, 61, 127
9, 22560, Pitch_bend_c, 6, 2816
9, 22560, Note_off_c, 6, 66, 64
9, 22560, Note_off_c, 6, 61, 64
9, 22560, Note_on_c, 6, 69, 127
9, 22560, Note_on_c, 6, 64, 127
9, 22567, Pitch_bend_c, 6, 2899
9, 22574, Pitch_bend_c, 6, 3129
9, 22581, Pitch_bend_c, 6, 3505
9, 22588, Pitch_bend_c, 6, 4028
9, 22595, Pitch_bend_c, 6, 4697
9, 22602, Pitch_bend_c, 6, 5512
9, 22609, Pitch_bend_c, 6, 6474
9, 22616, Pitch_bend_c, 6, 7582
9, 22620, Pitch_bend_c, 6, 8192
9, 22800, Note_off_c, 6, 69, 64
9, 22800, Note_off_c, 6, 64, 64
9, 22800, Note_on_c, 6, 68, 127
9, 22800, Note_on_c, 6, 64, 127
9, 23040, Note_off_c, 6, 68, 64
9, 23040, Note_off_c, 6, 64, 64
9, 23040, Note_on_c, 6, 64, 127
9, 23280, Note_off_c, 6, 64, 64
9, 23280, Note_on_c, 6, 59, 127
9, 23340, Note_off_c, 6, 59, 64
9, 23340, Note_on_c, 6, 61, 127
9, 23400, Note_off_c, 6, 61, 64
9, 23400, Note_on_c, 6, 59, 127
9, 24960, Note_off_c, 6, 59, 64
9, 26160, Note_on_c, 6, 64, 127
9, 26160, Note_on_c, 6, 59, 127
9, 26280, Note_off_c, 6, 64, 64
9, 26280, Note_off_c, 6, 59, 64
9, 26280, Note_on_c, 6, 66, 127
9, 26280, Note_on_c, 6, 61, 127
9, 26400, Note_off_c, 6, 66, 64
9, 26400, Note_off_c, 6, 61, 64
9, 26400, Note_on_c, 6, 69, 127
9, 26400, Note_on_c, 6, 64, 127
9, 26640, Note_off_c, 6, 69, 64
9, 26640, Note_off_c, 6, 64, 64
9, 26640, Note_on_c, 6, 68, 127
9, 26640, Note_on_c, 6, 64, 127
9, 26880, Note_off_c, 6, 68, 64
9, 26880, Note_off_c, 6, 64, 64
9, 30000, Note_on_c, 6, 64, 127
9, 30000, Note_on_c, 6, 59, 127
9, 30120, Note_off_c, 6, 64, 64
9, 30120, Note_off_c, 6, 59, 64
9, 30120, Note_on_c, 6, 66, 127
9, 30120, Note_on_c, 6, 61, 127
9, 30240, Pitch_bend_c, 6, 2816
9, 30240, Note_off_c, 6, 66, 64
9, 30240, Note_off_c, 6, 61, 64
9, 30240, Note_on_c, 6, 69, 127
9, 30240, Note_on_c, 6, 64, 127
9, 30247, Pitch_bend_c, 6, 2899
9, 30254, Pitch_bend_c, 6, 3129
9, 30261, Pitch_bend_c, 6, 3505
9, 30268, Pitch_bend_c, 6, 4028
9, 30275, Pitch_bend_c, 6, 4697
9, 30282, Pitch_bend_c, 6, 5512
9, 30289, Pitch_bend_c, 6, 6474
9, 30296, Pitch_bend_c, 6, 7582
9, 30300, Pitch_bend_c, 6, 8192
9, 30480, Note_off_c, 6, 69, 64
9, 30480, Note_off_c, 6, 64, 64
9, 30480, Note_on_c, 6, 68, 127
9, 30480, Note_on_c, 6, 64, 127
9, 30720, Note_off_c, 6, 68, 64
9, 30720, Note_off_c, 6, 64, 64
9, 30720, Note_on_c, 6, 64, 127
9, 30960, Note_off_c, 6, 64, 64
9, 30960, Note_on_c, 6, 59, 127
9, 31020, Note_off_c, 6, 59, 64
9, 31020, Note_on_c, 6, 61, 127
9, 31080, Note_off_c, 6, 61, 64
9, 31080, Note_on_c, 6, 59, 127
9, 32640, Note_off_c, 6, 59, 64
9, 33840, Note_on_c, 6, 64, 127
9, 33840, Note_on_c, 6, 59, 127
9, 33960, Note_off_c, 6, 64, 64
9, 33960, Note_off_c, 6, 59, 64
9, 33960, Note_on_c, 6, 66, 127
9, 33960, Note_on_c, 6, 61, 127
9, 34080, Note_off_c, 6, 66, 64
9, 34080, Note_off_c, 6, 61, 64
9, 34080, Note_on_c, 6, 69, 127
9, 34080, Note_on_c, 6, 64, 127
9, 34320, Note_off_c, 6, 69, 64
9, 34320, Note_off_c, 6, 64, 64
9, 34320, Note_on_c, 6, 68, 127
9, 34320, Note_on_c, 6, 64, 127
9, 34560, Note_off_c, 6, 68, 64
9, 34560, Note_off_c, 6, 64, 64
9, 35040, Pitch_bend_c, 6, 8192
9, 37680, Note_on_c, 6, 64, 127
9, 37680, Note_on_c, 6, 59, 127
9, 37800, Note_off_c, 6, 64, 64
9, 37800, Note_off_c, 6, 59, 64
9, 37800, Note_on_c, 6, 66, 127
9, 37800, Note_on_c, 6, 61, 127
9, 37920, Pitch_bend_c, 6, 2816
9, 37920, Note_off_c, 6, 66, 64
9, 37920, Note_off_c, 6, 61, 64
9, 37920, Note_on_c, 6, 69, 127
9, 37920, Note_on_c, 6, 64, 127
9, 37927, Pitch_bend_c, 6, 2899
9, 37934, Pitch_bend_c, 6, 3129
9, 37941, Pitch_bend_c, 6, 3505
9, 37948, Pitch_bend_c, 6, 4028
9, 37955, Pitch_bend_c, 6, 4697
9, 37962, Pitch_bend_c, 6, 5512
9, 37969, Pitch_bend_c, 6, 6474
9, 37976, Pitch_bend_c, 6, 7582
9, 37980, Pitch_bend_c, 6, 8192
9, 38160, Note_off_c, 6, 69, 64
9, 38160, Note_off_c, 6, 64, 64
9, 38160, Note_on_c, 6, 68, 127
9, 38160, Note_on_c, 6, 64, 127
9, 38400, Note_off_c, 6, 68, 64
9, 38400, Note_off_c, 6, 64, 64
9, 38400, Note_on_c, 6, 64, 127
9, 38640, Note_off_c, 6, 64, 64
9, 38640, Note_on_c, 6, 59, 127
9, 38700, Note_off_c, 6, 59, 64
9, 38700, Note_on_c, 6, 61, 127
9, 38760, Note_off_c, 6, 61, 64
9, 38760, Note_on_c, 6, 59, 127
9, 40320, Note_off_c, 6, 59, 64
9, 41520, Note_on_c, 6, 64, 127
9, 41520, Note_on_c, 6, 59, 127
9, 41640, Note_off_c, 6, 64, 64
9, 41640, Note_off_c, 6, 59, 64
9, 41640, Note_on_c, 6, 66, 127
9, 41640, Note_on_c, 6, 61, 127
9, 41760, Note_off_c, 6, 66, 64
9, 41760, Note_off_c, 6, 61, 64
9, 41760, Note_on_c, 6, 69, 127
9, 41760, Note_on_c, 6, 64, 127
9, 42000, Note_off_c, 6, 69, 64
9, 42000, Note_off_c, 6, 64, 64
9, 42000, Note_on_c, 6, 68, 127
9, 42000, Note_on_c, 6, 64, 127
9, 42240, Note_off_c, 6, 68, 64
9, 42240, Note_off_c, 6, 64, 64
9, 45360, Note_on_c, 6, 64, 127
9, 45360, Note_on_c, 6, 59, 127
9, 45480, Note_off_c, 6, 64, 64
9, 45480, Note_off_c, 6, 59, 64
9, 45480, Note_on_c, 6, 66, 127
9, 45480, Note_on_c, 6, 61, 127
9, 45600, Pitch_bend_c, 6, 2816
9, 45600, Note_off_c, 6, 66, 64
9, 45600, Note_off_c, 6, 61, 64
9, 45600, Note_on_c, 6, 69, 127
9, 45600, Note_on_c, 6, 64, 127
9, 45607, Pitch_bend_c, 6, 2899
9, 45614, Pitch_bend_c, 6, 3129
9, 45621, Pitch_bend_c, 6, 3505
9, 45628, Pitch_bend_c, 6, 4028
9, 45635, Pitch_bend_c, 6, 4697
9, 45642, Pitch_bend_c, 6, 5512
9, 45649, Pitch_bend_c, 6, 6474
9, 45656, Pitch_bend_c, 6, 7582
9, 45660, Pitch_bend_c, 6, 8192
9, 45840, Note_off_c, 6, 69, 64
9, 45840, Note_off_c, 6, 64, 64
9, 45840, Note_on_c, 6, 68, 127
9, 45840, Note_on_c, 6, 64, 127
9, 46080, Note_off_c, 6, 68, 64
9, 46080, Note_off_c, 6, 64, 64
9, 46080, Note_on_c, 6, 64, 127
9, 46320, Note_off_c, 6, 64, 64
9, 46320, Note_on_c, 6, 59, 127
9, 46380, Note_off_c, 6, 59, 64
9, 46380, Note_on_c, 6, 61, 127
9, 46440, Note_off_c, 6, 61, 64
9, 46440, Note_on_c, 6, 59, 127
9, 48000, Note_off_c, 6, 59, 64
9, 49200, Note_on_c, 6, 64, 127
9, 49200, Note_on_c, 6, 59, 127
9, 49320, Note_off_c, 6, 64, 64
9, 49320, Note_off_c, 6, 59, 64
9, 49320, Note_on_c, 6, 66, 127
9, 49320, Note_on_c, 6, 61, 127
9, 49440, Note_off_c, 6, 66, 64
9, 49440, Note_off_c, 6, 61, 64
9, 49440, Note_on_c, 6, 69, 127
9, 49440, Note_on_c, 6, 64, 127
9, 49680, Note_off_c, 6, 69, 64
9, 49680, Note_off_c, 6, 64, 64
9, 49680, Note_on_c, 6, 68, 127
9, 49680, Note_on_c, 6, 64, 127
9, 49920, Note_off_c, 6, 68, 64
9, 49920, Note_off_c, 6, 64, 64
9, 50400, Pitch_bend_c, 6, 8192
9, 53040, Note_on_c, 6, 64, 127
9, 53040, Note_on_c, 6, 59, 127
9, 53160, Note_off_c, 6, 64, 64
9, 53160, Note_off_c, 6, 59, 64
9, 53160, Note_on_c, 6, 66, 127
9, 53160, Note_on_c, 6, 61, 127
9, 53280, Pitch_bend_c, 6, 2816
9, 53280, Note_off_c, 6, 66, 64
9, 53280, Note_off_c, 6, 61, 64
9, 53280, Note_on_c, 6, 69, 127
9, 53280, Note_on_c, 6, 64, 127
9, 53287, Pitch_bend_c, 6, 2899
9, 53294, Pitch_bend_c, 6, 3129
9, 53301, Pitch_bend_c, 6, 3505
9, 53308, Pitch_bend_c, 6, 4028
9, 53315, Pitch_bend_c, 6, 4697
9, 53322, Pitch_bend_c, 6, 5512
9, 53329, Pitch_bend_c, 6, 6474
9, 53336, Pitch_bend_c, 6, 7582
9, 53340, Pitch_bend_c, 6, 8192
9, 53520, Note_off_c, 6, 69, 64
9, 53520, Note_off_c, 6, 64, 64
9, 53520, Note_on_c, 6, 68, 127
9, 53520, Note_on_c, 6, 64, 127
9, 53760, Note_off_c, 6, 68, 64
9, 53760, Note_off_c, 6, 64, 64
9, 53760, Note_on_c, 6, 64, 127
9, 54000, Note_off_c, 6, 64, 64
9, 54000, Note_on_c, 6, 59, 127
9, 54060, Note_off_c, 6, 59, 64
9, 54060, Note_on_c, 6, 61, 127
9, 54120, Note_off_c, 6, 61, 64
9, 54120, Note_on_c, 6, 59, 127
9, 55680, Note_off_c, 6, 59, 64
9, 56880, Note_on_c, 6, 64, 127
9, 56880, Note_on_c, 6, 59, 127
9, 57000, Note_off_c, 6, 64, 64
9, 57000, Note_off_c, 6, 59, 64
9, 57000, Note_on_c, 6, 66, 127
9, 57000, Note_on_c, 6, 61, 127
9, 57120, Note_off_c, 6, 66, 64
9, 57120, Note_off_c, 6, 61, 64
9, 57120, Note_on_c, 6, 69, 127
9, 57120, Note_on_c, 6, 64, 127
9, 57360, Note_off_c, 6, 69, 64
9, 57360, Note_off_c, 6, 64, 64
9, 57360, Note_on_c, 6, 68, 127
9, 57360, Note_on_c, 6, 64, 127
9, 57600, Note_off_c, 6, 68, 64
9, 57600, Note_off_c, 6, 64, 64
9, 60720, Note_on_c, 6, 64, 127
9, 60720, Note_on_c, 6, 59, 127
9, 60840, Note_off_c, 6, 64, 64
9, 60840, Note_off_c, 6, 59, 64
9, 60840, Note_on_c, 6, 66, 127
9, 60840, Note_on_c, 6, 61, 127
9, 60960, Pitch_bend_c, 6, 2816
9, 60960, Note_off_c, 6, 66, 64
9, 60960, Note_off_c, 6, 61, 64
9, 60960, Note_on_c, 6, 69, 127
9, 60960, Note_on_c, 6, 64, 127
9, 60967, Pitch_bend_c, 6, 2899
9, 60974, Pitch_bend_c, 6, 3129
9, 60981, Pitch_bend_c, 6, 3505
9, 60988, Pitch_bend_c, 6, 4028
9, 60995, Pitch_bend_c, 6, 4697
9, 61002, Pitch_bend_c, 6, 5512
9, 61009, Pitch_bend_c, 6, 6474
9, 61016, Pitch_bend_c, 6, 7582
9, 61020, Pitch_bend_c, 6, 8192
9, 61200, Note_off_c, 6, 69, 64
9, 61200, Note_off_c, 6, 64, 64
9, 61200, Note_on_c, 6, 68, 127
9, 61200, Note_on_c, 6, 64, 127
9, 61440, Note_off_c, 6, 68, 64
9, 61440, Note_off_c, 6, 64, 64
9, 61440, Note_on_c, 6, 64, 127
9, 61680, Note_off_c, 6, 64, 64
9, 61680, Note_on_c, 6, 59, 127
9, 61740, Note_off_c, 6, 59, 64
9, 61740, Note_on_c, 6, 61, 127
9, 61800, Note_off_c, 6, 61, 64
9, 61800, Note_on_c, 6, 59, 127
9, 63360, Note_off_c, 6, 59, 64
9, 64560, Note_on_c, 6, 64, 127
9, 64560, Note_on_c, 6, 59, 127
9, 64680, Note_off_c, 6, 64, 64
9, 64680, Note_off_c, 6, 59, 64
9, 64680, Note_on_c, 6, 66, 127
9, 64680, Note_on_c, 6, 61, 127
9, 64800, Note_off_c, 6, 66, 64
9, 64800, Note_off_c, 6, 61, 64
9, 64800, Note_on_c, 6, 69, 127
9, 64800, Note_on_c, 6, 64, 127
9, 65040, Note_off_c, 6, 69, 64
9, 65040, Note_off_c, 6, 64, 64
9, 65040, Note_on_c, 6, 68, 127
9, 65040, Note_on_c, 6, 64, 127
9, 65280, Note_off_c, 6, 68, 64
9, 65280, Note_off_c, 6, 64, 64
9, 65760, Pitch_bend_c, 6, 8192
9, 68400, Note_on_c, 6, 64, 127
9, 68400, Note_on_c, 6, 59, 127
9, 68520, Note_off_c, 6, 64, 64
9, 68520, Note_off_c, 6, 59, 64
9, 68520, Note_on_c, 6, 66, 127
9, 68520, Note_on_c, 6, 61, 127
9, 68640, Pitch_bend_c, 6, 2816
9, 68640, Note_off_c, 6, 66, 64
9, 68640, Note_off_c, 6, 61, 64
9, 68640, Note_on_c, 6, 69, 127
9, 68640, Note_on_c, 6, 64, 127
9, 68647, Pitch_bend_c, 6, 2899
9, 68654, Pitch_bend_c, 6, 3129
9, 68661, Pitch_bend_c, 6, 3505
9, 68668, Pitch_bend_c, 6, 4028
9, 68675, Pitch_bend_c, 6, 4697
9, 68682, Pitch_bend_c, 6, 5512
9, 68689, Pitch_bend_c, 6, 6474
9, 68696, Pitch_bend_c, 6, 7582
9, 68700, Pitch_bend_c, 6, 8192
9, 68880, Note_off_c, 6, 69, 64
9, 68880, Note_off_c, 6, 64, 64
9, 68880, Note_on_c, 6, 68, 127
9, 68880, Note_on_c, 6, 64, 127
9, 69120, Note_off_c, 6, 68, 64
9, 69120, Note_off_c, 6, 64, 64
9, 69120, Note_on_c, 6, 64, 127
9, 69360, Note_off_c, 6, 64, 64
9, 69360, Note_on_c, 6, 59, 127
9, 69420, Note_off_c, 6, 59, 64
9, 69420, Note_on_c, 6, 61, 127
9, 69480, Note_off_c, 6, 61, 64
9, 69480, Note_on_c, 6, 59, 127
9, 71040, Note_off_c, 6, 59, 64
9, 72240, Note_on_c, 6, 64, 127
9, 72240, Note_on_c, 6, 59, 127
9, 72360, Note_off_c, 6, 64, 64
9, 72360, Note_off_c, 6, 59, 64
9, 72360, Note_on_c, 6, 66, 127
9, 72360, Note_on_c, 6, 61, 127
9, 72480, Note_off_c, 6, 66, 64
9, 72480, Note_off_c, 6, 61, 64
9, 72480, Note_on_c, 6, 69, 127
9, 72480, Note_on_c, 6, 64, 127
9, 72720, Note_off_c, 6, 69, 64
9, 72720, Note_off_c, 6, 64, 64
9, 72720, Note_on_c, 6, 68, 127
9, 72720, Note_on_c, 6, 64, 127
9, 72960, Note_off_c, 6, 68, 64
9, 72960, Note_off_c, 6, 64, 64
9, 76080, Note_on_c, 6, 64, 127
9, 76080, Note_on_c, 6, 59, 127
9, 76200, Note_off_c, 6, 64, 64
9, 76200, Note_off_c, 6, 59, 64
9, 76200, Note_on_c, 6, 66, 127
9, 76200, Note_on_c, 6, 61, 127
9, 76320, Pitch_bend_c, 6, 2816
9, 76320, Note_off_c, 6, 66, 64
9, 76320, Note_off_c, 6, 61, 64
9, 76320, Note_on_c, 6, 69, 127
9, 76320, Note_on_c, 6, 64, 127
9, 76327, Pitch_bend_c, 6, 2899
9, 76334, Pitch_bend_c, 6, 3129
9, 76341, Pitch_bend_c, 6, 3505
9, 76348, Pitch_bend_c, 6, 4028
9, 76355, Pitch_bend_c, 6, 4697
9, 76362, Pitch_bend_c, 6, 5512
9, 76369, Pitch_bend_c, 6, 6474
9, 76376, Pitch_bend_c, 6, 7582
9, 76380, Pitch_bend_c, 6, 8192
9, 76560, Note_off_c, 6, 69, 64
9, 76560, Note_off_c, 6, 64, 64
9, 76560, Note_on_c, 6, 68, 127
9, 76560, Note_on_c, 6, 64, 127
9, 76800, Note_off_c, 6, 68, 64
9, 76800, Note_off_c, 6, 64, 64
9, 76800, Note_on_c, 6, 64, 127
9, 77040, Note_off_c, 6, 64, 64
9, 77040, Note_on_c, 6, 59, 127
9, 77100, Note_off_c, 6, 59, 64
9, 77100, Note_on_c, 6, 61, 127
9, 77160, Note_off_c, 6, 61, 64
9, 77160, Note_on_c, 6, 59, 127
9, 78720, Note_off_c, 6, 59, 64
9, 79920, Note_on_c, 6, 64, 127
9, 79920, Note_on_c, 6, 59, 127
9, 80040, Note_off_c, 6, 64, 64
9, 80040, Note_off_c, 6, 59, 64
9, 80040, Note_on_c, 6, 66, 127
9, 80040, Note_on_c, 6, 61, 127
9, 80160, Note_off_c, 6, 66, 64
9, 80160, Note_off_c, 6, 61, 64
9, 80160, Note_on_c, 6, 69, 127
9, 80160, Note_on_c, 6, 64, 127
9, 80400, Note_off_c, 6, 69, 64
9, 80400, Note_off_c, 6, 64, 64
9, 80400, Note_on_c, 6, 68, 127
9, 80400, Note_on_c, 6, 64, 127
9, 80640, Note_off_c, 6, 68, 64
9, 80640, Note_off_c, 6, 64, 64
9, 81120, Pitch_bend_c, 6, 8192
9, 83760, Note_on_c, 6, 64, 127
9, 83760, Note_on_c, 6, 59, 127
9, 83880, Note_off_c, 6, 64, 64
9, 83880, Note_off_c, 6, 59, 64
9, 83880, Note_on_c, 6, 66, 127
9, 83880, Note_on_c, 6, 61, 127
9, 84000, Pitch_bend_c, 6, 2816
9, 84000, Note_off_c, 6, 66, 64
9, 84000, Note_off_c, 6, 61, 64
9, 84000, Note_on_c, 6, 69, 127
9, 84000, Note_on_c, 6, 64, 127
9, 84007, Pitch_bend_c, 6, 2899
9, 84014, Pitch_bend_c, 6, 3129
9, 84021, Pitch_bend_c, 6, 3505
9, 84028, Pitch_bend_c, 6, 4028
9, 84035, Pitch_bend_c, 6, 4697
9, 84042, Pitch_bend_c, 6, 5512
9, 84049, Pitch_bend_c, 6, 6474
9, 84056, Pitch_bend_c, 6, 7582
9, 84060, Pitch_bend_c, 6, 8192
9, 84240, Note_off_c, 6, 69, 64
9, 84240, Note_off_c, 6, 64, 64
9, 84240, Note_on_c, 6, 68, 127
9, 84240, Note_on_c, 6, 64, 127
9, 84480, Note_off_c, 6, 68, 64
9, 84480, Note_off_c, 6, 64, 64
9, 84480, Note_on_c, 6, 64, 127
9, 84720, Note_off_c, 6, 64, 64
9, 84720, Note_on_c, 6, 59, 127
9, 84780, Note_off_c, 6, 59, 64
9, 84780, Note_on_c, 6, 61, 127
9, 84840, Note_off_c, 6, 61, 64
9, 84840, Note_on_c, 6, 59, 127
9, 86400, Note_off_c, 6, 59, 64
9, 87600, Note_on_c, 6, 64, 127
9, 87600, Note_on_c, 6, 59, 127
9, 87720, Note_off_c, 6, 64, 64
9, 87720, Note_off_c, 6, 59, 64
9, 87720, Note_on_c, 6, 66, 127
9, 87720, Note_on_c, 6, 61, 127
9, 87840, Note_off_c, 6, 66, 64
9, 87840, Note_off_c, 6, 61, 64
9, 87840, Note_on_c, 6, 69, 127
9, 87840, Note_on_c, 6, 64, 127
9, 88080, Note_off_c, 6, 69, 64
9, 88080, Note_off_c, 6, 64, 64
9, 88080, Note_on_c, 6, 68, 127
9, 88080, Note_on_c, 6, 64, 127
9, 88320, Note_off_c, 6, 68, 64
9, 88320, Note_off_c, 6, 64, 64
9, 91440, Note_on_c, 6, 64, 127
9, 91440, Note_on_c, 6, 59, 127
9, 91560, Note_off_c, 6, 64, 64
9, 91560, Note_off_c, 6, 59, 64
9, 91560, Note_on_c, 6, 66, 127
9, 91560, Note_on_c, 6, 61, 127
9, 91680, Pitch_bend_c, 6, 2816
9, 91680, Note_off_c, 6, 66, 64
9, 91680, Note_off_c, 6, 61, 64
9, 91680, Note_on_c, 6, 69, 127
9, 91680, Note_on_c, 6, 64, 127
9, 91687, Pitch_bend_c, 6, 2899
9, 91694, Pitch_bend_c, 6, 3129
9, 91701, Pitch_bend_c, 6, 3505
9, 91708, Pitch_bend_c, 6, 4028
9, 91715, Pitch_bend_c, 6, 4697
9, 91722, Pitch_bend_c, 6, 5512
9, 91729, Pitch_bend_c, 6, 6474
9, 91736, Pitch_bend_c, 6, 7582
9, 91740, Pitch_bend_c, 6, 8192
9, 91920, Note_off_c, 6, 69, 64
9, 91920, Note_off_c, 6, 64, 64
9, 91920, Note_on_c, 6, 68, 127
9, 91920, Note_on_c, 6, 64, 127
9, 92160, Note_off_c, 6, 68, 64
9, 92160, Note_off_c, 6, 64, 64
9, 92160, Note_on_c, 6, 64, 127
9, 92400, Note_off_c, 6, 64, 64
9, 92400, Note_on_c, 6, 59, 127
9, 92460, Note_off_c, 6, 59, 64
9, 92460, Note_on_c, 6, 61, 127
9, 92520, Note_off_c, 6, 61, 64
9, 92520, Note_on_c, 6, 59, 127
9, 94080, Note_off_c, 6, 59, 64
9, 95280, Note_on_c, 6, 64, 127
9, 95280, Note_on_c, 6, 59, 127
9, 95400, Note_off_c, 6, 64, 64
9, 95400, Note_off_c, 6, 59, 64
9, 95400, Note_on_c, 6, 66, 127
9, 95400, Note_on_c, 6, 61, 127
9, 95520, Note_off_c, 6, 66, 64
9, 95520, Note_off_c, 6, 61, 64
9, 95520, Note_on_c, 6, 69, 127
9, 95520, Note_on_c, 6, 64, 127
9, 95760, Note_off_c, 6, 69, 64
9, 95760, Note_off_c, 6, 64, 64
9, 95760, Note_on_c, 6, 68, 127
9, 95760, Note_on_c, 6, 64, 127
9, 96000, Note_off_c, 6, 68, 64
9, 96000, Note_off_c, 6, 64, 64
9, 96480, Pitch_bend_c, 6, 8192
9, 114480, Note_on_c, 6, 64, 127
9, 114480, Note_on_c, 6, 59, 127
9, 114600, Note_off_c, 6, 64, 64
9, 114600, Note_off_c, 6, 59, 64
9, 114600, Note_on_c, 6, 66, 127
9, 114600, Note_on_c, 6, 61, 127
9, 114720, Pitch_bend_c, 6, 2816
9, 114720, Note_off_c, 6, 66, 64
9, 114720, Note_off_c, 6, 61, 64
9, 114720, Note_on_c, 6, 69, 127
9, 114720, Note_on_c, 6, 64, 127
9, 114727, Pitch_bend_c, 6, 2899
9, 114734, Pitch_bend_c, 6, 3129
9, 114741, Pitch_bend_c, 6, 3505
9, 114748, Pitch_bend_c, 6, 4028
9, 114755, Pitch_bend_c, 6, 4697
9, 114762, Pitch_bend_c, 6, 5512
9, 114769, Pitch_bend_c, 6, 6474
9, 114776, Pitch_bend_c, 6, 7582
9, 114780, Pitch_bend_c, 6, 8192
9, 114960, Note_off_c, 6, 69, 64
9, 114960, Note_off_c, 6, 64, 64
9, 114960, Note_on_c, 6, 68, 127
9, 114960, Note_on_c, 6, 64, 127
9, 115200, Note_off_c, 6, 68, 64
9, 115200, Note_off_c, 6, 64, 64
9, 115200, Note_on_c, 6, 64, 127
9, 115440, Note_off_c, 6, 64, 64
9, 115440, Note_on_c, 6, 59, 127
9, 115500, Note_off_c, 6, 59, 64
9, 115500, Note_on_c, 6, 61, 127
9, 115560, Note_off_c, 6, 61, 64
9, 115560, Note_on_c, 6, 59, 127
9, 117120, Note_off_c, 6, 59, 64
9, 118320, Note_on_c, 6, 64, 127
9, 118320, Note_on_c, 6, 59, 127
9, 118440, Note_off_c, 6, 64, 64
9, 118440, Note_off_c, 6, 59, 64
9, 118440, Note_on_c, 6, 66, 127
9, 118440, Note_on_c, 6, 61, 127
9, 118560, Note_off_c, 6, 66, 64
9, 118560, Note_off_c, 6, 61, 64
9, 118560, Note_on_c, 6, 69, 127
9, 118560, Note_on_c, 6, 64, 127
9, 118800, Note_off_c, 6, 69, 64
9, 118800, Note_off_c, 6, 64, 64
9, 118800, Note_on_c, 6, 68, 127
9, 118800, Note_on_c, 6, 64, 127
9, 119040, Note_off_c, 6, 68, 64
9, 119040, Note_off_c, 6, 64, 64
9, 122160, Note_on_c, 6, 64, 127
9, 122160, Note_on_c, 6, 59, 127
9, 122280, Note_off_c, 6, 64, 64
9, 122280, Note_off_c, 6, 59, 64
9, 122280, Note_on_c, 6, 66, 127
9, 122280, Note_on_c, 6, 61, 127
9, 122400, Pitch_bend_c, 6, 2816
9, 122400, Note_off_c, 6, 66, 64
9, 122400, Note_off_c, 6, 61, 64
9, 122400, Note_on_c, 6, 69, 127
9, 122400, Note_on_c, 6, 64, 127
9, 122407, Pitch_bend_c, 6, 2899
9, 122414, Pitch_bend_c, 6, 3129
9, 122421, Pitch_bend_c, 6, 3505
9, 122428, Pitch_bend_c, 6, 4028
9, 122435, Pitch_bend_c, 6, 4697
9, 122442, Pitch_bend_c, 6, 5512
9, 122449, Pitch_bend_c, 6, 6474
9, 122456, Pitch_bend_c, 6, 7582
9, 122460, Pitch_bend_c, 6, 8192
9, 122640, Note_off_c, 6, 69, 64
9, 122640, Note_off_c, 6, 64, 64
9, 122640, Note_on_c, 6, 68, 127
9, 122640, Note_on_c, 6, 64, 127
9, 122880, Note_off_c, 6, 68, 64
9, 122880, Note_off_c, 6, 64, 64
9, 122880, Note_on_c, 6, 64, 127
9, 123120, Note_off_c, 6, 64, 64
9, 123120, Note_on_c, 6, 59, 127
9, 123180, Note_off_c, 6, 59, 64
9, 123180, Note_on_c, 6, 61, 127
9, 123240, Note_off_c, 6, 61, 64
9, 123240, Note_on_c, 6, 59, 127
9, 124800, Note_off_c, 6, 59, 64
9, 126000, Note_on_c, 6, 64, 127
9, 126000, Note_on_c, 6, 59, 127
9, 126120, Note_off_c, 6, 64, 64
9, 126120, Note_off_c, 6, 59, 64
9, 126120, Note_on_c, 6, 66, 127
9, 126120, Note_on_c, 6, 61, 127
9, 126240, Note_off_c, 6, 66, 64
9, 126240, Note_off_c, 6, 61, 64
9, 126240, Note_on_c, 6, 69, 127
9, 126240, Note_on_c, 6, 64, 127
9, 126480, Note_off_c, 6, 69, 64
9, 126480, Note_off_c, 6, 64, 64
9, 126480, Note_on_c, 6, 68, 127
9, 126480, Note_on_c, 6, 64, 127
9, 126720, Note_off_c, 6, 68, 64
9, 126720, Note_off_c, 6, 64, 64
9, 127200, Pitch_bend_c, 6, 8192
9, 129840, Note_on_c, 6, 64, 127
9, 129840, Note_on_c, 6, 59, 127
9, 129960, Note_off_c, 6, 64, 64
9, 129960, Note_off_c, 6, 59, 64
9, 129960, Note_on_c, 6, 66, 127
9, 129960, Note_on_c, 6, 61, 127
9, 130080, Pitch_bend_c, 6, 2816
9, 130080, Note_off_c, 6, 66, 64
9, 130080, Note_off_c, 6, 61, 64
9, 130080, Note_on_c, 6, 69, 127
9, 130080, Note_on_c, 6, 64, 127
9, 130087, Pitch_bend_c, 6, 2899
9, 130094, Pitch_bend_c, 6, 3129
9, 130101, Pitch_bend_c, 6, 3505
9, 130108, Pitch_bend_c, 6, 4028
9, 130115, Pitch_bend_c, 6, 4697
9, 130122, Pitch_bend_c, 6, 5512
9, 130129, Pitch_bend_c, 6, 6474
9, 130136, Pitch_bend_c, 6, 7582
9, 130140, Pitch_bend_c, 6, 8192
9, 130320, Note_off_c, 6, 69, 64
9, 130320, Note_off_c, 6, 64, 64
9, 130320, Note_on_c, 6, 68, 127
9, 130320, Note_on_c, 6, 64, 127
9, 130560, Note_off_c, 6, 68, 64
9, 130560, Note_off_c, 6, 64, 64
9, 130560, Note_on_c, 6, 64, 127
9, 130800, Note_off_c, 6, 64, 64
9, 130800, Note_on_c, 6, 59, 127
9, 130860, Note_off_c, 6, 59, 64
9, 130860, Note_on_c, 6, 61, 127
9, 130920, Note_off_c, 6, 61, 64
9, 130920, Note_on_c, 6, 59, 127
9, 132480, Note_off_c, 6, 59, 64
9, 133680, Note_on_c, 6, 64, 127
9, 133680, Note_on_c, 6, 59, 127
9, 133800, Note_off_c, 6, 64, 64
9, 133800, Note_off_c, 6, 59, 64
9, 133800, Note_on_c, 6, 66, 127
9, 133800, Note_on_c, 6, 61, 127
9, 133920, Note_off_c, 6, 66, 64
9, 133920, Note_off_c, 6, 61, 64
9, 133920, Note_on_c, 6, 69, 127
9, 133920, Note_on_c, 6, 64, 127
9, 134160, Note_off_c, 6, 69, 64
9, 134160, Note_off_c, 6, 64, 64
9, 134160, Note_on_c, 6, 68, 127
9, 134160, Note_on_c, 6, 64, 127
9, 134400, Note_off_c, 6, 68, 64
9, 134400, Note_off_c, 6, 64, 64
9, 137520, Note_on_c, 6, 64, 127
9, 137520, Note_on_c, 6, 59, 127
9, 137640, Note_off_c, 6, 64, 64
9, 137640, Note_off_c, 6, 59, 64
9, 137640, Note_on_c, 6, 66, 127
9, 137640, Note_on_c, 6, 61, 127
9, 137760, Pitch_bend_c, 6, 2816
9, 137760, Note_off_c, 6, 66, 64
9, 137760, Note_off_c, 6, 61, 64
9, 137760, Note_on_c, 6, 69, 127
9, 137760, Note_on_c, 6, 64, 127
9, 137767, Pitch_bend_c, 6, 2899
9, 137774, Pitch_bend_c, 6, 3129
9, 137781, Pitch_bend_c, 6, 3505
9, 137788, Pitch_bend_c, 6, 4028
9, 137795, Pitch_bend_c, 6, 4697
9, 137802, Pitch_bend_c, 6, 5512
9, 137809, Pitch_bend_c, 6, 6474
9, 137816, Pitch_bend_c, 6, 7582
9, 137820, Pitch_bend_c, 6, 8192
9, 138000, Note_off_c, 6, 69, 64
9, 138000, Note_off_c, 6, 64, 64
9, 138000, Note_on_c, 6, 68, 127
9, 138000, Note_on_c, 6, 64, 127
9, 138240, Note_off_c, 6, 68, 64
9, 138240, Note_off_c, 6, 64, 64
9, 138240, Note_on_c, 6, 64, 127
9, 138480, Note_off_c, 6, 64, 64
9, 138480, Note_on_c, 6, 59, 127
9, 138540, Note_off_c, 6, 59, 64
9, 138540, Note_on_c, 6, 61, 127
9, 138600, Note_off_c, 6, 61, 64
9, 138600, Note_on_c, 6, 59, 127
9, 140160, Note_off_c, 6, 59, 64
9, 141360, Note_on_c, 6, 64, 127
9, 141360, Note_on_c, 6, 59, 127
9, 141480, Note_off_c, 6, 64, 64
9, 141480, Note_off_c, 6, 59, 64
9, 141480, Note_on_c, 6, 66, 127
9, 141480, Note_on_c, 6, 61, 127
9, 141600, Note_off_c, 6, 66, 64
9, 141600, Note_off_c, 6, 61, 64
9, 141600, Note_on_c, 6, 69, 127
9, 141600, Note_on_c, 6, 64, 127
9, 141840, Note_off_c, 6, 69, 64
9, 141840, Note_off_c, 6, 64, 64
9, 141840, Note_on_c, 6, 68, 127
9, 141840, Note_on_c, 6, 64, 127
9, 142080, Note_off_c, 6, 68, 64
9, 142080, Note_off_c, 6, 64, 64
9, 142560, Pitch_bend_c, 6, 8192
9, 146400, End_track
10, 0, Start_track
10, 0, Instrument_name_t, "SB AWE32 MIDI Synth [62"
10, 0, Title_t, "Choosey Lover"
10, 0, Control_c, 7, 121, 127
10, 2, Program_c, 7, 27
10, 5, Control_c, 7, 7, 100
10, 10, Control_c, 7, 10, 84
10, 15, Control_c, 7, 1, 0
10, 20, Control_c, 7, 93, 0
10, 25, Control_c, 7, 91, 0
10, 30, Control_c, 7, 92, 0
10, 35, Control_c, 7, 94, 0
10, 40, Control_c, 7, 95, 0
10, 95, Copyright_t, "1998 Sequenced by Taro Sato"
10, 20400, Note_on_c, 7, 64, 119
10, 20640, Note_off_c, 7, 64, 64
10, 20640, Note_on_c, 7, 59, 99
10, 20880, Note_off_c, 7, 59, 64
10, 20880, Note_on_c, 7, 52, 79
10, 21120, Note_off_c, 7, 52, 64
10, 21120, Note_on_c, 7, 64, 119
10, 21360, Note_off_c, 7, 64, 64
10, 21360, Note_on_c, 7, 59, 99
10, 21600, Note_off_c, 7, 59, 64
10, 21600, Note_on_c, 7, 52, 79
10, 22080, Note_off_c, 7, 52, 64
10, 22080, Note_on_c, 7, 64, 127
10, 22560, Note_off_c, 7, 64, 64
10, 22560, Note_on_c, 7, 59, 127
10, 23520, Note_off_c, 7, 59, 64
10, 24000, Note_on_c, 7, 61, 127
10, 25440, Note_off_c, 7, 61, 64
10, 25920, Note_on_c, 7, 59, 127
10, 26640, Note_off_c, 7, 59, 64
10, 26640, Note_on_c, 7, 63, 127
10, 26880, Note_off_c, 7, 63, 64
10, 26880, Note_on_c, 7, 59, 127
10, 27120, Note_off_c, 7, 59, 64
10, 27120, Note_on_c, 7, 52, 119
10, 27360, Note_off_c, 7, 52, 64
10, 28080, Note_on_c, 7, 64, 119
10, 28320, Note_off_c, 7, 64, 64
10, 28320, Note_on_c, 7, 59, 99
10, 28560, Note_off_c, 7, 59, 64
10, 28560, Note_on_c, 7, 52, 79
10, 28800, Note_off_c, 7, 52, 64
10, 28800, Note_on_c, 7, 64, 119
10, 29040, Note_off_c, 7, 64, 64
10, 29040, Note_on_c, 7, 59, 99
10, 29280, Note_off_c, 7, 59, 64
10, 29280, Note_on_c, 7, 52, 79
10, 29760, Note_off_c, 7, 52, 64
10, 29760, Note_on_c, 7, 64, 127
10, 30240, Note_off_c, 7, 64, 64
10, 30240, Note_on_c, 7, 59, 127
10, 31200, Note_off_c, 7, 59, 64
10, 31680, Note_on_c, 7, 61, 127
10, 33120, Note_off_c, 7, 61, 64
10, 33600, Note_on_c, 7, 59, 127
10, 34320, Note_off_c, 7, 59, 64
10, 34320, Note_on_c, 7, 63, 127
10, 34560, Note_off_c, 7, 63, 64
10, 34560, Note_on_c, 7, 59, 127
10, 34800, Note_off_c, 7, 59, 64
10, 34800, Note_on_c, 7, 52, 119
10, 35040, Note_off_c, 7, 52, 64
10, 35760, Note_on_c, 7, 64, 119
10, 36000, Note_off_c, 7, 64, 64
10, 36000, Note_on_c, 7, 59, 99
10, 36240, Note_off_c, 7, 59, 64
10, 36240, Note_on_c, 7, 52, 79
10, 36480, Note_off_c, 7, 52, 64
10, 36480, Note_on_c, 7, 64, 119
10, 36720, Note_off_c, 7, 64, 64
10, 36720, Note_on_c, 7, 59, 99
10, 36960, Note_off_c, 7, 59, 64
10, 36960, Note_on_c, 7, 52, 79
10, 37440, Note_off_c, 7, 52, 64
10, 37440, Note_on_c, 7, 64, 127
10, 37920, Note_off_c, 7, 64, 64
10, 37920, Note_on_c, 7, 59, 127
10, 38880, Note_off_c, 7, 59, 64
10, 39360, Note_on_c, 7, 61, 127
10, 40800, Note_off_c, 7, 61, 64
10, 41280, Note_on_c, 7, 59, 127
10, 42000, Note_off_c, 7, 59, 64
10, 42000, Note_on_c, 7, 63, 127
10, 42240, Note_off_c, 7, 63, 64
10, 42240, Note_on_c, 7, 59, 127
10, 42480, Note_off_c, 7, 59, 64
10, 42480, Note_on_c, 7, 52, 119
10, 42720, Note_off_c, 7, 52, 64
10, 43440, Note_on_c, 7, 64, 119
10, 43680, Note_off_c, 7, 64, 64
10, 43680, Note_on_c, 7, 59, 99
10, 43920, Note_off_c, 7, 59, 64
10, 43920, Note_on_c, 7, 52, 79
10, 44160, Note_off_c, 7, 52, 64
10, 44160, Note_on_c, 7, 64, 119
10, 44400, Note_off_c, 7, 64, 64
10, 44400, Note_on_c, 7, 59, 99
10, 44640, Note_off_c, 7, 59, 64
10, 44640, Note_on_c, 7, 52, 79
10, 45120, Note_off_c, 7, 52, 64
10, 45120, Note_on_c, 7, 64, 127
10, 45600, Note_off_c, 7, 64, 64
10, 45600, Note_on_c, 7, 59, 127
10, 46560, Note_off_c, 7, 59, 64
10, 47040, Note_on_c, 7, 61, 127
10, 48480, Note_off_c, 7, 61, 64
10, 48960, Note_on_c, 7, 59, 127
10, 49680, Note_off_c, 7, 59, 64
10, 49680, Note_on_c, 7, 63, 127
10, 49920, Note_off_c, 7, 63, 64
10, 49920, Note_on_c, 7, 59, 127
10, 50160, Note_off_c, 7, 59, 64
10, 50160, Note_on_c, 7, 52, 119
10, 50400, Note_off_c, 7, 52, 64
10, 51120, Note_on_c, 7, 64, 119
10, 51360, Note_off_c, 7, 64, 64
10, 51360, Note_on_c, 7, 59, 99
10, 51600, Note_off_c, 7, 59, 64
10, 51600, Note_on_c, 7, 52, 79
10, 51840, Note_off_c, 7, 52, 64
10, 51840, Note_on_c, 7, 64, 119
10, 52080, Note_off_c, 7, 64, 64
10, 52080, Note_on_c, 7, 59, 99
10, 52320, Note_off_c, 7, 59, 64
10, 52320, Note_on_c, 7, 52, 79
10, 52800, Note_off_c, 7, 52, 64
10, 52800, Note_on_c, 7, 64, 127
10, 53280, Note_off_c, 7, 64, 64
10, 53280, Note_on_c, 7, 59, 127
10, 54240, Note_off_c, 7, 59, 64
10, 54720, Note_on_c, 7, 61, 127
10, 56160, Note_off_c, 7, 61, 64
10, 56640, Note_on_c, 7, 59, 127
10, 57360, Note_off_c, 7, 59, 64
10, 57360, Note_on_c, 7, 63, 127
10, 57600, Note_off_c, 7, 63, 64
10, 57600, Note_on_c, 7, 59, 127
10, 57840, Note_off_c, 7, 59, 64
10, 57840, Note_on_c, 7, 52, 119
10, 58080, Note_off_c, 7, 52, 64
10, 58800, Note_on_c, 7, 64, 119
10, 59040, Note_off_c, 7, 64, 64
10, 59040, Note_on_c, 7, 59, 99
10, 59280, Note_off_c, 7, 59, 64
10, 59280, Note_on_c, 7, 52, 79
10, 59520, Note_off_c, 7, 52, 64
10, 59520, Note_on_c, 7, 64, 119
10, 59760, Note_off_c, 7, 64, 64
10, 59760, Note_on_c, 7, 59, 99
10, 60000, Note_off_c, 7, 59, 64
10, 60000, Note_on_c, 7, 52, 79
10, 60480, Note_off_c, 7, 52, 64
10, 60480, Note_on_c, 7, 64, 127
10, 60960, Note_off_c, 7, 64, 64
10, 60960, Note_on_c, 7, 59, 127
10, 61920, Note_off_c, 7, 59, 64
10, 62400, Note_on_c, 7, 61, 127
10, 63840, Note_off_c, 7, 61, 64
10, 64320, Note_on_c, 7, 59, 127
10, 65040, Note_off_c, 7, 59, 64
10, 65040, Note_on_c, 7, 63, 127
10, 65280, Note_off_c, 7, 63, 64
10, 65280, Note_on_c, 7, 59, 127
10, 65520, Note_off_c, 7, 59, 64
10, 65520, Note_on_c, 7, 52, 119
10, 65760, Note_off_c, 7, 52, 64
10, 66480, Note_on_c, 7, 64, 119
10, 66720, Note_off_c, 7, 64, 64
10, 66720, Note_on_c, 7, 59, 99
10, 66960, Note_off_c, 7, 59, 64
10, 66960, Note_on_c, 7, 52, 79
10, 67200, Note_off_c, 7, 52, 64
10, 67200, Note_on_c, 7, 64, 119
10, 67440, Note_off_c, 7, 64, 64
10, 67440, Note_on_c, 7, 59, 99
10, 67680, Note_off_c, 7, 59, 64
10, 67680, Note_on_c, 7, 52, 79
10, 68160, Note_off_c, 7, 52, 64
10, 68160, Note_on_c, 7, 64, 127
10, 68640, Note_off_c, 7, 64, 64
10, 68640, Note_on_c, 7, 59, 127
10, 69600, Note_off_c, 7, 59, 64
10, 70080, Note_on_c, 7, 61, 127
10, 71520, Note_off_c, 7, 61, 64
10, 72000, Note_on_c, 7, 59, 127
10, 72720, Note_off_c, 7, 59, 64
10, 72720, Note_on_c, 7, 63, 127
10, 72960, Note_off_c, 7, 63, 64
10, 72960, Note_on_c, 7, 59, 127
10, 73200, Note_off_c, 7, 59, 64
10, 73200, Note_on_c, 7, 52, 119
10, 73440, Note_off_c, 7, 52, 64
10, 74160, Note_on_c, 7, 64, 119
10, 74400, Note_off_c, 7, 64, 64
10, 74400, Note_on_c, 7, 59, 99
10, 74640, Note_off_c, 7, 59, 64
10, 74640, Note_on_c, 7, 52, 79
10, 74880, Note_off_c, 7, 52, 64
10, 74880, Note_on_c, 7, 64, 119
10, 75120, Note_off_c, 7, 64, 64
10, 75120, Note_on_c, 7, 59, 99
10, 75360, Note_off_c, 7, 59, 64
10, 75360, Note_on_c, 7, 52, 79
10, 75840, Note_off_c, 7, 52, 64
10, 75840, Note_on_c, 7, 64, 127
10, 76320, Note_off_c, 7, 64, 64
10, 76320, Note_on_c, 7, 59, 127
10, 77280, Note_off_c, 7, 59, 64
10, 77760, Note_on_c, 7, 61, 127
10, 79200, Note_off_c, 7, 61, 64
10, 79680, Note_on_c, 7, 59, 127
10, 80400, Note_off_c, 7, 59, 64
10, 80400, Note_on_c, 7, 63, 127
10, 81120, Note_off_c, 7, 63, 64
10, 81840, Note_on_c, 7, 64, 119
10, 82080, Note_off_c, 7, 64, 64
10, 82080, Note_on_c, 7, 59, 99
10, 82320, Note_off_c, 7, 59, 64
10, 82320, Note_on_c, 7, 52, 79
10, 82560, Note_off_c, 7, 52, 64
10, 82560, Note_on_c, 7, 64, 119
10, 82800, Note_off_c, 7, 64, 64
10, 82800, Note_on_c, 7, 59, 99
10, 83040, Note_off_c, 7, 59, 64
10, 83040, Note_on_c, 7, 52, 79
10, 83520, Note_off_c, 7, 52, 64
10, 83520, Note_on_c, 7, 64, 127
10, 84000, Note_off_c, 7, 64, 64
10, 84000, Note_on_c, 7, 59, 127
10, 84960, Note_off_c, 7, 59, 64
10, 85440, Note_on_c, 7, 61, 127
10, 86880, Note_off_c, 7, 61, 64
10, 87360, Note_on_c, 7, 59, 127
10, 88080, Note_off_c, 7, 59, 64
10, 88080, Note_on_c, 7, 63, 127
10, 88320, Note_off_c, 7, 63, 64
10, 88320, Note_on_c, 7, 59, 127
10, 88560, Note_off_c, 7, 59, 64
10, 88560, Note_on_c, 7, 52, 119
10, 88800, Note_off_c, 7, 52, 64
10, 89520, Note_on_c, 7, 64, 119
10, 89760, Note_off_c, 7, 64, 64
10, 89760, Note_on_c, 7, 59, 99
10, 90000, Note_off_c, 7, 59, 64
10, 90000, Note_on_c, 7, 52, 79
10, 90240, Note_off_c, 7, 52, 64
10, 90240, Note_on_c, 7, 64, 119
10, 90480, Note_off_c, 7, 64, 64
10, 90480, Note_on_c, 7, 59, 99
10, 90720, Note_off_c, 7, 59, 64
10, 90720, Note_on_c, 7, 52, 79
10, 91200, Note_off_c, 7, 52, 64
10, 91200, Note_on_c, 7, 64, 127
10, 91680, Note_off_c, 7, 64, 64
10, 91680, Note_on_c, 7, 59, 127
10, 92640, Note_off_c, 7, 59, 64
10, 93120, Note_on_c, 7, 61, 127
10, 94560, Note_off_c, 7, 61, 64
10, 95040, Note_on_c, 7, 59, 127
10, 95760, Note_off_c, 7, 59, 64
10, 95760, Note_on_c, 7, 63, 127
10, 96000, Note_off_c, 7, 63, 64
10, 96000, Note_on_c, 7, 59, 127
10, 96240, Note_off_c, 7, 59, 64
10, 96240, Note_on_c, 7, 52, 119
10, 96480, Note_off_c, 7, 52, 64
10, 97200, Note_on_c, 7, 64, 119
10, 97440, Note_off_c, 7, 64, 64
10, 97440, Note_on_c, 7, 59, 99
10, 97680, Note_off_c, 7, 59, 64
10, 97680, Note_on_c, 7, 52, 79
10, 97920, Note_off_c, 7, 52, 64
10, 97920, Note_on_c, 7, 64, 119
10, 98160, Note_off_c, 7, 64, 64
10, 98160, Note_on_c, 7, 59, 99
10, 98400, Note_off_c, 7, 59, 64
10, 98400, Note_on_c, 7, 52, 79
10, 98880, Note_off_c, 7, 52, 64
10, 98880, Note_on_c, 7, 64, 127
10, 99360, Note_off_c, 7, 64, 64
10, 99360, Note_on_c, 7, 59, 127
10, 100320, Note_off_c, 7, 59, 64
10, 100800, Note_on_c, 7, 61, 127
10, 102240, Note_off_c, 7, 61, 64
10, 102720, Note_on_c, 7, 59, 127
10, 103440, Note_off_c, 7, 59, 64
10, 103440, Note_on_c, 7, 63, 127
10, 103680, Note_off_c, 7, 63, 64
10, 103680, Note_on_c, 7, 59, 127
10, 103920, Note_off_c, 7, 59, 64
10, 103920, Note_on_c, 7, 52, 119
10, 104160, Note_off_c, 7, 52, 64
10, 104880, Note_on_c, 7, 64, 119
10, 105120, Note_off_c, 7, 64, 64
10, 105120, Note_on_c, 7, 59, 99
10, 105360, Note_off_c, 7, 59, 64
10, 105360, Note_on_c, 7, 52, 79
10, 105600, Note_off_c, 7, 52, 64
10, 105600, Note_on_c, 7, 64, 119
10, 105840, Note_off_c, 7, 64, 64
10, 105840, Note_on_c, 7, 59, 99
10, 106080, Note_off_c, 7, 59, 64
10, 106080, Note_on_c, 7, 52, 79
10, 106560, Note_off_c, 7, 52, 64
10, 106560, Note_on_c, 7, 64, 127
10, 107040, Note_off_c, 7, 64, 64
10, 107040, Note_on_c, 7, 59, 127
10, 108000, Note_off_c, 7, 59, 64
10, 108480, Note_on_c, 7, 61, 127
10, 109920, Note_off_c, 7, 61, 64
10, 110400, Note_on_c, 7, 59, 127
10, 111120, Note_off_c, 7, 59, 64
10, 111120, Note_on_c, 7, 63, 127
10, 111360, Note_off_c, 7, 63, 64
10, 111360, Note_on_c, 7, 59, 127
10, 111600, Note_off_c, 7, 59, 64
10, 111600, Note_on_c, 7, 52, 119
10, 111840, Note_off_c, 7, 52, 64
10, 112560, Note_on_c, 7, 64, 119
10, 112800, Note_off_c, 7, 64, 64
10, 112800, Note_on_c, 7, 59, 99
10, 113040, Note_off_c, 7, 59, 64
10, 113040, Note_on_c, 7, 52, 79
10, 113280, Note_off_c, 7, 52, 64
10, 113280, Note_on_c, 7, 64, 119
10, 113520, Note_off_c, 7, 64, 64
10, 113520, Note_on_c, 7, 59, 99
10, 113760, Note_off_c, 7, 59, 64
10, 113760, Note_on_c, 7, 52, 79
10, 114240, Note_off_c, 7, 52, 64
10, 114240, Note_on_c, 7, 64, 127
10, 114720, Note_off_c, 7, 64, 64
10, 114720, Note_on_c, 7, 59, 127
10, 115680, Note_off_c, 7, 59, 64
10, 116160, Note_on_c, 7, 61, 127
10, 117600, Note_off_c, 7, 61, 64
10, 118080, Note_on_c, 7, 59, 127
10, 118800, Note_off_c, 7, 59, 64
10, 118800, Note_on_c, 7, 63, 127
10, 119040, Note_off_c, 7, 63, 64
10, 119040, Note_on_c, 7, 59, 127
10, 119280, Note_off_c, 7, 59, 64
10, 119280, Note_on_c, 7, 52, 119
10, 119520, Note_off_c, 7, 52, 64
10, 120240, Note_on_c, 7, 64, 119
10, 120480, Note_off_c, 7, 64, 64
10, 120480, Note_on_c, 7, 59, 99
10, 120720, Note_off_c, 7, 59, 64
10, 120720, Note_on_c, 7, 52, 79
10, 120960, Note_off_c, 7, 52, 64
10, 120960, Note_on_c, 7, 64, 119
10, 121200, Note_off_c, 7, 64, 64
10, 121200, Note_on_c, 7, 59, 99
10, 121440, Note_off_c, 7, 59, 64
10, 121440, Note_on_c, 7, 52, 79
10, 121920, Note_off_c, 7, 52, 64
10, 121920, Note_on_c, 7, 64, 127
10, 122400, Note_off_c, 7, 64, 64
10, 122400, Note_on_c, 7, 59, 127
10, 123360, Note_off_c, 7, 59, 64
10, 123840, Note_on_c, 7, 61, 127
10, 125280, Note_off_c, 7, 61, 64
10, 125760, Note_on_c, 7, 59, 127
10, 126480, Note_off_c, 7, 59, 64
10, 126480, Note_on_c, 7, 63, 127
10, 126720, Note_off_c, 7, 63, 64
10, 126720, Note_on_c, 7, 59, 127
10, 126960, Note_off_c, 7, 59, 64
10, 126960, Note_on_c, 7, 52, 119
10, 127200, Note_off_c, 7, 52, 64
10, 127920, Note_on_c, 7, 64, 119
10, 128160, Note_off_c, 7, 64, 64
10, 128160, Note_on_c, 7, 59, 99
10, 128400, Note_off_c, 7, 59, 64
10, 128400, Note_on_c, 7, 52, 79
10, 128640, Note_off_c, 7, 52, 64
10, 128640, Note_on_c, 7, 64, 119
10, 128880, Note_off_c, 7, 64, 64
10, 128880, Note_on_c, 7, 59, 99
10, 129120, Note_off_c, 7, 59, 64
10, 129120, Note_on_c, 7, 52, 79
10, 129600, Note_off_c, 7, 52, 64
10, 129600, Note_on_c, 7, 64, 127
10, 130080, Note_off_c, 7, 64, 64
10, 130080, Note_on_c, 7, 59, 127
10, 131040, Note_off_c, 7, 59, 64
10, 131520, Note_on_c, 7, 61, 127
10, 132960, Note_off_c, 7, 61, 64
10, 133440, Note_on_c, 7, 59, 127
10, 134160, Note_off_c, 7, 59, 64
10, 134160, Note_on_c, 7, 63, 127
10, 134400, Note_off_c, 7, 63, 64
10, 134400, Note_on_c, 7, 59, 127
10, 134640, Note_off_c, 7, 59, 64
10, 134640, Note_on_c, 7, 52, 119
10, 134880, Note_off_c, 7, 52, 64
10, 135600, Note_on_c, 7, 64, 119
10, 135840, Note_off_c, 7, 64, 64
10, 135840, Note_on_c, 7, 59, 99
10, 136080, Note_off_c, 7, 59, 64
10, 136080, Note_on_c, 7, 52, 79
10, 136320, Note_off_c, 7, 52, 64
10, 136320, Note_on_c, 7, 64, 119
10, 136560, Note_off_c, 7, 64, 64
10, 136560, Note_on_c, 7, 59, 99
10, 136800, Note_off_c, 7, 59, 64
10, 136800, Note_on_c, 7, 52, 79
10, 137280, Note_off_c, 7, 52, 64
10, 137280, Note_on_c, 7, 64, 127
10, 137760, Note_off_c, 7, 64, 64
10, 137760, Note_on_c, 7, 59, 127
10, 138720, Note_off_c, 7, 59, 64
10, 139200, Note_on_c, 7, 61, 127
10, 140640, Note_off_c, 7, 61, 64
10, 141120, Note_on_c, 7, 59, 127
10, 141840, Note_off_c, 7, 59, 64
10, 141840, Note_on_c, 7, 63, 127
10, 142080, Note_off_c, 7, 63, 64
10, 142080, Note_on_c, 7, 59, 127
10, 142320, Note_off_c, 7, 59, 64
10, 142560, Note_on_c, 7, 59, 127
10, 142800, Note_off_c, 7, 59, 64
10, 143040, Note_on_c, 7, 59, 127
10, 143280, Note_off_c, 7, 59, 64
10, 143520, Note_on_c, 7, 59, 127
10, 143760, Note_off_c, 7, 59, 64
10, 146400, End_track
11, 0, Start_track
11, 0, Instrument_name_t, "SB AWE32 MIDI Synth [62"
11, 0, Title_t, "Choosey Lover"
11, 0, Control_c, 8, 121, 127
11, 2, Program_c, 8, 54
11, 5, Control_c, 8, 7, 127
11, 10, Control_c, 8, 93, 15
11, 15, Control_c, 8, 91, 15
11, 20, Control_c, 8, 1, 0
11, 25, Control_c, 8, 92, 0
11, 30, Control_c, 8, 10, 64
11, 40, Control_c, 8, 94, 0
11, 45, Control_c, 8, 95, 0
11, 95, Copyright_t, "1998 Sequenced by Taro Sato"
11, 146400, End_track
12, 0, Start_track
12, 0, Instrument_name_t, "SB AWE32 MIDI Synth [62"
12, 0, Title_t, "Choosey Lover"
12, 0, Control_c, 10, 121, 127
12, 2, Program_c, 10, 119
12, 5, Control_c, 10, 7, 127
12, 10, Control_c, 10, 91, 127
12, 15, Control_c, 10, 92, 0
12, 20, Control_c, 10, 1, 127
12, 25, Control_c, 10, 93, 0
12, 30, Control_c, 10, 94, 0
12, 35, Control_c, 10, 95, 0
12, 95, Copyright_t, "1998 Sequenced by Taro Sato"
12, 4080, Note_on_c, 10, 72, 127
12, 4320, Note_off_c, 10, 72, 64
12, 11760, Note_on_c, 10, 72, 127
12, 12000, Note_off_c, 10, 72, 64
12, 19440, Note_on_c, 10, 72, 127
12, 19680, Note_off_c, 10, 72, 64
12, 27120, Note_on_c, 10, 72, 127
12, 27360, Note_off_c, 10, 72, 64
12, 34800, Note_on_c, 10, 72, 127
12, 35040, Note_off_c, 10, 72, 64
12, 42480, Note_on_c, 10, 72, 127
12, 42720, Note_off_c, 10, 72, 64
12, 50160, Note_on_c, 10, 72, 127
12, 50400, Note_off_c, 10, 72, 64
12, 57840, Note_on_c, 10, 72, 127
12, 58080, Note_off_c, 10, 72, 64
12, 65520, Note_on_c, 10, 72, 127
12, 65760, Note_off_c, 10, 72, 64
12, 73200, Note_on_c, 10, 72, 127
12, 73440, Note_off_c, 10, 72, 64
12, 80880, Note_on_c, 10, 72, 127
12, 81120, Note_off_c, 10, 72, 64
12, 88560, Note_on_c, 10, 72, 127
12, 88800, Note_off_c, 10, 72, 64
12, 96240, Note_on_c, 10, 72, 127
12, 96480, Note_off_c, 10, 72, 64
12, 103920, Note_on_c, 10, 72, 127
12, 104160, Note_off_c, 10, 72, 64
12, 111600, Note_on_c, 10, 72, 127
12, 111840, Note_off_c, 10, 72, 64
12, 119280, Note_on_c, 10, 72, 127
12, 119520, Note_off_c, 10, 72, 64
12, 126960, Note_on_c, 10, 72, 127
12, 127200, Note_off_c, 10, 72, 64
12, 134640, Note_on_c, 10, 72, 127
12, 134880, Note_off_c, 10, 72, 64
12, 142320, Note_on_c, 10, 72, 127
12, 142560, Note_off_c, 10, 72, 64
12, 142800, Note_on_c, 10, 72, 127
12, 143040, Note_off_c, 10, 72, 64
12, 143280, Note_on_c, 10, 72, 127
12, 143520, Note_off_c, 10, 72, 64
12, 143760, Note_on_c, 10, 72, 127
12, 144000, Note_off_c, 10, 72, 64
12, 146400, End_track
13, 0, Start_track
13, 0, Instrument_name_t, "SB AWE32 MIDI Synth [62"
13, 0, Title_t, "Choosey Lover"
13, 0, Control_c, 11, 121, 127
13, 2, Program_c, 11, 73
13, 5, Control_c, 11, 1, 20
13, 10, Control_c, 11, 7, 110
13, 15, Control_c, 11, 91, 64
13, 20, Control_c, 11, 93, 10
13, 25, Control_c, 11, 10, 64
13, 30, Control_c, 11, 92, 0
13, 35, Control_c, 11, 94, 0
13, 40, Control_c, 11, 95, 0
13, 95, Copyright_t, "1998 Sequenced by Taro Sato"
13, 146400, End_track
14, 0, Start_track
14, 0, Instrument_name_t, "SB AWE32 MIDI Synth [62"
14, 0, Title_t, "Choosey Lover"
14, 0, Control_c, 15, 121, 127
14, 1, Program_c, 15, 0
14, 2, Program_c, 15, 30
14, 5, Control_c, 15, 91, 100
14, 10, Control_c, 15, 93, 64
14, 15, Control_c, 15, 7, 55
14, 20, Control_c, 15, 10, 74
14, 25, Control_c, 15, 1, 0
14, 30, Control_c, 15, 92, 0
14, 35, Control_c, 15, 95, 0
14, 40, Control_c, 15, 94, 0
14, 95, Copyright_t, "1998 Sequenced by Taro Sato"
14, 146400, End_track
15, 0, Start_track
15, 0, Instrument_name_t, "SB AWE32 MIDI Synth [62"
15, 0, Title_t, "Choosey Lover"
15, 0, Control_c, 12, 121, 127
15, 2, Program_c, 12, 54
15, 5, Control_c, 12, 7, 127
15, 10, Control_c, 12, 93, 15
15, 15, Control_c, 12, 91, 15
15, 20, Control_c, 12, 1, 0
15, 25, Control_c, 12, 92, 0
15, 30, Control_c, 12, 10, 64
15, 40, Control_c, 12, 94, 0
15, 45, Control_c, 12, 95, 0
15, 95, Copyright_t, "1998 Sequenced by Taro Sato"
15, 146400, End_track
16, 0, Start_track
16, 0, Instrument_name_t, "SB AWE32 MIDI Synth [62"
16, 0, Title_t, "Choosey Lover"
16, 20880, Note_on_c, 8, 61, 127
16, 20880, Pitch_bend_c, 8, 3328
16, 20880, Note_on_c, 8, 73, 127
16, 20887, Pitch_bend_c, 8, 3403
16, 20894, Pitch_bend_c, 8, 3611
16, 20901, Pitch_bend_c, 8, 3952
16, 20908, Pitch_bend_c, 8, 4425
16, 20915, Pitch_bend_c, 8, 5030
16, 20922, Pitch_bend_c, 8, 5768
16, 20929, Pitch_bend_c, 8, 6638
16, 20936, Pitch_bend_c, 8, 7640
16, 20940, Pitch_bend_c, 8, 8192
16, 21120, Note_off_c, 8, 61, 64
16, 21120, Note_off_c, 8, 73, 64
16, 21120, Note_on_c, 8, 56, 127
16, 21120, Note_on_c, 8, 68, 127
16, 21360, Note_off_c, 8, 56, 64
16, 21360, Note_off_c, 8, 68, 64
16, 21360, Note_on_c, 8, 59, 127
16, 21360, Note_on_c, 8, 71, 127
16, 21840, Pitch_bend_c, 8, 0
16, 21840, Note_off_c, 8, 59, 64
16, 21840, Note_off_c, 8, 71, 64
16, 21840, Note_on_c, 8, 61, 127
16, 21840, Note_on_c, 8, 73, 127
16, 21900, Pitch_bend_c, 8, 0
16, 21907, Pitch_bend_c, 8, 127
16, 21914, Pitch_bend_c, 8, 477
16, 21921, Pitch_bend_c, 8, 1051
16, 21928, Pitch_bend_c, 8, 1847
16, 21935, Pitch_bend_c, 8, 2867
16, 21942, Pitch_bend_c, 8, 4109
16, 21949, Pitch_bend_c, 8, 5575
16, 21956, Pitch_bend_c, 8, 7263
16, 21960, Pitch_bend_c, 8, 8192
16, 22080, Note_off_c, 8, 61, 64
16, 22080, Note_off_c, 8, 73, 64
16, 24480, Note_on_c, 8, 56, 127
16, 24720, Note_off_c, 8, 56, 64
16, 24720, Note_on_c, 8, 59, 127
16, 24960, Note_off_c, 8, 59, 64
16, 24960, Note_on_c, 8, 56, 127
16, 25200, Note_off_c, 8, 56, 64
16, 25200, Note_on_c, 8, 54, 127
16, 25440, Note_off_c, 8, 54, 64
16, 25440, Note_on_c, 8, 52, 127
16, 25920, Pitch_bend_c, 8, 16383
16, 25920, Note_off_c, 8, 52, 64
16, 25920, Note_on_c, 8, 52, 127
16, 26040, Pitch_bend_c, 8, 16128
16, 26047, Pitch_bend_c, 8, 16004
16, 26054, Pitch_bend_c, 8, 15665
16, 26061, Pitch_bend_c, 8, 15109
16, 26068, Pitch_bend_c, 8, 14337
16, 26075, Pitch_bend_c, 8, 13350
16, 26082, Pitch_bend_c, 8, 12146
16, 26089, Pitch_bend_c, 8, 10727
16, 26096, Pitch_bend_c, 8, 9091
16, 26100, Pitch_bend_c, 8, 8192
16, 26400, Note_off_c, 8, 52, 64
16, 28080, Note_on_c, 8, 59, 127
16, 28320, Note_off_c, 8, 59, 64
16, 28320, Note_on_c, 8, 61, 127
16, 28560, Note_off_c, 8, 61, 64
16, 28560, Note_on_c, 8, 64, 127
16, 28800, Note_off_c, 8, 64, 64
16, 28800, Note_on_c, 8, 66, 127
16, 29040, Pitch_bend_c, 8, 2560
16, 29040, Note_off_c, 8, 66, 64
16, 29040, Note_on_c, 8, 68, 127
16, 29047, Pitch_bend_c, 8, 2581
16, 29054, Pitch_bend_c, 8, 2642
16, 29061, Pitch_bend_c, 8, 2740
16, 29068, Pitch_bend_c, 8, 2877
16, 29075, Pitch_bend_c, 8, 3052
16, 29082, Pitch_bend_c, 8, 3266
16, 29089, Pitch_bend_c, 8, 3518
16, 29096, Pitch_bend_c, 8, 3808
16, 29103, Pitch_bend_c, 8, 4136
16, 29110, Pitch_bend_c, 8, 4503
16, 29117, Pitch_bend_c, 8, 4909
16, 29124, Pitch_bend_c, 8, 5352
16, 29131, Pitch_bend_c, 8, 5834
16, 29138, Pitch_bend_c, 8, 6354
16, 29145, Pitch_bend_c, 8, 6913
16, 29152, Pitch_bend_c, 8, 7509
16, 29159, Pitch_bend_c, 8, 8145
16, 29160, Pitch_bend_c, 8, 8192
16, 29760, Note_off_c, 8, 68, 64
16, 29760, Note_on_c, 8, 64, 127
16, 29760, Pitch_bend_c, 8, 16383
16, 29760, Note_on_c, 8, 61, 79
16, 29820, Pitch_bend_c, 8, 16128
16, 29827, Pitch_bend_c, 8, 16004
16, 29834, Pitch_bend_c, 8, 15665
16, 29841, Pitch_bend_c, 8, 15109
16, 29848, Pitch_bend_c, 8, 14337
16, 29855, Pitch_bend_c, 8, 13350
16, 29862, Pitch_bend_c, 8, 12146
16, 29869, Pitch_bend_c, 8, 10727
16, 29876, Pitch_bend_c, 8, 9091
16, 29880, Control_c, 8, 1, 64
16, 29880, Pitch_bend_c, 8, 8192
16, 30360, Note_off_c, 8, 64, 64
16, 30360, Note_off_c, 8, 61, 64
16, 30360, Note_on_c, 8, 66, 127
16, 30360, Control_c, 8, 1, 0
16, 30720, Note_off_c, 8, 66, 64
16, 30720, Note_on_c, 8, 68, 127
16, 30840, Note_off_c, 8, 68, 64
16, 30960, Pitch_bend_c, 8, 0
16, 30960, Note_on_c, 8, 66, 127
16, 30967, Pitch_bend_c, 8, 31
16, 30974, Pitch_bend_c, 8, 119
16, 30981, Pitch_bend_c, 8, 262
16, 30988, Pitch_bend_c, 8, 461
16, 30995, Pitch_bend_c, 8, 716
16, 31002, Pitch_bend_c, 8, 1027
16, 31009, Pitch_bend_c, 8, 1393
16, 31016, Pitch_bend_c, 8, 1815
16, 31023, Pitch_bend_c, 8, 2293
16, 31030, Pitch_bend_c, 8, 2827
16, 31037, Pitch_bend_c, 8, 3416
16, 31044, Pitch_bend_c, 8, 4061
16, 31051, Pitch_bend_c, 8, 4762
16, 31058, Pitch_bend_c, 8, 5519
16, 31065, Pitch_bend_c, 8, 6331
16, 31072, Pitch_bend_c, 8, 7199
16, 31079, Pitch_bend_c, 8, 8123
16, 31080, Pitch_bend_c, 8, 8192
16, 31200, Note_off_c, 8, 66, 64
16, 31200, Note_on_c, 8, 61, 127
16, 31920, Note_on_c, 8, 64, 79
16, 31920, Note_on_c, 8, 52, 127
16, 32160, Note_off_c, 8, 61, 64
16, 32160, Note_off_c, 8, 64, 64
16, 32160, Note_off_c, 8, 52, 64
16, 32160, Note_on_c, 8, 68, 79
16, 32160, Note_on_c, 8, 56, 127
16, 32400, Note_off_c, 8, 68, 64
16, 32400, Note_off_c, 8, 56, 64
16, 32400, Note_on_c, 8, 71, 79
16, 32400, Note_on_c, 8, 59, 127
16, 32640, Note_off_c, 8, 71, 64
16, 32640, Note_off_c, 8, 59, 64
16, 32640, Note_on_c, 8, 68, 79
16, 32640, Note_on_c, 8, 56, 127
16, 32880, Note_off_c, 8, 68, 64
16, 32880, Note_off_c, 8, 56, 64
16, 32880, Note_on_c, 8, 66, 79
16, 32880, Note_on_c, 8, 54, 127
16, 33120, Note_off_c, 8, 66, 64
16, 33120, Note_off_c, 8, 54, 64
16, 33120, Note_on_c, 8, 64, 79
16, 33120, Note_on_c, 8, 52, 127
16, 33600, Pitch_bend_c, 8, 16383
16, 33600, Note_off_c, 8, 64, 64
16, 33600, Note_off_c, 8, 52, 64
16, 33600, Note_on_c, 8, 64, 79
16, 33600, Pitch_bend_c, 8, 16383
16, 33600, Note_on_c, 8, 52, 127
16, 33720, Pitch_bend_c, 8, 16128
16, 33727, Pitch_bend_c, 8, 16004
16, 33734, Pitch_bend_c, 8, 15665
16, 33741, Pitch_bend_c, 8, 15109
16, 33748, Pitch_bend_c, 8, 14337
16, 33755, Pitch_bend_c, 8, 13350
16, 33762, Pitch_bend_c, 8, 12146
16, 33769, Pitch_bend_c, 8, 10727
16, 33776, Pitch_bend_c, 8, 9091
16, 33780, Pitch_bend_c, 8, 8192
16, 33960, Note_off_c, 8, 64, 64
16, 33960, Note_off_c, 8, 52, 64
16, 36000, Note_on_c, 8, 56, 127
16, 36240, Note_off_c, 8, 56, 64
16, 36240, Note_on_c, 8, 59, 127
16, 36480, Note_off_c, 8, 59, 64
16, 36480, Note_on_c, 8, 59, 127
16, 36720, Note_off_c, 8, 59, 64
16, 36720, Note_on_c, 8, 64, 127
16, 36840, Pitch_bend_c, 8, 0
16, 36840, Note_off_c, 8, 64, 64
16, 36840, Note_on_c, 8, 61, 127
16, 36847, Pitch_bend_c, 8, 31
16, 36854, Pitch_bend_c, 8, 119
16, 36861, Pitch_bend_c, 8, 262
16, 36868, Pitch_bend_c, 8, 461
16, 36875, Pitch_bend_c, 8, 716
16, 36882, Pitch_bend_c, 8, 1027
16, 36889, Pitch_bend_c, 8, 1393
16, 36896, Pitch_bend_c, 8, 1815
16, 36903, Pitch_bend_c, 8, 2293
16, 36910, Pitch_bend_c, 8, 2827
16, 36917, Pitch_bend_c, 8, 3416
16, 36924, Pitch_bend_c, 8, 4061
16, 36931, Pitch_bend_c, 8, 4762
16, 36938, Pitch_bend_c, 8, 5519
16, 36945, Pitch_bend_c, 8, 6331
16, 36952, Pitch_bend_c, 8, 7199
16, 36959, Pitch_bend_c, 8, 8123
16, 36960, Pitch_bend_c, 8, 8192
16, 37020, Pitch_bend_c, 8, 8192
16, 37027, Pitch_bend_c, 8, 8259
16, 37034, Pitch_bend_c, 8, 8445
16, 37041, Pitch_bend_c, 8, 8750
16, 37048, Pitch_bend_c, 8, 9173
16, 37055, Pitch_bend_c, 8, 9715
16, 37062, Pitch_bend_c, 8, 10375
16, 37069, Pitch_bend_c, 8, 11153
16, 37076, Pitch_bend_c, 8, 12050
16, 37080, Pitch_bend_c, 8, 12544
16, 37120, Pitch_bend_c, 8, 8192
16, 37200, Note_off_c, 8, 61, 64
16, 37200, Note_on_c, 8, 59, 127
16, 37920, Note_off_c, 8, 59, 64
16, 43440, Note_on_c, 8, 52, 127
16, 43680, Note_off_c, 8, 52, 64
16, 43680, Note_on_c, 8, 56, 127
16, 43920, Note_off_c, 8, 56, 64
16, 43920, Note_on_c, 8, 59, 127
16, 44160, Note_off_c, 8, 59, 64
16, 44160, Note_on_c, 8, 59, 127
16, 44400, Note_off_c, 8, 59, 64
16, 44400, Note_on_c, 8, 64, 127
16, 44520, Pitch_bend_c, 8, 0
16, 44520, Note_off_c, 8, 64, 64
16, 44520, Note_on_c, 8, 61, 127
16, 44527, Pitch_bend_c, 8, 31
16, 44534, Pitch_bend_c, 8, 119
16, 44541, Pitch_bend_c, 8, 262
16, 44548, Pitch_bend_c, 8, 461
16, 44555, Pitch_bend_c, 8, 716
16, 44562, Pitch_bend_c, 8, 1027
16, 44569, Pitch_bend_c, 8, 1393
16, 44576, Pitch_bend_c, 8, 1815
16, 44583, Pitch_bend_c, 8, 2293
16, 44590, Pitch_bend_c, 8, 2827
16, 44597, Pitch_bend_c, 8, 3416
16, 44604, Pitch_bend_c, 8, 4061
16, 44611, Pitch_bend_c, 8, 4762
16, 44618, Pitch_bend_c, 8, 5519
16, 44625, Pitch_bend_c, 8, 6331
16, 44632, Pitch_bend_c, 8, 7199
16, 44639, Pitch_bend_c, 8, 8123
16, 44640, Pitch_bend_c, 8, 8192
16, 44880, Note_off_c, 8, 61, 64
16, 44880, Note_on_c, 8, 59, 127
16, 45600, Note_off_c, 8, 59, 64
16, 51600, Pitch_bend_c, 8, 3328
16, 51600, Note_on_c, 8, 61, 127
16, 51600, Note_on_c, 8, 73, 127
16, 51607, Pitch_bend_c, 8, 3403
16, 51614, Pitch_bend_c, 8, 3611
16, 51621, Pitch_bend_c, 8, 3952
16, 51628, Pitch_bend_c, 8, 4425
16, 51635, Pitch_bend_c, 8, 5030
16, 51642, Pitch_bend_c, 8, 5768
16, 51649, Pitch_bend_c, 8, 6638
16, 51656, Pitch_bend_c, 8, 7640
16, 51660, Pitch_bend_c, 8, 8192
16, 51840, Note_off_c, 8, 61, 64
16, 51840, Note_off_c, 8, 73, 64
16, 51840, Note_on_c, 8, 56, 127
16, 51840, Note_on_c, 8, 68, 127
16, 52080, Note_off_c, 8, 56, 64
16, 52080, Note_off_c, 8, 68, 64
16, 52080, Note_on_c, 8, 59, 127
16, 52080, Note_on_c, 8, 71, 127
16, 52560, Pitch_bend_c, 8, 0
16, 52560, Note_off_c, 8, 59, 64
16, 52560, Note_off_c, 8, 71, 64
16, 52560, Note_on_c, 8, 61, 127
16, 52560, Note_on_c, 8, 73, 127
16, 52620, Pitch_bend_c, 8, 0
16, 52627, Pitch_bend_c, 8, 127
16, 52634, Pitch_bend_c, 8, 477
16, 52641, Pitch_bend_c, 8, 1051
16, 52648, Pitch_bend_c, 8, 1847
16, 52655, Pitch_bend_c, 8, 2867
16, 52662, Pitch_bend_c, 8, 4109
16, 52669, Pitch_bend_c, 8, 5575
16, 52676, Pitch_bend_c, 8, 7263
16, 52680, Pitch_bend_c, 8, 8192
16, 52800, Note_off_c, 8, 61, 64
16, 52800, Note_off_c, 8, 73, 64
16, 55200, Note_on_c, 8, 56, 127
16, 55440, Note_off_c, 8, 56, 64
16, 55440, Note_on_c, 8, 59, 127
16, 55680, Note_off_c, 8, 59, 64
16, 55680, Note_on_c, 8, 56, 127
16, 55920, Note_off_c, 8, 56, 64
16, 55920, Note_on_c, 8, 54, 127
16, 56160, Note_off_c, 8, 54, 64
16, 56160, Note_on_c, 8, 52, 127
16, 56640, Pitch_bend_c, 8, 16383
16, 56640, Note_off_c, 8, 52, 64
16, 56640, Note_on_c, 8, 52, 127
16, 56760, Pitch_bend_c, 8, 16128
16, 56767, Pitch_bend_c, 8, 16004
16, 56774, Pitch_bend_c, 8, 15665
16, 56781, Pitch_bend_c, 8, 15109
16, 56788, Pitch_bend_c, 8, 14337
16, 56795, Pitch_bend_c, 8, 13350
16, 56802, Pitch_bend_c, 8, 12146
16, 56809, Pitch_bend_c, 8, 10727
16, 56816, Pitch_bend_c, 8, 9091
16, 56820, Pitch_bend_c, 8, 8192
16, 57120, Note_off_c, 8, 52, 64
16, 58800, Note_on_c, 8, 59, 127
16, 59040, Note_off_c, 8, 59, 64
16, 59040, Note_on_c, 8, 61, 127
16, 59280, Note_off_c, 8, 61, 64
16, 59280, Note_on_c, 8, 64, 127
16, 59520, Note_off_c, 8, 64, 64
16, 59520, Note_on_c, 8, 66, 127
16, 59760, Pitch_bend_c, 8, 2560
16, 59760, Note_off_c, 8, 66, 64
16, 59760, Note_on_c, 8, 68, 127
16, 59767, Pitch_bend_c, 8, 2581
16, 59774, Pitch_bend_c, 8, 2642
16, 59781, Pitch_bend_c, 8, 2740
16, 59788, Pitch_bend_c, 8, 2877
16, 59795, Pitch_bend_c, 8, 3052
16, 59802, Pitch_bend_c, 8, 3266
16, 59809, Pitch_bend_c, 8, 3518
16, 59816, Pitch_bend_c, 8, 3808
16, 59823, Pitch_bend_c, 8, 4136
16, 59830, Pitch_bend_c, 8, 4503
16, 59837, Pitch_bend_c, 8, 4909
16, 59844, Pitch_bend_c, 8, 5352
16, 59851, Pitch_bend_c, 8, 5834
16, 59858, Pitch_bend_c, 8, 6354
16, 59865, Pitch_bend_c, 8, 6913
16, 59872, Pitch_bend_c, 8, 7509
16, 59879, Pitch_bend_c, 8, 8145
16, 59880, Pitch_bend_c, 8, 8192
16, 60480, Note_off_c, 8, 68, 64
16, 60480, Note_on_c, 8, 64, 127
16, 60480, Pitch_bend_c, 8, 16383
16, 60480, Note_on_c, 8, 61, 79
16, 60540, Pitch_bend_c, 8, 16128
16, 60547, Pitch_bend_c, 8, 16004
16, 60554, Pitch_bend_c, 8, 15665
16, 60561, Pitch_bend_c, 8, 15109
16, 60568, Pitch_bend_c, 8, 14337
16, 60575, Pitch_bend_c, 8, 13350
16, 60582, Pitch_bend_c, 8, 12146
16, 60589, Pitch_bend_c, 8, 10727
16, 60596, Pitch_bend_c, 8, 9091
16, 60600, Control_c, 8, 1, 64
16, 60600, Pitch_bend_c, 8, 8192
16, 61080, Note_off_c, 8, 64, 64
16, 61080, Note_off_c, 8, 61, 64
16, 61080, Note_on_c, 8, 66, 127
16, 61080, Control_c, 8, 1, 0
16, 61440, Note_off_c, 8, 66, 64
16, 61440, Note_on_c, 8, 68, 127
16, 61560, Note_off_c, 8, 68, 64
16, 61680, Pitch_bend_c, 8, 0
16, 61680, Note_on_c, 8, 66, 127
16, 61687, Pitch_bend_c, 8, 31
16, 61694, Pitch_bend_c, 8, 119
16, 61701, Pitch_bend_c, 8, 262
16, 61708, Pitch_bend_c, 8, 461
16, 61715, Pitch_bend_c, 8, 716
16, 61722, Pitch_bend_c, 8, 1027
16, 61729, Pitch_bend_c, 8, 1393
16, 61736, Pitch_bend_c, 8, 1815
16, 61743, Pitch_bend_c, 8, 2293
16, 61750, Pitch_bend_c, 8, 2827
16, 61757, Pitch_bend_c, 8, 3416
16, 61764, Pitch_bend_c, 8, 4061
16, 61771, Pitch_bend_c, 8, 4762
16, 61778, Pitch_bend_c, 8, 5519
16, 61785, Pitch_bend_c, 8, 6331
16, 61792, Pitch_bend_c, 8, 7199
16, 61799, Pitch_bend_c, 8, 8123
16, 61800, Pitch_bend_c, 8, 8192
16, 61920, Note_off_c, 8, 66, 64
16, 61920, Note_on_c, 8, 61, 127
16, 62640, Note_on_c, 8, 64, 79
16, 62640, Note_on_c, 8, 52, 127
16, 62880, Note_off_c, 8, 61, 64
16, 62880, Note_off_c, 8, 64, 64
16, 62880, Note_off_c, 8, 52, 64
16, 62880, Note_on_c, 8, 68, 79
16, 62880, Note_on_c, 8, 56, 127
16, 63120, Note_off_c, 8, 68, 64
16, 63120, Note_off_c, 8, 56, 64
16, 63120, Note_on_c, 8, 71, 79
16, 63120, Note_on_c, 8, 59, 127
16, 63360, Note_off_c, 8, 71, 64
16, 63360, Note_off_c, 8, 59, 64
16, 63360, Note_on_c, 8, 68, 79
16, 63360, Note_on_c, 8, 56, 127
16, 63600, Note_off_c, 8, 68, 64
16, 63600, Note_off_c, 8, 56, 64
16, 63600, Note_on_c, 8, 66, 79
16, 63600, Note_on_c, 8, 54, 127
16, 63840, Note_off_c, 8, 66, 64
16, 63840, Note_off_c, 8, 54, 64
16, 63840, Note_on_c, 8, 64, 79
16, 63840, Note_on_c, 8, 52, 127
16, 64320, Pitch_bend_c, 8, 16383
16, 64320, Note_off_c, 8, 64, 64
16, 64320, Note_off_c, 8, 52, 64
16, 64320, Note_on_c, 8, 64, 79
16, 64320, Note_on_c, 8, 52, 127
16, 64440, Pitch_bend_c, 8, 16128
16, 64447, Pitch_bend_c, 8, 16004
16, 64454, Pitch_bend_c, 8, 15665
16, 64461, Pitch_bend_c, 8, 15109
16, 64468, Pitch_bend_c, 8, 14337
16, 64475, Pitch_bend_c, 8, 13350
16, 64482, Pitch_bend_c, 8, 12146
16, 64489, Pitch_bend_c, 8, 10727
16, 64496, Pitch_bend_c, 8, 9091
16, 64500, Pitch_bend_c, 8, 8192
16, 64680, Note_off_c, 8, 64, 64
16, 64680, Note_off_c, 8, 52, 64
16, 66720, Note_on_c, 8, 56, 127
16, 66960, Note_off_c, 8, 56, 64
16, 66960, Note_on_c, 8, 59, 127
16, 67200, Note_off_c, 8, 59, 64
16, 67200, Note_on_c, 8, 59, 127
16, 67440, Note_off_c, 8, 59, 64
16, 67440, Note_on_c, 8, 64, 127
16, 67560, Pitch_bend_c, 8, 0
16, 67560, Note_off_c, 8, 64, 64
16, 67560, Note_on_c, 8, 61, 127
16, 67567, Pitch_bend_c, 8, 31
16, 67574, Pitch_bend_c, 8, 119
16, 67581, Pitch_bend_c, 8, 262
16, 67588, Pitch_bend_c, 8, 461
16, 67595, Pitch_bend_c, 8, 716
16, 67602, Pitch_bend_c, 8, 1027
16, 67609, Pitch_bend_c, 8, 1393
16, 67616, Pitch_bend_c, 8, 1815
16, 67623, Pitch_bend_c, 8, 2293
16, 67630, Pitch_bend_c, 8, 2827
16, 67637, Pitch_bend_c, 8, 3416
16, 67644, Pitch_bend_c, 8, 4061
16, 67651, Pitch_bend_c, 8, 4762
16, 67658, Pitch_bend_c, 8, 5519
16, 67665, Pitch_bend_c, 8, 6331
16, 67672, Pitch_bend_c, 8, 7199
16, 67679, Pitch_bend_c, 8, 8123
16, 67680, Pitch_bend_c, 8, 8192
16, 67740, Pitch_bend_c, 8, 8192
16, 67747, Pitch_bend_c, 8, 8259
16, 67754, Pitch_bend_c, 8, 8445
16, 67761, Pitch_bend_c, 8, 8750
16, 67768, Pitch_bend_c, 8, 9173
16, 67775, Pitch_bend_c, 8, 9715
16, 67782, Pitch_bend_c, 8, 10375
16, 67789, Pitch_bend_c, 8, 11153
16, 67796, Pitch_bend_c, 8, 12050
16, 67800, Pitch_bend_c, 8, 12544
16, 67840, Pitch_bend_c, 8, 8192
16, 67920, Note_off_c, 8, 61, 64
16, 67920, Note_on_c, 8, 59, 127
16, 68640, Note_off_c, 8, 59, 64
16, 74160, Note_on_c, 8, 52, 127
16, 74400, Note_off_c, 8, 52, 64
16, 74400, Note_on_c, 8, 56, 127
16, 74640, Note_off_c, 8, 56, 64
16, 74640, Note_on_c, 8, 59, 127
16, 74880, Note_off_c, 8, 59, 64
16, 74880, Note_on_c, 8, 59, 127
16, 75120, Note_off_c, 8, 59, 64
16, 75120, Note_on_c, 8, 64, 127
16, 75240, Pitch_bend_c, 8, 0
16, 75240, Note_off_c, 8, 64, 64
16, 75240, Note_on_c, 8, 61, 127
16, 75240, Note_on_c, 8, 66, 79
16, 75247, Pitch_bend_c, 8, 31
16, 75254, Pitch_bend_c, 8, 119
16, 75261, Pitch_bend_c, 8, 262
16, 75268, Pitch_bend_c, 8, 461
16, 75275, Pitch_bend_c, 8, 716
16, 75282, Pitch_bend_c, 8, 1027
16, 75289, Pitch_bend_c, 8, 1393
16, 75296, Pitch_bend_c, 8, 1815
16, 75303, Pitch_bend_c, 8, 2293
16, 75310, Pitch_bend_c, 8, 2827
16, 75317, Pitch_bend_c, 8, 3416
16, 75324, Pitch_bend_c, 8, 4061
16, 75331, Pitch_bend_c, 8, 4762
16, 75338, Pitch_bend_c, 8, 5519
16, 75345, Pitch_bend_c, 8, 6331
16, 75352, Pitch_bend_c, 8, 7199
16, 75359, Pitch_bend_c, 8, 8123
16, 75360, Pitch_bend_c, 8, 8192
16, 75600, Note_off_c, 8, 61, 64
16, 75600, Note_off_c, 8, 66, 64
16, 75600, Note_on_c, 8, 59, 127
16, 75600, Note_on_c, 8, 64, 79
16, 76320, Note_off_c, 8, 59, 64
16, 76320, Note_off_c, 8, 64, 64
16, 82320, Pitch_bend_c, 8, 3328
16, 82320, Note_on_c, 8, 61, 127
16, 82320, Note_on_c, 8, 73, 127
16, 82320, Note_on_c, 8, 66, 79
16, 82327, Pitch_bend_c, 8, 3403
16, 82334, Pitch_bend_c, 8, 3611
16, 82341, Pitch_bend_c, 8, 3952
16, 82348, Pitch_bend_c, 8, 4425
16, 82355, Pitch_bend_c, 8, 5030
16, 82362, Pitch_bend_c, 8, 5768
16, 82369, Pitch_bend_c, 8, 6638
16, 82376, Pitch_bend_c, 8, 7640
16, 82380, Pitch_bend_c, 8, 8192
16, 82560, Note_off_c, 8, 61, 64
16, 82560, Note_off_c, 8, 73, 64
16, 82560, Note_off_c, 8, 66, 64
16, 82560, Note_on_c, 8, 56, 127
16, 82560, Note_on_c, 8, 68, 127
16, 82560, Note_on_c, 8, 61, 79
16, 82800, Note_off_c, 8, 56, 64
16, 82800, Note_off_c, 8, 68, 64
16, 82800, Note_off_c, 8, 61, 64
16, 82800, Note_on_c, 8, 59, 127
16, 82800, Note_on_c, 8, 71, 127
16, 82800, Note_on_c, 8, 64, 79
16, 83280, Pitch_bend_c, 8, 0
16, 83280, Note_off_c, 8, 59, 64
16, 83280, Note_off_c, 8, 71, 64
16, 83280, Note_off_c, 8, 64, 64
16, 83280, Note_on_c, 8, 61, 127
16, 83280, Note_on_c, 8, 73, 127
16, 83280, Note_on_c, 8, 66, 79
16, 83340, Pitch_bend_c, 8, 0
16, 83347, Pitch_bend_c, 8, 127
16, 83354, Pitch_bend_c, 8, 477
16, 83361, Pitch_bend_c, 8, 1051
16, 83368, Pitch_bend_c, 8, 1847
16, 83375, Pitch_bend_c, 8, 2867
16, 83382, Pitch_bend_c, 8, 4109
16, 83389, Pitch_bend_c, 8, 5575
16, 83396, Pitch_bend_c, 8, 7263
16, 83400, Pitch_bend_c, 8, 8192
16, 83520, Note_off_c, 8, 61, 64
16, 83520, Note_off_c, 8, 73, 64
16, 83520, Note_off_c, 8, 66, 64
16, 85920, Note_on_c, 8, 56, 127
16, 86160, Note_off_c, 8, 56, 64
16, 86160, Note_on_c, 8, 59, 127
16, 86400, Note_off_c, 8, 59, 64
16, 86400, Note_on_c, 8, 56, 127
16, 86640, Note_off_c, 8, 56, 64
16, 86640, Note_on_c, 8, 54, 127
16, 86880, Note_off_c, 8, 54, 64
16, 86880, Note_on_c, 8, 52, 127
16, 87360, Pitch_bend_c, 8, 16383
16, 87360, Note_off_c, 8, 52, 64
16, 87360, Note_on_c, 8, 52, 127
16, 87480, Pitch_bend_c, 8, 16128
16, 87487, Pitch_bend_c, 8, 16004
16, 87494, Pitch_bend_c, 8, 15665
16, 87501, Pitch_bend_c, 8, 15109
16, 87508, Pitch_bend_c, 8, 14337
16, 87515, Pitch_bend_c, 8, 13350
16, 87522, Pitch_bend_c, 8, 12146
16, 87529, Pitch_bend_c, 8, 10727
16, 87536, Pitch_bend_c, 8, 9091
16, 87540, Pitch_bend_c, 8, 8192
16, 87840, Note_off_c, 8, 52, 64
16, 89520, Note_on_c, 8, 59, 127
16, 89760, Note_off_c, 8, 59, 64
16, 89760, Note_on_c, 8, 61, 127
16, 90000, Note_off_c, 8, 61, 64
16, 90000, Note_on_c, 8, 64, 127
16, 90240, Note_off_c, 8, 64, 64
16, 90240, Note_on_c, 8, 66, 127
16, 90480, Pitch_bend_c, 8, 2560
16, 90480, Note_off_c, 8, 66, 64
16, 90480, Note_on_c, 8, 68, 127
16, 90487, Pitch_bend_c, 8, 2581
16, 90494, Pitch_bend_c, 8, 2642
16, 90501, Pitch_bend_c, 8, 2740
16, 90508, Pitch_bend_c, 8, 2877
16, 90515, Pitch_bend_c, 8, 3052
16, 90522, Pitch_bend_c, 8, 3266
16, 90529, Pitch_bend_c, 8, 3518
16, 90536, Pitch_bend_c, 8, 3808
16, 90543, Pitch_bend_c, 8, 4136
16, 90550, Pitch_bend_c, 8, 4503
16, 90557, Pitch_bend_c, 8, 4909
16, 90564, Pitch_bend_c, 8, 5352
16, 90571, Pitch_bend_c, 8, 5834
16, 90578, Pitch_bend_c, 8, 6354
16, 90585, Pitch_bend_c, 8, 6913
16, 90592, Pitch_bend_c, 8, 7509
16, 90599, Pitch_bend_c, 8, 8145
16, 90600, Pitch_bend_c, 8, 8192
16, 91200, Note_off_c, 8, 68, 64
16, 91200, Note_on_c, 8, 64, 127
16, 91200, Pitch_bend_c, 8, 16383
16, 91200, Note_on_c, 8, 61, 79
16, 91260, Pitch_bend_c, 8, 16128
16, 91267, Pitch_bend_c, 8, 16004
16, 91274, Pitch_bend_c, 8, 15665
16, 91281, Pitch_bend_c, 8, 15109
16, 91288, Pitch_bend_c, 8, 14337
16, 91295, Pitch_bend_c, 8, 13350
16, 91302, Pitch_bend_c, 8, 12146
16, 91309, Pitch_bend_c, 8, 10727
16, 91316, Pitch_bend_c, 8, 9091
16, 91320, Control_c, 8, 1, 64
16, 91320, Pitch_bend_c, 8, 8192
16, 91800, Note_off_c, 8, 64, 64
16, 91800, Note_off_c, 8, 61, 64
16, 91800, Note_on_c, 8, 66, 127
16, 91800, Control_c, 8, 1, 0
16, 92160, Note_off_c, 8, 66, 64
16, 92160, Note_on_c, 8, 68, 127
16, 92280, Note_off_c, 8, 68, 64
16, 92400, Pitch_bend_c, 8, 0
16, 92400, Note_on_c, 8, 66, 127
16, 92407, Pitch_bend_c, 8, 31
16, 92414, Pitch_bend_c, 8, 119
16, 92421, Pitch_bend_c, 8, 262
16, 92428, Pitch_bend_c, 8, 461
16, 92435, Pitch_bend_c, 8, 716
16, 92442, Pitch_bend_c, 8, 1027
16, 92449, Pitch_bend_c, 8, 1393
16, 92456, Pitch_bend_c, 8, 1815
16, 92463, Pitch_bend_c, 8, 2293
16, 92470, Pitch_bend_c, 8, 2827
16, 92477, Pitch_bend_c, 8, 3416
16, 92484, Pitch_bend_c, 8, 4061
16, 92491, Pitch_bend_c, 8, 4762
16, 92498, Pitch_bend_c, 8, 5519
16, 92505, Pitch_bend_c, 8, 6331
16, 92512, Pitch_bend_c, 8, 7199
16, 92519, Pitch_bend_c, 8, 8123
16, 92520, Pitch_bend_c, 8, 8192
16, 92640, Note_off_c, 8, 66, 64
16, 92640, Note_on_c, 8, 61, 127
16, 93360, Note_on_c, 8, 64, 79
16, 93360, Note_on_c, 8, 52, 127
16, 93600, Note_off_c, 8, 61, 64
16, 93600, Note_off_c, 8, 64, 64
16, 93600, Note_off_c, 8, 52, 64
16, 93600, Note_on_c, 8, 68, 79
16, 93600, Note_on_c, 8, 56, 127
16, 93840, Note_off_c, 8, 68, 64
16, 93840, Note_off_c, 8, 56, 64
16, 93840, Note_on_c, 8, 71, 79
16, 93840, Note_on_c, 8, 59, 127
16, 94080, Note_off_c, 8, 71, 64
16, 94080, Note_off_c, 8, 59, 64
16, 94080, Note_on_c, 8, 68, 79
16, 94080, Note_on_c, 8, 56, 127
16, 94320, Note_off_c, 8, 68, 64
16, 94320, Note_off_c, 8, 56, 64
16, 94320, Note_on_c, 8, 66, 79
16, 94320, Note_on_c, 8, 54, 127
16, 94560, Note_off_c, 8, 66, 64
16, 94560, Note_off_c, 8, 54, 64
16, 94560, Note_on_c, 8, 64, 79
16, 94560, Note_on_c, 8, 52, 127
16, 95040, Pitch_bend_c, 8, 16383
16, 95040, Note_off_c, 8, 64, 64
16, 95040, Note_off_c, 8, 52, 64
16, 95040, Note_on_c, 8, 64, 79
16, 95040, Note_on_c, 8, 52, 127
16, 95160, Pitch_bend_c, 8, 16128
16, 95167, Pitch_bend_c, 8, 16004
16, 95174, Pitch_bend_c, 8, 15665
16, 95181, Pitch_bend_c, 8, 15109
16, 95188, Pitch_bend_c, 8, 14337
16, 95195, Pitch_bend_c, 8, 13350
16, 95202, Pitch_bend_c, 8, 12146
16, 95209, Pitch_bend_c, 8, 10727
16, 95216, Pitch_bend_c, 8, 9091
16, 95220, Pitch_bend_c, 8, 8192
16, 95400, Note_off_c, 8, 64, 64
16, 95400, Note_off_c, 8, 52, 64
16, 113040, Note_on_c, 8, 61, 127
16, 113040, Pitch_bend_c, 8, 3328
16, 113040, Note_on_c, 8, 73, 127
16, 113040, Note_on_c, 8, 66, 79
16, 113047, Pitch_bend_c, 8, 3403
16, 113054, Pitch_bend_c, 8, 3611
16, 113061, Pitch_bend_c, 8, 3952
16, 113068, Pitch_bend_c, 8, 4425
16, 113075, Pitch_bend_c, 8, 5030
16, 113082, Pitch_bend_c, 8, 5768
16, 113089, Pitch_bend_c, 8, 6638
16, 113096, Pitch_bend_c, 8, 7640
16, 113100, Pitch_bend_c, 8, 8192
16, 113280, Note_off_c, 8, 61, 64
16, 113280, Note_off_c, 8, 73, 64
16, 113280, Note_off_c, 8, 66, 64
16, 113280, Note_on_c, 8, 56, 127
16, 113280, Note_on_c, 8, 68, 127
16, 113280, Note_on_c, 8, 61, 79
16, 113520, Note_off_c, 8, 56, 64
16, 113520, Note_off_c, 8, 68, 64
16, 113520, Note_off_c, 8, 61, 64
16, 113520, Note_on_c, 8, 59, 127
16, 113520, Note_on_c, 8, 71, 127
16, 113520, Note_on_c, 8, 64, 79
16, 114000, Pitch_bend_c, 8, 0
16, 114000, Note_off_c, 8, 59, 64
16, 114000, Note_off_c, 8, 71, 64
16, 114000, Note_off_c, 8, 64, 64
16, 114000, Note_on_c, 8, 61, 127
16, 114000, Note_on_c, 8, 73, 127
16, 114000, Note_on_c, 8, 66, 79
16, 114060, Pitch_bend_c, 8, 0
16, 114067, Pitch_bend_c, 8, 127
16, 114074, Pitch_bend_c, 8, 477
16, 114081, Pitch_bend_c, 8, 1051
16, 114088, Pitch_bend_c, 8, 1847
16, 114095, Pitch_bend_c, 8, 2867
16, 114102, Pitch_bend_c, 8, 4109
16, 114109, Pitch_bend_c, 8, 5575
16, 114116, Pitch_bend_c, 8, 7263
16, 114120, Pitch_bend_c, 8, 8192
16, 114240, Note_off_c, 8, 61, 64
16, 114240, Note_off_c, 8, 73, 64
16, 114240, Note_off_c, 8, 66, 64
16, 116640, Note_on_c, 8, 68, 79
16, 116640, Note_on_c, 8, 56, 127
16, 116880, Note_off_c, 8, 68, 64
16, 116880, Note_off_c, 8, 56, 64
16, 116880, Note_on_c, 8, 71, 79
16, 116880, Note_on_c, 8, 59, 127
16, 117120, Note_off_c, 8, 71, 64
16, 117120, Note_off_c, 8, 59, 64
16, 117120, Note_on_c, 8, 68, 79
16, 117120, Note_on_c, 8, 56, 127
16, 117360, Note_off_c, 8, 68, 64
16, 117360, Note_off_c, 8, 56, 64
16, 117360, Note_on_c, 8, 66, 79
16, 117360, Note_on_c, 8, 54, 127
16, 117600, Note_off_c, 8, 66, 64
16, 117600, Note_off_c, 8, 54, 64
16, 117600, Note_on_c, 8, 64, 79
16, 117600, Note_on_c, 8, 52, 127
16, 118080, Pitch_bend_c, 8, 16383
16, 118080, Note_off_c, 8, 64, 64
16, 118080, Note_off_c, 8, 52, 64
16, 118080, Note_on_c, 8, 64, 79
16, 118080, Note_on_c, 8, 52, 127
16, 118200, Pitch_bend_c, 8, 16128
16, 118207, Pitch_bend_c, 8, 16004
16, 118214, Pitch_bend_c, 8, 15665
16, 118221, Pitch_bend_c, 8, 15109
16, 118228, Pitch_bend_c, 8, 14337
16, 118235, Pitch_bend_c, 8, 13350
16, 118242, Pitch_bend_c, 8, 12146
16, 118249, Pitch_bend_c, 8, 10727
16, 118256, Pitch_bend_c, 8, 9091
16, 118260, Pitch_bend_c, 8, 8192
16, 118560, Note_off_c, 8, 64, 64
16, 118560, Note_off_c, 8, 52, 64
16, 120240, Note_on_c, 8, 59, 127
16, 120480, Note_off_c, 8, 59, 64
16, 120480, Note_on_c, 8, 61, 127
16, 120720, Note_off_c, 8, 61, 64
16, 120720, Note_on_c, 8, 64, 127
16, 120960, Note_off_c, 8, 64, 64
16, 120960, Note_on_c, 8, 66, 127
16, 121200, Pitch_bend_c, 8, 2560
16, 121200, Note_off_c, 8, 66, 64
16, 121200, Note_on_c, 8, 68, 127
16, 121207, Pitch_bend_c, 8, 2581
16, 121214, Pitch_bend_c, 8, 2642
16, 121221, Pitch_bend_c, 8, 2740
16, 121228, Pitch_bend_c, 8, 2877
16, 121235, Pitch_bend_c, 8, 3052
16, 121242, Pitch_bend_c, 8, 3266
16, 121249, Pitch_bend_c, 8, 3518
16, 121256, Pitch_bend_c, 8, 3808
16, 121263, Pitch_bend_c, 8, 4136
16, 121270, Pitch_bend_c, 8, 4503
16, 121277, Pitch_bend_c, 8, 4909
16, 121284, Pitch_bend_c, 8, 5352
16, 121291, Pitch_bend_c, 8, 5834
16, 121298, Pitch_bend_c, 8, 6354
16, 121305, Pitch_bend_c, 8, 6913
16, 121312, Pitch_bend_c, 8, 7509
16, 121319, Pitch_bend_c, 8, 8145
16, 121320, Pitch_bend_c, 8, 8192
16, 121920, Note_off_c, 8, 68, 64
16, 121920, Note_on_c, 8, 64, 127
16, 121920, Pitch_bend_c, 8, 16383
16, 121920, Note_on_c, 8, 61, 79
16, 121980, Pitch_bend_c, 8, 16128
16, 121987, Pitch_bend_c, 8, 16004
16, 121994, Pitch_bend_c, 8, 15665
16, 122001, Pitch_bend_c, 8, 15109
16, 122008, Pitch_bend_c, 8, 14337
16, 122015, Pitch_bend_c, 8, 13350
16, 122022, Pitch_bend_c, 8, 12146
16, 122029, Pitch_bend_c, 8, 10727
16, 122036, Pitch_bend_c, 8, 9091
16, 122040, Control_c, 8, 1, 64
16, 122040, Pitch_bend_c, 8, 8192
16, 122520, Note_off_c, 8, 64, 64
16, 122520, Note_off_c, 8, 61, 64
16, 122520, Note_on_c, 8, 66, 127
16, 122520, Control_c, 8, 1, 0
16, 122880, Note_off_c, 8, 66, 64
16, 122880, Note_on_c, 8, 68, 127
16, 123000, Note_off_c, 8, 68, 64
16, 123120, Pitch_bend_c, 8, 0
16, 123120, Note_on_c, 8, 66, 127
16, 123127, Pitch_bend_c, 8, 31
16, 123134, Pitch_bend_c, 8, 119
16, 123141, Pitch_bend_c, 8, 262
16, 123148, Pitch_bend_c, 8, 461
16, 123155, Pitch_bend_c, 8, 716
16, 123162, Pitch_bend_c, 8, 1027
16, 123169, Pitch_bend_c, 8, 1393
16, 123176, Pitch_bend_c, 8, 1815
16, 123183, Pitch_bend_c, 8, 2293
16, 123190, Pitch_bend_c, 8, 2827
16, 123197, Pitch_bend_c, 8, 3416
16, 123204, Pitch_bend_c, 8, 4061
16, 123211, Pitch_bend_c, 8, 4762
16, 123218, Pitch_bend_c, 8, 5519
16, 123225, Pitch_bend_c, 8, 6331
16, 123232, Pitch_bend_c, 8, 7199
16, 123239, Pitch_bend_c, 8, 8123
16, 123240, Pitch_bend_c, 8, 8192
16, 123360, Note_off_c, 8, 66, 64
16, 123360, Note_on_c, 8, 61, 127
16, 124080, Note_on_c, 8, 64, 79
16, 124080, Note_on_c, 8, 52, 127
16, 124320, Note_off_c, 8, 61, 64
16, 124320, Note_off_c, 8, 64, 64
16, 124320, Note_off_c, 8, 52, 64
16, 124320, Note_on_c, 8, 68, 79
16, 124320, Note_on_c, 8, 56, 127
16, 124560, Note_off_c, 8, 68, 64
16, 124560, Note_off_c, 8, 56, 64
16, 124560, Note_on_c, 8, 71, 79
16, 124560, Note_on_c, 8, 59, 127
16, 124800, Note_off_c, 8, 71, 64
16, 124800, Note_off_c, 8, 59, 64
16, 124800, Note_on_c, 8, 68, 79
16, 124800, Note_on_c, 8, 56, 127
16, 125040, Note_off_c, 8, 68, 64
16, 125040, Note_off_c, 8, 56, 64
16, 125040, Note_on_c, 8, 66, 79
16, 125040, Note_on_c, 8, 54, 127
16, 125280, Note_off_c, 8, 66, 64
16, 125280, Note_off_c, 8, 54, 64
16, 125280, Note_on_c, 8, 64, 79
16, 125280, Note_on_c, 8, 52, 127
16, 125760, Pitch_bend_c, 8, 16383
16, 125760, Note_off_c, 8, 64, 64
16, 125760, Note_off_c, 8, 52, 64
16, 125760, Note_on_c, 8, 64, 79
16, 125760, Note_on_c, 8, 52, 127
16, 125880, Pitch_bend_c, 8, 16128
16, 125887, Pitch_bend_c, 8, 16004
16, 125894, Pitch_bend_c, 8, 15665
16, 125901, Pitch_bend_c, 8, 15109
16, 125908, Pitch_bend_c, 8, 14337
16, 125915, Pitch_bend_c, 8, 13350
16, 125922, Pitch_bend_c, 8, 12146
16, 125929, Pitch_bend_c, 8, 10727
16, 125936, Pitch_bend_c, 8, 9091
16, 125940, Pitch_bend_c, 8, 8192
16, 126120, Note_off_c, 8, 64, 64
16, 126120, Note_off_c, 8, 52, 64
16, 128400, Note_on_c, 8, 61, 127
16, 128400, Pitch_bend_c, 8, 3328
16, 128400, Note_on_c, 8, 73, 127
16, 128400, Note_on_c, 8, 66, 79
16, 128407, Pitch_bend_c, 8, 3403
16, 128414, Pitch_bend_c, 8, 3611
16, 128421, Pitch_bend_c, 8, 3952
16, 128428, Pitch_bend_c, 8, 4425
16, 128435, Pitch_bend_c, 8, 5030
16, 128442, Pitch_bend_c, 8, 5768
16, 128449, Pitch_bend_c, 8, 6638
16, 128456, Pitch_bend_c, 8, 7640
16, 128460, Pitch_bend_c, 8, 8192
16, 128640, Note_off_c, 8, 61, 64
16, 128640, Note_off_c, 8, 73, 64
16, 128640, Note_off_c, 8, 66, 64
16, 128640, Note_on_c, 8, 56, 127
16, 128640, Note_on_c, 8, 68, 127
16, 128640, Note_on_c, 8, 61, 79
16, 128880, Note_off_c, 8, 56, 64
16, 128880, Note_off_c, 8, 68, 64
16, 128880, Note_off_c, 8, 61, 64
16, 128880, Note_on_c, 8, 59, 127
16, 128880, Note_on_c, 8, 71, 127
16, 128880, Note_on_c, 8, 64, 79
16, 129360, Pitch_bend_c, 8, 0
16, 129360, Note_off_c, 8, 59, 64
16, 129360, Note_off_c, 8, 71, 64
16, 129360, Note_off_c, 8, 64, 64
16, 129360, Note_on_c, 8, 61, 127
16, 129360, Note_on_c, 8, 73, 127
16, 129360, Note_on_c, 8, 66, 79
16, 129420, Pitch_bend_c, 8, 0
16, 129427, Pitch_bend_c, 8, 127
16, 129434, Pitch_bend_c, 8, 477
16, 129441, Pitch_bend_c, 8, 1051
16, 129448, Pitch_bend_c, 8, 1847
16, 129455, Pitch_bend_c, 8, 2867
16, 129462, Pitch_bend_c, 8, 4109
16, 129469, Pitch_bend_c, 8, 5575
16, 129476, Pitch_bend_c, 8, 7263
16, 129480, Pitch_bend_c, 8, 8192
16, 129600, Note_off_c, 8, 61, 64
16, 129600, Note_off_c, 8, 73, 64
16, 129600, Note_off_c, 8, 66, 64
16, 132000, Note_on_c, 8, 68, 79
16, 132000, Note_on_c, 8, 56, 127
16, 132240, Note_off_c, 8, 68, 64
16, 132240, Note_off_c, 8, 56, 64
16, 132240, Note_on_c, 8, 71, 79
16, 132240, Note_on_c, 8, 59, 127
16, 132480, Note_off_c, 8, 71, 64
16, 132480, Note_off_c, 8, 59, 64
16, 132480, Note_on_c, 8, 68, 79
16, 132480, Note_on_c, 8, 56, 127
16, 132720, Note_off_c, 8, 68, 64
16, 132720, Note_off_c, 8, 56, 64
16, 132720, Note_on_c, 8, 66, 79
16, 132720, Note_on_c, 8, 54, 127
16, 132960, Note_off_c, 8, 66, 64
16, 132960, Note_off_c, 8, 54, 64
16, 132960, Note_on_c, 8, 64, 79
16, 132960, Note_on_c, 8, 52, 127
16, 133440, Pitch_bend_c, 8, 16383
16, 133440, Note_off_c, 8, 64, 64
16, 133440, Note_off_c, 8, 52, 64
16, 133440, Note_on_c, 8, 64, 79
16, 133440, Note_on_c, 8, 52, 127
16, 133560, Pitch_bend_c, 8, 16128
16, 133567, Pitch_bend_c, 8, 16004
16, 133574, Pitch_bend_c, 8, 15665
16, 133581, Pitch_bend_c, 8, 15109
16, 133588, Pitch_bend_c, 8, 14337
16, 133595, Pitch_bend_c, 8, 13350
16, 133602, Pitch_bend_c, 8, 12146
16, 133609, Pitch_bend_c, 8, 10727
16, 133616, Pitch_bend_c, 8, 9091
16, 133620, Pitch_bend_c, 8, 8192
16, 133920, Note_off_c, 8, 64, 64
16, 133920, Note_off_c, 8, 52, 64
16, 135600, Note_on_c, 8, 59, 127
16, 135840, Note_off_c, 8, 59, 64
16, 135840, Note_on_c, 8, 61, 127
16, 136080, Note_off_c, 8, 61, 64
16, 136080, Note_on_c, 8, 64, 127
16, 136320, Note_off_c, 8, 64, 64
16, 136320, Note_on_c, 8, 66, 127
16, 136560, Pitch_bend_c, 8, 2560
16, 136560, Note_off_c, 8, 66, 64
16, 136560, Note_on_c, 8, 68, 127
16, 136567, Pitch_bend_c, 8, 2581
16, 136574, Pitch_bend_c, 8, 2642
16, 136581, Pitch_bend_c, 8, 2740
16, 136588, Pitch_bend_c, 8, 2877
16, 136595, Pitch_bend_c, 8, 3052
16, 136602, Pitch_bend_c, 8, 3266
16, 136609, Pitch_bend_c, 8, 3518
16, 136616, Pitch_bend_c, 8, 3808
16, 136623, Pitch_bend_c, 8, 4136
16, 136630, Pitch_bend_c, 8, 4503
16, 136637, Pitch_bend_c, 8, 4909
16, 136644, Pitch_bend_c, 8, 5352
16, 136651, Pitch_bend_c, 8, 5834
16, 136658, Pitch_bend_c, 8, 6354
16, 136665, Pitch_bend_c, 8, 6913
16, 136672, Pitch_bend_c, 8, 7509
16, 136679, Pitch_bend_c, 8, 8145
16, 136680, Pitch_bend_c, 8, 8192
16, 137280, Note_off_c, 8, 68, 64
16, 137280, Note_on_c, 8, 64, 127
16, 137280, Pitch_bend_c, 8, 16383
16, 137280, Note_on_c, 8, 61, 79
16, 137340, Pitch_bend_c, 8, 16128
16, 137347, Pitch_bend_c, 8, 16004
16, 137354, Pitch_bend_c, 8, 15665
16, 137361, Pitch_bend_c, 8, 15109
16, 137368, Pitch_bend_c, 8, 14337
16, 137375, Pitch_bend_c, 8, 13350
16, 137382, Pitch_bend_c, 8, 12146
16, 137389, Pitch_bend_c, 8, 10727
16, 137396, Pitch_bend_c, 8, 9091
16, 137400, Control_c, 8, 1, 64
16, 137400, Pitch_bend_c, 8, 8192
16, 137880, Note_off_c, 8, 64, 64
16, 137880, Note_off_c, 8, 61, 64
16, 137880, Note_on_c, 8, 66, 127
16, 137880, Control_c, 8, 1, 0
16, 138240, Note_off_c, 8, 66, 64
16, 138240, Note_on_c, 8, 68, 127
16, 138360, Note_off_c, 8, 68, 64
16, 138480, Pitch_bend_c, 8, 0
16, 138480, Note_on_c, 8, 66, 127
16, 138487, Pitch_bend_c, 8, 31
16, 138494, Pitch_bend_c, 8, 119
16, 138501, Pitch_bend_c, 8, 262
16, 138508, Pitch_bend_c, 8, 461
16, 138515, Pitch_bend_c, 8, 716
16, 138522, Pitch_bend_c, 8, 1027
16, 138529, Pitch_bend_c, 8, 1393
16, 138536, Pitch_bend_c, 8, 1815
16, 138543, Pitch_bend_c, 8, 2293
16, 138550, Pitch_bend_c, 8, 2827
16, 138557, Pitch_bend_c, 8, 3416
16, 138564, Pitch_bend_c, 8, 4061
16, 138571, Pitch_bend_c, 8, 4762
16, 138578, Pitch_bend_c, 8, 5519
16, 138585, Pitch_bend_c, 8, 6331
16, 138592, Pitch_bend_c, 8, 7199
16, 138599, Pitch_bend_c, 8, 8123
16, 138600, Pitch_bend_c, 8, 8192
16, 138720, Note_off_c, 8, 66, 64
16, 138720, Note_on_c, 8, 61, 127
16, 139440, Note_on_c, 8, 64, 79
16, 139440, Note_on_c, 8, 52, 127
16, 139680, Note_off_c, 8, 61, 64
16, 139680, Note_off_c, 8, 64, 64
16, 139680, Note_off_c, 8, 52, 64
16, 139680, Note_on_c, 8, 68, 79
16, 139680, Note_on_c, 8, 56, 127
16, 139920, Note_off_c, 8, 68, 64
16, 139920, Note_off_c, 8, 56, 64
16, 139920, Note_on_c, 8, 71, 79
16, 139920, Note_on_c, 8, 59, 127
16, 140160, Note_off_c, 8, 71, 64
16, 140160, Note_off_c, 8, 59, 64
16, 140160, Note_on_c, 8, 68, 79
16, 140160, Note_on_c, 8, 56, 127
16, 140400, Note_off_c, 8, 68, 64
16, 140400, Note_off_c, 8, 56, 64
16, 140400, Note_on_c, 8, 66, 79
16, 140400, Note_on_c, 8, 54, 127
16, 140640, Note_off_c, 8, 66, 64
16, 140640, Note_off_c, 8, 54, 64
16, 140640, Note_on_c, 8, 64, 79
16, 140640, Note_on_c, 8, 52, 127
16, 141120, Pitch_bend_c, 8, 16383
16, 141120, Note_off_c, 8, 64, 64
16, 141120, Note_off_c, 8, 52, 64
16, 141120, Note_on_c, 8, 64, 79
16, 141120, Note_on_c, 8, 52, 127
16, 141240, Pitch_bend_c, 8, 16128
16, 141247, Pitch_bend_c, 8, 16004
16, 141254, Pitch_bend_c, 8, 15665
16, 141261, Pitch_bend_c, 8, 15109
16, 141268, Pitch_bend_c, 8, 14337
16, 141275, Pitch_bend_c, 8, 13350
16, 141282, Pitch_bend_c, 8, 12146
16, 141289, Pitch_bend_c, 8, 10727
16, 141296, Pitch_bend_c, 8, 9091
16, 141300, Pitch_bend_c, 8, 8192
16, 141480, Note_off_c, 8, 64, 64
16, 141480, Note_off_c, 8, 52, 64
16, 146400, End_track
17, 0, Start_track
17, 0, Instrument_name_t, "SB AWE32 MIDI Synth [62"
17, 0, Title_t, "Choosey Lover"
17, 37800, Note_on_c, 11, 76, 127
17, 37920, Note_off_c, 11, 76, 64
17, 37920, Note_on_c, 11, 73, 127
17, 38040, Note_off_c, 11, 73, 64
17, 38040, Note_on_c, 11, 76, 127
17, 38160, Note_off_c, 11, 76, 64
17, 38160, Note_on_c, 11, 73, 127
17, 38280, Pitch_bend_c, 11, 0
17, 38280, Note_off_c, 11, 73, 64
17, 38280, Note_on_c, 11, 78, 127
17, 38287, Pitch_bend_c, 11, 31
17, 38294, Pitch_bend_c, 11, 119
17, 38301, Pitch_bend_c, 11, 262
17, 38308, Pitch_bend_c, 11, 461
17, 38315, Pitch_bend_c, 11, 716
17, 38322, Pitch_bend_c, 11, 1027
17, 38329, Pitch_bend_c, 11, 1393
17, 38336, Pitch_bend_c, 11, 1815
17, 38343, Pitch_bend_c, 11, 2293
17, 38350, Pitch_bend_c, 11, 2827
17, 38357, Pitch_bend_c, 11, 3416
17, 38364, Pitch_bend_c, 11, 4061
17, 38371, Pitch_bend_c, 11, 4762
17, 38378, Pitch_bend_c, 11, 5519
17, 38385, Pitch_bend_c, 11, 6331
17, 38392, Pitch_bend_c, 11, 7199
17, 38399, Pitch_bend_c, 11, 8123
17, 38400, Pitch_bend_c, 11, 8192
17, 38460, Pitch_bend_c, 11, 8192
17, 38467, Pitch_bend_c, 11, 8259
17, 38474, Pitch_bend_c, 11, 8445
17, 38481, Pitch_bend_c, 11, 8750
17, 38488, Pitch_bend_c, 11, 9173
17, 38495, Pitch_bend_c, 11, 9715
17, 38502, Pitch_bend_c, 11, 10375
17, 38509, Pitch_bend_c, 11, 11153
17, 38516, Pitch_bend_c, 11, 12050
17, 38520, Pitch_bend_c, 11, 12544
17, 38560, Pitch_bend_c, 11, 8192
17, 38640, Note_off_c, 11, 78, 64
17, 38640, Note_on_c, 11, 76, 127
17, 39300, Pitch_bend_c, 11, 8192
17, 39307, Pitch_bend_c, 11, 8064
17, 39314, Pitch_bend_c, 11, 7714
17, 39321, Pitch_bend_c, 11, 7140
17, 39328, Pitch_bend_c, 11, 6344
17, 39335, Pitch_bend_c, 11, 5324
17, 39342, Pitch_bend_c, 11, 4082
17, 39349, Pitch_bend_c, 11, 2616
17, 39356, Pitch_bend_c, 11, 928
17, 39360, Note_off_c, 11, 76, 64
17, 39360, Pitch_bend_c, 11, 8192
17, 39480, Note_on_c, 11, 73, 127
17, 39600, Note_off_c, 11, 73, 64
17, 39600, Note_on_c, 11, 76, 127
17, 39720, Note_off_c, 11, 76, 64
17, 39720, Note_on_c, 11, 73, 127
17, 39840, Pitch_bend_c, 11, 3328
17, 39840, Note_off_c, 11, 73, 64
17, 39840, Note_on_c, 11, 80, 127
17, 39847, Pitch_bend_c, 11, 3346
17, 39854, Pitch_bend_c, 11, 3398
17, 39861, Pitch_bend_c, 11, 3484
17, 39868, Pitch_bend_c, 11, 3602
17, 39875, Pitch_bend_c, 11, 3753
17, 39882, Pitch_bend_c, 11, 3938
17, 39889, Pitch_bend_c, 11, 4155
17, 39896, Pitch_bend_c, 11, 4406
17, 39903, Pitch_bend_c, 11, 4689
17, 39910, Pitch_bend_c, 11, 5006
17, 39917, Pitch_bend_c, 11, 5356
17, 39924, Pitch_bend_c, 11, 5739
17, 39931, Pitch_bend_c, 11, 6155
17, 39938, Pitch_bend_c, 11, 6605
17, 39945, Pitch_bend_c, 11, 7087
17, 39952, Pitch_bend_c, 11, 7602
17, 39959, Pitch_bend_c, 11, 8151
17, 39960, Pitch_bend_c, 11, 8192
17, 40080, Note_off_c, 11, 80, 64
17, 40080, Note_on_c, 11, 78, 127
17, 40080, Pitch_bend_c, 11, 8192
17, 40087, Pitch_bend_c, 11, 8319
17, 40094, Pitch_bend_c, 11, 8669
17, 40101, Pitch_bend_c, 11, 9243
17, 40108, Pitch_bend_c, 11, 10039
17, 40115, Pitch_bend_c, 11, 11058
17, 40122, Pitch_bend_c, 11, 12301
17, 40129, Pitch_bend_c, 11, 13766
17, 40136, Pitch_bend_c, 11, 15454
17, 40140, Pitch_bend_c, 11, 16128
17, 40147, Pitch_bend_c, 11, 16004
17, 40154, Pitch_bend_c, 11, 15665
17, 40161, Pitch_bend_c, 11, 15109
17, 40168, Pitch_bend_c, 11, 14337
17, 40175, Pitch_bend_c, 11, 13350
17, 40182, Pitch_bend_c, 11, 12146
17, 40189, Pitch_bend_c, 11, 10727
17, 40196, Pitch_bend_c, 11, 9091
17, 40200, Pitch_bend_c, 11, 8192
17, 40320, Note_off_c, 11, 78, 64
17, 40320, Note_on_c, 11, 76, 127
17, 40560, Note_off_c, 11, 76, 64
17, 40560, Note_on_c, 11, 76, 127
17, 41400, Pitch_bend_c, 11, 0
17, 41400, Note_off_c, 11, 76, 64
17, 41400, Note_on_c, 11, 78, 127
17, 41407, Pitch_bend_c, 11, 31
17, 41414, Pitch_bend_c, 11, 119
17, 41421, Pitch_bend_c, 11, 262
17, 41428, Pitch_bend_c, 11, 461
17, 41435, Pitch_bend_c, 11, 716
17, 41442, Pitch_bend_c, 11, 1027
17, 41449, Pitch_bend_c, 11, 1393
17, 41456, Pitch_bend_c, 11, 1815
17, 41463, Pitch_bend_c, 11, 2293
17, 41470, Pitch_bend_c, 11, 2827
17, 41477, Pitch_bend_c, 11, 3416
17, 41484, Pitch_bend_c, 11, 4061
17, 41491, Pitch_bend_c, 11, 4762
17, 41498, Pitch_bend_c, 11, 5519
17, 41505, Pitch_bend_c, 11, 6331
17, 41512, Pitch_bend_c, 11, 7199
17, 41519, Pitch_bend_c, 11, 8123
17, 41520, Pitch_bend_c, 11, 8192
17, 41760, Note_off_c, 11, 78, 64
17, 41760, Note_on_c, 11, 73, 127
17, 41820, Pitch_bend_c, 11, 8192
17, 41827, Pitch_bend_c, 11, 8064
17, 41834, Pitch_bend_c, 11, 7714
17, 41841, Pitch_bend_c, 11, 7140
17, 41848, Pitch_bend_c, 11, 6344
17, 41855, Pitch_bend_c, 11, 5324
17, 41862, Pitch_bend_c, 11, 4082
17, 41869, Pitch_bend_c, 11, 2616
17, 41876, Pitch_bend_c, 11, 928
17, 41880, Pitch_bend_c, 11, 0
17, 42000, Note_off_c, 11, 73, 64
17, 42000, Note_on_c, 11, 68, 127
17, 42000, Pitch_bend_c, 11, 8192
17, 42240, Note_off_c, 11, 68, 64
17, 45000, Note_on_c, 11, 71, 127
17, 45120, Note_off_c, 11, 71, 64
17, 45120, Note_on_c, 11, 76, 127
17, 45240, Note_off_c, 11, 76, 64
17, 45240, Note_on_c, 11, 73, 127
17, 45360, Note_off_c, 11, 73, 64
17, 45360, Note_on_c, 11, 76, 127
17, 45480, Note_off_c, 11, 76, 64
17, 45480, Note_on_c, 11, 78, 127
17, 45600, Pitch_bend_c, 11, 3072
17, 45600, Note_off_c, 11, 78, 64
17, 45600, Note_on_c, 11, 80, 127
17, 45607, Pitch_bend_c, 11, 3151
17, 45614, Pitch_bend_c, 11, 3370
17, 45621, Pitch_bend_c, 11, 3729
17, 45628, Pitch_bend_c, 11, 4226
17, 45635, Pitch_bend_c, 11, 4863
17, 45642, Pitch_bend_c, 11, 5640
17, 45649, Pitch_bend_c, 11, 6556
17, 45656, Pitch_bend_c, 11, 7611
17, 45660, Pitch_bend_c, 11, 8192
17, 45720, Note_off_c, 11, 80, 64
17, 45720, Note_on_c, 11, 78, 127
17, 45840, Note_off_c, 11, 78, 64
17, 45840, Note_on_c, 11, 76, 127
17, 46140, Pitch_bend_c, 11, 8192
17, 46147, Pitch_bend_c, 11, 8319
17, 46154, Pitch_bend_c, 11, 8669
17, 46161, Pitch_bend_c, 11, 9243
17, 46168, Pitch_bend_c, 11, 10039
17, 46175, Pitch_bend_c, 11, 11058
17, 46182, Pitch_bend_c, 11, 12301
17, 46189, Pitch_bend_c, 11, 13766
17, 46196, Pitch_bend_c, 11, 15454
17, 46200, Pitch_bend_c, 11, 16383
17, 46320, Note_off_c, 11, 76, 64
17, 46320, Pitch_bend_c, 11, 8192
17, 46680, Note_on_c, 11, 76, 127
17, 46800, Note_off_c, 11, 76, 64
17, 46800, Note_on_c, 11, 78, 127
17, 46920, Note_off_c, 11, 78, 64
17, 46920, Note_on_c, 11, 76, 127
17, 47040, Pitch_bend_c, 11, 2560
17, 47040, Note_off_c, 11, 76, 64
17, 47040, Note_on_c, 11, 80, 127
17, 47047, Pitch_bend_c, 11, 2647
17, 47054, Pitch_bend_c, 11, 2888
17, 47061, Pitch_bend_c, 11, 3282
17, 47068, Pitch_bend_c, 11, 3830
17, 47075, Pitch_bend_c, 11, 4531
17, 47082, Pitch_bend_c, 11, 5385
17, 47089, Pitch_bend_c, 11, 6392
17, 47096, Pitch_bend_c, 11, 7553
17, 47100, Pitch_bend_c, 11, 8192
17, 47280, Note_off_c, 11, 80, 64
17, 47280, Note_on_c, 11, 76, 127
17, 47280, Pitch_bend_c, 11, 16383
17, 47400, Pitch_bend_c, 11, 8192
17, 47760, Note_off_c, 11, 76, 64
17, 47940, Note_on_c, 11, 71, 127
17, 48000, Note_off_c, 11, 71, 64
17, 48000, Note_on_c, 11, 78, 127
17, 48240, Note_off_c, 11, 78, 64
17, 48240, Note_on_c, 11, 80, 127
17, 48360, Note_off_c, 11, 80, 64
17, 48360, Note_on_c, 11, 76, 127
17, 48480, Pitch_bend_c, 11, 16383
17, 48480, Note_off_c, 11, 76, 64
17, 48480, Note_on_c, 11, 76, 127
17, 48660, Pitch_bend_c, 11, 16383
17, 48667, Pitch_bend_c, 11, 16255
17, 48674, Pitch_bend_c, 11, 15905
17, 48681, Pitch_bend_c, 11, 15331
17, 48688, Pitch_bend_c, 11, 14535
17, 48695, Pitch_bend_c, 11, 13516
17, 48702, Pitch_bend_c, 11, 12273
17, 48709, Pitch_bend_c, 11, 10808
17, 48716, Pitch_bend_c, 11, 9120
17, 48720, Pitch_bend_c, 11, 8192
17, 49200, Note_off_c, 11, 76, 64
17, 49440, Note_on_c, 11, 78, 127
17, 49440, Pitch_bend_c, 11, 16383
17, 49447, Pitch_bend_c, 11, 16311
17, 49454, Pitch_bend_c, 11, 16114
17, 49461, Pitch_bend_c, 11, 15791
17, 49468, Pitch_bend_c, 11, 15343
17, 49475, Pitch_bend_c, 11, 14770
17, 49482, Pitch_bend_c, 11, 14071
17, 49489, Pitch_bend_c, 11, 13247
17, 49496, Pitch_bend_c, 11, 12297
17, 49503, Pitch_bend_c, 11, 11222
17, 49510, Pitch_bend_c, 11, 10022
17, 49517, Pitch_bend_c, 11, 8696
17, 49520, Pitch_bend_c, 11, 8192
17, 49560, Pitch_bend_c, 11, 8192
17, 49568, Pitch_bend_c, 11, 9728
17, 49576, Pitch_bend_c, 11, 11264
17, 49584, Pitch_bend_c, 11, 12800
17, 49592, Pitch_bend_c, 11, 14336
17, 49599, Pitch_bend_c, 11, 15872
17, 49600, Pitch_bend_c, 11, 16383
17, 49607, Pitch_bend_c, 11, 16311
17, 49614, Pitch_bend_c, 11, 16114
17, 49621, Pitch_bend_c, 11, 15791
17, 49628, Pitch_bend_c, 11, 15343
17, 49635, Pitch_bend_c, 11, 14770
17, 49642, Pitch_bend_c, 11, 14071
17, 49649, Pitch_bend_c, 11, 13247
17, 49656, Pitch_bend_c, 11, 12297
17, 49663, Pitch_bend_c, 11, 11222
17, 49670, Pitch_bend_c, 11, 10022
17, 49677, Pitch_bend_c, 11, 8696
17, 49680, Pitch_bend_c, 11, 8192
17, 49920, Note_off_c, 11, 78, 64
17, 50040, Note_on_c, 11, 76, 127
17, 50160, Note_off_c, 11, 76, 64
17, 50160, Note_on_c, 11, 78, 127
17, 50280, Pitch_bend_c, 11, 0
17, 50280, Note_off_c, 11, 78, 64
17, 50280, Note_on_c, 11, 80, 127
17, 50287, Pitch_bend_c, 11, 31
17, 50294, Pitch_bend_c, 11, 119
17, 50301, Pitch_bend_c, 11, 262
17, 50308, Pitch_bend_c, 11, 461
17, 50315, Pitch_bend_c, 11, 716
17, 50322, Pitch_bend_c, 11, 1027
17, 50329, Pitch_bend_c, 11, 1393
17, 50336, Pitch_bend_c, 11, 1815
17, 50343, Pitch_bend_c, 11, 2293
17, 50350, Pitch_bend_c, 11, 2827
17, 50357, Pitch_bend_c, 11, 3416
17, 50364, Pitch_bend_c, 11, 4061
17, 50371, Pitch_bend_c, 11, 4762
17, 50378, Pitch_bend_c, 11, 5519
17, 50385, Pitch_bend_c, 11, 6331
17, 50392, Pitch_bend_c, 11, 7199
17, 50399, Pitch_bend_c, 11, 8123
17, 50400, Pitch_bend_c, 11, 8192
17, 50520, Note_off_c, 11, 80, 64
17, 50520, Note_on_c, 11, 78, 127
17, 50640, Note_off_c, 11, 78, 64
17, 50640, Note_on_c, 11, 76, 127
17, 51120, Note_off_c, 11, 76, 64
17, 51120, Note_on_c, 11, 78, 127
17, 51180, Note_off_c, 11, 78, 64
17, 51180, Note_on_c, 11, 76, 127
17, 51240, Note_off_c, 11, 76, 64
17, 51240, Note_on_c, 11, 73, 127
17, 51300, Note_off_c, 11, 73, 64
17, 65520, Note_on_c, 11, 73, 127
17, 65640, Note_off_c, 11, 73, 64
17, 65640, Note_on_c, 11, 71, 127
17, 65760, Note_off_c, 11, 71, 64
17, 65760, Note_on_c, 11, 76, 127
17, 65880, Note_off_c, 11, 76, 64
17, 65880, Note_on_c, 11, 76, 127
17, 66000, Note_off_c, 11, 76, 64
17, 66000, Note_on_c, 11, 73, 127
17, 66240, Note_off_c, 11, 73, 64
17, 68400, Note_on_c, 11, 80, 127
17, 68520, Note_off_c, 11, 80, 64
17, 68520, Note_on_c, 11, 78, 127
17, 68640, Note_off_c, 11, 78, 64
17, 68640, Note_on_c, 11, 76, 127
17, 68880, Note_off_c, 11, 76, 64
17, 68880, Note_on_c, 11, 78, 127
17, 69000, Pitch_bend_c, 11, 0
17, 69000, Note_off_c, 11, 78, 64
17, 69000, Note_on_c, 11, 80, 127
17, 69007, Pitch_bend_c, 11, 31
17, 69014, Pitch_bend_c, 11, 119
17, 69021, Pitch_bend_c, 11, 262
17, 69028, Pitch_bend_c, 11, 461
17, 69035, Pitch_bend_c, 11, 716
17, 69042, Pitch_bend_c, 11, 1027
17, 69049, Pitch_bend_c, 11, 1393
17, 69056, Pitch_bend_c, 11, 1815
17, 69063, Pitch_bend_c, 11, 2293
17, 69070, Pitch_bend_c, 11, 2827
17, 69077, Pitch_bend_c, 11, 3416
17, 69084, Pitch_bend_c, 11, 4061
17, 69091, Pitch_bend_c, 11, 4762
17, 69098, Pitch_bend_c, 11, 5519
17, 69105, Pitch_bend_c, 11, 6331
17, 69112, Pitch_bend_c, 11, 7199
17, 69119, Pitch_bend_c, 11, 8123
17, 69120, Pitch_bend_c, 11, 8192
17, 69240, Note_off_c, 11, 80, 64
17, 69240, Note_on_c, 11, 78, 127
17, 69360, Note_off_c, 11, 78, 64
17, 69360, Note_on_c, 11, 76, 127
17, 69600, Note_off_c, 11, 76, 64
17, 69600, Note_on_c, 11, 78, 127
17, 69660, Note_off_c, 11, 78, 64
17, 69660, Note_on_c, 11, 76, 127
17, 69720, Note_off_c, 11, 76, 64
17, 69720, Note_on_c, 11, 73, 127
17, 69960, Note_off_c, 11, 73, 64
17, 70320, Note_on_c, 11, 73, 127
17, 70440, Note_off_c, 11, 73, 64
17, 70440, Note_on_c, 11, 71, 127
17, 70560, Pitch_bend_c, 11, 3328
17, 70560, Note_off_c, 11, 71, 64
17, 70560, Note_on_c, 11, 80, 127
17, 70567, Pitch_bend_c, 11, 3346
17, 70574, Pitch_bend_c, 11, 3398
17, 70581, Pitch_bend_c, 11, 3484
17, 70588, Pitch_bend_c, 11, 3602
17, 70595, Pitch_bend_c, 11, 3753
17, 70602, Pitch_bend_c, 11, 3938
17, 70609, Pitch_bend_c, 11, 4155
17, 70616, Pitch_bend_c, 11, 4406
17, 70623, Pitch_bend_c, 11, 4689
17, 70630, Pitch_bend_c, 11, 5006
17, 70637, Pitch_bend_c, 11, 5356
17, 70644, Pitch_bend_c, 11, 5739
17, 70651, Pitch_bend_c, 11, 6155
17, 70658, Pitch_bend_c, 11, 6605
17, 70665, Pitch_bend_c, 11, 7087
17, 70672, Pitch_bend_c, 11, 7602
17, 70679, Pitch_bend_c, 11, 8151
17, 70680, Pitch_bend_c, 11, 8192
17, 70800, Note_off_c, 11, 80, 64
17, 70800, Note_on_c, 11, 78, 127
17, 70800, Pitch_bend_c, 11, 8192
17, 70807, Pitch_bend_c, 11, 8319
17, 70814, Pitch_bend_c, 11, 8669
17, 70821, Pitch_bend_c, 11, 9243
17, 70828, Pitch_bend_c, 11, 10039
17, 70835, Pitch_bend_c, 11, 11058
17, 70842, Pitch_bend_c, 11, 12301
17, 70849, Pitch_bend_c, 11, 13766
17, 70856, Pitch_bend_c, 11, 15454
17, 70860, Pitch_bend_c, 11, 16128
17, 70867, Pitch_bend_c, 11, 16004
17, 70874, Pitch_bend_c, 11, 15665
17, 70881, Pitch_bend_c, 11, 15109
17, 70888, Pitch_bend_c, 11, 14337
17, 70895, Pitch_bend_c, 11, 13350
17, 70902, Pitch_bend_c, 11, 12146
17, 70909, Pitch_bend_c, 11, 10727
17, 70916, Pitch_bend_c, 11, 9091
17, 70920, Pitch_bend_c, 11, 8192
17, 71040, Note_off_c, 11, 78, 64
17, 71040, Note_on_c, 11, 76, 127
17, 71280, Note_off_c, 11, 76, 64
17, 71280, Note_on_c, 11, 76, 127
17, 71880, Note_off_c, 11, 76, 64
17, 71880, Note_on_c, 11, 78, 127
17, 71940, Note_off_c, 11, 78, 64
17, 71940, Note_on_c, 11, 80, 127
17, 72000, Note_off_c, 11, 80, 64
17, 72480, Pitch_bend_c, 11, 16383
17, 72480, Note_on_c, 11, 78, 127
17, 72487, Pitch_bend_c, 11, 16311
17, 72494, Pitch_bend_c, 11, 16114
17, 72501, Pitch_bend_c, 11, 15791
17, 72508, Pitch_bend_c, 11, 15343
17, 72515, Pitch_bend_c, 11, 14770
17, 72522, Pitch_bend_c, 11, 14071
17, 72529, Pitch_bend_c, 11, 13247
17, 72536, Pitch_bend_c, 11, 12297
17, 72543, Pitch_bend_c, 11, 11222
17, 72550, Pitch_bend_c, 11, 10022
17, 72557, Pitch_bend_c, 11, 8696
17, 72560, Pitch_bend_c, 11, 8192
17, 72600, Pitch_bend_c, 11, 8192
17, 72608, Pitch_bend_c, 11, 9728
17, 72616, Pitch_bend_c, 11, 11264
17, 72624, Pitch_bend_c, 11, 12800
17, 72632, Pitch_bend_c, 11, 14336
17, 72639, Pitch_bend_c, 11, 15872
17, 72640, Pitch_bend_c, 11, 16383
17, 72647, Pitch_bend_c, 11, 16311
17, 72654, Pitch_bend_c, 11, 16114
17, 72661, Pitch_bend_c, 11, 15791
17, 72668, Pitch_bend_c, 11, 15343
17, 72675, Pitch_bend_c, 11, 14770
17, 72682, Pitch_bend_c, 11, 14071
17, 72689, Pitch_bend_c, 11, 13247
17, 72696, Pitch_bend_c, 11, 12297
17, 72703, Pitch_bend_c, 11, 11222
17, 72710, Pitch_bend_c, 11, 10022
17, 72717, Pitch_bend_c, 11, 8696
17, 72720, Pitch_bend_c, 11, 8192
17, 72750, Pitch_bend_c, 11, 8192
17, 72757, Pitch_bend_c, 11, 6280
17, 72765, Pitch_bend_c, 11, 4096
17, 72772, Pitch_bend_c, 11, 2184
17, 72779, Pitch_bend_c, 11, 0
17, 72780, Pitch_bend_c, 11, 0
17, 72787, Pitch_bend_c, 11, 1679
17, 72794, Pitch_bend_c, 11, 3272
17, 72801, Pitch_bend_c, 11, 4642
17, 72808, Pitch_bend_c, 11, 5789
17, 72815, Pitch_bend_c, 11, 6712
17, 72822, Pitch_bend_c, 11, 7413
17, 72829, Pitch_bend_c, 11, 7891
17, 72836, Pitch_bend_c, 11, 8146
17, 72840, Pitch_bend_c, 11, 8192
17, 73200, Note_off_c, 11, 78, 64
17, 76080, Note_on_c, 11, 80, 127
17, 76200, Note_off_c, 11, 80, 64
17, 76200, Note_on_c, 11, 78, 127
17, 76320, Note_off_c, 11, 78, 64
17, 76320, Note_on_c, 11, 76, 127
17, 76560, Note_off_c, 11, 76, 64
17, 76560, Note_on_c, 11, 78, 127
17, 76680, Pitch_bend_c, 11, 0
17, 76680, Note_off_c, 11, 78, 64
17, 76680, Note_on_c, 11, 80, 127
17, 76687, Pitch_bend_c, 11, 31
17, 76694, Pitch_bend_c, 11, 119
17, 76701, Pitch_bend_c, 11, 262
17, 76708, Pitch_bend_c, 11, 461
17, 76715, Pitch_bend_c, 11, 716
17, 76722, Pitch_bend_c, 11, 1027
17, 76729, Pitch_bend_c, 11, 1393
17, 76736, Pitch_bend_c, 11, 1815
17, 76743, Pitch_bend_c, 11, 2293
17, 76750, Pitch_bend_c, 11, 2827
17, 76757, Pitch_bend_c, 11, 3416
17, 76764, Pitch_bend_c, 11, 4061
17, 76771, Pitch_bend_c, 11, 4762
17, 76778, Pitch_bend_c, 11, 5519
17, 76785, Pitch_bend_c, 11, 6331
17, 76792, Pitch_bend_c, 11, 7199
17, 76799, Pitch_bend_c, 11, 8123
17, 76800, Pitch_bend_c, 11, 8192
17, 76920, Note_off_c, 11, 80, 64
17, 76920, Note_on_c, 11, 78, 127
17, 77040, Note_off_c, 11, 78, 64
17, 77040, Note_on_c, 11, 76, 127
17, 77280, Note_off_c, 11, 76, 64
17, 77280, Note_on_c, 11, 78, 127
17, 77340, Note_off_c, 11, 78, 64
17, 77340, Note_on_c, 11, 76, 127
17, 77400, Note_off_c, 11, 76, 64
17, 77400, Note_on_c, 11, 73, 127
17, 77640, Note_off_c, 11, 73, 64
17, 78000, Note_on_c, 11, 73, 127
17, 78120, Note_off_c, 11, 73, 64
17, 78120, Note_on_c, 11, 71, 127
17, 78240, Pitch_bend_c, 11, 3328
17, 78240, Note_off_c, 11, 71, 64
17, 78240, Note_on_c, 11, 80, 127
17, 78247, Pitch_bend_c, 11, 3346
17, 78254, Pitch_bend_c, 11, 3398
17, 78261, Pitch_bend_c, 11, 3484
17, 78268, Pitch_bend_c, 11, 3602
17, 78275, Pitch_bend_c, 11, 3753
17, 78282, Pitch_bend_c, 11, 3938
17, 78289, Pitch_bend_c, 11, 4155
17, 78296, Pitch_bend_c, 11, 4406
17, 78303, Pitch_bend_c, 11, 4689
17, 78310, Pitch_bend_c, 11, 5006
17, 78317, Pitch_bend_c, 11, 5356
17, 78324, Pitch_bend_c, 11, 5739
17, 78331, Pitch_bend_c, 11, 6155
17, 78338, Pitch_bend_c, 11, 6605
17, 78345, Pitch_bend_c, 11, 7087
17, 78352, Pitch_bend_c, 11, 7602
17, 78359, Pitch_bend_c, 11, 8151
17, 78360, Pitch_bend_c, 11, 8192
17, 78480, Note_off_c, 11, 80, 64
17, 78480, Note_on_c, 11, 78, 127
17, 78480, Pitch_bend_c, 11, 8192
17, 78487, Pitch_bend_c, 11, 8319
17, 78494, Pitch_bend_c, 11, 8669
17, 78501, Pitch_bend_c, 11, 9243
17, 78508, Pitch_bend_c, 11, 10039
17, 78515, Pitch_bend_c, 11, 11058
17, 78522, Pitch_bend_c, 11, 12301
17, 78529, Pitch_bend_c, 11, 13766
17, 78536, Pitch_bend_c, 11, 15454
17, 78540, Pitch_bend_c, 11, 16128
17, 78547, Pitch_bend_c, 11, 16004
17, 78554, Pitch_bend_c, 11, 15665
17, 78561, Pitch_bend_c, 11, 15109
17, 78568, Pitch_bend_c, 11, 14337
17, 78575, Pitch_bend_c, 11, 13350
17, 78582, Pitch_bend_c, 11, 12146
17, 78589, Pitch_bend_c, 11, 10727
17, 78596, Pitch_bend_c, 11, 9091
17, 78600, Pitch_bend_c, 11, 8192
17, 78720, Note_off_c, 11, 78, 64
17, 78720, Note_on_c, 11, 76, 127
17, 78960, Note_off_c, 11, 76, 64
17, 78960, Note_on_c, 11, 76, 127
17, 79560, Note_off_c, 11, 76, 64
17, 79560, Note_on_c, 11, 78, 127
17, 79620, Note_off_c, 11, 78, 64
17, 79620, Note_on_c, 11, 80, 127
17, 79680, Note_off_c, 11, 80, 64
17, 80160, Pitch_bend_c, 11, 12288
17, 80160, Note_on_c, 11, 78, 127
17, 80167, Pitch_bend_c, 11, 12351
17, 80174, Pitch_bend_c, 11, 12526
17, 80181, Pitch_bend_c, 11, 12813
17, 80188, Pitch_bend_c, 11, 13211
17, 80195, Pitch_bend_c, 11, 13721
17, 80202, Pitch_bend_c, 11, 14342
17, 80209, Pitch_bend_c, 11, 15074
17, 80216, Pitch_bend_c, 11, 15918
17, 80220, Pitch_bend_c, 11, 16383
17, 80340, Pitch_bend_c, 11, 15872
17, 80347, Pitch_bend_c, 11, 15842
17, 80354, Pitch_bend_c, 11, 15760
17, 80361, Pitch_bend_c, 11, 15625
17, 80368, Pitch_bend_c, 11, 15438
17, 80375, Pitch_bend_c, 11, 15200
17, 80382, Pitch_bend_c, 11, 14908
17, 80389, Pitch_bend_c, 11, 14565
17, 80396, Pitch_bend_c, 11, 14169
17, 80403, Pitch_bend_c, 11, 13721
17, 80410, Pitch_bend_c, 11, 13221
17, 80417, Pitch_bend_c, 11, 12668
17, 80424, Pitch_bend_c, 11, 12064
17, 80431, Pitch_bend_c, 11, 11406
17, 80438, Pitch_bend_c, 11, 10697
17, 80445, Pitch_bend_c, 11, 9936
17, 80452, Pitch_bend_c, 11, 9122
17, 80459, Pitch_bend_c, 11, 8256
17, 80460, Pitch_bend_c, 11, 8192
17, 80640, Note_off_c, 11, 78, 64
17, 80760, Note_on_c, 11, 76, 127
17, 80880, Note_off_c, 11, 76, 64
17, 80880, Note_on_c, 11, 78, 127
17, 81000, Pitch_bend_c, 11, 0
17, 81000, Note_off_c, 11, 78, 64
17, 81000, Note_on_c, 11, 80, 127
17, 81007, Pitch_bend_c, 11, 31
17, 81014, Pitch_bend_c, 11, 119
17, 81021, Pitch_bend_c, 11, 262
17, 81028, Pitch_bend_c, 11, 461
17, 81035, Pitch_bend_c, 11, 716
17, 81042, Pitch_bend_c, 11, 1027
17, 81049, Pitch_bend_c, 11, 1393
17, 81056, Pitch_bend_c, 11, 1815
17, 81063, Pitch_bend_c, 11, 2293
17, 81070, Pitch_bend_c, 11, 2827
17, 81077, Pitch_bend_c, 11, 3416
17, 81084, Pitch_bend_c, 11, 4061
17, 81091, Pitch_bend_c, 11, 4762
17, 81098, Pitch_bend_c, 11, 5519
17, 81105, Pitch_bend_c, 11, 6331
17, 81112, Pitch_bend_c, 11, 7199
17, 81119, Pitch_bend_c, 11, 8123
17, 81120, Pitch_bend_c, 11, 8192
17, 81240, Note_off_c, 11, 80, 64
17, 81360, Note_on_c, 11, 76, 127
17, 81840, Note_off_c, 11, 76, 64
17, 81840, Note_on_c, 11, 78, 127
17, 81960, Note_off_c, 11, 78, 64
17, 84480, Note_on_c, 11, 71, 127
17, 84600, Note_off_c, 11, 71, 64
17, 84600, Note_on_c, 11, 76, 127
17, 84840, Pitch_bend_c, 11, 0
17, 84840, Note_off_c, 11, 76, 64
17, 84840, Note_on_c, 11, 83, 127
17, 84847, Pitch_bend_c, 11, 14
17, 84854, Pitch_bend_c, 11, 53
17, 84861, Pitch_bend_c, 11, 116
17, 84868, Pitch_bend_c, 11, 205
17, 84875, Pitch_bend_c, 11, 318
17, 84882, Pitch_bend_c, 11, 456
17, 84889, Pitch_bend_c, 11, 619
17, 84896, Pitch_bend_c, 11, 807
17, 84903, Pitch_bend_c, 11, 1019
17, 84910, Pitch_bend_c, 11, 1256
17, 84917, Pitch_bend_c, 11, 1518
17, 84924, Pitch_bend_c, 11, 1805
17, 84931, Pitch_bend_c, 11, 2116
17, 84938, Pitch_bend_c, 11, 2453
17, 84945, Pitch_bend_c, 11, 2814
17, 84952, Pitch_bend_c, 11, 3199
17, 84959, Pitch_bend_c, 11, 3610
17, 84966, Pitch_bend_c, 11, 4045
17, 84973, Pitch_bend_c, 11, 4506
17, 84980, Pitch_bend_c, 11, 4991
17, 84987, Pitch_bend_c, 11, 5500
17, 84994, Pitch_bend_c, 11, 6035
17, 85001, Pitch_bend_c, 11, 6594
17, 85008, Pitch_bend_c, 11, 7178
17, 85015, Pitch_bend_c, 11, 7787
17, 85020, Pitch_bend_c, 11, 8192
17, 85560, Note_off_c, 11, 83, 64
17, 85560, Note_on_c, 11, 80, 127
17, 85560, Pitch_bend_c, 11, 0
17, 85567, Pitch_bend_c, 11, 31
17, 85574, Pitch_bend_c, 11, 119
17, 85581, Pitch_bend_c, 11, 262
17, 85588, Pitch_bend_c, 11, 461
17, 85595, Pitch_bend_c, 11, 716
17, 85602, Pitch_bend_c, 11, 1027
17, 85609, Pitch_bend_c, 11, 1393
17, 85616, Pitch_bend_c, 11, 1815
17, 85623, Pitch_bend_c, 11, 2293
17, 85630, Pitch_bend_c, 11, 2827
17, 85637, Pitch_bend_c, 11, 3416
17, 85644, Pitch_bend_c, 11, 4061
17, 85651, Pitch_bend_c, 11, 4762
17, 85658, Pitch_bend_c, 11, 5519
17, 85665, Pitch_bend_c, 11, 6331
17, 85672, Pitch_bend_c, 11, 7199
17, 85679, Pitch_bend_c, 11, 8123
17, 85680, Note_off_c, 11, 80, 64
17, 85680, Note_on_c, 11, 80, 127
17, 85680, Pitch_bend_c, 11, 8192
17, 85760, Note_off_c, 11, 80, 64
17, 85760, Note_on_c, 11, 78, 127
17, 85840, Note_off_c, 11, 78, 64
17, 85840, Note_on_c, 11, 76, 127
17, 85920, Note_off_c, 11, 76, 64
17, 85920, Note_on_c, 11, 76, 127
17, 86420, Note_off_c, 11, 76, 64
17, 114960, Note_on_c, 11, 76, 127
17, 115200, Note_off_c, 11, 76, 64
17, 115200, Note_on_c, 11, 76, 127
17, 115440, Pitch_bend_c, 11, 0
17, 115440, Note_off_c, 11, 76, 64
17, 115440, Note_on_c, 11, 83, 127
17, 115447, Pitch_bend_c, 11, 14
17, 115454, Pitch_bend_c, 11, 53
17, 115461, Pitch_bend_c, 11, 116
17, 115468, Pitch_bend_c, 11, 205
17, 115475, Pitch_bend_c, 11, 318
17, 115482, Pitch_bend_c, 11, 456
17, 115489, Pitch_bend_c, 11, 619
17, 115496, Pitch_bend_c, 11, 807
17, 115503, Pitch_bend_c, 11, 1019
17, 115510, Pitch_bend_c, 11, 1256
17, 115517, Pitch_bend_c, 11, 1518
17, 115524, Pitch_bend_c, 11, 1805
17, 115531, Pitch_bend_c, 11, 2116
17, 115538, Pitch_bend_c, 11, 2453
17, 115545, Pitch_bend_c, 11, 2814
17, 115552, Pitch_bend_c, 11, 3199
17, 115559, Pitch_bend_c, 11, 3610
17, 115566, Pitch_bend_c, 11, 4045
17, 115573, Pitch_bend_c, 11, 4506
17, 115580, Pitch_bend_c, 11, 4991
17, 115587, Pitch_bend_c, 11, 5500
17, 115594, Pitch_bend_c, 11, 6035
17, 115601, Pitch_bend_c, 11, 6594
17, 115608, Pitch_bend_c, 11, 7178
17, 115615, Pitch_bend_c, 11, 7787
17, 115620, Pitch_bend_c, 11, 8192
17, 115920, Note_off_c, 11, 83, 64
17, 115920, Note_on_c, 11, 78, 127
17, 115920, Pitch_bend_c, 11, 16383
17, 115927, Pitch_bend_c, 11, 16368
17, 115934, Pitch_bend_c, 11, 16329
17, 115941, Pitch_bend_c, 11, 16266
17, 115948, Pitch_bend_c, 11, 16177
17, 115955, Pitch_bend_c, 11, 16064
17, 115962, Pitch_bend_c, 11, 15926
17, 115969, Pitch_bend_c, 11, 15763
17, 115976, Pitch_bend_c, 11, 15576
17, 115983, Pitch_bend_c, 11, 15363
17, 115990, Pitch_bend_c, 11, 15126
17, 115997, Pitch_bend_c, 11, 14864
17, 116004, Pitch_bend_c, 11, 14577
17, 116011, Pitch_bend_c, 11, 14266
17, 116018, Pitch_bend_c, 11, 13930
17, 116025, Pitch_bend_c, 11, 13569
17, 116032, Pitch_bend_c, 11, 13183
17, 116039, Pitch_bend_c, 11, 12772
17, 116046, Pitch_bend_c, 11, 12337
17, 116053, Pitch_bend_c, 11, 11877
17, 116060, Pitch_bend_c, 11, 11392
17, 116067, Pitch_bend_c, 11, 10882
17, 116074, Pitch_bend_c, 11, 10348
17, 116081, Pitch_bend_c, 11, 9789
17, 116088, Pitch_bend_c, 11, 9205
17, 116095, Pitch_bend_c, 11, 8596
17, 116100, Pitch_bend_c, 11, 8192
17, 116160, Note_off_c, 11, 78, 64
17, 116160, Note_on_c, 11, 80, 127
17, 116240, Note_off_c, 11, 80, 64
17, 116240, Note_on_c, 11, 78, 127
17, 116320, Note_off_c, 11, 78, 64
17, 116320, Note_on_c, 11, 76, 127
17, 116400, Note_off_c, 11, 76, 64
17, 116400, Note_on_c, 11, 76, 127
17, 117000, Note_off_c, 11, 76, 64
17, 129840, Pitch_bend_c, 11, 0
17, 129840, Note_on_c, 11, 83, 127
17, 129847, Pitch_bend_c, 11, 437
17, 129854, Pitch_bend_c, 11, 895
17, 129861, Pitch_bend_c, 11, 1339
17, 129868, Pitch_bend_c, 11, 1769
17, 129875, Pitch_bend_c, 11, 2186
17, 129882, Pitch_bend_c, 11, 2588
17, 129889, Pitch_bend_c, 11, 2976
17, 129896, Pitch_bend_c, 11, 3350
17, 129903, Pitch_bend_c, 11, 3711
17, 129910, Pitch_bend_c, 11, 4057
17, 129917, Pitch_bend_c, 11, 4390
17, 129924, Pitch_bend_c, 11, 4708
17, 129931, Pitch_bend_c, 11, 5013
17, 129938, Pitch_bend_c, 11, 5304
17, 129945, Pitch_bend_c, 11, 5580
17, 129952, Pitch_bend_c, 11, 5843
17, 129959, Pitch_bend_c, 11, 6092
17, 129966, Pitch_bend_c, 11, 6327
17, 129973, Pitch_bend_c, 11, 6548
17, 129980, Pitch_bend_c, 11, 6755
17, 129987, Pitch_bend_c, 11, 6948
17, 129994, Pitch_bend_c, 11, 7127
17, 130001, Pitch_bend_c, 11, 7293
17, 130008, Pitch_bend_c, 11, 7444
17, 130015, Pitch_bend_c, 11, 7581
17, 130022, Pitch_bend_c, 11, 7705
17, 130029, Pitch_bend_c, 11, 7814
17, 130036, Pitch_bend_c, 11, 7910
17, 130043, Pitch_bend_c, 11, 7992
17, 130050, Pitch_bend_c, 11, 8059
17, 130057, Pitch_bend_c, 11, 8113
17, 130064, Pitch_bend_c, 11, 8153
17, 130071, Pitch_bend_c, 11, 8179
17, 130078, Pitch_bend_c, 11, 8191
17, 130080, Pitch_bend_c, 11, 8192
17, 130560, Note_off_c, 11, 83, 64
17, 130560, Note_on_c, 11, 80, 127
17, 130720, Note_off_c, 11, 80, 64
17, 130720, Note_on_c, 11, 83, 127
17, 130880, Pitch_bend_c, 11, 0
17, 130880, Note_off_c, 11, 83, 64
17, 130880, Note_on_c, 11, 80, 127
17, 130887, Pitch_bend_c, 11, 652
17, 130894, Pitch_bend_c, 11, 1324
17, 130901, Pitch_bend_c, 11, 1964
17, 130908, Pitch_bend_c, 11, 2574
17, 130915, Pitch_bend_c, 11, 3152
17, 130922, Pitch_bend_c, 11, 3698
17, 130929, Pitch_bend_c, 11, 4213
17, 130936, Pitch_bend_c, 11, 4697
17, 130943, Pitch_bend_c, 11, 5150
17, 130950, Pitch_bend_c, 11, 5571
17, 130957, Pitch_bend_c, 11, 5960
17, 130964, Pitch_bend_c, 11, 6319
17, 130971, Pitch_bend_c, 11, 6646
17, 130978, Pitch_bend_c, 11, 6942
17, 130985, Pitch_bend_c, 11, 7206
17, 130992, Pitch_bend_c, 11, 7439
17, 130999, Pitch_bend_c, 11, 7640
17, 131006, Pitch_bend_c, 11, 7811
17, 131013, Pitch_bend_c, 11, 7950
17, 131020, Pitch_bend_c, 11, 8057
17, 131027, Pitch_bend_c, 11, 8133
17, 131034, Pitch_bend_c, 11, 8178
17, 131040, Note_off_c, 11, 80, 64
17, 131040, Note_on_c, 11, 80, 127
17, 131040, Pitch_bend_c, 11, 8192
17, 131120, Note_off_c, 11, 80, 64
17, 131120, Note_on_c, 11, 78, 127
17, 131200, Note_off_c, 11, 78, 64
17, 131200, Note_on_c, 11, 76, 127
17, 131280, Note_off_c, 11, 76, 64
17, 131280, Note_on_c, 11, 76, 127
17, 131760, Note_off_c, 11, 76, 64
17, 131760, Note_on_c, 11, 78, 127
17, 131860, Note_off_c, 11, 78, 64
17, 146400, End_track
18, 0, Start_track
18, 0, Instrument_name_t, "SB AWE32 MIDI Synth [62"
18, 0, Title_t, "Choosey Lover"
18, 3835, Note_on_c, 9, 35, 127
18, 3835, Note_on_c, 9, 35, 127
18, 3955, Note_off_c, 9, 35, 64
18, 3955, Note_off_c, 9, 35, 64
18, 3960, Note_on_c, 9, 35, 127
18, 3960, Note_on_c, 9, 35, 127
18, 4080, Note_off_c, 9, 35, 64
18, 4080, Note_off_c, 9, 35, 64
18, 11520, Note_on_c, 9, 35, 127
18, 11520, Note_on_c, 9, 35, 127
18, 11640, Note_off_c, 9, 35, 64
18, 11640, Note_off_c, 9, 35, 64
18, 11645, Note_on_c, 9, 35, 127
18, 11645, Note_on_c, 9, 35, 127
18, 11765, Note_off_c, 9, 35, 64
18, 11765, Note_off_c, 9, 35, 64
18, 19200, Note_on_c, 9, 35, 127
18, 19200, Note_on_c, 9, 35, 127
18, 19320, Note_off_c, 9, 35, 64
18, 19320, Note_off_c, 9, 35, 64
18, 19325, Note_on_c, 9, 35, 127
18, 19325, Note_on_c, 9, 35, 127
18, 19445, Note_off_c, 9, 35, 64
18, 19445, Note_off_c, 9, 35, 64
18, 26880, Note_on_c, 9, 35, 127
18, 26880, Note_on_c, 9, 35, 127
18, 27000, Note_off_c, 9, 35, 64
18, 27000, Note_off_c, 9, 35, 64
18, 27005, Note_on_c, 9, 35, 127
18, 27005, Note_on_c, 9, 35, 127
18, 27125, Note_off_c, 9, 35, 64
18, 27125, Note_off_c, 9, 35, 64
18, 34560, Note_on_c, 9, 35, 127
18, 34560, Note_on_c, 9, 35, 127
18, 34680, Note_off_c, 9, 35, 64
18, 34680, Note_off_c, 9, 35, 64
18, 34685, Note_on_c, 9, 35, 127
18, 34685, Note_on_c, 9, 35, 127
18, 34805, Note_off_c, 9, 35, 64
18, 34805, Note_off_c, 9, 35, 64
18, 42240, Note_on_c, 9, 35, 127
18, 42240, Note_on_c, 9, 35, 127
18, 42360, Note_off_c, 9, 35, 64
18, 42360, Note_off_c, 9, 35, 64
18, 42365, Note_on_c, 9, 35, 127
18, 42365, Note_on_c, 9, 35, 127
18, 42485, Note_off_c, 9, 35, 64
18, 42485, Note_off_c, 9, 35, 64
18, 49920, Note_on_c, 9, 35, 127
18, 49920, Note_on_c, 9, 35, 127
18, 50040, Note_off_c, 9, 35, 64
18, 50040, Note_off_c, 9, 35, 64
18, 50045, Note_on_c, 9, 35, 127
18, 50045, Note_on_c, 9, 35, 127
18, 50165, Note_off_c, 9, 35, 64
18, 50165, Note_off_c, 9, 35, 64
18, 57600, Note_on_c, 9, 35, 127
18, 57600, Note_on_c, 9, 35, 127
18, 57720, Note_off_c, 9, 35, 64
18, 57720, Note_off_c, 9, 35, 64
18, 57725, Note_on_c, 9, 35, 127
18, 57725, Note_on_c, 9, 35, 127
18, 57845, Note_off_c, 9, 35, 64
18, 57845, Note_off_c, 9, 35, 64
18, 65280, Note_on_c, 9, 35, 127
18, 65280, Note_on_c, 9, 35, 127
18, 65400, Note_off_c, 9, 35, 64
18, 65400, Note_off_c, 9, 35, 64
18, 65405, Note_on_c, 9, 35, 127
18, 65405, Note_on_c, 9, 35, 127
18, 65525, Note_off_c, 9, 35, 64
18, 65525, Note_off_c, 9, 35, 64
18, 72960, Note_on_c, 9, 35, 127
18, 72960, Note_on_c, 9, 35, 127
18, 73080, Note_off_c, 9, 35, 64
18, 73080, Note_off_c, 9, 35, 64
18, 73085, Note_on_c, 9, 35, 127
18, 73085, Note_on_c, 9, 35, 127
18, 73205, Note_off_c, 9, 35, 64
18, 73205, Note_off_c, 9, 35, 64
18, 88320, Note_on_c, 9, 35, 127
18, 88320, Note_on_c, 9, 35, 127
18, 88440, Note_off_c, 9, 35, 64
18, 88440, Note_off_c, 9, 35, 64
18, 88445, Note_on_c, 9, 35, 127
18, 88445, Note_on_c, 9, 35, 127
18, 88565, Note_off_c, 9, 35, 64
18, 88565, Note_off_c, 9, 35, 64
18, 96000, Note_on_c, 9, 35, 127
18, 96000, Note_on_c, 9, 35, 127
18, 96120, Note_off_c, 9, 35, 64
18, 96120, Note_off_c, 9, 35, 64
18, 96125, Note_on_c, 9, 35, 127
18, 96125, Note_on_c, 9, 35, 127
18, 96245, Note_off_c, 9, 35, 64
18, 96245, Note_off_c, 9, 35, 64
18, 103680, Note_on_c, 9, 35, 127
18, 103680, Note_on_c, 9, 35, 127
18, 103800, Note_off_c, 9, 35, 64
18, 103800, Note_off_c, 9, 35, 64
18, 103805, Note_on_c, 9, 35, 127
18, 103805, Note_on_c, 9, 35, 127
18, 103925, Note_off_c, 9, 35, 64
18, 103925, Note_off_c, 9, 35, 64
18, 111360, Note_on_c, 9, 35, 127
18, 111360, Note_on_c, 9, 35, 127
18, 111480, Note_off_c, 9, 35, 64
18, 111480, Note_off_c, 9, 35, 64
18, 111485, Note_on_c, 9, 35, 127
18, 111485, Note_on_c, 9, 35, 127
18, 111605, Note_off_c, 9, 35, 64
18, 111605, Note_off_c, 9, 35, 64
18, 119040, Note_on_c, 9, 35, 127
18, 119040, Note_on_c, 9, 35, 127
18, 119160, Note_off_c, 9, 35, 64
18, 119160, Note_off_c, 9, 35, 64
18, 119165, Note_on_c, 9, 35, 127
18, 119165, Note_on_c, 9, 35, 127
18, 119285, Note_off_c, 9, 35, 64
18, 119285, Note_off_c, 9, 35, 64
18, 126720, Note_on_c, 9, 35, 127
18, 126720, Note_on_c, 9, 35, 127
18, 126840, Note_off_c, 9, 35, 64
18, 126840, Note_off_c, 9, 35, 64
18, 126845, Note_on_c, 9, 35, 127
18, 126845, Note_on_c, 9, 35, 127
18, 126965, Note_off_c, 9, 35, 64
18, 126965, Note_off_c, 9, 35, 64
18, 134400, Note_on_c, 9, 35, 127
18, 134400, Note_on_c, 9, 35, 127
18, 134520, Note_off_c, 9, 35, 64
18, 134520, Note_off_c, 9, 35, 64
18, 134525, Note_on_c, 9, 35, 127
18, 134525, Note_on_c, 9, 35, 127
18, 134645, Note_off_c, 9, 35, 64
18, 134645, Note_off_c, 9, 35, 64
18, 142080, Note_on_c, 9, 35, 127
18, 142080, Note_on_c, 9, 35, 127
18, 142200, Note_off_c, 9, 35, 64
18, 142200, Note_off_c, 9, 35, 64
18, 142205, Note_on_c, 9, 35, 127
18, 142205, Note_on_c, 9, 35, 127
18, 142325, Note_off_c, 9, 35, 64
18, 142325, Note_off_c, 9, 35, 64
18, 142560, Note_on_c, 9, 35, 127
18, 142560, Note_on_c, 9, 35, 127
18, 142680, Note_off_c, 9, 35, 64
18, 142680, Note_off_c, 9, 35, 64
18, 142685, Note_on_c, 9, 35, 127
18, 142685, Note_on_c, 9, 35, 127
18, 142805, Note_off_c, 9, 35, 64
18, 142805, Note_off_c, 9, 35, 64
18, 143040, Note_on_c, 9, 35, 127
18, 143040, Note_on_c, 9, 35, 127
18, 143160, Note_off_c, 9, 35, 64
18, 143160, Note_off_c, 9, 35, 64
18, 143165, Note_on_c, 9, 35, 127
18, 143165, Note_on_c, 9, 35, 127
18, 143285, Note_off_c, 9, 35, 64
18, 143285, Note_off_c, 9, 35, 64
18, 143520, Note_on_c, 9, 35, 127
18, 143520, Note_on_c, 9, 35, 127
18, 143640, Note_off_c, 9, 35, 64
18, 143640, Note_off_c, 9, 35, 64
18, 143645, Note_on_c, 9, 35, 127
18, 143645, Note_on_c, 9, 35, 127
18, 143765, Note_off_c, 9, 35, 64
18, 143765, Note_off_c, 9, 35, 64
18, 146400, End_track
19, 0, Start_track
19, 0, Instrument_name_t, "SB AWE32 MIDI Synth [62"
19, 0, Title_t, "Choosey Lover"
19, 4320, Note_on_c, 0, 80, 127
19, 4320, Control_c, 0, 1, 0
19, 4320, Pitch_bend_c, 0, 3072
19, 4327, Pitch_bend_c, 0, 3221
19, 4334, Pitch_bend_c, 0, 3370
19, 4341, Pitch_bend_c, 0, 3519
19, 4348, Pitch_bend_c, 0, 3669
19, 4355, Pitch_bend_c, 0, 3818
19, 4362, Pitch_bend_c, 0, 3967
19, 4369, Pitch_bend_c, 0, 4117
19, 4376, Pitch_bend_c, 0, 4266
19, 4383, Pitch_bend_c, 0, 4415
19, 4390, Pitch_bend_c, 0, 4565
19, 4397, Pitch_bend_c, 0, 4714
19, 4404, Pitch_bend_c, 0, 4863
19, 4411, Pitch_bend_c, 0, 5013
19, 4418, Pitch_bend_c, 0, 5162
19, 4425, Pitch_bend_c, 0, 5311
19, 4432, Pitch_bend_c, 0, 5461
19, 4439, Pitch_bend_c, 0, 5632
19, 4440, Pitch_bend_c, 0, 5632
19, 4447, Pitch_bend_c, 0, 5684
19, 4454, Pitch_bend_c, 0, 5736
19, 4461, Pitch_bend_c, 0, 5788
19, 4468, Pitch_bend_c, 0, 5841
19, 4475, Pitch_bend_c, 0, 5893
19, 4482, Pitch_bend_c, 0, 5945
19, 4489, Pitch_bend_c, 0, 5997
19, 4496, Pitch_bend_c, 0, 6050
19, 4503, Pitch_bend_c, 0, 6102
19, 4510, Pitch_bend_c, 0, 6154
19, 4517, Pitch_bend_c, 0, 6206
19, 4524, Pitch_bend_c, 0, 6259
19, 4531, Pitch_bend_c, 0, 6311
19, 4538, Pitch_bend_c, 0, 6363
19, 4545, Pitch_bend_c, 0, 6415
19, 4552, Pitch_bend_c, 0, 6468
19, 4560, Pitch_bend_c, 0, 6527
19, 4567, Pitch_bend_c, 0, 6580
19, 4574, Pitch_bend_c, 0, 6632
19, 4581, Pitch_bend_c, 0, 6684
19, 4588, Pitch_bend_c, 0, 6736
19, 4595, Pitch_bend_c, 0, 6789
19, 4602, Pitch_bend_c, 0, 6841
19, 4609, Pitch_bend_c, 0, 6893
19, 4616, Pitch_bend_c, 0, 6945
19, 4623, Pitch_bend_c, 0, 6998
19, 4630, Pitch_bend_c, 0, 7050
19, 4637, Pitch_bend_c, 0, 7102
19, 4644, Pitch_bend_c, 0, 7154
19, 4651, Pitch_bend_c, 0, 7207
19, 4658, Pitch_bend_c, 0, 7259
19, 4665, Pitch_bend_c, 0, 7311
19, 4672, Pitch_bend_c, 0, 7363
19, 4679, Pitch_bend_c, 0, 7424
19, 4680, Pitch_bend_c, 0, 7168
19, 4687, Pitch_bend_c, 0, 7187
19, 4694, Pitch_bend_c, 0, 7207
19, 4701, Pitch_bend_c, 0, 7227
19, 4708, Pitch_bend_c, 0, 7247
19, 4715, Pitch_bend_c, 0, 7267
19, 4722, Pitch_bend_c, 0, 7287
19, 4729, Pitch_bend_c, 0, 7307
19, 4736, Pitch_bend_c, 0, 7327
19, 4743, Pitch_bend_c, 0, 7347
19, 4750, Pitch_bend_c, 0, 7367
19, 4757, Pitch_bend_c, 0, 7386
19, 4764, Pitch_bend_c, 0, 7406
19, 4771, Pitch_bend_c, 0, 7426
19, 4778, Pitch_bend_c, 0, 7446
19, 4785, Pitch_bend_c, 0, 7466
19, 4792, Pitch_bend_c, 0, 7486
19, 4800, Control_c, 0, 1, 80
19, 4800, Pitch_bend_c, 0, 7509
19, 4807, Pitch_bend_c, 0, 7529
19, 4814, Pitch_bend_c, 0, 7549
19, 4821, Pitch_bend_c, 0, 7568
19, 4828, Pitch_bend_c, 0, 7588
19, 4835, Pitch_bend_c, 0, 7608
19, 4842, Pitch_bend_c, 0, 7628
19, 4849, Pitch_bend_c, 0, 7648
19, 4856, Pitch_bend_c, 0, 7668
19, 4863, Pitch_bend_c, 0, 7688
19, 4870, Pitch_bend_c, 0, 7708
19, 4877, Pitch_bend_c, 0, 7728
19, 4884, Pitch_bend_c, 0, 7748
19, 4891, Pitch_bend_c, 0, 7768
19, 4898, Pitch_bend_c, 0, 7787
19, 4905, Pitch_bend_c, 0, 7807
19, 4912, Pitch_bend_c, 0, 7827
19, 4920, Pitch_bend_c, 0, 7850
19, 4927, Pitch_bend_c, 0, 7870
19, 4934, Pitch_bend_c, 0, 7890
19, 4941, Pitch_bend_c, 0, 7910
19, 4948, Pitch_bend_c, 0, 7930
19, 4955, Pitch_bend_c, 0, 7950
19, 4962, Pitch_bend_c, 0, 7969
19, 4969, Pitch_bend_c, 0, 7989
19, 4976, Pitch_bend_c, 0, 8009
19, 4983, Pitch_bend_c, 0, 8029
19, 4990, Pitch_bend_c, 0, 8049
19, 4997, Pitch_bend_c, 0, 8069
19, 5004, Pitch_bend_c, 0, 8089
19, 5011, Pitch_bend_c, 0, 8109
19, 5018, Pitch_bend_c, 0, 8129
19, 5025, Pitch_bend_c, 0, 8149
19, 5032, Pitch_bend_c, 0, 8169
19, 5039, Pitch_bend_c, 0, 8192
19, 6240, Note_off_c, 0, 80, 64
19, 6480, Note_on_c, 0, 80, 127
19, 6480, Control_c, 0, 1, 0
19, 6480, Pitch_bend_c, 0, 4096
19, 6487, Pitch_bend_c, 0, 4099
19, 6494, Pitch_bend_c, 0, 4110
19, 6501, Pitch_bend_c, 0, 4128
19, 6508, Pitch_bend_c, 0, 4153
19, 6515, Pitch_bend_c, 0, 4185
19, 6522, Pitch_bend_c, 0, 4224
19, 6529, Pitch_bend_c, 0, 4270
19, 6536, Pitch_bend_c, 0, 4322
19, 6543, Pitch_bend_c, 0, 4382
19, 6550, Pitch_bend_c, 0, 4449
19, 6557, Pitch_bend_c, 0, 4523
19, 6564, Pitch_bend_c, 0, 4603
19, 6571, Pitch_bend_c, 0, 4691
19, 6578, Pitch_bend_c, 0, 4785
19, 6585, Pitch_bend_c, 0, 4887
19, 6592, Pitch_bend_c, 0, 4995
19, 6599, Pitch_bend_c, 0, 5111
19, 6606, Pitch_bend_c, 0, 5233
19, 6613, Pitch_bend_c, 0, 5363
19, 6620, Pitch_bend_c, 0, 5499
19, 6627, Pitch_bend_c, 0, 5643
19, 6634, Pitch_bend_c, 0, 5793
19, 6641, Pitch_bend_c, 0, 5950
19, 6648, Pitch_bend_c, 0, 6114
19, 6655, Pitch_bend_c, 0, 6286
19, 6662, Pitch_bend_c, 0, 6464
19, 6669, Pitch_bend_c, 0, 6649
19, 6676, Pitch_bend_c, 0, 6841
19, 6683, Pitch_bend_c, 0, 7040
19, 6690, Pitch_bend_c, 0, 7246
19, 6697, Pitch_bend_c, 0, 7459
19, 6704, Pitch_bend_c, 0, 7679
19, 6711, Pitch_bend_c, 0, 7906
19, 6718, Pitch_bend_c, 0, 8140
19, 6720, Pitch_bend_c, 0, 8192
19, 7020, Pitch_bend_c, 0, 8192
19, 7027, Pitch_bend_c, 0, 8160
19, 7034, Pitch_bend_c, 0, 8072
19, 7041, Pitch_bend_c, 0, 7929
19, 7048, Pitch_bend_c, 0, 7730
19, 7055, Pitch_bend_c, 0, 7475
19, 7062, Pitch_bend_c, 0, 7164
19, 7069, Pitch_bend_c, 0, 6798
19, 7076, Pitch_bend_c, 0, 6376
19, 7083, Pitch_bend_c, 0, 5898
19, 7090, Pitch_bend_c, 0, 5364
19, 7097, Pitch_bend_c, 0, 4775
19, 7104, Pitch_bend_c, 0, 4130
19, 7111, Pitch_bend_c, 0, 3429
19, 7118, Pitch_bend_c, 0, 2672
19, 7125, Pitch_bend_c, 0, 1860
19, 7132, Pitch_bend_c, 0, 992
19, 7139, Pitch_bend_c, 0, 68
19, 7140, Pitch_bend_c, 0, 0
19, 7200, Note_off_c, 0, 80, 64
19, 7200, Note_on_c, 0, 76, 127
19, 7200, Pitch_bend_c, 0, 8192
19, 7320, Note_off_c, 0, 76, 64
19, 7320, Note_on_c, 0, 78, 127
19, 7440, Note_off_c, 0, 78, 64
19, 7440, Note_on_c, 0, 76, 127
19, 7560, Pitch_bend_c, 0, 0
19, 7560, Note_off_c, 0, 76, 64
19, 7560, Note_on_c, 0, 76, 127
19, 7567, Pitch_bend_c, 0, 127
19, 7574, Pitch_bend_c, 0, 477
19, 7581, Pitch_bend_c, 0, 1051
19, 7588, Pitch_bend_c, 0, 1847
19, 7595, Pitch_bend_c, 0, 2867
19, 7602, Pitch_bend_c, 0, 4109
19, 7609, Pitch_bend_c, 0, 5575
19, 7616, Pitch_bend_c, 0, 7263
19, 7620, Pitch_bend_c, 0, 8192
19, 7680, Note_off_c, 0, 76, 64
19, 7680, Note_on_c, 0, 75, 127
19, 7800, Note_off_c, 0, 75, 64
19, 7800, Note_on_c, 0, 73, 127
19, 7920, Note_off_c, 0, 73, 64
19, 7920, Note_on_c, 0, 75, 127
19, 8040, Note_off_c, 0, 75, 64
19, 8040, Note_on_c, 0, 71, 127
19, 8160, Note_off_c, 0, 71, 64
19, 8160, Note_on_c, 0, 73, 127
19, 8280, Note_off_c, 0, 73, 64
19, 8280, Note_on_c, 0, 71, 127
19, 8400, Note_off_c, 0, 71, 64
19, 8400, Note_on_c, 0, 78, 127
19, 8520, Control_c, 0, 1, 80
19, 9120, Note_off_c, 0, 78, 64
19, 9120, Note_on_c, 0, 76, 127
19, 9120, Control_c, 0, 1, 0
19, 9180, Note_off_c, 0, 76, 64
19, 9180, Note_on_c, 0, 78, 127
19, 9240, Note_off_c, 0, 78, 64
19, 9240, Note_on_c, 0, 76, 127
19, 9360, Note_off_c, 0, 76, 64
19, 9360, Note_on_c, 0, 75, 127
19, 9420, Note_off_c, 0, 75, 64
19, 9420, Note_on_c, 0, 76, 127
19, 9480, Note_off_c, 0, 76, 64
19, 9480, Note_on_c, 0, 75, 127
19, 9600, Note_off_c, 0, 75, 64
19, 9600, Note_on_c, 0, 73, 127
19, 9660, Note_off_c, 0, 73, 64
19, 9660, Note_on_c, 0, 76, 127
19, 9720, Note_off_c, 0, 76, 64
19, 9720, Note_on_c, 0, 73, 127
19, 9840, Note_off_c, 0, 73, 64
19, 9840, Note_on_c, 0, 71, 127
19, 9960, Pitch_bend_c, 0, 0
19, 9960, Note_off_c, 0, 71, 64
19, 9960, Note_on_c, 0, 73, 127
19, 9967, Pitch_bend_c, 0, 31
19, 9974, Pitch_bend_c, 0, 119
19, 9981, Pitch_bend_c, 0, 262
19, 9988, Pitch_bend_c, 0, 461
19, 9995, Pitch_bend_c, 0, 716
19, 10002, Pitch_bend_c, 0, 1027
19, 10009, Pitch_bend_c, 0, 1393
19, 10016, Pitch_bend_c, 0, 1815
19, 10023, Pitch_bend_c, 0, 2293
19, 10030, Pitch_bend_c, 0, 2827
19, 10037, Pitch_bend_c, 0, 3416
19, 10044, Pitch_bend_c, 0, 4061
19, 10051, Pitch_bend_c, 0, 4762
19, 10058, Pitch_bend_c, 0, 5519
19, 10065, Pitch_bend_c, 0, 6331
19, 10072, Pitch_bend_c, 0, 7199
19, 10079, Pitch_bend_c, 0, 8123
19, 10080, Pitch_bend_c, 0, 8192
19, 10320, Note_off_c, 0, 73, 64
19, 10320, Note_on_c, 0, 71, 127
19, 10440, Note_off_c, 0, 71, 64
19, 10440, Note_on_c, 0, 68, 127
19, 10560, Note_off_c, 0, 68, 64
19, 10560, Note_on_c, 0, 67, 127
19, 10620, Note_off_c, 0, 67, 64
19, 10620, Note_on_c, 0, 66, 127
19, 10680, Note_off_c, 0, 66, 64
19, 10680, Note_on_c, 0, 64, 127
19, 10800, Note_off_c, 0, 64, 64
19, 10800, Note_on_c, 0, 66, 127
19, 10860, Note_off_c, 0, 66, 64
19, 10860, Note_on_c, 0, 64, 127
19, 10920, Note_off_c, 0, 64, 64
19, 10920, Note_on_c, 0, 61, 127
19, 11040, Note_off_c, 0, 61, 64
19, 11040, Note_on_c, 0, 64, 127
19, 11160, Note_off_c, 0, 64, 64
19, 11160, Note_on_c, 0, 61, 127
19, 11280, Note_off_c, 0, 61, 64
19, 11280, Note_on_c, 0, 54, 127
19, 11400, Note_off_c, 0, 54, 64
19, 11400, Note_on_c, 0, 56, 127
19, 11520, Note_off_c, 0, 56, 64
19, 11520, Note_on_c, 0, 59, 127
19, 11640, Note_off_c, 0, 59, 64
19, 11640, Note_on_c, 0, 56, 127
19, 11760, Note_off_c, 0, 56, 64
19, 11760, Note_on_c, 0, 78, 127
19, 12000, Control_c, 0, 1, 80
19, 12840, Note_off_c, 0, 78, 64
19, 12840, Note_on_c, 0, 76, 127
19, 12840, Control_c, 0, 1, 0
19, 12900, Note_off_c, 0, 76, 64
19, 12900, Note_on_c, 0, 78, 127
19, 12960, Pitch_bend_c, 0, 8192
19, 12960, Note_off_c, 0, 78, 64
19, 12960, Note_on_c, 0, 76, 127
19, 12967, Pitch_bend_c, 0, 8188
19, 12974, Pitch_bend_c, 0, 8177
19, 12981, Pitch_bend_c, 0, 8159
19, 12988, Pitch_bend_c, 0, 8134
19, 12995, Pitch_bend_c, 0, 8102
19, 13002, Pitch_bend_c, 0, 8063
19, 13009, Pitch_bend_c, 0, 8017
19, 13016, Pitch_bend_c, 0, 7965
19, 13023, Pitch_bend_c, 0, 7905
19, 13030, Pitch_bend_c, 0, 7838
19, 13037, Pitch_bend_c, 0, 7764
19, 13044, Pitch_bend_c, 0, 7684
19, 13051, Pitch_bend_c, 0, 7596
19, 13058, Pitch_bend_c, 0, 7502
19, 13065, Pitch_bend_c, 0, 7400
19, 13072, Pitch_bend_c, 0, 7292
19, 13079, Pitch_bend_c, 0, 7176
19, 13086, Pitch_bend_c, 0, 7054
19, 13093, Pitch_bend_c, 0, 6924
19, 13100, Pitch_bend_c, 0, 6788
19, 13107, Pitch_bend_c, 0, 6644
19, 13114, Pitch_bend_c, 0, 6494
19, 13121, Pitch_bend_c, 0, 6337
19, 13128, Pitch_bend_c, 0, 6173
19, 13135, Pitch_bend_c, 0, 6001
19, 13142, Pitch_bend_c, 0, 5823
19, 13149, Pitch_bend_c, 0, 5638
19, 13156, Pitch_bend_c, 0, 5446
19, 13163, Pitch_bend_c, 0, 5247
19, 13170, Pitch_bend_c, 0, 5041
19, 13177, Pitch_bend_c, 0, 4828
19, 13184, Pitch_bend_c, 0, 4608
19, 13191, Pitch_bend_c, 0, 4381
19, 13198, Pitch_bend_c, 0, 4147
19, 13200, Note_off_c, 0, 76, 64
19, 13200, Note_on_c, 0, 71, 127
19, 13200, Pitch_bend_c, 0, 8192
19, 13320, Note_off_c, 0, 71, 64
19, 13320, Note_on_c, 0, 68, 127
19, 13380, Note_off_c, 0, 68, 64
19, 13380, Note_on_c, 0, 71, 127
19, 13440, Note_off_c, 0, 71, 64
19, 13440, Note_on_c, 0, 73, 127
19, 13920, Pitch_bend_c, 0, 8192
19, 13920, Note_off_c, 0, 73, 64
19, 13920, Note_on_c, 0, 71, 127
19, 13927, Pitch_bend_c, 0, 8319
19, 13934, Pitch_bend_c, 0, 8669
19, 13941, Pitch_bend_c, 0, 9243
19, 13948, Pitch_bend_c, 0, 10039
19, 13955, Pitch_bend_c, 0, 11058
19, 13962, Pitch_bend_c, 0, 12301
19, 13969, Pitch_bend_c, 0, 13766
19, 13976, Pitch_bend_c, 0, 15454
19, 13980, Pitch_bend_c, 0, 16383
19, 14040, Pitch_bend_c, 0, 8192
19, 14160, Note_off_c, 0, 71, 64
19, 14160, Note_on_c, 0, 68, 127
19, 14280, Pitch_bend_c, 0, 3328
19, 14280, Note_off_c, 0, 68, 64
19, 14280, Note_on_c, 0, 68, 127
19, 14287, Pitch_bend_c, 0, 3346
19, 14294, Pitch_bend_c, 0, 3398
19, 14301, Pitch_bend_c, 0, 3484
19, 14308, Pitch_bend_c, 0, 3602
19, 14315, Pitch_bend_c, 0, 3753
19, 14322, Pitch_bend_c, 0, 3938
19, 14329, Pitch_bend_c, 0, 4155
19, 14336, Pitch_bend_c, 0, 4406
19, 14343, Pitch_bend_c, 0, 4689
19, 14350, Pitch_bend_c, 0, 5006
19, 14357, Pitch_bend_c, 0, 5356
19, 14364, Pitch_bend_c, 0, 5739
19, 14371, Pitch_bend_c, 0, 6155
19, 14378, Pitch_bend_c, 0, 6605
19, 14385, Pitch_bend_c, 0, 7087
19, 14392, Pitch_bend_c, 0, 7602
19, 14399, Pitch_bend_c, 0, 8151
19, 14400, Note_off_c, 0, 68, 64
19, 14400, Note_on_c, 0, 67, 127
19, 14400, Pitch_bend_c, 0, 8192
19, 14460, Note_off_c, 0, 67, 64
19, 14460, Note_on_c, 0, 64, 127
19, 14520, Note_off_c, 0, 64, 64
19, 14520, Note_on_c, 0, 61, 127
19, 14640, Note_off_c, 0, 61, 64
19, 14640, Note_on_c, 0, 64, 127
19, 14760, Note_off_c, 0, 64, 64
19, 14760, Note_on_c, 0, 61, 127
19, 14880, Note_off_c, 0, 61, 64
19, 14880, Note_on_c, 0, 54, 127
19, 15000, Note_off_c, 0, 54, 64
19, 15000, Note_on_c, 0, 56, 127
19, 15120, Note_off_c, 0, 56, 64
19, 15120, Note_on_c, 0, 59, 127
19, 15240, Note_off_c, 0, 59, 64
19, 15240, Note_on_c, 0, 61, 127
19, 15360, Note_off_c, 0, 61, 64
19, 15360, Note_on_c, 0, 64, 127
19, 15480, Note_off_c, 0, 64, 64
19, 15480, Note_on_c, 0, 61, 127
19, 15600, Pitch_bend_c, 0, 2816
19, 15600, Note_off_c, 0, 61, 64
19, 15600, Note_on_c, 0, 68, 127
19, 15607, Pitch_bend_c, 0, 2836
19, 15614, Pitch_bend_c, 0, 2894
19, 15621, Pitch_bend_c, 0, 2988
19, 15628, Pitch_bend_c, 0, 3119
19, 15635, Pitch_bend_c, 0, 3286
19, 15642, Pitch_bend_c, 0, 3490
19, 15649, Pitch_bend_c, 0, 3730
19, 15656, Pitch_bend_c, 0, 4007
19, 15663, Pitch_bend_c, 0, 4321
19, 15670, Pitch_bend_c, 0, 4671
19, 15677, Pitch_bend_c, 0, 5058
19, 15684, Pitch_bend_c, 0, 5481
19, 15691, Pitch_bend_c, 0, 5941
19, 15698, Pitch_bend_c, 0, 6438
19, 15705, Pitch_bend_c, 0, 6971
19, 15712, Pitch_bend_c, 0, 7540
19, 15719, Pitch_bend_c, 0, 8147
19, 15720, Pitch_bend_c, 0, 8192
19, 16200, Note_off_c, 0, 68, 64
19, 16200, Note_on_c, 0, 68, 127
19, 16200, Pitch_bend_c, 0, 0
19, 16260, Pitch_bend_c, 0, 8192
19, 16320, Note_off_c, 0, 68, 64
19, 16320, Note_on_c, 0, 66, 127
19, 16680, Pitch_bend_c, 0, 0
19, 16680, Note_off_c, 0, 66, 64
19, 16680, Note_on_c, 0, 66, 127
19, 16740, Pitch_bend_c, 0, 8192
19, 16800, Note_off_c, 0, 66, 64
19, 16800, Note_on_c, 0, 64, 127
19, 17160, Pitch_bend_c, 0, 4096
19, 17160, Note_off_c, 0, 64, 64
19, 17160, Note_on_c, 0, 64, 127
19, 17220, Pitch_bend_c, 0, 8192
19, 17280, Note_off_c, 0, 64, 64
19, 17280, Note_on_c, 0, 63, 127
19, 17520, Pitch_bend_c, 0, 2560
19, 17520, Note_off_c, 0, 63, 64
19, 17520, Note_on_c, 0, 61, 127
19, 17527, Pitch_bend_c, 0, 2581
19, 17534, Pitch_bend_c, 0, 2642
19, 17541, Pitch_bend_c, 0, 2740
19, 17548, Pitch_bend_c, 0, 2877
19, 17555, Pitch_bend_c, 0, 3052
19, 17562, Pitch_bend_c, 0, 3266
19, 17569, Pitch_bend_c, 0, 3518
19, 17576, Pitch_bend_c, 0, 3808
19, 17583, Pitch_bend_c, 0, 4136
19, 17590, Pitch_bend_c, 0, 4503
19, 17597, Pitch_bend_c, 0, 4909
19, 17604, Pitch_bend_c, 0, 5352
19, 17611, Pitch_bend_c, 0, 5834
19, 17618, Pitch_bend_c, 0, 6354
19, 17625, Pitch_bend_c, 0, 6913
19, 17632, Pitch_bend_c, 0, 7509
19, 17639, Pitch_bend_c, 0, 8145
19, 17640, Pitch_bend_c, 0, 8192
19, 18000, Note_off_c, 0, 61, 64
19, 18000, Note_on_c, 0, 56, 127
19, 18000, Pitch_bend_c, 0, 0
19, 18120, Pitch_bend_c, 0, 8192
19, 18240, Note_off_c, 0, 56, 64
19, 18240, Note_on_c, 0, 61, 127
19, 18240, Pitch_bend_c, 0, 0
19, 18360, Pitch_bend_c, 0, 8192
19, 18480, Note_off_c, 0, 61, 64
19, 18480, Note_on_c, 0, 66, 127
19, 18480, Pitch_bend_c, 0, 0
19, 18600, Pitch_bend_c, 0, 8192
19, 18720, Note_off_c, 0, 66, 64
19, 18720, Note_on_c, 0, 66, 127
19, 18720, Pitch_bend_c, 0, 2304
19, 18727, Pitch_bend_c, 0, 2326
19, 18734, Pitch_bend_c, 0, 2389
19, 18741, Pitch_bend_c, 0, 2492
19, 18748, Pitch_bend_c, 0, 2636
19, 18755, Pitch_bend_c, 0, 2819
19, 18762, Pitch_bend_c, 0, 3042
19, 18769, Pitch_bend_c, 0, 3305
19, 18776, Pitch_bend_c, 0, 3609
19, 18783, Pitch_bend_c, 0, 3952
19, 18790, Pitch_bend_c, 0, 4336
19, 18797, Pitch_bend_c, 0, 4759
19, 18804, Pitch_bend_c, 0, 5223
19, 18811, Pitch_bend_c, 0, 5727
19, 18818, Pitch_bend_c, 0, 6271
19, 18825, Pitch_bend_c, 0, 6854
19, 18832, Pitch_bend_c, 0, 7478
19, 18839, Pitch_bend_c, 0, 8142
19, 18840, Pitch_bend_c, 0, 8192
19, 19080, Note_off_c, 0, 66, 64
19, 19080, Note_on_c, 0, 64, 127
19, 19200, Note_off_c, 0, 64, 64
19, 19200, Note_on_c, 0, 63, 127
19, 19320, Note_off_c, 0, 63, 64
19, 19320, Note_on_c, 0, 59, 127
19, 19440, Pitch_bend_c, 0, 0
19, 19440, Note_off_c, 0, 59, 64
19, 19440, Note_on_c, 0, 61, 127
19, 19447, Pitch_bend_c, 0, 127
19, 19454, Pitch_bend_c, 0, 477
19, 19461, Pitch_bend_c, 0, 1051
19, 19468, Pitch_bend_c, 0, 1847
19, 19475, Pitch_bend_c, 0, 2867
19, 19482, Pitch_bend_c, 0, 4109
19, 19489, Pitch_bend_c, 0, 5575
19, 19496, Pitch_bend_c, 0, 7263
19, 19500, Pitch_bend_c, 0, 8192
19, 19659, Control_c, 0, 1, 80
19, 21600, Note_off_c, 0, 61, 64
19, 95880, Note_on_c, 0, 57, 127
19, 95880, Control_c, 0, 1, 0
19, 95880, Pitch_bend_c, 0, 0
19, 95887, Pitch_bend_c, 0, 63
19, 95894, Pitch_bend_c, 0, 238
19, 95901, Pitch_bend_c, 0, 525
19, 95908, Pitch_bend_c, 0, 923
19, 95915, Pitch_bend_c, 0, 1433
19, 95922, Pitch_bend_c, 0, 2054
19, 95929, Pitch_bend_c, 0, 2787
19, 95936, Pitch_bend_c, 0, 3631
19, 95943, Pitch_bend_c, 0, 4587
19, 95950, Pitch_bend_c, 0, 5654
19, 95957, Pitch_bend_c, 0, 6833
19, 95964, Pitch_bend_c, 0, 8123
19, 95971, Pitch_bend_c, 0, 9524
19, 95978, Pitch_bend_c, 0, 11037
19, 95985, Pitch_bend_c, 0, 12662
19, 95992, Pitch_bend_c, 0, 14398
19, 95999, Pitch_bend_c, 0, 16246
19, 96000, Note_off_c, 0, 57, 64
19, 96000, Note_on_c, 0, 59, 127
19, 96000, Pitch_bend_c, 0, 8192
19, 96090, Note_off_c, 0, 59, 64
19, 96120, Note_on_c, 0, 59, 127
19, 96240, Pitch_bend_c, 0, 8192
19, 96240, Note_off_c, 0, 59, 64
19, 96240, Note_on_c, 0, 55, 127
19, 96247, Pitch_bend_c, 0, 8446
19, 96254, Pitch_bend_c, 0, 9147
19, 96261, Pitch_bend_c, 0, 10294
19, 96268, Pitch_bend_c, 0, 11887
19, 96270, Pitch_bend_c, 0, 12288
19, 96330, Pitch_bend_c, 0, 12288
19, 96337, Pitch_bend_c, 0, 12224
19, 96344, Pitch_bend_c, 0, 12049
19, 96351, Pitch_bend_c, 0, 11762
19, 96358, Pitch_bend_c, 0, 11364
19, 96365, Pitch_bend_c, 0, 10854
19, 96372, Pitch_bend_c, 0, 10233
19, 96379, Pitch_bend_c, 0, 9500
19, 96386, Pitch_bend_c, 0, 8656
19, 96390, Pitch_bend_c, 0, 8192
19, 96480, Note_off_c, 0, 55, 64
19, 96480, Note_on_c, 0, 54, 127
19, 96720, Control_c, 0, 1, 80
19, 97080, Note_off_c, 0, 54, 64
19, 97080, Note_on_c, 0, 52, 127
19, 97080, Control_c, 0, 1, 0
19, 97200, Note_off_c, 0, 52, 64
19, 97200, Note_on_c, 0, 54, 127
19, 97320, Note_off_c, 0, 54, 64
19, 97320, Note_on_c, 0, 56, 127
19, 97440, Note_off_c, 0, 56, 64
19, 97440, Note_on_c, 0, 59, 127
19, 97590, Note_off_c, 0, 59, 64
19, 97680, Note_on_c, 0, 59, 127
19, 97800, Note_off_c, 0, 59, 64
19, 97800, Note_on_c, 0, 61, 127
19, 97920, Note_off_c, 0, 61, 64
19, 97920, Note_on_c, 0, 64, 127
19, 98040, Note_off_c, 0, 64, 64
19, 98040, Note_on_c, 0, 66, 127
19, 98160, Note_off_c, 0, 66, 64
19, 98160, Note_on_c, 0, 64, 127
19, 98280, Note_off_c, 0, 64, 64
19, 98280, Note_on_c, 0, 66, 127
19, 98400, Pitch_bend_c, 0, 0
19, 98400, Note_off_c, 0, 66, 64
19, 98400, Note_on_c, 0, 68, 127
19, 98407, Pitch_bend_c, 0, 537
19, 98415, Pitch_bend_c, 0, 1151
19, 98422, Pitch_bend_c, 0, 1689
19, 98430, Pitch_bend_c, 0, 2303
19, 98437, Pitch_bend_c, 0, 2841
19, 98445, Pitch_bend_c, 0, 3455
19, 98452, Pitch_bend_c, 0, 3993
19, 98459, Pitch_bend_c, 0, 4608
19, 98460, Pitch_bend_c, 0, 4608
19, 98467, Pitch_bend_c, 0, 4742
19, 98474, Pitch_bend_c, 0, 4876
19, 98481, Pitch_bend_c, 0, 5011
19, 98488, Pitch_bend_c, 0, 5145
19, 98495, Pitch_bend_c, 0, 5279
19, 98502, Pitch_bend_c, 0, 5414
19, 98509, Pitch_bend_c, 0, 5548
19, 98516, Pitch_bend_c, 0, 5683
19, 98523, Pitch_bend_c, 0, 5817
19, 98530, Pitch_bend_c, 0, 5951
19, 98537, Pitch_bend_c, 0, 6086
19, 98544, Pitch_bend_c, 0, 6220
19, 98551, Pitch_bend_c, 0, 6355
19, 98558, Pitch_bend_c, 0, 6489
19, 98565, Pitch_bend_c, 0, 6623
19, 98572, Pitch_bend_c, 0, 6758
19, 98579, Pitch_bend_c, 0, 6912
19, 98580, Pitch_bend_c, 0, 6912
19, 98587, Pitch_bend_c, 0, 6961
19, 98594, Pitch_bend_c, 0, 7011
19, 98601, Pitch_bend_c, 0, 7061
19, 98608, Pitch_bend_c, 0, 7111
19, 98616, Pitch_bend_c, 0, 7167
19, 98623, Pitch_bend_c, 0, 7217
19, 98630, Pitch_bend_c, 0, 7267
19, 98637, Pitch_bend_c, 0, 7317
19, 98644, Pitch_bend_c, 0, 7367
19, 98652, Pitch_bend_c, 0, 7423
19, 98659, Pitch_bend_c, 0, 7473
19, 98666, Pitch_bend_c, 0, 7523
19, 98673, Pitch_bend_c, 0, 7573
19, 98680, Pitch_bend_c, 0, 7622
19, 98688, Pitch_bend_c, 0, 7679
19, 98695, Pitch_bend_c, 0, 7729
19, 98702, Pitch_bend_c, 0, 7779
19, 98709, Pitch_bend_c, 0, 7829
19, 98716, Pitch_bend_c, 0, 7878
19, 98724, Pitch_bend_c, 0, 7935
19, 98731, Pitch_bend_c, 0, 7985
19, 98738, Pitch_bend_c, 0, 8035
19, 98745, Pitch_bend_c, 0, 8085
19, 98752, Pitch_bend_c, 0, 8134
19, 98759, Pitch_bend_c, 0, 8192
19, 99120, Control_c, 0, 1, 100
19, 99720, Note_off_c, 0, 68, 64
19, 99720, Note_on_c, 0, 64, 127
19, 99720, Control_c, 0, 1, 0
19, 99840, Note_off_c, 0, 64, 64
19, 99840, Note_on_c, 0, 71, 127
19, 99960, Note_off_c, 0, 71, 64
19, 99960, Note_on_c, 0, 66, 127
19, 100080, Pitch_bend_c, 0, 8192
19, 100080, Note_off_c, 0, 66, 64
19, 100080, Note_on_c, 0, 66, 127
19, 100080, Control_c, 0, 1, 20
19, 100087, Pitch_bend_c, 0, 8214
19, 100094, Pitch_bend_c, 0, 8277
19, 100101, Pitch_bend_c, 0, 8380
19, 100108, Pitch_bend_c, 0, 8524
19, 100115, Pitch_bend_c, 0, 8707
19, 100122, Pitch_bend_c, 0, 8930
19, 100129, Pitch_bend_c, 0, 9193
19, 100136, Pitch_bend_c, 0, 9497
19, 100143, Pitch_bend_c, 0, 9840
19, 100150, Pitch_bend_c, 0, 10224
19, 100157, Pitch_bend_c, 0, 10647
19, 100164, Pitch_bend_c, 0, 11111
19, 100171, Pitch_bend_c, 0, 11615
19, 100178, Pitch_bend_c, 0, 12159
19, 100185, Pitch_bend_c, 0, 12742
19, 100192, Pitch_bend_c, 0, 13366
19, 100199, Pitch_bend_c, 0, 14030
19, 100200, Pitch_bend_c, 0, 14080
19, 100320, Pitch_bend_c, 0, 14080
19, 100327, Pitch_bend_c, 0, 14076
19, 100334, Pitch_bend_c, 0, 14065
19, 100341, Pitch_bend_c, 0, 14047
19, 100348, Pitch_bend_c, 0, 14022
19, 100355, Pitch_bend_c, 0, 13990
19, 100362, Pitch_bend_c, 0, 13951
19, 100369, Pitch_bend_c, 0, 13905
19, 100376, Pitch_bend_c, 0, 13853
19, 100383, Pitch_bend_c, 0, 13793
19, 100390, Pitch_bend_c, 0, 13726
19, 100397, Pitch_bend_c, 0, 13652
19, 100404, Pitch_bend_c, 0, 13572
19, 100411, Pitch_bend_c, 0, 13484
19, 100418, Pitch_bend_c, 0, 13390
19, 100425, Pitch_bend_c, 0, 13288
19, 100432, Pitch_bend_c, 0, 13180
19, 100439, Pitch_bend_c, 0, 13064
19, 100446, Pitch_bend_c, 0, 12942
19, 100453, Pitch_bend_c, 0, 12812
19, 100460, Pitch_bend_c, 0, 12676
19, 100467, Pitch_bend_c, 0, 12532
19, 100474, Pitch_bend_c, 0, 12382
19, 100481, Pitch_bend_c, 0, 12225
19, 100488, Pitch_bend_c, 0, 12061
19, 100495, Pitch_bend_c, 0, 11889
19, 100502, Pitch_bend_c, 0, 11711
19, 100509, Pitch_bend_c, 0, 11526
19, 100516, Pitch_bend_c, 0, 11334
19, 100523, Pitch_bend_c, 0, 11135
19, 100530, Pitch_bend_c, 0, 10929
19, 100537, Pitch_bend_c, 0, 10716
19, 100544, Pitch_bend_c, 0, 10496
19, 100551, Pitch_bend_c, 0, 10269
19, 100558, Pitch_bend_c, 0, 10035
19, 100560, Note_off_c, 0, 66, 64
19, 100560, Note_on_c, 0, 66, 127
19, 100560, Control_c, 0, 1, 0
19, 100560, Pitch_bend_c, 0, 8192
19, 100640, Note_on_c, 0, 64, 127
19, 100644, Note_off_c, 0, 66, 64
19, 100720, Note_on_c, 0, 66, 127
19, 100721, Note_off_c, 0, 64, 64
19, 100799, Note_off_c, 0, 66, 64
19, 100800, Pitch_bend_c, 0, 12288
19, 100800, Note_on_c, 0, 63, 127
19, 100920, Pitch_bend_c, 0, 8192
19, 101040, Note_off_c, 0, 63, 64
19, 101040, Note_on_c, 0, 59, 127
19, 101160, Note_off_c, 0, 59, 64
19, 101160, Note_on_c, 0, 61, 127
19, 101520, Note_off_c, 0, 61, 64
19, 101520, Note_on_c, 0, 64, 127
19, 101640, Note_off_c, 0, 64, 64
19, 101640, Note_on_c, 0, 66, 127
19, 101760, Note_off_c, 0, 66, 64
19, 101760, Note_on_c, 0, 64, 127
19, 102000, Pitch_bend_c, 0, 0
19, 102000, Note_off_c, 0, 64, 64
19, 102000, Note_on_c, 0, 76, 127
19, 102007, Pitch_bend_c, 0, 31
19, 102014, Pitch_bend_c, 0, 119
19, 102021, Pitch_bend_c, 0, 262
19, 102028, Pitch_bend_c, 0, 461
19, 102035, Pitch_bend_c, 0, 716
19, 102042, Pitch_bend_c, 0, 1027
19, 102049, Pitch_bend_c, 0, 1393
19, 102056, Pitch_bend_c, 0, 1815
19, 102063, Pitch_bend_c, 0, 2293
19, 102070, Pitch_bend_c, 0, 2827
19, 102077, Pitch_bend_c, 0, 3416
19, 102084, Pitch_bend_c, 0, 4061
19, 102091, Pitch_bend_c, 0, 4762
19, 102098, Pitch_bend_c, 0, 5519
19, 102105, Pitch_bend_c, 0, 6331
19, 102112, Pitch_bend_c, 0, 7199
19, 102119, Pitch_bend_c, 0, 8123
19, 102120, Pitch_bend_c, 0, 8192
19, 102290, Control_c, 0, 1, 80
19, 102960, Note_off_c, 0, 76, 64
19, 102960, Note_on_c, 0, 75, 127
19, 102960, Control_c, 0, 1, 0
19, 103080, Note_off_c, 0, 75, 64
19, 103080, Note_on_c, 0, 76, 127
19, 103200, Note_off_c, 0, 76, 64
19, 103200, Note_on_c, 0, 75, 127
19, 103320, Note_off_c, 0, 75, 64
19, 103320, Note_on_c, 0, 73, 127
19, 103440, Pitch_bend_c, 0, 0
19, 103440, Note_off_c, 0, 73, 64
19, 103440, Note_on_c, 0, 73, 127
19, 103447, Pitch_bend_c, 0, 31
19, 103454, Pitch_bend_c, 0, 119
19, 103461, Pitch_bend_c, 0, 262
19, 103468, Pitch_bend_c, 0, 461
19, 103475, Pitch_bend_c, 0, 716
19, 103482, Pitch_bend_c, 0, 1027
19, 103489, Pitch_bend_c, 0, 1393
19, 103496, Pitch_bend_c, 0, 1815
19, 103503, Pitch_bend_c, 0, 2293
19, 103510, Pitch_bend_c, 0, 2827
19, 103517, Pitch_bend_c, 0, 3416
19, 103524, Pitch_bend_c, 0, 4061
19, 103531, Pitch_bend_c, 0, 4762
19, 103538, Pitch_bend_c, 0, 5519
19, 103545, Pitch_bend_c, 0, 6331
19, 103552, Pitch_bend_c, 0, 7199
19, 103559, Pitch_bend_c, 0, 8123
19, 103560, Pitch_bend_c, 0, 8192
19, 103920, Note_off_c, 0, 73, 64
19, 103920, Note_on_c, 0, 69, 127
19, 104000, Note_off_c, 0, 69, 64
19, 104000, Note_on_c, 0, 68, 127
19, 104080, Note_off_c, 0, 68, 64
19, 104080, Note_on_c, 0, 71, 127
19, 104160, Pitch_bend_c, 0, 3072
19, 104160, Note_off_c, 0, 71, 64
19, 104160, Note_on_c, 0, 73, 127
19, 104167, Pitch_bend_c, 0, 3116
19, 104174, Pitch_bend_c, 0, 3239
19, 104181, Pitch_bend_c, 0, 3441
19, 104188, Pitch_bend_c, 0, 3721
19, 104195, Pitch_bend_c, 0, 4079
19, 104202, Pitch_bend_c, 0, 4516
19, 104209, Pitch_bend_c, 0, 5031
19, 104216, Pitch_bend_c, 0, 5625
19, 104223, Pitch_bend_c, 0, 6297
19, 104230, Pitch_bend_c, 0, 7047
19, 104237, Pitch_bend_c, 0, 7876
19, 104240, Pitch_bend_c, 0, 8192
19, 104320, Note_off_c, 0, 73, 64
19, 104320, Note_on_c, 0, 71, 127
19, 104400, Note_off_c, 0, 71, 64
19, 104400, Note_on_c, 0, 68, 127
19, 104480, Note_off_c, 0, 68, 64
19, 104480, Note_on_c, 0, 71, 127
19, 104560, Note_off_c, 0, 71, 64
19, 104560, Note_on_c, 0, 68, 127
19, 104640, Note_off_c, 0, 68, 64
19, 104640, Note_on_c, 0, 71, 127
19, 104700, Note_off_c, 0, 71, 64
19, 104700, Note_on_c, 0, 68, 127
19, 104748, Note_off_c, 0, 68, 64
19, 104748, Note_on_c, 0, 71, 127
19, 104796, Note_off_c, 0, 71, 64
19, 104796, Note_on_c, 0, 68, 127
19, 104848, Note_on_c, 0, 71, 127
19, 104856, Note_off_c, 0, 68, 64
19, 104904, Note_on_c, 0, 68, 127
19, 104908, Note_off_c, 0, 71, 64
19, 104956, Note_on_c, 0, 71, 127
19, 104964, Note_off_c, 0, 68, 64
19, 105004, Note_on_c, 0, 68, 127
19, 105012, Note_off_c, 0, 71, 64
19, 105056, Note_on_c, 0, 71, 127
19, 105060, Note_off_c, 0, 68, 64
19, 105104, Note_on_c, 0, 68, 127
19, 105108, Note_off_c, 0, 71, 64
19, 105144, Note_off_c, 0, 68, 64
19, 105144, Note_on_c, 0, 71, 127
19, 105188, Note_on_c, 0, 68, 127
19, 105200, Note_off_c, 0, 71, 64
19, 105240, Note_on_c, 0, 71, 127
19, 105248, Note_off_c, 0, 68, 64
19, 105284, Note_off_c, 0, 71, 64
19, 105288, Note_on_c, 0, 68, 127
19, 105340, Note_on_c, 0, 71, 127
19, 105348, Note_off_c, 0, 68, 64
19, 105384, Note_off_c, 0, 71, 64
19, 105384, Note_on_c, 0, 68, 127
19, 105424, Note_off_c, 0, 68, 64
19, 105428, Note_on_c, 0, 71, 127
19, 105480, Note_on_c, 0, 68, 127
19, 105484, Note_off_c, 0, 71, 64
19, 105532, Note_on_c, 0, 71, 127
19, 105536, Note_off_c, 0, 68, 64
19, 105588, Note_on_c, 0, 68, 127
19, 105592, Note_off_c, 0, 71, 64
19, 105644, Note_off_c, 0, 68, 64
19, 105648, Note_on_c, 0, 71, 127
19, 105700, Note_off_c, 0, 71, 64
19, 105704, Note_on_c, 0, 68, 127
19, 105752, Note_off_c, 0, 68, 64
19, 105752, Note_on_c, 0, 71, 127
19, 105792, Note_off_c, 0, 71, 64
19, 105796, Note_on_c, 0, 68, 127
19, 105832, Note_on_c, 0, 71, 127
19, 105836, Note_off_c, 0, 68, 64
19, 105872, Note_off_c, 0, 71, 64
19, 105876, Pitch_bend_c, 0, 768
19, 105876, Note_on_c, 0, 68, 127
19, 105883, Pitch_bend_c, 0, 1088
19, 105890, Pitch_bend_c, 0, 1970
19, 105897, Pitch_bend_c, 0, 3414
19, 105904, Pitch_bend_c, 0, 5419
19, 105911, Pitch_bend_c, 0, 7985
19, 105912, Pitch_bend_c, 0, 8192
19, 105956, Note_off_c, 0, 68, 64
19, 105960, Note_on_c, 0, 68, 127
19, 105960, Pitch_bend_c, 0, 3328
19, 105967, Pitch_bend_c, 0, 3346
19, 105974, Pitch_bend_c, 0, 3398
19, 105981, Pitch_bend_c, 0, 3484
19, 105988, Pitch_bend_c, 0, 3602
19, 105995, Pitch_bend_c, 0, 3753
19, 106002, Pitch_bend_c, 0, 3938
19, 106009, Pitch_bend_c, 0, 4155
19, 106016, Pitch_bend_c, 0, 4406
19, 106023, Pitch_bend_c, 0, 4689
19, 106030, Pitch_bend_c, 0, 5006
19, 106037, Pitch_bend_c, 0, 5356
19, 106044, Pitch_bend_c, 0, 5739
19, 106051, Pitch_bend_c, 0, 6155
19, 106058, Pitch_bend_c, 0, 6605
19, 106065, Pitch_bend_c, 0, 7087
19, 106072, Pitch_bend_c, 0, 7602
19, 106079, Pitch_bend_c, 0, 8151
19, 106080, Pitch_bend_c, 0, 8192
19, 106380, Pitch_bend_c, 0, 8192
19, 106387, Pitch_bend_c, 0, 8177
19, 106394, Pitch_bend_c, 0, 8138
19, 106401, Pitch_bend_c, 0, 8075
19, 106408, Pitch_bend_c, 0, 7986
19, 106415, Pitch_bend_c, 0, 7873
19, 106422, Pitch_bend_c, 0, 7735
19, 106429, Pitch_bend_c, 0, 7572
19, 106436, Pitch_bend_c, 0, 7384
19, 106443, Pitch_bend_c, 0, 7172
19, 106450, Pitch_bend_c, 0, 6935
19, 106457, Pitch_bend_c, 0, 6673
19, 106464, Pitch_bend_c, 0, 6386
19, 106471, Pitch_bend_c, 0, 6075
19, 106478, Pitch_bend_c, 0, 5738
19, 106485, Pitch_bend_c, 0, 5377
19, 106492, Pitch_bend_c, 0, 4992
19, 106499, Pitch_bend_c, 0, 4581
19, 106506, Pitch_bend_c, 0, 4146
19, 106513, Pitch_bend_c, 0, 3685
19, 106520, Pitch_bend_c, 0, 3200
19, 106527, Pitch_bend_c, 0, 2691
19, 106534, Pitch_bend_c, 0, 2156
19, 106541, Pitch_bend_c, 0, 1597
19, 106548, Pitch_bend_c, 0, 1013
19, 106555, Pitch_bend_c, 0, 404
19, 106560, Note_off_c, 0, 68, 64
19, 106560, Note_on_c, 0, 64, 127
19, 106560, Pitch_bend_c, 0, 8192
19, 106680, Note_off_c, 0, 64, 64
19, 106680, Note_on_c, 0, 61, 127
19, 106800, Note_off_c, 0, 61, 64
19, 106800, Note_on_c, 0, 64, 127
19, 106920, Note_off_c, 0, 64, 64
19, 106920, Note_on_c, 0, 61, 127
19, 106980, Note_off_c, 0, 61, 64
19, 107040, Note_on_c, 0, 64, 127
19, 107280, Note_off_c, 0, 64, 64
19, 107280, Note_on_c, 0, 63, 127
19, 107640, Note_off_c, 0, 63, 64
19, 107640, Note_on_c, 0, 59, 127
19, 107760, Note_off_c, 0, 59, 64
19, 107760, Note_on_c, 0, 61, 127
19, 108000, Pitch_bend_c, 0, 3072
19, 108000, Note_off_c, 0, 61, 64
19, 108000, Note_on_c, 0, 61, 127
19, 108007, Pitch_bend_c, 0, 3151
19, 108014, Pitch_bend_c, 0, 3370
19, 108021, Pitch_bend_c, 0, 3729
19, 108028, Pitch_bend_c, 0, 4226
19, 108035, Pitch_bend_c, 0, 4863
19, 108042, Pitch_bend_c, 0, 5640
19, 108049, Pitch_bend_c, 0, 6556
19, 108056, Pitch_bend_c, 0, 7611
19, 108060, Pitch_bend_c, 0, 8192
19, 108160, Note_off_c, 0, 61, 64
19, 108160, Note_on_c, 0, 61, 127
19, 108160, Pitch_bend_c, 0, 2816
19, 108167, Pitch_bend_c, 0, 3004
19, 108174, Pitch_bend_c, 0, 3521
19, 108181, Pitch_bend_c, 0, 4368
19, 108188, Pitch_bend_c, 0, 5544
19, 108195, Pitch_bend_c, 0, 7049
19, 108200, Pitch_bend_c, 0, 8192
19, 108320, Note_off_c, 0, 61, 64
19, 108320, Note_on_c, 0, 61, 127
19, 108320, Pitch_bend_c, 0, 3072
19, 108327, Pitch_bend_c, 0, 3251
19, 108334, Pitch_bend_c, 0, 3743
19, 108341, Pitch_bend_c, 0, 4550
19, 108348, Pitch_bend_c, 0, 5670
19, 108355, Pitch_bend_c, 0, 7103
19, 108360, Pitch_bend_c, 0, 8192
19, 108480, Note_off_c, 0, 61, 64
19, 108480, Note_on_c, 0, 61, 127
19, 108480, Pitch_bend_c, 0, 2816
19, 108487, Pitch_bend_c, 0, 3150
19, 108494, Pitch_bend_c, 0, 4070
19, 108501, Pitch_bend_c, 0, 5575
19, 108508, Pitch_bend_c, 0, 7666
19, 108510, Pitch_bend_c, 0, 8192
19, 108600, Note_off_c, 0, 61, 64
19, 108600, Note_on_c, 0, 61, 127
19, 108600, Pitch_bend_c, 0, 2816
19, 108607, Pitch_bend_c, 0, 3150
19, 108614, Pitch_bend_c, 0, 4070
19, 108621, Pitch_bend_c, 0, 5575
19, 108628, Pitch_bend_c, 0, 7666
19, 108630, Pitch_bend_c, 0, 8192
19, 108660, Pitch_bend_c, 0, 8192
19, 108720, Note_off_c, 0, 61, 64
19, 108720, Note_on_c, 0, 61, 127
19, 108720, Pitch_bend_c, 0, 0
19, 108780, Pitch_bend_c, 0, 0
19, 108787, Pitch_bend_c, 0, 127
19, 108794, Pitch_bend_c, 0, 477
19, 108801, Pitch_bend_c, 0, 1051
19, 108808, Pitch_bend_c, 0, 1847
19, 108815, Pitch_bend_c, 0, 2867
19, 108822, Pitch_bend_c, 0, 4109
19, 108829, Pitch_bend_c, 0, 5575
19, 108836, Pitch_bend_c, 0, 7263
19, 108840, Pitch_bend_c, 0, 8192
19, 108960, Note_off_c, 0, 61, 64
19, 108960, Note_on_c, 0, 59, 127
19, 109200, Note_off_c, 0, 59, 64
19, 109200, Note_on_c, 0, 56, 127
19, 109320, Note_off_c, 0, 56, 64
19, 109320, Note_on_c, 0, 54, 127
19, 109440, Note_off_c, 0, 54, 64
19, 109440, Note_on_c, 0, 52, 127
19, 109560, Note_off_c, 0, 52, 64
19, 109560, Note_on_c, 0, 54, 127
19, 109680, Pitch_bend_c, 0, 0
19, 109680, Note_off_c, 0, 54, 64
19, 109680, Note_on_c, 0, 56, 127
19, 109687, Pitch_bend_c, 0, 31
19, 109694, Pitch_bend_c, 0, 119
19, 109701, Pitch_bend_c, 0, 262
19, 109708, Pitch_bend_c, 0, 461
19, 109715, Pitch_bend_c, 0, 716
19, 109722, Pitch_bend_c, 0, 1027
19, 109729, Pitch_bend_c, 0, 1393
19, 109736, Pitch_bend_c, 0, 1815
19, 109743, Pitch_bend_c, 0, 2293
19, 109750, Pitch_bend_c, 0, 2827
19, 109757, Pitch_bend_c, 0, 3416
19, 109764, Pitch_bend_c, 0, 4061
19, 109771, Pitch_bend_c, 0, 4762
19, 109778, Pitch_bend_c, 0, 5519
19, 109785, Pitch_bend_c, 0, 6331
19, 109792, Pitch_bend_c, 0, 7199
19, 109799, Pitch_bend_c, 0, 8123
19, 109800, Pitch_bend_c, 0, 8192
19, 110160, Note_off_c, 0, 56, 64
19, 110160, Note_on_c, 0, 59, 127
19, 110280, Note_off_c, 0, 59, 64
19, 110280, Note_on_c, 0, 61, 127
19, 110400, Note_off_c, 0, 61, 64
19, 110400, Note_on_c, 0, 64, 127
19, 110520, Note_off_c, 0, 64, 64
19, 110520, Note_on_c, 0, 66, 127
19, 110640, Pitch_bend_c, 0, 0
19, 110640, Note_off_c, 0, 66, 64
19, 110640, Note_on_c, 0, 68, 127
19, 110647, Pitch_bend_c, 0, 56
19, 110654, Pitch_bend_c, 0, 212
19, 110661, Pitch_bend_c, 0, 467
19, 110668, Pitch_bend_c, 0, 821
19, 110675, Pitch_bend_c, 0, 1274
19, 110682, Pitch_bend_c, 0, 1826
19, 110689, Pitch_bend_c, 0, 2477
19, 110696, Pitch_bend_c, 0, 3228
19, 110703, Pitch_bend_c, 0, 4077
19, 110710, Pitch_bend_c, 0, 5026
19, 110717, Pitch_bend_c, 0, 6074
19, 110724, Pitch_bend_c, 0, 7221
19, 110730, Pitch_bend_c, 0, 8192
19, 111120, Note_off_c, 0, 68, 64
19, 111120, Note_on_c, 0, 71, 127
19, 111240, Note_off_c, 0, 71, 64
19, 111240, Note_on_c, 0, 73, 127
19, 111360, Note_off_c, 0, 73, 64
19, 111360, Note_on_c, 0, 76, 127
19, 111480, Note_off_c, 0, 76, 64
19, 111480, Note_on_c, 0, 78, 127
19, 111600, Note_off_c, 0, 78, 64
19, 111600, Note_on_c, 0, 80, 127
19, 112320, Control_c, 0, 1, 80
19, 112320, Pitch_bend_c, 0, 8192
19, 112327, Pitch_bend_c, 0, 8190
19, 112334, Pitch_bend_c, 0, 8187
19, 112341, Pitch_bend_c, 0, 8182
19, 112348, Pitch_bend_c, 0, 8174
19, 112355, Pitch_bend_c, 0, 8165
19, 112362, Pitch_bend_c, 0, 8153
19, 112369, Pitch_bend_c, 0, 8139
19, 112376, Pitch_bend_c, 0, 8123
19, 112383, Pitch_bend_c, 0, 8105
19, 112390, Pitch_bend_c, 0, 8085
19, 112397, Pitch_bend_c, 0, 8063
19, 112404, Pitch_bend_c, 0, 8039
19, 112411, Pitch_bend_c, 0, 8013
19, 112418, Pitch_bend_c, 0, 7985
19, 112425, Pitch_bend_c, 0, 7954
19, 112432, Pitch_bend_c, 0, 7922
19, 112439, Pitch_bend_c, 0, 7887
19, 112446, Pitch_bend_c, 0, 7850
19, 112453, Pitch_bend_c, 0, 7811
19, 112460, Pitch_bend_c, 0, 7770
19, 112467, Pitch_bend_c, 0, 7727
19, 112474, Pitch_bend_c, 0, 7682
19, 112481, Pitch_bend_c, 0, 7635
19, 112488, Pitch_bend_c, 0, 7586
19, 112495, Pitch_bend_c, 0, 7534
19, 112502, Pitch_bend_c, 0, 7481
19, 112509, Pitch_bend_c, 0, 7425
19, 112516, Pitch_bend_c, 0, 7368
19, 112523, Pitch_bend_c, 0, 7308
19, 112530, Pitch_bend_c, 0, 7246
19, 112537, Pitch_bend_c, 0, 7182
19, 112544, Pitch_bend_c, 0, 7116
19, 112551, Pitch_bend_c, 0, 7048
19, 112558, Pitch_bend_c, 0, 6978
19, 112565, Pitch_bend_c, 0, 6906
19, 112572, Pitch_bend_c, 0, 6831
19, 112579, Pitch_bend_c, 0, 6755
19, 112586, Pitch_bend_c, 0, 6676
19, 112593, Pitch_bend_c, 0, 6596
19, 112600, Pitch_bend_c, 0, 6513
19, 112607, Pitch_bend_c, 0, 6428
19, 112614, Pitch_bend_c, 0, 6341
19, 112621, Pitch_bend_c, 0, 6252
19, 112628, Pitch_bend_c, 0, 6161
19, 112635, Pitch_bend_c, 0, 6068
19, 112642, Pitch_bend_c, 0, 5973
19, 112649, Pitch_bend_c, 0, 5876
19, 112656, Pitch_bend_c, 0, 5776
19, 112663, Pitch_bend_c, 0, 5675
19, 112670, Pitch_bend_c, 0, 5571
19, 112677, Pitch_bend_c, 0, 5465
19, 112684, Pitch_bend_c, 0, 5357
19, 112691, Pitch_bend_c, 0, 5247
19, 112698, Pitch_bend_c, 0, 5135
19, 112705, Pitch_bend_c, 0, 5021
19, 112712, Pitch_bend_c, 0, 4905
19, 112719, Pitch_bend_c, 0, 4787
19, 112726, Pitch_bend_c, 0, 4667
19, 112733, Pitch_bend_c, 0, 4544
19, 112740, Pitch_bend_c, 0, 4420
19, 112747, Pitch_bend_c, 0, 4293
19, 112754, Pitch_bend_c, 0, 4164
19, 112761, Pitch_bend_c, 0, 4033
19, 112768, Pitch_bend_c, 0, 3901
19, 112775, Pitch_bend_c, 0, 3766
19, 112782, Pitch_bend_c, 0, 3629
19, 112789, Pitch_bend_c, 0, 3489
19, 112796, Pitch_bend_c, 0, 3348
19, 112803, Pitch_bend_c, 0, 3205
19, 112810, Pitch_bend_c, 0, 3059
19, 112817, Pitch_bend_c, 0, 2912
19, 112824, Pitch_bend_c, 0, 2762
19, 112831, Pitch_bend_c, 0, 2610
19, 112838, Pitch_bend_c, 0, 2457
19, 112845, Pitch_bend_c, 0, 2301
19, 112852, Pitch_bend_c, 0, 2143
19, 112859, Pitch_bend_c, 0, 1983
19, 112866, Pitch_bend_c, 0, 1821
19, 112873, Pitch_bend_c, 0, 1656
19, 112880, Pitch_bend_c, 0, 1490
19, 112887, Pitch_bend_c, 0, 1321
19, 112894, Pitch_bend_c, 0, 1151
19, 112901, Pitch_bend_c, 0, 978
19, 112908, Pitch_bend_c, 0, 804
19, 112915, Pitch_bend_c, 0, 627
19, 112920, Note_off_c, 0, 80, 64
19, 112920, Pitch_bend_c, 0, 512
19, 113040, Pitch_bend_c, 0, 8192
19, 146400, End_track
20, 0, Start_track
20, 0, Instrument_name_t, "SB AWE32 MIDI Synth [62"
20, 0, Title_t, "Choosey Lover"
20, 4392, Note_on_c, 15, 80, 127
20, 4392, Control_c, 15, 1, 0
20, 4392, Pitch_bend_c, 15, 3072
20, 4399, Pitch_bend_c, 15, 3221
20, 4406, Pitch_bend_c, 15, 3370
20, 4413, Pitch_bend_c, 15, 3519
20, 4420, Pitch_bend_c, 15, 3669
20, 4427, Pitch_bend_c, 15, 3818
20, 4434, Pitch_bend_c, 15, 3967
20, 4441, Pitch_bend_c, 15, 4117
20, 4448, Pitch_bend_c, 15, 4266
20, 4455, Pitch_bend_c, 15, 4415
20, 4462, Pitch_bend_c, 15, 4565
20, 4469, Pitch_bend_c, 15, 4714
20, 4476, Pitch_bend_c, 15, 4863
20, 4483, Pitch_bend_c, 15, 5013
20, 4490, Pitch_bend_c, 15, 5162
20, 4497, Pitch_bend_c, 15, 5311
20, 4504, Pitch_bend_c, 15, 5461
20, 4511, Pitch_bend_c, 15, 5632
20, 4512, Pitch_bend_c, 15, 5632
20, 4519, Pitch_bend_c, 15, 5684
20, 4526, Pitch_bend_c, 15, 5736
20, 4533, Pitch_bend_c, 15, 5788
20, 4540, Pitch_bend_c, 15, 5841
20, 4547, Pitch_bend_c, 15, 5893
20, 4554, Pitch_bend_c, 15, 5945
20, 4561, Pitch_bend_c, 15, 5997
20, 4568, Pitch_bend_c, 15, 6050
20, 4575, Pitch_bend_c, 15, 6102
20, 4582, Pitch_bend_c, 15, 6154
20, 4589, Pitch_bend_c, 15, 6206
20, 4596, Pitch_bend_c, 15, 6259
20, 4603, Pitch_bend_c, 15, 6311
20, 4610, Pitch_bend_c, 15, 6363
20, 4617, Pitch_bend_c, 15, 6415
20, 4624, Pitch_bend_c, 15, 6468
20, 4632, Pitch_bend_c, 15, 6527
20, 4639, Pitch_bend_c, 15, 6580
20, 4646, Pitch_bend_c, 15, 6632
20, 4653, Pitch_bend_c, 15, 6684
20, 4660, Pitch_bend_c, 15, 6736
20, 4667, Pitch_bend_c, 15, 6789
20, 4674, Pitch_bend_c, 15, 6841
20, 4681, Pitch_bend_c, 15, 6893
20, 4688, Pitch_bend_c, 15, 6945
20, 4695, Pitch_bend_c, 15, 6998
20, 4702, Pitch_bend_c, 15, 7050
20, 4709, Pitch_bend_c, 15, 7102
20, 4716, Pitch_bend_c, 15, 7154
20, 4723, Pitch_bend_c, 15, 7207
20, 4730, Pitch_bend_c, 15, 7259
20, 4737, Pitch_bend_c, 15, 7311
20, 4744, Pitch_bend_c, 15, 7363
20, 4751, Pitch_bend_c, 15, 7424
20, 4752, Pitch_bend_c, 15, 7168
20, 4759, Pitch_bend_c, 15, 7187
20, 4766, Pitch_bend_c, 15, 7207
20, 4773, Pitch_bend_c, 15, 7227
20, 4780, Pitch_bend_c, 15, 7247
20, 4787, Pitch_bend_c, 15, 7267
20, 4794, Pitch_bend_c, 15, 7287
20, 4801, Pitch_bend_c, 15, 7307
20, 4808, Pitch_bend_c, 15, 7327
20, 4815, Pitch_bend_c, 15, 7347
20, 4822, Pitch_bend_c, 15, 7367
20, 4829, Pitch_bend_c, 15, 7386
20, 4836, Pitch_bend_c, 15, 7406
20, 4843, Pitch_bend_c, 15, 7426
20, 4850, Pitch_bend_c, 15, 7446
20, 4857, Pitch_bend_c, 15, 7466
20, 4864, Pitch_bend_c, 15, 7486
20, 4872, Control_c, 15, 1, 80
20, 4872, Pitch_bend_c, 15, 7509
20, 4879, Pitch_bend_c, 15, 7529
20, 4886, Pitch_bend_c, 15, 7549
20, 4893, Pitch_bend_c, 15, 7568
20, 4900, Pitch_bend_c, 15, 7588
20, 4907, Pitch_bend_c, 15, 7608
20, 4914, Pitch_bend_c, 15, 7628
20, 4921, Pitch_bend_c, 15, 7648
20, 4928, Pitch_bend_c, 15, 7668
20, 4935, Pitch_bend_c, 15, 7688
20, 4942, Pitch_bend_c, 15, 7708
20, 4949, Pitch_bend_c, 15, 7728
20, 4956, Pitch_bend_c, 15, 7748
20, 4963, Pitch_bend_c, 15, 7768
20, 4970, Pitch_bend_c, 15, 7787
20, 4977, Pitch_bend_c, 15, 7807
20, 4984, Pitch_bend_c, 15, 7827
20, 4992, Pitch_bend_c, 15, 7850
20, 4999, Pitch_bend_c, 15, 7870
20, 5006, Pitch_bend_c, 15, 7890
20, 5013, Pitch_bend_c, 15, 7910
20, 5020, Pitch_bend_c, 15, 7930
20, 5027, Pitch_bend_c, 15, 7950
20, 5034, Pitch_bend_c, 15, 7969
20, 5041, Pitch_bend_c, 15, 7989
20, 5048, Pitch_bend_c, 15, 8009
20, 5055, Pitch_bend_c, 15, 8029
20, 5062, Pitch_bend_c, 15, 8049
20, 5069, Pitch_bend_c, 15, 8069
20, 5076, Pitch_bend_c, 15, 8089
20, 5083, Pitch_bend_c, 15, 8109
20, 5090, Pitch_bend_c, 15, 8129
20, 5097, Pitch_bend_c, 15, 8149
20, 5104, Pitch_bend_c, 15, 8169
20, 5111, Pitch_bend_c, 15, 8192
20, 6312, Note_off_c, 15, 80, 64
20, 6552, Note_on_c, 15, 80, 127
20, 6552, Control_c, 15, 1, 0
20, 6552, Pitch_bend_c, 15, 4096
20, 6559, Pitch_bend_c, 15, 4099
20, 6566, Pitch_bend_c, 15, 4110
20, 6573, Pitch_bend_c, 15, 4128
20, 6580, Pitch_bend_c, 15, 4153
20, 6587, Pitch_bend_c, 15, 4185
20, 6594, Pitch_bend_c, 15, 4224
20, 6601, Pitch_bend_c, 15, 4270
20, 6608, Pitch_bend_c, 15, 4322
20, 6615, Pitch_bend_c, 15, 4382
20, 6622, Pitch_bend_c, 15, 4449
20, 6629, Pitch_bend_c, 15, 4523
20, 6636, Pitch_bend_c, 15, 4603
20, 6643, Pitch_bend_c, 15, 4691
20, 6650, Pitch_bend_c, 15, 4785
20, 6657, Pitch_bend_c, 15, 4887
20, 6664, Pitch_bend_c, 15, 4995
20, 6671, Pitch_bend_c, 15, 5111
20, 6678, Pitch_bend_c, 15, 5233
20, 6685, Pitch_bend_c, 15, 5363
20, 6692, Pitch_bend_c, 15, 5499
20, 6699, Pitch_bend_c, 15, 5643
20, 6706, Pitch_bend_c, 15, 5793
20, 6713, Pitch_bend_c, 15, 5950
20, 6720, Pitch_bend_c, 15, 6114
20, 6727, Pitch_bend_c, 15, 6286
20, 6734, Pitch_bend_c, 15, 6464
20, 6741, Pitch_bend_c, 15, 6649
20, 6748, Pitch_bend_c, 15, 6841
20, 6755, Pitch_bend_c, 15, 7040
20, 6762, Pitch_bend_c, 15, 7246
20, 6769, Pitch_bend_c, 15, 7459
20, 6776, Pitch_bend_c, 15, 7679
20, 6783, Pitch_bend_c, 15, 7906
20, 6790, Pitch_bend_c, 15, 8140
20, 6792, Pitch_bend_c, 15, 8192
20, 7092, Pitch_bend_c, 15, 8192
20, 7099, Pitch_bend_c, 15, 8160
20, 7106, Pitch_bend_c, 15, 8072
20, 7113, Pitch_bend_c, 15, 7929
20, 7120, Pitch_bend_c, 15, 7730
20, 7127, Pitch_bend_c, 15, 7475
20, 7134, Pitch_bend_c, 15, 7164
20, 7141, Pitch_bend_c, 15, 6798
20, 7148, Pitch_bend_c, 15, 6376
20, 7155, Pitch_bend_c, 15, 5898
20, 7162, Pitch_bend_c, 15, 5364
20, 7169, Pitch_bend_c, 15, 4775
20, 7176, Pitch_bend_c, 15, 4130
20, 7183, Pitch_bend_c, 15, 3429
20, 7190, Pitch_bend_c, 15, 2672
20, 7197, Pitch_bend_c, 15, 1860
20, 7204, Pitch_bend_c, 15, 992
20, 7211, Pitch_bend_c, 15, 68
20, 7212, Pitch_bend_c, 15, 0
20, 7272, Note_off_c, 15, 80, 64
20, 7272, Note_on_c, 15, 76, 127
20, 7272, Pitch_bend_c, 15, 8192
20, 7392, Note_off_c, 15, 76, 64
20, 7392, Note_on_c, 15, 78, 127
20, 7512, Note_off_c, 15, 78, 64
20, 7512, Note_on_c, 15, 76, 127
20, 7632, Pitch_bend_c, 15, 0
20, 7632, Note_off_c, 15, 76, 64
20, 7632, Note_on_c, 15, 76, 127
20, 7639, Pitch_bend_c, 15, 127
20, 7646, Pitch_bend_c, 15, 477
20, 7653, Pitch_bend_c, 15, 1051
20, 7660, Pitch_bend_c, 15, 1847
20, 7667, Pitch_bend_c, 15, 2867
20, 7674, Pitch_bend_c, 15, 4109
20, 7681, Pitch_bend_c, 15, 5575
20, 7688, Pitch_bend_c, 15, 7263
20, 7692, Pitch_bend_c, 15, 8192
20, 7752, Note_off_c, 15, 76, 64
20, 7752, Note_on_c, 15, 75, 127
20, 7872, Note_off_c, 15, 75, 64
20, 7872, Note_on_c, 15, 73, 127
20, 7992, Note_off_c, 15, 73, 64
20, 7992, Note_on_c, 15, 75, 127
20, 8112, Note_off_c, 15, 75, 64
20, 8112, Note_on_c, 15, 71, 127
20, 8232, Note_off_c, 15, 71, 64
20, 8232, Note_on_c, 15, 73, 127
20, 8352, Note_off_c, 15, 73, 64
20, 8352, Note_on_c, 15, 71, 127
20, 8472, Note_off_c, 15, 71, 64
20, 8472, Note_on_c, 15, 78, 127
20, 8592, Control_c, 15, 1, 80
20, 9192, Note_off_c, 15, 78, 64
20, 9192, Note_on_c, 15, 76, 127
20, 9192, Control_c, 15, 1, 0
20, 9252, Note_off_c, 15, 76, 64
20, 9252, Note_on_c, 15, 78, 127
20, 9312, Note_off_c, 15, 78, 64
20, 9312, Note_on_c, 15, 76, 127
20, 9432, Note_off_c, 15, 76, 64
20, 9432, Note_on_c, 15, 75, 127
20, 9492, Note_off_c, 15, 75, 64
20, 9492, Note_on_c, 15, 76, 127
20, 9552, Note_off_c, 15, 76, 64
20, 9552, Note_on_c, 15, 75, 127
20, 9672, Note_off_c, 15, 75, 64
20, 9672, Note_on_c, 15, 73, 127
20, 9732, Note_off_c, 15, 73, 64
20, 9732, Note_on_c, 15, 76, 127
20, 9792, Note_off_c, 15, 76, 64
20, 9792, Note_on_c, 15, 73, 127
20, 9912, Note_off_c, 15, 73, 64
20, 9912, Note_on_c, 15, 71, 127
20, 10032, Pitch_bend_c, 15, 0
20, 10032, Note_off_c, 15, 71, 64
20, 10032, Note_on_c, 15, 73, 127
20, 10039, Pitch_bend_c, 15, 31
20, 10046, Pitch_bend_c, 15, 119
20, 10053, Pitch_bend_c, 15, 262
20, 10060, Pitch_bend_c, 15, 461
20, 10067, Pitch_bend_c, 15, 716
20, 10074, Pitch_bend_c, 15, 1027
20, 10081, Pitch_bend_c, 15, 1393
20, 10088, Pitch_bend_c, 15, 1815
20, 10095, Pitch_bend_c, 15, 2293
20, 10102, Pitch_bend_c, 15, 2827
20, 10109, Pitch_bend_c, 15, 3416
20, 10116, Pitch_bend_c, 15, 4061
20, 10123, Pitch_bend_c, 15, 4762
20, 10130, Pitch_bend_c, 15, 5519
20, 10137, Pitch_bend_c, 15, 6331
20, 10144, Pitch_bend_c, 15, 7199
20, 10151, Pitch_bend_c, 15, 8123
20, 10152, Pitch_bend_c, 15, 8192
20, 10392, Note_off_c, 15, 73, 64
20, 10392, Note_on_c, 15, 71, 127
20, 10512, Note_off_c, 15, 71, 64
20, 10512, Note_on_c, 15, 68, 127
20, 10632, Note_off_c, 15, 68, 64
20, 10632, Note_on_c, 15, 67, 127
20, 10692, Note_off_c, 15, 67, 64
20, 10692, Note_on_c, 15, 66, 127
20, 10752, Note_off_c, 15, 66, 64
20, 10752, Note_on_c, 15, 64, 127
20, 10872, Note_off_c, 15, 64, 64
20, 10872, Note_on_c, 15, 66, 127
20, 10932, Note_off_c, 15, 66, 64
20, 10932, Note_on_c, 15, 64, 127
20, 10992, Note_off_c, 15, 64, 64
20, 10992, Note_on_c, 15, 61, 127
20, 11112, Note_off_c, 15, 61, 64
20, 11112, Note_on_c, 15, 64, 127
20, 11232, Note_off_c, 15, 64, 64
20, 11232, Note_on_c, 15, 61, 127
20, 11352, Note_off_c, 15, 61, 64
20, 11352, Note_on_c, 15, 54, 127
20, 11472, Note_off_c, 15, 54, 64
20, 11472, Note_on_c, 15, 56, 127
20, 11592, Note_off_c, 15, 56, 64
20, 11592, Note_on_c, 15, 59, 127
20, 11712, Note_off_c, 15, 59, 64
20, 11712, Note_on_c, 15, 56, 127
20, 11832, Note_off_c, 15, 56, 64
20, 11832, Note_on_c, 15, 78, 127
20, 12072, Control_c, 15, 1, 80
20, 12912, Note_off_c, 15, 78, 64
20, 12912, Note_on_c, 15, 76, 127
20, 12912, Control_c, 15, 1, 0
20, 12972, Note_off_c, 15, 76, 64
20, 12972, Note_on_c, 15, 78, 127
20, 13032, Pitch_bend_c, 15, 8192
20, 13032, Note_off_c, 15, 78, 64
20, 13032, Note_on_c, 15, 76, 127
20, 13039, Pitch_bend_c, 15, 8188
20, 13046, Pitch_bend_c, 15, 8177
20, 13053, Pitch_bend_c, 15, 8159
20, 13060, Pitch_bend_c, 15, 8134
20, 13067, Pitch_bend_c, 15, 8102
20, 13074, Pitch_bend_c, 15, 8063
20, 13081, Pitch_bend_c, 15, 8017
20, 13088, Pitch_bend_c, 15, 7965
20, 13095, Pitch_bend_c, 15, 7905
20, 13102, Pitch_bend_c, 15, 7838
20, 13109, Pitch_bend_c, 15, 7764
20, 13116, Pitch_bend_c, 15, 7684
20, 13123, Pitch_bend_c, 15, 7596
20, 13130, Pitch_bend_c, 15, 7502
20, 13137, Pitch_bend_c, 15, 7400
20, 13144, Pitch_bend_c, 15, 7292
20, 13151, Pitch_bend_c, 15, 7176
20, 13158, Pitch_bend_c, 15, 7054
20, 13165, Pitch_bend_c, 15, 6924
20, 13172, Pitch_bend_c, 15, 6788
20, 13179, Pitch_bend_c, 15, 6644
20, 13186, Pitch_bend_c, 15, 6494
20, 13193, Pitch_bend_c, 15, 6337
20, 13200, Pitch_bend_c, 15, 6173
20, 13207, Pitch_bend_c, 15, 6001
20, 13214, Pitch_bend_c, 15, 5823
20, 13221, Pitch_bend_c, 15, 5638
20, 13228, Pitch_bend_c, 15, 5446
20, 13235, Pitch_bend_c, 15, 5247
20, 13242, Pitch_bend_c, 15, 5041
20, 13249, Pitch_bend_c, 15, 4828
20, 13256, Pitch_bend_c, 15, 4608
20, 13263, Pitch_bend_c, 15, 4381
20, 13270, Pitch_bend_c, 15, 4147
20, 13272, Note_off_c, 15, 76, 64
20, 13272, Note_on_c, 15, 71, 127
20, 13272, Pitch_bend_c, 15, 8192
20, 13392, Note_off_c, 15, 71, 64
20, 13392, Note_on_c, 15, 68, 127
20, 13452, Note_off_c, 15, 68, 64
20, 13452, Note_on_c, 15, 71, 127
20, 13512, Note_off_c, 15, 71, 64
20, 13512, Note_on_c, 15, 73, 127
20, 13992, Pitch_bend_c, 15, 8192
20, 13992, Note_off_c, 15, 73, 64
20, 13992, Note_on_c, 15, 71, 127
20, 13999, Pitch_bend_c, 15, 8319
20, 14006, Pitch_bend_c, 15, 8669
20, 14013, Pitch_bend_c, 15, 9243
20, 14020, Pitch_bend_c, 15, 10039
20, 14027, Pitch_bend_c, 15, 11058
20, 14034, Pitch_bend_c, 15, 12301
20, 14041, Pitch_bend_c, 15, 13766
20, 14048, Pitch_bend_c, 15, 15454
20, 14052, Pitch_bend_c, 15, 16383
20, 14112, Pitch_bend_c, 15, 8192
20, 14232, Note_off_c, 15, 71, 64
20, 14232, Note_on_c, 15, 68, 127
20, 14352, Pitch_bend_c, 15, 3328
20, 14352, Note_off_c, 15, 68, 64
20, 14352, Note_on_c, 15, 68, 127
20, 14359, Pitch_bend_c, 15, 3346
20, 14366, Pitch_bend_c, 15, 3398
20, 14373, Pitch_bend_c, 15, 3484
20, 14380, Pitch_bend_c, 15, 3602
20, 14387, Pitch_bend_c, 15, 3753
20, 14394, Pitch_bend_c, 15, 3938
20, 14401, Pitch_bend_c, 15, 4155
20, 14408, Pitch_bend_c, 15, 4406
20, 14415, Pitch_bend_c, 15, 4689
20, 14422, Pitch_bend_c, 15, 5006
20, 14429, Pitch_bend_c, 15, 5356
20, 14436, Pitch_bend_c, 15, 5739
20, 14443, Pitch_bend_c, 15, 6155
20, 14450, Pitch_bend_c, 15, 6605
20, 14457, Pitch_bend_c, 15, 7087
20, 14464, Pitch_bend_c, 15, 7602
20, 14471, Pitch_bend_c, 15, 8151
20, 14472, Note_off_c, 15, 68, 64
20, 14472, Note_on_c, 15, 67, 127
20, 14472, Pitch_bend_c, 15, 8192
20, 14532, Note_off_c, 15, 67, 64
20, 14532, Note_on_c, 15, 64, 127
20, 14592, Note_off_c, 15, 64, 64
20, 14592, Note_on_c, 15, 61, 127
20, 14712, Note_off_c, 15, 61, 64
20, 14712, Note_on_c, 15, 64, 127
20, 14832, Note_off_c, 15, 64, 64
20, 14832, Note_on_c, 15, 61, 127
20, 14952, Note_off_c, 15, 61, 64
20, 14952, Note_on_c, 15, 54, 127
20, 15072, Note_off_c, 15, 54, 64
20, 15072, Note_on_c, 15, 56, 127
20, 15192, Note_off_c, 15, 56, 64
20, 15192, Note_on_c, 15, 59, 127
20, 15312, Note_off_c, 15, 59, 64
20, 15312, Note_on_c, 15, 61, 127
20, 15432, Note_off_c, 15, 61, 64
20, 15432, Note_on_c, 15, 64, 127
20, 15552, Note_off_c, 15, 64, 64
20, 15552, Note_on_c, 15, 61, 127
20, 15672, Pitch_bend_c, 15, 2816
20, 15672, Note_off_c, 15, 61, 64
20, 15672, Note_on_c, 15, 68, 127
20, 15679, Pitch_bend_c, 15, 2836
20, 15686, Pitch_bend_c, 15, 2894
20, 15693, Pitch_bend_c, 15, 2988
20, 15700, Pitch_bend_c, 15, 3119
20, 15707, Pitch_bend_c, 15, 3286
20, 15714, Pitch_bend_c, 15, 3490
20, 15721, Pitch_bend_c, 15, 3730
20, 15728, Pitch_bend_c, 15, 4007
20, 15735, Pitch_bend_c, 15, 4321
20, 15742, Pitch_bend_c, 15, 4671
20, 15749, Pitch_bend_c, 15, 5058
20, 15756, Pitch_bend_c, 15, 5481
20, 15763, Pitch_bend_c, 15, 5941
20, 15770, Pitch_bend_c, 15, 6438
20, 15777, Pitch_bend_c, 15, 6971
20, 15784, Pitch_bend_c, 15, 7540
20, 15791, Pitch_bend_c, 15, 8147
20, 15792, Pitch_bend_c, 15, 8192
20, 16272, Note_off_c, 15, 68, 64
20, 16272, Note_on_c, 15, 68, 127
20, 16272, Pitch_bend_c, 15, 0
20, 16332, Pitch_bend_c, 15, 8192
20, 16392, Note_off_c, 15, 68, 64
20, 16392, Note_on_c, 15, 66, 127
20, 16752, Pitch_bend_c, 15, 0
20, 16752, Note_off_c, 15, 66, 64
20, 16752, Note_on_c, 15, 66, 127
20, 16812, Pitch_bend_c, 15, 8192
20, 16872, Note_off_c, 15, 66, 64
20, 16872, Note_on_c, 15, 64, 127
20, 17232, Pitch_bend_c, 15, 4096
20, 17232, Note_off_c, 15, 64, 64
20, 17232, Note_on_c, 15, 64, 127
20, 17292, Pitch_bend_c, 15, 8192
20, 17352, Note_off_c, 15, 64, 64
20, 17352, Note_on_c, 15, 63, 127
20, 17592, Pitch_bend_c, 15, 2560
20, 17592, Note_off_c, 15, 63, 64
20, 17592, Note_on_c, 15, 61, 127
20, 17599, Pitch_bend_c, 15, 2581
20, 17606, Pitch_bend_c, 15, 2642
20, 17613, Pitch_bend_c, 15, 2740
20, 17620, Pitch_bend_c, 15, 2877
20, 17627, Pitch_bend_c, 15, 3052
20, 17634, Pitch_bend_c, 15, 3266
20, 17641, Pitch_bend_c, 15, 3518
20, 17648, Pitch_bend_c, 15, 3808
20, 17655, Pitch_bend_c, 15, 4136
20, 17662, Pitch_bend_c, 15, 4503
20, 17669, Pitch_bend_c, 15, 4909
20, 17676, Pitch_bend_c, 15, 5352
20, 17683, Pitch_bend_c, 15, 5834
20, 17690, Pitch_bend_c, 15, 6354
20, 17697, Pitch_bend_c, 15, 6913
20, 17704, Pitch_bend_c, 15, 7509
20, 17711, Pitch_bend_c, 15, 8145
20, 17712, Pitch_bend_c, 15, 8192
20, 18072, Note_off_c, 15, 61, 64
20, 18072, Note_on_c, 15, 56, 127
20, 18072, Pitch_bend_c, 15, 0
20, 18192, Pitch_bend_c, 15, 8192
20, 18312, Note_off_c, 15, 56, 64
20, 18312, Note_on_c, 15, 61, 127
20, 18312, Pitch_bend_c, 15, 0
20, 18432, Pitch_bend_c, 15, 8192
20, 18552, Note_off_c, 15, 61, 64
20, 18552, Note_on_c, 15, 66, 127
20, 18552, Pitch_bend_c, 15, 0
20, 18672, Pitch_bend_c, 15, 8192
20, 18792, Note_off_c, 15, 66, 64
20, 18792, Note_on_c, 15, 66, 127
20, 18792, Pitch_bend_c, 15, 2304
20, 18799, Pitch_bend_c, 15, 2326
20, 18806, Pitch_bend_c, 15, 2389
20, 18813, Pitch_bend_c, 15, 2492
20, 18820, Pitch_bend_c, 15, 2636
20, 18827, Pitch_bend_c, 15, 2819
20, 18834, Pitch_bend_c, 15, 3042
20, 18841, Pitch_bend_c, 15, 3305
20, 18848, Pitch_bend_c, 15, 3609
20, 18855, Pitch_bend_c, 15, 3952
20, 18862, Pitch_bend_c, 15, 4336
20, 18869, Pitch_bend_c, 15, 4759
20, 18876, Pitch_bend_c, 15, 5223
20, 18883, Pitch_bend_c, 15, 5727
20, 18890, Pitch_bend_c, 15, 6271
20, 18897, Pitch_bend_c, 15, 6854
20, 18904, Pitch_bend_c, 15, 7478
20, 18911, Pitch_bend_c, 15, 8142
20, 18912, Pitch_bend_c, 15, 8192
20, 19152, Note_off_c, 15, 66, 64
20, 19152, Note_on_c, 15, 64, 127
20, 19272, Note_off_c, 15, 64, 64
20, 19272, Note_on_c, 15, 63, 127
20, 19392, Note_off_c, 15, 63, 64
20, 19392, Note_on_c, 15, 59, 127
20, 19512, Pitch_bend_c, 15, 0
20, 19512, Note_off_c, 15, 59, 64
20, 19512, Note_on_c, 15, 61, 127
20, 19519, Pitch_bend_c, 15, 127
20, 19526, Pitch_bend_c, 15, 477
20, 19533, Pitch_bend_c, 15, 1051
20, 19540, Pitch_bend_c, 15, 1847
20, 19547, Pitch_bend_c, 15, 2867
20, 19554, Pitch_bend_c, 15, 4109
20, 19561, Pitch_bend_c, 15, 5575
20, 19568, Pitch_bend_c, 15, 7263
20, 19572, Pitch_bend_c, 15, 8192
20, 19731, Control_c, 15, 1, 80
20, 21672, Note_off_c, 15, 61, 64
20, 95952, Note_on_c, 15, 57, 127
20, 95952, Control_c, 15, 1, 0
20, 95952, Pitch_bend_c, 15, 0
20, 95959, Pitch_bend_c, 15, 63
20, 95966, Pitch_bend_c, 15, 238
20, 95973, Pitch_bend_c, 15, 525
20, 95980, Pitch_bend_c, 15, 923
20, 95987, Pitch_bend_c, 15, 1433
20, 95994, Pitch_bend_c, 15, 2054
20, 96001, Pitch_bend_c, 15, 2787
20, 96008, Pitch_bend_c, 15, 3631
20, 96015, Pitch_bend_c, 15, 4587
20, 96022, Pitch_bend_c, 15, 5654
20, 96029, Pitch_bend_c, 15, 6833
20, 96036, Pitch_bend_c, 15, 8123
20, 96043, Pitch_bend_c, 15, 9524
20, 96050, Pitch_bend_c, 15, 11037
20, 96057, Pitch_bend_c, 15, 12662
20, 96064, Pitch_bend_c, 15, 14398
20, 96071, Pitch_bend_c, 15, 16246
20, 96072, Note_off_c, 15, 57, 64
20, 96072, Note_on_c, 15, 59, 127
20, 96072, Pitch_bend_c, 15, 8192
20, 96162, Note_off_c, 15, 59, 64
20, 96192, Note_on_c, 15, 59, 127
20, 96312, Pitch_bend_c, 15, 8192
20, 96312, Note_off_c, 15, 59, 64
20, 96312, Note_on_c, 15, 55, 127
20, 96319, Pitch_bend_c, 15, 8446
20, 96326, Pitch_bend_c, 15, 9147
20, 96333, Pitch_bend_c, 15, 10294
20, 96340, Pitch_bend_c, 15, 11887
20, 96342, Pitch_bend_c, 15, 12288
20, 96402, Pitch_bend_c, 15, 12288
20, 96409, Pitch_bend_c, 15, 12224
20, 96416, Pitch_bend_c, 15, 12049
20, 96423, Pitch_bend_c, 15, 11762
20, 96430, Pitch_bend_c, 15, 11364
20, 96437, Pitch_bend_c, 15, 10854
20, 96444, Pitch_bend_c, 15, 10233
20, 96451, Pitch_bend_c, 15, 9500
20, 96458, Pitch_bend_c, 15, 8656
20, 96462, Pitch_bend_c, 15, 8192
20, 96552, Note_off_c, 15, 55, 64
20, 96552, Note_on_c, 15, 54, 127
20, 96792, Control_c, 15, 1, 80
20, 97152, Note_off_c, 15, 54, 64
20, 97152, Note_on_c, 15, 52, 127
20, 97152, Control_c, 15, 1, 0
20, 97272, Note_off_c, 15, 52, 64
20, 97272, Note_on_c, 15, 54, 127
20, 97392, Note_off_c, 15, 54, 64
20, 97392, Note_on_c, 15, 56, 127
20, 97512, Note_off_c, 15, 56, 64
20, 97512, Note_on_c, 15, 59, 127
20, 97662, Note_off_c, 15, 59, 64
20, 97752, Note_on_c, 15, 59, 127
20, 97872, Note_off_c, 15, 59, 64
20, 97872, Note_on_c, 15, 61, 127
20, 97992, Note_off_c, 15, 61, 64
20, 97992, Note_on_c, 15, 64, 127
20, 98112, Note_off_c, 15, 64, 64
20, 98112, Note_on_c, 15, 66, 127
20, 98232, Note_off_c, 15, 66, 64
20, 98232, Note_on_c, 15, 64, 127
20, 98352, Note_off_c, 15, 64, 64
20, 98352, Note_on_c, 15, 66, 127
20, 98472, Pitch_bend_c, 15, 0
20, 98472, Note_off_c, 15, 66, 64
20, 98472, Note_on_c, 15, 68, 127
20, 98479, Pitch_bend_c, 15, 537
20, 98487, Pitch_bend_c, 15, 1151
20, 98494, Pitch_bend_c, 15, 1689
20, 98502, Pitch_bend_c, 15, 2303
20, 98509, Pitch_bend_c, 15, 2841
20, 98517, Pitch_bend_c, 15, 3455
20, 98524, Pitch_bend_c, 15, 3993
20, 98531, Pitch_bend_c, 15, 4608
20, 98532, Pitch_bend_c, 15, 4608
20, 98539, Pitch_bend_c, 15, 4742
20, 98546, Pitch_bend_c, 15, 4876
20, 98553, Pitch_bend_c, 15, 5011
20, 98560, Pitch_bend_c, 15, 5145
20, 98567, Pitch_bend_c, 15, 5279
20, 98574, Pitch_bend_c, 15, 5414
20, 98581, Pitch_bend_c, 15, 5548
20, 98588, Pitch_bend_c, 15, 5683
20, 98595, Pitch_bend_c, 15, 5817
20, 98602, Pitch_bend_c, 15, 5951
20, 98609, Pitch_bend_c, 15, 6086
20, 98616, Pitch_bend_c, 15, 6220
20, 98623, Pitch_bend_c, 15, 6355
20, 98630, Pitch_bend_c, 15, 6489
20, 98637, Pitch_bend_c, 15, 6623
20, 98644, Pitch_bend_c, 15, 6758
20, 98651, Pitch_bend_c, 15, 6912
20, 98652, Pitch_bend_c, 15, 6912
20, 98659, Pitch_bend_c, 15, 6961
20, 98666, Pitch_bend_c, 15, 7011
20, 98673, Pitch_bend_c, 15, 7061
20, 98680, Pitch_bend_c, 15, 7111
20, 98688, Pitch_bend_c, 15, 7167
20, 98695, Pitch_bend_c, 15, 7217
20, 98702, Pitch_bend_c, 15, 7267
20, 98709, Pitch_bend_c, 15, 7317
20, 98716, Pitch_bend_c, 15, 7367
20, 98724, Pitch_bend_c, 15, 7423
20, 98731, Pitch_bend_c, 15, 7473
20, 98738, Pitch_bend_c, 15, 7523
20, 98745, Pitch_bend_c, 15, 7573
20, 98752, Pitch_bend_c, 15, 7622
20, 98760, Pitch_bend_c, 15, 7679
20, 98767, Pitch_bend_c, 15, 7729
20, 98774, Pitch_bend_c, 15, 7779
20, 98781, Pitch_bend_c, 15, 7829
20, 98788, Pitch_bend_c, 15, 7878
20, 98796, Pitch_bend_c, 15, 7935
20, 98803, Pitch_bend_c, 15, 7985
20, 98810, Pitch_bend_c, 15, 8035
20, 98817, Pitch_bend_c, 15, 8085
20, 98824, Pitch_bend_c, 15, 8134
20, 98831, Pitch_bend_c, 15, 8192
20, 99192, Control_c, 15, 1, 100
20, 99792, Note_off_c, 15, 68, 64
20, 99792, Note_on_c, 15, 64, 127
20, 99792, Control_c, 15, 1, 0
20, 99912, Note_off_c, 15, 64, 64
20, 99912, Note_on_c, 15, 71, 127
20, 100032, Note_off_c, 15, 71, 64
20, 100032, Note_on_c, 15, 66, 127
20, 100152, Pitch_bend_c, 15, 8192
20, 100152, Note_off_c, 15, 66, 64
20, 100152, Note_on_c, 15, 66, 127
20, 100152, Control_c, 15, 1, 20
20, 100159, Pitch_bend_c, 15, 8214
20, 100166, Pitch_bend_c, 15, 8277
20, 100173, Pitch_bend_c, 15, 8380
20, 100180, Pitch_bend_c, 15, 8524
20, 100187, Pitch_bend_c, 15, 8707
20, 100194, Pitch_bend_c, 15, 8930
20, 100201, Pitch_bend_c, 15, 9193
20, 100208, Pitch_bend_c, 15, 9497
20, 100215, Pitch_bend_c, 15, 9840
20, 100222, Pitch_bend_c, 15, 10224
20, 100229, Pitch_bend_c, 15, 10647
20, 100236, Pitch_bend_c, 15, 11111
20, 100243, Pitch_bend_c, 15, 11615
20, 100250, Pitch_bend_c, 15, 12159
20, 100257, Pitch_bend_c, 15, 12742
20, 100264, Pitch_bend_c, 15, 13366
20, 100271, Pitch_bend_c, 15, 14030
20, 100272, Pitch_bend_c, 15, 14080
20, 100392, Pitch_bend_c, 15, 14080
20, 100399, Pitch_bend_c, 15, 14076
20, 100406, Pitch_bend_c, 15, 14065
20, 100413, Pitch_bend_c, 15, 14047
20, 100420, Pitch_bend_c, 15, 14022
20, 100427, Pitch_bend_c, 15, 13990
20, 100434, Pitch_bend_c, 15, 13951
20, 100441, Pitch_bend_c, 15, 13905
20, 100448, Pitch_bend_c, 15, 13853
20, 100455, Pitch_bend_c, 15, 13793
20, 100462, Pitch_bend_c, 15, 13726
20, 100469, Pitch_bend_c, 15, 13652
20, 100476, Pitch_bend_c, 15, 13572
20, 100483, Pitch_bend_c, 15, 13484
20, 100490, Pitch_bend_c, 15, 13390
20, 100497, Pitch_bend_c, 15, 13288
20, 100504, Pitch_bend_c, 15, 13180
20, 100511, Pitch_bend_c, 15, 13064
20, 100518, Pitch_bend_c, 15, 12942
20, 100525, Pitch_bend_c, 15, 12812
20, 100532, Pitch_bend_c, 15, 12676
20, 100539, Pitch_bend_c, 15, 12532
20, 100546, Pitch_bend_c, 15, 12382
20, 100553, Pitch_bend_c, 15, 12225
20, 100560, Pitch_bend_c, 15, 12061
20, 100567, Pitch_bend_c, 15, 11889
20, 100574, Pitch_bend_c, 15, 11711
20, 100581, Pitch_bend_c, 15, 11526
20, 100588, Pitch_bend_c, 15, 11334
20, 100595, Pitch_bend_c, 15, 11135
20, 100602, Pitch_bend_c, 15, 10929
20, 100609, Pitch_bend_c, 15, 10716
20, 100616, Pitch_bend_c, 15, 10496
20, 100623, Pitch_bend_c, 15, 10269
20, 100630, Pitch_bend_c, 15, 10035
20, 100632, Note_off_c, 15, 66, 64
20, 100632, Note_on_c, 15, 66, 127
20, 100632, Control_c, 15, 1, 0
20, 100632, Pitch_bend_c, 15, 8192
20, 100712, Note_on_c, 15, 64, 127
20, 100716, Note_off_c, 15, 66, 64
20, 100792, Note_on_c, 15, 66, 127
20, 100793, Note_off_c, 15, 64, 64
20, 100871, Note_off_c, 15, 66, 64
20, 100872, Pitch_bend_c, 15, 12288
20, 100872, Note_on_c, 15, 63, 127
20, 100992, Pitch_bend_c, 15, 8192
20, 101112, Note_off_c, 15, 63, 64
20, 101112, Note_on_c, 15, 59, 127
20, 101232, Note_off_c, 15, 59, 64
20, 101232, Note_on_c, 15, 61, 127
20, 101592, Note_off_c, 15, 61, 64
20, 101592, Note_on_c, 15, 64, 127
20, 101712, Note_off_c, 15, 64, 64
20, 101712, Note_on_c, 15, 66, 127
20, 101832, Note_off_c, 15, 66, 64
20, 101832, Note_on_c, 15, 64, 127
20, 102072, Pitch_bend_c, 15, 0
20, 102072, Note_off_c, 15, 64, 64
20, 102072, Note_on_c, 15, 76, 127
20, 102079, Pitch_bend_c, 15, 31
20, 102086, Pitch_bend_c, 15, 119
20, 102093, Pitch_bend_c, 15, 262
20, 102100, Pitch_bend_c, 15, 461
20, 102107, Pitch_bend_c, 15, 716
20, 102114, Pitch_bend_c, 15, 1027
20, 102121, Pitch_bend_c, 15, 1393
20, 102128, Pitch_bend_c, 15, 1815
20, 102135, Pitch_bend_c, 15, 2293
20, 102142, Pitch_bend_c, 15, 2827
20, 102149, Pitch_bend_c, 15, 3416
20, 102156, Pitch_bend_c, 15, 4061
20, 102163, Pitch_bend_c, 15, 4762
20, 102170, Pitch_bend_c, 15, 5519
20, 102177, Pitch_bend_c, 15, 6331
20, 102184, Pitch_bend_c, 15, 7199
20, 102191, Pitch_bend_c, 15, 8123
20, 102192, Pitch_bend_c, 15, 8192
20, 102362, Control_c, 15, 1, 80
20, 103032, Note_off_c, 15, 76, 64
20, 103032, Note_on_c, 15, 75, 127
20, 103032, Control_c, 15, 1, 0
20, 103152, Note_off_c, 15, 75, 64
20, 103152, Note_on_c, 15, 76, 127
20, 103272, Note_off_c, 15, 76, 64
20, 103272, Note_on_c, 15, 75, 127
20, 103392, Note_off_c, 15, 75, 64
20, 103392, Note_on_c, 15, 73, 127
20, 103512, Pitch_bend_c, 15, 0
20, 103512, Note_off_c, 15, 73, 64
20, 103512, Note_on_c, 15, 73, 127
20, 103519, Pitch_bend_c, 15, 31
20, 103526, Pitch_bend_c, 15, 119
20, 103533, Pitch_bend_c, 15, 262
20, 103540, Pitch_bend_c, 15, 461
20, 103547, Pitch_bend_c, 15, 716
20, 103554, Pitch_bend_c, 15, 1027
20, 103561, Pitch_bend_c, 15, 1393
20, 103568, Pitch_bend_c, 15, 1815
20, 103575, Pitch_bend_c, 15, 2293
20, 103582, Pitch_bend_c, 15, 2827
20, 103589, Pitch_bend_c, 15, 3416
20, 103596, Pitch_bend_c, 15, 4061
20, 103603, Pitch_bend_c, 15, 4762
20, 103610, Pitch_bend_c, 15, 5519
20, 103617, Pitch_bend_c, 15, 6331
20, 103624, Pitch_bend_c, 15, 7199
20, 103631, Pitch_bend_c, 15, 8123
20, 103632, Pitch_bend_c, 15, 8192
20, 103992, Note_off_c, 15, 73, 64
20, 103992, Note_on_c, 15, 69, 127
20, 104072, Note_off_c, 15, 69, 64
20, 104072, Note_on_c, 15, 68, 127
20, 104152, Note_off_c, 15, 68, 64
20, 104152, Note_on_c, 15, 71, 127
20, 104232, Pitch_bend_c, 15, 3072
20, 104232, Note_off_c, 15, 71, 64
20, 104232, Note_on_c, 15, 73, 127
20, 104239, Pitch_bend_c, 15, 3116
20, 104246, Pitch_bend_c, 15, 3239
20, 104253, Pitch_bend_c, 15, 3441
20, 104260, Pitch_bend_c, 15, 3721
20, 104267, Pitch_bend_c, 15, 4079
20, 104274, Pitch_bend_c, 15, 4516
20, 104281, Pitch_bend_c, 15, 5031
20, 104288, Pitch_bend_c, 15, 5625
20, 104295, Pitch_bend_c, 15, 6297
20, 104302, Pitch_bend_c, 15, 7047
20, 104309, Pitch_bend_c, 15, 7876
20, 104312, Pitch_bend_c, 15, 8192
20, 104392, Note_off_c, 15, 73, 64
20, 104392, Note_on_c, 15, 71, 127
20, 104472, Note_off_c, 15, 71, 64
20, 104472, Note_on_c, 15, 68, 127
20, 104552, Note_off_c, 15, 68, 64
20, 104552, Note_on_c, 15, 71, 127
20, 104632, Note_off_c, 15, 71, 64
20, 104632, Note_on_c, 15, 68, 127
20, 104712, Note_off_c, 15, 68, 64
20, 104712, Note_on_c, 15, 71, 127
20, 104772, Note_off_c, 15, 71, 64
20, 104772, Note_on_c, 15, 68, 127
20, 104820, Note_off_c, 15, 68, 64
20, 104820, Note_on_c, 15, 71, 127
20, 104868, Note_off_c, 15, 71, 64
20, 104868, Note_on_c, 15, 68, 127
20, 104920, Note_on_c, 15, 71, 127
20, 104928, Note_off_c, 15, 68, 64
20, 104976, Note_on_c, 15, 68, 127
20, 104980, Note_off_c, 15, 71, 64
20, 105028, Note_on_c, 15, 71, 127
20, 105036, Note_off_c, 15, 68, 64
20, 105076, Note_on_c, 15, 68, 127
20, 105084, Note_off_c, 15, 71, 64
20, 105128, Note_on_c, 15, 71, 127
20, 105132, Note_off_c, 15, 68, 64
20, 105176, Note_on_c, 15, 68, 127
20, 105180, Note_off_c, 15, 71, 64
20, 105216, Note_off_c, 15, 68, 64
20, 105216, Note_on_c, 15, 71, 127
20, 105260, Note_on_c, 15, 68, 127
20, 105272, Note_off_c, 15, 71, 64
20, 105312, Note_on_c, 15, 71, 127
20, 105320, Note_off_c, 15, 68, 64
20, 105356, Note_off_c, 15, 71, 64
20, 105360, Note_on_c, 15, 68, 127
20, 105412, Note_on_c, 15, 71, 127
20, 105420, Note_off_c, 15, 68, 64
20, 105456, Note_off_c, 15, 71, 64
20, 105456, Note_on_c, 15, 68, 127
20, 105496, Note_off_c, 15, 68, 64
20, 105500, Note_on_c, 15, 71, 127
20, 105552, Note_on_c, 15, 68, 127
20, 105556, Note_off_c, 15, 71, 64
20, 105604, Note_on_c, 15, 71, 127
20, 105608, Note_off_c, 15, 68, 64
20, 105660, Note_on_c, 15, 68, 127
20, 105664, Note_off_c, 15, 71, 64
20, 105716, Note_off_c, 15, 68, 64
20, 105720, Note_on_c, 15, 71, 127
20, 105772, Note_off_c, 15, 71, 64
20, 105776, Note_on_c, 15, 68, 127
20, 105824, Note_off_c, 15, 68, 64
20, 105824, Note_on_c, 15, 71, 127
20, 105864, Note_off_c, 15, 71, 64
20, 105868, Note_on_c, 15, 68, 127
20, 105904, Note_on_c, 15, 71, 127
20, 105908, Note_off_c, 15, 68, 64
20, 105944, Note_off_c, 15, 71, 64
20, 105948, Pitch_bend_c, 15, 768
20, 105948, Note_on_c, 15, 68, 127
20, 105955, Pitch_bend_c, 15, 1088
20, 105962, Pitch_bend_c, 15, 1970
20, 105969, Pitch_bend_c, 15, 3414
20, 105976, Pitch_bend_c, 15, 5419
20, 105983, Pitch_bend_c, 15, 7985
20, 105984, Pitch_bend_c, 15, 8192
20, 106028, Note_off_c, 15, 68, 64
20, 106032, Note_on_c, 15, 68, 127
20, 106032, Pitch_bend_c, 15, 3328
20, 106039, Pitch_bend_c, 15, 3346
20, 106046, Pitch_bend_c, 15, 3398
20, 106053, Pitch_bend_c, 15, 3484
20, 106060, Pitch_bend_c, 15, 3602
20, 106067, Pitch_bend_c, 15, 3753
20, 106074, Pitch_bend_c, 15, 3938
20, 106081, Pitch_bend_c, 15, 4155
20, 106088, Pitch_bend_c, 15, 4406
20, 106095, Pitch_bend_c, 15, 4689
20, 106102, Pitch_bend_c, 15, 5006
20, 106109, Pitch_bend_c, 15, 5356
20, 106116, Pitch_bend_c, 15, 5739
20, 106123, Pitch_bend_c, 15, 6155
20, 106130, Pitch_bend_c, 15, 6605
20, 106137, Pitch_bend_c, 15, 7087
20, 106144, Pitch_bend_c, 15, 7602
20, 106151, Pitch_bend_c, 15, 8151
20, 106152, Pitch_bend_c, 15, 8192
20, 106452, Pitch_bend_c, 15, 8192
20, 106459, Pitch_bend_c, 15, 8177
20, 106466, Pitch_bend_c, 15, 8138
20, 106473, Pitch_bend_c, 15, 8075
20, 106480, Pitch_bend_c, 15, 7986
20, 106487, Pitch_bend_c, 15, 7873
20, 106494, Pitch_bend_c, 15, 7735
20, 106501, Pitch_bend_c, 15, 7572
20, 106508, Pitch_bend_c, 15, 7384
20, 106515, Pitch_bend_c, 15, 7172
20, 106522, Pitch_bend_c, 15, 6935
20, 106529, Pitch_bend_c, 15, 6673
20, 106536, Pitch_bend_c, 15, 6386
20, 106543, Pitch_bend_c, 15, 6075
20, 106550, Pitch_bend_c, 15, 5738
20, 106557, Pitch_bend_c, 15, 5377
20, 106564, Pitch_bend_c, 15, 4992
20, 106571, Pitch_bend_c, 15, 4581
20, 106578, Pitch_bend_c, 15, 4146
20, 106585, Pitch_bend_c, 15, 3685
20, 106592, Pitch_bend_c, 15, 3200
20, 106599, Pitch_bend_c, 15, 2691
20, 106606, Pitch_bend_c, 15, 2156
20, 106613, Pitch_bend_c, 15, 1597
20, 106620, Pitch_bend_c, 15, 1013
20, 106627, Pitch_bend_c, 15, 404
20, 106632, Note_off_c, 15, 68, 64
20, 106632, Note_on_c, 15, 64, 127
20, 106632, Pitch_bend_c, 15, 8192
20, 106752, Note_off_c, 15, 64, 64
20, 106752, Note_on_c, 15, 61, 127
20, 106872, Note_off_c, 15, 61, 64
20, 106872, Note_on_c, 15, 64, 127
20, 106992, Note_off_c, 15, 64, 64
20, 106992, Note_on_c, 15, 61, 127
20, 107052, Note_off_c, 15, 61, 64
20, 107112, Note_on_c, 15, 64, 127
20, 107352, Note_off_c, 15, 64, 64
20, 107352, Note_on_c, 15, 63, 127
20, 107712, Note_off_c, 15, 63, 64
20, 107712, Note_on_c, 15, 59, 127
20, 107832, Note_off_c, 15, 59, 64
20, 107832, Note_on_c, 15, 61, 127
20, 108072, Pitch_bend_c, 15, 3072
20, 108072, Note_off_c, 15, 61, 64
20, 108072, Note_on_c, 15, 61, 127
20, 108079, Pitch_bend_c, 15, 3151
20, 108086, Pitch_bend_c, 15, 3370
20, 108093, Pitch_bend_c, 15, 3729
20, 108100, Pitch_bend_c, 15, 4226
20, 108107, Pitch_bend_c, 15, 4863
20, 108114, Pitch_bend_c, 15, 5640
20, 108121, Pitch_bend_c, 15, 6556
20, 108128, Pitch_bend_c, 15, 7611
20, 108132, Pitch_bend_c, 15, 8192
20, 108232, Note_off_c, 15, 61, 64
20, 108232, Note_on_c, 15, 61, 127
20, 108232, Pitch_bend_c, 15, 2816
20, 108239, Pitch_bend_c, 15, 3004
20, 108246, Pitch_bend_c, 15, 3521
20, 108253, Pitch_bend_c, 15, 4368
20, 108260, Pitch_bend_c, 15, 5544
20, 108267, Pitch_bend_c, 15, 7049
20, 108272, Pitch_bend_c, 15, 8192
20, 108392, Note_off_c, 15, 61, 64
20, 108392, Note_on_c, 15, 61, 127
20, 108392, Pitch_bend_c, 15, 3072
20, 108399, Pitch_bend_c, 15, 3251
20, 108406, Pitch_bend_c, 15, 3743
20, 108413, Pitch_bend_c, 15, 4550
20, 108420, Pitch_bend_c, 15, 5670
20, 108427, Pitch_bend_c, 15, 7103
20, 108432, Pitch_bend_c, 15, 8192
20, 108552, Note_off_c, 15, 61, 64
20, 108552, Note_on_c, 15, 61, 127
20, 108552, Pitch_bend_c, 15, 2816
20, 108559, Pitch_bend_c, 15, 3150
20, 108566, Pitch_bend_c, 15, 4070
20, 108573, Pitch_bend_c, 15, 5575
20, 108580, Pitch_bend_c, 15, 7666
20, 108582, Pitch_bend_c, 15, 8192
20, 108672, Note_off_c, 15, 61, 64
20, 108672, Note_on_c, 15, 61, 127
20, 108672, Pitch_bend_c, 15, 2816
20, 108679, Pitch_bend_c, 15, 3150
20, 108686, Pitch_bend_c, 15, 4070
20, 108693, Pitch_bend_c, 15, 5575
20, 108700, Pitch_bend_c, 15, 7666
20, 108702, Pitch_bend_c, 15, 8192
20, 108732, Pitch_bend_c, 15, 8192
20, 108792, Note_off_c, 15, 61, 64
20, 108792, Note_on_c, 15, 61, 127
20, 108792, Pitch_bend_c, 15, 0
20, 108852, Pitch_bend_c, 15, 0
20, 108859, Pitch_bend_c, 15, 127
20, 108866, Pitch_bend_c, 15, 477
20, 108873, Pitch_bend_c, 15, 1051
20, 108880, Pitch_bend_c, 15, 1847
20, 108887, Pitch_bend_c, 15, 2867
20, 108894, Pitch_bend_c, 15, 4109
20, 108901, Pitch_bend_c, 15, 5575
20, 108908, Pitch_bend_c, 15, 7263
20, 108912, Pitch_bend_c, 15, 8192
20, 109032, Note_off_c, 15, 61, 64
20, 109032, Note_on_c, 15, 59, 127
20, 109272, Note_off_c, 15, 59, 64
20, 109272, Note_on_c, 15, 56, 127
20, 109392, Note_off_c, 15, 56, 64
20, 109392, Note_on_c, 15, 54, 127
20, 109512, Note_off_c, 15, 54, 64
20, 109512, Note_on_c, 15, 52, 127
20, 109632, Note_off_c, 15, 52, 64
20, 109632, Note_on_c, 15, 54, 127
20, 109752, Pitch_bend_c, 15, 0
20, 109752, Note_off_c, 15, 54, 64
20, 109752, Note_on_c, 15, 56, 127
20, 109759, Pitch_bend_c, 15, 31
20, 109766, Pitch_bend_c, 15, 119
20, 109773, Pitch_bend_c, 15, 262
20, 109780, Pitch_bend_c, 15, 461
20, 109787, Pitch_bend_c, 15, 716
20, 109794, Pitch_bend_c, 15, 1027
20, 109801, Pitch_bend_c, 15, 1393
20, 109808, Pitch_bend_c, 15, 1815
20, 109815, Pitch_bend_c, 15, 2293
20, 109822, Pitch_bend_c, 15, 2827
20, 109829, Pitch_bend_c, 15, 3416
20, 109836, Pitch_bend_c, 15, 4061
20, 109843, Pitch_bend_c, 15, 4762
20, 109850, Pitch_bend_c, 15, 5519
20, 109857, Pitch_bend_c, 15, 6331
20, 109864, Pitch_bend_c, 15, 7199
20, 109871, Pitch_bend_c, 15, 8123
20, 109872, Pitch_bend_c, 15, 8192
20, 110232, Note_off_c, 15, 56, 64
20, 110232, Note_on_c, 15, 59, 127
20, 110352, Note_off_c, 15, 59, 64
20, 110352, Note_on_c, 15, 61, 127
20, 110472, Note_off_c, 15, 61, 64
20, 110472, Note_on_c, 15, 64, 127
20, 110592, Note_off_c, 15, 64, 64
20, 110592, Note_on_c, 15, 66, 127
20, 110712, Pitch_bend_c, 15, 0
20, 110712, Note_off_c, 15, 66, 64
20, 110712, Note_on_c, 15, 68, 127
20, 110719, Pitch_bend_c, 15, 56
20, 110726, Pitch_bend_c, 15, 212
20, 110733, Pitch_bend_c, 15, 467
20, 110740, Pitch_bend_c, 15, 821
20, 110747, Pitch_bend_c, 15, 1274
20, 110754, Pitch_bend_c, 15, 1826
20, 110761, Pitch_bend_c, 15, 2477
20, 110768, Pitch_bend_c, 15, 3228
20, 110775, Pitch_bend_c, 15, 4077
20, 110782, Pitch_bend_c, 15, 5026
20, 110789, Pitch_bend_c, 15, 6074
20, 110796, Pitch_bend_c, 15, 7221
20, 110802, Pitch_bend_c, 15, 8192
20, 111192, Note_off_c, 15, 68, 64
20, 111192, Note_on_c, 15, 71, 127
20, 111312, Note_off_c, 15, 71, 64
20, 111312, Note_on_c, 15, 73, 127
20, 111432, Note_off_c, 15, 73, 64
20, 111432, Note_on_c, 15, 76, 127
20, 111552, Note_off_c, 15, 76, 64
20, 111552, Note_on_c, 15, 78, 127
20, 111672, Note_off_c, 15, 78, 64
20, 111672, Note_on_c, 15, 80, 127
20, 112392, Control_c, 15, 1, 80
20, 112392, Pitch_bend_c, 15, 8192
20, 112399, Pitch_bend_c, 15, 8190
20, 112406, Pitch_bend_c, 15, 8187
20, 112413, Pitch_bend_c, 15, 8182
20, 112420, Pitch_bend_c, 15, 8174
20, 112427, Pitch_bend_c, 15, 8165
20, 112434, Pitch_bend_c, 15, 8153
20, 112441, Pitch_bend_c, 15, 8139
20, 112448, Pitch_bend_c, 15, 8123
20, 112455, Pitch_bend_c, 15, 8105
20, 112462, Pitch_bend_c, 15, 8085
20, 112469, Pitch_bend_c, 15, 8063
20, 112476, Pitch_bend_c, 15, 8039
20, 112483, Pitch_bend_c, 15, 8013
20, 112490, Pitch_bend_c, 15, 7985
20, 112497, Pitch_bend_c, 15, 7954
20, 112504, Pitch_bend_c, 15, 7922
20, 112511, Pitch_bend_c, 15, 7887
20, 112518, Pitch_bend_c, 15, 7850
20, 112525, Pitch_bend_c, 15, 7811
20, 112532, Pitch_bend_c, 15, 7770
20, 112539, Pitch_bend_c, 15, 7727
20, 112546, Pitch_bend_c, 15, 7682
20, 112553, Pitch_bend_c, 15, 7635
20, 112560, Pitch_bend_c, 15, 7586
20, 112567, Pitch_bend_c, 15, 7534
20, 112574, Pitch_bend_c, 15, 7481
20, 112581, Pitch_bend_c, 15, 7425
20, 112588, Pitch_bend_c, 15, 7368
20, 112595, Pitch_bend_c, 15, 7308
20, 112602, Pitch_bend_c, 15, 7246
20, 112609, Pitch_bend_c, 15, 7182
20, 112616, Pitch_bend_c, 15, 7116
20, 112623, Pitch_bend_c, 15, 7048
20, 112630, Pitch_bend_c, 15, 6978
20, 112637, Pitch_bend_c, 15, 6906
20, 112644, Pitch_bend_c, 15, 6831
20, 112651, Pitch_bend_c, 15, 6755
20, 112658, Pitch_bend_c, 15, 6676
20, 112665, Pitch_bend_c, 15, 6596
20, 112672, Pitch_bend_c, 15, 6513
20, 112679, Pitch_bend_c, 15, 6428
20, 112686, Pitch_bend_c, 15, 6341
20, 112693, Pitch_bend_c, 15, 6252
20, 112700, Pitch_bend_c, 15, 6161
20, 112707, Pitch_bend_c, 15, 6068
20, 112714, Pitch_bend_c, 15, 5973
20, 112721, Pitch_bend_c, 15, 5876
20, 112728, Pitch_bend_c, 15, 5776
20, 112735, Pitch_bend_c, 15, 5675
20, 112742, Pitch_bend_c, 15, 5571
20, 112749, Pitch_bend_c, 15, 5465
20, 112756, Pitch_bend_c, 15, 5357
20, 112763, Pitch_bend_c, 15, 5247
20, 112770, Pitch_bend_c, 15, 5135
20, 112777, Pitch_bend_c, 15, 5021
20, 112784, Pitch_bend_c, 15, 4905
20, 112791, Pitch_bend_c, 15, 4787
20, 112798, Pitch_bend_c, 15, 4667
20, 112805, Pitch_bend_c, 15, 4544
20, 112812, Pitch_bend_c, 15, 4420
20, 112819, Pitch_bend_c, 15, 4293
20, 112826, Pitch_bend_c, 15, 4164
20, 112833, Pitch_bend_c, 15, 4033
20, 112840, Pitch_bend_c, 15, 3901
20, 112847, Pitch_bend_c, 15, 3766
20, 112854, Pitch_bend_c, 15, 3629
20, 112861, Pitch_bend_c, 15, 3489
20, 112868, Pitch_bend_c, 15, 3348
20, 112875, Pitch_bend_c, 15, 3205
20, 112882, Pitch_bend_c, 15, 3059
20, 112889, Pitch_bend_c, 15, 2912
20, 112896, Pitch_bend_c, 15, 2762
20, 112903, Pitch_bend_c, 15, 2610
20, 112910, Pitch_bend_c, 15, 2457
20, 112917, Pitch_bend_c, 15, 2301
20, 112924, Pitch_bend_c, 15, 2143
20, 112931, Pitch_bend_c, 15, 1983
20, 112938, Pitch_bend_c, 15, 1821
20, 112945, Pitch_bend_c, 15, 1656
20, 112952, Pitch_bend_c, 15, 1490
20, 112959, Pitch_bend_c, 15, 1321
20, 112966, Pitch_bend_c, 15, 1151
20, 112973, Pitch_bend_c, 15, 978
20, 112980, Pitch_bend_c, 15, 804
20, 112987, Pitch_bend_c, 15, 627
20, 112992, Note_off_c, 15, 80, 64
20, 112992, Pitch_bend_c, 15, 512
20, 113112, Pitch_bend_c, 15, 8192
20, 146400, End_track
21, 0, Start_track
21, 0, Instrument_name_t, "SB AWE32 MIDI Synth [62"
21, 0, Title_t, "Choosey Lover"
21, 20880, Note_on_c, 12, 66, 79
21, 20880, Pitch_bend_c, 12, 3328
21, 20887, Pitch_bend_c, 12, 3403
21, 20894, Pitch_bend_c, 12, 3611
21, 20901, Pitch_bend_c, 12, 3952
21, 20908, Pitch_bend_c, 12, 4425
21, 20915, Pitch_bend_c, 12, 5030
21, 20922, Pitch_bend_c, 12, 5768
21, 20929, Pitch_bend_c, 12, 6638
21, 20936, Pitch_bend_c, 12, 7640
21, 20940, Pitch_bend_c, 12, 8192
21, 21120, Note_off_c, 12, 66, 64
21, 21120, Note_on_c, 12, 61, 79
21, 21360, Note_off_c, 12, 61, 64
21, 21360, Note_on_c, 12, 64, 79
21, 21840, Pitch_bend_c, 12, 0
21, 21840, Note_off_c, 12, 64, 64
21, 21840, Note_on_c, 12, 66, 79
21, 21900, Pitch_bend_c, 12, 0
21, 21907, Pitch_bend_c, 12, 127
21, 21914, Pitch_bend_c, 12, 477
21, 21921, Pitch_bend_c, 12, 1051
21, 21928, Pitch_bend_c, 12, 1847
21, 21935, Pitch_bend_c, 12, 2867
21, 21942, Pitch_bend_c, 12, 4109
21, 21949, Pitch_bend_c, 12, 5575
21, 21956, Pitch_bend_c, 12, 7263
21, 21960, Pitch_bend_c, 12, 8192
21, 22080, Note_off_c, 12, 66, 64
21, 29040, Note_on_c, 12, 71, 79
21, 29040, Pitch_bend_c, 12, 2560
21, 29040, Note_on_c, 12, 64, 79
21, 29047, Pitch_bend_c, 12, 2581
21, 29054, Pitch_bend_c, 12, 2642
21, 29061, Pitch_bend_c, 12, 2740
21, 29068, Pitch_bend_c, 12, 2877
21, 29075, Pitch_bend_c, 12, 3052
21, 29082, Pitch_bend_c, 12, 3266
21, 29089, Pitch_bend_c, 12, 3518
21, 29096, Pitch_bend_c, 12, 3808
21, 29103, Pitch_bend_c, 12, 4136
21, 29110, Pitch_bend_c, 12, 4503
21, 29117, Pitch_bend_c, 12, 4909
21, 29124, Pitch_bend_c, 12, 5352
21, 29131, Pitch_bend_c, 12, 5834
21, 29138, Pitch_bend_c, 12, 6354
21, 29145, Pitch_bend_c, 12, 6913
21, 29152, Pitch_bend_c, 12, 7509
21, 29159, Pitch_bend_c, 12, 8145
21, 29160, Pitch_bend_c, 12, 8192
21, 29760, Note_off_c, 12, 71, 64
21, 29760, Note_off_c, 12, 64, 64
21, 29760, Note_on_c, 12, 68, 79
21, 29760, Pitch_bend_c, 12, 12544
21, 29796, Pitch_bend_c, 12, 12365
21, 29831, Pitch_bend_c, 12, 11857
21, 29867, Pitch_bend_c, 12, 10991
21, 29880, Control_c, 12, 1, 64
21, 29903, Pitch_bend_c, 12, 9778
21, 29939, Pitch_bend_c, 12, 8216
21, 29940, Pitch_bend_c, 12, 8192
21, 30360, Note_off_c, 12, 68, 64
21, 30360, Note_on_c, 12, 69, 79
21, 30360, Control_c, 12, 1, 0
21, 30360, Note_on_c, 12, 63, 79
21, 30720, Note_off_c, 12, 69, 64
21, 30720, Note_off_c, 12, 63, 64
21, 30720, Note_on_c, 12, 71, 79
21, 30720, Note_on_c, 12, 64, 79
21, 30840, Note_off_c, 12, 71, 64
21, 30840, Note_off_c, 12, 64, 64
21, 51600, Pitch_bend_c, 12, 3328
21, 51600, Note_on_c, 12, 66, 79
21, 51607, Pitch_bend_c, 12, 3403
21, 51614, Pitch_bend_c, 12, 3611
21, 51621, Pitch_bend_c, 12, 3952
21, 51628, Pitch_bend_c, 12, 4425
21, 51635, Pitch_bend_c, 12, 5030
21, 51642, Pitch_bend_c, 12, 5768
21, 51649, Pitch_bend_c, 12, 6638
21, 51656, Pitch_bend_c, 12, 7640
21, 51660, Pitch_bend_c, 12, 8192
21, 51840, Note_off_c, 12, 66, 64
21, 51840, Note_on_c, 12, 61, 79
21, 52080, Note_off_c, 12, 61, 64
21, 52080, Note_on_c, 12, 64, 79
21, 52560, Pitch_bend_c, 12, 0
21, 52560, Note_off_c, 12, 64, 64
21, 52560, Note_on_c, 12, 66, 79
21, 52620, Pitch_bend_c, 12, 0
21, 52627, Pitch_bend_c, 12, 127
21, 52634, Pitch_bend_c, 12, 477
21, 52641, Pitch_bend_c, 12, 1051
21, 52648, Pitch_bend_c, 12, 1847
21, 52655, Pitch_bend_c, 12, 2867
21, 52662, Pitch_bend_c, 12, 4109
21, 52669, Pitch_bend_c, 12, 5575
21, 52676, Pitch_bend_c, 12, 7263
21, 52680, Pitch_bend_c, 12, 8192
21, 52800, Note_off_c, 12, 66, 64
21, 59760, Note_on_c, 12, 71, 79
21, 59760, Pitch_bend_c, 12, 2560
21, 59760, Note_on_c, 12, 64, 79
21, 59767, Pitch_bend_c, 12, 2581
21, 59774, Pitch_bend_c, 12, 2642
21, 59781, Pitch_bend_c, 12, 2740
21, 59788, Pitch_bend_c, 12, 2877
21, 59795, Pitch_bend_c, 12, 3052
21, 59802, Pitch_bend_c, 12, 3266
21, 59809, Pitch_bend_c, 12, 3518
21, 59816, Pitch_bend_c, 12, 3808
21, 59823, Pitch_bend_c, 12, 4136
21, 59830, Pitch_bend_c, 12, 4503
21, 59837, Pitch_bend_c, 12, 4909
21, 59844, Pitch_bend_c, 12, 5352
21, 59851, Pitch_bend_c, 12, 5834
21, 59858, Pitch_bend_c, 12, 6354
21, 59865, Pitch_bend_c, 12, 6913
21, 59872, Pitch_bend_c, 12, 7509
21, 59879, Pitch_bend_c, 12, 8145
21, 59880, Pitch_bend_c, 12, 8192
21, 60480, Note_off_c, 12, 71, 64
21, 60480, Note_off_c, 12, 64, 64
21, 60480, Note_on_c, 12, 68, 79
21, 60480, Pitch_bend_c, 12, 12800
21, 60516, Pitch_bend_c, 12, 12610
21, 60551, Pitch_bend_c, 12, 12072
21, 60587, Pitch_bend_c, 12, 11156
21, 60600, Control_c, 12, 1, 64
21, 60623, Pitch_bend_c, 12, 9871
21, 60659, Pitch_bend_c, 12, 8217
21, 60660, Pitch_bend_c, 12, 8192
21, 61080, Note_off_c, 12, 68, 64
21, 61080, Note_on_c, 12, 69, 79
21, 61080, Control_c, 12, 1, 0
21, 61080, Note_on_c, 12, 63, 79
21, 61440, Note_off_c, 12, 69, 64
21, 61440, Note_off_c, 12, 63, 64
21, 61440, Note_on_c, 12, 71, 79
21, 61440, Note_on_c, 12, 64, 79
21, 61560, Note_off_c, 12, 71, 64
21, 61560, Note_off_c, 12, 64, 64
21, 90480, Pitch_bend_c, 12, 2560
21, 90480, Note_on_c, 12, 71, 79
21, 90480, Note_on_c, 12, 64, 79
21, 90487, Pitch_bend_c, 12, 2581
21, 90494, Pitch_bend_c, 12, 2642
21, 90501, Pitch_bend_c, 12, 2740
21, 90508, Pitch_bend_c, 12, 2877
21, 90515, Pitch_bend_c, 12, 3052
21, 90522, Pitch_bend_c, 12, 3266
21, 90529, Pitch_bend_c, 12, 3518
21, 90536, Pitch_bend_c, 12, 3808
21, 90543, Pitch_bend_c, 12, 4136
21, 90550, Pitch_bend_c, 12, 4503
21, 90557, Pitch_bend_c, 12, 4909
21, 90564, Pitch_bend_c, 12, 5352
21, 90571, Pitch_bend_c, 12, 5834
21, 90578, Pitch_bend_c, 12, 6354
21, 90585, Pitch_bend_c, 12, 6913
21, 90592, Pitch_bend_c, 12, 7509
21, 90599, Pitch_bend_c, 12, 8145
21, 90600, Pitch_bend_c, 12, 8192
21, 91200, Note_off_c, 12, 71, 64
21, 91200, Note_off_c, 12, 64, 64
21, 91200, Note_on_c, 12, 68, 79
21, 91200, Pitch_bend_c, 12, 12800
21, 91236, Pitch_bend_c, 12, 12610
21, 91271, Pitch_bend_c, 12, 12072
21, 91307, Pitch_bend_c, 12, 11156
21, 91320, Control_c, 12, 1, 64
21, 91343, Pitch_bend_c, 12, 9871
21, 91379, Pitch_bend_c, 12, 8217
21, 91380, Pitch_bend_c, 12, 8192
21, 91800, Note_off_c, 12, 68, 64
21, 91800, Note_on_c, 12, 69, 79
21, 91800, Control_c, 12, 1, 0
21, 91800, Note_on_c, 12, 63, 79
21, 92160, Note_off_c, 12, 69, 64
21, 92160, Note_off_c, 12, 63, 64
21, 92160, Note_on_c, 12, 71, 79
21, 92160, Note_on_c, 12, 64, 79
21, 92280, Note_off_c, 12, 71, 64
21, 92280, Note_off_c, 12, 64, 64
21, 121200, Pitch_bend_c, 12, 2560
21, 121200, Note_on_c, 12, 71, 79
21, 121200, Note_on_c, 12, 64, 79
21, 121207, Pitch_bend_c, 12, 2581
21, 121214, Pitch_bend_c, 12, 2642
21, 121221, Pitch_bend_c, 12, 2740
21, 121228, Pitch_bend_c, 12, 2877
21, 121235, Pitch_bend_c, 12, 3052
21, 121242, Pitch_bend_c, 12, 3266
21, 121249, Pitch_bend_c, 12, 3518
21, 121256, Pitch_bend_c, 12, 3808
21, 121263, Pitch_bend_c, 12, 4136
21, 121270, Pitch_bend_c, 12, 4503
21, 121277, Pitch_bend_c, 12, 4909
21, 121284, Pitch_bend_c, 12, 5352
21, 121291, Pitch_bend_c, 12, 5834
21, 121298, Pitch_bend_c, 12, 6354
21, 121305, Pitch_bend_c, 12, 6913
21, 121312, Pitch_bend_c, 12, 7509
21, 121319, Pitch_bend_c, 12, 8145
21, 121320, Pitch_bend_c, 12, 8192
21, 121920, Note_off_c, 12, 71, 64
21, 121920, Note_off_c, 12, 64, 64
21, 121920, Note_on_c, 12, 68, 79
21, 121920, Pitch_bend_c, 12, 12544
21, 121956, Pitch_bend_c, 12, 12365
21, 121991, Pitch_bend_c, 12, 11857
21, 122027, Pitch_bend_c, 12, 10991
21, 122040, Control_c, 12, 1, 64
21, 122063, Pitch_bend_c, 12, 9778
21, 122099, Pitch_bend_c, 12, 8216
21, 122100, Pitch_bend_c, 12, 8192
21, 122520, Note_off_c, 12, 68, 64
21, 122520, Note_on_c, 12, 69, 79
21, 122520, Control_c, 12, 1, 0
21, 122520, Note_on_c, 12, 63, 79
21, 122880, Note_off_c, 12, 69, 64
21, 122880, Note_off_c, 12, 63, 64
21, 122880, Note_on_c, 12, 71, 79
21, 122880, Note_on_c, 12, 64, 79
21, 123000, Note_off_c, 12, 71, 64
21, 123000, Note_off_c, 12, 64, 64
21, 136560, Pitch_bend_c, 12, 2560
21, 136560, Note_on_c, 12, 71, 79
21, 136560, Note_on_c, 12, 64, 79
21, 136567, Pitch_bend_c, 12, 2581
21, 136574, Pitch_bend_c, 12, 2642
21, 136581, Pitch_bend_c, 12, 2740
21, 136588, Pitch_bend_c, 12, 2877
21, 136595, Pitch_bend_c, 12, 3052
21, 136602, Pitch_bend_c, 12, 3266
21, 136609, Pitch_bend_c, 12, 3518
21, 136616, Pitch_bend_c, 12, 3808
21, 136623, Pitch_bend_c, 12, 4136
21, 136630, Pitch_bend_c, 12, 4503
21, 136637, Pitch_bend_c, 12, 4909
21, 136644, Pitch_bend_c, 12, 5352
21, 136651, Pitch_bend_c, 12, 5834
21, 136658, Pitch_bend_c, 12, 6354
21, 136665, Pitch_bend_c, 12, 6913
21, 136672, Pitch_bend_c, 12, 7509
21, 136679, Pitch_bend_c, 12, 8145
21, 136680, Pitch_bend_c, 12, 8192
21, 137280, Note_off_c, 12, 71, 64
21, 137280, Note_off_c, 12, 64, 64
21, 137280, Note_on_c, 12, 68, 79
21, 137280, Pitch_bend_c, 12, 12288
21, 137316, Pitch_bend_c, 12, 12119
21, 137351, Pitch_bend_c, 12, 11641
21, 137387, Pitch_bend_c, 12, 10827
21, 137400, Control_c, 12, 1, 64
21, 137423, Pitch_bend_c, 12, 9684
21, 137458, Pitch_bend_c, 12, 8260
21, 137460, Pitch_bend_c, 12, 8192
21, 137880, Note_off_c, 12, 68, 64
21, 137880, Note_on_c, 12, 69, 79
21, 137880, Control_c, 12, 1, 0
21, 137880, Note_on_c, 12, 63, 79
21, 138240, Note_off_c, 12, 69, 64
21, 138240, Note_off_c, 12, 63, 64
21, 138240, Note_on_c, 12, 71, 79
21, 138240, Note_on_c, 12, 64, 79
21, 138360, Note_off_c, 12, 71, 64
21, 138360, Note_off_c, 12, 64, 64
21, 146400, End_track
0, 0, End_of_file
