0, 0, Header, 1, 14, 120
1, 0, Start_track
1, 0, Key_signature, 0, "major"
1, 0, Tempo, 600000
1, 0, Time_signature, 4, 2, 24, 8
1, 2640, Tempo, 750000
1, 2872, Tempo, 461538
1, 2872, End_track
2, 0, Start_track
2, 0, Title_t, "Soft karaoke"
2, 0, Text_t, "@KMIDI KARAOKE FILE"
2, 0, End_track
3, 0, Start_track
3, 0, Title_t, "Words"
3, 0, Text_t, "@LENGL"
3, 0, Text_t, "@TChristmas Eve"
3, 0, Text_t, "@TCéline Dion"
3, 0, Text_t, "\\Titre"
3, 120, Text_t, " :"
3, 240, Text_t, " Christmas"
3, 360, Text_t, " Eve"
3, 2640, Text_t, "/Auteurs"
3, 2680, Text_t, " :"
3, 2720, Text_t, " Mario"
3, 2732, Text_t, " Christensen"
3, 2740, Text_t, " et"
3, 2760, Text_t, " Curt"
3, 2800, Text_t, " Frasca"
3, 2840, Text_t, "/Interprète"
3, 2880, Text_t, " :"
3, 2955, Text_t, " Céline"
3, 2960, Text_t, " Dion"
3, 3240, Text_t, "\\Hey"
3, 3315, Text_t, " Hey"
3, 3320, Text_t, " Hey,"
3, 3555, Text_t, " Hey"
3, 3560, Text_t, " Hey"
3, 3600, Text_t, " ad."
3, 3675, Text_t, " lib."
3, 6960, Text_t, "\\Snow"
3, 7200, Text_t, " fal"
3, 7440, Text_t, "ling"
3, 7680, Text_t, " gen"
3, 7800, Text_t, "tly"
3, 7920, Text_t, " to"
3, 8040, Text_t, " the"
3, 8120, Text_t, " ground"
3, 8880, Text_t, "/'Tis"
3, 9120, Text_t, " the night"
3, 9360, Text_t, " before"
3, 9600, Text_t, "/And in"
3, 9720, Text_t, " my"
3, 9840, Text_t, " heart"
3, 9960, Text_t, "/There"
3, 10080, Text_t, " is"
3, 10200, Text_t, " no"
3, 10320, Text_t, " doubt"
3, 10800, Text_t, "/That this"
3, 11040, Text_t, " is gon"
3, 11280, Text_t, "na be"
3, 11520, Text_t, "/The bright"
3, 11640, Text_t, "est"
3, 11760, Text_t, " hol"
3, 11880, Text_t, "i"
3, 11960, Text_t, "day"
3, 12720, Text_t, "/'Cause here"
3, 12960, Text_t, " you are"
3, 13200, Text_t, " with me"
3, 13440, Text_t, "/Ba"
3, 13560, Text_t, "by,"
3, 13680, Text_t, " ba"
3, 13800, Text_t, "by,"
3, 13920, Text_t, " I"
3, 14040, Text_t, " can't"
3, 14160, Text_t, " wait"
3, 14520, Text_t, "\\To spend"
3, 14600, Text_t, " this"
3, 14640, Text_t, " spe"
3, 14720, Text_t, "cial"
3, 14760, Text_t, " time"
3, 14840, Text_t, "/Of"
3, 14880, Text_t, " year"
3, 15000, Text_t, " with"
3, 15120, Text_t, " some"
3, 15240, Text_t, "one"
3, 15360, Text_t, " who"
3, 15480, Text_t, "/Makes"
3, 15560, Text_t, " me"
3, 15600, Text_t, " feel"
3, 15680, Text_t, " the"
3, 15720, Text_t, " spe"
3, 15800, Text_t, "cial"
3, 15840, Text_t, " way"
3, 15960, Text_t, " that"
3, 16080, Text_t, " you"
3, 16200, Text_t, " do"
3, 16440, Text_t, "\\Oh!"
3, 16480, Text_t, " oh!"
3, 16500, Text_t, " oh!"
3, 16560, Text_t, " oh!,"
3, 16740, Text_t, " yeah!"
3, 16920, Text_t, " yeah!"
3, 17040, Text_t, " yeah!"
3, 17160, Text_t, " yeah! eh!"
3, 17400, Text_t, "\\Walkin'"
3, 17480, Text_t, " with"
3, 17520, Text_t, " you"
3, 17600, Text_t, " in"
3, 17640, Text_t, " a"
3, 17720, Text_t, " win"
3, 17880, Text_t, "ter's"
3, 18000, Text_t, " snow"
3, 18360, Text_t, "/Kiss"
3, 18440, Text_t, "in'"
3, 18480, Text_t, " un"
3, 18560, Text_t, "der"
3, 18600, Text_t, "neath"
3, 18680, Text_t, " the"
3, 18720, Text_t, " mis"
3, 18840, Text_t, "tle"
3, 18960, Text_t, "toe"
3, 19320, Text_t, "/Peo"
3, 19400, Text_t, "ple"
3, 19440, Text_t, " smil"
3, 19520, Text_t, "ing"
3, 19560, Text_t, " ev"
3, 19640, Text_t, "ery"
3, 19680, Text_t, "where"
3, 19800, Text_t, " we"
3, 19920, Text_t, " go"
3, 20040, Text_t, "/It's"
3, 20100, Text_t, " Christ"
3, 20220, Text_t, "mas"
3, 20340, Text_t, " Eve"
3, 20505, Text_t, "/And"
3, 20640, Text_t, " they"
3, 20760, Text_t, " can"
3, 20880, Text_t, " see"
3, 21000, Text_t, " we're"
3, 21105, Text_t, " in"
3, 21120, Text_t, " love"
3, 21240, Text_t, "\\Ooh,"
3, 21440, Text_t, " you"
3, 21480, Text_t, " make"
3, 21560, Text_t, " the"
3, 21600, Text_t, " sea"
3, 21720, Text_t, "son"
3, 21840, Text_t, " bright"
3, 22200, Text_t, "/With"
3, 22280, Text_t, " the"
3, 22320, Text_t, " lights"
3, 22400, Text_t, " re"
3, 22440, Text_t, "flect"
3, 22520, Text_t, "ing"
3, 22560, Text_t, " in"
3, 22680, Text_t, " your"
3, 22800, Text_t, " eyes"
3, 23160, Text_t, "/All"
3, 23240, Text_t, " my"
3, 23280, Text_t, " dreams"
3, 23360, Text_t, " are"
3, 23400, Text_t, " com"
3, 23480, Text_t, "in'"
3, 23520, Text_t, " true"
3, 23640, Text_t, " to"
3, 23760, Text_t, "night"
3, 23880, Text_t, "/It's"
3, 23940, Text_t, " Christ"
3, 24060, Text_t, "mas"
3, 24180, Text_t, " Eve"
3, 24345, Text_t, "/And"
3, 24480, Text_t, " I"
3, 24600, Text_t, " can"
3, 24720, Text_t, " see"
3, 24840, Text_t, " we're"
3, 24960, Text_t, " in love"
3, 25200, Text_t, "\\We'll stay"
3, 25440, Text_t, " up late"
3, 25680, Text_t, " tonight"
3, 25920, Text_t, "/De"
3, 26040, Text_t, "co"
3, 26160, Text_t, "rate"
3, 26280, Text_t, " the"
3, 26360, Text_t, " tree"
3, 27120, Text_t, "/Just look"
3, 27360, Text_t, " into"
3, 27600, Text_t, " my eyes"
3, 27840, Text_t, "/And I"
3, 27960, Text_t, " will"
3, 28080, Text_t, " tell"
3, 28200, Text_t, " you"
3, 28320, Text_t, " truth"
3, 28440, Text_t, "ful"
3, 28560, Text_t, "ly"
3, 29040, Text_t, "/That I don't"
3, 29280, Text_t, " need no"
3, 29520, Text_t, " Santa Claus"
3, 30000, Text_t, "/To hear"
3, 30120, Text_t, " my"
3, 30200, Text_t, " Christmas wish"
3, 30960, Text_t, "/I got"
3, 31200, Text_t, " you in"
3, 31440, Text_t, " my arms"
3, 31680, Text_t, "/And what"
3, 31800, Text_t, " could"
3, 31920, Text_t, " be"
3, 32040, Text_t, " a"
3, 32160, Text_t, " bet"
3, 32280, Text_t, "ter"
3, 32400, Text_t, " gift"
3, 32760, Text_t, "/Than"
3, 32840, Text_t, " to"
3, 32880, Text_t, " spend"
3, 32960, Text_t, " my"
3, 33000, Text_t, " ve"
3, 33080, Text_t, "ry"
3, 33120, Text_t, "/Fa"
3, 33240, Text_t, "vorite"
3, 33360, Text_t, " time"
3, 33480, Text_t, " of"
3, 33600, Text_t, " year"
3, 33720, Text_t, "/With"
3, 33800, Text_t, " the"
3, 33840, Text_t, " one"
3, 33920, Text_t, " I"
3, 33960, Text_t, " real"
3, 34040, Text_t, "ly"
3, 34080, Text_t, " love"
3, 34200, Text_t, " so"
3, 34320, Text_t, " near,"
3, 34680, Text_t, "/Oh!"
3, 34740, Text_t, " oh!"
3, 34800, Text_t, " Oh!"
3, 34965, Text_t, " Yeeeaahhh!!"
3, 35640, Text_t, "\\Wal"
3, 35720, Text_t, "kin'"
3, 35760, Text_t, " with"
3, 35840, Text_t, " you"
3, 35880, Text_t, " in"
3, 35960, Text_t, " a"
3, 36000, Text_t, " win"
3, 36120, Text_t, "ter's"
3, 36240, Text_t, " snow"
3, 36600, Text_t, "/Kiss"
3, 36680, Text_t, "in'"
3, 36720, Text_t, " un"
3, 36800, Text_t, "der"
3, 36840, Text_t, "neath"
3, 36920, Text_t, " the"
3, 36960, Text_t, " mis"
3, 37080, Text_t, "tle"
3, 37200, Text_t, "toe"
3, 37560, Text_t, "/Peo"
3, 37640, Text_t, "ple"
3, 37680, Text_t, " smil"
3, 37760, Text_t, "ing"
3, 37800, Text_t, " ev"
3, 37880, Text_t, "ery"
3, 37920, Text_t, "where"
3, 38040, Text_t, " we"
3, 38160, Text_t, " go"
3, 38280, Text_t, "/It's"
3, 38340, Text_t, " Christ"
3, 38460, Text_t, "mas"
3, 38580, Text_t, " Eve"
3, 38745, Text_t, "/And"
3, 38880, Text_t, " they"
3, 39000, Text_t, " can"
3, 39120, Text_t, " see"
3, 39240, Text_t, " we're"
3, 39345, Text_t, " in"
3, 39360, Text_t, " love"
3, 39480, Text_t, "\\Ooh,"
3, 39680, Text_t, " you"
3, 39720, Text_t, " make"
3, 39800, Text_t, " the"
3, 39840, Text_t, " sea"
3, 39960, Text_t, "son"
3, 40080, Text_t, " bright"
3, 40440, Text_t, "/With"
3, 40520, Text_t, " the"
3, 40560, Text_t, " lights"
3, 40640, Text_t, " re"
3, 40680, Text_t, "flect"
3, 40760, Text_t, "ing"
3, 40800, Text_t, " in"
3, 40920, Text_t, " your"
3, 41040, Text_t, " eyes"
3, 41400, Text_t, "/All"
3, 41480, Text_t, " my"
3, 41520, Text_t, " dreams"
3, 41600, Text_t, " are"
3, 41640, Text_t, " com"
3, 41720, Text_t, "in'"
3, 41760, Text_t, " true"
3, 41880, Text_t, " to"
3, 42000, Text_t, "night"
3, 42120, Text_t, "/It's"
3, 42180, Text_t, " Christ"
3, 42300, Text_t, "mas"
3, 42420, Text_t, " Eve"
3, 42585, Text_t, "/And"
3, 42720, Text_t, " I"
3, 42840, Text_t, " can"
3, 42960, Text_t, " see"
3, 43080, Text_t, " we're"
3, 43200, Text_t, " in love"
3, 43760, Text_t, "\\And"
3, 43800, Text_t, " bells"
3, 43880, Text_t, " are"
3, 43920, Text_t, " ring"
3, 44000, Text_t, "ing"
3, 44040, Text_t, "/When"
3, 44115, Text_t, " I"
3, 44160, Text_t, " hear"
3, 44280, Text_t, " you"
3, 44400, Text_t, " say"
3, 44600, Text_t, "\\(Choeur)"
3, 44760, Text_t, " Ooh!"
3, 44880, Text_t, " Ooh!"
3, 45000, Text_t, " Ooh!"
3, 45120, Text_t, " Ooh!"
3, 45720, Text_t, "\\We'll do"
3, 45800, Text_t, " it"
3, 45840, Text_t, " all"
3, 45920, Text_t, " a"
3, 45960, Text_t, "gain"
3, 46040, Text_t, " on"
3, 46080, Text_t, " Christ"
3, 46200, Text_t, "mas"
3, 46320, Text_t, " Day"
3, 46680, Text_t, "/I"
3, 46920, Text_t, " can't"
3, 47000, Text_t, " wait!"
3, 47640, Text_t, "\\Walk"
3, 47720, Text_t, "in'"
3, 47760, Text_t, " with"
3, 47840, Text_t, " you"
3, 47880, Text_t, " in"
3, 47960, Text_t, " a"
3, 48000, Text_t, " win"
3, 48120, Text_t, "ter's"
3, 48240, Text_t, " snow"
3, 48600, Text_t, "/Kiss"
3, 48680, Text_t, "in'"
3, 48720, Text_t, " un"
3, 48800, Text_t, "der"
3, 48840, Text_t, "neath"
3, 48920, Text_t, " the"
3, 48960, Text_t, " mis"
3, 49080, Text_t, "tle"
3, 49200, Text_t, "toe"
3, 49560, Text_t, "/Peo"
3, 49640, Text_t, "ple"
3, 49680, Text_t, " smil"
3, 49760, Text_t, "ing"
3, 49800, Text_t, " ev"
3, 49880, Text_t, "ery"
3, 49920, Text_t, "where"
3, 50040, Text_t, " we"
3, 50160, Text_t, " go"
3, 50280, Text_t, "/It's"
3, 50340, Text_t, " Christ"
3, 50460, Text_t, "mas"
3, 50580, Text_t, " Eve"
3, 50760, Text_t, "/And"
3, 50880, Text_t, " they"
3, 51000, Text_t, " can"
3, 51120, Text_t, " see"
3, 51240, Text_t, " we're"
3, 51345, Text_t, " in"
3, 51360, Text_t, " love"
3, 51480, Text_t, "\\Ooh,"
3, 51680, Text_t, " you"
3, 51720, Text_t, " make"
3, 51800, Text_t, " the"
3, 51840, Text_t, " sea"
3, 51960, Text_t, "son"
3, 52080, Text_t, " bright"
3, 52440, Text_t, "/With"
3, 52520, Text_t, " the"
3, 52560, Text_t, " lights"
3, 52640, Text_t, " re"
3, 52680, Text_t, "flect"
3, 52760, Text_t, "ing"
3, 52800, Text_t, " in"
3, 52920, Text_t, " your"
3, 53040, Text_t, " eyes"
3, 53400, Text_t, "/All"
3, 53480, Text_t, " my"
3, 53520, Text_t, " dreams"
3, 53600, Text_t, " are"
3, 53640, Text_t, " com"
3, 53720, Text_t, "in'"
3, 53760, Text_t, " true"
3, 53880, Text_t, " to"
3, 54000, Text_t, "night"
3, 54120, Text_t, "/It's"
3, 54180, Text_t, " Christ"
3, 54300, Text_t, "mas"
3, 54420, Text_t, " Eve"
3, 54585, Text_t, "/And"
3, 54720, Text_t, " I"
3, 54825, Text_t, " can"
3, 54840, Text_t, " see"
3, 54960, Text_t, " we're"
3, 55080, Text_t, " in"
3, 55200, Text_t, " love"
3, 55320, Text_t, "\\Walk"
3, 55400, Text_t, "in'"
3, 55440, Text_t, " with"
3, 55520, Text_t, " you"
3, 55560, Text_t, " in"
3, 55640, Text_t, " a"
3, 55680, Text_t, " win"
3, 55800, Text_t, "ter's"
3, 55920, Text_t, " snow"
3, 56280, Text_t, "/Kiss"
3, 56360, Text_t, "in'"
3, 56400, Text_t, " un"
3, 56480, Text_t, "der"
3, 56520, Text_t, "neath"
3, 56600, Text_t, " the"
3, 56640, Text_t, " mis"
3, 56760, Text_t, "tle"
3, 56880, Text_t, "toe"
3, 57240, Text_t, "/Peo"
3, 57320, Text_t, "ple"
3, 57360, Text_t, " smil"
3, 57440, Text_t, "ing"
3, 57480, Text_t, " ev"
3, 57560, Text_t, "ery"
3, 57600, Text_t, "where"
3, 57720, Text_t, " we"
3, 57840, Text_t, " go"
3, 57960, Text_t, "/It's"
3, 58020, Text_t, " Christ"
3, 58140, Text_t, "mas"
3, 58260, Text_t, " Eve"
3, 58440, Text_t, "/And"
3, 58560, Text_t, " they"
3, 58680, Text_t, " can"
3, 58800, Text_t, " see"
3, 58920, Text_t, " we're"
3, 59025, Text_t, " in"
3, 59040, Text_t, " love"
3, 59160, Text_t, "\\Ooh,"
3, 59360, Text_t, " you"
3, 59400, Text_t, " make"
3, 59480, Text_t, " the"
3, 59520, Text_t, " sea"
3, 59640, Text_t, "son"
3, 59760, Text_t, " bright"
3, 60120, Text_t, "/With"
3, 60200, Text_t, " the"
3, 60240, Text_t, " lights"
3, 60320, Text_t, " re"
3, 60360, Text_t, "flect"
3, 60440, Text_t, "ing"
3, 60480, Text_t, " in"
3, 60600, Text_t, " your"
3, 60720, Text_t, " eyes"
3, 61080, Text_t, "/All"
3, 61160, Text_t, " my"
3, 61200, Text_t, " dreams"
3, 61280, Text_t, " are"
3, 61320, Text_t, " com"
3, 61400, Text_t, "in'"
3, 61440, Text_t, " true"
3, 61560, Text_t, " to"
3, 61680, Text_t, "night"
3, 61800, Text_t, "/It's"
3, 61860, Text_t, " Christ"
3, 61980, Text_t, "mas"
3, 62100, Text_t, " Eve"
3, 62265, Text_t, "/And"
3, 62400, Text_t, " I"
3, 62505, Text_t, " can"
3, 62520, Text_t, " see"
3, 62640, Text_t, " we're"
3, 62760, Text_t, " in"
3, 62880, Text_t, " love"
3, 62880, End_track
4, 0, Start_track
4, 0, Title_t, "Vocal"
4, 0, Instrument_name_t, "Christmas Eve"
4, 7, Control_c, 0, 121, 0
4, 30, Program_c, 0, 24
4, 37, Control_c, 0, 7, 127
4, 37, Control_c, 0, 11, 127
4, 45, Control_c, 0, 91, 110
4, 52, Control_c, 0, 93, 105
4, 60, Control_c, 0, 94, 0
4, 67, Control_c, 0, 10, 64
4, 75, Control_c, 0, 100, 0
4, 82, Control_c, 0, 101, 0
4, 90, Control_c, 0, 6, 2
4, 3200, Note_on_c, 0, 60, 125
4, 3240, Note_on_c, 0, 69, 125
4, 3245, Note_on_c, 0, 60, 0
4, 3307, Note_on_c, 0, 69, 0
4, 3320, Note_on_c, 0, 67, 125
4, 3485, Note_on_c, 0, 67, 0
4, 3720, Note_on_c, 0, 69, 125
4, 3760, Note_on_c, 0, 67, 125
4, 3765, Note_on_c, 0, 69, 0
4, 3797, Note_on_c, 0, 67, 0
4, 3800, Note_on_c, 0, 65, 125
4, 3837, Note_on_c, 0, 65, 0
4, 3840, Note_on_c, 0, 65, 125
4, 4027, Note_on_c, 0, 65, 0
4, 4040, Note_on_c, 0, 67, 125
4, 4085, Note_on_c, 0, 67, 0
4, 4520, Note_on_c, 0, 74, 125
4, 4680, Note_on_c, 0, 69, 125
4, 4685, Note_on_c, 0, 74, 0
4, 4755, Note_on_c, 0, 69, 0
4, 4760, Note_on_c, 0, 72, 125
4, 4992, Note_on_c, 0, 72, 0
4, 5000, Note_on_c, 0, 74, 125
4, 5045, Note_on_c, 0, 74, 0
4, 5392, Note_on_c, 0, 68, 125
4, 5399, Note_on_c, 0, 68, 0
4, 5400, Note_on_c, 0, 69, 125
4, 5475, Note_on_c, 0, 69, 0
4, 5480, Note_on_c, 0, 67, 125
4, 5645, Note_on_c, 0, 67, 0
4, 5872, Note_on_c, 0, 66, 125
4, 5879, Note_on_c, 0, 66, 0
4, 5880, Note_on_c, 0, 67, 125
4, 5955, Note_on_c, 0, 67, 0
4, 5960, Note_on_c, 0, 65, 125
4, 6005, Note_on_c, 0, 65, 0
4, 6960, Note_on_c, 0, 65, 125
4, 7185, Note_on_c, 0, 65, 0
4, 7200, Note_on_c, 0, 60, 125
4, 7425, Note_on_c, 0, 60, 0
4, 7440, Note_on_c, 0, 57, 125
4, 7665, Note_on_c, 0, 57, 0
4, 7680, Note_on_c, 0, 64, 125
4, 7800, Note_on_c, 0, 65, 125
4, 7800, Note_on_c, 0, 64, 0
4, 7920, Note_on_c, 0, 64, 125
4, 7920, Note_on_c, 0, 65, 0
4, 8040, Note_on_c, 0, 62, 125
4, 8040, Note_on_c, 0, 64, 0
4, 8115, Note_on_c, 0, 62, 0
4, 8120, Note_on_c, 0, 64, 125
4, 8405, Note_on_c, 0, 64, 0
4, 8880, Note_on_c, 0, 65, 125
4, 9105, Note_on_c, 0, 65, 0
4, 9120, Note_on_c, 0, 60, 125
4, 9345, Note_on_c, 0, 60, 0
4, 9360, Note_on_c, 0, 57, 125
4, 9585, Note_on_c, 0, 57, 0
4, 9600, Note_on_c, 0, 55, 125
4, 9720, Note_on_c, 0, 57, 125
4, 9720, Note_on_c, 0, 55, 0
4, 9840, Note_on_c, 0, 58, 125
4, 9840, Note_on_c, 0, 57, 0
4, 9960, Note_on_c, 0, 60, 125
4, 9960, Note_on_c, 0, 58, 0
4, 10080, Note_on_c, 0, 61, 125
4, 10080, Note_on_c, 0, 60, 0
4, 10170, Note_on_c, 0, 61, 0
4, 10200, Note_on_c, 0, 65, 125
4, 10290, Note_on_c, 0, 65, 0
4, 10320, Note_on_c, 0, 65, 125
4, 10395, Note_on_c, 0, 65, 0
4, 10400, Note_on_c, 0, 64, 125
4, 10535, Note_on_c, 0, 64, 0
4, 10800, Note_on_c, 0, 65, 125
4, 11025, Note_on_c, 0, 65, 0
4, 11040, Note_on_c, 0, 60, 125
4, 11265, Note_on_c, 0, 60, 0
4, 11280, Note_on_c, 0, 57, 125
4, 11505, Note_on_c, 0, 57, 0
4, 11520, Note_on_c, 0, 64, 125
4, 11640, Note_on_c, 0, 65, 125
4, 11640, Note_on_c, 0, 64, 0
4, 11760, Note_on_c, 0, 64, 125
4, 11760, Note_on_c, 0, 65, 0
4, 11880, Note_on_c, 0, 62, 125
4, 11880, Note_on_c, 0, 64, 0
4, 11955, Note_on_c, 0, 62, 0
4, 11960, Note_on_c, 0, 64, 125
4, 12245, Note_on_c, 0, 64, 0
4, 12720, Note_on_c, 0, 65, 125
4, 12945, Note_on_c, 0, 65, 0
4, 12960, Note_on_c, 0, 60, 125
4, 13185, Note_on_c, 0, 60, 0
4, 13200, Note_on_c, 0, 57, 125
4, 13425, Note_on_c, 0, 57, 0
4, 13440, Note_on_c, 0, 55, 125
4, 13560, Note_on_c, 0, 57, 125
4, 13560, Note_on_c, 0, 55, 0
4, 13680, Note_on_c, 0, 58, 125
4, 13680, Note_on_c, 0, 57, 0
4, 13800, Note_on_c, 0, 60, 125
4, 13800, Note_on_c, 0, 58, 0
4, 13920, Note_on_c, 0, 61, 125
4, 13920, Note_on_c, 0, 60, 0
4, 14010, Note_on_c, 0, 61, 0
4, 14040, Note_on_c, 0, 65, 125
4, 14130, Note_on_c, 0, 65, 0
4, 14160, Note_on_c, 0, 65, 125
4, 14235, Note_on_c, 0, 65, 0
4, 14240, Note_on_c, 0, 64, 125
4, 14375, Note_on_c, 0, 64, 0
4, 14520, Note_on_c, 0, 62, 125
4, 14572, Note_on_c, 0, 62, 0
4, 14600, Note_on_c, 0, 62, 125
4, 14622, Note_on_c, 0, 62, 0
4, 14640, Note_on_c, 0, 62, 125
4, 14692, Note_on_c, 0, 62, 0
4, 14720, Note_on_c, 0, 62, 125
4, 14742, Note_on_c, 0, 62, 0
4, 14760, Note_on_c, 0, 62, 125
4, 14812, Note_on_c, 0, 62, 0
4, 14840, Note_on_c, 0, 62, 125
4, 14880, Note_on_c, 0, 70, 125
4, 14885, Note_on_c, 0, 62, 0
4, 15000, Note_on_c, 0, 69, 125
4, 15000, Note_on_c, 0, 70, 0
4, 15120, Note_on_c, 0, 67, 125
4, 15120, Note_on_c, 0, 69, 0
4, 15240, Note_on_c, 0, 69, 125
4, 15240, Note_on_c, 0, 67, 0
4, 15360, Note_on_c, 0, 62, 125
4, 15360, Note_on_c, 0, 69, 0
4, 15420, Note_on_c, 0, 62, 0
4, 15480, Note_on_c, 0, 62, 125
4, 15532, Note_on_c, 0, 62, 0
4, 15560, Note_on_c, 0, 62, 125
4, 15582, Note_on_c, 0, 62, 0
4, 15600, Note_on_c, 0, 62, 125
4, 15652, Note_on_c, 0, 62, 0
4, 15680, Note_on_c, 0, 62, 125
4, 15702, Note_on_c, 0, 62, 0
4, 15720, Note_on_c, 0, 62, 125
4, 15772, Note_on_c, 0, 62, 0
4, 15800, Note_on_c, 0, 62, 125
4, 15840, Note_on_c, 0, 70, 125
4, 15845, Note_on_c, 0, 62, 0
4, 15960, Note_on_c, 0, 72, 125
4, 15960, Note_on_c, 0, 70, 0
4, 16080, Note_on_c, 0, 69, 125
4, 16080, Note_on_c, 0, 72, 0
4, 16200, Note_on_c, 0, 67, 125
4, 16200, Note_on_c, 0, 69, 0
4, 16320, Note_on_c, 0, 67, 125
4, 16320, Note_on_c, 0, 67, 0
4, 16380, Note_on_c, 0, 67, 0
4, 16440, Note_on_c, 0, 74, 125
4, 16477, Note_on_c, 0, 74, 0
4, 16480, Note_on_c, 0, 72, 125
4, 16500, Note_on_c, 0, 70, 125
4, 16517, Note_on_c, 0, 72, 0
4, 16552, Note_on_c, 0, 70, 0
4, 16560, Note_on_c, 0, 72, 125
4, 16725, Note_on_c, 0, 73, 125
4, 16725, Note_on_c, 0, 72, 0
4, 16740, Note_on_c, 0, 74, 125
4, 16740, Note_on_c, 0, 73, 0
4, 16800, Note_on_c, 0, 74, 0
4, 16905, Note_on_c, 0, 71, 125
4, 16920, Note_on_c, 0, 72, 125
4, 16920, Note_on_c, 0, 71, 0
4, 17040, Note_on_c, 0, 69, 125
4, 17040, Note_on_c, 0, 72, 0
4, 17160, Note_on_c, 0, 67, 125
4, 17160, Note_on_c, 0, 69, 0
4, 17280, Note_on_c, 0, 67, 0
4, 17400, Note_on_c, 0, 69, 125
4, 17445, Note_on_c, 0, 69, 0
4, 17480, Note_on_c, 0, 69, 125
4, 17510, Note_on_c, 0, 69, 0
4, 17520, Note_on_c, 0, 69, 125
4, 17550, Note_on_c, 0, 69, 0
4, 17600, Note_on_c, 0, 69, 125
4, 17630, Note_on_c, 0, 69, 0
4, 17640, Note_on_c, 0, 69, 125
4, 17685, Note_on_c, 0, 69, 0
4, 17720, Note_on_c, 0, 69, 125
4, 17757, Note_on_c, 0, 69, 0
4, 17760, Note_on_c, 0, 70, 125
4, 17880, Note_on_c, 0, 69, 125
4, 17880, Note_on_c, 0, 70, 0
4, 17970, Note_on_c, 0, 69, 0
4, 18000, Note_on_c, 0, 69, 125
4, 18120, Note_on_c, 0, 69, 0
4, 18360, Note_on_c, 0, 69, 125
4, 18405, Note_on_c, 0, 69, 0
4, 18440, Note_on_c, 0, 69, 125
4, 18462, Note_on_c, 0, 69, 0
4, 18480, Note_on_c, 0, 69, 125
4, 18502, Note_on_c, 0, 69, 0
4, 18560, Note_on_c, 0, 69, 125
4, 18590, Note_on_c, 0, 69, 0
4, 18600, Note_on_c, 0, 69, 125
4, 18645, Note_on_c, 0, 69, 0
4, 18680, Note_on_c, 0, 69, 125
4, 18717, Note_on_c, 0, 69, 0
4, 18720, Note_on_c, 0, 70, 125
4, 18840, Note_on_c, 0, 72, 125
4, 18840, Note_on_c, 0, 70, 0
4, 18960, Note_on_c, 0, 69, 125
4, 18960, Note_on_c, 0, 72, 0
4, 19080, Note_on_c, 0, 67, 125
4, 19080, Note_on_c, 0, 69, 0
4, 19155, Note_on_c, 0, 67, 0
4, 19160, Note_on_c, 0, 65, 125
4, 19205, Note_on_c, 0, 65, 0
4, 19320, Note_on_c, 0, 69, 125
4, 19365, Note_on_c, 0, 69, 0
4, 19400, Note_on_c, 0, 69, 125
4, 19430, Note_on_c, 0, 69, 0
4, 19440, Note_on_c, 0, 69, 125
4, 19470, Note_on_c, 0, 69, 0
4, 19520, Note_on_c, 0, 69, 125
4, 19550, Note_on_c, 0, 69, 0
4, 19560, Note_on_c, 0, 69, 125
4, 19605, Note_on_c, 0, 69, 0
4, 19640, Note_on_c, 0, 69, 125
4, 19677, Note_on_c, 0, 69, 0
4, 19680, Note_on_c, 0, 70, 125
4, 19800, Note_on_c, 0, 69, 125
4, 19800, Note_on_c, 0, 70, 0
4, 19890, Note_on_c, 0, 69, 0
4, 19920, Note_on_c, 0, 69, 125
4, 20010, Note_on_c, 0, 69, 0
4, 20040, Note_on_c, 0, 69, 125
4, 20100, Note_on_c, 0, 67, 125
4, 20100, Note_on_c, 0, 69, 0
4, 20212, Note_on_c, 0, 67, 0
4, 20220, Note_on_c, 0, 65, 125
4, 20310, Note_on_c, 0, 65, 0
4, 20340, Note_on_c, 0, 65, 125
4, 20400, Note_on_c, 0, 65, 0
4, 20505, Note_on_c, 0, 68, 125
4, 20520, Note_on_c, 0, 69, 125
4, 20520, Note_on_c, 0, 68, 0
4, 20640, Note_on_c, 0, 67, 125
4, 20640, Note_on_c, 0, 69, 0
4, 20760, Note_on_c, 0, 65, 125
4, 20760, Note_on_c, 0, 67, 0
4, 20880, Note_on_c, 0, 67, 125
4, 20880, Note_on_c, 0, 65, 0
4, 21000, Note_on_c, 0, 60, 125
4, 21000, Note_on_c, 0, 67, 0
4, 21082, Note_on_c, 0, 60, 0
4, 21105, Note_on_c, 0, 68, 125
4, 21120, Note_on_c, 0, 69, 125
4, 21121, Note_on_c, 0, 68, 0
4, 21210, Note_on_c, 0, 69, 0
4, 21240, Note_on_c, 0, 69, 125
4, 21285, Note_on_c, 0, 69, 0
4, 21320, Note_on_c, 0, 69, 125
4, 21350, Note_on_c, 0, 69, 0
4, 21360, Note_on_c, 0, 69, 125
4, 21390, Note_on_c, 0, 69, 0
4, 21440, Note_on_c, 0, 69, 125
4, 21470, Note_on_c, 0, 69, 0
4, 21480, Note_on_c, 0, 69, 125
4, 21525, Note_on_c, 0, 69, 0
4, 21560, Note_on_c, 0, 69, 125
4, 21597, Note_on_c, 0, 69, 0
4, 21600, Note_on_c, 0, 70, 125
4, 21720, Note_on_c, 0, 69, 125
4, 21720, Note_on_c, 0, 70, 0
4, 21810, Note_on_c, 0, 69, 0
4, 21840, Note_on_c, 0, 69, 125
4, 21960, Note_on_c, 0, 69, 0
4, 22200, Note_on_c, 0, 69, 125
4, 22245, Note_on_c, 0, 69, 0
4, 22280, Note_on_c, 0, 69, 125
4, 22302, Note_on_c, 0, 69, 0
4, 22320, Note_on_c, 0, 69, 125
4, 22342, Note_on_c, 0, 69, 0
4, 22400, Note_on_c, 0, 69, 125
4, 22430, Note_on_c, 0, 69, 0
4, 22440, Note_on_c, 0, 69, 125
4, 22485, Note_on_c, 0, 69, 0
4, 22520, Note_on_c, 0, 69, 125
4, 22557, Note_on_c, 0, 69, 0
4, 22560, Note_on_c, 0, 70, 125
4, 22680, Note_on_c, 0, 72, 125
4, 22680, Note_on_c, 0, 70, 0
4, 22800, Note_on_c, 0, 69, 125
4, 22800, Note_on_c, 0, 72, 0
4, 22920, Note_on_c, 0, 67, 125
4, 22920, Note_on_c, 0, 69, 0
4, 22995, Note_on_c, 0, 67, 0
4, 23000, Note_on_c, 0, 65, 125
4, 23045, Note_on_c, 0, 65, 0
4, 23160, Note_on_c, 0, 69, 125
4, 23205, Note_on_c, 0, 69, 0
4, 23240, Note_on_c, 0, 69, 125
4, 23270, Note_on_c, 0, 69, 0
4, 23280, Note_on_c, 0, 69, 125
4, 23310, Note_on_c, 0, 69, 0
4, 23360, Note_on_c, 0, 69, 125
4, 23390, Note_on_c, 0, 69, 0
4, 23400, Note_on_c, 0, 69, 125
4, 23445, Note_on_c, 0, 69, 0
4, 23480, Note_on_c, 0, 69, 125
4, 23517, Note_on_c, 0, 69, 0
4, 23520, Note_on_c, 0, 70, 125
4, 23640, Note_on_c, 0, 69, 125
4, 23640, Note_on_c, 0, 70, 0
4, 23730, Note_on_c, 0, 69, 0
4, 23760, Note_on_c, 0, 69, 125
4, 23850, Note_on_c, 0, 69, 0
4, 23880, Note_on_c, 0, 69, 125
4, 23940, Note_on_c, 0, 67, 125
4, 23940, Note_on_c, 0, 69, 0
4, 24052, Note_on_c, 0, 67, 0
4, 24060, Note_on_c, 0, 65, 125
4, 24150, Note_on_c, 0, 65, 0
4, 24180, Note_on_c, 0, 65, 125
4, 24240, Note_on_c, 0, 65, 0
4, 24345, Note_on_c, 0, 68, 125
4, 24360, Note_on_c, 0, 69, 125
4, 24360, Note_on_c, 0, 68, 0
4, 24480, Note_on_c, 0, 67, 125
4, 24480, Note_on_c, 0, 69, 0
4, 24600, Note_on_c, 0, 65, 125
4, 24600, Note_on_c, 0, 67, 0
4, 24720, Note_on_c, 0, 67, 125
4, 24720, Note_on_c, 0, 65, 0
4, 24840, Note_on_c, 0, 60, 125
4, 24840, Note_on_c, 0, 67, 0
4, 24952, Note_on_c, 0, 60, 0
4, 24960, Note_on_c, 0, 69, 125
4, 25050, Note_on_c, 0, 69, 0
4, 25200, Note_on_c, 0, 65, 125
4, 25425, Note_on_c, 0, 65, 0
4, 25440, Note_on_c, 0, 60, 125
4, 25665, Note_on_c, 0, 60, 0
4, 25680, Note_on_c, 0, 57, 125
4, 25905, Note_on_c, 0, 57, 0
4, 25920, Note_on_c, 0, 64, 125
4, 26040, Note_on_c, 0, 65, 125
4, 26040, Note_on_c, 0, 64, 0
4, 26160, Note_on_c, 0, 64, 125
4, 26160, Note_on_c, 0, 65, 0
4, 26280, Note_on_c, 0, 62, 125
4, 26280, Note_on_c, 0, 64, 0
4, 26355, Note_on_c, 0, 62, 0
4, 26360, Note_on_c, 0, 64, 125
4, 26645, Note_on_c, 0, 64, 0
4, 27120, Note_on_c, 0, 65, 125
4, 27345, Note_on_c, 0, 65, 0
4, 27360, Note_on_c, 0, 60, 125
4, 27585, Note_on_c, 0, 60, 0
4, 27600, Note_on_c, 0, 57, 125
4, 27825, Note_on_c, 0, 57, 0
4, 27840, Note_on_c, 0, 55, 125
4, 27960, Note_on_c, 0, 57, 125
4, 27960, Note_on_c, 0, 55, 0
4, 28080, Note_on_c, 0, 58, 125
4, 28080, Note_on_c, 0, 57, 0
4, 28200, Note_on_c, 0, 60, 125
4, 28200, Note_on_c, 0, 58, 0
4, 28320, Note_on_c, 0, 61, 125
4, 28320, Note_on_c, 0, 60, 0
4, 28410, Note_on_c, 0, 61, 0
4, 28440, Note_on_c, 0, 65, 125
4, 28530, Note_on_c, 0, 65, 0
4, 28560, Note_on_c, 0, 65, 125
4, 28635, Note_on_c, 0, 65, 0
4, 28640, Note_on_c, 0, 64, 125
4, 28775, Note_on_c, 0, 64, 0
4, 29040, Note_on_c, 0, 65, 125
4, 29265, Note_on_c, 0, 65, 0
4, 29280, Note_on_c, 0, 60, 125
4, 29505, Note_on_c, 0, 60, 0
4, 29520, Note_on_c, 0, 57, 125
4, 29745, Note_on_c, 0, 57, 0
4, 29760, Note_on_c, 0, 64, 125
4, 29880, Note_on_c, 0, 65, 125
4, 29880, Note_on_c, 0, 64, 0
4, 30000, Note_on_c, 0, 64, 125
4, 30000, Note_on_c, 0, 65, 0
4, 30120, Note_on_c, 0, 62, 125
4, 30120, Note_on_c, 0, 64, 0
4, 30195, Note_on_c, 0, 62, 0
4, 30200, Note_on_c, 0, 64, 125
4, 30485, Note_on_c, 0, 64, 0
4, 30960, Note_on_c, 0, 65, 125
4, 31185, Note_on_c, 0, 65, 0
4, 31200, Note_on_c, 0, 60, 125
4, 31425, Note_on_c, 0, 60, 0
4, 31440, Note_on_c, 0, 57, 125
4, 31665, Note_on_c, 0, 57, 0
4, 31680, Note_on_c, 0, 55, 125
4, 31800, Note_on_c, 0, 57, 125
4, 31800, Note_on_c, 0, 55, 0
4, 31920, Note_on_c, 0, 58, 125
4, 31920, Note_on_c, 0, 57, 0
4, 32040, Note_on_c, 0, 60, 125
4, 32040, Note_on_c, 0, 58, 0
4, 32160, Note_on_c, 0, 61, 125
4, 32160, Note_on_c, 0, 60, 0
4, 32250, Note_on_c, 0, 61, 0
4, 32280, Note_on_c, 0, 65, 125
4, 32370, Note_on_c, 0, 65, 0
4, 32400, Note_on_c, 0, 65, 125
4, 32475, Note_on_c, 0, 65, 0
4, 32480, Note_on_c, 0, 64, 125
4, 32615, Note_on_c, 0, 64, 0
4, 32760, Note_on_c, 0, 62, 125
4, 32812, Note_on_c, 0, 62, 0
4, 32840, Note_on_c, 0, 62, 125
4, 32862, Note_on_c, 0, 62, 0
4, 32880, Note_on_c, 0, 62, 125
4, 32932, Note_on_c, 0, 62, 0
4, 32960, Note_on_c, 0, 62, 125
4, 32982, Note_on_c, 0, 62, 0
4, 33000, Note_on_c, 0, 62, 125
4, 33052, Note_on_c, 0, 62, 0
4, 33080, Note_on_c, 0, 62, 125
4, 33120, Note_on_c, 0, 70, 125
4, 33125, Note_on_c, 0, 62, 0
4, 33240, Note_on_c, 0, 69, 125
4, 33240, Note_on_c, 0, 70, 0
4, 33360, Note_on_c, 0, 67, 125
4, 33360, Note_on_c, 0, 69, 0
4, 33480, Note_on_c, 0, 69, 125
4, 33480, Note_on_c, 0, 67, 0
4, 33600, Note_on_c, 0, 62, 125
4, 33600, Note_on_c, 0, 69, 0
4, 33660, Note_on_c, 0, 62, 0
4, 33720, Note_on_c, 0, 62, 125
4, 33772, Note_on_c, 0, 62, 0
4, 33800, Note_on_c, 0, 62, 125
4, 33822, Note_on_c, 0, 62, 0
4, 33840, Note_on_c, 0, 62, 125
4, 33892, Note_on_c, 0, 62, 0
4, 33920, Note_on_c, 0, 62, 125
4, 33942, Note_on_c, 0, 62, 0
4, 33960, Note_on_c, 0, 62, 125
4, 34012, Note_on_c, 0, 62, 0
4, 34040, Note_on_c, 0, 62, 125
4, 34080, Note_on_c, 0, 70, 125
4, 34085, Note_on_c, 0, 62, 0
4, 34200, Note_on_c, 0, 72, 125
4, 34200, Note_on_c, 0, 70, 0
4, 34320, Note_on_c, 0, 69, 125
4, 34320, Note_on_c, 0, 72, 0
4, 34440, Note_on_c, 0, 67, 125
4, 34440, Note_on_c, 0, 69, 0
4, 34560, Note_on_c, 0, 67, 125
4, 34560, Note_on_c, 0, 67, 0
4, 34620, Note_on_c, 0, 67, 0
4, 34680, Note_on_c, 0, 74, 125
4, 34740, Note_on_c, 0, 72, 125
4, 34747, Note_on_c, 0, 74, 0
4, 34792, Note_on_c, 0, 72, 0
4, 34800, Note_on_c, 0, 77, 125
4, 34965, Note_on_c, 0, 73, 125
4, 34965, Note_on_c, 0, 77, 0
4, 34980, Note_on_c, 0, 74, 125
4, 34980, Note_on_c, 0, 73, 0
4, 35040, Note_on_c, 0, 74, 0
4, 35145, Note_on_c, 0, 71, 125
4, 35160, Note_on_c, 0, 72, 125
4, 35160, Note_on_c, 0, 71, 0
4, 35280, Note_on_c, 0, 77, 125
4, 35280, Note_on_c, 0, 72, 0
4, 35520, Note_on_c, 0, 77, 0
4, 35640, Note_on_c, 0, 69, 125
4, 35685, Note_on_c, 0, 69, 0
4, 35720, Note_on_c, 0, 69, 125
4, 35750, Note_on_c, 0, 69, 0
4, 35760, Note_on_c, 0, 69, 125
4, 35790, Note_on_c, 0, 69, 0
4, 35840, Note_on_c, 0, 69, 125
4, 35870, Note_on_c, 0, 69, 0
4, 35880, Note_on_c, 0, 69, 125
4, 35925, Note_on_c, 0, 69, 0
4, 35960, Note_on_c, 0, 69, 125
4, 35997, Note_on_c, 0, 69, 0
4, 36000, Note_on_c, 0, 70, 125
4, 36120, Note_on_c, 0, 69, 125
4, 36120, Note_on_c, 0, 70, 0
4, 36210, Note_on_c, 0, 69, 0
4, 36240, Note_on_c, 0, 69, 125
4, 36360, Note_on_c, 0, 69, 0
4, 36600, Note_on_c, 0, 69, 125
4, 36645, Note_on_c, 0, 69, 0
4, 36680, Note_on_c, 0, 69, 125
4, 36702, Note_on_c, 0, 69, 0
4, 36720, Note_on_c, 0, 69, 125
4, 36742, Note_on_c, 0, 69, 0
4, 36800, Note_on_c, 0, 69, 125
4, 36830, Note_on_c, 0, 69, 0
4, 36840, Note_on_c, 0, 69, 125
4, 36885, Note_on_c, 0, 69, 0
4, 36920, Note_on_c, 0, 69, 125
4, 36957, Note_on_c, 0, 69, 0
4, 36960, Note_on_c, 0, 70, 125
4, 37080, Note_on_c, 0, 72, 125
4, 37080, Note_on_c, 0, 70, 0
4, 37200, Note_on_c, 0, 69, 125
4, 37200, Note_on_c, 0, 72, 0
4, 37320, Note_on_c, 0, 67, 125
4, 37320, Note_on_c, 0, 69, 0
4, 37395, Note_on_c, 0, 67, 0
4, 37400, Note_on_c, 0, 65, 125
4, 37445, Note_on_c, 0, 65, 0
4, 37560, Note_on_c, 0, 69, 125
4, 37605, Note_on_c, 0, 69, 0
4, 37640, Note_on_c, 0, 69, 125
4, 37670, Note_on_c, 0, 69, 0
4, 37680, Note_on_c, 0, 69, 125
4, 37710, Note_on_c, 0, 69, 0
4, 37760, Note_on_c, 0, 69, 125
4, 37790, Note_on_c, 0, 69, 0
4, 37800, Note_on_c, 0, 69, 125
4, 37845, Note_on_c, 0, 69, 0
4, 37880, Note_on_c, 0, 69, 125
4, 37917, Note_on_c, 0, 69, 0
4, 37920, Note_on_c, 0, 70, 125
4, 38040, Note_on_c, 0, 69, 125
4, 38040, Note_on_c, 0, 70, 0
4, 38130, Note_on_c, 0, 69, 0
4, 38160, Note_on_c, 0, 69, 125
4, 38250, Note_on_c, 0, 69, 0
4, 38280, Note_on_c, 0, 69, 125
4, 38340, Note_on_c, 0, 67, 125
4, 38340, Note_on_c, 0, 69, 0
4, 38452, Note_on_c, 0, 67, 0
4, 38460, Note_on_c, 0, 65, 125
4, 38550, Note_on_c, 0, 65, 0
4, 38580, Note_on_c, 0, 65, 125
4, 38640, Note_on_c, 0, 65, 0
4, 38745, Note_on_c, 0, 68, 125
4, 38760, Note_on_c, 0, 69, 125
4, 38760, Note_on_c, 0, 68, 0
4, 38880, Note_on_c, 0, 67, 125
4, 38880, Note_on_c, 0, 69, 0
4, 39000, Note_on_c, 0, 65, 125
4, 39000, Note_on_c, 0, 67, 0
4, 39120, Note_on_c, 0, 67, 125
4, 39120, Note_on_c, 0, 65, 0
4, 39240, Note_on_c, 0, 60, 125
4, 39240, Note_on_c, 0, 67, 0
4, 39322, Note_on_c, 0, 60, 0
4, 39345, Note_on_c, 0, 68, 125
4, 39360, Note_on_c, 0, 69, 125
4, 39361, Note_on_c, 0, 68, 0
4, 39450, Note_on_c, 0, 69, 0
4, 39480, Note_on_c, 0, 69, 125
4, 39525, Note_on_c, 0, 69, 0
4, 39560, Note_on_c, 0, 69, 125
4, 39590, Note_on_c, 0, 69, 0
4, 39600, Note_on_c, 0, 69, 125
4, 39630, Note_on_c, 0, 69, 0
4, 39680, Note_on_c, 0, 69, 125
4, 39710, Note_on_c, 0, 69, 0
4, 39720, Note_on_c, 0, 69, 125
4, 39765, Note_on_c, 0, 69, 0
4, 39800, Note_on_c, 0, 69, 125
4, 39837, Note_on_c, 0, 69, 0
4, 39840, Note_on_c, 0, 70, 125
4, 39960, Note_on_c, 0, 69, 125
4, 39960, Note_on_c, 0, 70, 0
4, 40050, Note_on_c, 0, 69, 0
4, 40080, Note_on_c, 0, 69, 125
4, 40200, Note_on_c, 0, 69, 0
4, 40440, Note_on_c, 0, 69, 125
4, 40485, Note_on_c, 0, 69, 0
4, 40520, Note_on_c, 0, 69, 125
4, 40542, Note_on_c, 0, 69, 0
4, 40560, Note_on_c, 0, 69, 125
4, 40582, Note_on_c, 0, 69, 0
4, 40640, Note_on_c, 0, 69, 125
4, 40670, Note_on_c, 0, 69, 0
4, 40680, Note_on_c, 0, 69, 125
4, 40725, Note_on_c, 0, 69, 0
4, 40760, Note_on_c, 0, 69, 125
4, 40797, Note_on_c, 0, 69, 0
4, 40800, Note_on_c, 0, 70, 125
4, 40920, Note_on_c, 0, 72, 125
4, 40920, Note_on_c, 0, 70, 0
4, 41040, Note_on_c, 0, 69, 125
4, 41040, Note_on_c, 0, 72, 0
4, 41160, Note_on_c, 0, 67, 125
4, 41160, Note_on_c, 0, 69, 0
4, 41235, Note_on_c, 0, 67, 0
4, 41240, Note_on_c, 0, 65, 125
4, 41285, Note_on_c, 0, 65, 0
4, 41400, Note_on_c, 0, 69, 125
4, 41445, Note_on_c, 0, 69, 0
4, 41480, Note_on_c, 0, 69, 125
4, 41510, Note_on_c, 0, 69, 0
4, 41520, Note_on_c, 0, 69, 125
4, 41550, Note_on_c, 0, 69, 0
4, 41600, Note_on_c, 0, 69, 125
4, 41630, Note_on_c, 0, 69, 0
4, 41640, Note_on_c, 0, 69, 125
4, 41685, Note_on_c, 0, 69, 0
4, 41720, Note_on_c, 0, 69, 125
4, 41757, Note_on_c, 0, 69, 0
4, 41760, Note_on_c, 0, 70, 125
4, 41880, Note_on_c, 0, 69, 125
4, 41880, Note_on_c, 0, 70, 0
4, 41970, Note_on_c, 0, 69, 0
4, 42000, Note_on_c, 0, 69, 125
4, 42090, Note_on_c, 0, 69, 0
4, 42120, Note_on_c, 0, 69, 125
4, 42180, Note_on_c, 0, 67, 125
4, 42180, Note_on_c, 0, 69, 0
4, 42292, Note_on_c, 0, 67, 0
4, 42300, Note_on_c, 0, 65, 125
4, 42390, Note_on_c, 0, 65, 0
4, 42420, Note_on_c, 0, 65, 125
4, 42480, Note_on_c, 0, 65, 0
4, 42585, Note_on_c, 0, 68, 125
4, 42600, Note_on_c, 0, 69, 125
4, 42600, Note_on_c, 0, 68, 0
4, 42720, Note_on_c, 0, 67, 125
4, 42720, Note_on_c, 0, 69, 0
4, 42840, Note_on_c, 0, 65, 125
4, 42840, Note_on_c, 0, 67, 0
4, 42960, Note_on_c, 0, 67, 125
4, 42960, Note_on_c, 0, 65, 0
4, 43080, Note_on_c, 0, 60, 125
4, 43080, Note_on_c, 0, 67, 0
4, 43192, Note_on_c, 0, 60, 0
4, 43200, Note_on_c, 0, 69, 125
4, 43290, Note_on_c, 0, 69, 0
4, 43320, Note_on_c, 0, 69, 125
4, 43357, Note_on_c, 0, 69, 0
4, 43360, Note_on_c, 0, 67, 125
4, 43397, Note_on_c, 0, 67, 0
4, 43400, Note_on_c, 0, 65, 125
4, 43440, Note_on_c, 0, 67, 125
4, 43445, Note_on_c, 0, 65, 0
4, 43507, Note_on_c, 0, 67, 0
4, 43515, Note_on_c, 0, 69, 125
4, 43560, Note_on_c, 0, 69, 0
4, 43760, Note_on_c, 0, 69, 125
4, 43800, Note_on_c, 0, 72, 125
4, 43805, Note_on_c, 0, 69, 0
4, 43875, Note_on_c, 0, 72, 0
4, 43880, Note_on_c, 0, 69, 125
4, 43920, Note_on_c, 0, 72, 125
4, 43925, Note_on_c, 0, 69, 0
4, 43995, Note_on_c, 0, 72, 0
4, 44000, Note_on_c, 0, 69, 125
4, 44040, Note_on_c, 0, 72, 125
4, 44045, Note_on_c, 0, 69, 0
4, 44115, Note_on_c, 0, 69, 125
4, 44115, Note_on_c, 0, 72, 0
4, 44152, Note_on_c, 0, 69, 0
4, 44160, Note_on_c, 0, 74, 125
4, 44280, Note_on_c, 0, 72, 125
4, 44280, Note_on_c, 0, 74, 0
4, 44400, Note_on_c, 0, 69, 125
4, 44400, Note_on_c, 0, 72, 0
4, 44480, Note_on_c, 0, 72, 125
4, 44490, Note_on_c, 0, 69, 0
4, 44502, Note_on_c, 0, 72, 0
4, 45000, Note_on_c, 0, 72, 125
4, 45045, Note_on_c, 0, 72, 0
4, 45080, Note_on_c, 0, 69, 125
4, 45240, Note_on_c, 0, 69, 0
4, 45680, Note_on_c, 0, 69, 125
4, 45720, Note_on_c, 0, 72, 125
4, 45725, Note_on_c, 0, 69, 0
4, 45795, Note_on_c, 0, 72, 0
4, 45800, Note_on_c, 0, 69, 125
4, 45840, Note_on_c, 0, 72, 125
4, 45845, Note_on_c, 0, 69, 0
4, 45915, Note_on_c, 0, 72, 0
4, 45920, Note_on_c, 0, 69, 125
4, 45960, Note_on_c, 0, 72, 125
4, 45965, Note_on_c, 0, 69, 0
4, 46035, Note_on_c, 0, 72, 0
4, 46040, Note_on_c, 0, 69, 125
4, 46080, Note_on_c, 0, 74, 125
4, 46085, Note_on_c, 0, 69, 0
4, 46200, Note_on_c, 0, 72, 125
4, 46200, Note_on_c, 0, 74, 0
4, 46275, Note_on_c, 0, 72, 0
4, 46320, Note_on_c, 0, 72, 125
4, 46395, Note_on_c, 0, 72, 0
4, 46400, Note_on_c, 0, 74, 125
4, 46557, Note_on_c, 0, 74, 0
4, 46680, Note_on_c, 0, 76, 125
4, 46755, Note_on_c, 0, 76, 0
4, 46760, Note_on_c, 0, 74, 125
4, 46800, Note_on_c, 0, 72, 125
4, 46805, Note_on_c, 0, 74, 0
4, 46920, Note_on_c, 0, 69, 125
4, 46920, Note_on_c, 0, 72, 0
4, 46995, Note_on_c, 0, 69, 0
4, 47000, Note_on_c, 0, 72, 125
4, 47360, Note_on_c, 0, 69, 125
4, 47362, Note_on_c, 0, 72, 0
4, 47400, Note_on_c, 0, 72, 125
4, 47405, Note_on_c, 0, 69, 0
4, 47512, Note_on_c, 0, 72, 0
4, 47520, Note_on_c, 0, 73, 125
4, 47640, Note_on_c, 0, 70, 125
4, 47685, Note_on_c, 0, 70, 0
4, 47720, Note_on_c, 0, 70, 125
4, 47750, Note_on_c, 0, 70, 0
4, 47760, Note_on_c, 0, 70, 125
4, 47790, Note_on_c, 0, 70, 0
4, 47840, Note_on_c, 0, 70, 125
4, 47870, Note_on_c, 0, 70, 0
4, 47880, Note_on_c, 0, 70, 125
4, 47925, Note_on_c, 0, 70, 0
4, 47960, Note_on_c, 0, 70, 125
4, 47997, Note_on_c, 0, 70, 0
4, 48000, Note_on_c, 0, 71, 125
4, 48000, Note_on_c, 0, 73, 0
4, 48120, Note_on_c, 0, 70, 125
4, 48120, Note_on_c, 0, 71, 0
4, 48210, Note_on_c, 0, 70, 0
4, 48240, Note_on_c, 0, 70, 125
4, 48360, Note_on_c, 0, 70, 0
4, 48600, Note_on_c, 0, 70, 125
4, 48645, Note_on_c, 0, 70, 0
4, 48680, Note_on_c, 0, 70, 125
4, 48702, Note_on_c, 0, 70, 0
4, 48720, Note_on_c, 0, 70, 125
4, 48742, Note_on_c, 0, 70, 0
4, 48800, Note_on_c, 0, 70, 125
4, 48830, Note_on_c, 0, 70, 0
4, 48840, Note_on_c, 0, 70, 125
4, 48885, Note_on_c, 0, 70, 0
4, 48920, Note_on_c, 0, 70, 125
4, 48957, Note_on_c, 0, 70, 0
4, 48960, Note_on_c, 0, 71, 125
4, 49080, Note_on_c, 0, 73, 125
4, 49080, Note_on_c, 0, 71, 0
4, 49200, Note_on_c, 0, 70, 125
4, 49200, Note_on_c, 0, 73, 0
4, 49320, Note_on_c, 0, 68, 125
4, 49320, Note_on_c, 0, 70, 0
4, 49395, Note_on_c, 0, 68, 0
4, 49400, Note_on_c, 0, 66, 125
4, 49445, Note_on_c, 0, 66, 0
4, 49560, Note_on_c, 0, 70, 125
4, 49605, Note_on_c, 0, 70, 0
4, 49640, Note_on_c, 0, 70, 125
4, 49670, Note_on_c, 0, 70, 0
4, 49680, Note_on_c, 0, 70, 125
4, 49710, Note_on_c, 0, 70, 0
4, 49760, Note_on_c, 0, 70, 125
4, 49790, Note_on_c, 0, 70, 0
4, 49800, Note_on_c, 0, 70, 125
4, 49845, Note_on_c, 0, 70, 0
4, 49880, Note_on_c, 0, 70, 125
4, 49917, Note_on_c, 0, 70, 0
4, 49920, Note_on_c, 0, 71, 125
4, 50040, Note_on_c, 0, 70, 125
4, 50040, Note_on_c, 0, 71, 0
4, 50130, Note_on_c, 0, 70, 0
4, 50160, Note_on_c, 0, 70, 125
4, 50250, Note_on_c, 0, 70, 0
4, 50280, Note_on_c, 0, 70, 125
4, 50340, Note_on_c, 0, 68, 125
4, 50340, Note_on_c, 0, 70, 0
4, 50452, Note_on_c, 0, 68, 0
4, 50460, Note_on_c, 0, 66, 125
4, 50550, Note_on_c, 0, 66, 0
4, 50580, Note_on_c, 0, 66, 125
4, 50640, Note_on_c, 0, 66, 0
4, 50745, Note_on_c, 0, 69, 125
4, 50760, Note_on_c, 0, 70, 125
4, 50760, Note_on_c, 0, 69, 0
4, 50880, Note_on_c, 0, 68, 125
4, 50880, Note_on_c, 0, 70, 0
4, 51000, Note_on_c, 0, 66, 125
4, 51000, Note_on_c, 0, 68, 0
4, 51120, Note_on_c, 0, 68, 125
4, 51120, Note_on_c, 0, 66, 0
4, 51240, Note_on_c, 0, 61, 125
4, 51240, Note_on_c, 0, 68, 0
4, 51322, Note_on_c, 0, 61, 0
4, 51345, Note_on_c, 0, 69, 125
4, 51360, Note_on_c, 0, 70, 125
4, 51361, Note_on_c, 0, 69, 0
4, 51450, Note_on_c, 0, 70, 0
4, 51480, Note_on_c, 0, 70, 125
4, 51525, Note_on_c, 0, 70, 0
4, 51560, Note_on_c, 0, 70, 125
4, 51590, Note_on_c, 0, 70, 0
4, 51600, Note_on_c, 0, 70, 125
4, 51630, Note_on_c, 0, 70, 0
4, 51680, Note_on_c, 0, 70, 125
4, 51710, Note_on_c, 0, 70, 0
4, 51720, Note_on_c, 0, 70, 125
4, 51765, Note_on_c, 0, 70, 0
4, 51800, Note_on_c, 0, 70, 125
4, 51837, Note_on_c, 0, 70, 0
4, 51840, Note_on_c, 0, 71, 125
4, 51960, Note_on_c, 0, 70, 125
4, 51960, Note_on_c, 0, 71, 0
4, 52050, Note_on_c, 0, 70, 0
4, 52080, Note_on_c, 0, 70, 125
4, 52200, Note_on_c, 0, 70, 0
4, 52440, Note_on_c, 0, 70, 125
4, 52485, Note_on_c, 0, 70, 0
4, 52520, Note_on_c, 0, 70, 125
4, 52542, Note_on_c, 0, 70, 0
4, 52560, Note_on_c, 0, 70, 125
4, 52582, Note_on_c, 0, 70, 0
4, 52640, Note_on_c, 0, 70, 125
4, 52670, Note_on_c, 0, 70, 0
4, 52680, Note_on_c, 0, 70, 125
4, 52725, Note_on_c, 0, 70, 0
4, 52760, Note_on_c, 0, 70, 125
4, 52797, Note_on_c, 0, 70, 0
4, 52800, Note_on_c, 0, 71, 125
4, 52920, Note_on_c, 0, 73, 125
4, 52920, Note_on_c, 0, 71, 0
4, 53040, Note_on_c, 0, 70, 125
4, 53040, Note_on_c, 0, 73, 0
4, 53160, Note_on_c, 0, 68, 125
4, 53160, Note_on_c, 0, 70, 0
4, 53235, Note_on_c, 0, 68, 0
4, 53240, Note_on_c, 0, 66, 125
4, 53285, Note_on_c, 0, 66, 0
4, 53400, Note_on_c, 0, 70, 125
4, 53445, Note_on_c, 0, 70, 0
4, 53480, Note_on_c, 0, 70, 125
4, 53510, Note_on_c, 0, 70, 0
4, 53520, Note_on_c, 0, 70, 125
4, 53550, Note_on_c, 0, 70, 0
4, 53600, Note_on_c, 0, 70, 125
4, 53630, Note_on_c, 0, 70, 0
4, 53640, Note_on_c, 0, 70, 125
4, 53685, Note_on_c, 0, 70, 0
4, 53720, Note_on_c, 0, 70, 125
4, 53757, Note_on_c, 0, 70, 0
4, 53760, Note_on_c, 0, 71, 125
4, 53880, Note_on_c, 0, 70, 125
4, 53880, Note_on_c, 0, 71, 0
4, 53970, Note_on_c, 0, 70, 0
4, 54000, Note_on_c, 0, 70, 125
4, 54090, Note_on_c, 0, 70, 0
4, 54120, Note_on_c, 0, 70, 125
4, 54180, Note_on_c, 0, 68, 125
4, 54180, Note_on_c, 0, 70, 0
4, 54292, Note_on_c, 0, 68, 0
4, 54300, Note_on_c, 0, 66, 125
4, 54390, Note_on_c, 0, 66, 0
4, 54420, Note_on_c, 0, 66, 125
4, 54480, Note_on_c, 0, 66, 0
4, 54585, Note_on_c, 0, 69, 125
4, 54600, Note_on_c, 0, 70, 125
4, 54600, Note_on_c, 0, 69, 0
4, 54720, Note_on_c, 0, 68, 125
4, 54720, Note_on_c, 0, 70, 0
4, 54825, Note_on_c, 0, 72, 125
4, 54840, Note_on_c, 0, 73, 125
4, 54840, Note_on_c, 0, 66, 125
4, 54840, Note_on_c, 0, 72, 0
4, 54840, Note_on_c, 0, 68, 0
4, 54960, Note_on_c, 0, 70, 125
4, 54960, Note_on_c, 0, 68, 125
4, 54960, Note_on_c, 0, 73, 0
4, 54960, Note_on_c, 0, 66, 0
4, 55080, Note_on_c, 0, 68, 125
4, 55080, Note_on_c, 0, 61, 125
4, 55080, Note_on_c, 0, 70, 0
4, 55080, Note_on_c, 0, 68, 0
4, 55192, Note_on_c, 0, 61, 0
4, 55200, Note_on_c, 0, 70, 125
4, 55200, Note_on_c, 0, 68, 0
4, 55290, Note_on_c, 0, 70, 0
4, 55320, Note_on_c, 0, 70, 125
4, 55365, Note_on_c, 0, 70, 0
4, 55400, Note_on_c, 0, 70, 125
4, 55430, Note_on_c, 0, 70, 0
4, 55440, Note_on_c, 0, 70, 125
4, 55470, Note_on_c, 0, 70, 0
4, 55520, Note_on_c, 0, 70, 125
4, 55550, Note_on_c, 0, 70, 0
4, 55560, Note_on_c, 0, 70, 125
4, 55605, Note_on_c, 0, 70, 0
4, 55640, Note_on_c, 0, 70, 125
4, 55677, Note_on_c, 0, 70, 0
4, 55680, Note_on_c, 0, 71, 125
4, 55800, Note_on_c, 0, 70, 125
4, 55800, Note_on_c, 0, 71, 0
4, 55890, Note_on_c, 0, 70, 0
4, 55920, Note_on_c, 0, 70, 125
4, 56040, Note_on_c, 0, 70, 0
4, 56280, Note_on_c, 0, 70, 125
4, 56325, Note_on_c, 0, 70, 0
4, 56360, Note_on_c, 0, 70, 125
4, 56382, Note_on_c, 0, 70, 0
4, 56400, Note_on_c, 0, 70, 125
4, 56422, Note_on_c, 0, 70, 0
4, 56480, Note_on_c, 0, 70, 125
4, 56510, Note_on_c, 0, 70, 0
4, 56520, Note_on_c, 0, 70, 125
4, 56565, Note_on_c, 0, 70, 0
4, 56600, Note_on_c, 0, 70, 125
4, 56637, Note_on_c, 0, 70, 0
4, 56640, Note_on_c, 0, 71, 125
4, 56760, Note_on_c, 0, 73, 125
4, 56760, Note_on_c, 0, 71, 0
4, 56880, Note_on_c, 0, 70, 125
4, 56880, Note_on_c, 0, 73, 0
4, 57000, Note_on_c, 0, 68, 125
4, 57000, Note_on_c, 0, 70, 0
4, 57075, Note_on_c, 0, 68, 0
4, 57080, Note_on_c, 0, 66, 125
4, 57125, Note_on_c, 0, 66, 0
4, 57240, Note_on_c, 0, 70, 125
4, 57285, Note_on_c, 0, 70, 0
4, 57320, Note_on_c, 0, 70, 125
4, 57350, Note_on_c, 0, 70, 0
4, 57360, Note_on_c, 0, 70, 125
4, 57390, Note_on_c, 0, 70, 0
4, 57440, Note_on_c, 0, 70, 125
4, 57470, Note_on_c, 0, 70, 0
4, 57480, Note_on_c, 0, 70, 125
4, 57525, Note_on_c, 0, 70, 0
4, 57560, Note_on_c, 0, 70, 125
4, 57597, Note_on_c, 0, 70, 0
4, 57600, Note_on_c, 0, 71, 125
4, 57720, Note_on_c, 0, 70, 125
4, 57720, Note_on_c, 0, 71, 0
4, 57810, Note_on_c, 0, 70, 0
4, 57840, Note_on_c, 0, 70, 125
4, 57930, Note_on_c, 0, 70, 0
4, 57960, Note_on_c, 0, 70, 125
4, 58020, Note_on_c, 0, 68, 125
4, 58020, Note_on_c, 0, 70, 0
4, 58132, Note_on_c, 0, 68, 0
4, 58140, Note_on_c, 0, 66, 125
4, 58230, Note_on_c, 0, 66, 0
4, 58260, Note_on_c, 0, 66, 125
4, 58320, Note_on_c, 0, 66, 0
4, 58425, Note_on_c, 0, 69, 125
4, 58440, Note_on_c, 0, 70, 125
4, 58440, Note_on_c, 0, 69, 0
4, 58560, Note_on_c, 0, 68, 125
4, 58560, Note_on_c, 0, 70, 0
4, 58680, Note_on_c, 0, 66, 125
4, 58680, Note_on_c, 0, 68, 0
4, 58800, Note_on_c, 0, 68, 125
4, 58800, Note_on_c, 0, 66, 0
4, 58920, Note_on_c, 0, 61, 125
4, 58920, Note_on_c, 0, 68, 0
4, 59002, Note_on_c, 0, 61, 0
4, 59025, Note_on_c, 0, 69, 125
4, 59040, Note_on_c, 0, 70, 125
4, 59041, Note_on_c, 0, 69, 0
4, 59130, Note_on_c, 0, 70, 0
4, 59160, Note_on_c, 0, 70, 125
4, 59205, Note_on_c, 0, 70, 0
4, 59240, Note_on_c, 0, 70, 125
4, 59270, Note_on_c, 0, 70, 0
4, 59280, Note_on_c, 0, 70, 125
4, 59310, Note_on_c, 0, 70, 0
4, 59360, Note_on_c, 0, 70, 125
4, 59390, Note_on_c, 0, 70, 0
4, 59400, Note_on_c, 0, 70, 125
4, 59445, Note_on_c, 0, 70, 0
4, 59480, Note_on_c, 0, 70, 125
4, 59517, Note_on_c, 0, 70, 0
4, 59520, Note_on_c, 0, 71, 125
4, 59640, Note_on_c, 0, 70, 125
4, 59640, Note_on_c, 0, 71, 0
4, 59730, Note_on_c, 0, 70, 0
4, 59760, Note_on_c, 0, 70, 125
4, 59880, Note_on_c, 0, 70, 0
4, 60120, Note_on_c, 0, 70, 125
4, 60165, Note_on_c, 0, 70, 0
4, 60200, Note_on_c, 0, 70, 125
4, 60222, Note_on_c, 0, 70, 0
4, 60240, Note_on_c, 0, 70, 125
4, 60262, Note_on_c, 0, 70, 0
4, 60320, Note_on_c, 0, 70, 125
4, 60350, Note_on_c, 0, 70, 0
4, 60360, Note_on_c, 0, 70, 125
4, 60405, Note_on_c, 0, 70, 0
4, 60440, Note_on_c, 0, 70, 125
4, 60477, Note_on_c, 0, 70, 0
4, 60480, Note_on_c, 0, 71, 125
4, 60600, Note_on_c, 0, 73, 125
4, 60600, Note_on_c, 0, 71, 0
4, 60720, Note_on_c, 0, 70, 125
4, 60720, Note_on_c, 0, 73, 0
4, 60840, Note_on_c, 0, 68, 125
4, 60840, Note_on_c, 0, 70, 0
4, 60915, Note_on_c, 0, 68, 0
4, 60920, Note_on_c, 0, 66, 125
4, 60965, Note_on_c, 0, 66, 0
4, 61080, Note_on_c, 0, 70, 125
4, 61125, Note_on_c, 0, 70, 0
4, 61160, Note_on_c, 0, 70, 125
4, 61190, Note_on_c, 0, 70, 0
4, 61200, Note_on_c, 0, 70, 125
4, 61230, Note_on_c, 0, 70, 0
4, 61280, Note_on_c, 0, 70, 125
4, 61310, Note_on_c, 0, 70, 0
4, 61320, Note_on_c, 0, 70, 125
4, 61365, Note_on_c, 0, 70, 0
4, 61400, Note_on_c, 0, 70, 125
4, 61437, Note_on_c, 0, 70, 0
4, 61440, Note_on_c, 0, 71, 125
4, 61560, Note_on_c, 0, 70, 125
4, 61560, Note_on_c, 0, 71, 0
4, 61650, Note_on_c, 0, 70, 0
4, 61680, Note_on_c, 0, 70, 125
4, 61770, Note_on_c, 0, 70, 0
4, 61800, Note_on_c, 0, 70, 125
4, 61860, Note_on_c, 0, 68, 125
4, 61860, Note_on_c, 0, 70, 0
4, 61972, Note_on_c, 0, 68, 0
4, 61980, Note_on_c, 0, 66, 125
4, 62070, Note_on_c, 0, 66, 0
4, 62100, Note_on_c, 0, 66, 125
4, 62160, Note_on_c, 0, 66, 0
4, 62265, Note_on_c, 0, 69, 125
4, 62280, Note_on_c, 0, 70, 125
4, 62280, Note_on_c, 0, 69, 0
4, 62400, Note_on_c, 0, 68, 125
4, 62400, Note_on_c, 0, 70, 0
4, 62505, Note_on_c, 0, 72, 125
4, 62520, Note_on_c, 0, 66, 125
4, 62520, Note_on_c, 0, 73, 125
4, 62520, Note_on_c, 0, 72, 0
4, 62520, Note_on_c, 0, 68, 0
4, 62640, Note_on_c, 0, 68, 125
4, 62640, Note_on_c, 0, 70, 125
4, 62640, Note_on_c, 0, 66, 0
4, 62640, Note_on_c, 0, 73, 0
4, 62760, Note_on_c, 0, 61, 125
4, 62760, Note_on_c, 0, 68, 125
4, 62760, Note_on_c, 0, 68, 0
4, 62760, Note_on_c, 0, 70, 0
4, 62872, Note_on_c, 0, 61, 0
4, 62880, Note_on_c, 0, 66, 125
4, 62880, Note_on_c, 0, 68, 0
4, 62970, Note_on_c, 0, 66, 0
4, 62970, End_track
5, 0, Start_track
5, 0, Title_t, "Acou Guitar"
5, 0, Control_c, 1, 120, 0
5, 7, Control_c, 1, 121, 0
5, 30, Program_c, 1, 25
5, 37, Control_c, 1, 11, 127
5, 45, Control_c, 1, 91, 100
5, 52, Control_c, 1, 93, 55
5, 60, Control_c, 1, 94, 0
5, 67, Control_c, 1, 10, 84
5, 75, Control_c, 1, 100, 0
5, 82, Control_c, 1, 101, 0
5, 90, Control_c, 1, 6, 2
5, 2880, Control_c, 1, 7, 100
5, 2880, Note_on_c, 1, 60, 88
5, 2880, Note_on_c, 1, 65, 91
5, 2880, Note_on_c, 1, 57, 91
5, 2968, Note_on_c, 1, 57, 0
5, 2968, Note_on_c, 1, 65, 0
5, 2968, Note_on_c, 1, 60, 0
5, 3000, Note_on_c, 1, 57, 67
5, 3000, Note_on_c, 1, 60, 74
5, 3000, Note_on_c, 1, 65, 73
5, 3044, Note_on_c, 1, 65, 0
5, 3044, Note_on_c, 1, 60, 0
5, 3044, Note_on_c, 1, 57, 0
5, 3075, Note_on_c, 1, 57, 85
5, 3075, Note_on_c, 1, 65, 89
5, 3075, Note_on_c, 1, 60, 90
5, 3163, Note_on_c, 1, 60, 0
5, 3163, Note_on_c, 1, 65, 0
5, 3163, Note_on_c, 1, 57, 0
5, 3195, Note_on_c, 1, 57, 63
5, 3195, Note_on_c, 1, 60, 72
5, 3195, Note_on_c, 1, 65, 69
5, 3224, Note_on_c, 1, 65, 0
5, 3224, Note_on_c, 1, 60, 0
5, 3224, Note_on_c, 1, 57, 0
5, 3240, Note_on_c, 1, 57, 78
5, 3240, Note_on_c, 1, 60, 96
5, 3240, Note_on_c, 1, 65, 89
5, 3284, Note_on_c, 1, 57, 0
5, 3315, Note_on_c, 1, 57, 65
5, 3343, Note_on_c, 1, 65, 0
5, 3343, Note_on_c, 1, 60, 0
5, 3344, Note_on_c, 1, 57, 0
5, 3360, Control_c, 1, 64, 0
5, 3360, Control_c, 1, 64, 127
5, 3360, Note_on_c, 1, 60, 91
5, 3360, Note_on_c, 1, 57, 88
5, 3360, Note_on_c, 1, 65, 91
5, 3448, Note_on_c, 1, 65, 0
5, 3448, Note_on_c, 1, 57, 0
5, 3448, Note_on_c, 1, 60, 0
5, 3480, Note_on_c, 1, 65, 73
5, 3480, Note_on_c, 1, 60, 74
5, 3480, Note_on_c, 1, 57, 67
5, 3524, Note_on_c, 1, 57, 0
5, 3524, Note_on_c, 1, 60, 0
5, 3524, Note_on_c, 1, 65, 0
5, 3555, Note_on_c, 1, 60, 90
5, 3555, Note_on_c, 1, 65, 89
5, 3555, Note_on_c, 1, 57, 85
5, 3643, Note_on_c, 1, 57, 0
5, 3643, Note_on_c, 1, 65, 0
5, 3643, Note_on_c, 1, 60, 0
5, 3675, Note_on_c, 1, 60, 72
5, 3675, Note_on_c, 1, 57, 63
5, 3675, Note_on_c, 1, 65, 69
5, 3704, Note_on_c, 1, 65, 0
5, 3704, Note_on_c, 1, 57, 0
5, 3704, Note_on_c, 1, 60, 0
5, 3720, Note_on_c, 1, 57, 78
5, 3720, Note_on_c, 1, 60, 96
5, 3720, Note_on_c, 1, 65, 89
5, 3764, Note_on_c, 1, 57, 0
5, 3795, Note_on_c, 1, 57, 65
5, 3823, Note_on_c, 1, 65, 0
5, 3823, Note_on_c, 1, 60, 0
5, 3824, Note_on_c, 1, 57, 0
5, 3840, Control_c, 1, 64, 0
5, 3840, Control_c, 1, 64, 127
5, 3840, Note_on_c, 1, 60, 91
5, 3840, Note_on_c, 1, 57, 88
5, 3840, Note_on_c, 1, 64, 91
5, 3928, Note_on_c, 1, 64, 0
5, 3928, Note_on_c, 1, 57, 0
5, 3928, Note_on_c, 1, 60, 0
5, 3960, Note_on_c, 1, 60, 74
5, 3960, Note_on_c, 1, 57, 67
5, 3960, Note_on_c, 1, 64, 73
5, 4004, Note_on_c, 1, 64, 0
5, 4004, Note_on_c, 1, 57, 0
5, 4004, Note_on_c, 1, 60, 0
5, 4035, Note_on_c, 1, 57, 85
5, 4035, Note_on_c, 1, 60, 90
5, 4035, Note_on_c, 1, 64, 89
5, 4123, Note_on_c, 1, 64, 0
5, 4123, Note_on_c, 1, 60, 0
5, 4123, Note_on_c, 1, 57, 0
5, 4155, Note_on_c, 1, 60, 72
5, 4155, Note_on_c, 1, 57, 63
5, 4155, Note_on_c, 1, 64, 69
5, 4184, Note_on_c, 1, 64, 0
5, 4184, Note_on_c, 1, 57, 0
5, 4184, Note_on_c, 1, 60, 0
5, 4200, Note_on_c, 1, 57, 78
5, 4200, Note_on_c, 1, 60, 96
5, 4200, Note_on_c, 1, 64, 89
5, 4244, Note_on_c, 1, 57, 0
5, 4275, Note_on_c, 1, 57, 65
5, 4303, Note_on_c, 1, 64, 0
5, 4303, Note_on_c, 1, 60, 0
5, 4304, Note_on_c, 1, 57, 0
5, 4320, Control_c, 1, 64, 0
5, 4320, Control_c, 1, 64, 127
5, 4320, Note_on_c, 1, 60, 91
5, 4320, Note_on_c, 1, 57, 88
5, 4320, Note_on_c, 1, 64, 91
5, 4408, Note_on_c, 1, 64, 0
5, 4408, Note_on_c, 1, 57, 0
5, 4408, Note_on_c, 1, 60, 0
5, 4440, Note_on_c, 1, 60, 74
5, 4440, Note_on_c, 1, 57, 67
5, 4440, Note_on_c, 1, 64, 73
5, 4484, Note_on_c, 1, 64, 0
5, 4484, Note_on_c, 1, 57, 0
5, 4484, Note_on_c, 1, 60, 0
5, 4515, Note_on_c, 1, 57, 85
5, 4515, Note_on_c, 1, 60, 90
5, 4515, Note_on_c, 1, 64, 89
5, 4603, Note_on_c, 1, 64, 0
5, 4603, Note_on_c, 1, 60, 0
5, 4603, Note_on_c, 1, 57, 0
5, 4635, Note_on_c, 1, 60, 72
5, 4635, Note_on_c, 1, 57, 63
5, 4635, Note_on_c, 1, 64, 69
5, 4664, Note_on_c, 1, 64, 0
5, 4664, Note_on_c, 1, 57, 0
5, 4664, Note_on_c, 1, 60, 0
5, 4680, Note_on_c, 1, 57, 78
5, 4680, Note_on_c, 1, 60, 96
5, 4680, Note_on_c, 1, 64, 89
5, 4724, Note_on_c, 1, 57, 0
5, 4755, Note_on_c, 1, 57, 65
5, 4783, Note_on_c, 1, 64, 0
5, 4783, Note_on_c, 1, 60, 0
5, 4784, Note_on_c, 1, 57, 0
5, 4800, Control_c, 1, 64, 0
5, 4800, Control_c, 1, 64, 127
5, 4800, Note_on_c, 1, 60, 91
5, 4800, Note_on_c, 1, 57, 88
5, 4800, Note_on_c, 1, 63, 91
5, 4888, Note_on_c, 1, 63, 0
5, 4888, Note_on_c, 1, 57, 0
5, 4888, Note_on_c, 1, 60, 0
5, 4920, Note_on_c, 1, 60, 74
5, 4920, Note_on_c, 1, 57, 67
5, 4920, Note_on_c, 1, 63, 73
5, 4964, Note_on_c, 1, 63, 0
5, 4964, Note_on_c, 1, 57, 0
5, 4964, Note_on_c, 1, 60, 0
5, 4995, Note_on_c, 1, 57, 85
5, 4995, Note_on_c, 1, 60, 90
5, 4995, Note_on_c, 1, 63, 89
5, 5083, Note_on_c, 1, 63, 0
5, 5083, Note_on_c, 1, 60, 0
5, 5083, Note_on_c, 1, 57, 0
5, 5115, Note_on_c, 1, 60, 72
5, 5115, Note_on_c, 1, 57, 63
5, 5115, Note_on_c, 1, 63, 69
5, 5144, Note_on_c, 1, 63, 0
5, 5144, Note_on_c, 1, 57, 0
5, 5144, Note_on_c, 1, 60, 0
5, 5160, Note_on_c, 1, 57, 78
5, 5160, Note_on_c, 1, 60, 96
5, 5160, Note_on_c, 1, 63, 89
5, 5204, Note_on_c, 1, 57, 0
5, 5235, Note_on_c, 1, 57, 65
5, 5263, Note_on_c, 1, 63, 0
5, 5263, Note_on_c, 1, 60, 0
5, 5264, Note_on_c, 1, 57, 0
5, 5280, Control_c, 1, 64, 0
5, 5280, Control_c, 1, 64, 127
5, 5280, Note_on_c, 1, 60, 91
5, 5280, Note_on_c, 1, 57, 88
5, 5280, Note_on_c, 1, 63, 91
5, 5368, Note_on_c, 1, 63, 0
5, 5368, Note_on_c, 1, 57, 0
5, 5368, Note_on_c, 1, 60, 0
5, 5400, Note_on_c, 1, 60, 74
5, 5400, Note_on_c, 1, 57, 67
5, 5400, Note_on_c, 1, 63, 73
5, 5444, Note_on_c, 1, 63, 0
5, 5444, Note_on_c, 1, 57, 0
5, 5444, Note_on_c, 1, 60, 0
5, 5475, Note_on_c, 1, 57, 85
5, 5475, Note_on_c, 1, 60, 90
5, 5475, Note_on_c, 1, 63, 89
5, 5563, Note_on_c, 1, 63, 0
5, 5563, Note_on_c, 1, 60, 0
5, 5563, Note_on_c, 1, 57, 0
5, 5595, Note_on_c, 1, 60, 72
5, 5595, Note_on_c, 1, 57, 63
5, 5595, Note_on_c, 1, 63, 69
5, 5624, Note_on_c, 1, 63, 0
5, 5624, Note_on_c, 1, 57, 0
5, 5624, Note_on_c, 1, 60, 0
5, 5640, Note_on_c, 1, 57, 78
5, 5640, Note_on_c, 1, 60, 96
5, 5640, Note_on_c, 1, 63, 89
5, 5684, Note_on_c, 1, 57, 0
5, 5715, Note_on_c, 1, 57, 65
5, 5743, Note_on_c, 1, 63, 0
5, 5743, Note_on_c, 1, 60, 0
5, 5744, Note_on_c, 1, 57, 0
5, 5760, Control_c, 1, 64, 0
5, 5760, Control_c, 1, 64, 127
5, 5760, Note_on_c, 1, 57, 88
5, 5760, Note_on_c, 1, 62, 91
5, 5760, Note_on_c, 1, 65, 91
5, 5848, Note_on_c, 1, 65, 0
5, 5848, Note_on_c, 1, 62, 0
5, 5848, Note_on_c, 1, 57, 0
5, 5880, Note_on_c, 1, 57, 67
5, 5880, Note_on_c, 1, 62, 74
5, 5880, Note_on_c, 1, 65, 73
5, 5924, Note_on_c, 1, 65, 0
5, 5924, Note_on_c, 1, 62, 0
5, 5924, Note_on_c, 1, 57, 0
5, 5955, Note_on_c, 1, 57, 85
5, 5955, Note_on_c, 1, 65, 89
5, 5955, Note_on_c, 1, 62, 90
5, 6043, Note_on_c, 1, 62, 0
5, 6043, Note_on_c, 1, 65, 0
5, 6043, Note_on_c, 1, 57, 0
5, 6075, Note_on_c, 1, 57, 63
5, 6075, Note_on_c, 1, 62, 72
5, 6075, Note_on_c, 1, 65, 69
5, 6104, Note_on_c, 1, 65, 0
5, 6104, Note_on_c, 1, 62, 0
5, 6104, Note_on_c, 1, 57, 0
5, 6120, Note_on_c, 1, 57, 78
5, 6120, Note_on_c, 1, 65, 89
5, 6120, Note_on_c, 1, 62, 96
5, 6164, Note_on_c, 1, 57, 0
5, 6195, Note_on_c, 1, 57, 65
5, 6223, Note_on_c, 1, 62, 0
5, 6223, Note_on_c, 1, 65, 0
5, 6224, Note_on_c, 1, 57, 0
5, 6240, Control_c, 1, 64, 0
5, 6240, Control_c, 1, 64, 127
5, 6240, Note_on_c, 1, 65, 91
5, 6240, Note_on_c, 1, 62, 91
5, 6240, Note_on_c, 1, 58, 88
5, 6328, Note_on_c, 1, 58, 0
5, 6328, Note_on_c, 1, 62, 0
5, 6328, Note_on_c, 1, 65, 0
5, 6360, Note_on_c, 1, 58, 67
5, 6360, Note_on_c, 1, 62, 74
5, 6360, Note_on_c, 1, 65, 73
5, 6404, Note_on_c, 1, 65, 0
5, 6404, Note_on_c, 1, 62, 0
5, 6404, Note_on_c, 1, 58, 0
5, 6435, Note_on_c, 1, 58, 85
5, 6435, Note_on_c, 1, 65, 89
5, 6435, Note_on_c, 1, 62, 90
5, 6464, Note_on_c, 1, 62, 0
5, 6464, Note_on_c, 1, 65, 0
5, 6464, Note_on_c, 1, 58, 0
5, 6472, Control_c, 1, 64, 0
5, 6480, Control_c, 1, 64, 127
5, 6480, Note_on_c, 1, 60, 91
5, 6480, Note_on_c, 1, 64, 91
5, 6480, Note_on_c, 1, 67, 91
5, 6539, Note_on_c, 1, 67, 0
5, 6539, Note_on_c, 1, 64, 0
5, 6539, Note_on_c, 1, 60, 0
5, 6555, Note_on_c, 1, 64, 72
5, 6555, Note_on_c, 1, 67, 69
5, 6555, Note_on_c, 1, 60, 63
5, 6584, Note_on_c, 1, 60, 0
5, 6584, Note_on_c, 1, 67, 0
5, 6584, Note_on_c, 1, 64, 0
5, 6600, Note_on_c, 1, 60, 78
5, 6600, Note_on_c, 1, 67, 89
5, 6600, Note_on_c, 1, 64, 96
5, 6644, Note_on_c, 1, 60, 0
5, 6675, Note_on_c, 1, 60, 65
5, 6703, Note_on_c, 1, 64, 0
5, 6703, Note_on_c, 1, 67, 0
5, 6704, Note_on_c, 1, 60, 0
5, 6720, Control_c, 1, 64, 0
5, 6720, Control_c, 1, 64, 127
5, 6720, Note_on_c, 1, 60, 88
5, 6720, Note_on_c, 1, 65, 91
5, 6720, Note_on_c, 1, 57, 91
5, 6808, Note_on_c, 1, 57, 0
5, 6808, Note_on_c, 1, 65, 0
5, 6808, Note_on_c, 1, 60, 0
5, 6840, Note_on_c, 1, 57, 67
5, 6840, Note_on_c, 1, 60, 74
5, 6840, Note_on_c, 1, 65, 73
5, 6884, Note_on_c, 1, 65, 0
5, 6884, Note_on_c, 1, 60, 0
5, 6884, Note_on_c, 1, 57, 0
5, 6915, Note_on_c, 1, 57, 85
5, 6915, Note_on_c, 1, 65, 89
5, 6915, Note_on_c, 1, 60, 90
5, 7003, Note_on_c, 1, 60, 0
5, 7003, Note_on_c, 1, 65, 0
5, 7003, Note_on_c, 1, 57, 0
5, 7035, Note_on_c, 1, 57, 63
5, 7035, Note_on_c, 1, 60, 72
5, 7035, Note_on_c, 1, 65, 69
5, 7064, Note_on_c, 1, 65, 0
5, 7064, Note_on_c, 1, 60, 0
5, 7064, Note_on_c, 1, 57, 0
5, 7080, Note_on_c, 1, 57, 78
5, 7080, Note_on_c, 1, 60, 96
5, 7080, Note_on_c, 1, 65, 89
5, 7124, Note_on_c, 1, 57, 0
5, 7155, Note_on_c, 1, 57, 65
5, 7183, Note_on_c, 1, 65, 0
5, 7183, Note_on_c, 1, 60, 0
5, 7184, Note_on_c, 1, 57, 0
5, 7200, Control_c, 1, 64, 0
5, 7200, Control_c, 1, 64, 127
5, 7200, Note_on_c, 1, 60, 91
5, 7200, Note_on_c, 1, 57, 88
5, 7200, Note_on_c, 1, 65, 91
5, 7288, Note_on_c, 1, 65, 0
5, 7288, Note_on_c, 1, 57, 0
5, 7288, Note_on_c, 1, 60, 0
5, 7320, Note_on_c, 1, 65, 73
5, 7320, Note_on_c, 1, 60, 74
5, 7320, Note_on_c, 1, 57, 67
5, 7364, Note_on_c, 1, 57, 0
5, 7364, Note_on_c, 1, 60, 0
5, 7364, Note_on_c, 1, 65, 0
5, 7395, Note_on_c, 1, 60, 90
5, 7395, Note_on_c, 1, 65, 89
5, 7395, Note_on_c, 1, 57, 85
5, 7483, Note_on_c, 1, 57, 0
5, 7483, Note_on_c, 1, 65, 0
5, 7483, Note_on_c, 1, 60, 0
5, 7515, Note_on_c, 1, 60, 72
5, 7515, Note_on_c, 1, 57, 63
5, 7515, Note_on_c, 1, 65, 69
5, 7544, Note_on_c, 1, 65, 0
5, 7544, Note_on_c, 1, 57, 0
5, 7544, Note_on_c, 1, 60, 0
5, 7560, Note_on_c, 1, 57, 78
5, 7560, Note_on_c, 1, 60, 96
5, 7560, Note_on_c, 1, 65, 89
5, 7604, Note_on_c, 1, 57, 0
5, 7635, Note_on_c, 1, 57, 65
5, 7663, Note_on_c, 1, 65, 0
5, 7663, Note_on_c, 1, 60, 0
5, 7664, Note_on_c, 1, 57, 0
5, 7680, Control_c, 1, 64, 0
5, 7680, Control_c, 1, 64, 127
5, 7680, Note_on_c, 1, 60, 91
5, 7680, Note_on_c, 1, 57, 88
5, 7680, Note_on_c, 1, 64, 91
5, 7768, Note_on_c, 1, 64, 0
5, 7768, Note_on_c, 1, 57, 0
5, 7768, Note_on_c, 1, 60, 0
5, 7800, Note_on_c, 1, 60, 74
5, 7800, Note_on_c, 1, 57, 67
5, 7800, Note_on_c, 1, 64, 73
5, 7844, Note_on_c, 1, 64, 0
5, 7844, Note_on_c, 1, 57, 0
5, 7844, Note_on_c, 1, 60, 0
5, 7875, Note_on_c, 1, 57, 85
5, 7875, Note_on_c, 1, 60, 90
5, 7875, Note_on_c, 1, 64, 89
5, 7963, Note_on_c, 1, 64, 0
5, 7963, Note_on_c, 1, 60, 0
5, 7963, Note_on_c, 1, 57, 0
5, 7995, Note_on_c, 1, 60, 72
5, 7995, Note_on_c, 1, 57, 63
5, 7995, Note_on_c, 1, 64, 69
5, 8024, Note_on_c, 1, 64, 0
5, 8024, Note_on_c, 1, 57, 0
5, 8024, Note_on_c, 1, 60, 0
5, 8040, Note_on_c, 1, 57, 78
5, 8040, Note_on_c, 1, 60, 96
5, 8040, Note_on_c, 1, 64, 89
5, 8084, Note_on_c, 1, 57, 0
5, 8115, Note_on_c, 1, 57, 65
5, 8143, Note_on_c, 1, 64, 0
5, 8143, Note_on_c, 1, 60, 0
5, 8144, Note_on_c, 1, 57, 0
5, 8160, Control_c, 1, 64, 0
5, 8160, Control_c, 1, 64, 127
5, 8160, Note_on_c, 1, 60, 91
5, 8160, Note_on_c, 1, 57, 88
5, 8160, Note_on_c, 1, 64, 91
5, 8248, Note_on_c, 1, 64, 0
5, 8248, Note_on_c, 1, 57, 0
5, 8248, Note_on_c, 1, 60, 0
5, 8280, Note_on_c, 1, 60, 74
5, 8280, Note_on_c, 1, 57, 67
5, 8280, Note_on_c, 1, 64, 73
5, 8324, Note_on_c, 1, 64, 0
5, 8324, Note_on_c, 1, 57, 0
5, 8324, Note_on_c, 1, 60, 0
5, 8355, Note_on_c, 1, 57, 85
5, 8355, Note_on_c, 1, 60, 90
5, 8355, Note_on_c, 1, 64, 89
5, 8443, Note_on_c, 1, 64, 0
5, 8443, Note_on_c, 1, 60, 0
5, 8443, Note_on_c, 1, 57, 0
5, 8475, Note_on_c, 1, 60, 72
5, 8475, Note_on_c, 1, 57, 63
5, 8475, Note_on_c, 1, 64, 69
5, 8504, Note_on_c, 1, 64, 0
5, 8504, Note_on_c, 1, 57, 0
5, 8504, Note_on_c, 1, 60, 0
5, 8520, Note_on_c, 1, 57, 78
5, 8520, Note_on_c, 1, 60, 96
5, 8520, Note_on_c, 1, 64, 89
5, 8564, Note_on_c, 1, 57, 0
5, 8595, Note_on_c, 1, 57, 65
5, 8623, Note_on_c, 1, 64, 0
5, 8623, Note_on_c, 1, 60, 0
5, 8624, Note_on_c, 1, 57, 0
5, 8640, Control_c, 1, 64, 0
5, 8640, Control_c, 1, 64, 127
5, 8640, Note_on_c, 1, 57, 88
5, 8640, Note_on_c, 1, 65, 91
5, 8640, Note_on_c, 1, 62, 91
5, 8728, Note_on_c, 1, 62, 0
5, 8728, Note_on_c, 1, 65, 0
5, 8728, Note_on_c, 1, 57, 0
5, 8760, Note_on_c, 1, 57, 67
5, 8760, Note_on_c, 1, 62, 74
5, 8760, Note_on_c, 1, 65, 73
5, 8804, Note_on_c, 1, 65, 0
5, 8804, Note_on_c, 1, 62, 0
5, 8804, Note_on_c, 1, 57, 0
5, 8835, Note_on_c, 1, 57, 85
5, 8835, Note_on_c, 1, 65, 89
5, 8835, Note_on_c, 1, 62, 90
5, 8923, Note_on_c, 1, 62, 0
5, 8923, Note_on_c, 1, 65, 0
5, 8923, Note_on_c, 1, 57, 0
5, 8955, Note_on_c, 1, 57, 63
5, 8955, Note_on_c, 1, 62, 72
5, 8955, Note_on_c, 1, 65, 69
5, 8984, Note_on_c, 1, 65, 0
5, 8984, Note_on_c, 1, 62, 0
5, 8984, Note_on_c, 1, 57, 0
5, 9000, Note_on_c, 1, 57, 78
5, 9000, Note_on_c, 1, 62, 96
5, 9000, Note_on_c, 1, 65, 89
5, 9044, Note_on_c, 1, 57, 0
5, 9075, Note_on_c, 1, 57, 65
5, 9103, Note_on_c, 1, 65, 0
5, 9103, Note_on_c, 1, 62, 0
5, 9104, Note_on_c, 1, 57, 0
5, 9120, Control_c, 1, 64, 0
5, 9120, Control_c, 1, 64, 127
5, 9120, Note_on_c, 1, 57, 88
5, 9120, Note_on_c, 1, 65, 91
5, 9120, Note_on_c, 1, 62, 91
5, 9208, Note_on_c, 1, 62, 0
5, 9208, Note_on_c, 1, 65, 0
5, 9208, Note_on_c, 1, 57, 0
5, 9240, Note_on_c, 1, 57, 67
5, 9240, Note_on_c, 1, 62, 74
5, 9240, Note_on_c, 1, 65, 73
5, 9284, Note_on_c, 1, 65, 0
5, 9284, Note_on_c, 1, 62, 0
5, 9284, Note_on_c, 1, 57, 0
5, 9315, Note_on_c, 1, 57, 85
5, 9315, Note_on_c, 1, 65, 89
5, 9315, Note_on_c, 1, 62, 90
5, 9403, Note_on_c, 1, 62, 0
5, 9403, Note_on_c, 1, 65, 0
5, 9403, Note_on_c, 1, 57, 0
5, 9435, Note_on_c, 1, 57, 63
5, 9435, Note_on_c, 1, 62, 72
5, 9435, Note_on_c, 1, 65, 69
5, 9464, Note_on_c, 1, 65, 0
5, 9464, Note_on_c, 1, 62, 0
5, 9464, Note_on_c, 1, 57, 0
5, 9480, Note_on_c, 1, 57, 78
5, 9480, Note_on_c, 1, 62, 96
5, 9480, Note_on_c, 1, 65, 89
5, 9524, Note_on_c, 1, 57, 0
5, 9555, Note_on_c, 1, 57, 65
5, 9583, Note_on_c, 1, 65, 0
5, 9583, Note_on_c, 1, 62, 0
5, 9584, Note_on_c, 1, 57, 0
5, 9600, Control_c, 1, 64, 0
5, 9600, Control_c, 1, 64, 127
5, 9600, Note_on_c, 1, 65, 91
5, 9600, Note_on_c, 1, 61, 91
5, 9600, Note_on_c, 1, 58, 88
5, 9688, Note_on_c, 1, 58, 0
5, 9688, Note_on_c, 1, 61, 0
5, 9688, Note_on_c, 1, 65, 0
5, 9720, Note_on_c, 1, 65, 73
5, 9720, Note_on_c, 1, 61, 74
5, 9720, Note_on_c, 1, 58, 67
5, 9764, Note_on_c, 1, 58, 0
5, 9764, Note_on_c, 1, 61, 0
5, 9764, Note_on_c, 1, 65, 0
5, 9795, Note_on_c, 1, 65, 89
5, 9795, Note_on_c, 1, 61, 90
5, 9795, Note_on_c, 1, 58, 85
5, 9883, Note_on_c, 1, 58, 0
5, 9883, Note_on_c, 1, 61, 0
5, 9883, Note_on_c, 1, 65, 0
5, 9915, Note_on_c, 1, 65, 69
5, 9915, Note_on_c, 1, 61, 72
5, 9915, Note_on_c, 1, 58, 63
5, 9944, Note_on_c, 1, 58, 0
5, 9944, Note_on_c, 1, 61, 0
5, 9944, Note_on_c, 1, 65, 0
5, 9960, Note_on_c, 1, 65, 89
5, 9960, Note_on_c, 1, 61, 96
5, 9960, Note_on_c, 1, 58, 78
5, 10004, Note_on_c, 1, 58, 0
5, 10035, Note_on_c, 1, 58, 65
5, 10063, Note_on_c, 1, 61, 0
5, 10063, Note_on_c, 1, 65, 0
5, 10064, Note_on_c, 1, 58, 0
5, 10080, Control_c, 1, 64, 0
5, 10080, Control_c, 1, 64, 127
5, 10080, Note_on_c, 1, 60, 91
5, 10080, Note_on_c, 1, 64, 91
5, 10080, Note_on_c, 1, 55, 88
5, 10168, Note_on_c, 1, 55, 0
5, 10168, Note_on_c, 1, 64, 0
5, 10168, Note_on_c, 1, 60, 0
5, 10200, Note_on_c, 1, 60, 74
5, 10200, Note_on_c, 1, 64, 73
5, 10200, Note_on_c, 1, 55, 67
5, 10244, Note_on_c, 1, 55, 0
5, 10244, Note_on_c, 1, 64, 0
5, 10244, Note_on_c, 1, 60, 0
5, 10275, Note_on_c, 1, 60, 90
5, 10275, Note_on_c, 1, 64, 89
5, 10275, Note_on_c, 1, 55, 85
5, 10363, Note_on_c, 1, 55, 0
5, 10363, Note_on_c, 1, 64, 0
5, 10363, Note_on_c, 1, 60, 0
5, 10395, Note_on_c, 1, 60, 72
5, 10395, Note_on_c, 1, 64, 69
5, 10395, Note_on_c, 1, 55, 63
5, 10424, Note_on_c, 1, 55, 0
5, 10424, Note_on_c, 1, 64, 0
5, 10424, Note_on_c, 1, 60, 0
5, 10440, Note_on_c, 1, 60, 96
5, 10440, Note_on_c, 1, 64, 89
5, 10440, Note_on_c, 1, 55, 78
5, 10484, Note_on_c, 1, 55, 0
5, 10515, Note_on_c, 1, 55, 65
5, 10543, Note_on_c, 1, 64, 0
5, 10543, Note_on_c, 1, 60, 0
5, 10544, Note_on_c, 1, 55, 0
5, 10560, Control_c, 1, 64, 0
5, 10560, Control_c, 1, 64, 127
5, 10560, Note_on_c, 1, 60, 88
5, 10560, Note_on_c, 1, 65, 91
5, 10560, Note_on_c, 1, 57, 91
5, 10648, Note_on_c, 1, 57, 0
5, 10648, Note_on_c, 1, 65, 0
5, 10648, Note_on_c, 1, 60, 0
5, 10680, Note_on_c, 1, 57, 67
5, 10680, Note_on_c, 1, 60, 74
5, 10680, Note_on_c, 1, 65, 73
5, 10724, Note_on_c, 1, 65, 0
5, 10724, Note_on_c, 1, 60, 0
5, 10724, Note_on_c, 1, 57, 0
5, 10755, Note_on_c, 1, 57, 85
5, 10755, Note_on_c, 1, 65, 89
5, 10755, Note_on_c, 1, 60, 90
5, 10843, Note_on_c, 1, 60, 0
5, 10843, Note_on_c, 1, 65, 0
5, 10843, Note_on_c, 1, 57, 0
5, 10875, Note_on_c, 1, 57, 63
5, 10875, Note_on_c, 1, 60, 72
5, 10875, Note_on_c, 1, 65, 69
5, 10904, Note_on_c, 1, 65, 0
5, 10904, Note_on_c, 1, 60, 0
5, 10904, Note_on_c, 1, 57, 0
5, 10920, Note_on_c, 1, 57, 78
5, 10920, Note_on_c, 1, 60, 96
5, 10920, Note_on_c, 1, 65, 89
5, 10964, Note_on_c, 1, 57, 0
5, 10995, Note_on_c, 1, 57, 65
5, 11023, Note_on_c, 1, 65, 0
5, 11023, Note_on_c, 1, 60, 0
5, 11024, Note_on_c, 1, 57, 0
5, 11040, Control_c, 1, 64, 0
5, 11040, Control_c, 1, 64, 127
5, 11040, Note_on_c, 1, 60, 91
5, 11040, Note_on_c, 1, 57, 88
5, 11040, Note_on_c, 1, 65, 91
5, 11128, Note_on_c, 1, 65, 0
5, 11128, Note_on_c, 1, 57, 0
5, 11128, Note_on_c, 1, 60, 0
5, 11160, Note_on_c, 1, 65, 73
5, 11160, Note_on_c, 1, 60, 74
5, 11160, Note_on_c, 1, 57, 67
5, 11204, Note_on_c, 1, 57, 0
5, 11204, Note_on_c, 1, 60, 0
5, 11204, Note_on_c, 1, 65, 0
5, 11235, Note_on_c, 1, 60, 90
5, 11235, Note_on_c, 1, 65, 89
5, 11235, Note_on_c, 1, 57, 85
5, 11323, Note_on_c, 1, 57, 0
5, 11323, Note_on_c, 1, 65, 0
5, 11323, Note_on_c, 1, 60, 0
5, 11355, Note_on_c, 1, 60, 72
5, 11355, Note_on_c, 1, 57, 63
5, 11355, Note_on_c, 1, 65, 69
5, 11384, Note_on_c, 1, 65, 0
5, 11384, Note_on_c, 1, 57, 0
5, 11384, Note_on_c, 1, 60, 0
5, 11400, Note_on_c, 1, 57, 78
5, 11400, Note_on_c, 1, 60, 96
5, 11400, Note_on_c, 1, 65, 89
5, 11444, Note_on_c, 1, 57, 0
5, 11475, Note_on_c, 1, 57, 65
5, 11503, Note_on_c, 1, 65, 0
5, 11503, Note_on_c, 1, 60, 0
5, 11504, Note_on_c, 1, 57, 0
5, 11520, Control_c, 1, 64, 0
5, 11520, Control_c, 1, 64, 127
5, 11520, Note_on_c, 1, 60, 91
5, 11520, Note_on_c, 1, 57, 88
5, 11520, Note_on_c, 1, 64, 91
5, 11608, Note_on_c, 1, 64, 0
5, 11608, Note_on_c, 1, 57, 0
5, 11608, Note_on_c, 1, 60, 0
5, 11640, Note_on_c, 1, 60, 74
5, 11640, Note_on_c, 1, 57, 67
5, 11640, Note_on_c, 1, 64, 73
5, 11684, Note_on_c, 1, 64, 0
5, 11684, Note_on_c, 1, 57, 0
5, 11684, Note_on_c, 1, 60, 0
5, 11715, Note_on_c, 1, 57, 85
5, 11715, Note_on_c, 1, 60, 90
5, 11715, Note_on_c, 1, 64, 89
5, 11803, Note_on_c, 1, 64, 0
5, 11803, Note_on_c, 1, 60, 0
5, 11803, Note_on_c, 1, 57, 0
5, 11835, Note_on_c, 1, 60, 72
5, 11835, Note_on_c, 1, 57, 63
5, 11835, Note_on_c, 1, 64, 69
5, 11864, Note_on_c, 1, 64, 0
5, 11864, Note_on_c, 1, 57, 0
5, 11864, Note_on_c, 1, 60, 0
5, 11880, Note_on_c, 1, 57, 78
5, 11880, Note_on_c, 1, 60, 96
5, 11880, Note_on_c, 1, 64, 89
5, 11924, Note_on_c, 1, 57, 0
5, 11955, Note_on_c, 1, 57, 65
5, 11983, Note_on_c, 1, 64, 0
5, 11983, Note_on_c, 1, 60, 0
5, 11984, Note_on_c, 1, 57, 0
5, 12000, Control_c, 1, 64, 0
5, 12000, Control_c, 1, 64, 127
5, 12000, Note_on_c, 1, 60, 91
5, 12000, Note_on_c, 1, 57, 88
5, 12000, Note_on_c, 1, 64, 91
5, 12088, Note_on_c, 1, 64, 0
5, 12088, Note_on_c, 1, 57, 0
5, 12088, Note_on_c, 1, 60, 0
5, 12120, Note_on_c, 1, 60, 74
5, 12120, Note_on_c, 1, 57, 67
5, 12120, Note_on_c, 1, 64, 73
5, 12164, Note_on_c, 1, 64, 0
5, 12164, Note_on_c, 1, 57, 0
5, 12164, Note_on_c, 1, 60, 0
5, 12195, Note_on_c, 1, 57, 85
5, 12195, Note_on_c, 1, 60, 90
5, 12195, Note_on_c, 1, 64, 89
5, 12283, Note_on_c, 1, 64, 0
5, 12283, Note_on_c, 1, 60, 0
5, 12283, Note_on_c, 1, 57, 0
5, 12315, Note_on_c, 1, 60, 72
5, 12315, Note_on_c, 1, 57, 63
5, 12315, Note_on_c, 1, 64, 69
5, 12344, Note_on_c, 1, 64, 0
5, 12344, Note_on_c, 1, 57, 0
5, 12344, Note_on_c, 1, 60, 0
5, 12360, Note_on_c, 1, 57, 78
5, 12360, Note_on_c, 1, 60, 96
5, 12360, Note_on_c, 1, 64, 89
5, 12404, Note_on_c, 1, 57, 0
5, 12435, Note_on_c, 1, 57, 65
5, 12463, Note_on_c, 1, 64, 0
5, 12463, Note_on_c, 1, 60, 0
5, 12464, Note_on_c, 1, 57, 0
5, 12480, Control_c, 1, 64, 0
5, 12480, Control_c, 1, 64, 127
5, 12480, Note_on_c, 1, 57, 88
5, 12480, Note_on_c, 1, 65, 91
5, 12480, Note_on_c, 1, 62, 91
5, 12568, Note_on_c, 1, 62, 0
5, 12568, Note_on_c, 1, 65, 0
5, 12568, Note_on_c, 1, 57, 0
5, 12600, Note_on_c, 1, 57, 67
5, 12600, Note_on_c, 1, 62, 74
5, 12600, Note_on_c, 1, 65, 73
5, 12644, Note_on_c, 1, 65, 0
5, 12644, Note_on_c, 1, 62, 0
5, 12644, Note_on_c, 1, 57, 0
5, 12675, Note_on_c, 1, 57, 85
5, 12675, Note_on_c, 1, 65, 89
5, 12675, Note_on_c, 1, 62, 90
5, 12763, Note_on_c, 1, 62, 0
5, 12763, Note_on_c, 1, 65, 0
5, 12763, Note_on_c, 1, 57, 0
5, 12795, Note_on_c, 1, 57, 63
5, 12795, Note_on_c, 1, 62, 72
5, 12795, Note_on_c, 1, 65, 69
5, 12824, Note_on_c, 1, 65, 0
5, 12824, Note_on_c, 1, 62, 0
5, 12824, Note_on_c, 1, 57, 0
5, 12840, Note_on_c, 1, 57, 78
5, 12840, Note_on_c, 1, 62, 96
5, 12840, Note_on_c, 1, 65, 89
5, 12884, Note_on_c, 1, 57, 0
5, 12915, Note_on_c, 1, 57, 65
5, 12943, Note_on_c, 1, 65, 0
5, 12943, Note_on_c, 1, 62, 0
5, 12944, Note_on_c, 1, 57, 0
5, 12960, Control_c, 1, 64, 0
5, 12960, Control_c, 1, 64, 127
5, 12960, Note_on_c, 1, 57, 88
5, 12960, Note_on_c, 1, 65, 91
5, 12960, Note_on_c, 1, 62, 91
5, 13048, Note_on_c, 1, 62, 0
5, 13048, Note_on_c, 1, 65, 0
5, 13048, Note_on_c, 1, 57, 0
5, 13080, Note_on_c, 1, 57, 67
5, 13080, Note_on_c, 1, 62, 74
5, 13080, Note_on_c, 1, 65, 73
5, 13124, Note_on_c, 1, 65, 0
5, 13124, Note_on_c, 1, 62, 0
5, 13124, Note_on_c, 1, 57, 0
5, 13155, Note_on_c, 1, 57, 85
5, 13155, Note_on_c, 1, 65, 89
5, 13155, Note_on_c, 1, 62, 90
5, 13243, Note_on_c, 1, 62, 0
5, 13243, Note_on_c, 1, 65, 0
5, 13243, Note_on_c, 1, 57, 0
5, 13275, Note_on_c, 1, 57, 63
5, 13275, Note_on_c, 1, 62, 72
5, 13275, Note_on_c, 1, 65, 69
5, 13304, Note_on_c, 1, 65, 0
5, 13304, Note_on_c, 1, 62, 0
5, 13304, Note_on_c, 1, 57, 0
5, 13320, Note_on_c, 1, 57, 78
5, 13320, Note_on_c, 1, 62, 96
5, 13320, Note_on_c, 1, 65, 89
5, 13364, Note_on_c, 1, 57, 0
5, 13395, Note_on_c, 1, 57, 65
5, 13423, Note_on_c, 1, 65, 0
5, 13423, Note_on_c, 1, 62, 0
5, 13424, Note_on_c, 1, 57, 0
5, 13440, Control_c, 1, 64, 0
5, 13440, Control_c, 1, 64, 127
5, 13440, Note_on_c, 1, 65, 91
5, 13440, Note_on_c, 1, 61, 91
5, 13440, Note_on_c, 1, 58, 88
5, 13528, Note_on_c, 1, 58, 0
5, 13528, Note_on_c, 1, 61, 0
5, 13528, Note_on_c, 1, 65, 0
5, 13560, Note_on_c, 1, 65, 73
5, 13560, Note_on_c, 1, 61, 74
5, 13560, Note_on_c, 1, 58, 67
5, 13604, Note_on_c, 1, 58, 0
5, 13604, Note_on_c, 1, 61, 0
5, 13604, Note_on_c, 1, 65, 0
5, 13635, Note_on_c, 1, 65, 89
5, 13635, Note_on_c, 1, 61, 90
5, 13635, Note_on_c, 1, 58, 85
5, 13723, Note_on_c, 1, 58, 0
5, 13723, Note_on_c, 1, 61, 0
5, 13723, Note_on_c, 1, 65, 0
5, 13755, Note_on_c, 1, 65, 69
5, 13755, Note_on_c, 1, 61, 72
5, 13755, Note_on_c, 1, 58, 63
5, 13784, Note_on_c, 1, 58, 0
5, 13784, Note_on_c, 1, 61, 0
5, 13784, Note_on_c, 1, 65, 0
5, 13800, Note_on_c, 1, 65, 89
5, 13800, Note_on_c, 1, 61, 96
5, 13800, Note_on_c, 1, 58, 78
5, 13844, Note_on_c, 1, 58, 0
5, 13875, Note_on_c, 1, 58, 65
5, 13903, Note_on_c, 1, 61, 0
5, 13903, Note_on_c, 1, 65, 0
5, 13904, Note_on_c, 1, 58, 0
5, 13920, Control_c, 1, 64, 0
5, 13920, Control_c, 1, 64, 127
5, 13920, Note_on_c, 1, 60, 91
5, 13920, Note_on_c, 1, 64, 91
5, 13920, Note_on_c, 1, 55, 88
5, 14008, Note_on_c, 1, 55, 0
5, 14008, Note_on_c, 1, 64, 0
5, 14008, Note_on_c, 1, 60, 0
5, 14040, Note_on_c, 1, 60, 74
5, 14040, Note_on_c, 1, 64, 73
5, 14040, Note_on_c, 1, 55, 67
5, 14084, Note_on_c, 1, 55, 0
5, 14084, Note_on_c, 1, 64, 0
5, 14084, Note_on_c, 1, 60, 0
5, 14115, Note_on_c, 1, 60, 90
5, 14115, Note_on_c, 1, 64, 89
5, 14115, Note_on_c, 1, 55, 85
5, 14203, Note_on_c, 1, 55, 0
5, 14203, Note_on_c, 1, 64, 0
5, 14203, Note_on_c, 1, 60, 0
5, 14235, Note_on_c, 1, 60, 72
5, 14235, Note_on_c, 1, 64, 69
5, 14235, Note_on_c, 1, 55, 63
5, 14264, Note_on_c, 1, 55, 0
5, 14264, Note_on_c, 1, 64, 0
5, 14264, Note_on_c, 1, 60, 0
5, 14280, Note_on_c, 1, 60, 96
5, 14280, Note_on_c, 1, 64, 89
5, 14280, Note_on_c, 1, 55, 78
5, 14324, Note_on_c, 1, 55, 0
5, 14355, Note_on_c, 1, 55, 65
5, 14383, Note_on_c, 1, 64, 0
5, 14383, Note_on_c, 1, 60, 0
5, 14384, Note_on_c, 1, 55, 0
5, 14400, Control_c, 1, 64, 0
5, 14400, Control_c, 1, 64, 127
5, 14400, Note_on_c, 1, 58, 91
5, 14400, Note_on_c, 1, 62, 91
5, 14400, Note_on_c, 1, 53, 88
5, 14488, Note_on_c, 1, 62, 0
5, 14488, Note_on_c, 1, 58, 0
5, 14495, Note_on_c, 1, 53, 0
5, 14520, Note_on_c, 1, 58, 74
5, 14520, Note_on_c, 1, 62, 73
5, 14520, Note_on_c, 1, 53, 67
5, 14564, Note_on_c, 1, 53, 0
5, 14564, Note_on_c, 1, 62, 0
5, 14564, Note_on_c, 1, 58, 0
5, 14595, Note_on_c, 1, 58, 90
5, 14595, Note_on_c, 1, 62, 89
5, 14595, Note_on_c, 1, 53, 85
5, 14683, Note_on_c, 1, 53, 0
5, 14683, Note_on_c, 1, 62, 0
5, 14683, Note_on_c, 1, 58, 0
5, 14715, Note_on_c, 1, 58, 72
5, 14715, Note_on_c, 1, 62, 69
5, 14715, Note_on_c, 1, 53, 63
5, 14744, Note_on_c, 1, 53, 0
5, 14744, Note_on_c, 1, 62, 0
5, 14744, Note_on_c, 1, 58, 0
5, 14760, Note_on_c, 1, 58, 96
5, 14760, Note_on_c, 1, 62, 89
5, 14760, Note_on_c, 1, 53, 78
5, 14804, Note_on_c, 1, 53, 0
5, 14835, Note_on_c, 1, 53, 65
5, 14863, Note_on_c, 1, 62, 0
5, 14863, Note_on_c, 1, 58, 0
5, 14864, Note_on_c, 1, 53, 0
5, 14880, Control_c, 1, 64, 0
5, 14880, Control_c, 1, 64, 127
5, 14880, Note_on_c, 1, 60, 91
5, 14880, Note_on_c, 1, 64, 91
5, 14880, Note_on_c, 1, 55, 88
5, 14968, Note_on_c, 1, 55, 0
5, 14968, Note_on_c, 1, 64, 0
5, 14968, Note_on_c, 1, 60, 0
5, 15000, Note_on_c, 1, 60, 74
5, 15000, Note_on_c, 1, 64, 73
5, 15000, Note_on_c, 1, 55, 67
5, 15044, Note_on_c, 1, 55, 0
5, 15044, Note_on_c, 1, 64, 0
5, 15044, Note_on_c, 1, 60, 0
5, 15075, Note_on_c, 1, 60, 90
5, 15075, Note_on_c, 1, 64, 89
5, 15075, Note_on_c, 1, 55, 85
5, 15163, Note_on_c, 1, 55, 0
5, 15163, Note_on_c, 1, 64, 0
5, 15163, Note_on_c, 1, 60, 0
5, 15195, Note_on_c, 1, 60, 72
5, 15195, Note_on_c, 1, 64, 69
5, 15195, Note_on_c, 1, 55, 63
5, 15224, Note_on_c, 1, 55, 0
5, 15224, Note_on_c, 1, 64, 0
5, 15224, Note_on_c, 1, 60, 0
5, 15240, Note_on_c, 1, 60, 96
5, 15240, Note_on_c, 1, 64, 89
5, 15240, Note_on_c, 1, 55, 78
5, 15284, Note_on_c, 1, 55, 0
5, 15315, Note_on_c, 1, 55, 65
5, 15343, Note_on_c, 1, 64, 0
5, 15343, Note_on_c, 1, 60, 0
5, 15344, Note_on_c, 1, 55, 0
5, 15360, Control_c, 1, 64, 0
5, 15360, Control_c, 1, 64, 127
5, 15360, Note_on_c, 1, 58, 91
5, 15360, Note_on_c, 1, 62, 91
5, 15360, Note_on_c, 1, 53, 88
5, 15448, Note_on_c, 1, 62, 0
5, 15448, Note_on_c, 1, 58, 0
5, 15455, Note_on_c, 1, 53, 0
5, 15480, Note_on_c, 1, 58, 74
5, 15480, Note_on_c, 1, 62, 73
5, 15480, Note_on_c, 1, 53, 67
5, 15524, Note_on_c, 1, 53, 0
5, 15524, Note_on_c, 1, 62, 0
5, 15524, Note_on_c, 1, 58, 0
5, 15555, Note_on_c, 1, 58, 90
5, 15555, Note_on_c, 1, 62, 89
5, 15555, Note_on_c, 1, 53, 85
5, 15643, Note_on_c, 1, 53, 0
5, 15643, Note_on_c, 1, 62, 0
5, 15643, Note_on_c, 1, 58, 0
5, 15675, Note_on_c, 1, 58, 72
5, 15675, Note_on_c, 1, 62, 69
5, 15675, Note_on_c, 1, 53, 63
5, 15704, Note_on_c, 1, 53, 0
5, 15704, Note_on_c, 1, 62, 0
5, 15704, Note_on_c, 1, 58, 0
5, 15720, Note_on_c, 1, 58, 96
5, 15720, Note_on_c, 1, 62, 89
5, 15720, Note_on_c, 1, 53, 78
5, 15764, Note_on_c, 1, 53, 0
5, 15795, Note_on_c, 1, 53, 65
5, 15823, Note_on_c, 1, 62, 0
5, 15823, Note_on_c, 1, 58, 0
5, 15824, Note_on_c, 1, 53, 0
5, 15840, Control_c, 1, 64, 0
5, 15840, Control_c, 1, 64, 127
5, 15840, Note_on_c, 1, 60, 91
5, 15840, Note_on_c, 1, 64, 91
5, 15840, Note_on_c, 1, 55, 88
5, 15928, Note_on_c, 1, 55, 0
5, 15928, Note_on_c, 1, 64, 0
5, 15928, Note_on_c, 1, 60, 0
5, 15960, Note_on_c, 1, 60, 74
5, 15960, Note_on_c, 1, 64, 73
5, 15960, Note_on_c, 1, 55, 67
5, 16004, Note_on_c, 1, 55, 0
5, 16004, Note_on_c, 1, 64, 0
5, 16004, Note_on_c, 1, 60, 0
5, 16035, Note_on_c, 1, 60, 90
5, 16035, Note_on_c, 1, 64, 89
5, 16035, Note_on_c, 1, 55, 85
5, 16123, Note_on_c, 1, 55, 0
5, 16123, Note_on_c, 1, 64, 0
5, 16123, Note_on_c, 1, 60, 0
5, 16155, Note_on_c, 1, 60, 72
5, 16155, Note_on_c, 1, 64, 69
5, 16155, Note_on_c, 1, 55, 63
5, 16184, Note_on_c, 1, 55, 0
5, 16184, Note_on_c, 1, 64, 0
5, 16184, Note_on_c, 1, 60, 0
5, 16200, Note_on_c, 1, 60, 96
5, 16200, Note_on_c, 1, 64, 89
5, 16200, Note_on_c, 1, 55, 78
5, 16244, Note_on_c, 1, 55, 0
5, 16275, Note_on_c, 1, 55, 65
5, 16303, Note_on_c, 1, 64, 0
5, 16303, Note_on_c, 1, 60, 0
5, 16304, Note_on_c, 1, 55, 0
5, 16312, Control_c, 1, 64, 0
5, 16320, Control_c, 1, 64, 0
5, 16320, Control_c, 1, 64, 127
5, 16320, Note_on_c, 1, 60, 91
5, 16320, Note_on_c, 1, 64, 91
5, 16320, Note_on_c, 1, 55, 88
5, 16387, Control_c, 1, 64, 0
5, 16408, Note_on_c, 1, 55, 0
5, 16408, Note_on_c, 1, 64, 0
5, 16408, Note_on_c, 1, 60, 0
5, 17280, Control_c, 1, 64, 0
5, 17280, Control_c, 1, 64, 127
5, 17280, Note_on_c, 1, 60, 88
5, 17280, Note_on_c, 1, 65, 91
5, 17280, Note_on_c, 1, 57, 91
5, 17368, Note_on_c, 1, 57, 0
5, 17368, Note_on_c, 1, 65, 0
5, 17368, Note_on_c, 1, 60, 0
5, 17400, Note_on_c, 1, 57, 67
5, 17400, Note_on_c, 1, 60, 74
5, 17400, Note_on_c, 1, 65, 73
5, 17444, Note_on_c, 1, 65, 0
5, 17444, Note_on_c, 1, 60, 0
5, 17444, Note_on_c, 1, 57, 0
5, 17475, Note_on_c, 1, 57, 85
5, 17475, Note_on_c, 1, 65, 89
5, 17475, Note_on_c, 1, 60, 90
5, 17563, Note_on_c, 1, 60, 0
5, 17563, Note_on_c, 1, 65, 0
5, 17563, Note_on_c, 1, 57, 0
5, 17595, Note_on_c, 1, 57, 63
5, 17595, Note_on_c, 1, 60, 72
5, 17595, Note_on_c, 1, 65, 69
5, 17624, Note_on_c, 1, 65, 0
5, 17624, Note_on_c, 1, 60, 0
5, 17624, Note_on_c, 1, 57, 0
5, 17640, Note_on_c, 1, 57, 78
5, 17640, Note_on_c, 1, 60, 96
5, 17640, Note_on_c, 1, 65, 89
5, 17684, Note_on_c, 1, 57, 0
5, 17715, Note_on_c, 1, 57, 65
5, 17743, Note_on_c, 1, 65, 0
5, 17743, Note_on_c, 1, 60, 0
5, 17744, Note_on_c, 1, 57, 0
5, 17760, Control_c, 1, 64, 0
5, 17760, Control_c, 1, 64, 127
5, 17760, Note_on_c, 1, 60, 91
5, 17760, Note_on_c, 1, 57, 88
5, 17760, Note_on_c, 1, 65, 91
5, 17848, Note_on_c, 1, 65, 0
5, 17848, Note_on_c, 1, 57, 0
5, 17848, Note_on_c, 1, 60, 0
5, 17880, Note_on_c, 1, 65, 73
5, 17880, Note_on_c, 1, 60, 74
5, 17880, Note_on_c, 1, 57, 67
5, 17924, Note_on_c, 1, 57, 0
5, 17924, Note_on_c, 1, 60, 0
5, 17924, Note_on_c, 1, 65, 0
5, 17955, Note_on_c, 1, 60, 90
5, 17955, Note_on_c, 1, 65, 89
5, 17955, Note_on_c, 1, 57, 85
5, 18043, Note_on_c, 1, 57, 0
5, 18043, Note_on_c, 1, 65, 0
5, 18043, Note_on_c, 1, 60, 0
5, 18075, Note_on_c, 1, 60, 72
5, 18075, Note_on_c, 1, 57, 63
5, 18075, Note_on_c, 1, 65, 69
5, 18104, Note_on_c, 1, 65, 0
5, 18104, Note_on_c, 1, 57, 0
5, 18104, Note_on_c, 1, 60, 0
5, 18120, Note_on_c, 1, 57, 78
5, 18120, Note_on_c, 1, 60, 96
5, 18120, Note_on_c, 1, 65, 89
5, 18164, Note_on_c, 1, 57, 0
5, 18195, Note_on_c, 1, 57, 65
5, 18223, Note_on_c, 1, 65, 0
5, 18223, Note_on_c, 1, 60, 0
5, 18224, Note_on_c, 1, 57, 0
5, 18240, Control_c, 1, 64, 0
5, 18240, Control_c, 1, 64, 127
5, 18240, Note_on_c, 1, 60, 91
5, 18240, Note_on_c, 1, 57, 88
5, 18240, Note_on_c, 1, 64, 91
5, 18328, Note_on_c, 1, 64, 0
5, 18328, Note_on_c, 1, 57, 0
5, 18328, Note_on_c, 1, 60, 0
5, 18360, Note_on_c, 1, 60, 74
5, 18360, Note_on_c, 1, 57, 67
5, 18360, Note_on_c, 1, 64, 73
5, 18404, Note_on_c, 1, 64, 0
5, 18404, Note_on_c, 1, 57, 0
5, 18404, Note_on_c, 1, 60, 0
5, 18435, Note_on_c, 1, 57, 85
5, 18435, Note_on_c, 1, 60, 90
5, 18435, Note_on_c, 1, 64, 89
5, 18523, Note_on_c, 1, 64, 0
5, 18523, Note_on_c, 1, 60, 0
5, 18523, Note_on_c, 1, 57, 0
5, 18555, Note_on_c, 1, 60, 72
5, 18555, Note_on_c, 1, 57, 63
5, 18555, Note_on_c, 1, 64, 69
5, 18584, Note_on_c, 1, 64, 0
5, 18584, Note_on_c, 1, 57, 0
5, 18584, Note_on_c, 1, 60, 0
5, 18600, Note_on_c, 1, 57, 78
5, 18600, Note_on_c, 1, 60, 96
5, 18600, Note_on_c, 1, 64, 89
5, 18644, Note_on_c, 1, 57, 0
5, 18675, Note_on_c, 1, 57, 65
5, 18703, Note_on_c, 1, 64, 0
5, 18703, Note_on_c, 1, 60, 0
5, 18704, Note_on_c, 1, 57, 0
5, 18720, Control_c, 1, 64, 0
5, 18720, Control_c, 1, 64, 127
5, 18720, Note_on_c, 1, 60, 91
5, 18720, Note_on_c, 1, 57, 88
5, 18720, Note_on_c, 1, 64, 91
5, 18808, Note_on_c, 1, 64, 0
5, 18808, Note_on_c, 1, 57, 0
5, 18808, Note_on_c, 1, 60, 0
5, 18840, Note_on_c, 1, 60, 74
5, 18840, Note_on_c, 1, 57, 67
5, 18840, Note_on_c, 1, 64, 73
5, 18884, Note_on_c, 1, 64, 0
5, 18884, Note_on_c, 1, 57, 0
5, 18884, Note_on_c, 1, 60, 0
5, 18915, Note_on_c, 1, 57, 85
5, 18915, Note_on_c, 1, 60, 90
5, 18915, Note_on_c, 1, 64, 89
5, 19003, Note_on_c, 1, 64, 0
5, 19003, Note_on_c, 1, 60, 0
5, 19003, Note_on_c, 1, 57, 0
5, 19035, Note_on_c, 1, 60, 72
5, 19035, Note_on_c, 1, 57, 63
5, 19035, Note_on_c, 1, 64, 69
5, 19064, Note_on_c, 1, 64, 0
5, 19064, Note_on_c, 1, 57, 0
5, 19064, Note_on_c, 1, 60, 0
5, 19080, Note_on_c, 1, 57, 78
5, 19080, Note_on_c, 1, 60, 96
5, 19080, Note_on_c, 1, 64, 89
5, 19124, Note_on_c, 1, 57, 0
5, 19155, Note_on_c, 1, 57, 65
5, 19183, Note_on_c, 1, 64, 0
5, 19183, Note_on_c, 1, 60, 0
5, 19184, Note_on_c, 1, 57, 0
5, 19200, Control_c, 1, 64, 0
5, 19200, Control_c, 1, 64, 127
5, 19200, Note_on_c, 1, 60, 91
5, 19200, Note_on_c, 1, 57, 88
5, 19200, Note_on_c, 1, 63, 91
5, 19288, Note_on_c, 1, 63, 0
5, 19288, Note_on_c, 1, 57, 0
5, 19288, Note_on_c, 1, 60, 0
5, 19320, Note_on_c, 1, 60, 74
5, 19320, Note_on_c, 1, 57, 67
5, 19320, Note_on_c, 1, 63, 73
5, 19364, Note_on_c, 1, 63, 0
5, 19364, Note_on_c, 1, 57, 0
5, 19364, Note_on_c, 1, 60, 0
5, 19395, Note_on_c, 1, 57, 85
5, 19395, Note_on_c, 1, 60, 90
5, 19395, Note_on_c, 1, 63, 89
5, 19483, Note_on_c, 1, 63, 0
5, 19483, Note_on_c, 1, 60, 0
5, 19483, Note_on_c, 1, 57, 0
5, 19515, Note_on_c, 1, 60, 72
5, 19515, Note_on_c, 1, 57, 63
5, 19515, Note_on_c, 1, 63, 69
5, 19544, Note_on_c, 1, 63, 0
5, 19544, Note_on_c, 1, 57, 0
5, 19544, Note_on_c, 1, 60, 0
5, 19560, Note_on_c, 1, 57, 78
5, 19560, Note_on_c, 1, 60, 96
5, 19560, Note_on_c, 1, 63, 89
5, 19604, Note_on_c, 1, 57, 0
5, 19635, Note_on_c, 1, 57, 65
5, 19663, Note_on_c, 1, 63, 0
5, 19663, Note_on_c, 1, 60, 0
5, 19664, Note_on_c, 1, 57, 0
5, 19680, Control_c, 1, 64, 0
5, 19680, Control_c, 1, 64, 127
5, 19680, Note_on_c, 1, 60, 91
5, 19680, Note_on_c, 1, 57, 88
5, 19680, Note_on_c, 1, 63, 91
5, 19768, Note_on_c, 1, 63, 0
5, 19768, Note_on_c, 1, 57, 0
5, 19768, Note_on_c, 1, 60, 0
5, 19800, Note_on_c, 1, 60, 74
5, 19800, Note_on_c, 1, 57, 67
5, 19800, Note_on_c, 1, 63, 73
5, 19844, Note_on_c, 1, 63, 0
5, 19844, Note_on_c, 1, 57, 0
5, 19844, Note_on_c, 1, 60, 0
5, 19875, Note_on_c, 1, 57, 85
5, 19875, Note_on_c, 1, 60, 90
5, 19875, Note_on_c, 1, 63, 89
5, 19963, Note_on_c, 1, 63, 0
5, 19963, Note_on_c, 1, 60, 0
5, 19963, Note_on_c, 1, 57, 0
5, 19995, Note_on_c, 1, 60, 72
5, 19995, Note_on_c, 1, 57, 63
5, 19995, Note_on_c, 1, 63, 69
5, 20024, Note_on_c, 1, 63, 0
5, 20024, Note_on_c, 1, 57, 0
5, 20024, Note_on_c, 1, 60, 0
5, 20040, Note_on_c, 1, 57, 78
5, 20040, Note_on_c, 1, 60, 96
5, 20040, Note_on_c, 1, 63, 89
5, 20084, Note_on_c, 1, 57, 0
5, 20115, Note_on_c, 1, 57, 65
5, 20143, Note_on_c, 1, 63, 0
5, 20143, Note_on_c, 1, 60, 0
5, 20144, Note_on_c, 1, 57, 0
5, 20160, Control_c, 1, 64, 0
5, 20160, Control_c, 1, 64, 127
5, 20160, Note_on_c, 1, 57, 88
5, 20160, Note_on_c, 1, 62, 91
5, 20160, Note_on_c, 1, 65, 91
5, 20248, Note_on_c, 1, 65, 0
5, 20248, Note_on_c, 1, 62, 0
5, 20248, Note_on_c, 1, 57, 0
5, 20280, Note_on_c, 1, 57, 67
5, 20280, Note_on_c, 1, 62, 74
5, 20280, Note_on_c, 1, 65, 73
5, 20324, Note_on_c, 1, 65, 0
5, 20324, Note_on_c, 1, 62, 0
5, 20324, Note_on_c, 1, 57, 0
5, 20355, Note_on_c, 1, 57, 85
5, 20355, Note_on_c, 1, 65, 89
5, 20355, Note_on_c, 1, 62, 90
5, 20443, Note_on_c, 1, 62, 0
5, 20443, Note_on_c, 1, 65, 0
5, 20443, Note_on_c, 1, 57, 0
5, 20475, Note_on_c, 1, 57, 63
5, 20475, Note_on_c, 1, 62, 72
5, 20475, Note_on_c, 1, 65, 69
5, 20504, Note_on_c, 1, 65, 0
5, 20504, Note_on_c, 1, 62, 0
5, 20504, Note_on_c, 1, 57, 0
5, 20520, Note_on_c, 1, 57, 78
5, 20520, Note_on_c, 1, 65, 89
5, 20520, Note_on_c, 1, 62, 96
5, 20564, Note_on_c, 1, 57, 0
5, 20595, Note_on_c, 1, 57, 65
5, 20623, Note_on_c, 1, 62, 0
5, 20623, Note_on_c, 1, 65, 0
5, 20624, Note_on_c, 1, 57, 0
5, 20640, Control_c, 1, 64, 0
5, 20640, Control_c, 1, 64, 127
5, 20640, Note_on_c, 1, 65, 91
5, 20640, Note_on_c, 1, 62, 91
5, 20640, Note_on_c, 1, 58, 88
5, 20728, Note_on_c, 1, 58, 0
5, 20728, Note_on_c, 1, 62, 0
5, 20728, Note_on_c, 1, 65, 0
5, 20760, Note_on_c, 1, 58, 67
5, 20760, Note_on_c, 1, 62, 74
5, 20760, Note_on_c, 1, 65, 73
5, 20804, Note_on_c, 1, 65, 0
5, 20804, Note_on_c, 1, 62, 0
5, 20804, Note_on_c, 1, 58, 0
5, 20835, Note_on_c, 1, 58, 85
5, 20835, Note_on_c, 1, 65, 89
5, 20835, Note_on_c, 1, 62, 90
5, 20864, Note_on_c, 1, 62, 0
5, 20864, Note_on_c, 1, 65, 0
5, 20864, Note_on_c, 1, 58, 0
5, 20872, Control_c, 1, 64, 0
5, 20880, Control_c, 1, 64, 127
5, 20880, Note_on_c, 1, 60, 91
5, 20880, Note_on_c, 1, 64, 91
5, 20880, Note_on_c, 1, 67, 91
5, 20939, Note_on_c, 1, 67, 0
5, 20939, Note_on_c, 1, 64, 0
5, 20939, Note_on_c, 1, 60, 0
5, 20955, Note_on_c, 1, 64, 72
5, 20955, Note_on_c, 1, 67, 69
5, 20955, Note_on_c, 1, 60, 63
5, 20984, Note_on_c, 1, 60, 0
5, 20984, Note_on_c, 1, 67, 0
5, 20984, Note_on_c, 1, 64, 0
5, 21000, Note_on_c, 1, 60, 78
5, 21000, Note_on_c, 1, 67, 89
5, 21000, Note_on_c, 1, 64, 96
5, 21044, Note_on_c, 1, 60, 0
5, 21075, Note_on_c, 1, 60, 65
5, 21103, Note_on_c, 1, 64, 0
5, 21103, Note_on_c, 1, 67, 0
5, 21104, Note_on_c, 1, 60, 0
5, 21120, Control_c, 1, 64, 0
5, 21120, Control_c, 1, 64, 127
5, 21120, Note_on_c, 1, 60, 88
5, 21120, Note_on_c, 1, 65, 91
5, 21120, Note_on_c, 1, 57, 91
5, 21208, Note_on_c, 1, 57, 0
5, 21208, Note_on_c, 1, 65, 0
5, 21208, Note_on_c, 1, 60, 0
5, 21240, Note_on_c, 1, 57, 67
5, 21240, Note_on_c, 1, 60, 74
5, 21240, Note_on_c, 1, 65, 73
5, 21284, Note_on_c, 1, 65, 0
5, 21284, Note_on_c, 1, 60, 0
5, 21284, Note_on_c, 1, 57, 0
5, 21315, Note_on_c, 1, 57, 85
5, 21315, Note_on_c, 1, 65, 89
5, 21315, Note_on_c, 1, 60, 90
5, 21403, Note_on_c, 1, 60, 0
5, 21403, Note_on_c, 1, 65, 0
5, 21403, Note_on_c, 1, 57, 0
5, 21435, Note_on_c, 1, 57, 63
5, 21435, Note_on_c, 1, 60, 72
5, 21435, Note_on_c, 1, 65, 69
5, 21464, Note_on_c, 1, 65, 0
5, 21464, Note_on_c, 1, 60, 0
5, 21464, Note_on_c, 1, 57, 0
5, 21480, Note_on_c, 1, 57, 78
5, 21480, Note_on_c, 1, 60, 96
5, 21480, Note_on_c, 1, 65, 89
5, 21524, Note_on_c, 1, 57, 0
5, 21555, Note_on_c, 1, 57, 65
5, 21583, Note_on_c, 1, 65, 0
5, 21583, Note_on_c, 1, 60, 0
5, 21584, Note_on_c, 1, 57, 0
5, 21600, Control_c, 1, 64, 0
5, 21600, Control_c, 1, 64, 127
5, 21600, Note_on_c, 1, 60, 91
5, 21600, Note_on_c, 1, 57, 88
5, 21600, Note_on_c, 1, 65, 91
5, 21688, Note_on_c, 1, 65, 0
5, 21688, Note_on_c, 1, 57, 0
5, 21688, Note_on_c, 1, 60, 0
5, 21720, Note_on_c, 1, 65, 73
5, 21720, Note_on_c, 1, 60, 74
5, 21720, Note_on_c, 1, 57, 67
5, 21764, Note_on_c, 1, 57, 0
5, 21764, Note_on_c, 1, 60, 0
5, 21764, Note_on_c, 1, 65, 0
5, 21795, Note_on_c, 1, 60, 90
5, 21795, Note_on_c, 1, 65, 89
5, 21795, Note_on_c, 1, 57, 85
5, 21883, Note_on_c, 1, 57, 0
5, 21883, Note_on_c, 1, 65, 0
5, 21883, Note_on_c, 1, 60, 0
5, 21915, Note_on_c, 1, 60, 72
5, 21915, Note_on_c, 1, 57, 63
5, 21915, Note_on_c, 1, 65, 69
5, 21944, Note_on_c, 1, 65, 0
5, 21944, Note_on_c, 1, 57, 0
5, 21944, Note_on_c, 1, 60, 0
5, 21960, Note_on_c, 1, 57, 78
5, 21960, Note_on_c, 1, 60, 96
5, 21960, Note_on_c, 1, 65, 89
5, 22004, Note_on_c, 1, 57, 0
5, 22035, Note_on_c, 1, 57, 65
5, 22063, Note_on_c, 1, 65, 0
5, 22063, Note_on_c, 1, 60, 0
5, 22064, Note_on_c, 1, 57, 0
5, 22080, Control_c, 1, 64, 0
5, 22080, Control_c, 1, 64, 127
5, 22080, Note_on_c, 1, 60, 91
5, 22080, Note_on_c, 1, 57, 88
5, 22080, Note_on_c, 1, 64, 91
5, 22168, Note_on_c, 1, 64, 0
5, 22168, Note_on_c, 1, 57, 0
5, 22168, Note_on_c, 1, 60, 0
5, 22200, Note_on_c, 1, 60, 74
5, 22200, Note_on_c, 1, 57, 67
5, 22200, Note_on_c, 1, 64, 73
5, 22244, Note_on_c, 1, 64, 0
5, 22244, Note_on_c, 1, 57, 0
5, 22244, Note_on_c, 1, 60, 0
5, 22275, Note_on_c, 1, 57, 85
5, 22275, Note_on_c, 1, 60, 90
5, 22275, Note_on_c, 1, 64, 89
5, 22363, Note_on_c, 1, 64, 0
5, 22363, Note_on_c, 1, 60, 0
5, 22363, Note_on_c, 1, 57, 0
5, 22395, Note_on_c, 1, 60, 72
5, 22395, Note_on_c, 1, 57, 63
5, 22395, Note_on_c, 1, 64, 69
5, 22424, Note_on_c, 1, 64, 0
5, 22424, Note_on_c, 1, 57, 0
5, 22424, Note_on_c, 1, 60, 0
5, 22440, Note_on_c, 1, 57, 78
5, 22440, Note_on_c, 1, 60, 96
5, 22440, Note_on_c, 1, 64, 89
5, 22484, Note_on_c, 1, 57, 0
5, 22515, Note_on_c, 1, 57, 65
5, 22543, Note_on_c, 1, 64, 0
5, 22543, Note_on_c, 1, 60, 0
5, 22544, Note_on_c, 1, 57, 0
5, 22560, Control_c, 1, 64, 0
5, 22560, Control_c, 1, 64, 127
5, 22560, Note_on_c, 1, 60, 91
5, 22560, Note_on_c, 1, 57, 88
5, 22560, Note_on_c, 1, 64, 91
5, 22648, Note_on_c, 1, 64, 0
5, 22648, Note_on_c, 1, 57, 0
5, 22648, Note_on_c, 1, 60, 0
5, 22680, Note_on_c, 1, 60, 74
5, 22680, Note_on_c, 1, 57, 67
5, 22680, Note_on_c, 1, 64, 73
5, 22724, Note_on_c, 1, 64, 0
5, 22724, Note_on_c, 1, 57, 0
5, 22724, Note_on_c, 1, 60, 0
5, 22755, Note_on_c, 1, 57, 85
5, 22755, Note_on_c, 1, 60, 90
5, 22755, Note_on_c, 1, 64, 89
5, 22843, Note_on_c, 1, 64, 0
5, 22843, Note_on_c, 1, 60, 0
5, 22843, Note_on_c, 1, 57, 0
5, 22875, Note_on_c, 1, 60, 72
5, 22875, Note_on_c, 1, 57, 63
5, 22875, Note_on_c, 1, 64, 69
5, 22904, Note_on_c, 1, 64, 0
5, 22904, Note_on_c, 1, 57, 0
5, 22904, Note_on_c, 1, 60, 0
5, 22920, Note_on_c, 1, 57, 78
5, 22920, Note_on_c, 1, 60, 96
5, 22920, Note_on_c, 1, 64, 89
5, 22964, Note_on_c, 1, 57, 0
5, 22995, Note_on_c, 1, 57, 65
5, 23023, Note_on_c, 1, 64, 0
5, 23023, Note_on_c, 1, 60, 0
5, 23024, Note_on_c, 1, 57, 0
5, 23040, Control_c, 1, 64, 0
5, 23040, Control_c, 1, 64, 127
5, 23040, Note_on_c, 1, 60, 91
5, 23040, Note_on_c, 1, 57, 88
5, 23040, Note_on_c, 1, 63, 91
5, 23128, Note_on_c, 1, 63, 0
5, 23128, Note_on_c, 1, 57, 0
5, 23128, Note_on_c, 1, 60, 0
5, 23160, Note_on_c, 1, 60, 74
5, 23160, Note_on_c, 1, 57, 67
5, 23160, Note_on_c, 1, 63, 73
5, 23204, Note_on_c, 1, 63, 0
5, 23204, Note_on_c, 1, 57, 0
5, 23204, Note_on_c, 1, 60, 0
5, 23235, Note_on_c, 1, 57, 85
5, 23235, Note_on_c, 1, 60, 90
5, 23235, Note_on_c, 1, 63, 89
5, 23323, Note_on_c, 1, 63, 0
5, 23323, Note_on_c, 1, 60, 0
5, 23323, Note_on_c, 1, 57, 0
5, 23355, Note_on_c, 1, 60, 72
5, 23355, Note_on_c, 1, 57, 63
5, 23355, Note_on_c, 1, 63, 69
5, 23384, Note_on_c, 1, 63, 0
5, 23384, Note_on_c, 1, 57, 0
5, 23384, Note_on_c, 1, 60, 0
5, 23400, Note_on_c, 1, 57, 78
5, 23400, Note_on_c, 1, 60, 96
5, 23400, Note_on_c, 1, 63, 89
5, 23444, Note_on_c, 1, 57, 0
5, 23475, Note_on_c, 1, 57, 65
5, 23503, Note_on_c, 1, 63, 0
5, 23503, Note_on_c, 1, 60, 0
5, 23504, Note_on_c, 1, 57, 0
5, 23520, Control_c, 1, 64, 0
5, 23520, Control_c, 1, 64, 127
5, 23520, Note_on_c, 1, 60, 91
5, 23520, Note_on_c, 1, 57, 88
5, 23520, Note_on_c, 1, 63, 91
5, 23608, Note_on_c, 1, 63, 0
5, 23608, Note_on_c, 1, 57, 0
5, 23608, Note_on_c, 1, 60, 0
5, 23640, Note_on_c, 1, 60, 74
5, 23640, Note_on_c, 1, 57, 67
5, 23640, Note_on_c, 1, 63, 73
5, 23684, Note_on_c, 1, 63, 0
5, 23684, Note_on_c, 1, 57, 0
5, 23684, Note_on_c, 1, 60, 0
5, 23715, Note_on_c, 1, 57, 85
5, 23715, Note_on_c, 1, 60, 90
5, 23715, Note_on_c, 1, 63, 89
5, 23803, Note_on_c, 1, 63, 0
5, 23803, Note_on_c, 1, 60, 0
5, 23803, Note_on_c, 1, 57, 0
5, 23835, Note_on_c, 1, 60, 72
5, 23835, Note_on_c, 1, 57, 63
5, 23835, Note_on_c, 1, 63, 69
5, 23864, Note_on_c, 1, 63, 0
5, 23864, Note_on_c, 1, 57, 0
5, 23864, Note_on_c, 1, 60, 0
5, 23880, Note_on_c, 1, 57, 78
5, 23880, Note_on_c, 1, 60, 96
5, 23880, Note_on_c, 1, 63, 89
5, 23924, Note_on_c, 1, 57, 0
5, 23955, Note_on_c, 1, 57, 65
5, 23983, Note_on_c, 1, 63, 0
5, 23983, Note_on_c, 1, 60, 0
5, 23984, Note_on_c, 1, 57, 0
5, 24000, Control_c, 1, 64, 0
5, 24000, Control_c, 1, 64, 127
5, 24000, Note_on_c, 1, 57, 88
5, 24000, Note_on_c, 1, 62, 91
5, 24000, Note_on_c, 1, 65, 91
5, 24088, Note_on_c, 1, 65, 0
5, 24088, Note_on_c, 1, 62, 0
5, 24088, Note_on_c, 1, 57, 0
5, 24120, Note_on_c, 1, 57, 67
5, 24120, Note_on_c, 1, 62, 74
5, 24120, Note_on_c, 1, 65, 73
5, 24164, Note_on_c, 1, 65, 0
5, 24164, Note_on_c, 1, 62, 0
5, 24164, Note_on_c, 1, 57, 0
5, 24195, Note_on_c, 1, 57, 85
5, 24195, Note_on_c, 1, 65, 89
5, 24195, Note_on_c, 1, 62, 90
5, 24283, Note_on_c, 1, 62, 0
5, 24283, Note_on_c, 1, 65, 0
5, 24283, Note_on_c, 1, 57, 0
5, 24315, Note_on_c, 1, 57, 63
5, 24315, Note_on_c, 1, 62, 72
5, 24315, Note_on_c, 1, 65, 69
5, 24344, Note_on_c, 1, 65, 0
5, 24344, Note_on_c, 1, 62, 0
5, 24344, Note_on_c, 1, 57, 0
5, 24360, Note_on_c, 1, 57, 78
5, 24360, Note_on_c, 1, 65, 89
5, 24360, Note_on_c, 1, 62, 96
5, 24404, Note_on_c, 1, 57, 0
5, 24435, Note_on_c, 1, 57, 65
5, 24463, Note_on_c, 1, 62, 0
5, 24463, Note_on_c, 1, 65, 0
5, 24464, Note_on_c, 1, 57, 0
5, 24480, Control_c, 1, 64, 0
5, 24480, Control_c, 1, 64, 127
5, 24480, Note_on_c, 1, 65, 91
5, 24480, Note_on_c, 1, 62, 91
5, 24480, Note_on_c, 1, 58, 88
5, 24568, Note_on_c, 1, 58, 0
5, 24568, Note_on_c, 1, 62, 0
5, 24568, Note_on_c, 1, 65, 0
5, 24600, Note_on_c, 1, 58, 67
5, 24600, Note_on_c, 1, 62, 74
5, 24600, Note_on_c, 1, 65, 73
5, 24644, Note_on_c, 1, 65, 0
5, 24644, Note_on_c, 1, 62, 0
5, 24644, Note_on_c, 1, 58, 0
5, 24675, Note_on_c, 1, 58, 85
5, 24675, Note_on_c, 1, 65, 89
5, 24675, Note_on_c, 1, 62, 90
5, 24704, Note_on_c, 1, 62, 0
5, 24704, Note_on_c, 1, 65, 0
5, 24704, Note_on_c, 1, 58, 0
5, 24712, Control_c, 1, 64, 0
5, 24720, Control_c, 1, 64, 127
5, 24720, Note_on_c, 1, 60, 91
5, 24720, Note_on_c, 1, 64, 91
5, 24720, Note_on_c, 1, 67, 91
5, 24779, Note_on_c, 1, 67, 0
5, 24779, Note_on_c, 1, 64, 0
5, 24779, Note_on_c, 1, 60, 0
5, 24795, Note_on_c, 1, 64, 72
5, 24795, Note_on_c, 1, 67, 69
5, 24795, Note_on_c, 1, 60, 63
5, 24824, Note_on_c, 1, 60, 0
5, 24824, Note_on_c, 1, 67, 0
5, 24824, Note_on_c, 1, 64, 0
5, 24840, Note_on_c, 1, 60, 78
5, 24840, Note_on_c, 1, 67, 89
5, 24840, Note_on_c, 1, 64, 96
5, 24884, Note_on_c, 1, 60, 0
5, 24915, Note_on_c, 1, 60, 65
5, 24943, Note_on_c, 1, 64, 0
5, 24943, Note_on_c, 1, 67, 0
5, 24944, Note_on_c, 1, 60, 0
5, 24960, Control_c, 1, 64, 0
5, 24960, Control_c, 1, 64, 127
5, 24960, Note_on_c, 1, 60, 88
5, 24960, Note_on_c, 1, 65, 91
5, 24960, Note_on_c, 1, 57, 91
5, 25048, Note_on_c, 1, 57, 0
5, 25048, Note_on_c, 1, 65, 0
5, 25048, Note_on_c, 1, 60, 0
5, 25080, Note_on_c, 1, 57, 67
5, 25080, Note_on_c, 1, 60, 74
5, 25080, Note_on_c, 1, 65, 73
5, 25124, Note_on_c, 1, 65, 0
5, 25124, Note_on_c, 1, 60, 0
5, 25124, Note_on_c, 1, 57, 0
5, 25155, Note_on_c, 1, 57, 85
5, 25155, Note_on_c, 1, 65, 89
5, 25155, Note_on_c, 1, 60, 90
5, 25243, Note_on_c, 1, 60, 0
5, 25243, Note_on_c, 1, 65, 0
5, 25243, Note_on_c, 1, 57, 0
5, 25275, Note_on_c, 1, 57, 63
5, 25275, Note_on_c, 1, 60, 72
5, 25275, Note_on_c, 1, 65, 69
5, 25304, Note_on_c, 1, 65, 0
5, 25304, Note_on_c, 1, 60, 0
5, 25304, Note_on_c, 1, 57, 0
5, 25320, Note_on_c, 1, 57, 78
5, 25320, Note_on_c, 1, 60, 96
5, 25320, Note_on_c, 1, 65, 89
5, 25364, Note_on_c, 1, 57, 0
5, 25395, Note_on_c, 1, 57, 65
5, 25423, Note_on_c, 1, 65, 0
5, 25423, Note_on_c, 1, 60, 0
5, 25424, Note_on_c, 1, 57, 0
5, 25440, Control_c, 1, 64, 0
5, 25440, Control_c, 1, 64, 127
5, 25440, Note_on_c, 1, 60, 91
5, 25440, Note_on_c, 1, 57, 88
5, 25440, Note_on_c, 1, 65, 91
5, 25528, Note_on_c, 1, 65, 0
5, 25528, Note_on_c, 1, 57, 0
5, 25528, Note_on_c, 1, 60, 0
5, 25560, Note_on_c, 1, 65, 73
5, 25560, Note_on_c, 1, 60, 74
5, 25560, Note_on_c, 1, 57, 67
5, 25604, Note_on_c, 1, 57, 0
5, 25604, Note_on_c, 1, 60, 0
5, 25604, Note_on_c, 1, 65, 0
5, 25635, Note_on_c, 1, 60, 90
5, 25635, Note_on_c, 1, 65, 89
5, 25635, Note_on_c, 1, 57, 85
5, 25723, Note_on_c, 1, 57, 0
5, 25723, Note_on_c, 1, 65, 0
5, 25723, Note_on_c, 1, 60, 0
5, 25755, Note_on_c, 1, 60, 72
5, 25755, Note_on_c, 1, 57, 63
5, 25755, Note_on_c, 1, 65, 69
5, 25784, Note_on_c, 1, 65, 0
5, 25784, Note_on_c, 1, 57, 0
5, 25784, Note_on_c, 1, 60, 0
5, 25800, Note_on_c, 1, 57, 78
5, 25800, Note_on_c, 1, 60, 96
5, 25800, Note_on_c, 1, 65, 89
5, 25844, Note_on_c, 1, 57, 0
5, 25875, Note_on_c, 1, 57, 65
5, 25903, Note_on_c, 1, 65, 0
5, 25903, Note_on_c, 1, 60, 0
5, 25904, Note_on_c, 1, 57, 0
5, 25920, Control_c, 1, 64, 0
5, 25920, Control_c, 1, 64, 127
5, 25920, Note_on_c, 1, 60, 91
5, 25920, Note_on_c, 1, 57, 88
5, 25920, Note_on_c, 1, 64, 91
5, 26008, Note_on_c, 1, 64, 0
5, 26008, Note_on_c, 1, 57, 0
5, 26008, Note_on_c, 1, 60, 0
5, 26040, Note_on_c, 1, 60, 74
5, 26040, Note_on_c, 1, 57, 67
5, 26040, Note_on_c, 1, 64, 73
5, 26084, Note_on_c, 1, 64, 0
5, 26084, Note_on_c, 1, 57, 0
5, 26084, Note_on_c, 1, 60, 0
5, 26115, Note_on_c, 1, 57, 85
5, 26115, Note_on_c, 1, 60, 90
5, 26115, Note_on_c, 1, 64, 89
5, 26203, Note_on_c, 1, 64, 0
5, 26203, Note_on_c, 1, 60, 0
5, 26203, Note_on_c, 1, 57, 0
5, 26235, Note_on_c, 1, 60, 72
5, 26235, Note_on_c, 1, 57, 63
5, 26235, Note_on_c, 1, 64, 69
5, 26264, Note_on_c, 1, 64, 0
5, 26264, Note_on_c, 1, 57, 0
5, 26264, Note_on_c, 1, 60, 0
5, 26280, Note_on_c, 1, 57, 78
5, 26280, Note_on_c, 1, 60, 96
5, 26280, Note_on_c, 1, 64, 89
5, 26324, Note_on_c, 1, 57, 0
5, 26355, Note_on_c, 1, 57, 65
5, 26383, Note_on_c, 1, 64, 0
5, 26383, Note_on_c, 1, 60, 0
5, 26384, Note_on_c, 1, 57, 0
5, 26400, Control_c, 1, 64, 0
5, 26400, Control_c, 1, 64, 127
5, 26400, Note_on_c, 1, 60, 91
5, 26400, Note_on_c, 1, 57, 88
5, 26400, Note_on_c, 1, 64, 91
5, 26488, Note_on_c, 1, 64, 0
5, 26488, Note_on_c, 1, 57, 0
5, 26488, Note_on_c, 1, 60, 0
5, 26520, Note_on_c, 1, 60, 74
5, 26520, Note_on_c, 1, 57, 67
5, 26520, Note_on_c, 1, 64, 73
5, 26564, Note_on_c, 1, 64, 0
5, 26564, Note_on_c, 1, 57, 0
5, 26564, Note_on_c, 1, 60, 0
5, 26595, Note_on_c, 1, 57, 85
5, 26595, Note_on_c, 1, 60, 90
5, 26595, Note_on_c, 1, 64, 89
5, 26683, Note_on_c, 1, 64, 0
5, 26683, Note_on_c, 1, 60, 0
5, 26683, Note_on_c, 1, 57, 0
5, 26715, Note_on_c, 1, 60, 72
5, 26715, Note_on_c, 1, 57, 63
5, 26715, Note_on_c, 1, 64, 69
5, 26744, Note_on_c, 1, 64, 0
5, 26744, Note_on_c, 1, 57, 0
5, 26744, Note_on_c, 1, 60, 0
5, 26760, Note_on_c, 1, 57, 78
5, 26760, Note_on_c, 1, 60, 96
5, 26760, Note_on_c, 1, 64, 89
5, 26804, Note_on_c, 1, 57, 0
5, 26835, Note_on_c, 1, 57, 65
5, 26863, Note_on_c, 1, 64, 0
5, 26863, Note_on_c, 1, 60, 0
5, 26864, Note_on_c, 1, 57, 0
5, 26880, Control_c, 1, 64, 0
5, 26880, Control_c, 1, 64, 127
5, 26880, Note_on_c, 1, 57, 88
5, 26880, Note_on_c, 1, 65, 91
5, 26880, Note_on_c, 1, 62, 91
5, 26968, Note_on_c, 1, 62, 0
5, 26968, Note_on_c, 1, 65, 0
5, 26968, Note_on_c, 1, 57, 0
5, 27000, Note_on_c, 1, 57, 67
5, 27000, Note_on_c, 1, 62, 74
5, 27000, Note_on_c, 1, 65, 73
5, 27044, Note_on_c, 1, 65, 0
5, 27044, Note_on_c, 1, 62, 0
5, 27044, Note_on_c, 1, 57, 0
5, 27075, Note_on_c, 1, 57, 85
5, 27075, Note_on_c, 1, 65, 89
5, 27075, Note_on_c, 1, 62, 90
5, 27163, Note_on_c, 1, 62, 0
5, 27163, Note_on_c, 1, 65, 0
5, 27163, Note_on_c, 1, 57, 0
5, 27195, Note_on_c, 1, 57, 63
5, 27195, Note_on_c, 1, 62, 72
5, 27195, Note_on_c, 1, 65, 69
5, 27224, Note_on_c, 1, 65, 0
5, 27224, Note_on_c, 1, 62, 0
5, 27224, Note_on_c, 1, 57, 0
5, 27240, Note_on_c, 1, 57, 78
5, 27240, Note_on_c, 1, 62, 96
5, 27240, Note_on_c, 1, 65, 89
5, 27284, Note_on_c, 1, 57, 0
5, 27315, Note_on_c, 1, 57, 65
5, 27343, Note_on_c, 1, 65, 0
5, 27343, Note_on_c, 1, 62, 0
5, 27344, Note_on_c, 1, 57, 0
5, 27360, Control_c, 1, 64, 0
5, 27360, Control_c, 1, 64, 127
5, 27360, Note_on_c, 1, 57, 88
5, 27360, Note_on_c, 1, 65, 91
5, 27360, Note_on_c, 1, 62, 91
5, 27448, Note_on_c, 1, 62, 0
5, 27448, Note_on_c, 1, 65, 0
5, 27448, Note_on_c, 1, 57, 0
5, 27480, Note_on_c, 1, 57, 67
5, 27480, Note_on_c, 1, 62, 74
5, 27480, Note_on_c, 1, 65, 73
5, 27524, Note_on_c, 1, 65, 0
5, 27524, Note_on_c, 1, 62, 0
5, 27524, Note_on_c, 1, 57, 0
5, 27555, Note_on_c, 1, 57, 85
5, 27555, Note_on_c, 1, 65, 89
5, 27555, Note_on_c, 1, 62, 90
5, 27643, Note_on_c, 1, 62, 0
5, 27643, Note_on_c, 1, 65, 0
5, 27643, Note_on_c, 1, 57, 0
5, 27675, Note_on_c, 1, 57, 63
5, 27675, Note_on_c, 1, 62, 72
5, 27675, Note_on_c, 1, 65, 69
5, 27704, Note_on_c, 1, 65, 0
5, 27704, Note_on_c, 1, 62, 0
5, 27704, Note_on_c, 1, 57, 0
5, 27720, Note_on_c, 1, 57, 78
5, 27720, Note_on_c, 1, 62, 96
5, 27720, Note_on_c, 1, 65, 89
5, 27764, Note_on_c, 1, 57, 0
5, 27795, Note_on_c, 1, 57, 65
5, 27823, Note_on_c, 1, 65, 0
5, 27823, Note_on_c, 1, 62, 0
5, 27824, Note_on_c, 1, 57, 0
5, 27840, Control_c, 1, 64, 0
5, 27840, Control_c, 1, 64, 127
5, 27840, Note_on_c, 1, 65, 91
5, 27840, Note_on_c, 1, 61, 91
5, 27840, Note_on_c, 1, 58, 88
5, 27928, Note_on_c, 1, 58, 0
5, 27928, Note_on_c, 1, 61, 0
5, 27928, Note_on_c, 1, 65, 0
5, 27960, Note_on_c, 1, 65, 73
5, 27960, Note_on_c, 1, 61, 74
5, 27960, Note_on_c, 1, 58, 67
5, 28004, Note_on_c, 1, 58, 0
5, 28004, Note_on_c, 1, 61, 0
5, 28004, Note_on_c, 1, 65, 0
5, 28035, Note_on_c, 1, 65, 89
5, 28035, Note_on_c, 1, 61, 90
5, 28035, Note_on_c, 1, 58, 85
5, 28123, Note_on_c, 1, 58, 0
5, 28123, Note_on_c, 1, 61, 0
5, 28123, Note_on_c, 1, 65, 0
5, 28155, Note_on_c, 1, 65, 69
5, 28155, Note_on_c, 1, 61, 72
5, 28155, Note_on_c, 1, 58, 63
5, 28184, Note_on_c, 1, 58, 0
5, 28184, Note_on_c, 1, 61, 0
5, 28184, Note_on_c, 1, 65, 0
5, 28200, Note_on_c, 1, 65, 89
5, 28200, Note_on_c, 1, 61, 96
5, 28200, Note_on_c, 1, 58, 78
5, 28244, Note_on_c, 1, 58, 0
5, 28275, Note_on_c, 1, 58, 65
5, 28303, Note_on_c, 1, 61, 0
5, 28303, Note_on_c, 1, 65, 0
5, 28304, Note_on_c, 1, 58, 0
5, 28320, Control_c, 1, 64, 0
5, 28320, Control_c, 1, 64, 127
5, 28320, Note_on_c, 1, 60, 91
5, 28320, Note_on_c, 1, 64, 91
5, 28320, Note_on_c, 1, 55, 88
5, 28408, Note_on_c, 1, 55, 0
5, 28408, Note_on_c, 1, 64, 0
5, 28408, Note_on_c, 1, 60, 0
5, 28440, Note_on_c, 1, 60, 74
5, 28440, Note_on_c, 1, 64, 73
5, 28440, Note_on_c, 1, 55, 67
5, 28484, Note_on_c, 1, 55, 0
5, 28484, Note_on_c, 1, 64, 0
5, 28484, Note_on_c, 1, 60, 0
5, 28515, Note_on_c, 1, 60, 90
5, 28515, Note_on_c, 1, 64, 89
5, 28515, Note_on_c, 1, 55, 85
5, 28603, Note_on_c, 1, 55, 0
5, 28603, Note_on_c, 1, 64, 0
5, 28603, Note_on_c, 1, 60, 0
5, 28635, Note_on_c, 1, 60, 72
5, 28635, Note_on_c, 1, 64, 69
5, 28635, Note_on_c, 1, 55, 63
5, 28664, Note_on_c, 1, 55, 0
5, 28664, Note_on_c, 1, 64, 0
5, 28664, Note_on_c, 1, 60, 0
5, 28680, Note_on_c, 1, 60, 96
5, 28680, Note_on_c, 1, 64, 89
5, 28680, Note_on_c, 1, 55, 78
5, 28724, Note_on_c, 1, 55, 0
5, 28755, Note_on_c, 1, 55, 65
5, 28783, Note_on_c, 1, 64, 0
5, 28783, Note_on_c, 1, 60, 0
5, 28784, Note_on_c, 1, 55, 0
5, 28800, Control_c, 1, 64, 0
5, 28800, Control_c, 1, 64, 127
5, 28800, Note_on_c, 1, 60, 88
5, 28800, Note_on_c, 1, 65, 91
5, 28800, Note_on_c, 1, 57, 91
5, 28888, Note_on_c, 1, 57, 0
5, 28888, Note_on_c, 1, 65, 0
5, 28888, Note_on_c, 1, 60, 0
5, 28920, Note_on_c, 1, 57, 67
5, 28920, Note_on_c, 1, 60, 74
5, 28920, Note_on_c, 1, 65, 73
5, 28964, Note_on_c, 1, 65, 0
5, 28964, Note_on_c, 1, 60, 0
5, 28964, Note_on_c, 1, 57, 0
5, 28995, Note_on_c, 1, 57, 85
5, 28995, Note_on_c, 1, 65, 89
5, 28995, Note_on_c, 1, 60, 90
5, 29083, Note_on_c, 1, 60, 0
5, 29083, Note_on_c, 1, 65, 0
5, 29083, Note_on_c, 1, 57, 0
5, 29115, Note_on_c, 1, 57, 63
5, 29115, Note_on_c, 1, 60, 72
5, 29115, Note_on_c, 1, 65, 69
5, 29144, Note_on_c, 1, 65, 0
5, 29144, Note_on_c, 1, 60, 0
5, 29144, Note_on_c, 1, 57, 0
5, 29160, Note_on_c, 1, 57, 78
5, 29160, Note_on_c, 1, 60, 96
5, 29160, Note_on_c, 1, 65, 89
5, 29204, Note_on_c, 1, 57, 0
5, 29235, Note_on_c, 1, 57, 65
5, 29263, Note_on_c, 1, 65, 0
5, 29263, Note_on_c, 1, 60, 0
5, 29264, Note_on_c, 1, 57, 0
5, 29280, Control_c, 1, 64, 0
5, 29280, Control_c, 1, 64, 127
5, 29280, Note_on_c, 1, 60, 91
5, 29280, Note_on_c, 1, 57, 88
5, 29280, Note_on_c, 1, 65, 91
5, 29368, Note_on_c, 1, 65, 0
5, 29368, Note_on_c, 1, 57, 0
5, 29368, Note_on_c, 1, 60, 0
5, 29400, Note_on_c, 1, 65, 73
5, 29400, Note_on_c, 1, 60, 74
5, 29400, Note_on_c, 1, 57, 67
5, 29444, Note_on_c, 1, 57, 0
5, 29444, Note_on_c, 1, 60, 0
5, 29444, Note_on_c, 1, 65, 0
5, 29475, Note_on_c, 1, 60, 90
5, 29475, Note_on_c, 1, 65, 89
5, 29475, Note_on_c, 1, 57, 85
5, 29563, Note_on_c, 1, 57, 0
5, 29563, Note_on_c, 1, 65, 0
5, 29563, Note_on_c, 1, 60, 0
5, 29595, Note_on_c, 1, 60, 72
5, 29595, Note_on_c, 1, 57, 63
5, 29595, Note_on_c, 1, 65, 69
5, 29624, Note_on_c, 1, 65, 0
5, 29624, Note_on_c, 1, 57, 0
5, 29624, Note_on_c, 1, 60, 0
5, 29640, Note_on_c, 1, 57, 78
5, 29640, Note_on_c, 1, 60, 96
5, 29640, Note_on_c, 1, 65, 89
5, 29684, Note_on_c, 1, 57, 0
5, 29715, Note_on_c, 1, 57, 65
5, 29743, Note_on_c, 1, 65, 0
5, 29743, Note_on_c, 1, 60, 0
5, 29744, Note_on_c, 1, 57, 0
5, 29760, Control_c, 1, 64, 0
5, 29760, Control_c, 1, 64, 127
5, 29760, Note_on_c, 1, 60, 91
5, 29760, Note_on_c, 1, 57, 88
5, 29760, Note_on_c, 1, 64, 91
5, 29848, Note_on_c, 1, 64, 0
5, 29848, Note_on_c, 1, 57, 0
5, 29848, Note_on_c, 1, 60, 0
5, 29880, Note_on_c, 1, 60, 74
5, 29880, Note_on_c, 1, 57, 67
5, 29880, Note_on_c, 1, 64, 73
5, 29924, Note_on_c, 1, 64, 0
5, 29924, Note_on_c, 1, 57, 0
5, 29924, Note_on_c, 1, 60, 0
5, 29955, Note_on_c, 1, 57, 85
5, 29955, Note_on_c, 1, 60, 90
5, 29955, Note_on_c, 1, 64, 89
5, 30043, Note_on_c, 1, 64, 0
5, 30043, Note_on_c, 1, 60, 0
5, 30043, Note_on_c, 1, 57, 0
5, 30075, Note_on_c, 1, 60, 72
5, 30075, Note_on_c, 1, 57, 63
5, 30075, Note_on_c, 1, 64, 69
5, 30104, Note_on_c, 1, 64, 0
5, 30104, Note_on_c, 1, 57, 0
5, 30104, Note_on_c, 1, 60, 0
5, 30120, Note_on_c, 1, 57, 78
5, 30120, Note_on_c, 1, 60, 96
5, 30120, Note_on_c, 1, 64, 89
5, 30164, Note_on_c, 1, 57, 0
5, 30195, Note_on_c, 1, 57, 65
5, 30223, Note_on_c, 1, 64, 0
5, 30223, Note_on_c, 1, 60, 0
5, 30224, Note_on_c, 1, 57, 0
5, 30240, Control_c, 1, 64, 0
5, 30240, Control_c, 1, 64, 127
5, 30240, Note_on_c, 1, 60, 91
5, 30240, Note_on_c, 1, 57, 88
5, 30240, Note_on_c, 1, 64, 91
5, 30328, Note_on_c, 1, 64, 0
5, 30328, Note_on_c, 1, 57, 0
5, 30328, Note_on_c, 1, 60, 0
5, 30360, Note_on_c, 1, 60, 74
5, 30360, Note_on_c, 1, 57, 67
5, 30360, Note_on_c, 1, 64, 73
5, 30404, Note_on_c, 1, 64, 0
5, 30404, Note_on_c, 1, 57, 0
5, 30404, Note_on_c, 1, 60, 0
5, 30435, Note_on_c, 1, 57, 85
5, 30435, Note_on_c, 1, 60, 90
5, 30435, Note_on_c, 1, 64, 89
5, 30523, Note_on_c, 1, 64, 0
5, 30523, Note_on_c, 1, 60, 0
5, 30523, Note_on_c, 1, 57, 0
5, 30555, Note_on_c, 1, 60, 72
5, 30555, Note_on_c, 1, 57, 63
5, 30555, Note_on_c, 1, 64, 69
5, 30584, Note_on_c, 1, 64, 0
5, 30584, Note_on_c, 1, 57, 0
5, 30584, Note_on_c, 1, 60, 0
5, 30600, Note_on_c, 1, 57, 78
5, 30600, Note_on_c, 1, 60, 96
5, 30600, Note_on_c, 1, 64, 89
5, 30644, Note_on_c, 1, 57, 0
5, 30675, Note_on_c, 1, 57, 65
5, 30703, Note_on_c, 1, 64, 0
5, 30703, Note_on_c, 1, 60, 0
5, 30704, Note_on_c, 1, 57, 0
5, 30720, Control_c, 1, 64, 0
5, 30720, Control_c, 1, 64, 127
5, 30720, Note_on_c, 1, 57, 88
5, 30720, Note_on_c, 1, 65, 91
5, 30720, Note_on_c, 1, 62, 91
5, 30808, Note_on_c, 1, 62, 0
5, 30808, Note_on_c, 1, 65, 0
5, 30808, Note_on_c, 1, 57, 0
5, 30840, Note_on_c, 1, 57, 67
5, 30840, Note_on_c, 1, 62, 74
5, 30840, Note_on_c, 1, 65, 73
5, 30884, Note_on_c, 1, 65, 0
5, 30884, Note_on_c, 1, 62, 0
5, 30884, Note_on_c, 1, 57, 0
5, 30915, Note_on_c, 1, 57, 85
5, 30915, Note_on_c, 1, 65, 89
5, 30915, Note_on_c, 1, 62, 90
5, 31003, Note_on_c, 1, 62, 0
5, 31003, Note_on_c, 1, 65, 0
5, 31003, Note_on_c, 1, 57, 0
5, 31035, Note_on_c, 1, 57, 63
5, 31035, Note_on_c, 1, 62, 72
5, 31035, Note_on_c, 1, 65, 69
5, 31064, Note_on_c, 1, 65, 0
5, 31064, Note_on_c, 1, 62, 0
5, 31064, Note_on_c, 1, 57, 0
5, 31080, Note_on_c, 1, 57, 78
5, 31080, Note_on_c, 1, 62, 96
5, 31080, Note_on_c, 1, 65, 89
5, 31124, Note_on_c, 1, 57, 0
5, 31155, Note_on_c, 1, 57, 65
5, 31183, Note_on_c, 1, 65, 0
5, 31183, Note_on_c, 1, 62, 0
5, 31184, Note_on_c, 1, 57, 0
5, 31200, Control_c, 1, 64, 0
5, 31200, Control_c, 1, 64, 127
5, 31200, Note_on_c, 1, 57, 88
5, 31200, Note_on_c, 1, 65, 91
5, 31200, Note_on_c, 1, 62, 91
5, 31288, Note_on_c, 1, 62, 0
5, 31288, Note_on_c, 1, 65, 0
5, 31288, Note_on_c, 1, 57, 0
5, 31320, Note_on_c, 1, 57, 67
5, 31320, Note_on_c, 1, 62, 74
5, 31320, Note_on_c, 1, 65, 73
5, 31364, Note_on_c, 1, 65, 0
5, 31364, Note_on_c, 1, 62, 0
5, 31364, Note_on_c, 1, 57, 0
5, 31395, Note_on_c, 1, 57, 85
5, 31395, Note_on_c, 1, 65, 89
5, 31395, Note_on_c, 1, 62, 90
5, 31483, Note_on_c, 1, 62, 0
5, 31483, Note_on_c, 1, 65, 0
5, 31483, Note_on_c, 1, 57, 0
5, 31515, Note_on_c, 1, 57, 63
5, 31515, Note_on_c, 1, 62, 72
5, 31515, Note_on_c, 1, 65, 69
5, 31544, Note_on_c, 1, 65, 0
5, 31544, Note_on_c, 1, 62, 0
5, 31544, Note_on_c, 1, 57, 0
5, 31560, Note_on_c, 1, 57, 78
5, 31560, Note_on_c, 1, 62, 96
5, 31560, Note_on_c, 1, 65, 89
5, 31604, Note_on_c, 1, 57, 0
5, 31635, Note_on_c, 1, 57, 65
5, 31663, Note_on_c, 1, 65, 0
5, 31663, Note_on_c, 1, 62, 0
5, 31664, Note_on_c, 1, 57, 0
5, 31680, Control_c, 1, 64, 0
5, 31680, Control_c, 1, 64, 127
5, 31680, Note_on_c, 1, 65, 91
5, 31680, Note_on_c, 1, 61, 91
5, 31680, Note_on_c, 1, 58, 88
5, 31768, Note_on_c, 1, 58, 0
5, 31768, Note_on_c, 1, 61, 0
5, 31768, Note_on_c, 1, 65, 0
5, 31800, Note_on_c, 1, 65, 73
5, 31800, Note_on_c, 1, 61, 74
5, 31800, Note_on_c, 1, 58, 67
5, 31844, Note_on_c, 1, 58, 0
5, 31844, Note_on_c, 1, 61, 0
5, 31844, Note_on_c, 1, 65, 0
5, 31875, Note_on_c, 1, 65, 89
5, 31875, Note_on_c, 1, 61, 90
5, 31875, Note_on_c, 1, 58, 85
5, 31963, Note_on_c, 1, 58, 0
5, 31963, Note_on_c, 1, 61, 0
5, 31963, Note_on_c, 1, 65, 0
5, 31995, Note_on_c, 1, 65, 69
5, 31995, Note_on_c, 1, 61, 72
5, 31995, Note_on_c, 1, 58, 63
5, 32024, Note_on_c, 1, 58, 0
5, 32024, Note_on_c, 1, 61, 0
5, 32024, Note_on_c, 1, 65, 0
5, 32040, Note_on_c, 1, 65, 89
5, 32040, Note_on_c, 1, 61, 96
5, 32040, Note_on_c, 1, 58, 78
5, 32084, Note_on_c, 1, 58, 0
5, 32115, Note_on_c, 1, 58, 65
5, 32143, Note_on_c, 1, 61, 0
5, 32143, Note_on_c, 1, 65, 0
5, 32144, Note_on_c, 1, 58, 0
5, 32160, Control_c, 1, 64, 0
5, 32160, Control_c, 1, 64, 127
5, 32160, Note_on_c, 1, 60, 91
5, 32160, Note_on_c, 1, 64, 91
5, 32160, Note_on_c, 1, 55, 88
5, 32248, Note_on_c, 1, 55, 0
5, 32248, Note_on_c, 1, 64, 0
5, 32248, Note_on_c, 1, 60, 0
5, 32280, Note_on_c, 1, 60, 74
5, 32280, Note_on_c, 1, 64, 73
5, 32280, Note_on_c, 1, 55, 67
5, 32324, Note_on_c, 1, 55, 0
5, 32324, Note_on_c, 1, 64, 0
5, 32324, Note_on_c, 1, 60, 0
5, 32355, Note_on_c, 1, 60, 90
5, 32355, Note_on_c, 1, 64, 89
5, 32355, Note_on_c, 1, 55, 85
5, 32443, Note_on_c, 1, 55, 0
5, 32443, Note_on_c, 1, 64, 0
5, 32443, Note_on_c, 1, 60, 0
5, 32475, Note_on_c, 1, 60, 72
5, 32475, Note_on_c, 1, 64, 69
5, 32475, Note_on_c, 1, 55, 63
5, 32504, Note_on_c, 1, 55, 0
5, 32504, Note_on_c, 1, 64, 0
5, 32504, Note_on_c, 1, 60, 0
5, 32520, Note_on_c, 1, 60, 96
5, 32520, Note_on_c, 1, 64, 89
5, 32520, Note_on_c, 1, 55, 78
5, 32564, Note_on_c, 1, 55, 0
5, 32595, Note_on_c, 1, 55, 65
5, 32623, Note_on_c, 1, 64, 0
5, 32623, Note_on_c, 1, 60, 0
5, 32624, Note_on_c, 1, 55, 0
5, 32640, Control_c, 1, 64, 0
5, 32640, Control_c, 1, 64, 127
5, 32640, Note_on_c, 1, 58, 91
5, 32640, Note_on_c, 1, 62, 91
5, 32640, Note_on_c, 1, 53, 88
5, 32728, Note_on_c, 1, 62, 0
5, 32728, Note_on_c, 1, 58, 0
5, 32735, Note_on_c, 1, 53, 0
5, 32760, Note_on_c, 1, 58, 74
5, 32760, Note_on_c, 1, 62, 73
5, 32760, Note_on_c, 1, 53, 67
5, 32804, Note_on_c, 1, 53, 0
5, 32804, Note_on_c, 1, 62, 0
5, 32804, Note_on_c, 1, 58, 0
5, 32835, Note_on_c, 1, 58, 90
5, 32835, Note_on_c, 1, 62, 89
5, 32835, Note_on_c, 1, 53, 85
5, 32923, Note_on_c, 1, 53, 0
5, 32923, Note_on_c, 1, 62, 0
5, 32923, Note_on_c, 1, 58, 0
5, 32955, Note_on_c, 1, 58, 72
5, 32955, Note_on_c, 1, 62, 69
5, 32955, Note_on_c, 1, 53, 63
5, 32984, Note_on_c, 1, 53, 0
5, 32984, Note_on_c, 1, 62, 0
5, 32984, Note_on_c, 1, 58, 0
5, 33000, Note_on_c, 1, 58, 96
5, 33000, Note_on_c, 1, 62, 89
5, 33000, Note_on_c, 1, 53, 78
5, 33044, Note_on_c, 1, 53, 0
5, 33075, Note_on_c, 1, 53, 65
5, 33103, Note_on_c, 1, 62, 0
5, 33103, Note_on_c, 1, 58, 0
5, 33104, Note_on_c, 1, 53, 0
5, 33120, Control_c, 1, 64, 0
5, 33120, Control_c, 1, 64, 127
5, 33120, Note_on_c, 1, 60, 91
5, 33120, Note_on_c, 1, 64, 91
5, 33120, Note_on_c, 1, 55, 88
5, 33208, Note_on_c, 1, 55, 0
5, 33208, Note_on_c, 1, 64, 0
5, 33208, Note_on_c, 1, 60, 0
5, 33240, Note_on_c, 1, 60, 74
5, 33240, Note_on_c, 1, 64, 73
5, 33240, Note_on_c, 1, 55, 67
5, 33284, Note_on_c, 1, 55, 0
5, 33284, Note_on_c, 1, 64, 0
5, 33284, Note_on_c, 1, 60, 0
5, 33315, Note_on_c, 1, 60, 90
5, 33315, Note_on_c, 1, 64, 89
5, 33315, Note_on_c, 1, 55, 85
5, 33403, Note_on_c, 1, 55, 0
5, 33403, Note_on_c, 1, 64, 0
5, 33403, Note_on_c, 1, 60, 0
5, 33435, Note_on_c, 1, 60, 72
5, 33435, Note_on_c, 1, 64, 69
5, 33435, Note_on_c, 1, 55, 63
5, 33464, Note_on_c, 1, 55, 0
5, 33464, Note_on_c, 1, 64, 0
5, 33464, Note_on_c, 1, 60, 0
5, 33480, Note_on_c, 1, 60, 96
5, 33480, Note_on_c, 1, 64, 89
5, 33480, Note_on_c, 1, 55, 78
5, 33524, Note_on_c, 1, 55, 0
5, 33555, Note_on_c, 1, 55, 65
5, 33583, Note_on_c, 1, 64, 0
5, 33583, Note_on_c, 1, 60, 0
5, 33584, Note_on_c, 1, 55, 0
5, 33600, Control_c, 1, 64, 0
5, 33600, Control_c, 1, 64, 127
5, 33600, Note_on_c, 1, 58, 91
5, 33600, Note_on_c, 1, 62, 91
5, 33600, Note_on_c, 1, 53, 88
5, 33688, Note_on_c, 1, 62, 0
5, 33688, Note_on_c, 1, 58, 0
5, 33695, Note_on_c, 1, 53, 0
5, 33720, Note_on_c, 1, 58, 74
5, 33720, Note_on_c, 1, 62, 73
5, 33720, Note_on_c, 1, 53, 67
5, 33764, Note_on_c, 1, 53, 0
5, 33764, Note_on_c, 1, 62, 0
5, 33764, Note_on_c, 1, 58, 0
5, 33795, Note_on_c, 1, 58, 90
5, 33795, Note_on_c, 1, 62, 89
5, 33795, Note_on_c, 1, 53, 85
5, 33883, Note_on_c, 1, 53, 0
5, 33883, Note_on_c, 1, 62, 0
5, 33883, Note_on_c, 1, 58, 0
5, 33915, Note_on_c, 1, 58, 72
5, 33915, Note_on_c, 1, 62, 69
5, 33915, Note_on_c, 1, 53, 63
5, 33944, Note_on_c, 1, 53, 0
5, 33944, Note_on_c, 1, 62, 0
5, 33944, Note_on_c, 1, 58, 0
5, 33960, Note_on_c, 1, 58, 96
5, 33960, Note_on_c, 1, 62, 89
5, 33960, Note_on_c, 1, 53, 78
5, 34004, Note_on_c, 1, 53, 0
5, 34035, Note_on_c, 1, 53, 65
5, 34063, Note_on_c, 1, 62, 0
5, 34063, Note_on_c, 1, 58, 0
5, 34064, Note_on_c, 1, 53, 0
5, 34080, Control_c, 1, 64, 0
5, 34080, Control_c, 1, 64, 127
5, 34080, Note_on_c, 1, 60, 91
5, 34080, Note_on_c, 1, 64, 91
5, 34080, Note_on_c, 1, 55, 88
5, 34168, Note_on_c, 1, 55, 0
5, 34168, Note_on_c, 1, 64, 0
5, 34168, Note_on_c, 1, 60, 0
5, 34200, Note_on_c, 1, 60, 74
5, 34200, Note_on_c, 1, 64, 73
5, 34200, Note_on_c, 1, 55, 67
5, 34244, Note_on_c, 1, 55, 0
5, 34244, Note_on_c, 1, 64, 0
5, 34244, Note_on_c, 1, 60, 0
5, 34275, Note_on_c, 1, 60, 90
5, 34275, Note_on_c, 1, 64, 89
5, 34275, Note_on_c, 1, 55, 85
5, 34363, Note_on_c, 1, 55, 0
5, 34363, Note_on_c, 1, 64, 0
5, 34363, Note_on_c, 1, 60, 0
5, 34395, Note_on_c, 1, 60, 72
5, 34395, Note_on_c, 1, 64, 69
5, 34395, Note_on_c, 1, 55, 63
5, 34424, Note_on_c, 1, 55, 0
5, 34424, Note_on_c, 1, 64, 0
5, 34424, Note_on_c, 1, 60, 0
5, 34440, Note_on_c, 1, 60, 96
5, 34440, Note_on_c, 1, 64, 89
5, 34440, Note_on_c, 1, 55, 78
5, 34484, Note_on_c, 1, 55, 0
5, 34515, Note_on_c, 1, 55, 65
5, 34543, Note_on_c, 1, 64, 0
5, 34543, Note_on_c, 1, 60, 0
5, 34544, Note_on_c, 1, 55, 0
5, 34552, Control_c, 1, 64, 0
5, 34560, Control_c, 1, 64, 0
5, 34560, Control_c, 1, 64, 127
5, 34560, Note_on_c, 1, 60, 91
5, 34560, Note_on_c, 1, 64, 91
5, 34560, Note_on_c, 1, 55, 88
5, 34627, Control_c, 1, 64, 0
5, 34648, Note_on_c, 1, 55, 0
5, 34648, Note_on_c, 1, 64, 0
5, 34648, Note_on_c, 1, 60, 0
5, 35520, Control_c, 1, 64, 0
5, 35520, Control_c, 1, 64, 127
5, 35520, Note_on_c, 1, 60, 88
5, 35520, Note_on_c, 1, 65, 91
5, 35520, Note_on_c, 1, 57, 91
5, 35608, Note_on_c, 1, 57, 0
5, 35608, Note_on_c, 1, 65, 0
5, 35608, Note_on_c, 1, 60, 0
5, 35640, Note_on_c, 1, 57, 67
5, 35640, Note_on_c, 1, 60, 74
5, 35640, Note_on_c, 1, 65, 73
5, 35684, Note_on_c, 1, 65, 0
5, 35684, Note_on_c, 1, 60, 0
5, 35684, Note_on_c, 1, 57, 0
5, 35715, Note_on_c, 1, 57, 85
5, 35715, Note_on_c, 1, 65, 89
5, 35715, Note_on_c, 1, 60, 90
5, 35803, Note_on_c, 1, 60, 0
5, 35803, Note_on_c, 1, 65, 0
5, 35803, Note_on_c, 1, 57, 0
5, 35835, Note_on_c, 1, 57, 63
5, 35835, Note_on_c, 1, 60, 72
5, 35835, Note_on_c, 1, 65, 69
5, 35864, Note_on_c, 1, 65, 0
5, 35864, Note_on_c, 1, 60, 0
5, 35864, Note_on_c, 1, 57, 0
5, 35880, Note_on_c, 1, 57, 78
5, 35880, Note_on_c, 1, 60, 96
5, 35880, Note_on_c, 1, 65, 89
5, 35924, Note_on_c, 1, 57, 0
5, 35955, Note_on_c, 1, 57, 65
5, 35983, Note_on_c, 1, 65, 0
5, 35983, Note_on_c, 1, 60, 0
5, 35984, Note_on_c, 1, 57, 0
5, 36000, Control_c, 1, 64, 0
5, 36000, Control_c, 1, 64, 127
5, 36000, Note_on_c, 1, 60, 91
5, 36000, Note_on_c, 1, 57, 88
5, 36000, Note_on_c, 1, 65, 91
5, 36088, Note_on_c, 1, 65, 0
5, 36088, Note_on_c, 1, 57, 0
5, 36088, Note_on_c, 1, 60, 0
5, 36120, Note_on_c, 1, 65, 73
5, 36120, Note_on_c, 1, 60, 74
5, 36120, Note_on_c, 1, 57, 67
5, 36164, Note_on_c, 1, 57, 0
5, 36164, Note_on_c, 1, 60, 0
5, 36164, Note_on_c, 1, 65, 0
5, 36195, Note_on_c, 1, 60, 90
5, 36195, Note_on_c, 1, 65, 89
5, 36195, Note_on_c, 1, 57, 85
5, 36283, Note_on_c, 1, 57, 0
5, 36283, Note_on_c, 1, 65, 0
5, 36283, Note_on_c, 1, 60, 0
5, 36315, Note_on_c, 1, 60, 72
5, 36315, Note_on_c, 1, 57, 63
5, 36315, Note_on_c, 1, 65, 69
5, 36344, Note_on_c, 1, 65, 0
5, 36344, Note_on_c, 1, 57, 0
5, 36344, Note_on_c, 1, 60, 0
5, 36360, Note_on_c, 1, 57, 78
5, 36360, Note_on_c, 1, 60, 96
5, 36360, Note_on_c, 1, 65, 89
5, 36404, Note_on_c, 1, 57, 0
5, 36435, Note_on_c, 1, 57, 65
5, 36463, Note_on_c, 1, 65, 0
5, 36463, Note_on_c, 1, 60, 0
5, 36464, Note_on_c, 1, 57, 0
5, 36480, Control_c, 1, 64, 0
5, 36480, Control_c, 1, 64, 127
5, 36480, Note_on_c, 1, 60, 91
5, 36480, Note_on_c, 1, 57, 88
5, 36480, Note_on_c, 1, 64, 91
5, 36568, Note_on_c, 1, 64, 0
5, 36568, Note_on_c, 1, 57, 0
5, 36568, Note_on_c, 1, 60, 0
5, 36600, Note_on_c, 1, 60, 74
5, 36600, Note_on_c, 1, 57, 67
5, 36600, Note_on_c, 1, 64, 73
5, 36644, Note_on_c, 1, 64, 0
5, 36644, Note_on_c, 1, 57, 0
5, 36644, Note_on_c, 1, 60, 0
5, 36675, Note_on_c, 1, 57, 85
5, 36675, Note_on_c, 1, 60, 90
5, 36675, Note_on_c, 1, 64, 89
5, 36763, Note_on_c, 1, 64, 0
5, 36763, Note_on_c, 1, 60, 0
5, 36763, Note_on_c, 1, 57, 0
5, 36795, Note_on_c, 1, 60, 72
5, 36795, Note_on_c, 1, 57, 63
5, 36795, Note_on_c, 1, 64, 69
5, 36824, Note_on_c, 1, 64, 0
5, 36824, Note_on_c, 1, 57, 0
5, 36824, Note_on_c, 1, 60, 0
5, 36840, Note_on_c, 1, 57, 78
5, 36840, Note_on_c, 1, 60, 96
5, 36840, Note_on_c, 1, 64, 89
5, 36884, Note_on_c, 1, 57, 0
5, 36915, Note_on_c, 1, 57, 65
5, 36943, Note_on_c, 1, 64, 0
5, 36943, Note_on_c, 1, 60, 0
5, 36944, Note_on_c, 1, 57, 0
5, 36960, Control_c, 1, 64, 0
5, 36960, Control_c, 1, 64, 127
5, 36960, Note_on_c, 1, 60, 91
5, 36960, Note_on_c, 1, 57, 88
5, 36960, Note_on_c, 1, 64, 91
5, 37048, Note_on_c, 1, 64, 0
5, 37048, Note_on_c, 1, 57, 0
5, 37048, Note_on_c, 1, 60, 0
5, 37080, Note_on_c, 1, 60, 74
5, 37080, Note_on_c, 1, 57, 67
5, 37080, Note_on_c, 1, 64, 73
5, 37124, Note_on_c, 1, 64, 0
5, 37124, Note_on_c, 1, 57, 0
5, 37124, Note_on_c, 1, 60, 0
5, 37155, Note_on_c, 1, 57, 85
5, 37155, Note_on_c, 1, 60, 90
5, 37155, Note_on_c, 1, 64, 89
5, 37243, Note_on_c, 1, 64, 0
5, 37243, Note_on_c, 1, 60, 0
5, 37243, Note_on_c, 1, 57, 0
5, 37275, Note_on_c, 1, 60, 72
5, 37275, Note_on_c, 1, 57, 63
5, 37275, Note_on_c, 1, 64, 69
5, 37304, Note_on_c, 1, 64, 0
5, 37304, Note_on_c, 1, 57, 0
5, 37304, Note_on_c, 1, 60, 0
5, 37320, Note_on_c, 1, 57, 78
5, 37320, Note_on_c, 1, 60, 96
5, 37320, Note_on_c, 1, 64, 89
5, 37364, Note_on_c, 1, 57, 0
5, 37395, Note_on_c, 1, 57, 65
5, 37423, Note_on_c, 1, 64, 0
5, 37423, Note_on_c, 1, 60, 0
5, 37424, Note_on_c, 1, 57, 0
5, 37440, Control_c, 1, 64, 0
5, 37440, Control_c, 1, 64, 127
5, 37440, Note_on_c, 1, 60, 91
5, 37440, Note_on_c, 1, 57, 88
5, 37440, Note_on_c, 1, 63, 91
5, 37528, Note_on_c, 1, 63, 0
5, 37528, Note_on_c, 1, 57, 0
5, 37528, Note_on_c, 1, 60, 0
5, 37560, Note_on_c, 1, 60, 74
5, 37560, Note_on_c, 1, 57, 67
5, 37560, Note_on_c, 1, 63, 73
5, 37604, Note_on_c, 1, 63, 0
5, 37604, Note_on_c, 1, 57, 0
5, 37604, Note_on_c, 1, 60, 0
5, 37635, Note_on_c, 1, 57, 85
5, 37635, Note_on_c, 1, 60, 90
5, 37635, Note_on_c, 1, 63, 89
5, 37723, Note_on_c, 1, 63, 0
5, 37723, Note_on_c, 1, 60, 0
5, 37723, Note_on_c, 1, 57, 0
5, 37755, Note_on_c, 1, 60, 72
5, 37755, Note_on_c, 1, 57, 63
5, 37755, Note_on_c, 1, 63, 69
5, 37784, Note_on_c, 1, 63, 0
5, 37784, Note_on_c, 1, 57, 0
5, 37784, Note_on_c, 1, 60, 0
5, 37800, Note_on_c, 1, 57, 78
5, 37800, Note_on_c, 1, 60, 96
5, 37800, Note_on_c, 1, 63, 89
5, 37844, Note_on_c, 1, 57, 0
5, 37875, Note_on_c, 1, 57, 65
5, 37903, Note_on_c, 1, 63, 0
5, 37903, Note_on_c, 1, 60, 0
5, 37904, Note_on_c, 1, 57, 0
5, 37920, Control_c, 1, 64, 0
5, 37920, Control_c, 1, 64, 127
5, 37920, Note_on_c, 1, 60, 91
5, 37920, Note_on_c, 1, 57, 88
5, 37920, Note_on_c, 1, 63, 91
5, 38008, Note_on_c, 1, 63, 0
5, 38008, Note_on_c, 1, 57, 0
5, 38008, Note_on_c, 1, 60, 0
5, 38040, Note_on_c, 1, 60, 74
5, 38040, Note_on_c, 1, 57, 67
5, 38040, Note_on_c, 1, 63, 73
5, 38084, Note_on_c, 1, 63, 0
5, 38084, Note_on_c, 1, 57, 0
5, 38084, Note_on_c, 1, 60, 0
5, 38115, Note_on_c, 1, 57, 85
5, 38115, Note_on_c, 1, 60, 90
5, 38115, Note_on_c, 1, 63, 89
5, 38203, Note_on_c, 1, 63, 0
5, 38203, Note_on_c, 1, 60, 0
5, 38203, Note_on_c, 1, 57, 0
5, 38235, Note_on_c, 1, 60, 72
5, 38235, Note_on_c, 1, 57, 63
5, 38235, Note_on_c, 1, 63, 69
5, 38264, Note_on_c, 1, 63, 0
5, 38264, Note_on_c, 1, 57, 0
5, 38264, Note_on_c, 1, 60, 0
5, 38280, Note_on_c, 1, 57, 78
5, 38280, Note_on_c, 1, 60, 96
5, 38280, Note_on_c, 1, 63, 89
5, 38324, Note_on_c, 1, 57, 0
5, 38355, Note_on_c, 1, 57, 65
5, 38383, Note_on_c, 1, 63, 0
5, 38383, Note_on_c, 1, 60, 0
5, 38384, Note_on_c, 1, 57, 0
5, 38400, Control_c, 1, 64, 0
5, 38400, Control_c, 1, 64, 127
5, 38400, Note_on_c, 1, 57, 88
5, 38400, Note_on_c, 1, 62, 91
5, 38400, Note_on_c, 1, 65, 91
5, 38488, Note_on_c, 1, 65, 0
5, 38488, Note_on_c, 1, 62, 0
5, 38488, Note_on_c, 1, 57, 0
5, 38520, Note_on_c, 1, 57, 67
5, 38520, Note_on_c, 1, 62, 74
5, 38520, Note_on_c, 1, 65, 73
5, 38564, Note_on_c, 1, 65, 0
5, 38564, Note_on_c, 1, 62, 0
5, 38564, Note_on_c, 1, 57, 0
5, 38595, Note_on_c, 1, 57, 85
5, 38595, Note_on_c, 1, 65, 89
5, 38595, Note_on_c, 1, 62, 90
5, 38683, Note_on_c, 1, 62, 0
5, 38683, Note_on_c, 1, 65, 0
5, 38683, Note_on_c, 1, 57, 0
5, 38715, Note_on_c, 1, 57, 63
5, 38715, Note_on_c, 1, 62, 72
5, 38715, Note_on_c, 1, 65, 69
5, 38744, Note_on_c, 1, 65, 0
5, 38744, Note_on_c, 1, 62, 0
5, 38744, Note_on_c, 1, 57, 0
5, 38760, Note_on_c, 1, 57, 78
5, 38760, Note_on_c, 1, 65, 89
5, 38760, Note_on_c, 1, 62, 96
5, 38804, Note_on_c, 1, 57, 0
5, 38835, Note_on_c, 1, 57, 65
5, 38863, Note_on_c, 1, 62, 0
5, 38863, Note_on_c, 1, 65, 0
5, 38864, Note_on_c, 1, 57, 0
5, 38880, Control_c, 1, 64, 0
5, 38880, Control_c, 1, 64, 127
5, 38880, Note_on_c, 1, 65, 91
5, 38880, Note_on_c, 1, 62, 91
5, 38880, Note_on_c, 1, 58, 88
5, 38968, Note_on_c, 1, 58, 0
5, 38968, Note_on_c, 1, 62, 0
5, 38968, Note_on_c, 1, 65, 0
5, 39000, Note_on_c, 1, 58, 67
5, 39000, Note_on_c, 1, 62, 74
5, 39000, Note_on_c, 1, 65, 73
5, 39044, Note_on_c, 1, 65, 0
5, 39044, Note_on_c, 1, 62, 0
5, 39044, Note_on_c, 1, 58, 0
5, 39075, Note_on_c, 1, 58, 85
5, 39075, Note_on_c, 1, 65, 89
5, 39075, Note_on_c, 1, 62, 90
5, 39104, Note_on_c, 1, 62, 0
5, 39104, Note_on_c, 1, 65, 0
5, 39104, Note_on_c, 1, 58, 0
5, 39112, Control_c, 1, 64, 0
5, 39120, Control_c, 1, 64, 127
5, 39120, Note_on_c, 1, 60, 91
5, 39120, Note_on_c, 1, 64, 91
5, 39120, Note_on_c, 1, 67, 91
5, 39179, Note_on_c, 1, 67, 0
5, 39179, Note_on_c, 1, 64, 0
5, 39179, Note_on_c, 1, 60, 0
5, 39195, Note_on_c, 1, 64, 72
5, 39195, Note_on_c, 1, 67, 69
5, 39195, Note_on_c, 1, 60, 63
5, 39224, Note_on_c, 1, 60, 0
5, 39224, Note_on_c, 1, 67, 0
5, 39224, Note_on_c, 1, 64, 0
5, 39240, Note_on_c, 1, 60, 78
5, 39240, Note_on_c, 1, 67, 89
5, 39240, Note_on_c, 1, 64, 96
5, 39284, Note_on_c, 1, 60, 0
5, 39315, Note_on_c, 1, 60, 65
5, 39343, Note_on_c, 1, 64, 0
5, 39343, Note_on_c, 1, 67, 0
5, 39344, Note_on_c, 1, 60, 0
5, 39360, Control_c, 1, 64, 0
5, 39360, Control_c, 1, 64, 127
5, 39360, Note_on_c, 1, 60, 88
5, 39360, Note_on_c, 1, 65, 91
5, 39360, Note_on_c, 1, 57, 91
5, 39448, Note_on_c, 1, 57, 0
5, 39448, Note_on_c, 1, 65, 0
5, 39448, Note_on_c, 1, 60, 0
5, 39480, Note_on_c, 1, 57, 67
5, 39480, Note_on_c, 1, 60, 74
5, 39480, Note_on_c, 1, 65, 73
5, 39524, Note_on_c, 1, 65, 0
5, 39524, Note_on_c, 1, 60, 0
5, 39524, Note_on_c, 1, 57, 0
5, 39555, Note_on_c, 1, 57, 85
5, 39555, Note_on_c, 1, 65, 89
5, 39555, Note_on_c, 1, 60, 90
5, 39643, Note_on_c, 1, 60, 0
5, 39643, Note_on_c, 1, 65, 0
5, 39643, Note_on_c, 1, 57, 0
5, 39675, Note_on_c, 1, 57, 63
5, 39675, Note_on_c, 1, 60, 72
5, 39675, Note_on_c, 1, 65, 69
5, 39704, Note_on_c, 1, 65, 0
5, 39704, Note_on_c, 1, 60, 0
5, 39704, Note_on_c, 1, 57, 0
5, 39720, Note_on_c, 1, 57, 78
5, 39720, Note_on_c, 1, 60, 96
5, 39720, Note_on_c, 1, 65, 89
5, 39764, Note_on_c, 1, 57, 0
5, 39795, Note_on_c, 1, 57, 65
5, 39823, Note_on_c, 1, 65, 0
5, 39823, Note_on_c, 1, 60, 0
5, 39824, Note_on_c, 1, 57, 0
5, 39840, Control_c, 1, 64, 0
5, 39840, Control_c, 1, 64, 127
5, 39840, Note_on_c, 1, 60, 91
5, 39840, Note_on_c, 1, 57, 88
5, 39840, Note_on_c, 1, 65, 91
5, 39928, Note_on_c, 1, 65, 0
5, 39928, Note_on_c, 1, 57, 0
5, 39928, Note_on_c, 1, 60, 0
5, 39960, Note_on_c, 1, 65, 73
5, 39960, Note_on_c, 1, 60, 74
5, 39960, Note_on_c, 1, 57, 67
5, 40004, Note_on_c, 1, 57, 0
5, 40004, Note_on_c, 1, 60, 0
5, 40004, Note_on_c, 1, 65, 0
5, 40035, Note_on_c, 1, 60, 90
5, 40035, Note_on_c, 1, 65, 89
5, 40035, Note_on_c, 1, 57, 85
5, 40123, Note_on_c, 1, 57, 0
5, 40123, Note_on_c, 1, 65, 0
5, 40123, Note_on_c, 1, 60, 0
5, 40155, Note_on_c, 1, 60, 72
5, 40155, Note_on_c, 1, 57, 63
5, 40155, Note_on_c, 1, 65, 69
5, 40184, Note_on_c, 1, 65, 0
5, 40184, Note_on_c, 1, 57, 0
5, 40184, Note_on_c, 1, 60, 0
5, 40200, Note_on_c, 1, 57, 78
5, 40200, Note_on_c, 1, 60, 96
5, 40200, Note_on_c, 1, 65, 89
5, 40244, Note_on_c, 1, 57, 0
5, 40275, Note_on_c, 1, 57, 65
5, 40303, Note_on_c, 1, 65, 0
5, 40303, Note_on_c, 1, 60, 0
5, 40304, Note_on_c, 1, 57, 0
5, 40320, Control_c, 1, 64, 0
5, 40320, Control_c, 1, 64, 127
5, 40320, Note_on_c, 1, 60, 91
5, 40320, Note_on_c, 1, 57, 88
5, 40320, Note_on_c, 1, 64, 91
5, 40408, Note_on_c, 1, 64, 0
5, 40408, Note_on_c, 1, 57, 0
5, 40408, Note_on_c, 1, 60, 0
5, 40440, Note_on_c, 1, 60, 74
5, 40440, Note_on_c, 1, 57, 67
5, 40440, Note_on_c, 1, 64, 73
5, 40484, Note_on_c, 1, 64, 0
5, 40484, Note_on_c, 1, 57, 0
5, 40484, Note_on_c, 1, 60, 0
5, 40515, Note_on_c, 1, 57, 85
5, 40515, Note_on_c, 1, 60, 90
5, 40515, Note_on_c, 1, 64, 89
5, 40603, Note_on_c, 1, 64, 0
5, 40603, Note_on_c, 1, 60, 0
5, 40603, Note_on_c, 1, 57, 0
5, 40635, Note_on_c, 1, 60, 72
5, 40635, Note_on_c, 1, 57, 63
5, 40635, Note_on_c, 1, 64, 69
5, 40664, Note_on_c, 1, 64, 0
5, 40664, Note_on_c, 1, 57, 0
5, 40664, Note_on_c, 1, 60, 0
5, 40680, Note_on_c, 1, 57, 78
5, 40680, Note_on_c, 1, 60, 96
5, 40680, Note_on_c, 1, 64, 89
5, 40724, Note_on_c, 1, 57, 0
5, 40755, Note_on_c, 1, 57, 65
5, 40783, Note_on_c, 1, 64, 0
5, 40783, Note_on_c, 1, 60, 0
5, 40784, Note_on_c, 1, 57, 0
5, 40800, Control_c, 1, 64, 0
5, 40800, Control_c, 1, 64, 127
5, 40800, Note_on_c, 1, 60, 91
5, 40800, Note_on_c, 1, 57, 88
5, 40800, Note_on_c, 1, 64, 91
5, 40888, Note_on_c, 1, 64, 0
5, 40888, Note_on_c, 1, 57, 0
5, 40888, Note_on_c, 1, 60, 0
5, 40920, Note_on_c, 1, 60, 74
5, 40920, Note_on_c, 1, 57, 67
5, 40920, Note_on_c, 1, 64, 73
5, 40964, Note_on_c, 1, 64, 0
5, 40964, Note_on_c, 1, 57, 0
5, 40964, Note_on_c, 1, 60, 0
5, 40995, Note_on_c, 1, 57, 85
5, 40995, Note_on_c, 1, 60, 90
5, 40995, Note_on_c, 1, 64, 89
5, 41083, Note_on_c, 1, 64, 0
5, 41083, Note_on_c, 1, 60, 0
5, 41083, Note_on_c, 1, 57, 0
5, 41115, Note_on_c, 1, 60, 72
5, 41115, Note_on_c, 1, 57, 63
5, 41115, Note_on_c, 1, 64, 69
5, 41144, Note_on_c, 1, 64, 0
5, 41144, Note_on_c, 1, 57, 0
5, 41144, Note_on_c, 1, 60, 0
5, 41160, Note_on_c, 1, 57, 78
5, 41160, Note_on_c, 1, 60, 96
5, 41160, Note_on_c, 1, 64, 89
5, 41204, Note_on_c, 1, 57, 0
5, 41235, Note_on_c, 1, 57, 65
5, 41263, Note_on_c, 1, 64, 0
5, 41263, Note_on_c, 1, 60, 0
5, 41264, Note_on_c, 1, 57, 0
5, 41280, Control_c, 1, 64, 0
5, 41280, Control_c, 1, 64, 127
5, 41280, Note_on_c, 1, 60, 91
5, 41280, Note_on_c, 1, 57, 88
5, 41280, Note_on_c, 1, 63, 91
5, 41368, Note_on_c, 1, 63, 0
5, 41368, Note_on_c, 1, 57, 0
5, 41368, Note_on_c, 1, 60, 0
5, 41400, Note_on_c, 1, 60, 74
5, 41400, Note_on_c, 1, 57, 67
5, 41400, Note_on_c, 1, 63, 73
5, 41444, Note_on_c, 1, 63, 0
5, 41444, Note_on_c, 1, 57, 0
5, 41444, Note_on_c, 1, 60, 0
5, 41475, Note_on_c, 1, 57, 85
5, 41475, Note_on_c, 1, 60, 90
5, 41475, Note_on_c, 1, 63, 89
5, 41563, Note_on_c, 1, 63, 0
5, 41563, Note_on_c, 1, 60, 0
5, 41563, Note_on_c, 1, 57, 0
5, 41595, Note_on_c, 1, 60, 72
5, 41595, Note_on_c, 1, 57, 63
5, 41595, Note_on_c, 1, 63, 69
5, 41624, Note_on_c, 1, 63, 0
5, 41624, Note_on_c, 1, 57, 0
5, 41624, Note_on_c, 1, 60, 0
5, 41640, Note_on_c, 1, 57, 78
5, 41640, Note_on_c, 1, 60, 96
5, 41640, Note_on_c, 1, 63, 89
5, 41684, Note_on_c, 1, 57, 0
5, 41715, Note_on_c, 1, 57, 65
5, 41743, Note_on_c, 1, 63, 0
5, 41743, Note_on_c, 1, 60, 0
5, 41744, Note_on_c, 1, 57, 0
5, 41760, Control_c, 1, 64, 0
5, 41760, Control_c, 1, 64, 127
5, 41760, Note_on_c, 1, 60, 91
5, 41760, Note_on_c, 1, 57, 88
5, 41760, Note_on_c, 1, 63, 91
5, 41848, Note_on_c, 1, 63, 0
5, 41848, Note_on_c, 1, 57, 0
5, 41848, Note_on_c, 1, 60, 0
5, 41880, Note_on_c, 1, 60, 74
5, 41880, Note_on_c, 1, 57, 67
5, 41880, Note_on_c, 1, 63, 73
5, 41924, Note_on_c, 1, 63, 0
5, 41924, Note_on_c, 1, 57, 0
5, 41924, Note_on_c, 1, 60, 0
5, 41955, Note_on_c, 1, 57, 85
5, 41955, Note_on_c, 1, 60, 90
5, 41955, Note_on_c, 1, 63, 89
5, 42043, Note_on_c, 1, 63, 0
5, 42043, Note_on_c, 1, 60, 0
5, 42043, Note_on_c, 1, 57, 0
5, 42075, Note_on_c, 1, 60, 72
5, 42075, Note_on_c, 1, 57, 63
5, 42075, Note_on_c, 1, 63, 69
5, 42104, Note_on_c, 1, 63, 0
5, 42104, Note_on_c, 1, 57, 0
5, 42104, Note_on_c, 1, 60, 0
5, 42120, Note_on_c, 1, 57, 78
5, 42120, Note_on_c, 1, 60, 96
5, 42120, Note_on_c, 1, 63, 89
5, 42164, Note_on_c, 1, 57, 0
5, 42195, Note_on_c, 1, 57, 65
5, 42223, Note_on_c, 1, 63, 0
5, 42223, Note_on_c, 1, 60, 0
5, 42224, Note_on_c, 1, 57, 0
5, 42240, Control_c, 1, 64, 0
5, 42240, Control_c, 1, 64, 127
5, 42240, Note_on_c, 1, 57, 88
5, 42240, Note_on_c, 1, 62, 91
5, 42240, Note_on_c, 1, 65, 91
5, 42328, Note_on_c, 1, 65, 0
5, 42328, Note_on_c, 1, 62, 0
5, 42328, Note_on_c, 1, 57, 0
5, 42360, Note_on_c, 1, 57, 67
5, 42360, Note_on_c, 1, 62, 74
5, 42360, Note_on_c, 1, 65, 73
5, 42404, Note_on_c, 1, 65, 0
5, 42404, Note_on_c, 1, 62, 0
5, 42404, Note_on_c, 1, 57, 0
5, 42435, Note_on_c, 1, 57, 85
5, 42435, Note_on_c, 1, 65, 89
5, 42435, Note_on_c, 1, 62, 90
5, 42523, Note_on_c, 1, 62, 0
5, 42523, Note_on_c, 1, 65, 0
5, 42523, Note_on_c, 1, 57, 0
5, 42555, Note_on_c, 1, 57, 63
5, 42555, Note_on_c, 1, 62, 72
5, 42555, Note_on_c, 1, 65, 69
5, 42584, Note_on_c, 1, 65, 0
5, 42584, Note_on_c, 1, 62, 0
5, 42584, Note_on_c, 1, 57, 0
5, 42600, Note_on_c, 1, 57, 78
5, 42600, Note_on_c, 1, 65, 89
5, 42600, Note_on_c, 1, 62, 96
5, 42644, Note_on_c, 1, 57, 0
5, 42675, Note_on_c, 1, 57, 65
5, 42703, Note_on_c, 1, 62, 0
5, 42703, Note_on_c, 1, 65, 0
5, 42704, Note_on_c, 1, 57, 0
5, 42720, Control_c, 1, 64, 0
5, 42720, Control_c, 1, 64, 127
5, 42720, Note_on_c, 1, 65, 91
5, 42720, Note_on_c, 1, 62, 91
5, 42720, Note_on_c, 1, 58, 88
5, 42808, Note_on_c, 1, 58, 0
5, 42808, Note_on_c, 1, 62, 0
5, 42808, Note_on_c, 1, 65, 0
5, 42840, Note_on_c, 1, 58, 67
5, 42840, Note_on_c, 1, 62, 74
5, 42840, Note_on_c, 1, 65, 73
5, 42884, Note_on_c, 1, 65, 0
5, 42884, Note_on_c, 1, 62, 0
5, 42884, Note_on_c, 1, 58, 0
5, 42915, Note_on_c, 1, 58, 85
5, 42915, Note_on_c, 1, 65, 89
5, 42915, Note_on_c, 1, 62, 90
5, 42944, Note_on_c, 1, 62, 0
5, 42944, Note_on_c, 1, 65, 0
5, 42944, Note_on_c, 1, 58, 0
5, 42952, Control_c, 1, 64, 0
5, 42960, Control_c, 1, 64, 127
5, 42960, Note_on_c, 1, 60, 91
5, 42960, Note_on_c, 1, 64, 91
5, 42960, Note_on_c, 1, 67, 91
5, 43019, Note_on_c, 1, 67, 0
5, 43019, Note_on_c, 1, 64, 0
5, 43019, Note_on_c, 1, 60, 0
5, 43035, Note_on_c, 1, 64, 72
5, 43035, Note_on_c, 1, 67, 69
5, 43035, Note_on_c, 1, 60, 63
5, 43064, Note_on_c, 1, 60, 0
5, 43064, Note_on_c, 1, 67, 0
5, 43064, Note_on_c, 1, 64, 0
5, 43080, Note_on_c, 1, 60, 78
5, 43080, Note_on_c, 1, 67, 89
5, 43080, Note_on_c, 1, 64, 96
5, 43124, Note_on_c, 1, 60, 0
5, 43155, Note_on_c, 1, 60, 65
5, 43183, Note_on_c, 1, 64, 0
5, 43183, Note_on_c, 1, 67, 0
5, 43184, Note_on_c, 1, 60, 0
5, 43200, Control_c, 1, 64, 0
5, 43200, Control_c, 1, 64, 127
5, 43200, Note_on_c, 1, 57, 88
5, 43200, Note_on_c, 1, 64, 91
5, 43200, Note_on_c, 1, 60, 91
5, 43288, Note_on_c, 1, 60, 0
5, 43288, Note_on_c, 1, 64, 0
5, 43288, Note_on_c, 1, 57, 0
5, 43320, Note_on_c, 1, 57, 67
5, 43320, Note_on_c, 1, 64, 73
5, 43320, Note_on_c, 1, 60, 74
5, 43364, Note_on_c, 1, 60, 0
5, 43364, Note_on_c, 1, 64, 0
5, 43364, Note_on_c, 1, 57, 0
5, 43395, Note_on_c, 1, 57, 85
5, 43395, Note_on_c, 1, 64, 89
5, 43395, Note_on_c, 1, 60, 90
5, 43483, Note_on_c, 1, 60, 0
5, 43483, Note_on_c, 1, 64, 0
5, 43483, Note_on_c, 1, 57, 0
5, 43515, Note_on_c, 1, 57, 63
5, 43515, Note_on_c, 1, 64, 69
5, 43515, Note_on_c, 1, 60, 72
5, 43544, Note_on_c, 1, 60, 0
5, 43544, Note_on_c, 1, 64, 0
5, 43544, Note_on_c, 1, 57, 0
5, 43560, Note_on_c, 1, 57, 78
5, 43560, Note_on_c, 1, 64, 89
5, 43560, Note_on_c, 1, 60, 96
5, 43604, Note_on_c, 1, 57, 0
5, 43635, Note_on_c, 1, 57, 65
5, 43663, Note_on_c, 1, 60, 0
5, 43663, Note_on_c, 1, 64, 0
5, 43664, Note_on_c, 1, 57, 0
5, 43680, Control_c, 1, 64, 0
5, 43680, Control_c, 1, 64, 127
5, 43680, Note_on_c, 1, 57, 88
5, 43680, Note_on_c, 1, 64, 91
5, 43680, Note_on_c, 1, 60, 91
5, 43768, Note_on_c, 1, 60, 0
5, 43768, Note_on_c, 1, 64, 0
5, 43768, Note_on_c, 1, 57, 0
5, 43800, Note_on_c, 1, 57, 67
5, 43800, Note_on_c, 1, 64, 73
5, 43800, Note_on_c, 1, 60, 74
5, 43844, Note_on_c, 1, 60, 0
5, 43844, Note_on_c, 1, 64, 0
5, 43844, Note_on_c, 1, 57, 0
5, 43875, Note_on_c, 1, 57, 85
5, 43875, Note_on_c, 1, 64, 89
5, 43875, Note_on_c, 1, 60, 90
5, 43963, Note_on_c, 1, 60, 0
5, 43963, Note_on_c, 1, 64, 0
5, 43963, Note_on_c, 1, 57, 0
5, 43995, Note_on_c, 1, 57, 63
5, 43995, Note_on_c, 1, 64, 69
5, 43995, Note_on_c, 1, 60, 72
5, 44024, Note_on_c, 1, 60, 0
5, 44024, Note_on_c, 1, 64, 0
5, 44024, Note_on_c, 1, 57, 0
5, 44040, Note_on_c, 1, 57, 78
5, 44040, Note_on_c, 1, 64, 89
5, 44040, Note_on_c, 1, 60, 96
5, 44084, Note_on_c, 1, 57, 0
5, 44115, Note_on_c, 1, 57, 65
5, 44143, Note_on_c, 1, 60, 0
5, 44143, Note_on_c, 1, 64, 0
5, 44144, Note_on_c, 1, 57, 0
5, 44160, Control_c, 1, 64, 0
5, 44160, Control_c, 1, 64, 127
5, 44160, Note_on_c, 1, 58, 91
5, 44160, Note_on_c, 1, 62, 91
5, 44160, Note_on_c, 1, 67, 88
5, 44248, Note_on_c, 1, 67, 0
5, 44248, Note_on_c, 1, 62, 0
5, 44248, Note_on_c, 1, 58, 0
5, 44280, Note_on_c, 1, 58, 74
5, 44280, Note_on_c, 1, 62, 73
5, 44280, Note_on_c, 1, 67, 67
5, 44324, Note_on_c, 1, 67, 0
5, 44324, Note_on_c, 1, 62, 0
5, 44324, Note_on_c, 1, 58, 0
5, 44355, Note_on_c, 1, 58, 90
5, 44355, Note_on_c, 1, 62, 89
5, 44355, Note_on_c, 1, 67, 85
5, 44443, Note_on_c, 1, 67, 0
5, 44443, Note_on_c, 1, 62, 0
5, 44443, Note_on_c, 1, 58, 0
5, 44475, Note_on_c, 1, 58, 72
5, 44475, Note_on_c, 1, 62, 69
5, 44475, Note_on_c, 1, 67, 63
5, 44504, Note_on_c, 1, 67, 0
5, 44504, Note_on_c, 1, 62, 0
5, 44504, Note_on_c, 1, 58, 0
5, 44520, Note_on_c, 1, 58, 96
5, 44520, Note_on_c, 1, 62, 89
5, 44520, Note_on_c, 1, 67, 78
5, 44564, Note_on_c, 1, 67, 0
5, 44595, Note_on_c, 1, 67, 65
5, 44623, Note_on_c, 1, 62, 0
5, 44623, Note_on_c, 1, 58, 0
5, 44624, Note_on_c, 1, 67, 0
5, 44640, Control_c, 1, 64, 0
5, 44640, Control_c, 1, 64, 127
5, 44640, Note_on_c, 1, 58, 91
5, 44640, Note_on_c, 1, 62, 91
5, 44640, Note_on_c, 1, 67, 88
5, 44728, Note_on_c, 1, 67, 0
5, 44728, Note_on_c, 1, 62, 0
5, 44728, Note_on_c, 1, 58, 0
5, 44760, Note_on_c, 1, 58, 74
5, 44760, Note_on_c, 1, 62, 73
5, 44760, Note_on_c, 1, 67, 67
5, 44804, Note_on_c, 1, 67, 0
5, 44804, Note_on_c, 1, 62, 0
5, 44804, Note_on_c, 1, 58, 0
5, 44835, Note_on_c, 1, 58, 90
5, 44835, Note_on_c, 1, 62, 89
5, 44835, Note_on_c, 1, 67, 85
5, 44923, Note_on_c, 1, 67, 0
5, 44923, Note_on_c, 1, 62, 0
5, 44923, Note_on_c, 1, 58, 0
5, 44955, Note_on_c, 1, 58, 72
5, 44955, Note_on_c, 1, 62, 69
5, 44955, Note_on_c, 1, 67, 63
5, 44984, Note_on_c, 1, 67, 0
5, 44984, Note_on_c, 1, 62, 0
5, 44984, Note_on_c, 1, 58, 0
5, 45000, Note_on_c, 1, 58, 96
5, 45000, Note_on_c, 1, 62, 89
5, 45000, Note_on_c, 1, 67, 78
5, 45044, Note_on_c, 1, 67, 0
5, 45075, Note_on_c, 1, 67, 65
5, 45103, Note_on_c, 1, 62, 0
5, 45103, Note_on_c, 1, 58, 0
5, 45104, Note_on_c, 1, 67, 0
5, 45120, Control_c, 1, 64, 0
5, 45120, Control_c, 1, 64, 127
5, 45120, Note_on_c, 1, 57, 88
5, 45120, Note_on_c, 1, 64, 91
5, 45120, Note_on_c, 1, 60, 91
5, 45208, Note_on_c, 1, 60, 0
5, 45208, Note_on_c, 1, 64, 0
5, 45208, Note_on_c, 1, 57, 0
5, 45240, Note_on_c, 1, 57, 67
5, 45240, Note_on_c, 1, 64, 73
5, 45240, Note_on_c, 1, 60, 74
5, 45284, Note_on_c, 1, 60, 0
5, 45284, Note_on_c, 1, 64, 0
5, 45284, Note_on_c, 1, 57, 0
5, 45315, Note_on_c, 1, 57, 85
5, 45315, Note_on_c, 1, 64, 89
5, 45315, Note_on_c, 1, 60, 90
5, 45403, Note_on_c, 1, 60, 0
5, 45403, Note_on_c, 1, 64, 0
5, 45403, Note_on_c, 1, 57, 0
5, 45435, Note_on_c, 1, 57, 63
5, 45435, Note_on_c, 1, 64, 69
5, 45435, Note_on_c, 1, 60, 72
5, 45464, Note_on_c, 1, 60, 0
5, 45464, Note_on_c, 1, 64, 0
5, 45464, Note_on_c, 1, 57, 0
5, 45480, Note_on_c, 1, 57, 78
5, 45480, Note_on_c, 1, 64, 89
5, 45480, Note_on_c, 1, 60, 96
5, 45524, Note_on_c, 1, 57, 0
5, 45555, Note_on_c, 1, 57, 65
5, 45583, Note_on_c, 1, 60, 0
5, 45583, Note_on_c, 1, 64, 0
5, 45584, Note_on_c, 1, 57, 0
5, 45600, Control_c, 1, 64, 0
5, 45600, Control_c, 1, 64, 127
5, 45600, Note_on_c, 1, 57, 88
5, 45600, Note_on_c, 1, 64, 91
5, 45600, Note_on_c, 1, 60, 91
5, 45688, Note_on_c, 1, 60, 0
5, 45688, Note_on_c, 1, 64, 0
5, 45688, Note_on_c, 1, 57, 0
5, 45720, Note_on_c, 1, 57, 67
5, 45720, Note_on_c, 1, 64, 73
5, 45720, Note_on_c, 1, 60, 74
5, 45764, Note_on_c, 1, 60, 0
5, 45764, Note_on_c, 1, 64, 0
5, 45764, Note_on_c, 1, 57, 0
5, 45795, Note_on_c, 1, 57, 85
5, 45795, Note_on_c, 1, 64, 89
5, 45795, Note_on_c, 1, 60, 90
5, 45883, Note_on_c, 1, 60, 0
5, 45883, Note_on_c, 1, 64, 0
5, 45883, Note_on_c, 1, 57, 0
5, 45915, Note_on_c, 1, 57, 63
5, 45915, Note_on_c, 1, 64, 69
5, 45915, Note_on_c, 1, 60, 72
5, 45944, Note_on_c, 1, 60, 0
5, 45944, Note_on_c, 1, 64, 0
5, 45944, Note_on_c, 1, 57, 0
5, 45960, Note_on_c, 1, 57, 78
5, 45960, Note_on_c, 1, 64, 89
5, 45960, Note_on_c, 1, 60, 96
5, 46004, Note_on_c, 1, 57, 0
5, 46035, Note_on_c, 1, 57, 65
5, 46063, Note_on_c, 1, 60, 0
5, 46063, Note_on_c, 1, 64, 0
5, 46064, Note_on_c, 1, 57, 0
5, 46080, Control_c, 1, 64, 0
5, 46080, Control_c, 1, 64, 127
5, 46080, Note_on_c, 1, 58, 88
5, 46080, Note_on_c, 1, 62, 91
5, 46080, Note_on_c, 1, 65, 91
5, 46168, Note_on_c, 1, 65, 0
5, 46168, Note_on_c, 1, 62, 0
5, 46168, Note_on_c, 1, 58, 0
5, 46200, Note_on_c, 1, 62, 74
5, 46200, Note_on_c, 1, 65, 73
5, 46200, Note_on_c, 1, 58, 67
5, 46244, Note_on_c, 1, 58, 0
5, 46244, Note_on_c, 1, 65, 0
5, 46244, Note_on_c, 1, 62, 0
5, 46275, Note_on_c, 1, 62, 90
5, 46275, Note_on_c, 1, 65, 89
5, 46275, Note_on_c, 1, 58, 85
5, 46363, Note_on_c, 1, 58, 0
5, 46363, Note_on_c, 1, 65, 0
5, 46363, Note_on_c, 1, 62, 0
5, 46395, Note_on_c, 1, 62, 72
5, 46395, Note_on_c, 1, 65, 69
5, 46395, Note_on_c, 1, 58, 63
5, 46424, Note_on_c, 1, 58, 0
5, 46424, Note_on_c, 1, 65, 0
5, 46424, Note_on_c, 1, 62, 0
5, 46440, Note_on_c, 1, 62, 96
5, 46440, Note_on_c, 1, 65, 89
5, 46440, Note_on_c, 1, 58, 78
5, 46484, Note_on_c, 1, 58, 0
5, 46515, Note_on_c, 1, 58, 65
5, 46543, Note_on_c, 1, 65, 0
5, 46543, Note_on_c, 1, 62, 0
5, 46544, Note_on_c, 1, 58, 0
5, 46560, Control_c, 1, 64, 0
5, 46560, Control_c, 1, 64, 127
5, 46560, Note_on_c, 1, 64, 91
5, 46560, Note_on_c, 1, 60, 91
5, 46560, Note_on_c, 1, 55, 88
5, 46648, Note_on_c, 1, 55, 0
5, 46648, Note_on_c, 1, 60, 0
5, 46648, Note_on_c, 1, 64, 0
5, 46680, Note_on_c, 1, 64, 73
5, 46680, Note_on_c, 1, 60, 74
5, 46680, Note_on_c, 1, 55, 67
5, 46724, Note_on_c, 1, 55, 0
5, 46724, Note_on_c, 1, 60, 0
5, 46724, Note_on_c, 1, 64, 0
5, 46755, Note_on_c, 1, 64, 89
5, 46755, Note_on_c, 1, 60, 90
5, 46755, Note_on_c, 1, 55, 85
5, 46843, Note_on_c, 1, 55, 0
5, 46843, Note_on_c, 1, 60, 0
5, 46843, Note_on_c, 1, 64, 0
5, 46875, Note_on_c, 1, 64, 69
5, 46875, Note_on_c, 1, 60, 72
5, 46875, Note_on_c, 1, 55, 63
5, 46904, Note_on_c, 1, 55, 0
5, 46904, Note_on_c, 1, 60, 0
5, 46904, Note_on_c, 1, 64, 0
5, 46920, Note_on_c, 1, 64, 89
5, 46920, Note_on_c, 1, 60, 96
5, 46920, Note_on_c, 1, 55, 78
5, 46964, Note_on_c, 1, 55, 0
5, 46995, Note_on_c, 1, 55, 65
5, 47023, Note_on_c, 1, 60, 0
5, 47023, Note_on_c, 1, 64, 0
5, 47024, Note_on_c, 1, 55, 0
5, 47040, Control_c, 1, 64, 0
5, 47040, Control_c, 1, 64, 127
5, 47040, Note_on_c, 1, 64, 91
5, 47040, Note_on_c, 1, 60, 91
5, 47040, Note_on_c, 1, 55, 88
5, 47107, Control_c, 1, 64, 0
5, 47114, Note_on_c, 1, 55, 0
5, 47114, Note_on_c, 1, 60, 0
5, 47114, Note_on_c, 1, 64, 0
5, 47520, Control_c, 1, 64, 0
5, 47520, Control_c, 1, 64, 127
5, 47520, Note_on_c, 1, 61, 88
5, 47520, Note_on_c, 1, 66, 91
5, 47520, Note_on_c, 1, 58, 91
5, 47608, Note_on_c, 1, 58, 0
5, 47608, Note_on_c, 1, 66, 0
5, 47608, Note_on_c, 1, 61, 0
5, 47640, Note_on_c, 1, 58, 67
5, 47640, Note_on_c, 1, 61, 74
5, 47640, Note_on_c, 1, 66, 73
5, 47684, Note_on_c, 1, 66, 0
5, 47684, Note_on_c, 1, 61, 0
5, 47684, Note_on_c, 1, 58, 0
5, 47715, Note_on_c, 1, 58, 85
5, 47715, Note_on_c, 1, 66, 89
5, 47715, Note_on_c, 1, 61, 90
5, 47803, Note_on_c, 1, 61, 0
5, 47803, Note_on_c, 1, 66, 0
5, 47803, Note_on_c, 1, 58, 0
5, 47835, Note_on_c, 1, 58, 63
5, 47835, Note_on_c, 1, 61, 72
5, 47835, Note_on_c, 1, 66, 69
5, 47864, Note_on_c, 1, 66, 0
5, 47864, Note_on_c, 1, 61, 0
5, 47864, Note_on_c, 1, 58, 0
5, 47880, Note_on_c, 1, 58, 78
5, 47880, Note_on_c, 1, 61, 96
5, 47880, Note_on_c, 1, 66, 89
5, 47924, Note_on_c, 1, 58, 0
5, 47955, Note_on_c, 1, 58, 65
5, 47983, Note_on_c, 1, 66, 0
5, 47983, Note_on_c, 1, 61, 0
5, 47984, Note_on_c, 1, 58, 0
5, 48000, Control_c, 1, 64, 0
5, 48000, Control_c, 1, 64, 127
5, 48000, Note_on_c, 1, 61, 91
5, 48000, Note_on_c, 1, 58, 88
5, 48000, Note_on_c, 1, 66, 91
5, 48088, Note_on_c, 1, 66, 0
5, 48088, Note_on_c, 1, 58, 0
5, 48088, Note_on_c, 1, 61, 0
5, 48120, Note_on_c, 1, 66, 73
5, 48120, Note_on_c, 1, 61, 74
5, 48120, Note_on_c, 1, 58, 67
5, 48164, Note_on_c, 1, 58, 0
5, 48164, Note_on_c, 1, 61, 0
5, 48164, Note_on_c, 1, 66, 0
5, 48195, Note_on_c, 1, 61, 90
5, 48195, Note_on_c, 1, 66, 89
5, 48195, Note_on_c, 1, 58, 85
5, 48283, Note_on_c, 1, 58, 0
5, 48283, Note_on_c, 1, 66, 0
5, 48283, Note_on_c, 1, 61, 0
5, 48315, Note_on_c, 1, 61, 72
5, 48315, Note_on_c, 1, 58, 63
5, 48315, Note_on_c, 1, 66, 69
5, 48344, Note_on_c, 1, 66, 0
5, 48344, Note_on_c, 1, 58, 0
5, 48344, Note_on_c, 1, 61, 0
5, 48360, Note_on_c, 1, 58, 78
5, 48360, Note_on_c, 1, 61, 96
5, 48360, Note_on_c, 1, 66, 89
5, 48404, Note_on_c, 1, 58, 0
5, 48435, Note_on_c, 1, 58, 65
5, 48463, Note_on_c, 1, 66, 0
5, 48463, Note_on_c, 1, 61, 0
5, 48464, Note_on_c, 1, 58, 0
5, 48480, Control_c, 1, 64, 0
5, 48480, Control_c, 1, 64, 127
5, 48480, Note_on_c, 1, 61, 91
5, 48480, Note_on_c, 1, 58, 88
5, 48480, Note_on_c, 1, 65, 91
5, 48568, Note_on_c, 1, 65, 0
5, 48568, Note_on_c, 1, 58, 0
5, 48568, Note_on_c, 1, 61, 0
5, 48600, Note_on_c, 1, 61, 74
5, 48600, Note_on_c, 1, 58, 67
5, 48600, Note_on_c, 1, 65, 73
5, 48644, Note_on_c, 1, 65, 0
5, 48644, Note_on_c, 1, 58, 0
5, 48644, Note_on_c, 1, 61, 0
5, 48675, Note_on_c, 1, 58, 85
5, 48675, Note_on_c, 1, 61, 90
5, 48675, Note_on_c, 1, 65, 89
5, 48763, Note_on_c, 1, 65, 0
5, 48763, Note_on_c, 1, 61, 0
5, 48763, Note_on_c, 1, 58, 0
5, 48795, Note_on_c, 1, 61, 72
5, 48795, Note_on_c, 1, 58, 63
5, 48795, Note_on_c, 1, 65, 69
5, 48824, Note_on_c, 1, 65, 0
5, 48824, Note_on_c, 1, 58, 0
5, 48824, Note_on_c, 1, 61, 0
5, 48840, Note_on_c, 1, 58, 78
5, 48840, Note_on_c, 1, 61, 96
5, 48840, Note_on_c, 1, 65, 89
5, 48884, Note_on_c, 1, 58, 0
5, 48915, Note_on_c, 1, 58, 65
5, 48943, Note_on_c, 1, 65, 0
5, 48943, Note_on_c, 1, 61, 0
5, 48944, Note_on_c, 1, 58, 0
5, 48960, Control_c, 1, 64, 0
5, 48960, Control_c, 1, 64, 127
5, 48960, Note_on_c, 1, 61, 91
5, 48960, Note_on_c, 1, 58, 88
5, 48960, Note_on_c, 1, 65, 91
5, 49048, Note_on_c, 1, 65, 0
5, 49048, Note_on_c, 1, 58, 0
5, 49048, Note_on_c, 1, 61, 0
5, 49080, Note_on_c, 1, 61, 74
5, 49080, Note_on_c, 1, 58, 67
5, 49080, Note_on_c, 1, 65, 73
5, 49124, Note_on_c, 1, 65, 0
5, 49124, Note_on_c, 1, 58, 0
5, 49124, Note_on_c, 1, 61, 0
5, 49155, Note_on_c, 1, 58, 85
5, 49155, Note_on_c, 1, 61, 90
5, 49155, Note_on_c, 1, 65, 89
5, 49243, Note_on_c, 1, 65, 0
5, 49243, Note_on_c, 1, 61, 0
5, 49243, Note_on_c, 1, 58, 0
5, 49275, Note_on_c, 1, 61, 72
5, 49275, Note_on_c, 1, 58, 63
5, 49275, Note_on_c, 1, 65, 69
5, 49304, Note_on_c, 1, 65, 0
5, 49304, Note_on_c, 1, 58, 0
5, 49304, Note_on_c, 1, 61, 0
5, 49320, Note_on_c, 1, 58, 78
5, 49320, Note_on_c, 1, 61, 96
5, 49320, Note_on_c, 1, 65, 89
5, 49364, Note_on_c, 1, 58, 0
5, 49395, Note_on_c, 1, 58, 65
5, 49423, Note_on_c, 1, 65, 0
5, 49423, Note_on_c, 1, 61, 0
5, 49424, Note_on_c, 1, 58, 0
5, 49440, Control_c, 1, 64, 0
5, 49440, Control_c, 1, 64, 127
5, 49440, Note_on_c, 1, 61, 91
5, 49440, Note_on_c, 1, 58, 88
5, 49440, Note_on_c, 1, 64, 91
5, 49528, Note_on_c, 1, 64, 0
5, 49528, Note_on_c, 1, 58, 0
5, 49528, Note_on_c, 1, 61, 0
5, 49560, Note_on_c, 1, 61, 74
5, 49560, Note_on_c, 1, 58, 67
5, 49560, Note_on_c, 1, 64, 73
5, 49604, Note_on_c, 1, 64, 0
5, 49604, Note_on_c, 1, 58, 0
5, 49604, Note_on_c, 1, 61, 0
5, 49635, Note_on_c, 1, 58, 85
5, 49635, Note_on_c, 1, 61, 90
5, 49635, Note_on_c, 1, 64, 89
5, 49723, Note_on_c, 1, 64, 0
5, 49723, Note_on_c, 1, 61, 0
5, 49723, Note_on_c, 1, 58, 0
5, 49755, Note_on_c, 1, 61, 72
5, 49755, Note_on_c, 1, 58, 63
5, 49755, Note_on_c, 1, 64, 69
5, 49784, Note_on_c, 1, 64, 0
5, 49784, Note_on_c, 1, 58, 0
5, 49784, Note_on_c, 1, 61, 0
5, 49800, Note_on_c, 1, 58, 78
5, 49800, Note_on_c, 1, 61, 96
5, 49800, Note_on_c, 1, 64, 89
5, 49844, Note_on_c, 1, 58, 0
5, 49875, Note_on_c, 1, 58, 65
5, 49903, Note_on_c, 1, 64, 0
5, 49903, Note_on_c, 1, 61, 0
5, 49904, Note_on_c, 1, 58, 0
5, 49920, Control_c, 1, 64, 0
5, 49920, Control_c, 1, 64, 127
5, 49920, Note_on_c, 1, 61, 91
5, 49920, Note_on_c, 1, 58, 88
5, 49920, Note_on_c, 1, 64, 91
5, 50008, Note_on_c, 1, 64, 0
5, 50008, Note_on_c, 1, 58, 0
5, 50008, Note_on_c, 1, 61, 0
5, 50040, Note_on_c, 1, 61, 74
5, 50040, Note_on_c, 1, 58, 67
5, 50040, Note_on_c, 1, 64, 73
5, 50084, Note_on_c, 1, 64, 0
5, 50084, Note_on_c, 1, 58, 0
5, 50084, Note_on_c, 1, 61, 0
5, 50115, Note_on_c, 1, 58, 85
5, 50115, Note_on_c, 1, 61, 90
5, 50115, Note_on_c, 1, 64, 89
5, 50203, Note_on_c, 1, 64, 0
5, 50203, Note_on_c, 1, 61, 0
5, 50203, Note_on_c, 1, 58, 0
5, 50235, Note_on_c, 1, 61, 72
5, 50235, Note_on_c, 1, 58, 63
5, 50235, Note_on_c, 1, 64, 69
5, 50264, Note_on_c, 1, 64, 0
5, 50264, Note_on_c, 1, 58, 0
5, 50264, Note_on_c, 1, 61, 0
5, 50280, Note_on_c, 1, 58, 78
5, 50280, Note_on_c, 1, 61, 96
5, 50280, Note_on_c, 1, 64, 89
5, 50324, Note_on_c, 1, 58, 0
5, 50355, Note_on_c, 1, 58, 65
5, 50383, Note_on_c, 1, 64, 0
5, 50383, Note_on_c, 1, 61, 0
5, 50384, Note_on_c, 1, 58, 0
5, 50400, Control_c, 1, 64, 0
5, 50400, Control_c, 1, 64, 127
5, 50400, Note_on_c, 1, 58, 88
5, 50400, Note_on_c, 1, 63, 91
5, 50400, Note_on_c, 1, 66, 91
5, 50488, Note_on_c, 1, 66, 0
5, 50488, Note_on_c, 1, 63, 0
5, 50488, Note_on_c, 1, 58, 0
5, 50520, Note_on_c, 1, 58, 67
5, 50520, Note_on_c, 1, 63, 74
5, 50520, Note_on_c, 1, 66, 73
5, 50564, Note_on_c, 1, 66, 0
5, 50564, Note_on_c, 1, 63, 0
5, 50564, Note_on_c, 1, 58, 0
5, 50595, Note_on_c, 1, 58, 85
5, 50595, Note_on_c, 1, 66, 89
5, 50595, Note_on_c, 1, 63, 90
5, 50683, Note_on_c, 1, 63, 0
5, 50683, Note_on_c, 1, 66, 0
5, 50683, Note_on_c, 1, 58, 0
5, 50715, Note_on_c, 1, 58, 63
5, 50715, Note_on_c, 1, 63, 72
5, 50715, Note_on_c, 1, 66, 69
5, 50744, Note_on_c, 1, 66, 0
5, 50744, Note_on_c, 1, 63, 0
5, 50744, Note_on_c, 1, 58, 0
5, 50760, Note_on_c, 1, 58, 78
5, 50760, Note_on_c, 1, 66, 89
5, 50760, Note_on_c, 1, 63, 96
5, 50804, Note_on_c, 1, 58, 0
5, 50835, Note_on_c, 1, 58, 65
5, 50863, Note_on_c, 1, 63, 0
5, 50863, Note_on_c, 1, 66, 0
5, 50864, Note_on_c, 1, 58, 0
5, 50880, Control_c, 1, 64, 0
5, 50880, Control_c, 1, 64, 127
5, 50880, Note_on_c, 1, 66, 91
5, 50880, Note_on_c, 1, 63, 91
5, 50880, Note_on_c, 1, 59, 88
5, 50968, Note_on_c, 1, 59, 0
5, 50968, Note_on_c, 1, 63, 0
5, 50968, Note_on_c, 1, 66, 0
5, 51000, Note_on_c, 1, 59, 67
5, 51000, Note_on_c, 1, 63, 74
5, 51000, Note_on_c, 1, 66, 73
5, 51044, Note_on_c, 1, 66, 0
5, 51044, Note_on_c, 1, 63, 0
5, 51044, Note_on_c, 1, 59, 0
5, 51075, Note_on_c, 1, 59, 85
5, 51075, Note_on_c, 1, 66, 89
5, 51075, Note_on_c, 1, 63, 90
5, 51104, Note_on_c, 1, 63, 0
5, 51104, Note_on_c, 1, 66, 0
5, 51104, Note_on_c, 1, 59, 0
5, 51112, Control_c, 1, 64, 0
5, 51120, Control_c, 1, 64, 127
5, 51120, Note_on_c, 1, 61, 91
5, 51120, Note_on_c, 1, 65, 91
5, 51120, Note_on_c, 1, 68, 91
5, 51179, Note_on_c, 1, 68, 0
5, 51179, Note_on_c, 1, 65, 0
5, 51179, Note_on_c, 1, 61, 0
5, 51195, Note_on_c, 1, 65, 72
5, 51195, Note_on_c, 1, 68, 69
5, 51195, Note_on_c, 1, 61, 63
5, 51224, Note_on_c, 1, 61, 0
5, 51224, Note_on_c, 1, 68, 0
5, 51224, Note_on_c, 1, 65, 0
5, 51240, Note_on_c, 1, 61, 78
5, 51240, Note_on_c, 1, 68, 89
5, 51240, Note_on_c, 1, 65, 96
5, 51284, Note_on_c, 1, 61, 0
5, 51315, Note_on_c, 1, 61, 65
5, 51343, Note_on_c, 1, 65, 0
5, 51343, Note_on_c, 1, 68, 0
5, 51344, Note_on_c, 1, 61, 0
5, 51360, Control_c, 1, 64, 0
5, 51360, Control_c, 1, 64, 127
5, 51360, Note_on_c, 1, 61, 88
5, 51360, Note_on_c, 1, 66, 91
5, 51360, Note_on_c, 1, 58, 91
5, 51448, Note_on_c, 1, 58, 0
5, 51448, Note_on_c, 1, 66, 0
5, 51448, Note_on_c, 1, 61, 0
5, 51480, Note_on_c, 1, 58, 67
5, 51480, Note_on_c, 1, 61, 74
5, 51480, Note_on_c, 1, 66, 73
5, 51524, Note_on_c, 1, 66, 0
5, 51524, Note_on_c, 1, 61, 0
5, 51524, Note_on_c, 1, 58, 0
5, 51555, Note_on_c, 1, 58, 85
5, 51555, Note_on_c, 1, 66, 89
5, 51555, Note_on_c, 1, 61, 90
5, 51643, Note_on_c, 1, 61, 0
5, 51643, Note_on_c, 1, 66, 0
5, 51643, Note_on_c, 1, 58, 0
5, 51675, Note_on_c, 1, 58, 63
5, 51675, Note_on_c, 1, 61, 72
5, 51675, Note_on_c, 1, 66, 69
5, 51704, Note_on_c, 1, 66, 0
5, 51704, Note_on_c, 1, 61, 0
5, 51704, Note_on_c, 1, 58, 0
5, 51720, Note_on_c, 1, 58, 78
5, 51720, Note_on_c, 1, 61, 96
5, 51720, Note_on_c, 1, 66, 89
5, 51764, Note_on_c, 1, 58, 0
5, 51795, Note_on_c, 1, 58, 65
5, 51823, Note_on_c, 1, 66, 0
5, 51823, Note_on_c, 1, 61, 0
5, 51824, Note_on_c, 1, 58, 0
5, 51840, Control_c, 1, 64, 0
5, 51840, Control_c, 1, 64, 127
5, 51840, Note_on_c, 1, 61, 91
5, 51840, Note_on_c, 1, 58, 88
5, 51840, Note_on_c, 1, 66, 91
5, 51928, Note_on_c, 1, 66, 0
5, 51928, Note_on_c, 1, 58, 0
5, 51928, Note_on_c, 1, 61, 0
5, 51960, Note_on_c, 1, 66, 73
5, 51960, Note_on_c, 1, 61, 74
5, 51960, Note_on_c, 1, 58, 67
5, 52004, Note_on_c, 1, 58, 0
5, 52004, Note_on_c, 1, 61, 0
5, 52004, Note_on_c, 1, 66, 0
5, 52035, Note_on_c, 1, 61, 90
5, 52035, Note_on_c, 1, 66, 89
5, 52035, Note_on_c, 1, 58, 85
5, 52123, Note_on_c, 1, 58, 0
5, 52123, Note_on_c, 1, 66, 0
5, 52123, Note_on_c, 1, 61, 0
5, 52155, Note_on_c, 1, 61, 72
5, 52155, Note_on_c, 1, 58, 63
5, 52155, Note_on_c, 1, 66, 69
5, 52184, Note_on_c, 1, 66, 0
5, 52184, Note_on_c, 1, 58, 0
5, 52184, Note_on_c, 1, 61, 0
5, 52200, Note_on_c, 1, 58, 78
5, 52200, Note_on_c, 1, 61, 96
5, 52200, Note_on_c, 1, 66, 89
5, 52244, Note_on_c, 1, 58, 0
5, 52275, Note_on_c, 1, 58, 65
5, 52303, Note_on_c, 1, 66, 0
5, 52303, Note_on_c, 1, 61, 0
5, 52304, Note_on_c, 1, 58, 0
5, 52320, Control_c, 1, 64, 0
5, 52320, Control_c, 1, 64, 127
5, 52320, Note_on_c, 1, 61, 91
5, 52320, Note_on_c, 1, 58, 88
5, 52320, Note_on_c, 1, 65, 91
5, 52408, Note_on_c, 1, 65, 0
5, 52408, Note_on_c, 1, 58, 0
5, 52408, Note_on_c, 1, 61, 0
5, 52440, Note_on_c, 1, 61, 74
5, 52440, Note_on_c, 1, 58, 67
5, 52440, Note_on_c, 1, 65, 73
5, 52484, Note_on_c, 1, 65, 0
5, 52484, Note_on_c, 1, 58, 0
5, 52484, Note_on_c, 1, 61, 0
5, 52515, Note_on_c, 1, 58, 85
5, 52515, Note_on_c, 1, 61, 90
5, 52515, Note_on_c, 1, 65, 89
5, 52603, Note_on_c, 1, 65, 0
5, 52603, Note_on_c, 1, 61, 0
5, 52603, Note_on_c, 1, 58, 0
5, 52635, Note_on_c, 1, 61, 72
5, 52635, Note_on_c, 1, 58, 63
5, 52635, Note_on_c, 1, 65, 69
5, 52664, Note_on_c, 1, 65, 0
5, 52664, Note_on_c, 1, 58, 0
5, 52664, Note_on_c, 1, 61, 0
5, 52680, Note_on_c, 1, 58, 78
5, 52680, Note_on_c, 1, 61, 96
5, 52680, Note_on_c, 1, 65, 89
5, 52724, Note_on_c, 1, 58, 0
5, 52755, Note_on_c, 1, 58, 65
5, 52783, Note_on_c, 1, 65, 0
5, 52783, Note_on_c, 1, 61, 0
5, 52784, Note_on_c, 1, 58, 0
5, 52800, Control_c, 1, 64, 0
5, 52800, Control_c, 1, 64, 127
5, 52800, Note_on_c, 1, 61, 91
5, 52800, Note_on_c, 1, 58, 88
5, 52800, Note_on_c, 1, 65, 91
5, 52888, Note_on_c, 1, 65, 0
5, 52888, Note_on_c, 1, 58, 0
5, 52888, Note_on_c, 1, 61, 0
5, 52920, Note_on_c, 1, 61, 74
5, 52920, Note_on_c, 1, 58, 67
5, 52920, Note_on_c, 1, 65, 73
5, 52964, Note_on_c, 1, 65, 0
5, 52964, Note_on_c, 1, 58, 0
5, 52964, Note_on_c, 1, 61, 0
5, 52995, Note_on_c, 1, 58, 85
5, 52995, Note_on_c, 1, 61, 90
5, 52995, Note_on_c, 1, 65, 89
5, 53083, Note_on_c, 1, 65, 0
5, 53083, Note_on_c, 1, 61, 0
5, 53083, Note_on_c, 1, 58, 0
5, 53115, Note_on_c, 1, 61, 72
5, 53115, Note_on_c, 1, 58, 63
5, 53115, Note_on_c, 1, 65, 69
5, 53144, Note_on_c, 1, 65, 0
5, 53144, Note_on_c, 1, 58, 0
5, 53144, Note_on_c, 1, 61, 0
5, 53160, Note_on_c, 1, 58, 78
5, 53160, Note_on_c, 1, 61, 96
5, 53160, Note_on_c, 1, 65, 89
5, 53204, Note_on_c, 1, 58, 0
5, 53235, Note_on_c, 1, 58, 65
5, 53263, Note_on_c, 1, 65, 0
5, 53263, Note_on_c, 1, 61, 0
5, 53264, Note_on_c, 1, 58, 0
5, 53280, Control_c, 1, 64, 0
5, 53280, Control_c, 1, 64, 127
5, 53280, Note_on_c, 1, 61, 91
5, 53280, Note_on_c, 1, 58, 88
5, 53280, Note_on_c, 1, 64, 91
5, 53368, Note_on_c, 1, 64, 0
5, 53368, Note_on_c, 1, 58, 0
5, 53368, Note_on_c, 1, 61, 0
5, 53400, Note_on_c, 1, 61, 74
5, 53400, Note_on_c, 1, 58, 67
5, 53400, Note_on_c, 1, 64, 73
5, 53444, Note_on_c, 1, 64, 0
5, 53444, Note_on_c, 1, 58, 0
5, 53444, Note_on_c, 1, 61, 0
5, 53475, Note_on_c, 1, 58, 85
5, 53475, Note_on_c, 1, 61, 90
5, 53475, Note_on_c, 1, 64, 89
5, 53563, Note_on_c, 1, 64, 0
5, 53563, Note_on_c, 1, 61, 0
5, 53563, Note_on_c, 1, 58, 0
5, 53595, Note_on_c, 1, 61, 72
5, 53595, Note_on_c, 1, 58, 63
5, 53595, Note_on_c, 1, 64, 69
5, 53624, Note_on_c, 1, 64, 0
5, 53624, Note_on_c, 1, 58, 0
5, 53624, Note_on_c, 1, 61, 0
5, 53640, Note_on_c, 1, 58, 78
5, 53640, Note_on_c, 1, 61, 96
5, 53640, Note_on_c, 1, 64, 89
5, 53684, Note_on_c, 1, 58, 0
5, 53715, Note_on_c, 1, 58, 65
5, 53743, Note_on_c, 1, 64, 0
5, 53743, Note_on_c, 1, 61, 0
5, 53744, Note_on_c, 1, 58, 0
5, 53760, Control_c, 1, 64, 0
5, 53760, Control_c, 1, 64, 127
5, 53760, Note_on_c, 1, 61, 91
5, 53760, Note_on_c, 1, 58, 88
5, 53760, Note_on_c, 1, 64, 91
5, 53848, Note_on_c, 1, 64, 0
5, 53848, Note_on_c, 1, 58, 0
5, 53848, Note_on_c, 1, 61, 0
5, 53880, Note_on_c, 1, 61, 74
5, 53880, Note_on_c, 1, 58, 67
5, 53880, Note_on_c, 1, 64, 73
5, 53924, Note_on_c, 1, 64, 0
5, 53924, Note_on_c, 1, 58, 0
5, 53924, Note_on_c, 1, 61, 0
5, 53955, Note_on_c, 1, 58, 85
5, 53955, Note_on_c, 1, 61, 90
5, 53955, Note_on_c, 1, 64, 89
5, 54043, Note_on_c, 1, 64, 0
5, 54043, Note_on_c, 1, 61, 0
5, 54043, Note_on_c, 1, 58, 0
5, 54075, Note_on_c, 1, 61, 72
5, 54075, Note_on_c, 1, 58, 63
5, 54075, Note_on_c, 1, 64, 69
5, 54104, Note_on_c, 1, 64, 0
5, 54104, Note_on_c, 1, 58, 0
5, 54104, Note_on_c, 1, 61, 0
5, 54120, Note_on_c, 1, 58, 78
5, 54120, Note_on_c, 1, 61, 96
5, 54120, Note_on_c, 1, 64, 89
5, 54164, Note_on_c, 1, 58, 0
5, 54195, Note_on_c, 1, 58, 65
5, 54223, Note_on_c, 1, 64, 0
5, 54223, Note_on_c, 1, 61, 0
5, 54224, Note_on_c, 1, 58, 0
5, 54240, Control_c, 1, 64, 0
5, 54240, Control_c, 1, 64, 127
5, 54240, Note_on_c, 1, 58, 88
5, 54240, Note_on_c, 1, 63, 91
5, 54240, Note_on_c, 1, 66, 91
5, 54328, Note_on_c, 1, 66, 0
5, 54328, Note_on_c, 1, 63, 0
5, 54328, Note_on_c, 1, 58, 0
5, 54360, Note_on_c, 1, 58, 67
5, 54360, Note_on_c, 1, 63, 74
5, 54360, Note_on_c, 1, 66, 73
5, 54404, Note_on_c, 1, 66, 0
5, 54404, Note_on_c, 1, 63, 0
5, 54404, Note_on_c, 1, 58, 0
5, 54435, Note_on_c, 1, 58, 85
5, 54435, Note_on_c, 1, 66, 89
5, 54435, Note_on_c, 1, 63, 90
5, 54523, Note_on_c, 1, 63, 0
5, 54523, Note_on_c, 1, 66, 0
5, 54523, Note_on_c, 1, 58, 0
5, 54555, Note_on_c, 1, 58, 63
5, 54555, Note_on_c, 1, 63, 72
5, 54555, Note_on_c, 1, 66, 69
5, 54584, Note_on_c, 1, 66, 0
5, 54584, Note_on_c, 1, 63, 0
5, 54584, Note_on_c, 1, 58, 0
5, 54600, Note_on_c, 1, 58, 78
5, 54600, Note_on_c, 1, 66, 89
5, 54600, Note_on_c, 1, 63, 96
5, 54644, Note_on_c, 1, 58, 0
5, 54675, Note_on_c, 1, 58, 65
5, 54703, Note_on_c, 1, 63, 0
5, 54703, Note_on_c, 1, 66, 0
5, 54704, Note_on_c, 1, 58, 0
5, 54720, Control_c, 1, 64, 0
5, 54720, Control_c, 1, 64, 127
5, 54720, Note_on_c, 1, 66, 91
5, 54720, Note_on_c, 1, 63, 91
5, 54720, Note_on_c, 1, 59, 88
5, 54808, Note_on_c, 1, 59, 0
5, 54808, Note_on_c, 1, 63, 0
5, 54808, Note_on_c, 1, 66, 0
5, 54840, Note_on_c, 1, 59, 67
5, 54840, Note_on_c, 1, 63, 74
5, 54840, Note_on_c, 1, 66, 73
5, 54884, Note_on_c, 1, 66, 0
5, 54884, Note_on_c, 1, 63, 0
5, 54884, Note_on_c, 1, 59, 0
5, 54915, Note_on_c, 1, 59, 85
5, 54915, Note_on_c, 1, 66, 89
5, 54915, Note_on_c, 1, 63, 90
5, 54944, Note_on_c, 1, 63, 0
5, 54944, Note_on_c, 1, 66, 0
5, 54944, Note_on_c, 1, 59, 0
5, 54952, Control_c, 1, 64, 0
5, 54960, Control_c, 1, 64, 127
5, 54960, Note_on_c, 1, 61, 91
5, 54960, Note_on_c, 1, 65, 91
5, 54960, Note_on_c, 1, 68, 91
5, 55019, Note_on_c, 1, 68, 0
5, 55019, Note_on_c, 1, 65, 0
5, 55019, Note_on_c, 1, 61, 0
5, 55035, Note_on_c, 1, 65, 72
5, 55035, Note_on_c, 1, 68, 69
5, 55035, Note_on_c, 1, 61, 63
5, 55064, Note_on_c, 1, 61, 0
5, 55064, Note_on_c, 1, 68, 0
5, 55064, Note_on_c, 1, 65, 0
5, 55080, Note_on_c, 1, 61, 78
5, 55080, Note_on_c, 1, 68, 89
5, 55080, Note_on_c, 1, 65, 96
5, 55124, Note_on_c, 1, 61, 0
5, 55155, Note_on_c, 1, 61, 65
5, 55183, Note_on_c, 1, 65, 0
5, 55183, Note_on_c, 1, 68, 0
5, 55184, Note_on_c, 1, 61, 0
5, 55200, Control_c, 1, 64, 0
5, 55200, Control_c, 1, 64, 127
5, 55200, Note_on_c, 1, 61, 88
5, 55200, Note_on_c, 1, 66, 91
5, 55200, Note_on_c, 1, 58, 91
5, 55288, Note_on_c, 1, 58, 0
5, 55288, Note_on_c, 1, 66, 0
5, 55288, Note_on_c, 1, 61, 0
5, 55320, Note_on_c, 1, 58, 67
5, 55320, Note_on_c, 1, 61, 74
5, 55320, Note_on_c, 1, 66, 73
5, 55364, Note_on_c, 1, 66, 0
5, 55364, Note_on_c, 1, 61, 0
5, 55364, Note_on_c, 1, 58, 0
5, 55395, Note_on_c, 1, 58, 85
5, 55395, Note_on_c, 1, 66, 89
5, 55395, Note_on_c, 1, 61, 90
5, 55483, Note_on_c, 1, 61, 0
5, 55483, Note_on_c, 1, 66, 0
5, 55483, Note_on_c, 1, 58, 0
5, 55515, Note_on_c, 1, 58, 63
5, 55515, Note_on_c, 1, 61, 72
5, 55515, Note_on_c, 1, 66, 69
5, 55544, Note_on_c, 1, 66, 0
5, 55544, Note_on_c, 1, 61, 0
5, 55544, Note_on_c, 1, 58, 0
5, 55560, Note_on_c, 1, 58, 78
5, 55560, Note_on_c, 1, 61, 96
5, 55560, Note_on_c, 1, 66, 89
5, 55604, Note_on_c, 1, 58, 0
5, 55635, Note_on_c, 1, 58, 65
5, 55663, Note_on_c, 1, 66, 0
5, 55663, Note_on_c, 1, 61, 0
5, 55664, Note_on_c, 1, 58, 0
5, 55680, Control_c, 1, 64, 0
5, 55680, Control_c, 1, 64, 127
5, 55680, Note_on_c, 1, 61, 91
5, 55680, Note_on_c, 1, 58, 88
5, 55680, Note_on_c, 1, 66, 91
5, 55768, Note_on_c, 1, 66, 0
5, 55768, Note_on_c, 1, 58, 0
5, 55768, Note_on_c, 1, 61, 0
5, 55800, Note_on_c, 1, 66, 73
5, 55800, Note_on_c, 1, 61, 74
5, 55800, Note_on_c, 1, 58, 67
5, 55844, Note_on_c, 1, 58, 0
5, 55844, Note_on_c, 1, 61, 0
5, 55844, Note_on_c, 1, 66, 0
5, 55875, Note_on_c, 1, 61, 90
5, 55875, Note_on_c, 1, 66, 89
5, 55875, Note_on_c, 1, 58, 85
5, 55963, Note_on_c, 1, 58, 0
5, 55963, Note_on_c, 1, 66, 0
5, 55963, Note_on_c, 1, 61, 0
5, 55995, Note_on_c, 1, 61, 72
5, 55995, Note_on_c, 1, 58, 63
5, 55995, Note_on_c, 1, 66, 69
5, 56024, Note_on_c, 1, 66, 0
5, 56024, Note_on_c, 1, 58, 0
5, 56024, Note_on_c, 1, 61, 0
5, 56040, Note_on_c, 1, 58, 78
5, 56040, Note_on_c, 1, 61, 96
5, 56040, Note_on_c, 1, 66, 89
5, 56084, Note_on_c, 1, 58, 0
5, 56115, Note_on_c, 1, 58, 65
5, 56143, Note_on_c, 1, 66, 0
5, 56143, Note_on_c, 1, 61, 0
5, 56144, Note_on_c, 1, 58, 0
5, 56160, Control_c, 1, 64, 0
5, 56160, Control_c, 1, 64, 127
5, 56160, Note_on_c, 1, 61, 91
5, 56160, Note_on_c, 1, 58, 88
5, 56160, Note_on_c, 1, 65, 91
5, 56248, Note_on_c, 1, 65, 0
5, 56248, Note_on_c, 1, 58, 0
5, 56248, Note_on_c, 1, 61, 0
5, 56280, Note_on_c, 1, 61, 74
5, 56280, Note_on_c, 1, 58, 67
5, 56280, Note_on_c, 1, 65, 73
5, 56324, Note_on_c, 1, 65, 0
5, 56324, Note_on_c, 1, 58, 0
5, 56324, Note_on_c, 1, 61, 0
5, 56355, Note_on_c, 1, 58, 85
5, 56355, Note_on_c, 1, 61, 90
5, 56355, Note_on_c, 1, 65, 89
5, 56443, Note_on_c, 1, 65, 0
5, 56443, Note_on_c, 1, 61, 0
5, 56443, Note_on_c, 1, 58, 0
5, 56475, Note_on_c, 1, 61, 72
5, 56475, Note_on_c, 1, 58, 63
5, 56475, Note_on_c, 1, 65, 69
5, 56504, Note_on_c, 1, 65, 0
5, 56504, Note_on_c, 1, 58, 0
5, 56504, Note_on_c, 1, 61, 0
5, 56520, Note_on_c, 1, 58, 78
5, 56520, Note_on_c, 1, 61, 96
5, 56520, Note_on_c, 1, 65, 89
5, 56564, Note_on_c, 1, 58, 0
5, 56595, Note_on_c, 1, 58, 65
5, 56623, Note_on_c, 1, 65, 0
5, 56623, Note_on_c, 1, 61, 0
5, 56624, Note_on_c, 1, 58, 0
5, 56640, Control_c, 1, 64, 0
5, 56640, Control_c, 1, 64, 127
5, 56640, Note_on_c, 1, 61, 91
5, 56640, Note_on_c, 1, 58, 88
5, 56640, Note_on_c, 1, 65, 91
5, 56728, Note_on_c, 1, 65, 0
5, 56728, Note_on_c, 1, 58, 0
5, 56728, Note_on_c, 1, 61, 0
5, 56760, Note_on_c, 1, 61, 74
5, 56760, Note_on_c, 1, 58, 67
5, 56760, Note_on_c, 1, 65, 73
5, 56804, Note_on_c, 1, 65, 0
5, 56804, Note_on_c, 1, 58, 0
5, 56804, Note_on_c, 1, 61, 0
5, 56835, Note_on_c, 1, 58, 85
5, 56835, Note_on_c, 1, 61, 90
5, 56835, Note_on_c, 1, 65, 89
5, 56923, Note_on_c, 1, 65, 0
5, 56923, Note_on_c, 1, 61, 0
5, 56923, Note_on_c, 1, 58, 0
5, 56955, Note_on_c, 1, 61, 72
5, 56955, Note_on_c, 1, 58, 63
5, 56955, Note_on_c, 1, 65, 69
5, 56984, Note_on_c, 1, 65, 0
5, 56984, Note_on_c, 1, 58, 0
5, 56984, Note_on_c, 1, 61, 0
5, 57000, Note_on_c, 1, 58, 78
5, 57000, Note_on_c, 1, 61, 96
5, 57000, Note_on_c, 1, 65, 89
5, 57044, Note_on_c, 1, 58, 0
5, 57075, Note_on_c, 1, 58, 65
5, 57103, Note_on_c, 1, 65, 0
5, 57103, Note_on_c, 1, 61, 0
5, 57104, Note_on_c, 1, 58, 0
5, 57120, Control_c, 1, 64, 0
5, 57120, Control_c, 1, 64, 127
5, 57120, Note_on_c, 1, 61, 91
5, 57120, Note_on_c, 1, 58, 88
5, 57120, Note_on_c, 1, 64, 91
5, 57208, Note_on_c, 1, 64, 0
5, 57208, Note_on_c, 1, 58, 0
5, 57208, Note_on_c, 1, 61, 0
5, 57240, Note_on_c, 1, 61, 74
5, 57240, Note_on_c, 1, 58, 67
5, 57240, Note_on_c, 1, 64, 73
5, 57284, Note_on_c, 1, 64, 0
5, 57284, Note_on_c, 1, 58, 0
5, 57284, Note_on_c, 1, 61, 0
5, 57315, Note_on_c, 1, 58, 85
5, 57315, Note_on_c, 1, 61, 90
5, 57315, Note_on_c, 1, 64, 89
5, 57403, Note_on_c, 1, 64, 0
5, 57403, Note_on_c, 1, 61, 0
5, 57403, Note_on_c, 1, 58, 0
5, 57435, Note_on_c, 1, 61, 72
5, 57435, Note_on_c, 1, 58, 63
5, 57435, Note_on_c, 1, 64, 69
5, 57464, Note_on_c, 1, 64, 0
5, 57464, Note_on_c, 1, 58, 0
5, 57464, Note_on_c, 1, 61, 0
5, 57480, Note_on_c, 1, 58, 78
5, 57480, Note_on_c, 1, 61, 96
5, 57480, Note_on_c, 1, 64, 89
5, 57524, Note_on_c, 1, 58, 0
5, 57555, Note_on_c, 1, 58, 65
5, 57583, Note_on_c, 1, 64, 0
5, 57583, Note_on_c, 1, 61, 0
5, 57584, Note_on_c, 1, 58, 0
5, 57600, Control_c, 1, 64, 0
5, 57600, Control_c, 1, 64, 127
5, 57600, Note_on_c, 1, 61, 91
5, 57600, Note_on_c, 1, 58, 88
5, 57600, Note_on_c, 1, 64, 91
5, 57688, Note_on_c, 1, 64, 0
5, 57688, Note_on_c, 1, 58, 0
5, 57688, Note_on_c, 1, 61, 0
5, 57720, Note_on_c, 1, 61, 74
5, 57720, Note_on_c, 1, 58, 67
5, 57720, Note_on_c, 1, 64, 73
5, 57764, Note_on_c, 1, 64, 0
5, 57764, Note_on_c, 1, 58, 0
5, 57764, Note_on_c, 1, 61, 0
5, 57795, Note_on_c, 1, 58, 85
5, 57795, Note_on_c, 1, 61, 90
5, 57795, Note_on_c, 1, 64, 89
5, 57883, Note_on_c, 1, 64, 0
5, 57883, Note_on_c, 1, 61, 0
5, 57883, Note_on_c, 1, 58, 0
5, 57915, Note_on_c, 1, 61, 72
5, 57915, Note_on_c, 1, 58, 63
5, 57915, Note_on_c, 1, 64, 69
5, 57944, Note_on_c, 1, 64, 0
5, 57944, Note_on_c, 1, 58, 0
5, 57944, Note_on_c, 1, 61, 0
5, 57960, Note_on_c, 1, 58, 78
5, 57960, Note_on_c, 1, 61, 96
5, 57960, Note_on_c, 1, 64, 89
5, 58004, Note_on_c, 1, 58, 0
5, 58035, Note_on_c, 1, 58, 65
5, 58063, Note_on_c, 1, 64, 0
5, 58063, Note_on_c, 1, 61, 0
5, 58064, Note_on_c, 1, 58, 0
5, 58080, Control_c, 1, 64, 0
5, 58080, Control_c, 1, 64, 127
5, 58080, Note_on_c, 1, 58, 88
5, 58080, Note_on_c, 1, 63, 91
5, 58080, Note_on_c, 1, 66, 91
5, 58168, Note_on_c, 1, 66, 0
5, 58168, Note_on_c, 1, 63, 0
5, 58168, Note_on_c, 1, 58, 0
5, 58200, Note_on_c, 1, 58, 67
5, 58200, Note_on_c, 1, 63, 74
5, 58200, Note_on_c, 1, 66, 73
5, 58244, Note_on_c, 1, 66, 0
5, 58244, Note_on_c, 1, 63, 0
5, 58244, Note_on_c, 1, 58, 0
5, 58275, Note_on_c, 1, 58, 85
5, 58275, Note_on_c, 1, 66, 89
5, 58275, Note_on_c, 1, 63, 90
5, 58363, Note_on_c, 1, 63, 0
5, 58363, Note_on_c, 1, 66, 0
5, 58363, Note_on_c, 1, 58, 0
5, 58395, Note_on_c, 1, 58, 63
5, 58395, Note_on_c, 1, 63, 72
5, 58395, Note_on_c, 1, 66, 69
5, 58424, Note_on_c, 1, 66, 0
5, 58424, Note_on_c, 1, 63, 0
5, 58424, Note_on_c, 1, 58, 0
5, 58440, Note_on_c, 1, 58, 78
5, 58440, Note_on_c, 1, 66, 89
5, 58440, Note_on_c, 1, 63, 96
5, 58484, Note_on_c, 1, 58, 0
5, 58515, Note_on_c, 1, 58, 65
5, 58543, Note_on_c, 1, 63, 0
5, 58543, Note_on_c, 1, 66, 0
5, 58544, Note_on_c, 1, 58, 0
5, 58560, Control_c, 1, 64, 0
5, 58560, Control_c, 1, 64, 127
5, 58560, Note_on_c, 1, 66, 91
5, 58560, Note_on_c, 1, 63, 91
5, 58560, Note_on_c, 1, 59, 88
5, 58648, Note_on_c, 1, 59, 0
5, 58648, Note_on_c, 1, 63, 0
5, 58648, Note_on_c, 1, 66, 0
5, 58680, Note_on_c, 1, 59, 67
5, 58680, Note_on_c, 1, 63, 74
5, 58680, Note_on_c, 1, 66, 73
5, 58724, Note_on_c, 1, 66, 0
5, 58724, Note_on_c, 1, 63, 0
5, 58724, Note_on_c, 1, 59, 0
5, 58755, Note_on_c, 1, 59, 85
5, 58755, Note_on_c, 1, 66, 89
5, 58755, Note_on_c, 1, 63, 90
5, 58784, Note_on_c, 1, 63, 0
5, 58784, Note_on_c, 1, 66, 0
5, 58784, Note_on_c, 1, 59, 0
5, 58792, Control_c, 1, 64, 0
5, 58800, Control_c, 1, 64, 127
5, 58800, Note_on_c, 1, 61, 91
5, 58800, Note_on_c, 1, 65, 91
5, 58800, Note_on_c, 1, 68, 91
5, 58859, Note_on_c, 1, 68, 0
5, 58859, Note_on_c, 1, 65, 0
5, 58859, Note_on_c, 1, 61, 0
5, 58875, Note_on_c, 1, 65, 72
5, 58875, Note_on_c, 1, 68, 69
5, 58875, Note_on_c, 1, 61, 63
5, 58904, Note_on_c, 1, 61, 0
5, 58904, Note_on_c, 1, 68, 0
5, 58904, Note_on_c, 1, 65, 0
5, 58920, Note_on_c, 1, 61, 78
5, 58920, Note_on_c, 1, 68, 89
5, 58920, Note_on_c, 1, 65, 96
5, 58964, Note_on_c, 1, 61, 0
5, 58995, Note_on_c, 1, 61, 65
5, 59023, Note_on_c, 1, 65, 0
5, 59023, Note_on_c, 1, 68, 0
5, 59024, Note_on_c, 1, 61, 0
5, 59040, Control_c, 1, 64, 0
5, 59040, Control_c, 1, 64, 127
5, 59040, Note_on_c, 1, 61, 88
5, 59040, Note_on_c, 1, 66, 91
5, 59040, Note_on_c, 1, 58, 91
5, 59128, Note_on_c, 1, 58, 0
5, 59128, Note_on_c, 1, 66, 0
5, 59128, Note_on_c, 1, 61, 0
5, 59160, Note_on_c, 1, 58, 67
5, 59160, Note_on_c, 1, 61, 74
5, 59160, Note_on_c, 1, 66, 73
5, 59204, Note_on_c, 1, 66, 0
5, 59204, Note_on_c, 1, 61, 0
5, 59204, Note_on_c, 1, 58, 0
5, 59235, Note_on_c, 1, 58, 85
5, 59235, Note_on_c, 1, 66, 89
5, 59235, Note_on_c, 1, 61, 90
5, 59323, Note_on_c, 1, 61, 0
5, 59323, Note_on_c, 1, 66, 0
5, 59323, Note_on_c, 1, 58, 0
5, 59355, Note_on_c, 1, 58, 63
5, 59355, Note_on_c, 1, 61, 72
5, 59355, Note_on_c, 1, 66, 69
5, 59384, Note_on_c, 1, 66, 0
5, 59384, Note_on_c, 1, 61, 0
5, 59384, Note_on_c, 1, 58, 0
5, 59400, Note_on_c, 1, 58, 78
5, 59400, Note_on_c, 1, 61, 96
5, 59400, Note_on_c, 1, 66, 89
5, 59444, Note_on_c, 1, 58, 0
5, 59475, Note_on_c, 1, 58, 65
5, 59503, Note_on_c, 1, 66, 0
5, 59503, Note_on_c, 1, 61, 0
5, 59504, Note_on_c, 1, 58, 0
5, 59520, Control_c, 1, 64, 0
5, 59520, Control_c, 1, 64, 127
5, 59520, Note_on_c, 1, 61, 91
5, 59520, Note_on_c, 1, 58, 88
5, 59520, Note_on_c, 1, 66, 91
5, 59608, Note_on_c, 1, 66, 0
5, 59608, Note_on_c, 1, 58, 0
5, 59608, Note_on_c, 1, 61, 0
5, 59640, Note_on_c, 1, 66, 73
5, 59640, Note_on_c, 1, 61, 74
5, 59640, Note_on_c, 1, 58, 67
5, 59684, Note_on_c, 1, 58, 0
5, 59684, Note_on_c, 1, 61, 0
5, 59684, Note_on_c, 1, 66, 0
5, 59715, Note_on_c, 1, 61, 90
5, 59715, Note_on_c, 1, 66, 89
5, 59715, Note_on_c, 1, 58, 85
5, 59803, Note_on_c, 1, 58, 0
5, 59803, Note_on_c, 1, 66, 0
5, 59803, Note_on_c, 1, 61, 0
5, 59835, Note_on_c, 1, 61, 72
5, 59835, Note_on_c, 1, 58, 63
5, 59835, Note_on_c, 1, 66, 69
5, 59864, Note_on_c, 1, 66, 0
5, 59864, Note_on_c, 1, 58, 0
5, 59864, Note_on_c, 1, 61, 0
5, 59880, Note_on_c, 1, 58, 78
5, 59880, Note_on_c, 1, 61, 96
5, 59880, Note_on_c, 1, 66, 89
5, 59924, Note_on_c, 1, 58, 0
5, 59955, Note_on_c, 1, 58, 65
5, 59983, Note_on_c, 1, 66, 0
5, 59983, Note_on_c, 1, 61, 0
5, 59984, Note_on_c, 1, 58, 0
5, 60000, Control_c, 1, 64, 0
5, 60000, Control_c, 1, 64, 127
5, 60000, Note_on_c, 1, 61, 91
5, 60000, Note_on_c, 1, 58, 88
5, 60000, Note_on_c, 1, 65, 91
5, 60088, Note_on_c, 1, 65, 0
5, 60088, Note_on_c, 1, 58, 0
5, 60088, Note_on_c, 1, 61, 0
5, 60120, Note_on_c, 1, 61, 74
5, 60120, Note_on_c, 1, 58, 67
5, 60120, Note_on_c, 1, 65, 73
5, 60164, Note_on_c, 1, 65, 0
5, 60164, Note_on_c, 1, 58, 0
5, 60164, Note_on_c, 1, 61, 0
5, 60195, Note_on_c, 1, 58, 85
5, 60195, Note_on_c, 1, 61, 90
5, 60195, Note_on_c, 1, 65, 89
5, 60283, Note_on_c, 1, 65, 0
5, 60283, Note_on_c, 1, 61, 0
5, 60283, Note_on_c, 1, 58, 0
5, 60315, Note_on_c, 1, 61, 72
5, 60315, Note_on_c, 1, 58, 63
5, 60315, Note_on_c, 1, 65, 69
5, 60344, Note_on_c, 1, 65, 0
5, 60344, Note_on_c, 1, 58, 0
5, 60344, Note_on_c, 1, 61, 0
5, 60360, Note_on_c, 1, 58, 78
5, 60360, Note_on_c, 1, 61, 96
5, 60360, Note_on_c, 1, 65, 89
5, 60404, Note_on_c, 1, 58, 0
5, 60435, Note_on_c, 1, 58, 65
5, 60463, Note_on_c, 1, 65, 0
5, 60463, Note_on_c, 1, 61, 0
5, 60464, Note_on_c, 1, 58, 0
5, 60480, Control_c, 1, 64, 0
5, 60480, Control_c, 1, 64, 127
5, 60480, Note_on_c, 1, 61, 91
5, 60480, Note_on_c, 1, 58, 88
5, 60480, Note_on_c, 1, 65, 91
5, 60568, Note_on_c, 1, 65, 0
5, 60568, Note_on_c, 1, 58, 0
5, 60568, Note_on_c, 1, 61, 0
5, 60600, Note_on_c, 1, 61, 74
5, 60600, Note_on_c, 1, 58, 67
5, 60600, Note_on_c, 1, 65, 73
5, 60644, Note_on_c, 1, 65, 0
5, 60644, Note_on_c, 1, 58, 0
5, 60644, Note_on_c, 1, 61, 0
5, 60675, Note_on_c, 1, 58, 85
5, 60675, Note_on_c, 1, 61, 90
5, 60675, Note_on_c, 1, 65, 89
5, 60763, Note_on_c, 1, 65, 0
5, 60763, Note_on_c, 1, 61, 0
5, 60763, Note_on_c, 1, 58, 0
5, 60795, Note_on_c, 1, 61, 72
5, 60795, Note_on_c, 1, 58, 63
5, 60795, Note_on_c, 1, 65, 69
5, 60824, Note_on_c, 1, 65, 0
5, 60824, Note_on_c, 1, 58, 0
5, 60824, Note_on_c, 1, 61, 0
5, 60840, Note_on_c, 1, 58, 78
5, 60840, Note_on_c, 1, 61, 96
5, 60840, Note_on_c, 1, 65, 89
5, 60884, Note_on_c, 1, 58, 0
5, 60915, Note_on_c, 1, 58, 65
5, 60943, Note_on_c, 1, 65, 0
5, 60943, Note_on_c, 1, 61, 0
5, 60944, Note_on_c, 1, 58, 0
5, 60960, Control_c, 1, 64, 0
5, 60960, Control_c, 1, 64, 127
5, 60960, Note_on_c, 1, 61, 91
5, 60960, Note_on_c, 1, 58, 88
5, 60960, Note_on_c, 1, 64, 91
5, 61048, Note_on_c, 1, 64, 0
5, 61048, Note_on_c, 1, 58, 0
5, 61048, Note_on_c, 1, 61, 0
5, 61080, Note_on_c, 1, 61, 74
5, 61080, Note_on_c, 1, 58, 67
5, 61080, Note_on_c, 1, 64, 73
5, 61124, Note_on_c, 1, 64, 0
5, 61124, Note_on_c, 1, 58, 0
5, 61124, Note_on_c, 1, 61, 0
5, 61155, Note_on_c, 1, 58, 85
5, 61155, Note_on_c, 1, 61, 90
5, 61155, Note_on_c, 1, 64, 89
5, 61243, Note_on_c, 1, 64, 0
5, 61243, Note_on_c, 1, 61, 0
5, 61243, Note_on_c, 1, 58, 0
5, 61275, Note_on_c, 1, 61, 72
5, 61275, Note_on_c, 1, 58, 63
5, 61275, Note_on_c, 1, 64, 69
5, 61304, Note_on_c, 1, 64, 0
5, 61304, Note_on_c, 1, 58, 0
5, 61304, Note_on_c, 1, 61, 0
5, 61320, Note_on_c, 1, 58, 78
5, 61320, Note_on_c, 1, 61, 96
5, 61320, Note_on_c, 1, 64, 89
5, 61364, Note_on_c, 1, 58, 0
5, 61395, Note_on_c, 1, 58, 65
5, 61423, Note_on_c, 1, 64, 0
5, 61423, Note_on_c, 1, 61, 0
5, 61424, Note_on_c, 1, 58, 0
5, 61440, Control_c, 1, 64, 0
5, 61440, Control_c, 1, 64, 127
5, 61440, Note_on_c, 1, 61, 91
5, 61440, Note_on_c, 1, 58, 88
5, 61440, Note_on_c, 1, 64, 91
5, 61528, Note_on_c, 1, 64, 0
5, 61528, Note_on_c, 1, 58, 0
5, 61528, Note_on_c, 1, 61, 0
5, 61560, Note_on_c, 1, 61, 74
5, 61560, Note_on_c, 1, 58, 67
5, 61560, Note_on_c, 1, 64, 73
5, 61604, Note_on_c, 1, 64, 0
5, 61604, Note_on_c, 1, 58, 0
5, 61604, Note_on_c, 1, 61, 0
5, 61635, Note_on_c, 1, 58, 85
5, 61635, Note_on_c, 1, 61, 90
5, 61635, Note_on_c, 1, 64, 89
5, 61723, Note_on_c, 1, 64, 0
5, 61723, Note_on_c, 1, 61, 0
5, 61723, Note_on_c, 1, 58, 0
5, 61755, Note_on_c, 1, 61, 72
5, 61755, Note_on_c, 1, 58, 63
5, 61755, Note_on_c, 1, 64, 69
5, 61784, Note_on_c, 1, 64, 0
5, 61784, Note_on_c, 1, 58, 0
5, 61784, Note_on_c, 1, 61, 0
5, 61800, Note_on_c, 1, 58, 78
5, 61800, Note_on_c, 1, 61, 96
5, 61800, Note_on_c, 1, 64, 89
5, 61844, Note_on_c, 1, 58, 0
5, 61875, Note_on_c, 1, 58, 65
5, 61903, Note_on_c, 1, 64, 0
5, 61903, Note_on_c, 1, 61, 0
5, 61904, Note_on_c, 1, 58, 0
5, 61920, Control_c, 1, 64, 0
5, 61920, Control_c, 1, 64, 127
5, 61920, Note_on_c, 1, 58, 88
5, 61920, Note_on_c, 1, 63, 91
5, 61920, Note_on_c, 1, 66, 91
5, 62008, Note_on_c, 1, 66, 0
5, 62008, Note_on_c, 1, 63, 0
5, 62008, Note_on_c, 1, 58, 0
5, 62040, Note_on_c, 1, 58, 67
5, 62040, Note_on_c, 1, 63, 74
5, 62040, Note_on_c, 1, 66, 73
5, 62084, Note_on_c, 1, 66, 0
5, 62084, Note_on_c, 1, 63, 0
5, 62084, Note_on_c, 1, 58, 0
5, 62115, Note_on_c, 1, 58, 85
5, 62115, Note_on_c, 1, 66, 89
5, 62115, Note_on_c, 1, 63, 90
5, 62203, Note_on_c, 1, 63, 0
5, 62203, Note_on_c, 1, 66, 0
5, 62203, Note_on_c, 1, 58, 0
5, 62235, Note_on_c, 1, 58, 63
5, 62235, Note_on_c, 1, 63, 72
5, 62235, Note_on_c, 1, 66, 69
5, 62264, Note_on_c, 1, 66, 0
5, 62264, Note_on_c, 1, 63, 0
5, 62264, Note_on_c, 1, 58, 0
5, 62280, Note_on_c, 1, 58, 78
5, 62280, Note_on_c, 1, 66, 89
5, 62280, Note_on_c, 1, 63, 96
5, 62324, Note_on_c, 1, 58, 0
5, 62355, Note_on_c, 1, 58, 65
5, 62383, Note_on_c, 1, 63, 0
5, 62383, Note_on_c, 1, 66, 0
5, 62384, Note_on_c, 1, 58, 0
5, 62400, Control_c, 1, 64, 0
5, 62400, Control_c, 1, 64, 127
5, 62400, Note_on_c, 1, 66, 91
5, 62400, Note_on_c, 1, 63, 91
5, 62400, Note_on_c, 1, 59, 88
5, 62488, Note_on_c, 1, 59, 0
5, 62488, Note_on_c, 1, 63, 0
5, 62488, Note_on_c, 1, 66, 0
5, 62520, Note_on_c, 1, 59, 67
5, 62520, Note_on_c, 1, 63, 74
5, 62520, Note_on_c, 1, 66, 73
5, 62564, Note_on_c, 1, 66, 0
5, 62564, Note_on_c, 1, 63, 0
5, 62564, Note_on_c, 1, 59, 0
5, 62595, Note_on_c, 1, 59, 85
5, 62595, Note_on_c, 1, 66, 89
5, 62595, Note_on_c, 1, 63, 90
5, 62624, Note_on_c, 1, 63, 0
5, 62624, Note_on_c, 1, 66, 0
5, 62624, Note_on_c, 1, 59, 0
5, 62632, Control_c, 1, 64, 0
5, 62640, Control_c, 1, 64, 127
5, 62640, Note_on_c, 1, 61, 91
5, 62640, Note_on_c, 1, 65, 91
5, 62640, Note_on_c, 1, 68, 91
5, 62699, Note_on_c, 1, 68, 0
5, 62699, Note_on_c, 1, 65, 0
5, 62699, Note_on_c, 1, 61, 0
5, 62715, Note_on_c, 1, 65, 72
5, 62715, Note_on_c, 1, 68, 69
5, 62715, Note_on_c, 1, 61, 63
5, 62744, Note_on_c, 1, 61, 0
5, 62744, Note_on_c, 1, 68, 0
5, 62744, Note_on_c, 1, 65, 0
5, 62760, Note_on_c, 1, 61, 78
5, 62760, Note_on_c, 1, 68, 89
5, 62760, Note_on_c, 1, 65, 96
5, 62804, Note_on_c, 1, 61, 0
5, 62835, Note_on_c, 1, 61, 65
5, 62850, Note_on_c, 1, 54, 90
5, 62863, Note_on_c, 1, 65, 0
5, 62863, Note_on_c, 1, 68, 0
5, 62864, Note_on_c, 1, 61, 0
5, 62865, Note_on_c, 1, 58, 90
5, 62880, Control_c, 1, 64, 0
5, 62880, Note_on_c, 1, 61, 90
5, 62895, Note_on_c, 1, 66, 90
5, 63342, Note_on_c, 1, 58, 0
5, 63350, Note_on_c, 1, 54, 0
5, 63350, Note_on_c, 1, 61, 0
5, 63351, Note_on_c, 1, 66, 0
5, 63351, End_track
6, 0, Start_track
6, 0, Title_t, "Clean Guitar"
6, 0, Instrument_name_t, "Celine Dion"
6, 7, Control_c, 2, 121, 0
6, 30, Program_c, 2, 27
6, 37, Control_c, 2, 11, 127
6, 45, Control_c, 2, 91, 100
6, 52, Control_c, 2, 93, 55
6, 60, Control_c, 2, 94, 0
6, 67, Control_c, 2, 10, 44
6, 75, Control_c, 2, 100, 0
6, 82, Control_c, 2, 101, 0
6, 90, Control_c, 2, 6, 2
6, 232, Control_c, 2, 64, 0
6, 232, Control_c, 2, 7, 100
6, 3000, Note_on_c, 2, 65, 92
6, 3000, Note_on_c, 2, 72, 89
6, 3000, Note_on_c, 2, 69, 89
6, 3059, Note_on_c, 2, 69, 0
6, 3059, Note_on_c, 2, 72, 0
6, 3059, Note_on_c, 2, 65, 0
6, 3240, Note_on_c, 2, 69, 93
6, 3240, Note_on_c, 2, 65, 94
6, 3240, Note_on_c, 2, 72, 88
6, 3299, Note_on_c, 2, 72, 0
6, 3299, Note_on_c, 2, 65, 0
6, 3299, Note_on_c, 2, 69, 0
6, 3480, Note_on_c, 2, 72, 86
6, 3480, Note_on_c, 2, 69, 86
6, 3480, Note_on_c, 2, 65, 91
6, 3539, Note_on_c, 2, 65, 0
6, 3539, Note_on_c, 2, 69, 0
6, 3539, Note_on_c, 2, 72, 0
6, 3720, Note_on_c, 2, 72, 94
6, 3720, Note_on_c, 2, 65, 92
6, 3720, Note_on_c, 2, 69, 88
6, 3779, Note_on_c, 2, 69, 0
6, 3779, Note_on_c, 2, 65, 0
6, 3779, Note_on_c, 2, 72, 0
6, 3960, Note_on_c, 2, 64, 91
6, 3960, Note_on_c, 2, 72, 93
6, 3960, Note_on_c, 2, 69, 86
6, 4019, Note_on_c, 2, 69, 0
6, 4019, Note_on_c, 2, 72, 0
6, 4019, Note_on_c, 2, 64, 0
6, 4200, Note_on_c, 2, 72, 87
6, 4200, Note_on_c, 2, 64, 92
6, 4200, Note_on_c, 2, 69, 92
6, 4259, Note_on_c, 2, 69, 0
6, 4259, Note_on_c, 2, 64, 0
6, 4259, Note_on_c, 2, 72, 0
6, 4440, Note_on_c, 2, 64, 89
6, 4440, Note_on_c, 2, 69, 88
6, 4440, Note_on_c, 2, 72, 91
6, 4499, Note_on_c, 2, 72, 0
6, 4499, Note_on_c, 2, 69, 0
6, 4499, Note_on_c, 2, 64, 0
6, 4680, Note_on_c, 2, 72, 92
6, 4680, Note_on_c, 2, 64, 86
6, 4680, Note_on_c, 2, 69, 90
6, 4739, Note_on_c, 2, 69, 0
6, 4739, Note_on_c, 2, 64, 0
6, 4739, Note_on_c, 2, 72, 0
6, 4920, Note_on_c, 2, 69, 93
6, 4920, Note_on_c, 2, 72, 94
6, 4920, Note_on_c, 2, 63, 90
6, 4979, Note_on_c, 2, 63, 0
6, 4979, Note_on_c, 2, 72, 0
6, 4979, Note_on_c, 2, 69, 0
6, 5160, Note_on_c, 2, 72, 89
6, 5160, Note_on_c, 2, 69, 90
6, 5160, Note_on_c, 2, 63, 90
6, 5219, Note_on_c, 2, 63, 0
6, 5219, Note_on_c, 2, 69, 0
6, 5219, Note_on_c, 2, 72, 0
6, 5400, Note_on_c, 2, 69, 94
6, 5400, Note_on_c, 2, 72, 91
6, 5400, Note_on_c, 2, 63, 90
6, 5459, Note_on_c, 2, 63, 0
6, 5459, Note_on_c, 2, 72, 0
6, 5459, Note_on_c, 2, 69, 0
6, 5640, Note_on_c, 2, 72, 94
6, 5640, Note_on_c, 2, 69, 91
6, 5640, Note_on_c, 2, 63, 89
6, 5699, Note_on_c, 2, 63, 0
6, 5699, Note_on_c, 2, 69, 0
6, 5699, Note_on_c, 2, 72, 0
6, 5880, Note_on_c, 2, 69, 87
6, 5880, Note_on_c, 2, 62, 88
6, 5880, Note_on_c, 2, 65, 88
6, 5939, Note_on_c, 2, 65, 0
6, 5939, Note_on_c, 2, 62, 0
6, 5939, Note_on_c, 2, 69, 0
6, 6120, Note_on_c, 2, 69, 93
6, 6120, Note_on_c, 2, 65, 92
6, 6120, Note_on_c, 2, 62, 91
6, 6179, Note_on_c, 2, 62, 0
6, 6179, Note_on_c, 2, 65, 0
6, 6179, Note_on_c, 2, 69, 0
6, 6360, Note_on_c, 2, 62, 92
6, 6360, Note_on_c, 2, 65, 86
6, 6360, Note_on_c, 2, 70, 89
6, 6419, Note_on_c, 2, 70, 0
6, 6419, Note_on_c, 2, 65, 0
6, 6419, Note_on_c, 2, 62, 0
6, 6600, Note_on_c, 2, 72, 91
6, 6600, Note_on_c, 2, 67, 86
6, 6600, Note_on_c, 2, 64, 91
6, 6659, Note_on_c, 2, 64, 0
6, 6659, Note_on_c, 2, 67, 0
6, 6659, Note_on_c, 2, 72, 0
6, 6840, Note_on_c, 2, 65, 90
6, 6840, Note_on_c, 2, 72, 93
6, 6840, Note_on_c, 2, 69, 93
6, 6899, Note_on_c, 2, 69, 0
6, 6899, Note_on_c, 2, 72, 0
6, 6899, Note_on_c, 2, 65, 0
6, 7080, Note_on_c, 2, 69, 89
6, 7080, Note_on_c, 2, 65, 93
6, 7080, Note_on_c, 2, 72, 94
6, 7139, Note_on_c, 2, 72, 0
6, 7139, Note_on_c, 2, 65, 0
6, 7139, Note_on_c, 2, 69, 0
6, 7320, Note_on_c, 2, 72, 94
6, 7320, Note_on_c, 2, 69, 86
6, 7320, Note_on_c, 2, 65, 89
6, 7379, Note_on_c, 2, 65, 0
6, 7379, Note_on_c, 2, 69, 0
6, 7379, Note_on_c, 2, 72, 0
6, 7560, Note_on_c, 2, 72, 89
6, 7560, Note_on_c, 2, 65, 93
6, 7560, Note_on_c, 2, 69, 87
6, 7619, Note_on_c, 2, 69, 0
6, 7619, Note_on_c, 2, 65, 0
6, 7619, Note_on_c, 2, 72, 0
6, 7800, Note_on_c, 2, 64, 88
6, 7800, Note_on_c, 2, 72, 92
6, 7800, Note_on_c, 2, 69, 86
6, 7859, Note_on_c, 2, 69, 0
6, 7859, Note_on_c, 2, 72, 0
6, 7859, Note_on_c, 2, 64, 0
6, 8040, Note_on_c, 2, 72, 90
6, 8040, Note_on_c, 2, 64, 87
6, 8040, Note_on_c, 2, 69, 91
6, 8099, Note_on_c, 2, 69, 0
6, 8099, Note_on_c, 2, 64, 0
6, 8099, Note_on_c, 2, 72, 0
6, 8280, Note_on_c, 2, 64, 87
6, 8280, Note_on_c, 2, 69, 88
6, 8280, Note_on_c, 2, 72, 91
6, 8339, Note_on_c, 2, 72, 0
6, 8339, Note_on_c, 2, 69, 0
6, 8339, Note_on_c, 2, 64, 0
6, 8520, Note_on_c, 2, 72, 90
6, 8520, Note_on_c, 2, 64, 90
6, 8520, Note_on_c, 2, 69, 88
6, 8579, Note_on_c, 2, 69, 0
6, 8579, Note_on_c, 2, 64, 0
6, 8579, Note_on_c, 2, 72, 0
6, 8760, Note_on_c, 2, 62, 89
6, 8760, Note_on_c, 2, 65, 92
6, 8760, Note_on_c, 2, 69, 91
6, 8819, Note_on_c, 2, 69, 0
6, 8819, Note_on_c, 2, 65, 0
6, 8819, Note_on_c, 2, 62, 0
6, 9000, Note_on_c, 2, 69, 90
6, 9000, Note_on_c, 2, 65, 91
6, 9000, Note_on_c, 2, 62, 89
6, 9059, Note_on_c, 2, 62, 0
6, 9059, Note_on_c, 2, 65, 0
6, 9059, Note_on_c, 2, 69, 0
6, 9240, Note_on_c, 2, 62, 91
6, 9240, Note_on_c, 2, 65, 92
6, 9240, Note_on_c, 2, 69, 94
6, 9299, Note_on_c, 2, 69, 0
6, 9299, Note_on_c, 2, 65, 0
6, 9299, Note_on_c, 2, 62, 0
6, 9480, Note_on_c, 2, 69, 94
6, 9480, Note_on_c, 2, 65, 91
6, 9480, Note_on_c, 2, 62, 86
6, 9539, Note_on_c, 2, 62, 0
6, 9539, Note_on_c, 2, 65, 0
6, 9539, Note_on_c, 2, 69, 0
6, 9720, Note_on_c, 2, 65, 93
6, 9720, Note_on_c, 2, 61, 91
6, 9720, Note_on_c, 2, 70, 92
6, 9779, Note_on_c, 2, 70, 0
6, 9779, Note_on_c, 2, 61, 0
6, 9779, Note_on_c, 2, 65, 0
6, 9960, Note_on_c, 2, 65, 91
6, 9960, Note_on_c, 2, 70, 86
6, 9960, Note_on_c, 2, 61, 94
6, 10019, Note_on_c, 2, 61, 0
6, 10019, Note_on_c, 2, 70, 0
6, 10019, Note_on_c, 2, 65, 0
6, 10200, Note_on_c, 2, 60, 90
6, 10200, Note_on_c, 2, 64, 90
6, 10200, Note_on_c, 2, 67, 91
6, 10259, Note_on_c, 2, 67, 0
6, 10259, Note_on_c, 2, 64, 0
6, 10259, Note_on_c, 2, 60, 0
6, 10440, Note_on_c, 2, 64, 88
6, 10440, Note_on_c, 2, 60, 90
6, 10440, Note_on_c, 2, 67, 90
6, 10499, Note_on_c, 2, 67, 0
6, 10499, Note_on_c, 2, 60, 0
6, 10499, Note_on_c, 2, 64, 0
6, 10680, Note_on_c, 2, 65, 90
6, 10680, Note_on_c, 2, 72, 94
6, 10680, Note_on_c, 2, 69, 90
6, 10739, Note_on_c, 2, 69, 0
6, 10739, Note_on_c, 2, 72, 0
6, 10739, Note_on_c, 2, 65, 0
6, 10920, Note_on_c, 2, 69, 90
6, 10920, Note_on_c, 2, 65, 89
6, 10920, Note_on_c, 2, 72, 89
6, 10979, Note_on_c, 2, 72, 0
6, 10979, Note_on_c, 2, 65, 0
6, 10979, Note_on_c, 2, 69, 0
6, 11160, Note_on_c, 2, 72, 94
6, 11160, Note_on_c, 2, 69, 90
6, 11160, Note_on_c, 2, 65, 90
6, 11219, Note_on_c, 2, 65, 0
6, 11219, Note_on_c, 2, 69, 0
6, 11219, Note_on_c, 2, 72, 0
6, 11400, Note_on_c, 2, 72, 86
6, 11400, Note_on_c, 2, 65, 89
6, 11400, Note_on_c, 2, 69, 88
6, 11459, Note_on_c, 2, 69, 0
6, 11459, Note_on_c, 2, 65, 0
6, 11459, Note_on_c, 2, 72, 0
6, 11640, Note_on_c, 2, 64, 87
6, 11640, Note_on_c, 2, 72, 88
6, 11640, Note_on_c, 2, 69, 93
6, 11699, Note_on_c, 2, 69, 0
6, 11699, Note_on_c, 2, 72, 0
6, 11699, Note_on_c, 2, 64, 0
6, 11880, Note_on_c, 2, 72, 94
6, 11880, Note_on_c, 2, 64, 93
6, 11880, Note_on_c, 2, 69, 90
6, 11939, Note_on_c, 2, 69, 0
6, 11939, Note_on_c, 2, 64, 0
6, 11939, Note_on_c, 2, 72, 0
6, 12120, Note_on_c, 2, 64, 86
6, 12120, Note_on_c, 2, 69, 89
6, 12120, Note_on_c, 2, 72, 94
6, 12179, Note_on_c, 2, 72, 0
6, 12179, Note_on_c, 2, 69, 0
6, 12179, Note_on_c, 2, 64, 0
6, 12360, Note_on_c, 2, 72, 87
6, 12360, Note_on_c, 2, 64, 89
6, 12360, Note_on_c, 2, 69, 87
6, 12419, Note_on_c, 2, 69, 0
6, 12419, Note_on_c, 2, 64, 0
6, 12419, Note_on_c, 2, 72, 0
6, 12600, Note_on_c, 2, 62, 92
6, 12600, Note_on_c, 2, 65, 88
6, 12600, Note_on_c, 2, 69, 89
6, 12659, Note_on_c, 2, 69, 0
6, 12659, Note_on_c, 2, 65, 0
6, 12659, Note_on_c, 2, 62, 0
6, 12840, Note_on_c, 2, 69, 90
6, 12840, Note_on_c, 2, 65, 86
6, 12840, Note_on_c, 2, 62, 87
6, 12899, Note_on_c, 2, 62, 0
6, 12899, Note_on_c, 2, 65, 0
6, 12899, Note_on_c, 2, 69, 0
6, 13080, Note_on_c, 2, 62, 93
6, 13080, Note_on_c, 2, 65, 89
6, 13080, Note_on_c, 2, 69, 91
6, 13139, Note_on_c, 2, 69, 0
6, 13139, Note_on_c, 2, 65, 0
6, 13139, Note_on_c, 2, 62, 0
6, 13320, Note_on_c, 2, 69, 94
6, 13320, Note_on_c, 2, 65, 94
6, 13320, Note_on_c, 2, 62, 91
6, 13379, Note_on_c, 2, 62, 0
6, 13379, Note_on_c, 2, 65, 0
6, 13379, Note_on_c, 2, 69, 0
6, 13560, Note_on_c, 2, 65, 86
6, 13560, Note_on_c, 2, 61, 91
6, 13560, Note_on_c, 2, 70, 92
6, 13619, Note_on_c, 2, 70, 0
6, 13619, Note_on_c, 2, 61, 0
6, 13619, Note_on_c, 2, 65, 0
6, 13800, Note_on_c, 2, 65, 87
6, 13800, Note_on_c, 2, 70, 91
6, 13800, Note_on_c, 2, 61, 86
6, 13859, Note_on_c, 2, 61, 0
6, 13859, Note_on_c, 2, 70, 0
6, 13859, Note_on_c, 2, 65, 0
6, 14040, Note_on_c, 2, 60, 91
6, 14040, Note_on_c, 2, 64, 94
6, 14040, Note_on_c, 2, 67, 90
6, 14099, Note_on_c, 2, 67, 0
6, 14099, Note_on_c, 2, 64, 0
6, 14099, Note_on_c, 2, 60, 0
6, 14280, Note_on_c, 2, 64, 90
6, 14280, Note_on_c, 2, 60, 93
6, 14280, Note_on_c, 2, 67, 93
6, 14339, Note_on_c, 2, 67, 0
6, 14339, Note_on_c, 2, 60, 0
6, 14339, Note_on_c, 2, 64, 0
6, 14520, Note_on_c, 2, 65, 93
6, 14520, Note_on_c, 2, 70, 90
6, 14520, Note_on_c, 2, 62, 90
6, 14579, Note_on_c, 2, 62, 0
6, 14579, Note_on_c, 2, 70, 0
6, 14579, Note_on_c, 2, 65, 0
6, 14760, Note_on_c, 2, 65, 94
6, 14760, Note_on_c, 2, 70, 91
6, 14760, Note_on_c, 2, 62, 92
6, 14819, Note_on_c, 2, 62, 0
6, 14819, Note_on_c, 2, 70, 0
6, 14819, Note_on_c, 2, 65, 0
6, 15000, Note_on_c, 2, 67, 94
6, 15000, Note_on_c, 2, 64, 93
6, 15000, Note_on_c, 2, 72, 90
6, 15059, Note_on_c, 2, 72, 0
6, 15059, Note_on_c, 2, 64, 0
6, 15059, Note_on_c, 2, 67, 0
6, 15240, Note_on_c, 2, 64, 90
6, 15240, Note_on_c, 2, 67, 90
6, 15240, Note_on_c, 2, 72, 91
6, 15299, Note_on_c, 2, 72, 0
6, 15299, Note_on_c, 2, 67, 0
6, 15299, Note_on_c, 2, 64, 0
6, 15480, Note_on_c, 2, 65, 90
6, 15480, Note_on_c, 2, 70, 93
6, 15480, Note_on_c, 2, 62, 87
6, 15539, Note_on_c, 2, 62, 0
6, 15539, Note_on_c, 2, 70, 0
6, 15539, Note_on_c, 2, 65, 0
6, 15720, Note_on_c, 2, 65, 89
6, 15720, Note_on_c, 2, 70, 93
6, 15720, Note_on_c, 2, 62, 94
6, 15779, Note_on_c, 2, 62, 0
6, 15779, Note_on_c, 2, 70, 0
6, 15779, Note_on_c, 2, 65, 0
6, 15960, Note_on_c, 2, 67, 91
6, 15960, Note_on_c, 2, 64, 88
6, 15960, Note_on_c, 2, 72, 94
6, 16019, Note_on_c, 2, 72, 0
6, 16019, Note_on_c, 2, 64, 0
6, 16019, Note_on_c, 2, 67, 0
6, 16200, Note_on_c, 2, 64, 90
6, 16200, Note_on_c, 2, 67, 90
6, 16200, Note_on_c, 2, 72, 88
6, 16259, Note_on_c, 2, 72, 0
6, 16259, Note_on_c, 2, 67, 0
6, 16259, Note_on_c, 2, 64, 0
6, 16320, Note_on_c, 2, 72, 90
6, 16320, Note_on_c, 2, 67, 87
6, 16320, Note_on_c, 2, 64, 92
6, 16394, Note_on_c, 2, 64, 0
6, 16394, Note_on_c, 2, 67, 0
6, 16394, Note_on_c, 2, 72, 0
6, 17400, Note_on_c, 2, 65, 91
6, 17400, Note_on_c, 2, 72, 92
6, 17400, Note_on_c, 2, 69, 89
6, 17459, Note_on_c, 2, 69, 0
6, 17459, Note_on_c, 2, 72, 0
6, 17459, Note_on_c, 2, 65, 0
6, 17640, Note_on_c, 2, 69, 87
6, 17640, Note_on_c, 2, 65, 89
6, 17640, Note_on_c, 2, 72, 89
6, 17699, Note_on_c, 2, 72, 0
6, 17699, Note_on_c, 2, 65, 0
6, 17699, Note_on_c, 2, 69, 0
6, 17880, Note_on_c, 2, 72, 94
6, 17880, Note_on_c, 2, 69, 94
6, 17880, Note_on_c, 2, 65, 89
6, 17939, Note_on_c, 2, 65, 0
6, 17939, Note_on_c, 2, 69, 0
6, 17939, Note_on_c, 2, 72, 0
6, 18120, Note_on_c, 2, 72, 90
6, 18120, Note_on_c, 2, 65, 92
6, 18120, Note_on_c, 2, 69, 91
6, 18179, Note_on_c, 2, 69, 0
6, 18179, Note_on_c, 2, 65, 0
6, 18179, Note_on_c, 2, 72, 0
6, 18360, Note_on_c, 2, 64, 94
6, 18360, Note_on_c, 2, 72, 91
6, 18360, Note_on_c, 2, 69, 90
6, 18419, Note_on_c, 2, 69, 0
6, 18419, Note_on_c, 2, 72, 0
6, 18419, Note_on_c, 2, 64, 0
6, 18600, Note_on_c, 2, 72, 91
6, 18600, Note_on_c, 2, 64, 89
6, 18600, Note_on_c, 2, 69, 87
6, 18659, Note_on_c, 2, 69, 0
6, 18659, Note_on_c, 2, 64, 0
6, 18659, Note_on_c, 2, 72, 0
6, 18840, Note_on_c, 2, 64, 91
6, 18840, Note_on_c, 2, 69, 90
6, 18840, Note_on_c, 2, 72, 87
6, 18899, Note_on_c, 2, 72, 0
6, 18899, Note_on_c, 2, 69, 0
6, 18899, Note_on_c, 2, 64, 0
6, 19080, Note_on_c, 2, 72, 94
6, 19080, Note_on_c, 2, 64, 86
6, 19080, Note_on_c, 2, 69, 90
6, 19139, Note_on_c, 2, 69, 0
6, 19139, Note_on_c, 2, 64, 0
6, 19139, Note_on_c, 2, 72, 0
6, 19320, Note_on_c, 2, 69, 90
6, 19320, Note_on_c, 2, 72, 86
6, 19320, Note_on_c, 2, 63, 91
6, 19379, Note_on_c, 2, 63, 0
6, 19379, Note_on_c, 2, 72, 0
6, 19379, Note_on_c, 2, 69, 0
6, 19560, Note_on_c, 2, 72, 90
6, 19560, Note_on_c, 2, 69, 91
6, 19560, Note_on_c, 2, 63, 88
6, 19619, Note_on_c, 2, 63, 0
6, 19619, Note_on_c, 2, 69, 0
6, 19619, Note_on_c, 2, 72, 0
6, 19800, Note_on_c, 2, 69, 88
6, 19800, Note_on_c, 2, 72, 94
6, 19800, Note_on_c, 2, 63, 94
6, 19859, Note_on_c, 2, 63, 0
6, 19859, Note_on_c, 2, 72, 0
6, 19859, Note_on_c, 2, 69, 0
6, 20040, Note_on_c, 2, 72, 93
6, 20040, Note_on_c, 2, 69, 92
6, 20040, Note_on_c, 2, 63, 86
6, 20099, Note_on_c, 2, 63, 0
6, 20099, Note_on_c, 2, 69, 0
6, 20099, Note_on_c, 2, 72, 0
6, 20280, Note_on_c, 2, 69, 93
6, 20280, Note_on_c, 2, 62, 87
6, 20280, Note_on_c, 2, 65, 91
6, 20339, Note_on_c, 2, 65, 0
6, 20339, Note_on_c, 2, 62, 0
6, 20339, Note_on_c, 2, 69, 0
6, 20520, Note_on_c, 2, 69, 94
6, 20520, Note_on_c, 2, 65, 92
6, 20520, Note_on_c, 2, 62, 87
6, 20579, Note_on_c, 2, 62, 0
6, 20579, Note_on_c, 2, 65, 0
6, 20579, Note_on_c, 2, 69, 0
6, 20760, Note_on_c, 2, 62, 87
6, 20760, Note_on_c, 2, 65, 92
6, 20760, Note_on_c, 2, 70, 90
6, 20819, Note_on_c, 2, 70, 0
6, 20819, Note_on_c, 2, 65, 0
6, 20819, Note_on_c, 2, 62, 0
6, 21000, Note_on_c, 2, 72, 93
6, 21000, Note_on_c, 2, 67, 94
6, 21000, Note_on_c, 2, 64, 90
6, 21059, Note_on_c, 2, 64, 0
6, 21059, Note_on_c, 2, 67, 0
6, 21059, Note_on_c, 2, 72, 0
6, 21240, Note_on_c, 2, 65, 87
6, 21240, Note_on_c, 2, 72, 87
6, 21240, Note_on_c, 2, 69, 90
6, 21299, Note_on_c, 2, 69, 0
6, 21299, Note_on_c, 2, 72, 0
6, 21299, Note_on_c, 2, 65, 0
6, 21480, Note_on_c, 2, 69, 90
6, 21480, Note_on_c, 2, 65, 86
6, 21480, Note_on_c, 2, 72, 87
6, 21539, Note_on_c, 2, 72, 0
6, 21539, Note_on_c, 2, 65, 0
6, 21539, Note_on_c, 2, 69, 0
6, 21720, Note_on_c, 2, 72, 91
6, 21720, Note_on_c, 2, 69, 89
6, 21720, Note_on_c, 2, 65, 94
6, 21779, Note_on_c, 2, 65, 0
6, 21779, Note_on_c, 2, 69, 0
6, 21779, Note_on_c, 2, 72, 0
6, 21960, Note_on_c, 2, 72, 91
6, 21960, Note_on_c, 2, 65, 92
6, 21960, Note_on_c, 2, 69, 91
6, 22019, Note_on_c, 2, 69, 0
6, 22019, Note_on_c, 2, 65, 0
6, 22019, Note_on_c, 2, 72, 0
6, 22200, Note_on_c, 2, 64, 93
6, 22200, Note_on_c, 2, 72, 86
6, 22200, Note_on_c, 2, 69, 87
6, 22259, Note_on_c, 2, 69, 0
6, 22259, Note_on_c, 2, 72, 0
6, 22259, Note_on_c, 2, 64, 0
6, 22440, Note_on_c, 2, 72, 93
6, 22440, Note_on_c, 2, 64, 92
6, 22440, Note_on_c, 2, 69, 91
6, 22499, Note_on_c, 2, 69, 0
6, 22499, Note_on_c, 2, 64, 0
6, 22499, Note_on_c, 2, 72, 0
6, 22680, Note_on_c, 2, 64, 94
6, 22680, Note_on_c, 2, 69, 86
6, 22680, Note_on_c, 2, 72, 93
6, 22739, Note_on_c, 2, 72, 0
6, 22739, Note_on_c, 2, 69, 0
6, 22739, Note_on_c, 2, 64, 0
6, 22920, Note_on_c, 2, 72, 89
6, 22920, Note_on_c, 2, 64, 91
6, 22920, Note_on_c, 2, 69, 92
6, 22979, Note_on_c, 2, 69, 0
6, 22979, Note_on_c, 2, 64, 0
6, 22979, Note_on_c, 2, 72, 0
6, 23160, Note_on_c, 2, 69, 86
6, 23160, Note_on_c, 2, 72, 93
6, 23160, Note_on_c, 2, 63, 88
6, 23219, Note_on_c, 2, 63, 0
6, 23219, Note_on_c, 2, 72, 0
6, 23219, Note_on_c, 2, 69, 0
6, 23400, Note_on_c, 2, 72, 88
6, 23400, Note_on_c, 2, 69, 90
6, 23400, Note_on_c, 2, 63, 88
6, 23459, Note_on_c, 2, 63, 0
6, 23459, Note_on_c, 2, 69, 0
6, 23459, Note_on_c, 2, 72, 0
6, 23640, Note_on_c, 2, 69, 88
6, 23640, Note_on_c, 2, 72, 93
6, 23640, Note_on_c, 2, 63, 93
6, 23699, Note_on_c, 2, 63, 0
6, 23699, Note_on_c, 2, 72, 0
6, 23699, Note_on_c, 2, 69, 0
6, 23880, Note_on_c, 2, 72, 94
6, 23880, Note_on_c, 2, 69, 91
6, 23880, Note_on_c, 2, 63, 88
6, 23939, Note_on_c, 2, 63, 0
6, 23939, Note_on_c, 2, 69, 0
6, 23939, Note_on_c, 2, 72, 0
6, 24120, Note_on_c, 2, 69, 93
6, 24120, Note_on_c, 2, 62, 91
6, 24120, Note_on_c, 2, 65, 93
6, 24179, Note_on_c, 2, 65, 0
6, 24179, Note_on_c, 2, 62, 0
6, 24179, Note_on_c, 2, 69, 0
6, 24360, Note_on_c, 2, 69, 88
6, 24360, Note_on_c, 2, 65, 92
6, 24360, Note_on_c, 2, 62, 94
6, 24419, Note_on_c, 2, 62, 0
6, 24419, Note_on_c, 2, 65, 0
6, 24419, Note_on_c, 2, 69, 0
6, 24600, Note_on_c, 2, 62, 89
6, 24600, Note_on_c, 2, 65, 86
6, 24600, Note_on_c, 2, 70, 91
6, 24659, Note_on_c, 2, 70, 0
6, 24659, Note_on_c, 2, 65, 0
6, 24659, Note_on_c, 2, 62, 0
6, 24840, Note_on_c, 2, 72, 94
6, 24840, Note_on_c, 2, 67, 86
6, 24840, Note_on_c, 2, 64, 89
6, 24899, Note_on_c, 2, 64, 0
6, 24899, Note_on_c, 2, 67, 0
6, 24899, Note_on_c, 2, 72, 0
6, 25080, Note_on_c, 2, 65, 93
6, 25080, Note_on_c, 2, 72, 90
6, 25080, Note_on_c, 2, 69, 94
6, 25139, Note_on_c, 2, 69, 0
6, 25139, Note_on_c, 2, 72, 0
6, 25139, Note_on_c, 2, 65, 0
6, 25320, Note_on_c, 2, 69, 88
6, 25320, Note_on_c, 2, 65, 87
6, 25320, Note_on_c, 2, 72, 93
6, 25379, Note_on_c, 2, 72, 0
6, 25379, Note_on_c, 2, 65, 0
6, 25379, Note_on_c, 2, 69, 0
6, 25560, Note_on_c, 2, 72, 90
6, 25560, Note_on_c, 2, 69, 86
6, 25560, Note_on_c, 2, 65, 89
6, 25619, Note_on_c, 2, 65, 0
6, 25619, Note_on_c, 2, 69, 0
6, 25619, Note_on_c, 2, 72, 0
6, 25800, Note_on_c, 2, 72, 88
6, 25800, Note_on_c, 2, 65, 87
6, 25800, Note_on_c, 2, 69, 90
6, 25859, Note_on_c, 2, 69, 0
6, 25859, Note_on_c, 2, 65, 0
6, 25859, Note_on_c, 2, 72, 0
6, 26040, Note_on_c, 2, 64, 91
6, 26040, Note_on_c, 2, 72, 91
6, 26040, Note_on_c, 2, 69, 87
6, 26099, Note_on_c, 2, 69, 0
6, 26099, Note_on_c, 2, 72, 0
6, 26099, Note_on_c, 2, 64, 0
6, 26280, Note_on_c, 2, 72, 88
6, 26280, Note_on_c, 2, 64, 88
6, 26280, Note_on_c, 2, 69, 92
6, 26339, Note_on_c, 2, 69, 0
6, 26339, Note_on_c, 2, 64, 0
6, 26339, Note_on_c, 2, 72, 0
6, 26520, Note_on_c, 2, 64, 86
6, 26520, Note_on_c, 2, 69, 89
6, 26520, Note_on_c, 2, 72, 86
6, 26579, Note_on_c, 2, 72, 0
6, 26579, Note_on_c, 2, 69, 0
6, 26579, Note_on_c, 2, 64, 0
6, 26760, Note_on_c, 2, 72, 88
6, 26760, Note_on_c, 2, 64, 94
6, 26760, Note_on_c, 2, 69, 86
6, 26819, Note_on_c, 2, 69, 0
6, 26819, Note_on_c, 2, 64, 0
6, 26819, Note_on_c, 2, 72, 0
6, 27000, Note_on_c, 2, 62, 89
6, 27000, Note_on_c, 2, 65, 88
6, 27000, Note_on_c, 2, 69, 91
6, 27059, Note_on_c, 2, 69, 0
6, 27059, Note_on_c, 2, 65, 0
6, 27059, Note_on_c, 2, 62, 0
6, 27240, Note_on_c, 2, 69, 87
6, 27240, Note_on_c, 2, 65, 87
6, 27240, Note_on_c, 2, 62, 92
6, 27299, Note_on_c, 2, 62, 0
6, 27299, Note_on_c, 2, 65, 0
6, 27299, Note_on_c, 2, 69, 0
6, 27480, Note_on_c, 2, 62, 89
6, 27480, Note_on_c, 2, 65, 87
6, 27480, Note_on_c, 2, 69, 91
6, 27539, Note_on_c, 2, 69, 0
6, 27539, Note_on_c, 2, 65, 0
6, 27539, Note_on_c, 2, 62, 0
6, 27720, Note_on_c, 2, 69, 93
6, 27720, Note_on_c, 2, 65, 94
6, 27720, Note_on_c, 2, 62, 90
6, 27779, Note_on_c, 2, 62, 0
6, 27779, Note_on_c, 2, 65, 0
6, 27779, Note_on_c, 2, 69, 0
6, 27960, Note_on_c, 2, 65, 90
6, 27960, Note_on_c, 2, 61, 86
6, 27960, Note_on_c, 2, 70, 88
6, 28019, Note_on_c, 2, 70, 0
6, 28019, Note_on_c, 2, 61, 0
6, 28019, Note_on_c, 2, 65, 0
6, 28200, Note_on_c, 2, 65, 91
6, 28200, Note_on_c, 2, 70, 89
6, 28200, Note_on_c, 2, 61, 92
6, 28259, Note_on_c, 2, 61, 0
6, 28259, Note_on_c, 2, 70, 0
6, 28259, Note_on_c, 2, 65, 0
6, 28440, Note_on_c, 2, 60, 94
6, 28440, Note_on_c, 2, 64, 90
6, 28440, Note_on_c, 2, 67, 91
6, 28499, Note_on_c, 2, 67, 0
6, 28499, Note_on_c, 2, 64, 0
6, 28499, Note_on_c, 2, 60, 0
6, 28680, Note_on_c, 2, 64, 86
6, 28680, Note_on_c, 2, 60, 87
6, 28680, Note_on_c, 2, 67, 90
6, 28739, Note_on_c, 2, 67, 0
6, 28739, Note_on_c, 2, 60, 0
6, 28739, Note_on_c, 2, 64, 0
6, 28920, Note_on_c, 2, 65, 94
6, 28920, Note_on_c, 2, 72, 92
6, 28920, Note_on_c, 2, 69, 90
6, 28979, Note_on_c, 2, 69, 0
6, 28979, Note_on_c, 2, 72, 0
6, 28979, Note_on_c, 2, 65, 0
6, 29160, Note_on_c, 2, 69, 89
6, 29160, Note_on_c, 2, 65, 89
6, 29160, Note_on_c, 2, 72, 91
6, 29219, Note_on_c, 2, 72, 0
6, 29219, Note_on_c, 2, 65, 0
6, 29219, Note_on_c, 2, 69, 0
6, 29400, Note_on_c, 2, 72, 86
6, 29400, Note_on_c, 2, 69, 90
6, 29400, Note_on_c, 2, 65, 86
6, 29459, Note_on_c, 2, 65, 0
6, 29459, Note_on_c, 2, 69, 0
6, 29459, Note_on_c, 2, 72, 0
6, 29640, Note_on_c, 2, 72, 90
6, 29640, Note_on_c, 2, 65, 86
6, 29640, Note_on_c, 2, 69, 90
6, 29699, Note_on_c, 2, 69, 0
6, 29699, Note_on_c, 2, 65, 0
6, 29699, Note_on_c, 2, 72, 0
6, 29880, Note_on_c, 2, 64, 89
6, 29880, Note_on_c, 2, 72, 93
6, 29880, Note_on_c, 2, 69, 93
6, 29939, Note_on_c, 2, 69, 0
6, 29939, Note_on_c, 2, 72, 0
6, 29939, Note_on_c, 2, 64, 0
6, 30120, Note_on_c, 2, 72, 93
6, 30120, Note_on_c, 2, 64, 92
6, 30120, Note_on_c, 2, 69, 92
6, 30179, Note_on_c, 2, 69, 0
6, 30179, Note_on_c, 2, 64, 0
6, 30179, Note_on_c, 2, 72, 0
6, 30360, Note_on_c, 2, 64, 88
6, 30360, Note_on_c, 2, 69, 93
6, 30360, Note_on_c, 2, 72, 91
6, 30419, Note_on_c, 2, 72, 0
6, 30419, Note_on_c, 2, 69, 0
6, 30419, Note_on_c, 2, 64, 0
6, 30600, Note_on_c, 2, 72, 86
6, 30600, Note_on_c, 2, 64, 90
6, 30600, Note_on_c, 2, 69, 93
6, 30659, Note_on_c, 2, 69, 0
6, 30659, Note_on_c, 2, 64, 0
6, 30659, Note_on_c, 2, 72, 0
6, 30840, Note_on_c, 2, 62, 93
6, 30840, Note_on_c, 2, 65, 94
6, 30840, Note_on_c, 2, 69, 91
6, 30899, Note_on_c, 2, 69, 0
6, 30899, Note_on_c, 2, 65, 0
6, 30899, Note_on_c, 2, 62, 0
6, 31080, Note_on_c, 2, 69, 88
6, 31080, Note_on_c, 2, 65, 94
6, 31080, Note_on_c, 2, 62, 94
6, 31139, Note_on_c, 2, 62, 0
6, 31139, Note_on_c, 2, 65, 0
6, 31139, Note_on_c, 2, 69, 0
6, 31320, Note_on_c, 2, 62, 94
6, 31320, Note_on_c, 2, 65, 93
6, 31320, Note_on_c, 2, 69, 87
6, 31379, Note_on_c, 2, 69, 0
6, 31379, Note_on_c, 2, 65, 0
6, 31379, Note_on_c, 2, 62, 0
6, 31560, Note_on_c, 2, 69, 86
6, 31560, Note_on_c, 2, 65, 91
6, 31560, Note_on_c, 2, 62, 93
6, 31619, Note_on_c, 2, 62, 0
6, 31619, Note_on_c, 2, 65, 0
6, 31619, Note_on_c, 2, 69, 0
6, 31800, Note_on_c, 2, 65, 86
6, 31800, Note_on_c, 2, 61, 91
6, 31800, Note_on_c, 2, 70, 86
6, 31859, Note_on_c, 2, 70, 0
6, 31859, Note_on_c, 2, 61, 0
6, 31859, Note_on_c, 2, 65, 0
6, 32040, Note_on_c, 2, 65, 92
6, 32040, Note_on_c, 2, 70, 90
6, 32040, Note_on_c, 2, 61, 89
6, 32099, Note_on_c, 2, 61, 0
6, 32099, Note_on_c, 2, 70, 0
6, 32099, Note_on_c, 2, 65, 0
6, 32280, Note_on_c, 2, 60, 87
6, 32280, Note_on_c, 2, 64, 94
6, 32280, Note_on_c, 2, 67, 86
6, 32339, Note_on_c, 2, 67, 0
6, 32339, Note_on_c, 2, 64, 0
6, 32339, Note_on_c, 2, 60, 0
6, 32520, Note_on_c, 2, 64, 90
6, 32520, Note_on_c, 2, 60, 86
6, 32520, Note_on_c, 2, 67, 87
6, 32579, Note_on_c, 2, 67, 0
6, 32579, Note_on_c, 2, 60, 0
6, 32579, Note_on_c, 2, 64, 0
6, 32760, Note_on_c, 2, 65, 92
6, 32760, Note_on_c, 2, 70, 91
6, 32760, Note_on_c, 2, 62, 93
6, 32819, Note_on_c, 2, 62, 0
6, 32819, Note_on_c, 2, 70, 0
6, 32819, Note_on_c, 2, 65, 0
6, 33000, Note_on_c, 2, 65, 92
6, 33000, Note_on_c, 2, 70, 88
6, 33000, Note_on_c, 2, 62, 90
6, 33059, Note_on_c, 2, 62, 0
6, 33059, Note_on_c, 2, 70, 0
6, 33059, Note_on_c, 2, 65, 0
6, 33240, Note_on_c, 2, 67, 94
6, 33240, Note_on_c, 2, 64, 87
6, 33240, Note_on_c, 2, 72, 91
6, 33299, Note_on_c, 2, 72, 0
6, 33299, Note_on_c, 2, 64, 0
6, 33299, Note_on_c, 2, 67, 0
6, 33480, Note_on_c, 2, 64, 87
6, 33480, Note_on_c, 2, 67, 87
6, 33480, Note_on_c, 2, 72, 88
6, 33539, Note_on_c, 2, 72, 0
6, 33539, Note_on_c, 2, 67, 0
6, 33539, Note_on_c, 2, 64, 0
6, 33720, Note_on_c, 2, 65, 88
6, 33720, Note_on_c, 2, 70, 92
6, 33720, Note_on_c, 2, 62, 92
6, 33779, Note_on_c, 2, 62, 0
6, 33779, Note_on_c, 2, 70, 0
6, 33779, Note_on_c, 2, 65, 0
6, 33960, Note_on_c, 2, 65, 89
6, 33960, Note_on_c, 2, 70, 90
6, 33960, Note_on_c, 2, 62, 90
6, 34019, Note_on_c, 2, 62, 0
6, 34019, Note_on_c, 2, 70, 0
6, 34019, Note_on_c, 2, 65, 0
6, 34200, Note_on_c, 2, 67, 90
6, 34200, Note_on_c, 2, 64, 91
6, 34200, Note_on_c, 2, 72, 92
6, 34259, Note_on_c, 2, 72, 0
6, 34259, Note_on_c, 2, 64, 0
6, 34259, Note_on_c, 2, 67, 0
6, 34440, Note_on_c, 2, 64, 86
6, 34440, Note_on_c, 2, 67, 91
6, 34440, Note_on_c, 2, 72, 94
6, 34499, Note_on_c, 2, 72, 0
6, 34499, Note_on_c, 2, 67, 0
6, 34499, Note_on_c, 2, 64, 0
6, 34560, Note_on_c, 2, 72, 86
6, 34560, Note_on_c, 2, 67, 90
6, 34560, Note_on_c, 2, 64, 93
6, 34634, Note_on_c, 2, 64, 0
6, 34634, Note_on_c, 2, 67, 0
6, 34634, Note_on_c, 2, 72, 0
6, 35640, Note_on_c, 2, 65, 90
6, 35640, Note_on_c, 2, 72, 93
6, 35640, Note_on_c, 2, 69, 92
6, 35699, Note_on_c, 2, 69, 0
6, 35699, Note_on_c, 2, 72, 0
6, 35699, Note_on_c, 2, 65, 0
6, 35880, Note_on_c, 2, 69, 88
6, 35880, Note_on_c, 2, 65, 89
6, 35880, Note_on_c, 2, 72, 87
6, 35939, Note_on_c, 2, 72, 0
6, 35939, Note_on_c, 2, 65, 0
6, 35939, Note_on_c, 2, 69, 0
6, 36120, Note_on_c, 2, 72, 93
6, 36120, Note_on_c, 2, 69, 86
6, 36120, Note_on_c, 2, 65, 90
6, 36179, Note_on_c, 2, 65, 0
6, 36179, Note_on_c, 2, 69, 0
6, 36179, Note_on_c, 2, 72, 0
6, 36360, Note_on_c, 2, 72, 91
6, 36360, Note_on_c, 2, 65, 94
6, 36360, Note_on_c, 2, 69, 94
6, 36419, Note_on_c, 2, 69, 0
6, 36419, Note_on_c, 2, 65, 0
6, 36419, Note_on_c, 2, 72, 0
6, 36600, Note_on_c, 2, 64, 91
6, 36600, Note_on_c, 2, 72, 88
6, 36600, Note_on_c, 2, 69, 89
6, 36659, Note_on_c, 2, 69, 0
6, 36659, Note_on_c, 2, 72, 0
6, 36659, Note_on_c, 2, 64, 0
6, 36840, Note_on_c, 2, 72, 89
6, 36840, Note_on_c, 2, 64, 92
6, 36840, Note_on_c, 2, 69, 92
6, 36899, Note_on_c, 2, 69, 0
6, 36899, Note_on_c, 2, 64, 0
6, 36899, Note_on_c, 2, 72, 0
6, 37080, Note_on_c, 2, 64, 94
6, 37080, Note_on_c, 2, 69, 92
6, 37080, Note_on_c, 2, 72, 89
6, 37139, Note_on_c, 2, 72, 0
6, 37139, Note_on_c, 2, 69, 0
6, 37139, Note_on_c, 2, 64, 0
6, 37320, Note_on_c, 2, 72, 93
6, 37320, Note_on_c, 2, 64, 92
6, 37320, Note_on_c, 2, 69, 90
6, 37379, Note_on_c, 2, 69, 0
6, 37379, Note_on_c, 2, 64, 0
6, 37379, Note_on_c, 2, 72, 0
6, 37560, Note_on_c, 2, 69, 94
6, 37560, Note_on_c, 2, 72, 87
6, 37560, Note_on_c, 2, 63, 86
6, 37619, Note_on_c, 2, 63, 0
6, 37619, Note_on_c, 2, 72, 0
6, 37619, Note_on_c, 2, 69, 0
6, 37800, Note_on_c, 2, 72, 93
6, 37800, Note_on_c, 2, 69, 91
6, 37800, Note_on_c, 2, 63, 88
6, 37859, Note_on_c, 2, 63, 0
6, 37859, Note_on_c, 2, 69, 0
6, 37859, Note_on_c, 2, 72, 0
6, 38040, Note_on_c, 2, 69, 87
6, 38040, Note_on_c, 2, 72, 91
6, 38040, Note_on_c, 2, 63, 90
6, 38099, Note_on_c, 2, 63, 0
6, 38099, Note_on_c, 2, 72, 0
6, 38099, Note_on_c, 2, 69, 0
6, 38280, Note_on_c, 2, 72, 86
6, 38280, Note_on_c, 2, 69, 92
6, 38280, Note_on_c, 2, 63, 88
6, 38339, Note_on_c, 2, 63, 0
6, 38339, Note_on_c, 2, 69, 0
6, 38339, Note_on_c, 2, 72, 0
6, 38520, Note_on_c, 2, 69, 88
6, 38520, Note_on_c, 2, 62, 94
6, 38520, Note_on_c, 2, 65, 93
6, 38579, Note_on_c, 2, 65, 0
6, 38579, Note_on_c, 2, 62, 0
6, 38579, Note_on_c, 2, 69, 0
6, 38760, Note_on_c, 2, 69, 93
6, 38760, Note_on_c, 2, 65, 90
6, 38760, Note_on_c, 2, 62, 93
6, 38819, Note_on_c, 2, 62, 0
6, 38819, Note_on_c, 2, 65, 0
6, 38819, Note_on_c, 2, 69, 0
6, 39000, Note_on_c, 2, 62, 86
6, 39000, Note_on_c, 2, 65, 92
6, 39000, Note_on_c, 2, 70, 92
6, 39059, Note_on_c, 2, 70, 0
6, 39059, Note_on_c, 2, 65, 0
6, 39059, Note_on_c, 2, 62, 0
6, 39240, Note_on_c, 2, 72, 86
6, 39240, Note_on_c, 2, 67, 91
6, 39240, Note_on_c, 2, 64, 87
6, 39299, Note_on_c, 2, 64, 0
6, 39299, Note_on_c, 2, 67, 0
6, 39299, Note_on_c, 2, 72, 0
6, 39480, Note_on_c, 2, 65, 92
6, 39480, Note_on_c, 2, 72, 87
6, 39480, Note_on_c, 2, 69, 92
6, 39539, Note_on_c, 2, 69, 0
6, 39539, Note_on_c, 2, 72, 0
6, 39539, Note_on_c, 2, 65, 0
6, 39720, Note_on_c, 2, 69, 87
6, 39720, Note_on_c, 2, 65, 87
6, 39720, Note_on_c, 2, 72, 92
6, 39779, Note_on_c, 2, 72, 0
6, 39779, Note_on_c, 2, 65, 0
6, 39779, Note_on_c, 2, 69, 0
6, 39960, Note_on_c, 2, 72, 93
6, 39960, Note_on_c, 2, 69, 94
6, 39960, Note_on_c, 2, 65, 86
6, 40019, Note_on_c, 2, 65, 0
6, 40019, Note_on_c, 2, 69, 0
6, 40019, Note_on_c, 2, 72, 0
6, 40200, Note_on_c, 2, 72, 91
6, 40200, Note_on_c, 2, 65, 86
6, 40200, Note_on_c, 2, 69, 94
6, 40259, Note_on_c, 2, 69, 0
6, 40259, Note_on_c, 2, 65, 0
6, 40259, Note_on_c, 2, 72, 0
6, 40440, Note_on_c, 2, 64, 86
6, 40440, Note_on_c, 2, 72, 91
6, 40440, Note_on_c, 2, 69, 90
6, 40499, Note_on_c, 2, 69, 0
6, 40499, Note_on_c, 2, 72, 0
6, 40499, Note_on_c, 2, 64, 0
6, 40680, Note_on_c, 2, 72, 86
6, 40680, Note_on_c, 2, 64, 90
6, 40680, Note_on_c, 2, 69, 92
6, 40739, Note_on_c, 2, 69, 0
6, 40739, Note_on_c, 2, 64, 0
6, 40739, Note_on_c, 2, 72, 0
6, 40920, Note_on_c, 2, 64, 93
6, 40920, Note_on_c, 2, 69, 89
6, 40920, Note_on_c, 2, 72, 93
6, 40979, Note_on_c, 2, 72, 0
6, 40979, Note_on_c, 2, 69, 0
6, 40979, Note_on_c, 2, 64, 0
6, 41160, Note_on_c, 2, 72, 86
6, 41160, Note_on_c, 2, 64, 92
6, 41160, Note_on_c, 2, 69, 90
6, 41219, Note_on_c, 2, 69, 0
6, 41219, Note_on_c, 2, 64, 0
6, 41219, Note_on_c, 2, 72, 0
6, 41400, Note_on_c, 2, 69, 90
6, 41400, Note_on_c, 2, 72, 90
6, 41400, Note_on_c, 2, 63, 88
6, 41459, Note_on_c, 2, 63, 0
6, 41459, Note_on_c, 2, 72, 0
6, 41459, Note_on_c, 2, 69, 0
6, 41640, Note_on_c, 2, 72, 87
6, 41640, Note_on_c, 2, 69, 89
6, 41640, Note_on_c, 2, 63, 89
6, 41699, Note_on_c, 2, 63, 0
6, 41699, Note_on_c, 2, 69, 0
6, 41699, Note_on_c, 2, 72, 0
6, 41880, Note_on_c, 2, 69, 93
6, 41880, Note_on_c, 2, 72, 86
6, 41880, Note_on_c, 2, 63, 90
6, 41939, Note_on_c, 2, 63, 0
6, 41939, Note_on_c, 2, 72, 0
6, 41939, Note_on_c, 2, 69, 0
6, 42120, Note_on_c, 2, 72, 94
6, 42120, Note_on_c, 2, 69, 90
6, 42120, Note_on_c, 2, 63, 94
6, 42179, Note_on_c, 2, 63, 0
6, 42179, Note_on_c, 2, 69, 0
6, 42179, Note_on_c, 2, 72, 0
6, 42360, Note_on_c, 2, 69, 87
6, 42360, Note_on_c, 2, 62, 90
6, 42360, Note_on_c, 2, 65, 93
6, 42419, Note_on_c, 2, 65, 0
6, 42419, Note_on_c, 2, 62, 0
6, 42419, Note_on_c, 2, 69, 0
6, 42600, Note_on_c, 2, 69, 93
6, 42600, Note_on_c, 2, 65, 94
6, 42600, Note_on_c, 2, 62, 89
6, 42659, Note_on_c, 2, 62, 0
6, 42659, Note_on_c, 2, 65, 0
6, 42659, Note_on_c, 2, 69, 0
6, 42840, Note_on_c, 2, 62, 87
6, 42840, Note_on_c, 2, 65, 90
6, 42840, Note_on_c, 2, 70, 88
6, 42899, Note_on_c, 2, 70, 0
6, 42899, Note_on_c, 2, 65, 0
6, 42899, Note_on_c, 2, 62, 0
6, 43080, Note_on_c, 2, 72, 92
6, 43080, Note_on_c, 2, 67, 86
6, 43080, Note_on_c, 2, 64, 93
6, 43139, Note_on_c, 2, 64, 0
6, 43139, Note_on_c, 2, 67, 0
6, 43139, Note_on_c, 2, 72, 0
6, 43320, Note_on_c, 2, 69, 90
6, 43320, Note_on_c, 2, 64, 87
6, 43320, Note_on_c, 2, 72, 88
6, 43379, Note_on_c, 2, 72, 0
6, 43379, Note_on_c, 2, 64, 0
6, 43379, Note_on_c, 2, 69, 0
6, 43560, Note_on_c, 2, 69, 88
6, 43560, Note_on_c, 2, 72, 88
6, 43560, Note_on_c, 2, 64, 88
6, 43619, Note_on_c, 2, 64, 0
6, 43619, Note_on_c, 2, 72, 0
6, 43619, Note_on_c, 2, 69, 0
6, 43800, Note_on_c, 2, 69, 88
6, 43800, Note_on_c, 2, 64, 90
6, 43800, Note_on_c, 2, 72, 86
6, 43859, Note_on_c, 2, 72, 0
6, 43859, Note_on_c, 2, 64, 0
6, 43859, Note_on_c, 2, 69, 0
6, 44040, Note_on_c, 2, 69, 87
6, 44040, Note_on_c, 2, 72, 88
6, 44040, Note_on_c, 2, 64, 92
6, 44099, Note_on_c, 2, 64, 0
6, 44099, Note_on_c, 2, 72, 0
6, 44099, Note_on_c, 2, 69, 0
6, 44280, Note_on_c, 2, 70, 86
6, 44280, Note_on_c, 2, 74, 92
6, 44280, Note_on_c, 2, 67, 86
6, 44339, Note_on_c, 2, 67, 0
6, 44339, Note_on_c, 2, 74, 0
6, 44339, Note_on_c, 2, 70, 0
6, 44520, Note_on_c, 2, 70, 90
6, 44520, Note_on_c, 2, 67, 92
6, 44520, Note_on_c, 2, 74, 88
6, 44579, Note_on_c, 2, 74, 0
6, 44579, Note_on_c, 2, 67, 0
6, 44579, Note_on_c, 2, 70, 0
6, 44760, Note_on_c, 2, 70, 91
6, 44760, Note_on_c, 2, 74, 91
6, 44760, Note_on_c, 2, 67, 92
6, 44819, Note_on_c, 2, 67, 0
6, 44819, Note_on_c, 2, 74, 0
6, 44819, Note_on_c, 2, 70, 0
6, 45000, Note_on_c, 2, 70, 90
6, 45000, Note_on_c, 2, 67, 91
6, 45000, Note_on_c, 2, 74, 92
6, 45059, Note_on_c, 2, 74, 0
6, 45059, Note_on_c, 2, 67, 0
6, 45059, Note_on_c, 2, 70, 0
6, 45240, Note_on_c, 2, 69, 92
6, 45240, Note_on_c, 2, 64, 93
6, 45240, Note_on_c, 2, 72, 94
6, 45299, Note_on_c, 2, 72, 0
6, 45299, Note_on_c, 2, 64, 0
6, 45299, Note_on_c, 2, 69, 0
6, 45480, Note_on_c, 2, 69, 89
6, 45480, Note_on_c, 2, 72, 91
6, 45480, Note_on_c, 2, 64, 87
6, 45539, Note_on_c, 2, 64, 0
6, 45539, Note_on_c, 2, 72, 0
6, 45539, Note_on_c, 2, 69, 0
6, 45720, Note_on_c, 2, 69, 92
6, 45720, Note_on_c, 2, 64, 87
6, 45720, Note_on_c, 2, 72, 88
6, 45779, Note_on_c, 2, 72, 0
6, 45779, Note_on_c, 2, 64, 0
6, 45779, Note_on_c, 2, 69, 0
6, 45960, Note_on_c, 2, 69, 94
6, 45960, Note_on_c, 2, 72, 90
6, 45960, Note_on_c, 2, 64, 90
6, 46019, Note_on_c, 2, 64, 0
6, 46019, Note_on_c, 2, 72, 0
6, 46019, Note_on_c, 2, 69, 0
6, 46200, Note_on_c, 2, 70, 89
6, 46200, Note_on_c, 2, 74, 89
6, 46200, Note_on_c, 2, 65, 87
6, 46259, Note_on_c, 2, 65, 0
6, 46259, Note_on_c, 2, 74, 0
6, 46259, Note_on_c, 2, 70, 0
6, 46440, Note_on_c, 2, 70, 93
6, 46440, Note_on_c, 2, 65, 87
6, 46440, Note_on_c, 2, 74, 88
6, 46499, Note_on_c, 2, 74, 0
6, 46499, Note_on_c, 2, 65, 0
6, 46499, Note_on_c, 2, 70, 0
6, 46680, Note_on_c, 2, 76, 87
6, 46680, Note_on_c, 2, 67, 89
6, 46680, Note_on_c, 2, 72, 93
6, 46739, Note_on_c, 2, 72, 0
6, 46739, Note_on_c, 2, 67, 0
6, 46739, Note_on_c, 2, 76, 0
6, 46920, Note_on_c, 2, 72, 93
6, 46920, Note_on_c, 2, 76, 86
6, 46920, Note_on_c, 2, 67, 89
6, 46979, Note_on_c, 2, 67, 0
6, 46979, Note_on_c, 2, 76, 0
6, 46979, Note_on_c, 2, 72, 0
6, 47040, Note_on_c, 2, 76, 87
6, 47040, Note_on_c, 2, 72, 89
6, 47040, Note_on_c, 2, 67, 87
6, 47099, Note_on_c, 2, 67, 0
6, 47099, Note_on_c, 2, 72, 0
6, 47099, Note_on_c, 2, 76, 0
6, 47640, Note_on_c, 2, 66, 86
6, 47640, Note_on_c, 2, 73, 88
6, 47640, Note_on_c, 2, 70, 88
6, 47699, Note_on_c, 2, 70, 0
6, 47699, Note_on_c, 2, 73, 0
6, 47699, Note_on_c, 2, 66, 0
6, 47880, Note_on_c, 2, 70, 86
6, 47880, Note_on_c, 2, 66, 93
6, 47880, Note_on_c, 2, 73, 87
6, 47939, Note_on_c, 2, 73, 0
6, 47939, Note_on_c, 2, 66, 0
6, 47939, Note_on_c, 2, 70, 0
6, 48120, Note_on_c, 2, 73, 93
6, 48120, Note_on_c, 2, 70, 89
6, 48120, Note_on_c, 2, 66, 91
6, 48179, Note_on_c, 2, 66, 0
6, 48179, Note_on_c, 2, 70, 0
6, 48179, Note_on_c, 2, 73, 0
6, 48360, Note_on_c, 2, 73, 89
6, 48360, Note_on_c, 2, 66, 87
6, 48360, Note_on_c, 2, 70, 89
6, 48419, Note_on_c, 2, 70, 0
6, 48419, Note_on_c, 2, 66, 0
6, 48419, Note_on_c, 2, 73, 0
6, 48600, Note_on_c, 2, 65, 94
6, 48600, Note_on_c, 2, 73, 92
6, 48600, Note_on_c, 2, 70, 94
6, 48659, Note_on_c, 2, 70, 0
6, 48659, Note_on_c, 2, 73, 0
6, 48659, Note_on_c, 2, 65, 0
6, 48840, Note_on_c, 2, 73, 89
6, 48840, Note_on_c, 2, 65, 88
6, 48840, Note_on_c, 2, 70, 89
6, 48899, Note_on_c, 2, 70, 0
6, 48899, Note_on_c, 2, 65, 0
6, 48899, Note_on_c, 2, 73, 0
6, 49080, Note_on_c, 2, 65, 93
6, 49080, Note_on_c, 2, 70, 87
6, 49080, Note_on_c, 2, 73, 90
6, 49139, Note_on_c, 2, 73, 0
6, 49139, Note_on_c, 2, 70, 0
6, 49139, Note_on_c, 2, 65, 0
6, 49320, Note_on_c, 2, 73, 91
6, 49320, Note_on_c, 2, 65, 90
6, 49320, Note_on_c, 2, 70, 94
6, 49379, Note_on_c, 2, 70, 0
6, 49379, Note_on_c, 2, 65, 0
6, 49379, Note_on_c, 2, 73, 0
6, 49560, Note_on_c, 2, 70, 90
6, 49560, Note_on_c, 2, 73, 89
6, 49560, Note_on_c, 2, 64, 93
6, 49619, Note_on_c, 2, 64, 0
6, 49619, Note_on_c, 2, 73, 0
6, 49619, Note_on_c, 2, 70, 0
6, 49800, Note_on_c, 2, 73, 93
6, 49800, Note_on_c, 2, 70, 92
6, 49800, Note_on_c, 2, 64, 93
6, 49859, Note_on_c, 2, 64, 0
6, 49859, Note_on_c, 2, 70, 0
6, 49859, Note_on_c, 2, 73, 0
6, 50040, Note_on_c, 2, 70, 92
6, 50040, Note_on_c, 2, 73, 92
6, 50040, Note_on_c, 2, 64, 86
6, 50099, Note_on_c, 2, 64, 0
6, 50099, Note_on_c, 2, 73, 0
6, 50099, Note_on_c, 2, 70, 0
6, 50280, Note_on_c, 2, 73, 89
6, 50280, Note_on_c, 2, 70, 94
6, 50280, Note_on_c, 2, 64, 86
6, 50339, Note_on_c, 2, 64, 0
6, 50339, Note_on_c, 2, 70, 0
6, 50339, Note_on_c, 2, 73, 0
6, 50520, Note_on_c, 2, 70, 87
6, 50520, Note_on_c, 2, 63, 92
6, 50520, Note_on_c, 2, 66, 86
6, 50579, Note_on_c, 2, 66, 0
6, 50579, Note_on_c, 2, 63, 0
6, 50579, Note_on_c, 2, 70, 0
6, 50760, Note_on_c, 2, 70, 91
6, 50760, Note_on_c, 2, 66, 91
6, 50760, Note_on_c, 2, 63, 91
6, 50819, Note_on_c, 2, 63, 0
6, 50819, Note_on_c, 2, 66, 0
6, 50819, Note_on_c, 2, 70, 0
6, 51000, Note_on_c, 2, 63, 87
6, 51000, Note_on_c, 2, 66, 89
6, 51000, Note_on_c, 2, 71, 92
6, 51059, Note_on_c, 2, 71, 0
6, 51059, Note_on_c, 2, 66, 0
6, 51059, Note_on_c, 2, 63, 0
6, 51240, Note_on_c, 2, 73, 94
6, 51240, Note_on_c, 2, 68, 94
6, 51240, Note_on_c, 2, 65, 94
6, 51299, Note_on_c, 2, 65, 0
6, 51299, Note_on_c, 2, 68, 0
6, 51299, Note_on_c, 2, 73, 0
6, 51480, Note_on_c, 2, 66, 90
6, 51480, Note_on_c, 2, 73, 86
6, 51480, Note_on_c, 2, 70, 89
6, 51539, Note_on_c, 2, 70, 0
6, 51539, Note_on_c, 2, 73, 0
6, 51539, Note_on_c, 2, 66, 0
6, 51720, Note_on_c, 2, 70, 94
6, 51720, Note_on_c, 2, 66, 87
6, 51720, Note_on_c, 2, 73, 89
6, 51779, Note_on_c, 2, 73, 0
6, 51779, Note_on_c, 2, 66, 0
6, 51779, Note_on_c, 2, 70, 0
6, 51960, Note_on_c, 2, 73, 93
6, 51960, Note_on_c, 2, 70, 88
6, 51960, Note_on_c, 2, 66, 87
6, 52019, Note_on_c, 2, 66, 0
6, 52019, Note_on_c, 2, 70, 0
6, 52019, Note_on_c, 2, 73, 0
6, 52200, Note_on_c, 2, 73, 87
6, 52200, Note_on_c, 2, 66, 88
6, 52200, Note_on_c, 2, 70, 93
6, 52259, Note_on_c, 2, 70, 0
6, 52259, Note_on_c, 2, 66, 0
6, 52259, Note_on_c, 2, 73, 0
6, 52440, Note_on_c, 2, 65, 93
6, 52440, Note_on_c, 2, 73, 87
6, 52440, Note_on_c, 2, 70, 90
6, 52499, Note_on_c, 2, 70, 0
6, 52499, Note_on_c, 2, 73, 0
6, 52499, Note_on_c, 2, 65, 0
6, 52680, Note_on_c, 2, 73, 91
6, 52680, Note_on_c, 2, 65, 94
6, 52680, Note_on_c, 2, 70, 86
6, 52739, Note_on_c, 2, 70, 0
6, 52739, Note_on_c, 2, 65, 0
6, 52739, Note_on_c, 2, 73, 0
6, 52920, Note_on_c, 2, 65, 87
6, 52920, Note_on_c, 2, 70, 91
6, 52920, Note_on_c, 2, 73, 94
6, 52979, Note_on_c, 2, 73, 0
6, 52979, Note_on_c, 2, 70, 0
6, 52979, Note_on_c, 2, 65, 0
6, 53160, Note_on_c, 2, 73, 94
6, 53160, Note_on_c, 2, 65, 86
6, 53160, Note_on_c, 2, 70, 88
6, 53219, Note_on_c, 2, 70, 0
6, 53219, Note_on_c, 2, 65, 0
6, 53219, Note_on_c, 2, 73, 0
6, 53400, Note_on_c, 2, 70, 90
6, 53400, Note_on_c, 2, 73, 92
6, 53400, Note_on_c, 2, 64, 87
6, 53459, Note_on_c, 2, 64, 0
6, 53459, Note_on_c, 2, 73, 0
6, 53459, Note_on_c, 2, 70, 0
6, 53640, Note_on_c, 2, 73, 94
6, 53640, Note_on_c, 2, 70, 86
6, 53640, Note_on_c, 2, 64, 90
6, 53699, Note_on_c, 2, 64, 0
6, 53699, Note_on_c, 2, 70, 0
6, 53699, Note_on_c, 2, 73, 0
6, 53880, Note_on_c, 2, 70, 89
6, 53880, Note_on_c, 2, 73, 89
6, 53880, Note_on_c, 2, 64, 87
6, 53939, Note_on_c, 2, 64, 0
6, 53939, Note_on_c, 2, 73, 0
6, 53939, Note_on_c, 2, 70, 0
6, 54120, Note_on_c, 2, 73, 86
6, 54120, Note_on_c, 2, 70, 89
6, 54120, Note_on_c, 2, 64, 88
6, 54179, Note_on_c, 2, 64, 0
6, 54179, Note_on_c, 2, 70, 0
6, 54179, Note_on_c, 2, 73, 0
6, 54360, Note_on_c, 2, 70, 92
6, 54360, Note_on_c, 2, 63, 94
6, 54360, Note_on_c, 2, 66, 93
6, 54419, Note_on_c, 2, 66, 0
6, 54419, Note_on_c, 2, 63, 0
6, 54419, Note_on_c, 2, 70, 0
6, 54600, Note_on_c, 2, 70, 88
6, 54600, Note_on_c, 2, 66, 92
6, 54600, Note_on_c, 2, 63, 94
6, 54659, Note_on_c, 2, 63, 0
6, 54659, Note_on_c, 2, 66, 0
6, 54659, Note_on_c, 2, 70, 0
6, 54840, Note_on_c, 2, 63, 90
6, 54840, Note_on_c, 2, 66, 91
6, 54840, Note_on_c, 2, 71, 94
6, 54899, Note_on_c, 2, 71, 0
6, 54899, Note_on_c, 2, 66, 0
6, 54899, Note_on_c, 2, 63, 0
6, 55080, Note_on_c, 2, 73, 89
6, 55080, Note_on_c, 2, 68, 91
6, 55080, Note_on_c, 2, 65, 94
6, 55139, Note_on_c, 2, 65, 0
6, 55139, Note_on_c, 2, 68, 0
6, 55139, Note_on_c, 2, 73, 0
6, 55320, Note_on_c, 2, 66, 91
6, 55320, Note_on_c, 2, 73, 86
6, 55320, Note_on_c, 2, 70, 89
6, 55379, Note_on_c, 2, 70, 0
6, 55379, Note_on_c, 2, 73, 0
6, 55379, Note_on_c, 2, 66, 0
6, 55560, Note_on_c, 2, 70, 93
6, 55560, Note_on_c, 2, 66, 92
6, 55560, Note_on_c, 2, 73, 91
6, 55619, Note_on_c, 2, 73, 0
6, 55619, Note_on_c, 2, 66, 0
6, 55619, Note_on_c, 2, 70, 0
6, 55800, Note_on_c, 2, 73, 91
6, 55800, Note_on_c, 2, 70, 92
6, 55800, Note_on_c, 2, 66, 92
6, 55859, Note_on_c, 2, 66, 0
6, 55859, Note_on_c, 2, 70, 0
6, 55859, Note_on_c, 2, 73, 0
6, 56040, Note_on_c, 2, 73, 92
6, 56040, Note_on_c, 2, 66, 91
6, 56040, Note_on_c, 2, 70, 90
6, 56099, Note_on_c, 2, 70, 0
6, 56099, Note_on_c, 2, 66, 0
6, 56099, Note_on_c, 2, 73, 0
6, 56280, Note_on_c, 2, 65, 91
6, 56280, Note_on_c, 2, 73, 92
6, 56280, Note_on_c, 2, 70, 91
6, 56339, Note_on_c, 2, 70, 0
6, 56339, Note_on_c, 2, 73, 0
6, 56339, Note_on_c, 2, 65, 0
6, 56520, Note_on_c, 2, 73, 92
6, 56520, Note_on_c, 2, 65, 90
6, 56520, Note_on_c, 2, 70, 90
6, 56579, Note_on_c, 2, 70, 0
6, 56579, Note_on_c, 2, 65, 0
6, 56579, Note_on_c, 2, 73, 0
6, 56760, Note_on_c, 2, 65, 91
6, 56760, Note_on_c, 2, 70, 94
6, 56760, Note_on_c, 2, 73, 86
6, 56819, Note_on_c, 2, 73, 0
6, 56819, Note_on_c, 2, 70, 0
6, 56819, Note_on_c, 2, 65, 0
6, 57000, Note_on_c, 2, 73, 89
6, 57000, Note_on_c, 2, 65, 88
6, 57000, Note_on_c, 2, 70, 91
6, 57059, Note_on_c, 2, 70, 0
6, 57059, Note_on_c, 2, 65, 0
6, 57059, Note_on_c, 2, 73, 0
6, 57240, Note_on_c, 2, 70, 86
6, 57240, Note_on_c, 2, 73, 91
6, 57240, Note_on_c, 2, 64, 86
6, 57299, Note_on_c, 2, 64, 0
6, 57299, Note_on_c, 2, 73, 0
6, 57299, Note_on_c, 2, 70, 0
6, 57480, Note_on_c, 2, 73, 87
6, 57480, Note_on_c, 2, 70, 91
6, 57480, Note_on_c, 2, 64, 88
6, 57539, Note_on_c, 2, 64, 0
6, 57539, Note_on_c, 2, 70, 0
6, 57539, Note_on_c, 2, 73, 0
6, 57720, Note_on_c, 2, 70, 89
6, 57720, Note_on_c, 2, 73, 87
6, 57720, Note_on_c, 2, 64, 93
6, 57779, Note_on_c, 2, 64, 0
6, 57779, Note_on_c, 2, 73, 0
6, 57779, Note_on_c, 2, 70, 0
6, 57960, Note_on_c, 2, 73, 86
6, 57960, Note_on_c, 2, 70, 93
6, 57960, Note_on_c, 2, 64, 86
6, 58019, Note_on_c, 2, 64, 0
6, 58019, Note_on_c, 2, 70, 0
6, 58019, Note_on_c, 2, 73, 0
6, 58200, Note_on_c, 2, 70, 90
6, 58200, Note_on_c, 2, 63, 94
6, 58200, Note_on_c, 2, 66, 91
6, 58259, Note_on_c, 2, 66, 0
6, 58259, Note_on_c, 2, 63, 0
6, 58259, Note_on_c, 2, 70, 0
6, 58440, Note_on_c, 2, 70, 86
6, 58440, Note_on_c, 2, 66, 89
6, 58440, Note_on_c, 2, 63, 89
6, 58499, Note_on_c, 2, 63, 0
6, 58499, Note_on_c, 2, 66, 0
6, 58499, Note_on_c, 2, 70, 0
6, 58680, Note_on_c, 2, 63, 88
6, 58680, Note_on_c, 2, 66, 91
6, 58680, Note_on_c, 2, 71, 93
6, 58739, Note_on_c, 2, 71, 0
6, 58739, Note_on_c, 2, 66, 0
6, 58739, Note_on_c, 2, 63, 0
6, 58920, Note_on_c, 2, 73, 94
6, 58920, Note_on_c, 2, 68, 86
6, 58920, Note_on_c, 2, 65, 90
6, 58979, Note_on_c, 2, 65, 0
6, 58979, Note_on_c, 2, 68, 0
6, 58979, Note_on_c, 2, 73, 0
6, 59160, Note_on_c, 2, 66, 89
6, 59160, Note_on_c, 2, 73, 88
6, 59160, Note_on_c, 2, 70, 94
6, 59219, Note_on_c, 2, 70, 0
6, 59219, Note_on_c, 2, 73, 0
6, 59219, Note_on_c, 2, 66, 0
6, 59400, Note_on_c, 2, 70, 87
6, 59400, Note_on_c, 2, 66, 86
6, 59400, Note_on_c, 2, 73, 91
6, 59459, Note_on_c, 2, 73, 0
6, 59459, Note_on_c, 2, 66, 0
6, 59459, Note_on_c, 2, 70, 0
6, 59640, Note_on_c, 2, 73, 86
6, 59640, Note_on_c, 2, 70, 91
6, 59640, Note_on_c, 2, 66, 92
6, 59699, Note_on_c, 2, 66, 0
6, 59699, Note_on_c, 2, 70, 0
6, 59699, Note_on_c, 2, 73, 0
6, 59880, Note_on_c, 2, 73, 93
6, 59880, Note_on_c, 2, 66, 94
6, 59880, Note_on_c, 2, 70, 86
6, 59939, Note_on_c, 2, 70, 0
6, 59939, Note_on_c, 2, 66, 0
6, 59939, Note_on_c, 2, 73, 0
6, 60120, Note_on_c, 2, 65, 91
6, 60120, Note_on_c, 2, 73, 88
6, 60120, Note_on_c, 2, 70, 92
6, 60179, Note_on_c, 2, 70, 0
6, 60179, Note_on_c, 2, 73, 0
6, 60179, Note_on_c, 2, 65, 0
6, 60360, Note_on_c, 2, 73, 94
6, 60360, Note_on_c, 2, 65, 88
6, 60360, Note_on_c, 2, 70, 88
6, 60419, Note_on_c, 2, 70, 0
6, 60419, Note_on_c, 2, 65, 0
6, 60419, Note_on_c, 2, 73, 0
6, 60600, Note_on_c, 2, 65, 92
6, 60600, Note_on_c, 2, 70, 93
6, 60600, Note_on_c, 2, 73, 86
6, 60659, Note_on_c, 2, 73, 0
6, 60659, Note_on_c, 2, 70, 0
6, 60659, Note_on_c, 2, 65, 0
6, 60840, Note_on_c, 2, 73, 93
6, 60840, Note_on_c, 2, 65, 92
6, 60840, Note_on_c, 2, 70, 90
6, 60899, Note_on_c, 2, 70, 0
6, 60899, Note_on_c, 2, 65, 0
6, 60899, Note_on_c, 2, 73, 0
6, 61080, Note_on_c, 2, 70, 90
6, 61080, Note_on_c, 2, 73, 87
6, 61080, Note_on_c, 2, 64, 91
6, 61139, Note_on_c, 2, 64, 0
6, 61139, Note_on_c, 2, 73, 0
6, 61139, Note_on_c, 2, 70, 0
6, 61320, Note_on_c, 2, 73, 93
6, 61320, Note_on_c, 2, 70, 92
6, 61320, Note_on_c, 2, 64, 91
6, 61379, Note_on_c, 2, 64, 0
6, 61379, Note_on_c, 2, 70, 0
6, 61379, Note_on_c, 2, 73, 0
6, 61560, Note_on_c, 2, 70, 86
6, 61560, Note_on_c, 2, 73, 91
6, 61560, Note_on_c, 2, 64, 86
6, 61619, Note_on_c, 2, 64, 0
6, 61619, Note_on_c, 2, 73, 0
6, 61619, Note_on_c, 2, 70, 0
6, 61800, Note_on_c, 2, 73, 87
6, 61800, Note_on_c, 2, 70, 92
6, 61800, Note_on_c, 2, 64, 88
6, 61859, Note_on_c, 2, 64, 0
6, 61859, Note_on_c, 2, 70, 0
6, 61859, Note_on_c, 2, 73, 0
6, 62040, Note_on_c, 2, 70, 90
6, 62040, Note_on_c, 2, 63, 87
6, 62040, Note_on_c, 2, 66, 93
6, 62099, Note_on_c, 2, 66, 0
6, 62099, Note_on_c, 2, 63, 0
6, 62099, Note_on_c, 2, 70, 0
6, 62280, Note_on_c, 2, 70, 88
6, 62280, Note_on_c, 2, 66, 92
6, 62280, Note_on_c, 2, 63, 93
6, 62339, Note_on_c, 2, 63, 0
6, 62339, Note_on_c, 2, 66, 0
6, 62339, Note_on_c, 2, 70, 0
6, 62520, Note_on_c, 2, 63, 87
6, 62520, Note_on_c, 2, 66, 92
6, 62520, Note_on_c, 2, 71, 88
6, 62579, Note_on_c, 2, 71, 0
6, 62579, Note_on_c, 2, 66, 0
6, 62579, Note_on_c, 2, 63, 0
6, 62760, Note_on_c, 2, 73, 89
6, 62760, Note_on_c, 2, 68, 92
6, 62760, Note_on_c, 2, 65, 86
6, 62819, Note_on_c, 2, 65, 0
6, 62819, Note_on_c, 2, 68, 0
6, 62819, Note_on_c, 2, 73, 0
6, 62850, Note_on_c, 2, 54, 88
6, 62865, Note_on_c, 2, 58, 88
6, 62880, Note_on_c, 2, 61, 88
6, 62895, Note_on_c, 2, 66, 88
6, 63350, Note_on_c, 2, 61, 0
6, 63350, Note_on_c, 2, 54, 0
6, 63350, Note_on_c, 2, 58, 0
6, 63351, Note_on_c, 2, 66, 0
6, 63351, End_track
7, 0, Start_track
7, 0, Title_t, "Jazz Guitar"
7, 0, Instrument_name_t, "     "
7, 7, Control_c, 3, 121, 0
7, 30, Program_c, 3, 26
7, 37, Control_c, 3, 7, 100
7, 37, Control_c, 3, 11, 127
7, 45, Control_c, 3, 91, 100
7, 52, Control_c, 3, 93, 55
7, 60, Control_c, 3, 94, 0
7, 67, Control_c, 3, 10, 64
7, 75, Control_c, 3, 100, 0
7, 82, Control_c, 3, 101, 0
7, 90, Control_c, 3, 6, 2
7, 232, Control_c, 3, 64, 0
7, 2980, Note_on_c, 3, 56, 98
7, 3000, Note_on_c, 3, 57, 99
7, 3002, Note_on_c, 3, 56, 0
7, 3075, Note_on_c, 3, 57, 0
7, 3080, Note_on_c, 3, 60, 103
7, 3600, Note_on_c, 3, 60, 0
7, 3940, Note_on_c, 3, 56, 104
7, 3960, Note_on_c, 3, 57, 97
7, 3962, Note_on_c, 3, 56, 0
7, 4027, Note_on_c, 3, 57, 0
7, 4040, Note_on_c, 3, 60, 105
7, 4560, Note_on_c, 3, 60, 0
7, 4900, Note_on_c, 3, 56, 102
7, 4920, Note_on_c, 3, 57, 102
7, 4922, Note_on_c, 3, 56, 0
7, 4987, Note_on_c, 3, 57, 0
7, 5000, Note_on_c, 3, 60, 104
7, 5520, Note_on_c, 3, 60, 0
7, 5860, Note_on_c, 3, 56, 99
7, 5880, Note_on_c, 3, 57, 105
7, 5882, Note_on_c, 3, 56, 0
7, 5955, Note_on_c, 3, 57, 0
7, 5960, Note_on_c, 3, 60, 104
7, 6120, Note_on_c, 3, 57, 100
7, 6125, Note_on_c, 3, 60, 0
7, 6240, Note_on_c, 3, 58, 99
7, 6240, Note_on_c, 3, 57, 0
7, 6300, Note_on_c, 3, 58, 0
7, 6340, Note_on_c, 3, 57, 97
7, 6360, Note_on_c, 3, 58, 97
7, 6362, Note_on_c, 3, 57, 0
7, 6435, Note_on_c, 3, 58, 0
7, 6440, Note_on_c, 3, 60, 99
7, 6720, Note_on_c, 3, 65, 79
7, 6720, Note_on_c, 3, 60, 0
7, 7320, Note_on_c, 3, 57, 73
7, 7320, Note_on_c, 3, 65, 0
7, 7440, Note_on_c, 3, 60, 74
7, 7440, Note_on_c, 3, 57, 0
7, 7560, Note_on_c, 3, 62, 76
7, 7560, Note_on_c, 3, 60, 0
7, 7672, Note_on_c, 3, 62, 0
7, 7680, Note_on_c, 3, 64, 74
7, 8280, Note_on_c, 3, 57, 74
7, 8280, Note_on_c, 3, 64, 0
7, 8400, Note_on_c, 3, 60, 72
7, 8400, Note_on_c, 3, 57, 0
7, 8520, Note_on_c, 3, 62, 76
7, 8520, Note_on_c, 3, 60, 0
7, 8632, Note_on_c, 3, 62, 0
7, 8640, Note_on_c, 3, 62, 79
7, 9240, Note_on_c, 3, 57, 71
7, 9240, Note_on_c, 3, 62, 0
7, 9360, Note_on_c, 3, 60, 75
7, 9360, Note_on_c, 3, 57, 0
7, 9480, Note_on_c, 3, 62, 73
7, 9480, Note_on_c, 3, 60, 0
7, 9592, Note_on_c, 3, 62, 0
7, 9600, Note_on_c, 3, 61, 80
7, 10072, Note_on_c, 3, 61, 0
7, 10080, Note_on_c, 3, 60, 79
7, 10552, Note_on_c, 3, 60, 0
7, 10560, Note_on_c, 3, 65, 76
7, 11160, Note_on_c, 3, 57, 72
7, 11160, Note_on_c, 3, 65, 0
7, 11280, Note_on_c, 3, 60, 71
7, 11280, Note_on_c, 3, 57, 0
7, 11400, Note_on_c, 3, 62, 78
7, 11400, Note_on_c, 3, 60, 0
7, 11512, Note_on_c, 3, 62, 0
7, 11520, Note_on_c, 3, 64, 71
7, 12120, Note_on_c, 3, 57, 76
7, 12120, Note_on_c, 3, 64, 0
7, 12240, Note_on_c, 3, 60, 74
7, 12240, Note_on_c, 3, 57, 0
7, 12360, Note_on_c, 3, 62, 75
7, 12360, Note_on_c, 3, 60, 0
7, 12472, Note_on_c, 3, 62, 0
7, 12480, Note_on_c, 3, 62, 72
7, 13080, Note_on_c, 3, 57, 71
7, 13080, Note_on_c, 3, 62, 0
7, 13200, Note_on_c, 3, 60, 78
7, 13200, Note_on_c, 3, 57, 0
7, 13320, Note_on_c, 3, 62, 79
7, 13320, Note_on_c, 3, 60, 0
7, 13432, Note_on_c, 3, 62, 0
7, 13440, Note_on_c, 3, 61, 74
7, 13912, Note_on_c, 3, 61, 0
7, 13920, Note_on_c, 3, 60, 75
7, 14250, Note_on_c, 3, 60, 0
7, 14265, Note_on_c, 3, 59, 97
7, 14280, Note_on_c, 3, 60, 101
7, 14280, Note_on_c, 3, 59, 0
7, 14400, Note_on_c, 3, 58, 96
7, 14407, Note_on_c, 3, 60, 0
7, 14872, Note_on_c, 3, 58, 0
7, 14880, Note_on_c, 3, 60, 72
7, 15210, Note_on_c, 3, 60, 0
7, 15225, Note_on_c, 3, 59, 97
7, 15240, Note_on_c, 3, 60, 99
7, 15240, Note_on_c, 3, 59, 0
7, 15360, Note_on_c, 3, 58, 97
7, 15367, Note_on_c, 3, 60, 0
7, 15832, Note_on_c, 3, 58, 0
7, 15840, Note_on_c, 3, 60, 92
7, 16170, Note_on_c, 3, 60, 0
7, 16185, Note_on_c, 3, 59, 97
7, 16200, Note_on_c, 3, 60, 98
7, 16200, Note_on_c, 3, 59, 0
7, 16312, Note_on_c, 3, 60, 0
7, 16320, Note_on_c, 3, 48, 99
7, 16395, Note_on_c, 3, 48, 0
7, 17380, Note_on_c, 3, 56, 97
7, 17400, Note_on_c, 3, 57, 100
7, 17402, Note_on_c, 3, 56, 0
7, 17475, Note_on_c, 3, 57, 0
7, 17480, Note_on_c, 3, 60, 103
7, 18000, Note_on_c, 3, 60, 0
7, 18340, Note_on_c, 3, 56, 99
7, 18360, Note_on_c, 3, 57, 97
7, 18362, Note_on_c, 3, 56, 0
7, 18427, Note_on_c, 3, 57, 0
7, 18440, Note_on_c, 3, 60, 102
7, 18960, Note_on_c, 3, 60, 0
7, 19300, Note_on_c, 3, 56, 102
7, 19320, Note_on_c, 3, 57, 102
7, 19322, Note_on_c, 3, 56, 0
7, 19387, Note_on_c, 3, 57, 0
7, 19400, Note_on_c, 3, 60, 105
7, 19920, Note_on_c, 3, 60, 0
7, 20260, Note_on_c, 3, 56, 102
7, 20280, Note_on_c, 3, 57, 96
7, 20282, Note_on_c, 3, 56, 0
7, 20355, Note_on_c, 3, 57, 0
7, 20360, Note_on_c, 3, 60, 99
7, 20520, Note_on_c, 3, 57, 103
7, 20525, Note_on_c, 3, 60, 0
7, 20640, Note_on_c, 3, 58, 101
7, 20640, Note_on_c, 3, 57, 0
7, 20700, Note_on_c, 3, 58, 0
7, 20740, Note_on_c, 3, 57, 104
7, 20760, Note_on_c, 3, 58, 101
7, 20762, Note_on_c, 3, 57, 0
7, 20835, Note_on_c, 3, 58, 0
7, 20840, Note_on_c, 3, 60, 96
7, 21120, Note_on_c, 3, 60, 0
7, 21220, Note_on_c, 3, 56, 103
7, 21240, Note_on_c, 3, 57, 96
7, 21242, Note_on_c, 3, 56, 0
7, 21315, Note_on_c, 3, 57, 0
7, 21320, Note_on_c, 3, 60, 99
7, 21840, Note_on_c, 3, 60, 0
7, 22180, Note_on_c, 3, 56, 101
7, 22200, Note_on_c, 3, 57, 103
7, 22202, Note_on_c, 3, 56, 0
7, 22267, Note_on_c, 3, 57, 0
7, 22280, Note_on_c, 3, 60, 96
7, 22800, Note_on_c, 3, 60, 0
7, 23140, Note_on_c, 3, 56, 97
7, 23160, Note_on_c, 3, 57, 97
7, 23162, Note_on_c, 3, 56, 0
7, 23227, Note_on_c, 3, 57, 0
7, 23240, Note_on_c, 3, 60, 102
7, 23760, Note_on_c, 3, 60, 0
7, 24100, Note_on_c, 3, 56, 100
7, 24120, Note_on_c, 3, 57, 101
7, 24122, Note_on_c, 3, 56, 0
7, 24195, Note_on_c, 3, 57, 0
7, 24200, Note_on_c, 3, 60, 98
7, 24360, Note_on_c, 3, 57, 97
7, 24365, Note_on_c, 3, 60, 0
7, 24480, Note_on_c, 3, 58, 99
7, 24480, Note_on_c, 3, 57, 0
7, 24540, Note_on_c, 3, 58, 0
7, 24580, Note_on_c, 3, 57, 101
7, 24600, Note_on_c, 3, 58, 99
7, 24602, Note_on_c, 3, 57, 0
7, 24675, Note_on_c, 3, 58, 0
7, 24680, Note_on_c, 3, 60, 104
7, 24960, Note_on_c, 3, 65, 79
7, 24960, Note_on_c, 3, 60, 0
7, 25560, Note_on_c, 3, 57, 76
7, 25560, Note_on_c, 3, 65, 0
7, 25680, Note_on_c, 3, 60, 79
7, 25680, Note_on_c, 3, 57, 0
7, 25800, Note_on_c, 3, 62, 79
7, 25800, Note_on_c, 3, 60, 0
7, 25912, Note_on_c, 3, 62, 0
7, 25920, Note_on_c, 3, 64, 71
7, 26520, Note_on_c, 3, 57, 76
7, 26520, Note_on_c, 3, 64, 0
7, 26640, Note_on_c, 3, 60, 73
7, 26640, Note_on_c, 3, 57, 0
7, 26760, Note_on_c, 3, 62, 76
7, 26760, Note_on_c, 3, 60, 0
7, 26872, Note_on_c, 3, 62, 0
7, 26880, Note_on_c, 3, 62, 71
7, 27480, Note_on_c, 3, 57, 72
7, 27480, Note_on_c, 3, 62, 0
7, 27600, Note_on_c, 3, 60, 79
7, 27600, Note_on_c, 3, 57, 0
7, 27720, Note_on_c, 3, 62, 78
7, 27720, Note_on_c, 3, 60, 0
7, 27832, Note_on_c, 3, 62, 0
7, 27840, Note_on_c, 3, 61, 70
7, 28312, Note_on_c, 3, 61, 0
7, 28320, Note_on_c, 3, 60, 74
7, 28792, Note_on_c, 3, 60, 0
7, 28800, Note_on_c, 3, 65, 70
7, 29400, Note_on_c, 3, 57, 75
7, 29400, Note_on_c, 3, 65, 0
7, 29520, Note_on_c, 3, 60, 78
7, 29520, Note_on_c, 3, 57, 0
7, 29640, Note_on_c, 3, 62, 72
7, 29640, Note_on_c, 3, 60, 0
7, 29752, Note_on_c, 3, 62, 0
7, 29760, Note_on_c, 3, 64, 72
7, 30360, Note_on_c, 3, 57, 77
7, 30360, Note_on_c, 3, 64, 0
7, 30480, Note_on_c, 3, 60, 79
7, 30480, Note_on_c, 3, 57, 0
7, 30600, Note_on_c, 3, 62, 79
7, 30600, Note_on_c, 3, 60, 0
7, 30712, Note_on_c, 3, 62, 0
7, 30720, Note_on_c, 3, 62, 75
7, 31320, Note_on_c, 3, 57, 75
7, 31320, Note_on_c, 3, 62, 0
7, 31440, Note_on_c, 3, 60, 73
7, 31440, Note_on_c, 3, 57, 0
7, 31560, Note_on_c, 3, 62, 77
7, 31560, Note_on_c, 3, 60, 0
7, 31672, Note_on_c, 3, 62, 0
7, 31680, Note_on_c, 3, 61, 79
7, 32152, Note_on_c, 3, 61, 0
7, 32160, Note_on_c, 3, 60, 72
7, 32490, Note_on_c, 3, 60, 0
7, 32505, Note_on_c, 3, 59, 97
7, 32520, Note_on_c, 3, 60, 97
7, 32520, Note_on_c, 3, 59, 0
7, 32640, Note_on_c, 3, 58, 104
7, 32647, Note_on_c, 3, 60, 0
7, 33112, Note_on_c, 3, 58, 0
7, 33120, Note_on_c, 3, 60, 70
7, 33450, Note_on_c, 3, 60, 0
7, 33465, Note_on_c, 3, 59, 100
7, 33480, Note_on_c, 3, 60, 97
7, 33480, Note_on_c, 3, 59, 0
7, 33600, Note_on_c, 3, 58, 97
7, 33607, Note_on_c, 3, 60, 0
7, 34072, Note_on_c, 3, 58, 0
7, 34080, Note_on_c, 3, 60, 96
7, 34410, Note_on_c, 3, 60, 0
7, 34425, Note_on_c, 3, 59, 98
7, 34440, Note_on_c, 3, 60, 104
7, 34440, Note_on_c, 3, 59, 0
7, 34552, Note_on_c, 3, 60, 0
7, 34560, Note_on_c, 3, 48, 105
7, 34635, Note_on_c, 3, 48, 0
7, 35620, Note_on_c, 3, 56, 104
7, 35640, Note_on_c, 3, 57, 96
7, 35642, Note_on_c, 3, 56, 0
7, 35715, Note_on_c, 3, 57, 0
7, 35720, Note_on_c, 3, 60, 101
7, 36240, Note_on_c, 3, 60, 0
7, 36580, Note_on_c, 3, 56, 104
7, 36600, Note_on_c, 3, 57, 99
7, 36602, Note_on_c, 3, 56, 0
7, 36667, Note_on_c, 3, 57, 0
7, 36680, Note_on_c, 3, 60, 101
7, 37200, Note_on_c, 3, 60, 0
7, 37540, Note_on_c, 3, 56, 104
7, 37560, Note_on_c, 3, 57, 100
7, 37562, Note_on_c, 3, 56, 0
7, 37627, Note_on_c, 3, 57, 0
7, 37640, Note_on_c, 3, 60, 96
7, 38160, Note_on_c, 3, 60, 0
7, 38500, Note_on_c, 3, 56, 99
7, 38520, Note_on_c, 3, 57, 101
7, 38522, Note_on_c, 3, 56, 0
7, 38595, Note_on_c, 3, 57, 0
7, 38600, Note_on_c, 3, 60, 100
7, 38760, Note_on_c, 3, 57, 104
7, 38765, Note_on_c, 3, 60, 0
7, 38880, Note_on_c, 3, 58, 100
7, 38880, Note_on_c, 3, 57, 0
7, 38940, Note_on_c, 3, 58, 0
7, 38980, Note_on_c, 3, 57, 99
7, 39000, Note_on_c, 3, 58, 97
7, 39002, Note_on_c, 3, 57, 0
7, 39075, Note_on_c, 3, 58, 0
7, 39080, Note_on_c, 3, 60, 99
7, 39360, Note_on_c, 3, 60, 0
7, 39460, Note_on_c, 3, 56, 103
7, 39480, Note_on_c, 3, 57, 99
7, 39482, Note_on_c, 3, 56, 0
7, 39555, Note_on_c, 3, 57, 0
7, 39560, Note_on_c, 3, 60, 100
7, 40080, Note_on_c, 3, 60, 0
7, 40420, Note_on_c, 3, 56, 95
7, 40440, Note_on_c, 3, 57, 96
7, 40442, Note_on_c, 3, 56, 0
7, 40507, Note_on_c, 3, 57, 0
7, 40520, Note_on_c, 3, 60, 104
7, 41040, Note_on_c, 3, 60, 0
7, 41380, Note_on_c, 3, 56, 100
7, 41400, Note_on_c, 3, 57, 103
7, 41402, Note_on_c, 3, 56, 0
7, 41467, Note_on_c, 3, 57, 0
7, 41480, Note_on_c, 3, 60, 100
7, 42000, Note_on_c, 3, 60, 0
7, 42340, Note_on_c, 3, 56, 104
7, 42360, Note_on_c, 3, 57, 96
7, 42362, Note_on_c, 3, 56, 0
7, 42435, Note_on_c, 3, 57, 0
7, 42440, Note_on_c, 3, 60, 99
7, 42600, Note_on_c, 3, 57, 104
7, 42605, Note_on_c, 3, 60, 0
7, 42720, Note_on_c, 3, 58, 96
7, 42720, Note_on_c, 3, 57, 0
7, 42780, Note_on_c, 3, 58, 0
7, 42820, Note_on_c, 3, 57, 100
7, 42840, Note_on_c, 3, 58, 105
7, 42842, Note_on_c, 3, 57, 0
7, 42915, Note_on_c, 3, 58, 0
7, 42920, Note_on_c, 3, 60, 105
7, 43672, Note_on_c, 3, 60, 0
7, 43800, Note_on_c, 3, 60, 89
7, 43920, Note_on_c, 3, 57, 93
7, 43920, Note_on_c, 3, 60, 0
7, 44040, Note_on_c, 3, 52, 92
7, 44040, Note_on_c, 3, 57, 0
7, 44160, Note_on_c, 3, 50, 94
7, 44160, Note_on_c, 3, 52, 0
7, 44640, Note_on_c, 3, 55, 90
7, 44640, Note_on_c, 3, 50, 0
7, 44760, Note_on_c, 3, 58, 89
7, 44760, Note_on_c, 3, 55, 0
7, 44880, Note_on_c, 3, 62, 90
7, 44880, Note_on_c, 3, 58, 0
7, 45000, Note_on_c, 3, 65, 93
7, 45000, Note_on_c, 3, 62, 0
7, 45112, Note_on_c, 3, 65, 0
7, 45120, Note_on_c, 3, 64, 87
7, 45720, Note_on_c, 3, 60, 85
7, 45720, Note_on_c, 3, 64, 0
7, 45840, Note_on_c, 3, 57, 94
7, 45840, Note_on_c, 3, 60, 0
7, 45960, Note_on_c, 3, 52, 93
7, 45960, Note_on_c, 3, 57, 0
7, 46080, Note_on_c, 3, 50, 88
7, 46080, Note_on_c, 3, 52, 0
7, 46552, Note_on_c, 3, 50, 0
7, 46560, Note_on_c, 3, 52, 88
7, 47025, Note_on_c, 3, 52, 0
7, 47040, Note_on_c, 3, 52, 93
7, 47100, Note_on_c, 3, 52, 0
7, 47620, Note_on_c, 3, 57, 104
7, 47640, Note_on_c, 3, 58, 99
7, 47642, Note_on_c, 3, 57, 0
7, 47715, Note_on_c, 3, 58, 0
7, 47720, Note_on_c, 3, 61, 103
7, 48240, Note_on_c, 3, 61, 0
7, 48580, Note_on_c, 3, 57, 96
7, 48600, Note_on_c, 3, 58, 99
7, 48602, Note_on_c, 3, 57, 0
7, 48667, Note_on_c, 3, 58, 0
7, 48680, Note_on_c, 3, 61, 104
7, 49200, Note_on_c, 3, 61, 0
7, 49540, Note_on_c, 3, 57, 103
7, 49560, Note_on_c, 3, 58, 100
7, 49562, Note_on_c, 3, 57, 0
7, 49627, Note_on_c, 3, 58, 0
7, 49640, Note_on_c, 3, 61, 101
7, 50160, Note_on_c, 3, 61, 0
7, 50500, Note_on_c, 3, 57, 104
7, 50520, Note_on_c, 3, 58, 104
7, 50522, Note_on_c, 3, 57, 0
7, 50595, Note_on_c, 3, 58, 0
7, 50600, Note_on_c, 3, 61, 95
7, 50760, Note_on_c, 3, 58, 98
7, 50765, Note_on_c, 3, 61, 0
7, 50880, Note_on_c, 3, 59, 100
7, 50880, Note_on_c, 3, 58, 0
7, 50940, Note_on_c, 3, 59, 0
7, 50980, Note_on_c, 3, 58, 98
7, 51000, Note_on_c, 3, 59, 96
7, 51002, Note_on_c, 3, 58, 0
7, 51075, Note_on_c, 3, 59, 0
7, 51080, Note_on_c, 3, 61, 97
7, 51360, Note_on_c, 3, 61, 0
7, 51460, Note_on_c, 3, 57, 103
7, 51480, Note_on_c, 3, 58, 95
7, 51482, Note_on_c, 3, 57, 0
7, 51555, Note_on_c, 3, 58, 0
7, 51560, Note_on_c, 3, 61, 102
7, 52080, Note_on_c, 3, 61, 0
7, 52420, Note_on_c, 3, 57, 103
7, 52440, Note_on_c, 3, 58, 97
7, 52442, Note_on_c, 3, 57, 0
7, 52507, Note_on_c, 3, 58, 0
7, 52520, Note_on_c, 3, 61, 97
7, 53040, Note_on_c, 3, 61, 0
7, 53380, Note_on_c, 3, 57, 100
7, 53400, Note_on_c, 3, 58, 100
7, 53402, Note_on_c, 3, 57, 0
7, 53467, Note_on_c, 3, 58, 0
7, 53480, Note_on_c, 3, 61, 96
7, 54000, Note_on_c, 3, 61, 0
7, 54340, Note_on_c, 3, 57, 97
7, 54360, Note_on_c, 3, 58, 103
7, 54362, Note_on_c, 3, 57, 0
7, 54435, Note_on_c, 3, 58, 0
7, 54440, Note_on_c, 3, 61, 100
7, 54600, Note_on_c, 3, 58, 100
7, 54605, Note_on_c, 3, 61, 0
7, 54720, Note_on_c, 3, 59, 100
7, 54720, Note_on_c, 3, 58, 0
7, 54780, Note_on_c, 3, 59, 0
7, 54820, Note_on_c, 3, 58, 99
7, 54840, Note_on_c, 3, 59, 104
7, 54842, Note_on_c, 3, 58, 0
7, 54915, Note_on_c, 3, 59, 0
7, 54920, Note_on_c, 3, 61, 98
7, 55200, Note_on_c, 3, 61, 0
7, 55300, Note_on_c, 3, 57, 100
7, 55320, Note_on_c, 3, 58, 96
7, 55322, Note_on_c, 3, 57, 0
7, 55395, Note_on_c, 3, 58, 0
7, 55400, Note_on_c, 3, 61, 100
7, 55920, Note_on_c, 3, 61, 0
7, 56260, Note_on_c, 3, 57, 105
7, 56280, Note_on_c, 3, 58, 95
7, 56282, Note_on_c, 3, 57, 0
7, 56347, Note_on_c, 3, 58, 0
7, 56360, Note_on_c, 3, 61, 104
7, 56880, Note_on_c, 3, 61, 0
7, 57220, Note_on_c, 3, 57, 96
7, 57240, Note_on_c, 3, 58, 101
7, 57242, Note_on_c, 3, 57, 0
7, 57307, Note_on_c, 3, 58, 0
7, 57320, Note_on_c, 3, 61, 96
7, 57840, Note_on_c, 3, 61, 0
7, 58180, Note_on_c, 3, 57, 99
7, 58200, Note_on_c, 3, 58, 100
7, 58202, Note_on_c, 3, 57, 0
7, 58275, Note_on_c, 3, 58, 0
7, 58280, Note_on_c, 3, 61, 100
7, 58440, Note_on_c, 3, 58, 99
7, 58445, Note_on_c, 3, 61, 0
7, 58560, Note_on_c, 3, 59, 101
7, 58560, Note_on_c, 3, 58, 0
7, 58620, Note_on_c, 3, 59, 0
7, 58660, Note_on_c, 3, 58, 102
7, 58680, Note_on_c, 3, 59, 100
7, 58682, Note_on_c, 3, 58, 0
7, 58755, Note_on_c, 3, 59, 0
7, 58760, Note_on_c, 3, 61, 100
7, 59040, Note_on_c, 3, 61, 0
7, 59140, Note_on_c, 3, 57, 99
7, 59160, Note_on_c, 3, 58, 95
7, 59162, Note_on_c, 3, 57, 0
7, 59235, Note_on_c, 3, 58, 0
7, 59240, Note_on_c, 3, 61, 95
7, 59760, Note_on_c, 3, 61, 0
7, 60100, Note_on_c, 3, 57, 98
7, 60120, Note_on_c, 3, 58, 96
7, 60122, Note_on_c, 3, 57, 0
7, 60187, Note_on_c, 3, 58, 0
7, 60200, Note_on_c, 3, 61, 97
7, 60720, Note_on_c, 3, 61, 0
7, 61060, Note_on_c, 3, 57, 97
7, 61080, Note_on_c, 3, 58, 97
7, 61082, Note_on_c, 3, 57, 0
7, 61147, Note_on_c, 3, 58, 0
7, 61160, Note_on_c, 3, 61, 103
7, 61680, Note_on_c, 3, 61, 0
7, 62020, Note_on_c, 3, 57, 102
7, 62040, Note_on_c, 3, 58, 101
7, 62042, Note_on_c, 3, 57, 0
7, 62115, Note_on_c, 3, 58, 0
7, 62120, Note_on_c, 3, 61, 102
7, 62280, Note_on_c, 3, 58, 98
7, 62285, Note_on_c, 3, 61, 0
7, 62400, Note_on_c, 3, 59, 102
7, 62400, Note_on_c, 3, 58, 0
7, 62460, Note_on_c, 3, 59, 0
7, 62500, Note_on_c, 3, 58, 105
7, 62520, Note_on_c, 3, 59, 104
7, 62522, Note_on_c, 3, 58, 0
7, 62595, Note_on_c, 3, 59, 0
7, 62600, Note_on_c, 3, 61, 103
7, 62880, Note_on_c, 3, 54, 86
7, 62880, Note_on_c, 3, 61, 0
7, 63360, Note_on_c, 3, 54, 0
7, 63360, End_track
8, 0, Start_track
8, 0, Title_t, "Piano"
8, 0, Instrument_name_t, "     "
8, 7, Control_c, 4, 121, 0
8, 30, Program_c, 4, 5
8, 37, Control_c, 4, 11, 127
8, 45, Control_c, 4, 91, 110
8, 52, Control_c, 4, 93, 105
8, 60, Control_c, 4, 94, 0
8, 67, Control_c, 4, 10, 94
8, 75, Control_c, 4, 100, 0
8, 82, Control_c, 4, 101, 0
8, 90, Control_c, 4, 6, 2
8, 157, Control_c, 4, 7, 100
8, 2880, Note_on_c, 4, 72, 96
8, 2880, Note_on_c, 4, 65, 95
8, 2900, Note_on_c, 4, 69, 105
8, 2939, Note_on_c, 4, 65, 0
8, 2939, Note_on_c, 4, 72, 0
8, 2959, Note_on_c, 4, 69, 0
8, 3000, Note_on_c, 4, 65, 97
8, 3000, Note_on_c, 4, 72, 96
8, 3000, Note_on_c, 4, 69, 103
8, 3059, Note_on_c, 4, 69, 0
8, 3059, Note_on_c, 4, 72, 0
8, 3059, Note_on_c, 4, 65, 0
8, 3120, Note_on_c, 4, 72, 97
8, 3120, Note_on_c, 4, 65, 99
8, 3120, Note_on_c, 4, 69, 104
8, 3179, Note_on_c, 4, 69, 0
8, 3179, Note_on_c, 4, 65, 0
8, 3179, Note_on_c, 4, 72, 0
8, 3240, Note_on_c, 4, 65, 105
8, 3240, Note_on_c, 4, 72, 96
8, 3240, Note_on_c, 4, 69, 100
8, 3299, Note_on_c, 4, 69, 0
8, 3299, Note_on_c, 4, 72, 0
8, 3299, Note_on_c, 4, 65, 0
8, 3360, Note_on_c, 4, 65, 103
8, 3360, Note_on_c, 4, 72, 97
8, 3360, Note_on_c, 4, 69, 100
8, 3419, Note_on_c, 4, 69, 0
8, 3419, Note_on_c, 4, 72, 0
8, 3419, Note_on_c, 4, 65, 0
8, 3480, Note_on_c, 4, 65, 96
8, 3480, Note_on_c, 4, 72, 97
8, 3480, Note_on_c, 4, 69, 103
8, 3539, Note_on_c, 4, 69, 0
8, 3539, Note_on_c, 4, 72, 0
8, 3539, Note_on_c, 4, 65, 0
8, 3600, Note_on_c, 4, 72, 95
8, 3600, Note_on_c, 4, 65, 98
8, 3600, Note_on_c, 4, 69, 99
8, 3659, Note_on_c, 4, 69, 0
8, 3659, Note_on_c, 4, 65, 0
8, 3659, Note_on_c, 4, 72, 0
8, 3720, Note_on_c, 4, 65, 101
8, 3720, Note_on_c, 4, 72, 95
8, 3720, Note_on_c, 4, 69, 102
8, 3779, Note_on_c, 4, 69, 0
8, 3779, Note_on_c, 4, 72, 0
8, 3779, Note_on_c, 4, 65, 0
8, 3840, Note_on_c, 4, 64, 100
8, 3840, Note_on_c, 4, 69, 100
8, 3840, Note_on_c, 4, 72, 103
8, 3899, Note_on_c, 4, 72, 0
8, 3899, Note_on_c, 4, 69, 0
8, 3899, Note_on_c, 4, 64, 0
8, 3960, Note_on_c, 4, 64, 98
8, 3960, Note_on_c, 4, 72, 101
8, 3960, Note_on_c, 4, 69, 96
8, 4019, Note_on_c, 4, 69, 0
8, 4019, Note_on_c, 4, 72, 0
8, 4019, Note_on_c, 4, 64, 0
8, 4080, Note_on_c, 4, 64, 96
8, 4080, Note_on_c, 4, 72, 101
8, 4080, Note_on_c, 4, 69, 96
8, 4139, Note_on_c, 4, 69, 0
8, 4139, Note_on_c, 4, 72, 0
8, 4139, Note_on_c, 4, 64, 0
8, 4200, Note_on_c, 4, 64, 100
8, 4200, Note_on_c, 4, 72, 100
8, 4200, Note_on_c, 4, 69, 100
8, 4259, Note_on_c, 4, 69, 0
8, 4259, Note_on_c, 4, 72, 0
8, 4259, Note_on_c, 4, 64, 0
8, 4320, Note_on_c, 4, 64, 99
8, 4320, Note_on_c, 4, 72, 105
8, 4320, Note_on_c, 4, 69, 96
8, 4379, Note_on_c, 4, 69, 0
8, 4379, Note_on_c, 4, 72, 0
8, 4379, Note_on_c, 4, 64, 0
8, 4440, Note_on_c, 4, 72, 99
8, 4440, Note_on_c, 4, 69, 102
8, 4440, Note_on_c, 4, 64, 98
8, 4499, Note_on_c, 4, 64, 0
8, 4499, Note_on_c, 4, 69, 0
8, 4499, Note_on_c, 4, 72, 0
8, 4560, Note_on_c, 4, 72, 101
8, 4560, Note_on_c, 4, 69, 104
8, 4560, Note_on_c, 4, 64, 96
8, 4619, Note_on_c, 4, 64, 0
8, 4619, Note_on_c, 4, 69, 0
8, 4619, Note_on_c, 4, 72, 0
8, 4680, Note_on_c, 4, 72, 96
8, 4680, Note_on_c, 4, 64, 100
8, 4680, Note_on_c, 4, 69, 101
8, 4739, Note_on_c, 4, 69, 0
8, 4739, Note_on_c, 4, 64, 0
8, 4739, Note_on_c, 4, 72, 0
8, 4800, Note_on_c, 4, 72, 105
8, 4800, Note_on_c, 4, 69, 97
8, 4800, Note_on_c, 4, 63, 97
8, 4859, Note_on_c, 4, 63, 0
8, 4859, Note_on_c, 4, 69, 0
8, 4859, Note_on_c, 4, 72, 0
8, 4920, Note_on_c, 4, 72, 105
8, 4920, Note_on_c, 4, 69, 105
8, 4920, Note_on_c, 4, 63, 105
8, 4979, Note_on_c, 4, 63, 0
8, 4979, Note_on_c, 4, 69, 0
8, 4979, Note_on_c, 4, 72, 0
8, 5040, Note_on_c, 4, 72, 99
8, 5040, Note_on_c, 4, 69, 100
8, 5040, Note_on_c, 4, 63, 104
8, 5099, Note_on_c, 4, 63, 0
8, 5099, Note_on_c, 4, 69, 0
8, 5099, Note_on_c, 4, 72, 0
8, 5160, Note_on_c, 4, 72, 104
8, 5160, Note_on_c, 4, 69, 98
8, 5160, Note_on_c, 4, 63, 103
8, 5219, Note_on_c, 4, 63, 0
8, 5219, Note_on_c, 4, 69, 0
8, 5219, Note_on_c, 4, 72, 0
8, 5280, Note_on_c, 4, 72, 102
8, 5280, Note_on_c, 4, 69, 98
8, 5280, Note_on_c, 4, 63, 102
8, 5339, Note_on_c, 4, 63, 0
8, 5339, Note_on_c, 4, 69, 0
8, 5339, Note_on_c, 4, 72, 0
8, 5400, Note_on_c, 4, 72, 100
8, 5400, Note_on_c, 4, 69, 101
8, 5400, Note_on_c, 4, 63, 100
8, 5459, Note_on_c, 4, 63, 0
8, 5459, Note_on_c, 4, 69, 0
8, 5459, Note_on_c, 4, 72, 0
8, 5520, Note_on_c, 4, 72, 100
8, 5520, Note_on_c, 4, 69, 99
8, 5520, Note_on_c, 4, 63, 99
8, 5579, Note_on_c, 4, 63, 0
8, 5579, Note_on_c, 4, 69, 0
8, 5579, Note_on_c, 4, 72, 0
8, 5640, Note_on_c, 4, 72, 97
8, 5640, Note_on_c, 4, 69, 103
8, 5640, Note_on_c, 4, 63, 103
8, 5699, Note_on_c, 4, 63, 0
8, 5699, Note_on_c, 4, 69, 0
8, 5699, Note_on_c, 4, 72, 0
8, 5760, Note_on_c, 4, 62, 105
8, 5760, Note_on_c, 4, 65, 96
8, 5760, Note_on_c, 4, 69, 100
8, 5819, Note_on_c, 4, 69, 0
8, 5819, Note_on_c, 4, 65, 0
8, 5819, Note_on_c, 4, 62, 0
8, 5880, Note_on_c, 4, 69, 104
8, 5880, Note_on_c, 4, 65, 97
8, 5880, Note_on_c, 4, 62, 100
8, 5939, Note_on_c, 4, 62, 0
8, 5939, Note_on_c, 4, 65, 0
8, 5939, Note_on_c, 4, 69, 0
8, 6000, Note_on_c, 4, 69, 101
8, 6000, Note_on_c, 4, 65, 104
8, 6000, Note_on_c, 4, 62, 99
8, 6059, Note_on_c, 4, 62, 0
8, 6059, Note_on_c, 4, 65, 0
8, 6059, Note_on_c, 4, 69, 0
8, 6120, Note_on_c, 4, 69, 100
8, 6120, Note_on_c, 4, 65, 97
8, 6120, Note_on_c, 4, 62, 105
8, 6179, Note_on_c, 4, 62, 0
8, 6179, Note_on_c, 4, 65, 0
8, 6179, Note_on_c, 4, 69, 0
8, 6240, Note_on_c, 4, 70, 96
8, 6240, Note_on_c, 4, 65, 103
8, 6240, Note_on_c, 4, 62, 95
8, 6299, Note_on_c, 4, 62, 0
8, 6299, Note_on_c, 4, 65, 0
8, 6299, Note_on_c, 4, 70, 0
8, 6360, Note_on_c, 4, 65, 97
8, 6360, Note_on_c, 4, 70, 102
8, 6360, Note_on_c, 4, 62, 105
8, 6419, Note_on_c, 4, 62, 0
8, 6419, Note_on_c, 4, 70, 0
8, 6419, Note_on_c, 4, 65, 0
8, 6480, Note_on_c, 4, 72, 100
8, 6480, Note_on_c, 4, 67, 99
8, 6480, Note_on_c, 4, 64, 101
8, 6539, Note_on_c, 4, 64, 0
8, 6539, Note_on_c, 4, 67, 0
8, 6539, Note_on_c, 4, 72, 0
8, 6600, Note_on_c, 4, 72, 98
8, 6600, Note_on_c, 4, 67, 95
8, 6600, Note_on_c, 4, 64, 102
8, 6659, Note_on_c, 4, 64, 0
8, 6659, Note_on_c, 4, 67, 0
8, 6659, Note_on_c, 4, 72, 0
8, 6720, Note_on_c, 4, 65, 124
8, 6720, Note_on_c, 4, 69, 124
8, 6720, Note_on_c, 4, 60, 117
8, 7661, Note_on_c, 4, 60, 0
8, 7661, Note_on_c, 4, 69, 0
8, 7661, Note_on_c, 4, 65, 0
8, 7680, Note_on_c, 4, 69, 116
8, 7680, Note_on_c, 4, 64, 121
8, 7680, Note_on_c, 4, 60, 120
8, 8621, Note_on_c, 4, 60, 0
8, 8621, Note_on_c, 4, 64, 0
8, 8621, Note_on_c, 4, 69, 0
8, 8640, Note_on_c, 4, 65, 121
8, 8640, Note_on_c, 4, 62, 124
8, 8640, Note_on_c, 4, 57, 123
8, 9573, Note_on_c, 4, 65, 0
8, 9581, Note_on_c, 4, 57, 0
8, 9581, Note_on_c, 4, 62, 0
8, 9600, Note_on_c, 4, 61, 117
8, 9600, Note_on_c, 4, 65, 124
8, 9600, Note_on_c, 4, 70, 124
8, 9600, Note_on_c, 4, 58, 120
8, 10070, Note_on_c, 4, 58, 0
8, 10070, Note_on_c, 4, 61, 0
8, 10070, Note_on_c, 4, 65, 0
8, 10070, Note_on_c, 4, 70, 0
8, 10080, Note_on_c, 4, 60, 116
8, 10080, Note_on_c, 4, 64, 123
8, 10080, Note_on_c, 4, 55, 121
8, 10550, Note_on_c, 4, 55, 0
8, 10550, Note_on_c, 4, 64, 0
8, 10550, Note_on_c, 4, 60, 0
8, 10560, Note_on_c, 4, 65, 116
8, 10560, Note_on_c, 4, 69, 119
8, 10560, Note_on_c, 4, 60, 117
8, 11501, Note_on_c, 4, 60, 0
8, 11501, Note_on_c, 4, 69, 0
8, 11501, Note_on_c, 4, 65, 0
8, 11520, Note_on_c, 4, 69, 121
8, 11520, Note_on_c, 4, 64, 124
8, 11520, Note_on_c, 4, 60, 122
8, 12461, Note_on_c, 4, 60, 0
8, 12461, Note_on_c, 4, 64, 0
8, 12461, Note_on_c, 4, 69, 0
8, 12480, Note_on_c, 4, 65, 120
8, 12480, Note_on_c, 4, 62, 119
8, 12480, Note_on_c, 4, 57, 118
8, 13413, Note_on_c, 4, 65, 0
8, 13421, Note_on_c, 4, 57, 0
8, 13421, Note_on_c, 4, 62, 0
8, 13440, Note_on_c, 4, 61, 119
8, 13440, Note_on_c, 4, 65, 125
8, 13440, Note_on_c, 4, 70, 122
8, 13440, Note_on_c, 4, 58, 123
8, 13910, Note_on_c, 4, 58, 0
8, 13910, Note_on_c, 4, 61, 0
8, 13910, Note_on_c, 4, 65, 0
8, 13910, Note_on_c, 4, 70, 0
8, 13920, Note_on_c, 4, 60, 117
8, 13920, Note_on_c, 4, 64, 123
8, 13920, Note_on_c, 4, 55, 123
8, 14390, Note_on_c, 4, 55, 0
8, 14390, Note_on_c, 4, 64, 0
8, 14390, Note_on_c, 4, 60, 0
8, 14400, Note_on_c, 4, 62, 124
8, 14400, Note_on_c, 4, 53, 120
8, 14400, Note_on_c, 4, 58, 123
8, 14870, Note_on_c, 4, 58, 0
8, 14870, Note_on_c, 4, 53, 0
8, 14870, Note_on_c, 4, 62, 0
8, 14880, Note_on_c, 4, 55, 125
8, 14880, Note_on_c, 4, 60, 120
8, 14880, Note_on_c, 4, 64, 124
8, 15350, Note_on_c, 4, 64, 0
8, 15350, Note_on_c, 4, 60, 0
8, 15350, Note_on_c, 4, 55, 0
8, 15360, Note_on_c, 4, 62, 123
8, 15360, Note_on_c, 4, 53, 120
8, 15360, Note_on_c, 4, 58, 119
8, 15830, Note_on_c, 4, 58, 0
8, 15830, Note_on_c, 4, 53, 0
8, 15830, Note_on_c, 4, 62, 0
8, 15840, Note_on_c, 4, 55, 122
8, 15840, Note_on_c, 4, 60, 123
8, 15840, Note_on_c, 4, 64, 118
8, 16310, Note_on_c, 4, 64, 0
8, 16310, Note_on_c, 4, 60, 0
8, 16310, Note_on_c, 4, 55, 0
8, 16320, Note_on_c, 4, 55, 117
8, 16320, Note_on_c, 4, 60, 119
8, 16320, Note_on_c, 4, 64, 120
8, 16394, Note_on_c, 4, 64, 0
8, 16394, Note_on_c, 4, 60, 0
8, 16394, Note_on_c, 4, 55, 0
8, 17280, Note_on_c, 4, 72, 99
8, 17280, Note_on_c, 4, 65, 95
8, 17300, Note_on_c, 4, 69, 99
8, 17339, Note_on_c, 4, 65, 0
8, 17339, Note_on_c, 4, 72, 0
8, 17359, Note_on_c, 4, 69, 0
8, 17400, Note_on_c, 4, 65, 103
8, 17400, Note_on_c, 4, 72, 98
8, 17400, Note_on_c, 4, 69, 104
8, 17459, Note_on_c, 4, 69, 0
8, 17459, Note_on_c, 4, 72, 0
8, 17459, Note_on_c, 4, 65, 0
8, 17520, Note_on_c, 4, 72, 101
8, 17520, Note_on_c, 4, 65, 95
8, 17520, Note_on_c, 4, 69, 100
8, 17579, Note_on_c, 4, 69, 0
8, 17579, Note_on_c, 4, 65, 0
8, 17579, Note_on_c, 4, 72, 0
8, 17640, Note_on_c, 4, 65, 98
8, 17640, Note_on_c, 4, 72, 96
8, 17640, Note_on_c, 4, 69, 101
8, 17699, Note_on_c, 4, 69, 0
8, 17699, Note_on_c, 4, 72, 0
8, 17699, Note_on_c, 4, 65, 0
8, 17760, Note_on_c, 4, 65, 105
8, 17760, Note_on_c, 4, 72, 105
8, 17760, Note_on_c, 4, 69, 104
8, 17819, Note_on_c, 4, 69, 0
8, 17819, Note_on_c, 4, 72, 0
8, 17819, Note_on_c, 4, 65, 0
8, 17880, Note_on_c, 4, 65, 104
8, 17880, Note_on_c, 4, 72, 105
8, 17880, Note_on_c, 4, 69, 101
8, 17939, Note_on_c, 4, 69, 0
8, 17939, Note_on_c, 4, 72, 0
8, 17939, Note_on_c, 4, 65, 0
8, 18000, Note_on_c, 4, 72, 104
8, 18000, Note_on_c, 4, 65, 101
8, 18000, Note_on_c, 4, 69, 102
8, 18059, Note_on_c, 4, 69, 0
8, 18059, Note_on_c, 4, 65, 0
8, 18059, Note_on_c, 4, 72, 0
8, 18120, Note_on_c, 4, 65, 100
8, 18120, Note_on_c, 4, 72, 100
8, 18120, Note_on_c, 4, 69, 102
8, 18179, Note_on_c, 4, 69, 0
8, 18179, Note_on_c, 4, 72, 0
8, 18179, Note_on_c, 4, 65, 0
8, 18240, Note_on_c, 4, 64, 99
8, 18240, Note_on_c, 4, 69, 99
8, 18240, Note_on_c, 4, 72, 99
8, 18299, Note_on_c, 4, 72, 0
8, 18299, Note_on_c, 4, 69, 0
8, 18299, Note_on_c, 4, 64, 0
8, 18360, Note_on_c, 4, 64, 97
8, 18360, Note_on_c, 4, 72, 100
8, 18360, Note_on_c, 4, 69, 100
8, 18419, Note_on_c, 4, 69, 0
8, 18419, Note_on_c, 4, 72, 0
8, 18419, Note_on_c, 4, 64, 0
8, 18480, Note_on_c, 4, 64, 100
8, 18480, Note_on_c, 4, 72, 100
8, 18480, Note_on_c, 4, 69, 100
8, 18539, Note_on_c, 4, 69, 0
8, 18539, Note_on_c, 4, 72, 0
8, 18539, Note_on_c, 4, 64, 0
8, 18600, Note_on_c, 4, 64, 97
8, 18600, Note_on_c, 4, 72, 97
8, 18600, Note_on_c, 4, 69, 100
8, 18659, Note_on_c, 4, 69, 0
8, 18659, Note_on_c, 4, 72, 0
8, 18659, Note_on_c, 4, 64, 0
8, 18720, Note_on_c, 4, 64, 96
8, 18720, Note_on_c, 4, 72, 97
8, 18720, Note_on_c, 4, 69, 102
8, 18779, Note_on_c, 4, 69, 0
8, 18779, Note_on_c, 4, 72, 0
8, 18779, Note_on_c, 4, 64, 0
8, 18840, Note_on_c, 4, 72, 101
8, 18840, Note_on_c, 4, 69, 95
8, 18840, Note_on_c, 4, 64, 104
8, 18899, Note_on_c, 4, 64, 0
8, 18899, Note_on_c, 4, 69, 0
8, 18899, Note_on_c, 4, 72, 0
8, 18960, Note_on_c, 4, 72, 100
8, 18960, Note_on_c, 4, 69, 99
8, 18960, Note_on_c, 4, 64, 97
8, 19019, Note_on_c, 4, 64, 0
8, 19019, Note_on_c, 4, 69, 0
8, 19019, Note_on_c, 4, 72, 0
8, 19080, Note_on_c, 4, 72, 102
8, 19080, Note_on_c, 4, 64, 104
8, 19080, Note_on_c, 4, 69, 103
8, 19139, Note_on_c, 4, 69, 0
8, 19139, Note_on_c, 4, 64, 0
8, 19139, Note_on_c, 4, 72, 0
8, 19200, Note_on_c, 4, 72, 103
8, 19200, Note_on_c, 4, 69, 97
8, 19200, Note_on_c, 4, 63, 104
8, 19259, Note_on_c, 4, 63, 0
8, 19259, Note_on_c, 4, 69, 0
8, 19259, Note_on_c, 4, 72, 0
8, 19320, Note_on_c, 4, 72, 99
8, 19320, Note_on_c, 4, 69, 95
8, 19320, Note_on_c, 4, 63, 101
8, 19379, Note_on_c, 4, 63, 0
8, 19379, Note_on_c, 4, 69, 0
8, 19379, Note_on_c, 4, 72, 0
8, 19440, Note_on_c, 4, 72, 105
8, 19440, Note_on_c, 4, 69, 104
8, 19440, Note_on_c, 4, 63, 96
8, 19499, Note_on_c, 4, 63, 0
8, 19499, Note_on_c, 4, 69, 0
8, 19499, Note_on_c, 4, 72, 0
8, 19560, Note_on_c, 4, 72, 104
8, 19560, Note_on_c, 4, 69, 100
8, 19560, Note_on_c, 4, 63, 101
8, 19619, Note_on_c, 4, 63, 0
8, 19619, Note_on_c, 4, 69, 0
8, 19619, Note_on_c, 4, 72, 0
8, 19680, Note_on_c, 4, 72, 103
8, 19680, Note_on_c, 4, 69, 100
8, 19680, Note_on_c, 4, 63, 96
8, 19739, Note_on_c, 4, 63, 0
8, 19739, Note_on_c, 4, 69, 0
8, 19739, Note_on_c, 4, 72, 0
8, 19800, Note_on_c, 4, 72, 100
8, 19800, Note_on_c, 4, 69, 98
8, 19800, Note_on_c, 4, 63, 95
8, 19859, Note_on_c, 4, 63, 0
8, 19859, Note_on_c, 4, 69, 0
8, 19859, Note_on_c, 4, 72, 0
8, 19920, Note_on_c, 4, 72, 97
8, 19920, Note_on_c, 4, 69, 97
8, 19920, Note_on_c, 4, 63, 102
8, 19979, Note_on_c, 4, 63, 0
8, 19979, Note_on_c, 4, 69, 0
8, 19979, Note_on_c, 4, 72, 0
8, 20040, Note_on_c, 4, 72, 96
8, 20040, Note_on_c, 4, 69, 100
8, 20040, Note_on_c, 4, 63, 100
8, 20099, Note_on_c, 4, 63, 0
8, 20099, Note_on_c, 4, 69, 0
8, 20099, Note_on_c, 4, 72, 0
8, 20160, Note_on_c, 4, 62, 99
8, 20160, Note_on_c, 4, 65, 97
8, 20160, Note_on_c, 4, 69, 98
8, 20219, Note_on_c, 4, 69, 0
8, 20219, Note_on_c, 4, 65, 0
8, 20219, Note_on_c, 4, 62, 0
8, 20280, Note_on_c, 4, 69, 100
8, 20280, Note_on_c, 4, 65, 99
8, 20280, Note_on_c, 4, 62, 102
8, 20339, Note_on_c, 4, 62, 0
8, 20339, Note_on_c, 4, 65, 0
8, 20339, Note_on_c, 4, 69, 0
8, 20400, Note_on_c, 4, 69, 102
8, 20400, Note_on_c, 4, 65, 103
8, 20400, Note_on_c, 4, 62, 98
8, 20459, Note_on_c, 4, 62, 0
8, 20459, Note_on_c, 4, 65, 0
8, 20459, Note_on_c, 4, 69, 0
8, 20520, Note_on_c, 4, 69, 101
8, 20520, Note_on_c, 4, 65, 103
8, 20520, Note_on_c, 4, 62, 103
8, 20579, Note_on_c, 4, 62, 0
8, 20579, Note_on_c, 4, 65, 0
8, 20579, Note_on_c, 4, 69, 0
8, 20640, Note_on_c, 4, 70, 98
8, 20640, Note_on_c, 4, 65, 102
8, 20640, Note_on_c, 4, 62, 105
8, 20699, Note_on_c, 4, 62, 0
8, 20699, Note_on_c, 4, 65, 0
8, 20699, Note_on_c, 4, 70, 0
8, 20760, Note_on_c, 4, 65, 96
8, 20760, Note_on_c, 4, 70, 100
8, 20760, Note_on_c, 4, 62, 101
8, 20819, Note_on_c, 4, 62, 0
8, 20819, Note_on_c, 4, 70, 0
8, 20819, Note_on_c, 4, 65, 0
8, 20880, Note_on_c, 4, 72, 95
8, 20880, Note_on_c, 4, 67, 96
8, 20880, Note_on_c, 4, 64, 99
8, 20939, Note_on_c, 4, 64, 0
8, 20939, Note_on_c, 4, 67, 0
8, 20939, Note_on_c, 4, 72, 0
8, 21000, Note_on_c, 4, 72, 99
8, 21000, Note_on_c, 4, 67, 98
8, 21000, Note_on_c, 4, 64, 97
8, 21059, Note_on_c, 4, 64, 0
8, 21059, Note_on_c, 4, 67, 0
8, 21059, Note_on_c, 4, 72, 0
8, 21120, Note_on_c, 4, 72, 101
8, 21120, Note_on_c, 4, 65, 100
8, 21140, Note_on_c, 4, 69, 99
8, 21179, Note_on_c, 4, 65, 0
8, 21179, Note_on_c, 4, 72, 0
8, 21199, Note_on_c, 4, 69, 0
8, 21240, Note_on_c, 4, 65, 105
8, 21240, Note_on_c, 4, 72, 98
8, 21240, Note_on_c, 4, 69, 99
8, 21299, Note_on_c, 4, 69, 0
8, 21299, Note_on_c, 4, 72, 0
8, 21299, Note_on_c, 4, 65, 0
8, 21360, Note_on_c, 4, 72, 103
8, 21360, Note_on_c, 4, 65, 100
8, 21360, Note_on_c, 4, 69, 101
8, 21419, Note_on_c, 4, 69, 0
8, 21419, Note_on_c, 4, 65, 0
8, 21419, Note_on_c, 4, 72, 0
8, 21480, Note_on_c, 4, 65, 101
8, 21480, Note_on_c, 4, 72, 103
8, 21480, Note_on_c, 4, 69, 96
8, 21539, Note_on_c, 4, 69, 0
8, 21539, Note_on_c, 4, 72, 0
8, 21539, Note_on_c, 4, 65, 0
8, 21600, Note_on_c, 4, 65, 103
8, 21600, Note_on_c, 4, 72, 105
8, 21600, Note_on_c, 4, 69, 100
8, 21659, Note_on_c, 4, 69, 0
8, 21659, Note_on_c, 4, 72, 0
8, 21659, Note_on_c, 4, 65, 0
8, 21720, Note_on_c, 4, 65, 99
8, 21720, Note_on_c, 4, 72, 97
8, 21720, Note_on_c, 4, 69, 97
8, 21779, Note_on_c, 4, 69, 0
8, 21779, Note_on_c, 4, 72, 0
8, 21779, Note_on_c, 4, 65, 0
8, 21840, Note_on_c, 4, 72, 103
8, 21840, Note_on_c, 4, 65, 96
8, 21840, Note_on_c, 4, 69, 99
8, 21899, Note_on_c, 4, 69, 0
8, 21899, Note_on_c, 4, 65, 0
8, 21899, Note_on_c, 4, 72, 0
8, 21960, Note_on_c, 4, 65, 95
8, 21960, Note_on_c, 4, 72, 104
8, 21960, Note_on_c, 4, 69, 97
8, 22019, Note_on_c, 4, 69, 0
8, 22019, Note_on_c, 4, 72, 0
8, 22019, Note_on_c, 4, 65, 0
8, 22080, Note_on_c, 4, 64, 96
8, 22080, Note_on_c, 4, 69, 105
8, 22080, Note_on_c, 4, 72, 96
8, 22139, Note_on_c, 4, 72, 0
8, 22139, Note_on_c, 4, 69, 0
8, 22139, Note_on_c, 4, 64, 0
8, 22200, Note_on_c, 4, 64, 101
8, 22200, Note_on_c, 4, 72, 103
8, 22200, Note_on_c, 4, 69, 104
8, 22259, Note_on_c, 4, 69, 0
8, 22259, Note_on_c, 4, 72, 0
8, 22259, Note_on_c, 4, 64, 0
8, 22320, Note_on_c, 4, 64, 96
8, 22320, Note_on_c, 4, 72, 105
8, 22320, Note_on_c, 4, 69, 96
8, 22379, Note_on_c, 4, 69, 0
8, 22379, Note_on_c, 4, 72, 0
8, 22379, Note_on_c, 4, 64, 0
8, 22440, Note_on_c, 4, 64, 104
8, 22440, Note_on_c, 4, 72, 95
8, 22440, Note_on_c, 4, 69, 103
8, 22499, Note_on_c, 4, 69, 0
8, 22499, Note_on_c, 4, 72, 0
8, 22499, Note_on_c, 4, 64, 0
8, 22560, Note_on_c, 4, 64, 99
8, 22560, Note_on_c, 4, 72, 99
8, 22560, Note_on_c, 4, 69, 100
8, 22619, Note_on_c, 4, 69, 0
8, 22619, Note_on_c, 4, 72, 0
8, 22619, Note_on_c, 4, 64, 0
8, 22680, Note_on_c, 4, 72, 105
8, 22680, Note_on_c, 4, 69, 96
8, 22680, Note_on_c, 4, 64, 97
8, 22739, Note_on_c, 4, 64, 0
8, 22739, Note_on_c, 4, 69, 0
8, 22739, Note_on_c, 4, 72, 0
8, 22800, Note_on_c, 4, 72, 104
8, 22800, Note_on_c, 4, 69, 99
8, 22800, Note_on_c, 4, 64, 103
8, 22859, Note_on_c, 4, 64, 0
8, 22859, Note_on_c, 4, 69, 0
8, 22859, Note_on_c, 4, 72, 0
8, 22920, Note_on_c, 4, 72, 104
8, 22920, Note_on_c, 4, 64, 104
8, 22920, Note_on_c, 4, 69, 96
8, 22979, Note_on_c, 4, 69, 0
8, 22979, Note_on_c, 4, 64, 0
8, 22979, Note_on_c, 4, 72, 0
8, 23040, Note_on_c, 4, 72, 101
8, 23040, Note_on_c, 4, 69, 99
8, 23040, Note_on_c, 4, 63, 103
8, 23099, Note_on_c, 4, 63, 0
8, 23099, Note_on_c, 4, 69, 0
8, 23099, Note_on_c, 4, 72, 0
8, 23160, Note_on_c, 4, 72, 101
8, 23160, Note_on_c, 4, 69, 105
8, 23160, Note_on_c, 4, 63, 103
8, 23219, Note_on_c, 4, 63, 0
8, 23219, Note_on_c, 4, 69, 0
8, 23219, Note_on_c, 4, 72, 0
8, 23280, Note_on_c, 4, 72, 97
8, 23280, Note_on_c, 4, 69, 99
8, 23280, Note_on_c, 4, 63, 104
8, 23339, Note_on_c, 4, 63, 0
8, 23339, Note_on_c, 4, 69, 0
8, 23339, Note_on_c, 4, 72, 0
8, 23400, Note_on_c, 4, 72, 100
8, 23400, Note_on_c, 4, 69, 100
8, 23400, Note_on_c, 4, 63, 101
8, 23459, Note_on_c, 4, 63, 0
8, 23459, Note_on_c, 4, 69, 0
8, 23459, Note_on_c, 4, 72, 0
8, 23520, Note_on_c, 4, 72, 100
8, 23520, Note_on_c, 4, 69, 100
8, 23520, Note_on_c, 4, 63, 99
8, 23579, Note_on_c, 4, 63, 0
8, 23579, Note_on_c, 4, 69, 0
8, 23579, Note_on_c, 4, 72, 0
8, 23640, Note_on_c, 4, 72, 100
8, 23640, Note_on_c, 4, 69, 101
8, 23640, Note_on_c, 4, 63, 96
8, 23699, Note_on_c, 4, 63, 0
8, 23699, Note_on_c, 4, 69, 0
8, 23699, Note_on_c, 4, 72, 0
8, 23760, Note_on_c, 4, 72, 99
8, 23760, Note_on_c, 4, 69, 102
8, 23760, Note_on_c, 4, 63, 103
8, 23819, Note_on_c, 4, 63, 0
8, 23819, Note_on_c, 4, 69, 0
8, 23819, Note_on_c, 4, 72, 0
8, 23880, Note_on_c, 4, 72, 104
8, 23880, Note_on_c, 4, 69, 103
8, 23880, Note_on_c, 4, 63, 96
8, 23939, Note_on_c, 4, 63, 0
8, 23939, Note_on_c, 4, 69, 0
8, 23939, Note_on_c, 4, 72, 0
8, 24000, Note_on_c, 4, 62, 101
8, 24000, Note_on_c, 4, 65, 95
8, 24000, Note_on_c, 4, 69, 101
8, 24059, Note_on_c, 4, 69, 0
8, 24059, Note_on_c, 4, 65, 0
8, 24059, Note_on_c, 4, 62, 0
8, 24120, Note_on_c, 4, 69, 104
8, 24120, Note_on_c, 4, 65, 96
8, 24120, Note_on_c, 4, 62, 99
8, 24179, Note_on_c, 4, 62, 0
8, 24179, Note_on_c, 4, 65, 0
8, 24179, Note_on_c, 4, 69, 0
8, 24240, Note_on_c, 4, 69, 105
8, 24240, Note_on_c, 4, 65, 101
8, 24240, Note_on_c, 4, 62, 98
8, 24299, Note_on_c, 4, 62, 0
8, 24299, Note_on_c, 4, 65, 0
8, 24299, Note_on_c, 4, 69, 0
8, 24360, Note_on_c, 4, 69, 104
8, 24360, Note_on_c, 4, 65, 97
8, 24360, Note_on_c, 4, 62, 100
8, 24419, Note_on_c, 4, 62, 0
8, 24419, Note_on_c, 4, 65, 0
8, 24419, Note_on_c, 4, 69, 0
8, 24480, Note_on_c, 4, 70, 98
8, 24480, Note_on_c, 4, 65, 99
8, 24480, Note_on_c, 4, 62, 103
8, 24539, Note_on_c, 4, 62, 0
8, 24539, Note_on_c, 4, 65, 0
8, 24539, Note_on_c, 4, 70, 0
8, 24600, Note_on_c, 4, 65, 98
8, 24600, Note_on_c, 4, 70, 100
8, 24600, Note_on_c, 4, 62, 101
8, 24659, Note_on_c, 4, 62, 0
8, 24659, Note_on_c, 4, 70, 0
8, 24659, Note_on_c, 4, 65, 0
8, 24720, Note_on_c, 4, 72, 99
8, 24720, Note_on_c, 4, 67, 98
8, 24720, Note_on_c, 4, 64, 104
8, 24779, Note_on_c, 4, 64, 0
8, 24779, Note_on_c, 4, 67, 0
8, 24779, Note_on_c, 4, 72, 0
8, 24840, Note_on_c, 4, 72, 102
8, 24840, Note_on_c, 4, 67, 97
8, 24840, Note_on_c, 4, 64, 105
8, 24899, Note_on_c, 4, 64, 0
8, 24899, Note_on_c, 4, 67, 0
8, 24899, Note_on_c, 4, 72, 0
8, 24960, Note_on_c, 4, 65, 117
8, 24960, Note_on_c, 4, 69, 117
8, 24960, Note_on_c, 4, 60, 120
8, 25901, Note_on_c, 4, 60, 0
8, 25901, Note_on_c, 4, 69, 0
8, 25901, Note_on_c, 4, 65, 0
8, 25920, Note_on_c, 4, 69, 123
8, 25920, Note_on_c, 4, 64, 122
8, 25920, Note_on_c, 4, 60, 115
8, 26861, Note_on_c, 4, 60, 0
8, 26861, Note_on_c, 4, 64, 0
8, 26861, Note_on_c, 4, 69, 0
8, 26880, Note_on_c, 4, 65, 117
8, 26880, Note_on_c, 4, 62, 116
8, 26880, Note_on_c, 4, 57, 120
8, 27813, Note_on_c, 4, 65, 0
8, 27821, Note_on_c, 4, 57, 0
8, 27821, Note_on_c, 4, 62, 0
8, 27840, Note_on_c, 4, 61, 117
8, 27840, Note_on_c, 4, 65, 120
8, 27840, Note_on_c, 4, 70, 125
8, 27840, Note_on_c, 4, 58, 115
8, 28310, Note_on_c, 4, 58, 0
8, 28310, Note_on_c, 4, 61, 0
8, 28310, Note_on_c, 4, 65, 0
8, 28310, Note_on_c, 4, 70, 0
8, 28320, Note_on_c, 4, 60, 121
8, 28320, Note_on_c, 4, 64, 120
8, 28320, Note_on_c, 4, 55, 119
8, 28790, Note_on_c, 4, 55, 0
8, 28790, Note_on_c, 4, 64, 0
8, 28790, Note_on_c, 4, 60, 0
8, 28800, Note_on_c, 4, 65, 121
8, 28800, Note_on_c, 4, 69, 120
8, 28800, Note_on_c, 4, 60, 121
8, 29741, Note_on_c, 4, 60, 0
8, 29741, Note_on_c, 4, 69, 0
8, 29741, Note_on_c, 4, 65, 0
8, 29760, Note_on_c, 4, 69, 117
8, 29760, Note_on_c, 4, 64, 125
8, 29760, Note_on_c, 4, 60, 116
8, 30701, Note_on_c, 4, 60, 0
8, 30701, Note_on_c, 4, 64, 0
8, 30701, Note_on_c, 4, 69, 0
8, 30720, Note_on_c, 4, 65, 119
8, 30720, Note_on_c, 4, 62, 117
8, 30720, Note_on_c, 4, 57, 120
8, 31653, Note_on_c, 4, 65, 0
8, 31661, Note_on_c, 4, 57, 0
8, 31661, Note_on_c, 4, 62, 0
8, 31680, Note_on_c, 4, 61, 120
8, 31680, Note_on_c, 4, 65, 118
8, 31680, Note_on_c, 4, 70, 117
8, 31680, Note_on_c, 4, 58, 118
8, 32150, Note_on_c, 4, 58, 0
8, 32150, Note_on_c, 4, 61, 0
8, 32150, Note_on_c, 4, 65, 0
8, 32150, Note_on_c, 4, 70, 0
8, 32160, Note_on_c, 4, 60, 118
8, 32160, Note_on_c, 4, 64, 116
8, 32160, Note_on_c, 4, 55, 123
8, 32630, Note_on_c, 4, 55, 0
8, 32630, Note_on_c, 4, 64, 0
8, 32630, Note_on_c, 4, 60, 0
8, 32640, Note_on_c, 4, 62, 120
8, 32640, Note_on_c, 4, 53, 120
8, 32640, Note_on_c, 4, 58, 116
8, 33110, Note_on_c, 4, 58, 0
8, 33110, Note_on_c, 4, 53, 0
8, 33110, Note_on_c, 4, 62, 0
8, 33120, Note_on_c, 4, 55, 121
8, 33120, Note_on_c, 4, 60, 124
8, 33120, Note_on_c, 4, 64, 123
8, 33590, Note_on_c, 4, 64, 0
8, 33590, Note_on_c, 4, 60, 0
8, 33590, Note_on_c, 4, 55, 0
8, 33600, Note_on_c, 4, 62, 119
8, 33600, Note_on_c, 4, 53, 118
8, 33600, Note_on_c, 4, 58, 119
8, 34070, Note_on_c, 4, 58, 0
8, 34070, Note_on_c, 4, 53, 0
8, 34070, Note_on_c, 4, 62, 0
8, 34080, Note_on_c, 4, 55, 120
8, 34080, Note_on_c, 4, 60, 124
8, 34080, Note_on_c, 4, 64, 116
8, 34550, Note_on_c, 4, 64, 0
8, 34550, Note_on_c, 4, 60, 0
8, 34550, Note_on_c, 4, 55, 0
8, 34560, Note_on_c, 4, 55, 124
8, 34560, Note_on_c, 4, 60, 124
8, 34560, Note_on_c, 4, 64, 124
8, 34634, Note_on_c, 4, 64, 0
8, 34634, Note_on_c, 4, 60, 0
8, 34634, Note_on_c, 4, 55, 0
8, 35520, Note_on_c, 4, 72, 95
8, 35520, Note_on_c, 4, 65, 97
8, 35540, Note_on_c, 4, 69, 104
8, 35579, Note_on_c, 4, 65, 0
8, 35579, Note_on_c, 4, 72, 0
8, 35599, Note_on_c, 4, 69, 0
8, 35640, Note_on_c, 4, 65, 98
8, 35640, Note_on_c, 4, 72, 102
8, 35640, Note_on_c, 4, 69, 103
8, 35699, Note_on_c, 4, 69, 0
8, 35699, Note_on_c, 4, 72, 0
8, 35699, Note_on_c, 4, 65, 0
8, 35760, Note_on_c, 4, 72, 97
8, 35760, Note_on_c, 4, 65, 98
8, 35760, Note_on_c, 4, 69, 98
8, 35819, Note_on_c, 4, 69, 0
8, 35819, Note_on_c, 4, 65, 0
8, 35819, Note_on_c, 4, 72, 0
8, 35880, Note_on_c, 4, 65, 100
8, 35880, Note_on_c, 4, 72, 103
8, 35880, Note_on_c, 4, 69, 96
8, 35939, Note_on_c, 4, 69, 0
8, 35939, Note_on_c, 4, 72, 0
8, 35939, Note_on_c, 4, 65, 0
8, 36000, Note_on_c, 4, 65, 104
8, 36000, Note_on_c, 4, 72, 96
8, 36000, Note_on_c, 4, 69, 101
8, 36059, Note_on_c, 4, 69, 0
8, 36059, Note_on_c, 4, 72, 0
8, 36059, Note_on_c, 4, 65, 0
8, 36120, Note_on_c, 4, 65, 100
8, 36120, Note_on_c, 4, 72, 99
8, 36120, Note_on_c, 4, 69, 101
8, 36179, Note_on_c, 4, 69, 0
8, 36179, Note_on_c, 4, 72, 0
8, 36179, Note_on_c, 4, 65, 0
8, 36240, Note_on_c, 4, 72, 105
8, 36240, Note_on_c, 4, 65, 103
8, 36240, Note_on_c, 4, 69, 102
8, 36299, Note_on_c, 4, 69, 0
8, 36299, Note_on_c, 4, 65, 0
8, 36299, Note_on_c, 4, 72, 0
8, 36360, Note_on_c, 4, 65, 95
8, 36360, Note_on_c, 4, 72, 105
8, 36360, Note_on_c, 4, 69, 96
8, 36419, Note_on_c, 4, 69, 0
8, 36419, Note_on_c, 4, 72, 0
8, 36419, Note_on_c, 4, 65, 0
8, 36480, Note_on_c, 4, 64, 97
8, 36480, Note_on_c, 4, 69, 100
8, 36480, Note_on_c, 4, 72, 104
8, 36539, Note_on_c, 4, 72, 0
8, 36539, Note_on_c, 4, 69, 0
8, 36539, Note_on_c, 4, 64, 0
8, 36600, Note_on_c, 4, 64, 96
8, 36600, Note_on_c, 4, 72, 103
8, 36600, Note_on_c, 4, 69, 100
8, 36659, Note_on_c, 4, 69, 0
8, 36659, Note_on_c, 4, 72, 0
8, 36659, Note_on_c, 4, 64, 0
8, 36720, Note_on_c, 4, 64, 99
8, 36720, Note_on_c, 4, 72, 99
8, 36720, Note_on_c, 4, 69, 104
8, 36779, Note_on_c, 4, 69, 0
8, 36779, Note_on_c, 4, 72, 0
8, 36779, Note_on_c, 4, 64, 0
8, 36840, Note_on_c, 4, 64, 103
8, 36840, Note_on_c, 4, 72, 101
8, 36840, Note_on_c, 4, 69, 103
8, 36899, Note_on_c, 4, 69, 0
8, 36899, Note_on_c, 4, 72, 0
8, 36899, Note_on_c, 4, 64, 0
8, 36960, Note_on_c, 4, 64, 99
8, 36960, Note_on_c, 4, 72, 100
8, 36960, Note_on_c, 4, 69, 100
8, 37019, Note_on_c, 4, 69, 0
8, 37019, Note_on_c, 4, 72, 0
8, 37019, Note_on_c, 4, 64, 0
8, 37080, Note_on_c, 4, 72, 99
8, 37080, Note_on_c, 4, 69, 105
8, 37080, Note_on_c, 4, 64, 103
8, 37139, Note_on_c, 4, 64, 0
8, 37139, Note_on_c, 4, 69, 0
8, 37139, Note_on_c, 4, 72, 0
8, 37200, Note_on_c, 4, 72, 99
8, 37200, Note_on_c, 4, 69, 103
8, 37200, Note_on_c, 4, 64, 99
8, 37259, Note_on_c, 4, 64, 0
8, 37259, Note_on_c, 4, 69, 0
8, 37259, Note_on_c, 4, 72, 0
8, 37320, Note_on_c, 4, 72, 102
8, 37320, Note_on_c, 4, 64, 95
8, 37320, Note_on_c, 4, 69, 101
8, 37379, Note_on_c, 4, 69, 0
8, 37379, Note_on_c, 4, 64, 0
8, 37379, Note_on_c, 4, 72, 0
8, 37440, Note_on_c, 4, 72, 104
8, 37440, Note_on_c, 4, 69, 100
8, 37440, Note_on_c, 4, 63, 103
8, 37499, Note_on_c, 4, 63, 0
8, 37499, Note_on_c, 4, 69, 0
8, 37499, Note_on_c, 4, 72, 0
8, 37560, Note_on_c, 4, 72, 96
8, 37560, Note_on_c, 4, 69, 100
8, 37560, Note_on_c, 4, 63, 96
8, 37619, Note_on_c, 4, 63, 0
8, 37619, Note_on_c, 4, 69, 0
8, 37619, Note_on_c, 4, 72, 0
8, 37680, Note_on_c, 4, 72, 103
8, 37680, Note_on_c, 4, 69, 102
8, 37680, Note_on_c, 4, 63, 105
8, 37739, Note_on_c, 4, 63, 0
8, 37739, Note_on_c, 4, 69, 0
8, 37739, Note_on_c, 4, 72, 0
8, 37800, Note_on_c, 4, 72, 105
8, 37800, Note_on_c, 4, 69, 95
8, 37800, Note_on_c, 4, 63, 95
8, 37859, Note_on_c, 4, 63, 0
8, 37859, Note_on_c, 4, 69, 0
8, 37859, Note_on_c, 4, 72, 0
8, 37920, Note_on_c, 4, 72, 102
8, 37920, Note_on_c, 4, 69, 96
8, 37920, Note_on_c, 4, 63, 101
8, 37979, Note_on_c, 4, 63, 0
8, 37979, Note_on_c, 4, 69, 0
8, 37979, Note_on_c, 4, 72, 0
8, 38040, Note_on_c, 4, 72, 97
8, 38040, Note_on_c, 4, 69, 100
8, 38040, Note_on_c, 4, 63, 100
8, 38099, Note_on_c, 4, 63, 0
8, 38099, Note_on_c, 4, 69, 0
8, 38099, Note_on_c, 4, 72, 0
8, 38160, Note_on_c, 4, 72, 100
8, 38160, Note_on_c, 4, 69, 100
8, 38160, Note_on_c, 4, 63, 100
8, 38219, Note_on_c, 4, 63, 0
8, 38219, Note_on_c, 4, 69, 0
8, 38219, Note_on_c, 4, 72, 0
8, 38280, Note_on_c, 4, 72, 104
8, 38280, Note_on_c, 4, 69, 100
8, 38280, Note_on_c, 4, 63, 100
8, 38339, Note_on_c, 4, 63, 0
8, 38339, Note_on_c, 4, 69, 0
8, 38339, Note_on_c, 4, 72, 0
8, 38400, Note_on_c, 4, 62, 99
8, 38400, Note_on_c, 4, 65, 103
8, 38400, Note_on_c, 4, 69, 99
8, 38459, Note_on_c, 4, 69, 0
8, 38459, Note_on_c, 4, 65, 0
8, 38459, Note_on_c, 4, 62, 0
8, 38520, Note_on_c, 4, 69, 96
8, 38520, Note_on_c, 4, 65, 99
8, 38520, Note_on_c, 4, 62, 101
8, 38579, Note_on_c, 4, 62, 0
8, 38579, Note_on_c, 4, 65, 0
8, 38579, Note_on_c, 4, 69, 0
8, 38640, Note_on_c, 4, 69, 104
8, 38640, Note_on_c, 4, 65, 100
8, 38640, Note_on_c, 4, 62, 104
8, 38699, Note_on_c, 4, 62, 0
8, 38699, Note_on_c, 4, 65, 0
8, 38699, Note_on_c, 4, 69, 0
8, 38760, Note_on_c, 4, 69, 98
8, 38760, Note_on_c, 4, 65, 100
8, 38760, Note_on_c, 4, 62, 98
8, 38819, Note_on_c, 4, 62, 0
8, 38819, Note_on_c, 4, 65, 0
8, 38819, Note_on_c, 4, 69, 0
8, 38880, Note_on_c, 4, 70, 98
8, 38880, Note_on_c, 4, 65, 99
8, 38880, Note_on_c, 4, 62, 104
8, 38939, Note_on_c, 4, 62, 0
8, 38939, Note_on_c, 4, 65, 0
8, 38939, Note_on_c, 4, 70, 0
8, 39000, Note_on_c, 4, 65, 96
8, 39000, Note_on_c, 4, 70, 101
8, 39000, Note_on_c, 4, 62, 99
8, 39059, Note_on_c, 4, 62, 0
8, 39059, Note_on_c, 4, 70, 0
8, 39059, Note_on_c, 4, 65, 0
8, 39120, Note_on_c, 4, 72, 97
8, 39120, Note_on_c, 4, 67, 99
8, 39120, Note_on_c, 4, 64, 102
8, 39179, Note_on_c, 4, 64, 0
8, 39179, Note_on_c, 4, 67, 0
8, 39179, Note_on_c, 4, 72, 0
8, 39240, Note_on_c, 4, 72, 97
8, 39240, Note_on_c, 4, 67, 101
8, 39240, Note_on_c, 4, 64, 104
8, 39299, Note_on_c, 4, 64, 0
8, 39299, Note_on_c, 4, 67, 0
8, 39299, Note_on_c, 4, 72, 0
8, 39360, Note_on_c, 4, 72, 99
8, 39360, Note_on_c, 4, 65, 97
8, 39380, Note_on_c, 4, 69, 103
8, 39419, Note_on_c, 4, 65, 0
8, 39419, Note_on_c, 4, 72, 0
8, 39439, Note_on_c, 4, 69, 0
8, 39480, Note_on_c, 4, 65, 95
8, 39480, Note_on_c, 4, 72, 99
8, 39480, Note_on_c, 4, 69, 97
8, 39539, Note_on_c, 4, 69, 0
8, 39539, Note_on_c, 4, 72, 0
8, 39539, Note_on_c, 4, 65, 0
8, 39600, Note_on_c, 4, 72, 97
8, 39600, Note_on_c, 4, 65, 102
8, 39600, Note_on_c, 4, 69, 102
8, 39659, Note_on_c, 4, 69, 0
8, 39659, Note_on_c, 4, 65, 0
8, 39659, Note_on_c, 4, 72, 0
8, 39720, Note_on_c, 4, 65, 100
8, 39720, Note_on_c, 4, 72, 103
8, 39720, Note_on_c, 4, 69, 105
8, 39779, Note_on_c, 4, 69, 0
8, 39779, Note_on_c, 4, 72, 0
8, 39779, Note_on_c, 4, 65, 0
8, 39840, Note_on_c, 4, 65, 102
8, 39840, Note_on_c, 4, 72, 97
8, 39840, Note_on_c, 4, 69, 96
8, 39899, Note_on_c, 4, 69, 0
8, 39899, Note_on_c, 4, 72, 0
8, 39899, Note_on_c, 4, 65, 0
8, 39960, Note_on_c, 4, 65, 101
8, 39960, Note_on_c, 4, 72, 100
8, 39960, Note_on_c, 4, 69, 101
8, 40019, Note_on_c, 4, 69, 0
8, 40019, Note_on_c, 4, 72, 0
8, 40019, Note_on_c, 4, 65, 0
8, 40080, Note_on_c, 4, 72, 100
8, 40080, Note_on_c, 4, 65, 104
8, 40080, Note_on_c, 4, 69, 104
8, 40139, Note_on_c, 4, 69, 0
8, 40139, Note_on_c, 4, 65, 0
8, 40139, Note_on_c, 4, 72, 0
8, 40200, Note_on_c, 4, 65, 99
8, 40200, Note_on_c, 4, 72, 99
8, 40200, Note_on_c, 4, 69, 99
8, 40259, Note_on_c, 4, 69, 0
8, 40259, Note_on_c, 4, 72, 0
8, 40259, Note_on_c, 4, 65, 0
8, 40320, Note_on_c, 4, 64, 103
8, 40320, Note_on_c, 4, 69, 96
8, 40320, Note_on_c, 4, 72, 103
8, 40379, Note_on_c, 4, 72, 0
8, 40379, Note_on_c, 4, 69, 0
8, 40379, Note_on_c, 4, 64, 0
8, 40440, Note_on_c, 4, 64, 101
8, 40440, Note_on_c, 4, 72, 103
8, 40440, Note_on_c, 4, 69, 98
8, 40499, Note_on_c, 4, 69, 0
8, 40499, Note_on_c, 4, 72, 0
8, 40499, Note_on_c, 4, 64, 0
8, 40560, Note_on_c, 4, 64, 101
8, 40560, Note_on_c, 4, 72, 98
8, 40560, Note_on_c, 4, 69, 105
8, 40619, Note_on_c, 4, 69, 0
8, 40619, Note_on_c, 4, 72, 0
8, 40619, Note_on_c, 4, 64, 0
8, 40680, Note_on_c, 4, 64, 101
8, 40680, Note_on_c, 4, 72, 100
8, 40680, Note_on_c, 4, 69, 100
8, 40739, Note_on_c, 4, 69, 0
8, 40739, Note_on_c, 4, 72, 0
8, 40739, Note_on_c, 4, 64, 0
8, 40800, Note_on_c, 4, 64, 100
8, 40800, Note_on_c, 4, 72, 104
8, 40800, Note_on_c, 4, 69, 97
8, 40859, Note_on_c, 4, 69, 0
8, 40859, Note_on_c, 4, 72, 0
8, 40859, Note_on_c, 4, 64, 0
8, 40920, Note_on_c, 4, 72, 104
8, 40920, Note_on_c, 4, 69, 104
8, 40920, Note_on_c, 4, 64, 105
8, 40979, Note_on_c, 4, 64, 0
8, 40979, Note_on_c, 4, 69, 0
8, 40979, Note_on_c, 4, 72, 0
8, 41040, Note_on_c, 4, 72, 96
8, 41040, Note_on_c, 4, 69, 99
8, 41040, Note_on_c, 4, 64, 105
8, 41099, Note_on_c, 4, 64, 0
8, 41099, Note_on_c, 4, 69, 0
8, 41099, Note_on_c, 4, 72, 0
8, 41160, Note_on_c, 4, 72, 102
8, 41160, Note_on_c, 4, 64, 105
8, 41160, Note_on_c, 4, 69, 104
8, 41219, Note_on_c, 4, 69, 0
8, 41219, Note_on_c, 4, 64, 0
8, 41219, Note_on_c, 4, 72, 0
8, 41280, Note_on_c, 4, 72, 103
8, 41280, Note_on_c, 4, 69, 97
8, 41280, Note_on_c, 4, 63, 103
8, 41339, Note_on_c, 4, 63, 0
8, 41339, Note_on_c, 4, 69, 0
8, 41339, Note_on_c, 4, 72, 0
8, 41400, Note_on_c, 4, 72, 104
8, 41400, Note_on_c, 4, 69, 97
8, 41400, Note_on_c, 4, 63, 97
8, 41459, Note_on_c, 4, 63, 0
8, 41459, Note_on_c, 4, 69, 0
8, 41459, Note_on_c, 4, 72, 0
8, 41520, Note_on_c, 4, 72, 103
8, 41520, Note_on_c, 4, 69, 99
8, 41520, Note_on_c, 4, 63, 97
8, 41579, Note_on_c, 4, 63, 0
8, 41579, Note_on_c, 4, 69, 0
8, 41579, Note_on_c, 4, 72, 0
8, 41640, Note_on_c, 4, 72, 103
8, 41640, Note_on_c, 4, 69, 95
8, 41640, Note_on_c, 4, 63, 103
8, 41699, Note_on_c, 4, 63, 0
8, 41699, Note_on_c, 4, 69, 0
8, 41699, Note_on_c, 4, 72, 0
8, 41760, Note_on_c, 4, 72, 104
8, 41760, Note_on_c, 4, 69, 100
8, 41760, Note_on_c, 4, 63, 96
8, 41819, Note_on_c, 4, 63, 0
8, 41819, Note_on_c, 4, 69, 0
8, 41819, Note_on_c, 4, 72, 0
8, 41880, Note_on_c, 4, 72, 102
8, 41880, Note_on_c, 4, 69, 102
8, 41880, Note_on_c, 4, 63, 104
8, 41939, Note_on_c, 4, 63, 0
8, 41939, Note_on_c, 4, 69, 0
8, 41939, Note_on_c, 4, 72, 0
8, 42000, Note_on_c, 4, 72, 99
8, 42000, Note_on_c, 4, 69, 99
8, 42000, Note_on_c, 4, 63, 98
8, 42059, Note_on_c, 4, 63, 0
8, 42059, Note_on_c, 4, 69, 0
8, 42059, Note_on_c, 4, 72, 0
8, 42120, Note_on_c, 4, 72, 97
8, 42120, Note_on_c, 4, 69, 104
8, 42120, Note_on_c, 4, 63, 102
8, 42179, Note_on_c, 4, 63, 0
8, 42179, Note_on_c, 4, 69, 0
8, 42179, Note_on_c, 4, 72, 0
8, 42240, Note_on_c, 4, 62, 104
8, 42240, Note_on_c, 4, 65, 100
8, 42240, Note_on_c, 4, 69, 99
8, 42299, Note_on_c, 4, 69, 0
8, 42299, Note_on_c, 4, 65, 0
8, 42299, Note_on_c, 4, 62, 0
8, 42360, Note_on_c, 4, 69, 97
8, 42360, Note_on_c, 4, 65, 99
8, 42360, Note_on_c, 4, 62, 100
8, 42419, Note_on_c, 4, 62, 0
8, 42419, Note_on_c, 4, 65, 0
8, 42419, Note_on_c, 4, 69, 0
8, 42480, Note_on_c, 4, 69, 102
8, 42480, Note_on_c, 4, 65, 96
8, 42480, Note_on_c, 4, 62, 100
8, 42539, Note_on_c, 4, 62, 0
8, 42539, Note_on_c, 4, 65, 0
8, 42539, Note_on_c, 4, 69, 0
8, 42600, Note_on_c, 4, 69, 97
8, 42600, Note_on_c, 4, 65, 101
8, 42600, Note_on_c, 4, 62, 96
8, 42659, Note_on_c, 4, 62, 0
8, 42659, Note_on_c, 4, 65, 0
8, 42659, Note_on_c, 4, 69, 0
8, 42720, Note_on_c, 4, 70, 99
8, 42720, Note_on_c, 4, 65, 98
8, 42720, Note_on_c, 4, 62, 100
8, 42779, Note_on_c, 4, 62, 0
8, 42779, Note_on_c, 4, 65, 0
8, 42779, Note_on_c, 4, 70, 0
8, 42840, Note_on_c, 4, 65, 103
8, 42840, Note_on_c, 4, 70, 100
8, 42840, Note_on_c, 4, 62, 101
8, 42899, Note_on_c, 4, 62, 0
8, 42899, Note_on_c, 4, 70, 0
8, 42899, Note_on_c, 4, 65, 0
8, 42960, Note_on_c, 4, 72, 98
8, 42960, Note_on_c, 4, 67, 102
8, 42960, Note_on_c, 4, 64, 103
8, 43019, Note_on_c, 4, 64, 0
8, 43019, Note_on_c, 4, 67, 0
8, 43019, Note_on_c, 4, 72, 0
8, 43080, Note_on_c, 4, 72, 103
8, 43080, Note_on_c, 4, 67, 97
8, 43080, Note_on_c, 4, 64, 105
8, 43139, Note_on_c, 4, 64, 0
8, 43139, Note_on_c, 4, 67, 0
8, 43139, Note_on_c, 4, 72, 0
8, 43200, Note_on_c, 4, 72, 98
8, 43200, Note_on_c, 4, 69, 101
8, 43200, Note_on_c, 4, 64, 97
8, 43994, Note_on_c, 4, 64, 0
8, 43994, Note_on_c, 4, 69, 0
8, 43994, Note_on_c, 4, 72, 0
8, 44040, Note_on_c, 4, 64, 102
8, 44040, Note_on_c, 4, 72, 101
8, 44040, Note_on_c, 4, 69, 101
8, 44158, Note_on_c, 4, 69, 0
8, 44158, Note_on_c, 4, 72, 0
8, 44158, Note_on_c, 4, 64, 0
8, 44160, Note_on_c, 4, 62, 98
8, 44160, Note_on_c, 4, 67, 96
8, 44160, Note_on_c, 4, 70, 103
8, 44954, Note_on_c, 4, 70, 0
8, 44954, Note_on_c, 4, 67, 0
8, 44954, Note_on_c, 4, 62, 0
8, 45000, Note_on_c, 4, 70, 96
8, 45000, Note_on_c, 4, 67, 100
8, 45000, Note_on_c, 4, 62, 96
8, 45118, Note_on_c, 4, 62, 0
8, 45118, Note_on_c, 4, 67, 0
8, 45118, Note_on_c, 4, 70, 0
8, 45120, Note_on_c, 4, 72, 103
8, 45120, Note_on_c, 4, 69, 103
8, 45120, Note_on_c, 4, 64, 98
8, 45914, Note_on_c, 4, 64, 0
8, 45914, Note_on_c, 4, 69, 0
8, 45914, Note_on_c, 4, 72, 0
8, 45960, Note_on_c, 4, 64, 105
8, 45960, Note_on_c, 4, 72, 98
8, 45960, Note_on_c, 4, 69, 95
8, 46078, Note_on_c, 4, 69, 0
8, 46078, Note_on_c, 4, 72, 0
8, 46078, Note_on_c, 4, 64, 0
8, 46080, Note_on_c, 4, 62, 100
8, 46080, Note_on_c, 4, 65, 99
8, 46080, Note_on_c, 4, 70, 99
8, 46550, Note_on_c, 4, 70, 0
8, 46550, Note_on_c, 4, 65, 0
8, 46550, Note_on_c, 4, 62, 0
8, 46560, Note_on_c, 4, 67, 104
8, 46560, Note_on_c, 4, 64, 98
8, 46565, Note_on_c, 4, 72, 101
8, 47016, Note_on_c, 4, 64, 0
8, 47016, Note_on_c, 4, 67, 0
8, 47021, Note_on_c, 4, 72, 0
8, 47040, Note_on_c, 4, 67, 104
8, 47040, Note_on_c, 4, 72, 97
8, 47040, Note_on_c, 4, 76, 100
8, 47099, Note_on_c, 4, 76, 0
8, 47099, Note_on_c, 4, 72, 0
8, 47099, Note_on_c, 4, 67, 0
8, 47520, Note_on_c, 4, 73, 100
8, 47520, Note_on_c, 4, 66, 97
8, 47540, Note_on_c, 4, 70, 95
8, 47579, Note_on_c, 4, 66, 0
8, 47579, Note_on_c, 4, 73, 0
8, 47599, Note_on_c, 4, 70, 0
8, 47640, Note_on_c, 4, 66, 100
8, 47640, Note_on_c, 4, 73, 101
8, 47640, Note_on_c, 4, 70, 105
8, 47699, Note_on_c, 4, 70, 0
8, 47699, Note_on_c, 4, 73, 0
8, 47699, Note_on_c, 4, 66, 0
8, 47760, Note_on_c, 4, 73, 101
8, 47760, Note_on_c, 4, 66, 100
8, 47760, Note_on_c, 4, 70, 96
8, 47819, Note_on_c, 4, 70, 0
8, 47819, Note_on_c, 4, 66, 0
8, 47819, Note_on_c, 4, 73, 0
8, 47880, Note_on_c, 4, 66, 99
8, 47880, Note_on_c, 4, 73, 100
8, 47880, Note_on_c, 4, 70, 96
8, 47939, Note_on_c, 4, 70, 0
8, 47939, Note_on_c, 4, 73, 0
8, 47939, Note_on_c, 4, 66, 0
8, 48000, Note_on_c, 4, 66, 97
8, 48000, Note_on_c, 4, 73, 103
8, 48000, Note_on_c, 4, 70, 103
8, 48059, Note_on_c, 4, 70, 0
8, 48059, Note_on_c, 4, 73, 0
8, 48059, Note_on_c, 4, 66, 0
8, 48120, Note_on_c, 4, 66, 99
8, 48120, Note_on_c, 4, 73, 97
8, 48120, Note_on_c, 4, 70, 101
8, 48179, Note_on_c, 4, 70, 0
8, 48179, Note_on_c, 4, 73, 0
8, 48179, Note_on_c, 4, 66, 0
8, 48240, Note_on_c, 4, 73, 104
8, 48240, Note_on_c, 4, 66, 100
8, 48240, Note_on_c, 4, 70, 100
8, 48299, Note_on_c, 4, 70, 0
8, 48299, Note_on_c, 4, 66, 0
8, 48299, Note_on_c, 4, 73, 0
8, 48360, Note_on_c, 4, 66, 96
8, 48360, Note_on_c, 4, 73, 105
8, 48360, Note_on_c, 4, 70, 104
8, 48419, Note_on_c, 4, 70, 0
8, 48419, Note_on_c, 4, 73, 0
8, 48419, Note_on_c, 4, 66, 0
8, 48480, Note_on_c, 4, 65, 100
8, 48480, Note_on_c, 4, 70, 96
8, 48480, Note_on_c, 4, 73, 98
8, 48539, Note_on_c, 4, 73, 0
8, 48539, Note_on_c, 4, 70, 0
8, 48539, Note_on_c, 4, 65, 0
8, 48600, Note_on_c, 4, 65, 105
8, 48600, Note_on_c, 4, 73, 99
8, 48600, Note_on_c, 4, 70, 105
8, 48659, Note_on_c, 4, 70, 0
8, 48659, Note_on_c, 4, 73, 0
8, 48659, Note_on_c, 4, 65, 0
8, 48720, Note_on_c, 4, 65, 101
8, 48720, Note_on_c, 4, 73, 98
8, 48720, Note_on_c, 4, 70, 100
8, 48779, Note_on_c, 4, 70, 0
8, 48779, Note_on_c, 4, 73, 0
8, 48779, Note_on_c, 4, 65, 0
8, 48840, Note_on_c, 4, 65, 96
8, 48840, Note_on_c, 4, 73, 101
8, 48840, Note_on_c, 4, 70, 95
8, 48899, Note_on_c, 4, 70, 0
8, 48899, Note_on_c, 4, 73, 0
8, 48899, Note_on_c, 4, 65, 0
8, 48960, Note_on_c, 4, 65, 99
8, 48960, Note_on_c, 4, 73, 95
8, 48960, Note_on_c, 4, 70, 103
8, 49019, Note_on_c, 4, 70, 0
8, 49019, Note_on_c, 4, 73, 0
8, 49019, Note_on_c, 4, 65, 0
8, 49080, Note_on_c, 4, 73, 98
8, 49080, Note_on_c, 4, 70, 103
8, 49080, Note_on_c, 4, 65, 105
8, 49139, Note_on_c, 4, 65, 0
8, 49139, Note_on_c, 4, 70, 0
8, 49139, Note_on_c, 4, 73, 0
8, 49200, Note_on_c, 4, 73, 98
8, 49200, Note_on_c, 4, 70, 96
8, 49200, Note_on_c, 4, 65, 99
8, 49259, Note_on_c, 4, 65, 0
8, 49259, Note_on_c, 4, 70, 0
8, 49259, Note_on_c, 4, 73, 0
8, 49320, Note_on_c, 4, 73, 103
8, 49320, Note_on_c, 4, 65, 100
8, 49320, Note_on_c, 4, 70, 99
8, 49379, Note_on_c, 4, 70, 0
8, 49379, Note_on_c, 4, 65, 0
8, 49379, Note_on_c, 4, 73, 0
8, 49440, Note_on_c, 4, 73, 104
8, 49440, Note_on_c, 4, 70, 104
8, 49440, Note_on_c, 4, 64, 100
8, 49499, Note_on_c, 4, 64, 0
8, 49499, Note_on_c, 4, 70, 0
8, 49499, Note_on_c, 4, 73, 0
8, 49560, Note_on_c, 4, 73, 99
8, 49560, Note_on_c, 4, 70, 105
8, 49560, Note_on_c, 4, 64, 96
8, 49619, Note_on_c, 4, 64, 0
8, 49619, Note_on_c, 4, 70, 0
8, 49619, Note_on_c, 4, 73, 0
8, 49680, Note_on_c, 4, 73, 103
8, 49680, Note_on_c, 4, 70, 95
8, 49680, Note_on_c, 4, 64, 101
8, 49739, Note_on_c, 4, 64, 0
8, 49739, Note_on_c, 4, 70, 0
8, 49739, Note_on_c, 4, 73, 0
8, 49800, Note_on_c, 4, 73, 99
8, 49800, Note_on_c, 4, 70, 104
8, 49800, Note_on_c, 4, 64, 98
8, 49859, Note_on_c, 4, 64, 0
8, 49859, Note_on_c, 4, 70, 0
8, 49859, Note_on_c, 4, 73, 0
8, 49920, Note_on_c, 4, 73, 96
8, 49920, Note_on_c, 4, 70, 100
8, 49920, Note_on_c, 4, 64, 102
8, 49979, Note_on_c, 4, 64, 0
8, 49979, Note_on_c, 4, 70, 0
8, 49979, Note_on_c, 4, 73, 0
8, 50040, Note_on_c, 4, 73, 96
8, 50040, Note_on_c, 4, 70, 99
8, 50040, Note_on_c, 4, 64, 104
8, 50099, Note_on_c, 4, 64, 0
8, 50099, Note_on_c, 4, 70, 0
8, 50099, Note_on_c, 4, 73, 0
8, 50160, Note_on_c, 4, 73, 99
8, 50160, Note_on_c, 4, 70, 101
8, 50160, Note_on_c, 4, 64, 102
8, 50219, Note_on_c, 4, 64, 0
8, 50219, Note_on_c, 4, 70, 0
8, 50219, Note_on_c, 4, 73, 0
8, 50280, Note_on_c, 4, 73, 96
8, 50280, Note_on_c, 4, 70, 100
8, 50280, Note_on_c, 4, 64, 95
8, 50339, Note_on_c, 4, 64, 0
8, 50339, Note_on_c, 4, 70, 0
8, 50339, Note_on_c, 4, 73, 0
8, 50400, Note_on_c, 4, 63, 100
8, 50400, Note_on_c, 4, 66, 96
8, 50400, Note_on_c, 4, 70, 103
8, 50459, Note_on_c, 4, 70, 0
8, 50459, Note_on_c, 4, 66, 0
8, 50459, Note_on_c, 4, 63, 0
8, 50520, Note_on_c, 4, 70, 95
8, 50520, Note_on_c, 4, 66, 96
8, 50520, Note_on_c, 4, 63, 100
8, 50579, Note_on_c, 4, 63, 0
8, 50579, Note_on_c, 4, 66, 0
8, 50579, Note_on_c, 4, 70, 0
8, 50640, Note_on_c, 4, 70, 102
8, 50640, Note_on_c, 4, 66, 102
8, 50640, Note_on_c, 4, 63, 100
8, 50699, Note_on_c, 4, 63, 0
8, 50699, Note_on_c, 4, 66, 0
8, 50699, Note_on_c, 4, 70, 0
8, 50760, Note_on_c, 4, 70, 99
8, 50760, Note_on_c, 4, 66, 98
8, 50760, Note_on_c, 4, 63, 96
8, 50819, Note_on_c, 4, 63, 0
8, 50819, Note_on_c, 4, 66, 0
8, 50819, Note_on_c, 4, 70, 0
8, 50880, Note_on_c, 4, 71, 95
8, 50880, Note_on_c, 4, 66, 96
8, 50880, Note_on_c, 4, 63, 103
8, 50939, Note_on_c, 4, 63, 0
8, 50939, Note_on_c, 4, 66, 0
8, 50939, Note_on_c, 4, 71, 0
8, 51000, Note_on_c, 4, 66, 97
8, 51000, Note_on_c, 4, 71, 100
8, 51000, Note_on_c, 4, 63, 100
8, 51059, Note_on_c, 4, 63, 0
8, 51059, Note_on_c, 4, 71, 0
8, 51059, Note_on_c, 4, 66, 0
8, 51120, Note_on_c, 4, 73, 101
8, 51120, Note_on_c, 4, 68, 105
8, 51120, Note_on_c, 4, 65, 97
8, 51179, Note_on_c, 4, 65, 0
8, 51179, Note_on_c, 4, 68, 0
8, 51179, Note_on_c, 4, 73, 0
8, 51240, Note_on_c, 4, 73, 101
8, 51240, Note_on_c, 4, 68, 101
8, 51240, Note_on_c, 4, 65, 101
8, 51299, Note_on_c, 4, 65, 0
8, 51299, Note_on_c, 4, 68, 0
8, 51299, Note_on_c, 4, 73, 0
8, 51360, Note_on_c, 4, 73, 95
8, 51360, Note_on_c, 4, 66, 99
8, 51380, Note_on_c, 4, 70, 101
8, 51419, Note_on_c, 4, 66, 0
8, 51419, Note_on_c, 4, 73, 0
8, 51439, Note_on_c, 4, 70, 0
8, 51480, Note_on_c, 4, 66, 97
8, 51480, Note_on_c, 4, 73, 101
8, 51480, Note_on_c, 4, 70, 98
8, 51539, Note_on_c, 4, 70, 0
8, 51539, Note_on_c, 4, 73, 0
8, 51539, Note_on_c, 4, 66, 0
8, 51600, Note_on_c, 4, 73, 97
8, 51600, Note_on_c, 4, 66, 95
8, 51600, Note_on_c, 4, 70, 95
8, 51659, Note_on_c, 4, 70, 0
8, 51659, Note_on_c, 4, 66, 0
8, 51659, Note_on_c, 4, 73, 0
8, 51720, Note_on_c, 4, 66, 99
8, 51720, Note_on_c, 4, 73, 97
8, 51720, Note_on_c, 4, 70, 100
8, 51779, Note_on_c, 4, 70, 0
8, 51779, Note_on_c, 4, 73, 0
8, 51779, Note_on_c, 4, 66, 0
8, 51840, Note_on_c, 4, 66, 105
8, 51840, Note_on_c, 4, 73, 105
8, 51840, Note_on_c, 4, 70, 96
8, 51899, Note_on_c, 4, 70, 0
8, 51899, Note_on_c, 4, 73, 0
8, 51899, Note_on_c, 4, 66, 0
8, 51960, Note_on_c, 4, 66, 99
8, 51960, Note_on_c, 4, 73, 99
8, 51960, Note_on_c, 4, 70, 100
8, 52019, Note_on_c, 4, 70, 0
8, 52019, Note_on_c, 4, 73, 0
8, 52019, Note_on_c, 4, 66, 0
8, 52080, Note_on_c, 4, 73, 95
8, 52080, Note_on_c, 4, 66, 101
8, 52080, Note_on_c, 4, 70, 105
8, 52139, Note_on_c, 4, 70, 0
8, 52139, Note_on_c, 4, 66, 0
8, 52139, Note_on_c, 4, 73, 0
8, 52200, Note_on_c, 4, 66, 96
8, 52200, Note_on_c, 4, 73, 100
8, 52200, Note_on_c, 4, 70, 105
8, 52259, Note_on_c, 4, 70, 0
8, 52259, Note_on_c, 4, 73, 0
8, 52259, Note_on_c, 4, 66, 0
8, 52320, Note_on_c, 4, 65, 96
8, 52320, Note_on_c, 4, 70, 100
8, 52320, Note_on_c, 4, 73, 97
8, 52379, Note_on_c, 4, 73, 0
8, 52379, Note_on_c, 4, 70, 0
8, 52379, Note_on_c, 4, 65, 0
8, 52440, Note_on_c, 4, 65, 101
8, 52440, Note_on_c, 4, 73, 97
8, 52440, Note_on_c, 4, 70, 100
8, 52499, Note_on_c, 4, 70, 0
8, 52499, Note_on_c, 4, 73, 0
8, 52499, Note_on_c, 4, 65, 0
8, 52560, Note_on_c, 4, 65, 97
8, 52560, Note_on_c, 4, 73, 98
8, 52560, Note_on_c, 4, 70, 96
8, 52619, Note_on_c, 4, 70, 0
8, 52619, Note_on_c, 4, 73, 0
8, 52619, Note_on_c, 4, 65, 0
8, 52680, Note_on_c, 4, 65, 104
8, 52680, Note_on_c, 4, 73, 97
8, 52680, Note_on_c, 4, 70, 104
8, 52739, Note_on_c, 4, 70, 0
8, 52739, Note_on_c, 4, 73, 0
8, 52739, Note_on_c, 4, 65, 0
8, 52800, Note_on_c, 4, 65, 96
8, 52800, Note_on_c, 4, 73, 101
8, 52800, Note_on_c, 4, 70, 97
8, 52859, Note_on_c, 4, 70, 0
8, 52859, Note_on_c, 4, 73, 0
8, 52859, Note_on_c, 4, 65, 0
8, 52920, Note_on_c, 4, 73, 99
8, 52920, Note_on_c, 4, 70, 97
8, 52920, Note_on_c, 4, 65, 105
8, 52979, Note_on_c, 4, 65, 0
8, 52979, Note_on_c, 4, 70, 0
8, 52979, Note_on_c, 4, 73, 0
8, 53040, Note_on_c, 4, 73, 104
8, 53040, Note_on_c, 4, 70, 97
8, 53040, Note_on_c, 4, 65, 104
8, 53099, Note_on_c, 4, 65, 0
8, 53099, Note_on_c, 4, 70, 0
8, 53099, Note_on_c, 4, 73, 0
8, 53160, Note_on_c, 4, 73, 98
8, 53160, Note_on_c, 4, 65, 100
8, 53160, Note_on_c, 4, 70, 100
8, 53219, Note_on_c, 4, 70, 0
8, 53219, Note_on_c, 4, 65, 0
8, 53219, Note_on_c, 4, 73, 0
8, 53280, Note_on_c, 4, 73, 103
8, 53280, Note_on_c, 4, 70, 100
8, 53280, Note_on_c, 4, 64, 99
8, 53339, Note_on_c, 4, 64, 0
8, 53339, Note_on_c, 4, 70, 0
8, 53339, Note_on_c, 4, 73, 0
8, 53400, Note_on_c, 4, 73, 103
8, 53400, Note_on_c, 4, 70, 104
8, 53400, Note_on_c, 4, 64, 96
8, 53459, Note_on_c, 4, 64, 0
8, 53459, Note_on_c, 4, 70, 0
8, 53459, Note_on_c, 4, 73, 0
8, 53520, Note_on_c, 4, 73, 101
8, 53520, Note_on_c, 4, 70, 100
8, 53520, Note_on_c, 4, 64, 99
8, 53579, Note_on_c, 4, 64, 0
8, 53579, Note_on_c, 4, 70, 0
8, 53579, Note_on_c, 4, 73, 0
8, 53640, Note_on_c, 4, 73, 99
8, 53640, Note_on_c, 4, 70, 100
8, 53640, Note_on_c, 4, 64, 102
8, 53699, Note_on_c, 4, 64, 0
8, 53699, Note_on_c, 4, 70, 0
8, 53699, Note_on_c, 4, 73, 0
8, 53760, Note_on_c, 4, 73, 102
8, 53760, Note_on_c, 4, 70, 100
8, 53760, Note_on_c, 4, 64, 99
8, 53819, Note_on_c, 4, 64, 0
8, 53819, Note_on_c, 4, 70, 0
8, 53819, Note_on_c, 4, 73, 0
8, 53880, Note_on_c, 4, 73, 101
8, 53880, Note_on_c, 4, 70, 99
8, 53880, Note_on_c, 4, 64, 103
8, 53939, Note_on_c, 4, 64, 0
8, 53939, Note_on_c, 4, 70, 0
8, 53939, Note_on_c, 4, 73, 0
8, 54000, Note_on_c, 4, 73, 102
8, 54000, Note_on_c, 4, 70, 97
8, 54000, Note_on_c, 4, 64, 103
8, 54059, Note_on_c, 4, 64, 0
8, 54059, Note_on_c, 4, 70, 0
8, 54059, Note_on_c, 4, 73, 0
8, 54120, Note_on_c, 4, 73, 96
8, 54120, Note_on_c, 4, 70, 105
8, 54120, Note_on_c, 4, 64, 104
8, 54179, Note_on_c, 4, 64, 0
8, 54179, Note_on_c, 4, 70, 0
8, 54179, Note_on_c, 4, 73, 0
8, 54240, Note_on_c, 4, 63, 101
8, 54240, Note_on_c, 4, 66, 104
8, 54240, Note_on_c, 4, 70, 99
8, 54299, Note_on_c, 4, 70, 0
8, 54299, Note_on_c, 4, 66, 0
8, 54299, Note_on_c, 4, 63, 0
8, 54360, Note_on_c, 4, 70, 96
8, 54360, Note_on_c, 4, 66, 102
8, 54360, Note_on_c, 4, 63, 95
8, 54419, Note_on_c, 4, 63, 0
8, 54419, Note_on_c, 4, 66, 0
8, 54419, Note_on_c, 4, 70, 0
8, 54480, Note_on_c, 4, 70, 105
8, 54480, Note_on_c, 4, 66, 97
8, 54480, Note_on_c, 4, 63, 100
8, 54539, Note_on_c, 4, 63, 0
8, 54539, Note_on_c, 4, 66, 0
8, 54539, Note_on_c, 4, 70, 0
8, 54600, Note_on_c, 4, 70, 104
8, 54600, Note_on_c, 4, 66, 100
8, 54600, Note_on_c, 4, 63, 99
8, 54659, Note_on_c, 4, 63, 0
8, 54659, Note_on_c, 4, 66, 0
8, 54659, Note_on_c, 4, 70, 0
8, 54720, Note_on_c, 4, 71, 103
8, 54720, Note_on_c, 4, 66, 105
8, 54720, Note_on_c, 4, 63, 104
8, 54779, Note_on_c, 4, 63, 0
8, 54779, Note_on_c, 4, 66, 0
8, 54779, Note_on_c, 4, 71, 0
8, 54840, Note_on_c, 4, 66, 104
8, 54840, Note_on_c, 4, 71, 101
8, 54840, Note_on_c, 4, 63, 104
8, 54899, Note_on_c, 4, 63, 0
8, 54899, Note_on_c, 4, 71, 0
8, 54899, Note_on_c, 4, 66, 0
8, 54960, Note_on_c, 4, 73, 100
8, 54960, Note_on_c, 4, 68, 100
8, 54960, Note_on_c, 4, 65, 99
8, 55019, Note_on_c, 4, 65, 0
8, 55019, Note_on_c, 4, 68, 0
8, 55019, Note_on_c, 4, 73, 0
8, 55080, Note_on_c, 4, 73, 104
8, 55080, Note_on_c, 4, 68, 102
8, 55080, Note_on_c, 4, 65, 103
8, 55139, Note_on_c, 4, 65, 0
8, 55139, Note_on_c, 4, 68, 0
8, 55139, Note_on_c, 4, 73, 0
8, 55200, Note_on_c, 4, 73, 104
8, 55200, Note_on_c, 4, 66, 101
8, 55220, Note_on_c, 4, 70, 96
8, 55259, Note_on_c, 4, 66, 0
8, 55259, Note_on_c, 4, 73, 0
8, 55279, Note_on_c, 4, 70, 0
8, 55320, Note_on_c, 4, 66, 99
8, 55320, Note_on_c, 4, 73, 99
8, 55320, Note_on_c, 4, 70, 100
8, 55379, Note_on_c, 4, 70, 0
8, 55379, Note_on_c, 4, 73, 0
8, 55379, Note_on_c, 4, 66, 0
8, 55440, Note_on_c, 4, 73, 97
8, 55440, Note_on_c, 4, 66, 100
8, 55440, Note_on_c, 4, 70, 103
8, 55499, Note_on_c, 4, 70, 0
8, 55499, Note_on_c, 4, 66, 0
8, 55499, Note_on_c, 4, 73, 0
8, 55560, Note_on_c, 4, 66, 104
8, 55560, Note_on_c, 4, 73, 104
8, 55560, Note_on_c, 4, 70, 97
8, 55619, Note_on_c, 4, 70, 0
8, 55619, Note_on_c, 4, 73, 0
8, 55619, Note_on_c, 4, 66, 0
8, 55680, Note_on_c, 4, 66, 100
8, 55680, Note_on_c, 4, 73, 95
8, 55680, Note_on_c, 4, 70, 99
8, 55739, Note_on_c, 4, 70, 0
8, 55739, Note_on_c, 4, 73, 0
8, 55739, Note_on_c, 4, 66, 0
8, 55800, Note_on_c, 4, 66, 97
8, 55800, Note_on_c, 4, 73, 102
8, 55800, Note_on_c, 4, 70, 96
8, 55859, Note_on_c, 4, 70, 0
8, 55859, Note_on_c, 4, 73, 0
8, 55859, Note_on_c, 4, 66, 0
8, 55920, Note_on_c, 4, 73, 101
8, 55920, Note_on_c, 4, 66, 104
8, 55920, Note_on_c, 4, 70, 99
8, 55979, Note_on_c, 4, 70, 0
8, 55979, Note_on_c, 4, 66, 0
8, 55979, Note_on_c, 4, 73, 0
8, 56040, Note_on_c, 4, 66, 100
8, 56040, Note_on_c, 4, 73, 103
8, 56040, Note_on_c, 4, 70, 96
8, 56099, Note_on_c, 4, 70, 0
8, 56099, Note_on_c, 4, 73, 0
8, 56099, Note_on_c, 4, 66, 0
8, 56160, Note_on_c, 4, 65, 101
8, 56160, Note_on_c, 4, 70, 95
8, 56160, Note_on_c, 4, 73, 100
8, 56219, Note_on_c, 4, 73, 0
8, 56219, Note_on_c, 4, 70, 0
8, 56219, Note_on_c, 4, 65, 0
8, 56280, Note_on_c, 4, 65, 95
8, 56280, Note_on_c, 4, 73, 97
8, 56280, Note_on_c, 4, 70, 98
8, 56339, Note_on_c, 4, 70, 0
8, 56339, Note_on_c, 4, 73, 0
8, 56339, Note_on_c, 4, 65, 0
8, 56400, Note_on_c, 4, 65, 103
8, 56400, Note_on_c, 4, 73, 98
8, 56400, Note_on_c, 4, 70, 103
8, 56459, Note_on_c, 4, 70, 0
8, 56459, Note_on_c, 4, 73, 0
8, 56459, Note_on_c, 4, 65, 0
8, 56520, Note_on_c, 4, 65, 105
8, 56520, Note_on_c, 4, 73, 99
8, 56520, Note_on_c, 4, 70, 98
8, 56579, Note_on_c, 4, 70, 0
8, 56579, Note_on_c, 4, 73, 0
8, 56579, Note_on_c, 4, 65, 0
8, 56640, Note_on_c, 4, 65, 100
8, 56640, Note_on_c, 4, 73, 97
8, 56640, Note_on_c, 4, 70, 97
8, 56699, Note_on_c, 4, 70, 0
8, 56699, Note_on_c, 4, 73, 0
8, 56699, Note_on_c, 4, 65, 0
8, 56760, Note_on_c, 4, 73, 100
8, 56760, Note_on_c, 4, 70, 105
8, 56760, Note_on_c, 4, 65, 103
8, 56819, Note_on_c, 4, 65, 0
8, 56819, Note_on_c, 4, 70, 0
8, 56819, Note_on_c, 4, 73, 0
8, 56880, Note_on_c, 4, 73, 95
8, 56880, Note_on_c, 4, 70, 103
8, 56880, Note_on_c, 4, 65, 99
8, 56939, Note_on_c, 4, 65, 0
8, 56939, Note_on_c, 4, 70, 0
8, 56939, Note_on_c, 4, 73, 0
8, 57000, Note_on_c, 4, 73, 96
8, 57000, Note_on_c, 4, 65, 96
8, 57000, Note_on_c, 4, 70, 99
8, 57059, Note_on_c, 4, 70, 0
8, 57059, Note_on_c, 4, 65, 0
8, 57059, Note_on_c, 4, 73, 0
8, 57120, Note_on_c, 4, 73, 97
8, 57120, Note_on_c, 4, 70, 103
8, 57120, Note_on_c, 4, 64, 95
8, 57179, Note_on_c, 4, 64, 0
8, 57179, Note_on_c, 4, 70, 0
8, 57179, Note_on_c, 4, 73, 0
8, 57240, Note_on_c, 4, 73, 99
8, 57240, Note_on_c, 4, 70, 100
8, 57240, Note_on_c, 4, 64, 95
8, 57299, Note_on_c, 4, 64, 0
8, 57299, Note_on_c, 4, 70, 0
8, 57299, Note_on_c, 4, 73, 0
8, 57360, Note_on_c, 4, 73, 104
8, 57360, Note_on_c, 4, 70, 97
8, 57360, Note_on_c, 4, 64, 101
8, 57419, Note_on_c, 4, 64, 0
8, 57419, Note_on_c, 4, 70, 0
8, 57419, Note_on_c, 4, 73, 0
8, 57480, Note_on_c, 4, 73, 101
8, 57480, Note_on_c, 4, 70, 97
8, 57480, Note_on_c, 4, 64, 100
8, 57539, Note_on_c, 4, 64, 0
8, 57539, Note_on_c, 4, 70, 0
8, 57539, Note_on_c, 4, 73, 0
8, 57600, Note_on_c, 4, 73, 104
8, 57600, Note_on_c, 4, 70, 100
8, 57600, Note_on_c, 4, 64, 104
8, 57659, Note_on_c, 4, 64, 0
8, 57659, Note_on_c, 4, 70, 0
8, 57659, Note_on_c, 4, 73, 0
8, 57720, Note_on_c, 4, 73, 104
8, 57720, Note_on_c, 4, 70, 104
8, 57720, Note_on_c, 4, 64, 101
8, 57779, Note_on_c, 4, 64, 0
8, 57779, Note_on_c, 4, 70, 0
8, 57779, Note_on_c, 4, 73, 0
8, 57840, Note_on_c, 4, 73, 102
8, 57840, Note_on_c, 4, 70, 96
8, 57840, Note_on_c, 4, 64, 101
8, 57899, Note_on_c, 4, 64, 0
8, 57899, Note_on_c, 4, 70, 0
8, 57899, Note_on_c, 4, 73, 0
8, 57960, Note_on_c, 4, 73, 105
8, 57960, Note_on_c, 4, 70, 102
8, 57960, Note_on_c, 4, 64, 103
8, 58019, Note_on_c, 4, 64, 0
8, 58019, Note_on_c, 4, 70, 0
8, 58019, Note_on_c, 4, 73, 0
8, 58080, Note_on_c, 4, 63, 98
8, 58080, Note_on_c, 4, 66, 101
8, 58080, Note_on_c, 4, 70, 95
8, 58139, Note_on_c, 4, 70, 0
8, 58139, Note_on_c, 4, 66, 0
8, 58139, Note_on_c, 4, 63, 0
8, 58200, Note_on_c, 4, 70, 100
8, 58200, Note_on_c, 4, 66, 104
8, 58200, Note_on_c, 4, 63, 104
8, 58259, Note_on_c, 4, 63, 0
8, 58259, Note_on_c, 4, 66, 0
8, 58259, Note_on_c, 4, 70, 0
8, 58320, Note_on_c, 4, 70, 101
8, 58320, Note_on_c, 4, 66, 105
8, 58320, Note_on_c, 4, 63, 101
8, 58379, Note_on_c, 4, 63, 0
8, 58379, Note_on_c, 4, 66, 0
8, 58379, Note_on_c, 4, 70, 0
8, 58440, Note_on_c, 4, 70, 95
8, 58440, Note_on_c, 4, 66, 105
8, 58440, Note_on_c, 4, 63, 95
8, 58499, Note_on_c, 4, 63, 0
8, 58499, Note_on_c, 4, 66, 0
8, 58499, Note_on_c, 4, 70, 0
8, 58560, Note_on_c, 4, 71, 101
8, 58560, Note_on_c, 4, 66, 98
8, 58560, Note_on_c, 4, 63, 101
8, 58619, Note_on_c, 4, 63, 0
8, 58619, Note_on_c, 4, 66, 0
8, 58619, Note_on_c, 4, 71, 0
8, 58680, Note_on_c, 4, 66, 102
8, 58680, Note_on_c, 4, 71, 104
8, 58680, Note_on_c, 4, 63, 100
8, 58739, Note_on_c, 4, 63, 0
8, 58739, Note_on_c, 4, 71, 0
8, 58739, Note_on_c, 4, 66, 0
8, 58800, Note_on_c, 4, 73, 100
8, 58800, Note_on_c, 4, 68, 100
8, 58800, Note_on_c, 4, 65, 101
8, 58859, Note_on_c, 4, 65, 0
8, 58859, Note_on_c, 4, 68, 0
8, 58859, Note_on_c, 4, 73, 0
8, 58920, Note_on_c, 4, 73, 97
8, 58920, Note_on_c, 4, 68, 105
8, 58920, Note_on_c, 4, 65, 104
8, 58979, Note_on_c, 4, 65, 0
8, 58979, Note_on_c, 4, 68, 0
8, 58979, Note_on_c, 4, 73, 0
8, 59040, Note_on_c, 4, 73, 101
8, 59040, Note_on_c, 4, 66, 100
8, 59060, Note_on_c, 4, 70, 96
8, 59099, Note_on_c, 4, 66, 0
8, 59099, Note_on_c, 4, 73, 0
8, 59119, Note_on_c, 4, 70, 0
8, 59160, Note_on_c, 4, 66, 97
8, 59160, Note_on_c, 4, 73, 99
8, 59160, Note_on_c, 4, 70, 101
8, 59219, Note_on_c, 4, 70, 0
8, 59219, Note_on_c, 4, 73, 0
8, 59219, Note_on_c, 4, 66, 0
8, 59280, Note_on_c, 4, 73, 98
8, 59280, Note_on_c, 4, 66, 97
8, 59280, Note_on_c, 4, 70, 96
8, 59339, Note_on_c, 4, 70, 0
8, 59339, Note_on_c, 4, 66, 0
8, 59339, Note_on_c, 4, 73, 0
8, 59400, Note_on_c, 4, 66, 99
8, 59400, Note_on_c, 4, 73, 103
8, 59400, Note_on_c, 4, 70, 97
8, 59459, Note_on_c, 4, 70, 0
8, 59459, Note_on_c, 4, 73, 0
8, 59459, Note_on_c, 4, 66, 0
8, 59520, Note_on_c, 4, 66, 97
8, 59520, Note_on_c, 4, 73, 102
8, 59520, Note_on_c, 4, 70, 100
8, 59579, Note_on_c, 4, 70, 0
8, 59579, Note_on_c, 4, 73, 0
8, 59579, Note_on_c, 4, 66, 0
8, 59640, Note_on_c, 4, 66, 100
8, 59640, Note_on_c, 4, 73, 101
8, 59640, Note_on_c, 4, 70, 105
8, 59699, Note_on_c, 4, 70, 0
8, 59699, Note_on_c, 4, 73, 0
8, 59699, Note_on_c, 4, 66, 0
8, 59760, Note_on_c, 4, 73, 100
8, 59760, Note_on_c, 4, 66, 101
8, 59760, Note_on_c, 4, 70, 105
8, 59819, Note_on_c, 4, 70, 0
8, 59819, Note_on_c, 4, 66, 0
8, 59819, Note_on_c, 4, 73, 0
8, 59880, Note_on_c, 4, 66, 99
8, 59880, Note_on_c, 4, 73, 95
8, 59880, Note_on_c, 4, 70, 98
8, 59939, Note_on_c, 4, 70, 0
8, 59939, Note_on_c, 4, 73, 0
8, 59939, Note_on_c, 4, 66, 0
8, 60000, Note_on_c, 4, 65, 103
8, 60000, Note_on_c, 4, 70, 99
8, 60000, Note_on_c, 4, 73, 98
8, 60059, Note_on_c, 4, 73, 0
8, 60059, Note_on_c, 4, 70, 0
8, 60059, Note_on_c, 4, 65, 0
8, 60120, Note_on_c, 4, 65, 104
8, 60120, Note_on_c, 4, 73, 101
8, 60120, Note_on_c, 4, 70, 100
8, 60179, Note_on_c, 4, 70, 0
8, 60179, Note_on_c, 4, 73, 0
8, 60179, Note_on_c, 4, 65, 0
8, 60240, Note_on_c, 4, 65, 100
8, 60240, Note_on_c, 4, 73, 101
8, 60240, Note_on_c, 4, 70, 101
8, 60299, Note_on_c, 4, 70, 0
8, 60299, Note_on_c, 4, 73, 0
8, 60299, Note_on_c, 4, 65, 0
8, 60360, Note_on_c, 4, 65, 97
8, 60360, Note_on_c, 4, 73, 104
8, 60360, Note_on_c, 4, 70, 96
8, 60419, Note_on_c, 4, 70, 0
8, 60419, Note_on_c, 4, 73, 0
8, 60419, Note_on_c, 4, 65, 0
8, 60480, Note_on_c, 4, 65, 103
8, 60480, Note_on_c, 4, 73, 96
8, 60480, Note_on_c, 4, 70, 98
8, 60539, Note_on_c, 4, 70, 0
8, 60539, Note_on_c, 4, 73, 0
8, 60539, Note_on_c, 4, 65, 0
8, 60600, Note_on_c, 4, 73, 97
8, 60600, Note_on_c, 4, 70, 104
8, 60600, Note_on_c, 4, 65, 97
8, 60659, Note_on_c, 4, 65, 0
8, 60659, Note_on_c, 4, 70, 0
8, 60659, Note_on_c, 4, 73, 0
8, 60720, Note_on_c, 4, 73, 95
8, 60720, Note_on_c, 4, 70, 99
8, 60720, Note_on_c, 4, 65, 105
8, 60779, Note_on_c, 4, 65, 0
8, 60779, Note_on_c, 4, 70, 0
8, 60779, Note_on_c, 4, 73, 0
8, 60840, Note_on_c, 4, 73, 96
8, 60840, Note_on_c, 4, 65, 100
8, 60840, Note_on_c, 4, 70, 100
8, 60899, Note_on_c, 4, 70, 0
8, 60899, Note_on_c, 4, 65, 0
8, 60899, Note_on_c, 4, 73, 0
8, 60960, Note_on_c, 4, 73, 99
8, 60960, Note_on_c, 4, 70, 102
8, 60960, Note_on_c, 4, 64, 100
8, 61019, Note_on_c, 4, 64, 0
8, 61019, Note_on_c, 4, 70, 0
8, 61019, Note_on_c, 4, 73, 0
8, 61080, Note_on_c, 4, 73, 101
8, 61080, Note_on_c, 4, 70, 96
8, 61080, Note_on_c, 4, 64, 103
8, 61139, Note_on_c, 4, 64, 0
8, 61139, Note_on_c, 4, 70, 0
8, 61139, Note_on_c, 4, 73, 0
8, 61200, Note_on_c, 4, 73, 104
8, 61200, Note_on_c, 4, 70, 96
8, 61200, Note_on_c, 4, 64, 100
8, 61259, Note_on_c, 4, 64, 0
8, 61259, Note_on_c, 4, 70, 0
8, 61259, Note_on_c, 4, 73, 0
8, 61320, Note_on_c, 4, 73, 102
8, 61320, Note_on_c, 4, 70, 103
8, 61320, Note_on_c, 4, 64, 105
8, 61379, Note_on_c, 4, 64, 0
8, 61379, Note_on_c, 4, 70, 0
8, 61379, Note_on_c, 4, 73, 0
8, 61440, Note_on_c, 4, 73, 96
8, 61440, Note_on_c, 4, 70, 97
8, 61440, Note_on_c, 4, 64, 100
8, 61499, Note_on_c, 4, 64, 0
8, 61499, Note_on_c, 4, 70, 0
8, 61499, Note_on_c, 4, 73, 0
8, 61560, Note_on_c, 4, 73, 96
8, 61560, Note_on_c, 4, 70, 100
8, 61560, Note_on_c, 4, 64, 104
8, 61619, Note_on_c, 4, 64, 0
8, 61619, Note_on_c, 4, 70, 0
8, 61619, Note_on_c, 4, 73, 0
8, 61680, Note_on_c, 4, 73, 96
8, 61680, Note_on_c, 4, 70, 97
8, 61680, Note_on_c, 4, 64, 103
8, 61739, Note_on_c, 4, 64, 0
8, 61739, Note_on_c, 4, 70, 0
8, 61739, Note_on_c, 4, 73, 0
8, 61800, Note_on_c, 4, 73, 102
8, 61800, Note_on_c, 4, 70, 95
8, 61800, Note_on_c, 4, 64, 103
8, 61859, Note_on_c, 4, 64, 0
8, 61859, Note_on_c, 4, 70, 0
8, 61859, Note_on_c, 4, 73, 0
8, 61920, Note_on_c, 4, 63, 101
8, 61920, Note_on_c, 4, 66, 97
8, 61920, Note_on_c, 4, 70, 100
8, 61979, Note_on_c, 4, 70, 0
8, 61979, Note_on_c, 4, 66, 0
8, 61979, Note_on_c, 4, 63, 0
8, 62040, Note_on_c, 4, 70, 97
8, 62040, Note_on_c, 4, 66, 103
8, 62040, Note_on_c, 4, 63, 104
8, 62099, Note_on_c, 4, 63, 0
8, 62099, Note_on_c, 4, 66, 0
8, 62099, Note_on_c, 4, 70, 0
8, 62160, Note_on_c, 4, 70, 103
8, 62160, Note_on_c, 4, 66, 96
8, 62160, Note_on_c, 4, 63, 99
8, 62219, Note_on_c, 4, 63, 0
8, 62219, Note_on_c, 4, 66, 0
8, 62219, Note_on_c, 4, 70, 0
8, 62280, Note_on_c, 4, 70, 103
8, 62280, Note_on_c, 4, 66, 97
8, 62280, Note_on_c, 4, 63, 95
8, 62339, Note_on_c, 4, 63, 0
8, 62339, Note_on_c, 4, 66, 0
8, 62339, Note_on_c, 4, 70, 0
8, 62400, Note_on_c, 4, 71, 103
8, 62400, Note_on_c, 4, 66, 98
8, 62400, Note_on_c, 4, 63, 103
8, 62459, Note_on_c, 4, 63, 0
8, 62459, Note_on_c, 4, 66, 0
8, 62459, Note_on_c, 4, 71, 0
8, 62520, Note_on_c, 4, 66, 97
8, 62520, Note_on_c, 4, 71, 95
8, 62520, Note_on_c, 4, 63, 103
8, 62579, Note_on_c, 4, 63, 0
8, 62579, Note_on_c, 4, 71, 0
8, 62579, Note_on_c, 4, 66, 0
8, 62640, Note_on_c, 4, 73, 100
8, 62640, Note_on_c, 4, 68, 101
8, 62640, Note_on_c, 4, 65, 100
8, 62699, Note_on_c, 4, 65, 0
8, 62699, Note_on_c, 4, 68, 0
8, 62699, Note_on_c, 4, 73, 0
8, 62760, Note_on_c, 4, 73, 101
8, 62760, Note_on_c, 4, 68, 98
8, 62760, Note_on_c, 4, 65, 99
8, 62819, Note_on_c, 4, 65, 0
8, 62819, Note_on_c, 4, 68, 0
8, 62819, Note_on_c, 4, 73, 0
8, 62880, Note_on_c, 4, 73, 90
8, 62880, Note_on_c, 4, 66, 90
8, 62880, Note_on_c, 4, 70, 90
8, 62880, Note_on_c, 4, 61, 90
8, 63350, Note_on_c, 4, 61, 0
8, 63350, Note_on_c, 4, 73, 0
8, 63350, Note_on_c, 4, 66, 0
8, 63350, Note_on_c, 4, 70, 0
8, 63350, End_track
9, 0, Start_track
9, 0, Title_t, "Strings"
9, 0, Instrument_name_t, "     "
9, 7, Control_c, 5, 121, 0
9, 30, Program_c, 5, 48
9, 37, Control_c, 5, 11, 127
9, 45, Control_c, 5, 91, 110
9, 52, Control_c, 5, 93, 85
9, 60, Control_c, 5, 94, 0
9, 67, Control_c, 5, 10, 24
9, 75, Control_c, 5, 100, 0
9, 82, Control_c, 5, 101, 0
9, 90, Control_c, 5, 6, 2
9, 157, Control_c, 5, 7, 100
9, 2880, Note_on_c, 5, 69, 82
9, 2880, Note_on_c, 5, 72, 86
9, 2880, Note_on_c, 5, 65, 85
9, 3453, Note_on_c, 5, 69, 0
9, 3468, Note_on_c, 5, 72, 0
9, 3480, Note_on_c, 5, 69, 94
9, 3598, Note_on_c, 5, 69, 0
9, 3600, Note_on_c, 5, 70, 97
9, 3718, Note_on_c, 5, 70, 0
9, 3720, Note_on_c, 5, 72, 102
9, 3813, Note_on_c, 5, 65, 0
9, 3838, Note_on_c, 5, 72, 0
9, 3840, Note_on_c, 5, 64, 80
9, 3840, Note_on_c, 5, 72, 73
9, 3840, Note_on_c, 5, 69, 77
9, 4413, Note_on_c, 5, 69, 0
9, 4428, Note_on_c, 5, 72, 0
9, 4440, Note_on_c, 5, 69, 101
9, 4558, Note_on_c, 5, 69, 0
9, 4560, Note_on_c, 5, 70, 102
9, 4678, Note_on_c, 5, 70, 0
9, 4680, Note_on_c, 5, 72, 100
9, 4781, Note_on_c, 5, 64, 0
9, 4798, Note_on_c, 5, 72, 0
9, 4800, Note_on_c, 5, 69, 78
9, 4800, Note_on_c, 5, 72, 80
9, 4800, Note_on_c, 5, 63, 80
9, 5373, Note_on_c, 5, 69, 0
9, 5388, Note_on_c, 5, 72, 0
9, 5400, Note_on_c, 5, 69, 96
9, 5518, Note_on_c, 5, 69, 0
9, 5520, Note_on_c, 5, 70, 101
9, 5638, Note_on_c, 5, 70, 0
9, 5640, Note_on_c, 5, 69, 96
9, 5741, Note_on_c, 5, 63, 0
9, 5758, Note_on_c, 5, 69, 0
9, 5760, Note_on_c, 5, 69, 73
9, 5760, Note_on_c, 5, 65, 79
9, 5760, Note_on_c, 5, 62, 81
9, 6230, Note_on_c, 5, 62, 0
9, 6230, Note_on_c, 5, 65, 0
9, 6230, Note_on_c, 5, 69, 0
9, 6240, Note_on_c, 5, 58, 86
9, 6240, Note_on_c, 5, 62, 82
9, 6240, Note_on_c, 5, 65, 82
9, 6475, Note_on_c, 5, 65, 0
9, 6475, Note_on_c, 5, 62, 0
9, 6475, Note_on_c, 5, 58, 0
9, 6480, Note_on_c, 5, 64, 87
9, 6480, Note_on_c, 5, 67, 80
9, 6480, Note_on_c, 5, 60, 80
9, 6707, Note_on_c, 5, 60, 0
9, 6715, Note_on_c, 5, 67, 0
9, 6715, Note_on_c, 5, 64, 0
9, 17280, Note_on_c, 5, 69, 86
9, 17280, Note_on_c, 5, 72, 74
9, 17280, Note_on_c, 5, 65, 85
9, 17853, Note_on_c, 5, 69, 0
9, 17868, Note_on_c, 5, 72, 0
9, 17880, Note_on_c, 5, 69, 104
9, 17998, Note_on_c, 5, 69, 0
9, 18000, Note_on_c, 5, 70, 102
9, 18118, Note_on_c, 5, 70, 0
9, 18120, Note_on_c, 5, 72, 100
9, 18213, Note_on_c, 5, 65, 0
9, 18238, Note_on_c, 5, 72, 0
9, 18240, Note_on_c, 5, 64, 87
9, 18240, Note_on_c, 5, 72, 82
9, 18240, Note_on_c, 5, 69, 87
9, 18813, Note_on_c, 5, 69, 0
9, 18828, Note_on_c, 5, 72, 0
9, 18840, Note_on_c, 5, 69, 93
9, 18958, Note_on_c, 5, 69, 0
9, 18960, Note_on_c, 5, 70, 107
9, 19078, Note_on_c, 5, 70, 0
9, 19080, Note_on_c, 5, 72, 103
9, 19181, Note_on_c, 5, 64, 0
9, 19198, Note_on_c, 5, 72, 0
9, 19200, Note_on_c, 5, 69, 81
9, 19200, Note_on_c, 5, 72, 87
9, 19200, Note_on_c, 5, 63, 76
9, 19773, Note_on_c, 5, 69, 0
9, 19788, Note_on_c, 5, 72, 0
9, 19800, Note_on_c, 5, 69, 99
9, 19918, Note_on_c, 5, 69, 0
9, 19920, Note_on_c, 5, 70, 96
9, 20038, Note_on_c, 5, 70, 0
9, 20040, Note_on_c, 5, 69, 104
9, 20141, Note_on_c, 5, 63, 0
9, 20158, Note_on_c, 5, 69, 0
9, 20160, Note_on_c, 5, 69, 83
9, 20160, Note_on_c, 5, 65, 84
9, 20160, Note_on_c, 5, 62, 87
9, 20630, Note_on_c, 5, 62, 0
9, 20630, Note_on_c, 5, 65, 0
9, 20630, Note_on_c, 5, 69, 0
9, 20640, Note_on_c, 5, 58, 80
9, 20640, Note_on_c, 5, 62, 87
9, 20640, Note_on_c, 5, 65, 81
9, 20875, Note_on_c, 5, 65, 0
9, 20875, Note_on_c, 5, 62, 0
9, 20875, Note_on_c, 5, 58, 0
9, 20880, Note_on_c, 5, 64, 73
9, 20880, Note_on_c, 5, 67, 81
9, 20880, Note_on_c, 5, 60, 85
9, 21107, Note_on_c, 5, 60, 0
9, 21115, Note_on_c, 5, 67, 0
9, 21115, Note_on_c, 5, 64, 0
9, 21120, Note_on_c, 5, 69, 80
9, 21120, Note_on_c, 5, 72, 73
9, 21120, Note_on_c, 5, 65, 82
9, 21693, Note_on_c, 5, 69, 0
9, 21708, Note_on_c, 5, 72, 0
9, 21720, Note_on_c, 5, 69, 105
9, 21838, Note_on_c, 5, 69, 0
9, 21840, Note_on_c, 5, 70, 100
9, 21958, Note_on_c, 5, 70, 0
9, 21960, Note_on_c, 5, 72, 93
9, 22053, Note_on_c, 5, 65, 0
9, 22078, Note_on_c, 5, 72, 0
9, 22080, Note_on_c, 5, 64, 83
9, 22080, Note_on_c, 5, 72, 79
9, 22080, Note_on_c, 5, 69, 82
9, 22653, Note_on_c, 5, 69, 0
9, 22668, Note_on_c, 5, 72, 0
9, 22680, Note_on_c, 5, 69, 106
9, 22798, Note_on_c, 5, 69, 0
9, 22800, Note_on_c, 5, 70, 100
9, 22918, Note_on_c, 5, 70, 0
9, 22920, Note_on_c, 5, 72, 100
9, 23021, Note_on_c, 5, 64, 0
9, 23038, Note_on_c, 5, 72, 0
9, 23040, Note_on_c, 5, 69, 85
9, 23040, Note_on_c, 5, 72, 80
9, 23040, Note_on_c, 5, 63, 82
9, 23613, Note_on_c, 5, 69, 0
9, 23628, Note_on_c, 5, 72, 0
9, 23640, Note_on_c, 5, 69, 105
9, 23758, Note_on_c, 5, 69, 0
9, 23760, Note_on_c, 5, 70, 98
9, 23878, Note_on_c, 5, 70, 0
9, 23880, Note_on_c, 5, 69, 102
9, 23981, Note_on_c, 5, 63, 0
9, 23998, Note_on_c, 5, 69, 0
9, 24000, Note_on_c, 5, 69, 86
9, 24000, Note_on_c, 5, 65, 82
9, 24000, Note_on_c, 5, 62, 80
9, 24470, Note_on_c, 5, 62, 0
9, 24470, Note_on_c, 5, 65, 0
9, 24470, Note_on_c, 5, 69, 0
9, 24480, Note_on_c, 5, 58, 87
9, 24480, Note_on_c, 5, 62, 80
9, 24480, Note_on_c, 5, 65, 84
9, 24715, Note_on_c, 5, 65, 0
9, 24715, Note_on_c, 5, 62, 0
9, 24715, Note_on_c, 5, 58, 0
9, 24720, Note_on_c, 5, 64, 76
9, 24720, Note_on_c, 5, 67, 80
9, 24720, Note_on_c, 5, 60, 79
9, 24947, Note_on_c, 5, 60, 0
9, 24955, Note_on_c, 5, 67, 0
9, 24955, Note_on_c, 5, 64, 0
9, 28800, Note_on_c, 5, 77, 93
9, 29506, Note_on_c, 5, 77, 0
9, 29520, Note_on_c, 5, 72, 89
9, 29755, Note_on_c, 5, 72, 0
9, 29760, Note_on_c, 5, 69, 93
9, 30466, Note_on_c, 5, 69, 0
9, 30480, Note_on_c, 5, 67, 106
9, 30598, Note_on_c, 5, 67, 0
9, 30600, Note_on_c, 5, 65, 97
9, 30718, Note_on_c, 5, 65, 0
9, 30720, Note_on_c, 5, 69, 84
9, 31426, Note_on_c, 5, 69, 0
9, 31440, Note_on_c, 5, 77, 87
9, 31675, Note_on_c, 5, 77, 0
9, 31680, Note_on_c, 5, 70, 86
9, 32150, Note_on_c, 5, 70, 0
9, 32160, Note_on_c, 5, 67, 88
9, 32630, Note_on_c, 5, 67, 0
9, 32640, Note_on_c, 5, 65, 97
9, 33110, Note_on_c, 5, 65, 0
9, 33120, Note_on_c, 5, 67, 84
9, 33590, Note_on_c, 5, 67, 0
9, 33600, Note_on_c, 5, 70, 95
9, 34070, Note_on_c, 5, 70, 0
9, 34080, Note_on_c, 5, 72, 93
9, 34521, Note_on_c, 5, 72, 0
9, 34560, Note_on_c, 5, 72, 102
9, 34619, Note_on_c, 5, 72, 0
9, 35520, Note_on_c, 5, 69, 84
9, 35520, Note_on_c, 5, 72, 85
9, 35520, Note_on_c, 5, 65, 80
9, 36093, Note_on_c, 5, 69, 0
9, 36108, Note_on_c, 5, 72, 0
9, 36120, Note_on_c, 5, 69, 100
9, 36120, Note_on_c, 5, 81, 80
9, 36238, Note_on_c, 5, 81, 0
9, 36238, Note_on_c, 5, 69, 0
9, 36240, Note_on_c, 5, 70, 103
9, 36240, Note_on_c, 5, 82, 76
9, 36358, Note_on_c, 5, 82, 0
9, 36358, Note_on_c, 5, 70, 0
9, 36360, Note_on_c, 5, 72, 101
9, 36360, Note_on_c, 5, 84, 74
9, 36453, Note_on_c, 5, 65, 0
9, 36478, Note_on_c, 5, 84, 0
9, 36478, Note_on_c, 5, 72, 0
9, 36480, Note_on_c, 5, 64, 81
9, 36480, Note_on_c, 5, 72, 74
9, 36480, Note_on_c, 5, 69, 81
9, 36480, Note_on_c, 5, 84, 74
9, 37053, Note_on_c, 5, 69, 0
9, 37068, Note_on_c, 5, 84, 0
9, 37068, Note_on_c, 5, 72, 0
9, 37080, Note_on_c, 5, 69, 95
9, 37080, Note_on_c, 5, 81, 84
9, 37198, Note_on_c, 5, 81, 0
9, 37198, Note_on_c, 5, 69, 0
9, 37200, Note_on_c, 5, 70, 100
9, 37200, Note_on_c, 5, 82, 80
9, 37318, Note_on_c, 5, 82, 0
9, 37318, Note_on_c, 5, 70, 0
9, 37320, Note_on_c, 5, 72, 94
9, 37320, Note_on_c, 5, 84, 75
9, 37421, Note_on_c, 5, 64, 0
9, 37438, Note_on_c, 5, 84, 0
9, 37438, Note_on_c, 5, 72, 0
9, 37440, Note_on_c, 5, 69, 84
9, 37440, Note_on_c, 5, 72, 80
9, 37440, Note_on_c, 5, 63, 80
9, 37440, Note_on_c, 5, 84, 76
9, 38013, Note_on_c, 5, 69, 0
9, 38028, Note_on_c, 5, 72, 0
9, 38028, Note_on_c, 5, 84, 0
9, 38040, Note_on_c, 5, 69, 105
9, 38040, Note_on_c, 5, 81, 100
9, 38158, Note_on_c, 5, 81, 0
9, 38158, Note_on_c, 5, 69, 0
9, 38160, Note_on_c, 5, 70, 107
9, 38160, Note_on_c, 5, 82, 96
9, 38278, Note_on_c, 5, 82, 0
9, 38278, Note_on_c, 5, 70, 0
9, 38280, Note_on_c, 5, 69, 100
9, 38280, Note_on_c, 5, 81, 95
9, 38381, Note_on_c, 5, 63, 0
9, 38398, Note_on_c, 5, 81, 0
9, 38398, Note_on_c, 5, 69, 0
9, 38400, Note_on_c, 5, 69, 86
9, 38400, Note_on_c, 5, 65, 80
9, 38400, Note_on_c, 5, 62, 81
9, 38400, Note_on_c, 5, 74, 84
9, 38870, Note_on_c, 5, 74, 0
9, 38870, Note_on_c, 5, 69, 0
9, 38870, Note_on_c, 5, 65, 0
9, 38870, Note_on_c, 5, 62, 0
9, 38880, Note_on_c, 5, 58, 80
9, 38880, Note_on_c, 5, 62, 86
9, 38880, Note_on_c, 5, 65, 74
9, 38880, Note_on_c, 5, 70, 81
9, 39115, Note_on_c, 5, 70, 0
9, 39115, Note_on_c, 5, 58, 0
9, 39115, Note_on_c, 5, 62, 0
9, 39115, Note_on_c, 5, 65, 0
9, 39120, Note_on_c, 5, 64, 83
9, 39120, Note_on_c, 5, 67, 74
9, 39120, Note_on_c, 5, 60, 82
9, 39120, Note_on_c, 5, 72, 87
9, 39347, Note_on_c, 5, 60, 0
9, 39355, Note_on_c, 5, 64, 0
9, 39355, Note_on_c, 5, 67, 0
9, 39355, Note_on_c, 5, 72, 0
9, 39360, Note_on_c, 5, 69, 78
9, 39360, Note_on_c, 5, 72, 79
9, 39360, Note_on_c, 5, 65, 86
9, 39933, Note_on_c, 5, 69, 0
9, 39948, Note_on_c, 5, 72, 0
9, 39960, Note_on_c, 5, 69, 98
9, 39960, Note_on_c, 5, 81, 74
9, 40078, Note_on_c, 5, 81, 0
9, 40078, Note_on_c, 5, 69, 0
9, 40080, Note_on_c, 5, 70, 102
9, 40080, Note_on_c, 5, 82, 78
9, 40198, Note_on_c, 5, 82, 0
9, 40198, Note_on_c, 5, 70, 0
9, 40200, Note_on_c, 5, 72, 103
9, 40200, Note_on_c, 5, 84, 83
9, 40293, Note_on_c, 5, 65, 0
9, 40318, Note_on_c, 5, 84, 0
9, 40318, Note_on_c, 5, 72, 0
9, 40320, Note_on_c, 5, 64, 79
9, 40320, Note_on_c, 5, 72, 74
9, 40320, Note_on_c, 5, 69, 86
9, 40320, Note_on_c, 5, 84, 78
9, 40893, Note_on_c, 5, 69, 0
9, 40908, Note_on_c, 5, 84, 0
9, 40908, Note_on_c, 5, 72, 0
9, 40920, Note_on_c, 5, 69, 99
9, 40920, Note_on_c, 5, 81, 80
9, 41038, Note_on_c, 5, 81, 0
9, 41038, Note_on_c, 5, 69, 0
9, 41040, Note_on_c, 5, 70, 94
9, 41040, Note_on_c, 5, 82, 77
9, 41158, Note_on_c, 5, 82, 0
9, 41158, Note_on_c, 5, 70, 0
9, 41160, Note_on_c, 5, 72, 97
9, 41160, Note_on_c, 5, 84, 77
9, 41261, Note_on_c, 5, 64, 0
9, 41278, Note_on_c, 5, 84, 0
9, 41278, Note_on_c, 5, 72, 0
9, 41280, Note_on_c, 5, 69, 77
9, 41280, Note_on_c, 5, 72, 84
9, 41280, Note_on_c, 5, 63, 74
9, 41280, Note_on_c, 5, 84, 87
9, 41853, Note_on_c, 5, 69, 0
9, 41868, Note_on_c, 5, 72, 0
9, 41868, Note_on_c, 5, 84, 0
9, 41880, Note_on_c, 5, 69, 104
9, 41880, Note_on_c, 5, 81, 101
9, 41998, Note_on_c, 5, 81, 0
9, 41998, Note_on_c, 5, 69, 0
9, 42000, Note_on_c, 5, 70, 100
9, 42000, Note_on_c, 5, 82, 105
9, 42118, Note_on_c, 5, 82, 0
9, 42118, Note_on_c, 5, 70, 0
9, 42120, Note_on_c, 5, 69, 101
9, 42120, Note_on_c, 5, 81, 95
9, 42221, Note_on_c, 5, 63, 0
9, 42238, Note_on_c, 5, 81, 0
9, 42238, Note_on_c, 5, 69, 0
9, 42240, Note_on_c, 5, 69, 74
9, 42240, Note_on_c, 5, 65, 75
9, 42240, Note_on_c, 5, 62, 73
9, 42240, Note_on_c, 5, 74, 87
9, 42710, Note_on_c, 5, 74, 0
9, 42710, Note_on_c, 5, 69, 0
9, 42710, Note_on_c, 5, 65, 0
9, 42710, Note_on_c, 5, 62, 0
9, 42720, Note_on_c, 5, 58, 80
9, 42720, Note_on_c, 5, 62, 87
9, 42720, Note_on_c, 5, 65, 84
9, 42720, Note_on_c, 5, 70, 80
9, 42955, Note_on_c, 5, 70, 0
9, 42955, Note_on_c, 5, 58, 0
9, 42955, Note_on_c, 5, 62, 0
9, 42955, Note_on_c, 5, 65, 0
9, 42960, Note_on_c, 5, 64, 86
9, 42960, Note_on_c, 5, 67, 78
9, 42960, Note_on_c, 5, 60, 77
9, 42960, Note_on_c, 5, 72, 77
9, 43187, Note_on_c, 5, 60, 0
9, 43195, Note_on_c, 5, 64, 0
9, 43195, Note_on_c, 5, 67, 0
9, 43195, Note_on_c, 5, 72, 0
9, 43200, Note_on_c, 5, 69, 83
9, 43200, Note_on_c, 5, 76, 83
9, 43200, Note_on_c, 5, 72, 80
9, 44141, Note_on_c, 5, 72, 0
9, 44141, Note_on_c, 5, 76, 0
9, 44141, Note_on_c, 5, 69, 0
9, 44160, Note_on_c, 5, 70, 73
9, 44160, Note_on_c, 5, 67, 73
9, 44160, Note_on_c, 5, 62, 87
9, 45101, Note_on_c, 5, 62, 0
9, 45101, Note_on_c, 5, 67, 0
9, 45101, Note_on_c, 5, 70, 0
9, 45120, Note_on_c, 5, 69, 81
9, 45120, Note_on_c, 5, 76, 80
9, 45120, Note_on_c, 5, 72, 87
9, 46061, Note_on_c, 5, 72, 0
9, 46061, Note_on_c, 5, 76, 0
9, 46061, Note_on_c, 5, 69, 0
9, 46080, Note_on_c, 5, 74, 77
9, 46080, Note_on_c, 5, 65, 80
9, 46080, Note_on_c, 5, 70, 74
9, 46550, Note_on_c, 5, 70, 0
9, 46550, Note_on_c, 5, 65, 0
9, 46550, Note_on_c, 5, 74, 0
9, 46560, Note_on_c, 5, 76, 85
9, 46560, Note_on_c, 5, 72, 74
9, 46560, Note_on_c, 5, 67, 84
9, 47016, Note_on_c, 5, 67, 0
9, 47016, Note_on_c, 5, 72, 0
9, 47016, Note_on_c, 5, 76, 0
9, 47040, Note_on_c, 5, 72, 78
9, 47040, Note_on_c, 5, 76, 82
9, 47040, Note_on_c, 5, 67, 83
9, 47099, Note_on_c, 5, 67, 0
9, 47099, Note_on_c, 5, 76, 0
9, 47099, Note_on_c, 5, 72, 0
9, 47520, Note_on_c, 5, 70, 79
9, 47520, Note_on_c, 5, 73, 74
9, 47520, Note_on_c, 5, 66, 73
9, 48093, Note_on_c, 5, 70, 0
9, 48108, Note_on_c, 5, 73, 0
9, 48120, Note_on_c, 5, 70, 95
9, 48238, Note_on_c, 5, 70, 0
9, 48240, Note_on_c, 5, 71, 100
9, 48358, Note_on_c, 5, 71, 0
9, 48360, Note_on_c, 5, 73, 99
9, 48453, Note_on_c, 5, 66, 0
9, 48478, Note_on_c, 5, 73, 0
9, 48480, Note_on_c, 5, 65, 83
9, 48480, Note_on_c, 5, 73, 80
9, 48480, Note_on_c, 5, 70, 87
9, 49053, Note_on_c, 5, 70, 0
9, 49068, Note_on_c, 5, 73, 0
9, 49080, Note_on_c, 5, 70, 104
9, 49198, Note_on_c, 5, 70, 0
9, 49200, Note_on_c, 5, 71, 98
9, 49318, Note_on_c, 5, 71, 0
9, 49320, Note_on_c, 5, 73, 101
9, 49421, Note_on_c, 5, 65, 0
9, 49438, Note_on_c, 5, 73, 0
9, 49440, Note_on_c, 5, 70, 84
9, 49440, Note_on_c, 5, 73, 87
9, 49440, Note_on_c, 5, 64, 83
9, 50013, Note_on_c, 5, 70, 0
9, 50028, Note_on_c, 5, 73, 0
9, 50040, Note_on_c, 5, 70, 96
9, 50158, Note_on_c, 5, 70, 0
9, 50160, Note_on_c, 5, 71, 99
9, 50278, Note_on_c, 5, 71, 0
9, 50280, Note_on_c, 5, 70, 100
9, 50381, Note_on_c, 5, 64, 0
9, 50398, Note_on_c, 5, 70, 0
9, 50400, Note_on_c, 5, 70, 76
9, 50400, Note_on_c, 5, 66, 73
9, 50400, Note_on_c, 5, 63, 77
9, 50870, Note_on_c, 5, 63, 0
9, 50870, Note_on_c, 5, 66, 0
9, 50870, Note_on_c, 5, 70, 0
9, 50880, Note_on_c, 5, 59, 87
9, 50880, Note_on_c, 5, 63, 80
9, 50880, Note_on_c, 5, 66, 80
9, 51115, Note_on_c, 5, 66, 0
9, 51115, Note_on_c, 5, 63, 0
9, 51115, Note_on_c, 5, 59, 0
9, 51120, Note_on_c, 5, 65, 79
9, 51120, Note_on_c, 5, 68, 74
9, 51120, Note_on_c, 5, 61, 79
9, 51347, Note_on_c, 5, 61, 0
9, 51355, Note_on_c, 5, 68, 0
9, 51355, Note_on_c, 5, 65, 0
9, 51360, Note_on_c, 5, 70, 80
9, 51360, Note_on_c, 5, 73, 87
9, 51360, Note_on_c, 5, 66, 87
9, 51933, Note_on_c, 5, 70, 0
9, 51948, Note_on_c, 5, 73, 0
9, 51960, Note_on_c, 5, 70, 100
9, 51960, Note_on_c, 5, 82, 87
9, 52078, Note_on_c, 5, 82, 0
9, 52078, Note_on_c, 5, 70, 0
9, 52080, Note_on_c, 5, 71, 101
9, 52080, Note_on_c, 5, 83, 76
9, 52198, Note_on_c, 5, 83, 0
9, 52198, Note_on_c, 5, 71, 0
9, 52200, Note_on_c, 5, 73, 106
9, 52200, Note_on_c, 5, 85, 86
9, 52293, Note_on_c, 5, 66, 0
9, 52318, Note_on_c, 5, 85, 0
9, 52318, Note_on_c, 5, 73, 0
9, 52320, Note_on_c, 5, 65, 82
9, 52320, Note_on_c, 5, 73, 80
9, 52320, Note_on_c, 5, 70, 86
9, 52320, Note_on_c, 5, 85, 73
9, 52893, Note_on_c, 5, 70, 0
9, 52908, Note_on_c, 5, 85, 0
9, 52908, Note_on_c, 5, 73, 0
9, 52920, Note_on_c, 5, 70, 98
9, 52920, Note_on_c, 5, 82, 87
9, 53038, Note_on_c, 5, 82, 0
9, 53038, Note_on_c, 5, 70, 0
9, 53040, Note_on_c, 5, 71, 97
9, 53040, Note_on_c, 5, 83, 77
9, 53158, Note_on_c, 5, 83, 0
9, 53158, Note_on_c, 5, 71, 0
9, 53160, Note_on_c, 5, 73, 97
9, 53160, Note_on_c, 5, 85, 85
9, 53261, Note_on_c, 5, 65, 0
9, 53278, Note_on_c, 5, 85, 0
9, 53278, Note_on_c, 5, 73, 0
9, 53280, Note_on_c, 5, 70, 86
9, 53280, Note_on_c, 5, 73, 83
9, 53280, Note_on_c, 5, 64, 84
9, 53280, Note_on_c, 5, 85, 80
9, 53853, Note_on_c, 5, 70, 0
9, 53868, Note_on_c, 5, 73, 0
9, 53868, Note_on_c, 5, 85, 0
9, 53880, Note_on_c, 5, 70, 100
9, 53880, Note_on_c, 5, 82, 100
9, 53998, Note_on_c, 5, 82, 0
9, 53998, Note_on_c, 5, 70, 0
9, 54000, Note_on_c, 5, 71, 99
9, 54000, Note_on_c, 5, 83, 102
9, 54118, Note_on_c, 5, 83, 0
9, 54118, Note_on_c, 5, 71, 0
9, 54120, Note_on_c, 5, 70, 94
9, 54120, Note_on_c, 5, 82, 96
9, 54221, Note_on_c, 5, 64, 0
9, 54238, Note_on_c, 5, 82, 0
9, 54238, Note_on_c, 5, 70, 0
9, 54240, Note_on_c, 5, 70, 83
9, 54240, Note_on_c, 5, 66, 80
9, 54240, Note_on_c, 5, 63, 80
9, 54240, Note_on_c, 5, 75, 80
9, 54710, Note_on_c, 5, 75, 0
9, 54710, Note_on_c, 5, 70, 0
9, 54710, Note_on_c, 5, 66, 0
9, 54710, Note_on_c, 5, 63, 0
9, 54720, Note_on_c, 5, 59, 80
9, 54720, Note_on_c, 5, 63, 81
9, 54720, Note_on_c, 5, 66, 73
9, 54720, Note_on_c, 5, 71, 82
9, 54955, Note_on_c, 5, 71, 0
9, 54955, Note_on_c, 5, 59, 0
9, 54955, Note_on_c, 5, 63, 0
9, 54955, Note_on_c, 5, 66, 0
9, 54960, Note_on_c, 5, 65, 80
9, 54960, Note_on_c, 5, 68, 84
9, 54960, Note_on_c, 5, 61, 87
9, 54960, Note_on_c, 5, 73, 75
9, 55187, Note_on_c, 5, 61, 0
9, 55195, Note_on_c, 5, 65, 0
9, 55195, Note_on_c, 5, 68, 0
9, 55195, Note_on_c, 5, 73, 0
9, 55200, Note_on_c, 5, 70, 80
9, 55200, Note_on_c, 5, 73, 75
9, 55200, Note_on_c, 5, 66, 75
9, 55773, Note_on_c, 5, 70, 0
9, 55788, Note_on_c, 5, 73, 0
9, 55800, Note_on_c, 5, 70, 94
9, 55800, Note_on_c, 5, 82, 77
9, 55918, Note_on_c, 5, 82, 0
9, 55918, Note_on_c, 5, 70, 0
9, 55920, Note_on_c, 5, 71, 102
9, 55920, Note_on_c, 5, 83, 79
9, 56038, Note_on_c, 5, 83, 0
9, 56038, Note_on_c, 5, 71, 0
9, 56040, Note_on_c, 5, 73, 102
9, 56040, Note_on_c, 5, 85, 78
9, 56133, Note_on_c, 5, 66, 0
9, 56158, Note_on_c, 5, 85, 0
9, 56158, Note_on_c, 5, 73, 0
9, 56160, Note_on_c, 5, 65, 78
9, 56160, Note_on_c, 5, 73, 83
9, 56160, Note_on_c, 5, 70, 79
9, 56160, Note_on_c, 5, 85, 80
9, 56733, Note_on_c, 5, 70, 0
9, 56748, Note_on_c, 5, 85, 0
9, 56748, Note_on_c, 5, 73, 0
9, 56760, Note_on_c, 5, 70, 100
9, 56760, Note_on_c, 5, 82, 80
9, 56878, Note_on_c, 5, 82, 0
9, 56878, Note_on_c, 5, 70, 0
9, 56880, Note_on_c, 5, 71, 107
9, 56880, Note_on_c, 5, 83, 79
9, 56998, Note_on_c, 5, 83, 0
9, 56998, Note_on_c, 5, 71, 0
9, 57000, Note_on_c, 5, 73, 100
9, 57000, Note_on_c, 5, 85, 83
9, 57101, Note_on_c, 5, 65, 0
9, 57118, Note_on_c, 5, 85, 0
9, 57118, Note_on_c, 5, 73, 0
9, 57120, Note_on_c, 5, 70, 76
9, 57120, Note_on_c, 5, 73, 75
9, 57120, Note_on_c, 5, 64, 77
9, 57120, Note_on_c, 5, 85, 80
9, 57693, Note_on_c, 5, 70, 0
9, 57708, Note_on_c, 5, 73, 0
9, 57708, Note_on_c, 5, 85, 0
9, 57720, Note_on_c, 5, 70, 94
9, 57720, Note_on_c, 5, 82, 99
9, 57838, Note_on_c, 5, 82, 0
9, 57838, Note_on_c, 5, 70, 0
9, 57840, Note_on_c, 5, 71, 106
9, 57840, Note_on_c, 5, 83, 93
9, 57958, Note_on_c, 5, 83, 0
9, 57958, Note_on_c, 5, 71, 0
9, 57960, Note_on_c, 5, 70, 98
9, 57960, Note_on_c, 5, 82, 95
9, 58061, Note_on_c, 5, 64, 0
9, 58078, Note_on_c, 5, 82, 0
9, 58078, Note_on_c, 5, 70, 0
9, 58080, Note_on_c, 5, 70, 85
9, 58080, Note_on_c, 5, 66, 81
9, 58080, Note_on_c, 5, 63, 82
9, 58080, Note_on_c, 5, 75, 73
9, 58550, Note_on_c, 5, 75, 0
9, 58550, Note_on_c, 5, 70, 0
9, 58550, Note_on_c, 5, 66, 0
9, 58550, Note_on_c, 5, 63, 0
9, 58560, Note_on_c, 5, 59, 83
9, 58560, Note_on_c, 5, 63, 84
9, 58560, Note_on_c, 5, 66, 73
9, 58560, Note_on_c, 5, 71, 84
9, 58795, Note_on_c, 5, 71, 0
9, 58795, Note_on_c, 5, 59, 0
9, 58795, Note_on_c, 5, 63, 0
9, 58795, Note_on_c, 5, 66, 0
9, 58800, Note_on_c, 5, 65, 80
9, 58800, Note_on_c, 5, 68, 78
9, 58800, Note_on_c, 5, 61, 77
9, 58800, Note_on_c, 5, 73, 81
9, 59027, Note_on_c, 5, 61, 0
9, 59035, Note_on_c, 5, 65, 0
9, 59035, Note_on_c, 5, 68, 0
9, 59035, Note_on_c, 5, 73, 0
9, 59040, Note_on_c, 5, 70, 75
9, 59040, Note_on_c, 5, 73, 84
9, 59040, Note_on_c, 5, 66, 86
9, 59613, Note_on_c, 5, 70, 0
9, 59628, Note_on_c, 5, 73, 0
9, 59640, Note_on_c, 5, 70, 104
9, 59640, Note_on_c, 5, 82, 87
9, 59758, Note_on_c, 5, 82, 0
9, 59758, Note_on_c, 5, 70, 0
9, 59760, Note_on_c, 5, 71, 94
9, 59760, Note_on_c, 5, 83, 84
9, 59878, Note_on_c, 5, 83, 0
9, 59878, Note_on_c, 5, 71, 0
9, 59880, Note_on_c, 5, 73, 95
9, 59880, Note_on_c, 5, 85, 82
9, 59973, Note_on_c, 5, 66, 0
9, 59998, Note_on_c, 5, 85, 0
9, 59998, Note_on_c, 5, 73, 0
9, 60000, Note_on_c, 5, 65, 86
9, 60000, Note_on_c, 5, 73, 80
9, 60000, Note_on_c, 5, 70, 83
9, 60000, Note_on_c, 5, 85, 76
9, 60573, Note_on_c, 5, 70, 0
9, 60588, Note_on_c, 5, 85, 0
9, 60588, Note_on_c, 5, 73, 0
9, 60600, Note_on_c, 5, 70, 95
9, 60600, Note_on_c, 5, 82, 79
9, 60718, Note_on_c, 5, 82, 0
9, 60718, Note_on_c, 5, 70, 0
9, 60720, Note_on_c, 5, 71, 93
9, 60720, Note_on_c, 5, 83, 83
9, 60838, Note_on_c, 5, 83, 0
9, 60838, Note_on_c, 5, 71, 0
9, 60840, Note_on_c, 5, 73, 94
9, 60840, Note_on_c, 5, 85, 81
9, 60941, Note_on_c, 5, 65, 0
9, 60958, Note_on_c, 5, 85, 0
9, 60958, Note_on_c, 5, 73, 0
9, 60960, Note_on_c, 5, 70, 83
9, 60960, Note_on_c, 5, 73, 80
9, 60960, Note_on_c, 5, 64, 78
9, 60960, Note_on_c, 5, 85, 86
9, 61533, Note_on_c, 5, 70, 0
9, 61548, Note_on_c, 5, 73, 0
9, 61548, Note_on_c, 5, 85, 0
9, 61560, Note_on_c, 5, 70, 96
9, 61560, Note_on_c, 5, 82, 107
9, 61678, Note_on_c, 5, 82, 0
9, 61678, Note_on_c, 5, 70, 0
9, 61680, Note_on_c, 5, 71, 103
9, 61680, Note_on_c, 5, 83, 93
9, 61798, Note_on_c, 5, 83, 0
9, 61798, Note_on_c, 5, 71, 0
9, 61800, Note_on_c, 5, 70, 97
9, 61800, Note_on_c, 5, 82, 106
9, 61901, Note_on_c, 5, 64, 0
9, 61918, Note_on_c, 5, 82, 0
9, 61918, Note_on_c, 5, 70, 0
9, 61920, Note_on_c, 5, 70, 82
9, 61920, Note_on_c, 5, 66, 80
9, 61920, Note_on_c, 5, 63, 73
9, 61920, Note_on_c, 5, 75, 82
9, 62390, Note_on_c, 5, 75, 0
9, 62390, Note_on_c, 5, 70, 0
9, 62390, Note_on_c, 5, 66, 0
9, 62390, Note_on_c, 5, 63, 0
9, 62400, Note_on_c, 5, 59, 73
9, 62400, Note_on_c, 5, 63, 85
9, 62400, Note_on_c, 5, 66, 87
9, 62400, Note_on_c, 5, 71, 84
9, 62635, Note_on_c, 5, 71, 0
9, 62635, Note_on_c, 5, 59, 0
9, 62635, Note_on_c, 5, 63, 0
9, 62635, Note_on_c, 5, 66, 0
9, 62640, Note_on_c, 5, 65, 82
9, 62640, Note_on_c, 5, 68, 78
9, 62640, Note_on_c, 5, 61, 73
9, 62640, Note_on_c, 5, 73, 78
9, 62867, Note_on_c, 5, 61, 0
9, 62875, Note_on_c, 5, 65, 0
9, 62875, Note_on_c, 5, 68, 0
9, 62875, Note_on_c, 5, 73, 0
9, 62880, Note_on_c, 5, 70, 90
9, 62880, Note_on_c, 5, 73, 90
9, 62880, Note_on_c, 5, 66, 90
9, 63350, Note_on_c, 5, 66, 0
9, 63350, Note_on_c, 5, 73, 0
9, 63350, Note_on_c, 5, 70, 0
9, 63350, End_track
10, 0, Start_track
10, 0, Title_t, "Music Box"
10, 0, Instrument_name_t, "     "
10, 7, Control_c, 6, 121, 0
10, 30, Program_c, 6, 10
10, 37, Control_c, 6, 11, 127
10, 45, Control_c, 6, 91, 110
10, 52, Control_c, 6, 93, 85
10, 60, Control_c, 6, 94, 0
10, 67, Control_c, 6, 10, 104
10, 75, Control_c, 6, 100, 0
10, 82, Control_c, 6, 101, 0
10, 90, Control_c, 6, 6, 2
10, 157, Control_c, 6, 7, 100
10, 480, Note_on_c, 6, 65, 85
10, 540, Note_on_c, 6, 69, 85
10, 600, Note_on_c, 6, 72, 85
10, 660, Note_on_c, 6, 77, 85
10, 703, Note_on_c, 6, 72, 0
10, 720, Note_on_c, 6, 72, 85
10, 761, Note_on_c, 6, 69, 0
10, 780, Note_on_c, 6, 69, 85
10, 823, Note_on_c, 6, 72, 0
10, 840, Note_on_c, 6, 72, 85
10, 881, Note_on_c, 6, 77, 0
10, 900, Note_on_c, 6, 77, 85
10, 949, Note_on_c, 6, 69, 0
10, 950, Note_on_c, 6, 72, 0
10, 950, Note_on_c, 6, 65, 0
10, 951, Note_on_c, 6, 77, 0
10, 960, Note_on_c, 6, 64, 85
10, 1020, Note_on_c, 6, 69, 85
10, 1080, Note_on_c, 6, 72, 85
10, 1140, Note_on_c, 6, 76, 85
10, 1183, Note_on_c, 6, 72, 0
10, 1200, Note_on_c, 6, 72, 85
10, 1241, Note_on_c, 6, 69, 0
10, 1260, Note_on_c, 6, 69, 85
10, 1303, Note_on_c, 6, 72, 0
10, 1320, Note_on_c, 6, 72, 85
10, 1361, Note_on_c, 6, 76, 0
10, 1380, Note_on_c, 6, 76, 85
10, 1429, Note_on_c, 6, 69, 0
10, 1430, Note_on_c, 6, 72, 0
10, 1430, Note_on_c, 6, 64, 0
10, 1431, Note_on_c, 6, 76, 0
10, 1440, Note_on_c, 6, 63, 85
10, 1500, Note_on_c, 6, 67, 85
10, 1560, Note_on_c, 6, 70, 85
10, 1620, Note_on_c, 6, 75, 85
10, 1663, Note_on_c, 6, 70, 0
10, 1680, Note_on_c, 6, 70, 85
10, 1721, Note_on_c, 6, 67, 0
10, 1740, Note_on_c, 6, 67, 85
10, 1783, Note_on_c, 6, 70, 0
10, 1800, Note_on_c, 6, 70, 85
10, 1841, Note_on_c, 6, 75, 0
10, 1860, Note_on_c, 6, 75, 85
10, 1909, Note_on_c, 6, 67, 0
10, 1910, Note_on_c, 6, 70, 0
10, 1910, Note_on_c, 6, 63, 0
10, 1911, Note_on_c, 6, 75, 0
10, 1920, Note_on_c, 6, 62, 85
10, 1980, Note_on_c, 6, 65, 85
10, 2040, Note_on_c, 6, 70, 85
10, 2100, Note_on_c, 6, 74, 85
10, 2141, Note_on_c, 6, 62, 0
10, 2142, Note_on_c, 6, 65, 0
10, 2143, Note_on_c, 6, 70, 0
10, 2144, Note_on_c, 6, 74, 0
10, 2160, Note_on_c, 6, 61, 85
10, 2220, Note_on_c, 6, 65, 85
10, 2280, Note_on_c, 6, 70, 85
10, 2322, Note_on_c, 6, 61, 0
10, 2340, Note_on_c, 6, 61, 85
10, 2632, Note_on_c, 6, 65, 0
10, 2633, Note_on_c, 6, 70, 0
10, 2634, Note_on_c, 6, 61, 0
10, 2634, End_track
11, 0, Start_track
11, 0, Title_t, "Celesta"
11, 0, Instrument_name_t, "     "
11, 7, Control_c, 7, 121, 0
11, 30, Program_c, 7, 8
11, 37, Control_c, 7, 11, 127
11, 45, Control_c, 7, 91, 110
11, 52, Control_c, 7, 93, 85
11, 60, Control_c, 7, 94, 0
11, 67, Control_c, 7, 10, 74
11, 75, Control_c, 7, 100, 0
11, 82, Control_c, 7, 101, 0
11, 90, Control_c, 7, 6, 2
11, 157, Control_c, 7, 7, 100
11, 480, Note_on_c, 7, 77, 80
11, 600, Note_on_c, 7, 89, 70
11, 659, Note_on_c, 7, 89, 0
11, 660, Note_on_c, 7, 88, 70
11, 719, Note_on_c, 7, 88, 0
11, 720, Note_on_c, 7, 84, 80
11, 947, Note_on_c, 7, 84, 0
11, 950, Note_on_c, 7, 77, 0
11, 960, Note_on_c, 7, 76, 80
11, 1080, Note_on_c, 7, 89, 70
11, 1139, Note_on_c, 7, 89, 0
11, 1140, Note_on_c, 7, 88, 70
11, 1199, Note_on_c, 7, 88, 0
11, 1200, Note_on_c, 7, 84, 80
11, 1427, Note_on_c, 7, 84, 0
11, 1430, Note_on_c, 7, 76, 0
11, 1440, Note_on_c, 7, 75, 80
11, 1560, Note_on_c, 7, 84, 70
11, 1619, Note_on_c, 7, 84, 0
11, 1620, Note_on_c, 7, 81, 70
11, 1679, Note_on_c, 7, 81, 0
11, 1680, Note_on_c, 7, 77, 80
11, 1907, Note_on_c, 7, 77, 0
11, 1910, Note_on_c, 7, 75, 0
11, 1920, Note_on_c, 7, 74, 78
11, 2040, Note_on_c, 7, 86, 87
11, 2100, Note_on_c, 7, 82, 85
11, 2155, Note_on_c, 7, 74, 0
11, 2158, Note_on_c, 7, 86, 0
11, 2160, Note_on_c, 7, 73, 92
11, 2203, Note_on_c, 7, 82, 0
11, 2220, Note_on_c, 7, 82, 85
11, 2280, Note_on_c, 7, 85, 64
11, 2323, Note_on_c, 7, 82, 0
11, 2340, Note_on_c, 7, 82, 85
11, 2630, Note_on_c, 7, 73, 0
11, 2633, Note_on_c, 7, 85, 0
11, 2634, Note_on_c, 7, 82, 0
11, 2880, Note_on_c, 7, 81, 110
11, 3453, Note_on_c, 7, 81, 0
11, 3480, Note_on_c, 7, 81, 110
11, 3598, Note_on_c, 7, 81, 0
11, 3600, Note_on_c, 7, 82, 110
11, 3718, Note_on_c, 7, 82, 0
11, 3720, Note_on_c, 7, 84, 110
11, 3838, Note_on_c, 7, 84, 0
11, 3840, Note_on_c, 7, 81, 110
11, 4310, Note_on_c, 7, 81, 0
11, 4440, Note_on_c, 7, 81, 110
11, 4558, Note_on_c, 7, 81, 0
11, 4560, Note_on_c, 7, 82, 110
11, 4678, Note_on_c, 7, 82, 0
11, 4680, Note_on_c, 7, 84, 110
11, 4798, Note_on_c, 7, 84, 0
11, 4800, Note_on_c, 7, 81, 110
11, 5373, Note_on_c, 7, 81, 0
11, 5400, Note_on_c, 7, 81, 110
11, 5518, Note_on_c, 7, 81, 0
11, 5520, Note_on_c, 7, 82, 110
11, 5638, Note_on_c, 7, 82, 0
11, 5640, Note_on_c, 7, 81, 110
11, 5750, Note_on_c, 7, 81, 0
11, 5760, Note_on_c, 7, 74, 100
11, 5878, Note_on_c, 7, 74, 0
11, 5880, Note_on_c, 7, 77, 100
11, 5998, Note_on_c, 7, 77, 0
11, 6000, Note_on_c, 7, 81, 100
11, 6118, Note_on_c, 7, 81, 0
11, 6120, Note_on_c, 7, 77, 100
11, 6230, Note_on_c, 7, 77, 0
11, 6240, Note_on_c, 7, 82, 93
11, 6358, Note_on_c, 7, 82, 0
11, 6360, Note_on_c, 7, 86, 92
11, 6478, Note_on_c, 7, 86, 0
11, 6480, Note_on_c, 7, 84, 90
11, 6598, Note_on_c, 7, 84, 0
11, 6600, Note_on_c, 7, 79, 90
11, 6718, Note_on_c, 7, 79, 0
11, 10560, Note_on_c, 7, 77, 85
11, 10678, Note_on_c, 7, 77, 0
11, 10680, Note_on_c, 7, 81, 85
11, 10800, Note_on_c, 7, 84, 85
11, 10800, Note_on_c, 7, 81, 0
11, 10918, Note_on_c, 7, 84, 0
11, 10920, Note_on_c, 7, 81, 85
11, 11030, Note_on_c, 7, 81, 0
11, 11040, Note_on_c, 7, 77, 85
11, 11158, Note_on_c, 7, 77, 0
11, 11160, Note_on_c, 7, 81, 85
11, 11278, Note_on_c, 7, 81, 0
11, 11280, Note_on_c, 7, 84, 85
11, 11398, Note_on_c, 7, 84, 0
11, 11400, Note_on_c, 7, 81, 85
11, 11510, Note_on_c, 7, 81, 0
11, 11520, Note_on_c, 7, 76, 85
11, 11638, Note_on_c, 7, 76, 0
11, 11640, Note_on_c, 7, 81, 85
11, 11758, Note_on_c, 7, 81, 0
11, 11760, Note_on_c, 7, 84, 85
11, 11878, Note_on_c, 7, 84, 0
11, 11880, Note_on_c, 7, 81, 85
11, 11990, Note_on_c, 7, 81, 0
11, 12000, Note_on_c, 7, 76, 85
11, 12118, Note_on_c, 7, 76, 0
11, 12120, Note_on_c, 7, 81, 85
11, 12238, Note_on_c, 7, 81, 0
11, 12240, Note_on_c, 7, 84, 85
11, 12358, Note_on_c, 7, 84, 0
11, 12360, Note_on_c, 7, 81, 85
11, 12470, Note_on_c, 7, 81, 0
11, 12480, Note_on_c, 7, 74, 85
11, 12598, Note_on_c, 7, 74, 0
11, 12600, Note_on_c, 7, 77, 85
11, 12718, Note_on_c, 7, 77, 0
11, 12720, Note_on_c, 7, 81, 85
11, 12838, Note_on_c, 7, 81, 0
11, 12840, Note_on_c, 7, 77, 85
11, 12950, Note_on_c, 7, 77, 0
11, 12960, Note_on_c, 7, 74, 85
11, 13078, Note_on_c, 7, 74, 0
11, 13080, Note_on_c, 7, 77, 85
11, 13198, Note_on_c, 7, 77, 0
11, 13200, Note_on_c, 7, 81, 85
11, 13318, Note_on_c, 7, 81, 0
11, 13320, Note_on_c, 7, 77, 85
11, 13438, Note_on_c, 7, 77, 0
11, 13440, Note_on_c, 7, 73, 85
11, 13558, Note_on_c, 7, 73, 0
11, 13560, Note_on_c, 7, 77, 85
11, 13678, Note_on_c, 7, 77, 0
11, 13680, Note_on_c, 7, 80, 85
11, 13798, Note_on_c, 7, 80, 0
11, 13800, Note_on_c, 7, 77, 85
11, 13910, Note_on_c, 7, 77, 0
11, 13920, Note_on_c, 7, 72, 85
11, 14038, Note_on_c, 7, 72, 0
11, 14040, Note_on_c, 7, 76, 85
11, 14158, Note_on_c, 7, 76, 0
11, 14160, Note_on_c, 7, 79, 85
11, 14278, Note_on_c, 7, 79, 0
11, 14280, Note_on_c, 7, 84, 85
11, 14390, Note_on_c, 7, 84, 0
11, 15360, Note_on_c, 7, 82, 70
11, 15478, Note_on_c, 7, 82, 0
11, 15480, Note_on_c, 7, 86, 70
11, 15598, Note_on_c, 7, 86, 0
11, 15600, Note_on_c, 7, 89, 70
11, 15718, Note_on_c, 7, 89, 0
11, 15720, Note_on_c, 7, 86, 70
11, 15838, Note_on_c, 7, 86, 0
11, 15840, Note_on_c, 7, 84, 70
11, 15958, Note_on_c, 7, 84, 0
11, 15960, Note_on_c, 7, 88, 70
11, 16078, Note_on_c, 7, 88, 0
11, 16080, Note_on_c, 7, 91, 70
11, 16198, Note_on_c, 7, 91, 0
11, 16200, Note_on_c, 7, 88, 70
11, 16318, Note_on_c, 7, 88, 0
11, 16320, Note_on_c, 7, 84, 70
11, 16394, Note_on_c, 7, 84, 0
11, 17280, Note_on_c, 7, 81, 110
11, 17853, Note_on_c, 7, 81, 0
11, 17880, Note_on_c, 7, 81, 110
11, 17998, Note_on_c, 7, 81, 0
11, 18000, Note_on_c, 7, 82, 110
11, 18118, Note_on_c, 7, 82, 0
11, 18120, Note_on_c, 7, 84, 110
11, 18238, Note_on_c, 7, 84, 0
11, 18240, Note_on_c, 7, 81, 110
11, 18710, Note_on_c, 7, 81, 0
11, 18840, Note_on_c, 7, 81, 110
11, 18958, Note_on_c, 7, 81, 0
11, 18960, Note_on_c, 7, 82, 110
11, 19078, Note_on_c, 7, 82, 0
11, 19080, Note_on_c, 7, 84, 110
11, 19198, Note_on_c, 7, 84, 0
11, 19200, Note_on_c, 7, 81, 110
11, 19773, Note_on_c, 7, 81, 0
11, 19800, Note_on_c, 7, 81, 110
11, 19918, Note_on_c, 7, 81, 0
11, 19920, Note_on_c, 7, 82, 110
11, 20038, Note_on_c, 7, 82, 0
11, 20040, Note_on_c, 7, 81, 110
11, 20150, Note_on_c, 7, 81, 0
11, 20160, Note_on_c, 7, 74, 100
11, 20278, Note_on_c, 7, 74, 0
11, 20280, Note_on_c, 7, 77, 100
11, 20398, Note_on_c, 7, 77, 0
11, 20400, Note_on_c, 7, 81, 100
11, 20518, Note_on_c, 7, 81, 0
11, 20520, Note_on_c, 7, 77, 100
11, 20630, Note_on_c, 7, 77, 0
11, 20640, Note_on_c, 7, 82, 93
11, 20758, Note_on_c, 7, 82, 0
11, 20760, Note_on_c, 7, 86, 92
11, 20878, Note_on_c, 7, 86, 0
11, 20880, Note_on_c, 7, 84, 90
11, 20998, Note_on_c, 7, 84, 0
11, 21000, Note_on_c, 7, 79, 90
11, 21118, Note_on_c, 7, 79, 0
11, 21120, Note_on_c, 7, 81, 110
11, 21693, Note_on_c, 7, 81, 0
11, 21720, Note_on_c, 7, 81, 110
11, 21838, Note_on_c, 7, 81, 0
11, 21840, Note_on_c, 7, 82, 110
11, 21958, Note_on_c, 7, 82, 0
11, 21960, Note_on_c, 7, 84, 110
11, 22078, Note_on_c, 7, 84, 0
11, 22080, Note_on_c, 7, 81, 110
11, 22550, Note_on_c, 7, 81, 0
11, 22680, Note_on_c, 7, 81, 110
11, 22798, Note_on_c, 7, 81, 0
11, 22800, Note_on_c, 7, 82, 110
11, 22918, Note_on_c, 7, 82, 0
11, 22920, Note_on_c, 7, 84, 110
11, 23038, Note_on_c, 7, 84, 0
11, 23040, Note_on_c, 7, 81, 110
11, 23613, Note_on_c, 7, 81, 0
11, 23640, Note_on_c, 7, 81, 110
11, 23758, Note_on_c, 7, 81, 0
11, 23760, Note_on_c, 7, 82, 110
11, 23878, Note_on_c, 7, 82, 0
11, 23880, Note_on_c, 7, 81, 110
11, 23990, Note_on_c, 7, 81, 0
11, 24000, Note_on_c, 7, 74, 100
11, 24118, Note_on_c, 7, 74, 0
11, 24120, Note_on_c, 7, 77, 100
11, 24238, Note_on_c, 7, 77, 0
11, 24240, Note_on_c, 7, 81, 100
11, 24358, Note_on_c, 7, 81, 0
11, 24360, Note_on_c, 7, 77, 100
11, 24470, Note_on_c, 7, 77, 0
11, 24480, Note_on_c, 7, 82, 93
11, 24598, Note_on_c, 7, 82, 0
11, 24600, Note_on_c, 7, 86, 92
11, 24718, Note_on_c, 7, 86, 0
11, 24720, Note_on_c, 7, 84, 90
11, 24838, Note_on_c, 7, 84, 0
11, 24840, Note_on_c, 7, 79, 90
11, 24958, Note_on_c, 7, 79, 0
11, 28800, Note_on_c, 7, 77, 85
11, 28918, Note_on_c, 7, 77, 0
11, 28920, Note_on_c, 7, 81, 85
11, 29040, Note_on_c, 7, 84, 85
11, 29040, Note_on_c, 7, 81, 0
11, 29158, Note_on_c, 7, 84, 0
11, 29160, Note_on_c, 7, 81, 85
11, 29270, Note_on_c, 7, 81, 0
11, 29280, Note_on_c, 7, 77, 85
11, 29398, Note_on_c, 7, 77, 0
11, 29400, Note_on_c, 7, 81, 85
11, 29518, Note_on_c, 7, 81, 0
11, 29520, Note_on_c, 7, 84, 85
11, 29638, Note_on_c, 7, 84, 0
11, 29640, Note_on_c, 7, 81, 85
11, 29750, Note_on_c, 7, 81, 0
11, 29760, Note_on_c, 7, 76, 85
11, 29878, Note_on_c, 7, 76, 0
11, 29880, Note_on_c, 7, 81, 85
11, 29998, Note_on_c, 7, 81, 0
11, 30000, Note_on_c, 7, 84, 85
11, 30118, Note_on_c, 7, 84, 0
11, 30120, Note_on_c, 7, 81, 85
11, 30230, Note_on_c, 7, 81, 0
11, 30240, Note_on_c, 7, 76, 85
11, 30358, Note_on_c, 7, 76, 0
11, 30360, Note_on_c, 7, 81, 85
11, 30478, Note_on_c, 7, 81, 0
11, 30480, Note_on_c, 7, 84, 85
11, 30598, Note_on_c, 7, 84, 0
11, 30600, Note_on_c, 7, 81, 85
11, 30710, Note_on_c, 7, 81, 0
11, 30720, Note_on_c, 7, 74, 85
11, 30838, Note_on_c, 7, 74, 0
11, 30840, Note_on_c, 7, 77, 85
11, 30958, Note_on_c, 7, 77, 0
11, 30960, Note_on_c, 7, 81, 85
11, 31078, Note_on_c, 7, 81, 0
11, 31080, Note_on_c, 7, 77, 85
11, 31190, Note_on_c, 7, 77, 0
11, 31200, Note_on_c, 7, 74, 85
11, 31318, Note_on_c, 7, 74, 0
11, 31320, Note_on_c, 7, 77, 85
11, 31438, Note_on_c, 7, 77, 0
11, 31440, Note_on_c, 7, 81, 85
11, 31558, Note_on_c, 7, 81, 0
11, 31560, Note_on_c, 7, 77, 85
11, 31678, Note_on_c, 7, 77, 0
11, 31680, Note_on_c, 7, 73, 85
11, 31798, Note_on_c, 7, 73, 0
11, 31800, Note_on_c, 7, 77, 85
11, 31918, Note_on_c, 7, 77, 0
11, 31920, Note_on_c, 7, 80, 85
11, 32038, Note_on_c, 7, 80, 0
11, 32040, Note_on_c, 7, 77, 85
11, 32150, Note_on_c, 7, 77, 0
11, 32160, Note_on_c, 7, 72, 85
11, 32278, Note_on_c, 7, 72, 0
11, 32280, Note_on_c, 7, 76, 85
11, 32398, Note_on_c, 7, 76, 0
11, 32400, Note_on_c, 7, 79, 85
11, 32518, Note_on_c, 7, 79, 0
11, 32520, Note_on_c, 7, 84, 85
11, 32630, Note_on_c, 7, 84, 0
11, 33600, Note_on_c, 7, 82, 70
11, 33718, Note_on_c, 7, 82, 0
11, 33720, Note_on_c, 7, 86, 70
11, 33838, Note_on_c, 7, 86, 0
11, 33840, Note_on_c, 7, 89, 70
11, 33958, Note_on_c, 7, 89, 0
11, 33960, Note_on_c, 7, 86, 70
11, 34078, Note_on_c, 7, 86, 0
11, 34080, Note_on_c, 7, 84, 70
11, 34198, Note_on_c, 7, 84, 0
11, 34200, Note_on_c, 7, 88, 70
11, 34318, Note_on_c, 7, 88, 0
11, 34320, Note_on_c, 7, 91, 70
11, 34438, Note_on_c, 7, 91, 0
11, 34440, Note_on_c, 7, 88, 70
11, 34558, Note_on_c, 7, 88, 0
11, 34560, Note_on_c, 7, 84, 70
11, 34634, Note_on_c, 7, 84, 0
11, 35520, Note_on_c, 7, 81, 110
11, 36093, Note_on_c, 7, 81, 0
11, 36120, Note_on_c, 7, 81, 110
11, 36238, Note_on_c, 7, 81, 0
11, 36240, Note_on_c, 7, 82, 110
11, 36358, Note_on_c, 7, 82, 0
11, 36360, Note_on_c, 7, 84, 110
11, 36478, Note_on_c, 7, 84, 0
11, 36480, Note_on_c, 7, 81, 110
11, 36950, Note_on_c, 7, 81, 0
11, 37080, Note_on_c, 7, 81, 110
11, 37198, Note_on_c, 7, 81, 0
11, 37200, Note_on_c, 7, 82, 110
11, 37318, Note_on_c, 7, 82, 0
11, 37320, Note_on_c, 7, 84, 110
11, 37438, Note_on_c, 7, 84, 0
11, 37440, Note_on_c, 7, 81, 110
11, 38013, Note_on_c, 7, 81, 0
11, 38040, Note_on_c, 7, 81, 110
11, 38158, Note_on_c, 7, 81, 0
11, 38160, Note_on_c, 7, 82, 110
11, 38278, Note_on_c, 7, 82, 0
11, 38280, Note_on_c, 7, 81, 110
11, 38390, Note_on_c, 7, 81, 0
11, 38400, Note_on_c, 7, 74, 100
11, 38518, Note_on_c, 7, 74, 0
11, 38520, Note_on_c, 7, 77, 100
11, 38638, Note_on_c, 7, 77, 0
11, 38640, Note_on_c, 7, 81, 100
11, 38758, Note_on_c, 7, 81, 0
11, 38760, Note_on_c, 7, 77, 100
11, 38870, Note_on_c, 7, 77, 0
11, 38880, Note_on_c, 7, 82, 93
11, 38998, Note_on_c, 7, 82, 0
11, 39000, Note_on_c, 7, 86, 92
11, 39118, Note_on_c, 7, 86, 0
11, 39120, Note_on_c, 7, 84, 90
11, 39238, Note_on_c, 7, 84, 0
11, 39240, Note_on_c, 7, 79, 90
11, 39358, Note_on_c, 7, 79, 0
11, 39360, Note_on_c, 7, 81, 110
11, 39933, Note_on_c, 7, 81, 0
11, 39960, Note_on_c, 7, 81, 110
11, 40078, Note_on_c, 7, 81, 0
11, 40080, Note_on_c, 7, 82, 110
11, 40198, Note_on_c, 7, 82, 0
11, 40200, Note_on_c, 7, 84, 110
11, 40318, Note_on_c, 7, 84, 0
11, 40320, Note_on_c, 7, 81, 110
11, 40790, Note_on_c, 7, 81, 0
11, 40920, Note_on_c, 7, 81, 110
11, 41038, Note_on_c, 7, 81, 0
11, 41040, Note_on_c, 7, 82, 110
11, 41158, Note_on_c, 7, 82, 0
11, 41160, Note_on_c, 7, 84, 110
11, 41278, Note_on_c, 7, 84, 0
11, 41280, Note_on_c, 7, 81, 110
11, 41853, Note_on_c, 7, 81, 0
11, 41880, Note_on_c, 7, 81, 110
11, 41998, Note_on_c, 7, 81, 0
11, 42000, Note_on_c, 7, 82, 110
11, 42118, Note_on_c, 7, 82, 0
11, 42120, Note_on_c, 7, 81, 110
11, 42230, Note_on_c, 7, 81, 0
11, 42240, Note_on_c, 7, 74, 100
11, 42358, Note_on_c, 7, 74, 0
11, 42360, Note_on_c, 7, 77, 100
11, 42478, Note_on_c, 7, 77, 0
11, 42480, Note_on_c, 7, 81, 100
11, 42598, Note_on_c, 7, 81, 0
11, 42600, Note_on_c, 7, 77, 100
11, 42710, Note_on_c, 7, 77, 0
11, 42720, Note_on_c, 7, 82, 90
11, 42838, Note_on_c, 7, 82, 0
11, 42840, Note_on_c, 7, 86, 90
11, 42958, Note_on_c, 7, 86, 0
11, 42960, Note_on_c, 7, 84, 90
11, 43078, Note_on_c, 7, 84, 0
11, 43080, Note_on_c, 7, 79, 90
11, 43198, Note_on_c, 7, 79, 0
11, 43200, Note_on_c, 7, 72, 80
11, 43318, Note_on_c, 7, 72, 0
11, 43320, Note_on_c, 7, 76, 80
11, 43438, Note_on_c, 7, 76, 0
11, 43440, Note_on_c, 7, 81, 80
11, 43558, Note_on_c, 7, 81, 0
11, 43560, Note_on_c, 7, 84, 80
11, 43678, Note_on_c, 7, 84, 0
11, 43680, Note_on_c, 7, 88, 80
11, 43798, Note_on_c, 7, 88, 0
11, 43800, Note_on_c, 7, 84, 80
11, 43918, Note_on_c, 7, 84, 0
11, 43920, Note_on_c, 7, 81, 80
11, 44038, Note_on_c, 7, 81, 0
11, 44040, Note_on_c, 7, 76, 80
11, 44158, Note_on_c, 7, 76, 0
11, 44160, Note_on_c, 7, 74, 80
11, 44278, Note_on_c, 7, 74, 0
11, 44280, Note_on_c, 7, 79, 80
11, 44398, Note_on_c, 7, 79, 0
11, 44400, Note_on_c, 7, 82, 80
11, 44518, Note_on_c, 7, 82, 0
11, 44520, Note_on_c, 7, 86, 80
11, 44638, Note_on_c, 7, 86, 0
11, 44640, Note_on_c, 7, 91, 80
11, 44758, Note_on_c, 7, 91, 0
11, 44760, Note_on_c, 7, 86, 80
11, 44878, Note_on_c, 7, 86, 0
11, 44880, Note_on_c, 7, 82, 80
11, 44998, Note_on_c, 7, 82, 0
11, 45000, Note_on_c, 7, 79, 80
11, 45118, Note_on_c, 7, 79, 0
11, 45120, Note_on_c, 7, 72, 80
11, 45238, Note_on_c, 7, 72, 0
11, 45240, Note_on_c, 7, 76, 80
11, 45358, Note_on_c, 7, 76, 0
11, 45360, Note_on_c, 7, 81, 80
11, 45478, Note_on_c, 7, 81, 0
11, 45480, Note_on_c, 7, 84, 80
11, 45598, Note_on_c, 7, 84, 0
11, 45600, Note_on_c, 7, 88, 80
11, 45718, Note_on_c, 7, 88, 0
11, 45720, Note_on_c, 7, 84, 80
11, 45838, Note_on_c, 7, 84, 0
11, 45840, Note_on_c, 7, 81, 80
11, 45958, Note_on_c, 7, 81, 0
11, 45960, Note_on_c, 7, 76, 80
11, 46078, Note_on_c, 7, 76, 0
11, 46080, Note_on_c, 7, 74, 80
11, 46198, Note_on_c, 7, 74, 0
11, 46200, Note_on_c, 7, 77, 80
11, 46318, Note_on_c, 7, 77, 0
11, 46320, Note_on_c, 7, 82, 80
11, 46438, Note_on_c, 7, 82, 0
11, 46440, Note_on_c, 7, 86, 80
11, 46550, Note_on_c, 7, 86, 0
11, 46560, Note_on_c, 7, 76, 80
11, 46678, Note_on_c, 7, 76, 0
11, 46680, Note_on_c, 7, 79, 80
11, 46798, Note_on_c, 7, 79, 0
11, 46800, Note_on_c, 7, 84, 80
11, 46918, Note_on_c, 7, 84, 0
11, 46920, Note_on_c, 7, 88, 80
11, 47030, Note_on_c, 7, 88, 0
11, 47040, Note_on_c, 7, 91, 80
11, 47099, Note_on_c, 7, 91, 0
11, 47520, Note_on_c, 7, 82, 110
11, 48093, Note_on_c, 7, 82, 0
11, 48120, Note_on_c, 7, 82, 110
11, 48238, Note_on_c, 7, 82, 0
11, 48240, Note_on_c, 7, 83, 110
11, 48358, Note_on_c, 7, 83, 0
11, 48360, Note_on_c, 7, 85, 110
11, 48478, Note_on_c, 7, 85, 0
11, 48480, Note_on_c, 7, 82, 110
11, 48950, Note_on_c, 7, 82, 0
11, 49080, Note_on_c, 7, 82, 110
11, 49198, Note_on_c, 7, 82, 0
11, 49200, Note_on_c, 7, 83, 110
11, 49318, Note_on_c, 7, 83, 0
11, 49320, Note_on_c, 7, 85, 110
11, 49438, Note_on_c, 7, 85, 0
11, 49440, Note_on_c, 7, 82, 110
11, 50013, Note_on_c, 7, 82, 0
11, 50040, Note_on_c, 7, 82, 110
11, 50158, Note_on_c, 7, 82, 0
11, 50160, Note_on_c, 7, 83, 110
11, 50278, Note_on_c, 7, 83, 0
11, 50280, Note_on_c, 7, 82, 110
11, 50390, Note_on_c, 7, 82, 0
11, 50400, Note_on_c, 7, 75, 100
11, 50518, Note_on_c, 7, 75, 0
11, 50520, Note_on_c, 7, 78, 100
11, 50638, Note_on_c, 7, 78, 0
11, 50640, Note_on_c, 7, 82, 100
11, 50758, Note_on_c, 7, 82, 0
11, 50760, Note_on_c, 7, 78, 100
11, 50870, Note_on_c, 7, 78, 0
11, 50880, Note_on_c, 7, 83, 93
11, 50998, Note_on_c, 7, 83, 0
11, 51000, Note_on_c, 7, 87, 92
11, 51118, Note_on_c, 7, 87, 0
11, 51120, Note_on_c, 7, 85, 90
11, 51238, Note_on_c, 7, 85, 0
11, 51240, Note_on_c, 7, 80, 90
11, 51358, Note_on_c, 7, 80, 0
11, 51360, Note_on_c, 7, 82, 110
11, 51933, Note_on_c, 7, 82, 0
11, 51960, Note_on_c, 7, 82, 110
11, 52078, Note_on_c, 7, 82, 0
11, 52080, Note_on_c, 7, 83, 110
11, 52198, Note_on_c, 7, 83, 0
11, 52200, Note_on_c, 7, 85, 110
11, 52318, Note_on_c, 7, 85, 0
11, 52320, Note_on_c, 7, 82, 110
11, 52790, Note_on_c, 7, 82, 0
11, 52920, Note_on_c, 7, 82, 110
11, 53038, Note_on_c, 7, 82, 0
11, 53040, Note_on_c, 7, 83, 110
11, 53158, Note_on_c, 7, 83, 0
11, 53160, Note_on_c, 7, 85, 110
11, 53278, Note_on_c, 7, 85, 0
11, 53280, Note_on_c, 7, 82, 110
11, 53853, Note_on_c, 7, 82, 0
11, 53880, Note_on_c, 7, 82, 110
11, 53998, Note_on_c, 7, 82, 0
11, 54000, Note_on_c, 7, 83, 110
11, 54118, Note_on_c, 7, 83, 0
11, 54120, Note_on_c, 7, 82, 110
11, 54230, Note_on_c, 7, 82, 0
11, 54240, Note_on_c, 7, 75, 100
11, 54358, Note_on_c, 7, 75, 0
11, 54360, Note_on_c, 7, 78, 100
11, 54478, Note_on_c, 7, 78, 0
11, 54480, Note_on_c, 7, 82, 100
11, 54598, Note_on_c, 7, 82, 0
11, 54600, Note_on_c, 7, 78, 100
11, 54710, Note_on_c, 7, 78, 0
11, 54720, Note_on_c, 7, 83, 93
11, 54838, Note_on_c, 7, 83, 0
11, 54840, Note_on_c, 7, 87, 92
11, 54958, Note_on_c, 7, 87, 0
11, 54960, Note_on_c, 7, 85, 90
11, 55078, Note_on_c, 7, 85, 0
11, 55080, Note_on_c, 7, 80, 90
11, 55198, Note_on_c, 7, 80, 0
11, 55200, Note_on_c, 7, 82, 110
11, 55773, Note_on_c, 7, 82, 0
11, 55800, Note_on_c, 7, 82, 110
11, 55918, Note_on_c, 7, 82, 0
11, 55920, Note_on_c, 7, 83, 110
11, 56038, Note_on_c, 7, 83, 0
11, 56040, Note_on_c, 7, 85, 110
11, 56158, Note_on_c, 7, 85, 0
11, 56160, Note_on_c, 7, 82, 110
11, 56630, Note_on_c, 7, 82, 0
11, 56760, Note_on_c, 7, 82, 110
11, 56878, Note_on_c, 7, 82, 0
11, 56880, Note_on_c, 7, 83, 110
11, 56998, Note_on_c, 7, 83, 0
11, 57000, Note_on_c, 7, 85, 110
11, 57118, Note_on_c, 7, 85, 0
11, 57120, Note_on_c, 7, 82, 110
11, 57693, Note_on_c, 7, 82, 0
11, 57720, Note_on_c, 7, 82, 110
11, 57838, Note_on_c, 7, 82, 0
11, 57840, Note_on_c, 7, 83, 110
11, 57958, Note_on_c, 7, 83, 0
11, 57960, Note_on_c, 7, 82, 110
11, 58070, Note_on_c, 7, 82, 0
11, 58080, Note_on_c, 7, 75, 100
11, 58198, Note_on_c, 7, 75, 0
11, 58200, Note_on_c, 7, 78, 100
11, 58318, Note_on_c, 7, 78, 0
11, 58320, Note_on_c, 7, 82, 100
11, 58438, Note_on_c, 7, 82, 0
11, 58440, Note_on_c, 7, 78, 100
11, 58550, Note_on_c, 7, 78, 0
11, 58560, Note_on_c, 7, 83, 90
11, 58678, Note_on_c, 7, 83, 0
11, 58680, Note_on_c, 7, 87, 90
11, 58798, Note_on_c, 7, 87, 0
11, 58800, Note_on_c, 7, 85, 90
11, 58918, Note_on_c, 7, 85, 0
11, 58920, Note_on_c, 7, 80, 90
11, 59038, Note_on_c, 7, 80, 0
11, 59040, Note_on_c, 7, 82, 110
11, 59613, Note_on_c, 7, 82, 0
11, 59640, Note_on_c, 7, 82, 110
11, 59758, Note_on_c, 7, 82, 0
11, 59760, Note_on_c, 7, 83, 110
11, 59878, Note_on_c, 7, 83, 0
11, 59880, Note_on_c, 7, 85, 110
11, 59998, Note_on_c, 7, 85, 0
11, 60000, Note_on_c, 7, 82, 110
11, 60470, Note_on_c, 7, 82, 0
11, 60600, Note_on_c, 7, 82, 110
11, 60718, Note_on_c, 7, 82, 0
11, 60720, Note_on_c, 7, 83, 110
11, 60838, Note_on_c, 7, 83, 0
11, 60840, Note_on_c, 7, 85, 110
11, 60958, Note_on_c, 7, 85, 0
11, 60960, Note_on_c, 7, 82, 110
11, 61533, Note_on_c, 7, 82, 0
11, 61560, Note_on_c, 7, 82, 110
11, 61678, Note_on_c, 7, 82, 0
11, 61680, Note_on_c, 7, 83, 110
11, 61798, Note_on_c, 7, 83, 0
11, 61800, Note_on_c, 7, 82, 110
11, 61910, Note_on_c, 7, 82, 0
11, 61920, Note_on_c, 7, 75, 100
11, 62038, Note_on_c, 7, 75, 0
11, 62040, Note_on_c, 7, 78, 100
11, 62158, Note_on_c, 7, 78, 0
11, 62160, Note_on_c, 7, 82, 100
11, 62278, Note_on_c, 7, 82, 0
11, 62280, Note_on_c, 7, 78, 100
11, 62390, Note_on_c, 7, 78, 0
11, 62400, Note_on_c, 7, 83, 93
11, 62518, Note_on_c, 7, 83, 0
11, 62520, Note_on_c, 7, 87, 92
11, 62638, Note_on_c, 7, 87, 0
11, 62640, Note_on_c, 7, 85, 90
11, 62758, Note_on_c, 7, 85, 0
11, 62760, Note_on_c, 7, 80, 90
11, 62878, Note_on_c, 7, 80, 0
11, 62880, Note_on_c, 7, 82, 90
11, 63350, Note_on_c, 7, 82, 0
11, 63350, End_track
12, 0, Start_track
12, 0, Title_t, "Tubular Bells"
12, 0, Instrument_name_t, "     "
12, 7, Control_c, 8, 121, 0
12, 30, Program_c, 8, 14
12, 37, Control_c, 8, 11, 127
12, 45, Control_c, 8, 91, 110
12, 52, Control_c, 8, 93, 85
12, 60, Control_c, 8, 94, 0
12, 67, Control_c, 8, 10, 44
12, 75, Control_c, 8, 100, 0
12, 82, Control_c, 8, 101, 0
12, 90, Control_c, 8, 6, 2
12, 157, Control_c, 8, 7, 100
12, 2880, Note_on_c, 8, 77, 100
12, 2902, Note_on_c, 8, 77, 0
12, 3840, Note_on_c, 8, 76, 100
12, 3862, Note_on_c, 8, 76, 0
12, 4800, Note_on_c, 8, 75, 100
12, 4822, Note_on_c, 8, 75, 0
12, 5760, Note_on_c, 8, 74, 100
12, 5782, Note_on_c, 8, 74, 0
12, 6240, Note_on_c, 8, 70, 100
12, 6262, Note_on_c, 8, 70, 0
12, 6480, Note_on_c, 8, 72, 100
12, 6502, Note_on_c, 8, 72, 0
12, 6720, Note_on_c, 8, 77, 100
12, 6742, Note_on_c, 8, 77, 0
12, 17280, Note_on_c, 8, 77, 100
12, 17302, Note_on_c, 8, 77, 0
12, 18240, Note_on_c, 8, 76, 100
12, 18262, Note_on_c, 8, 76, 0
12, 19200, Note_on_c, 8, 75, 100
12, 19222, Note_on_c, 8, 75, 0
12, 20160, Note_on_c, 8, 74, 100
12, 20182, Note_on_c, 8, 74, 0
12, 20640, Note_on_c, 8, 70, 100
12, 20662, Note_on_c, 8, 70, 0
12, 20880, Note_on_c, 8, 72, 100
12, 20902, Note_on_c, 8, 72, 0
12, 21120, Note_on_c, 8, 77, 100
12, 21142, Note_on_c, 8, 77, 0
12, 22080, Note_on_c, 8, 76, 100
12, 22102, Note_on_c, 8, 76, 0
12, 23040, Note_on_c, 8, 75, 100
12, 23062, Note_on_c, 8, 75, 0
12, 24000, Note_on_c, 8, 74, 100
12, 24022, Note_on_c, 8, 74, 0
12, 24480, Note_on_c, 8, 70, 100
12, 24502, Note_on_c, 8, 70, 0
12, 24720, Note_on_c, 8, 72, 100
12, 24742, Note_on_c, 8, 72, 0
12, 24960, Note_on_c, 8, 77, 100
12, 24982, Note_on_c, 8, 77, 0
12, 35520, Note_on_c, 8, 77, 100
12, 35542, Note_on_c, 8, 77, 0
12, 36480, Note_on_c, 8, 76, 100
12, 36502, Note_on_c, 8, 76, 0
12, 37440, Note_on_c, 8, 75, 100
12, 37462, Note_on_c, 8, 75, 0
12, 38400, Note_on_c, 8, 74, 100
12, 38422, Note_on_c, 8, 74, 0
12, 38880, Note_on_c, 8, 70, 100
12, 38902, Note_on_c, 8, 70, 0
12, 39120, Note_on_c, 8, 72, 100
12, 39142, Note_on_c, 8, 72, 0
12, 39360, Note_on_c, 8, 77, 100
12, 39382, Note_on_c, 8, 77, 0
12, 40320, Note_on_c, 8, 76, 100
12, 40342, Note_on_c, 8, 76, 0
12, 41280, Note_on_c, 8, 75, 100
12, 41302, Note_on_c, 8, 75, 0
12, 42240, Note_on_c, 8, 74, 100
12, 42262, Note_on_c, 8, 74, 0
12, 42720, Note_on_c, 8, 70, 100
12, 42742, Note_on_c, 8, 70, 0
12, 42960, Note_on_c, 8, 72, 100
12, 42982, Note_on_c, 8, 72, 0
12, 43200, Note_on_c, 8, 69, 90
12, 43229, Note_on_c, 8, 69, 0
12, 43440, Note_on_c, 8, 72, 90
12, 43469, Note_on_c, 8, 72, 0
12, 43680, Note_on_c, 8, 76, 90
12, 43709, Note_on_c, 8, 76, 0
12, 43920, Note_on_c, 8, 72, 90
12, 43956, Note_on_c, 8, 72, 0
12, 44040, Note_on_c, 8, 76, 90
12, 44069, Note_on_c, 8, 76, 0
12, 44160, Note_on_c, 8, 74, 90
12, 44182, Note_on_c, 8, 74, 0
12, 44760, Note_on_c, 8, 84, 90
12, 44789, Note_on_c, 8, 84, 0
12, 44880, Note_on_c, 8, 81, 90
12, 44909, Note_on_c, 8, 81, 0
12, 45000, Note_on_c, 8, 77, 90
12, 45022, Note_on_c, 8, 77, 0
12, 45120, Note_on_c, 8, 76, 90
12, 45135, Note_on_c, 8, 76, 0
12, 45720, Note_on_c, 8, 79, 90
12, 45749, Note_on_c, 8, 79, 0
12, 45840, Note_on_c, 8, 76, 90
12, 45869, Note_on_c, 8, 76, 0
12, 45960, Note_on_c, 8, 72, 90
12, 45989, Note_on_c, 8, 72, 0
12, 46080, Note_on_c, 8, 74, 90
12, 46109, Note_on_c, 8, 74, 0
12, 46560, Note_on_c, 8, 76, 90
12, 46589, Note_on_c, 8, 76, 0
12, 47040, Note_on_c, 8, 72, 80
12, 47069, Note_on_c, 8, 72, 0
12, 47520, Note_on_c, 8, 78, 100
12, 47542, Note_on_c, 8, 78, 0
12, 48480, Note_on_c, 8, 77, 100
12, 48502, Note_on_c, 8, 77, 0
12, 49440, Note_on_c, 8, 76, 100
12, 49462, Note_on_c, 8, 76, 0
12, 50400, Note_on_c, 8, 75, 100
12, 50422, Note_on_c, 8, 75, 0
12, 50880, Note_on_c, 8, 71, 100
12, 50902, Note_on_c, 8, 71, 0
12, 51120, Note_on_c, 8, 73, 100
12, 51142, Note_on_c, 8, 73, 0
12, 51360, Note_on_c, 8, 78, 100
12, 51382, Note_on_c, 8, 78, 0
12, 52320, Note_on_c, 8, 77, 100
12, 52342, Note_on_c, 8, 77, 0
12, 53280, Note_on_c, 8, 76, 100
12, 53302, Note_on_c, 8, 76, 0
12, 54240, Note_on_c, 8, 75, 100
12, 54262, Note_on_c, 8, 75, 0
12, 54720, Note_on_c, 8, 71, 100
12, 54742, Note_on_c, 8, 71, 0
12, 54960, Note_on_c, 8, 73, 100
12, 54982, Note_on_c, 8, 73, 0
12, 55200, Note_on_c, 8, 78, 100
12, 55222, Note_on_c, 8, 78, 0
12, 56160, Note_on_c, 8, 77, 100
12, 56182, Note_on_c, 8, 77, 0
12, 57120, Note_on_c, 8, 76, 100
12, 57142, Note_on_c, 8, 76, 0
12, 58080, Note_on_c, 8, 75, 100
12, 58102, Note_on_c, 8, 75, 0
12, 58560, Note_on_c, 8, 71, 100
12, 58582, Note_on_c, 8, 71, 0
12, 58800, Note_on_c, 8, 73, 100
12, 58822, Note_on_c, 8, 73, 0
12, 59040, Note_on_c, 8, 78, 100
12, 59062, Note_on_c, 8, 78, 0
12, 60000, Note_on_c, 8, 77, 100
12, 60022, Note_on_c, 8, 77, 0
12, 60960, Note_on_c, 8, 76, 100
12, 60982, Note_on_c, 8, 76, 0
12, 61920, Note_on_c, 8, 75, 100
12, 61942, Note_on_c, 8, 75, 0
12, 62400, Note_on_c, 8, 71, 100
12, 62422, Note_on_c, 8, 71, 0
12, 62640, Note_on_c, 8, 73, 100
12, 62662, Note_on_c, 8, 73, 0
12, 62880, Note_on_c, 8, 78, 90
12, 62902, Note_on_c, 8, 78, 0
12, 62902, End_track
13, 0, Start_track
13, 0, Title_t, "Bass"
13, 0, Instrument_name_t, "     "
13, 7, Control_c, 10, 121, 0
13, 30, Program_c, 10, 35
13, 37, Control_c, 10, 11, 127
13, 45, Control_c, 10, 91, 60
13, 52, Control_c, 10, 93, 0
13, 60, Control_c, 10, 94, 0
13, 67, Control_c, 10, 10, 64
13, 75, Control_c, 10, 100, 0
13, 82, Control_c, 10, 101, 0
13, 90, Control_c, 10, 6, 2
13, 157, Control_c, 10, 7, 100
13, 2880, Note_on_c, 10, 41, 109
13, 2968, Note_on_c, 10, 41, 0
13, 3000, Note_on_c, 10, 41, 105
13, 3088, Note_on_c, 10, 41, 0
13, 3120, Note_on_c, 10, 41, 114
13, 3208, Note_on_c, 10, 41, 0
13, 3240, Note_on_c, 10, 41, 108
13, 3328, Note_on_c, 10, 41, 0
13, 3360, Note_on_c, 10, 41, 108
13, 3448, Note_on_c, 10, 41, 0
13, 3480, Note_on_c, 10, 41, 111
13, 3568, Note_on_c, 10, 41, 0
13, 3600, Note_on_c, 10, 41, 110
13, 3644, Note_on_c, 10, 41, 0
13, 3680, Note_on_c, 10, 41, 116
13, 3720, Note_on_c, 10, 36, 116
13, 3724, Note_on_c, 10, 41, 0
13, 3779, Note_on_c, 10, 36, 0
13, 3780, Note_on_c, 10, 33, 115
13, 3831, Note_on_c, 10, 33, 0
13, 3840, Note_on_c, 10, 40, 112
13, 3928, Note_on_c, 10, 40, 0
13, 3960, Note_on_c, 10, 40, 112
13, 4048, Note_on_c, 10, 40, 0
13, 4080, Note_on_c, 10, 40, 104
13, 4168, Note_on_c, 10, 40, 0
13, 4200, Note_on_c, 10, 40, 105
13, 4288, Note_on_c, 10, 40, 0
13, 4320, Note_on_c, 10, 40, 111
13, 4408, Note_on_c, 10, 40, 0
13, 4440, Note_on_c, 10, 36, 111
13, 4558, Note_on_c, 10, 36, 0
13, 4560, Note_on_c, 10, 33, 112
13, 4678, Note_on_c, 10, 33, 0
13, 4680, Note_on_c, 10, 36, 113
13, 4790, Note_on_c, 10, 36, 0
13, 4800, Note_on_c, 10, 39, 107
13, 4888, Note_on_c, 10, 39, 0
13, 4920, Note_on_c, 10, 39, 110
13, 5008, Note_on_c, 10, 39, 0
13, 5040, Note_on_c, 10, 39, 112
13, 5128, Note_on_c, 10, 39, 0
13, 5160, Note_on_c, 10, 39, 116
13, 5248, Note_on_c, 10, 39, 0
13, 5280, Note_on_c, 10, 39, 104
13, 5368, Note_on_c, 10, 39, 0
13, 5400, Note_on_c, 10, 36, 110
13, 5518, Note_on_c, 10, 36, 0
13, 5520, Note_on_c, 10, 33, 109
13, 5638, Note_on_c, 10, 33, 0
13, 5640, Note_on_c, 10, 36, 108
13, 5750, Note_on_c, 10, 36, 0
13, 5760, Note_on_c, 10, 38, 112
13, 5848, Note_on_c, 10, 38, 0
13, 5880, Note_on_c, 10, 38, 107
13, 5968, Note_on_c, 10, 38, 0
13, 6000, Note_on_c, 10, 38, 112
13, 6088, Note_on_c, 10, 38, 0
13, 6120, Note_on_c, 10, 36, 111
13, 6208, Note_on_c, 10, 36, 0
13, 6240, Note_on_c, 10, 34, 109
13, 6328, Note_on_c, 10, 34, 0
13, 6360, Note_on_c, 10, 34, 111
13, 6448, Note_on_c, 10, 34, 0
13, 6480, Note_on_c, 10, 36, 111
13, 6568, Note_on_c, 10, 36, 0
13, 6600, Note_on_c, 10, 36, 105
13, 6688, Note_on_c, 10, 36, 0
13, 6720, Note_on_c, 10, 29, 104
13, 6808, Note_on_c, 10, 29, 0
13, 6840, Note_on_c, 10, 29, 110
13, 6928, Note_on_c, 10, 29, 0
13, 6960, Note_on_c, 10, 29, 109
13, 7048, Note_on_c, 10, 29, 0
13, 7080, Note_on_c, 10, 29, 109
13, 7168, Note_on_c, 10, 29, 0
13, 7200, Note_on_c, 10, 29, 113
13, 7288, Note_on_c, 10, 29, 0
13, 7320, Note_on_c, 10, 33, 104
13, 7408, Note_on_c, 10, 33, 0
13, 7440, Note_on_c, 10, 36, 110
13, 7528, Note_on_c, 10, 36, 0
13, 7560, Note_on_c, 10, 38, 108
13, 7648, Note_on_c, 10, 38, 0
13, 7680, Note_on_c, 10, 28, 115
13, 7768, Note_on_c, 10, 28, 0
13, 7800, Note_on_c, 10, 28, 107
13, 7888, Note_on_c, 10, 28, 0
13, 7920, Note_on_c, 10, 28, 113
13, 8008, Note_on_c, 10, 28, 0
13, 8040, Note_on_c, 10, 28, 104
13, 8128, Note_on_c, 10, 28, 0
13, 8160, Note_on_c, 10, 28, 109
13, 8248, Note_on_c, 10, 28, 0
13, 8280, Note_on_c, 10, 31, 115
13, 8368, Note_on_c, 10, 31, 0
13, 8400, Note_on_c, 10, 33, 108
13, 8488, Note_on_c, 10, 33, 0
13, 8520, Note_on_c, 10, 36, 114
13, 8608, Note_on_c, 10, 36, 0
13, 8640, Note_on_c, 10, 26, 114
13, 8728, Note_on_c, 10, 26, 0
13, 8760, Note_on_c, 10, 26, 111
13, 8848, Note_on_c, 10, 26, 0
13, 8880, Note_on_c, 10, 26, 106
13, 8968, Note_on_c, 10, 26, 0
13, 9000, Note_on_c, 10, 26, 116
13, 9088, Note_on_c, 10, 26, 0
13, 9120, Note_on_c, 10, 26, 111
13, 9208, Note_on_c, 10, 26, 0
13, 9240, Note_on_c, 10, 38, 111
13, 9328, Note_on_c, 10, 38, 0
13, 9360, Note_on_c, 10, 36, 108
13, 9448, Note_on_c, 10, 36, 0
13, 9480, Note_on_c, 10, 33, 116
13, 9568, Note_on_c, 10, 33, 0
13, 9600, Note_on_c, 10, 37, 116
13, 9688, Note_on_c, 10, 37, 0
13, 9720, Note_on_c, 10, 37, 113
13, 9808, Note_on_c, 10, 37, 0
13, 9840, Note_on_c, 10, 37, 116
13, 9928, Note_on_c, 10, 37, 0
13, 9960, Note_on_c, 10, 37, 106
13, 10048, Note_on_c, 10, 37, 0
13, 10080, Note_on_c, 10, 36, 116
13, 10168, Note_on_c, 10, 36, 0
13, 10200, Note_on_c, 10, 36, 112
13, 10288, Note_on_c, 10, 36, 0
13, 10320, Note_on_c, 10, 36, 108
13, 10408, Note_on_c, 10, 36, 0
13, 10440, Note_on_c, 10, 36, 108
13, 10528, Note_on_c, 10, 36, 0
13, 10560, Note_on_c, 10, 29, 111
13, 10648, Note_on_c, 10, 29, 0
13, 10680, Note_on_c, 10, 29, 104
13, 10768, Note_on_c, 10, 29, 0
13, 10800, Note_on_c, 10, 29, 105
13, 10888, Note_on_c, 10, 29, 0
13, 10920, Note_on_c, 10, 29, 116
13, 11008, Note_on_c, 10, 29, 0
13, 11040, Note_on_c, 10, 29, 115
13, 11128, Note_on_c, 10, 29, 0
13, 11160, Note_on_c, 10, 33, 113
13, 11248, Note_on_c, 10, 33, 0
13, 11280, Note_on_c, 10, 36, 114
13, 11368, Note_on_c, 10, 36, 0
13, 11400, Note_on_c, 10, 38, 109
13, 11488, Note_on_c, 10, 38, 0
13, 11520, Note_on_c, 10, 28, 114
13, 11608, Note_on_c, 10, 28, 0
13, 11640, Note_on_c, 10, 28, 110
13, 11728, Note_on_c, 10, 28, 0
13, 11760, Note_on_c, 10, 28, 110
13, 11848, Note_on_c, 10, 28, 0
13, 11880, Note_on_c, 10, 28, 114
13, 11968, Note_on_c, 10, 28, 0
13, 12000, Note_on_c, 10, 28, 110
13, 12088, Note_on_c, 10, 28, 0
13, 12120, Note_on_c, 10, 31, 116
13, 12208, Note_on_c, 10, 31, 0
13, 12240, Note_on_c, 10, 33, 115
13, 12328, Note_on_c, 10, 33, 0
13, 12360, Note_on_c, 10, 36, 116
13, 12448, Note_on_c, 10, 36, 0
13, 12480, Note_on_c, 10, 26, 109
13, 12568, Note_on_c, 10, 26, 0
13, 12600, Note_on_c, 10, 26, 112
13, 12688, Note_on_c, 10, 26, 0
13, 12720, Note_on_c, 10, 26, 112
13, 12808, Note_on_c, 10, 26, 0
13, 12840, Note_on_c, 10, 26, 116
13, 12928, Note_on_c, 10, 26, 0
13, 12960, Note_on_c, 10, 26, 116
13, 13048, Note_on_c, 10, 26, 0
13, 13080, Note_on_c, 10, 38, 111
13, 13168, Note_on_c, 10, 38, 0
13, 13200, Note_on_c, 10, 36, 109
13, 13288, Note_on_c, 10, 36, 0
13, 13320, Note_on_c, 10, 33, 112
13, 13408, Note_on_c, 10, 33, 0
13, 13440, Note_on_c, 10, 37, 108
13, 13528, Note_on_c, 10, 37, 0
13, 13560, Note_on_c, 10, 37, 107
13, 13648, Note_on_c, 10, 37, 0
13, 13680, Note_on_c, 10, 37, 105
13, 13768, Note_on_c, 10, 37, 0
13, 13800, Note_on_c, 10, 37, 107
13, 13888, Note_on_c, 10, 37, 0
13, 13920, Note_on_c, 10, 36, 112
13, 14008, Note_on_c, 10, 36, 0
13, 14040, Note_on_c, 10, 36, 116
13, 14128, Note_on_c, 10, 36, 0
13, 14160, Note_on_c, 10, 36, 110
13, 14248, Note_on_c, 10, 36, 0
13, 14280, Note_on_c, 10, 36, 116
13, 14368, Note_on_c, 10, 36, 0
13, 14400, Note_on_c, 10, 34, 116
13, 14488, Note_on_c, 10, 34, 0
13, 14520, Note_on_c, 10, 34, 111
13, 14608, Note_on_c, 10, 34, 0
13, 14640, Note_on_c, 10, 38, 108
13, 14758, Note_on_c, 10, 38, 0
13, 14760, Note_on_c, 10, 41, 113
13, 14870, Note_on_c, 10, 41, 0
13, 14880, Note_on_c, 10, 36, 108
13, 14998, Note_on_c, 10, 36, 0
13, 15000, Note_on_c, 10, 40, 115
13, 15118, Note_on_c, 10, 40, 0
13, 15120, Note_on_c, 10, 43, 110
13, 15238, Note_on_c, 10, 43, 0
13, 15240, Note_on_c, 10, 40, 110
13, 15358, Note_on_c, 10, 40, 0
13, 15360, Note_on_c, 10, 34, 109
13, 15448, Note_on_c, 10, 34, 0
13, 15480, Note_on_c, 10, 34, 116
13, 15568, Note_on_c, 10, 34, 0
13, 15600, Note_on_c, 10, 38, 110
13, 15718, Note_on_c, 10, 38, 0
13, 15720, Note_on_c, 10, 41, 110
13, 15838, Note_on_c, 10, 41, 0
13, 15840, Note_on_c, 10, 36, 109
13, 15958, Note_on_c, 10, 36, 0
13, 15960, Note_on_c, 10, 40, 108
13, 16078, Note_on_c, 10, 40, 0
13, 16080, Note_on_c, 10, 43, 115
13, 16198, Note_on_c, 10, 43, 0
13, 16200, Note_on_c, 10, 40, 111
13, 16318, Note_on_c, 10, 40, 0
13, 16320, Note_on_c, 10, 36, 104
13, 16394, Note_on_c, 10, 36, 0
13, 17280, Note_on_c, 10, 41, 106
13, 17368, Note_on_c, 10, 41, 0
13, 17400, Note_on_c, 10, 41, 110
13, 17488, Note_on_c, 10, 41, 0
13, 17520, Note_on_c, 10, 41, 113
13, 17608, Note_on_c, 10, 41, 0
13, 17640, Note_on_c, 10, 41, 104
13, 17728, Note_on_c, 10, 41, 0
13, 17760, Note_on_c, 10, 41, 116
13, 17848, Note_on_c, 10, 41, 0
13, 17880, Note_on_c, 10, 41, 112
13, 17968, Note_on_c, 10, 41, 0
13, 18000, Note_on_c, 10, 41, 107
13, 18044, Note_on_c, 10, 41, 0
13, 18080, Note_on_c, 10, 41, 112
13, 18120, Note_on_c, 10, 36, 116
13, 18124, Note_on_c, 10, 41, 0
13, 18179, Note_on_c, 10, 36, 0
13, 18180, Note_on_c, 10, 33, 111
13, 18231, Note_on_c, 10, 33, 0
13, 18240, Note_on_c, 10, 40, 111
13, 18328, Note_on_c, 10, 40, 0
13, 18360, Note_on_c, 10, 40, 105
13, 18448, Note_on_c, 10, 40, 0
13, 18480, Note_on_c, 10, 40, 113
13, 18568, Note_on_c, 10, 40, 0
13, 18600, Note_on_c, 10, 40, 109
13, 18688, Note_on_c, 10, 40, 0
13, 18720, Note_on_c, 10, 40, 107
13, 18808, Note_on_c, 10, 40, 0
13, 18840, Note_on_c, 10, 36, 104
13, 18958, Note_on_c, 10, 36, 0
13, 18960, Note_on_c, 10, 33, 110
13, 19078, Note_on_c, 10, 33, 0
13, 19080, Note_on_c, 10, 36, 109
13, 19190, Note_on_c, 10, 36, 0
13, 19200, Note_on_c, 10, 39, 109
13, 19288, Note_on_c, 10, 39, 0
13, 19320, Note_on_c, 10, 39, 106
13, 19408, Note_on_c, 10, 39, 0
13, 19440, Note_on_c, 10, 39, 112
13, 19528, Note_on_c, 10, 39, 0
13, 19560, Note_on_c, 10, 39, 107
13, 19648, Note_on_c, 10, 39, 0
13, 19680, Note_on_c, 10, 39, 107
13, 19768, Note_on_c, 10, 39, 0
13, 19800, Note_on_c, 10, 36, 109
13, 19918, Note_on_c, 10, 36, 0
13, 19920, Note_on_c, 10, 33, 116
13, 20038, Note_on_c, 10, 33, 0
13, 20040, Note_on_c, 10, 36, 116
13, 20150, Note_on_c, 10, 36, 0
13, 20160, Note_on_c, 10, 38, 115
13, 20248, Note_on_c, 10, 38, 0
13, 20280, Note_on_c, 10, 38, 116
13, 20368, Note_on_c, 10, 38, 0
13, 20400, Note_on_c, 10, 38, 104
13, 20488, Note_on_c, 10, 38, 0
13, 20520, Note_on_c, 10, 36, 113
13, 20608, Note_on_c, 10, 36, 0
13, 20640, Note_on_c, 10, 34, 110
13, 20728, Note_on_c, 10, 34, 0
13, 20760, Note_on_c, 10, 34, 116
13, 20848, Note_on_c, 10, 34, 0
13, 20880, Note_on_c, 10, 36, 104
13, 20968, Note_on_c, 10, 36, 0
13, 21000, Note_on_c, 10, 36, 106
13, 21088, Note_on_c, 10, 36, 0
13, 21120, Note_on_c, 10, 41, 109
13, 21208, Note_on_c, 10, 41, 0
13, 21240, Note_on_c, 10, 41, 109
13, 21328, Note_on_c, 10, 41, 0
13, 21360, Note_on_c, 10, 41, 109
13, 21448, Note_on_c, 10, 41, 0
13, 21480, Note_on_c, 10, 41, 104
13, 21568, Note_on_c, 10, 41, 0
13, 21600, Note_on_c, 10, 41, 109
13, 21688, Note_on_c, 10, 41, 0
13, 21720, Note_on_c, 10, 41, 116
13, 21808, Note_on_c, 10, 41, 0
13, 21840, Note_on_c, 10, 41, 104
13, 21884, Note_on_c, 10, 41, 0
13, 21920, Note_on_c, 10, 41, 107
13, 21960, Note_on_c, 10, 36, 111
13, 21964, Note_on_c, 10, 41, 0
13, 22019, Note_on_c, 10, 36, 0
13, 22020, Note_on_c, 10, 33, 109
13, 22071, Note_on_c, 10, 33, 0
13, 22080, Note_on_c, 10, 40, 110
13, 22168, Note_on_c, 10, 40, 0
13, 22200, Note_on_c, 10, 40, 115
13, 22288, Note_on_c, 10, 40, 0
13, 22320, Note_on_c, 10, 40, 111
13, 22408, Note_on_c, 10, 40, 0
13, 22440, Note_on_c, 10, 40, 105
13, 22528, Note_on_c, 10, 40, 0
13, 22560, Note_on_c, 10, 40, 104
13, 22648, Note_on_c, 10, 40, 0
13, 22680, Note_on_c, 10, 36, 104
13, 22798, Note_on_c, 10, 36, 0
13, 22800, Note_on_c, 10, 33, 106
13, 22918, Note_on_c, 10, 33, 0
13, 22920, Note_on_c, 10, 36, 111
13, 23030, Note_on_c, 10, 36, 0
13, 23040, Note_on_c, 10, 39, 110
13, 23128, Note_on_c, 10, 39, 0
13, 23160, Note_on_c, 10, 39, 110
13, 23248, Note_on_c, 10, 39, 0
13, 23280, Note_on_c, 10, 39, 116
13, 23368, Note_on_c, 10, 39, 0
13, 23400, Note_on_c, 10, 39, 110
13, 23488, Note_on_c, 10, 39, 0
13, 23520, Note_on_c, 10, 39, 116
13, 23608, Note_on_c, 10, 39, 0
13, 23640, Note_on_c, 10, 36, 116
13, 23758, Note_on_c, 10, 36, 0
13, 23760, Note_on_c, 10, 33, 110
13, 23878, Note_on_c, 10, 33, 0
13, 23880, Note_on_c, 10, 36, 110
13, 23990, Note_on_c, 10, 36, 0
13, 24000, Note_on_c, 10, 38, 110
13, 24088, Note_on_c, 10, 38, 0
13, 24120, Note_on_c, 10, 38, 110
13, 24208, Note_on_c, 10, 38, 0
13, 24240, Note_on_c, 10, 38, 104
13, 24328, Note_on_c, 10, 38, 0
13, 24360, Note_on_c, 10, 36, 107
13, 24448, Note_on_c, 10, 36, 0
13, 24480, Note_on_c, 10, 34, 110
13, 24568, Note_on_c, 10, 34, 0
13, 24600, Note_on_c, 10, 34, 105
13, 24688, Note_on_c, 10, 34, 0
13, 24720, Note_on_c, 10, 36, 109
13, 24808, Note_on_c, 10, 36, 0
13, 24840, Note_on_c, 10, 36, 109
13, 24928, Note_on_c, 10, 36, 0
13, 24960, Note_on_c, 10, 29, 110
13, 25048, Note_on_c, 10, 29, 0
13, 25080, Note_on_c, 10, 29, 116
13, 25168, Note_on_c, 10, 29, 0
13, 25200, Note_on_c, 10, 29, 109
13, 25288, Note_on_c, 10, 29, 0
13, 25320, Note_on_c, 10, 29, 115
13, 25408, Note_on_c, 10, 29, 0
13, 25440, Note_on_c, 10, 29, 106
13, 25528, Note_on_c, 10, 29, 0
13, 25560, Note_on_c, 10, 33, 111
13, 25648, Note_on_c, 10, 33, 0
13, 25680, Note_on_c, 10, 36, 113
13, 25768, Note_on_c, 10, 36, 0
13, 25800, Note_on_c, 10, 38, 110
13, 25888, Note_on_c, 10, 38, 0
13, 25920, Note_on_c, 10, 28, 110
13, 26008, Note_on_c, 10, 28, 0
13, 26040, Note_on_c, 10, 28, 110
13, 26128, Note_on_c, 10, 28, 0
13, 26160, Note_on_c, 10, 28, 110
13, 26248, Note_on_c, 10, 28, 0
13, 26280, Note_on_c, 10, 28, 110
13, 26368, Note_on_c, 10, 28, 0
13, 26400, Note_on_c, 10, 28, 111
13, 26488, Note_on_c, 10, 28, 0
13, 26520, Note_on_c, 10, 31, 112
13, 26608, Note_on_c, 10, 31, 0
13, 26640, Note_on_c, 10, 33, 104
13, 26728, Note_on_c, 10, 33, 0
13, 26760, Note_on_c, 10, 36, 109
13, 26848, Note_on_c, 10, 36, 0
13, 26880, Note_on_c, 10, 26, 111
13, 26968, Note_on_c, 10, 26, 0
13, 27000, Note_on_c, 10, 26, 111
13, 27088, Note_on_c, 10, 26, 0
13, 27120, Note_on_c, 10, 26, 106
13, 27208, Note_on_c, 10, 26, 0
13, 27240, Note_on_c, 10, 26, 109
13, 27328, Note_on_c, 10, 26, 0
13, 27360, Note_on_c, 10, 26, 116
13, 27448, Note_on_c, 10, 26, 0
13, 27480, Note_on_c, 10, 38, 116
13, 27568, Note_on_c, 10, 38, 0
13, 27600, Note_on_c, 10, 36, 111
13, 27688, Note_on_c, 10, 36, 0
13, 27720, Note_on_c, 10, 33, 110
13, 27808, Note_on_c, 10, 33, 0
13, 27840, Note_on_c, 10, 37, 104
13, 27928, Note_on_c, 10, 37, 0
13, 27960, Note_on_c, 10, 37, 110
13, 28048, Note_on_c, 10, 37, 0
13, 28080, Note_on_c, 10, 37, 110
13, 28168, Note_on_c, 10, 37, 0
13, 28200, Note_on_c, 10, 37, 109
13, 28288, Note_on_c, 10, 37, 0
13, 28320, Note_on_c, 10, 36, 109
13, 28408, Note_on_c, 10, 36, 0
13, 28440, Note_on_c, 10, 36, 105
13, 28528, Note_on_c, 10, 36, 0
13, 28560, Note_on_c, 10, 36, 108
13, 28648, Note_on_c, 10, 36, 0
13, 28680, Note_on_c, 10, 36, 112
13, 28768, Note_on_c, 10, 36, 0
13, 28800, Note_on_c, 10, 29, 116
13, 28888, Note_on_c, 10, 29, 0
13, 28920, Note_on_c, 10, 29, 107
13, 29008, Note_on_c, 10, 29, 0
13, 29040, Note_on_c, 10, 29, 111
13, 29128, Note_on_c, 10, 29, 0
13, 29160, Note_on_c, 10, 29, 113
13, 29248, Note_on_c, 10, 29, 0
13, 29280, Note_on_c, 10, 29, 104
13, 29368, Note_on_c, 10, 29, 0
13, 29400, Note_on_c, 10, 33, 113
13, 29488, Note_on_c, 10, 33, 0
13, 29520, Note_on_c, 10, 36, 111
13, 29608, Note_on_c, 10, 36, 0
13, 29640, Note_on_c, 10, 38, 104
13, 29728, Note_on_c, 10, 38, 0
13, 29760, Note_on_c, 10, 28, 107
13, 29848, Note_on_c, 10, 28, 0
13, 29880, Note_on_c, 10, 28, 108
13, 29968, Note_on_c, 10, 28, 0
13, 30000, Note_on_c, 10, 28, 111
13, 30088, Note_on_c, 10, 28, 0
13, 30120, Note_on_c, 10, 28, 105
13, 30208, Note_on_c, 10, 28, 0
13, 30240, Note_on_c, 10, 28, 116
13, 30328, Note_on_c, 10, 28, 0
13, 30360, Note_on_c, 10, 31, 104
13, 30448, Note_on_c, 10, 31, 0
13, 30480, Note_on_c, 10, 33, 116
13, 30568, Note_on_c, 10, 33, 0
13, 30600, Note_on_c, 10, 36, 109
13, 30688, Note_on_c, 10, 36, 0
13, 30720, Note_on_c, 10, 26, 110
13, 30808, Note_on_c, 10, 26, 0
13, 30840, Note_on_c, 10, 26, 110
13, 30928, Note_on_c, 10, 26, 0
13, 30960, Note_on_c, 10, 26, 110
13, 31048, Note_on_c, 10, 26, 0
13, 31080, Note_on_c, 10, 26, 111
13, 31168, Note_on_c, 10, 26, 0
13, 31200, Note_on_c, 10, 26, 112
13, 31288, Note_on_c, 10, 26, 0
13, 31320, Note_on_c, 10, 38, 116
13, 31408, Note_on_c, 10, 38, 0
13, 31440, Note_on_c, 10, 36, 105
13, 31528, Note_on_c, 10, 36, 0
13, 31560, Note_on_c, 10, 33, 104
13, 31648, Note_on_c, 10, 33, 0
13, 31680, Note_on_c, 10, 37, 108
13, 31768, Note_on_c, 10, 37, 0
13, 31800, Note_on_c, 10, 37, 105
13, 31888, Note_on_c, 10, 37, 0
13, 31920, Note_on_c, 10, 37, 115
13, 32008, Note_on_c, 10, 37, 0
13, 32040, Note_on_c, 10, 37, 108
13, 32128, Note_on_c, 10, 37, 0
13, 32160, Note_on_c, 10, 36, 112
13, 32248, Note_on_c, 10, 36, 0
13, 32280, Note_on_c, 10, 36, 113
13, 32368, Note_on_c, 10, 36, 0
13, 32400, Note_on_c, 10, 36, 110
13, 32488, Note_on_c, 10, 36, 0
13, 32520, Note_on_c, 10, 36, 104
13, 32608, Note_on_c, 10, 36, 0
13, 32640, Note_on_c, 10, 34, 106
13, 32728, Note_on_c, 10, 34, 0
13, 32760, Note_on_c, 10, 34, 109
13, 32848, Note_on_c, 10, 34, 0
13, 32880, Note_on_c, 10, 38, 109
13, 32998, Note_on_c, 10, 38, 0
13, 33000, Note_on_c, 10, 41, 115
13, 33110, Note_on_c, 10, 41, 0
13, 33120, Note_on_c, 10, 36, 111
13, 33238, Note_on_c, 10, 36, 0
13, 33240, Note_on_c, 10, 40, 104
13, 33358, Note_on_c, 10, 40, 0
13, 33360, Note_on_c, 10, 43, 110
13, 33478, Note_on_c, 10, 43, 0
13, 33480, Note_on_c, 10, 40, 104
13, 33598, Note_on_c, 10, 40, 0
13, 33600, Note_on_c, 10, 34, 111
13, 33688, Note_on_c, 10, 34, 0
13, 33720, Note_on_c, 10, 34, 110
13, 33808, Note_on_c, 10, 34, 0
13, 33840, Note_on_c, 10, 38, 111
13, 33958, Note_on_c, 10, 38, 0
13, 33960, Note_on_c, 10, 41, 105
13, 34078, Note_on_c, 10, 41, 0
13, 34080, Note_on_c, 10, 36, 109
13, 34198, Note_on_c, 10, 36, 0
13, 34200, Note_on_c, 10, 40, 110
13, 34318, Note_on_c, 10, 40, 0
13, 34320, Note_on_c, 10, 43, 107
13, 34438, Note_on_c, 10, 43, 0
13, 34440, Note_on_c, 10, 40, 112
13, 34558, Note_on_c, 10, 40, 0
13, 34560, Note_on_c, 10, 36, 104
13, 34634, Note_on_c, 10, 36, 0
13, 35520, Note_on_c, 10, 41, 114
13, 35608, Note_on_c, 10, 41, 0
13, 35640, Note_on_c, 10, 41, 116
13, 35728, Note_on_c, 10, 41, 0
13, 35760, Note_on_c, 10, 41, 104
13, 35848, Note_on_c, 10, 41, 0
13, 35880, Note_on_c, 10, 41, 111
13, 35968, Note_on_c, 10, 41, 0
13, 36000, Note_on_c, 10, 41, 106
13, 36088, Note_on_c, 10, 41, 0
13, 36120, Note_on_c, 10, 41, 109
13, 36208, Note_on_c, 10, 41, 0
13, 36240, Note_on_c, 10, 41, 104
13, 36284, Note_on_c, 10, 41, 0
13, 36320, Note_on_c, 10, 41, 105
13, 36360, Note_on_c, 10, 36, 107
13, 36364, Note_on_c, 10, 41, 0
13, 36419, Note_on_c, 10, 36, 0
13, 36420, Note_on_c, 10, 33, 109
13, 36471, Note_on_c, 10, 33, 0
13, 36480, Note_on_c, 10, 40, 110
13, 36568, Note_on_c, 10, 40, 0
13, 36600, Note_on_c, 10, 40, 111
13, 36688, Note_on_c, 10, 40, 0
13, 36720, Note_on_c, 10, 40, 106
13, 36808, Note_on_c, 10, 40, 0
13, 36840, Note_on_c, 10, 40, 110
13, 36928, Note_on_c, 10, 40, 0
13, 36960, Note_on_c, 10, 40, 111
13, 37048, Note_on_c, 10, 40, 0
13, 37080, Note_on_c, 10, 36, 112
13, 37198, Note_on_c, 10, 36, 0
13, 37200, Note_on_c, 10, 33, 110
13, 37318, Note_on_c, 10, 33, 0
13, 37320, Note_on_c, 10, 36, 110
13, 37430, Note_on_c, 10, 36, 0
13, 37440, Note_on_c, 10, 39, 104
13, 37528, Note_on_c, 10, 39, 0
13, 37560, Note_on_c, 10, 39, 115
13, 37648, Note_on_c, 10, 39, 0
13, 37680, Note_on_c, 10, 39, 110
13, 37768, Note_on_c, 10, 39, 0
13, 37800, Note_on_c, 10, 39, 116
13, 37888, Note_on_c, 10, 39, 0
13, 37920, Note_on_c, 10, 39, 116
13, 38008, Note_on_c, 10, 39, 0
13, 38040, Note_on_c, 10, 36, 115
13, 38158, Note_on_c, 10, 36, 0
13, 38160, Note_on_c, 10, 33, 104
13, 38278, Note_on_c, 10, 33, 0
13, 38280, Note_on_c, 10, 36, 106
13, 38390, Note_on_c, 10, 36, 0
13, 38400, Note_on_c, 10, 38, 105
13, 38488, Note_on_c, 10, 38, 0
13, 38520, Note_on_c, 10, 38, 114
13, 38608, Note_on_c, 10, 38, 0
13, 38640, Note_on_c, 10, 38, 115
13, 38728, Note_on_c, 10, 38, 0
13, 38760, Note_on_c, 10, 36, 107
13, 38848, Note_on_c, 10, 36, 0
13, 38880, Note_on_c, 10, 34, 110
13, 38968, Note_on_c, 10, 34, 0
13, 39000, Note_on_c, 10, 34, 112
13, 39088, Note_on_c, 10, 34, 0
13, 39120, Note_on_c, 10, 36, 116
13, 39208, Note_on_c, 10, 36, 0
13, 39240, Note_on_c, 10, 36, 116
13, 39328, Note_on_c, 10, 36, 0
13, 39360, Note_on_c, 10, 41, 104
13, 39448, Note_on_c, 10, 41, 0
13, 39480, Note_on_c, 10, 41, 115
13, 39568, Note_on_c, 10, 41, 0
13, 39600, Note_on_c, 10, 41, 104
13, 39688, Note_on_c, 10, 41, 0
13, 39720, Note_on_c, 10, 41, 115
13, 39808, Note_on_c, 10, 41, 0
13, 39840, Note_on_c, 10, 41, 111
13, 39928, Note_on_c, 10, 41, 0
13, 39960, Note_on_c, 10, 41, 113
13, 40048, Note_on_c, 10, 41, 0
13, 40080, Note_on_c, 10, 41, 109
13, 40124, Note_on_c, 10, 41, 0
13, 40160, Note_on_c, 10, 41, 111
13, 40200, Note_on_c, 10, 36, 109
13, 40204, Note_on_c, 10, 41, 0
13, 40259, Note_on_c, 10, 36, 0
13, 40260, Note_on_c, 10, 33, 105
13, 40311, Note_on_c, 10, 33, 0
13, 40320, Note_on_c, 10, 40, 110
13, 40408, Note_on_c, 10, 40, 0
13, 40440, Note_on_c, 10, 40, 108
13, 40528, Note_on_c, 10, 40, 0
13, 40560, Note_on_c, 10, 40, 109
13, 40648, Note_on_c, 10, 40, 0
13, 40680, Note_on_c, 10, 40, 116
13, 40768, Note_on_c, 10, 40, 0
13, 40800, Note_on_c, 10, 40, 114
13, 40888, Note_on_c, 10, 40, 0
13, 40920, Note_on_c, 10, 36, 104
13, 41038, Note_on_c, 10, 36, 0
13, 41040, Note_on_c, 10, 33, 109
13, 41158, Note_on_c, 10, 33, 0
13, 41160, Note_on_c, 10, 36, 105
13, 41270, Note_on_c, 10, 36, 0
13, 41280, Note_on_c, 10, 39, 107
13, 41368, Note_on_c, 10, 39, 0
13, 41400, Note_on_c, 10, 39, 116
13, 41488, Note_on_c, 10, 39, 0
13, 41520, Note_on_c, 10, 39, 104
13, 41608, Note_on_c, 10, 39, 0
13, 41640, Note_on_c, 10, 39, 110
13, 41728, Note_on_c, 10, 39, 0
13, 41760, Note_on_c, 10, 39, 111
13, 41848, Note_on_c, 10, 39, 0
13, 41880, Note_on_c, 10, 36, 115
13, 41998, Note_on_c, 10, 36, 0
13, 42000, Note_on_c, 10, 33, 107
13, 42118, Note_on_c, 10, 33, 0
13, 42120, Note_on_c, 10, 36, 111
13, 42230, Note_on_c, 10, 36, 0
13, 42240, Note_on_c, 10, 38, 109
13, 42328, Note_on_c, 10, 38, 0
13, 42360, Note_on_c, 10, 38, 113
13, 42448, Note_on_c, 10, 38, 0
13, 42480, Note_on_c, 10, 38, 116
13, 42568, Note_on_c, 10, 38, 0
13, 42600, Note_on_c, 10, 36, 105
13, 42688, Note_on_c, 10, 36, 0
13, 42720, Note_on_c, 10, 34, 105
13, 42808, Note_on_c, 10, 34, 0
13, 42840, Note_on_c, 10, 34, 107
13, 42928, Note_on_c, 10, 34, 0
13, 42960, Note_on_c, 10, 36, 106
13, 43048, Note_on_c, 10, 36, 0
13, 43080, Note_on_c, 10, 36, 110
13, 43168, Note_on_c, 10, 36, 0
13, 43200, Note_on_c, 10, 33, 116
13, 43288, Note_on_c, 10, 33, 0
13, 43320, Note_on_c, 10, 33, 107
13, 43408, Note_on_c, 10, 33, 0
13, 43440, Note_on_c, 10, 33, 108
13, 43528, Note_on_c, 10, 33, 0
13, 43560, Note_on_c, 10, 33, 109
13, 43648, Note_on_c, 10, 33, 0
13, 43680, Note_on_c, 10, 33, 111
13, 43798, Note_on_c, 10, 33, 0
13, 43800, Note_on_c, 10, 43, 110
13, 43918, Note_on_c, 10, 43, 0
13, 43920, Note_on_c, 10, 40, 116
13, 44038, Note_on_c, 10, 40, 0
13, 44040, Note_on_c, 10, 36, 114
13, 44158, Note_on_c, 10, 36, 0
13, 44160, Note_on_c, 10, 31, 111
13, 44248, Note_on_c, 10, 31, 0
13, 44280, Note_on_c, 10, 31, 113
13, 44368, Note_on_c, 10, 31, 0
13, 44400, Note_on_c, 10, 31, 110
13, 44488, Note_on_c, 10, 31, 0
13, 44520, Note_on_c, 10, 31, 110
13, 44608, Note_on_c, 10, 31, 0
13, 44640, Note_on_c, 10, 31, 109
13, 44758, Note_on_c, 10, 31, 0
13, 44760, Note_on_c, 10, 34, 109
13, 44878, Note_on_c, 10, 34, 0
13, 44880, Note_on_c, 10, 38, 115
13, 44998, Note_on_c, 10, 38, 0
13, 45000, Note_on_c, 10, 41, 110
13, 45110, Note_on_c, 10, 41, 0
13, 45120, Note_on_c, 10, 33, 109
13, 45208, Note_on_c, 10, 33, 0
13, 45240, Note_on_c, 10, 33, 109
13, 45328, Note_on_c, 10, 33, 0
13, 45360, Note_on_c, 10, 33, 110
13, 45448, Note_on_c, 10, 33, 0
13, 45480, Note_on_c, 10, 33, 110
13, 45568, Note_on_c, 10, 33, 0
13, 45600, Note_on_c, 10, 33, 106
13, 45718, Note_on_c, 10, 33, 0
13, 45720, Note_on_c, 10, 43, 108
13, 45838, Note_on_c, 10, 43, 0
13, 45840, Note_on_c, 10, 40, 109
13, 45958, Note_on_c, 10, 40, 0
13, 45960, Note_on_c, 10, 36, 113
13, 46078, Note_on_c, 10, 36, 0
13, 46080, Note_on_c, 10, 34, 104
13, 46168, Note_on_c, 10, 34, 0
13, 46200, Note_on_c, 10, 34, 106
13, 46288, Note_on_c, 10, 34, 0
13, 46320, Note_on_c, 10, 34, 110
13, 46408, Note_on_c, 10, 34, 0
13, 46440, Note_on_c, 10, 34, 114
13, 46499, Note_on_c, 10, 34, 0
13, 46507, Note_on_c, 10, 29, 116
13, 46551, Note_on_c, 10, 29, 0
13, 46560, Note_on_c, 10, 36, 109
13, 46648, Note_on_c, 10, 36, 0
13, 46680, Note_on_c, 10, 36, 105
13, 46768, Note_on_c, 10, 36, 0
13, 46800, Note_on_c, 10, 36, 115
13, 46888, Note_on_c, 10, 36, 0
13, 46920, Note_on_c, 10, 36, 116
13, 46979, Note_on_c, 10, 36, 0
13, 46987, Note_on_c, 10, 31, 114
13, 47038, Note_on_c, 10, 31, 0
13, 47040, Note_on_c, 10, 36, 104
13, 47114, Note_on_c, 10, 36, 0
13, 47520, Note_on_c, 10, 42, 104
13, 47608, Note_on_c, 10, 42, 0
13, 47640, Note_on_c, 10, 42, 115
13, 47728, Note_on_c, 10, 42, 0
13, 47760, Note_on_c, 10, 42, 107
13, 47848, Note_on_c, 10, 42, 0
13, 47880, Note_on_c, 10, 42, 110
13, 47968, Note_on_c, 10, 42, 0
13, 48000, Note_on_c, 10, 42, 105
13, 48088, Note_on_c, 10, 42, 0
13, 48120, Note_on_c, 10, 42, 106
13, 48208, Note_on_c, 10, 42, 0
13, 48240, Note_on_c, 10, 42, 109
13, 48284, Note_on_c, 10, 42, 0
13, 48320, Note_on_c, 10, 42, 111
13, 48360, Note_on_c, 10, 37, 110
13, 48364, Note_on_c, 10, 42, 0
13, 48419, Note_on_c, 10, 37, 0
13, 48420, Note_on_c, 10, 34, 104
13, 48471, Note_on_c, 10, 34, 0
13, 48480, Note_on_c, 10, 41, 111
13, 48568, Note_on_c, 10, 41, 0
13, 48600, Note_on_c, 10, 41, 113
13, 48688, Note_on_c, 10, 41, 0
13, 48720, Note_on_c, 10, 41, 116
13, 48808, Note_on_c, 10, 41, 0
13, 48840, Note_on_c, 10, 41, 111
13, 48928, Note_on_c, 10, 41, 0
13, 48960, Note_on_c, 10, 41, 115
13, 49048, Note_on_c, 10, 41, 0
13, 49080, Note_on_c, 10, 37, 116
13, 49198, Note_on_c, 10, 37, 0
13, 49200, Note_on_c, 10, 34, 107
13, 49318, Note_on_c, 10, 34, 0
13, 49320, Note_on_c, 10, 37, 106
13, 49430, Note_on_c, 10, 37, 0
13, 49440, Note_on_c, 10, 40, 111
13, 49528, Note_on_c, 10, 40, 0
13, 49560, Note_on_c, 10, 40, 113
13, 49648, Note_on_c, 10, 40, 0
13, 49680, Note_on_c, 10, 40, 114
13, 49768, Note_on_c, 10, 40, 0
13, 49800, Note_on_c, 10, 40, 109
13, 49888, Note_on_c, 10, 40, 0
13, 49920, Note_on_c, 10, 40, 111
13, 50008, Note_on_c, 10, 40, 0
13, 50040, Note_on_c, 10, 37, 109
13, 50158, Note_on_c, 10, 37, 0
13, 50160, Note_on_c, 10, 34, 109
13, 50278, Note_on_c, 10, 34, 0
13, 50280, Note_on_c, 10, 37, 111
13, 50390, Note_on_c, 10, 37, 0
13, 50400, Note_on_c, 10, 39, 104
13, 50488, Note_on_c, 10, 39, 0
13, 50520, Note_on_c, 10, 39, 112
13, 50608, Note_on_c, 10, 39, 0
13, 50640, Note_on_c, 10, 39, 115
13, 50728, Note_on_c, 10, 39, 0
13, 50760, Note_on_c, 10, 37, 109
13, 50848, Note_on_c, 10, 37, 0
13, 50880, Note_on_c, 10, 35, 109
13, 50968, Note_on_c, 10, 35, 0
13, 51000, Note_on_c, 10, 35, 116
13, 51088, Note_on_c, 10, 35, 0
13, 51120, Note_on_c, 10, 37, 114
13, 51208, Note_on_c, 10, 37, 0
13, 51240, Note_on_c, 10, 37, 104
13, 51328, Note_on_c, 10, 37, 0
13, 51360, Note_on_c, 10, 42, 110
13, 51448, Note_on_c, 10, 42, 0
13, 51480, Note_on_c, 10, 42, 111
13, 51568, Note_on_c, 10, 42, 0
13, 51600, Note_on_c, 10, 42, 116
13, 51688, Note_on_c, 10, 42, 0
13, 51720, Note_on_c, 10, 42, 105
13, 51808, Note_on_c, 10, 42, 0
13, 51840, Note_on_c, 10, 42, 106
13, 51928, Note_on_c, 10, 42, 0
13, 51960, Note_on_c, 10, 42, 116
13, 52048, Note_on_c, 10, 42, 0
13, 52080, Note_on_c, 10, 42, 105
13, 52124, Note_on_c, 10, 42, 0
13, 52160, Note_on_c, 10, 42, 106
13, 52200, Note_on_c, 10, 37, 107
13, 52204, Note_on_c, 10, 42, 0
13, 52259, Note_on_c, 10, 37, 0
13, 52260, Note_on_c, 10, 34, 111
13, 52311, Note_on_c, 10, 34, 0
13, 52320, Note_on_c, 10, 41, 104
13, 52408, Note_on_c, 10, 41, 0
13, 52440, Note_on_c, 10, 41, 116
13, 52528, Note_on_c, 10, 41, 0
13, 52560, Note_on_c, 10, 41, 111
13, 52648, Note_on_c, 10, 41, 0
13, 52680, Note_on_c, 10, 41, 116
13, 52768, Note_on_c, 10, 41, 0
13, 52800, Note_on_c, 10, 41, 110
13, 52888, Note_on_c, 10, 41, 0
13, 52920, Note_on_c, 10, 37, 111
13, 53038, Note_on_c, 10, 37, 0
13, 53040, Note_on_c, 10, 34, 115
13, 53158, Note_on_c, 10, 34, 0
13, 53160, Note_on_c, 10, 37, 104
13, 53270, Note_on_c, 10, 37, 0
13, 53280, Note_on_c, 10, 40, 112
13, 53368, Note_on_c, 10, 40, 0
13, 53400, Note_on_c, 10, 40, 113
13, 53488, Note_on_c, 10, 40, 0
13, 53520, Note_on_c, 10, 40, 109
13, 53608, Note_on_c, 10, 40, 0
13, 53640, Note_on_c, 10, 40, 115
13, 53728, Note_on_c, 10, 40, 0
13, 53760, Note_on_c, 10, 40, 112
13, 53848, Note_on_c, 10, 40, 0
13, 53880, Note_on_c, 10, 37, 111
13, 53998, Note_on_c, 10, 37, 0
13, 54000, Note_on_c, 10, 34, 106
13, 54118, Note_on_c, 10, 34, 0
13, 54120, Note_on_c, 10, 37, 109
13, 54230, Note_on_c, 10, 37, 0
13, 54240, Note_on_c, 10, 39, 106
13, 54328, Note_on_c, 10, 39, 0
13, 54360, Note_on_c, 10, 39, 111
13, 54448, Note_on_c, 10, 39, 0
13, 54480, Note_on_c, 10, 39, 106
13, 54568, Note_on_c, 10, 39, 0
13, 54600, Note_on_c, 10, 37, 110
13, 54688, Note_on_c, 10, 37, 0
13, 54720, Note_on_c, 10, 35, 111
13, 54808, Note_on_c, 10, 35, 0
13, 54840, Note_on_c, 10, 35, 104
13, 54928, Note_on_c, 10, 35, 0
13, 54960, Note_on_c, 10, 37, 116
13, 55048, Note_on_c, 10, 37, 0
13, 55080, Note_on_c, 10, 37, 105
13, 55168, Note_on_c, 10, 37, 0
13, 55200, Note_on_c, 10, 42, 108
13, 55288, Note_on_c, 10, 42, 0
13, 55320, Note_on_c, 10, 42, 107
13, 55408, Note_on_c, 10, 42, 0
13, 55440, Note_on_c, 10, 42, 110
13, 55528, Note_on_c, 10, 42, 0
13, 55560, Note_on_c, 10, 42, 105
13, 55648, Note_on_c, 10, 42, 0
13, 55680, Note_on_c, 10, 42, 109
13, 55768, Note_on_c, 10, 42, 0
13, 55800, Note_on_c, 10, 42, 113
13, 55888, Note_on_c, 10, 42, 0
13, 55920, Note_on_c, 10, 42, 108
13, 55964, Note_on_c, 10, 42, 0
13, 56000, Note_on_c, 10, 42, 107
13, 56040, Note_on_c, 10, 37, 111
13, 56044, Note_on_c, 10, 42, 0
13, 56099, Note_on_c, 10, 37, 0
13, 56100, Note_on_c, 10, 34, 104
13, 56151, Note_on_c, 10, 34, 0
13, 56160, Note_on_c, 10, 41, 116
13, 56248, Note_on_c, 10, 41, 0
13, 56280, Note_on_c, 10, 41, 112
13, 56368, Note_on_c, 10, 41, 0
13, 56400, Note_on_c, 10, 41, 111
13, 56488, Note_on_c, 10, 41, 0
13, 56520, Note_on_c, 10, 41, 116
13, 56608, Note_on_c, 10, 41, 0
13, 56640, Note_on_c, 10, 41, 104
13, 56728, Note_on_c, 10, 41, 0
13, 56760, Note_on_c, 10, 37, 108
13, 56878, Note_on_c, 10, 37, 0
13, 56880, Note_on_c, 10, 34, 105
13, 56998, Note_on_c, 10, 34, 0
13, 57000, Note_on_c, 10, 37, 112
13, 57110, Note_on_c, 10, 37, 0
13, 57120, Note_on_c, 10, 40, 110
13, 57208, Note_on_c, 10, 40, 0
13, 57240, Note_on_c, 10, 40, 111
13, 57328, Note_on_c, 10, 40, 0
13, 57360, Note_on_c, 10, 40, 113
13, 57448, Note_on_c, 10, 40, 0
13, 57480, Note_on_c, 10, 40, 111
13, 57568, Note_on_c, 10, 40, 0
13, 57600, Note_on_c, 10, 40, 104
13, 57688, Note_on_c, 10, 40, 0
13, 57720, Note_on_c, 10, 37, 113
13, 57838, Note_on_c, 10, 37, 0
13, 57840, Note_on_c, 10, 34, 105
13, 57958, Note_on_c, 10, 34, 0
13, 57960, Note_on_c, 10, 37, 105
13, 58070, Note_on_c, 10, 37, 0
13, 58080, Note_on_c, 10, 39, 112
13, 58168, Note_on_c, 10, 39, 0
13, 58200, Note_on_c, 10, 39, 109
13, 58288, Note_on_c, 10, 39, 0
13, 58320, Note_on_c, 10, 39, 112
13, 58408, Note_on_c, 10, 39, 0
13, 58440, Note_on_c, 10, 37, 108
13, 58528, Note_on_c, 10, 37, 0
13, 58560, Note_on_c, 10, 35, 104
13, 58648, Note_on_c, 10, 35, 0
13, 58680, Note_on_c, 10, 35, 116
13, 58768, Note_on_c, 10, 35, 0
13, 58800, Note_on_c, 10, 37, 109
13, 58888, Note_on_c, 10, 37, 0
13, 58920, Note_on_c, 10, 37, 114
13, 59008, Note_on_c, 10, 37, 0
13, 59040, Note_on_c, 10, 42, 107
13, 59128, Note_on_c, 10, 42, 0
13, 59160, Note_on_c, 10, 42, 109
13, 59248, Note_on_c, 10, 42, 0
13, 59280, Note_on_c, 10, 42, 105
13, 59368, Note_on_c, 10, 42, 0
13, 59400, Note_on_c, 10, 42, 106
13, 59488, Note_on_c, 10, 42, 0
13, 59520, Note_on_c, 10, 42, 116
13, 59608, Note_on_c, 10, 42, 0
13, 59640, Note_on_c, 10, 42, 107
13, 59728, Note_on_c, 10, 42, 0
13, 59760, Note_on_c, 10, 42, 107
13, 59804, Note_on_c, 10, 42, 0
13, 59840, Note_on_c, 10, 42, 104
13, 59880, Note_on_c, 10, 37, 107
13, 59884, Note_on_c, 10, 42, 0
13, 59939, Note_on_c, 10, 37, 0
13, 59940, Note_on_c, 10, 34, 114
13, 59991, Note_on_c, 10, 34, 0
13, 60000, Note_on_c, 10, 41, 116
13, 60088, Note_on_c, 10, 41, 0
13, 60120, Note_on_c, 10, 41, 104
13, 60208, Note_on_c, 10, 41, 0
13, 60240, Note_on_c, 10, 41, 108
13, 60328, Note_on_c, 10, 41, 0
13, 60360, Note_on_c, 10, 41, 114
13, 60448, Note_on_c, 10, 41, 0
13, 60480, Note_on_c, 10, 41, 104
13, 60568, Note_on_c, 10, 41, 0
13, 60600, Note_on_c, 10, 37, 114
13, 60718, Note_on_c, 10, 37, 0
13, 60720, Note_on_c, 10, 34, 113
13, 60838, Note_on_c, 10, 34, 0
13, 60840, Note_on_c, 10, 37, 114
13, 60950, Note_on_c, 10, 37, 0
13, 60960, Note_on_c, 10, 40, 104
13, 61048, Note_on_c, 10, 40, 0
13, 61080, Note_on_c, 10, 40, 109
13, 61168, Note_on_c, 10, 40, 0
13, 61200, Note_on_c, 10, 40, 110
13, 61288, Note_on_c, 10, 40, 0
13, 61320, Note_on_c, 10, 40, 115
13, 61408, Note_on_c, 10, 40, 0
13, 61440, Note_on_c, 10, 40, 111
13, 61528, Note_on_c, 10, 40, 0
13, 61560, Note_on_c, 10, 37, 116
13, 61678, Note_on_c, 10, 37, 0
13, 61680, Note_on_c, 10, 34, 110
13, 61798, Note_on_c, 10, 34, 0
13, 61800, Note_on_c, 10, 37, 110
13, 61910, Note_on_c, 10, 37, 0
13, 61920, Note_on_c, 10, 39, 111
13, 62008, Note_on_c, 10, 39, 0
13, 62040, Note_on_c, 10, 39, 107
13, 62128, Note_on_c, 10, 39, 0
13, 62160, Note_on_c, 10, 39, 105
13, 62248, Note_on_c, 10, 39, 0
13, 62280, Note_on_c, 10, 37, 110
13, 62368, Note_on_c, 10, 37, 0
13, 62400, Note_on_c, 10, 35, 112
13, 62488, Note_on_c, 10, 35, 0
13, 62520, Note_on_c, 10, 35, 116
13, 62608, Note_on_c, 10, 35, 0
13, 62640, Note_on_c, 10, 37, 116
13, 62728, Note_on_c, 10, 37, 0
13, 62760, Note_on_c, 10, 37, 105
13, 62848, Note_on_c, 10, 37, 0
13, 62880, Note_on_c, 10, 42, 90
13, 63350, Note_on_c, 10, 42, 0
13, 63350, End_track
14, 0, Start_track
14, 0, Title_t, "Drums"
14, 0, Note_on_c, 9, 42, 75
14, 7, Control_c, 9, 121, 0
14, 7, Note_on_c, 9, 42, 0
14, 30, Program_c, 9, 0
14, 37, Control_c, 9, 11, 127
14, 45, Control_c, 9, 91, 110
14, 52, Control_c, 9, 93, 0
14, 60, Control_c, 9, 94, 0
14, 67, Control_c, 9, 10, 64
14, 75, Control_c, 9, 100, 0
14, 82, Control_c, 9, 101, 0
14, 90, Control_c, 9, 6, 2
14, 120, Note_on_c, 9, 42, 75
14, 127, Note_on_c, 9, 42, 0
14, 157, Control_c, 9, 7, 100
14, 240, Note_on_c, 9, 42, 75
14, 247, Note_on_c, 9, 42, 0
14, 360, Note_on_c, 9, 42, 75
14, 367, Note_on_c, 9, 42, 0
14, 2640, Note_on_c, 9, 38, 114
14, 2647, Note_on_c, 9, 38, 0
14, 2680, Note_on_c, 9, 38, 100
14, 2687, Note_on_c, 9, 38, 0
14, 2720, Note_on_c, 9, 40, 81
14, 2727, Note_on_c, 9, 40, 0
14, 2732, Note_on_c, 9, 40, 91
14, 2739, Note_on_c, 9, 40, 0
14, 2740, Note_on_c, 9, 40, 111
14, 2747, Note_on_c, 9, 40, 0
14, 2760, Note_on_c, 9, 38, 102
14, 2767, Note_on_c, 9, 38, 0
14, 2800, Note_on_c, 9, 40, 102
14, 2807, Note_on_c, 9, 40, 0
14, 2840, Note_on_c, 9, 38, 114
14, 2847, Note_on_c, 9, 38, 0
14, 2880, Note_on_c, 9, 54, 90
14, 2880, Note_on_c, 9, 49, 90
14, 2880, Note_on_c, 9, 35, 110
14, 2887, Note_on_c, 9, 35, 0
14, 2887, Note_on_c, 9, 49, 0
14, 2887, Note_on_c, 9, 54, 0
14, 2955, Note_on_c, 9, 54, 55
14, 2960, Note_on_c, 9, 42, 75
14, 2962, Note_on_c, 9, 54, 0
14, 2967, Note_on_c, 9, 42, 0
14, 3000, Note_on_c, 9, 54, 90
14, 3000, Note_on_c, 9, 42, 90
14, 3000, Note_on_c, 9, 40, 115
14, 3007, Note_on_c, 9, 40, 0
14, 3007, Note_on_c, 9, 42, 0
14, 3007, Note_on_c, 9, 54, 0
14, 3075, Note_on_c, 9, 54, 55
14, 3080, Note_on_c, 9, 42, 75
14, 3082, Note_on_c, 9, 54, 0
14, 3087, Note_on_c, 9, 42, 0
14, 3120, Note_on_c, 9, 54, 90
14, 3120, Note_on_c, 9, 42, 90
14, 3120, Note_on_c, 9, 35, 110
14, 3127, Note_on_c, 9, 35, 0
14, 3127, Note_on_c, 9, 42, 0
14, 3127, Note_on_c, 9, 54, 0
14, 3195, Note_on_c, 9, 54, 55
14, 3200, Note_on_c, 9, 42, 75
14, 3202, Note_on_c, 9, 54, 0
14, 3207, Note_on_c, 9, 42, 0
14, 3240, Note_on_c, 9, 54, 90
14, 3240, Note_on_c, 9, 42, 90
14, 3240, Note_on_c, 9, 38, 110
14, 3247, Note_on_c, 9, 38, 0
14, 3247, Note_on_c, 9, 42, 0
14, 3247, Note_on_c, 9, 54, 0
14, 3315, Note_on_c, 9, 54, 55
14, 3320, Note_on_c, 9, 42, 75
14, 3322, Note_on_c, 9, 54, 0
14, 3327, Note_on_c, 9, 42, 0
14, 3360, Note_on_c, 9, 54, 90
14, 3360, Note_on_c, 9, 42, 90
14, 3360, Note_on_c, 9, 35, 110
14, 3367, Note_on_c, 9, 35, 0
14, 3367, Note_on_c, 9, 42, 0
14, 3367, Note_on_c, 9, 54, 0
14, 3435, Note_on_c, 9, 54, 55
14, 3440, Note_on_c, 9, 42, 75
14, 3442, Note_on_c, 9, 54, 0
14, 3447, Note_on_c, 9, 42, 0
14, 3480, Note_on_c, 9, 54, 90
14, 3480, Note_on_c, 9, 42, 90
14, 3480, Note_on_c, 9, 40, 115
14, 3487, Note_on_c, 9, 40, 0
14, 3487, Note_on_c, 9, 42, 0
14, 3487, Note_on_c, 9, 54, 0
14, 3555, Note_on_c, 9, 54, 55
14, 3560, Note_on_c, 9, 42, 75
14, 3562, Note_on_c, 9, 54, 0
14, 3567, Note_on_c, 9, 42, 0
14, 3600, Note_on_c, 9, 54, 90
14, 3600, Note_on_c, 9, 42, 90
14, 3600, Note_on_c, 9, 35, 110
14, 3607, Note_on_c, 9, 35, 0
14, 3607, Note_on_c, 9, 42, 0
14, 3607, Note_on_c, 9, 54, 0
14, 3675, Note_on_c, 9, 54, 55
14, 3680, Note_on_c, 9, 42, 75
14, 3682, Note_on_c, 9, 54, 0
14, 3687, Note_on_c, 9, 42, 0
14, 3720, Note_on_c, 9, 54, 90
14, 3720, Note_on_c, 9, 42, 90
14, 3720, Note_on_c, 9, 38, 110
14, 3727, Note_on_c, 9, 38, 0
14, 3727, Note_on_c, 9, 42, 0
14, 3727, Note_on_c, 9, 54, 0
14, 3795, Note_on_c, 9, 54, 55
14, 3800, Note_on_c, 9, 42, 75
14, 3802, Note_on_c, 9, 54, 0
14, 3807, Note_on_c, 9, 42, 0
14, 3840, Note_on_c, 9, 54, 90
14, 3840, Note_on_c, 9, 42, 90
14, 3840, Note_on_c, 9, 35, 110
14, 3847, Note_on_c, 9, 35, 0
14, 3847, Note_on_c, 9, 42, 0
14, 3847, Note_on_c, 9, 54, 0
14, 3915, Note_on_c, 9, 54, 55
14, 3920, Note_on_c, 9, 42, 75
14, 3922, Note_on_c, 9, 54, 0
14, 3927, Note_on_c, 9, 42, 0
14, 3960, Note_on_c, 9, 54, 90
14, 3960, Note_on_c, 9, 42, 90
14, 3960, Note_on_c, 9, 40, 115
14, 3967, Note_on_c, 9, 40, 0
14, 3967, Note_on_c, 9, 42, 0
14, 3967, Note_on_c, 9, 54, 0
14, 4035, Note_on_c, 9, 54, 55
14, 4040, Note_on_c, 9, 42, 75
14, 4042, Note_on_c, 9, 54, 0
14, 4047, Note_on_c, 9, 42, 0
14, 4080, Note_on_c, 9, 54, 90
14, 4080, Note_on_c, 9, 42, 90
14, 4080, Note_on_c, 9, 35, 110
14, 4087, Note_on_c, 9, 35, 0
14, 4087, Note_on_c, 9, 42, 0
14, 4087, Note_on_c, 9, 54, 0
14, 4155, Note_on_c, 9, 54, 55
14, 4160, Note_on_c, 9, 42, 75
14, 4162, Note_on_c, 9, 54, 0
14, 4167, Note_on_c, 9, 42, 0
14, 4200, Note_on_c, 9, 54, 90
14, 4200, Note_on_c, 9, 42, 90
14, 4200, Note_on_c, 9, 38, 110
14, 4207, Note_on_c, 9, 38, 0
14, 4207, Note_on_c, 9, 42, 0
14, 4207, Note_on_c, 9, 54, 0
14, 4275, Note_on_c, 9, 54, 55
14, 4280, Note_on_c, 9, 42, 75
14, 4282, Note_on_c, 9, 54, 0
14, 4287, Note_on_c, 9, 42, 0
14, 4320, Note_on_c, 9, 54, 90
14, 4320, Note_on_c, 9, 42, 90
14, 4320, Note_on_c, 9, 35, 110
14, 4327, Note_on_c, 9, 35, 0
14, 4327, Note_on_c, 9, 42, 0
14, 4327, Note_on_c, 9, 54, 0
14, 4395, Note_on_c, 9, 54, 55
14, 4400, Note_on_c, 9, 42, 75
14, 4402, Note_on_c, 9, 54, 0
14, 4407, Note_on_c, 9, 42, 0
14, 4440, Note_on_c, 9, 54, 90
14, 4440, Note_on_c, 9, 42, 90
14, 4440, Note_on_c, 9, 40, 115
14, 4447, Note_on_c, 9, 40, 0
14, 4447, Note_on_c, 9, 42, 0
14, 4447, Note_on_c, 9, 54, 0
14, 4515, Note_on_c, 9, 54, 55
14, 4520, Note_on_c, 9, 42, 75
14, 4522, Note_on_c, 9, 54, 0
14, 4527, Note_on_c, 9, 42, 0
14, 4560, Note_on_c, 9, 54, 90
14, 4560, Note_on_c, 9, 42, 90
14, 4560, Note_on_c, 9, 35, 110
14, 4567, Note_on_c, 9, 35, 0
14, 4567, Note_on_c, 9, 42, 0
14, 4567, Note_on_c, 9, 54, 0
14, 4635, Note_on_c, 9, 54, 55
14, 4640, Note_on_c, 9, 42, 75
14, 4642, Note_on_c, 9, 54, 0
14, 4647, Note_on_c, 9, 42, 0
14, 4680, Note_on_c, 9, 54, 90
14, 4680, Note_on_c, 9, 42, 90
14, 4680, Note_on_c, 9, 38, 110
14, 4687, Note_on_c, 9, 38, 0
14, 4687, Note_on_c, 9, 42, 0
14, 4687, Note_on_c, 9, 54, 0
14, 4755, Note_on_c, 9, 54, 55
14, 4760, Note_on_c, 9, 42, 75
14, 4762, Note_on_c, 9, 54, 0
14, 4767, Note_on_c, 9, 42, 0
14, 4800, Note_on_c, 9, 54, 90
14, 4800, Note_on_c, 9, 42, 90
14, 4800, Note_on_c, 9, 35, 110
14, 4807, Note_on_c, 9, 35, 0
14, 4807, Note_on_c, 9, 42, 0
14, 4807, Note_on_c, 9, 54, 0
14, 4875, Note_on_c, 9, 54, 55
14, 4880, Note_on_c, 9, 42, 75
14, 4882, Note_on_c, 9, 54, 0
14, 4887, Note_on_c, 9, 42, 0
14, 4920, Note_on_c, 9, 54, 90
14, 4920, Note_on_c, 9, 42, 90
14, 4920, Note_on_c, 9, 40, 115
14, 4927, Note_on_c, 9, 40, 0
14, 4927, Note_on_c, 9, 42, 0
14, 4927, Note_on_c, 9, 54, 0
14, 4995, Note_on_c, 9, 54, 55
14, 5000, Note_on_c, 9, 42, 75
14, 5002, Note_on_c, 9, 54, 0
14, 5007, Note_on_c, 9, 42, 0
14, 5040, Note_on_c, 9, 54, 90
14, 5040, Note_on_c, 9, 42, 90
14, 5040, Note_on_c, 9, 35, 110
14, 5047, Note_on_c, 9, 35, 0
14, 5047, Note_on_c, 9, 42, 0
14, 5047, Note_on_c, 9, 54, 0
14, 5115, Note_on_c, 9, 54, 55
14, 5120, Note_on_c, 9, 42, 75
14, 5122, Note_on_c, 9, 54, 0
14, 5127, Note_on_c, 9, 42, 0
14, 5160, Note_on_c, 9, 54, 90
14, 5160, Note_on_c, 9, 42, 90
14, 5160, Note_on_c, 9, 38, 110
14, 5167, Note_on_c, 9, 38, 0
14, 5167, Note_on_c, 9, 42, 0
14, 5167, Note_on_c, 9, 54, 0
14, 5235, Note_on_c, 9, 54, 55
14, 5240, Note_on_c, 9, 42, 75
14, 5242, Note_on_c, 9, 54, 0
14, 5247, Note_on_c, 9, 42, 0
14, 5280, Note_on_c, 9, 54, 90
14, 5280, Note_on_c, 9, 42, 90
14, 5280, Note_on_c, 9, 35, 110
14, 5287, Note_on_c, 9, 35, 0
14, 5287, Note_on_c, 9, 42, 0
14, 5287, Note_on_c, 9, 54, 0
14, 5355, Note_on_c, 9, 54, 55
14, 5360, Note_on_c, 9, 42, 75
14, 5362, Note_on_c, 9, 54, 0
14, 5367, Note_on_c, 9, 42, 0
14, 5400, Note_on_c, 9, 54, 90
14, 5400, Note_on_c, 9, 42, 90
14, 5400, Note_on_c, 9, 40, 115
14, 5407, Note_on_c, 9, 40, 0
14, 5407, Note_on_c, 9, 42, 0
14, 5407, Note_on_c, 9, 54, 0
14, 5475, Note_on_c, 9, 54, 55
14, 5480, Note_on_c, 9, 42, 75
14, 5482, Note_on_c, 9, 54, 0
14, 5487, Note_on_c, 9, 42, 0
14, 5520, Note_on_c, 9, 54, 90
14, 5520, Note_on_c, 9, 42, 90
14, 5520, Note_on_c, 9, 35, 110
14, 5527, Note_on_c, 9, 35, 0
14, 5527, Note_on_c, 9, 42, 0
14, 5527, Note_on_c, 9, 54, 0
14, 5595, Note_on_c, 9, 54, 55
14, 5600, Note_on_c, 9, 42, 75
14, 5602, Note_on_c, 9, 54, 0
14, 5607, Note_on_c, 9, 42, 0
14, 5640, Note_on_c, 9, 54, 90
14, 5640, Note_on_c, 9, 42, 90
14, 5640, Note_on_c, 9, 38, 110
14, 5647, Note_on_c, 9, 38, 0
14, 5647, Note_on_c, 9, 42, 0
14, 5647, Note_on_c, 9, 54, 0
14, 5715, Note_on_c, 9, 54, 55
14, 5720, Note_on_c, 9, 42, 75
14, 5722, Note_on_c, 9, 54, 0
14, 5727, Note_on_c, 9, 42, 0
14, 5760, Note_on_c, 9, 54, 90
14, 5760, Note_on_c, 9, 42, 90
14, 5760, Note_on_c, 9, 35, 110
14, 5767, Note_on_c, 9, 35, 0
14, 5767, Note_on_c, 9, 42, 0
14, 5767, Note_on_c, 9, 54, 0
14, 5835, Note_on_c, 9, 54, 55
14, 5840, Note_on_c, 9, 42, 75
14, 5842, Note_on_c, 9, 54, 0
14, 5847, Note_on_c, 9, 42, 0
14, 5880, Note_on_c, 9, 54, 90
14, 5880, Note_on_c, 9, 42, 90
14, 5880, Note_on_c, 9, 40, 115
14, 5887, Note_on_c, 9, 40, 0
14, 5887, Note_on_c, 9, 42, 0
14, 5887, Note_on_c, 9, 54, 0
14, 5955, Note_on_c, 9, 54, 55
14, 5960, Note_on_c, 9, 42, 75
14, 5962, Note_on_c, 9, 54, 0
14, 5967, Note_on_c, 9, 42, 0
14, 6000, Note_on_c, 9, 54, 90
14, 6000, Note_on_c, 9, 42, 90
14, 6000, Note_on_c, 9, 35, 110
14, 6007, Note_on_c, 9, 35, 0
14, 6007, Note_on_c, 9, 42, 0
14, 6007, Note_on_c, 9, 54, 0
14, 6075, Note_on_c, 9, 54, 55
14, 6080, Note_on_c, 9, 42, 75
14, 6082, Note_on_c, 9, 54, 0
14, 6087, Note_on_c, 9, 42, 0
14, 6120, Note_on_c, 9, 54, 90
14, 6120, Note_on_c, 9, 42, 90
14, 6120, Note_on_c, 9, 38, 110
14, 6127, Note_on_c, 9, 38, 0
14, 6127, Note_on_c, 9, 42, 0
14, 6127, Note_on_c, 9, 54, 0
14, 6195, Note_on_c, 9, 54, 55
14, 6200, Note_on_c, 9, 42, 75
14, 6202, Note_on_c, 9, 54, 0
14, 6207, Note_on_c, 9, 42, 0
14, 6240, Note_on_c, 9, 54, 90
14, 6240, Note_on_c, 9, 42, 90
14, 6240, Note_on_c, 9, 35, 110
14, 6247, Note_on_c, 9, 35, 0
14, 6247, Note_on_c, 9, 42, 0
14, 6247, Note_on_c, 9, 54, 0
14, 6315, Note_on_c, 9, 54, 55
14, 6320, Note_on_c, 9, 42, 75
14, 6322, Note_on_c, 9, 54, 0
14, 6327, Note_on_c, 9, 42, 0
14, 6360, Note_on_c, 9, 54, 90
14, 6360, Note_on_c, 9, 42, 90
14, 6360, Note_on_c, 9, 40, 115
14, 6367, Note_on_c, 9, 40, 0
14, 6367, Note_on_c, 9, 42, 0
14, 6367, Note_on_c, 9, 54, 0
14, 6435, Note_on_c, 9, 54, 55
14, 6440, Note_on_c, 9, 42, 75
14, 6442, Note_on_c, 9, 54, 0
14, 6447, Note_on_c, 9, 42, 0
14, 6480, Note_on_c, 9, 54, 90
14, 6480, Note_on_c, 9, 42, 90
14, 6480, Note_on_c, 9, 47, 125
14, 6480, Note_on_c, 9, 35, 110
14, 6487, Note_on_c, 9, 35, 0
14, 6487, Note_on_c, 9, 54, 0
14, 6487, Note_on_c, 9, 42, 0
14, 6487, Note_on_c, 9, 47, 0
14, 6520, Note_on_c, 9, 45, 105
14, 6527, Note_on_c, 9, 45, 0
14, 6555, Note_on_c, 9, 54, 55
14, 6560, Note_on_c, 9, 42, 75
14, 6560, Note_on_c, 9, 43, 125
14, 6562, Note_on_c, 9, 54, 0
14, 6567, Note_on_c, 9, 43, 0
14, 6567, Note_on_c, 9, 42, 0
14, 6600, Note_on_c, 9, 54, 90
14, 6600, Note_on_c, 9, 42, 90
14, 6600, Note_on_c, 9, 41, 125
14, 6607, Note_on_c, 9, 41, 0
14, 6607, Note_on_c, 9, 42, 0
14, 6607, Note_on_c, 9, 54, 0
14, 6675, Note_on_c, 9, 54, 55
14, 6680, Note_on_c, 9, 42, 75
14, 6680, Note_on_c, 9, 40, 125
14, 6682, Note_on_c, 9, 54, 0
14, 6687, Note_on_c, 9, 40, 0
14, 6687, Note_on_c, 9, 42, 0
14, 6720, Note_on_c, 9, 54, 90
14, 6720, Note_on_c, 9, 49, 90
14, 6720, Note_on_c, 9, 35, 110
14, 6727, Note_on_c, 9, 35, 0
14, 6727, Note_on_c, 9, 49, 0
14, 6727, Note_on_c, 9, 54, 0
14, 6795, Note_on_c, 9, 54, 55
14, 6800, Note_on_c, 9, 42, 75
14, 6802, Note_on_c, 9, 54, 0
14, 6807, Note_on_c, 9, 42, 0
14, 6840, Note_on_c, 9, 54, 90
14, 6840, Note_on_c, 9, 42, 90
14, 6840, Note_on_c, 9, 40, 115
14, 6847, Note_on_c, 9, 40, 0
14, 6847, Note_on_c, 9, 42, 0
14, 6847, Note_on_c, 9, 54, 0
14, 6915, Note_on_c, 9, 54, 55
14, 6920, Note_on_c, 9, 42, 75
14, 6922, Note_on_c, 9, 54, 0
14, 6927, Note_on_c, 9, 42, 0
14, 6960, Note_on_c, 9, 54, 90
14, 6960, Note_on_c, 9, 42, 90
14, 6960, Note_on_c, 9, 35, 110
14, 6967, Note_on_c, 9, 35, 0
14, 6967, Note_on_c, 9, 42, 0
14, 6967, Note_on_c, 9, 54, 0
14, 7035, Note_on_c, 9, 54, 55
14, 7040, Note_on_c, 9, 42, 75
14, 7042, Note_on_c, 9, 54, 0
14, 7047, Note_on_c, 9, 42, 0
14, 7080, Note_on_c, 9, 54, 90
14, 7080, Note_on_c, 9, 42, 90
14, 7080, Note_on_c, 9, 38, 110
14, 7087, Note_on_c, 9, 38, 0
14, 7087, Note_on_c, 9, 42, 0
14, 7087, Note_on_c, 9, 54, 0
14, 7155, Note_on_c, 9, 54, 55
14, 7160, Note_on_c, 9, 42, 75
14, 7162, Note_on_c, 9, 54, 0
14, 7167, Note_on_c, 9, 42, 0
14, 7200, Note_on_c, 9, 54, 90
14, 7200, Note_on_c, 9, 42, 90
14, 7200, Note_on_c, 9, 35, 110
14, 7207, Note_on_c, 9, 35, 0
14, 7207, Note_on_c, 9, 42, 0
14, 7207, Note_on_c, 9, 54, 0
14, 7275, Note_on_c, 9, 54, 55
14, 7280, Note_on_c, 9, 42, 75
14, 7282, Note_on_c, 9, 54, 0
14, 7287, Note_on_c, 9, 42, 0
14, 7320, Note_on_c, 9, 54, 90
14, 7320, Note_on_c, 9, 42, 90
14, 7320, Note_on_c, 9, 40, 115
14, 7327, Note_on_c, 9, 40, 0
14, 7327, Note_on_c, 9, 42, 0
14, 7327, Note_on_c, 9, 54, 0
14, 7395, Note_on_c, 9, 54, 55
14, 7400, Note_on_c, 9, 42, 75
14, 7402, Note_on_c, 9, 54, 0
14, 7407, Note_on_c, 9, 42, 0
14, 7440, Note_on_c, 9, 54, 90
14, 7440, Note_on_c, 9, 42, 90
14, 7440, Note_on_c, 9, 35, 110
14, 7447, Note_on_c, 9, 35, 0
14, 7447, Note_on_c, 9, 42, 0
14, 7447, Note_on_c, 9, 54, 0
14, 7515, Note_on_c, 9, 54, 55
14, 7520, Note_on_c, 9, 42, 75
14, 7522, Note_on_c, 9, 54, 0
14, 7527, Note_on_c, 9, 42, 0
14, 7560, Note_on_c, 9, 54, 90
14, 7560, Note_on_c, 9, 42, 90
14, 7560, Note_on_c, 9, 38, 110
14, 7567, Note_on_c, 9, 38, 0
14, 7567, Note_on_c, 9, 42, 0
14, 7567, Note_on_c, 9, 54, 0
14, 7635, Note_on_c, 9, 54, 55
14, 7640, Note_on_c, 9, 42, 75
14, 7642, Note_on_c, 9, 54, 0
14, 7647, Note_on_c, 9, 42, 0
14, 7680, Note_on_c, 9, 54, 90
14, 7680, Note_on_c, 9, 42, 90
14, 7680, Note_on_c, 9, 35, 110
14, 7687, Note_on_c, 9, 35, 0
14, 7687, Note_on_c, 9, 42, 0
14, 7687, Note_on_c, 9, 54, 0
14, 7755, Note_on_c, 9, 54, 55
14, 7760, Note_on_c, 9, 42, 75
14, 7762, Note_on_c, 9, 54, 0
14, 7767, Note_on_c, 9, 42, 0
14, 7800, Note_on_c, 9, 54, 90
14, 7800, Note_on_c, 9, 42, 90
14, 7800, Note_on_c, 9, 40, 115
14, 7807, Note_on_c, 9, 40, 0
14, 7807, Note_on_c, 9, 42, 0
14, 7807, Note_on_c, 9, 54, 0
14, 7875, Note_on_c, 9, 54, 55
14, 7880, Note_on_c, 9, 42, 75
14, 7882, Note_on_c, 9, 54, 0
14, 7887, Note_on_c, 9, 42, 0
14, 7920, Note_on_c, 9, 54, 90
14, 7920, Note_on_c, 9, 42, 90
14, 7920, Note_on_c, 9, 35, 110
14, 7927, Note_on_c, 9, 35, 0
14, 7927, Note_on_c, 9, 42, 0
14, 7927, Note_on_c, 9, 54, 0
14, 7995, Note_on_c, 9, 54, 55
14, 8000, Note_on_c, 9, 42, 75
14, 8002, Note_on_c, 9, 54, 0
14, 8007, Note_on_c, 9, 42, 0
14, 8040, Note_on_c, 9, 54, 90
14, 8040, Note_on_c, 9, 42, 90
14, 8040, Note_on_c, 9, 38, 110
14, 8047, Note_on_c, 9, 38, 0
14, 8047, Note_on_c, 9, 42, 0
14, 8047, Note_on_c, 9, 54, 0
14, 8115, Note_on_c, 9, 54, 55
14, 8120, Note_on_c, 9, 42, 75
14, 8122, Note_on_c, 9, 54, 0
14, 8127, Note_on_c, 9, 42, 0
14, 8160, Note_on_c, 9, 54, 90
14, 8160, Note_on_c, 9, 42, 90
14, 8160, Note_on_c, 9, 35, 110
14, 8167, Note_on_c, 9, 35, 0
14, 8167, Note_on_c, 9, 42, 0
14, 8167, Note_on_c, 9, 54, 0
14, 8235, Note_on_c, 9, 54, 55
14, 8240, Note_on_c, 9, 42, 75
14, 8242, Note_on_c, 9, 54, 0
14, 8247, Note_on_c, 9, 42, 0
14, 8280, Note_on_c, 9, 54, 90
14, 8280, Note_on_c, 9, 42, 90
14, 8280, Note_on_c, 9, 40, 115
14, 8287, Note_on_c, 9, 40, 0
14, 8287, Note_on_c, 9, 42, 0
14, 8287, Note_on_c, 9, 54, 0
14, 8355, Note_on_c, 9, 54, 55
14, 8360, Note_on_c, 9, 42, 75
14, 8362, Note_on_c, 9, 54, 0
14, 8367, Note_on_c, 9, 42, 0
14, 8400, Note_on_c, 9, 54, 90
14, 8400, Note_on_c, 9, 42, 90
14, 8400, Note_on_c, 9, 35, 110
14, 8407, Note_on_c, 9, 35, 0
14, 8407, Note_on_c, 9, 42, 0
14, 8407, Note_on_c, 9, 54, 0
14, 8475, Note_on_c, 9, 54, 55
14, 8480, Note_on_c, 9, 42, 75
14, 8482, Note_on_c, 9, 54, 0
14, 8487, Note_on_c, 9, 42, 0
14, 8520, Note_on_c, 9, 54, 90
14, 8520, Note_on_c, 9, 42, 90
14, 8520, Note_on_c, 9, 38, 110
14, 8527, Note_on_c, 9, 38, 0
14, 8527, Note_on_c, 9, 42, 0
14, 8527, Note_on_c, 9, 54, 0
14, 8595, Note_on_c, 9, 54, 55
14, 8600, Note_on_c, 9, 42, 75
14, 8602, Note_on_c, 9, 54, 0
14, 8607, Note_on_c, 9, 42, 0
14, 8640, Note_on_c, 9, 54, 90
14, 8640, Note_on_c, 9, 42, 90
14, 8640, Note_on_c, 9, 35, 110
14, 8647, Note_on_c, 9, 35, 0
14, 8647, Note_on_c, 9, 42, 0
14, 8647, Note_on_c, 9, 54, 0
14, 8715, Note_on_c, 9, 54, 55
14, 8720, Note_on_c, 9, 42, 75
14, 8722, Note_on_c, 9, 54, 0
14, 8727, Note_on_c, 9, 42, 0
14, 8760, Note_on_c, 9, 54, 90
14, 8760, Note_on_c, 9, 42, 90
14, 8760, Note_on_c, 9, 40, 115
14, 8767, Note_on_c, 9, 40, 0
14, 8767, Note_on_c, 9, 42, 0
14, 8767, Note_on_c, 9, 54, 0
14, 8835, Note_on_c, 9, 54, 55
14, 8840, Note_on_c, 9, 42, 75
14, 8842, Note_on_c, 9, 54, 0
14, 8847, Note_on_c, 9, 42, 0
14, 8880, Note_on_c, 9, 54, 90
14, 8880, Note_on_c, 9, 42, 90
14, 8880, Note_on_c, 9, 35, 110
14, 8887, Note_on_c, 9, 35, 0
14, 8887, Note_on_c, 9, 42, 0
14, 8887, Note_on_c, 9, 54, 0
14, 8955, Note_on_c, 9, 54, 55
14, 8960, Note_on_c, 9, 42, 75
14, 8962, Note_on_c, 9, 54, 0
14, 8967, Note_on_c, 9, 42, 0
14, 9000, Note_on_c, 9, 54, 90
14, 9000, Note_on_c, 9, 42, 90
14, 9000, Note_on_c, 9, 38, 110
14, 9007, Note_on_c, 9, 38, 0
14, 9007, Note_on_c, 9, 42, 0
14, 9007, Note_on_c, 9, 54, 0
14, 9075, Note_on_c, 9, 54, 55
14, 9080, Note_on_c, 9, 42, 75
14, 9082, Note_on_c, 9, 54, 0
14, 9087, Note_on_c, 9, 42, 0
14, 9120, Note_on_c, 9, 54, 90
14, 9120, Note_on_c, 9, 42, 90
14, 9120, Note_on_c, 9, 35, 110
14, 9127, Note_on_c, 9, 35, 0
14, 9127, Note_on_c, 9, 42, 0
14, 9127, Note_on_c, 9, 54, 0
14, 9195, Note_on_c, 9, 54, 55
14, 9200, Note_on_c, 9, 42, 75
14, 9202, Note_on_c, 9, 54, 0
14, 9207, Note_on_c, 9, 42, 0
14, 9240, Note_on_c, 9, 54, 90
14, 9240, Note_on_c, 9, 42, 90
14, 9240, Note_on_c, 9, 40, 115
14, 9247, Note_on_c, 9, 40, 0
14, 9247, Note_on_c, 9, 42, 0
14, 9247, Note_on_c, 9, 54, 0
14, 9315, Note_on_c, 9, 54, 55
14, 9320, Note_on_c, 9, 42, 75
14, 9322, Note_on_c, 9, 54, 0
14, 9327, Note_on_c, 9, 42, 0
14, 9360, Note_on_c, 9, 54, 90
14, 9360, Note_on_c, 9, 42, 90
14, 9360, Note_on_c, 9, 35, 110
14, 9367, Note_on_c, 9, 35, 0
14, 9367, Note_on_c, 9, 42, 0
14, 9367, Note_on_c, 9, 54, 0
14, 9435, Note_on_c, 9, 54, 55
14, 9440, Note_on_c, 9, 42, 75
14, 9442, Note_on_c, 9, 54, 0
14, 9447, Note_on_c, 9, 42, 0
14, 9480, Note_on_c, 9, 54, 90
14, 9480, Note_on_c, 9, 42, 90
14, 9480, Note_on_c, 9, 38, 110
14, 9487, Note_on_c, 9, 38, 0
14, 9487, Note_on_c, 9, 42, 0
14, 9487, Note_on_c, 9, 54, 0
14, 9555, Note_on_c, 9, 54, 55
14, 9560, Note_on_c, 9, 42, 75
14, 9562, Note_on_c, 9, 54, 0
14, 9567, Note_on_c, 9, 42, 0
14, 9600, Note_on_c, 9, 54, 90
14, 9600, Note_on_c, 9, 42, 90
14, 9600, Note_on_c, 9, 35, 110
14, 9607, Note_on_c, 9, 35, 0
14, 9607, Note_on_c, 9, 42, 0
14, 9607, Note_on_c, 9, 54, 0
14, 9675, Note_on_c, 9, 54, 55
14, 9680, Note_on_c, 9, 42, 75
14, 9682, Note_on_c, 9, 54, 0
14, 9687, Note_on_c, 9, 42, 0
14, 9720, Note_on_c, 9, 54, 90
14, 9720, Note_on_c, 9, 42, 90
14, 9720, Note_on_c, 9, 40, 115
14, 9727, Note_on_c, 9, 40, 0
14, 9727, Note_on_c, 9, 42, 0
14, 9727, Note_on_c, 9, 54, 0
14, 9795, Note_on_c, 9, 54, 55
14, 9800, Note_on_c, 9, 42, 75
14, 9802, Note_on_c, 9, 54, 0
14, 9807, Note_on_c, 9, 42, 0
14, 9840, Note_on_c, 9, 54, 90
14, 9840, Note_on_c, 9, 42, 90
14, 9840, Note_on_c, 9, 35, 110
14, 9847, Note_on_c, 9, 35, 0
14, 9847, Note_on_c, 9, 42, 0
14, 9847, Note_on_c, 9, 54, 0
14, 9915, Note_on_c, 9, 54, 55
14, 9920, Note_on_c, 9, 42, 75
14, 9922, Note_on_c, 9, 54, 0
14, 9927, Note_on_c, 9, 42, 0
14, 9960, Note_on_c, 9, 54, 90
14, 9960, Note_on_c, 9, 42, 90
14, 9960, Note_on_c, 9, 38, 110
14, 9967, Note_on_c, 9, 38, 0
14, 9967, Note_on_c, 9, 42, 0
14, 9967, Note_on_c, 9, 54, 0
14, 10035, Note_on_c, 9, 54, 55
14, 10040, Note_on_c, 9, 42, 75
14, 10042, Note_on_c, 9, 54, 0
14, 10047, Note_on_c, 9, 42, 0
14, 10080, Note_on_c, 9, 54, 90
14, 10080, Note_on_c, 9, 42, 90
14, 10080, Note_on_c, 9, 35, 110
14, 10087, Note_on_c, 9, 35, 0
14, 10087, Note_on_c, 9, 42, 0
14, 10087, Note_on_c, 9, 54, 0
14, 10155, Note_on_c, 9, 54, 55
14, 10160, Note_on_c, 9, 42, 75
14, 10162, Note_on_c, 9, 54, 0
14, 10167, Note_on_c, 9, 42, 0
14, 10200, Note_on_c, 9, 54, 90
14, 10200, Note_on_c, 9, 42, 90
14, 10200, Note_on_c, 9, 40, 115
14, 10207, Note_on_c, 9, 40, 0
14, 10207, Note_on_c, 9, 42, 0
14, 10207, Note_on_c, 9, 54, 0
14, 10275, Note_on_c, 9, 54, 55
14, 10280, Note_on_c, 9, 42, 75
14, 10282, Note_on_c, 9, 54, 0
14, 10287, Note_on_c, 9, 42, 0
14, 10320, Note_on_c, 9, 54, 90
14, 10320, Note_on_c, 9, 42, 90
14, 10320, Note_on_c, 9, 35, 110
14, 10327, Note_on_c, 9, 35, 0
14, 10327, Note_on_c, 9, 42, 0
14, 10327, Note_on_c, 9, 54, 0
14, 10395, Note_on_c, 9, 54, 55
14, 10400, Note_on_c, 9, 42, 75
14, 10402, Note_on_c, 9, 54, 0
14, 10407, Note_on_c, 9, 42, 0
14, 10440, Note_on_c, 9, 54, 90
14, 10440, Note_on_c, 9, 42, 90
14, 10440, Note_on_c, 9, 38, 110
14, 10447, Note_on_c, 9, 38, 0
14, 10447, Note_on_c, 9, 42, 0
14, 10447, Note_on_c, 9, 54, 0
14, 10515, Note_on_c, 9, 54, 55
14, 10520, Note_on_c, 9, 42, 75
14, 10522, Note_on_c, 9, 54, 0
14, 10527, Note_on_c, 9, 42, 0
14, 10560, Note_on_c, 9, 54, 90
14, 10560, Note_on_c, 9, 42, 90
14, 10560, Note_on_c, 9, 35, 110
14, 10567, Note_on_c, 9, 35, 0
14, 10567, Note_on_c, 9, 42, 0
14, 10567, Note_on_c, 9, 54, 0
14, 10635, Note_on_c, 9, 54, 55
14, 10640, Note_on_c, 9, 42, 75
14, 10642, Note_on_c, 9, 54, 0
14, 10647, Note_on_c, 9, 42, 0
14, 10680, Note_on_c, 9, 54, 90
14, 10680, Note_on_c, 9, 42, 90
14, 10680, Note_on_c, 9, 40, 115
14, 10687, Note_on_c, 9, 40, 0
14, 10687, Note_on_c, 9, 42, 0
14, 10687, Note_on_c, 9, 54, 0
14, 10755, Note_on_c, 9, 54, 55
14, 10760, Note_on_c, 9, 42, 75
14, 10762, Note_on_c, 9, 54, 0
14, 10767, Note_on_c, 9, 42, 0
14, 10800, Note_on_c, 9, 54, 90
14, 10800, Note_on_c, 9, 42, 90
14, 10800, Note_on_c, 9, 35, 110
14, 10807, Note_on_c, 9, 35, 0
14, 10807, Note_on_c, 9, 42, 0
14, 10807, Note_on_c, 9, 54, 0
14, 10875, Note_on_c, 9, 54, 55
14, 10880, Note_on_c, 9, 42, 75
14, 10882, Note_on_c, 9, 54, 0
14, 10887, Note_on_c, 9, 42, 0
14, 10920, Note_on_c, 9, 54, 90
14, 10920, Note_on_c, 9, 42, 90
14, 10920, Note_on_c, 9, 38, 110
14, 10927, Note_on_c, 9, 38, 0
14, 10927, Note_on_c, 9, 42, 0
14, 10927, Note_on_c, 9, 54, 0
14, 10995, Note_on_c, 9, 54, 55
14, 11000, Note_on_c, 9, 42, 75
14, 11002, Note_on_c, 9, 54, 0
14, 11007, Note_on_c, 9, 42, 0
14, 11040, Note_on_c, 9, 54, 90
14, 11040, Note_on_c, 9, 42, 90
14, 11040, Note_on_c, 9, 35, 110
14, 11047, Note_on_c, 9, 35, 0
14, 11047, Note_on_c, 9, 42, 0
14, 11047, Note_on_c, 9, 54, 0
14, 11115, Note_on_c, 9, 54, 55
14, 11120, Note_on_c, 9, 42, 75
14, 11122, Note_on_c, 9, 54, 0
14, 11127, Note_on_c, 9, 42, 0
14, 11160, Note_on_c, 9, 54, 90
14, 11160, Note_on_c, 9, 42, 90
14, 11160, Note_on_c, 9, 40, 115
14, 11167, Note_on_c, 9, 40, 0
14, 11167, Note_on_c, 9, 42, 0
14, 11167, Note_on_c, 9, 54, 0
14, 11235, Note_on_c, 9, 54, 55
14, 11240, Note_on_c, 9, 42, 75
14, 11242, Note_on_c, 9, 54, 0
14, 11247, Note_on_c, 9, 42, 0
14, 11280, Note_on_c, 9, 54, 90
14, 11280, Note_on_c, 9, 42, 90
14, 11280, Note_on_c, 9, 35, 110
14, 11287, Note_on_c, 9, 35, 0
14, 11287, Note_on_c, 9, 42, 0
14, 11287, Note_on_c, 9, 54, 0
14, 11355, Note_on_c, 9, 54, 55
14, 11360, Note_on_c, 9, 42, 75
14, 11362, Note_on_c, 9, 54, 0
14, 11367, Note_on_c, 9, 42, 0
14, 11400, Note_on_c, 9, 54, 90
14, 11400, Note_on_c, 9, 42, 90
14, 11400, Note_on_c, 9, 38, 110
14, 11407, Note_on_c, 9, 38, 0
14, 11407, Note_on_c, 9, 42, 0
14, 11407, Note_on_c, 9, 54, 0
14, 11475, Note_on_c, 9, 54, 55
14, 11480, Note_on_c, 9, 42, 75
14, 11482, Note_on_c, 9, 54, 0
14, 11487, Note_on_c, 9, 42, 0
14, 11520, Note_on_c, 9, 54, 90
14, 11520, Note_on_c, 9, 42, 90
14, 11520, Note_on_c, 9, 35, 110
14, 11527, Note_on_c, 9, 35, 0
14, 11527, Note_on_c, 9, 42, 0
14, 11527, Note_on_c, 9, 54, 0
14, 11595, Note_on_c, 9, 54, 55
14, 11600, Note_on_c, 9, 42, 75
14, 11602, Note_on_c, 9, 54, 0
14, 11607, Note_on_c, 9, 42, 0
14, 11640, Note_on_c, 9, 54, 90
14, 11640, Note_on_c, 9, 42, 90
14, 11640, Note_on_c, 9, 40, 115
14, 11647, Note_on_c, 9, 40, 0
14, 11647, Note_on_c, 9, 42, 0
14, 11647, Note_on_c, 9, 54, 0
14, 11715, Note_on_c, 9, 54, 55
14, 11720, Note_on_c, 9, 42, 75
14, 11722, Note_on_c, 9, 54, 0
14, 11727, Note_on_c, 9, 42, 0
14, 11760, Note_on_c, 9, 54, 90
14, 11760, Note_on_c, 9, 42, 90
14, 11760, Note_on_c, 9, 35, 110
14, 11767, Note_on_c, 9, 35, 0
14, 11767, Note_on_c, 9, 42, 0
14, 11767, Note_on_c, 9, 54, 0
14, 11835, Note_on_c, 9, 54, 55
14, 11840, Note_on_c, 9, 42, 75
14, 11842, Note_on_c, 9, 54, 0
14, 11847, Note_on_c, 9, 42, 0
14, 11880, Note_on_c, 9, 54, 90
14, 11880, Note_on_c, 9, 42, 90
14, 11880, Note_on_c, 9, 38, 110
14, 11887, Note_on_c, 9, 38, 0
14, 11887, Note_on_c, 9, 42, 0
14, 11887, Note_on_c, 9, 54, 0
14, 11955, Note_on_c, 9, 54, 55
14, 11960, Note_on_c, 9, 42, 75
14, 11962, Note_on_c, 9, 54, 0
14, 11967, Note_on_c, 9, 42, 0
14, 12000, Note_on_c, 9, 54, 90
14, 12000, Note_on_c, 9, 42, 90
14, 12000, Note_on_c, 9, 35, 110
14, 12007, Note_on_c, 9, 35, 0
14, 12007, Note_on_c, 9, 42, 0
14, 12007, Note_on_c, 9, 54, 0
14, 12075, Note_on_c, 9, 54, 55
14, 12080, Note_on_c, 9, 42, 75
14, 12082, Note_on_c, 9, 54, 0
14, 12087, Note_on_c, 9, 42, 0
14, 12120, Note_on_c, 9, 54, 90
14, 12120, Note_on_c, 9, 42, 90
14, 12120, Note_on_c, 9, 40, 115
14, 12127, Note_on_c, 9, 40, 0
14, 12127, Note_on_c, 9, 42, 0
14, 12127, Note_on_c, 9, 54, 0
14, 12195, Note_on_c, 9, 54, 55
14, 12200, Note_on_c, 9, 42, 75
14, 12202, Note_on_c, 9, 54, 0
14, 12207, Note_on_c, 9, 42, 0
14, 12240, Note_on_c, 9, 54, 90
14, 12240, Note_on_c, 9, 42, 90
14, 12240, Note_on_c, 9, 35, 110
14, 12247, Note_on_c, 9, 35, 0
14, 12247, Note_on_c, 9, 42, 0
14, 12247, Note_on_c, 9, 54, 0
14, 12315, Note_on_c, 9, 54, 55
14, 12320, Note_on_c, 9, 42, 75
14, 12322, Note_on_c, 9, 54, 0
14, 12327, Note_on_c, 9, 42, 0
14, 12360, Note_on_c, 9, 54, 90
14, 12360, Note_on_c, 9, 42, 90
14, 12360, Note_on_c, 9, 38, 110
14, 12367, Note_on_c, 9, 38, 0
14, 12367, Note_on_c, 9, 42, 0
14, 12367, Note_on_c, 9, 54, 0
14, 12435, Note_on_c, 9, 54, 55
14, 12440, Note_on_c, 9, 42, 75
14, 12442, Note_on_c, 9, 54, 0
14, 12447, Note_on_c, 9, 42, 0
14, 12480, Note_on_c, 9, 54, 90
14, 12480, Note_on_c, 9, 42, 90
14, 12480, Note_on_c, 9, 35, 110
14, 12487, Note_on_c, 9, 35, 0
14, 12487, Note_on_c, 9, 42, 0
14, 12487, Note_on_c, 9, 54, 0
14, 12555, Note_on_c, 9, 54, 55
14, 12560, Note_on_c, 9, 42, 75
14, 12562, Note_on_c, 9, 54, 0
14, 12567, Note_on_c, 9, 42, 0
14, 12600, Note_on_c, 9, 54, 90
14, 12600, Note_on_c, 9, 42, 90
14, 12600, Note_on_c, 9, 40, 115
14, 12607, Note_on_c, 9, 40, 0
14, 12607, Note_on_c, 9, 42, 0
14, 12607, Note_on_c, 9, 54, 0
14, 12675, Note_on_c, 9, 54, 55
14, 12680, Note_on_c, 9, 42, 75
14, 12682, Note_on_c, 9, 54, 0
14, 12687, Note_on_c, 9, 42, 0
14, 12720, Note_on_c, 9, 54, 90
14, 12720, Note_on_c, 9, 42, 90
14, 12720, Note_on_c, 9, 35, 110
14, 12727, Note_on_c, 9, 35, 0
14, 12727, Note_on_c, 9, 42, 0
14, 12727, Note_on_c, 9, 54, 0
14, 12795, Note_on_c, 9, 54, 55
14, 12800, Note_on_c, 9, 42, 75
14, 12802, Note_on_c, 9, 54, 0
14, 12807, Note_on_c, 9, 42, 0
14, 12840, Note_on_c, 9, 54, 90
14, 12840, Note_on_c, 9, 42, 90
14, 12840, Note_on_c, 9, 38, 110
14, 12847, Note_on_c, 9, 38, 0
14, 12847, Note_on_c, 9, 42, 0
14, 12847, Note_on_c, 9, 54, 0
14, 12915, Note_on_c, 9, 54, 55
14, 12920, Note_on_c, 9, 42, 75
14, 12922, Note_on_c, 9, 54, 0
14, 12927, Note_on_c, 9, 42, 0
14, 12960, Note_on_c, 9, 54, 90
14, 12960, Note_on_c, 9, 42, 90
14, 12960, Note_on_c, 9, 35, 110
14, 12967, Note_on_c, 9, 35, 0
14, 12967, Note_on_c, 9, 42, 0
14, 12967, Note_on_c, 9, 54, 0
14, 13035, Note_on_c, 9, 54, 55
14, 13040, Note_on_c, 9, 42, 75
14, 13042, Note_on_c, 9, 54, 0
14, 13047, Note_on_c, 9, 42, 0
14, 13080, Note_on_c, 9, 54, 90
14, 13080, Note_on_c, 9, 42, 90
14, 13080, Note_on_c, 9, 40, 115
14, 13087, Note_on_c, 9, 40, 0
14, 13087, Note_on_c, 9, 42, 0
14, 13087, Note_on_c, 9, 54, 0
14, 13155, Note_on_c, 9, 54, 55
14, 13160, Note_on_c, 9, 42, 75
14, 13162, Note_on_c, 9, 54, 0
14, 13167, Note_on_c, 9, 42, 0
14, 13200, Note_on_c, 9, 54, 90
14, 13200, Note_on_c, 9, 42, 90
14, 13200, Note_on_c, 9, 35, 110
14, 13207, Note_on_c, 9, 35, 0
14, 13207, Note_on_c, 9, 42, 0
14, 13207, Note_on_c, 9, 54, 0
14, 13275, Note_on_c, 9, 54, 55
14, 13280, Note_on_c, 9, 42, 75
14, 13282, Note_on_c, 9, 54, 0
14, 13287, Note_on_c, 9, 42, 0
14, 13320, Note_on_c, 9, 54, 90
14, 13320, Note_on_c, 9, 42, 90
14, 13320, Note_on_c, 9, 38, 110
14, 13327, Note_on_c, 9, 38, 0
14, 13327, Note_on_c, 9, 42, 0
14, 13327, Note_on_c, 9, 54, 0
14, 13395, Note_on_c, 9, 54, 55
14, 13400, Note_on_c, 9, 42, 75
14, 13402, Note_on_c, 9, 54, 0
14, 13407, Note_on_c, 9, 42, 0
14, 13440, Note_on_c, 9, 54, 90
14, 13440, Note_on_c, 9, 42, 90
14, 13440, Note_on_c, 9, 35, 110
14, 13447, Note_on_c, 9, 35, 0
14, 13447, Note_on_c, 9, 42, 0
14, 13447, Note_on_c, 9, 54, 0
14, 13515, Note_on_c, 9, 54, 55
14, 13520, Note_on_c, 9, 42, 75
14, 13522, Note_on_c, 9, 54, 0
14, 13527, Note_on_c, 9, 42, 0
14, 13560, Note_on_c, 9, 54, 90
14, 13560, Note_on_c, 9, 42, 90
14, 13560, Note_on_c, 9, 40, 115
14, 13567, Note_on_c, 9, 40, 0
14, 13567, Note_on_c, 9, 42, 0
14, 13567, Note_on_c, 9, 54, 0
14, 13635, Note_on_c, 9, 54, 55
14, 13640, Note_on_c, 9, 42, 75
14, 13642, Note_on_c, 9, 54, 0
14, 13647, Note_on_c, 9, 42, 0
14, 13680, Note_on_c, 9, 54, 90
14, 13680, Note_on_c, 9, 42, 90
14, 13680, Note_on_c, 9, 35, 110
14, 13687, Note_on_c, 9, 35, 0
14, 13687, Note_on_c, 9, 42, 0
14, 13687, Note_on_c, 9, 54, 0
14, 13755, Note_on_c, 9, 54, 55
14, 13760, Note_on_c, 9, 42, 75
14, 13762, Note_on_c, 9, 54, 0
14, 13767, Note_on_c, 9, 42, 0
14, 13800, Note_on_c, 9, 54, 90
14, 13800, Note_on_c, 9, 42, 90
14, 13800, Note_on_c, 9, 38, 110
14, 13807, Note_on_c, 9, 38, 0
14, 13807, Note_on_c, 9, 42, 0
14, 13807, Note_on_c, 9, 54, 0
14, 13875, Note_on_c, 9, 54, 55
14, 13880, Note_on_c, 9, 42, 75
14, 13882, Note_on_c, 9, 54, 0
14, 13887, Note_on_c, 9, 42, 0
14, 13920, Note_on_c, 9, 54, 90
14, 13920, Note_on_c, 9, 42, 90
14, 13920, Note_on_c, 9, 35, 110
14, 13927, Note_on_c, 9, 35, 0
14, 13927, Note_on_c, 9, 42, 0
14, 13927, Note_on_c, 9, 54, 0
14, 13995, Note_on_c, 9, 54, 55
14, 14000, Note_on_c, 9, 42, 75
14, 14002, Note_on_c, 9, 54, 0
14, 14007, Note_on_c, 9, 42, 0
14, 14040, Note_on_c, 9, 54, 90
14, 14040, Note_on_c, 9, 42, 90
14, 14040, Note_on_c, 9, 40, 115
14, 14047, Note_on_c, 9, 40, 0
14, 14047, Note_on_c, 9, 42, 0
14, 14047, Note_on_c, 9, 54, 0
14, 14115, Note_on_c, 9, 54, 55
14, 14120, Note_on_c, 9, 42, 75
14, 14122, Note_on_c, 9, 54, 0
14, 14127, Note_on_c, 9, 42, 0
14, 14160, Note_on_c, 9, 54, 90
14, 14160, Note_on_c, 9, 42, 90
14, 14160, Note_on_c, 9, 43, 115
14, 14160, Note_on_c, 9, 38, 115
14, 14160, Note_on_c, 9, 35, 110
14, 14167, Note_on_c, 9, 35, 0
14, 14167, Note_on_c, 9, 43, 0
14, 14167, Note_on_c, 9, 54, 0
14, 14167, Note_on_c, 9, 42, 0
14, 14167, Note_on_c, 9, 38, 0
14, 14200, Note_on_c, 9, 43, 95
14, 14200, Note_on_c, 9, 38, 95
14, 14207, Note_on_c, 9, 38, 0
14, 14207, Note_on_c, 9, 43, 0
14, 14235, Note_on_c, 9, 54, 55
14, 14240, Note_on_c, 9, 42, 75
14, 14240, Note_on_c, 9, 43, 100
14, 14240, Note_on_c, 9, 38, 100
14, 14242, Note_on_c, 9, 54, 0
14, 14247, Note_on_c, 9, 42, 0
14, 14247, Note_on_c, 9, 43, 0
14, 14247, Note_on_c, 9, 38, 0
14, 14280, Note_on_c, 9, 54, 90
14, 14280, Note_on_c, 9, 42, 90
14, 14280, Note_on_c, 9, 41, 105
14, 14280, Note_on_c, 9, 38, 105
14, 14287, Note_on_c, 9, 38, 0
14, 14287, Note_on_c, 9, 54, 0
14, 14287, Note_on_c, 9, 42, 0
14, 14287, Note_on_c, 9, 41, 0
14, 14320, Note_on_c, 9, 41, 110
14, 14320, Note_on_c, 9, 38, 110
14, 14327, Note_on_c, 9, 38, 0
14, 14327, Note_on_c, 9, 41, 0
14, 14355, Note_on_c, 9, 54, 55
14, 14360, Note_on_c, 9, 42, 75
14, 14360, Note_on_c, 9, 41, 115
14, 14360, Note_on_c, 9, 38, 115
14, 14362, Note_on_c, 9, 54, 0
14, 14367, Note_on_c, 9, 42, 0
14, 14367, Note_on_c, 9, 41, 0
14, 14367, Note_on_c, 9, 38, 0
14, 14400, Note_on_c, 9, 54, 90
14, 14400, Note_on_c, 9, 49, 90
14, 14400, Note_on_c, 9, 35, 110
14, 14407, Note_on_c, 9, 35, 0
14, 14407, Note_on_c, 9, 49, 0
14, 14407, Note_on_c, 9, 54, 0
14, 14475, Note_on_c, 9, 54, 55
14, 14480, Note_on_c, 9, 42, 75
14, 14482, Note_on_c, 9, 54, 0
14, 14487, Note_on_c, 9, 42, 0
14, 14520, Note_on_c, 9, 54, 90
14, 14520, Note_on_c, 9, 42, 90
14, 14520, Note_on_c, 9, 40, 115
14, 14527, Note_on_c, 9, 40, 0
14, 14527, Note_on_c, 9, 42, 0
14, 14527, Note_on_c, 9, 54, 0
14, 14595, Note_on_c, 9, 54, 55
14, 14600, Note_on_c, 9, 42, 75
14, 14602, Note_on_c, 9, 54, 0
14, 14607, Note_on_c, 9, 42, 0
14, 14640, Note_on_c, 9, 54, 90
14, 14640, Note_on_c, 9, 42, 90
14, 14640, Note_on_c, 9, 35, 110
14, 14647, Note_on_c, 9, 35, 0
14, 14647, Note_on_c, 9, 42, 0
14, 14647, Note_on_c, 9, 54, 0
14, 14715, Note_on_c, 9, 54, 55
14, 14720, Note_on_c, 9, 42, 75
14, 14722, Note_on_c, 9, 54, 0
14, 14727, Note_on_c, 9, 42, 0
14, 14760, Note_on_c, 9, 54, 90
14, 14760, Note_on_c, 9, 42, 90
14, 14760, Note_on_c, 9, 38, 110
14, 14767, Note_on_c, 9, 38, 0
14, 14767, Note_on_c, 9, 42, 0
14, 14767, Note_on_c, 9, 54, 0
14, 14835, Note_on_c, 9, 54, 55
14, 14840, Note_on_c, 9, 42, 75
14, 14842, Note_on_c, 9, 54, 0
14, 14847, Note_on_c, 9, 42, 0
14, 14880, Note_on_c, 9, 54, 90
14, 14880, Note_on_c, 9, 42, 90
14, 14880, Note_on_c, 9, 35, 110
14, 14887, Note_on_c, 9, 35, 0
14, 14887, Note_on_c, 9, 42, 0
14, 14887, Note_on_c, 9, 54, 0
14, 14955, Note_on_c, 9, 54, 55
14, 14960, Note_on_c, 9, 42, 75
14, 14962, Note_on_c, 9, 54, 0
14, 14967, Note_on_c, 9, 42, 0
14, 15000, Note_on_c, 9, 54, 90
14, 15000, Note_on_c, 9, 42, 90
14, 15000, Note_on_c, 9, 40, 115
14, 15007, Note_on_c, 9, 40, 0
14, 15007, Note_on_c, 9, 42, 0
14, 15007, Note_on_c, 9, 54, 0
14, 15075, Note_on_c, 9, 54, 55
14, 15080, Note_on_c, 9, 42, 75
14, 15082, Note_on_c, 9, 54, 0
14, 15087, Note_on_c, 9, 42, 0
14, 15120, Note_on_c, 9, 54, 90
14, 15120, Note_on_c, 9, 42, 90
14, 15120, Note_on_c, 9, 35, 110
14, 15127, Note_on_c, 9, 35, 0
14, 15127, Note_on_c, 9, 42, 0
14, 15127, Note_on_c, 9, 54, 0
14, 15195, Note_on_c, 9, 54, 55
14, 15200, Note_on_c, 9, 42, 75
14, 15202, Note_on_c, 9, 54, 0
14, 15207, Note_on_c, 9, 42, 0
14, 15240, Note_on_c, 9, 54, 90
14, 15240, Note_on_c, 9, 42, 90
14, 15240, Note_on_c, 9, 38, 110
14, 15247, Note_on_c, 9, 38, 0
14, 15247, Note_on_c, 9, 42, 0
14, 15247, Note_on_c, 9, 54, 0
14, 15315, Note_on_c, 9, 54, 55
14, 15320, Note_on_c, 9, 42, 75
14, 15322, Note_on_c, 9, 54, 0
14, 15327, Note_on_c, 9, 42, 0
14, 15360, Note_on_c, 9, 54, 90
14, 15360, Note_on_c, 9, 42, 90
14, 15360, Note_on_c, 9, 35, 110
14, 15367, Note_on_c, 9, 35, 0
14, 15367, Note_on_c, 9, 42, 0
14, 15367, Note_on_c, 9, 54, 0
14, 15435, Note_on_c, 9, 54, 55
14, 15440, Note_on_c, 9, 42, 75
14, 15442, Note_on_c, 9, 54, 0
14, 15447, Note_on_c, 9, 42, 0
14, 15480, Note_on_c, 9, 54, 90
14, 15480, Note_on_c, 9, 42, 90
14, 15480, Note_on_c, 9, 40, 115
14, 15487, Note_on_c, 9, 40, 0
14, 15487, Note_on_c, 9, 42, 0
14, 15487, Note_on_c, 9, 54, 0
14, 15555, Note_on_c, 9, 54, 55
14, 15560, Note_on_c, 9, 42, 75
14, 15562, Note_on_c, 9, 54, 0
14, 15567, Note_on_c, 9, 42, 0
14, 15600, Note_on_c, 9, 54, 90
14, 15600, Note_on_c, 9, 42, 90
14, 15600, Note_on_c, 9, 35, 110
14, 15607, Note_on_c, 9, 35, 0
14, 15607, Note_on_c, 9, 42, 0
14, 15607, Note_on_c, 9, 54, 0
14, 15675, Note_on_c, 9, 54, 55
14, 15680, Note_on_c, 9, 42, 75
14, 15682, Note_on_c, 9, 54, 0
14, 15687, Note_on_c, 9, 42, 0
14, 15720, Note_on_c, 9, 54, 90
14, 15720, Note_on_c, 9, 42, 90
14, 15720, Note_on_c, 9, 38, 110
14, 15727, Note_on_c, 9, 38, 0
14, 15727, Note_on_c, 9, 42, 0
14, 15727, Note_on_c, 9, 54, 0
14, 15795, Note_on_c, 9, 54, 55
14, 15800, Note_on_c, 9, 42, 75
14, 15802, Note_on_c, 9, 54, 0
14, 15807, Note_on_c, 9, 42, 0
14, 15840, Note_on_c, 9, 54, 90
14, 15840, Note_on_c, 9, 42, 90
14, 15840, Note_on_c, 9, 35, 110
14, 15847, Note_on_c, 9, 35, 0
14, 15847, Note_on_c, 9, 42, 0
14, 15847, Note_on_c, 9, 54, 0
14, 15915, Note_on_c, 9, 54, 55
14, 15920, Note_on_c, 9, 42, 75
14, 15922, Note_on_c, 9, 54, 0
14, 15927, Note_on_c, 9, 42, 0
14, 15960, Note_on_c, 9, 54, 90
14, 15960, Note_on_c, 9, 42, 90
14, 15960, Note_on_c, 9, 40, 115
14, 15967, Note_on_c, 9, 40, 0
14, 15967, Note_on_c, 9, 42, 0
14, 15967, Note_on_c, 9, 54, 0
14, 16035, Note_on_c, 9, 54, 55
14, 16040, Note_on_c, 9, 42, 75
14, 16042, Note_on_c, 9, 54, 0
14, 16047, Note_on_c, 9, 42, 0
14, 16080, Note_on_c, 9, 54, 90
14, 16080, Note_on_c, 9, 42, 90
14, 16080, Note_on_c, 9, 35, 110
14, 16087, Note_on_c, 9, 35, 0
14, 16087, Note_on_c, 9, 42, 0
14, 16087, Note_on_c, 9, 54, 0
14, 16155, Note_on_c, 9, 54, 55
14, 16160, Note_on_c, 9, 42, 75
14, 16162, Note_on_c, 9, 54, 0
14, 16167, Note_on_c, 9, 42, 0
14, 16200, Note_on_c, 9, 54, 90
14, 16200, Note_on_c, 9, 42, 90
14, 16200, Note_on_c, 9, 38, 110
14, 16207, Note_on_c, 9, 38, 0
14, 16207, Note_on_c, 9, 42, 0
14, 16207, Note_on_c, 9, 54, 0
14, 16275, Note_on_c, 9, 54, 55
14, 16280, Note_on_c, 9, 42, 75
14, 16282, Note_on_c, 9, 54, 0
14, 16287, Note_on_c, 9, 42, 0
14, 16312, Note_on_c, 9, 38, 110
14, 16313, Note_on_c, 9, 38, 0
14, 16320, Note_on_c, 9, 54, 90
14, 16320, Note_on_c, 9, 42, 90
14, 16320, Note_on_c, 9, 38, 110
14, 16320, Note_on_c, 9, 35, 110
14, 16327, Note_on_c, 9, 35, 0
14, 16327, Note_on_c, 9, 54, 0
14, 16327, Note_on_c, 9, 42, 0
14, 16327, Note_on_c, 9, 38, 0
14, 16800, Note_on_c, 9, 38, 114
14, 16807, Note_on_c, 9, 38, 0
14, 16840, Note_on_c, 9, 38, 114
14, 16847, Note_on_c, 9, 38, 0
14, 16880, Note_on_c, 9, 38, 114
14, 16887, Note_on_c, 9, 38, 0
14, 16920, Note_on_c, 9, 40, 118
14, 16927, Note_on_c, 9, 40, 0
14, 16960, Note_on_c, 9, 38, 114
14, 16967, Note_on_c, 9, 38, 0
14, 17000, Note_on_c, 9, 38, 114
14, 17007, Note_on_c, 9, 38, 0
14, 17040, Note_on_c, 9, 38, 114
14, 17047, Note_on_c, 9, 38, 0
14, 17080, Note_on_c, 9, 38, 100
14, 17087, Note_on_c, 9, 38, 0
14, 17120, Note_on_c, 9, 38, 111
14, 17127, Note_on_c, 9, 38, 0
14, 17160, Note_on_c, 9, 38, 102
14, 17167, Note_on_c, 9, 38, 0
14, 17200, Note_on_c, 9, 38, 102
14, 17207, Note_on_c, 9, 38, 0
14, 17240, Note_on_c, 9, 38, 114
14, 17247, Note_on_c, 9, 38, 0
14, 17280, Note_on_c, 9, 54, 90
14, 17280, Note_on_c, 9, 49, 90
14, 17280, Note_on_c, 9, 35, 110
14, 17287, Note_on_c, 9, 35, 0
14, 17287, Note_on_c, 9, 49, 0
14, 17287, Note_on_c, 9, 54, 0
14, 17355, Note_on_c, 9, 54, 55
14, 17360, Note_on_c, 9, 42, 75
14, 17362, Note_on_c, 9, 54, 0
14, 17367, Note_on_c, 9, 42, 0
14, 17400, Note_on_c, 9, 54, 90
14, 17400, Note_on_c, 9, 42, 90
14, 17400, Note_on_c, 9, 40, 115
14, 17407, Note_on_c, 9, 40, 0
14, 17407, Note_on_c, 9, 42, 0
14, 17407, Note_on_c, 9, 54, 0
14, 17475, Note_on_c, 9, 54, 55
14, 17480, Note_on_c, 9, 42, 75
14, 17482, Note_on_c, 9, 54, 0
14, 17487, Note_on_c, 9, 42, 0
14, 17520, Note_on_c, 9, 54, 90
14, 17520, Note_on_c, 9, 42, 90
14, 17520, Note_on_c, 9, 35, 110
14, 17527, Note_on_c, 9, 35, 0
14, 17527, Note_on_c, 9, 42, 0
14, 17527, Note_on_c, 9, 54, 0
14, 17595, Note_on_c, 9, 54, 55
14, 17600, Note_on_c, 9, 42, 75
14, 17602, Note_on_c, 9, 54, 0
14, 17607, Note_on_c, 9, 42, 0
14, 17640, Note_on_c, 9, 54, 90
14, 17640, Note_on_c, 9, 42, 90
14, 17640, Note_on_c, 9, 38, 110
14, 17647, Note_on_c, 9, 38, 0
14, 17647, Note_on_c, 9, 42, 0
14, 17647, Note_on_c, 9, 54, 0
14, 17715, Note_on_c, 9, 54, 55
14, 17720, Note_on_c, 9, 42, 75
14, 17722, Note_on_c, 9, 54, 0
14, 17727, Note_on_c, 9, 42, 0
14, 17760, Note_on_c, 9, 54, 90
14, 17760, Note_on_c, 9, 42, 90
14, 17760, Note_on_c, 9, 35, 110
14, 17767, Note_on_c, 9, 35, 0
14, 17767, Note_on_c, 9, 42, 0
14, 17767, Note_on_c, 9, 54, 0
14, 17835, Note_on_c, 9, 54, 55
14, 17840, Note_on_c, 9, 42, 75
14, 17842, Note_on_c, 9, 54, 0
14, 17847, Note_on_c, 9, 42, 0
14, 17880, Note_on_c, 9, 54, 90
14, 17880, Note_on_c, 9, 42, 90
14, 17880, Note_on_c, 9, 40, 115
14, 17887, Note_on_c, 9, 40, 0
14, 17887, Note_on_c, 9, 42, 0
14, 17887, Note_on_c, 9, 54, 0
14, 17955, Note_on_c, 9, 54, 55
14, 17960, Note_on_c, 9, 42, 75
14, 17962, Note_on_c, 9, 54, 0
14, 17967, Note_on_c, 9, 42, 0
14, 18000, Note_on_c, 9, 54, 90
14, 18000, Note_on_c, 9, 42, 90
14, 18000, Note_on_c, 9, 35, 110
14, 18007, Note_on_c, 9, 35, 0
14, 18007, Note_on_c, 9, 42, 0
14, 18007, Note_on_c, 9, 54, 0
14, 18075, Note_on_c, 9, 54, 55
14, 18080, Note_on_c, 9, 42, 75
14, 18082, Note_on_c, 9, 54, 0
14, 18087, Note_on_c, 9, 42, 0
14, 18120, Note_on_c, 9, 54, 90
14, 18120, Note_on_c, 9, 42, 90
14, 18120, Note_on_c, 9, 38, 110
14, 18127, Note_on_c, 9, 38, 0
14, 18127, Note_on_c, 9, 42, 0
14, 18127, Note_on_c, 9, 54, 0
14, 18195, Note_on_c, 9, 54, 55
14, 18200, Note_on_c, 9, 42, 75
14, 18202, Note_on_c, 9, 54, 0
14, 18207, Note_on_c, 9, 42, 0
14, 18240, Note_on_c, 9, 54, 90
14, 18240, Note_on_c, 9, 42, 90
14, 18240, Note_on_c, 9, 35, 110
14, 18247, Note_on_c, 9, 35, 0
14, 18247, Note_on_c, 9, 42, 0
14, 18247, Note_on_c, 9, 54, 0
14, 18315, Note_on_c, 9, 54, 55
14, 18320, Note_on_c, 9, 42, 75
14, 18322, Note_on_c, 9, 54, 0
14, 18327, Note_on_c, 9, 42, 0
14, 18360, Note_on_c, 9, 54, 90
14, 18360, Note_on_c, 9, 42, 90
14, 18360, Note_on_c, 9, 40, 115
14, 18367, Note_on_c, 9, 40, 0
14, 18367, Note_on_c, 9, 42, 0
14, 18367, Note_on_c, 9, 54, 0
14, 18435, Note_on_c, 9, 54, 55
14, 18440, Note_on_c, 9, 42, 75
14, 18442, Note_on_c, 9, 54, 0
14, 18447, Note_on_c, 9, 42, 0
14, 18480, Note_on_c, 9, 54, 90
14, 18480, Note_on_c, 9, 42, 90
14, 18480, Note_on_c, 9, 35, 110
14, 18487, Note_on_c, 9, 35, 0
14, 18487, Note_on_c, 9, 42, 0
14, 18487, Note_on_c, 9, 54, 0
14, 18555, Note_on_c, 9, 54, 55
14, 18560, Note_on_c, 9, 42, 75
14, 18562, Note_on_c, 9, 54, 0
14, 18567, Note_on_c, 9, 42, 0
14, 18600, Note_on_c, 9, 54, 90
14, 18600, Note_on_c, 9, 42, 90
14, 18600, Note_on_c, 9, 38, 110
14, 18607, Note_on_c, 9, 38, 0
14, 18607, Note_on_c, 9, 42, 0
14, 18607, Note_on_c, 9, 54, 0
14, 18675, Note_on_c, 9, 54, 55
14, 18680, Note_on_c, 9, 42, 75
14, 18682, Note_on_c, 9, 54, 0
14, 18687, Note_on_c, 9, 42, 0
14, 18720, Note_on_c, 9, 54, 90
14, 18720, Note_on_c, 9, 42, 90
14, 18720, Note_on_c, 9, 35, 110
14, 18727, Note_on_c, 9, 35, 0
14, 18727, Note_on_c, 9, 42, 0
14, 18727, Note_on_c, 9, 54, 0
14, 18795, Note_on_c, 9, 54, 55
14, 18800, Note_on_c, 9, 42, 75
14, 18802, Note_on_c, 9, 54, 0
14, 18807, Note_on_c, 9, 42, 0
14, 18840, Note_on_c, 9, 54, 90
14, 18840, Note_on_c, 9, 42, 90
14, 18840, Note_on_c, 9, 40, 115
14, 18847, Note_on_c, 9, 40, 0
14, 18847, Note_on_c, 9, 42, 0
14, 18847, Note_on_c, 9, 54, 0
14, 18915, Note_on_c, 9, 54, 55
14, 18920, Note_on_c, 9, 42, 75
14, 18922, Note_on_c, 9, 54, 0
14, 18927, Note_on_c, 9, 42, 0
14, 18960, Note_on_c, 9, 54, 90
14, 18960, Note_on_c, 9, 42, 90
14, 18960, Note_on_c, 9, 35, 110
14, 18967, Note_on_c, 9, 35, 0
14, 18967, Note_on_c, 9, 42, 0
14, 18967, Note_on_c, 9, 54, 0
14, 19035, Note_on_c, 9, 54, 55
14, 19040, Note_on_c, 9, 42, 75
14, 19042, Note_on_c, 9, 54, 0
14, 19047, Note_on_c, 9, 42, 0
14, 19080, Note_on_c, 9, 54, 90
14, 19080, Note_on_c, 9, 42, 90
14, 19080, Note_on_c, 9, 38, 110
14, 19087, Note_on_c, 9, 38, 0
14, 19087, Note_on_c, 9, 42, 0
14, 19087, Note_on_c, 9, 54, 0
14, 19155, Note_on_c, 9, 54, 55
14, 19160, Note_on_c, 9, 42, 75
14, 19162, Note_on_c, 9, 54, 0
14, 19167, Note_on_c, 9, 42, 0
14, 19200, Note_on_c, 9, 54, 90
14, 19200, Note_on_c, 9, 42, 90
14, 19200, Note_on_c, 9, 35, 110
14, 19207, Note_on_c, 9, 35, 0
14, 19207, Note_on_c, 9, 42, 0
14, 19207, Note_on_c, 9, 54, 0
14, 19275, Note_on_c, 9, 54, 55
14, 19280, Note_on_c, 9, 42, 75
14, 19282, Note_on_c, 9, 54, 0
14, 19287, Note_on_c, 9, 42, 0
14, 19320, Note_on_c, 9, 54, 90
14, 19320, Note_on_c, 9, 42, 90
14, 19320, Note_on_c, 9, 40, 115
14, 19327, Note_on_c, 9, 40, 0
14, 19327, Note_on_c, 9, 42, 0
14, 19327, Note_on_c, 9, 54, 0
14, 19395, Note_on_c, 9, 54, 55
14, 19400, Note_on_c, 9, 42, 75
14, 19402, Note_on_c, 9, 54, 0
14, 19407, Note_on_c, 9, 42, 0
14, 19440, Note_on_c, 9, 54, 90
14, 19440, Note_on_c, 9, 42, 90
14, 19440, Note_on_c, 9, 35, 110
14, 19447, Note_on_c, 9, 35, 0
14, 19447, Note_on_c, 9, 42, 0
14, 19447, Note_on_c, 9, 54, 0
14, 19515, Note_on_c, 9, 54, 55
14, 19520, Note_on_c, 9, 42, 75
14, 19522, Note_on_c, 9, 54, 0
14, 19527, Note_on_c, 9, 42, 0
14, 19560, Note_on_c, 9, 54, 90
14, 19560, Note_on_c, 9, 42, 90
14, 19560, Note_on_c, 9, 38, 110
14, 19567, Note_on_c, 9, 38, 0
14, 19567, Note_on_c, 9, 42, 0
14, 19567, Note_on_c, 9, 54, 0
14, 19635, Note_on_c, 9, 54, 55
14, 19640, Note_on_c, 9, 42, 75
14, 19642, Note_on_c, 9, 54, 0
14, 19647, Note_on_c, 9, 42, 0
14, 19680, Note_on_c, 9, 54, 90
14, 19680, Note_on_c, 9, 42, 90
14, 19680, Note_on_c, 9, 35, 110
14, 19687, Note_on_c, 9, 35, 0
14, 19687, Note_on_c, 9, 42, 0
14, 19687, Note_on_c, 9, 54, 0
14, 19755, Note_on_c, 9, 54, 55
14, 19760, Note_on_c, 9, 42, 75
14, 19762, Note_on_c, 9, 54, 0
14, 19767, Note_on_c, 9, 42, 0
14, 19800, Note_on_c, 9, 54, 90
14, 19800, Note_on_c, 9, 42, 90
14, 19800, Note_on_c, 9, 40, 115
14, 19807, Note_on_c, 9, 40, 0
14, 19807, Note_on_c, 9, 42, 0
14, 19807, Note_on_c, 9, 54, 0
14, 19875, Note_on_c, 9, 54, 55
14, 19880, Note_on_c, 9, 42, 75
14, 19882, Note_on_c, 9, 54, 0
14, 19887, Note_on_c, 9, 42, 0
14, 19920, Note_on_c, 9, 54, 90
14, 19920, Note_on_c, 9, 42, 90
14, 19920, Note_on_c, 9, 35, 110
14, 19927, Note_on_c, 9, 35, 0
14, 19927, Note_on_c, 9, 42, 0
14, 19927, Note_on_c, 9, 54, 0
14, 19995, Note_on_c, 9, 54, 55
14, 20000, Note_on_c, 9, 42, 75
14, 20002, Note_on_c, 9, 54, 0
14, 20007, Note_on_c, 9, 42, 0
14, 20040, Note_on_c, 9, 54, 90
14, 20040, Note_on_c, 9, 42, 90
14, 20040, Note_on_c, 9, 38, 110
14, 20047, Note_on_c, 9, 38, 0
14, 20047, Note_on_c, 9, 42, 0
14, 20047, Note_on_c, 9, 54, 0
14, 20115, Note_on_c, 9, 54, 55
14, 20120, Note_on_c, 9, 42, 75
14, 20122, Note_on_c, 9, 54, 0
14, 20127, Note_on_c, 9, 42, 0
14, 20160, Note_on_c, 9, 54, 90
14, 20160, Note_on_c, 9, 42, 90
14, 20160, Note_on_c, 9, 35, 110
14, 20167, Note_on_c, 9, 35, 0
14, 20167, Note_on_c, 9, 42, 0
14, 20167, Note_on_c, 9, 54, 0
14, 20235, Note_on_c, 9, 54, 55
14, 20240, Note_on_c, 9, 42, 75
14, 20242, Note_on_c, 9, 54, 0
14, 20247, Note_on_c, 9, 42, 0
14, 20280, Note_on_c, 9, 54, 90
14, 20280, Note_on_c, 9, 42, 90
14, 20280, Note_on_c, 9, 40, 115
14, 20287, Note_on_c, 9, 40, 0
14, 20287, Note_on_c, 9, 42, 0
14, 20287, Note_on_c, 9, 54, 0
14, 20355, Note_on_c, 9, 54, 55
14, 20360, Note_on_c, 9, 42, 75
14, 20362, Note_on_c, 9, 54, 0
14, 20367, Note_on_c, 9, 42, 0
14, 20400, Note_on_c, 9, 54, 90
14, 20400, Note_on_c, 9, 42, 90
14, 20400, Note_on_c, 9, 35, 110
14, 20407, Note_on_c, 9, 35, 0
14, 20407, Note_on_c, 9, 42, 0
14, 20407, Note_on_c, 9, 54, 0
14, 20475, Note_on_c, 9, 54, 55
14, 20480, Note_on_c, 9, 42, 75
14, 20482, Note_on_c, 9, 54, 0
14, 20487, Note_on_c, 9, 42, 0
14, 20520, Note_on_c, 9, 54, 90
14, 20520, Note_on_c, 9, 42, 90
14, 20520, Note_on_c, 9, 38, 110
14, 20527, Note_on_c, 9, 38, 0
14, 20527, Note_on_c, 9, 42, 0
14, 20527, Note_on_c, 9, 54, 0
14, 20595, Note_on_c, 9, 54, 55
14, 20600, Note_on_c, 9, 42, 75
14, 20602, Note_on_c, 9, 54, 0
14, 20607, Note_on_c, 9, 42, 0
14, 20640, Note_on_c, 9, 54, 90
14, 20640, Note_on_c, 9, 42, 90
14, 20640, Note_on_c, 9, 35, 110
14, 20647, Note_on_c, 9, 35, 0
14, 20647, Note_on_c, 9, 42, 0
14, 20647, Note_on_c, 9, 54, 0
14, 20715, Note_on_c, 9, 54, 55
14, 20720, Note_on_c, 9, 42, 75
14, 20722, Note_on_c, 9, 54, 0
14, 20727, Note_on_c, 9, 42, 0
14, 20760, Note_on_c, 9, 54, 90
14, 20760, Note_on_c, 9, 42, 90
14, 20760, Note_on_c, 9, 40, 115
14, 20767, Note_on_c, 9, 40, 0
14, 20767, Note_on_c, 9, 42, 0
14, 20767, Note_on_c, 9, 54, 0
14, 20835, Note_on_c, 9, 54, 55
14, 20840, Note_on_c, 9, 42, 75
14, 20842, Note_on_c, 9, 54, 0
14, 20847, Note_on_c, 9, 42, 0
14, 20880, Note_on_c, 9, 54, 90
14, 20880, Note_on_c, 9, 42, 90
14, 20880, Note_on_c, 9, 47, 125
14, 20880, Note_on_c, 9, 35, 110
14, 20887, Note_on_c, 9, 35, 0
14, 20887, Note_on_c, 9, 54, 0
14, 20887, Note_on_c, 9, 42, 0
14, 20887, Note_on_c, 9, 47, 0
14, 20920, Note_on_c, 9, 45, 105
14, 20927, Note_on_c, 9, 45, 0
14, 20955, Note_on_c, 9, 54, 55
14, 20960, Note_on_c, 9, 42, 75
14, 20960, Note_on_c, 9, 43, 125
14, 20962, Note_on_c, 9, 54, 0
14, 20967, Note_on_c, 9, 43, 0
14, 20967, Note_on_c, 9, 42, 0
14, 21000, Note_on_c, 9, 54, 90
14, 21000, Note_on_c, 9, 42, 90
14, 21000, Note_on_c, 9, 41, 125
14, 21007, Note_on_c, 9, 41, 0
14, 21007, Note_on_c, 9, 42, 0
14, 21007, Note_on_c, 9, 54, 0
14, 21075, Note_on_c, 9, 54, 55
14, 21080, Note_on_c, 9, 42, 75
14, 21080, Note_on_c, 9, 40, 125
14, 21082, Note_on_c, 9, 54, 0
14, 21087, Note_on_c, 9, 40, 0
14, 21087, Note_on_c, 9, 42, 0
14, 21120, Note_on_c, 9, 54, 90
14, 21120, Note_on_c, 9, 49, 90
14, 21120, Note_on_c, 9, 35, 110
14, 21127, Note_on_c, 9, 35, 0
14, 21127, Note_on_c, 9, 49, 0
14, 21127, Note_on_c, 9, 54, 0
14, 21195, Note_on_c, 9, 54, 55
14, 21200, Note_on_c, 9, 42, 75
14, 21202, Note_on_c, 9, 54, 0
14, 21207, Note_on_c, 9, 42, 0
14, 21240, Note_on_c, 9, 54, 90
14, 21240, Note_on_c, 9, 42, 90
14, 21240, Note_on_c, 9, 40, 115
14, 21247, Note_on_c, 9, 40, 0
14, 21247, Note_on_c, 9, 42, 0
14, 21247, Note_on_c, 9, 54, 0
14, 21315, Note_on_c, 9, 54, 55
14, 21320, Note_on_c, 9, 42, 75
14, 21322, Note_on_c, 9, 54, 0
14, 21327, Note_on_c, 9, 42, 0
14, 21360, Note_on_c, 9, 54, 90
14, 21360, Note_on_c, 9, 42, 90
14, 21360, Note_on_c, 9, 35, 110
14, 21367, Note_on_c, 9, 35, 0
14, 21367, Note_on_c, 9, 42, 0
14, 21367, Note_on_c, 9, 54, 0
14, 21435, Note_on_c, 9, 54, 55
14, 21440, Note_on_c, 9, 42, 75
14, 21442, Note_on_c, 9, 54, 0
14, 21447, Note_on_c, 9, 42, 0
14, 21480, Note_on_c, 9, 54, 90
14, 21480, Note_on_c, 9, 42, 90
14, 21480, Note_on_c, 9, 38, 110
14, 21487, Note_on_c, 9, 38, 0
14, 21487, Note_on_c, 9, 42, 0
14, 21487, Note_on_c, 9, 54, 0
14, 21555, Note_on_c, 9, 54, 55
14, 21560, Note_on_c, 9, 42, 75
14, 21562, Note_on_c, 9, 54, 0
14, 21567, Note_on_c, 9, 42, 0
14, 21600, Note_on_c, 9, 54, 90
14, 21600, Note_on_c, 9, 42, 90
14, 21600, Note_on_c, 9, 35, 110
14, 21607, Note_on_c, 9, 35, 0
14, 21607, Note_on_c, 9, 42, 0
14, 21607, Note_on_c, 9, 54, 0
14, 21675, Note_on_c, 9, 54, 55
14, 21680, Note_on_c, 9, 42, 75
14, 21682, Note_on_c, 9, 54, 0
14, 21687, Note_on_c, 9, 42, 0
14, 21720, Note_on_c, 9, 54, 90
14, 21720, Note_on_c, 9, 42, 90
14, 21720, Note_on_c, 9, 40, 115
14, 21727, Note_on_c, 9, 40, 0
14, 21727, Note_on_c, 9, 42, 0
14, 21727, Note_on_c, 9, 54, 0
14, 21795, Note_on_c, 9, 54, 55
14, 21800, Note_on_c, 9, 42, 75
14, 21802, Note_on_c, 9, 54, 0
14, 21807, Note_on_c, 9, 42, 0
14, 21840, Note_on_c, 9, 54, 90
14, 21840, Note_on_c, 9, 42, 90
14, 21840, Note_on_c, 9, 35, 110
14, 21847, Note_on_c, 9, 35, 0
14, 21847, Note_on_c, 9, 42, 0
14, 21847, Note_on_c, 9, 54, 0
14, 21915, Note_on_c, 9, 54, 55
14, 21920, Note_on_c, 9, 42, 75
14, 21922, Note_on_c, 9, 54, 0
14, 21927, Note_on_c, 9, 42, 0
14, 21960, Note_on_c, 9, 54, 90
14, 21960, Note_on_c, 9, 42, 90
14, 21960, Note_on_c, 9, 38, 110
14, 21967, Note_on_c, 9, 38, 0
14, 21967, Note_on_c, 9, 42, 0
14, 21967, Note_on_c, 9, 54, 0
14, 22035, Note_on_c, 9, 54, 55
14, 22040, Note_on_c, 9, 42, 75
14, 22042, Note_on_c, 9, 54, 0
14, 22047, Note_on_c, 9, 42, 0
14, 22080, Note_on_c, 9, 54, 90
14, 22080, Note_on_c, 9, 42, 90
14, 22080, Note_on_c, 9, 35, 110
14, 22087, Note_on_c, 9, 35, 0
14, 22087, Note_on_c, 9, 42, 0
14, 22087, Note_on_c, 9, 54, 0
14, 22155, Note_on_c, 9, 54, 55
14, 22160, Note_on_c, 9, 42, 75
14, 22162, Note_on_c, 9, 54, 0
14, 22167, Note_on_c, 9, 42, 0
14, 22200, Note_on_c, 9, 54, 90
14, 22200, Note_on_c, 9, 42, 90
14, 22200, Note_on_c, 9, 40, 115
14, 22207, Note_on_c, 9, 40, 0
14, 22207, Note_on_c, 9, 42, 0
14, 22207, Note_on_c, 9, 54, 0
14, 22275, Note_on_c, 9, 54, 55
14, 22280, Note_on_c, 9, 42, 75
14, 22282, Note_on_c, 9, 54, 0
14, 22287, Note_on_c, 9, 42, 0
14, 22320, Note_on_c, 9, 54, 90
14, 22320, Note_on_c, 9, 42, 90
14, 22320, Note_on_c, 9, 35, 110
14, 22327, Note_on_c, 9, 35, 0
14, 22327, Note_on_c, 9, 42, 0
14, 22327, Note_on_c, 9, 54, 0
14, 22395, Note_on_c, 9, 54, 55
14, 22400, Note_on_c, 9, 42, 75
14, 22402, Note_on_c, 9, 54, 0
14, 22407, Note_on_c, 9, 42, 0
14, 22440, Note_on_c, 9, 54, 90
14, 22440, Note_on_c, 9, 42, 90
14, 22440, Note_on_c, 9, 38, 110
14, 22447, Note_on_c, 9, 38, 0
14, 22447, Note_on_c, 9, 42, 0
14, 22447, Note_on_c, 9, 54, 0
14, 22515, Note_on_c, 9, 54, 55
14, 22520, Note_on_c, 9, 42, 75
14, 22522, Note_on_c, 9, 54, 0
14, 22527, Note_on_c, 9, 42, 0
14, 22560, Note_on_c, 9, 54, 90
14, 22560, Note_on_c, 9, 42, 90
14, 22560, Note_on_c, 9, 35, 110
14, 22567, Note_on_c, 9, 35, 0
14, 22567, Note_on_c, 9, 42, 0
14, 22567, Note_on_c, 9, 54, 0
14, 22635, Note_on_c, 9, 54, 55
14, 22640, Note_on_c, 9, 42, 75
14, 22642, Note_on_c, 9, 54, 0
14, 22647, Note_on_c, 9, 42, 0
14, 22680, Note_on_c, 9, 54, 90
14, 22680, Note_on_c, 9, 42, 90
14, 22680, Note_on_c, 9, 40, 115
14, 22687, Note_on_c, 9, 40, 0
14, 22687, Note_on_c, 9, 42, 0
14, 22687, Note_on_c, 9, 54, 0
14, 22755, Note_on_c, 9, 54, 55
14, 22760, Note_on_c, 9, 42, 75
14, 22762, Note_on_c, 9, 54, 0
14, 22767, Note_on_c, 9, 42, 0
14, 22800, Note_on_c, 9, 54, 90
14, 22800, Note_on_c, 9, 42, 90
14, 22800, Note_on_c, 9, 35, 110
14, 22807, Note_on_c, 9, 35, 0
14, 22807, Note_on_c, 9, 42, 0
14, 22807, Note_on_c, 9, 54, 0
14, 22875, Note_on_c, 9, 54, 55
14, 22880, Note_on_c, 9, 42, 75
14, 22882, Note_on_c, 9, 54, 0
14, 22887, Note_on_c, 9, 42, 0
14, 22920, Note_on_c, 9, 54, 90
14, 22920, Note_on_c, 9, 42, 90
14, 22920, Note_on_c, 9, 38, 110
14, 22927, Note_on_c, 9, 38, 0
14, 22927, Note_on_c, 9, 42, 0
14, 22927, Note_on_c, 9, 54, 0
14, 22995, Note_on_c, 9, 54, 55
14, 23000, Note_on_c, 9, 42, 75
14, 23002, Note_on_c, 9, 54, 0
14, 23007, Note_on_c, 9, 42, 0
14, 23040, Note_on_c, 9, 54, 90
14, 23040, Note_on_c, 9, 42, 90
14, 23040, Note_on_c, 9, 35, 110
14, 23047, Note_on_c, 9, 35, 0
14, 23047, Note_on_c, 9, 42, 0
14, 23047, Note_on_c, 9, 54, 0
14, 23115, Note_on_c, 9, 54, 55
14, 23120, Note_on_c, 9, 42, 75
14, 23122, Note_on_c, 9, 54, 0
14, 23127, Note_on_c, 9, 42, 0
14, 23160, Note_on_c, 9, 54, 90
14, 23160, Note_on_c, 9, 42, 90
14, 23160, Note_on_c, 9, 40, 115
14, 23167, Note_on_c, 9, 40, 0
14, 23167, Note_on_c, 9, 42, 0
14, 23167, Note_on_c, 9, 54, 0
14, 23235, Note_on_c, 9, 54, 55
14, 23240, Note_on_c, 9, 42, 75
14, 23242, Note_on_c, 9, 54, 0
14, 23247, Note_on_c, 9, 42, 0
14, 23280, Note_on_c, 9, 54, 90
14, 23280, Note_on_c, 9, 42, 90
14, 23280, Note_on_c, 9, 35, 110
14, 23287, Note_on_c, 9, 35, 0
14, 23287, Note_on_c, 9, 42, 0
14, 23287, Note_on_c, 9, 54, 0
14, 23355, Note_on_c, 9, 54, 55
14, 23360, Note_on_c, 9, 42, 75
14, 23362, Note_on_c, 9, 54, 0
14, 23367, Note_on_c, 9, 42, 0
14, 23400, Note_on_c, 9, 54, 90
14, 23400, Note_on_c, 9, 42, 90
14, 23400, Note_on_c, 9, 38, 110
14, 23407, Note_on_c, 9, 38, 0
14, 23407, Note_on_c, 9, 42, 0
14, 23407, Note_on_c, 9, 54, 0
14, 23475, Note_on_c, 9, 54, 55
14, 23480, Note_on_c, 9, 42, 75
14, 23482, Note_on_c, 9, 54, 0
14, 23487, Note_on_c, 9, 42, 0
14, 23520, Note_on_c, 9, 54, 90
14, 23520, Note_on_c, 9, 42, 90
14, 23520, Note_on_c, 9, 35, 110
14, 23527, Note_on_c, 9, 35, 0
14, 23527, Note_on_c, 9, 42, 0
14, 23527, Note_on_c, 9, 54, 0
14, 23595, Note_on_c, 9, 54, 55
14, 23600, Note_on_c, 9, 42, 75
14, 23602, Note_on_c, 9, 54, 0
14, 23607, Note_on_c, 9, 42, 0
14, 23640, Note_on_c, 9, 54, 90
14, 23640, Note_on_c, 9, 42, 90
14, 23640, Note_on_c, 9, 40, 115
14, 23647, Note_on_c, 9, 40, 0
14, 23647, Note_on_c, 9, 42, 0
14, 23647, Note_on_c, 9, 54, 0
14, 23715, Note_on_c, 9, 54, 55
14, 23720, Note_on_c, 9, 42, 75
14, 23722, Note_on_c, 9, 54, 0
14, 23727, Note_on_c, 9, 42, 0
14, 23760, Note_on_c, 9, 54, 90
14, 23760, Note_on_c, 9, 42, 90
14, 23760, Note_on_c, 9, 35, 110
14, 23767, Note_on_c, 9, 35, 0
14, 23767, Note_on_c, 9, 42, 0
14, 23767, Note_on_c, 9, 54, 0
14, 23835, Note_on_c, 9, 54, 55
14, 23840, Note_on_c, 9, 42, 75
14, 23842, Note_on_c, 9, 54, 0
14, 23847, Note_on_c, 9, 42, 0
14, 23880, Note_on_c, 9, 54, 90
14, 23880, Note_on_c, 9, 42, 90
14, 23880, Note_on_c, 9, 38, 110
14, 23887, Note_on_c, 9, 38, 0
14, 23887, Note_on_c, 9, 42, 0
14, 23887, Note_on_c, 9, 54, 0
14, 23955, Note_on_c, 9, 54, 55
14, 23960, Note_on_c, 9, 42, 75
14, 23962, Note_on_c, 9, 54, 0
14, 23967, Note_on_c, 9, 42, 0
14, 24000, Note_on_c, 9, 54, 90
14, 24000, Note_on_c, 9, 42, 90
14, 24000, Note_on_c, 9, 35, 110
14, 24007, Note_on_c, 9, 35, 0
14, 24007, Note_on_c, 9, 42, 0
14, 24007, Note_on_c, 9, 54, 0
14, 24075, Note_on_c, 9, 54, 55
14, 24080, Note_on_c, 9, 42, 75
14, 24082, Note_on_c, 9, 54, 0
14, 24087, Note_on_c, 9, 42, 0
14, 24120, Note_on_c, 9, 54, 90
14, 24120, Note_on_c, 9, 42, 90
14, 24120, Note_on_c, 9, 40, 115
14, 24127, Note_on_c, 9, 40, 0
14, 24127, Note_on_c, 9, 42, 0
14, 24127, Note_on_c, 9, 54, 0
14, 24195, Note_on_c, 9, 54, 55
14, 24200, Note_on_c, 9, 42, 75
14, 24202, Note_on_c, 9, 54, 0
14, 24207, Note_on_c, 9, 42, 0
14, 24240, Note_on_c, 9, 54, 90
14, 24240, Note_on_c, 9, 42, 90
14, 24240, Note_on_c, 9, 35, 110
14, 24247, Note_on_c, 9, 35, 0
14, 24247, Note_on_c, 9, 42, 0
14, 24247, Note_on_c, 9, 54, 0
14, 24315, Note_on_c, 9, 54, 55
14, 24320, Note_on_c, 9, 42, 75
14, 24322, Note_on_c, 9, 54, 0
14, 24327, Note_on_c, 9, 42, 0
14, 24360, Note_on_c, 9, 54, 90
14, 24360, Note_on_c, 9, 42, 90
14, 24360, Note_on_c, 9, 38, 110
14, 24367, Note_on_c, 9, 38, 0
14, 24367, Note_on_c, 9, 42, 0
14, 24367, Note_on_c, 9, 54, 0
14, 24435, Note_on_c, 9, 54, 55
14, 24440, Note_on_c, 9, 42, 75
14, 24442, Note_on_c, 9, 54, 0
14, 24447, Note_on_c, 9, 42, 0
14, 24480, Note_on_c, 9, 54, 90
14, 24480, Note_on_c, 9, 42, 90
14, 24480, Note_on_c, 9, 35, 110
14, 24487, Note_on_c, 9, 35, 0
14, 24487, Note_on_c, 9, 42, 0
14, 24487, Note_on_c, 9, 54, 0
14, 24555, Note_on_c, 9, 54, 55
14, 24560, Note_on_c, 9, 42, 75
14, 24562, Note_on_c, 9, 54, 0
14, 24567, Note_on_c, 9, 42, 0
14, 24600, Note_on_c, 9, 54, 90
14, 24600, Note_on_c, 9, 42, 90
14, 24600, Note_on_c, 9, 40, 115
14, 24607, Note_on_c, 9, 40, 0
14, 24607, Note_on_c, 9, 42, 0
14, 24607, Note_on_c, 9, 54, 0
14, 24675, Note_on_c, 9, 54, 55
14, 24680, Note_on_c, 9, 42, 75
14, 24682, Note_on_c, 9, 54, 0
14, 24687, Note_on_c, 9, 42, 0
14, 24720, Note_on_c, 9, 54, 90
14, 24720, Note_on_c, 9, 42, 90
14, 24720, Note_on_c, 9, 47, 125
14, 24720, Note_on_c, 9, 35, 110
14, 24727, Note_on_c, 9, 35, 0
14, 24727, Note_on_c, 9, 54, 0
14, 24727, Note_on_c, 9, 42, 0
14, 24727, Note_on_c, 9, 47, 0
14, 24760, Note_on_c, 9, 45, 105
14, 24767, Note_on_c, 9, 45, 0
14, 24795, Note_on_c, 9, 54, 55
14, 24800, Note_on_c, 9, 42, 75
14, 24800, Note_on_c, 9, 43, 125
14, 24802, Note_on_c, 9, 54, 0
14, 24807, Note_on_c, 9, 43, 0
14, 24807, Note_on_c, 9, 42, 0
14, 24840, Note_on_c, 9, 54, 90
14, 24840, Note_on_c, 9, 42, 90
14, 24840, Note_on_c, 9, 41, 125
14, 24847, Note_on_c, 9, 41, 0
14, 24847, Note_on_c, 9, 42, 0
14, 24847, Note_on_c, 9, 54, 0
14, 24915, Note_on_c, 9, 54, 55
14, 24920, Note_on_c, 9, 42, 75
14, 24920, Note_on_c, 9, 40, 125
14, 24922, Note_on_c, 9, 54, 0
14, 24927, Note_on_c, 9, 40, 0
14, 24927, Note_on_c, 9, 42, 0
14, 24960, Note_on_c, 9, 54, 90
14, 24960, Note_on_c, 9, 49, 90
14, 24960, Note_on_c, 9, 35, 110
14, 24967, Note_on_c, 9, 35, 0
14, 24967, Note_on_c, 9, 49, 0
14, 24967, Note_on_c, 9, 54, 0
14, 25035, Note_on_c, 9, 54, 55
14, 25040, Note_on_c, 9, 42, 75
14, 25042, Note_on_c, 9, 54, 0
14, 25047, Note_on_c, 9, 42, 0
14, 25080, Note_on_c, 9, 54, 90
14, 25080, Note_on_c, 9, 42, 90
14, 25080, Note_on_c, 9, 40, 115
14, 25087, Note_on_c, 9, 40, 0
14, 25087, Note_on_c, 9, 42, 0
14, 25087, Note_on_c, 9, 54, 0
14, 25155, Note_on_c, 9, 54, 55
14, 25160, Note_on_c, 9, 42, 75
14, 25162, Note_on_c, 9, 54, 0
14, 25167, Note_on_c, 9, 42, 0
14, 25200, Note_on_c, 9, 54, 90
14, 25200, Note_on_c, 9, 42, 90
14, 25200, Note_on_c, 9, 35, 110
14, 25207, Note_on_c, 9, 35, 0
14, 25207, Note_on_c, 9, 42, 0
14, 25207, Note_on_c, 9, 54, 0
14, 25275, Note_on_c, 9, 54, 55
14, 25280, Note_on_c, 9, 42, 75
14, 25282, Note_on_c, 9, 54, 0
14, 25287, Note_on_c, 9, 42, 0
14, 25320, Note_on_c, 9, 54, 90
14, 25320, Note_on_c, 9, 42, 90
14, 25320, Note_on_c, 9, 38, 110
14, 25327, Note_on_c, 9, 38, 0
14, 25327, Note_on_c, 9, 42, 0
14, 25327, Note_on_c, 9, 54, 0
14, 25395, Note_on_c, 9, 54, 55
14, 25400, Note_on_c, 9, 42, 75
14, 25402, Note_on_c, 9, 54, 0
14, 25407, Note_on_c, 9, 42, 0
14, 25440, Note_on_c, 9, 54, 90
14, 25440, Note_on_c, 9, 42, 90
14, 25440, Note_on_c, 9, 35, 110
14, 25447, Note_on_c, 9, 35, 0
14, 25447, Note_on_c, 9, 42, 0
14, 25447, Note_on_c, 9, 54, 0
14, 25515, Note_on_c, 9, 54, 55
14, 25520, Note_on_c, 9, 42, 75
14, 25522, Note_on_c, 9, 54, 0
14, 25527, Note_on_c, 9, 42, 0
14, 25560, Note_on_c, 9, 54, 90
14, 25560, Note_on_c, 9, 42, 90
14, 25560, Note_on_c, 9, 40, 115
14, 25567, Note_on_c, 9, 40, 0
14, 25567, Note_on_c, 9, 42, 0
14, 25567, Note_on_c, 9, 54, 0
14, 25635, Note_on_c, 9, 54, 55
14, 25640, Note_on_c, 9, 42, 75
14, 25642, Note_on_c, 9, 54, 0
14, 25647, Note_on_c, 9, 42, 0
14, 25680, Note_on_c, 9, 54, 90
14, 25680, Note_on_c, 9, 42, 90
14, 25680, Note_on_c, 9, 35, 110
14, 25687, Note_on_c, 9, 35, 0
14, 25687, Note_on_c, 9, 42, 0
14, 25687, Note_on_c, 9, 54, 0
14, 25755, Note_on_c, 9, 54, 55
14, 25760, Note_on_c, 9, 42, 75
14, 25762, Note_on_c, 9, 54, 0
14, 25767, Note_on_c, 9, 42, 0
14, 25800, Note_on_c, 9, 54, 90
14, 25800, Note_on_c, 9, 42, 90
14, 25800, Note_on_c, 9, 38, 110
14, 25807, Note_on_c, 9, 38, 0
14, 25807, Note_on_c, 9, 42, 0
14, 25807, Note_on_c, 9, 54, 0
14, 25875, Note_on_c, 9, 54, 55
14, 25880, Note_on_c, 9, 42, 75
14, 25882, Note_on_c, 9, 54, 0
14, 25887, Note_on_c, 9, 42, 0
14, 25920, Note_on_c, 9, 54, 90
14, 25920, Note_on_c, 9, 42, 90
14, 25920, Note_on_c, 9, 35, 110
14, 25927, Note_on_c, 9, 35, 0
14, 25927, Note_on_c, 9, 42, 0
14, 25927, Note_on_c, 9, 54, 0
14, 25995, Note_on_c, 9, 54, 55
14, 26000, Note_on_c, 9, 42, 75
14, 26002, Note_on_c, 9, 54, 0
14, 26007, Note_on_c, 9, 42, 0
14, 26040, Note_on_c, 9, 54, 90
14, 26040, Note_on_c, 9, 42, 90
14, 26040, Note_on_c, 9, 40, 115
14, 26047, Note_on_c, 9, 40, 0
14, 26047, Note_on_c, 9, 42, 0
14, 26047, Note_on_c, 9, 54, 0
14, 26115, Note_on_c, 9, 54, 55
14, 26120, Note_on_c, 9, 42, 75
14, 26122, Note_on_c, 9, 54, 0
14, 26127, Note_on_c, 9, 42, 0
14, 26160, Note_on_c, 9, 54, 90
14, 26160, Note_on_c, 9, 42, 90
14, 26160, Note_on_c, 9, 35, 110
14, 26167, Note_on_c, 9, 35, 0
14, 26167, Note_on_c, 9, 42, 0
14, 26167, Note_on_c, 9, 54, 0
14, 26235, Note_on_c, 9, 54, 55
14, 26240, Note_on_c, 9, 42, 75
14, 26242, Note_on_c, 9, 54, 0
14, 26247, Note_on_c, 9, 42, 0
14, 26280, Note_on_c, 9, 54, 90
14, 26280, Note_on_c, 9, 42, 90
14, 26280, Note_on_c, 9, 38, 110
14, 26287, Note_on_c, 9, 38, 0
14, 26287, Note_on_c, 9, 42, 0
14, 26287, Note_on_c, 9, 54, 0
14, 26355, Note_on_c, 9, 54, 55
14, 26360, Note_on_c, 9, 42, 75
14, 26362, Note_on_c, 9, 54, 0
14, 26367, Note_on_c, 9, 42, 0
14, 26400, Note_on_c, 9, 54, 90
14, 26400, Note_on_c, 9, 42, 90
14, 26400, Note_on_c, 9, 35, 110
14, 26407, Note_on_c, 9, 35, 0
14, 26407, Note_on_c, 9, 42, 0
14, 26407, Note_on_c, 9, 54, 0
14, 26475, Note_on_c, 9, 54, 55
14, 26480, Note_on_c, 9, 42, 75
14, 26482, Note_on_c, 9, 54, 0
14, 26487, Note_on_c, 9, 42, 0
14, 26520, Note_on_c, 9, 54, 90
14, 26520, Note_on_c, 9, 42, 90
14, 26520, Note_on_c, 9, 40, 115
14, 26527, Note_on_c, 9, 40, 0
14, 26527, Note_on_c, 9, 42, 0
14, 26527, Note_on_c, 9, 54, 0
14, 26595, Note_on_c, 9, 54, 55
14, 26600, Note_on_c, 9, 42, 75
14, 26602, Note_on_c, 9, 54, 0
14, 26607, Note_on_c, 9, 42, 0
14, 26640, Note_on_c, 9, 54, 90
14, 26640, Note_on_c, 9, 42, 90
14, 26640, Note_on_c, 9, 35, 110
14, 26647, Note_on_c, 9, 35, 0
14, 26647, Note_on_c, 9, 42, 0
14, 26647, Note_on_c, 9, 54, 0
14, 26715, Note_on_c, 9, 54, 55
14, 26720, Note_on_c, 9, 42, 75
14, 26722, Note_on_c, 9, 54, 0
14, 26727, Note_on_c, 9, 42, 0
14, 26760, Note_on_c, 9, 54, 90
14, 26760, Note_on_c, 9, 42, 90
14, 26760, Note_on_c, 9, 38, 110
14, 26767, Note_on_c, 9, 38, 0
14, 26767, Note_on_c, 9, 42, 0
14, 26767, Note_on_c, 9, 54, 0
14, 26835, Note_on_c, 9, 54, 55
14, 26840, Note_on_c, 9, 42, 75
14, 26842, Note_on_c, 9, 54, 0
14, 26847, Note_on_c, 9, 42, 0
14, 26880, Note_on_c, 9, 54, 90
14, 26880, Note_on_c, 9, 42, 90
14, 26880, Note_on_c, 9, 35, 110
14, 26887, Note_on_c, 9, 35, 0
14, 26887, Note_on_c, 9, 42, 0
14, 26887, Note_on_c, 9, 54, 0
14, 26955, Note_on_c, 9, 54, 55
14, 26960, Note_on_c, 9, 42, 75
14, 26962, Note_on_c, 9, 54, 0
14, 26967, Note_on_c, 9, 42, 0
14, 27000, Note_on_c, 9, 54, 90
14, 27000, Note_on_c, 9, 42, 90
14, 27000, Note_on_c, 9, 40, 115
14, 27007, Note_on_c, 9, 40, 0
14, 27007, Note_on_c, 9, 42, 0
14, 27007, Note_on_c, 9, 54, 0
14, 27075, Note_on_c, 9, 54, 55
14, 27080, Note_on_c, 9, 42, 75
14, 27082, Note_on_c, 9, 54, 0
14, 27087, Note_on_c, 9, 42, 0
14, 27120, Note_on_c, 9, 54, 90
14, 27120, Note_on_c, 9, 42, 90
14, 27120, Note_on_c, 9, 35, 110
14, 27127, Note_on_c, 9, 35, 0
14, 27127, Note_on_c, 9, 42, 0
14, 27127, Note_on_c, 9, 54, 0
14, 27195, Note_on_c, 9, 54, 55
14, 27200, Note_on_c, 9, 42, 75
14, 27202, Note_on_c, 9, 54, 0
14, 27207, Note_on_c, 9, 42, 0
14, 27240, Note_on_c, 9, 54, 90
14, 27240, Note_on_c, 9, 42, 90
14, 27240, Note_on_c, 9, 38, 110
14, 27247, Note_on_c, 9, 38, 0
14, 27247, Note_on_c, 9, 42, 0
14, 27247, Note_on_c, 9, 54, 0
14, 27315, Note_on_c, 9, 54, 55
14, 27320, Note_on_c, 9, 42, 75
14, 27322, Note_on_c, 9, 54, 0
14, 27327, Note_on_c, 9, 42, 0
14, 27360, Note_on_c, 9, 54, 90
14, 27360, Note_on_c, 9, 42, 90
14, 27360, Note_on_c, 9, 35, 110
14, 27367, Note_on_c, 9, 35, 0
14, 27367, Note_on_c, 9, 42, 0
14, 27367, Note_on_c, 9, 54, 0
14, 27435, Note_on_c, 9, 54, 55
14, 27440, Note_on_c, 9, 42, 75
14, 27442, Note_on_c, 9, 54, 0
14, 27447, Note_on_c, 9, 42, 0
14, 27480, Note_on_c, 9, 54, 90
14, 27480, Note_on_c, 9, 42, 90
14, 27480, Note_on_c, 9, 40, 115
14, 27487, Note_on_c, 9, 40, 0
14, 27487, Note_on_c, 9, 42, 0
14, 27487, Note_on_c, 9, 54, 0
14, 27555, Note_on_c, 9, 54, 55
14, 27560, Note_on_c, 9, 42, 75
14, 27562, Note_on_c, 9, 54, 0
14, 27567, Note_on_c, 9, 42, 0
14, 27600, Note_on_c, 9, 54, 90
14, 27600, Note_on_c, 9, 42, 90
14, 27600, Note_on_c, 9, 35, 110
14, 27607, Note_on_c, 9, 35, 0
14, 27607, Note_on_c, 9, 42, 0
14, 27607, Note_on_c, 9, 54, 0
14, 27675, Note_on_c, 9, 54, 55
14, 27680, Note_on_c, 9, 42, 75
14, 27682, Note_on_c, 9, 54, 0
14, 27687, Note_on_c, 9, 42, 0
14, 27720, Note_on_c, 9, 54, 90
14, 27720, Note_on_c, 9, 42, 90
14, 27720, Note_on_c, 9, 38, 110
14, 27727, Note_on_c, 9, 38, 0
14, 27727, Note_on_c, 9, 42, 0
14, 27727, Note_on_c, 9, 54, 0
14, 27795, Note_on_c, 9, 54, 55
14, 27800, Note_on_c, 9, 42, 75
14, 27802, Note_on_c, 9, 54, 0
14, 27807, Note_on_c, 9, 42, 0
14, 27840, Note_on_c, 9, 54, 90
14, 27840, Note_on_c, 9, 42, 90
14, 27840, Note_on_c, 9, 35, 110
14, 27847, Note_on_c, 9, 35, 0
14, 27847, Note_on_c, 9, 42, 0
14, 27847, Note_on_c, 9, 54, 0
14, 27915, Note_on_c, 9, 54, 55
14, 27920, Note_on_c, 9, 42, 75
14, 27922, Note_on_c, 9, 54, 0
14, 27927, Note_on_c, 9, 42, 0
14, 27960, Note_on_c, 9, 54, 90
14, 27960, Note_on_c, 9, 42, 90
14, 27960, Note_on_c, 9, 40, 115
14, 27967, Note_on_c, 9, 40, 0
14, 27967, Note_on_c, 9, 42, 0
14, 27967, Note_on_c, 9, 54, 0
14, 28035, Note_on_c, 9, 54, 55
14, 28040, Note_on_c, 9, 42, 75
14, 28042, Note_on_c, 9, 54, 0
14, 28047, Note_on_c, 9, 42, 0
14, 28080, Note_on_c, 9, 54, 90
14, 28080, Note_on_c, 9, 42, 90
14, 28080, Note_on_c, 9, 35, 110
14, 28087, Note_on_c, 9, 35, 0
14, 28087, Note_on_c, 9, 42, 0
14, 28087, Note_on_c, 9, 54, 0
14, 28155, Note_on_c, 9, 54, 55
14, 28160, Note_on_c, 9, 42, 75
14, 28162, Note_on_c, 9, 54, 0
14, 28167, Note_on_c, 9, 42, 0
14, 28200, Note_on_c, 9, 54, 90
14, 28200, Note_on_c, 9, 42, 90
14, 28200, Note_on_c, 9, 38, 110
14, 28207, Note_on_c, 9, 38, 0
14, 28207, Note_on_c, 9, 42, 0
14, 28207, Note_on_c, 9, 54, 0
14, 28275, Note_on_c, 9, 54, 55
14, 28280, Note_on_c, 9, 42, 75
14, 28282, Note_on_c, 9, 54, 0
14, 28287, Note_on_c, 9, 42, 0
14, 28320, Note_on_c, 9, 54, 90
14, 28320, Note_on_c, 9, 42, 90
14, 28320, Note_on_c, 9, 35, 110
14, 28327, Note_on_c, 9, 35, 0
14, 28327, Note_on_c, 9, 42, 0
14, 28327, Note_on_c, 9, 54, 0
14, 28395, Note_on_c, 9, 54, 55
14, 28400, Note_on_c, 9, 42, 75
14, 28402, Note_on_c, 9, 54, 0
14, 28407, Note_on_c, 9, 42, 0
14, 28440, Note_on_c, 9, 54, 90
14, 28440, Note_on_c, 9, 42, 90
14, 28440, Note_on_c, 9, 40, 115
14, 28447, Note_on_c, 9, 40, 0
14, 28447, Note_on_c, 9, 42, 0
14, 28447, Note_on_c, 9, 54, 0
14, 28515, Note_on_c, 9, 54, 55
14, 28520, Note_on_c, 9, 42, 75
14, 28522, Note_on_c, 9, 54, 0
14, 28527, Note_on_c, 9, 42, 0
14, 28560, Note_on_c, 9, 54, 90
14, 28560, Note_on_c, 9, 42, 90
14, 28560, Note_on_c, 9, 35, 110
14, 28567, Note_on_c, 9, 35, 0
14, 28567, Note_on_c, 9, 42, 0
14, 28567, Note_on_c, 9, 54, 0
14, 28635, Note_on_c, 9, 54, 55
14, 28640, Note_on_c, 9, 42, 75
14, 28640, Note_on_c, 9, 38, 120
14, 28642, Note_on_c, 9, 54, 0
14, 28647, Note_on_c, 9, 38, 0
14, 28647, Note_on_c, 9, 42, 0
14, 28680, Note_on_c, 9, 54, 90
14, 28680, Note_on_c, 9, 42, 90
14, 28680, Note_on_c, 9, 38, 110
14, 28687, Note_on_c, 9, 38, 0
14, 28687, Note_on_c, 9, 42, 0
14, 28687, Note_on_c, 9, 54, 0
14, 28755, Note_on_c, 9, 54, 55
14, 28760, Note_on_c, 9, 42, 75
14, 28760, Note_on_c, 9, 38, 120
14, 28762, Note_on_c, 9, 54, 0
14, 28767, Note_on_c, 9, 38, 0
14, 28767, Note_on_c, 9, 42, 0
14, 28800, Note_on_c, 9, 54, 90
14, 28800, Note_on_c, 9, 49, 90
14, 28800, Note_on_c, 9, 35, 110
14, 28807, Note_on_c, 9, 35, 0
14, 28807, Note_on_c, 9, 49, 0
14, 28807, Note_on_c, 9, 54, 0
14, 28875, Note_on_c, 9, 54, 55
14, 28880, Note_on_c, 9, 42, 75
14, 28882, Note_on_c, 9, 54, 0
14, 28887, Note_on_c, 9, 42, 0
14, 28920, Note_on_c, 9, 54, 90
14, 28920, Note_on_c, 9, 42, 90
14, 28920, Note_on_c, 9, 40, 115
14, 28927, Note_on_c, 9, 40, 0
14, 28927, Note_on_c, 9, 42, 0
14, 28927, Note_on_c, 9, 54, 0
14, 28995, Note_on_c, 9, 54, 55
14, 29000, Note_on_c, 9, 42, 75
14, 29002, Note_on_c, 9, 54, 0
14, 29007, Note_on_c, 9, 42, 0
14, 29040, Note_on_c, 9, 54, 90
14, 29040, Note_on_c, 9, 42, 90
14, 29040, Note_on_c, 9, 35, 110
14, 29047, Note_on_c, 9, 35, 0
14, 29047, Note_on_c, 9, 42, 0
14, 29047, Note_on_c, 9, 54, 0
14, 29115, Note_on_c, 9, 54, 55
14, 29120, Note_on_c, 9, 42, 75
14, 29122, Note_on_c, 9, 54, 0
14, 29127, Note_on_c, 9, 42, 0
14, 29160, Note_on_c, 9, 54, 90
14, 29160, Note_on_c, 9, 42, 90
14, 29160, Note_on_c, 9, 38, 110
14, 29167, Note_on_c, 9, 38, 0
14, 29167, Note_on_c, 9, 42, 0
14, 29167, Note_on_c, 9, 54, 0
14, 29235, Note_on_c, 9, 54, 55
14, 29240, Note_on_c, 9, 42, 75
14, 29242, Note_on_c, 9, 54, 0
14, 29247, Note_on_c, 9, 42, 0
14, 29280, Note_on_c, 9, 54, 90
14, 29280, Note_on_c, 9, 42, 90
14, 29280, Note_on_c, 9, 35, 110
14, 29287, Note_on_c, 9, 35, 0
14, 29287, Note_on_c, 9, 42, 0
14, 29287, Note_on_c, 9, 54, 0
14, 29355, Note_on_c, 9, 54, 55
14, 29360, Note_on_c, 9, 42, 75
14, 29362, Note_on_c, 9, 54, 0
14, 29367, Note_on_c, 9, 42, 0
14, 29400, Note_on_c, 9, 54, 90
14, 29400, Note_on_c, 9, 42, 90
14, 29400, Note_on_c, 9, 40, 115
14, 29407, Note_on_c, 9, 40, 0
14, 29407, Note_on_c, 9, 42, 0
14, 29407, Note_on_c, 9, 54, 0
14, 29475, Note_on_c, 9, 54, 55
14, 29480, Note_on_c, 9, 42, 75
14, 29482, Note_on_c, 9, 54, 0
14, 29487, Note_on_c, 9, 42, 0
14, 29520, Note_on_c, 9, 54, 90
14, 29520, Note_on_c, 9, 42, 90
14, 29520, Note_on_c, 9, 35, 110
14, 29527, Note_on_c, 9, 35, 0
14, 29527, Note_on_c, 9, 42, 0
14, 29527, Note_on_c, 9, 54, 0
14, 29595, Note_on_c, 9, 54, 55
14, 29600, Note_on_c, 9, 42, 75
14, 29602, Note_on_c, 9, 54, 0
14, 29607, Note_on_c, 9, 42, 0
14, 29640, Note_on_c, 9, 54, 90
14, 29640, Note_on_c, 9, 42, 90
14, 29640, Note_on_c, 9, 38, 110
14, 29647, Note_on_c, 9, 38, 0
14, 29647, Note_on_c, 9, 42, 0
14, 29647, Note_on_c, 9, 54, 0
14, 29715, Note_on_c, 9, 54, 55
14, 29720, Note_on_c, 9, 42, 75
14, 29722, Note_on_c, 9, 54, 0
14, 29727, Note_on_c, 9, 42, 0
14, 29760, Note_on_c, 9, 54, 90
14, 29760, Note_on_c, 9, 42, 90
14, 29760, Note_on_c, 9, 35, 110
14, 29767, Note_on_c, 9, 35, 0
14, 29767, Note_on_c, 9, 42, 0
14, 29767, Note_on_c, 9, 54, 0
14, 29835, Note_on_c, 9, 54, 55
14, 29840, Note_on_c, 9, 42, 75
14, 29842, Note_on_c, 9, 54, 0
14, 29847, Note_on_c, 9, 42, 0
14, 29880, Note_on_c, 9, 54, 90
14, 29880, Note_on_c, 9, 42, 90
14, 29880, Note_on_c, 9, 40, 115
14, 29887, Note_on_c, 9, 40, 0
14, 29887, Note_on_c, 9, 42, 0
14, 29887, Note_on_c, 9, 54, 0
14, 29955, Note_on_c, 9, 54, 55
14, 29960, Note_on_c, 9, 42, 75
14, 29962, Note_on_c, 9, 54, 0
14, 29967, Note_on_c, 9, 42, 0
14, 30000, Note_on_c, 9, 54, 90
14, 30000, Note_on_c, 9, 42, 90
14, 30000, Note_on_c, 9, 35, 110
14, 30007, Note_on_c, 9, 35, 0
14, 30007, Note_on_c, 9, 42, 0
14, 30007, Note_on_c, 9, 54, 0
14, 30075, Note_on_c, 9, 54, 55
14, 30080, Note_on_c, 9, 42, 75
14, 30082, Note_on_c, 9, 54, 0
14, 30087, Note_on_c, 9, 42, 0
14, 30120, Note_on_c, 9, 54, 90
14, 30120, Note_on_c, 9, 42, 90
14, 30120, Note_on_c, 9, 38, 110
14, 30127, Note_on_c, 9, 38, 0
14, 30127, Note_on_c, 9, 42, 0
14, 30127, Note_on_c, 9, 54, 0
14, 30195, Note_on_c, 9, 54, 55
14, 30200, Note_on_c, 9, 42, 75
14, 30202, Note_on_c, 9, 54, 0
14, 30207, Note_on_c, 9, 42, 0
14, 30240, Note_on_c, 9, 54, 90
14, 30240, Note_on_c, 9, 42, 90
14, 30240, Note_on_c, 9, 35, 110
14, 30247, Note_on_c, 9, 35, 0
14, 30247, Note_on_c, 9, 42, 0
14, 30247, Note_on_c, 9, 54, 0
14, 30315, Note_on_c, 9, 54, 55
14, 30320, Note_on_c, 9, 42, 75
14, 30322, Note_on_c, 9, 54, 0
14, 30327, Note_on_c, 9, 42, 0
14, 30360, Note_on_c, 9, 54, 90
14, 30360, Note_on_c, 9, 42, 90
14, 30360, Note_on_c, 9, 40, 115
14, 30367, Note_on_c, 9, 40, 0
14, 30367, Note_on_c, 9, 42, 0
14, 30367, Note_on_c, 9, 54, 0
14, 30435, Note_on_c, 9, 54, 55
14, 30440, Note_on_c, 9, 42, 75
14, 30442, Note_on_c, 9, 54, 0
14, 30447, Note_on_c, 9, 42, 0
14, 30480, Note_on_c, 9, 54, 90
14, 30480, Note_on_c, 9, 42, 90
14, 30480, Note_on_c, 9, 35, 110
14, 30487, Note_on_c, 9, 35, 0
14, 30487, Note_on_c, 9, 42, 0
14, 30487, Note_on_c, 9, 54, 0
14, 30555, Note_on_c, 9, 54, 55
14, 30560, Note_on_c, 9, 42, 75
14, 30562, Note_on_c, 9, 54, 0
14, 30567, Note_on_c, 9, 42, 0
14, 30600, Note_on_c, 9, 54, 90
14, 30600, Note_on_c, 9, 42, 90
14, 30600, Note_on_c, 9, 38, 110
14, 30607, Note_on_c, 9, 38, 0
14, 30607, Note_on_c, 9, 42, 0
14, 30607, Note_on_c, 9, 54, 0
14, 30675, Note_on_c, 9, 54, 55
14, 30680, Note_on_c, 9, 42, 75
14, 30682, Note_on_c, 9, 54, 0
14, 30687, Note_on_c, 9, 42, 0
14, 30720, Note_on_c, 9, 54, 90
14, 30720, Note_on_c, 9, 42, 90
14, 30720, Note_on_c, 9, 35, 110
14, 30727, Note_on_c, 9, 35, 0
14, 30727, Note_on_c, 9, 42, 0
14, 30727, Note_on_c, 9, 54, 0
14, 30795, Note_on_c, 9, 54, 55
14, 30800, Note_on_c, 9, 42, 75
14, 30802, Note_on_c, 9, 54, 0
14, 30807, Note_on_c, 9, 42, 0
14, 30840, Note_on_c, 9, 54, 90
14, 30840, Note_on_c, 9, 42, 90
14, 30840, Note_on_c, 9, 40, 115
14, 30847, Note_on_c, 9, 40, 0
14, 30847, Note_on_c, 9, 42, 0
14, 30847, Note_on_c, 9, 54, 0
14, 30915, Note_on_c, 9, 54, 55
14, 30920, Note_on_c, 9, 42, 75
14, 30922, Note_on_c, 9, 54, 0
14, 30927, Note_on_c, 9, 42, 0
14, 30960, Note_on_c, 9, 54, 90
14, 30960, Note_on_c, 9, 42, 90
14, 30960, Note_on_c, 9, 35, 110
14, 30967, Note_on_c, 9, 35, 0
14, 30967, Note_on_c, 9, 42, 0
14, 30967, Note_on_c, 9, 54, 0
14, 31035, Note_on_c, 9, 54, 55
14, 31040, Note_on_c, 9, 42, 75
14, 31042, Note_on_c, 9, 54, 0
14, 31047, Note_on_c, 9, 42, 0
14, 31080, Note_on_c, 9, 54, 90
14, 31080, Note_on_c, 9, 42, 90
14, 31080, Note_on_c, 9, 38, 110
14, 31087, Note_on_c, 9, 38, 0
14, 31087, Note_on_c, 9, 42, 0
14, 31087, Note_on_c, 9, 54, 0
14, 31155, Note_on_c, 9, 54, 55
14, 31160, Note_on_c, 9, 42, 75
14, 31162, Note_on_c, 9, 54, 0
14, 31167, Note_on_c, 9, 42, 0
14, 31200, Note_on_c, 9, 54, 90
14, 31200, Note_on_c, 9, 42, 90
14, 31200, Note_on_c, 9, 35, 110
14, 31207, Note_on_c, 9, 35, 0
14, 31207, Note_on_c, 9, 42, 0
14, 31207, Note_on_c, 9, 54, 0
14, 31275, Note_on_c, 9, 54, 55
14, 31280, Note_on_c, 9, 42, 75
14, 31282, Note_on_c, 9, 54, 0
14, 31287, Note_on_c, 9, 42, 0
14, 31320, Note_on_c, 9, 54, 90
14, 31320, Note_on_c, 9, 42, 90
14, 31320, Note_on_c, 9, 40, 115
14, 31327, Note_on_c, 9, 40, 0
14, 31327, Note_on_c, 9, 42, 0
14, 31327, Note_on_c, 9, 54, 0
14, 31395, Note_on_c, 9, 54, 55
14, 31400, Note_on_c, 9, 42, 75
14, 31402, Note_on_c, 9, 54, 0
14, 31407, Note_on_c, 9, 42, 0
14, 31440, Note_on_c, 9, 54, 90
14, 31440, Note_on_c, 9, 42, 90
14, 31440, Note_on_c, 9, 35, 110
14, 31447, Note_on_c, 9, 35, 0
14, 31447, Note_on_c, 9, 42, 0
14, 31447, Note_on_c, 9, 54, 0
14, 31515, Note_on_c, 9, 54, 55
14, 31520, Note_on_c, 9, 42, 75
14, 31522, Note_on_c, 9, 54, 0
14, 31527, Note_on_c, 9, 42, 0
14, 31560, Note_on_c, 9, 54, 90
14, 31560, Note_on_c, 9, 42, 90
14, 31560, Note_on_c, 9, 38, 110
14, 31567, Note_on_c, 9, 38, 0
14, 31567, Note_on_c, 9, 42, 0
14, 31567, Note_on_c, 9, 54, 0
14, 31635, Note_on_c, 9, 54, 55
14, 31640, Note_on_c, 9, 42, 75
14, 31642, Note_on_c, 9, 54, 0
14, 31647, Note_on_c, 9, 42, 0
14, 31680, Note_on_c, 9, 54, 90
14, 31680, Note_on_c, 9, 42, 90
14, 31680, Note_on_c, 9, 35, 110
14, 31687, Note_on_c, 9, 35, 0
14, 31687, Note_on_c, 9, 42, 0
14, 31687, Note_on_c, 9, 54, 0
14, 31755, Note_on_c, 9, 54, 55
14, 31760, Note_on_c, 9, 42, 75
14, 31762, Note_on_c, 9, 54, 0
14, 31767, Note_on_c, 9, 42, 0
14, 31800, Note_on_c, 9, 54, 90
14, 31800, Note_on_c, 9, 42, 90
14, 31800, Note_on_c, 9, 40, 115
14, 31807, Note_on_c, 9, 40, 0
14, 31807, Note_on_c, 9, 42, 0
14, 31807, Note_on_c, 9, 54, 0
14, 31875, Note_on_c, 9, 54, 55
14, 31880, Note_on_c, 9, 42, 75
14, 31882, Note_on_c, 9, 54, 0
14, 31887, Note_on_c, 9, 42, 0
14, 31920, Note_on_c, 9, 54, 90
14, 31920, Note_on_c, 9, 42, 90
14, 31920, Note_on_c, 9, 35, 110
14, 31927, Note_on_c, 9, 35, 0
14, 31927, Note_on_c, 9, 42, 0
14, 31927, Note_on_c, 9, 54, 0
14, 31995, Note_on_c, 9, 54, 55
14, 32000, Note_on_c, 9, 42, 75
14, 32002, Note_on_c, 9, 54, 0
14, 32007, Note_on_c, 9, 42, 0
14, 32040, Note_on_c, 9, 54, 90
14, 32040, Note_on_c, 9, 42, 90
14, 32040, Note_on_c, 9, 38, 110
14, 32047, Note_on_c, 9, 38, 0
14, 32047, Note_on_c, 9, 42, 0
14, 32047, Note_on_c, 9, 54, 0
14, 32115, Note_on_c, 9, 54, 55
14, 32120, Note_on_c, 9, 42, 75
14, 32122, Note_on_c, 9, 54, 0
14, 32127, Note_on_c, 9, 42, 0
14, 32160, Note_on_c, 9, 54, 90
14, 32160, Note_on_c, 9, 42, 90
14, 32160, Note_on_c, 9, 35, 110
14, 32167, Note_on_c, 9, 35, 0
14, 32167, Note_on_c, 9, 42, 0
14, 32167, Note_on_c, 9, 54, 0
14, 32235, Note_on_c, 9, 54, 55
14, 32240, Note_on_c, 9, 42, 75
14, 32242, Note_on_c, 9, 54, 0
14, 32247, Note_on_c, 9, 42, 0
14, 32280, Note_on_c, 9, 54, 90
14, 32280, Note_on_c, 9, 42, 90
14, 32280, Note_on_c, 9, 40, 115
14, 32287, Note_on_c, 9, 40, 0
14, 32287, Note_on_c, 9, 42, 0
14, 32287, Note_on_c, 9, 54, 0
14, 32355, Note_on_c, 9, 54, 55
14, 32360, Note_on_c, 9, 42, 75
14, 32362, Note_on_c, 9, 54, 0
14, 32367, Note_on_c, 9, 42, 0
14, 32400, Note_on_c, 9, 54, 90
14, 32400, Note_on_c, 9, 42, 90
14, 32400, Note_on_c, 9, 43, 115
14, 32400, Note_on_c, 9, 38, 115
14, 32400, Note_on_c, 9, 35, 110
14, 32407, Note_on_c, 9, 35, 0
14, 32407, Note_on_c, 9, 43, 0
14, 32407, Note_on_c, 9, 54, 0
14, 32407, Note_on_c, 9, 42, 0
14, 32407, Note_on_c, 9, 38, 0
14, 32440, Note_on_c, 9, 43, 95
14, 32440, Note_on_c, 9, 38, 95
14, 32447, Note_on_c, 9, 38, 0
14, 32447, Note_on_c, 9, 43, 0
14, 32475, Note_on_c, 9, 54, 55
14, 32480, Note_on_c, 9, 42, 75
14, 32480, Note_on_c, 9, 43, 100
14, 32480, Note_on_c, 9, 38, 100
14, 32482, Note_on_c, 9, 54, 0
14, 32487, Note_on_c, 9, 42, 0
14, 32487, Note_on_c, 9, 43, 0
14, 32487, Note_on_c, 9, 38, 0
14, 32520, Note_on_c, 9, 54, 90
14, 32520, Note_on_c, 9, 42, 90
14, 32520, Note_on_c, 9, 41, 105
14, 32520, Note_on_c, 9, 38, 105
14, 32527, Note_on_c, 9, 38, 0
14, 32527, Note_on_c, 9, 54, 0
14, 32527, Note_on_c, 9, 42, 0
14, 32527, Note_on_c, 9, 41, 0
14, 32560, Note_on_c, 9, 41, 110
14, 32560, Note_on_c, 9, 38, 110
14, 32567, Note_on_c, 9, 38, 0
14, 32567, Note_on_c, 9, 41, 0
14, 32595, Note_on_c, 9, 54, 55
14, 32600, Note_on_c, 9, 42, 75
14, 32600, Note_on_c, 9, 41, 115
14, 32600, Note_on_c, 9, 38, 115
14, 32602, Note_on_c, 9, 54, 0
14, 32607, Note_on_c, 9, 42, 0
14, 32607, Note_on_c, 9, 41, 0
14, 32607, Note_on_c, 9, 38, 0
14, 32640, Note_on_c, 9, 54, 90
14, 32640, Note_on_c, 9, 49, 90
14, 32640, Note_on_c, 9, 35, 110
14, 32647, Note_on_c, 9, 35, 0
14, 32647, Note_on_c, 9, 49, 0
14, 32647, Note_on_c, 9, 54, 0
14, 32715, Note_on_c, 9, 54, 55
14, 32720, Note_on_c, 9, 42, 75
14, 32722, Note_on_c, 9, 54, 0
14, 32727, Note_on_c, 9, 42, 0
14, 32760, Note_on_c, 9, 54, 90
14, 32760, Note_on_c, 9, 42, 90
14, 32760, Note_on_c, 9, 40, 115
14, 32767, Note_on_c, 9, 40, 0
14, 32767, Note_on_c, 9, 42, 0
14, 32767, Note_on_c, 9, 54, 0
14, 32835, Note_on_c, 9, 54, 55
14, 32840, Note_on_c, 9, 42, 75
14, 32842, Note_on_c, 9, 54, 0
14, 32847, Note_on_c, 9, 42, 0
14, 32880, Note_on_c, 9, 54, 90
14, 32880, Note_on_c, 9, 42, 90
14, 32880, Note_on_c, 9, 35, 110
14, 32887, Note_on_c, 9, 35, 0
14, 32887, Note_on_c, 9, 42, 0
14, 32887, Note_on_c, 9, 54, 0
14, 32955, Note_on_c, 9, 54, 55
14, 32960, Note_on_c, 9, 42, 75
14, 32962, Note_on_c, 9, 54, 0
14, 32967, Note_on_c, 9, 42, 0
14, 33000, Note_on_c, 9, 54, 90
14, 33000, Note_on_c, 9, 42, 90
14, 33000, Note_on_c, 9, 38, 110
14, 33007, Note_on_c, 9, 38, 0
14, 33007, Note_on_c, 9, 42, 0
14, 33007, Note_on_c, 9, 54, 0
14, 33075, Note_on_c, 9, 54, 55
14, 33080, Note_on_c, 9, 42, 75
14, 33082, Note_on_c, 9, 54, 0
14, 33087, Note_on_c, 9, 42, 0
14, 33120, Note_on_c, 9, 54, 90
14, 33120, Note_on_c, 9, 42, 90
14, 33120, Note_on_c, 9, 35, 110
14, 33127, Note_on_c, 9, 35, 0
14, 33127, Note_on_c, 9, 42, 0
14, 33127, Note_on_c, 9, 54, 0
14, 33195, Note_on_c, 9, 54, 55
14, 33200, Note_on_c, 9, 42, 75
14, 33202, Note_on_c, 9, 54, 0
14, 33207, Note_on_c, 9, 42, 0
14, 33240, Note_on_c, 9, 54, 90
14, 33240, Note_on_c, 9, 42, 90
14, 33240, Note_on_c, 9, 40, 115
14, 33247, Note_on_c, 9, 40, 0
14, 33247, Note_on_c, 9, 42, 0
14, 33247, Note_on_c, 9, 54, 0
14, 33315, Note_on_c, 9, 54, 55
14, 33320, Note_on_c, 9, 42, 75
14, 33322, Note_on_c, 9, 54, 0
14, 33327, Note_on_c, 9, 42, 0
14, 33360, Note_on_c, 9, 54, 90
14, 33360, Note_on_c, 9, 42, 90
14, 33360, Note_on_c, 9, 35, 110
14, 33367, Note_on_c, 9, 35, 0
14, 33367, Note_on_c, 9, 42, 0
14, 33367, Note_on_c, 9, 54, 0
14, 33435, Note_on_c, 9, 54, 55
14, 33440, Note_on_c, 9, 42, 75
14, 33442, Note_on_c, 9, 54, 0
14, 33447, Note_on_c, 9, 42, 0
14, 33480, Note_on_c, 9, 54, 90
14, 33480, Note_on_c, 9, 42, 90
14, 33480, Note_on_c, 9, 38, 110
14, 33487, Note_on_c, 9, 38, 0
14, 33487, Note_on_c, 9, 42, 0
14, 33487, Note_on_c, 9, 54, 0
14, 33555, Note_on_c, 9, 54, 55
14, 33560, Note_on_c, 9, 42, 75
14, 33562, Note_on_c, 9, 54, 0
14, 33567, Note_on_c, 9, 42, 0
14, 33600, Note_on_c, 9, 54, 90
14, 33600, Note_on_c, 9, 42, 90
14, 33600, Note_on_c, 9, 35, 110
14, 33607, Note_on_c, 9, 35, 0
14, 33607, Note_on_c, 9, 42, 0
14, 33607, Note_on_c, 9, 54, 0
14, 33675, Note_on_c, 9, 54, 55
14, 33680, Note_on_c, 9, 42, 75
14, 33682, Note_on_c, 9, 54, 0
14, 33687, Note_on_c, 9, 42, 0
14, 33720, Note_on_c, 9, 54, 90
14, 33720, Note_on_c, 9, 42, 90
14, 33720, Note_on_c, 9, 40, 115
14, 33727, Note_on_c, 9, 40, 0
14, 33727, Note_on_c, 9, 42, 0
14, 33727, Note_on_c, 9, 54, 0
14, 33795, Note_on_c, 9, 54, 55
14, 33800, Note_on_c, 9, 42, 75
14, 33802, Note_on_c, 9, 54, 0
14, 33807, Note_on_c, 9, 42, 0
14, 33840, Note_on_c, 9, 54, 90
14, 33840, Note_on_c, 9, 42, 90
14, 33840, Note_on_c, 9, 35, 110
14, 33847, Note_on_c, 9, 35, 0
14, 33847, Note_on_c, 9, 42, 0
14, 33847, Note_on_c, 9, 54, 0
14, 33915, Note_on_c, 9, 54, 55
14, 33920, Note_on_c, 9, 42, 75
14, 33922, Note_on_c, 9, 54, 0
14, 33927, Note_on_c, 9, 42, 0
14, 33960, Note_on_c, 9, 54, 90
14, 33960, Note_on_c, 9, 42, 90
14, 33960, Note_on_c, 9, 38, 110
14, 33967, Note_on_c, 9, 38, 0
14, 33967, Note_on_c, 9, 42, 0
14, 33967, Note_on_c, 9, 54, 0
14, 34035, Note_on_c, 9, 54, 55
14, 34040, Note_on_c, 9, 42, 75
14, 34042, Note_on_c, 9, 54, 0
14, 34047, Note_on_c, 9, 42, 0
14, 34080, Note_on_c, 9, 54, 90
14, 34080, Note_on_c, 9, 42, 90
14, 34080, Note_on_c, 9, 35, 110
14, 34087, Note_on_c, 9, 35, 0
14, 34087, Note_on_c, 9, 42, 0
14, 34087, Note_on_c, 9, 54, 0
14, 34155, Note_on_c, 9, 54, 55
14, 34160, Note_on_c, 9, 42, 75
14, 34162, Note_on_c, 9, 54, 0
14, 34167, Note_on_c, 9, 42, 0
14, 34200, Note_on_c, 9, 54, 90
14, 34200, Note_on_c, 9, 42, 90
14, 34200, Note_on_c, 9, 40, 115
14, 34207, Note_on_c, 9, 40, 0
14, 34207, Note_on_c, 9, 42, 0
14, 34207, Note_on_c, 9, 54, 0
14, 34275, Note_on_c, 9, 54, 55
14, 34280, Note_on_c, 9, 42, 75
14, 34282, Note_on_c, 9, 54, 0
14, 34287, Note_on_c, 9, 42, 0
14, 34320, Note_on_c, 9, 54, 90
14, 34320, Note_on_c, 9, 42, 90
14, 34320, Note_on_c, 9, 35, 110
14, 34327, Note_on_c, 9, 35, 0
14, 34327, Note_on_c, 9, 42, 0
14, 34327, Note_on_c, 9, 54, 0
14, 34395, Note_on_c, 9, 54, 55
14, 34400, Note_on_c, 9, 42, 75
14, 34402, Note_on_c, 9, 54, 0
14, 34407, Note_on_c, 9, 42, 0
14, 34440, Note_on_c, 9, 54, 90
14, 34440, Note_on_c, 9, 42, 90
14, 34440, Note_on_c, 9, 38, 110
14, 34447, Note_on_c, 9, 38, 0
14, 34447, Note_on_c, 9, 42, 0
14, 34447, Note_on_c, 9, 54, 0
14, 34515, Note_on_c, 9, 54, 55
14, 34520, Note_on_c, 9, 42, 75
14, 34522, Note_on_c, 9, 54, 0
14, 34527, Note_on_c, 9, 42, 0
14, 34552, Note_on_c, 9, 38, 110
14, 34553, Note_on_c, 9, 38, 0
14, 34560, Note_on_c, 9, 54, 90
14, 34560, Note_on_c, 9, 42, 90
14, 34560, Note_on_c, 9, 38, 110
14, 34560, Note_on_c, 9, 35, 110
14, 34567, Note_on_c, 9, 35, 0
14, 34567, Note_on_c, 9, 54, 0
14, 34567, Note_on_c, 9, 42, 0
14, 34567, Note_on_c, 9, 38, 0
14, 35040, Note_on_c, 9, 38, 114
14, 35040, Note_on_c, 9, 38, 114
14, 35047, Note_on_c, 9, 38, 0
14, 35047, Note_on_c, 9, 38, 0
14, 35080, Note_on_c, 9, 38, 114
14, 35080, Note_on_c, 9, 38, 114
14, 35087, Note_on_c, 9, 38, 0
14, 35087, Note_on_c, 9, 38, 0
14, 35120, Note_on_c, 9, 38, 114
14, 35120, Note_on_c, 9, 38, 114
14, 35127, Note_on_c, 9, 38, 0
14, 35127, Note_on_c, 9, 38, 0
14, 35160, Note_on_c, 9, 38, 114
14, 35160, Note_on_c, 9, 40, 118
14, 35167, Note_on_c, 9, 40, 0
14, 35167, Note_on_c, 9, 38, 0
14, 35200, Note_on_c, 9, 38, 114
14, 35200, Note_on_c, 9, 38, 114
14, 35207, Note_on_c, 9, 38, 0
14, 35207, Note_on_c, 9, 38, 0
14, 35240, Note_on_c, 9, 38, 114
14, 35240, Note_on_c, 9, 38, 114
14, 35247, Note_on_c, 9, 38, 0
14, 35247, Note_on_c, 9, 38, 0
14, 35280, Note_on_c, 9, 38, 114
14, 35280, Note_on_c, 9, 38, 114
14, 35287, Note_on_c, 9, 38, 0
14, 35287, Note_on_c, 9, 38, 0
14, 35320, Note_on_c, 9, 38, 100
14, 35320, Note_on_c, 9, 38, 100
14, 35327, Note_on_c, 9, 38, 0
14, 35327, Note_on_c, 9, 38, 0
14, 35360, Note_on_c, 9, 38, 111
14, 35360, Note_on_c, 9, 38, 111
14, 35367, Note_on_c, 9, 38, 0
14, 35367, Note_on_c, 9, 38, 0
14, 35400, Note_on_c, 9, 38, 102
14, 35400, Note_on_c, 9, 38, 102
14, 35407, Note_on_c, 9, 38, 0
14, 35407, Note_on_c, 9, 38, 0
14, 35440, Note_on_c, 9, 38, 102
14, 35440, Note_on_c, 9, 38, 102
14, 35447, Note_on_c, 9, 38, 0
14, 35447, Note_on_c, 9, 38, 0
14, 35480, Note_on_c, 9, 38, 114
14, 35480, Note_on_c, 9, 38, 114
14, 35487, Note_on_c, 9, 38, 0
14, 35487, Note_on_c, 9, 38, 0
14, 35520, Note_on_c, 9, 54, 90
14, 35520, Note_on_c, 9, 49, 90
14, 35520, Note_on_c, 9, 35, 110
14, 35527, Note_on_c, 9, 35, 0
14, 35527, Note_on_c, 9, 49, 0
14, 35527, Note_on_c, 9, 54, 0
14, 35595, Note_on_c, 9, 54, 55
14, 35600, Note_on_c, 9, 42, 75
14, 35602, Note_on_c, 9, 54, 0
14, 35607, Note_on_c, 9, 42, 0
14, 35640, Note_on_c, 9, 54, 90
14, 35640, Note_on_c, 9, 42, 90
14, 35640, Note_on_c, 9, 40, 115
14, 35647, Note_on_c, 9, 40, 0
14, 35647, Note_on_c, 9, 42, 0
14, 35647, Note_on_c, 9, 54, 0
14, 35715, Note_on_c, 9, 54, 55
14, 35720, Note_on_c, 9, 42, 75
14, 35722, Note_on_c, 9, 54, 0
14, 35727, Note_on_c, 9, 42, 0
14, 35760, Note_on_c, 9, 54, 90
14, 35760, Note_on_c, 9, 42, 90
14, 35760, Note_on_c, 9, 35, 110
14, 35767, Note_on_c, 9, 35, 0
14, 35767, Note_on_c, 9, 42, 0
14, 35767, Note_on_c, 9, 54, 0
14, 35835, Note_on_c, 9, 54, 55
14, 35840, Note_on_c, 9, 42, 75
14, 35842, Note_on_c, 9, 54, 0
14, 35847, Note_on_c, 9, 42, 0
14, 35880, Note_on_c, 9, 54, 90
14, 35880, Note_on_c, 9, 42, 90
14, 35880, Note_on_c, 9, 38, 110
14, 35887, Note_on_c, 9, 38, 0
14, 35887, Note_on_c, 9, 42, 0
14, 35887, Note_on_c, 9, 54, 0
14, 35955, Note_on_c, 9, 54, 55
14, 35960, Note_on_c, 9, 42, 75
14, 35962, Note_on_c, 9, 54, 0
14, 35967, Note_on_c, 9, 42, 0
14, 36000, Note_on_c, 9, 54, 90
14, 36000, Note_on_c, 9, 42, 90
14, 36000, Note_on_c, 9, 35, 110
14, 36007, Note_on_c, 9, 35, 0
14, 36007, Note_on_c, 9, 42, 0
14, 36007, Note_on_c, 9, 54, 0
14, 36075, Note_on_c, 9, 54, 55
14, 36080, Note_on_c, 9, 42, 75
14, 36082, Note_on_c, 9, 54, 0
14, 36087, Note_on_c, 9, 42, 0
14, 36120, Note_on_c, 9, 54, 90
14, 36120, Note_on_c, 9, 42, 90
14, 36120, Note_on_c, 9, 40, 115
14, 36127, Note_on_c, 9, 40, 0
14, 36127, Note_on_c, 9, 42, 0
14, 36127, Note_on_c, 9, 54, 0
14, 36195, Note_on_c, 9, 54, 55
14, 36200, Note_on_c, 9, 42, 75
14, 36202, Note_on_c, 9, 54, 0
14, 36207, Note_on_c, 9, 42, 0
14, 36240, Note_on_c, 9, 54, 90
14, 36240, Note_on_c, 9, 42, 90
14, 36240, Note_on_c, 9, 35, 110
14, 36247, Note_on_c, 9, 35, 0
14, 36247, Note_on_c, 9, 42, 0
14, 36247, Note_on_c, 9, 54, 0
14, 36315, Note_on_c, 9, 54, 55
14, 36320, Note_on_c, 9, 42, 75
14, 36322, Note_on_c, 9, 54, 0
14, 36327, Note_on_c, 9, 42, 0
14, 36360, Note_on_c, 9, 54, 90
14, 36360, Note_on_c, 9, 42, 90
14, 36360, Note_on_c, 9, 38, 110
14, 36367, Note_on_c, 9, 38, 0
14, 36367, Note_on_c, 9, 42, 0
14, 36367, Note_on_c, 9, 54, 0
14, 36435, Note_on_c, 9, 54, 55
14, 36440, Note_on_c, 9, 42, 75
14, 36442, Note_on_c, 9, 54, 0
14, 36447, Note_on_c, 9, 42, 0
14, 36480, Note_on_c, 9, 54, 90
14, 36480, Note_on_c, 9, 42, 90
14, 36480, Note_on_c, 9, 35, 110
14, 36487, Note_on_c, 9, 35, 0
14, 36487, Note_on_c, 9, 42, 0
14, 36487, Note_on_c, 9, 54, 0
14, 36555, Note_on_c, 9, 54, 55
14, 36560, Note_on_c, 9, 42, 75
14, 36562, Note_on_c, 9, 54, 0
14, 36567, Note_on_c, 9, 42, 0
14, 36600, Note_on_c, 9, 54, 90
14, 36600, Note_on_c, 9, 42, 90
14, 36600, Note_on_c, 9, 40, 115
14, 36607, Note_on_c, 9, 40, 0
14, 36607, Note_on_c, 9, 42, 0
14, 36607, Note_on_c, 9, 54, 0
14, 36675, Note_on_c, 9, 54, 55
14, 36680, Note_on_c, 9, 42, 75
14, 36682, Note_on_c, 9, 54, 0
14, 36687, Note_on_c, 9, 42, 0
14, 36720, Note_on_c, 9, 54, 90
14, 36720, Note_on_c, 9, 42, 90
14, 36720, Note_on_c, 9, 35, 110
14, 36727, Note_on_c, 9, 35, 0
14, 36727, Note_on_c, 9, 42, 0
14, 36727, Note_on_c, 9, 54, 0
14, 36795, Note_on_c, 9, 54, 55
14, 36800, Note_on_c, 9, 42, 75
14, 36802, Note_on_c, 9, 54, 0
14, 36807, Note_on_c, 9, 42, 0
14, 36840, Note_on_c, 9, 54, 90
14, 36840, Note_on_c, 9, 42, 90
14, 36840, Note_on_c, 9, 38, 110
14, 36847, Note_on_c, 9, 38, 0
14, 36847, Note_on_c, 9, 42, 0
14, 36847, Note_on_c, 9, 54, 0
14, 36915, Note_on_c, 9, 54, 55
14, 36920, Note_on_c, 9, 42, 75
14, 36922, Note_on_c, 9, 54, 0
14, 36927, Note_on_c, 9, 42, 0
14, 36960, Note_on_c, 9, 54, 90
14, 36960, Note_on_c, 9, 42, 90
14, 36960, Note_on_c, 9, 35, 110
14, 36967, Note_on_c, 9, 35, 0
14, 36967, Note_on_c, 9, 42, 0
14, 36967, Note_on_c, 9, 54, 0
14, 37035, Note_on_c, 9, 54, 55
14, 37040, Note_on_c, 9, 42, 75
14, 37042, Note_on_c, 9, 54, 0
14, 37047, Note_on_c, 9, 42, 0
14, 37080, Note_on_c, 9, 54, 90
14, 37080, Note_on_c, 9, 42, 90
14, 37080, Note_on_c, 9, 40, 115
14, 37087, Note_on_c, 9, 40, 0
14, 37087, Note_on_c, 9, 42, 0
14, 37087, Note_on_c, 9, 54, 0
14, 37155, Note_on_c, 9, 54, 55
14, 37160, Note_on_c, 9, 42, 75
14, 37162, Note_on_c, 9, 54, 0
14, 37167, Note_on_c, 9, 42, 0
14, 37200, Note_on_c, 9, 54, 90
14, 37200, Note_on_c, 9, 42, 90
14, 37200, Note_on_c, 9, 35, 110
14, 37207, Note_on_c, 9, 35, 0
14, 37207, Note_on_c, 9, 42, 0
14, 37207, Note_on_c, 9, 54, 0
14, 37275, Note_on_c, 9, 54, 55
14, 37280, Note_on_c, 9, 42, 75
14, 37282, Note_on_c, 9, 54, 0
14, 37287, Note_on_c, 9, 42, 0
14, 37320, Note_on_c, 9, 54, 90
14, 37320, Note_on_c, 9, 42, 90
14, 37320, Note_on_c, 9, 38, 110
14, 37327, Note_on_c, 9, 38, 0
14, 37327, Note_on_c, 9, 42, 0
14, 37327, Note_on_c, 9, 54, 0
14, 37395, Note_on_c, 9, 54, 55
14, 37400, Note_on_c, 9, 42, 75
14, 37402, Note_on_c, 9, 54, 0
14, 37407, Note_on_c, 9, 42, 0
14, 37440, Note_on_c, 9, 54, 90
14, 37440, Note_on_c, 9, 42, 90
14, 37440, Note_on_c, 9, 35, 110
14, 37447, Note_on_c, 9, 35, 0
14, 37447, Note_on_c, 9, 42, 0
14, 37447, Note_on_c, 9, 54, 0
14, 37515, Note_on_c, 9, 54, 55
14, 37520, Note_on_c, 9, 42, 75
14, 37522, Note_on_c, 9, 54, 0
14, 37527, Note_on_c, 9, 42, 0
14, 37560, Note_on_c, 9, 54, 90
14, 37560, Note_on_c, 9, 42, 90
14, 37560, Note_on_c, 9, 40, 115
14, 37567, Note_on_c, 9, 40, 0
14, 37567, Note_on_c, 9, 42, 0
14, 37567, Note_on_c, 9, 54, 0
14, 37635, Note_on_c, 9, 54, 55
14, 37640, Note_on_c, 9, 42, 75
14, 37642, Note_on_c, 9, 54, 0
14, 37647, Note_on_c, 9, 42, 0
14, 37680, Note_on_c, 9, 54, 90
14, 37680, Note_on_c, 9, 42, 90
14, 37680, Note_on_c, 9, 35, 110
14, 37687, Note_on_c, 9, 35, 0
14, 37687, Note_on_c, 9, 42, 0
14, 37687, Note_on_c, 9, 54, 0
14, 37755, Note_on_c, 9, 54, 55
14, 37760, Note_on_c, 9, 42, 75
14, 37762, Note_on_c, 9, 54, 0
14, 37767, Note_on_c, 9, 42, 0
14, 37800, Note_on_c, 9, 54, 90
14, 37800, Note_on_c, 9, 42, 90
14, 37800, Note_on_c, 9, 38, 110
14, 37807, Note_on_c, 9, 38, 0
14, 37807, Note_on_c, 9, 42, 0
14, 37807, Note_on_c, 9, 54, 0
14, 37875, Note_on_c, 9, 54, 55
14, 37880, Note_on_c, 9, 42, 75
14, 37882, Note_on_c, 9, 54, 0
14, 37887, Note_on_c, 9, 42, 0
14, 37920, Note_on_c, 9, 54, 90
14, 37920, Note_on_c, 9, 42, 90
14, 37920, Note_on_c, 9, 35, 110
14, 37927, Note_on_c, 9, 35, 0
14, 37927, Note_on_c, 9, 42, 0
14, 37927, Note_on_c, 9, 54, 0
14, 37995, Note_on_c, 9, 54, 55
14, 38000, Note_on_c, 9, 42, 75
14, 38002, Note_on_c, 9, 54, 0
14, 38007, Note_on_c, 9, 42, 0
14, 38040, Note_on_c, 9, 54, 90
14, 38040, Note_on_c, 9, 42, 90
14, 38040, Note_on_c, 9, 40, 115
14, 38047, Note_on_c, 9, 40, 0
14, 38047, Note_on_c, 9, 42, 0
14, 38047, Note_on_c, 9, 54, 0
14, 38115, Note_on_c, 9, 54, 55
14, 38120, Note_on_c, 9, 42, 75
14, 38122, Note_on_c, 9, 54, 0
14, 38127, Note_on_c, 9, 42, 0
14, 38160, Note_on_c, 9, 54, 90
14, 38160, Note_on_c, 9, 42, 90
14, 38160, Note_on_c, 9, 35, 110
14, 38167, Note_on_c, 9, 35, 0
14, 38167, Note_on_c, 9, 42, 0
14, 38167, Note_on_c, 9, 54, 0
14, 38235, Note_on_c, 9, 54, 55
14, 38240, Note_on_c, 9, 42, 75
14, 38242, Note_on_c, 9, 54, 0
14, 38247, Note_on_c, 9, 42, 0
14, 38280, Note_on_c, 9, 54, 90
14, 38280, Note_on_c, 9, 42, 90
14, 38280, Note_on_c, 9, 38, 110
14, 38287, Note_on_c, 9, 38, 0
14, 38287, Note_on_c, 9, 42, 0
14, 38287, Note_on_c, 9, 54, 0
14, 38355, Note_on_c, 9, 54, 55
14, 38360, Note_on_c, 9, 42, 75
14, 38362, Note_on_c, 9, 54, 0
14, 38367, Note_on_c, 9, 42, 0
14, 38400, Note_on_c, 9, 54, 90
14, 38400, Note_on_c, 9, 42, 90
14, 38400, Note_on_c, 9, 35, 110
14, 38407, Note_on_c, 9, 35, 0
14, 38407, Note_on_c, 9, 42, 0
14, 38407, Note_on_c, 9, 54, 0
14, 38475, Note_on_c, 9, 54, 55
14, 38480, Note_on_c, 9, 42, 75
14, 38482, Note_on_c, 9, 54, 0
14, 38487, Note_on_c, 9, 42, 0
14, 38520, Note_on_c, 9, 54, 90
14, 38520, Note_on_c, 9, 42, 90
14, 38520, Note_on_c, 9, 40, 115
14, 38527, Note_on_c, 9, 40, 0
14, 38527, Note_on_c, 9, 42, 0
14, 38527, Note_on_c, 9, 54, 0
14, 38595, Note_on_c, 9, 54, 55
14, 38600, Note_on_c, 9, 42, 75
14, 38602, Note_on_c, 9, 54, 0
14, 38607, Note_on_c, 9, 42, 0
14, 38640, Note_on_c, 9, 54, 90
14, 38640, Note_on_c, 9, 42, 90
14, 38640, Note_on_c, 9, 35, 110
14, 38647, Note_on_c, 9, 35, 0
14, 38647, Note_on_c, 9, 42, 0
14, 38647, Note_on_c, 9, 54, 0
14, 38715, Note_on_c, 9, 54, 55
14, 38720, Note_on_c, 9, 42, 75
14, 38722, Note_on_c, 9, 54, 0
14, 38727, Note_on_c, 9, 42, 0
14, 38760, Note_on_c, 9, 54, 90
14, 38760, Note_on_c, 9, 42, 90
14, 38760, Note_on_c, 9, 38, 110
14, 38767, Note_on_c, 9, 38, 0
14, 38767, Note_on_c, 9, 42, 0
14, 38767, Note_on_c, 9, 54, 0
14, 38835, Note_on_c, 9, 54, 55
14, 38840, Note_on_c, 9, 42, 75
14, 38842, Note_on_c, 9, 54, 0
14, 38847, Note_on_c, 9, 42, 0
14, 38880, Note_on_c, 9, 54, 90
14, 38880, Note_on_c, 9, 42, 90
14, 38880, Note_on_c, 9, 35, 110
14, 38887, Note_on_c, 9, 35, 0
14, 38887, Note_on_c, 9, 42, 0
14, 38887, Note_on_c, 9, 54, 0
14, 38955, Note_on_c, 9, 54, 55
14, 38960, Note_on_c, 9, 42, 75
14, 38962, Note_on_c, 9, 54, 0
14, 38967, Note_on_c, 9, 42, 0
14, 39000, Note_on_c, 9, 54, 90
14, 39000, Note_on_c, 9, 42, 90
14, 39000, Note_on_c, 9, 40, 115
14, 39007, Note_on_c, 9, 40, 0
14, 39007, Note_on_c, 9, 42, 0
14, 39007, Note_on_c, 9, 54, 0
14, 39075, Note_on_c, 9, 54, 55
14, 39080, Note_on_c, 9, 42, 75
14, 39082, Note_on_c, 9, 54, 0
14, 39087, Note_on_c, 9, 42, 0
14, 39120, Note_on_c, 9, 54, 90
14, 39120, Note_on_c, 9, 42, 90
14, 39120, Note_on_c, 9, 47, 125
14, 39120, Note_on_c, 9, 35, 110
14, 39127, Note_on_c, 9, 35, 0
14, 39127, Note_on_c, 9, 54, 0
14, 39127, Note_on_c, 9, 42, 0
14, 39127, Note_on_c, 9, 47, 0
14, 39160, Note_on_c, 9, 45, 105
14, 39167, Note_on_c, 9, 45, 0
14, 39195, Note_on_c, 9, 54, 55
14, 39200, Note_on_c, 9, 42, 75
14, 39200, Note_on_c, 9, 43, 125
14, 39202, Note_on_c, 9, 54, 0
14, 39207, Note_on_c, 9, 43, 0
14, 39207, Note_on_c, 9, 42, 0
14, 39240, Note_on_c, 9, 54, 90
14, 39240, Note_on_c, 9, 42, 90
14, 39240, Note_on_c, 9, 41, 125
14, 39247, Note_on_c, 9, 41, 0
14, 39247, Note_on_c, 9, 42, 0
14, 39247, Note_on_c, 9, 54, 0
14, 39315, Note_on_c, 9, 54, 55
14, 39320, Note_on_c, 9, 42, 75
14, 39320, Note_on_c, 9, 40, 125
14, 39322, Note_on_c, 9, 54, 0
14, 39327, Note_on_c, 9, 40, 0
14, 39327, Note_on_c, 9, 42, 0
14, 39360, Note_on_c, 9, 54, 90
14, 39360, Note_on_c, 9, 49, 90
14, 39360, Note_on_c, 9, 35, 110
14, 39367, Note_on_c, 9, 35, 0
14, 39367, Note_on_c, 9, 49, 0
14, 39367, Note_on_c, 9, 54, 0
14, 39435, Note_on_c, 9, 54, 55
14, 39440, Note_on_c, 9, 42, 75
14, 39442, Note_on_c, 9, 54, 0
14, 39447, Note_on_c, 9, 42, 0
14, 39480, Note_on_c, 9, 54, 90
14, 39480, Note_on_c, 9, 42, 90
14, 39480, Note_on_c, 9, 40, 115
14, 39487, Note_on_c, 9, 40, 0
14, 39487, Note_on_c, 9, 42, 0
14, 39487, Note_on_c, 9, 54, 0
14, 39555, Note_on_c, 9, 54, 55
14, 39560, Note_on_c, 9, 42, 75
14, 39562, Note_on_c, 9, 54, 0
14, 39567, Note_on_c, 9, 42, 0
14, 39600, Note_on_c, 9, 54, 90
14, 39600, Note_on_c, 9, 42, 90
14, 39600, Note_on_c, 9, 35, 110
14, 39607, Note_on_c, 9, 35, 0
14, 39607, Note_on_c, 9, 42, 0
14, 39607, Note_on_c, 9, 54, 0
14, 39675, Note_on_c, 9, 54, 55
14, 39680, Note_on_c, 9, 42, 75
14, 39682, Note_on_c, 9, 54, 0
14, 39687, Note_on_c, 9, 42, 0
14, 39720, Note_on_c, 9, 54, 90
14, 39720, Note_on_c, 9, 42, 90
14, 39720, Note_on_c, 9, 38, 110
14, 39727, Note_on_c, 9, 38, 0
14, 39727, Note_on_c, 9, 42, 0
14, 39727, Note_on_c, 9, 54, 0
14, 39795, Note_on_c, 9, 54, 55
14, 39800, Note_on_c, 9, 42, 75
14, 39802, Note_on_c, 9, 54, 0
14, 39807, Note_on_c, 9, 42, 0
14, 39840, Note_on_c, 9, 54, 90
14, 39840, Note_on_c, 9, 42, 90
14, 39840, Note_on_c, 9, 35, 110
14, 39847, Note_on_c, 9, 35, 0
14, 39847, Note_on_c, 9, 42, 0
14, 39847, Note_on_c, 9, 54, 0
14, 39915, Note_on_c, 9, 54, 55
14, 39920, Note_on_c, 9, 42, 75
14, 39922, Note_on_c, 9, 54, 0
14, 39927, Note_on_c, 9, 42, 0
14, 39960, Note_on_c, 9, 54, 90
14, 39960, Note_on_c, 9, 42, 90
14, 39960, Note_on_c, 9, 40, 115
14, 39967, Note_on_c, 9, 40, 0
14, 39967, Note_on_c, 9, 42, 0
14, 39967, Note_on_c, 9, 54, 0
14, 40035, Note_on_c, 9, 54, 55
14, 40040, Note_on_c, 9, 42, 75
14, 40042, Note_on_c, 9, 54, 0
14, 40047, Note_on_c, 9, 42, 0
14, 40080, Note_on_c, 9, 54, 90
14, 40080, Note_on_c, 9, 42, 90
14, 40080, Note_on_c, 9, 35, 110
14, 40087, Note_on_c, 9, 35, 0
14, 40087, Note_on_c, 9, 42, 0
14, 40087, Note_on_c, 9, 54, 0
14, 40155, Note_on_c, 9, 54, 55
14, 40160, Note_on_c, 9, 42, 75
14, 40162, Note_on_c, 9, 54, 0
14, 40167, Note_on_c, 9, 42, 0
14, 40200, Note_on_c, 9, 54, 90
14, 40200, Note_on_c, 9, 42, 90
14, 40200, Note_on_c, 9, 38, 110
14, 40207, Note_on_c, 9, 38, 0
14, 40207, Note_on_c, 9, 42, 0
14, 40207, Note_on_c, 9, 54, 0
14, 40275, Note_on_c, 9, 54, 55
14, 40280, Note_on_c, 9, 42, 75
14, 40282, Note_on_c, 9, 54, 0
14, 40287, Note_on_c, 9, 42, 0
14, 40320, Note_on_c, 9, 54, 90
14, 40320, Note_on_c, 9, 42, 90
14, 40320, Note_on_c, 9, 35, 110
14, 40327, Note_on_c, 9, 35, 0
14, 40327, Note_on_c, 9, 42, 0
14, 40327, Note_on_c, 9, 54, 0
14, 40395, Note_on_c, 9, 54, 55
14, 40400, Note_on_c, 9, 42, 75
14, 40402, Note_on_c, 9, 54, 0
14, 40407, Note_on_c, 9, 42, 0
14, 40440, Note_on_c, 9, 54, 90
14, 40440, Note_on_c, 9, 42, 90
14, 40440, Note_on_c, 9, 40, 115
14, 40447, Note_on_c, 9, 40, 0
14, 40447, Note_on_c, 9, 42, 0
14, 40447, Note_on_c, 9, 54, 0
14, 40515, Note_on_c, 9, 54, 55
14, 40520, Note_on_c, 9, 42, 75
14, 40522, Note_on_c, 9, 54, 0
14, 40527, Note_on_c, 9, 42, 0
14, 40560, Note_on_c, 9, 54, 90
14, 40560, Note_on_c, 9, 42, 90
14, 40560, Note_on_c, 9, 35, 110
14, 40567, Note_on_c, 9, 35, 0
14, 40567, Note_on_c, 9, 42, 0
14, 40567, Note_on_c, 9, 54, 0
14, 40635, Note_on_c, 9, 54, 55
14, 40640, Note_on_c, 9, 42, 75
14, 40642, Note_on_c, 9, 54, 0
14, 40647, Note_on_c, 9, 42, 0
14, 40680, Note_on_c, 9, 54, 90
14, 40680, Note_on_c, 9, 42, 90
14, 40680, Note_on_c, 9, 38, 110
14, 40687, Note_on_c, 9, 38, 0
14, 40687, Note_on_c, 9, 42, 0
14, 40687, Note_on_c, 9, 54, 0
14, 40755, Note_on_c, 9, 54, 55
14, 40760, Note_on_c, 9, 42, 75
14, 40762, Note_on_c, 9, 54, 0
14, 40767, Note_on_c, 9, 42, 0
14, 40800, Note_on_c, 9, 54, 90
14, 40800, Note_on_c, 9, 42, 90
14, 40800, Note_on_c, 9, 35, 110
14, 40807, Note_on_c, 9, 35, 0
14, 40807, Note_on_c, 9, 42, 0
14, 40807, Note_on_c, 9, 54, 0
14, 40875, Note_on_c, 9, 54, 55
14, 40880, Note_on_c, 9, 42, 75
14, 40882, Note_on_c, 9, 54, 0
14, 40887, Note_on_c, 9, 42, 0
14, 40920, Note_on_c, 9, 54, 90
14, 40920, Note_on_c, 9, 42, 90
14, 40920, Note_on_c, 9, 40, 115
14, 40927, Note_on_c, 9, 40, 0
14, 40927, Note_on_c, 9, 42, 0
14, 40927, Note_on_c, 9, 54, 0
14, 40995, Note_on_c, 9, 54, 55
14, 41000, Note_on_c, 9, 42, 75
14, 41002, Note_on_c, 9, 54, 0
14, 41007, Note_on_c, 9, 42, 0
14, 41040, Note_on_c, 9, 54, 90
14, 41040, Note_on_c, 9, 42, 90
14, 41040, Note_on_c, 9, 35, 110
14, 41047, Note_on_c, 9, 35, 0
14, 41047, Note_on_c, 9, 42, 0
14, 41047, Note_on_c, 9, 54, 0
14, 41115, Note_on_c, 9, 54, 55
14, 41120, Note_on_c, 9, 42, 75
14, 41122, Note_on_c, 9, 54, 0
14, 41127, Note_on_c, 9, 42, 0
14, 41160, Note_on_c, 9, 54, 90
14, 41160, Note_on_c, 9, 42, 90
14, 41160, Note_on_c, 9, 38, 110
14, 41167, Note_on_c, 9, 38, 0
14, 41167, Note_on_c, 9, 42, 0
14, 41167, Note_on_c, 9, 54, 0
14, 41235, Note_on_c, 9, 54, 55
14, 41240, Note_on_c, 9, 42, 75
14, 41242, Note_on_c, 9, 54, 0
14, 41247, Note_on_c, 9, 42, 0
14, 41280, Note_on_c, 9, 54, 90
14, 41280, Note_on_c, 9, 42, 90
14, 41280, Note_on_c, 9, 35, 110
14, 41287, Note_on_c, 9, 35, 0
14, 41287, Note_on_c, 9, 42, 0
14, 41287, Note_on_c, 9, 54, 0
14, 41355, Note_on_c, 9, 54, 55
14, 41360, Note_on_c, 9, 42, 75
14, 41362, Note_on_c, 9, 54, 0
14, 41367, Note_on_c, 9, 42, 0
14, 41400, Note_on_c, 9, 54, 90
14, 41400, Note_on_c, 9, 42, 90
14, 41400, Note_on_c, 9, 40, 115
14, 41407, Note_on_c, 9, 40, 0
14, 41407, Note_on_c, 9, 42, 0
14, 41407, Note_on_c, 9, 54, 0
14, 41475, Note_on_c, 9, 54, 55
14, 41480, Note_on_c, 9, 42, 75
14, 41482, Note_on_c, 9, 54, 0
14, 41487, Note_on_c, 9, 42, 0
14, 41520, Note_on_c, 9, 54, 90
14, 41520, Note_on_c, 9, 42, 90
14, 41520, Note_on_c, 9, 35, 110
14, 41527, Note_on_c, 9, 35, 0
14, 41527, Note_on_c, 9, 42, 0
14, 41527, Note_on_c, 9, 54, 0
14, 41595, Note_on_c, 9, 54, 55
14, 41600, Note_on_c, 9, 42, 75
14, 41602, Note_on_c, 9, 54, 0
14, 41607, Note_on_c, 9, 42, 0
14, 41640, Note_on_c, 9, 54, 90
14, 41640, Note_on_c, 9, 42, 90
14, 41640, Note_on_c, 9, 38, 110
14, 41647, Note_on_c, 9, 38, 0
14, 41647, Note_on_c, 9, 42, 0
14, 41647, Note_on_c, 9, 54, 0
14, 41715, Note_on_c, 9, 54, 55
14, 41720, Note_on_c, 9, 42, 75
14, 41722, Note_on_c, 9, 54, 0
14, 41727, Note_on_c, 9, 42, 0
14, 41760, Note_on_c, 9, 54, 90
14, 41760, Note_on_c, 9, 42, 90
14, 41760, Note_on_c, 9, 35, 110
14, 41767, Note_on_c, 9, 35, 0
14, 41767, Note_on_c, 9, 42, 0
14, 41767, Note_on_c, 9, 54, 0
14, 41835, Note_on_c, 9, 54, 55
14, 41840, Note_on_c, 9, 42, 75
14, 41842, Note_on_c, 9, 54, 0
14, 41847, Note_on_c, 9, 42, 0
14, 41880, Note_on_c, 9, 54, 90
14, 41880, Note_on_c, 9, 42, 90
14, 41880, Note_on_c, 9, 40, 115
14, 41887, Note_on_c, 9, 40, 0
14, 41887, Note_on_c, 9, 42, 0
14, 41887, Note_on_c, 9, 54, 0
14, 41955, Note_on_c, 9, 54, 55
14, 41960, Note_on_c, 9, 42, 75
14, 41962, Note_on_c, 9, 54, 0
14, 41967, Note_on_c, 9, 42, 0
14, 42000, Note_on_c, 9, 54, 90
14, 42000, Note_on_c, 9, 42, 90
14, 42000, Note_on_c, 9, 35, 110
14, 42007, Note_on_c, 9, 35, 0
14, 42007, Note_on_c, 9, 42, 0
14, 42007, Note_on_c, 9, 54, 0
14, 42075, Note_on_c, 9, 54, 55
14, 42080, Note_on_c, 9, 42, 75
14, 42082, Note_on_c, 9, 54, 0
14, 42087, Note_on_c, 9, 42, 0
14, 42120, Note_on_c, 9, 54, 90
14, 42120, Note_on_c, 9, 42, 90
14, 42120, Note_on_c, 9, 38, 110
14, 42127, Note_on_c, 9, 38, 0
14, 42127, Note_on_c, 9, 42, 0
14, 42127, Note_on_c, 9, 54, 0
14, 42195, Note_on_c, 9, 54, 55
14, 42200, Note_on_c, 9, 42, 75
14, 42202, Note_on_c, 9, 54, 0
14, 42207, Note_on_c, 9, 42, 0
14, 42240, Note_on_c, 9, 54, 90
14, 42240, Note_on_c, 9, 42, 90
14, 42240, Note_on_c, 9, 35, 110
14, 42247, Note_on_c, 9, 35, 0
14, 42247, Note_on_c, 9, 42, 0
14, 42247, Note_on_c, 9, 54, 0
14, 42315, Note_on_c, 9, 54, 55
14, 42320, Note_on_c, 9, 42, 75
14, 42322, Note_on_c, 9, 54, 0
14, 42327, Note_on_c, 9, 42, 0
14, 42360, Note_on_c, 9, 54, 90
14, 42360, Note_on_c, 9, 42, 90
14, 42360, Note_on_c, 9, 40, 115
14, 42367, Note_on_c, 9, 40, 0
14, 42367, Note_on_c, 9, 42, 0
14, 42367, Note_on_c, 9, 54, 0
14, 42435, Note_on_c, 9, 54, 55
14, 42440, Note_on_c, 9, 42, 75
14, 42442, Note_on_c, 9, 54, 0
14, 42447, Note_on_c, 9, 42, 0
14, 42480, Note_on_c, 9, 54, 90
14, 42480, Note_on_c, 9, 42, 90
14, 42480, Note_on_c, 9, 35, 110
14, 42487, Note_on_c, 9, 35, 0
14, 42487, Note_on_c, 9, 42, 0
14, 42487, Note_on_c, 9, 54, 0
14, 42555, Note_on_c, 9, 54, 55
14, 42560, Note_on_c, 9, 42, 75
14, 42562, Note_on_c, 9, 54, 0
14, 42567, Note_on_c, 9, 42, 0
14, 42600, Note_on_c, 9, 54, 90
14, 42600, Note_on_c, 9, 42, 90
14, 42600, Note_on_c, 9, 38, 110
14, 42607, Note_on_c, 9, 38, 0
14, 42607, Note_on_c, 9, 42, 0
14, 42607, Note_on_c, 9, 54, 0
14, 42675, Note_on_c, 9, 54, 55
14, 42680, Note_on_c, 9, 42, 75
14, 42682, Note_on_c, 9, 54, 0
14, 42687, Note_on_c, 9, 42, 0
14, 42720, Note_on_c, 9, 54, 90
14, 42720, Note_on_c, 9, 42, 90
14, 42720, Note_on_c, 9, 35, 110
14, 42727, Note_on_c, 9, 35, 0
14, 42727, Note_on_c, 9, 42, 0
14, 42727, Note_on_c, 9, 54, 0
14, 42795, Note_on_c, 9, 54, 55
14, 42800, Note_on_c, 9, 42, 75
14, 42800, Note_on_c, 9, 45, 125
14, 42802, Note_on_c, 9, 54, 0
14, 42807, Note_on_c, 9, 45, 0
14, 42807, Note_on_c, 9, 42, 0
14, 42840, Note_on_c, 9, 54, 90
14, 42840, Note_on_c, 9, 42, 90
14, 42840, Note_on_c, 9, 45, 110
14, 42847, Note_on_c, 9, 45, 0
14, 42847, Note_on_c, 9, 42, 0
14, 42847, Note_on_c, 9, 54, 0
14, 42915, Note_on_c, 9, 54, 55
14, 42920, Note_on_c, 9, 42, 75
14, 42920, Note_on_c, 9, 45, 125
14, 42922, Note_on_c, 9, 54, 0
14, 42927, Note_on_c, 9, 45, 0
14, 42927, Note_on_c, 9, 42, 0
14, 42960, Note_on_c, 9, 54, 90
14, 42960, Note_on_c, 9, 42, 90
14, 42960, Note_on_c, 9, 35, 110
14, 42967, Note_on_c, 9, 35, 0
14, 42967, Note_on_c, 9, 42, 0
14, 42967, Note_on_c, 9, 54, 0
14, 43035, Note_on_c, 9, 54, 55
14, 43040, Note_on_c, 9, 42, 75
14, 43040, Note_on_c, 9, 43, 125
14, 43042, Note_on_c, 9, 54, 0
14, 43047, Note_on_c, 9, 43, 0
14, 43047, Note_on_c, 9, 42, 0
14, 43080, Note_on_c, 9, 54, 90
14, 43080, Note_on_c, 9, 42, 90
14, 43080, Note_on_c, 9, 43, 110
14, 43087, Note_on_c, 9, 43, 0
14, 43087, Note_on_c, 9, 42, 0
14, 43087, Note_on_c, 9, 54, 0
14, 43155, Note_on_c, 9, 54, 55
14, 43160, Note_on_c, 9, 42, 75
14, 43160, Note_on_c, 9, 43, 125
14, 43162, Note_on_c, 9, 54, 0
14, 43167, Note_on_c, 9, 43, 0
14, 43167, Note_on_c, 9, 42, 0
14, 43200, Note_on_c, 9, 54, 90
14, 43200, Note_on_c, 9, 49, 90
14, 43200, Note_on_c, 9, 35, 110
14, 43207, Note_on_c, 9, 35, 0
14, 43207, Note_on_c, 9, 49, 0
14, 43207, Note_on_c, 9, 54, 0
14, 43275, Note_on_c, 9, 54, 55
14, 43280, Note_on_c, 9, 42, 75
14, 43282, Note_on_c, 9, 54, 0
14, 43287, Note_on_c, 9, 42, 0
14, 43320, Note_on_c, 9, 54, 90
14, 43320, Note_on_c, 9, 42, 90
14, 43320, Note_on_c, 9, 40, 115
14, 43327, Note_on_c, 9, 40, 0
14, 43327, Note_on_c, 9, 42, 0
14, 43327, Note_on_c, 9, 54, 0
14, 43395, Note_on_c, 9, 54, 55
14, 43400, Note_on_c, 9, 42, 75
14, 43402, Note_on_c, 9, 54, 0
14, 43407, Note_on_c, 9, 42, 0
14, 43440, Note_on_c, 9, 54, 90
14, 43440, Note_on_c, 9, 42, 90
14, 43440, Note_on_c, 9, 35, 110
14, 43447, Note_on_c, 9, 35, 0
14, 43447, Note_on_c, 9, 42, 0
14, 43447, Note_on_c, 9, 54, 0
14, 43515, Note_on_c, 9, 54, 55
14, 43520, Note_on_c, 9, 42, 75
14, 43522, Note_on_c, 9, 54, 0
14, 43527, Note_on_c, 9, 42, 0
14, 43560, Note_on_c, 9, 54, 90
14, 43560, Note_on_c, 9, 42, 90
14, 43560, Note_on_c, 9, 38, 110
14, 43567, Note_on_c, 9, 38, 0
14, 43567, Note_on_c, 9, 42, 0
14, 43567, Note_on_c, 9, 54, 0
14, 43635, Note_on_c, 9, 54, 55
14, 43640, Note_on_c, 9, 42, 75
14, 43642, Note_on_c, 9, 54, 0
14, 43647, Note_on_c, 9, 42, 0
14, 43680, Note_on_c, 9, 54, 90
14, 43680, Note_on_c, 9, 42, 90
14, 43680, Note_on_c, 9, 35, 110
14, 43687, Note_on_c, 9, 35, 0
14, 43687, Note_on_c, 9, 42, 0
14, 43687, Note_on_c, 9, 54, 0
14, 43755, Note_on_c, 9, 54, 55
14, 43760, Note_on_c, 9, 42, 75
14, 43762, Note_on_c, 9, 54, 0
14, 43767, Note_on_c, 9, 42, 0
14, 43800, Note_on_c, 9, 54, 90
14, 43800, Note_on_c, 9, 42, 90
14, 43800, Note_on_c, 9, 40, 115
14, 43807, Note_on_c, 9, 40, 0
14, 43807, Note_on_c, 9, 42, 0
14, 43807, Note_on_c, 9, 54, 0
14, 43875, Note_on_c, 9, 54, 55
14, 43880, Note_on_c, 9, 42, 75
14, 43882, Note_on_c, 9, 54, 0
14, 43887, Note_on_c, 9, 42, 0
14, 43920, Note_on_c, 9, 54, 90
14, 43920, Note_on_c, 9, 42, 90
14, 43920, Note_on_c, 9, 35, 110
14, 43927, Note_on_c, 9, 35, 0
14, 43927, Note_on_c, 9, 42, 0
14, 43927, Note_on_c, 9, 54, 0
14, 43995, Note_on_c, 9, 54, 55
14, 44000, Note_on_c, 9, 42, 75
14, 44002, Note_on_c, 9, 54, 0
14, 44007, Note_on_c, 9, 42, 0
14, 44040, Note_on_c, 9, 54, 90
14, 44040, Note_on_c, 9, 42, 90
14, 44040, Note_on_c, 9, 38, 110
14, 44047, Note_on_c, 9, 38, 0
14, 44047, Note_on_c, 9, 42, 0
14, 44047, Note_on_c, 9, 54, 0
14, 44115, Note_on_c, 9, 54, 55
14, 44120, Note_on_c, 9, 42, 75
14, 44122, Note_on_c, 9, 54, 0
14, 44127, Note_on_c, 9, 42, 0
14, 44160, Note_on_c, 9, 54, 90
14, 44160, Note_on_c, 9, 42, 90
14, 44160, Note_on_c, 9, 35, 110
14, 44167, Note_on_c, 9, 35, 0
14, 44167, Note_on_c, 9, 42, 0
14, 44167, Note_on_c, 9, 54, 0
14, 44235, Note_on_c, 9, 54, 55
14, 44240, Note_on_c, 9, 42, 75
14, 44242, Note_on_c, 9, 54, 0
14, 44247, Note_on_c, 9, 42, 0
14, 44280, Note_on_c, 9, 54, 90
14, 44280, Note_on_c, 9, 42, 90
14, 44280, Note_on_c, 9, 40, 115
14, 44287, Note_on_c, 9, 40, 0
14, 44287, Note_on_c, 9, 42, 0
14, 44287, Note_on_c, 9, 54, 0
14, 44355, Note_on_c, 9, 54, 55
14, 44360, Note_on_c, 9, 42, 75
14, 44362, Note_on_c, 9, 54, 0
14, 44367, Note_on_c, 9, 42, 0
14, 44400, Note_on_c, 9, 54, 90
14, 44400, Note_on_c, 9, 42, 90
14, 44400, Note_on_c, 9, 35, 110
14, 44407, Note_on_c, 9, 35, 0
14, 44407, Note_on_c, 9, 42, 0
14, 44407, Note_on_c, 9, 54, 0
14, 44475, Note_on_c, 9, 54, 55
14, 44480, Note_on_c, 9, 42, 75
14, 44482, Note_on_c, 9, 54, 0
14, 44487, Note_on_c, 9, 42, 0
14, 44520, Note_on_c, 9, 54, 90
14, 44520, Note_on_c, 9, 42, 90
14, 44520, Note_on_c, 9, 38, 110
14, 44527, Note_on_c, 9, 38, 0
14, 44527, Note_on_c, 9, 42, 0
14, 44527, Note_on_c, 9, 54, 0
14, 44595, Note_on_c, 9, 54, 55
14, 44600, Note_on_c, 9, 42, 75
14, 44602, Note_on_c, 9, 54, 0
14, 44607, Note_on_c, 9, 42, 0
14, 44640, Note_on_c, 9, 54, 90
14, 44640, Note_on_c, 9, 42, 90
14, 44640, Note_on_c, 9, 35, 110
14, 44647, Note_on_c, 9, 35, 0
14, 44647, Note_on_c, 9, 42, 0
14, 44647, Note_on_c, 9, 54, 0
14, 44715, Note_on_c, 9, 54, 55
14, 44720, Note_on_c, 9, 42, 75
14, 44722, Note_on_c, 9, 54, 0
14, 44727, Note_on_c, 9, 42, 0
14, 44760, Note_on_c, 9, 54, 90
14, 44760, Note_on_c, 9, 42, 90
14, 44760, Note_on_c, 9, 40, 115
14, 44767, Note_on_c, 9, 40, 0
14, 44767, Note_on_c, 9, 42, 0
14, 44767, Note_on_c, 9, 54, 0
14, 44835, Note_on_c, 9, 54, 55
14, 44840, Note_on_c, 9, 42, 75
14, 44842, Note_on_c, 9, 54, 0
14, 44847, Note_on_c, 9, 42, 0
14, 44880, Note_on_c, 9, 54, 90
14, 44880, Note_on_c, 9, 42, 90
14, 44880, Note_on_c, 9, 35, 110
14, 44887, Note_on_c, 9, 35, 0
14, 44887, Note_on_c, 9, 42, 0
14, 44887, Note_on_c, 9, 54, 0
14, 44955, Note_on_c, 9, 54, 55
14, 44960, Note_on_c, 9, 42, 75
14, 44962, Note_on_c, 9, 54, 0
14, 44967, Note_on_c, 9, 42, 0
14, 45000, Note_on_c, 9, 54, 90
14, 45000, Note_on_c, 9, 42, 90
14, 45000, Note_on_c, 9, 38, 110
14, 45007, Note_on_c, 9, 38, 0
14, 45007, Note_on_c, 9, 42, 0
14, 45007, Note_on_c, 9, 54, 0
14, 45075, Note_on_c, 9, 54, 55
14, 45080, Note_on_c, 9, 42, 75
14, 45082, Note_on_c, 9, 54, 0
14, 45087, Note_on_c, 9, 42, 0
14, 45120, Note_on_c, 9, 54, 90
14, 45120, Note_on_c, 9, 42, 90
14, 45120, Note_on_c, 9, 35, 110
14, 45127, Note_on_c, 9, 35, 0
14, 45127, Note_on_c, 9, 42, 0
14, 45127, Note_on_c, 9, 54, 0
14, 45195, Note_on_c, 9, 54, 55
14, 45200, Note_on_c, 9, 42, 75
14, 45202, Note_on_c, 9, 54, 0
14, 45207, Note_on_c, 9, 42, 0
14, 45240, Note_on_c, 9, 54, 90
14, 45240, Note_on_c, 9, 42, 90
14, 45240, Note_on_c, 9, 40, 115
14, 45247, Note_on_c, 9, 40, 0
14, 45247, Note_on_c, 9, 42, 0
14, 45247, Note_on_c, 9, 54, 0
14, 45315, Note_on_c, 9, 54, 55
14, 45320, Note_on_c, 9, 42, 75
14, 45322, Note_on_c, 9, 54, 0
14, 45327, Note_on_c, 9, 42, 0
14, 45360, Note_on_c, 9, 54, 90
14, 45360, Note_on_c, 9, 42, 90
14, 45360, Note_on_c, 9, 35, 110
14, 45367, Note_on_c, 9, 35, 0
14, 45367, Note_on_c, 9, 42, 0
14, 45367, Note_on_c, 9, 54, 0
14, 45435, Note_on_c, 9, 54, 55
14, 45440, Note_on_c, 9, 42, 75
14, 45442, Note_on_c, 9, 54, 0
14, 45447, Note_on_c, 9, 42, 0
14, 45480, Note_on_c, 9, 54, 90
14, 45480, Note_on_c, 9, 42, 90
14, 45480, Note_on_c, 9, 38, 110
14, 45487, Note_on_c, 9, 38, 0
14, 45487, Note_on_c, 9, 42, 0
14, 45487, Note_on_c, 9, 54, 0
14, 45555, Note_on_c, 9, 54, 55
14, 45560, Note_on_c, 9, 42, 75
14, 45562, Note_on_c, 9, 54, 0
14, 45567, Note_on_c, 9, 42, 0
14, 45600, Note_on_c, 9, 54, 90
14, 45600, Note_on_c, 9, 42, 90
14, 45600, Note_on_c, 9, 35, 110
14, 45607, Note_on_c, 9, 35, 0
14, 45607, Note_on_c, 9, 42, 0
14, 45607, Note_on_c, 9, 54, 0
14, 45675, Note_on_c, 9, 54, 55
14, 45680, Note_on_c, 9, 42, 75
14, 45682, Note_on_c, 9, 54, 0
14, 45687, Note_on_c, 9, 42, 0
14, 45720, Note_on_c, 9, 54, 90
14, 45720, Note_on_c, 9, 42, 90
14, 45720, Note_on_c, 9, 40, 115
14, 45727, Note_on_c, 9, 40, 0
14, 45727, Note_on_c, 9, 42, 0
14, 45727, Note_on_c, 9, 54, 0
14, 45795, Note_on_c, 9, 54, 55
14, 45800, Note_on_c, 9, 42, 75
14, 45802, Note_on_c, 9, 54, 0
14, 45807, Note_on_c, 9, 42, 0
14, 45840, Note_on_c, 9, 54, 90
14, 45840, Note_on_c, 9, 42, 90
14, 45840, Note_on_c, 9, 35, 110
14, 45847, Note_on_c, 9, 35, 0
14, 45847, Note_on_c, 9, 42, 0
14, 45847, Note_on_c, 9, 54, 0
14, 45915, Note_on_c, 9, 54, 55
14, 45920, Note_on_c, 9, 42, 75
14, 45922, Note_on_c, 9, 54, 0
14, 45927, Note_on_c, 9, 42, 0
14, 45960, Note_on_c, 9, 54, 90
14, 45960, Note_on_c, 9, 42, 90
14, 45960, Note_on_c, 9, 38, 110
14, 45967, Note_on_c, 9, 38, 0
14, 45967, Note_on_c, 9, 42, 0
14, 45967, Note_on_c, 9, 54, 0
14, 46035, Note_on_c, 9, 54, 55
14, 46040, Note_on_c, 9, 42, 75
14, 46042, Note_on_c, 9, 54, 0
14, 46047, Note_on_c, 9, 42, 0
14, 46080, Note_on_c, 9, 54, 90
14, 46080, Note_on_c, 9, 42, 90
14, 46080, Note_on_c, 9, 35, 110
14, 46087, Note_on_c, 9, 35, 0
14, 46087, Note_on_c, 9, 42, 0
14, 46087, Note_on_c, 9, 54, 0
14, 46155, Note_on_c, 9, 54, 55
14, 46160, Note_on_c, 9, 42, 75
14, 46162, Note_on_c, 9, 54, 0
14, 46167, Note_on_c, 9, 42, 0
14, 46200, Note_on_c, 9, 54, 90
14, 46200, Note_on_c, 9, 42, 90
14, 46200, Note_on_c, 9, 40, 115
14, 46207, Note_on_c, 9, 40, 0
14, 46207, Note_on_c, 9, 42, 0
14, 46207, Note_on_c, 9, 54, 0
14, 46275, Note_on_c, 9, 54, 55
14, 46280, Note_on_c, 9, 42, 75
14, 46282, Note_on_c, 9, 54, 0
14, 46287, Note_on_c, 9, 42, 0
14, 46320, Note_on_c, 9, 54, 90
14, 46320, Note_on_c, 9, 42, 90
14, 46320, Note_on_c, 9, 35, 110
14, 46327, Note_on_c, 9, 35, 0
14, 46327, Note_on_c, 9, 42, 0
14, 46327, Note_on_c, 9, 54, 0
14, 46395, Note_on_c, 9, 54, 55
14, 46400, Note_on_c, 9, 42, 75
14, 46402, Note_on_c, 9, 54, 0
14, 46407, Note_on_c, 9, 42, 0
14, 46440, Note_on_c, 9, 54, 90
14, 46440, Note_on_c, 9, 42, 90
14, 46440, Note_on_c, 9, 38, 110
14, 46447, Note_on_c, 9, 38, 0
14, 46447, Note_on_c, 9, 42, 0
14, 46447, Note_on_c, 9, 54, 0
14, 46515, Note_on_c, 9, 54, 55
14, 46520, Note_on_c, 9, 42, 75
14, 46522, Note_on_c, 9, 54, 0
14, 46527, Note_on_c, 9, 42, 0
14, 46560, Note_on_c, 9, 54, 90
14, 46560, Note_on_c, 9, 42, 90
14, 46560, Note_on_c, 9, 35, 120
14, 46567, Note_on_c, 9, 35, 0
14, 46567, Note_on_c, 9, 42, 0
14, 46567, Note_on_c, 9, 54, 0
14, 46635, Note_on_c, 9, 54, 55
14, 46640, Note_on_c, 9, 42, 75
14, 46642, Note_on_c, 9, 54, 0
14, 46647, Note_on_c, 9, 42, 0
14, 46680, Note_on_c, 9, 54, 90
14, 46680, Note_on_c, 9, 42, 90
14, 46680, Note_on_c, 9, 40, 115
14, 46687, Note_on_c, 9, 40, 0
14, 46687, Note_on_c, 9, 42, 0
14, 46687, Note_on_c, 9, 54, 0
14, 46755, Note_on_c, 9, 54, 55
14, 46760, Note_on_c, 9, 42, 75
14, 46762, Note_on_c, 9, 54, 0
14, 46767, Note_on_c, 9, 42, 0
14, 46800, Note_on_c, 9, 54, 90
14, 46800, Note_on_c, 9, 42, 90
14, 46800, Note_on_c, 9, 50, 125
14, 46800, Note_on_c, 9, 35, 120
14, 46807, Note_on_c, 9, 35, 0
14, 46807, Note_on_c, 9, 54, 0
14, 46807, Note_on_c, 9, 42, 0
14, 46807, Note_on_c, 9, 50, 0
14, 46840, Note_on_c, 9, 48, 105
14, 46847, Note_on_c, 9, 48, 0
14, 46875, Note_on_c, 9, 54, 55
14, 46880, Note_on_c, 9, 42, 75
14, 46880, Note_on_c, 9, 47, 125
14, 46882, Note_on_c, 9, 54, 0
14, 46887, Note_on_c, 9, 47, 0
14, 46887, Note_on_c, 9, 42, 0
14, 46920, Note_on_c, 9, 54, 90
14, 46920, Note_on_c, 9, 42, 90
14, 46920, Note_on_c, 9, 45, 125
14, 46920, Note_on_c, 9, 35, 120
14, 46927, Note_on_c, 9, 35, 0
14, 46927, Note_on_c, 9, 54, 0
14, 46927, Note_on_c, 9, 42, 0
14, 46927, Note_on_c, 9, 45, 0
14, 46957, Note_on_c, 9, 43, 125
14, 46964, Note_on_c, 9, 43, 0
14, 46995, Note_on_c, 9, 54, 55
14, 46995, Note_on_c, 9, 41, 125
14, 47000, Note_on_c, 9, 42, 75
14, 47002, Note_on_c, 9, 41, 0
14, 47002, Note_on_c, 9, 54, 0
14, 47007, Note_on_c, 9, 42, 0
14, 47032, Note_on_c, 9, 38, 90
14, 47033, Note_on_c, 9, 38, 0
14, 47040, Note_on_c, 9, 54, 90
14, 47040, Note_on_c, 9, 42, 90
14, 47040, Note_on_c, 9, 38, 120
14, 47040, Note_on_c, 9, 35, 120
14, 47047, Note_on_c, 9, 35, 0
14, 47047, Note_on_c, 9, 54, 0
14, 47047, Note_on_c, 9, 42, 0
14, 47047, Note_on_c, 9, 38, 0
14, 47235, Note_on_c, 9, 38, 120
14, 47236, Note_on_c, 9, 38, 0
14, 47250, Note_on_c, 9, 38, 100
14, 47251, Note_on_c, 9, 38, 0
14, 47265, Note_on_c, 9, 38, 80
14, 47266, Note_on_c, 9, 38, 0
14, 47280, Note_on_c, 9, 38, 120
14, 47287, Note_on_c, 9, 38, 0
14, 47360, Note_on_c, 9, 47, 120
14, 47367, Note_on_c, 9, 47, 0
14, 47460, Note_on_c, 9, 43, 125
14, 47467, Note_on_c, 9, 43, 0
14, 47520, Note_on_c, 9, 54, 90
14, 47520, Note_on_c, 9, 49, 90
14, 47520, Note_on_c, 9, 35, 110
14, 47527, Note_on_c, 9, 35, 0
14, 47527, Note_on_c, 9, 49, 0
14, 47527, Note_on_c, 9, 54, 0
14, 47595, Note_on_c, 9, 54, 55
14, 47600, Note_on_c, 9, 42, 75
14, 47602, Note_on_c, 9, 54, 0
14, 47607, Note_on_c, 9, 42, 0
14, 47640, Note_on_c, 9, 54, 90
14, 47640, Note_on_c, 9, 42, 90
14, 47640, Note_on_c, 9, 40, 115
14, 47647, Note_on_c, 9, 40, 0
14, 47647, Note_on_c, 9, 42, 0
14, 47647, Note_on_c, 9, 54, 0
14, 47715, Note_on_c, 9, 54, 55
14, 47720, Note_on_c, 9, 42, 75
14, 47722, Note_on_c, 9, 54, 0
14, 47727, Note_on_c, 9, 42, 0
14, 47760, Note_on_c, 9, 54, 90
14, 47760, Note_on_c, 9, 42, 90
14, 47760, Note_on_c, 9, 35, 110
14, 47767, Note_on_c, 9, 35, 0
14, 47767, Note_on_c, 9, 42, 0
14, 47767, Note_on_c, 9, 54, 0
14, 47835, Note_on_c, 9, 54, 55
14, 47840, Note_on_c, 9, 42, 75
14, 47842, Note_on_c, 9, 54, 0
14, 47847, Note_on_c, 9, 42, 0
14, 47880, Note_on_c, 9, 54, 90
14, 47880, Note_on_c, 9, 42, 90
14, 47880, Note_on_c, 9, 38, 110
14, 47887, Note_on_c, 9, 38, 0
14, 47887, Note_on_c, 9, 42, 0
14, 47887, Note_on_c, 9, 54, 0
14, 47955, Note_on_c, 9, 54, 55
14, 47960, Note_on_c, 9, 42, 75
14, 47962, Note_on_c, 9, 54, 0
14, 47967, Note_on_c, 9, 42, 0
14, 48000, Note_on_c, 9, 54, 90
14, 48000, Note_on_c, 9, 42, 90
14, 48000, Note_on_c, 9, 35, 110
14, 48007, Note_on_c, 9, 35, 0
14, 48007, Note_on_c, 9, 42, 0
14, 48007, Note_on_c, 9, 54, 0
14, 48075, Note_on_c, 9, 54, 55
14, 48080, Note_on_c, 9, 42, 75
14, 48082, Note_on_c, 9, 54, 0
14, 48087, Note_on_c, 9, 42, 0
14, 48120, Note_on_c, 9, 54, 90
14, 48120, Note_on_c, 9, 42, 90
14, 48120, Note_on_c, 9, 40, 115
14, 48127, Note_on_c, 9, 40, 0
14, 48127, Note_on_c, 9, 42, 0
14, 48127, Note_on_c, 9, 54, 0
14, 48195, Note_on_c, 9, 54, 55
14, 48200, Note_on_c, 9, 42, 75
14, 48202, Note_on_c, 9, 54, 0
14, 48207, Note_on_c, 9, 42, 0
14, 48240, Note_on_c, 9, 54, 90
14, 48240, Note_on_c, 9, 42, 90
14, 48240, Note_on_c, 9, 35, 110
14, 48247, Note_on_c, 9, 35, 0
14, 48247, Note_on_c, 9, 42, 0
14, 48247, Note_on_c, 9, 54, 0
14, 48315, Note_on_c, 9, 54, 55
14, 48320, Note_on_c, 9, 42, 75
14, 48322, Note_on_c, 9, 54, 0
14, 48327, Note_on_c, 9, 42, 0
14, 48360, Note_on_c, 9, 54, 90
14, 48360, Note_on_c, 9, 42, 90
14, 48360, Note_on_c, 9, 38, 110
14, 48367, Note_on_c, 9, 38, 0
14, 48367, Note_on_c, 9, 42, 0
14, 48367, Note_on_c, 9, 54, 0
14, 48435, Note_on_c, 9, 54, 55
14, 48440, Note_on_c, 9, 42, 75
14, 48442, Note_on_c, 9, 54, 0
14, 48447, Note_on_c, 9, 42, 0
14, 48480, Note_on_c, 9, 54, 90
14, 48480, Note_on_c, 9, 42, 90
14, 48480, Note_on_c, 9, 35, 110
14, 48487, Note_on_c, 9, 35, 0
14, 48487, Note_on_c, 9, 42, 0
14, 48487, Note_on_c, 9, 54, 0
14, 48555, Note_on_c, 9, 54, 55
14, 48560, Note_on_c, 9, 42, 75
14, 48562, Note_on_c, 9, 54, 0
14, 48567, Note_on_c, 9, 42, 0
14, 48600, Note_on_c, 9, 54, 90
14, 48600, Note_on_c, 9, 42, 90
14, 48600, Note_on_c, 9, 40, 115
14, 48607, Note_on_c, 9, 40, 0
14, 48607, Note_on_c, 9, 42, 0
14, 48607, Note_on_c, 9, 54, 0
14, 48675, Note_on_c, 9, 54, 55
14, 48680, Note_on_c, 9, 42, 75
14, 48682, Note_on_c, 9, 54, 0
14, 48687, Note_on_c, 9, 42, 0
14, 48720, Note_on_c, 9, 54, 90
14, 48720, Note_on_c, 9, 42, 90
14, 48720, Note_on_c, 9, 35, 110
14, 48727, Note_on_c, 9, 35, 0
14, 48727, Note_on_c, 9, 42, 0
14, 48727, Note_on_c, 9, 54, 0
14, 48795, Note_on_c, 9, 54, 55
14, 48800, Note_on_c, 9, 42, 75
14, 48802, Note_on_c, 9, 54, 0
14, 48807, Note_on_c, 9, 42, 0
14, 48840, Note_on_c, 9, 54, 90
14, 48840, Note_on_c, 9, 42, 90
14, 48840, Note_on_c, 9, 38, 110
14, 48847, Note_on_c, 9, 38, 0
14, 48847, Note_on_c, 9, 42, 0
14, 48847, Note_on_c, 9, 54, 0
14, 48915, Note_on_c, 9, 54, 55
14, 48920, Note_on_c, 9, 42, 75
14, 48922, Note_on_c, 9, 54, 0
14, 48927, Note_on_c, 9, 42, 0
14, 48960, Note_on_c, 9, 54, 90
14, 48960, Note_on_c, 9, 42, 90
14, 48960, Note_on_c, 9, 35, 110
14, 48967, Note_on_c, 9, 35, 0
14, 48967, Note_on_c, 9, 42, 0
14, 48967, Note_on_c, 9, 54, 0
14, 49035, Note_on_c, 9, 54, 55
14, 49040, Note_on_c, 9, 42, 75
14, 49042, Note_on_c, 9, 54, 0
14, 49047, Note_on_c, 9, 42, 0
14, 49080, Note_on_c, 9, 54, 90
14, 49080, Note_on_c, 9, 42, 90
14, 49080, Note_on_c, 9, 40, 115
14, 49087, Note_on_c, 9, 40, 0
14, 49087, Note_on_c, 9, 42, 0
14, 49087, Note_on_c, 9, 54, 0
14, 49155, Note_on_c, 9, 54, 55
14, 49160, Note_on_c, 9, 42, 75
14, 49162, Note_on_c, 9, 54, 0
14, 49167, Note_on_c, 9, 42, 0
14, 49200, Note_on_c, 9, 54, 90
14, 49200, Note_on_c, 9, 42, 90
14, 49200, Note_on_c, 9, 35, 110
14, 49207, Note_on_c, 9, 35, 0
14, 49207, Note_on_c, 9, 42, 0
14, 49207, Note_on_c, 9, 54, 0
14, 49275, Note_on_c, 9, 54, 55
14, 49280, Note_on_c, 9, 42, 75
14, 49282, Note_on_c, 9, 54, 0
14, 49287, Note_on_c, 9, 42, 0
14, 49320, Note_on_c, 9, 54, 90
14, 49320, Note_on_c, 9, 42, 90
14, 49320, Note_on_c, 9, 38, 110
14, 49327, Note_on_c, 9, 38, 0
14, 49327, Note_on_c, 9, 42, 0
14, 49327, Note_on_c, 9, 54, 0
14, 49395, Note_on_c, 9, 54, 55
14, 49400, Note_on_c, 9, 42, 75
14, 49402, Note_on_c, 9, 54, 0
14, 49407, Note_on_c, 9, 42, 0
14, 49440, Note_on_c, 9, 54, 90
14, 49440, Note_on_c, 9, 42, 90
14, 49440, Note_on_c, 9, 35, 110
14, 49447, Note_on_c, 9, 35, 0
14, 49447, Note_on_c, 9, 42, 0
14, 49447, Note_on_c, 9, 54, 0
14, 49515, Note_on_c, 9, 54, 55
14, 49520, Note_on_c, 9, 42, 75
14, 49522, Note_on_c, 9, 54, 0
14, 49527, Note_on_c, 9, 42, 0
14, 49560, Note_on_c, 9, 54, 90
14, 49560, Note_on_c, 9, 42, 90
14, 49560, Note_on_c, 9, 40, 115
14, 49567, Note_on_c, 9, 40, 0
14, 49567, Note_on_c, 9, 42, 0
14, 49567, Note_on_c, 9, 54, 0
14, 49635, Note_on_c, 9, 54, 55
14, 49640, Note_on_c, 9, 42, 75
14, 49642, Note_on_c, 9, 54, 0
14, 49647, Note_on_c, 9, 42, 0
14, 49680, Note_on_c, 9, 54, 90
14, 49680, Note_on_c, 9, 42, 90
14, 49680, Note_on_c, 9, 35, 110
14, 49687, Note_on_c, 9, 35, 0
14, 49687, Note_on_c, 9, 42, 0
14, 49687, Note_on_c, 9, 54, 0
14, 49755, Note_on_c, 9, 54, 55
14, 49760, Note_on_c, 9, 42, 75
14, 49762, Note_on_c, 9, 54, 0
14, 49767, Note_on_c, 9, 42, 0
14, 49800, Note_on_c, 9, 54, 90
14, 49800, Note_on_c, 9, 42, 90
14, 49800, Note_on_c, 9, 38, 110
14, 49807, Note_on_c, 9, 38, 0
14, 49807, Note_on_c, 9, 42, 0
14, 49807, Note_on_c, 9, 54, 0
14, 49875, Note_on_c, 9, 54, 55
14, 49880, Note_on_c, 9, 42, 75
14, 49882, Note_on_c, 9, 54, 0
14, 49887, Note_on_c, 9, 42, 0
14, 49920, Note_on_c, 9, 54, 90
14, 49920, Note_on_c, 9, 42, 90
14, 49920, Note_on_c, 9, 35, 110
14, 49927, Note_on_c, 9, 35, 0
14, 49927, Note_on_c, 9, 42, 0
14, 49927, Note_on_c, 9, 54, 0
14, 49995, Note_on_c, 9, 54, 55
14, 50000, Note_on_c, 9, 42, 75
14, 50002, Note_on_c, 9, 54, 0
14, 50007, Note_on_c, 9, 42, 0
14, 50040, Note_on_c, 9, 54, 90
14, 50040, Note_on_c, 9, 42, 90
14, 50040, Note_on_c, 9, 40, 115
14, 50047, Note_on_c, 9, 40, 0
14, 50047, Note_on_c, 9, 42, 0
14, 50047, Note_on_c, 9, 54, 0
14, 50115, Note_on_c, 9, 54, 55
14, 50120, Note_on_c, 9, 42, 75
14, 50122, Note_on_c, 9, 54, 0
14, 50127, Note_on_c, 9, 42, 0
14, 50160, Note_on_c, 9, 54, 90
14, 50160, Note_on_c, 9, 42, 90
14, 50160, Note_on_c, 9, 35, 110
14, 50167, Note_on_c, 9, 35, 0
14, 50167, Note_on_c, 9, 42, 0
14, 50167, Note_on_c, 9, 54, 0
14, 50235, Note_on_c, 9, 54, 55
14, 50240, Note_on_c, 9, 42, 75
14, 50242, Note_on_c, 9, 54, 0
14, 50247, Note_on_c, 9, 42, 0
14, 50280, Note_on_c, 9, 54, 90
14, 50280, Note_on_c, 9, 42, 90
14, 50280, Note_on_c, 9, 38, 110
14, 50287, Note_on_c, 9, 38, 0
14, 50287, Note_on_c, 9, 42, 0
14, 50287, Note_on_c, 9, 54, 0
14, 50355, Note_on_c, 9, 54, 55
14, 50360, Note_on_c, 9, 42, 75
14, 50362, Note_on_c, 9, 54, 0
14, 50367, Note_on_c, 9, 42, 0
14, 50400, Note_on_c, 9, 54, 90
14, 50400, Note_on_c, 9, 42, 90
14, 50400, Note_on_c, 9, 35, 110
14, 50407, Note_on_c, 9, 35, 0
14, 50407, Note_on_c, 9, 42, 0
14, 50407, Note_on_c, 9, 54, 0
14, 50475, Note_on_c, 9, 54, 55
14, 50480, Note_on_c, 9, 42, 75
14, 50482, Note_on_c, 9, 54, 0
14, 50487, Note_on_c, 9, 42, 0
14, 50520, Note_on_c, 9, 54, 90
14, 50520, Note_on_c, 9, 42, 90
14, 50520, Note_on_c, 9, 40, 115
14, 50527, Note_on_c, 9, 40, 0
14, 50527, Note_on_c, 9, 42, 0
14, 50527, Note_on_c, 9, 54, 0
14, 50595, Note_on_c, 9, 54, 55
14, 50600, Note_on_c, 9, 42, 75
14, 50602, Note_on_c, 9, 54, 0
14, 50607, Note_on_c, 9, 42, 0
14, 50640, Note_on_c, 9, 54, 90
14, 50640, Note_on_c, 9, 42, 90
14, 50640, Note_on_c, 9, 35, 110
14, 50647, Note_on_c, 9, 35, 0
14, 50647, Note_on_c, 9, 42, 0
14, 50647, Note_on_c, 9, 54, 0
14, 50715, Note_on_c, 9, 54, 55
14, 50720, Note_on_c, 9, 42, 75
14, 50722, Note_on_c, 9, 54, 0
14, 50727, Note_on_c, 9, 42, 0
14, 50760, Note_on_c, 9, 54, 90
14, 50760, Note_on_c, 9, 42, 90
14, 50760, Note_on_c, 9, 38, 110
14, 50767, Note_on_c, 9, 38, 0
14, 50767, Note_on_c, 9, 42, 0
14, 50767, Note_on_c, 9, 54, 0
14, 50835, Note_on_c, 9, 54, 55
14, 50840, Note_on_c, 9, 42, 75
14, 50842, Note_on_c, 9, 54, 0
14, 50847, Note_on_c, 9, 42, 0
14, 50880, Note_on_c, 9, 54, 90
14, 50880, Note_on_c, 9, 42, 90
14, 50880, Note_on_c, 9, 35, 110
14, 50887, Note_on_c, 9, 35, 0
14, 50887, Note_on_c, 9, 42, 0
14, 50887, Note_on_c, 9, 54, 0
14, 50955, Note_on_c, 9, 54, 55
14, 50960, Note_on_c, 9, 42, 75
14, 50962, Note_on_c, 9, 54, 0
14, 50967, Note_on_c, 9, 42, 0
14, 51000, Note_on_c, 9, 54, 90
14, 51000, Note_on_c, 9, 42, 90
14, 51000, Note_on_c, 9, 40, 115
14, 51007, Note_on_c, 9, 40, 0
14, 51007, Note_on_c, 9, 42, 0
14, 51007, Note_on_c, 9, 54, 0
14, 51075, Note_on_c, 9, 54, 55
14, 51080, Note_on_c, 9, 42, 75
14, 51082, Note_on_c, 9, 54, 0
14, 51087, Note_on_c, 9, 42, 0
14, 51120, Note_on_c, 9, 54, 90
14, 51120, Note_on_c, 9, 42, 90
14, 51120, Note_on_c, 9, 47, 125
14, 51120, Note_on_c, 9, 35, 110
14, 51127, Note_on_c, 9, 35, 0
14, 51127, Note_on_c, 9, 54, 0
14, 51127, Note_on_c, 9, 42, 0
14, 51127, Note_on_c, 9, 47, 0
14, 51160, Note_on_c, 9, 45, 105
14, 51167, Note_on_c, 9, 45, 0
14, 51195, Note_on_c, 9, 54, 55
14, 51200, Note_on_c, 9, 42, 75
14, 51200, Note_on_c, 9, 43, 125
14, 51202, Note_on_c, 9, 54, 0
14, 51207, Note_on_c, 9, 43, 0
14, 51207, Note_on_c, 9, 42, 0
14, 51240, Note_on_c, 9, 54, 90
14, 51240, Note_on_c, 9, 42, 90
14, 51240, Note_on_c, 9, 41, 125
14, 51247, Note_on_c, 9, 41, 0
14, 51247, Note_on_c, 9, 42, 0
14, 51247, Note_on_c, 9, 54, 0
14, 51315, Note_on_c, 9, 54, 55
14, 51320, Note_on_c, 9, 42, 75
14, 51320, Note_on_c, 9, 40, 125
14, 51322, Note_on_c, 9, 54, 0
14, 51327, Note_on_c, 9, 40, 0
14, 51327, Note_on_c, 9, 42, 0
14, 51360, Note_on_c, 9, 54, 90
14, 51360, Note_on_c, 9, 49, 90
14, 51360, Note_on_c, 9, 35, 110
14, 51367, Note_on_c, 9, 35, 0
14, 51367, Note_on_c, 9, 49, 0
14, 51367, Note_on_c, 9, 54, 0
14, 51435, Note_on_c, 9, 54, 55
14, 51440, Note_on_c, 9, 42, 75
14, 51442, Note_on_c, 9, 54, 0
14, 51447, Note_on_c, 9, 42, 0
14, 51480, Note_on_c, 9, 54, 90
14, 51480, Note_on_c, 9, 42, 90
14, 51480, Note_on_c, 9, 40, 115
14, 51487, Note_on_c, 9, 40, 0
14, 51487, Note_on_c, 9, 42, 0
14, 51487, Note_on_c, 9, 54, 0
14, 51555, Note_on_c, 9, 54, 55
14, 51560, Note_on_c, 9, 42, 75
14, 51562, Note_on_c, 9, 54, 0
14, 51567, Note_on_c, 9, 42, 0
14, 51600, Note_on_c, 9, 54, 90
14, 51600, Note_on_c, 9, 42, 90
14, 51600, Note_on_c, 9, 35, 110
14, 51607, Note_on_c, 9, 35, 0
14, 51607, Note_on_c, 9, 42, 0
14, 51607, Note_on_c, 9, 54, 0
14, 51675, Note_on_c, 9, 54, 55
14, 51680, Note_on_c, 9, 42, 75
14, 51682, Note_on_c, 9, 54, 0
14, 51687, Note_on_c, 9, 42, 0
14, 51720, Note_on_c, 9, 54, 90
14, 51720, Note_on_c, 9, 42, 90
14, 51720, Note_on_c, 9, 38, 110
14, 51727, Note_on_c, 9, 38, 0
14, 51727, Note_on_c, 9, 42, 0
14, 51727, Note_on_c, 9, 54, 0
14, 51795, Note_on_c, 9, 54, 55
14, 51800, Note_on_c, 9, 42, 75
14, 51802, Note_on_c, 9, 54, 0
14, 51807, Note_on_c, 9, 42, 0
14, 51840, Note_on_c, 9, 54, 90
14, 51840, Note_on_c, 9, 42, 90
14, 51840, Note_on_c, 9, 35, 110
14, 51847, Note_on_c, 9, 35, 0
14, 51847, Note_on_c, 9, 42, 0
14, 51847, Note_on_c, 9, 54, 0
14, 51915, Note_on_c, 9, 54, 55
14, 51920, Note_on_c, 9, 42, 75
14, 51922, Note_on_c, 9, 54, 0
14, 51927, Note_on_c, 9, 42, 0
14, 51960, Note_on_c, 9, 54, 90
14, 51960, Note_on_c, 9, 42, 90
14, 51960, Note_on_c, 9, 40, 115
14, 51967, Note_on_c, 9, 40, 0
14, 51967, Note_on_c, 9, 42, 0
14, 51967, Note_on_c, 9, 54, 0
14, 52035, Note_on_c, 9, 54, 55
14, 52040, Note_on_c, 9, 42, 75
14, 52042, Note_on_c, 9, 54, 0
14, 52047, Note_on_c, 9, 42, 0
14, 52080, Note_on_c, 9, 54, 90
14, 52080, Note_on_c, 9, 42, 90
14, 52080, Note_on_c, 9, 35, 110
14, 52087, Note_on_c, 9, 35, 0
14, 52087, Note_on_c, 9, 42, 0
14, 52087, Note_on_c, 9, 54, 0
14, 52155, Note_on_c, 9, 54, 55
14, 52160, Note_on_c, 9, 42, 75
14, 52162, Note_on_c, 9, 54, 0
14, 52167, Note_on_c, 9, 42, 0
14, 52200, Note_on_c, 9, 54, 90
14, 52200, Note_on_c, 9, 42, 90
14, 52200, Note_on_c, 9, 38, 110
14, 52207, Note_on_c, 9, 38, 0
14, 52207, Note_on_c, 9, 42, 0
14, 52207, Note_on_c, 9, 54, 0
14, 52275, Note_on_c, 9, 54, 55
14, 52280, Note_on_c, 9, 42, 75
14, 52282, Note_on_c, 9, 54, 0
14, 52287, Note_on_c, 9, 42, 0
14, 52320, Note_on_c, 9, 54, 90
14, 52320, Note_on_c, 9, 42, 90
14, 52320, Note_on_c, 9, 35, 110
14, 52327, Note_on_c, 9, 35, 0
14, 52327, Note_on_c, 9, 42, 0
14, 52327, Note_on_c, 9, 54, 0
14, 52395, Note_on_c, 9, 54, 55
14, 52400, Note_on_c, 9, 42, 75
14, 52402, Note_on_c, 9, 54, 0
14, 52407, Note_on_c, 9, 42, 0
14, 52440, Note_on_c, 9, 54, 90
14, 52440, Note_on_c, 9, 42, 90
14, 52440, Note_on_c, 9, 40, 115
14, 52447, Note_on_c, 9, 40, 0
14, 52447, Note_on_c, 9, 42, 0
14, 52447, Note_on_c, 9, 54, 0
14, 52515, Note_on_c, 9, 54, 55
14, 52520, Note_on_c, 9, 42, 75
14, 52522, Note_on_c, 9, 54, 0
14, 52527, Note_on_c, 9, 42, 0
14, 52560, Note_on_c, 9, 54, 90
14, 52560, Note_on_c, 9, 42, 90
14, 52560, Note_on_c, 9, 35, 110
14, 52567, Note_on_c, 9, 35, 0
14, 52567, Note_on_c, 9, 42, 0
14, 52567, Note_on_c, 9, 54, 0
14, 52635, Note_on_c, 9, 54, 55
14, 52640, Note_on_c, 9, 42, 75
14, 52642, Note_on_c, 9, 54, 0
14, 52647, Note_on_c, 9, 42, 0
14, 52680, Note_on_c, 9, 54, 90
14, 52680, Note_on_c, 9, 42, 90
14, 52680, Note_on_c, 9, 38, 110
14, 52687, Note_on_c, 9, 38, 0
14, 52687, Note_on_c, 9, 42, 0
14, 52687, Note_on_c, 9, 54, 0
14, 52755, Note_on_c, 9, 54, 55
14, 52760, Note_on_c, 9, 42, 75
14, 52762, Note_on_c, 9, 54, 0
14, 52767, Note_on_c, 9, 42, 0
14, 52800, Note_on_c, 9, 54, 90
14, 52800, Note_on_c, 9, 42, 90
14, 52800, Note_on_c, 9, 35, 110
14, 52807, Note_on_c, 9, 35, 0
14, 52807, Note_on_c, 9, 42, 0
14, 52807, Note_on_c, 9, 54, 0
14, 52875, Note_on_c, 9, 54, 55
14, 52880, Note_on_c, 9, 42, 75
14, 52882, Note_on_c, 9, 54, 0
14, 52887, Note_on_c, 9, 42, 0
14, 52920, Note_on_c, 9, 54, 90
14, 52920, Note_on_c, 9, 42, 90
14, 52920, Note_on_c, 9, 40, 115
14, 52927, Note_on_c, 9, 40, 0
14, 52927, Note_on_c, 9, 42, 0
14, 52927, Note_on_c, 9, 54, 0
14, 52995, Note_on_c, 9, 54, 55
14, 53000, Note_on_c, 9, 42, 75
14, 53002, Note_on_c, 9, 54, 0
14, 53007, Note_on_c, 9, 42, 0
14, 53040, Note_on_c, 9, 54, 90
14, 53040, Note_on_c, 9, 42, 90
14, 53040, Note_on_c, 9, 35, 110
14, 53047, Note_on_c, 9, 35, 0
14, 53047, Note_on_c, 9, 42, 0
14, 53047, Note_on_c, 9, 54, 0
14, 53115, Note_on_c, 9, 54, 55
14, 53120, Note_on_c, 9, 42, 75
14, 53122, Note_on_c, 9, 54, 0
14, 53127, Note_on_c, 9, 42, 0
14, 53160, Note_on_c, 9, 54, 90
14, 53160, Note_on_c, 9, 42, 90
14, 53160, Note_on_c, 9, 38, 110
14, 53167, Note_on_c, 9, 38, 0
14, 53167, Note_on_c, 9, 42, 0
14, 53167, Note_on_c, 9, 54, 0
14, 53235, Note_on_c, 9, 54, 55
14, 53240, Note_on_c, 9, 42, 75
14, 53242, Note_on_c, 9, 54, 0
14, 53247, Note_on_c, 9, 42, 0
14, 53280, Note_on_c, 9, 54, 90
14, 53280, Note_on_c, 9, 42, 90
14, 53280, Note_on_c, 9, 35, 110
14, 53287, Note_on_c, 9, 35, 0
14, 53287, Note_on_c, 9, 42, 0
14, 53287, Note_on_c, 9, 54, 0
14, 53355, Note_on_c, 9, 54, 55
14, 53360, Note_on_c, 9, 42, 75
14, 53362, Note_on_c, 9, 54, 0
14, 53367, Note_on_c, 9, 42, 0
14, 53400, Note_on_c, 9, 54, 90
14, 53400, Note_on_c, 9, 42, 90
14, 53400, Note_on_c, 9, 40, 115
14, 53407, Note_on_c, 9, 40, 0
14, 53407, Note_on_c, 9, 42, 0
14, 53407, Note_on_c, 9, 54, 0
14, 53475, Note_on_c, 9, 54, 55
14, 53480, Note_on_c, 9, 42, 75
14, 53482, Note_on_c, 9, 54, 0
14, 53487, Note_on_c, 9, 42, 0
14, 53520, Note_on_c, 9, 54, 90
14, 53520, Note_on_c, 9, 42, 90
14, 53520, Note_on_c, 9, 35, 110
14, 53527, Note_on_c, 9, 35, 0
14, 53527, Note_on_c, 9, 42, 0
14, 53527, Note_on_c, 9, 54, 0
14, 53595, Note_on_c, 9, 54, 55
14, 53600, Note_on_c, 9, 42, 75
14, 53602, Note_on_c, 9, 54, 0
14, 53607, Note_on_c, 9, 42, 0
14, 53640, Note_on_c, 9, 54, 90
14, 53640, Note_on_c, 9, 42, 90
14, 53640, Note_on_c, 9, 38, 110
14, 53647, Note_on_c, 9, 38, 0
14, 53647, Note_on_c, 9, 42, 0
14, 53647, Note_on_c, 9, 54, 0
14, 53715, Note_on_c, 9, 54, 55
14, 53720, Note_on_c, 9, 42, 75
14, 53722, Note_on_c, 9, 54, 0
14, 53727, Note_on_c, 9, 42, 0
14, 53760, Note_on_c, 9, 54, 90
14, 53760, Note_on_c, 9, 42, 90
14, 53760, Note_on_c, 9, 35, 110
14, 53767, Note_on_c, 9, 35, 0
14, 53767, Note_on_c, 9, 42, 0
14, 53767, Note_on_c, 9, 54, 0
14, 53835, Note_on_c, 9, 54, 55
14, 53840, Note_on_c, 9, 42, 75
14, 53842, Note_on_c, 9, 54, 0
14, 53847, Note_on_c, 9, 42, 0
14, 53880, Note_on_c, 9, 54, 90
14, 53880, Note_on_c, 9, 42, 90
14, 53880, Note_on_c, 9, 40, 115
14, 53887, Note_on_c, 9, 40, 0
14, 53887, Note_on_c, 9, 42, 0
14, 53887, Note_on_c, 9, 54, 0
14, 53955, Note_on_c, 9, 54, 55
14, 53960, Note_on_c, 9, 42, 75
14, 53962, Note_on_c, 9, 54, 0
14, 53967, Note_on_c, 9, 42, 0
14, 54000, Note_on_c, 9, 54, 90
14, 54000, Note_on_c, 9, 42, 90
14, 54000, Note_on_c, 9, 35, 110
14, 54007, Note_on_c, 9, 35, 0
14, 54007, Note_on_c, 9, 42, 0
14, 54007, Note_on_c, 9, 54, 0
14, 54075, Note_on_c, 9, 54, 55
14, 54080, Note_on_c, 9, 42, 75
14, 54082, Note_on_c, 9, 54, 0
14, 54087, Note_on_c, 9, 42, 0
14, 54120, Note_on_c, 9, 54, 90
14, 54120, Note_on_c, 9, 42, 90
14, 54120, Note_on_c, 9, 38, 110
14, 54127, Note_on_c, 9, 38, 0
14, 54127, Note_on_c, 9, 42, 0
14, 54127, Note_on_c, 9, 54, 0
14, 54195, Note_on_c, 9, 54, 55
14, 54200, Note_on_c, 9, 42, 75
14, 54202, Note_on_c, 9, 54, 0
14, 54207, Note_on_c, 9, 42, 0
14, 54240, Note_on_c, 9, 54, 90
14, 54240, Note_on_c, 9, 42, 90
14, 54240, Note_on_c, 9, 35, 110
14, 54247, Note_on_c, 9, 35, 0
14, 54247, Note_on_c, 9, 42, 0
14, 54247, Note_on_c, 9, 54, 0
14, 54315, Note_on_c, 9, 54, 55
14, 54320, Note_on_c, 9, 42, 75
14, 54322, Note_on_c, 9, 54, 0
14, 54327, Note_on_c, 9, 42, 0
14, 54360, Note_on_c, 9, 54, 90
14, 54360, Note_on_c, 9, 42, 90
14, 54360, Note_on_c, 9, 40, 115
14, 54367, Note_on_c, 9, 40, 0
14, 54367, Note_on_c, 9, 42, 0
14, 54367, Note_on_c, 9, 54, 0
14, 54435, Note_on_c, 9, 54, 55
14, 54440, Note_on_c, 9, 42, 75
14, 54442, Note_on_c, 9, 54, 0
14, 54447, Note_on_c, 9, 42, 0
14, 54480, Note_on_c, 9, 54, 90
14, 54480, Note_on_c, 9, 42, 90
14, 54480, Note_on_c, 9, 35, 110
14, 54487, Note_on_c, 9, 35, 0
14, 54487, Note_on_c, 9, 42, 0
14, 54487, Note_on_c, 9, 54, 0
14, 54555, Note_on_c, 9, 54, 55
14, 54560, Note_on_c, 9, 42, 75
14, 54562, Note_on_c, 9, 54, 0
14, 54567, Note_on_c, 9, 42, 0
14, 54600, Note_on_c, 9, 54, 90
14, 54600, Note_on_c, 9, 42, 90
14, 54600, Note_on_c, 9, 38, 110
14, 54607, Note_on_c, 9, 38, 0
14, 54607, Note_on_c, 9, 42, 0
14, 54607, Note_on_c, 9, 54, 0
14, 54675, Note_on_c, 9, 54, 55
14, 54680, Note_on_c, 9, 42, 75
14, 54682, Note_on_c, 9, 54, 0
14, 54687, Note_on_c, 9, 42, 0
14, 54720, Note_on_c, 9, 54, 90
14, 54720, Note_on_c, 9, 42, 90
14, 54720, Note_on_c, 9, 35, 110
14, 54727, Note_on_c, 9, 35, 0
14, 54727, Note_on_c, 9, 42, 0
14, 54727, Note_on_c, 9, 54, 0
14, 54795, Note_on_c, 9, 54, 55
14, 54800, Note_on_c, 9, 42, 75
14, 54802, Note_on_c, 9, 54, 0
14, 54807, Note_on_c, 9, 42, 0
14, 54840, Note_on_c, 9, 54, 90
14, 54840, Note_on_c, 9, 42, 90
14, 54840, Note_on_c, 9, 40, 115
14, 54847, Note_on_c, 9, 40, 0
14, 54847, Note_on_c, 9, 42, 0
14, 54847, Note_on_c, 9, 54, 0
14, 54915, Note_on_c, 9, 54, 55
14, 54920, Note_on_c, 9, 42, 75
14, 54922, Note_on_c, 9, 54, 0
14, 54927, Note_on_c, 9, 42, 0
14, 54960, Note_on_c, 9, 54, 90
14, 54960, Note_on_c, 9, 42, 90
14, 54960, Note_on_c, 9, 47, 125
14, 54960, Note_on_c, 9, 35, 110
14, 54967, Note_on_c, 9, 35, 0
14, 54967, Note_on_c, 9, 54, 0
14, 54967, Note_on_c, 9, 42, 0
14, 54967, Note_on_c, 9, 47, 0
14, 55000, Note_on_c, 9, 45, 105
14, 55007, Note_on_c, 9, 45, 0
14, 55035, Note_on_c, 9, 54, 55
14, 55040, Note_on_c, 9, 42, 75
14, 55040, Note_on_c, 9, 43, 125
14, 55042, Note_on_c, 9, 54, 0
14, 55047, Note_on_c, 9, 43, 0
14, 55047, Note_on_c, 9, 42, 0
14, 55080, Note_on_c, 9, 54, 90
14, 55080, Note_on_c, 9, 42, 90
14, 55080, Note_on_c, 9, 41, 125
14, 55087, Note_on_c, 9, 41, 0
14, 55087, Note_on_c, 9, 42, 0
14, 55087, Note_on_c, 9, 54, 0
14, 55155, Note_on_c, 9, 54, 55
14, 55160, Note_on_c, 9, 42, 75
14, 55160, Note_on_c, 9, 40, 125
14, 55162, Note_on_c, 9, 54, 0
14, 55167, Note_on_c, 9, 40, 0
14, 55167, Note_on_c, 9, 42, 0
14, 55200, Note_on_c, 9, 54, 90
14, 55200, Note_on_c, 9, 49, 90
14, 55200, Note_on_c, 9, 35, 110
14, 55207, Note_on_c, 9, 35, 0
14, 55207, Note_on_c, 9, 49, 0
14, 55207, Note_on_c, 9, 54, 0
14, 55275, Note_on_c, 9, 54, 55
14, 55280, Note_on_c, 9, 42, 75
14, 55282, Note_on_c, 9, 54, 0
14, 55287, Note_on_c, 9, 42, 0
14, 55320, Note_on_c, 9, 54, 90
14, 55320, Note_on_c, 9, 42, 90
14, 55320, Note_on_c, 9, 40, 115
14, 55327, Note_on_c, 9, 40, 0
14, 55327, Note_on_c, 9, 42, 0
14, 55327, Note_on_c, 9, 54, 0
14, 55395, Note_on_c, 9, 54, 55
14, 55400, Note_on_c, 9, 42, 75
14, 55402, Note_on_c, 9, 54, 0
14, 55407, Note_on_c, 9, 42, 0
14, 55440, Note_on_c, 9, 54, 90
14, 55440, Note_on_c, 9, 42, 90
14, 55440, Note_on_c, 9, 35, 110
14, 55447, Note_on_c, 9, 35, 0
14, 55447, Note_on_c, 9, 42, 0
14, 55447, Note_on_c, 9, 54, 0
14, 55515, Note_on_c, 9, 54, 55
14, 55520, Note_on_c, 9, 42, 75
14, 55522, Note_on_c, 9, 54, 0
14, 55527, Note_on_c, 9, 42, 0
14, 55560, Note_on_c, 9, 54, 90
14, 55560, Note_on_c, 9, 42, 90
14, 55560, Note_on_c, 9, 38, 110
14, 55567, Note_on_c, 9, 38, 0
14, 55567, Note_on_c, 9, 42, 0
14, 55567, Note_on_c, 9, 54, 0
14, 55635, Note_on_c, 9, 54, 55
14, 55640, Note_on_c, 9, 42, 75
14, 55642, Note_on_c, 9, 54, 0
14, 55647, Note_on_c, 9, 42, 0
14, 55680, Note_on_c, 9, 54, 90
14, 55680, Note_on_c, 9, 42, 90
14, 55680, Note_on_c, 9, 35, 110
14, 55687, Note_on_c, 9, 35, 0
14, 55687, Note_on_c, 9, 42, 0
14, 55687, Note_on_c, 9, 54, 0
14, 55755, Note_on_c, 9, 54, 55
14, 55760, Note_on_c, 9, 42, 75
14, 55762, Note_on_c, 9, 54, 0
14, 55767, Note_on_c, 9, 42, 0
14, 55800, Note_on_c, 9, 54, 90
14, 55800, Note_on_c, 9, 42, 90
14, 55800, Note_on_c, 9, 40, 115
14, 55807, Note_on_c, 9, 40, 0
14, 55807, Note_on_c, 9, 42, 0
14, 55807, Note_on_c, 9, 54, 0
14, 55875, Note_on_c, 9, 54, 55
14, 55880, Note_on_c, 9, 42, 75
14, 55882, Note_on_c, 9, 54, 0
14, 55887, Note_on_c, 9, 42, 0
14, 55920, Note_on_c, 9, 54, 90
14, 55920, Note_on_c, 9, 42, 90
14, 55920, Note_on_c, 9, 35, 110
14, 55927, Note_on_c, 9, 35, 0
14, 55927, Note_on_c, 9, 42, 0
14, 55927, Note_on_c, 9, 54, 0
14, 55995, Note_on_c, 9, 54, 55
14, 56000, Note_on_c, 9, 42, 75
14, 56002, Note_on_c, 9, 54, 0
14, 56007, Note_on_c, 9, 42, 0
14, 56040, Note_on_c, 9, 54, 90
14, 56040, Note_on_c, 9, 42, 90
14, 56040, Note_on_c, 9, 38, 110
14, 56047, Note_on_c, 9, 38, 0
14, 56047, Note_on_c, 9, 42, 0
14, 56047, Note_on_c, 9, 54, 0
14, 56115, Note_on_c, 9, 54, 55
14, 56120, Note_on_c, 9, 42, 75
14, 56122, Note_on_c, 9, 54, 0
14, 56127, Note_on_c, 9, 42, 0
14, 56160, Note_on_c, 9, 54, 90
14, 56160, Note_on_c, 9, 42, 90
14, 56160, Note_on_c, 9, 35, 110
14, 56167, Note_on_c, 9, 35, 0
14, 56167, Note_on_c, 9, 42, 0
14, 56167, Note_on_c, 9, 54, 0
14, 56235, Note_on_c, 9, 54, 55
14, 56240, Note_on_c, 9, 42, 75
14, 56242, Note_on_c, 9, 54, 0
14, 56247, Note_on_c, 9, 42, 0
14, 56280, Note_on_c, 9, 54, 90
14, 56280, Note_on_c, 9, 42, 90
14, 56280, Note_on_c, 9, 40, 115
14, 56287, Note_on_c, 9, 40, 0
14, 56287, Note_on_c, 9, 42, 0
14, 56287, Note_on_c, 9, 54, 0
14, 56355, Note_on_c, 9, 54, 55
14, 56360, Note_on_c, 9, 42, 75
14, 56362, Note_on_c, 9, 54, 0
14, 56367, Note_on_c, 9, 42, 0
14, 56400, Note_on_c, 9, 54, 90
14, 56400, Note_on_c, 9, 42, 90
14, 56400, Note_on_c, 9, 35, 110
14, 56407, Note_on_c, 9, 35, 0
14, 56407, Note_on_c, 9, 42, 0
14, 56407, Note_on_c, 9, 54, 0
14, 56475, Note_on_c, 9, 54, 55
14, 56480, Note_on_c, 9, 42, 75
14, 56482, Note_on_c, 9, 54, 0
14, 56487, Note_on_c, 9, 42, 0
14, 56520, Note_on_c, 9, 54, 90
14, 56520, Note_on_c, 9, 42, 90
14, 56520, Note_on_c, 9, 38, 110
14, 56527, Note_on_c, 9, 38, 0
14, 56527, Note_on_c, 9, 42, 0
14, 56527, Note_on_c, 9, 54, 0
14, 56595, Note_on_c, 9, 54, 55
14, 56600, Note_on_c, 9, 42, 75
14, 56602, Note_on_c, 9, 54, 0
14, 56607, Note_on_c, 9, 42, 0
14, 56640, Note_on_c, 9, 54, 90
14, 56640, Note_on_c, 9, 42, 90
14, 56640, Note_on_c, 9, 35, 110
14, 56647, Note_on_c, 9, 35, 0
14, 56647, Note_on_c, 9, 42, 0
14, 56647, Note_on_c, 9, 54, 0
14, 56715, Note_on_c, 9, 54, 55
14, 56720, Note_on_c, 9, 42, 75
14, 56722, Note_on_c, 9, 54, 0
14, 56727, Note_on_c, 9, 42, 0
14, 56760, Note_on_c, 9, 54, 90
14, 56760, Note_on_c, 9, 42, 90
14, 56760, Note_on_c, 9, 40, 115
14, 56767, Note_on_c, 9, 40, 0
14, 56767, Note_on_c, 9, 42, 0
14, 56767, Note_on_c, 9, 54, 0
14, 56835, Note_on_c, 9, 54, 55
14, 56840, Note_on_c, 9, 42, 75
14, 56842, Note_on_c, 9, 54, 0
14, 56847, Note_on_c, 9, 42, 0
14, 56880, Note_on_c, 9, 54, 90
14, 56880, Note_on_c, 9, 42, 90
14, 56880, Note_on_c, 9, 35, 110
14, 56887, Note_on_c, 9, 35, 0
14, 56887, Note_on_c, 9, 42, 0
14, 56887, Note_on_c, 9, 54, 0
14, 56955, Note_on_c, 9, 54, 55
14, 56960, Note_on_c, 9, 42, 75
14, 56962, Note_on_c, 9, 54, 0
14, 56967, Note_on_c, 9, 42, 0
14, 57000, Note_on_c, 9, 54, 90
14, 57000, Note_on_c, 9, 42, 90
14, 57000, Note_on_c, 9, 38, 110
14, 57007, Note_on_c, 9, 38, 0
14, 57007, Note_on_c, 9, 42, 0
14, 57007, Note_on_c, 9, 54, 0
14, 57075, Note_on_c, 9, 54, 55
14, 57080, Note_on_c, 9, 42, 75
14, 57082, Note_on_c, 9, 54, 0
14, 57087, Note_on_c, 9, 42, 0
14, 57120, Note_on_c, 9, 54, 90
14, 57120, Note_on_c, 9, 42, 90
14, 57120, Note_on_c, 9, 35, 110
14, 57127, Note_on_c, 9, 35, 0
14, 57127, Note_on_c, 9, 42, 0
14, 57127, Note_on_c, 9, 54, 0
14, 57195, Note_on_c, 9, 54, 55
14, 57200, Note_on_c, 9, 42, 75
14, 57202, Note_on_c, 9, 54, 0
14, 57207, Note_on_c, 9, 42, 0
14, 57240, Note_on_c, 9, 54, 90
14, 57240, Note_on_c, 9, 42, 90
14, 57240, Note_on_c, 9, 40, 115
14, 57247, Note_on_c, 9, 40, 0
14, 57247, Note_on_c, 9, 42, 0
14, 57247, Note_on_c, 9, 54, 0
14, 57315, Note_on_c, 9, 54, 55
14, 57320, Note_on_c, 9, 42, 75
14, 57322, Note_on_c, 9, 54, 0
14, 57327, Note_on_c, 9, 42, 0
14, 57360, Note_on_c, 9, 54, 90
14, 57360, Note_on_c, 9, 42, 90
14, 57360, Note_on_c, 9, 35, 110
14, 57367, Note_on_c, 9, 35, 0
14, 57367, Note_on_c, 9, 42, 0
14, 57367, Note_on_c, 9, 54, 0
14, 57435, Note_on_c, 9, 54, 55
14, 57440, Note_on_c, 9, 42, 75
14, 57442, Note_on_c, 9, 54, 0
14, 57447, Note_on_c, 9, 42, 0
14, 57480, Note_on_c, 9, 54, 90
14, 57480, Note_on_c, 9, 42, 90
14, 57480, Note_on_c, 9, 38, 110
14, 57487, Note_on_c, 9, 38, 0
14, 57487, Note_on_c, 9, 42, 0
14, 57487, Note_on_c, 9, 54, 0
14, 57555, Note_on_c, 9, 54, 55
14, 57560, Note_on_c, 9, 42, 75
14, 57562, Note_on_c, 9, 54, 0
14, 57567, Note_on_c, 9, 42, 0
14, 57600, Note_on_c, 9, 54, 90
14, 57600, Note_on_c, 9, 42, 90
14, 57600, Note_on_c, 9, 35, 110
14, 57607, Note_on_c, 9, 35, 0
14, 57607, Note_on_c, 9, 42, 0
14, 57607, Note_on_c, 9, 54, 0
14, 57675, Note_on_c, 9, 54, 55
14, 57680, Note_on_c, 9, 42, 75
14, 57682, Note_on_c, 9, 54, 0
14, 57687, Note_on_c, 9, 42, 0
14, 57720, Note_on_c, 9, 54, 90
14, 57720, Note_on_c, 9, 42, 90
14, 57720, Note_on_c, 9, 40, 115
14, 57727, Note_on_c, 9, 40, 0
14, 57727, Note_on_c, 9, 42, 0
14, 57727, Note_on_c, 9, 54, 0
14, 57795, Note_on_c, 9, 54, 55
14, 57800, Note_on_c, 9, 42, 75
14, 57802, Note_on_c, 9, 54, 0
14, 57807, Note_on_c, 9, 42, 0
14, 57840, Note_on_c, 9, 54, 90
14, 57840, Note_on_c, 9, 42, 90
14, 57840, Note_on_c, 9, 35, 110
14, 57847, Note_on_c, 9, 35, 0
14, 57847, Note_on_c, 9, 42, 0
14, 57847, Note_on_c, 9, 54, 0
14, 57915, Note_on_c, 9, 54, 55
14, 57920, Note_on_c, 9, 42, 75
14, 57922, Note_on_c, 9, 54, 0
14, 57927, Note_on_c, 9, 42, 0
14, 57960, Note_on_c, 9, 54, 90
14, 57960, Note_on_c, 9, 42, 90
14, 57960, Note_on_c, 9, 38, 110
14, 57967, Note_on_c, 9, 38, 0
14, 57967, Note_on_c, 9, 42, 0
14, 57967, Note_on_c, 9, 54, 0
14, 58035, Note_on_c, 9, 54, 55
14, 58040, Note_on_c, 9, 42, 75
14, 58042, Note_on_c, 9, 54, 0
14, 58047, Note_on_c, 9, 42, 0
14, 58080, Note_on_c, 9, 54, 90
14, 58080, Note_on_c, 9, 42, 90
14, 58080, Note_on_c, 9, 35, 110
14, 58087, Note_on_c, 9, 35, 0
14, 58087, Note_on_c, 9, 42, 0
14, 58087, Note_on_c, 9, 54, 0
14, 58155, Note_on_c, 9, 54, 55
14, 58160, Note_on_c, 9, 42, 75
14, 58162, Note_on_c, 9, 54, 0
14, 58167, Note_on_c, 9, 42, 0
14, 58200, Note_on_c, 9, 54, 90
14, 58200, Note_on_c, 9, 42, 90
14, 58200, Note_on_c, 9, 40, 115
14, 58207, Note_on_c, 9, 40, 0
14, 58207, Note_on_c, 9, 42, 0
14, 58207, Note_on_c, 9, 54, 0
14, 58275, Note_on_c, 9, 54, 55
14, 58280, Note_on_c, 9, 42, 75
14, 58282, Note_on_c, 9, 54, 0
14, 58287, Note_on_c, 9, 42, 0
14, 58320, Note_on_c, 9, 54, 90
14, 58320, Note_on_c, 9, 42, 90
14, 58320, Note_on_c, 9, 35, 110
14, 58327, Note_on_c, 9, 35, 0
14, 58327, Note_on_c, 9, 42, 0
14, 58327, Note_on_c, 9, 54, 0
14, 58395, Note_on_c, 9, 54, 55
14, 58400, Note_on_c, 9, 42, 75
14, 58402, Note_on_c, 9, 54, 0
14, 58407, Note_on_c, 9, 42, 0
14, 58440, Note_on_c, 9, 54, 90
14, 58440, Note_on_c, 9, 42, 90
14, 58440, Note_on_c, 9, 38, 110
14, 58447, Note_on_c, 9, 38, 0
14, 58447, Note_on_c, 9, 42, 0
14, 58447, Note_on_c, 9, 54, 0
14, 58515, Note_on_c, 9, 54, 55
14, 58520, Note_on_c, 9, 42, 75
14, 58522, Note_on_c, 9, 54, 0
14, 58527, Note_on_c, 9, 42, 0
14, 58560, Note_on_c, 9, 54, 90
14, 58560, Note_on_c, 9, 42, 90
14, 58560, Note_on_c, 9, 35, 110
14, 58567, Note_on_c, 9, 35, 0
14, 58567, Note_on_c, 9, 42, 0
14, 58567, Note_on_c, 9, 54, 0
14, 58635, Note_on_c, 9, 54, 55
14, 58640, Note_on_c, 9, 42, 75
14, 58640, Note_on_c, 9, 45, 125
14, 58642, Note_on_c, 9, 54, 0
14, 58647, Note_on_c, 9, 45, 0
14, 58647, Note_on_c, 9, 42, 0
14, 58680, Note_on_c, 9, 54, 90
14, 58680, Note_on_c, 9, 42, 90
14, 58680, Note_on_c, 9, 45, 110
14, 58687, Note_on_c, 9, 45, 0
14, 58687, Note_on_c, 9, 42, 0
14, 58687, Note_on_c, 9, 54, 0
14, 58755, Note_on_c, 9, 54, 55
14, 58760, Note_on_c, 9, 42, 75
14, 58760, Note_on_c, 9, 45, 125
14, 58762, Note_on_c, 9, 54, 0
14, 58767, Note_on_c, 9, 45, 0
14, 58767, Note_on_c, 9, 42, 0
14, 58800, Note_on_c, 9, 54, 90
14, 58800, Note_on_c, 9, 42, 90
14, 58800, Note_on_c, 9, 35, 110
14, 58807, Note_on_c, 9, 35, 0
14, 58807, Note_on_c, 9, 42, 0
14, 58807, Note_on_c, 9, 54, 0
14, 58875, Note_on_c, 9, 54, 55
14, 58880, Note_on_c, 9, 42, 75
14, 58880, Note_on_c, 9, 43, 125
14, 58882, Note_on_c, 9, 54, 0
14, 58887, Note_on_c, 9, 43, 0
14, 58887, Note_on_c, 9, 42, 0
14, 58920, Note_on_c, 9, 54, 90
14, 58920, Note_on_c, 9, 42, 90
14, 58920, Note_on_c, 9, 43, 110
14, 58927, Note_on_c, 9, 43, 0
14, 58927, Note_on_c, 9, 42, 0
14, 58927, Note_on_c, 9, 54, 0
14, 58995, Note_on_c, 9, 54, 55
14, 59000, Note_on_c, 9, 42, 75
14, 59000, Note_on_c, 9, 43, 125
14, 59002, Note_on_c, 9, 54, 0
14, 59007, Note_on_c, 9, 43, 0
14, 59007, Note_on_c, 9, 42, 0
14, 59040, Note_on_c, 9, 54, 90
14, 59040, Note_on_c, 9, 49, 90
14, 59040, Note_on_c, 9, 35, 110
14, 59047, Note_on_c, 9, 35, 0
14, 59047, Note_on_c, 9, 49, 0
14, 59047, Note_on_c, 9, 54, 0
14, 59115, Note_on_c, 9, 54, 55
14, 59120, Note_on_c, 9, 42, 75
14, 59122, Note_on_c, 9, 54, 0
14, 59127, Note_on_c, 9, 42, 0
14, 59160, Note_on_c, 9, 54, 90
14, 59160, Note_on_c, 9, 42, 90
14, 59160, Note_on_c, 9, 40, 115
14, 59167, Note_on_c, 9, 40, 0
14, 59167, Note_on_c, 9, 42, 0
14, 59167, Note_on_c, 9, 54, 0
14, 59235, Note_on_c, 9, 54, 55
14, 59240, Note_on_c, 9, 42, 75
14, 59242, Note_on_c, 9, 54, 0
14, 59247, Note_on_c, 9, 42, 0
14, 59280, Note_on_c, 9, 54, 90
14, 59280, Note_on_c, 9, 42, 90
14, 59280, Note_on_c, 9, 35, 110
14, 59287, Note_on_c, 9, 35, 0
14, 59287, Note_on_c, 9, 42, 0
14, 59287, Note_on_c, 9, 54, 0
14, 59355, Note_on_c, 9, 54, 55
14, 59360, Note_on_c, 9, 42, 75
14, 59362, Note_on_c, 9, 54, 0
14, 59367, Note_on_c, 9, 42, 0
14, 59400, Note_on_c, 9, 54, 90
14, 59400, Note_on_c, 9, 42, 90
14, 59400, Note_on_c, 9, 38, 110
14, 59407, Note_on_c, 9, 38, 0
14, 59407, Note_on_c, 9, 42, 0
14, 59407, Note_on_c, 9, 54, 0
14, 59475, Note_on_c, 9, 54, 55
14, 59480, Note_on_c, 9, 42, 75
14, 59482, Note_on_c, 9, 54, 0
14, 59487, Note_on_c, 9, 42, 0
14, 59520, Note_on_c, 9, 54, 90
14, 59520, Note_on_c, 9, 42, 90
14, 59520, Note_on_c, 9, 35, 110
14, 59527, Note_on_c, 9, 35, 0
14, 59527, Note_on_c, 9, 42, 0
14, 59527, Note_on_c, 9, 54, 0
14, 59595, Note_on_c, 9, 54, 55
14, 59600, Note_on_c, 9, 42, 75
14, 59602, Note_on_c, 9, 54, 0
14, 59607, Note_on_c, 9, 42, 0
14, 59640, Note_on_c, 9, 54, 90
14, 59640, Note_on_c, 9, 42, 90
14, 59640, Note_on_c, 9, 40, 115
14, 59647, Note_on_c, 9, 40, 0
14, 59647, Note_on_c, 9, 42, 0
14, 59647, Note_on_c, 9, 54, 0
14, 59715, Note_on_c, 9, 54, 55
14, 59720, Note_on_c, 9, 42, 75
14, 59722, Note_on_c, 9, 54, 0
14, 59727, Note_on_c, 9, 42, 0
14, 59760, Note_on_c, 9, 54, 90
14, 59760, Note_on_c, 9, 42, 90
14, 59760, Note_on_c, 9, 35, 110
14, 59767, Note_on_c, 9, 35, 0
14, 59767, Note_on_c, 9, 42, 0
14, 59767, Note_on_c, 9, 54, 0
14, 59835, Note_on_c, 9, 54, 55
14, 59840, Note_on_c, 9, 42, 75
14, 59842, Note_on_c, 9, 54, 0
14, 59847, Note_on_c, 9, 42, 0
14, 59880, Note_on_c, 9, 54, 90
14, 59880, Note_on_c, 9, 42, 90
14, 59880, Note_on_c, 9, 38, 110
14, 59887, Note_on_c, 9, 38, 0
14, 59887, Note_on_c, 9, 42, 0
14, 59887, Note_on_c, 9, 54, 0
14, 59955, Note_on_c, 9, 54, 55
14, 59960, Note_on_c, 9, 42, 75
14, 59962, Note_on_c, 9, 54, 0
14, 59967, Note_on_c, 9, 42, 0
14, 60000, Note_on_c, 9, 54, 90
14, 60000, Note_on_c, 9, 42, 90
14, 60000, Note_on_c, 9, 35, 110
14, 60007, Note_on_c, 9, 35, 0
14, 60007, Note_on_c, 9, 42, 0
14, 60007, Note_on_c, 9, 54, 0
14, 60075, Note_on_c, 9, 54, 55
14, 60080, Note_on_c, 9, 42, 75
14, 60082, Note_on_c, 9, 54, 0
14, 60087, Note_on_c, 9, 42, 0
14, 60120, Note_on_c, 9, 54, 90
14, 60120, Note_on_c, 9, 42, 90
14, 60120, Note_on_c, 9, 40, 115
14, 60127, Note_on_c, 9, 40, 0
14, 60127, Note_on_c, 9, 42, 0
14, 60127, Note_on_c, 9, 54, 0
14, 60195, Note_on_c, 9, 54, 55
14, 60200, Note_on_c, 9, 42, 75
14, 60202, Note_on_c, 9, 54, 0
14, 60207, Note_on_c, 9, 42, 0
14, 60240, Note_on_c, 9, 54, 90
14, 60240, Note_on_c, 9, 42, 90
14, 60240, Note_on_c, 9, 35, 110
14, 60247, Note_on_c, 9, 35, 0
14, 60247, Note_on_c, 9, 42, 0
14, 60247, Note_on_c, 9, 54, 0
14, 60315, Note_on_c, 9, 54, 55
14, 60320, Note_on_c, 9, 42, 75
14, 60322, Note_on_c, 9, 54, 0
14, 60327, Note_on_c, 9, 42, 0
14, 60360, Note_on_c, 9, 54, 90
14, 60360, Note_on_c, 9, 42, 90
14, 60360, Note_on_c, 9, 38, 110
14, 60367, Note_on_c, 9, 38, 0
14, 60367, Note_on_c, 9, 42, 0
14, 60367, Note_on_c, 9, 54, 0
14, 60435, Note_on_c, 9, 54, 55
14, 60440, Note_on_c, 9, 42, 75
14, 60442, Note_on_c, 9, 54, 0
14, 60447, Note_on_c, 9, 42, 0
14, 60480, Note_on_c, 9, 54, 90
14, 60480, Note_on_c, 9, 42, 90
14, 60480, Note_on_c, 9, 35, 110
14, 60487, Note_on_c, 9, 35, 0
14, 60487, Note_on_c, 9, 42, 0
14, 60487, Note_on_c, 9, 54, 0
14, 60555, Note_on_c, 9, 54, 55
14, 60560, Note_on_c, 9, 42, 75
14, 60562, Note_on_c, 9, 54, 0
14, 60567, Note_on_c, 9, 42, 0
14, 60600, Note_on_c, 9, 54, 90
14, 60600, Note_on_c, 9, 42, 90
14, 60600, Note_on_c, 9, 40, 115
14, 60607, Note_on_c, 9, 40, 0
14, 60607, Note_on_c, 9, 42, 0
14, 60607, Note_on_c, 9, 54, 0
14, 60675, Note_on_c, 9, 54, 55
14, 60680, Note_on_c, 9, 42, 75
14, 60682, Note_on_c, 9, 54, 0
14, 60687, Note_on_c, 9, 42, 0
14, 60720, Note_on_c, 9, 54, 90
14, 60720, Note_on_c, 9, 42, 90
14, 60720, Note_on_c, 9, 35, 110
14, 60727, Note_on_c, 9, 35, 0
14, 60727, Note_on_c, 9, 42, 0
14, 60727, Note_on_c, 9, 54, 0
14, 60795, Note_on_c, 9, 54, 55
14, 60800, Note_on_c, 9, 42, 75
14, 60802, Note_on_c, 9, 54, 0
14, 60807, Note_on_c, 9, 42, 0
14, 60840, Note_on_c, 9, 54, 90
14, 60840, Note_on_c, 9, 42, 90
14, 60840, Note_on_c, 9, 38, 110
14, 60847, Note_on_c, 9, 38, 0
14, 60847, Note_on_c, 9, 42, 0
14, 60847, Note_on_c, 9, 54, 0
14, 60915, Note_on_c, 9, 54, 55
14, 60920, Note_on_c, 9, 42, 75
14, 60922, Note_on_c, 9, 54, 0
14, 60927, Note_on_c, 9, 42, 0
14, 60960, Note_on_c, 9, 54, 90
14, 60960, Note_on_c, 9, 42, 90
14, 60960, Note_on_c, 9, 35, 110
14, 60967, Note_on_c, 9, 35, 0
14, 60967, Note_on_c, 9, 42, 0
14, 60967, Note_on_c, 9, 54, 0
14, 61035, Note_on_c, 9, 54, 55
14, 61040, Note_on_c, 9, 42, 75
14, 61042, Note_on_c, 9, 54, 0
14, 61047, Note_on_c, 9, 42, 0
14, 61080, Note_on_c, 9, 54, 90
14, 61080, Note_on_c, 9, 42, 90
14, 61080, Note_on_c, 9, 40, 115
14, 61087, Note_on_c, 9, 40, 0
14, 61087, Note_on_c, 9, 42, 0
14, 61087, Note_on_c, 9, 54, 0
14, 61155, Note_on_c, 9, 54, 55
14, 61160, Note_on_c, 9, 42, 75
14, 61162, Note_on_c, 9, 54, 0
14, 61167, Note_on_c, 9, 42, 0
14, 61200, Note_on_c, 9, 54, 90
14, 61200, Note_on_c, 9, 42, 90
14, 61200, Note_on_c, 9, 35, 110
14, 61207, Note_on_c, 9, 35, 0
14, 61207, Note_on_c, 9, 42, 0
14, 61207, Note_on_c, 9, 54, 0
14, 61275, Note_on_c, 9, 54, 55
14, 61280, Note_on_c, 9, 42, 75
14, 61282, Note_on_c, 9, 54, 0
14, 61287, Note_on_c, 9, 42, 0
14, 61320, Note_on_c, 9, 54, 90
14, 61320, Note_on_c, 9, 42, 90
14, 61320, Note_on_c, 9, 38, 110
14, 61327, Note_on_c, 9, 38, 0
14, 61327, Note_on_c, 9, 42, 0
14, 61327, Note_on_c, 9, 54, 0
14, 61395, Note_on_c, 9, 54, 55
14, 61400, Note_on_c, 9, 42, 75
14, 61402, Note_on_c, 9, 54, 0
14, 61407, Note_on_c, 9, 42, 0
14, 61440, Note_on_c, 9, 54, 90
14, 61440, Note_on_c, 9, 42, 90
14, 61440, Note_on_c, 9, 35, 110
14, 61447, Note_on_c, 9, 35, 0
14, 61447, Note_on_c, 9, 42, 0
14, 61447, Note_on_c, 9, 54, 0
14, 61515, Note_on_c, 9, 54, 55
14, 61520, Note_on_c, 9, 42, 75
14, 61522, Note_on_c, 9, 54, 0
14, 61527, Note_on_c, 9, 42, 0
14, 61560, Note_on_c, 9, 54, 90
14, 61560, Note_on_c, 9, 42, 90
14, 61560, Note_on_c, 9, 40, 115
14, 61567, Note_on_c, 9, 40, 0
14, 61567, Note_on_c, 9, 42, 0
14, 61567, Note_on_c, 9, 54, 0
14, 61635, Note_on_c, 9, 54, 55
14, 61640, Note_on_c, 9, 42, 75
14, 61642, Note_on_c, 9, 54, 0
14, 61647, Note_on_c, 9, 42, 0
14, 61680, Note_on_c, 9, 54, 90
14, 61680, Note_on_c, 9, 42, 90
14, 61680, Note_on_c, 9, 35, 110
14, 61687, Note_on_c, 9, 35, 0
14, 61687, Note_on_c, 9, 42, 0
14, 61687, Note_on_c, 9, 54, 0
14, 61755, Note_on_c, 9, 54, 55
14, 61760, Note_on_c, 9, 42, 75
14, 61762, Note_on_c, 9, 54, 0
14, 61767, Note_on_c, 9, 42, 0
14, 61800, Note_on_c, 9, 54, 90
14, 61800, Note_on_c, 9, 42, 90
14, 61800, Note_on_c, 9, 38, 110
14, 61807, Note_on_c, 9, 38, 0
14, 61807, Note_on_c, 9, 42, 0
14, 61807, Note_on_c, 9, 54, 0
14, 61875, Note_on_c, 9, 54, 55
14, 61880, Note_on_c, 9, 42, 75
14, 61882, Note_on_c, 9, 54, 0
14, 61887, Note_on_c, 9, 42, 0
14, 61920, Note_on_c, 9, 54, 90
14, 61920, Note_on_c, 9, 42, 90
14, 61920, Note_on_c, 9, 35, 110
14, 61927, Note_on_c, 9, 35, 0
14, 61927, Note_on_c, 9, 42, 0
14, 61927, Note_on_c, 9, 54, 0
14, 61995, Note_on_c, 9, 54, 55
14, 62000, Note_on_c, 9, 42, 75
14, 62002, Note_on_c, 9, 54, 0
14, 62007, Note_on_c, 9, 42, 0
14, 62040, Note_on_c, 9, 54, 90
14, 62040, Note_on_c, 9, 42, 90
14, 62040, Note_on_c, 9, 40, 115
14, 62047, Note_on_c, 9, 40, 0
14, 62047, Note_on_c, 9, 42, 0
14, 62047, Note_on_c, 9, 54, 0
14, 62115, Note_on_c, 9, 54, 55
14, 62120, Note_on_c, 9, 42, 75
14, 62122, Note_on_c, 9, 54, 0
14, 62127, Note_on_c, 9, 42, 0
14, 62160, Note_on_c, 9, 54, 90
14, 62160, Note_on_c, 9, 42, 90
14, 62160, Note_on_c, 9, 35, 110
14, 62167, Note_on_c, 9, 35, 0
14, 62167, Note_on_c, 9, 42, 0
14, 62167, Note_on_c, 9, 54, 0
14, 62235, Note_on_c, 9, 54, 55
14, 62240, Note_on_c, 9, 42, 75
14, 62242, Note_on_c, 9, 54, 0
14, 62247, Note_on_c, 9, 42, 0
14, 62280, Note_on_c, 9, 54, 90
14, 62280, Note_on_c, 9, 42, 90
14, 62280, Note_on_c, 9, 38, 110
14, 62287, Note_on_c, 9, 38, 0
14, 62287, Note_on_c, 9, 42, 0
14, 62287, Note_on_c, 9, 54, 0
14, 62355, Note_on_c, 9, 54, 55
14, 62360, Note_on_c, 9, 42, 75
14, 62362, Note_on_c, 9, 54, 0
14, 62367, Note_on_c, 9, 42, 0
14, 62400, Note_on_c, 9, 54, 90
14, 62400, Note_on_c, 9, 42, 90
14, 62400, Note_on_c, 9, 35, 110
14, 62407, Note_on_c, 9, 35, 0
14, 62407, Note_on_c, 9, 42, 0
14, 62407, Note_on_c, 9, 54, 0
14, 62475, Note_on_c, 9, 54, 55
14, 62480, Note_on_c, 9, 42, 75
14, 62482, Note_on_c, 9, 54, 0
14, 62487, Note_on_c, 9, 42, 0
14, 62520, Note_on_c, 9, 54, 90
14, 62520, Note_on_c, 9, 42, 90
14, 62520, Note_on_c, 9, 40, 115
14, 62527, Note_on_c, 9, 40, 0
14, 62527, Note_on_c, 9, 42, 0
14, 62527, Note_on_c, 9, 54, 0
14, 62595, Note_on_c, 9, 54, 55
14, 62600, Note_on_c, 9, 42, 75
14, 62602, Note_on_c, 9, 54, 0
14, 62607, Note_on_c, 9, 42, 0
14, 62640, Note_on_c, 9, 54, 90
14, 62640, Note_on_c, 9, 42, 90
14, 62640, Note_on_c, 9, 47, 125
14, 62640, Note_on_c, 9, 35, 110
14, 62647, Note_on_c, 9, 35, 0
14, 62647, Note_on_c, 9, 54, 0
14, 62647, Note_on_c, 9, 42, 0
14, 62647, Note_on_c, 9, 47, 0
14, 62680, Note_on_c, 9, 45, 105
14, 62687, Note_on_c, 9, 45, 0
14, 62715, Note_on_c, 9, 54, 55
14, 62720, Note_on_c, 9, 42, 75
14, 62720, Note_on_c, 9, 43, 125
14, 62722, Note_on_c, 9, 54, 0
14, 62727, Note_on_c, 9, 43, 0
14, 62727, Note_on_c, 9, 42, 0
14, 62760, Note_on_c, 9, 54, 90
14, 62760, Note_on_c, 9, 42, 90
14, 62760, Note_on_c, 9, 41, 125
14, 62767, Note_on_c, 9, 41, 0
14, 62767, Note_on_c, 9, 42, 0
14, 62767, Note_on_c, 9, 54, 0
14, 62835, Note_on_c, 9, 54, 55
14, 62840, Note_on_c, 9, 42, 75
14, 62840, Note_on_c, 9, 40, 125
14, 62842, Note_on_c, 9, 54, 0
14, 62847, Note_on_c, 9, 40, 0
14, 62847, Note_on_c, 9, 42, 0
14, 62880, Note_on_c, 9, 54, 90
14, 62880, Note_on_c, 9, 49, 90
14, 62880, Note_on_c, 9, 35, 90
14, 62887, Note_on_c, 9, 35, 0
14, 62887, Note_on_c, 9, 49, 0
14, 62887, Note_on_c, 9, 54, 0
14, 62887, End_track
0, 0, End_of_file
