0, 0, Header, 1, 5, 960
1, 0, Start_track
1, 0, Control_c, 0, 101, 0
1, 0, Control_c, 0, 100, 0
1, 0, Control_c, 0, 6, 12
1, 0, Control_c, 0, 38, 0
1, 0, Control_c, 1, 101, 0
1, 0, Control_c, 1, 100, 0
1, 0, Control_c, 1, 6, 12
1, 0, Control_c, 1, 38, 0
1, 0, Control_c, 2, 101, 0
1, 0, Control_c, 2, 100, 0
1, 0, Control_c, 2, 6, 12
1, 0, Control_c, 2, 38, 0
1, 0, Control_c, 3, 101, 0
1, 0, Control_c, 3, 100, 0
1, 0, Control_c, 3, 6, 12
1, 0, Control_c, 3, 38, 0
1, 0, Control_c, 4, 101, 0
1, 0, Control_c, 4, 100, 0
1, 0, Control_c, 4, 6, 12
1, 0, Control_c, 4, 38, 0
1, 0, Control_c, 5, 101, 0
1, 0, Control_c, 5, 100, 0
1, 0, Control_c, 5, 6, 12
1, 0, Control_c, 5, 38, 0
1, 0, Control_c, 6, 101, 0
1, 0, Control_c, 6, 100, 0
1, 0, Control_c, 6, 6, 12
1, 0, Control_c, 6, 38, 0
1, 0, Control_c, 7, 101, 0
1, 0, Control_c, 7, 100, 0
1, 0, Control_c, 7, 6, 12
1, 0, Control_c, 7, 38, 0
1, 0, Control_c, 8, 101, 0
1, 0, Control_c, 8, 100, 0
1, 0, Control_c, 8, 6, 12
1, 0, Control_c, 8, 38, 0
1, 0, Control_c, 9, 101, 0
1, 0, Control_c, 9, 100, 0
1, 0, Control_c, 9, 6, 12
1, 0, Control_c, 9, 38, 0
1, 0, Control_c, 10, 101, 0
1, 0, Control_c, 10, 100, 0
1, 0, Control_c, 10, 6, 12
1, 0, Control_c, 10, 38, 0
1, 0, Control_c, 11, 101, 0
1, 0, Control_c, 11, 100, 0
1, 0, Control_c, 11, 6, 12
1, 0, Control_c, 11, 38, 0
1, 0, Control_c, 12, 101, 0
1, 0, Control_c, 12, 100, 0
1, 0, Control_c, 12, 6, 12
1, 0, Control_c, 12, 38, 0
1, 0, Control_c, 13, 101, 0
1, 0, Control_c, 13, 100, 0
1, 0, Control_c, 13, 6, 12
1, 0, Control_c, 13, 38, 0
1, 0, Control_c, 14, 101, 0
1, 0, Control_c, 14, 100, 0
1, 0, Control_c, 14, 6, 12
1, 0, Control_c, 14, 38, 0
1, 0, Control_c, 15, 101, 0
1, 0, Control_c, 15, 100, 0
1, 0, Control_c, 15, 6, 12
1, 0, Control_c, 15, 38, 0
1, 0, Time_signature, 4, 2, 24, 8
1, 0, Tempo, 365853
1, 0, End_track
2, 0, Start_track
2, 0, Pitch_bend_c, 0, 8192
2, 0, Control_c, 0, 7, 127
2, 0, Control_c, 0, 10, 63
2, 0, Control_c, 0, 93, 0
2, 0, Control_c, 0, 91, 0
2, 0, Control_c, 0, 95, 0
2, 0, Control_c, 0, 92, 0
2, 0, Control_c, 0, 11, 127
2, 0, Program_c, 0, 30
2, 0, Control_c, 1, 7, 127
2, 0, Control_c, 1, 10, 63
2, 0, Control_c, 1, 93, 0
2, 0, Control_c, 1, 91, 0
2, 0, Control_c, 1, 95, 0
2, 0, Control_c, 1, 92, 0
2, 0, Control_c, 1, 11, 127
2, 0, Program_c, 1, 30
2, 36420, Note_on_c, 1, 62, 95
2, 36480, Note_off_c, 1, 62, 95
2, 36480, Note_on_c, 1, 64, 95
2, 37440, Note_off_c, 1, 64, 95
2, 37440, Note_on_c, 0, 67, 95
2, 38400, Note_off_c, 0, 67, 95
2, 38400, Pitch_bend_c, 1, 8192
2, 38400, Note_on_c, 1, 69, 95
2, 38487, Pitch_bend_c, 1, 8320
2, 38574, Pitch_bend_c, 1, 8448
2, 38661, Pitch_bend_c, 1, 8576
2, 38748, Pitch_bend_c, 1, 8704
2, 38835, Pitch_bend_c, 1, 8832
2, 38922, Pitch_bend_c, 1, 8960
2, 39009, Pitch_bend_c, 1, 9088
2, 39096, Pitch_bend_c, 1, 9216
2, 39183, Pitch_bend_c, 1, 9344
2, 39270, Pitch_bend_c, 1, 9472
2, 39357, Pitch_bend_c, 1, 9600
2, 39360, Pitch_bend_c, 1, 9600
2, 40320, Pitch_bend_c, 1, 9600
2, 40320, Pitch_bend_c, 1, 8192
2, 40320, Note_off_c, 1, 69, 95
2, 40320, Pitch_bend_c, 1, 8192
2, 40320, Note_on_c, 1, 69, 95
2, 40341, Pitch_bend_c, 1, 8320
2, 40362, Pitch_bend_c, 1, 8448
2, 40383, Pitch_bend_c, 1, 8576
2, 40404, Pitch_bend_c, 1, 8704
2, 40425, Pitch_bend_c, 1, 8832
2, 40446, Pitch_bend_c, 1, 8960
2, 40467, Pitch_bend_c, 1, 9088
2, 40488, Pitch_bend_c, 1, 9216
2, 40509, Pitch_bend_c, 1, 9344
2, 40530, Pitch_bend_c, 1, 9472
2, 40551, Pitch_bend_c, 1, 9600
2, 40560, Pitch_bend_c, 1, 9600
2, 40800, Pitch_bend_c, 1, 9600
2, 40821, Pitch_bend_c, 1, 9472
2, 40842, Pitch_bend_c, 1, 9344
2, 40863, Pitch_bend_c, 1, 9216
2, 40884, Pitch_bend_c, 1, 9088
2, 40905, Pitch_bend_c, 1, 8960
2, 40926, Pitch_bend_c, 1, 8832
2, 40947, Pitch_bend_c, 1, 8704
2, 40968, Pitch_bend_c, 1, 8576
2, 40989, Pitch_bend_c, 1, 8448
2, 41010, Pitch_bend_c, 1, 8320
2, 41031, Pitch_bend_c, 1, 8192
2, 41040, Pitch_bend_c, 1, 8192
2, 41280, Pitch_bend_c, 1, 8192
2, 41280, Pitch_bend_c, 1, 8192
2, 41280, Note_off_c, 1, 69, 95
2, 41280, Note_on_c, 0, 67, 95
2, 41760, Note_off_c, 0, 67, 95
2, 41760, Note_on_c, 0, 69, 95
2, 46080, Note_off_c, 0, 69, 95
2, 46080, Note_on_c, 0, 74, 95
2, 47040, Note_off_c, 0, 74, 95
2, 47040, Note_on_c, 0, 71, 95
2, 48000, Note_off_c, 0, 71, 95
2, 48000, Pitch_bend_c, 1, 8192
2, 48000, Note_on_c, 1, 69, 95
2, 48021, Pitch_bend_c, 1, 8320
2, 48042, Pitch_bend_c, 1, 8448
2, 48063, Pitch_bend_c, 1, 8576
2, 48084, Pitch_bend_c, 1, 8704
2, 48105, Pitch_bend_c, 1, 8832
2, 48126, Pitch_bend_c, 1, 8960
2, 48147, Pitch_bend_c, 1, 9088
2, 48168, Pitch_bend_c, 1, 9216
2, 48189, Pitch_bend_c, 1, 9344
2, 48210, Pitch_bend_c, 1, 9472
2, 48231, Pitch_bend_c, 1, 9600
2, 48240, Pitch_bend_c, 1, 9600
2, 48480, Pitch_bend_c, 1, 9600
2, 48501, Pitch_bend_c, 1, 9472
2, 48522, Pitch_bend_c, 1, 9344
2, 48543, Pitch_bend_c, 1, 9216
2, 48564, Pitch_bend_c, 1, 9088
2, 48585, Pitch_bend_c, 1, 8960
2, 48606, Pitch_bend_c, 1, 8832
2, 48627, Pitch_bend_c, 1, 8704
2, 48648, Pitch_bend_c, 1, 8576
2, 48669, Pitch_bend_c, 1, 8448
2, 48690, Pitch_bend_c, 1, 8320
2, 48711, Pitch_bend_c, 1, 8192
2, 48720, Pitch_bend_c, 1, 8192
2, 48960, Pitch_bend_c, 1, 8192
2, 48960, Pitch_bend_c, 1, 8192
2, 48960, Note_off_c, 1, 69, 95
2, 48960, Note_on_c, 0, 67, 95
2, 49440, Note_off_c, 0, 67, 95
2, 49440, Note_on_c, 0, 69, 95
2, 53760, Note_off_c, 0, 69, 95
2, 53760, Pitch_bend_c, 1, 8192
2, 53760, Note_on_c, 1, 69, 95
2, 53847, Pitch_bend_c, 1, 8320
2, 53934, Pitch_bend_c, 1, 8448
2, 54021, Pitch_bend_c, 1, 8576
2, 54108, Pitch_bend_c, 1, 8704
2, 54195, Pitch_bend_c, 1, 8832
2, 54282, Pitch_bend_c, 1, 8960
2, 54369, Pitch_bend_c, 1, 9088
2, 54456, Pitch_bend_c, 1, 9216
2, 54543, Pitch_bend_c, 1, 9344
2, 54630, Pitch_bend_c, 1, 9472
2, 54717, Pitch_bend_c, 1, 9600
2, 54720, Pitch_bend_c, 1, 9600
2, 55680, Pitch_bend_c, 1, 9600
2, 55680, Pitch_bend_c, 1, 8192
2, 55680, Note_off_c, 1, 69, 95
2, 55680, Pitch_bend_c, 1, 8192
2, 55680, Note_on_c, 1, 69, 95
2, 55701, Pitch_bend_c, 1, 8320
2, 55722, Pitch_bend_c, 1, 8448
2, 55743, Pitch_bend_c, 1, 8576
2, 55764, Pitch_bend_c, 1, 8704
2, 55785, Pitch_bend_c, 1, 8832
2, 55806, Pitch_bend_c, 1, 8960
2, 55827, Pitch_bend_c, 1, 9088
2, 55848, Pitch_bend_c, 1, 9216
2, 55869, Pitch_bend_c, 1, 9344
2, 55890, Pitch_bend_c, 1, 9472
2, 55911, Pitch_bend_c, 1, 9600
2, 55920, Pitch_bend_c, 1, 9600
2, 56160, Pitch_bend_c, 1, 9600
2, 56181, Pitch_bend_c, 1, 9472
2, 56202, Pitch_bend_c, 1, 9344
2, 56223, Pitch_bend_c, 1, 9216
2, 56244, Pitch_bend_c, 1, 9088
2, 56265, Pitch_bend_c, 1, 8960
2, 56286, Pitch_bend_c, 1, 8832
2, 56307, Pitch_bend_c, 1, 8704
2, 56328, Pitch_bend_c, 1, 8576
2, 56349, Pitch_bend_c, 1, 8448
2, 56370, Pitch_bend_c, 1, 8320
2, 56391, Pitch_bend_c, 1, 8192
2, 56400, Pitch_bend_c, 1, 8192
2, 56640, Pitch_bend_c, 1, 8192
2, 56640, Pitch_bend_c, 1, 8192
2, 56640, Note_off_c, 1, 69, 95
2, 56640, Note_on_c, 0, 67, 95
2, 57120, Note_off_c, 0, 67, 95
2, 57120, Pitch_bend_c, 1, 8192
2, 57120, Note_on_c, 1, 69, 95
2, 57490, Pitch_bend_c, 1, 8320
2, 57860, Pitch_bend_c, 1, 8448
2, 58230, Pitch_bend_c, 1, 8576
2, 58600, Pitch_bend_c, 1, 8704
2, 58970, Pitch_bend_c, 1, 8832
2, 59340, Pitch_bend_c, 1, 8960
2, 59710, Pitch_bend_c, 1, 9088
2, 60080, Pitch_bend_c, 1, 9216
2, 60450, Pitch_bend_c, 1, 9344
2, 60820, Pitch_bend_c, 1, 9472
2, 61190, Pitch_bend_c, 1, 9600
2, 61200, Pitch_bend_c, 1, 9600
2, 65280, Pitch_bend_c, 1, 9600
2, 65280, Pitch_bend_c, 1, 8192
2, 65280, Note_off_c, 1, 69, 95
2, 67140, Note_on_c, 1, 62, 95
2, 67200, Note_off_c, 1, 62, 95
2, 67200, Note_on_c, 1, 64, 95
2, 68160, Note_on_c, 0, 67, 95
2, 69120, Note_off_c, 0, 67, 95
2, 69120, Pitch_bend_c, 1, 8192
2, 69120, Note_on_c, 1, 69, 95
2, 69207, Pitch_bend_c, 1, 8320
2, 69294, Pitch_bend_c, 1, 8448
2, 69381, Pitch_bend_c, 1, 8576
2, 69468, Pitch_bend_c, 1, 8704
2, 69555, Pitch_bend_c, 1, 8832
2, 69642, Pitch_bend_c, 1, 8960
2, 69729, Pitch_bend_c, 1, 9088
2, 69816, Pitch_bend_c, 1, 9216
2, 69903, Pitch_bend_c, 1, 9344
2, 69990, Pitch_bend_c, 1, 9472
2, 70077, Pitch_bend_c, 1, 9600
2, 70080, Pitch_bend_c, 1, 9600
2, 71040, Pitch_bend_c, 1, 9600
2, 71040, Pitch_bend_c, 1, 8192
2, 71040, Note_off_c, 1, 69, 95
2, 71040, Pitch_bend_c, 1, 8192
2, 71040, Note_on_c, 1, 69, 95
2, 71061, Pitch_bend_c, 1, 8320
2, 71082, Pitch_bend_c, 1, 8448
2, 71103, Pitch_bend_c, 1, 8576
2, 71124, Pitch_bend_c, 1, 8704
2, 71145, Pitch_bend_c, 1, 8832
2, 71166, Pitch_bend_c, 1, 8960
2, 71187, Pitch_bend_c, 1, 9088
2, 71208, Pitch_bend_c, 1, 9216
2, 71229, Pitch_bend_c, 1, 9344
2, 71250, Pitch_bend_c, 1, 9472
2, 71271, Pitch_bend_c, 1, 9600
2, 71280, Pitch_bend_c, 1, 9600
2, 71520, Pitch_bend_c, 1, 9600
2, 71541, Pitch_bend_c, 1, 9472
2, 71562, Pitch_bend_c, 1, 9344
2, 71583, Pitch_bend_c, 1, 9216
2, 71604, Pitch_bend_c, 1, 9088
2, 71625, Pitch_bend_c, 1, 8960
2, 71646, Pitch_bend_c, 1, 8832
2, 71667, Pitch_bend_c, 1, 8704
2, 71688, Pitch_bend_c, 1, 8576
2, 71709, Pitch_bend_c, 1, 8448
2, 71730, Pitch_bend_c, 1, 8320
2, 71751, Pitch_bend_c, 1, 8192
2, 71760, Pitch_bend_c, 1, 8192
2, 72000, Pitch_bend_c, 1, 8192
2, 72000, Pitch_bend_c, 1, 8192
2, 72000, Note_off_c, 1, 69, 95
2, 72000, Note_on_c, 0, 67, 95
2, 72480, Note_off_c, 0, 67, 95
2, 72480, Note_on_c, 0, 69, 95
2, 76800, Note_off_c, 0, 69, 95
2, 76800, Pitch_bend_c, 1, 8192
2, 76800, Note_on_c, 1, 74, 95
2, 76887, Pitch_bend_c, 1, 8320
2, 76974, Pitch_bend_c, 1, 8448
2, 77061, Pitch_bend_c, 1, 8576
2, 77148, Pitch_bend_c, 1, 8704
2, 77235, Pitch_bend_c, 1, 8832
2, 77322, Pitch_bend_c, 1, 8960
2, 77409, Pitch_bend_c, 1, 9088
2, 77496, Pitch_bend_c, 1, 9216
2, 77583, Pitch_bend_c, 1, 9344
2, 77670, Pitch_bend_c, 1, 9472
2, 77757, Pitch_bend_c, 1, 9600
2, 77760, Pitch_bend_c, 1, 9600
2, 78720, Pitch_bend_c, 1, 9600
2, 78720, Pitch_bend_c, 1, 8192
2, 78720, Note_off_c, 1, 74, 95
2, 78720, Pitch_bend_c, 1, 8192
2, 78720, Note_on_c, 1, 74, 95
2, 78741, Pitch_bend_c, 1, 8320
2, 78762, Pitch_bend_c, 1, 8448
2, 78783, Pitch_bend_c, 1, 8576
2, 78804, Pitch_bend_c, 1, 8704
2, 78825, Pitch_bend_c, 1, 8832
2, 78846, Pitch_bend_c, 1, 8960
2, 78867, Pitch_bend_c, 1, 9088
2, 78888, Pitch_bend_c, 1, 9216
2, 78909, Pitch_bend_c, 1, 9344
2, 78930, Pitch_bend_c, 1, 9472
2, 78951, Pitch_bend_c, 1, 9600
2, 78960, Pitch_bend_c, 1, 9600
2, 79200, Pitch_bend_c, 1, 9600
2, 79221, Pitch_bend_c, 1, 9472
2, 79242, Pitch_bend_c, 1, 9344
2, 79263, Pitch_bend_c, 1, 9216
2, 79284, Pitch_bend_c, 1, 9088
2, 79305, Pitch_bend_c, 1, 8960
2, 79326, Pitch_bend_c, 1, 8832
2, 79347, Pitch_bend_c, 1, 8704
2, 79368, Pitch_bend_c, 1, 8576
2, 79389, Pitch_bend_c, 1, 8448
2, 79410, Pitch_bend_c, 1, 8320
2, 79431, Pitch_bend_c, 1, 8192
2, 79440, Pitch_bend_c, 1, 8192
2, 79680, Pitch_bend_c, 1, 8192
2, 79680, Pitch_bend_c, 1, 8192
2, 79680, Note_off_c, 1, 74, 95
2, 79680, Note_on_c, 0, 71, 95
2, 80160, Note_off_c, 0, 71, 95
2, 80160, Pitch_bend_c, 1, 8192
2, 80160, Note_on_c, 1, 74, 95
2, 80290, Pitch_bend_c, 1, 8320
2, 80420, Pitch_bend_c, 1, 8448
2, 80550, Pitch_bend_c, 1, 8576
2, 80680, Pitch_bend_c, 1, 8704
2, 80810, Pitch_bend_c, 1, 8832
2, 80940, Pitch_bend_c, 1, 8960
2, 81070, Pitch_bend_c, 1, 9088
2, 81200, Pitch_bend_c, 1, 9216
2, 81330, Pitch_bend_c, 1, 9344
2, 81460, Pitch_bend_c, 1, 9472
2, 81590, Pitch_bend_c, 1, 9600
2, 81600, Pitch_bend_c, 1, 9600
2, 83040, Pitch_bend_c, 1, 9600
2, 83040, Pitch_bend_c, 1, 8192
2, 83040, Note_off_c, 1, 74, 95
2, 83040, Note_on_c, 0, 76, 95
2, 83520, Note_off_c, 0, 76, 95
2, 83520, Note_on_c, 0, 79, 95
2, 84000, Note_off_c, 0, 79, 95
2, 84000, Note_on_c, 0, 76, 95
2, 84480, Note_off_c, 0, 76, 95
2, 84480, Pitch_bend_c, 1, 8192
2, 84480, Note_on_c, 1, 81, 95
2, 84567, Pitch_bend_c, 1, 8320
2, 84654, Pitch_bend_c, 1, 8448
2, 84741, Pitch_bend_c, 1, 8576
2, 84828, Pitch_bend_c, 1, 8704
2, 84915, Pitch_bend_c, 1, 8832
2, 85002, Pitch_bend_c, 1, 8960
2, 85089, Pitch_bend_c, 1, 9088
2, 85176, Pitch_bend_c, 1, 9216
2, 85263, Pitch_bend_c, 1, 9344
2, 85350, Pitch_bend_c, 1, 9472
2, 85437, Pitch_bend_c, 1, 9600
2, 85440, Pitch_bend_c, 1, 9600
2, 86400, Pitch_bend_c, 1, 9600
2, 86400, Pitch_bend_c, 1, 8192
2, 86400, Note_off_c, 1, 81, 95
2, 86400, Pitch_bend_c, 1, 8192
2, 86400, Note_on_c, 1, 81, 95
2, 86421, Pitch_bend_c, 1, 8320
2, 86442, Pitch_bend_c, 1, 8448
2, 86463, Pitch_bend_c, 1, 8576
2, 86484, Pitch_bend_c, 1, 8704
2, 86505, Pitch_bend_c, 1, 8832
2, 86526, Pitch_bend_c, 1, 8960
2, 86547, Pitch_bend_c, 1, 9088
2, 86568, Pitch_bend_c, 1, 9216
2, 86589, Pitch_bend_c, 1, 9344
2, 86610, Pitch_bend_c, 1, 9472
2, 86631, Pitch_bend_c, 1, 9600
2, 86640, Pitch_bend_c, 1, 9600
2, 86880, Pitch_bend_c, 1, 9600
2, 86901, Pitch_bend_c, 1, 9472
2, 86922, Pitch_bend_c, 1, 9344
2, 86943, Pitch_bend_c, 1, 9216
2, 86964, Pitch_bend_c, 1, 9088
2, 86985, Pitch_bend_c, 1, 8960
2, 87006, Pitch_bend_c, 1, 8832
2, 87027, Pitch_bend_c, 1, 8704
2, 87048, Pitch_bend_c, 1, 8576
2, 87069, Pitch_bend_c, 1, 8448
2, 87090, Pitch_bend_c, 1, 8320
2, 87111, Pitch_bend_c, 1, 8192
2, 87120, Pitch_bend_c, 1, 8192
2, 87360, Pitch_bend_c, 1, 8192
2, 87360, Pitch_bend_c, 1, 8192
2, 87360, Note_off_c, 1, 81, 95
2, 87360, Note_on_c, 0, 79, 95
2, 87840, Note_off_c, 0, 79, 95
2, 87840, Pitch_bend_c, 1, 8192
2, 87840, Note_on_c, 1, 81, 95
2, 88036, Pitch_bend_c, 1, 8320
2, 88232, Pitch_bend_c, 1, 8448
2, 88428, Pitch_bend_c, 1, 8576
2, 88624, Pitch_bend_c, 1, 8704
2, 88820, Pitch_bend_c, 1, 8832
2, 89016, Pitch_bend_c, 1, 8960
2, 89212, Pitch_bend_c, 1, 9088
2, 89408, Pitch_bend_c, 1, 9216
2, 89604, Pitch_bend_c, 1, 9344
2, 89800, Pitch_bend_c, 1, 9472
2, 89996, Pitch_bend_c, 1, 9600
2, 90000, Pitch_bend_c, 1, 9600
2, 92160, Pitch_bend_c, 1, 9600
2, 92160, Pitch_bend_c, 1, 8192
2, 92160, Note_off_c, 1, 81, 95
2, 92160, Note_on_c, 0, 86, 95
2, 96000, Note_off_c, 0, 86, 95
2, 96480, Note_off_c, 1, 64, 95
2, 96480, Note_on_c, 0, 52, 95
2, 96960, Note_off_c, 0, 52, 95
2, 96960, Note_on_c, 0, 59, 95
2, 96960, Note_on_c, 0, 52, 95
2, 97440, Note_off_c, 0, 59, 95
2, 97440, Note_off_c, 0, 52, 95
2, 97440, Note_on_c, 0, 52, 95
2, 97920, Note_off_c, 0, 52, 95
2, 97920, Note_on_c, 0, 52, 95
2, 98400, Note_off_c, 0, 52, 95
2, 98400, Note_on_c, 0, 52, 95
2, 98880, Note_off_c, 0, 52, 95
2, 98880, Note_on_c, 0, 59, 95
2, 98880, Note_on_c, 0, 52, 95
2, 99360, Note_off_c, 0, 59, 95
2, 99360, Note_off_c, 0, 52, 95
2, 99360, Note_on_c, 0, 52, 95
2, 99840, Note_off_c, 0, 52, 95
2, 99840, Note_on_c, 0, 52, 95
2, 100320, Note_off_c, 0, 52, 95
2, 100320, Note_on_c, 0, 52, 95
2, 100800, Note_off_c, 0, 52, 95
2, 100800, Note_on_c, 0, 59, 95
2, 100800, Note_on_c, 0, 52, 95
2, 101280, Note_off_c, 0, 59, 95
2, 101280, Note_off_c, 0, 52, 95
2, 101280, Note_on_c, 0, 52, 95
2, 101760, Note_off_c, 0, 52, 95
2, 101760, Note_on_c, 0, 52, 95
2, 102240, Note_off_c, 0, 52, 95
2, 102240, Note_on_c, 0, 52, 95
2, 102720, Note_off_c, 0, 52, 95
2, 102720, Note_on_c, 0, 59, 95
2, 102720, Note_on_c, 0, 52, 95
2, 103200, Note_off_c, 0, 59, 95
2, 103200, Note_off_c, 0, 52, 95
2, 103200, Note_on_c, 0, 55, 95
2, 103200, Note_on_c, 0, 48, 95
2, 104160, Note_off_c, 0, 55, 95
2, 104160, Note_off_c, 0, 48, 95
2, 104160, Note_on_c, 0, 48, 95
2, 104640, Note_off_c, 0, 48, 95
2, 104640, Note_on_c, 0, 55, 95
2, 104640, Note_on_c, 0, 48, 95
2, 105120, Note_off_c, 0, 55, 95
2, 105120, Note_off_c, 0, 48, 95
2, 105120, Note_on_c, 0, 48, 95
2, 105600, Note_off_c, 0, 48, 95
2, 105600, Note_on_c, 0, 48, 95
2, 106080, Note_off_c, 0, 48, 95
2, 106080, Note_on_c, 0, 48, 95
2, 106560, Note_off_c, 0, 48, 95
2, 106560, Note_on_c, 0, 55, 95
2, 106560, Note_on_c, 0, 48, 95
2, 107040, Note_off_c, 0, 55, 95
2, 107040, Note_off_c, 0, 48, 95
2, 107040, Note_on_c, 0, 48, 95
2, 107520, Note_off_c, 0, 48, 95
2, 107520, Note_on_c, 0, 48, 95
2, 108000, Note_off_c, 0, 48, 95
2, 108000, Note_on_c, 0, 48, 95
2, 108480, Note_off_c, 0, 48, 95
2, 108480, Note_on_c, 0, 55, 95
2, 108480, Note_on_c, 0, 48, 95
2, 108960, Note_off_c, 0, 55, 95
2, 108960, Note_off_c, 0, 48, 95
2, 108960, Note_on_c, 0, 48, 95
2, 109440, Note_off_c, 0, 48, 95
2, 109440, Note_on_c, 0, 48, 95
2, 109920, Note_off_c, 0, 48, 95
2, 109920, Note_on_c, 0, 48, 95
2, 110400, Note_off_c, 0, 48, 95
2, 110400, Note_on_c, 0, 55, 95
2, 110400, Note_on_c, 0, 48, 95
2, 110880, Note_off_c, 0, 55, 95
2, 110880, Note_off_c, 0, 48, 95
2, 110880, Note_on_c, 0, 59, 95
2, 110880, Note_on_c, 0, 52, 95
2, 111840, Note_off_c, 0, 59, 95
2, 111840, Note_off_c, 0, 52, 95
2, 111840, Note_on_c, 0, 52, 95
2, 112320, Note_off_c, 0, 52, 95
2, 112320, Note_on_c, 0, 59, 95
2, 112320, Note_on_c, 0, 52, 95
2, 112800, Note_off_c, 0, 59, 95
2, 112800, Note_off_c, 0, 52, 95
2, 112800, Note_on_c, 0, 52, 95
2, 113280, Note_off_c, 0, 52, 95
2, 113280, Note_on_c, 0, 52, 95
2, 113760, Note_off_c, 0, 52, 95
2, 113760, Note_on_c, 0, 52, 95
2, 114240, Note_off_c, 0, 52, 95
2, 114240, Note_on_c, 0, 59, 95
2, 114240, Note_on_c, 0, 52, 95
2, 114720, Note_off_c, 0, 59, 95
2, 114720, Note_off_c, 0, 52, 95
2, 114720, Note_on_c, 0, 52, 95
2, 115200, Note_off_c, 0, 52, 95
2, 115200, Note_on_c, 0, 52, 95
2, 115680, Note_off_c, 0, 52, 95
2, 115680, Note_on_c, 0, 52, 95
2, 116160, Note_off_c, 0, 52, 95
2, 116160, Note_on_c, 0, 59, 95
2, 116160, Note_on_c, 0, 52, 95
2, 116640, Note_off_c, 0, 59, 95
2, 116640, Note_off_c, 0, 52, 95
2, 116640, Note_on_c, 0, 52, 95
2, 117120, Note_off_c, 0, 52, 95
2, 117120, Note_on_c, 0, 52, 95
2, 117600, Note_off_c, 0, 52, 95
2, 117600, Note_on_c, 0, 52, 95
2, 118080, Note_off_c, 0, 52, 95
2, 118080, Note_on_c, 0, 59, 95
2, 118080, Note_on_c, 0, 52, 95
2, 118560, Note_off_c, 0, 59, 95
2, 118560, Note_off_c, 0, 52, 95
2, 118560, Note_on_c, 0, 55, 95
2, 118560, Note_on_c, 0, 48, 95
2, 119520, Note_off_c, 0, 55, 95
2, 119520, Note_off_c, 0, 48, 95
2, 119520, Note_on_c, 0, 48, 95
2, 120000, Note_off_c, 0, 48, 95
2, 120000, Note_on_c, 0, 55, 95
2, 120000, Note_on_c, 0, 48, 95
2, 120480, Note_off_c, 0, 55, 95
2, 120480, Note_off_c, 0, 48, 95
2, 120480, Note_on_c, 0, 48, 95
2, 120960, Note_off_c, 0, 48, 95
2, 120960, Note_on_c, 0, 48, 95
2, 121440, Note_off_c, 0, 48, 95
2, 121440, Note_on_c, 0, 48, 95
2, 121920, Note_off_c, 0, 48, 95
2, 121920, Note_on_c, 0, 55, 95
2, 121920, Note_on_c, 0, 48, 95
2, 122400, Note_off_c, 0, 55, 95
2, 122400, Note_off_c, 0, 48, 95
2, 122400, Note_on_c, 0, 48, 95
2, 122880, Note_off_c, 0, 48, 95
2, 122880, Note_on_c, 0, 48, 95
2, 123360, Note_off_c, 0, 48, 95
2, 123360, Note_on_c, 0, 48, 95
2, 123840, Note_off_c, 0, 48, 95
2, 123840, Note_on_c, 0, 55, 95
2, 123840, Note_on_c, 0, 48, 95
2, 124320, Note_off_c, 0, 55, 95
2, 124320, Note_off_c, 0, 48, 95
2, 124320, Note_on_c, 0, 48, 95
2, 124800, Note_off_c, 0, 48, 95
2, 124800, Note_on_c, 0, 48, 95
2, 125280, Note_off_c, 0, 48, 95
2, 125280, Note_on_c, 0, 48, 95
2, 125760, Note_off_c, 0, 48, 95
2, 125760, Note_on_c, 0, 55, 95
2, 125760, Note_on_c, 0, 48, 95
2, 126240, Note_off_c, 0, 55, 95
2, 126240, Note_off_c, 0, 48, 95
2, 126240, Note_on_c, 0, 59, 95
2, 126240, Note_on_c, 0, 52, 95
2, 127200, Note_off_c, 0, 59, 95
2, 127200, Note_off_c, 0, 52, 95
2, 127200, Note_on_c, 0, 52, 95
2, 127440, Note_off_c, 0, 52, 95
2, 127440, Note_on_c, 0, 52, 95
2, 127680, Note_off_c, 0, 52, 95
2, 127680, Note_on_c, 0, 59, 95
2, 127680, Note_on_c, 0, 52, 95
2, 128160, Note_off_c, 0, 59, 95
2, 128160, Note_off_c, 0, 52, 95
2, 128160, Note_on_c, 0, 52, 95
2, 128400, Note_off_c, 0, 52, 95
2, 128400, Note_on_c, 0, 52, 95
2, 128640, Note_off_c, 0, 52, 95
2, 128640, Note_on_c, 0, 57, 95
2, 128640, Note_on_c, 0, 52, 95
2, 129120, Note_off_c, 0, 57, 95
2, 129120, Note_off_c, 0, 52, 95
2, 129120, Note_on_c, 0, 59, 95
2, 129120, Note_on_c, 0, 52, 95
2, 129600, Note_off_c, 0, 59, 95
2, 129600, Note_off_c, 0, 52, 95
2, 129600, Note_on_c, 0, 52, 95
2, 129840, Note_off_c, 0, 52, 95
2, 129840, Note_on_c, 0, 52, 95
2, 130080, Note_off_c, 0, 52, 95
2, 130080, Note_on_c, 0, 52, 95
2, 130320, Note_off_c, 0, 52, 95
2, 130320, Note_on_c, 0, 52, 95
2, 130560, Note_off_c, 0, 52, 95
2, 130560, Note_on_c, 0, 59, 95
2, 130560, Note_on_c, 0, 52, 95
2, 131040, Note_off_c, 0, 59, 95
2, 131040, Note_off_c, 0, 52, 95
2, 131040, Note_on_c, 0, 52, 95
2, 131280, Note_off_c, 0, 52, 95
2, 131280, Note_on_c, 0, 52, 95
2, 131520, Note_off_c, 0, 52, 95
2, 131520, Note_on_c, 0, 59, 95
2, 131520, Note_on_c, 0, 52, 95
2, 132000, Note_off_c, 0, 59, 95
2, 132000, Note_off_c, 0, 52, 95
2, 132000, Note_on_c, 0, 52, 95
2, 132240, Note_off_c, 0, 52, 95
2, 132240, Note_on_c, 0, 52, 95
2, 132480, Note_off_c, 0, 52, 95
2, 132480, Note_on_c, 0, 57, 95
2, 132480, Note_on_c, 0, 52, 95
2, 132960, Note_off_c, 0, 57, 95
2, 132960, Note_off_c, 0, 52, 95
2, 132960, Note_on_c, 0, 52, 95
2, 133200, Note_off_c, 0, 52, 95
2, 133200, Note_on_c, 0, 52, 95
2, 133440, Note_off_c, 0, 52, 95
2, 133440, Note_on_c, 0, 59, 95
2, 133440, Note_on_c, 0, 52, 95
2, 133920, Note_off_c, 0, 59, 95
2, 133920, Note_off_c, 0, 52, 95
2, 133920, Note_on_c, 0, 60, 95
2, 133920, Note_on_c, 0, 55, 95
2, 133920, Note_on_c, 0, 48, 95
2, 134880, Note_off_c, 0, 60, 95
2, 134880, Note_off_c, 0, 55, 95
2, 134880, Note_off_c, 0, 48, 95
2, 134880, Note_on_c, 0, 48, 95
2, 135120, Note_off_c, 0, 48, 95
2, 135120, Note_on_c, 0, 48, 95
2, 135360, Note_off_c, 0, 48, 95
2, 135360, Note_on_c, 0, 60, 95
2, 135360, Note_on_c, 0, 55, 95
2, 135360, Note_on_c, 0, 48, 95
2, 135840, Note_off_c, 0, 60, 95
2, 135840, Note_off_c, 0, 55, 95
2, 135840, Note_off_c, 0, 48, 95
2, 135840, Note_on_c, 0, 48, 95
2, 136080, Note_off_c, 0, 48, 95
2, 136080, Note_on_c, 0, 48, 95
2, 136320, Note_off_c, 0, 48, 95
2, 136320, Note_on_c, 0, 59, 95
2, 136320, Note_on_c, 0, 55, 95
2, 136320, Note_on_c, 0, 48, 95
2, 136800, Note_off_c, 0, 59, 95
2, 136800, Note_off_c, 0, 55, 95
2, 136800, Note_off_c, 0, 48, 95
2, 136800, Note_on_c, 0, 60, 95
2, 136800, Note_on_c, 0, 55, 95
2, 136800, Note_on_c, 0, 48, 95
2, 137280, Note_off_c, 0, 60, 95
2, 137280, Note_off_c, 0, 55, 95
2, 137280, Note_off_c, 0, 48, 95
2, 137280, Note_on_c, 0, 48, 95
2, 137520, Note_off_c, 0, 48, 95
2, 137520, Note_on_c, 0, 48, 95
2, 137760, Note_off_c, 0, 48, 95
2, 137760, Note_on_c, 0, 48, 95
2, 138000, Note_off_c, 0, 48, 95
2, 138000, Note_on_c, 0, 48, 95
2, 138240, Note_off_c, 0, 48, 95
2, 138240, Note_on_c, 0, 62, 95
2, 138240, Note_on_c, 0, 55, 95
2, 138240, Note_on_c, 0, 48, 95
2, 138720, Note_off_c, 0, 62, 95
2, 138720, Note_off_c, 0, 55, 95
2, 138720, Note_off_c, 0, 48, 95
2, 138720, Note_on_c, 0, 48, 95
2, 138960, Note_off_c, 0, 48, 95
2, 138960, Note_on_c, 0, 48, 95
2, 139200, Note_off_c, 0, 48, 95
2, 139200, Note_on_c, 0, 60, 95
2, 139200, Note_on_c, 0, 55, 95
2, 139200, Note_on_c, 0, 48, 95
2, 139680, Note_off_c, 0, 60, 95
2, 139680, Note_off_c, 0, 55, 95
2, 139680, Note_off_c, 0, 48, 95
2, 139680, Note_on_c, 0, 48, 95
2, 139920, Note_off_c, 0, 48, 95
2, 139920, Note_on_c, 0, 48, 95
2, 140160, Note_off_c, 0, 48, 95
2, 140160, Note_on_c, 0, 59, 95
2, 140160, Note_on_c, 0, 55, 95
2, 140160, Note_on_c, 0, 48, 95
2, 140640, Note_off_c, 0, 59, 95
2, 140640, Note_off_c, 0, 55, 95
2, 140640, Note_off_c, 0, 48, 95
2, 140640, Note_on_c, 0, 60, 95
2, 140640, Note_on_c, 0, 55, 95
2, 140640, Note_on_c, 0, 48, 95
2, 141120, Note_off_c, 0, 60, 95
2, 141120, Note_off_c, 0, 55, 95
2, 141120, Note_off_c, 0, 48, 95
2, 141600, Note_on_c, 0, 59, 95
2, 141600, Note_on_c, 0, 52, 95
2, 142560, Note_off_c, 0, 59, 95
2, 142560, Note_off_c, 0, 52, 95
2, 142560, Note_on_c, 0, 52, 95
2, 142800, Note_off_c, 0, 52, 95
2, 142800, Note_on_c, 0, 52, 95
2, 143040, Note_off_c, 0, 52, 95
2, 143040, Note_on_c, 0, 59, 95
2, 143040, Note_on_c, 0, 52, 95
2, 143520, Note_off_c, 0, 59, 95
2, 143520, Note_off_c, 0, 52, 95
2, 143520, Note_on_c, 0, 52, 95
2, 143760, Note_off_c, 0, 52, 95
2, 143760, Note_on_c, 0, 52, 95
2, 144000, Note_off_c, 0, 52, 95
2, 144000, Note_on_c, 0, 57, 95
2, 144000, Note_on_c, 0, 52, 95
2, 144480, Note_off_c, 0, 57, 95
2, 144480, Note_off_c, 0, 52, 95
2, 144480, Note_on_c, 0, 59, 95
2, 144480, Note_on_c, 0, 52, 95
2, 144960, Note_off_c, 0, 59, 95
2, 144960, Note_off_c, 0, 52, 95
2, 144960, Note_on_c, 0, 52, 95
2, 145200, Note_off_c, 0, 52, 95
2, 145200, Note_on_c, 0, 52, 95
2, 145440, Note_off_c, 0, 52, 95
2, 145440, Note_on_c, 0, 52, 95
2, 145680, Note_off_c, 0, 52, 95
2, 145680, Note_on_c, 0, 52, 95
2, 145920, Note_off_c, 0, 52, 95
2, 145920, Note_on_c, 0, 59, 95
2, 145920, Note_on_c, 0, 52, 95
2, 146400, Note_off_c, 0, 59, 95
2, 146400, Note_off_c, 0, 52, 95
2, 146400, Note_on_c, 0, 52, 95
2, 146640, Note_off_c, 0, 52, 95
2, 146640, Note_on_c, 0, 52, 95
2, 146880, Note_off_c, 0, 52, 95
2, 146880, Note_on_c, 0, 59, 95
2, 146880, Note_on_c, 0, 52, 95
2, 147360, Note_off_c, 0, 59, 95
2, 147360, Note_off_c, 0, 52, 95
2, 147360, Note_on_c, 0, 52, 95
2, 147840, Note_off_c, 0, 52, 95
2, 147840, Note_on_c, 0, 57, 95
2, 147840, Note_on_c, 0, 52, 95
2, 148320, Note_off_c, 0, 57, 95
2, 148320, Note_off_c, 0, 52, 95
2, 148320, Note_on_c, 0, 59, 95
2, 148320, Note_on_c, 0, 52, 95
2, 148800, Note_off_c, 0, 59, 95
2, 148800, Note_off_c, 0, 52, 95
2, 149280, Note_on_c, 0, 60, 95
2, 149280, Note_on_c, 0, 55, 95
2, 149280, Note_on_c, 0, 48, 95
2, 150240, Note_off_c, 0, 60, 95
2, 150240, Note_off_c, 0, 55, 95
2, 150240, Note_off_c, 0, 48, 95
2, 150240, Note_on_c, 0, 48, 95
2, 150480, Note_off_c, 0, 48, 95
2, 150480, Note_on_c, 0, 48, 95
2, 150720, Note_off_c, 0, 48, 95
2, 150720, Note_on_c, 0, 60, 95
2, 150720, Note_on_c, 0, 55, 95
2, 150720, Note_on_c, 0, 48, 95
2, 151200, Note_off_c, 0, 60, 95
2, 151200, Note_off_c, 0, 55, 95
2, 151200, Note_off_c, 0, 48, 95
2, 151200, Note_on_c, 0, 48, 95
2, 151440, Note_off_c, 0, 48, 95
2, 151440, Note_on_c, 0, 48, 95
2, 151680, Note_off_c, 0, 48, 95
2, 151680, Note_on_c, 0, 59, 95
2, 151680, Note_on_c, 0, 55, 95
2, 151680, Note_on_c, 0, 48, 95
2, 152160, Note_off_c, 0, 59, 95
2, 152160, Note_off_c, 0, 55, 95
2, 152160, Note_off_c, 0, 48, 95
2, 152160, Note_on_c, 0, 60, 95
2, 152160, Note_on_c, 0, 55, 95
2, 152160, Note_on_c, 0, 48, 95
2, 152640, Note_off_c, 0, 60, 95
2, 152640, Note_off_c, 0, 55, 95
2, 152640, Note_off_c, 0, 48, 95
2, 152640, Note_on_c, 0, 48, 95
2, 152880, Note_off_c, 0, 48, 95
2, 152880, Note_on_c, 0, 48, 95
2, 153120, Note_off_c, 0, 48, 95
2, 153120, Note_on_c, 0, 48, 95
2, 153360, Note_off_c, 0, 48, 95
2, 153360, Note_on_c, 0, 48, 95
2, 153600, Note_off_c, 0, 48, 95
2, 153600, Note_on_c, 0, 62, 95
2, 153600, Note_on_c, 0, 55, 95
2, 153600, Note_on_c, 0, 48, 95
2, 154080, Note_off_c, 0, 62, 95
2, 154080, Note_off_c, 0, 55, 95
2, 154080, Note_off_c, 0, 48, 95
2, 154080, Note_on_c, 0, 48, 95
2, 154320, Note_off_c, 0, 48, 95
2, 154320, Note_on_c, 0, 48, 95
2, 154560, Note_off_c, 0, 48, 95
2, 154560, Note_on_c, 0, 60, 95
2, 154560, Note_on_c, 0, 55, 95
2, 154560, Note_on_c, 0, 48, 95
2, 155040, Note_off_c, 0, 60, 95
2, 155040, Note_off_c, 0, 55, 95
2, 155040, Note_off_c, 0, 48, 95
2, 155040, Note_on_c, 0, 48, 95
2, 155280, Note_off_c, 0, 48, 95
2, 155280, Note_on_c, 0, 48, 95
2, 155520, Note_off_c, 0, 48, 95
2, 155520, Note_on_c, 0, 59, 95
2, 155520, Note_on_c, 0, 55, 95
2, 155520, Note_on_c, 0, 48, 95
2, 156000, Note_off_c, 0, 59, 95
2, 156000, Note_off_c, 0, 55, 95
2, 156000, Note_off_c, 0, 48, 95
2, 156000, Note_on_c, 0, 60, 95
2, 156000, Note_on_c, 0, 55, 95
2, 156000, Note_on_c, 0, 48, 95
2, 156480, Note_off_c, 0, 60, 95
2, 156480, Note_off_c, 0, 55, 95
2, 156480, Note_off_c, 0, 48, 95
2, 156960, Note_on_c, 0, 53, 95
2, 156960, Note_on_c, 0, 46, 95
2, 157920, Note_off_c, 0, 53, 95
2, 157920, Note_off_c, 0, 46, 95
2, 157920, Note_on_c, 0, 46, 95
2, 158160, Note_off_c, 0, 46, 95
2, 158160, Note_on_c, 0, 46, 95
2, 158400, Note_off_c, 0, 46, 95
2, 158400, Note_on_c, 0, 46, 95
2, 158640, Note_off_c, 0, 46, 95
2, 158640, Note_on_c, 0, 46, 95
2, 158880, Note_off_c, 0, 46, 95
2, 158880, Note_on_c, 0, 46, 95
2, 159120, Note_off_c, 0, 46, 95
2, 159120, Note_on_c, 0, 46, 95
2, 159360, Note_off_c, 0, 46, 95
2, 159360, Note_on_c, 0, 46, 95
2, 159600, Note_off_c, 0, 46, 95
2, 159600, Note_on_c, 0, 46, 95
2, 159840, Note_off_c, 0, 46, 95
2, 159840, Note_on_c, 0, 46, 95
2, 160080, Note_off_c, 0, 46, 95
2, 160080, Note_on_c, 0, 46, 95
2, 160320, Note_off_c, 0, 46, 95
2, 160320, Note_on_c, 0, 46, 95
2, 160560, Note_off_c, 0, 46, 95
2, 160560, Note_on_c, 0, 46, 95
2, 160800, Note_off_c, 0, 46, 95
2, 160800, Note_on_c, 0, 46, 95
2, 161040, Note_off_c, 0, 46, 95
2, 161040, Note_on_c, 0, 46, 95
2, 161280, Note_off_c, 0, 46, 95
2, 161280, Note_on_c, 0, 46, 95
2, 161520, Note_off_c, 0, 46, 95
2, 161520, Note_on_c, 0, 46, 95
2, 161760, Note_off_c, 0, 46, 95
2, 161760, Note_on_c, 0, 46, 95
2, 162000, Note_off_c, 0, 46, 95
2, 162000, Note_on_c, 0, 46, 95
2, 162240, Note_off_c, 0, 46, 95
2, 162240, Note_on_c, 0, 46, 95
2, 162480, Note_off_c, 0, 46, 95
2, 162480, Note_on_c, 0, 46, 95
2, 162720, Note_off_c, 0, 46, 95
2, 162720, Note_on_c, 0, 46, 95
2, 162960, Note_off_c, 0, 46, 95
2, 162960, Note_on_c, 0, 46, 95
2, 163200, Note_off_c, 0, 46, 95
2, 163200, Note_on_c, 0, 53, 95
2, 163200, Note_on_c, 0, 46, 95
2, 163680, Note_off_c, 0, 53, 95
2, 163680, Note_off_c, 0, 46, 95
2, 163680, Note_on_c, 0, 52, 95
2, 163680, Note_on_c, 0, 45, 95
2, 164160, Note_off_c, 0, 52, 95
2, 164160, Note_off_c, 0, 45, 95
2, 164160, Note_on_c, 0, 50, 95
2, 164160, Note_on_c, 0, 43, 95
2, 164640, Note_off_c, 0, 50, 95
2, 164640, Note_off_c, 0, 43, 95
2, 164640, Note_on_c, 0, 47, 95
2, 164640, Note_on_c, 0, 40, 95
2, 165600, Note_off_c, 0, 47, 95
2, 165600, Note_off_c, 0, 40, 95
2, 165600, Note_on_c, 0, 40, 95
2, 165840, Note_off_c, 0, 40, 95
2, 165840, Note_on_c, 0, 40, 95
2, 166080, Note_off_c, 0, 40, 95
2, 166080, Note_on_c, 0, 40, 95
2, 166320, Note_off_c, 0, 40, 95
2, 166320, Note_on_c, 0, 40, 95
2, 166560, Note_off_c, 0, 40, 95
2, 166560, Note_on_c, 0, 40, 95
2, 166800, Note_off_c, 0, 40, 95
2, 166800, Note_on_c, 0, 40, 95
2, 167040, Note_off_c, 0, 40, 95
2, 167040, Note_on_c, 0, 40, 95
2, 167280, Note_off_c, 0, 40, 95
2, 167280, Note_on_c, 0, 40, 95
2, 167520, Note_off_c, 0, 40, 95
2, 167520, Note_on_c, 0, 40, 95
2, 167760, Note_off_c, 0, 40, 95
2, 167760, Note_on_c, 0, 40, 95
2, 168000, Note_off_c, 0, 40, 95
2, 168000, Note_on_c, 0, 40, 95
2, 168240, Note_off_c, 0, 40, 95
2, 168240, Note_on_c, 0, 40, 95
2, 168480, Note_off_c, 0, 40, 95
2, 168480, Note_on_c, 0, 40, 95
2, 168720, Note_off_c, 0, 40, 95
2, 168720, Note_on_c, 0, 40, 95
2, 168960, Note_off_c, 0, 40, 95
2, 168960, Note_on_c, 0, 40, 95
2, 169200, Note_off_c, 0, 40, 95
2, 169200, Note_on_c, 0, 40, 95
2, 169440, Note_off_c, 0, 40, 95
2, 169440, Note_on_c, 0, 40, 95
2, 169680, Note_off_c, 0, 40, 95
2, 169680, Note_on_c, 0, 40, 95
2, 169920, Note_off_c, 0, 40, 95
2, 169920, Note_on_c, 0, 40, 95
2, 170160, Note_off_c, 0, 40, 95
2, 170160, Note_on_c, 0, 40, 95
2, 170400, Note_off_c, 0, 40, 95
2, 170400, Note_on_c, 0, 40, 95
2, 170640, Note_off_c, 0, 40, 95
2, 170640, Note_on_c, 0, 40, 95
2, 170880, Note_off_c, 0, 40, 95
2, 170880, Note_on_c, 0, 47, 95
2, 170880, Note_on_c, 0, 40, 95
2, 171360, Note_off_c, 0, 47, 95
2, 171360, Note_off_c, 0, 40, 95
2, 171360, Note_on_c, 0, 50, 95
2, 171360, Note_on_c, 0, 43, 95
2, 171840, Note_off_c, 0, 50, 95
2, 171840, Note_off_c, 0, 43, 95
2, 171840, Note_on_c, 0, 52, 95
2, 171840, Note_on_c, 0, 45, 95
2, 172320, Note_off_c, 0, 52, 95
2, 172320, Note_off_c, 0, 45, 95
2, 172320, Note_on_c, 0, 53, 95
2, 172320, Note_on_c, 0, 46, 95
2, 173280, Note_off_c, 0, 53, 95
2, 173280, Note_off_c, 0, 46, 95
2, 173280, Note_on_c, 0, 46, 95
2, 173520, Note_off_c, 0, 46, 95
2, 173520, Note_on_c, 0, 46, 95
2, 173760, Note_off_c, 0, 46, 95
2, 173760, Note_on_c, 0, 46, 95
2, 174000, Note_off_c, 0, 46, 95
2, 174000, Note_on_c, 0, 46, 95
2, 174240, Note_off_c, 0, 46, 95
2, 174240, Note_on_c, 0, 46, 95
2, 174480, Note_off_c, 0, 46, 95
2, 174480, Note_on_c, 0, 46, 95
2, 174720, Note_off_c, 0, 46, 95
2, 174720, Note_on_c, 0, 46, 95
2, 174960, Note_off_c, 0, 46, 95
2, 174960, Note_on_c, 0, 46, 95
2, 175200, Note_off_c, 0, 46, 95
2, 175200, Note_on_c, 0, 46, 95
2, 175440, Note_off_c, 0, 46, 95
2, 175440, Note_on_c, 0, 46, 95
2, 175680, Note_off_c, 0, 46, 95
2, 175680, Note_on_c, 0, 46, 95
2, 175920, Note_off_c, 0, 46, 95
2, 175920, Note_on_c, 0, 46, 95
2, 176160, Note_off_c, 0, 46, 95
2, 176160, Note_on_c, 0, 46, 95
2, 176400, Note_off_c, 0, 46, 95
2, 176400, Note_on_c, 0, 46, 95
2, 176640, Note_off_c, 0, 46, 95
2, 176640, Note_on_c, 0, 46, 95
2, 176880, Note_off_c, 0, 46, 95
2, 176880, Note_on_c, 0, 46, 95
2, 177120, Note_off_c, 0, 46, 95
2, 177120, Note_on_c, 0, 46, 95
2, 177360, Note_off_c, 0, 46, 95
2, 177360, Note_on_c, 0, 46, 95
2, 177600, Note_off_c, 0, 46, 95
2, 177600, Note_on_c, 0, 46, 95
2, 177840, Note_off_c, 0, 46, 95
2, 177840, Note_on_c, 0, 46, 95
2, 178080, Note_off_c, 0, 46, 95
2, 178080, Note_on_c, 0, 46, 95
2, 178320, Note_off_c, 0, 46, 95
2, 178320, Note_on_c, 0, 46, 95
2, 178560, Note_off_c, 0, 46, 95
2, 178560, Note_on_c, 0, 53, 95
2, 178560, Note_on_c, 0, 46, 95
2, 179040, Note_off_c, 0, 53, 95
2, 179040, Note_off_c, 0, 46, 95
2, 179040, Note_on_c, 0, 52, 95
2, 179040, Note_on_c, 0, 45, 95
2, 179520, Note_off_c, 0, 52, 95
2, 179520, Note_off_c, 0, 45, 95
2, 179520, Note_on_c, 0, 50, 95
2, 179520, Note_on_c, 0, 43, 95
2, 180000, Note_off_c, 0, 50, 95
2, 180000, Note_off_c, 0, 43, 95
2, 180000, Note_on_c, 0, 47, 95
2, 180000, Note_on_c, 0, 40, 95
2, 180960, Note_off_c, 0, 47, 95
2, 180960, Note_off_c, 0, 40, 95
2, 180960, Note_on_c, 0, 40, 95
2, 181200, Note_off_c, 0, 40, 95
2, 181200, Note_on_c, 0, 40, 95
2, 181440, Note_off_c, 0, 40, 95
2, 181440, Note_on_c, 0, 40, 95
2, 181680, Note_off_c, 0, 40, 95
2, 181680, Note_on_c, 0, 40, 95
2, 181920, Note_off_c, 0, 40, 95
2, 181920, Note_on_c, 0, 40, 95
2, 182160, Note_off_c, 0, 40, 95
2, 182160, Note_on_c, 0, 40, 95
2, 182400, Note_off_c, 0, 40, 95
2, 182400, Note_on_c, 0, 40, 95
2, 182640, Note_off_c, 0, 40, 95
2, 182640, Note_on_c, 0, 40, 95
2, 182880, Note_off_c, 0, 40, 95
2, 182880, Note_on_c, 0, 40, 95
2, 183120, Note_off_c, 0, 40, 95
2, 183120, Note_on_c, 0, 40, 95
2, 183360, Note_off_c, 0, 40, 95
2, 183360, Note_on_c, 0, 40, 95
2, 183600, Note_off_c, 0, 40, 95
2, 183600, Note_on_c, 0, 40, 95
2, 183840, Note_off_c, 0, 40, 95
2, 183840, Note_on_c, 0, 40, 95
2, 184080, Note_off_c, 0, 40, 95
2, 184080, Note_on_c, 0, 40, 95
2, 184320, Note_off_c, 0, 40, 95
2, 187680, Note_on_c, 0, 69, 95
2, 187680, Note_on_c, 0, 57, 95
2, 195360, Note_off_c, 0, 69, 95
2, 195360, Note_off_c, 0, 57, 95
2, 195360, Note_on_c, 0, 72, 95
2, 195360, Note_on_c, 0, 60, 95
2, 203040, Note_off_c, 0, 72, 95
2, 203040, Note_off_c, 0, 60, 95
2, 203040, Note_on_c, 0, 71, 95
2, 203040, Note_on_c, 0, 59, 95
2, 210720, Note_off_c, 0, 71, 95
2, 210720, Note_off_c, 0, 59, 95
2, 210720, Note_on_c, 0, 69, 95
2, 210720, Note_on_c, 0, 57, 95
2, 218400, Note_off_c, 0, 69, 95
2, 218400, Note_off_c, 0, 57, 95
2, 218400, Note_on_c, 0, 76, 95
2, 218400, Note_on_c, 0, 64, 95
2, 226080, Note_off_c, 0, 76, 95
2, 226080, Note_off_c, 0, 64, 95
2, 226080, Note_on_c, 0, 77, 95
2, 226080, Note_on_c, 0, 65, 95
2, 233760, Note_off_c, 0, 77, 95
2, 233760, Note_off_c, 0, 65, 95
2, 233760, Note_on_c, 0, 79, 95
2, 233760, Note_on_c, 0, 67, 95
2, 241440, Note_off_c, 0, 79, 95
2, 241440, Note_off_c, 0, 67, 95
2, 241440, Note_on_c, 0, 81, 95
2, 241440, Note_on_c, 0, 69, 95
2, 245760, Note_off_c, 0, 81, 95
2, 245760, Note_off_c, 0, 69, 95
2, 250080, Note_on_c, 0, 52, 95
2, 250560, Note_off_c, 0, 52, 95
2, 250560, Note_on_c, 0, 59, 95
2, 250560, Note_on_c, 0, 52, 95
2, 251040, Note_off_c, 0, 59, 95
2, 251040, Note_off_c, 0, 52, 95
2, 251040, Note_on_c, 0, 52, 95
2, 251520, Note_off_c, 0, 52, 95
2, 251520, Note_on_c, 0, 52, 95
2, 252000, Note_off_c, 0, 52, 95
2, 252000, Note_on_c, 0, 52, 95
2, 252480, Note_off_c, 0, 52, 95
2, 252480, Note_on_c, 0, 59, 95
2, 252480, Note_on_c, 0, 52, 95
2, 252960, Note_off_c, 0, 59, 95
2, 252960, Note_off_c, 0, 52, 95
2, 252960, Note_on_c, 0, 52, 95
2, 253440, Note_off_c, 0, 52, 95
2, 253440, Note_on_c, 0, 52, 95
2, 253920, Note_off_c, 0, 52, 95
2, 253920, Note_on_c, 0, 52, 95
2, 254400, Note_off_c, 0, 52, 95
2, 254400, Note_on_c, 0, 59, 95
2, 254400, Note_on_c, 0, 52, 95
2, 254880, Note_off_c, 0, 59, 95
2, 254880, Note_off_c, 0, 52, 95
2, 254880, Note_on_c, 0, 52, 95
2, 255360, Note_off_c, 0, 52, 95
2, 255360, Note_on_c, 0, 52, 95
2, 255840, Note_off_c, 0, 52, 95
2, 255840, Note_on_c, 0, 52, 95
2, 256320, Note_off_c, 0, 52, 95
2, 256320, Note_on_c, 0, 59, 95
2, 256320, Note_on_c, 0, 52, 95
2, 256800, Note_off_c, 0, 59, 95
2, 256800, Note_off_c, 0, 52, 95
2, 256800, Note_on_c, 0, 55, 95
2, 256800, Note_on_c, 0, 48, 95
2, 257760, Note_off_c, 0, 55, 95
2, 257760, Note_off_c, 0, 48, 95
2, 257760, Note_on_c, 0, 48, 95
2, 258240, Note_off_c, 0, 48, 95
2, 258240, Note_on_c, 0, 55, 95
2, 258240, Note_on_c, 0, 48, 95
2, 258720, Note_off_c, 0, 55, 95
2, 258720, Note_off_c, 0, 48, 95
2, 258720, Note_on_c, 0, 48, 95
2, 259200, Note_off_c, 0, 48, 95
2, 259200, Note_on_c, 0, 48, 95
2, 259680, Note_off_c, 0, 48, 95
2, 259680, Note_on_c, 0, 48, 95
2, 260160, Note_off_c, 0, 48, 95
2, 260160, Note_on_c, 0, 55, 95
2, 260160, Note_on_c, 0, 48, 95
2, 260640, Note_off_c, 0, 55, 95
2, 260640, Note_off_c, 0, 48, 95
2, 260640, Note_on_c, 0, 48, 95
2, 261120, Note_off_c, 0, 48, 95
2, 261120, Note_on_c, 0, 48, 95
2, 261600, Note_off_c, 0, 48, 95
2, 261600, Note_on_c, 0, 48, 95
2, 262080, Note_off_c, 0, 48, 95
2, 262080, Note_on_c, 0, 55, 95
2, 262080, Note_on_c, 0, 48, 95
2, 262560, Note_off_c, 0, 55, 95
2, 262560, Note_off_c, 0, 48, 95
2, 262560, Note_on_c, 0, 48, 95
2, 263040, Note_off_c, 0, 48, 95
2, 263040, Note_on_c, 0, 48, 95
2, 263520, Note_off_c, 0, 48, 95
2, 263520, Note_on_c, 0, 48, 95
2, 264000, Note_off_c, 0, 48, 95
2, 264000, Note_on_c, 0, 55, 95
2, 264000, Note_on_c, 0, 48, 95
2, 264480, Note_off_c, 0, 55, 95
2, 264480, Note_off_c, 0, 48, 95
2, 264480, Note_on_c, 0, 59, 95
2, 264480, Note_on_c, 0, 52, 95
2, 265440, Note_off_c, 0, 59, 95
2, 265440, Note_off_c, 0, 52, 95
2, 265440, Note_on_c, 0, 52, 95
2, 265920, Note_off_c, 0, 52, 95
2, 265920, Note_on_c, 0, 59, 95
2, 265920, Note_on_c, 0, 52, 95
2, 266400, Note_off_c, 0, 59, 95
2, 266400, Note_off_c, 0, 52, 95
2, 266400, Note_on_c, 0, 52, 95
2, 266880, Note_off_c, 0, 52, 95
2, 266880, Note_on_c, 0, 52, 95
2, 267360, Note_off_c, 0, 52, 95
2, 267360, Note_on_c, 0, 52, 95
2, 267840, Note_off_c, 0, 52, 95
2, 267840, Note_on_c, 0, 59, 95
2, 267840, Note_on_c, 0, 52, 95
2, 268320, Note_off_c, 0, 59, 95
2, 268320, Note_off_c, 0, 52, 95
2, 268320, Note_on_c, 0, 52, 95
2, 268800, Note_off_c, 0, 52, 95
2, 268800, Note_on_c, 0, 52, 95
2, 269280, Note_off_c, 0, 52, 95
2, 269280, Note_on_c, 0, 52, 95
2, 269760, Note_off_c, 0, 52, 95
2, 269760, Note_on_c, 0, 59, 95
2, 269760, Note_on_c, 0, 52, 95
2, 270240, Note_off_c, 0, 59, 95
2, 270240, Note_off_c, 0, 52, 95
2, 270240, Note_on_c, 0, 52, 95
2, 270720, Note_off_c, 0, 52, 95
2, 270720, Note_on_c, 0, 52, 95
2, 271200, Note_off_c, 0, 52, 95
2, 271200, Note_on_c, 0, 52, 95
2, 271680, Note_off_c, 0, 52, 95
2, 271680, Note_on_c, 0, 59, 95
2, 271680, Note_on_c, 0, 52, 95
2, 272160, Note_off_c, 0, 59, 95
2, 272160, Note_off_c, 0, 52, 95
2, 272160, Note_on_c, 0, 55, 95
2, 272160, Note_on_c, 0, 48, 95
2, 273120, Note_off_c, 0, 55, 95
2, 273120, Note_off_c, 0, 48, 95
2, 273120, Note_on_c, 0, 48, 95
2, 273600, Note_off_c, 0, 48, 95
2, 273600, Note_on_c, 0, 55, 95
2, 273600, Note_on_c, 0, 48, 95
2, 274080, Note_off_c, 0, 55, 95
2, 274080, Note_off_c, 0, 48, 95
2, 274080, Note_on_c, 0, 48, 95
2, 274560, Note_off_c, 0, 48, 95
2, 274560, Note_on_c, 0, 48, 95
2, 275040, Note_off_c, 0, 48, 95
2, 275040, Note_on_c, 0, 48, 95
2, 275520, Note_off_c, 0, 48, 95
2, 275520, Note_on_c, 0, 55, 95
2, 275520, Note_on_c, 0, 48, 95
2, 276000, Note_off_c, 0, 55, 95
2, 276000, Note_off_c, 0, 48, 95
2, 276000, Note_on_c, 0, 48, 95
2, 276480, Note_off_c, 0, 48, 95
2, 276480, Note_on_c, 0, 48, 95
2, 276960, Note_off_c, 0, 48, 95
2, 276960, Note_on_c, 0, 48, 95
2, 277440, Note_off_c, 0, 48, 95
2, 277440, Note_on_c, 0, 55, 95
2, 277440, Note_on_c, 0, 48, 95
2, 277920, Note_off_c, 0, 55, 95
2, 277920, Note_off_c, 0, 48, 95
2, 277920, Note_on_c, 0, 48, 95
2, 278400, Note_off_c, 0, 48, 95
2, 278400, Note_on_c, 0, 48, 95
2, 278880, Note_off_c, 0, 48, 95
2, 278880, Note_on_c, 0, 48, 95
2, 279360, Note_off_c, 0, 48, 95
2, 279360, Note_on_c, 0, 55, 95
2, 279360, Note_on_c, 0, 48, 95
2, 279840, Note_off_c, 0, 55, 95
2, 279840, Note_off_c, 0, 48, 95
2, 279840, Note_on_c, 0, 59, 95
2, 279840, Note_on_c, 0, 52, 95
2, 280800, Note_off_c, 0, 59, 95
2, 280800, Note_off_c, 0, 52, 95
2, 280800, Note_on_c, 0, 52, 95
2, 281040, Note_off_c, 0, 52, 95
2, 281040, Note_on_c, 0, 52, 95
2, 281280, Note_off_c, 0, 52, 95
2, 281280, Note_on_c, 0, 59, 95
2, 281280, Note_on_c, 0, 52, 95
2, 281760, Note_off_c, 0, 59, 95
2, 281760, Note_off_c, 0, 52, 95
2, 281760, Note_on_c, 0, 52, 95
2, 282000, Note_off_c, 0, 52, 95
2, 282000, Note_on_c, 0, 52, 95
2, 282240, Note_off_c, 0, 52, 95
2, 282240, Note_on_c, 0, 57, 95
2, 282240, Note_on_c, 0, 52, 95
2, 282720, Note_off_c, 0, 57, 95
2, 282720, Note_off_c, 0, 52, 95
2, 282720, Note_on_c, 0, 59, 95
2, 282720, Note_on_c, 0, 52, 95
2, 283200, Note_off_c, 0, 59, 95
2, 283200, Note_off_c, 0, 52, 95
2, 283200, Note_on_c, 0, 52, 95
2, 283440, Note_off_c, 0, 52, 95
2, 283440, Note_on_c, 0, 52, 95
2, 283680, Note_off_c, 0, 52, 95
2, 283680, Note_on_c, 0, 52, 95
2, 283920, Note_off_c, 0, 52, 95
2, 283920, Note_on_c, 0, 52, 95
2, 284160, Note_off_c, 0, 52, 95
2, 284160, Note_on_c, 0, 59, 95
2, 284160, Note_on_c, 0, 52, 95
2, 284640, Note_off_c, 0, 59, 95
2, 284640, Note_off_c, 0, 52, 95
2, 284640, Note_on_c, 0, 52, 95
2, 284880, Note_off_c, 0, 52, 95
2, 284880, Note_on_c, 0, 52, 95
2, 285120, Note_off_c, 0, 52, 95
2, 285120, Note_on_c, 0, 59, 95
2, 285120, Note_on_c, 0, 52, 95
2, 285600, Note_off_c, 0, 59, 95
2, 285600, Note_off_c, 0, 52, 95
2, 285600, Note_on_c, 0, 52, 95
2, 286080, Note_off_c, 0, 52, 95
2, 286080, Note_on_c, 0, 57, 95
2, 286080, Note_on_c, 0, 52, 95
2, 286560, Note_off_c, 0, 57, 95
2, 286560, Note_off_c, 0, 52, 95
2, 286560, Note_on_c, 0, 59, 95
2, 286560, Note_on_c, 0, 52, 95
2, 287040, Note_off_c, 0, 59, 95
2, 287040, Note_off_c, 0, 52, 95
2, 287520, Note_on_c, 0, 60, 95
2, 287520, Note_on_c, 0, 55, 95
2, 287520, Note_on_c, 0, 48, 95
2, 288480, Note_off_c, 0, 60, 95
2, 288480, Note_off_c, 0, 55, 95
2, 288480, Note_off_c, 0, 48, 95
2, 288480, Note_on_c, 0, 48, 95
2, 288720, Note_off_c, 0, 48, 95
2, 288720, Note_on_c, 0, 48, 95
2, 288960, Note_off_c, 0, 48, 95
2, 288960, Note_on_c, 0, 60, 95
2, 288960, Note_on_c, 0, 55, 95
2, 288960, Note_on_c, 0, 48, 95
2, 289440, Note_off_c, 0, 60, 95
2, 289440, Note_off_c, 0, 55, 95
2, 289440, Note_off_c, 0, 48, 95
2, 289440, Note_on_c, 0, 48, 95
2, 289680, Note_off_c, 0, 48, 95
2, 289680, Note_on_c, 0, 48, 95
2, 289920, Note_off_c, 0, 48, 95
2, 289920, Note_on_c, 0, 59, 95
2, 289920, Note_on_c, 0, 55, 95
2, 289920, Note_on_c, 0, 48, 95
2, 290400, Note_off_c, 0, 59, 95
2, 290400, Note_off_c, 0, 55, 95
2, 290400, Note_off_c, 0, 48, 95
2, 290400, Note_on_c, 0, 60, 95
2, 290400, Note_on_c, 0, 55, 95
2, 290400, Note_on_c, 0, 48, 95
2, 290880, Note_off_c, 0, 60, 95
2, 290880, Note_off_c, 0, 55, 95
2, 290880, Note_off_c, 0, 48, 95
2, 290880, Note_on_c, 0, 48, 95
2, 291120, Note_off_c, 0, 48, 95
2, 291120, Note_on_c, 0, 48, 95
2, 291360, Note_off_c, 0, 48, 95
2, 291360, Note_on_c, 0, 48, 95
2, 291600, Note_off_c, 0, 48, 95
2, 291600, Note_on_c, 0, 48, 95
2, 291840, Note_off_c, 0, 48, 95
2, 291840, Note_on_c, 0, 62, 95
2, 291840, Note_on_c, 0, 55, 95
2, 291840, Note_on_c, 0, 48, 95
2, 292320, Note_off_c, 0, 62, 95
2, 292320, Note_off_c, 0, 55, 95
2, 292320, Note_off_c, 0, 48, 95
2, 292320, Note_on_c, 0, 48, 95
2, 292560, Note_off_c, 0, 48, 95
2, 292560, Note_on_c, 0, 48, 95
2, 292800, Note_off_c, 0, 48, 95
2, 292800, Note_on_c, 0, 60, 95
2, 292800, Note_on_c, 0, 55, 95
2, 292800, Note_on_c, 0, 48, 95
2, 293280, Note_off_c, 0, 60, 95
2, 293280, Note_off_c, 0, 55, 95
2, 293280, Note_off_c, 0, 48, 95
2, 293280, Note_on_c, 0, 48, 95
2, 293520, Note_off_c, 0, 48, 95
2, 293520, Note_on_c, 0, 48, 95
2, 293760, Note_off_c, 0, 48, 95
2, 293760, Note_on_c, 0, 59, 95
2, 293760, Note_on_c, 0, 55, 95
2, 293760, Note_on_c, 0, 48, 95
2, 294240, Note_off_c, 0, 59, 95
2, 294240, Note_off_c, 0, 55, 95
2, 294240, Note_off_c, 0, 48, 95
2, 294240, Note_on_c, 0, 60, 95
2, 294240, Note_on_c, 0, 55, 95
2, 294240, Note_on_c, 0, 48, 95
2, 294720, Note_off_c, 0, 60, 95
2, 294720, Note_off_c, 0, 55, 95
2, 294720, Note_off_c, 0, 48, 95
2, 295200, Note_on_c, 0, 59, 95
2, 295200, Note_on_c, 0, 52, 95
2, 296160, Note_off_c, 0, 59, 95
2, 296160, Note_off_c, 0, 52, 95
2, 296160, Note_on_c, 0, 52, 95
2, 296400, Note_off_c, 0, 52, 95
2, 296400, Note_on_c, 0, 52, 95
2, 296640, Note_off_c, 0, 52, 95
2, 296640, Note_on_c, 0, 59, 95
2, 296640, Note_on_c, 0, 52, 95
2, 297120, Note_off_c, 0, 59, 95
2, 297120, Note_off_c, 0, 52, 95
2, 297120, Note_on_c, 0, 52, 95
2, 297360, Note_off_c, 0, 52, 95
2, 297360, Note_on_c, 0, 52, 95
2, 297600, Note_off_c, 0, 52, 95
2, 297600, Note_on_c, 0, 57, 95
2, 297600, Note_on_c, 0, 52, 95
2, 298080, Note_off_c, 0, 57, 95
2, 298080, Note_off_c, 0, 52, 95
2, 298080, Note_on_c, 0, 59, 95
2, 298080, Note_on_c, 0, 52, 95
2, 298560, Note_off_c, 0, 59, 95
2, 298560, Note_off_c, 0, 52, 95
2, 298560, Note_on_c, 0, 52, 95
2, 298800, Note_off_c, 0, 52, 95
2, 298800, Note_on_c, 0, 52, 95
2, 299040, Note_off_c, 0, 52, 95
2, 299040, Note_on_c, 0, 52, 95
2, 299280, Note_off_c, 0, 52, 95
2, 299280, Note_on_c, 0, 52, 95
2, 299520, Note_off_c, 0, 52, 95
2, 299520, Note_on_c, 0, 59, 95
2, 299520, Note_on_c, 0, 52, 95
2, 300000, Note_off_c, 0, 59, 95
2, 300000, Note_off_c, 0, 52, 95
2, 300000, Note_on_c, 0, 52, 95
2, 300240, Note_off_c, 0, 52, 95
2, 300240, Note_on_c, 0, 52, 95
2, 300480, Note_off_c, 0, 52, 95
2, 300480, Note_on_c, 0, 59, 95
2, 300480, Note_on_c, 0, 52, 95
2, 300960, Note_off_c, 0, 59, 95
2, 300960, Note_off_c, 0, 52, 95
2, 300960, Note_on_c, 0, 52, 95
2, 301440, Note_off_c, 0, 52, 95
2, 301440, Note_on_c, 0, 57, 95
2, 301440, Note_on_c, 0, 52, 95
2, 301920, Note_off_c, 0, 57, 95
2, 301920, Note_off_c, 0, 52, 95
2, 301920, Note_on_c, 0, 59, 95
2, 301920, Note_on_c, 0, 52, 95
2, 302400, Note_off_c, 0, 59, 95
2, 302400, Note_off_c, 0, 52, 95
2, 302880, Note_on_c, 0, 60, 95
2, 302880, Note_on_c, 0, 55, 95
2, 302880, Note_on_c, 0, 48, 95
2, 303840, Note_off_c, 0, 60, 95
2, 303840, Note_off_c, 0, 55, 95
2, 303840, Note_off_c, 0, 48, 95
2, 303840, Note_on_c, 0, 48, 95
2, 304080, Note_off_c, 0, 48, 95
2, 304080, Note_on_c, 0, 48, 95
2, 304320, Note_off_c, 0, 48, 95
2, 304320, Note_on_c, 0, 60, 95
2, 304320, Note_on_c, 0, 55, 95
2, 304320, Note_on_c, 0, 48, 95
2, 304800, Note_off_c, 0, 60, 95
2, 304800, Note_off_c, 0, 55, 95
2, 304800, Note_off_c, 0, 48, 95
2, 304800, Note_on_c, 0, 48, 95
2, 305040, Note_off_c, 0, 48, 95
2, 305040, Note_on_c, 0, 48, 95
2, 305280, Note_off_c, 0, 48, 95
2, 305280, Note_on_c, 0, 59, 95
2, 305280, Note_on_c, 0, 55, 95
2, 305280, Note_on_c, 0, 48, 95
2, 305760, Note_off_c, 0, 59, 95
2, 305760, Note_off_c, 0, 55, 95
2, 305760, Note_off_c, 0, 48, 95
2, 305760, Note_on_c, 0, 60, 95
2, 305760, Note_on_c, 0, 55, 95
2, 305760, Note_on_c, 0, 48, 95
2, 306240, Note_off_c, 0, 60, 95
2, 306240, Note_off_c, 0, 55, 95
2, 306240, Note_off_c, 0, 48, 95
2, 306240, Note_on_c, 0, 48, 95
2, 306480, Note_off_c, 0, 48, 95
2, 306480, Note_on_c, 0, 48, 95
2, 306720, Note_off_c, 0, 48, 95
2, 306720, Note_on_c, 0, 48, 95
2, 306960, Note_off_c, 0, 48, 95
2, 306960, Note_on_c, 0, 48, 95
2, 307200, Note_off_c, 0, 48, 95
2, 307200, Note_on_c, 0, 62, 95
2, 307200, Note_on_c, 0, 55, 95
2, 307200, Note_on_c, 0, 48, 95
2, 307680, Note_off_c, 0, 62, 95
2, 307680, Note_off_c, 0, 55, 95
2, 307680, Note_off_c, 0, 48, 95
2, 307680, Note_on_c, 0, 48, 95
2, 307920, Note_off_c, 0, 48, 95
2, 307920, Note_on_c, 0, 48, 95
2, 308160, Note_off_c, 0, 48, 95
2, 308160, Note_on_c, 0, 60, 95
2, 308160, Note_on_c, 0, 55, 95
2, 308160, Note_on_c, 0, 48, 95
2, 308640, Note_off_c, 0, 60, 95
2, 308640, Note_off_c, 0, 55, 95
2, 308640, Note_off_c, 0, 48, 95
2, 308640, Note_on_c, 0, 48, 95
2, 308880, Note_off_c, 0, 48, 95
2, 308880, Note_on_c, 0, 48, 95
2, 309120, Note_off_c, 0, 48, 95
2, 309120, Note_on_c, 0, 59, 95
2, 309120, Note_on_c, 0, 55, 95
2, 309120, Note_on_c, 0, 48, 95
2, 309600, Note_off_c, 0, 59, 95
2, 309600, Note_off_c, 0, 55, 95
2, 309600, Note_off_c, 0, 48, 95
2, 309600, Note_on_c, 0, 60, 95
2, 309600, Note_on_c, 0, 55, 95
2, 309600, Note_on_c, 0, 48, 95
2, 310080, Note_off_c, 0, 60, 95
2, 310080, Note_off_c, 0, 55, 95
2, 310080, Note_off_c, 0, 48, 95
2, 310560, Note_on_c, 0, 53, 95
2, 310560, Note_on_c, 0, 46, 95
2, 311520, Note_off_c, 0, 53, 95
2, 311520, Note_off_c, 0, 46, 95
2, 311520, Note_on_c, 0, 46, 95
2, 311760, Note_off_c, 0, 46, 95
2, 311760, Note_on_c, 0, 46, 95
2, 312000, Note_off_c, 0, 46, 95
2, 312000, Note_on_c, 0, 46, 95
2, 312240, Note_off_c, 0, 46, 95
2, 312240, Note_on_c, 0, 46, 95
2, 312480, Note_off_c, 0, 46, 95
2, 312480, Note_on_c, 0, 46, 95
2, 312720, Note_off_c, 0, 46, 95
2, 312720, Note_on_c, 0, 46, 95
2, 312960, Note_off_c, 0, 46, 95
2, 312960, Note_on_c, 0, 46, 95
2, 313200, Note_off_c, 0, 46, 95
2, 313200, Note_on_c, 0, 46, 95
2, 313440, Note_off_c, 0, 46, 95
2, 313440, Note_on_c, 0, 46, 95
2, 313680, Note_off_c, 0, 46, 95
2, 313680, Note_on_c, 0, 46, 95
2, 313920, Note_off_c, 0, 46, 95
2, 313920, Note_on_c, 0, 46, 95
2, 314160, Note_off_c, 0, 46, 95
2, 314160, Note_on_c, 0, 46, 95
2, 314400, Note_off_c, 0, 46, 95
2, 314400, Note_on_c, 0, 46, 95
2, 314640, Note_off_c, 0, 46, 95
2, 314640, Note_on_c, 0, 46, 95
2, 314880, Note_off_c, 0, 46, 95
2, 314880, Note_on_c, 0, 46, 95
2, 315120, Note_off_c, 0, 46, 95
2, 315120, Note_on_c, 0, 46, 95
2, 315360, Note_off_c, 0, 46, 95
2, 315360, Note_on_c, 0, 46, 95
2, 315600, Note_off_c, 0, 46, 95
2, 315600, Note_on_c, 0, 46, 95
2, 315840, Note_off_c, 0, 46, 95
2, 315840, Note_on_c, 0, 46, 95
2, 316080, Note_off_c, 0, 46, 95
2, 316080, Note_on_c, 0, 46, 95
2, 316320, Note_off_c, 0, 46, 95
2, 316320, Note_on_c, 0, 46, 95
2, 316560, Note_off_c, 0, 46, 95
2, 316560, Note_on_c, 0, 46, 95
2, 316800, Note_off_c, 0, 46, 95
2, 316800, Note_on_c, 0, 53, 95
2, 316800, Note_on_c, 0, 46, 95
2, 317280, Note_off_c, 0, 53, 95
2, 317280, Note_off_c, 0, 46, 95
2, 317280, Note_on_c, 0, 52, 95
2, 317280, Note_on_c, 0, 45, 95
2, 317760, Note_off_c, 0, 52, 95
2, 317760, Note_off_c, 0, 45, 95
2, 317760, Note_on_c, 0, 50, 95
2, 317760, Note_on_c, 0, 43, 95
2, 318240, Note_off_c, 0, 50, 95
2, 318240, Note_off_c, 0, 43, 95
2, 318240, Note_on_c, 0, 47, 95
2, 318240, Note_on_c, 0, 40, 95
2, 319200, Note_off_c, 0, 47, 95
2, 319200, Note_off_c, 0, 40, 95
2, 319200, Note_on_c, 0, 40, 95
2, 319440, Note_off_c, 0, 40, 95
2, 319440, Note_on_c, 0, 40, 95
2, 319680, Note_off_c, 0, 40, 95
2, 319680, Note_on_c, 0, 40, 95
2, 319920, Note_off_c, 0, 40, 95
2, 319920, Note_on_c, 0, 40, 95
2, 320160, Note_off_c, 0, 40, 95
2, 320160, Note_on_c, 0, 40, 95
2, 320400, Note_off_c, 0, 40, 95
2, 320400, Note_on_c, 0, 40, 95
2, 320640, Note_off_c, 0, 40, 95
2, 320640, Note_on_c, 0, 40, 95
2, 320880, Note_off_c, 0, 40, 95
2, 320880, Note_on_c, 0, 40, 95
2, 321120, Note_off_c, 0, 40, 95
2, 321120, Note_on_c, 0, 40, 95
2, 321360, Note_off_c, 0, 40, 95
2, 321360, Note_on_c, 0, 40, 95
2, 321600, Note_off_c, 0, 40, 95
2, 321600, Note_on_c, 0, 40, 95
2, 321840, Note_off_c, 0, 40, 95
2, 321840, Note_on_c, 0, 40, 95
2, 322080, Note_off_c, 0, 40, 95
2, 322080, Note_on_c, 0, 40, 95
2, 322320, Note_off_c, 0, 40, 95
2, 322320, Note_on_c, 0, 40, 95
2, 322560, Note_off_c, 0, 40, 95
2, 322560, Note_on_c, 0, 40, 95
2, 322800, Note_off_c, 0, 40, 95
2, 322800, Note_on_c, 0, 40, 95
2, 323040, Note_off_c, 0, 40, 95
2, 323040, Note_on_c, 0, 40, 95
2, 323280, Note_off_c, 0, 40, 95
2, 323280, Note_on_c, 0, 40, 95
2, 323520, Note_off_c, 0, 40, 95
2, 323520, Note_on_c, 0, 40, 95
2, 323760, Note_off_c, 0, 40, 95
2, 323760, Note_on_c, 0, 40, 95
2, 324000, Note_off_c, 0, 40, 95
2, 324000, Note_on_c, 0, 40, 95
2, 324240, Note_off_c, 0, 40, 95
2, 324240, Note_on_c, 0, 40, 95
2, 324480, Note_off_c, 0, 40, 95
2, 324480, Note_on_c, 0, 47, 95
2, 324480, Note_on_c, 0, 40, 95
2, 324960, Note_off_c, 0, 47, 95
2, 324960, Note_off_c, 0, 40, 95
2, 324960, Note_on_c, 0, 50, 95
2, 324960, Note_on_c, 0, 43, 95
2, 325440, Note_off_c, 0, 50, 95
2, 325440, Note_off_c, 0, 43, 95
2, 325440, Note_on_c, 0, 52, 95
2, 325440, Note_on_c, 0, 45, 95
2, 325920, Note_off_c, 0, 52, 95
2, 325920, Note_off_c, 0, 45, 95
2, 325920, Note_on_c, 0, 53, 95
2, 325920, Note_on_c, 0, 46, 95
2, 326880, Note_off_c, 0, 53, 95
2, 326880, Note_off_c, 0, 46, 95
2, 326880, Note_on_c, 0, 46, 95
2, 327120, Note_off_c, 0, 46, 95
2, 327120, Note_on_c, 0, 46, 95
2, 327360, Note_off_c, 0, 46, 95
2, 327360, Note_on_c, 0, 46, 95
2, 327600, Note_off_c, 0, 46, 95
2, 327600, Note_on_c, 0, 46, 95
2, 327840, Note_off_c, 0, 46, 95
2, 327840, Note_on_c, 0, 46, 95
2, 328080, Note_off_c, 0, 46, 95
2, 328080, Note_on_c, 0, 46, 95
2, 328320, Note_off_c, 0, 46, 95
2, 328320, Note_on_c, 0, 46, 95
2, 328560, Note_off_c, 0, 46, 95
2, 328560, Note_on_c, 0, 46, 95
2, 328800, Note_off_c, 0, 46, 95
2, 328800, Note_on_c, 0, 46, 95
2, 329040, Note_off_c, 0, 46, 95
2, 329040, Note_on_c, 0, 46, 95
2, 329280, Note_off_c, 0, 46, 95
2, 329280, Note_on_c, 0, 46, 95
2, 329520, Note_off_c, 0, 46, 95
2, 329520, Note_on_c, 0, 46, 95
2, 329760, Note_off_c, 0, 46, 95
2, 329760, Note_on_c, 0, 46, 95
2, 330000, Note_off_c, 0, 46, 95
2, 330000, Note_on_c, 0, 46, 95
2, 330240, Note_off_c, 0, 46, 95
2, 330240, Note_on_c, 0, 46, 95
2, 330480, Note_off_c, 0, 46, 95
2, 330480, Note_on_c, 0, 46, 95
2, 330720, Note_off_c, 0, 46, 95
2, 330720, Note_on_c, 0, 46, 95
2, 330960, Note_off_c, 0, 46, 95
2, 330960, Note_on_c, 0, 46, 95
2, 331200, Note_off_c, 0, 46, 95
2, 331200, Note_on_c, 0, 46, 95
2, 331440, Note_off_c, 0, 46, 95
2, 331440, Note_on_c, 0, 46, 95
2, 331680, Note_off_c, 0, 46, 95
2, 331680, Note_on_c, 0, 46, 95
2, 331920, Note_off_c, 0, 46, 95
2, 331920, Note_on_c, 0, 46, 95
2, 332160, Note_off_c, 0, 46, 95
2, 332160, Note_on_c, 0, 53, 95
2, 332160, Note_on_c, 0, 46, 95
2, 332640, Note_off_c, 0, 53, 95
2, 332640, Note_off_c, 0, 46, 95
2, 332640, Note_on_c, 0, 52, 95
2, 332640, Note_on_c, 0, 45, 95
2, 333120, Note_off_c, 0, 52, 95
2, 333120, Note_off_c, 0, 45, 95
2, 333120, Note_on_c, 0, 50, 95
2, 333120, Note_on_c, 0, 43, 95
2, 333600, Note_off_c, 0, 50, 95
2, 333600, Note_off_c, 0, 43, 95
2, 333600, Note_on_c, 0, 47, 95
2, 333600, Note_on_c, 0, 40, 95
2, 334560, Note_off_c, 0, 47, 95
2, 334560, Note_off_c, 0, 40, 95
2, 334560, Note_on_c, 0, 40, 95
2, 334800, Note_off_c, 0, 40, 95
2, 334800, Note_on_c, 0, 40, 95
2, 335040, Note_off_c, 0, 40, 95
2, 335040, Note_on_c, 0, 40, 95
2, 335280, Note_off_c, 0, 40, 95
2, 335280, Note_on_c, 0, 40, 95
2, 335520, Note_off_c, 0, 40, 95
2, 335520, Note_on_c, 0, 40, 95
2, 335760, Note_off_c, 0, 40, 95
2, 335760, Note_on_c, 0, 40, 95
2, 336000, Note_off_c, 0, 40, 95
2, 336000, Note_on_c, 0, 40, 95
2, 336240, Note_off_c, 0, 40, 95
2, 336240, Note_on_c, 0, 40, 95
2, 336480, Note_off_c, 0, 40, 95
2, 336480, Note_on_c, 0, 40, 95
2, 336720, Note_off_c, 0, 40, 95
2, 336720, Note_on_c, 0, 40, 95
2, 336960, Note_off_c, 0, 40, 95
2, 336960, Note_on_c, 0, 40, 95
2, 337200, Note_off_c, 0, 40, 95
2, 337200, Note_on_c, 0, 40, 95
2, 337440, Note_off_c, 0, 40, 95
2, 337440, Note_on_c, 0, 40, 95
2, 337680, Note_off_c, 0, 40, 95
2, 337680, Note_on_c, 0, 40, 95
2, 337920, Note_off_c, 0, 40, 95
2, 341280, Note_on_c, 0, 69, 95
2, 341280, Note_on_c, 0, 57, 95
2, 348960, Note_off_c, 0, 69, 95
2, 348960, Note_off_c, 0, 57, 95
2, 348960, Note_on_c, 0, 72, 95
2, 348960, Note_on_c, 0, 60, 95
2, 356640, Note_off_c, 0, 72, 95
2, 356640, Note_off_c, 0, 60, 95
2, 356640, Note_on_c, 0, 71, 95
2, 356640, Note_on_c, 0, 59, 95
2, 364320, Note_off_c, 0, 71, 95
2, 364320, Note_off_c, 0, 59, 95
2, 364320, Note_on_c, 0, 69, 95
2, 364320, Note_on_c, 0, 57, 95
2, 372000, Note_off_c, 0, 69, 95
2, 372000, Note_off_c, 0, 57, 95
2, 372000, Note_on_c, 0, 76, 95
2, 372000, Note_on_c, 0, 64, 95
2, 379680, Note_off_c, 0, 76, 95
2, 379680, Note_off_c, 0, 64, 95
2, 379680, Note_on_c, 0, 77, 95
2, 379680, Note_on_c, 0, 65, 95
2, 387360, Note_off_c, 0, 77, 95
2, 387360, Note_off_c, 0, 65, 95
2, 387360, Note_on_c, 0, 79, 95
2, 387360, Note_on_c, 0, 67, 95
2, 395040, Note_off_c, 0, 79, 95
2, 395040, Note_off_c, 0, 67, 95
2, 395040, Note_on_c, 0, 81, 95
2, 395040, Note_on_c, 0, 69, 95
2, 399360, Note_off_c, 0, 81, 95
2, 399360, Note_off_c, 0, 69, 95
2, 402720, Note_on_c, 0, 54, 95
2, 403200, Note_off_c, 0, 54, 95
2, 403200, Note_on_c, 0, 54, 95
2, 403440, Note_off_c, 0, 54, 95
2, 403440, Note_on_c, 0, 54, 95
2, 403680, Note_off_c, 0, 54, 95
2, 403680, Note_on_c, 0, 54, 95
2, 403920, Note_off_c, 0, 54, 95
2, 403920, Note_on_c, 0, 54, 95
2, 404160, Note_off_c, 0, 54, 95
2, 404160, Note_on_c, 0, 57, 95
2, 404400, Note_off_c, 0, 57, 95
2, 404400, Note_on_c, 0, 57, 95
2, 404640, Note_off_c, 0, 57, 95
2, 404640, Note_on_c, 0, 57, 95
2, 404880, Note_off_c, 0, 57, 95
2, 404880, Note_on_c, 0, 57, 95
2, 405120, Note_off_c, 0, 57, 95
2, 405120, Note_on_c, 0, 56, 95
2, 405360, Note_off_c, 0, 56, 95
2, 405360, Note_on_c, 0, 56, 95
2, 405600, Note_off_c, 0, 56, 95
2, 405600, Note_on_c, 0, 56, 95
2, 405840, Note_off_c, 0, 56, 95
2, 405840, Note_on_c, 0, 56, 95
2, 406080, Note_off_c, 0, 56, 95
2, 406080, Note_on_c, 0, 59, 95
2, 406320, Note_off_c, 0, 59, 95
2, 406320, Note_on_c, 0, 59, 95
2, 406560, Note_off_c, 0, 59, 95
2, 406560, Note_on_c, 0, 59, 95
2, 406800, Note_off_c, 0, 59, 95
2, 406800, Note_on_c, 0, 59, 95
2, 407040, Note_off_c, 0, 59, 95
2, 407040, Note_on_c, 0, 57, 95
2, 407280, Note_off_c, 0, 57, 95
2, 407280, Note_on_c, 0, 57, 95
2, 407520, Note_off_c, 0, 57, 95
2, 407520, Note_on_c, 0, 57, 95
2, 407760, Note_off_c, 0, 57, 95
2, 407760, Note_on_c, 0, 57, 95
2, 408000, Note_off_c, 0, 57, 95
2, 408000, Note_on_c, 0, 56, 95
2, 408480, Note_off_c, 0, 56, 95
2, 408480, Note_on_c, 0, 54, 95
2, 408960, Note_off_c, 0, 54, 95
2, 408960, Note_on_c, 0, 57, 95
2, 409440, Note_off_c, 0, 57, 95
2, 409440, Note_on_c, 0, 56, 95
2, 409920, Note_off_c, 0, 56, 95
2, 409920, Note_on_c, 0, 54, 95
2, 410400, Note_off_c, 0, 54, 95
2, 410400, Note_on_c, 0, 50, 95
2, 414240, Note_off_c, 0, 50, 95
2, 414240, Note_on_c, 0, 49, 95
2, 414720, Note_off_c, 0, 49, 95
2, 414720, Note_on_c, 0, 50, 95
2, 415200, Note_off_c, 0, 50, 95
2, 415200, Note_on_c, 0, 50, 95
2, 415680, Note_off_c, 0, 50, 95
2, 415680, Note_on_c, 0, 52, 95
2, 416160, Note_off_c, 0, 52, 95
2, 416160, Note_on_c, 0, 57, 95
2, 416640, Note_off_c, 0, 57, 95
2, 416640, Note_on_c, 0, 56, 95
2, 417120, Note_off_c, 0, 56, 95
2, 417120, Note_on_c, 0, 52, 95
2, 418080, Note_off_c, 0, 52, 95
2, 418080, Pitch_bend_c, 1, 8192
2, 418080, Note_on_c, 1, 64, 95
2, 418145, Pitch_bend_c, 1, 8320
2, 418210, Pitch_bend_c, 1, 8448
2, 418275, Pitch_bend_c, 1, 8576
2, 418340, Pitch_bend_c, 1, 8704
2, 418405, Pitch_bend_c, 1, 8832
2, 418470, Pitch_bend_c, 1, 8960
2, 418535, Pitch_bend_c, 1, 9088
2, 418600, Pitch_bend_c, 1, 9216
2, 418665, Pitch_bend_c, 1, 9344
2, 418730, Pitch_bend_c, 1, 9472
2, 418795, Pitch_bend_c, 1, 9600
2, 418800, Pitch_bend_c, 1, 9600
2, 419520, Pitch_bend_c, 1, 9600
2, 419520, Pitch_bend_c, 1, 8192
2, 419520, Note_off_c, 1, 64, 95
2, 419520, Note_on_c, 0, 66, 95
2, 420000, Note_off_c, 0, 66, 95
2, 420000, Pitch_bend_c, 1, 8192
2, 420000, Note_on_c, 1, 64, 95
2, 420087, Pitch_bend_c, 1, 8320
2, 420174, Pitch_bend_c, 1, 8448
2, 420261, Pitch_bend_c, 1, 8576
2, 420348, Pitch_bend_c, 1, 8704
2, 420435, Pitch_bend_c, 1, 8832
2, 420522, Pitch_bend_c, 1, 8960
2, 420609, Pitch_bend_c, 1, 9088
2, 420696, Pitch_bend_c, 1, 9216
2, 420783, Pitch_bend_c, 1, 9344
2, 420870, Pitch_bend_c, 1, 9472
2, 420957, Pitch_bend_c, 1, 9600
2, 420960, Pitch_bend_c, 1, 9600
2, 421920, Pitch_bend_c, 1, 9600
2, 421920, Pitch_bend_c, 1, 8192
2, 421920, Note_off_c, 1, 64, 95
2, 421920, Note_on_c, 0, 69, 95
2, 421920, Note_on_c, 0, 66, 95
2, 422880, Note_off_c, 0, 69, 95
2, 422880, Note_off_c, 0, 66, 95
2, 422880, Note_on_c, 0, 69, 95
2, 422880, Note_on_c, 0, 66, 95
2, 423360, Note_off_c, 0, 69, 95
2, 423360, Note_off_c, 0, 66, 95
2, 423840, Note_on_c, 0, 68, 95
2, 423840, Note_on_c, 0, 64, 95
2, 424800, Note_off_c, 0, 68, 95
2, 424800, Note_off_c, 0, 64, 95
2, 424800, Note_on_c, 0, 68, 95
2, 424800, Note_on_c, 0, 64, 95
2, 425280, Note_off_c, 0, 68, 95
2, 425280, Note_off_c, 0, 64, 95
2, 425760, Note_on_c, 0, 69, 95
2, 425760, Note_on_c, 0, 62, 95
2, 429600, Note_off_c, 0, 69, 95
2, 429600, Note_off_c, 0, 62, 95
2, 429600, Pitch_bend_c, 1, 8192
2, 429600, Note_on_c, 1, 71, 95
2, 429643, Pitch_bend_c, 1, 8320
2, 429686, Pitch_bend_c, 1, 8448
2, 429729, Pitch_bend_c, 1, 8576
2, 429772, Pitch_bend_c, 1, 8704
2, 429815, Pitch_bend_c, 1, 8832
2, 429858, Pitch_bend_c, 1, 8960
2, 429901, Pitch_bend_c, 1, 9088
2, 429944, Pitch_bend_c, 1, 9216
2, 429987, Pitch_bend_c, 1, 9344
2, 430030, Pitch_bend_c, 1, 9472
2, 430073, Pitch_bend_c, 1, 9600
2, 430080, Pitch_bend_c, 1, 9600
2, 430560, Pitch_bend_c, 1, 9600
2, 430560, Pitch_bend_c, 1, 8192
2, 430560, Note_off_c, 1, 71, 95
2, 430560, Note_on_c, 0, 73, 95
2, 431520, Note_off_c, 0, 73, 95
2, 431520, Note_on_c, 0, 81, 95
2, 432000, Note_off_c, 0, 81, 95
2, 432000, Note_on_c, 0, 80, 95
2, 432480, Note_off_c, 0, 80, 95
2, 432480, Note_on_c, 0, 78, 95
2, 432960, Note_off_c, 0, 78, 95
2, 432960, Note_on_c, 0, 73, 95
2, 433440, Note_off_c, 0, 73, 95
2, 433440, Note_on_c, 0, 71, 95
2, 447360, Note_off_c, 0, 71, 95
2, 448800, Note_on_c, 0, 76, 95
2, 448960, Note_off_c, 0, 76, 95
2, 448960, Note_on_c, 0, 76, 95
2, 449120, Note_off_c, 0, 76, 95
2, 449120, Note_on_c, 0, 76, 95
2, 449280, Note_off_c, 0, 76, 95
2, 449280, Note_on_c, 0, 79, 95
2, 449520, Note_off_c, 0, 79, 95
2, 449520, Note_on_c, 0, 76, 95
2, 449760, Note_off_c, 0, 76, 95
2, 449760, Note_on_c, 0, 74, 95
2, 450000, Note_off_c, 0, 74, 95
2, 450000, Note_on_c, 0, 71, 95
2, 450240, Note_off_c, 0, 71, 95
2, 450240, Note_on_c, 0, 81, 95
2, 450480, Note_off_c, 0, 81, 95
2, 450480, Note_on_c, 0, 76, 95
2, 450720, Note_off_c, 0, 76, 95
2, 450720, Note_on_c, 0, 79, 95
2, 450960, Note_off_c, 0, 79, 95
2, 450960, Note_on_c, 0, 76, 95
2, 451200, Note_off_c, 0, 76, 95
2, 451200, Note_on_c, 0, 74, 95
2, 451440, Note_off_c, 0, 74, 95
2, 451440, Note_on_c, 0, 71, 95
2, 451680, Note_off_c, 0, 71, 95
2, 451680, Note_on_c, 0, 81, 95
2, 451840, Note_off_c, 0, 81, 95
2, 451840, Note_on_c, 0, 79, 95
2, 452000, Note_off_c, 0, 79, 95
2, 452000, Note_on_c, 0, 76, 95
2, 452160, Note_off_c, 0, 76, 95
2, 452160, Note_on_c, 0, 79, 95
2, 452400, Note_off_c, 0, 79, 95
2, 452400, Note_on_c, 0, 76, 95
2, 452640, Note_off_c, 0, 76, 95
2, 452640, Note_on_c, 0, 74, 95
2, 452880, Note_off_c, 0, 74, 95
2, 452880, Note_on_c, 0, 71, 95
2, 453120, Note_off_c, 0, 71, 95
2, 453120, Note_on_c, 0, 81, 95
2, 453360, Note_off_c, 0, 81, 95
2, 453360, Note_on_c, 0, 76, 95
2, 453600, Note_off_c, 0, 76, 95
2, 453600, Note_on_c, 0, 79, 95
2, 453840, Note_off_c, 0, 79, 95
2, 453840, Note_on_c, 0, 76, 95
2, 454080, Note_off_c, 0, 76, 95
2, 454080, Note_on_c, 0, 74, 95
2, 454320, Note_off_c, 0, 74, 95
2, 454320, Note_on_c, 0, 71, 95
2, 454560, Note_off_c, 0, 71, 95
2, 454560, Note_on_c, 0, 81, 95
2, 454800, Note_off_c, 0, 81, 95
2, 454800, Note_on_c, 0, 76, 95
2, 455040, Note_off_c, 0, 76, 95
2, 455040, Note_on_c, 0, 79, 95
2, 455280, Note_off_c, 0, 79, 95
2, 455280, Note_on_c, 0, 76, 95
2, 455520, Note_off_c, 0, 76, 95
2, 455520, Note_on_c, 0, 74, 95
2, 455760, Note_off_c, 0, 74, 95
2, 455760, Note_on_c, 0, 71, 95
2, 456000, Note_off_c, 0, 71, 95
2, 456000, Note_on_c, 0, 81, 95
2, 456240, Note_off_c, 0, 81, 95
2, 456240, Note_on_c, 0, 76, 95
2, 456480, Note_off_c, 0, 76, 95
2, 456480, Note_on_c, 0, 79, 95
2, 456720, Note_off_c, 0, 79, 95
2, 456720, Note_on_c, 0, 76, 95
2, 456960, Note_off_c, 0, 76, 95
2, 456960, Note_on_c, 0, 81, 95
2, 457200, Note_off_c, 0, 81, 95
2, 457200, Note_on_c, 0, 79, 95
2, 457440, Note_off_c, 0, 79, 95
2, 457440, Note_on_c, 0, 76, 95
2, 457680, Note_off_c, 0, 76, 95
2, 457680, Note_on_c, 0, 74, 95
2, 457920, Note_off_c, 0, 74, 95
2, 457920, Note_on_c, 0, 81, 95
2, 458160, Note_off_c, 0, 81, 95
2, 458160, Note_on_c, 0, 79, 95
2, 458400, Note_off_c, 0, 79, 95
2, 458400, Note_on_c, 0, 76, 95
2, 458640, Note_off_c, 0, 76, 95
2, 458640, Note_on_c, 0, 74, 95
2, 458880, Note_off_c, 0, 74, 95
2, 458880, Note_on_c, 0, 83, 95
2, 459120, Note_off_c, 0, 83, 95
2, 459120, Note_on_c, 0, 79, 95
2, 459360, Note_off_c, 0, 79, 95
2, 459360, Note_on_c, 0, 81, 95
2, 459600, Note_off_c, 0, 81, 95
2, 459600, Note_on_c, 0, 79, 95
2, 459840, Note_off_c, 0, 79, 95
2, 459840, Note_on_c, 0, 76, 95
2, 460080, Note_off_c, 0, 76, 95
2, 460080, Note_on_c, 0, 79, 95
2, 460320, Note_off_c, 0, 79, 95
2, 460320, Note_on_c, 0, 76, 95
2, 460560, Note_off_c, 0, 76, 95
2, 460560, Note_on_c, 0, 74, 95
2, 460800, Note_off_c, 0, 74, 95
2, 460800, Note_on_c, 0, 86, 95
2, 461040, Note_off_c, 0, 86, 95
2, 461040, Note_on_c, 0, 83, 95
2, 461280, Note_off_c, 0, 83, 95
2, 461280, Note_on_c, 0, 81, 95
2, 461520, Note_off_c, 0, 81, 95
2, 461520, Note_on_c, 0, 78, 95
2, 461760, Note_off_c, 0, 78, 95
2, 461760, Note_on_c, 0, 77, 95
2, 462000, Note_off_c, 0, 77, 95
2, 462000, Note_on_c, 0, 76, 95
2, 462240, Note_off_c, 0, 76, 95
2, 462240, Note_on_c, 0, 81, 95
2, 462480, Note_off_c, 0, 81, 95
2, 462480, Note_on_c, 0, 78, 95
2, 462720, Note_off_c, 0, 78, 95
2, 462720, Note_on_c, 0, 77, 95
2, 462960, Note_off_c, 0, 77, 95
2, 462960, Note_on_c, 0, 74, 95
2, 463200, Note_off_c, 0, 74, 95
2, 463200, Note_on_c, 0, 71, 95
2, 463440, Note_off_c, 0, 71, 95
2, 463440, Note_on_c, 0, 69, 95
2, 463680, Note_off_c, 0, 69, 95
2, 463680, Note_on_c, 0, 66, 95
2, 463920, Note_off_c, 0, 66, 95
2, 463920, Note_on_c, 0, 65, 95
2, 464160, Note_off_c, 0, 65, 95
2, 464160, Note_on_c, 0, 62, 95
2, 465120, Note_off_c, 0, 62, 95
2, 468480, Note_on_c, 0, 46, 95
2, 468720, Note_off_c, 0, 46, 95
2, 468720, Note_on_c, 0, 46, 95
2, 468960, Note_off_c, 0, 46, 95
2, 468960, Note_on_c, 0, 46, 95
2, 469200, Note_off_c, 0, 46, 95
2, 469200, Note_on_c, 0, 46, 95
2, 469440, Note_off_c, 0, 46, 95
2, 469440, Note_on_c, 0, 46, 95
2, 469680, Note_off_c, 0, 46, 95
2, 469680, Note_on_c, 0, 46, 95
2, 469920, Note_off_c, 0, 46, 95
2, 469920, Note_on_c, 0, 46, 95
2, 470160, Note_off_c, 0, 46, 95
2, 470160, Note_on_c, 0, 46, 95
2, 470400, Note_off_c, 0, 46, 95
2, 470400, Note_on_c, 0, 53, 95
2, 470400, Note_on_c, 0, 46, 95
2, 470880, Note_off_c, 0, 53, 95
2, 470880, Note_off_c, 0, 46, 95
2, 470880, Note_on_c, 0, 52, 95
2, 470880, Note_on_c, 0, 45, 95
2, 471360, Note_off_c, 0, 52, 95
2, 471360, Note_off_c, 0, 45, 95
2, 471360, Note_on_c, 0, 50, 95
2, 471360, Note_on_c, 0, 43, 95
2, 471840, Note_off_c, 0, 50, 95
2, 471840, Note_off_c, 0, 43, 95
2, 471840, Note_on_c, 0, 47, 95
2, 471840, Note_on_c, 0, 40, 95
2, 472800, Note_off_c, 0, 47, 95
2, 472800, Note_off_c, 0, 40, 95
2, 472800, Note_on_c, 0, 40, 95
2, 473040, Note_off_c, 0, 40, 95
2, 473040, Note_on_c, 0, 40, 95
2, 473280, Note_off_c, 0, 40, 95
2, 473280, Note_on_c, 0, 40, 95
2, 473520, Note_off_c, 0, 40, 95
2, 473520, Note_on_c, 0, 40, 95
2, 473760, Note_off_c, 0, 40, 95
2, 473760, Note_on_c, 0, 40, 95
2, 474000, Note_off_c, 0, 40, 95
2, 474000, Note_on_c, 0, 40, 95
2, 474240, Note_off_c, 0, 40, 95
2, 474240, Note_on_c, 0, 40, 95
2, 474480, Note_off_c, 0, 40, 95
2, 474480, Note_on_c, 0, 40, 95
2, 474720, Note_off_c, 0, 40, 95
2, 474720, Note_on_c, 0, 40, 95
2, 474960, Note_off_c, 0, 40, 95
2, 474960, Note_on_c, 0, 40, 95
2, 475200, Note_off_c, 0, 40, 95
2, 475200, Note_on_c, 0, 40, 95
2, 475440, Note_off_c, 0, 40, 95
2, 475440, Note_on_c, 0, 40, 95
2, 475680, Note_off_c, 0, 40, 95
2, 475680, Note_on_c, 0, 40, 95
2, 475920, Note_off_c, 0, 40, 95
2, 475920, Note_on_c, 0, 40, 95
2, 476160, Note_off_c, 0, 40, 95
2, 476160, Note_on_c, 0, 40, 95
2, 476400, Note_off_c, 0, 40, 95
2, 476400, Note_on_c, 0, 40, 95
2, 476640, Note_off_c, 0, 40, 95
2, 476640, Note_on_c, 0, 40, 95
2, 476880, Note_off_c, 0, 40, 95
2, 476880, Note_on_c, 0, 40, 95
2, 477120, Note_off_c, 0, 40, 95
2, 477120, Note_on_c, 0, 40, 95
2, 477360, Note_off_c, 0, 40, 95
2, 477360, Note_on_c, 0, 40, 95
2, 477600, Note_off_c, 0, 40, 95
2, 477600, Note_on_c, 0, 40, 95
2, 477840, Note_off_c, 0, 40, 95
2, 477840, Note_on_c, 0, 40, 95
2, 478080, Note_off_c, 0, 40, 95
2, 478080, Note_on_c, 0, 47, 95
2, 478080, Note_on_c, 0, 40, 95
2, 478560, Note_off_c, 0, 47, 95
2, 478560, Note_off_c, 0, 40, 95
2, 478560, Note_on_c, 0, 50, 95
2, 478560, Note_on_c, 0, 43, 95
2, 479040, Note_off_c, 0, 50, 95
2, 479040, Note_off_c, 0, 43, 95
2, 479040, Note_on_c, 0, 52, 95
2, 479040, Note_on_c, 0, 45, 95
2, 479520, Note_off_c, 0, 52, 95
2, 479520, Note_off_c, 0, 45, 95
2, 479520, Note_on_c, 0, 53, 95
2, 479520, Note_on_c, 0, 46, 95
2, 480480, Note_off_c, 0, 53, 95
2, 480480, Note_off_c, 0, 46, 95
2, 480480, Note_on_c, 0, 46, 95
2, 480720, Note_off_c, 0, 46, 95
2, 480720, Note_on_c, 0, 46, 95
2, 480960, Note_off_c, 0, 46, 95
2, 480960, Note_on_c, 0, 46, 95
2, 481200, Note_off_c, 0, 46, 95
2, 481200, Note_on_c, 0, 46, 95
2, 481440, Note_off_c, 0, 46, 95
2, 481440, Note_on_c, 0, 46, 95
2, 481680, Note_off_c, 0, 46, 95
2, 481680, Note_on_c, 0, 46, 95
2, 481920, Note_off_c, 0, 46, 95
2, 481920, Note_on_c, 0, 46, 95
2, 482160, Note_off_c, 0, 46, 95
2, 482160, Note_on_c, 0, 46, 95
2, 482400, Note_off_c, 0, 46, 95
2, 482400, Note_on_c, 0, 46, 95
2, 482640, Note_off_c, 0, 46, 95
2, 482640, Note_on_c, 0, 46, 95
2, 482880, Note_off_c, 0, 46, 95
2, 482880, Note_on_c, 0, 46, 95
2, 483120, Note_off_c, 0, 46, 95
2, 483120, Note_on_c, 0, 46, 95
2, 483360, Note_off_c, 0, 46, 95
2, 483360, Note_on_c, 0, 46, 95
2, 483600, Note_off_c, 0, 46, 95
2, 483600, Note_on_c, 0, 46, 95
2, 483840, Note_off_c, 0, 46, 95
2, 483840, Note_on_c, 0, 46, 95
2, 484080, Note_off_c, 0, 46, 95
2, 484080, Note_on_c, 0, 46, 95
2, 484320, Note_off_c, 0, 46, 95
2, 484320, Note_on_c, 0, 46, 95
2, 484560, Note_off_c, 0, 46, 95
2, 484560, Note_on_c, 0, 46, 95
2, 484800, Note_off_c, 0, 46, 95
2, 484800, Note_on_c, 0, 46, 95
2, 485040, Note_off_c, 0, 46, 95
2, 485040, Note_on_c, 0, 46, 95
2, 485280, Note_off_c, 0, 46, 95
2, 485280, Note_on_c, 0, 46, 95
2, 485520, Note_off_c, 0, 46, 95
2, 485520, Note_on_c, 0, 46, 95
2, 485760, Note_off_c, 0, 46, 95
2, 485760, Note_on_c, 0, 53, 95
2, 485760, Note_on_c, 0, 46, 95
2, 486240, Note_off_c, 0, 53, 95
2, 486240, Note_off_c, 0, 46, 95
2, 486240, Note_on_c, 0, 52, 95
2, 486240, Note_on_c, 0, 45, 95
2, 486720, Note_off_c, 0, 52, 95
2, 486720, Note_off_c, 0, 45, 95
2, 486720, Note_on_c, 0, 50, 95
2, 486720, Note_on_c, 0, 43, 95
2, 487200, Note_off_c, 0, 50, 95
2, 487200, Note_off_c, 0, 43, 95
2, 487200, Note_on_c, 0, 47, 95
2, 487200, Note_on_c, 0, 40, 95
2, 488160, Note_off_c, 0, 47, 95
2, 488160, Note_off_c, 0, 40, 95
2, 488160, Note_on_c, 0, 40, 95
2, 488400, Note_off_c, 0, 40, 95
2, 488400, Note_on_c, 0, 40, 95
2, 488640, Note_off_c, 0, 40, 95
2, 488640, Note_on_c, 0, 40, 95
2, 488880, Note_off_c, 0, 40, 95
2, 488880, Note_on_c, 0, 40, 95
2, 489120, Note_off_c, 0, 40, 95
2, 489120, Note_on_c, 0, 40, 95
2, 489360, Note_off_c, 0, 40, 95
2, 489360, Note_on_c, 0, 40, 95
2, 489600, Note_off_c, 0, 40, 95
2, 489600, Note_on_c, 0, 40, 95
2, 489840, Note_off_c, 0, 40, 95
2, 489840, Note_on_c, 0, 40, 95
2, 490080, Note_off_c, 0, 40, 95
2, 490080, Note_on_c, 0, 40, 95
2, 490320, Note_off_c, 0, 40, 95
2, 490320, Note_on_c, 0, 40, 95
2, 490560, Note_off_c, 0, 40, 95
2, 490560, Note_on_c, 0, 40, 95
2, 490800, Note_off_c, 0, 40, 95
2, 490800, Note_on_c, 0, 40, 95
2, 491040, Note_off_c, 0, 40, 95
2, 491040, Note_on_c, 0, 40, 95
2, 491280, Note_off_c, 0, 40, 95
2, 491280, Note_on_c, 0, 40, 95
2, 491520, Note_off_c, 0, 40, 95
2, 494880, Note_on_c, 0, 69, 95
2, 494880, Note_on_c, 0, 57, 95
2, 502560, Note_off_c, 0, 69, 95
2, 502560, Note_off_c, 0, 57, 95
2, 502560, Note_on_c, 0, 72, 95
2, 502560, Note_on_c, 0, 60, 95
2, 510240, Note_off_c, 0, 72, 95
2, 510240, Note_off_c, 0, 60, 95
2, 510240, Note_on_c, 0, 71, 95
2, 510240, Note_on_c, 0, 59, 95
2, 517920, Note_off_c, 0, 71, 95
2, 517920, Note_off_c, 0, 59, 95
2, 517920, Note_on_c, 0, 69, 95
2, 517920, Note_on_c, 0, 57, 95
2, 525600, Note_off_c, 0, 69, 95
2, 525600, Note_off_c, 0, 57, 95
2, 525600, Note_on_c, 0, 76, 95
2, 525600, Note_on_c, 0, 64, 95
2, 533280, Note_off_c, 0, 76, 95
2, 533280, Note_off_c, 0, 64, 95
2, 533280, Note_on_c, 0, 77, 95
2, 533280, Note_on_c, 0, 65, 95
2, 540960, Note_off_c, 0, 77, 95
2, 540960, Note_off_c, 0, 65, 95
2, 540960, Note_on_c, 0, 79, 95
2, 540960, Note_on_c, 0, 67, 95
2, 548640, Note_off_c, 0, 79, 95
2, 548640, Note_off_c, 0, 67, 95
2, 548640, Note_on_c, 0, 81, 95
2, 548640, Note_on_c, 0, 69, 95
2, 552960, Note_off_c, 0, 81, 95
2, 552960, Note_off_c, 0, 69, 95
2, 558660, Note_on_c, 1, 55, 95
2, 558720, Note_off_c, 1, 55, 95
2, 558720, Note_on_c, 1, 57, 95
2, 559680, Note_off_c, 1, 57, 95
2, 559680, Note_on_c, 0, 60, 95
2, 560640, Note_off_c, 0, 60, 95
2, 560640, Pitch_bend_c, 1, 8192
2, 560640, Note_on_c, 1, 62, 95
2, 560727, Pitch_bend_c, 1, 8320
2, 560814, Pitch_bend_c, 1, 8448
2, 560901, Pitch_bend_c, 1, 8576
2, 560988, Pitch_bend_c, 1, 8704
2, 561075, Pitch_bend_c, 1, 8832
2, 561162, Pitch_bend_c, 1, 8960
2, 561249, Pitch_bend_c, 1, 9088
2, 561336, Pitch_bend_c, 1, 9216
2, 561423, Pitch_bend_c, 1, 9344
2, 561510, Pitch_bend_c, 1, 9472
2, 561597, Pitch_bend_c, 1, 9600
2, 561600, Pitch_bend_c, 1, 9600
2, 562560, Pitch_bend_c, 1, 9600
2, 562560, Pitch_bend_c, 1, 8192
2, 562560, Note_off_c, 1, 62, 95
2, 562560, Pitch_bend_c, 1, 8192
2, 562560, Note_on_c, 1, 62, 95
2, 562581, Pitch_bend_c, 1, 8320
2, 562602, Pitch_bend_c, 1, 8448
2, 562623, Pitch_bend_c, 1, 8576
2, 562644, Pitch_bend_c, 1, 8704
2, 562665, Pitch_bend_c, 1, 8832
2, 562686, Pitch_bend_c, 1, 8960
2, 562707, Pitch_bend_c, 1, 9088
2, 562728, Pitch_bend_c, 1, 9216
2, 562749, Pitch_bend_c, 1, 9344
2, 562770, Pitch_bend_c, 1, 9472
2, 562791, Pitch_bend_c, 1, 9600
2, 562800, Pitch_bend_c, 1, 9600
2, 563040, Pitch_bend_c, 1, 9600
2, 563061, Pitch_bend_c, 1, 9472
2, 563082, Pitch_bend_c, 1, 9344
2, 563103, Pitch_bend_c, 1, 9216
2, 563124, Pitch_bend_c, 1, 9088
2, 563145, Pitch_bend_c, 1, 8960
2, 563166, Pitch_bend_c, 1, 8832
2, 563187, Pitch_bend_c, 1, 8704
2, 563208, Pitch_bend_c, 1, 8576
2, 563229, Pitch_bend_c, 1, 8448
2, 563250, Pitch_bend_c, 1, 8320
2, 563271, Pitch_bend_c, 1, 8192
2, 563280, Pitch_bend_c, 1, 8192
2, 563520, Pitch_bend_c, 1, 8192
2, 563520, Pitch_bend_c, 1, 8192
2, 563520, Note_off_c, 1, 62, 95
2, 563520, Note_on_c, 0, 60, 95
2, 564000, Note_off_c, 0, 60, 95
2, 564000, Note_on_c, 0, 62, 95
2, 568320, Note_off_c, 0, 62, 95
2, 568320, Note_on_c, 0, 67, 95
2, 569280, Note_off_c, 0, 67, 95
2, 569280, Note_on_c, 0, 64, 95
2, 570240, Note_off_c, 0, 64, 95
2, 570240, Pitch_bend_c, 1, 8192
2, 570240, Note_on_c, 1, 62, 95
2, 570261, Pitch_bend_c, 1, 8320
2, 570282, Pitch_bend_c, 1, 8448
2, 570303, Pitch_bend_c, 1, 8576
2, 570324, Pitch_bend_c, 1, 8704
2, 570345, Pitch_bend_c, 1, 8832
2, 570366, Pitch_bend_c, 1, 8960
2, 570387, Pitch_bend_c, 1, 9088
2, 570408, Pitch_bend_c, 1, 9216
2, 570429, Pitch_bend_c, 1, 9344
2, 570450, Pitch_bend_c, 1, 9472
2, 570471, Pitch_bend_c, 1, 9600
2, 570480, Pitch_bend_c, 1, 9600
2, 570720, Pitch_bend_c, 1, 9600
2, 570741, Pitch_bend_c, 1, 9472
2, 570762, Pitch_bend_c, 1, 9344
2, 570783, Pitch_bend_c, 1, 9216
2, 570804, Pitch_bend_c, 1, 9088
2, 570825, Pitch_bend_c, 1, 8960
2, 570846, Pitch_bend_c, 1, 8832
2, 570867, Pitch_bend_c, 1, 8704
2, 570888, Pitch_bend_c, 1, 8576
2, 570909, Pitch_bend_c, 1, 8448
2, 570930, Pitch_bend_c, 1, 8320
2, 570951, Pitch_bend_c, 1, 8192
2, 570960, Pitch_bend_c, 1, 8192
2, 571200, Pitch_bend_c, 1, 8192
2, 571200, Pitch_bend_c, 1, 8192
2, 571200, Note_off_c, 1, 62, 95
2, 571200, Note_on_c, 0, 60, 95
2, 571680, Note_off_c, 0, 60, 95
2, 571680, Note_on_c, 0, 62, 95
2, 576000, Note_off_c, 0, 62, 95
2, 576000, Pitch_bend_c, 1, 8192
2, 576000, Note_on_c, 1, 62, 95
2, 576087, Pitch_bend_c, 1, 8320
2, 576174, Pitch_bend_c, 1, 8448
2, 576261, Pitch_bend_c, 1, 8576
2, 576348, Pitch_bend_c, 1, 8704
2, 576435, Pitch_bend_c, 1, 8832
2, 576522, Pitch_bend_c, 1, 8960
2, 576609, Pitch_bend_c, 1, 9088
2, 576696, Pitch_bend_c, 1, 9216
2, 576783, Pitch_bend_c, 1, 9344
2, 576870, Pitch_bend_c, 1, 9472
2, 576957, Pitch_bend_c, 1, 9600
2, 576960, Pitch_bend_c, 1, 9600
2, 577920, Pitch_bend_c, 1, 9600
2, 577920, Pitch_bend_c, 1, 8192
2, 577920, Note_off_c, 1, 62, 95
2, 577920, Pitch_bend_c, 1, 8192
2, 577920, Note_on_c, 1, 62, 95
2, 577941, Pitch_bend_c, 1, 8320
2, 577962, Pitch_bend_c, 1, 8448
2, 577983, Pitch_bend_c, 1, 8576
2, 578004, Pitch_bend_c, 1, 8704
2, 578025, Pitch_bend_c, 1, 8832
2, 578046, Pitch_bend_c, 1, 8960
2, 578067, Pitch_bend_c, 1, 9088
2, 578088, Pitch_bend_c, 1, 9216
2, 578109, Pitch_bend_c, 1, 9344
2, 578130, Pitch_bend_c, 1, 9472
2, 578151, Pitch_bend_c, 1, 9600
2, 578160, Pitch_bend_c, 1, 9600
2, 578400, Pitch_bend_c, 1, 9600
2, 578421, Pitch_bend_c, 1, 9472
2, 578442, Pitch_bend_c, 1, 9344
2, 578463, Pitch_bend_c, 1, 9216
2, 578484, Pitch_bend_c, 1, 9088
2, 578505, Pitch_bend_c, 1, 8960
2, 578526, Pitch_bend_c, 1, 8832
2, 578547, Pitch_bend_c, 1, 8704
2, 578568, Pitch_bend_c, 1, 8576
2, 578589, Pitch_bend_c, 1, 8448
2, 578610, Pitch_bend_c, 1, 8320
2, 578631, Pitch_bend_c, 1, 8192
2, 578640, Pitch_bend_c, 1, 8192
2, 578880, Pitch_bend_c, 1, 8192
2, 578880, Pitch_bend_c, 1, 8192
2, 578880, Note_off_c, 1, 62, 95
2, 578880, Note_on_c, 0, 60, 95
2, 579360, Note_off_c, 0, 60, 95
2, 579360, Pitch_bend_c, 1, 8192
2, 579360, Note_on_c, 1, 62, 95
2, 579730, Pitch_bend_c, 1, 8320
2, 580100, Pitch_bend_c, 1, 8448
2, 580470, Pitch_bend_c, 1, 8576
2, 580840, Pitch_bend_c, 1, 8704
2, 581210, Pitch_bend_c, 1, 8832
2, 581580, Pitch_bend_c, 1, 8960
2, 581950, Pitch_bend_c, 1, 9088
2, 582320, Pitch_bend_c, 1, 9216
2, 582690, Pitch_bend_c, 1, 9344
2, 583060, Pitch_bend_c, 1, 9472
2, 583430, Pitch_bend_c, 1, 9600
2, 583440, Pitch_bend_c, 1, 9600
2, 587520, Pitch_bend_c, 1, 9600
2, 587520, Pitch_bend_c, 1, 8192
2, 587520, Note_off_c, 1, 62, 95
2, 589380, Note_on_c, 1, 67, 95
2, 589440, Note_off_c, 1, 67, 95
2, 589440, Note_on_c, 1, 69, 95
2, 590400, Note_off_c, 1, 69, 95
2, 590400, Note_on_c, 0, 72, 95
2, 591360, Note_off_c, 0, 72, 95
2, 591360, Pitch_bend_c, 1, 8192
2, 591360, Note_on_c, 1, 74, 95
2, 591403, Pitch_bend_c, 1, 8320
2, 591446, Pitch_bend_c, 1, 8448
2, 591489, Pitch_bend_c, 1, 8576
2, 591532, Pitch_bend_c, 1, 8704
2, 591575, Pitch_bend_c, 1, 8832
2, 591618, Pitch_bend_c, 1, 8960
2, 591661, Pitch_bend_c, 1, 9088
2, 591704, Pitch_bend_c, 1, 9216
2, 591747, Pitch_bend_c, 1, 9344
2, 591790, Pitch_bend_c, 1, 9472
2, 591833, Pitch_bend_c, 1, 9600
2, 591840, Pitch_bend_c, 1, 9600
2, 592320, Pitch_bend_c, 1, 9600
2, 592320, Pitch_bend_c, 1, 8192
2, 592320, Note_off_c, 1, 74, 95
2, 592320, Note_on_c, 0, 79, 95
2, 593280, Note_off_c, 0, 79, 95
2, 593280, Pitch_bend_c, 1, 8192
2, 593280, Note_on_c, 1, 74, 95
2, 593301, Pitch_bend_c, 1, 8320
2, 593322, Pitch_bend_c, 1, 8448
2, 593343, Pitch_bend_c, 1, 8576
2, 593364, Pitch_bend_c, 1, 8704
2, 593385, Pitch_bend_c, 1, 8832
2, 593406, Pitch_bend_c, 1, 8960
2, 593427, Pitch_bend_c, 1, 9088
2, 593448, Pitch_bend_c, 1, 9216
2, 593469, Pitch_bend_c, 1, 9344
2, 593490, Pitch_bend_c, 1, 9472
2, 593511, Pitch_bend_c, 1, 9600
2, 593520, Pitch_bend_c, 1, 9600
2, 593760, Pitch_bend_c, 1, 9600
2, 593781, Pitch_bend_c, 1, 9472
2, 593802, Pitch_bend_c, 1, 9344
2, 593823, Pitch_bend_c, 1, 9216
2, 593844, Pitch_bend_c, 1, 9088
2, 593865, Pitch_bend_c, 1, 8960
2, 593886, Pitch_bend_c, 1, 8832
2, 593907, Pitch_bend_c, 1, 8704
2, 593928, Pitch_bend_c, 1, 8576
2, 593949, Pitch_bend_c, 1, 8448
2, 593970, Pitch_bend_c, 1, 8320
2, 593991, Pitch_bend_c, 1, 8192
2, 594000, Pitch_bend_c, 1, 8192
2, 594240, Pitch_bend_c, 1, 8192
2, 594240, Pitch_bend_c, 1, 8192
2, 594240, Note_off_c, 1, 74, 95
2, 594240, Note_on_c, 0, 72, 95
2, 594720, Note_off_c, 0, 72, 95
2, 594720, Note_on_c, 0, 74, 95
2, 599040, Note_off_c, 0, 74, 95
2, 599040, Pitch_bend_c, 1, 8192
2, 599040, Note_on_c, 1, 79, 95
2, 599127, Pitch_bend_c, 1, 8320
2, 599214, Pitch_bend_c, 1, 8448
2, 599301, Pitch_bend_c, 1, 8576
2, 599388, Pitch_bend_c, 1, 8704
2, 599475, Pitch_bend_c, 1, 8832
2, 599562, Pitch_bend_c, 1, 8960
2, 599649, Pitch_bend_c, 1, 9088
2, 599736, Pitch_bend_c, 1, 9216
2, 599823, Pitch_bend_c, 1, 9344
2, 599910, Pitch_bend_c, 1, 9472
2, 599997, Pitch_bend_c, 1, 9600
2, 600000, Pitch_bend_c, 1, 9600
2, 600960, Pitch_bend_c, 1, 9600
2, 600960, Pitch_bend_c, 1, 8192
2, 600960, Note_off_c, 1, 79, 95
2, 600960, Pitch_bend_c, 1, 8192
2, 600960, Note_on_c, 1, 79, 95
2, 600981, Pitch_bend_c, 1, 8320
2, 601002, Pitch_bend_c, 1, 8448
2, 601023, Pitch_bend_c, 1, 8576
2, 601044, Pitch_bend_c, 1, 8704
2, 601065, Pitch_bend_c, 1, 8832
2, 601086, Pitch_bend_c, 1, 8960
2, 601107, Pitch_bend_c, 1, 9088
2, 601128, Pitch_bend_c, 1, 9216
2, 601149, Pitch_bend_c, 1, 9344
2, 601170, Pitch_bend_c, 1, 9472
2, 601191, Pitch_bend_c, 1, 9600
2, 601200, Pitch_bend_c, 1, 9600
2, 601440, Pitch_bend_c, 1, 9600
2, 601461, Pitch_bend_c, 1, 9472
2, 601482, Pitch_bend_c, 1, 9344
2, 601503, Pitch_bend_c, 1, 9216
2, 601524, Pitch_bend_c, 1, 9088
2, 601545, Pitch_bend_c, 1, 8960
2, 601566, Pitch_bend_c, 1, 8832
2, 601587, Pitch_bend_c, 1, 8704
2, 601608, Pitch_bend_c, 1, 8576
2, 601629, Pitch_bend_c, 1, 8448
2, 601650, Pitch_bend_c, 1, 8320
2, 601671, Pitch_bend_c, 1, 8192
2, 601680, Pitch_bend_c, 1, 8192
2, 601920, Pitch_bend_c, 1, 8192
2, 601920, Pitch_bend_c, 1, 8192
2, 601920, Note_off_c, 1, 79, 95
2, 601920, Note_on_c, 0, 76, 95
2, 602400, Note_off_c, 0, 76, 95
2, 602400, Pitch_bend_c, 1, 8192
2, 602400, Note_on_c, 1, 79, 95
2, 602509, Pitch_bend_c, 1, 8320
2, 602618, Pitch_bend_c, 1, 8448
2, 602727, Pitch_bend_c, 1, 8576
2, 602836, Pitch_bend_c, 1, 8704
2, 602945, Pitch_bend_c, 1, 8832
2, 603054, Pitch_bend_c, 1, 8960
2, 603163, Pitch_bend_c, 1, 9088
2, 603272, Pitch_bend_c, 1, 9216
2, 603381, Pitch_bend_c, 1, 9344
2, 603490, Pitch_bend_c, 1, 9472
2, 603599, Pitch_bend_c, 1, 9600
2, 603600, Pitch_bend_c, 1, 9600
2, 604800, Pitch_bend_c, 1, 9600
2, 604800, Pitch_bend_c, 1, 8192
2, 604800, Note_off_c, 1, 79, 95
2, 604800, Pitch_bend_c, 1, 8192
2, 604800, Note_on_c, 1, 79, 95
2, 604843, Pitch_bend_c, 1, 8320
2, 604886, Pitch_bend_c, 1, 8448
2, 604929, Pitch_bend_c, 1, 8576
2, 604972, Pitch_bend_c, 1, 8704
2, 605015, Pitch_bend_c, 1, 8832
2, 605058, Pitch_bend_c, 1, 8960
2, 605101, Pitch_bend_c, 1, 9088
2, 605144, Pitch_bend_c, 1, 9216
2, 605187, Pitch_bend_c, 1, 9344
2, 605230, Pitch_bend_c, 1, 9472
2, 605273, Pitch_bend_c, 1, 9600
2, 605280, Pitch_bend_c, 1, 9600
2, 605760, Pitch_bend_c, 1, 9600
2, 605760, Pitch_bend_c, 1, 8192
2, 605760, Note_off_c, 1, 79, 95
2, 605760, Note_on_c, 0, 84, 95
2, 606240, Note_off_c, 0, 84, 95
2, 606240, Pitch_bend_c, 1, 8192
2, 606240, Note_on_c, 1, 79, 95
2, 606261, Pitch_bend_c, 1, 8320
2, 606282, Pitch_bend_c, 1, 8448
2, 606303, Pitch_bend_c, 1, 8576
2, 606324, Pitch_bend_c, 1, 8704
2, 606345, Pitch_bend_c, 1, 8832
2, 606366, Pitch_bend_c, 1, 8960
2, 606387, Pitch_bend_c, 1, 9088
2, 606408, Pitch_bend_c, 1, 9216
2, 606429, Pitch_bend_c, 1, 9344
2, 606450, Pitch_bend_c, 1, 9472
2, 606471, Pitch_bend_c, 1, 9600
2, 606480, Pitch_bend_c, 1, 9600
2, 606720, Pitch_bend_c, 1, 9600
2, 606741, Pitch_bend_c, 1, 9472
2, 606762, Pitch_bend_c, 1, 9344
2, 606783, Pitch_bend_c, 1, 9216
2, 606804, Pitch_bend_c, 1, 9088
2, 606825, Pitch_bend_c, 1, 8960
2, 606846, Pitch_bend_c, 1, 8832
2, 606867, Pitch_bend_c, 1, 8704
2, 606888, Pitch_bend_c, 1, 8576
2, 606909, Pitch_bend_c, 1, 8448
2, 606930, Pitch_bend_c, 1, 8320
2, 606951, Pitch_bend_c, 1, 8192
2, 606960, Pitch_bend_c, 1, 8192
2, 607200, Pitch_bend_c, 1, 8192
2, 607200, Pitch_bend_c, 1, 8192
2, 607200, Note_off_c, 1, 79, 95
2, 607200, Pitch_bend_c, 1, 8192
2, 607200, Note_on_c, 1, 74, 95
2, 607221, Pitch_bend_c, 1, 8320
2, 607242, Pitch_bend_c, 1, 8448
2, 607263, Pitch_bend_c, 1, 8576
2, 607284, Pitch_bend_c, 1, 8704
2, 607305, Pitch_bend_c, 1, 8832
2, 607326, Pitch_bend_c, 1, 8960
2, 607347, Pitch_bend_c, 1, 9088
2, 607368, Pitch_bend_c, 1, 9216
2, 607389, Pitch_bend_c, 1, 9344
2, 607410, Pitch_bend_c, 1, 9472
2, 607431, Pitch_bend_c, 1, 9600
2, 607440, Pitch_bend_c, 1, 9600
2, 607680, Pitch_bend_c, 1, 9600
2, 607701, Pitch_bend_c, 1, 9472
2, 607722, Pitch_bend_c, 1, 9344
2, 607743, Pitch_bend_c, 1, 9216
2, 607764, Pitch_bend_c, 1, 9088
2, 607785, Pitch_bend_c, 1, 8960
2, 607806, Pitch_bend_c, 1, 8832
2, 607827, Pitch_bend_c, 1, 8704
2, 607848, Pitch_bend_c, 1, 8576
2, 607869, Pitch_bend_c, 1, 8448
2, 607890, Pitch_bend_c, 1, 8320
2, 607911, Pitch_bend_c, 1, 8192
2, 607920, Pitch_bend_c, 1, 8192
2, 608160, Pitch_bend_c, 1, 8192
2, 608160, Pitch_bend_c, 1, 8192
2, 608160, Note_off_c, 1, 74, 95
2, 608160, Note_on_c, 0, 72, 95
2, 608640, Note_off_c, 0, 72, 95
2, 608640, Note_on_c, 0, 79, 95
2, 609120, Note_off_c, 0, 79, 95
2, 609120, Pitch_bend_c, 1, 8192
2, 609120, Note_on_c, 1, 74, 95
2, 609141, Pitch_bend_c, 1, 8320
2, 609162, Pitch_bend_c, 1, 8448
2, 609183, Pitch_bend_c, 1, 8576
2, 609204, Pitch_bend_c, 1, 8704
2, 609225, Pitch_bend_c, 1, 8832
2, 609246, Pitch_bend_c, 1, 8960
2, 609267, Pitch_bend_c, 1, 9088
2, 609288, Pitch_bend_c, 1, 9216
2, 609309, Pitch_bend_c, 1, 9344
2, 609330, Pitch_bend_c, 1, 9472
2, 609351, Pitch_bend_c, 1, 9600
2, 609360, Pitch_bend_c, 1, 9600
2, 609600, Pitch_bend_c, 1, 9600
2, 609621, Pitch_bend_c, 1, 9472
2, 609642, Pitch_bend_c, 1, 9344
2, 609663, Pitch_bend_c, 1, 9216
2, 609684, Pitch_bend_c, 1, 9088
2, 609705, Pitch_bend_c, 1, 8960
2, 609726, Pitch_bend_c, 1, 8832
2, 609747, Pitch_bend_c, 1, 8704
2, 609768, Pitch_bend_c, 1, 8576
2, 609789, Pitch_bend_c, 1, 8448
2, 609810, Pitch_bend_c, 1, 8320
2, 609831, Pitch_bend_c, 1, 8192
2, 609840, Pitch_bend_c, 1, 8192
2, 610080, Pitch_bend_c, 1, 8192
2, 610080, Pitch_bend_c, 1, 8192
2, 610080, Note_off_c, 1, 74, 95
2, 610080, Note_on_c, 0, 72, 95
2, 610560, Note_off_c, 0, 72, 95
2, 610560, Pitch_bend_c, 1, 8192
2, 610560, Note_on_c, 1, 74, 95
2, 610581, Pitch_bend_c, 1, 8320
2, 610602, Pitch_bend_c, 1, 8448
2, 610623, Pitch_bend_c, 1, 8576
2, 610644, Pitch_bend_c, 1, 8704
2, 610665, Pitch_bend_c, 1, 8832
2, 610686, Pitch_bend_c, 1, 8960
2, 610707, Pitch_bend_c, 1, 9088
2, 610728, Pitch_bend_c, 1, 9216
2, 610749, Pitch_bend_c, 1, 9344
2, 610770, Pitch_bend_c, 1, 9472
2, 610791, Pitch_bend_c, 1, 9600
2, 610800, Pitch_bend_c, 1, 9600
2, 611040, Pitch_bend_c, 1, 9600
2, 611061, Pitch_bend_c, 1, 9472
2, 611082, Pitch_bend_c, 1, 9344
2, 611103, Pitch_bend_c, 1, 9216
2, 611124, Pitch_bend_c, 1, 9088
2, 611145, Pitch_bend_c, 1, 8960
2, 611166, Pitch_bend_c, 1, 8832
2, 611187, Pitch_bend_c, 1, 8704
2, 611208, Pitch_bend_c, 1, 8576
2, 611229, Pitch_bend_c, 1, 8448
2, 611250, Pitch_bend_c, 1, 8320
2, 611271, Pitch_bend_c, 1, 8192
2, 611280, Pitch_bend_c, 1, 8192
2, 611520, Pitch_bend_c, 1, 8192
2, 611520, Pitch_bend_c, 1, 8192
2, 611520, Note_off_c, 1, 74, 95
2, 611520, Note_on_c, 0, 72, 95
2, 612000, Note_off_c, 0, 72, 95
2, 612000, Note_on_c, 0, 69, 95
2, 612480, Note_off_c, 0, 69, 95
2, 612480, Note_on_c, 0, 72, 95
2, 612960, Note_off_c, 0, 72, 95
2, 612960, Note_on_c, 0, 69, 95
2, 613440, Note_off_c, 0, 69, 95
2, 613440, Note_on_c, 0, 67, 95
2, 613920, Note_off_c, 0, 67, 95
2, 613920, Note_on_c, 1, 69, 95
2, 614080, Pitch_bend_c, 1, 8192
2, 614240, Pitch_bend_c, 1, 8320
2, 614400, Pitch_bend_c, 1, 8192
2, 614560, Pitch_bend_c, 1, 8320
2, 614720, Pitch_bend_c, 1, 8192
2, 614880, Pitch_bend_c, 1, 8320
2, 615040, Pitch_bend_c, 1, 8192
2, 615200, Pitch_bend_c, 1, 8320
2, 615360, Pitch_bend_c, 1, 8192
2, 615520, Pitch_bend_c, 1, 8320
2, 615680, Pitch_bend_c, 1, 8192
2, 615840, Pitch_bend_c, 1, 8320
2, 616000, Pitch_bend_c, 1, 8192
2, 616160, Pitch_bend_c, 1, 8320
2, 616320, Pitch_bend_c, 1, 8192
2, 616480, Pitch_bend_c, 1, 8320
2, 616640, Pitch_bend_c, 1, 8192
2, 616800, Pitch_bend_c, 1, 8320
2, 616960, Pitch_bend_c, 1, 8192
2, 617120, Pitch_bend_c, 1, 8320
2, 617280, Pitch_bend_c, 1, 8192
2, 617440, Pitch_bend_c, 1, 8320
2, 617600, Pitch_bend_c, 1, 8192
2, 617760, Pitch_bend_c, 1, 8320
2, 617920, Pitch_bend_c, 1, 8192
2, 618080, Pitch_bend_c, 1, 8320
2, 618240, Pitch_bend_c, 1, 8192
2, 618400, Pitch_bend_c, 1, 8320
2, 618560, Pitch_bend_c, 1, 8192
2, 618720, Pitch_bend_c, 1, 8320
2, 618720, Pitch_bend_c, 1, 8192
2, 618720, Note_off_c, 1, 69, 95
2, 618720, Note_on_c, 0, 52, 95
2, 618960, Note_off_c, 0, 52, 95
2, 618960, Note_on_c, 0, 52, 95
2, 619200, Note_off_c, 0, 52, 95
2, 619200, Note_on_c, 0, 59, 95
2, 619200, Note_on_c, 0, 52, 95
2, 619680, Note_off_c, 0, 59, 95
2, 619680, Note_off_c, 0, 52, 95
2, 619680, Note_on_c, 0, 52, 95
2, 619920, Note_off_c, 0, 52, 95
2, 619920, Note_on_c, 0, 52, 95
2, 620160, Note_off_c, 0, 52, 95
2, 620160, Note_on_c, 0, 57, 95
2, 620160, Note_on_c, 0, 52, 95
2, 620640, Note_off_c, 0, 57, 95
2, 620640, Note_off_c, 0, 52, 95
2, 620640, Note_on_c, 0, 59, 95
2, 620640, Note_on_c, 0, 52, 95
2, 621120, Note_off_c, 0, 59, 95
2, 621120, Note_off_c, 0, 52, 95
2, 621120, Note_on_c, 0, 52, 95
2, 621360, Note_off_c, 0, 52, 95
2, 621360, Note_on_c, 0, 52, 95
2, 621600, Note_off_c, 0, 52, 95
2, 621600, Note_on_c, 0, 52, 95
2, 621840, Note_off_c, 0, 52, 95
2, 621840, Note_on_c, 0, 52, 95
2, 622080, Note_off_c, 0, 52, 95
2, 622080, Note_on_c, 0, 59, 95
2, 622080, Note_on_c, 0, 52, 95
2, 622560, Note_off_c, 0, 59, 95
2, 622560, Note_off_c, 0, 52, 95
2, 622560, Note_on_c, 0, 52, 95
2, 622800, Note_off_c, 0, 52, 95
2, 622800, Note_on_c, 0, 52, 95
2, 623040, Note_off_c, 0, 52, 95
2, 623040, Note_on_c, 0, 59, 95
2, 623040, Note_on_c, 0, 52, 95
2, 623520, Note_off_c, 0, 59, 95
2, 623520, Note_off_c, 0, 52, 95
2, 623520, Note_on_c, 0, 52, 95
2, 624000, Note_off_c, 0, 52, 95
2, 624000, Note_on_c, 0, 57, 95
2, 624000, Note_on_c, 0, 52, 95
2, 624480, Note_off_c, 0, 57, 95
2, 624480, Note_off_c, 0, 52, 95
2, 624480, Note_on_c, 0, 59, 95
2, 624480, Note_on_c, 0, 52, 95
2, 624960, Note_off_c, 0, 59, 95
2, 624960, Note_off_c, 0, 52, 95
2, 625440, Note_on_c, 0, 62, 95
2, 625440, Note_on_c, 0, 55, 95
2, 626400, Note_off_c, 0, 62, 95
2, 626400, Note_off_c, 0, 55, 95
2, 626400, Note_on_c, 0, 55, 95
2, 626640, Note_off_c, 0, 55, 95
2, 626640, Note_on_c, 0, 55, 95
2, 626880, Note_off_c, 0, 55, 95
2, 626880, Note_on_c, 0, 62, 95
2, 626880, Note_on_c, 0, 55, 95
2, 627360, Note_off_c, 0, 62, 95
2, 627360, Note_off_c, 0, 55, 95
2, 627360, Note_on_c, 0, 55, 95
2, 627600, Note_off_c, 0, 55, 95
2, 627600, Note_on_c, 0, 55, 95
2, 627840, Note_off_c, 0, 55, 95
2, 627840, Note_on_c, 0, 60, 95
2, 627840, Note_on_c, 0, 55, 95
2, 628320, Note_off_c, 0, 60, 95
2, 628320, Note_off_c, 0, 55, 95
2, 628320, Note_on_c, 0, 62, 95
2, 628320, Note_on_c, 0, 55, 95
2, 628800, Note_off_c, 0, 62, 95
2, 628800, Note_off_c, 0, 55, 95
2, 628800, Note_on_c, 0, 55, 95
2, 629040, Note_off_c, 0, 55, 95
2, 629040, Note_on_c, 0, 55, 95
2, 629280, Note_off_c, 0, 55, 95
2, 629280, Note_on_c, 0, 55, 95
2, 629520, Note_off_c, 0, 55, 95
2, 629520, Note_on_c, 0, 55, 95
2, 629760, Note_off_c, 0, 55, 95
2, 629760, Note_on_c, 0, 62, 95
2, 629760, Note_on_c, 0, 55, 95
2, 630240, Note_off_c, 0, 62, 95
2, 630240, Note_off_c, 0, 55, 95
2, 630240, Note_on_c, 0, 55, 95
2, 630480, Note_off_c, 0, 55, 95
2, 630480, Note_on_c, 0, 55, 95
2, 630720, Note_off_c, 0, 55, 95
2, 630720, Note_on_c, 0, 62, 95
2, 630720, Note_on_c, 0, 55, 95
2, 631200, Note_off_c, 0, 62, 95
2, 631200, Note_off_c, 0, 55, 95
2, 631200, Note_on_c, 0, 55, 95
2, 631680, Note_off_c, 0, 55, 95
2, 631680, Note_on_c, 0, 60, 95
2, 631680, Note_on_c, 0, 55, 95
2, 632160, Note_off_c, 0, 60, 95
2, 632160, Note_off_c, 0, 55, 95
2, 632160, Note_on_c, 0, 62, 95
2, 632160, Note_on_c, 0, 55, 95
2, 632640, Note_off_c, 0, 62, 95
2, 632640, Note_off_c, 0, 55, 95
2, 633120, Note_on_c, 0, 64, 95
2, 633120, Note_on_c, 0, 57, 95
2, 634080, Note_off_c, 0, 64, 95
2, 634080, Note_off_c, 0, 57, 95
2, 634080, Note_on_c, 0, 57, 95
2, 634320, Note_off_c, 0, 57, 95
2, 634320, Note_on_c, 0, 57, 95
2, 634560, Note_off_c, 0, 57, 95
2, 634560, Note_on_c, 0, 64, 95
2, 634560, Note_on_c, 0, 57, 95
2, 635040, Note_off_c, 0, 64, 95
2, 635040, Note_off_c, 0, 57, 95
2, 635040, Note_on_c, 0, 57, 95
2, 635280, Note_off_c, 0, 57, 95
2, 635280, Note_on_c, 0, 57, 95
2, 635520, Note_off_c, 0, 57, 95
2, 635520, Note_on_c, 0, 62, 95
2, 635520, Note_on_c, 0, 57, 95
2, 636000, Note_off_c, 0, 62, 95
2, 636000, Note_off_c, 0, 57, 95
2, 636000, Note_on_c, 0, 64, 95
2, 636000, Note_on_c, 0, 57, 95
2, 636480, Note_off_c, 0, 64, 95
2, 636480, Note_off_c, 0, 57, 95
2, 636480, Note_on_c, 0, 57, 95
2, 636720, Note_off_c, 0, 57, 95
2, 636720, Note_on_c, 0, 57, 95
2, 636960, Note_off_c, 0, 57, 95
2, 636960, Note_on_c, 0, 57, 95
2, 637200, Note_off_c, 0, 57, 95
2, 637200, Note_on_c, 0, 57, 95
2, 637440, Note_off_c, 0, 57, 95
2, 637440, Note_on_c, 0, 64, 95
2, 637440, Note_on_c, 0, 57, 95
2, 637920, Note_off_c, 0, 64, 95
2, 637920, Note_off_c, 0, 57, 95
2, 637920, Note_on_c, 0, 57, 95
2, 638160, Note_off_c, 0, 57, 95
2, 638160, Note_on_c, 0, 57, 95
2, 638400, Note_off_c, 0, 57, 95
2, 638400, Note_on_c, 0, 64, 95
2, 638400, Note_on_c, 0, 57, 95
2, 638880, Note_off_c, 0, 64, 95
2, 638880, Note_off_c, 0, 57, 95
2, 638880, Note_on_c, 0, 57, 95
2, 639360, Note_off_c, 0, 57, 95
2, 639360, Note_on_c, 0, 64, 95
2, 639360, Note_on_c, 0, 57, 95
2, 639840, Note_off_c, 0, 64, 95
2, 639840, Note_off_c, 0, 57, 95
2, 640320, Note_on_c, 0, 57, 95
2, 640320, Note_on_c, 0, 50, 95
2, 640800, Note_off_c, 0, 57, 95
2, 640800, Note_off_c, 0, 50, 95
2, 640800, Note_on_c, 0, 59, 95
2, 640800, Note_on_c, 0, 52, 95
2, 641760, Note_off_c, 0, 59, 95
2, 641760, Note_off_c, 0, 52, 95
2, 641760, End_track
3, 0, Start_track
3, 0, Pitch_bend_c, 2, 8192
3, 0, Control_c, 2, 7, 127
3, 0, Control_c, 2, 10, 63
3, 0, Control_c, 2, 93, 0
3, 0, Control_c, 2, 91, 0
3, 0, Control_c, 2, 95, 0
3, 0, Control_c, 2, 92, 0
3, 0, Control_c, 2, 11, 127
3, 0, Program_c, 2, 30
3, 0, Control_c, 3, 7, 127
3, 0, Control_c, 3, 10, 63
3, 0, Control_c, 3, 93, 0
3, 0, Control_c, 3, 91, 0
3, 0, Control_c, 3, 95, 0
3, 0, Control_c, 3, 92, 0
3, 0, Control_c, 3, 11, 127
3, 0, Program_c, 3, 30
3, 3840, Note_on_c, 2, 52, 95
3, 4080, Note_off_c, 2, 52, 95
3, 4080, Note_on_c, 2, 52, 95
3, 4320, Note_off_c, 2, 52, 95
3, 4320, Note_on_c, 2, 52, 95
3, 4560, Note_off_c, 2, 52, 95
3, 4560, Note_on_c, 2, 52, 95
3, 4800, Note_off_c, 2, 52, 95
3, 4800, Note_on_c, 2, 59, 95
3, 4800, Note_on_c, 2, 52, 95
3, 5280, Note_off_c, 2, 59, 95
3, 5280, Note_off_c, 2, 52, 95
3, 5280, Note_on_c, 2, 52, 95
3, 5520, Note_off_c, 2, 52, 95
3, 5520, Note_on_c, 2, 52, 95
3, 5760, Note_off_c, 2, 52, 95
3, 5760, Note_on_c, 2, 57, 95
3, 5760, Note_on_c, 2, 52, 95
3, 6240, Note_off_c, 2, 57, 95
3, 6240, Note_off_c, 2, 52, 95
3, 6240, Note_on_c, 2, 59, 95
3, 6240, Note_on_c, 2, 52, 95
3, 6720, Note_off_c, 2, 59, 95
3, 6720, Note_off_c, 2, 52, 95
3, 6720, Note_on_c, 2, 52, 95
3, 6960, Note_off_c, 2, 52, 95
3, 6960, Note_on_c, 2, 52, 95
3, 7200, Note_off_c, 2, 52, 95
3, 7200, Note_on_c, 2, 52, 95
3, 7440, Note_off_c, 2, 52, 95
3, 7440, Note_on_c, 2, 52, 95
3, 7680, Note_off_c, 2, 52, 95
3, 7680, Note_on_c, 2, 59, 95
3, 7680, Note_on_c, 2, 52, 95
3, 8160, Note_off_c, 2, 59, 95
3, 8160, Note_off_c, 2, 52, 95
3, 8160, Note_on_c, 2, 52, 95
3, 8400, Note_off_c, 2, 52, 95
3, 8400, Note_on_c, 2, 52, 95
3, 8640, Note_off_c, 2, 52, 95
3, 8640, Note_on_c, 2, 59, 95
3, 8640, Note_on_c, 2, 52, 95
3, 9120, Note_off_c, 2, 59, 95
3, 9120, Note_off_c, 2, 52, 95
3, 9120, Note_on_c, 2, 52, 95
3, 9600, Note_off_c, 2, 52, 95
3, 9600, Note_on_c, 2, 57, 95
3, 9600, Note_on_c, 2, 52, 95
3, 10080, Note_off_c, 2, 57, 95
3, 10080, Note_off_c, 2, 52, 95
3, 10080, Note_on_c, 2, 59, 95
3, 10080, Note_on_c, 2, 52, 95
3, 10560, Note_off_c, 2, 59, 95
3, 10560, Note_off_c, 2, 52, 95
3, 11040, Note_on_c, 2, 60, 95
3, 11040, Note_on_c, 2, 55, 95
3, 11040, Note_on_c, 2, 48, 95
3, 12000, Note_off_c, 2, 60, 95
3, 12000, Note_off_c, 2, 55, 95
3, 12000, Note_off_c, 2, 48, 95
3, 12000, Note_on_c, 2, 48, 95
3, 12240, Note_off_c, 2, 48, 95
3, 12240, Note_on_c, 2, 48, 95
3, 12480, Note_off_c, 2, 48, 95
3, 12480, Note_on_c, 2, 60, 95
3, 12480, Note_on_c, 2, 55, 95
3, 12480, Note_on_c, 2, 48, 95
3, 12960, Note_off_c, 2, 60, 95
3, 12960, Note_off_c, 2, 55, 95
3, 12960, Note_off_c, 2, 48, 95
3, 12960, Note_on_c, 2, 48, 95
3, 13200, Note_off_c, 2, 48, 95
3, 13200, Note_on_c, 2, 48, 95
3, 13440, Note_off_c, 2, 48, 95
3, 13440, Note_on_c, 2, 59, 95
3, 13440, Note_on_c, 2, 55, 95
3, 13440, Note_on_c, 2, 48, 95
3, 13920, Note_off_c, 2, 59, 95
3, 13920, Note_off_c, 2, 55, 95
3, 13920, Note_off_c, 2, 48, 95
3, 13920, Note_on_c, 2, 60, 95
3, 13920, Note_on_c, 2, 55, 95
3, 13920, Note_on_c, 2, 48, 95
3, 14400, Note_off_c, 2, 60, 95
3, 14400, Note_off_c, 2, 55, 95
3, 14400, Note_off_c, 2, 48, 95
3, 14400, Note_on_c, 2, 48, 95
3, 14640, Note_off_c, 2, 48, 95
3, 14640, Note_on_c, 2, 48, 95
3, 14880, Note_off_c, 2, 48, 95
3, 14880, Note_on_c, 2, 48, 95
3, 15120, Note_off_c, 2, 48, 95
3, 15120, Note_on_c, 2, 48, 95
3, 15360, Note_off_c, 2, 48, 95
3, 15360, Note_on_c, 2, 62, 95
3, 15360, Note_on_c, 2, 55, 95
3, 15360, Note_on_c, 2, 48, 95
3, 15840, Note_off_c, 2, 62, 95
3, 15840, Note_off_c, 2, 55, 95
3, 15840, Note_off_c, 2, 48, 95
3, 15840, Note_on_c, 2, 48, 95
3, 16080, Note_off_c, 2, 48, 95
3, 16080, Note_on_c, 2, 48, 95
3, 16320, Note_off_c, 2, 48, 95
3, 16320, Note_on_c, 2, 60, 95
3, 16320, Note_on_c, 2, 55, 95
3, 16320, Note_on_c, 2, 48, 95
3, 16800, Note_off_c, 2, 60, 95
3, 16800, Note_off_c, 2, 55, 95
3, 16800, Note_off_c, 2, 48, 95
3, 16800, Note_on_c, 2, 48, 95
3, 17040, Note_off_c, 2, 48, 95
3, 17040, Note_on_c, 2, 48, 95
3, 17280, Note_off_c, 2, 48, 95
3, 17280, Note_on_c, 2, 59, 95
3, 17280, Note_on_c, 2, 55, 95
3, 17280, Note_on_c, 2, 48, 95
3, 17760, Note_off_c, 2, 59, 95
3, 17760, Note_off_c, 2, 55, 95
3, 17760, Note_off_c, 2, 48, 95
3, 17760, Note_on_c, 2, 48, 95
3, 18000, Note_off_c, 2, 48, 95
3, 18000, Note_on_c, 2, 48, 95
3, 18240, Note_off_c, 2, 48, 95
3, 18240, Note_on_c, 2, 60, 95
3, 18240, Note_on_c, 2, 55, 95
3, 18240, Note_on_c, 2, 48, 95
3, 18720, Note_off_c, 2, 60, 95
3, 18720, Note_off_c, 2, 55, 95
3, 18720, Note_off_c, 2, 48, 95
3, 18720, Note_on_c, 2, 59, 95
3, 18720, Note_on_c, 2, 52, 95
3, 19680, Note_off_c, 2, 59, 95
3, 19680, Note_off_c, 2, 52, 95
3, 19680, Note_on_c, 2, 52, 95
3, 19920, Note_off_c, 2, 52, 95
3, 19920, Note_on_c, 2, 52, 95
3, 20160, Note_off_c, 2, 52, 95
3, 20160, Note_on_c, 2, 59, 95
3, 20160, Note_on_c, 2, 52, 95
3, 20640, Note_off_c, 2, 59, 95
3, 20640, Note_off_c, 2, 52, 95
3, 20640, Note_on_c, 2, 52, 95
3, 20880, Note_off_c, 2, 52, 95
3, 20880, Note_on_c, 2, 52, 95
3, 21120, Note_off_c, 2, 52, 95
3, 21120, Note_on_c, 2, 57, 95
3, 21120, Note_on_c, 2, 52, 95
3, 21600, Note_off_c, 2, 57, 95
3, 21600, Note_off_c, 2, 52, 95
3, 21600, Note_on_c, 2, 59, 95
3, 21600, Note_on_c, 2, 52, 95
3, 22080, Note_off_c, 2, 59, 95
3, 22080, Note_off_c, 2, 52, 95
3, 22080, Note_on_c, 2, 52, 95
3, 22320, Note_off_c, 2, 52, 95
3, 22320, Note_on_c, 2, 52, 95
3, 22560, Note_off_c, 2, 52, 95
3, 22560, Note_on_c, 2, 52, 95
3, 22800, Note_off_c, 2, 52, 95
3, 22800, Note_on_c, 2, 52, 95
3, 23040, Note_off_c, 2, 52, 95
3, 23040, Note_on_c, 2, 59, 95
3, 23040, Note_on_c, 2, 52, 95
3, 23520, Note_off_c, 2, 59, 95
3, 23520, Note_off_c, 2, 52, 95
3, 23520, Note_on_c, 2, 52, 95
3, 23760, Note_off_c, 2, 52, 95
3, 23760, Note_on_c, 2, 52, 95
3, 24000, Note_off_c, 2, 52, 95
3, 24000, Note_on_c, 2, 59, 95
3, 24000, Note_on_c, 2, 52, 95
3, 24480, Note_off_c, 2, 59, 95
3, 24480, Note_off_c, 2, 52, 95
3, 24480, Note_on_c, 2, 52, 95
3, 24960, Note_off_c, 2, 52, 95
3, 24960, Note_on_c, 2, 57, 95
3, 24960, Note_on_c, 2, 52, 95
3, 25440, Note_off_c, 2, 57, 95
3, 25440, Note_off_c, 2, 52, 95
3, 25440, Note_on_c, 2, 59, 95
3, 25440, Note_on_c, 2, 52, 95
3, 25920, Note_off_c, 2, 59, 95
3, 25920, Note_off_c, 2, 52, 95
3, 26400, Note_on_c, 2, 60, 95
3, 26400, Note_on_c, 2, 55, 95
3, 26400, Note_on_c, 2, 48, 95
3, 27360, Note_off_c, 2, 60, 95
3, 27360, Note_off_c, 2, 55, 95
3, 27360, Note_off_c, 2, 48, 95
3, 27360, Note_on_c, 2, 48, 95
3, 27600, Note_off_c, 2, 48, 95
3, 27600, Note_on_c, 2, 48, 95
3, 27840, Note_off_c, 2, 48, 95
3, 27840, Note_on_c, 2, 60, 95
3, 27840, Note_on_c, 2, 55, 95
3, 27840, Note_on_c, 2, 48, 95
3, 28320, Note_off_c, 2, 60, 95
3, 28320, Note_off_c, 2, 55, 95
3, 28320, Note_off_c, 2, 48, 95
3, 28320, Note_on_c, 2, 48, 95
3, 28560, Note_off_c, 2, 48, 95
3, 28560, Note_on_c, 2, 48, 95
3, 28800, Note_off_c, 2, 48, 95
3, 28800, Note_on_c, 2, 59, 95
3, 28800, Note_on_c, 2, 55, 95
3, 28800, Note_on_c, 2, 48, 95
3, 29280, Note_off_c, 2, 59, 95
3, 29280, Note_off_c, 2, 55, 95
3, 29280, Note_off_c, 2, 48, 95
3, 29280, Note_on_c, 2, 60, 95
3, 29280, Note_on_c, 2, 55, 95
3, 29280, Note_on_c, 2, 48, 95
3, 29760, Note_off_c, 2, 60, 95
3, 29760, Note_off_c, 2, 55, 95
3, 29760, Note_off_c, 2, 48, 95
3, 29760, Note_on_c, 2, 48, 95
3, 30000, Note_off_c, 2, 48, 95
3, 30000, Note_on_c, 2, 48, 95
3, 30240, Note_off_c, 2, 48, 95
3, 30240, Note_on_c, 2, 48, 95
3, 30480, Note_off_c, 2, 48, 95
3, 30480, Note_on_c, 2, 48, 95
3, 30720, Note_off_c, 2, 48, 95
3, 30720, Note_on_c, 2, 62, 95
3, 30720, Note_on_c, 2, 55, 95
3, 30720, Note_on_c, 2, 48, 95
3, 31200, Note_off_c, 2, 62, 95
3, 31200, Note_off_c, 2, 55, 95
3, 31200, Note_off_c, 2, 48, 95
3, 31200, Note_on_c, 2, 48, 95
3, 31440, Note_off_c, 2, 48, 95
3, 31440, Note_on_c, 2, 48, 95
3, 31680, Note_off_c, 2, 48, 95
3, 31680, Note_on_c, 2, 60, 95
3, 31680, Note_on_c, 2, 55, 95
3, 31680, Note_on_c, 2, 48, 95
3, 32160, Note_off_c, 2, 60, 95
3, 32160, Note_off_c, 2, 55, 95
3, 32160, Note_off_c, 2, 48, 95
3, 32160, Note_on_c, 2, 48, 95
3, 32400, Note_off_c, 2, 48, 95
3, 32400, Note_on_c, 2, 48, 95
3, 32640, Note_off_c, 2, 48, 95
3, 32640, Note_on_c, 2, 59, 95
3, 32640, Note_on_c, 2, 55, 95
3, 32640, Note_on_c, 2, 48, 95
3, 33120, Note_off_c, 2, 59, 95
3, 33120, Note_off_c, 2, 55, 95
3, 33120, Note_off_c, 2, 48, 95
3, 33120, Note_on_c, 2, 48, 95
3, 33360, Note_off_c, 2, 48, 95
3, 33360, Note_on_c, 2, 48, 95
3, 33600, Note_off_c, 2, 48, 95
3, 33600, Note_on_c, 2, 60, 95
3, 33600, Note_on_c, 2, 55, 95
3, 33600, Note_on_c, 2, 48, 95
3, 34080, Note_off_c, 2, 60, 95
3, 34080, Note_off_c, 2, 55, 95
3, 34080, Note_off_c, 2, 48, 95
3, 34080, Note_on_c, 2, 59, 95
3, 34080, Note_on_c, 2, 52, 95
3, 35040, Note_off_c, 2, 59, 95
3, 35040, Note_off_c, 2, 52, 95
3, 35040, Note_on_c, 2, 52, 95
3, 35280, Note_off_c, 2, 52, 95
3, 35280, Note_on_c, 2, 52, 95
3, 35520, Note_off_c, 2, 52, 95
3, 35520, Note_on_c, 2, 59, 95
3, 35520, Note_on_c, 2, 52, 95
3, 36000, Note_off_c, 2, 59, 95
3, 36000, Note_off_c, 2, 52, 95
3, 36000, Note_on_c, 2, 52, 95
3, 36240, Note_off_c, 2, 52, 95
3, 36240, Note_on_c, 2, 52, 95
3, 36480, Note_off_c, 2, 52, 95
3, 36480, Note_on_c, 2, 57, 95
3, 36480, Note_on_c, 2, 52, 95
3, 36960, Note_off_c, 2, 57, 95
3, 36960, Note_off_c, 2, 52, 95
3, 36960, Note_on_c, 2, 59, 95
3, 36960, Note_on_c, 2, 52, 95
3, 37440, Note_off_c, 2, 59, 95
3, 37440, Note_off_c, 2, 52, 95
3, 37440, Note_on_c, 2, 52, 95
3, 37680, Note_off_c, 2, 52, 95
3, 37680, Note_on_c, 2, 52, 95
3, 37920, Note_off_c, 2, 52, 95
3, 37920, Note_on_c, 2, 52, 95
3, 38160, Note_off_c, 2, 52, 95
3, 38160, Note_on_c, 2, 52, 95
3, 38400, Note_off_c, 2, 52, 95
3, 38400, Note_on_c, 2, 59, 95
3, 38400, Note_on_c, 2, 52, 95
3, 38880, Note_off_c, 2, 59, 95
3, 38880, Note_off_c, 2, 52, 95
3, 38880, Note_on_c, 2, 52, 95
3, 39120, Note_off_c, 2, 52, 95
3, 39120, Note_on_c, 2, 52, 95
3, 39360, Note_off_c, 2, 52, 95
3, 39360, Note_on_c, 2, 59, 95
3, 39360, Note_on_c, 2, 52, 95
3, 39840, Note_off_c, 2, 59, 95
3, 39840, Note_off_c, 2, 52, 95
3, 39840, Note_on_c, 2, 52, 95
3, 40320, Note_off_c, 2, 52, 95
3, 40320, Note_on_c, 2, 57, 95
3, 40320, Note_on_c, 2, 52, 95
3, 40800, Note_off_c, 2, 57, 95
3, 40800, Note_off_c, 2, 52, 95
3, 40800, Note_on_c, 2, 59, 95
3, 40800, Note_on_c, 2, 52, 95
3, 41280, Note_off_c, 2, 59, 95
3, 41280, Note_off_c, 2, 52, 95
3, 41760, Note_on_c, 2, 60, 95
3, 41760, Note_on_c, 2, 55, 95
3, 41760, Note_on_c, 2, 48, 95
3, 42720, Note_off_c, 2, 60, 95
3, 42720, Note_off_c, 2, 55, 95
3, 42720, Note_off_c, 2, 48, 95
3, 42720, Note_on_c, 2, 48, 95
3, 42960, Note_off_c, 2, 48, 95
3, 42960, Note_on_c, 2, 48, 95
3, 43200, Note_off_c, 2, 48, 95
3, 43200, Note_on_c, 2, 60, 95
3, 43200, Note_on_c, 2, 55, 95
3, 43200, Note_on_c, 2, 48, 95
3, 43680, Note_off_c, 2, 60, 95
3, 43680, Note_off_c, 2, 55, 95
3, 43680, Note_off_c, 2, 48, 95
3, 43680, Note_on_c, 2, 48, 95
3, 43920, Note_off_c, 2, 48, 95
3, 43920, Note_on_c, 2, 48, 95
3, 44160, Note_off_c, 2, 48, 95
3, 44160, Note_on_c, 2, 59, 95
3, 44160, Note_on_c, 2, 55, 95
3, 44160, Note_on_c, 2, 48, 95
3, 44640, Note_off_c, 2, 59, 95
3, 44640, Note_off_c, 2, 55, 95
3, 44640, Note_off_c, 2, 48, 95
3, 44640, Note_on_c, 2, 60, 95
3, 44640, Note_on_c, 2, 55, 95
3, 44640, Note_on_c, 2, 48, 95
3, 45120, Note_off_c, 2, 60, 95
3, 45120, Note_off_c, 2, 55, 95
3, 45120, Note_off_c, 2, 48, 95
3, 45120, Note_on_c, 2, 48, 95
3, 45360, Note_off_c, 2, 48, 95
3, 45360, Note_on_c, 2, 48, 95
3, 45600, Note_off_c, 2, 48, 95
3, 45600, Note_on_c, 2, 48, 95
3, 45840, Note_off_c, 2, 48, 95
3, 45840, Note_on_c, 2, 48, 95
3, 46080, Note_off_c, 2, 48, 95
3, 46080, Note_on_c, 2, 62, 95
3, 46080, Note_on_c, 2, 55, 95
3, 46080, Note_on_c, 2, 48, 95
3, 46560, Note_off_c, 2, 62, 95
3, 46560, Note_off_c, 2, 55, 95
3, 46560, Note_off_c, 2, 48, 95
3, 46560, Note_on_c, 2, 48, 95
3, 46800, Note_off_c, 2, 48, 95
3, 46800, Note_on_c, 2, 48, 95
3, 47040, Note_off_c, 2, 48, 95
3, 47040, Note_on_c, 2, 60, 95
3, 47040, Note_on_c, 2, 55, 95
3, 47040, Note_on_c, 2, 48, 95
3, 47520, Note_off_c, 2, 60, 95
3, 47520, Note_off_c, 2, 55, 95
3, 47520, Note_off_c, 2, 48, 95
3, 47520, Note_on_c, 2, 48, 95
3, 47760, Note_off_c, 2, 48, 95
3, 47760, Note_on_c, 2, 48, 95
3, 48000, Note_off_c, 2, 48, 95
3, 48000, Note_on_c, 2, 59, 95
3, 48000, Note_on_c, 2, 55, 95
3, 48000, Note_on_c, 2, 48, 95
3, 48480, Note_off_c, 2, 59, 95
3, 48480, Note_off_c, 2, 55, 95
3, 48480, Note_off_c, 2, 48, 95
3, 48480, Note_on_c, 2, 60, 95
3, 48480, Note_on_c, 2, 55, 95
3, 48480, Note_on_c, 2, 48, 95
3, 48960, Note_off_c, 2, 60, 95
3, 48960, Note_off_c, 2, 55, 95
3, 48960, Note_off_c, 2, 48, 95
3, 49440, Note_on_c, 2, 57, 95
3, 49440, Note_on_c, 2, 50, 95
3, 50400, Note_off_c, 2, 57, 95
3, 50400, Note_off_c, 2, 50, 95
3, 50400, Note_on_c, 2, 50, 95
3, 50640, Note_off_c, 2, 50, 95
3, 50640, Note_on_c, 2, 50, 95
3, 50880, Note_off_c, 2, 50, 95
3, 50880, Note_on_c, 2, 57, 95
3, 50880, Note_on_c, 2, 50, 95
3, 51360, Note_off_c, 2, 57, 95
3, 51360, Note_off_c, 2, 50, 95
3, 51360, Note_on_c, 2, 50, 95
3, 51600, Note_off_c, 2, 50, 95
3, 51600, Note_on_c, 2, 50, 95
3, 51840, Note_off_c, 2, 50, 95
3, 51840, Note_on_c, 2, 55, 95
3, 51840, Note_on_c, 2, 50, 95
3, 52320, Note_off_c, 2, 55, 95
3, 52320, Note_off_c, 2, 50, 95
3, 52320, Note_on_c, 2, 57, 95
3, 52320, Note_on_c, 2, 50, 95
3, 52800, Note_off_c, 2, 57, 95
3, 52800, Note_off_c, 2, 50, 95
3, 52800, Note_on_c, 2, 50, 95
3, 53040, Note_off_c, 2, 50, 95
3, 53040, Note_on_c, 2, 50, 95
3, 53280, Note_off_c, 2, 50, 95
3, 53280, Note_on_c, 2, 50, 95
3, 53520, Note_off_c, 2, 50, 95
3, 53520, Note_on_c, 2, 50, 95
3, 53760, Note_off_c, 2, 50, 95
3, 53760, Note_on_c, 2, 57, 95
3, 53760, Note_on_c, 2, 50, 95
3, 54240, Note_off_c, 2, 57, 95
3, 54240, Note_off_c, 2, 50, 95
3, 54240, Note_on_c, 2, 50, 95
3, 54480, Note_off_c, 2, 50, 95
3, 54480, Note_on_c, 2, 50, 95
3, 54720, Note_off_c, 2, 50, 95
3, 54720, Note_on_c, 2, 57, 95
3, 54720, Note_on_c, 2, 50, 95
3, 55200, Note_off_c, 2, 57, 95
3, 55200, Note_off_c, 2, 50, 95
3, 55200, Note_on_c, 2, 50, 95
3, 55680, Note_off_c, 2, 50, 95
3, 55680, Note_on_c, 2, 55, 95
3, 55680, Note_on_c, 2, 50, 95
3, 56160, Note_off_c, 2, 55, 95
3, 56160, Note_off_c, 2, 50, 95
3, 56160, Note_on_c, 2, 57, 95
3, 56160, Note_on_c, 2, 50, 95
3, 56640, Note_off_c, 2, 57, 95
3, 56640, Note_off_c, 2, 50, 95
3, 57120, Note_on_c, 2, 59, 95
3, 57120, Note_on_c, 2, 52, 95
3, 58080, Note_off_c, 2, 59, 95
3, 58080, Note_off_c, 2, 52, 95
3, 58080, Note_on_c, 2, 52, 95
3, 58320, Note_off_c, 2, 52, 95
3, 58320, Note_on_c, 2, 52, 95
3, 58560, Note_off_c, 2, 52, 95
3, 58560, Note_on_c, 2, 59, 95
3, 58560, Note_on_c, 2, 52, 95
3, 59040, Note_off_c, 2, 59, 95
3, 59040, Note_off_c, 2, 52, 95
3, 59040, Note_on_c, 2, 52, 95
3, 59280, Note_off_c, 2, 52, 95
3, 59280, Note_on_c, 2, 52, 95
3, 59520, Note_off_c, 2, 52, 95
3, 59520, Note_on_c, 2, 57, 95
3, 59520, Note_on_c, 2, 52, 95
3, 60000, Note_off_c, 2, 57, 95
3, 60000, Note_off_c, 2, 52, 95
3, 60000, Note_on_c, 2, 59, 95
3, 60000, Note_on_c, 2, 52, 95
3, 60480, Note_off_c, 2, 59, 95
3, 60480, Note_off_c, 2, 52, 95
3, 60480, Note_on_c, 2, 52, 95
3, 60720, Note_off_c, 2, 52, 95
3, 60720, Note_on_c, 2, 52, 95
3, 60960, Note_off_c, 2, 52, 95
3, 60960, Note_on_c, 2, 52, 95
3, 61200, Note_off_c, 2, 52, 95
3, 61200, Note_on_c, 2, 52, 95
3, 61440, Note_off_c, 2, 52, 95
3, 61440, Note_on_c, 2, 59, 95
3, 61440, Note_on_c, 2, 52, 95
3, 61920, Note_off_c, 2, 59, 95
3, 61920, Note_off_c, 2, 52, 95
3, 61920, Note_on_c, 2, 52, 95
3, 62160, Note_off_c, 2, 52, 95
3, 62160, Note_on_c, 2, 52, 95
3, 62400, Note_off_c, 2, 52, 95
3, 62400, Note_on_c, 2, 59, 95
3, 62400, Note_on_c, 2, 52, 95
3, 62880, Note_off_c, 2, 59, 95
3, 62880, Note_off_c, 2, 52, 95
3, 62880, Note_on_c, 2, 52, 95
3, 63360, Note_off_c, 2, 52, 95
3, 63360, Note_on_c, 2, 57, 95
3, 63360, Note_on_c, 2, 52, 95
3, 63840, Note_off_c, 2, 57, 95
3, 63840, Note_off_c, 2, 52, 95
3, 63840, Note_on_c, 2, 59, 95
3, 63840, Note_on_c, 2, 52, 95
3, 64320, Note_off_c, 2, 59, 95
3, 64320, Note_off_c, 2, 52, 95
3, 64800, Note_on_c, 2, 59, 95
3, 64800, Note_on_c, 2, 52, 95
3, 65760, Note_off_c, 2, 59, 95
3, 65760, Note_off_c, 2, 52, 95
3, 65760, Note_on_c, 2, 52, 95
3, 66000, Note_off_c, 2, 52, 95
3, 66000, Note_on_c, 2, 52, 95
3, 66240, Note_off_c, 2, 52, 95
3, 66240, Note_on_c, 2, 59, 95
3, 66240, Note_on_c, 2, 52, 95
3, 66720, Note_off_c, 2, 59, 95
3, 66720, Note_off_c, 2, 52, 95
3, 66720, Note_on_c, 2, 52, 95
3, 66960, Note_off_c, 2, 52, 95
3, 66960, Note_on_c, 2, 52, 95
3, 67200, Note_off_c, 2, 52, 95
3, 67200, Note_on_c, 2, 57, 95
3, 67200, Note_on_c, 2, 52, 95
3, 67680, Note_off_c, 2, 57, 95
3, 67680, Note_off_c, 2, 52, 95
3, 67680, Note_on_c, 2, 59, 95
3, 67680, Note_on_c, 2, 52, 95
3, 68160, Note_off_c, 2, 59, 95
3, 68160, Note_off_c, 2, 52, 95
3, 68160, Note_on_c, 2, 52, 95
3, 68400, Note_off_c, 2, 52, 95
3, 68400, Note_on_c, 2, 52, 95
3, 68640, Note_off_c, 2, 52, 95
3, 68640, Note_on_c, 2, 52, 95
3, 68880, Note_off_c, 2, 52, 95
3, 68880, Note_on_c, 2, 52, 95
3, 69120, Note_off_c, 2, 52, 95
3, 69120, Note_on_c, 2, 59, 95
3, 69120, Note_on_c, 2, 52, 95
3, 69600, Note_off_c, 2, 59, 95
3, 69600, Note_off_c, 2, 52, 95
3, 69600, Note_on_c, 2, 52, 95
3, 69840, Note_off_c, 2, 52, 95
3, 69840, Note_on_c, 2, 52, 95
3, 70080, Note_off_c, 2, 52, 95
3, 70080, Note_on_c, 2, 59, 95
3, 70080, Note_on_c, 2, 52, 95
3, 70560, Note_off_c, 2, 59, 95
3, 70560, Note_off_c, 2, 52, 95
3, 70560, Note_on_c, 2, 52, 95
3, 71040, Note_off_c, 2, 52, 95
3, 71040, Note_on_c, 2, 57, 95
3, 71040, Note_on_c, 2, 52, 95
3, 71520, Note_off_c, 2, 57, 95
3, 71520, Note_off_c, 2, 52, 95
3, 71520, Note_on_c, 2, 59, 95
3, 71520, Note_on_c, 2, 52, 95
3, 72000, Note_off_c, 2, 59, 95
3, 72000, Note_off_c, 2, 52, 95
3, 72480, Note_on_c, 2, 60, 95
3, 72480, Note_on_c, 2, 55, 95
3, 72480, Note_on_c, 2, 48, 95
3, 73440, Note_off_c, 2, 60, 95
3, 73440, Note_off_c, 2, 55, 95
3, 73440, Note_off_c, 2, 48, 95
3, 73440, Note_on_c, 2, 48, 95
3, 73680, Note_off_c, 2, 48, 95
3, 73680, Note_on_c, 2, 48, 95
3, 73920, Note_off_c, 2, 48, 95
3, 73920, Note_on_c, 2, 60, 95
3, 73920, Note_on_c, 2, 55, 95
3, 73920, Note_on_c, 2, 48, 95
3, 74400, Note_off_c, 2, 60, 95
3, 74400, Note_off_c, 2, 55, 95
3, 74400, Note_off_c, 2, 48, 95
3, 74400, Note_on_c, 2, 48, 95
3, 74640, Note_off_c, 2, 48, 95
3, 74640, Note_on_c, 2, 48, 95
3, 74880, Note_off_c, 2, 48, 95
3, 74880, Note_on_c, 2, 59, 95
3, 74880, Note_on_c, 2, 55, 95
3, 74880, Note_on_c, 2, 48, 95
3, 75360, Note_off_c, 2, 59, 95
3, 75360, Note_off_c, 2, 55, 95
3, 75360, Note_off_c, 2, 48, 95
3, 75360, Note_on_c, 2, 60, 95
3, 75360, Note_on_c, 2, 55, 95
3, 75360, Note_on_c, 2, 48, 95
3, 75840, Note_off_c, 2, 60, 95
3, 75840, Note_off_c, 2, 55, 95
3, 75840, Note_off_c, 2, 48, 95
3, 75840, Note_on_c, 2, 48, 95
3, 76080, Note_off_c, 2, 48, 95
3, 76080, Note_on_c, 2, 48, 95
3, 76320, Note_off_c, 2, 48, 95
3, 76320, Note_on_c, 2, 48, 95
3, 76560, Note_off_c, 2, 48, 95
3, 76560, Note_on_c, 2, 48, 95
3, 76800, Note_off_c, 2, 48, 95
3, 76800, Note_on_c, 2, 62, 95
3, 76800, Note_on_c, 2, 55, 95
3, 76800, Note_on_c, 2, 48, 95
3, 77280, Note_off_c, 2, 62, 95
3, 77280, Note_off_c, 2, 55, 95
3, 77280, Note_off_c, 2, 48, 95
3, 77280, Note_on_c, 2, 48, 95
3, 77520, Note_off_c, 2, 48, 95
3, 77520, Note_on_c, 2, 48, 95
3, 77760, Note_off_c, 2, 48, 95
3, 77760, Note_on_c, 2, 60, 95
3, 77760, Note_on_c, 2, 55, 95
3, 77760, Note_on_c, 2, 48, 95
3, 78240, Note_off_c, 2, 60, 95
3, 78240, Note_off_c, 2, 55, 95
3, 78240, Note_off_c, 2, 48, 95
3, 78240, Note_on_c, 2, 48, 95
3, 78480, Note_off_c, 2, 48, 95
3, 78480, Note_on_c, 2, 48, 95
3, 78720, Note_off_c, 2, 48, 95
3, 78720, Note_on_c, 2, 59, 95
3, 78720, Note_on_c, 2, 55, 95
3, 78720, Note_on_c, 2, 48, 95
3, 79200, Note_off_c, 2, 59, 95
3, 79200, Note_off_c, 2, 55, 95
3, 79200, Note_off_c, 2, 48, 95
3, 79200, Note_on_c, 2, 48, 95
3, 79440, Note_off_c, 2, 48, 95
3, 79440, Note_on_c, 2, 48, 95
3, 79680, Note_off_c, 2, 48, 95
3, 79680, Note_on_c, 2, 60, 95
3, 79680, Note_on_c, 2, 55, 95
3, 79680, Note_on_c, 2, 48, 95
3, 80160, Note_off_c, 2, 60, 95
3, 80160, Note_off_c, 2, 55, 95
3, 80160, Note_off_c, 2, 48, 95
3, 80160, Note_on_c, 2, 57, 95
3, 80160, Note_on_c, 2, 50, 95
3, 81120, Note_off_c, 2, 57, 95
3, 81120, Note_off_c, 2, 50, 95
3, 81120, Note_on_c, 2, 50, 95
3, 81360, Note_off_c, 2, 50, 95
3, 81360, Note_on_c, 2, 50, 95
3, 81600, Note_off_c, 2, 50, 95
3, 81600, Note_on_c, 2, 57, 95
3, 81600, Note_on_c, 2, 50, 95
3, 82080, Note_off_c, 2, 57, 95
3, 82080, Note_off_c, 2, 50, 95
3, 82080, Note_on_c, 2, 50, 95
3, 82320, Note_off_c, 2, 50, 95
3, 82320, Note_on_c, 2, 50, 95
3, 82560, Note_off_c, 2, 50, 95
3, 82560, Note_on_c, 2, 55, 95
3, 82560, Note_on_c, 2, 50, 95
3, 83040, Note_off_c, 2, 55, 95
3, 83040, Note_off_c, 2, 50, 95
3, 83040, Note_on_c, 2, 57, 95
3, 83040, Note_on_c, 2, 50, 95
3, 83520, Note_off_c, 2, 57, 95
3, 83520, Note_off_c, 2, 50, 95
3, 83520, Note_on_c, 2, 50, 95
3, 83760, Note_off_c, 2, 50, 95
3, 83760, Note_on_c, 2, 50, 95
3, 84000, Note_off_c, 2, 50, 95
3, 84000, Note_on_c, 2, 50, 95
3, 84240, Note_off_c, 2, 50, 95
3, 84240, Note_on_c, 2, 50, 95
3, 84480, Note_off_c, 2, 50, 95
3, 84480, Note_on_c, 2, 57, 95
3, 84480, Note_on_c, 2, 50, 95
3, 84960, Note_off_c, 2, 57, 95
3, 84960, Note_off_c, 2, 50, 95
3, 84960, Note_on_c, 2, 50, 95
3, 85200, Note_off_c, 2, 50, 95
3, 85200, Note_on_c, 2, 50, 95
3, 85440, Note_off_c, 2, 50, 95
3, 85440, Note_on_c, 2, 57, 95
3, 85440, Note_on_c, 2, 50, 95
3, 85920, Note_off_c, 2, 57, 95
3, 85920, Note_off_c, 2, 50, 95
3, 85920, Note_on_c, 2, 50, 95
3, 86400, Note_off_c, 2, 50, 95
3, 86400, Note_on_c, 2, 55, 95
3, 86400, Note_on_c, 2, 50, 95
3, 86880, Note_off_c, 2, 55, 95
3, 86880, Note_off_c, 2, 50, 95
3, 86880, Note_on_c, 2, 50, 95
3, 87120, Note_off_c, 2, 50, 95
3, 87120, Note_on_c, 2, 50, 95
3, 87360, Note_off_c, 2, 50, 95
3, 87360, Note_on_c, 2, 57, 95
3, 87360, Note_on_c, 2, 50, 95
3, 87840, Note_off_c, 2, 57, 95
3, 87840, Note_off_c, 2, 50, 95
3, 87840, Note_on_c, 2, 59, 95
3, 87840, Note_on_c, 2, 52, 95
3, 88800, Note_off_c, 2, 59, 95
3, 88800, Note_off_c, 2, 52, 95
3, 88800, Note_on_c, 2, 52, 95
3, 89040, Note_off_c, 2, 52, 95
3, 89040, Note_on_c, 2, 52, 95
3, 89280, Note_off_c, 2, 52, 95
3, 89280, Note_on_c, 2, 59, 95
3, 89280, Note_on_c, 2, 52, 95
3, 89760, Note_off_c, 2, 59, 95
3, 89760, Note_off_c, 2, 52, 95
3, 89760, Note_on_c, 2, 52, 95
3, 90000, Note_off_c, 2, 52, 95
3, 90000, Note_on_c, 2, 52, 95
3, 90240, Note_off_c, 2, 52, 95
3, 90240, Note_on_c, 2, 57, 95
3, 90240, Note_on_c, 2, 52, 95
3, 90720, Note_off_c, 2, 57, 95
3, 90720, Note_off_c, 2, 52, 95
3, 90720, Note_on_c, 2, 59, 95
3, 90720, Note_on_c, 2, 52, 95
3, 91200, Note_off_c, 2, 59, 95
3, 91200, Note_off_c, 2, 52, 95
3, 91200, Note_on_c, 2, 52, 95
3, 91440, Note_off_c, 2, 52, 95
3, 91440, Note_on_c, 2, 52, 95
3, 91680, Note_off_c, 2, 52, 95
3, 91680, Note_on_c, 2, 52, 95
3, 91920, Note_off_c, 2, 52, 95
3, 91920, Note_on_c, 2, 52, 95
3, 92160, Note_off_c, 2, 52, 95
3, 92160, Note_on_c, 2, 59, 95
3, 92160, Note_on_c, 2, 52, 95
3, 92640, Note_off_c, 2, 59, 95
3, 92640, Note_off_c, 2, 52, 95
3, 92640, Note_on_c, 2, 52, 95
3, 92880, Note_off_c, 2, 52, 95
3, 92880, Note_on_c, 2, 52, 95
3, 93120, Note_off_c, 2, 52, 95
3, 93120, Note_on_c, 2, 59, 95
3, 93120, Note_on_c, 2, 52, 95
3, 93600, Note_off_c, 2, 59, 95
3, 93600, Note_off_c, 2, 52, 95
3, 93600, Note_on_c, 2, 52, 95
3, 94080, Note_off_c, 2, 52, 95
3, 94080, Note_on_c, 2, 57, 95
3, 94080, Note_on_c, 2, 52, 95
3, 94560, Note_off_c, 2, 57, 95
3, 94560, Note_off_c, 2, 52, 95
3, 94560, Note_on_c, 2, 59, 95
3, 94560, Note_on_c, 2, 52, 95
3, 95040, Note_off_c, 2, 59, 95
3, 95040, Note_off_c, 2, 52, 95
3, 95520, Note_on_c, 2, 59, 95
3, 95520, Note_on_c, 2, 52, 95
3, 96480, Note_off_c, 2, 59, 95
3, 96480, Note_off_c, 2, 52, 95
3, 96480, Note_on_c, 2, 52, 95
3, 96960, Note_off_c, 2, 52, 95
3, 96960, Note_on_c, 2, 59, 95
3, 96960, Note_on_c, 2, 52, 95
3, 97440, Note_off_c, 2, 59, 95
3, 97440, Note_off_c, 2, 52, 95
3, 97440, Note_on_c, 2, 52, 95
3, 97920, Note_off_c, 2, 52, 95
3, 97920, Note_on_c, 2, 52, 95
3, 98400, Note_off_c, 2, 52, 95
3, 98400, Note_on_c, 2, 52, 95
3, 98880, Note_off_c, 2, 52, 95
3, 98880, Note_on_c, 2, 59, 95
3, 98880, Note_on_c, 2, 52, 95
3, 99360, Note_off_c, 2, 59, 95
3, 99360, Note_off_c, 2, 52, 95
3, 99360, Note_on_c, 2, 52, 95
3, 99840, Note_off_c, 2, 52, 95
3, 99840, Note_on_c, 2, 52, 95
3, 100320, Note_off_c, 2, 52, 95
3, 100320, Note_on_c, 2, 52, 95
3, 100800, Note_off_c, 2, 52, 95
3, 100800, Note_on_c, 2, 59, 95
3, 100800, Note_on_c, 2, 52, 95
3, 101280, Note_off_c, 2, 59, 95
3, 101280, Note_off_c, 2, 52, 95
3, 101280, Note_on_c, 2, 52, 95
3, 101760, Note_off_c, 2, 52, 95
3, 101760, Note_on_c, 2, 52, 95
3, 102240, Note_off_c, 2, 52, 95
3, 102240, Note_on_c, 2, 52, 95
3, 102720, Note_off_c, 2, 52, 95
3, 102720, Note_on_c, 2, 59, 95
3, 102720, Note_on_c, 2, 52, 95
3, 103200, Note_off_c, 2, 59, 95
3, 103200, Note_off_c, 2, 52, 95
3, 103200, Note_on_c, 2, 55, 95
3, 103200, Note_on_c, 2, 48, 95
3, 104160, Note_off_c, 2, 55, 95
3, 104160, Note_off_c, 2, 48, 95
3, 104160, Note_on_c, 2, 48, 95
3, 104640, Note_off_c, 2, 48, 95
3, 104640, Note_on_c, 2, 55, 95
3, 104640, Note_on_c, 2, 48, 95
3, 105120, Note_off_c, 2, 55, 95
3, 105120, Note_off_c, 2, 48, 95
3, 105120, Note_on_c, 2, 48, 95
3, 105600, Note_off_c, 2, 48, 95
3, 105600, Note_on_c, 2, 48, 95
3, 106080, Note_off_c, 2, 48, 95
3, 106080, Note_on_c, 2, 48, 95
3, 106560, Note_off_c, 2, 48, 95
3, 106560, Note_on_c, 2, 55, 95
3, 106560, Note_on_c, 2, 48, 95
3, 107040, Note_off_c, 2, 55, 95
3, 107040, Note_off_c, 2, 48, 95
3, 107040, Note_on_c, 2, 48, 95
3, 107520, Note_off_c, 2, 48, 95
3, 107520, Note_on_c, 2, 48, 95
3, 108000, Note_off_c, 2, 48, 95
3, 108000, Note_on_c, 2, 48, 95
3, 108480, Note_off_c, 2, 48, 95
3, 108480, Note_on_c, 2, 55, 95
3, 108480, Note_on_c, 2, 48, 95
3, 108960, Note_off_c, 2, 55, 95
3, 108960, Note_off_c, 2, 48, 95
3, 108960, Note_on_c, 2, 48, 95
3, 109440, Note_off_c, 2, 48, 95
3, 109440, Note_on_c, 2, 48, 95
3, 109920, Note_off_c, 2, 48, 95
3, 109920, Note_on_c, 2, 48, 95
3, 110400, Note_off_c, 2, 48, 95
3, 110400, Note_on_c, 2, 55, 95
3, 110400, Note_on_c, 2, 48, 95
3, 110880, Note_off_c, 2, 55, 95
3, 110880, Note_off_c, 2, 48, 95
3, 110880, Note_on_c, 2, 59, 95
3, 110880, Note_on_c, 2, 52, 95
3, 111840, Note_off_c, 2, 59, 95
3, 111840, Note_off_c, 2, 52, 95
3, 111840, Note_on_c, 2, 52, 95
3, 112320, Note_off_c, 2, 52, 95
3, 112320, Note_on_c, 2, 59, 95
3, 112320, Note_on_c, 2, 52, 95
3, 112800, Note_off_c, 2, 59, 95
3, 112800, Note_off_c, 2, 52, 95
3, 112800, Note_on_c, 2, 52, 95
3, 113280, Note_off_c, 2, 52, 95
3, 113280, Note_on_c, 2, 52, 95
3, 113760, Note_off_c, 2, 52, 95
3, 113760, Note_on_c, 2, 52, 95
3, 114240, Note_off_c, 2, 52, 95
3, 114240, Note_on_c, 2, 59, 95
3, 114240, Note_on_c, 2, 52, 95
3, 114720, Note_off_c, 2, 59, 95
3, 114720, Note_off_c, 2, 52, 95
3, 114720, Note_on_c, 2, 52, 95
3, 115200, Note_off_c, 2, 52, 95
3, 115200, Note_on_c, 2, 52, 95
3, 115680, Note_off_c, 2, 52, 95
3, 115680, Note_on_c, 2, 52, 95
3, 116160, Note_off_c, 2, 52, 95
3, 116160, Note_on_c, 2, 59, 95
3, 116160, Note_on_c, 2, 52, 95
3, 116640, Note_off_c, 2, 59, 95
3, 116640, Note_off_c, 2, 52, 95
3, 116640, Note_on_c, 2, 52, 95
3, 117120, Note_off_c, 2, 52, 95
3, 117120, Note_on_c, 2, 52, 95
3, 117600, Note_off_c, 2, 52, 95
3, 117600, Note_on_c, 2, 52, 95
3, 118080, Note_off_c, 2, 52, 95
3, 118080, Note_on_c, 2, 59, 95
3, 118080, Note_on_c, 2, 52, 95
3, 118560, Note_off_c, 2, 59, 95
3, 118560, Note_off_c, 2, 52, 95
3, 118560, Note_on_c, 2, 55, 95
3, 118560, Note_on_c, 2, 48, 95
3, 119520, Note_off_c, 2, 55, 95
3, 119520, Note_off_c, 2, 48, 95
3, 119520, Note_on_c, 2, 48, 95
3, 120000, Note_off_c, 2, 48, 95
3, 120000, Note_on_c, 2, 55, 95
3, 120000, Note_on_c, 2, 48, 95
3, 120480, Note_off_c, 2, 55, 95
3, 120480, Note_off_c, 2, 48, 95
3, 120480, Note_on_c, 2, 48, 95
3, 120960, Note_off_c, 2, 48, 95
3, 120960, Note_on_c, 2, 48, 95
3, 121440, Note_off_c, 2, 48, 95
3, 121440, Note_on_c, 2, 48, 95
3, 121920, Note_off_c, 2, 48, 95
3, 121920, Note_on_c, 2, 55, 95
3, 121920, Note_on_c, 2, 48, 95
3, 122400, Note_off_c, 2, 55, 95
3, 122400, Note_off_c, 2, 48, 95
3, 122400, Note_on_c, 2, 48, 95
3, 122880, Note_off_c, 2, 48, 95
3, 122880, Note_on_c, 2, 48, 95
3, 123360, Note_off_c, 2, 48, 95
3, 123360, Note_on_c, 2, 48, 95
3, 123840, Note_off_c, 2, 48, 95
3, 123840, Note_on_c, 2, 55, 95
3, 123840, Note_on_c, 2, 48, 95
3, 124320, Note_off_c, 2, 55, 95
3, 124320, Note_off_c, 2, 48, 95
3, 124320, Note_on_c, 2, 48, 95
3, 124800, Note_off_c, 2, 48, 95
3, 124800, Note_on_c, 2, 48, 95
3, 125280, Note_off_c, 2, 48, 95
3, 125280, Note_on_c, 2, 48, 95
3, 125760, Note_off_c, 2, 48, 95
3, 125760, Note_on_c, 2, 55, 95
3, 125760, Note_on_c, 2, 48, 95
3, 126240, Note_off_c, 2, 55, 95
3, 126240, Note_off_c, 2, 48, 95
3, 126240, Note_on_c, 2, 59, 95
3, 126240, Note_on_c, 2, 52, 95
3, 127200, Note_off_c, 2, 59, 95
3, 127200, Note_off_c, 2, 52, 95
3, 127200, Note_on_c, 2, 52, 95
3, 127440, Note_off_c, 2, 52, 95
3, 127440, Note_on_c, 2, 52, 95
3, 127680, Note_off_c, 2, 52, 95
3, 127680, Note_on_c, 2, 59, 95
3, 127680, Note_on_c, 2, 52, 95
3, 128160, Note_off_c, 2, 59, 95
3, 128160, Note_off_c, 2, 52, 95
3, 128160, Note_on_c, 2, 52, 95
3, 128400, Note_off_c, 2, 52, 95
3, 128400, Note_on_c, 2, 52, 95
3, 128640, Note_off_c, 2, 52, 95
3, 128640, Note_on_c, 2, 57, 95
3, 128640, Note_on_c, 2, 52, 95
3, 129120, Note_off_c, 2, 57, 95
3, 129120, Note_off_c, 2, 52, 95
3, 129120, Note_on_c, 2, 59, 95
3, 129120, Note_on_c, 2, 52, 95
3, 129600, Note_off_c, 2, 59, 95
3, 129600, Note_off_c, 2, 52, 95
3, 129600, Note_on_c, 2, 52, 95
3, 129840, Note_off_c, 2, 52, 95
3, 129840, Note_on_c, 2, 52, 95
3, 130080, Note_off_c, 2, 52, 95
3, 130080, Note_on_c, 2, 52, 95
3, 130320, Note_off_c, 2, 52, 95
3, 130320, Note_on_c, 2, 52, 95
3, 130560, Note_off_c, 2, 52, 95
3, 130560, Note_on_c, 2, 59, 95
3, 130560, Note_on_c, 2, 52, 95
3, 131040, Note_off_c, 2, 59, 95
3, 131040, Note_off_c, 2, 52, 95
3, 131040, Note_on_c, 2, 52, 95
3, 131280, Note_off_c, 2, 52, 95
3, 131280, Note_on_c, 2, 52, 95
3, 131520, Note_off_c, 2, 52, 95
3, 131520, Note_on_c, 2, 59, 95
3, 131520, Note_on_c, 2, 52, 95
3, 132000, Note_off_c, 2, 59, 95
3, 132000, Note_off_c, 2, 52, 95
3, 132000, Note_on_c, 2, 52, 95
3, 132240, Note_off_c, 2, 52, 95
3, 132240, Note_on_c, 2, 52, 95
3, 132480, Note_off_c, 2, 52, 95
3, 132480, Note_on_c, 2, 57, 95
3, 132480, Note_on_c, 2, 52, 95
3, 132960, Note_off_c, 2, 57, 95
3, 132960, Note_off_c, 2, 52, 95
3, 132960, Note_on_c, 2, 52, 95
3, 133200, Note_off_c, 2, 52, 95
3, 133200, Note_on_c, 2, 52, 95
3, 133440, Note_off_c, 2, 52, 95
3, 133440, Note_on_c, 2, 59, 95
3, 133440, Note_on_c, 2, 52, 95
3, 133920, Note_off_c, 2, 59, 95
3, 133920, Note_off_c, 2, 52, 95
3, 133920, Note_on_c, 2, 60, 95
3, 133920, Note_on_c, 2, 55, 95
3, 133920, Note_on_c, 2, 48, 95
3, 134880, Note_off_c, 2, 60, 95
3, 134880, Note_off_c, 2, 55, 95
3, 134880, Note_off_c, 2, 48, 95
3, 134880, Note_on_c, 2, 48, 95
3, 135120, Note_off_c, 2, 48, 95
3, 135120, Note_on_c, 2, 48, 95
3, 135360, Note_off_c, 2, 48, 95
3, 135360, Note_on_c, 2, 60, 95
3, 135360, Note_on_c, 2, 55, 95
3, 135360, Note_on_c, 2, 48, 95
3, 135840, Note_off_c, 2, 60, 95
3, 135840, Note_off_c, 2, 55, 95
3, 135840, Note_off_c, 2, 48, 95
3, 135840, Note_on_c, 2, 48, 95
3, 136080, Note_off_c, 2, 48, 95
3, 136080, Note_on_c, 2, 48, 95
3, 136320, Note_off_c, 2, 48, 95
3, 136320, Note_on_c, 2, 59, 95
3, 136320, Note_on_c, 2, 55, 95
3, 136320, Note_on_c, 2, 48, 95
3, 136800, Note_off_c, 2, 59, 95
3, 136800, Note_off_c, 2, 55, 95
3, 136800, Note_off_c, 2, 48, 95
3, 136800, Note_on_c, 2, 60, 95
3, 136800, Note_on_c, 2, 55, 95
3, 136800, Note_on_c, 2, 48, 95
3, 137280, Note_off_c, 2, 60, 95
3, 137280, Note_off_c, 2, 55, 95
3, 137280, Note_off_c, 2, 48, 95
3, 137280, Note_on_c, 2, 48, 95
3, 137520, Note_off_c, 2, 48, 95
3, 137520, Note_on_c, 2, 48, 95
3, 137760, Note_off_c, 2, 48, 95
3, 137760, Note_on_c, 2, 48, 95
3, 138000, Note_off_c, 2, 48, 95
3, 138000, Note_on_c, 2, 48, 95
3, 138240, Note_off_c, 2, 48, 95
3, 138240, Note_on_c, 2, 62, 95
3, 138240, Note_on_c, 2, 55, 95
3, 138240, Note_on_c, 2, 48, 95
3, 138720, Note_off_c, 2, 62, 95
3, 138720, Note_off_c, 2, 55, 95
3, 138720, Note_off_c, 2, 48, 95
3, 138720, Note_on_c, 2, 48, 95
3, 138960, Note_off_c, 2, 48, 95
3, 138960, Note_on_c, 2, 48, 95
3, 139200, Note_off_c, 2, 48, 95
3, 139200, Note_on_c, 2, 60, 95
3, 139200, Note_on_c, 2, 55, 95
3, 139200, Note_on_c, 2, 48, 95
3, 139680, Note_off_c, 2, 60, 95
3, 139680, Note_off_c, 2, 55, 95
3, 139680, Note_off_c, 2, 48, 95
3, 139680, Note_on_c, 2, 48, 95
3, 139920, Note_off_c, 2, 48, 95
3, 139920, Note_on_c, 2, 48, 95
3, 140160, Note_off_c, 2, 48, 95
3, 140160, Note_on_c, 2, 59, 95
3, 140160, Note_on_c, 2, 55, 95
3, 140160, Note_on_c, 2, 48, 95
3, 140640, Note_off_c, 2, 59, 95
3, 140640, Note_off_c, 2, 55, 95
3, 140640, Note_off_c, 2, 48, 95
3, 140640, Note_on_c, 2, 60, 95
3, 140640, Note_on_c, 2, 55, 95
3, 140640, Note_on_c, 2, 48, 95
3, 141120, Note_off_c, 2, 60, 95
3, 141120, Note_off_c, 2, 55, 95
3, 141120, Note_off_c, 2, 48, 95
3, 141600, Note_on_c, 2, 59, 95
3, 141600, Note_on_c, 2, 52, 95
3, 142560, Note_off_c, 2, 59, 95
3, 142560, Note_off_c, 2, 52, 95
3, 142560, Note_on_c, 2, 52, 95
3, 142800, Note_off_c, 2, 52, 95
3, 142800, Note_on_c, 2, 52, 95
3, 143040, Note_off_c, 2, 52, 95
3, 143040, Note_on_c, 2, 59, 95
3, 143040, Note_on_c, 2, 52, 95
3, 143520, Note_off_c, 2, 59, 95
3, 143520, Note_off_c, 2, 52, 95
3, 143520, Note_on_c, 2, 52, 95
3, 143760, Note_off_c, 2, 52, 95
3, 143760, Note_on_c, 2, 52, 95
3, 144000, Note_off_c, 2, 52, 95
3, 144000, Note_on_c, 2, 57, 95
3, 144000, Note_on_c, 2, 52, 95
3, 144480, Note_off_c, 2, 57, 95
3, 144480, Note_off_c, 2, 52, 95
3, 144480, Note_on_c, 2, 59, 95
3, 144480, Note_on_c, 2, 52, 95
3, 144960, Note_off_c, 2, 59, 95
3, 144960, Note_off_c, 2, 52, 95
3, 144960, Note_on_c, 2, 52, 95
3, 145200, Note_off_c, 2, 52, 95
3, 145200, Note_on_c, 2, 52, 95
3, 145440, Note_off_c, 2, 52, 95
3, 145440, Note_on_c, 2, 52, 95
3, 145680, Note_off_c, 2, 52, 95
3, 145680, Note_on_c, 2, 52, 95
3, 145920, Note_off_c, 2, 52, 95
3, 145920, Note_on_c, 2, 59, 95
3, 145920, Note_on_c, 2, 52, 95
3, 146400, Note_off_c, 2, 59, 95
3, 146400, Note_off_c, 2, 52, 95
3, 146400, Note_on_c, 2, 52, 95
3, 146640, Note_off_c, 2, 52, 95
3, 146640, Note_on_c, 2, 52, 95
3, 146880, Note_off_c, 2, 52, 95
3, 146880, Note_on_c, 2, 59, 95
3, 146880, Note_on_c, 2, 52, 95
3, 147360, Note_off_c, 2, 59, 95
3, 147360, Note_off_c, 2, 52, 95
3, 147360, Note_on_c, 2, 52, 95
3, 147840, Note_off_c, 2, 52, 95
3, 147840, Note_on_c, 2, 57, 95
3, 147840, Note_on_c, 2, 52, 95
3, 148320, Note_off_c, 2, 57, 95
3, 148320, Note_off_c, 2, 52, 95
3, 148320, Note_on_c, 2, 59, 95
3, 148320, Note_on_c, 2, 52, 95
3, 148800, Note_off_c, 2, 59, 95
3, 148800, Note_off_c, 2, 52, 95
3, 149280, Note_on_c, 2, 60, 95
3, 149280, Note_on_c, 2, 55, 95
3, 149280, Note_on_c, 2, 48, 95
3, 150240, Note_off_c, 2, 60, 95
3, 150240, Note_off_c, 2, 55, 95
3, 150240, Note_off_c, 2, 48, 95
3, 150240, Note_on_c, 2, 48, 95
3, 150480, Note_off_c, 2, 48, 95
3, 150480, Note_on_c, 2, 48, 95
3, 150720, Note_off_c, 2, 48, 95
3, 150720, Note_on_c, 2, 60, 95
3, 150720, Note_on_c, 2, 55, 95
3, 150720, Note_on_c, 2, 48, 95
3, 151200, Note_off_c, 2, 60, 95
3, 151200, Note_off_c, 2, 55, 95
3, 151200, Note_off_c, 2, 48, 95
3, 151200, Note_on_c, 2, 48, 95
3, 151440, Note_off_c, 2, 48, 95
3, 151440, Note_on_c, 2, 48, 95
3, 151680, Note_off_c, 2, 48, 95
3, 151680, Note_on_c, 2, 59, 95
3, 151680, Note_on_c, 2, 55, 95
3, 151680, Note_on_c, 2, 48, 95
3, 152160, Note_off_c, 2, 59, 95
3, 152160, Note_off_c, 2, 55, 95
3, 152160, Note_off_c, 2, 48, 95
3, 152160, Note_on_c, 2, 60, 95
3, 152160, Note_on_c, 2, 55, 95
3, 152160, Note_on_c, 2, 48, 95
3, 152640, Note_off_c, 2, 60, 95
3, 152640, Note_off_c, 2, 55, 95
3, 152640, Note_off_c, 2, 48, 95
3, 152640, Note_on_c, 2, 48, 95
3, 152880, Note_off_c, 2, 48, 95
3, 152880, Note_on_c, 2, 48, 95
3, 153120, Note_off_c, 2, 48, 95
3, 153120, Note_on_c, 2, 48, 95
3, 153360, Note_off_c, 2, 48, 95
3, 153360, Note_on_c, 2, 48, 95
3, 153600, Note_off_c, 2, 48, 95
3, 153600, Note_on_c, 2, 62, 95
3, 153600, Note_on_c, 2, 55, 95
3, 153600, Note_on_c, 2, 48, 95
3, 154080, Note_off_c, 2, 62, 95
3, 154080, Note_off_c, 2, 55, 95
3, 154080, Note_off_c, 2, 48, 95
3, 154080, Note_on_c, 2, 48, 95
3, 154320, Note_off_c, 2, 48, 95
3, 154320, Note_on_c, 2, 48, 95
3, 154560, Note_off_c, 2, 48, 95
3, 154560, Note_on_c, 2, 60, 95
3, 154560, Note_on_c, 2, 55, 95
3, 154560, Note_on_c, 2, 48, 95
3, 155040, Note_off_c, 2, 60, 95
3, 155040, Note_off_c, 2, 55, 95
3, 155040, Note_off_c, 2, 48, 95
3, 155040, Note_on_c, 2, 48, 95
3, 155280, Note_off_c, 2, 48, 95
3, 155280, Note_on_c, 2, 48, 95
3, 155520, Note_off_c, 2, 48, 95
3, 155520, Note_on_c, 2, 59, 95
3, 155520, Note_on_c, 2, 55, 95
3, 155520, Note_on_c, 2, 48, 95
3, 156000, Note_off_c, 2, 59, 95
3, 156000, Note_off_c, 2, 55, 95
3, 156000, Note_off_c, 2, 48, 95
3, 156000, Note_on_c, 2, 60, 95
3, 156000, Note_on_c, 2, 55, 95
3, 156000, Note_on_c, 2, 48, 95
3, 156480, Note_off_c, 2, 60, 95
3, 156480, Note_off_c, 2, 55, 95
3, 156480, Note_off_c, 2, 48, 95
3, 156960, Note_on_c, 2, 53, 95
3, 156960, Note_on_c, 2, 46, 95
3, 157920, Note_off_c, 2, 53, 95
3, 157920, Note_off_c, 2, 46, 95
3, 157920, Note_on_c, 2, 46, 95
3, 158160, Note_off_c, 2, 46, 95
3, 158160, Note_on_c, 2, 46, 95
3, 158400, Note_off_c, 2, 46, 95
3, 158400, Note_on_c, 2, 46, 95
3, 158640, Note_off_c, 2, 46, 95
3, 158640, Note_on_c, 2, 46, 95
3, 158880, Note_off_c, 2, 46, 95
3, 158880, Note_on_c, 2, 46, 95
3, 159120, Note_off_c, 2, 46, 95
3, 159120, Note_on_c, 2, 46, 95
3, 159360, Note_off_c, 2, 46, 95
3, 159360, Note_on_c, 2, 46, 95
3, 159600, Note_off_c, 2, 46, 95
3, 159600, Note_on_c, 2, 46, 95
3, 159840, Note_off_c, 2, 46, 95
3, 159840, Note_on_c, 2, 46, 95
3, 160080, Note_off_c, 2, 46, 95
3, 160080, Note_on_c, 2, 46, 95
3, 160320, Note_off_c, 2, 46, 95
3, 160320, Note_on_c, 2, 46, 95
3, 160560, Note_off_c, 2, 46, 95
3, 160560, Note_on_c, 2, 46, 95
3, 160800, Note_off_c, 2, 46, 95
3, 160800, Note_on_c, 2, 46, 95
3, 161040, Note_off_c, 2, 46, 95
3, 161040, Note_on_c, 2, 46, 95
3, 161280, Note_off_c, 2, 46, 95
3, 161280, Note_on_c, 2, 46, 95
3, 161520, Note_off_c, 2, 46, 95
3, 161520, Note_on_c, 2, 46, 95
3, 161760, Note_off_c, 2, 46, 95
3, 161760, Note_on_c, 2, 46, 95
3, 162000, Note_off_c, 2, 46, 95
3, 162000, Note_on_c, 2, 46, 95
3, 162240, Note_off_c, 2, 46, 95
3, 162240, Note_on_c, 2, 46, 95
3, 162480, Note_off_c, 2, 46, 95
3, 162480, Note_on_c, 2, 46, 95
3, 162720, Note_off_c, 2, 46, 95
3, 162720, Note_on_c, 2, 46, 95
3, 162960, Note_off_c, 2, 46, 95
3, 162960, Note_on_c, 2, 46, 95
3, 163200, Note_off_c, 2, 46, 95
3, 163200, Note_on_c, 2, 53, 95
3, 163200, Note_on_c, 2, 46, 95
3, 163680, Note_off_c, 2, 53, 95
3, 163680, Note_off_c, 2, 46, 95
3, 163680, Note_on_c, 2, 52, 95
3, 163680, Note_on_c, 2, 45, 95
3, 164160, Note_off_c, 2, 52, 95
3, 164160, Note_off_c, 2, 45, 95
3, 164160, Note_on_c, 2, 50, 95
3, 164160, Note_on_c, 2, 43, 95
3, 164640, Note_off_c, 2, 50, 95
3, 164640, Note_off_c, 2, 43, 95
3, 164640, Note_on_c, 2, 47, 95
3, 164640, Note_on_c, 2, 40, 95
3, 165600, Note_off_c, 2, 47, 95
3, 165600, Note_off_c, 2, 40, 95
3, 165600, Note_on_c, 2, 40, 95
3, 165840, Note_off_c, 2, 40, 95
3, 165840, Note_on_c, 2, 40, 95
3, 166080, Note_off_c, 2, 40, 95
3, 166080, Note_on_c, 2, 40, 95
3, 166320, Note_off_c, 2, 40, 95
3, 166320, Note_on_c, 2, 40, 95
3, 166560, Note_off_c, 2, 40, 95
3, 166560, Note_on_c, 2, 40, 95
3, 166800, Note_off_c, 2, 40, 95
3, 166800, Note_on_c, 2, 40, 95
3, 167040, Note_off_c, 2, 40, 95
3, 167040, Note_on_c, 2, 40, 95
3, 167280, Note_off_c, 2, 40, 95
3, 167280, Note_on_c, 2, 40, 95
3, 167520, Note_off_c, 2, 40, 95
3, 167520, Note_on_c, 2, 40, 95
3, 167760, Note_off_c, 2, 40, 95
3, 167760, Note_on_c, 2, 40, 95
3, 168000, Note_off_c, 2, 40, 95
3, 168000, Note_on_c, 2, 40, 95
3, 168240, Note_off_c, 2, 40, 95
3, 168240, Note_on_c, 2, 40, 95
3, 168480, Note_off_c, 2, 40, 95
3, 168480, Note_on_c, 2, 40, 95
3, 168720, Note_off_c, 2, 40, 95
3, 168720, Note_on_c, 2, 40, 95
3, 168960, Note_off_c, 2, 40, 95
3, 168960, Note_on_c, 2, 40, 95
3, 169200, Note_off_c, 2, 40, 95
3, 169200, Note_on_c, 2, 40, 95
3, 169440, Note_off_c, 2, 40, 95
3, 169440, Note_on_c, 2, 40, 95
3, 169680, Note_off_c, 2, 40, 95
3, 169680, Note_on_c, 2, 40, 95
3, 169920, Note_off_c, 2, 40, 95
3, 169920, Note_on_c, 2, 40, 95
3, 170160, Note_off_c, 2, 40, 95
3, 170160, Note_on_c, 2, 40, 95
3, 170400, Note_off_c, 2, 40, 95
3, 170400, Note_on_c, 2, 40, 95
3, 170640, Note_off_c, 2, 40, 95
3, 170640, Note_on_c, 2, 40, 95
3, 170880, Note_off_c, 2, 40, 95
3, 170880, Note_on_c, 2, 47, 95
3, 170880, Note_on_c, 2, 40, 95
3, 171360, Note_off_c, 2, 47, 95
3, 171360, Note_off_c, 2, 40, 95
3, 171360, Note_on_c, 2, 50, 95
3, 171360, Note_on_c, 2, 43, 95
3, 171840, Note_off_c, 2, 50, 95
3, 171840, Note_off_c, 2, 43, 95
3, 171840, Note_on_c, 2, 52, 95
3, 171840, Note_on_c, 2, 45, 95
3, 172320, Note_off_c, 2, 52, 95
3, 172320, Note_off_c, 2, 45, 95
3, 172320, Note_on_c, 2, 53, 95
3, 172320, Note_on_c, 2, 46, 95
3, 173280, Note_off_c, 2, 53, 95
3, 173280, Note_off_c, 2, 46, 95
3, 173280, Note_on_c, 2, 46, 95
3, 173520, Note_off_c, 2, 46, 95
3, 173520, Note_on_c, 2, 46, 95
3, 173760, Note_off_c, 2, 46, 95
3, 173760, Note_on_c, 2, 46, 95
3, 174000, Note_off_c, 2, 46, 95
3, 174000, Note_on_c, 2, 46, 95
3, 174240, Note_off_c, 2, 46, 95
3, 174240, Note_on_c, 2, 46, 95
3, 174480, Note_off_c, 2, 46, 95
3, 174480, Note_on_c, 2, 46, 95
3, 174720, Note_off_c, 2, 46, 95
3, 174720, Note_on_c, 2, 46, 95
3, 174960, Note_off_c, 2, 46, 95
3, 174960, Note_on_c, 2, 46, 95
3, 175200, Note_off_c, 2, 46, 95
3, 175200, Note_on_c, 2, 46, 95
3, 175440, Note_off_c, 2, 46, 95
3, 175440, Note_on_c, 2, 46, 95
3, 175680, Note_off_c, 2, 46, 95
3, 175680, Note_on_c, 2, 46, 95
3, 175920, Note_off_c, 2, 46, 95
3, 175920, Note_on_c, 2, 46, 95
3, 176160, Note_off_c, 2, 46, 95
3, 176160, Note_on_c, 2, 46, 95
3, 176400, Note_off_c, 2, 46, 95
3, 176400, Note_on_c, 2, 46, 95
3, 176640, Note_off_c, 2, 46, 95
3, 176640, Note_on_c, 2, 46, 95
3, 176880, Note_off_c, 2, 46, 95
3, 176880, Note_on_c, 2, 46, 95
3, 177120, Note_off_c, 2, 46, 95
3, 177120, Note_on_c, 2, 46, 95
3, 177360, Note_off_c, 2, 46, 95
3, 177360, Note_on_c, 2, 46, 95
3, 177600, Note_off_c, 2, 46, 95
3, 177600, Note_on_c, 2, 46, 95
3, 177840, Note_off_c, 2, 46, 95
3, 177840, Note_on_c, 2, 46, 95
3, 178080, Note_off_c, 2, 46, 95
3, 178080, Note_on_c, 2, 46, 95
3, 178320, Note_off_c, 2, 46, 95
3, 178320, Note_on_c, 2, 46, 95
3, 178560, Note_off_c, 2, 46, 95
3, 178560, Note_on_c, 2, 53, 95
3, 178560, Note_on_c, 2, 46, 95
3, 179040, Note_off_c, 2, 53, 95
3, 179040, Note_off_c, 2, 46, 95
3, 179040, Note_on_c, 2, 52, 95
3, 179040, Note_on_c, 2, 45, 95
3, 179520, Note_off_c, 2, 52, 95
3, 179520, Note_off_c, 2, 45, 95
3, 179520, Note_on_c, 2, 50, 95
3, 179520, Note_on_c, 2, 43, 95
3, 180000, Note_off_c, 2, 50, 95
3, 180000, Note_off_c, 2, 43, 95
3, 180000, Note_on_c, 2, 47, 95
3, 180000, Note_on_c, 2, 40, 95
3, 180960, Note_off_c, 2, 47, 95
3, 180960, Note_off_c, 2, 40, 95
3, 180960, Note_on_c, 2, 40, 95
3, 181200, Note_off_c, 2, 40, 95
3, 181200, Note_on_c, 2, 40, 95
3, 181440, Note_off_c, 2, 40, 95
3, 181440, Note_on_c, 2, 40, 95
3, 181680, Note_off_c, 2, 40, 95
3, 181680, Note_on_c, 2, 40, 95
3, 181920, Note_off_c, 2, 40, 95
3, 181920, Note_on_c, 2, 40, 95
3, 182160, Note_off_c, 2, 40, 95
3, 182160, Note_on_c, 2, 40, 95
3, 182400, Note_off_c, 2, 40, 95
3, 182400, Note_on_c, 2, 40, 95
3, 182640, Note_off_c, 2, 40, 95
3, 182640, Note_on_c, 2, 40, 95
3, 182880, Note_off_c, 2, 40, 95
3, 182880, Note_on_c, 2, 40, 95
3, 183120, Note_off_c, 2, 40, 95
3, 183120, Note_on_c, 2, 40, 95
3, 183360, Note_off_c, 2, 40, 95
3, 183360, Note_on_c, 2, 40, 95
3, 183600, Note_off_c, 2, 40, 95
3, 183600, Note_on_c, 2, 40, 95
3, 183840, Note_off_c, 2, 40, 95
3, 183840, Note_on_c, 2, 40, 95
3, 184080, Note_off_c, 2, 40, 95
3, 184080, Note_on_c, 2, 40, 95
3, 184320, Note_off_c, 2, 40, 95
3, 184320, Note_on_c, 2, 47, 95
3, 184320, Note_on_c, 2, 40, 95
3, 184800, Note_off_c, 2, 47, 95
3, 184800, Note_off_c, 2, 40, 95
3, 187680, Note_on_c, 2, 52, 95
3, 187680, Note_on_c, 2, 45, 95
3, 188640, Note_off_c, 2, 52, 95
3, 188640, Note_off_c, 2, 45, 95
3, 188640, Note_on_c, 2, 45, 95
3, 188880, Note_off_c, 2, 45, 95
3, 188880, Note_on_c, 2, 45, 95
3, 189120, Note_off_c, 2, 45, 95
3, 189120, Note_on_c, 2, 52, 95
3, 189120, Note_on_c, 2, 45, 95
3, 189600, Note_off_c, 2, 52, 95
3, 189600, Note_off_c, 2, 45, 95
3, 189600, Note_on_c, 2, 45, 95
3, 189840, Note_off_c, 2, 45, 95
3, 189840, Note_on_c, 2, 45, 95
3, 190080, Note_off_c, 2, 45, 95
3, 190080, Note_on_c, 2, 52, 95
3, 190080, Note_on_c, 2, 45, 95
3, 190560, Note_off_c, 2, 52, 95
3, 190560, Note_off_c, 2, 45, 95
3, 190560, Note_on_c, 2, 45, 95
3, 190800, Note_off_c, 2, 45, 95
3, 190800, Note_on_c, 2, 45, 95
3, 191040, Note_off_c, 2, 45, 95
3, 191040, Note_on_c, 2, 52, 95
3, 191040, Note_on_c, 2, 45, 95
3, 191520, Note_off_c, 2, 52, 95
3, 191520, Note_off_c, 2, 45, 95
3, 191520, Note_on_c, 2, 45, 95
3, 191760, Note_off_c, 2, 45, 95
3, 191760, Note_on_c, 2, 45, 95
3, 192000, Note_off_c, 2, 45, 95
3, 192000, Note_on_c, 2, 52, 95
3, 192000, Note_on_c, 2, 45, 95
3, 192480, Note_off_c, 2, 52, 95
3, 192480, Note_off_c, 2, 45, 95
3, 192480, Note_on_c, 2, 45, 95
3, 192720, Note_off_c, 2, 45, 95
3, 192720, Note_on_c, 2, 45, 95
3, 192960, Note_off_c, 2, 45, 95
3, 192960, Note_on_c, 2, 52, 95
3, 192960, Note_on_c, 2, 45, 95
3, 193440, Note_off_c, 2, 52, 95
3, 193440, Note_off_c, 2, 45, 95
3, 193440, Note_on_c, 2, 45, 95
3, 193680, Note_off_c, 2, 45, 95
3, 193680, Note_on_c, 2, 45, 95
3, 193920, Note_off_c, 2, 45, 95
3, 193920, Note_on_c, 2, 52, 95
3, 193920, Note_on_c, 2, 45, 95
3, 194400, Note_off_c, 2, 52, 95
3, 194400, Note_off_c, 2, 45, 95
3, 194400, Note_on_c, 2, 45, 95
3, 194640, Note_off_c, 2, 45, 95
3, 194640, Note_on_c, 2, 45, 95
3, 194880, Note_off_c, 2, 45, 95
3, 194880, Note_on_c, 2, 52, 95
3, 194880, Note_on_c, 2, 45, 95
3, 195360, Note_off_c, 2, 52, 95
3, 195360, Note_off_c, 2, 45, 95
3, 195360, Note_on_c, 2, 48, 95
3, 195360, Note_on_c, 2, 41, 95
3, 196320, Note_off_c, 2, 48, 95
3, 196320, Note_off_c, 2, 41, 95
3, 196320, Note_on_c, 2, 41, 95
3, 196560, Note_off_c, 2, 41, 95
3, 196560, Note_on_c, 2, 41, 95
3, 196800, Note_off_c, 2, 41, 95
3, 196800, Note_on_c, 2, 48, 95
3, 196800, Note_on_c, 2, 41, 95
3, 197280, Note_off_c, 2, 48, 95
3, 197280, Note_off_c, 2, 41, 95
3, 197280, Note_on_c, 2, 41, 95
3, 197520, Note_off_c, 2, 41, 95
3, 197520, Note_on_c, 2, 41, 95
3, 197760, Note_off_c, 2, 41, 95
3, 197760, Note_on_c, 2, 48, 95
3, 197760, Note_on_c, 2, 41, 95
3, 198240, Note_off_c, 2, 48, 95
3, 198240, Note_off_c, 2, 41, 95
3, 198240, Note_on_c, 2, 41, 95
3, 198480, Note_off_c, 2, 41, 95
3, 198480, Note_on_c, 2, 41, 95
3, 198720, Note_off_c, 2, 41, 95
3, 198720, Note_on_c, 2, 48, 95
3, 198720, Note_on_c, 2, 41, 95
3, 199200, Note_off_c, 2, 48, 95
3, 199200, Note_off_c, 2, 41, 95
3, 199200, Note_on_c, 2, 41, 95
3, 199440, Note_off_c, 2, 41, 95
3, 199440, Note_on_c, 2, 41, 95
3, 199680, Note_off_c, 2, 41, 95
3, 199680, Note_on_c, 2, 48, 95
3, 199680, Note_on_c, 2, 41, 95
3, 200160, Note_off_c, 2, 48, 95
3, 200160, Note_off_c, 2, 41, 95
3, 200160, Note_on_c, 2, 41, 95
3, 200400, Note_off_c, 2, 41, 95
3, 200400, Note_on_c, 2, 41, 95
3, 200640, Note_off_c, 2, 41, 95
3, 200640, Note_on_c, 2, 48, 95
3, 200640, Note_on_c, 2, 41, 95
3, 201120, Note_off_c, 2, 48, 95
3, 201120, Note_off_c, 2, 41, 95
3, 201120, Note_on_c, 2, 41, 95
3, 201360, Note_off_c, 2, 41, 95
3, 201360, Note_on_c, 2, 41, 95
3, 201600, Note_off_c, 2, 41, 95
3, 201600, Note_on_c, 2, 48, 95
3, 201600, Note_on_c, 2, 41, 95
3, 202080, Note_off_c, 2, 48, 95
3, 202080, Note_off_c, 2, 41, 95
3, 202080, Note_on_c, 2, 41, 95
3, 202320, Note_off_c, 2, 41, 95
3, 202320, Note_on_c, 2, 41, 95
3, 202560, Note_off_c, 2, 41, 95
3, 202560, Note_on_c, 2, 48, 95
3, 202560, Note_on_c, 2, 41, 95
3, 203040, Note_off_c, 2, 48, 95
3, 203040, Note_off_c, 2, 41, 95
3, 203040, Note_on_c, 2, 50, 95
3, 203040, Note_on_c, 2, 43, 95
3, 204000, Note_off_c, 2, 50, 95
3, 204000, Note_off_c, 2, 43, 95
3, 204000, Note_on_c, 2, 43, 95
3, 204240, Note_off_c, 2, 43, 95
3, 204240, Note_on_c, 2, 43, 95
3, 204480, Note_off_c, 2, 43, 95
3, 204480, Note_on_c, 2, 50, 95
3, 204480, Note_on_c, 2, 43, 95
3, 204960, Note_off_c, 2, 50, 95
3, 204960, Note_off_c, 2, 43, 95
3, 204960, Note_on_c, 2, 43, 95
3, 205200, Note_off_c, 2, 43, 95
3, 205200, Note_on_c, 2, 43, 95
3, 205440, Note_off_c, 2, 43, 95
3, 205440, Note_on_c, 2, 50, 95
3, 205440, Note_on_c, 2, 43, 95
3, 205920, Note_off_c, 2, 50, 95
3, 205920, Note_off_c, 2, 43, 95
3, 205920, Note_on_c, 2, 43, 95
3, 206160, Note_off_c, 2, 43, 95
3, 206160, Note_on_c, 2, 43, 95
3, 206400, Note_off_c, 2, 43, 95
3, 206400, Note_on_c, 2, 50, 95
3, 206400, Note_on_c, 2, 43, 95
3, 206880, Note_off_c, 2, 50, 95
3, 206880, Note_off_c, 2, 43, 95
3, 206880, Note_on_c, 2, 43, 95
3, 207120, Note_off_c, 2, 43, 95
3, 207120, Note_on_c, 2, 43, 95
3, 207360, Note_off_c, 2, 43, 95
3, 207360, Note_on_c, 2, 50, 95
3, 207360, Note_on_c, 2, 43, 95
3, 207840, Note_off_c, 2, 50, 95
3, 207840, Note_off_c, 2, 43, 95
3, 207840, Note_on_c, 2, 43, 95
3, 208080, Note_off_c, 2, 43, 95
3, 208080, Note_on_c, 2, 43, 95
3, 208320, Note_off_c, 2, 43, 95
3, 208320, Note_on_c, 2, 50, 95
3, 208320, Note_on_c, 2, 43, 95
3, 208800, Note_off_c, 2, 50, 95
3, 208800, Note_off_c, 2, 43, 95
3, 208800, Note_on_c, 2, 43, 95
3, 209040, Note_off_c, 2, 43, 95
3, 209040, Note_on_c, 2, 43, 95
3, 209280, Note_off_c, 2, 43, 95
3, 209280, Note_on_c, 2, 50, 95
3, 209280, Note_on_c, 2, 43, 95
3, 209760, Note_off_c, 2, 50, 95
3, 209760, Note_off_c, 2, 43, 95
3, 209760, Note_on_c, 2, 43, 95
3, 210000, Note_off_c, 2, 43, 95
3, 210000, Note_on_c, 2, 43, 95
3, 210240, Note_off_c, 2, 43, 95
3, 210240, Note_on_c, 2, 50, 95
3, 210240, Note_on_c, 2, 43, 95
3, 210720, Note_off_c, 2, 50, 95
3, 210720, Note_off_c, 2, 43, 95
3, 210720, Note_on_c, 2, 52, 95
3, 210720, Note_on_c, 2, 45, 95
3, 211680, Note_off_c, 2, 52, 95
3, 211680, Note_off_c, 2, 45, 95
3, 211680, Note_on_c, 2, 45, 95
3, 211920, Note_off_c, 2, 45, 95
3, 211920, Note_on_c, 2, 45, 95
3, 212160, Note_off_c, 2, 45, 95
3, 212160, Note_on_c, 2, 52, 95
3, 212160, Note_on_c, 2, 45, 95
3, 212640, Note_off_c, 2, 52, 95
3, 212640, Note_off_c, 2, 45, 95
3, 212640, Note_on_c, 2, 45, 95
3, 212880, Note_off_c, 2, 45, 95
3, 212880, Note_on_c, 2, 45, 95
3, 213120, Note_off_c, 2, 45, 95
3, 213120, Note_on_c, 2, 52, 95
3, 213120, Note_on_c, 2, 45, 95
3, 213600, Note_off_c, 2, 52, 95
3, 213600, Note_off_c, 2, 45, 95
3, 213600, Note_on_c, 2, 45, 95
3, 213840, Note_off_c, 2, 45, 95
3, 213840, Note_on_c, 2, 45, 95
3, 214080, Note_off_c, 2, 45, 95
3, 214080, Note_on_c, 2, 52, 95
3, 214080, Note_on_c, 2, 45, 95
3, 214560, Note_off_c, 2, 52, 95
3, 214560, Note_off_c, 2, 45, 95
3, 214560, Note_on_c, 2, 45, 95
3, 214800, Note_off_c, 2, 45, 95
3, 214800, Note_on_c, 2, 45, 95
3, 215040, Note_off_c, 2, 45, 95
3, 215040, Note_on_c, 2, 52, 95
3, 215040, Note_on_c, 2, 45, 95
3, 215520, Note_off_c, 2, 52, 95
3, 215520, Note_off_c, 2, 45, 95
3, 215520, Note_on_c, 2, 48, 95
3, 216000, Note_off_c, 2, 48, 95
3, 216000, Note_on_c, 2, 47, 95
3, 216480, Note_off_c, 2, 47, 95
3, 216480, Note_on_c, 2, 45, 95
3, 216960, Note_off_c, 2, 45, 95
3, 216960, Note_on_c, 2, 48, 95
3, 217440, Note_off_c, 2, 48, 95
3, 217440, Note_on_c, 2, 47, 95
3, 217920, Note_off_c, 2, 47, 95
3, 217920, Note_on_c, 2, 45, 95
3, 218400, Note_off_c, 2, 45, 95
3, 218400, Note_on_c, 2, 52, 95
3, 218400, Note_on_c, 2, 45, 95
3, 219360, Note_off_c, 2, 52, 95
3, 219360, Note_off_c, 2, 45, 95
3, 219360, Note_on_c, 2, 45, 95
3, 219600, Note_off_c, 2, 45, 95
3, 219600, Note_on_c, 2, 45, 95
3, 219840, Note_off_c, 2, 45, 95
3, 219840, Note_on_c, 2, 52, 95
3, 219840, Note_on_c, 2, 45, 95
3, 220320, Note_off_c, 2, 52, 95
3, 220320, Note_off_c, 2, 45, 95
3, 220320, Note_on_c, 2, 45, 95
3, 220560, Note_off_c, 2, 45, 95
3, 220560, Note_on_c, 2, 45, 95
3, 220800, Note_off_c, 2, 45, 95
3, 220800, Note_on_c, 2, 52, 95
3, 220800, Note_on_c, 2, 45, 95
3, 221280, Note_off_c, 2, 52, 95
3, 221280, Note_off_c, 2, 45, 95
3, 221280, Note_on_c, 2, 45, 95
3, 221520, Note_off_c, 2, 45, 95
3, 221520, Note_on_c, 2, 45, 95
3, 221760, Note_off_c, 2, 45, 95
3, 221760, Note_on_c, 2, 52, 95
3, 221760, Note_on_c, 2, 45, 95
3, 222240, Note_off_c, 2, 52, 95
3, 222240, Note_off_c, 2, 45, 95
3, 222240, Note_on_c, 2, 45, 95
3, 222480, Note_off_c, 2, 45, 95
3, 222480, Note_on_c, 2, 45, 95
3, 222720, Note_off_c, 2, 45, 95
3, 222720, Note_on_c, 2, 52, 95
3, 222720, Note_on_c, 2, 45, 95
3, 223200, Note_off_c, 2, 52, 95
3, 223200, Note_off_c, 2, 45, 95
3, 223200, Note_on_c, 2, 45, 95
3, 223440, Note_off_c, 2, 45, 95
3, 223440, Note_on_c, 2, 45, 95
3, 223680, Note_off_c, 2, 45, 95
3, 223680, Note_on_c, 2, 52, 95
3, 223680, Note_on_c, 2, 45, 95
3, 224160, Note_off_c, 2, 52, 95
3, 224160, Note_off_c, 2, 45, 95
3, 224160, Note_on_c, 2, 45, 95
3, 224400, Note_off_c, 2, 45, 95
3, 224400, Note_on_c, 2, 45, 95
3, 224640, Note_off_c, 2, 45, 95
3, 224640, Note_on_c, 2, 52, 95
3, 224640, Note_on_c, 2, 45, 95
3, 225120, Note_off_c, 2, 52, 95
3, 225120, Note_off_c, 2, 45, 95
3, 225120, Note_on_c, 2, 45, 95
3, 225360, Note_off_c, 2, 45, 95
3, 225360, Note_on_c, 2, 45, 95
3, 225600, Note_off_c, 2, 45, 95
3, 225600, Note_on_c, 2, 52, 95
3, 225600, Note_on_c, 2, 45, 95
3, 226080, Note_off_c, 2, 52, 95
3, 226080, Note_off_c, 2, 45, 95
3, 226080, Note_on_c, 2, 48, 95
3, 226080, Note_on_c, 2, 41, 95
3, 227040, Note_off_c, 2, 48, 95
3, 227040, Note_off_c, 2, 41, 95
3, 227040, Note_on_c, 2, 41, 95
3, 227280, Note_off_c, 2, 41, 95
3, 227280, Note_on_c, 2, 41, 95
3, 227520, Note_off_c, 2, 41, 95
3, 227520, Note_on_c, 2, 48, 95
3, 227520, Note_on_c, 2, 41, 95
3, 228000, Note_off_c, 2, 48, 95
3, 228000, Note_off_c, 2, 41, 95
3, 228000, Note_on_c, 2, 41, 95
3, 228240, Note_off_c, 2, 41, 95
3, 228240, Note_on_c, 2, 41, 95
3, 228480, Note_off_c, 2, 41, 95
3, 228480, Note_on_c, 2, 48, 95
3, 228480, Note_on_c, 2, 41, 95
3, 228960, Note_off_c, 2, 48, 95
3, 228960, Note_off_c, 2, 41, 95
3, 228960, Note_on_c, 2, 41, 95
3, 229200, Note_off_c, 2, 41, 95
3, 229200, Note_on_c, 2, 41, 95
3, 229440, Note_off_c, 2, 41, 95
3, 229440, Note_on_c, 2, 48, 95
3, 229440, Note_on_c, 2, 41, 95
3, 229920, Note_off_c, 2, 48, 95
3, 229920, Note_off_c, 2, 41, 95
3, 229920, Note_on_c, 2, 41, 95
3, 230160, Note_off_c, 2, 41, 95
3, 230160, Note_on_c, 2, 41, 95
3, 230400, Note_off_c, 2, 41, 95
3, 230400, Note_on_c, 2, 48, 95
3, 230400, Note_on_c, 2, 41, 95
3, 230880, Note_off_c, 2, 48, 95
3, 230880, Note_off_c, 2, 41, 95
3, 230880, Note_on_c, 2, 41, 95
3, 231120, Note_off_c, 2, 41, 95
3, 231120, Note_on_c, 2, 41, 95
3, 231360, Note_off_c, 2, 41, 95
3, 231360, Note_on_c, 2, 48, 95
3, 231360, Note_on_c, 2, 41, 95
3, 231840, Note_off_c, 2, 48, 95
3, 231840, Note_off_c, 2, 41, 95
3, 231840, Note_on_c, 2, 41, 95
3, 232080, Note_off_c, 2, 41, 95
3, 232080, Note_on_c, 2, 41, 95
3, 232320, Note_off_c, 2, 41, 95
3, 232320, Note_on_c, 2, 48, 95
3, 232320, Note_on_c, 2, 41, 95
3, 232800, Note_off_c, 2, 48, 95
3, 232800, Note_off_c, 2, 41, 95
3, 232800, Note_on_c, 2, 41, 95
3, 233040, Note_off_c, 2, 41, 95
3, 233040, Note_on_c, 2, 41, 95
3, 233280, Note_off_c, 2, 41, 95
3, 233280, Note_on_c, 2, 48, 95
3, 233280, Note_on_c, 2, 41, 95
3, 233760, Note_off_c, 2, 48, 95
3, 233760, Note_off_c, 2, 41, 95
3, 233760, Note_on_c, 2, 50, 95
3, 233760, Note_on_c, 2, 43, 95
3, 234720, Note_off_c, 2, 50, 95
3, 234720, Note_off_c, 2, 43, 95
3, 234720, Note_on_c, 2, 43, 95
3, 234960, Note_off_c, 2, 43, 95
3, 234960, Note_on_c, 2, 43, 95
3, 235200, Note_off_c, 2, 43, 95
3, 235200, Note_on_c, 2, 50, 95
3, 235200, Note_on_c, 2, 43, 95
3, 235680, Note_off_c, 2, 50, 95
3, 235680, Note_off_c, 2, 43, 95
3, 235680, Note_on_c, 2, 43, 95
3, 235920, Note_off_c, 2, 43, 95
3, 235920, Note_on_c, 2, 43, 95
3, 236160, Note_off_c, 2, 43, 95
3, 236160, Note_on_c, 2, 50, 95
3, 236160, Note_on_c, 2, 43, 95
3, 236640, Note_off_c, 2, 50, 95
3, 236640, Note_off_c, 2, 43, 95
3, 236640, Note_on_c, 2, 43, 95
3, 236880, Note_off_c, 2, 43, 95
3, 236880, Note_on_c, 2, 43, 95
3, 237120, Note_off_c, 2, 43, 95
3, 237120, Note_on_c, 2, 50, 95
3, 237120, Note_on_c, 2, 43, 95
3, 237600, Note_off_c, 2, 50, 95
3, 237600, Note_off_c, 2, 43, 95
3, 237600, Note_on_c, 2, 43, 95
3, 237840, Note_off_c, 2, 43, 95
3, 237840, Note_on_c, 2, 43, 95
3, 238080, Note_off_c, 2, 43, 95
3, 238080, Note_on_c, 2, 50, 95
3, 238080, Note_on_c, 2, 43, 95
3, 238560, Note_off_c, 2, 50, 95
3, 238560, Note_off_c, 2, 43, 95
3, 238560, Note_on_c, 2, 43, 95
3, 238800, Note_off_c, 2, 43, 95
3, 238800, Note_on_c, 2, 43, 95
3, 239040, Note_off_c, 2, 43, 95
3, 239040, Note_on_c, 2, 50, 95
3, 239040, Note_on_c, 2, 43, 95
3, 239520, Note_off_c, 2, 50, 95
3, 239520, Note_off_c, 2, 43, 95
3, 239520, Note_on_c, 2, 43, 95
3, 239760, Note_off_c, 2, 43, 95
3, 239760, Note_on_c, 2, 43, 95
3, 240000, Note_off_c, 2, 43, 95
3, 240000, Note_on_c, 2, 50, 95
3, 240000, Note_on_c, 2, 43, 95
3, 240480, Note_off_c, 2, 50, 95
3, 240480, Note_off_c, 2, 43, 95
3, 240480, Note_on_c, 2, 43, 95
3, 240720, Note_off_c, 2, 43, 95
3, 240720, Note_on_c, 2, 43, 95
3, 240960, Note_off_c, 2, 43, 95
3, 240960, Note_on_c, 2, 50, 95
3, 240960, Note_on_c, 2, 43, 95
3, 241440, Note_off_c, 2, 50, 95
3, 241440, Note_off_c, 2, 43, 95
3, 241440, Note_on_c, 2, 52, 95
3, 241440, Note_on_c, 2, 45, 95
3, 242400, Note_off_c, 2, 52, 95
3, 242400, Note_off_c, 2, 45, 95
3, 242400, Note_on_c, 2, 45, 95
3, 242640, Note_off_c, 2, 45, 95
3, 242640, Note_on_c, 2, 45, 95
3, 242880, Note_off_c, 2, 45, 95
3, 242880, Note_on_c, 2, 52, 95
3, 242880, Note_on_c, 2, 45, 95
3, 243360, Note_off_c, 2, 52, 95
3, 243360, Note_off_c, 2, 45, 95
3, 243360, Note_on_c, 2, 45, 95
3, 243600, Note_off_c, 2, 45, 95
3, 243600, Note_on_c, 2, 45, 95
3, 243840, Note_off_c, 2, 45, 95
3, 243840, Note_on_c, 2, 52, 95
3, 243840, Note_on_c, 2, 45, 95
3, 244320, Note_off_c, 2, 52, 95
3, 244320, Note_off_c, 2, 45, 95
3, 244320, Note_on_c, 2, 45, 95
3, 244560, Note_off_c, 2, 45, 95
3, 244560, Note_on_c, 2, 45, 95
3, 244800, Note_off_c, 2, 45, 95
3, 244800, Note_on_c, 2, 52, 95
3, 244800, Note_on_c, 2, 45, 95
3, 245280, Note_off_c, 2, 52, 95
3, 245280, Note_off_c, 2, 45, 95
3, 245280, Note_on_c, 2, 45, 95
3, 245520, Note_off_c, 2, 45, 95
3, 245520, Note_on_c, 2, 45, 95
3, 245760, Note_off_c, 2, 45, 95
3, 245760, Note_on_c, 2, 52, 95
3, 245760, Note_on_c, 2, 45, 95
3, 246240, Note_off_c, 2, 52, 95
3, 246240, Note_off_c, 2, 45, 95
3, 246240, Note_on_c, 2, 48, 95
3, 246720, Note_off_c, 2, 48, 95
3, 246720, Note_on_c, 2, 47, 95
3, 247200, Note_off_c, 2, 47, 95
3, 247200, Note_on_c, 2, 45, 95
3, 247680, Note_off_c, 2, 45, 95
3, 247680, Note_on_c, 2, 48, 95
3, 248160, Note_off_c, 2, 48, 95
3, 248160, Note_on_c, 2, 47, 95
3, 248640, Note_off_c, 2, 47, 95
3, 248640, Note_on_c, 2, 45, 95
3, 249120, Note_off_c, 2, 45, 95
3, 249120, Note_on_c, 2, 59, 95
3, 249120, Note_on_c, 2, 52, 95
3, 250080, Note_off_c, 2, 59, 95
3, 250080, Note_off_c, 2, 52, 95
3, 250080, Note_on_c, 2, 52, 95
3, 250560, Note_off_c, 2, 52, 95
3, 250560, Note_on_c, 2, 59, 95
3, 250560, Note_on_c, 2, 52, 95
3, 251040, Note_off_c, 2, 59, 95
3, 251040, Note_off_c, 2, 52, 95
3, 251040, Note_on_c, 2, 52, 95
3, 251520, Note_off_c, 2, 52, 95
3, 251520, Note_on_c, 2, 52, 95
3, 252000, Note_off_c, 2, 52, 95
3, 252000, Note_on_c, 2, 52, 95
3, 252480, Note_off_c, 2, 52, 95
3, 252480, Note_on_c, 2, 59, 95
3, 252480, Note_on_c, 2, 52, 95
3, 252960, Note_off_c, 2, 59, 95
3, 252960, Note_off_c, 2, 52, 95
3, 252960, Note_on_c, 2, 52, 95
3, 253440, Note_off_c, 2, 52, 95
3, 253440, Note_on_c, 2, 52, 95
3, 253920, Note_off_c, 2, 52, 95
3, 253920, Note_on_c, 2, 52, 95
3, 254400, Note_off_c, 2, 52, 95
3, 254400, Note_on_c, 2, 59, 95
3, 254400, Note_on_c, 2, 52, 95
3, 254880, Note_off_c, 2, 59, 95
3, 254880, Note_off_c, 2, 52, 95
3, 254880, Note_on_c, 2, 52, 95
3, 255360, Note_off_c, 2, 52, 95
3, 255360, Note_on_c, 2, 52, 95
3, 255840, Note_off_c, 2, 52, 95
3, 255840, Note_on_c, 2, 52, 95
3, 256320, Note_off_c, 2, 52, 95
3, 256320, Note_on_c, 2, 59, 95
3, 256320, Note_on_c, 2, 52, 95
3, 256800, Note_off_c, 2, 59, 95
3, 256800, Note_off_c, 2, 52, 95
3, 256800, Note_on_c, 2, 55, 95
3, 256800, Note_on_c, 2, 48, 95
3, 257760, Note_off_c, 2, 55, 95
3, 257760, Note_off_c, 2, 48, 95
3, 257760, Note_on_c, 2, 48, 95
3, 258240, Note_off_c, 2, 48, 95
3, 258240, Note_on_c, 2, 55, 95
3, 258240, Note_on_c, 2, 48, 95
3, 258720, Note_off_c, 2, 55, 95
3, 258720, Note_off_c, 2, 48, 95
3, 258720, Note_on_c, 2, 48, 95
3, 259200, Note_off_c, 2, 48, 95
3, 259200, Note_on_c, 2, 48, 95
3, 259680, Note_off_c, 2, 48, 95
3, 259680, Note_on_c, 2, 48, 95
3, 260160, Note_off_c, 2, 48, 95
3, 260160, Note_on_c, 2, 55, 95
3, 260160, Note_on_c, 2, 48, 95
3, 260640, Note_off_c, 2, 55, 95
3, 260640, Note_off_c, 2, 48, 95
3, 260640, Note_on_c, 2, 48, 95
3, 261120, Note_off_c, 2, 48, 95
3, 261120, Note_on_c, 2, 48, 95
3, 261600, Note_off_c, 2, 48, 95
3, 261600, Note_on_c, 2, 48, 95
3, 262080, Note_off_c, 2, 48, 95
3, 262080, Note_on_c, 2, 55, 95
3, 262080, Note_on_c, 2, 48, 95
3, 262560, Note_off_c, 2, 55, 95
3, 262560, Note_off_c, 2, 48, 95
3, 262560, Note_on_c, 2, 48, 95
3, 263040, Note_off_c, 2, 48, 95
3, 263040, Note_on_c, 2, 48, 95
3, 263520, Note_off_c, 2, 48, 95
3, 263520, Note_on_c, 2, 48, 95
3, 264000, Note_off_c, 2, 48, 95
3, 264000, Note_on_c, 2, 55, 95
3, 264000, Note_on_c, 2, 48, 95
3, 264480, Note_off_c, 2, 55, 95
3, 264480, Note_off_c, 2, 48, 95
3, 264480, Note_on_c, 2, 59, 95
3, 264480, Note_on_c, 2, 52, 95
3, 265440, Note_off_c, 2, 59, 95
3, 265440, Note_off_c, 2, 52, 95
3, 265440, Note_on_c, 2, 52, 95
3, 265920, Note_off_c, 2, 52, 95
3, 265920, Note_on_c, 2, 59, 95
3, 265920, Note_on_c, 2, 52, 95
3, 266400, Note_off_c, 2, 59, 95
3, 266400, Note_off_c, 2, 52, 95
3, 266400, Note_on_c, 2, 52, 95
3, 266880, Note_off_c, 2, 52, 95
3, 266880, Note_on_c, 2, 52, 95
3, 267360, Note_off_c, 2, 52, 95
3, 267360, Note_on_c, 2, 52, 95
3, 267840, Note_off_c, 2, 52, 95
3, 267840, Note_on_c, 2, 59, 95
3, 267840, Note_on_c, 2, 52, 95
3, 268320, Note_off_c, 2, 59, 95
3, 268320, Note_off_c, 2, 52, 95
3, 268320, Note_on_c, 2, 52, 95
3, 268800, Note_off_c, 2, 52, 95
3, 268800, Note_on_c, 2, 52, 95
3, 269280, Note_off_c, 2, 52, 95
3, 269280, Note_on_c, 2, 52, 95
3, 269760, Note_off_c, 2, 52, 95
3, 269760, Note_on_c, 2, 59, 95
3, 269760, Note_on_c, 2, 52, 95
3, 270240, Note_off_c, 2, 59, 95
3, 270240, Note_off_c, 2, 52, 95
3, 270240, Note_on_c, 2, 52, 95
3, 270720, Note_off_c, 2, 52, 95
3, 270720, Note_on_c, 2, 52, 95
3, 271200, Note_off_c, 2, 52, 95
3, 271200, Note_on_c, 2, 52, 95
3, 271680, Note_off_c, 2, 52, 95
3, 271680, Note_on_c, 2, 59, 95
3, 271680, Note_on_c, 2, 52, 95
3, 272160, Note_off_c, 2, 59, 95
3, 272160, Note_off_c, 2, 52, 95
3, 272160, Note_on_c, 2, 55, 95
3, 272160, Note_on_c, 2, 48, 95
3, 273120, Note_off_c, 2, 55, 95
3, 273120, Note_off_c, 2, 48, 95
3, 273120, Note_on_c, 2, 48, 95
3, 273600, Note_off_c, 2, 48, 95
3, 273600, Note_on_c, 2, 55, 95
3, 273600, Note_on_c, 2, 48, 95
3, 274080, Note_off_c, 2, 55, 95
3, 274080, Note_off_c, 2, 48, 95
3, 274080, Note_on_c, 2, 48, 95
3, 274560, Note_off_c, 2, 48, 95
3, 274560, Note_on_c, 2, 48, 95
3, 275040, Note_off_c, 2, 48, 95
3, 275040, Note_on_c, 2, 48, 95
3, 275520, Note_off_c, 2, 48, 95
3, 275520, Note_on_c, 2, 55, 95
3, 275520, Note_on_c, 2, 48, 95
3, 276000, Note_off_c, 2, 55, 95
3, 276000, Note_off_c, 2, 48, 95
3, 276000, Note_on_c, 2, 48, 95
3, 276480, Note_off_c, 2, 48, 95
3, 276480, Note_on_c, 2, 48, 95
3, 276960, Note_off_c, 2, 48, 95
3, 276960, Note_on_c, 2, 48, 95
3, 277440, Note_off_c, 2, 48, 95
3, 277440, Note_on_c, 2, 55, 95
3, 277440, Note_on_c, 2, 48, 95
3, 277920, Note_off_c, 2, 55, 95
3, 277920, Note_off_c, 2, 48, 95
3, 277920, Note_on_c, 2, 48, 95
3, 278400, Note_off_c, 2, 48, 95
3, 278400, Note_on_c, 2, 48, 95
3, 278880, Note_off_c, 2, 48, 95
3, 278880, Note_on_c, 2, 48, 95
3, 279360, Note_off_c, 2, 48, 95
3, 279360, Note_on_c, 2, 55, 95
3, 279360, Note_on_c, 2, 48, 95
3, 279840, Note_off_c, 2, 55, 95
3, 279840, Note_off_c, 2, 48, 95
3, 279840, Note_on_c, 2, 59, 95
3, 279840, Note_on_c, 2, 52, 95
3, 280800, Note_off_c, 2, 59, 95
3, 280800, Note_off_c, 2, 52, 95
3, 280800, Note_on_c, 2, 52, 95
3, 281040, Note_off_c, 2, 52, 95
3, 281040, Note_on_c, 2, 52, 95
3, 281280, Note_off_c, 2, 52, 95
3, 281280, Note_on_c, 2, 59, 95
3, 281280, Note_on_c, 2, 52, 95
3, 281760, Note_off_c, 2, 59, 95
3, 281760, Note_off_c, 2, 52, 95
3, 281760, Note_on_c, 2, 52, 95
3, 282000, Note_off_c, 2, 52, 95
3, 282000, Note_on_c, 2, 52, 95
3, 282240, Note_off_c, 2, 52, 95
3, 282240, Note_on_c, 2, 57, 95
3, 282240, Note_on_c, 2, 52, 95
3, 282720, Note_off_c, 2, 57, 95
3, 282720, Note_off_c, 2, 52, 95
3, 282720, Note_on_c, 2, 59, 95
3, 282720, Note_on_c, 2, 52, 95
3, 283200, Note_off_c, 2, 59, 95
3, 283200, Note_off_c, 2, 52, 95
3, 283200, Note_on_c, 2, 52, 95
3, 283440, Note_off_c, 2, 52, 95
3, 283440, Note_on_c, 2, 52, 95
3, 283680, Note_off_c, 2, 52, 95
3, 283680, Note_on_c, 2, 52, 95
3, 283920, Note_off_c, 2, 52, 95
3, 283920, Note_on_c, 2, 52, 95
3, 284160, Note_off_c, 2, 52, 95
3, 284160, Note_on_c, 2, 59, 95
3, 284160, Note_on_c, 2, 52, 95
3, 284640, Note_off_c, 2, 59, 95
3, 284640, Note_off_c, 2, 52, 95
3, 284640, Note_on_c, 2, 52, 95
3, 284880, Note_off_c, 2, 52, 95
3, 284880, Note_on_c, 2, 52, 95
3, 285120, Note_off_c, 2, 52, 95
3, 285120, Note_on_c, 2, 59, 95
3, 285120, Note_on_c, 2, 52, 95
3, 285600, Note_off_c, 2, 59, 95
3, 285600, Note_off_c, 2, 52, 95
3, 285600, Note_on_c, 2, 52, 95
3, 286080, Note_off_c, 2, 52, 95
3, 286080, Note_on_c, 2, 57, 95
3, 286080, Note_on_c, 2, 52, 95
3, 286560, Note_off_c, 2, 57, 95
3, 286560, Note_off_c, 2, 52, 95
3, 286560, Note_on_c, 2, 59, 95
3, 286560, Note_on_c, 2, 52, 95
3, 287040, Note_off_c, 2, 59, 95
3, 287040, Note_off_c, 2, 52, 95
3, 287520, Note_on_c, 2, 60, 95
3, 287520, Note_on_c, 2, 55, 95
3, 287520, Note_on_c, 2, 48, 95
3, 288480, Note_off_c, 2, 60, 95
3, 288480, Note_off_c, 2, 55, 95
3, 288480, Note_off_c, 2, 48, 95
3, 288480, Note_on_c, 2, 48, 95
3, 288720, Note_off_c, 2, 48, 95
3, 288720, Note_on_c, 2, 48, 95
3, 288960, Note_off_c, 2, 48, 95
3, 288960, Note_on_c, 2, 60, 95
3, 288960, Note_on_c, 2, 55, 95
3, 288960, Note_on_c, 2, 48, 95
3, 289440, Note_off_c, 2, 60, 95
3, 289440, Note_off_c, 2, 55, 95
3, 289440, Note_off_c, 2, 48, 95
3, 289440, Note_on_c, 2, 48, 95
3, 289680, Note_off_c, 2, 48, 95
3, 289680, Note_on_c, 2, 48, 95
3, 289920, Note_off_c, 2, 48, 95
3, 289920, Note_on_c, 2, 59, 95
3, 289920, Note_on_c, 2, 55, 95
3, 289920, Note_on_c, 2, 48, 95
3, 290400, Note_off_c, 2, 59, 95
3, 290400, Note_off_c, 2, 55, 95
3, 290400, Note_off_c, 2, 48, 95
3, 290400, Note_on_c, 2, 60, 95
3, 290400, Note_on_c, 2, 55, 95
3, 290400, Note_on_c, 2, 48, 95
3, 290880, Note_off_c, 2, 60, 95
3, 290880, Note_off_c, 2, 55, 95
3, 290880, Note_off_c, 2, 48, 95
3, 290880, Note_on_c, 2, 48, 95
3, 291120, Note_off_c, 2, 48, 95
3, 291120, Note_on_c, 2, 48, 95
3, 291360, Note_off_c, 2, 48, 95
3, 291360, Note_on_c, 2, 48, 95
3, 291600, Note_off_c, 2, 48, 95
3, 291600, Note_on_c, 2, 48, 95
3, 291840, Note_off_c, 2, 48, 95
3, 291840, Note_on_c, 2, 62, 95
3, 291840, Note_on_c, 2, 55, 95
3, 291840, Note_on_c, 2, 48, 95
3, 292320, Note_off_c, 2, 62, 95
3, 292320, Note_off_c, 2, 55, 95
3, 292320, Note_off_c, 2, 48, 95
3, 292320, Note_on_c, 2, 48, 95
3, 292560, Note_off_c, 2, 48, 95
3, 292560, Note_on_c, 2, 48, 95
3, 292800, Note_off_c, 2, 48, 95
3, 292800, Note_on_c, 2, 60, 95
3, 292800, Note_on_c, 2, 55, 95
3, 292800, Note_on_c, 2, 48, 95
3, 293280, Note_off_c, 2, 60, 95
3, 293280, Note_off_c, 2, 55, 95
3, 293280, Note_off_c, 2, 48, 95
3, 293280, Note_on_c, 2, 48, 95
3, 293520, Note_off_c, 2, 48, 95
3, 293520, Note_on_c, 2, 48, 95
3, 293760, Note_off_c, 2, 48, 95
3, 293760, Note_on_c, 2, 59, 95
3, 293760, Note_on_c, 2, 55, 95
3, 293760, Note_on_c, 2, 48, 95
3, 294240, Note_off_c, 2, 59, 95
3, 294240, Note_off_c, 2, 55, 95
3, 294240, Note_off_c, 2, 48, 95
3, 294240, Note_on_c, 2, 60, 95
3, 294240, Note_on_c, 2, 55, 95
3, 294240, Note_on_c, 2, 48, 95
3, 294720, Note_off_c, 2, 60, 95
3, 294720, Note_off_c, 2, 55, 95
3, 294720, Note_off_c, 2, 48, 95
3, 295200, Note_on_c, 2, 59, 95
3, 295200, Note_on_c, 2, 52, 95
3, 296160, Note_off_c, 2, 59, 95
3, 296160, Note_off_c, 2, 52, 95
3, 296160, Note_on_c, 2, 52, 95
3, 296400, Note_off_c, 2, 52, 95
3, 296400, Note_on_c, 2, 52, 95
3, 296640, Note_off_c, 2, 52, 95
3, 296640, Note_on_c, 2, 59, 95
3, 296640, Note_on_c, 2, 52, 95
3, 297120, Note_off_c, 2, 59, 95
3, 297120, Note_off_c, 2, 52, 95
3, 297120, Note_on_c, 2, 52, 95
3, 297360, Note_off_c, 2, 52, 95
3, 297360, Note_on_c, 2, 52, 95
3, 297600, Note_off_c, 2, 52, 95
3, 297600, Note_on_c, 2, 57, 95
3, 297600, Note_on_c, 2, 52, 95
3, 298080, Note_off_c, 2, 57, 95
3, 298080, Note_off_c, 2, 52, 95
3, 298080, Note_on_c, 2, 59, 95
3, 298080, Note_on_c, 2, 52, 95
3, 298560, Note_off_c, 2, 59, 95
3, 298560, Note_off_c, 2, 52, 95
3, 298560, Note_on_c, 2, 52, 95
3, 298800, Note_off_c, 2, 52, 95
3, 298800, Note_on_c, 2, 52, 95
3, 299040, Note_off_c, 2, 52, 95
3, 299040, Note_on_c, 2, 52, 95
3, 299280, Note_off_c, 2, 52, 95
3, 299280, Note_on_c, 2, 52, 95
3, 299520, Note_off_c, 2, 52, 95
3, 299520, Note_on_c, 2, 59, 95
3, 299520, Note_on_c, 2, 52, 95
3, 300000, Note_off_c, 2, 59, 95
3, 300000, Note_off_c, 2, 52, 95
3, 300000, Note_on_c, 2, 52, 95
3, 300240, Note_off_c, 2, 52, 95
3, 300240, Note_on_c, 2, 52, 95
3, 300480, Note_off_c, 2, 52, 95
3, 300480, Note_on_c, 2, 59, 95
3, 300480, Note_on_c, 2, 52, 95
3, 300960, Note_off_c, 2, 59, 95
3, 300960, Note_off_c, 2, 52, 95
3, 300960, Note_on_c, 2, 52, 95
3, 301440, Note_off_c, 2, 52, 95
3, 301440, Note_on_c, 2, 57, 95
3, 301440, Note_on_c, 2, 52, 95
3, 301920, Note_off_c, 2, 57, 95
3, 301920, Note_off_c, 2, 52, 95
3, 301920, Note_on_c, 2, 59, 95
3, 301920, Note_on_c, 2, 52, 95
3, 302400, Note_off_c, 2, 59, 95
3, 302400, Note_off_c, 2, 52, 95
3, 302880, Note_on_c, 2, 60, 95
3, 302880, Note_on_c, 2, 55, 95
3, 302880, Note_on_c, 2, 48, 95
3, 303840, Note_off_c, 2, 60, 95
3, 303840, Note_off_c, 2, 55, 95
3, 303840, Note_off_c, 2, 48, 95
3, 303840, Note_on_c, 2, 48, 95
3, 304080, Note_off_c, 2, 48, 95
3, 304080, Note_on_c, 2, 48, 95
3, 304320, Note_off_c, 2, 48, 95
3, 304320, Note_on_c, 2, 60, 95
3, 304320, Note_on_c, 2, 55, 95
3, 304320, Note_on_c, 2, 48, 95
3, 304800, Note_off_c, 2, 60, 95
3, 304800, Note_off_c, 2, 55, 95
3, 304800, Note_off_c, 2, 48, 95
3, 304800, Note_on_c, 2, 48, 95
3, 305040, Note_off_c, 2, 48, 95
3, 305040, Note_on_c, 2, 48, 95
3, 305280, Note_off_c, 2, 48, 95
3, 305280, Note_on_c, 2, 59, 95
3, 305280, Note_on_c, 2, 55, 95
3, 305280, Note_on_c, 2, 48, 95
3, 305760, Note_off_c, 2, 59, 95
3, 305760, Note_off_c, 2, 55, 95
3, 305760, Note_off_c, 2, 48, 95
3, 305760, Note_on_c, 2, 60, 95
3, 305760, Note_on_c, 2, 55, 95
3, 305760, Note_on_c, 2, 48, 95
3, 306240, Note_off_c, 2, 60, 95
3, 306240, Note_off_c, 2, 55, 95
3, 306240, Note_off_c, 2, 48, 95
3, 306240, Note_on_c, 2, 48, 95
3, 306480, Note_off_c, 2, 48, 95
3, 306480, Note_on_c, 2, 48, 95
3, 306720, Note_off_c, 2, 48, 95
3, 306720, Note_on_c, 2, 48, 95
3, 306960, Note_off_c, 2, 48, 95
3, 306960, Note_on_c, 2, 48, 95
3, 307200, Note_off_c, 2, 48, 95
3, 307200, Note_on_c, 2, 62, 95
3, 307200, Note_on_c, 2, 55, 95
3, 307200, Note_on_c, 2, 48, 95
3, 307680, Note_off_c, 2, 62, 95
3, 307680, Note_off_c, 2, 55, 95
3, 307680, Note_off_c, 2, 48, 95
3, 307680, Note_on_c, 2, 48, 95
3, 307920, Note_off_c, 2, 48, 95
3, 307920, Note_on_c, 2, 48, 95
3, 308160, Note_off_c, 2, 48, 95
3, 308160, Note_on_c, 2, 60, 95
3, 308160, Note_on_c, 2, 55, 95
3, 308160, Note_on_c, 2, 48, 95
3, 308640, Note_off_c, 2, 60, 95
3, 308640, Note_off_c, 2, 55, 95
3, 308640, Note_off_c, 2, 48, 95
3, 308640, Note_on_c, 2, 48, 95
3, 308880, Note_off_c, 2, 48, 95
3, 308880, Note_on_c, 2, 48, 95
3, 309120, Note_off_c, 2, 48, 95
3, 309120, Note_on_c, 2, 59, 95
3, 309120, Note_on_c, 2, 55, 95
3, 309120, Note_on_c, 2, 48, 95
3, 309600, Note_off_c, 2, 59, 95
3, 309600, Note_off_c, 2, 55, 95
3, 309600, Note_off_c, 2, 48, 95
3, 309600, Note_on_c, 2, 60, 95
3, 309600, Note_on_c, 2, 55, 95
3, 309600, Note_on_c, 2, 48, 95
3, 310080, Note_off_c, 2, 60, 95
3, 310080, Note_off_c, 2, 55, 95
3, 310080, Note_off_c, 2, 48, 95
3, 310560, Note_on_c, 2, 53, 95
3, 310560, Note_on_c, 2, 46, 95
3, 311520, Note_off_c, 2, 53, 95
3, 311520, Note_off_c, 2, 46, 95
3, 311520, Note_on_c, 2, 46, 95
3, 311760, Note_off_c, 2, 46, 95
3, 311760, Note_on_c, 2, 46, 95
3, 312000, Note_off_c, 2, 46, 95
3, 312000, Note_on_c, 2, 46, 95
3, 312240, Note_off_c, 2, 46, 95
3, 312240, Note_on_c, 2, 46, 95
3, 312480, Note_off_c, 2, 46, 95
3, 312480, Note_on_c, 2, 46, 95
3, 312720, Note_off_c, 2, 46, 95
3, 312720, Note_on_c, 2, 46, 95
3, 312960, Note_off_c, 2, 46, 95
3, 312960, Note_on_c, 2, 46, 95
3, 313200, Note_off_c, 2, 46, 95
3, 313200, Note_on_c, 2, 46, 95
3, 313440, Note_off_c, 2, 46, 95
3, 313440, Note_on_c, 2, 46, 95
3, 313680, Note_off_c, 2, 46, 95
3, 313680, Note_on_c, 2, 46, 95
3, 313920, Note_off_c, 2, 46, 95
3, 313920, Note_on_c, 2, 46, 95
3, 314160, Note_off_c, 2, 46, 95
3, 314160, Note_on_c, 2, 46, 95
3, 314400, Note_off_c, 2, 46, 95
3, 314400, Note_on_c, 2, 46, 95
3, 314640, Note_off_c, 2, 46, 95
3, 314640, Note_on_c, 2, 46, 95
3, 314880, Note_off_c, 2, 46, 95
3, 314880, Note_on_c, 2, 46, 95
3, 315120, Note_off_c, 2, 46, 95
3, 315120, Note_on_c, 2, 46, 95
3, 315360, Note_off_c, 2, 46, 95
3, 315360, Note_on_c, 2, 46, 95
3, 315600, Note_off_c, 2, 46, 95
3, 315600, Note_on_c, 2, 46, 95
3, 315840, Note_off_c, 2, 46, 95
3, 315840, Note_on_c, 2, 46, 95
3, 316080, Note_off_c, 2, 46, 95
3, 316080, Note_on_c, 2, 46, 95
3, 316320, Note_off_c, 2, 46, 95
3, 316320, Note_on_c, 2, 46, 95
3, 316560, Note_off_c, 2, 46, 95
3, 316560, Note_on_c, 2, 46, 95
3, 316800, Note_off_c, 2, 46, 95
3, 316800, Note_on_c, 2, 53, 95
3, 316800, Note_on_c, 2, 46, 95
3, 317280, Note_off_c, 2, 53, 95
3, 317280, Note_off_c, 2, 46, 95
3, 317280, Note_on_c, 2, 52, 95
3, 317280, Note_on_c, 2, 45, 95
3, 317760, Note_off_c, 2, 52, 95
3, 317760, Note_off_c, 2, 45, 95
3, 317760, Note_on_c, 2, 50, 95
3, 317760, Note_on_c, 2, 43, 95
3, 318240, Note_off_c, 2, 50, 95
3, 318240, Note_off_c, 2, 43, 95
3, 318240, Note_on_c, 2, 47, 95
3, 318240, Note_on_c, 2, 40, 95
3, 319200, Note_off_c, 2, 47, 95
3, 319200, Note_off_c, 2, 40, 95
3, 319200, Note_on_c, 2, 40, 95
3, 319440, Note_off_c, 2, 40, 95
3, 319440, Note_on_c, 2, 40, 95
3, 319680, Note_off_c, 2, 40, 95
3, 319680, Note_on_c, 2, 40, 95
3, 319920, Note_off_c, 2, 40, 95
3, 319920, Note_on_c, 2, 40, 95
3, 320160, Note_off_c, 2, 40, 95
3, 320160, Note_on_c, 2, 40, 95
3, 320400, Note_off_c, 2, 40, 95
3, 320400, Note_on_c, 2, 40, 95
3, 320640, Note_off_c, 2, 40, 95
3, 320640, Note_on_c, 2, 40, 95
3, 320880, Note_off_c, 2, 40, 95
3, 320880, Note_on_c, 2, 40, 95
3, 321120, Note_off_c, 2, 40, 95
3, 321120, Note_on_c, 2, 40, 95
3, 321360, Note_off_c, 2, 40, 95
3, 321360, Note_on_c, 2, 40, 95
3, 321600, Note_off_c, 2, 40, 95
3, 321600, Note_on_c, 2, 40, 95
3, 321840, Note_off_c, 2, 40, 95
3, 321840, Note_on_c, 2, 40, 95
3, 322080, Note_off_c, 2, 40, 95
3, 322080, Note_on_c, 2, 40, 95
3, 322320, Note_off_c, 2, 40, 95
3, 322320, Note_on_c, 2, 40, 95
3, 322560, Note_off_c, 2, 40, 95
3, 322560, Note_on_c, 2, 40, 95
3, 322800, Note_off_c, 2, 40, 95
3, 322800, Note_on_c, 2, 40, 95
3, 323040, Note_off_c, 2, 40, 95
3, 323040, Note_on_c, 2, 40, 95
3, 323280, Note_off_c, 2, 40, 95
3, 323280, Note_on_c, 2, 40, 95
3, 323520, Note_off_c, 2, 40, 95
3, 323520, Note_on_c, 2, 40, 95
3, 323760, Note_off_c, 2, 40, 95
3, 323760, Note_on_c, 2, 40, 95
3, 324000, Note_off_c, 2, 40, 95
3, 324000, Note_on_c, 2, 40, 95
3, 324240, Note_off_c, 2, 40, 95
3, 324240, Note_on_c, 2, 40, 95
3, 324480, Note_off_c, 2, 40, 95
3, 324480, Note_on_c, 2, 47, 95
3, 324480, Note_on_c, 2, 40, 95
3, 324960, Note_off_c, 2, 47, 95
3, 324960, Note_off_c, 2, 40, 95
3, 324960, Note_on_c, 2, 50, 95
3, 324960, Note_on_c, 2, 43, 95
3, 325440, Note_off_c, 2, 50, 95
3, 325440, Note_off_c, 2, 43, 95
3, 325440, Note_on_c, 2, 52, 95
3, 325440, Note_on_c, 2, 45, 95
3, 325920, Note_off_c, 2, 52, 95
3, 325920, Note_off_c, 2, 45, 95
3, 325920, Note_on_c, 2, 53, 95
3, 325920, Note_on_c, 2, 46, 95
3, 326880, Note_off_c, 2, 53, 95
3, 326880, Note_off_c, 2, 46, 95
3, 326880, Note_on_c, 2, 46, 95
3, 327120, Note_off_c, 2, 46, 95
3, 327120, Note_on_c, 2, 46, 95
3, 327360, Note_off_c, 2, 46, 95
3, 327360, Note_on_c, 2, 46, 95
3, 327600, Note_off_c, 2, 46, 95
3, 327600, Note_on_c, 2, 46, 95
3, 327840, Note_off_c, 2, 46, 95
3, 327840, Note_on_c, 2, 46, 95
3, 328080, Note_off_c, 2, 46, 95
3, 328080, Note_on_c, 2, 46, 95
3, 328320, Note_off_c, 2, 46, 95
3, 328320, Note_on_c, 2, 46, 95
3, 328560, Note_off_c, 2, 46, 95
3, 328560, Note_on_c, 2, 46, 95
3, 328800, Note_off_c, 2, 46, 95
3, 328800, Note_on_c, 2, 46, 95
3, 329040, Note_off_c, 2, 46, 95
3, 329040, Note_on_c, 2, 46, 95
3, 329280, Note_off_c, 2, 46, 95
3, 329280, Note_on_c, 2, 46, 95
3, 329520, Note_off_c, 2, 46, 95
3, 329520, Note_on_c, 2, 46, 95
3, 329760, Note_off_c, 2, 46, 95
3, 329760, Note_on_c, 2, 46, 95
3, 330000, Note_off_c, 2, 46, 95
3, 330000, Note_on_c, 2, 46, 95
3, 330240, Note_off_c, 2, 46, 95
3, 330240, Note_on_c, 2, 46, 95
3, 330480, Note_off_c, 2, 46, 95
3, 330480, Note_on_c, 2, 46, 95
3, 330720, Note_off_c, 2, 46, 95
3, 330720, Note_on_c, 2, 46, 95
3, 330960, Note_off_c, 2, 46, 95
3, 330960, Note_on_c, 2, 46, 95
3, 331200, Note_off_c, 2, 46, 95
3, 331200, Note_on_c, 2, 46, 95
3, 331440, Note_off_c, 2, 46, 95
3, 331440, Note_on_c, 2, 46, 95
3, 331680, Note_off_c, 2, 46, 95
3, 331680, Note_on_c, 2, 46, 95
3, 331920, Note_off_c, 2, 46, 95
3, 331920, Note_on_c, 2, 46, 95
3, 332160, Note_off_c, 2, 46, 95
3, 332160, Note_on_c, 2, 53, 95
3, 332160, Note_on_c, 2, 46, 95
3, 332640, Note_off_c, 2, 53, 95
3, 332640, Note_off_c, 2, 46, 95
3, 332640, Note_on_c, 2, 52, 95
3, 332640, Note_on_c, 2, 45, 95
3, 333120, Note_off_c, 2, 52, 95
3, 333120, Note_off_c, 2, 45, 95
3, 333120, Note_on_c, 2, 50, 95
3, 333120, Note_on_c, 2, 43, 95
3, 333600, Note_off_c, 2, 50, 95
3, 333600, Note_off_c, 2, 43, 95
3, 333600, Note_on_c, 2, 47, 95
3, 333600, Note_on_c, 2, 40, 95
3, 334560, Note_off_c, 2, 47, 95
3, 334560, Note_off_c, 2, 40, 95
3, 334560, Note_on_c, 2, 40, 95
3, 334800, Note_off_c, 2, 40, 95
3, 334800, Note_on_c, 2, 40, 95
3, 335040, Note_off_c, 2, 40, 95
3, 335040, Note_on_c, 2, 40, 95
3, 335280, Note_off_c, 2, 40, 95
3, 335280, Note_on_c, 2, 40, 95
3, 335520, Note_off_c, 2, 40, 95
3, 335520, Note_on_c, 2, 40, 95
3, 335760, Note_off_c, 2, 40, 95
3, 335760, Note_on_c, 2, 40, 95
3, 336000, Note_off_c, 2, 40, 95
3, 336000, Note_on_c, 2, 40, 95
3, 336240, Note_off_c, 2, 40, 95
3, 336240, Note_on_c, 2, 40, 95
3, 336480, Note_off_c, 2, 40, 95
3, 336480, Note_on_c, 2, 40, 95
3, 336720, Note_off_c, 2, 40, 95
3, 336720, Note_on_c, 2, 40, 95
3, 336960, Note_off_c, 2, 40, 95
3, 336960, Note_on_c, 2, 40, 95
3, 337200, Note_off_c, 2, 40, 95
3, 337200, Note_on_c, 2, 40, 95
3, 337440, Note_off_c, 2, 40, 95
3, 337440, Note_on_c, 2, 40, 95
3, 337680, Note_off_c, 2, 40, 95
3, 337680, Note_on_c, 2, 40, 95
3, 337920, Note_off_c, 2, 40, 95
3, 337920, Note_on_c, 2, 47, 95
3, 337920, Note_on_c, 2, 40, 95
3, 338400, Note_off_c, 2, 47, 95
3, 338400, Note_off_c, 2, 40, 95
3, 341280, Note_on_c, 2, 52, 95
3, 341280, Note_on_c, 2, 45, 95
3, 342240, Note_off_c, 2, 52, 95
3, 342240, Note_off_c, 2, 45, 95
3, 342240, Note_on_c, 2, 45, 95
3, 342480, Note_off_c, 2, 45, 95
3, 342480, Note_on_c, 2, 45, 95
3, 342720, Note_off_c, 2, 45, 95
3, 342720, Note_on_c, 2, 52, 95
3, 342720, Note_on_c, 2, 45, 95
3, 343200, Note_off_c, 2, 52, 95
3, 343200, Note_off_c, 2, 45, 95
3, 343200, Note_on_c, 2, 45, 95
3, 343440, Note_off_c, 2, 45, 95
3, 343440, Note_on_c, 2, 45, 95
3, 343680, Note_off_c, 2, 45, 95
3, 343680, Note_on_c, 2, 52, 95
3, 343680, Note_on_c, 2, 45, 95
3, 344160, Note_off_c, 2, 52, 95
3, 344160, Note_off_c, 2, 45, 95
3, 344160, Note_on_c, 2, 45, 95
3, 344400, Note_off_c, 2, 45, 95
3, 344400, Note_on_c, 2, 45, 95
3, 344640, Note_off_c, 2, 45, 95
3, 344640, Note_on_c, 2, 52, 95
3, 344640, Note_on_c, 2, 45, 95
3, 345120, Note_off_c, 2, 52, 95
3, 345120, Note_off_c, 2, 45, 95
3, 345120, Note_on_c, 2, 45, 95
3, 345360, Note_off_c, 2, 45, 95
3, 345360, Note_on_c, 2, 45, 95
3, 345600, Note_off_c, 2, 45, 95
3, 345600, Note_on_c, 2, 52, 95
3, 345600, Note_on_c, 2, 45, 95
3, 346080, Note_off_c, 2, 52, 95
3, 346080, Note_off_c, 2, 45, 95
3, 346080, Note_on_c, 2, 45, 95
3, 346320, Note_off_c, 2, 45, 95
3, 346320, Note_on_c, 2, 45, 95
3, 346560, Note_off_c, 2, 45, 95
3, 346560, Note_on_c, 2, 52, 95
3, 346560, Note_on_c, 2, 45, 95
3, 347040, Note_off_c, 2, 52, 95
3, 347040, Note_off_c, 2, 45, 95
3, 347040, Note_on_c, 2, 45, 95
3, 347280, Note_off_c, 2, 45, 95
3, 347280, Note_on_c, 2, 45, 95
3, 347520, Note_off_c, 2, 45, 95
3, 347520, Note_on_c, 2, 52, 95
3, 347520, Note_on_c, 2, 45, 95
3, 348000, Note_off_c, 2, 52, 95
3, 348000, Note_off_c, 2, 45, 95
3, 348000, Note_on_c, 2, 45, 95
3, 348240, Note_off_c, 2, 45, 95
3, 348240, Note_on_c, 2, 45, 95
3, 348480, Note_off_c, 2, 45, 95
3, 348480, Note_on_c, 2, 52, 95
3, 348480, Note_on_c, 2, 45, 95
3, 348960, Note_off_c, 2, 52, 95
3, 348960, Note_off_c, 2, 45, 95
3, 348960, Note_on_c, 2, 48, 95
3, 348960, Note_on_c, 2, 41, 95
3, 349920, Note_off_c, 2, 48, 95
3, 349920, Note_off_c, 2, 41, 95
3, 349920, Note_on_c, 2, 41, 95
3, 350160, Note_off_c, 2, 41, 95
3, 350160, Note_on_c, 2, 41, 95
3, 350400, Note_off_c, 2, 41, 95
3, 350400, Note_on_c, 2, 48, 95
3, 350400, Note_on_c, 2, 41, 95
3, 350880, Note_off_c, 2, 48, 95
3, 350880, Note_off_c, 2, 41, 95
3, 350880, Note_on_c, 2, 41, 95
3, 351120, Note_off_c, 2, 41, 95
3, 351120, Note_on_c, 2, 41, 95
3, 351360, Note_off_c, 2, 41, 95
3, 351360, Note_on_c, 2, 48, 95
3, 351360, Note_on_c, 2, 41, 95
3, 351840, Note_off_c, 2, 48, 95
3, 351840, Note_off_c, 2, 41, 95
3, 351840, Note_on_c, 2, 41, 95
3, 352080, Note_off_c, 2, 41, 95
3, 352080, Note_on_c, 2, 41, 95
3, 352320, Note_off_c, 2, 41, 95
3, 352320, Note_on_c, 2, 48, 95
3, 352320, Note_on_c, 2, 41, 95
3, 352800, Note_off_c, 2, 48, 95
3, 352800, Note_off_c, 2, 41, 95
3, 352800, Note_on_c, 2, 41, 95
3, 353040, Note_off_c, 2, 41, 95
3, 353040, Note_on_c, 2, 41, 95
3, 353280, Note_off_c, 2, 41, 95
3, 353280, Note_on_c, 2, 48, 95
3, 353280, Note_on_c, 2, 41, 95
3, 353760, Note_off_c, 2, 48, 95
3, 353760, Note_off_c, 2, 41, 95
3, 353760, Note_on_c, 2, 41, 95
3, 354000, Note_off_c, 2, 41, 95
3, 354000, Note_on_c, 2, 41, 95
3, 354240, Note_off_c, 2, 41, 95
3, 354240, Note_on_c, 2, 48, 95
3, 354240, Note_on_c, 2, 41, 95
3, 354720, Note_off_c, 2, 48, 95
3, 354720, Note_off_c, 2, 41, 95
3, 354720, Note_on_c, 2, 41, 95
3, 354960, Note_off_c, 2, 41, 95
3, 354960, Note_on_c, 2, 41, 95
3, 355200, Note_off_c, 2, 41, 95
3, 355200, Note_on_c, 2, 48, 95
3, 355200, Note_on_c, 2, 41, 95
3, 355680, Note_off_c, 2, 48, 95
3, 355680, Note_off_c, 2, 41, 95
3, 355680, Note_on_c, 2, 41, 95
3, 355920, Note_off_c, 2, 41, 95
3, 355920, Note_on_c, 2, 41, 95
3, 356160, Note_off_c, 2, 41, 95
3, 356160, Note_on_c, 2, 48, 95
3, 356160, Note_on_c, 2, 41, 95
3, 356640, Note_off_c, 2, 48, 95
3, 356640, Note_off_c, 2, 41, 95
3, 356640, Note_on_c, 2, 50, 95
3, 356640, Note_on_c, 2, 43, 95
3, 357600, Note_off_c, 2, 50, 95
3, 357600, Note_off_c, 2, 43, 95
3, 357600, Note_on_c, 2, 43, 95
3, 357840, Note_off_c, 2, 43, 95
3, 357840, Note_on_c, 2, 43, 95
3, 358080, Note_off_c, 2, 43, 95
3, 358080, Note_on_c, 2, 50, 95
3, 358080, Note_on_c, 2, 43, 95
3, 358560, Note_off_c, 2, 50, 95
3, 358560, Note_off_c, 2, 43, 95
3, 358560, Note_on_c, 2, 43, 95
3, 358800, Note_off_c, 2, 43, 95
3, 358800, Note_on_c, 2, 43, 95
3, 359040, Note_off_c, 2, 43, 95
3, 359040, Note_on_c, 2, 50, 95
3, 359040, Note_on_c, 2, 43, 95
3, 359520, Note_off_c, 2, 50, 95
3, 359520, Note_off_c, 2, 43, 95
3, 359520, Note_on_c, 2, 43, 95
3, 359760, Note_off_c, 2, 43, 95
3, 359760, Note_on_c, 2, 43, 95
3, 360000, Note_off_c, 2, 43, 95
3, 360000, Note_on_c, 2, 50, 95
3, 360000, Note_on_c, 2, 43, 95
3, 360480, Note_off_c, 2, 50, 95
3, 360480, Note_off_c, 2, 43, 95
3, 360480, Note_on_c, 2, 43, 95
3, 360720, Note_off_c, 2, 43, 95
3, 360720, Note_on_c, 2, 43, 95
3, 360960, Note_off_c, 2, 43, 95
3, 360960, Note_on_c, 2, 50, 95
3, 360960, Note_on_c, 2, 43, 95
3, 361440, Note_off_c, 2, 50, 95
3, 361440, Note_off_c, 2, 43, 95
3, 361440, Note_on_c, 2, 43, 95
3, 361680, Note_off_c, 2, 43, 95
3, 361680, Note_on_c, 2, 43, 95
3, 361920, Note_off_c, 2, 43, 95
3, 361920, Note_on_c, 2, 50, 95
3, 361920, Note_on_c, 2, 43, 95
3, 362400, Note_off_c, 2, 50, 95
3, 362400, Note_off_c, 2, 43, 95
3, 362400, Note_on_c, 2, 43, 95
3, 362640, Note_off_c, 2, 43, 95
3, 362640, Note_on_c, 2, 43, 95
3, 362880, Note_off_c, 2, 43, 95
3, 362880, Note_on_c, 2, 50, 95
3, 362880, Note_on_c, 2, 43, 95
3, 363360, Note_off_c, 2, 50, 95
3, 363360, Note_off_c, 2, 43, 95
3, 363360, Note_on_c, 2, 43, 95
3, 363600, Note_off_c, 2, 43, 95
3, 363600, Note_on_c, 2, 43, 95
3, 363840, Note_off_c, 2, 43, 95
3, 363840, Note_on_c, 2, 50, 95
3, 363840, Note_on_c, 2, 43, 95
3, 364320, Note_off_c, 2, 50, 95
3, 364320, Note_off_c, 2, 43, 95
3, 364320, Note_on_c, 2, 52, 95
3, 364320, Note_on_c, 2, 45, 95
3, 365280, Note_off_c, 2, 52, 95
3, 365280, Note_off_c, 2, 45, 95
3, 365280, Note_on_c, 2, 45, 95
3, 365520, Note_off_c, 2, 45, 95
3, 365520, Note_on_c, 2, 45, 95
3, 365760, Note_off_c, 2, 45, 95
3, 365760, Note_on_c, 2, 52, 95
3, 365760, Note_on_c, 2, 45, 95
3, 366240, Note_off_c, 2, 52, 95
3, 366240, Note_off_c, 2, 45, 95
3, 366240, Note_on_c, 2, 45, 95
3, 366480, Note_off_c, 2, 45, 95
3, 366480, Note_on_c, 2, 45, 95
3, 366720, Note_off_c, 2, 45, 95
3, 366720, Note_on_c, 2, 52, 95
3, 366720, Note_on_c, 2, 45, 95
3, 367200, Note_off_c, 2, 52, 95
3, 367200, Note_off_c, 2, 45, 95
3, 367200, Note_on_c, 2, 45, 95
3, 367440, Note_off_c, 2, 45, 95
3, 367440, Note_on_c, 2, 45, 95
3, 367680, Note_off_c, 2, 45, 95
3, 367680, Note_on_c, 2, 52, 95
3, 367680, Note_on_c, 2, 45, 95
3, 368160, Note_off_c, 2, 52, 95
3, 368160, Note_off_c, 2, 45, 95
3, 368160, Note_on_c, 2, 45, 95
3, 368400, Note_off_c, 2, 45, 95
3, 368400, Note_on_c, 2, 45, 95
3, 368640, Note_off_c, 2, 45, 95
3, 368640, Note_on_c, 2, 52, 95
3, 368640, Note_on_c, 2, 45, 95
3, 369120, Note_off_c, 2, 52, 95
3, 369120, Note_off_c, 2, 45, 95
3, 369120, Note_on_c, 2, 48, 95
3, 369600, Note_off_c, 2, 48, 95
3, 369600, Note_on_c, 2, 47, 95
3, 370080, Note_off_c, 2, 47, 95
3, 370080, Note_on_c, 2, 45, 95
3, 370560, Note_off_c, 2, 45, 95
3, 370560, Note_on_c, 2, 48, 95
3, 371040, Note_off_c, 2, 48, 95
3, 371040, Note_on_c, 2, 47, 95
3, 371520, Note_off_c, 2, 47, 95
3, 371520, Note_on_c, 2, 45, 95
3, 372000, Note_off_c, 2, 45, 95
3, 372000, Note_on_c, 2, 52, 95
3, 372000, Note_on_c, 2, 45, 95
3, 372960, Note_off_c, 2, 52, 95
3, 372960, Note_off_c, 2, 45, 95
3, 372960, Note_on_c, 2, 45, 95
3, 373200, Note_off_c, 2, 45, 95
3, 373200, Note_on_c, 2, 45, 95
3, 373440, Note_off_c, 2, 45, 95
3, 373440, Note_on_c, 2, 52, 95
3, 373440, Note_on_c, 2, 45, 95
3, 373920, Note_off_c, 2, 52, 95
3, 373920, Note_off_c, 2, 45, 95
3, 373920, Note_on_c, 2, 45, 95
3, 374160, Note_off_c, 2, 45, 95
3, 374160, Note_on_c, 2, 45, 95
3, 374400, Note_off_c, 2, 45, 95
3, 374400, Note_on_c, 2, 52, 95
3, 374400, Note_on_c, 2, 45, 95
3, 374880, Note_off_c, 2, 52, 95
3, 374880, Note_off_c, 2, 45, 95
3, 374880, Note_on_c, 2, 45, 95
3, 375120, Note_off_c, 2, 45, 95
3, 375120, Note_on_c, 2, 45, 95
3, 375360, Note_off_c, 2, 45, 95
3, 375360, Note_on_c, 2, 52, 95
3, 375360, Note_on_c, 2, 45, 95
3, 375840, Note_off_c, 2, 52, 95
3, 375840, Note_off_c, 2, 45, 95
3, 375840, Note_on_c, 2, 45, 95
3, 376080, Note_off_c, 2, 45, 95
3, 376080, Note_on_c, 2, 45, 95
3, 376320, Note_off_c, 2, 45, 95
3, 376320, Note_on_c, 2, 52, 95
3, 376320, Note_on_c, 2, 45, 95
3, 376800, Note_off_c, 2, 52, 95
3, 376800, Note_off_c, 2, 45, 95
3, 376800, Note_on_c, 2, 45, 95
3, 377040, Note_off_c, 2, 45, 95
3, 377040, Note_on_c, 2, 45, 95
3, 377280, Note_off_c, 2, 45, 95
3, 377280, Note_on_c, 2, 52, 95
3, 377280, Note_on_c, 2, 45, 95
3, 377760, Note_off_c, 2, 52, 95
3, 377760, Note_off_c, 2, 45, 95
3, 377760, Note_on_c, 2, 45, 95
3, 378000, Note_off_c, 2, 45, 95
3, 378000, Note_on_c, 2, 45, 95
3, 378240, Note_off_c, 2, 45, 95
3, 378240, Note_on_c, 2, 52, 95
3, 378240, Note_on_c, 2, 45, 95
3, 378720, Note_off_c, 2, 52, 95
3, 378720, Note_off_c, 2, 45, 95
3, 378720, Note_on_c, 2, 45, 95
3, 378960, Note_off_c, 2, 45, 95
3, 378960, Note_on_c, 2, 45, 95
3, 379200, Note_off_c, 2, 45, 95
3, 379200, Note_on_c, 2, 52, 95
3, 379200, Note_on_c, 2, 45, 95
3, 379680, Note_off_c, 2, 52, 95
3, 379680, Note_off_c, 2, 45, 95
3, 379680, Note_on_c, 2, 48, 95
3, 379680, Note_on_c, 2, 41, 95
3, 380640, Note_off_c, 2, 48, 95
3, 380640, Note_off_c, 2, 41, 95
3, 380640, Note_on_c, 2, 41, 95
3, 380880, Note_off_c, 2, 41, 95
3, 380880, Note_on_c, 2, 41, 95
3, 381120, Note_off_c, 2, 41, 95
3, 381120, Note_on_c, 2, 48, 95
3, 381120, Note_on_c, 2, 41, 95
3, 381600, Note_off_c, 2, 48, 95
3, 381600, Note_off_c, 2, 41, 95
3, 381600, Note_on_c, 2, 41, 95
3, 381840, Note_off_c, 2, 41, 95
3, 381840, Note_on_c, 2, 41, 95
3, 382080, Note_off_c, 2, 41, 95
3, 382080, Note_on_c, 2, 48, 95
3, 382080, Note_on_c, 2, 41, 95
3, 382560, Note_off_c, 2, 48, 95
3, 382560, Note_off_c, 2, 41, 95
3, 382560, Note_on_c, 2, 41, 95
3, 382800, Note_off_c, 2, 41, 95
3, 382800, Note_on_c, 2, 41, 95
3, 383040, Note_off_c, 2, 41, 95
3, 383040, Note_on_c, 2, 48, 95
3, 383040, Note_on_c, 2, 41, 95
3, 383520, Note_off_c, 2, 48, 95
3, 383520, Note_off_c, 2, 41, 95
3, 383520, Note_on_c, 2, 41, 95
3, 383760, Note_off_c, 2, 41, 95
3, 383760, Note_on_c, 2, 41, 95
3, 384000, Note_off_c, 2, 41, 95
3, 384000, Note_on_c, 2, 48, 95
3, 384000, Note_on_c, 2, 41, 95
3, 384480, Note_off_c, 2, 48, 95
3, 384480, Note_off_c, 2, 41, 95
3, 384480, Note_on_c, 2, 41, 95
3, 384720, Note_off_c, 2, 41, 95
3, 384720, Note_on_c, 2, 41, 95
3, 384960, Note_off_c, 2, 41, 95
3, 384960, Note_on_c, 2, 48, 95
3, 384960, Note_on_c, 2, 41, 95
3, 385440, Note_off_c, 2, 48, 95
3, 385440, Note_off_c, 2, 41, 95
3, 385440, Note_on_c, 2, 41, 95
3, 385680, Note_off_c, 2, 41, 95
3, 385680, Note_on_c, 2, 41, 95
3, 385920, Note_off_c, 2, 41, 95
3, 385920, Note_on_c, 2, 48, 95
3, 385920, Note_on_c, 2, 41, 95
3, 386400, Note_off_c, 2, 48, 95
3, 386400, Note_off_c, 2, 41, 95
3, 386400, Note_on_c, 2, 41, 95
3, 386640, Note_off_c, 2, 41, 95
3, 386640, Note_on_c, 2, 41, 95
3, 386880, Note_off_c, 2, 41, 95
3, 386880, Note_on_c, 2, 48, 95
3, 386880, Note_on_c, 2, 41, 95
3, 387360, Note_off_c, 2, 48, 95
3, 387360, Note_off_c, 2, 41, 95
3, 387360, Note_on_c, 2, 50, 95
3, 387360, Note_on_c, 2, 43, 95
3, 388320, Note_off_c, 2, 50, 95
3, 388320, Note_off_c, 2, 43, 95
3, 388320, Note_on_c, 2, 43, 95
3, 388560, Note_off_c, 2, 43, 95
3, 388560, Note_on_c, 2, 43, 95
3, 388800, Note_off_c, 2, 43, 95
3, 388800, Note_on_c, 2, 50, 95
3, 388800, Note_on_c, 2, 43, 95
3, 389280, Note_off_c, 2, 50, 95
3, 389280, Note_off_c, 2, 43, 95
3, 389280, Note_on_c, 2, 43, 95
3, 389520, Note_off_c, 2, 43, 95
3, 389520, Note_on_c, 2, 43, 95
3, 389760, Note_off_c, 2, 43, 95
3, 389760, Note_on_c, 2, 50, 95
3, 389760, Note_on_c, 2, 43, 95
3, 390240, Note_off_c, 2, 50, 95
3, 390240, Note_off_c, 2, 43, 95
3, 390240, Note_on_c, 2, 43, 95
3, 390480, Note_off_c, 2, 43, 95
3, 390480, Note_on_c, 2, 43, 95
3, 390720, Note_off_c, 2, 43, 95
3, 390720, Note_on_c, 2, 50, 95
3, 390720, Note_on_c, 2, 43, 95
3, 391200, Note_off_c, 2, 50, 95
3, 391200, Note_off_c, 2, 43, 95
3, 391200, Note_on_c, 2, 43, 95
3, 391440, Note_off_c, 2, 43, 95
3, 391440, Note_on_c, 2, 43, 95
3, 391680, Note_off_c, 2, 43, 95
3, 391680, Note_on_c, 2, 50, 95
3, 391680, Note_on_c, 2, 43, 95
3, 392160, Note_off_c, 2, 50, 95
3, 392160, Note_off_c, 2, 43, 95
3, 392160, Note_on_c, 2, 43, 95
3, 392400, Note_off_c, 2, 43, 95
3, 392400, Note_on_c, 2, 43, 95
3, 392640, Note_off_c, 2, 43, 95
3, 392640, Note_on_c, 2, 50, 95
3, 392640, Note_on_c, 2, 43, 95
3, 393120, Note_off_c, 2, 50, 95
3, 393120, Note_off_c, 2, 43, 95
3, 393120, Note_on_c, 2, 43, 95
3, 393360, Note_off_c, 2, 43, 95
3, 393360, Note_on_c, 2, 43, 95
3, 393600, Note_off_c, 2, 43, 95
3, 393600, Note_on_c, 2, 50, 95
3, 393600, Note_on_c, 2, 43, 95
3, 394080, Note_off_c, 2, 50, 95
3, 394080, Note_off_c, 2, 43, 95
3, 394080, Note_on_c, 2, 43, 95
3, 394320, Note_off_c, 2, 43, 95
3, 394320, Note_on_c, 2, 43, 95
3, 394560, Note_off_c, 2, 43, 95
3, 394560, Note_on_c, 2, 50, 95
3, 394560, Note_on_c, 2, 43, 95
3, 395040, Note_off_c, 2, 50, 95
3, 395040, Note_off_c, 2, 43, 95
3, 395040, Note_on_c, 2, 52, 95
3, 395040, Note_on_c, 2, 45, 95
3, 396000, Note_off_c, 2, 52, 95
3, 396000, Note_off_c, 2, 45, 95
3, 396000, Note_on_c, 2, 45, 95
3, 396240, Note_off_c, 2, 45, 95
3, 396240, Note_on_c, 2, 45, 95
3, 396480, Note_off_c, 2, 45, 95
3, 396480, Note_on_c, 2, 52, 95
3, 396480, Note_on_c, 2, 45, 95
3, 396960, Note_off_c, 2, 52, 95
3, 396960, Note_off_c, 2, 45, 95
3, 396960, Note_on_c, 2, 45, 95
3, 397200, Note_off_c, 2, 45, 95
3, 397200, Note_on_c, 2, 45, 95
3, 397440, Note_off_c, 2, 45, 95
3, 397440, Note_on_c, 2, 52, 95
3, 397440, Note_on_c, 2, 45, 95
3, 397920, Note_off_c, 2, 52, 95
3, 397920, Note_off_c, 2, 45, 95
3, 397920, Note_on_c, 2, 45, 95
3, 398160, Note_off_c, 2, 45, 95
3, 398160, Note_on_c, 2, 45, 95
3, 398400, Note_off_c, 2, 45, 95
3, 398400, Note_on_c, 2, 52, 95
3, 398400, Note_on_c, 2, 45, 95
3, 398880, Note_off_c, 2, 52, 95
3, 398880, Note_off_c, 2, 45, 95
3, 398880, Note_on_c, 2, 45, 95
3, 399120, Note_off_c, 2, 45, 95
3, 399120, Note_on_c, 2, 45, 95
3, 399360, Note_off_c, 2, 45, 95
3, 399360, Note_on_c, 2, 52, 95
3, 399360, Note_on_c, 2, 45, 95
3, 399840, Note_off_c, 2, 52, 95
3, 399840, Note_off_c, 2, 45, 95
3, 399840, Note_on_c, 2, 48, 95
3, 400320, Note_off_c, 2, 48, 95
3, 400320, Note_on_c, 2, 47, 95
3, 400800, Note_off_c, 2, 47, 95
3, 400800, Note_on_c, 2, 45, 95
3, 401280, Note_off_c, 2, 45, 95
3, 401280, Note_on_c, 2, 48, 95
3, 401760, Note_off_c, 2, 48, 95
3, 401760, Note_on_c, 2, 47, 95
3, 402240, Note_off_c, 2, 47, 95
3, 402240, Note_on_c, 2, 45, 95
3, 402720, Note_off_c, 2, 45, 95
3, 402720, Note_on_c, 2, 49, 95
3, 402720, Note_on_c, 2, 42, 95
3, 403680, Note_off_c, 2, 49, 95
3, 403680, Note_off_c, 2, 42, 95
3, 403680, Note_on_c, 2, 42, 95
3, 404160, Note_off_c, 2, 42, 95
3, 404160, Note_on_c, 2, 49, 95
3, 404160, Note_on_c, 2, 42, 95
3, 404640, Note_off_c, 2, 49, 95
3, 404640, Note_off_c, 2, 42, 95
3, 404640, Note_on_c, 2, 42, 95
3, 405120, Note_off_c, 2, 42, 95
3, 405120, Note_on_c, 2, 42, 95
3, 405600, Note_off_c, 2, 42, 95
3, 405600, Note_on_c, 2, 42, 95
3, 406080, Note_off_c, 2, 42, 95
3, 406080, Note_on_c, 2, 49, 95
3, 406080, Note_on_c, 2, 42, 95
3, 406560, Note_off_c, 2, 49, 95
3, 406560, Note_off_c, 2, 42, 95
3, 406560, Note_on_c, 2, 42, 95
3, 407040, Note_off_c, 2, 42, 95
3, 407040, Note_on_c, 2, 42, 95
3, 407520, Note_off_c, 2, 42, 95
3, 407520, Note_on_c, 2, 42, 95
3, 408000, Note_off_c, 2, 42, 95
3, 408000, Note_on_c, 2, 49, 95
3, 408000, Note_on_c, 2, 42, 95
3, 408480, Note_off_c, 2, 49, 95
3, 408480, Note_off_c, 2, 42, 95
3, 408480, Note_on_c, 2, 42, 95
3, 408960, Note_off_c, 2, 42, 95
3, 408960, Note_on_c, 2, 42, 95
3, 409440, Note_off_c, 2, 42, 95
3, 409440, Note_on_c, 2, 42, 95
3, 409920, Note_off_c, 2, 42, 95
3, 409920, Note_on_c, 2, 49, 95
3, 409920, Note_on_c, 2, 42, 95
3, 410400, Note_off_c, 2, 49, 95
3, 410400, Note_off_c, 2, 42, 95
3, 410400, Note_on_c, 2, 57, 95
3, 410400, Note_on_c, 2, 50, 95
3, 411360, Note_off_c, 2, 57, 95
3, 411360, Note_off_c, 2, 50, 95
3, 411360, Note_on_c, 2, 50, 95
3, 411840, Note_off_c, 2, 50, 95
3, 411840, Note_on_c, 2, 57, 95
3, 411840, Note_on_c, 2, 50, 95
3, 412320, Note_off_c, 2, 57, 95
3, 412320, Note_off_c, 2, 50, 95
3, 412320, Note_on_c, 2, 50, 95
3, 412800, Note_off_c, 2, 50, 95
3, 412800, Note_on_c, 2, 50, 95
3, 413280, Note_off_c, 2, 50, 95
3, 413280, Note_on_c, 2, 50, 95
3, 413760, Note_off_c, 2, 50, 95
3, 413760, Note_on_c, 2, 57, 95
3, 413760, Note_on_c, 2, 50, 95
3, 414240, Note_off_c, 2, 57, 95
3, 414240, Note_off_c, 2, 50, 95
3, 414240, Note_on_c, 2, 50, 95
3, 414720, Note_off_c, 2, 50, 95
3, 414720, Note_on_c, 2, 50, 95
3, 415200, Note_off_c, 2, 50, 95
3, 415200, Note_on_c, 2, 50, 95
3, 415680, Note_off_c, 2, 50, 95
3, 415680, Note_on_c, 2, 57, 95
3, 415680, Note_on_c, 2, 50, 95
3, 416160, Note_off_c, 2, 57, 95
3, 416160, Note_off_c, 2, 50, 95
3, 416160, Note_on_c, 2, 50, 95
3, 416640, Note_off_c, 2, 50, 95
3, 416640, Note_on_c, 2, 50, 95
3, 417120, Note_off_c, 2, 50, 95
3, 417120, Note_on_c, 2, 50, 95
3, 417600, Note_off_c, 2, 50, 95
3, 417600, Note_on_c, 2, 57, 95
3, 417600, Note_on_c, 2, 50, 95
3, 418080, Note_off_c, 2, 57, 95
3, 418080, Note_off_c, 2, 50, 95
3, 418080, Note_on_c, 2, 49, 95
3, 418080, Note_on_c, 2, 42, 95
3, 419040, Note_off_c, 2, 49, 95
3, 419040, Note_off_c, 2, 42, 95
3, 419040, Note_on_c, 2, 42, 95
3, 419520, Note_off_c, 2, 42, 95
3, 419520, Note_on_c, 2, 49, 95
3, 419520, Note_on_c, 2, 42, 95
3, 420000, Note_off_c, 2, 49, 95
3, 420000, Note_off_c, 2, 42, 95
3, 420000, Note_on_c, 2, 42, 95
3, 420480, Note_off_c, 2, 42, 95
3, 420480, Note_on_c, 2, 42, 95
3, 420960, Note_off_c, 2, 42, 95
3, 420960, Note_on_c, 2, 42, 95
3, 421440, Note_off_c, 2, 42, 95
3, 421440, Note_on_c, 2, 49, 95
3, 421440, Note_on_c, 2, 42, 95
3, 421920, Note_off_c, 2, 49, 95
3, 421920, Note_off_c, 2, 42, 95
3, 421920, Note_on_c, 2, 42, 95
3, 422400, Note_off_c, 2, 42, 95
3, 422400, Note_on_c, 2, 42, 95
3, 422880, Note_off_c, 2, 42, 95
3, 422880, Note_on_c, 2, 42, 95
3, 423360, Note_off_c, 2, 42, 95
3, 423360, Note_on_c, 2, 49, 95
3, 423360, Note_on_c, 2, 42, 95
3, 423840, Note_off_c, 2, 49, 95
3, 423840, Note_off_c, 2, 42, 95
3, 423840, Note_on_c, 2, 42, 95
3, 424320, Note_off_c, 2, 42, 95
3, 424320, Note_on_c, 2, 42, 95
3, 424800, Note_off_c, 2, 42, 95
3, 424800, Note_on_c, 2, 42, 95
3, 425280, Note_off_c, 2, 42, 95
3, 425280, Note_on_c, 2, 49, 95
3, 425280, Note_on_c, 2, 42, 95
3, 425760, Note_off_c, 2, 49, 95
3, 425760, Note_off_c, 2, 42, 95
3, 425760, Note_on_c, 2, 57, 95
3, 425760, Note_on_c, 2, 50, 95
3, 426720, Note_off_c, 2, 57, 95
3, 426720, Note_off_c, 2, 50, 95
3, 426720, Note_on_c, 2, 50, 95
3, 427200, Note_off_c, 2, 50, 95
3, 427200, Note_on_c, 2, 57, 95
3, 427200, Note_on_c, 2, 50, 95
3, 427680, Note_off_c, 2, 57, 95
3, 427680, Note_off_c, 2, 50, 95
3, 427680, Note_on_c, 2, 50, 95
3, 428160, Note_off_c, 2, 50, 95
3, 428160, Note_on_c, 2, 50, 95
3, 428640, Note_off_c, 2, 50, 95
3, 428640, Note_on_c, 2, 50, 95
3, 429120, Note_off_c, 2, 50, 95
3, 429120, Note_on_c, 2, 57, 95
3, 429120, Note_on_c, 2, 50, 95
3, 429600, Note_off_c, 2, 57, 95
3, 429600, Note_off_c, 2, 50, 95
3, 429600, Note_on_c, 2, 50, 95
3, 430080, Note_off_c, 2, 50, 95
3, 430080, Note_on_c, 2, 50, 95
3, 430560, Note_off_c, 2, 50, 95
3, 430560, Note_on_c, 2, 50, 95
3, 431040, Note_off_c, 2, 50, 95
3, 431040, Note_on_c, 2, 57, 95
3, 431040, Note_on_c, 2, 50, 95
3, 431520, Note_off_c, 2, 57, 95
3, 431520, Note_off_c, 2, 50, 95
3, 431520, Note_on_c, 2, 50, 95
3, 432000, Note_off_c, 2, 50, 95
3, 432000, Note_on_c, 2, 50, 95
3, 432480, Note_off_c, 2, 50, 95
3, 432480, Note_on_c, 2, 50, 95
3, 432960, Note_off_c, 2, 50, 95
3, 432960, Note_on_c, 2, 57, 95
3, 432960, Note_on_c, 2, 50, 95
3, 433440, Note_off_c, 2, 57, 95
3, 433440, Note_off_c, 2, 50, 95
3, 433440, Note_on_c, 2, 59, 95
3, 433440, Note_on_c, 2, 52, 95
3, 434400, Note_off_c, 2, 59, 95
3, 434400, Note_off_c, 2, 52, 95
3, 434400, Note_on_c, 2, 52, 95
3, 434880, Note_off_c, 2, 52, 95
3, 434880, Note_on_c, 2, 59, 95
3, 434880, Note_on_c, 2, 52, 95
3, 435360, Note_off_c, 2, 59, 95
3, 435360, Note_off_c, 2, 52, 95
3, 435360, Note_on_c, 2, 52, 95
3, 435840, Note_off_c, 2, 52, 95
3, 435840, Note_on_c, 2, 52, 95
3, 436320, Note_off_c, 2, 52, 95
3, 436320, Note_on_c, 2, 52, 95
3, 436800, Note_off_c, 2, 52, 95
3, 436800, Note_on_c, 2, 59, 95
3, 436800, Note_on_c, 2, 52, 95
3, 437280, Note_off_c, 2, 59, 95
3, 437280, Note_off_c, 2, 52, 95
3, 437280, Note_on_c, 2, 52, 95
3, 437760, Note_off_c, 2, 52, 95
3, 437760, Note_on_c, 2, 52, 95
3, 438240, Note_off_c, 2, 52, 95
3, 438240, Note_on_c, 2, 52, 95
3, 438720, Note_off_c, 2, 52, 95
3, 438720, Note_on_c, 2, 59, 95
3, 438720, Note_on_c, 2, 52, 95
3, 439200, Note_off_c, 2, 59, 95
3, 439200, Note_off_c, 2, 52, 95
3, 439200, Note_on_c, 2, 52, 95
3, 439680, Note_off_c, 2, 52, 95
3, 439680, Note_on_c, 2, 52, 95
3, 440160, Note_off_c, 2, 52, 95
3, 440160, Note_on_c, 2, 52, 95
3, 440640, Note_off_c, 2, 52, 95
3, 440640, Note_on_c, 2, 59, 95
3, 440640, Note_on_c, 2, 52, 95
3, 441120, Note_off_c, 2, 59, 95
3, 441120, Note_off_c, 2, 52, 95
3, 441120, Note_on_c, 2, 55, 95
3, 441120, Note_on_c, 2, 48, 95
3, 442080, Note_off_c, 2, 55, 95
3, 442080, Note_off_c, 2, 48, 95
3, 442080, Note_on_c, 2, 48, 95
3, 442560, Note_off_c, 2, 48, 95
3, 442560, Note_on_c, 2, 55, 95
3, 442560, Note_on_c, 2, 48, 95
3, 443040, Note_off_c, 2, 55, 95
3, 443040, Note_off_c, 2, 48, 95
3, 443040, Note_on_c, 2, 48, 95
3, 443520, Note_off_c, 2, 48, 95
3, 443520, Note_on_c, 2, 48, 95
3, 444000, Note_off_c, 2, 48, 95
3, 444000, Note_on_c, 2, 48, 95
3, 444480, Note_off_c, 2, 48, 95
3, 444480, Note_on_c, 2, 55, 95
3, 444480, Note_on_c, 2, 48, 95
3, 444960, Note_off_c, 2, 55, 95
3, 444960, Note_off_c, 2, 48, 95
3, 444960, Note_on_c, 2, 48, 95
3, 445440, Note_off_c, 2, 48, 95
3, 445440, Note_on_c, 2, 48, 95
3, 445920, Note_off_c, 2, 48, 95
3, 445920, Note_on_c, 2, 48, 95
3, 446400, Note_off_c, 2, 48, 95
3, 446400, Note_on_c, 2, 55, 95
3, 446400, Note_on_c, 2, 48, 95
3, 446880, Note_off_c, 2, 55, 95
3, 446880, Note_off_c, 2, 48, 95
3, 446880, Note_on_c, 2, 48, 95
3, 447360, Note_off_c, 2, 48, 95
3, 447360, Note_on_c, 2, 48, 95
3, 447840, Note_off_c, 2, 48, 95
3, 447840, Note_on_c, 2, 48, 95
3, 448320, Note_off_c, 2, 48, 95
3, 448320, Note_on_c, 2, 55, 95
3, 448320, Note_on_c, 2, 48, 95
3, 448800, Note_off_c, 2, 55, 95
3, 448800, Note_off_c, 2, 48, 95
3, 448800, Note_on_c, 2, 47, 95
3, 448800, Note_on_c, 2, 40, 95
3, 449280, Note_off_c, 2, 47, 95
3, 449280, Note_off_c, 2, 40, 95
3, 449280, Note_on_c, 2, 40, 95
3, 449760, Note_off_c, 2, 40, 95
3, 449760, Note_on_c, 2, 40, 95
3, 450240, Note_off_c, 2, 40, 95
3, 450240, Note_on_c, 2, 47, 95
3, 450240, Note_on_c, 2, 40, 95
3, 450720, Note_off_c, 2, 47, 95
3, 450720, Note_off_c, 2, 40, 95
3, 450720, Note_on_c, 2, 40, 95
3, 451200, Note_off_c, 2, 40, 95
3, 451200, Note_on_c, 2, 42, 95
3, 451680, Note_off_c, 2, 42, 95
3, 451680, Note_on_c, 2, 42, 95
3, 452160, Note_off_c, 2, 42, 95
3, 452160, Note_on_c, 2, 49, 95
3, 452160, Note_on_c, 2, 42, 95
3, 452640, Note_off_c, 2, 49, 95
3, 452640, Note_off_c, 2, 42, 95
3, 452640, Note_on_c, 2, 42, 95
3, 453120, Note_off_c, 2, 42, 95
3, 453120, Note_on_c, 2, 43, 95
3, 453600, Note_off_c, 2, 43, 95
3, 453600, Note_on_c, 2, 43, 95
3, 454080, Note_off_c, 2, 43, 95
3, 454080, Note_on_c, 2, 50, 95
3, 454080, Note_on_c, 2, 43, 95
3, 454560, Note_off_c, 2, 50, 95
3, 454560, Note_off_c, 2, 43, 95
3, 454560, Note_on_c, 2, 43, 95
3, 455040, Note_off_c, 2, 43, 95
3, 455040, Note_on_c, 2, 45, 95
3, 455520, Note_off_c, 2, 45, 95
3, 455520, Note_on_c, 2, 45, 95
3, 456000, Note_off_c, 2, 45, 95
3, 456000, Note_on_c, 2, 52, 95
3, 456000, Note_on_c, 2, 45, 95
3, 456480, Note_off_c, 2, 52, 95
3, 456480, Note_off_c, 2, 45, 95
3, 456480, Note_on_c, 2, 45, 95
3, 456960, Note_off_c, 2, 45, 95
3, 456960, Note_on_c, 2, 47, 95
3, 457440, Note_off_c, 2, 47, 95
3, 457440, Note_on_c, 2, 47, 95
3, 457920, Note_off_c, 2, 47, 95
3, 457920, Note_on_c, 2, 54, 95
3, 457920, Note_on_c, 2, 47, 95
3, 458400, Note_off_c, 2, 54, 95
3, 458400, Note_off_c, 2, 47, 95
3, 458400, Note_on_c, 2, 47, 95
3, 458880, Note_off_c, 2, 47, 95
3, 458880, Note_on_c, 2, 47, 95
3, 459360, Note_off_c, 2, 47, 95
3, 459360, Note_on_c, 2, 47, 95
3, 459840, Note_off_c, 2, 47, 95
3, 459840, Note_on_c, 2, 54, 95
3, 459840, Note_on_c, 2, 47, 95
3, 460320, Note_off_c, 2, 54, 95
3, 460320, Note_off_c, 2, 47, 95
3, 460320, Note_on_c, 2, 47, 95
3, 460800, Note_off_c, 2, 47, 95
3, 460800, Note_on_c, 2, 47, 95
3, 461280, Note_off_c, 2, 47, 95
3, 461280, Note_on_c, 2, 47, 95
3, 461760, Note_off_c, 2, 47, 95
3, 461760, Note_on_c, 2, 54, 95
3, 461760, Note_on_c, 2, 47, 95
3, 462240, Note_off_c, 2, 54, 95
3, 462240, Note_off_c, 2, 47, 95
3, 462240, Note_on_c, 2, 47, 95
3, 462720, Note_off_c, 2, 47, 95
3, 462720, Note_on_c, 2, 47, 95
3, 463200, Note_off_c, 2, 47, 95
3, 463200, Note_on_c, 2, 47, 95
3, 463680, Note_off_c, 2, 47, 95
3, 463680, Note_on_c, 2, 54, 95
3, 463680, Note_on_c, 2, 47, 95
3, 464160, Note_off_c, 2, 54, 95
3, 464160, Note_off_c, 2, 47, 95
3, 464160, Note_on_c, 2, 53, 95
3, 464160, Note_on_c, 2, 46, 95
3, 465120, Note_off_c, 2, 53, 95
3, 465120, Note_off_c, 2, 46, 95
3, 465120, Note_on_c, 2, 46, 95
3, 465360, Note_off_c, 2, 46, 95
3, 465360, Note_on_c, 2, 46, 95
3, 465600, Note_off_c, 2, 46, 95
3, 465600, Note_on_c, 2, 46, 95
3, 465840, Note_off_c, 2, 46, 95
3, 465840, Note_on_c, 2, 46, 95
3, 466080, Note_off_c, 2, 46, 95
3, 466080, Note_on_c, 2, 46, 95
3, 466320, Note_off_c, 2, 46, 95
3, 466320, Note_on_c, 2, 46, 95
3, 466560, Note_off_c, 2, 46, 95
3, 466560, Note_on_c, 2, 46, 95
3, 466800, Note_off_c, 2, 46, 95
3, 466800, Note_on_c, 2, 46, 95
3, 467040, Note_off_c, 2, 46, 95
3, 467040, Note_on_c, 2, 46, 95
3, 467280, Note_off_c, 2, 46, 95
3, 467280, Note_on_c, 2, 46, 95
3, 467520, Note_off_c, 2, 46, 95
3, 467520, Note_on_c, 2, 46, 95
3, 467760, Note_off_c, 2, 46, 95
3, 467760, Note_on_c, 2, 46, 95
3, 468000, Note_off_c, 2, 46, 95
3, 468000, Note_on_c, 2, 46, 95
3, 468240, Note_off_c, 2, 46, 95
3, 468240, Note_on_c, 2, 46, 95
3, 468480, Note_off_c, 2, 46, 95
3, 468480, Note_on_c, 2, 46, 95
3, 468720, Note_off_c, 2, 46, 95
3, 468720, Note_on_c, 2, 46, 95
3, 468960, Note_off_c, 2, 46, 95
3, 468960, Note_on_c, 2, 46, 95
3, 469200, Note_off_c, 2, 46, 95
3, 469200, Note_on_c, 2, 46, 95
3, 469440, Note_off_c, 2, 46, 95
3, 469440, Note_on_c, 2, 46, 95
3, 469680, Note_off_c, 2, 46, 95
3, 469680, Note_on_c, 2, 46, 95
3, 469920, Note_off_c, 2, 46, 95
3, 469920, Note_on_c, 2, 46, 95
3, 470160, Note_off_c, 2, 46, 95
3, 470160, Note_on_c, 2, 46, 95
3, 470400, Note_off_c, 2, 46, 95
3, 470400, Note_on_c, 2, 53, 95
3, 470400, Note_on_c, 2, 46, 95
3, 470880, Note_off_c, 2, 53, 95
3, 470880, Note_off_c, 2, 46, 95
3, 470880, Note_on_c, 2, 52, 95
3, 470880, Note_on_c, 2, 45, 95
3, 471360, Note_off_c, 2, 52, 95
3, 471360, Note_off_c, 2, 45, 95
3, 471360, Note_on_c, 2, 50, 95
3, 471360, Note_on_c, 2, 43, 95
3, 471840, Note_off_c, 2, 50, 95
3, 471840, Note_off_c, 2, 43, 95
3, 471840, Note_on_c, 2, 47, 95
3, 471840, Note_on_c, 2, 40, 95
3, 472800, Note_off_c, 2, 47, 95
3, 472800, Note_off_c, 2, 40, 95
3, 472800, Note_on_c, 2, 40, 95
3, 473040, Note_off_c, 2, 40, 95
3, 473040, Note_on_c, 2, 40, 95
3, 473280, Note_off_c, 2, 40, 95
3, 473280, Note_on_c, 2, 40, 95
3, 473520, Note_off_c, 2, 40, 95
3, 473520, Note_on_c, 2, 40, 95
3, 473760, Note_off_c, 2, 40, 95
3, 473760, Note_on_c, 2, 40, 95
3, 474000, Note_off_c, 2, 40, 95
3, 474000, Note_on_c, 2, 40, 95
3, 474240, Note_off_c, 2, 40, 95
3, 474240, Note_on_c, 2, 40, 95
3, 474480, Note_off_c, 2, 40, 95
3, 474480, Note_on_c, 2, 40, 95
3, 474720, Note_off_c, 2, 40, 95
3, 474720, Note_on_c, 2, 40, 95
3, 474960, Note_off_c, 2, 40, 95
3, 474960, Note_on_c, 2, 40, 95
3, 475200, Note_off_c, 2, 40, 95
3, 475200, Note_on_c, 2, 40, 95
3, 475440, Note_off_c, 2, 40, 95
3, 475440, Note_on_c, 2, 40, 95
3, 475680, Note_off_c, 2, 40, 95
3, 475680, Note_on_c, 2, 40, 95
3, 475920, Note_off_c, 2, 40, 95
3, 475920, Note_on_c, 2, 40, 95
3, 476160, Note_off_c, 2, 40, 95
3, 476160, Note_on_c, 2, 40, 95
3, 476400, Note_off_c, 2, 40, 95
3, 476400, Note_on_c, 2, 40, 95
3, 476640, Note_off_c, 2, 40, 95
3, 476640, Note_on_c, 2, 40, 95
3, 476880, Note_off_c, 2, 40, 95
3, 476880, Note_on_c, 2, 40, 95
3, 477120, Note_off_c, 2, 40, 95
3, 477120, Note_on_c, 2, 40, 95
3, 477360, Note_off_c, 2, 40, 95
3, 477360, Note_on_c, 2, 40, 95
3, 477600, Note_off_c, 2, 40, 95
3, 477600, Note_on_c, 2, 40, 95
3, 477840, Note_off_c, 2, 40, 95
3, 477840, Note_on_c, 2, 40, 95
3, 478080, Note_off_c, 2, 40, 95
3, 478080, Note_on_c, 2, 47, 95
3, 478080, Note_on_c, 2, 40, 95
3, 478560, Note_off_c, 2, 47, 95
3, 478560, Note_off_c, 2, 40, 95
3, 478560, Note_on_c, 2, 50, 95
3, 478560, Note_on_c, 2, 43, 95
3, 479040, Note_off_c, 2, 50, 95
3, 479040, Note_off_c, 2, 43, 95
3, 479040, Note_on_c, 2, 52, 95
3, 479040, Note_on_c, 2, 45, 95
3, 479520, Note_off_c, 2, 52, 95
3, 479520, Note_off_c, 2, 45, 95
3, 479520, Note_on_c, 2, 53, 95
3, 479520, Note_on_c, 2, 46, 95
3, 480480, Note_off_c, 2, 53, 95
3, 480480, Note_off_c, 2, 46, 95
3, 480480, Note_on_c, 2, 46, 95
3, 480720, Note_off_c, 2, 46, 95
3, 480720, Note_on_c, 2, 46, 95
3, 480960, Note_off_c, 2, 46, 95
3, 480960, Note_on_c, 2, 46, 95
3, 481200, Note_off_c, 2, 46, 95
3, 481200, Note_on_c, 2, 46, 95
3, 481440, Note_off_c, 2, 46, 95
3, 481440, Note_on_c, 2, 46, 95
3, 481680, Note_off_c, 2, 46, 95
3, 481680, Note_on_c, 2, 46, 95
3, 481920, Note_off_c, 2, 46, 95
3, 481920, Note_on_c, 2, 46, 95
3, 482160, Note_off_c, 2, 46, 95
3, 482160, Note_on_c, 2, 46, 95
3, 482400, Note_off_c, 2, 46, 95
3, 482400, Note_on_c, 2, 46, 95
3, 482640, Note_off_c, 2, 46, 95
3, 482640, Note_on_c, 2, 46, 95
3, 482880, Note_off_c, 2, 46, 95
3, 482880, Note_on_c, 2, 46, 95
3, 483120, Note_off_c, 2, 46, 95
3, 483120, Note_on_c, 2, 46, 95
3, 483360, Note_off_c, 2, 46, 95
3, 483360, Note_on_c, 2, 46, 95
3, 483600, Note_off_c, 2, 46, 95
3, 483600, Note_on_c, 2, 46, 95
3, 483840, Note_off_c, 2, 46, 95
3, 483840, Note_on_c, 2, 46, 95
3, 484080, Note_off_c, 2, 46, 95
3, 484080, Note_on_c, 2, 46, 95
3, 484320, Note_off_c, 2, 46, 95
3, 484320, Note_on_c, 2, 46, 95
3, 484560, Note_off_c, 2, 46, 95
3, 484560, Note_on_c, 2, 46, 95
3, 484800, Note_off_c, 2, 46, 95
3, 484800, Note_on_c, 2, 46, 95
3, 485040, Note_off_c, 2, 46, 95
3, 485040, Note_on_c, 2, 46, 95
3, 485280, Note_off_c, 2, 46, 95
3, 485280, Note_on_c, 2, 46, 95
3, 485520, Note_off_c, 2, 46, 95
3, 485520, Note_on_c, 2, 46, 95
3, 485760, Note_off_c, 2, 46, 95
3, 485760, Note_on_c, 2, 53, 95
3, 485760, Note_on_c, 2, 46, 95
3, 486240, Note_off_c, 2, 53, 95
3, 486240, Note_off_c, 2, 46, 95
3, 486240, Note_on_c, 2, 52, 95
3, 486240, Note_on_c, 2, 45, 95
3, 486720, Note_off_c, 2, 52, 95
3, 486720, Note_off_c, 2, 45, 95
3, 486720, Note_on_c, 2, 50, 95
3, 486720, Note_on_c, 2, 43, 95
3, 487200, Note_off_c, 2, 50, 95
3, 487200, Note_off_c, 2, 43, 95
3, 487200, Note_on_c, 2, 47, 95
3, 487200, Note_on_c, 2, 40, 95
3, 488160, Note_off_c, 2, 47, 95
3, 488160, Note_off_c, 2, 40, 95
3, 488160, Note_on_c, 2, 40, 95
3, 488400, Note_off_c, 2, 40, 95
3, 488400, Note_on_c, 2, 40, 95
3, 488640, Note_off_c, 2, 40, 95
3, 488640, Note_on_c, 2, 40, 95
3, 488880, Note_off_c, 2, 40, 95
3, 488880, Note_on_c, 2, 40, 95
3, 489120, Note_off_c, 2, 40, 95
3, 489120, Note_on_c, 2, 40, 95
3, 489360, Note_off_c, 2, 40, 95
3, 489360, Note_on_c, 2, 40, 95
3, 489600, Note_off_c, 2, 40, 95
3, 489600, Note_on_c, 2, 40, 95
3, 489840, Note_off_c, 2, 40, 95
3, 489840, Note_on_c, 2, 40, 95
3, 490080, Note_off_c, 2, 40, 95
3, 490080, Note_on_c, 2, 40, 95
3, 490320, Note_off_c, 2, 40, 95
3, 490320, Note_on_c, 2, 40, 95
3, 490560, Note_off_c, 2, 40, 95
3, 490560, Note_on_c, 2, 40, 95
3, 490800, Note_off_c, 2, 40, 95
3, 490800, Note_on_c, 2, 40, 95
3, 491040, Note_off_c, 2, 40, 95
3, 491040, Note_on_c, 2, 40, 95
3, 491280, Note_off_c, 2, 40, 95
3, 491280, Note_on_c, 2, 40, 95
3, 491520, Note_off_c, 2, 40, 95
3, 491520, Note_on_c, 2, 47, 95
3, 491520, Note_on_c, 2, 40, 95
3, 492000, Note_off_c, 2, 47, 95
3, 492000, Note_off_c, 2, 40, 95
3, 494880, Note_on_c, 2, 52, 95
3, 494880, Note_on_c, 2, 45, 95
3, 495840, Note_off_c, 2, 52, 95
3, 495840, Note_off_c, 2, 45, 95
3, 495840, Note_on_c, 2, 45, 95
3, 496080, Note_off_c, 2, 45, 95
3, 496080, Note_on_c, 2, 45, 95
3, 496320, Note_off_c, 2, 45, 95
3, 496320, Note_on_c, 2, 52, 95
3, 496320, Note_on_c, 2, 45, 95
3, 496800, Note_off_c, 2, 52, 95
3, 496800, Note_off_c, 2, 45, 95
3, 496800, Note_on_c, 2, 45, 95
3, 497040, Note_off_c, 2, 45, 95
3, 497040, Note_on_c, 2, 45, 95
3, 497280, Note_off_c, 2, 45, 95
3, 497280, Note_on_c, 2, 52, 95
3, 497280, Note_on_c, 2, 45, 95
3, 497760, Note_off_c, 2, 52, 95
3, 497760, Note_off_c, 2, 45, 95
3, 497760, Note_on_c, 2, 45, 95
3, 498000, Note_off_c, 2, 45, 95
3, 498000, Note_on_c, 2, 45, 95
3, 498240, Note_off_c, 2, 45, 95
3, 498240, Note_on_c, 2, 52, 95
3, 498240, Note_on_c, 2, 45, 95
3, 498720, Note_off_c, 2, 52, 95
3, 498720, Note_off_c, 2, 45, 95
3, 498720, Note_on_c, 2, 45, 95
3, 498960, Note_off_c, 2, 45, 95
3, 498960, Note_on_c, 2, 45, 95
3, 499200, Note_off_c, 2, 45, 95
3, 499200, Note_on_c, 2, 52, 95
3, 499200, Note_on_c, 2, 45, 95
3, 499680, Note_off_c, 2, 52, 95
3, 499680, Note_off_c, 2, 45, 95
3, 499680, Note_on_c, 2, 45, 95
3, 499920, Note_off_c, 2, 45, 95
3, 499920, Note_on_c, 2, 45, 95
3, 500160, Note_off_c, 2, 45, 95
3, 500160, Note_on_c, 2, 52, 95
3, 500160, Note_on_c, 2, 45, 95
3, 500640, Note_off_c, 2, 52, 95
3, 500640, Note_off_c, 2, 45, 95
3, 500640, Note_on_c, 2, 45, 95
3, 500880, Note_off_c, 2, 45, 95
3, 500880, Note_on_c, 2, 45, 95
3, 501120, Note_off_c, 2, 45, 95
3, 501120, Note_on_c, 2, 52, 95
3, 501120, Note_on_c, 2, 45, 95
3, 501600, Note_off_c, 2, 52, 95
3, 501600, Note_off_c, 2, 45, 95
3, 501600, Note_on_c, 2, 45, 95
3, 501840, Note_off_c, 2, 45, 95
3, 501840, Note_on_c, 2, 45, 95
3, 502080, Note_off_c, 2, 45, 95
3, 502080, Note_on_c, 2, 52, 95
3, 502080, Note_on_c, 2, 45, 95
3, 502560, Note_off_c, 2, 52, 95
3, 502560, Note_off_c, 2, 45, 95
3, 502560, Note_on_c, 2, 48, 95
3, 502560, Note_on_c, 2, 41, 95
3, 503520, Note_off_c, 2, 48, 95
3, 503520, Note_off_c, 2, 41, 95
3, 503520, Note_on_c, 2, 41, 95
3, 503760, Note_off_c, 2, 41, 95
3, 503760, Note_on_c, 2, 41, 95
3, 504000, Note_off_c, 2, 41, 95
3, 504000, Note_on_c, 2, 48, 95
3, 504000, Note_on_c, 2, 41, 95
3, 504480, Note_off_c, 2, 48, 95
3, 504480, Note_off_c, 2, 41, 95
3, 504480, Note_on_c, 2, 41, 95
3, 504720, Note_off_c, 2, 41, 95
3, 504720, Note_on_c, 2, 41, 95
3, 504960, Note_off_c, 2, 41, 95
3, 504960, Note_on_c, 2, 48, 95
3, 504960, Note_on_c, 2, 41, 95
3, 505440, Note_off_c, 2, 48, 95
3, 505440, Note_off_c, 2, 41, 95
3, 505440, Note_on_c, 2, 41, 95
3, 505680, Note_off_c, 2, 41, 95
3, 505680, Note_on_c, 2, 41, 95
3, 505920, Note_off_c, 2, 41, 95
3, 505920, Note_on_c, 2, 48, 95
3, 505920, Note_on_c, 2, 41, 95
3, 506400, Note_off_c, 2, 48, 95
3, 506400, Note_off_c, 2, 41, 95
3, 506400, Note_on_c, 2, 41, 95
3, 506640, Note_off_c, 2, 41, 95
3, 506640, Note_on_c, 2, 41, 95
3, 506880, Note_off_c, 2, 41, 95
3, 506880, Note_on_c, 2, 48, 95
3, 506880, Note_on_c, 2, 41, 95
3, 507360, Note_off_c, 2, 48, 95
3, 507360, Note_off_c, 2, 41, 95
3, 507360, Note_on_c, 2, 41, 95
3, 507600, Note_off_c, 2, 41, 95
3, 507600, Note_on_c, 2, 41, 95
3, 507840, Note_off_c, 2, 41, 95
3, 507840, Note_on_c, 2, 48, 95
3, 507840, Note_on_c, 2, 41, 95
3, 508320, Note_off_c, 2, 48, 95
3, 508320, Note_off_c, 2, 41, 95
3, 508320, Note_on_c, 2, 41, 95
3, 508560, Note_off_c, 2, 41, 95
3, 508560, Note_on_c, 2, 41, 95
3, 508800, Note_off_c, 2, 41, 95
3, 508800, Note_on_c, 2, 48, 95
3, 508800, Note_on_c, 2, 41, 95
3, 509280, Note_off_c, 2, 48, 95
3, 509280, Note_off_c, 2, 41, 95
3, 509280, Note_on_c, 2, 41, 95
3, 509520, Note_off_c, 2, 41, 95
3, 509520, Note_on_c, 2, 41, 95
3, 509760, Note_off_c, 2, 41, 95
3, 509760, Note_on_c, 2, 48, 95
3, 509760, Note_on_c, 2, 41, 95
3, 510240, Note_off_c, 2, 48, 95
3, 510240, Note_off_c, 2, 41, 95
3, 510240, Note_on_c, 2, 50, 95
3, 510240, Note_on_c, 2, 43, 95
3, 511200, Note_off_c, 2, 50, 95
3, 511200, Note_off_c, 2, 43, 95
3, 511200, Note_on_c, 2, 43, 95
3, 511440, Note_off_c, 2, 43, 95
3, 511440, Note_on_c, 2, 43, 95
3, 511680, Note_off_c, 2, 43, 95
3, 511680, Note_on_c, 2, 50, 95
3, 511680, Note_on_c, 2, 43, 95
3, 512160, Note_off_c, 2, 50, 95
3, 512160, Note_off_c, 2, 43, 95
3, 512160, Note_on_c, 2, 43, 95
3, 512400, Note_off_c, 2, 43, 95
3, 512400, Note_on_c, 2, 43, 95
3, 512640, Note_off_c, 2, 43, 95
3, 512640, Note_on_c, 2, 50, 95
3, 512640, Note_on_c, 2, 43, 95
3, 513120, Note_off_c, 2, 50, 95
3, 513120, Note_off_c, 2, 43, 95
3, 513120, Note_on_c, 2, 43, 95
3, 513360, Note_off_c, 2, 43, 95
3, 513360, Note_on_c, 2, 43, 95
3, 513600, Note_off_c, 2, 43, 95
3, 513600, Note_on_c, 2, 50, 95
3, 513600, Note_on_c, 2, 43, 95
3, 514080, Note_off_c, 2, 50, 95
3, 514080, Note_off_c, 2, 43, 95
3, 514080, Note_on_c, 2, 43, 95
3, 514320, Note_off_c, 2, 43, 95
3, 514320, Note_on_c, 2, 43, 95
3, 514560, Note_off_c, 2, 43, 95
3, 514560, Note_on_c, 2, 50, 95
3, 514560, Note_on_c, 2, 43, 95
3, 515040, Note_off_c, 2, 50, 95
3, 515040, Note_off_c, 2, 43, 95
3, 515040, Note_on_c, 2, 43, 95
3, 515280, Note_off_c, 2, 43, 95
3, 515280, Note_on_c, 2, 43, 95
3, 515520, Note_off_c, 2, 43, 95
3, 515520, Note_on_c, 2, 50, 95
3, 515520, Note_on_c, 2, 43, 95
3, 516000, Note_off_c, 2, 50, 95
3, 516000, Note_off_c, 2, 43, 95
3, 516000, Note_on_c, 2, 43, 95
3, 516240, Note_off_c, 2, 43, 95
3, 516240, Note_on_c, 2, 43, 95
3, 516480, Note_off_c, 2, 43, 95
3, 516480, Note_on_c, 2, 50, 95
3, 516480, Note_on_c, 2, 43, 95
3, 516960, Note_off_c, 2, 50, 95
3, 516960, Note_off_c, 2, 43, 95
3, 516960, Note_on_c, 2, 43, 95
3, 517200, Note_off_c, 2, 43, 95
3, 517200, Note_on_c, 2, 43, 95
3, 517440, Note_off_c, 2, 43, 95
3, 517440, Note_on_c, 2, 50, 95
3, 517440, Note_on_c, 2, 43, 95
3, 517920, Note_off_c, 2, 50, 95
3, 517920, Note_off_c, 2, 43, 95
3, 517920, Note_on_c, 2, 52, 95
3, 517920, Note_on_c, 2, 45, 95
3, 518880, Note_off_c, 2, 52, 95
3, 518880, Note_off_c, 2, 45, 95
3, 518880, Note_on_c, 2, 45, 95
3, 519120, Note_off_c, 2, 45, 95
3, 519120, Note_on_c, 2, 45, 95
3, 519360, Note_off_c, 2, 45, 95
3, 519360, Note_on_c, 2, 52, 95
3, 519360, Note_on_c, 2, 45, 95
3, 519840, Note_off_c, 2, 52, 95
3, 519840, Note_off_c, 2, 45, 95
3, 519840, Note_on_c, 2, 45, 95
3, 520080, Note_off_c, 2, 45, 95
3, 520080, Note_on_c, 2, 45, 95
3, 520320, Note_off_c, 2, 45, 95
3, 520320, Note_on_c, 2, 52, 95
3, 520320, Note_on_c, 2, 45, 95
3, 520800, Note_off_c, 2, 52, 95
3, 520800, Note_off_c, 2, 45, 95
3, 520800, Note_on_c, 2, 45, 95
3, 521040, Note_off_c, 2, 45, 95
3, 521040, Note_on_c, 2, 45, 95
3, 521280, Note_off_c, 2, 45, 95
3, 521280, Note_on_c, 2, 52, 95
3, 521280, Note_on_c, 2, 45, 95
3, 521760, Note_off_c, 2, 52, 95
3, 521760, Note_off_c, 2, 45, 95
3, 521760, Note_on_c, 2, 45, 95
3, 522000, Note_off_c, 2, 45, 95
3, 522000, Note_on_c, 2, 45, 95
3, 522240, Note_off_c, 2, 45, 95
3, 522240, Note_on_c, 2, 52, 95
3, 522240, Note_on_c, 2, 45, 95
3, 522720, Note_off_c, 2, 52, 95
3, 522720, Note_off_c, 2, 45, 95
3, 522720, Note_on_c, 2, 48, 95
3, 523200, Note_off_c, 2, 48, 95
3, 523200, Note_on_c, 2, 47, 95
3, 523680, Note_off_c, 2, 47, 95
3, 523680, Note_on_c, 2, 45, 95
3, 524160, Note_off_c, 2, 45, 95
3, 524160, Note_on_c, 2, 48, 95
3, 524640, Note_off_c, 2, 48, 95
3, 524640, Note_on_c, 2, 47, 95
3, 525120, Note_off_c, 2, 47, 95
3, 525120, Note_on_c, 2, 45, 95
3, 525600, Note_off_c, 2, 45, 95
3, 525600, Note_on_c, 2, 52, 95
3, 525600, Note_on_c, 2, 45, 95
3, 526560, Note_off_c, 2, 52, 95
3, 526560, Note_off_c, 2, 45, 95
3, 526560, Note_on_c, 2, 45, 95
3, 526800, Note_off_c, 2, 45, 95
3, 526800, Note_on_c, 2, 45, 95
3, 527040, Note_off_c, 2, 45, 95
3, 527040, Note_on_c, 2, 52, 95
3, 527040, Note_on_c, 2, 45, 95
3, 527520, Note_off_c, 2, 52, 95
3, 527520, Note_off_c, 2, 45, 95
3, 527520, Note_on_c, 2, 45, 95
3, 527760, Note_off_c, 2, 45, 95
3, 527760, Note_on_c, 2, 45, 95
3, 528000, Note_off_c, 2, 45, 95
3, 528000, Note_on_c, 2, 52, 95
3, 528000, Note_on_c, 2, 45, 95
3, 528480, Note_off_c, 2, 52, 95
3, 528480, Note_off_c, 2, 45, 95
3, 528480, Note_on_c, 2, 45, 95
3, 528720, Note_off_c, 2, 45, 95
3, 528720, Note_on_c, 2, 45, 95
3, 528960, Note_off_c, 2, 45, 95
3, 528960, Note_on_c, 2, 52, 95
3, 528960, Note_on_c, 2, 45, 95
3, 529440, Note_off_c, 2, 52, 95
3, 529440, Note_off_c, 2, 45, 95
3, 529440, Note_on_c, 2, 45, 95
3, 529680, Note_off_c, 2, 45, 95
3, 529680, Note_on_c, 2, 45, 95
3, 529920, Note_off_c, 2, 45, 95
3, 529920, Note_on_c, 2, 52, 95
3, 529920, Note_on_c, 2, 45, 95
3, 530400, Note_off_c, 2, 52, 95
3, 530400, Note_off_c, 2, 45, 95
3, 530400, Note_on_c, 2, 45, 95
3, 530640, Note_off_c, 2, 45, 95
3, 530640, Note_on_c, 2, 45, 95
3, 530880, Note_off_c, 2, 45, 95
3, 530880, Note_on_c, 2, 52, 95
3, 530880, Note_on_c, 2, 45, 95
3, 531360, Note_off_c, 2, 52, 95
3, 531360, Note_off_c, 2, 45, 95
3, 531360, Note_on_c, 2, 45, 95
3, 531600, Note_off_c, 2, 45, 95
3, 531600, Note_on_c, 2, 45, 95
3, 531840, Note_off_c, 2, 45, 95
3, 531840, Note_on_c, 2, 52, 95
3, 531840, Note_on_c, 2, 45, 95
3, 532320, Note_off_c, 2, 52, 95
3, 532320, Note_off_c, 2, 45, 95
3, 532320, Note_on_c, 2, 45, 95
3, 532560, Note_off_c, 2, 45, 95
3, 532560, Note_on_c, 2, 45, 95
3, 532800, Note_off_c, 2, 45, 95
3, 532800, Note_on_c, 2, 52, 95
3, 532800, Note_on_c, 2, 45, 95
3, 533280, Note_off_c, 2, 52, 95
3, 533280, Note_off_c, 2, 45, 95
3, 533280, Note_on_c, 2, 48, 95
3, 533280, Note_on_c, 2, 41, 95
3, 534240, Note_off_c, 2, 48, 95
3, 534240, Note_off_c, 2, 41, 95
3, 534240, Note_on_c, 2, 41, 95
3, 534480, Note_off_c, 2, 41, 95
3, 534480, Note_on_c, 2, 41, 95
3, 534720, Note_off_c, 2, 41, 95
3, 534720, Note_on_c, 2, 48, 95
3, 534720, Note_on_c, 2, 41, 95
3, 535200, Note_off_c, 2, 48, 95
3, 535200, Note_off_c, 2, 41, 95
3, 535200, Note_on_c, 2, 41, 95
3, 535440, Note_off_c, 2, 41, 95
3, 535440, Note_on_c, 2, 41, 95
3, 535680, Note_off_c, 2, 41, 95
3, 535680, Note_on_c, 2, 48, 95
3, 535680, Note_on_c, 2, 41, 95
3, 536160, Note_off_c, 2, 48, 95
3, 536160, Note_off_c, 2, 41, 95
3, 536160, Note_on_c, 2, 41, 95
3, 536400, Note_off_c, 2, 41, 95
3, 536400, Note_on_c, 2, 41, 95
3, 536640, Note_off_c, 2, 41, 95
3, 536640, Note_on_c, 2, 48, 95
3, 536640, Note_on_c, 2, 41, 95
3, 537120, Note_off_c, 2, 48, 95
3, 537120, Note_off_c, 2, 41, 95
3, 537120, Note_on_c, 2, 41, 95
3, 537360, Note_off_c, 2, 41, 95
3, 537360, Note_on_c, 2, 41, 95
3, 537600, Note_off_c, 2, 41, 95
3, 537600, Note_on_c, 2, 48, 95
3, 537600, Note_on_c, 2, 41, 95
3, 538080, Note_off_c, 2, 48, 95
3, 538080, Note_off_c, 2, 41, 95
3, 538080, Note_on_c, 2, 41, 95
3, 538320, Note_off_c, 2, 41, 95
3, 538320, Note_on_c, 2, 41, 95
3, 538560, Note_off_c, 2, 41, 95
3, 538560, Note_on_c, 2, 48, 95
3, 538560, Note_on_c, 2, 41, 95
3, 539040, Note_off_c, 2, 48, 95
3, 539040, Note_off_c, 2, 41, 95
3, 539040, Note_on_c, 2, 41, 95
3, 539280, Note_off_c, 2, 41, 95
3, 539280, Note_on_c, 2, 41, 95
3, 539520, Note_off_c, 2, 41, 95
3, 539520, Note_on_c, 2, 48, 95
3, 539520, Note_on_c, 2, 41, 95
3, 540000, Note_off_c, 2, 48, 95
3, 540000, Note_off_c, 2, 41, 95
3, 540000, Note_on_c, 2, 41, 95
3, 540240, Note_off_c, 2, 41, 95
3, 540240, Note_on_c, 2, 41, 95
3, 540480, Note_off_c, 2, 41, 95
3, 540480, Note_on_c, 2, 48, 95
3, 540480, Note_on_c, 2, 41, 95
3, 540960, Note_off_c, 2, 48, 95
3, 540960, Note_off_c, 2, 41, 95
3, 540960, Note_on_c, 2, 50, 95
3, 540960, Note_on_c, 2, 43, 95
3, 541920, Note_off_c, 2, 50, 95
3, 541920, Note_off_c, 2, 43, 95
3, 541920, Note_on_c, 2, 43, 95
3, 542160, Note_off_c, 2, 43, 95
3, 542160, Note_on_c, 2, 43, 95
3, 542400, Note_off_c, 2, 43, 95
3, 542400, Note_on_c, 2, 50, 95
3, 542400, Note_on_c, 2, 43, 95
3, 542880, Note_off_c, 2, 50, 95
3, 542880, Note_off_c, 2, 43, 95
3, 542880, Note_on_c, 2, 43, 95
3, 543120, Note_off_c, 2, 43, 95
3, 543120, Note_on_c, 2, 43, 95
3, 543360, Note_off_c, 2, 43, 95
3, 543360, Note_on_c, 2, 50, 95
3, 543360, Note_on_c, 2, 43, 95
3, 543840, Note_off_c, 2, 50, 95
3, 543840, Note_off_c, 2, 43, 95
3, 543840, Note_on_c, 2, 43, 95
3, 544080, Note_off_c, 2, 43, 95
3, 544080, Note_on_c, 2, 43, 95
3, 544320, Note_off_c, 2, 43, 95
3, 544320, Note_on_c, 2, 50, 95
3, 544320, Note_on_c, 2, 43, 95
3, 544800, Note_off_c, 2, 50, 95
3, 544800, Note_off_c, 2, 43, 95
3, 544800, Note_on_c, 2, 43, 95
3, 545040, Note_off_c, 2, 43, 95
3, 545040, Note_on_c, 2, 43, 95
3, 545280, Note_off_c, 2, 43, 95
3, 545280, Note_on_c, 2, 50, 95
3, 545280, Note_on_c, 2, 43, 95
3, 545760, Note_off_c, 2, 50, 95
3, 545760, Note_off_c, 2, 43, 95
3, 545760, Note_on_c, 2, 43, 95
3, 546000, Note_off_c, 2, 43, 95
3, 546000, Note_on_c, 2, 43, 95
3, 546240, Note_off_c, 2, 43, 95
3, 546240, Note_on_c, 2, 50, 95
3, 546240, Note_on_c, 2, 43, 95
3, 546720, Note_off_c, 2, 50, 95
3, 546720, Note_off_c, 2, 43, 95
3, 546720, Note_on_c, 2, 43, 95
3, 546960, Note_off_c, 2, 43, 95
3, 546960, Note_on_c, 2, 43, 95
3, 547200, Note_off_c, 2, 43, 95
3, 547200, Note_on_c, 2, 50, 95
3, 547200, Note_on_c, 2, 43, 95
3, 547680, Note_off_c, 2, 50, 95
3, 547680, Note_off_c, 2, 43, 95
3, 547680, Note_on_c, 2, 43, 95
3, 547920, Note_off_c, 2, 43, 95
3, 547920, Note_on_c, 2, 43, 95
3, 548160, Note_off_c, 2, 43, 95
3, 548160, Note_on_c, 2, 50, 95
3, 548160, Note_on_c, 2, 43, 95
3, 548640, Note_off_c, 2, 50, 95
3, 548640, Note_off_c, 2, 43, 95
3, 548640, Note_on_c, 2, 52, 95
3, 548640, Note_on_c, 2, 45, 95
3, 549600, Note_off_c, 2, 52, 95
3, 549600, Note_off_c, 2, 45, 95
3, 549600, Note_on_c, 2, 45, 95
3, 549840, Note_off_c, 2, 45, 95
3, 549840, Note_on_c, 2, 45, 95
3, 550080, Note_off_c, 2, 45, 95
3, 550080, Note_on_c, 2, 52, 95
3, 550080, Note_on_c, 2, 45, 95
3, 550560, Note_off_c, 2, 52, 95
3, 550560, Note_off_c, 2, 45, 95
3, 550560, Note_on_c, 2, 45, 95
3, 550800, Note_off_c, 2, 45, 95
3, 550800, Note_on_c, 2, 45, 95
3, 551040, Note_off_c, 2, 45, 95
3, 551040, Note_on_c, 2, 52, 95
3, 551040, Note_on_c, 2, 45, 95
3, 551520, Note_off_c, 2, 52, 95
3, 551520, Note_off_c, 2, 45, 95
3, 551520, Note_on_c, 2, 45, 95
3, 551760, Note_off_c, 2, 45, 95
3, 551760, Note_on_c, 2, 45, 95
3, 552000, Note_off_c, 2, 45, 95
3, 552000, Note_on_c, 2, 52, 95
3, 552000, Note_on_c, 2, 45, 95
3, 552480, Note_off_c, 2, 52, 95
3, 552480, Note_off_c, 2, 45, 95
3, 552480, Note_on_c, 2, 45, 95
3, 552720, Note_off_c, 2, 45, 95
3, 552720, Note_on_c, 2, 45, 95
3, 552960, Note_off_c, 2, 45, 95
3, 552960, Note_on_c, 2, 52, 95
3, 552960, Note_on_c, 2, 45, 95
3, 553440, Note_off_c, 2, 52, 95
3, 553440, Note_off_c, 2, 45, 95
3, 553440, Note_on_c, 2, 48, 95
3, 553920, Note_off_c, 2, 48, 95
3, 553920, Note_on_c, 2, 47, 95
3, 554400, Note_off_c, 2, 47, 95
3, 554400, Note_on_c, 2, 45, 95
3, 554880, Note_off_c, 2, 45, 95
3, 554880, Note_on_c, 2, 48, 95
3, 555360, Note_off_c, 2, 48, 95
3, 555360, Note_on_c, 2, 47, 95
3, 555840, Note_off_c, 2, 47, 95
3, 555840, Note_on_c, 2, 45, 95
3, 556320, Note_off_c, 2, 45, 95
3, 556320, Note_on_c, 2, 52, 95
3, 556320, Note_on_c, 2, 45, 95
3, 557280, Note_off_c, 2, 52, 95
3, 557280, Note_off_c, 2, 45, 95
3, 557280, Note_on_c, 2, 45, 95
3, 557520, Note_off_c, 2, 45, 95
3, 557520, Note_on_c, 2, 45, 95
3, 557760, Note_off_c, 2, 45, 95
3, 557760, Note_on_c, 2, 52, 95
3, 557760, Note_on_c, 2, 45, 95
3, 558240, Note_off_c, 2, 52, 95
3, 558240, Note_off_c, 2, 45, 95
3, 558240, Note_on_c, 2, 45, 95
3, 558480, Note_off_c, 2, 45, 95
3, 558480, Note_on_c, 2, 45, 95
3, 558720, Note_off_c, 2, 45, 95
3, 558720, Note_on_c, 2, 50, 95
3, 558720, Note_on_c, 2, 45, 95
3, 559200, Note_off_c, 2, 50, 95
3, 559200, Note_off_c, 2, 45, 95
3, 559200, Note_on_c, 2, 52, 95
3, 559200, Note_on_c, 2, 45, 95
3, 559680, Note_off_c, 2, 52, 95
3, 559680, Note_off_c, 2, 45, 95
3, 559680, Note_on_c, 2, 45, 95
3, 559920, Note_off_c, 2, 45, 95
3, 559920, Note_on_c, 2, 45, 95
3, 560160, Note_off_c, 2, 45, 95
3, 560160, Note_on_c, 2, 45, 95
3, 560400, Note_off_c, 2, 45, 95
3, 560400, Note_on_c, 2, 45, 95
3, 560640, Note_off_c, 2, 45, 95
3, 560640, Note_on_c, 2, 52, 95
3, 560640, Note_on_c, 2, 45, 95
3, 561120, Note_off_c, 2, 52, 95
3, 561120, Note_off_c, 2, 45, 95
3, 561120, Note_on_c, 2, 45, 95
3, 561360, Note_off_c, 2, 45, 95
3, 561360, Note_on_c, 2, 45, 95
3, 561600, Note_off_c, 2, 45, 95
3, 561600, Note_on_c, 2, 52, 95
3, 561600, Note_on_c, 2, 45, 95
3, 562080, Note_off_c, 2, 52, 95
3, 562080, Note_off_c, 2, 45, 95
3, 562080, Note_on_c, 2, 45, 95
3, 562560, Note_off_c, 2, 45, 95
3, 562560, Note_on_c, 2, 50, 95
3, 562560, Note_on_c, 2, 45, 95
3, 563040, Note_off_c, 2, 50, 95
3, 563040, Note_off_c, 2, 45, 95
3, 563040, Note_on_c, 2, 52, 95
3, 563040, Note_on_c, 2, 45, 95
3, 563520, Note_off_c, 2, 52, 95
3, 563520, Note_off_c, 2, 45, 95
3, 564000, Note_on_c, 2, 48, 95
3, 564000, Note_on_c, 2, 41, 95
3, 564960, Note_off_c, 2, 48, 95
3, 564960, Note_off_c, 2, 41, 95
3, 564960, Note_on_c, 2, 41, 95
3, 565200, Note_off_c, 2, 41, 95
3, 565200, Note_on_c, 2, 41, 95
3, 565440, Note_off_c, 2, 41, 95
3, 565440, Note_on_c, 2, 48, 95
3, 565440, Note_on_c, 2, 41, 95
3, 565920, Note_off_c, 2, 48, 95
3, 565920, Note_off_c, 2, 41, 95
3, 565920, Note_on_c, 2, 41, 95
3, 566160, Note_off_c, 2, 41, 95
3, 566160, Note_on_c, 2, 41, 95
3, 566400, Note_off_c, 2, 41, 95
3, 566400, Note_on_c, 2, 47, 95
3, 566400, Note_on_c, 2, 41, 95
3, 566880, Note_off_c, 2, 47, 95
3, 566880, Note_off_c, 2, 41, 95
3, 566880, Note_on_c, 2, 48, 95
3, 566880, Note_on_c, 2, 41, 95
3, 567360, Note_off_c, 2, 48, 95
3, 567360, Note_off_c, 2, 41, 95
3, 567360, Note_on_c, 2, 41, 95
3, 567600, Note_off_c, 2, 41, 95
3, 567600, Note_on_c, 2, 41, 95
3, 567840, Note_off_c, 2, 41, 95
3, 567840, Note_on_c, 2, 41, 95
3, 568080, Note_off_c, 2, 41, 95
3, 568080, Note_on_c, 2, 41, 95
3, 568320, Note_off_c, 2, 41, 95
3, 568320, Note_on_c, 2, 48, 95
3, 568320, Note_on_c, 2, 41, 95
3, 568800, Note_off_c, 2, 48, 95
3, 568800, Note_off_c, 2, 41, 95
3, 568800, Note_on_c, 2, 41, 95
3, 569040, Note_off_c, 2, 41, 95
3, 569040, Note_on_c, 2, 41, 95
3, 569280, Note_off_c, 2, 41, 95
3, 569280, Note_on_c, 2, 48, 95
3, 569280, Note_on_c, 2, 41, 95
3, 569760, Note_off_c, 2, 48, 95
3, 569760, Note_off_c, 2, 41, 95
3, 569760, Note_on_c, 2, 41, 95
3, 570000, Note_off_c, 2, 41, 95
3, 570000, Note_on_c, 2, 41, 95
3, 570240, Note_off_c, 2, 41, 95
3, 570240, Note_on_c, 2, 47, 95
3, 570240, Note_on_c, 2, 41, 95
3, 570720, Note_off_c, 2, 47, 95
3, 570720, Note_off_c, 2, 41, 95
3, 570720, Note_on_c, 2, 48, 95
3, 570720, Note_on_c, 2, 41, 95
3, 571200, Note_off_c, 2, 48, 95
3, 571200, Note_off_c, 2, 41, 95
3, 571680, Note_on_c, 2, 50, 95
3, 571680, Note_on_c, 2, 43, 95
3, 572640, Note_off_c, 2, 50, 95
3, 572640, Note_off_c, 2, 43, 95
3, 572640, Note_on_c, 2, 43, 95
3, 572880, Note_off_c, 2, 43, 95
3, 572880, Note_on_c, 2, 43, 95
3, 573120, Note_off_c, 2, 43, 95
3, 573120, Note_on_c, 2, 50, 95
3, 573120, Note_on_c, 2, 43, 95
3, 573600, Note_off_c, 2, 50, 95
3, 573600, Note_off_c, 2, 43, 95
3, 573600, Note_on_c, 2, 43, 95
3, 573840, Note_off_c, 2, 43, 95
3, 573840, Note_on_c, 2, 43, 95
3, 574080, Note_off_c, 2, 43, 95
3, 574080, Note_on_c, 2, 48, 95
3, 574080, Note_on_c, 2, 43, 95
3, 574560, Note_off_c, 2, 48, 95
3, 574560, Note_off_c, 2, 43, 95
3, 574560, Note_on_c, 2, 50, 95
3, 574560, Note_on_c, 2, 43, 95
3, 575040, Note_off_c, 2, 50, 95
3, 575040, Note_off_c, 2, 43, 95
3, 575040, Note_on_c, 2, 43, 95
3, 575280, Note_off_c, 2, 43, 95
3, 575280, Note_on_c, 2, 43, 95
3, 575520, Note_off_c, 2, 43, 95
3, 575520, Note_on_c, 2, 43, 95
3, 575760, Note_off_c, 2, 43, 95
3, 575760, Note_on_c, 2, 43, 95
3, 576000, Note_off_c, 2, 43, 95
3, 576000, Note_on_c, 2, 50, 95
3, 576000, Note_on_c, 2, 43, 95
3, 576480, Note_off_c, 2, 50, 95
3, 576480, Note_off_c, 2, 43, 95
3, 576480, Note_on_c, 2, 43, 95
3, 576720, Note_off_c, 2, 43, 95
3, 576720, Note_on_c, 2, 43, 95
3, 576960, Note_off_c, 2, 43, 95
3, 576960, Note_on_c, 2, 50, 95
3, 576960, Note_on_c, 2, 43, 95
3, 577440, Note_off_c, 2, 50, 95
3, 577440, Note_off_c, 2, 43, 95
3, 577440, Note_on_c, 2, 43, 95
3, 577680, Note_off_c, 2, 43, 95
3, 577680, Note_on_c, 2, 43, 95
3, 577920, Note_off_c, 2, 43, 95
3, 577920, Note_on_c, 2, 48, 95
3, 577920, Note_on_c, 2, 43, 95
3, 578400, Note_off_c, 2, 48, 95
3, 578400, Note_off_c, 2, 43, 95
3, 578400, Note_on_c, 2, 50, 95
3, 578400, Note_on_c, 2, 43, 95
3, 578880, Note_off_c, 2, 50, 95
3, 578880, Note_off_c, 2, 43, 95
3, 579360, Note_on_c, 2, 52, 95
3, 579360, Note_on_c, 2, 45, 95
3, 580320, Note_off_c, 2, 52, 95
3, 580320, Note_off_c, 2, 45, 95
3, 580320, Note_on_c, 2, 45, 95
3, 580560, Note_off_c, 2, 45, 95
3, 580560, Note_on_c, 2, 45, 95
3, 580800, Note_off_c, 2, 45, 95
3, 580800, Note_on_c, 2, 52, 95
3, 580800, Note_on_c, 2, 45, 95
3, 581280, Note_off_c, 2, 52, 95
3, 581280, Note_off_c, 2, 45, 95
3, 581280, Note_on_c, 2, 45, 95
3, 581520, Note_off_c, 2, 45, 95
3, 581520, Note_on_c, 2, 45, 95
3, 581760, Note_off_c, 2, 45, 95
3, 581760, Note_on_c, 2, 50, 95
3, 581760, Note_on_c, 2, 45, 95
3, 582240, Note_off_c, 2, 50, 95
3, 582240, Note_off_c, 2, 45, 95
3, 582240, Note_on_c, 2, 52, 95
3, 582240, Note_on_c, 2, 45, 95
3, 582720, Note_off_c, 2, 52, 95
3, 582720, Note_off_c, 2, 45, 95
3, 582720, Note_on_c, 2, 45, 95
3, 582960, Note_off_c, 2, 45, 95
3, 582960, Note_on_c, 2, 45, 95
3, 583200, Note_off_c, 2, 45, 95
3, 583200, Note_on_c, 2, 45, 95
3, 583440, Note_off_c, 2, 45, 95
3, 583440, Note_on_c, 2, 45, 95
3, 583680, Note_off_c, 2, 45, 95
3, 583680, Note_on_c, 2, 52, 95
3, 583680, Note_on_c, 2, 45, 95
3, 584160, Note_off_c, 2, 52, 95
3, 584160, Note_off_c, 2, 45, 95
3, 584160, Note_on_c, 2, 45, 95
3, 584400, Note_off_c, 2, 45, 95
3, 584400, Note_on_c, 2, 45, 95
3, 584640, Note_off_c, 2, 45, 95
3, 584640, Note_on_c, 2, 52, 95
3, 584640, Note_on_c, 2, 45, 95
3, 585120, Note_off_c, 2, 52, 95
3, 585120, Note_off_c, 2, 45, 95
3, 585120, Note_on_c, 2, 45, 95
3, 585600, Note_off_c, 2, 45, 95
3, 585600, Note_on_c, 2, 50, 95
3, 585600, Note_on_c, 2, 45, 95
3, 586080, Note_off_c, 2, 50, 95
3, 586080, Note_off_c, 2, 45, 95
3, 586080, Note_on_c, 2, 52, 95
3, 586080, Note_on_c, 2, 45, 95
3, 586560, Note_off_c, 2, 52, 95
3, 586560, Note_off_c, 2, 45, 95
3, 587040, Note_on_c, 2, 52, 95
3, 587040, Note_on_c, 2, 45, 95
3, 588000, Note_off_c, 2, 52, 95
3, 588000, Note_off_c, 2, 45, 95
3, 588000, Note_on_c, 2, 45, 95
3, 588240, Note_off_c, 2, 45, 95
3, 588240, Note_on_c, 2, 45, 95
3, 588480, Note_off_c, 2, 45, 95
3, 588480, Note_on_c, 2, 52, 95
3, 588480, Note_on_c, 2, 45, 95
3, 588960, Note_off_c, 2, 52, 95
3, 588960, Note_off_c, 2, 45, 95
3, 588960, Note_on_c, 2, 45, 95
3, 589200, Note_off_c, 2, 45, 95
3, 589200, Note_on_c, 2, 45, 95
3, 589440, Note_off_c, 2, 45, 95
3, 589440, Note_on_c, 2, 50, 95
3, 589440, Note_on_c, 2, 45, 95
3, 589920, Note_off_c, 2, 50, 95
3, 589920, Note_off_c, 2, 45, 95
3, 589920, Note_on_c, 2, 52, 95
3, 589920, Note_on_c, 2, 45, 95
3, 590400, Note_off_c, 2, 52, 95
3, 590400, Note_off_c, 2, 45, 95
3, 590400, Note_on_c, 2, 45, 95
3, 590640, Note_off_c, 2, 45, 95
3, 590640, Note_on_c, 2, 45, 95
3, 590880, Note_off_c, 2, 45, 95
3, 590880, Note_on_c, 2, 45, 95
3, 591120, Note_off_c, 2, 45, 95
3, 591120, Note_on_c, 2, 45, 95
3, 591360, Note_off_c, 2, 45, 95
3, 591360, Note_on_c, 2, 52, 95
3, 591360, Note_on_c, 2, 45, 95
3, 591840, Note_off_c, 2, 52, 95
3, 591840, Note_off_c, 2, 45, 95
3, 591840, Note_on_c, 2, 45, 95
3, 592080, Note_off_c, 2, 45, 95
3, 592080, Note_on_c, 2, 45, 95
3, 592320, Note_off_c, 2, 45, 95
3, 592320, Note_on_c, 2, 52, 95
3, 592320, Note_on_c, 2, 45, 95
3, 592800, Note_off_c, 2, 52, 95
3, 592800, Note_off_c, 2, 45, 95
3, 592800, Note_on_c, 2, 45, 95
3, 593280, Note_off_c, 2, 45, 95
3, 593280, Note_on_c, 2, 50, 95
3, 593280, Note_on_c, 2, 45, 95
3, 593760, Note_off_c, 2, 50, 95
3, 593760, Note_off_c, 2, 45, 95
3, 593760, Note_on_c, 2, 52, 95
3, 593760, Note_on_c, 2, 45, 95
3, 594240, Note_off_c, 2, 52, 95
3, 594240, Note_off_c, 2, 45, 95
3, 594720, Note_on_c, 2, 48, 95
3, 594720, Note_on_c, 2, 41, 95
3, 595680, Note_off_c, 2, 48, 95
3, 595680, Note_off_c, 2, 41, 95
3, 595680, Note_on_c, 2, 41, 95
3, 595920, Note_off_c, 2, 41, 95
3, 595920, Note_on_c, 2, 41, 95
3, 596160, Note_off_c, 2, 41, 95
3, 596160, Note_on_c, 2, 48, 95
3, 596160, Note_on_c, 2, 41, 95
3, 596640, Note_off_c, 2, 48, 95
3, 596640, Note_off_c, 2, 41, 95
3, 596640, Note_on_c, 2, 41, 95
3, 596880, Note_off_c, 2, 41, 95
3, 596880, Note_on_c, 2, 41, 95
3, 597120, Note_off_c, 2, 41, 95
3, 597120, Note_on_c, 2, 47, 95
3, 597120, Note_on_c, 2, 41, 95
3, 597600, Note_off_c, 2, 47, 95
3, 597600, Note_off_c, 2, 41, 95
3, 597600, Note_on_c, 2, 48, 95
3, 597600, Note_on_c, 2, 41, 95
3, 598080, Note_off_c, 2, 48, 95
3, 598080, Note_off_c, 2, 41, 95
3, 598080, Note_on_c, 2, 41, 95
3, 598320, Note_off_c, 2, 41, 95
3, 598320, Note_on_c, 2, 41, 95
3, 598560, Note_off_c, 2, 41, 95
3, 598560, Note_on_c, 2, 41, 95
3, 598800, Note_off_c, 2, 41, 95
3, 598800, Note_on_c, 2, 41, 95
3, 599040, Note_off_c, 2, 41, 95
3, 599040, Note_on_c, 2, 48, 95
3, 599040, Note_on_c, 2, 41, 95
3, 599520, Note_off_c, 2, 48, 95
3, 599520, Note_off_c, 2, 41, 95
3, 599520, Note_on_c, 2, 41, 95
3, 599760, Note_off_c, 2, 41, 95
3, 599760, Note_on_c, 2, 41, 95
3, 600000, Note_off_c, 2, 41, 95
3, 600000, Note_on_c, 2, 48, 95
3, 600000, Note_on_c, 2, 41, 95
3, 600480, Note_off_c, 2, 48, 95
3, 600480, Note_off_c, 2, 41, 95
3, 600480, Note_on_c, 2, 41, 95
3, 600720, Note_off_c, 2, 41, 95
3, 600720, Note_on_c, 2, 41, 95
3, 600960, Note_off_c, 2, 41, 95
3, 600960, Note_on_c, 2, 47, 95
3, 600960, Note_on_c, 2, 41, 95
3, 601440, Note_off_c, 2, 47, 95
3, 601440, Note_off_c, 2, 41, 95
3, 601440, Note_on_c, 2, 48, 95
3, 601440, Note_on_c, 2, 41, 95
3, 601920, Note_off_c, 2, 48, 95
3, 601920, Note_off_c, 2, 41, 95
3, 602400, Note_on_c, 2, 50, 95
3, 602400, Note_on_c, 2, 43, 95
3, 603360, Note_off_c, 2, 50, 95
3, 603360, Note_off_c, 2, 43, 95
3, 603360, Note_on_c, 2, 43, 95
3, 603600, Note_off_c, 2, 43, 95
3, 603600, Note_on_c, 2, 43, 95
3, 603840, Note_off_c, 2, 43, 95
3, 603840, Note_on_c, 2, 50, 95
3, 603840, Note_on_c, 2, 43, 95
3, 604320, Note_off_c, 2, 50, 95
3, 604320, Note_off_c, 2, 43, 95
3, 604320, Note_on_c, 2, 43, 95
3, 604560, Note_off_c, 2, 43, 95
3, 604560, Note_on_c, 2, 43, 95
3, 604800, Note_off_c, 2, 43, 95
3, 604800, Note_on_c, 2, 48, 95
3, 604800, Note_on_c, 2, 43, 95
3, 605280, Note_off_c, 2, 48, 95
3, 605280, Note_off_c, 2, 43, 95
3, 605280, Note_on_c, 2, 50, 95
3, 605280, Note_on_c, 2, 43, 95
3, 605760, Note_off_c, 2, 50, 95
3, 605760, Note_off_c, 2, 43, 95
3, 605760, Note_on_c, 2, 43, 95
3, 606000, Note_off_c, 2, 43, 95
3, 606000, Note_on_c, 2, 43, 95
3, 606240, Note_off_c, 2, 43, 95
3, 606240, Note_on_c, 2, 43, 95
3, 606480, Note_off_c, 2, 43, 95
3, 606480, Note_on_c, 2, 43, 95
3, 606720, Note_off_c, 2, 43, 95
3, 606720, Note_on_c, 2, 50, 95
3, 606720, Note_on_c, 2, 43, 95
3, 607200, Note_off_c, 2, 50, 95
3, 607200, Note_off_c, 2, 43, 95
3, 607200, Note_on_c, 2, 43, 95
3, 607440, Note_off_c, 2, 43, 95
3, 607440, Note_on_c, 2, 43, 95
3, 607680, Note_off_c, 2, 43, 95
3, 607680, Note_on_c, 2, 50, 95
3, 607680, Note_on_c, 2, 43, 95
3, 608160, Note_off_c, 2, 50, 95
3, 608160, Note_off_c, 2, 43, 95
3, 608160, Note_on_c, 2, 43, 95
3, 608400, Note_off_c, 2, 43, 95
3, 608400, Note_on_c, 2, 43, 95
3, 608640, Note_off_c, 2, 43, 95
3, 608640, Note_on_c, 2, 48, 95
3, 608640, Note_on_c, 2, 43, 95
3, 609120, Note_off_c, 2, 48, 95
3, 609120, Note_off_c, 2, 43, 95
3, 609120, Note_on_c, 2, 50, 95
3, 609120, Note_on_c, 2, 43, 95
3, 609600, Note_off_c, 2, 50, 95
3, 609600, Note_off_c, 2, 43, 95
3, 610080, Note_on_c, 2, 52, 95
3, 610080, Note_on_c, 2, 45, 95
3, 611040, Note_off_c, 2, 52, 95
3, 611040, Note_off_c, 2, 45, 95
3, 611040, Note_on_c, 2, 45, 95
3, 611280, Note_off_c, 2, 45, 95
3, 611280, Note_on_c, 2, 45, 95
3, 611520, Note_off_c, 2, 45, 95
3, 611520, Note_on_c, 2, 52, 95
3, 611520, Note_on_c, 2, 45, 95
3, 612000, Note_off_c, 2, 52, 95
3, 612000, Note_off_c, 2, 45, 95
3, 612000, Note_on_c, 2, 45, 95
3, 612240, Note_off_c, 2, 45, 95
3, 612240, Note_on_c, 2, 45, 95
3, 612480, Note_off_c, 2, 45, 95
3, 612480, Note_on_c, 2, 50, 95
3, 612480, Note_on_c, 2, 45, 95
3, 612960, Note_off_c, 2, 50, 95
3, 612960, Note_off_c, 2, 45, 95
3, 612960, Note_on_c, 2, 52, 95
3, 612960, Note_on_c, 2, 45, 95
3, 613440, Note_off_c, 2, 52, 95
3, 613440, Note_off_c, 2, 45, 95
3, 613440, Note_on_c, 2, 45, 95
3, 613680, Note_off_c, 2, 45, 95
3, 613680, Note_on_c, 2, 45, 95
3, 613920, Note_off_c, 2, 45, 95
3, 613920, Note_on_c, 2, 45, 95
3, 614160, Note_off_c, 2, 45, 95
3, 614160, Note_on_c, 2, 45, 95
3, 614400, Note_off_c, 2, 45, 95
3, 614400, Note_on_c, 2, 52, 95
3, 614400, Note_on_c, 2, 45, 95
3, 614880, Note_off_c, 2, 52, 95
3, 614880, Note_off_c, 2, 45, 95
3, 614880, Note_on_c, 2, 45, 95
3, 615120, Note_off_c, 2, 45, 95
3, 615120, Note_on_c, 2, 45, 95
3, 615360, Note_off_c, 2, 45, 95
3, 615360, Note_on_c, 2, 52, 95
3, 615360, Note_on_c, 2, 45, 95
3, 615840, Note_off_c, 2, 52, 95
3, 615840, Note_off_c, 2, 45, 95
3, 615840, Note_on_c, 2, 45, 95
3, 616320, Note_off_c, 2, 45, 95
3, 616320, Note_on_c, 2, 50, 95
3, 616320, Note_on_c, 2, 45, 95
3, 616800, Note_off_c, 2, 50, 95
3, 616800, Note_off_c, 2, 45, 95
3, 616800, Note_on_c, 2, 52, 95
3, 616800, Note_on_c, 2, 45, 95
3, 617280, Note_off_c, 2, 52, 95
3, 617280, Note_off_c, 2, 45, 95
3, 617760, Note_on_c, 2, 59, 95
3, 617760, Note_on_c, 2, 52, 95
3, 618720, Note_off_c, 2, 59, 95
3, 618720, Note_off_c, 2, 52, 95
3, 618720, Note_on_c, 2, 52, 95
3, 618960, Note_off_c, 2, 52, 95
3, 618960, Note_on_c, 2, 52, 95
3, 619200, Note_off_c, 2, 52, 95
3, 619200, Note_on_c, 2, 59, 95
3, 619200, Note_on_c, 2, 52, 95
3, 619680, Note_off_c, 2, 59, 95
3, 619680, Note_off_c, 2, 52, 95
3, 619680, Note_on_c, 2, 52, 95
3, 619920, Note_off_c, 2, 52, 95
3, 619920, Note_on_c, 2, 52, 95
3, 620160, Note_off_c, 2, 52, 95
3, 620160, Note_on_c, 2, 57, 95
3, 620160, Note_on_c, 2, 52, 95
3, 620640, Note_off_c, 2, 57, 95
3, 620640, Note_off_c, 2, 52, 95
3, 620640, Note_on_c, 2, 59, 95
3, 620640, Note_on_c, 2, 52, 95
3, 621120, Note_off_c, 2, 59, 95
3, 621120, Note_off_c, 2, 52, 95
3, 621120, Note_on_c, 2, 52, 95
3, 621360, Note_off_c, 2, 52, 95
3, 621360, Note_on_c, 2, 52, 95
3, 621600, Note_off_c, 2, 52, 95
3, 621600, Note_on_c, 2, 52, 95
3, 621840, Note_off_c, 2, 52, 95
3, 621840, Note_on_c, 2, 52, 95
3, 622080, Note_off_c, 2, 52, 95
3, 622080, Note_on_c, 2, 59, 95
3, 622080, Note_on_c, 2, 52, 95
3, 622560, Note_off_c, 2, 59, 95
3, 622560, Note_off_c, 2, 52, 95
3, 622560, Note_on_c, 2, 52, 95
3, 622800, Note_off_c, 2, 52, 95
3, 622800, Note_on_c, 2, 52, 95
3, 623040, Note_off_c, 2, 52, 95
3, 623040, Note_on_c, 2, 59, 95
3, 623040, Note_on_c, 2, 52, 95
3, 623520, Note_off_c, 2, 59, 95
3, 623520, Note_off_c, 2, 52, 95
3, 623520, Note_on_c, 2, 52, 95
3, 624000, Note_off_c, 2, 52, 95
3, 624000, Note_on_c, 2, 57, 95
3, 624000, Note_on_c, 2, 52, 95
3, 624480, Note_off_c, 2, 57, 95
3, 624480, Note_off_c, 2, 52, 95
3, 624480, Note_on_c, 2, 59, 95
3, 624480, Note_on_c, 2, 52, 95
3, 624960, Note_off_c, 2, 59, 95
3, 624960, Note_off_c, 2, 52, 95
3, 625440, Note_on_c, 2, 62, 95
3, 625440, Note_on_c, 2, 55, 95
3, 626400, Note_off_c, 2, 62, 95
3, 626400, Note_off_c, 2, 55, 95
3, 626400, Note_on_c, 2, 55, 95
3, 626640, Note_off_c, 2, 55, 95
3, 626640, Note_on_c, 2, 55, 95
3, 626880, Note_off_c, 2, 55, 95
3, 626880, Note_on_c, 2, 62, 95
3, 626880, Note_on_c, 2, 55, 95
3, 627360, Note_off_c, 2, 62, 95
3, 627360, Note_off_c, 2, 55, 95
3, 627360, Note_on_c, 2, 55, 95
3, 627600, Note_off_c, 2, 55, 95
3, 627600, Note_on_c, 2, 55, 95
3, 627840, Note_off_c, 2, 55, 95
3, 627840, Note_on_c, 2, 60, 95
3, 627840, Note_on_c, 2, 55, 95
3, 628320, Note_off_c, 2, 60, 95
3, 628320, Note_off_c, 2, 55, 95
3, 628320, Note_on_c, 2, 62, 95
3, 628320, Note_on_c, 2, 55, 95
3, 628800, Note_off_c, 2, 62, 95
3, 628800, Note_off_c, 2, 55, 95
3, 628800, Note_on_c, 2, 55, 95
3, 629040, Note_off_c, 2, 55, 95
3, 629040, Note_on_c, 2, 55, 95
3, 629280, Note_off_c, 2, 55, 95
3, 629280, Note_on_c, 2, 55, 95
3, 629520, Note_off_c, 2, 55, 95
3, 629520, Note_on_c, 2, 55, 95
3, 629760, Note_off_c, 2, 55, 95
3, 629760, Note_on_c, 2, 62, 95
3, 629760, Note_on_c, 2, 55, 95
3, 630240, Note_off_c, 2, 62, 95
3, 630240, Note_off_c, 2, 55, 95
3, 630240, Note_on_c, 2, 55, 95
3, 630480, Note_off_c, 2, 55, 95
3, 630480, Note_on_c, 2, 55, 95
3, 630720, Note_off_c, 2, 55, 95
3, 630720, Note_on_c, 2, 62, 95
3, 630720, Note_on_c, 2, 55, 95
3, 631200, Note_off_c, 2, 62, 95
3, 631200, Note_off_c, 2, 55, 95
3, 631200, Note_on_c, 2, 55, 95
3, 631680, Note_off_c, 2, 55, 95
3, 631680, Note_on_c, 2, 60, 95
3, 631680, Note_on_c, 2, 55, 95
3, 632160, Note_off_c, 2, 60, 95
3, 632160, Note_off_c, 2, 55, 95
3, 632160, Note_on_c, 2, 62, 95
3, 632160, Note_on_c, 2, 55, 95
3, 632640, Note_off_c, 2, 62, 95
3, 632640, Note_off_c, 2, 55, 95
3, 633120, Note_on_c, 2, 64, 95
3, 633120, Note_on_c, 2, 57, 95
3, 634080, Note_off_c, 2, 64, 95
3, 634080, Note_off_c, 2, 57, 95
3, 634080, Note_on_c, 2, 57, 95
3, 634320, Note_off_c, 2, 57, 95
3, 634320, Note_on_c, 2, 57, 95
3, 634560, Note_off_c, 2, 57, 95
3, 634560, Note_on_c, 2, 64, 95
3, 634560, Note_on_c, 2, 57, 95
3, 635040, Note_off_c, 2, 64, 95
3, 635040, Note_off_c, 2, 57, 95
3, 635040, Note_on_c, 2, 57, 95
3, 635280, Note_off_c, 2, 57, 95
3, 635280, Note_on_c, 2, 57, 95
3, 635520, Note_off_c, 2, 57, 95
3, 635520, Note_on_c, 2, 62, 95
3, 635520, Note_on_c, 2, 57, 95
3, 636000, Note_off_c, 2, 62, 95
3, 636000, Note_off_c, 2, 57, 95
3, 636000, Note_on_c, 2, 64, 95
3, 636000, Note_on_c, 2, 57, 95
3, 636480, Note_off_c, 2, 64, 95
3, 636480, Note_off_c, 2, 57, 95
3, 636480, Note_on_c, 2, 57, 95
3, 636720, Note_off_c, 2, 57, 95
3, 636720, Note_on_c, 2, 57, 95
3, 636960, Note_off_c, 2, 57, 95
3, 636960, Note_on_c, 2, 57, 95
3, 637200, Note_off_c, 2, 57, 95
3, 637200, Note_on_c, 2, 57, 95
3, 637440, Note_off_c, 2, 57, 95
3, 637440, Note_on_c, 2, 64, 95
3, 637440, Note_on_c, 2, 57, 95
3, 637920, Note_off_c, 2, 64, 95
3, 637920, Note_off_c, 2, 57, 95
3, 637920, Note_on_c, 2, 57, 95
3, 638160, Note_off_c, 2, 57, 95
3, 638160, Note_on_c, 2, 57, 95
3, 638400, Note_off_c, 2, 57, 95
3, 638400, Note_on_c, 2, 64, 95
3, 638400, Note_on_c, 2, 57, 95
3, 638880, Note_off_c, 2, 64, 95
3, 638880, Note_off_c, 2, 57, 95
3, 638880, Note_on_c, 2, 57, 95
3, 639360, Note_off_c, 2, 57, 95
3, 639360, Note_on_c, 2, 64, 95
3, 639360, Note_on_c, 2, 57, 95
3, 639840, Note_off_c, 2, 64, 95
3, 639840, Note_off_c, 2, 57, 95
3, 640320, Note_on_c, 2, 57, 95
3, 640320, Note_on_c, 2, 50, 95
3, 640800, Note_off_c, 2, 57, 95
3, 640800, Note_off_c, 2, 50, 95
3, 640800, Note_on_c, 2, 59, 95
3, 640800, Note_on_c, 2, 52, 95
3, 641760, Note_off_c, 2, 59, 95
3, 641760, Note_off_c, 2, 52, 95
3, 641760, End_track
4, 0, Start_track
4, 0, Pitch_bend_c, 4, 8192
4, 0, Control_c, 4, 7, 127
4, 0, Control_c, 4, 10, 63
4, 0, Control_c, 4, 93, 0
4, 0, Control_c, 4, 91, 0
4, 0, Control_c, 4, 95, 0
4, 0, Control_c, 4, 92, 0
4, 0, Control_c, 4, 11, 127
4, 0, Program_c, 4, 34
4, 0, Control_c, 5, 7, 127
4, 0, Control_c, 5, 10, 63
4, 0, Control_c, 5, 93, 0
4, 0, Control_c, 5, 91, 0
4, 0, Control_c, 5, 95, 0
4, 0, Control_c, 5, 92, 0
4, 0, Control_c, 5, 11, 127
4, 0, Program_c, 5, 34
4, 3840, Note_on_c, 4, 40, 95
4, 4320, Note_off_c, 4, 40, 95
4, 4320, Note_on_c, 4, 40, 95
4, 4800, Note_off_c, 4, 40, 95
4, 4800, Note_on_c, 4, 40, 95
4, 5280, Note_off_c, 4, 40, 95
4, 5280, Note_on_c, 4, 40, 95
4, 5760, Note_off_c, 4, 40, 95
4, 5760, Note_on_c, 4, 40, 95
4, 6240, Note_off_c, 4, 40, 95
4, 6240, Note_on_c, 4, 40, 95
4, 6720, Note_off_c, 4, 40, 95
4, 6720, Note_on_c, 4, 40, 95
4, 7200, Note_off_c, 4, 40, 95
4, 7200, Note_on_c, 4, 40, 95
4, 7680, Note_off_c, 4, 40, 95
4, 7680, Note_on_c, 4, 40, 95
4, 8160, Note_off_c, 4, 40, 95
4, 8160, Note_on_c, 4, 40, 95
4, 8640, Note_off_c, 4, 40, 95
4, 8640, Note_on_c, 4, 40, 95
4, 9120, Note_off_c, 4, 40, 95
4, 9120, Note_on_c, 4, 40, 95
4, 9600, Note_off_c, 4, 40, 95
4, 9600, Note_on_c, 4, 40, 95
4, 10080, Note_off_c, 4, 40, 95
4, 10080, Note_on_c, 4, 43, 95
4, 10560, Note_off_c, 4, 43, 95
4, 10560, Note_on_c, 4, 40, 95
4, 11040, Note_off_c, 4, 40, 95
4, 11040, Note_on_c, 4, 48, 95
4, 12000, Note_off_c, 4, 48, 95
4, 12000, Note_on_c, 4, 48, 95
4, 12480, Note_off_c, 4, 48, 95
4, 12480, Note_on_c, 4, 48, 95
4, 12960, Note_off_c, 4, 48, 95
4, 12960, Note_on_c, 4, 48, 95
4, 13440, Note_off_c, 4, 48, 95
4, 13440, Note_on_c, 4, 48, 95
4, 13920, Note_off_c, 4, 48, 95
4, 13920, Note_on_c, 4, 48, 95
4, 14400, Note_off_c, 4, 48, 95
4, 14400, Note_on_c, 4, 48, 95
4, 14880, Note_off_c, 4, 48, 95
4, 14880, Note_on_c, 4, 48, 95
4, 15360, Note_off_c, 4, 48, 95
4, 15360, Note_on_c, 4, 48, 95
4, 15840, Note_off_c, 4, 48, 95
4, 15840, Note_on_c, 4, 48, 95
4, 16320, Note_off_c, 4, 48, 95
4, 16320, Note_on_c, 4, 48, 95
4, 16800, Note_off_c, 4, 48, 95
4, 16800, Note_on_c, 4, 48, 95
4, 17280, Note_off_c, 4, 48, 95
4, 17280, Note_on_c, 4, 50, 95
4, 17760, Note_off_c, 4, 50, 95
4, 17760, Note_on_c, 4, 48, 95
4, 18240, Note_off_c, 4, 48, 95
4, 18240, Note_on_c, 4, 47, 95
4, 18720, Note_off_c, 4, 47, 95
4, 18720, Note_on_c, 4, 40, 95
4, 19680, Note_off_c, 4, 40, 95
4, 19680, Note_on_c, 4, 40, 95
4, 20160, Note_off_c, 4, 40, 95
4, 20160, Note_on_c, 4, 40, 95
4, 20640, Note_off_c, 4, 40, 95
4, 20640, Note_on_c, 4, 40, 95
4, 21120, Note_off_c, 4, 40, 95
4, 21120, Note_on_c, 4, 40, 95
4, 21600, Note_off_c, 4, 40, 95
4, 21600, Note_on_c, 4, 40, 95
4, 22080, Note_off_c, 4, 40, 95
4, 22080, Note_on_c, 4, 40, 95
4, 22560, Note_off_c, 4, 40, 95
4, 22560, Note_on_c, 4, 40, 95
4, 23040, Note_off_c, 4, 40, 95
4, 23040, Note_on_c, 4, 40, 95
4, 23520, Note_off_c, 4, 40, 95
4, 23520, Note_on_c, 4, 40, 95
4, 24000, Note_off_c, 4, 40, 95
4, 24000, Note_on_c, 4, 40, 95
4, 24480, Note_off_c, 4, 40, 95
4, 24480, Note_on_c, 4, 40, 95
4, 24960, Note_off_c, 4, 40, 95
4, 24960, Note_on_c, 4, 40, 95
4, 25440, Note_off_c, 4, 40, 95
4, 25440, Note_on_c, 4, 43, 95
4, 25920, Note_off_c, 4, 43, 95
4, 25920, Note_on_c, 4, 40, 95
4, 26400, Note_off_c, 4, 40, 95
4, 26400, Note_on_c, 4, 48, 95
4, 27360, Note_off_c, 4, 48, 95
4, 27360, Note_on_c, 4, 48, 95
4, 27840, Note_off_c, 4, 48, 95
4, 27840, Note_on_c, 4, 48, 95
4, 28320, Note_off_c, 4, 48, 95
4, 28320, Note_on_c, 4, 48, 95
4, 28800, Note_off_c, 4, 48, 95
4, 28800, Note_on_c, 4, 48, 95
4, 29280, Note_off_c, 4, 48, 95
4, 29280, Note_on_c, 4, 48, 95
4, 29760, Note_off_c, 4, 48, 95
4, 29760, Note_on_c, 4, 48, 95
4, 30240, Note_off_c, 4, 48, 95
4, 30240, Note_on_c, 4, 48, 95
4, 30720, Note_off_c, 4, 48, 95
4, 30720, Note_on_c, 4, 48, 95
4, 31200, Note_off_c, 4, 48, 95
4, 31200, Note_on_c, 4, 48, 95
4, 31680, Note_off_c, 4, 48, 95
4, 31680, Note_on_c, 4, 48, 95
4, 32160, Note_off_c, 4, 48, 95
4, 32160, Note_on_c, 4, 48, 95
4, 32640, Note_off_c, 4, 48, 95
4, 32640, Note_on_c, 4, 50, 95
4, 33120, Note_off_c, 4, 50, 95
4, 33120, Note_on_c, 4, 48, 95
4, 33600, Note_off_c, 4, 48, 95
4, 33600, Note_on_c, 4, 47, 95
4, 34080, Note_off_c, 4, 47, 95
4, 34080, Note_on_c, 4, 40, 95
4, 35040, Note_off_c, 4, 40, 95
4, 35040, Note_on_c, 4, 40, 95
4, 35520, Note_off_c, 4, 40, 95
4, 35520, Note_on_c, 4, 40, 95
4, 36000, Note_off_c, 4, 40, 95
4, 36000, Note_on_c, 4, 40, 95
4, 36480, Note_off_c, 4, 40, 95
4, 36480, Note_on_c, 4, 40, 95
4, 36960, Note_off_c, 4, 40, 95
4, 36960, Note_on_c, 4, 40, 95
4, 37440, Note_off_c, 4, 40, 95
4, 37440, Note_on_c, 4, 40, 95
4, 37920, Note_off_c, 4, 40, 95
4, 37920, Note_on_c, 4, 40, 95
4, 38400, Note_off_c, 4, 40, 95
4, 38400, Note_on_c, 4, 40, 95
4, 38880, Note_off_c, 4, 40, 95
4, 38880, Note_on_c, 4, 40, 95
4, 39360, Note_off_c, 4, 40, 95
4, 39360, Note_on_c, 4, 40, 95
4, 39840, Note_off_c, 4, 40, 95
4, 39840, Note_on_c, 4, 40, 95
4, 40320, Note_off_c, 4, 40, 95
4, 40320, Note_on_c, 4, 40, 95
4, 40800, Note_off_c, 4, 40, 95
4, 40800, Note_on_c, 4, 43, 95
4, 41280, Note_off_c, 4, 43, 95
4, 41280, Note_on_c, 4, 40, 95
4, 41760, Note_off_c, 4, 40, 95
4, 41760, Note_on_c, 4, 48, 95
4, 42720, Note_off_c, 4, 48, 95
4, 42720, Note_on_c, 4, 48, 95
4, 43200, Note_off_c, 4, 48, 95
4, 43200, Note_on_c, 4, 48, 95
4, 43680, Note_off_c, 4, 48, 95
4, 43680, Note_on_c, 4, 48, 95
4, 44160, Note_off_c, 4, 48, 95
4, 44160, Note_on_c, 4, 48, 95
4, 44640, Note_off_c, 4, 48, 95
4, 44640, Note_on_c, 4, 48, 95
4, 45120, Note_off_c, 4, 48, 95
4, 45120, Note_on_c, 4, 48, 95
4, 45600, Note_off_c, 4, 48, 95
4, 45600, Note_on_c, 4, 48, 95
4, 46080, Note_off_c, 4, 48, 95
4, 46080, Note_on_c, 4, 48, 95
4, 46560, Note_off_c, 4, 48, 95
4, 46560, Note_on_c, 4, 48, 95
4, 47040, Note_off_c, 4, 48, 95
4, 47040, Note_on_c, 4, 48, 95
4, 47520, Note_off_c, 4, 48, 95
4, 47520, Note_on_c, 4, 48, 95
4, 48000, Note_off_c, 4, 48, 95
4, 48000, Note_on_c, 4, 48, 95
4, 48480, Note_off_c, 4, 48, 95
4, 48480, Note_on_c, 4, 48, 95
4, 48960, Note_off_c, 4, 48, 95
4, 48960, Note_on_c, 4, 48, 95
4, 49440, Note_off_c, 4, 48, 95
4, 49440, Note_on_c, 4, 50, 95
4, 50400, Note_off_c, 4, 50, 95
4, 50400, Note_on_c, 4, 50, 95
4, 50880, Note_off_c, 4, 50, 95
4, 50880, Note_on_c, 4, 50, 95
4, 51360, Note_off_c, 4, 50, 95
4, 51360, Note_on_c, 4, 50, 95
4, 51840, Note_off_c, 4, 50, 95
4, 51840, Note_on_c, 4, 50, 95
4, 52320, Note_off_c, 4, 50, 95
4, 52320, Note_on_c, 4, 50, 95
4, 52800, Note_off_c, 4, 50, 95
4, 52800, Note_on_c, 4, 50, 95
4, 53280, Note_off_c, 4, 50, 95
4, 53280, Note_on_c, 4, 50, 95
4, 53760, Note_off_c, 4, 50, 95
4, 53760, Note_on_c, 4, 50, 95
4, 54240, Note_off_c, 4, 50, 95
4, 54240, Note_on_c, 4, 50, 95
4, 54720, Note_off_c, 4, 50, 95
4, 54720, Note_on_c, 4, 50, 95
4, 55200, Note_off_c, 4, 50, 95
4, 55200, Note_on_c, 4, 50, 95
4, 55680, Note_off_c, 4, 50, 95
4, 55680, Note_on_c, 4, 55, 95
4, 56160, Note_off_c, 4, 55, 95
4, 56160, Note_on_c, 4, 55, 95
4, 56640, Note_off_c, 4, 55, 95
4, 56640, Note_on_c, 4, 50, 95
4, 57120, Note_off_c, 4, 50, 95
4, 57120, Note_on_c, 4, 40, 95
4, 58080, Note_off_c, 4, 40, 95
4, 58080, Note_on_c, 4, 40, 95
4, 58560, Note_off_c, 4, 40, 95
4, 58560, Note_on_c, 4, 40, 95
4, 59040, Note_off_c, 4, 40, 95
4, 59040, Note_on_c, 4, 40, 95
4, 59520, Note_off_c, 4, 40, 95
4, 59520, Note_on_c, 4, 40, 95
4, 60000, Note_off_c, 4, 40, 95
4, 60000, Note_on_c, 4, 40, 95
4, 60480, Note_off_c, 4, 40, 95
4, 60480, Note_on_c, 4, 40, 95
4, 60960, Note_off_c, 4, 40, 95
4, 60960, Note_on_c, 4, 40, 95
4, 61440, Note_off_c, 4, 40, 95
4, 61440, Note_on_c, 4, 40, 95
4, 61920, Note_off_c, 4, 40, 95
4, 61920, Note_on_c, 4, 40, 95
4, 62400, Note_off_c, 4, 40, 95
4, 62400, Note_on_c, 4, 40, 95
4, 62880, Note_off_c, 4, 40, 95
4, 62880, Note_on_c, 4, 40, 95
4, 63360, Note_off_c, 4, 40, 95
4, 63360, Note_on_c, 4, 40, 95
4, 63840, Note_off_c, 4, 40, 95
4, 63840, Note_on_c, 4, 40, 95
4, 64320, Note_off_c, 4, 40, 95
4, 64320, Note_on_c, 4, 40, 95
4, 64800, Note_off_c, 4, 40, 95
4, 64800, Note_on_c, 4, 40, 95
4, 65280, Note_off_c, 4, 40, 95
4, 65280, Note_on_c, 4, 40, 95
4, 65760, Note_off_c, 4, 40, 95
4, 65760, Note_on_c, 4, 40, 95
4, 66240, Note_off_c, 4, 40, 95
4, 66240, Note_on_c, 4, 40, 95
4, 66720, Note_off_c, 4, 40, 95
4, 66720, Note_on_c, 4, 40, 95
4, 67200, Note_off_c, 4, 40, 95
4, 67200, Note_on_c, 4, 40, 95
4, 67680, Note_off_c, 4, 40, 95
4, 67680, Note_on_c, 4, 40, 95
4, 68160, Note_off_c, 4, 40, 95
4, 68160, Note_on_c, 4, 40, 95
4, 68640, Note_off_c, 4, 40, 95
4, 68640, Note_on_c, 4, 40, 95
4, 69120, Note_off_c, 4, 40, 95
4, 69120, Note_on_c, 4, 40, 95
4, 69600, Note_off_c, 4, 40, 95
4, 69600, Note_on_c, 4, 40, 95
4, 70080, Note_off_c, 4, 40, 95
4, 70080, Note_on_c, 4, 40, 95
4, 70560, Note_off_c, 4, 40, 95
4, 70560, Note_on_c, 4, 40, 95
4, 71040, Note_off_c, 4, 40, 95
4, 71040, Note_on_c, 4, 40, 95
4, 71520, Note_off_c, 4, 40, 95
4, 71520, Note_on_c, 4, 43, 95
4, 72000, Note_off_c, 4, 43, 95
4, 72000, Note_on_c, 4, 40, 95
4, 72480, Note_off_c, 4, 40, 95
4, 72480, Note_on_c, 4, 48, 95
4, 73440, Note_off_c, 4, 48, 95
4, 73440, Note_on_c, 4, 48, 95
4, 73920, Note_off_c, 4, 48, 95
4, 73920, Note_on_c, 4, 48, 95
4, 74400, Note_off_c, 4, 48, 95
4, 74400, Note_on_c, 4, 48, 95
4, 74880, Note_off_c, 4, 48, 95
4, 74880, Note_on_c, 4, 48, 95
4, 75360, Note_off_c, 4, 48, 95
4, 75360, Note_on_c, 4, 48, 95
4, 75840, Note_off_c, 4, 48, 95
4, 75840, Note_on_c, 4, 48, 95
4, 76320, Note_off_c, 4, 48, 95
4, 76320, Note_on_c, 4, 48, 95
4, 76800, Note_off_c, 4, 48, 95
4, 76800, Note_on_c, 4, 48, 95
4, 77280, Note_off_c, 4, 48, 95
4, 77280, Note_on_c, 4, 48, 95
4, 77760, Note_off_c, 4, 48, 95
4, 77760, Note_on_c, 4, 48, 95
4, 78240, Note_off_c, 4, 48, 95
4, 78240, Note_on_c, 4, 48, 95
4, 78720, Note_off_c, 4, 48, 95
4, 78720, Note_on_c, 4, 50, 95
4, 79200, Note_off_c, 4, 50, 95
4, 79200, Note_on_c, 4, 48, 95
4, 79680, Note_off_c, 4, 48, 95
4, 79680, Note_on_c, 4, 47, 95
4, 80160, Note_off_c, 4, 47, 95
4, 80160, Note_on_c, 4, 50, 95
4, 81120, Note_off_c, 4, 50, 95
4, 81120, Note_on_c, 4, 50, 95
4, 81600, Note_off_c, 4, 50, 95
4, 81600, Note_on_c, 4, 50, 95
4, 82080, Note_off_c, 4, 50, 95
4, 82080, Note_on_c, 4, 50, 95
4, 82560, Note_off_c, 4, 50, 95
4, 82560, Note_on_c, 4, 50, 95
4, 83040, Note_off_c, 4, 50, 95
4, 83040, Note_on_c, 4, 50, 95
4, 83520, Note_off_c, 4, 50, 95
4, 83520, Note_on_c, 4, 50, 95
4, 84000, Note_off_c, 4, 50, 95
4, 84000, Note_on_c, 4, 50, 95
4, 84480, Note_off_c, 4, 50, 95
4, 84480, Note_on_c, 4, 50, 95
4, 84960, Note_off_c, 4, 50, 95
4, 84960, Note_on_c, 4, 50, 95
4, 85440, Note_off_c, 4, 50, 95
4, 85440, Note_on_c, 4, 50, 95
4, 85920, Note_off_c, 4, 50, 95
4, 85920, Note_on_c, 4, 55, 95
4, 86400, Note_off_c, 4, 55, 95
4, 86400, Note_on_c, 4, 50, 95
4, 86880, Note_off_c, 4, 50, 95
4, 86880, Note_on_c, 4, 54, 95
4, 87360, Note_off_c, 4, 54, 95
4, 87360, Note_on_c, 4, 50, 95
4, 87840, Note_off_c, 4, 50, 95
4, 87840, Note_on_c, 4, 40, 95
4, 88800, Note_off_c, 4, 40, 95
4, 88800, Note_on_c, 4, 40, 95
4, 89280, Note_off_c, 4, 40, 95
4, 89280, Note_on_c, 4, 40, 95
4, 89760, Note_off_c, 4, 40, 95
4, 89760, Note_on_c, 4, 40, 95
4, 90240, Note_off_c, 4, 40, 95
4, 90240, Note_on_c, 4, 40, 95
4, 90720, Note_off_c, 4, 40, 95
4, 90720, Note_on_c, 4, 40, 95
4, 91200, Note_off_c, 4, 40, 95
4, 91200, Note_on_c, 4, 40, 95
4, 91680, Note_off_c, 4, 40, 95
4, 91680, Note_on_c, 4, 40, 95
4, 92640, Note_off_c, 4, 40, 95
4, 92640, Note_on_c, 4, 52, 95
4, 93120, Note_off_c, 4, 52, 95
4, 93120, Note_on_c, 4, 55, 95
4, 93600, Note_off_c, 4, 55, 95
4, 93600, Note_on_c, 4, 52, 95
4, 94080, Note_off_c, 4, 52, 95
4, 94080, Note_on_c, 4, 57, 95
4, 94560, Note_off_c, 4, 57, 95
4, 94560, Note_on_c, 4, 52, 95
4, 95040, Note_off_c, 4, 52, 95
4, 95040, Note_on_c, 4, 55, 95
4, 95520, Note_off_c, 4, 55, 95
4, 95520, Note_on_c, 4, 40, 95
4, 96480, Note_off_c, 4, 40, 95
4, 96480, Note_on_c, 4, 40, 95
4, 96960, Note_off_c, 4, 40, 95
4, 96960, Note_on_c, 4, 40, 95
4, 97440, Note_off_c, 4, 40, 95
4, 97440, Note_on_c, 4, 40, 95
4, 97920, Note_off_c, 4, 40, 95
4, 97920, Note_on_c, 4, 40, 95
4, 98400, Note_off_c, 4, 40, 95
4, 98400, Note_on_c, 4, 40, 95
4, 98880, Note_off_c, 4, 40, 95
4, 98880, Note_on_c, 4, 40, 95
4, 99360, Note_off_c, 4, 40, 95
4, 99360, Note_on_c, 4, 40, 95
4, 99840, Note_off_c, 4, 40, 95
4, 99840, Note_on_c, 4, 40, 95
4, 100320, Note_off_c, 4, 40, 95
4, 100320, Note_on_c, 4, 40, 95
4, 100800, Note_off_c, 4, 40, 95
4, 100800, Note_on_c, 4, 40, 95
4, 101280, Note_off_c, 4, 40, 95
4, 101280, Note_on_c, 4, 40, 95
4, 101760, Note_off_c, 4, 40, 95
4, 101760, Note_on_c, 4, 40, 95
4, 102240, Note_off_c, 4, 40, 95
4, 102240, Note_on_c, 4, 40, 95
4, 102720, Note_off_c, 4, 40, 95
4, 102720, Note_on_c, 4, 40, 95
4, 103200, Note_off_c, 4, 40, 95
4, 103200, Note_on_c, 4, 48, 95
4, 104160, Note_off_c, 4, 48, 95
4, 104160, Note_on_c, 4, 48, 95
4, 104640, Note_off_c, 4, 48, 95
4, 104640, Note_on_c, 4, 48, 95
4, 105120, Note_off_c, 4, 48, 95
4, 105120, Note_on_c, 4, 48, 95
4, 105600, Note_off_c, 4, 48, 95
4, 105600, Note_on_c, 4, 48, 95
4, 106080, Note_off_c, 4, 48, 95
4, 106080, Note_on_c, 4, 48, 95
4, 106560, Note_off_c, 4, 48, 95
4, 106560, Note_on_c, 4, 48, 95
4, 107040, Note_off_c, 4, 48, 95
4, 107040, Note_on_c, 4, 48, 95
4, 107520, Note_off_c, 4, 48, 95
4, 107520, Note_on_c, 4, 48, 95
4, 108000, Note_off_c, 4, 48, 95
4, 108000, Note_on_c, 4, 48, 95
4, 108480, Note_off_c, 4, 48, 95
4, 108480, Note_on_c, 4, 48, 95
4, 108960, Note_off_c, 4, 48, 95
4, 108960, Note_on_c, 4, 48, 95
4, 109440, Note_off_c, 4, 48, 95
4, 109440, Note_on_c, 4, 50, 95
4, 109920, Note_off_c, 4, 50, 95
4, 109920, Note_on_c, 4, 48, 95
4, 110400, Note_off_c, 4, 48, 95
4, 110400, Note_on_c, 4, 47, 95
4, 110880, Note_off_c, 4, 47, 95
4, 110880, Note_on_c, 4, 40, 95
4, 111840, Note_off_c, 4, 40, 95
4, 111840, Note_on_c, 4, 40, 95
4, 112320, Note_off_c, 4, 40, 95
4, 112320, Note_on_c, 4, 40, 95
4, 112800, Note_off_c, 4, 40, 95
4, 112800, Note_on_c, 4, 40, 95
4, 113280, Note_off_c, 4, 40, 95
4, 113280, Note_on_c, 4, 40, 95
4, 113760, Note_off_c, 4, 40, 95
4, 113760, Note_on_c, 4, 40, 95
4, 114240, Note_off_c, 4, 40, 95
4, 114240, Note_on_c, 4, 40, 95
4, 114720, Note_off_c, 4, 40, 95
4, 114720, Note_on_c, 4, 40, 95
4, 115200, Note_off_c, 4, 40, 95
4, 115200, Note_on_c, 4, 40, 95
4, 115680, Note_off_c, 4, 40, 95
4, 115680, Note_on_c, 4, 40, 95
4, 116160, Note_off_c, 4, 40, 95
4, 116160, Note_on_c, 4, 40, 95
4, 116640, Note_off_c, 4, 40, 95
4, 116640, Note_on_c, 4, 40, 95
4, 117120, Note_off_c, 4, 40, 95
4, 117120, Note_on_c, 4, 40, 95
4, 117600, Note_off_c, 4, 40, 95
4, 117600, Note_on_c, 4, 43, 95
4, 118080, Note_off_c, 4, 43, 95
4, 118080, Note_on_c, 4, 40, 95
4, 118560, Note_off_c, 4, 40, 95
4, 118560, Note_on_c, 4, 48, 95
4, 119520, Note_off_c, 4, 48, 95
4, 119520, Note_on_c, 4, 48, 95
4, 120000, Note_off_c, 4, 48, 95
4, 120000, Note_on_c, 4, 48, 95
4, 120480, Note_off_c, 4, 48, 95
4, 120480, Note_on_c, 4, 48, 95
4, 120960, Note_off_c, 4, 48, 95
4, 120960, Note_on_c, 4, 48, 95
4, 121440, Note_off_c, 4, 48, 95
4, 121440, Note_on_c, 4, 48, 95
4, 121920, Note_off_c, 4, 48, 95
4, 121920, Note_on_c, 4, 48, 95
4, 122400, Note_off_c, 4, 48, 95
4, 122400, Note_on_c, 4, 48, 95
4, 122880, Note_off_c, 4, 48, 95
4, 122880, Note_on_c, 4, 48, 95
4, 123360, Note_off_c, 4, 48, 95
4, 123360, Note_on_c, 4, 48, 95
4, 123840, Note_off_c, 4, 48, 95
4, 123840, Note_on_c, 4, 48, 95
4, 124320, Note_off_c, 4, 48, 95
4, 124320, Note_on_c, 4, 48, 95
4, 124800, Note_off_c, 4, 48, 95
4, 124800, Note_on_c, 4, 50, 95
4, 125280, Note_off_c, 4, 50, 95
4, 125280, Note_on_c, 4, 48, 95
4, 125760, Note_off_c, 4, 48, 95
4, 125760, Note_on_c, 4, 47, 95
4, 126240, Note_off_c, 4, 47, 95
4, 126240, Note_on_c, 4, 40, 95
4, 127200, Note_off_c, 4, 40, 95
4, 127200, Note_on_c, 4, 40, 95
4, 127680, Note_off_c, 4, 40, 95
4, 127680, Note_on_c, 4, 40, 95
4, 128160, Note_off_c, 4, 40, 95
4, 128160, Note_on_c, 4, 40, 95
4, 128640, Note_off_c, 4, 40, 95
4, 128640, Note_on_c, 4, 40, 95
4, 129120, Note_off_c, 4, 40, 95
4, 129120, Note_on_c, 4, 40, 95
4, 129600, Note_off_c, 4, 40, 95
4, 129600, Note_on_c, 4, 40, 95
4, 130080, Note_off_c, 4, 40, 95
4, 130080, Note_on_c, 4, 40, 95
4, 130560, Note_off_c, 4, 40, 95
4, 130560, Note_on_c, 4, 40, 95
4, 131040, Note_off_c, 4, 40, 95
4, 131040, Note_on_c, 4, 40, 95
4, 131520, Note_off_c, 4, 40, 95
4, 131520, Note_on_c, 4, 40, 95
4, 132000, Note_off_c, 4, 40, 95
4, 132000, Note_on_c, 4, 40, 95
4, 132480, Note_off_c, 4, 40, 95
4, 132480, Note_on_c, 4, 40, 95
4, 132960, Note_off_c, 4, 40, 95
4, 132960, Note_on_c, 4, 43, 95
4, 133440, Note_off_c, 4, 43, 95
4, 133440, Note_on_c, 4, 40, 95
4, 133920, Note_off_c, 4, 40, 95
4, 133920, Note_on_c, 4, 48, 95
4, 134880, Note_off_c, 4, 48, 95
4, 134880, Note_on_c, 4, 48, 95
4, 135360, Note_off_c, 4, 48, 95
4, 135360, Note_on_c, 4, 48, 95
4, 135840, Note_off_c, 4, 48, 95
4, 135840, Note_on_c, 4, 48, 95
4, 136320, Note_off_c, 4, 48, 95
4, 136320, Note_on_c, 4, 48, 95
4, 136800, Note_off_c, 4, 48, 95
4, 136800, Note_on_c, 4, 48, 95
4, 137280, Note_off_c, 4, 48, 95
4, 137280, Note_on_c, 4, 48, 95
4, 137760, Note_off_c, 4, 48, 95
4, 137760, Note_on_c, 4, 48, 95
4, 138240, Note_off_c, 4, 48, 95
4, 138240, Note_on_c, 4, 48, 95
4, 138720, Note_off_c, 4, 48, 95
4, 138720, Note_on_c, 4, 48, 95
4, 139200, Note_off_c, 4, 48, 95
4, 139200, Note_on_c, 4, 48, 95
4, 139680, Note_off_c, 4, 48, 95
4, 139680, Note_on_c, 4, 48, 95
4, 140160, Note_off_c, 4, 48, 95
4, 140160, Note_on_c, 4, 50, 95
4, 140640, Note_off_c, 4, 50, 95
4, 140640, Note_on_c, 4, 48, 95
4, 141120, Note_off_c, 4, 48, 95
4, 141120, Note_on_c, 4, 47, 95
4, 141600, Note_off_c, 4, 47, 95
4, 141600, Note_on_c, 4, 40, 95
4, 142560, Note_off_c, 4, 40, 95
4, 142560, Note_on_c, 4, 40, 95
4, 143040, Note_off_c, 4, 40, 95
4, 143040, Note_on_c, 4, 40, 95
4, 143520, Note_off_c, 4, 40, 95
4, 143520, Note_on_c, 4, 40, 95
4, 144000, Note_off_c, 4, 40, 95
4, 144000, Note_on_c, 4, 40, 95
4, 144480, Note_off_c, 4, 40, 95
4, 144480, Note_on_c, 4, 40, 95
4, 144960, Note_off_c, 4, 40, 95
4, 144960, Note_on_c, 4, 40, 95
4, 145440, Note_off_c, 4, 40, 95
4, 145440, Note_on_c, 4, 40, 95
4, 145920, Note_off_c, 4, 40, 95
4, 145920, Note_on_c, 4, 40, 95
4, 146400, Note_off_c, 4, 40, 95
4, 146400, Note_on_c, 4, 40, 95
4, 146880, Note_off_c, 4, 40, 95
4, 146880, Note_on_c, 4, 40, 95
4, 147360, Note_off_c, 4, 40, 95
4, 147360, Note_on_c, 4, 40, 95
4, 147840, Note_off_c, 4, 40, 95
4, 147840, Note_on_c, 4, 40, 95
4, 148320, Note_off_c, 4, 40, 95
4, 148320, Note_on_c, 4, 43, 95
4, 148800, Note_off_c, 4, 43, 95
4, 148800, Note_on_c, 4, 40, 95
4, 149280, Note_off_c, 4, 40, 95
4, 149280, Note_on_c, 4, 48, 95
4, 150240, Note_off_c, 4, 48, 95
4, 150240, Note_on_c, 4, 48, 95
4, 150720, Note_off_c, 4, 48, 95
4, 150720, Note_on_c, 4, 48, 95
4, 151200, Note_off_c, 4, 48, 95
4, 151200, Note_on_c, 4, 48, 95
4, 151680, Note_off_c, 4, 48, 95
4, 151680, Note_on_c, 4, 48, 95
4, 152160, Note_off_c, 4, 48, 95
4, 152160, Note_on_c, 4, 48, 95
4, 152640, Note_off_c, 4, 48, 95
4, 152640, Note_on_c, 4, 48, 95
4, 153120, Note_off_c, 4, 48, 95
4, 153120, Note_on_c, 4, 48, 95
4, 153600, Note_off_c, 4, 48, 95
4, 153600, Note_on_c, 4, 55, 95
4, 154080, Note_off_c, 4, 55, 95
4, 154080, Note_on_c, 4, 55, 95
4, 154560, Note_off_c, 4, 55, 95
4, 154560, Note_on_c, 4, 55, 95
4, 155040, Note_off_c, 4, 55, 95
4, 155040, Note_on_c, 4, 55, 95
4, 155520, Note_off_c, 4, 55, 95
4, 155520, Note_on_c, 4, 55, 95
4, 156000, Note_off_c, 4, 55, 95
4, 156000, Note_on_c, 4, 55, 95
4, 156480, Note_off_c, 4, 55, 95
4, 156480, Note_on_c, 4, 55, 95
4, 156960, Note_off_c, 4, 55, 95
4, 156960, Note_on_c, 4, 46, 95
4, 157920, Note_off_c, 4, 46, 95
4, 157920, Note_on_c, 4, 46, 95
4, 158400, Note_off_c, 4, 46, 95
4, 158400, Note_on_c, 4, 46, 95
4, 158880, Note_off_c, 4, 46, 95
4, 158880, Note_on_c, 4, 46, 95
4, 159360, Note_off_c, 4, 46, 95
4, 159360, Note_on_c, 4, 46, 95
4, 159840, Note_off_c, 4, 46, 95
4, 159840, Note_on_c, 4, 46, 95
4, 160320, Note_off_c, 4, 46, 95
4, 160320, Note_on_c, 4, 46, 95
4, 160800, Note_off_c, 4, 46, 95
4, 160800, Note_on_c, 4, 46, 95
4, 161280, Note_off_c, 4, 46, 95
4, 161280, Note_on_c, 4, 46, 95
4, 161760, Note_off_c, 4, 46, 95
4, 161760, Note_on_c, 4, 46, 95
4, 162240, Note_off_c, 4, 46, 95
4, 162240, Note_on_c, 4, 46, 95
4, 162720, Note_off_c, 4, 46, 95
4, 162720, Note_on_c, 4, 46, 95
4, 163200, Note_off_c, 4, 46, 95
4, 163200, Note_on_c, 4, 46, 95
4, 163680, Note_off_c, 4, 46, 95
4, 163680, Note_on_c, 4, 45, 95
4, 164160, Note_off_c, 4, 45, 95
4, 164160, Note_on_c, 4, 43, 95
4, 164640, Note_off_c, 4, 43, 95
4, 164640, Note_on_c, 4, 40, 95
4, 165600, Note_off_c, 4, 40, 95
4, 165600, Note_on_c, 4, 40, 95
4, 166080, Note_off_c, 4, 40, 95
4, 166080, Note_on_c, 4, 40, 95
4, 166560, Note_off_c, 4, 40, 95
4, 166560, Note_on_c, 4, 40, 95
4, 167040, Note_off_c, 4, 40, 95
4, 167040, Note_on_c, 4, 40, 95
4, 167520, Note_off_c, 4, 40, 95
4, 167520, Note_on_c, 4, 40, 95
4, 168000, Note_off_c, 4, 40, 95
4, 168000, Note_on_c, 4, 40, 95
4, 168480, Note_off_c, 4, 40, 95
4, 168480, Note_on_c, 4, 40, 95
4, 168960, Note_off_c, 4, 40, 95
4, 168960, Note_on_c, 4, 40, 95
4, 169440, Note_off_c, 4, 40, 95
4, 169440, Note_on_c, 4, 40, 95
4, 169920, Note_off_c, 4, 40, 95
4, 169920, Note_on_c, 4, 40, 95
4, 170400, Note_off_c, 4, 40, 95
4, 170400, Note_on_c, 4, 40, 95
4, 170880, Note_off_c, 4, 40, 95
4, 170880, Note_on_c, 4, 40, 95
4, 171360, Note_off_c, 4, 40, 95
4, 171360, Note_on_c, 4, 43, 95
4, 171840, Note_off_c, 4, 43, 95
4, 171840, Note_on_c, 4, 45, 95
4, 172320, Note_off_c, 4, 45, 95
4, 172320, Note_on_c, 4, 46, 95
4, 173280, Note_off_c, 4, 46, 95
4, 173280, Note_on_c, 4, 46, 95
4, 173760, Note_off_c, 4, 46, 95
4, 173760, Note_on_c, 4, 46, 95
4, 174240, Note_off_c, 4, 46, 95
4, 174240, Note_on_c, 4, 46, 95
4, 174720, Note_off_c, 4, 46, 95
4, 174720, Note_on_c, 4, 46, 95
4, 175200, Note_off_c, 4, 46, 95
4, 175200, Note_on_c, 4, 46, 95
4, 175680, Note_off_c, 4, 46, 95
4, 175680, Note_on_c, 4, 46, 95
4, 176160, Note_off_c, 4, 46, 95
4, 176160, Note_on_c, 4, 46, 95
4, 176640, Note_off_c, 4, 46, 95
4, 176640, Note_on_c, 4, 46, 95
4, 177120, Note_off_c, 4, 46, 95
4, 177120, Note_on_c, 4, 46, 95
4, 177600, Note_off_c, 4, 46, 95
4, 177600, Note_on_c, 4, 46, 95
4, 178080, Note_off_c, 4, 46, 95
4, 178080, Note_on_c, 4, 46, 95
4, 178560, Note_off_c, 4, 46, 95
4, 178560, Note_on_c, 4, 46, 95
4, 179040, Note_off_c, 4, 46, 95
4, 179040, Note_on_c, 4, 45, 95
4, 179520, Note_off_c, 4, 45, 95
4, 179520, Note_on_c, 4, 43, 95
4, 180000, Note_off_c, 4, 43, 95
4, 180000, Note_on_c, 4, 40, 95
4, 180960, Note_off_c, 4, 40, 95
4, 180960, Note_on_c, 4, 40, 95
4, 181440, Note_off_c, 4, 40, 95
4, 181440, Note_on_c, 4, 40, 95
4, 181920, Note_off_c, 4, 40, 95
4, 181920, Note_on_c, 4, 40, 95
4, 182400, Note_off_c, 4, 40, 95
4, 182400, Note_on_c, 4, 40, 95
4, 182880, Note_off_c, 4, 40, 95
4, 182880, Note_on_c, 4, 40, 95
4, 183360, Note_off_c, 4, 40, 95
4, 183360, Note_on_c, 4, 40, 95
4, 183840, Note_off_c, 4, 40, 95
4, 183840, Note_on_c, 4, 40, 95
4, 184320, Note_off_c, 4, 40, 95
4, 184320, Note_on_c, 4, 40, 95
4, 184800, Note_off_c, 4, 40, 95
4, 187680, Note_on_c, 4, 45, 95
4, 188640, Note_off_c, 4, 45, 95
4, 188640, Note_on_c, 4, 45, 95
4, 189120, Note_off_c, 4, 45, 95
4, 189120, Note_on_c, 4, 45, 95
4, 189600, Note_off_c, 4, 45, 95
4, 189600, Note_on_c, 4, 45, 95
4, 190080, Note_off_c, 4, 45, 95
4, 190080, Note_on_c, 4, 45, 95
4, 190560, Note_off_c, 4, 45, 95
4, 190560, Note_on_c, 4, 45, 95
4, 191040, Note_off_c, 4, 45, 95
4, 191040, Note_on_c, 4, 45, 95
4, 191520, Note_off_c, 4, 45, 95
4, 191520, Note_on_c, 4, 45, 95
4, 192000, Note_off_c, 4, 45, 95
4, 192000, Note_on_c, 4, 45, 95
4, 192480, Note_off_c, 4, 45, 95
4, 192480, Note_on_c, 4, 45, 95
4, 192960, Note_off_c, 4, 45, 95
4, 192960, Note_on_c, 4, 45, 95
4, 193440, Note_off_c, 4, 45, 95
4, 193440, Note_on_c, 4, 45, 95
4, 193920, Note_off_c, 4, 45, 95
4, 193920, Note_on_c, 4, 45, 95
4, 194400, Note_off_c, 4, 45, 95
4, 194400, Note_on_c, 4, 45, 95
4, 194880, Note_off_c, 4, 45, 95
4, 194880, Note_on_c, 4, 45, 95
4, 195360, Note_off_c, 4, 45, 95
4, 195360, Note_on_c, 4, 41, 95
4, 196320, Note_off_c, 4, 41, 95
4, 196320, Note_on_c, 4, 41, 95
4, 196800, Note_off_c, 4, 41, 95
4, 196800, Note_on_c, 4, 41, 95
4, 197280, Note_off_c, 4, 41, 95
4, 197280, Note_on_c, 4, 41, 95
4, 197760, Note_off_c, 4, 41, 95
4, 197760, Note_on_c, 4, 41, 95
4, 198240, Note_off_c, 4, 41, 95
4, 198240, Note_on_c, 4, 41, 95
4, 198720, Note_off_c, 4, 41, 95
4, 198720, Note_on_c, 4, 41, 95
4, 199200, Note_off_c, 4, 41, 95
4, 199200, Note_on_c, 4, 41, 95
4, 199680, Note_off_c, 4, 41, 95
4, 199680, Note_on_c, 4, 41, 95
4, 200160, Note_off_c, 4, 41, 95
4, 200160, Note_on_c, 4, 41, 95
4, 200640, Note_off_c, 4, 41, 95
4, 200640, Note_on_c, 4, 41, 95
4, 201120, Note_off_c, 4, 41, 95
4, 201120, Note_on_c, 4, 41, 95
4, 201600, Note_off_c, 4, 41, 95
4, 201600, Note_on_c, 4, 41, 95
4, 202080, Note_off_c, 4, 41, 95
4, 202080, Note_on_c, 4, 41, 95
4, 202560, Note_off_c, 4, 41, 95
4, 202560, Note_on_c, 4, 41, 95
4, 203040, Note_off_c, 4, 41, 95
4, 203040, Note_on_c, 4, 43, 95
4, 204000, Note_off_c, 4, 43, 95
4, 204000, Note_on_c, 4, 43, 95
4, 204480, Note_off_c, 4, 43, 95
4, 204480, Note_on_c, 4, 43, 95
4, 204960, Note_off_c, 4, 43, 95
4, 204960, Note_on_c, 4, 43, 95
4, 205440, Note_off_c, 4, 43, 95
4, 205440, Note_on_c, 4, 43, 95
4, 205920, Note_off_c, 4, 43, 95
4, 205920, Note_on_c, 4, 43, 95
4, 206400, Note_off_c, 4, 43, 95
4, 206400, Note_on_c, 4, 43, 95
4, 206880, Note_off_c, 4, 43, 95
4, 206880, Note_on_c, 4, 43, 95
4, 207360, Note_off_c, 4, 43, 95
4, 207360, Note_on_c, 4, 43, 95
4, 207840, Note_off_c, 4, 43, 95
4, 207840, Note_on_c, 4, 43, 95
4, 208320, Note_off_c, 4, 43, 95
4, 208320, Note_on_c, 4, 43, 95
4, 208800, Note_off_c, 4, 43, 95
4, 208800, Note_on_c, 4, 43, 95
4, 209280, Note_off_c, 4, 43, 95
4, 209280, Note_on_c, 4, 43, 95
4, 209760, Note_off_c, 4, 43, 95
4, 209760, Note_on_c, 4, 43, 95
4, 210240, Note_off_c, 4, 43, 95
4, 210240, Note_on_c, 4, 43, 95
4, 210720, Note_off_c, 4, 43, 95
4, 210720, Note_on_c, 4, 45, 95
4, 211680, Note_off_c, 4, 45, 95
4, 211680, Note_on_c, 4, 45, 95
4, 212160, Note_off_c, 4, 45, 95
4, 212160, Note_on_c, 4, 45, 95
4, 212640, Note_off_c, 4, 45, 95
4, 212640, Note_on_c, 4, 45, 95
4, 213120, Note_off_c, 4, 45, 95
4, 213120, Note_on_c, 4, 45, 95
4, 213600, Note_off_c, 4, 45, 95
4, 213600, Note_on_c, 4, 45, 95
4, 214080, Note_off_c, 4, 45, 95
4, 214080, Note_on_c, 4, 45, 95
4, 214560, Note_off_c, 4, 45, 95
4, 214560, Note_on_c, 4, 45, 95
4, 215040, Note_off_c, 4, 45, 95
4, 215040, Note_on_c, 4, 45, 95
4, 215520, Note_off_c, 4, 45, 95
4, 215520, Note_on_c, 4, 48, 95
4, 216000, Note_off_c, 4, 48, 95
4, 216000, Note_on_c, 4, 47, 95
4, 216480, Note_off_c, 4, 47, 95
4, 216480, Note_on_c, 4, 45, 95
4, 216960, Note_off_c, 4, 45, 95
4, 216960, Note_on_c, 4, 48, 95
4, 217440, Note_off_c, 4, 48, 95
4, 217440, Note_on_c, 4, 47, 95
4, 217920, Note_off_c, 4, 47, 95
4, 217920, Note_on_c, 4, 45, 95
4, 218400, Note_off_c, 4, 45, 95
4, 218400, Note_on_c, 4, 45, 95
4, 219360, Note_off_c, 4, 45, 95
4, 219360, Note_on_c, 4, 45, 95
4, 219840, Note_off_c, 4, 45, 95
4, 219840, Note_on_c, 4, 45, 95
4, 220320, Note_off_c, 4, 45, 95
4, 220320, Note_on_c, 4, 45, 95
4, 220800, Note_off_c, 4, 45, 95
4, 220800, Note_on_c, 4, 45, 95
4, 221280, Note_off_c, 4, 45, 95
4, 221280, Note_on_c, 4, 45, 95
4, 221760, Note_off_c, 4, 45, 95
4, 221760, Note_on_c, 4, 45, 95
4, 222240, Note_off_c, 4, 45, 95
4, 222240, Note_on_c, 4, 45, 95
4, 222720, Note_off_c, 4, 45, 95
4, 222720, Note_on_c, 4, 45, 95
4, 223200, Note_off_c, 4, 45, 95
4, 223200, Note_on_c, 4, 45, 95
4, 223680, Note_off_c, 4, 45, 95
4, 223680, Note_on_c, 4, 45, 95
4, 224160, Note_off_c, 4, 45, 95
4, 224160, Note_on_c, 4, 45, 95
4, 224640, Note_off_c, 4, 45, 95
4, 224640, Note_on_c, 4, 45, 95
4, 225120, Note_off_c, 4, 45, 95
4, 225120, Note_on_c, 4, 45, 95
4, 225600, Note_off_c, 4, 45, 95
4, 225600, Note_on_c, 4, 45, 95
4, 226080, Note_off_c, 4, 45, 95
4, 226080, Note_on_c, 4, 41, 95
4, 227040, Note_off_c, 4, 41, 95
4, 227040, Note_on_c, 4, 41, 95
4, 227520, Note_off_c, 4, 41, 95
4, 227520, Note_on_c, 4, 41, 95
4, 228000, Note_off_c, 4, 41, 95
4, 228000, Note_on_c, 4, 41, 95
4, 228480, Note_off_c, 4, 41, 95
4, 228480, Note_on_c, 4, 41, 95
4, 228960, Note_off_c, 4, 41, 95
4, 228960, Note_on_c, 4, 41, 95
4, 229440, Note_off_c, 4, 41, 95
4, 229440, Note_on_c, 4, 41, 95
4, 229920, Note_off_c, 4, 41, 95
4, 229920, Note_on_c, 4, 41, 95
4, 230400, Note_off_c, 4, 41, 95
4, 230400, Note_on_c, 4, 41, 95
4, 230880, Note_off_c, 4, 41, 95
4, 230880, Note_on_c, 4, 41, 95
4, 231360, Note_off_c, 4, 41, 95
4, 231360, Note_on_c, 4, 41, 95
4, 231840, Note_off_c, 4, 41, 95
4, 231840, Note_on_c, 4, 41, 95
4, 232320, Note_off_c, 4, 41, 95
4, 232320, Note_on_c, 4, 41, 95
4, 232800, Note_off_c, 4, 41, 95
4, 232800, Note_on_c, 4, 41, 95
4, 233280, Note_off_c, 4, 41, 95
4, 233280, Note_on_c, 4, 41, 95
4, 233760, Note_off_c, 4, 41, 95
4, 233760, Note_on_c, 4, 43, 95
4, 234720, Note_off_c, 4, 43, 95
4, 234720, Note_on_c, 4, 43, 95
4, 235200, Note_off_c, 4, 43, 95
4, 235200, Note_on_c, 4, 43, 95
4, 235680, Note_off_c, 4, 43, 95
4, 235680, Note_on_c, 4, 43, 95
4, 236160, Note_off_c, 4, 43, 95
4, 236160, Note_on_c, 4, 43, 95
4, 236640, Note_off_c, 4, 43, 95
4, 236640, Note_on_c, 4, 43, 95
4, 237120, Note_off_c, 4, 43, 95
4, 237120, Note_on_c, 4, 43, 95
4, 237600, Note_off_c, 4, 43, 95
4, 237600, Note_on_c, 4, 43, 95
4, 238080, Note_off_c, 4, 43, 95
4, 238080, Note_on_c, 4, 43, 95
4, 238560, Note_off_c, 4, 43, 95
4, 238560, Note_on_c, 4, 43, 95
4, 239040, Note_off_c, 4, 43, 95
4, 239040, Note_on_c, 4, 43, 95
4, 239520, Note_off_c, 4, 43, 95
4, 239520, Note_on_c, 4, 43, 95
4, 240000, Note_off_c, 4, 43, 95
4, 240000, Note_on_c, 4, 43, 95
4, 240480, Note_off_c, 4, 43, 95
4, 240480, Note_on_c, 4, 43, 95
4, 240960, Note_off_c, 4, 43, 95
4, 240960, Note_on_c, 4, 43, 95
4, 241440, Note_off_c, 4, 43, 95
4, 241440, Note_on_c, 4, 45, 95
4, 242400, Note_off_c, 4, 45, 95
4, 242400, Note_on_c, 4, 45, 95
4, 242880, Note_off_c, 4, 45, 95
4, 242880, Note_on_c, 4, 45, 95
4, 243360, Note_off_c, 4, 45, 95
4, 243360, Note_on_c, 4, 45, 95
4, 243840, Note_off_c, 4, 45, 95
4, 243840, Note_on_c, 4, 45, 95
4, 244320, Note_off_c, 4, 45, 95
4, 244320, Note_on_c, 4, 45, 95
4, 244800, Note_off_c, 4, 45, 95
4, 244800, Note_on_c, 4, 45, 95
4, 245280, Note_off_c, 4, 45, 95
4, 245280, Note_on_c, 4, 45, 95
4, 245760, Note_off_c, 4, 45, 95
4, 245760, Note_on_c, 4, 45, 95
4, 246240, Note_off_c, 4, 45, 95
4, 246240, Note_on_c, 4, 48, 95
4, 246720, Note_off_c, 4, 48, 95
4, 246720, Note_on_c, 4, 47, 95
4, 247200, Note_off_c, 4, 47, 95
4, 247200, Note_on_c, 4, 45, 95
4, 247680, Note_off_c, 4, 45, 95
4, 247680, Note_on_c, 4, 48, 95
4, 248160, Note_off_c, 4, 48, 95
4, 248160, Note_on_c, 4, 47, 95
4, 248640, Note_off_c, 4, 47, 95
4, 248640, Note_on_c, 4, 45, 95
4, 249120, Note_off_c, 4, 45, 95
4, 249120, Note_on_c, 4, 40, 95
4, 250080, Note_off_c, 4, 40, 95
4, 250080, Note_on_c, 4, 40, 95
4, 250560, Note_off_c, 4, 40, 95
4, 250560, Note_on_c, 4, 40, 95
4, 251040, Note_off_c, 4, 40, 95
4, 251040, Note_on_c, 4, 40, 95
4, 251520, Note_off_c, 4, 40, 95
4, 251520, Note_on_c, 4, 40, 95
4, 252000, Note_off_c, 4, 40, 95
4, 252000, Note_on_c, 4, 40, 95
4, 252480, Note_off_c, 4, 40, 95
4, 252480, Note_on_c, 4, 40, 95
4, 252960, Note_off_c, 4, 40, 95
4, 252960, Note_on_c, 4, 40, 95
4, 253440, Note_off_c, 4, 40, 95
4, 253440, Note_on_c, 4, 40, 95
4, 253920, Note_off_c, 4, 40, 95
4, 253920, Note_on_c, 4, 40, 95
4, 254400, Note_off_c, 4, 40, 95
4, 254400, Note_on_c, 4, 40, 95
4, 254880, Note_off_c, 4, 40, 95
4, 254880, Note_on_c, 4, 40, 95
4, 255360, Note_off_c, 4, 40, 95
4, 255360, Note_on_c, 4, 40, 95
4, 255840, Note_off_c, 4, 40, 95
4, 255840, Note_on_c, 4, 40, 95
4, 256320, Note_off_c, 4, 40, 95
4, 256320, Note_on_c, 4, 40, 95
4, 256800, Note_off_c, 4, 40, 95
4, 256800, Note_on_c, 4, 48, 95
4, 257760, Note_off_c, 4, 48, 95
4, 257760, Note_on_c, 4, 48, 95
4, 258240, Note_off_c, 4, 48, 95
4, 258240, Note_on_c, 4, 48, 95
4, 258720, Note_off_c, 4, 48, 95
4, 258720, Note_on_c, 4, 48, 95
4, 259200, Note_off_c, 4, 48, 95
4, 259200, Note_on_c, 4, 48, 95
4, 259680, Note_off_c, 4, 48, 95
4, 259680, Note_on_c, 4, 48, 95
4, 260160, Note_off_c, 4, 48, 95
4, 260160, Note_on_c, 4, 48, 95
4, 260640, Note_off_c, 4, 48, 95
4, 260640, Note_on_c, 4, 48, 95
4, 261120, Note_off_c, 4, 48, 95
4, 261120, Note_on_c, 4, 48, 95
4, 261600, Note_off_c, 4, 48, 95
4, 261600, Note_on_c, 4, 48, 95
4, 262080, Note_off_c, 4, 48, 95
4, 262080, Note_on_c, 4, 48, 95
4, 262560, Note_off_c, 4, 48, 95
4, 262560, Note_on_c, 4, 48, 95
4, 263040, Note_off_c, 4, 48, 95
4, 263040, Note_on_c, 4, 50, 95
4, 263520, Note_off_c, 4, 50, 95
4, 263520, Note_on_c, 4, 48, 95
4, 264000, Note_off_c, 4, 48, 95
4, 264000, Note_on_c, 4, 47, 95
4, 264480, Note_off_c, 4, 47, 95
4, 264480, Note_on_c, 4, 40, 95
4, 265440, Note_off_c, 4, 40, 95
4, 265440, Note_on_c, 4, 40, 95
4, 265920, Note_off_c, 4, 40, 95
4, 265920, Note_on_c, 4, 40, 95
4, 266400, Note_off_c, 4, 40, 95
4, 266400, Note_on_c, 4, 40, 95
4, 266880, Note_off_c, 4, 40, 95
4, 266880, Note_on_c, 4, 40, 95
4, 267360, Note_off_c, 4, 40, 95
4, 267360, Note_on_c, 4, 40, 95
4, 267840, Note_off_c, 4, 40, 95
4, 267840, Note_on_c, 4, 40, 95
4, 268320, Note_off_c, 4, 40, 95
4, 268320, Note_on_c, 4, 40, 95
4, 268800, Note_off_c, 4, 40, 95
4, 268800, Note_on_c, 4, 40, 95
4, 269280, Note_off_c, 4, 40, 95
4, 269280, Note_on_c, 4, 40, 95
4, 269760, Note_off_c, 4, 40, 95
4, 269760, Note_on_c, 4, 40, 95
4, 270240, Note_off_c, 4, 40, 95
4, 270240, Note_on_c, 4, 40, 95
4, 270720, Note_off_c, 4, 40, 95
4, 270720, Note_on_c, 4, 40, 95
4, 271200, Note_off_c, 4, 40, 95
4, 271200, Note_on_c, 4, 43, 95
4, 271680, Note_off_c, 4, 43, 95
4, 271680, Note_on_c, 4, 40, 95
4, 272160, Note_off_c, 4, 40, 95
4, 272160, Note_on_c, 4, 48, 95
4, 273120, Note_off_c, 4, 48, 95
4, 273120, Note_on_c, 4, 48, 95
4, 273600, Note_off_c, 4, 48, 95
4, 273600, Note_on_c, 4, 48, 95
4, 274080, Note_off_c, 4, 48, 95
4, 274080, Note_on_c, 4, 48, 95
4, 274560, Note_off_c, 4, 48, 95
4, 274560, Note_on_c, 4, 48, 95
4, 275040, Note_off_c, 4, 48, 95
4, 275040, Note_on_c, 4, 48, 95
4, 275520, Note_off_c, 4, 48, 95
4, 275520, Note_on_c, 4, 48, 95
4, 276000, Note_off_c, 4, 48, 95
4, 276000, Note_on_c, 4, 48, 95
4, 276480, Note_off_c, 4, 48, 95
4, 276480, Note_on_c, 4, 48, 95
4, 276960, Note_off_c, 4, 48, 95
4, 276960, Note_on_c, 4, 48, 95
4, 277440, Note_off_c, 4, 48, 95
4, 277440, Note_on_c, 4, 48, 95
4, 277920, Note_off_c, 4, 48, 95
4, 277920, Note_on_c, 4, 48, 95
4, 278400, Note_off_c, 4, 48, 95
4, 278400, Note_on_c, 4, 50, 95
4, 278880, Note_off_c, 4, 50, 95
4, 278880, Note_on_c, 4, 48, 95
4, 279360, Note_off_c, 4, 48, 95
4, 279360, Note_on_c, 4, 47, 95
4, 279840, Note_off_c, 4, 47, 95
4, 279840, Note_on_c, 4, 40, 95
4, 280800, Note_off_c, 4, 40, 95
4, 280800, Note_on_c, 4, 40, 95
4, 281280, Note_off_c, 4, 40, 95
4, 281280, Note_on_c, 4, 40, 95
4, 281760, Note_off_c, 4, 40, 95
4, 281760, Note_on_c, 4, 40, 95
4, 282240, Note_off_c, 4, 40, 95
4, 282240, Note_on_c, 4, 40, 95
4, 282720, Note_off_c, 4, 40, 95
4, 282720, Note_on_c, 4, 40, 95
4, 283200, Note_off_c, 4, 40, 95
4, 283200, Note_on_c, 4, 40, 95
4, 283680, Note_off_c, 4, 40, 95
4, 283680, Note_on_c, 4, 40, 95
4, 284160, Note_off_c, 4, 40, 95
4, 284160, Note_on_c, 4, 40, 95
4, 284640, Note_off_c, 4, 40, 95
4, 284640, Note_on_c, 4, 40, 95
4, 285120, Note_off_c, 4, 40, 95
4, 285120, Note_on_c, 4, 40, 95
4, 285600, Note_off_c, 4, 40, 95
4, 285600, Note_on_c, 4, 40, 95
4, 286080, Note_off_c, 4, 40, 95
4, 286080, Note_on_c, 4, 40, 95
4, 286560, Note_off_c, 4, 40, 95
4, 286560, Note_on_c, 4, 43, 95
4, 287040, Note_off_c, 4, 43, 95
4, 287040, Note_on_c, 4, 40, 95
4, 287520, Note_off_c, 4, 40, 95
4, 287520, Note_on_c, 4, 48, 95
4, 288480, Note_off_c, 4, 48, 95
4, 288480, Note_on_c, 4, 48, 95
4, 288960, Note_off_c, 4, 48, 95
4, 288960, Note_on_c, 4, 48, 95
4, 289440, Note_off_c, 4, 48, 95
4, 289440, Note_on_c, 4, 48, 95
4, 289920, Note_off_c, 4, 48, 95
4, 289920, Note_on_c, 4, 48, 95
4, 290400, Note_off_c, 4, 48, 95
4, 290400, Note_on_c, 4, 48, 95
4, 290880, Note_off_c, 4, 48, 95
4, 290880, Note_on_c, 4, 48, 95
4, 291360, Note_off_c, 4, 48, 95
4, 291360, Note_on_c, 4, 48, 95
4, 291840, Note_off_c, 4, 48, 95
4, 291840, Note_on_c, 4, 48, 95
4, 292320, Note_off_c, 4, 48, 95
4, 292320, Note_on_c, 4, 48, 95
4, 292800, Note_off_c, 4, 48, 95
4, 292800, Note_on_c, 4, 48, 95
4, 293280, Note_off_c, 4, 48, 95
4, 293280, Note_on_c, 4, 48, 95
4, 293760, Note_off_c, 4, 48, 95
4, 293760, Note_on_c, 4, 50, 95
4, 294240, Note_off_c, 4, 50, 95
4, 294240, Note_on_c, 4, 48, 95
4, 294720, Note_off_c, 4, 48, 95
4, 294720, Note_on_c, 4, 47, 95
4, 295200, Note_off_c, 4, 47, 95
4, 295200, Note_on_c, 4, 40, 95
4, 296160, Note_off_c, 4, 40, 95
4, 296160, Note_on_c, 4, 40, 95
4, 296640, Note_off_c, 4, 40, 95
4, 296640, Note_on_c, 4, 40, 95
4, 297120, Note_off_c, 4, 40, 95
4, 297120, Note_on_c, 4, 40, 95
4, 297600, Note_off_c, 4, 40, 95
4, 297600, Note_on_c, 4, 40, 95
4, 298080, Note_off_c, 4, 40, 95
4, 298080, Note_on_c, 4, 40, 95
4, 298560, Note_off_c, 4, 40, 95
4, 298560, Note_on_c, 4, 40, 95
4, 299040, Note_off_c, 4, 40, 95
4, 299040, Note_on_c, 4, 40, 95
4, 299520, Note_off_c, 4, 40, 95
4, 299520, Note_on_c, 4, 40, 95
4, 300000, Note_off_c, 4, 40, 95
4, 300000, Note_on_c, 4, 40, 95
4, 300480, Note_off_c, 4, 40, 95
4, 300480, Note_on_c, 4, 40, 95
4, 300960, Note_off_c, 4, 40, 95
4, 300960, Note_on_c, 4, 40, 95
4, 301440, Note_off_c, 4, 40, 95
4, 301440, Note_on_c, 4, 40, 95
4, 301920, Note_off_c, 4, 40, 95
4, 301920, Note_on_c, 4, 43, 95
4, 302400, Note_off_c, 4, 43, 95
4, 302400, Note_on_c, 4, 40, 95
4, 302880, Note_off_c, 4, 40, 95
4, 302880, Note_on_c, 4, 48, 95
4, 303840, Note_off_c, 4, 48, 95
4, 303840, Note_on_c, 4, 48, 95
4, 304320, Note_off_c, 4, 48, 95
4, 304320, Note_on_c, 4, 48, 95
4, 304800, Note_off_c, 4, 48, 95
4, 304800, Note_on_c, 4, 48, 95
4, 305280, Note_off_c, 4, 48, 95
4, 305280, Note_on_c, 4, 48, 95
4, 305760, Note_off_c, 4, 48, 95
4, 305760, Note_on_c, 4, 48, 95
4, 306240, Note_off_c, 4, 48, 95
4, 306240, Note_on_c, 4, 48, 95
4, 306720, Note_off_c, 4, 48, 95
4, 306720, Note_on_c, 4, 48, 95
4, 307200, Note_off_c, 4, 48, 95
4, 307200, Note_on_c, 4, 55, 95
4, 307680, Note_off_c, 4, 55, 95
4, 307680, Note_on_c, 4, 55, 95
4, 308160, Note_off_c, 4, 55, 95
4, 308160, Note_on_c, 4, 55, 95
4, 308640, Note_off_c, 4, 55, 95
4, 308640, Note_on_c, 4, 55, 95
4, 309120, Note_off_c, 4, 55, 95
4, 309120, Note_on_c, 4, 55, 95
4, 309600, Note_off_c, 4, 55, 95
4, 309600, Note_on_c, 4, 55, 95
4, 310080, Note_off_c, 4, 55, 95
4, 310080, Note_on_c, 4, 55, 95
4, 310560, Note_off_c, 4, 55, 95
4, 310560, Note_on_c, 4, 46, 95
4, 311520, Note_off_c, 4, 46, 95
4, 311520, Note_on_c, 4, 46, 95
4, 312000, Note_off_c, 4, 46, 95
4, 312000, Note_on_c, 4, 46, 95
4, 312480, Note_off_c, 4, 46, 95
4, 312480, Note_on_c, 4, 46, 95
4, 312960, Note_off_c, 4, 46, 95
4, 312960, Note_on_c, 4, 46, 95
4, 313440, Note_off_c, 4, 46, 95
4, 313440, Note_on_c, 4, 46, 95
4, 313920, Note_off_c, 4, 46, 95
4, 313920, Note_on_c, 4, 46, 95
4, 314400, Note_off_c, 4, 46, 95
4, 314400, Note_on_c, 4, 46, 95
4, 314880, Note_off_c, 4, 46, 95
4, 314880, Note_on_c, 4, 46, 95
4, 315360, Note_off_c, 4, 46, 95
4, 315360, Note_on_c, 4, 46, 95
4, 315840, Note_off_c, 4, 46, 95
4, 315840, Note_on_c, 4, 46, 95
4, 316320, Note_off_c, 4, 46, 95
4, 316320, Note_on_c, 4, 46, 95
4, 316800, Note_off_c, 4, 46, 95
4, 316800, Note_on_c, 4, 46, 95
4, 317280, Note_off_c, 4, 46, 95
4, 317280, Note_on_c, 4, 45, 95
4, 317760, Note_off_c, 4, 45, 95
4, 317760, Note_on_c, 4, 43, 95
4, 318240, Note_off_c, 4, 43, 95
4, 318240, Note_on_c, 4, 40, 95
4, 319200, Note_off_c, 4, 40, 95
4, 319200, Note_on_c, 4, 40, 95
4, 319680, Note_off_c, 4, 40, 95
4, 319680, Note_on_c, 4, 40, 95
4, 320160, Note_off_c, 4, 40, 95
4, 320160, Note_on_c, 4, 40, 95
4, 320640, Note_off_c, 4, 40, 95
4, 320640, Note_on_c, 4, 40, 95
4, 321120, Note_off_c, 4, 40, 95
4, 321120, Note_on_c, 4, 40, 95
4, 321600, Note_off_c, 4, 40, 95
4, 321600, Note_on_c, 4, 40, 95
4, 322080, Note_off_c, 4, 40, 95
4, 322080, Note_on_c, 4, 40, 95
4, 322560, Note_off_c, 4, 40, 95
4, 322560, Note_on_c, 4, 40, 95
4, 323040, Note_off_c, 4, 40, 95
4, 323040, Note_on_c, 4, 40, 95
4, 323520, Note_off_c, 4, 40, 95
4, 323520, Note_on_c, 4, 40, 95
4, 324000, Note_off_c, 4, 40, 95
4, 324000, Note_on_c, 4, 40, 95
4, 324480, Note_off_c, 4, 40, 95
4, 324480, Note_on_c, 4, 40, 95
4, 324960, Note_off_c, 4, 40, 95
4, 324960, Note_on_c, 4, 43, 95
4, 325440, Note_off_c, 4, 43, 95
4, 325440, Note_on_c, 4, 45, 95
4, 325920, Note_off_c, 4, 45, 95
4, 325920, Note_on_c, 4, 46, 95
4, 326880, Note_off_c, 4, 46, 95
4, 326880, Note_on_c, 4, 46, 95
4, 327360, Note_off_c, 4, 46, 95
4, 327360, Note_on_c, 4, 46, 95
4, 327840, Note_off_c, 4, 46, 95
4, 327840, Note_on_c, 4, 46, 95
4, 328320, Note_off_c, 4, 46, 95
4, 328320, Note_on_c, 4, 46, 95
4, 328800, Note_off_c, 4, 46, 95
4, 328800, Note_on_c, 4, 46, 95
4, 329280, Note_off_c, 4, 46, 95
4, 329280, Note_on_c, 4, 46, 95
4, 329760, Note_off_c, 4, 46, 95
4, 329760, Note_on_c, 4, 46, 95
4, 330240, Note_off_c, 4, 46, 95
4, 330240, Note_on_c, 4, 46, 95
4, 330720, Note_off_c, 4, 46, 95
4, 330720, Note_on_c, 4, 46, 95
4, 331200, Note_off_c, 4, 46, 95
4, 331200, Note_on_c, 4, 46, 95
4, 331680, Note_off_c, 4, 46, 95
4, 331680, Note_on_c, 4, 46, 95
4, 332160, Note_off_c, 4, 46, 95
4, 332160, Note_on_c, 4, 46, 95
4, 332640, Note_off_c, 4, 46, 95
4, 332640, Note_on_c, 4, 45, 95
4, 333120, Note_off_c, 4, 45, 95
4, 333120, Note_on_c, 4, 43, 95
4, 333600, Note_off_c, 4, 43, 95
4, 333600, Note_on_c, 4, 40, 95
4, 334560, Note_off_c, 4, 40, 95
4, 334560, Note_on_c, 4, 40, 95
4, 335040, Note_off_c, 4, 40, 95
4, 335040, Note_on_c, 4, 40, 95
4, 335520, Note_off_c, 4, 40, 95
4, 335520, Note_on_c, 4, 40, 95
4, 336000, Note_off_c, 4, 40, 95
4, 336000, Note_on_c, 4, 40, 95
4, 336480, Note_off_c, 4, 40, 95
4, 336480, Note_on_c, 4, 40, 95
4, 336960, Note_off_c, 4, 40, 95
4, 336960, Note_on_c, 4, 40, 95
4, 337440, Note_off_c, 4, 40, 95
4, 337440, Note_on_c, 4, 40, 95
4, 337920, Note_off_c, 4, 40, 95
4, 337920, Note_on_c, 4, 40, 95
4, 338400, Note_off_c, 4, 40, 95
4, 341280, Note_on_c, 4, 45, 95
4, 342240, Note_off_c, 4, 45, 95
4, 342240, Note_on_c, 4, 45, 95
4, 342720, Note_off_c, 4, 45, 95
4, 342720, Note_on_c, 4, 45, 95
4, 343200, Note_off_c, 4, 45, 95
4, 343200, Note_on_c, 4, 45, 95
4, 343680, Note_off_c, 4, 45, 95
4, 343680, Note_on_c, 4, 45, 95
4, 344160, Note_off_c, 4, 45, 95
4, 344160, Note_on_c, 4, 45, 95
4, 344640, Note_off_c, 4, 45, 95
4, 344640, Note_on_c, 4, 45, 95
4, 345120, Note_off_c, 4, 45, 95
4, 345120, Note_on_c, 4, 45, 95
4, 345600, Note_off_c, 4, 45, 95
4, 345600, Note_on_c, 4, 45, 95
4, 346080, Note_off_c, 4, 45, 95
4, 346080, Note_on_c, 4, 45, 95
4, 346560, Note_off_c, 4, 45, 95
4, 346560, Note_on_c, 4, 45, 95
4, 347040, Note_off_c, 4, 45, 95
4, 347040, Note_on_c, 4, 45, 95
4, 347520, Note_off_c, 4, 45, 95
4, 347520, Note_on_c, 4, 45, 95
4, 348000, Note_off_c, 4, 45, 95
4, 348000, Note_on_c, 4, 45, 95
4, 348480, Note_off_c, 4, 45, 95
4, 348480, Note_on_c, 4, 45, 95
4, 348960, Note_off_c, 4, 45, 95
4, 348960, Note_on_c, 4, 41, 95
4, 349920, Note_off_c, 4, 41, 95
4, 349920, Note_on_c, 4, 41, 95
4, 350400, Note_off_c, 4, 41, 95
4, 350400, Note_on_c, 4, 41, 95
4, 350880, Note_off_c, 4, 41, 95
4, 350880, Note_on_c, 4, 41, 95
4, 351360, Note_off_c, 4, 41, 95
4, 351360, Note_on_c, 4, 41, 95
4, 351840, Note_off_c, 4, 41, 95
4, 351840, Note_on_c, 4, 41, 95
4, 352320, Note_off_c, 4, 41, 95
4, 352320, Note_on_c, 4, 41, 95
4, 352800, Note_off_c, 4, 41, 95
4, 352800, Note_on_c, 4, 41, 95
4, 353280, Note_off_c, 4, 41, 95
4, 353280, Note_on_c, 4, 41, 95
4, 353760, Note_off_c, 4, 41, 95
4, 353760, Note_on_c, 4, 41, 95
4, 354240, Note_off_c, 4, 41, 95
4, 354240, Note_on_c, 4, 41, 95
4, 354720, Note_off_c, 4, 41, 95
4, 354720, Note_on_c, 4, 41, 95
4, 355200, Note_off_c, 4, 41, 95
4, 355200, Note_on_c, 4, 41, 95
4, 355680, Note_off_c, 4, 41, 95
4, 355680, Note_on_c, 4, 41, 95
4, 356160, Note_off_c, 4, 41, 95
4, 356160, Note_on_c, 4, 41, 95
4, 356640, Note_off_c, 4, 41, 95
4, 356640, Note_on_c, 4, 43, 95
4, 357600, Note_off_c, 4, 43, 95
4, 357600, Note_on_c, 4, 43, 95
4, 358080, Note_off_c, 4, 43, 95
4, 358080, Note_on_c, 4, 43, 95
4, 358560, Note_off_c, 4, 43, 95
4, 358560, Note_on_c, 4, 43, 95
4, 359040, Note_off_c, 4, 43, 95
4, 359040, Note_on_c, 4, 43, 95
4, 359520, Note_off_c, 4, 43, 95
4, 359520, Note_on_c, 4, 43, 95
4, 360000, Note_off_c, 4, 43, 95
4, 360000, Note_on_c, 4, 43, 95
4, 360480, Note_off_c, 4, 43, 95
4, 360480, Note_on_c, 4, 43, 95
4, 360960, Note_off_c, 4, 43, 95
4, 360960, Note_on_c, 4, 43, 95
4, 361440, Note_off_c, 4, 43, 95
4, 361440, Note_on_c, 4, 43, 95
4, 361920, Note_off_c, 4, 43, 95
4, 361920, Note_on_c, 4, 43, 95
4, 362400, Note_off_c, 4, 43, 95
4, 362400, Note_on_c, 4, 43, 95
4, 362880, Note_off_c, 4, 43, 95
4, 362880, Note_on_c, 4, 43, 95
4, 363360, Note_off_c, 4, 43, 95
4, 363360, Note_on_c, 4, 43, 95
4, 363840, Note_off_c, 4, 43, 95
4, 363840, Note_on_c, 4, 43, 95
4, 364320, Note_off_c, 4, 43, 95
4, 364320, Note_on_c, 4, 45, 95
4, 365280, Note_off_c, 4, 45, 95
4, 365280, Note_on_c, 4, 45, 95
4, 365760, Note_off_c, 4, 45, 95
4, 365760, Note_on_c, 4, 45, 95
4, 366240, Note_off_c, 4, 45, 95
4, 366240, Note_on_c, 4, 45, 95
4, 366720, Note_off_c, 4, 45, 95
4, 366720, Note_on_c, 4, 45, 95
4, 367200, Note_off_c, 4, 45, 95
4, 367200, Note_on_c, 4, 45, 95
4, 367680, Note_off_c, 4, 45, 95
4, 367680, Note_on_c, 4, 45, 95
4, 368160, Note_off_c, 4, 45, 95
4, 368160, Note_on_c, 4, 45, 95
4, 368640, Note_off_c, 4, 45, 95
4, 368640, Note_on_c, 4, 45, 95
4, 369120, Note_off_c, 4, 45, 95
4, 369120, Note_on_c, 4, 48, 95
4, 369600, Note_off_c, 4, 48, 95
4, 369600, Note_on_c, 4, 47, 95
4, 370080, Note_off_c, 4, 47, 95
4, 370080, Note_on_c, 4, 45, 95
4, 370560, Note_off_c, 4, 45, 95
4, 370560, Note_on_c, 4, 48, 95
4, 371040, Note_off_c, 4, 48, 95
4, 371040, Note_on_c, 4, 47, 95
4, 371520, Note_off_c, 4, 47, 95
4, 371520, Note_on_c, 4, 45, 95
4, 372000, Note_off_c, 4, 45, 95
4, 372000, Note_on_c, 4, 45, 95
4, 372960, Note_off_c, 4, 45, 95
4, 372960, Note_on_c, 4, 45, 95
4, 373440, Note_off_c, 4, 45, 95
4, 373440, Note_on_c, 4, 45, 95
4, 373920, Note_off_c, 4, 45, 95
4, 373920, Note_on_c, 4, 45, 95
4, 374400, Note_off_c, 4, 45, 95
4, 374400, Note_on_c, 4, 45, 95
4, 374880, Note_off_c, 4, 45, 95
4, 374880, Note_on_c, 4, 45, 95
4, 375360, Note_off_c, 4, 45, 95
4, 375360, Note_on_c, 4, 45, 95
4, 375840, Note_off_c, 4, 45, 95
4, 375840, Note_on_c, 4, 45, 95
4, 376320, Note_off_c, 4, 45, 95
4, 376320, Note_on_c, 4, 45, 95
4, 376800, Note_off_c, 4, 45, 95
4, 376800, Note_on_c, 4, 45, 95
4, 377280, Note_off_c, 4, 45, 95
4, 377280, Note_on_c, 4, 45, 95
4, 377760, Note_off_c, 4, 45, 95
4, 377760, Note_on_c, 4, 45, 95
4, 378240, Note_off_c, 4, 45, 95
4, 378240, Note_on_c, 4, 45, 95
4, 378720, Note_off_c, 4, 45, 95
4, 378720, Note_on_c, 4, 45, 95
4, 379200, Note_off_c, 4, 45, 95
4, 379200, Note_on_c, 4, 45, 95
4, 379680, Note_off_c, 4, 45, 95
4, 379680, Note_on_c, 4, 41, 95
4, 380640, Note_off_c, 4, 41, 95
4, 380640, Note_on_c, 4, 41, 95
4, 381120, Note_off_c, 4, 41, 95
4, 381120, Note_on_c, 4, 41, 95
4, 381600, Note_off_c, 4, 41, 95
4, 381600, Note_on_c, 4, 41, 95
4, 382080, Note_off_c, 4, 41, 95
4, 382080, Note_on_c, 4, 41, 95
4, 382560, Note_off_c, 4, 41, 95
4, 382560, Note_on_c, 4, 41, 95
4, 383040, Note_off_c, 4, 41, 95
4, 383040, Note_on_c, 4, 41, 95
4, 383520, Note_off_c, 4, 41, 95
4, 383520, Note_on_c, 4, 41, 95
4, 384000, Note_off_c, 4, 41, 95
4, 384000, Note_on_c, 4, 41, 95
4, 384480, Note_off_c, 4, 41, 95
4, 384480, Note_on_c, 4, 41, 95
4, 384960, Note_off_c, 4, 41, 95
4, 384960, Note_on_c, 4, 41, 95
4, 385440, Note_off_c, 4, 41, 95
4, 385440, Note_on_c, 4, 41, 95
4, 385920, Note_off_c, 4, 41, 95
4, 385920, Note_on_c, 4, 41, 95
4, 386400, Note_off_c, 4, 41, 95
4, 386400, Note_on_c, 4, 41, 95
4, 386880, Note_off_c, 4, 41, 95
4, 386880, Note_on_c, 4, 41, 95
4, 387360, Note_off_c, 4, 41, 95
4, 387360, Note_on_c, 4, 43, 95
4, 388320, Note_off_c, 4, 43, 95
4, 388320, Note_on_c, 4, 43, 95
4, 388800, Note_off_c, 4, 43, 95
4, 388800, Note_on_c, 4, 43, 95
4, 389280, Note_off_c, 4, 43, 95
4, 389280, Note_on_c, 4, 43, 95
4, 389760, Note_off_c, 4, 43, 95
4, 389760, Note_on_c, 4, 43, 95
4, 390240, Note_off_c, 4, 43, 95
4, 390240, Note_on_c, 4, 43, 95
4, 390720, Note_off_c, 4, 43, 95
4, 390720, Note_on_c, 4, 43, 95
4, 391200, Note_off_c, 4, 43, 95
4, 391200, Note_on_c, 4, 43, 95
4, 391680, Note_off_c, 4, 43, 95
4, 391680, Note_on_c, 4, 43, 95
4, 392160, Note_off_c, 4, 43, 95
4, 392160, Note_on_c, 4, 43, 95
4, 392640, Note_off_c, 4, 43, 95
4, 392640, Note_on_c, 4, 43, 95
4, 393120, Note_off_c, 4, 43, 95
4, 393120, Note_on_c, 4, 43, 95
4, 393600, Note_off_c, 4, 43, 95
4, 393600, Note_on_c, 4, 43, 95
4, 394080, Note_off_c, 4, 43, 95
4, 394080, Note_on_c, 4, 43, 95
4, 394560, Note_off_c, 4, 43, 95
4, 394560, Note_on_c, 4, 43, 95
4, 395040, Note_off_c, 4, 43, 95
4, 395040, Note_on_c, 4, 45, 95
4, 396000, Note_off_c, 4, 45, 95
4, 396000, Note_on_c, 4, 45, 95
4, 396480, Note_off_c, 4, 45, 95
4, 396480, Note_on_c, 4, 45, 95
4, 396960, Note_off_c, 4, 45, 95
4, 396960, Note_on_c, 4, 45, 95
4, 397440, Note_off_c, 4, 45, 95
4, 397440, Note_on_c, 4, 45, 95
4, 397920, Note_off_c, 4, 45, 95
4, 397920, Note_on_c, 4, 45, 95
4, 398400, Note_off_c, 4, 45, 95
4, 398400, Note_on_c, 4, 45, 95
4, 398880, Note_off_c, 4, 45, 95
4, 398880, Note_on_c, 4, 45, 95
4, 399360, Note_off_c, 4, 45, 95
4, 399360, Note_on_c, 4, 45, 95
4, 399840, Note_off_c, 4, 45, 95
4, 399840, Note_on_c, 4, 48, 95
4, 400320, Note_off_c, 4, 48, 95
4, 400320, Note_on_c, 4, 47, 95
4, 400800, Note_off_c, 4, 47, 95
4, 400800, Note_on_c, 4, 45, 95
4, 401280, Note_off_c, 4, 45, 95
4, 401280, Note_on_c, 4, 48, 95
4, 401760, Note_off_c, 4, 48, 95
4, 401760, Note_on_c, 4, 47, 95
4, 402240, Note_off_c, 4, 47, 95
4, 402240, Note_on_c, 4, 45, 95
4, 402720, Note_off_c, 4, 45, 95
4, 402720, Note_on_c, 4, 42, 95
4, 403680, Note_off_c, 4, 42, 95
4, 403680, Note_on_c, 4, 42, 95
4, 404160, Note_off_c, 4, 42, 95
4, 404160, Note_on_c, 4, 42, 95
4, 404640, Note_off_c, 4, 42, 95
4, 404640, Note_on_c, 4, 42, 95
4, 405120, Note_off_c, 4, 42, 95
4, 405120, Note_on_c, 4, 42, 95
4, 405600, Note_off_c, 4, 42, 95
4, 405600, Note_on_c, 4, 42, 95
4, 406080, Note_off_c, 4, 42, 95
4, 406080, Note_on_c, 4, 42, 95
4, 406560, Note_off_c, 4, 42, 95
4, 406560, Note_on_c, 4, 42, 95
4, 407040, Note_off_c, 4, 42, 95
4, 407040, Note_on_c, 4, 42, 95
4, 407520, Note_off_c, 4, 42, 95
4, 407520, Note_on_c, 4, 42, 95
4, 408000, Note_off_c, 4, 42, 95
4, 408000, Note_on_c, 4, 42, 95
4, 408480, Note_off_c, 4, 42, 95
4, 408480, Note_on_c, 4, 42, 95
4, 408960, Note_off_c, 4, 42, 95
4, 408960, Note_on_c, 4, 42, 95
4, 409440, Note_off_c, 4, 42, 95
4, 409440, Note_on_c, 4, 45, 95
4, 409920, Note_off_c, 4, 45, 95
4, 409920, Note_on_c, 4, 42, 95
4, 410400, Note_off_c, 4, 42, 95
4, 410400, Note_on_c, 4, 50, 95
4, 411360, Note_off_c, 4, 50, 95
4, 411360, Note_on_c, 4, 50, 95
4, 411840, Note_off_c, 4, 50, 95
4, 411840, Note_on_c, 4, 50, 95
4, 412320, Note_off_c, 4, 50, 95
4, 412320, Note_on_c, 4, 50, 95
4, 412800, Note_off_c, 4, 50, 95
4, 412800, Note_on_c, 4, 50, 95
4, 413280, Note_off_c, 4, 50, 95
4, 413280, Note_on_c, 4, 50, 95
4, 413760, Note_off_c, 4, 50, 95
4, 413760, Note_on_c, 4, 50, 95
4, 414240, Note_off_c, 4, 50, 95
4, 414240, Note_on_c, 4, 50, 95
4, 414720, Note_off_c, 4, 50, 95
4, 414720, Note_on_c, 4, 50, 95
4, 415200, Note_off_c, 4, 50, 95
4, 415200, Note_on_c, 4, 50, 95
4, 415680, Note_off_c, 4, 50, 95
4, 415680, Note_on_c, 4, 50, 95
4, 416160, Note_off_c, 4, 50, 95
4, 416160, Note_on_c, 4, 50, 95
4, 416640, Note_off_c, 4, 50, 95
4, 416640, Note_on_c, 4, 52, 95
4, 417120, Note_off_c, 4, 52, 95
4, 417120, Note_on_c, 4, 50, 95
4, 417600, Note_off_c, 4, 50, 95
4, 417600, Note_on_c, 4, 49, 95
4, 418080, Note_off_c, 4, 49, 95
4, 418080, Note_on_c, 4, 42, 95
4, 419040, Note_off_c, 4, 42, 95
4, 419040, Note_on_c, 4, 42, 95
4, 419520, Note_off_c, 4, 42, 95
4, 419520, Note_on_c, 4, 42, 95
4, 420000, Note_off_c, 4, 42, 95
4, 420000, Note_on_c, 4, 42, 95
4, 420480, Note_off_c, 4, 42, 95
4, 420480, Note_on_c, 4, 42, 95
4, 420960, Note_off_c, 4, 42, 95
4, 420960, Note_on_c, 4, 42, 95
4, 421440, Note_off_c, 4, 42, 95
4, 421440, Note_on_c, 4, 42, 95
4, 421920, Note_off_c, 4, 42, 95
4, 421920, Note_on_c, 4, 42, 95
4, 422400, Note_off_c, 4, 42, 95
4, 422400, Note_on_c, 4, 42, 95
4, 422880, Note_off_c, 4, 42, 95
4, 422880, Note_on_c, 4, 42, 95
4, 423360, Note_off_c, 4, 42, 95
4, 423360, Note_on_c, 4, 42, 95
4, 423840, Note_off_c, 4, 42, 95
4, 423840, Note_on_c, 4, 42, 95
4, 424320, Note_off_c, 4, 42, 95
4, 424320, Note_on_c, 4, 42, 95
4, 424800, Note_off_c, 4, 42, 95
4, 424800, Note_on_c, 4, 45, 95
4, 425280, Note_off_c, 4, 45, 95
4, 425280, Note_on_c, 4, 42, 95
4, 425760, Note_off_c, 4, 42, 95
4, 425760, Note_on_c, 4, 50, 95
4, 426720, Note_off_c, 4, 50, 95
4, 426720, Note_on_c, 4, 50, 95
4, 427200, Note_off_c, 4, 50, 95
4, 427200, Note_on_c, 4, 50, 95
4, 427680, Note_off_c, 4, 50, 95
4, 427680, Note_on_c, 4, 50, 95
4, 428160, Note_off_c, 4, 50, 95
4, 428160, Note_on_c, 4, 50, 95
4, 428640, Note_off_c, 4, 50, 95
4, 428640, Note_on_c, 4, 50, 95
4, 429120, Note_off_c, 4, 50, 95
4, 429120, Note_on_c, 4, 50, 95
4, 429600, Note_off_c, 4, 50, 95
4, 429600, Note_on_c, 4, 50, 95
4, 430080, Note_off_c, 4, 50, 95
4, 430080, Note_on_c, 4, 50, 95
4, 430560, Note_off_c, 4, 50, 95
4, 430560, Note_on_c, 4, 50, 95
4, 431040, Note_off_c, 4, 50, 95
4, 431040, Note_on_c, 4, 50, 95
4, 431520, Note_off_c, 4, 50, 95
4, 431520, Note_on_c, 4, 50, 95
4, 432000, Note_off_c, 4, 50, 95
4, 432000, Note_on_c, 4, 50, 95
4, 432480, Note_off_c, 4, 50, 95
4, 432480, Note_on_c, 4, 50, 95
4, 432960, Note_off_c, 4, 50, 95
4, 432960, Note_on_c, 4, 50, 95
4, 433440, Note_off_c, 4, 50, 95
4, 433440, Note_on_c, 4, 40, 95
4, 434400, Note_off_c, 4, 40, 95
4, 434400, Note_on_c, 4, 40, 95
4, 434880, Note_off_c, 4, 40, 95
4, 434880, Note_on_c, 4, 40, 95
4, 435360, Note_off_c, 4, 40, 95
4, 435360, Note_on_c, 4, 40, 95
4, 435840, Note_off_c, 4, 40, 95
4, 435840, Note_on_c, 4, 40, 95
4, 436320, Note_off_c, 4, 40, 95
4, 436320, Note_on_c, 4, 40, 95
4, 436800, Note_off_c, 4, 40, 95
4, 436800, Note_on_c, 4, 40, 95
4, 437280, Note_off_c, 4, 40, 95
4, 437280, Note_on_c, 4, 40, 95
4, 437760, Note_off_c, 4, 40, 95
4, 437760, Note_on_c, 4, 40, 95
4, 438240, Note_off_c, 4, 40, 95
4, 438240, Note_on_c, 4, 40, 95
4, 438720, Note_off_c, 4, 40, 95
4, 438720, Note_on_c, 4, 40, 95
4, 439200, Note_off_c, 4, 40, 95
4, 439200, Note_on_c, 4, 40, 95
4, 439680, Note_off_c, 4, 40, 95
4, 439680, Note_on_c, 4, 40, 95
4, 440160, Note_off_c, 4, 40, 95
4, 440160, Note_on_c, 4, 43, 95
4, 440640, Note_off_c, 4, 43, 95
4, 440640, Note_on_c, 4, 40, 95
4, 441120, Note_off_c, 4, 40, 95
4, 441120, Note_on_c, 4, 48, 95
4, 442080, Note_off_c, 4, 48, 95
4, 442080, Note_on_c, 4, 48, 95
4, 442560, Note_off_c, 4, 48, 95
4, 442560, Note_on_c, 4, 48, 95
4, 443040, Note_off_c, 4, 48, 95
4, 443040, Note_on_c, 4, 48, 95
4, 443520, Note_off_c, 4, 48, 95
4, 443520, Note_on_c, 4, 48, 95
4, 444000, Note_off_c, 4, 48, 95
4, 444000, Note_on_c, 4, 48, 95
4, 444480, Note_off_c, 4, 48, 95
4, 444480, Note_on_c, 4, 48, 95
4, 444960, Note_off_c, 4, 48, 95
4, 444960, Note_on_c, 4, 48, 95
4, 445440, Note_off_c, 4, 48, 95
4, 445440, Note_on_c, 4, 48, 95
4, 445920, Note_off_c, 4, 48, 95
4, 445920, Note_on_c, 4, 48, 95
4, 446400, Note_off_c, 4, 48, 95
4, 446400, Note_on_c, 4, 48, 95
4, 446880, Note_off_c, 4, 48, 95
4, 446880, Note_on_c, 4, 48, 95
4, 447360, Note_off_c, 4, 48, 95
4, 447360, Note_on_c, 4, 50, 95
4, 447840, Note_off_c, 4, 50, 95
4, 447840, Note_on_c, 4, 48, 95
4, 448320, Note_off_c, 4, 48, 95
4, 448320, Note_on_c, 4, 47, 95
4, 448800, Note_off_c, 4, 47, 95
4, 448800, Note_on_c, 4, 40, 95
4, 449760, Note_off_c, 4, 40, 95
4, 449760, Note_on_c, 4, 40, 95
4, 450240, Note_off_c, 4, 40, 95
4, 450240, Note_on_c, 4, 40, 95
4, 450720, Note_off_c, 4, 40, 95
4, 450720, Note_on_c, 4, 40, 95
4, 451200, Note_off_c, 4, 40, 95
4, 451200, Note_on_c, 4, 42, 95
4, 451680, Note_off_c, 4, 42, 95
4, 451680, Note_on_c, 4, 42, 95
4, 452160, Note_off_c, 4, 42, 95
4, 452160, Note_on_c, 4, 42, 95
4, 452640, Note_off_c, 4, 42, 95
4, 452640, Note_on_c, 4, 42, 95
4, 453120, Note_off_c, 4, 42, 95
4, 453120, Note_on_c, 4, 43, 95
4, 453600, Note_off_c, 4, 43, 95
4, 453600, Note_on_c, 4, 43, 95
4, 454080, Note_off_c, 4, 43, 95
4, 454080, Note_on_c, 4, 43, 95
4, 454560, Note_off_c, 4, 43, 95
4, 454560, Note_on_c, 4, 43, 95
4, 455040, Note_off_c, 4, 43, 95
4, 455040, Note_on_c, 4, 45, 95
4, 455520, Note_off_c, 4, 45, 95
4, 455520, Note_on_c, 4, 45, 95
4, 456000, Note_off_c, 4, 45, 95
4, 456000, Note_on_c, 4, 45, 95
4, 456480, Note_off_c, 4, 45, 95
4, 456480, Note_on_c, 4, 45, 95
4, 456960, Note_off_c, 4, 45, 95
4, 456960, Note_on_c, 4, 47, 95
4, 457440, Note_off_c, 4, 47, 95
4, 457440, Note_on_c, 4, 47, 95
4, 457920, Note_off_c, 4, 47, 95
4, 457920, Note_on_c, 4, 47, 95
4, 458400, Note_off_c, 4, 47, 95
4, 458400, Note_on_c, 4, 47, 95
4, 458880, Note_off_c, 4, 47, 95
4, 458880, Note_on_c, 4, 47, 95
4, 459360, Note_off_c, 4, 47, 95
4, 459360, Note_on_c, 4, 47, 95
4, 459840, Note_off_c, 4, 47, 95
4, 459840, Note_on_c, 4, 47, 95
4, 460320, Note_off_c, 4, 47, 95
4, 460320, Note_on_c, 4, 47, 95
4, 460800, Note_off_c, 4, 47, 95
4, 460800, Note_on_c, 4, 47, 95
4, 461280, Note_off_c, 4, 47, 95
4, 461280, Note_on_c, 4, 47, 95
4, 461760, Note_off_c, 4, 47, 95
4, 461760, Note_on_c, 4, 47, 95
4, 462240, Note_off_c, 4, 47, 95
4, 462240, Note_on_c, 4, 47, 95
4, 462720, Note_off_c, 4, 47, 95
4, 462720, Note_on_c, 4, 47, 95
4, 463200, Note_off_c, 4, 47, 95
4, 463200, Note_on_c, 4, 47, 95
4, 463680, Note_off_c, 4, 47, 95
4, 463680, Note_on_c, 4, 47, 95
4, 464160, Note_off_c, 4, 47, 95
4, 464160, Note_on_c, 4, 46, 95
4, 465120, Note_off_c, 4, 46, 95
4, 465120, Note_on_c, 4, 46, 95
4, 465600, Note_off_c, 4, 46, 95
4, 465600, Note_on_c, 4, 46, 95
4, 466080, Note_off_c, 4, 46, 95
4, 466080, Note_on_c, 4, 46, 95
4, 466560, Note_off_c, 4, 46, 95
4, 466560, Note_on_c, 4, 46, 95
4, 467040, Note_off_c, 4, 46, 95
4, 467040, Note_on_c, 4, 46, 95
4, 467520, Note_off_c, 4, 46, 95
4, 467520, Note_on_c, 4, 46, 95
4, 468000, Note_off_c, 4, 46, 95
4, 468000, Note_on_c, 4, 46, 95
4, 468480, Note_off_c, 4, 46, 95
4, 468480, Note_on_c, 4, 46, 95
4, 468960, Note_off_c, 4, 46, 95
4, 468960, Note_on_c, 4, 46, 95
4, 469440, Note_off_c, 4, 46, 95
4, 469440, Note_on_c, 4, 46, 95
4, 469920, Note_off_c, 4, 46, 95
4, 469920, Note_on_c, 4, 46, 95
4, 470400, Note_off_c, 4, 46, 95
4, 470400, Note_on_c, 4, 46, 95
4, 470880, Note_off_c, 4, 46, 95
4, 470880, Note_on_c, 4, 45, 95
4, 471360, Note_off_c, 4, 45, 95
4, 471360, Note_on_c, 4, 43, 95
4, 471840, Note_off_c, 4, 43, 95
4, 471840, Note_on_c, 4, 40, 95
4, 472800, Note_off_c, 4, 40, 95
4, 472800, Note_on_c, 4, 40, 95
4, 473280, Note_off_c, 4, 40, 95
4, 473280, Note_on_c, 4, 40, 95
4, 473760, Note_off_c, 4, 40, 95
4, 473760, Note_on_c, 4, 40, 95
4, 474240, Note_off_c, 4, 40, 95
4, 474240, Note_on_c, 4, 40, 95
4, 474720, Note_off_c, 4, 40, 95
4, 474720, Note_on_c, 4, 40, 95
4, 475200, Note_off_c, 4, 40, 95
4, 475200, Note_on_c, 4, 40, 95
4, 475680, Note_off_c, 4, 40, 95
4, 475680, Note_on_c, 4, 40, 95
4, 476160, Note_off_c, 4, 40, 95
4, 476160, Note_on_c, 4, 40, 95
4, 476640, Note_off_c, 4, 40, 95
4, 476640, Note_on_c, 4, 40, 95
4, 477120, Note_off_c, 4, 40, 95
4, 477120, Note_on_c, 4, 40, 95
4, 477600, Note_off_c, 4, 40, 95
4, 477600, Note_on_c, 4, 40, 95
4, 478080, Note_off_c, 4, 40, 95
4, 478080, Note_on_c, 4, 40, 95
4, 478560, Note_off_c, 4, 40, 95
4, 478560, Note_on_c, 4, 43, 95
4, 479040, Note_off_c, 4, 43, 95
4, 479040, Note_on_c, 4, 45, 95
4, 479520, Note_off_c, 4, 45, 95
4, 479520, Note_on_c, 4, 46, 95
4, 480480, Note_off_c, 4, 46, 95
4, 480480, Note_on_c, 4, 46, 95
4, 480960, Note_off_c, 4, 46, 95
4, 480960, Note_on_c, 4, 46, 95
4, 481440, Note_off_c, 4, 46, 95
4, 481440, Note_on_c, 4, 46, 95
4, 481920, Note_off_c, 4, 46, 95
4, 481920, Note_on_c, 4, 46, 95
4, 482400, Note_off_c, 4, 46, 95
4, 482400, Note_on_c, 4, 46, 95
4, 482880, Note_off_c, 4, 46, 95
4, 482880, Note_on_c, 4, 46, 95
4, 483360, Note_off_c, 4, 46, 95
4, 483360, Note_on_c, 4, 46, 95
4, 483840, Note_off_c, 4, 46, 95
4, 483840, Note_on_c, 4, 46, 95
4, 484320, Note_off_c, 4, 46, 95
4, 484320, Note_on_c, 4, 46, 95
4, 484800, Note_off_c, 4, 46, 95
4, 484800, Note_on_c, 4, 46, 95
4, 485280, Note_off_c, 4, 46, 95
4, 485280, Note_on_c, 4, 46, 95
4, 485760, Note_off_c, 4, 46, 95
4, 485760, Note_on_c, 4, 46, 95
4, 486240, Note_off_c, 4, 46, 95
4, 486240, Note_on_c, 4, 45, 95
4, 486720, Note_off_c, 4, 45, 95
4, 486720, Note_on_c, 4, 43, 95
4, 487200, Note_off_c, 4, 43, 95
4, 487200, Note_on_c, 4, 40, 95
4, 488160, Note_off_c, 4, 40, 95
4, 488160, Note_on_c, 4, 40, 95
4, 488640, Note_off_c, 4, 40, 95
4, 488640, Note_on_c, 4, 40, 95
4, 489120, Note_off_c, 4, 40, 95
4, 489120, Note_on_c, 4, 40, 95
4, 489600, Note_off_c, 4, 40, 95
4, 489600, Note_on_c, 4, 40, 95
4, 490080, Note_off_c, 4, 40, 95
4, 490080, Note_on_c, 4, 40, 95
4, 490560, Note_off_c, 4, 40, 95
4, 490560, Note_on_c, 4, 40, 95
4, 491040, Note_off_c, 4, 40, 95
4, 491040, Note_on_c, 4, 40, 95
4, 491520, Note_off_c, 4, 40, 95
4, 491520, Note_on_c, 4, 40, 95
4, 492000, Note_off_c, 4, 40, 95
4, 494880, Note_on_c, 4, 45, 95
4, 495840, Note_off_c, 4, 45, 95
4, 495840, Note_on_c, 4, 45, 95
4, 496320, Note_off_c, 4, 45, 95
4, 496320, Note_on_c, 4, 45, 95
4, 496800, Note_off_c, 4, 45, 95
4, 496800, Note_on_c, 4, 45, 95
4, 497280, Note_off_c, 4, 45, 95
4, 497280, Note_on_c, 4, 45, 95
4, 497760, Note_off_c, 4, 45, 95
4, 497760, Note_on_c, 4, 45, 95
4, 498240, Note_off_c, 4, 45, 95
4, 498240, Note_on_c, 4, 45, 95
4, 498720, Note_off_c, 4, 45, 95
4, 498720, Note_on_c, 4, 45, 95
4, 499200, Note_off_c, 4, 45, 95
4, 499200, Note_on_c, 4, 45, 95
4, 499680, Note_off_c, 4, 45, 95
4, 499680, Note_on_c, 4, 45, 95
4, 500160, Note_off_c, 4, 45, 95
4, 500160, Note_on_c, 4, 45, 95
4, 500640, Note_off_c, 4, 45, 95
4, 500640, Note_on_c, 4, 45, 95
4, 501120, Note_off_c, 4, 45, 95
4, 501120, Note_on_c, 4, 45, 95
4, 501600, Note_off_c, 4, 45, 95
4, 501600, Note_on_c, 4, 45, 95
4, 502080, Note_off_c, 4, 45, 95
4, 502080, Note_on_c, 4, 45, 95
4, 502560, Note_off_c, 4, 45, 95
4, 502560, Note_on_c, 4, 41, 95
4, 503520, Note_off_c, 4, 41, 95
4, 503520, Note_on_c, 4, 41, 95
4, 504000, Note_off_c, 4, 41, 95
4, 504000, Note_on_c, 4, 41, 95
4, 504480, Note_off_c, 4, 41, 95
4, 504480, Note_on_c, 4, 41, 95
4, 504960, Note_off_c, 4, 41, 95
4, 504960, Note_on_c, 4, 41, 95
4, 505440, Note_off_c, 4, 41, 95
4, 505440, Note_on_c, 4, 41, 95
4, 505920, Note_off_c, 4, 41, 95
4, 505920, Note_on_c, 4, 41, 95
4, 506400, Note_off_c, 4, 41, 95
4, 506400, Note_on_c, 4, 41, 95
4, 506880, Note_off_c, 4, 41, 95
4, 506880, Note_on_c, 4, 41, 95
4, 507360, Note_off_c, 4, 41, 95
4, 507360, Note_on_c, 4, 41, 95
4, 507840, Note_off_c, 4, 41, 95
4, 507840, Note_on_c, 4, 41, 95
4, 508320, Note_off_c, 4, 41, 95
4, 508320, Note_on_c, 4, 41, 95
4, 508800, Note_off_c, 4, 41, 95
4, 508800, Note_on_c, 4, 41, 95
4, 509280, Note_off_c, 4, 41, 95
4, 509280, Note_on_c, 4, 41, 95
4, 509760, Note_off_c, 4, 41, 95
4, 509760, Note_on_c, 4, 41, 95
4, 510240, Note_off_c, 4, 41, 95
4, 510240, Note_on_c, 4, 43, 95
4, 511200, Note_off_c, 4, 43, 95
4, 511200, Note_on_c, 4, 43, 95
4, 511680, Note_off_c, 4, 43, 95
4, 511680, Note_on_c, 4, 43, 95
4, 512160, Note_off_c, 4, 43, 95
4, 512160, Note_on_c, 4, 43, 95
4, 512640, Note_off_c, 4, 43, 95
4, 512640, Note_on_c, 4, 43, 95
4, 513120, Note_off_c, 4, 43, 95
4, 513120, Note_on_c, 4, 43, 95
4, 513600, Note_off_c, 4, 43, 95
4, 513600, Note_on_c, 4, 43, 95
4, 514080, Note_off_c, 4, 43, 95
4, 514080, Note_on_c, 4, 43, 95
4, 514560, Note_off_c, 4, 43, 95
4, 514560, Note_on_c, 4, 43, 95
4, 515040, Note_off_c, 4, 43, 95
4, 515040, Note_on_c, 4, 43, 95
4, 515520, Note_off_c, 4, 43, 95
4, 515520, Note_on_c, 4, 43, 95
4, 516000, Note_off_c, 4, 43, 95
4, 516000, Note_on_c, 4, 43, 95
4, 516480, Note_off_c, 4, 43, 95
4, 516480, Note_on_c, 4, 43, 95
4, 516960, Note_off_c, 4, 43, 95
4, 516960, Note_on_c, 4, 43, 95
4, 517440, Note_off_c, 4, 43, 95
4, 517440, Note_on_c, 4, 43, 95
4, 517920, Note_off_c, 4, 43, 95
4, 517920, Note_on_c, 4, 45, 95
4, 518880, Note_off_c, 4, 45, 95
4, 518880, Note_on_c, 4, 45, 95
4, 519360, Note_off_c, 4, 45, 95
4, 519360, Note_on_c, 4, 45, 95
4, 519840, Note_off_c, 4, 45, 95
4, 519840, Note_on_c, 4, 45, 95
4, 520320, Note_off_c, 4, 45, 95
4, 520320, Note_on_c, 4, 45, 95
4, 520800, Note_off_c, 4, 45, 95
4, 520800, Note_on_c, 4, 45, 95
4, 521280, Note_off_c, 4, 45, 95
4, 521280, Note_on_c, 4, 45, 95
4, 521760, Note_off_c, 4, 45, 95
4, 521760, Note_on_c, 4, 45, 95
4, 522240, Note_off_c, 4, 45, 95
4, 522240, Note_on_c, 4, 45, 95
4, 522720, Note_off_c, 4, 45, 95
4, 522720, Note_on_c, 4, 48, 95
4, 523200, Note_off_c, 4, 48, 95
4, 523200, Note_on_c, 4, 47, 95
4, 523680, Note_off_c, 4, 47, 95
4, 523680, Note_on_c, 4, 45, 95
4, 524160, Note_off_c, 4, 45, 95
4, 524160, Note_on_c, 4, 48, 95
4, 524640, Note_off_c, 4, 48, 95
4, 524640, Note_on_c, 4, 47, 95
4, 525120, Note_off_c, 4, 47, 95
4, 525120, Note_on_c, 4, 45, 95
4, 525600, Note_off_c, 4, 45, 95
4, 525600, Note_on_c, 4, 45, 95
4, 526560, Note_off_c, 4, 45, 95
4, 526560, Note_on_c, 4, 45, 95
4, 527040, Note_off_c, 4, 45, 95
4, 527040, Note_on_c, 4, 45, 95
4, 527520, Note_off_c, 4, 45, 95
4, 527520, Note_on_c, 4, 45, 95
4, 528000, Note_off_c, 4, 45, 95
4, 528000, Note_on_c, 4, 45, 95
4, 528480, Note_off_c, 4, 45, 95
4, 528480, Note_on_c, 4, 45, 95
4, 528960, Note_off_c, 4, 45, 95
4, 528960, Note_on_c, 4, 45, 95
4, 529440, Note_off_c, 4, 45, 95
4, 529440, Note_on_c, 4, 45, 95
4, 529920, Note_off_c, 4, 45, 95
4, 529920, Note_on_c, 4, 45, 95
4, 530400, Note_off_c, 4, 45, 95
4, 530400, Note_on_c, 4, 45, 95
4, 530880, Note_off_c, 4, 45, 95
4, 530880, Note_on_c, 4, 45, 95
4, 531360, Note_off_c, 4, 45, 95
4, 531360, Note_on_c, 4, 45, 95
4, 531840, Note_off_c, 4, 45, 95
4, 531840, Note_on_c, 4, 45, 95
4, 532320, Note_off_c, 4, 45, 95
4, 532320, Note_on_c, 4, 45, 95
4, 532800, Note_off_c, 4, 45, 95
4, 532800, Note_on_c, 4, 45, 95
4, 533280, Note_off_c, 4, 45, 95
4, 533280, Note_on_c, 4, 41, 95
4, 534240, Note_off_c, 4, 41, 95
4, 534240, Note_on_c, 4, 41, 95
4, 534720, Note_off_c, 4, 41, 95
4, 534720, Note_on_c, 4, 41, 95
4, 535200, Note_off_c, 4, 41, 95
4, 535200, Note_on_c, 4, 41, 95
4, 535680, Note_off_c, 4, 41, 95
4, 535680, Note_on_c, 4, 41, 95
4, 536160, Note_off_c, 4, 41, 95
4, 536160, Note_on_c, 4, 41, 95
4, 536640, Note_off_c, 4, 41, 95
4, 536640, Note_on_c, 4, 41, 95
4, 537120, Note_off_c, 4, 41, 95
4, 537120, Note_on_c, 4, 41, 95
4, 537600, Note_off_c, 4, 41, 95
4, 537600, Note_on_c, 4, 41, 95
4, 538080, Note_off_c, 4, 41, 95
4, 538080, Note_on_c, 4, 41, 95
4, 538560, Note_off_c, 4, 41, 95
4, 538560, Note_on_c, 4, 41, 95
4, 539040, Note_off_c, 4, 41, 95
4, 539040, Note_on_c, 4, 41, 95
4, 539520, Note_off_c, 4, 41, 95
4, 539520, Note_on_c, 4, 41, 95
4, 540000, Note_off_c, 4, 41, 95
4, 540000, Note_on_c, 4, 41, 95
4, 540480, Note_off_c, 4, 41, 95
4, 540480, Note_on_c, 4, 41, 95
4, 540960, Note_off_c, 4, 41, 95
4, 540960, Note_on_c, 4, 43, 95
4, 541920, Note_off_c, 4, 43, 95
4, 541920, Note_on_c, 4, 43, 95
4, 542400, Note_off_c, 4, 43, 95
4, 542400, Note_on_c, 4, 43, 95
4, 542880, Note_off_c, 4, 43, 95
4, 542880, Note_on_c, 4, 43, 95
4, 543360, Note_off_c, 4, 43, 95
4, 543360, Note_on_c, 4, 43, 95
4, 543840, Note_off_c, 4, 43, 95
4, 543840, Note_on_c, 4, 43, 95
4, 544320, Note_off_c, 4, 43, 95
4, 544320, Note_on_c, 4, 43, 95
4, 544800, Note_off_c, 4, 43, 95
4, 544800, Note_on_c, 4, 43, 95
4, 545280, Note_off_c, 4, 43, 95
4, 545280, Note_on_c, 4, 43, 95
4, 545760, Note_off_c, 4, 43, 95
4, 545760, Note_on_c, 4, 43, 95
4, 546240, Note_off_c, 4, 43, 95
4, 546240, Note_on_c, 4, 43, 95
4, 546720, Note_off_c, 4, 43, 95
4, 546720, Note_on_c, 4, 43, 95
4, 547200, Note_off_c, 4, 43, 95
4, 547200, Note_on_c, 4, 43, 95
4, 547680, Note_off_c, 4, 43, 95
4, 547680, Note_on_c, 4, 43, 95
4, 548160, Note_off_c, 4, 43, 95
4, 548160, Note_on_c, 4, 43, 95
4, 548640, Note_off_c, 4, 43, 95
4, 548640, Note_on_c, 4, 45, 95
4, 549600, Note_off_c, 4, 45, 95
4, 549600, Note_on_c, 4, 45, 95
4, 550080, Note_off_c, 4, 45, 95
4, 550080, Note_on_c, 4, 45, 95
4, 550560, Note_off_c, 4, 45, 95
4, 550560, Note_on_c, 4, 45, 95
4, 551040, Note_off_c, 4, 45, 95
4, 551040, Note_on_c, 4, 45, 95
4, 551520, Note_off_c, 4, 45, 95
4, 551520, Note_on_c, 4, 45, 95
4, 552000, Note_off_c, 4, 45, 95
4, 552000, Note_on_c, 4, 45, 95
4, 552480, Note_off_c, 4, 45, 95
4, 552480, Note_on_c, 4, 45, 95
4, 552960, Note_off_c, 4, 45, 95
4, 552960, Note_on_c, 4, 45, 95
4, 553440, Note_off_c, 4, 45, 95
4, 553440, Note_on_c, 4, 48, 95
4, 553920, Note_off_c, 4, 48, 95
4, 553920, Note_on_c, 4, 47, 95
4, 554400, Note_off_c, 4, 47, 95
4, 554400, Note_on_c, 4, 45, 95
4, 554880, Note_off_c, 4, 45, 95
4, 554880, Note_on_c, 4, 48, 95
4, 555360, Note_off_c, 4, 48, 95
4, 555360, Note_on_c, 4, 47, 95
4, 555840, Note_off_c, 4, 47, 95
4, 555840, Note_on_c, 4, 45, 95
4, 556320, Note_off_c, 4, 45, 95
4, 556320, Note_on_c, 4, 45, 95
4, 557280, Note_off_c, 4, 45, 95
4, 557280, Note_on_c, 4, 45, 95
4, 557760, Note_off_c, 4, 45, 95
4, 557760, Note_on_c, 4, 45, 95
4, 558240, Note_off_c, 4, 45, 95
4, 558240, Note_on_c, 4, 45, 95
4, 558720, Note_off_c, 4, 45, 95
4, 558720, Note_on_c, 4, 45, 95
4, 559200, Note_off_c, 4, 45, 95
4, 559200, Note_on_c, 4, 45, 95
4, 559680, Note_off_c, 4, 45, 95
4, 559680, Note_on_c, 4, 45, 95
4, 560160, Note_off_c, 4, 45, 95
4, 560160, Note_on_c, 4, 45, 95
4, 560640, Note_off_c, 4, 45, 95
4, 560640, Note_on_c, 4, 45, 95
4, 561120, Note_off_c, 4, 45, 95
4, 561120, Note_on_c, 4, 45, 95
4, 561600, Note_off_c, 4, 45, 95
4, 561600, Note_on_c, 4, 45, 95
4, 562080, Note_off_c, 4, 45, 95
4, 562080, Note_on_c, 4, 45, 95
4, 562560, Note_off_c, 4, 45, 95
4, 562560, Note_on_c, 4, 45, 95
4, 563040, Note_off_c, 4, 45, 95
4, 563040, Note_on_c, 4, 48, 95
4, 563520, Note_off_c, 4, 48, 95
4, 563520, Note_on_c, 4, 45, 95
4, 564000, Note_off_c, 4, 45, 95
4, 564000, Note_on_c, 4, 41, 95
4, 564960, Note_off_c, 4, 41, 95
4, 564960, Note_on_c, 4, 41, 95
4, 565440, Note_off_c, 4, 41, 95
4, 565440, Note_on_c, 4, 41, 95
4, 565920, Note_off_c, 4, 41, 95
4, 565920, Note_on_c, 4, 41, 95
4, 566400, Note_off_c, 4, 41, 95
4, 566400, Note_on_c, 4, 41, 95
4, 566880, Note_off_c, 4, 41, 95
4, 566880, Note_on_c, 4, 41, 95
4, 567360, Note_off_c, 4, 41, 95
4, 567360, Note_on_c, 4, 41, 95
4, 567840, Note_off_c, 4, 41, 95
4, 567840, Note_on_c, 4, 41, 95
4, 568320, Note_off_c, 4, 41, 95
4, 568320, Note_on_c, 4, 41, 95
4, 568800, Note_off_c, 4, 41, 95
4, 568800, Note_on_c, 4, 41, 95
4, 569280, Note_off_c, 4, 41, 95
4, 569280, Note_on_c, 4, 41, 95
4, 569760, Note_off_c, 4, 41, 95
4, 569760, Note_on_c, 4, 41, 95
4, 570240, Note_off_c, 4, 41, 95
4, 570240, Note_on_c, 4, 41, 95
4, 570720, Note_off_c, 4, 41, 95
4, 570720, Note_on_c, 4, 41, 95
4, 571200, Note_off_c, 4, 41, 95
4, 571200, Note_on_c, 4, 41, 95
4, 571680, Note_off_c, 4, 41, 95
4, 571680, Note_on_c, 4, 43, 95
4, 572640, Note_off_c, 4, 43, 95
4, 572640, Note_on_c, 4, 43, 95
4, 573120, Note_off_c, 4, 43, 95
4, 573120, Note_on_c, 4, 43, 95
4, 573600, Note_off_c, 4, 43, 95
4, 573600, Note_on_c, 4, 43, 95
4, 574080, Note_off_c, 4, 43, 95
4, 574080, Note_on_c, 4, 43, 95
4, 574560, Note_off_c, 4, 43, 95
4, 574560, Note_on_c, 4, 43, 95
4, 575040, Note_off_c, 4, 43, 95
4, 575040, Note_on_c, 4, 43, 95
4, 575520, Note_off_c, 4, 43, 95
4, 575520, Note_on_c, 4, 43, 95
4, 576000, Note_off_c, 4, 43, 95
4, 576000, Note_on_c, 4, 43, 95
4, 576480, Note_off_c, 4, 43, 95
4, 576480, Note_on_c, 4, 43, 95
4, 576960, Note_off_c, 4, 43, 95
4, 576960, Note_on_c, 4, 43, 95
4, 577440, Note_off_c, 4, 43, 95
4, 577440, Note_on_c, 4, 43, 95
4, 577920, Note_off_c, 4, 43, 95
4, 577920, Note_on_c, 4, 43, 95
4, 578400, Note_off_c, 4, 43, 95
4, 578400, Note_on_c, 4, 50, 95
4, 578880, Note_off_c, 4, 50, 95
4, 578880, Note_on_c, 4, 43, 95
4, 579360, Note_off_c, 4, 43, 95
4, 579360, Note_on_c, 4, 45, 95
4, 580320, Note_off_c, 4, 45, 95
4, 580320, Note_on_c, 4, 45, 95
4, 580800, Note_off_c, 4, 45, 95
4, 580800, Note_on_c, 4, 45, 95
4, 581280, Note_off_c, 4, 45, 95
4, 581280, Note_on_c, 4, 45, 95
4, 581760, Note_off_c, 4, 45, 95
4, 581760, Note_on_c, 4, 45, 95
4, 582240, Note_off_c, 4, 45, 95
4, 582240, Note_on_c, 4, 45, 95
4, 582720, Note_off_c, 4, 45, 95
4, 582720, Note_on_c, 4, 45, 95
4, 583200, Note_off_c, 4, 45, 95
4, 583200, Note_on_c, 4, 45, 95
4, 583680, Note_off_c, 4, 45, 95
4, 583680, Note_on_c, 4, 45, 95
4, 584160, Note_off_c, 4, 45, 95
4, 584160, Note_on_c, 4, 45, 95
4, 584640, Note_off_c, 4, 45, 95
4, 584640, Note_on_c, 4, 45, 95
4, 585120, Note_off_c, 4, 45, 95
4, 585120, Note_on_c, 4, 45, 95
4, 585600, Note_off_c, 4, 45, 95
4, 585600, Note_on_c, 4, 45, 95
4, 586080, Note_off_c, 4, 45, 95
4, 586080, Note_on_c, 4, 45, 95
4, 586560, Note_off_c, 4, 45, 95
4, 586560, Note_on_c, 4, 45, 95
4, 587040, Note_off_c, 4, 45, 95
4, 587040, Note_on_c, 4, 45, 95
4, 588000, Note_off_c, 4, 45, 95
4, 588000, Note_on_c, 4, 45, 95
4, 588480, Note_off_c, 4, 45, 95
4, 588480, Note_on_c, 4, 45, 95
4, 588960, Note_off_c, 4, 45, 95
4, 588960, Note_on_c, 4, 45, 95
4, 589440, Note_off_c, 4, 45, 95
4, 589440, Note_on_c, 4, 45, 95
4, 589920, Note_off_c, 4, 45, 95
4, 589920, Note_on_c, 4, 45, 95
4, 590400, Note_off_c, 4, 45, 95
4, 590400, Note_on_c, 4, 45, 95
4, 590880, Note_off_c, 4, 45, 95
4, 590880, Note_on_c, 4, 45, 95
4, 591360, Note_off_c, 4, 45, 95
4, 591360, Note_on_c, 4, 45, 95
4, 591840, Note_off_c, 4, 45, 95
4, 591840, Note_on_c, 4, 45, 95
4, 592320, Note_off_c, 4, 45, 95
4, 592320, Note_on_c, 4, 45, 95
4, 592800, Note_off_c, 4, 45, 95
4, 592800, Note_on_c, 4, 45, 95
4, 593280, Note_off_c, 4, 45, 95
4, 593280, Note_on_c, 4, 45, 95
4, 593760, Note_off_c, 4, 45, 95
4, 593760, Note_on_c, 4, 45, 95
4, 594240, Note_off_c, 4, 45, 95
4, 594240, Note_on_c, 4, 45, 95
4, 594720, Note_off_c, 4, 45, 95
4, 594720, Note_on_c, 4, 41, 95
4, 595680, Note_off_c, 4, 41, 95
4, 595680, Note_on_c, 4, 41, 95
4, 596160, Note_off_c, 4, 41, 95
4, 596160, Note_on_c, 4, 41, 95
4, 596640, Note_off_c, 4, 41, 95
4, 596640, Note_on_c, 4, 41, 95
4, 597120, Note_off_c, 4, 41, 95
4, 597120, Note_on_c, 4, 41, 95
4, 597600, Note_off_c, 4, 41, 95
4, 597600, Note_on_c, 4, 41, 95
4, 598080, Note_off_c, 4, 41, 95
4, 598080, Note_on_c, 4, 41, 95
4, 598560, Note_off_c, 4, 41, 95
4, 598560, Note_on_c, 4, 41, 95
4, 599040, Note_off_c, 4, 41, 95
4, 599040, Note_on_c, 4, 41, 95
4, 599520, Note_off_c, 4, 41, 95
4, 599520, Note_on_c, 4, 41, 95
4, 600000, Note_off_c, 4, 41, 95
4, 600000, Note_on_c, 4, 41, 95
4, 600480, Note_off_c, 4, 41, 95
4, 600480, Note_on_c, 4, 41, 95
4, 600960, Note_off_c, 4, 41, 95
4, 600960, Note_on_c, 4, 41, 95
4, 601440, Note_off_c, 4, 41, 95
4, 601440, Note_on_c, 4, 41, 95
4, 601920, Note_off_c, 4, 41, 95
4, 601920, Note_on_c, 4, 41, 95
4, 602400, Note_off_c, 4, 41, 95
4, 602400, Note_on_c, 4, 43, 95
4, 603360, Note_off_c, 4, 43, 95
4, 603360, Note_on_c, 4, 43, 95
4, 603840, Note_off_c, 4, 43, 95
4, 603840, Note_on_c, 4, 43, 95
4, 604320, Note_off_c, 4, 43, 95
4, 604320, Note_on_c, 4, 43, 95
4, 604800, Note_off_c, 4, 43, 95
4, 604800, Note_on_c, 4, 43, 95
4, 605280, Note_off_c, 4, 43, 95
4, 605280, Note_on_c, 4, 43, 95
4, 605760, Note_off_c, 4, 43, 95
4, 605760, Note_on_c, 4, 43, 95
4, 606240, Note_off_c, 4, 43, 95
4, 606240, Note_on_c, 4, 43, 95
4, 606720, Note_off_c, 4, 43, 95
4, 606720, Note_on_c, 4, 43, 95
4, 607200, Note_off_c, 4, 43, 95
4, 607200, Note_on_c, 4, 43, 95
4, 607680, Note_off_c, 4, 43, 95
4, 607680, Note_on_c, 4, 43, 95
4, 608160, Note_off_c, 4, 43, 95
4, 608160, Note_on_c, 4, 43, 95
4, 608640, Note_off_c, 4, 43, 95
4, 608640, Note_on_c, 4, 43, 95
4, 609120, Note_off_c, 4, 43, 95
4, 609120, Note_on_c, 4, 43, 95
4, 609600, Note_off_c, 4, 43, 95
4, 609600, Note_on_c, 4, 43, 95
4, 610080, Note_off_c, 4, 43, 95
4, 610080, Note_on_c, 4, 45, 95
4, 611040, Note_off_c, 4, 45, 95
4, 611040, Note_on_c, 4, 45, 95
4, 611520, Note_off_c, 4, 45, 95
4, 611520, Note_on_c, 4, 45, 95
4, 612000, Note_off_c, 4, 45, 95
4, 612000, Note_on_c, 4, 45, 95
4, 612480, Note_off_c, 4, 45, 95
4, 612480, Note_on_c, 4, 45, 95
4, 612960, Note_off_c, 4, 45, 95
4, 612960, Note_on_c, 4, 45, 95
4, 613440, Note_off_c, 4, 45, 95
4, 613440, Note_on_c, 4, 45, 95
4, 613920, Note_off_c, 4, 45, 95
4, 613920, Note_on_c, 4, 45, 95
4, 614400, Note_off_c, 4, 45, 95
4, 614400, Note_on_c, 4, 45, 95
4, 614880, Note_off_c, 4, 45, 95
4, 614880, Note_on_c, 4, 45, 95
4, 615360, Note_off_c, 4, 45, 95
4, 615360, Note_on_c, 4, 45, 95
4, 615840, Note_off_c, 4, 45, 95
4, 615840, Note_on_c, 4, 45, 95
4, 616320, Note_off_c, 4, 45, 95
4, 616320, Note_on_c, 4, 45, 95
4, 616800, Note_off_c, 4, 45, 95
4, 616800, Note_on_c, 4, 45, 95
4, 617280, Note_off_c, 4, 45, 95
4, 617280, Note_on_c, 4, 45, 95
4, 617760, Note_off_c, 4, 45, 95
4, 617760, Note_on_c, 4, 40, 95
4, 618720, Note_off_c, 4, 40, 95
4, 618720, Note_on_c, 4, 40, 95
4, 619200, Note_off_c, 4, 40, 95
4, 619200, Note_on_c, 4, 40, 95
4, 619680, Note_off_c, 4, 40, 95
4, 619680, Note_on_c, 4, 40, 95
4, 620160, Note_off_c, 4, 40, 95
4, 620160, Note_on_c, 4, 50, 95
4, 620640, Note_off_c, 4, 50, 95
4, 620640, Note_on_c, 4, 52, 95
4, 621120, Note_off_c, 4, 52, 95
4, 621120, Note_on_c, 4, 40, 95
4, 621600, Note_off_c, 4, 40, 95
4, 621600, Note_on_c, 4, 40, 95
4, 622560, Note_off_c, 4, 40, 95
4, 622560, Note_on_c, 4, 40, 95
4, 623040, Note_off_c, 4, 40, 95
4, 623040, Note_on_c, 4, 40, 95
4, 623520, Note_off_c, 4, 40, 95
4, 623520, Note_on_c, 4, 40, 95
4, 624000, Note_off_c, 4, 40, 95
4, 624000, Note_on_c, 4, 50, 95
4, 624480, Note_off_c, 4, 50, 95
4, 624480, Note_on_c, 4, 52, 95
4, 624960, Note_off_c, 4, 52, 95
4, 624960, Note_on_c, 4, 40, 95
4, 625440, Note_off_c, 4, 40, 95
4, 625440, Note_on_c, 4, 43, 95
4, 626400, Note_off_c, 4, 43, 95
4, 626400, Note_on_c, 4, 43, 95
4, 626880, Note_off_c, 4, 43, 95
4, 626880, Note_on_c, 4, 43, 95
4, 627360, Note_off_c, 4, 43, 95
4, 627360, Note_on_c, 4, 43, 95
4, 627840, Note_off_c, 4, 43, 95
4, 627840, Note_on_c, 4, 43, 95
4, 628320, Note_off_c, 4, 43, 95
4, 628320, Note_on_c, 4, 43, 95
4, 628800, Note_off_c, 4, 43, 95
4, 628800, Note_on_c, 4, 43, 95
4, 629280, Note_off_c, 4, 43, 95
4, 629280, Note_on_c, 4, 43, 95
4, 629760, Note_off_c, 4, 43, 95
4, 629760, Note_on_c, 4, 43, 95
4, 630240, Note_off_c, 4, 43, 95
4, 630240, Note_on_c, 4, 43, 95
4, 630720, Note_off_c, 4, 43, 95
4, 630720, Note_on_c, 4, 43, 95
4, 631200, Note_off_c, 4, 43, 95
4, 631200, Note_on_c, 4, 43, 95
4, 631680, Note_off_c, 4, 43, 95
4, 631680, Note_on_c, 4, 43, 95
4, 632160, Note_off_c, 4, 43, 95
4, 632160, Note_on_c, 4, 43, 95
4, 632640, Note_off_c, 4, 43, 95
4, 632640, Note_on_c, 4, 43, 95
4, 633120, Note_off_c, 4, 43, 95
4, 633120, Note_on_c, 4, 45, 95
4, 634080, Note_off_c, 4, 45, 95
4, 634080, Note_on_c, 4, 45, 95
4, 634560, Note_off_c, 4, 45, 95
4, 634560, Note_on_c, 4, 45, 95
4, 635040, Note_off_c, 4, 45, 95
4, 635040, Note_on_c, 4, 45, 95
4, 635520, Note_off_c, 4, 45, 95
4, 635520, Note_on_c, 4, 45, 95
4, 636000, Note_off_c, 4, 45, 95
4, 636000, Note_on_c, 4, 45, 95
4, 636480, Note_off_c, 4, 45, 95
4, 636480, Note_on_c, 4, 45, 95
4, 636960, Note_off_c, 4, 45, 95
4, 636960, Note_on_c, 4, 45, 95
4, 637440, Note_off_c, 4, 45, 95
4, 637440, Note_on_c, 4, 45, 95
4, 637920, Note_off_c, 4, 45, 95
4, 637920, Note_on_c, 4, 45, 95
4, 638400, Note_off_c, 4, 45, 95
4, 638400, Note_on_c, 4, 45, 95
4, 638880, Note_off_c, 4, 45, 95
4, 638880, Note_on_c, 4, 45, 95
4, 639360, Note_off_c, 4, 45, 95
4, 639360, Note_on_c, 4, 45, 95
4, 639840, Note_off_c, 4, 45, 95
4, 640320, Note_on_c, 4, 45, 95
4, 640800, Note_off_c, 4, 45, 95
4, 640800, Note_on_c, 4, 40, 95
4, 641760, Note_off_c, 4, 40, 95
4, 641760, End_track
5, 0, Start_track
5, 0, Pitch_bend_c, 9, 8192
5, 0, Control_c, 9, 7, 127
5, 0, Control_c, 9, 10, 55
5, 0, Control_c, 9, 93, 0
5, 0, Control_c, 9, 91, 0
5, 0, Control_c, 9, 95, 0
5, 0, Control_c, 9, 92, 0
5, 0, Control_c, 9, 11, 127
5, 0, Program_c, 9, 0
5, 0, Note_on_c, 9, 50, 95
5, 240, Note_off_c, 9, 50, 95
5, 240, Note_on_c, 9, 50, 95
5, 480, Note_off_c, 9, 50, 95
5, 480, Note_on_c, 9, 50, 95
5, 720, Note_off_c, 9, 50, 95
5, 720, Note_on_c, 9, 41, 95
5, 960, Note_off_c, 9, 41, 95
5, 960, Note_on_c, 9, 47, 95
5, 1200, Note_off_c, 9, 47, 95
5, 1200, Note_on_c, 9, 47, 95
5, 1440, Note_off_c, 9, 47, 95
5, 1440, Note_on_c, 9, 47, 95
5, 1680, Note_off_c, 9, 47, 95
5, 1680, Note_on_c, 9, 41, 95
5, 1920, Note_off_c, 9, 41, 95
5, 1920, Note_on_c, 9, 45, 95
5, 2160, Note_off_c, 9, 45, 95
5, 2160, Note_on_c, 9, 45, 95
5, 2400, Note_off_c, 9, 45, 95
5, 2400, Note_on_c, 9, 45, 95
5, 2640, Note_off_c, 9, 45, 95
5, 2640, Note_on_c, 9, 41, 95
5, 2880, Note_off_c, 9, 41, 95
5, 2880, Note_on_c, 9, 49, 95
5, 2880, Note_on_c, 9, 38, 95
5, 3840, Note_off_c, 9, 49, 95
5, 3840, Note_off_c, 9, 38, 95
5, 3840, Note_on_c, 9, 55, 95
5, 3840, Note_on_c, 9, 36, 95
5, 4320, Note_off_c, 9, 55, 95
5, 4320, Note_off_c, 9, 36, 95
5, 4560, Note_on_c, 9, 36, 95
5, 4800, Note_off_c, 9, 36, 95
5, 4800, Note_on_c, 9, 46, 95
5, 4800, Note_on_c, 9, 38, 95
5, 5760, Note_off_c, 9, 46, 95
5, 5760, Note_off_c, 9, 38, 95
5, 5760, Note_on_c, 9, 46, 95
5, 6240, Note_off_c, 9, 46, 95
5, 6240, Note_on_c, 9, 36, 95
5, 6720, Note_off_c, 9, 36, 95
5, 6720, Note_on_c, 9, 46, 95
5, 6720, Note_on_c, 9, 38, 95
5, 7680, Note_off_c, 9, 46, 95
5, 7680, Note_off_c, 9, 38, 95
5, 7680, Note_on_c, 9, 46, 95
5, 8160, Note_off_c, 9, 46, 95
5, 8160, Note_on_c, 9, 36, 95
5, 8640, Note_off_c, 9, 36, 95
5, 8640, Note_on_c, 9, 46, 95
5, 8640, Note_on_c, 9, 38, 95
5, 9600, Note_off_c, 9, 46, 95
5, 9600, Note_off_c, 9, 38, 95
5, 9600, Note_on_c, 9, 46, 95
5, 10080, Note_off_c, 9, 46, 95
5, 10080, Note_on_c, 9, 36, 95
5, 10560, Note_off_c, 9, 36, 95
5, 10560, Note_on_c, 9, 46, 95
5, 10560, Note_on_c, 9, 38, 95
5, 11040, Note_off_c, 9, 46, 95
5, 11040, Note_off_c, 9, 38, 95
5, 11040, Note_on_c, 9, 49, 95
5, 11520, Note_off_c, 9, 49, 95
5, 12000, Note_on_c, 9, 36, 95
5, 12480, Note_off_c, 9, 36, 95
5, 12480, Note_on_c, 9, 46, 95
5, 12480, Note_on_c, 9, 38, 95
5, 13440, Note_off_c, 9, 46, 95
5, 13440, Note_off_c, 9, 38, 95
5, 13440, Note_on_c, 9, 46, 95
5, 13920, Note_off_c, 9, 46, 95
5, 13920, Note_on_c, 9, 36, 95
5, 14400, Note_off_c, 9, 36, 95
5, 14400, Note_on_c, 9, 46, 95
5, 14400, Note_on_c, 9, 38, 95
5, 15360, Note_off_c, 9, 46, 95
5, 15360, Note_off_c, 9, 38, 95
5, 15360, Note_on_c, 9, 46, 95
5, 15840, Note_off_c, 9, 46, 95
5, 15840, Note_on_c, 9, 36, 95
5, 16320, Note_off_c, 9, 36, 95
5, 16320, Note_on_c, 9, 46, 95
5, 16320, Note_on_c, 9, 38, 95
5, 17280, Note_off_c, 9, 46, 95
5, 17280, Note_off_c, 9, 38, 95
5, 17280, Note_on_c, 9, 46, 95
5, 17760, Note_off_c, 9, 46, 95
5, 17760, Note_on_c, 9, 36, 95
5, 18240, Note_off_c, 9, 36, 95
5, 18240, Note_on_c, 9, 46, 95
5, 18240, Note_on_c, 9, 38, 95
5, 18720, Note_off_c, 9, 46, 95
5, 18720, Note_off_c, 9, 38, 95
5, 18720, Note_on_c, 9, 49, 95
5, 19200, Note_off_c, 9, 49, 95
5, 19680, Note_on_c, 9, 36, 95
5, 20160, Note_off_c, 9, 36, 95
5, 20160, Note_on_c, 9, 46, 95
5, 20160, Note_on_c, 9, 38, 95
5, 21120, Note_off_c, 9, 46, 95
5, 21120, Note_off_c, 9, 38, 95
5, 21120, Note_on_c, 9, 46, 95
5, 21600, Note_off_c, 9, 46, 95
5, 21600, Note_on_c, 9, 36, 95
5, 22080, Note_off_c, 9, 36, 95
5, 22080, Note_on_c, 9, 46, 95
5, 22080, Note_on_c, 9, 38, 95
5, 23040, Note_off_c, 9, 46, 95
5, 23040, Note_off_c, 9, 38, 95
5, 23040, Note_on_c, 9, 46, 95
5, 23520, Note_off_c, 9, 46, 95
5, 23520, Note_on_c, 9, 36, 95
5, 24000, Note_off_c, 9, 36, 95
5, 24000, Note_on_c, 9, 46, 95
5, 24000, Note_on_c, 9, 38, 95
5, 24960, Note_off_c, 9, 46, 95
5, 24960, Note_off_c, 9, 38, 95
5, 24960, Note_on_c, 9, 46, 95
5, 25440, Note_off_c, 9, 46, 95
5, 25440, Note_on_c, 9, 36, 95
5, 25920, Note_off_c, 9, 36, 95
5, 25920, Note_on_c, 9, 46, 95
5, 25920, Note_on_c, 9, 38, 95
5, 26400, Note_off_c, 9, 46, 95
5, 26400, Note_off_c, 9, 38, 95
5, 26400, Note_on_c, 9, 49, 95
5, 26880, Note_off_c, 9, 49, 95
5, 27360, Note_on_c, 9, 36, 95
5, 27840, Note_off_c, 9, 36, 95
5, 27840, Note_on_c, 9, 46, 95
5, 27840, Note_on_c, 9, 38, 95
5, 28800, Note_off_c, 9, 46, 95
5, 28800, Note_off_c, 9, 38, 95
5, 28800, Note_on_c, 9, 46, 95
5, 28800, Note_on_c, 9, 36, 95
5, 29280, Note_off_c, 9, 46, 95
5, 29280, Note_off_c, 9, 36, 95
5, 29280, Note_on_c, 9, 38, 95
5, 29760, Note_off_c, 9, 38, 95
5, 29760, Note_on_c, 9, 46, 95
5, 30240, Note_off_c, 9, 46, 95
5, 30240, Note_on_c, 9, 36, 95
5, 30720, Note_off_c, 9, 36, 95
5, 30720, Note_on_c, 9, 46, 95
5, 30720, Note_on_c, 9, 38, 95
5, 31680, Note_off_c, 9, 46, 95
5, 31680, Note_off_c, 9, 38, 95
5, 31680, Note_on_c, 9, 46, 95
5, 31680, Note_on_c, 9, 36, 95
5, 32160, Note_off_c, 9, 46, 95
5, 32160, Note_off_c, 9, 36, 95
5, 32160, Note_on_c, 9, 38, 95
5, 32640, Note_off_c, 9, 38, 95
5, 32640, Note_on_c, 9, 46, 95
5, 33120, Note_off_c, 9, 46, 95
5, 33120, Note_on_c, 9, 38, 95
5, 33360, Note_off_c, 9, 38, 95
5, 33360, Note_on_c, 9, 38, 95
5, 33600, Note_off_c, 9, 38, 95
5, 33600, Note_on_c, 9, 38, 95
5, 33840, Note_off_c, 9, 38, 95
5, 33840, Note_on_c, 9, 38, 95
5, 34080, Note_off_c, 9, 38, 95
5, 34080, Note_on_c, 9, 49, 95
5, 34080, Note_on_c, 9, 36, 95
5, 34560, Note_off_c, 9, 49, 95
5, 34560, Note_off_c, 9, 36, 95
5, 35040, Note_on_c, 9, 36, 95
5, 35520, Note_off_c, 9, 36, 95
5, 35520, Note_on_c, 9, 51, 95
5, 35520, Note_on_c, 9, 38, 95
5, 36480, Note_off_c, 9, 51, 95
5, 36480, Note_off_c, 9, 38, 95
5, 36480, Note_on_c, 9, 51, 95
5, 36960, Note_off_c, 9, 51, 95
5, 36960, Note_on_c, 9, 36, 95
5, 37440, Note_off_c, 9, 36, 95
5, 37440, Note_on_c, 9, 51, 95
5, 37440, Note_on_c, 9, 38, 95
5, 38400, Note_off_c, 9, 51, 95
5, 38400, Note_off_c, 9, 38, 95
5, 38400, Note_on_c, 9, 51, 95
5, 38880, Note_off_c, 9, 51, 95
5, 38880, Note_on_c, 9, 36, 95
5, 39360, Note_off_c, 9, 36, 95
5, 39360, Note_on_c, 9, 51, 95
5, 39360, Note_on_c, 9, 38, 95
5, 40320, Note_off_c, 9, 51, 95
5, 40320, Note_off_c, 9, 38, 95
5, 40320, Note_on_c, 9, 51, 95
5, 40800, Note_off_c, 9, 51, 95
5, 40800, Note_on_c, 9, 51, 95
5, 40800, Note_on_c, 9, 36, 95
5, 41280, Note_off_c, 9, 51, 95
5, 41280, Note_off_c, 9, 36, 95
5, 41280, Note_on_c, 9, 38, 95
5, 41760, Note_off_c, 9, 38, 95
5, 41760, Note_on_c, 9, 49, 95
5, 42240, Note_off_c, 9, 49, 95
5, 42720, Note_on_c, 9, 36, 95
5, 43200, Note_off_c, 9, 36, 95
5, 43200, Note_on_c, 9, 51, 95
5, 43200, Note_on_c, 9, 38, 95
5, 44160, Note_off_c, 9, 51, 95
5, 44160, Note_off_c, 9, 38, 95
5, 44160, Note_on_c, 9, 51, 95
5, 44640, Note_off_c, 9, 51, 95
5, 44640, Note_on_c, 9, 36, 95
5, 45120, Note_off_c, 9, 36, 95
5, 45120, Note_on_c, 9, 51, 95
5, 45120, Note_on_c, 9, 38, 95
5, 46080, Note_off_c, 9, 51, 95
5, 46080, Note_off_c, 9, 38, 95
5, 46080, Note_on_c, 9, 51, 95
5, 46560, Note_off_c, 9, 51, 95
5, 46560, Note_on_c, 9, 36, 95
5, 47040, Note_off_c, 9, 36, 95
5, 47040, Note_on_c, 9, 51, 95
5, 47040, Note_on_c, 9, 38, 95
5, 48000, Note_off_c, 9, 51, 95
5, 48000, Note_off_c, 9, 38, 95
5, 48000, Note_on_c, 9, 51, 95
5, 48480, Note_off_c, 9, 51, 95
5, 48480, Note_on_c, 9, 51, 95
5, 48480, Note_on_c, 9, 36, 95
5, 48960, Note_off_c, 9, 51, 95
5, 48960, Note_off_c, 9, 36, 95
5, 48960, Note_on_c, 9, 38, 95
5, 49440, Note_off_c, 9, 38, 95
5, 49440, Note_on_c, 9, 49, 95
5, 49920, Note_off_c, 9, 49, 95
5, 50400, Note_on_c, 9, 36, 95
5, 50880, Note_off_c, 9, 36, 95
5, 50880, Note_on_c, 9, 51, 95
5, 50880, Note_on_c, 9, 38, 95
5, 51840, Note_off_c, 9, 51, 95
5, 51840, Note_off_c, 9, 38, 95
5, 51840, Note_on_c, 9, 51, 95
5, 52320, Note_off_c, 9, 51, 95
5, 52320, Note_on_c, 9, 36, 95
5, 52800, Note_off_c, 9, 36, 95
5, 52800, Note_on_c, 9, 51, 95
5, 52800, Note_on_c, 9, 38, 95
5, 53760, Note_off_c, 9, 51, 95
5, 53760, Note_off_c, 9, 38, 95
5, 53760, Note_on_c, 9, 51, 95
5, 54240, Note_off_c, 9, 51, 95
5, 54240, Note_on_c, 9, 36, 95
5, 54720, Note_off_c, 9, 36, 95
5, 54720, Note_on_c, 9, 51, 95
5, 54720, Note_on_c, 9, 38, 95
5, 55680, Note_off_c, 9, 51, 95
5, 55680, Note_off_c, 9, 38, 95
5, 55680, Note_on_c, 9, 51, 95
5, 56160, Note_off_c, 9, 51, 95
5, 56160, Note_on_c, 9, 51, 95
5, 56160, Note_on_c, 9, 36, 95
5, 56640, Note_off_c, 9, 51, 95
5, 56640, Note_off_c, 9, 36, 95
5, 56640, Note_on_c, 9, 38, 95
5, 57120, Note_off_c, 9, 38, 95
5, 57120, Note_on_c, 9, 49, 95
5, 57600, Note_off_c, 9, 49, 95
5, 58080, Note_on_c, 9, 36, 95
5, 58560, Note_off_c, 9, 36, 95
5, 58560, Note_on_c, 9, 51, 95
5, 58560, Note_on_c, 9, 38, 95
5, 59520, Note_off_c, 9, 51, 95
5, 59520, Note_off_c, 9, 38, 95
5, 59520, Note_on_c, 9, 51, 95
5, 59520, Note_on_c, 9, 36, 95
5, 60000, Note_off_c, 9, 51, 95
5, 60000, Note_off_c, 9, 36, 95
5, 60000, Note_on_c, 9, 38, 95
5, 60480, Note_off_c, 9, 38, 95
5, 60480, Note_on_c, 9, 51, 95
5, 60960, Note_off_c, 9, 51, 95
5, 60960, Note_on_c, 9, 36, 95
5, 61440, Note_off_c, 9, 36, 95
5, 61440, Note_on_c, 9, 51, 95
5, 61440, Note_on_c, 9, 38, 95
5, 62400, Note_off_c, 9, 51, 95
5, 62400, Note_off_c, 9, 38, 95
5, 62400, Note_on_c, 9, 51, 95
5, 62400, Note_on_c, 9, 36, 95
5, 62880, Note_off_c, 9, 51, 95
5, 62880, Note_off_c, 9, 36, 95
5, 62880, Note_on_c, 9, 38, 95
5, 63360, Note_off_c, 9, 38, 95
5, 63360, Note_on_c, 9, 51, 95
5, 63840, Note_off_c, 9, 51, 95
5, 63840, Note_on_c, 9, 38, 95
5, 64080, Note_off_c, 9, 38, 95
5, 64080, Note_on_c, 9, 38, 95
5, 64320, Note_off_c, 9, 38, 95
5, 64320, Note_on_c, 9, 38, 95
5, 64560, Note_off_c, 9, 38, 95
5, 64560, Note_on_c, 9, 38, 95
5, 64800, Note_off_c, 9, 38, 95
5, 64800, Note_on_c, 9, 49, 95
5, 64800, Note_on_c, 9, 36, 95
5, 65280, Note_off_c, 9, 49, 95
5, 65280, Note_off_c, 9, 36, 95
5, 65760, Note_on_c, 9, 36, 95
5, 66240, Note_off_c, 9, 36, 95
5, 66240, Note_on_c, 9, 51, 95
5, 66240, Note_on_c, 9, 38, 95
5, 67200, Note_off_c, 9, 51, 95
5, 67200, Note_off_c, 9, 38, 95
5, 67200, Note_on_c, 9, 51, 95
5, 67680, Note_off_c, 9, 51, 95
5, 67680, Note_on_c, 9, 36, 95
5, 68160, Note_off_c, 9, 36, 95
5, 68160, Note_on_c, 9, 51, 95
5, 68160, Note_on_c, 9, 38, 95
5, 69120, Note_off_c, 9, 51, 95
5, 69120, Note_off_c, 9, 38, 95
5, 69120, Note_on_c, 9, 51, 95
5, 69600, Note_off_c, 9, 51, 95
5, 69600, Note_on_c, 9, 36, 95
5, 70080, Note_off_c, 9, 36, 95
5, 70080, Note_on_c, 9, 51, 95
5, 70080, Note_on_c, 9, 38, 95
5, 71040, Note_off_c, 9, 51, 95
5, 71040, Note_off_c, 9, 38, 95
5, 71040, Note_on_c, 9, 51, 95
5, 71520, Note_off_c, 9, 51, 95
5, 71520, Note_on_c, 9, 51, 95
5, 71520, Note_on_c, 9, 36, 95
5, 72000, Note_off_c, 9, 51, 95
5, 72000, Note_off_c, 9, 36, 95
5, 72000, Note_on_c, 9, 38, 95
5, 72480, Note_off_c, 9, 38, 95
5, 72480, Note_on_c, 9, 49, 95
5, 72960, Note_off_c, 9, 49, 95
5, 73440, Note_on_c, 9, 36, 95
5, 73920, Note_off_c, 9, 36, 95
5, 73920, Note_on_c, 9, 51, 95
5, 73920, Note_on_c, 9, 38, 95
5, 74880, Note_off_c, 9, 51, 95
5, 74880, Note_off_c, 9, 38, 95
5, 74880, Note_on_c, 9, 51, 95
5, 75360, Note_off_c, 9, 51, 95
5, 75360, Note_on_c, 9, 36, 95
5, 75840, Note_off_c, 9, 36, 95
5, 75840, Note_on_c, 9, 51, 95
5, 75840, Note_on_c, 9, 38, 95
5, 76800, Note_off_c, 9, 51, 95
5, 76800, Note_off_c, 9, 38, 95
5, 76800, Note_on_c, 9, 51, 95
5, 77280, Note_off_c, 9, 51, 95
5, 77280, Note_on_c, 9, 36, 95
5, 77760, Note_off_c, 9, 36, 95
5, 77760, Note_on_c, 9, 51, 95
5, 77760, Note_on_c, 9, 38, 95
5, 78720, Note_off_c, 9, 51, 95
5, 78720, Note_off_c, 9, 38, 95
5, 78720, Note_on_c, 9, 51, 95
5, 79200, Note_off_c, 9, 51, 95
5, 79200, Note_on_c, 9, 51, 95
5, 79200, Note_on_c, 9, 36, 95
5, 79680, Note_off_c, 9, 51, 95
5, 79680, Note_off_c, 9, 36, 95
5, 79680, Note_on_c, 9, 38, 95
5, 80160, Note_off_c, 9, 38, 95
5, 80160, Note_on_c, 9, 49, 95
5, 80640, Note_off_c, 9, 49, 95
5, 81120, Note_on_c, 9, 36, 95
5, 81600, Note_off_c, 9, 36, 95
5, 81600, Note_on_c, 9, 51, 95
5, 81600, Note_on_c, 9, 38, 95
5, 82560, Note_off_c, 9, 51, 95
5, 82560, Note_off_c, 9, 38, 95
5, 82560, Note_on_c, 9, 51, 95
5, 83040, Note_off_c, 9, 51, 95
5, 83040, Note_on_c, 9, 36, 95
5, 83520, Note_off_c, 9, 36, 95
5, 83520, Note_on_c, 9, 51, 95
5, 83520, Note_on_c, 9, 38, 95
5, 84480, Note_off_c, 9, 51, 95
5, 84480, Note_off_c, 9, 38, 95
5, 84480, Note_on_c, 9, 51, 95
5, 84960, Note_off_c, 9, 51, 95
5, 84960, Note_on_c, 9, 36, 95
5, 85440, Note_off_c, 9, 36, 95
5, 85440, Note_on_c, 9, 51, 95
5, 85440, Note_on_c, 9, 38, 95
5, 86400, Note_off_c, 9, 51, 95
5, 86400, Note_off_c, 9, 38, 95
5, 86400, Note_on_c, 9, 51, 95
5, 86880, Note_off_c, 9, 51, 95
5, 86880, Note_on_c, 9, 51, 95
5, 86880, Note_on_c, 9, 36, 95
5, 87360, Note_off_c, 9, 51, 95
5, 87360, Note_off_c, 9, 36, 95
5, 87360, Note_on_c, 9, 38, 95
5, 87840, Note_off_c, 9, 38, 95
5, 87840, Note_on_c, 9, 49, 95
5, 88320, Note_off_c, 9, 49, 95
5, 88800, Note_on_c, 9, 36, 95
5, 89280, Note_off_c, 9, 36, 95
5, 89280, Note_on_c, 9, 51, 95
5, 89280, Note_on_c, 9, 38, 95
5, 90240, Note_off_c, 9, 51, 95
5, 90240, Note_off_c, 9, 38, 95
5, 90240, Note_on_c, 9, 51, 95
5, 90240, Note_on_c, 9, 36, 95
5, 90720, Note_off_c, 9, 51, 95
5, 90720, Note_off_c, 9, 36, 95
5, 90720, Note_on_c, 9, 38, 95
5, 91200, Note_off_c, 9, 38, 95
5, 91200, Note_on_c, 9, 51, 95
5, 91680, Note_off_c, 9, 51, 95
5, 91680, Note_on_c, 9, 36, 95
5, 92160, Note_off_c, 9, 36, 95
5, 92160, Note_on_c, 9, 51, 95
5, 92160, Note_on_c, 9, 38, 95
5, 93120, Note_off_c, 9, 51, 95
5, 93120, Note_off_c, 9, 38, 95
5, 93120, Note_on_c, 9, 51, 95
5, 93120, Note_on_c, 9, 36, 95
5, 93600, Note_off_c, 9, 51, 95
5, 93600, Note_off_c, 9, 36, 95
5, 93600, Note_on_c, 9, 38, 95
5, 94080, Note_off_c, 9, 38, 95
5, 94080, Note_on_c, 9, 51, 95
5, 94560, Note_off_c, 9, 51, 95
5, 94560, Note_on_c, 9, 38, 95
5, 94800, Note_off_c, 9, 38, 95
5, 94800, Note_on_c, 9, 38, 95
5, 95040, Note_off_c, 9, 38, 95
5, 95040, Note_on_c, 9, 38, 95
5, 95280, Note_off_c, 9, 38, 95
5, 95280, Note_on_c, 9, 38, 95
5, 95520, Note_off_c, 9, 38, 95
5, 95520, Note_on_c, 9, 49, 95
5, 95520, Note_on_c, 9, 36, 95
5, 96480, Note_off_c, 9, 49, 95
5, 96480, Note_off_c, 9, 36, 95
5, 96480, Note_on_c, 9, 36, 95
5, 96960, Note_off_c, 9, 36, 95
5, 96960, Note_on_c, 9, 46, 95
5, 96960, Note_on_c, 9, 38, 95
5, 97920, Note_off_c, 9, 46, 95
5, 97920, Note_off_c, 9, 38, 95
5, 97920, Note_on_c, 9, 46, 95
5, 98400, Note_off_c, 9, 46, 95
5, 98400, Note_on_c, 9, 36, 95
5, 98880, Note_off_c, 9, 36, 95
5, 98880, Note_on_c, 9, 46, 95
5, 98880, Note_on_c, 9, 38, 95
5, 99840, Note_off_c, 9, 46, 95
5, 99840, Note_off_c, 9, 38, 95
5, 99840, Note_on_c, 9, 46, 95
5, 100320, Note_off_c, 9, 46, 95
5, 100320, Note_on_c, 9, 36, 95
5, 100800, Note_off_c, 9, 36, 95
5, 100800, Note_on_c, 9, 46, 95
5, 100800, Note_on_c, 9, 38, 95
5, 101760, Note_off_c, 9, 46, 95
5, 101760, Note_off_c, 9, 38, 95
5, 101760, Note_on_c, 9, 46, 95
5, 102240, Note_off_c, 9, 46, 95
5, 102240, Note_on_c, 9, 36, 95
5, 102720, Note_off_c, 9, 36, 95
5, 102720, Note_on_c, 9, 46, 95
5, 102720, Note_on_c, 9, 38, 95
5, 103200, Note_off_c, 9, 46, 95
5, 103200, Note_off_c, 9, 38, 95
5, 103200, Note_on_c, 9, 36, 95
5, 103680, Note_off_c, 9, 36, 95
5, 103680, Note_on_c, 9, 46, 95
5, 104160, Note_off_c, 9, 46, 95
5, 104160, Note_on_c, 9, 36, 95
5, 104640, Note_off_c, 9, 36, 95
5, 104640, Note_on_c, 9, 46, 95
5, 104640, Note_on_c, 9, 38, 95
5, 105600, Note_off_c, 9, 46, 95
5, 105600, Note_off_c, 9, 38, 95
5, 105600, Note_on_c, 9, 46, 95
5, 106080, Note_off_c, 9, 46, 95
5, 106080, Note_on_c, 9, 36, 95
5, 106560, Note_off_c, 9, 36, 95
5, 106560, Note_on_c, 9, 46, 95
5, 106560, Note_on_c, 9, 38, 95
5, 107520, Note_off_c, 9, 46, 95
5, 107520, Note_off_c, 9, 38, 95
5, 107520, Note_on_c, 9, 46, 95
5, 108000, Note_off_c, 9, 46, 95
5, 108000, Note_on_c, 9, 36, 95
5, 108480, Note_off_c, 9, 36, 95
5, 108480, Note_on_c, 9, 46, 95
5, 108480, Note_on_c, 9, 38, 95
5, 109440, Note_off_c, 9, 46, 95
5, 109440, Note_off_c, 9, 38, 95
5, 109440, Note_on_c, 9, 46, 95
5, 109920, Note_off_c, 9, 46, 95
5, 109920, Note_on_c, 9, 36, 95
5, 110400, Note_off_c, 9, 36, 95
5, 110400, Note_on_c, 9, 46, 95
5, 110400, Note_on_c, 9, 38, 95
5, 110880, Note_off_c, 9, 46, 95
5, 110880, Note_off_c, 9, 38, 95
5, 110880, Note_on_c, 9, 36, 95
5, 111360, Note_off_c, 9, 36, 95
5, 111360, Note_on_c, 9, 46, 95
5, 111840, Note_off_c, 9, 46, 95
5, 111840, Note_on_c, 9, 36, 95
5, 112320, Note_off_c, 9, 36, 95
5, 112320, Note_on_c, 9, 46, 95
5, 112320, Note_on_c, 9, 38, 95
5, 113280, Note_off_c, 9, 46, 95
5, 113280, Note_off_c, 9, 38, 95
5, 113280, Note_on_c, 9, 46, 95
5, 113760, Note_off_c, 9, 46, 95
5, 113760, Note_on_c, 9, 36, 95
5, 114240, Note_off_c, 9, 36, 95
5, 114240, Note_on_c, 9, 46, 95
5, 114240, Note_on_c, 9, 38, 95
5, 115200, Note_off_c, 9, 46, 95
5, 115200, Note_off_c, 9, 38, 95
5, 115200, Note_on_c, 9, 46, 95
5, 115680, Note_off_c, 9, 46, 95
5, 115680, Note_on_c, 9, 36, 95
5, 116160, Note_off_c, 9, 36, 95
5, 116160, Note_on_c, 9, 46, 95
5, 116160, Note_on_c, 9, 38, 95
5, 117120, Note_off_c, 9, 46, 95
5, 117120, Note_off_c, 9, 38, 95
5, 117120, Note_on_c, 9, 46, 95
5, 117600, Note_off_c, 9, 46, 95
5, 117600, Note_on_c, 9, 36, 95
5, 118080, Note_off_c, 9, 36, 95
5, 118080, Note_on_c, 9, 46, 95
5, 118080, Note_on_c, 9, 38, 95
5, 118560, Note_off_c, 9, 46, 95
5, 118560, Note_off_c, 9, 38, 95
5, 118560, Note_on_c, 9, 36, 95
5, 119040, Note_off_c, 9, 36, 95
5, 119040, Note_on_c, 9, 46, 95
5, 119520, Note_off_c, 9, 46, 95
5, 119520, Note_on_c, 9, 36, 95
5, 120000, Note_off_c, 9, 36, 95
5, 120000, Note_on_c, 9, 46, 95
5, 120000, Note_on_c, 9, 38, 95
5, 120960, Note_off_c, 9, 46, 95
5, 120960, Note_off_c, 9, 38, 95
5, 120960, Note_on_c, 9, 46, 95
5, 121440, Note_off_c, 9, 46, 95
5, 121440, Note_on_c, 9, 36, 95
5, 121920, Note_off_c, 9, 36, 95
5, 121920, Note_on_c, 9, 46, 95
5, 121920, Note_on_c, 9, 38, 95
5, 122880, Note_off_c, 9, 46, 95
5, 122880, Note_off_c, 9, 38, 95
5, 122880, Note_on_c, 9, 46, 95
5, 123360, Note_off_c, 9, 46, 95
5, 123360, Note_on_c, 9, 36, 95
5, 123840, Note_off_c, 9, 36, 95
5, 123840, Note_on_c, 9, 46, 95
5, 123840, Note_on_c, 9, 38, 95
5, 124800, Note_off_c, 9, 46, 95
5, 124800, Note_off_c, 9, 38, 95
5, 124800, Note_on_c, 9, 46, 95
5, 125280, Note_off_c, 9, 46, 95
5, 125280, Note_on_c, 9, 36, 95
5, 125760, Note_off_c, 9, 36, 95
5, 125760, Note_on_c, 9, 46, 95
5, 125760, Note_on_c, 9, 38, 95
5, 126240, Note_off_c, 9, 46, 95
5, 126240, Note_off_c, 9, 38, 95
5, 126240, Note_on_c, 9, 49, 95
5, 126240, Note_on_c, 9, 36, 95
5, 127200, Note_off_c, 9, 49, 95
5, 127200, Note_off_c, 9, 36, 95
5, 127200, Note_on_c, 9, 36, 95
5, 127680, Note_off_c, 9, 36, 95
5, 127680, Note_on_c, 9, 46, 95
5, 127680, Note_on_c, 9, 38, 95
5, 128640, Note_off_c, 9, 46, 95
5, 128640, Note_off_c, 9, 38, 95
5, 128640, Note_on_c, 9, 46, 95
5, 129120, Note_off_c, 9, 46, 95
5, 129120, Note_on_c, 9, 36, 95
5, 129600, Note_off_c, 9, 36, 95
5, 129600, Note_on_c, 9, 46, 95
5, 129600, Note_on_c, 9, 38, 95
5, 130560, Note_off_c, 9, 46, 95
5, 130560, Note_off_c, 9, 38, 95
5, 130560, Note_on_c, 9, 46, 95
5, 131040, Note_off_c, 9, 46, 95
5, 131040, Note_on_c, 9, 36, 95
5, 131520, Note_off_c, 9, 36, 95
5, 131520, Note_on_c, 9, 46, 95
5, 131520, Note_on_c, 9, 38, 95
5, 132480, Note_off_c, 9, 46, 95
5, 132480, Note_off_c, 9, 38, 95
5, 132480, Note_on_c, 9, 46, 95
5, 132960, Note_off_c, 9, 46, 95
5, 132960, Note_on_c, 9, 36, 95
5, 133440, Note_off_c, 9, 36, 95
5, 133440, Note_on_c, 9, 46, 95
5, 133440, Note_on_c, 9, 38, 95
5, 133920, Note_off_c, 9, 46, 95
5, 133920, Note_off_c, 9, 38, 95
5, 133920, Note_on_c, 9, 49, 95
5, 134400, Note_off_c, 9, 49, 95
5, 134880, Note_on_c, 9, 36, 95
5, 135360, Note_off_c, 9, 36, 95
5, 135360, Note_on_c, 9, 46, 95
5, 135360, Note_on_c, 9, 38, 95
5, 136320, Note_off_c, 9, 46, 95
5, 136320, Note_off_c, 9, 38, 95
5, 136320, Note_on_c, 9, 46, 95
5, 136800, Note_off_c, 9, 46, 95
5, 136800, Note_on_c, 9, 36, 95
5, 137280, Note_off_c, 9, 36, 95
5, 137280, Note_on_c, 9, 46, 95
5, 137280, Note_on_c, 9, 38, 95
5, 138240, Note_off_c, 9, 46, 95
5, 138240, Note_off_c, 9, 38, 95
5, 138240, Note_on_c, 9, 46, 95
5, 138720, Note_off_c, 9, 46, 95
5, 138720, Note_on_c, 9, 36, 95
5, 139200, Note_off_c, 9, 36, 95
5, 139200, Note_on_c, 9, 46, 95
5, 139200, Note_on_c, 9, 38, 95
5, 140160, Note_off_c, 9, 46, 95
5, 140160, Note_off_c, 9, 38, 95
5, 140160, Note_on_c, 9, 46, 95
5, 140640, Note_off_c, 9, 46, 95
5, 140640, Note_on_c, 9, 36, 95
5, 141120, Note_off_c, 9, 36, 95
5, 141120, Note_on_c, 9, 46, 95
5, 141120, Note_on_c, 9, 38, 95
5, 141600, Note_off_c, 9, 46, 95
5, 141600, Note_off_c, 9, 38, 95
5, 141600, Note_on_c, 9, 49, 95
5, 142080, Note_off_c, 9, 49, 95
5, 142560, Note_on_c, 9, 36, 95
5, 143040, Note_off_c, 9, 36, 95
5, 143040, Note_on_c, 9, 46, 95
5, 143040, Note_on_c, 9, 38, 95
5, 144000, Note_off_c, 9, 46, 95
5, 144000, Note_off_c, 9, 38, 95
5, 144000, Note_on_c, 9, 46, 95
5, 144480, Note_off_c, 9, 46, 95
5, 144480, Note_on_c, 9, 36, 95
5, 144960, Note_off_c, 9, 36, 95
5, 144960, Note_on_c, 9, 46, 95
5, 144960, Note_on_c, 9, 38, 95
5, 145920, Note_off_c, 9, 46, 95
5, 145920, Note_off_c, 9, 38, 95
5, 145920, Note_on_c, 9, 46, 95
5, 146400, Note_off_c, 9, 46, 95
5, 146400, Note_on_c, 9, 36, 95
5, 146880, Note_off_c, 9, 36, 95
5, 146880, Note_on_c, 9, 46, 95
5, 146880, Note_on_c, 9, 38, 95
5, 147840, Note_off_c, 9, 46, 95
5, 147840, Note_off_c, 9, 38, 95
5, 147840, Note_on_c, 9, 46, 95
5, 148320, Note_off_c, 9, 46, 95
5, 148320, Note_on_c, 9, 36, 95
5, 148800, Note_off_c, 9, 36, 95
5, 148800, Note_on_c, 9, 46, 95
5, 148800, Note_on_c, 9, 38, 95
5, 149280, Note_off_c, 9, 46, 95
5, 149280, Note_off_c, 9, 38, 95
5, 149280, Note_on_c, 9, 49, 95
5, 149760, Note_off_c, 9, 49, 95
5, 150240, Note_on_c, 9, 36, 95
5, 150720, Note_off_c, 9, 36, 95
5, 150720, Note_on_c, 9, 46, 95
5, 150720, Note_on_c, 9, 38, 95
5, 151680, Note_off_c, 9, 46, 95
5, 151680, Note_off_c, 9, 38, 95
5, 151680, Note_on_c, 9, 46, 95
5, 151680, Note_on_c, 9, 36, 95
5, 152160, Note_off_c, 9, 46, 95
5, 152160, Note_off_c, 9, 36, 95
5, 152160, Note_on_c, 9, 38, 95
5, 152640, Note_off_c, 9, 38, 95
5, 152640, Note_on_c, 9, 46, 95
5, 153120, Note_off_c, 9, 46, 95
5, 153120, Note_on_c, 9, 36, 95
5, 153600, Note_off_c, 9, 36, 95
5, 153600, Note_on_c, 9, 46, 95
5, 153600, Note_on_c, 9, 38, 95
5, 154560, Note_off_c, 9, 46, 95
5, 154560, Note_off_c, 9, 38, 95
5, 154560, Note_on_c, 9, 46, 95
5, 154560, Note_on_c, 9, 36, 95
5, 155040, Note_off_c, 9, 46, 95
5, 155040, Note_off_c, 9, 36, 95
5, 155040, Note_on_c, 9, 38, 95
5, 155520, Note_off_c, 9, 38, 95
5, 155520, Note_on_c, 9, 46, 95
5, 156000, Note_off_c, 9, 46, 95
5, 156000, Note_on_c, 9, 38, 95
5, 156240, Note_off_c, 9, 38, 95
5, 156240, Note_on_c, 9, 38, 95
5, 156480, Note_off_c, 9, 38, 95
5, 156480, Note_on_c, 9, 38, 95
5, 156720, Note_off_c, 9, 38, 95
5, 156720, Note_on_c, 9, 38, 95
5, 156960, Note_off_c, 9, 38, 95
5, 156960, Note_on_c, 9, 49, 95
5, 157920, Note_off_c, 9, 49, 95
5, 157920, Note_on_c, 9, 36, 95
5, 158400, Note_off_c, 9, 36, 95
5, 158400, Note_on_c, 9, 51, 95
5, 158400, Note_on_c, 9, 38, 95
5, 159360, Note_off_c, 9, 51, 95
5, 159360, Note_off_c, 9, 38, 95
5, 159360, Note_on_c, 9, 51, 95
5, 159840, Note_off_c, 9, 51, 95
5, 159840, Note_on_c, 9, 36, 95
5, 160320, Note_off_c, 9, 36, 95
5, 160320, Note_on_c, 9, 51, 95
5, 160320, Note_on_c, 9, 38, 95
5, 161280, Note_off_c, 9, 51, 95
5, 161280, Note_off_c, 9, 38, 95
5, 161280, Note_on_c, 9, 51, 95
5, 161760, Note_off_c, 9, 51, 95
5, 161760, Note_on_c, 9, 36, 95
5, 162240, Note_off_c, 9, 36, 95
5, 162240, Note_on_c, 9, 51, 95
5, 162240, Note_on_c, 9, 38, 95
5, 163200, Note_off_c, 9, 51, 95
5, 163200, Note_off_c, 9, 38, 95
5, 163200, Note_on_c, 9, 51, 95
5, 163680, Note_off_c, 9, 51, 95
5, 163680, Note_on_c, 9, 51, 95
5, 163680, Note_on_c, 9, 36, 95
5, 164160, Note_off_c, 9, 51, 95
5, 164160, Note_off_c, 9, 36, 95
5, 164160, Note_on_c, 9, 38, 95
5, 164640, Note_off_c, 9, 38, 95
5, 164640, Note_on_c, 9, 49, 95
5, 165120, Note_off_c, 9, 49, 95
5, 165600, Note_on_c, 9, 36, 95
5, 166080, Note_off_c, 9, 36, 95
5, 166080, Note_on_c, 9, 51, 95
5, 166080, Note_on_c, 9, 38, 95
5, 167040, Note_off_c, 9, 51, 95
5, 167040, Note_off_c, 9, 38, 95
5, 167040, Note_on_c, 9, 51, 95
5, 167520, Note_off_c, 9, 51, 95
5, 167520, Note_on_c, 9, 36, 95
5, 168000, Note_off_c, 9, 36, 95
5, 168000, Note_on_c, 9, 51, 95
5, 168000, Note_on_c, 9, 38, 95
5, 168960, Note_off_c, 9, 51, 95
5, 168960, Note_off_c, 9, 38, 95
5, 168960, Note_on_c, 9, 51, 95
5, 169440, Note_off_c, 9, 51, 95
5, 169440, Note_on_c, 9, 36, 95
5, 169920, Note_off_c, 9, 36, 95
5, 169920, Note_on_c, 9, 51, 95
5, 169920, Note_on_c, 9, 38, 95
5, 170880, Note_off_c, 9, 51, 95
5, 170880, Note_off_c, 9, 38, 95
5, 170880, Note_on_c, 9, 51, 95
5, 171360, Note_off_c, 9, 51, 95
5, 171360, Note_on_c, 9, 51, 95
5, 171360, Note_on_c, 9, 36, 95
5, 171840, Note_off_c, 9, 51, 95
5, 171840, Note_off_c, 9, 36, 95
5, 171840, Note_on_c, 9, 38, 95
5, 172320, Note_off_c, 9, 38, 95
5, 172320, Note_on_c, 9, 49, 95
5, 172800, Note_off_c, 9, 49, 95
5, 173280, Note_on_c, 9, 36, 95
5, 173760, Note_off_c, 9, 36, 95
5, 173760, Note_on_c, 9, 51, 95
5, 173760, Note_on_c, 9, 38, 95
5, 174720, Note_off_c, 9, 51, 95
5, 174720, Note_off_c, 9, 38, 95
5, 174720, Note_on_c, 9, 51, 95
5, 175200, Note_off_c, 9, 51, 95
5, 175200, Note_on_c, 9, 36, 95
5, 175680, Note_off_c, 9, 36, 95
5, 175680, Note_on_c, 9, 51, 95
5, 175680, Note_on_c, 9, 38, 95
5, 176640, Note_off_c, 9, 51, 95
5, 176640, Note_off_c, 9, 38, 95
5, 176640, Note_on_c, 9, 51, 95
5, 177120, Note_off_c, 9, 51, 95
5, 177120, Note_on_c, 9, 36, 95
5, 177600, Note_off_c, 9, 36, 95
5, 177600, Note_on_c, 9, 51, 95
5, 177600, Note_on_c, 9, 38, 95
5, 178560, Note_off_c, 9, 51, 95
5, 178560, Note_off_c, 9, 38, 95
5, 178560, Note_on_c, 9, 51, 95
5, 179040, Note_off_c, 9, 51, 95
5, 179040, Note_on_c, 9, 51, 95
5, 179040, Note_on_c, 9, 36, 95
5, 179520, Note_off_c, 9, 51, 95
5, 179520, Note_off_c, 9, 36, 95
5, 179520, Note_on_c, 9, 38, 95
5, 180000, Note_off_c, 9, 38, 95
5, 180000, Note_on_c, 9, 49, 95
5, 180480, Note_off_c, 9, 49, 95
5, 180960, Note_on_c, 9, 36, 95
5, 181440, Note_off_c, 9, 36, 95
5, 181440, Note_on_c, 9, 51, 95
5, 181440, Note_on_c, 9, 38, 95
5, 181920, Note_off_c, 9, 51, 95
5, 181920, Note_off_c, 9, 38, 95
5, 181920, Note_on_c, 9, 47, 95
5, 182080, Note_off_c, 9, 47, 95
5, 182080, Note_on_c, 9, 47, 95
5, 182240, Note_off_c, 9, 47, 95
5, 182240, Note_on_c, 9, 47, 95
5, 182400, Note_off_c, 9, 47, 95
5, 182400, Note_on_c, 9, 38, 95
5, 182880, Note_off_c, 9, 38, 95
5, 182880, Note_on_c, 9, 45, 95
5, 183360, Note_off_c, 9, 45, 95
5, 183360, Note_on_c, 9, 43, 95
5, 183840, Note_off_c, 9, 43, 95
5, 183840, Note_on_c, 9, 41, 95
5, 184320, Note_off_c, 9, 41, 95
5, 184320, Note_on_c, 9, 38, 95
5, 184800, Note_off_c, 9, 38, 95
5, 187680, Note_on_c, 9, 49, 95
5, 187680, Note_on_c, 9, 36, 95
5, 188160, Note_off_c, 9, 49, 95
5, 188160, Note_off_c, 9, 36, 95
5, 188640, Note_on_c, 9, 36, 95
5, 188880, Note_off_c, 9, 36, 95
5, 188880, Note_on_c, 9, 36, 95
5, 189120, Note_off_c, 9, 36, 95
5, 189120, Note_on_c, 9, 46, 95
5, 189120, Note_on_c, 9, 38, 95
5, 189600, Note_off_c, 9, 46, 95
5, 189600, Note_off_c, 9, 38, 95
5, 189600, Note_on_c, 9, 36, 95
5, 189840, Note_off_c, 9, 36, 95
5, 189840, Note_on_c, 9, 36, 95
5, 190080, Note_off_c, 9, 36, 95
5, 190080, Note_on_c, 9, 46, 95
5, 190560, Note_off_c, 9, 46, 95
5, 190560, Note_on_c, 9, 36, 95
5, 190800, Note_off_c, 9, 36, 95
5, 190800, Note_on_c, 9, 36, 95
5, 191040, Note_off_c, 9, 36, 95
5, 191040, Note_on_c, 9, 46, 95
5, 191040, Note_on_c, 9, 38, 95
5, 191520, Note_off_c, 9, 46, 95
5, 191520, Note_off_c, 9, 38, 95
5, 191520, Note_on_c, 9, 36, 95
5, 191760, Note_off_c, 9, 36, 95
5, 191760, Note_on_c, 9, 36, 95
5, 192000, Note_off_c, 9, 36, 95
5, 192000, Note_on_c, 9, 46, 95
5, 192480, Note_off_c, 9, 46, 95
5, 192480, Note_on_c, 9, 36, 95
5, 192720, Note_off_c, 9, 36, 95
5, 192720, Note_on_c, 9, 36, 95
5, 192960, Note_off_c, 9, 36, 95
5, 192960, Note_on_c, 9, 46, 95
5, 192960, Note_on_c, 9, 38, 95
5, 193440, Note_off_c, 9, 46, 95
5, 193440, Note_off_c, 9, 38, 95
5, 193440, Note_on_c, 9, 36, 95
5, 193680, Note_off_c, 9, 36, 95
5, 193680, Note_on_c, 9, 36, 95
5, 193920, Note_off_c, 9, 36, 95
5, 193920, Note_on_c, 9, 46, 95
5, 194400, Note_off_c, 9, 46, 95
5, 194400, Note_on_c, 9, 36, 95
5, 194640, Note_off_c, 9, 36, 95
5, 194640, Note_on_c, 9, 36, 95
5, 194880, Note_off_c, 9, 36, 95
5, 194880, Note_on_c, 9, 38, 95
5, 195360, Note_off_c, 9, 38, 95
5, 195360, Note_on_c, 9, 49, 95
5, 195360, Note_on_c, 9, 36, 95
5, 195840, Note_off_c, 9, 49, 95
5, 195840, Note_off_c, 9, 36, 95
5, 196320, Note_on_c, 9, 36, 95
5, 196560, Note_off_c, 9, 36, 95
5, 196560, Note_on_c, 9, 36, 95
5, 196800, Note_off_c, 9, 36, 95
5, 196800, Note_on_c, 9, 46, 95
5, 196800, Note_on_c, 9, 38, 95
5, 197280, Note_off_c, 9, 46, 95
5, 197280, Note_off_c, 9, 38, 95
5, 197280, Note_on_c, 9, 36, 95
5, 197520, Note_off_c, 9, 36, 95
5, 197520, Note_on_c, 9, 36, 95
5, 197760, Note_off_c, 9, 36, 95
5, 197760, Note_on_c, 9, 46, 95
5, 198240, Note_off_c, 9, 46, 95
5, 198240, Note_on_c, 9, 36, 95
5, 198480, Note_off_c, 9, 36, 95
5, 198480, Note_on_c, 9, 36, 95
5, 198720, Note_off_c, 9, 36, 95
5, 198720, Note_on_c, 9, 46, 95
5, 198720, Note_on_c, 9, 38, 95
5, 199200, Note_off_c, 9, 46, 95
5, 199200, Note_off_c, 9, 38, 95
5, 199200, Note_on_c, 9, 36, 95
5, 199440, Note_off_c, 9, 36, 95
5, 199440, Note_on_c, 9, 36, 95
5, 199680, Note_off_c, 9, 36, 95
5, 199680, Note_on_c, 9, 46, 95
5, 200160, Note_off_c, 9, 46, 95
5, 200160, Note_on_c, 9, 36, 95
5, 200400, Note_off_c, 9, 36, 95
5, 200400, Note_on_c, 9, 36, 95
5, 200640, Note_off_c, 9, 36, 95
5, 200640, Note_on_c, 9, 46, 95
5, 200640, Note_on_c, 9, 38, 95
5, 201120, Note_off_c, 9, 46, 95
5, 201120, Note_off_c, 9, 38, 95
5, 201120, Note_on_c, 9, 36, 95
5, 201360, Note_off_c, 9, 36, 95
5, 201360, Note_on_c, 9, 36, 95
5, 201600, Note_off_c, 9, 36, 95
5, 201600, Note_on_c, 9, 46, 95
5, 202080, Note_off_c, 9, 46, 95
5, 202080, Note_on_c, 9, 36, 95
5, 202320, Note_off_c, 9, 36, 95
5, 202320, Note_on_c, 9, 36, 95
5, 202560, Note_off_c, 9, 36, 95
5, 202560, Note_on_c, 9, 38, 95
5, 203040, Note_off_c, 9, 38, 95
5, 203040, Note_on_c, 9, 49, 95
5, 203040, Note_on_c, 9, 36, 95
5, 203520, Note_off_c, 9, 49, 95
5, 203520, Note_off_c, 9, 36, 95
5, 204000, Note_on_c, 9, 36, 95
5, 204240, Note_off_c, 9, 36, 95
5, 204240, Note_on_c, 9, 36, 95
5, 204480, Note_off_c, 9, 36, 95
5, 204480, Note_on_c, 9, 46, 95
5, 204480, Note_on_c, 9, 38, 95
5, 204960, Note_off_c, 9, 46, 95
5, 204960, Note_off_c, 9, 38, 95
5, 204960, Note_on_c, 9, 36, 95
5, 205200, Note_off_c, 9, 36, 95
5, 205200, Note_on_c, 9, 36, 95
5, 205440, Note_off_c, 9, 36, 95
5, 205440, Note_on_c, 9, 46, 95
5, 205920, Note_off_c, 9, 46, 95
5, 205920, Note_on_c, 9, 36, 95
5, 206160, Note_off_c, 9, 36, 95
5, 206160, Note_on_c, 9, 36, 95
5, 206400, Note_off_c, 9, 36, 95
5, 206400, Note_on_c, 9, 46, 95
5, 206400, Note_on_c, 9, 38, 95
5, 206880, Note_off_c, 9, 46, 95
5, 206880, Note_off_c, 9, 38, 95
5, 206880, Note_on_c, 9, 36, 95
5, 207120, Note_off_c, 9, 36, 95
5, 207120, Note_on_c, 9, 36, 95
5, 207360, Note_off_c, 9, 36, 95
5, 207360, Note_on_c, 9, 46, 95
5, 207840, Note_off_c, 9, 46, 95
5, 207840, Note_on_c, 9, 36, 95
5, 208080, Note_off_c, 9, 36, 95
5, 208080, Note_on_c, 9, 36, 95
5, 208320, Note_off_c, 9, 36, 95
5, 208320, Note_on_c, 9, 46, 95
5, 208320, Note_on_c, 9, 38, 95
5, 208800, Note_off_c, 9, 46, 95
5, 208800, Note_off_c, 9, 38, 95
5, 208800, Note_on_c, 9, 36, 95
5, 209040, Note_off_c, 9, 36, 95
5, 209040, Note_on_c, 9, 36, 95
5, 209280, Note_off_c, 9, 36, 95
5, 209280, Note_on_c, 9, 46, 95
5, 209760, Note_off_c, 9, 46, 95
5, 209760, Note_on_c, 9, 36, 95
5, 210000, Note_off_c, 9, 36, 95
5, 210000, Note_on_c, 9, 36, 95
5, 210240, Note_off_c, 9, 36, 95
5, 210240, Note_on_c, 9, 38, 95
5, 210720, Note_off_c, 9, 38, 95
5, 210720, Note_on_c, 9, 49, 95
5, 210720, Note_on_c, 9, 36, 95
5, 211200, Note_off_c, 9, 49, 95
5, 211200, Note_off_c, 9, 36, 95
5, 211680, Note_on_c, 9, 36, 95
5, 211920, Note_off_c, 9, 36, 95
5, 211920, Note_on_c, 9, 36, 95
5, 212160, Note_off_c, 9, 36, 95
5, 212160, Note_on_c, 9, 46, 95
5, 212160, Note_on_c, 9, 38, 95
5, 212640, Note_off_c, 9, 46, 95
5, 212640, Note_off_c, 9, 38, 95
5, 212640, Note_on_c, 9, 36, 95
5, 212880, Note_off_c, 9, 36, 95
5, 212880, Note_on_c, 9, 36, 95
5, 213120, Note_off_c, 9, 36, 95
5, 213120, Note_on_c, 9, 46, 95
5, 213600, Note_off_c, 9, 46, 95
5, 213600, Note_on_c, 9, 36, 95
5, 213840, Note_off_c, 9, 36, 95
5, 213840, Note_on_c, 9, 36, 95
5, 214080, Note_off_c, 9, 36, 95
5, 214080, Note_on_c, 9, 46, 95
5, 214080, Note_on_c, 9, 38, 95
5, 214560, Note_off_c, 9, 46, 95
5, 214560, Note_off_c, 9, 38, 95
5, 214560, Note_on_c, 9, 50, 95
5, 214720, Note_off_c, 9, 50, 95
5, 214720, Note_on_c, 9, 50, 95
5, 214880, Note_off_c, 9, 50, 95
5, 214880, Note_on_c, 9, 47, 95
5, 215040, Note_off_c, 9, 47, 95
5, 215040, Note_on_c, 9, 38, 95
5, 215520, Note_off_c, 9, 38, 95
5, 215520, Note_on_c, 9, 38, 95
5, 216000, Note_off_c, 9, 38, 95
5, 216000, Note_on_c, 9, 38, 95
5, 216480, Note_off_c, 9, 38, 95
5, 216480, Note_on_c, 9, 38, 95
5, 216960, Note_off_c, 9, 38, 95
5, 216960, Note_on_c, 9, 38, 95
5, 217440, Note_off_c, 9, 38, 95
5, 217440, Note_on_c, 9, 38, 95
5, 217680, Note_off_c, 9, 38, 95
5, 217680, Note_on_c, 9, 38, 95
5, 217920, Note_off_c, 9, 38, 95
5, 217920, Note_on_c, 9, 38, 95
5, 218160, Note_off_c, 9, 38, 95
5, 218160, Note_on_c, 9, 38, 95
5, 218400, Note_off_c, 9, 38, 95
5, 218400, Note_on_c, 9, 49, 95
5, 218400, Note_on_c, 9, 36, 95
5, 218880, Note_off_c, 9, 49, 95
5, 218880, Note_off_c, 9, 36, 95
5, 219360, Note_on_c, 9, 36, 95
5, 219600, Note_off_c, 9, 36, 95
5, 219600, Note_on_c, 9, 36, 95
5, 219840, Note_off_c, 9, 36, 95
5, 219840, Note_on_c, 9, 46, 95
5, 219840, Note_on_c, 9, 38, 95
5, 220320, Note_off_c, 9, 46, 95
5, 220320, Note_off_c, 9, 38, 95
5, 220320, Note_on_c, 9, 36, 95
5, 220560, Note_off_c, 9, 36, 95
5, 220560, Note_on_c, 9, 36, 95
5, 220800, Note_off_c, 9, 36, 95
5, 220800, Note_on_c, 9, 46, 95
5, 221280, Note_off_c, 9, 46, 95
5, 221280, Note_on_c, 9, 36, 95
5, 221520, Note_off_c, 9, 36, 95
5, 221520, Note_on_c, 9, 36, 95
5, 221760, Note_off_c, 9, 36, 95
5, 221760, Note_on_c, 9, 46, 95
5, 221760, Note_on_c, 9, 38, 95
5, 222240, Note_off_c, 9, 46, 95
5, 222240, Note_off_c, 9, 38, 95
5, 222240, Note_on_c, 9, 36, 95
5, 222480, Note_off_c, 9, 36, 95
5, 222480, Note_on_c, 9, 36, 95
5, 222720, Note_off_c, 9, 36, 95
5, 222720, Note_on_c, 9, 46, 95
5, 223200, Note_off_c, 9, 46, 95
5, 223200, Note_on_c, 9, 36, 95
5, 223440, Note_off_c, 9, 36, 95
5, 223440, Note_on_c, 9, 36, 95
5, 223680, Note_off_c, 9, 36, 95
5, 223680, Note_on_c, 9, 46, 95
5, 223680, Note_on_c, 9, 38, 95
5, 224160, Note_off_c, 9, 46, 95
5, 224160, Note_off_c, 9, 38, 95
5, 224160, Note_on_c, 9, 36, 95
5, 224400, Note_off_c, 9, 36, 95
5, 224400, Note_on_c, 9, 36, 95
5, 224640, Note_off_c, 9, 36, 95
5, 224640, Note_on_c, 9, 46, 95
5, 225120, Note_off_c, 9, 46, 95
5, 225120, Note_on_c, 9, 36, 95
5, 225360, Note_off_c, 9, 36, 95
5, 225360, Note_on_c, 9, 36, 95
5, 225600, Note_off_c, 9, 36, 95
5, 225600, Note_on_c, 9, 38, 95
5, 226080, Note_off_c, 9, 38, 95
5, 226080, Note_on_c, 9, 49, 95
5, 226080, Note_on_c, 9, 36, 95
5, 226560, Note_off_c, 9, 49, 95
5, 226560, Note_off_c, 9, 36, 95
5, 227040, Note_on_c, 9, 36, 95
5, 227280, Note_off_c, 9, 36, 95
5, 227280, Note_on_c, 9, 36, 95
5, 227520, Note_off_c, 9, 36, 95
5, 227520, Note_on_c, 9, 46, 95
5, 227520, Note_on_c, 9, 38, 95
5, 228000, Note_off_c, 9, 46, 95
5, 228000, Note_off_c, 9, 38, 95
5, 228000, Note_on_c, 9, 36, 95
5, 228240, Note_off_c, 9, 36, 95
5, 228240, Note_on_c, 9, 36, 95
5, 228480, Note_off_c, 9, 36, 95
5, 228480, Note_on_c, 9, 46, 95
5, 228960, Note_off_c, 9, 46, 95
5, 228960, Note_on_c, 9, 36, 95
5, 229200, Note_off_c, 9, 36, 95
5, 229200, Note_on_c, 9, 36, 95
5, 229440, Note_off_c, 9, 36, 95
5, 229440, Note_on_c, 9, 46, 95
5, 229440, Note_on_c, 9, 38, 95
5, 229920, Note_off_c, 9, 46, 95
5, 229920, Note_off_c, 9, 38, 95
5, 229920, Note_on_c, 9, 36, 95
5, 230160, Note_off_c, 9, 36, 95
5, 230160, Note_on_c, 9, 36, 95
5, 230400, Note_off_c, 9, 36, 95
5, 230400, Note_on_c, 9, 46, 95
5, 230880, Note_off_c, 9, 46, 95
5, 230880, Note_on_c, 9, 36, 95
5, 231120, Note_off_c, 9, 36, 95
5, 231120, Note_on_c, 9, 36, 95
5, 231360, Note_off_c, 9, 36, 95
5, 231360, Note_on_c, 9, 46, 95
5, 231360, Note_on_c, 9, 38, 95
5, 231840, Note_off_c, 9, 46, 95
5, 231840, Note_off_c, 9, 38, 95
5, 231840, Note_on_c, 9, 36, 95
5, 232080, Note_off_c, 9, 36, 95
5, 232080, Note_on_c, 9, 36, 95
5, 232320, Note_off_c, 9, 36, 95
5, 232320, Note_on_c, 9, 46, 95
5, 232800, Note_off_c, 9, 46, 95
5, 232800, Note_on_c, 9, 36, 95
5, 233040, Note_off_c, 9, 36, 95
5, 233040, Note_on_c, 9, 36, 95
5, 233280, Note_off_c, 9, 36, 95
5, 233280, Note_on_c, 9, 38, 95
5, 233760, Note_off_c, 9, 38, 95
5, 233760, Note_on_c, 9, 49, 95
5, 233760, Note_on_c, 9, 36, 95
5, 234240, Note_off_c, 9, 49, 95
5, 234240, Note_off_c, 9, 36, 95
5, 234720, Note_on_c, 9, 36, 95
5, 234960, Note_off_c, 9, 36, 95
5, 234960, Note_on_c, 9, 36, 95
5, 235200, Note_off_c, 9, 36, 95
5, 235200, Note_on_c, 9, 46, 95
5, 235200, Note_on_c, 9, 38, 95
5, 235680, Note_off_c, 9, 46, 95
5, 235680, Note_off_c, 9, 38, 95
5, 235680, Note_on_c, 9, 36, 95
5, 235920, Note_off_c, 9, 36, 95
5, 235920, Note_on_c, 9, 36, 95
5, 236160, Note_off_c, 9, 36, 95
5, 236160, Note_on_c, 9, 46, 95
5, 236640, Note_off_c, 9, 46, 95
5, 236640, Note_on_c, 9, 36, 95
5, 236880, Note_off_c, 9, 36, 95
5, 236880, Note_on_c, 9, 36, 95
5, 237120, Note_off_c, 9, 36, 95
5, 237120, Note_on_c, 9, 46, 95
5, 237120, Note_on_c, 9, 38, 95
5, 237600, Note_off_c, 9, 46, 95
5, 237600, Note_off_c, 9, 38, 95
5, 237600, Note_on_c, 9, 36, 95
5, 237840, Note_off_c, 9, 36, 95
5, 237840, Note_on_c, 9, 36, 95
5, 238080, Note_off_c, 9, 36, 95
5, 238080, Note_on_c, 9, 46, 95
5, 238560, Note_off_c, 9, 46, 95
5, 238560, Note_on_c, 9, 36, 95
5, 238800, Note_off_c, 9, 36, 95
5, 238800, Note_on_c, 9, 36, 95
5, 239040, Note_off_c, 9, 36, 95
5, 239040, Note_on_c, 9, 46, 95
5, 239040, Note_on_c, 9, 38, 95
5, 239520, Note_off_c, 9, 46, 95
5, 239520, Note_off_c, 9, 38, 95
5, 239520, Note_on_c, 9, 36, 95
5, 239760, Note_off_c, 9, 36, 95
5, 239760, Note_on_c, 9, 36, 95
5, 240000, Note_off_c, 9, 36, 95
5, 240000, Note_on_c, 9, 46, 95
5, 240480, Note_off_c, 9, 46, 95
5, 240480, Note_on_c, 9, 36, 95
5, 240720, Note_off_c, 9, 36, 95
5, 240720, Note_on_c, 9, 36, 95
5, 240960, Note_off_c, 9, 36, 95
5, 240960, Note_on_c, 9, 38, 95
5, 241440, Note_off_c, 9, 38, 95
5, 241440, Note_on_c, 9, 49, 95
5, 241440, Note_on_c, 9, 36, 95
5, 241920, Note_off_c, 9, 49, 95
5, 241920, Note_off_c, 9, 36, 95
5, 242400, Note_on_c, 9, 36, 95
5, 242640, Note_off_c, 9, 36, 95
5, 242640, Note_on_c, 9, 36, 95
5, 242880, Note_off_c, 9, 36, 95
5, 242880, Note_on_c, 9, 46, 95
5, 242880, Note_on_c, 9, 38, 95
5, 243360, Note_off_c, 9, 46, 95
5, 243360, Note_off_c, 9, 38, 95
5, 243360, Note_on_c, 9, 36, 95
5, 243600, Note_off_c, 9, 36, 95
5, 243600, Note_on_c, 9, 36, 95
5, 243840, Note_off_c, 9, 36, 95
5, 243840, Note_on_c, 9, 46, 95
5, 244320, Note_off_c, 9, 46, 95
5, 244320, Note_on_c, 9, 36, 95
5, 244560, Note_off_c, 9, 36, 95
5, 244560, Note_on_c, 9, 36, 95
5, 244800, Note_off_c, 9, 36, 95
5, 244800, Note_on_c, 9, 46, 95
5, 244800, Note_on_c, 9, 38, 95
5, 245280, Note_off_c, 9, 46, 95
5, 245280, Note_off_c, 9, 38, 95
5, 245280, Note_on_c, 9, 50, 95
5, 245440, Note_off_c, 9, 50, 95
5, 245440, Note_on_c, 9, 50, 95
5, 245600, Note_off_c, 9, 50, 95
5, 245600, Note_on_c, 9, 47, 95
5, 245760, Note_off_c, 9, 47, 95
5, 245760, Note_on_c, 9, 38, 95
5, 246240, Note_off_c, 9, 38, 95
5, 246240, Note_on_c, 9, 38, 95
5, 246720, Note_off_c, 9, 38, 95
5, 246720, Note_on_c, 9, 38, 95
5, 247200, Note_off_c, 9, 38, 95
5, 247200, Note_on_c, 9, 38, 95
5, 247680, Note_off_c, 9, 38, 95
5, 247680, Note_on_c, 9, 38, 95
5, 248160, Note_off_c, 9, 38, 95
5, 248160, Note_on_c, 9, 38, 95
5, 248400, Note_off_c, 9, 38, 95
5, 248400, Note_on_c, 9, 38, 95
5, 248640, Note_off_c, 9, 38, 95
5, 248640, Note_on_c, 9, 38, 95
5, 248880, Note_off_c, 9, 38, 95
5, 248880, Note_on_c, 9, 38, 95
5, 249120, Note_off_c, 9, 38, 95
5, 249120, Note_on_c, 9, 49, 95
5, 249120, Note_on_c, 9, 36, 95
5, 250080, Note_off_c, 9, 49, 95
5, 250080, Note_off_c, 9, 36, 95
5, 250080, Note_on_c, 9, 36, 95
5, 250560, Note_off_c, 9, 36, 95
5, 250560, Note_on_c, 9, 46, 95
5, 250560, Note_on_c, 9, 38, 95
5, 251520, Note_off_c, 9, 46, 95
5, 251520, Note_off_c, 9, 38, 95
5, 251520, Note_on_c, 9, 46, 95
5, 252000, Note_off_c, 9, 46, 95
5, 252000, Note_on_c, 9, 36, 95
5, 252480, Note_off_c, 9, 36, 95
5, 252480, Note_on_c, 9, 46, 95
5, 252480, Note_on_c, 9, 38, 95
5, 253440, Note_off_c, 9, 46, 95
5, 253440, Note_off_c, 9, 38, 95
5, 253440, Note_on_c, 9, 46, 95
5, 253920, Note_off_c, 9, 46, 95
5, 253920, Note_on_c, 9, 36, 95
5, 254400, Note_off_c, 9, 36, 95
5, 254400, Note_on_c, 9, 46, 95
5, 254400, Note_on_c, 9, 38, 95
5, 255360, Note_off_c, 9, 46, 95
5, 255360, Note_off_c, 9, 38, 95
5, 255360, Note_on_c, 9, 46, 95
5, 255840, Note_off_c, 9, 46, 95
5, 255840, Note_on_c, 9, 36, 95
5, 256320, Note_off_c, 9, 36, 95
5, 256320, Note_on_c, 9, 46, 95
5, 256320, Note_on_c, 9, 38, 95
5, 256800, Note_off_c, 9, 46, 95
5, 256800, Note_off_c, 9, 38, 95
5, 256800, Note_on_c, 9, 36, 95
5, 257280, Note_off_c, 9, 36, 95
5, 257280, Note_on_c, 9, 46, 95
5, 257760, Note_off_c, 9, 46, 95
5, 257760, Note_on_c, 9, 36, 95
5, 258240, Note_off_c, 9, 36, 95
5, 258240, Note_on_c, 9, 46, 95
5, 258240, Note_on_c, 9, 38, 95
5, 259200, Note_off_c, 9, 46, 95
5, 259200, Note_off_c, 9, 38, 95
5, 259200, Note_on_c, 9, 46, 95
5, 259680, Note_off_c, 9, 46, 95
5, 259680, Note_on_c, 9, 36, 95
5, 260160, Note_off_c, 9, 36, 95
5, 260160, Note_on_c, 9, 46, 95
5, 260160, Note_on_c, 9, 38, 95
5, 261120, Note_off_c, 9, 46, 95
5, 261120, Note_off_c, 9, 38, 95
5, 261120, Note_on_c, 9, 46, 95
5, 261600, Note_off_c, 9, 46, 95
5, 261600, Note_on_c, 9, 36, 95
5, 262080, Note_off_c, 9, 36, 95
5, 262080, Note_on_c, 9, 46, 95
5, 262080, Note_on_c, 9, 38, 95
5, 263040, Note_off_c, 9, 46, 95
5, 263040, Note_off_c, 9, 38, 95
5, 263040, Note_on_c, 9, 46, 95
5, 263520, Note_off_c, 9, 46, 95
5, 263520, Note_on_c, 9, 36, 95
5, 264000, Note_off_c, 9, 36, 95
5, 264000, Note_on_c, 9, 46, 95
5, 264000, Note_on_c, 9, 38, 95
5, 264480, Note_off_c, 9, 46, 95
5, 264480, Note_off_c, 9, 38, 95
5, 264480, Note_on_c, 9, 36, 95
5, 264960, Note_off_c, 9, 36, 95
5, 264960, Note_on_c, 9, 46, 95
5, 265440, Note_off_c, 9, 46, 95
5, 265440, Note_on_c, 9, 36, 95
5, 265920, Note_off_c, 9, 36, 95
5, 265920, Note_on_c, 9, 46, 95
5, 265920, Note_on_c, 9, 38, 95
5, 266880, Note_off_c, 9, 46, 95
5, 266880, Note_off_c, 9, 38, 95
5, 266880, Note_on_c, 9, 46, 95
5, 267360, Note_off_c, 9, 46, 95
5, 267360, Note_on_c, 9, 36, 95
5, 267840, Note_off_c, 9, 36, 95
5, 267840, Note_on_c, 9, 46, 95
5, 267840, Note_on_c, 9, 38, 95
5, 268800, Note_off_c, 9, 46, 95
5, 268800, Note_off_c, 9, 38, 95
5, 268800, Note_on_c, 9, 46, 95
5, 269280, Note_off_c, 9, 46, 95
5, 269280, Note_on_c, 9, 36, 95
5, 269760, Note_off_c, 9, 36, 95
5, 269760, Note_on_c, 9, 46, 95
5, 269760, Note_on_c, 9, 38, 95
5, 270720, Note_off_c, 9, 46, 95
5, 270720, Note_off_c, 9, 38, 95
5, 270720, Note_on_c, 9, 46, 95
5, 271200, Note_off_c, 9, 46, 95
5, 271200, Note_on_c, 9, 36, 95
5, 271680, Note_off_c, 9, 36, 95
5, 271680, Note_on_c, 9, 46, 95
5, 271680, Note_on_c, 9, 38, 95
5, 272160, Note_off_c, 9, 46, 95
5, 272160, Note_off_c, 9, 38, 95
5, 272160, Note_on_c, 9, 36, 95
5, 272640, Note_off_c, 9, 36, 95
5, 272640, Note_on_c, 9, 46, 95
5, 273120, Note_off_c, 9, 46, 95
5, 273120, Note_on_c, 9, 36, 95
5, 273600, Note_off_c, 9, 36, 95
5, 273600, Note_on_c, 9, 46, 95
5, 273600, Note_on_c, 9, 38, 95
5, 274560, Note_off_c, 9, 46, 95
5, 274560, Note_off_c, 9, 38, 95
5, 274560, Note_on_c, 9, 46, 95
5, 275040, Note_off_c, 9, 46, 95
5, 275040, Note_on_c, 9, 36, 95
5, 275520, Note_off_c, 9, 36, 95
5, 275520, Note_on_c, 9, 46, 95
5, 275520, Note_on_c, 9, 38, 95
5, 276480, Note_off_c, 9, 46, 95
5, 276480, Note_off_c, 9, 38, 95
5, 276480, Note_on_c, 9, 46, 95
5, 276960, Note_off_c, 9, 46, 95
5, 276960, Note_on_c, 9, 36, 95
5, 277440, Note_off_c, 9, 36, 95
5, 277440, Note_on_c, 9, 46, 95
5, 277440, Note_on_c, 9, 38, 95
5, 278400, Note_off_c, 9, 46, 95
5, 278400, Note_off_c, 9, 38, 95
5, 278400, Note_on_c, 9, 46, 95
5, 278880, Note_off_c, 9, 46, 95
5, 278880, Note_on_c, 9, 36, 95
5, 279360, Note_off_c, 9, 36, 95
5, 279360, Note_on_c, 9, 46, 95
5, 279360, Note_on_c, 9, 38, 95
5, 279840, Note_off_c, 9, 46, 95
5, 279840, Note_off_c, 9, 38, 95
5, 279840, Note_on_c, 9, 49, 95
5, 279840, Note_on_c, 9, 36, 95
5, 280800, Note_off_c, 9, 49, 95
5, 280800, Note_off_c, 9, 36, 95
5, 280800, Note_on_c, 9, 36, 95
5, 281280, Note_off_c, 9, 36, 95
5, 281280, Note_on_c, 9, 46, 95
5, 281280, Note_on_c, 9, 38, 95
5, 282240, Note_off_c, 9, 46, 95
5, 282240, Note_off_c, 9, 38, 95
5, 282240, Note_on_c, 9, 46, 95
5, 282720, Note_off_c, 9, 46, 95
5, 282720, Note_on_c, 9, 36, 95
5, 283200, Note_off_c, 9, 36, 95
5, 283200, Note_on_c, 9, 46, 95
5, 283200, Note_on_c, 9, 38, 95
5, 284160, Note_off_c, 9, 46, 95
5, 284160, Note_off_c, 9, 38, 95
5, 284160, Note_on_c, 9, 46, 95
5, 284640, Note_off_c, 9, 46, 95
5, 284640, Note_on_c, 9, 36, 95
5, 285120, Note_off_c, 9, 36, 95
5, 285120, Note_on_c, 9, 46, 95
5, 285120, Note_on_c, 9, 38, 95
5, 286080, Note_off_c, 9, 46, 95
5, 286080, Note_off_c, 9, 38, 95
5, 286080, Note_on_c, 9, 46, 95
5, 286560, Note_off_c, 9, 46, 95
5, 286560, Note_on_c, 9, 36, 95
5, 287040, Note_off_c, 9, 36, 95
5, 287040, Note_on_c, 9, 46, 95
5, 287040, Note_on_c, 9, 38, 95
5, 287520, Note_off_c, 9, 46, 95
5, 287520, Note_off_c, 9, 38, 95
5, 287520, Note_on_c, 9, 49, 95
5, 288000, Note_off_c, 9, 49, 95
5, 288480, Note_on_c, 9, 36, 95
5, 288960, Note_off_c, 9, 36, 95
5, 288960, Note_on_c, 9, 46, 95
5, 288960, Note_on_c, 9, 38, 95
5, 289920, Note_off_c, 9, 46, 95
5, 289920, Note_off_c, 9, 38, 95
5, 289920, Note_on_c, 9, 46, 95
5, 290400, Note_off_c, 9, 46, 95
5, 290400, Note_on_c, 9, 36, 95
5, 290880, Note_off_c, 9, 36, 95
5, 290880, Note_on_c, 9, 46, 95
5, 290880, Note_on_c, 9, 38, 95
5, 291840, Note_off_c, 9, 46, 95
5, 291840, Note_off_c, 9, 38, 95
5, 291840, Note_on_c, 9, 46, 95
5, 292320, Note_off_c, 9, 46, 95
5, 292320, Note_on_c, 9, 36, 95
5, 292800, Note_off_c, 9, 36, 95
5, 292800, Note_on_c, 9, 46, 95
5, 292800, Note_on_c, 9, 38, 95
5, 293760, Note_off_c, 9, 46, 95
5, 293760, Note_off_c, 9, 38, 95
5, 293760, Note_on_c, 9, 46, 95
5, 294240, Note_off_c, 9, 46, 95
5, 294240, Note_on_c, 9, 36, 95
5, 294720, Note_off_c, 9, 36, 95
5, 294720, Note_on_c, 9, 46, 95
5, 294720, Note_on_c, 9, 38, 95
5, 295200, Note_off_c, 9, 46, 95
5, 295200, Note_off_c, 9, 38, 95
5, 295200, Note_on_c, 9, 49, 95
5, 295680, Note_off_c, 9, 49, 95
5, 296160, Note_on_c, 9, 36, 95
5, 296640, Note_off_c, 9, 36, 95
5, 296640, Note_on_c, 9, 46, 95
5, 296640, Note_on_c, 9, 38, 95
5, 297600, Note_off_c, 9, 46, 95
5, 297600, Note_off_c, 9, 38, 95
5, 297600, Note_on_c, 9, 46, 95
5, 298080, Note_off_c, 9, 46, 95
5, 298080, Note_on_c, 9, 36, 95
5, 298560, Note_off_c, 9, 36, 95
5, 298560, Note_on_c, 9, 46, 95
5, 298560, Note_on_c, 9, 38, 95
5, 299520, Note_off_c, 9, 46, 95
5, 299520, Note_off_c, 9, 38, 95
5, 299520, Note_on_c, 9, 46, 95
5, 300000, Note_off_c, 9, 46, 95
5, 300000, Note_on_c, 9, 36, 95
5, 300480, Note_off_c, 9, 36, 95
5, 300480, Note_on_c, 9, 46, 95
5, 300480, Note_on_c, 9, 38, 95
5, 301440, Note_off_c, 9, 46, 95
5, 301440, Note_off_c, 9, 38, 95
5, 301440, Note_on_c, 9, 46, 95
5, 301920, Note_off_c, 9, 46, 95
5, 301920, Note_on_c, 9, 36, 95
5, 302400, Note_off_c, 9, 36, 95
5, 302400, Note_on_c, 9, 46, 95
5, 302400, Note_on_c, 9, 38, 95
5, 302880, Note_off_c, 9, 46, 95
5, 302880, Note_off_c, 9, 38, 95
5, 302880, Note_on_c, 9, 49, 95
5, 303360, Note_off_c, 9, 49, 95
5, 303840, Note_on_c, 9, 36, 95
5, 304320, Note_off_c, 9, 36, 95
5, 304320, Note_on_c, 9, 46, 95
5, 304320, Note_on_c, 9, 38, 95
5, 305280, Note_off_c, 9, 46, 95
5, 305280, Note_off_c, 9, 38, 95
5, 305280, Note_on_c, 9, 46, 95
5, 305280, Note_on_c, 9, 36, 95
5, 305760, Note_off_c, 9, 46, 95
5, 305760, Note_off_c, 9, 36, 95
5, 305760, Note_on_c, 9, 38, 95
5, 306240, Note_off_c, 9, 38, 95
5, 306240, Note_on_c, 9, 46, 95
5, 306720, Note_off_c, 9, 46, 95
5, 306720, Note_on_c, 9, 36, 95
5, 307200, Note_off_c, 9, 36, 95
5, 307200, Note_on_c, 9, 46, 95
5, 307200, Note_on_c, 9, 38, 95
5, 308160, Note_off_c, 9, 46, 95
5, 308160, Note_off_c, 9, 38, 95
5, 308160, Note_on_c, 9, 46, 95
5, 308160, Note_on_c, 9, 36, 95
5, 308640, Note_off_c, 9, 46, 95
5, 308640, Note_off_c, 9, 36, 95
5, 308640, Note_on_c, 9, 38, 95
5, 309120, Note_off_c, 9, 38, 95
5, 309120, Note_on_c, 9, 46, 95
5, 309600, Note_off_c, 9, 46, 95
5, 309600, Note_on_c, 9, 38, 95
5, 309840, Note_off_c, 9, 38, 95
5, 309840, Note_on_c, 9, 38, 95
5, 310080, Note_off_c, 9, 38, 95
5, 310080, Note_on_c, 9, 38, 95
5, 310320, Note_off_c, 9, 38, 95
5, 310320, Note_on_c, 9, 38, 95
5, 310560, Note_off_c, 9, 38, 95
5, 310560, Note_on_c, 9, 49, 95
5, 311520, Note_off_c, 9, 49, 95
5, 311520, Note_on_c, 9, 36, 95
5, 312000, Note_off_c, 9, 36, 95
5, 312000, Note_on_c, 9, 51, 95
5, 312000, Note_on_c, 9, 38, 95
5, 312960, Note_off_c, 9, 51, 95
5, 312960, Note_off_c, 9, 38, 95
5, 312960, Note_on_c, 9, 51, 95
5, 313440, Note_off_c, 9, 51, 95
5, 313440, Note_on_c, 9, 36, 95
5, 313920, Note_off_c, 9, 36, 95
5, 313920, Note_on_c, 9, 51, 95
5, 313920, Note_on_c, 9, 38, 95
5, 314880, Note_off_c, 9, 51, 95
5, 314880, Note_off_c, 9, 38, 95
5, 314880, Note_on_c, 9, 51, 95
5, 315360, Note_off_c, 9, 51, 95
5, 315360, Note_on_c, 9, 36, 95
5, 315840, Note_off_c, 9, 36, 95
5, 315840, Note_on_c, 9, 51, 95
5, 315840, Note_on_c, 9, 38, 95
5, 316800, Note_off_c, 9, 51, 95
5, 316800, Note_off_c, 9, 38, 95
5, 316800, Note_on_c, 9, 51, 95
5, 317280, Note_off_c, 9, 51, 95
5, 317280, Note_on_c, 9, 51, 95
5, 317280, Note_on_c, 9, 36, 95
5, 317760, Note_off_c, 9, 51, 95
5, 317760, Note_off_c, 9, 36, 95
5, 317760, Note_on_c, 9, 38, 95
5, 318240, Note_off_c, 9, 38, 95
5, 318240, Note_on_c, 9, 49, 95
5, 318720, Note_off_c, 9, 49, 95
5, 319200, Note_on_c, 9, 36, 95
5, 319680, Note_off_c, 9, 36, 95
5, 319680, Note_on_c, 9, 51, 95
5, 319680, Note_on_c, 9, 38, 95
5, 320640, Note_off_c, 9, 51, 95
5, 320640, Note_off_c, 9, 38, 95
5, 320640, Note_on_c, 9, 51, 95
5, 321120, Note_off_c, 9, 51, 95
5, 321120, Note_on_c, 9, 36, 95
5, 321600, Note_off_c, 9, 36, 95
5, 321600, Note_on_c, 9, 51, 95
5, 321600, Note_on_c, 9, 38, 95
5, 322560, Note_off_c, 9, 51, 95
5, 322560, Note_off_c, 9, 38, 95
5, 322560, Note_on_c, 9, 51, 95
5, 323040, Note_off_c, 9, 51, 95
5, 323040, Note_on_c, 9, 36, 95
5, 323520, Note_off_c, 9, 36, 95
5, 323520, Note_on_c, 9, 51, 95
5, 323520, Note_on_c, 9, 38, 95
5, 324480, Note_off_c, 9, 51, 95
5, 324480, Note_off_c, 9, 38, 95
5, 324480, Note_on_c, 9, 51, 95
5, 324960, Note_off_c, 9, 51, 95
5, 324960, Note_on_c, 9, 51, 95
5, 324960, Note_on_c, 9, 36, 95
5, 325440, Note_off_c, 9, 51, 95
5, 325440, Note_off_c, 9, 36, 95
5, 325440, Note_on_c, 9, 38, 95
5, 325920, Note_off_c, 9, 38, 95
5, 325920, Note_on_c, 9, 49, 95
5, 326400, Note_off_c, 9, 49, 95
5, 326880, Note_on_c, 9, 36, 95
5, 327360, Note_off_c, 9, 36, 95
5, 327360, Note_on_c, 9, 51, 95
5, 327360, Note_on_c, 9, 38, 95
5, 328320, Note_off_c, 9, 51, 95
5, 328320, Note_off_c, 9, 38, 95
5, 328320, Note_on_c, 9, 51, 95
5, 328800, Note_off_c, 9, 51, 95
5, 328800, Note_on_c, 9, 36, 95
5, 329280, Note_off_c, 9, 36, 95
5, 329280, Note_on_c, 9, 51, 95
5, 329280, Note_on_c, 9, 38, 95
5, 330240, Note_off_c, 9, 51, 95
5, 330240, Note_off_c, 9, 38, 95
5, 330240, Note_on_c, 9, 51, 95
5, 330720, Note_off_c, 9, 51, 95
5, 330720, Note_on_c, 9, 36, 95
5, 331200, Note_off_c, 9, 36, 95
5, 331200, Note_on_c, 9, 51, 95
5, 331200, Note_on_c, 9, 38, 95
5, 332160, Note_off_c, 9, 51, 95
5, 332160, Note_off_c, 9, 38, 95
5, 332160, Note_on_c, 9, 51, 95
5, 332640, Note_off_c, 9, 51, 95
5, 332640, Note_on_c, 9, 51, 95
5, 332640, Note_on_c, 9, 36, 95
5, 333120, Note_off_c, 9, 51, 95
5, 333120, Note_off_c, 9, 36, 95
5, 333120, Note_on_c, 9, 38, 95
5, 333600, Note_off_c, 9, 38, 95
5, 333600, Note_on_c, 9, 49, 95
5, 334080, Note_off_c, 9, 49, 95
5, 334560, Note_on_c, 9, 36, 95
5, 335040, Note_off_c, 9, 36, 95
5, 335040, Note_on_c, 9, 51, 95
5, 335040, Note_on_c, 9, 38, 95
5, 335520, Note_off_c, 9, 51, 95
5, 335520, Note_off_c, 9, 38, 95
5, 335520, Note_on_c, 9, 47, 95
5, 335680, Note_off_c, 9, 47, 95
5, 335680, Note_on_c, 9, 47, 95
5, 335840, Note_off_c, 9, 47, 95
5, 335840, Note_on_c, 9, 47, 95
5, 336000, Note_off_c, 9, 47, 95
5, 336000, Note_on_c, 9, 38, 95
5, 336480, Note_off_c, 9, 38, 95
5, 336480, Note_on_c, 9, 47, 95
5, 336960, Note_off_c, 9, 47, 95
5, 336960, Note_on_c, 9, 45, 95
5, 337440, Note_off_c, 9, 45, 95
5, 337440, Note_on_c, 9, 43, 95
5, 337920, Note_off_c, 9, 43, 95
5, 337920, Note_on_c, 9, 38, 95
5, 338400, Note_off_c, 9, 38, 95
5, 341280, Note_on_c, 9, 49, 95
5, 341280, Note_on_c, 9, 36, 95
5, 341760, Note_off_c, 9, 49, 95
5, 341760, Note_off_c, 9, 36, 95
5, 342240, Note_on_c, 9, 36, 95
5, 342480, Note_off_c, 9, 36, 95
5, 342480, Note_on_c, 9, 36, 95
5, 342720, Note_off_c, 9, 36, 95
5, 342720, Note_on_c, 9, 46, 95
5, 342720, Note_on_c, 9, 38, 95
5, 343200, Note_off_c, 9, 46, 95
5, 343200, Note_off_c, 9, 38, 95
5, 343200, Note_on_c, 9, 36, 95
5, 343440, Note_off_c, 9, 36, 95
5, 343440, Note_on_c, 9, 36, 95
5, 343680, Note_off_c, 9, 36, 95
5, 343680, Note_on_c, 9, 46, 95
5, 344160, Note_off_c, 9, 46, 95
5, 344160, Note_on_c, 9, 36, 95
5, 344400, Note_off_c, 9, 36, 95
5, 344400, Note_on_c, 9, 36, 95
5, 344640, Note_off_c, 9, 36, 95
5, 344640, Note_on_c, 9, 46, 95
5, 344640, Note_on_c, 9, 38, 95
5, 345120, Note_off_c, 9, 46, 95
5, 345120, Note_off_c, 9, 38, 95
5, 345120, Note_on_c, 9, 36, 95
5, 345360, Note_off_c, 9, 36, 95
5, 345360, Note_on_c, 9, 36, 95
5, 345600, Note_off_c, 9, 36, 95
5, 345600, Note_on_c, 9, 46, 95
5, 346080, Note_off_c, 9, 46, 95
5, 346080, Note_on_c, 9, 36, 95
5, 346320, Note_off_c, 9, 36, 95
5, 346320, Note_on_c, 9, 36, 95
5, 346560, Note_off_c, 9, 36, 95
5, 346560, Note_on_c, 9, 46, 95
5, 346560, Note_on_c, 9, 38, 95
5, 347040, Note_off_c, 9, 46, 95
5, 347040, Note_off_c, 9, 38, 95
5, 347040, Note_on_c, 9, 36, 95
5, 347280, Note_off_c, 9, 36, 95
5, 347280, Note_on_c, 9, 36, 95
5, 347520, Note_off_c, 9, 36, 95
5, 347520, Note_on_c, 9, 46, 95
5, 348000, Note_off_c, 9, 46, 95
5, 348000, Note_on_c, 9, 36, 95
5, 348240, Note_off_c, 9, 36, 95
5, 348240, Note_on_c, 9, 36, 95
5, 348480, Note_off_c, 9, 36, 95
5, 348480, Note_on_c, 9, 38, 95
5, 348960, Note_off_c, 9, 38, 95
5, 348960, Note_on_c, 9, 49, 95
5, 348960, Note_on_c, 9, 36, 95
5, 349440, Note_off_c, 9, 49, 95
5, 349440, Note_off_c, 9, 36, 95
5, 349920, Note_on_c, 9, 36, 95
5, 350160, Note_off_c, 9, 36, 95
5, 350160, Note_on_c, 9, 36, 95
5, 350400, Note_off_c, 9, 36, 95
5, 350400, Note_on_c, 9, 46, 95
5, 350400, Note_on_c, 9, 38, 95
5, 350880, Note_off_c, 9, 46, 95
5, 350880, Note_off_c, 9, 38, 95
5, 350880, Note_on_c, 9, 36, 95
5, 351120, Note_off_c, 9, 36, 95
5, 351120, Note_on_c, 9, 36, 95
5, 351360, Note_off_c, 9, 36, 95
5, 351360, Note_on_c, 9, 46, 95
5, 351840, Note_off_c, 9, 46, 95
5, 351840, Note_on_c, 9, 36, 95
5, 352080, Note_off_c, 9, 36, 95
5, 352080, Note_on_c, 9, 36, 95
5, 352320, Note_off_c, 9, 36, 95
5, 352320, Note_on_c, 9, 46, 95
5, 352320, Note_on_c, 9, 38, 95
5, 352800, Note_off_c, 9, 46, 95
5, 352800, Note_off_c, 9, 38, 95
5, 352800, Note_on_c, 9, 36, 95
5, 353040, Note_off_c, 9, 36, 95
5, 353040, Note_on_c, 9, 36, 95
5, 353280, Note_off_c, 9, 36, 95
5, 353280, Note_on_c, 9, 46, 95
5, 353760, Note_off_c, 9, 46, 95
5, 353760, Note_on_c, 9, 36, 95
5, 354000, Note_off_c, 9, 36, 95
5, 354000, Note_on_c, 9, 36, 95
5, 354240, Note_off_c, 9, 36, 95
5, 354240, Note_on_c, 9, 46, 95
5, 354240, Note_on_c, 9, 38, 95
5, 354720, Note_off_c, 9, 46, 95
5, 354720, Note_off_c, 9, 38, 95
5, 354720, Note_on_c, 9, 36, 95
5, 354960, Note_off_c, 9, 36, 95
5, 354960, Note_on_c, 9, 36, 95
5, 355200, Note_off_c, 9, 36, 95
5, 355200, Note_on_c, 9, 46, 95
5, 355680, Note_off_c, 9, 46, 95
5, 355680, Note_on_c, 9, 36, 95
5, 355920, Note_off_c, 9, 36, 95
5, 355920, Note_on_c, 9, 36, 95
5, 356160, Note_off_c, 9, 36, 95
5, 356160, Note_on_c, 9, 38, 95
5, 356640, Note_off_c, 9, 38, 95
5, 356640, Note_on_c, 9, 49, 95
5, 356640, Note_on_c, 9, 36, 95
5, 357120, Note_off_c, 9, 49, 95
5, 357120, Note_off_c, 9, 36, 95
5, 357600, Note_on_c, 9, 36, 95
5, 357840, Note_off_c, 9, 36, 95
5, 357840, Note_on_c, 9, 36, 95
5, 358080, Note_off_c, 9, 36, 95
5, 358080, Note_on_c, 9, 46, 95
5, 358080, Note_on_c, 9, 38, 95
5, 358560, Note_off_c, 9, 46, 95
5, 358560, Note_off_c, 9, 38, 95
5, 358560, Note_on_c, 9, 36, 95
5, 358800, Note_off_c, 9, 36, 95
5, 358800, Note_on_c, 9, 36, 95
5, 359040, Note_off_c, 9, 36, 95
5, 359040, Note_on_c, 9, 46, 95
5, 359520, Note_off_c, 9, 46, 95
5, 359520, Note_on_c, 9, 36, 95
5, 359760, Note_off_c, 9, 36, 95
5, 359760, Note_on_c, 9, 36, 95
5, 360000, Note_off_c, 9, 36, 95
5, 360000, Note_on_c, 9, 46, 95
5, 360000, Note_on_c, 9, 38, 95
5, 360480, Note_off_c, 9, 46, 95
5, 360480, Note_off_c, 9, 38, 95
5, 360480, Note_on_c, 9, 36, 95
5, 360720, Note_off_c, 9, 36, 95
5, 360720, Note_on_c, 9, 36, 95
5, 360960, Note_off_c, 9, 36, 95
5, 360960, Note_on_c, 9, 46, 95
5, 361440, Note_off_c, 9, 46, 95
5, 361440, Note_on_c, 9, 36, 95
5, 361680, Note_off_c, 9, 36, 95
5, 361680, Note_on_c, 9, 36, 95
5, 361920, Note_off_c, 9, 36, 95
5, 361920, Note_on_c, 9, 46, 95
5, 361920, Note_on_c, 9, 38, 95
5, 362400, Note_off_c, 9, 46, 95
5, 362400, Note_off_c, 9, 38, 95
5, 362400, Note_on_c, 9, 36, 95
5, 362640, Note_off_c, 9, 36, 95
5, 362640, Note_on_c, 9, 36, 95
5, 362880, Note_off_c, 9, 36, 95
5, 362880, Note_on_c, 9, 46, 95
5, 363360, Note_off_c, 9, 46, 95
5, 363360, Note_on_c, 9, 36, 95
5, 363600, Note_off_c, 9, 36, 95
5, 363600, Note_on_c, 9, 36, 95
5, 363840, Note_off_c, 9, 36, 95
5, 363840, Note_on_c, 9, 38, 95
5, 364320, Note_off_c, 9, 38, 95
5, 364320, Note_on_c, 9, 49, 95
5, 364320, Note_on_c, 9, 36, 95
5, 364800, Note_off_c, 9, 49, 95
5, 364800, Note_off_c, 9, 36, 95
5, 365280, Note_on_c, 9, 36, 95
5, 365520, Note_off_c, 9, 36, 95
5, 365520, Note_on_c, 9, 36, 95
5, 365760, Note_off_c, 9, 36, 95
5, 365760, Note_on_c, 9, 46, 95
5, 365760, Note_on_c, 9, 38, 95
5, 366240, Note_off_c, 9, 46, 95
5, 366240, Note_off_c, 9, 38, 95
5, 366240, Note_on_c, 9, 36, 95
5, 366480, Note_off_c, 9, 36, 95
5, 366480, Note_on_c, 9, 36, 95
5, 366720, Note_off_c, 9, 36, 95
5, 366720, Note_on_c, 9, 46, 95
5, 367200, Note_off_c, 9, 46, 95
5, 367200, Note_on_c, 9, 36, 95
5, 367440, Note_off_c, 9, 36, 95
5, 367440, Note_on_c, 9, 36, 95
5, 367680, Note_off_c, 9, 36, 95
5, 367680, Note_on_c, 9, 46, 95
5, 367680, Note_on_c, 9, 38, 95
5, 368160, Note_off_c, 9, 46, 95
5, 368160, Note_off_c, 9, 38, 95
5, 368160, Note_on_c, 9, 50, 95
5, 368320, Note_off_c, 9, 50, 95
5, 368320, Note_on_c, 9, 50, 95
5, 368480, Note_off_c, 9, 50, 95
5, 368480, Note_on_c, 9, 47, 95
5, 368640, Note_off_c, 9, 47, 95
5, 368640, Note_on_c, 9, 38, 95
5, 369120, Note_off_c, 9, 38, 95
5, 369120, Note_on_c, 9, 38, 95
5, 369600, Note_off_c, 9, 38, 95
5, 369600, Note_on_c, 9, 38, 95
5, 370080, Note_off_c, 9, 38, 95
5, 370080, Note_on_c, 9, 38, 95
5, 370560, Note_off_c, 9, 38, 95
5, 370560, Note_on_c, 9, 38, 95
5, 371040, Note_off_c, 9, 38, 95
5, 371040, Note_on_c, 9, 38, 95
5, 371280, Note_off_c, 9, 38, 95
5, 371280, Note_on_c, 9, 38, 95
5, 371520, Note_off_c, 9, 38, 95
5, 371520, Note_on_c, 9, 38, 95
5, 371760, Note_off_c, 9, 38, 95
5, 371760, Note_on_c, 9, 38, 95
5, 372000, Note_off_c, 9, 38, 95
5, 372000, Note_on_c, 9, 49, 95
5, 372000, Note_on_c, 9, 36, 95
5, 372480, Note_off_c, 9, 49, 95
5, 372480, Note_off_c, 9, 36, 95
5, 372960, Note_on_c, 9, 36, 95
5, 373200, Note_off_c, 9, 36, 95
5, 373200, Note_on_c, 9, 36, 95
5, 373440, Note_off_c, 9, 36, 95
5, 373440, Note_on_c, 9, 46, 95
5, 373440, Note_on_c, 9, 38, 95
5, 373920, Note_off_c, 9, 46, 95
5, 373920, Note_off_c, 9, 38, 95
5, 373920, Note_on_c, 9, 36, 95
5, 374160, Note_off_c, 9, 36, 95
5, 374160, Note_on_c, 9, 36, 95
5, 374400, Note_off_c, 9, 36, 95
5, 374400, Note_on_c, 9, 46, 95
5, 374880, Note_off_c, 9, 46, 95
5, 374880, Note_on_c, 9, 36, 95
5, 375120, Note_off_c, 9, 36, 95
5, 375120, Note_on_c, 9, 36, 95
5, 375360, Note_off_c, 9, 36, 95
5, 375360, Note_on_c, 9, 46, 95
5, 375360, Note_on_c, 9, 38, 95
5, 375840, Note_off_c, 9, 46, 95
5, 375840, Note_off_c, 9, 38, 95
5, 375840, Note_on_c, 9, 36, 95
5, 376080, Note_off_c, 9, 36, 95
5, 376080, Note_on_c, 9, 36, 95
5, 376320, Note_off_c, 9, 36, 95
5, 376320, Note_on_c, 9, 46, 95
5, 376800, Note_off_c, 9, 46, 95
5, 376800, Note_on_c, 9, 36, 95
5, 377040, Note_off_c, 9, 36, 95
5, 377040, Note_on_c, 9, 36, 95
5, 377280, Note_off_c, 9, 36, 95
5, 377280, Note_on_c, 9, 46, 95
5, 377280, Note_on_c, 9, 38, 95
5, 377760, Note_off_c, 9, 46, 95
5, 377760, Note_off_c, 9, 38, 95
5, 377760, Note_on_c, 9, 36, 95
5, 378000, Note_off_c, 9, 36, 95
5, 378000, Note_on_c, 9, 36, 95
5, 378240, Note_off_c, 9, 36, 95
5, 378240, Note_on_c, 9, 46, 95
5, 378720, Note_off_c, 9, 46, 95
5, 378720, Note_on_c, 9, 36, 95
5, 378960, Note_off_c, 9, 36, 95
5, 378960, Note_on_c, 9, 36, 95
5, 379200, Note_off_c, 9, 36, 95
5, 379200, Note_on_c, 9, 38, 95
5, 379680, Note_off_c, 9, 38, 95
5, 379680, Note_on_c, 9, 49, 95
5, 379680, Note_on_c, 9, 36, 95
5, 380160, Note_off_c, 9, 49, 95
5, 380160, Note_off_c, 9, 36, 95
5, 380640, Note_on_c, 9, 36, 95
5, 380880, Note_off_c, 9, 36, 95
5, 380880, Note_on_c, 9, 36, 95
5, 381120, Note_off_c, 9, 36, 95
5, 381120, Note_on_c, 9, 46, 95
5, 381120, Note_on_c, 9, 38, 95
5, 381600, Note_off_c, 9, 46, 95
5, 381600, Note_off_c, 9, 38, 95
5, 381600, Note_on_c, 9, 36, 95
5, 381840, Note_off_c, 9, 36, 95
5, 381840, Note_on_c, 9, 36, 95
5, 382080, Note_off_c, 9, 36, 95
5, 382080, Note_on_c, 9, 46, 95
5, 382560, Note_off_c, 9, 46, 95
5, 382560, Note_on_c, 9, 36, 95
5, 382800, Note_off_c, 9, 36, 95
5, 382800, Note_on_c, 9, 36, 95
5, 383040, Note_off_c, 9, 36, 95
5, 383040, Note_on_c, 9, 46, 95
5, 383040, Note_on_c, 9, 38, 95
5, 383520, Note_off_c, 9, 46, 95
5, 383520, Note_off_c, 9, 38, 95
5, 383520, Note_on_c, 9, 36, 95
5, 383760, Note_off_c, 9, 36, 95
5, 383760, Note_on_c, 9, 36, 95
5, 384000, Note_off_c, 9, 36, 95
5, 384000, Note_on_c, 9, 46, 95
5, 384480, Note_off_c, 9, 46, 95
5, 384480, Note_on_c, 9, 36, 95
5, 384720, Note_off_c, 9, 36, 95
5, 384720, Note_on_c, 9, 36, 95
5, 384960, Note_off_c, 9, 36, 95
5, 384960, Note_on_c, 9, 46, 95
5, 384960, Note_on_c, 9, 38, 95
5, 385440, Note_off_c, 9, 46, 95
5, 385440, Note_off_c, 9, 38, 95
5, 385440, Note_on_c, 9, 36, 95
5, 385680, Note_off_c, 9, 36, 95
5, 385680, Note_on_c, 9, 36, 95
5, 385920, Note_off_c, 9, 36, 95
5, 385920, Note_on_c, 9, 46, 95
5, 386400, Note_off_c, 9, 46, 95
5, 386400, Note_on_c, 9, 36, 95
5, 386640, Note_off_c, 9, 36, 95
5, 386640, Note_on_c, 9, 36, 95
5, 386880, Note_off_c, 9, 36, 95
5, 386880, Note_on_c, 9, 38, 95
5, 387360, Note_off_c, 9, 38, 95
5, 387360, Note_on_c, 9, 49, 95
5, 387360, Note_on_c, 9, 36, 95
5, 387840, Note_off_c, 9, 49, 95
5, 387840, Note_off_c, 9, 36, 95
5, 388320, Note_on_c, 9, 36, 95
5, 388560, Note_off_c, 9, 36, 95
5, 388560, Note_on_c, 9, 36, 95
5, 388800, Note_off_c, 9, 36, 95
5, 388800, Note_on_c, 9, 46, 95
5, 388800, Note_on_c, 9, 38, 95
5, 389280, Note_off_c, 9, 46, 95
5, 389280, Note_off_c, 9, 38, 95
5, 389280, Note_on_c, 9, 36, 95
5, 389520, Note_off_c, 9, 36, 95
5, 389520, Note_on_c, 9, 36, 95
5, 389760, Note_off_c, 9, 36, 95
5, 389760, Note_on_c, 9, 46, 95
5, 390240, Note_off_c, 9, 46, 95
5, 390240, Note_on_c, 9, 36, 95
5, 390480, Note_off_c, 9, 36, 95
5, 390480, Note_on_c, 9, 36, 95
5, 390720, Note_off_c, 9, 36, 95
5, 390720, Note_on_c, 9, 46, 95
5, 390720, Note_on_c, 9, 38, 95
5, 391200, Note_off_c, 9, 46, 95
5, 391200, Note_off_c, 9, 38, 95
5, 391200, Note_on_c, 9, 36, 95
5, 391440, Note_off_c, 9, 36, 95
5, 391440, Note_on_c, 9, 36, 95
5, 391680, Note_off_c, 9, 36, 95
5, 391680, Note_on_c, 9, 46, 95
5, 392160, Note_off_c, 9, 46, 95
5, 392160, Note_on_c, 9, 36, 95
5, 392400, Note_off_c, 9, 36, 95
5, 392400, Note_on_c, 9, 36, 95
5, 392640, Note_off_c, 9, 36, 95
5, 392640, Note_on_c, 9, 46, 95
5, 392640, Note_on_c, 9, 38, 95
5, 393120, Note_off_c, 9, 46, 95
5, 393120, Note_off_c, 9, 38, 95
5, 393120, Note_on_c, 9, 36, 95
5, 393360, Note_off_c, 9, 36, 95
5, 393360, Note_on_c, 9, 36, 95
5, 393600, Note_off_c, 9, 36, 95
5, 393600, Note_on_c, 9, 46, 95
5, 394080, Note_off_c, 9, 46, 95
5, 394080, Note_on_c, 9, 36, 95
5, 394320, Note_off_c, 9, 36, 95
5, 394320, Note_on_c, 9, 36, 95
5, 394560, Note_off_c, 9, 36, 95
5, 394560, Note_on_c, 9, 38, 95
5, 395040, Note_off_c, 9, 38, 95
5, 395040, Note_on_c, 9, 49, 95
5, 395040, Note_on_c, 9, 36, 95
5, 395520, Note_off_c, 9, 49, 95
5, 395520, Note_off_c, 9, 36, 95
5, 396000, Note_on_c, 9, 36, 95
5, 396240, Note_off_c, 9, 36, 95
5, 396240, Note_on_c, 9, 36, 95
5, 396480, Note_off_c, 9, 36, 95
5, 396480, Note_on_c, 9, 46, 95
5, 396480, Note_on_c, 9, 38, 95
5, 396960, Note_off_c, 9, 46, 95
5, 396960, Note_off_c, 9, 38, 95
5, 396960, Note_on_c, 9, 36, 95
5, 397200, Note_off_c, 9, 36, 95
5, 397200, Note_on_c, 9, 36, 95
5, 397440, Note_off_c, 9, 36, 95
5, 397440, Note_on_c, 9, 46, 95
5, 397920, Note_off_c, 9, 46, 95
5, 397920, Note_on_c, 9, 36, 95
5, 398160, Note_off_c, 9, 36, 95
5, 398160, Note_on_c, 9, 36, 95
5, 398400, Note_off_c, 9, 36, 95
5, 398400, Note_on_c, 9, 46, 95
5, 398400, Note_on_c, 9, 38, 95
5, 398880, Note_off_c, 9, 46, 95
5, 398880, Note_off_c, 9, 38, 95
5, 398880, Note_on_c, 9, 50, 95
5, 399040, Note_off_c, 9, 50, 95
5, 399040, Note_on_c, 9, 50, 95
5, 399200, Note_off_c, 9, 50, 95
5, 399200, Note_on_c, 9, 47, 95
5, 399360, Note_off_c, 9, 47, 95
5, 399360, Note_on_c, 9, 38, 95
5, 399840, Note_off_c, 9, 38, 95
5, 399840, Note_on_c, 9, 38, 95
5, 400320, Note_off_c, 9, 38, 95
5, 400320, Note_on_c, 9, 38, 95
5, 400800, Note_off_c, 9, 38, 95
5, 400800, Note_on_c, 9, 38, 95
5, 401280, Note_off_c, 9, 38, 95
5, 401280, Note_on_c, 9, 38, 95
5, 401760, Note_off_c, 9, 38, 95
5, 401760, Note_on_c, 9, 38, 95
5, 402000, Note_off_c, 9, 38, 95
5, 402000, Note_on_c, 9, 38, 95
5, 402240, Note_off_c, 9, 38, 95
5, 402240, Note_on_c, 9, 38, 95
5, 402480, Note_off_c, 9, 38, 95
5, 402480, Note_on_c, 9, 38, 95
5, 402720, Note_off_c, 9, 38, 95
5, 402720, Note_on_c, 9, 49, 95
5, 402720, Note_on_c, 9, 38, 95
5, 403200, Note_off_c, 9, 49, 95
5, 403200, Note_off_c, 9, 38, 95
5, 403200, Note_on_c, 9, 38, 95
5, 403680, Note_off_c, 9, 38, 95
5, 403680, Note_on_c, 9, 36, 95
5, 404160, Note_off_c, 9, 36, 95
5, 404160, Note_on_c, 9, 51, 95
5, 404160, Note_on_c, 9, 38, 95
5, 405120, Note_off_c, 9, 51, 95
5, 405120, Note_off_c, 9, 38, 95
5, 405120, Note_on_c, 9, 51, 95
5, 405600, Note_off_c, 9, 51, 95
5, 405600, Note_on_c, 9, 36, 95
5, 406080, Note_off_c, 9, 36, 95
5, 406080, Note_on_c, 9, 51, 95
5, 406080, Note_on_c, 9, 38, 95
5, 407040, Note_off_c, 9, 51, 95
5, 407040, Note_off_c, 9, 38, 95
5, 407040, Note_on_c, 9, 51, 95
5, 407520, Note_off_c, 9, 51, 95
5, 407520, Note_on_c, 9, 36, 95
5, 408000, Note_off_c, 9, 36, 95
5, 408000, Note_on_c, 9, 51, 95
5, 408000, Note_on_c, 9, 38, 95
5, 408960, Note_off_c, 9, 51, 95
5, 408960, Note_off_c, 9, 38, 95
5, 408960, Note_on_c, 9, 51, 95
5, 409440, Note_off_c, 9, 51, 95
5, 409440, Note_on_c, 9, 51, 95
5, 409440, Note_on_c, 9, 36, 95
5, 409920, Note_off_c, 9, 51, 95
5, 409920, Note_off_c, 9, 36, 95
5, 409920, Note_on_c, 9, 38, 95
5, 410400, Note_off_c, 9, 38, 95
5, 410400, Note_on_c, 9, 49, 95
5, 410880, Note_off_c, 9, 49, 95
5, 411360, Note_on_c, 9, 36, 95
5, 411840, Note_off_c, 9, 36, 95
5, 411840, Note_on_c, 9, 51, 95
5, 411840, Note_on_c, 9, 38, 95
5, 412800, Note_off_c, 9, 51, 95
5, 412800, Note_off_c, 9, 38, 95
5, 412800, Note_on_c, 9, 51, 95
5, 413280, Note_off_c, 9, 51, 95
5, 413280, Note_on_c, 9, 36, 95
5, 413760, Note_off_c, 9, 36, 95
5, 413760, Note_on_c, 9, 51, 95
5, 413760, Note_on_c, 9, 38, 95
5, 414720, Note_off_c, 9, 51, 95
5, 414720, Note_off_c, 9, 38, 95
5, 414720, Note_on_c, 9, 51, 95
5, 415200, Note_off_c, 9, 51, 95
5, 415200, Note_on_c, 9, 36, 95
5, 415680, Note_off_c, 9, 36, 95
5, 415680, Note_on_c, 9, 51, 95
5, 415680, Note_on_c, 9, 38, 95
5, 416640, Note_off_c, 9, 51, 95
5, 416640, Note_off_c, 9, 38, 95
5, 416640, Note_on_c, 9, 51, 95
5, 417120, Note_off_c, 9, 51, 95
5, 417120, Note_on_c, 9, 51, 95
5, 417120, Note_on_c, 9, 36, 95
5, 417600, Note_off_c, 9, 51, 95
5, 417600, Note_off_c, 9, 36, 95
5, 417600, Note_on_c, 9, 38, 95
5, 418080, Note_off_c, 9, 38, 95
5, 418080, Note_on_c, 9, 49, 95
5, 418560, Note_off_c, 9, 49, 95
5, 419040, Note_on_c, 9, 36, 95
5, 419520, Note_off_c, 9, 36, 95
5, 419520, Note_on_c, 9, 51, 95
5, 419520, Note_on_c, 9, 38, 95
5, 420480, Note_off_c, 9, 51, 95
5, 420480, Note_off_c, 9, 38, 95
5, 420480, Note_on_c, 9, 51, 95
5, 420960, Note_off_c, 9, 51, 95
5, 420960, Note_on_c, 9, 36, 95
5, 421440, Note_off_c, 9, 36, 95
5, 421440, Note_on_c, 9, 51, 95
5, 421440, Note_on_c, 9, 38, 95
5, 422400, Note_off_c, 9, 51, 95
5, 422400, Note_off_c, 9, 38, 95
5, 422400, Note_on_c, 9, 51, 95
5, 422880, Note_off_c, 9, 51, 95
5, 422880, Note_on_c, 9, 36, 95
5, 423360, Note_off_c, 9, 36, 95
5, 423360, Note_on_c, 9, 51, 95
5, 423360, Note_on_c, 9, 38, 95
5, 424320, Note_off_c, 9, 51, 95
5, 424320, Note_off_c, 9, 38, 95
5, 424320, Note_on_c, 9, 51, 95
5, 424800, Note_off_c, 9, 51, 95
5, 424800, Note_on_c, 9, 51, 95
5, 424800, Note_on_c, 9, 36, 95
5, 425280, Note_off_c, 9, 51, 95
5, 425280, Note_off_c, 9, 36, 95
5, 425280, Note_on_c, 9, 38, 95
5, 425760, Note_off_c, 9, 38, 95
5, 425760, Note_on_c, 9, 49, 95
5, 426240, Note_off_c, 9, 49, 95
5, 426720, Note_on_c, 9, 36, 95
5, 427200, Note_off_c, 9, 36, 95
5, 427200, Note_on_c, 9, 51, 95
5, 427200, Note_on_c, 9, 38, 95
5, 428160, Note_off_c, 9, 51, 95
5, 428160, Note_off_c, 9, 38, 95
5, 428160, Note_on_c, 9, 51, 95
5, 428160, Note_on_c, 9, 36, 95
5, 428640, Note_off_c, 9, 51, 95
5, 428640, Note_off_c, 9, 36, 95
5, 428640, Note_on_c, 9, 38, 95
5, 429120, Note_off_c, 9, 38, 95
5, 429120, Note_on_c, 9, 51, 95
5, 429600, Note_off_c, 9, 51, 95
5, 429600, Note_on_c, 9, 36, 95
5, 430080, Note_off_c, 9, 36, 95
5, 430080, Note_on_c, 9, 49, 95
5, 430080, Note_on_c, 9, 38, 95
5, 431040, Note_off_c, 9, 49, 95
5, 431040, Note_off_c, 9, 38, 95
5, 431040, Note_on_c, 9, 51, 95
5, 431040, Note_on_c, 9, 36, 95
5, 431520, Note_off_c, 9, 51, 95
5, 431520, Note_off_c, 9, 36, 95
5, 431520, Note_on_c, 9, 38, 95
5, 432000, Note_off_c, 9, 38, 95
5, 432000, Note_on_c, 9, 51, 95
5, 432480, Note_off_c, 9, 51, 95
5, 432480, Note_on_c, 9, 38, 95
5, 432720, Note_off_c, 9, 38, 95
5, 432720, Note_on_c, 9, 38, 95
5, 432960, Note_off_c, 9, 38, 95
5, 432960, Note_on_c, 9, 38, 95
5, 433200, Note_off_c, 9, 38, 95
5, 433200, Note_on_c, 9, 38, 95
5, 433440, Note_off_c, 9, 38, 95
5, 433440, Note_on_c, 9, 49, 95
5, 433440, Note_on_c, 9, 36, 95
5, 434400, Note_off_c, 9, 49, 95
5, 434400, Note_off_c, 9, 36, 95
5, 434400, Note_on_c, 9, 36, 95
5, 434880, Note_off_c, 9, 36, 95
5, 434880, Note_on_c, 9, 46, 95
5, 434880, Note_on_c, 9, 38, 95
5, 435840, Note_off_c, 9, 46, 95
5, 435840, Note_off_c, 9, 38, 95
5, 435840, Note_on_c, 9, 46, 95
5, 436320, Note_off_c, 9, 46, 95
5, 436320, Note_on_c, 9, 36, 95
5, 436800, Note_off_c, 9, 36, 95
5, 436800, Note_on_c, 9, 46, 95
5, 436800, Note_on_c, 9, 38, 95
5, 437760, Note_off_c, 9, 46, 95
5, 437760, Note_off_c, 9, 38, 95
5, 437760, Note_on_c, 9, 46, 95
5, 438240, Note_off_c, 9, 46, 95
5, 438240, Note_on_c, 9, 36, 95
5, 438720, Note_off_c, 9, 36, 95
5, 438720, Note_on_c, 9, 46, 95
5, 438720, Note_on_c, 9, 38, 95
5, 439680, Note_off_c, 9, 46, 95
5, 439680, Note_off_c, 9, 38, 95
5, 439680, Note_on_c, 9, 46, 95
5, 440160, Note_off_c, 9, 46, 95
5, 440160, Note_on_c, 9, 36, 95
5, 440640, Note_off_c, 9, 36, 95
5, 440640, Note_on_c, 9, 46, 95
5, 440640, Note_on_c, 9, 38, 95
5, 441120, Note_off_c, 9, 46, 95
5, 441120, Note_off_c, 9, 38, 95
5, 441120, Note_on_c, 9, 36, 95
5, 441600, Note_off_c, 9, 36, 95
5, 441600, Note_on_c, 9, 46, 95
5, 442080, Note_off_c, 9, 46, 95
5, 442080, Note_on_c, 9, 36, 95
5, 442560, Note_off_c, 9, 36, 95
5, 442560, Note_on_c, 9, 46, 95
5, 442560, Note_on_c, 9, 38, 95
5, 443520, Note_off_c, 9, 46, 95
5, 443520, Note_off_c, 9, 38, 95
5, 443520, Note_on_c, 9, 46, 95
5, 444000, Note_off_c, 9, 46, 95
5, 444000, Note_on_c, 9, 36, 95
5, 444480, Note_off_c, 9, 36, 95
5, 444480, Note_on_c, 9, 46, 95
5, 444480, Note_on_c, 9, 38, 95
5, 445440, Note_off_c, 9, 46, 95
5, 445440, Note_off_c, 9, 38, 95
5, 445440, Note_on_c, 9, 46, 95
5, 445920, Note_off_c, 9, 46, 95
5, 445920, Note_on_c, 9, 36, 95
5, 446400, Note_off_c, 9, 36, 95
5, 446400, Note_on_c, 9, 46, 95
5, 446400, Note_on_c, 9, 38, 95
5, 447360, Note_off_c, 9, 46, 95
5, 447360, Note_off_c, 9, 38, 95
5, 447360, Note_on_c, 9, 46, 95
5, 447840, Note_off_c, 9, 46, 95
5, 447840, Note_on_c, 9, 36, 95
5, 448320, Note_off_c, 9, 36, 95
5, 448320, Note_on_c, 9, 46, 95
5, 448320, Note_on_c, 9, 38, 95
5, 448800, Note_off_c, 9, 46, 95
5, 448800, Note_off_c, 9, 38, 95
5, 448800, Note_on_c, 9, 36, 95
5, 449280, Note_off_c, 9, 36, 95
5, 449280, Note_on_c, 9, 46, 95
5, 449760, Note_off_c, 9, 46, 95
5, 449760, Note_on_c, 9, 36, 95
5, 450240, Note_off_c, 9, 36, 95
5, 450240, Note_on_c, 9, 46, 95
5, 450240, Note_on_c, 9, 38, 95
5, 451200, Note_off_c, 9, 46, 95
5, 451200, Note_off_c, 9, 38, 95
5, 451200, Note_on_c, 9, 46, 95
5, 451680, Note_off_c, 9, 46, 95
5, 451680, Note_on_c, 9, 36, 95
5, 452160, Note_off_c, 9, 36, 95
5, 452160, Note_on_c, 9, 46, 95
5, 452160, Note_on_c, 9, 38, 95
5, 453120, Note_off_c, 9, 46, 95
5, 453120, Note_off_c, 9, 38, 95
5, 453120, Note_on_c, 9, 46, 95
5, 453600, Note_off_c, 9, 46, 95
5, 453600, Note_on_c, 9, 36, 95
5, 454080, Note_off_c, 9, 36, 95
5, 454080, Note_on_c, 9, 46, 95
5, 454080, Note_on_c, 9, 38, 95
5, 455040, Note_off_c, 9, 46, 95
5, 455040, Note_off_c, 9, 38, 95
5, 455040, Note_on_c, 9, 46, 95
5, 455520, Note_off_c, 9, 46, 95
5, 455520, Note_on_c, 9, 36, 95
5, 456000, Note_off_c, 9, 36, 95
5, 456000, Note_on_c, 9, 46, 95
5, 456000, Note_on_c, 9, 38, 95
5, 456480, Note_off_c, 9, 46, 95
5, 456480, Note_off_c, 9, 38, 95
5, 456480, Note_on_c, 9, 36, 95
5, 456720, Note_off_c, 9, 36, 95
5, 456720, Note_on_c, 9, 36, 95
5, 456960, Note_off_c, 9, 36, 95
5, 456960, Note_on_c, 9, 49, 95
5, 457440, Note_off_c, 9, 49, 95
5, 457440, Note_on_c, 9, 36, 95
5, 457920, Note_off_c, 9, 36, 95
5, 457920, Note_on_c, 9, 46, 95
5, 457920, Note_on_c, 9, 38, 95
5, 458400, Note_off_c, 9, 46, 95
5, 458400, Note_off_c, 9, 38, 95
5, 458400, Note_on_c, 9, 36, 95
5, 458880, Note_off_c, 9, 36, 95
5, 458880, Note_on_c, 9, 46, 95
5, 458880, Note_on_c, 9, 38, 95
5, 459360, Note_off_c, 9, 46, 95
5, 459360, Note_off_c, 9, 38, 95
5, 459360, Note_on_c, 9, 36, 95
5, 459840, Note_off_c, 9, 36, 95
5, 459840, Note_on_c, 9, 46, 95
5, 459840, Note_on_c, 9, 38, 95
5, 460320, Note_off_c, 9, 46, 95
5, 460320, Note_off_c, 9, 38, 95
5, 460320, Note_on_c, 9, 36, 95
5, 460800, Note_off_c, 9, 36, 95
5, 460800, Note_on_c, 9, 46, 95
5, 460800, Note_on_c, 9, 38, 95
5, 461280, Note_off_c, 9, 46, 95
5, 461280, Note_off_c, 9, 38, 95
5, 461280, Note_on_c, 9, 36, 95
5, 461760, Note_off_c, 9, 36, 95
5, 461760, Note_on_c, 9, 46, 95
5, 461760, Note_on_c, 9, 38, 95
5, 462240, Note_off_c, 9, 46, 95
5, 462240, Note_off_c, 9, 38, 95
5, 462240, Note_on_c, 9, 36, 95
5, 462720, Note_off_c, 9, 36, 95
5, 462720, Note_on_c, 9, 49, 95
5, 462720, Note_on_c, 9, 38, 95
5, 463200, Note_off_c, 9, 49, 95
5, 463200, Note_off_c, 9, 38, 95
5, 463200, Note_on_c, 9, 38, 95
5, 463440, Note_off_c, 9, 38, 95
5, 463440, Note_on_c, 9, 38, 95
5, 463680, Note_off_c, 9, 38, 95
5, 463680, Note_on_c, 9, 38, 95
5, 463920, Note_off_c, 9, 38, 95
5, 463920, Note_on_c, 9, 38, 95
5, 464160, Note_off_c, 9, 38, 95
5, 464160, Note_on_c, 9, 49, 95
5, 464640, Note_off_c, 9, 49, 95
5, 465120, Note_on_c, 9, 36, 95
5, 465600, Note_off_c, 9, 36, 95
5, 465600, Note_on_c, 9, 51, 95
5, 465600, Note_on_c, 9, 38, 95
5, 466560, Note_off_c, 9, 51, 95
5, 466560, Note_off_c, 9, 38, 95
5, 466560, Note_on_c, 9, 51, 95
5, 467040, Note_off_c, 9, 51, 95
5, 467040, Note_on_c, 9, 36, 95
5, 467520, Note_off_c, 9, 36, 95
5, 467520, Note_on_c, 9, 51, 95
5, 467520, Note_on_c, 9, 38, 95
5, 468480, Note_off_c, 9, 51, 95
5, 468480, Note_off_c, 9, 38, 95
5, 468480, Note_on_c, 9, 51, 95
5, 468960, Note_off_c, 9, 51, 95
5, 468960, Note_on_c, 9, 36, 95
5, 469440, Note_off_c, 9, 36, 95
5, 469440, Note_on_c, 9, 51, 95
5, 469440, Note_on_c, 9, 38, 95
5, 470400, Note_off_c, 9, 51, 95
5, 470400, Note_off_c, 9, 38, 95
5, 470400, Note_on_c, 9, 51, 95
5, 470880, Note_off_c, 9, 51, 95
5, 470880, Note_on_c, 9, 51, 95
5, 470880, Note_on_c, 9, 36, 95
5, 471360, Note_off_c, 9, 51, 95
5, 471360, Note_off_c, 9, 36, 95
5, 471360, Note_on_c, 9, 38, 95
5, 471840, Note_off_c, 9, 38, 95
5, 471840, Note_on_c, 9, 49, 95
5, 472320, Note_off_c, 9, 49, 95
5, 472800, Note_on_c, 9, 36, 95
5, 473280, Note_off_c, 9, 36, 95
5, 473280, Note_on_c, 9, 51, 95
5, 473280, Note_on_c, 9, 38, 95
5, 474240, Note_off_c, 9, 51, 95
5, 474240, Note_off_c, 9, 38, 95
5, 474240, Note_on_c, 9, 51, 95
5, 474720, Note_off_c, 9, 51, 95
5, 474720, Note_on_c, 9, 36, 95
5, 475200, Note_off_c, 9, 36, 95
5, 475200, Note_on_c, 9, 51, 95
5, 475200, Note_on_c, 9, 38, 95
5, 476160, Note_off_c, 9, 51, 95
5, 476160, Note_off_c, 9, 38, 95
5, 476160, Note_on_c, 9, 51, 95
5, 476640, Note_off_c, 9, 51, 95
5, 476640, Note_on_c, 9, 36, 95
5, 477120, Note_off_c, 9, 36, 95
5, 477120, Note_on_c, 9, 51, 95
5, 477120, Note_on_c, 9, 38, 95
5, 478080, Note_off_c, 9, 51, 95
5, 478080, Note_off_c, 9, 38, 95
5, 478080, Note_on_c, 9, 51, 95
5, 478560, Note_off_c, 9, 51, 95
5, 478560, Note_on_c, 9, 51, 95
5, 478560, Note_on_c, 9, 36, 95
5, 479040, Note_off_c, 9, 51, 95
5, 479040, Note_off_c, 9, 36, 95
5, 479040, Note_on_c, 9, 38, 95
5, 479520, Note_off_c, 9, 38, 95
5, 479520, Note_on_c, 9, 49, 95
5, 480000, Note_off_c, 9, 49, 95
5, 480480, Note_on_c, 9, 36, 95
5, 480960, Note_off_c, 9, 36, 95
5, 480960, Note_on_c, 9, 51, 95
5, 480960, Note_on_c, 9, 38, 95
5, 481920, Note_off_c, 9, 51, 95
5, 481920, Note_off_c, 9, 38, 95
5, 481920, Note_on_c, 9, 51, 95
5, 482400, Note_off_c, 9, 51, 95
5, 482400, Note_on_c, 9, 36, 95
5, 482880, Note_off_c, 9, 36, 95
5, 482880, Note_on_c, 9, 51, 95
5, 482880, Note_on_c, 9, 38, 95
5, 483840, Note_off_c, 9, 51, 95
5, 483840, Note_off_c, 9, 38, 95
5, 483840, Note_on_c, 9, 51, 95
5, 484320, Note_off_c, 9, 51, 95
5, 484320, Note_on_c, 9, 36, 95
5, 484800, Note_off_c, 9, 36, 95
5, 484800, Note_on_c, 9, 51, 95
5, 484800, Note_on_c, 9, 38, 95
5, 485760, Note_off_c, 9, 51, 95
5, 485760, Note_off_c, 9, 38, 95
5, 485760, Note_on_c, 9, 51, 95
5, 486240, Note_off_c, 9, 51, 95
5, 486240, Note_on_c, 9, 51, 95
5, 486240, Note_on_c, 9, 36, 95
5, 486720, Note_off_c, 9, 51, 95
5, 486720, Note_off_c, 9, 36, 95
5, 486720, Note_on_c, 9, 38, 95
5, 487200, Note_off_c, 9, 38, 95
5, 487200, Note_on_c, 9, 49, 95
5, 487680, Note_off_c, 9, 49, 95
5, 488160, Note_on_c, 9, 36, 95
5, 488640, Note_off_c, 9, 36, 95
5, 488640, Note_on_c, 9, 51, 95
5, 488640, Note_on_c, 9, 38, 95
5, 489120, Note_off_c, 9, 51, 95
5, 489120, Note_off_c, 9, 38, 95
5, 489120, Note_on_c, 9, 47, 95
5, 489280, Note_off_c, 9, 47, 95
5, 489280, Note_on_c, 9, 47, 95
5, 489440, Note_off_c, 9, 47, 95
5, 489440, Note_on_c, 9, 47, 95
5, 489600, Note_off_c, 9, 47, 95
5, 489600, Note_on_c, 9, 38, 95
5, 490080, Note_off_c, 9, 38, 95
5, 490080, Note_on_c, 9, 47, 95
5, 490560, Note_off_c, 9, 47, 95
5, 490560, Note_on_c, 9, 45, 95
5, 491040, Note_off_c, 9, 45, 95
5, 491040, Note_on_c, 9, 43, 95
5, 491520, Note_off_c, 9, 43, 95
5, 491520, Note_on_c, 9, 38, 95
5, 492000, Note_off_c, 9, 38, 95
5, 494880, Note_on_c, 9, 49, 95
5, 494880, Note_on_c, 9, 36, 95
5, 495360, Note_off_c, 9, 49, 95
5, 495360, Note_off_c, 9, 36, 95
5, 495840, Note_on_c, 9, 36, 95
5, 496080, Note_off_c, 9, 36, 95
5, 496080, Note_on_c, 9, 36, 95
5, 496320, Note_off_c, 9, 36, 95
5, 496320, Note_on_c, 9, 46, 95
5, 496320, Note_on_c, 9, 38, 95
5, 496800, Note_off_c, 9, 46, 95
5, 496800, Note_off_c, 9, 38, 95
5, 496800, Note_on_c, 9, 36, 95
5, 497040, Note_off_c, 9, 36, 95
5, 497040, Note_on_c, 9, 36, 95
5, 497280, Note_off_c, 9, 36, 95
5, 497280, Note_on_c, 9, 46, 95
5, 497760, Note_off_c, 9, 46, 95
5, 497760, Note_on_c, 9, 36, 95
5, 498000, Note_off_c, 9, 36, 95
5, 498000, Note_on_c, 9, 36, 95
5, 498240, Note_off_c, 9, 36, 95
5, 498240, Note_on_c, 9, 46, 95
5, 498240, Note_on_c, 9, 38, 95
5, 498720, Note_off_c, 9, 46, 95
5, 498720, Note_off_c, 9, 38, 95
5, 498720, Note_on_c, 9, 36, 95
5, 498960, Note_off_c, 9, 36, 95
5, 498960, Note_on_c, 9, 36, 95
5, 499200, Note_off_c, 9, 36, 95
5, 499200, Note_on_c, 9, 46, 95
5, 499680, Note_off_c, 9, 46, 95
5, 499680, Note_on_c, 9, 36, 95
5, 499920, Note_off_c, 9, 36, 95
5, 499920, Note_on_c, 9, 36, 95
5, 500160, Note_off_c, 9, 36, 95
5, 500160, Note_on_c, 9, 46, 95
5, 500160, Note_on_c, 9, 38, 95
5, 500640, Note_off_c, 9, 46, 95
5, 500640, Note_off_c, 9, 38, 95
5, 500640, Note_on_c, 9, 36, 95
5, 500880, Note_off_c, 9, 36, 95
5, 500880, Note_on_c, 9, 36, 95
5, 501120, Note_off_c, 9, 36, 95
5, 501120, Note_on_c, 9, 46, 95
5, 501600, Note_off_c, 9, 46, 95
5, 501600, Note_on_c, 9, 36, 95
5, 501840, Note_off_c, 9, 36, 95
5, 501840, Note_on_c, 9, 36, 95
5, 502080, Note_off_c, 9, 36, 95
5, 502080, Note_on_c, 9, 38, 95
5, 502560, Note_off_c, 9, 38, 95
5, 502560, Note_on_c, 9, 49, 95
5, 502560, Note_on_c, 9, 36, 95
5, 503040, Note_off_c, 9, 49, 95
5, 503040, Note_off_c, 9, 36, 95
5, 503520, Note_on_c, 9, 36, 95
5, 503760, Note_off_c, 9, 36, 95
5, 503760, Note_on_c, 9, 36, 95
5, 504000, Note_off_c, 9, 36, 95
5, 504000, Note_on_c, 9, 46, 95
5, 504000, Note_on_c, 9, 38, 95
5, 504480, Note_off_c, 9, 46, 95
5, 504480, Note_off_c, 9, 38, 95
5, 504480, Note_on_c, 9, 36, 95
5, 504720, Note_off_c, 9, 36, 95
5, 504720, Note_on_c, 9, 36, 95
5, 504960, Note_off_c, 9, 36, 95
5, 504960, Note_on_c, 9, 46, 95
5, 505440, Note_off_c, 9, 46, 95
5, 505440, Note_on_c, 9, 36, 95
5, 505680, Note_off_c, 9, 36, 95
5, 505680, Note_on_c, 9, 36, 95
5, 505920, Note_off_c, 9, 36, 95
5, 505920, Note_on_c, 9, 46, 95
5, 505920, Note_on_c, 9, 38, 95
5, 506400, Note_off_c, 9, 46, 95
5, 506400, Note_off_c, 9, 38, 95
5, 506400, Note_on_c, 9, 36, 95
5, 506640, Note_off_c, 9, 36, 95
5, 506640, Note_on_c, 9, 36, 95
5, 506880, Note_off_c, 9, 36, 95
5, 506880, Note_on_c, 9, 46, 95
5, 507360, Note_off_c, 9, 46, 95
5, 507360, Note_on_c, 9, 36, 95
5, 507600, Note_off_c, 9, 36, 95
5, 507600, Note_on_c, 9, 36, 95
5, 507840, Note_off_c, 9, 36, 95
5, 507840, Note_on_c, 9, 46, 95
5, 507840, Note_on_c, 9, 38, 95
5, 508320, Note_off_c, 9, 46, 95
5, 508320, Note_off_c, 9, 38, 95
5, 508320, Note_on_c, 9, 36, 95
5, 508560, Note_off_c, 9, 36, 95
5, 508560, Note_on_c, 9, 36, 95
5, 508800, Note_off_c, 9, 36, 95
5, 508800, Note_on_c, 9, 46, 95
5, 509280, Note_off_c, 9, 46, 95
5, 509280, Note_on_c, 9, 36, 95
5, 509520, Note_off_c, 9, 36, 95
5, 509520, Note_on_c, 9, 36, 95
5, 509760, Note_off_c, 9, 36, 95
5, 509760, Note_on_c, 9, 38, 95
5, 510240, Note_off_c, 9, 38, 95
5, 510240, Note_on_c, 9, 49, 95
5, 510240, Note_on_c, 9, 36, 95
5, 510720, Note_off_c, 9, 49, 95
5, 510720, Note_off_c, 9, 36, 95
5, 511200, Note_on_c, 9, 36, 95
5, 511440, Note_off_c, 9, 36, 95
5, 511440, Note_on_c, 9, 36, 95
5, 511680, Note_off_c, 9, 36, 95
5, 511680, Note_on_c, 9, 46, 95
5, 511680, Note_on_c, 9, 38, 95
5, 512160, Note_off_c, 9, 46, 95
5, 512160, Note_off_c, 9, 38, 95
5, 512160, Note_on_c, 9, 36, 95
5, 512400, Note_off_c, 9, 36, 95
5, 512400, Note_on_c, 9, 36, 95
5, 512640, Note_off_c, 9, 36, 95
5, 512640, Note_on_c, 9, 46, 95
5, 513120, Note_off_c, 9, 46, 95
5, 513120, Note_on_c, 9, 36, 95
5, 513360, Note_off_c, 9, 36, 95
5, 513360, Note_on_c, 9, 36, 95
5, 513600, Note_off_c, 9, 36, 95
5, 513600, Note_on_c, 9, 46, 95
5, 513600, Note_on_c, 9, 38, 95
5, 514080, Note_off_c, 9, 46, 95
5, 514080, Note_off_c, 9, 38, 95
5, 514080, Note_on_c, 9, 36, 95
5, 514320, Note_off_c, 9, 36, 95
5, 514320, Note_on_c, 9, 36, 95
5, 514560, Note_off_c, 9, 36, 95
5, 514560, Note_on_c, 9, 46, 95
5, 515040, Note_off_c, 9, 46, 95
5, 515040, Note_on_c, 9, 36, 95
5, 515280, Note_off_c, 9, 36, 95
5, 515280, Note_on_c, 9, 36, 95
5, 515520, Note_off_c, 9, 36, 95
5, 515520, Note_on_c, 9, 46, 95
5, 515520, Note_on_c, 9, 38, 95
5, 516000, Note_off_c, 9, 46, 95
5, 516000, Note_off_c, 9, 38, 95
5, 516000, Note_on_c, 9, 36, 95
5, 516240, Note_off_c, 9, 36, 95
5, 516240, Note_on_c, 9, 36, 95
5, 516480, Note_off_c, 9, 36, 95
5, 516480, Note_on_c, 9, 46, 95
5, 516960, Note_off_c, 9, 46, 95
5, 516960, Note_on_c, 9, 36, 95
5, 517200, Note_off_c, 9, 36, 95
5, 517200, Note_on_c, 9, 36, 95
5, 517440, Note_off_c, 9, 36, 95
5, 517440, Note_on_c, 9, 38, 95
5, 517920, Note_off_c, 9, 38, 95
5, 517920, Note_on_c, 9, 49, 95
5, 517920, Note_on_c, 9, 36, 95
5, 518400, Note_off_c, 9, 49, 95
5, 518400, Note_off_c, 9, 36, 95
5, 518880, Note_on_c, 9, 36, 95
5, 519120, Note_off_c, 9, 36, 95
5, 519120, Note_on_c, 9, 36, 95
5, 519360, Note_off_c, 9, 36, 95
5, 519360, Note_on_c, 9, 46, 95
5, 519360, Note_on_c, 9, 38, 95
5, 519840, Note_off_c, 9, 46, 95
5, 519840, Note_off_c, 9, 38, 95
5, 519840, Note_on_c, 9, 36, 95
5, 520080, Note_off_c, 9, 36, 95
5, 520080, Note_on_c, 9, 36, 95
5, 520320, Note_off_c, 9, 36, 95
5, 520320, Note_on_c, 9, 46, 95
5, 520800, Note_off_c, 9, 46, 95
5, 520800, Note_on_c, 9, 36, 95
5, 521040, Note_off_c, 9, 36, 95
5, 521040, Note_on_c, 9, 36, 95
5, 521280, Note_off_c, 9, 36, 95
5, 521280, Note_on_c, 9, 46, 95
5, 521280, Note_on_c, 9, 38, 95
5, 521760, Note_off_c, 9, 46, 95
5, 521760, Note_off_c, 9, 38, 95
5, 521760, Note_on_c, 9, 50, 95
5, 521920, Note_off_c, 9, 50, 95
5, 521920, Note_on_c, 9, 50, 95
5, 522080, Note_off_c, 9, 50, 95
5, 522080, Note_on_c, 9, 47, 95
5, 522240, Note_off_c, 9, 47, 95
5, 522240, Note_on_c, 9, 38, 95
5, 522720, Note_off_c, 9, 38, 95
5, 522720, Note_on_c, 9, 38, 95
5, 523200, Note_off_c, 9, 38, 95
5, 523200, Note_on_c, 9, 38, 95
5, 523680, Note_off_c, 9, 38, 95
5, 523680, Note_on_c, 9, 38, 95
5, 524160, Note_off_c, 9, 38, 95
5, 524160, Note_on_c, 9, 38, 95
5, 524640, Note_off_c, 9, 38, 95
5, 524640, Note_on_c, 9, 38, 95
5, 524880, Note_off_c, 9, 38, 95
5, 524880, Note_on_c, 9, 38, 95
5, 525120, Note_off_c, 9, 38, 95
5, 525120, Note_on_c, 9, 38, 95
5, 525360, Note_off_c, 9, 38, 95
5, 525360, Note_on_c, 9, 38, 95
5, 525600, Note_off_c, 9, 38, 95
5, 525600, Note_on_c, 9, 49, 95
5, 525600, Note_on_c, 9, 38, 95
5, 526080, Note_off_c, 9, 49, 95
5, 526080, Note_off_c, 9, 38, 95
5, 526560, Note_on_c, 9, 36, 95
5, 526800, Note_off_c, 9, 36, 95
5, 526800, Note_on_c, 9, 36, 95
5, 527040, Note_off_c, 9, 36, 95
5, 527040, Note_on_c, 9, 46, 95
5, 527040, Note_on_c, 9, 38, 95
5, 527520, Note_off_c, 9, 46, 95
5, 527520, Note_off_c, 9, 38, 95
5, 527520, Note_on_c, 9, 36, 95
5, 527760, Note_off_c, 9, 36, 95
5, 527760, Note_on_c, 9, 36, 95
5, 528000, Note_off_c, 9, 36, 95
5, 528000, Note_on_c, 9, 46, 95
5, 528480, Note_off_c, 9, 46, 95
5, 528480, Note_on_c, 9, 36, 95
5, 528720, Note_off_c, 9, 36, 95
5, 528720, Note_on_c, 9, 36, 95
5, 528960, Note_off_c, 9, 36, 95
5, 528960, Note_on_c, 9, 46, 95
5, 528960, Note_on_c, 9, 38, 95
5, 529440, Note_off_c, 9, 46, 95
5, 529440, Note_off_c, 9, 38, 95
5, 529440, Note_on_c, 9, 36, 95
5, 529680, Note_off_c, 9, 36, 95
5, 529680, Note_on_c, 9, 36, 95
5, 529920, Note_off_c, 9, 36, 95
5, 529920, Note_on_c, 9, 46, 95
5, 530400, Note_off_c, 9, 46, 95
5, 530400, Note_on_c, 9, 36, 95
5, 530640, Note_off_c, 9, 36, 95
5, 530640, Note_on_c, 9, 36, 95
5, 530880, Note_off_c, 9, 36, 95
5, 530880, Note_on_c, 9, 46, 95
5, 530880, Note_on_c, 9, 38, 95
5, 531360, Note_off_c, 9, 46, 95
5, 531360, Note_off_c, 9, 38, 95
5, 531360, Note_on_c, 9, 36, 95
5, 531600, Note_off_c, 9, 36, 95
5, 531600, Note_on_c, 9, 36, 95
5, 531840, Note_off_c, 9, 36, 95
5, 531840, Note_on_c, 9, 46, 95
5, 532320, Note_off_c, 9, 46, 95
5, 532320, Note_on_c, 9, 36, 95
5, 532560, Note_off_c, 9, 36, 95
5, 532560, Note_on_c, 9, 36, 95
5, 532800, Note_off_c, 9, 36, 95
5, 532800, Note_on_c, 9, 38, 95
5, 533280, Note_off_c, 9, 38, 95
5, 533280, Note_on_c, 9, 49, 95
5, 533280, Note_on_c, 9, 36, 95
5, 533760, Note_off_c, 9, 49, 95
5, 533760, Note_off_c, 9, 36, 95
5, 534240, Note_on_c, 9, 36, 95
5, 534480, Note_off_c, 9, 36, 95
5, 534480, Note_on_c, 9, 36, 95
5, 534720, Note_off_c, 9, 36, 95
5, 534720, Note_on_c, 9, 46, 95
5, 534720, Note_on_c, 9, 38, 95
5, 535200, Note_off_c, 9, 46, 95
5, 535200, Note_off_c, 9, 38, 95
5, 535200, Note_on_c, 9, 36, 95
5, 535440, Note_off_c, 9, 36, 95
5, 535440, Note_on_c, 9, 36, 95
5, 535680, Note_off_c, 9, 36, 95
5, 535680, Note_on_c, 9, 46, 95
5, 536160, Note_off_c, 9, 46, 95
5, 536160, Note_on_c, 9, 36, 95
5, 536400, Note_off_c, 9, 36, 95
5, 536400, Note_on_c, 9, 36, 95
5, 536640, Note_off_c, 9, 36, 95
5, 536640, Note_on_c, 9, 46, 95
5, 536640, Note_on_c, 9, 38, 95
5, 537120, Note_off_c, 9, 46, 95
5, 537120, Note_off_c, 9, 38, 95
5, 537120, Note_on_c, 9, 36, 95
5, 537360, Note_off_c, 9, 36, 95
5, 537360, Note_on_c, 9, 36, 95
5, 537600, Note_off_c, 9, 36, 95
5, 537600, Note_on_c, 9, 46, 95
5, 538080, Note_off_c, 9, 46, 95
5, 538080, Note_on_c, 9, 36, 95
5, 538320, Note_off_c, 9, 36, 95
5, 538320, Note_on_c, 9, 36, 95
5, 538560, Note_off_c, 9, 36, 95
5, 538560, Note_on_c, 9, 46, 95
5, 538560, Note_on_c, 9, 38, 95
5, 539040, Note_off_c, 9, 46, 95
5, 539040, Note_off_c, 9, 38, 95
5, 539040, Note_on_c, 9, 36, 95
5, 539280, Note_off_c, 9, 36, 95
5, 539280, Note_on_c, 9, 36, 95
5, 539520, Note_off_c, 9, 36, 95
5, 539520, Note_on_c, 9, 46, 95
5, 540000, Note_off_c, 9, 46, 95
5, 540000, Note_on_c, 9, 36, 95
5, 540240, Note_off_c, 9, 36, 95
5, 540240, Note_on_c, 9, 36, 95
5, 540480, Note_off_c, 9, 36, 95
5, 540480, Note_on_c, 9, 38, 95
5, 540960, Note_off_c, 9, 38, 95
5, 540960, Note_on_c, 9, 49, 95
5, 540960, Note_on_c, 9, 36, 95
5, 541440, Note_off_c, 9, 49, 95
5, 541440, Note_off_c, 9, 36, 95
5, 541920, Note_on_c, 9, 36, 95
5, 542160, Note_off_c, 9, 36, 95
5, 542160, Note_on_c, 9, 36, 95
5, 542400, Note_off_c, 9, 36, 95
5, 542400, Note_on_c, 9, 46, 95
5, 542400, Note_on_c, 9, 38, 95
5, 542880, Note_off_c, 9, 46, 95
5, 542880, Note_off_c, 9, 38, 95
5, 542880, Note_on_c, 9, 36, 95
5, 543120, Note_off_c, 9, 36, 95
5, 543120, Note_on_c, 9, 36, 95
5, 543360, Note_off_c, 9, 36, 95
5, 543360, Note_on_c, 9, 46, 95
5, 543840, Note_off_c, 9, 46, 95
5, 543840, Note_on_c, 9, 36, 95
5, 544080, Note_off_c, 9, 36, 95
5, 544080, Note_on_c, 9, 36, 95
5, 544320, Note_off_c, 9, 36, 95
5, 544320, Note_on_c, 9, 46, 95
5, 544320, Note_on_c, 9, 38, 95
5, 544800, Note_off_c, 9, 46, 95
5, 544800, Note_off_c, 9, 38, 95
5, 544800, Note_on_c, 9, 36, 95
5, 545040, Note_off_c, 9, 36, 95
5, 545040, Note_on_c, 9, 36, 95
5, 545280, Note_off_c, 9, 36, 95
5, 545280, Note_on_c, 9, 46, 95
5, 545760, Note_off_c, 9, 46, 95
5, 545760, Note_on_c, 9, 36, 95
5, 546000, Note_off_c, 9, 36, 95
5, 546000, Note_on_c, 9, 36, 95
5, 546240, Note_off_c, 9, 36, 95
5, 546240, Note_on_c, 9, 46, 95
5, 546240, Note_on_c, 9, 38, 95
5, 546720, Note_off_c, 9, 46, 95
5, 546720, Note_off_c, 9, 38, 95
5, 546720, Note_on_c, 9, 36, 95
5, 546960, Note_off_c, 9, 36, 95
5, 546960, Note_on_c, 9, 36, 95
5, 547200, Note_off_c, 9, 36, 95
5, 547200, Note_on_c, 9, 46, 95
5, 547680, Note_off_c, 9, 46, 95
5, 547680, Note_on_c, 9, 36, 95
5, 547920, Note_off_c, 9, 36, 95
5, 547920, Note_on_c, 9, 36, 95
5, 548160, Note_off_c, 9, 36, 95
5, 548160, Note_on_c, 9, 38, 95
5, 548640, Note_off_c, 9, 38, 95
5, 548640, Note_on_c, 9, 49, 95
5, 548640, Note_on_c, 9, 36, 95
5, 549120, Note_off_c, 9, 49, 95
5, 549120, Note_off_c, 9, 36, 95
5, 549600, Note_on_c, 9, 36, 95
5, 549840, Note_off_c, 9, 36, 95
5, 549840, Note_on_c, 9, 36, 95
5, 550080, Note_off_c, 9, 36, 95
5, 550080, Note_on_c, 9, 46, 95
5, 550080, Note_on_c, 9, 38, 95
5, 550560, Note_off_c, 9, 46, 95
5, 550560, Note_off_c, 9, 38, 95
5, 550560, Note_on_c, 9, 36, 95
5, 550800, Note_off_c, 9, 36, 95
5, 550800, Note_on_c, 9, 36, 95
5, 551040, Note_off_c, 9, 36, 95
5, 551040, Note_on_c, 9, 46, 95
5, 551520, Note_off_c, 9, 46, 95
5, 551520, Note_on_c, 9, 36, 95
5, 551760, Note_off_c, 9, 36, 95
5, 551760, Note_on_c, 9, 36, 95
5, 552000, Note_off_c, 9, 36, 95
5, 552000, Note_on_c, 9, 46, 95
5, 552000, Note_on_c, 9, 38, 95
5, 552480, Note_off_c, 9, 46, 95
5, 552480, Note_off_c, 9, 38, 95
5, 552480, Note_on_c, 9, 50, 95
5, 552640, Note_off_c, 9, 50, 95
5, 552640, Note_on_c, 9, 50, 95
5, 552800, Note_off_c, 9, 50, 95
5, 552800, Note_on_c, 9, 47, 95
5, 552960, Note_off_c, 9, 47, 95
5, 552960, Note_on_c, 9, 38, 95
5, 553440, Note_off_c, 9, 38, 95
5, 553440, Note_on_c, 9, 38, 95
5, 553920, Note_off_c, 9, 38, 95
5, 553920, Note_on_c, 9, 38, 95
5, 554400, Note_off_c, 9, 38, 95
5, 554400, Note_on_c, 9, 38, 95
5, 554880, Note_off_c, 9, 38, 95
5, 554880, Note_on_c, 9, 38, 95
5, 555360, Note_off_c, 9, 38, 95
5, 555360, Note_on_c, 9, 38, 95
5, 555600, Note_off_c, 9, 38, 95
5, 555600, Note_on_c, 9, 38, 95
5, 555840, Note_off_c, 9, 38, 95
5, 555840, Note_on_c, 9, 38, 95
5, 556080, Note_off_c, 9, 38, 95
5, 556080, Note_on_c, 9, 38, 95
5, 556320, Note_off_c, 9, 38, 95
5, 556320, Note_on_c, 9, 49, 95
5, 556320, Note_on_c, 9, 36, 95
5, 556800, Note_off_c, 9, 49, 95
5, 556800, Note_off_c, 9, 36, 95
5, 557280, Note_on_c, 9, 36, 95
5, 557760, Note_off_c, 9, 36, 95
5, 557760, Note_on_c, 9, 55, 95
5, 557760, Note_on_c, 9, 38, 95
5, 558720, Note_off_c, 9, 55, 95
5, 558720, Note_off_c, 9, 38, 95
5, 558720, Note_on_c, 9, 51, 95
5, 559200, Note_off_c, 9, 51, 95
5, 559200, Note_on_c, 9, 36, 95
5, 559680, Note_off_c, 9, 36, 95
5, 559680, Note_on_c, 9, 51, 95
5, 559680, Note_on_c, 9, 38, 95
5, 560640, Note_off_c, 9, 51, 95
5, 560640, Note_off_c, 9, 38, 95
5, 560640, Note_on_c, 9, 51, 95
5, 561120, Note_off_c, 9, 51, 95
5, 561120, Note_on_c, 9, 36, 95
5, 561600, Note_off_c, 9, 36, 95
5, 561600, Note_on_c, 9, 51, 95
5, 561600, Note_on_c, 9, 38, 95
5, 562560, Note_off_c, 9, 51, 95
5, 562560, Note_off_c, 9, 38, 95
5, 562560, Note_on_c, 9, 51, 95
5, 563040, Note_off_c, 9, 51, 95
5, 563040, Note_on_c, 9, 51, 95
5, 563040, Note_on_c, 9, 36, 95
5, 563520, Note_off_c, 9, 51, 95
5, 563520, Note_off_c, 9, 36, 95
5, 563520, Note_on_c, 9, 38, 95
5, 564000, Note_off_c, 9, 38, 95
5, 564000, Note_on_c, 9, 49, 95
5, 564000, Note_on_c, 9, 36, 95
5, 564480, Note_off_c, 9, 49, 95
5, 564480, Note_off_c, 9, 36, 95
5, 564960, Note_on_c, 9, 36, 95
5, 565440, Note_off_c, 9, 36, 95
5, 565440, Note_on_c, 9, 55, 95
5, 565440, Note_on_c, 9, 38, 95
5, 566400, Note_off_c, 9, 55, 95
5, 566400, Note_off_c, 9, 38, 95
5, 566400, Note_on_c, 9, 51, 95
5, 566880, Note_off_c, 9, 51, 95
5, 566880, Note_on_c, 9, 36, 95
5, 567360, Note_off_c, 9, 36, 95
5, 567360, Note_on_c, 9, 51, 95
5, 567360, Note_on_c, 9, 38, 95
5, 568320, Note_off_c, 9, 51, 95
5, 568320, Note_off_c, 9, 38, 95
5, 568320, Note_on_c, 9, 51, 95
5, 568800, Note_off_c, 9, 51, 95
5, 568800, Note_on_c, 9, 36, 95
5, 569280, Note_off_c, 9, 36, 95
5, 569280, Note_on_c, 9, 51, 95
5, 569280, Note_on_c, 9, 38, 95
5, 570240, Note_off_c, 9, 51, 95
5, 570240, Note_off_c, 9, 38, 95
5, 570240, Note_on_c, 9, 51, 95
5, 570720, Note_off_c, 9, 51, 95
5, 570720, Note_on_c, 9, 51, 95
5, 570720, Note_on_c, 9, 36, 95
5, 571200, Note_off_c, 9, 51, 95
5, 571200, Note_off_c, 9, 36, 95
5, 571200, Note_on_c, 9, 38, 95
5, 571680, Note_off_c, 9, 38, 95
5, 571680, Note_on_c, 9, 49, 95
5, 571680, Note_on_c, 9, 36, 95
5, 572160, Note_off_c, 9, 49, 95
5, 572160, Note_off_c, 9, 36, 95
5, 572640, Note_on_c, 9, 36, 95
5, 573120, Note_off_c, 9, 36, 95
5, 573120, Note_on_c, 9, 55, 95
5, 573120, Note_on_c, 9, 38, 95
5, 574080, Note_off_c, 9, 55, 95
5, 574080, Note_off_c, 9, 38, 95
5, 574080, Note_on_c, 9, 51, 95
5, 574560, Note_off_c, 9, 51, 95
5, 574560, Note_on_c, 9, 36, 95
5, 575040, Note_off_c, 9, 36, 95
5, 575040, Note_on_c, 9, 51, 95
5, 575040, Note_on_c, 9, 38, 95
5, 576000, Note_off_c, 9, 51, 95
5, 576000, Note_off_c, 9, 38, 95
5, 576000, Note_on_c, 9, 51, 95
5, 576480, Note_off_c, 9, 51, 95
5, 576480, Note_on_c, 9, 36, 95
5, 576960, Note_off_c, 9, 36, 95
5, 576960, Note_on_c, 9, 51, 95
5, 576960, Note_on_c, 9, 38, 95
5, 577920, Note_off_c, 9, 51, 95
5, 577920, Note_off_c, 9, 38, 95
5, 577920, Note_on_c, 9, 51, 95
5, 578400, Note_off_c, 9, 51, 95
5, 578400, Note_on_c, 9, 51, 95
5, 578400, Note_on_c, 9, 36, 95
5, 578880, Note_off_c, 9, 51, 95
5, 578880, Note_off_c, 9, 36, 95
5, 578880, Note_on_c, 9, 38, 95
5, 579360, Note_off_c, 9, 38, 95
5, 579360, Note_on_c, 9, 49, 95
5, 579360, Note_on_c, 9, 36, 95
5, 579840, Note_off_c, 9, 49, 95
5, 579840, Note_off_c, 9, 36, 95
5, 580320, Note_on_c, 9, 36, 95
5, 580800, Note_off_c, 9, 36, 95
5, 580800, Note_on_c, 9, 55, 95
5, 580800, Note_on_c, 9, 38, 95
5, 581760, Note_off_c, 9, 55, 95
5, 581760, Note_off_c, 9, 38, 95
5, 581760, Note_on_c, 9, 51, 95
5, 581760, Note_on_c, 9, 36, 95
5, 582240, Note_off_c, 9, 51, 95
5, 582240, Note_off_c, 9, 36, 95
5, 582240, Note_on_c, 9, 38, 95
5, 582720, Note_off_c, 9, 38, 95
5, 582720, Note_on_c, 9, 51, 95
5, 583200, Note_off_c, 9, 51, 95
5, 583200, Note_on_c, 9, 36, 95
5, 583680, Note_off_c, 9, 36, 95
5, 583680, Note_on_c, 9, 49, 95
5, 583680, Note_on_c, 9, 38, 95
5, 584640, Note_off_c, 9, 49, 95
5, 584640, Note_off_c, 9, 38, 95
5, 584640, Note_on_c, 9, 51, 95
5, 584640, Note_on_c, 9, 36, 95
5, 585120, Note_off_c, 9, 51, 95
5, 585120, Note_off_c, 9, 36, 95
5, 585120, Note_on_c, 9, 38, 95
5, 585600, Note_off_c, 9, 38, 95
5, 585600, Note_on_c, 9, 51, 95
5, 586080, Note_off_c, 9, 51, 95
5, 586080, Note_on_c, 9, 38, 95
5, 586320, Note_off_c, 9, 38, 95
5, 586320, Note_on_c, 9, 38, 95
5, 586560, Note_off_c, 9, 38, 95
5, 586560, Note_on_c, 9, 38, 95
5, 586800, Note_off_c, 9, 38, 95
5, 586800, Note_on_c, 9, 38, 95
5, 587040, Note_off_c, 9, 38, 95
5, 587040, Note_on_c, 9, 49, 95
5, 587040, Note_on_c, 9, 36, 95
5, 587520, Note_off_c, 9, 49, 95
5, 587520, Note_off_c, 9, 36, 95
5, 588000, Note_on_c, 9, 36, 95
5, 588480, Note_off_c, 9, 36, 95
5, 588480, Note_on_c, 9, 55, 95
5, 588480, Note_on_c, 9, 38, 95
5, 589440, Note_off_c, 9, 55, 95
5, 589440, Note_off_c, 9, 38, 95
5, 589440, Note_on_c, 9, 51, 95
5, 589920, Note_off_c, 9, 51, 95
5, 589920, Note_on_c, 9, 36, 95
5, 590400, Note_off_c, 9, 36, 95
5, 590400, Note_on_c, 9, 51, 95
5, 590400, Note_on_c, 9, 38, 95
5, 591360, Note_off_c, 9, 51, 95
5, 591360, Note_off_c, 9, 38, 95
5, 591360, Note_on_c, 9, 51, 95
5, 591840, Note_off_c, 9, 51, 95
5, 591840, Note_on_c, 9, 36, 95
5, 592320, Note_off_c, 9, 36, 95
5, 592320, Note_on_c, 9, 51, 95
5, 592320, Note_on_c, 9, 38, 95
5, 593280, Note_off_c, 9, 51, 95
5, 593280, Note_off_c, 9, 38, 95
5, 593280, Note_on_c, 9, 51, 95
5, 593760, Note_off_c, 9, 51, 95
5, 593760, Note_on_c, 9, 51, 95
5, 593760, Note_on_c, 9, 36, 95
5, 594240, Note_off_c, 9, 51, 95
5, 594240, Note_off_c, 9, 36, 95
5, 594240, Note_on_c, 9, 38, 95
5, 594720, Note_off_c, 9, 38, 95
5, 594720, Note_on_c, 9, 49, 95
5, 594720, Note_on_c, 9, 36, 95
5, 595200, Note_off_c, 9, 49, 95
5, 595200, Note_off_c, 9, 36, 95
5, 595680, Note_on_c, 9, 36, 95
5, 596160, Note_off_c, 9, 36, 95
5, 596160, Note_on_c, 9, 55, 95
5, 596160, Note_on_c, 9, 38, 95
5, 597120, Note_off_c, 9, 55, 95
5, 597120, Note_off_c, 9, 38, 95
5, 597120, Note_on_c, 9, 51, 95
5, 597600, Note_off_c, 9, 51, 95
5, 597600, Note_on_c, 9, 36, 95
5, 598080, Note_off_c, 9, 36, 95
5, 598080, Note_on_c, 9, 51, 95
5, 598080, Note_on_c, 9, 38, 95
5, 599040, Note_off_c, 9, 51, 95
5, 599040, Note_off_c, 9, 38, 95
5, 599040, Note_on_c, 9, 51, 95
5, 599520, Note_off_c, 9, 51, 95
5, 599520, Note_on_c, 9, 36, 95
5, 600000, Note_off_c, 9, 36, 95
5, 600000, Note_on_c, 9, 51, 95
5, 600000, Note_on_c, 9, 38, 95
5, 600960, Note_off_c, 9, 51, 95
5, 600960, Note_off_c, 9, 38, 95
5, 600960, Note_on_c, 9, 51, 95
5, 601440, Note_off_c, 9, 51, 95
5, 601440, Note_on_c, 9, 51, 95
5, 601440, Note_on_c, 9, 36, 95
5, 601920, Note_off_c, 9, 51, 95
5, 601920, Note_off_c, 9, 36, 95
5, 601920, Note_on_c, 9, 38, 95
5, 602400, Note_off_c, 9, 38, 95
5, 602400, Note_on_c, 9, 49, 95
5, 602400, Note_on_c, 9, 36, 95
5, 602880, Note_off_c, 9, 49, 95
5, 602880, Note_off_c, 9, 36, 95
5, 603360, Note_on_c, 9, 36, 95
5, 603840, Note_off_c, 9, 36, 95
5, 603840, Note_on_c, 9, 55, 95
5, 603840, Note_on_c, 9, 38, 95
5, 604800, Note_off_c, 9, 55, 95
5, 604800, Note_off_c, 9, 38, 95
5, 604800, Note_on_c, 9, 51, 95
5, 605280, Note_off_c, 9, 51, 95
5, 605280, Note_on_c, 9, 36, 95
5, 605760, Note_off_c, 9, 36, 95
5, 605760, Note_on_c, 9, 51, 95
5, 605760, Note_on_c, 9, 38, 95
5, 606720, Note_off_c, 9, 51, 95
5, 606720, Note_off_c, 9, 38, 95
5, 606720, Note_on_c, 9, 51, 95
5, 607200, Note_off_c, 9, 51, 95
5, 607200, Note_on_c, 9, 36, 95
5, 607680, Note_off_c, 9, 36, 95
5, 607680, Note_on_c, 9, 51, 95
5, 607680, Note_on_c, 9, 38, 95
5, 608640, Note_off_c, 9, 51, 95
5, 608640, Note_off_c, 9, 38, 95
5, 608640, Note_on_c, 9, 51, 95
5, 609120, Note_off_c, 9, 51, 95
5, 609120, Note_on_c, 9, 51, 95
5, 609120, Note_on_c, 9, 36, 95
5, 609600, Note_off_c, 9, 51, 95
5, 609600, Note_off_c, 9, 36, 95
5, 609600, Note_on_c, 9, 38, 95
5, 610080, Note_off_c, 9, 38, 95
5, 610080, Note_on_c, 9, 49, 95
5, 610080, Note_on_c, 9, 36, 95
5, 610560, Note_off_c, 9, 49, 95
5, 610560, Note_off_c, 9, 36, 95
5, 611040, Note_on_c, 9, 36, 95
5, 611520, Note_off_c, 9, 36, 95
5, 611520, Note_on_c, 9, 55, 95
5, 611520, Note_on_c, 9, 38, 95
5, 612480, Note_off_c, 9, 55, 95
5, 612480, Note_off_c, 9, 38, 95
5, 612480, Note_on_c, 9, 51, 95
5, 612480, Note_on_c, 9, 36, 95
5, 612960, Note_off_c, 9, 51, 95
5, 612960, Note_off_c, 9, 36, 95
5, 612960, Note_on_c, 9, 38, 95
5, 613440, Note_off_c, 9, 38, 95
5, 613440, Note_on_c, 9, 51, 95
5, 613920, Note_off_c, 9, 51, 95
5, 613920, Note_on_c, 9, 36, 95
5, 614400, Note_off_c, 9, 36, 95
5, 614400, Note_on_c, 9, 49, 95
5, 614400, Note_on_c, 9, 38, 95
5, 615360, Note_off_c, 9, 49, 95
5, 615360, Note_off_c, 9, 38, 95
5, 615360, Note_on_c, 9, 51, 95
5, 615360, Note_on_c, 9, 36, 95
5, 615840, Note_off_c, 9, 51, 95
5, 615840, Note_off_c, 9, 36, 95
5, 615840, Note_on_c, 9, 38, 95
5, 616320, Note_off_c, 9, 38, 95
5, 616320, Note_on_c, 9, 51, 95
5, 616800, Note_off_c, 9, 51, 95
5, 616800, Note_on_c, 9, 38, 95
5, 617040, Note_off_c, 9, 38, 95
5, 617040, Note_on_c, 9, 38, 95
5, 617280, Note_off_c, 9, 38, 95
5, 617280, Note_on_c, 9, 38, 95
5, 617520, Note_off_c, 9, 38, 95
5, 617520, Note_on_c, 9, 38, 95
5, 617760, Note_off_c, 9, 38, 95
5, 617760, Note_on_c, 9, 49, 95
5, 617760, Note_on_c, 9, 36, 95
5, 618240, Note_off_c, 9, 49, 95
5, 618240, Note_off_c, 9, 36, 95
5, 618720, Note_on_c, 9, 36, 95
5, 619200, Note_off_c, 9, 36, 95
5, 619200, Note_on_c, 9, 55, 95
5, 619200, Note_on_c, 9, 38, 95
5, 620160, Note_off_c, 9, 55, 95
5, 620160, Note_off_c, 9, 38, 95
5, 620160, Note_on_c, 9, 46, 95
5, 620640, Note_off_c, 9, 46, 95
5, 620640, Note_on_c, 9, 36, 95
5, 621120, Note_off_c, 9, 36, 95
5, 621120, Note_on_c, 9, 46, 95
5, 621120, Note_on_c, 9, 38, 95
5, 622080, Note_off_c, 9, 46, 95
5, 622080, Note_off_c, 9, 38, 95
5, 622080, Note_on_c, 9, 46, 95
5, 622560, Note_off_c, 9, 46, 95
5, 622560, Note_on_c, 9, 36, 95
5, 623040, Note_off_c, 9, 36, 95
5, 623040, Note_on_c, 9, 46, 95
5, 623040, Note_on_c, 9, 38, 95
5, 624000, Note_off_c, 9, 46, 95
5, 624000, Note_off_c, 9, 38, 95
5, 624000, Note_on_c, 9, 46, 95
5, 624480, Note_off_c, 9, 46, 95
5, 624480, Note_on_c, 9, 36, 95
5, 624960, Note_off_c, 9, 36, 95
5, 624960, Note_on_c, 9, 46, 95
5, 624960, Note_on_c, 9, 38, 95
5, 625440, Note_off_c, 9, 46, 95
5, 625440, Note_off_c, 9, 38, 95
5, 625440, Note_on_c, 9, 49, 95
5, 625920, Note_off_c, 9, 49, 95
5, 626400, Note_on_c, 9, 36, 95
5, 626880, Note_off_c, 9, 36, 95
5, 626880, Note_on_c, 9, 46, 95
5, 626880, Note_on_c, 9, 38, 95
5, 627840, Note_off_c, 9, 46, 95
5, 627840, Note_off_c, 9, 38, 95
5, 627840, Note_on_c, 9, 46, 95
5, 628320, Note_off_c, 9, 46, 95
5, 628320, Note_on_c, 9, 36, 95
5, 628800, Note_off_c, 9, 36, 95
5, 628800, Note_on_c, 9, 46, 95
5, 628800, Note_on_c, 9, 38, 95
5, 629760, Note_off_c, 9, 46, 95
5, 629760, Note_off_c, 9, 38, 95
5, 629760, Note_on_c, 9, 46, 95
5, 630240, Note_off_c, 9, 46, 95
5, 630240, Note_on_c, 9, 36, 95
5, 630720, Note_off_c, 9, 36, 95
5, 630720, Note_on_c, 9, 46, 95
5, 630720, Note_on_c, 9, 38, 95
5, 631680, Note_off_c, 9, 46, 95
5, 631680, Note_off_c, 9, 38, 95
5, 631680, Note_on_c, 9, 46, 95
5, 632160, Note_off_c, 9, 46, 95
5, 632160, Note_on_c, 9, 36, 95
5, 632640, Note_off_c, 9, 36, 95
5, 632640, Note_on_c, 9, 46, 95
5, 632640, Note_on_c, 9, 38, 95
5, 633120, Note_off_c, 9, 46, 95
5, 633120, Note_off_c, 9, 38, 95
5, 633120, Note_on_c, 9, 49, 95
5, 633600, Note_off_c, 9, 49, 95
5, 634080, Note_on_c, 9, 36, 95
5, 634560, Note_off_c, 9, 36, 95
5, 634560, Note_on_c, 9, 46, 95
5, 634560, Note_on_c, 9, 38, 95
5, 635520, Note_off_c, 9, 46, 95
5, 635520, Note_off_c, 9, 38, 95
5, 635520, Note_on_c, 9, 46, 95
5, 636000, Note_off_c, 9, 46, 95
5, 636000, Note_on_c, 9, 36, 95
5, 636480, Note_off_c, 9, 36, 95
5, 636480, Note_on_c, 9, 46, 95
5, 636480, Note_on_c, 9, 38, 95
5, 636960, Note_off_c, 9, 46, 95
5, 636960, Note_off_c, 9, 38, 95
5, 636960, Note_on_c, 9, 36, 95
5, 637440, Note_off_c, 9, 36, 95
5, 637440, Note_on_c, 9, 38, 95
5, 637680, Note_off_c, 9, 38, 95
5, 637680, Note_on_c, 9, 47, 95
5, 637920, Note_off_c, 9, 47, 95
5, 637920, Note_on_c, 9, 43, 95
5, 638160, Note_off_c, 9, 43, 95
5, 638160, Note_on_c, 9, 41, 95
5, 638400, Note_off_c, 9, 41, 95
5, 638400, Note_on_c, 9, 38, 95
5, 638640, Note_off_c, 9, 38, 95
5, 638640, Note_on_c, 9, 47, 95
5, 638880, Note_off_c, 9, 47, 95
5, 638880, Note_on_c, 9, 43, 95
5, 639120, Note_off_c, 9, 43, 95
5, 639120, Note_on_c, 9, 41, 95
5, 639360, Note_off_c, 9, 41, 95
5, 639360, Note_on_c, 9, 38, 95
5, 639600, Note_off_c, 9, 38, 95
5, 639600, Note_on_c, 9, 47, 95
5, 639840, Note_off_c, 9, 47, 95
5, 639840, Note_on_c, 9, 43, 95
5, 640080, Note_off_c, 9, 43, 95
5, 640080, Note_on_c, 9, 41, 95
5, 640320, Note_off_c, 9, 41, 95
5, 640320, Note_on_c, 9, 49, 95
5, 640320, Note_on_c, 9, 38, 95
5, 640800, Note_off_c, 9, 49, 95
5, 640800, Note_off_c, 9, 38, 95
5, 640800, Note_on_c, 9, 55, 95
5, 640800, Note_on_c, 9, 38, 95
5, 641760, Note_off_c, 9, 55, 95
5, 641760, Note_off_c, 9, 38, 95
5, 641760, End_track
0, 0, End_of_file
