0, 0, Header, 1, 11, 48
1, 0, Start_track
1, 0, Time_signature, 4, 2, 24, 8
1, 0, Tempo, 472440
1, 0, Tempo, 472440
1, 192, Tempo, 472440
1, 384, Tempo, 472440
1, 576, Tempo, 472440
1, 768, Tempo, 472440
1, 960, Tempo, 472440
1, 1152, Tempo, 472440
1, 1344, Tempo, 472440
1, 1536, Tempo, 472440
1, 1728, Tempo, 472440
1, 1920, Tempo, 472440
1, 2112, Tempo, 472440
1, 2304, Tempo, 472440
1, 2496, Tempo, 472440
1, 2688, Tempo, 472440
1, 2880, Tempo, 472440
1, 3072, Tempo, 472440
1, 3264, Tempo, 472440
1, 3456, Tempo, 472440
1, 3648, Tempo, 472440
1, 3840, Tempo, 472440
1, 4032, Tempo, 472440
1, 4224, Tempo, 472440
1, 4416, Tempo, 472440
1, 4608, Tempo, 472440
1, 4800, Tempo, 472440
1, 4992, Tempo, 472440
1, 5184, Tempo, 472440
1, 5376, Tempo, 472440
1, 5568, Tempo, 472440
1, 5760, Tempo, 472440
1, 5952, Tempo, 472440
1, 6144, Tempo, 472440
1, 6336, Tempo, 472440
1, 6528, Tempo, 472440
1, 6720, Tempo, 472440
1, 6912, Tempo, 472440
1, 7104, Tempo, 472440
1, 7296, Tempo, 472440
1, 7488, Tempo, 472440
1, 7680, Tempo, 472440
1, 7872, Tempo, 472440
1, 8064, Tempo, 472440
1, 8256, Tempo, 472440
1, 8448, Tempo, 472440
1, 8640, Tempo, 472440
1, 8832, Tempo, 472440
1, 9024, Tempo, 472440
1, 9216, Tempo, 472440
1, 9408, Tempo, 472440
1, 9600, Tempo, 472440
1, 9792, Tempo, 472440
1, 9984, Tempo, 472440
1, 10176, Tempo, 472440
1, 10368, Tempo, 472440
1, 10560, Tempo, 472440
1, 10752, Tempo, 472440
1, 10944, Tempo, 472440
1, 11136, Tempo, 472440
1, 11328, Tempo, 472440
1, 11520, Tempo, 472440
1, 11712, Tempo, 472440
1, 11904, Tempo, 472440
1, 12096, Tempo, 472440
1, 12288, Tempo, 472440
1, 12480, Tempo, 472440
1, 12672, Tempo, 472440
1, 12864, Tempo, 472440
1, 13056, Tempo, 472440
1, 13248, Tempo, 472440
1, 13440, Tempo, 472440
1, 13632, Tempo, 472440
1, 13824, Tempo, 472440
1, 14016, Tempo, 472440
1, 14208, Tempo, 472440
1, 14400, Tempo, 472440
1, 14592, Tempo, 472440
1, 14784, Tempo, 472440
1, 14976, Tempo, 472440
1, 15168, Tempo, 472440
1, 15360, Tempo, 472440
1, 15552, Tempo, 472440
1, 15744, Tempo, 472440
1, 15936, Tempo, 472440
1, 16128, Tempo, 472440
1, 16320, Tempo, 472440
1, 16512, Tempo, 472440
1, 16704, Tempo, 472440
1, 16896, Tempo, 472440
1, 17088, Tempo, 472440
1, 17280, Tempo, 472440
1, 17472, Tempo, 472440
1, 17664, Tempo, 472440
1, 17856, Tempo, 472440
1, 18048, Tempo, 472440
1, 18240, Tempo, 472440
1, 18432, Tempo, 472440
1, 18624, Tempo, 472440
1, 18816, Tempo, 472440
1, 19008, Tempo, 472440
1, 19200, Tempo, 472440
1, 19392, Tempo, 472440
1, 19584, Tempo, 472440
1, 19776, Tempo, 472440
1, 19968, Tempo, 472440
1, 20160, Tempo, 472440
1, 20352, Tempo, 472440
1, 20544, Tempo, 472440
1, 20736, Tempo, 472440
1, 20928, Tempo, 472440
1, 21120, Tempo, 472440
1, 21312, Tempo, 472440
1, 21504, Tempo, 472440
1, 21696, Tempo, 472440
1, 21888, Tempo, 472440
1, 22080, Tempo, 472440
1, 22272, Tempo, 472440
1, 22464, Tempo, 472440
1, 22656, Tempo, 472440
1, 22848, Tempo, 472440
1, 23040, Tempo, 472440
1, 23232, Tempo, 472440
1, 23424, Tempo, 472440
1, 23616, Tempo, 472440
1, 23808, Tempo, 472440
1, 24000, Tempo, 472440
1, 24192, Tempo, 472440
1, 24384, Tempo, 472440
1, 24576, Tempo, 472440
1, 24768, Tempo, 472440
1, 24960, Tempo, 472440
1, 25152, Tempo, 472440
1, 25344, Tempo, 472440
1, 25536, Tempo, 472440
1, 25728, Tempo, 472440
1, 25920, Tempo, 472440
1, 26112, Tempo, 472440
1, 26304, Tempo, 472440
1, 26496, Tempo, 472440
1, 26688, Tempo, 472440
1, 26880, Tempo, 472440
1, 27072, Tempo, 472440
1, 27264, Tempo, 472440
1, 27264, End_track
2, 0, Start_track
2, 0, Title_t, " "
2, 0, Control_c, 0, 7, 96
2, 0, Pitch_bend_c, 0, 8192
2, 0, Control_c, 0, 1, 0
2, 0, Program_c, 0, 0
2, 0, Control_c, 0, 64, 0
2, 0, Control_c, 0, 10, 64
2, 0, End_track
3, 0, Start_track
3, 0, Title_t, "Elec Pian"
3, 0, Control_c, 1, 7, 96
3, 0, Pitch_bend_c, 1, 8192
3, 0, Control_c, 1, 1, 0
3, 0, Program_c, 1, 3
3, 0, Control_c, 1, 64, 0
3, 0, Control_c, 1, 10, 64
3, 120, Note_on_c, 1, 51, 82
3, 120, Note_on_c, 1, 55, 90
3, 120, Note_on_c, 1, 58, 77
3, 171, Note_on_c, 1, 55, 0
3, 174, Note_on_c, 1, 58, 0
3, 179, Note_on_c, 1, 51, 0
3, 192, Note_on_c, 1, 56, 73
3, 192, Note_on_c, 1, 51, 73
3, 192, Note_on_c, 1, 60, 75
3, 212, Note_on_c, 1, 56, 0
3, 214, Note_on_c, 1, 60, 0
3, 215, Note_on_c, 1, 51, 0
3, 240, Note_on_c, 1, 55, 81
3, 240, Note_on_c, 1, 51, 72
3, 240, Note_on_c, 1, 58, 73
3, 260, Note_on_c, 1, 51, 0
3, 260, Note_on_c, 1, 55, 0
3, 262, Note_on_c, 1, 58, 0
3, 288, Note_on_c, 1, 56, 75
3, 288, Note_on_c, 1, 51, 77
3, 288, Note_on_c, 1, 60, 75
3, 323, Note_on_c, 1, 51, 0
3, 324, Note_on_c, 1, 60, 0
3, 328, Note_on_c, 1, 56, 0
3, 336, Note_on_c, 1, 53, 76
3, 336, Note_on_c, 1, 56, 74
3, 336, Note_on_c, 1, 61, 78
3, 347, Note_on_c, 1, 56, 0
3, 349, Note_on_c, 1, 53, 0
3, 350, Note_on_c, 1, 61, 0
3, 360, Note_on_c, 1, 53, 75
3, 360, Note_on_c, 1, 56, 72
3, 361, Note_on_c, 1, 61, 72
3, 372, Note_on_c, 1, 56, 0
3, 373, Note_on_c, 1, 53, 0
3, 373, Note_on_c, 1, 61, 0
3, 384, Note_on_c, 1, 53, 77
3, 384, Note_on_c, 1, 56, 77
3, 384, Note_on_c, 1, 61, 77
3, 394, Note_on_c, 1, 56, 0
3, 395, Note_on_c, 1, 53, 0
3, 395, Note_on_c, 1, 61, 0
3, 408, Note_on_c, 1, 53, 73
3, 408, Note_on_c, 1, 56, 67
3, 408, Note_on_c, 1, 61, 72
3, 420, Note_on_c, 1, 61, 0
3, 421, Note_on_c, 1, 56, 0
3, 421, Note_on_c, 1, 53, 0
3, 432, Note_on_c, 1, 56, 77
3, 432, Note_on_c, 1, 51, 81
3, 432, Note_on_c, 1, 60, 81
3, 465, Note_on_c, 1, 60, 0
3, 467, Note_on_c, 1, 51, 0
3, 469, Note_on_c, 1, 56, 0
3, 480, Note_on_c, 1, 51, 85
3, 480, Note_on_c, 1, 55, 92
3, 480, Note_on_c, 1, 58, 72
3, 562, Note_on_c, 1, 55, 0
3, 563, Note_on_c, 1, 58, 0
3, 564, Note_on_c, 1, 51, 0
3, 576, Note_on_c, 1, 51, 76
3, 576, Note_on_c, 1, 56, 80
3, 576, Note_on_c, 1, 60, 81
3, 609, Note_on_c, 1, 60, 0
3, 613, Note_on_c, 1, 56, 0
3, 614, Note_on_c, 1, 51, 0
3, 624, Note_on_c, 1, 55, 87
3, 624, Note_on_c, 1, 51, 80
3, 624, Note_on_c, 1, 58, 69
3, 661, Note_on_c, 1, 51, 0
3, 663, Note_on_c, 1, 55, 0
3, 665, Note_on_c, 1, 58, 0
3, 672, Note_on_c, 1, 56, 74
3, 672, Note_on_c, 1, 51, 76
3, 672, Note_on_c, 1, 60, 81
3, 706, Note_on_c, 1, 51, 0
3, 709, Note_on_c, 1, 60, 0
3, 711, Note_on_c, 1, 56, 0
3, 720, Note_on_c, 1, 53, 81
3, 720, Note_on_c, 1, 56, 73
3, 720, Note_on_c, 1, 61, 78
3, 728, Note_on_c, 1, 56, 0
3, 730, Note_on_c, 1, 53, 0
3, 732, Note_on_c, 1, 61, 0
3, 744, Note_on_c, 1, 53, 75
3, 744, Note_on_c, 1, 61, 72
3, 745, Note_on_c, 1, 56, 72
3, 754, Note_on_c, 1, 56, 0
3, 756, Note_on_c, 1, 53, 0
3, 757, Note_on_c, 1, 61, 0
3, 768, Note_on_c, 1, 56, 77
3, 769, Note_on_c, 1, 53, 76
3, 769, Note_on_c, 1, 61, 73
3, 778, Note_on_c, 1, 53, 0
3, 778, Note_on_c, 1, 56, 0
3, 779, Note_on_c, 1, 61, 0
3, 792, Note_on_c, 1, 53, 75
3, 792, Note_on_c, 1, 56, 72
3, 792, Note_on_c, 1, 61, 77
3, 803, Note_on_c, 1, 53, 0
3, 803, Note_on_c, 1, 61, 0
3, 805, Note_on_c, 1, 56, 0
3, 816, Note_on_c, 1, 51, 81
3, 816, Note_on_c, 1, 56, 78
3, 816, Note_on_c, 1, 60, 77
3, 852, Note_on_c, 1, 60, 0
3, 855, Note_on_c, 1, 51, 0
3, 857, Note_on_c, 1, 56, 0
3, 864, Note_on_c, 1, 51, 78
3, 864, Note_on_c, 1, 55, 91
3, 864, Note_on_c, 1, 58, 77
3, 947, Note_on_c, 1, 55, 0
3, 948, Note_on_c, 1, 51, 0
3, 948, Note_on_c, 1, 58, 0
3, 960, Note_on_c, 1, 51, 77
3, 960, Note_on_c, 1, 56, 79
3, 960, Note_on_c, 1, 60, 81
3, 994, Note_on_c, 1, 60, 0
3, 996, Note_on_c, 1, 51, 0
3, 998, Note_on_c, 1, 56, 0
3, 1008, Note_on_c, 1, 51, 74
3, 1008, Note_on_c, 1, 55, 81
3, 1008, Note_on_c, 1, 58, 70
3, 1044, Note_on_c, 1, 51, 0
3, 1044, Note_on_c, 1, 55, 0
3, 1048, Note_on_c, 1, 58, 0
3, 1056, Note_on_c, 1, 56, 79
3, 1056, Note_on_c, 1, 51, 82
3, 1056, Note_on_c, 1, 60, 81
3, 1092, Note_on_c, 1, 51, 0
3, 1097, Note_on_c, 1, 56, 0
3, 1100, Note_on_c, 1, 60, 0
3, 1104, Note_on_c, 1, 54, 68
3, 1104, Note_on_c, 1, 56, 72
3, 1104, Note_on_c, 1, 53, 77
3, 1104, Note_on_c, 1, 61, 75
3, 1108, Note_on_c, 1, 54, 0
3, 1113, Note_on_c, 1, 53, 0
3, 1114, Note_on_c, 1, 56, 0
3, 1116, Note_on_c, 1, 61, 0
3, 1128, Note_on_c, 1, 53, 77
3, 1128, Note_on_c, 1, 56, 77
3, 1129, Note_on_c, 1, 61, 73
3, 1138, Note_on_c, 1, 56, 0
3, 1139, Note_on_c, 1, 53, 0
3, 1140, Note_on_c, 1, 61, 0
3, 1152, Note_on_c, 1, 53, 72
3, 1152, Note_on_c, 1, 56, 66
3, 1152, Note_on_c, 1, 61, 72
3, 1163, Note_on_c, 1, 56, 0
3, 1164, Note_on_c, 1, 53, 0
3, 1165, Note_on_c, 1, 61, 0
3, 1176, Note_on_c, 1, 53, 75
3, 1176, Note_on_c, 1, 56, 72
3, 1176, Note_on_c, 1, 61, 74
3, 1188, Note_on_c, 1, 53, 0
3, 1188, Note_on_c, 1, 61, 0
3, 1189, Note_on_c, 1, 56, 0
3, 1200, Note_on_c, 1, 51, 84
3, 1200, Note_on_c, 1, 56, 77
3, 1201, Note_on_c, 1, 60, 81
3, 1235, Note_on_c, 1, 60, 0
3, 1239, Note_on_c, 1, 56, 0
3, 1239, Note_on_c, 1, 51, 0
3, 1248, Note_on_c, 1, 51, 72
3, 1248, Note_on_c, 1, 55, 88
3, 1248, Note_on_c, 1, 58, 81
3, 1332, Note_on_c, 1, 51, 0
3, 1332, Note_on_c, 1, 55, 0
3, 1335, Note_on_c, 1, 58, 0
3, 1344, Note_on_c, 1, 56, 80
3, 1344, Note_on_c, 1, 51, 77
3, 1344, Note_on_c, 1, 60, 83
3, 1380, Note_on_c, 1, 60, 0
3, 1382, Note_on_c, 1, 51, 0
3, 1384, Note_on_c, 1, 56, 0
3, 1392, Note_on_c, 1, 51, 72
3, 1392, Note_on_c, 1, 55, 83
3, 1392, Note_on_c, 1, 58, 70
3, 1428, Note_on_c, 1, 51, 0
3, 1428, Note_on_c, 1, 55, 0
3, 1431, Note_on_c, 1, 58, 0
3, 1440, Note_on_c, 1, 51, 72
3, 1440, Note_on_c, 1, 56, 73
3, 1440, Note_on_c, 1, 60, 78
3, 1476, Note_on_c, 1, 51, 0
3, 1478, Note_on_c, 1, 56, 0
3, 1480, Note_on_c, 1, 60, 0
3, 1488, Note_on_c, 1, 53, 80
3, 1488, Note_on_c, 1, 56, 79
3, 1488, Note_on_c, 1, 61, 77
3, 1498, Note_on_c, 1, 53, 0
3, 1499, Note_on_c, 1, 56, 0
3, 1501, Note_on_c, 1, 61, 0
3, 1512, Note_on_c, 1, 53, 80
3, 1512, Note_on_c, 1, 56, 77
3, 1513, Note_on_c, 1, 61, 76
3, 1523, Note_on_c, 1, 53, 0
3, 1524, Note_on_c, 1, 56, 0
3, 1524, Note_on_c, 1, 61, 0
3, 1536, Note_on_c, 1, 53, 73
3, 1536, Note_on_c, 1, 56, 75
3, 1536, Note_on_c, 1, 61, 70
3, 1548, Note_on_c, 1, 53, 0
3, 1548, Note_on_c, 1, 56, 0
3, 1548, Note_on_c, 1, 61, 0
3, 1560, Note_on_c, 1, 53, 71
3, 1560, Note_on_c, 1, 56, 70
3, 1560, Note_on_c, 1, 61, 74
3, 1572, Note_on_c, 1, 53, 0
3, 1572, Note_on_c, 1, 61, 0
3, 1574, Note_on_c, 1, 56, 0
3, 1584, Note_on_c, 1, 51, 86
3, 1584, Note_on_c, 1, 56, 81
3, 1584, Note_on_c, 1, 60, 81
3, 1640, Note_on_c, 1, 51, 0
3, 1640, Note_on_c, 1, 56, 0
3, 1640, Note_on_c, 1, 60, 0
3, 1656, Note_on_c, 1, 55, 80
3, 1656, Note_on_c, 1, 58, 72
3, 1712, Note_on_c, 1, 58, 0
3, 1714, Note_on_c, 1, 55, 0
3, 1728, Note_on_c, 1, 51, 72
3, 1728, Note_on_c, 1, 55, 84
3, 1752, Note_on_c, 1, 51, 0
3, 1761, Note_on_c, 1, 55, 0
3, 1776, Note_on_c, 1, 55, 81
3, 1776, Note_on_c, 1, 58, 72
3, 1797, Note_on_c, 1, 58, 0
3, 1798, Note_on_c, 1, 55, 0
3, 1824, Note_on_c, 1, 55, 82
3, 1824, Note_on_c, 1, 59, 75
3, 1903, Note_on_c, 1, 59, 0
3, 1907, Note_on_c, 1, 55, 0
3, 1920, Note_on_c, 1, 51, 65
3, 1920, Note_on_c, 1, 55, 81
3, 1949, Note_on_c, 1, 51, 0
3, 1954, Note_on_c, 1, 55, 0
3, 1968, Note_on_c, 1, 55, 81
3, 1968, Note_on_c, 1, 59, 75
3, 1986, Note_on_c, 1, 59, 0
3, 1988, Note_on_c, 1, 55, 0
3, 2016, Note_on_c, 1, 56, 71
3, 2016, Note_on_c, 1, 60, 75
3, 2075, Note_on_c, 1, 56, 0
3, 2076, Note_on_c, 1, 60, 0
3, 2088, Note_on_c, 1, 60, 75
3, 2089, Note_on_c, 1, 56, 69
3, 2104, Note_on_c, 1, 60, 0
3, 2105, Note_on_c, 1, 56, 0
3, 2112, Note_on_c, 1, 58, 72
3, 2113, Note_on_c, 1, 55, 80
3, 2143, Note_on_c, 1, 55, 0
3, 2144, Note_on_c, 1, 58, 0
3, 2160, Note_on_c, 1, 53, 72
3, 2160, Note_on_c, 1, 56, 80
3, 2181, Note_on_c, 1, 53, 0
3, 2189, Note_on_c, 1, 56, 0
3, 2208, Note_on_c, 1, 51, 77
3, 2208, Note_on_c, 1, 55, 73
3, 2224, Note_on_c, 1, 51, 0
3, 2228, Note_on_c, 1, 55, 0
3, 2256, Note_on_c, 1, 55, 80
3, 2280, Note_on_c, 1, 58, 74
3, 2304, Note_on_c, 1, 63, 81
3, 2334, Note_on_c, 1, 58, 0
3, 2352, Note_on_c, 1, 58, 62
3, 2356, Note_on_c, 1, 55, 0
3, 2374, Note_on_c, 1, 58, 0
3, 2374, Note_on_c, 1, 63, 0
3, 2376, Note_on_c, 1, 55, 79
3, 2386, Note_on_c, 1, 55, 0
3, 2400, Note_on_c, 1, 58, 85
3, 2400, Note_on_c, 1, 62, 83
3, 2472, Note_on_c, 1, 53, 72
3, 2473, Note_on_c, 1, 58, 0
3, 2473, Note_on_c, 1, 62, 0
3, 2496, Note_on_c, 1, 65, 95
3, 2544, Note_on_c, 1, 62, 88
3, 2551, Note_on_c, 1, 65, 0
3, 2566, Note_on_c, 1, 62, 0
3, 2578, Note_on_c, 1, 53, 0
3, 2592, Note_on_c, 1, 56, 77
3, 2592, Note_on_c, 1, 60, 77
3, 2667, Note_on_c, 1, 56, 0
3, 2671, Note_on_c, 1, 60, 0
3, 2688, Note_on_c, 1, 51, 75
3, 2688, Note_on_c, 1, 56, 77
3, 2709, Note_on_c, 1, 51, 0
3, 2711, Note_on_c, 1, 56, 0
3, 2736, Note_on_c, 1, 56, 75
3, 2736, Note_on_c, 1, 60, 77
3, 2761, Note_on_c, 1, 56, 0
3, 2765, Note_on_c, 1, 60, 0
3, 2784, Note_on_c, 1, 55, 88
3, 2784, Note_on_c, 1, 58, 77
3, 2846, Note_on_c, 1, 55, 0
3, 2852, Note_on_c, 1, 58, 0
3, 2856, Note_on_c, 1, 51, 67
3, 2867, Note_on_c, 1, 51, 0
3, 2880, Note_on_c, 1, 55, 88
3, 2880, Note_on_c, 1, 58, 77
3, 2900, Note_on_c, 1, 55, 0
3, 2900, Note_on_c, 1, 58, 0
3, 2928, Note_on_c, 1, 60, 77
3, 2929, Note_on_c, 1, 56, 77
3, 2951, Note_on_c, 1, 56, 0
3, 2956, Note_on_c, 1, 60, 0
3, 2976, Note_on_c, 1, 55, 84
3, 2976, Note_on_c, 1, 58, 71
3, 3043, Note_on_c, 1, 55, 0
3, 3045, Note_on_c, 1, 58, 0
3, 3048, Note_on_c, 1, 51, 78
3, 3059, Note_on_c, 1, 51, 0
3, 3072, Note_on_c, 1, 55, 82
3, 3072, Note_on_c, 1, 58, 70
3, 3090, Note_on_c, 1, 55, 0
3, 3091, Note_on_c, 1, 58, 0
3, 3120, Note_on_c, 1, 56, 79
3, 3120, Note_on_c, 1, 60, 78
3, 3139, Note_on_c, 1, 56, 0
3, 3142, Note_on_c, 1, 60, 0
3, 3168, Note_on_c, 1, 55, 84
3, 3168, Note_on_c, 1, 58, 71
3, 3237, Note_on_c, 1, 55, 0
3, 3238, Note_on_c, 1, 58, 0
3, 3240, Note_on_c, 1, 51, 72
3, 3250, Note_on_c, 1, 51, 0
3, 3264, Note_on_c, 1, 55, 77
3, 3264, Note_on_c, 1, 58, 72
3, 3285, Note_on_c, 1, 55, 0
3, 3287, Note_on_c, 1, 58, 0
3, 3312, Note_on_c, 1, 51, 63
3, 3312, Note_on_c, 1, 55, 81
3, 3331, Note_on_c, 1, 51, 0
3, 3333, Note_on_c, 1, 55, 0
3, 3360, Note_on_c, 1, 55, 77
3, 3360, Note_on_c, 1, 59, 75
3, 3422, Note_on_c, 1, 59, 0
3, 3425, Note_on_c, 1, 55, 0
3, 3432, Note_on_c, 1, 51, 62
3, 3432, Note_on_c, 1, 55, 71
3, 3443, Note_on_c, 1, 51, 0
3, 3448, Note_on_c, 1, 55, 0
3, 3456, Note_on_c, 1, 55, 80
3, 3456, Note_on_c, 1, 59, 75
3, 3478, Note_on_c, 1, 55, 0
3, 3480, Note_on_c, 1, 59, 0
3, 3504, Note_on_c, 1, 51, 67
3, 3504, Note_on_c, 1, 55, 83
3, 3522, Note_on_c, 1, 55, 0
3, 3523, Note_on_c, 1, 51, 0
3, 3552, Note_on_c, 1, 56, 76
3, 3552, Note_on_c, 1, 60, 71
3, 3620, Note_on_c, 1, 56, 0
3, 3623, Note_on_c, 1, 60, 0
3, 3624, Note_on_c, 1, 51, 77
3, 3638, Note_on_c, 1, 51, 0
3, 3648, Note_on_c, 1, 56, 72
3, 3648, Note_on_c, 1, 60, 71
3, 3670, Note_on_c, 1, 56, 0
3, 3671, Note_on_c, 1, 60, 0
3, 3696, Note_on_c, 1, 51, 76
3, 3696, Note_on_c, 1, 56, 69
3, 3710, Note_on_c, 1, 51, 0
3, 3711, Note_on_c, 1, 56, 0
3, 3744, Note_on_c, 1, 57, 82
3, 3744, Note_on_c, 1, 60, 76
3, 3803, Note_on_c, 1, 57, 0
3, 3804, Note_on_c, 1, 60, 0
3, 3816, Note_on_c, 1, 51, 72
3, 3816, Note_on_c, 1, 57, 75
3, 3829, Note_on_c, 1, 51, 0
3, 3832, Note_on_c, 1, 57, 0
3, 3840, Note_on_c, 1, 57, 80
3, 3840, Note_on_c, 1, 60, 77
3, 3857, Note_on_c, 1, 57, 0
3, 3863, Note_on_c, 1, 60, 0
3, 3888, Note_on_c, 1, 51, 72
3, 3888, Note_on_c, 1, 57, 75
3, 3903, Note_on_c, 1, 51, 0
3, 3905, Note_on_c, 1, 57, 0
3, 3936, Note_on_c, 1, 51, 77
3, 3936, Note_on_c, 1, 55, 86
3, 3990, Note_on_c, 1, 51, 0
3, 4008, Note_on_c, 1, 51, 63
3, 4011, Note_on_c, 1, 55, 0
3, 4018, Note_on_c, 1, 51, 0
3, 4032, Note_on_c, 1, 55, 85
3, 4032, Note_on_c, 1, 58, 68
3, 4049, Note_on_c, 1, 55, 0
3, 4050, Note_on_c, 1, 58, 0
3, 4080, Note_on_c, 1, 51, 73
3, 4080, Note_on_c, 1, 55, 83
3, 4098, Note_on_c, 1, 51, 0
3, 4099, Note_on_c, 1, 55, 0
3, 4152, Note_on_c, 1, 58, 71
3, 4152, Note_on_c, 1, 53, 73
3, 4152, Note_on_c, 1, 62, 86
3, 4200, Note_on_c, 1, 53, 0
3, 4219, Note_on_c, 1, 58, 0
3, 4222, Note_on_c, 1, 62, 0
3, 4224, Note_on_c, 1, 53, 73
3, 4235, Note_on_c, 1, 53, 0
3, 4248, Note_on_c, 1, 51, 80
3, 4248, Note_on_c, 1, 56, 71
3, 4248, Note_on_c, 1, 60, 81
3, 4283, Note_on_c, 1, 56, 0
3, 4284, Note_on_c, 1, 51, 0
3, 4285, Note_on_c, 1, 60, 0
3, 4296, Note_on_c, 1, 51, 68
3, 4296, Note_on_c, 1, 56, 72
3, 4315, Note_on_c, 1, 51, 0
3, 4315, Note_on_c, 1, 56, 0
3, 4344, Note_on_c, 1, 55, 81
3, 4344, Note_on_c, 1, 58, 69
3, 4392, Note_on_c, 1, 55, 0
3, 4392, Note_on_c, 1, 51, 73
3, 4396, Note_on_c, 1, 58, 0
3, 4404, Note_on_c, 1, 51, 0
3, 4416, Note_on_c, 1, 55, 84
3, 4417, Note_on_c, 1, 58, 72
3, 4435, Note_on_c, 1, 58, 0
3, 4436, Note_on_c, 1, 55, 0
3, 4464, Note_on_c, 1, 56, 77
3, 4464, Note_on_c, 1, 60, 80
3, 4480, Note_on_c, 1, 56, 0
3, 4487, Note_on_c, 1, 60, 0
3, 4512, Note_on_c, 1, 55, 85
3, 4512, Note_on_c, 1, 58, 72
3, 4577, Note_on_c, 1, 55, 0
3, 4581, Note_on_c, 1, 58, 0
3, 4584, Note_on_c, 1, 51, 77
3, 4596, Note_on_c, 1, 51, 0
3, 4608, Note_on_c, 1, 55, 87
3, 4608, Note_on_c, 1, 58, 72
3, 4627, Note_on_c, 1, 55, 0
3, 4629, Note_on_c, 1, 58, 0
3, 4656, Note_on_c, 1, 56, 77
3, 4656, Note_on_c, 1, 60, 77
3, 4677, Note_on_c, 1, 56, 0
3, 4681, Note_on_c, 1, 60, 0
3, 4704, Note_on_c, 1, 55, 81
3, 4705, Note_on_c, 1, 58, 75
3, 4721, Note_on_c, 1, 55, 0
3, 4722, Note_on_c, 1, 58, 0
3, 4728, Note_on_c, 1, 63, 81
3, 4729, Note_on_c, 1, 60, 84
3, 4729, Note_on_c, 1, 68, 82
3, 4785, Note_on_c, 1, 60, 0
3, 4787, Note_on_c, 1, 68, 0
3, 4788, Note_on_c, 1, 63, 0
3, 4800, Note_on_c, 1, 61, 72
3, 4800, Note_on_c, 1, 65, 81
3, 4800, Note_on_c, 1, 68, 73
3, 4831, Note_on_c, 1, 68, 0
3, 4832, Note_on_c, 1, 65, 0
3, 4832, Note_on_c, 1, 61, 0
3, 4848, Note_on_c, 1, 61, 73
3, 4848, Note_on_c, 1, 65, 84
3, 4848, Note_on_c, 1, 68, 72
3, 4873, Note_on_c, 1, 68, 0
3, 4879, Note_on_c, 1, 61, 0
3, 4880, Note_on_c, 1, 65, 0
3, 4896, Note_on_c, 1, 63, 87
3, 4896, Note_on_c, 1, 60, 80
3, 4896, Note_on_c, 1, 68, 85
3, 4974, Note_on_c, 1, 60, 0
3, 4977, Note_on_c, 1, 68, 0
3, 4978, Note_on_c, 1, 63, 0
3, 4992, Note_on_c, 1, 61, 69
3, 4992, Note_on_c, 1, 65, 80
3, 4992, Note_on_c, 1, 68, 77
3, 5027, Note_on_c, 1, 68, 0
3, 5029, Note_on_c, 1, 61, 0
3, 5030, Note_on_c, 1, 65, 0
3, 5040, Note_on_c, 1, 60, 71
3, 5040, Note_on_c, 1, 63, 69
3, 5040, Note_on_c, 1, 68, 77
3, 5069, Note_on_c, 1, 68, 0
3, 5072, Note_on_c, 1, 60, 0
3, 5074, Note_on_c, 1, 63, 0
3, 5088, Note_on_c, 1, 58, 72
3, 5088, Note_on_c, 1, 63, 77
3, 5088, Note_on_c, 1, 67, 86
3, 5171, Note_on_c, 1, 67, 0
3, 5172, Note_on_c, 1, 58, 0
3, 5175, Note_on_c, 1, 63, 0
3, 5184, Note_on_c, 1, 60, 71
3, 5184, Note_on_c, 1, 63, 72
3, 5184, Note_on_c, 1, 68, 84
3, 5216, Note_on_c, 1, 60, 0
3, 5216, Note_on_c, 1, 68, 0
3, 5219, Note_on_c, 1, 63, 0
3, 5232, Note_on_c, 1, 60, 77
3, 5232, Note_on_c, 1, 63, 77
3, 5232, Note_on_c, 1, 68, 76
3, 5262, Note_on_c, 1, 68, 0
3, 5264, Note_on_c, 1, 60, 0
3, 5267, Note_on_c, 1, 63, 0
3, 5280, Note_on_c, 1, 58, 78
3, 5280, Note_on_c, 1, 63, 77
3, 5280, Note_on_c, 1, 67, 85
3, 5355, Note_on_c, 1, 67, 0
3, 5357, Note_on_c, 1, 58, 0
3, 5360, Note_on_c, 1, 63, 0
3, 5376, Note_on_c, 1, 60, 73
3, 5376, Note_on_c, 1, 63, 71
3, 5376, Note_on_c, 1, 68, 80
3, 5406, Note_on_c, 1, 68, 0
3, 5410, Note_on_c, 1, 60, 0
3, 5413, Note_on_c, 1, 63, 0
3, 5424, Note_on_c, 1, 58, 73
3, 5424, Note_on_c, 1, 63, 72
3, 5424, Note_on_c, 1, 67, 82
3, 5456, Note_on_c, 1, 58, 0
3, 5457, Note_on_c, 1, 63, 0
3, 5457, Note_on_c, 1, 67, 0
3, 5472, Note_on_c, 1, 59, 79
3, 5472, Note_on_c, 1, 62, 75
3, 5472, Note_on_c, 1, 67, 83
3, 5638, Note_on_c, 1, 59, 0
3, 5640, Note_on_c, 1, 62, 0
3, 5641, Note_on_c, 1, 67, 0
3, 5664, Note_on_c, 1, 63, 82
3, 5664, Note_on_c, 1, 60, 80
3, 5664, Note_on_c, 1, 67, 81
3, 5677, Note_on_c, 1, 63, 0
3, 5679, Note_on_c, 1, 60, 0
3, 5679, Note_on_c, 1, 67, 0
3, 5712, Note_on_c, 1, 58, 77
3, 5712, Note_on_c, 1, 62, 89
3, 5712, Note_on_c, 1, 65, 80
3, 5728, Note_on_c, 1, 65, 0
3, 5729, Note_on_c, 1, 62, 0
3, 5731, Note_on_c, 1, 58, 0
3, 5760, Note_on_c, 1, 56, 80
3, 5760, Note_on_c, 1, 60, 89
3, 5760, Note_on_c, 1, 63, 69
3, 5858, Note_on_c, 1, 60, 0
3, 5860, Note_on_c, 1, 63, 0
3, 5861, Note_on_c, 1, 56, 0
3, 5880, Note_on_c, 1, 56, 77
3, 5880, Note_on_c, 1, 60, 87
3, 5880, Note_on_c, 1, 63, 69
3, 5960, Note_on_c, 1, 60, 0
3, 5961, Note_on_c, 1, 63, 0
3, 5963, Note_on_c, 1, 56, 0
3, 5976, Note_on_c, 1, 56, 77
3, 5976, Note_on_c, 1, 62, 81
3, 5976, Note_on_c, 1, 65, 77
3, 6051, Note_on_c, 1, 62, 0
3, 6052, Note_on_c, 1, 56, 0
3, 6053, Note_on_c, 1, 65, 0
3, 6072, Note_on_c, 1, 55, 81
3, 6072, Note_on_c, 1, 58, 79
3, 6072, Note_on_c, 1, 63, 81
3, 6224, Note_on_c, 1, 55, 0
3, 6225, Note_on_c, 1, 58, 0
3, 6228, Note_on_c, 1, 63, 0
3, 6264, Note_on_c, 1, 68, 76
3, 6265, Note_on_c, 1, 60, 79
3, 6265, Note_on_c, 1, 63, 79
3, 6319, Note_on_c, 1, 60, 0
3, 6321, Note_on_c, 1, 63, 0
3, 6322, Note_on_c, 1, 68, 0
3, 6336, Note_on_c, 1, 65, 81
3, 6336, Note_on_c, 1, 61, 69
3, 6336, Note_on_c, 1, 68, 72
3, 6370, Note_on_c, 1, 61, 0
3, 6371, Note_on_c, 1, 68, 0
3, 6372, Note_on_c, 1, 65, 0
3, 6384, Note_on_c, 1, 61, 75
3, 6384, Note_on_c, 1, 65, 84
3, 6384, Note_on_c, 1, 68, 76
3, 6411, Note_on_c, 1, 68, 0
3, 6416, Note_on_c, 1, 61, 0
3, 6419, Note_on_c, 1, 65, 0
3, 6432, Note_on_c, 1, 60, 75
3, 6432, Note_on_c, 1, 63, 76
3, 6432, Note_on_c, 1, 68, 81
3, 6511, Note_on_c, 1, 60, 0
3, 6513, Note_on_c, 1, 68, 0
3, 6515, Note_on_c, 1, 63, 0
3, 6528, Note_on_c, 1, 61, 67
3, 6528, Note_on_c, 1, 65, 77
3, 6528, Note_on_c, 1, 68, 74
3, 6562, Note_on_c, 1, 61, 0
3, 6562, Note_on_c, 1, 68, 0
3, 6564, Note_on_c, 1, 65, 0
3, 6576, Note_on_c, 1, 63, 71
3, 6576, Note_on_c, 1, 60, 72
3, 6576, Note_on_c, 1, 68, 78
3, 6607, Note_on_c, 1, 68, 0
3, 6608, Note_on_c, 1, 60, 0
3, 6612, Note_on_c, 1, 63, 0
3, 6624, Note_on_c, 1, 63, 75
3, 6624, Note_on_c, 1, 58, 80
3, 6624, Note_on_c, 1, 67, 87
3, 6702, Note_on_c, 1, 58, 0
3, 6703, Note_on_c, 1, 67, 0
3, 6707, Note_on_c, 1, 63, 0
3, 6720, Note_on_c, 1, 63, 76
3, 6721, Note_on_c, 1, 60, 68
3, 6721, Note_on_c, 1, 68, 81
3, 6751, Note_on_c, 1, 60, 0
3, 6752, Note_on_c, 1, 68, 0
3, 6756, Note_on_c, 1, 63, 0
3, 6768, Note_on_c, 1, 63, 77
3, 6768, Note_on_c, 1, 68, 74
3, 6769, Note_on_c, 1, 60, 77
3, 6797, Note_on_c, 1, 68, 0
3, 6798, Note_on_c, 1, 60, 0
3, 6802, Note_on_c, 1, 63, 0
3, 6816, Note_on_c, 1, 58, 73
3, 6816, Note_on_c, 1, 63, 72
3, 6816, Note_on_c, 1, 67, 83
3, 6895, Note_on_c, 1, 67, 0
3, 6898, Note_on_c, 1, 58, 0
3, 6900, Note_on_c, 1, 63, 0
3, 6912, Note_on_c, 1, 60, 75
3, 6912, Note_on_c, 1, 63, 75
3, 6912, Note_on_c, 1, 68, 77
3, 6940, Note_on_c, 1, 68, 0
3, 6942, Note_on_c, 1, 60, 0
3, 6947, Note_on_c, 1, 63, 0
3, 6960, Note_on_c, 1, 58, 74
3, 6960, Note_on_c, 1, 63, 72
3, 6960, Note_on_c, 1, 67, 82
3, 6989, Note_on_c, 1, 58, 0
3, 6989, Note_on_c, 1, 67, 0
3, 6991, Note_on_c, 1, 63, 0
3, 7008, Note_on_c, 1, 59, 82
3, 7008, Note_on_c, 1, 62, 101
3, 7008, Note_on_c, 1, 67, 91
3, 7180, Note_on_c, 1, 62, 0
3, 7181, Note_on_c, 1, 59, 0
3, 7182, Note_on_c, 1, 67, 0
3, 7200, Note_on_c, 1, 63, 82
3, 7201, Note_on_c, 1, 60, 81
3, 7201, Note_on_c, 1, 67, 82
3, 7213, Note_on_c, 1, 67, 0
3, 7217, Note_on_c, 1, 63, 0
3, 7217, Note_on_c, 1, 60, 0
3, 7248, Note_on_c, 1, 62, 83
3, 7249, Note_on_c, 1, 58, 74
3, 7249, Note_on_c, 1, 65, 77
3, 7266, Note_on_c, 1, 65, 0
3, 7268, Note_on_c, 1, 62, 0
3, 7269, Note_on_c, 1, 58, 0
3, 7296, Note_on_c, 1, 56, 81
3, 7296, Note_on_c, 1, 60, 86
3, 7296, Note_on_c, 1, 63, 72
3, 7395, Note_on_c, 1, 60, 0
3, 7396, Note_on_c, 1, 63, 0
3, 7397, Note_on_c, 1, 56, 0
3, 7416, Note_on_c, 1, 56, 75
3, 7416, Note_on_c, 1, 60, 83
3, 7416, Note_on_c, 1, 63, 65
3, 7496, Note_on_c, 1, 63, 0
3, 7497, Note_on_c, 1, 60, 0
3, 7498, Note_on_c, 1, 56, 0
3, 7512, Note_on_c, 1, 56, 78
3, 7512, Note_on_c, 1, 62, 84
3, 7512, Note_on_c, 1, 65, 85
3, 7599, Note_on_c, 1, 65, 0
3, 7600, Note_on_c, 1, 62, 0
3, 7601, Note_on_c, 1, 56, 0
3, 7608, Note_on_c, 1, 51, 82
3, 7608, Note_on_c, 1, 55, 90
3, 7609, Note_on_c, 1, 58, 77
3, 7659, Note_on_c, 1, 55, 0
3, 7661, Note_on_c, 1, 58, 0
3, 7667, Note_on_c, 1, 51, 0
3, 7680, Note_on_c, 1, 56, 73
3, 7680, Note_on_c, 1, 51, 73
3, 7680, Note_on_c, 1, 60, 75
3, 7700, Note_on_c, 1, 56, 0
3, 7702, Note_on_c, 1, 60, 0
3, 7703, Note_on_c, 1, 51, 0
3, 7728, Note_on_c, 1, 55, 81
3, 7728, Note_on_c, 1, 51, 72
3, 7728, Note_on_c, 1, 58, 73
3, 7748, Note_on_c, 1, 51, 0
3, 7748, Note_on_c, 1, 55, 0
3, 7750, Note_on_c, 1, 58, 0
3, 7776, Note_on_c, 1, 56, 75
3, 7776, Note_on_c, 1, 51, 77
3, 7776, Note_on_c, 1, 60, 75
3, 7811, Note_on_c, 1, 51, 0
3, 7812, Note_on_c, 1, 60, 0
3, 7816, Note_on_c, 1, 56, 0
3, 7824, Note_on_c, 1, 53, 76
3, 7824, Note_on_c, 1, 56, 74
3, 7824, Note_on_c, 1, 61, 78
3, 7835, Note_on_c, 1, 56, 0
3, 7837, Note_on_c, 1, 53, 0
3, 7838, Note_on_c, 1, 61, 0
3, 7848, Note_on_c, 1, 53, 75
3, 7848, Note_on_c, 1, 56, 72
3, 7849, Note_on_c, 1, 61, 72
3, 7860, Note_on_c, 1, 56, 0
3, 7861, Note_on_c, 1, 53, 0
3, 7861, Note_on_c, 1, 61, 0
3, 7872, Note_on_c, 1, 53, 77
3, 7872, Note_on_c, 1, 56, 77
3, 7872, Note_on_c, 1, 61, 77
3, 7882, Note_on_c, 1, 56, 0
3, 7884, Note_on_c, 1, 53, 0
3, 7884, Note_on_c, 1, 61, 0
3, 7896, Note_on_c, 1, 53, 73
3, 7896, Note_on_c, 1, 56, 67
3, 7896, Note_on_c, 1, 61, 72
3, 7908, Note_on_c, 1, 61, 0
3, 7909, Note_on_c, 1, 56, 0
3, 7909, Note_on_c, 1, 53, 0
3, 7920, Note_on_c, 1, 56, 77
3, 7920, Note_on_c, 1, 51, 81
3, 7920, Note_on_c, 1, 60, 81
3, 7954, Note_on_c, 1, 60, 0
3, 7955, Note_on_c, 1, 51, 0
3, 7957, Note_on_c, 1, 56, 0
3, 7968, Note_on_c, 1, 51, 85
3, 7968, Note_on_c, 1, 55, 92
3, 7968, Note_on_c, 1, 58, 72
3, 8050, Note_on_c, 1, 55, 0
3, 8051, Note_on_c, 1, 58, 0
3, 8052, Note_on_c, 1, 51, 0
3, 8064, Note_on_c, 1, 51, 76
3, 8064, Note_on_c, 1, 56, 80
3, 8064, Note_on_c, 1, 60, 81
3, 8097, Note_on_c, 1, 60, 0
3, 8101, Note_on_c, 1, 56, 0
3, 8102, Note_on_c, 1, 51, 0
3, 8112, Note_on_c, 1, 55, 87
3, 8112, Note_on_c, 1, 51, 80
3, 8112, Note_on_c, 1, 58, 69
3, 8149, Note_on_c, 1, 51, 0
3, 8151, Note_on_c, 1, 55, 0
3, 8153, Note_on_c, 1, 58, 0
3, 8160, Note_on_c, 1, 56, 74
3, 8160, Note_on_c, 1, 51, 76
3, 8160, Note_on_c, 1, 60, 81
3, 8194, Note_on_c, 1, 51, 0
3, 8197, Note_on_c, 1, 60, 0
3, 8199, Note_on_c, 1, 56, 0
3, 8208, Note_on_c, 1, 53, 81
3, 8208, Note_on_c, 1, 56, 73
3, 8208, Note_on_c, 1, 61, 78
3, 8216, Note_on_c, 1, 56, 0
3, 8218, Note_on_c, 1, 53, 0
3, 8220, Note_on_c, 1, 61, 0
3, 8232, Note_on_c, 1, 53, 75
3, 8232, Note_on_c, 1, 61, 72
3, 8233, Note_on_c, 1, 56, 72
3, 8242, Note_on_c, 1, 56, 0
3, 8244, Note_on_c, 1, 53, 0
3, 8245, Note_on_c, 1, 61, 0
3, 8256, Note_on_c, 1, 53, 76
3, 8256, Note_on_c, 1, 56, 77
3, 8256, Note_on_c, 1, 61, 73
3, 8266, Note_on_c, 1, 53, 0
3, 8266, Note_on_c, 1, 56, 0
3, 8266, Note_on_c, 1, 61, 0
3, 8280, Note_on_c, 1, 53, 75
3, 8280, Note_on_c, 1, 56, 72
3, 8280, Note_on_c, 1, 61, 77
3, 8291, Note_on_c, 1, 53, 0
3, 8291, Note_on_c, 1, 61, 0
3, 8294, Note_on_c, 1, 56, 0
3, 8304, Note_on_c, 1, 51, 81
3, 8304, Note_on_c, 1, 56, 78
3, 8304, Note_on_c, 1, 60, 77
3, 8340, Note_on_c, 1, 60, 0
3, 8343, Note_on_c, 1, 51, 0
3, 8344, Note_on_c, 1, 56, 0
3, 8352, Note_on_c, 1, 51, 78
3, 8352, Note_on_c, 1, 55, 91
3, 8352, Note_on_c, 1, 58, 77
3, 8376, Note_on_c, 1, 55, 0
3, 8376, Note_on_c, 1, 58, 0
3, 8376, Note_on_c, 1, 55, 80
3, 8376, Note_on_c, 1, 58, 72
3, 8377, Note_on_c, 1, 58, 0
3, 8435, Note_on_c, 1, 55, 0
3, 8436, Note_on_c, 1, 51, 0
3, 8448, Note_on_c, 1, 51, 72
3, 8448, Note_on_c, 1, 55, 84
3, 8472, Note_on_c, 1, 51, 0
3, 8481, Note_on_c, 1, 55, 0
3, 8496, Note_on_c, 1, 55, 81
3, 8496, Note_on_c, 1, 58, 72
3, 8517, Note_on_c, 1, 58, 0
3, 8519, Note_on_c, 1, 55, 0
3, 8544, Note_on_c, 1, 55, 82
3, 8544, Note_on_c, 1, 59, 75
3, 8623, Note_on_c, 1, 59, 0
3, 8627, Note_on_c, 1, 55, 0
3, 8640, Note_on_c, 1, 51, 65
3, 8640, Note_on_c, 1, 55, 81
3, 8669, Note_on_c, 1, 51, 0
3, 8674, Note_on_c, 1, 55, 0
3, 8688, Note_on_c, 1, 55, 81
3, 8688, Note_on_c, 1, 59, 75
3, 8707, Note_on_c, 1, 59, 0
3, 8708, Note_on_c, 1, 55, 0
3, 8736, Note_on_c, 1, 56, 71
3, 8736, Note_on_c, 1, 60, 75
3, 8795, Note_on_c, 1, 56, 0
3, 8796, Note_on_c, 1, 60, 0
3, 8808, Note_on_c, 1, 60, 75
3, 8809, Note_on_c, 1, 56, 69
3, 8824, Note_on_c, 1, 60, 0
3, 8825, Note_on_c, 1, 56, 0
3, 8832, Note_on_c, 1, 55, 80
3, 8832, Note_on_c, 1, 58, 72
3, 8863, Note_on_c, 1, 55, 0
3, 8864, Note_on_c, 1, 58, 0
3, 8880, Note_on_c, 1, 53, 72
3, 8880, Note_on_c, 1, 56, 80
3, 8901, Note_on_c, 1, 53, 0
3, 8909, Note_on_c, 1, 56, 0
3, 8928, Note_on_c, 1, 51, 77
3, 8928, Note_on_c, 1, 55, 73
3, 8944, Note_on_c, 1, 51, 0
3, 8948, Note_on_c, 1, 55, 0
3, 8976, Note_on_c, 1, 55, 80
3, 9000, Note_on_c, 1, 58, 74
3, 9024, Note_on_c, 1, 63, 81
3, 9054, Note_on_c, 1, 58, 0
3, 9072, Note_on_c, 1, 58, 62
3, 9076, Note_on_c, 1, 55, 0
3, 9094, Note_on_c, 1, 63, 0
3, 9095, Note_on_c, 1, 58, 0
3, 9096, Note_on_c, 1, 55, 79
3, 9106, Note_on_c, 1, 55, 0
3, 9120, Note_on_c, 1, 58, 85
3, 9120, Note_on_c, 1, 62, 83
3, 9192, Note_on_c, 1, 62, 0
3, 9192, Note_on_c, 1, 53, 72
3, 9193, Note_on_c, 1, 58, 0
3, 9216, Note_on_c, 1, 65, 95
3, 9264, Note_on_c, 1, 62, 88
3, 9271, Note_on_c, 1, 65, 0
3, 9286, Note_on_c, 1, 62, 0
3, 9298, Note_on_c, 1, 53, 0
3, 9312, Note_on_c, 1, 56, 77
3, 9312, Note_on_c, 1, 60, 77
3, 9387, Note_on_c, 1, 56, 0
3, 9391, Note_on_c, 1, 60, 0
3, 9408, Note_on_c, 1, 51, 75
3, 9408, Note_on_c, 1, 56, 77
3, 9429, Note_on_c, 1, 51, 0
3, 9431, Note_on_c, 1, 56, 0
3, 9456, Note_on_c, 1, 56, 75
3, 9456, Note_on_c, 1, 60, 77
3, 9481, Note_on_c, 1, 56, 0
3, 9485, Note_on_c, 1, 60, 0
3, 9504, Note_on_c, 1, 55, 88
3, 9504, Note_on_c, 1, 58, 77
3, 9566, Note_on_c, 1, 55, 0
3, 9572, Note_on_c, 1, 58, 0
3, 9576, Note_on_c, 1, 51, 67
3, 9587, Note_on_c, 1, 51, 0
3, 9600, Note_on_c, 1, 55, 88
3, 9600, Note_on_c, 1, 58, 77
3, 9620, Note_on_c, 1, 55, 0
3, 9620, Note_on_c, 1, 58, 0
3, 9648, Note_on_c, 1, 56, 77
3, 9648, Note_on_c, 1, 60, 77
3, 9671, Note_on_c, 1, 56, 0
3, 9676, Note_on_c, 1, 60, 0
3, 9696, Note_on_c, 1, 55, 84
3, 9696, Note_on_c, 1, 58, 71
3, 9763, Note_on_c, 1, 55, 0
3, 9765, Note_on_c, 1, 58, 0
3, 9768, Note_on_c, 1, 51, 78
3, 9779, Note_on_c, 1, 51, 0
3, 9792, Note_on_c, 1, 55, 82
3, 9792, Note_on_c, 1, 58, 70
3, 9810, Note_on_c, 1, 55, 0
3, 9811, Note_on_c, 1, 58, 0
3, 9840, Note_on_c, 1, 56, 79
3, 9840, Note_on_c, 1, 60, 78
3, 9859, Note_on_c, 1, 56, 0
3, 9862, Note_on_c, 1, 60, 0
3, 9888, Note_on_c, 1, 55, 84
3, 9888, Note_on_c, 1, 58, 71
3, 9957, Note_on_c, 1, 55, 0
3, 9958, Note_on_c, 1, 58, 0
3, 9960, Note_on_c, 1, 51, 72
3, 9970, Note_on_c, 1, 51, 0
3, 9984, Note_on_c, 1, 55, 77
3, 9984, Note_on_c, 1, 58, 72
3, 10005, Note_on_c, 1, 55, 0
3, 10007, Note_on_c, 1, 58, 0
3, 10032, Note_on_c, 1, 51, 63
3, 10032, Note_on_c, 1, 55, 81
3, 10051, Note_on_c, 1, 51, 0
3, 10053, Note_on_c, 1, 55, 0
3, 10080, Note_on_c, 1, 55, 77
3, 10080, Note_on_c, 1, 59, 75
3, 10142, Note_on_c, 1, 59, 0
3, 10144, Note_on_c, 1, 55, 0
3, 10152, Note_on_c, 1, 51, 62
3, 10152, Note_on_c, 1, 55, 71
3, 10163, Note_on_c, 1, 51, 0
3, 10168, Note_on_c, 1, 55, 0
3, 10176, Note_on_c, 1, 55, 80
3, 10176, Note_on_c, 1, 59, 75
3, 10198, Note_on_c, 1, 55, 0
3, 10200, Note_on_c, 1, 59, 0
3, 10224, Note_on_c, 1, 51, 67
3, 10224, Note_on_c, 1, 55, 83
3, 10242, Note_on_c, 1, 55, 0
3, 10243, Note_on_c, 1, 51, 0
3, 10272, Note_on_c, 1, 56, 76
3, 10272, Note_on_c, 1, 60, 71
3, 10340, Note_on_c, 1, 56, 0
3, 10343, Note_on_c, 1, 60, 0
3, 10344, Note_on_c, 1, 51, 77
3, 10358, Note_on_c, 1, 51, 0
3, 10368, Note_on_c, 1, 56, 72
3, 10368, Note_on_c, 1, 60, 71
3, 10390, Note_on_c, 1, 56, 0
3, 10391, Note_on_c, 1, 60, 0
3, 10416, Note_on_c, 1, 51, 76
3, 10416, Note_on_c, 1, 56, 69
3, 10430, Note_on_c, 1, 51, 0
3, 10431, Note_on_c, 1, 56, 0
3, 10464, Note_on_c, 1, 57, 82
3, 10464, Note_on_c, 1, 60, 76
3, 10523, Note_on_c, 1, 57, 0
3, 10523, Note_on_c, 1, 60, 0
3, 10536, Note_on_c, 1, 51, 72
3, 10536, Note_on_c, 1, 57, 75
3, 10549, Note_on_c, 1, 51, 0
3, 10552, Note_on_c, 1, 57, 0
3, 10560, Note_on_c, 1, 57, 80
3, 10560, Note_on_c, 1, 60, 77
3, 10577, Note_on_c, 1, 57, 0
3, 10583, Note_on_c, 1, 60, 0
3, 10608, Note_on_c, 1, 51, 72
3, 10608, Note_on_c, 1, 57, 75
3, 10623, Note_on_c, 1, 51, 0
3, 10624, Note_on_c, 1, 57, 0
3, 10656, Note_on_c, 1, 51, 77
3, 10656, Note_on_c, 1, 55, 86
3, 10710, Note_on_c, 1, 51, 0
3, 10728, Note_on_c, 1, 51, 63
3, 10732, Note_on_c, 1, 55, 0
3, 10738, Note_on_c, 1, 51, 0
3, 10752, Note_on_c, 1, 55, 85
3, 10752, Note_on_c, 1, 58, 68
3, 10769, Note_on_c, 1, 55, 0
3, 10770, Note_on_c, 1, 58, 0
3, 10800, Note_on_c, 1, 51, 73
3, 10800, Note_on_c, 1, 55, 83
3, 10818, Note_on_c, 1, 51, 0
3, 10819, Note_on_c, 1, 55, 0
3, 10872, Note_on_c, 1, 58, 71
3, 10872, Note_on_c, 1, 53, 73
3, 10872, Note_on_c, 1, 62, 86
3, 10920, Note_on_c, 1, 53, 0
3, 10939, Note_on_c, 1, 58, 0
3, 10942, Note_on_c, 1, 62, 0
3, 10944, Note_on_c, 1, 53, 73
3, 10955, Note_on_c, 1, 53, 0
3, 10968, Note_on_c, 1, 51, 80
3, 10968, Note_on_c, 1, 56, 71
3, 10968, Note_on_c, 1, 60, 81
3, 11003, Note_on_c, 1, 51, 0
3, 11003, Note_on_c, 1, 56, 0
3, 11005, Note_on_c, 1, 60, 0
3, 11016, Note_on_c, 1, 51, 68
3, 11016, Note_on_c, 1, 56, 72
3, 11035, Note_on_c, 1, 51, 0
3, 11035, Note_on_c, 1, 56, 0
3, 11064, Note_on_c, 1, 55, 81
3, 11064, Note_on_c, 1, 58, 69
3, 11112, Note_on_c, 1, 55, 0
3, 11112, Note_on_c, 1, 51, 73
3, 11116, Note_on_c, 1, 58, 0
3, 11124, Note_on_c, 1, 51, 0
3, 11136, Note_on_c, 1, 55, 84
3, 11136, Note_on_c, 1, 58, 72
3, 11155, Note_on_c, 1, 55, 0
3, 11155, Note_on_c, 1, 58, 0
3, 11184, Note_on_c, 1, 56, 77
3, 11184, Note_on_c, 1, 60, 80
3, 11200, Note_on_c, 1, 56, 0
3, 11207, Note_on_c, 1, 60, 0
3, 11232, Note_on_c, 1, 55, 85
3, 11232, Note_on_c, 1, 58, 72
3, 11298, Note_on_c, 1, 55, 0
3, 11301, Note_on_c, 1, 58, 0
3, 11304, Note_on_c, 1, 51, 77
3, 11316, Note_on_c, 1, 51, 0
3, 11328, Note_on_c, 1, 55, 87
3, 11328, Note_on_c, 1, 58, 72
3, 11347, Note_on_c, 1, 55, 0
3, 11348, Note_on_c, 1, 58, 0
3, 11376, Note_on_c, 1, 56, 77
3, 11376, Note_on_c, 1, 60, 77
3, 11397, Note_on_c, 1, 56, 0
3, 11401, Note_on_c, 1, 60, 0
3, 11424, Note_on_c, 1, 55, 81
3, 11424, Note_on_c, 1, 58, 75
3, 11441, Note_on_c, 1, 55, 0
3, 11442, Note_on_c, 1, 58, 0
3, 11448, Note_on_c, 1, 60, 84
3, 11448, Note_on_c, 1, 63, 81
3, 11448, Note_on_c, 1, 68, 82
3, 11505, Note_on_c, 1, 60, 0
3, 11507, Note_on_c, 1, 68, 0
3, 11508, Note_on_c, 1, 63, 0
3, 11520, Note_on_c, 1, 61, 72
3, 11520, Note_on_c, 1, 65, 81
3, 11520, Note_on_c, 1, 68, 73
3, 11551, Note_on_c, 1, 68, 0
3, 11552, Note_on_c, 1, 65, 0
3, 11552, Note_on_c, 1, 61, 0
3, 11568, Note_on_c, 1, 61, 73
3, 11568, Note_on_c, 1, 65, 84
3, 11568, Note_on_c, 1, 68, 72
3, 11593, Note_on_c, 1, 68, 0
3, 11599, Note_on_c, 1, 61, 0
3, 11600, Note_on_c, 1, 65, 0
3, 11616, Note_on_c, 1, 63, 87
3, 11616, Note_on_c, 1, 60, 80
3, 11616, Note_on_c, 1, 68, 85
3, 11694, Note_on_c, 1, 60, 0
3, 11697, Note_on_c, 1, 68, 0
3, 11698, Note_on_c, 1, 63, 0
3, 11712, Note_on_c, 1, 61, 69
3, 11712, Note_on_c, 1, 65, 80
3, 11712, Note_on_c, 1, 68, 77
3, 11747, Note_on_c, 1, 68, 0
3, 11749, Note_on_c, 1, 61, 0
3, 11750, Note_on_c, 1, 65, 0
3, 11760, Note_on_c, 1, 60, 71
3, 11760, Note_on_c, 1, 63, 69
3, 11760, Note_on_c, 1, 68, 77
3, 11789, Note_on_c, 1, 68, 0
3, 11792, Note_on_c, 1, 60, 0
3, 11794, Note_on_c, 1, 63, 0
3, 11808, Note_on_c, 1, 58, 72
3, 11808, Note_on_c, 1, 63, 77
3, 11808, Note_on_c, 1, 67, 86
3, 11892, Note_on_c, 1, 58, 0
3, 11892, Note_on_c, 1, 67, 0
3, 11895, Note_on_c, 1, 63, 0
3, 11904, Note_on_c, 1, 60, 71
3, 11904, Note_on_c, 1, 63, 72
3, 11904, Note_on_c, 1, 68, 84
3, 11936, Note_on_c, 1, 60, 0
3, 11936, Note_on_c, 1, 68, 0
3, 11939, Note_on_c, 1, 63, 0
3, 11952, Note_on_c, 1, 60, 77
3, 11952, Note_on_c, 1, 63, 77
3, 11952, Note_on_c, 1, 68, 76
3, 11982, Note_on_c, 1, 68, 0
3, 11984, Note_on_c, 1, 60, 0
3, 11987, Note_on_c, 1, 63, 0
3, 12000, Note_on_c, 1, 58, 78
3, 12000, Note_on_c, 1, 63, 77
3, 12000, Note_on_c, 1, 67, 85
3, 12076, Note_on_c, 1, 67, 0
3, 12077, Note_on_c, 1, 58, 0
3, 12080, Note_on_c, 1, 63, 0
3, 12096, Note_on_c, 1, 60, 73
3, 12096, Note_on_c, 1, 63, 71
3, 12096, Note_on_c, 1, 68, 80
3, 12126, Note_on_c, 1, 68, 0
3, 12130, Note_on_c, 1, 60, 0
3, 12133, Note_on_c, 1, 63, 0
3, 12144, Note_on_c, 1, 58, 73
3, 12144, Note_on_c, 1, 63, 72
3, 12144, Note_on_c, 1, 67, 82
3, 12176, Note_on_c, 1, 58, 0
3, 12177, Note_on_c, 1, 63, 0
3, 12177, Note_on_c, 1, 67, 0
3, 12192, Note_on_c, 1, 59, 79
3, 12192, Note_on_c, 1, 62, 75
3, 12192, Note_on_c, 1, 67, 83
3, 12358, Note_on_c, 1, 59, 0
3, 12360, Note_on_c, 1, 62, 0
3, 12361, Note_on_c, 1, 67, 0
3, 12384, Note_on_c, 1, 63, 82
3, 12384, Note_on_c, 1, 67, 81
3, 12385, Note_on_c, 1, 60, 80
3, 12397, Note_on_c, 1, 63, 0
3, 12399, Note_on_c, 1, 67, 0
3, 12400, Note_on_c, 1, 60, 0
3, 12432, Note_on_c, 1, 58, 77
3, 12432, Note_on_c, 1, 62, 89
3, 12433, Note_on_c, 1, 65, 80
3, 12448, Note_on_c, 1, 65, 0
3, 12449, Note_on_c, 1, 62, 0
3, 12451, Note_on_c, 1, 58, 0
3, 12480, Note_on_c, 1, 56, 80
3, 12480, Note_on_c, 1, 60, 89
3, 12481, Note_on_c, 1, 63, 69
3, 12578, Note_on_c, 1, 60, 0
3, 12580, Note_on_c, 1, 63, 0
3, 12581, Note_on_c, 1, 56, 0
3, 12600, Note_on_c, 1, 56, 77
3, 12600, Note_on_c, 1, 60, 87
3, 12600, Note_on_c, 1, 63, 69
3, 12680, Note_on_c, 1, 60, 0
3, 12681, Note_on_c, 1, 63, 0
3, 12684, Note_on_c, 1, 56, 0
3, 12696, Note_on_c, 1, 56, 77
3, 12696, Note_on_c, 1, 62, 81
3, 12696, Note_on_c, 1, 65, 77
3, 12771, Note_on_c, 1, 62, 0
3, 12772, Note_on_c, 1, 56, 0
3, 12772, Note_on_c, 1, 65, 0
3, 12792, Note_on_c, 1, 55, 81
3, 12792, Note_on_c, 1, 58, 79
3, 12792, Note_on_c, 1, 63, 81
3, 12944, Note_on_c, 1, 55, 0
3, 12945, Note_on_c, 1, 58, 0
3, 12948, Note_on_c, 1, 63, 0
3, 12984, Note_on_c, 1, 68, 76
3, 12985, Note_on_c, 1, 60, 79
3, 12985, Note_on_c, 1, 63, 79
3, 13039, Note_on_c, 1, 60, 0
3, 13041, Note_on_c, 1, 63, 0
3, 13042, Note_on_c, 1, 68, 0
3, 13056, Note_on_c, 1, 65, 81
3, 13056, Note_on_c, 1, 61, 69
3, 13056, Note_on_c, 1, 68, 72
3, 13090, Note_on_c, 1, 61, 0
3, 13090, Note_on_c, 1, 68, 0
3, 13092, Note_on_c, 1, 65, 0
3, 13104, Note_on_c, 1, 61, 75
3, 13104, Note_on_c, 1, 65, 84
3, 13104, Note_on_c, 1, 68, 76
3, 13131, Note_on_c, 1, 68, 0
3, 13136, Note_on_c, 1, 61, 0
3, 13139, Note_on_c, 1, 65, 0
3, 13152, Note_on_c, 1, 60, 75
3, 13152, Note_on_c, 1, 63, 76
3, 13152, Note_on_c, 1, 68, 81
3, 13231, Note_on_c, 1, 60, 0
3, 13233, Note_on_c, 1, 68, 0
3, 13235, Note_on_c, 1, 63, 0
3, 13248, Note_on_c, 1, 61, 67
3, 13248, Note_on_c, 1, 68, 74
3, 13249, Note_on_c, 1, 65, 77
3, 13282, Note_on_c, 1, 68, 0
3, 13283, Note_on_c, 1, 61, 0
3, 13284, Note_on_c, 1, 65, 0
3, 13296, Note_on_c, 1, 63, 71
3, 13296, Note_on_c, 1, 60, 72
3, 13296, Note_on_c, 1, 68, 78
3, 13327, Note_on_c, 1, 68, 0
3, 13328, Note_on_c, 1, 60, 0
3, 13332, Note_on_c, 1, 63, 0
3, 13344, Note_on_c, 1, 63, 75
3, 13344, Note_on_c, 1, 58, 80
3, 13344, Note_on_c, 1, 67, 87
3, 13422, Note_on_c, 1, 58, 0
3, 13423, Note_on_c, 1, 67, 0
3, 13427, Note_on_c, 1, 63, 0
3, 13440, Note_on_c, 1, 63, 76
3, 13440, Note_on_c, 1, 60, 68
3, 13440, Note_on_c, 1, 68, 81
3, 13471, Note_on_c, 1, 60, 0
3, 13472, Note_on_c, 1, 68, 0
3, 13476, Note_on_c, 1, 63, 0
3, 13488, Note_on_c, 1, 63, 77
3, 13488, Note_on_c, 1, 60, 77
3, 13488, Note_on_c, 1, 68, 74
3, 13517, Note_on_c, 1, 68, 0
3, 13518, Note_on_c, 1, 60, 0
3, 13522, Note_on_c, 1, 63, 0
3, 13536, Note_on_c, 1, 58, 73
3, 13536, Note_on_c, 1, 63, 72
3, 13536, Note_on_c, 1, 67, 83
3, 13615, Note_on_c, 1, 67, 0
3, 13618, Note_on_c, 1, 58, 0
3, 13620, Note_on_c, 1, 63, 0
3, 13632, Note_on_c, 1, 60, 75
3, 13632, Note_on_c, 1, 63, 75
3, 13632, Note_on_c, 1, 68, 77
3, 13660, Note_on_c, 1, 68, 0
3, 13662, Note_on_c, 1, 60, 0
3, 13667, Note_on_c, 1, 63, 0
3, 13680, Note_on_c, 1, 58, 74
3, 13680, Note_on_c, 1, 63, 72
3, 13680, Note_on_c, 1, 67, 82
3, 13709, Note_on_c, 1, 67, 0
3, 13710, Note_on_c, 1, 58, 0
3, 13711, Note_on_c, 1, 63, 0
3, 13728, Note_on_c, 1, 59, 82
3, 13728, Note_on_c, 1, 62, 101
3, 13728, Note_on_c, 1, 67, 91
3, 13900, Note_on_c, 1, 62, 0
3, 13901, Note_on_c, 1, 59, 0
3, 13902, Note_on_c, 1, 67, 0
3, 13920, Note_on_c, 1, 60, 81
3, 13920, Note_on_c, 1, 63, 82
3, 13920, Note_on_c, 1, 67, 82
3, 13933, Note_on_c, 1, 67, 0
3, 13937, Note_on_c, 1, 63, 0
3, 13937, Note_on_c, 1, 60, 0
3, 13968, Note_on_c, 1, 58, 74
3, 13968, Note_on_c, 1, 62, 83
3, 13968, Note_on_c, 1, 65, 77
3, 13986, Note_on_c, 1, 65, 0
3, 13988, Note_on_c, 1, 62, 0
3, 13989, Note_on_c, 1, 58, 0
3, 14016, Note_on_c, 1, 56, 81
3, 14016, Note_on_c, 1, 60, 86
3, 14016, Note_on_c, 1, 63, 72
3, 14115, Note_on_c, 1, 60, 0
3, 14116, Note_on_c, 1, 63, 0
3, 14117, Note_on_c, 1, 56, 0
3, 14136, Note_on_c, 1, 56, 75
3, 14136, Note_on_c, 1, 60, 83
3, 14136, Note_on_c, 1, 63, 65
3, 14216, Note_on_c, 1, 63, 0
3, 14217, Note_on_c, 1, 60, 0
3, 14218, Note_on_c, 1, 56, 0
3, 14232, Note_on_c, 1, 56, 78
3, 14232, Note_on_c, 1, 62, 84
3, 14232, Note_on_c, 1, 65, 85
3, 14319, Note_on_c, 1, 65, 0
3, 14320, Note_on_c, 1, 62, 0
3, 14320, Note_on_c, 1, 56, 0
3, 14328, Note_on_c, 1, 51, 82
3, 14328, Note_on_c, 1, 55, 90
3, 14328, Note_on_c, 1, 58, 77
3, 14379, Note_on_c, 1, 55, 0
3, 14381, Note_on_c, 1, 58, 0
3, 14387, Note_on_c, 1, 51, 0
3, 14400, Note_on_c, 1, 56, 73
3, 14400, Note_on_c, 1, 51, 73
3, 14400, Note_on_c, 1, 60, 75
3, 14420, Note_on_c, 1, 56, 0
3, 14422, Note_on_c, 1, 51, 0
3, 14422, Note_on_c, 1, 60, 0
3, 14448, Note_on_c, 1, 55, 81
3, 14448, Note_on_c, 1, 51, 72
3, 14448, Note_on_c, 1, 58, 73
3, 14468, Note_on_c, 1, 51, 0
3, 14468, Note_on_c, 1, 55, 0
3, 14470, Note_on_c, 1, 58, 0
3, 14496, Note_on_c, 1, 56, 75
3, 14496, Note_on_c, 1, 51, 77
3, 14496, Note_on_c, 1, 60, 75
3, 14531, Note_on_c, 1, 51, 0
3, 14532, Note_on_c, 1, 60, 0
3, 14536, Note_on_c, 1, 56, 0
3, 14544, Note_on_c, 1, 53, 76
3, 14544, Note_on_c, 1, 56, 74
3, 14544, Note_on_c, 1, 61, 78
3, 14555, Note_on_c, 1, 56, 0
3, 14557, Note_on_c, 1, 53, 0
3, 14558, Note_on_c, 1, 61, 0
3, 14568, Note_on_c, 1, 53, 75
3, 14568, Note_on_c, 1, 56, 72
3, 14569, Note_on_c, 1, 61, 72
3, 14580, Note_on_c, 1, 56, 0
3, 14581, Note_on_c, 1, 53, 0
3, 14581, Note_on_c, 1, 61, 0
3, 14592, Note_on_c, 1, 53, 77
3, 14592, Note_on_c, 1, 56, 77
3, 14592, Note_on_c, 1, 61, 77
3, 14602, Note_on_c, 1, 56, 0
3, 14603, Note_on_c, 1, 53, 0
3, 14603, Note_on_c, 1, 61, 0
3, 14616, Note_on_c, 1, 53, 73
3, 14616, Note_on_c, 1, 56, 67
3, 14616, Note_on_c, 1, 61, 72
3, 14628, Note_on_c, 1, 61, 0
3, 14629, Note_on_c, 1, 56, 0
3, 14629, Note_on_c, 1, 53, 0
3, 14640, Note_on_c, 1, 56, 77
3, 14640, Note_on_c, 1, 60, 81
3, 14641, Note_on_c, 1, 51, 81
3, 14673, Note_on_c, 1, 60, 0
3, 14676, Note_on_c, 1, 51, 0
3, 14677, Note_on_c, 1, 56, 0
3, 14688, Note_on_c, 1, 51, 85
3, 14688, Note_on_c, 1, 55, 92
3, 14688, Note_on_c, 1, 58, 72
3, 14770, Note_on_c, 1, 55, 0
3, 14771, Note_on_c, 1, 58, 0
3, 14772, Note_on_c, 1, 51, 0
3, 14784, Note_on_c, 1, 51, 76
3, 14784, Note_on_c, 1, 56, 80
3, 14784, Note_on_c, 1, 60, 81
3, 14817, Note_on_c, 1, 60, 0
3, 14821, Note_on_c, 1, 56, 0
3, 14822, Note_on_c, 1, 51, 0
3, 14832, Note_on_c, 1, 55, 87
3, 14832, Note_on_c, 1, 51, 80
3, 14832, Note_on_c, 1, 58, 69
3, 14869, Note_on_c, 1, 51, 0
3, 14870, Note_on_c, 1, 55, 0
3, 14873, Note_on_c, 1, 58, 0
3, 14880, Note_on_c, 1, 56, 74
3, 14880, Note_on_c, 1, 51, 76
3, 14880, Note_on_c, 1, 60, 81
3, 14914, Note_on_c, 1, 51, 0
3, 14917, Note_on_c, 1, 60, 0
3, 14919, Note_on_c, 1, 56, 0
3, 14928, Note_on_c, 1, 53, 81
3, 14928, Note_on_c, 1, 56, 73
3, 14928, Note_on_c, 1, 61, 78
3, 14935, Note_on_c, 1, 56, 0
3, 14938, Note_on_c, 1, 53, 0
3, 14940, Note_on_c, 1, 61, 0
3, 14952, Note_on_c, 1, 53, 75
3, 14952, Note_on_c, 1, 61, 72
3, 14953, Note_on_c, 1, 56, 72
3, 14962, Note_on_c, 1, 56, 0
3, 14964, Note_on_c, 1, 53, 0
3, 14965, Note_on_c, 1, 61, 0
3, 14976, Note_on_c, 1, 53, 76
3, 14976, Note_on_c, 1, 56, 77
3, 14977, Note_on_c, 1, 61, 73
3, 14986, Note_on_c, 1, 53, 0
3, 14986, Note_on_c, 1, 56, 0
3, 14987, Note_on_c, 1, 61, 0
3, 15000, Note_on_c, 1, 53, 75
3, 15000, Note_on_c, 1, 56, 72
3, 15000, Note_on_c, 1, 61, 77
3, 15010, Note_on_c, 1, 61, 0
3, 15011, Note_on_c, 1, 53, 0
3, 15014, Note_on_c, 1, 56, 0
3, 15024, Note_on_c, 1, 51, 81
3, 15024, Note_on_c, 1, 56, 78
3, 15063, Note_on_c, 1, 51, 0
3, 15064, Note_on_c, 1, 56, 0
3, 15144, Note_on_c, 1, 51, 75
3, 15144, Note_on_c, 1, 56, 71
3, 15144, Note_on_c, 1, 60, 79
3, 15158, Note_on_c, 1, 51, 0
3, 15160, Note_on_c, 1, 56, 0
3, 15160, Note_on_c, 1, 60, 0
3, 15216, Note_on_c, 1, 51, 76
3, 15217, Note_on_c, 1, 56, 73
3, 15217, Note_on_c, 1, 60, 78
3, 15226, Note_on_c, 1, 51, 0
3, 15226, Note_on_c, 1, 56, 0
3, 15228, Note_on_c, 1, 60, 0
3, 15264, Note_on_c, 1, 58, 72
3, 15264, Note_on_c, 1, 53, 79
3, 15264, Note_on_c, 1, 62, 79
3, 15320, Note_on_c, 1, 53, 0
3, 15334, Note_on_c, 1, 58, 0
3, 15335, Note_on_c, 1, 62, 0
3, 15336, Note_on_c, 1, 53, 68
3, 15345, Note_on_c, 1, 53, 0
3, 15360, Note_on_c, 1, 58, 69
3, 15360, Note_on_c, 1, 53, 78
3, 15360, Note_on_c, 1, 63, 72
3, 15374, Note_on_c, 1, 58, 0
3, 15376, Note_on_c, 1, 63, 0
3, 15379, Note_on_c, 1, 53, 0
3, 15408, Note_on_c, 1, 58, 80
3, 15408, Note_on_c, 1, 53, 75
3, 15408, Note_on_c, 1, 62, 83
3, 15425, Note_on_c, 1, 58, 0
3, 15425, Note_on_c, 1, 62, 0
3, 15427, Note_on_c, 1, 53, 0
3, 15456, Note_on_c, 1, 51, 84
3, 15456, Note_on_c, 1, 55, 87
3, 15456, Note_on_c, 1, 58, 72
3, 15509, Note_on_c, 1, 51, 0
3, 15509, Note_on_c, 1, 55, 0
3, 15511, Note_on_c, 1, 58, 0
3, 15528, Note_on_c, 1, 51, 78
3, 15529, Note_on_c, 1, 55, 86
3, 15529, Note_on_c, 1, 58, 71
3, 15539, Note_on_c, 1, 51, 0
3, 15542, Note_on_c, 1, 55, 0
3, 15544, Note_on_c, 1, 58, 0
3, 15600, Note_on_c, 1, 55, 85
3, 15601, Note_on_c, 1, 51, 79
3, 15601, Note_on_c, 1, 58, 69
3, 15610, Note_on_c, 1, 51, 0
3, 15611, Note_on_c, 1, 55, 0
3, 15613, Note_on_c, 1, 58, 0
3, 15648, Note_on_c, 1, 51, 75
3, 15648, Note_on_c, 1, 56, 74
3, 15648, Note_on_c, 1, 60, 81
3, 15707, Note_on_c, 1, 51, 0
3, 15717, Note_on_c, 1, 56, 0
3, 15720, Note_on_c, 1, 60, 0
3, 15720, Note_on_c, 1, 51, 55
3, 15724, Note_on_c, 1, 51, 0
3, 15744, Note_on_c, 1, 51, 76
3, 15744, Note_on_c, 1, 56, 77
3, 15744, Note_on_c, 1, 58, 72
3, 15760, Note_on_c, 1, 56, 0
3, 15760, Note_on_c, 1, 58, 0
3, 15763, Note_on_c, 1, 51, 0
3, 15792, Note_on_c, 1, 51, 74
3, 15792, Note_on_c, 1, 56, 76
3, 15792, Note_on_c, 1, 60, 79
3, 15808, Note_on_c, 1, 56, 0
3, 15810, Note_on_c, 1, 51, 0
3, 15811, Note_on_c, 1, 60, 0
3, 15840, Note_on_c, 1, 51, 80
3, 15840, Note_on_c, 1, 55, 89
3, 15840, Note_on_c, 1, 58, 72
3, 15893, Note_on_c, 1, 55, 0
3, 15894, Note_on_c, 1, 51, 0
3, 15896, Note_on_c, 1, 58, 0
3, 15912, Note_on_c, 1, 51, 79
3, 15912, Note_on_c, 1, 55, 89
3, 15913, Note_on_c, 1, 58, 76
3, 15927, Note_on_c, 1, 55, 0
3, 15927, Note_on_c, 1, 58, 0
3, 15928, Note_on_c, 1, 51, 0
3, 15984, Note_on_c, 1, 51, 75
3, 15984, Note_on_c, 1, 55, 85
3, 15984, Note_on_c, 1, 58, 72
3, 16004, Note_on_c, 1, 51, 0
3, 16004, Note_on_c, 1, 55, 0
3, 16007, Note_on_c, 1, 58, 0
3, 16032, Note_on_c, 1, 58, 77
3, 16032, Note_on_c, 1, 53, 81
3, 16032, Note_on_c, 1, 62, 90
3, 16164, Note_on_c, 1, 53, 0
3, 16164, Note_on_c, 1, 62, 0
3, 16166, Note_on_c, 1, 58, 0
3, 16176, Note_on_c, 1, 53, 77
3, 16176, Note_on_c, 1, 58, 80
3, 16176, Note_on_c, 1, 62, 87
3, 16218, Note_on_c, 1, 62, 0
3, 16222, Note_on_c, 1, 58, 0
3, 16222, Note_on_c, 1, 53, 0
3, 16248, Note_on_c, 1, 49, 79
3, 16248, Note_on_c, 1, 58, 79
3, 16249, Note_on_c, 1, 54, 76
3, 16346, Note_on_c, 1, 49, 0
3, 16346, Note_on_c, 1, 54, 0
3, 16346, Note_on_c, 1, 58, 0
3, 16368, Note_on_c, 1, 49, 81
3, 16368, Note_on_c, 1, 54, 76
3, 16368, Note_on_c, 1, 58, 75
3, 16425, Note_on_c, 1, 54, 0
3, 16428, Note_on_c, 1, 49, 0
3, 16428, Note_on_c, 1, 58, 0
3, 16440, Note_on_c, 1, 51, 79
3, 16440, Note_on_c, 1, 56, 84
3, 16441, Note_on_c, 1, 60, 87
3, 16541, Note_on_c, 1, 56, 0
3, 16542, Note_on_c, 1, 60, 0
3, 16543, Note_on_c, 1, 51, 0
3, 16560, Note_on_c, 1, 56, 73
3, 16561, Note_on_c, 1, 51, 68
3, 16561, Note_on_c, 1, 60, 75
3, 16567, Note_on_c, 1, 51, 0
3, 16567, Note_on_c, 1, 56, 0
3, 16567, Note_on_c, 1, 60, 0
3, 16584, Note_on_c, 1, 51, 77
3, 16585, Note_on_c, 1, 56, 84
3, 16585, Note_on_c, 1, 60, 81
3, 16591, Note_on_c, 1, 56, 0
3, 16592, Note_on_c, 1, 60, 0
3, 16593, Note_on_c, 1, 51, 0
3, 16608, Note_on_c, 1, 60, 87
3, 16609, Note_on_c, 1, 51, 85
3, 16609, Note_on_c, 1, 56, 92
3, 16622, Note_on_c, 1, 56, 0
3, 16623, Note_on_c, 1, 51, 0
3, 16624, Note_on_c, 1, 60, 0
3, 16632, Note_on_c, 1, 51, 82
3, 16632, Note_on_c, 1, 55, 90
3, 16632, Note_on_c, 1, 58, 77
3, 16683, Note_on_c, 1, 55, 0
3, 16686, Note_on_c, 1, 58, 0
3, 16691, Note_on_c, 1, 51, 0
3, 16704, Note_on_c, 1, 56, 73
3, 16704, Note_on_c, 1, 51, 73
3, 16704, Note_on_c, 1, 60, 75
3, 16724, Note_on_c, 1, 56, 0
3, 16726, Note_on_c, 1, 51, 0
3, 16726, Note_on_c, 1, 60, 0
3, 16752, Note_on_c, 1, 55, 81
3, 16752, Note_on_c, 1, 51, 72
3, 16752, Note_on_c, 1, 58, 73
3, 16772, Note_on_c, 1, 51, 0
3, 16772, Note_on_c, 1, 55, 0
3, 16774, Note_on_c, 1, 58, 0
3, 16800, Note_on_c, 1, 56, 75
3, 16800, Note_on_c, 1, 51, 77
3, 16800, Note_on_c, 1, 60, 75
3, 16835, Note_on_c, 1, 51, 0
3, 16836, Note_on_c, 1, 60, 0
3, 16840, Note_on_c, 1, 56, 0
3, 16848, Note_on_c, 1, 53, 76
3, 16848, Note_on_c, 1, 56, 74
3, 16848, Note_on_c, 1, 61, 78
3, 16859, Note_on_c, 1, 56, 0
3, 16861, Note_on_c, 1, 53, 0
3, 16862, Note_on_c, 1, 61, 0
3, 16872, Note_on_c, 1, 53, 75
3, 16872, Note_on_c, 1, 56, 72
3, 16872, Note_on_c, 1, 61, 72
3, 16884, Note_on_c, 1, 56, 0
3, 16885, Note_on_c, 1, 53, 0
3, 16885, Note_on_c, 1, 61, 0
3, 16896, Note_on_c, 1, 53, 77
3, 16896, Note_on_c, 1, 56, 77
3, 16896, Note_on_c, 1, 61, 77
3, 16906, Note_on_c, 1, 56, 0
3, 16907, Note_on_c, 1, 53, 0
3, 16907, Note_on_c, 1, 61, 0
3, 16920, Note_on_c, 1, 53, 73
3, 16920, Note_on_c, 1, 56, 67
3, 16920, Note_on_c, 1, 61, 72
3, 16932, Note_on_c, 1, 61, 0
3, 16933, Note_on_c, 1, 56, 0
3, 16933, Note_on_c, 1, 53, 0
3, 16944, Note_on_c, 1, 56, 77
3, 16944, Note_on_c, 1, 51, 81
3, 16944, Note_on_c, 1, 60, 81
3, 16977, Note_on_c, 1, 60, 0
3, 16980, Note_on_c, 1, 51, 0
3, 16981, Note_on_c, 1, 56, 0
3, 16992, Note_on_c, 1, 51, 85
3, 16992, Note_on_c, 1, 55, 92
3, 16992, Note_on_c, 1, 58, 72
3, 17074, Note_on_c, 1, 55, 0
3, 17075, Note_on_c, 1, 58, 0
3, 17076, Note_on_c, 1, 51, 0
3, 17088, Note_on_c, 1, 51, 76
3, 17088, Note_on_c, 1, 56, 80
3, 17088, Note_on_c, 1, 60, 81
3, 17121, Note_on_c, 1, 60, 0
3, 17125, Note_on_c, 1, 56, 0
3, 17126, Note_on_c, 1, 51, 0
3, 17136, Note_on_c, 1, 55, 87
3, 17136, Note_on_c, 1, 51, 80
3, 17136, Note_on_c, 1, 58, 69
3, 17173, Note_on_c, 1, 51, 0
3, 17174, Note_on_c, 1, 55, 0
3, 17177, Note_on_c, 1, 58, 0
3, 17184, Note_on_c, 1, 56, 74
3, 17184, Note_on_c, 1, 51, 76
3, 17184, Note_on_c, 1, 60, 81
3, 17218, Note_on_c, 1, 51, 0
3, 17221, Note_on_c, 1, 60, 0
3, 17223, Note_on_c, 1, 56, 0
3, 17232, Note_on_c, 1, 53, 81
3, 17232, Note_on_c, 1, 56, 73
3, 17233, Note_on_c, 1, 61, 78
3, 17239, Note_on_c, 1, 56, 0
3, 17242, Note_on_c, 1, 53, 0
3, 17244, Note_on_c, 1, 61, 0
3, 17257, Note_on_c, 1, 53, 75
3, 17257, Note_on_c, 1, 56, 72
3, 17257, Note_on_c, 1, 61, 72
3, 17266, Note_on_c, 1, 56, 0
3, 17268, Note_on_c, 1, 53, 0
3, 17269, Note_on_c, 1, 61, 0
3, 17280, Note_on_c, 1, 53, 76
3, 17280, Note_on_c, 1, 56, 77
3, 17281, Note_on_c, 1, 61, 73
3, 17290, Note_on_c, 1, 53, 0
3, 17290, Note_on_c, 1, 56, 0
3, 17291, Note_on_c, 1, 61, 0
3, 17305, Note_on_c, 1, 53, 75
3, 17305, Note_on_c, 1, 56, 72
3, 17305, Note_on_c, 1, 61, 77
3, 17314, Note_on_c, 1, 61, 0
3, 17315, Note_on_c, 1, 53, 0
3, 17318, Note_on_c, 1, 56, 0
3, 17328, Note_on_c, 1, 51, 81
3, 17328, Note_on_c, 1, 56, 78
3, 17329, Note_on_c, 1, 60, 77
3, 17364, Note_on_c, 1, 60, 0
3, 17367, Note_on_c, 1, 51, 0
3, 17368, Note_on_c, 1, 56, 0
3, 17376, Note_on_c, 1, 51, 78
3, 17376, Note_on_c, 1, 55, 91
3, 17376, Note_on_c, 1, 58, 77
3, 17400, Note_on_c, 1, 55, 0
3, 17400, Note_on_c, 1, 58, 0
3, 17400, Note_on_c, 1, 55, 80
3, 17401, Note_on_c, 1, 55, 0
3, 17401, Note_on_c, 1, 58, 72
3, 17460, Note_on_c, 1, 51, 0
3, 17460, Note_on_c, 1, 58, 0
3, 17472, Note_on_c, 1, 51, 72
3, 17472, Note_on_c, 1, 55, 84
3, 17496, Note_on_c, 1, 51, 0
3, 17505, Note_on_c, 1, 55, 0
3, 17520, Note_on_c, 1, 55, 81
3, 17520, Note_on_c, 1, 58, 72
3, 17541, Note_on_c, 1, 58, 0
3, 17542, Note_on_c, 1, 55, 0
3, 17568, Note_on_c, 1, 55, 82
3, 17568, Note_on_c, 1, 59, 75
3, 17647, Note_on_c, 1, 59, 0
3, 17651, Note_on_c, 1, 55, 0
3, 17664, Note_on_c, 1, 51, 65
3, 17664, Note_on_c, 1, 55, 81
3, 17693, Note_on_c, 1, 51, 0
3, 17698, Note_on_c, 1, 55, 0
3, 17712, Note_on_c, 1, 55, 81
3, 17712, Note_on_c, 1, 59, 75
3, 17731, Note_on_c, 1, 59, 0
3, 17732, Note_on_c, 1, 55, 0
3, 17760, Note_on_c, 1, 56, 71
3, 17760, Note_on_c, 1, 60, 75
3, 17819, Note_on_c, 1, 56, 0
3, 17820, Note_on_c, 1, 60, 0
3, 17832, Note_on_c, 1, 60, 75
3, 17833, Note_on_c, 1, 56, 69
3, 17848, Note_on_c, 1, 60, 0
3, 17849, Note_on_c, 1, 56, 0
3, 17856, Note_on_c, 1, 55, 80
3, 17856, Note_on_c, 1, 58, 72
3, 17887, Note_on_c, 1, 55, 0
3, 17888, Note_on_c, 1, 58, 0
3, 17904, Note_on_c, 1, 53, 72
3, 17904, Note_on_c, 1, 56, 80
3, 17925, Note_on_c, 1, 53, 0
3, 17933, Note_on_c, 1, 56, 0
3, 17952, Note_on_c, 1, 51, 77
3, 17952, Note_on_c, 1, 55, 73
3, 17968, Note_on_c, 1, 51, 0
3, 17972, Note_on_c, 1, 55, 0
3, 18000, Note_on_c, 1, 55, 80
3, 18024, Note_on_c, 1, 58, 74
3, 18048, Note_on_c, 1, 63, 81
3, 18078, Note_on_c, 1, 58, 0
3, 18096, Note_on_c, 1, 58, 62
3, 18100, Note_on_c, 1, 55, 0
3, 18118, Note_on_c, 1, 58, 0
3, 18118, Note_on_c, 1, 63, 0
3, 18120, Note_on_c, 1, 55, 79
3, 18130, Note_on_c, 1, 55, 0
3, 18144, Note_on_c, 1, 58, 85
3, 18144, Note_on_c, 1, 62, 83
3, 18216, Note_on_c, 1, 62, 0
3, 18216, Note_on_c, 1, 53, 72
3, 18217, Note_on_c, 1, 58, 0
3, 18240, Note_on_c, 1, 65, 95
3, 18288, Note_on_c, 1, 62, 88
3, 18295, Note_on_c, 1, 65, 0
3, 18310, Note_on_c, 1, 62, 0
3, 18322, Note_on_c, 1, 53, 0
3, 18336, Note_on_c, 1, 56, 77
3, 18336, Note_on_c, 1, 60, 77
3, 18411, Note_on_c, 1, 56, 0
3, 18415, Note_on_c, 1, 60, 0
3, 18432, Note_on_c, 1, 56, 77
3, 18433, Note_on_c, 1, 51, 75
3, 18453, Note_on_c, 1, 51, 0
3, 18455, Note_on_c, 1, 56, 0
3, 18480, Note_on_c, 1, 56, 75
3, 18480, Note_on_c, 1, 60, 77
3, 18505, Note_on_c, 1, 56, 0
3, 18509, Note_on_c, 1, 60, 0
3, 18528, Note_on_c, 1, 55, 88
3, 18528, Note_on_c, 1, 58, 77
3, 18590, Note_on_c, 1, 55, 0
3, 18596, Note_on_c, 1, 58, 0
3, 18600, Note_on_c, 1, 51, 67
3, 18611, Note_on_c, 1, 51, 0
3, 18624, Note_on_c, 1, 55, 88
3, 18624, Note_on_c, 1, 58, 77
3, 18644, Note_on_c, 1, 55, 0
3, 18644, Note_on_c, 1, 58, 0
3, 18672, Note_on_c, 1, 56, 77
3, 18672, Note_on_c, 1, 60, 77
3, 18695, Note_on_c, 1, 56, 0
3, 18700, Note_on_c, 1, 60, 0
3, 18720, Note_on_c, 1, 55, 84
3, 18720, Note_on_c, 1, 58, 71
3, 18787, Note_on_c, 1, 55, 0
3, 18789, Note_on_c, 1, 58, 0
3, 18792, Note_on_c, 1, 51, 78
3, 18804, Note_on_c, 1, 51, 0
3, 18816, Note_on_c, 1, 55, 82
3, 18816, Note_on_c, 1, 58, 70
3, 18834, Note_on_c, 1, 55, 0
3, 18835, Note_on_c, 1, 58, 0
3, 18864, Note_on_c, 1, 56, 79
3, 18864, Note_on_c, 1, 60, 78
3, 18883, Note_on_c, 1, 56, 0
3, 18886, Note_on_c, 1, 60, 0
3, 18912, Note_on_c, 1, 55, 84
3, 18912, Note_on_c, 1, 58, 71
3, 18981, Note_on_c, 1, 55, 0
3, 18982, Note_on_c, 1, 58, 0
3, 18984, Note_on_c, 1, 51, 72
3, 18994, Note_on_c, 1, 51, 0
3, 19008, Note_on_c, 1, 55, 77
3, 19008, Note_on_c, 1, 58, 72
3, 19029, Note_on_c, 1, 55, 0
3, 19031, Note_on_c, 1, 58, 0
3, 19056, Note_on_c, 1, 51, 63
3, 19056, Note_on_c, 1, 55, 81
3, 19075, Note_on_c, 1, 51, 0
3, 19077, Note_on_c, 1, 55, 0
3, 19104, Note_on_c, 1, 55, 77
3, 19104, Note_on_c, 1, 59, 75
3, 19166, Note_on_c, 1, 59, 0
3, 19169, Note_on_c, 1, 55, 0
3, 19176, Note_on_c, 1, 51, 62
3, 19176, Note_on_c, 1, 55, 71
3, 19187, Note_on_c, 1, 51, 0
3, 19192, Note_on_c, 1, 55, 0
3, 19200, Note_on_c, 1, 55, 80
3, 19200, Note_on_c, 1, 59, 75
3, 19222, Note_on_c, 1, 55, 0
3, 19224, Note_on_c, 1, 59, 0
3, 19248, Note_on_c, 1, 51, 67
3, 19248, Note_on_c, 1, 55, 83
3, 19266, Note_on_c, 1, 55, 0
3, 19267, Note_on_c, 1, 51, 0
3, 19296, Note_on_c, 1, 56, 76
3, 19296, Note_on_c, 1, 60, 71
3, 19364, Note_on_c, 1, 56, 0
3, 19367, Note_on_c, 1, 60, 0
3, 19368, Note_on_c, 1, 51, 77
3, 19382, Note_on_c, 1, 51, 0
3, 19392, Note_on_c, 1, 56, 72
3, 19392, Note_on_c, 1, 60, 71
3, 19414, Note_on_c, 1, 56, 0
3, 19415, Note_on_c, 1, 60, 0
3, 19440, Note_on_c, 1, 51, 76
3, 19440, Note_on_c, 1, 56, 69
3, 19454, Note_on_c, 1, 51, 0
3, 19455, Note_on_c, 1, 56, 0
3, 19488, Note_on_c, 1, 57, 82
3, 19488, Note_on_c, 1, 60, 76
3, 19547, Note_on_c, 1, 57, 0
3, 19548, Note_on_c, 1, 60, 0
3, 19560, Note_on_c, 1, 51, 72
3, 19560, Note_on_c, 1, 57, 75
3, 19573, Note_on_c, 1, 51, 0
3, 19576, Note_on_c, 1, 57, 0
3, 19584, Note_on_c, 1, 57, 80
3, 19584, Note_on_c, 1, 60, 77
3, 19601, Note_on_c, 1, 57, 0
3, 19607, Note_on_c, 1, 60, 0
3, 19632, Note_on_c, 1, 51, 72
3, 19632, Note_on_c, 1, 57, 75
3, 19647, Note_on_c, 1, 51, 0
3, 19649, Note_on_c, 1, 57, 0
3, 19680, Note_on_c, 1, 51, 77
3, 19680, Note_on_c, 1, 55, 86
3, 19734, Note_on_c, 1, 51, 0
3, 19752, Note_on_c, 1, 51, 63
3, 19756, Note_on_c, 1, 55, 0
3, 19762, Note_on_c, 1, 51, 0
3, 19776, Note_on_c, 1, 55, 85
3, 19776, Note_on_c, 1, 58, 68
3, 19793, Note_on_c, 1, 55, 0
3, 19794, Note_on_c, 1, 58, 0
3, 19824, Note_on_c, 1, 51, 73
3, 19824, Note_on_c, 1, 55, 83
3, 19842, Note_on_c, 1, 51, 0
3, 19843, Note_on_c, 1, 55, 0
3, 19896, Note_on_c, 1, 58, 71
3, 19896, Note_on_c, 1, 53, 73
3, 19896, Note_on_c, 1, 62, 86
3, 19944, Note_on_c, 1, 53, 0
3, 19963, Note_on_c, 1, 58, 0
3, 19966, Note_on_c, 1, 62, 0
3, 19968, Note_on_c, 1, 53, 73
3, 19979, Note_on_c, 1, 53, 0
3, 19992, Note_on_c, 1, 51, 80
3, 19992, Note_on_c, 1, 56, 71
3, 19992, Note_on_c, 1, 60, 81
3, 20027, Note_on_c, 1, 56, 0
3, 20028, Note_on_c, 1, 51, 0
3, 20029, Note_on_c, 1, 60, 0
3, 20040, Note_on_c, 1, 51, 68
3, 20040, Note_on_c, 1, 56, 72
3, 20059, Note_on_c, 1, 51, 0
3, 20059, Note_on_c, 1, 56, 0
3, 20088, Note_on_c, 1, 55, 81
3, 20088, Note_on_c, 1, 58, 69
3, 20136, Note_on_c, 1, 55, 0
3, 20136, Note_on_c, 1, 51, 73
3, 20140, Note_on_c, 1, 58, 0
3, 20148, Note_on_c, 1, 51, 0
3, 20160, Note_on_c, 1, 55, 84
3, 20160, Note_on_c, 1, 58, 72
3, 20179, Note_on_c, 1, 55, 0
3, 20179, Note_on_c, 1, 58, 0
3, 20208, Note_on_c, 1, 56, 77
3, 20208, Note_on_c, 1, 60, 80
3, 20224, Note_on_c, 1, 56, 0
3, 20231, Note_on_c, 1, 60, 0
3, 20256, Note_on_c, 1, 55, 85
3, 20256, Note_on_c, 1, 58, 72
3, 20321, Note_on_c, 1, 55, 0
3, 20325, Note_on_c, 1, 58, 0
3, 20328, Note_on_c, 1, 51, 77
3, 20340, Note_on_c, 1, 51, 0
3, 20352, Note_on_c, 1, 55, 87
3, 20352, Note_on_c, 1, 58, 72
3, 20372, Note_on_c, 1, 55, 0
3, 20373, Note_on_c, 1, 58, 0
3, 20400, Note_on_c, 1, 56, 77
3, 20400, Note_on_c, 1, 60, 77
3, 20421, Note_on_c, 1, 56, 0
3, 20425, Note_on_c, 1, 60, 0
3, 20448, Note_on_c, 1, 55, 81
3, 20448, Note_on_c, 1, 58, 75
3, 20464, Note_on_c, 1, 55, 0
3, 20466, Note_on_c, 1, 58, 0
3, 20472, Note_on_c, 1, 63, 81
3, 20473, Note_on_c, 1, 60, 84
3, 20473, Note_on_c, 1, 68, 82
3, 20529, Note_on_c, 1, 60, 0
3, 20531, Note_on_c, 1, 68, 0
3, 20532, Note_on_c, 1, 63, 0
3, 20544, Note_on_c, 1, 61, 72
3, 20544, Note_on_c, 1, 65, 81
3, 20544, Note_on_c, 1, 68, 73
3, 20575, Note_on_c, 1, 68, 0
3, 20576, Note_on_c, 1, 65, 0
3, 20576, Note_on_c, 1, 61, 0
3, 20592, Note_on_c, 1, 61, 73
3, 20592, Note_on_c, 1, 65, 84
3, 20592, Note_on_c, 1, 68, 72
3, 20617, Note_on_c, 1, 68, 0
3, 20623, Note_on_c, 1, 61, 0
3, 20624, Note_on_c, 1, 65, 0
3, 20640, Note_on_c, 1, 63, 87
3, 20640, Note_on_c, 1, 60, 80
3, 20640, Note_on_c, 1, 68, 85
3, 20718, Note_on_c, 1, 60, 0
3, 20721, Note_on_c, 1, 68, 0
3, 20722, Note_on_c, 1, 63, 0
3, 20736, Note_on_c, 1, 61, 69
3, 20736, Note_on_c, 1, 65, 80
3, 20736, Note_on_c, 1, 68, 77
3, 20771, Note_on_c, 1, 68, 0
3, 20773, Note_on_c, 1, 61, 0
3, 20774, Note_on_c, 1, 65, 0
3, 20784, Note_on_c, 1, 60, 71
3, 20784, Note_on_c, 1, 63, 69
3, 20784, Note_on_c, 1, 68, 77
3, 20813, Note_on_c, 1, 68, 0
3, 20816, Note_on_c, 1, 60, 0
3, 20818, Note_on_c, 1, 63, 0
3, 20832, Note_on_c, 1, 58, 72
3, 20832, Note_on_c, 1, 63, 77
3, 20832, Note_on_c, 1, 67, 86
3, 20915, Note_on_c, 1, 67, 0
3, 20916, Note_on_c, 1, 58, 0
3, 20919, Note_on_c, 1, 63, 0
3, 20928, Note_on_c, 1, 60, 71
3, 20928, Note_on_c, 1, 63, 72
3, 20928, Note_on_c, 1, 68, 84
3, 20960, Note_on_c, 1, 60, 0
3, 20960, Note_on_c, 1, 68, 0
3, 20963, Note_on_c, 1, 63, 0
3, 20976, Note_on_c, 1, 60, 77
3, 20976, Note_on_c, 1, 63, 77
3, 20976, Note_on_c, 1, 68, 76
3, 21006, Note_on_c, 1, 68, 0
3, 21008, Note_on_c, 1, 60, 0
3, 21011, Note_on_c, 1, 63, 0
3, 21024, Note_on_c, 1, 58, 78
3, 21024, Note_on_c, 1, 63, 77
3, 21024, Note_on_c, 1, 67, 85
3, 21099, Note_on_c, 1, 67, 0
3, 21101, Note_on_c, 1, 58, 0
3, 21104, Note_on_c, 1, 63, 0
3, 21120, Note_on_c, 1, 60, 73
3, 21120, Note_on_c, 1, 63, 71
3, 21120, Note_on_c, 1, 68, 80
3, 21150, Note_on_c, 1, 68, 0
3, 21154, Note_on_c, 1, 60, 0
3, 21157, Note_on_c, 1, 63, 0
3, 21168, Note_on_c, 1, 58, 73
3, 21168, Note_on_c, 1, 63, 72
3, 21168, Note_on_c, 1, 67, 82
3, 21200, Note_on_c, 1, 58, 0
3, 21201, Note_on_c, 1, 63, 0
3, 21201, Note_on_c, 1, 67, 0
3, 21216, Note_on_c, 1, 59, 79
3, 21216, Note_on_c, 1, 62, 75
3, 21216, Note_on_c, 1, 67, 83
3, 21382, Note_on_c, 1, 59, 0
3, 21384, Note_on_c, 1, 62, 0
3, 21385, Note_on_c, 1, 67, 0
3, 21408, Note_on_c, 1, 63, 82
3, 21408, Note_on_c, 1, 60, 80
3, 21408, Note_on_c, 1, 67, 81
3, 21421, Note_on_c, 1, 63, 0
3, 21423, Note_on_c, 1, 60, 0
3, 21423, Note_on_c, 1, 67, 0
3, 21456, Note_on_c, 1, 58, 77
3, 21456, Note_on_c, 1, 62, 89
3, 21457, Note_on_c, 1, 65, 80
3, 21472, Note_on_c, 1, 65, 0
3, 21473, Note_on_c, 1, 62, 0
3, 21475, Note_on_c, 1, 58, 0
3, 21504, Note_on_c, 1, 56, 80
3, 21504, Note_on_c, 1, 60, 89
3, 21504, Note_on_c, 1, 63, 69
3, 21602, Note_on_c, 1, 60, 0
3, 21604, Note_on_c, 1, 63, 0
3, 21605, Note_on_c, 1, 56, 0
3, 21624, Note_on_c, 1, 56, 77
3, 21624, Note_on_c, 1, 60, 87
3, 21624, Note_on_c, 1, 63, 69
3, 21704, Note_on_c, 1, 60, 0
3, 21705, Note_on_c, 1, 63, 0
3, 21707, Note_on_c, 1, 56, 0
3, 21720, Note_on_c, 1, 56, 77
3, 21720, Note_on_c, 1, 62, 81
3, 21720, Note_on_c, 1, 65, 77
3, 21795, Note_on_c, 1, 62, 0
3, 21796, Note_on_c, 1, 56, 0
3, 21797, Note_on_c, 1, 65, 0
3, 21816, Note_on_c, 1, 55, 81
3, 21816, Note_on_c, 1, 58, 79
3, 21816, Note_on_c, 1, 63, 81
3, 21968, Note_on_c, 1, 55, 0
3, 21969, Note_on_c, 1, 58, 0
3, 21972, Note_on_c, 1, 63, 0
3, 22008, Note_on_c, 1, 68, 76
3, 22009, Note_on_c, 1, 60, 79
3, 22009, Note_on_c, 1, 63, 79
3, 22063, Note_on_c, 1, 60, 0
3, 22065, Note_on_c, 1, 63, 0
3, 22066, Note_on_c, 1, 68, 0
3, 22080, Note_on_c, 1, 65, 81
3, 22080, Note_on_c, 1, 61, 69
3, 22080, Note_on_c, 1, 68, 72
3, 22114, Note_on_c, 1, 61, 0
3, 22115, Note_on_c, 1, 68, 0
3, 22116, Note_on_c, 1, 65, 0
3, 22128, Note_on_c, 1, 61, 75
3, 22128, Note_on_c, 1, 65, 84
3, 22128, Note_on_c, 1, 68, 76
3, 22155, Note_on_c, 1, 68, 0
3, 22160, Note_on_c, 1, 61, 0
3, 22163, Note_on_c, 1, 65, 0
3, 22176, Note_on_c, 1, 60, 75
3, 22176, Note_on_c, 1, 63, 76
3, 22176, Note_on_c, 1, 68, 81
3, 22255, Note_on_c, 1, 60, 0
3, 22257, Note_on_c, 1, 68, 0
3, 22259, Note_on_c, 1, 63, 0
3, 22272, Note_on_c, 1, 61, 67
3, 22272, Note_on_c, 1, 65, 77
3, 22272, Note_on_c, 1, 68, 74
3, 22305, Note_on_c, 1, 68, 0
3, 22306, Note_on_c, 1, 61, 0
3, 22308, Note_on_c, 1, 65, 0
3, 22320, Note_on_c, 1, 63, 71
3, 22320, Note_on_c, 1, 60, 72
3, 22320, Note_on_c, 1, 68, 78
3, 22351, Note_on_c, 1, 68, 0
3, 22352, Note_on_c, 1, 60, 0
3, 22356, Note_on_c, 1, 63, 0
3, 22368, Note_on_c, 1, 63, 75
3, 22368, Note_on_c, 1, 58, 80
3, 22368, Note_on_c, 1, 67, 87
3, 22446, Note_on_c, 1, 58, 0
3, 22447, Note_on_c, 1, 67, 0
3, 22451, Note_on_c, 1, 63, 0
3, 22464, Note_on_c, 1, 63, 76
3, 22464, Note_on_c, 1, 60, 68
3, 22464, Note_on_c, 1, 68, 81
3, 22495, Note_on_c, 1, 60, 0
3, 22496, Note_on_c, 1, 68, 0
3, 22500, Note_on_c, 1, 63, 0
3, 22512, Note_on_c, 1, 63, 77
3, 22512, Note_on_c, 1, 60, 77
3, 22512, Note_on_c, 1, 68, 74
3, 22541, Note_on_c, 1, 68, 0
3, 22542, Note_on_c, 1, 60, 0
3, 22546, Note_on_c, 1, 63, 0
3, 22560, Note_on_c, 1, 58, 73
3, 22560, Note_on_c, 1, 63, 72
3, 22560, Note_on_c, 1, 67, 83
3, 22639, Note_on_c, 1, 67, 0
3, 22642, Note_on_c, 1, 58, 0
3, 22644, Note_on_c, 1, 63, 0
3, 22656, Note_on_c, 1, 60, 75
3, 22656, Note_on_c, 1, 63, 75
3, 22656, Note_on_c, 1, 68, 77
3, 22684, Note_on_c, 1, 68, 0
3, 22686, Note_on_c, 1, 60, 0
3, 22691, Note_on_c, 1, 63, 0
3, 22704, Note_on_c, 1, 58, 74
3, 22704, Note_on_c, 1, 63, 72
3, 22704, Note_on_c, 1, 67, 82
3, 22733, Note_on_c, 1, 58, 0
3, 22733, Note_on_c, 1, 67, 0
3, 22735, Note_on_c, 1, 63, 0
3, 22752, Note_on_c, 1, 59, 82
3, 22752, Note_on_c, 1, 62, 101
3, 22752, Note_on_c, 1, 67, 91
3, 22924, Note_on_c, 1, 62, 0
3, 22925, Note_on_c, 1, 59, 0
3, 22926, Note_on_c, 1, 67, 0
3, 22944, Note_on_c, 1, 60, 81
3, 22944, Note_on_c, 1, 63, 82
3, 22945, Note_on_c, 1, 67, 82
3, 22957, Note_on_c, 1, 67, 0
3, 22961, Note_on_c, 1, 63, 0
3, 22961, Note_on_c, 1, 60, 0
3, 22992, Note_on_c, 1, 62, 83
3, 22993, Note_on_c, 1, 58, 74
3, 22993, Note_on_c, 1, 65, 77
3, 23010, Note_on_c, 1, 65, 0
3, 23012, Note_on_c, 1, 62, 0
3, 23013, Note_on_c, 1, 58, 0
3, 23040, Note_on_c, 1, 56, 81
3, 23041, Note_on_c, 1, 60, 86
3, 23041, Note_on_c, 1, 63, 72
3, 23140, Note_on_c, 1, 60, 0
3, 23140, Note_on_c, 1, 63, 0
3, 23141, Note_on_c, 1, 56, 0
3, 23160, Note_on_c, 1, 56, 75
3, 23160, Note_on_c, 1, 60, 83
3, 23160, Note_on_c, 1, 63, 65
3, 23240, Note_on_c, 1, 63, 0
3, 23241, Note_on_c, 1, 60, 0
3, 23242, Note_on_c, 1, 56, 0
3, 23256, Note_on_c, 1, 56, 78
3, 23256, Note_on_c, 1, 62, 84
3, 23257, Note_on_c, 1, 65, 85
3, 23343, Note_on_c, 1, 65, 0
3, 23344, Note_on_c, 1, 62, 0
3, 23345, Note_on_c, 1, 56, 0
3, 23352, Note_on_c, 1, 58, 77
3, 23352, Note_on_c, 1, 61, 80
3, 23352, Note_on_c, 1, 66, 82
3, 23527, Note_on_c, 1, 58, 0
3, 23527, Note_on_c, 1, 61, 0
3, 23530, Note_on_c, 1, 66, 0
3, 23544, Note_on_c, 1, 60, 85
3, 23544, Note_on_c, 1, 63, 91
3, 23544, Note_on_c, 1, 68, 82
3, 23729, Note_on_c, 1, 63, 0
3, 23730, Note_on_c, 1, 60, 0
3, 23730, Note_on_c, 1, 68, 0
3, 23736, Note_on_c, 1, 55, 90
3, 23737, Note_on_c, 1, 51, 82
3, 23737, Note_on_c, 1, 58, 77
3, 23787, Note_on_c, 1, 55, 0
3, 23790, Note_on_c, 1, 58, 0
3, 23795, Note_on_c, 1, 51, 0
3, 23808, Note_on_c, 1, 56, 73
3, 23808, Note_on_c, 1, 51, 73
3, 23808, Note_on_c, 1, 60, 75
3, 23828, Note_on_c, 1, 56, 0
3, 23830, Note_on_c, 1, 60, 0
3, 23831, Note_on_c, 1, 51, 0
3, 23856, Note_on_c, 1, 55, 81
3, 23856, Note_on_c, 1, 51, 72
3, 23856, Note_on_c, 1, 58, 73
3, 23876, Note_on_c, 1, 51, 0
3, 23876, Note_on_c, 1, 55, 0
3, 23878, Note_on_c, 1, 58, 0
3, 23904, Note_on_c, 1, 56, 75
3, 23904, Note_on_c, 1, 51, 77
3, 23904, Note_on_c, 1, 60, 75
3, 23939, Note_on_c, 1, 51, 0
3, 23940, Note_on_c, 1, 60, 0
3, 23944, Note_on_c, 1, 56, 0
3, 23952, Note_on_c, 1, 53, 76
3, 23952, Note_on_c, 1, 56, 74
3, 23952, Note_on_c, 1, 61, 78
3, 23963, Note_on_c, 1, 56, 0
3, 23965, Note_on_c, 1, 53, 0
3, 23966, Note_on_c, 1, 61, 0
3, 23976, Note_on_c, 1, 53, 75
3, 23976, Note_on_c, 1, 56, 72
3, 23976, Note_on_c, 1, 61, 72
3, 23988, Note_on_c, 1, 56, 0
3, 23989, Note_on_c, 1, 53, 0
3, 23989, Note_on_c, 1, 61, 0
3, 24000, Note_on_c, 1, 53, 77
3, 24000, Note_on_c, 1, 56, 77
3, 24000, Note_on_c, 1, 61, 77
3, 24010, Note_on_c, 1, 56, 0
3, 24011, Note_on_c, 1, 53, 0
3, 24011, Note_on_c, 1, 61, 0
3, 24024, Note_on_c, 1, 53, 73
3, 24024, Note_on_c, 1, 56, 67
3, 24024, Note_on_c, 1, 61, 72
3, 24036, Note_on_c, 1, 61, 0
3, 24037, Note_on_c, 1, 56, 0
3, 24037, Note_on_c, 1, 53, 0
3, 24048, Note_on_c, 1, 56, 77
3, 24048, Note_on_c, 1, 60, 81
3, 24049, Note_on_c, 1, 51, 81
3, 24081, Note_on_c, 1, 60, 0
3, 24084, Note_on_c, 1, 51, 0
3, 24085, Note_on_c, 1, 56, 0
3, 24096, Note_on_c, 1, 51, 85
3, 24097, Note_on_c, 1, 55, 92
3, 24097, Note_on_c, 1, 58, 72
3, 24178, Note_on_c, 1, 55, 0
3, 24179, Note_on_c, 1, 58, 0
3, 24180, Note_on_c, 1, 51, 0
3, 24192, Note_on_c, 1, 51, 76
3, 24192, Note_on_c, 1, 56, 80
3, 24192, Note_on_c, 1, 60, 81
3, 24225, Note_on_c, 1, 60, 0
3, 24229, Note_on_c, 1, 56, 0
3, 24230, Note_on_c, 1, 51, 0
3, 24240, Note_on_c, 1, 55, 87
3, 24240, Note_on_c, 1, 51, 80
3, 24240, Note_on_c, 1, 58, 69
3, 24277, Note_on_c, 1, 51, 0
3, 24279, Note_on_c, 1, 55, 0
3, 24281, Note_on_c, 1, 58, 0
3, 24288, Note_on_c, 1, 56, 74
3, 24288, Note_on_c, 1, 51, 76
3, 24288, Note_on_c, 1, 60, 81
3, 24322, Note_on_c, 1, 51, 0
3, 24325, Note_on_c, 1, 60, 0
3, 24327, Note_on_c, 1, 56, 0
3, 24336, Note_on_c, 1, 53, 81
3, 24336, Note_on_c, 1, 56, 73
3, 24337, Note_on_c, 1, 61, 78
3, 24343, Note_on_c, 1, 56, 0
3, 24346, Note_on_c, 1, 53, 0
3, 24348, Note_on_c, 1, 61, 0
3, 24360, Note_on_c, 1, 53, 75
3, 24361, Note_on_c, 1, 56, 72
3, 24361, Note_on_c, 1, 61, 72
3, 24370, Note_on_c, 1, 56, 0
3, 24372, Note_on_c, 1, 53, 0
3, 24373, Note_on_c, 1, 61, 0
3, 24384, Note_on_c, 1, 56, 77
3, 24385, Note_on_c, 1, 53, 76
3, 24385, Note_on_c, 1, 61, 73
3, 24394, Note_on_c, 1, 53, 0
3, 24394, Note_on_c, 1, 56, 0
3, 24394, Note_on_c, 1, 61, 0
3, 24408, Note_on_c, 1, 53, 75
3, 24408, Note_on_c, 1, 56, 72
3, 24408, Note_on_c, 1, 61, 77
3, 24419, Note_on_c, 1, 53, 0
3, 24419, Note_on_c, 1, 61, 0
3, 24421, Note_on_c, 1, 56, 0
3, 24432, Note_on_c, 1, 51, 81
3, 24432, Note_on_c, 1, 56, 78
3, 24433, Note_on_c, 1, 60, 77
3, 24468, Note_on_c, 1, 60, 0
3, 24471, Note_on_c, 1, 51, 0
3, 24473, Note_on_c, 1, 56, 0
3, 24480, Note_on_c, 1, 51, 78
3, 24480, Note_on_c, 1, 55, 91
3, 24480, Note_on_c, 1, 58, 77
3, 24563, Note_on_c, 1, 55, 0
3, 24564, Note_on_c, 1, 51, 0
3, 24564, Note_on_c, 1, 58, 0
3, 24576, Note_on_c, 1, 51, 77
3, 24576, Note_on_c, 1, 56, 79
3, 24576, Note_on_c, 1, 60, 81
3, 24610, Note_on_c, 1, 60, 0
3, 24612, Note_on_c, 1, 51, 0
3, 24614, Note_on_c, 1, 56, 0
3, 24624, Note_on_c, 1, 51, 74
3, 24624, Note_on_c, 1, 55, 81
3, 24624, Note_on_c, 1, 58, 70
3, 24660, Note_on_c, 1, 51, 0
3, 24660, Note_on_c, 1, 55, 0
3, 24664, Note_on_c, 1, 58, 0
3, 24672, Note_on_c, 1, 56, 79
3, 24672, Note_on_c, 1, 51, 82
3, 24672, Note_on_c, 1, 60, 81
3, 24708, Note_on_c, 1, 51, 0
3, 24713, Note_on_c, 1, 56, 0
3, 24716, Note_on_c, 1, 60, 0
3, 24720, Note_on_c, 1, 54, 68
3, 24720, Note_on_c, 1, 56, 72
3, 24720, Note_on_c, 1, 53, 77
3, 24720, Note_on_c, 1, 61, 75
3, 24723, Note_on_c, 1, 54, 0
3, 24729, Note_on_c, 1, 53, 0
3, 24731, Note_on_c, 1, 56, 0
3, 24732, Note_on_c, 1, 61, 0
3, 24744, Note_on_c, 1, 53, 77
3, 24744, Note_on_c, 1, 56, 77
3, 24745, Note_on_c, 1, 61, 73
3, 24754, Note_on_c, 1, 56, 0
3, 24755, Note_on_c, 1, 53, 0
3, 24756, Note_on_c, 1, 61, 0
3, 24768, Note_on_c, 1, 53, 72
3, 24768, Note_on_c, 1, 56, 66
3, 24768, Note_on_c, 1, 61, 72
3, 24779, Note_on_c, 1, 56, 0
3, 24780, Note_on_c, 1, 53, 0
3, 24781, Note_on_c, 1, 61, 0
3, 24792, Note_on_c, 1, 53, 75
3, 24792, Note_on_c, 1, 56, 72
3, 24792, Note_on_c, 1, 61, 74
3, 24804, Note_on_c, 1, 53, 0
3, 24804, Note_on_c, 1, 61, 0
3, 24805, Note_on_c, 1, 56, 0
3, 24816, Note_on_c, 1, 51, 84
3, 24816, Note_on_c, 1, 56, 77
3, 24816, Note_on_c, 1, 60, 81
3, 24852, Note_on_c, 1, 60, 0
3, 24855, Note_on_c, 1, 56, 0
3, 24855, Note_on_c, 1, 51, 0
3, 24864, Note_on_c, 1, 51, 72
3, 24864, Note_on_c, 1, 55, 88
3, 24864, Note_on_c, 1, 58, 81
3, 24948, Note_on_c, 1, 51, 0
3, 24948, Note_on_c, 1, 55, 0
3, 24951, Note_on_c, 1, 58, 0
3, 24960, Note_on_c, 1, 56, 80
3, 24960, Note_on_c, 1, 60, 83
3, 24961, Note_on_c, 1, 51, 77
3, 24996, Note_on_c, 1, 60, 0
3, 24998, Note_on_c, 1, 51, 0
3, 25000, Note_on_c, 1, 56, 0
3, 25008, Note_on_c, 1, 51, 72
3, 25008, Note_on_c, 1, 55, 83
3, 25008, Note_on_c, 1, 58, 70
3, 25044, Note_on_c, 1, 51, 0
3, 25044, Note_on_c, 1, 55, 0
3, 25047, Note_on_c, 1, 58, 0
3, 25056, Note_on_c, 1, 51, 72
3, 25056, Note_on_c, 1, 56, 73
3, 25056, Note_on_c, 1, 60, 78
3, 25092, Note_on_c, 1, 51, 0
3, 25094, Note_on_c, 1, 56, 0
3, 25095, Note_on_c, 1, 60, 0
3, 25104, Note_on_c, 1, 53, 80
3, 25104, Note_on_c, 1, 56, 79
3, 25104, Note_on_c, 1, 61, 77
3, 25114, Note_on_c, 1, 53, 0
3, 25115, Note_on_c, 1, 56, 0
3, 25117, Note_on_c, 1, 61, 0
3, 25128, Note_on_c, 1, 53, 80
3, 25128, Note_on_c, 1, 56, 77
3, 25129, Note_on_c, 1, 61, 76
3, 25139, Note_on_c, 1, 53, 0
3, 25140, Note_on_c, 1, 56, 0
3, 25141, Note_on_c, 1, 61, 0
3, 25152, Note_on_c, 1, 53, 73
3, 25152, Note_on_c, 1, 56, 75
3, 25152, Note_on_c, 1, 61, 70
3, 25164, Note_on_c, 1, 53, 0
3, 25164, Note_on_c, 1, 56, 0
3, 25164, Note_on_c, 1, 61, 0
3, 25176, Note_on_c, 1, 53, 71
3, 25176, Note_on_c, 1, 56, 70
3, 25176, Note_on_c, 1, 61, 74
3, 25188, Note_on_c, 1, 53, 0
3, 25188, Note_on_c, 1, 61, 0
3, 25190, Note_on_c, 1, 56, 0
3, 25200, Note_on_c, 1, 51, 86
3, 25200, Note_on_c, 1, 56, 81
3, 25200, Note_on_c, 1, 60, 81
3, 25256, Note_on_c, 1, 51, 0
3, 25256, Note_on_c, 1, 56, 0
3, 25256, Note_on_c, 1, 60, 0
3, 25272, Note_on_c, 1, 51, 82
3, 25272, Note_on_c, 1, 55, 90
3, 25272, Note_on_c, 1, 58, 77
3, 25323, Note_on_c, 1, 55, 0
3, 25325, Note_on_c, 1, 58, 0
3, 25332, Note_on_c, 1, 51, 0
3, 25344, Note_on_c, 1, 56, 73
3, 25344, Note_on_c, 1, 51, 73
3, 25344, Note_on_c, 1, 60, 75
3, 25364, Note_on_c, 1, 56, 0
3, 25366, Note_on_c, 1, 60, 0
3, 25367, Note_on_c, 1, 51, 0
3, 25392, Note_on_c, 1, 55, 81
3, 25392, Note_on_c, 1, 51, 72
3, 25392, Note_on_c, 1, 58, 73
3, 25412, Note_on_c, 1, 51, 0
3, 25412, Note_on_c, 1, 55, 0
3, 25414, Note_on_c, 1, 58, 0
3, 25440, Note_on_c, 1, 56, 75
3, 25440, Note_on_c, 1, 51, 77
3, 25440, Note_on_c, 1, 60, 75
3, 25475, Note_on_c, 1, 51, 0
3, 25476, Note_on_c, 1, 60, 0
3, 25480, Note_on_c, 1, 56, 0
3, 25488, Note_on_c, 1, 53, 76
3, 25488, Note_on_c, 1, 56, 74
3, 25488, Note_on_c, 1, 61, 78
3, 25499, Note_on_c, 1, 56, 0
3, 25501, Note_on_c, 1, 53, 0
3, 25502, Note_on_c, 1, 61, 0
3, 25512, Note_on_c, 1, 53, 75
3, 25512, Note_on_c, 1, 56, 72
3, 25513, Note_on_c, 1, 61, 72
3, 25524, Note_on_c, 1, 56, 0
3, 25525, Note_on_c, 1, 53, 0
3, 25525, Note_on_c, 1, 61, 0
3, 25536, Note_on_c, 1, 53, 77
3, 25536, Note_on_c, 1, 56, 77
3, 25536, Note_on_c, 1, 61, 77
3, 25546, Note_on_c, 1, 56, 0
3, 25547, Note_on_c, 1, 53, 0
3, 25547, Note_on_c, 1, 61, 0
3, 25560, Note_on_c, 1, 53, 73
3, 25560, Note_on_c, 1, 56, 67
3, 25560, Note_on_c, 1, 61, 72
3, 25572, Note_on_c, 1, 61, 0
3, 25573, Note_on_c, 1, 56, 0
3, 25573, Note_on_c, 1, 53, 0
3, 25584, Note_on_c, 1, 56, 77
3, 25584, Note_on_c, 1, 51, 81
3, 25584, Note_on_c, 1, 60, 81
3, 25618, Note_on_c, 1, 60, 0
3, 25619, Note_on_c, 1, 51, 0
3, 25621, Note_on_c, 1, 56, 0
3, 25632, Note_on_c, 1, 51, 85
3, 25632, Note_on_c, 1, 55, 92
3, 25632, Note_on_c, 1, 58, 72
3, 25714, Note_on_c, 1, 55, 0
3, 25715, Note_on_c, 1, 58, 0
3, 25716, Note_on_c, 1, 51, 0
3, 25728, Note_on_c, 1, 51, 76
3, 25728, Note_on_c, 1, 56, 80
3, 25728, Note_on_c, 1, 60, 81
3, 25761, Note_on_c, 1, 60, 0
3, 25765, Note_on_c, 1, 56, 0
3, 25766, Note_on_c, 1, 51, 0
3, 25776, Note_on_c, 1, 55, 87
3, 25776, Note_on_c, 1, 51, 80
3, 25776, Note_on_c, 1, 58, 69
3, 25813, Note_on_c, 1, 51, 0
3, 25815, Note_on_c, 1, 55, 0
3, 25817, Note_on_c, 1, 58, 0
3, 25824, Note_on_c, 1, 56, 74
3, 25824, Note_on_c, 1, 51, 76
3, 25824, Note_on_c, 1, 60, 81
3, 25858, Note_on_c, 1, 51, 0
3, 25861, Note_on_c, 1, 60, 0
3, 25863, Note_on_c, 1, 56, 0
3, 25872, Note_on_c, 1, 53, 81
3, 25872, Note_on_c, 1, 56, 73
3, 25872, Note_on_c, 1, 61, 78
3, 25880, Note_on_c, 1, 56, 0
3, 25882, Note_on_c, 1, 53, 0
3, 25884, Note_on_c, 1, 61, 0
3, 25896, Note_on_c, 1, 53, 75
3, 25896, Note_on_c, 1, 61, 72
3, 25897, Note_on_c, 1, 56, 72
3, 25906, Note_on_c, 1, 56, 0
3, 25908, Note_on_c, 1, 53, 0
3, 25909, Note_on_c, 1, 61, 0
3, 25920, Note_on_c, 1, 56, 77
3, 25921, Note_on_c, 1, 53, 76
3, 25921, Note_on_c, 1, 61, 73
3, 25930, Note_on_c, 1, 53, 0
3, 25930, Note_on_c, 1, 56, 0
3, 25930, Note_on_c, 1, 61, 0
3, 25944, Note_on_c, 1, 53, 75
3, 25944, Note_on_c, 1, 56, 72
3, 25944, Note_on_c, 1, 61, 77
3, 25955, Note_on_c, 1, 53, 0
3, 25955, Note_on_c, 1, 61, 0
3, 25957, Note_on_c, 1, 56, 0
3, 25968, Note_on_c, 1, 51, 81
3, 25968, Note_on_c, 1, 56, 78
3, 25968, Note_on_c, 1, 60, 77
3, 26004, Note_on_c, 1, 60, 0
3, 26007, Note_on_c, 1, 51, 0
3, 26009, Note_on_c, 1, 56, 0
3, 26016, Note_on_c, 1, 51, 78
3, 26016, Note_on_c, 1, 55, 91
3, 26016, Note_on_c, 1, 58, 77
3, 26099, Note_on_c, 1, 55, 0
3, 26100, Note_on_c, 1, 51, 0
3, 26100, Note_on_c, 1, 58, 0
3, 26112, Note_on_c, 1, 51, 77
3, 26112, Note_on_c, 1, 56, 79
3, 26112, Note_on_c, 1, 60, 81
3, 26146, Note_on_c, 1, 60, 0
3, 26148, Note_on_c, 1, 51, 0
3, 26150, Note_on_c, 1, 56, 0
3, 26160, Note_on_c, 1, 51, 74
3, 26160, Note_on_c, 1, 55, 81
3, 26160, Note_on_c, 1, 58, 70
3, 26196, Note_on_c, 1, 51, 0
3, 26196, Note_on_c, 1, 55, 0
3, 26200, Note_on_c, 1, 58, 0
3, 26208, Note_on_c, 1, 56, 79
3, 26208, Note_on_c, 1, 51, 82
3, 26208, Note_on_c, 1, 60, 81
3, 26244, Note_on_c, 1, 51, 0
3, 26249, Note_on_c, 1, 56, 0
3, 26252, Note_on_c, 1, 60, 0
3, 26256, Note_on_c, 1, 54, 68
3, 26256, Note_on_c, 1, 56, 72
3, 26256, Note_on_c, 1, 53, 77
3, 26256, Note_on_c, 1, 61, 75
3, 26260, Note_on_c, 1, 54, 0
3, 26265, Note_on_c, 1, 53, 0
3, 26266, Note_on_c, 1, 56, 0
3, 26268, Note_on_c, 1, 61, 0
3, 26280, Note_on_c, 1, 53, 77
3, 26280, Note_on_c, 1, 56, 77
3, 26281, Note_on_c, 1, 61, 73
3, 26290, Note_on_c, 1, 56, 0
3, 26291, Note_on_c, 1, 53, 0
3, 26292, Note_on_c, 1, 61, 0
3, 26304, Note_on_c, 1, 53, 72
3, 26304, Note_on_c, 1, 56, 66
3, 26304, Note_on_c, 1, 61, 72
3, 26315, Note_on_c, 1, 56, 0
3, 26316, Note_on_c, 1, 53, 0
3, 26317, Note_on_c, 1, 61, 0
3, 26328, Note_on_c, 1, 53, 75
3, 26328, Note_on_c, 1, 56, 72
3, 26328, Note_on_c, 1, 61, 74
3, 26340, Note_on_c, 1, 53, 0
3, 26340, Note_on_c, 1, 61, 0
3, 26341, Note_on_c, 1, 56, 0
3, 26352, Note_on_c, 1, 51, 84
3, 26352, Note_on_c, 1, 56, 77
3, 26353, Note_on_c, 1, 60, 81
3, 26387, Note_on_c, 1, 60, 0
3, 26391, Note_on_c, 1, 56, 0
3, 26391, Note_on_c, 1, 51, 0
3, 26400, Note_on_c, 1, 51, 72
3, 26400, Note_on_c, 1, 55, 88
3, 26400, Note_on_c, 1, 58, 81
3, 26484, Note_on_c, 1, 51, 0
3, 26484, Note_on_c, 1, 55, 0
3, 26487, Note_on_c, 1, 58, 0
3, 26496, Note_on_c, 1, 56, 80
3, 26496, Note_on_c, 1, 51, 77
3, 26496, Note_on_c, 1, 60, 83
3, 26531, Note_on_c, 1, 60, 0
3, 26534, Note_on_c, 1, 51, 0
3, 26536, Note_on_c, 1, 56, 0
3, 26544, Note_on_c, 1, 51, 72
3, 26544, Note_on_c, 1, 55, 83
3, 26544, Note_on_c, 1, 58, 70
3, 26580, Note_on_c, 1, 51, 0
3, 26580, Note_on_c, 1, 55, 0
3, 26583, Note_on_c, 1, 58, 0
3, 26592, Note_on_c, 1, 51, 72
3, 26592, Note_on_c, 1, 56, 73
3, 26592, Note_on_c, 1, 60, 78
3, 26628, Note_on_c, 1, 51, 0
3, 26630, Note_on_c, 1, 56, 0
3, 26631, Note_on_c, 1, 60, 0
3, 26640, Note_on_c, 1, 53, 80
3, 26640, Note_on_c, 1, 56, 79
3, 26640, Note_on_c, 1, 61, 77
3, 26650, Note_on_c, 1, 53, 0
3, 26651, Note_on_c, 1, 56, 0
3, 26654, Note_on_c, 1, 61, 0
3, 26664, Note_on_c, 1, 56, 77
3, 26665, Note_on_c, 1, 53, 80
3, 26665, Note_on_c, 1, 61, 76
3, 26675, Note_on_c, 1, 53, 0
3, 26676, Note_on_c, 1, 56, 0
3, 26676, Note_on_c, 1, 61, 0
3, 26688, Note_on_c, 1, 53, 73
3, 26688, Note_on_c, 1, 56, 75
3, 26688, Note_on_c, 1, 61, 70
3, 26700, Note_on_c, 1, 53, 0
3, 26700, Note_on_c, 1, 56, 0
3, 26700, Note_on_c, 1, 61, 0
3, 26712, Note_on_c, 1, 53, 71
3, 26712, Note_on_c, 1, 56, 70
3, 26712, Note_on_c, 1, 61, 74
3, 26724, Note_on_c, 1, 53, 0
3, 26724, Note_on_c, 1, 61, 0
3, 26726, Note_on_c, 1, 56, 0
3, 26736, Note_on_c, 1, 51, 86
3, 26736, Note_on_c, 1, 56, 81
3, 26736, Note_on_c, 1, 60, 81
3, 26792, Note_on_c, 1, 51, 0
3, 26792, Note_on_c, 1, 56, 0
3, 26792, Note_on_c, 1, 60, 0
3, 26808, Note_on_c, 1, 58, 77
3, 26808, Note_on_c, 1, 61, 80
3, 26808, Note_on_c, 1, 66, 82
3, 26983, Note_on_c, 1, 58, 0
3, 26983, Note_on_c, 1, 61, 0
3, 26986, Note_on_c, 1, 66, 0
3, 27000, Note_on_c, 1, 60, 85
3, 27000, Note_on_c, 1, 63, 91
3, 27000, Note_on_c, 1, 68, 82
3, 27185, Note_on_c, 1, 63, 0
3, 27185, Note_on_c, 1, 68, 0
3, 27186, Note_on_c, 1, 60, 0
3, 27192, Note_on_c, 1, 67, 89
3, 27192, Note_on_c, 1, 70, 90
3, 27193, Note_on_c, 1, 75, 81
3, 27241, Note_on_c, 1, 67, 0
3, 27241, Note_on_c, 1, 75, 0
3, 27242, Note_on_c, 1, 70, 0
3, 27242, End_track
4, 0, Start_track
4, 0, Title_t, "Echo Pan"
4, 0, Control_c, 2, 7, 96
4, 0, Pitch_bend_c, 2, 8192
4, 0, Control_c, 2, 1, 0
4, 0, Program_c, 2, 43
4, 0, Control_c, 2, 64, 0
4, 0, Control_c, 2, 10, 64
4, 1656, Note_on_c, 2, 63, 23
4, 1656, Note_on_c, 2, 67, 34
4, 1656, Note_on_c, 2, 70, 29
4, 1669, Note_on_c, 2, 63, 0
4, 1670, Note_on_c, 2, 67, 0
4, 1670, Note_on_c, 2, 70, 0
4, 1680, Note_on_c, 2, 63, 22
4, 1680, Note_on_c, 2, 67, 33
4, 1680, Note_on_c, 2, 70, 32
4, 1694, Note_on_c, 2, 63, 0
4, 1695, Note_on_c, 2, 70, 0
4, 1696, Note_on_c, 2, 67, 0
4, 1704, Note_on_c, 2, 63, 87
4, 1704, Note_on_c, 2, 67, 101
4, 1704, Note_on_c, 2, 70, 95
4, 1717, Note_on_c, 2, 63, 0
4, 1718, Note_on_c, 2, 67, 0
4, 1718, Note_on_c, 2, 70, 0
4, 1728, Note_on_c, 2, 67, 32
4, 1729, Note_on_c, 2, 63, 21
4, 1729, Note_on_c, 2, 70, 32
4, 1738, Note_on_c, 2, 63, 0
4, 1740, Note_on_c, 2, 67, 0
4, 1741, Note_on_c, 2, 70, 0
4, 1752, Note_on_c, 2, 63, 25
4, 1752, Note_on_c, 2, 67, 37
4, 1752, Note_on_c, 2, 70, 31
4, 1764, Note_on_c, 2, 63, 0
4, 1765, Note_on_c, 2, 67, 0
4, 1765, Note_on_c, 2, 70, 0
4, 1776, Note_on_c, 2, 63, 93
4, 1776, Note_on_c, 2, 67, 102
4, 1776, Note_on_c, 2, 70, 92
4, 1792, Note_on_c, 2, 63, 0
4, 1793, Note_on_c, 2, 67, 0
4, 1794, Note_on_c, 2, 70, 0
4, 1800, Note_on_c, 2, 67, 35
4, 1800, Note_on_c, 2, 70, 31
4, 1813, Note_on_c, 2, 70, 0
4, 1814, Note_on_c, 2, 67, 0
4, 1872, Note_on_c, 2, 67, 39
4, 1872, Note_on_c, 2, 71, 31
4, 1885, Note_on_c, 2, 67, 0
4, 1886, Note_on_c, 2, 71, 0
4, 1896, Note_on_c, 2, 67, 95
4, 1896, Note_on_c, 2, 71, 93
4, 1897, Note_on_c, 2, 63, 89
4, 1914, Note_on_c, 2, 63, 0
4, 1914, Note_on_c, 2, 71, 0
4, 1915, Note_on_c, 2, 67, 0
4, 1920, Note_on_c, 2, 67, 35
4, 1920, Note_on_c, 2, 71, 28
4, 1932, Note_on_c, 2, 67, 0
4, 1932, Note_on_c, 2, 71, 0
4, 1944, Note_on_c, 2, 67, 42
4, 1944, Note_on_c, 2, 71, 32
4, 1958, Note_on_c, 2, 67, 0
4, 1958, Note_on_c, 2, 71, 0
4, 1968, Note_on_c, 2, 63, 88
4, 1968, Note_on_c, 2, 67, 100
4, 1968, Note_on_c, 2, 71, 94
4, 1984, Note_on_c, 2, 63, 0
4, 1985, Note_on_c, 2, 71, 0
4, 1986, Note_on_c, 2, 67, 0
4, 1992, Note_on_c, 2, 67, 37
4, 1992, Note_on_c, 2, 71, 30
4, 2003, Note_on_c, 2, 67, 0
4, 2005, Note_on_c, 2, 71, 0
4, 2064, Note_on_c, 2, 68, 37
4, 2064, Note_on_c, 2, 72, 31
4, 2074, Note_on_c, 2, 72, 0
4, 2075, Note_on_c, 2, 68, 0
4, 2088, Note_on_c, 2, 68, 35
4, 2088, Note_on_c, 2, 72, 32
4, 2088, Note_on_c, 2, 63, 89
4, 2088, Note_on_c, 2, 72, 99
4, 2089, Note_on_c, 2, 68, 0
4, 2089, Note_on_c, 2, 72, 0
4, 2089, Note_on_c, 2, 68, 92
4, 2090, Note_on_c, 2, 68, 0
4, 2098, Note_on_c, 2, 63, 0
4, 2112, Note_on_c, 2, 67, 96
4, 2113, Note_on_c, 2, 70, 96
4, 2127, Note_on_c, 2, 67, 0
4, 2129, Note_on_c, 2, 70, 0
4, 2160, Note_on_c, 2, 65, 88
4, 2160, Note_on_c, 2, 68, 97
4, 2177, Note_on_c, 2, 65, 0
4, 2181, Note_on_c, 2, 68, 0
4, 2208, Note_on_c, 2, 63, 92
4, 2208, Note_on_c, 2, 67, 104
4, 2228, Note_on_c, 2, 67, 0
4, 2230, Note_on_c, 2, 63, 0
4, 2280, Note_on_c, 2, 63, 89
4, 2280, Note_on_c, 2, 67, 101
4, 2280, Note_on_c, 2, 70, 87
4, 2290, Note_on_c, 2, 63, 0
4, 2294, Note_on_c, 2, 67, 0
4, 2294, Note_on_c, 2, 70, 0
4, 2352, Note_on_c, 2, 63, 92
4, 2352, Note_on_c, 2, 67, 104
4, 2352, Note_on_c, 2, 70, 92
4, 2365, Note_on_c, 2, 63, 0
4, 2368, Note_on_c, 2, 67, 0
4, 2368, Note_on_c, 2, 70, 0
4, 2424, Note_on_c, 2, 70, 28
4, 2424, Note_on_c, 2, 74, 35
4, 2434, Note_on_c, 2, 70, 0
4, 2435, Note_on_c, 2, 74, 0
4, 2448, Note_on_c, 2, 70, 37
4, 2448, Note_on_c, 2, 74, 37
4, 2465, Note_on_c, 2, 74, 0
4, 2466, Note_on_c, 2, 70, 0
4, 2472, Note_on_c, 2, 65, 96
4, 2472, Note_on_c, 2, 70, 99
4, 2472, Note_on_c, 2, 74, 98
4, 2486, Note_on_c, 2, 70, 0
4, 2486, Note_on_c, 2, 74, 0
4, 2488, Note_on_c, 2, 65, 0
4, 2496, Note_on_c, 2, 70, 32
4, 2496, Note_on_c, 2, 74, 28
4, 2505, Note_on_c, 2, 70, 0
4, 2505, Note_on_c, 2, 74, 0
4, 2520, Note_on_c, 2, 70, 36
4, 2520, Note_on_c, 2, 74, 33
4, 2532, Note_on_c, 2, 70, 0
4, 2533, Note_on_c, 2, 74, 0
4, 2544, Note_on_c, 2, 65, 98
4, 2544, Note_on_c, 2, 70, 100
4, 2544, Note_on_c, 2, 74, 101
4, 2558, Note_on_c, 2, 74, 0
4, 2559, Note_on_c, 2, 70, 0
4, 2561, Note_on_c, 2, 65, 0
4, 2568, Note_on_c, 2, 70, 33
4, 2568, Note_on_c, 2, 74, 33
4, 2582, Note_on_c, 2, 70, 0
4, 2583, Note_on_c, 2, 74, 0
4, 2616, Note_on_c, 2, 68, 31
4, 2616, Note_on_c, 2, 72, 34
4, 2624, Note_on_c, 2, 68, 0
4, 2627, Note_on_c, 2, 72, 0
4, 2640, Note_on_c, 2, 68, 25
4, 2640, Note_on_c, 2, 72, 33
4, 2653, Note_on_c, 2, 68, 0
4, 2653, Note_on_c, 2, 72, 0
4, 2664, Note_on_c, 2, 63, 89
4, 2664, Note_on_c, 2, 68, 89
4, 2664, Note_on_c, 2, 72, 94
4, 2677, Note_on_c, 2, 63, 0
4, 2677, Note_on_c, 2, 68, 0
4, 2678, Note_on_c, 2, 72, 0
4, 2688, Note_on_c, 2, 68, 27
4, 2688, Note_on_c, 2, 72, 30
4, 2697, Note_on_c, 2, 68, 0
4, 2698, Note_on_c, 2, 72, 0
4, 2712, Note_on_c, 2, 68, 31
4, 2712, Note_on_c, 2, 72, 31
4, 2724, Note_on_c, 2, 68, 0
4, 2726, Note_on_c, 2, 72, 0
4, 2736, Note_on_c, 2, 68, 97
4, 2736, Note_on_c, 2, 63, 96
4, 2736, Note_on_c, 2, 72, 97
4, 2750, Note_on_c, 2, 63, 0
4, 2751, Note_on_c, 2, 68, 0
4, 2751, Note_on_c, 2, 72, 0
4, 2760, Note_on_c, 2, 68, 29
4, 2760, Note_on_c, 2, 72, 30
4, 2777, Note_on_c, 2, 68, 0
4, 2778, Note_on_c, 2, 72, 0
4, 2832, Note_on_c, 2, 67, 28
4, 2832, Note_on_c, 2, 70, 24
4, 2843, Note_on_c, 2, 67, 0
4, 2843, Note_on_c, 2, 70, 0
4, 2856, Note_on_c, 2, 63, 92
4, 2856, Note_on_c, 2, 67, 101
4, 2856, Note_on_c, 2, 70, 92
4, 2870, Note_on_c, 2, 63, 0
4, 2871, Note_on_c, 2, 67, 0
4, 2871, Note_on_c, 2, 70, 0
4, 2880, Note_on_c, 2, 67, 33
4, 2880, Note_on_c, 2, 70, 23
4, 2889, Note_on_c, 2, 67, 0
4, 2889, Note_on_c, 2, 70, 0
4, 2928, Note_on_c, 2, 63, 95
4, 2928, Note_on_c, 2, 68, 93
4, 2928, Note_on_c, 2, 72, 95
4, 2944, Note_on_c, 2, 68, 0
4, 2945, Note_on_c, 2, 72, 0
4, 2946, Note_on_c, 2, 63, 0
4, 2976, Note_on_c, 2, 63, 91
4, 2976, Note_on_c, 2, 67, 102
4, 2976, Note_on_c, 2, 70, 92
4, 2991, Note_on_c, 2, 63, 0
4, 2992, Note_on_c, 2, 67, 0
4, 2993, Note_on_c, 2, 70, 0
4, 3024, Note_on_c, 2, 67, 31
4, 3024, Note_on_c, 2, 70, 23
4, 3039, Note_on_c, 2, 67, 0
4, 3039, Note_on_c, 2, 70, 0
4, 3048, Note_on_c, 2, 63, 92
4, 3048, Note_on_c, 2, 67, 101
4, 3048, Note_on_c, 2, 70, 92
4, 3064, Note_on_c, 2, 63, 0
4, 3064, Note_on_c, 2, 67, 0
4, 3064, Note_on_c, 2, 70, 0
4, 3072, Note_on_c, 2, 67, 35
4, 3072, Note_on_c, 2, 70, 28
4, 3086, Note_on_c, 2, 67, 0
4, 3086, Note_on_c, 2, 70, 0
4, 3120, Note_on_c, 2, 63, 92
4, 3120, Note_on_c, 2, 68, 95
4, 3120, Note_on_c, 2, 72, 98
4, 3134, Note_on_c, 2, 72, 0
4, 3135, Note_on_c, 2, 68, 0
4, 3136, Note_on_c, 2, 63, 0
4, 3168, Note_on_c, 2, 67, 109
4, 3168, Note_on_c, 2, 63, 92
4, 3168, Note_on_c, 2, 70, 91
4, 3183, Note_on_c, 2, 63, 0
4, 3184, Note_on_c, 2, 67, 0
4, 3184, Note_on_c, 2, 70, 0
4, 3192, Note_on_c, 2, 63, 22
4, 3192, Note_on_c, 2, 67, 33
4, 3192, Note_on_c, 2, 70, 25
4, 3203, Note_on_c, 2, 63, 0
4, 3204, Note_on_c, 2, 67, 0
4, 3205, Note_on_c, 2, 70, 0
4, 3216, Note_on_c, 2, 63, 32
4, 3216, Note_on_c, 2, 67, 46
4, 3216, Note_on_c, 2, 70, 33
4, 3231, Note_on_c, 2, 67, 0
4, 3232, Note_on_c, 2, 63, 0
4, 3232, Note_on_c, 2, 70, 0
4, 3240, Note_on_c, 2, 63, 97
4, 3240, Note_on_c, 2, 67, 101
4, 3240, Note_on_c, 2, 70, 93
4, 3254, Note_on_c, 2, 63, 0
4, 3255, Note_on_c, 2, 67, 0
4, 3255, Note_on_c, 2, 70, 0
4, 3264, Note_on_c, 2, 63, 27
4, 3264, Note_on_c, 2, 67, 37
4, 3264, Note_on_c, 2, 70, 28
4, 3274, Note_on_c, 2, 63, 0
4, 3276, Note_on_c, 2, 67, 0
4, 3277, Note_on_c, 2, 70, 0
4, 3288, Note_on_c, 2, 67, 41
4, 3288, Note_on_c, 2, 70, 32
4, 3289, Note_on_c, 2, 63, 33
4, 3299, Note_on_c, 2, 63, 0
4, 3300, Note_on_c, 2, 67, 0
4, 3301, Note_on_c, 2, 70, 0
4, 3312, Note_on_c, 2, 63, 93
4, 3312, Note_on_c, 2, 67, 105
4, 3312, Note_on_c, 2, 70, 92
4, 3327, Note_on_c, 2, 63, 0
4, 3327, Note_on_c, 2, 67, 0
4, 3329, Note_on_c, 2, 70, 0
4, 3336, Note_on_c, 2, 67, 42
4, 3336, Note_on_c, 2, 63, 33
4, 3336, Note_on_c, 2, 70, 31
4, 3348, Note_on_c, 2, 63, 0
4, 3349, Note_on_c, 2, 67, 0
4, 3352, Note_on_c, 2, 70, 0
4, 3408, Note_on_c, 2, 67, 37
4, 3408, Note_on_c, 2, 63, 29
4, 3408, Note_on_c, 2, 71, 33
4, 3423, Note_on_c, 2, 63, 0
4, 3425, Note_on_c, 2, 67, 0
4, 3425, Note_on_c, 2, 71, 0
4, 3432, Note_on_c, 2, 67, 97
4, 3432, Note_on_c, 2, 63, 92
4, 3432, Note_on_c, 2, 71, 95
4, 3448, Note_on_c, 2, 71, 0
4, 3449, Note_on_c, 2, 67, 0
4, 3449, Note_on_c, 2, 63, 0
4, 3456, Note_on_c, 2, 67, 37
4, 3456, Note_on_c, 2, 71, 29
4, 3457, Note_on_c, 2, 63, 25
4, 3468, Note_on_c, 2, 63, 0
4, 3469, Note_on_c, 2, 67, 0
4, 3469, Note_on_c, 2, 71, 0
4, 3480, Note_on_c, 2, 63, 30
4, 3480, Note_on_c, 2, 67, 43
4, 3480, Note_on_c, 2, 71, 35
4, 3493, Note_on_c, 2, 63, 0
4, 3493, Note_on_c, 2, 67, 0
4, 3495, Note_on_c, 2, 71, 0
4, 3504, Note_on_c, 2, 63, 93
4, 3504, Note_on_c, 2, 67, 101
4, 3504, Note_on_c, 2, 71, 98
4, 3521, Note_on_c, 2, 63, 0
4, 3522, Note_on_c, 2, 67, 0
4, 3522, Note_on_c, 2, 71, 0
4, 3528, Note_on_c, 2, 63, 32
4, 3528, Note_on_c, 2, 67, 42
4, 3528, Note_on_c, 2, 71, 34
4, 3540, Note_on_c, 2, 63, 0
4, 3541, Note_on_c, 2, 67, 0
4, 3543, Note_on_c, 2, 71, 0
4, 3600, Note_on_c, 2, 68, 32
4, 3600, Note_on_c, 2, 63, 32
4, 3600, Note_on_c, 2, 72, 35
4, 3612, Note_on_c, 2, 63, 0
4, 3613, Note_on_c, 2, 68, 0
4, 3614, Note_on_c, 2, 72, 0
4, 3624, Note_on_c, 2, 63, 92
4, 3624, Note_on_c, 2, 68, 98
4, 3624, Note_on_c, 2, 72, 97
4, 3640, Note_on_c, 2, 72, 0
4, 3641, Note_on_c, 2, 68, 0
4, 3643, Note_on_c, 2, 63, 0
4, 3648, Note_on_c, 2, 63, 29
4, 3648, Note_on_c, 2, 68, 27
4, 3648, Note_on_c, 2, 72, 35
4, 3658, Note_on_c, 2, 68, 0
4, 3659, Note_on_c, 2, 63, 0
4, 3660, Note_on_c, 2, 72, 0
4, 3696, Note_on_c, 2, 63, 96
4, 3696, Note_on_c, 2, 68, 97
4, 3696, Note_on_c, 2, 72, 98
4, 3713, Note_on_c, 2, 72, 0
4, 3714, Note_on_c, 2, 68, 0
4, 3716, Note_on_c, 2, 63, 0
4, 3720, Note_on_c, 2, 68, 26
4, 3720, Note_on_c, 2, 63, 29
4, 3720, Note_on_c, 2, 72, 30
4, 3730, Note_on_c, 2, 63, 0
4, 3731, Note_on_c, 2, 68, 0
4, 3734, Note_on_c, 2, 72, 0
4, 3792, Note_on_c, 2, 63, 30
4, 3792, Note_on_c, 2, 69, 37
4, 3792, Note_on_c, 2, 72, 32
4, 3804, Note_on_c, 2, 63, 0
4, 3805, Note_on_c, 2, 69, 0
4, 3805, Note_on_c, 2, 72, 0
4, 3816, Note_on_c, 2, 63, 95
4, 3816, Note_on_c, 2, 69, 106
4, 3816, Note_on_c, 2, 72, 94
4, 3834, Note_on_c, 2, 63, 0
4, 3834, Note_on_c, 2, 72, 0
4, 3835, Note_on_c, 2, 69, 0
4, 3840, Note_on_c, 2, 63, 25
4, 3840, Note_on_c, 2, 69, 33
4, 3840, Note_on_c, 2, 72, 30
4, 3849, Note_on_c, 2, 63, 0
4, 3851, Note_on_c, 2, 69, 0
4, 3851, Note_on_c, 2, 72, 0
4, 3864, Note_on_c, 2, 63, 27
4, 3864, Note_on_c, 2, 69, 29
4, 3864, Note_on_c, 2, 72, 31
4, 3877, Note_on_c, 2, 63, 0
4, 3877, Note_on_c, 2, 69, 0
4, 3877, Note_on_c, 2, 72, 0
4, 3888, Note_on_c, 2, 63, 92
4, 3888, Note_on_c, 2, 69, 101
4, 3888, Note_on_c, 2, 72, 93
4, 3906, Note_on_c, 2, 63, 0
4, 3906, Note_on_c, 2, 69, 0
4, 3906, Note_on_c, 2, 72, 0
4, 3912, Note_on_c, 2, 63, 25
4, 3912, Note_on_c, 2, 69, 22
4, 3912, Note_on_c, 2, 72, 31
4, 3915, Note_on_c, 2, 69, 0
4, 3917, Note_on_c, 2, 63, 0
4, 3918, Note_on_c, 2, 72, 0
4, 3936, Note_on_c, 2, 63, 31
4, 3936, Note_on_c, 2, 69, 36
4, 3936, Note_on_c, 2, 72, 39
4, 3944, Note_on_c, 2, 63, 0
4, 3944, Note_on_c, 2, 69, 0
4, 3946, Note_on_c, 2, 72, 0
4, 3960, Note_on_c, 2, 63, 22
4, 3960, Note_on_c, 2, 67, 34
4, 3960, Note_on_c, 2, 70, 32
4, 3969, Note_on_c, 2, 63, 0
4, 3972, Note_on_c, 2, 67, 0
4, 3972, Note_on_c, 2, 70, 0
4, 3984, Note_on_c, 2, 63, 28
4, 3984, Note_on_c, 2, 67, 48
4, 3984, Note_on_c, 2, 70, 30
4, 3996, Note_on_c, 2, 63, 0
4, 3996, Note_on_c, 2, 67, 0
4, 3997, Note_on_c, 2, 70, 0
4, 4008, Note_on_c, 2, 63, 93
4, 4008, Note_on_c, 2, 67, 104
4, 4008, Note_on_c, 2, 70, 96
4, 4023, Note_on_c, 2, 63, 0
4, 4025, Note_on_c, 2, 67, 0
4, 4025, Note_on_c, 2, 70, 0
4, 4032, Note_on_c, 2, 63, 25
4, 4032, Note_on_c, 2, 67, 35
4, 4033, Note_on_c, 2, 70, 24
4, 4042, Note_on_c, 2, 63, 0
4, 4043, Note_on_c, 2, 67, 0
4, 4043, Note_on_c, 2, 70, 0
4, 4056, Note_on_c, 2, 63, 29
4, 4056, Note_on_c, 2, 67, 37
4, 4056, Note_on_c, 2, 70, 29
4, 4068, Note_on_c, 2, 63, 0
4, 4068, Note_on_c, 2, 67, 0
4, 4071, Note_on_c, 2, 70, 0
4, 4080, Note_on_c, 2, 67, 102
4, 4080, Note_on_c, 2, 63, 92
4, 4080, Note_on_c, 2, 70, 94
4, 4094, Note_on_c, 2, 63, 0
4, 4094, Note_on_c, 2, 67, 0
4, 4096, Note_on_c, 2, 70, 0
4, 4104, Note_on_c, 2, 63, 25
4, 4104, Note_on_c, 2, 67, 35
4, 4104, Note_on_c, 2, 70, 28
4, 4118, Note_on_c, 2, 63, 0
4, 4118, Note_on_c, 2, 67, 0
4, 4118, Note_on_c, 2, 70, 0
4, 4152, Note_on_c, 2, 65, 97
4, 4152, Note_on_c, 2, 70, 95
4, 4152, Note_on_c, 2, 74, 98
4, 4226, Note_on_c, 2, 74, 0
4, 4228, Note_on_c, 2, 65, 0
4, 4231, Note_on_c, 2, 70, 0
4, 4248, Note_on_c, 2, 63, 102
4, 4248, Note_on_c, 2, 68, 107
4, 4248, Note_on_c, 2, 72, 102
4, 4326, Note_on_c, 2, 63, 0
4, 4326, Note_on_c, 2, 68, 0
4, 4328, Note_on_c, 2, 72, 0
4, 4344, Note_on_c, 2, 63, 27
4, 4344, Note_on_c, 2, 70, 35
4, 4345, Note_on_c, 2, 67, 35
4, 4355, Note_on_c, 2, 63, 0
4, 4356, Note_on_c, 2, 67, 0
4, 4357, Note_on_c, 2, 70, 0
4, 4368, Note_on_c, 2, 63, 29
4, 4368, Note_on_c, 2, 67, 43
4, 4368, Note_on_c, 2, 70, 33
4, 4382, Note_on_c, 2, 63, 0
4, 4382, Note_on_c, 2, 67, 0
4, 4382, Note_on_c, 2, 70, 0
4, 4392, Note_on_c, 2, 63, 89
4, 4392, Note_on_c, 2, 67, 101
4, 4392, Note_on_c, 2, 70, 96
4, 4407, Note_on_c, 2, 67, 0
4, 4408, Note_on_c, 2, 63, 0
4, 4408, Note_on_c, 2, 70, 0
4, 4417, Note_on_c, 2, 63, 25
4, 4417, Note_on_c, 2, 67, 35
4, 4417, Note_on_c, 2, 70, 27
4, 4426, Note_on_c, 2, 63, 0
4, 4427, Note_on_c, 2, 67, 0
4, 4427, Note_on_c, 2, 70, 0
4, 4440, Note_on_c, 2, 63, 25
4, 4440, Note_on_c, 2, 67, 41
4, 4440, Note_on_c, 2, 70, 33
4, 4452, Note_on_c, 2, 70, 0
4, 4453, Note_on_c, 2, 67, 0
4, 4454, Note_on_c, 2, 63, 0
4, 4464, Note_on_c, 2, 63, 92
4, 4464, Note_on_c, 2, 68, 95
4, 4464, Note_on_c, 2, 72, 97
4, 4479, Note_on_c, 2, 68, 0
4, 4479, Note_on_c, 2, 72, 0
4, 4482, Note_on_c, 2, 63, 0
4, 4512, Note_on_c, 2, 63, 92
4, 4512, Note_on_c, 2, 67, 104
4, 4512, Note_on_c, 2, 70, 93
4, 4529, Note_on_c, 2, 63, 0
4, 4529, Note_on_c, 2, 67, 0
4, 4530, Note_on_c, 2, 70, 0
4, 4560, Note_on_c, 2, 63, 25
4, 4560, Note_on_c, 2, 67, 31
4, 4560, Note_on_c, 2, 70, 32
4, 4572, Note_on_c, 2, 63, 0
4, 4573, Note_on_c, 2, 67, 0
4, 4574, Note_on_c, 2, 70, 0
4, 4584, Note_on_c, 2, 63, 95
4, 4584, Note_on_c, 2, 67, 103
4, 4584, Note_on_c, 2, 70, 96
4, 4601, Note_on_c, 2, 63, 0
4, 4601, Note_on_c, 2, 67, 0
4, 4601, Note_on_c, 2, 70, 0
4, 4656, Note_on_c, 2, 63, 95
4, 4656, Note_on_c, 2, 68, 97
4, 4656, Note_on_c, 2, 72, 98
4, 4671, Note_on_c, 2, 68, 0
4, 4673, Note_on_c, 2, 72, 0
4, 4674, Note_on_c, 2, 63, 0
4, 4704, Note_on_c, 2, 63, 92
4, 4704, Note_on_c, 2, 67, 105
4, 4704, Note_on_c, 2, 70, 92
4, 4720, Note_on_c, 2, 63, 0
4, 4720, Note_on_c, 2, 67, 0
4, 4721, Note_on_c, 2, 70, 0
4, 5928, Note_on_c, 2, 72, 75
4, 5929, Note_on_c, 2, 65, 71
4, 5929, Note_on_c, 2, 68, 72
4, 5941, Note_on_c, 2, 65, 0
4, 5941, Note_on_c, 2, 68, 0
4, 5943, Note_on_c, 2, 72, 0
4, 6000, Note_on_c, 2, 70, 74
4, 6000, Note_on_c, 2, 65, 73
4, 6000, Note_on_c, 2, 74, 77
4, 6009, Note_on_c, 2, 65, 0
4, 6009, Note_on_c, 2, 70, 0
4, 6014, Note_on_c, 2, 74, 0
4, 6096, Note_on_c, 2, 70, 77
4, 6096, Note_on_c, 2, 67, 78
4, 6096, Note_on_c, 2, 75, 75
4, 6110, Note_on_c, 2, 67, 0
4, 6112, Note_on_c, 2, 70, 0
4, 6112, Note_on_c, 2, 75, 0
4, 6144, Note_on_c, 2, 67, 58
4, 6144, Note_on_c, 2, 70, 53
4, 6144, Note_on_c, 2, 75, 59
4, 6148, Note_on_c, 2, 70, 0
4, 6150, Note_on_c, 2, 75, 0
4, 6151, Note_on_c, 2, 67, 0
4, 6168, Note_on_c, 2, 67, 62
4, 6168, Note_on_c, 2, 70, 54
4, 6168, Note_on_c, 2, 75, 68
4, 6174, Note_on_c, 2, 70, 0
4, 6176, Note_on_c, 2, 75, 0
4, 6177, Note_on_c, 2, 67, 0
4, 6192, Note_on_c, 2, 70, 81
4, 6192, Note_on_c, 2, 67, 84
4, 6192, Note_on_c, 2, 75, 84
4, 6200, Note_on_c, 2, 67, 0
4, 6201, Note_on_c, 2, 70, 0
4, 6202, Note_on_c, 2, 75, 0
4, 6216, Note_on_c, 2, 67, 81
4, 6216, Note_on_c, 2, 70, 80
4, 6216, Note_on_c, 2, 75, 84
4, 6227, Note_on_c, 2, 70, 0
4, 6227, Note_on_c, 2, 75, 0
4, 6230, Note_on_c, 2, 67, 0
4, 7440, Note_on_c, 2, 65, 73
4, 7440, Note_on_c, 2, 68, 72
4, 7440, Note_on_c, 2, 72, 78
4, 7448, Note_on_c, 2, 68, 0
4, 7449, Note_on_c, 2, 65, 0
4, 7450, Note_on_c, 2, 72, 0
4, 7512, Note_on_c, 2, 65, 70
4, 7512, Note_on_c, 2, 74, 84
4, 7520, Note_on_c, 2, 65, 0
4, 7521, Note_on_c, 2, 74, 0
4, 7536, Note_on_c, 2, 65, 69
4, 7536, Note_on_c, 2, 70, 76
4, 7536, Note_on_c, 2, 74, 77
4, 7542, Note_on_c, 2, 70, 0
4, 7543, Note_on_c, 2, 65, 0
4, 7544, Note_on_c, 2, 74, 0
4, 7560, Note_on_c, 2, 70, 82
4, 7560, Note_on_c, 2, 74, 80
4, 7561, Note_on_c, 2, 65, 77
4, 7568, Note_on_c, 2, 70, 0
4, 7569, Note_on_c, 2, 65, 0
4, 7572, Note_on_c, 2, 74, 0
4, 8376, Note_on_c, 2, 63, 23
4, 8377, Note_on_c, 2, 67, 34
4, 8377, Note_on_c, 2, 70, 29
4, 8389, Note_on_c, 2, 63, 0
4, 8390, Note_on_c, 2, 67, 0
4, 8390, Note_on_c, 2, 70, 0
4, 8400, Note_on_c, 2, 63, 22
4, 8400, Note_on_c, 2, 67, 33
4, 8400, Note_on_c, 2, 70, 32
4, 8414, Note_on_c, 2, 63, 0
4, 8415, Note_on_c, 2, 67, 0
4, 8415, Note_on_c, 2, 70, 0
4, 8424, Note_on_c, 2, 63, 87
4, 8424, Note_on_c, 2, 67, 101
4, 8424, Note_on_c, 2, 70, 95
4, 8437, Note_on_c, 2, 63, 0
4, 8438, Note_on_c, 2, 67, 0
4, 8438, Note_on_c, 2, 70, 0
4, 8448, Note_on_c, 2, 63, 21
4, 8448, Note_on_c, 2, 67, 32
4, 8448, Note_on_c, 2, 70, 32
4, 8457, Note_on_c, 2, 63, 0
4, 8460, Note_on_c, 2, 67, 0
4, 8461, Note_on_c, 2, 70, 0
4, 8472, Note_on_c, 2, 63, 25
4, 8472, Note_on_c, 2, 67, 37
4, 8472, Note_on_c, 2, 70, 31
4, 8484, Note_on_c, 2, 63, 0
4, 8485, Note_on_c, 2, 67, 0
4, 8485, Note_on_c, 2, 70, 0
4, 8496, Note_on_c, 2, 63, 93
4, 8496, Note_on_c, 2, 67, 102
4, 8496, Note_on_c, 2, 70, 92
4, 8512, Note_on_c, 2, 63, 0
4, 8513, Note_on_c, 2, 67, 0
4, 8514, Note_on_c, 2, 70, 0
4, 8520, Note_on_c, 2, 67, 35
4, 8520, Note_on_c, 2, 70, 31
4, 8533, Note_on_c, 2, 67, 0
4, 8533, Note_on_c, 2, 70, 0
4, 8592, Note_on_c, 2, 67, 39
4, 8592, Note_on_c, 2, 71, 31
4, 8605, Note_on_c, 2, 67, 0
4, 8606, Note_on_c, 2, 71, 0
4, 8616, Note_on_c, 2, 67, 95
4, 8616, Note_on_c, 2, 63, 89
4, 8616, Note_on_c, 2, 71, 93
4, 8634, Note_on_c, 2, 63, 0
4, 8634, Note_on_c, 2, 71, 0
4, 8635, Note_on_c, 2, 67, 0
4, 8640, Note_on_c, 2, 67, 35
4, 8640, Note_on_c, 2, 71, 28
4, 8652, Note_on_c, 2, 67, 0
4, 8652, Note_on_c, 2, 71, 0
4, 8664, Note_on_c, 2, 67, 42
4, 8664, Note_on_c, 2, 71, 32
4, 8678, Note_on_c, 2, 67, 0
4, 8678, Note_on_c, 2, 71, 0
4, 8688, Note_on_c, 2, 63, 88
4, 8688, Note_on_c, 2, 67, 100
4, 8688, Note_on_c, 2, 71, 94
4, 8704, Note_on_c, 2, 63, 0
4, 8705, Note_on_c, 2, 71, 0
4, 8707, Note_on_c, 2, 67, 0
4, 8712, Note_on_c, 2, 67, 37
4, 8712, Note_on_c, 2, 71, 30
4, 8723, Note_on_c, 2, 67, 0
4, 8725, Note_on_c, 2, 71, 0
4, 8784, Note_on_c, 2, 68, 37
4, 8784, Note_on_c, 2, 72, 31
4, 8794, Note_on_c, 2, 72, 0
4, 8795, Note_on_c, 2, 68, 0
4, 8809, Note_on_c, 2, 68, 35
4, 8809, Note_on_c, 2, 72, 32
4, 8809, Note_on_c, 2, 63, 89
4, 8809, Note_on_c, 2, 68, 92
4, 8809, Note_on_c, 2, 72, 99
4, 8810, Note_on_c, 2, 68, 0
4, 8810, Note_on_c, 2, 72, 0
4, 8818, Note_on_c, 2, 63, 0
4, 8832, Note_on_c, 2, 67, 96
4, 8832, Note_on_c, 2, 70, 96
4, 8847, Note_on_c, 2, 67, 0
4, 8849, Note_on_c, 2, 70, 0
4, 8880, Note_on_c, 2, 65, 88
4, 8880, Note_on_c, 2, 68, 97
4, 8897, Note_on_c, 2, 65, 0
4, 8901, Note_on_c, 2, 68, 0
4, 8928, Note_on_c, 2, 63, 92
4, 8928, Note_on_c, 2, 67, 104
4, 8948, Note_on_c, 2, 67, 0
4, 8950, Note_on_c, 2, 63, 0
4, 9000, Note_on_c, 2, 63, 89
4, 9000, Note_on_c, 2, 67, 101
4, 9000, Note_on_c, 2, 70, 87
4, 9010, Note_on_c, 2, 63, 0
4, 9014, Note_on_c, 2, 67, 0
4, 9014, Note_on_c, 2, 70, 0
4, 9072, Note_on_c, 2, 63, 92
4, 9072, Note_on_c, 2, 67, 104
4, 9073, Note_on_c, 2, 70, 92
4, 9085, Note_on_c, 2, 63, 0
4, 9088, Note_on_c, 2, 67, 0
4, 9088, Note_on_c, 2, 70, 0
4, 9144, Note_on_c, 2, 70, 28
4, 9144, Note_on_c, 2, 74, 35
4, 9154, Note_on_c, 2, 70, 0
4, 9155, Note_on_c, 2, 74, 0
4, 9168, Note_on_c, 2, 70, 37
4, 9168, Note_on_c, 2, 74, 37
4, 9185, Note_on_c, 2, 70, 0
4, 9185, Note_on_c, 2, 74, 0
4, 9192, Note_on_c, 2, 65, 96
4, 9192, Note_on_c, 2, 70, 99
4, 9192, Note_on_c, 2, 74, 98
4, 9206, Note_on_c, 2, 70, 0
4, 9206, Note_on_c, 2, 74, 0
4, 9208, Note_on_c, 2, 65, 0
4, 9216, Note_on_c, 2, 70, 32
4, 9216, Note_on_c, 2, 74, 28
4, 9225, Note_on_c, 2, 74, 0
4, 9226, Note_on_c, 2, 70, 0
4, 9240, Note_on_c, 2, 70, 36
4, 9240, Note_on_c, 2, 74, 33
4, 9252, Note_on_c, 2, 70, 0
4, 9253, Note_on_c, 2, 74, 0
4, 9264, Note_on_c, 2, 65, 98
4, 9264, Note_on_c, 2, 70, 100
4, 9264, Note_on_c, 2, 74, 101
4, 9278, Note_on_c, 2, 74, 0
4, 9279, Note_on_c, 2, 70, 0
4, 9281, Note_on_c, 2, 65, 0
4, 9288, Note_on_c, 2, 70, 33
4, 9288, Note_on_c, 2, 74, 33
4, 9302, Note_on_c, 2, 70, 0
4, 9302, Note_on_c, 2, 74, 0
4, 9336, Note_on_c, 2, 68, 31
4, 9336, Note_on_c, 2, 72, 34
4, 9344, Note_on_c, 2, 68, 0
4, 9347, Note_on_c, 2, 72, 0
4, 9360, Note_on_c, 2, 68, 25
4, 9360, Note_on_c, 2, 72, 33
4, 9373, Note_on_c, 2, 68, 0
4, 9373, Note_on_c, 2, 72, 0
4, 9384, Note_on_c, 2, 63, 89
4, 9384, Note_on_c, 2, 68, 89
4, 9384, Note_on_c, 2, 72, 94
4, 9397, Note_on_c, 2, 63, 0
4, 9397, Note_on_c, 2, 68, 0
4, 9398, Note_on_c, 2, 72, 0
4, 9408, Note_on_c, 2, 68, 27
4, 9408, Note_on_c, 2, 72, 30
4, 9417, Note_on_c, 2, 68, 0
4, 9419, Note_on_c, 2, 72, 0
4, 9432, Note_on_c, 2, 68, 31
4, 9432, Note_on_c, 2, 72, 31
4, 9444, Note_on_c, 2, 68, 0
4, 9445, Note_on_c, 2, 72, 0
4, 9456, Note_on_c, 2, 68, 97
4, 9456, Note_on_c, 2, 63, 96
4, 9456, Note_on_c, 2, 72, 97
4, 9470, Note_on_c, 2, 63, 0
4, 9471, Note_on_c, 2, 68, 0
4, 9471, Note_on_c, 2, 72, 0
4, 9480, Note_on_c, 2, 68, 29
4, 9480, Note_on_c, 2, 72, 30
4, 9497, Note_on_c, 2, 68, 0
4, 9498, Note_on_c, 2, 72, 0
4, 9552, Note_on_c, 2, 67, 28
4, 9552, Note_on_c, 2, 70, 24
4, 9563, Note_on_c, 2, 67, 0
4, 9563, Note_on_c, 2, 70, 0
4, 9576, Note_on_c, 2, 63, 92
4, 9576, Note_on_c, 2, 67, 101
4, 9576, Note_on_c, 2, 70, 92
4, 9590, Note_on_c, 2, 63, 0
4, 9591, Note_on_c, 2, 67, 0
4, 9591, Note_on_c, 2, 70, 0
4, 9600, Note_on_c, 2, 67, 33
4, 9600, Note_on_c, 2, 70, 23
4, 9609, Note_on_c, 2, 70, 0
4, 9610, Note_on_c, 2, 67, 0
4, 9648, Note_on_c, 2, 63, 95
4, 9648, Note_on_c, 2, 68, 93
4, 9648, Note_on_c, 2, 72, 95
4, 9664, Note_on_c, 2, 68, 0
4, 9665, Note_on_c, 2, 72, 0
4, 9666, Note_on_c, 2, 63, 0
4, 9696, Note_on_c, 2, 63, 91
4, 9696, Note_on_c, 2, 67, 102
4, 9696, Note_on_c, 2, 70, 92
4, 9711, Note_on_c, 2, 63, 0
4, 9712, Note_on_c, 2, 67, 0
4, 9713, Note_on_c, 2, 70, 0
4, 9744, Note_on_c, 2, 67, 31
4, 9744, Note_on_c, 2, 70, 23
4, 9759, Note_on_c, 2, 67, 0
4, 9759, Note_on_c, 2, 70, 0
4, 9768, Note_on_c, 2, 63, 92
4, 9768, Note_on_c, 2, 67, 101
4, 9768, Note_on_c, 2, 70, 92
4, 9784, Note_on_c, 2, 63, 0
4, 9784, Note_on_c, 2, 67, 0
4, 9784, Note_on_c, 2, 70, 0
4, 9792, Note_on_c, 2, 67, 35
4, 9792, Note_on_c, 2, 70, 28
4, 9806, Note_on_c, 2, 67, 0
4, 9806, Note_on_c, 2, 70, 0
4, 9840, Note_on_c, 2, 63, 92
4, 9840, Note_on_c, 2, 68, 95
4, 9840, Note_on_c, 2, 72, 98
4, 9854, Note_on_c, 2, 72, 0
4, 9855, Note_on_c, 2, 68, 0
4, 9856, Note_on_c, 2, 63, 0
4, 9888, Note_on_c, 2, 67, 109
4, 9888, Note_on_c, 2, 63, 92
4, 9888, Note_on_c, 2, 70, 91
4, 9903, Note_on_c, 2, 63, 0
4, 9904, Note_on_c, 2, 67, 0
4, 9904, Note_on_c, 2, 70, 0
4, 9912, Note_on_c, 2, 63, 22
4, 9912, Note_on_c, 2, 67, 33
4, 9912, Note_on_c, 2, 70, 25
4, 9923, Note_on_c, 2, 63, 0
4, 9924, Note_on_c, 2, 67, 0
4, 9925, Note_on_c, 2, 70, 0
4, 9936, Note_on_c, 2, 63, 32
4, 9936, Note_on_c, 2, 67, 46
4, 9936, Note_on_c, 2, 70, 33
4, 9951, Note_on_c, 2, 67, 0
4, 9952, Note_on_c, 2, 63, 0
4, 9953, Note_on_c, 2, 70, 0
4, 9960, Note_on_c, 2, 63, 97
4, 9960, Note_on_c, 2, 67, 101
4, 9960, Note_on_c, 2, 70, 93
4, 9974, Note_on_c, 2, 63, 0
4, 9975, Note_on_c, 2, 67, 0
4, 9975, Note_on_c, 2, 70, 0
4, 9984, Note_on_c, 2, 63, 27
4, 9984, Note_on_c, 2, 67, 37
4, 9984, Note_on_c, 2, 70, 28
4, 9994, Note_on_c, 2, 63, 0
4, 9996, Note_on_c, 2, 67, 0
4, 9997, Note_on_c, 2, 70, 0
4, 10008, Note_on_c, 2, 67, 41
4, 10008, Note_on_c, 2, 63, 33
4, 10008, Note_on_c, 2, 70, 32
4, 10019, Note_on_c, 2, 63, 0
4, 10020, Note_on_c, 2, 67, 0
4, 10021, Note_on_c, 2, 70, 0
4, 10032, Note_on_c, 2, 63, 93
4, 10032, Note_on_c, 2, 67, 105
4, 10032, Note_on_c, 2, 70, 92
4, 10047, Note_on_c, 2, 63, 0
4, 10047, Note_on_c, 2, 67, 0
4, 10048, Note_on_c, 2, 70, 0
4, 10056, Note_on_c, 2, 67, 42
4, 10056, Note_on_c, 2, 63, 33
4, 10056, Note_on_c, 2, 70, 31
4, 10068, Note_on_c, 2, 63, 0
4, 10069, Note_on_c, 2, 67, 0
4, 10072, Note_on_c, 2, 70, 0
4, 10128, Note_on_c, 2, 67, 37
4, 10128, Note_on_c, 2, 63, 29
4, 10128, Note_on_c, 2, 71, 33
4, 10143, Note_on_c, 2, 63, 0
4, 10144, Note_on_c, 2, 67, 0
4, 10145, Note_on_c, 2, 71, 0
4, 10152, Note_on_c, 2, 67, 97
4, 10152, Note_on_c, 2, 63, 92
4, 10152, Note_on_c, 2, 71, 95
4, 10168, Note_on_c, 2, 71, 0
4, 10169, Note_on_c, 2, 67, 0
4, 10169, Note_on_c, 2, 63, 0
4, 10176, Note_on_c, 2, 67, 37
4, 10176, Note_on_c, 2, 63, 25
4, 10176, Note_on_c, 2, 71, 29
4, 10188, Note_on_c, 2, 63, 0
4, 10189, Note_on_c, 2, 67, 0
4, 10189, Note_on_c, 2, 71, 0
4, 10200, Note_on_c, 2, 63, 30
4, 10200, Note_on_c, 2, 67, 43
4, 10200, Note_on_c, 2, 71, 35
4, 10213, Note_on_c, 2, 63, 0
4, 10213, Note_on_c, 2, 67, 0
4, 10214, Note_on_c, 2, 71, 0
4, 10224, Note_on_c, 2, 63, 93
4, 10224, Note_on_c, 2, 67, 101
4, 10224, Note_on_c, 2, 71, 98
4, 10241, Note_on_c, 2, 63, 0
4, 10242, Note_on_c, 2, 67, 0
4, 10242, Note_on_c, 2, 71, 0
4, 10248, Note_on_c, 2, 63, 32
4, 10248, Note_on_c, 2, 67, 42
4, 10248, Note_on_c, 2, 71, 34
4, 10260, Note_on_c, 2, 63, 0
4, 10261, Note_on_c, 2, 67, 0
4, 10263, Note_on_c, 2, 71, 0
4, 10320, Note_on_c, 2, 68, 32
4, 10320, Note_on_c, 2, 63, 32
4, 10320, Note_on_c, 2, 72, 35
4, 10332, Note_on_c, 2, 63, 0
4, 10332, Note_on_c, 2, 68, 0
4, 10334, Note_on_c, 2, 72, 0
4, 10344, Note_on_c, 2, 63, 92
4, 10344, Note_on_c, 2, 68, 98
4, 10344, Note_on_c, 2, 72, 97
4, 10360, Note_on_c, 2, 72, 0
4, 10361, Note_on_c, 2, 68, 0
4, 10363, Note_on_c, 2, 63, 0
4, 10368, Note_on_c, 2, 63, 29
4, 10368, Note_on_c, 2, 68, 27
4, 10368, Note_on_c, 2, 72, 35
4, 10378, Note_on_c, 2, 68, 0
4, 10379, Note_on_c, 2, 63, 0
4, 10380, Note_on_c, 2, 72, 0
4, 10416, Note_on_c, 2, 63, 96
4, 10416, Note_on_c, 2, 68, 97
4, 10416, Note_on_c, 2, 72, 98
4, 10433, Note_on_c, 2, 72, 0
4, 10434, Note_on_c, 2, 68, 0
4, 10436, Note_on_c, 2, 63, 0
4, 10440, Note_on_c, 2, 68, 26
4, 10440, Note_on_c, 2, 63, 29
4, 10440, Note_on_c, 2, 72, 30
4, 10450, Note_on_c, 2, 63, 0
4, 10451, Note_on_c, 2, 68, 0
4, 10453, Note_on_c, 2, 72, 0
4, 10512, Note_on_c, 2, 63, 30
4, 10512, Note_on_c, 2, 69, 37
4, 10512, Note_on_c, 2, 72, 32
4, 10524, Note_on_c, 2, 63, 0
4, 10525, Note_on_c, 2, 69, 0
4, 10525, Note_on_c, 2, 72, 0
4, 10536, Note_on_c, 2, 63, 95
4, 10536, Note_on_c, 2, 69, 106
4, 10536, Note_on_c, 2, 72, 94
4, 10554, Note_on_c, 2, 63, 0
4, 10554, Note_on_c, 2, 72, 0
4, 10555, Note_on_c, 2, 69, 0
4, 10560, Note_on_c, 2, 63, 25
4, 10560, Note_on_c, 2, 72, 30
4, 10561, Note_on_c, 2, 69, 33
4, 10570, Note_on_c, 2, 63, 0
4, 10571, Note_on_c, 2, 69, 0
4, 10571, Note_on_c, 2, 72, 0
4, 10584, Note_on_c, 2, 63, 27
4, 10584, Note_on_c, 2, 69, 29
4, 10584, Note_on_c, 2, 72, 31
4, 10597, Note_on_c, 2, 63, 0
4, 10597, Note_on_c, 2, 69, 0
4, 10597, Note_on_c, 2, 72, 0
4, 10608, Note_on_c, 2, 63, 92
4, 10608, Note_on_c, 2, 69, 101
4, 10608, Note_on_c, 2, 72, 93
4, 10625, Note_on_c, 2, 63, 0
4, 10625, Note_on_c, 2, 72, 0
4, 10626, Note_on_c, 2, 69, 0
4, 10632, Note_on_c, 2, 72, 31
4, 10633, Note_on_c, 2, 63, 25
4, 10633, Note_on_c, 2, 69, 22
4, 10635, Note_on_c, 2, 69, 0
4, 10637, Note_on_c, 2, 63, 0
4, 10638, Note_on_c, 2, 72, 0
4, 10656, Note_on_c, 2, 63, 31
4, 10656, Note_on_c, 2, 69, 36
4, 10656, Note_on_c, 2, 72, 39
4, 10664, Note_on_c, 2, 63, 0
4, 10665, Note_on_c, 2, 69, 0
4, 10666, Note_on_c, 2, 72, 0
4, 10680, Note_on_c, 2, 63, 22
4, 10680, Note_on_c, 2, 67, 34
4, 10680, Note_on_c, 2, 70, 32
4, 10689, Note_on_c, 2, 63, 0
4, 10692, Note_on_c, 2, 67, 0
4, 10692, Note_on_c, 2, 70, 0
4, 10704, Note_on_c, 2, 63, 28
4, 10704, Note_on_c, 2, 67, 48
4, 10704, Note_on_c, 2, 70, 30
4, 10716, Note_on_c, 2, 63, 0
4, 10716, Note_on_c, 2, 67, 0
4, 10716, Note_on_c, 2, 70, 0
4, 10728, Note_on_c, 2, 63, 93
4, 10728, Note_on_c, 2, 67, 104
4, 10728, Note_on_c, 2, 70, 96
4, 10743, Note_on_c, 2, 63, 0
4, 10744, Note_on_c, 2, 70, 0
4, 10745, Note_on_c, 2, 67, 0
4, 10752, Note_on_c, 2, 63, 25
4, 10752, Note_on_c, 2, 67, 35
4, 10752, Note_on_c, 2, 70, 24
4, 10762, Note_on_c, 2, 63, 0
4, 10763, Note_on_c, 2, 67, 0
4, 10763, Note_on_c, 2, 70, 0
4, 10776, Note_on_c, 2, 63, 29
4, 10776, Note_on_c, 2, 67, 37
4, 10776, Note_on_c, 2, 70, 29
4, 10788, Note_on_c, 2, 67, 0
4, 10789, Note_on_c, 2, 63, 0
4, 10791, Note_on_c, 2, 70, 0
4, 10800, Note_on_c, 2, 67, 102
4, 10800, Note_on_c, 2, 63, 92
4, 10800, Note_on_c, 2, 70, 94
4, 10814, Note_on_c, 2, 63, 0
4, 10814, Note_on_c, 2, 67, 0
4, 10816, Note_on_c, 2, 70, 0
4, 10824, Note_on_c, 2, 63, 25
4, 10825, Note_on_c, 2, 67, 35
4, 10825, Note_on_c, 2, 70, 28
4, 10838, Note_on_c, 2, 63, 0
4, 10838, Note_on_c, 2, 67, 0
4, 10838, Note_on_c, 2, 70, 0
4, 10872, Note_on_c, 2, 65, 97
4, 10872, Note_on_c, 2, 70, 95
4, 10872, Note_on_c, 2, 74, 98
4, 10946, Note_on_c, 2, 74, 0
4, 10948, Note_on_c, 2, 65, 0
4, 10951, Note_on_c, 2, 70, 0
4, 10968, Note_on_c, 2, 63, 102
4, 10968, Note_on_c, 2, 68, 107
4, 10968, Note_on_c, 2, 72, 102
4, 11046, Note_on_c, 2, 63, 0
4, 11046, Note_on_c, 2, 68, 0
4, 11048, Note_on_c, 2, 72, 0
4, 11064, Note_on_c, 2, 63, 27
4, 11064, Note_on_c, 2, 67, 35
4, 11064, Note_on_c, 2, 70, 35
4, 11075, Note_on_c, 2, 63, 0
4, 11076, Note_on_c, 2, 67, 0
4, 11077, Note_on_c, 2, 70, 0
4, 11088, Note_on_c, 2, 63, 29
4, 11088, Note_on_c, 2, 67, 43
4, 11088, Note_on_c, 2, 70, 33
4, 11102, Note_on_c, 2, 63, 0
4, 11102, Note_on_c, 2, 67, 0
4, 11102, Note_on_c, 2, 70, 0
4, 11112, Note_on_c, 2, 63, 89
4, 11112, Note_on_c, 2, 67, 101
4, 11112, Note_on_c, 2, 70, 96
4, 11127, Note_on_c, 2, 67, 0
4, 11128, Note_on_c, 2, 63, 0
4, 11128, Note_on_c, 2, 70, 0
4, 11136, Note_on_c, 2, 63, 25
4, 11136, Note_on_c, 2, 67, 35
4, 11136, Note_on_c, 2, 70, 27
4, 11146, Note_on_c, 2, 63, 0
4, 11147, Note_on_c, 2, 67, 0
4, 11147, Note_on_c, 2, 70, 0
4, 11160, Note_on_c, 2, 63, 25
4, 11160, Note_on_c, 2, 67, 41
4, 11161, Note_on_c, 2, 70, 33
4, 11172, Note_on_c, 2, 70, 0
4, 11173, Note_on_c, 2, 67, 0
4, 11174, Note_on_c, 2, 63, 0
4, 11184, Note_on_c, 2, 63, 92
4, 11184, Note_on_c, 2, 68, 95
4, 11184, Note_on_c, 2, 72, 97
4, 11199, Note_on_c, 2, 68, 0
4, 11199, Note_on_c, 2, 72, 0
4, 11202, Note_on_c, 2, 63, 0
4, 11232, Note_on_c, 2, 63, 92
4, 11232, Note_on_c, 2, 67, 104
4, 11232, Note_on_c, 2, 70, 93
4, 11249, Note_on_c, 2, 63, 0
4, 11250, Note_on_c, 2, 67, 0
4, 11250, Note_on_c, 2, 70, 0
4, 11280, Note_on_c, 2, 63, 25
4, 11280, Note_on_c, 2, 67, 31
4, 11280, Note_on_c, 2, 70, 32
4, 11292, Note_on_c, 2, 63, 0
4, 11292, Note_on_c, 2, 67, 0
4, 11294, Note_on_c, 2, 70, 0
4, 11304, Note_on_c, 2, 63, 95
4, 11304, Note_on_c, 2, 67, 103
4, 11305, Note_on_c, 2, 70, 96
4, 11321, Note_on_c, 2, 63, 0
4, 11321, Note_on_c, 2, 67, 0
4, 11321, Note_on_c, 2, 70, 0
4, 11376, Note_on_c, 2, 63, 95
4, 11376, Note_on_c, 2, 68, 97
4, 11376, Note_on_c, 2, 72, 98
4, 11391, Note_on_c, 2, 68, 0
4, 11393, Note_on_c, 2, 72, 0
4, 11394, Note_on_c, 2, 63, 0
4, 11424, Note_on_c, 2, 63, 92
4, 11424, Note_on_c, 2, 67, 105
4, 11424, Note_on_c, 2, 70, 92
4, 11439, Note_on_c, 2, 67, 0
4, 11440, Note_on_c, 2, 63, 0
4, 11440, Note_on_c, 2, 70, 0
4, 12648, Note_on_c, 2, 68, 72
4, 12648, Note_on_c, 2, 72, 75
4, 12649, Note_on_c, 2, 65, 71
4, 12661, Note_on_c, 2, 65, 0
4, 12661, Note_on_c, 2, 68, 0
4, 12664, Note_on_c, 2, 72, 0
4, 12720, Note_on_c, 2, 70, 74
4, 12720, Note_on_c, 2, 65, 73
4, 12720, Note_on_c, 2, 74, 77
4, 12729, Note_on_c, 2, 65, 0
4, 12729, Note_on_c, 2, 70, 0
4, 12734, Note_on_c, 2, 74, 0
4, 12816, Note_on_c, 2, 70, 77
4, 12816, Note_on_c, 2, 67, 78
4, 12816, Note_on_c, 2, 75, 75
4, 12830, Note_on_c, 2, 67, 0
4, 12832, Note_on_c, 2, 70, 0
4, 12832, Note_on_c, 2, 75, 0
4, 12864, Note_on_c, 2, 67, 58
4, 12864, Note_on_c, 2, 70, 53
4, 12864, Note_on_c, 2, 75, 59
4, 12868, Note_on_c, 2, 70, 0
4, 12870, Note_on_c, 2, 75, 0
4, 12871, Note_on_c, 2, 67, 0
4, 12888, Note_on_c, 2, 67, 62
4, 12888, Note_on_c, 2, 70, 54
4, 12888, Note_on_c, 2, 75, 68
4, 12894, Note_on_c, 2, 70, 0
4, 12896, Note_on_c, 2, 75, 0
4, 12897, Note_on_c, 2, 67, 0
4, 12912, Note_on_c, 2, 70, 81
4, 12912, Note_on_c, 2, 67, 84
4, 12912, Note_on_c, 2, 75, 84
4, 12920, Note_on_c, 2, 67, 0
4, 12921, Note_on_c, 2, 70, 0
4, 12922, Note_on_c, 2, 75, 0
4, 12936, Note_on_c, 2, 67, 81
4, 12936, Note_on_c, 2, 70, 80
4, 12936, Note_on_c, 2, 75, 84
4, 12947, Note_on_c, 2, 70, 0
4, 12947, Note_on_c, 2, 75, 0
4, 12950, Note_on_c, 2, 67, 0
4, 14160, Note_on_c, 2, 65, 73
4, 14160, Note_on_c, 2, 68, 72
4, 14160, Note_on_c, 2, 72, 78
4, 14168, Note_on_c, 2, 68, 0
4, 14169, Note_on_c, 2, 65, 0
4, 14170, Note_on_c, 2, 72, 0
4, 14232, Note_on_c, 2, 65, 70
4, 14232, Note_on_c, 2, 74, 84
4, 14240, Note_on_c, 2, 65, 0
4, 14241, Note_on_c, 2, 74, 0
4, 14256, Note_on_c, 2, 65, 69
4, 14256, Note_on_c, 2, 70, 76
4, 14256, Note_on_c, 2, 74, 77
4, 14262, Note_on_c, 2, 70, 0
4, 14263, Note_on_c, 2, 65, 0
4, 14264, Note_on_c, 2, 74, 0
4, 14280, Note_on_c, 2, 70, 82
4, 14280, Note_on_c, 2, 65, 77
4, 14280, Note_on_c, 2, 74, 80
4, 14288, Note_on_c, 2, 70, 0
4, 14289, Note_on_c, 2, 65, 0
4, 14292, Note_on_c, 2, 74, 0
4, 15096, Note_on_c, 2, 63, 32
4, 15096, Note_on_c, 2, 68, 28
4, 15096, Note_on_c, 2, 72, 35
4, 15105, Note_on_c, 2, 72, 0
4, 15107, Note_on_c, 2, 68, 0
4, 15107, Note_on_c, 2, 63, 0
4, 15120, Note_on_c, 2, 63, 33
4, 15120, Note_on_c, 2, 68, 32
4, 15120, Note_on_c, 2, 72, 38
4, 15132, Note_on_c, 2, 63, 0
4, 15132, Note_on_c, 2, 68, 0
4, 15132, Note_on_c, 2, 72, 0
4, 15144, Note_on_c, 2, 63, 95
4, 15144, Note_on_c, 2, 68, 91
4, 15144, Note_on_c, 2, 72, 99
4, 15158, Note_on_c, 2, 63, 0
4, 15160, Note_on_c, 2, 68, 0
4, 15160, Note_on_c, 2, 72, 0
4, 15168, Note_on_c, 2, 63, 29
4, 15168, Note_on_c, 2, 68, 28
4, 15168, Note_on_c, 2, 72, 37
4, 15176, Note_on_c, 2, 63, 0
4, 15176, Note_on_c, 2, 68, 0
4, 15176, Note_on_c, 2, 72, 0
4, 15192, Note_on_c, 2, 63, 30
4, 15192, Note_on_c, 2, 68, 31
4, 15192, Note_on_c, 2, 72, 39
4, 15206, Note_on_c, 2, 63, 0
4, 15206, Note_on_c, 2, 68, 0
4, 15206, Note_on_c, 2, 72, 0
4, 15216, Note_on_c, 2, 63, 96
4, 15216, Note_on_c, 2, 68, 93
4, 15216, Note_on_c, 2, 72, 98
4, 15226, Note_on_c, 2, 63, 0
4, 15226, Note_on_c, 2, 68, 0
4, 15228, Note_on_c, 2, 72, 0
4, 15264, Note_on_c, 2, 70, 92
4, 15264, Note_on_c, 2, 65, 99
4, 15264, Note_on_c, 2, 74, 99
4, 15320, Note_on_c, 2, 65, 0
4, 15334, Note_on_c, 2, 70, 0
4, 15335, Note_on_c, 2, 74, 0
4, 15336, Note_on_c, 2, 65, 88
4, 15336, Note_on_c, 2, 65, 31
4, 15336, Note_on_c, 2, 70, 32
4, 15336, Note_on_c, 2, 74, 39
4, 15337, Note_on_c, 2, 65, 0
4, 15345, Note_on_c, 2, 70, 0
4, 15349, Note_on_c, 2, 74, 0
4, 15360, Note_on_c, 2, 70, 89
4, 15360, Note_on_c, 2, 65, 98
4, 15360, Note_on_c, 2, 75, 92
4, 15374, Note_on_c, 2, 70, 0
4, 15376, Note_on_c, 2, 75, 0
4, 15379, Note_on_c, 2, 65, 0
4, 15408, Note_on_c, 2, 70, 100
4, 15408, Note_on_c, 2, 65, 95
4, 15408, Note_on_c, 2, 74, 103
4, 15425, Note_on_c, 2, 70, 0
4, 15425, Note_on_c, 2, 74, 0
4, 15427, Note_on_c, 2, 65, 0
4, 15456, Note_on_c, 2, 63, 104
4, 15456, Note_on_c, 2, 67, 107
4, 15456, Note_on_c, 2, 70, 92
4, 15504, Note_on_c, 2, 63, 0
4, 15504, Note_on_c, 2, 67, 0
4, 15504, Note_on_c, 2, 70, 0
4, 15504, Note_on_c, 2, 63, 27
4, 15504, Note_on_c, 2, 67, 41
4, 15504, Note_on_c, 2, 70, 36
4, 15505, Note_on_c, 2, 63, 0
4, 15505, Note_on_c, 2, 67, 0
4, 15517, Note_on_c, 2, 70, 0
4, 15528, Note_on_c, 2, 63, 98
4, 15528, Note_on_c, 2, 67, 106
4, 15528, Note_on_c, 2, 70, 91
4, 15539, Note_on_c, 2, 63, 0
4, 15542, Note_on_c, 2, 67, 0
4, 15544, Note_on_c, 2, 70, 0
4, 15576, Note_on_c, 2, 63, 31
4, 15576, Note_on_c, 2, 67, 38
4, 15576, Note_on_c, 2, 70, 37
4, 15588, Note_on_c, 2, 63, 0
4, 15588, Note_on_c, 2, 67, 0
4, 15589, Note_on_c, 2, 70, 0
4, 15600, Note_on_c, 2, 63, 99
4, 15600, Note_on_c, 2, 67, 105
4, 15601, Note_on_c, 2, 70, 89
4, 15610, Note_on_c, 2, 63, 0
4, 15611, Note_on_c, 2, 67, 0
4, 15613, Note_on_c, 2, 70, 0
4, 15648, Note_on_c, 2, 63, 95
4, 15648, Note_on_c, 2, 68, 94
4, 15648, Note_on_c, 2, 72, 101
4, 15696, Note_on_c, 2, 63, 0
4, 15696, Note_on_c, 2, 68, 0
4, 15696, Note_on_c, 2, 72, 0
4, 15696, Note_on_c, 2, 63, 31
4, 15696, Note_on_c, 2, 68, 30
4, 15696, Note_on_c, 2, 72, 37
4, 15697, Note_on_c, 2, 63, 0
4, 15697, Note_on_c, 2, 68, 0
4, 15697, Note_on_c, 2, 72, 0
4, 15721, Note_on_c, 2, 63, 75
4, 15724, Note_on_c, 2, 63, 0
4, 15744, Note_on_c, 2, 63, 96
4, 15744, Note_on_c, 2, 68, 97
4, 15744, Note_on_c, 2, 70, 92
4, 15760, Note_on_c, 2, 68, 0
4, 15760, Note_on_c, 2, 70, 0
4, 15763, Note_on_c, 2, 63, 0
4, 15792, Note_on_c, 2, 63, 94
4, 15792, Note_on_c, 2, 68, 96
4, 15792, Note_on_c, 2, 72, 99
4, 15808, Note_on_c, 2, 68, 0
4, 15810, Note_on_c, 2, 63, 0
4, 15811, Note_on_c, 2, 72, 0
4, 15840, Note_on_c, 2, 63, 100
4, 15840, Note_on_c, 2, 67, 109
4, 15840, Note_on_c, 2, 70, 92
4, 15888, Note_on_c, 2, 63, 0
4, 15888, Note_on_c, 2, 67, 0
4, 15888, Note_on_c, 2, 70, 0
4, 15888, Note_on_c, 2, 67, 34
4, 15888, Note_on_c, 2, 63, 25
4, 15888, Note_on_c, 2, 70, 27
4, 15889, Note_on_c, 2, 67, 0
4, 15889, Note_on_c, 2, 70, 0
4, 15897, Note_on_c, 2, 63, 0
4, 15912, Note_on_c, 2, 63, 99
4, 15912, Note_on_c, 2, 67, 109
4, 15912, Note_on_c, 2, 70, 96
4, 15927, Note_on_c, 2, 63, 0
4, 15927, Note_on_c, 2, 67, 0
4, 15927, Note_on_c, 2, 70, 0
4, 15984, Note_on_c, 2, 63, 95
4, 15984, Note_on_c, 2, 67, 105
4, 15984, Note_on_c, 2, 70, 92
4, 16004, Note_on_c, 2, 63, 0
4, 16004, Note_on_c, 2, 67, 0
4, 16007, Note_on_c, 2, 70, 0
4, 16032, Note_on_c, 2, 70, 97
4, 16032, Note_on_c, 2, 65, 101
4, 16032, Note_on_c, 2, 74, 110
4, 16104, Note_on_c, 2, 65, 0
4, 16104, Note_on_c, 2, 70, 0
4, 16104, Note_on_c, 2, 74, 0
4, 16104, Note_on_c, 2, 65, 30
4, 16104, Note_on_c, 2, 70, 32
4, 16104, Note_on_c, 2, 74, 37
4, 16105, Note_on_c, 2, 65, 0
4, 16105, Note_on_c, 2, 74, 0
4, 16128, Note_on_c, 2, 70, 0
4, 16128, Note_on_c, 2, 70, 29
4, 16128, Note_on_c, 2, 74, 35
4, 16129, Note_on_c, 2, 70, 0
4, 16129, Note_on_c, 2, 65, 26
4, 16152, Note_on_c, 2, 65, 0
4, 16152, Note_on_c, 2, 74, 0
4, 16152, Note_on_c, 2, 70, 29
4, 16152, Note_on_c, 2, 65, 28
4, 16152, Note_on_c, 2, 74, 34
4, 16153, Note_on_c, 2, 65, 0
4, 16153, Note_on_c, 2, 70, 0
4, 16153, Note_on_c, 2, 74, 0
4, 16176, Note_on_c, 2, 65, 97
4, 16176, Note_on_c, 2, 70, 100
4, 16176, Note_on_c, 2, 74, 107
4, 16218, Note_on_c, 2, 74, 0
4, 16222, Note_on_c, 2, 70, 0
4, 16222, Note_on_c, 2, 65, 0
4, 16248, Note_on_c, 2, 61, 99
4, 16248, Note_on_c, 2, 66, 96
4, 16248, Note_on_c, 2, 70, 99
4, 16345, Note_on_c, 2, 66, 0
4, 16346, Note_on_c, 2, 61, 0
4, 16346, Note_on_c, 2, 70, 0
4, 16368, Note_on_c, 2, 61, 101
4, 16368, Note_on_c, 2, 66, 96
4, 16368, Note_on_c, 2, 70, 95
4, 16425, Note_on_c, 2, 66, 0
4, 16428, Note_on_c, 2, 61, 0
4, 16428, Note_on_c, 2, 70, 0
4, 16440, Note_on_c, 2, 63, 99
4, 16440, Note_on_c, 2, 68, 104
4, 16440, Note_on_c, 2, 72, 107
4, 16541, Note_on_c, 2, 68, 0
4, 16541, Note_on_c, 2, 72, 0
4, 16543, Note_on_c, 2, 63, 0
4, 16560, Note_on_c, 2, 63, 88
4, 16560, Note_on_c, 2, 68, 93
4, 16560, Note_on_c, 2, 72, 95
4, 16567, Note_on_c, 2, 68, 0
4, 16567, Note_on_c, 2, 72, 0
4, 16568, Note_on_c, 2, 63, 0
4, 16584, Note_on_c, 2, 63, 97
4, 16584, Note_on_c, 2, 68, 104
4, 16584, Note_on_c, 2, 72, 101
4, 16591, Note_on_c, 2, 68, 0
4, 16592, Note_on_c, 2, 63, 0
4, 16592, Note_on_c, 2, 72, 0
4, 16608, Note_on_c, 2, 72, 107
4, 16609, Note_on_c, 2, 63, 105
4, 16609, Note_on_c, 2, 68, 112
4, 16622, Note_on_c, 2, 68, 0
4, 16624, Note_on_c, 2, 63, 0
4, 16624, Note_on_c, 2, 72, 0
4, 17400, Note_on_c, 2, 63, 23
4, 17401, Note_on_c, 2, 67, 34
4, 17401, Note_on_c, 2, 70, 29
4, 17413, Note_on_c, 2, 63, 0
4, 17414, Note_on_c, 2, 67, 0
4, 17414, Note_on_c, 2, 70, 0
4, 17424, Note_on_c, 2, 63, 22
4, 17424, Note_on_c, 2, 67, 33
4, 17424, Note_on_c, 2, 70, 32
4, 17438, Note_on_c, 2, 63, 0
4, 17438, Note_on_c, 2, 70, 0
4, 17439, Note_on_c, 2, 67, 0
4, 17448, Note_on_c, 2, 63, 87
4, 17448, Note_on_c, 2, 67, 101
4, 17448, Note_on_c, 2, 70, 95
4, 17460, Note_on_c, 2, 63, 0
4, 17462, Note_on_c, 2, 67, 0
4, 17462, Note_on_c, 2, 70, 0
4, 17472, Note_on_c, 2, 63, 21
4, 17472, Note_on_c, 2, 67, 32
4, 17473, Note_on_c, 2, 70, 32
4, 17482, Note_on_c, 2, 63, 0
4, 17484, Note_on_c, 2, 67, 0
4, 17485, Note_on_c, 2, 70, 0
4, 17496, Note_on_c, 2, 63, 25
4, 17496, Note_on_c, 2, 67, 37
4, 17496, Note_on_c, 2, 70, 31
4, 17508, Note_on_c, 2, 63, 0
4, 17509, Note_on_c, 2, 67, 0
4, 17509, Note_on_c, 2, 70, 0
4, 17520, Note_on_c, 2, 63, 93
4, 17520, Note_on_c, 2, 67, 102
4, 17520, Note_on_c, 2, 70, 92
4, 17536, Note_on_c, 2, 63, 0
4, 17537, Note_on_c, 2, 67, 0
4, 17538, Note_on_c, 2, 70, 0
4, 17544, Note_on_c, 2, 67, 35
4, 17544, Note_on_c, 2, 70, 31
4, 17557, Note_on_c, 2, 67, 0
4, 17557, Note_on_c, 2, 70, 0
4, 17616, Note_on_c, 2, 67, 39
4, 17616, Note_on_c, 2, 71, 31
4, 17629, Note_on_c, 2, 67, 0
4, 17630, Note_on_c, 2, 71, 0
4, 17640, Note_on_c, 2, 67, 95
4, 17640, Note_on_c, 2, 63, 89
4, 17640, Note_on_c, 2, 71, 93
4, 17658, Note_on_c, 2, 63, 0
4, 17658, Note_on_c, 2, 71, 0
4, 17660, Note_on_c, 2, 67, 0
4, 17664, Note_on_c, 2, 67, 35
4, 17664, Note_on_c, 2, 71, 28
4, 17676, Note_on_c, 2, 67, 0
4, 17676, Note_on_c, 2, 71, 0
4, 17688, Note_on_c, 2, 67, 42
4, 17688, Note_on_c, 2, 71, 32
4, 17702, Note_on_c, 2, 67, 0
4, 17702, Note_on_c, 2, 71, 0
4, 17712, Note_on_c, 2, 63, 88
4, 17712, Note_on_c, 2, 67, 100
4, 17712, Note_on_c, 2, 71, 94
4, 17728, Note_on_c, 2, 63, 0
4, 17729, Note_on_c, 2, 71, 0
4, 17730, Note_on_c, 2, 67, 0
4, 17736, Note_on_c, 2, 67, 37
4, 17736, Note_on_c, 2, 71, 30
4, 17747, Note_on_c, 2, 67, 0
4, 17749, Note_on_c, 2, 71, 0
4, 17808, Note_on_c, 2, 68, 37
4, 17808, Note_on_c, 2, 72, 31
4, 17818, Note_on_c, 2, 72, 0
4, 17819, Note_on_c, 2, 68, 0
4, 17832, Note_on_c, 2, 68, 35
4, 17832, Note_on_c, 2, 72, 32
4, 17832, Note_on_c, 2, 63, 89
4, 17832, Note_on_c, 2, 72, 99
4, 17833, Note_on_c, 2, 68, 0
4, 17833, Note_on_c, 2, 72, 0
4, 17833, Note_on_c, 2, 68, 92
4, 17834, Note_on_c, 2, 68, 0
4, 17842, Note_on_c, 2, 63, 0
4, 17856, Note_on_c, 2, 67, 96
4, 17856, Note_on_c, 2, 70, 96
4, 17871, Note_on_c, 2, 67, 0
4, 17873, Note_on_c, 2, 70, 0
4, 17904, Note_on_c, 2, 65, 88
4, 17904, Note_on_c, 2, 68, 97
4, 17921, Note_on_c, 2, 65, 0
4, 17925, Note_on_c, 2, 68, 0
4, 17952, Note_on_c, 2, 63, 92
4, 17952, Note_on_c, 2, 67, 104
4, 17972, Note_on_c, 2, 67, 0
4, 17974, Note_on_c, 2, 63, 0
4, 18024, Note_on_c, 2, 63, 89
4, 18024, Note_on_c, 2, 67, 101
4, 18024, Note_on_c, 2, 70, 87
4, 18034, Note_on_c, 2, 63, 0
4, 18038, Note_on_c, 2, 67, 0
4, 18038, Note_on_c, 2, 70, 0
4, 18096, Note_on_c, 2, 63, 92
4, 18096, Note_on_c, 2, 67, 104
4, 18096, Note_on_c, 2, 70, 92
4, 18109, Note_on_c, 2, 63, 0
4, 18112, Note_on_c, 2, 67, 0
4, 18112, Note_on_c, 2, 70, 0
4, 18168, Note_on_c, 2, 70, 28
4, 18168, Note_on_c, 2, 74, 35
4, 18178, Note_on_c, 2, 70, 0
4, 18179, Note_on_c, 2, 74, 0
4, 18192, Note_on_c, 2, 70, 37
4, 18192, Note_on_c, 2, 74, 37
4, 18209, Note_on_c, 2, 74, 0
4, 18210, Note_on_c, 2, 70, 0
4, 18216, Note_on_c, 2, 65, 96
4, 18216, Note_on_c, 2, 70, 99
4, 18216, Note_on_c, 2, 74, 98
4, 18230, Note_on_c, 2, 70, 0
4, 18230, Note_on_c, 2, 74, 0
4, 18232, Note_on_c, 2, 65, 0
4, 18240, Note_on_c, 2, 70, 32
4, 18240, Note_on_c, 2, 74, 28
4, 18249, Note_on_c, 2, 70, 0
4, 18249, Note_on_c, 2, 74, 0
4, 18264, Note_on_c, 2, 70, 36
4, 18264, Note_on_c, 2, 74, 33
4, 18276, Note_on_c, 2, 70, 0
4, 18277, Note_on_c, 2, 74, 0
4, 18288, Note_on_c, 2, 65, 98
4, 18288, Note_on_c, 2, 70, 100
4, 18288, Note_on_c, 2, 74, 101
4, 18302, Note_on_c, 2, 74, 0
4, 18303, Note_on_c, 2, 70, 0
4, 18305, Note_on_c, 2, 65, 0
4, 18312, Note_on_c, 2, 70, 33
4, 18312, Note_on_c, 2, 74, 33
4, 18327, Note_on_c, 2, 70, 0
4, 18327, Note_on_c, 2, 74, 0
4, 18360, Note_on_c, 2, 68, 31
4, 18360, Note_on_c, 2, 72, 34
4, 18368, Note_on_c, 2, 68, 0
4, 18371, Note_on_c, 2, 72, 0
4, 18384, Note_on_c, 2, 68, 25
4, 18384, Note_on_c, 2, 72, 33
4, 18397, Note_on_c, 2, 68, 0
4, 18398, Note_on_c, 2, 72, 0
4, 18408, Note_on_c, 2, 63, 89
4, 18408, Note_on_c, 2, 68, 89
4, 18408, Note_on_c, 2, 72, 94
4, 18421, Note_on_c, 2, 63, 0
4, 18421, Note_on_c, 2, 68, 0
4, 18422, Note_on_c, 2, 72, 0
4, 18432, Note_on_c, 2, 72, 30
4, 18433, Note_on_c, 2, 68, 27
4, 18441, Note_on_c, 2, 68, 0
4, 18442, Note_on_c, 2, 72, 0
4, 18456, Note_on_c, 2, 68, 31
4, 18456, Note_on_c, 2, 72, 31
4, 18468, Note_on_c, 2, 68, 0
4, 18469, Note_on_c, 2, 72, 0
4, 18480, Note_on_c, 2, 68, 97
4, 18480, Note_on_c, 2, 63, 96
4, 18480, Note_on_c, 2, 72, 97
4, 18494, Note_on_c, 2, 63, 0
4, 18495, Note_on_c, 2, 68, 0
4, 18495, Note_on_c, 2, 72, 0
4, 18504, Note_on_c, 2, 68, 29
4, 18504, Note_on_c, 2, 72, 30
4, 18521, Note_on_c, 2, 68, 0
4, 18522, Note_on_c, 2, 72, 0
4, 18576, Note_on_c, 2, 67, 28
4, 18576, Note_on_c, 2, 70, 24
4, 18587, Note_on_c, 2, 67, 0
4, 18587, Note_on_c, 2, 70, 0
4, 18601, Note_on_c, 2, 63, 92
4, 18601, Note_on_c, 2, 67, 101
4, 18601, Note_on_c, 2, 70, 92
4, 18614, Note_on_c, 2, 63, 0
4, 18614, Note_on_c, 2, 70, 0
4, 18615, Note_on_c, 2, 67, 0
4, 18624, Note_on_c, 2, 67, 33
4, 18624, Note_on_c, 2, 70, 23
4, 18633, Note_on_c, 2, 67, 0
4, 18633, Note_on_c, 2, 70, 0
4, 18672, Note_on_c, 2, 63, 95
4, 18672, Note_on_c, 2, 68, 93
4, 18672, Note_on_c, 2, 72, 95
4, 18688, Note_on_c, 2, 68, 0
4, 18689, Note_on_c, 2, 72, 0
4, 18690, Note_on_c, 2, 63, 0
4, 18720, Note_on_c, 2, 63, 91
4, 18720, Note_on_c, 2, 67, 102
4, 18720, Note_on_c, 2, 70, 92
4, 18735, Note_on_c, 2, 63, 0
4, 18736, Note_on_c, 2, 67, 0
4, 18737, Note_on_c, 2, 70, 0
4, 18768, Note_on_c, 2, 67, 31
4, 18768, Note_on_c, 2, 70, 23
4, 18783, Note_on_c, 2, 67, 0
4, 18783, Note_on_c, 2, 70, 0
4, 18792, Note_on_c, 2, 63, 92
4, 18792, Note_on_c, 2, 67, 101
4, 18792, Note_on_c, 2, 70, 92
4, 18808, Note_on_c, 2, 63, 0
4, 18808, Note_on_c, 2, 67, 0
4, 18808, Note_on_c, 2, 70, 0
4, 18816, Note_on_c, 2, 67, 35
4, 18816, Note_on_c, 2, 70, 28
4, 18830, Note_on_c, 2, 67, 0
4, 18830, Note_on_c, 2, 70, 0
4, 18864, Note_on_c, 2, 63, 92
4, 18864, Note_on_c, 2, 68, 95
4, 18864, Note_on_c, 2, 72, 98
4, 18878, Note_on_c, 2, 68, 0
4, 18878, Note_on_c, 2, 72, 0
4, 18880, Note_on_c, 2, 63, 0
4, 18912, Note_on_c, 2, 67, 109
4, 18912, Note_on_c, 2, 63, 92
4, 18912, Note_on_c, 2, 70, 91
4, 18927, Note_on_c, 2, 63, 0
4, 18928, Note_on_c, 2, 67, 0
4, 18928, Note_on_c, 2, 70, 0
4, 18936, Note_on_c, 2, 63, 22
4, 18936, Note_on_c, 2, 67, 33
4, 18936, Note_on_c, 2, 70, 25
4, 18947, Note_on_c, 2, 63, 0
4, 18948, Note_on_c, 2, 67, 0
4, 18949, Note_on_c, 2, 70, 0
4, 18960, Note_on_c, 2, 63, 32
4, 18960, Note_on_c, 2, 67, 46
4, 18960, Note_on_c, 2, 70, 33
4, 18975, Note_on_c, 2, 67, 0
4, 18976, Note_on_c, 2, 63, 0
4, 18976, Note_on_c, 2, 70, 0
4, 18984, Note_on_c, 2, 63, 97
4, 18984, Note_on_c, 2, 67, 101
4, 18984, Note_on_c, 2, 70, 93
4, 18998, Note_on_c, 2, 63, 0
4, 18999, Note_on_c, 2, 67, 0
4, 18999, Note_on_c, 2, 70, 0
4, 19008, Note_on_c, 2, 63, 27
4, 19008, Note_on_c, 2, 67, 37
4, 19008, Note_on_c, 2, 70, 28
4, 19018, Note_on_c, 2, 63, 0
4, 19020, Note_on_c, 2, 67, 0
4, 19021, Note_on_c, 2, 70, 0
4, 19032, Note_on_c, 2, 67, 41
4, 19032, Note_on_c, 2, 70, 32
4, 19033, Note_on_c, 2, 63, 33
4, 19043, Note_on_c, 2, 63, 0
4, 19044, Note_on_c, 2, 67, 0
4, 19045, Note_on_c, 2, 70, 0
4, 19056, Note_on_c, 2, 63, 93
4, 19056, Note_on_c, 2, 67, 105
4, 19056, Note_on_c, 2, 70, 92
4, 19071, Note_on_c, 2, 63, 0
4, 19071, Note_on_c, 2, 67, 0
4, 19073, Note_on_c, 2, 70, 0
4, 19080, Note_on_c, 2, 67, 42
4, 19080, Note_on_c, 2, 63, 33
4, 19080, Note_on_c, 2, 70, 31
4, 19092, Note_on_c, 2, 63, 0
4, 19093, Note_on_c, 2, 67, 0
4, 19095, Note_on_c, 2, 70, 0
4, 19152, Note_on_c, 2, 67, 37
4, 19152, Note_on_c, 2, 63, 29
4, 19152, Note_on_c, 2, 71, 33
4, 19167, Note_on_c, 2, 63, 0
4, 19169, Note_on_c, 2, 67, 0
4, 19169, Note_on_c, 2, 71, 0
4, 19176, Note_on_c, 2, 67, 97
4, 19176, Note_on_c, 2, 63, 92
4, 19176, Note_on_c, 2, 71, 95
4, 19192, Note_on_c, 2, 71, 0
4, 19193, Note_on_c, 2, 67, 0
4, 19193, Note_on_c, 2, 63, 0
4, 19200, Note_on_c, 2, 67, 37
4, 19200, Note_on_c, 2, 71, 29
4, 19201, Note_on_c, 2, 63, 25
4, 19212, Note_on_c, 2, 63, 0
4, 19213, Note_on_c, 2, 67, 0
4, 19213, Note_on_c, 2, 71, 0
4, 19224, Note_on_c, 2, 63, 30
4, 19224, Note_on_c, 2, 67, 43
4, 19224, Note_on_c, 2, 71, 35
4, 19237, Note_on_c, 2, 63, 0
4, 19237, Note_on_c, 2, 67, 0
4, 19239, Note_on_c, 2, 71, 0
4, 19248, Note_on_c, 2, 63, 93
4, 19248, Note_on_c, 2, 67, 101
4, 19248, Note_on_c, 2, 71, 98
4, 19265, Note_on_c, 2, 63, 0
4, 19266, Note_on_c, 2, 67, 0
4, 19266, Note_on_c, 2, 71, 0
4, 19272, Note_on_c, 2, 63, 32
4, 19272, Note_on_c, 2, 67, 42
4, 19272, Note_on_c, 2, 71, 34
4, 19284, Note_on_c, 2, 63, 0
4, 19285, Note_on_c, 2, 67, 0
4, 19287, Note_on_c, 2, 71, 0
4, 19344, Note_on_c, 2, 68, 32
4, 19344, Note_on_c, 2, 63, 32
4, 19344, Note_on_c, 2, 72, 35
4, 19356, Note_on_c, 2, 63, 0
4, 19357, Note_on_c, 2, 68, 0
4, 19358, Note_on_c, 2, 72, 0
4, 19368, Note_on_c, 2, 63, 92
4, 19368, Note_on_c, 2, 68, 98
4, 19368, Note_on_c, 2, 72, 97
4, 19384, Note_on_c, 2, 72, 0
4, 19385, Note_on_c, 2, 68, 0
4, 19387, Note_on_c, 2, 63, 0
4, 19392, Note_on_c, 2, 63, 29
4, 19392, Note_on_c, 2, 68, 27
4, 19392, Note_on_c, 2, 72, 35
4, 19402, Note_on_c, 2, 68, 0
4, 19403, Note_on_c, 2, 63, 0
4, 19404, Note_on_c, 2, 72, 0
4, 19440, Note_on_c, 2, 63, 96
4, 19440, Note_on_c, 2, 68, 97
4, 19440, Note_on_c, 2, 72, 98
4, 19457, Note_on_c, 2, 72, 0
4, 19458, Note_on_c, 2, 68, 0
4, 19460, Note_on_c, 2, 63, 0
4, 19464, Note_on_c, 2, 68, 26
4, 19464, Note_on_c, 2, 63, 29
4, 19464, Note_on_c, 2, 72, 30
4, 19474, Note_on_c, 2, 63, 0
4, 19475, Note_on_c, 2, 68, 0
4, 19478, Note_on_c, 2, 72, 0
4, 19536, Note_on_c, 2, 63, 30
4, 19536, Note_on_c, 2, 69, 37
4, 19536, Note_on_c, 2, 72, 32
4, 19548, Note_on_c, 2, 63, 0
4, 19549, Note_on_c, 2, 69, 0
4, 19549, Note_on_c, 2, 72, 0
4, 19560, Note_on_c, 2, 63, 95
4, 19560, Note_on_c, 2, 69, 106
4, 19560, Note_on_c, 2, 72, 94
4, 19578, Note_on_c, 2, 63, 0
4, 19578, Note_on_c, 2, 72, 0
4, 19579, Note_on_c, 2, 69, 0
4, 19584, Note_on_c, 2, 63, 25
4, 19584, Note_on_c, 2, 69, 33
4, 19584, Note_on_c, 2, 72, 30
4, 19594, Note_on_c, 2, 63, 0
4, 19595, Note_on_c, 2, 69, 0
4, 19595, Note_on_c, 2, 72, 0
4, 19608, Note_on_c, 2, 63, 27
4, 19608, Note_on_c, 2, 69, 29
4, 19608, Note_on_c, 2, 72, 31
4, 19621, Note_on_c, 2, 63, 0
4, 19621, Note_on_c, 2, 69, 0
4, 19621, Note_on_c, 2, 72, 0
4, 19632, Note_on_c, 2, 63, 92
4, 19632, Note_on_c, 2, 69, 101
4, 19632, Note_on_c, 2, 72, 93
4, 19650, Note_on_c, 2, 63, 0
4, 19650, Note_on_c, 2, 69, 0
4, 19650, Note_on_c, 2, 72, 0
4, 19656, Note_on_c, 2, 72, 31
4, 19657, Note_on_c, 2, 63, 25
4, 19657, Note_on_c, 2, 69, 22
4, 19659, Note_on_c, 2, 69, 0
4, 19661, Note_on_c, 2, 63, 0
4, 19662, Note_on_c, 2, 72, 0
4, 19680, Note_on_c, 2, 63, 31
4, 19680, Note_on_c, 2, 69, 36
4, 19680, Note_on_c, 2, 72, 39
4, 19688, Note_on_c, 2, 63, 0
4, 19688, Note_on_c, 2, 69, 0
4, 19690, Note_on_c, 2, 72, 0
4, 19704, Note_on_c, 2, 63, 22
4, 19704, Note_on_c, 2, 67, 34
4, 19704, Note_on_c, 2, 70, 32
4, 19713, Note_on_c, 2, 63, 0
4, 19716, Note_on_c, 2, 67, 0
4, 19716, Note_on_c, 2, 70, 0
4, 19728, Note_on_c, 2, 63, 28
4, 19728, Note_on_c, 2, 67, 48
4, 19728, Note_on_c, 2, 70, 30
4, 19740, Note_on_c, 2, 63, 0
4, 19740, Note_on_c, 2, 67, 0
4, 19741, Note_on_c, 2, 70, 0
4, 19752, Note_on_c, 2, 63, 93
4, 19752, Note_on_c, 2, 67, 104
4, 19752, Note_on_c, 2, 70, 96
4, 19767, Note_on_c, 2, 63, 0
4, 19768, Note_on_c, 2, 67, 0
4, 19768, Note_on_c, 2, 70, 0
4, 19776, Note_on_c, 2, 63, 25
4, 19776, Note_on_c, 2, 67, 35
4, 19777, Note_on_c, 2, 70, 24
4, 19786, Note_on_c, 2, 63, 0
4, 19787, Note_on_c, 2, 67, 0
4, 19787, Note_on_c, 2, 70, 0
4, 19800, Note_on_c, 2, 63, 29
4, 19800, Note_on_c, 2, 67, 37
4, 19800, Note_on_c, 2, 70, 29
4, 19812, Note_on_c, 2, 63, 0
4, 19812, Note_on_c, 2, 67, 0
4, 19815, Note_on_c, 2, 70, 0
4, 19824, Note_on_c, 2, 67, 102
4, 19824, Note_on_c, 2, 63, 92
4, 19824, Note_on_c, 2, 70, 94
4, 19838, Note_on_c, 2, 63, 0
4, 19838, Note_on_c, 2, 67, 0
4, 19840, Note_on_c, 2, 70, 0
4, 19848, Note_on_c, 2, 63, 25
4, 19848, Note_on_c, 2, 67, 35
4, 19848, Note_on_c, 2, 70, 28
4, 19862, Note_on_c, 2, 63, 0
4, 19862, Note_on_c, 2, 67, 0
4, 19862, Note_on_c, 2, 70, 0
4, 19896, Note_on_c, 2, 65, 97
4, 19896, Note_on_c, 2, 70, 95
4, 19896, Note_on_c, 2, 74, 98
4, 19970, Note_on_c, 2, 74, 0
4, 19972, Note_on_c, 2, 65, 0
4, 19975, Note_on_c, 2, 70, 0
4, 19992, Note_on_c, 2, 63, 102
4, 19992, Note_on_c, 2, 68, 107
4, 19992, Note_on_c, 2, 72, 102
4, 20070, Note_on_c, 2, 63, 0
4, 20070, Note_on_c, 2, 68, 0
4, 20072, Note_on_c, 2, 72, 0
4, 20088, Note_on_c, 2, 63, 27
4, 20088, Note_on_c, 2, 70, 35
4, 20089, Note_on_c, 2, 67, 35
4, 20099, Note_on_c, 2, 63, 0
4, 20100, Note_on_c, 2, 67, 0
4, 20101, Note_on_c, 2, 70, 0
4, 20112, Note_on_c, 2, 63, 29
4, 20112, Note_on_c, 2, 67, 43
4, 20112, Note_on_c, 2, 70, 33
4, 20126, Note_on_c, 2, 63, 0
4, 20126, Note_on_c, 2, 67, 0
4, 20126, Note_on_c, 2, 70, 0
4, 20136, Note_on_c, 2, 63, 89
4, 20136, Note_on_c, 2, 67, 101
4, 20136, Note_on_c, 2, 70, 96
4, 20151, Note_on_c, 2, 67, 0
4, 20152, Note_on_c, 2, 63, 0
4, 20152, Note_on_c, 2, 70, 0
4, 20160, Note_on_c, 2, 63, 25
4, 20160, Note_on_c, 2, 67, 35
4, 20161, Note_on_c, 2, 70, 27
4, 20170, Note_on_c, 2, 63, 0
4, 20171, Note_on_c, 2, 67, 0
4, 20171, Note_on_c, 2, 70, 0
4, 20184, Note_on_c, 2, 63, 25
4, 20184, Note_on_c, 2, 67, 41
4, 20184, Note_on_c, 2, 70, 33
4, 20196, Note_on_c, 2, 70, 0
4, 20197, Note_on_c, 2, 67, 0
4, 20198, Note_on_c, 2, 63, 0
4, 20208, Note_on_c, 2, 63, 92
4, 20208, Note_on_c, 2, 68, 95
4, 20208, Note_on_c, 2, 72, 97
4, 20223, Note_on_c, 2, 68, 0
4, 20223, Note_on_c, 2, 72, 0
4, 20226, Note_on_c, 2, 63, 0
4, 20256, Note_on_c, 2, 63, 92
4, 20256, Note_on_c, 2, 67, 104
4, 20256, Note_on_c, 2, 70, 93
4, 20273, Note_on_c, 2, 63, 0
4, 20273, Note_on_c, 2, 67, 0
4, 20274, Note_on_c, 2, 70, 0
4, 20304, Note_on_c, 2, 63, 25
4, 20304, Note_on_c, 2, 67, 31
4, 20304, Note_on_c, 2, 70, 32
4, 20316, Note_on_c, 2, 63, 0
4, 20317, Note_on_c, 2, 67, 0
4, 20318, Note_on_c, 2, 70, 0
4, 20328, Note_on_c, 2, 63, 95
4, 20328, Note_on_c, 2, 67, 103
4, 20328, Note_on_c, 2, 70, 96
4, 20345, Note_on_c, 2, 63, 0
4, 20345, Note_on_c, 2, 67, 0
4, 20345, Note_on_c, 2, 70, 0
4, 20400, Note_on_c, 2, 63, 95
4, 20400, Note_on_c, 2, 68, 97
4, 20400, Note_on_c, 2, 72, 98
4, 20415, Note_on_c, 2, 68, 0
4, 20417, Note_on_c, 2, 72, 0
4, 20418, Note_on_c, 2, 63, 0
4, 20448, Note_on_c, 2, 63, 92
4, 20448, Note_on_c, 2, 67, 105
4, 20448, Note_on_c, 2, 70, 92
4, 20464, Note_on_c, 2, 63, 0
4, 20464, Note_on_c, 2, 67, 0
4, 20464, Note_on_c, 2, 70, 0
4, 21672, Note_on_c, 2, 68, 72
4, 21672, Note_on_c, 2, 72, 75
4, 21673, Note_on_c, 2, 65, 71
4, 21685, Note_on_c, 2, 65, 0
4, 21685, Note_on_c, 2, 68, 0
4, 21687, Note_on_c, 2, 72, 0
4, 21744, Note_on_c, 2, 70, 74
4, 21744, Note_on_c, 2, 65, 73
4, 21744, Note_on_c, 2, 74, 77
4, 21753, Note_on_c, 2, 65, 0
4, 21753, Note_on_c, 2, 70, 0
4, 21758, Note_on_c, 2, 74, 0
4, 21840, Note_on_c, 2, 70, 77
4, 21840, Note_on_c, 2, 67, 78
4, 21840, Note_on_c, 2, 75, 75
4, 21854, Note_on_c, 2, 67, 0
4, 21856, Note_on_c, 2, 70, 0
4, 21856, Note_on_c, 2, 75, 0
4, 21888, Note_on_c, 2, 67, 58
4, 21888, Note_on_c, 2, 70, 53
4, 21888, Note_on_c, 2, 75, 59
4, 21892, Note_on_c, 2, 70, 0
4, 21894, Note_on_c, 2, 75, 0
4, 21895, Note_on_c, 2, 67, 0
4, 21912, Note_on_c, 2, 67, 62
4, 21912, Note_on_c, 2, 70, 54
4, 21912, Note_on_c, 2, 75, 68
4, 21918, Note_on_c, 2, 70, 0
4, 21920, Note_on_c, 2, 75, 0
4, 21921, Note_on_c, 2, 67, 0
4, 21936, Note_on_c, 2, 70, 81
4, 21936, Note_on_c, 2, 67, 84
4, 21936, Note_on_c, 2, 75, 84
4, 21944, Note_on_c, 2, 67, 0
4, 21945, Note_on_c, 2, 70, 0
4, 21947, Note_on_c, 2, 75, 0
4, 21960, Note_on_c, 2, 67, 81
4, 21960, Note_on_c, 2, 70, 80
4, 21960, Note_on_c, 2, 75, 84
4, 21971, Note_on_c, 2, 70, 0
4, 21971, Note_on_c, 2, 75, 0
4, 21973, Note_on_c, 2, 67, 0
4, 23184, Note_on_c, 2, 65, 73
4, 23184, Note_on_c, 2, 68, 72
4, 23184, Note_on_c, 2, 72, 78
4, 23192, Note_on_c, 2, 68, 0
4, 23193, Note_on_c, 2, 65, 0
4, 23194, Note_on_c, 2, 72, 0
4, 23256, Note_on_c, 2, 65, 70
4, 23256, Note_on_c, 2, 74, 84
4, 23264, Note_on_c, 2, 65, 0
4, 23264, Note_on_c, 2, 74, 0
4, 23280, Note_on_c, 2, 65, 69
4, 23280, Note_on_c, 2, 70, 76
4, 23280, Note_on_c, 2, 74, 77
4, 23286, Note_on_c, 2, 70, 0
4, 23287, Note_on_c, 2, 65, 0
4, 23288, Note_on_c, 2, 74, 0
4, 23304, Note_on_c, 2, 70, 82
4, 23304, Note_on_c, 2, 74, 80
4, 23305, Note_on_c, 2, 65, 77
4, 23312, Note_on_c, 2, 70, 0
4, 23313, Note_on_c, 2, 65, 0
4, 23316, Note_on_c, 2, 74, 0
4, 27192, Note_on_c, 2, 70, 90
4, 27193, Note_on_c, 2, 67, 89
4, 27193, Note_on_c, 2, 75, 81
4, 27241, Note_on_c, 2, 67, 0
4, 27241, Note_on_c, 2, 70, 0
4, 27241, Note_on_c, 2, 75, 0
4, 27241, End_track
5, 0, Start_track
5, 0, Title_t, "Fantasy"
5, 0, Control_c, 3, 7, 96
5, 0, Pitch_bend_c, 3, 8192
5, 0, Control_c, 3, 1, 0
5, 0, Program_c, 3, 32
5, 0, Control_c, 3, 64, 0
5, 0, Control_c, 3, 10, 64
5, 4728, Note_on_c, 3, 60, 83
5, 5110, Note_on_c, 3, 60, 0
5, 5112, Note_on_c, 3, 58, 77
5, 5496, Note_on_c, 3, 59, 77
5, 5498, Note_on_c, 3, 58, 0
5, 5642, Note_on_c, 3, 59, 0
5, 5664, Note_on_c, 3, 60, 84
5, 5691, Note_on_c, 3, 60, 0
5, 5712, Note_on_c, 3, 58, 80
5, 5735, Note_on_c, 3, 58, 0
5, 5760, Note_on_c, 3, 56, 78
5, 5838, Note_on_c, 3, 56, 0
5, 6264, Note_on_c, 3, 60, 83
5, 6646, Note_on_c, 3, 60, 0
5, 6648, Note_on_c, 3, 58, 77
5, 7032, Note_on_c, 3, 59, 77
5, 7034, Note_on_c, 3, 58, 0
5, 7178, Note_on_c, 3, 59, 0
5, 7200, Note_on_c, 3, 60, 84
5, 7227, Note_on_c, 3, 60, 0
5, 7248, Note_on_c, 3, 58, 80
5, 7271, Note_on_c, 3, 58, 0
5, 7296, Note_on_c, 3, 56, 78
5, 7374, Note_on_c, 3, 56, 0
5, 7608, Note_on_c, 3, 63, 87
5, 7980, Note_on_c, 3, 63, 0
5, 7992, Note_on_c, 3, 63, 81
5, 8334, Note_on_c, 3, 63, 0
5, 9912, Note_on_c, 3, 58, 84
5, 10078, Note_on_c, 3, 58, 0
5, 10078, Note_on_c, 3, 59, 77
5, 10266, Note_on_c, 3, 59, 0
5, 10270, Note_on_c, 3, 60, 85
5, 10413, Note_on_c, 3, 60, 0
5, 10414, Note_on_c, 3, 62, 76
5, 10436, Note_on_c, 3, 63, 77
5, 10437, Note_on_c, 3, 62, 0
5, 10464, Note_on_c, 3, 65, 77
5, 10466, Note_on_c, 3, 63, 0
5, 10675, Note_on_c, 3, 65, 0
5, 10675, Note_on_c, 3, 67, 75
5, 10847, Note_on_c, 3, 67, 0
5, 10868, Note_on_c, 3, 67, 81
5, 10916, Note_on_c, 3, 65, 73
5, 10922, Note_on_c, 3, 67, 0
5, 10941, Note_on_c, 3, 65, 0
5, 10941, Note_on_c, 3, 63, 87
5, 10956, Note_on_c, 3, 63, 0
5, 10966, Note_on_c, 3, 63, 73
5, 10988, Note_on_c, 3, 63, 0
5, 10991, Note_on_c, 3, 65, 79
5, 11038, Note_on_c, 3, 65, 0
5, 11038, Note_on_c, 3, 63, 74
5, 11402, Note_on_c, 3, 63, 0
5, 11448, Note_on_c, 3, 60, 83
5, 11830, Note_on_c, 3, 60, 0
5, 11832, Note_on_c, 3, 58, 77
5, 12216, Note_on_c, 3, 59, 77
5, 12218, Note_on_c, 3, 58, 0
5, 12362, Note_on_c, 3, 59, 0
5, 12384, Note_on_c, 3, 60, 84
5, 12411, Note_on_c, 3, 60, 0
5, 12432, Note_on_c, 3, 58, 80
5, 12455, Note_on_c, 3, 58, 0
5, 12480, Note_on_c, 3, 56, 78
5, 12558, Note_on_c, 3, 56, 0
5, 12984, Note_on_c, 3, 60, 83
5, 13366, Note_on_c, 3, 60, 0
5, 13368, Note_on_c, 3, 58, 77
5, 13752, Note_on_c, 3, 59, 77
5, 13754, Note_on_c, 3, 58, 0
5, 13898, Note_on_c, 3, 59, 0
5, 13920, Note_on_c, 3, 60, 84
5, 13947, Note_on_c, 3, 60, 0
5, 13968, Note_on_c, 3, 58, 80
5, 13991, Note_on_c, 3, 58, 0
5, 14016, Note_on_c, 3, 56, 78
5, 14094, Note_on_c, 3, 56, 0
5, 14328, Note_on_c, 3, 75, 87
5, 14700, Note_on_c, 3, 75, 0
5, 14712, Note_on_c, 3, 75, 81
5, 15054, Note_on_c, 3, 75, 0
5, 18936, Note_on_c, 3, 58, 84
5, 19102, Note_on_c, 3, 59, 77
5, 19103, Note_on_c, 3, 58, 0
5, 19290, Note_on_c, 3, 59, 0
5, 19294, Note_on_c, 3, 60, 85
5, 19437, Note_on_c, 3, 60, 0
5, 19437, Note_on_c, 3, 62, 76
5, 19460, Note_on_c, 3, 63, 77
5, 19461, Note_on_c, 3, 62, 0
5, 19488, Note_on_c, 3, 65, 77
5, 19489, Note_on_c, 3, 63, 0
5, 19699, Note_on_c, 3, 65, 0
5, 19699, Note_on_c, 3, 67, 75
5, 19871, Note_on_c, 3, 67, 0
5, 19892, Note_on_c, 3, 67, 81
5, 19940, Note_on_c, 3, 65, 73
5, 19946, Note_on_c, 3, 67, 0
5, 19965, Note_on_c, 3, 65, 0
5, 19965, Note_on_c, 3, 63, 87
5, 19980, Note_on_c, 3, 63, 0
5, 19990, Note_on_c, 3, 63, 73
5, 20012, Note_on_c, 3, 63, 0
5, 20015, Note_on_c, 3, 65, 79
5, 20061, Note_on_c, 3, 65, 0
5, 20061, Note_on_c, 3, 63, 74
5, 20426, Note_on_c, 3, 63, 0
5, 20472, Note_on_c, 3, 60, 83
5, 20854, Note_on_c, 3, 60, 0
5, 20856, Note_on_c, 3, 58, 77
5, 21240, Note_on_c, 3, 59, 77
5, 21242, Note_on_c, 3, 58, 0
5, 21386, Note_on_c, 3, 59, 0
5, 21408, Note_on_c, 3, 60, 84
5, 21435, Note_on_c, 3, 60, 0
5, 21456, Note_on_c, 3, 58, 80
5, 21479, Note_on_c, 3, 58, 0
5, 21504, Note_on_c, 3, 56, 78
5, 21582, Note_on_c, 3, 56, 0
5, 22008, Note_on_c, 3, 60, 83
5, 22390, Note_on_c, 3, 60, 0
5, 22392, Note_on_c, 3, 58, 77
5, 22776, Note_on_c, 3, 59, 77
5, 22778, Note_on_c, 3, 58, 0
5, 22922, Note_on_c, 3, 59, 0
5, 22944, Note_on_c, 3, 60, 84
5, 22971, Note_on_c, 3, 60, 0
5, 22992, Note_on_c, 3, 58, 80
5, 23015, Note_on_c, 3, 58, 0
5, 23040, Note_on_c, 3, 56, 78
5, 23118, Note_on_c, 3, 56, 0
5, 23736, Note_on_c, 3, 75, 87
5, 24108, Note_on_c, 3, 75, 0
5, 24120, Note_on_c, 3, 75, 81
5, 24462, Note_on_c, 3, 75, 0
5, 24504, Note_on_c, 3, 75, 87
5, 24876, Note_on_c, 3, 75, 0
5, 24888, Note_on_c, 3, 75, 81
5, 25230, Note_on_c, 3, 75, 0
5, 25272, Note_on_c, 3, 75, 87
5, 25644, Note_on_c, 3, 75, 0
5, 25656, Note_on_c, 3, 75, 81
5, 25998, Note_on_c, 3, 75, 0
5, 26040, Note_on_c, 3, 75, 87
5, 26412, Note_on_c, 3, 75, 0
5, 26424, Note_on_c, 3, 75, 81
5, 26766, Note_on_c, 3, 75, 0
5, 26810, Note_on_c, 3, 82, 77
5, 26857, Note_on_c, 3, 80, 69
5, 26905, Note_on_c, 3, 78, 72
5, 26910, Note_on_c, 3, 80, 0
5, 26950, Note_on_c, 3, 77, 81
5, 26952, Note_on_c, 3, 78, 0
5, 26999, Note_on_c, 3, 80, 72
5, 27001, Note_on_c, 3, 77, 0
5, 27003, Note_on_c, 3, 82, 0
5, 27050, Note_on_c, 3, 56, 73
5, 27097, Note_on_c, 3, 60, 77
5, 27142, Note_on_c, 3, 63, 84
5, 27187, Note_on_c, 3, 80, 0
5, 27189, Note_on_c, 3, 63, 0
5, 27189, Note_on_c, 3, 60, 0
5, 27191, Note_on_c, 3, 56, 0
5, 27191, End_track
6, 0, Start_track
6, 0, Title_t, "E. Guitar"
6, 0, Control_c, 4, 7, 96
6, 0, Program_c, 4, 61
6, 0, Control_c, 4, 1, 1
6, 12, Control_c, 4, 7, 97
6, 18, Control_c, 4, 7, 99
6, 24, Control_c, 4, 7, 100
6, 30, Control_c, 4, 7, 102
6, 36, Control_c, 4, 7, 105
6, 42, Control_c, 4, 7, 127
6, 48, Control_c, 4, 7, 127
6, 1680, Note_on_c, 4, 55, 75
6, 1703, Note_on_c, 4, 56, 72
6, 1704, Note_on_c, 4, 55, 0
6, 1726, Note_on_c, 4, 56, 0
6, 1727, Note_on_c, 4, 58, 77
6, 1774, Note_on_c, 4, 58, 0
6, 1775, Note_on_c, 4, 51, 72
6, 1794, Control_c, 4, 1, 2
6, 1794, Control_c, 4, 1, 5
6, 1794, Control_c, 4, 1, 7
6, 1795, Control_c, 4, 1, 11
6, 1796, Control_c, 4, 1, 14
6, 1797, Control_c, 4, 1, 18
6, 1798, Control_c, 4, 1, 21
6, 1798, Control_c, 4, 1, 24
6, 1799, Control_c, 4, 1, 28
6, 1800, Control_c, 4, 1, 31
6, 1800, Control_c, 4, 1, 34
6, 1801, Control_c, 4, 1, 37
6, 1802, Control_c, 4, 1, 39
6, 1802, Control_c, 4, 1, 41
6, 1804, Control_c, 4, 1, 43
6, 1804, Control_c, 4, 1, 45
6, 1805, Control_c, 4, 1, 46
6, 1805, Control_c, 4, 1, 48
6, 1805, Control_c, 4, 1, 49
6, 1807, Control_c, 4, 1, 51
6, 1808, Control_c, 4, 1, 53
6, 1808, Control_c, 4, 1, 54
6, 1810, Control_c, 4, 1, 56
6, 1810, Control_c, 4, 1, 57
6, 1810, Control_c, 4, 1, 58
6, 1811, Control_c, 4, 1, 59
6, 1812, Control_c, 4, 1, 60
6, 1813, Control_c, 4, 1, 61
6, 1815, Control_c, 4, 1, 62
6, 1817, Control_c, 4, 1, 63
6, 1818, Control_c, 4, 1, 64
6, 1821, Control_c, 4, 1, 63
6, 1821, Control_c, 4, 1, 62
6, 1821, Note_on_c, 4, 59, 75
6, 1822, Note_on_c, 4, 51, 0
6, 1822, Control_c, 4, 1, 61
6, 1824, Control_c, 4, 1, 60
6, 1825, Control_c, 4, 1, 59
6, 1825, Control_c, 4, 1, 58
6, 1826, Control_c, 4, 1, 57
6, 1826, Control_c, 4, 1, 55
6, 1827, Control_c, 4, 1, 53
6, 1828, Control_c, 4, 1, 52
6, 1828, Control_c, 4, 1, 51
6, 1829, Control_c, 4, 1, 50
6, 1831, Control_c, 4, 1, 49
6, 1835, Control_c, 4, 1, 50
6, 1837, Control_c, 4, 1, 51
6, 1838, Control_c, 4, 1, 52
6, 1839, Control_c, 4, 1, 53
6, 1839, Control_c, 4, 1, 54
6, 1841, Control_c, 4, 1, 55
6, 1843, Control_c, 4, 1, 56
6, 1845, Control_c, 4, 1, 55
6, 1846, Control_c, 4, 1, 54
6, 1849, Control_c, 4, 1, 55
6, 1850, Control_c, 4, 1, 56
6, 1852, Control_c, 4, 1, 57
6, 1853, Control_c, 4, 1, 58
6, 1853, Control_c, 4, 1, 59
6, 1856, Control_c, 4, 1, 60
6, 1856, Control_c, 4, 1, 61
6, 1859, Control_c, 4, 1, 62
6, 1859, Control_c, 4, 1, 61
6, 1861, Control_c, 4, 1, 58
6, 1861, Control_c, 4, 1, 53
6, 1862, Control_c, 4, 1, 46
6, 1863, Control_c, 4, 1, 38
6, 1864, Control_c, 4, 1, 29
6, 1864, Control_c, 4, 1, 20
6, 1865, Control_c, 4, 1, 12
6, 1866, Control_c, 4, 1, 6
6, 1866, Control_c, 4, 1, 1
6, 1868, Control_c, 4, 1, 0
6, 1941, Note_on_c, 4, 59, 0
6, 1966, Note_on_c, 4, 59, 80
6, 1973, Note_on_c, 4, 59, 0
6, 1990, Note_on_c, 4, 59, 84
6, 2014, Note_on_c, 4, 60, 76
6, 2015, Note_on_c, 4, 59, 0
6, 2048, Note_on_c, 4, 60, 0
6, 2063, Note_on_c, 4, 60, 78
6, 2075, Note_on_c, 4, 60, 0
6, 2088, Note_on_c, 4, 60, 77
6, 2110, Note_on_c, 4, 58, 74
6, 2114, Note_on_c, 4, 60, 0
6, 2159, Note_on_c, 4, 56, 73
6, 2160, Note_on_c, 4, 58, 0
6, 2183, Note_on_c, 4, 56, 0
6, 2183, Note_on_c, 4, 55, 76
6, 2204, Note_on_c, 4, 56, 77
6, 2207, Note_on_c, 4, 55, 0
6, 2211, Control_c, 4, 1, 1
6, 2213, Control_c, 4, 1, 2
6, 2213, Control_c, 4, 1, 3
6, 2214, Control_c, 4, 1, 4
6, 2215, Control_c, 4, 1, 5
6, 2215, Control_c, 4, 1, 6
6, 2216, Control_c, 4, 1, 7
6, 2218, Control_c, 4, 1, 8
6, 2218, Control_c, 4, 1, 10
6, 2219, Control_c, 4, 1, 12
6, 2220, Control_c, 4, 1, 15
6, 2220, Control_c, 4, 1, 17
6, 2221, Control_c, 4, 1, 19
6, 2222, Control_c, 4, 1, 21
6, 2222, Control_c, 4, 1, 23
6, 2223, Control_c, 4, 1, 26
6, 2224, Control_c, 4, 1, 27
6, 2224, Control_c, 4, 1, 29
6, 2226, Control_c, 4, 1, 30
6, 2226, Control_c, 4, 1, 31
6, 2227, Control_c, 4, 1, 32
6, 2228, Control_c, 4, 1, 33
6, 2230, Note_on_c, 4, 56, 0
6, 2230, Control_c, 4, 1, 34
6, 2231, Control_c, 4, 1, 35
6, 2231, Note_on_c, 4, 55, 79
6, 2235, Control_c, 4, 1, 36
6, 2236, Control_c, 4, 1, 37
6, 2243, Control_c, 4, 1, 38
6, 2246, Control_c, 4, 1, 39
6, 2249, Control_c, 4, 1, 40
6, 2250, Control_c, 4, 1, 39
6, 2250, Control_c, 4, 1, 36
6, 2252, Control_c, 4, 1, 31
6, 2252, Control_c, 4, 1, 24
6, 2253, Control_c, 4, 1, 16
6, 2253, Control_c, 4, 1, 9
6, 2254, Control_c, 4, 1, 4
6, 2255, Control_c, 4, 1, 1
6, 2256, Control_c, 4, 1, 0
6, 2337, Note_on_c, 4, 55, 0
6, 2350, Note_on_c, 4, 63, 76
6, 2358, Note_on_c, 4, 63, 0
6, 2375, Note_on_c, 4, 63, 70
6, 2383, Note_on_c, 4, 63, 0
6, 2396, Note_on_c, 4, 63, 73
6, 2449, Note_on_c, 4, 62, 80
6, 2453, Note_on_c, 4, 63, 0
6, 2456, Note_on_c, 4, 62, 0
6, 2471, Note_on_c, 4, 62, 81
6, 2479, Note_on_c, 4, 62, 0
6, 2495, Note_on_c, 4, 62, 79
6, 2566, Note_on_c, 4, 53, 73
6, 2567, Note_on_c, 4, 62, 0
6, 2587, Note_on_c, 4, 53, 0
6, 2587, Note_on_c, 4, 55, 73
6, 2608, Note_on_c, 4, 55, 0
6, 2611, Note_on_c, 4, 56, 77
6, 2664, Pitch_bend_c, 4, 8800
6, 2665, Pitch_bend_c, 4, 10048
6, 2665, Pitch_bend_c, 4, 12096
6, 2666, Pitch_bend_c, 4, 14304
6, 2667, Pitch_bend_c, 4, 15968
6, 2667, Pitch_bend_c, 4, 16383
6, 2672, Note_on_c, 4, 56, 0
6, 2686, Note_on_c, 4, 56, 82
6, 2693, Note_on_c, 4, 56, 0
6, 2709, Pitch_bend_c, 4, 15520
6, 2709, Pitch_bend_c, 4, 13984
6, 2709, Note_on_c, 4, 56, 87
6, 2710, Pitch_bend_c, 4, 11936
6, 2711, Pitch_bend_c, 4, 10176
6, 2712, Pitch_bend_c, 4, 8832
6, 2712, Pitch_bend_c, 4, 8192
6, 2827, Note_on_c, 4, 56, 0
6, 2828, Note_on_c, 4, 55, 78
6, 2834, Control_c, 4, 1, 1
6, 2835, Control_c, 4, 1, 2
6, 2835, Control_c, 4, 1, 3
6, 2837, Control_c, 4, 1, 4
6, 2837, Control_c, 4, 1, 5
6, 2838, Control_c, 4, 1, 6
6, 2839, Control_c, 4, 1, 7
6, 2840, Control_c, 4, 1, 9
6, 2840, Control_c, 4, 1, 11
6, 2841, Control_c, 4, 1, 12
6, 2841, Control_c, 4, 1, 13
6, 2842, Control_c, 4, 1, 15
6, 2843, Control_c, 4, 1, 16
6, 2844, Control_c, 4, 1, 17
6, 2845, Control_c, 4, 1, 19
6, 2845, Control_c, 4, 1, 20
6, 2846, Control_c, 4, 1, 22
6, 2847, Control_c, 4, 1, 23
6, 2847, Control_c, 4, 1, 25
6, 2848, Control_c, 4, 1, 26
6, 2850, Control_c, 4, 1, 27
6, 2851, Control_c, 4, 1, 28
6, 2851, Control_c, 4, 1, 29
6, 2851, Control_c, 4, 1, 31
6, 2853, Control_c, 4, 1, 32
6, 2853, Control_c, 4, 1, 33
6, 2854, Control_c, 4, 1, 34
6, 2855, Control_c, 4, 1, 35
6, 2856, Control_c, 4, 1, 36
6, 2858, Control_c, 4, 1, 37
6, 2859, Control_c, 4, 1, 38
6, 2861, Control_c, 4, 1, 39
6, 2861, Control_c, 4, 1, 40
6, 2862, Control_c, 4, 1, 41
6, 2863, Control_c, 4, 1, 42
6, 2865, Control_c, 4, 1, 43
6, 2866, Control_c, 4, 1, 44
6, 2867, Control_c, 4, 1, 45
6, 2867, Control_c, 4, 1, 46
6, 2867, Control_c, 4, 1, 47
6, 2868, Control_c, 4, 1, 48
6, 2870, Control_c, 4, 1, 49
6, 2871, Control_c, 4, 1, 50
6, 2872, Control_c, 4, 1, 51
6, 2873, Control_c, 4, 1, 52
6, 2874, Control_c, 4, 1, 53
6, 2877, Control_c, 4, 1, 54
6, 2878, Control_c, 4, 1, 55
6, 2879, Control_c, 4, 1, 56
6, 2881, Control_c, 4, 1, 57
6, 2882, Control_c, 4, 1, 58
6, 2885, Control_c, 4, 1, 59
6, 2888, Control_c, 4, 1, 58
6, 2890, Control_c, 4, 1, 57
6, 2897, Control_c, 4, 1, 58
6, 2909, Control_c, 4, 1, 59
6, 2911, Control_c, 4, 1, 60
6, 2913, Control_c, 4, 1, 61
6, 2914, Control_c, 4, 1, 62
6, 2919, Control_c, 4, 1, 60
6, 2920, Control_c, 4, 1, 59
6, 2921, Control_c, 4, 1, 57
6, 2921, Control_c, 4, 1, 56
6, 2922, Control_c, 4, 1, 55
6, 2923, Control_c, 4, 1, 52
6, 2924, Control_c, 4, 1, 49
6, 2924, Control_c, 4, 1, 44
6, 2926, Control_c, 4, 1, 38
6, 2927, Control_c, 4, 1, 31
6, 2927, Control_c, 4, 1, 23
6, 2927, Control_c, 4, 1, 15
6, 2928, Control_c, 4, 1, 8
6, 2929, Control_c, 4, 1, 3
6, 2930, Control_c, 4, 1, 0
6, 3008, Note_on_c, 4, 55, 0
6, 3215, Note_on_c, 4, 55, 75
6, 3235, Note_on_c, 4, 56, 74
6, 3237, Note_on_c, 4, 55, 0
6, 3261, Note_on_c, 4, 56, 0
6, 3261, Note_on_c, 4, 58, 78
6, 3310, Note_on_c, 4, 58, 0
6, 3310, Note_on_c, 4, 51, 77
6, 3341, Control_c, 4, 1, 1
6, 3342, Control_c, 4, 1, 2
6, 3343, Control_c, 4, 1, 3
6, 3344, Control_c, 4, 1, 4
6, 3345, Control_c, 4, 1, 5
6, 3346, Control_c, 4, 1, 6
6, 3346, Control_c, 4, 1, 7
6, 3347, Control_c, 4, 1, 8
6, 3348, Control_c, 4, 1, 9
6, 3349, Control_c, 4, 1, 10
6, 3349, Control_c, 4, 1, 11
6, 3350, Control_c, 4, 1, 12
6, 3352, Control_c, 4, 1, 13
6, 3353, Control_c, 4, 1, 14
6, 3353, Control_c, 4, 1, 16
6, 3353, Control_c, 4, 1, 17
6, 3355, Note_on_c, 4, 51, 0
6, 3355, Control_c, 4, 1, 18
6, 3355, Control_c, 4, 1, 19
6, 3356, Control_c, 4, 1, 20
6, 3356, Control_c, 4, 1, 22
6, 3356, Note_on_c, 4, 59, 77
6, 3357, Control_c, 4, 1, 23
6, 3358, Control_c, 4, 1, 25
6, 3358, Control_c, 4, 1, 26
6, 3360, Control_c, 4, 1, 27
6, 3360, Control_c, 4, 1, 28
6, 3361, Control_c, 4, 1, 30
6, 3362, Control_c, 4, 1, 31
6, 3363, Control_c, 4, 1, 32
6, 3364, Control_c, 4, 1, 33
6, 3367, Control_c, 4, 1, 32
6, 3368, Control_c, 4, 1, 30
6, 3369, Control_c, 4, 1, 29
6, 3369, Control_c, 4, 1, 28
6, 3370, Control_c, 4, 1, 27
6, 3373, Control_c, 4, 1, 28
6, 3374, Control_c, 4, 1, 30
6, 3375, Control_c, 4, 1, 31
6, 3377, Control_c, 4, 1, 32
6, 3377, Control_c, 4, 1, 33
6, 3379, Control_c, 4, 1, 34
6, 3381, Control_c, 4, 1, 35
6, 3382, Control_c, 4, 1, 36
6, 3388, Control_c, 4, 1, 35
6, 3389, Control_c, 4, 1, 34
6, 3393, Control_c, 4, 1, 33
6, 3393, Control_c, 4, 1, 32
6, 3395, Control_c, 4, 1, 30
6, 3395, Control_c, 4, 1, 28
6, 3396, Control_c, 4, 1, 25
6, 3396, Control_c, 4, 1, 21
6, 3397, Control_c, 4, 1, 16
6, 3398, Control_c, 4, 1, 11
6, 3399, Control_c, 4, 1, 6
6, 3399, Control_c, 4, 1, 3
6, 3400, Control_c, 4, 1, 0
6, 3482, Note_on_c, 4, 59, 0
6, 3501, Note_on_c, 4, 59, 79
6, 3508, Note_on_c, 4, 59, 0
6, 3524, Note_on_c, 4, 59, 81
6, 3550, Note_on_c, 4, 60, 77
6, 3552, Note_on_c, 4, 59, 0
6, 3621, Note_on_c, 4, 60, 0
6, 3622, Pitch_bend_c, 4, 8288
6, 3622, Note_on_c, 4, 63, 79
6, 3623, Pitch_bend_c, 4, 8992
6, 3623, Pitch_bend_c, 4, 10496
6, 3624, Pitch_bend_c, 4, 12672
6, 3625, Pitch_bend_c, 4, 14816
6, 3626, Pitch_bend_c, 4, 16383
6, 3628, Note_on_c, 4, 63, 0
6, 3645, Note_on_c, 4, 63, 77
6, 3653, Note_on_c, 4, 63, 0
6, 3665, Pitch_bend_c, 4, 16224
6, 3665, Pitch_bend_c, 4, 14880
6, 3666, Pitch_bend_c, 4, 12896
6, 3667, Pitch_bend_c, 4, 10848
6, 3668, Pitch_bend_c, 4, 9280
6, 3668, Pitch_bend_c, 4, 8384
6, 3669, Note_on_c, 4, 63, 81
6, 3670, Pitch_bend_c, 4, 8192
6, 3790, Note_on_c, 4, 63, 0
6, 3790, Note_on_c, 4, 58, 63
6, 3813, Note_on_c, 4, 58, 0
6, 3813, Note_on_c, 4, 60, 77
6, 3867, Pitch_bend_c, 4, 8288
6, 3868, Pitch_bend_c, 4, 9184
6, 3868, Pitch_bend_c, 4, 11008
6, 3869, Pitch_bend_c, 4, 13280
6, 3870, Pitch_bend_c, 4, 15424
6, 3871, Pitch_bend_c, 4, 16383
6, 3884, Note_on_c, 4, 60, 0
6, 3888, Note_on_c, 4, 58, 74
6, 3896, Note_on_c, 4, 58, 0
6, 3911, Note_on_c, 4, 58, 79
6, 3923, Note_on_c, 4, 58, 0
6, 3933, Pitch_bend_c, 4, 15360
6, 3934, Pitch_bend_c, 4, 13536
6, 3934, Note_on_c, 4, 65, 87
6, 3935, Pitch_bend_c, 4, 11456
6, 3936, Pitch_bend_c, 4, 9760
6, 3936, Pitch_bend_c, 4, 8544
6, 3937, Pitch_bend_c, 4, 8192
6, 4032, Note_on_c, 4, 65, 0
6, 4033, Note_on_c, 4, 63, 69
6, 4106, Note_on_c, 4, 63, 0
6, 4106, Note_on_c, 4, 60, 69
6, 4128, Note_on_c, 4, 60, 0
6, 4128, Note_on_c, 4, 58, 77
6, 4147, Note_on_c, 4, 58, 0
6, 4151, Note_on_c, 4, 67, 88
6, 4197, Note_on_c, 4, 65, 78
6, 4199, Note_on_c, 4, 67, 0
6, 4219, Note_on_c, 4, 63, 67
6, 4223, Note_on_c, 4, 65, 0
6, 4228, Note_on_c, 4, 63, 0
6, 4244, Note_on_c, 4, 63, 82
6, 4269, Note_on_c, 4, 63, 0
6, 4270, Note_on_c, 4, 65, 73
6, 4292, Control_c, 4, 1, 1
6, 4293, Control_c, 4, 1, 2
6, 4294, Control_c, 4, 1, 3
6, 4294, Control_c, 4, 1, 4
6, 4295, Control_c, 4, 1, 5
6, 4296, Control_c, 4, 1, 6
6, 4297, Control_c, 4, 1, 7
6, 4297, Control_c, 4, 1, 9
6, 4298, Control_c, 4, 1, 11
6, 4299, Control_c, 4, 1, 12
6, 4300, Control_c, 4, 1, 13
6, 4300, Control_c, 4, 1, 14
6, 4302, Control_c, 4, 1, 16
6, 4302, Control_c, 4, 1, 17
6, 4302, Control_c, 4, 1, 18
6, 4303, Control_c, 4, 1, 19
6, 4303, Control_c, 4, 1, 20
6, 4305, Control_c, 4, 1, 21
6, 4306, Control_c, 4, 1, 22
6, 4307, Control_c, 4, 1, 23
6, 4308, Control_c, 4, 1, 25
6, 4308, Control_c, 4, 1, 26
6, 4309, Control_c, 4, 1, 28
6, 4310, Control_c, 4, 1, 29
6, 4310, Control_c, 4, 1, 30
6, 4311, Control_c, 4, 1, 31
6, 4312, Control_c, 4, 1, 32
6, 4314, Control_c, 4, 1, 33
6, 4315, Control_c, 4, 1, 35
6, 4317, Control_c, 4, 1, 36
6, 4317, Note_on_c, 4, 63, 77
6, 4318, Control_c, 4, 1, 37
6, 4318, Control_c, 4, 1, 38
6, 4319, Note_on_c, 4, 65, 0
6, 4319, Control_c, 4, 1, 39
6, 4320, Control_c, 4, 1, 40
6, 4321, Control_c, 4, 1, 41
6, 4321, Control_c, 4, 1, 42
6, 4324, Control_c, 4, 1, 43
6, 4335, Control_c, 4, 1, 44
6, 4340, Control_c, 4, 1, 43
6, 4342, Control_c, 4, 1, 42
6, 4343, Control_c, 4, 1, 41
6, 4345, Control_c, 4, 1, 40
6, 4347, Control_c, 4, 1, 39
6, 4347, Control_c, 4, 1, 38
6, 4349, Control_c, 4, 1, 37
6, 4350, Control_c, 4, 1, 36
6, 4350, Control_c, 4, 1, 35
6, 4351, Control_c, 4, 1, 34
6, 4351, Control_c, 4, 1, 33
6, 4353, Control_c, 4, 1, 32
6, 4355, Control_c, 4, 1, 33
6, 4356, Control_c, 4, 1, 34
6, 4357, Control_c, 4, 1, 36
6, 4357, Control_c, 4, 1, 37
6, 4358, Control_c, 4, 1, 38
6, 4359, Control_c, 4, 1, 39
6, 4360, Control_c, 4, 1, 40
6, 4361, Control_c, 4, 1, 41
6, 4363, Control_c, 4, 1, 42
6, 4364, Control_c, 4, 1, 43
6, 4370, Control_c, 4, 1, 44
6, 4373, Control_c, 4, 1, 43
6, 4373, Control_c, 4, 1, 42
6, 4373, Control_c, 4, 1, 40
6, 4374, Control_c, 4, 1, 38
6, 4375, Control_c, 4, 1, 36
6, 4377, Control_c, 4, 1, 33
6, 4377, Control_c, 4, 1, 31
6, 4378, Control_c, 4, 1, 29
6, 4378, Control_c, 4, 1, 28
6, 4379, Control_c, 4, 1, 27
6, 4379, Control_c, 4, 1, 26
6, 4382, Control_c, 4, 1, 25
6, 4385, Control_c, 4, 1, 26
6, 4386, Control_c, 4, 1, 27
6, 4387, Control_c, 4, 1, 28
6, 4388, Control_c, 4, 1, 29
6, 4389, Control_c, 4, 1, 30
6, 4391, Control_c, 4, 1, 31
6, 4391, Control_c, 4, 1, 32
6, 4394, Control_c, 4, 1, 33
6, 4398, Control_c, 4, 1, 34
6, 4407, Control_c, 4, 1, 35
6, 4409, Control_c, 4, 1, 36
6, 4411, Control_c, 4, 1, 37
6, 4414, Control_c, 4, 1, 38
6, 4417, Control_c, 4, 1, 39
6, 4423, Control_c, 4, 1, 38
6, 4423, Control_c, 4, 1, 37
6, 4424, Control_c, 4, 1, 35
6, 4424, Control_c, 4, 1, 32
6, 4426, Control_c, 4, 1, 30
6, 4426, Control_c, 4, 1, 26
6, 4427, Control_c, 4, 1, 22
6, 4427, Control_c, 4, 1, 17
6, 4427, Control_c, 4, 1, 12
6, 4429, Control_c, 4, 1, 7
6, 4430, Control_c, 4, 1, 4
6, 4430, Control_c, 4, 1, 1
6, 4432, Control_c, 4, 1, 0
6, 4491, Pitch_bend_c, 4, 9024
6, 4491, Pitch_bend_c, 4, 11360
6, 4492, Pitch_bend_c, 4, 13664
6, 4493, Pitch_bend_c, 4, 15968
6, 4493, Pitch_bend_c, 4, 16383
6, 4501, Note_on_c, 4, 63, 0
6, 4559, Note_on_c, 4, 65, 86
6, 4561, Pitch_bend_c, 4, 15968
6, 4562, Pitch_bend_c, 4, 14144
6, 4563, Pitch_bend_c, 4, 12064
6, 4563, Pitch_bend_c, 4, 10048
6, 4564, Pitch_bend_c, 4, 8416
6, 4564, Pitch_bend_c, 4, 8192
6, 4679, Note_on_c, 4, 63, 67
6, 4681, Note_on_c, 4, 65, 0
6, 4685, Note_on_c, 4, 63, 0
6, 4703, Note_on_c, 4, 63, 77
6, 4752, Note_on_c, 4, 58, 69
6, 4753, Note_on_c, 4, 63, 0
6, 4775, Note_on_c, 4, 60, 73
6, 4776, Note_on_c, 4, 58, 0
6, 4835, Note_on_c, 4, 60, 0
6, 4873, Pitch_bend_c, 4, 8928
6, 4873, Pitch_bend_c, 4, 10976
6, 4874, Pitch_bend_c, 4, 13248
6, 4875, Pitch_bend_c, 4, 15520
6, 4876, Pitch_bend_c, 4, 16383
6, 4941, Note_on_c, 4, 65, 83
6, 4944, Pitch_bend_c, 4, 15968
6, 4944, Pitch_bend_c, 4, 14368
6, 4945, Pitch_bend_c, 4, 12192
6, 4946, Pitch_bend_c, 4, 10240
6, 4947, Pitch_bend_c, 4, 8800
6, 4947, Pitch_bend_c, 4, 8192
6, 5062, Note_on_c, 4, 63, 67
6, 5063, Note_on_c, 4, 65, 0
6, 5071, Note_on_c, 4, 63, 0
6, 5085, Note_on_c, 4, 63, 85
6, 5115, Control_c, 4, 1, 1
6, 5115, Control_c, 4, 1, 2
6, 5116, Control_c, 4, 1, 4
6, 5117, Control_c, 4, 1, 6
6, 5118, Control_c, 4, 1, 9
6, 5118, Control_c, 4, 1, 12
6, 5119, Note_on_c, 4, 63, 0
6, 5119, Control_c, 4, 1, 16
6, 5119, Note_on_c, 4, 60, 67
6, 5120, Control_c, 4, 1, 19
6, 5120, Control_c, 4, 1, 23
6, 5122, Control_c, 4, 1, 27
6, 5123, Control_c, 4, 1, 31
6, 5123, Control_c, 4, 1, 34
6, 5123, Control_c, 4, 1, 38
6, 5124, Control_c, 4, 1, 40
6, 5125, Control_c, 4, 1, 43
6, 5126, Control_c, 4, 1, 45
6, 5126, Control_c, 4, 1, 48
6, 5127, Control_c, 4, 1, 50
6, 5128, Control_c, 4, 1, 53
6, 5129, Control_c, 4, 1, 55
6, 5129, Control_c, 4, 1, 58
6, 5130, Control_c, 4, 1, 60
6, 5131, Note_on_c, 4, 60, 0
6, 5131, Control_c, 4, 1, 61
6, 5131, Control_c, 4, 1, 63
6, 5132, Note_on_c, 4, 58, 80
6, 5133, Control_c, 4, 1, 64
6, 5133, Control_c, 4, 1, 66
6, 5134, Control_c, 4, 1, 68
6, 5135, Control_c, 4, 1, 69
6, 5135, Control_c, 4, 1, 71
6, 5136, Control_c, 4, 1, 72
6, 5137, Control_c, 4, 1, 73
6, 5138, Control_c, 4, 1, 74
6, 5138, Control_c, 4, 1, 75
6, 5140, Control_c, 4, 1, 76
6, 5142, Control_c, 4, 1, 75
6, 5143, Control_c, 4, 1, 74
6, 5143, Control_c, 4, 1, 72
6, 5144, Control_c, 4, 1, 70
6, 5145, Control_c, 4, 1, 68
6, 5145, Control_c, 4, 1, 67
6, 5146, Control_c, 4, 1, 65
6, 5147, Control_c, 4, 1, 64
6, 5147, Control_c, 4, 1, 63
6, 5149, Control_c, 4, 1, 62
6, 5150, Control_c, 4, 1, 61
6, 5151, Control_c, 4, 1, 60
6, 5151, Control_c, 4, 1, 59
6, 5153, Control_c, 4, 1, 58
6, 5157, Control_c, 4, 1, 59
6, 5158, Control_c, 4, 1, 60
6, 5160, Control_c, 4, 1, 58
6, 5161, Control_c, 4, 1, 56
6, 5163, Control_c, 4, 1, 55
6, 5164, Control_c, 4, 1, 54
6, 5165, Control_c, 4, 1, 53
6, 5166, Control_c, 4, 1, 52
6, 5168, Control_c, 4, 1, 51
6, 5171, Control_c, 4, 1, 50
6, 5173, Control_c, 4, 1, 49
6, 5173, Control_c, 4, 1, 48
6, 5175, Control_c, 4, 1, 47
6, 5176, Control_c, 4, 1, 46
6, 5176, Control_c, 4, 1, 44
6, 5177, Control_c, 4, 1, 43
6, 5178, Control_c, 4, 1, 41
6, 5179, Control_c, 4, 1, 37
6, 5179, Control_c, 4, 1, 33
6, 5181, Control_c, 4, 1, 26
6, 5181, Control_c, 4, 1, 18
6, 5182, Control_c, 4, 1, 10
6, 5183, Control_c, 4, 1, 4
6, 5184, Control_c, 4, 1, 1
6, 5184, Control_c, 4, 1, 0
6, 5259, Note_on_c, 4, 58, 0
6, 5382, Pitch_bend_c, 4, 8064
6, 5383, Pitch_bend_c, 4, 7680
6, 5383, Pitch_bend_c, 4, 7168
6, 5384, Pitch_bend_c, 4, 6400
6, 5385, Pitch_bend_c, 4, 5632
6, 5385, Pitch_bend_c, 4, 4736
6, 5386, Pitch_bend_c, 4, 3776
6, 5387, Pitch_bend_c, 4, 2880
6, 5388, Pitch_bend_c, 4, 2048
6, 5389, Pitch_bend_c, 4, 1152
6, 5389, Pitch_bend_c, 4, 384
6, 5390, Pitch_bend_c, 4, 0
6, 5405, Pitch_bend_c, 4, 480
6, 5405, Pitch_bend_c, 4, 1312
6, 5405, Pitch_bend_c, 4, 2272
6, 5406, Pitch_bend_c, 4, 3264
6, 5407, Pitch_bend_c, 4, 4480
6, 5407, Pitch_bend_c, 4, 5664
6, 5408, Pitch_bend_c, 4, 6816
6, 5409, Pitch_bend_c, 4, 7584
6, 5409, Pitch_bend_c, 4, 8032
6, 5410, Pitch_bend_c, 4, 8192
6, 5440, Pitch_bend_c, 4, 8096
6, 5441, Pitch_bend_c, 4, 7840
6, 5442, Pitch_bend_c, 4, 7392
6, 5442, Pitch_bend_c, 4, 6880
6, 5443, Pitch_bend_c, 4, 6432
6, 5444, Pitch_bend_c, 4, 5920
6, 5444, Pitch_bend_c, 4, 5536
6, 5446, Pitch_bend_c, 4, 5184
6, 5446, Pitch_bend_c, 4, 4864
6, 5447, Pitch_bend_c, 4, 4544
6, 5447, Pitch_bend_c, 4, 4288
6, 5448, Pitch_bend_c, 4, 4032
6, 5449, Pitch_bend_c, 4, 3840
6, 5450, Pitch_bend_c, 4, 3712
6, 5450, Pitch_bend_c, 4, 3520
6, 5451, Pitch_bend_c, 4, 3392
6, 5452, Pitch_bend_c, 4, 3264
6, 5454, Pitch_bend_c, 4, 3328
6, 5455, Pitch_bend_c, 4, 3520
6, 5455, Pitch_bend_c, 4, 3840
6, 5456, Pitch_bend_c, 4, 4224
6, 5457, Pitch_bend_c, 4, 4800
6, 5458, Pitch_bend_c, 4, 5472
6, 5459, Pitch_bend_c, 4, 6304
6, 5459, Pitch_bend_c, 4, 7136
6, 5460, Pitch_bend_c, 4, 7712
6, 5461, Pitch_bend_c, 4, 8160
6, 5461, Pitch_bend_c, 4, 8192
6, 5470, Note_on_c, 4, 67, 80
6, 5541, Note_on_c, 4, 65, 81
6, 5546, Note_on_c, 4, 67, 0
6, 5568, Note_on_c, 4, 65, 0
6, 5569, Note_on_c, 4, 63, 79
6, 5620, Note_on_c, 4, 63, 0
6, 5662, Note_on_c, 4, 67, 89
6, 5687, Note_on_c, 4, 67, 0
6, 5712, Note_on_c, 4, 63, 81
6, 5734, Note_on_c, 4, 63, 0
6, 5759, Note_on_c, 4, 60, 82
6, 5809, Pitch_bend_c, 4, 8384
6, 5810, Note_on_c, 4, 60, 0
6, 5810, Pitch_bend_c, 4, 9504
6, 5811, Pitch_bend_c, 4, 11328
6, 5812, Pitch_bend_c, 4, 13600
6, 5813, Pitch_bend_c, 4, 15584
6, 5813, Pitch_bend_c, 4, 16383
6, 5831, Note_on_c, 4, 60, 84
6, 5853, Note_on_c, 4, 63, 77
6, 5854, Note_on_c, 4, 60, 0
6, 5858, Pitch_bend_c, 4, 15936
6, 5859, Pitch_bend_c, 4, 14368
6, 5860, Note_on_c, 4, 63, 0
6, 5860, Pitch_bend_c, 4, 12128
6, 5860, Pitch_bend_c, 4, 10208
6, 5861, Pitch_bend_c, 4, 8800
6, 5862, Pitch_bend_c, 4, 8192
6, 5878, Note_on_c, 4, 65, 83
6, 5951, Note_on_c, 4, 63, 67
6, 5955, Note_on_c, 4, 65, 0
6, 5957, Note_on_c, 4, 63, 0
6, 5974, Note_on_c, 4, 63, 80
6, 5981, Note_on_c, 4, 63, 0
6, 5990, Control_c, 4, 1, 1
6, 5991, Control_c, 4, 1, 3
6, 5991, Control_c, 4, 1, 6
6, 5993, Control_c, 4, 1, 10
6, 5993, Control_c, 4, 1, 13
6, 5994, Control_c, 4, 1, 18
6, 5994, Control_c, 4, 1, 22
6, 5996, Control_c, 4, 1, 26
6, 5997, Control_c, 4, 1, 31
6, 5997, Control_c, 4, 1, 35
6, 5997, Control_c, 4, 1, 39
6, 5997, Control_c, 4, 1, 43
6, 5997, Note_on_c, 4, 63, 74
6, 5999, Control_c, 4, 1, 47
6, 6000, Control_c, 4, 1, 51
6, 6000, Control_c, 4, 1, 56
6, 6001, Control_c, 4, 1, 60
6, 6001, Control_c, 4, 1, 64
6, 6002, Control_c, 4, 1, 67
6, 6003, Control_c, 4, 1, 69
6, 6004, Control_c, 4, 1, 71
6, 6005, Control_c, 4, 1, 73
6, 6006, Control_c, 4, 1, 74
6, 6007, Control_c, 4, 1, 73
6, 6008, Control_c, 4, 1, 69
6, 6009, Control_c, 4, 1, 62
6, 6009, Control_c, 4, 1, 52
6, 6009, Control_c, 4, 1, 40
6, 6011, Control_c, 4, 1, 27
6, 6012, Control_c, 4, 1, 16
6, 6012, Control_c, 4, 1, 7
6, 6013, Control_c, 4, 1, 2
6, 6013, Control_c, 4, 1, 0
6, 6019, Note_on_c, 4, 63, 0
6, 6022, Note_on_c, 4, 65, 78
6, 6032, Pitch_bend_c, 4, 8096
6, 6032, Pitch_bend_c, 4, 7712
6, 6033, Pitch_bend_c, 4, 6944
6, 6034, Pitch_bend_c, 4, 5920
6, 6035, Pitch_bend_c, 4, 4800
6, 6035, Pitch_bend_c, 4, 3648
6, 6036, Pitch_bend_c, 4, 2656
6, 6036, Pitch_bend_c, 4, 1696
6, 6037, Pitch_bend_c, 4, 864
6, 6038, Pitch_bend_c, 4, 224
6, 6039, Pitch_bend_c, 4, 0
6, 6042, Note_on_c, 4, 65, 0
6, 6043, Note_on_c, 4, 63, 72
6, 6054, Pitch_bend_c, 4, 480
6, 6055, Pitch_bend_c, 4, 1248
6, 6056, Pitch_bend_c, 4, 2144
6, 6056, Pitch_bend_c, 4, 3072
6, 6057, Pitch_bend_c, 4, 4160
6, 6058, Pitch_bend_c, 4, 5376
6, 6058, Pitch_bend_c, 4, 6560
6, 6060, Pitch_bend_c, 4, 7456
6, 6060, Pitch_bend_c, 4, 8032
6, 6061, Pitch_bend_c, 4, 8192
6, 6076, Pitch_bend_c, 4, 8032
6, 6077, Pitch_bend_c, 4, 7712
6, 6077, Pitch_bend_c, 4, 7200
6, 6078, Pitch_bend_c, 4, 6560
6, 6079, Pitch_bend_c, 4, 5920
6, 6079, Pitch_bend_c, 4, 5440
6, 6080, Pitch_bend_c, 4, 4864
6, 6081, Pitch_bend_c, 4, 4480
6, 6082, Pitch_bend_c, 4, 4160
6, 6083, Pitch_bend_c, 4, 3968
6, 6083, Pitch_bend_c, 4, 3840
6, 6083, Pitch_bend_c, 4, 3776
6, 6085, Pitch_bend_c, 4, 3840
6, 6087, Note_on_c, 4, 63, 0
6, 6087, Pitch_bend_c, 4, 3968
6, 6087, Pitch_bend_c, 4, 4224
6, 6088, Pitch_bend_c, 4, 4608
6, 6088, Pitch_bend_c, 4, 5184
6, 6089, Pitch_bend_c, 4, 5856
6, 6090, Pitch_bend_c, 4, 6688
6, 6090, Pitch_bend_c, 4, 7392
6, 6091, Pitch_bend_c, 4, 7904
6, 6093, Pitch_bend_c, 4, 8192
6, 6118, Note_on_c, 4, 67, 87
6, 6169, Note_on_c, 4, 65, 79
6, 6175, Note_on_c, 4, 67, 0
6, 6213, Note_on_c, 4, 63, 79
6, 6215, Note_on_c, 4, 65, 0
6, 6222, Note_on_c, 4, 63, 0
6, 6239, Note_on_c, 4, 63, 79
6, 6288, Note_on_c, 4, 58, 65
6, 6291, Note_on_c, 4, 63, 0
6, 6309, Note_on_c, 4, 60, 75
6, 6310, Note_on_c, 4, 58, 0
6, 6361, Note_on_c, 4, 60, 0
6, 6411, Pitch_bend_c, 4, 9152
6, 6411, Pitch_bend_c, 4, 11328
6, 6412, Pitch_bend_c, 4, 13600
6, 6413, Pitch_bend_c, 4, 15872
6, 6414, Pitch_bend_c, 4, 16383
6, 6478, Pitch_bend_c, 4, 16224
6, 6479, Pitch_bend_c, 4, 14976
6, 6479, Pitch_bend_c, 4, 13152
6, 6479, Note_on_c, 4, 65, 83
6, 6480, Pitch_bend_c, 4, 11104
6, 6481, Pitch_bend_c, 4, 9504
6, 6481, Pitch_bend_c, 4, 8480
6, 6482, Pitch_bend_c, 4, 8192
6, 6598, Note_on_c, 4, 63, 65
6, 6601, Note_on_c, 4, 65, 0
6, 6606, Note_on_c, 4, 63, 0
6, 6622, Note_on_c, 4, 63, 86
6, 6643, Control_c, 4, 1, 1
6, 6644, Control_c, 4, 1, 2
6, 6645, Control_c, 4, 1, 3
6, 6646, Control_c, 4, 1, 5
6, 6646, Control_c, 4, 1, 7
6, 6648, Control_c, 4, 1, 10
6, 6648, Control_c, 4, 1, 12
6, 6649, Control_c, 4, 1, 14
6, 6649, Control_c, 4, 1, 16
6, 6650, Control_c, 4, 1, 18
6, 6651, Control_c, 4, 1, 20
6, 6651, Control_c, 4, 1, 23
6, 6652, Control_c, 4, 1, 25
6, 6653, Control_c, 4, 1, 28
6, 6653, Control_c, 4, 1, 31
6, 6654, Control_c, 4, 1, 34
6, 6655, Control_c, 4, 1, 37
6, 6656, Control_c, 4, 1, 39
6, 6656, Control_c, 4, 1, 40
6, 6657, Control_c, 4, 1, 42
6, 6658, Control_c, 4, 1, 43
6, 6658, Note_on_c, 4, 60, 70
6, 6659, Note_on_c, 4, 63, 0
6, 6659, Control_c, 4, 1, 45
6, 6659, Control_c, 4, 1, 46
6, 6660, Control_c, 4, 1, 47
6, 6661, Control_c, 4, 1, 48
6, 6662, Control_c, 4, 1, 49
6, 6663, Control_c, 4, 1, 50
6, 6665, Control_c, 4, 1, 51
6, 6669, Note_on_c, 4, 60, 0
6, 6669, Note_on_c, 4, 58, 77
6, 6672, Control_c, 4, 1, 52
6, 6674, Control_c, 4, 1, 53
6, 6675, Control_c, 4, 1, 54
6, 6678, Control_c, 4, 1, 52
6, 6678, Control_c, 4, 1, 51
6, 6679, Control_c, 4, 1, 49
6, 6680, Control_c, 4, 1, 46
6, 6680, Control_c, 4, 1, 44
6, 6681, Control_c, 4, 1, 43
6, 6682, Control_c, 4, 1, 41
6, 6683, Control_c, 4, 1, 40
6, 6683, Control_c, 4, 1, 39
6, 6684, Control_c, 4, 1, 38
6, 6685, Control_c, 4, 1, 37
6, 6685, Control_c, 4, 1, 36
6, 6687, Control_c, 4, 1, 35
6, 6689, Control_c, 4, 1, 34
6, 6689, Control_c, 4, 1, 33
6, 6691, Control_c, 4, 1, 34
6, 6692, Control_c, 4, 1, 36
6, 6693, Control_c, 4, 1, 38
6, 6694, Control_c, 4, 1, 40
6, 6695, Control_c, 4, 1, 41
6, 6695, Control_c, 4, 1, 42
6, 6696, Control_c, 4, 1, 43
6, 6696, Control_c, 4, 1, 44
6, 6699, Control_c, 4, 1, 42
6, 6699, Control_c, 4, 1, 40
6, 6700, Control_c, 4, 1, 38
6, 6701, Control_c, 4, 1, 35
6, 6702, Control_c, 4, 1, 33
6, 6703, Control_c, 4, 1, 32
6, 6705, Control_c, 4, 1, 31
6, 6707, Control_c, 4, 1, 30
6, 6708, Control_c, 4, 1, 29
6, 6709, Control_c, 4, 1, 28
6, 6710, Control_c, 4, 1, 27
6, 6710, Control_c, 4, 1, 26
6, 6711, Control_c, 4, 1, 25
6, 6712, Control_c, 4, 1, 23
6, 6713, Control_c, 4, 1, 21
6, 6713, Control_c, 4, 1, 18
6, 6714, Control_c, 4, 1, 14
6, 6715, Control_c, 4, 1, 10
6, 6715, Control_c, 4, 1, 6
6, 6716, Control_c, 4, 1, 2
6, 6717, Control_c, 4, 1, 0
6, 6788, Note_on_c, 4, 58, 0
6, 6937, Pitch_bend_c, 4, 8480
6, 6938, Pitch_bend_c, 4, 9696
6, 6938, Pitch_bend_c, 4, 11840
6, 6939, Pitch_bend_c, 4, 14112
6, 6940, Pitch_bend_c, 4, 15968
6, 6941, Pitch_bend_c, 4, 16383
6, 7007, Pitch_bend_c, 4, 16032
6, 7007, Note_on_c, 4, 65, 85
6, 7008, Pitch_bend_c, 4, 15104
6, 7009, Pitch_bend_c, 4, 13792
6, 7009, Pitch_bend_c, 4, 12192
6, 7010, Pitch_bend_c, 4, 10496
6, 7011, Pitch_bend_c, 4, 9184
6, 7012, Pitch_bend_c, 4, 8416
6, 7013, Pitch_bend_c, 4, 8192
6, 7105, Note_on_c, 4, 65, 0
6, 7105, Note_on_c, 4, 63, 77
6, 7165, Note_on_c, 4, 63, 0
6, 7198, Note_on_c, 4, 67, 87
6, 7223, Note_on_c, 4, 67, 0
6, 7246, Note_on_c, 4, 63, 86
6, 7254, Control_c, 4, 1, 1
6, 7259, Control_c, 4, 1, 2
6, 7265, Control_c, 4, 1, 1
6, 7266, Control_c, 4, 1, 0
6, 7269, Note_on_c, 4, 63, 0
6, 7294, Note_on_c, 4, 60, 85
6, 7345, Pitch_bend_c, 4, 8576
6, 7346, Pitch_bend_c, 4, 10048
6, 7347, Pitch_bend_c, 4, 12448
6, 7347, Pitch_bend_c, 4, 14720
6, 7348, Pitch_bend_c, 4, 16383
6, 7351, Note_on_c, 4, 60, 0
6, 7367, Note_on_c, 4, 60, 86
6, 7388, Note_on_c, 4, 63, 80
6, 7389, Note_on_c, 4, 60, 0
6, 7392, Pitch_bend_c, 4, 16224
6, 7393, Pitch_bend_c, 4, 15104
6, 7394, Pitch_bend_c, 4, 13344
6, 7394, Pitch_bend_c, 4, 11328
6, 7395, Pitch_bend_c, 4, 9696
6, 7395, Pitch_bend_c, 4, 8576
6, 7396, Note_on_c, 4, 63, 0
6, 7396, Pitch_bend_c, 4, 8192
6, 7413, Note_on_c, 4, 65, 84
6, 7487, Note_on_c, 4, 65, 0
6, 7487, Note_on_c, 4, 63, 71
6, 7492, Note_on_c, 4, 63, 0
6, 7511, Note_on_c, 4, 63, 76
6, 7517, Note_on_c, 4, 63, 0
6, 7533, Note_on_c, 4, 63, 81
6, 7557, Note_on_c, 4, 63, 0
6, 7559, Note_on_c, 4, 65, 73
6, 7570, Control_c, 4, 1, 1
6, 7572, Control_c, 4, 1, 2
6, 7574, Control_c, 4, 1, 3
6, 7575, Control_c, 4, 1, 4
6, 7577, Control_c, 4, 1, 5
6, 7577, Control_c, 4, 1, 6
6, 7578, Control_c, 4, 1, 7
6, 7578, Control_c, 4, 1, 8
6, 7579, Control_c, 4, 1, 9
6, 7580, Control_c, 4, 1, 10
6, 7581, Control_c, 4, 1, 11
6, 7581, Control_c, 4, 1, 12
6, 7582, Control_c, 4, 1, 13
6, 7582, Note_on_c, 4, 63, 66
6, 7583, Note_on_c, 4, 65, 0
6, 7583, Control_c, 4, 1, 14
6, 7584, Control_c, 4, 1, 15
6, 7584, Control_c, 4, 1, 16
6, 7585, Control_c, 4, 1, 17
6, 7586, Control_c, 4, 1, 18
6, 7587, Control_c, 4, 1, 19
6, 7588, Control_c, 4, 1, 20
6, 7590, Control_c, 4, 1, 21
6, 7595, Control_c, 4, 1, 22
6, 7598, Control_c, 4, 1, 23
6, 7600, Control_c, 4, 1, 24
6, 7604, Control_c, 4, 1, 25
6, 7605, Control_c, 4, 1, 26
6, 7609, Control_c, 4, 1, 27
6, 7628, Control_c, 4, 1, 28
6, 7634, Control_c, 4, 1, 27
6, 7635, Control_c, 4, 1, 26
6, 7636, Control_c, 4, 1, 25
6, 7637, Control_c, 4, 1, 23
6, 7637, Control_c, 4, 1, 22
6, 7639, Control_c, 4, 1, 21
6, 7639, Control_c, 4, 1, 20
6, 7640, Control_c, 4, 1, 19
6, 7641, Control_c, 4, 1, 18
6, 7644, Control_c, 4, 1, 19
6, 7646, Control_c, 4, 1, 20
6, 7647, Control_c, 4, 1, 21
6, 7651, Control_c, 4, 1, 19
6, 7652, Control_c, 4, 1, 18
6, 7654, Control_c, 4, 1, 17
6, 7656, Control_c, 4, 1, 16
6, 7667, Control_c, 4, 1, 17
6, 7669, Control_c, 4, 1, 18
6, 7670, Control_c, 4, 1, 17
6, 7671, Control_c, 4, 1, 16
6, 7672, Control_c, 4, 1, 15
6, 7672, Control_c, 4, 1, 13
6, 7674, Control_c, 4, 1, 12
6, 7676, Control_c, 4, 1, 13
6, 7677, Control_c, 4, 1, 14
6, 7679, Control_c, 4, 1, 15
6, 7679, Control_c, 4, 1, 16
6, 7686, Control_c, 4, 1, 15
6, 7688, Control_c, 4, 1, 16
6, 7688, Control_c, 4, 1, 17
6, 7691, Control_c, 4, 1, 18
6, 7693, Control_c, 4, 1, 17
6, 7694, Control_c, 4, 1, 15
6, 7694, Control_c, 4, 1, 13
6, 7696, Control_c, 4, 1, 12
6, 7696, Control_c, 4, 1, 11
6, 7697, Control_c, 4, 1, 10
6, 7701, Control_c, 4, 1, 9
6, 7703, Control_c, 4, 1, 8
6, 7704, Control_c, 4, 1, 7
6, 7705, Control_c, 4, 1, 6
6, 7706, Control_c, 4, 1, 5
6, 7706, Control_c, 4, 1, 3
6, 7707, Control_c, 4, 1, 1
6, 7709, Control_c, 4, 1, 0
6, 7783, Note_on_c, 4, 63, 0
6, 8400, Note_on_c, 4, 55, 73
6, 8421, Note_on_c, 4, 56, 82
6, 8425, Note_on_c, 4, 55, 0
6, 8447, Note_on_c, 4, 56, 0
6, 8449, Note_on_c, 4, 58, 87
6, 8496, Note_on_c, 4, 58, 0
6, 8497, Note_on_c, 4, 51, 69
6, 8518, Note_on_c, 4, 51, 0
6, 8520, Note_on_c, 4, 59, 84
6, 8656, Note_on_c, 4, 59, 0
6, 8688, Note_on_c, 4, 59, 80
6, 8695, Note_on_c, 4, 59, 0
6, 8711, Note_on_c, 4, 59, 78
6, 8735, Note_on_c, 4, 59, 0
6, 8736, Note_on_c, 4, 60, 77
6, 8768, Note_on_c, 4, 60, 0
6, 8785, Note_on_c, 4, 60, 77
6, 8795, Note_on_c, 4, 60, 0
6, 8806, Note_on_c, 4, 60, 75
6, 8831, Note_on_c, 4, 60, 0
6, 8831, Note_on_c, 4, 58, 77
6, 8880, Note_on_c, 4, 56, 76
6, 8881, Note_on_c, 4, 58, 0
6, 8902, Note_on_c, 4, 56, 0
6, 8902, Note_on_c, 4, 55, 73
6, 8926, Note_on_c, 4, 56, 81
6, 8927, Note_on_c, 4, 55, 0
6, 8951, Note_on_c, 4, 56, 0
6, 8952, Note_on_c, 4, 55, 77
6, 9063, Note_on_c, 4, 55, 0
6, 9070, Note_on_c, 4, 63, 75
6, 9080, Note_on_c, 4, 63, 0
6, 9096, Note_on_c, 4, 63, 72
6, 9105, Note_on_c, 4, 63, 0
6, 9118, Note_on_c, 4, 63, 72
6, 9127, Note_on_c, 4, 63, 0
6, 9141, Note_on_c, 4, 63, 73
6, 9191, Note_on_c, 4, 62, 81
6, 9192, Note_on_c, 4, 63, 0
6, 9202, Note_on_c, 4, 62, 0
6, 9217, Note_on_c, 4, 62, 83
6, 9267, Note_on_c, 4, 62, 0
6, 9286, Note_on_c, 4, 53, 80
6, 9309, Note_on_c, 4, 55, 74
6, 9310, Note_on_c, 4, 53, 0
6, 9332, Note_on_c, 4, 56, 78
6, 9333, Note_on_c, 4, 55, 0
6, 9368, Note_on_c, 4, 56, 0
6, 9406, Note_on_c, 4, 56, 81
6, 9412, Note_on_c, 4, 56, 0
6, 9430, Note_on_c, 4, 56, 81
6, 9454, Note_on_c, 4, 56, 0
6, 9456, Note_on_c, 4, 58, 73
6, 9502, Note_on_c, 4, 56, 77
6, 9505, Note_on_c, 4, 58, 0
6, 9551, Note_on_c, 4, 55, 70
6, 9552, Note_on_c, 4, 56, 0
6, 9716, Note_on_c, 4, 55, 0
6, 9937, Note_on_c, 4, 55, 70
6, 9955, Note_on_c, 4, 56, 67
6, 9959, Note_on_c, 4, 55, 0
6, 9983, Note_on_c, 4, 58, 79
6, 9986, Note_on_c, 4, 56, 0
6, 10031, Note_on_c, 4, 51, 69
6, 10032, Note_on_c, 4, 58, 0
6, 10053, Note_on_c, 4, 51, 0
6, 10053, Note_on_c, 4, 59, 77
6, 10199, Note_on_c, 4, 59, 0
6, 10221, Note_on_c, 4, 59, 84
6, 10229, Note_on_c, 4, 59, 0
6, 10245, Note_on_c, 4, 59, 79
6, 10270, Note_on_c, 4, 60, 75
6, 10271, Note_on_c, 4, 59, 0
6, 10320, Note_on_c, 4, 60, 0
6, 10321, Note_on_c, 4, 63, 73
6, 10336, Note_on_c, 4, 63, 0
6, 10345, Pitch_bend_c, 4, 8800
6, 10347, Pitch_bend_c, 4, 10144
6, 10347, Pitch_bend_c, 4, 12224
6, 10348, Pitch_bend_c, 4, 14464
6, 10349, Pitch_bend_c, 4, 16096
6, 10349, Pitch_bend_c, 4, 16383
6, 10368, Note_on_c, 4, 63, 91
6, 10388, Pitch_bend_c, 4, 16288
6, 10389, Pitch_bend_c, 4, 14912
6, 10389, Pitch_bend_c, 4, 12832
6, 10390, Pitch_bend_c, 4, 10752
6, 10391, Pitch_bend_c, 4, 9184
6, 10392, Pitch_bend_c, 4, 8224
6, 10393, Pitch_bend_c, 4, 8192
6, 10509, Note_on_c, 4, 63, 0
6, 10510, Note_on_c, 4, 58, 69
6, 10532, Note_on_c, 4, 60, 75
6, 10533, Note_on_c, 4, 58, 0
6, 10586, Note_on_c, 4, 60, 0
6, 10610, Note_on_c, 4, 58, 77
6, 10631, Note_on_c, 4, 58, 0
6, 10631, Note_on_c, 4, 60, 73
6, 10653, Note_on_c, 4, 58, 80
6, 10654, Note_on_c, 4, 60, 0
6, 10675, Note_on_c, 4, 58, 0
6, 10678, Note_on_c, 4, 67, 84
6, 10725, Note_on_c, 4, 65, 80
6, 10730, Note_on_c, 4, 67, 0
6, 10753, Note_on_c, 4, 63, 81
6, 10754, Note_on_c, 4, 65, 0
6, 10802, Note_on_c, 4, 58, 75
6, 10804, Note_on_c, 4, 63, 0
6, 10823, Note_on_c, 4, 58, 0
6, 10823, Note_on_c, 4, 60, 67
6, 10845, Note_on_c, 4, 60, 0
6, 10845, Note_on_c, 4, 58, 80
6, 10858, Note_on_c, 4, 58, 0
6, 10871, Note_on_c, 4, 67, 87
6, 10918, Note_on_c, 4, 65, 76
6, 10922, Note_on_c, 4, 67, 0
6, 10942, Note_on_c, 4, 63, 77
6, 10943, Note_on_c, 4, 65, 0
6, 10948, Note_on_c, 4, 63, 0
6, 10967, Note_on_c, 4, 63, 87
6, 10990, Note_on_c, 4, 63, 0
6, 10992, Note_on_c, 4, 65, 73
6, 11038, Note_on_c, 4, 63, 74
6, 11040, Note_on_c, 4, 65, 0
6, 11185, Pitch_bend_c, 4, 8160
6, 11186, Pitch_bend_c, 4, 7840
6, 11186, Pitch_bend_c, 4, 7392
6, 11187, Pitch_bend_c, 4, 6688
6, 11187, Pitch_bend_c, 4, 5984
6, 11189, Pitch_bend_c, 4, 5248
6, 11190, Pitch_bend_c, 4, 4544
6, 11190, Pitch_bend_c, 4, 3904
6, 11192, Pitch_bend_c, 4, 3328
6, 11193, Pitch_bend_c, 4, 2816
6, 11193, Pitch_bend_c, 4, 2400
6, 11194, Pitch_bend_c, 4, 2080
6, 11194, Pitch_bend_c, 4, 1760
6, 11195, Pitch_bend_c, 4, 1568
6, 11197, Pitch_bend_c, 4, 1440
6, 11197, Pitch_bend_c, 4, 1312
6, 11198, Pitch_bend_c, 4, 1248
6, 11199, Pitch_bend_c, 4, 1120
6, 11199, Pitch_bend_c, 4, 1056
6, 11200, Pitch_bend_c, 4, 928
6, 11201, Pitch_bend_c, 4, 800
6, 11202, Pitch_bend_c, 4, 672
6, 11202, Pitch_bend_c, 4, 480
6, 11203, Pitch_bend_c, 4, 352
6, 11204, Pitch_bend_c, 4, 224
6, 11205, Pitch_bend_c, 4, 96
6, 11206, Pitch_bend_c, 4, 0
6, 11210, Pitch_bend_c, 4, 96
6, 11211, Pitch_bend_c, 4, 224
6, 11211, Pitch_bend_c, 4, 352
6, 11212, Pitch_bend_c, 4, 544
6, 11213, Pitch_bend_c, 4, 800
6, 11214, Pitch_bend_c, 4, 1120
6, 11215, Pitch_bend_c, 4, 1504
6, 11215, Pitch_bend_c, 4, 2080
6, 11216, Pitch_bend_c, 4, 2752
6, 11217, Pitch_bend_c, 4, 3520
6, 11218, Pitch_bend_c, 4, 4352
6, 11218, Pitch_bend_c, 4, 5184
6, 11219, Pitch_bend_c, 4, 5984
6, 11220, Pitch_bend_c, 4, 6688
6, 11221, Pitch_bend_c, 4, 7328
6, 11222, Pitch_bend_c, 4, 7776
6, 11222, Pitch_bend_c, 4, 8096
6, 11224, Pitch_bend_c, 4, 8192
6, 11232, Note_on_c, 4, 63, 0
6, 11253, Pitch_bend_c, 4, 8032
6, 11253, Pitch_bend_c, 4, 7776
6, 11254, Pitch_bend_c, 4, 7520
6, 11255, Pitch_bend_c, 4, 7136
6, 11256, Pitch_bend_c, 4, 6880
6, 11257, Pitch_bend_c, 4, 6624
6, 11257, Pitch_bend_c, 4, 6304
6, 11258, Pitch_bend_c, 4, 6112
6, 11259, Pitch_bend_c, 4, 5856
6, 11260, Pitch_bend_c, 4, 5536
6, 11261, Pitch_bend_c, 4, 5312
6, 11261, Pitch_bend_c, 4, 5056
6, 11262, Pitch_bend_c, 4, 4800
6, 11263, Pitch_bend_c, 4, 4544
6, 11264, Pitch_bend_c, 4, 4352
6, 11265, Pitch_bend_c, 4, 4288
6, 11265, Pitch_bend_c, 4, 4224
6, 11266, Pitch_bend_c, 4, 4352
6, 11267, Pitch_bend_c, 4, 4480
6, 11268, Pitch_bend_c, 4, 4800
6, 11269, Pitch_bend_c, 4, 5184
6, 11269, Pitch_bend_c, 4, 5600
6, 11270, Pitch_bend_c, 4, 6176
6, 11271, Pitch_bend_c, 4, 6944
6, 11272, Pitch_bend_c, 4, 7520
6, 11272, Pitch_bend_c, 4, 7968
6, 11273, Pitch_bend_c, 4, 8192
6, 11278, Note_on_c, 4, 67, 78
6, 11352, Note_on_c, 4, 65, 83
6, 11357, Note_on_c, 4, 67, 0
6, 11400, Note_on_c, 4, 63, 71
6, 11402, Note_on_c, 4, 65, 0
6, 11411, Note_on_c, 4, 63, 0
6, 11425, Note_on_c, 4, 63, 82
6, 11472, Note_on_c, 4, 63, 0
6, 11472, Note_on_c, 4, 58, 71
6, 11494, Note_on_c, 4, 60, 77
6, 11496, Note_on_c, 4, 58, 0
6, 11543, Note_on_c, 4, 60, 0
6, 11596, Pitch_bend_c, 4, 9344
6, 11596, Pitch_bend_c, 4, 11360
6, 11597, Pitch_bend_c, 4, 13600
6, 11598, Pitch_bend_c, 4, 15776
6, 11599, Pitch_bend_c, 4, 16383
6, 11661, Pitch_bend_c, 4, 16224
6, 11662, Pitch_bend_c, 4, 14880
6, 11662, Note_on_c, 4, 65, 86
6, 11663, Pitch_bend_c, 4, 12800
6, 11664, Pitch_bend_c, 4, 10752
6, 11664, Pitch_bend_c, 4, 9184
6, 11665, Pitch_bend_c, 4, 8288
6, 11666, Pitch_bend_c, 4, 8192
6, 11787, Note_on_c, 4, 63, 81
6, 11788, Note_on_c, 4, 65, 0
6, 11793, Note_on_c, 4, 63, 0
6, 11810, Note_on_c, 4, 63, 86
6, 11845, Note_on_c, 4, 60, 67
6, 11846, Note_on_c, 4, 63, 0
6, 11858, Note_on_c, 4, 58, 72
6, 11859, Note_on_c, 4, 60, 0
6, 11967, Note_on_c, 4, 58, 0
6, 12193, Note_on_c, 4, 67, 90
6, 12237, Note_on_c, 4, 65, 75
6, 12240, Note_on_c, 4, 67, 0
6, 12261, Note_on_c, 4, 63, 80
6, 12263, Note_on_c, 4, 65, 0
6, 12286, Note_on_c, 4, 65, 82
6, 12287, Note_on_c, 4, 63, 0
6, 12314, Note_on_c, 4, 65, 0
6, 12384, Note_on_c, 4, 67, 90
6, 12405, Note_on_c, 4, 67, 0
6, 12432, Note_on_c, 4, 63, 86
6, 12450, Note_on_c, 4, 63, 0
6, 12479, Note_on_c, 4, 60, 85
6, 12529, Pitch_bend_c, 4, 8416
6, 12530, Note_on_c, 4, 60, 0
6, 12530, Pitch_bend_c, 4, 9344
6, 12531, Pitch_bend_c, 4, 11232
6, 12532, Pitch_bend_c, 4, 13504
6, 12533, Pitch_bend_c, 4, 15488
6, 12533, Pitch_bend_c, 4, 16383
6, 12551, Note_on_c, 4, 60, 86
6, 12573, Note_on_c, 4, 63, 74
6, 12574, Note_on_c, 4, 60, 0
6, 12576, Pitch_bend_c, 4, 15712
6, 12576, Pitch_bend_c, 4, 14368
6, 12577, Pitch_bend_c, 4, 12384
6, 12578, Pitch_bend_c, 4, 10496
6, 12579, Pitch_bend_c, 4, 9088
6, 12579, Pitch_bend_c, 4, 8224
6, 12581, Note_on_c, 4, 63, 0
6, 12581, Pitch_bend_c, 4, 8192
6, 12597, Note_on_c, 4, 65, 86
6, 12670, Note_on_c, 4, 65, 0
6, 12670, Note_on_c, 4, 63, 70
6, 12676, Note_on_c, 4, 63, 0
6, 12694, Note_on_c, 4, 63, 84
6, 12700, Note_on_c, 4, 63, 0
6, 12717, Note_on_c, 4, 63, 86
6, 12733, Pitch_bend_c, 4, 8160
6, 12734, Pitch_bend_c, 4, 7840
6, 12735, Pitch_bend_c, 4, 7328
6, 12736, Pitch_bend_c, 4, 6496
6, 12737, Pitch_bend_c, 4, 5600
6, 12737, Pitch_bend_c, 4, 4672
6, 12738, Pitch_bend_c, 4, 3776
6, 12739, Note_on_c, 4, 63, 0
6, 12739, Pitch_bend_c, 4, 2944
6, 12740, Pitch_bend_c, 4, 2336
6, 12741, Pitch_bend_c, 4, 1760
6, 12741, Pitch_bend_c, 4, 1312
6, 12741, Pitch_bend_c, 4, 992
6, 12741, Note_on_c, 4, 65, 77
6, 12743, Pitch_bend_c, 4, 736
6, 12743, Pitch_bend_c, 4, 544
6, 12744, Pitch_bend_c, 4, 480
6, 12745, Pitch_bend_c, 4, 416
6, 12748, Pitch_bend_c, 4, 480
6, 12749, Pitch_bend_c, 4, 608
6, 12751, Pitch_bend_c, 4, 736
6, 12751, Pitch_bend_c, 4, 992
6, 12752, Pitch_bend_c, 4, 1376
6, 12753, Pitch_bend_c, 4, 1952
6, 12753, Pitch_bend_c, 4, 2592
6, 12754, Pitch_bend_c, 4, 3392
6, 12755, Pitch_bend_c, 4, 4288
6, 12756, Pitch_bend_c, 4, 5184
6, 12756, Pitch_bend_c, 4, 6112
6, 12757, Pitch_bend_c, 4, 7008
6, 12758, Pitch_bend_c, 4, 7648
6, 12759, Pitch_bend_c, 4, 8032
6, 12760, Pitch_bend_c, 4, 8192
6, 12767, Note_on_c, 4, 63, 84
6, 12768, Note_on_c, 4, 65, 0
6, 12792, Note_on_c, 4, 63, 0
6, 12794, Pitch_bend_c, 4, 8032
6, 12795, Pitch_bend_c, 4, 7776
6, 12795, Pitch_bend_c, 4, 7328
6, 12796, Pitch_bend_c, 4, 6944
6, 12797, Pitch_bend_c, 4, 6496
6, 12798, Pitch_bend_c, 4, 6048
6, 12798, Pitch_bend_c, 4, 5600
6, 12799, Pitch_bend_c, 4, 5120
6, 12800, Pitch_bend_c, 4, 4672
6, 12801, Pitch_bend_c, 4, 4288
6, 12802, Pitch_bend_c, 4, 3968
6, 12803, Pitch_bend_c, 4, 3712
6, 12803, Pitch_bend_c, 4, 3520
6, 12804, Pitch_bend_c, 4, 3392
6, 12807, Pitch_bend_c, 4, 3456
6, 12807, Pitch_bend_c, 4, 3584
6, 12807, Pitch_bend_c, 4, 3840
6, 12808, Pitch_bend_c, 4, 4160
6, 12809, Pitch_bend_c, 4, 4608
6, 12810, Pitch_bend_c, 4, 5120
6, 12811, Pitch_bend_c, 4, 5792
6, 12811, Pitch_bend_c, 4, 6688
6, 12812, Pitch_bend_c, 4, 7392
6, 12813, Pitch_bend_c, 4, 7968
6, 12814, Pitch_bend_c, 4, 8192
6, 12816, Note_on_c, 4, 67, 85
6, 12890, Note_on_c, 4, 65, 82
6, 12897, Note_on_c, 4, 67, 0
6, 12936, Note_on_c, 4, 63, 78
6, 12938, Note_on_c, 4, 65, 0
6, 12946, Note_on_c, 4, 63, 0
6, 12962, Note_on_c, 4, 63, 85
6, 13009, Note_on_c, 4, 63, 0
6, 13009, Note_on_c, 4, 58, 72
6, 13030, Note_on_c, 4, 60, 77
6, 13033, Note_on_c, 4, 58, 0
6, 13074, Note_on_c, 4, 60, 0
6, 13135, Pitch_bend_c, 4, 8736
6, 13135, Pitch_bend_c, 4, 9888
6, 13136, Pitch_bend_c, 4, 11680
6, 13137, Pitch_bend_c, 4, 13952
6, 13138, Pitch_bend_c, 4, 15680
6, 13139, Pitch_bend_c, 4, 16383
6, 13174, Pitch_bend_c, 4, 16224
6, 13175, Pitch_bend_c, 4, 16096
6, 13176, Pitch_bend_c, 4, 15936
6, 13176, Pitch_bend_c, 4, 15776
6, 13177, Pitch_bend_c, 4, 15584
6, 13178, Pitch_bend_c, 4, 15360
6, 13178, Pitch_bend_c, 4, 15168
6, 13179, Pitch_bend_c, 4, 14912
6, 13180, Pitch_bend_c, 4, 14656
6, 13181, Pitch_bend_c, 4, 14368
6, 13182, Pitch_bend_c, 4, 14112
6, 13182, Pitch_bend_c, 4, 13856
6, 13183, Pitch_bend_c, 4, 13536
6, 13183, Pitch_bend_c, 4, 13280
6, 13185, Pitch_bend_c, 4, 13056
6, 13186, Pitch_bend_c, 4, 12832
6, 13186, Pitch_bend_c, 4, 12672
6, 13188, Pitch_bend_c, 4, 12576
6, 13188, Pitch_bend_c, 4, 12448
6, 13189, Pitch_bend_c, 4, 12320
6, 13189, Pitch_bend_c, 4, 12224
6, 13190, Pitch_bend_c, 4, 12128
6, 13191, Pitch_bend_c, 4, 12032
6, 13192, Pitch_bend_c, 4, 11872
6, 13193, Pitch_bend_c, 4, 11680
6, 13193, Pitch_bend_c, 4, 11328
6, 13195, Pitch_bend_c, 4, 10848
6, 13195, Pitch_bend_c, 4, 10208
6, 13196, Pitch_bend_c, 4, 9440
6, 13197, Pitch_bend_c, 4, 8800
6, 13197, Pitch_bend_c, 4, 8320
6, 13198, Pitch_bend_c, 4, 8192
6, 13200, Note_on_c, 4, 65, 81
6, 13319, Note_on_c, 4, 63, 73
6, 13321, Note_on_c, 4, 65, 0
6, 13326, Note_on_c, 4, 63, 0
6, 13343, Note_on_c, 4, 63, 79
6, 13379, Note_on_c, 4, 63, 0
6, 13379, Note_on_c, 4, 60, 56
6, 13389, Note_on_c, 4, 58, 73
6, 13390, Note_on_c, 4, 60, 0
6, 13456, Note_on_c, 4, 58, 0
6, 13729, Note_on_c, 4, 67, 90
6, 13773, Note_on_c, 4, 65, 75
6, 13778, Note_on_c, 4, 67, 0
6, 13798, Note_on_c, 4, 63, 67
6, 13800, Note_on_c, 4, 65, 0
6, 13823, Note_on_c, 4, 65, 91
6, 13824, Note_on_c, 4, 63, 0
6, 13852, Note_on_c, 4, 65, 0
6, 13920, Note_on_c, 4, 67, 87
6, 13943, Note_on_c, 4, 67, 0
6, 13966, Note_on_c, 4, 63, 95
6, 13988, Note_on_c, 4, 63, 0
6, 14016, Note_on_c, 4, 60, 87
6, 14067, Pitch_bend_c, 4, 8416
6, 14068, Note_on_c, 4, 60, 0
6, 14068, Pitch_bend_c, 4, 9600
6, 14069, Pitch_bend_c, 4, 11584
6, 14070, Pitch_bend_c, 4, 13792
6, 14071, Pitch_bend_c, 4, 15776
6, 14072, Pitch_bend_c, 4, 16383
6, 14089, Note_on_c, 4, 60, 88
6, 14111, Pitch_bend_c, 4, 15680
6, 14111, Note_on_c, 4, 63, 85
6, 14112, Note_on_c, 4, 60, 0
6, 14112, Pitch_bend_c, 4, 14112
6, 14113, Pitch_bend_c, 4, 11968
6, 14113, Pitch_bend_c, 4, 10144
6, 14114, Pitch_bend_c, 4, 8800
6, 14115, Pitch_bend_c, 4, 8192
6, 14118, Note_on_c, 4, 63, 0
6, 14135, Note_on_c, 4, 65, 83
6, 14207, Note_on_c, 4, 65, 0
6, 14207, Note_on_c, 4, 63, 78
6, 14212, Note_on_c, 4, 63, 0
6, 14231, Note_on_c, 4, 63, 82
6, 14237, Note_on_c, 4, 63, 0
6, 14255, Note_on_c, 4, 63, 87
6, 14275, Note_on_c, 4, 63, 0
6, 14279, Note_on_c, 4, 65, 75
6, 14302, Note_on_c, 4, 63, 80
6, 14303, Note_on_c, 4, 65, 0
6, 14375, Note_on_c, 4, 63, 0
6, 15143, Note_on_c, 4, 60, 77
6, 15166, Note_on_c, 4, 63, 79
6, 15167, Note_on_c, 4, 60, 0
6, 15178, Note_on_c, 4, 63, 0
6, 15190, Note_on_c, 4, 63, 80
6, 15193, Pitch_bend_c, 4, 8736
6, 15194, Pitch_bend_c, 4, 10016
6, 15194, Pitch_bend_c, 4, 12064
6, 15196, Pitch_bend_c, 4, 14304
6, 15197, Pitch_bend_c, 4, 15936
6, 15197, Pitch_bend_c, 4, 16383
6, 15206, Note_on_c, 4, 63, 0
6, 15215, Note_on_c, 4, 65, 89
6, 15241, Note_on_c, 4, 65, 0
6, 15243, Pitch_bend_c, 4, 16288
6, 15244, Pitch_bend_c, 4, 16128
6, 15245, Pitch_bend_c, 4, 15936
6, 15245, Pitch_bend_c, 4, 15680
6, 15246, Pitch_bend_c, 4, 15424
6, 15247, Pitch_bend_c, 4, 15168
6, 15248, Pitch_bend_c, 4, 14880
6, 15249, Pitch_bend_c, 4, 14624
6, 15249, Pitch_bend_c, 4, 14368
6, 15250, Pitch_bend_c, 4, 14048
6, 15251, Pitch_bend_c, 4, 13696
6, 15252, Pitch_bend_c, 4, 13280
6, 15253, Pitch_bend_c, 4, 12800
6, 15253, Pitch_bend_c, 4, 12128
6, 15254, Pitch_bend_c, 4, 11360
6, 15255, Pitch_bend_c, 4, 10496
6, 15256, Pitch_bend_c, 4, 9696
6, 15257, Pitch_bend_c, 4, 8992
6, 15257, Pitch_bend_c, 4, 8544
6, 15258, Pitch_bend_c, 4, 8224
6, 15259, Note_on_c, 4, 65, 86
6, 15260, Pitch_bend_c, 4, 8192
6, 15352, Note_on_c, 4, 65, 0
6, 15360, Note_on_c, 4, 65, 81
6, 15376, Note_on_c, 4, 65, 0
6, 15381, Note_on_c, 4, 63, 72
6, 15386, Pitch_bend_c, 4, 8384
6, 15387, Pitch_bend_c, 4, 9248
6, 15387, Pitch_bend_c, 4, 10816
6, 15388, Pitch_bend_c, 4, 13152
6, 15389, Pitch_bend_c, 4, 15072
6, 15390, Pitch_bend_c, 4, 16383
6, 15392, Note_on_c, 4, 63, 0
6, 15406, Note_on_c, 4, 63, 82
6, 15429, Note_on_c, 4, 63, 0
6, 15432, Note_on_c, 4, 65, 77
6, 15440, Note_on_c, 4, 65, 0
6, 15455, Pitch_bend_c, 4, 15424
6, 15456, Pitch_bend_c, 4, 13856
6, 15456, Pitch_bend_c, 4, 11776
6, 15456, Note_on_c, 4, 65, 88
6, 15457, Pitch_bend_c, 4, 10016
6, 15458, Pitch_bend_c, 4, 8736
6, 15459, Pitch_bend_c, 4, 8192
6, 15548, Note_on_c, 4, 65, 0
6, 15552, Note_on_c, 4, 63, 81
6, 15558, Note_on_c, 4, 63, 0
6, 15577, Note_on_c, 4, 63, 82
6, 15599, Note_on_c, 4, 63, 0
6, 15601, Note_on_c, 4, 65, 75
6, 15646, Pitch_bend_c, 4, 8832
6, 15646, Pitch_bend_c, 4, 10304
6, 15648, Pitch_bend_c, 4, 12576
6, 15648, Pitch_bend_c, 4, 14752
6, 15648, Note_on_c, 4, 63, 81
6, 15649, Note_on_c, 4, 65, 0
6, 15649, Pitch_bend_c, 4, 16383
6, 15693, Note_on_c, 4, 63, 0
6, 15694, Note_on_c, 4, 58, 77
6, 15740, Pitch_bend_c, 4, 15680
6, 15741, Pitch_bend_c, 4, 14144
6, 15742, Pitch_bend_c, 4, 12032
6, 15742, Pitch_bend_c, 4, 10144
6, 15743, Pitch_bend_c, 4, 8800
6, 15745, Pitch_bend_c, 4, 8192
6, 15767, Note_on_c, 4, 58, 0
6, 15791, Note_on_c, 4, 58, 88
6, 15825, Note_on_c, 4, 58, 0
6, 15839, Note_on_c, 4, 58, 92
6, 15875, Note_on_c, 4, 58, 0
6, 15936, Note_on_c, 4, 63, 92
6, 15942, Note_on_c, 4, 63, 0
6, 15960, Note_on_c, 4, 63, 94
6, 15961, Pitch_bend_c, 4, 8320
6, 15961, Pitch_bend_c, 4, 9600
6, 15962, Pitch_bend_c, 4, 11936
6, 15963, Pitch_bend_c, 4, 14208
6, 15964, Pitch_bend_c, 4, 16224
6, 15965, Note_on_c, 4, 63, 0
6, 15965, Pitch_bend_c, 4, 16383
6, 15983, Note_on_c, 4, 63, 92
6, 16007, Pitch_bend_c, 4, 15424
6, 16008, Pitch_bend_c, 4, 13792
6, 16010, Pitch_bend_c, 4, 11712
6, 16010, Pitch_bend_c, 4, 9952
6, 16011, Pitch_bend_c, 4, 8736
6, 16012, Pitch_bend_c, 4, 8192
6, 16013, Note_on_c, 4, 63, 0
6, 16029, Note_on_c, 4, 65, 90
6, 16063, Pitch_bend_c, 4, 8416
6, 16064, Pitch_bend_c, 4, 8736
6, 16065, Pitch_bend_c, 4, 9152
6, 16066, Pitch_bend_c, 4, 9536
6, 16066, Pitch_bend_c, 4, 9888
6, 16067, Pitch_bend_c, 4, 10208
6, 16069, Pitch_bend_c, 4, 10400
6, 16070, Pitch_bend_c, 4, 10624
6, 16070, Pitch_bend_c, 4, 10720
6, 16071, Pitch_bend_c, 4, 10816
6, 16072, Pitch_bend_c, 4, 10848
6, 16072, Pitch_bend_c, 4, 10912
6, 16074, Pitch_bend_c, 4, 10976
6, 16074, Pitch_bend_c, 4, 11072
6, 16075, Pitch_bend_c, 4, 11104
6, 16075, Pitch_bend_c, 4, 11168
6, 16076, Pitch_bend_c, 4, 11232
6, 16077, Pitch_bend_c, 4, 11328
6, 16078, Pitch_bend_c, 4, 11360
6, 16078, Pitch_bend_c, 4, 11456
6, 16079, Pitch_bend_c, 4, 11584
6, 16080, Pitch_bend_c, 4, 11616
6, 16081, Pitch_bend_c, 4, 11712
6, 16082, Pitch_bend_c, 4, 11776
6, 16082, Pitch_bend_c, 4, 11840
6, 16085, Pitch_bend_c, 4, 11872
6, 16086, Pitch_bend_c, 4, 11936
6, 16087, Pitch_bend_c, 4, 11968
6, 16093, Pitch_bend_c, 4, 11936
6, 16094, Pitch_bend_c, 4, 11872
6, 16094, Pitch_bend_c, 4, 11840
6, 16096, Pitch_bend_c, 4, 11776
6, 16096, Pitch_bend_c, 4, 11712
6, 16097, Pitch_bend_c, 4, 11616
6, 16097, Pitch_bend_c, 4, 11520
6, 16098, Pitch_bend_c, 4, 11424
6, 16099, Pitch_bend_c, 4, 11328
6, 16100, Pitch_bend_c, 4, 11168
6, 16101, Pitch_bend_c, 4, 11008
6, 16101, Pitch_bend_c, 4, 10912
6, 16102, Pitch_bend_c, 4, 10752
6, 16103, Pitch_bend_c, 4, 10656
6, 16103, Pitch_bend_c, 4, 10496
6, 16104, Pitch_bend_c, 4, 10400
6, 16105, Pitch_bend_c, 4, 10240
6, 16106, Pitch_bend_c, 4, 10048
6, 16107, Pitch_bend_c, 4, 9856
6, 16108, Pitch_bend_c, 4, 9632
6, 16108, Pitch_bend_c, 4, 9408
6, 16109, Note_on_c, 4, 65, 0
6, 16109, Pitch_bend_c, 4, 9024
6, 16110, Pitch_bend_c, 4, 8736
6, 16111, Pitch_bend_c, 4, 8480
6, 16112, Pitch_bend_c, 4, 8288
6, 16112, Pitch_bend_c, 4, 8192
6, 16129, Note_on_c, 4, 65, 101
6, 16196, Note_on_c, 4, 65, 0
6, 16198, Note_on_c, 4, 63, 76
6, 16236, Note_on_c, 4, 63, 0
6, 16244, Note_on_c, 4, 65, 85
6, 16270, Note_on_c, 4, 65, 0
6, 16270, Note_on_c, 4, 63, 88
6, 16432, Note_on_c, 4, 63, 0
6, 16482, Pitch_bend_c, 4, 8288
6, 16483, Pitch_bend_c, 4, 8384
6, 16483, Pitch_bend_c, 4, 8576
6, 16484, Pitch_bend_c, 4, 8800
6, 16486, Pitch_bend_c, 4, 9024
6, 16486, Pitch_bend_c, 4, 9280
6, 16487, Pitch_bend_c, 4, 9504
6, 16488, Pitch_bend_c, 4, 9696
6, 16488, Pitch_bend_c, 4, 9888
6, 16489, Pitch_bend_c, 4, 10112
6, 16490, Pitch_bend_c, 4, 10240
6, 16490, Pitch_bend_c, 4, 10464
6, 16491, Pitch_bend_c, 4, 10624
6, 16492, Pitch_bend_c, 4, 10816
6, 16493, Pitch_bend_c, 4, 11008
6, 16494, Pitch_bend_c, 4, 11232
6, 16495, Pitch_bend_c, 4, 11424
6, 16495, Pitch_bend_c, 4, 11616
6, 16496, Pitch_bend_c, 4, 11840
6, 16497, Pitch_bend_c, 4, 12128
6, 16498, Pitch_bend_c, 4, 12480
6, 16498, Pitch_bend_c, 4, 12928
6, 16499, Pitch_bend_c, 4, 13344
6, 16500, Pitch_bend_c, 4, 13600
6, 16501, Pitch_bend_c, 4, 13760
6, 16503, Pitch_bend_c, 4, 13408
6, 16503, Pitch_bend_c, 4, 12736
6, 16504, Pitch_bend_c, 4, 11712
6, 16505, Pitch_bend_c, 4, 10400
6, 16506, Pitch_bend_c, 4, 9344
6, 16507, Pitch_bend_c, 4, 8576
6, 16507, Pitch_bend_c, 4, 8192
6, 16513, Note_on_c, 4, 63, 86
6, 16518, Note_on_c, 4, 63, 0
6, 16534, Note_on_c, 4, 65, 88
6, 16586, Note_on_c, 4, 63, 77
6, 16588, Note_on_c, 4, 65, 0
6, 16614, Note_on_c, 4, 63, 0
6, 16633, Note_on_c, 4, 63, 87
6, 16668, Note_on_c, 4, 60, 62
6, 16671, Note_on_c, 4, 63, 0
6, 16679, Note_on_c, 4, 60, 0
6, 16680, Note_on_c, 4, 58, 80
6, 16722, Note_on_c, 4, 58, 0
6, 16867, Pitch_bend_c, 4, 8288
6, 16868, Pitch_bend_c, 4, 8416
6, 16869, Pitch_bend_c, 4, 8576
6, 16870, Pitch_bend_c, 4, 8832
6, 16870, Pitch_bend_c, 4, 9088
6, 16872, Pitch_bend_c, 4, 9344
6, 16872, Pitch_bend_c, 4, 9632
6, 16873, Pitch_bend_c, 4, 9952
6, 16874, Pitch_bend_c, 4, 10240
6, 16874, Pitch_bend_c, 4, 10624
6, 16875, Pitch_bend_c, 4, 11104
6, 16876, Pitch_bend_c, 4, 11680
6, 16877, Pitch_bend_c, 4, 12288
6, 16877, Pitch_bend_c, 4, 12896
6, 16878, Pitch_bend_c, 4, 13280
6, 16879, Pitch_bend_c, 4, 13504
6, 16879, Pitch_bend_c, 4, 13408
6, 16881, Pitch_bend_c, 4, 12992
6, 16881, Pitch_bend_c, 4, 12288
6, 16882, Pitch_bend_c, 4, 11232
6, 16884, Pitch_bend_c, 4, 10048
6, 16884, Pitch_bend_c, 4, 9088
6, 16885, Pitch_bend_c, 4, 8416
6, 16886, Pitch_bend_c, 4, 8192
6, 16893, Note_on_c, 4, 63, 75
6, 16901, Note_on_c, 4, 63, 0
6, 16916, Note_on_c, 4, 65, 83
6, 16965, Note_on_c, 4, 63, 75
6, 16969, Note_on_c, 4, 65, 0
6, 16997, Note_on_c, 4, 63, 0
6, 17013, Note_on_c, 4, 63, 79
6, 17045, Note_on_c, 4, 63, 0
6, 17047, Note_on_c, 4, 60, 73
6, 17058, Note_on_c, 4, 58, 80
6, 17059, Note_on_c, 4, 60, 0
6, 17106, Note_on_c, 4, 58, 0
6, 20209, Pitch_bend_c, 4, 8160
6, 20210, Pitch_bend_c, 4, 7840
6, 20210, Pitch_bend_c, 4, 7392
6, 20212, Pitch_bend_c, 4, 6688
6, 20212, Pitch_bend_c, 4, 5984
6, 20213, Pitch_bend_c, 4, 5248
6, 20214, Pitch_bend_c, 4, 4544
6, 20214, Pitch_bend_c, 4, 3904
6, 20215, Pitch_bend_c, 4, 3328
6, 20216, Pitch_bend_c, 4, 2816
6, 20217, Pitch_bend_c, 4, 2400
6, 20218, Pitch_bend_c, 4, 2080
6, 20218, Pitch_bend_c, 4, 1760
6, 20219, Pitch_bend_c, 4, 1568
6, 20220, Pitch_bend_c, 4, 1440
6, 20221, Pitch_bend_c, 4, 1312
6, 20222, Pitch_bend_c, 4, 1248
6, 20222, Pitch_bend_c, 4, 1120
6, 20224, Pitch_bend_c, 4, 1056
6, 20225, Pitch_bend_c, 4, 928
6, 20225, Pitch_bend_c, 4, 800
6, 20226, Pitch_bend_c, 4, 672
6, 20226, Pitch_bend_c, 4, 480
6, 20228, Pitch_bend_c, 4, 352
6, 20229, Pitch_bend_c, 4, 224
6, 20229, Pitch_bend_c, 4, 96
6, 20230, Pitch_bend_c, 4, 0
6, 20234, Pitch_bend_c, 4, 96
6, 20235, Pitch_bend_c, 4, 224
6, 20235, Pitch_bend_c, 4, 352
6, 20236, Pitch_bend_c, 4, 544
6, 20237, Pitch_bend_c, 4, 800
6, 20238, Pitch_bend_c, 4, 1120
6, 20239, Pitch_bend_c, 4, 1504
6, 20239, Pitch_bend_c, 4, 2080
6, 20240, Pitch_bend_c, 4, 2752
6, 20241, Pitch_bend_c, 4, 3520
6, 20242, Pitch_bend_c, 4, 4352
6, 20242, Pitch_bend_c, 4, 5184
6, 20244, Pitch_bend_c, 4, 5984
6, 20245, Pitch_bend_c, 4, 6688
6, 20245, Pitch_bend_c, 4, 7328
6, 20246, Pitch_bend_c, 4, 7776
6, 20246, Pitch_bend_c, 4, 8096
6, 20247, Pitch_bend_c, 4, 8192
6, 20277, Pitch_bend_c, 4, 8032
6, 20277, Pitch_bend_c, 4, 7776
6, 20278, Pitch_bend_c, 4, 7520
6, 20279, Pitch_bend_c, 4, 7136
6, 20280, Pitch_bend_c, 4, 6880
6, 20281, Pitch_bend_c, 4, 6624
6, 20281, Pitch_bend_c, 4, 6304
6, 20282, Pitch_bend_c, 4, 6112
6, 20283, Pitch_bend_c, 4, 5856
6, 20284, Pitch_bend_c, 4, 5536
6, 20285, Pitch_bend_c, 4, 5312
6, 20285, Pitch_bend_c, 4, 5056
6, 20286, Pitch_bend_c, 4, 4800
6, 20287, Pitch_bend_c, 4, 4544
6, 20288, Pitch_bend_c, 4, 4352
6, 20289, Pitch_bend_c, 4, 4288
6, 20289, Pitch_bend_c, 4, 4224
6, 20290, Pitch_bend_c, 4, 4352
6, 20291, Pitch_bend_c, 4, 4480
6, 20292, Pitch_bend_c, 4, 4800
6, 20292, Pitch_bend_c, 4, 5184
6, 20294, Pitch_bend_c, 4, 5600
6, 20295, Pitch_bend_c, 4, 6176
6, 20295, Pitch_bend_c, 4, 6944
6, 20296, Pitch_bend_c, 4, 7520
6, 20296, Pitch_bend_c, 4, 7968
6, 20297, Pitch_bend_c, 4, 8192
6, 20302, Note_on_c, 4, 67, 78
6, 20376, Note_on_c, 4, 65, 83
6, 20381, Note_on_c, 4, 67, 0
6, 20424, Note_on_c, 4, 63, 71
6, 20426, Note_on_c, 4, 65, 0
6, 20435, Note_on_c, 4, 63, 0
6, 20449, Note_on_c, 4, 63, 82
6, 20496, Note_on_c, 4, 63, 0
6, 20496, Note_on_c, 4, 58, 71
6, 20518, Note_on_c, 4, 60, 77
6, 20520, Note_on_c, 4, 58, 0
6, 20567, Note_on_c, 4, 60, 0
6, 20620, Pitch_bend_c, 4, 9344
6, 20620, Pitch_bend_c, 4, 11360
6, 20622, Pitch_bend_c, 4, 13600
6, 20623, Pitch_bend_c, 4, 15776
6, 20623, Pitch_bend_c, 4, 16383
6, 20685, Pitch_bend_c, 4, 16224
6, 20686, Pitch_bend_c, 4, 14880
6, 20686, Note_on_c, 4, 65, 86
6, 20687, Pitch_bend_c, 4, 12800
6, 20688, Pitch_bend_c, 4, 10752
6, 20688, Pitch_bend_c, 4, 9184
6, 20689, Pitch_bend_c, 4, 8288
6, 20690, Pitch_bend_c, 4, 8192
6, 20811, Note_on_c, 4, 65, 0
6, 20811, Note_on_c, 4, 63, 81
6, 20817, Note_on_c, 4, 63, 0
6, 20834, Note_on_c, 4, 63, 86
6, 20869, Note_on_c, 4, 60, 67
6, 20870, Note_on_c, 4, 63, 0
6, 20882, Note_on_c, 4, 60, 0
6, 20882, Note_on_c, 4, 58, 72
6, 20991, Note_on_c, 4, 58, 0
6, 21217, Note_on_c, 4, 67, 90
6, 21261, Note_on_c, 4, 65, 75
6, 21264, Note_on_c, 4, 67, 0
6, 21285, Note_on_c, 4, 63, 80
6, 21287, Note_on_c, 4, 65, 0
6, 21310, Note_on_c, 4, 65, 82
6, 21311, Note_on_c, 4, 63, 0
6, 21339, Note_on_c, 4, 65, 0
6, 21408, Note_on_c, 4, 67, 90
6, 21429, Note_on_c, 4, 67, 0
6, 21456, Note_on_c, 4, 63, 86
6, 21474, Note_on_c, 4, 63, 0
6, 21503, Note_on_c, 4, 60, 85
6, 21553, Pitch_bend_c, 4, 8416
6, 21554, Note_on_c, 4, 60, 0
6, 21554, Pitch_bend_c, 4, 9344
6, 21555, Pitch_bend_c, 4, 11232
6, 21556, Pitch_bend_c, 4, 13504
6, 21557, Pitch_bend_c, 4, 15488
6, 21557, Pitch_bend_c, 4, 16383
6, 21575, Note_on_c, 4, 60, 86
6, 21597, Note_on_c, 4, 60, 0
6, 21597, Note_on_c, 4, 63, 74
6, 21600, Pitch_bend_c, 4, 15712
6, 21600, Pitch_bend_c, 4, 14368
6, 21601, Pitch_bend_c, 4, 12384
6, 21602, Pitch_bend_c, 4, 10496
6, 21603, Pitch_bend_c, 4, 9088
6, 21603, Pitch_bend_c, 4, 8224
6, 21604, Pitch_bend_c, 4, 8192
6, 21605, Note_on_c, 4, 63, 0
6, 21621, Note_on_c, 4, 65, 86
6, 21694, Note_on_c, 4, 65, 0
6, 21694, Note_on_c, 4, 63, 70
6, 21700, Note_on_c, 4, 63, 0
6, 21718, Note_on_c, 4, 63, 84
6, 21724, Note_on_c, 4, 63, 0
6, 21741, Note_on_c, 4, 63, 86
6, 21757, Pitch_bend_c, 4, 8160
6, 21758, Pitch_bend_c, 4, 7840
6, 21759, Pitch_bend_c, 4, 7328
6, 21760, Pitch_bend_c, 4, 6496
6, 21761, Pitch_bend_c, 4, 5600
6, 21761, Pitch_bend_c, 4, 4672
6, 21762, Pitch_bend_c, 4, 3776
6, 21763, Note_on_c, 4, 63, 0
6, 21763, Pitch_bend_c, 4, 2944
6, 21763, Pitch_bend_c, 4, 2336
6, 21764, Pitch_bend_c, 4, 1760
6, 21765, Note_on_c, 4, 65, 77
6, 21766, Pitch_bend_c, 4, 1312
6, 21766, Pitch_bend_c, 4, 992
6, 21767, Pitch_bend_c, 4, 736
6, 21767, Pitch_bend_c, 4, 544
6, 21768, Pitch_bend_c, 4, 480
6, 21769, Pitch_bend_c, 4, 416
6, 21772, Pitch_bend_c, 4, 480
6, 21773, Pitch_bend_c, 4, 608
6, 21774, Pitch_bend_c, 4, 736
6, 21775, Pitch_bend_c, 4, 992
6, 21776, Pitch_bend_c, 4, 1376
6, 21777, Pitch_bend_c, 4, 1952
6, 21777, Pitch_bend_c, 4, 2592
6, 21779, Pitch_bend_c, 4, 3392
6, 21779, Pitch_bend_c, 4, 4288
6, 21780, Pitch_bend_c, 4, 5184
6, 21780, Pitch_bend_c, 4, 6112
6, 21782, Pitch_bend_c, 4, 7008
6, 21783, Pitch_bend_c, 4, 7648
6, 21783, Pitch_bend_c, 4, 8032
6, 21784, Pitch_bend_c, 4, 8192
6, 21791, Note_on_c, 4, 63, 84
6, 21792, Note_on_c, 4, 65, 0
6, 21816, Note_on_c, 4, 63, 0
6, 21818, Pitch_bend_c, 4, 8032
6, 21819, Pitch_bend_c, 4, 7776
6, 21819, Pitch_bend_c, 4, 7328
6, 21820, Pitch_bend_c, 4, 6944
6, 21821, Pitch_bend_c, 4, 6496
6, 21822, Pitch_bend_c, 4, 6048
6, 21822, Pitch_bend_c, 4, 5600
6, 21823, Pitch_bend_c, 4, 5120
6, 21824, Pitch_bend_c, 4, 4672
6, 21825, Pitch_bend_c, 4, 4288
6, 21826, Pitch_bend_c, 4, 3968
6, 21827, Pitch_bend_c, 4, 3712
6, 21827, Pitch_bend_c, 4, 3520
6, 21828, Pitch_bend_c, 4, 3392
6, 21831, Pitch_bend_c, 4, 3456
6, 21831, Pitch_bend_c, 4, 3584
6, 21832, Pitch_bend_c, 4, 3840
6, 21833, Pitch_bend_c, 4, 4160
6, 21833, Pitch_bend_c, 4, 4608
6, 21834, Pitch_bend_c, 4, 5120
6, 21835, Pitch_bend_c, 4, 5792
6, 21835, Pitch_bend_c, 4, 6688
6, 21836, Pitch_bend_c, 4, 7392
6, 21837, Pitch_bend_c, 4, 7968
6, 21838, Pitch_bend_c, 4, 8192
6, 21840, Note_on_c, 4, 67, 85
6, 21914, Note_on_c, 4, 65, 82
6, 21921, Note_on_c, 4, 67, 0
6, 21960, Note_on_c, 4, 63, 78
6, 21962, Note_on_c, 4, 65, 0
6, 21970, Note_on_c, 4, 63, 0
6, 21986, Note_on_c, 4, 63, 85
6, 22033, Note_on_c, 4, 63, 0
6, 22033, Note_on_c, 4, 58, 72
6, 22054, Note_on_c, 4, 60, 77
6, 22057, Note_on_c, 4, 58, 0
6, 22098, Note_on_c, 4, 60, 0
6, 22159, Pitch_bend_c, 4, 8736
6, 22159, Pitch_bend_c, 4, 9888
6, 22160, Pitch_bend_c, 4, 11680
6, 22161, Pitch_bend_c, 4, 13952
6, 22161, Pitch_bend_c, 4, 15680
6, 22163, Pitch_bend_c, 4, 16383
6, 22198, Pitch_bend_c, 4, 16224
6, 22199, Pitch_bend_c, 4, 16096
6, 22199, Pitch_bend_c, 4, 15936
6, 22200, Pitch_bend_c, 4, 15776
6, 22201, Pitch_bend_c, 4, 15584
6, 22202, Pitch_bend_c, 4, 15360
6, 22202, Pitch_bend_c, 4, 15168
6, 22203, Pitch_bend_c, 4, 14912
6, 22204, Pitch_bend_c, 4, 14656
6, 22205, Pitch_bend_c, 4, 14368
6, 22206, Pitch_bend_c, 4, 14112
6, 22206, Pitch_bend_c, 4, 13856
6, 22208, Pitch_bend_c, 4, 13536
6, 22208, Pitch_bend_c, 4, 13280
6, 22209, Pitch_bend_c, 4, 13056
6, 22210, Pitch_bend_c, 4, 12832
6, 22210, Pitch_bend_c, 4, 12672
6, 22211, Pitch_bend_c, 4, 12576
6, 22212, Pitch_bend_c, 4, 12448
6, 22213, Pitch_bend_c, 4, 12320
6, 22213, Pitch_bend_c, 4, 12224
6, 22214, Pitch_bend_c, 4, 12128
6, 22215, Pitch_bend_c, 4, 12032
6, 22215, Pitch_bend_c, 4, 11872
6, 22217, Pitch_bend_c, 4, 11680
6, 22217, Pitch_bend_c, 4, 11328
6, 22218, Pitch_bend_c, 4, 10848
6, 22219, Pitch_bend_c, 4, 10208
6, 22220, Pitch_bend_c, 4, 9440
6, 22221, Pitch_bend_c, 4, 8800
6, 22221, Pitch_bend_c, 4, 8320
6, 22222, Pitch_bend_c, 4, 8192
6, 22224, Note_on_c, 4, 65, 81
6, 22343, Note_on_c, 4, 63, 73
6, 22345, Note_on_c, 4, 65, 0
6, 22350, Note_on_c, 4, 63, 0
6, 22366, Note_on_c, 4, 63, 79
6, 22403, Note_on_c, 4, 63, 0
6, 22403, Note_on_c, 4, 60, 56
6, 22413, Note_on_c, 4, 58, 73
6, 22414, Note_on_c, 4, 60, 0
6, 22480, Note_on_c, 4, 58, 0
6, 22753, Note_on_c, 4, 67, 90
6, 22797, Note_on_c, 4, 65, 75
6, 22802, Note_on_c, 4, 67, 0
6, 22822, Note_on_c, 4, 63, 67
6, 22824, Note_on_c, 4, 65, 0
6, 22847, Note_on_c, 4, 65, 91
6, 22848, Note_on_c, 4, 63, 0
6, 22876, Note_on_c, 4, 65, 0
6, 22944, Note_on_c, 4, 67, 87
6, 22967, Note_on_c, 4, 67, 0
6, 22990, Note_on_c, 4, 63, 95
6, 23012, Note_on_c, 4, 63, 0
6, 23040, Note_on_c, 4, 60, 87
6, 23091, Pitch_bend_c, 4, 8416
6, 23092, Note_on_c, 4, 60, 0
6, 23092, Pitch_bend_c, 4, 9600
6, 23093, Pitch_bend_c, 4, 11584
6, 23094, Pitch_bend_c, 4, 13792
6, 23095, Pitch_bend_c, 4, 15776
6, 23096, Pitch_bend_c, 4, 16383
6, 23113, Note_on_c, 4, 60, 88
6, 23135, Pitch_bend_c, 4, 15680
6, 23135, Note_on_c, 4, 63, 85
6, 23136, Note_on_c, 4, 60, 0
6, 23136, Pitch_bend_c, 4, 14112
6, 23137, Pitch_bend_c, 4, 11968
6, 23137, Pitch_bend_c, 4, 10144
6, 23138, Pitch_bend_c, 4, 8800
6, 23139, Pitch_bend_c, 4, 8192
6, 23142, Note_on_c, 4, 63, 0
6, 23159, Note_on_c, 4, 65, 83
6, 23231, Note_on_c, 4, 65, 0
6, 23231, Note_on_c, 4, 63, 78
6, 23236, Note_on_c, 4, 63, 0
6, 23256, Note_on_c, 4, 63, 82
6, 23261, Note_on_c, 4, 63, 0
6, 23278, Note_on_c, 4, 63, 87
6, 23299, Note_on_c, 4, 63, 0
6, 23303, Note_on_c, 4, 65, 75
6, 23326, Note_on_c, 4, 63, 80
6, 23327, Note_on_c, 4, 65, 0
6, 23526, Note_on_c, 4, 63, 0
6, 23601, Pitch_bend_c, 4, 8288
6, 23602, Pitch_bend_c, 4, 8384
6, 23602, Pitch_bend_c, 4, 8544
6, 23603, Pitch_bend_c, 4, 8800
6, 23604, Pitch_bend_c, 4, 9024
6, 23605, Pitch_bend_c, 4, 9280
6, 23606, Pitch_bend_c, 4, 9536
6, 23606, Pitch_bend_c, 4, 9856
6, 23607, Pitch_bend_c, 4, 10208
6, 23607, Pitch_bend_c, 4, 10560
6, 23609, Pitch_bend_c, 4, 11008
6, 23609, Pitch_bend_c, 4, 11424
6, 23610, Pitch_bend_c, 4, 11840
6, 23612, Pitch_bend_c, 4, 12192
6, 23612, Pitch_bend_c, 4, 12448
6, 23613, Pitch_bend_c, 4, 12576
6, 23614, Pitch_bend_c, 4, 12640
6, 23614, Pitch_bend_c, 4, 12480
6, 23615, Pitch_bend_c, 4, 12128
6, 23616, Pitch_bend_c, 4, 11520
6, 23616, Note_on_c, 4, 63, 88
6, 23617, Pitch_bend_c, 4, 10720
6, 23617, Pitch_bend_c, 4, 9760
6, 23619, Pitch_bend_c, 4, 8928
6, 23619, Pitch_bend_c, 4, 8384
6, 23620, Pitch_bend_c, 4, 8192
6, 23623, Note_on_c, 4, 63, 0
6, 23639, Note_on_c, 4, 65, 89
6, 23690, Note_on_c, 4, 63, 74
6, 23695, Note_on_c, 4, 65, 0
6, 23723, Note_on_c, 4, 63, 0
6, 23737, Note_on_c, 4, 63, 86
6, 23785, Note_on_c, 4, 63, 0
6, 24047, Note_on_c, 4, 63, 94
6, 24069, Note_on_c, 4, 63, 0
6, 24070, Note_on_c, 4, 65, 77
6, 24095, Note_on_c, 4, 65, 0
6, 24095, Note_on_c, 4, 63, 91
6, 24152, Note_on_c, 4, 63, 0
6, 24235, Pitch_bend_c, 4, 8224
6, 24236, Pitch_bend_c, 4, 8320
6, 24237, Pitch_bend_c, 4, 8384
6, 24237, Pitch_bend_c, 4, 8480
6, 24239, Pitch_bend_c, 4, 8544
6, 24239, Pitch_bend_c, 4, 8576
6, 24240, Pitch_bend_c, 4, 8672
6, 24240, Note_on_c, 4, 60, 80
6, 24241, Pitch_bend_c, 4, 8736
6, 24242, Pitch_bend_c, 4, 8800
6, 24243, Pitch_bend_c, 4, 8832
6, 24244, Pitch_bend_c, 4, 8928
6, 24245, Pitch_bend_c, 4, 9024
6, 24245, Pitch_bend_c, 4, 9152
6, 24246, Pitch_bend_c, 4, 9248
6, 24247, Pitch_bend_c, 4, 9344
6, 24248, Pitch_bend_c, 4, 9440
6, 24248, Pitch_bend_c, 4, 9504
6, 24249, Pitch_bend_c, 4, 9536
6, 24250, Pitch_bend_c, 4, 9600
6, 24251, Pitch_bend_c, 4, 9632
6, 24252, Pitch_bend_c, 4, 9696
6, 24254, Pitch_bend_c, 4, 9760
6, 24254, Pitch_bend_c, 4, 9792
6, 24255, Pitch_bend_c, 4, 9856
6, 24256, Pitch_bend_c, 4, 9888
6, 24257, Pitch_bend_c, 4, 10016
6, 24257, Pitch_bend_c, 4, 10144
6, 24258, Pitch_bend_c, 4, 10304
6, 24259, Pitch_bend_c, 4, 10464
6, 24260, Pitch_bend_c, 4, 10560
6, 24261, Note_on_c, 4, 60, 0
6, 24261, Pitch_bend_c, 4, 10656
6, 24261, Pitch_bend_c, 4, 10752
6, 24262, Pitch_bend_c, 4, 10816
6, 24263, Pitch_bend_c, 4, 10848
6, 24263, Note_on_c, 4, 63, 87
6, 24264, Pitch_bend_c, 4, 10912
6, 24267, Pitch_bend_c, 4, 10976
6, 24270, Pitch_bend_c, 4, 11008
6, 24270, Pitch_bend_c, 4, 11072
6, 24271, Pitch_bend_c, 4, 11104
6, 24272, Pitch_bend_c, 4, 11168
6, 24272, Pitch_bend_c, 4, 11232
6, 24274, Pitch_bend_c, 4, 11328
6, 24275, Pitch_bend_c, 4, 11424
6, 24275, Pitch_bend_c, 4, 11584
6, 24275, Pitch_bend_c, 4, 11680
6, 24276, Note_on_c, 4, 63, 0
6, 24276, Pitch_bend_c, 4, 11840
6, 24277, Pitch_bend_c, 4, 11936
6, 24278, Pitch_bend_c, 4, 12064
6, 24279, Pitch_bend_c, 4, 12224
6, 24280, Pitch_bend_c, 4, 12384
6, 24280, Pitch_bend_c, 4, 12480
6, 24281, Pitch_bend_c, 4, 12544
6, 24282, Pitch_bend_c, 4, 12576
6, 24283, Pitch_bend_c, 4, 12640
6, 24284, Pitch_bend_c, 4, 12576
6, 24284, Pitch_bend_c, 4, 12384
6, 24286, Pitch_bend_c, 4, 11968
6, 24286, Note_on_c, 4, 65, 93
6, 24287, Pitch_bend_c, 4, 11456
6, 24287, Pitch_bend_c, 4, 10720
6, 24288, Pitch_bend_c, 4, 9856
6, 24288, Pitch_bend_c, 4, 9088
6, 24289, Pitch_bend_c, 4, 8544
6, 24290, Pitch_bend_c, 4, 8192
6, 24387, Note_on_c, 4, 63, 81
6, 24390, Note_on_c, 4, 65, 0
6, 24394, Note_on_c, 4, 63, 0
6, 24409, Note_on_c, 4, 63, 84
6, 24417, Note_on_c, 4, 63, 0
6, 24433, Note_on_c, 4, 63, 80
6, 24454, Note_on_c, 4, 63, 0
6, 24455, Note_on_c, 4, 65, 84
6, 24480, Note_on_c, 4, 65, 0
6, 24480, Note_on_c, 4, 63, 92
6, 24543, Note_on_c, 4, 63, 0
6, 24766, Note_on_c, 4, 63, 88
6, 24773, Note_on_c, 4, 63, 0
6, 24792, Note_on_c, 4, 63, 85
6, 24839, Note_on_c, 4, 65, 82
6, 24840, Note_on_c, 4, 63, 0
6, 24885, Note_on_c, 4, 65, 0
6, 24885, Note_on_c, 4, 63, 86
6, 24917, Note_on_c, 4, 63, 0
6, 24919, Note_on_c, 4, 60, 71
6, 24930, Note_on_c, 4, 60, 0
6, 24931, Note_on_c, 4, 58, 90
6, 24965, Note_on_c, 4, 58, 0
6, 25006, Note_on_c, 4, 63, 87
6, 25031, Note_on_c, 4, 63, 0
6, 25033, Note_on_c, 4, 65, 81
6, 25057, Note_on_c, 4, 65, 0
6, 25057, Note_on_c, 4, 63, 84
6, 25093, Note_on_c, 4, 63, 0
6, 25126, Note_on_c, 4, 60, 82
6, 25133, Pitch_bend_c, 4, 8224
6, 25135, Pitch_bend_c, 4, 8288
6, 25136, Pitch_bend_c, 4, 8320
6, 25137, Pitch_bend_c, 4, 8384
6, 25137, Pitch_bend_c, 4, 8544
6, 25138, Pitch_bend_c, 4, 8672
6, 25139, Pitch_bend_c, 4, 8832
6, 25140, Pitch_bend_c, 4, 9024
6, 25141, Pitch_bend_c, 4, 9280
6, 25141, Pitch_bend_c, 4, 9536
6, 25142, Pitch_bend_c, 4, 9792
6, 25143, Pitch_bend_c, 4, 10016
6, 25144, Pitch_bend_c, 4, 10240
6, 25145, Pitch_bend_c, 4, 10464
6, 25145, Pitch_bend_c, 4, 10624
6, 25146, Pitch_bend_c, 4, 10752
6, 25147, Pitch_bend_c, 4, 10912
6, 25148, Note_on_c, 4, 60, 0
6, 25148, Pitch_bend_c, 4, 11072
6, 25149, Pitch_bend_c, 4, 11168
6, 25149, Pitch_bend_c, 4, 11328
6, 25150, Pitch_bend_c, 4, 11520
6, 25151, Pitch_bend_c, 4, 11680
6, 25152, Pitch_bend_c, 4, 11872
6, 25152, Note_on_c, 4, 63, 85
6, 25153, Pitch_bend_c, 4, 11968
6, 25154, Pitch_bend_c, 4, 11872
6, 25155, Pitch_bend_c, 4, 11584
6, 25156, Pitch_bend_c, 4, 11104
6, 25156, Pitch_bend_c, 4, 10400
6, 25157, Pitch_bend_c, 4, 9600
6, 25158, Pitch_bend_c, 4, 8928
6, 25159, Pitch_bend_c, 4, 8416
6, 25160, Pitch_bend_c, 4, 8192
6, 25161, Note_on_c, 4, 63, 0
6, 25176, Note_on_c, 4, 65, 93
6, 25249, Note_on_c, 4, 63, 77
6, 25252, Note_on_c, 4, 65, 0
6, 25256, Note_on_c, 4, 63, 0
6, 25271, Note_on_c, 4, 63, 90
6, 25322, Note_on_c, 4, 63, 0
6, 25584, Note_on_c, 4, 63, 95
6, 25606, Note_on_c, 4, 63, 0
6, 25607, Note_on_c, 4, 65, 82
6, 25631, Note_on_c, 4, 63, 91
6, 25634, Note_on_c, 4, 65, 0
6, 25690, Note_on_c, 4, 63, 0
6, 25778, Note_on_c, 4, 60, 81
6, 25784, Pitch_bend_c, 4, 8224
6, 25785, Pitch_bend_c, 4, 8288
6, 25788, Pitch_bend_c, 4, 8320
6, 25789, Pitch_bend_c, 4, 8384
6, 25789, Pitch_bend_c, 4, 8416
6, 25790, Pitch_bend_c, 4, 8544
6, 25791, Pitch_bend_c, 4, 8576
6, 25792, Pitch_bend_c, 4, 8640
6, 25793, Pitch_bend_c, 4, 8736
6, 25793, Pitch_bend_c, 4, 8800
6, 25794, Pitch_bend_c, 4, 8928
6, 25795, Pitch_bend_c, 4, 9088
6, 25796, Pitch_bend_c, 4, 9248
6, 25796, Pitch_bend_c, 4, 9408
6, 25798, Pitch_bend_c, 4, 9536
6, 25798, Pitch_bend_c, 4, 9696
6, 25799, Note_on_c, 4, 60, 0
6, 25799, Pitch_bend_c, 4, 9792
6, 25799, Pitch_bend_c, 4, 9888
6, 25800, Pitch_bend_c, 4, 10048
6, 25800, Note_on_c, 4, 63, 87
6, 25801, Pitch_bend_c, 4, 10144
6, 25802, Pitch_bend_c, 4, 10240
6, 25803, Pitch_bend_c, 4, 10304
6, 25803, Pitch_bend_c, 4, 10368
6, 25805, Pitch_bend_c, 4, 10400
6, 25805, Pitch_bend_c, 4, 10464
6, 25806, Pitch_bend_c, 4, 10496
6, 25807, Pitch_bend_c, 4, 10624
6, 25807, Pitch_bend_c, 4, 10656
6, 25808, Pitch_bend_c, 4, 10752
6, 25809, Pitch_bend_c, 4, 10912
6, 25809, Pitch_bend_c, 4, 11072
6, 25811, Pitch_bend_c, 4, 11232
6, 25811, Pitch_bend_c, 4, 11360
6, 25812, Pitch_bend_c, 4, 11520
6, 25813, Pitch_bend_c, 4, 11680
6, 25813, Pitch_bend_c, 4, 11840
6, 25814, Note_on_c, 4, 63, 0
6, 25815, Pitch_bend_c, 4, 11936
6, 25816, Pitch_bend_c, 4, 12064
6, 25816, Pitch_bend_c, 4, 12224
6, 25818, Pitch_bend_c, 4, 12320
6, 25818, Pitch_bend_c, 4, 12384
6, 25819, Pitch_bend_c, 4, 12448
6, 25820, Pitch_bend_c, 4, 12320
6, 25820, Pitch_bend_c, 4, 12128
6, 25821, Pitch_bend_c, 4, 11776
6, 25822, Pitch_bend_c, 4, 11264
6, 25823, Pitch_bend_c, 4, 10624
6, 25824, Pitch_bend_c, 4, 9856
6, 25824, Pitch_bend_c, 4, 9152
6, 25825, Pitch_bend_c, 4, 8544
6, 25825, Note_on_c, 4, 65, 95
6, 25826, Pitch_bend_c, 4, 8192
6, 25922, Note_on_c, 4, 63, 79
6, 25927, Note_on_c, 4, 65, 0
6, 25929, Note_on_c, 4, 63, 0
6, 25944, Note_on_c, 4, 63, 88
6, 25952, Note_on_c, 4, 63, 0
6, 25969, Note_on_c, 4, 63, 85
6, 25992, Note_on_c, 4, 63, 0
6, 25994, Note_on_c, 4, 65, 81
6, 26018, Note_on_c, 4, 63, 87
6, 26021, Note_on_c, 4, 65, 0
6, 26052, Note_on_c, 4, 63, 0
6, 26054, Note_on_c, 4, 60, 70
6, 26066, Note_on_c, 4, 58, 88
6, 26068, Note_on_c, 4, 60, 0
6, 26108, Note_on_c, 4, 58, 0
6, 26353, Note_on_c, 4, 63, 95
6, 26373, Note_on_c, 4, 63, 0
6, 26375, Note_on_c, 4, 65, 84
6, 26399, Note_on_c, 4, 65, 0
6, 26400, Note_on_c, 4, 63, 90
6, 26456, Note_on_c, 4, 63, 0
6, 26545, Note_on_c, 4, 60, 81
6, 26556, Pitch_bend_c, 4, 8288
6, 26557, Pitch_bend_c, 4, 8320
6, 26557, Pitch_bend_c, 4, 8416
6, 26559, Pitch_bend_c, 4, 8480
6, 26559, Pitch_bend_c, 4, 8544
6, 26560, Pitch_bend_c, 4, 8640
6, 26560, Pitch_bend_c, 4, 8736
6, 26562, Pitch_bend_c, 4, 8832
6, 26563, Pitch_bend_c, 4, 8928
6, 26563, Pitch_bend_c, 4, 9024
6, 26564, Note_on_c, 4, 60, 0
6, 26564, Pitch_bend_c, 4, 9152
6, 26565, Pitch_bend_c, 4, 9184
6, 26565, Pitch_bend_c, 4, 9248
6, 26567, Pitch_bend_c, 4, 9280
6, 26568, Pitch_bend_c, 4, 9344
6, 26568, Note_on_c, 4, 63, 92
6, 26569, Pitch_bend_c, 4, 9408
6, 26569, Pitch_bend_c, 4, 9440
6, 26570, Pitch_bend_c, 4, 9536
6, 26571, Pitch_bend_c, 4, 9632
6, 26572, Pitch_bend_c, 4, 9760
6, 26573, Pitch_bend_c, 4, 9888
6, 26573, Pitch_bend_c, 4, 10016
6, 26575, Pitch_bend_c, 4, 10144
6, 26575, Pitch_bend_c, 4, 10240
6, 26576, Pitch_bend_c, 4, 10368
6, 26577, Note_on_c, 4, 63, 0
6, 26577, Pitch_bend_c, 4, 10496
6, 26578, Pitch_bend_c, 4, 10624
6, 26579, Pitch_bend_c, 4, 10720
6, 26579, Pitch_bend_c, 4, 10816
6, 26581, Pitch_bend_c, 4, 10976
6, 26581, Pitch_bend_c, 4, 11072
6, 26582, Pitch_bend_c, 4, 11232
6, 26582, Pitch_bend_c, 4, 11328
6, 26583, Pitch_bend_c, 4, 11456
6, 26584, Pitch_bend_c, 4, 11616
6, 26585, Pitch_bend_c, 4, 11712
6, 26585, Pitch_bend_c, 4, 11840
6, 26586, Pitch_bend_c, 4, 11872
6, 26587, Pitch_bend_c, 4, 11936
6, 26588, Pitch_bend_c, 4, 11968
6, 26589, Pitch_bend_c, 4, 11936
6, 26590, Pitch_bend_c, 4, 11712
6, 26590, Note_on_c, 4, 65, 92
6, 26591, Pitch_bend_c, 4, 11360
6, 26592, Pitch_bend_c, 4, 10752
6, 26592, Pitch_bend_c, 4, 10016
6, 26593, Pitch_bend_c, 4, 9248
6, 26594, Pitch_bend_c, 4, 8640
6, 26595, Pitch_bend_c, 4, 8288
6, 26596, Pitch_bend_c, 4, 8192
6, 26690, Note_on_c, 4, 63, 77
6, 26693, Note_on_c, 4, 65, 0
6, 26697, Note_on_c, 4, 63, 0
6, 26712, Note_on_c, 4, 63, 77
6, 26718, Note_on_c, 4, 63, 0
6, 26736, Note_on_c, 4, 63, 87
6, 26756, Note_on_c, 4, 63, 0
6, 26759, Note_on_c, 4, 65, 86
6, 26807, Note_on_c, 4, 63, 103
6, 26809, Note_on_c, 4, 65, 0
6, 27043, Pitch_bend_c, 4, 8288
6, 27044, Pitch_bend_c, 4, 8416
6, 27045, Pitch_bend_c, 4, 8640
6, 27045, Pitch_bend_c, 4, 8896
6, 27046, Pitch_bend_c, 4, 9024
6, 27047, Pitch_bend_c, 4, 9184
6, 27047, Pitch_bend_c, 4, 9280
6, 27048, Pitch_bend_c, 4, 9408
6, 27049, Pitch_bend_c, 4, 9440
6, 27050, Pitch_bend_c, 4, 9536
6, 27051, Pitch_bend_c, 4, 9632
6, 27051, Pitch_bend_c, 4, 9792
6, 27052, Pitch_bend_c, 4, 9952
6, 27054, Note_on_c, 4, 63, 0
6, 27054, Pitch_bend_c, 4, 10144
6, 27054, Pitch_bend_c, 4, 10400
6, 27055, Pitch_bend_c, 4, 10624
6, 27055, Pitch_bend_c, 4, 10816
6, 27056, Pitch_bend_c, 4, 11072
6, 27057, Pitch_bend_c, 4, 11328
6, 27058, Pitch_bend_c, 4, 11520
6, 27059, Pitch_bend_c, 4, 11712
6, 27059, Pitch_bend_c, 4, 11936
6, 27060, Pitch_bend_c, 4, 12064
6, 27061, Pitch_bend_c, 4, 12224
6, 27062, Pitch_bend_c, 4, 12320
6, 27063, Pitch_bend_c, 4, 12448
6, 27063, Pitch_bend_c, 4, 12480
6, 27065, Pitch_bend_c, 4, 12320
6, 27066, Pitch_bend_c, 4, 12032
6, 27066, Pitch_bend_c, 4, 11520
6, 27067, Pitch_bend_c, 4, 10816
6, 27069, Pitch_bend_c, 4, 9888
6, 27069, Pitch_bend_c, 4, 9088
6, 27070, Pitch_bend_c, 4, 8544
6, 27070, Pitch_bend_c, 4, 8192
6, 27073, Note_on_c, 4, 63, 98
6, 27079, Note_on_c, 4, 63, 0
6, 27095, Note_on_c, 4, 65, 100
6, 27143, Note_on_c, 4, 63, 80
6, 27144, Note_on_c, 4, 65, 0
6, 27176, Note_on_c, 4, 63, 0
6, 27194, Note_on_c, 4, 63, 105
6, 27227, Note_on_c, 4, 63, 0
6, 27227, End_track
7, 0, Start_track
7, 0, Title_t, "Brass"
7, 0, Control_c, 5, 7, 96
7, 0, Pitch_bend_c, 5, 8192
7, 0, Control_c, 5, 1, 0
7, 0, Program_c, 5, 24
7, 0, Control_c, 5, 64, 0
7, 0, Control_c, 5, 10, 64
7, 4728, Note_on_c, 5, 72, 68
7, 4729, Note_on_c, 5, 63, 56
7, 4729, Note_on_c, 5, 68, 56
7, 4734, Note_on_c, 5, 63, 0
7, 4736, Note_on_c, 5, 68, 0
7, 4737, Note_on_c, 5, 72, 0
7, 4752, Note_on_c, 5, 63, 85
7, 4752, Note_on_c, 5, 68, 88
7, 4752, Note_on_c, 5, 72, 93
7, 4766, Note_on_c, 5, 63, 0
7, 4766, Note_on_c, 5, 68, 0
7, 4769, Note_on_c, 5, 72, 0
7, 4800, Note_on_c, 5, 68, 54
7, 4809, Note_on_c, 5, 68, 0
7, 4824, Note_on_c, 5, 68, 59
7, 4833, Note_on_c, 5, 68, 0
7, 4848, Note_on_c, 5, 68, 65
7, 4857, Note_on_c, 5, 68, 0
7, 4872, Note_on_c, 5, 68, 61
7, 4882, Note_on_c, 5, 68, 0
7, 4896, Note_on_c, 5, 68, 63
7, 4905, Note_on_c, 5, 68, 0
7, 4920, Note_on_c, 5, 68, 66
7, 4920, Note_on_c, 5, 63, 58
7, 4920, Note_on_c, 5, 72, 63
7, 4927, Note_on_c, 5, 63, 0
7, 4929, Note_on_c, 5, 72, 0
7, 4931, Note_on_c, 5, 68, 0
7, 4944, Note_on_c, 5, 68, 92
7, 4944, Note_on_c, 5, 63, 91
7, 4944, Note_on_c, 5, 72, 93
7, 4957, Note_on_c, 5, 63, 0
7, 4962, Note_on_c, 5, 68, 0
7, 4962, Note_on_c, 5, 72, 0
7, 4992, Note_on_c, 5, 68, 62
7, 5000, Note_on_c, 5, 68, 0
7, 5016, Note_on_c, 5, 68, 60
7, 5023, Note_on_c, 5, 68, 0
7, 5040, Note_on_c, 5, 68, 63
7, 5047, Note_on_c, 5, 68, 0
7, 5088, Note_on_c, 5, 68, 52
7, 5094, Note_on_c, 5, 68, 0
7, 5112, Note_on_c, 5, 67, 67
7, 5112, Note_on_c, 5, 63, 60
7, 5112, Note_on_c, 5, 70, 55
7, 5117, Note_on_c, 5, 63, 0
7, 5118, Note_on_c, 5, 70, 0
7, 5120, Note_on_c, 5, 67, 0
7, 5136, Note_on_c, 5, 67, 90
7, 5136, Note_on_c, 5, 63, 98
7, 5136, Note_on_c, 5, 70, 95
7, 5148, Note_on_c, 5, 63, 0
7, 5150, Note_on_c, 5, 70, 0
7, 5152, Note_on_c, 5, 67, 0
7, 5184, Note_on_c, 5, 63, 65
7, 5192, Note_on_c, 5, 63, 0
7, 5208, Note_on_c, 5, 63, 63
7, 5215, Note_on_c, 5, 63, 0
7, 5232, Note_on_c, 5, 63, 63
7, 5239, Note_on_c, 5, 63, 0
7, 5256, Note_on_c, 5, 63, 65
7, 5262, Note_on_c, 5, 63, 0
7, 5280, Note_on_c, 5, 63, 65
7, 5287, Note_on_c, 5, 63, 0
7, 5304, Note_on_c, 5, 63, 60
7, 5304, Note_on_c, 5, 67, 54
7, 5304, Note_on_c, 5, 70, 42
7, 5307, Note_on_c, 5, 70, 0
7, 5311, Note_on_c, 5, 67, 0
7, 5311, Note_on_c, 5, 63, 0
7, 5328, Note_on_c, 5, 67, 88
7, 5328, Note_on_c, 5, 63, 92
7, 5328, Note_on_c, 5, 70, 90
7, 5344, Note_on_c, 5, 63, 0
7, 5344, Note_on_c, 5, 70, 0
7, 5345, Note_on_c, 5, 67, 0
7, 5376, Note_on_c, 5, 63, 69
7, 5382, Note_on_c, 5, 63, 0
7, 5400, Note_on_c, 5, 63, 65
7, 5407, Note_on_c, 5, 63, 0
7, 5424, Note_on_c, 5, 63, 69
7, 5431, Note_on_c, 5, 63, 0
7, 5448, Note_on_c, 5, 63, 71
7, 5455, Note_on_c, 5, 63, 0
7, 5472, Note_on_c, 5, 63, 72
7, 5480, Note_on_c, 5, 63, 0
7, 5664, Note_on_c, 5, 72, 81
7, 5664, Note_on_c, 5, 75, 76
7, 5683, Note_on_c, 5, 75, 0
7, 5686, Note_on_c, 5, 72, 0
7, 5712, Note_on_c, 5, 70, 80
7, 5712, Note_on_c, 5, 74, 89
7, 5731, Note_on_c, 5, 70, 0
7, 5731, Note_on_c, 5, 74, 0
7, 5760, Note_on_c, 5, 68, 74
7, 5760, Note_on_c, 5, 72, 81
7, 5835, Note_on_c, 5, 72, 0
7, 5837, Note_on_c, 5, 68, 0
7, 6264, Note_on_c, 5, 72, 68
7, 6265, Note_on_c, 5, 63, 56
7, 6265, Note_on_c, 5, 68, 56
7, 6270, Note_on_c, 5, 63, 0
7, 6272, Note_on_c, 5, 68, 0
7, 6273, Note_on_c, 5, 72, 0
7, 6288, Note_on_c, 5, 63, 85
7, 6288, Note_on_c, 5, 68, 88
7, 6288, Note_on_c, 5, 72, 93
7, 6302, Note_on_c, 5, 63, 0
7, 6302, Note_on_c, 5, 68, 0
7, 6305, Note_on_c, 5, 72, 0
7, 6336, Note_on_c, 5, 68, 54
7, 6345, Note_on_c, 5, 68, 0
7, 6360, Note_on_c, 5, 68, 59
7, 6369, Note_on_c, 5, 68, 0
7, 6384, Note_on_c, 5, 68, 65
7, 6393, Note_on_c, 5, 68, 0
7, 6408, Note_on_c, 5, 68, 61
7, 6418, Note_on_c, 5, 68, 0
7, 6432, Note_on_c, 5, 68, 63
7, 6441, Note_on_c, 5, 68, 0
7, 6456, Note_on_c, 5, 68, 66
7, 6456, Note_on_c, 5, 72, 63
7, 6457, Note_on_c, 5, 63, 58
7, 6463, Note_on_c, 5, 63, 0
7, 6465, Note_on_c, 5, 72, 0
7, 6466, Note_on_c, 5, 68, 0
7, 6480, Note_on_c, 5, 68, 92
7, 6480, Note_on_c, 5, 63, 91
7, 6480, Note_on_c, 5, 72, 93
7, 6493, Note_on_c, 5, 63, 0
7, 6498, Note_on_c, 5, 68, 0
7, 6498, Note_on_c, 5, 72, 0
7, 6528, Note_on_c, 5, 68, 62
7, 6536, Note_on_c, 5, 68, 0
7, 6552, Note_on_c, 5, 68, 60
7, 6559, Note_on_c, 5, 68, 0
7, 6576, Note_on_c, 5, 68, 63
7, 6583, Note_on_c, 5, 68, 0
7, 6624, Note_on_c, 5, 68, 52
7, 6630, Note_on_c, 5, 68, 0
7, 6648, Note_on_c, 5, 67, 67
7, 6648, Note_on_c, 5, 63, 60
7, 6648, Note_on_c, 5, 70, 55
7, 6653, Note_on_c, 5, 63, 0
7, 6654, Note_on_c, 5, 70, 0
7, 6656, Note_on_c, 5, 67, 0
7, 6672, Note_on_c, 5, 67, 90
7, 6672, Note_on_c, 5, 63, 98
7, 6672, Note_on_c, 5, 70, 95
7, 6684, Note_on_c, 5, 63, 0
7, 6686, Note_on_c, 5, 70, 0
7, 6688, Note_on_c, 5, 67, 0
7, 6720, Note_on_c, 5, 63, 65
7, 6728, Note_on_c, 5, 63, 0
7, 6744, Note_on_c, 5, 63, 63
7, 6751, Note_on_c, 5, 63, 0
7, 6768, Note_on_c, 5, 63, 63
7, 6774, Note_on_c, 5, 63, 0
7, 6792, Note_on_c, 5, 63, 65
7, 6798, Note_on_c, 5, 63, 0
7, 6816, Note_on_c, 5, 63, 65
7, 6823, Note_on_c, 5, 63, 0
7, 6840, Note_on_c, 5, 63, 60
7, 6840, Note_on_c, 5, 67, 54
7, 6840, Note_on_c, 5, 70, 42
7, 6843, Note_on_c, 5, 70, 0
7, 6847, Note_on_c, 5, 67, 0
7, 6847, Note_on_c, 5, 63, 0
7, 6864, Note_on_c, 5, 67, 88
7, 6864, Note_on_c, 5, 63, 92
7, 6864, Note_on_c, 5, 70, 90
7, 6880, Note_on_c, 5, 63, 0
7, 6880, Note_on_c, 5, 70, 0
7, 6881, Note_on_c, 5, 67, 0
7, 6912, Note_on_c, 5, 63, 69
7, 6918, Note_on_c, 5, 63, 0
7, 6936, Note_on_c, 5, 63, 65
7, 6943, Note_on_c, 5, 63, 0
7, 6960, Note_on_c, 5, 63, 69
7, 6967, Note_on_c, 5, 63, 0
7, 6984, Note_on_c, 5, 63, 71
7, 6991, Note_on_c, 5, 63, 0
7, 7008, Note_on_c, 5, 63, 72
7, 7016, Note_on_c, 5, 63, 0
7, 7201, Note_on_c, 5, 72, 81
7, 7201, Note_on_c, 5, 75, 76
7, 7219, Note_on_c, 5, 75, 0
7, 7222, Note_on_c, 5, 72, 0
7, 7249, Note_on_c, 5, 70, 80
7, 7249, Note_on_c, 5, 74, 89
7, 7267, Note_on_c, 5, 70, 0
7, 7268, Note_on_c, 5, 74, 0
7, 7296, Note_on_c, 5, 68, 74
7, 7296, Note_on_c, 5, 72, 81
7, 7371, Note_on_c, 5, 72, 0
7, 7372, Note_on_c, 5, 68, 0
7, 11448, Note_on_c, 5, 68, 56
7, 11448, Note_on_c, 5, 63, 56
7, 11448, Note_on_c, 5, 72, 68
7, 11454, Note_on_c, 5, 63, 0
7, 11456, Note_on_c, 5, 68, 0
7, 11457, Note_on_c, 5, 72, 0
7, 11472, Note_on_c, 5, 63, 85
7, 11472, Note_on_c, 5, 68, 88
7, 11472, Note_on_c, 5, 72, 93
7, 11486, Note_on_c, 5, 63, 0
7, 11486, Note_on_c, 5, 68, 0
7, 11489, Note_on_c, 5, 72, 0
7, 11520, Note_on_c, 5, 68, 54
7, 11529, Note_on_c, 5, 68, 0
7, 11544, Note_on_c, 5, 68, 59
7, 11553, Note_on_c, 5, 68, 0
7, 11568, Note_on_c, 5, 68, 65
7, 11577, Note_on_c, 5, 68, 0
7, 11592, Note_on_c, 5, 68, 61
7, 11602, Note_on_c, 5, 68, 0
7, 11616, Note_on_c, 5, 68, 63
7, 11625, Note_on_c, 5, 68, 0
7, 11640, Note_on_c, 5, 68, 66
7, 11640, Note_on_c, 5, 72, 63
7, 11641, Note_on_c, 5, 63, 58
7, 11647, Note_on_c, 5, 63, 0
7, 11650, Note_on_c, 5, 68, 0
7, 11650, Note_on_c, 5, 72, 0
7, 11664, Note_on_c, 5, 68, 92
7, 11664, Note_on_c, 5, 63, 91
7, 11664, Note_on_c, 5, 72, 93
7, 11677, Note_on_c, 5, 63, 0
7, 11682, Note_on_c, 5, 68, 0
7, 11682, Note_on_c, 5, 72, 0
7, 11712, Note_on_c, 5, 68, 62
7, 11720, Note_on_c, 5, 68, 0
7, 11736, Note_on_c, 5, 68, 60
7, 11743, Note_on_c, 5, 68, 0
7, 11760, Note_on_c, 5, 68, 63
7, 11767, Note_on_c, 5, 68, 0
7, 11808, Note_on_c, 5, 68, 52
7, 11814, Note_on_c, 5, 68, 0
7, 11832, Note_on_c, 5, 67, 67
7, 11832, Note_on_c, 5, 63, 60
7, 11832, Note_on_c, 5, 70, 55
7, 11837, Note_on_c, 5, 63, 0
7, 11838, Note_on_c, 5, 70, 0
7, 11840, Note_on_c, 5, 67, 0
7, 11856, Note_on_c, 5, 67, 90
7, 11856, Note_on_c, 5, 63, 98
7, 11856, Note_on_c, 5, 70, 95
7, 11868, Note_on_c, 5, 63, 0
7, 11870, Note_on_c, 5, 70, 0
7, 11872, Note_on_c, 5, 67, 0
7, 11904, Note_on_c, 5, 63, 65
7, 11912, Note_on_c, 5, 63, 0
7, 11928, Note_on_c, 5, 63, 63
7, 11935, Note_on_c, 5, 63, 0
7, 11952, Note_on_c, 5, 63, 63
7, 11958, Note_on_c, 5, 63, 0
7, 11976, Note_on_c, 5, 63, 65
7, 11982, Note_on_c, 5, 63, 0
7, 12000, Note_on_c, 5, 63, 65
7, 12007, Note_on_c, 5, 63, 0
7, 12024, Note_on_c, 5, 63, 60
7, 12024, Note_on_c, 5, 67, 54
7, 12024, Note_on_c, 5, 70, 42
7, 12028, Note_on_c, 5, 70, 0
7, 12031, Note_on_c, 5, 67, 0
7, 12031, Note_on_c, 5, 63, 0
7, 12048, Note_on_c, 5, 67, 88
7, 12048, Note_on_c, 5, 63, 92
7, 12048, Note_on_c, 5, 70, 90
7, 12064, Note_on_c, 5, 63, 0
7, 12064, Note_on_c, 5, 70, 0
7, 12065, Note_on_c, 5, 67, 0
7, 12096, Note_on_c, 5, 63, 69
7, 12102, Note_on_c, 5, 63, 0
7, 12120, Note_on_c, 5, 63, 65
7, 12127, Note_on_c, 5, 63, 0
7, 12144, Note_on_c, 5, 63, 69
7, 12151, Note_on_c, 5, 63, 0
7, 12168, Note_on_c, 5, 63, 71
7, 12175, Note_on_c, 5, 63, 0
7, 12192, Note_on_c, 5, 63, 72
7, 12200, Note_on_c, 5, 63, 0
7, 12384, Note_on_c, 5, 72, 81
7, 12384, Note_on_c, 5, 75, 76
7, 12403, Note_on_c, 5, 75, 0
7, 12406, Note_on_c, 5, 72, 0
7, 12432, Note_on_c, 5, 70, 80
7, 12432, Note_on_c, 5, 74, 89
7, 12452, Note_on_c, 5, 70, 0
7, 12452, Note_on_c, 5, 74, 0
7, 12480, Note_on_c, 5, 68, 74
7, 12480, Note_on_c, 5, 72, 81
7, 12555, Note_on_c, 5, 72, 0
7, 12556, Note_on_c, 5, 68, 0
7, 12984, Note_on_c, 5, 68, 56
7, 12984, Note_on_c, 5, 72, 68
7, 12985, Note_on_c, 5, 63, 56
7, 12990, Note_on_c, 5, 63, 0
7, 12992, Note_on_c, 5, 68, 0
7, 12993, Note_on_c, 5, 72, 0
7, 13008, Note_on_c, 5, 63, 85
7, 13008, Note_on_c, 5, 68, 88
7, 13008, Note_on_c, 5, 72, 93
7, 13022, Note_on_c, 5, 63, 0
7, 13022, Note_on_c, 5, 68, 0
7, 13025, Note_on_c, 5, 72, 0
7, 13056, Note_on_c, 5, 68, 54
7, 13065, Note_on_c, 5, 68, 0
7, 13080, Note_on_c, 5, 68, 59
7, 13089, Note_on_c, 5, 68, 0
7, 13104, Note_on_c, 5, 68, 65
7, 13113, Note_on_c, 5, 68, 0
7, 13128, Note_on_c, 5, 68, 61
7, 13138, Note_on_c, 5, 68, 0
7, 13152, Note_on_c, 5, 68, 63
7, 13161, Note_on_c, 5, 68, 0
7, 13176, Note_on_c, 5, 68, 66
7, 13177, Note_on_c, 5, 63, 58
7, 13177, Note_on_c, 5, 72, 63
7, 13183, Note_on_c, 5, 63, 0
7, 13185, Note_on_c, 5, 72, 0
7, 13186, Note_on_c, 5, 68, 0
7, 13200, Note_on_c, 5, 68, 92
7, 13200, Note_on_c, 5, 63, 91
7, 13200, Note_on_c, 5, 72, 93
7, 13213, Note_on_c, 5, 63, 0
7, 13218, Note_on_c, 5, 68, 0
7, 13218, Note_on_c, 5, 72, 0
7, 13248, Note_on_c, 5, 68, 62
7, 13256, Note_on_c, 5, 68, 0
7, 13272, Note_on_c, 5, 68, 60
7, 13279, Note_on_c, 5, 68, 0
7, 13296, Note_on_c, 5, 68, 63
7, 13303, Note_on_c, 5, 68, 0
7, 13344, Note_on_c, 5, 68, 52
7, 13350, Note_on_c, 5, 68, 0
7, 13368, Note_on_c, 5, 67, 67
7, 13368, Note_on_c, 5, 63, 60
7, 13368, Note_on_c, 5, 70, 55
7, 13373, Note_on_c, 5, 63, 0
7, 13374, Note_on_c, 5, 70, 0
7, 13376, Note_on_c, 5, 67, 0
7, 13392, Note_on_c, 5, 67, 90
7, 13392, Note_on_c, 5, 63, 98
7, 13392, Note_on_c, 5, 70, 95
7, 13404, Note_on_c, 5, 63, 0
7, 13406, Note_on_c, 5, 70, 0
7, 13408, Note_on_c, 5, 67, 0
7, 13440, Note_on_c, 5, 63, 65
7, 13448, Note_on_c, 5, 63, 0
7, 13464, Note_on_c, 5, 63, 63
7, 13471, Note_on_c, 5, 63, 0
7, 13488, Note_on_c, 5, 63, 63
7, 13494, Note_on_c, 5, 63, 0
7, 13512, Note_on_c, 5, 63, 65
7, 13518, Note_on_c, 5, 63, 0
7, 13536, Note_on_c, 5, 63, 65
7, 13543, Note_on_c, 5, 63, 0
7, 13560, Note_on_c, 5, 63, 60
7, 13560, Note_on_c, 5, 67, 54
7, 13560, Note_on_c, 5, 70, 42
7, 13563, Note_on_c, 5, 70, 0
7, 13567, Note_on_c, 5, 67, 0
7, 13567, Note_on_c, 5, 63, 0
7, 13584, Note_on_c, 5, 67, 88
7, 13584, Note_on_c, 5, 63, 92
7, 13584, Note_on_c, 5, 70, 90
7, 13600, Note_on_c, 5, 63, 0
7, 13600, Note_on_c, 5, 70, 0
7, 13601, Note_on_c, 5, 67, 0
7, 13632, Note_on_c, 5, 63, 69
7, 13638, Note_on_c, 5, 63, 0
7, 13656, Note_on_c, 5, 63, 65
7, 13663, Note_on_c, 5, 63, 0
7, 13680, Note_on_c, 5, 63, 69
7, 13687, Note_on_c, 5, 63, 0
7, 13704, Note_on_c, 5, 63, 71
7, 13711, Note_on_c, 5, 63, 0
7, 13728, Note_on_c, 5, 63, 72
7, 13736, Note_on_c, 5, 63, 0
7, 13920, Note_on_c, 5, 72, 81
7, 13920, Note_on_c, 5, 75, 76
7, 13939, Note_on_c, 5, 75, 0
7, 13942, Note_on_c, 5, 72, 0
7, 13968, Note_on_c, 5, 70, 80
7, 13968, Note_on_c, 5, 74, 89
7, 13987, Note_on_c, 5, 70, 0
7, 13987, Note_on_c, 5, 74, 0
7, 14016, Note_on_c, 5, 68, 74
7, 14016, Note_on_c, 5, 72, 81
7, 14091, Note_on_c, 5, 72, 0
7, 14093, Note_on_c, 5, 68, 0
7, 20472, Note_on_c, 5, 68, 56
7, 20472, Note_on_c, 5, 63, 56
7, 20472, Note_on_c, 5, 72, 68
7, 20478, Note_on_c, 5, 63, 0
7, 20480, Note_on_c, 5, 68, 0
7, 20481, Note_on_c, 5, 72, 0
7, 20496, Note_on_c, 5, 63, 85
7, 20496, Note_on_c, 5, 68, 88
7, 20496, Note_on_c, 5, 72, 93
7, 20510, Note_on_c, 5, 63, 0
7, 20510, Note_on_c, 5, 68, 0
7, 20513, Note_on_c, 5, 72, 0
7, 20544, Note_on_c, 5, 68, 54
7, 20553, Note_on_c, 5, 68, 0
7, 20568, Note_on_c, 5, 68, 59
7, 20577, Note_on_c, 5, 68, 0
7, 20592, Note_on_c, 5, 68, 65
7, 20601, Note_on_c, 5, 68, 0
7, 20616, Note_on_c, 5, 68, 61
7, 20626, Note_on_c, 5, 68, 0
7, 20640, Note_on_c, 5, 68, 63
7, 20649, Note_on_c, 5, 68, 0
7, 20664, Note_on_c, 5, 68, 66
7, 20664, Note_on_c, 5, 63, 58
7, 20664, Note_on_c, 5, 72, 63
7, 20671, Note_on_c, 5, 63, 0
7, 20673, Note_on_c, 5, 72, 0
7, 20675, Note_on_c, 5, 68, 0
7, 20688, Note_on_c, 5, 68, 92
7, 20688, Note_on_c, 5, 63, 91
7, 20688, Note_on_c, 5, 72, 93
7, 20701, Note_on_c, 5, 63, 0
7, 20706, Note_on_c, 5, 68, 0
7, 20706, Note_on_c, 5, 72, 0
7, 20736, Note_on_c, 5, 68, 62
7, 20744, Note_on_c, 5, 68, 0
7, 20760, Note_on_c, 5, 68, 60
7, 20767, Note_on_c, 5, 68, 0
7, 20784, Note_on_c, 5, 68, 63
7, 20791, Note_on_c, 5, 68, 0
7, 20832, Note_on_c, 5, 68, 52
7, 20838, Note_on_c, 5, 68, 0
7, 20856, Note_on_c, 5, 67, 67
7, 20856, Note_on_c, 5, 63, 60
7, 20856, Note_on_c, 5, 70, 55
7, 20861, Note_on_c, 5, 63, 0
7, 20862, Note_on_c, 5, 70, 0
7, 20864, Note_on_c, 5, 67, 0
7, 20880, Note_on_c, 5, 67, 90
7, 20880, Note_on_c, 5, 63, 98
7, 20880, Note_on_c, 5, 70, 95
7, 20892, Note_on_c, 5, 63, 0
7, 20894, Note_on_c, 5, 70, 0
7, 20896, Note_on_c, 5, 67, 0
7, 20928, Note_on_c, 5, 63, 65
7, 20936, Note_on_c, 5, 63, 0
7, 20952, Note_on_c, 5, 63, 63
7, 20959, Note_on_c, 5, 63, 0
7, 20976, Note_on_c, 5, 63, 63
7, 20982, Note_on_c, 5, 63, 0
7, 21000, Note_on_c, 5, 63, 65
7, 21006, Note_on_c, 5, 63, 0
7, 21024, Note_on_c, 5, 63, 65
7, 21031, Note_on_c, 5, 63, 0
7, 21048, Note_on_c, 5, 63, 60
7, 21048, Note_on_c, 5, 67, 54
7, 21048, Note_on_c, 5, 70, 42
7, 21051, Note_on_c, 5, 70, 0
7, 21055, Note_on_c, 5, 67, 0
7, 21055, Note_on_c, 5, 63, 0
7, 21072, Note_on_c, 5, 67, 88
7, 21072, Note_on_c, 5, 63, 92
7, 21072, Note_on_c, 5, 70, 90
7, 21088, Note_on_c, 5, 63, 0
7, 21088, Note_on_c, 5, 70, 0
7, 21089, Note_on_c, 5, 67, 0
7, 21120, Note_on_c, 5, 63, 69
7, 21126, Note_on_c, 5, 63, 0
7, 21144, Note_on_c, 5, 63, 65
7, 21151, Note_on_c, 5, 63, 0
7, 21168, Note_on_c, 5, 63, 69
7, 21175, Note_on_c, 5, 63, 0
7, 21192, Note_on_c, 5, 63, 71
7, 21199, Note_on_c, 5, 63, 0
7, 21216, Note_on_c, 5, 63, 72
7, 21224, Note_on_c, 5, 63, 0
7, 21408, Note_on_c, 5, 72, 81
7, 21408, Note_on_c, 5, 75, 76
7, 21427, Note_on_c, 5, 75, 0
7, 21430, Note_on_c, 5, 72, 0
7, 21456, Note_on_c, 5, 70, 80
7, 21456, Note_on_c, 5, 74, 89
7, 21476, Note_on_c, 5, 70, 0
7, 21476, Note_on_c, 5, 74, 0
7, 21504, Note_on_c, 5, 68, 74
7, 21504, Note_on_c, 5, 72, 81
7, 21579, Note_on_c, 5, 72, 0
7, 21581, Note_on_c, 5, 68, 0
7, 22008, Note_on_c, 5, 72, 68
7, 22009, Note_on_c, 5, 63, 56
7, 22009, Note_on_c, 5, 68, 56
7, 22014, Note_on_c, 5, 63, 0
7, 22016, Note_on_c, 5, 68, 0
7, 22017, Note_on_c, 5, 72, 0
7, 22032, Note_on_c, 5, 63, 85
7, 22032, Note_on_c, 5, 68, 88
7, 22032, Note_on_c, 5, 72, 93
7, 22046, Note_on_c, 5, 63, 0
7, 22046, Note_on_c, 5, 68, 0
7, 22049, Note_on_c, 5, 72, 0
7, 22080, Note_on_c, 5, 68, 54
7, 22089, Note_on_c, 5, 68, 0
7, 22104, Note_on_c, 5, 68, 59
7, 22113, Note_on_c, 5, 68, 0
7, 22128, Note_on_c, 5, 68, 65
7, 22138, Note_on_c, 5, 68, 0
7, 22152, Note_on_c, 5, 68, 61
7, 22162, Note_on_c, 5, 68, 0
7, 22176, Note_on_c, 5, 68, 63
7, 22185, Note_on_c, 5, 68, 0
7, 22200, Note_on_c, 5, 68, 66
7, 22200, Note_on_c, 5, 72, 63
7, 22201, Note_on_c, 5, 63, 58
7, 22207, Note_on_c, 5, 63, 0
7, 22209, Note_on_c, 5, 72, 0
7, 22211, Note_on_c, 5, 68, 0
7, 22224, Note_on_c, 5, 68, 92
7, 22224, Note_on_c, 5, 63, 91
7, 22224, Note_on_c, 5, 72, 93
7, 22237, Note_on_c, 5, 63, 0
7, 22242, Note_on_c, 5, 68, 0
7, 22242, Note_on_c, 5, 72, 0
7, 22272, Note_on_c, 5, 68, 62
7, 22280, Note_on_c, 5, 68, 0
7, 22296, Note_on_c, 5, 68, 60
7, 22303, Note_on_c, 5, 68, 0
7, 22320, Note_on_c, 5, 68, 63
7, 22327, Note_on_c, 5, 68, 0
7, 22368, Note_on_c, 5, 68, 52
7, 22374, Note_on_c, 5, 68, 0
7, 22392, Note_on_c, 5, 67, 67
7, 22392, Note_on_c, 5, 63, 60
7, 22392, Note_on_c, 5, 70, 55
7, 22397, Note_on_c, 5, 63, 0
7, 22398, Note_on_c, 5, 70, 0
7, 22400, Note_on_c, 5, 67, 0
7, 22416, Note_on_c, 5, 67, 90
7, 22416, Note_on_c, 5, 63, 98
7, 22416, Note_on_c, 5, 70, 95
7, 22428, Note_on_c, 5, 63, 0
7, 22430, Note_on_c, 5, 70, 0
7, 22432, Note_on_c, 5, 67, 0
7, 22464, Note_on_c, 5, 63, 65
7, 22472, Note_on_c, 5, 63, 0
7, 22488, Note_on_c, 5, 63, 63
7, 22495, Note_on_c, 5, 63, 0
7, 22512, Note_on_c, 5, 63, 63
7, 22518, Note_on_c, 5, 63, 0
7, 22536, Note_on_c, 5, 63, 65
7, 22542, Note_on_c, 5, 63, 0
7, 22560, Note_on_c, 5, 63, 65
7, 22567, Note_on_c, 5, 63, 0
7, 22584, Note_on_c, 5, 63, 60
7, 22584, Note_on_c, 5, 67, 54
7, 22584, Note_on_c, 5, 70, 42
7, 22587, Note_on_c, 5, 70, 0
7, 22591, Note_on_c, 5, 67, 0
7, 22591, Note_on_c, 5, 63, 0
7, 22608, Note_on_c, 5, 67, 88
7, 22608, Note_on_c, 5, 63, 92
7, 22608, Note_on_c, 5, 70, 90
7, 22624, Note_on_c, 5, 63, 0
7, 22624, Note_on_c, 5, 70, 0
7, 22625, Note_on_c, 5, 67, 0
7, 22656, Note_on_c, 5, 63, 69
7, 22662, Note_on_c, 5, 63, 0
7, 22680, Note_on_c, 5, 63, 65
7, 22687, Note_on_c, 5, 63, 0
7, 22704, Note_on_c, 5, 63, 69
7, 22711, Note_on_c, 5, 63, 0
7, 22728, Note_on_c, 5, 63, 71
7, 22735, Note_on_c, 5, 63, 0
7, 22752, Note_on_c, 5, 63, 72
7, 22760, Note_on_c, 5, 63, 0
7, 22944, Note_on_c, 5, 72, 81
7, 22944, Note_on_c, 5, 75, 76
7, 22963, Note_on_c, 5, 75, 0
7, 22966, Note_on_c, 5, 72, 0
7, 22992, Note_on_c, 5, 74, 89
7, 22993, Note_on_c, 5, 70, 80
7, 23012, Note_on_c, 5, 70, 0
7, 23012, Note_on_c, 5, 74, 0
7, 23040, Note_on_c, 5, 68, 74
7, 23040, Note_on_c, 5, 72, 81
7, 23115, Note_on_c, 5, 72, 0
7, 23116, Note_on_c, 5, 68, 0
7, 23116, End_track
8, 0, Start_track
8, 0, Title_t, "Harmonica"
8, 0, Program_c, 6, 87
8, 0, Pitch_bend_c, 6, 8160
8, 144, Note_on_c, 6, 70, 62
8, 163, Note_on_c, 6, 70, 0
8, 168, Note_on_c, 6, 80, 80
8, 202, Note_on_c, 6, 80, 0
8, 216, Note_on_c, 6, 80, 62
8, 228, Note_on_c, 6, 80, 0
8, 240, Note_on_c, 6, 79, 66
8, 282, Note_on_c, 6, 79, 0
8, 288, Note_on_c, 6, 75, 51
8, 333, Note_on_c, 6, 75, 0
8, 336, Note_on_c, 6, 70, 56
8, 349, Note_on_c, 6, 70, 0
8, 360, Note_on_c, 6, 75, 68
8, 394, Note_on_c, 6, 75, 0
8, 408, Note_on_c, 6, 75, 67
8, 420, Note_on_c, 6, 75, 0
8, 432, Note_on_c, 6, 75, 63
8, 468, Note_on_c, 6, 75, 0
8, 480, Note_on_c, 6, 70, 72
8, 512, Note_on_c, 6, 70, 0
8, 528, Note_on_c, 6, 70, 72
8, 538, Note_on_c, 6, 70, 0
8, 552, Note_on_c, 6, 80, 72
8, 586, Note_on_c, 6, 80, 0
8, 600, Note_on_c, 6, 80, 72
8, 614, Note_on_c, 6, 80, 0
8, 624, Note_on_c, 6, 79, 71
8, 657, Note_on_c, 6, 79, 0
8, 672, Note_on_c, 6, 75, 68
8, 715, Note_on_c, 6, 75, 0
8, 720, Note_on_c, 6, 70, 66
8, 732, Note_on_c, 6, 70, 0
8, 744, Note_on_c, 6, 75, 71
8, 778, Note_on_c, 6, 75, 0
8, 792, Note_on_c, 6, 75, 70
8, 802, Note_on_c, 6, 75, 0
8, 816, Note_on_c, 6, 75, 65
8, 850, Note_on_c, 6, 75, 0
8, 864, Note_on_c, 6, 70, 80
8, 897, Note_on_c, 6, 70, 0
8, 912, Note_on_c, 6, 70, 80
8, 923, Note_on_c, 6, 70, 0
8, 936, Note_on_c, 6, 80, 71
8, 970, Note_on_c, 6, 80, 0
8, 984, Note_on_c, 6, 80, 70
8, 997, Note_on_c, 6, 80, 0
8, 1008, Note_on_c, 6, 79, 75
8, 1045, Note_on_c, 6, 79, 0
8, 1056, Note_on_c, 6, 75, 72
8, 1099, Note_on_c, 6, 75, 0
8, 1104, Note_on_c, 6, 70, 72
8, 1118, Note_on_c, 6, 70, 0
8, 1128, Note_on_c, 6, 75, 66
8, 1161, Note_on_c, 6, 75, 0
8, 1176, Note_on_c, 6, 75, 76
8, 1186, Note_on_c, 6, 75, 0
8, 1200, Note_on_c, 6, 75, 72
8, 1234, Note_on_c, 6, 75, 0
8, 1248, Note_on_c, 6, 70, 77
8, 1282, Note_on_c, 6, 70, 0
8, 1296, Note_on_c, 6, 70, 76
8, 1306, Note_on_c, 6, 70, 0
8, 1320, Note_on_c, 6, 80, 71
8, 1351, Note_on_c, 6, 80, 0
8, 1368, Note_on_c, 6, 80, 69
8, 1381, Note_on_c, 6, 80, 0
8, 1392, Note_on_c, 6, 79, 72
8, 1429, Note_on_c, 6, 79, 0
8, 1440, Note_on_c, 6, 75, 67
8, 1485, Note_on_c, 6, 75, 0
8, 1488, Note_on_c, 6, 70, 63
8, 1499, Note_on_c, 6, 70, 0
8, 1512, Note_on_c, 6, 75, 69
8, 1544, Note_on_c, 6, 75, 0
8, 1560, Note_on_c, 6, 75, 72
8, 1572, Note_on_c, 6, 75, 0
8, 1584, Note_on_c, 6, 75, 75
8, 1611, Note_on_c, 6, 75, 0
8, 1632, Note_on_c, 6, 70, 78
8, 1652, Note_on_c, 6, 70, 0
8, 7632, Note_on_c, 6, 70, 62
8, 7651, Note_on_c, 6, 70, 0
8, 7656, Note_on_c, 6, 80, 80
8, 7690, Note_on_c, 6, 80, 0
8, 7704, Note_on_c, 6, 80, 62
8, 7715, Note_on_c, 6, 80, 0
8, 7728, Note_on_c, 6, 79, 66
8, 7770, Note_on_c, 6, 79, 0
8, 7776, Note_on_c, 6, 75, 51
8, 7821, Note_on_c, 6, 75, 0
8, 7824, Note_on_c, 6, 70, 56
8, 7837, Note_on_c, 6, 70, 0
8, 7848, Note_on_c, 6, 75, 68
8, 7882, Note_on_c, 6, 75, 0
8, 7896, Note_on_c, 6, 75, 67
8, 7908, Note_on_c, 6, 75, 0
8, 7920, Note_on_c, 6, 75, 63
8, 7956, Note_on_c, 6, 75, 0
8, 7968, Note_on_c, 6, 70, 72
8, 8000, Note_on_c, 6, 70, 0
8, 8016, Note_on_c, 6, 70, 72
8, 8026, Note_on_c, 6, 70, 0
8, 8040, Note_on_c, 6, 80, 72
8, 8074, Note_on_c, 6, 80, 0
8, 8088, Note_on_c, 6, 80, 72
8, 8102, Note_on_c, 6, 80, 0
8, 8112, Note_on_c, 6, 79, 71
8, 8145, Note_on_c, 6, 79, 0
8, 8160, Note_on_c, 6, 75, 68
8, 8203, Note_on_c, 6, 75, 0
8, 8208, Note_on_c, 6, 70, 66
8, 8220, Note_on_c, 6, 70, 0
8, 8232, Note_on_c, 6, 75, 71
8, 8266, Note_on_c, 6, 75, 0
8, 8280, Note_on_c, 6, 75, 70
8, 8290, Note_on_c, 6, 75, 0
8, 8304, Note_on_c, 6, 75, 65
8, 8338, Note_on_c, 6, 75, 0
8, 8352, Note_on_c, 6, 70, 80
8, 8385, Note_on_c, 6, 70, 0
8, 14352, Note_on_c, 6, 70, 62
8, 14371, Note_on_c, 6, 70, 0
8, 14376, Note_on_c, 6, 80, 80
8, 14410, Note_on_c, 6, 80, 0
8, 14424, Note_on_c, 6, 80, 62
8, 14435, Note_on_c, 6, 80, 0
8, 14448, Note_on_c, 6, 79, 66
8, 14490, Note_on_c, 6, 79, 0
8, 14496, Note_on_c, 6, 75, 51
8, 14541, Note_on_c, 6, 75, 0
8, 14544, Note_on_c, 6, 70, 56
8, 14557, Note_on_c, 6, 70, 0
8, 14568, Note_on_c, 6, 75, 68
8, 14602, Note_on_c, 6, 75, 0
8, 14616, Note_on_c, 6, 75, 67
8, 14628, Note_on_c, 6, 75, 0
8, 14640, Note_on_c, 6, 75, 63
8, 14676, Note_on_c, 6, 75, 0
8, 14688, Note_on_c, 6, 70, 72
8, 14720, Note_on_c, 6, 70, 0
8, 14736, Note_on_c, 6, 70, 72
8, 14746, Note_on_c, 6, 70, 0
8, 14760, Note_on_c, 6, 80, 72
8, 14794, Note_on_c, 6, 80, 0
8, 14808, Note_on_c, 6, 80, 72
8, 14822, Note_on_c, 6, 80, 0
8, 14832, Note_on_c, 6, 79, 71
8, 14865, Note_on_c, 6, 79, 0
8, 14880, Note_on_c, 6, 75, 68
8, 14923, Note_on_c, 6, 75, 0
8, 14928, Note_on_c, 6, 70, 66
8, 14940, Note_on_c, 6, 70, 0
8, 14952, Note_on_c, 6, 75, 71
8, 14986, Note_on_c, 6, 75, 0
8, 15000, Note_on_c, 6, 75, 70
8, 15010, Note_on_c, 6, 75, 0
8, 15024, Note_on_c, 6, 75, 65
8, 15058, Note_on_c, 6, 75, 0
8, 15072, Note_on_c, 6, 70, 80
8, 15105, Note_on_c, 6, 70, 0
8, 17040, Note_on_c, 6, 70, 72
8, 17050, Note_on_c, 6, 70, 0
8, 17064, Note_on_c, 6, 80, 72
8, 17098, Note_on_c, 6, 80, 0
8, 17112, Note_on_c, 6, 80, 72
8, 17126, Note_on_c, 6, 80, 0
8, 17136, Note_on_c, 6, 79, 71
8, 17169, Note_on_c, 6, 79, 0
8, 17184, Note_on_c, 6, 75, 68
8, 17227, Note_on_c, 6, 75, 0
8, 17232, Note_on_c, 6, 70, 66
8, 17244, Note_on_c, 6, 70, 0
8, 17257, Note_on_c, 6, 75, 71
8, 17291, Note_on_c, 6, 75, 0
8, 17305, Note_on_c, 6, 75, 70
8, 17314, Note_on_c, 6, 75, 0
8, 17328, Note_on_c, 6, 75, 65
8, 17362, Note_on_c, 6, 75, 0
8, 17376, Note_on_c, 6, 70, 80
8, 17409, Note_on_c, 6, 70, 0
8, 17425, Note_on_c, 6, 67, 93
8, 17446, Note_on_c, 6, 67, 0
8, 17447, Note_on_c, 6, 70, 97
8, 17456, Note_on_c, 6, 70, 0
8, 17471, Note_on_c, 6, 70, 98
8, 17522, Note_on_c, 6, 70, 0
8, 17522, Note_on_c, 6, 69, 90
8, 17531, Note_on_c, 6, 68, 101
8, 17533, Note_on_c, 6, 69, 0
8, 17541, Note_on_c, 6, 67, 95
8, 17542, Note_on_c, 6, 68, 0
8, 17570, Note_on_c, 6, 67, 0
8, 17570, Note_on_c, 6, 71, 101
8, 17614, Note_on_c, 6, 71, 0
8, 17615, Note_on_c, 6, 67, 95
8, 17637, Note_on_c, 6, 67, 0
8, 17638, Note_on_c, 6, 71, 90
8, 17650, Note_on_c, 6, 71, 0
8, 17652, Note_on_c, 6, 74, 90
8, 17664, Pitch_bend_c, 6, 8032
8, 17664, Note_on_c, 6, 77, 101
8, 17665, Note_on_c, 6, 74, 0
8, 17665, Pitch_bend_c, 6, 7840
8, 17665, Pitch_bend_c, 6, 7648
8, 17667, Pitch_bend_c, 6, 7456
8, 17667, Pitch_bend_c, 6, 7264
8, 17668, Pitch_bend_c, 6, 7072
8, 17668, Pitch_bend_c, 6, 6816
8, 17668, Pitch_bend_c, 6, 6624
8, 17670, Pitch_bend_c, 6, 6368
8, 17670, Pitch_bend_c, 6, 6176
8, 17671, Pitch_bend_c, 6, 5920
8, 17672, Pitch_bend_c, 6, 5728
8, 17672, Pitch_bend_c, 6, 5536
8, 17673, Pitch_bend_c, 6, 5376
8, 17674, Pitch_bend_c, 6, 5312
8, 17674, Pitch_bend_c, 6, 5184
8, 17676, Pitch_bend_c, 6, 5120
8, 17679, Pitch_bend_c, 6, 5184
8, 17680, Pitch_bend_c, 6, 5248
8, 17681, Pitch_bend_c, 6, 5376
8, 17681, Pitch_bend_c, 6, 5472
8, 17682, Pitch_bend_c, 6, 5664
8, 17683, Pitch_bend_c, 6, 5920
8, 17684, Pitch_bend_c, 6, 6176
8, 17684, Pitch_bend_c, 6, 6432
8, 17684, Pitch_bend_c, 6, 6816
8, 17686, Pitch_bend_c, 6, 7264
8, 17686, Pitch_bend_c, 6, 7712
8, 17687, Pitch_bend_c, 6, 8032
8, 17687, Pitch_bend_c, 6, 8192
8, 17736, Note_on_c, 6, 77, 0
8, 17737, Note_on_c, 6, 79, 98
8, 17761, Note_on_c, 6, 75, 92
8, 17762, Note_on_c, 6, 79, 0
8, 17952, Note_on_c, 6, 75, 0
8, 17976, Note_on_c, 6, 72, 102
8, 18001, Note_on_c, 6, 72, 0
8, 18023, Note_on_c, 6, 70, 100
8, 18050, Note_on_c, 6, 70, 0
8, 18070, Note_on_c, 6, 66, 81
8, 18075, Note_on_c, 6, 65, 91
8, 18076, Note_on_c, 6, 66, 0
8, 18084, Note_on_c, 6, 63, 99
8, 18088, Note_on_c, 6, 65, 0
8, 18094, Note_on_c, 6, 63, 0
8, 18094, Note_on_c, 6, 60, 95
8, 18119, Note_on_c, 6, 60, 0
8, 18121, Note_on_c, 6, 63, 95
8, 18165, Note_on_c, 6, 63, 0
8, 18188, Pitch_bend_c, 6, 7968
8, 18189, Pitch_bend_c, 6, 7712
8, 18189, Pitch_bend_c, 6, 7328
8, 18191, Pitch_bend_c, 6, 6944
8, 18191, Pitch_bend_c, 6, 6688
8, 18192, Pitch_bend_c, 6, 6368
8, 18192, Pitch_bend_c, 6, 6176
8, 18192, Pitch_bend_c, 6, 6048
8, 18192, Note_on_c, 6, 75, 97
8, 18194, Pitch_bend_c, 6, 5856
8, 18194, Pitch_bend_c, 6, 5728
8, 18195, Pitch_bend_c, 6, 5664
8, 18196, Pitch_bend_c, 6, 5600
8, 18196, Pitch_bend_c, 6, 5536
8, 18197, Pitch_bend_c, 6, 5600
8, 18198, Pitch_bend_c, 6, 5664
8, 18199, Pitch_bend_c, 6, 5792
8, 18200, Note_on_c, 6, 75, 0
8, 18200, Pitch_bend_c, 6, 5984
8, 18200, Pitch_bend_c, 6, 6176
8, 18201, Pitch_bend_c, 6, 6496
8, 18202, Pitch_bend_c, 6, 6816
8, 18202, Pitch_bend_c, 6, 7328
8, 18203, Pitch_bend_c, 6, 7712
8, 18204, Pitch_bend_c, 6, 8096
8, 18204, Pitch_bend_c, 6, 8192
8, 18214, Note_on_c, 6, 75, 100
8, 18221, Note_on_c, 6, 75, 0
8, 18238, Note_on_c, 6, 75, 95
8, 18288, Note_on_c, 6, 74, 105
8, 18291, Note_on_c, 6, 75, 0
8, 18293, Note_on_c, 6, 74, 0
8, 18310, Note_on_c, 6, 74, 97
8, 18383, Note_on_c, 6, 74, 0
8, 18383, Note_on_c, 6, 72, 100
8, 18389, Note_on_c, 6, 72, 0
8, 18407, Note_on_c, 6, 72, 97
8, 18413, Note_on_c, 6, 72, 0
8, 18432, Note_on_c, 6, 72, 97
8, 18460, Pitch_bend_c, 6, 8032
8, 18461, Pitch_bend_c, 6, 7776
8, 18462, Pitch_bend_c, 6, 7456
8, 18462, Pitch_bend_c, 6, 7136
8, 18463, Pitch_bend_c, 6, 6944
8, 18465, Pitch_bend_c, 6, 6688
8, 18465, Pitch_bend_c, 6, 6560
8, 18466, Pitch_bend_c, 6, 6432
8, 18466, Pitch_bend_c, 6, 6304
8, 18466, Pitch_bend_c, 6, 6176
8, 18467, Pitch_bend_c, 6, 6048
8, 18468, Pitch_bend_c, 6, 5984
8, 18469, Pitch_bend_c, 6, 5920
8, 18469, Pitch_bend_c, 6, 5856
8, 18470, Pitch_bend_c, 6, 5920
8, 18471, Pitch_bend_c, 6, 5984
8, 18473, Pitch_bend_c, 6, 6112
8, 18473, Pitch_bend_c, 6, 6240
8, 18474, Pitch_bend_c, 6, 6432
8, 18474, Pitch_bend_c, 6, 6624
8, 18475, Pitch_bend_c, 6, 6880
8, 18476, Pitch_bend_c, 6, 7264
8, 18476, Pitch_bend_c, 6, 7648
8, 18477, Pitch_bend_c, 6, 7968
8, 18478, Pitch_bend_c, 6, 8192
8, 18480, Note_on_c, 6, 72, 0
8, 18480, Note_on_c, 6, 74, 98
8, 18572, Note_on_c, 6, 70, 101
8, 18573, Note_on_c, 6, 74, 0
8, 18783, Note_on_c, 6, 70, 0
8, 18790, Note_on_c, 6, 72, 100
8, 18818, Note_on_c, 6, 72, 0
8, 18838, Note_on_c, 6, 66, 97
8, 18845, Note_on_c, 6, 66, 0
8, 18845, Note_on_c, 6, 65, 97
8, 18853, Note_on_c, 6, 63, 98
8, 18856, Note_on_c, 6, 65, 0
8, 18861, Note_on_c, 6, 63, 0
8, 18862, Note_on_c, 6, 60, 98
8, 18888, Note_on_c, 6, 60, 0
8, 18888, Note_on_c, 6, 63, 96
8, 18910, Note_on_c, 6, 63, 0
8, 18911, Note_on_c, 6, 65, 101
8, 18935, Note_on_c, 6, 63, 106
8, 18936, Note_on_c, 6, 65, 0
8, 18981, Note_on_c, 6, 63, 0
8, 18983, Note_on_c, 6, 67, 91
8, 19006, Note_on_c, 6, 67, 0
8, 19007, Note_on_c, 6, 70, 92
8, 19056, Note_on_c, 6, 70, 0
8, 19056, Note_on_c, 6, 67, 90
8, 19080, Note_on_c, 6, 70, 91
8, 19081, Note_on_c, 6, 67, 0
8, 19103, Note_on_c, 6, 70, 0
8, 19104, Note_on_c, 6, 71, 101
8, 19132, Pitch_bend_c, 6, 8672
8, 19133, Pitch_bend_c, 6, 9696
8, 19134, Pitch_bend_c, 6, 11328
8, 19135, Pitch_bend_c, 6, 13344
8, 19135, Pitch_bend_c, 6, 15104
8, 19136, Pitch_bend_c, 6, 16383
8, 19148, Note_on_c, 6, 71, 0
8, 19152, Note_on_c, 6, 67, 102
8, 19154, Pitch_bend_c, 6, 15968
8, 19154, Pitch_bend_c, 6, 15168
8, 19155, Pitch_bend_c, 6, 14144
8, 19156, Pitch_bend_c, 6, 12832
8, 19156, Pitch_bend_c, 6, 11456
8, 19157, Pitch_bend_c, 6, 10400
8, 19158, Pitch_bend_c, 6, 9600
8, 19158, Pitch_bend_c, 6, 9440
8, 19159, Pitch_bend_c, 6, 9888
8, 19160, Pitch_bend_c, 6, 10976
8, 19161, Pitch_bend_c, 6, 12576
8, 19162, Pitch_bend_c, 6, 14368
8, 19162, Pitch_bend_c, 6, 15776
8, 19162, Pitch_bend_c, 6, 16383
8, 19172, Note_on_c, 6, 67, 0
8, 19174, Note_on_c, 6, 71, 90
8, 19185, Note_on_c, 6, 71, 0
8, 19187, Note_on_c, 6, 74, 100
8, 19197, Pitch_bend_c, 6, 16288
8, 19197, Pitch_bend_c, 6, 15008
8, 19198, Pitch_bend_c, 6, 13056
8, 19199, Note_on_c, 6, 74, 0
8, 19199, Pitch_bend_c, 6, 11008
8, 19199, Pitch_bend_c, 6, 9280
8, 19201, Pitch_bend_c, 6, 8320
8, 19201, Pitch_bend_c, 6, 8192
8, 19201, Note_on_c, 6, 77, 104
8, 19256, Pitch_bend_c, 6, 7968
8, 19257, Pitch_bend_c, 6, 7712
8, 19257, Pitch_bend_c, 6, 7328
8, 19258, Pitch_bend_c, 6, 6944
8, 19259, Pitch_bend_c, 6, 6624
8, 19260, Pitch_bend_c, 6, 6304
8, 19260, Pitch_bend_c, 6, 6112
8, 19261, Pitch_bend_c, 6, 5984
8, 19262, Pitch_bend_c, 6, 5856
8, 19262, Pitch_bend_c, 6, 5792
8, 19265, Pitch_bend_c, 6, 5728
8, 19267, Pitch_bend_c, 6, 5664
8, 19267, Pitch_bend_c, 6, 5600
8, 19268, Pitch_bend_c, 6, 5536
8, 19269, Pitch_bend_c, 6, 5472
8, 19270, Pitch_bend_c, 6, 5440
8, 19273, Pitch_bend_c, 6, 5472
8, 19275, Pitch_bend_c, 6, 5600
8, 19275, Pitch_bend_c, 6, 5792
8, 19276, Pitch_bend_c, 6, 6112
8, 19276, Pitch_bend_c, 6, 6496
8, 19277, Pitch_bend_c, 6, 6944
8, 19278, Pitch_bend_c, 6, 7520
8, 19278, Pitch_bend_c, 6, 7904
8, 19279, Pitch_bend_c, 6, 8160
8, 19280, Pitch_bend_c, 6, 8192
8, 19334, Note_on_c, 6, 77, 0
8, 19348, Note_on_c, 6, 75, 106
8, 19370, Note_on_c, 6, 72, 90
8, 19371, Note_on_c, 6, 75, 0
8, 19392, Pitch_bend_c, 6, 8096
8, 19392, Pitch_bend_c, 6, 7840
8, 19393, Pitch_bend_c, 6, 7456
8, 19394, Pitch_bend_c, 6, 6944
8, 19394, Pitch_bend_c, 6, 6496
8, 19395, Pitch_bend_c, 6, 6048
8, 19396, Pitch_bend_c, 6, 5728
8, 19396, Pitch_bend_c, 6, 5440
8, 19397, Pitch_bend_c, 6, 5248
8, 19398, Pitch_bend_c, 6, 5184
8, 19399, Pitch_bend_c, 6, 5120
8, 19400, Pitch_bend_c, 6, 5184
8, 19400, Pitch_bend_c, 6, 5312
8, 19401, Pitch_bend_c, 6, 5472
8, 19401, Pitch_bend_c, 6, 5856
8, 19402, Pitch_bend_c, 6, 6176
8, 19403, Pitch_bend_c, 6, 6624
8, 19403, Pitch_bend_c, 6, 7072
8, 19404, Pitch_bend_c, 6, 7520
8, 19404, Pitch_bend_c, 6, 7904
8, 19405, Pitch_bend_c, 6, 8160
8, 19406, Pitch_bend_c, 6, 8192
8, 19420, Pitch_bend_c, 6, 8032
8, 19421, Pitch_bend_c, 6, 7584
8, 19422, Pitch_bend_c, 6, 7136
8, 19422, Pitch_bend_c, 6, 6560
8, 19422, Pitch_bend_c, 6, 6176
8, 19424, Pitch_bend_c, 6, 5856
8, 19425, Pitch_bend_c, 6, 5600
8, 19425, Pitch_bend_c, 6, 5536
8, 19426, Pitch_bend_c, 6, 5600
8, 19427, Pitch_bend_c, 6, 5792
8, 19428, Pitch_bend_c, 6, 5984
8, 19428, Pitch_bend_c, 6, 6304
8, 19429, Pitch_bend_c, 6, 6688
8, 19430, Pitch_bend_c, 6, 7136
8, 19431, Pitch_bend_c, 6, 7584
8, 19431, Pitch_bend_c, 6, 7968
8, 19432, Pitch_bend_c, 6, 8160
8, 19433, Pitch_bend_c, 6, 8192
8, 19440, Note_on_c, 6, 75, 92
8, 19444, Note_on_c, 6, 72, 0
8, 19496, Note_on_c, 6, 75, 0
8, 19511, Note_on_c, 6, 78, 110
8, 19545, Pitch_bend_c, 6, 8544
8, 19546, Pitch_bend_c, 6, 9600
8, 19547, Pitch_bend_c, 6, 11328
8, 19547, Pitch_bend_c, 6, 13600
8, 19548, Pitch_bend_c, 6, 15488
8, 19549, Pitch_bend_c, 6, 16383
8, 19583, Note_on_c, 6, 78, 0
8, 19584, Note_on_c, 6, 77, 103
8, 19607, Note_on_c, 6, 75, 97
8, 19608, Note_on_c, 6, 77, 0
8, 19612, Pitch_bend_c, 6, 16096
8, 19613, Pitch_bend_c, 6, 14624
8, 19614, Pitch_bend_c, 6, 12480
8, 19614, Pitch_bend_c, 6, 10496
8, 19615, Pitch_bend_c, 6, 8928
8, 19615, Pitch_bend_c, 6, 8192
8, 19656, Note_on_c, 6, 75, 0
8, 19656, Note_on_c, 6, 77, 101
8, 19668, Note_on_c, 6, 77, 0
8, 19679, Note_on_c, 6, 77, 107
8, 19777, Note_on_c, 6, 75, 98
8, 19778, Note_on_c, 6, 77, 0
8, 19845, Note_on_c, 6, 72, 87
8, 19848, Note_on_c, 6, 75, 0
8, 19868, Note_on_c, 6, 72, 0
8, 19869, Note_on_c, 6, 70, 95
8, 19891, Note_on_c, 6, 70, 0
8, 19893, Note_on_c, 6, 79, 100
8, 19917, Note_on_c, 6, 77, 99
8, 19920, Note_on_c, 6, 79, 0
8, 19923, Note_on_c, 6, 77, 0
8, 19942, Note_on_c, 6, 77, 101
8, 19967, Note_on_c, 6, 77, 0
8, 19967, Note_on_c, 6, 75, 95
8, 19971, Note_on_c, 6, 75, 0
8, 19989, Note_on_c, 6, 75, 96
8, 20012, Note_on_c, 6, 75, 0
8, 20013, Note_on_c, 6, 72, 87
8, 20021, Note_on_c, 6, 72, 0
8, 20038, Note_on_c, 6, 72, 93
8, 20060, Note_on_c, 6, 72, 0
8, 20062, Note_on_c, 6, 70, 92
8, 20133, Note_on_c, 6, 70, 0
8, 20136, Note_on_c, 6, 72, 95
8, 20156, Note_on_c, 6, 72, 0
8, 20178, Note_on_c, 6, 66, 83
8, 20184, Note_on_c, 6, 66, 0
8, 20185, Note_on_c, 6, 65, 103
8, 20194, Note_on_c, 6, 63, 93
8, 20196, Note_on_c, 6, 65, 0
8, 20202, Note_on_c, 6, 63, 0
8, 20203, Note_on_c, 6, 60, 91
8, 20228, Note_on_c, 6, 60, 0
8, 20230, Note_on_c, 6, 63, 101
8, 20251, Note_on_c, 6, 63, 0
8, 20252, Note_on_c, 6, 65, 93
8, 20278, Note_on_c, 6, 65, 0
8, 20278, Note_on_c, 6, 63, 100
8, 20328, Note_on_c, 6, 63, 0
8, 23760, Note_on_c, 6, 70, 62
8, 23779, Note_on_c, 6, 70, 0
8, 23784, Note_on_c, 6, 80, 80
8, 23818, Note_on_c, 6, 80, 0
8, 23832, Note_on_c, 6, 80, 62
8, 23843, Note_on_c, 6, 80, 0
8, 23856, Note_on_c, 6, 79, 66
8, 23898, Note_on_c, 6, 79, 0
8, 23904, Note_on_c, 6, 75, 51
8, 23949, Note_on_c, 6, 75, 0
8, 23952, Note_on_c, 6, 70, 56
8, 23965, Note_on_c, 6, 70, 0
8, 23976, Note_on_c, 6, 75, 68
8, 24010, Note_on_c, 6, 75, 0
8, 24024, Note_on_c, 6, 75, 67
8, 24036, Note_on_c, 6, 75, 0
8, 24048, Note_on_c, 6, 75, 63
8, 24084, Note_on_c, 6, 75, 0
8, 24096, Note_on_c, 6, 70, 72
8, 24128, Note_on_c, 6, 70, 0
8, 24144, Note_on_c, 6, 70, 72
8, 24154, Note_on_c, 6, 70, 0
8, 24168, Note_on_c, 6, 80, 72
8, 24202, Note_on_c, 6, 80, 0
8, 24216, Note_on_c, 6, 80, 72
8, 24230, Note_on_c, 6, 80, 0
8, 24240, Note_on_c, 6, 79, 71
8, 24273, Note_on_c, 6, 79, 0
8, 24288, Note_on_c, 6, 75, 68
8, 24331, Note_on_c, 6, 75, 0
8, 24336, Note_on_c, 6, 70, 66
8, 24348, Note_on_c, 6, 70, 0
8, 24360, Note_on_c, 6, 75, 71
8, 24394, Note_on_c, 6, 75, 0
8, 24408, Note_on_c, 6, 75, 70
8, 24418, Note_on_c, 6, 75, 0
8, 24432, Note_on_c, 6, 75, 65
8, 24466, Note_on_c, 6, 75, 0
8, 24480, Note_on_c, 6, 70, 80
8, 24513, Note_on_c, 6, 70, 0
8, 24528, Note_on_c, 6, 70, 80
8, 24539, Note_on_c, 6, 70, 0
8, 24552, Note_on_c, 6, 80, 71
8, 24586, Note_on_c, 6, 80, 0
8, 24600, Note_on_c, 6, 80, 70
8, 24613, Note_on_c, 6, 80, 0
8, 24624, Note_on_c, 6, 79, 75
8, 24661, Note_on_c, 6, 79, 0
8, 24672, Note_on_c, 6, 75, 72
8, 24715, Note_on_c, 6, 75, 0
8, 24720, Note_on_c, 6, 70, 72
8, 24733, Note_on_c, 6, 70, 0
8, 24744, Note_on_c, 6, 75, 66
8, 24777, Note_on_c, 6, 75, 0
8, 24792, Note_on_c, 6, 75, 76
8, 24802, Note_on_c, 6, 75, 0
8, 24816, Note_on_c, 6, 75, 72
8, 24850, Note_on_c, 6, 75, 0
8, 24864, Note_on_c, 6, 70, 77
8, 24898, Note_on_c, 6, 70, 0
8, 24912, Note_on_c, 6, 70, 76
8, 24922, Note_on_c, 6, 70, 0
8, 24936, Note_on_c, 6, 80, 71
8, 24967, Note_on_c, 6, 80, 0
8, 24984, Note_on_c, 6, 80, 69
8, 24997, Note_on_c, 6, 80, 0
8, 25008, Note_on_c, 6, 79, 72
8, 25046, Note_on_c, 6, 79, 0
8, 25056, Note_on_c, 6, 75, 67
8, 25101, Note_on_c, 6, 75, 0
8, 25104, Note_on_c, 6, 70, 63
8, 25115, Note_on_c, 6, 70, 0
8, 25128, Note_on_c, 6, 75, 69
8, 25160, Note_on_c, 6, 75, 0
8, 25176, Note_on_c, 6, 75, 72
8, 25188, Note_on_c, 6, 75, 0
8, 25200, Note_on_c, 6, 75, 75
8, 25227, Note_on_c, 6, 75, 0
8, 25248, Note_on_c, 6, 70, 78
8, 25268, Note_on_c, 6, 70, 0
8, 25296, Note_on_c, 6, 70, 62
8, 25315, Note_on_c, 6, 70, 0
8, 25320, Note_on_c, 6, 80, 80
8, 25354, Note_on_c, 6, 80, 0
8, 25368, Note_on_c, 6, 80, 62
8, 25379, Note_on_c, 6, 80, 0
8, 25392, Note_on_c, 6, 79, 66
8, 25434, Note_on_c, 6, 79, 0
8, 25440, Note_on_c, 6, 75, 51
8, 25485, Note_on_c, 6, 75, 0
8, 25488, Note_on_c, 6, 70, 56
8, 25501, Note_on_c, 6, 70, 0
8, 25512, Note_on_c, 6, 75, 68
8, 25546, Note_on_c, 6, 75, 0
8, 25560, Note_on_c, 6, 75, 67
8, 25572, Note_on_c, 6, 75, 0
8, 25584, Note_on_c, 6, 75, 63
8, 25620, Note_on_c, 6, 75, 0
8, 25632, Note_on_c, 6, 70, 72
8, 25664, Note_on_c, 6, 70, 0
8, 25680, Note_on_c, 6, 70, 72
8, 25690, Note_on_c, 6, 70, 0
8, 25704, Note_on_c, 6, 80, 72
8, 25738, Note_on_c, 6, 80, 0
8, 25752, Note_on_c, 6, 80, 72
8, 25766, Note_on_c, 6, 80, 0
8, 25776, Note_on_c, 6, 79, 71
8, 25809, Note_on_c, 6, 79, 0
8, 25824, Note_on_c, 6, 75, 68
8, 25866, Note_on_c, 6, 75, 0
8, 25872, Note_on_c, 6, 70, 66
8, 25884, Note_on_c, 6, 70, 0
8, 25896, Note_on_c, 6, 75, 71
8, 25930, Note_on_c, 6, 75, 0
8, 25944, Note_on_c, 6, 75, 70
8, 25954, Note_on_c, 6, 75, 0
8, 25968, Note_on_c, 6, 75, 65
8, 26002, Note_on_c, 6, 75, 0
8, 26016, Note_on_c, 6, 70, 80
8, 26049, Note_on_c, 6, 70, 0
8, 26064, Note_on_c, 6, 70, 80
8, 26075, Note_on_c, 6, 70, 0
8, 26088, Note_on_c, 6, 80, 71
8, 26122, Note_on_c, 6, 80, 0
8, 26136, Note_on_c, 6, 80, 70
8, 26149, Note_on_c, 6, 80, 0
8, 26160, Note_on_c, 6, 79, 75
8, 26197, Note_on_c, 6, 79, 0
8, 26208, Note_on_c, 6, 75, 72
8, 26251, Note_on_c, 6, 75, 0
8, 26256, Note_on_c, 6, 70, 72
8, 26269, Note_on_c, 6, 70, 0
8, 26280, Note_on_c, 6, 75, 66
8, 26313, Note_on_c, 6, 75, 0
8, 26328, Note_on_c, 6, 75, 76
8, 26338, Note_on_c, 6, 75, 0
8, 26352, Note_on_c, 6, 75, 72
8, 26386, Note_on_c, 6, 75, 0
8, 26400, Note_on_c, 6, 70, 77
8, 26434, Note_on_c, 6, 70, 0
8, 26448, Note_on_c, 6, 70, 76
8, 26458, Note_on_c, 6, 70, 0
8, 26472, Note_on_c, 6, 80, 71
8, 26503, Note_on_c, 6, 80, 0
8, 26520, Note_on_c, 6, 80, 69
8, 26533, Note_on_c, 6, 80, 0
8, 26544, Note_on_c, 6, 79, 72
8, 26581, Note_on_c, 6, 79, 0
8, 26592, Note_on_c, 6, 75, 67
8, 26637, Note_on_c, 6, 75, 0
8, 26640, Note_on_c, 6, 70, 63
8, 26651, Note_on_c, 6, 70, 0
8, 26664, Note_on_c, 6, 75, 69
8, 26696, Note_on_c, 6, 75, 0
8, 26712, Note_on_c, 6, 75, 72
8, 26724, Note_on_c, 6, 75, 0
8, 26736, Note_on_c, 6, 75, 75
8, 26763, Note_on_c, 6, 75, 0
8, 26763, End_track
9, 0, Start_track
9, 0, Title_t, "Organ"
9, 0, Control_c, 7, 7, 96
9, 0, Pitch_bend_c, 7, 8192
9, 0, Control_c, 7, 1, 0
9, 0, Program_c, 7, 11
9, 0, Control_c, 7, 64, 0
9, 0, Control_c, 7, 10, 64
9, 168, Note_on_c, 7, 72, 71
9, 168, Note_on_c, 7, 75, 72
9, 168, Note_on_c, 7, 80, 69
9, 196, Note_on_c, 7, 80, 0
9, 197, Note_on_c, 7, 72, 0
9, 198, Note_on_c, 7, 75, 0
9, 216, Note_on_c, 7, 72, 77
9, 216, Note_on_c, 7, 75, 65
9, 216, Note_on_c, 7, 80, 67
9, 222, Note_on_c, 7, 75, 0
9, 224, Note_on_c, 7, 80, 0
9, 226, Note_on_c, 7, 72, 0
9, 240, Note_on_c, 7, 70, 76
9, 241, Note_on_c, 7, 75, 74
9, 241, Note_on_c, 7, 79, 76
9, 280, Note_on_c, 7, 75, 0
9, 280, Note_on_c, 7, 79, 0
9, 282, Note_on_c, 7, 70, 0
9, 360, Note_on_c, 7, 68, 80
9, 361, Note_on_c, 7, 65, 75
9, 361, Note_on_c, 7, 73, 62
9, 389, Note_on_c, 7, 65, 0
9, 390, Note_on_c, 7, 68, 0
9, 390, Note_on_c, 7, 73, 0
9, 408, Note_on_c, 7, 65, 72
9, 408, Note_on_c, 7, 68, 77
9, 408, Note_on_c, 7, 73, 66
9, 415, Note_on_c, 7, 73, 0
9, 416, Note_on_c, 7, 68, 0
9, 416, Note_on_c, 7, 65, 0
9, 432, Note_on_c, 7, 68, 71
9, 432, Note_on_c, 7, 72, 73
9, 433, Note_on_c, 7, 63, 77
9, 465, Note_on_c, 7, 63, 0
9, 465, Note_on_c, 7, 68, 0
9, 468, Note_on_c, 7, 72, 0
9, 552, Note_on_c, 7, 75, 80
9, 553, Note_on_c, 7, 72, 77
9, 553, Note_on_c, 7, 80, 71
9, 578, Note_on_c, 7, 72, 0
9, 578, Note_on_c, 7, 75, 0
9, 580, Note_on_c, 7, 80, 0
9, 600, Note_on_c, 7, 72, 74
9, 600, Note_on_c, 7, 75, 70
9, 600, Note_on_c, 7, 80, 69
9, 608, Note_on_c, 7, 75, 0
9, 609, Note_on_c, 7, 80, 0
9, 610, Note_on_c, 7, 72, 0
9, 624, Note_on_c, 7, 75, 67
9, 625, Note_on_c, 7, 70, 77
9, 625, Note_on_c, 7, 79, 76
9, 647, Note_on_c, 7, 79, 0
9, 648, Note_on_c, 7, 70, 0
9, 649, Note_on_c, 7, 75, 0
9, 720, Note_on_c, 7, 68, 59
9, 721, Note_on_c, 7, 65, 61
9, 721, Note_on_c, 7, 73, 60
9, 725, Note_on_c, 7, 65, 0
9, 725, Note_on_c, 7, 68, 0
9, 725, Note_on_c, 7, 73, 0
9, 744, Note_on_c, 7, 68, 77
9, 745, Note_on_c, 7, 65, 74
9, 745, Note_on_c, 7, 73, 60
9, 750, Note_on_c, 7, 65, 0
9, 750, Note_on_c, 7, 68, 0
9, 750, Note_on_c, 7, 73, 0
9, 768, Note_on_c, 7, 68, 77
9, 769, Note_on_c, 7, 65, 76
9, 769, Note_on_c, 7, 73, 61
9, 775, Note_on_c, 7, 65, 0
9, 775, Note_on_c, 7, 68, 0
9, 775, Note_on_c, 7, 73, 0
9, 792, Note_on_c, 7, 65, 77
9, 792, Note_on_c, 7, 68, 82
9, 792, Note_on_c, 7, 73, 69
9, 798, Note_on_c, 7, 68, 0
9, 800, Note_on_c, 7, 73, 0
9, 801, Note_on_c, 7, 65, 0
9, 816, Note_on_c, 7, 63, 76
9, 816, Note_on_c, 7, 72, 80
9, 817, Note_on_c, 7, 68, 77
9, 842, Note_on_c, 7, 63, 0
9, 843, Note_on_c, 7, 68, 0
9, 844, Note_on_c, 7, 72, 0
9, 936, Note_on_c, 7, 72, 73
9, 936, Note_on_c, 7, 75, 72
9, 936, Note_on_c, 7, 80, 68
9, 960, Note_on_c, 7, 80, 0
9, 961, Note_on_c, 7, 75, 0
9, 961, Note_on_c, 7, 72, 0
9, 984, Note_on_c, 7, 72, 70
9, 984, Note_on_c, 7, 75, 68
9, 985, Note_on_c, 7, 80, 69
9, 991, Note_on_c, 7, 80, 0
9, 992, Note_on_c, 7, 75, 0
9, 992, Note_on_c, 7, 72, 0
9, 1008, Note_on_c, 7, 70, 77
9, 1008, Note_on_c, 7, 75, 63
9, 1008, Note_on_c, 7, 79, 69
9, 1036, Note_on_c, 7, 79, 0
9, 1037, Note_on_c, 7, 75, 0
9, 1038, Note_on_c, 7, 70, 0
9, 1129, Note_on_c, 7, 65, 71
9, 1129, Note_on_c, 7, 68, 77
9, 1129, Note_on_c, 7, 73, 61
9, 1157, Note_on_c, 7, 65, 0
9, 1157, Note_on_c, 7, 73, 0
9, 1160, Note_on_c, 7, 68, 0
9, 1176, Note_on_c, 7, 65, 70
9, 1176, Note_on_c, 7, 68, 65
9, 1177, Note_on_c, 7, 73, 67
9, 1183, Note_on_c, 7, 73, 0
9, 1186, Note_on_c, 7, 68, 0
9, 1186, Note_on_c, 7, 65, 0
9, 1200, Note_on_c, 7, 68, 71
9, 1201, Note_on_c, 7, 63, 75
9, 1201, Note_on_c, 7, 72, 76
9, 1228, Note_on_c, 7, 63, 0
9, 1229, Note_on_c, 7, 68, 0
9, 1229, Note_on_c, 7, 72, 0
9, 1320, Note_on_c, 7, 75, 78
9, 1320, Note_on_c, 7, 72, 80
9, 1320, Note_on_c, 7, 80, 69
9, 1343, Note_on_c, 7, 72, 0
9, 1344, Note_on_c, 7, 80, 0
9, 1345, Note_on_c, 7, 75, 0
9, 1368, Note_on_c, 7, 72, 77
9, 1368, Note_on_c, 7, 75, 73
9, 1368, Note_on_c, 7, 80, 69
9, 1374, Note_on_c, 7, 75, 0
9, 1376, Note_on_c, 7, 80, 0
9, 1377, Note_on_c, 7, 72, 0
9, 1392, Note_on_c, 7, 70, 77
9, 1392, Note_on_c, 7, 75, 74
9, 1393, Note_on_c, 7, 79, 77
9, 1414, Note_on_c, 7, 79, 0
9, 1417, Note_on_c, 7, 75, 0
9, 1417, Note_on_c, 7, 70, 0
9, 1488, Note_on_c, 7, 65, 71
9, 1488, Note_on_c, 7, 68, 76
9, 1489, Note_on_c, 7, 73, 65
9, 1494, Note_on_c, 7, 68, 0
9, 1494, Note_on_c, 7, 73, 0
9, 1496, Note_on_c, 7, 65, 0
9, 1513, Note_on_c, 7, 65, 75
9, 1513, Note_on_c, 7, 68, 75
9, 1513, Note_on_c, 7, 73, 65
9, 1519, Note_on_c, 7, 68, 0
9, 1520, Note_on_c, 7, 73, 0
9, 1521, Note_on_c, 7, 65, 0
9, 1536, Note_on_c, 7, 65, 73
9, 1536, Note_on_c, 7, 68, 76
9, 1536, Note_on_c, 7, 73, 65
9, 1541, Note_on_c, 7, 68, 0
9, 1543, Note_on_c, 7, 73, 0
9, 1544, Note_on_c, 7, 65, 0
9, 1560, Note_on_c, 7, 65, 77
9, 1560, Note_on_c, 7, 73, 72
9, 1561, Note_on_c, 7, 68, 77
9, 1565, Note_on_c, 7, 68, 0
9, 1567, Note_on_c, 7, 65, 0
9, 1568, Note_on_c, 7, 73, 0
9, 1584, Note_on_c, 7, 63, 79
9, 1584, Note_on_c, 7, 68, 80
9, 1584, Note_on_c, 7, 72, 83
9, 1611, Note_on_c, 7, 63, 0
9, 1611, Note_on_c, 7, 68, 0
9, 1612, Note_on_c, 7, 72, 0
9, 7656, Note_on_c, 7, 75, 72
9, 7657, Note_on_c, 7, 72, 71
9, 7657, Note_on_c, 7, 80, 69
9, 7684, Note_on_c, 7, 80, 0
9, 7686, Note_on_c, 7, 75, 0
9, 7686, Note_on_c, 7, 72, 0
9, 7704, Note_on_c, 7, 72, 77
9, 7704, Note_on_c, 7, 75, 65
9, 7704, Note_on_c, 7, 80, 67
9, 7710, Note_on_c, 7, 75, 0
9, 7712, Note_on_c, 7, 80, 0
9, 7714, Note_on_c, 7, 72, 0
9, 7728, Note_on_c, 7, 70, 76
9, 7729, Note_on_c, 7, 75, 74
9, 7729, Note_on_c, 7, 79, 76
9, 7769, Note_on_c, 7, 75, 0
9, 7769, Note_on_c, 7, 79, 0
9, 7770, Note_on_c, 7, 70, 0
9, 7848, Note_on_c, 7, 68, 80
9, 7849, Note_on_c, 7, 65, 75
9, 7849, Note_on_c, 7, 73, 62
9, 7877, Note_on_c, 7, 65, 0
9, 7877, Note_on_c, 7, 68, 0
9, 7878, Note_on_c, 7, 73, 0
9, 7896, Note_on_c, 7, 68, 77
9, 7897, Note_on_c, 7, 65, 72
9, 7897, Note_on_c, 7, 73, 66
9, 7903, Note_on_c, 7, 73, 0
9, 7904, Note_on_c, 7, 68, 0
9, 7904, Note_on_c, 7, 65, 0
9, 7920, Note_on_c, 7, 68, 71
9, 7920, Note_on_c, 7, 72, 73
9, 7921, Note_on_c, 7, 63, 77
9, 7953, Note_on_c, 7, 63, 0
9, 7953, Note_on_c, 7, 68, 0
9, 7956, Note_on_c, 7, 72, 0
9, 8040, Note_on_c, 7, 75, 80
9, 8040, Note_on_c, 7, 80, 71
9, 8041, Note_on_c, 7, 72, 77
9, 8066, Note_on_c, 7, 72, 0
9, 8066, Note_on_c, 7, 75, 0
9, 8067, Note_on_c, 7, 80, 0
9, 8088, Note_on_c, 7, 72, 74
9, 8088, Note_on_c, 7, 75, 70
9, 8088, Note_on_c, 7, 80, 69
9, 8096, Note_on_c, 7, 75, 0
9, 8097, Note_on_c, 7, 80, 0
9, 8098, Note_on_c, 7, 72, 0
9, 8112, Note_on_c, 7, 75, 67
9, 8113, Note_on_c, 7, 70, 77
9, 8113, Note_on_c, 7, 79, 76
9, 8135, Note_on_c, 7, 79, 0
9, 8136, Note_on_c, 7, 70, 0
9, 8137, Note_on_c, 7, 75, 0
9, 8208, Note_on_c, 7, 65, 61
9, 8208, Note_on_c, 7, 68, 59
9, 8208, Note_on_c, 7, 73, 60
9, 8213, Note_on_c, 7, 65, 0
9, 8213, Note_on_c, 7, 68, 0
9, 8213, Note_on_c, 7, 73, 0
9, 8232, Note_on_c, 7, 68, 77
9, 8233, Note_on_c, 7, 65, 74
9, 8233, Note_on_c, 7, 73, 60
9, 8238, Note_on_c, 7, 73, 0
9, 8239, Note_on_c, 7, 68, 0
9, 8239, Note_on_c, 7, 65, 0
9, 8256, Note_on_c, 7, 65, 76
9, 8256, Note_on_c, 7, 68, 77
9, 8257, Note_on_c, 7, 73, 61
9, 8263, Note_on_c, 7, 65, 0
9, 8263, Note_on_c, 7, 68, 0
9, 8263, Note_on_c, 7, 73, 0
9, 8280, Note_on_c, 7, 65, 77
9, 8281, Note_on_c, 7, 68, 82
9, 8281, Note_on_c, 7, 73, 69
9, 8286, Note_on_c, 7, 68, 0
9, 8287, Note_on_c, 7, 73, 0
9, 8289, Note_on_c, 7, 65, 0
9, 8304, Note_on_c, 7, 63, 76
9, 8304, Note_on_c, 7, 68, 77
9, 8304, Note_on_c, 7, 72, 80
9, 8330, Note_on_c, 7, 63, 0
9, 8331, Note_on_c, 7, 68, 0
9, 8332, Note_on_c, 7, 72, 0
9, 14376, Note_on_c, 7, 75, 72
9, 14377, Note_on_c, 7, 72, 71
9, 14377, Note_on_c, 7, 80, 69
9, 14404, Note_on_c, 7, 80, 0
9, 14406, Note_on_c, 7, 75, 0
9, 14406, Note_on_c, 7, 72, 0
9, 14424, Note_on_c, 7, 72, 77
9, 14424, Note_on_c, 7, 80, 67
9, 14425, Note_on_c, 7, 75, 65
9, 14430, Note_on_c, 7, 75, 0
9, 14432, Note_on_c, 7, 80, 0
9, 14434, Note_on_c, 7, 72, 0
9, 14448, Note_on_c, 7, 70, 76
9, 14448, Note_on_c, 7, 75, 74
9, 14448, Note_on_c, 7, 79, 76
9, 14488, Note_on_c, 7, 75, 0
9, 14488, Note_on_c, 7, 79, 0
9, 14490, Note_on_c, 7, 70, 0
9, 14569, Note_on_c, 7, 65, 75
9, 14569, Note_on_c, 7, 68, 80
9, 14569, Note_on_c, 7, 73, 62
9, 14597, Note_on_c, 7, 65, 0
9, 14598, Note_on_c, 7, 68, 0
9, 14598, Note_on_c, 7, 73, 0
9, 14616, Note_on_c, 7, 65, 72
9, 14616, Note_on_c, 7, 68, 77
9, 14617, Note_on_c, 7, 73, 66
9, 14623, Note_on_c, 7, 73, 0
9, 14624, Note_on_c, 7, 68, 0
9, 14624, Note_on_c, 7, 65, 0
9, 14640, Note_on_c, 7, 72, 73
9, 14641, Note_on_c, 7, 63, 77
9, 14641, Note_on_c, 7, 68, 71
9, 14673, Note_on_c, 7, 63, 0
9, 14673, Note_on_c, 7, 68, 0
9, 14676, Note_on_c, 7, 72, 0
9, 14760, Note_on_c, 7, 75, 80
9, 14760, Note_on_c, 7, 72, 77
9, 14760, Note_on_c, 7, 80, 71
9, 14785, Note_on_c, 7, 72, 0
9, 14786, Note_on_c, 7, 75, 0
9, 14787, Note_on_c, 7, 80, 0
9, 14808, Note_on_c, 7, 72, 74
9, 14808, Note_on_c, 7, 75, 70
9, 14808, Note_on_c, 7, 80, 69
9, 14816, Note_on_c, 7, 75, 0
9, 14817, Note_on_c, 7, 80, 0
9, 14818, Note_on_c, 7, 72, 0
9, 14832, Note_on_c, 7, 75, 67
9, 14832, Note_on_c, 7, 70, 77
9, 14832, Note_on_c, 7, 79, 76
9, 14855, Note_on_c, 7, 79, 0
9, 14856, Note_on_c, 7, 70, 0
9, 14857, Note_on_c, 7, 75, 0
9, 14928, Note_on_c, 7, 65, 61
9, 14928, Note_on_c, 7, 68, 59
9, 14928, Note_on_c, 7, 73, 60
9, 14933, Note_on_c, 7, 65, 0
9, 14933, Note_on_c, 7, 73, 0
9, 14934, Note_on_c, 7, 68, 0
9, 14953, Note_on_c, 7, 65, 74
9, 14953, Note_on_c, 7, 68, 77
9, 14953, Note_on_c, 7, 73, 60
9, 14958, Note_on_c, 7, 73, 0
9, 14959, Note_on_c, 7, 68, 0
9, 14959, Note_on_c, 7, 65, 0
9, 14976, Note_on_c, 7, 65, 76
9, 14976, Note_on_c, 7, 68, 77
9, 14977, Note_on_c, 7, 73, 61
9, 14983, Note_on_c, 7, 68, 0
9, 14984, Note_on_c, 7, 65, 0
9, 14984, Note_on_c, 7, 73, 0
9, 15000, Note_on_c, 7, 65, 77
9, 15000, Note_on_c, 7, 73, 69
9, 15001, Note_on_c, 7, 68, 82
9, 15006, Note_on_c, 7, 68, 0
9, 15007, Note_on_c, 7, 73, 0
9, 15009, Note_on_c, 7, 65, 0
9, 15024, Note_on_c, 7, 63, 76
9, 15025, Note_on_c, 7, 68, 77
9, 15025, Note_on_c, 7, 72, 80
9, 15050, Note_on_c, 7, 63, 0
9, 15051, Note_on_c, 7, 68, 0
9, 15052, Note_on_c, 7, 72, 0
9, 16056, Note_on_c, 7, 81, 65
9, 16058, Note_on_c, 7, 82, 88
9, 16062, Note_on_c, 7, 81, 0
9, 16248, Note_on_c, 7, 73, 72
9, 16251, Note_on_c, 7, 82, 0
9, 16441, Note_on_c, 7, 75, 76
9, 16442, Note_on_c, 7, 73, 0
9, 16631, Note_on_c, 7, 75, 0
9, 17064, Note_on_c, 7, 75, 80
9, 17064, Note_on_c, 7, 72, 77
9, 17064, Note_on_c, 7, 80, 71
9, 17089, Note_on_c, 7, 72, 0
9, 17090, Note_on_c, 7, 75, 0
9, 17091, Note_on_c, 7, 80, 0
9, 17112, Note_on_c, 7, 72, 74
9, 17112, Note_on_c, 7, 75, 70
9, 17112, Note_on_c, 7, 80, 69
9, 17120, Note_on_c, 7, 75, 0
9, 17121, Note_on_c, 7, 80, 0
9, 17122, Note_on_c, 7, 72, 0
9, 17136, Note_on_c, 7, 75, 67
9, 17136, Note_on_c, 7, 70, 77
9, 17136, Note_on_c, 7, 79, 76
9, 17159, Note_on_c, 7, 79, 0
9, 17160, Note_on_c, 7, 70, 0
9, 17161, Note_on_c, 7, 75, 0
9, 17233, Note_on_c, 7, 65, 61
9, 17233, Note_on_c, 7, 68, 59
9, 17233, Note_on_c, 7, 73, 60
9, 17237, Note_on_c, 7, 65, 0
9, 17237, Note_on_c, 7, 73, 0
9, 17238, Note_on_c, 7, 68, 0
9, 17257, Note_on_c, 7, 65, 74
9, 17257, Note_on_c, 7, 68, 77
9, 17257, Note_on_c, 7, 73, 60
9, 17262, Note_on_c, 7, 73, 0
9, 17263, Note_on_c, 7, 68, 0
9, 17263, Note_on_c, 7, 65, 0
9, 17280, Note_on_c, 7, 65, 76
9, 17280, Note_on_c, 7, 68, 77
9, 17281, Note_on_c, 7, 73, 61
9, 17287, Note_on_c, 7, 65, 0
9, 17287, Note_on_c, 7, 68, 0
9, 17287, Note_on_c, 7, 73, 0
9, 17305, Note_on_c, 7, 65, 77
9, 17305, Note_on_c, 7, 68, 82
9, 17305, Note_on_c, 7, 73, 69
9, 17310, Note_on_c, 7, 68, 0
9, 17311, Note_on_c, 7, 73, 0
9, 17313, Note_on_c, 7, 65, 0
9, 17328, Note_on_c, 7, 63, 76
9, 17329, Note_on_c, 7, 68, 77
9, 17329, Note_on_c, 7, 72, 80
9, 17354, Note_on_c, 7, 63, 0
9, 17355, Note_on_c, 7, 68, 0
9, 17356, Note_on_c, 7, 72, 0
9, 23784, Note_on_c, 7, 72, 71
9, 23784, Note_on_c, 7, 75, 72
9, 23784, Note_on_c, 7, 80, 69
9, 23811, Note_on_c, 7, 80, 0
9, 23813, Note_on_c, 7, 72, 0
9, 23814, Note_on_c, 7, 75, 0
9, 23832, Note_on_c, 7, 72, 77
9, 23832, Note_on_c, 7, 75, 65
9, 23832, Note_on_c, 7, 80, 67
9, 23838, Note_on_c, 7, 75, 0
9, 23840, Note_on_c, 7, 80, 0
9, 23842, Note_on_c, 7, 72, 0
9, 23856, Note_on_c, 7, 70, 76
9, 23856, Note_on_c, 7, 75, 74
9, 23856, Note_on_c, 7, 79, 76
9, 23896, Note_on_c, 7, 75, 0
9, 23896, Note_on_c, 7, 79, 0
9, 23898, Note_on_c, 7, 70, 0
9, 23976, Note_on_c, 7, 65, 75
9, 23976, Note_on_c, 7, 68, 80
9, 23977, Note_on_c, 7, 73, 62
9, 24004, Note_on_c, 7, 65, 0
9, 24005, Note_on_c, 7, 68, 0
9, 24006, Note_on_c, 7, 73, 0
9, 24024, Note_on_c, 7, 65, 72
9, 24024, Note_on_c, 7, 68, 77
9, 24024, Note_on_c, 7, 73, 66
9, 24032, Note_on_c, 7, 65, 0
9, 24032, Note_on_c, 7, 68, 0
9, 24032, Note_on_c, 7, 73, 0
9, 24049, Note_on_c, 7, 68, 71
9, 24049, Note_on_c, 7, 63, 77
9, 24049, Note_on_c, 7, 72, 73
9, 24081, Note_on_c, 7, 63, 0
9, 24081, Note_on_c, 7, 68, 0
9, 24084, Note_on_c, 7, 72, 0
9, 24168, Note_on_c, 7, 75, 80
9, 24168, Note_on_c, 7, 80, 71
9, 24169, Note_on_c, 7, 72, 77
9, 24194, Note_on_c, 7, 72, 0
9, 24194, Note_on_c, 7, 75, 0
9, 24195, Note_on_c, 7, 80, 0
9, 24216, Note_on_c, 7, 72, 74
9, 24216, Note_on_c, 7, 75, 70
9, 24216, Note_on_c, 7, 80, 69
9, 24224, Note_on_c, 7, 75, 0
9, 24225, Note_on_c, 7, 80, 0
9, 24226, Note_on_c, 7, 72, 0
9, 24240, Note_on_c, 7, 75, 67
9, 24240, Note_on_c, 7, 70, 77
9, 24240, Note_on_c, 7, 79, 76
9, 24263, Note_on_c, 7, 79, 0
9, 24265, Note_on_c, 7, 75, 0
9, 24265, Note_on_c, 7, 70, 0
9, 24336, Note_on_c, 7, 68, 59
9, 24337, Note_on_c, 7, 65, 61
9, 24337, Note_on_c, 7, 73, 60
9, 24341, Note_on_c, 7, 65, 0
9, 24341, Note_on_c, 7, 73, 0
9, 24342, Note_on_c, 7, 68, 0
9, 24361, Note_on_c, 7, 65, 74
9, 24361, Note_on_c, 7, 68, 77
9, 24361, Note_on_c, 7, 73, 60
9, 24366, Note_on_c, 7, 73, 0
9, 24367, Note_on_c, 7, 68, 0
9, 24367, Note_on_c, 7, 65, 0
9, 24385, Note_on_c, 7, 65, 76
9, 24385, Note_on_c, 7, 68, 77
9, 24385, Note_on_c, 7, 73, 61
9, 24391, Note_on_c, 7, 65, 0
9, 24391, Note_on_c, 7, 68, 0
9, 24391, Note_on_c, 7, 73, 0
9, 24408, Note_on_c, 7, 65, 77
9, 24408, Note_on_c, 7, 73, 69
9, 24409, Note_on_c, 7, 68, 82
9, 24414, Note_on_c, 7, 68, 0
9, 24415, Note_on_c, 7, 73, 0
9, 24417, Note_on_c, 7, 65, 0
9, 24432, Note_on_c, 7, 63, 76
9, 24433, Note_on_c, 7, 68, 77
9, 24433, Note_on_c, 7, 72, 80
9, 24458, Note_on_c, 7, 63, 0
9, 24459, Note_on_c, 7, 68, 0
9, 24460, Note_on_c, 7, 72, 0
9, 24552, Note_on_c, 7, 72, 73
9, 24552, Note_on_c, 7, 75, 72
9, 24552, Note_on_c, 7, 80, 68
9, 24576, Note_on_c, 7, 80, 0
9, 24577, Note_on_c, 7, 75, 0
9, 24577, Note_on_c, 7, 72, 0
9, 24600, Note_on_c, 7, 72, 70
9, 24601, Note_on_c, 7, 75, 68
9, 24601, Note_on_c, 7, 80, 69
9, 24607, Note_on_c, 7, 80, 0
9, 24608, Note_on_c, 7, 75, 0
9, 24608, Note_on_c, 7, 72, 0
9, 24624, Note_on_c, 7, 70, 77
9, 24624, Note_on_c, 7, 75, 63
9, 24624, Note_on_c, 7, 79, 69
9, 24652, Note_on_c, 7, 79, 0
9, 24653, Note_on_c, 7, 75, 0
9, 24655, Note_on_c, 7, 70, 0
9, 24745, Note_on_c, 7, 65, 71
9, 24745, Note_on_c, 7, 68, 77
9, 24745, Note_on_c, 7, 73, 61
9, 24772, Note_on_c, 7, 65, 0
9, 24772, Note_on_c, 7, 73, 0
9, 24776, Note_on_c, 7, 68, 0
9, 24792, Note_on_c, 7, 65, 70
9, 24792, Note_on_c, 7, 68, 65
9, 24793, Note_on_c, 7, 73, 67
9, 24799, Note_on_c, 7, 73, 0
9, 24802, Note_on_c, 7, 68, 0
9, 24802, Note_on_c, 7, 65, 0
9, 24816, Note_on_c, 7, 63, 75
9, 24816, Note_on_c, 7, 68, 71
9, 24817, Note_on_c, 7, 72, 76
9, 24844, Note_on_c, 7, 63, 0
9, 24845, Note_on_c, 7, 68, 0
9, 24845, Note_on_c, 7, 72, 0
9, 24936, Note_on_c, 7, 75, 78
9, 24936, Note_on_c, 7, 72, 80
9, 24936, Note_on_c, 7, 80, 69
9, 24960, Note_on_c, 7, 72, 0
9, 24961, Note_on_c, 7, 75, 0
9, 24961, Note_on_c, 7, 80, 0
9, 24984, Note_on_c, 7, 72, 77
9, 24984, Note_on_c, 7, 75, 73
9, 24984, Note_on_c, 7, 80, 69
9, 24990, Note_on_c, 7, 75, 0
9, 24992, Note_on_c, 7, 80, 0
9, 24993, Note_on_c, 7, 72, 0
9, 25008, Note_on_c, 7, 70, 77
9, 25008, Note_on_c, 7, 75, 74
9, 25008, Note_on_c, 7, 79, 77
9, 25030, Note_on_c, 7, 79, 0
9, 25033, Note_on_c, 7, 75, 0
9, 25033, Note_on_c, 7, 70, 0
9, 25104, Note_on_c, 7, 65, 71
9, 25104, Note_on_c, 7, 68, 76
9, 25104, Note_on_c, 7, 73, 65
9, 25110, Note_on_c, 7, 68, 0
9, 25110, Note_on_c, 7, 73, 0
9, 25111, Note_on_c, 7, 65, 0
9, 25129, Note_on_c, 7, 65, 75
9, 25129, Note_on_c, 7, 68, 75
9, 25129, Note_on_c, 7, 73, 65
9, 25135, Note_on_c, 7, 68, 0
9, 25136, Note_on_c, 7, 73, 0
9, 25137, Note_on_c, 7, 65, 0
9, 25152, Note_on_c, 7, 65, 73
9, 25152, Note_on_c, 7, 68, 76
9, 25153, Note_on_c, 7, 73, 65
9, 25157, Note_on_c, 7, 68, 0
9, 25158, Note_on_c, 7, 73, 0
9, 25160, Note_on_c, 7, 65, 0
9, 25176, Note_on_c, 7, 73, 72
9, 25177, Note_on_c, 7, 65, 77
9, 25177, Note_on_c, 7, 68, 77
9, 25181, Note_on_c, 7, 68, 0
9, 25183, Note_on_c, 7, 65, 0
9, 25184, Note_on_c, 7, 73, 0
9, 25200, Note_on_c, 7, 63, 79
9, 25200, Note_on_c, 7, 68, 80
9, 25201, Note_on_c, 7, 72, 83
9, 25227, Note_on_c, 7, 63, 0
9, 25228, Note_on_c, 7, 68, 0
9, 25228, Note_on_c, 7, 72, 0
9, 25320, Note_on_c, 7, 72, 71
9, 25320, Note_on_c, 7, 75, 72
9, 25320, Note_on_c, 7, 80, 69
9, 25347, Note_on_c, 7, 80, 0
9, 25349, Note_on_c, 7, 72, 0
9, 25350, Note_on_c, 7, 75, 0
9, 25368, Note_on_c, 7, 72, 77
9, 25368, Note_on_c, 7, 75, 65
9, 25368, Note_on_c, 7, 80, 67
9, 25374, Note_on_c, 7, 75, 0
9, 25376, Note_on_c, 7, 80, 0
9, 25378, Note_on_c, 7, 72, 0
9, 25392, Note_on_c, 7, 70, 76
9, 25392, Note_on_c, 7, 75, 74
9, 25392, Note_on_c, 7, 79, 76
9, 25432, Note_on_c, 7, 75, 0
9, 25432, Note_on_c, 7, 79, 0
9, 25434, Note_on_c, 7, 70, 0
9, 25512, Note_on_c, 7, 68, 80
9, 25513, Note_on_c, 7, 65, 75
9, 25513, Note_on_c, 7, 73, 62
9, 25541, Note_on_c, 7, 65, 0
9, 25541, Note_on_c, 7, 68, 0
9, 25542, Note_on_c, 7, 73, 0
9, 25560, Note_on_c, 7, 68, 77
9, 25561, Note_on_c, 7, 65, 72
9, 25561, Note_on_c, 7, 73, 66
9, 25567, Note_on_c, 7, 73, 0
9, 25568, Note_on_c, 7, 68, 0
9, 25568, Note_on_c, 7, 65, 0
9, 25584, Note_on_c, 7, 72, 73
9, 25585, Note_on_c, 7, 63, 77
9, 25585, Note_on_c, 7, 68, 71
9, 25617, Note_on_c, 7, 68, 0
9, 25618, Note_on_c, 7, 63, 0
9, 25620, Note_on_c, 7, 72, 0
9, 25704, Note_on_c, 7, 75, 80
9, 25704, Note_on_c, 7, 80, 71
9, 25705, Note_on_c, 7, 72, 77
9, 25730, Note_on_c, 7, 72, 0
9, 25730, Note_on_c, 7, 75, 0
9, 25731, Note_on_c, 7, 80, 0
9, 25752, Note_on_c, 7, 72, 74
9, 25752, Note_on_c, 7, 75, 70
9, 25752, Note_on_c, 7, 80, 69
9, 25760, Note_on_c, 7, 75, 0
9, 25761, Note_on_c, 7, 80, 0
9, 25762, Note_on_c, 7, 72, 0
9, 25776, Note_on_c, 7, 75, 67
9, 25776, Note_on_c, 7, 79, 76
9, 25777, Note_on_c, 7, 70, 77
9, 25799, Note_on_c, 7, 79, 0
9, 25801, Note_on_c, 7, 75, 0
9, 25801, Note_on_c, 7, 70, 0
9, 25872, Note_on_c, 7, 65, 61
9, 25872, Note_on_c, 7, 68, 59
9, 25872, Note_on_c, 7, 73, 60
9, 25877, Note_on_c, 7, 65, 0
9, 25877, Note_on_c, 7, 68, 0
9, 25877, Note_on_c, 7, 73, 0
9, 25897, Note_on_c, 7, 65, 74
9, 25897, Note_on_c, 7, 68, 77
9, 25897, Note_on_c, 7, 73, 60
9, 25902, Note_on_c, 7, 73, 0
9, 25903, Note_on_c, 7, 68, 0
9, 25903, Note_on_c, 7, 65, 0
9, 25920, Note_on_c, 7, 68, 77
9, 25921, Note_on_c, 7, 65, 76
9, 25921, Note_on_c, 7, 73, 61
9, 25927, Note_on_c, 7, 65, 0
9, 25927, Note_on_c, 7, 68, 0
9, 25927, Note_on_c, 7, 73, 0
9, 25944, Note_on_c, 7, 65, 77
9, 25944, Note_on_c, 7, 68, 82
9, 25944, Note_on_c, 7, 73, 69
9, 25950, Note_on_c, 7, 68, 0
9, 25951, Note_on_c, 7, 73, 0
9, 25953, Note_on_c, 7, 65, 0
9, 25968, Note_on_c, 7, 63, 76
9, 25968, Note_on_c, 7, 68, 77
9, 25968, Note_on_c, 7, 72, 80
9, 25994, Note_on_c, 7, 63, 0
9, 25995, Note_on_c, 7, 68, 0
9, 25996, Note_on_c, 7, 72, 0
9, 26088, Note_on_c, 7, 72, 73
9, 26088, Note_on_c, 7, 75, 72
9, 26089, Note_on_c, 7, 80, 68
9, 26112, Note_on_c, 7, 80, 0
9, 26113, Note_on_c, 7, 75, 0
9, 26113, Note_on_c, 7, 72, 0
9, 26136, Note_on_c, 7, 72, 70
9, 26136, Note_on_c, 7, 75, 68
9, 26136, Note_on_c, 7, 80, 69
9, 26143, Note_on_c, 7, 80, 0
9, 26144, Note_on_c, 7, 75, 0
9, 26144, Note_on_c, 7, 72, 0
9, 26160, Note_on_c, 7, 70, 77
9, 26160, Note_on_c, 7, 75, 63
9, 26161, Note_on_c, 7, 79, 69
9, 26188, Note_on_c, 7, 79, 0
9, 26190, Note_on_c, 7, 75, 0
9, 26190, Note_on_c, 7, 70, 0
9, 26280, Note_on_c, 7, 68, 77
9, 26281, Note_on_c, 7, 65, 71
9, 26281, Note_on_c, 7, 73, 61
9, 26308, Note_on_c, 7, 73, 0
9, 26309, Note_on_c, 7, 65, 0
9, 26311, Note_on_c, 7, 68, 0
9, 26328, Note_on_c, 7, 65, 70
9, 26328, Note_on_c, 7, 68, 65
9, 26328, Note_on_c, 7, 73, 67
9, 26335, Note_on_c, 7, 73, 0
9, 26338, Note_on_c, 7, 68, 0
9, 26338, Note_on_c, 7, 65, 0
9, 26352, Note_on_c, 7, 68, 71
9, 26353, Note_on_c, 7, 63, 75
9, 26353, Note_on_c, 7, 72, 76
9, 26380, Note_on_c, 7, 63, 0
9, 26381, Note_on_c, 7, 68, 0
9, 26381, Note_on_c, 7, 72, 0
9, 26472, Note_on_c, 7, 75, 78
9, 26472, Note_on_c, 7, 72, 80
9, 26472, Note_on_c, 7, 80, 69
9, 26495, Note_on_c, 7, 72, 0
9, 26496, Note_on_c, 7, 80, 0
9, 26497, Note_on_c, 7, 75, 0
9, 26520, Note_on_c, 7, 72, 77
9, 26520, Note_on_c, 7, 80, 69
9, 26521, Note_on_c, 7, 75, 73
9, 26526, Note_on_c, 7, 75, 0
9, 26528, Note_on_c, 7, 80, 0
9, 26529, Note_on_c, 7, 72, 0
9, 26544, Note_on_c, 7, 70, 77
9, 26544, Note_on_c, 7, 75, 74
9, 26544, Note_on_c, 7, 79, 77
9, 26566, Note_on_c, 7, 79, 0
9, 26569, Note_on_c, 7, 75, 0
9, 26569, Note_on_c, 7, 70, 0
9, 26640, Note_on_c, 7, 65, 71
9, 26640, Note_on_c, 7, 68, 76
9, 26640, Note_on_c, 7, 73, 65
9, 26646, Note_on_c, 7, 68, 0
9, 26646, Note_on_c, 7, 73, 0
9, 26647, Note_on_c, 7, 65, 0
9, 26665, Note_on_c, 7, 65, 75
9, 26665, Note_on_c, 7, 68, 75
9, 26665, Note_on_c, 7, 73, 65
9, 26671, Note_on_c, 7, 68, 0
9, 26672, Note_on_c, 7, 73, 0
9, 26673, Note_on_c, 7, 65, 0
9, 26688, Note_on_c, 7, 65, 73
9, 26688, Note_on_c, 7, 68, 76
9, 26688, Note_on_c, 7, 73, 65
9, 26693, Note_on_c, 7, 68, 0
9, 26695, Note_on_c, 7, 73, 0
9, 26696, Note_on_c, 7, 65, 0
9, 26712, Note_on_c, 7, 65, 77
9, 26712, Note_on_c, 7, 73, 72
9, 26713, Note_on_c, 7, 68, 77
9, 26718, Note_on_c, 7, 68, 0
9, 26719, Note_on_c, 7, 65, 0
9, 26720, Note_on_c, 7, 73, 0
9, 26736, Note_on_c, 7, 63, 79
9, 26736, Note_on_c, 7, 68, 80
9, 26736, Note_on_c, 7, 72, 83
9, 26763, Note_on_c, 7, 63, 0
9, 26763, Note_on_c, 7, 68, 0
9, 26764, Note_on_c, 7, 72, 0
9, 27192, Note_on_c, 7, 67, 89
9, 27192, Note_on_c, 7, 70, 90
9, 27192, Note_on_c, 7, 75, 81
9, 27241, Note_on_c, 7, 67, 0
9, 27241, Note_on_c, 7, 75, 0
9, 27242, Note_on_c, 7, 70, 0
9, 27242, End_track
10, 0, Start_track
10, 0, Title_t, "Bass"
10, 0, Control_c, 8, 7, 96
10, 0, Pitch_bend_c, 8, 8192
10, 0, Control_c, 8, 1, 0
10, 0, Program_c, 8, 64
10, 0, Control_c, 8, 64, 0
10, 0, Control_c, 8, 10, 64
10, 120, Note_on_c, 8, 51, 97
10, 186, Note_on_c, 8, 51, 0
10, 192, Note_on_c, 8, 43, 86
10, 204, Note_on_c, 8, 43, 0
10, 216, Note_on_c, 8, 43, 82
10, 264, Note_on_c, 8, 46, 73
10, 265, Note_on_c, 8, 43, 0
10, 311, Note_on_c, 8, 46, 0
10, 312, Note_on_c, 8, 44, 77
10, 384, Control_c, 8, 7, 96
10, 384, Note_on_c, 8, 49, 88
10, 387, Note_on_c, 8, 44, 0
10, 396, Control_c, 8, 7, 97
10, 402, Control_c, 8, 7, 99
10, 408, Control_c, 8, 7, 100
10, 414, Control_c, 8, 7, 102
10, 420, Control_c, 8, 7, 105
10, 426, Control_c, 8, 7, 127
10, 432, Control_c, 8, 7, 127
10, 446, Note_on_c, 8, 49, 0
10, 456, Note_on_c, 8, 50, 86
10, 504, Note_on_c, 8, 51, 98
10, 509, Note_on_c, 8, 50, 0
10, 576, Note_on_c, 8, 51, 0
10, 576, Note_on_c, 8, 43, 88
10, 587, Note_on_c, 8, 43, 0
10, 600, Note_on_c, 8, 43, 85
10, 647, Note_on_c, 8, 43, 0
10, 648, Note_on_c, 8, 46, 77
10, 695, Note_on_c, 8, 46, 0
10, 696, Note_on_c, 8, 44, 78
10, 768, Note_on_c, 8, 44, 0
10, 768, Note_on_c, 8, 49, 84
10, 840, Note_on_c, 8, 50, 85
10, 841, Note_on_c, 8, 49, 0
10, 883, Note_on_c, 8, 50, 0
10, 888, Note_on_c, 8, 51, 86
10, 955, Note_on_c, 8, 51, 0
10, 960, Note_on_c, 8, 43, 88
10, 972, Note_on_c, 8, 43, 0
10, 984, Note_on_c, 8, 43, 83
10, 1031, Note_on_c, 8, 43, 0
10, 1032, Note_on_c, 8, 46, 77
10, 1076, Note_on_c, 8, 46, 0
10, 1080, Note_on_c, 8, 44, 77
10, 1152, Note_on_c, 8, 49, 90
10, 1154, Note_on_c, 8, 44, 0
10, 1220, Note_on_c, 8, 49, 0
10, 1224, Note_on_c, 8, 50, 82
10, 1272, Note_on_c, 8, 50, 0
10, 1272, Note_on_c, 8, 51, 94
10, 1344, Note_on_c, 8, 43, 84
10, 1347, Note_on_c, 8, 51, 0
10, 1356, Note_on_c, 8, 43, 0
10, 1368, Note_on_c, 8, 43, 87
10, 1414, Note_on_c, 8, 43, 0
10, 1416, Note_on_c, 8, 46, 79
10, 1462, Note_on_c, 8, 46, 0
10, 1464, Note_on_c, 8, 44, 78
10, 1534, Note_on_c, 8, 44, 0
10, 1536, Note_on_c, 8, 49, 86
10, 1608, Note_on_c, 8, 49, 0
10, 1608, Note_on_c, 8, 50, 87
10, 1644, Note_on_c, 8, 50, 0
10, 1656, Note_on_c, 8, 51, 88
10, 1709, Note_on_c, 8, 51, 0
10, 1728, Note_on_c, 8, 51, 80
10, 1735, Note_on_c, 8, 51, 0
10, 1752, Note_on_c, 8, 51, 95
10, 1848, Note_on_c, 8, 43, 80
10, 1849, Note_on_c, 8, 51, 0
10, 1901, Note_on_c, 8, 43, 0
10, 1920, Note_on_c, 8, 43, 83
10, 1930, Note_on_c, 8, 43, 0
10, 1944, Note_on_c, 8, 43, 87
10, 2036, Note_on_c, 8, 43, 0
10, 2040, Note_on_c, 8, 44, 79
10, 2097, Note_on_c, 8, 44, 0
10, 2112, Note_on_c, 8, 44, 77
10, 2122, Note_on_c, 8, 44, 0
10, 2136, Note_on_c, 8, 44, 86
10, 2184, Note_on_c, 8, 44, 0
10, 2184, Note_on_c, 8, 48, 70
10, 2208, Note_on_c, 8, 48, 0
10, 2208, Note_on_c, 8, 50, 85
10, 2232, Note_on_c, 8, 51, 88
10, 2235, Note_on_c, 8, 50, 0
10, 2293, Note_on_c, 8, 51, 0
10, 2304, Note_on_c, 8, 51, 90
10, 2313, Note_on_c, 8, 51, 0
10, 2328, Note_on_c, 8, 51, 97
10, 2374, Note_on_c, 8, 51, 0
10, 2376, Note_on_c, 8, 43, 77
10, 2400, Note_on_c, 8, 44, 67
10, 2403, Note_on_c, 8, 43, 0
10, 2424, Note_on_c, 8, 46, 88
10, 2426, Note_on_c, 8, 44, 0
10, 2478, Note_on_c, 8, 46, 0
10, 2496, Note_on_c, 8, 46, 84
10, 2503, Note_on_c, 8, 46, 0
10, 2520, Note_on_c, 8, 46, 86
10, 2614, Note_on_c, 8, 46, 0
10, 2616, Note_on_c, 8, 44, 77
10, 2669, Note_on_c, 8, 44, 0
10, 2688, Note_on_c, 8, 44, 85
10, 2698, Note_on_c, 8, 44, 0
10, 2712, Note_on_c, 8, 44, 80
10, 2759, Note_on_c, 8, 44, 0
10, 2760, Note_on_c, 8, 48, 76
10, 2784, Note_on_c, 8, 48, 0
10, 2784, Note_on_c, 8, 50, 85
10, 2808, Note_on_c, 8, 51, 92
10, 2810, Note_on_c, 8, 50, 0
10, 2880, Note_on_c, 8, 58, 79
10, 2892, Note_on_c, 8, 51, 0
10, 2932, Note_on_c, 8, 58, 0
10, 2952, Note_on_c, 8, 58, 88
10, 2996, Note_on_c, 8, 58, 0
10, 3000, Note_on_c, 8, 51, 95
10, 3072, Note_on_c, 8, 58, 91
10, 3075, Note_on_c, 8, 51, 0
10, 3128, Note_on_c, 8, 58, 0
10, 3144, Note_on_c, 8, 58, 91
10, 3174, Note_on_c, 8, 58, 0
10, 3192, Note_on_c, 8, 51, 86
10, 3242, Note_on_c, 8, 51, 0
10, 3264, Note_on_c, 8, 51, 86
10, 3270, Note_on_c, 8, 51, 0
10, 3288, Note_on_c, 8, 51, 94
10, 3384, Note_on_c, 8, 43, 75
10, 3385, Note_on_c, 8, 51, 0
10, 3436, Note_on_c, 8, 43, 0
10, 3456, Note_on_c, 8, 43, 85
10, 3465, Note_on_c, 8, 43, 0
10, 3480, Note_on_c, 8, 43, 91
10, 3576, Note_on_c, 8, 44, 77
10, 3579, Note_on_c, 8, 43, 0
10, 3631, Note_on_c, 8, 44, 0
10, 3648, Note_on_c, 8, 44, 72
10, 3657, Note_on_c, 8, 44, 0
10, 3672, Note_on_c, 8, 44, 79
10, 3768, Note_on_c, 8, 45, 81
10, 3774, Note_on_c, 8, 44, 0
10, 3818, Note_on_c, 8, 45, 0
10, 3840, Note_on_c, 8, 45, 81
10, 3847, Note_on_c, 8, 45, 0
10, 3864, Note_on_c, 8, 45, 80
10, 3911, Note_on_c, 8, 45, 0
10, 3912, Note_on_c, 8, 48, 75
10, 3936, Note_on_c, 8, 50, 70
10, 3938, Note_on_c, 8, 48, 0
10, 3960, Note_on_c, 8, 51, 85
10, 3963, Note_on_c, 8, 50, 0
10, 4011, Note_on_c, 8, 51, 0
10, 4032, Note_on_c, 8, 51, 85
10, 4039, Note_on_c, 8, 51, 0
10, 4056, Note_on_c, 8, 51, 88
10, 4152, Note_on_c, 8, 46, 85
10, 4155, Note_on_c, 8, 51, 0
10, 4216, Note_on_c, 8, 46, 0
10, 4224, Note_on_c, 8, 44, 88
10, 4294, Note_on_c, 8, 44, 0
10, 4296, Note_on_c, 8, 48, 72
10, 4320, Note_on_c, 8, 48, 0
10, 4320, Note_on_c, 8, 50, 81
10, 4344, Note_on_c, 8, 51, 94
10, 4346, Note_on_c, 8, 50, 0
10, 4398, Note_on_c, 8, 51, 0
10, 4416, Note_on_c, 8, 51, 88
10, 4440, Note_on_c, 8, 51, 0
10, 4440, Note_on_c, 8, 46, 75
10, 4474, Note_on_c, 8, 46, 0
10, 4488, Note_on_c, 8, 46, 77
10, 4533, Note_on_c, 8, 46, 0
10, 4536, Note_on_c, 8, 51, 86
10, 4608, Note_on_c, 8, 46, 77
10, 4610, Note_on_c, 8, 51, 0
10, 4619, Note_on_c, 8, 46, 0
10, 4632, Note_on_c, 8, 46, 81
10, 4640, Note_on_c, 8, 46, 0
10, 4656, Note_on_c, 8, 46, 81
10, 4664, Note_on_c, 8, 46, 0
10, 4680, Note_on_c, 8, 46, 78
10, 4689, Note_on_c, 8, 46, 0
10, 4704, Note_on_c, 8, 46, 90
10, 4717, Note_on_c, 8, 46, 0
10, 4728, Note_on_c, 8, 44, 77
10, 4800, Note_on_c, 8, 48, 77
10, 4802, Note_on_c, 8, 44, 0
10, 4812, Note_on_c, 8, 48, 0
10, 4824, Note_on_c, 8, 48, 78
10, 4869, Note_on_c, 8, 48, 0
10, 4872, Note_on_c, 8, 51, 77
10, 4920, Note_on_c, 8, 44, 77
10, 4922, Note_on_c, 8, 51, 0
10, 4992, Note_on_c, 8, 48, 73
10, 4995, Note_on_c, 8, 44, 0
10, 5002, Note_on_c, 8, 48, 0
10, 5016, Note_on_c, 8, 48, 80
10, 5059, Note_on_c, 8, 48, 0
10, 5064, Note_on_c, 8, 51, 72
10, 5103, Note_on_c, 8, 51, 0
10, 5112, Note_on_c, 8, 51, 78
10, 5184, Note_on_c, 8, 43, 77
10, 5186, Note_on_c, 8, 51, 0
10, 5197, Note_on_c, 8, 43, 0
10, 5208, Note_on_c, 8, 43, 75
10, 5257, Note_on_c, 8, 46, 69
10, 5258, Note_on_c, 8, 43, 0
10, 5303, Note_on_c, 8, 46, 0
10, 5304, Note_on_c, 8, 51, 78
10, 5373, Note_on_c, 8, 51, 0
10, 5376, Note_on_c, 8, 43, 78
10, 5387, Note_on_c, 8, 43, 0
10, 5400, Note_on_c, 8, 43, 73
10, 5448, Note_on_c, 8, 46, 79
10, 5454, Note_on_c, 8, 43, 0
10, 5490, Note_on_c, 8, 46, 0
10, 5496, Note_on_c, 8, 43, 78
10, 5550, Note_on_c, 8, 43, 0
10, 5568, Note_on_c, 8, 43, 81
10, 5576, Note_on_c, 8, 43, 0
10, 5592, Note_on_c, 8, 43, 87
10, 5664, Note_on_c, 8, 48, 85
10, 5665, Note_on_c, 8, 43, 0
10, 5700, Note_on_c, 8, 48, 0
10, 5712, Note_on_c, 8, 46, 87
10, 5741, Note_on_c, 8, 46, 0
10, 5760, Note_on_c, 8, 44, 94
10, 5841, Note_on_c, 8, 44, 0
10, 5856, Note_on_c, 8, 44, 79
10, 5875, Note_on_c, 8, 44, 0
10, 5880, Note_on_c, 8, 41, 86
10, 5928, Note_on_c, 8, 44, 81
10, 5929, Note_on_c, 8, 41, 0
10, 5951, Note_on_c, 8, 44, 0
10, 5952, Note_on_c, 8, 45, 76
10, 5976, Note_on_c, 8, 46, 95
10, 5978, Note_on_c, 8, 45, 0
10, 6012, Note_on_c, 8, 46, 0
10, 6024, Note_on_c, 8, 46, 95
10, 6063, Note_on_c, 8, 46, 0
10, 6072, Note_on_c, 8, 51, 97
10, 6125, Note_on_c, 8, 51, 0
10, 6144, Note_on_c, 8, 51, 85
10, 6155, Note_on_c, 8, 51, 0
10, 6168, Note_on_c, 8, 43, 82
10, 6192, Note_on_c, 8, 46, 75
10, 6197, Note_on_c, 8, 43, 0
10, 6213, Note_on_c, 8, 46, 0
10, 6216, Note_on_c, 8, 48, 73
10, 6238, Note_on_c, 8, 48, 0
10, 6240, Note_on_c, 8, 51, 87
10, 6264, Note_on_c, 8, 44, 78
10, 6267, Note_on_c, 8, 51, 0
10, 6326, Note_on_c, 8, 44, 0
10, 6336, Note_on_c, 8, 48, 80
10, 6347, Note_on_c, 8, 48, 0
10, 6360, Note_on_c, 8, 48, 80
10, 6406, Note_on_c, 8, 48, 0
10, 6408, Note_on_c, 8, 51, 84
10, 6456, Note_on_c, 8, 51, 0
10, 6456, Note_on_c, 8, 44, 74
10, 6516, Note_on_c, 8, 44, 0
10, 6528, Note_on_c, 8, 48, 75
10, 6537, Note_on_c, 8, 48, 0
10, 6552, Note_on_c, 8, 48, 78
10, 6598, Note_on_c, 8, 48, 0
10, 6600, Note_on_c, 8, 51, 81
10, 6628, Note_on_c, 8, 51, 0
10, 6648, Note_on_c, 8, 51, 91
10, 6714, Note_on_c, 8, 51, 0
10, 6720, Note_on_c, 8, 43, 75
10, 6733, Note_on_c, 8, 43, 0
10, 6744, Note_on_c, 8, 43, 77
10, 6792, Note_on_c, 8, 43, 0
10, 6792, Note_on_c, 8, 46, 72
10, 6840, Note_on_c, 8, 46, 0
10, 6840, Note_on_c, 8, 51, 80
10, 6896, Note_on_c, 8, 51, 0
10, 6912, Note_on_c, 8, 43, 77
10, 6923, Note_on_c, 8, 43, 0
10, 6936, Note_on_c, 8, 43, 76
10, 6984, Note_on_c, 8, 43, 0
10, 6984, Note_on_c, 8, 46, 67
10, 7032, Note_on_c, 8, 43, 81
10, 7033, Note_on_c, 8, 46, 0
10, 7084, Note_on_c, 8, 43, 0
10, 7104, Note_on_c, 8, 43, 81
10, 7114, Note_on_c, 8, 43, 0
10, 7128, Note_on_c, 8, 43, 83
10, 7200, Note_on_c, 8, 48, 83
10, 7201, Note_on_c, 8, 43, 0
10, 7248, Note_on_c, 8, 46, 84
10, 7250, Note_on_c, 8, 48, 0
10, 7296, Note_on_c, 8, 46, 0
10, 7296, Note_on_c, 8, 44, 80
10, 7376, Note_on_c, 8, 44, 0
10, 7392, Note_on_c, 8, 44, 75
10, 7415, Note_on_c, 8, 44, 0
10, 7416, Note_on_c, 8, 41, 85
10, 7462, Note_on_c, 8, 41, 0
10, 7464, Note_on_c, 8, 44, 79
10, 7485, Note_on_c, 8, 44, 0
10, 7488, Note_on_c, 8, 45, 77
10, 7512, Note_on_c, 8, 46, 92
10, 7515, Note_on_c, 8, 45, 0
10, 7560, Note_on_c, 8, 49, 75
10, 7561, Note_on_c, 8, 46, 0
10, 7584, Note_on_c, 8, 50, 77
10, 7585, Note_on_c, 8, 49, 0
10, 7608, Note_on_c, 8, 51, 97
10, 7609, Note_on_c, 8, 50, 0
10, 7674, Note_on_c, 8, 51, 0
10, 7680, Note_on_c, 8, 43, 86
10, 7692, Note_on_c, 8, 43, 0
10, 7704, Note_on_c, 8, 43, 82
10, 7752, Note_on_c, 8, 46, 73
10, 7753, Note_on_c, 8, 43, 0
10, 7799, Note_on_c, 8, 46, 0
10, 7800, Note_on_c, 8, 44, 77
10, 7872, Note_on_c, 8, 49, 88
10, 7875, Note_on_c, 8, 44, 0
10, 7934, Note_on_c, 8, 49, 0
10, 7944, Note_on_c, 8, 50, 86
10, 7992, Note_on_c, 8, 51, 98
10, 7997, Note_on_c, 8, 50, 0
10, 8064, Note_on_c, 8, 51, 0
10, 8064, Note_on_c, 8, 43, 88
10, 8075, Note_on_c, 8, 43, 0
10, 8088, Note_on_c, 8, 43, 85
10, 8135, Note_on_c, 8, 43, 0
10, 8136, Note_on_c, 8, 46, 77
10, 8183, Note_on_c, 8, 46, 0
10, 8184, Note_on_c, 8, 44, 78
10, 8256, Note_on_c, 8, 44, 0
10, 8256, Note_on_c, 8, 49, 84
10, 8328, Note_on_c, 8, 50, 85
10, 8329, Note_on_c, 8, 49, 0
10, 8371, Note_on_c, 8, 50, 0
10, 8376, Note_on_c, 8, 51, 88
10, 8429, Note_on_c, 8, 51, 0
10, 8448, Note_on_c, 8, 51, 80
10, 8456, Note_on_c, 8, 51, 0
10, 8472, Note_on_c, 8, 51, 95
10, 8568, Note_on_c, 8, 43, 80
10, 8569, Note_on_c, 8, 51, 0
10, 8621, Note_on_c, 8, 43, 0
10, 8640, Note_on_c, 8, 43, 83
10, 8650, Note_on_c, 8, 43, 0
10, 8664, Note_on_c, 8, 43, 87
10, 8756, Note_on_c, 8, 43, 0
10, 8760, Note_on_c, 8, 44, 79
10, 8817, Note_on_c, 8, 44, 0
10, 8832, Note_on_c, 8, 44, 77
10, 8842, Note_on_c, 8, 44, 0
10, 8856, Note_on_c, 8, 44, 86
10, 8903, Note_on_c, 8, 44, 0
10, 8904, Note_on_c, 8, 48, 70
10, 8928, Note_on_c, 8, 48, 0
10, 8928, Note_on_c, 8, 50, 85
10, 8952, Note_on_c, 8, 51, 88
10, 8955, Note_on_c, 8, 50, 0
10, 9013, Note_on_c, 8, 51, 0
10, 9024, Note_on_c, 8, 51, 90
10, 9033, Note_on_c, 8, 51, 0
10, 9048, Note_on_c, 8, 51, 97
10, 9094, Note_on_c, 8, 51, 0
10, 9096, Note_on_c, 8, 43, 77
10, 9120, Note_on_c, 8, 44, 67
10, 9123, Note_on_c, 8, 43, 0
10, 9144, Note_on_c, 8, 46, 88
10, 9146, Note_on_c, 8, 44, 0
10, 9197, Note_on_c, 8, 46, 0
10, 9216, Note_on_c, 8, 46, 84
10, 9223, Note_on_c, 8, 46, 0
10, 9240, Note_on_c, 8, 46, 86
10, 9334, Note_on_c, 8, 46, 0
10, 9336, Note_on_c, 8, 44, 77
10, 9389, Note_on_c, 8, 44, 0
10, 9408, Note_on_c, 8, 44, 85
10, 9418, Note_on_c, 8, 44, 0
10, 9432, Note_on_c, 8, 44, 80
10, 9479, Note_on_c, 8, 44, 0
10, 9480, Note_on_c, 8, 48, 76
10, 9504, Note_on_c, 8, 48, 0
10, 9504, Note_on_c, 8, 50, 85
10, 9528, Note_on_c, 8, 51, 92
10, 9530, Note_on_c, 8, 50, 0
10, 9600, Note_on_c, 8, 58, 79
10, 9612, Note_on_c, 8, 51, 0
10, 9652, Note_on_c, 8, 58, 0
10, 9672, Note_on_c, 8, 58, 88
10, 9716, Note_on_c, 8, 58, 0
10, 9720, Note_on_c, 8, 51, 95
10, 9792, Note_on_c, 8, 58, 91
10, 9795, Note_on_c, 8, 51, 0
10, 9848, Note_on_c, 8, 58, 0
10, 9864, Note_on_c, 8, 58, 91
10, 9893, Note_on_c, 8, 58, 0
10, 9912, Note_on_c, 8, 51, 86
10, 9962, Note_on_c, 8, 51, 0
10, 9984, Note_on_c, 8, 51, 86
10, 9990, Note_on_c, 8, 51, 0
10, 10008, Note_on_c, 8, 51, 94
10, 10104, Note_on_c, 8, 43, 75
10, 10105, Note_on_c, 8, 51, 0
10, 10156, Note_on_c, 8, 43, 0
10, 10176, Note_on_c, 8, 43, 85
10, 10185, Note_on_c, 8, 43, 0
10, 10200, Note_on_c, 8, 43, 91
10, 10296, Note_on_c, 8, 44, 77
10, 10299, Note_on_c, 8, 43, 0
10, 10351, Note_on_c, 8, 44, 0
10, 10368, Note_on_c, 8, 44, 72
10, 10377, Note_on_c, 8, 44, 0
10, 10392, Note_on_c, 8, 44, 79
10, 10488, Note_on_c, 8, 45, 81
10, 10494, Note_on_c, 8, 44, 0
10, 10538, Note_on_c, 8, 45, 0
10, 10560, Note_on_c, 8, 45, 81
10, 10567, Note_on_c, 8, 45, 0
10, 10584, Note_on_c, 8, 45, 80
10, 10631, Note_on_c, 8, 45, 0
10, 10632, Note_on_c, 8, 48, 75
10, 10656, Note_on_c, 8, 50, 70
10, 10658, Note_on_c, 8, 48, 0
10, 10680, Note_on_c, 8, 51, 85
10, 10683, Note_on_c, 8, 50, 0
10, 10731, Note_on_c, 8, 51, 0
10, 10752, Note_on_c, 8, 51, 85
10, 10760, Note_on_c, 8, 51, 0
10, 10776, Note_on_c, 8, 51, 88
10, 10872, Note_on_c, 8, 46, 85
10, 10875, Note_on_c, 8, 51, 0
10, 10936, Note_on_c, 8, 46, 0
10, 10944, Note_on_c, 8, 44, 88
10, 11014, Note_on_c, 8, 44, 0
10, 11016, Note_on_c, 8, 48, 72
10, 11040, Note_on_c, 8, 48, 0
10, 11040, Note_on_c, 8, 50, 81
10, 11064, Note_on_c, 8, 51, 94
10, 11066, Note_on_c, 8, 50, 0
10, 11118, Note_on_c, 8, 51, 0
10, 11136, Note_on_c, 8, 51, 88
10, 11159, Note_on_c, 8, 51, 0
10, 11160, Note_on_c, 8, 46, 75
10, 11194, Note_on_c, 8, 46, 0
10, 11208, Note_on_c, 8, 46, 77
10, 11253, Note_on_c, 8, 46, 0
10, 11256, Note_on_c, 8, 51, 86
10, 11328, Note_on_c, 8, 46, 77
10, 11330, Note_on_c, 8, 51, 0
10, 11339, Note_on_c, 8, 46, 0
10, 11352, Note_on_c, 8, 46, 81
10, 11360, Note_on_c, 8, 46, 0
10, 11376, Note_on_c, 8, 46, 81
10, 11384, Note_on_c, 8, 46, 0
10, 11400, Note_on_c, 8, 46, 78
10, 11409, Note_on_c, 8, 46, 0
10, 11424, Note_on_c, 8, 46, 90
10, 11437, Note_on_c, 8, 46, 0
10, 11448, Note_on_c, 8, 44, 77
10, 11520, Note_on_c, 8, 48, 77
10, 11522, Note_on_c, 8, 44, 0
10, 11532, Note_on_c, 8, 48, 0
10, 11544, Note_on_c, 8, 48, 78
10, 11589, Note_on_c, 8, 48, 0
10, 11592, Note_on_c, 8, 51, 77
10, 11640, Note_on_c, 8, 44, 77
10, 11642, Note_on_c, 8, 51, 0
10, 11712, Note_on_c, 8, 48, 73
10, 11715, Note_on_c, 8, 44, 0
10, 11722, Note_on_c, 8, 48, 0
10, 11736, Note_on_c, 8, 48, 80
10, 11779, Note_on_c, 8, 48, 0
10, 11784, Note_on_c, 8, 51, 72
10, 11823, Note_on_c, 8, 51, 0
10, 11832, Note_on_c, 8, 51, 78
10, 11904, Note_on_c, 8, 43, 77
10, 11906, Note_on_c, 8, 51, 0
10, 11917, Note_on_c, 8, 43, 0
10, 11928, Note_on_c, 8, 43, 75
10, 11976, Note_on_c, 8, 46, 69
10, 11978, Note_on_c, 8, 43, 0
10, 12023, Note_on_c, 8, 46, 0
10, 12024, Note_on_c, 8, 51, 78
10, 12093, Note_on_c, 8, 51, 0
10, 12096, Note_on_c, 8, 43, 78
10, 12107, Note_on_c, 8, 43, 0
10, 12120, Note_on_c, 8, 43, 73
10, 12168, Note_on_c, 8, 46, 79
10, 12174, Note_on_c, 8, 43, 0
10, 12210, Note_on_c, 8, 46, 0
10, 12216, Note_on_c, 8, 43, 78
10, 12270, Note_on_c, 8, 43, 0
10, 12288, Note_on_c, 8, 43, 81
10, 12296, Note_on_c, 8, 43, 0
10, 12312, Note_on_c, 8, 43, 87
10, 12384, Note_on_c, 8, 48, 85
10, 12385, Note_on_c, 8, 43, 0
10, 12420, Note_on_c, 8, 48, 0
10, 12432, Note_on_c, 8, 46, 87
10, 12461, Note_on_c, 8, 46, 0
10, 12480, Note_on_c, 8, 44, 94
10, 12561, Note_on_c, 8, 44, 0
10, 12576, Note_on_c, 8, 44, 79
10, 12595, Note_on_c, 8, 44, 0
10, 12600, Note_on_c, 8, 41, 86
10, 12648, Note_on_c, 8, 44, 81
10, 12649, Note_on_c, 8, 41, 0
10, 12671, Note_on_c, 8, 44, 0
10, 12672, Note_on_c, 8, 45, 76
10, 12696, Note_on_c, 8, 46, 95
10, 12698, Note_on_c, 8, 45, 0
10, 12732, Note_on_c, 8, 46, 0
10, 12744, Note_on_c, 8, 46, 95
10, 12783, Note_on_c, 8, 46, 0
10, 12792, Note_on_c, 8, 51, 97
10, 12845, Note_on_c, 8, 51, 0
10, 12864, Note_on_c, 8, 51, 85
10, 12874, Note_on_c, 8, 51, 0
10, 12888, Note_on_c, 8, 43, 82
10, 12912, Note_on_c, 8, 46, 75
10, 12917, Note_on_c, 8, 43, 0
10, 12933, Note_on_c, 8, 46, 0
10, 12936, Note_on_c, 8, 48, 73
10, 12958, Note_on_c, 8, 48, 0
10, 12960, Note_on_c, 8, 51, 87
10, 12984, Note_on_c, 8, 44, 78
10, 12987, Note_on_c, 8, 51, 0
10, 13046, Note_on_c, 8, 44, 0
10, 13056, Note_on_c, 8, 48, 80
10, 13068, Note_on_c, 8, 48, 0
10, 13080, Note_on_c, 8, 48, 80
10, 13126, Note_on_c, 8, 48, 0
10, 13128, Note_on_c, 8, 51, 84
10, 13176, Note_on_c, 8, 51, 0
10, 13176, Note_on_c, 8, 44, 74
10, 13236, Note_on_c, 8, 44, 0
10, 13248, Note_on_c, 8, 48, 75
10, 13257, Note_on_c, 8, 48, 0
10, 13272, Note_on_c, 8, 48, 78
10, 13318, Note_on_c, 8, 48, 0
10, 13320, Note_on_c, 8, 51, 81
10, 13348, Note_on_c, 8, 51, 0
10, 13368, Note_on_c, 8, 51, 91
10, 13434, Note_on_c, 8, 51, 0
10, 13440, Note_on_c, 8, 43, 75
10, 13453, Note_on_c, 8, 43, 0
10, 13464, Note_on_c, 8, 43, 77
10, 13512, Note_on_c, 8, 43, 0
10, 13512, Note_on_c, 8, 46, 72
10, 13560, Note_on_c, 8, 46, 0
10, 13560, Note_on_c, 8, 51, 80
10, 13616, Note_on_c, 8, 51, 0
10, 13632, Note_on_c, 8, 43, 77
10, 13643, Note_on_c, 8, 43, 0
10, 13656, Note_on_c, 8, 43, 76
10, 13704, Note_on_c, 8, 43, 0
10, 13704, Note_on_c, 8, 46, 67
10, 13752, Note_on_c, 8, 43, 81
10, 13753, Note_on_c, 8, 46, 0
10, 13804, Note_on_c, 8, 43, 0
10, 13824, Note_on_c, 8, 43, 81
10, 13834, Note_on_c, 8, 43, 0
10, 13848, Note_on_c, 8, 43, 83
10, 13920, Note_on_c, 8, 48, 83
10, 13921, Note_on_c, 8, 43, 0
10, 13968, Note_on_c, 8, 46, 84
10, 13969, Note_on_c, 8, 48, 0
10, 14015, Note_on_c, 8, 46, 0
10, 14016, Note_on_c, 8, 44, 80
10, 14096, Note_on_c, 8, 44, 0
10, 14112, Note_on_c, 8, 44, 75
10, 14135, Note_on_c, 8, 44, 0
10, 14136, Note_on_c, 8, 41, 85
10, 14182, Note_on_c, 8, 41, 0
10, 14184, Note_on_c, 8, 44, 79
10, 14205, Note_on_c, 8, 44, 0
10, 14208, Note_on_c, 8, 45, 77
10, 14232, Note_on_c, 8, 46, 92
10, 14235, Note_on_c, 8, 45, 0
10, 14280, Note_on_c, 8, 49, 75
10, 14281, Note_on_c, 8, 46, 0
10, 14304, Note_on_c, 8, 50, 77
10, 14305, Note_on_c, 8, 49, 0
10, 14328, Note_on_c, 8, 51, 97
10, 14329, Note_on_c, 8, 50, 0
10, 14394, Note_on_c, 8, 51, 0
10, 14400, Note_on_c, 8, 43, 86
10, 14412, Note_on_c, 8, 43, 0
10, 14424, Note_on_c, 8, 43, 82
10, 14472, Note_on_c, 8, 46, 73
10, 14473, Note_on_c, 8, 43, 0
10, 14520, Note_on_c, 8, 46, 0
10, 14520, Note_on_c, 8, 44, 77
10, 14592, Note_on_c, 8, 49, 88
10, 14595, Note_on_c, 8, 44, 0
10, 14654, Note_on_c, 8, 49, 0
10, 14664, Note_on_c, 8, 50, 86
10, 14712, Note_on_c, 8, 51, 98
10, 14717, Note_on_c, 8, 50, 0
10, 14784, Note_on_c, 8, 51, 0
10, 14784, Note_on_c, 8, 43, 88
10, 14795, Note_on_c, 8, 43, 0
10, 14808, Note_on_c, 8, 43, 85
10, 14855, Note_on_c, 8, 43, 0
10, 14856, Note_on_c, 8, 46, 77
10, 14903, Note_on_c, 8, 46, 0
10, 14904, Note_on_c, 8, 44, 78
10, 14976, Note_on_c, 8, 44, 0
10, 14976, Note_on_c, 8, 49, 84
10, 15048, Note_on_c, 8, 50, 85
10, 15049, Note_on_c, 8, 49, 0
10, 15091, Note_on_c, 8, 50, 0
10, 15096, Note_on_c, 8, 41, 87
10, 15145, Note_on_c, 8, 41, 0
10, 15168, Note_on_c, 8, 41, 88
10, 15176, Note_on_c, 8, 41, 0
10, 15192, Note_on_c, 8, 41, 91
10, 15287, Note_on_c, 8, 41, 0
10, 15288, Note_on_c, 8, 46, 97
10, 15340, Note_on_c, 8, 46, 0
10, 15360, Note_on_c, 8, 46, 91
10, 15368, Note_on_c, 8, 46, 0
10, 15384, Note_on_c, 8, 46, 90
10, 15443, Note_on_c, 8, 46, 0
10, 15456, Note_on_c, 8, 46, 77
10, 15480, Note_on_c, 8, 46, 0
10, 15480, Note_on_c, 8, 51, 90
10, 15531, Note_on_c, 8, 51, 0
10, 15552, Note_on_c, 8, 51, 94
10, 15560, Note_on_c, 8, 51, 0
10, 15576, Note_on_c, 8, 51, 94
10, 15672, Note_on_c, 8, 44, 80
10, 15674, Note_on_c, 8, 51, 0
10, 15723, Note_on_c, 8, 44, 0
10, 15744, Note_on_c, 8, 44, 91
10, 15750, Note_on_c, 8, 44, 0
10, 15768, Note_on_c, 8, 44, 92
10, 15823, Note_on_c, 8, 44, 0
10, 15840, Note_on_c, 8, 44, 74
10, 15864, Note_on_c, 8, 44, 0
10, 15864, Note_on_c, 8, 51, 80
10, 15914, Note_on_c, 8, 51, 0
10, 15936, Note_on_c, 8, 51, 84
10, 15944, Note_on_c, 8, 51, 0
10, 15960, Note_on_c, 8, 51, 94
10, 16014, Note_on_c, 8, 51, 0
10, 16032, Note_on_c, 8, 51, 90
10, 16056, Note_on_c, 8, 46, 77
10, 16058, Note_on_c, 8, 51, 0
10, 16109, Note_on_c, 8, 46, 0
10, 16128, Note_on_c, 8, 46, 84
10, 16135, Note_on_c, 8, 46, 0
10, 16152, Note_on_c, 8, 46, 88
10, 16247, Note_on_c, 8, 46, 0
10, 16248, Note_on_c, 8, 42, 98
10, 16297, Note_on_c, 8, 42, 0
10, 16320, Note_on_c, 8, 42, 92
10, 16327, Note_on_c, 8, 42, 0
10, 16344, Note_on_c, 8, 42, 94
10, 16440, Note_on_c, 8, 42, 0
10, 16440, Note_on_c, 8, 44, 98
10, 16490, Note_on_c, 8, 44, 0
10, 16512, Note_on_c, 8, 44, 87
10, 16521, Note_on_c, 8, 44, 0
10, 16536, Note_on_c, 8, 44, 85
10, 16545, Note_on_c, 8, 44, 0
10, 16560, Note_on_c, 8, 44, 92
10, 16568, Note_on_c, 8, 44, 0
10, 16584, Note_on_c, 8, 44, 92
10, 16593, Note_on_c, 8, 44, 0
10, 16608, Note_on_c, 8, 44, 95
10, 16620, Note_on_c, 8, 44, 0
10, 16632, Note_on_c, 8, 51, 103
10, 16849, Note_on_c, 8, 51, 0
10, 17400, Note_on_c, 8, 51, 88
10, 17453, Note_on_c, 8, 51, 0
10, 17472, Note_on_c, 8, 51, 80
10, 17479, Note_on_c, 8, 51, 0
10, 17496, Note_on_c, 8, 51, 95
10, 17592, Note_on_c, 8, 43, 80
10, 17593, Note_on_c, 8, 51, 0
10, 17645, Note_on_c, 8, 43, 0
10, 17664, Note_on_c, 8, 43, 83
10, 17674, Note_on_c, 8, 43, 0
10, 17688, Note_on_c, 8, 43, 87
10, 17780, Note_on_c, 8, 43, 0
10, 17784, Note_on_c, 8, 44, 79
10, 17841, Note_on_c, 8, 44, 0
10, 17856, Note_on_c, 8, 44, 77
10, 17866, Note_on_c, 8, 44, 0
10, 17880, Note_on_c, 8, 44, 86
10, 17928, Note_on_c, 8, 44, 0
10, 17928, Note_on_c, 8, 48, 70
10, 17952, Note_on_c, 8, 50, 85
10, 17953, Note_on_c, 8, 48, 0
10, 17976, Note_on_c, 8, 51, 88
10, 17979, Note_on_c, 8, 50, 0
10, 18037, Note_on_c, 8, 51, 0
10, 18048, Note_on_c, 8, 51, 90
10, 18057, Note_on_c, 8, 51, 0
10, 18072, Note_on_c, 8, 51, 97
10, 18118, Note_on_c, 8, 51, 0
10, 18120, Note_on_c, 8, 43, 77
10, 18144, Note_on_c, 8, 44, 67
10, 18148, Note_on_c, 8, 43, 0
10, 18168, Note_on_c, 8, 46, 88
10, 18170, Note_on_c, 8, 44, 0
10, 18221, Note_on_c, 8, 46, 0
10, 18240, Note_on_c, 8, 46, 84
10, 18247, Note_on_c, 8, 46, 0
10, 18264, Note_on_c, 8, 46, 86
10, 18358, Note_on_c, 8, 46, 0
10, 18360, Note_on_c, 8, 44, 77
10, 18413, Note_on_c, 8, 44, 0
10, 18432, Note_on_c, 8, 44, 85
10, 18442, Note_on_c, 8, 44, 0
10, 18456, Note_on_c, 8, 44, 80
10, 18503, Note_on_c, 8, 44, 0
10, 18504, Note_on_c, 8, 48, 76
10, 18528, Note_on_c, 8, 48, 0
10, 18528, Note_on_c, 8, 50, 85
10, 18552, Note_on_c, 8, 51, 92
10, 18554, Note_on_c, 8, 50, 0
10, 18624, Note_on_c, 8, 58, 79
10, 18636, Note_on_c, 8, 51, 0
10, 18676, Note_on_c, 8, 58, 0
10, 18696, Note_on_c, 8, 58, 88
10, 18740, Note_on_c, 8, 58, 0
10, 18744, Note_on_c, 8, 51, 95
10, 18816, Note_on_c, 8, 58, 91
10, 18819, Note_on_c, 8, 51, 0
10, 18872, Note_on_c, 8, 58, 0
10, 18888, Note_on_c, 8, 58, 91
10, 18917, Note_on_c, 8, 58, 0
10, 18936, Note_on_c, 8, 51, 86
10, 18986, Note_on_c, 8, 51, 0
10, 19008, Note_on_c, 8, 51, 86
10, 19014, Note_on_c, 8, 51, 0
10, 19032, Note_on_c, 8, 51, 94
10, 19128, Note_on_c, 8, 43, 75
10, 19129, Note_on_c, 8, 51, 0
10, 19180, Note_on_c, 8, 43, 0
10, 19200, Note_on_c, 8, 43, 85
10, 19209, Note_on_c, 8, 43, 0
10, 19224, Note_on_c, 8, 43, 91
10, 19320, Note_on_c, 8, 44, 77
10, 19323, Note_on_c, 8, 43, 0
10, 19375, Note_on_c, 8, 44, 0
10, 19392, Note_on_c, 8, 44, 72
10, 19401, Note_on_c, 8, 44, 0
10, 19416, Note_on_c, 8, 44, 79
10, 19512, Note_on_c, 8, 45, 81
10, 19518, Note_on_c, 8, 44, 0
10, 19562, Note_on_c, 8, 45, 0
10, 19584, Note_on_c, 8, 45, 81
10, 19591, Note_on_c, 8, 45, 0
10, 19608, Note_on_c, 8, 45, 80
10, 19655, Note_on_c, 8, 45, 0
10, 19657, Note_on_c, 8, 48, 75
10, 19680, Note_on_c, 8, 50, 70
10, 19682, Note_on_c, 8, 48, 0
10, 19704, Note_on_c, 8, 51, 85
10, 19707, Note_on_c, 8, 50, 0
10, 19755, Note_on_c, 8, 51, 0
10, 19776, Note_on_c, 8, 51, 85
10, 19783, Note_on_c, 8, 51, 0
10, 19800, Note_on_c, 8, 51, 88
10, 19896, Note_on_c, 8, 46, 85
10, 19899, Note_on_c, 8, 51, 0
10, 19960, Note_on_c, 8, 46, 0
10, 19968, Note_on_c, 8, 44, 88
10, 20038, Note_on_c, 8, 44, 0
10, 20040, Note_on_c, 8, 48, 72
10, 20064, Note_on_c, 8, 48, 0
10, 20064, Note_on_c, 8, 50, 81
10, 20088, Note_on_c, 8, 51, 94
10, 20090, Note_on_c, 8, 50, 0
10, 20142, Note_on_c, 8, 51, 0
10, 20160, Note_on_c, 8, 51, 88
10, 20183, Note_on_c, 8, 51, 0
10, 20184, Note_on_c, 8, 46, 75
10, 20218, Note_on_c, 8, 46, 0
10, 20232, Note_on_c, 8, 46, 77
10, 20277, Note_on_c, 8, 46, 0
10, 20280, Note_on_c, 8, 51, 86
10, 20352, Note_on_c, 8, 46, 77
10, 20354, Note_on_c, 8, 51, 0
10, 20362, Note_on_c, 8, 46, 0
10, 20376, Note_on_c, 8, 46, 81
10, 20384, Note_on_c, 8, 46, 0
10, 20400, Note_on_c, 8, 46, 81
10, 20408, Note_on_c, 8, 46, 0
10, 20424, Note_on_c, 8, 46, 78
10, 20433, Note_on_c, 8, 46, 0
10, 20448, Note_on_c, 8, 46, 90
10, 20461, Note_on_c, 8, 46, 0
10, 20472, Note_on_c, 8, 44, 77
10, 20544, Note_on_c, 8, 48, 77
10, 20546, Note_on_c, 8, 44, 0
10, 20556, Note_on_c, 8, 48, 0
10, 20568, Note_on_c, 8, 48, 78
10, 20613, Note_on_c, 8, 48, 0
10, 20616, Note_on_c, 8, 51, 77
10, 20664, Note_on_c, 8, 44, 77
10, 20666, Note_on_c, 8, 51, 0
10, 20736, Note_on_c, 8, 48, 73
10, 20739, Note_on_c, 8, 44, 0
10, 20746, Note_on_c, 8, 48, 0
10, 20760, Note_on_c, 8, 48, 80
10, 20803, Note_on_c, 8, 48, 0
10, 20808, Note_on_c, 8, 51, 72
10, 20847, Note_on_c, 8, 51, 0
10, 20856, Note_on_c, 8, 51, 78
10, 20928, Note_on_c, 8, 43, 77
10, 20930, Note_on_c, 8, 51, 0
10, 20941, Note_on_c, 8, 43, 0
10, 20952, Note_on_c, 8, 43, 75
10, 21000, Note_on_c, 8, 46, 69
10, 21002, Note_on_c, 8, 43, 0
10, 21047, Note_on_c, 8, 46, 0
10, 21048, Note_on_c, 8, 51, 78
10, 21117, Note_on_c, 8, 51, 0
10, 21120, Note_on_c, 8, 43, 78
10, 21131, Note_on_c, 8, 43, 0
10, 21144, Note_on_c, 8, 43, 73
10, 21192, Note_on_c, 8, 46, 79
10, 21198, Note_on_c, 8, 43, 0
10, 21234, Note_on_c, 8, 46, 0
10, 21240, Note_on_c, 8, 43, 78
10, 21294, Note_on_c, 8, 43, 0
10, 21312, Note_on_c, 8, 43, 81
10, 21320, Note_on_c, 8, 43, 0
10, 21336, Note_on_c, 8, 43, 87
10, 21408, Note_on_c, 8, 43, 0
10, 21408, Note_on_c, 8, 48, 85
10, 21444, Note_on_c, 8, 48, 0
10, 21456, Note_on_c, 8, 46, 87
10, 21485, Note_on_c, 8, 46, 0
10, 21504, Note_on_c, 8, 44, 94
10, 21585, Note_on_c, 8, 44, 0
10, 21600, Note_on_c, 8, 44, 79
10, 21619, Note_on_c, 8, 44, 0
10, 21624, Note_on_c, 8, 41, 86
10, 21672, Note_on_c, 8, 44, 81
10, 21673, Note_on_c, 8, 41, 0
10, 21695, Note_on_c, 8, 44, 0
10, 21696, Note_on_c, 8, 45, 76
10, 21720, Note_on_c, 8, 46, 95
10, 21722, Note_on_c, 8, 45, 0
10, 21755, Note_on_c, 8, 46, 0
10, 21768, Note_on_c, 8, 46, 95
10, 21807, Note_on_c, 8, 46, 0
10, 21816, Note_on_c, 8, 51, 97
10, 21869, Note_on_c, 8, 51, 0
10, 21888, Note_on_c, 8, 51, 85
10, 21899, Note_on_c, 8, 51, 0
10, 21912, Note_on_c, 8, 43, 82
10, 21936, Note_on_c, 8, 46, 75
10, 21941, Note_on_c, 8, 43, 0
10, 21957, Note_on_c, 8, 46, 0
10, 21960, Note_on_c, 8, 48, 73
10, 21982, Note_on_c, 8, 48, 0
10, 21984, Note_on_c, 8, 51, 87
10, 22008, Note_on_c, 8, 44, 78
10, 22011, Note_on_c, 8, 51, 0
10, 22070, Note_on_c, 8, 44, 0
10, 22080, Note_on_c, 8, 48, 80
10, 22091, Note_on_c, 8, 48, 0
10, 22104, Note_on_c, 8, 48, 80
10, 22150, Note_on_c, 8, 48, 0
10, 22152, Note_on_c, 8, 51, 84
10, 22200, Note_on_c, 8, 51, 0
10, 22200, Note_on_c, 8, 44, 74
10, 22260, Note_on_c, 8, 44, 0
10, 22272, Note_on_c, 8, 48, 75
10, 22282, Note_on_c, 8, 48, 0
10, 22296, Note_on_c, 8, 48, 78
10, 22342, Note_on_c, 8, 48, 0
10, 22344, Note_on_c, 8, 51, 81
10, 22372, Note_on_c, 8, 51, 0
10, 22392, Note_on_c, 8, 51, 91
10, 22458, Note_on_c, 8, 51, 0
10, 22464, Note_on_c, 8, 43, 75
10, 22478, Note_on_c, 8, 43, 0
10, 22488, Note_on_c, 8, 43, 77
10, 22536, Note_on_c, 8, 43, 0
10, 22537, Note_on_c, 8, 46, 72
10, 22584, Note_on_c, 8, 46, 0
10, 22584, Note_on_c, 8, 51, 80
10, 22640, Note_on_c, 8, 51, 0
10, 22656, Note_on_c, 8, 43, 77
10, 22667, Note_on_c, 8, 43, 0
10, 22680, Note_on_c, 8, 43, 76
10, 22728, Note_on_c, 8, 43, 0
10, 22729, Note_on_c, 8, 46, 67
10, 22776, Note_on_c, 8, 43, 81
10, 22777, Note_on_c, 8, 46, 0
10, 22828, Note_on_c, 8, 43, 0
10, 22848, Note_on_c, 8, 43, 81
10, 22858, Note_on_c, 8, 43, 0
10, 22872, Note_on_c, 8, 43, 83
10, 22944, Note_on_c, 8, 48, 83
10, 22945, Note_on_c, 8, 43, 0
10, 22992, Note_on_c, 8, 46, 84
10, 22993, Note_on_c, 8, 48, 0
10, 23039, Note_on_c, 8, 46, 0
10, 23040, Note_on_c, 8, 44, 80
10, 23120, Note_on_c, 8, 44, 0
10, 23136, Note_on_c, 8, 44, 75
10, 23159, Note_on_c, 8, 44, 0
10, 23160, Note_on_c, 8, 41, 85
10, 23206, Note_on_c, 8, 41, 0
10, 23208, Note_on_c, 8, 44, 79
10, 23229, Note_on_c, 8, 44, 0
10, 23232, Note_on_c, 8, 45, 77
10, 23256, Note_on_c, 8, 46, 92
10, 23259, Note_on_c, 8, 45, 0
10, 23304, Note_on_c, 8, 46, 0
10, 23304, Note_on_c, 8, 46, 75
10, 23305, Note_on_c, 8, 46, 0
10, 23328, Note_on_c, 8, 44, 77
10, 23352, Note_on_c, 8, 42, 95
10, 23353, Note_on_c, 8, 44, 0
10, 23403, Note_on_c, 8, 42, 0
10, 23424, Note_on_c, 8, 42, 88
10, 23431, Note_on_c, 8, 42, 0
10, 23448, Note_on_c, 8, 42, 100
10, 23480, Note_on_c, 8, 42, 0
10, 23496, Note_on_c, 8, 42, 102
10, 23544, Note_on_c, 8, 42, 0
10, 23544, Note_on_c, 8, 44, 94
10, 23553, Note_on_c, 8, 44, 0
10, 23568, Note_on_c, 8, 44, 81
10, 23576, Note_on_c, 8, 44, 0
10, 23592, Note_on_c, 8, 44, 86
10, 23600, Note_on_c, 8, 44, 0
10, 23616, Note_on_c, 8, 44, 92
10, 23624, Note_on_c, 8, 44, 0
10, 23640, Note_on_c, 8, 44, 92
10, 23647, Note_on_c, 8, 44, 0
10, 23664, Note_on_c, 8, 44, 97
10, 23671, Note_on_c, 8, 44, 0
10, 23688, Note_on_c, 8, 44, 100
10, 23696, Note_on_c, 8, 44, 0
10, 23712, Note_on_c, 8, 44, 105
10, 23723, Note_on_c, 8, 44, 0
10, 23736, Note_on_c, 8, 51, 97
10, 23802, Note_on_c, 8, 51, 0
10, 23808, Note_on_c, 8, 43, 86
10, 23820, Note_on_c, 8, 43, 0
10, 23832, Note_on_c, 8, 43, 82
10, 23880, Note_on_c, 8, 46, 73
10, 23881, Note_on_c, 8, 43, 0
10, 23927, Note_on_c, 8, 46, 0
10, 23928, Note_on_c, 8, 44, 77
10, 24000, Note_on_c, 8, 49, 88
10, 24003, Note_on_c, 8, 44, 0
10, 24062, Note_on_c, 8, 49, 0
10, 24072, Note_on_c, 8, 50, 86
10, 24120, Note_on_c, 8, 51, 98
10, 24125, Note_on_c, 8, 50, 0
10, 24192, Note_on_c, 8, 51, 0
10, 24192, Note_on_c, 8, 43, 88
10, 24203, Note_on_c, 8, 43, 0
10, 24216, Note_on_c, 8, 43, 85
10, 24264, Note_on_c, 8, 43, 0
10, 24264, Note_on_c, 8, 46, 77
10, 24311, Note_on_c, 8, 46, 0
10, 24312, Note_on_c, 8, 44, 78
10, 24384, Note_on_c, 8, 44, 0
10, 24384, Note_on_c, 8, 49, 84
10, 24456, Note_on_c, 8, 50, 85
10, 24457, Note_on_c, 8, 49, 0
10, 24499, Note_on_c, 8, 50, 0
10, 24504, Note_on_c, 8, 51, 86
10, 24571, Note_on_c, 8, 51, 0
10, 24576, Note_on_c, 8, 43, 88
10, 24588, Note_on_c, 8, 43, 0
10, 24600, Note_on_c, 8, 43, 83
10, 24647, Note_on_c, 8, 43, 0
10, 24648, Note_on_c, 8, 46, 77
10, 24692, Note_on_c, 8, 46, 0
10, 24696, Note_on_c, 8, 44, 77
10, 24768, Note_on_c, 8, 49, 90
10, 24770, Note_on_c, 8, 44, 0
10, 24836, Note_on_c, 8, 49, 0
10, 24840, Note_on_c, 8, 50, 82
10, 24888, Note_on_c, 8, 50, 0
10, 24888, Note_on_c, 8, 51, 94
10, 24960, Note_on_c, 8, 43, 84
10, 24963, Note_on_c, 8, 51, 0
10, 24971, Note_on_c, 8, 43, 0
10, 24984, Note_on_c, 8, 43, 87
10, 25030, Note_on_c, 8, 43, 0
10, 25032, Note_on_c, 8, 46, 79
10, 25078, Note_on_c, 8, 46, 0
10, 25080, Note_on_c, 8, 44, 78
10, 25149, Note_on_c, 8, 44, 0
10, 25152, Note_on_c, 8, 49, 86
10, 25224, Note_on_c, 8, 49, 0
10, 25224, Note_on_c, 8, 50, 87
10, 25260, Note_on_c, 8, 50, 0
10, 25272, Note_on_c, 8, 51, 97
10, 25338, Note_on_c, 8, 51, 0
10, 25344, Note_on_c, 8, 43, 86
10, 25356, Note_on_c, 8, 43, 0
10, 25368, Note_on_c, 8, 43, 82
10, 25416, Note_on_c, 8, 46, 73
10, 25417, Note_on_c, 8, 43, 0
10, 25463, Note_on_c, 8, 46, 0
10, 25464, Note_on_c, 8, 44, 77
10, 25536, Note_on_c, 8, 49, 88
10, 25539, Note_on_c, 8, 44, 0
10, 25598, Note_on_c, 8, 49, 0
10, 25608, Note_on_c, 8, 50, 86
10, 25656, Note_on_c, 8, 51, 98
10, 25661, Note_on_c, 8, 50, 0
10, 25728, Note_on_c, 8, 51, 0
10, 25728, Note_on_c, 8, 43, 88
10, 25739, Note_on_c, 8, 43, 0
10, 25752, Note_on_c, 8, 43, 85
10, 25799, Note_on_c, 8, 43, 0
10, 25801, Note_on_c, 8, 46, 77
10, 25847, Note_on_c, 8, 46, 0
10, 25848, Note_on_c, 8, 44, 78
10, 25920, Note_on_c, 8, 44, 0
10, 25920, Note_on_c, 8, 49, 84
10, 25992, Note_on_c, 8, 50, 85
10, 25993, Note_on_c, 8, 49, 0
10, 26035, Note_on_c, 8, 50, 0
10, 26040, Note_on_c, 8, 51, 86
10, 26107, Note_on_c, 8, 51, 0
10, 26112, Note_on_c, 8, 43, 88
10, 26124, Note_on_c, 8, 43, 0
10, 26136, Note_on_c, 8, 43, 83
10, 26183, Note_on_c, 8, 43, 0
10, 26184, Note_on_c, 8, 46, 77
10, 26228, Note_on_c, 8, 46, 0
10, 26232, Note_on_c, 8, 44, 77
10, 26304, Note_on_c, 8, 49, 90
10, 26306, Note_on_c, 8, 44, 0
10, 26372, Note_on_c, 8, 49, 0
10, 26376, Note_on_c, 8, 50, 82
10, 26424, Note_on_c, 8, 50, 0
10, 26424, Note_on_c, 8, 51, 94
10, 26496, Note_on_c, 8, 43, 84
10, 26499, Note_on_c, 8, 51, 0
10, 26507, Note_on_c, 8, 43, 0
10, 26520, Note_on_c, 8, 43, 87
10, 26566, Note_on_c, 8, 43, 0
10, 26568, Note_on_c, 8, 46, 79
10, 26614, Note_on_c, 8, 46, 0
10, 26616, Note_on_c, 8, 44, 78
10, 26685, Note_on_c, 8, 44, 0
10, 26688, Note_on_c, 8, 49, 86
10, 26760, Note_on_c, 8, 49, 0
10, 26760, Note_on_c, 8, 50, 87
10, 26796, Note_on_c, 8, 50, 0
10, 26808, Note_on_c, 8, 42, 95
10, 26859, Note_on_c, 8, 42, 0
10, 26880, Note_on_c, 8, 42, 88
10, 26887, Note_on_c, 8, 42, 0
10, 26904, Note_on_c, 8, 42, 100
10, 26936, Note_on_c, 8, 42, 0
10, 26952, Note_on_c, 8, 42, 102
10, 27000, Note_on_c, 8, 42, 0
10, 27000, Note_on_c, 8, 44, 94
10, 27010, Note_on_c, 8, 44, 0
10, 27024, Note_on_c, 8, 44, 81
10, 27032, Note_on_c, 8, 44, 0
10, 27048, Note_on_c, 8, 44, 86
10, 27056, Note_on_c, 8, 44, 0
10, 27072, Note_on_c, 8, 44, 92
10, 27080, Note_on_c, 8, 44, 0
10, 27096, Note_on_c, 8, 44, 92
10, 27103, Note_on_c, 8, 44, 0
10, 27120, Note_on_c, 8, 44, 97
10, 27127, Note_on_c, 8, 44, 0
10, 27144, Note_on_c, 8, 44, 100
10, 27152, Note_on_c, 8, 44, 0
10, 27168, Note_on_c, 8, 44, 105
10, 27179, Note_on_c, 8, 44, 0
10, 27193, Note_on_c, 8, 51, 103
10, 27385, Note_on_c, 8, 51, 0
10, 27385, End_track
11, 0, Start_track
11, 0, Title_t, "Drums"
11, 0, Control_c, 9, 7, 96
11, 0, Note_on_c, 9, 43, 127
11, 1, Note_on_c, 9, 43, 0
11, 12, Note_on_c, 9, 47, 127
11, 12, Note_on_c, 9, 43, 80
11, 13, Note_on_c, 9, 43, 0
11, 13, Note_on_c, 9, 47, 0
11, 24, Note_on_c, 9, 38, 127
11, 24, Note_on_c, 9, 45, 96
11, 25, Note_on_c, 9, 38, 0
11, 25, Note_on_c, 9, 45, 0
11, 48, Note_on_c, 9, 38, 127
11, 48, Note_on_c, 9, 45, 96
11, 49, Note_on_c, 9, 38, 0
11, 49, Note_on_c, 9, 45, 0
11, 72, Note_on_c, 9, 38, 127
11, 72, Note_on_c, 9, 45, 96
11, 73, Note_on_c, 9, 38, 0
11, 73, Note_on_c, 9, 45, 0
11, 96, Note_on_c, 9, 46, 96
11, 97, Note_on_c, 9, 46, 0
11, 120, Note_on_c, 9, 35, 112
11, 120, Note_on_c, 9, 42, 80
11, 121, Note_on_c, 9, 35, 0
11, 121, Note_on_c, 9, 42, 0
11, 144, Note_on_c, 9, 42, 48
11, 144, Note_on_c, 9, 62, 127
11, 145, Note_on_c, 9, 42, 0
11, 145, Note_on_c, 9, 62, 0
11, 168, Note_on_c, 9, 38, 127
11, 168, Note_on_c, 9, 45, 96
11, 168, Note_on_c, 9, 42, 80
11, 168, Note_on_c, 9, 39, 112
11, 169, Note_on_c, 9, 38, 0
11, 169, Note_on_c, 9, 39, 0
11, 169, Note_on_c, 9, 42, 0
11, 169, Note_on_c, 9, 45, 0
11, 192, Note_on_c, 9, 35, 112
11, 192, Note_on_c, 9, 42, 48
11, 193, Note_on_c, 9, 35, 0
11, 193, Note_on_c, 9, 42, 0
11, 216, Note_on_c, 9, 35, 112
11, 216, Note_on_c, 9, 42, 80
11, 216, Note_on_c, 9, 62, 127
11, 217, Note_on_c, 9, 35, 0
11, 217, Note_on_c, 9, 42, 0
11, 217, Note_on_c, 9, 62, 0
11, 240, Note_on_c, 9, 46, 96
11, 240, Note_on_c, 9, 63, 127
11, 241, Note_on_c, 9, 46, 0
11, 241, Note_on_c, 9, 63, 0
11, 264, Note_on_c, 9, 38, 127
11, 264, Note_on_c, 9, 45, 96
11, 264, Note_on_c, 9, 43, 127
11, 264, Note_on_c, 9, 39, 112
11, 265, Note_on_c, 9, 38, 0
11, 265, Note_on_c, 9, 39, 0
11, 265, Note_on_c, 9, 43, 0
11, 265, Note_on_c, 9, 45, 0
11, 288, Note_on_c, 9, 42, 80
11, 288, Note_on_c, 9, 39, 64
11, 289, Note_on_c, 9, 39, 0
11, 289, Note_on_c, 9, 42, 0
11, 312, Note_on_c, 9, 35, 112
11, 312, Note_on_c, 9, 42, 80
11, 312, Note_on_c, 9, 63, 127
11, 313, Note_on_c, 9, 35, 0
11, 313, Note_on_c, 9, 42, 0
11, 313, Note_on_c, 9, 63, 0
11, 336, Note_on_c, 9, 42, 48
11, 336, Note_on_c, 9, 62, 127
11, 337, Note_on_c, 9, 42, 0
11, 337, Note_on_c, 9, 62, 0
11, 360, Note_on_c, 9, 38, 127
11, 360, Note_on_c, 9, 45, 96
11, 360, Note_on_c, 9, 42, 80
11, 360, Note_on_c, 9, 39, 112
11, 361, Note_on_c, 9, 38, 0
11, 361, Note_on_c, 9, 39, 0
11, 361, Note_on_c, 9, 42, 0
11, 361, Note_on_c, 9, 45, 0
11, 384, Note_on_c, 9, 35, 112
11, 384, Note_on_c, 9, 42, 48
11, 385, Note_on_c, 9, 35, 0
11, 385, Note_on_c, 9, 42, 0
11, 408, Note_on_c, 9, 35, 112
11, 408, Note_on_c, 9, 42, 80
11, 409, Note_on_c, 9, 35, 0
11, 409, Note_on_c, 9, 42, 0
11, 432, Note_on_c, 9, 46, 96
11, 432, Note_on_c, 9, 43, 127
11, 432, Note_on_c, 9, 63, 127
11, 433, Note_on_c, 9, 43, 0
11, 433, Note_on_c, 9, 46, 0
11, 433, Note_on_c, 9, 63, 0
11, 456, Note_on_c, 9, 38, 127
11, 456, Note_on_c, 9, 45, 96
11, 456, Note_on_c, 9, 39, 112
11, 456, Note_on_c, 9, 64, 127
11, 457, Note_on_c, 9, 38, 0
11, 457, Note_on_c, 9, 39, 0
11, 457, Note_on_c, 9, 45, 0
11, 457, Note_on_c, 9, 64, 0
11, 480, Note_on_c, 9, 42, 80
11, 480, Note_on_c, 9, 39, 64
11, 480, Note_on_c, 9, 64, 127
11, 481, Note_on_c, 9, 39, 0
11, 481, Note_on_c, 9, 42, 0
11, 481, Note_on_c, 9, 64, 0
11, 504, Note_on_c, 9, 35, 112
11, 504, Note_on_c, 9, 42, 80
11, 505, Note_on_c, 9, 35, 0
11, 505, Note_on_c, 9, 42, 0
11, 528, Note_on_c, 9, 42, 48
11, 528, Note_on_c, 9, 62, 127
11, 529, Note_on_c, 9, 42, 0
11, 529, Note_on_c, 9, 62, 0
11, 552, Note_on_c, 9, 38, 127
11, 552, Note_on_c, 9, 45, 96
11, 552, Note_on_c, 9, 42, 80
11, 552, Note_on_c, 9, 39, 112
11, 553, Note_on_c, 9, 38, 0
11, 553, Note_on_c, 9, 39, 0
11, 553, Note_on_c, 9, 42, 0
11, 553, Note_on_c, 9, 45, 0
11, 576, Note_on_c, 9, 35, 112
11, 576, Note_on_c, 9, 42, 48
11, 577, Note_on_c, 9, 35, 0
11, 577, Note_on_c, 9, 42, 0
11, 600, Note_on_c, 9, 35, 112
11, 600, Note_on_c, 9, 42, 80
11, 600, Note_on_c, 9, 62, 127
11, 601, Note_on_c, 9, 35, 0
11, 601, Note_on_c, 9, 42, 0
11, 601, Note_on_c, 9, 62, 0
11, 624, Note_on_c, 9, 46, 96
11, 624, Note_on_c, 9, 63, 127
11, 625, Note_on_c, 9, 46, 0
11, 625, Note_on_c, 9, 63, 0
11, 648, Note_on_c, 9, 38, 127
11, 648, Note_on_c, 9, 45, 96
11, 648, Note_on_c, 9, 43, 127
11, 648, Note_on_c, 9, 39, 112
11, 649, Note_on_c, 9, 38, 0
11, 649, Note_on_c, 9, 39, 0
11, 649, Note_on_c, 9, 43, 0
11, 649, Note_on_c, 9, 45, 0
11, 672, Note_on_c, 9, 42, 80
11, 672, Note_on_c, 9, 39, 64
11, 673, Note_on_c, 9, 39, 0
11, 673, Note_on_c, 9, 42, 0
11, 696, Note_on_c, 9, 35, 112
11, 696, Note_on_c, 9, 42, 80
11, 696, Note_on_c, 9, 63, 127
11, 697, Note_on_c, 9, 35, 0
11, 697, Note_on_c, 9, 42, 0
11, 697, Note_on_c, 9, 63, 0
11, 720, Note_on_c, 9, 42, 48
11, 720, Note_on_c, 9, 62, 127
11, 721, Note_on_c, 9, 42, 0
11, 721, Note_on_c, 9, 62, 0
11, 744, Note_on_c, 9, 38, 127
11, 744, Note_on_c, 9, 45, 96
11, 744, Note_on_c, 9, 42, 80
11, 744, Note_on_c, 9, 39, 112
11, 745, Note_on_c, 9, 38, 0
11, 745, Note_on_c, 9, 39, 0
11, 745, Note_on_c, 9, 42, 0
11, 745, Note_on_c, 9, 45, 0
11, 768, Note_on_c, 9, 35, 112
11, 768, Note_on_c, 9, 42, 48
11, 769, Note_on_c, 9, 35, 0
11, 769, Note_on_c, 9, 42, 0
11, 792, Note_on_c, 9, 35, 112
11, 792, Note_on_c, 9, 42, 80
11, 793, Note_on_c, 9, 35, 0
11, 793, Note_on_c, 9, 42, 0
11, 816, Note_on_c, 9, 46, 96
11, 816, Note_on_c, 9, 43, 127
11, 816, Note_on_c, 9, 63, 127
11, 817, Note_on_c, 9, 43, 0
11, 817, Note_on_c, 9, 46, 0
11, 817, Note_on_c, 9, 63, 0
11, 840, Note_on_c, 9, 38, 127
11, 840, Note_on_c, 9, 45, 96
11, 840, Note_on_c, 9, 39, 112
11, 840, Note_on_c, 9, 64, 127
11, 841, Note_on_c, 9, 38, 0
11, 841, Note_on_c, 9, 39, 0
11, 841, Note_on_c, 9, 45, 0
11, 841, Note_on_c, 9, 64, 0
11, 864, Note_on_c, 9, 42, 80
11, 864, Note_on_c, 9, 39, 64
11, 864, Note_on_c, 9, 64, 127
11, 865, Note_on_c, 9, 39, 0
11, 865, Note_on_c, 9, 42, 0
11, 865, Note_on_c, 9, 64, 0
11, 888, Note_on_c, 9, 35, 112
11, 888, Note_on_c, 9, 42, 80
11, 889, Note_on_c, 9, 35, 0
11, 889, Note_on_c, 9, 42, 0
11, 912, Note_on_c, 9, 42, 48
11, 912, Note_on_c, 9, 62, 127
11, 913, Note_on_c, 9, 42, 0
11, 913, Note_on_c, 9, 62, 0
11, 936, Note_on_c, 9, 38, 127
11, 936, Note_on_c, 9, 45, 96
11, 936, Note_on_c, 9, 42, 80
11, 936, Note_on_c, 9, 39, 112
11, 937, Note_on_c, 9, 38, 0
11, 937, Note_on_c, 9, 39, 0
11, 937, Note_on_c, 9, 42, 0
11, 937, Note_on_c, 9, 45, 0
11, 960, Note_on_c, 9, 35, 112
11, 960, Note_on_c, 9, 42, 48
11, 961, Note_on_c, 9, 35, 0
11, 961, Note_on_c, 9, 42, 0
11, 984, Note_on_c, 9, 35, 112
11, 984, Note_on_c, 9, 42, 80
11, 984, Note_on_c, 9, 62, 127
11, 985, Note_on_c, 9, 35, 0
11, 985, Note_on_c, 9, 42, 0
11, 985, Note_on_c, 9, 62, 0
11, 1008, Note_on_c, 9, 46, 96
11, 1008, Note_on_c, 9, 63, 127
11, 1009, Note_on_c, 9, 46, 0
11, 1009, Note_on_c, 9, 63, 0
11, 1032, Note_on_c, 9, 38, 127
11, 1032, Note_on_c, 9, 45, 96
11, 1032, Note_on_c, 9, 43, 127
11, 1032, Note_on_c, 9, 39, 112
11, 1033, Note_on_c, 9, 38, 0
11, 1033, Note_on_c, 9, 39, 0
11, 1033, Note_on_c, 9, 43, 0
11, 1033, Note_on_c, 9, 45, 0
11, 1056, Note_on_c, 9, 42, 80
11, 1056, Note_on_c, 9, 39, 64
11, 1057, Note_on_c, 9, 39, 0
11, 1057, Note_on_c, 9, 42, 0
11, 1080, Note_on_c, 9, 35, 112
11, 1080, Note_on_c, 9, 42, 80
11, 1080, Note_on_c, 9, 63, 127
11, 1081, Note_on_c, 9, 35, 0
11, 1081, Note_on_c, 9, 42, 0
11, 1081, Note_on_c, 9, 63, 0
11, 1104, Note_on_c, 9, 42, 48
11, 1104, Note_on_c, 9, 62, 127
11, 1105, Note_on_c, 9, 42, 0
11, 1105, Note_on_c, 9, 62, 0
11, 1128, Note_on_c, 9, 38, 127
11, 1128, Note_on_c, 9, 45, 96
11, 1128, Note_on_c, 9, 42, 80
11, 1128, Note_on_c, 9, 39, 112
11, 1129, Note_on_c, 9, 38, 0
11, 1129, Note_on_c, 9, 39, 0
11, 1129, Note_on_c, 9, 42, 0
11, 1129, Note_on_c, 9, 45, 0
11, 1152, Note_on_c, 9, 35, 112
11, 1152, Note_on_c, 9, 42, 48
11, 1153, Note_on_c, 9, 35, 0
11, 1153, Note_on_c, 9, 42, 0
11, 1176, Note_on_c, 9, 35, 112
11, 1176, Note_on_c, 9, 42, 80
11, 1177, Note_on_c, 9, 35, 0
11, 1177, Note_on_c, 9, 42, 0
11, 1200, Note_on_c, 9, 46, 96
11, 1200, Note_on_c, 9, 43, 127
11, 1200, Note_on_c, 9, 63, 127
11, 1201, Note_on_c, 9, 43, 0
11, 1201, Note_on_c, 9, 46, 0
11, 1201, Note_on_c, 9, 63, 0
11, 1224, Note_on_c, 9, 38, 127
11, 1224, Note_on_c, 9, 45, 96
11, 1224, Note_on_c, 9, 39, 112
11, 1224, Note_on_c, 9, 64, 127
11, 1225, Note_on_c, 9, 38, 0
11, 1225, Note_on_c, 9, 39, 0
11, 1225, Note_on_c, 9, 45, 0
11, 1225, Note_on_c, 9, 64, 0
11, 1248, Note_on_c, 9, 42, 80
11, 1248, Note_on_c, 9, 39, 64
11, 1248, Note_on_c, 9, 64, 127
11, 1249, Note_on_c, 9, 39, 0
11, 1249, Note_on_c, 9, 42, 0
11, 1249, Note_on_c, 9, 64, 0
11, 1272, Note_on_c, 9, 35, 112
11, 1272, Note_on_c, 9, 42, 80
11, 1273, Note_on_c, 9, 35, 0
11, 1273, Note_on_c, 9, 42, 0
11, 1296, Note_on_c, 9, 42, 48
11, 1296, Note_on_c, 9, 62, 127
11, 1297, Note_on_c, 9, 42, 0
11, 1297, Note_on_c, 9, 62, 0
11, 1320, Note_on_c, 9, 38, 127
11, 1320, Note_on_c, 9, 45, 96
11, 1320, Note_on_c, 9, 42, 80
11, 1320, Note_on_c, 9, 39, 112
11, 1321, Note_on_c, 9, 38, 0
11, 1321, Note_on_c, 9, 39, 0
11, 1321, Note_on_c, 9, 42, 0
11, 1321, Note_on_c, 9, 45, 0
11, 1344, Note_on_c, 9, 35, 112
11, 1344, Note_on_c, 9, 42, 48
11, 1345, Note_on_c, 9, 35, 0
11, 1345, Note_on_c, 9, 42, 0
11, 1368, Note_on_c, 9, 35, 112
11, 1368, Note_on_c, 9, 42, 80
11, 1368, Note_on_c, 9, 62, 127
11, 1369, Note_on_c, 9, 35, 0
11, 1369, Note_on_c, 9, 42, 0
11, 1369, Note_on_c, 9, 62, 0
11, 1392, Note_on_c, 9, 46, 96
11, 1392, Note_on_c, 9, 63, 127
11, 1393, Note_on_c, 9, 46, 0
11, 1393, Note_on_c, 9, 63, 0
11, 1416, Note_on_c, 9, 38, 127
11, 1416, Note_on_c, 9, 45, 96
11, 1416, Note_on_c, 9, 43, 127
11, 1416, Note_on_c, 9, 39, 112
11, 1417, Note_on_c, 9, 38, 0
11, 1417, Note_on_c, 9, 39, 0
11, 1417, Note_on_c, 9, 43, 0
11, 1417, Note_on_c, 9, 45, 0
11, 1440, Note_on_c, 9, 42, 80
11, 1440, Note_on_c, 9, 39, 64
11, 1441, Note_on_c, 9, 39, 0
11, 1441, Note_on_c, 9, 42, 0
11, 1464, Note_on_c, 9, 35, 112
11, 1464, Note_on_c, 9, 42, 80
11, 1465, Note_on_c, 9, 35, 0
11, 1465, Note_on_c, 9, 42, 0
11, 1488, Note_on_c, 9, 42, 48
11, 1489, Note_on_c, 9, 42, 0
11, 1512, Note_on_c, 9, 38, 127
11, 1512, Note_on_c, 9, 45, 96
11, 1512, Note_on_c, 9, 42, 80
11, 1512, Note_on_c, 9, 39, 112
11, 1513, Note_on_c, 9, 38, 0
11, 1513, Note_on_c, 9, 39, 0
11, 1513, Note_on_c, 9, 42, 0
11, 1513, Note_on_c, 9, 45, 0
11, 1536, Note_on_c, 9, 35, 112
11, 1536, Note_on_c, 9, 42, 48
11, 1537, Note_on_c, 9, 35, 0
11, 1537, Note_on_c, 9, 42, 0
11, 1560, Note_on_c, 9, 35, 112
11, 1560, Note_on_c, 9, 42, 80
11, 1561, Note_on_c, 9, 35, 0
11, 1561, Note_on_c, 9, 42, 0
11, 1584, Note_on_c, 9, 43, 127
11, 1585, Note_on_c, 9, 43, 0
11, 1596, Note_on_c, 9, 38, 96
11, 1597, Note_on_c, 9, 38, 0
11, 1608, Note_on_c, 9, 38, 127
11, 1608, Note_on_c, 9, 45, 96
11, 1608, Note_on_c, 9, 46, 96
11, 1609, Note_on_c, 9, 38, 0
11, 1609, Note_on_c, 9, 45, 0
11, 1609, Note_on_c, 9, 46, 0
11, 1632, Note_on_c, 9, 38, 127
11, 1632, Note_on_c, 9, 42, 80
11, 1632, Note_on_c, 9, 46, 96
11, 1633, Note_on_c, 9, 38, 0
11, 1633, Note_on_c, 9, 42, 0
11, 1633, Note_on_c, 9, 46, 0
11, 1656, Note_on_c, 9, 35, 112
11, 1656, Note_on_c, 9, 42, 80
11, 1656, Note_on_c, 9, 49, 96
11, 1657, Note_on_c, 9, 35, 0
11, 1657, Note_on_c, 9, 42, 0
11, 1657, Note_on_c, 9, 49, 0
11, 1680, Note_on_c, 9, 42, 48
11, 1681, Note_on_c, 9, 42, 0
11, 1704, Note_on_c, 9, 38, 127
11, 1704, Note_on_c, 9, 45, 96
11, 1704, Note_on_c, 9, 42, 80
11, 1705, Note_on_c, 9, 38, 0
11, 1705, Note_on_c, 9, 42, 0
11, 1705, Note_on_c, 9, 45, 0
11, 1728, Note_on_c, 9, 35, 112
11, 1728, Note_on_c, 9, 42, 48
11, 1729, Note_on_c, 9, 35, 0
11, 1729, Note_on_c, 9, 42, 0
11, 1752, Note_on_c, 9, 35, 112
11, 1752, Note_on_c, 9, 42, 80
11, 1753, Note_on_c, 9, 35, 0
11, 1753, Note_on_c, 9, 42, 0
11, 1776, Note_on_c, 9, 42, 48
11, 1776, Note_on_c, 9, 46, 96
11, 1777, Note_on_c, 9, 42, 0
11, 1777, Note_on_c, 9, 46, 0
11, 1800, Note_on_c, 9, 38, 127
11, 1800, Note_on_c, 9, 45, 96
11, 1800, Note_on_c, 9, 42, 80
11, 1801, Note_on_c, 9, 38, 0
11, 1801, Note_on_c, 9, 42, 0
11, 1801, Note_on_c, 9, 45, 0
11, 1824, Note_on_c, 9, 42, 48
11, 1825, Note_on_c, 9, 42, 0
11, 1848, Note_on_c, 9, 35, 112
11, 1848, Note_on_c, 9, 42, 80
11, 1849, Note_on_c, 9, 35, 0
11, 1849, Note_on_c, 9, 42, 0
11, 1872, Note_on_c, 9, 42, 48
11, 1873, Note_on_c, 9, 42, 0
11, 1896, Note_on_c, 9, 38, 127
11, 1896, Note_on_c, 9, 45, 96
11, 1896, Note_on_c, 9, 42, 80
11, 1897, Note_on_c, 9, 38, 0
11, 1897, Note_on_c, 9, 42, 0
11, 1897, Note_on_c, 9, 45, 0
11, 1920, Note_on_c, 9, 35, 112
11, 1920, Note_on_c, 9, 42, 48
11, 1921, Note_on_c, 9, 35, 0
11, 1921, Note_on_c, 9, 42, 0
11, 1944, Note_on_c, 9, 35, 112
11, 1944, Note_on_c, 9, 42, 80
11, 1945, Note_on_c, 9, 35, 0
11, 1945, Note_on_c, 9, 42, 0
11, 1968, Note_on_c, 9, 42, 48
11, 1968, Note_on_c, 9, 46, 96
11, 1969, Note_on_c, 9, 42, 0
11, 1969, Note_on_c, 9, 46, 0
11, 1992, Note_on_c, 9, 38, 127
11, 1992, Note_on_c, 9, 45, 96
11, 1992, Note_on_c, 9, 42, 80
11, 1993, Note_on_c, 9, 38, 0
11, 1993, Note_on_c, 9, 42, 0
11, 1993, Note_on_c, 9, 45, 0
11, 2016, Note_on_c, 9, 42, 48
11, 2017, Note_on_c, 9, 42, 0
11, 2040, Note_on_c, 9, 35, 112
11, 2040, Note_on_c, 9, 42, 80
11, 2041, Note_on_c, 9, 35, 0
11, 2041, Note_on_c, 9, 42, 0
11, 2064, Note_on_c, 9, 42, 48
11, 2065, Note_on_c, 9, 42, 0
11, 2088, Note_on_c, 9, 38, 127
11, 2088, Note_on_c, 9, 45, 96
11, 2088, Note_on_c, 9, 42, 80
11, 2089, Note_on_c, 9, 38, 0
11, 2089, Note_on_c, 9, 42, 0
11, 2089, Note_on_c, 9, 45, 0
11, 2112, Note_on_c, 9, 35, 112
11, 2112, Note_on_c, 9, 42, 48
11, 2113, Note_on_c, 9, 35, 0
11, 2113, Note_on_c, 9, 42, 0
11, 2136, Note_on_c, 9, 35, 112
11, 2136, Note_on_c, 9, 42, 80
11, 2137, Note_on_c, 9, 35, 0
11, 2137, Note_on_c, 9, 42, 0
11, 2160, Note_on_c, 9, 42, 48
11, 2160, Note_on_c, 9, 46, 96
11, 2161, Note_on_c, 9, 42, 0
11, 2161, Note_on_c, 9, 46, 0
11, 2184, Note_on_c, 9, 38, 127
11, 2184, Note_on_c, 9, 45, 96
11, 2184, Note_on_c, 9, 42, 80
11, 2185, Note_on_c, 9, 38, 0
11, 2185, Note_on_c, 9, 42, 0
11, 2185, Note_on_c, 9, 45, 0
11, 2208, Note_on_c, 9, 42, 48
11, 2209, Note_on_c, 9, 42, 0
11, 2232, Note_on_c, 9, 35, 112
11, 2232, Note_on_c, 9, 42, 80
11, 2233, Note_on_c, 9, 35, 0
11, 2233, Note_on_c, 9, 42, 0
11, 2256, Note_on_c, 9, 42, 48
11, 2257, Note_on_c, 9, 42, 0
11, 2280, Note_on_c, 9, 38, 127
11, 2280, Note_on_c, 9, 45, 96
11, 2280, Note_on_c, 9, 42, 80
11, 2281, Note_on_c, 9, 38, 0
11, 2281, Note_on_c, 9, 42, 0
11, 2281, Note_on_c, 9, 45, 0
11, 2304, Note_on_c, 9, 35, 112
11, 2304, Note_on_c, 9, 42, 48
11, 2305, Note_on_c, 9, 35, 0
11, 2305, Note_on_c, 9, 42, 0
11, 2328, Note_on_c, 9, 35, 112
11, 2328, Note_on_c, 9, 42, 80
11, 2329, Note_on_c, 9, 35, 0
11, 2329, Note_on_c, 9, 42, 0
11, 2352, Note_on_c, 9, 42, 48
11, 2352, Note_on_c, 9, 46, 96
11, 2353, Note_on_c, 9, 42, 0
11, 2353, Note_on_c, 9, 46, 0
11, 2376, Note_on_c, 9, 38, 127
11, 2376, Note_on_c, 9, 45, 96
11, 2376, Note_on_c, 9, 42, 80
11, 2377, Note_on_c, 9, 38, 0
11, 2377, Note_on_c, 9, 42, 0
11, 2377, Note_on_c, 9, 45, 0
11, 2400, Note_on_c, 9, 42, 48
11, 2401, Note_on_c, 9, 42, 0
11, 2424, Note_on_c, 9, 35, 112
11, 2424, Note_on_c, 9, 42, 80
11, 2425, Note_on_c, 9, 35, 0
11, 2425, Note_on_c, 9, 42, 0
11, 2448, Note_on_c, 9, 42, 48
11, 2449, Note_on_c, 9, 42, 0
11, 2472, Note_on_c, 9, 38, 127
11, 2472, Note_on_c, 9, 45, 96
11, 2472, Note_on_c, 9, 42, 80
11, 2473, Note_on_c, 9, 38, 0
11, 2473, Note_on_c, 9, 42, 0
11, 2473, Note_on_c, 9, 45, 0
11, 2496, Note_on_c, 9, 35, 112
11, 2496, Note_on_c, 9, 42, 48
11, 2497, Note_on_c, 9, 35, 0
11, 2497, Note_on_c, 9, 42, 0
11, 2520, Note_on_c, 9, 35, 112
11, 2520, Note_on_c, 9, 42, 80
11, 2521, Note_on_c, 9, 35, 0
11, 2521, Note_on_c, 9, 42, 0
11, 2544, Note_on_c, 9, 42, 48
11, 2544, Note_on_c, 9, 46, 96
11, 2545, Note_on_c, 9, 42, 0
11, 2545, Note_on_c, 9, 46, 0
11, 2568, Note_on_c, 9, 38, 127
11, 2568, Note_on_c, 9, 45, 96
11, 2568, Note_on_c, 9, 42, 80
11, 2569, Note_on_c, 9, 38, 0
11, 2569, Note_on_c, 9, 42, 0
11, 2569, Note_on_c, 9, 45, 0
11, 2592, Note_on_c, 9, 42, 48
11, 2593, Note_on_c, 9, 42, 0
11, 2616, Note_on_c, 9, 35, 112
11, 2616, Note_on_c, 9, 42, 80
11, 2617, Note_on_c, 9, 35, 0
11, 2617, Note_on_c, 9, 42, 0
11, 2640, Note_on_c, 9, 42, 48
11, 2641, Note_on_c, 9, 42, 0
11, 2664, Note_on_c, 9, 38, 127
11, 2664, Note_on_c, 9, 45, 96
11, 2664, Note_on_c, 9, 42, 80
11, 2665, Note_on_c, 9, 38, 0
11, 2665, Note_on_c, 9, 42, 0
11, 2665, Note_on_c, 9, 45, 0
11, 2688, Note_on_c, 9, 35, 112
11, 2688, Note_on_c, 9, 42, 48
11, 2689, Note_on_c, 9, 35, 0
11, 2689, Note_on_c, 9, 42, 0
11, 2712, Note_on_c, 9, 35, 112
11, 2712, Note_on_c, 9, 42, 80
11, 2713, Note_on_c, 9, 35, 0
11, 2713, Note_on_c, 9, 42, 0
11, 2736, Note_on_c, 9, 42, 48
11, 2736, Note_on_c, 9, 46, 96
11, 2737, Note_on_c, 9, 42, 0
11, 2737, Note_on_c, 9, 46, 0
11, 2760, Note_on_c, 9, 38, 127
11, 2760, Note_on_c, 9, 45, 96
11, 2760, Note_on_c, 9, 42, 80
11, 2761, Note_on_c, 9, 38, 0
11, 2761, Note_on_c, 9, 42, 0
11, 2761, Note_on_c, 9, 45, 0
11, 2784, Note_on_c, 9, 42, 48
11, 2785, Note_on_c, 9, 42, 0
11, 2808, Note_on_c, 9, 35, 112
11, 2808, Note_on_c, 9, 42, 80
11, 2809, Note_on_c, 9, 35, 0
11, 2809, Note_on_c, 9, 42, 0
11, 2832, Note_on_c, 9, 42, 48
11, 2833, Note_on_c, 9, 42, 0
11, 2856, Note_on_c, 9, 38, 127
11, 2856, Note_on_c, 9, 45, 96
11, 2856, Note_on_c, 9, 42, 80
11, 2857, Note_on_c, 9, 38, 0
11, 2857, Note_on_c, 9, 42, 0
11, 2857, Note_on_c, 9, 45, 0
11, 2880, Note_on_c, 9, 35, 112
11, 2880, Note_on_c, 9, 42, 48
11, 2881, Note_on_c, 9, 35, 0
11, 2881, Note_on_c, 9, 42, 0
11, 2904, Note_on_c, 9, 35, 112
11, 2904, Note_on_c, 9, 42, 80
11, 2905, Note_on_c, 9, 35, 0
11, 2905, Note_on_c, 9, 42, 0
11, 2928, Note_on_c, 9, 42, 48
11, 2928, Note_on_c, 9, 46, 96
11, 2929, Note_on_c, 9, 42, 0
11, 2929, Note_on_c, 9, 46, 0
11, 2952, Note_on_c, 9, 38, 127
11, 2952, Note_on_c, 9, 45, 96
11, 2952, Note_on_c, 9, 42, 80
11, 2953, Note_on_c, 9, 38, 0
11, 2953, Note_on_c, 9, 42, 0
11, 2953, Note_on_c, 9, 45, 0
11, 2976, Note_on_c, 9, 42, 48
11, 2977, Note_on_c, 9, 42, 0
11, 3000, Note_on_c, 9, 35, 112
11, 3000, Note_on_c, 9, 42, 80
11, 3001, Note_on_c, 9, 35, 0
11, 3001, Note_on_c, 9, 42, 0
11, 3024, Note_on_c, 9, 42, 48
11, 3025, Note_on_c, 9, 42, 0
11, 3048, Note_on_c, 9, 38, 127
11, 3048, Note_on_c, 9, 45, 96
11, 3048, Note_on_c, 9, 42, 80
11, 3049, Note_on_c, 9, 38, 0
11, 3049, Note_on_c, 9, 42, 0
11, 3049, Note_on_c, 9, 45, 0
11, 3072, Note_on_c, 9, 35, 112
11, 3072, Note_on_c, 9, 42, 48
11, 3073, Note_on_c, 9, 35, 0
11, 3073, Note_on_c, 9, 42, 0
11, 3096, Note_on_c, 9, 35, 112
11, 3096, Note_on_c, 9, 42, 80
11, 3097, Note_on_c, 9, 35, 0
11, 3097, Note_on_c, 9, 42, 0
11, 3120, Note_on_c, 9, 42, 48
11, 3120, Note_on_c, 9, 46, 96
11, 3121, Note_on_c, 9, 42, 0
11, 3121, Note_on_c, 9, 46, 0
11, 3144, Note_on_c, 9, 38, 127
11, 3144, Note_on_c, 9, 45, 96
11, 3144, Note_on_c, 9, 42, 80
11, 3145, Note_on_c, 9, 38, 0
11, 3145, Note_on_c, 9, 42, 0
11, 3145, Note_on_c, 9, 45, 0
11, 3168, Note_on_c, 9, 38, 112
11, 3168, Note_on_c, 9, 45, 80
11, 3168, Note_on_c, 9, 46, 96
11, 3169, Note_on_c, 9, 38, 0
11, 3169, Note_on_c, 9, 45, 0
11, 3169, Note_on_c, 9, 46, 0
11, 3192, Note_on_c, 9, 35, 112
11, 3192, Note_on_c, 9, 42, 80
11, 3193, Note_on_c, 9, 35, 0
11, 3193, Note_on_c, 9, 42, 0
11, 3216, Note_on_c, 9, 42, 48
11, 3217, Note_on_c, 9, 42, 0
11, 3240, Note_on_c, 9, 38, 127
11, 3240, Note_on_c, 9, 45, 96
11, 3240, Note_on_c, 9, 42, 80
11, 3241, Note_on_c, 9, 38, 0
11, 3241, Note_on_c, 9, 42, 0
11, 3241, Note_on_c, 9, 45, 0
11, 3264, Note_on_c, 9, 35, 112
11, 3264, Note_on_c, 9, 42, 48
11, 3265, Note_on_c, 9, 35, 0
11, 3265, Note_on_c, 9, 42, 0
11, 3288, Note_on_c, 9, 35, 112
11, 3288, Note_on_c, 9, 42, 80
11, 3289, Note_on_c, 9, 35, 0
11, 3289, Note_on_c, 9, 42, 0
11, 3312, Note_on_c, 9, 42, 48
11, 3312, Note_on_c, 9, 46, 96
11, 3313, Note_on_c, 9, 42, 0
11, 3313, Note_on_c, 9, 46, 0
11, 3336, Note_on_c, 9, 38, 127
11, 3336, Note_on_c, 9, 45, 96
11, 3336, Note_on_c, 9, 42, 80
11, 3337, Note_on_c, 9, 38, 0
11, 3337, Note_on_c, 9, 42, 0
11, 3337, Note_on_c, 9, 45, 0
11, 3360, Note_on_c, 9, 42, 48
11, 3361, Note_on_c, 9, 42, 0
11, 3384, Note_on_c, 9, 35, 112
11, 3384, Note_on_c, 9, 42, 80
11, 3385, Note_on_c, 9, 35, 0
11, 3385, Note_on_c, 9, 42, 0
11, 3408, Note_on_c, 9, 42, 48
11, 3409, Note_on_c, 9, 42, 0
11, 3432, Note_on_c, 9, 38, 127
11, 3432, Note_on_c, 9, 45, 96
11, 3432, Note_on_c, 9, 42, 80
11, 3433, Note_on_c, 9, 38, 0
11, 3433, Note_on_c, 9, 42, 0
11, 3433, Note_on_c, 9, 45, 0
11, 3456, Note_on_c, 9, 35, 112
11, 3456, Note_on_c, 9, 42, 48
11, 3457, Note_on_c, 9, 35, 0
11, 3457, Note_on_c, 9, 42, 0
11, 3480, Note_on_c, 9, 35, 112
11, 3480, Note_on_c, 9, 42, 80
11, 3481, Note_on_c, 9, 35, 0
11, 3481, Note_on_c, 9, 42, 0
11, 3504, Note_on_c, 9, 42, 48
11, 3504, Note_on_c, 9, 46, 96
11, 3505, Note_on_c, 9, 42, 0
11, 3505, Note_on_c, 9, 46, 0
11, 3528, Note_on_c, 9, 38, 127
11, 3528, Note_on_c, 9, 45, 96
11, 3528, Note_on_c, 9, 42, 80
11, 3529, Note_on_c, 9, 38, 0
11, 3529, Note_on_c, 9, 42, 0
11, 3529, Note_on_c, 9, 45, 0
11, 3552, Note_on_c, 9, 42, 48
11, 3553, Note_on_c, 9, 42, 0
11, 3576, Note_on_c, 9, 35, 112
11, 3576, Note_on_c, 9, 42, 80
11, 3577, Note_on_c, 9, 35, 0
11, 3577, Note_on_c, 9, 42, 0
11, 3600, Note_on_c, 9, 42, 48
11, 3601, Note_on_c, 9, 42, 0
11, 3624, Note_on_c, 9, 38, 127
11, 3624, Note_on_c, 9, 45, 96
11, 3624, Note_on_c, 9, 42, 80
11, 3625, Note_on_c, 9, 38, 0
11, 3625, Note_on_c, 9, 42, 0
11, 3625, Note_on_c, 9, 45, 0
11, 3648, Note_on_c, 9, 35, 112
11, 3648, Note_on_c, 9, 42, 48
11, 3649, Note_on_c, 9, 35, 0
11, 3649, Note_on_c, 9, 42, 0
11, 3672, Note_on_c, 9, 35, 112
11, 3672, Note_on_c, 9, 42, 80
11, 3673, Note_on_c, 9, 35, 0
11, 3673, Note_on_c, 9, 42, 0
11, 3696, Note_on_c, 9, 42, 48
11, 3696, Note_on_c, 9, 46, 96
11, 3697, Note_on_c, 9, 42, 0
11, 3697, Note_on_c, 9, 46, 0
11, 3720, Note_on_c, 9, 38, 127
11, 3720, Note_on_c, 9, 45, 96
11, 3720, Note_on_c, 9, 42, 80
11, 3721, Note_on_c, 9, 38, 0
11, 3721, Note_on_c, 9, 42, 0
11, 3721, Note_on_c, 9, 45, 0
11, 3744, Note_on_c, 9, 42, 48
11, 3745, Note_on_c, 9, 42, 0
11, 3768, Note_on_c, 9, 35, 112
11, 3768, Note_on_c, 9, 42, 80
11, 3769, Note_on_c, 9, 35, 0
11, 3769, Note_on_c, 9, 42, 0
11, 3792, Note_on_c, 9, 42, 48
11, 3793, Note_on_c, 9, 42, 0
11, 3816, Note_on_c, 9, 38, 127
11, 3816, Note_on_c, 9, 45, 96
11, 3816, Note_on_c, 9, 42, 80
11, 3817, Note_on_c, 9, 38, 0
11, 3817, Note_on_c, 9, 42, 0
11, 3817, Note_on_c, 9, 45, 0
11, 3840, Note_on_c, 9, 35, 112
11, 3840, Note_on_c, 9, 42, 48
11, 3841, Note_on_c, 9, 35, 0
11, 3841, Note_on_c, 9, 42, 0
11, 3864, Note_on_c, 9, 35, 112
11, 3864, Note_on_c, 9, 42, 80
11, 3865, Note_on_c, 9, 35, 0
11, 3865, Note_on_c, 9, 42, 0
11, 3888, Note_on_c, 9, 42, 48
11, 3888, Note_on_c, 9, 46, 96
11, 3889, Note_on_c, 9, 42, 0
11, 3889, Note_on_c, 9, 46, 0
11, 3912, Note_on_c, 9, 38, 127
11, 3912, Note_on_c, 9, 45, 96
11, 3912, Note_on_c, 9, 42, 80
11, 3913, Note_on_c, 9, 38, 0
11, 3913, Note_on_c, 9, 42, 0
11, 3913, Note_on_c, 9, 45, 0
11, 3936, Note_on_c, 9, 42, 48
11, 3937, Note_on_c, 9, 42, 0
11, 3960, Note_on_c, 9, 35, 112
11, 3960, Note_on_c, 9, 42, 80
11, 3961, Note_on_c, 9, 35, 0
11, 3961, Note_on_c, 9, 42, 0
11, 3984, Note_on_c, 9, 42, 48
11, 3985, Note_on_c, 9, 42, 0
11, 4008, Note_on_c, 9, 38, 127
11, 4008, Note_on_c, 9, 45, 96
11, 4008, Note_on_c, 9, 42, 80
11, 4009, Note_on_c, 9, 38, 0
11, 4009, Note_on_c, 9, 42, 0
11, 4009, Note_on_c, 9, 45, 0
11, 4032, Note_on_c, 9, 35, 112
11, 4032, Note_on_c, 9, 42, 48
11, 4033, Note_on_c, 9, 35, 0
11, 4033, Note_on_c, 9, 42, 0
11, 4056, Note_on_c, 9, 35, 112
11, 4056, Note_on_c, 9, 42, 80
11, 4057, Note_on_c, 9, 35, 0
11, 4057, Note_on_c, 9, 42, 0
11, 4080, Note_on_c, 9, 42, 48
11, 4080, Note_on_c, 9, 46, 96
11, 4081, Note_on_c, 9, 42, 0
11, 4081, Note_on_c, 9, 46, 0
11, 4104, Note_on_c, 9, 38, 127
11, 4104, Note_on_c, 9, 45, 96
11, 4104, Note_on_c, 9, 42, 80
11, 4105, Note_on_c, 9, 38, 0
11, 4105, Note_on_c, 9, 42, 0
11, 4105, Note_on_c, 9, 45, 0
11, 4128, Note_on_c, 9, 42, 48
11, 4129, Note_on_c, 9, 42, 0
11, 4152, Note_on_c, 9, 35, 112
11, 4152, Note_on_c, 9, 42, 80
11, 4153, Note_on_c, 9, 35, 0
11, 4153, Note_on_c, 9, 42, 0
11, 4176, Note_on_c, 9, 42, 48
11, 4177, Note_on_c, 9, 42, 0
11, 4200, Note_on_c, 9, 38, 127
11, 4200, Note_on_c, 9, 45, 96
11, 4200, Note_on_c, 9, 42, 80
11, 4201, Note_on_c, 9, 38, 0
11, 4201, Note_on_c, 9, 42, 0
11, 4201, Note_on_c, 9, 45, 0
11, 4224, Note_on_c, 9, 35, 112
11, 4224, Note_on_c, 9, 42, 48
11, 4225, Note_on_c, 9, 35, 0
11, 4225, Note_on_c, 9, 42, 0
11, 4248, Note_on_c, 9, 35, 112
11, 4248, Note_on_c, 9, 42, 80
11, 4249, Note_on_c, 9, 35, 0
11, 4249, Note_on_c, 9, 42, 0
11, 4272, Note_on_c, 9, 42, 48
11, 4272, Note_on_c, 9, 46, 96
11, 4273, Note_on_c, 9, 42, 0
11, 4273, Note_on_c, 9, 46, 0
11, 4296, Note_on_c, 9, 38, 127
11, 4296, Note_on_c, 9, 45, 96
11, 4296, Note_on_c, 9, 42, 80
11, 4297, Note_on_c, 9, 38, 0
11, 4297, Note_on_c, 9, 42, 0
11, 4297, Note_on_c, 9, 45, 0
11, 4320, Note_on_c, 9, 42, 48
11, 4321, Note_on_c, 9, 42, 0
11, 4344, Note_on_c, 9, 35, 112
11, 4344, Note_on_c, 9, 42, 80
11, 4345, Note_on_c, 9, 35, 0
11, 4345, Note_on_c, 9, 42, 0
11, 4368, Note_on_c, 9, 42, 48
11, 4369, Note_on_c, 9, 42, 0
11, 4392, Note_on_c, 9, 38, 127
11, 4392, Note_on_c, 9, 45, 96
11, 4392, Note_on_c, 9, 42, 80
11, 4393, Note_on_c, 9, 38, 0
11, 4393, Note_on_c, 9, 42, 0
11, 4393, Note_on_c, 9, 45, 0
11, 4416, Note_on_c, 9, 35, 112
11, 4416, Note_on_c, 9, 42, 48
11, 4417, Note_on_c, 9, 35, 0
11, 4417, Note_on_c, 9, 42, 0
11, 4440, Note_on_c, 9, 35, 112
11, 4440, Note_on_c, 9, 42, 80
11, 4441, Note_on_c, 9, 35, 0
11, 4441, Note_on_c, 9, 42, 0
11, 4464, Note_on_c, 9, 42, 48
11, 4464, Note_on_c, 9, 46, 96
11, 4465, Note_on_c, 9, 42, 0
11, 4465, Note_on_c, 9, 46, 0
11, 4488, Note_on_c, 9, 38, 127
11, 4488, Note_on_c, 9, 45, 96
11, 4488, Note_on_c, 9, 42, 80
11, 4489, Note_on_c, 9, 38, 0
11, 4489, Note_on_c, 9, 42, 0
11, 4489, Note_on_c, 9, 45, 0
11, 4512, Note_on_c, 9, 42, 48
11, 4513, Note_on_c, 9, 42, 0
11, 4536, Note_on_c, 9, 35, 112
11, 4536, Note_on_c, 9, 42, 80
11, 4537, Note_on_c, 9, 35, 0
11, 4537, Note_on_c, 9, 42, 0
11, 4560, Note_on_c, 9, 42, 48
11, 4560, Note_on_c, 9, 50, 127
11, 4561, Note_on_c, 9, 42, 0
11, 4561, Note_on_c, 9, 50, 0
11, 4584, Note_on_c, 9, 38, 127
11, 4584, Note_on_c, 9, 45, 96
11, 4584, Note_on_c, 9, 42, 80
11, 4585, Note_on_c, 9, 38, 0
11, 4585, Note_on_c, 9, 42, 0
11, 4585, Note_on_c, 9, 45, 0
11, 4608, Note_on_c, 9, 35, 112
11, 4608, Note_on_c, 9, 42, 48
11, 4609, Note_on_c, 9, 35, 0
11, 4609, Note_on_c, 9, 42, 0
11, 4632, Note_on_c, 9, 35, 112
11, 4632, Note_on_c, 9, 42, 80
11, 4633, Note_on_c, 9, 35, 0
11, 4633, Note_on_c, 9, 42, 0
11, 4656, Note_on_c, 9, 42, 48
11, 4656, Note_on_c, 9, 47, 127
11, 4657, Note_on_c, 9, 42, 0
11, 4657, Note_on_c, 9, 47, 0
11, 4680, Note_on_c, 9, 38, 127
11, 4680, Note_on_c, 9, 42, 80
11, 4680, Note_on_c, 9, 43, 112
11, 4681, Note_on_c, 9, 38, 0
11, 4681, Note_on_c, 9, 42, 0
11, 4681, Note_on_c, 9, 43, 0
11, 4704, Note_on_c, 9, 38, 127
11, 4704, Note_on_c, 9, 42, 48
11, 4704, Note_on_c, 9, 43, 112
11, 4705, Note_on_c, 9, 38, 0
11, 4705, Note_on_c, 9, 42, 0
11, 4705, Note_on_c, 9, 43, 0
11, 4728, Note_on_c, 9, 35, 112
11, 4728, Note_on_c, 9, 42, 80
11, 4728, Note_on_c, 9, 49, 96
11, 4729, Note_on_c, 9, 35, 0
11, 4729, Note_on_c, 9, 42, 0
11, 4729, Note_on_c, 9, 49, 0
11, 4752, Note_on_c, 9, 42, 48
11, 4752, Note_on_c, 9, 62, 127
11, 4753, Note_on_c, 9, 42, 0
11, 4753, Note_on_c, 9, 62, 0
11, 4776, Note_on_c, 9, 38, 127
11, 4776, Note_on_c, 9, 45, 96
11, 4776, Note_on_c, 9, 42, 80
11, 4776, Note_on_c, 9, 39, 112
11, 4777, Note_on_c, 9, 38, 0
11, 4777, Note_on_c, 9, 39, 0
11, 4777, Note_on_c, 9, 42, 0
11, 4777, Note_on_c, 9, 45, 0
11, 4800, Note_on_c, 9, 35, 112
11, 4800, Note_on_c, 9, 42, 48
11, 4801, Note_on_c, 9, 35, 0
11, 4801, Note_on_c, 9, 42, 0
11, 4824, Note_on_c, 9, 35, 112
11, 4824, Note_on_c, 9, 42, 80
11, 4824, Note_on_c, 9, 62, 127
11, 4825, Note_on_c, 9, 35, 0
11, 4825, Note_on_c, 9, 42, 0
11, 4825, Note_on_c, 9, 62, 0
11, 4848, Note_on_c, 9, 46, 96
11, 4848, Note_on_c, 9, 63, 127
11, 4849, Note_on_c, 9, 46, 0
11, 4849, Note_on_c, 9, 63, 0
11, 4872, Note_on_c, 9, 38, 127
11, 4872, Note_on_c, 9, 45, 96
11, 4872, Note_on_c, 9, 43, 127
11, 4872, Note_on_c, 9, 39, 112
11, 4873, Note_on_c, 9, 38, 0
11, 4873, Note_on_c, 9, 39, 0
11, 4873, Note_on_c, 9, 43, 0
11, 4873, Note_on_c, 9, 45, 0
11, 4896, Note_on_c, 9, 42, 80
11, 4896, Note_on_c, 9, 39, 64
11, 4897, Note_on_c, 9, 39, 0
11, 4897, Note_on_c, 9, 42, 0
11, 4920, Note_on_c, 9, 35, 112
11, 4920, Note_on_c, 9, 42, 80
11, 4920, Note_on_c, 9, 63, 127
11, 4921, Note_on_c, 9, 35, 0
11, 4921, Note_on_c, 9, 42, 0
11, 4921, Note_on_c, 9, 63, 0
11, 4944, Note_on_c, 9, 42, 48
11, 4944, Note_on_c, 9, 62, 127
11, 4945, Note_on_c, 9, 42, 0
11, 4945, Note_on_c, 9, 62, 0
11, 4968, Note_on_c, 9, 38, 127
11, 4968, Note_on_c, 9, 45, 96
11, 4968, Note_on_c, 9, 42, 80
11, 4968, Note_on_c, 9, 39, 112
11, 4969, Note_on_c, 9, 38, 0
11, 4969, Note_on_c, 9, 39, 0
11, 4969, Note_on_c, 9, 42, 0
11, 4969, Note_on_c, 9, 45, 0
11, 4992, Note_on_c, 9, 35, 112
11, 4992, Note_on_c, 9, 42, 48
11, 4993, Note_on_c, 9, 35, 0
11, 4993, Note_on_c, 9, 42, 0
11, 5016, Note_on_c, 9, 35, 112
11, 5016, Note_on_c, 9, 42, 80
11, 5017, Note_on_c, 9, 35, 0
11, 5017, Note_on_c, 9, 42, 0
11, 5040, Note_on_c, 9, 46, 96
11, 5040, Note_on_c, 9, 43, 127
11, 5040, Note_on_c, 9, 63, 127
11, 5041, Note_on_c, 9, 43, 0
11, 5041, Note_on_c, 9, 46, 0
11, 5041, Note_on_c, 9, 63, 0
11, 5064, Note_on_c, 9, 38, 127
11, 5064, Note_on_c, 9, 45, 96
11, 5064, Note_on_c, 9, 39, 112
11, 5064, Note_on_c, 9, 64, 127
11, 5065, Note_on_c, 9, 38, 0
11, 5065, Note_on_c, 9, 39, 0
11, 5065, Note_on_c, 9, 45, 0
11, 5065, Note_on_c, 9, 64, 0
11, 5088, Note_on_c, 9, 42, 80
11, 5088, Note_on_c, 9, 39, 64
11, 5088, Note_on_c, 9, 64, 127
11, 5089, Note_on_c, 9, 39, 0
11, 5089, Note_on_c, 9, 42, 0
11, 5089, Note_on_c, 9, 64, 0
11, 5112, Note_on_c, 9, 35, 112
11, 5112, Note_on_c, 9, 51, 96
11, 5113, Note_on_c, 9, 35, 0
11, 5113, Note_on_c, 9, 51, 0
11, 5136, Note_on_c, 9, 62, 127
11, 5137, Note_on_c, 9, 62, 0
11, 5160, Note_on_c, 9, 38, 127
11, 5160, Note_on_c, 9, 45, 96
11, 5160, Note_on_c, 9, 51, 96
11, 5160, Note_on_c, 9, 39, 112
11, 5161, Note_on_c, 9, 38, 0
11, 5161, Note_on_c, 9, 39, 0
11, 5161, Note_on_c, 9, 45, 0
11, 5161, Note_on_c, 9, 51, 0
11, 5184, Note_on_c, 9, 35, 112
11, 5184, Note_on_c, 9, 51, 48
11, 5185, Note_on_c, 9, 35, 0
11, 5185, Note_on_c, 9, 51, 0
11, 5208, Note_on_c, 9, 35, 112
11, 5208, Note_on_c, 9, 51, 96
11, 5208, Note_on_c, 9, 62, 127
11, 5209, Note_on_c, 9, 35, 0
11, 5209, Note_on_c, 9, 51, 0
11, 5209, Note_on_c, 9, 62, 0
11, 5232, Note_on_c, 9, 46, 96
11, 5233, Note_on_c, 9, 46, 0
11, 5256, Note_on_c, 9, 38, 127
11, 5256, Note_on_c, 9, 45, 96
11, 5256, Note_on_c, 9, 51, 96
11, 5256, Note_on_c, 9, 43, 127
11, 5256, Note_on_c, 9, 39, 112
11, 5257, Note_on_c, 9, 38, 0
11, 5257, Note_on_c, 9, 39, 0
11, 5257, Note_on_c, 9, 43, 0
11, 5257, Note_on_c, 9, 45, 0
11, 5257, Note_on_c, 9, 51, 0
11, 5280, Note_on_c, 9, 51, 48
11, 5280, Note_on_c, 9, 39, 64
11, 5281, Note_on_c, 9, 39, 0
11, 5281, Note_on_c, 9, 51, 0
11, 5304, Note_on_c, 9, 35, 112
11, 5304, Note_on_c, 9, 42, 80
11, 5304, Note_on_c, 9, 63, 127
11, 5305, Note_on_c, 9, 35, 0
11, 5305, Note_on_c, 9, 42, 0
11, 5305, Note_on_c, 9, 63, 0
11, 5328, Note_on_c, 9, 42, 48
11, 5328, Note_on_c, 9, 62, 127
11, 5329, Note_on_c, 9, 42, 0
11, 5329, Note_on_c, 9, 62, 0
11, 5352, Note_on_c, 9, 38, 127
11, 5352, Note_on_c, 9, 45, 96
11, 5352, Note_on_c, 9, 42, 80
11, 5352, Note_on_c, 9, 39, 112
11, 5353, Note_on_c, 9, 38, 0
11, 5353, Note_on_c, 9, 39, 0
11, 5353, Note_on_c, 9, 42, 0
11, 5353, Note_on_c, 9, 45, 0
11, 5376, Note_on_c, 9, 35, 112
11, 5376, Note_on_c, 9, 42, 48
11, 5377, Note_on_c, 9, 35, 0
11, 5377, Note_on_c, 9, 42, 0
11, 5400, Note_on_c, 9, 35, 112
11, 5400, Note_on_c, 9, 42, 80
11, 5401, Note_on_c, 9, 35, 0
11, 5401, Note_on_c, 9, 42, 0
11, 5424, Note_on_c, 9, 46, 96
11, 5424, Note_on_c, 9, 43, 127
11, 5424, Note_on_c, 9, 63, 127
11, 5425, Note_on_c, 9, 43, 0
11, 5425, Note_on_c, 9, 46, 0
11, 5425, Note_on_c, 9, 63, 0
11, 5448, Note_on_c, 9, 38, 127
11, 5448, Note_on_c, 9, 45, 96
11, 5448, Note_on_c, 9, 39, 112
11, 5448, Note_on_c, 9, 64, 127
11, 5449, Note_on_c, 9, 38, 0
11, 5449, Note_on_c, 9, 39, 0
11, 5449, Note_on_c, 9, 45, 0
11, 5449, Note_on_c, 9, 64, 0
11, 5472, Note_on_c, 9, 42, 80
11, 5472, Note_on_c, 9, 39, 64
11, 5472, Note_on_c, 9, 64, 127
11, 5473, Note_on_c, 9, 39, 0
11, 5473, Note_on_c, 9, 42, 0
11, 5473, Note_on_c, 9, 64, 0
11, 5496, Note_on_c, 9, 35, 112
11, 5496, Note_on_c, 9, 42, 80
11, 5497, Note_on_c, 9, 35, 0
11, 5497, Note_on_c, 9, 42, 0
11, 5520, Note_on_c, 9, 42, 48
11, 5520, Note_on_c, 9, 62, 127
11, 5521, Note_on_c, 9, 42, 0
11, 5521, Note_on_c, 9, 62, 0
11, 5544, Note_on_c, 9, 38, 127
11, 5544, Note_on_c, 9, 45, 96
11, 5544, Note_on_c, 9, 42, 80
11, 5544, Note_on_c, 9, 39, 112
11, 5545, Note_on_c, 9, 38, 0
11, 5545, Note_on_c, 9, 39, 0
11, 5545, Note_on_c, 9, 42, 0
11, 5545, Note_on_c, 9, 45, 0
11, 5568, Note_on_c, 9, 35, 112
11, 5568, Note_on_c, 9, 42, 48
11, 5569, Note_on_c, 9, 35, 0
11, 5569, Note_on_c, 9, 42, 0
11, 5592, Note_on_c, 9, 35, 112
11, 5592, Note_on_c, 9, 42, 80
11, 5592, Note_on_c, 9, 62, 127
11, 5593, Note_on_c, 9, 35, 0
11, 5593, Note_on_c, 9, 42, 0
11, 5593, Note_on_c, 9, 62, 0
11, 5616, Note_on_c, 9, 46, 96
11, 5616, Note_on_c, 9, 63, 127
11, 5617, Note_on_c, 9, 46, 0
11, 5617, Note_on_c, 9, 63, 0
11, 5640, Note_on_c, 9, 38, 127
11, 5640, Note_on_c, 9, 45, 96
11, 5640, Note_on_c, 9, 43, 127
11, 5640, Note_on_c, 9, 39, 112
11, 5641, Note_on_c, 9, 38, 0
11, 5641, Note_on_c, 9, 39, 0
11, 5641, Note_on_c, 9, 43, 0
11, 5641, Note_on_c, 9, 45, 0
11, 5664, Note_on_c, 9, 42, 80
11, 5664, Note_on_c, 9, 39, 64
11, 5665, Note_on_c, 9, 39, 0
11, 5665, Note_on_c, 9, 42, 0
11, 5688, Note_on_c, 9, 35, 112
11, 5688, Note_on_c, 9, 42, 80
11, 5688, Note_on_c, 9, 63, 127
11, 5689, Note_on_c, 9, 35, 0
11, 5689, Note_on_c, 9, 42, 0
11, 5689, Note_on_c, 9, 63, 0
11, 5712, Note_on_c, 9, 42, 48
11, 5712, Note_on_c, 9, 62, 127
11, 5713, Note_on_c, 9, 42, 0
11, 5713, Note_on_c, 9, 62, 0
11, 5736, Note_on_c, 9, 38, 127
11, 5736, Note_on_c, 9, 45, 96
11, 5736, Note_on_c, 9, 42, 80
11, 5736, Note_on_c, 9, 39, 112
11, 5737, Note_on_c, 9, 38, 0
11, 5737, Note_on_c, 9, 39, 0
11, 5737, Note_on_c, 9, 42, 0
11, 5737, Note_on_c, 9, 45, 0
11, 5760, Note_on_c, 9, 35, 112
11, 5760, Note_on_c, 9, 42, 48
11, 5761, Note_on_c, 9, 35, 0
11, 5761, Note_on_c, 9, 42, 0
11, 5784, Note_on_c, 9, 35, 112
11, 5784, Note_on_c, 9, 42, 80
11, 5785, Note_on_c, 9, 35, 0
11, 5785, Note_on_c, 9, 42, 0
11, 5808, Note_on_c, 9, 46, 96
11, 5808, Note_on_c, 9, 43, 127
11, 5808, Note_on_c, 9, 63, 127
11, 5809, Note_on_c, 9, 43, 0
11, 5809, Note_on_c, 9, 46, 0
11, 5809, Note_on_c, 9, 63, 0
11, 5832, Note_on_c, 9, 38, 127
11, 5832, Note_on_c, 9, 45, 96
11, 5832, Note_on_c, 9, 39, 112
11, 5832, Note_on_c, 9, 64, 127
11, 5833, Note_on_c, 9, 38, 0
11, 5833, Note_on_c, 9, 39, 0
11, 5833, Note_on_c, 9, 45, 0
11, 5833, Note_on_c, 9, 64, 0
11, 5856, Note_on_c, 9, 42, 80
11, 5856, Note_on_c, 9, 39, 64
11, 5856, Note_on_c, 9, 64, 127
11, 5857, Note_on_c, 9, 39, 0
11, 5857, Note_on_c, 9, 42, 0
11, 5857, Note_on_c, 9, 64, 0
11, 5880, Note_on_c, 9, 35, 112
11, 5880, Note_on_c, 9, 42, 80
11, 5881, Note_on_c, 9, 35, 0
11, 5881, Note_on_c, 9, 42, 0
11, 5904, Note_on_c, 9, 42, 48
11, 5904, Note_on_c, 9, 62, 127
11, 5905, Note_on_c, 9, 42, 0
11, 5905, Note_on_c, 9, 62, 0
11, 5928, Note_on_c, 9, 38, 127
11, 5928, Note_on_c, 9, 45, 96
11, 5928, Note_on_c, 9, 42, 80
11, 5928, Note_on_c, 9, 39, 112
11, 5929, Note_on_c, 9, 38, 0
11, 5929, Note_on_c, 9, 39, 0
11, 5929, Note_on_c, 9, 42, 0
11, 5929, Note_on_c, 9, 45, 0
11, 5952, Note_on_c, 9, 35, 112
11, 5952, Note_on_c, 9, 42, 48
11, 5953, Note_on_c, 9, 35, 0
11, 5953, Note_on_c, 9, 42, 0
11, 5976, Note_on_c, 9, 35, 112
11, 5976, Note_on_c, 9, 42, 80
11, 5976, Note_on_c, 9, 62, 127
11, 5977, Note_on_c, 9, 35, 0
11, 5977, Note_on_c, 9, 42, 0
11, 5977, Note_on_c, 9, 62, 0
11, 6000, Note_on_c, 9, 46, 96
11, 6000, Note_on_c, 9, 63, 127
11, 6001, Note_on_c, 9, 46, 0
11, 6001, Note_on_c, 9, 63, 0
11, 6024, Note_on_c, 9, 38, 127
11, 6024, Note_on_c, 9, 45, 96
11, 6024, Note_on_c, 9, 43, 127
11, 6024, Note_on_c, 9, 39, 112
11, 6025, Note_on_c, 9, 38, 0
11, 6025, Note_on_c, 9, 39, 0
11, 6025, Note_on_c, 9, 43, 0
11, 6025, Note_on_c, 9, 45, 0
11, 6048, Note_on_c, 9, 42, 80
11, 6048, Note_on_c, 9, 39, 64
11, 6049, Note_on_c, 9, 39, 0
11, 6049, Note_on_c, 9, 42, 0
11, 6072, Note_on_c, 9, 35, 112
11, 6072, Note_on_c, 9, 42, 80
11, 6073, Note_on_c, 9, 35, 0
11, 6073, Note_on_c, 9, 42, 0
11, 6096, Note_on_c, 9, 42, 48
11, 6097, Note_on_c, 9, 42, 0
11, 6120, Note_on_c, 9, 38, 127
11, 6120, Note_on_c, 9, 45, 96
11, 6120, Note_on_c, 9, 42, 80
11, 6121, Note_on_c, 9, 38, 0
11, 6121, Note_on_c, 9, 42, 0
11, 6121, Note_on_c, 9, 45, 0
11, 6144, Note_on_c, 9, 35, 112
11, 6144, Note_on_c, 9, 42, 48
11, 6145, Note_on_c, 9, 35, 0
11, 6145, Note_on_c, 9, 42, 0
11, 6168, Note_on_c, 9, 35, 112
11, 6168, Note_on_c, 9, 42, 80
11, 6169, Note_on_c, 9, 35, 0
11, 6169, Note_on_c, 9, 42, 0
11, 6192, Note_on_c, 9, 42, 48
11, 6192, Note_on_c, 9, 43, 127
11, 6193, Note_on_c, 9, 42, 0
11, 6193, Note_on_c, 9, 43, 0
11, 6204, Note_on_c, 9, 47, 127
11, 6205, Note_on_c, 9, 47, 0
11, 6216, Note_on_c, 9, 38, 127
11, 6216, Note_on_c, 9, 45, 96
11, 6216, Note_on_c, 9, 42, 80
11, 6217, Note_on_c, 9, 38, 0
11, 6217, Note_on_c, 9, 42, 0
11, 6217, Note_on_c, 9, 45, 0
11, 6240, Note_on_c, 9, 38, 112
11, 6240, Note_on_c, 9, 45, 80
11, 6241, Note_on_c, 9, 38, 0
11, 6241, Note_on_c, 9, 45, 0
11, 6264, Note_on_c, 9, 35, 112
11, 6264, Note_on_c, 9, 42, 80
11, 6264, Note_on_c, 9, 49, 96
11, 6265, Note_on_c, 9, 35, 0
11, 6265, Note_on_c, 9, 42, 0
11, 6265, Note_on_c, 9, 49, 0
11, 6288, Note_on_c, 9, 42, 48
11, 6288, Note_on_c, 9, 62, 127
11, 6289, Note_on_c, 9, 42, 0
11, 6289, Note_on_c, 9, 62, 0
11, 6312, Note_on_c, 9, 38, 127
11, 6312, Note_on_c, 9, 45, 96
11, 6312, Note_on_c, 9, 42, 80
11, 6312, Note_on_c, 9, 39, 112
11, 6313, Note_on_c, 9, 38, 0
11, 6313, Note_on_c, 9, 39, 0
11, 6313, Note_on_c, 9, 42, 0
11, 6313, Note_on_c, 9, 45, 0
11, 6336, Note_on_c, 9, 35, 112
11, 6336, Note_on_c, 9, 42, 48
11, 6337, Note_on_c, 9, 35, 0
11, 6337, Note_on_c, 9, 42, 0
11, 6360, Note_on_c, 9, 35, 112
11, 6360, Note_on_c, 9, 42, 80
11, 6360, Note_on_c, 9, 62, 127
11, 6361, Note_on_c, 9, 35, 0
11, 6361, Note_on_c, 9, 42, 0
11, 6361, Note_on_c, 9, 62, 0
11, 6384, Note_on_c, 9, 46, 96
11, 6384, Note_on_c, 9, 63, 127
11, 6385, Note_on_c, 9, 46, 0
11, 6385, Note_on_c, 9, 63, 0
11, 6408, Note_on_c, 9, 38, 127
11, 6408, Note_on_c, 9, 45, 96
11, 6408, Note_on_c, 9, 43, 127
11, 6408, Note_on_c, 9, 39, 112
11, 6409, Note_on_c, 9, 38, 0
11, 6409, Note_on_c, 9, 39, 0
11, 6409, Note_on_c, 9, 43, 0
11, 6409, Note_on_c, 9, 45, 0
11, 6432, Note_on_c, 9, 42, 80
11, 6432, Note_on_c, 9, 39, 64
11, 6433, Note_on_c, 9, 39, 0
11, 6433, Note_on_c, 9, 42, 0
11, 6456, Note_on_c, 9, 35, 112
11, 6456, Note_on_c, 9, 42, 80
11, 6456, Note_on_c, 9, 63, 127
11, 6457, Note_on_c, 9, 35, 0
11, 6457, Note_on_c, 9, 42, 0
11, 6457, Note_on_c, 9, 63, 0
11, 6480, Note_on_c, 9, 42, 48
11, 6480, Note_on_c, 9, 62, 127
11, 6481, Note_on_c, 9, 42, 0
11, 6481, Note_on_c, 9, 62, 0
11, 6504, Note_on_c, 9, 38, 127
11, 6504, Note_on_c, 9, 45, 96
11, 6504, Note_on_c, 9, 42, 80
11, 6504, Note_on_c, 9, 39, 112
11, 6505, Note_on_c, 9, 38, 0
11, 6505, Note_on_c, 9, 39, 0
11, 6505, Note_on_c, 9, 42, 0
11, 6505, Note_on_c, 9, 45, 0
11, 6528, Note_on_c, 9, 35, 112
11, 6528, Note_on_c, 9, 42, 48
11, 6529, Note_on_c, 9, 35, 0
11, 6529, Note_on_c, 9, 42, 0
11, 6552, Note_on_c, 9, 35, 112
11, 6552, Note_on_c, 9, 42, 80
11, 6553, Note_on_c, 9, 35, 0
11, 6553, Note_on_c, 9, 42, 0
11, 6576, Note_on_c, 9, 46, 96
11, 6576, Note_on_c, 9, 43, 127
11, 6576, Note_on_c, 9, 63, 127
11, 6577, Note_on_c, 9, 43, 0
11, 6577, Note_on_c, 9, 46, 0
11, 6577, Note_on_c, 9, 63, 0
11, 6600, Note_on_c, 9, 38, 127
11, 6600, Note_on_c, 9, 45, 96
11, 6600, Note_on_c, 9, 39, 112
11, 6600, Note_on_c, 9, 64, 127
11, 6601, Note_on_c, 9, 38, 0
11, 6601, Note_on_c, 9, 39, 0
11, 6601, Note_on_c, 9, 45, 0
11, 6601, Note_on_c, 9, 64, 0
11, 6624, Note_on_c, 9, 42, 80
11, 6624, Note_on_c, 9, 39, 64
11, 6624, Note_on_c, 9, 64, 127
11, 6625, Note_on_c, 9, 39, 0
11, 6625, Note_on_c, 9, 42, 0
11, 6625, Note_on_c, 9, 64, 0
11, 6648, Note_on_c, 9, 35, 112
11, 6648, Note_on_c, 9, 42, 80
11, 6649, Note_on_c, 9, 35, 0
11, 6649, Note_on_c, 9, 42, 0
11, 6672, Note_on_c, 9, 42, 48
11, 6672, Note_on_c, 9, 62, 127
11, 6673, Note_on_c, 9, 42, 0
11, 6673, Note_on_c, 9, 62, 0
11, 6696, Note_on_c, 9, 38, 127
11, 6696, Note_on_c, 9, 45, 96
11, 6696, Note_on_c, 9, 42, 80
11, 6696, Note_on_c, 9, 39, 112
11, 6697, Note_on_c, 9, 38, 0
11, 6697, Note_on_c, 9, 39, 0
11, 6697, Note_on_c, 9, 42, 0
11, 6697, Note_on_c, 9, 45, 0
11, 6720, Note_on_c, 9, 35, 112
11, 6720, Note_on_c, 9, 42, 48
11, 6721, Note_on_c, 9, 35, 0
11, 6721, Note_on_c, 9, 42, 0
11, 6744, Note_on_c, 9, 35, 112
11, 6744, Note_on_c, 9, 42, 80
11, 6744, Note_on_c, 9, 62, 127
11, 6745, Note_on_c, 9, 35, 0
11, 6745, Note_on_c, 9, 42, 0
11, 6745, Note_on_c, 9, 62, 0
11, 6768, Note_on_c, 9, 46, 96
11, 6768, Note_on_c, 9, 63, 127
11, 6769, Note_on_c, 9, 46, 0
11, 6769, Note_on_c, 9, 63, 0
11, 6792, Note_on_c, 9, 38, 127
11, 6792, Note_on_c, 9, 45, 96
11, 6792, Note_on_c, 9, 43, 127
11, 6792, Note_on_c, 9, 39, 112
11, 6793, Note_on_c, 9, 38, 0
11, 6793, Note_on_c, 9, 39, 0
11, 6793, Note_on_c, 9, 43, 0
11, 6793, Note_on_c, 9, 45, 0
11, 6816, Note_on_c, 9, 42, 80
11, 6816, Note_on_c, 9, 39, 64
11, 6817, Note_on_c, 9, 39, 0
11, 6817, Note_on_c, 9, 42, 0
11, 6840, Note_on_c, 9, 35, 112
11, 6840, Note_on_c, 9, 42, 80
11, 6840, Note_on_c, 9, 63, 127
11, 6841, Note_on_c, 9, 35, 0
11, 6841, Note_on_c, 9, 42, 0
11, 6841, Note_on_c, 9, 63, 0
11, 6864, Note_on_c, 9, 42, 48
11, 6864, Note_on_c, 9, 62, 127
11, 6865, Note_on_c, 9, 42, 0
11, 6865, Note_on_c, 9, 62, 0
11, 6888, Note_on_c, 9, 38, 127
11, 6888, Note_on_c, 9, 45, 96
11, 6888, Note_on_c, 9, 42, 80
11, 6888, Note_on_c, 9, 39, 112
11, 6889, Note_on_c, 9, 38, 0
11, 6889, Note_on_c, 9, 39, 0
11, 6889, Note_on_c, 9, 42, 0
11, 6889, Note_on_c, 9, 45, 0
11, 6912, Note_on_c, 9, 35, 112
11, 6912, Note_on_c, 9, 42, 48
11, 6913, Note_on_c, 9, 35, 0
11, 6913, Note_on_c, 9, 42, 0
11, 6936, Note_on_c, 9, 35, 112
11, 6936, Note_on_c, 9, 42, 80
11, 6937, Note_on_c, 9, 35, 0
11, 6937, Note_on_c, 9, 42, 0
11, 6960, Note_on_c, 9, 46, 96
11, 6960, Note_on_c, 9, 43, 127
11, 6960, Note_on_c, 9, 63, 127
11, 6961, Note_on_c, 9, 43, 0
11, 6961, Note_on_c, 9, 46, 0
11, 6961, Note_on_c, 9, 63, 0
11, 6984, Note_on_c, 9, 38, 127
11, 6984, Note_on_c, 9, 45, 96
11, 6984, Note_on_c, 9, 39, 112
11, 6984, Note_on_c, 9, 64, 127
11, 6985, Note_on_c, 9, 38, 0
11, 6985, Note_on_c, 9, 39, 0
11, 6985, Note_on_c, 9, 45, 0
11, 6985, Note_on_c, 9, 64, 0
11, 7008, Note_on_c, 9, 42, 80
11, 7008, Note_on_c, 9, 39, 64
11, 7008, Note_on_c, 9, 64, 127
11, 7009, Note_on_c, 9, 39, 0
11, 7009, Note_on_c, 9, 42, 0
11, 7009, Note_on_c, 9, 64, 0
11, 7032, Note_on_c, 9, 35, 112
11, 7032, Note_on_c, 9, 42, 80
11, 7033, Note_on_c, 9, 35, 0
11, 7033, Note_on_c, 9, 42, 0
11, 7056, Note_on_c, 9, 42, 48
11, 7056, Note_on_c, 9, 62, 127
11, 7057, Note_on_c, 9, 42, 0
11, 7057, Note_on_c, 9, 62, 0
11, 7080, Note_on_c, 9, 38, 127
11, 7080, Note_on_c, 9, 45, 96
11, 7080, Note_on_c, 9, 42, 80
11, 7080, Note_on_c, 9, 39, 112
11, 7081, Note_on_c, 9, 38, 0
11, 7081, Note_on_c, 9, 39, 0
11, 7081, Note_on_c, 9, 42, 0
11, 7081, Note_on_c, 9, 45, 0
11, 7104, Note_on_c, 9, 35, 112
11, 7104, Note_on_c, 9, 42, 48
11, 7105, Note_on_c, 9, 35, 0
11, 7105, Note_on_c, 9, 42, 0
11, 7128, Note_on_c, 9, 35, 112
11, 7128, Note_on_c, 9, 42, 80
11, 7128, Note_on_c, 9, 62, 127
11, 7129, Note_on_c, 9, 35, 0
11, 7129, Note_on_c, 9, 42, 0
11, 7129, Note_on_c, 9, 62, 0
11, 7152, Note_on_c, 9, 46, 96
11, 7152, Note_on_c, 9, 63, 127
11, 7153, Note_on_c, 9, 46, 0
11, 7153, Note_on_c, 9, 63, 0
11, 7176, Note_on_c, 9, 38, 127
11, 7176, Note_on_c, 9, 45, 96
11, 7176, Note_on_c, 9, 43, 127
11, 7176, Note_on_c, 9, 39, 112
11, 7177, Note_on_c, 9, 38, 0
11, 7177, Note_on_c, 9, 39, 0
11, 7177, Note_on_c, 9, 43, 0
11, 7177, Note_on_c, 9, 45, 0
11, 7200, Note_on_c, 9, 42, 80
11, 7200, Note_on_c, 9, 39, 64
11, 7201, Note_on_c, 9, 39, 0
11, 7201, Note_on_c, 9, 42, 0
11, 7224, Note_on_c, 9, 35, 112
11, 7224, Note_on_c, 9, 42, 80
11, 7224, Note_on_c, 9, 63, 127
11, 7225, Note_on_c, 9, 35, 0
11, 7225, Note_on_c, 9, 42, 0
11, 7225, Note_on_c, 9, 63, 0
11, 7248, Note_on_c, 9, 42, 48
11, 7248, Note_on_c, 9, 62, 127
11, 7249, Note_on_c, 9, 42, 0
11, 7249, Note_on_c, 9, 62, 0
11, 7272, Note_on_c, 9, 38, 127
11, 7272, Note_on_c, 9, 45, 96
11, 7272, Note_on_c, 9, 42, 80
11, 7272, Note_on_c, 9, 39, 112
11, 7273, Note_on_c, 9, 38, 0
11, 7273, Note_on_c, 9, 39, 0
11, 7273, Note_on_c, 9, 42, 0
11, 7273, Note_on_c, 9, 45, 0
11, 7296, Note_on_c, 9, 35, 112
11, 7296, Note_on_c, 9, 42, 48
11, 7297, Note_on_c, 9, 35, 0
11, 7297, Note_on_c, 9, 42, 0
11, 7320, Note_on_c, 9, 35, 112
11, 7320, Note_on_c, 9, 42, 80
11, 7321, Note_on_c, 9, 35, 0
11, 7321, Note_on_c, 9, 42, 0
11, 7344, Note_on_c, 9, 46, 96
11, 7344, Note_on_c, 9, 43, 127
11, 7344, Note_on_c, 9, 63, 127
11, 7345, Note_on_c, 9, 43, 0
11, 7345, Note_on_c, 9, 46, 0
11, 7345, Note_on_c, 9, 63, 0
11, 7368, Note_on_c, 9, 38, 127
11, 7368, Note_on_c, 9, 45, 96
11, 7368, Note_on_c, 9, 39, 112
11, 7368, Note_on_c, 9, 64, 127
11, 7369, Note_on_c, 9, 38, 0
11, 7369, Note_on_c, 9, 39, 0
11, 7369, Note_on_c, 9, 45, 0
11, 7369, Note_on_c, 9, 64, 0
11, 7392, Note_on_c, 9, 42, 80
11, 7392, Note_on_c, 9, 39, 64
11, 7392, Note_on_c, 9, 64, 127
11, 7393, Note_on_c, 9, 39, 0
11, 7393, Note_on_c, 9, 42, 0
11, 7393, Note_on_c, 9, 64, 0
11, 7416, Note_on_c, 9, 35, 112
11, 7416, Note_on_c, 9, 42, 80
11, 7417, Note_on_c, 9, 35, 0
11, 7417, Note_on_c, 9, 42, 0
11, 7440, Note_on_c, 9, 42, 48
11, 7441, Note_on_c, 9, 42, 0
11, 7464, Note_on_c, 9, 38, 127
11, 7464, Note_on_c, 9, 45, 96
11, 7464, Note_on_c, 9, 42, 80
11, 7465, Note_on_c, 9, 38, 0
11, 7465, Note_on_c, 9, 42, 0
11, 7465, Note_on_c, 9, 45, 0
11, 7488, Note_on_c, 9, 35, 112
11, 7488, Note_on_c, 9, 42, 48
11, 7489, Note_on_c, 9, 35, 0
11, 7489, Note_on_c, 9, 42, 0
11, 7512, Note_on_c, 9, 35, 112
11, 7512, Note_on_c, 9, 42, 80
11, 7513, Note_on_c, 9, 35, 0
11, 7513, Note_on_c, 9, 42, 0
11, 7536, Note_on_c, 9, 42, 48
11, 7537, Note_on_c, 9, 42, 0
11, 7548, Note_on_c, 9, 38, 112
11, 7548, Note_on_c, 9, 45, 80
11, 7549, Note_on_c, 9, 38, 0
11, 7549, Note_on_c, 9, 45, 0
11, 7560, Note_on_c, 9, 38, 127
11, 7560, Note_on_c, 9, 45, 96
11, 7560, Note_on_c, 9, 42, 80
11, 7561, Note_on_c, 9, 38, 0
11, 7561, Note_on_c, 9, 42, 0
11, 7561, Note_on_c, 9, 45, 0
11, 7584, Note_on_c, 9, 38, 112
11, 7584, Note_on_c, 9, 52, 112
11, 7585, Note_on_c, 9, 38, 0
11, 7585, Note_on_c, 9, 52, 0
11, 7608, Note_on_c, 9, 35, 112
11, 7608, Note_on_c, 9, 42, 80
11, 7608, Note_on_c, 9, 49, 96
11, 7609, Note_on_c, 9, 35, 0
11, 7609, Note_on_c, 9, 42, 0
11, 7609, Note_on_c, 9, 49, 0
11, 7632, Note_on_c, 9, 42, 48
11, 7632, Note_on_c, 9, 62, 127
11, 7633, Note_on_c, 9, 42, 0
11, 7633, Note_on_c, 9, 62, 0
11, 7656, Note_on_c, 9, 38, 127
11, 7656, Note_on_c, 9, 45, 96
11, 7656, Note_on_c, 9, 42, 80
11, 7656, Note_on_c, 9, 39, 112
11, 7657, Note_on_c, 9, 38, 0
11, 7657, Note_on_c, 9, 39, 0
11, 7657, Note_on_c, 9, 42, 0
11, 7657, Note_on_c, 9, 45, 0
11, 7680, Note_on_c, 9, 35, 112
11, 7680, Note_on_c, 9, 42, 48
11, 7681, Note_on_c, 9, 35, 0
11, 7681, Note_on_c, 9, 42, 0
11, 7704, Note_on_c, 9, 35, 112
11, 7704, Note_on_c, 9, 42, 80
11, 7704, Note_on_c, 9, 62, 127
11, 7705, Note_on_c, 9, 35, 0
11, 7705, Note_on_c, 9, 42, 0
11, 7705, Note_on_c, 9, 62, 0
11, 7728, Note_on_c, 9, 46, 96
11, 7728, Note_on_c, 9, 63, 127
11, 7729, Note_on_c, 9, 46, 0
11, 7729, Note_on_c, 9, 63, 0
11, 7752, Note_on_c, 9, 38, 127
11, 7752, Note_on_c, 9, 45, 96
11, 7752, Note_on_c, 9, 43, 127
11, 7752, Note_on_c, 9, 39, 112
11, 7753, Note_on_c, 9, 38, 0
11, 7753, Note_on_c, 9, 39, 0
11, 7753, Note_on_c, 9, 43, 0
11, 7753, Note_on_c, 9, 45, 0
11, 7776, Note_on_c, 9, 42, 80
11, 7776, Note_on_c, 9, 39, 64
11, 7777, Note_on_c, 9, 39, 0
11, 7777, Note_on_c, 9, 42, 0
11, 7800, Note_on_c, 9, 35, 112
11, 7800, Note_on_c, 9, 42, 80
11, 7800, Note_on_c, 9, 63, 127
11, 7801, Note_on_c, 9, 35, 0
11, 7801, Note_on_c, 9, 42, 0
11, 7801, Note_on_c, 9, 63, 0
11, 7824, Note_on_c, 9, 42, 48
11, 7824, Note_on_c, 9, 62, 127
11, 7825, Note_on_c, 9, 42, 0
11, 7825, Note_on_c, 9, 62, 0
11, 7848, Note_on_c, 9, 38, 127
11, 7848, Note_on_c, 9, 45, 96
11, 7848, Note_on_c, 9, 42, 80
11, 7848, Note_on_c, 9, 39, 112
11, 7849, Note_on_c, 9, 38, 0
11, 7849, Note_on_c, 9, 39, 0
11, 7849, Note_on_c, 9, 42, 0
11, 7849, Note_on_c, 9, 45, 0
11, 7872, Note_on_c, 9, 35, 112
11, 7872, Note_on_c, 9, 42, 48
11, 7873, Note_on_c, 9, 35, 0
11, 7873, Note_on_c, 9, 42, 0
11, 7896, Note_on_c, 9, 35, 112
11, 7896, Note_on_c, 9, 42, 80
11, 7897, Note_on_c, 9, 35, 0
11, 7897, Note_on_c, 9, 42, 0
11, 7920, Note_on_c, 9, 46, 96
11, 7920, Note_on_c, 9, 43, 127
11, 7920, Note_on_c, 9, 63, 127
11, 7921, Note_on_c, 9, 43, 0
11, 7921, Note_on_c, 9, 46, 0
11, 7921, Note_on_c, 9, 63, 0
11, 7944, Note_on_c, 9, 38, 127
11, 7944, Note_on_c, 9, 45, 96
11, 7944, Note_on_c, 9, 39, 112
11, 7944, Note_on_c, 9, 64, 127
11, 7945, Note_on_c, 9, 38, 0
11, 7945, Note_on_c, 9, 39, 0
11, 7945, Note_on_c, 9, 45, 0
11, 7945, Note_on_c, 9, 64, 0
11, 7968, Note_on_c, 9, 42, 80
11, 7968, Note_on_c, 9, 39, 64
11, 7968, Note_on_c, 9, 64, 127
11, 7969, Note_on_c, 9, 39, 0
11, 7969, Note_on_c, 9, 42, 0
11, 7969, Note_on_c, 9, 64, 0
11, 7992, Note_on_c, 9, 35, 112
11, 7992, Note_on_c, 9, 42, 80
11, 7993, Note_on_c, 9, 35, 0
11, 7993, Note_on_c, 9, 42, 0
11, 8016, Note_on_c, 9, 42, 48
11, 8016, Note_on_c, 9, 62, 127
11, 8017, Note_on_c, 9, 42, 0
11, 8017, Note_on_c, 9, 62, 0
11, 8040, Note_on_c, 9, 38, 127
11, 8040, Note_on_c, 9, 45, 96
11, 8040, Note_on_c, 9, 42, 80
11, 8040, Note_on_c, 9, 39, 112
11, 8041, Note_on_c, 9, 38, 0
11, 8041, Note_on_c, 9, 39, 0
11, 8041, Note_on_c, 9, 42, 0
11, 8041, Note_on_c, 9, 45, 0
11, 8064, Note_on_c, 9, 35, 112
11, 8064, Note_on_c, 9, 42, 48
11, 8065, Note_on_c, 9, 35, 0
11, 8065, Note_on_c, 9, 42, 0
11, 8088, Note_on_c, 9, 35, 112
11, 8088, Note_on_c, 9, 42, 80
11, 8088, Note_on_c, 9, 62, 127
11, 8089, Note_on_c, 9, 35, 0
11, 8089, Note_on_c, 9, 42, 0
11, 8089, Note_on_c, 9, 62, 0
11, 8112, Note_on_c, 9, 46, 96
11, 8112, Note_on_c, 9, 63, 127
11, 8113, Note_on_c, 9, 46, 0
11, 8113, Note_on_c, 9, 63, 0
11, 8136, Note_on_c, 9, 38, 127
11, 8136, Note_on_c, 9, 45, 96
11, 8136, Note_on_c, 9, 43, 127
11, 8136, Note_on_c, 9, 39, 112
11, 8137, Note_on_c, 9, 38, 0
11, 8137, Note_on_c, 9, 39, 0
11, 8137, Note_on_c, 9, 43, 0
11, 8137, Note_on_c, 9, 45, 0
11, 8160, Note_on_c, 9, 42, 80
11, 8160, Note_on_c, 9, 39, 64
11, 8161, Note_on_c, 9, 39, 0
11, 8161, Note_on_c, 9, 42, 0
11, 8184, Note_on_c, 9, 35, 112
11, 8184, Note_on_c, 9, 42, 80
11, 8185, Note_on_c, 9, 35, 0
11, 8185, Note_on_c, 9, 42, 0
11, 8208, Note_on_c, 9, 42, 48
11, 8209, Note_on_c, 9, 42, 0
11, 8232, Note_on_c, 9, 38, 127
11, 8232, Note_on_c, 9, 45, 96
11, 8232, Note_on_c, 9, 42, 80
11, 8232, Note_on_c, 9, 39, 112
11, 8233, Note_on_c, 9, 38, 0
11, 8233, Note_on_c, 9, 39, 0
11, 8233, Note_on_c, 9, 42, 0
11, 8233, Note_on_c, 9, 45, 0
11, 8256, Note_on_c, 9, 35, 112
11, 8256, Note_on_c, 9, 42, 48
11, 8257, Note_on_c, 9, 35, 0
11, 8257, Note_on_c, 9, 42, 0
11, 8280, Note_on_c, 9, 35, 112
11, 8280, Note_on_c, 9, 42, 80
11, 8281, Note_on_c, 9, 35, 0
11, 8281, Note_on_c, 9, 42, 0
11, 8304, Note_on_c, 9, 38, 96
11, 8304, Note_on_c, 9, 45, 64
11, 8305, Note_on_c, 9, 38, 0
11, 8305, Note_on_c, 9, 45, 0
11, 8316, Note_on_c, 9, 38, 112
11, 8316, Note_on_c, 9, 45, 80
11, 8317, Note_on_c, 9, 38, 0
11, 8317, Note_on_c, 9, 45, 0
11, 8328, Note_on_c, 9, 38, 127
11, 8328, Note_on_c, 9, 45, 96
11, 8328, Note_on_c, 9, 46, 96
11, 8329, Note_on_c, 9, 38, 0
11, 8329, Note_on_c, 9, 45, 0
11, 8329, Note_on_c, 9, 46, 0
11, 8352, Note_on_c, 9, 38, 127
11, 8352, Note_on_c, 9, 45, 96
11, 8352, Note_on_c, 9, 42, 80
11, 8352, Note_on_c, 9, 46, 96
11, 8353, Note_on_c, 9, 38, 0
11, 8353, Note_on_c, 9, 42, 0
11, 8353, Note_on_c, 9, 45, 0
11, 8353, Note_on_c, 9, 46, 0
11, 8376, Note_on_c, 9, 35, 112
11, 8376, Note_on_c, 9, 42, 80
11, 8376, Note_on_c, 9, 49, 96
11, 8377, Note_on_c, 9, 35, 0
11, 8377, Note_on_c, 9, 42, 0
11, 8377, Note_on_c, 9, 49, 0
11, 8400, Note_on_c, 9, 42, 48
11, 8401, Note_on_c, 9, 42, 0
11, 8424, Note_on_c, 9, 38, 127
11, 8424, Note_on_c, 9, 45, 96
11, 8424, Note_on_c, 9, 42, 80
11, 8425, Note_on_c, 9, 38, 0
11, 8425, Note_on_c, 9, 42, 0
11, 8425, Note_on_c, 9, 45, 0
11, 8448, Note_on_c, 9, 35, 112
11, 8448, Note_on_c, 9, 42, 48
11, 8449, Note_on_c, 9, 35, 0
11, 8449, Note_on_c, 9, 42, 0
11, 8472, Note_on_c, 9, 35, 112
11, 8472, Note_on_c, 9, 42, 80
11, 8473, Note_on_c, 9, 35, 0
11, 8473, Note_on_c, 9, 42, 0
11, 8496, Note_on_c, 9, 42, 48
11, 8496, Note_on_c, 9, 46, 96
11, 8497, Note_on_c, 9, 42, 0
11, 8497, Note_on_c, 9, 46, 0
11, 8520, Note_on_c, 9, 38, 127
11, 8520, Note_on_c, 9, 45, 96
11, 8520, Note_on_c, 9, 42, 80
11, 8521, Note_on_c, 9, 38, 0
11, 8521, Note_on_c, 9, 42, 0
11, 8521, Note_on_c, 9, 45, 0
11, 8544, Note_on_c, 9, 42, 48
11, 8545, Note_on_c, 9, 42, 0
11, 8568, Note_on_c, 9, 35, 112
11, 8568, Note_on_c, 9, 42, 80
11, 8569, Note_on_c, 9, 35, 0
11, 8569, Note_on_c, 9, 42, 0
11, 8592, Note_on_c, 9, 42, 48
11, 8593, Note_on_c, 9, 42, 0
11, 8616, Note_on_c, 9, 38, 127
11, 8616, Note_on_c, 9, 45, 96
11, 8616, Note_on_c, 9, 42, 80
11, 8617, Note_on_c, 9, 38, 0
11, 8617, Note_on_c, 9, 42, 0
11, 8617, Note_on_c, 9, 45, 0
11, 8640, Note_on_c, 9, 35, 112
11, 8640, Note_on_c, 9, 42, 48
11, 8641, Note_on_c, 9, 35, 0
11, 8641, Note_on_c, 9, 42, 0
11, 8664, Note_on_c, 9, 35, 112
11, 8664, Note_on_c, 9, 42, 80
11, 8665, Note_on_c, 9, 35, 0
11, 8665, Note_on_c, 9, 42, 0
11, 8688, Note_on_c, 9, 42, 48
11, 8688, Note_on_c, 9, 46, 96
11, 8689, Note_on_c, 9, 42, 0
11, 8689, Note_on_c, 9, 46, 0
11, 8712, Note_on_c, 9, 38, 127
11, 8712, Note_on_c, 9, 45, 96
11, 8712, Note_on_c, 9, 42, 80
11, 8713, Note_on_c, 9, 38, 0
11, 8713, Note_on_c, 9, 42, 0
11, 8713, Note_on_c, 9, 45, 0
11, 8736, Note_on_c, 9, 42, 48
11, 8737, Note_on_c, 9, 42, 0
11, 8760, Note_on_c, 9, 35, 112
11, 8760, Note_on_c, 9, 42, 80
11, 8761, Note_on_c, 9, 35, 0
11, 8761, Note_on_c, 9, 42, 0
11, 8784, Note_on_c, 9, 42, 48
11, 8785, Note_on_c, 9, 42, 0
11, 8808, Note_on_c, 9, 38, 127
11, 8808, Note_on_c, 9, 45, 96
11, 8808, Note_on_c, 9, 42, 80
11, 8809, Note_on_c, 9, 38, 0
11, 8809, Note_on_c, 9, 42, 0
11, 8809, Note_on_c, 9, 45, 0
11, 8832, Note_on_c, 9, 35, 112
11, 8832, Note_on_c, 9, 42, 48
11, 8833, Note_on_c, 9, 35, 0
11, 8833, Note_on_c, 9, 42, 0
11, 8856, Note_on_c, 9, 35, 112
11, 8856, Note_on_c, 9, 42, 80
11, 8857, Note_on_c, 9, 35, 0
11, 8857, Note_on_c, 9, 42, 0
11, 8880, Note_on_c, 9, 42, 48
11, 8880, Note_on_c, 9, 46, 96
11, 8881, Note_on_c, 9, 42, 0
11, 8881, Note_on_c, 9, 46, 0
11, 8904, Note_on_c, 9, 38, 127
11, 8904, Note_on_c, 9, 45, 96
11, 8904, Note_on_c, 9, 42, 80
11, 8905, Note_on_c, 9, 38, 0
11, 8905, Note_on_c, 9, 42, 0
11, 8905, Note_on_c, 9, 45, 0
11, 8928, Note_on_c, 9, 42, 48
11, 8929, Note_on_c, 9, 42, 0
11, 8952, Note_on_c, 9, 35, 112
11, 8952, Note_on_c, 9, 42, 80
11, 8953, Note_on_c, 9, 35, 0
11, 8953, Note_on_c, 9, 42, 0
11, 8976, Note_on_c, 9, 42, 48
11, 8977, Note_on_c, 9, 42, 0
11, 9000, Note_on_c, 9, 38, 127
11, 9000, Note_on_c, 9, 45, 96
11, 9000, Note_on_c, 9, 42, 80
11, 9001, Note_on_c, 9, 38, 0
11, 9001, Note_on_c, 9, 42, 0
11, 9001, Note_on_c, 9, 45, 0
11, 9024, Note_on_c, 9, 35, 112
11, 9024, Note_on_c, 9, 42, 48
11, 9025, Note_on_c, 9, 35, 0
11, 9025, Note_on_c, 9, 42, 0
11, 9048, Note_on_c, 9, 35, 112
11, 9048, Note_on_c, 9, 42, 80
11, 9049, Note_on_c, 9, 35, 0
11, 9049, Note_on_c, 9, 42, 0
11, 9072, Note_on_c, 9, 42, 48
11, 9072, Note_on_c, 9, 46, 96
11, 9073, Note_on_c, 9, 42, 0
11, 9073, Note_on_c, 9, 46, 0
11, 9096, Note_on_c, 9, 38, 127
11, 9096, Note_on_c, 9, 45, 96
11, 9096, Note_on_c, 9, 42, 80
11, 9097, Note_on_c, 9, 38, 0
11, 9097, Note_on_c, 9, 42, 0
11, 9097, Note_on_c, 9, 45, 0
11, 9120, Note_on_c, 9, 42, 48
11, 9121, Note_on_c, 9, 42, 0
11, 9144, Note_on_c, 9, 35, 112
11, 9144, Note_on_c, 9, 42, 80
11, 9145, Note_on_c, 9, 35, 0
11, 9145, Note_on_c, 9, 42, 0
11, 9168, Note_on_c, 9, 42, 48
11, 9169, Note_on_c, 9, 42, 0
11, 9192, Note_on_c, 9, 38, 127
11, 9192, Note_on_c, 9, 45, 96
11, 9192, Note_on_c, 9, 42, 80
11, 9193, Note_on_c, 9, 38, 0
11, 9193, Note_on_c, 9, 42, 0
11, 9193, Note_on_c, 9, 45, 0
11, 9216, Note_on_c, 9, 35, 112
11, 9216, Note_on_c, 9, 42, 48
11, 9217, Note_on_c, 9, 35, 0
11, 9217, Note_on_c, 9, 42, 0
11, 9240, Note_on_c, 9, 35, 112
11, 9240, Note_on_c, 9, 42, 80
11, 9241, Note_on_c, 9, 35, 0
11, 9241, Note_on_c, 9, 42, 0
11, 9264, Note_on_c, 9, 42, 48
11, 9264, Note_on_c, 9, 46, 96
11, 9265, Note_on_c, 9, 42, 0
11, 9265, Note_on_c, 9, 46, 0
11, 9288, Note_on_c, 9, 38, 127
11, 9288, Note_on_c, 9, 45, 96
11, 9288, Note_on_c, 9, 42, 80
11, 9289, Note_on_c, 9, 38, 0
11, 9289, Note_on_c, 9, 42, 0
11, 9289, Note_on_c, 9, 45, 0
11, 9312, Note_on_c, 9, 42, 48
11, 9313, Note_on_c, 9, 42, 0
11, 9336, Note_on_c, 9, 35, 112
11, 9336, Note_on_c, 9, 42, 80
11, 9337, Note_on_c, 9, 35, 0
11, 9337, Note_on_c, 9, 42, 0
11, 9360, Note_on_c, 9, 42, 48
11, 9361, Note_on_c, 9, 42, 0
11, 9384, Note_on_c, 9, 38, 127
11, 9384, Note_on_c, 9, 45, 96
11, 9384, Note_on_c, 9, 42, 80
11, 9385, Note_on_c, 9, 38, 0
11, 9385, Note_on_c, 9, 42, 0
11, 9385, Note_on_c, 9, 45, 0
11, 9408, Note_on_c, 9, 35, 112
11, 9408, Note_on_c, 9, 42, 48
11, 9409, Note_on_c, 9, 35, 0
11, 9409, Note_on_c, 9, 42, 0
11, 9432, Note_on_c, 9, 35, 112
11, 9432, Note_on_c, 9, 42, 80
11, 9433, Note_on_c, 9, 35, 0
11, 9433, Note_on_c, 9, 42, 0
11, 9456, Note_on_c, 9, 42, 48
11, 9456, Note_on_c, 9, 46, 96
11, 9457, Note_on_c, 9, 42, 0
11, 9457, Note_on_c, 9, 46, 0
11, 9480, Note_on_c, 9, 38, 127
11, 9480, Note_on_c, 9, 45, 96
11, 9480, Note_on_c, 9, 42, 80
11, 9481, Note_on_c, 9, 38, 0
11, 9481, Note_on_c, 9, 42, 0
11, 9481, Note_on_c, 9, 45, 0
11, 9504, Note_on_c, 9, 42, 48
11, 9505, Note_on_c, 9, 42, 0
11, 9528, Note_on_c, 9, 35, 112
11, 9528, Note_on_c, 9, 42, 80
11, 9529, Note_on_c, 9, 35, 0
11, 9529, Note_on_c, 9, 42, 0
11, 9552, Note_on_c, 9, 42, 48
11, 9553, Note_on_c, 9, 42, 0
11, 9576, Note_on_c, 9, 38, 127
11, 9576, Note_on_c, 9, 45, 96
11, 9576, Note_on_c, 9, 42, 80
11, 9577, Note_on_c, 9, 38, 0
11, 9577, Note_on_c, 9, 42, 0
11, 9577, Note_on_c, 9, 45, 0
11, 9600, Note_on_c, 9, 35, 112
11, 9600, Note_on_c, 9, 42, 48
11, 9601, Note_on_c, 9, 35, 0
11, 9601, Note_on_c, 9, 42, 0
11, 9624, Note_on_c, 9, 35, 112
11, 9624, Note_on_c, 9, 42, 80
11, 9625, Note_on_c, 9, 35, 0
11, 9625, Note_on_c, 9, 42, 0
11, 9648, Note_on_c, 9, 42, 48
11, 9648, Note_on_c, 9, 46, 96
11, 9649, Note_on_c, 9, 42, 0
11, 9649, Note_on_c, 9, 46, 0
11, 9672, Note_on_c, 9, 38, 127
11, 9672, Note_on_c, 9, 45, 96
11, 9672, Note_on_c, 9, 42, 80
11, 9673, Note_on_c, 9, 38, 0
11, 9673, Note_on_c, 9, 42, 0
11, 9673, Note_on_c, 9, 45, 0
11, 9696, Note_on_c, 9, 42, 48
11, 9697, Note_on_c, 9, 42, 0
11, 9720, Note_on_c, 9, 35, 112
11, 9720, Note_on_c, 9, 42, 80
11, 9721, Note_on_c, 9, 35, 0
11, 9721, Note_on_c, 9, 42, 0
11, 9744, Note_on_c, 9, 42, 48
11, 9745, Note_on_c, 9, 42, 0
11, 9768, Note_on_c, 9, 38, 127
11, 9768, Note_on_c, 9, 45, 96
11, 9768, Note_on_c, 9, 42, 80
11, 9769, Note_on_c, 9, 38, 0
11, 9769, Note_on_c, 9, 42, 0
11, 9769, Note_on_c, 9, 45, 0
11, 9792, Note_on_c, 9, 35, 112
11, 9792, Note_on_c, 9, 42, 48
11, 9793, Note_on_c, 9, 35, 0
11, 9793, Note_on_c, 9, 42, 0
11, 9816, Note_on_c, 9, 35, 112
11, 9816, Note_on_c, 9, 42, 80
11, 9817, Note_on_c, 9, 35, 0
11, 9817, Note_on_c, 9, 42, 0
11, 9840, Note_on_c, 9, 42, 48
11, 9840, Note_on_c, 9, 46, 96
11, 9841, Note_on_c, 9, 42, 0
11, 9841, Note_on_c, 9, 46, 0
11, 9864, Note_on_c, 9, 38, 127
11, 9864, Note_on_c, 9, 45, 96
11, 9864, Note_on_c, 9, 42, 80
11, 9865, Note_on_c, 9, 38, 0
11, 9865, Note_on_c, 9, 42, 0
11, 9865, Note_on_c, 9, 45, 0
11, 9888, Note_on_c, 9, 38, 112
11, 9888, Note_on_c, 9, 45, 80
11, 9888, Note_on_c, 9, 46, 96
11, 9889, Note_on_c, 9, 38, 0
11, 9889, Note_on_c, 9, 45, 0
11, 9889, Note_on_c, 9, 46, 0
11, 9912, Note_on_c, 9, 35, 112
11, 9912, Note_on_c, 9, 42, 80
11, 9913, Note_on_c, 9, 35, 0
11, 9913, Note_on_c, 9, 42, 0
11, 9936, Note_on_c, 9, 42, 48
11, 9937, Note_on_c, 9, 42, 0
11, 9960, Note_on_c, 9, 38, 127
11, 9960, Note_on_c, 9, 45, 96
11, 9960, Note_on_c, 9, 42, 80
11, 9961, Note_on_c, 9, 38, 0
11, 9961, Note_on_c, 9, 42, 0
11, 9961, Note_on_c, 9, 45, 0
11, 9984, Note_on_c, 9, 35, 112
11, 9984, Note_on_c, 9, 42, 48
11, 9985, Note_on_c, 9, 35, 0
11, 9985, Note_on_c, 9, 42, 0
11, 10008, Note_on_c, 9, 35, 112
11, 10008, Note_on_c, 9, 42, 80
11, 10009, Note_on_c, 9, 35, 0
11, 10009, Note_on_c, 9, 42, 0
11, 10032, Note_on_c, 9, 42, 48
11, 10032, Note_on_c, 9, 46, 96
11, 10033, Note_on_c, 9, 42, 0
11, 10033, Note_on_c, 9, 46, 0
11, 10056, Note_on_c, 9, 38, 127
11, 10056, Note_on_c, 9, 45, 96
11, 10056, Note_on_c, 9, 42, 80
11, 10057, Note_on_c, 9, 38, 0
11, 10057, Note_on_c, 9, 42, 0
11, 10057, Note_on_c, 9, 45, 0
11, 10080, Note_on_c, 9, 42, 48
11, 10081, Note_on_c, 9, 42, 0
11, 10104, Note_on_c, 9, 35, 112
11, 10104, Note_on_c, 9, 42, 80
11, 10105, Note_on_c, 9, 35, 0
11, 10105, Note_on_c, 9, 42, 0
11, 10128, Note_on_c, 9, 42, 48
11, 10129, Note_on_c, 9, 42, 0
11, 10152, Note_on_c, 9, 38, 127
11, 10152, Note_on_c, 9, 45, 96
11, 10152, Note_on_c, 9, 42, 80
11, 10153, Note_on_c, 9, 38, 0
11, 10153, Note_on_c, 9, 42, 0
11, 10153, Note_on_c, 9, 45, 0
11, 10176, Note_on_c, 9, 35, 112
11, 10176, Note_on_c, 9, 42, 48
11, 10177, Note_on_c, 9, 35, 0
11, 10177, Note_on_c, 9, 42, 0
11, 10200, Note_on_c, 9, 35, 112
11, 10200, Note_on_c, 9, 42, 80
11, 10201, Note_on_c, 9, 35, 0
11, 10201, Note_on_c, 9, 42, 0
11, 10224, Note_on_c, 9, 42, 48
11, 10224, Note_on_c, 9, 46, 96
11, 10225, Note_on_c, 9, 42, 0
11, 10225, Note_on_c, 9, 46, 0
11, 10248, Note_on_c, 9, 38, 127
11, 10248, Note_on_c, 9, 45, 96
11, 10248, Note_on_c, 9, 42, 80
11, 10249, Note_on_c, 9, 38, 0
11, 10249, Note_on_c, 9, 42, 0
11, 10249, Note_on_c, 9, 45, 0
11, 10272, Note_on_c, 9, 42, 48
11, 10273, Note_on_c, 9, 42, 0
11, 10296, Note_on_c, 9, 35, 112
11, 10296, Note_on_c, 9, 42, 80
11, 10297, Note_on_c, 9, 35, 0
11, 10297, Note_on_c, 9, 42, 0
11, 10320, Note_on_c, 9, 42, 48
11, 10321, Note_on_c, 9, 42, 0
11, 10344, Note_on_c, 9, 38, 127
11, 10344, Note_on_c, 9, 45, 96
11, 10344, Note_on_c, 9, 42, 80
11, 10345, Note_on_c, 9, 38, 0
11, 10345, Note_on_c, 9, 42, 0
11, 10345, Note_on_c, 9, 45, 0
11, 10368, Note_on_c, 9, 35, 112
11, 10368, Note_on_c, 9, 42, 48
11, 10369, Note_on_c, 9, 35, 0
11, 10369, Note_on_c, 9, 42, 0
11, 10392, Note_on_c, 9, 35, 112
11, 10392, Note_on_c, 9, 42, 80
11, 10393, Note_on_c, 9, 35, 0
11, 10393, Note_on_c, 9, 42, 0
11, 10416, Note_on_c, 9, 42, 48
11, 10416, Note_on_c, 9, 46, 96
11, 10417, Note_on_c, 9, 42, 0
11, 10417, Note_on_c, 9, 46, 0
11, 10440, Note_on_c, 9, 38, 127
11, 10440, Note_on_c, 9, 45, 96
11, 10440, Note_on_c, 9, 42, 80
11, 10441, Note_on_c, 9, 38, 0
11, 10441, Note_on_c, 9, 42, 0
11, 10441, Note_on_c, 9, 45, 0
11, 10464, Note_on_c, 9, 42, 48
11, 10465, Note_on_c, 9, 42, 0
11, 10488, Note_on_c, 9, 35, 112
11, 10488, Note_on_c, 9, 42, 80
11, 10489, Note_on_c, 9, 35, 0
11, 10489, Note_on_c, 9, 42, 0
11, 10512, Note_on_c, 9, 42, 48
11, 10513, Note_on_c, 9, 42, 0
11, 10536, Note_on_c, 9, 38, 127
11, 10536, Note_on_c, 9, 45, 96
11, 10536, Note_on_c, 9, 42, 80
11, 10537, Note_on_c, 9, 38, 0
11, 10537, Note_on_c, 9, 42, 0
11, 10537, Note_on_c, 9, 45, 0
11, 10560, Note_on_c, 9, 35, 112
11, 10560, Note_on_c, 9, 42, 48
11, 10561, Note_on_c, 9, 35, 0
11, 10561, Note_on_c, 9, 42, 0
11, 10584, Note_on_c, 9, 35, 112
11, 10584, Note_on_c, 9, 42, 80
11, 10585, Note_on_c, 9, 35, 0
11, 10585, Note_on_c, 9, 42, 0
11, 10608, Note_on_c, 9, 42, 48
11, 10608, Note_on_c, 9, 46, 96
11, 10609, Note_on_c, 9, 42, 0
11, 10609, Note_on_c, 9, 46, 0
11, 10632, Note_on_c, 9, 38, 127
11, 10632, Note_on_c, 9, 45, 96
11, 10632, Note_on_c, 9, 42, 80
11, 10633, Note_on_c, 9, 38, 0
11, 10633, Note_on_c, 9, 42, 0
11, 10633, Note_on_c, 9, 45, 0
11, 10656, Note_on_c, 9, 42, 48
11, 10657, Note_on_c, 9, 42, 0
11, 10680, Note_on_c, 9, 35, 112
11, 10680, Note_on_c, 9, 42, 80
11, 10681, Note_on_c, 9, 35, 0
11, 10681, Note_on_c, 9, 42, 0
11, 10704, Note_on_c, 9, 42, 48
11, 10705, Note_on_c, 9, 42, 0
11, 10728, Note_on_c, 9, 38, 127
11, 10728, Note_on_c, 9, 45, 96
11, 10728, Note_on_c, 9, 42, 80
11, 10729, Note_on_c, 9, 38, 0
11, 10729, Note_on_c, 9, 42, 0
11, 10729, Note_on_c, 9, 45, 0
11, 10752, Note_on_c, 9, 35, 112
11, 10752, Note_on_c, 9, 42, 48
11, 10753, Note_on_c, 9, 35, 0
11, 10753, Note_on_c, 9, 42, 0
11, 10776, Note_on_c, 9, 35, 112
11, 10776, Note_on_c, 9, 42, 80
11, 10777, Note_on_c, 9, 35, 0
11, 10777, Note_on_c, 9, 42, 0
11, 10800, Note_on_c, 9, 42, 48
11, 10800, Note_on_c, 9, 46, 96
11, 10801, Note_on_c, 9, 42, 0
11, 10801, Note_on_c, 9, 46, 0
11, 10824, Note_on_c, 9, 38, 127
11, 10824, Note_on_c, 9, 45, 96
11, 10824, Note_on_c, 9, 42, 80
11, 10825, Note_on_c, 9, 38, 0
11, 10825, Note_on_c, 9, 42, 0
11, 10825, Note_on_c, 9, 45, 0
11, 10848, Note_on_c, 9, 42, 48
11, 10849, Note_on_c, 9, 42, 0
11, 10872, Note_on_c, 9, 35, 112
11, 10872, Note_on_c, 9, 42, 80
11, 10873, Note_on_c, 9, 35, 0
11, 10873, Note_on_c, 9, 42, 0
11, 10896, Note_on_c, 9, 42, 48
11, 10897, Note_on_c, 9, 42, 0
11, 10920, Note_on_c, 9, 38, 127
11, 10920, Note_on_c, 9, 45, 96
11, 10920, Note_on_c, 9, 42, 80
11, 10921, Note_on_c, 9, 38, 0
11, 10921, Note_on_c, 9, 42, 0
11, 10921, Note_on_c, 9, 45, 0
11, 10944, Note_on_c, 9, 35, 112
11, 10944, Note_on_c, 9, 42, 48
11, 10945, Note_on_c, 9, 35, 0
11, 10945, Note_on_c, 9, 42, 0
11, 10968, Note_on_c, 9, 35, 112
11, 10968, Note_on_c, 9, 42, 80
11, 10969, Note_on_c, 9, 35, 0
11, 10969, Note_on_c, 9, 42, 0
11, 10992, Note_on_c, 9, 42, 48
11, 10992, Note_on_c, 9, 46, 96
11, 10993, Note_on_c, 9, 42, 0
11, 10993, Note_on_c, 9, 46, 0
11, 11016, Note_on_c, 9, 38, 127
11, 11016, Note_on_c, 9, 45, 96
11, 11016, Note_on_c, 9, 42, 80
11, 11017, Note_on_c, 9, 38, 0
11, 11017, Note_on_c, 9, 42, 0
11, 11017, Note_on_c, 9, 45, 0
11, 11040, Note_on_c, 9, 42, 48
11, 11041, Note_on_c, 9, 42, 0
11, 11064, Note_on_c, 9, 35, 112
11, 11064, Note_on_c, 9, 42, 80
11, 11065, Note_on_c, 9, 35, 0
11, 11065, Note_on_c, 9, 42, 0
11, 11088, Note_on_c, 9, 42, 48
11, 11089, Note_on_c, 9, 42, 0
11, 11112, Note_on_c, 9, 38, 127
11, 11112, Note_on_c, 9, 45, 96
11, 11112, Note_on_c, 9, 42, 80
11, 11113, Note_on_c, 9, 38, 0
11, 11113, Note_on_c, 9, 42, 0
11, 11113, Note_on_c, 9, 45, 0
11, 11136, Note_on_c, 9, 35, 112
11, 11136, Note_on_c, 9, 42, 48
11, 11137, Note_on_c, 9, 35, 0
11, 11137, Note_on_c, 9, 42, 0
11, 11160, Note_on_c, 9, 35, 112
11, 11160, Note_on_c, 9, 42, 80
11, 11161, Note_on_c, 9, 35, 0
11, 11161, Note_on_c, 9, 42, 0
11, 11184, Note_on_c, 9, 42, 48
11, 11184, Note_on_c, 9, 46, 96
11, 11185, Note_on_c, 9, 42, 0
11, 11185, Note_on_c, 9, 46, 0
11, 11208, Note_on_c, 9, 38, 127
11, 11208, Note_on_c, 9, 45, 96
11, 11208, Note_on_c, 9, 42, 80
11, 11209, Note_on_c, 9, 38, 0
11, 11209, Note_on_c, 9, 42, 0
11, 11209, Note_on_c, 9, 45, 0
11, 11232, Note_on_c, 9, 42, 48
11, 11233, Note_on_c, 9, 42, 0
11, 11256, Note_on_c, 9, 35, 112
11, 11256, Note_on_c, 9, 42, 80
11, 11257, Note_on_c, 9, 35, 0
11, 11257, Note_on_c, 9, 42, 0
11, 11280, Note_on_c, 9, 42, 48
11, 11280, Note_on_c, 9, 50, 112
11, 11281, Note_on_c, 9, 42, 0
11, 11281, Note_on_c, 9, 50, 0
11, 11304, Note_on_c, 9, 38, 127
11, 11304, Note_on_c, 9, 45, 96
11, 11304, Note_on_c, 9, 42, 80
11, 11304, Note_on_c, 9, 50, 112
11, 11305, Note_on_c, 9, 38, 0
11, 11305, Note_on_c, 9, 42, 0
11, 11305, Note_on_c, 9, 45, 0
11, 11305, Note_on_c, 9, 50, 0
11, 11328, Note_on_c, 9, 35, 112
11, 11328, Note_on_c, 9, 42, 48
11, 11329, Note_on_c, 9, 35, 0
11, 11329, Note_on_c, 9, 42, 0
11, 11352, Note_on_c, 9, 35, 112
11, 11352, Note_on_c, 9, 42, 80
11, 11353, Note_on_c, 9, 35, 0
11, 11353, Note_on_c, 9, 42, 0
11, 11376, Note_on_c, 9, 42, 48
11, 11376, Note_on_c, 9, 47, 127
11, 11377, Note_on_c, 9, 42, 0
11, 11377, Note_on_c, 9, 47, 0
11, 11400, Note_on_c, 9, 42, 80
11, 11400, Note_on_c, 9, 47, 127
11, 11401, Note_on_c, 9, 42, 0
11, 11401, Note_on_c, 9, 47, 0
11, 11424, Note_on_c, 9, 42, 48
11, 11424, Note_on_c, 9, 43, 127
11, 11425, Note_on_c, 9, 42, 0
11, 11425, Note_on_c, 9, 43, 0
11, 11448, Note_on_c, 9, 35, 112
11, 11448, Note_on_c, 9, 42, 80
11, 11448, Note_on_c, 9, 49, 96
11, 11449, Note_on_c, 9, 35, 0
11, 11449, Note_on_c, 9, 42, 0
11, 11449, Note_on_c, 9, 49, 0
11, 11472, Note_on_c, 9, 42, 48
11, 11472, Note_on_c, 9, 62, 127
11, 11473, Note_on_c, 9, 42, 0
11, 11473, Note_on_c, 9, 62, 0
11, 11496, Note_on_c, 9, 38, 127
11, 11496, Note_on_c, 9, 45, 96
11, 11496, Note_on_c, 9, 42, 80
11, 11496, Note_on_c, 9, 39, 112
11, 11497, Note_on_c, 9, 38, 0
11, 11497, Note_on_c, 9, 39, 0
11, 11497, Note_on_c, 9, 42, 0
11, 11497, Note_on_c, 9, 45, 0
11, 11520, Note_on_c, 9, 35, 112
11, 11520, Note_on_c, 9, 42, 48
11, 11521, Note_on_c, 9, 35, 0
11, 11521, Note_on_c, 9, 42, 0
11, 11544, Note_on_c, 9, 35, 112
11, 11544, Note_on_c, 9, 42, 80
11, 11544, Note_on_c, 9, 62, 127
11, 11545, Note_on_c, 9, 35, 0
11, 11545, Note_on_c, 9, 42, 0
11, 11545, Note_on_c, 9, 62, 0
11, 11568, Note_on_c, 9, 46, 96
11, 11568, Note_on_c, 9, 63, 127
11, 11569, Note_on_c, 9, 46, 0
11, 11569, Note_on_c, 9, 63, 0
11, 11592, Note_on_c, 9, 38, 127
11, 11592, Note_on_c, 9, 45, 96
11, 11592, Note_on_c, 9, 43, 127
11, 11592, Note_on_c, 9, 39, 112
11, 11593, Note_on_c, 9, 38, 0
11, 11593, Note_on_c, 9, 39, 0
11, 11593, Note_on_c, 9, 43, 0
11, 11593, Note_on_c, 9, 45, 0
11, 11616, Note_on_c, 9, 42, 80
11, 11616, Note_on_c, 9, 39, 64
11, 11617, Note_on_c, 9, 39, 0
11, 11617, Note_on_c, 9, 42, 0
11, 11640, Note_on_c, 9, 35, 112
11, 11640, Note_on_c, 9, 42, 80
11, 11640, Note_on_c, 9, 63, 127
11, 11641, Note_on_c, 9, 35, 0
11, 11641, Note_on_c, 9, 42, 0
11, 11641, Note_on_c, 9, 63, 0
11, 11664, Note_on_c, 9, 42, 48
11, 11664, Note_on_c, 9, 62, 127
11, 11665, Note_on_c, 9, 42, 0
11, 11665, Note_on_c, 9, 62, 0
11, 11688, Note_on_c, 9, 38, 127
11, 11688, Note_on_c, 9, 45, 96
11, 11688, Note_on_c, 9, 42, 80
11, 11688, Note_on_c, 9, 39, 112
11, 11689, Note_on_c, 9, 38, 0
11, 11689, Note_on_c, 9, 39, 0
11, 11689, Note_on_c, 9, 42, 0
11, 11689, Note_on_c, 9, 45, 0
11, 11712, Note_on_c, 9, 35, 112
11, 11712, Note_on_c, 9, 42, 48
11, 11713, Note_on_c, 9, 35, 0
11, 11713, Note_on_c, 9, 42, 0
11, 11736, Note_on_c, 9, 35, 112
11, 11736, Note_on_c, 9, 42, 80
11, 11737, Note_on_c, 9, 35, 0
11, 11737, Note_on_c, 9, 42, 0
11, 11760, Note_on_c, 9, 46, 96
11, 11760, Note_on_c, 9, 43, 127
11, 11760, Note_on_c, 9, 63, 127
11, 11761, Note_on_c, 9, 43, 0
11, 11761, Note_on_c, 9, 46, 0
11, 11761, Note_on_c, 9, 63, 0
11, 11784, Note_on_c, 9, 38, 127
11, 11784, Note_on_c, 9, 45, 96
11, 11784, Note_on_c, 9, 39, 112
11, 11784, Note_on_c, 9, 64, 127
11, 11785, Note_on_c, 9, 38, 0
11, 11785, Note_on_c, 9, 39, 0
11, 11785, Note_on_c, 9, 45, 0
11, 11785, Note_on_c, 9, 64, 0
11, 11808, Note_on_c, 9, 42, 80
11, 11808, Note_on_c, 9, 39, 64
11, 11808, Note_on_c, 9, 64, 127
11, 11809, Note_on_c, 9, 39, 0
11, 11809, Note_on_c, 9, 42, 0
11, 11809, Note_on_c, 9, 64, 0
11, 11832, Note_on_c, 9, 35, 112
11, 11832, Note_on_c, 9, 42, 80
11, 11833, Note_on_c, 9, 35, 0
11, 11833, Note_on_c, 9, 42, 0
11, 11856, Note_on_c, 9, 42, 48
11, 11856, Note_on_c, 9, 62, 127
11, 11857, Note_on_c, 9, 42, 0
11, 11857, Note_on_c, 9, 62, 0
11, 11880, Note_on_c, 9, 38, 127
11, 11880, Note_on_c, 9, 45, 96
11, 11880, Note_on_c, 9, 42, 80
11, 11880, Note_on_c, 9, 39, 112
11, 11881, Note_on_c, 9, 38, 0
11, 11881, Note_on_c, 9, 39, 0
11, 11881, Note_on_c, 9, 42, 0
11, 11881, Note_on_c, 9, 45, 0
11, 11904, Note_on_c, 9, 35, 112
11, 11904, Note_on_c, 9, 42, 48
11, 11905, Note_on_c, 9, 35, 0
11, 11905, Note_on_c, 9, 42, 0
11, 11928, Note_on_c, 9, 35, 112
11, 11928, Note_on_c, 9, 42, 80
11, 11928, Note_on_c, 9, 62, 127
11, 11929, Note_on_c, 9, 35, 0
11, 11929, Note_on_c, 9, 42, 0
11, 11929, Note_on_c, 9, 62, 0
11, 11952, Note_on_c, 9, 46, 96
11, 11952, Note_on_c, 9, 63, 127
11, 11953, Note_on_c, 9, 46, 0
11, 11953, Note_on_c, 9, 63, 0
11, 11976, Note_on_c, 9, 38, 127
11, 11976, Note_on_c, 9, 45, 96
11, 11976, Note_on_c, 9, 43, 127
11, 11976, Note_on_c, 9, 39, 112
11, 11977, Note_on_c, 9, 38, 0
11, 11977, Note_on_c, 9, 39, 0
11, 11977, Note_on_c, 9, 43, 0
11, 11977, Note_on_c, 9, 45, 0
11, 12000, Note_on_c, 9, 42, 80
11, 12000, Note_on_c, 9, 39, 64
11, 12001, Note_on_c, 9, 39, 0
11, 12001, Note_on_c, 9, 42, 0
11, 12024, Note_on_c, 9, 35, 112
11, 12024, Note_on_c, 9, 42, 80
11, 12025, Note_on_c, 9, 35, 0
11, 12025, Note_on_c, 9, 42, 0
11, 12048, Note_on_c, 9, 38, 64
11, 12048, Note_on_c, 9, 42, 48
11, 12049, Note_on_c, 9, 38, 0
11, 12049, Note_on_c, 9, 42, 0
11, 12060, Note_on_c, 9, 38, 80
11, 12061, Note_on_c, 9, 38, 0
11, 12072, Note_on_c, 9, 38, 127
11, 12072, Note_on_c, 9, 45, 96
11, 12072, Note_on_c, 9, 42, 80
11, 12072, Note_on_c, 9, 39, 112
11, 12073, Note_on_c, 9, 38, 0
11, 12073, Note_on_c, 9, 39, 0
11, 12073, Note_on_c, 9, 42, 0
11, 12073, Note_on_c, 9, 45, 0
11, 12096, Note_on_c, 9, 35, 112
11, 12096, Note_on_c, 9, 42, 48
11, 12097, Note_on_c, 9, 35, 0
11, 12097, Note_on_c, 9, 42, 0
11, 12120, Note_on_c, 9, 35, 112
11, 12120, Note_on_c, 9, 42, 80
11, 12121, Note_on_c, 9, 35, 0
11, 12121, Note_on_c, 9, 42, 0
11, 12144, Note_on_c, 9, 38, 80
11, 12144, Note_on_c, 9, 45, 64
11, 12145, Note_on_c, 9, 38, 0
11, 12145, Note_on_c, 9, 45, 0
11, 12156, Note_on_c, 9, 38, 96
11, 12156, Note_on_c, 9, 45, 80
11, 12157, Note_on_c, 9, 38, 0
11, 12157, Note_on_c, 9, 45, 0
11, 12168, Note_on_c, 9, 38, 127
11, 12168, Note_on_c, 9, 45, 96
11, 12168, Note_on_c, 9, 39, 112
11, 12169, Note_on_c, 9, 38, 0
11, 12169, Note_on_c, 9, 39, 0
11, 12169, Note_on_c, 9, 45, 0
11, 12192, Note_on_c, 9, 38, 127
11, 12192, Note_on_c, 9, 45, 96
11, 12192, Note_on_c, 9, 39, 64
11, 12193, Note_on_c, 9, 38, 0
11, 12193, Note_on_c, 9, 39, 0
11, 12193, Note_on_c, 9, 45, 0
11, 12216, Note_on_c, 9, 35, 112
11, 12216, Note_on_c, 9, 42, 80
11, 12216, Note_on_c, 9, 49, 96
11, 12217, Note_on_c, 9, 35, 0
11, 12217, Note_on_c, 9, 42, 0
11, 12217, Note_on_c, 9, 49, 0
11, 12240, Note_on_c, 9, 42, 48
11, 12240, Note_on_c, 9, 62, 127
11, 12241, Note_on_c, 9, 42, 0
11, 12241, Note_on_c, 9, 62, 0
11, 12264, Note_on_c, 9, 38, 127
11, 12264, Note_on_c, 9, 45, 96
11, 12264, Note_on_c, 9, 42, 80
11, 12264, Note_on_c, 9, 39, 112
11, 12265, Note_on_c, 9, 38, 0
11, 12265, Note_on_c, 9, 39, 0
11, 12265, Note_on_c, 9, 42, 0
11, 12265, Note_on_c, 9, 45, 0
11, 12288, Note_on_c, 9, 35, 112
11, 12288, Note_on_c, 9, 42, 48
11, 12289, Note_on_c, 9, 35, 0
11, 12289, Note_on_c, 9, 42, 0
11, 12312, Note_on_c, 9, 35, 112
11, 12312, Note_on_c, 9, 42, 80
11, 12312, Note_on_c, 9, 62, 127
11, 12313, Note_on_c, 9, 35, 0
11, 12313, Note_on_c, 9, 42, 0
11, 12313, Note_on_c, 9, 62, 0
11, 12336, Note_on_c, 9, 46, 96
11, 12336, Note_on_c, 9, 63, 127
11, 12337, Note_on_c, 9, 46, 0
11, 12337, Note_on_c, 9, 63, 0
11, 12360, Note_on_c, 9, 38, 127
11, 12360, Note_on_c, 9, 45, 96
11, 12360, Note_on_c, 9, 43, 127
11, 12360, Note_on_c, 9, 39, 112
11, 12361, Note_on_c, 9, 38, 0
11, 12361, Note_on_c, 9, 39, 0
11, 12361, Note_on_c, 9, 43, 0
11, 12361, Note_on_c, 9, 45, 0
11, 12384, Note_on_c, 9, 42, 80
11, 12384, Note_on_c, 9, 39, 64
11, 12385, Note_on_c, 9, 39, 0
11, 12385, Note_on_c, 9, 42, 0
11, 12408, Note_on_c, 9, 35, 112
11, 12408, Note_on_c, 9, 42, 80
11, 12408, Note_on_c, 9, 63, 127
11, 12409, Note_on_c, 9, 35, 0
11, 12409, Note_on_c, 9, 42, 0
11, 12409, Note_on_c, 9, 63, 0
11, 12432, Note_on_c, 9, 42, 48
11, 12432, Note_on_c, 9, 62, 127
11, 12433, Note_on_c, 9, 42, 0
11, 12433, Note_on_c, 9, 62, 0
11, 12456, Note_on_c, 9, 38, 127
11, 12456, Note_on_c, 9, 45, 96
11, 12456, Note_on_c, 9, 42, 80
11, 12456, Note_on_c, 9, 39, 112
11, 12457, Note_on_c, 9, 38, 0
11, 12457, Note_on_c, 9, 39, 0
11, 12457, Note_on_c, 9, 42, 0
11, 12457, Note_on_c, 9, 45, 0
11, 12480, Note_on_c, 9, 35, 112
11, 12480, Note_on_c, 9, 42, 48
11, 12481, Note_on_c, 9, 35, 0
11, 12481, Note_on_c, 9, 42, 0
11, 12504, Note_on_c, 9, 35, 112
11, 12504, Note_on_c, 9, 42, 80
11, 12505, Note_on_c, 9, 35, 0
11, 12505, Note_on_c, 9, 42, 0
11, 12528, Note_on_c, 9, 46, 96
11, 12528, Note_on_c, 9, 43, 127
11, 12528, Note_on_c, 9, 63, 127
11, 12529, Note_on_c, 9, 43, 0
11, 12529, Note_on_c, 9, 46, 0
11, 12529, Note_on_c, 9, 63, 0
11, 12552, Note_on_c, 9, 38, 127
11, 12552, Note_on_c, 9, 45, 96
11, 12552, Note_on_c, 9, 39, 112
11, 12552, Note_on_c, 9, 64, 127
11, 12553, Note_on_c, 9, 38, 0
11, 12553, Note_on_c, 9, 39, 0
11, 12553, Note_on_c, 9, 45, 0
11, 12553, Note_on_c, 9, 64, 0
11, 12576, Note_on_c, 9, 42, 80
11, 12576, Note_on_c, 9, 39, 64
11, 12576, Note_on_c, 9, 64, 127
11, 12577, Note_on_c, 9, 39, 0
11, 12577, Note_on_c, 9, 42, 0
11, 12577, Note_on_c, 9, 64, 0
11, 12600, Note_on_c, 9, 35, 112
11, 12600, Note_on_c, 9, 42, 80
11, 12601, Note_on_c, 9, 35, 0
11, 12601, Note_on_c, 9, 42, 0
11, 12624, Note_on_c, 9, 42, 48
11, 12624, Note_on_c, 9, 62, 127
11, 12625, Note_on_c, 9, 42, 0
11, 12625, Note_on_c, 9, 62, 0
11, 12648, Note_on_c, 9, 38, 127
11, 12648, Note_on_c, 9, 45, 96
11, 12648, Note_on_c, 9, 42, 80
11, 12648, Note_on_c, 9, 39, 112
11, 12649, Note_on_c, 9, 38, 0
11, 12649, Note_on_c, 9, 39, 0
11, 12649, Note_on_c, 9, 42, 0
11, 12649, Note_on_c, 9, 45, 0
11, 12672, Note_on_c, 9, 35, 112
11, 12672, Note_on_c, 9, 42, 48
11, 12673, Note_on_c, 9, 35, 0
11, 12673, Note_on_c, 9, 42, 0
11, 12696, Note_on_c, 9, 35, 112
11, 12696, Note_on_c, 9, 42, 80
11, 12696, Note_on_c, 9, 62, 127
11, 12697, Note_on_c, 9, 35, 0
11, 12697, Note_on_c, 9, 42, 0
11, 12697, Note_on_c, 9, 62, 0
11, 12720, Note_on_c, 9, 46, 96
11, 12720, Note_on_c, 9, 63, 127
11, 12721, Note_on_c, 9, 46, 0
11, 12721, Note_on_c, 9, 63, 0
11, 12744, Note_on_c, 9, 38, 127
11, 12744, Note_on_c, 9, 45, 96
11, 12744, Note_on_c, 9, 43, 127
11, 12744, Note_on_c, 9, 39, 112
11, 12745, Note_on_c, 9, 38, 0
11, 12745, Note_on_c, 9, 39, 0
11, 12745, Note_on_c, 9, 43, 0
11, 12745, Note_on_c, 9, 45, 0
11, 12768, Note_on_c, 9, 42, 80
11, 12768, Note_on_c, 9, 39, 64
11, 12769, Note_on_c, 9, 39, 0
11, 12769, Note_on_c, 9, 42, 0
11, 12792, Note_on_c, 9, 35, 112
11, 12792, Note_on_c, 9, 42, 80
11, 12793, Note_on_c, 9, 35, 0
11, 12793, Note_on_c, 9, 42, 0
11, 12816, Note_on_c, 9, 42, 48
11, 12817, Note_on_c, 9, 42, 0
11, 12840, Note_on_c, 9, 38, 127
11, 12840, Note_on_c, 9, 45, 96
11, 12840, Note_on_c, 9, 42, 80
11, 12841, Note_on_c, 9, 38, 0
11, 12841, Note_on_c, 9, 42, 0
11, 12841, Note_on_c, 9, 45, 0
11, 12864, Note_on_c, 9, 35, 112
11, 12864, Note_on_c, 9, 42, 48
11, 12865, Note_on_c, 9, 35, 0
11, 12865, Note_on_c, 9, 42, 0
11, 12888, Note_on_c, 9, 35, 112
11, 12888, Note_on_c, 9, 42, 80
11, 12889, Note_on_c, 9, 35, 0
11, 12889, Note_on_c, 9, 42, 0
11, 12912, Note_on_c, 9, 42, 48
11, 12912, Note_on_c, 9, 43, 127
11, 12913, Note_on_c, 9, 42, 0
11, 12913, Note_on_c, 9, 43, 0
11, 12924, Note_on_c, 9, 47, 127
11, 12925, Note_on_c, 9, 47, 0
11, 12936, Note_on_c, 9, 38, 127
11, 12936, Note_on_c, 9, 45, 96
11, 12936, Note_on_c, 9, 42, 80
11, 12937, Note_on_c, 9, 38, 0
11, 12937, Note_on_c, 9, 42, 0
11, 12937, Note_on_c, 9, 45, 0
11, 12960, Note_on_c, 9, 38, 112
11, 12960, Note_on_c, 9, 45, 80
11, 12961, Note_on_c, 9, 38, 0
11, 12961, Note_on_c, 9, 45, 0
11, 12984, Note_on_c, 9, 35, 112
11, 12984, Note_on_c, 9, 42, 80
11, 12984, Note_on_c, 9, 49, 96
11, 12985, Note_on_c, 9, 35, 0
11, 12985, Note_on_c, 9, 42, 0
11, 12985, Note_on_c, 9, 49, 0
11, 13008, Note_on_c, 9, 42, 48
11, 13008, Note_on_c, 9, 62, 127
11, 13009, Note_on_c, 9, 42, 0
11, 13009, Note_on_c, 9, 62, 0
11, 13032, Note_on_c, 9, 38, 127
11, 13032, Note_on_c, 9, 45, 96
11, 13032, Note_on_c, 9, 42, 80
11, 13032, Note_on_c, 9, 39, 112
11, 13033, Note_on_c, 9, 38, 0
11, 13033, Note_on_c, 9, 39, 0
11, 13033, Note_on_c, 9, 42, 0
11, 13033, Note_on_c, 9, 45, 0
11, 13056, Note_on_c, 9, 35, 112
11, 13056, Note_on_c, 9, 42, 48
11, 13057, Note_on_c, 9, 35, 0
11, 13057, Note_on_c, 9, 42, 0
11, 13080, Note_on_c, 9, 35, 112
11, 13080, Note_on_c, 9, 42, 80
11, 13080, Note_on_c, 9, 62, 127
11, 13081, Note_on_c, 9, 35, 0
11, 13081, Note_on_c, 9, 42, 0
11, 13081, Note_on_c, 9, 62, 0
11, 13104, Note_on_c, 9, 46, 96
11, 13104, Note_on_c, 9, 63, 127
11, 13105, Note_on_c, 9, 46, 0
11, 13105, Note_on_c, 9, 63, 0
11, 13128, Note_on_c, 9, 38, 127
11, 13128, Note_on_c, 9, 45, 96
11, 13128, Note_on_c, 9, 43, 127
11, 13128, Note_on_c, 9, 39, 112
11, 13129, Note_on_c, 9, 38, 0
11, 13129, Note_on_c, 9, 39, 0
11, 13129, Note_on_c, 9, 43, 0
11, 13129, Note_on_c, 9, 45, 0
11, 13152, Note_on_c, 9, 42, 80
11, 13152, Note_on_c, 9, 39, 64
11, 13153, Note_on_c, 9, 39, 0
11, 13153, Note_on_c, 9, 42, 0
11, 13176, Note_on_c, 9, 35, 112
11, 13176, Note_on_c, 9, 42, 80
11, 13176, Note_on_c, 9, 63, 127
11, 13177, Note_on_c, 9, 35, 0
11, 13177, Note_on_c, 9, 42, 0
11, 13177, Note_on_c, 9, 63, 0
11, 13200, Note_on_c, 9, 42, 48
11, 13200, Note_on_c, 9, 62, 127
11, 13201, Note_on_c, 9, 42, 0
11, 13201, Note_on_c, 9, 62, 0
11, 13224, Note_on_c, 9, 38, 127
11, 13224, Note_on_c, 9, 45, 96
11, 13224, Note_on_c, 9, 42, 80
11, 13224, Note_on_c, 9, 39, 112
11, 13225, Note_on_c, 9, 38, 0
11, 13225, Note_on_c, 9, 39, 0
11, 13225, Note_on_c, 9, 42, 0
11, 13225, Note_on_c, 9, 45, 0
11, 13248, Note_on_c, 9, 35, 112
11, 13248, Note_on_c, 9, 42, 48
11, 13249, Note_on_c, 9, 35, 0
11, 13249, Note_on_c, 9, 42, 0
11, 13272, Note_on_c, 9, 35, 112
11, 13272, Note_on_c, 9, 42, 80
11, 13273, Note_on_c, 9, 35, 0
11, 13273, Note_on_c, 9, 42, 0
11, 13296, Note_on_c, 9, 46, 96
11, 13296, Note_on_c, 9, 43, 127
11, 13296, Note_on_c, 9, 63, 127
11, 13297, Note_on_c, 9, 43, 0
11, 13297, Note_on_c, 9, 46, 0
11, 13297, Note_on_c, 9, 63, 0
11, 13320, Note_on_c, 9, 38, 127
11, 13320, Note_on_c, 9, 45, 96
11, 13320, Note_on_c, 9, 39, 112
11, 13320, Note_on_c, 9, 64, 127
11, 13321, Note_on_c, 9, 38, 0
11, 13321, Note_on_c, 9, 39, 0
11, 13321, Note_on_c, 9, 45, 0
11, 13321, Note_on_c, 9, 64, 0
11, 13344, Note_on_c, 9, 42, 80
11, 13344, Note_on_c, 9, 39, 64
11, 13344, Note_on_c, 9, 64, 127
11, 13345, Note_on_c, 9, 39, 0
11, 13345, Note_on_c, 9, 42, 0
11, 13345, Note_on_c, 9, 64, 0
11, 13368, Note_on_c, 9, 35, 112
11, 13368, Note_on_c, 9, 42, 80
11, 13369, Note_on_c, 9, 35, 0
11, 13369, Note_on_c, 9, 42, 0
11, 13392, Note_on_c, 9, 42, 48
11, 13392, Note_on_c, 9, 62, 127
11, 13393, Note_on_c, 9, 42, 0
11, 13393, Note_on_c, 9, 62, 0
11, 13416, Note_on_c, 9, 38, 127
11, 13416, Note_on_c, 9, 45, 96
11, 13416, Note_on_c, 9, 42, 80
11, 13416, Note_on_c, 9, 39, 112
11, 13417, Note_on_c, 9, 38, 0
11, 13417, Note_on_c, 9, 39, 0
11, 13417, Note_on_c, 9, 42, 0
11, 13417, Note_on_c, 9, 45, 0
11, 13440, Note_on_c, 9, 35, 112
11, 13440, Note_on_c, 9, 42, 48
11, 13441, Note_on_c, 9, 35, 0
11, 13441, Note_on_c, 9, 42, 0
11, 13464, Note_on_c, 9, 35, 112
11, 13464, Note_on_c, 9, 42, 80
11, 13464, Note_on_c, 9, 62, 127
11, 13465, Note_on_c, 9, 35, 0
11, 13465, Note_on_c, 9, 42, 0
11, 13465, Note_on_c, 9, 62, 0
11, 13488, Note_on_c, 9, 46, 96
11, 13488, Note_on_c, 9, 63, 127
11, 13489, Note_on_c, 9, 46, 0
11, 13489, Note_on_c, 9, 63, 0
11, 13512, Note_on_c, 9, 38, 127
11, 13512, Note_on_c, 9, 45, 96
11, 13512, Note_on_c, 9, 43, 127
11, 13512, Note_on_c, 9, 39, 112
11, 13513, Note_on_c, 9, 38, 0
11, 13513, Note_on_c, 9, 39, 0
11, 13513, Note_on_c, 9, 43, 0
11, 13513, Note_on_c, 9, 45, 0
11, 13536, Note_on_c, 9, 42, 80
11, 13536, Note_on_c, 9, 39, 64
11, 13537, Note_on_c, 9, 39, 0
11, 13537, Note_on_c, 9, 42, 0
11, 13560, Note_on_c, 9, 35, 112
11, 13560, Note_on_c, 9, 42, 80
11, 13561, Note_on_c, 9, 35, 0
11, 13561, Note_on_c, 9, 42, 0
11, 13584, Note_on_c, 9, 38, 64
11, 13584, Note_on_c, 9, 42, 48
11, 13585, Note_on_c, 9, 38, 0
11, 13585, Note_on_c, 9, 42, 0
11, 13596, Note_on_c, 9, 38, 80
11, 13597, Note_on_c, 9, 38, 0
11, 13608, Note_on_c, 9, 38, 127
11, 13608, Note_on_c, 9, 45, 96
11, 13608, Note_on_c, 9, 42, 80
11, 13608, Note_on_c, 9, 39, 112
11, 13609, Note_on_c, 9, 38, 0
11, 13609, Note_on_c, 9, 39, 0
11, 13609, Note_on_c, 9, 42, 0
11, 13609, Note_on_c, 9, 45, 0
11, 13632, Note_on_c, 9, 35, 112
11, 13632, Note_on_c, 9, 42, 48
11, 13633, Note_on_c, 9, 35, 0
11, 13633, Note_on_c, 9, 42, 0
11, 13656, Note_on_c, 9, 35, 112
11, 13656, Note_on_c, 9, 42, 80
11, 13657, Note_on_c, 9, 35, 0
11, 13657, Note_on_c, 9, 42, 0
11, 13680, Note_on_c, 9, 38, 80
11, 13680, Note_on_c, 9, 45, 64
11, 13681, Note_on_c, 9, 38, 0
11, 13681, Note_on_c, 9, 45, 0
11, 13692, Note_on_c, 9, 38, 96
11, 13692, Note_on_c, 9, 45, 80
11, 13693, Note_on_c, 9, 38, 0
11, 13693, Note_on_c, 9, 45, 0
11, 13704, Note_on_c, 9, 38, 127
11, 13704, Note_on_c, 9, 45, 96
11, 13704, Note_on_c, 9, 39, 112
11, 13705, Note_on_c, 9, 38, 0
11, 13705, Note_on_c, 9, 39, 0
11, 13705, Note_on_c, 9, 45, 0
11, 13728, Note_on_c, 9, 38, 127
11, 13728, Note_on_c, 9, 45, 96
11, 13728, Note_on_c, 9, 39, 64
11, 13729, Note_on_c, 9, 38, 0
11, 13729, Note_on_c, 9, 39, 0
11, 13729, Note_on_c, 9, 45, 0
11, 13752, Note_on_c, 9, 35, 112
11, 13752, Note_on_c, 9, 42, 80
11, 13752, Note_on_c, 9, 49, 96
11, 13753, Note_on_c, 9, 35, 0
11, 13753, Note_on_c, 9, 42, 0
11, 13753, Note_on_c, 9, 49, 0
11, 13776, Note_on_c, 9, 42, 48
11, 13776, Note_on_c, 9, 62, 127
11, 13777, Note_on_c, 9, 42, 0
11, 13777, Note_on_c, 9, 62, 0
11, 13800, Note_on_c, 9, 38, 127
11, 13800, Note_on_c, 9, 45, 96
11, 13800, Note_on_c, 9, 42, 80
11, 13800, Note_on_c, 9, 39, 112
11, 13801, Note_on_c, 9, 38, 0
11, 13801, Note_on_c, 9, 39, 0
11, 13801, Note_on_c, 9, 42, 0
11, 13801, Note_on_c, 9, 45, 0
11, 13824, Note_on_c, 9, 35, 112
11, 13824, Note_on_c, 9, 42, 48
11, 13825, Note_on_c, 9, 35, 0
11, 13825, Note_on_c, 9, 42, 0
11, 13848, Note_on_c, 9, 35, 112
11, 13848, Note_on_c, 9, 42, 80
11, 13848, Note_on_c, 9, 62, 127
11, 13849, Note_on_c, 9, 35, 0
11, 13849, Note_on_c, 9, 42, 0
11, 13849, Note_on_c, 9, 62, 0
11, 13872, Note_on_c, 9, 46, 96
11, 13872, Note_on_c, 9, 63, 127
11, 13873, Note_on_c, 9, 46, 0
11, 13873, Note_on_c, 9, 63, 0
11, 13896, Note_on_c, 9, 38, 127
11, 13896, Note_on_c, 9, 45, 96
11, 13896, Note_on_c, 9, 43, 127
11, 13896, Note_on_c, 9, 39, 112
11, 13897, Note_on_c, 9, 38, 0
11, 13897, Note_on_c, 9, 39, 0
11, 13897, Note_on_c, 9, 43, 0
11, 13897, Note_on_c, 9, 45, 0
11, 13920, Note_on_c, 9, 42, 80
11, 13920, Note_on_c, 9, 39, 64
11, 13921, Note_on_c, 9, 39, 0
11, 13921, Note_on_c, 9, 42, 0
11, 13944, Note_on_c, 9, 35, 112
11, 13944, Note_on_c, 9, 42, 80
11, 13944, Note_on_c, 9, 63, 127
11, 13945, Note_on_c, 9, 35, 0
11, 13945, Note_on_c, 9, 42, 0
11, 13945, Note_on_c, 9, 63, 0
11, 13968, Note_on_c, 9, 42, 48
11, 13968, Note_on_c, 9, 62, 127
11, 13969, Note_on_c, 9, 42, 0
11, 13969, Note_on_c, 9, 62, 0
11, 13992, Note_on_c, 9, 38, 127
11, 13992, Note_on_c, 9, 45, 96
11, 13992, Note_on_c, 9, 42, 80
11, 13992, Note_on_c, 9, 39, 112
11, 13993, Note_on_c, 9, 38, 0
11, 13993, Note_on_c, 9, 39, 0
11, 13993, Note_on_c, 9, 42, 0
11, 13993, Note_on_c, 9, 45, 0
11, 14016, Note_on_c, 9, 35, 112
11, 14016, Note_on_c, 9, 42, 48
11, 14017, Note_on_c, 9, 35, 0
11, 14017, Note_on_c, 9, 42, 0
11, 14040, Note_on_c, 9, 35, 112
11, 14040, Note_on_c, 9, 42, 80
11, 14041, Note_on_c, 9, 35, 0
11, 14041, Note_on_c, 9, 42, 0
11, 14064, Note_on_c, 9, 46, 96
11, 14064, Note_on_c, 9, 43, 127
11, 14064, Note_on_c, 9, 63, 127
11, 14065, Note_on_c, 9, 43, 0
11, 14065, Note_on_c, 9, 46, 0
11, 14065, Note_on_c, 9, 63, 0
11, 14088, Note_on_c, 9, 38, 127
11, 14088, Note_on_c, 9, 45, 96
11, 14088, Note_on_c, 9, 39, 112
11, 14088, Note_on_c, 9, 64, 127
11, 14089, Note_on_c, 9, 38, 0
11, 14089, Note_on_c, 9, 39, 0
11, 14089, Note_on_c, 9, 45, 0
11, 14089, Note_on_c, 9, 64, 0
11, 14112, Note_on_c, 9, 42, 80
11, 14112, Note_on_c, 9, 39, 64
11, 14112, Note_on_c, 9, 64, 127
11, 14113, Note_on_c, 9, 39, 0
11, 14113, Note_on_c, 9, 42, 0
11, 14113, Note_on_c, 9, 64, 0
11, 14136, Note_on_c, 9, 35, 112
11, 14136, Note_on_c, 9, 42, 80
11, 14137, Note_on_c, 9, 35, 0
11, 14137, Note_on_c, 9, 42, 0
11, 14160, Note_on_c, 9, 42, 48
11, 14161, Note_on_c, 9, 42, 0
11, 14184, Note_on_c, 9, 38, 127
11, 14184, Note_on_c, 9, 45, 96
11, 14184, Note_on_c, 9, 42, 80
11, 14185, Note_on_c, 9, 38, 0
11, 14185, Note_on_c, 9, 42, 0
11, 14185, Note_on_c, 9, 45, 0
11, 14208, Note_on_c, 9, 35, 112
11, 14208, Note_on_c, 9, 42, 48
11, 14209, Note_on_c, 9, 35, 0
11, 14209, Note_on_c, 9, 42, 0
11, 14232, Note_on_c, 9, 35, 112
11, 14232, Note_on_c, 9, 42, 80
11, 14233, Note_on_c, 9, 35, 0
11, 14233, Note_on_c, 9, 42, 0
11, 14256, Note_on_c, 9, 42, 48
11, 14257, Note_on_c, 9, 42, 0
11, 14268, Note_on_c, 9, 38, 112
11, 14268, Note_on_c, 9, 45, 80
11, 14269, Note_on_c, 9, 38, 0
11, 14269, Note_on_c, 9, 45, 0
11, 14280, Note_on_c, 9, 38, 127
11, 14280, Note_on_c, 9, 45, 96
11, 14280, Note_on_c, 9, 42, 80
11, 14281, Note_on_c, 9, 38, 0
11, 14281, Note_on_c, 9, 42, 0
11, 14281, Note_on_c, 9, 45, 0
11, 14304, Note_on_c, 9, 38, 112
11, 14304, Note_on_c, 9, 52, 112
11, 14305, Note_on_c, 9, 38, 0
11, 14305, Note_on_c, 9, 52, 0
11, 14328, Note_on_c, 9, 35, 112
11, 14328, Note_on_c, 9, 42, 80
11, 14328, Note_on_c, 9, 49, 96
11, 14329, Note_on_c, 9, 35, 0
11, 14329, Note_on_c, 9, 42, 0
11, 14329, Note_on_c, 9, 49, 0
11, 14352, Note_on_c, 9, 42, 48
11, 14352, Note_on_c, 9, 62, 127
11, 14353, Note_on_c, 9, 42, 0
11, 14353, Note_on_c, 9, 62, 0
11, 14376, Note_on_c, 9, 38, 127
11, 14376, Note_on_c, 9, 45, 96
11, 14376, Note_on_c, 9, 42, 80
11, 14376, Note_on_c, 9, 39, 112
11, 14377, Note_on_c, 9, 38, 0
11, 14377, Note_on_c, 9, 39, 0
11, 14377, Note_on_c, 9, 42, 0
11, 14377, Note_on_c, 9, 45, 0
11, 14400, Note_on_c, 9, 35, 112
11, 14400, Note_on_c, 9, 42, 48
11, 14401, Note_on_c, 9, 35, 0
11, 14401, Note_on_c, 9, 42, 0
11, 14424, Note_on_c, 9, 35, 112
11, 14424, Note_on_c, 9, 42, 80
11, 14424, Note_on_c, 9, 62, 127
11, 14425, Note_on_c, 9, 35, 0
11, 14425, Note_on_c, 9, 42, 0
11, 14425, Note_on_c, 9, 62, 0
11, 14448, Note_on_c, 9, 46, 96
11, 14448, Note_on_c, 9, 63, 127
11, 14449, Note_on_c, 9, 46, 0
11, 14449, Note_on_c, 9, 63, 0
11, 14472, Note_on_c, 9, 38, 127
11, 14472, Note_on_c, 9, 45, 96
11, 14472, Note_on_c, 9, 43, 127
11, 14472, Note_on_c, 9, 39, 112
11, 14473, Note_on_c, 9, 38, 0
11, 14473, Note_on_c, 9, 39, 0
11, 14473, Note_on_c, 9, 43, 0
11, 14473, Note_on_c, 9, 45, 0
11, 14496, Note_on_c, 9, 42, 80
11, 14496, Note_on_c, 9, 39, 64
11, 14497, Note_on_c, 9, 39, 0
11, 14497, Note_on_c, 9, 42, 0
11, 14520, Note_on_c, 9, 35, 112
11, 14520, Note_on_c, 9, 42, 80
11, 14520, Note_on_c, 9, 63, 127
11, 14521, Note_on_c, 9, 35, 0
11, 14521, Note_on_c, 9, 42, 0
11, 14521, Note_on_c, 9, 63, 0
11, 14544, Note_on_c, 9, 42, 48
11, 14544, Note_on_c, 9, 62, 127
11, 14545, Note_on_c, 9, 42, 0
11, 14545, Note_on_c, 9, 62, 0
11, 14568, Note_on_c, 9, 38, 127
11, 14568, Note_on_c, 9, 45, 96
11, 14568, Note_on_c, 9, 42, 80
11, 14568, Note_on_c, 9, 39, 112
11, 14569, Note_on_c, 9, 38, 0
11, 14569, Note_on_c, 9, 39, 0
11, 14569, Note_on_c, 9, 42, 0
11, 14569, Note_on_c, 9, 45, 0
11, 14592, Note_on_c, 9, 35, 112
11, 14592, Note_on_c, 9, 42, 48
11, 14593, Note_on_c, 9, 35, 0
11, 14593, Note_on_c, 9, 42, 0
11, 14616, Note_on_c, 9, 35, 112
11, 14616, Note_on_c, 9, 42, 80
11, 14617, Note_on_c, 9, 35, 0
11, 14617, Note_on_c, 9, 42, 0
11, 14640, Note_on_c, 9, 46, 96
11, 14640, Note_on_c, 9, 43, 127
11, 14640, Note_on_c, 9, 63, 127
11, 14641, Note_on_c, 9, 43, 0
11, 14641, Note_on_c, 9, 46, 0
11, 14641, Note_on_c, 9, 63, 0
11, 14664, Note_on_c, 9, 38, 127
11, 14664, Note_on_c, 9, 45, 96
11, 14664, Note_on_c, 9, 39, 112
11, 14664, Note_on_c, 9, 64, 127
11, 14665, Note_on_c, 9, 38, 0
11, 14665, Note_on_c, 9, 39, 0
11, 14665, Note_on_c, 9, 45, 0
11, 14665, Note_on_c, 9, 64, 0
11, 14688, Note_on_c, 9, 42, 80
11, 14688, Note_on_c, 9, 39, 64
11, 14688, Note_on_c, 9, 64, 127
11, 14689, Note_on_c, 9, 39, 0
11, 14689, Note_on_c, 9, 42, 0
11, 14689, Note_on_c, 9, 64, 0
11, 14712, Note_on_c, 9, 35, 112
11, 14712, Note_on_c, 9, 42, 80
11, 14713, Note_on_c, 9, 35, 0
11, 14713, Note_on_c, 9, 42, 0
11, 14736, Note_on_c, 9, 42, 48
11, 14736, Note_on_c, 9, 62, 127
11, 14737, Note_on_c, 9, 42, 0
11, 14737, Note_on_c, 9, 62, 0
11, 14760, Note_on_c, 9, 38, 127
11, 14760, Note_on_c, 9, 45, 96
11, 14760, Note_on_c, 9, 42, 80
11, 14760, Note_on_c, 9, 39, 112
11, 14761, Note_on_c, 9, 38, 0
11, 14761, Note_on_c, 9, 39, 0
11, 14761, Note_on_c, 9, 42, 0
11, 14761, Note_on_c, 9, 45, 0
11, 14784, Note_on_c, 9, 35, 112
11, 14784, Note_on_c, 9, 42, 48
11, 14785, Note_on_c, 9, 35, 0
11, 14785, Note_on_c, 9, 42, 0
11, 14808, Note_on_c, 9, 35, 112
11, 14808, Note_on_c, 9, 42, 80
11, 14808, Note_on_c, 9, 62, 127
11, 14809, Note_on_c, 9, 35, 0
11, 14809, Note_on_c, 9, 42, 0
11, 14809, Note_on_c, 9, 62, 0
11, 14832, Note_on_c, 9, 46, 96
11, 14832, Note_on_c, 9, 63, 127
11, 14833, Note_on_c, 9, 46, 0
11, 14833, Note_on_c, 9, 63, 0
11, 14856, Note_on_c, 9, 38, 127
11, 14856, Note_on_c, 9, 45, 96
11, 14856, Note_on_c, 9, 43, 127
11, 14856, Note_on_c, 9, 39, 112
11, 14857, Note_on_c, 9, 38, 0
11, 14857, Note_on_c, 9, 39, 0
11, 14857, Note_on_c, 9, 43, 0
11, 14857, Note_on_c, 9, 45, 0
11, 14880, Note_on_c, 9, 42, 80
11, 14880, Note_on_c, 9, 39, 64
11, 14881, Note_on_c, 9, 39, 0
11, 14881, Note_on_c, 9, 42, 0
11, 14904, Note_on_c, 9, 35, 112
11, 14904, Note_on_c, 9, 42, 80
11, 14905, Note_on_c, 9, 35, 0
11, 14905, Note_on_c, 9, 42, 0
11, 14928, Note_on_c, 9, 42, 48
11, 14929, Note_on_c, 9, 42, 0
11, 14952, Note_on_c, 9, 38, 127
11, 14952, Note_on_c, 9, 45, 96
11, 14952, Note_on_c, 9, 42, 80
11, 14952, Note_on_c, 9, 39, 112
11, 14953, Note_on_c, 9, 38, 0
11, 14953, Note_on_c, 9, 39, 0
11, 14953, Note_on_c, 9, 42, 0
11, 14953, Note_on_c, 9, 45, 0
11, 14976, Note_on_c, 9, 35, 112
11, 14976, Note_on_c, 9, 42, 48
11, 14977, Note_on_c, 9, 35, 0
11, 14977, Note_on_c, 9, 42, 0
11, 15000, Note_on_c, 9, 35, 112
11, 15000, Note_on_c, 9, 42, 80
11, 15001, Note_on_c, 9, 35, 0
11, 15001, Note_on_c, 9, 42, 0
11, 15024, Note_on_c, 9, 38, 96
11, 15024, Note_on_c, 9, 45, 64
11, 15025, Note_on_c, 9, 38, 0
11, 15025, Note_on_c, 9, 45, 0
11, 15036, Note_on_c, 9, 38, 112
11, 15036, Note_on_c, 9, 45, 80
11, 15037, Note_on_c, 9, 38, 0
11, 15037, Note_on_c, 9, 45, 0
11, 15048, Note_on_c, 9, 38, 127
11, 15048, Note_on_c, 9, 45, 96
11, 15048, Note_on_c, 9, 46, 96
11, 15049, Note_on_c, 9, 38, 0
11, 15049, Note_on_c, 9, 45, 0
11, 15049, Note_on_c, 9, 46, 0
11, 15072, Note_on_c, 9, 38, 127
11, 15072, Note_on_c, 9, 45, 96
11, 15072, Note_on_c, 9, 42, 80
11, 15072, Note_on_c, 9, 46, 96
11, 15073, Note_on_c, 9, 38, 0
11, 15073, Note_on_c, 9, 42, 0
11, 15073, Note_on_c, 9, 45, 0
11, 15073, Note_on_c, 9, 46, 0
11, 15096, Note_on_c, 9, 35, 112
11, 15096, Note_on_c, 9, 42, 80
11, 15096, Note_on_c, 9, 49, 96
11, 15097, Note_on_c, 9, 35, 0
11, 15097, Note_on_c, 9, 42, 0
11, 15097, Note_on_c, 9, 49, 0
11, 15120, Note_on_c, 9, 42, 48
11, 15121, Note_on_c, 9, 42, 0
11, 15144, Note_on_c, 9, 38, 127
11, 15144, Note_on_c, 9, 45, 96
11, 15144, Note_on_c, 9, 42, 80
11, 15145, Note_on_c, 9, 38, 0
11, 15145, Note_on_c, 9, 42, 0
11, 15145, Note_on_c, 9, 45, 0
11, 15168, Note_on_c, 9, 35, 112
11, 15168, Note_on_c, 9, 42, 48
11, 15169, Note_on_c, 9, 35, 0
11, 15169, Note_on_c, 9, 42, 0
11, 15192, Note_on_c, 9, 35, 112
11, 15192, Note_on_c, 9, 42, 80
11, 15193, Note_on_c, 9, 35, 0
11, 15193, Note_on_c, 9, 42, 0
11, 15216, Note_on_c, 9, 42, 48
11, 15216, Note_on_c, 9, 46, 96
11, 15217, Note_on_c, 9, 42, 0
11, 15217, Note_on_c, 9, 46, 0
11, 15240, Note_on_c, 9, 38, 127
11, 15240, Note_on_c, 9, 45, 96
11, 15240, Note_on_c, 9, 42, 80
11, 15241, Note_on_c, 9, 38, 0
11, 15241, Note_on_c, 9, 42, 0
11, 15241, Note_on_c, 9, 45, 0
11, 15264, Note_on_c, 9, 42, 48
11, 15265, Note_on_c, 9, 42, 0
11, 15288, Note_on_c, 9, 35, 112
11, 15288, Note_on_c, 9, 42, 80
11, 15289, Note_on_c, 9, 35, 0
11, 15289, Note_on_c, 9, 42, 0
11, 15312, Note_on_c, 9, 42, 48
11, 15313, Note_on_c, 9, 42, 0
11, 15336, Note_on_c, 9, 38, 127
11, 15336, Note_on_c, 9, 45, 96
11, 15336, Note_on_c, 9, 42, 80
11, 15337, Note_on_c, 9, 38, 0
11, 15337, Note_on_c, 9, 42, 0
11, 15337, Note_on_c, 9, 45, 0
11, 15360, Note_on_c, 9, 35, 112
11, 15360, Note_on_c, 9, 42, 48
11, 15361, Note_on_c, 9, 35, 0
11, 15361, Note_on_c, 9, 42, 0
11, 15384, Note_on_c, 9, 35, 112
11, 15384, Note_on_c, 9, 42, 80
11, 15385, Note_on_c, 9, 35, 0
11, 15385, Note_on_c, 9, 42, 0
11, 15408, Note_on_c, 9, 42, 48
11, 15408, Note_on_c, 9, 46, 96
11, 15409, Note_on_c, 9, 42, 0
11, 15409, Note_on_c, 9, 46, 0
11, 15432, Note_on_c, 9, 38, 127
11, 15432, Note_on_c, 9, 45, 96
11, 15432, Note_on_c, 9, 42, 80
11, 15433, Note_on_c, 9, 38, 0
11, 15433, Note_on_c, 9, 42, 0
11, 15433, Note_on_c, 9, 45, 0
11, 15456, Note_on_c, 9, 42, 48
11, 15457, Note_on_c, 9, 42, 0
11, 15480, Note_on_c, 9, 35, 112
11, 15480, Note_on_c, 9, 42, 80
11, 15481, Note_on_c, 9, 35, 0
11, 15481, Note_on_c, 9, 42, 0
11, 15504, Note_on_c, 9, 42, 48
11, 15505, Note_on_c, 9, 42, 0
11, 15528, Note_on_c, 9, 38, 127
11, 15528, Note_on_c, 9, 45, 96
11, 15528, Note_on_c, 9, 42, 80
11, 15529, Note_on_c, 9, 38, 0
11, 15529, Note_on_c, 9, 42, 0
11, 15529, Note_on_c, 9, 45, 0
11, 15552, Note_on_c, 9, 35, 112
11, 15552, Note_on_c, 9, 42, 48
11, 15553, Note_on_c, 9, 35, 0
11, 15553, Note_on_c, 9, 42, 0
11, 15576, Note_on_c, 9, 35, 112
11, 15576, Note_on_c, 9, 42, 80
11, 15577, Note_on_c, 9, 35, 0
11, 15577, Note_on_c, 9, 42, 0
11, 15600, Note_on_c, 9, 42, 48
11, 15600, Note_on_c, 9, 46, 96
11, 15601, Note_on_c, 9, 42, 0
11, 15601, Note_on_c, 9, 46, 0
11, 15624, Note_on_c, 9, 38, 127
11, 15624, Note_on_c, 9, 45, 96
11, 15624, Note_on_c, 9, 42, 80
11, 15625, Note_on_c, 9, 38, 0
11, 15625, Note_on_c, 9, 42, 0
11, 15625, Note_on_c, 9, 45, 0
11, 15648, Note_on_c, 9, 42, 48
11, 15649, Note_on_c, 9, 42, 0
11, 15672, Note_on_c, 9, 35, 112
11, 15672, Note_on_c, 9, 42, 80
11, 15673, Note_on_c, 9, 35, 0
11, 15673, Note_on_c, 9, 42, 0
11, 15696, Note_on_c, 9, 42, 48
11, 15697, Note_on_c, 9, 42, 0
11, 15720, Note_on_c, 9, 38, 127
11, 15720, Note_on_c, 9, 45, 96
11, 15720, Note_on_c, 9, 42, 80
11, 15721, Note_on_c, 9, 38, 0
11, 15721, Note_on_c, 9, 42, 0
11, 15721, Note_on_c, 9, 45, 0
11, 15744, Note_on_c, 9, 35, 112
11, 15744, Note_on_c, 9, 42, 48
11, 15745, Note_on_c, 9, 35, 0
11, 15745, Note_on_c, 9, 42, 0
11, 15768, Note_on_c, 9, 35, 112
11, 15768, Note_on_c, 9, 42, 80
11, 15769, Note_on_c, 9, 35, 0
11, 15769, Note_on_c, 9, 42, 0
11, 15792, Note_on_c, 9, 42, 48
11, 15792, Note_on_c, 9, 46, 96
11, 15793, Note_on_c, 9, 42, 0
11, 15793, Note_on_c, 9, 46, 0
11, 15816, Note_on_c, 9, 38, 127
11, 15816, Note_on_c, 9, 45, 96
11, 15816, Note_on_c, 9, 42, 80
11, 15817, Note_on_c, 9, 38, 0
11, 15817, Note_on_c, 9, 42, 0
11, 15817, Note_on_c, 9, 45, 0
11, 15840, Note_on_c, 9, 42, 48
11, 15841, Note_on_c, 9, 42, 0
11, 15864, Note_on_c, 9, 35, 112
11, 15864, Note_on_c, 9, 42, 80
11, 15865, Note_on_c, 9, 35, 0
11, 15865, Note_on_c, 9, 42, 0
11, 15888, Note_on_c, 9, 42, 48
11, 15889, Note_on_c, 9, 42, 0
11, 15912, Note_on_c, 9, 38, 127
11, 15912, Note_on_c, 9, 45, 96
11, 15912, Note_on_c, 9, 42, 80
11, 15913, Note_on_c, 9, 38, 0
11, 15913, Note_on_c, 9, 42, 0
11, 15913, Note_on_c, 9, 45, 0
11, 15936, Note_on_c, 9, 35, 112
11, 15936, Note_on_c, 9, 42, 48
11, 15937, Note_on_c, 9, 35, 0
11, 15937, Note_on_c, 9, 42, 0
11, 15960, Note_on_c, 9, 35, 112
11, 15960, Note_on_c, 9, 42, 80
11, 15961, Note_on_c, 9, 35, 0
11, 15961, Note_on_c, 9, 42, 0
11, 15984, Note_on_c, 9, 42, 48
11, 15984, Note_on_c, 9, 46, 96
11, 15985, Note_on_c, 9, 42, 0
11, 15985, Note_on_c, 9, 46, 0
11, 16008, Note_on_c, 9, 38, 127
11, 16008, Note_on_c, 9, 45, 96
11, 16008, Note_on_c, 9, 42, 80
11, 16009, Note_on_c, 9, 38, 0
11, 16009, Note_on_c, 9, 42, 0
11, 16009, Note_on_c, 9, 45, 0
11, 16032, Note_on_c, 9, 42, 48
11, 16033, Note_on_c, 9, 42, 0
11, 16056, Note_on_c, 9, 35, 112
11, 16056, Note_on_c, 9, 42, 80
11, 16056, Note_on_c, 9, 49, 96
11, 16057, Note_on_c, 9, 35, 0
11, 16057, Note_on_c, 9, 42, 0
11, 16057, Note_on_c, 9, 49, 0
11, 16080, Note_on_c, 9, 42, 48
11, 16081, Note_on_c, 9, 42, 0
11, 16104, Note_on_c, 9, 38, 127
11, 16104, Note_on_c, 9, 45, 96
11, 16104, Note_on_c, 9, 42, 80
11, 16105, Note_on_c, 9, 38, 0
11, 16105, Note_on_c, 9, 42, 0
11, 16105, Note_on_c, 9, 45, 0
11, 16128, Note_on_c, 9, 35, 112
11, 16128, Note_on_c, 9, 42, 48
11, 16129, Note_on_c, 9, 35, 0
11, 16129, Note_on_c, 9, 42, 0
11, 16152, Note_on_c, 9, 35, 112
11, 16152, Note_on_c, 9, 42, 80
11, 16153, Note_on_c, 9, 35, 0
11, 16153, Note_on_c, 9, 42, 0
11, 16176, Note_on_c, 9, 46, 96
11, 16177, Note_on_c, 9, 46, 0
11, 16200, Note_on_c, 9, 38, 127
11, 16200, Note_on_c, 9, 45, 96
11, 16200, Note_on_c, 9, 43, 127
11, 16201, Note_on_c, 9, 38, 0
11, 16201, Note_on_c, 9, 43, 0
11, 16201, Note_on_c, 9, 45, 0
11, 16224, Note_on_c, 9, 38, 127
11, 16224, Note_on_c, 9, 43, 127
11, 16225, Note_on_c, 9, 38, 0
11, 16225, Note_on_c, 9, 43, 0
11, 16248, Note_on_c, 9, 35, 112
11, 16248, Note_on_c, 9, 42, 80
11, 16248, Note_on_c, 9, 49, 96
11, 16249, Note_on_c, 9, 35, 0
11, 16249, Note_on_c, 9, 42, 0
11, 16249, Note_on_c, 9, 49, 0
11, 16272, Note_on_c, 9, 42, 48
11, 16273, Note_on_c, 9, 42, 0
11, 16296, Note_on_c, 9, 35, 112
11, 16296, Note_on_c, 9, 38, 127
11, 16296, Note_on_c, 9, 45, 96
11, 16296, Note_on_c, 9, 42, 80
11, 16297, Note_on_c, 9, 35, 0
11, 16297, Note_on_c, 9, 38, 0
11, 16297, Note_on_c, 9, 42, 0
11, 16297, Note_on_c, 9, 45, 0
11, 16320, Note_on_c, 9, 42, 48
11, 16321, Note_on_c, 9, 42, 0
11, 16344, Note_on_c, 9, 35, 112
11, 16344, Note_on_c, 9, 42, 80
11, 16345, Note_on_c, 9, 35, 0
11, 16345, Note_on_c, 9, 42, 0
11, 16368, Note_on_c, 9, 46, 96
11, 16369, Note_on_c, 9, 46, 0
11, 16392, Note_on_c, 9, 35, 112
11, 16392, Note_on_c, 9, 38, 127
11, 16392, Note_on_c, 9, 45, 96
11, 16392, Note_on_c, 9, 43, 127
11, 16393, Note_on_c, 9, 35, 0
11, 16393, Note_on_c, 9, 38, 0
11, 16393, Note_on_c, 9, 43, 0
11, 16393, Note_on_c, 9, 45, 0
11, 16416, Note_on_c, 9, 42, 80
11, 16417, Note_on_c, 9, 42, 0
11, 16440, Note_on_c, 9, 35, 112
11, 16440, Note_on_c, 9, 42, 80
11, 16441, Note_on_c, 9, 35, 0
11, 16441, Note_on_c, 9, 42, 0
11, 16464, Note_on_c, 9, 42, 48
11, 16465, Note_on_c, 9, 42, 0
11, 16488, Note_on_c, 9, 35, 112
11, 16488, Note_on_c, 9, 38, 127
11, 16488, Note_on_c, 9, 45, 96
11, 16488, Note_on_c, 9, 42, 80
11, 16489, Note_on_c, 9, 35, 0
11, 16489, Note_on_c, 9, 38, 0
11, 16489, Note_on_c, 9, 42, 0
11, 16489, Note_on_c, 9, 45, 0
11, 16512, Note_on_c, 9, 42, 48
11, 16513, Note_on_c, 9, 42, 0
11, 16536, Note_on_c, 9, 35, 112
11, 16536, Note_on_c, 9, 42, 80
11, 16537, Note_on_c, 9, 35, 0
11, 16537, Note_on_c, 9, 42, 0
11, 16560, Note_on_c, 9, 42, 48
11, 16560, Note_on_c, 9, 43, 127
11, 16561, Note_on_c, 9, 42, 0
11, 16561, Note_on_c, 9, 43, 0
11, 16572, Note_on_c, 9, 47, 127
11, 16573, Note_on_c, 9, 47, 0
11, 16584, Note_on_c, 9, 35, 112
11, 16584, Note_on_c, 9, 38, 127
11, 16584, Note_on_c, 9, 45, 96
11, 16584, Note_on_c, 9, 42, 80
11, 16585, Note_on_c, 9, 35, 0
11, 16585, Note_on_c, 9, 38, 0
11, 16585, Note_on_c, 9, 42, 0
11, 16585, Note_on_c, 9, 45, 0
11, 16608, Note_on_c, 9, 35, 112
11, 16608, Note_on_c, 9, 38, 112
11, 16608, Note_on_c, 9, 45, 80
11, 16608, Note_on_c, 9, 52, 112
11, 16609, Note_on_c, 9, 35, 0
11, 16609, Note_on_c, 9, 38, 0
11, 16609, Note_on_c, 9, 45, 0
11, 16609, Note_on_c, 9, 52, 0
11, 16632, Note_on_c, 9, 35, 112
11, 16632, Note_on_c, 9, 42, 96
11, 16632, Note_on_c, 9, 49, 112
11, 16632, Note_on_c, 9, 56, 112
11, 16633, Note_on_c, 9, 35, 0
11, 16633, Note_on_c, 9, 42, 0
11, 16633, Note_on_c, 9, 49, 0
11, 16633, Note_on_c, 9, 56, 0
11, 16656, Note_on_c, 9, 42, 48
11, 16657, Note_on_c, 9, 42, 0
11, 16668, Note_on_c, 9, 42, 64
11, 16669, Note_on_c, 9, 42, 0
11, 16680, Note_on_c, 9, 42, 80
11, 16680, Note_on_c, 9, 56, 112
11, 16680, Note_on_c, 9, 39, 96
11, 16681, Note_on_c, 9, 39, 0
11, 16681, Note_on_c, 9, 42, 0
11, 16681, Note_on_c, 9, 56, 0
11, 16682, Note_on_c, 9, 39, 96
11, 16683, Note_on_c, 9, 39, 0
11, 16704, Note_on_c, 9, 42, 48
11, 16705, Note_on_c, 9, 42, 0
11, 16716, Note_on_c, 9, 42, 64
11, 16717, Note_on_c, 9, 42, 0
11, 16728, Note_on_c, 9, 42, 96
11, 16728, Note_on_c, 9, 56, 112
11, 16728, Note_on_c, 9, 39, 96
11, 16729, Note_on_c, 9, 39, 0
11, 16729, Note_on_c, 9, 42, 0
11, 16729, Note_on_c, 9, 56, 0
11, 16730, Note_on_c, 9, 39, 96
11, 16731, Note_on_c, 9, 39, 0
11, 16752, Note_on_c, 9, 42, 48
11, 16753, Note_on_c, 9, 42, 0
11, 16764, Note_on_c, 9, 42, 64
11, 16765, Note_on_c, 9, 42, 0
11, 16776, Note_on_c, 9, 42, 96
11, 16776, Note_on_c, 9, 56, 112
11, 16776, Note_on_c, 9, 39, 96
11, 16777, Note_on_c, 9, 39, 0
11, 16777, Note_on_c, 9, 42, 0
11, 16777, Note_on_c, 9, 56, 0
11, 16778, Note_on_c, 9, 39, 96
11, 16779, Note_on_c, 9, 39, 0
11, 16800, Note_on_c, 9, 42, 48
11, 16801, Note_on_c, 9, 42, 0
11, 16812, Note_on_c, 9, 42, 64
11, 16813, Note_on_c, 9, 42, 0
11, 16824, Note_on_c, 9, 35, 112
11, 16824, Note_on_c, 9, 42, 96
11, 16824, Note_on_c, 9, 56, 112
11, 16824, Note_on_c, 9, 39, 96
11, 16825, Note_on_c, 9, 35, 0
11, 16825, Note_on_c, 9, 39, 0
11, 16825, Note_on_c, 9, 42, 0
11, 16825, Note_on_c, 9, 56, 0
11, 16826, Note_on_c, 9, 39, 96
11, 16827, Note_on_c, 9, 39, 0
11, 16848, Note_on_c, 9, 42, 48
11, 16849, Note_on_c, 9, 42, 0
11, 16860, Note_on_c, 9, 42, 64
11, 16861, Note_on_c, 9, 42, 0
11, 16872, Note_on_c, 9, 42, 80
11, 16872, Note_on_c, 9, 56, 112
11, 16872, Note_on_c, 9, 39, 96
11, 16873, Note_on_c, 9, 39, 0
11, 16873, Note_on_c, 9, 42, 0
11, 16873, Note_on_c, 9, 56, 0
11, 16874, Note_on_c, 9, 39, 96
11, 16875, Note_on_c, 9, 39, 0
11, 16896, Note_on_c, 9, 42, 48
11, 16897, Note_on_c, 9, 42, 0
11, 16908, Note_on_c, 9, 42, 64
11, 16909, Note_on_c, 9, 42, 0
11, 16920, Note_on_c, 9, 42, 96
11, 16920, Note_on_c, 9, 56, 112
11, 16920, Note_on_c, 9, 39, 96
11, 16921, Note_on_c, 9, 39, 0
11, 16921, Note_on_c, 9, 42, 0
11, 16921, Note_on_c, 9, 56, 0
11, 16922, Note_on_c, 9, 39, 96
11, 16923, Note_on_c, 9, 39, 0
11, 16944, Note_on_c, 9, 42, 48
11, 16945, Note_on_c, 9, 42, 0
11, 16956, Note_on_c, 9, 42, 64
11, 16957, Note_on_c, 9, 42, 0
11, 16968, Note_on_c, 9, 42, 96
11, 16968, Note_on_c, 9, 56, 112
11, 16968, Note_on_c, 9, 39, 96
11, 16969, Note_on_c, 9, 39, 0
11, 16969, Note_on_c, 9, 42, 0
11, 16969, Note_on_c, 9, 56, 0
11, 16970, Note_on_c, 9, 39, 96
11, 16971, Note_on_c, 9, 39, 0
11, 16992, Note_on_c, 9, 42, 48
11, 16993, Note_on_c, 9, 42, 0
11, 17004, Note_on_c, 9, 42, 64
11, 17005, Note_on_c, 9, 42, 0
11, 17016, Note_on_c, 9, 35, 112
11, 17016, Note_on_c, 9, 42, 96
11, 17016, Note_on_c, 9, 56, 112
11, 17016, Note_on_c, 9, 39, 96
11, 17017, Note_on_c, 9, 35, 0
11, 17017, Note_on_c, 9, 39, 0
11, 17017, Note_on_c, 9, 42, 0
11, 17017, Note_on_c, 9, 56, 0
11, 17018, Note_on_c, 9, 39, 96
11, 17019, Note_on_c, 9, 39, 0
11, 17040, Note_on_c, 9, 42, 48
11, 17041, Note_on_c, 9, 42, 0
11, 17052, Note_on_c, 9, 42, 64
11, 17053, Note_on_c, 9, 42, 0
11, 17064, Note_on_c, 9, 42, 80
11, 17064, Note_on_c, 9, 56, 112
11, 17064, Note_on_c, 9, 39, 96
11, 17065, Note_on_c, 9, 39, 0
11, 17065, Note_on_c, 9, 42, 0
11, 17065, Note_on_c, 9, 56, 0
11, 17066, Note_on_c, 9, 39, 96
11, 17067, Note_on_c, 9, 39, 0
11, 17088, Note_on_c, 9, 42, 48
11, 17089, Note_on_c, 9, 42, 0
11, 17100, Note_on_c, 9, 42, 64
11, 17101, Note_on_c, 9, 42, 0
11, 17112, Note_on_c, 9, 42, 96
11, 17112, Note_on_c, 9, 56, 112
11, 17112, Note_on_c, 9, 39, 96
11, 17113, Note_on_c, 9, 39, 0
11, 17113, Note_on_c, 9, 42, 0
11, 17113, Note_on_c, 9, 56, 0
11, 17114, Note_on_c, 9, 39, 96
11, 17115, Note_on_c, 9, 39, 0
11, 17136, Note_on_c, 9, 42, 48
11, 17137, Note_on_c, 9, 42, 0
11, 17148, Note_on_c, 9, 42, 64
11, 17149, Note_on_c, 9, 42, 0
11, 17160, Note_on_c, 9, 42, 96
11, 17160, Note_on_c, 9, 56, 112
11, 17160, Note_on_c, 9, 39, 96
11, 17161, Note_on_c, 9, 39, 0
11, 17161, Note_on_c, 9, 42, 0
11, 17161, Note_on_c, 9, 56, 0
11, 17162, Note_on_c, 9, 39, 96
11, 17163, Note_on_c, 9, 39, 0
11, 17184, Note_on_c, 9, 42, 48
11, 17185, Note_on_c, 9, 42, 0
11, 17196, Note_on_c, 9, 42, 64
11, 17197, Note_on_c, 9, 42, 0
11, 17208, Note_on_c, 9, 35, 112
11, 17208, Note_on_c, 9, 38, 32
11, 17208, Note_on_c, 9, 45, 32
11, 17208, Note_on_c, 9, 42, 96
11, 17208, Note_on_c, 9, 43, 32
11, 17208, Note_on_c, 9, 56, 112
11, 17208, Note_on_c, 9, 39, 96
11, 17209, Note_on_c, 9, 35, 0
11, 17209, Note_on_c, 9, 38, 0
11, 17209, Note_on_c, 9, 39, 0
11, 17209, Note_on_c, 9, 42, 0
11, 17209, Note_on_c, 9, 43, 0
11, 17209, Note_on_c, 9, 45, 0
11, 17209, Note_on_c, 9, 56, 0
11, 17210, Note_on_c, 9, 39, 96
11, 17211, Note_on_c, 9, 39, 0
11, 17232, Note_on_c, 9, 38, 32
11, 17232, Note_on_c, 9, 45, 48
11, 17232, Note_on_c, 9, 42, 48
11, 17232, Note_on_c, 9, 43, 48
11, 17233, Note_on_c, 9, 38, 0
11, 17233, Note_on_c, 9, 42, 0
11, 17233, Note_on_c, 9, 43, 0
11, 17233, Note_on_c, 9, 45, 0
11, 17244, Note_on_c, 9, 42, 64
11, 17245, Note_on_c, 9, 42, 0
11, 17256, Note_on_c, 9, 35, 112
11, 17256, Note_on_c, 9, 38, 48
11, 17256, Note_on_c, 9, 45, 64
11, 17256, Note_on_c, 9, 42, 80
11, 17256, Note_on_c, 9, 43, 64
11, 17256, Note_on_c, 9, 56, 112
11, 17257, Note_on_c, 9, 35, 0
11, 17257, Note_on_c, 9, 38, 0
11, 17257, Note_on_c, 9, 42, 0
11, 17257, Note_on_c, 9, 43, 0
11, 17257, Note_on_c, 9, 45, 0
11, 17257, Note_on_c, 9, 56, 0
11, 17257, Note_on_c, 9, 39, 96
11, 17258, Note_on_c, 9, 39, 0
11, 17258, Note_on_c, 9, 39, 96
11, 17259, Note_on_c, 9, 39, 0
11, 17280, Note_on_c, 9, 38, 64
11, 17280, Note_on_c, 9, 45, 96
11, 17280, Note_on_c, 9, 42, 48
11, 17280, Note_on_c, 9, 43, 80
11, 17281, Note_on_c, 9, 38, 0
11, 17281, Note_on_c, 9, 42, 0
11, 17281, Note_on_c, 9, 43, 0
11, 17281, Note_on_c, 9, 45, 0
11, 17292, Note_on_c, 9, 42, 64
11, 17293, Note_on_c, 9, 42, 0
11, 17304, Note_on_c, 9, 35, 112
11, 17304, Note_on_c, 9, 38, 80
11, 17304, Note_on_c, 9, 45, 80
11, 17304, Note_on_c, 9, 42, 96
11, 17304, Note_on_c, 9, 43, 96
11, 17304, Note_on_c, 9, 56, 112
11, 17304, Note_on_c, 9, 39, 96
11, 17305, Note_on_c, 9, 35, 0
11, 17305, Note_on_c, 9, 38, 0
11, 17305, Note_on_c, 9, 39, 0
11, 17305, Note_on_c, 9, 42, 0
11, 17305, Note_on_c, 9, 43, 0
11, 17305, Note_on_c, 9, 45, 0
11, 17305, Note_on_c, 9, 56, 0
11, 17306, Note_on_c, 9, 39, 96
11, 17307, Note_on_c, 9, 39, 0
11, 17328, Note_on_c, 9, 38, 96
11, 17328, Note_on_c, 9, 45, 96
11, 17328, Note_on_c, 9, 42, 48
11, 17328, Note_on_c, 9, 43, 96
11, 17329, Note_on_c, 9, 38, 0
11, 17329, Note_on_c, 9, 42, 0
11, 17329, Note_on_c, 9, 43, 0
11, 17329, Note_on_c, 9, 45, 0
11, 17340, Note_on_c, 9, 42, 64
11, 17341, Note_on_c, 9, 42, 0
11, 17352, Note_on_c, 9, 35, 112
11, 17352, Note_on_c, 9, 38, 112
11, 17352, Note_on_c, 9, 45, 112
11, 17352, Note_on_c, 9, 42, 96
11, 17352, Note_on_c, 9, 43, 112
11, 17352, Note_on_c, 9, 56, 112
11, 17352, Note_on_c, 9, 39, 96
11, 17353, Note_on_c, 9, 35, 0
11, 17353, Note_on_c, 9, 38, 0
11, 17353, Note_on_c, 9, 39, 0
11, 17353, Note_on_c, 9, 42, 0
11, 17353, Note_on_c, 9, 43, 0
11, 17353, Note_on_c, 9, 45, 0
11, 17353, Note_on_c, 9, 56, 0
11, 17354, Note_on_c, 9, 39, 96
11, 17355, Note_on_c, 9, 39, 0
11, 17376, Note_on_c, 9, 38, 127
11, 17376, Note_on_c, 9, 45, 127
11, 17376, Note_on_c, 9, 42, 48
11, 17376, Note_on_c, 9, 43, 127
11, 17377, Note_on_c, 9, 38, 0
11, 17377, Note_on_c, 9, 42, 0
11, 17377, Note_on_c, 9, 43, 0
11, 17377, Note_on_c, 9, 45, 0
11, 17388, Note_on_c, 9, 42, 64
11, 17389, Note_on_c, 9, 42, 0
11, 17400, Note_on_c, 9, 35, 112
11, 17400, Note_on_c, 9, 42, 80
11, 17400, Note_on_c, 9, 49, 96
11, 17401, Note_on_c, 9, 35, 0
11, 17401, Note_on_c, 9, 42, 0
11, 17401, Note_on_c, 9, 49, 0
11, 17424, Note_on_c, 9, 42, 48
11, 17425, Note_on_c, 9, 42, 0
11, 17448, Note_on_c, 9, 38, 127
11, 17448, Note_on_c, 9, 45, 96
11, 17448, Note_on_c, 9, 42, 80
11, 17449, Note_on_c, 9, 38, 0
11, 17449, Note_on_c, 9, 42, 0
11, 17449, Note_on_c, 9, 45, 0
11, 17472, Note_on_c, 9, 35, 112
11, 17472, Note_on_c, 9, 42, 48
11, 17473, Note_on_c, 9, 35, 0
11, 17473, Note_on_c, 9, 42, 0
11, 17496, Note_on_c, 9, 35, 112
11, 17496, Note_on_c, 9, 42, 80
11, 17497, Note_on_c, 9, 35, 0
11, 17497, Note_on_c, 9, 42, 0
11, 17520, Note_on_c, 9, 42, 48
11, 17520, Note_on_c, 9, 46, 96
11, 17521, Note_on_c, 9, 42, 0
11, 17521, Note_on_c, 9, 46, 0
11, 17544, Note_on_c, 9, 38, 127
11, 17544, Note_on_c, 9, 45, 96
11, 17544, Note_on_c, 9, 42, 80
11, 17545, Note_on_c, 9, 38, 0
11, 17545, Note_on_c, 9, 42, 0
11, 17545, Note_on_c, 9, 45, 0
11, 17568, Note_on_c, 9, 42, 48
11, 17569, Note_on_c, 9, 42, 0
11, 17592, Note_on_c, 9, 35, 112
11, 17592, Note_on_c, 9, 42, 80
11, 17593, Note_on_c, 9, 35, 0
11, 17593, Note_on_c, 9, 42, 0
11, 17616, Note_on_c, 9, 42, 48
11, 17617, Note_on_c, 9, 42, 0
11, 17640, Note_on_c, 9, 38, 127
11, 17640, Note_on_c, 9, 45, 96
11, 17640, Note_on_c, 9, 42, 80
11, 17641, Note_on_c, 9, 38, 0
11, 17641, Note_on_c, 9, 42, 0
11, 17641, Note_on_c, 9, 45, 0
11, 17664, Note_on_c, 9, 35, 112
11, 17664, Note_on_c, 9, 42, 48
11, 17665, Note_on_c, 9, 35, 0
11, 17665, Note_on_c, 9, 42, 0
11, 17688, Note_on_c, 9, 35, 112
11, 17688, Note_on_c, 9, 42, 80
11, 17689, Note_on_c, 9, 35, 0
11, 17689, Note_on_c, 9, 42, 0
11, 17712, Note_on_c, 9, 42, 48
11, 17712, Note_on_c, 9, 46, 96
11, 17713, Note_on_c, 9, 42, 0
11, 17713, Note_on_c, 9, 46, 0
11, 17736, Note_on_c, 9, 38, 127
11, 17736, Note_on_c, 9, 45, 96
11, 17736, Note_on_c, 9, 42, 80
11, 17737, Note_on_c, 9, 38, 0
11, 17737, Note_on_c, 9, 42, 0
11, 17737, Note_on_c, 9, 45, 0
11, 17760, Note_on_c, 9, 42, 48
11, 17761, Note_on_c, 9, 42, 0
11, 17784, Note_on_c, 9, 35, 112
11, 17784, Note_on_c, 9, 42, 80
11, 17785, Note_on_c, 9, 35, 0
11, 17785, Note_on_c, 9, 42, 0
11, 17808, Note_on_c, 9, 42, 48
11, 17809, Note_on_c, 9, 42, 0
11, 17832, Note_on_c, 9, 38, 127
11, 17832, Note_on_c, 9, 45, 96
11, 17832, Note_on_c, 9, 42, 80
11, 17833, Note_on_c, 9, 38, 0
11, 17833, Note_on_c, 9, 42, 0
11, 17833, Note_on_c, 9, 45, 0
11, 17856, Note_on_c, 9, 35, 112
11, 17856, Note_on_c, 9, 42, 48
11, 17857, Note_on_c, 9, 35, 0
11, 17857, Note_on_c, 9, 42, 0
11, 17880, Note_on_c, 9, 35, 112
11, 17880, Note_on_c, 9, 42, 80
11, 17881, Note_on_c, 9, 35, 0
11, 17881, Note_on_c, 9, 42, 0
11, 17904, Note_on_c, 9, 42, 48
11, 17904, Note_on_c, 9, 46, 96
11, 17905, Note_on_c, 9, 42, 0
11, 17905, Note_on_c, 9, 46, 0
11, 17928, Note_on_c, 9, 38, 127
11, 17928, Note_on_c, 9, 45, 96
11, 17928, Note_on_c, 9, 42, 80
11, 17929, Note_on_c, 9, 38, 0
11, 17929, Note_on_c, 9, 42, 0
11, 17929, Note_on_c, 9, 45, 0
11, 17952, Note_on_c, 9, 42, 48
11, 17953, Note_on_c, 9, 42, 0
11, 17976, Note_on_c, 9, 35, 112
11, 17976, Note_on_c, 9, 42, 80
11, 17977, Note_on_c, 9, 35, 0
11, 17977, Note_on_c, 9, 42, 0
11, 18000, Note_on_c, 9, 42, 48
11, 18001, Note_on_c, 9, 42, 0
11, 18024, Note_on_c, 9, 38, 127
11, 18024, Note_on_c, 9, 45, 96
11, 18024, Note_on_c, 9, 42, 80
11, 18025, Note_on_c, 9, 38, 0
11, 18025, Note_on_c, 9, 42, 0
11, 18025, Note_on_c, 9, 45, 0
11, 18048, Note_on_c, 9, 35, 112
11, 18048, Note_on_c, 9, 42, 48
11, 18049, Note_on_c, 9, 35, 0
11, 18049, Note_on_c, 9, 42, 0
11, 18072, Note_on_c, 9, 35, 112
11, 18072, Note_on_c, 9, 42, 80
11, 18073, Note_on_c, 9, 35, 0
11, 18073, Note_on_c, 9, 42, 0
11, 18096, Note_on_c, 9, 42, 48
11, 18096, Note_on_c, 9, 46, 96
11, 18097, Note_on_c, 9, 42, 0
11, 18097, Note_on_c, 9, 46, 0
11, 18120, Note_on_c, 9, 38, 127
11, 18120, Note_on_c, 9, 45, 96
11, 18120, Note_on_c, 9, 42, 80
11, 18121, Note_on_c, 9, 38, 0
11, 18121, Note_on_c, 9, 42, 0
11, 18121, Note_on_c, 9, 45, 0
11, 18144, Note_on_c, 9, 42, 48
11, 18145, Note_on_c, 9, 42, 0
11, 18168, Note_on_c, 9, 35, 112
11, 18168, Note_on_c, 9, 42, 80
11, 18169, Note_on_c, 9, 35, 0
11, 18169, Note_on_c, 9, 42, 0
11, 18192, Note_on_c, 9, 42, 48
11, 18193, Note_on_c, 9, 42, 0
11, 18216, Note_on_c, 9, 38, 127
11, 18216, Note_on_c, 9, 45, 96
11, 18216, Note_on_c, 9, 42, 80
11, 18217, Note_on_c, 9, 38, 0
11, 18217, Note_on_c, 9, 42, 0
11, 18217, Note_on_c, 9, 45, 0
11, 18240, Note_on_c, 9, 35, 112
11, 18240, Note_on_c, 9, 42, 48
11, 18241, Note_on_c, 9, 35, 0
11, 18241, Note_on_c, 9, 42, 0
11, 18264, Note_on_c, 9, 35, 112
11, 18264, Note_on_c, 9, 42, 80
11, 18265, Note_on_c, 9, 35, 0
11, 18265, Note_on_c, 9, 42, 0
11, 18288, Note_on_c, 9, 42, 48
11, 18288, Note_on_c, 9, 46, 96
11, 18289, Note_on_c, 9, 42, 0
11, 18289, Note_on_c, 9, 46, 0
11, 18312, Note_on_c, 9, 38, 127
11, 18312, Note_on_c, 9, 45, 96
11, 18312, Note_on_c, 9, 42, 80
11, 18313, Note_on_c, 9, 38, 0
11, 18313, Note_on_c, 9, 42, 0
11, 18313, Note_on_c, 9, 45, 0
11, 18336, Note_on_c, 9, 42, 48
11, 18337, Note_on_c, 9, 42, 0
11, 18360, Note_on_c, 9, 35, 112
11, 18360, Note_on_c, 9, 42, 80
11, 18361, Note_on_c, 9, 35, 0
11, 18361, Note_on_c, 9, 42, 0
11, 18384, Note_on_c, 9, 42, 48
11, 18385, Note_on_c, 9, 42, 0
11, 18408, Note_on_c, 9, 38, 127
11, 18408, Note_on_c, 9, 45, 96
11, 18408, Note_on_c, 9, 42, 80
11, 18409, Note_on_c, 9, 38, 0
11, 18409, Note_on_c, 9, 42, 0
11, 18409, Note_on_c, 9, 45, 0
11, 18432, Note_on_c, 9, 35, 112
11, 18432, Note_on_c, 9, 42, 48
11, 18433, Note_on_c, 9, 35, 0
11, 18433, Note_on_c, 9, 42, 0
11, 18456, Note_on_c, 9, 35, 112
11, 18456, Note_on_c, 9, 42, 80
11, 18457, Note_on_c, 9, 35, 0
11, 18457, Note_on_c, 9, 42, 0
11, 18480, Note_on_c, 9, 42, 48
11, 18480, Note_on_c, 9, 46, 96
11, 18481, Note_on_c, 9, 42, 0
11, 18481, Note_on_c, 9, 46, 0
11, 18504, Note_on_c, 9, 38, 127
11, 18504, Note_on_c, 9, 45, 96
11, 18504, Note_on_c, 9, 42, 80
11, 18505, Note_on_c, 9, 38, 0
11, 18505, Note_on_c, 9, 42, 0
11, 18505, Note_on_c, 9, 45, 0
11, 18528, Note_on_c, 9, 42, 48
11, 18529, Note_on_c, 9, 42, 0
11, 18552, Note_on_c, 9, 35, 112
11, 18552, Note_on_c, 9, 42, 80
11, 18553, Note_on_c, 9, 35, 0
11, 18553, Note_on_c, 9, 42, 0
11, 18576, Note_on_c, 9, 42, 48
11, 18577, Note_on_c, 9, 42, 0
11, 18600, Note_on_c, 9, 38, 127
11, 18600, Note_on_c, 9, 45, 96
11, 18600, Note_on_c, 9, 42, 80
11, 18601, Note_on_c, 9, 38, 0
11, 18601, Note_on_c, 9, 42, 0
11, 18601, Note_on_c, 9, 45, 0
11, 18624, Note_on_c, 9, 35, 112
11, 18624, Note_on_c, 9, 42, 48
11, 18625, Note_on_c, 9, 35, 0
11, 18625, Note_on_c, 9, 42, 0
11, 18648, Note_on_c, 9, 35, 112
11, 18648, Note_on_c, 9, 42, 80
11, 18649, Note_on_c, 9, 35, 0
11, 18649, Note_on_c, 9, 42, 0
11, 18672, Note_on_c, 9, 42, 48
11, 18672, Note_on_c, 9, 46, 96
11, 18673, Note_on_c, 9, 42, 0
11, 18673, Note_on_c, 9, 46, 0
11, 18696, Note_on_c, 9, 38, 127
11, 18696, Note_on_c, 9, 45, 96
11, 18696, Note_on_c, 9, 42, 80
11, 18697, Note_on_c, 9, 38, 0
11, 18697, Note_on_c, 9, 42, 0
11, 18697, Note_on_c, 9, 45, 0
11, 18720, Note_on_c, 9, 42, 48
11, 18721, Note_on_c, 9, 42, 0
11, 18744, Note_on_c, 9, 35, 112
11, 18744, Note_on_c, 9, 42, 80
11, 18745, Note_on_c, 9, 35, 0
11, 18745, Note_on_c, 9, 42, 0
11, 18768, Note_on_c, 9, 42, 48
11, 18769, Note_on_c, 9, 42, 0
11, 18792, Note_on_c, 9, 38, 127
11, 18792, Note_on_c, 9, 45, 96
11, 18792, Note_on_c, 9, 42, 80
11, 18793, Note_on_c, 9, 38, 0
11, 18793, Note_on_c, 9, 42, 0
11, 18793, Note_on_c, 9, 45, 0
11, 18816, Note_on_c, 9, 35, 112
11, 18816, Note_on_c, 9, 42, 48
11, 18817, Note_on_c, 9, 35, 0
11, 18817, Note_on_c, 9, 42, 0
11, 18840, Note_on_c, 9, 35, 112
11, 18840, Note_on_c, 9, 42, 80
11, 18841, Note_on_c, 9, 35, 0
11, 18841, Note_on_c, 9, 42, 0
11, 18864, Note_on_c, 9, 42, 48
11, 18864, Note_on_c, 9, 46, 96
11, 18865, Note_on_c, 9, 42, 0
11, 18865, Note_on_c, 9, 46, 0
11, 18888, Note_on_c, 9, 38, 127
11, 18888, Note_on_c, 9, 45, 96
11, 18888, Note_on_c, 9, 42, 80
11, 18889, Note_on_c, 9, 38, 0
11, 18889, Note_on_c, 9, 42, 0
11, 18889, Note_on_c, 9, 45, 0
11, 18912, Note_on_c, 9, 38, 112
11, 18912, Note_on_c, 9, 45, 80
11, 18912, Note_on_c, 9, 46, 96
11, 18913, Note_on_c, 9, 38, 0
11, 18913, Note_on_c, 9, 45, 0
11, 18913, Note_on_c, 9, 46, 0
11, 18936, Note_on_c, 9, 35, 112
11, 18936, Note_on_c, 9, 42, 80
11, 18937, Note_on_c, 9, 35, 0
11, 18937, Note_on_c, 9, 42, 0
11, 18960, Note_on_c, 9, 42, 48
11, 18961, Note_on_c, 9, 42, 0
11, 18984, Note_on_c, 9, 38, 127
11, 18984, Note_on_c, 9, 45, 96
11, 18984, Note_on_c, 9, 42, 80
11, 18985, Note_on_c, 9, 38, 0
11, 18985, Note_on_c, 9, 42, 0
11, 18985, Note_on_c, 9, 45, 0
11, 19008, Note_on_c, 9, 35, 112
11, 19008, Note_on_c, 9, 42, 48
11, 19009, Note_on_c, 9, 35, 0
11, 19009, Note_on_c, 9, 42, 0
11, 19032, Note_on_c, 9, 35, 112
11, 19032, Note_on_c, 9, 42, 80
11, 19033, Note_on_c, 9, 35, 0
11, 19033, Note_on_c, 9, 42, 0
11, 19056, Note_on_c, 9, 42, 48
11, 19056, Note_on_c, 9, 46, 96
11, 19057, Note_on_c, 9, 42, 0
11, 19057, Note_on_c, 9, 46, 0
11, 19080, Note_on_c, 9, 38, 127
11, 19080, Note_on_c, 9, 45, 96
11, 19080, Note_on_c, 9, 42, 80
11, 19081, Note_on_c, 9, 38, 0
11, 19081, Note_on_c, 9, 42, 0
11, 19081, Note_on_c, 9, 45, 0
11, 19104, Note_on_c, 9, 42, 48
11, 19105, Note_on_c, 9, 42, 0
11, 19128, Note_on_c, 9, 35, 112
11, 19128, Note_on_c, 9, 42, 80
11, 19129, Note_on_c, 9, 35, 0
11, 19129, Note_on_c, 9, 42, 0
11, 19152, Note_on_c, 9, 42, 48
11, 19153, Note_on_c, 9, 42, 0
11, 19176, Note_on_c, 9, 38, 127
11, 19176, Note_on_c, 9, 45, 96
11, 19176, Note_on_c, 9, 42, 80
11, 19177, Note_on_c, 9, 38, 0
11, 19177, Note_on_c, 9, 42, 0
11, 19177, Note_on_c, 9, 45, 0
11, 19200, Note_on_c, 9, 35, 112
11, 19200, Note_on_c, 9, 42, 48
11, 19201, Note_on_c, 9, 35, 0
11, 19201, Note_on_c, 9, 42, 0
11, 19224, Note_on_c, 9, 35, 112
11, 19224, Note_on_c, 9, 42, 80
11, 19225, Note_on_c, 9, 35, 0
11, 19225, Note_on_c, 9, 42, 0
11, 19248, Note_on_c, 9, 42, 48
11, 19248, Note_on_c, 9, 46, 96
11, 19249, Note_on_c, 9, 42, 0
11, 19249, Note_on_c, 9, 46, 0
11, 19272, Note_on_c, 9, 38, 127
11, 19272, Note_on_c, 9, 45, 96
11, 19272, Note_on_c, 9, 42, 80
11, 19273, Note_on_c, 9, 38, 0
11, 19273, Note_on_c, 9, 42, 0
11, 19273, Note_on_c, 9, 45, 0
11, 19296, Note_on_c, 9, 42, 48
11, 19297, Note_on_c, 9, 42, 0
11, 19320, Note_on_c, 9, 35, 112
11, 19320, Note_on_c, 9, 42, 80
11, 19321, Note_on_c, 9, 35, 0
11, 19321, Note_on_c, 9, 42, 0
11, 19344, Note_on_c, 9, 42, 48
11, 19345, Note_on_c, 9, 42, 0
11, 19368, Note_on_c, 9, 38, 127
11, 19368, Note_on_c, 9, 45, 96
11, 19368, Note_on_c, 9, 42, 80
11, 19369, Note_on_c, 9, 38, 0
11, 19369, Note_on_c, 9, 42, 0
11, 19369, Note_on_c, 9, 45, 0
11, 19392, Note_on_c, 9, 35, 112
11, 19392, Note_on_c, 9, 42, 48
11, 19393, Note_on_c, 9, 35, 0
11, 19393, Note_on_c, 9, 42, 0
11, 19416, Note_on_c, 9, 35, 112
11, 19416, Note_on_c, 9, 42, 80
11, 19417, Note_on_c, 9, 35, 0
11, 19417, Note_on_c, 9, 42, 0
11, 19440, Note_on_c, 9, 42, 48
11, 19440, Note_on_c, 9, 46, 96
11, 19441, Note_on_c, 9, 42, 0
11, 19441, Note_on_c, 9, 46, 0
11, 19464, Note_on_c, 9, 38, 127
11, 19464, Note_on_c, 9, 45, 96
11, 19464, Note_on_c, 9, 42, 80
11, 19465, Note_on_c, 9, 38, 0
11, 19465, Note_on_c, 9, 42, 0
11, 19465, Note_on_c, 9, 45, 0
11, 19488, Note_on_c, 9, 42, 48
11, 19489, Note_on_c, 9, 42, 0
11, 19512, Note_on_c, 9, 35, 112
11, 19512, Note_on_c, 9, 42, 80
11, 19513, Note_on_c, 9, 35, 0
11, 19513, Note_on_c, 9, 42, 0
11, 19536, Note_on_c, 9, 42, 48
11, 19537, Note_on_c, 9, 42, 0
11, 19560, Note_on_c, 9, 38, 127
11, 19560, Note_on_c, 9, 45, 96
11, 19560, Note_on_c, 9, 42, 80
11, 19561, Note_on_c, 9, 38, 0
11, 19561, Note_on_c, 9, 42, 0
11, 19561, Note_on_c, 9, 45, 0
11, 19584, Note_on_c, 9, 35, 112
11, 19584, Note_on_c, 9, 42, 48
11, 19585, Note_on_c, 9, 35, 0
11, 19585, Note_on_c, 9, 42, 0
11, 19608, Note_on_c, 9, 35, 112
11, 19608, Note_on_c, 9, 42, 80
11, 19609, Note_on_c, 9, 35, 0
11, 19609, Note_on_c, 9, 42, 0
11, 19632, Note_on_c, 9, 42, 48
11, 19632, Note_on_c, 9, 46, 96
11, 19633, Note_on_c, 9, 42, 0
11, 19633, Note_on_c, 9, 46, 0
11, 19656, Note_on_c, 9, 38, 127
11, 19656, Note_on_c, 9, 45, 96
11, 19656, Note_on_c, 9, 42, 80
11, 19657, Note_on_c, 9, 38, 0
11, 19657, Note_on_c, 9, 42, 0
11, 19657, Note_on_c, 9, 45, 0
11, 19680, Note_on_c, 9, 42, 48
11, 19681, Note_on_c, 9, 42, 0
11, 19704, Note_on_c, 9, 35, 112
11, 19704, Note_on_c, 9, 42, 80
11, 19705, Note_on_c, 9, 35, 0
11, 19705, Note_on_c, 9, 42, 0
11, 19728, Note_on_c, 9, 42, 48
11, 19729, Note_on_c, 9, 42, 0
11, 19752, Note_on_c, 9, 38, 127
11, 19752, Note_on_c, 9, 45, 96
11, 19752, Note_on_c, 9, 42, 80
11, 19753, Note_on_c, 9, 38, 0
11, 19753, Note_on_c, 9, 42, 0
11, 19753, Note_on_c, 9, 45, 0
11, 19776, Note_on_c, 9, 35, 112
11, 19776, Note_on_c, 9, 42, 48
11, 19777, Note_on_c, 9, 35, 0
11, 19777, Note_on_c, 9, 42, 0
11, 19800, Note_on_c, 9, 35, 112
11, 19800, Note_on_c, 9, 42, 80
11, 19801, Note_on_c, 9, 35, 0
11, 19801, Note_on_c, 9, 42, 0
11, 19824, Note_on_c, 9, 42, 48
11, 19824, Note_on_c, 9, 46, 96
11, 19825, Note_on_c, 9, 42, 0
11, 19825, Note_on_c, 9, 46, 0
11, 19848, Note_on_c, 9, 38, 127
11, 19848, Note_on_c, 9, 45, 96
11, 19848, Note_on_c, 9, 42, 80
11, 19849, Note_on_c, 9, 38, 0
11, 19849, Note_on_c, 9, 42, 0
11, 19849, Note_on_c, 9, 45, 0
11, 19872, Note_on_c, 9, 42, 48
11, 19873, Note_on_c, 9, 42, 0
11, 19896, Note_on_c, 9, 35, 112
11, 19896, Note_on_c, 9, 42, 80
11, 19897, Note_on_c, 9, 35, 0
11, 19897, Note_on_c, 9, 42, 0
11, 19920, Note_on_c, 9, 42, 48
11, 19921, Note_on_c, 9, 42, 0
11, 19944, Note_on_c, 9, 38, 127
11, 19944, Note_on_c, 9, 45, 96
11, 19944, Note_on_c, 9, 42, 80
11, 19945, Note_on_c, 9, 38, 0
11, 19945, Note_on_c, 9, 42, 0
11, 19945, Note_on_c, 9, 45, 0
11, 19968, Note_on_c, 9, 35, 112
11, 19968, Note_on_c, 9, 42, 48
11, 19969, Note_on_c, 9, 35, 0
11, 19969, Note_on_c, 9, 42, 0
11, 19992, Note_on_c, 9, 35, 112
11, 19992, Note_on_c, 9, 42, 80
11, 19993, Note_on_c, 9, 35, 0
11, 19993, Note_on_c, 9, 42, 0
11, 20016, Note_on_c, 9, 42, 48
11, 20016, Note_on_c, 9, 46, 96
11, 20017, Note_on_c, 9, 42, 0
11, 20017, Note_on_c, 9, 46, 0
11, 20040, Note_on_c, 9, 38, 127
11, 20040, Note_on_c, 9, 45, 96
11, 20040, Note_on_c, 9, 42, 80
11, 20041, Note_on_c, 9, 38, 0
11, 20041, Note_on_c, 9, 42, 0
11, 20041, Note_on_c, 9, 45, 0
11, 20064, Note_on_c, 9, 42, 48
11, 20065, Note_on_c, 9, 42, 0
11, 20088, Note_on_c, 9, 35, 112
11, 20088, Note_on_c, 9, 42, 80
11, 20089, Note_on_c, 9, 35, 0
11, 20089, Note_on_c, 9, 42, 0
11, 20112, Note_on_c, 9, 42, 48
11, 20113, Note_on_c, 9, 42, 0
11, 20136, Note_on_c, 9, 38, 127
11, 20136, Note_on_c, 9, 45, 96
11, 20136, Note_on_c, 9, 42, 80
11, 20137, Note_on_c, 9, 38, 0
11, 20137, Note_on_c, 9, 42, 0
11, 20137, Note_on_c, 9, 45, 0
11, 20160, Note_on_c, 9, 35, 112
11, 20160, Note_on_c, 9, 42, 48
11, 20161, Note_on_c, 9, 35, 0
11, 20161, Note_on_c, 9, 42, 0
11, 20184, Note_on_c, 9, 35, 112
11, 20184, Note_on_c, 9, 42, 80
11, 20185, Note_on_c, 9, 35, 0
11, 20185, Note_on_c, 9, 42, 0
11, 20232, Note_on_c, 9, 38, 127
11, 20232, Note_on_c, 9, 45, 96
11, 20232, Note_on_c, 9, 49, 96
11, 20232, Note_on_c, 9, 52, 112
11, 20233, Note_on_c, 9, 38, 0
11, 20233, Note_on_c, 9, 45, 0
11, 20233, Note_on_c, 9, 49, 0
11, 20233, Note_on_c, 9, 52, 0
11, 20280, Note_on_c, 9, 35, 112
11, 20280, Note_on_c, 9, 45, 64
11, 20280, Note_on_c, 9, 43, 48
11, 20281, Note_on_c, 9, 35, 0
11, 20281, Note_on_c, 9, 43, 0
11, 20281, Note_on_c, 9, 45, 0
11, 20304, Note_on_c, 9, 45, 64
11, 20304, Note_on_c, 9, 43, 48
11, 20305, Note_on_c, 9, 43, 0
11, 20305, Note_on_c, 9, 45, 0
11, 20328, Note_on_c, 9, 35, 112
11, 20328, Note_on_c, 9, 45, 80
11, 20328, Note_on_c, 9, 43, 64
11, 20329, Note_on_c, 9, 35, 0
11, 20329, Note_on_c, 9, 43, 0
11, 20329, Note_on_c, 9, 45, 0
11, 20352, Note_on_c, 9, 45, 80
11, 20352, Note_on_c, 9, 43, 80
11, 20353, Note_on_c, 9, 43, 0
11, 20353, Note_on_c, 9, 45, 0
11, 20376, Note_on_c, 9, 35, 64
11, 20376, Note_on_c, 9, 45, 96
11, 20376, Note_on_c, 9, 43, 96
11, 20377, Note_on_c, 9, 35, 0
11, 20377, Note_on_c, 9, 43, 0
11, 20377, Note_on_c, 9, 45, 0
11, 20400, Note_on_c, 9, 35, 80
11, 20400, Note_on_c, 9, 45, 96
11, 20400, Note_on_c, 9, 43, 112
11, 20401, Note_on_c, 9, 35, 0
11, 20401, Note_on_c, 9, 43, 0
11, 20401, Note_on_c, 9, 45, 0
11, 20424, Note_on_c, 9, 35, 96
11, 20424, Note_on_c, 9, 45, 112
11, 20424, Note_on_c, 9, 43, 127
11, 20425, Note_on_c, 9, 35, 0
11, 20425, Note_on_c, 9, 43, 0
11, 20425, Note_on_c, 9, 45, 0
11, 20448, Note_on_c, 9, 35, 112
11, 20448, Note_on_c, 9, 45, 127
11, 20448, Note_on_c, 9, 43, 127
11, 20449, Note_on_c, 9, 35, 0
11, 20449, Note_on_c, 9, 43, 0
11, 20449, Note_on_c, 9, 45, 0
11, 20472, Note_on_c, 9, 35, 112
11, 20472, Note_on_c, 9, 42, 80
11, 20472, Note_on_c, 9, 49, 96
11, 20473, Note_on_c, 9, 35, 0
11, 20473, Note_on_c, 9, 42, 0
11, 20473, Note_on_c, 9, 49, 0
11, 20496, Note_on_c, 9, 42, 48
11, 20496, Note_on_c, 9, 62, 127
11, 20497, Note_on_c, 9, 42, 0
11, 20497, Note_on_c, 9, 62, 0
11, 20520, Note_on_c, 9, 38, 127
11, 20520, Note_on_c, 9, 45, 96
11, 20520, Note_on_c, 9, 42, 80
11, 20520, Note_on_c, 9, 39, 112
11, 20521, Note_on_c, 9, 38, 0
11, 20521, Note_on_c, 9, 39, 0
11, 20521, Note_on_c, 9, 42, 0
11, 20521, Note_on_c, 9, 45, 0
11, 20544, Note_on_c, 9, 35, 112
11, 20544, Note_on_c, 9, 42, 48
11, 20545, Note_on_c, 9, 35, 0
11, 20545, Note_on_c, 9, 42, 0
11, 20568, Note_on_c, 9, 35, 112
11, 20568, Note_on_c, 9, 42, 80
11, 20568, Note_on_c, 9, 62, 127
11, 20569, Note_on_c, 9, 35, 0
11, 20569, Note_on_c, 9, 42, 0
11, 20569, Note_on_c, 9, 62, 0
11, 20592, Note_on_c, 9, 46, 96
11, 20592, Note_on_c, 9, 63, 127
11, 20593, Note_on_c, 9, 46, 0
11, 20593, Note_on_c, 9, 63, 0
11, 20616, Note_on_c, 9, 38, 127
11, 20616, Note_on_c, 9, 45, 96
11, 20616, Note_on_c, 9, 43, 127
11, 20616, Note_on_c, 9, 39, 112
11, 20617, Note_on_c, 9, 38, 0
11, 20617, Note_on_c, 9, 39, 0
11, 20617, Note_on_c, 9, 43, 0
11, 20617, Note_on_c, 9, 45, 0
11, 20640, Note_on_c, 9, 42, 80
11, 20640, Note_on_c, 9, 39, 64
11, 20641, Note_on_c, 9, 39, 0
11, 20641, Note_on_c, 9, 42, 0
11, 20664, Note_on_c, 9, 35, 112
11, 20664, Note_on_c, 9, 42, 80
11, 20664, Note_on_c, 9, 63, 127
11, 20665, Note_on_c, 9, 35, 0
11, 20665, Note_on_c, 9, 42, 0
11, 20665, Note_on_c, 9, 63, 0
11, 20688, Note_on_c, 9, 42, 48
11, 20688, Note_on_c, 9, 62, 127
11, 20689, Note_on_c, 9, 42, 0
11, 20689, Note_on_c, 9, 62, 0
11, 20712, Note_on_c, 9, 38, 127
11, 20712, Note_on_c, 9, 45, 96
11, 20712, Note_on_c, 9, 42, 80
11, 20712, Note_on_c, 9, 39, 112
11, 20713, Note_on_c, 9, 38, 0
11, 20713, Note_on_c, 9, 39, 0
11, 20713, Note_on_c, 9, 42, 0
11, 20713, Note_on_c, 9, 45, 0
11, 20736, Note_on_c, 9, 35, 112
11, 20736, Note_on_c, 9, 42, 48
11, 20737, Note_on_c, 9, 35, 0
11, 20737, Note_on_c, 9, 42, 0
11, 20760, Note_on_c, 9, 35, 112
11, 20760, Note_on_c, 9, 42, 80
11, 20761, Note_on_c, 9, 35, 0
11, 20761, Note_on_c, 9, 42, 0
11, 20784, Note_on_c, 9, 46, 96
11, 20784, Note_on_c, 9, 43, 127
11, 20784, Note_on_c, 9, 63, 127
11, 20785, Note_on_c, 9, 43, 0
11, 20785, Note_on_c, 9, 46, 0
11, 20785, Note_on_c, 9, 63, 0
11, 20808, Note_on_c, 9, 38, 127
11, 20808, Note_on_c, 9, 45, 96
11, 20808, Note_on_c, 9, 39, 112
11, 20808, Note_on_c, 9, 64, 127
11, 20809, Note_on_c, 9, 38, 0
11, 20809, Note_on_c, 9, 39, 0
11, 20809, Note_on_c, 9, 45, 0
11, 20809, Note_on_c, 9, 64, 0
11, 20832, Note_on_c, 9, 42, 80
11, 20832, Note_on_c, 9, 39, 64
11, 20832, Note_on_c, 9, 64, 127
11, 20833, Note_on_c, 9, 39, 0
11, 20833, Note_on_c, 9, 42, 0
11, 20833, Note_on_c, 9, 64, 0
11, 20856, Note_on_c, 9, 35, 112
11, 20856, Note_on_c, 9, 42, 80
11, 20857, Note_on_c, 9, 35, 0
11, 20857, Note_on_c, 9, 42, 0
11, 20880, Note_on_c, 9, 42, 48
11, 20880, Note_on_c, 9, 62, 127
11, 20881, Note_on_c, 9, 42, 0
11, 20881, Note_on_c, 9, 62, 0
11, 20904, Note_on_c, 9, 38, 127
11, 20904, Note_on_c, 9, 45, 96
11, 20904, Note_on_c, 9, 42, 80
11, 20904, Note_on_c, 9, 39, 112
11, 20905, Note_on_c, 9, 38, 0
11, 20905, Note_on_c, 9, 39, 0
11, 20905, Note_on_c, 9, 42, 0
11, 20905, Note_on_c, 9, 45, 0
11, 20928, Note_on_c, 9, 35, 112
11, 20928, Note_on_c, 9, 42, 48
11, 20929, Note_on_c, 9, 35, 0
11, 20929, Note_on_c, 9, 42, 0
11, 20952, Note_on_c, 9, 35, 112
11, 20952, Note_on_c, 9, 42, 80
11, 20952, Note_on_c, 9, 62, 127
11, 20953, Note_on_c, 9, 35, 0
11, 20953, Note_on_c, 9, 42, 0
11, 20953, Note_on_c, 9, 62, 0
11, 20976, Note_on_c, 9, 46, 96
11, 20976, Note_on_c, 9, 63, 127
11, 20977, Note_on_c, 9, 46, 0
11, 20977, Note_on_c, 9, 63, 0
11, 21000, Note_on_c, 9, 38, 127
11, 21000, Note_on_c, 9, 45, 96
11, 21000, Note_on_c, 9, 43, 127
11, 21000, Note_on_c, 9, 39, 112
11, 21001, Note_on_c, 9, 38, 0
11, 21001, Note_on_c, 9, 39, 0
11, 21001, Note_on_c, 9, 43, 0
11, 21001, Note_on_c, 9, 45, 0
11, 21024, Note_on_c, 9, 42, 80
11, 21024, Note_on_c, 9, 39, 64
11, 21025, Note_on_c, 9, 39, 0
11, 21025, Note_on_c, 9, 42, 0
11, 21048, Note_on_c, 9, 35, 112
11, 21048, Note_on_c, 9, 42, 80
11, 21049, Note_on_c, 9, 35, 0
11, 21049, Note_on_c, 9, 42, 0
11, 21072, Note_on_c, 9, 38, 64
11, 21072, Note_on_c, 9, 42, 48
11, 21073, Note_on_c, 9, 38, 0
11, 21073, Note_on_c, 9, 42, 0
11, 21084, Note_on_c, 9, 38, 80
11, 21085, Note_on_c, 9, 38, 0
11, 21096, Note_on_c, 9, 38, 127
11, 21096, Note_on_c, 9, 45, 96
11, 21096, Note_on_c, 9, 42, 80
11, 21096, Note_on_c, 9, 39, 112
11, 21097, Note_on_c, 9, 38, 0
11, 21097, Note_on_c, 9, 39, 0
11, 21097, Note_on_c, 9, 42, 0
11, 21097, Note_on_c, 9, 45, 0
11, 21120, Note_on_c, 9, 35, 112
11, 21120, Note_on_c, 9, 42, 48
11, 21121, Note_on_c, 9, 35, 0
11, 21121, Note_on_c, 9, 42, 0
11, 21144, Note_on_c, 9, 35, 112
11, 21144, Note_on_c, 9, 42, 80
11, 21145, Note_on_c, 9, 35, 0
11, 21145, Note_on_c, 9, 42, 0
11, 21168, Note_on_c, 9, 38, 80
11, 21168, Note_on_c, 9, 45, 64
11, 21169, Note_on_c, 9, 38, 0
11, 21169, Note_on_c, 9, 45, 0
11, 21180, Note_on_c, 9, 38, 96
11, 21180, Note_on_c, 9, 45, 80
11, 21181, Note_on_c, 9, 38, 0
11, 21181, Note_on_c, 9, 45, 0
11, 21192, Note_on_c, 9, 38, 127
11, 21192, Note_on_c, 9, 45, 96
11, 21192, Note_on_c, 9, 39, 112
11, 21193, Note_on_c, 9, 38, 0
11, 21193, Note_on_c, 9, 39, 0
11, 21193, Note_on_c, 9, 45, 0
11, 21216, Note_on_c, 9, 38, 127
11, 21216, Note_on_c, 9, 45, 96
11, 21216, Note_on_c, 9, 39, 64
11, 21217, Note_on_c, 9, 38, 0
11, 21217, Note_on_c, 9, 39, 0
11, 21217, Note_on_c, 9, 45, 0
11, 21240, Note_on_c, 9, 35, 112
11, 21240, Note_on_c, 9, 42, 80
11, 21240, Note_on_c, 9, 49, 96
11, 21241, Note_on_c, 9, 35, 0
11, 21241, Note_on_c, 9, 42, 0
11, 21241, Note_on_c, 9, 49, 0
11, 21264, Note_on_c, 9, 42, 48
11, 21264, Note_on_c, 9, 62, 127
11, 21265, Note_on_c, 9, 42, 0
11, 21265, Note_on_c, 9, 62, 0
11, 21288, Note_on_c, 9, 38, 127
11, 21288, Note_on_c, 9, 45, 96
11, 21288, Note_on_c, 9, 42, 80
11, 21288, Note_on_c, 9, 39, 112
11, 21289, Note_on_c, 9, 38, 0
11, 21289, Note_on_c, 9, 39, 0
11, 21289, Note_on_c, 9, 42, 0
11, 21289, Note_on_c, 9, 45, 0
11, 21312, Note_on_c, 9, 35, 112
11, 21312, Note_on_c, 9, 42, 48
11, 21313, Note_on_c, 9, 35, 0
11, 21313, Note_on_c, 9, 42, 0
11, 21336, Note_on_c, 9, 35, 112
11, 21336, Note_on_c, 9, 42, 80
11, 21336, Note_on_c, 9, 62, 127
11, 21337, Note_on_c, 9, 35, 0
11, 21337, Note_on_c, 9, 42, 0
11, 21337, Note_on_c, 9, 62, 0
11, 21360, Note_on_c, 9, 46, 96
11, 21360, Note_on_c, 9, 63, 127
11, 21361, Note_on_c, 9, 46, 0
11, 21361, Note_on_c, 9, 63, 0
11, 21384, Note_on_c, 9, 38, 127
11, 21384, Note_on_c, 9, 45, 96
11, 21384, Note_on_c, 9, 43, 127
11, 21384, Note_on_c, 9, 39, 112
11, 21385, Note_on_c, 9, 38, 0
11, 21385, Note_on_c, 9, 39, 0
11, 21385, Note_on_c, 9, 43, 0
11, 21385, Note_on_c, 9, 45, 0
11, 21408, Note_on_c, 9, 42, 80
11, 21408, Note_on_c, 9, 39, 64
11, 21409, Note_on_c, 9, 39, 0
11, 21409, Note_on_c, 9, 42, 0
11, 21432, Note_on_c, 9, 35, 112
11, 21432, Note_on_c, 9, 42, 80
11, 21432, Note_on_c, 9, 63, 127
11, 21433, Note_on_c, 9, 35, 0
11, 21433, Note_on_c, 9, 42, 0
11, 21433, Note_on_c, 9, 63, 0
11, 21456, Note_on_c, 9, 42, 48
11, 21456, Note_on_c, 9, 62, 127
11, 21457, Note_on_c, 9, 42, 0
11, 21457, Note_on_c, 9, 62, 0
11, 21480, Note_on_c, 9, 38, 127
11, 21480, Note_on_c, 9, 45, 96
11, 21480, Note_on_c, 9, 42, 80
11, 21480, Note_on_c, 9, 39, 112
11, 21481, Note_on_c, 9, 38, 0
11, 21481, Note_on_c, 9, 39, 0
11, 21481, Note_on_c, 9, 42, 0
11, 21481, Note_on_c, 9, 45, 0
11, 21504, Note_on_c, 9, 35, 112
11, 21504, Note_on_c, 9, 42, 48
11, 21505, Note_on_c, 9, 35, 0
11, 21505, Note_on_c, 9, 42, 0
11, 21528, Note_on_c, 9, 35, 112
11, 21528, Note_on_c, 9, 42, 80
11, 21529, Note_on_c, 9, 35, 0
11, 21529, Note_on_c, 9, 42, 0
11, 21552, Note_on_c, 9, 46, 96
11, 21552, Note_on_c, 9, 43, 127
11, 21552, Note_on_c, 9, 63, 127
11, 21553, Note_on_c, 9, 43, 0
11, 21553, Note_on_c, 9, 46, 0
11, 21553, Note_on_c, 9, 63, 0
11, 21576, Note_on_c, 9, 38, 127
11, 21576, Note_on_c, 9, 45, 96
11, 21576, Note_on_c, 9, 39, 112
11, 21576, Note_on_c, 9, 64, 127
11, 21577, Note_on_c, 9, 38, 0
11, 21577, Note_on_c, 9, 39, 0
11, 21577, Note_on_c, 9, 45, 0
11, 21577, Note_on_c, 9, 64, 0
11, 21600, Note_on_c, 9, 42, 80
11, 21600, Note_on_c, 9, 39, 64
11, 21600, Note_on_c, 9, 64, 127
11, 21601, Note_on_c, 9, 39, 0
11, 21601, Note_on_c, 9, 42, 0
11, 21601, Note_on_c, 9, 64, 0
11, 21624, Note_on_c, 9, 35, 112
11, 21624, Note_on_c, 9, 42, 80
11, 21625, Note_on_c, 9, 35, 0
11, 21625, Note_on_c, 9, 42, 0
11, 21648, Note_on_c, 9, 42, 48
11, 21648, Note_on_c, 9, 62, 127
11, 21649, Note_on_c, 9, 42, 0
11, 21649, Note_on_c, 9, 62, 0
11, 21672, Note_on_c, 9, 38, 127
11, 21672, Note_on_c, 9, 45, 96
11, 21672, Note_on_c, 9, 42, 80
11, 21672, Note_on_c, 9, 39, 112
11, 21673, Note_on_c, 9, 38, 0
11, 21673, Note_on_c, 9, 39, 0
11, 21673, Note_on_c, 9, 42, 0
11, 21673, Note_on_c, 9, 45, 0
11, 21696, Note_on_c, 9, 35, 112
11, 21696, Note_on_c, 9, 42, 48
11, 21697, Note_on_c, 9, 35, 0
11, 21697, Note_on_c, 9, 42, 0
11, 21720, Note_on_c, 9, 35, 112
11, 21720, Note_on_c, 9, 42, 80
11, 21720, Note_on_c, 9, 62, 127
11, 21721, Note_on_c, 9, 35, 0
11, 21721, Note_on_c, 9, 42, 0
11, 21721, Note_on_c, 9, 62, 0
11, 21744, Note_on_c, 9, 46, 96
11, 21744, Note_on_c, 9, 63, 127
11, 21745, Note_on_c, 9, 46, 0
11, 21745, Note_on_c, 9, 63, 0
11, 21768, Note_on_c, 9, 38, 127
11, 21768, Note_on_c, 9, 45, 96
11, 21768, Note_on_c, 9, 43, 127
11, 21768, Note_on_c, 9, 39, 112
11, 21769, Note_on_c, 9, 38, 0
11, 21769, Note_on_c, 9, 39, 0
11, 21769, Note_on_c, 9, 43, 0
11, 21769, Note_on_c, 9, 45, 0
11, 21792, Note_on_c, 9, 42, 80
11, 21792, Note_on_c, 9, 39, 64
11, 21793, Note_on_c, 9, 39, 0
11, 21793, Note_on_c, 9, 42, 0
11, 21816, Note_on_c, 9, 35, 112
11, 21816, Note_on_c, 9, 42, 80
11, 21817, Note_on_c, 9, 35, 0
11, 21817, Note_on_c, 9, 42, 0
11, 21840, Note_on_c, 9, 42, 48
11, 21841, Note_on_c, 9, 42, 0
11, 21864, Note_on_c, 9, 38, 127
11, 21864, Note_on_c, 9, 45, 96
11, 21864, Note_on_c, 9, 42, 80
11, 21865, Note_on_c, 9, 38, 0
11, 21865, Note_on_c, 9, 42, 0
11, 21865, Note_on_c, 9, 45, 0
11, 21888, Note_on_c, 9, 35, 112
11, 21888, Note_on_c, 9, 42, 48
11, 21889, Note_on_c, 9, 35, 0
11, 21889, Note_on_c, 9, 42, 0
11, 21912, Note_on_c, 9, 35, 112
11, 21912, Note_on_c, 9, 42, 80
11, 21913, Note_on_c, 9, 35, 0
11, 21913, Note_on_c, 9, 42, 0
11, 21936, Note_on_c, 9, 42, 48
11, 21936, Note_on_c, 9, 43, 127
11, 21937, Note_on_c, 9, 42, 0
11, 21937, Note_on_c, 9, 43, 0
11, 21948, Note_on_c, 9, 47, 127
11, 21949, Note_on_c, 9, 47, 0
11, 21960, Note_on_c, 9, 38, 127
11, 21960, Note_on_c, 9, 45, 96
11, 21960, Note_on_c, 9, 42, 80
11, 21961, Note_on_c, 9, 38, 0
11, 21961, Note_on_c, 9, 42, 0
11, 21961, Note_on_c, 9, 45, 0
11, 21984, Note_on_c, 9, 38, 112
11, 21984, Note_on_c, 9, 45, 80
11, 21985, Note_on_c, 9, 38, 0
11, 21985, Note_on_c, 9, 45, 0
11, 22008, Note_on_c, 9, 35, 112
11, 22008, Note_on_c, 9, 42, 80
11, 22008, Note_on_c, 9, 49, 96
11, 22009, Note_on_c, 9, 35, 0
11, 22009, Note_on_c, 9, 42, 0
11, 22009, Note_on_c, 9, 49, 0
11, 22032, Note_on_c, 9, 42, 48
11, 22032, Note_on_c, 9, 62, 127
11, 22033, Note_on_c, 9, 42, 0
11, 22033, Note_on_c, 9, 62, 0
11, 22056, Note_on_c, 9, 38, 127
11, 22056, Note_on_c, 9, 45, 96
11, 22056, Note_on_c, 9, 42, 80
11, 22056, Note_on_c, 9, 39, 112
11, 22057, Note_on_c, 9, 38, 0
11, 22057, Note_on_c, 9, 39, 0
11, 22057, Note_on_c, 9, 42, 0
11, 22057, Note_on_c, 9, 45, 0
11, 22080, Note_on_c, 9, 35, 112
11, 22080, Note_on_c, 9, 42, 48
11, 22081, Note_on_c, 9, 35, 0
11, 22081, Note_on_c, 9, 42, 0
11, 22104, Note_on_c, 9, 35, 112
11, 22104, Note_on_c, 9, 42, 80
11, 22104, Note_on_c, 9, 62, 127
11, 22105, Note_on_c, 9, 35, 0
11, 22105, Note_on_c, 9, 42, 0
11, 22105, Note_on_c, 9, 62, 0
11, 22128, Note_on_c, 9, 46, 96
11, 22128, Note_on_c, 9, 63, 127
11, 22129, Note_on_c, 9, 46, 0
11, 22129, Note_on_c, 9, 63, 0
11, 22152, Note_on_c, 9, 38, 127
11, 22152, Note_on_c, 9, 45, 96
11, 22152, Note_on_c, 9, 43, 127
11, 22152, Note_on_c, 9, 39, 112
11, 22153, Note_on_c, 9, 38, 0
11, 22153, Note_on_c, 9, 39, 0
11, 22153, Note_on_c, 9, 43, 0
11, 22153, Note_on_c, 9, 45, 0
11, 22176, Note_on_c, 9, 42, 80
11, 22176, Note_on_c, 9, 39, 64
11, 22177, Note_on_c, 9, 39, 0
11, 22177, Note_on_c, 9, 42, 0
11, 22200, Note_on_c, 9, 35, 112
11, 22200, Note_on_c, 9, 42, 80
11, 22200, Note_on_c, 9, 63, 127
11, 22201, Note_on_c, 9, 35, 0
11, 22201, Note_on_c, 9, 42, 0
11, 22201, Note_on_c, 9, 63, 0
11, 22224, Note_on_c, 9, 42, 48
11, 22224, Note_on_c, 9, 62, 127
11, 22225, Note_on_c, 9, 42, 0
11, 22225, Note_on_c, 9, 62, 0
11, 22248, Note_on_c, 9, 38, 127
11, 22248, Note_on_c, 9, 45, 96
11, 22248, Note_on_c, 9, 42, 80
11, 22248, Note_on_c, 9, 39, 112
11, 22249, Note_on_c, 9, 38, 0
11, 22249, Note_on_c, 9, 39, 0
11, 22249, Note_on_c, 9, 42, 0
11, 22249, Note_on_c, 9, 45, 0
11, 22272, Note_on_c, 9, 35, 112
11, 22272, Note_on_c, 9, 42, 48
11, 22273, Note_on_c, 9, 35, 0
11, 22273, Note_on_c, 9, 42, 0
11, 22296, Note_on_c, 9, 35, 112
11, 22296, Note_on_c, 9, 42, 80
11, 22297, Note_on_c, 9, 35, 0
11, 22297, Note_on_c, 9, 42, 0
11, 22320, Note_on_c, 9, 46, 96
11, 22320, Note_on_c, 9, 43, 127
11, 22320, Note_on_c, 9, 63, 127
11, 22321, Note_on_c, 9, 43, 0
11, 22321, Note_on_c, 9, 46, 0
11, 22321, Note_on_c, 9, 63, 0
11, 22344, Note_on_c, 9, 38, 127
11, 22344, Note_on_c, 9, 45, 96
11, 22344, Note_on_c, 9, 39, 112
11, 22344, Note_on_c, 9, 64, 127
11, 22345, Note_on_c, 9, 38, 0
11, 22345, Note_on_c, 9, 39, 0
11, 22345, Note_on_c, 9, 45, 0
11, 22345, Note_on_c, 9, 64, 0
11, 22368, Note_on_c, 9, 42, 80
11, 22368, Note_on_c, 9, 39, 64
11, 22368, Note_on_c, 9, 64, 127
11, 22369, Note_on_c, 9, 39, 0
11, 22369, Note_on_c, 9, 42, 0
11, 22369, Note_on_c, 9, 64, 0
11, 22392, Note_on_c, 9, 35, 112
11, 22392, Note_on_c, 9, 42, 80
11, 22393, Note_on_c, 9, 35, 0
11, 22393, Note_on_c, 9, 42, 0
11, 22416, Note_on_c, 9, 42, 48
11, 22416, Note_on_c, 9, 62, 127
11, 22417, Note_on_c, 9, 42, 0
11, 22417, Note_on_c, 9, 62, 0
11, 22440, Note_on_c, 9, 38, 127
11, 22440, Note_on_c, 9, 45, 96
11, 22440, Note_on_c, 9, 42, 80
11, 22440, Note_on_c, 9, 39, 112
11, 22441, Note_on_c, 9, 38, 0
11, 22441, Note_on_c, 9, 39, 0
11, 22441, Note_on_c, 9, 42, 0
11, 22441, Note_on_c, 9, 45, 0
11, 22464, Note_on_c, 9, 35, 112
11, 22464, Note_on_c, 9, 42, 48
11, 22465, Note_on_c, 9, 35, 0
11, 22465, Note_on_c, 9, 42, 0
11, 22488, Note_on_c, 9, 35, 112
11, 22488, Note_on_c, 9, 42, 80
11, 22488, Note_on_c, 9, 62, 127
11, 22489, Note_on_c, 9, 35, 0
11, 22489, Note_on_c, 9, 42, 0
11, 22489, Note_on_c, 9, 62, 0
11, 22512, Note_on_c, 9, 46, 96
11, 22512, Note_on_c, 9, 63, 127
11, 22513, Note_on_c, 9, 46, 0
11, 22513, Note_on_c, 9, 63, 0
11, 22536, Note_on_c, 9, 38, 127
11, 22536, Note_on_c, 9, 45, 96
11, 22536, Note_on_c, 9, 43, 127
11, 22536, Note_on_c, 9, 39, 112
11, 22537, Note_on_c, 9, 38, 0
11, 22537, Note_on_c, 9, 39, 0
11, 22537, Note_on_c, 9, 43, 0
11, 22537, Note_on_c, 9, 45, 0
11, 22560, Note_on_c, 9, 42, 80
11, 22560, Note_on_c, 9, 39, 64
11, 22561, Note_on_c, 9, 39, 0
11, 22561, Note_on_c, 9, 42, 0
11, 22584, Note_on_c, 9, 35, 112
11, 22584, Note_on_c, 9, 42, 80
11, 22585, Note_on_c, 9, 35, 0
11, 22585, Note_on_c, 9, 42, 0
11, 22608, Note_on_c, 9, 38, 64
11, 22608, Note_on_c, 9, 42, 48
11, 22609, Note_on_c, 9, 38, 0
11, 22609, Note_on_c, 9, 42, 0
11, 22620, Note_on_c, 9, 38, 80
11, 22621, Note_on_c, 9, 38, 0
11, 22632, Note_on_c, 9, 38, 127
11, 22632, Note_on_c, 9, 45, 96
11, 22632, Note_on_c, 9, 42, 80
11, 22632, Note_on_c, 9, 39, 112
11, 22633, Note_on_c, 9, 38, 0
11, 22633, Note_on_c, 9, 39, 0
11, 22633, Note_on_c, 9, 42, 0
11, 22633, Note_on_c, 9, 45, 0
11, 22656, Note_on_c, 9, 35, 112
11, 22656, Note_on_c, 9, 42, 48
11, 22657, Note_on_c, 9, 35, 0
11, 22657, Note_on_c, 9, 42, 0
11, 22680, Note_on_c, 9, 35, 112
11, 22680, Note_on_c, 9, 42, 80
11, 22681, Note_on_c, 9, 35, 0
11, 22681, Note_on_c, 9, 42, 0
11, 22704, Note_on_c, 9, 38, 80
11, 22704, Note_on_c, 9, 45, 64
11, 22705, Note_on_c, 9, 38, 0
11, 22705, Note_on_c, 9, 45, 0
11, 22716, Note_on_c, 9, 38, 96
11, 22716, Note_on_c, 9, 45, 80
11, 22717, Note_on_c, 9, 38, 0
11, 22717, Note_on_c, 9, 45, 0
11, 22728, Note_on_c, 9, 38, 127
11, 22728, Note_on_c, 9, 45, 96
11, 22728, Note_on_c, 9, 39, 112
11, 22729, Note_on_c, 9, 38, 0
11, 22729, Note_on_c, 9, 39, 0
11, 22729, Note_on_c, 9, 45, 0
11, 22752, Note_on_c, 9, 38, 127
11, 22752, Note_on_c, 9, 45, 96
11, 22752, Note_on_c, 9, 39, 64
11, 22753, Note_on_c, 9, 38, 0
11, 22753, Note_on_c, 9, 39, 0
11, 22753, Note_on_c, 9, 45, 0
11, 22776, Note_on_c, 9, 35, 112
11, 22776, Note_on_c, 9, 42, 80
11, 22777, Note_on_c, 9, 35, 0
11, 22777, Note_on_c, 9, 42, 0
11, 22800, Note_on_c, 9, 42, 48
11, 22801, Note_on_c, 9, 42, 0
11, 22824, Note_on_c, 9, 38, 127
11, 22824, Note_on_c, 9, 45, 96
11, 22824, Note_on_c, 9, 42, 80
11, 22825, Note_on_c, 9, 38, 0
11, 22825, Note_on_c, 9, 42, 0
11, 22825, Note_on_c, 9, 45, 0
11, 22848, Note_on_c, 9, 35, 112
11, 22848, Note_on_c, 9, 42, 48
11, 22849, Note_on_c, 9, 35, 0
11, 22849, Note_on_c, 9, 42, 0
11, 22872, Note_on_c, 9, 35, 112
11, 22872, Note_on_c, 9, 42, 80
11, 22873, Note_on_c, 9, 35, 0
11, 22873, Note_on_c, 9, 42, 0
11, 22896, Note_on_c, 9, 42, 48
11, 22896, Note_on_c, 9, 43, 127
11, 22897, Note_on_c, 9, 42, 0
11, 22897, Note_on_c, 9, 43, 0
11, 22908, Note_on_c, 9, 47, 127
11, 22909, Note_on_c, 9, 47, 0
11, 22920, Note_on_c, 9, 38, 127
11, 22920, Note_on_c, 9, 45, 96
11, 22920, Note_on_c, 9, 42, 80
11, 22921, Note_on_c, 9, 38, 0
11, 22921, Note_on_c, 9, 42, 0
11, 22921, Note_on_c, 9, 45, 0
11, 22944, Note_on_c, 9, 35, 112
11, 22944, Note_on_c, 9, 38, 127
11, 22944, Note_on_c, 9, 49, 96
11, 22945, Note_on_c, 9, 35, 0
11, 22945, Note_on_c, 9, 38, 0
11, 22945, Note_on_c, 9, 49, 0
11, 22968, Note_on_c, 9, 42, 80
11, 22969, Note_on_c, 9, 42, 0
11, 22992, Note_on_c, 9, 35, 112
11, 22992, Note_on_c, 9, 38, 127
11, 22992, Note_on_c, 9, 42, 48
11, 22992, Note_on_c, 9, 52, 112
11, 22993, Note_on_c, 9, 35, 0
11, 22993, Note_on_c, 9, 38, 0
11, 22993, Note_on_c, 9, 42, 0
11, 22993, Note_on_c, 9, 52, 0
11, 23016, Note_on_c, 9, 42, 80
11, 23017, Note_on_c, 9, 42, 0
11, 23040, Note_on_c, 9, 35, 112
11, 23040, Note_on_c, 9, 38, 127
11, 23040, Note_on_c, 9, 42, 48
11, 23040, Note_on_c, 9, 49, 112
11, 23041, Note_on_c, 9, 35, 0
11, 23041, Note_on_c, 9, 38, 0
11, 23041, Note_on_c, 9, 42, 0
11, 23041, Note_on_c, 9, 49, 0
11, 23064, Note_on_c, 9, 35, 112
11, 23064, Note_on_c, 9, 42, 80
11, 23065, Note_on_c, 9, 35, 0
11, 23065, Note_on_c, 9, 42, 0
11, 23088, Note_on_c, 9, 42, 48
11, 23088, Note_on_c, 9, 46, 96
11, 23089, Note_on_c, 9, 42, 0
11, 23089, Note_on_c, 9, 46, 0
11, 23112, Note_on_c, 9, 38, 127
11, 23112, Note_on_c, 9, 45, 96
11, 23112, Note_on_c, 9, 42, 80
11, 23113, Note_on_c, 9, 38, 0
11, 23113, Note_on_c, 9, 42, 0
11, 23113, Note_on_c, 9, 45, 0
11, 23136, Note_on_c, 9, 42, 48
11, 23137, Note_on_c, 9, 42, 0
11, 23160, Note_on_c, 9, 35, 112
11, 23160, Note_on_c, 9, 42, 80
11, 23161, Note_on_c, 9, 35, 0
11, 23161, Note_on_c, 9, 42, 0
11, 23184, Note_on_c, 9, 42, 48
11, 23185, Note_on_c, 9, 42, 0
11, 23208, Note_on_c, 9, 38, 127
11, 23208, Note_on_c, 9, 45, 96
11, 23208, Note_on_c, 9, 42, 80
11, 23209, Note_on_c, 9, 38, 0
11, 23209, Note_on_c, 9, 42, 0
11, 23209, Note_on_c, 9, 45, 0
11, 23232, Note_on_c, 9, 35, 112
11, 23232, Note_on_c, 9, 42, 48
11, 23233, Note_on_c, 9, 35, 0
11, 23233, Note_on_c, 9, 42, 0
11, 23256, Note_on_c, 9, 35, 112
11, 23256, Note_on_c, 9, 42, 80
11, 23257, Note_on_c, 9, 35, 0
11, 23257, Note_on_c, 9, 42, 0
11, 23280, Note_on_c, 9, 42, 48
11, 23281, Note_on_c, 9, 42, 0
11, 23292, Note_on_c, 9, 38, 112
11, 23292, Note_on_c, 9, 45, 80
11, 23293, Note_on_c, 9, 38, 0
11, 23293, Note_on_c, 9, 45, 0
11, 23304, Note_on_c, 9, 38, 127
11, 23304, Note_on_c, 9, 45, 96
11, 23304, Note_on_c, 9, 42, 80
11, 23305, Note_on_c, 9, 38, 0
11, 23305, Note_on_c, 9, 42, 0
11, 23305, Note_on_c, 9, 45, 0
11, 23328, Note_on_c, 9, 38, 112
11, 23328, Note_on_c, 9, 52, 112
11, 23329, Note_on_c, 9, 38, 0
11, 23329, Note_on_c, 9, 52, 0
11, 23352, Note_on_c, 9, 35, 112
11, 23352, Note_on_c, 9, 42, 80
11, 23352, Note_on_c, 9, 49, 96
11, 23353, Note_on_c, 9, 35, 0
11, 23353, Note_on_c, 9, 42, 0
11, 23353, Note_on_c, 9, 49, 0
11, 23376, Note_on_c, 9, 42, 48
11, 23376, Note_on_c, 9, 62, 127
11, 23377, Note_on_c, 9, 42, 0
11, 23377, Note_on_c, 9, 62, 0
11, 23400, Note_on_c, 9, 38, 127
11, 23400, Note_on_c, 9, 45, 96
11, 23400, Note_on_c, 9, 42, 80
11, 23400, Note_on_c, 9, 39, 112
11, 23401, Note_on_c, 9, 38, 0
11, 23401, Note_on_c, 9, 39, 0
11, 23401, Note_on_c, 9, 42, 0
11, 23401, Note_on_c, 9, 45, 0
11, 23424, Note_on_c, 9, 35, 112
11, 23424, Note_on_c, 9, 42, 48
11, 23425, Note_on_c, 9, 35, 0
11, 23425, Note_on_c, 9, 42, 0
11, 23448, Note_on_c, 9, 35, 112
11, 23448, Note_on_c, 9, 42, 80
11, 23448, Note_on_c, 9, 62, 127
11, 23449, Note_on_c, 9, 35, 0
11, 23449, Note_on_c, 9, 42, 0
11, 23449, Note_on_c, 9, 62, 0
11, 23472, Note_on_c, 9, 46, 96
11, 23472, Note_on_c, 9, 63, 127
11, 23473, Note_on_c, 9, 46, 0
11, 23473, Note_on_c, 9, 63, 0
11, 23496, Note_on_c, 9, 38, 127
11, 23496, Note_on_c, 9, 45, 96
11, 23496, Note_on_c, 9, 43, 127
11, 23496, Note_on_c, 9, 39, 112
11, 23497, Note_on_c, 9, 38, 0
11, 23497, Note_on_c, 9, 39, 0
11, 23497, Note_on_c, 9, 43, 0
11, 23497, Note_on_c, 9, 45, 0
11, 23520, Note_on_c, 9, 42, 80
11, 23520, Note_on_c, 9, 39, 64
11, 23521, Note_on_c, 9, 39, 0
11, 23521, Note_on_c, 9, 42, 0
11, 23544, Note_on_c, 9, 35, 112
11, 23544, Note_on_c, 9, 45, 64
11, 23544, Note_on_c, 9, 43, 48
11, 23545, Note_on_c, 9, 35, 0
11, 23545, Note_on_c, 9, 43, 0
11, 23545, Note_on_c, 9, 45, 0
11, 23568, Note_on_c, 9, 45, 64
11, 23568, Note_on_c, 9, 43, 48
11, 23569, Note_on_c, 9, 43, 0
11, 23569, Note_on_c, 9, 45, 0
11, 23592, Note_on_c, 9, 35, 112
11, 23592, Note_on_c, 9, 45, 80
11, 23592, Note_on_c, 9, 43, 64
11, 23593, Note_on_c, 9, 35, 0
11, 23593, Note_on_c, 9, 43, 0
11, 23593, Note_on_c, 9, 45, 0
11, 23616, Note_on_c, 9, 45, 80
11, 23616, Note_on_c, 9, 43, 80
11, 23617, Note_on_c, 9, 43, 0
11, 23617, Note_on_c, 9, 45, 0
11, 23640, Note_on_c, 9, 35, 64
11, 23640, Note_on_c, 9, 45, 96
11, 23640, Note_on_c, 9, 43, 96
11, 23641, Note_on_c, 9, 35, 0
11, 23641, Note_on_c, 9, 43, 0
11, 23641, Note_on_c, 9, 45, 0
11, 23664, Note_on_c, 9, 35, 80
11, 23664, Note_on_c, 9, 45, 96
11, 23664, Note_on_c, 9, 43, 112
11, 23665, Note_on_c, 9, 35, 0
11, 23665, Note_on_c, 9, 43, 0
11, 23665, Note_on_c, 9, 45, 0
11, 23688, Note_on_c, 9, 35, 96
11, 23688, Note_on_c, 9, 45, 112
11, 23688, Note_on_c, 9, 43, 127
11, 23689, Note_on_c, 9, 35, 0
11, 23689, Note_on_c, 9, 43, 0
11, 23689, Note_on_c, 9, 45, 0
11, 23712, Note_on_c, 9, 35, 112
11, 23712, Note_on_c, 9, 45, 127
11, 23712, Note_on_c, 9, 43, 127
11, 23713, Note_on_c, 9, 35, 0
11, 23713, Note_on_c, 9, 43, 0
11, 23713, Note_on_c, 9, 45, 0
11, 23736, Note_on_c, 9, 35, 112
11, 23736, Note_on_c, 9, 51, 96
11, 23736, Note_on_c, 9, 49, 112
11, 23737, Note_on_c, 9, 35, 0
11, 23737, Note_on_c, 9, 49, 0
11, 23737, Note_on_c, 9, 51, 0
11, 23760, Note_on_c, 9, 62, 127
11, 23761, Note_on_c, 9, 62, 0
11, 23784, Note_on_c, 9, 38, 127
11, 23784, Note_on_c, 9, 45, 96
11, 23784, Note_on_c, 9, 51, 96
11, 23784, Note_on_c, 9, 39, 112
11, 23785, Note_on_c, 9, 38, 0
11, 23785, Note_on_c, 9, 39, 0
11, 23785, Note_on_c, 9, 45, 0
11, 23785, Note_on_c, 9, 51, 0
11, 23808, Note_on_c, 9, 35, 112
11, 23808, Note_on_c, 9, 51, 48
11, 23809, Note_on_c, 9, 35, 0
11, 23809, Note_on_c, 9, 51, 0
11, 23832, Note_on_c, 9, 35, 112
11, 23832, Note_on_c, 9, 51, 96
11, 23832, Note_on_c, 9, 62, 127
11, 23833, Note_on_c, 9, 35, 0
11, 23833, Note_on_c, 9, 51, 0
11, 23833, Note_on_c, 9, 62, 0
11, 23856, Note_on_c, 9, 46, 96
11, 23857, Note_on_c, 9, 46, 0
11, 23880, Note_on_c, 9, 38, 127
11, 23880, Note_on_c, 9, 45, 96
11, 23880, Note_on_c, 9, 51, 96
11, 23880, Note_on_c, 9, 43, 127
11, 23880, Note_on_c, 9, 39, 112
11, 23881, Note_on_c, 9, 38, 0
11, 23881, Note_on_c, 9, 39, 0
11, 23881, Note_on_c, 9, 43, 0
11, 23881, Note_on_c, 9, 45, 0
11, 23881, Note_on_c, 9, 51, 0
11, 23904, Note_on_c, 9, 51, 48
11, 23904, Note_on_c, 9, 39, 64
11, 23905, Note_on_c, 9, 39, 0
11, 23905, Note_on_c, 9, 51, 0
11, 23928, Note_on_c, 9, 35, 112
11, 23928, Note_on_c, 9, 51, 96
11, 23928, Note_on_c, 9, 62, 127
11, 23929, Note_on_c, 9, 35, 0
11, 23929, Note_on_c, 9, 51, 0
11, 23929, Note_on_c, 9, 62, 0
11, 23976, Note_on_c, 9, 38, 127
11, 23976, Note_on_c, 9, 45, 96
11, 23976, Note_on_c, 9, 51, 96
11, 23976, Note_on_c, 9, 39, 112
11, 23977, Note_on_c, 9, 38, 0
11, 23977, Note_on_c, 9, 39, 0
11, 23977, Note_on_c, 9, 45, 0
11, 23977, Note_on_c, 9, 51, 0
11, 24000, Note_on_c, 9, 35, 112
11, 24000, Note_on_c, 9, 51, 48
11, 24000, Note_on_c, 9, 62, 127
11, 24001, Note_on_c, 9, 35, 0
11, 24001, Note_on_c, 9, 51, 0
11, 24001, Note_on_c, 9, 62, 0
11, 24024, Note_on_c, 9, 35, 112
11, 24024, Note_on_c, 9, 51, 96
11, 24025, Note_on_c, 9, 35, 0
11, 24025, Note_on_c, 9, 51, 0
11, 24048, Note_on_c, 9, 46, 96
11, 24048, Note_on_c, 9, 43, 127
11, 24048, Note_on_c, 9, 63, 127
11, 24049, Note_on_c, 9, 43, 0
11, 24049, Note_on_c, 9, 46, 0
11, 24049, Note_on_c, 9, 63, 0
11, 24072, Note_on_c, 9, 38, 127
11, 24072, Note_on_c, 9, 45, 96
11, 24072, Note_on_c, 9, 51, 96
11, 24072, Note_on_c, 9, 39, 112
11, 24072, Note_on_c, 9, 64, 127
11, 24073, Note_on_c, 9, 38, 0
11, 24073, Note_on_c, 9, 39, 0
11, 24073, Note_on_c, 9, 45, 0
11, 24073, Note_on_c, 9, 51, 0
11, 24073, Note_on_c, 9, 64, 0
11, 24096, Note_on_c, 9, 51, 48
11, 24096, Note_on_c, 9, 39, 64
11, 24096, Note_on_c, 9, 64, 127
11, 24097, Note_on_c, 9, 39, 0
11, 24097, Note_on_c, 9, 51, 0
11, 24097, Note_on_c, 9, 64, 0
11, 24120, Note_on_c, 9, 35, 112
11, 24120, Note_on_c, 9, 51, 96
11, 24121, Note_on_c, 9, 35, 0
11, 24121, Note_on_c, 9, 51, 0
11, 24144, Note_on_c, 9, 62, 127
11, 24145, Note_on_c, 9, 62, 0
11, 24168, Note_on_c, 9, 38, 127
11, 24168, Note_on_c, 9, 45, 96
11, 24168, Note_on_c, 9, 51, 96
11, 24168, Note_on_c, 9, 39, 112
11, 24169, Note_on_c, 9, 38, 0
11, 24169, Note_on_c, 9, 39, 0
11, 24169, Note_on_c, 9, 45, 0
11, 24169, Note_on_c, 9, 51, 0
11, 24192, Note_on_c, 9, 35, 112
11, 24192, Note_on_c, 9, 51, 48
11, 24193, Note_on_c, 9, 35, 0
11, 24193, Note_on_c, 9, 51, 0
11, 24216, Note_on_c, 9, 35, 112
11, 24216, Note_on_c, 9, 51, 96
11, 24216, Note_on_c, 9, 62, 127
11, 24217, Note_on_c, 9, 35, 0
11, 24217, Note_on_c, 9, 51, 0
11, 24217, Note_on_c, 9, 62, 0
11, 24240, Note_on_c, 9, 46, 96
11, 24241, Note_on_c, 9, 46, 0
11, 24264, Note_on_c, 9, 38, 127
11, 24264, Note_on_c, 9, 45, 96
11, 24264, Note_on_c, 9, 51, 96
11, 24264, Note_on_c, 9, 43, 127
11, 24264, Note_on_c, 9, 39, 112
11, 24265, Note_on_c, 9, 38, 0
11, 24265, Note_on_c, 9, 39, 0
11, 24265, Note_on_c, 9, 43, 0
11, 24265, Note_on_c, 9, 45, 0
11, 24265, Note_on_c, 9, 51, 0
11, 24288, Note_on_c, 9, 51, 48
11, 24288, Note_on_c, 9, 39, 64
11, 24289, Note_on_c, 9, 39, 0
11, 24289, Note_on_c, 9, 51, 0
11, 24312, Note_on_c, 9, 35, 112
11, 24312, Note_on_c, 9, 51, 96
11, 24312, Note_on_c, 9, 62, 127
11, 24313, Note_on_c, 9, 35, 0
11, 24313, Note_on_c, 9, 51, 0
11, 24313, Note_on_c, 9, 62, 0
11, 24360, Note_on_c, 9, 38, 127
11, 24360, Note_on_c, 9, 45, 96
11, 24360, Note_on_c, 9, 51, 96
11, 24360, Note_on_c, 9, 39, 112
11, 24361, Note_on_c, 9, 38, 0
11, 24361, Note_on_c, 9, 39, 0
11, 24361, Note_on_c, 9, 45, 0
11, 24361, Note_on_c, 9, 51, 0
11, 24384, Note_on_c, 9, 35, 112
11, 24384, Note_on_c, 9, 51, 48
11, 24384, Note_on_c, 9, 62, 127
11, 24385, Note_on_c, 9, 35, 0
11, 24385, Note_on_c, 9, 51, 0
11, 24385, Note_on_c, 9, 62, 0
11, 24408, Note_on_c, 9, 35, 112
11, 24408, Note_on_c, 9, 51, 96
11, 24409, Note_on_c, 9, 35, 0
11, 24409, Note_on_c, 9, 51, 0
11, 24432, Note_on_c, 9, 46, 96
11, 24432, Note_on_c, 9, 43, 127
11, 24432, Note_on_c, 9, 63, 127
11, 24433, Note_on_c, 9, 43, 0
11, 24433, Note_on_c, 9, 46, 0
11, 24433, Note_on_c, 9, 63, 0
11, 24456, Note_on_c, 9, 38, 127
11, 24456, Note_on_c, 9, 45, 96
11, 24456, Note_on_c, 9, 51, 96
11, 24456, Note_on_c, 9, 39, 112
11, 24456, Note_on_c, 9, 64, 127
11, 24457, Note_on_c, 9, 38, 0
11, 24457, Note_on_c, 9, 39, 0
11, 24457, Note_on_c, 9, 45, 0
11, 24457, Note_on_c, 9, 51, 0
11, 24457, Note_on_c, 9, 64, 0
11, 24480, Note_on_c, 9, 51, 48
11, 24480, Note_on_c, 9, 39, 64
11, 24480, Note_on_c, 9, 64, 127
11, 24481, Note_on_c, 9, 39, 0
11, 24481, Note_on_c, 9, 51, 0
11, 24481, Note_on_c, 9, 64, 0
11, 24504, Note_on_c, 9, 35, 112
11, 24504, Note_on_c, 9, 51, 96
11, 24505, Note_on_c, 9, 35, 0
11, 24505, Note_on_c, 9, 51, 0
11, 24528, Note_on_c, 9, 62, 127
11, 24529, Note_on_c, 9, 62, 0
11, 24552, Note_on_c, 9, 38, 127
11, 24552, Note_on_c, 9, 45, 96
11, 24552, Note_on_c, 9, 51, 96
11, 24552, Note_on_c, 9, 39, 112
11, 24553, Note_on_c, 9, 38, 0
11, 24553, Note_on_c, 9, 39, 0
11, 24553, Note_on_c, 9, 45, 0
11, 24553, Note_on_c, 9, 51, 0
11, 24576, Note_on_c, 9, 35, 112
11, 24576, Note_on_c, 9, 51, 48
11, 24577, Note_on_c, 9, 35, 0
11, 24577, Note_on_c, 9, 51, 0
11, 24600, Note_on_c, 9, 35, 112
11, 24600, Note_on_c, 9, 51, 96
11, 24600, Note_on_c, 9, 62, 127
11, 24601, Note_on_c, 9, 35, 0
11, 24601, Note_on_c, 9, 51, 0
11, 24601, Note_on_c, 9, 62, 0
11, 24624, Note_on_c, 9, 46, 96
11, 24625, Note_on_c, 9, 46, 0
11, 24648, Note_on_c, 9, 38, 127
11, 24648, Note_on_c, 9, 45, 96
11, 24648, Note_on_c, 9, 51, 96
11, 24648, Note_on_c, 9, 43, 127
11, 24648, Note_on_c, 9, 39, 112
11, 24649, Note_on_c, 9, 38, 0
11, 24649, Note_on_c, 9, 39, 0
11, 24649, Note_on_c, 9, 43, 0
11, 24649, Note_on_c, 9, 45, 0
11, 24649, Note_on_c, 9, 51, 0
11, 24672, Note_on_c, 9, 51, 48
11, 24672, Note_on_c, 9, 39, 64
11, 24673, Note_on_c, 9, 39, 0
11, 24673, Note_on_c, 9, 51, 0
11, 24696, Note_on_c, 9, 35, 112
11, 24696, Note_on_c, 9, 51, 96
11, 24696, Note_on_c, 9, 62, 127
11, 24697, Note_on_c, 9, 35, 0
11, 24697, Note_on_c, 9, 51, 0
11, 24697, Note_on_c, 9, 62, 0
11, 24744, Note_on_c, 9, 38, 127
11, 24744, Note_on_c, 9, 45, 96
11, 24744, Note_on_c, 9, 51, 96
11, 24744, Note_on_c, 9, 39, 112
11, 24745, Note_on_c, 9, 38, 0
11, 24745, Note_on_c, 9, 39, 0
11, 24745, Note_on_c, 9, 45, 0
11, 24745, Note_on_c, 9, 51, 0
11, 24768, Note_on_c, 9, 35, 112
11, 24768, Note_on_c, 9, 51, 48
11, 24768, Note_on_c, 9, 62, 127
11, 24769, Note_on_c, 9, 35, 0
11, 24769, Note_on_c, 9, 51, 0
11, 24769, Note_on_c, 9, 62, 0
11, 24792, Note_on_c, 9, 35, 112
11, 24792, Note_on_c, 9, 51, 96
11, 24793, Note_on_c, 9, 35, 0
11, 24793, Note_on_c, 9, 51, 0
11, 24816, Note_on_c, 9, 46, 96
11, 24816, Note_on_c, 9, 43, 127
11, 24816, Note_on_c, 9, 63, 127
11, 24817, Note_on_c, 9, 43, 0
11, 24817, Note_on_c, 9, 46, 0
11, 24817, Note_on_c, 9, 63, 0
11, 24840, Note_on_c, 9, 38, 127
11, 24840, Note_on_c, 9, 45, 96
11, 24840, Note_on_c, 9, 51, 96
11, 24840, Note_on_c, 9, 39, 112
11, 24840, Note_on_c, 9, 64, 127
11, 24841, Note_on_c, 9, 38, 0
11, 24841, Note_on_c, 9, 39, 0
11, 24841, Note_on_c, 9, 45, 0
11, 24841, Note_on_c, 9, 51, 0
11, 24841, Note_on_c, 9, 64, 0
11, 24864, Note_on_c, 9, 51, 48
11, 24864, Note_on_c, 9, 39, 64
11, 24864, Note_on_c, 9, 64, 127
11, 24865, Note_on_c, 9, 39, 0
11, 24865, Note_on_c, 9, 51, 0
11, 24865, Note_on_c, 9, 64, 0
11, 24888, Note_on_c, 9, 35, 112
11, 24888, Note_on_c, 9, 51, 96
11, 24889, Note_on_c, 9, 35, 0
11, 24889, Note_on_c, 9, 51, 0
11, 24912, Note_on_c, 9, 62, 127
11, 24913, Note_on_c, 9, 62, 0
11, 24936, Note_on_c, 9, 38, 127
11, 24936, Note_on_c, 9, 45, 96
11, 24936, Note_on_c, 9, 51, 96
11, 24936, Note_on_c, 9, 39, 112
11, 24937, Note_on_c, 9, 38, 0
11, 24937, Note_on_c, 9, 39, 0
11, 24937, Note_on_c, 9, 45, 0
11, 24937, Note_on_c, 9, 51, 0
11, 24960, Note_on_c, 9, 35, 112
11, 24960, Note_on_c, 9, 51, 48
11, 24961, Note_on_c, 9, 35, 0
11, 24961, Note_on_c, 9, 51, 0
11, 24984, Note_on_c, 9, 35, 112
11, 24984, Note_on_c, 9, 51, 96
11, 24984, Note_on_c, 9, 62, 127
11, 24985, Note_on_c, 9, 35, 0
11, 24985, Note_on_c, 9, 51, 0
11, 24985, Note_on_c, 9, 62, 0
11, 25008, Note_on_c, 9, 46, 96
11, 25009, Note_on_c, 9, 46, 0
11, 25032, Note_on_c, 9, 38, 127
11, 25032, Note_on_c, 9, 45, 96
11, 25032, Note_on_c, 9, 51, 96
11, 25032, Note_on_c, 9, 43, 127
11, 25032, Note_on_c, 9, 39, 112
11, 25033, Note_on_c, 9, 38, 0
11, 25033, Note_on_c, 9, 39, 0
11, 25033, Note_on_c, 9, 43, 0
11, 25033, Note_on_c, 9, 45, 0
11, 25033, Note_on_c, 9, 51, 0
11, 25056, Note_on_c, 9, 51, 48
11, 25056, Note_on_c, 9, 39, 64
11, 25057, Note_on_c, 9, 39, 0
11, 25057, Note_on_c, 9, 51, 0
11, 25080, Note_on_c, 9, 35, 112
11, 25080, Note_on_c, 9, 51, 96
11, 25080, Note_on_c, 9, 62, 127
11, 25081, Note_on_c, 9, 35, 0
11, 25081, Note_on_c, 9, 51, 0
11, 25081, Note_on_c, 9, 62, 0
11, 25092, Note_on_c, 9, 62, 127
11, 25093, Note_on_c, 9, 62, 0
11, 25104, Note_on_c, 9, 62, 127
11, 25105, Note_on_c, 9, 62, 0
11, 25116, Note_on_c, 9, 62, 127
11, 25117, Note_on_c, 9, 62, 0
11, 25128, Note_on_c, 9, 38, 127
11, 25128, Note_on_c, 9, 45, 96
11, 25128, Note_on_c, 9, 51, 96
11, 25128, Note_on_c, 9, 39, 112
11, 25128, Note_on_c, 9, 62, 127
11, 25129, Note_on_c, 9, 38, 0
11, 25129, Note_on_c, 9, 39, 0
11, 25129, Note_on_c, 9, 45, 0
11, 25129, Note_on_c, 9, 51, 0
11, 25129, Note_on_c, 9, 62, 0
11, 25152, Note_on_c, 9, 35, 112
11, 25152, Note_on_c, 9, 51, 48
11, 25152, Note_on_c, 9, 63, 127
11, 25153, Note_on_c, 9, 35, 0
11, 25153, Note_on_c, 9, 51, 0
11, 25153, Note_on_c, 9, 63, 0
11, 25176, Note_on_c, 9, 35, 112
11, 25176, Note_on_c, 9, 51, 96
11, 25177, Note_on_c, 9, 35, 0
11, 25177, Note_on_c, 9, 51, 0
11, 25200, Note_on_c, 9, 51, 48
11, 25200, Note_on_c, 9, 43, 127
11, 25201, Note_on_c, 9, 43, 0
11, 25201, Note_on_c, 9, 51, 0
11, 25212, Note_on_c, 9, 38, 96
11, 25213, Note_on_c, 9, 38, 0
11, 25224, Note_on_c, 9, 38, 127
11, 25224, Note_on_c, 9, 45, 96
11, 25224, Note_on_c, 9, 46, 96
11, 25224, Note_on_c, 9, 51, 96
11, 25225, Note_on_c, 9, 38, 0
11, 25225, Note_on_c, 9, 45, 0
11, 25225, Note_on_c, 9, 46, 0
11, 25225, Note_on_c, 9, 51, 0
11, 25248, Note_on_c, 9, 38, 127
11, 25248, Note_on_c, 9, 46, 96
11, 25248, Note_on_c, 9, 51, 48
11, 25249, Note_on_c, 9, 38, 0
11, 25249, Note_on_c, 9, 46, 0
11, 25249, Note_on_c, 9, 51, 0
11, 25272, Note_on_c, 9, 35, 112
11, 25272, Note_on_c, 9, 51, 96
11, 25272, Note_on_c, 9, 49, 112
11, 25273, Note_on_c, 9, 35, 0
11, 25273, Note_on_c, 9, 49, 0
11, 25273, Note_on_c, 9, 51, 0
11, 25296, Note_on_c, 9, 62, 127
11, 25297, Note_on_c, 9, 62, 0
11, 25320, Note_on_c, 9, 38, 127
11, 25320, Note_on_c, 9, 45, 96
11, 25320, Note_on_c, 9, 51, 96
11, 25320, Note_on_c, 9, 39, 112
11, 25321, Note_on_c, 9, 38, 0
11, 25321, Note_on_c, 9, 39, 0
11, 25321, Note_on_c, 9, 45, 0
11, 25321, Note_on_c, 9, 51, 0
11, 25344, Note_on_c, 9, 35, 112
11, 25344, Note_on_c, 9, 51, 48
11, 25345, Note_on_c, 9, 35, 0
11, 25345, Note_on_c, 9, 51, 0
11, 25368, Note_on_c, 9, 35, 112
11, 25368, Note_on_c, 9, 51, 96
11, 25368, Note_on_c, 9, 62, 127
11, 25369, Note_on_c, 9, 35, 0
11, 25369, Note_on_c, 9, 51, 0
11, 25369, Note_on_c, 9, 62, 0
11, 25392, Note_on_c, 9, 46, 96
11, 25393, Note_on_c, 9, 46, 0
11, 25416, Note_on_c, 9, 38, 127
11, 25416, Note_on_c, 9, 45, 96
11, 25416, Note_on_c, 9, 51, 96
11, 25416, Note_on_c, 9, 43, 127
11, 25416, Note_on_c, 9, 39, 112
11, 25417, Note_on_c, 9, 38, 0
11, 25417, Note_on_c, 9, 39, 0
11, 25417, Note_on_c, 9, 43, 0
11, 25417, Note_on_c, 9, 45, 0
11, 25417, Note_on_c, 9, 51, 0
11, 25440, Note_on_c, 9, 51, 48
11, 25440, Note_on_c, 9, 39, 64
11, 25441, Note_on_c, 9, 39, 0
11, 25441, Note_on_c, 9, 51, 0
11, 25464, Note_on_c, 9, 35, 112
11, 25464, Note_on_c, 9, 51, 96
11, 25464, Note_on_c, 9, 62, 127
11, 25465, Note_on_c, 9, 35, 0
11, 25465, Note_on_c, 9, 51, 0
11, 25465, Note_on_c, 9, 62, 0
11, 25512, Note_on_c, 9, 38, 127
11, 25512, Note_on_c, 9, 45, 96
11, 25512, Note_on_c, 9, 51, 96
11, 25512, Note_on_c, 9, 39, 112
11, 25513, Note_on_c, 9, 38, 0
11, 25513, Note_on_c, 9, 39, 0
11, 25513, Note_on_c, 9, 45, 0
11, 25513, Note_on_c, 9, 51, 0
11, 25536, Note_on_c, 9, 35, 112
11, 25536, Note_on_c, 9, 51, 48
11, 25536, Note_on_c, 9, 62, 127
11, 25537, Note_on_c, 9, 35, 0
11, 25537, Note_on_c, 9, 51, 0
11, 25537, Note_on_c, 9, 62, 0
11, 25560, Note_on_c, 9, 35, 112
11, 25560, Note_on_c, 9, 51, 96
11, 25561, Note_on_c, 9, 35, 0
11, 25561, Note_on_c, 9, 51, 0
11, 25584, Note_on_c, 9, 46, 96
11, 25584, Note_on_c, 9, 43, 127
11, 25584, Note_on_c, 9, 63, 127
11, 25585, Note_on_c, 9, 43, 0
11, 25585, Note_on_c, 9, 46, 0
11, 25585, Note_on_c, 9, 63, 0
11, 25608, Note_on_c, 9, 38, 127
11, 25608, Note_on_c, 9, 45, 96
11, 25608, Note_on_c, 9, 51, 96
11, 25608, Note_on_c, 9, 39, 112
11, 25608, Note_on_c, 9, 64, 127
11, 25609, Note_on_c, 9, 38, 0
11, 25609, Note_on_c, 9, 39, 0
11, 25609, Note_on_c, 9, 45, 0
11, 25609, Note_on_c, 9, 51, 0
11, 25609, Note_on_c, 9, 64, 0
11, 25632, Note_on_c, 9, 51, 48
11, 25632, Note_on_c, 9, 39, 64
11, 25632, Note_on_c, 9, 64, 127
11, 25633, Note_on_c, 9, 39, 0
11, 25633, Note_on_c, 9, 51, 0
11, 25633, Note_on_c, 9, 64, 0
11, 25656, Note_on_c, 9, 35, 112
11, 25656, Note_on_c, 9, 51, 96
11, 25657, Note_on_c, 9, 35, 0
11, 25657, Note_on_c, 9, 51, 0
11, 25680, Note_on_c, 9, 62, 127
11, 25681, Note_on_c, 9, 62, 0
11, 25704, Note_on_c, 9, 38, 127
11, 25704, Note_on_c, 9, 45, 96
11, 25704, Note_on_c, 9, 51, 96
11, 25704, Note_on_c, 9, 39, 112
11, 25705, Note_on_c, 9, 38, 0
11, 25705, Note_on_c, 9, 39, 0
11, 25705, Note_on_c, 9, 45, 0
11, 25705, Note_on_c, 9, 51, 0
11, 25728, Note_on_c, 9, 35, 112
11, 25728, Note_on_c, 9, 51, 48
11, 25729, Note_on_c, 9, 35, 0
11, 25729, Note_on_c, 9, 51, 0
11, 25752, Note_on_c, 9, 35, 112
11, 25752, Note_on_c, 9, 51, 96
11, 25752, Note_on_c, 9, 62, 127
11, 25753, Note_on_c, 9, 35, 0
11, 25753, Note_on_c, 9, 51, 0
11, 25753, Note_on_c, 9, 62, 0
11, 25776, Note_on_c, 9, 46, 96
11, 25777, Note_on_c, 9, 46, 0
11, 25800, Note_on_c, 9, 38, 127
11, 25800, Note_on_c, 9, 45, 96
11, 25800, Note_on_c, 9, 51, 96
11, 25800, Note_on_c, 9, 43, 127
11, 25800, Note_on_c, 9, 39, 112
11, 25801, Note_on_c, 9, 38, 0
11, 25801, Note_on_c, 9, 39, 0
11, 25801, Note_on_c, 9, 43, 0
11, 25801, Note_on_c, 9, 45, 0
11, 25801, Note_on_c, 9, 51, 0
11, 25824, Note_on_c, 9, 51, 48
11, 25824, Note_on_c, 9, 39, 64
11, 25825, Note_on_c, 9, 39, 0
11, 25825, Note_on_c, 9, 51, 0
11, 25848, Note_on_c, 9, 35, 112
11, 25848, Note_on_c, 9, 51, 96
11, 25848, Note_on_c, 9, 62, 127
11, 25849, Note_on_c, 9, 35, 0
11, 25849, Note_on_c, 9, 51, 0
11, 25849, Note_on_c, 9, 62, 0
11, 25896, Note_on_c, 9, 38, 127
11, 25896, Note_on_c, 9, 45, 96
11, 25896, Note_on_c, 9, 51, 96
11, 25896, Note_on_c, 9, 39, 112
11, 25897, Note_on_c, 9, 38, 0
11, 25897, Note_on_c, 9, 39, 0
11, 25897, Note_on_c, 9, 45, 0
11, 25897, Note_on_c, 9, 51, 0
11, 25920, Note_on_c, 9, 35, 112
11, 25920, Note_on_c, 9, 51, 48
11, 25920, Note_on_c, 9, 62, 127
11, 25921, Note_on_c, 9, 35, 0
11, 25921, Note_on_c, 9, 51, 0
11, 25921, Note_on_c, 9, 62, 0
11, 25944, Note_on_c, 9, 35, 112
11, 25944, Note_on_c, 9, 51, 96
11, 25945, Note_on_c, 9, 35, 0
11, 25945, Note_on_c, 9, 51, 0
11, 25968, Note_on_c, 9, 46, 96
11, 25968, Note_on_c, 9, 43, 127
11, 25968, Note_on_c, 9, 63, 127
11, 25969, Note_on_c, 9, 43, 0
11, 25969, Note_on_c, 9, 46, 0
11, 25969, Note_on_c, 9, 63, 0
11, 25992, Note_on_c, 9, 38, 127
11, 25992, Note_on_c, 9, 45, 96
11, 25992, Note_on_c, 9, 51, 96
11, 25992, Note_on_c, 9, 39, 112
11, 25992, Note_on_c, 9, 64, 127
11, 25993, Note_on_c, 9, 38, 0
11, 25993, Note_on_c, 9, 39, 0
11, 25993, Note_on_c, 9, 45, 0
11, 25993, Note_on_c, 9, 51, 0
11, 25993, Note_on_c, 9, 64, 0
11, 26016, Note_on_c, 9, 51, 48
11, 26016, Note_on_c, 9, 39, 64
11, 26016, Note_on_c, 9, 64, 127
11, 26017, Note_on_c, 9, 39, 0
11, 26017, Note_on_c, 9, 51, 0
11, 26017, Note_on_c, 9, 64, 0
11, 26040, Note_on_c, 9, 35, 112
11, 26040, Note_on_c, 9, 51, 96
11, 26041, Note_on_c, 9, 35, 0
11, 26041, Note_on_c, 9, 51, 0
11, 26064, Note_on_c, 9, 62, 127
11, 26065, Note_on_c, 9, 62, 0
11, 26088, Note_on_c, 9, 38, 127
11, 26088, Note_on_c, 9, 45, 96
11, 26088, Note_on_c, 9, 51, 96
11, 26088, Note_on_c, 9, 39, 112
11, 26089, Note_on_c, 9, 38, 0
11, 26089, Note_on_c, 9, 39, 0
11, 26089, Note_on_c, 9, 45, 0
11, 26089, Note_on_c, 9, 51, 0
11, 26112, Note_on_c, 9, 35, 112
11, 26112, Note_on_c, 9, 51, 48
11, 26113, Note_on_c, 9, 35, 0
11, 26113, Note_on_c, 9, 51, 0
11, 26136, Note_on_c, 9, 35, 112
11, 26136, Note_on_c, 9, 51, 96
11, 26136, Note_on_c, 9, 62, 127
11, 26137, Note_on_c, 9, 35, 0
11, 26137, Note_on_c, 9, 51, 0
11, 26137, Note_on_c, 9, 62, 0
11, 26160, Note_on_c, 9, 46, 96
11, 26161, Note_on_c, 9, 46, 0
11, 26184, Note_on_c, 9, 38, 127
11, 26184, Note_on_c, 9, 45, 96
11, 26184, Note_on_c, 9, 51, 96
11, 26184, Note_on_c, 9, 43, 127
11, 26184, Note_on_c, 9, 39, 112
11, 26185, Note_on_c, 9, 38, 0
11, 26185, Note_on_c, 9, 39, 0
11, 26185, Note_on_c, 9, 43, 0
11, 26185, Note_on_c, 9, 45, 0
11, 26185, Note_on_c, 9, 51, 0
11, 26208, Note_on_c, 9, 51, 48
11, 26208, Note_on_c, 9, 39, 64
11, 26209, Note_on_c, 9, 39, 0
11, 26209, Note_on_c, 9, 51, 0
11, 26232, Note_on_c, 9, 35, 112
11, 26232, Note_on_c, 9, 51, 96
11, 26232, Note_on_c, 9, 62, 127
11, 26233, Note_on_c, 9, 35, 0
11, 26233, Note_on_c, 9, 51, 0
11, 26233, Note_on_c, 9, 62, 0
11, 26280, Note_on_c, 9, 38, 127
11, 26280, Note_on_c, 9, 45, 96
11, 26280, Note_on_c, 9, 51, 96
11, 26280, Note_on_c, 9, 39, 112
11, 26281, Note_on_c, 9, 38, 0
11, 26281, Note_on_c, 9, 39, 0
11, 26281, Note_on_c, 9, 45, 0
11, 26281, Note_on_c, 9, 51, 0
11, 26304, Note_on_c, 9, 35, 112
11, 26304, Note_on_c, 9, 51, 48
11, 26304, Note_on_c, 9, 62, 127
11, 26305, Note_on_c, 9, 35, 0
11, 26305, Note_on_c, 9, 51, 0
11, 26305, Note_on_c, 9, 62, 0
11, 26328, Note_on_c, 9, 35, 112
11, 26328, Note_on_c, 9, 51, 96
11, 26329, Note_on_c, 9, 35, 0
11, 26329, Note_on_c, 9, 51, 0
11, 26352, Note_on_c, 9, 46, 96
11, 26352, Note_on_c, 9, 43, 127
11, 26352, Note_on_c, 9, 63, 127
11, 26353, Note_on_c, 9, 43, 0
11, 26353, Note_on_c, 9, 46, 0
11, 26353, Note_on_c, 9, 63, 0
11, 26376, Note_on_c, 9, 38, 127
11, 26376, Note_on_c, 9, 45, 96
11, 26376, Note_on_c, 9, 51, 96
11, 26376, Note_on_c, 9, 39, 112
11, 26376, Note_on_c, 9, 64, 127
11, 26377, Note_on_c, 9, 38, 0
11, 26377, Note_on_c, 9, 39, 0
11, 26377, Note_on_c, 9, 45, 0
11, 26377, Note_on_c, 9, 51, 0
11, 26377, Note_on_c, 9, 64, 0
11, 26400, Note_on_c, 9, 51, 48
11, 26400, Note_on_c, 9, 39, 64
11, 26400, Note_on_c, 9, 64, 127
11, 26401, Note_on_c, 9, 39, 0
11, 26401, Note_on_c, 9, 51, 0
11, 26401, Note_on_c, 9, 64, 0
11, 26424, Note_on_c, 9, 35, 112
11, 26424, Note_on_c, 9, 51, 96
11, 26425, Note_on_c, 9, 35, 0
11, 26425, Note_on_c, 9, 51, 0
11, 26448, Note_on_c, 9, 62, 127
11, 26449, Note_on_c, 9, 62, 0
11, 26472, Note_on_c, 9, 38, 127
11, 26472, Note_on_c, 9, 45, 96
11, 26472, Note_on_c, 9, 51, 96
11, 26472, Note_on_c, 9, 39, 112
11, 26473, Note_on_c, 9, 38, 0
11, 26473, Note_on_c, 9, 39, 0
11, 26473, Note_on_c, 9, 45, 0
11, 26473, Note_on_c, 9, 51, 0
11, 26496, Note_on_c, 9, 35, 112
11, 26496, Note_on_c, 9, 51, 48
11, 26497, Note_on_c, 9, 35, 0
11, 26497, Note_on_c, 9, 51, 0
11, 26520, Note_on_c, 9, 35, 112
11, 26520, Note_on_c, 9, 51, 96
11, 26520, Note_on_c, 9, 62, 127
11, 26521, Note_on_c, 9, 35, 0
11, 26521, Note_on_c, 9, 51, 0
11, 26521, Note_on_c, 9, 62, 0
11, 26544, Note_on_c, 9, 46, 96
11, 26545, Note_on_c, 9, 46, 0
11, 26568, Note_on_c, 9, 38, 127
11, 26568, Note_on_c, 9, 45, 96
11, 26568, Note_on_c, 9, 51, 96
11, 26568, Note_on_c, 9, 43, 127
11, 26568, Note_on_c, 9, 39, 112
11, 26569, Note_on_c, 9, 38, 0
11, 26569, Note_on_c, 9, 39, 0
11, 26569, Note_on_c, 9, 43, 0
11, 26569, Note_on_c, 9, 45, 0
11, 26569, Note_on_c, 9, 51, 0
11, 26592, Note_on_c, 9, 51, 48
11, 26592, Note_on_c, 9, 39, 64
11, 26593, Note_on_c, 9, 39, 0
11, 26593, Note_on_c, 9, 51, 0
11, 26616, Note_on_c, 9, 35, 112
11, 26616, Note_on_c, 9, 51, 96
11, 26617, Note_on_c, 9, 35, 0
11, 26617, Note_on_c, 9, 51, 0
11, 26664, Note_on_c, 9, 38, 127
11, 26664, Note_on_c, 9, 45, 96
11, 26664, Note_on_c, 9, 51, 96
11, 26664, Note_on_c, 9, 39, 112
11, 26665, Note_on_c, 9, 38, 0
11, 26665, Note_on_c, 9, 39, 0
11, 26665, Note_on_c, 9, 45, 0
11, 26665, Note_on_c, 9, 51, 0
11, 26688, Note_on_c, 9, 35, 112
11, 26688, Note_on_c, 9, 51, 48
11, 26689, Note_on_c, 9, 35, 0
11, 26689, Note_on_c, 9, 51, 0
11, 26712, Note_on_c, 9, 35, 112
11, 26712, Note_on_c, 9, 51, 96
11, 26713, Note_on_c, 9, 35, 0
11, 26713, Note_on_c, 9, 51, 0
11, 26736, Note_on_c, 9, 38, 127
11, 26736, Note_on_c, 9, 43, 127
11, 26737, Note_on_c, 9, 38, 0
11, 26737, Note_on_c, 9, 43, 0
11, 26760, Note_on_c, 9, 38, 127
11, 26760, Note_on_c, 9, 45, 96
11, 26760, Note_on_c, 9, 43, 127
11, 26760, Note_on_c, 9, 39, 112
11, 26761, Note_on_c, 9, 38, 0
11, 26761, Note_on_c, 9, 39, 0
11, 26761, Note_on_c, 9, 43, 0
11, 26761, Note_on_c, 9, 45, 0
11, 26784, Note_on_c, 9, 38, 127
11, 26784, Note_on_c, 9, 43, 127
11, 26784, Note_on_c, 9, 39, 64
11, 26785, Note_on_c, 9, 38, 0
11, 26785, Note_on_c, 9, 39, 0
11, 26785, Note_on_c, 9, 43, 0
11, 26808, Note_on_c, 9, 35, 112
11, 26808, Note_on_c, 9, 42, 80
11, 26808, Note_on_c, 9, 49, 96
11, 26809, Note_on_c, 9, 35, 0
11, 26809, Note_on_c, 9, 42, 0
11, 26809, Note_on_c, 9, 49, 0
11, 26832, Note_on_c, 9, 42, 48
11, 26832, Note_on_c, 9, 62, 127
11, 26833, Note_on_c, 9, 42, 0
11, 26833, Note_on_c, 9, 62, 0
11, 26856, Note_on_c, 9, 38, 127
11, 26856, Note_on_c, 9, 45, 96
11, 26856, Note_on_c, 9, 42, 80
11, 26856, Note_on_c, 9, 39, 112
11, 26857, Note_on_c, 9, 38, 0
11, 26857, Note_on_c, 9, 39, 0
11, 26857, Note_on_c, 9, 42, 0
11, 26857, Note_on_c, 9, 45, 0
11, 26880, Note_on_c, 9, 35, 112
11, 26880, Note_on_c, 9, 42, 48
11, 26881, Note_on_c, 9, 35, 0
11, 26881, Note_on_c, 9, 42, 0
11, 26904, Note_on_c, 9, 35, 112
11, 26904, Note_on_c, 9, 42, 80
11, 26904, Note_on_c, 9, 62, 127
11, 26905, Note_on_c, 9, 35, 0
11, 26905, Note_on_c, 9, 42, 0
11, 26905, Note_on_c, 9, 62, 0
11, 26928, Note_on_c, 9, 46, 96
11, 26928, Note_on_c, 9, 63, 127
11, 26929, Note_on_c, 9, 46, 0
11, 26929, Note_on_c, 9, 63, 0
11, 26952, Note_on_c, 9, 38, 127
11, 26952, Note_on_c, 9, 45, 96
11, 26952, Note_on_c, 9, 43, 127
11, 26952, Note_on_c, 9, 39, 112
11, 26953, Note_on_c, 9, 38, 0
11, 26953, Note_on_c, 9, 39, 0
11, 26953, Note_on_c, 9, 43, 0
11, 26953, Note_on_c, 9, 45, 0
11, 26976, Note_on_c, 9, 42, 80
11, 26976, Note_on_c, 9, 39, 64
11, 26977, Note_on_c, 9, 39, 0
11, 26977, Note_on_c, 9, 42, 0
11, 27000, Note_on_c, 9, 35, 112
11, 27000, Note_on_c, 9, 45, 64
11, 27000, Note_on_c, 9, 43, 48
11, 27001, Note_on_c, 9, 35, 0
11, 27001, Note_on_c, 9, 43, 0
11, 27001, Note_on_c, 9, 45, 0
11, 27024, Note_on_c, 9, 45, 64
11, 27024, Note_on_c, 9, 43, 48
11, 27025, Note_on_c, 9, 43, 0
11, 27025, Note_on_c, 9, 45, 0
11, 27048, Note_on_c, 9, 35, 112
11, 27048, Note_on_c, 9, 45, 80
11, 27048, Note_on_c, 9, 43, 64
11, 27049, Note_on_c, 9, 35, 0
11, 27049, Note_on_c, 9, 43, 0
11, 27049, Note_on_c, 9, 45, 0
11, 27072, Note_on_c, 9, 45, 80
11, 27072, Note_on_c, 9, 43, 80
11, 27073, Note_on_c, 9, 43, 0
11, 27073, Note_on_c, 9, 45, 0
11, 27096, Note_on_c, 9, 35, 64
11, 27096, Note_on_c, 9, 45, 96
11, 27096, Note_on_c, 9, 43, 96
11, 27097, Note_on_c, 9, 35, 0
11, 27097, Note_on_c, 9, 43, 0
11, 27097, Note_on_c, 9, 45, 0
11, 27120, Note_on_c, 9, 35, 80
11, 27120, Note_on_c, 9, 45, 96
11, 27120, Note_on_c, 9, 43, 112
11, 27121, Note_on_c, 9, 35, 0
11, 27121, Note_on_c, 9, 43, 0
11, 27121, Note_on_c, 9, 45, 0
11, 27144, Note_on_c, 9, 35, 96
11, 27144, Note_on_c, 9, 45, 112
11, 27144, Note_on_c, 9, 43, 127
11, 27145, Note_on_c, 9, 35, 0
11, 27145, Note_on_c, 9, 43, 0
11, 27145, Note_on_c, 9, 45, 0
11, 27168, Note_on_c, 9, 35, 112
11, 27168, Note_on_c, 9, 45, 127
11, 27168, Note_on_c, 9, 43, 127
11, 27169, Note_on_c, 9, 35, 0
11, 27169, Note_on_c, 9, 43, 0
11, 27169, Note_on_c, 9, 45, 0
11, 27192, Note_on_c, 9, 35, 112
11, 27192, Note_on_c, 9, 49, 96
11, 27193, Note_on_c, 9, 35, 0
11, 27193, Note_on_c, 9, 49, 0
11, 27193, End_track
0, 0, End_of_file
