0, 0, Header, 1, 8, 960
1, 0, Start_track
1, 0, Control_c, 0, 101, 0
1, 0, Control_c, 0, 100, 0
1, 0, Control_c, 0, 6, 12
1, 0, Control_c, 0, 38, 0
1, 0, Control_c, 1, 101, 0
1, 0, Control_c, 1, 100, 0
1, 0, Control_c, 1, 6, 12
1, 0, Control_c, 1, 38, 0
1, 0, Control_c, 2, 101, 0
1, 0, Control_c, 2, 100, 0
1, 0, Control_c, 2, 6, 12
1, 0, Control_c, 2, 38, 0
1, 0, Control_c, 3, 101, 0
1, 0, Control_c, 3, 100, 0
1, 0, Control_c, 3, 6, 12
1, 0, Control_c, 3, 38, 0
1, 0, Control_c, 4, 101, 0
1, 0, Control_c, 4, 100, 0
1, 0, Control_c, 4, 6, 12
1, 0, Control_c, 4, 38, 0
1, 0, Control_c, 5, 101, 0
1, 0, Control_c, 5, 100, 0
1, 0, Control_c, 5, 6, 12
1, 0, Control_c, 5, 38, 0
1, 0, Control_c, 6, 101, 0
1, 0, Control_c, 6, 100, 0
1, 0, Control_c, 6, 6, 12
1, 0, Control_c, 6, 38, 0
1, 0, Control_c, 7, 101, 0
1, 0, Control_c, 7, 100, 0
1, 0, Control_c, 7, 6, 12
1, 0, Control_c, 7, 38, 0
1, 0, Control_c, 8, 101, 0
1, 0, Control_c, 8, 100, 0
1, 0, Control_c, 8, 6, 12
1, 0, Control_c, 8, 38, 0
1, 0, Control_c, 9, 101, 0
1, 0, Control_c, 9, 100, 0
1, 0, Control_c, 9, 6, 12
1, 0, Control_c, 9, 38, 0
1, 0, Control_c, 10, 101, 0
1, 0, Control_c, 10, 100, 0
1, 0, Control_c, 10, 6, 12
1, 0, Control_c, 10, 38, 0
1, 0, Control_c, 11, 101, 0
1, 0, Control_c, 11, 100, 0
1, 0, Control_c, 11, 6, 12
1, 0, Control_c, 11, 38, 0
1, 0, Control_c, 12, 101, 0
1, 0, Control_c, 12, 100, 0
1, 0, Control_c, 12, 6, 12
1, 0, Control_c, 12, 38, 0
1, 0, Control_c, 13, 101, 0
1, 0, Control_c, 13, 100, 0
1, 0, Control_c, 13, 6, 12
1, 0, Control_c, 13, 38, 0
1, 0, Control_c, 14, 101, 0
1, 0, Control_c, 14, 100, 0
1, 0, Control_c, 14, 6, 12
1, 0, Control_c, 14, 38, 0
1, 0, Control_c, 15, 101, 0
1, 0, Control_c, 15, 100, 0
1, 0, Control_c, 15, 6, 12
1, 0, Control_c, 15, 38, 0
1, 0, Time_signature, 4, 2, 24, 8
1, 0, Tempo, 560747
1, 0, End_track
2, 0, Start_track
2, 0, Pitch_bend_c, 0, 8192
2, 0, Control_c, 0, 7, 127
2, 0, Control_c, 0, 10, 63
2, 0, Control_c, 0, 93, 0
2, 0, Control_c, 0, 91, 0
2, 0, Control_c, 0, 95, 0
2, 0, Control_c, 0, 92, 0
2, 0, Control_c, 0, 11, 127
2, 0, Program_c, 0, 29
2, 0, Control_c, 1, 7, 127
2, 0, Control_c, 1, 10, 63
2, 0, Control_c, 1, 93, 0
2, 0, Control_c, 1, 91, 0
2, 0, Control_c, 1, 95, 0
2, 0, Control_c, 1, 92, 0
2, 0, Control_c, 1, 11, 127
2, 0, Program_c, 1, 29
2, 0, Note_on_c, 0, 64, 95
2, 0, Note_on_c, 0, 59, 95
2, 0, Note_on_c, 0, 52, 95
2, 480, Note_off_c, 0, 64, 95
2, 480, Note_off_c, 0, 59, 95
2, 480, Note_off_c, 0, 52, 95
2, 480, Note_on_c, 0, 64, 95
2, 480, Note_on_c, 0, 59, 95
2, 480, Note_on_c, 0, 52, 95
2, 960, Note_off_c, 0, 64, 95
2, 960, Note_off_c, 0, 59, 95
2, 960, Note_off_c, 0, 52, 95
2, 960, Note_on_c, 0, 62, 95
2, 960, Note_on_c, 0, 57, 95
2, 960, Note_on_c, 0, 50, 95
2, 1440, Note_off_c, 0, 62, 95
2, 1440, Note_off_c, 0, 57, 95
2, 1440, Note_off_c, 0, 50, 95
2, 1440, Note_on_c, 0, 64, 95
2, 1440, Note_on_c, 0, 59, 95
2, 1440, Note_on_c, 0, 52, 95
2, 1920, Note_off_c, 0, 64, 95
2, 1920, Note_off_c, 0, 59, 95
2, 1920, Note_off_c, 0, 52, 95
2, 2880, Note_on_c, 0, 59, 95
2, 2880, Note_on_c, 0, 55, 95
2, 2880, Note_on_c, 0, 50, 95
2, 2933, Note_off_c, 0, 59, 95
2, 2933, Note_off_c, 0, 55, 95
2, 2933, Note_off_c, 0, 50, 95
2, 3360, Note_on_c, 0, 62, 95
2, 3360, Note_on_c, 0, 57, 95
2, 3360, Note_on_c, 0, 50, 95
2, 7680, Note_off_c, 0, 62, 95
2, 7680, Note_off_c, 0, 57, 95
2, 7680, Note_off_c, 0, 50, 95
2, 7680, Note_on_c, 0, 64, 95
2, 7680, Note_on_c, 0, 59, 95
2, 7680, Note_on_c, 0, 52, 95
2, 8160, Note_off_c, 0, 64, 95
2, 8160, Note_off_c, 0, 59, 95
2, 8160, Note_off_c, 0, 52, 95
2, 8160, Note_on_c, 0, 64, 95
2, 8160, Note_on_c, 0, 59, 95
2, 8160, Note_on_c, 0, 52, 95
2, 8640, Note_off_c, 0, 64, 95
2, 8640, Note_off_c, 0, 59, 95
2, 8640, Note_off_c, 0, 52, 95
2, 8640, Note_on_c, 0, 62, 95
2, 8640, Note_on_c, 0, 57, 95
2, 8640, Note_on_c, 0, 50, 95
2, 9120, Note_off_c, 0, 62, 95
2, 9120, Note_off_c, 0, 57, 95
2, 9120, Note_off_c, 0, 50, 95
2, 9120, Note_on_c, 0, 64, 95
2, 9120, Note_on_c, 0, 59, 95
2, 9120, Note_on_c, 0, 52, 95
2, 9600, Note_off_c, 0, 64, 95
2, 9600, Note_off_c, 0, 59, 95
2, 9600, Note_off_c, 0, 52, 95
2, 11040, Note_on_c, 0, 62, 95
2, 11040, Note_on_c, 0, 57, 95
2, 11040, Note_on_c, 0, 50, 95
2, 15360, Note_off_c, 0, 62, 95
2, 15360, Note_off_c, 0, 57, 95
2, 15360, Note_off_c, 0, 50, 95
2, 15360, Note_on_c, 0, 64, 95
2, 15360, Note_on_c, 0, 59, 95
2, 15360, Note_on_c, 0, 52, 95
2, 15840, Note_off_c, 0, 64, 95
2, 15840, Note_off_c, 0, 59, 95
2, 15840, Note_off_c, 0, 52, 95
2, 15840, Note_on_c, 0, 64, 95
2, 15840, Note_on_c, 0, 59, 95
2, 15840, Note_on_c, 0, 52, 95
2, 16320, Note_off_c, 0, 64, 95
2, 16320, Note_off_c, 0, 59, 95
2, 16320, Note_off_c, 0, 52, 95
2, 16320, Note_on_c, 0, 62, 95
2, 16320, Note_on_c, 0, 57, 95
2, 16320, Note_on_c, 0, 50, 95
2, 16800, Note_off_c, 0, 62, 95
2, 16800, Note_off_c, 0, 57, 95
2, 16800, Note_off_c, 0, 50, 95
2, 16800, Note_on_c, 0, 64, 95
2, 16800, Note_on_c, 0, 59, 95
2, 16800, Note_on_c, 0, 52, 95
2, 17280, Note_off_c, 0, 64, 95
2, 17280, Note_off_c, 0, 59, 95
2, 17280, Note_off_c, 0, 52, 95
2, 18240, Note_on_c, 0, 59, 95
2, 18240, Note_on_c, 0, 55, 95
2, 18240, Note_on_c, 0, 50, 95
2, 18293, Note_off_c, 0, 59, 95
2, 18293, Note_off_c, 0, 55, 95
2, 18293, Note_off_c, 0, 50, 95
2, 18720, Note_on_c, 0, 62, 95
2, 18720, Note_on_c, 0, 57, 95
2, 18720, Note_on_c, 0, 50, 95
2, 23040, Note_off_c, 0, 62, 95
2, 23040, Note_off_c, 0, 57, 95
2, 23040, Note_off_c, 0, 50, 95
2, 23040, Note_on_c, 0, 64, 95
2, 23040, Note_on_c, 0, 59, 95
2, 23040, Note_on_c, 0, 52, 95
2, 23520, Note_off_c, 0, 64, 95
2, 23520, Note_off_c, 0, 59, 95
2, 23520, Note_off_c, 0, 52, 95
2, 23520, Note_on_c, 0, 64, 95
2, 23520, Note_on_c, 0, 59, 95
2, 23520, Note_on_c, 0, 52, 95
2, 24000, Note_off_c, 0, 64, 95
2, 24000, Note_off_c, 0, 59, 95
2, 24000, Note_off_c, 0, 52, 95
2, 24000, Note_on_c, 0, 62, 95
2, 24000, Note_on_c, 0, 57, 95
2, 24000, Note_on_c, 0, 50, 95
2, 24480, Note_off_c, 0, 62, 95
2, 24480, Note_off_c, 0, 57, 95
2, 24480, Note_off_c, 0, 50, 95
2, 24480, Note_on_c, 0, 64, 95
2, 24480, Note_on_c, 0, 59, 95
2, 24480, Note_on_c, 0, 52, 95
2, 24960, Note_off_c, 0, 64, 95
2, 24960, Note_off_c, 0, 59, 95
2, 24960, Note_off_c, 0, 52, 95
2, 25920, Note_on_c, 0, 59, 95
2, 25920, Note_on_c, 0, 55, 95
2, 25920, Note_on_c, 0, 50, 95
2, 25973, Note_off_c, 0, 59, 95
2, 25973, Note_off_c, 0, 55, 95
2, 25973, Note_off_c, 0, 50, 95
2, 26400, Note_on_c, 0, 62, 95
2, 26400, Note_on_c, 0, 57, 95
2, 26400, Note_on_c, 0, 50, 95
2, 30720, Note_off_c, 0, 62, 95
2, 30720, Note_off_c, 0, 57, 95
2, 30720, Note_off_c, 0, 50, 95
2, 30720, Note_on_c, 0, 64, 95
2, 30720, Note_on_c, 0, 59, 95
2, 30720, Note_on_c, 0, 52, 95
2, 31200, Note_off_c, 0, 64, 95
2, 31200, Note_off_c, 0, 59, 95
2, 31200, Note_off_c, 0, 52, 95
2, 31200, Note_on_c, 0, 64, 95
2, 31200, Note_on_c, 0, 59, 95
2, 31200, Note_on_c, 0, 52, 95
2, 31680, Note_off_c, 0, 64, 95
2, 31680, Note_off_c, 0, 59, 95
2, 31680, Note_off_c, 0, 52, 95
2, 31680, Note_on_c, 0, 62, 95
2, 31680, Note_on_c, 0, 57, 95
2, 31680, Note_on_c, 0, 50, 95
2, 32160, Note_off_c, 0, 62, 95
2, 32160, Note_off_c, 0, 57, 95
2, 32160, Note_off_c, 0, 50, 95
2, 32160, Note_on_c, 0, 64, 95
2, 32160, Note_on_c, 0, 59, 95
2, 32160, Note_on_c, 0, 52, 95
2, 32640, Note_off_c, 0, 64, 95
2, 32640, Note_off_c, 0, 59, 95
2, 32640, Note_off_c, 0, 52, 95
2, 34080, Note_on_c, 0, 62, 95
2, 34080, Note_on_c, 0, 57, 95
2, 34080, Note_on_c, 0, 50, 95
2, 38400, Note_off_c, 0, 62, 95
2, 38400, Note_off_c, 0, 57, 95
2, 38400, Note_off_c, 0, 50, 95
2, 38400, Note_on_c, 0, 64, 95
2, 38400, Note_on_c, 0, 59, 95
2, 38400, Note_on_c, 0, 52, 95
2, 38880, Note_off_c, 0, 64, 95
2, 38880, Note_off_c, 0, 59, 95
2, 38880, Note_off_c, 0, 52, 95
2, 38880, Note_on_c, 0, 64, 95
2, 38880, Note_on_c, 0, 59, 95
2, 38880, Note_on_c, 0, 52, 95
2, 39360, Note_off_c, 0, 64, 95
2, 39360, Note_off_c, 0, 59, 95
2, 39360, Note_off_c, 0, 52, 95
2, 39360, Note_on_c, 0, 62, 95
2, 39360, Note_on_c, 0, 57, 95
2, 39360, Note_on_c, 0, 50, 95
2, 39840, Note_off_c, 0, 62, 95
2, 39840, Note_off_c, 0, 57, 95
2, 39840, Note_off_c, 0, 50, 95
2, 39840, Note_on_c, 0, 64, 95
2, 39840, Note_on_c, 0, 59, 95
2, 39840, Note_on_c, 0, 52, 95
2, 40320, Note_off_c, 0, 64, 95
2, 40320, Note_off_c, 0, 59, 95
2, 40320, Note_off_c, 0, 52, 95
2, 41280, Note_on_c, 0, 59, 95
2, 41280, Note_on_c, 0, 55, 95
2, 41280, Note_on_c, 0, 50, 95
2, 41333, Note_off_c, 0, 59, 95
2, 41333, Note_off_c, 0, 55, 95
2, 41333, Note_off_c, 0, 50, 95
2, 41760, Note_on_c, 0, 62, 95
2, 41760, Note_on_c, 0, 57, 95
2, 41760, Note_on_c, 0, 50, 95
2, 46080, Note_off_c, 0, 62, 95
2, 46080, Note_off_c, 0, 57, 95
2, 46080, Note_off_c, 0, 50, 95
2, 46080, Note_on_c, 0, 64, 95
2, 46080, Note_on_c, 0, 59, 95
2, 46080, Note_on_c, 0, 52, 95
2, 46560, Note_off_c, 0, 64, 95
2, 46560, Note_off_c, 0, 59, 95
2, 46560, Note_off_c, 0, 52, 95
2, 46560, Note_on_c, 0, 64, 95
2, 46560, Note_on_c, 0, 59, 95
2, 46560, Note_on_c, 0, 52, 95
2, 47040, Note_off_c, 0, 64, 95
2, 47040, Note_off_c, 0, 59, 95
2, 47040, Note_off_c, 0, 52, 95
2, 47040, Note_on_c, 0, 62, 95
2, 47040, Note_on_c, 0, 57, 95
2, 47040, Note_on_c, 0, 50, 95
2, 47520, Note_off_c, 0, 62, 95
2, 47520, Note_off_c, 0, 57, 95
2, 47520, Note_off_c, 0, 50, 95
2, 47520, Note_on_c, 0, 64, 95
2, 47520, Note_on_c, 0, 59, 95
2, 47520, Note_on_c, 0, 52, 95
2, 48000, Note_off_c, 0, 64, 95
2, 48000, Note_off_c, 0, 59, 95
2, 48000, Note_off_c, 0, 52, 95
2, 49440, Note_on_c, 0, 62, 95
2, 49440, Note_on_c, 0, 57, 95
2, 49440, Note_on_c, 0, 50, 95
2, 53760, Note_off_c, 0, 62, 95
2, 53760, Note_off_c, 0, 57, 95
2, 53760, Note_off_c, 0, 50, 95
2, 53760, Note_on_c, 0, 64, 95
2, 53760, Note_on_c, 0, 59, 95
2, 53760, Note_on_c, 0, 52, 95
2, 54240, Note_off_c, 0, 64, 95
2, 54240, Note_off_c, 0, 59, 95
2, 54240, Note_off_c, 0, 52, 95
2, 54240, Note_on_c, 0, 64, 95
2, 54240, Note_on_c, 0, 59, 95
2, 54240, Note_on_c, 0, 52, 95
2, 54720, Note_off_c, 0, 64, 95
2, 54720, Note_off_c, 0, 59, 95
2, 54720, Note_off_c, 0, 52, 95
2, 54720, Note_on_c, 0, 62, 95
2, 54720, Note_on_c, 0, 57, 95
2, 54720, Note_on_c, 0, 50, 95
2, 55200, Note_off_c, 0, 62, 95
2, 55200, Note_off_c, 0, 57, 95
2, 55200, Note_off_c, 0, 50, 95
2, 55200, Note_on_c, 0, 64, 95
2, 55200, Note_on_c, 0, 59, 95
2, 55200, Note_on_c, 0, 52, 95
2, 55680, Note_off_c, 0, 64, 95
2, 55680, Note_off_c, 0, 59, 95
2, 55680, Note_off_c, 0, 52, 95
2, 57120, Note_on_c, 0, 62, 95
2, 57120, Note_on_c, 0, 57, 95
2, 57120, Note_on_c, 0, 50, 95
2, 60960, Note_off_c, 0, 62, 95
2, 60960, Note_off_c, 0, 57, 95
2, 60960, Note_off_c, 0, 50, 95
2, 60960, Note_on_c, 0, 64, 95
2, 60960, Note_on_c, 0, 59, 95
2, 60960, Note_on_c, 0, 52, 95
2, 62880, Note_off_c, 0, 64, 95
2, 62880, Note_off_c, 0, 59, 95
2, 62880, Note_off_c, 0, 52, 95
2, 62880, Note_on_c, 0, 62, 95
2, 62880, Note_on_c, 0, 57, 95
2, 62880, Note_on_c, 0, 50, 95
2, 64800, Note_off_c, 0, 62, 95
2, 64800, Note_off_c, 0, 57, 95
2, 64800, Note_off_c, 0, 50, 95
2, 64800, Note_on_c, 0, 60, 95
2, 64800, Note_on_c, 0, 55, 95
2, 64800, Note_on_c, 0, 48, 95
2, 67200, Note_off_c, 0, 60, 95
2, 67200, Note_off_c, 0, 55, 95
2, 67200, Note_off_c, 0, 48, 95
2, 67200, Note_on_c, 0, 59, 95
2, 67200, Note_on_c, 0, 54, 95
2, 67200, Note_on_c, 0, 47, 95
2, 67680, Note_off_c, 0, 59, 95
2, 67680, Note_off_c, 0, 54, 95
2, 67680, Note_off_c, 0, 47, 95
2, 69120, Note_on_c, 0, 64, 95
2, 69120, Note_on_c, 0, 59, 95
2, 69120, Note_on_c, 0, 52, 95
2, 69600, Note_off_c, 0, 64, 95
2, 69600, Note_off_c, 0, 59, 95
2, 69600, Note_off_c, 0, 52, 95
2, 69600, Note_on_c, 0, 64, 95
2, 69600, Note_on_c, 0, 59, 95
2, 69600, Note_on_c, 0, 52, 95
2, 70080, Note_off_c, 0, 64, 95
2, 70080, Note_off_c, 0, 59, 95
2, 70080, Note_off_c, 0, 52, 95
2, 70080, Note_on_c, 0, 62, 95
2, 70080, Note_on_c, 0, 57, 95
2, 70080, Note_on_c, 0, 50, 95
2, 70560, Note_off_c, 0, 62, 95
2, 70560, Note_off_c, 0, 57, 95
2, 70560, Note_off_c, 0, 50, 95
2, 70560, Note_on_c, 0, 64, 95
2, 70560, Note_on_c, 0, 59, 95
2, 70560, Note_on_c, 0, 52, 95
2, 71040, Note_off_c, 0, 64, 95
2, 71040, Note_off_c, 0, 59, 95
2, 71040, Note_off_c, 0, 52, 95
2, 72480, Note_on_c, 0, 62, 95
2, 72480, Note_on_c, 0, 57, 95
2, 72480, Note_on_c, 0, 50, 95
2, 74880, Note_off_c, 0, 62, 95
2, 74880, Note_off_c, 0, 57, 95
2, 74880, Note_off_c, 0, 50, 95
2, 74880, Note_on_c, 0, 62, 95
2, 74880, Note_on_c, 0, 57, 95
2, 74880, Note_on_c, 0, 50, 95
2, 75600, Note_off_c, 0, 62, 95
2, 75600, Note_off_c, 0, 57, 95
2, 75600, Note_off_c, 0, 50, 95
2, 75600, Note_on_c, 0, 55, 95
2, 75600, Note_on_c, 0, 50, 95
2, 75600, Note_on_c, 0, 45, 95
2, 75653, Note_off_c, 0, 55, 95
2, 75653, Note_off_c, 0, 50, 95
2, 75653, Note_off_c, 0, 45, 95
2, 75840, Note_on_c, 0, 62, 95
2, 75840, Note_on_c, 0, 57, 95
2, 75840, Note_on_c, 0, 50, 95
2, 76080, Note_off_c, 0, 62, 95
2, 76080, Note_off_c, 0, 57, 95
2, 76080, Note_off_c, 0, 50, 95
2, 76080, Note_on_c, 0, 55, 95
2, 76080, Note_on_c, 0, 50, 95
2, 76080, Note_on_c, 0, 45, 95
2, 76133, Note_off_c, 0, 55, 95
2, 76133, Note_off_c, 0, 50, 95
2, 76133, Note_off_c, 0, 45, 95
2, 76320, Note_on_c, 0, 62, 95
2, 76320, Note_on_c, 0, 57, 95
2, 76320, Note_on_c, 0, 50, 95
2, 76800, Note_off_c, 0, 62, 95
2, 76800, Note_off_c, 0, 57, 95
2, 76800, Note_off_c, 0, 50, 95
2, 76800, Note_on_c, 0, 64, 95
2, 76800, Note_on_c, 0, 59, 95
2, 76800, Note_on_c, 0, 52, 95
2, 77280, Note_off_c, 0, 64, 95
2, 77280, Note_off_c, 0, 59, 95
2, 77280, Note_off_c, 0, 52, 95
2, 77280, Note_on_c, 0, 64, 95
2, 77280, Note_on_c, 0, 59, 95
2, 77280, Note_on_c, 0, 52, 95
2, 77760, Note_off_c, 0, 64, 95
2, 77760, Note_off_c, 0, 59, 95
2, 77760, Note_off_c, 0, 52, 95
2, 77760, Note_on_c, 0, 62, 95
2, 77760, Note_on_c, 0, 57, 95
2, 77760, Note_on_c, 0, 50, 95
2, 78240, Note_off_c, 0, 62, 95
2, 78240, Note_off_c, 0, 57, 95
2, 78240, Note_off_c, 0, 50, 95
2, 78240, Note_on_c, 0, 64, 95
2, 78240, Note_on_c, 0, 59, 95
2, 78240, Note_on_c, 0, 52, 95
2, 78720, Note_off_c, 0, 64, 95
2, 78720, Note_off_c, 0, 59, 95
2, 78720, Note_off_c, 0, 52, 95
2, 79680, Note_on_c, 0, 55, 95
2, 79680, Note_on_c, 0, 50, 95
2, 79680, Note_on_c, 0, 45, 95
2, 79733, Note_off_c, 0, 55, 95
2, 79733, Note_off_c, 0, 50, 95
2, 79733, Note_off_c, 0, 45, 95
2, 80160, Note_on_c, 0, 62, 95
2, 80160, Note_on_c, 0, 57, 95
2, 80160, Note_on_c, 0, 50, 95
2, 84480, Note_off_c, 0, 62, 95
2, 84480, Note_off_c, 0, 57, 95
2, 84480, Note_off_c, 0, 50, 95
2, 84480, Note_on_c, 0, 64, 95
2, 84480, Note_on_c, 0, 59, 95
2, 84480, Note_on_c, 0, 52, 95
2, 84960, Note_off_c, 0, 64, 95
2, 84960, Note_off_c, 0, 59, 95
2, 84960, Note_off_c, 0, 52, 95
2, 84960, Note_on_c, 0, 64, 95
2, 84960, Note_on_c, 0, 59, 95
2, 84960, Note_on_c, 0, 52, 95
2, 85440, Note_off_c, 0, 64, 95
2, 85440, Note_off_c, 0, 59, 95
2, 85440, Note_off_c, 0, 52, 95
2, 85440, Note_on_c, 0, 62, 95
2, 85440, Note_on_c, 0, 57, 95
2, 85440, Note_on_c, 0, 50, 95
2, 85920, Note_off_c, 0, 62, 95
2, 85920, Note_off_c, 0, 57, 95
2, 85920, Note_off_c, 0, 50, 95
2, 85920, Note_on_c, 0, 64, 95
2, 85920, Note_on_c, 0, 59, 95
2, 85920, Note_on_c, 0, 52, 95
2, 86400, Note_off_c, 0, 64, 95
2, 86400, Note_off_c, 0, 59, 95
2, 86400, Note_off_c, 0, 52, 95
2, 87840, Note_on_c, 0, 62, 95
2, 87840, Note_on_c, 0, 57, 95
2, 87840, Note_on_c, 0, 50, 95
2, 92160, Note_off_c, 0, 62, 95
2, 92160, Note_off_c, 0, 57, 95
2, 92160, Note_off_c, 0, 50, 95
2, 92160, Note_on_c, 0, 64, 95
2, 92160, Note_on_c, 0, 59, 95
2, 92160, Note_on_c, 0, 52, 95
2, 92640, Note_off_c, 0, 64, 95
2, 92640, Note_off_c, 0, 59, 95
2, 92640, Note_off_c, 0, 52, 95
2, 92640, Note_on_c, 0, 64, 95
2, 92640, Note_on_c, 0, 59, 95
2, 92640, Note_on_c, 0, 52, 95
2, 93120, Note_off_c, 0, 64, 95
2, 93120, Note_off_c, 0, 59, 95
2, 93120, Note_off_c, 0, 52, 95
2, 93120, Note_on_c, 0, 62, 95
2, 93120, Note_on_c, 0, 57, 95
2, 93120, Note_on_c, 0, 50, 95
2, 93600, Note_off_c, 0, 62, 95
2, 93600, Note_off_c, 0, 57, 95
2, 93600, Note_off_c, 0, 50, 95
2, 93600, Note_on_c, 0, 64, 95
2, 93600, Note_on_c, 0, 59, 95
2, 93600, Note_on_c, 0, 52, 95
2, 94080, Note_off_c, 0, 64, 95
2, 94080, Note_off_c, 0, 59, 95
2, 94080, Note_off_c, 0, 52, 95
2, 95040, Note_on_c, 0, 59, 95
2, 95040, Note_on_c, 0, 55, 95
2, 95040, Note_on_c, 0, 50, 95
2, 95093, Note_off_c, 0, 59, 95
2, 95093, Note_off_c, 0, 55, 95
2, 95093, Note_off_c, 0, 50, 95
2, 95520, Note_on_c, 0, 62, 95
2, 95520, Note_on_c, 0, 57, 95
2, 95520, Note_on_c, 0, 50, 95
2, 99840, Note_off_c, 0, 62, 95
2, 99840, Note_off_c, 0, 57, 95
2, 99840, Note_off_c, 0, 50, 95
2, 99840, Note_on_c, 0, 64, 95
2, 99840, Note_on_c, 0, 59, 95
2, 99840, Note_on_c, 0, 52, 95
2, 100320, Note_off_c, 0, 64, 95
2, 100320, Note_off_c, 0, 59, 95
2, 100320, Note_off_c, 0, 52, 95
2, 100320, Note_on_c, 0, 64, 95
2, 100320, Note_on_c, 0, 59, 95
2, 100320, Note_on_c, 0, 52, 95
2, 100800, Note_off_c, 0, 64, 95
2, 100800, Note_off_c, 0, 59, 95
2, 100800, Note_off_c, 0, 52, 95
2, 100800, Note_on_c, 0, 62, 95
2, 100800, Note_on_c, 0, 57, 95
2, 100800, Note_on_c, 0, 50, 95
2, 101280, Note_off_c, 0, 62, 95
2, 101280, Note_off_c, 0, 57, 95
2, 101280, Note_off_c, 0, 50, 95
2, 101280, Note_on_c, 0, 64, 95
2, 101280, Note_on_c, 0, 59, 95
2, 101280, Note_on_c, 0, 52, 95
2, 101760, Note_off_c, 0, 64, 95
2, 101760, Note_off_c, 0, 59, 95
2, 101760, Note_off_c, 0, 52, 95
2, 103200, Note_on_c, 0, 62, 95
2, 103200, Note_on_c, 0, 57, 95
2, 103200, Note_on_c, 0, 50, 95
2, 107520, Note_off_c, 0, 62, 95
2, 107520, Note_off_c, 0, 57, 95
2, 107520, Note_off_c, 0, 50, 95
2, 107520, Note_on_c, 0, 64, 95
2, 107520, Note_on_c, 0, 59, 95
2, 107520, Note_on_c, 0, 52, 95
2, 108000, Note_off_c, 0, 64, 95
2, 108000, Note_off_c, 0, 59, 95
2, 108000, Note_off_c, 0, 52, 95
2, 108000, Note_on_c, 0, 64, 95
2, 108000, Note_on_c, 0, 59, 95
2, 108000, Note_on_c, 0, 52, 95
2, 108480, Note_off_c, 0, 64, 95
2, 108480, Note_off_c, 0, 59, 95
2, 108480, Note_off_c, 0, 52, 95
2, 108480, Note_on_c, 0, 62, 95
2, 108480, Note_on_c, 0, 57, 95
2, 108480, Note_on_c, 0, 50, 95
2, 108960, Note_off_c, 0, 62, 95
2, 108960, Note_off_c, 0, 57, 95
2, 108960, Note_off_c, 0, 50, 95
2, 108960, Note_on_c, 0, 64, 95
2, 108960, Note_on_c, 0, 59, 95
2, 108960, Note_on_c, 0, 52, 95
2, 109440, Note_off_c, 0, 64, 95
2, 109440, Note_off_c, 0, 59, 95
2, 109440, Note_off_c, 0, 52, 95
2, 110880, Note_on_c, 0, 62, 95
2, 110880, Note_on_c, 0, 57, 95
2, 110880, Note_on_c, 0, 50, 95
2, 114720, Note_off_c, 0, 62, 95
2, 114720, Note_off_c, 0, 57, 95
2, 114720, Note_off_c, 0, 50, 95
2, 114720, Note_on_c, 0, 64, 95
2, 114720, Note_on_c, 0, 59, 95
2, 114720, Note_on_c, 0, 52, 95
2, 116640, Note_off_c, 0, 64, 95
2, 116640, Note_off_c, 0, 59, 95
2, 116640, Note_off_c, 0, 52, 95
2, 116640, Note_on_c, 0, 62, 95
2, 116640, Note_on_c, 0, 57, 95
2, 116640, Note_on_c, 0, 50, 95
2, 118560, Note_off_c, 0, 62, 95
2, 118560, Note_off_c, 0, 57, 95
2, 118560, Note_off_c, 0, 50, 95
2, 118560, Note_on_c, 0, 60, 95
2, 118560, Note_on_c, 0, 55, 95
2, 118560, Note_on_c, 0, 48, 95
2, 120960, Note_off_c, 0, 60, 95
2, 120960, Note_off_c, 0, 55, 95
2, 120960, Note_off_c, 0, 48, 95
2, 120960, Note_on_c, 0, 59, 95
2, 120960, Note_on_c, 0, 54, 95
2, 120960, Note_on_c, 0, 47, 95
2, 121440, Note_off_c, 0, 59, 95
2, 121440, Note_off_c, 0, 54, 95
2, 121440, Note_off_c, 0, 47, 95
2, 122880, Note_on_c, 0, 64, 95
2, 122880, Note_on_c, 0, 59, 95
2, 122880, Note_on_c, 0, 52, 95
2, 123360, Note_off_c, 0, 64, 95
2, 123360, Note_off_c, 0, 59, 95
2, 123360, Note_off_c, 0, 52, 95
2, 123360, Note_on_c, 0, 64, 95
2, 123360, Note_on_c, 0, 59, 95
2, 123360, Note_on_c, 0, 52, 95
2, 123840, Note_off_c, 0, 64, 95
2, 123840, Note_off_c, 0, 59, 95
2, 123840, Note_off_c, 0, 52, 95
2, 123840, Note_on_c, 0, 62, 95
2, 123840, Note_on_c, 0, 57, 95
2, 123840, Note_on_c, 0, 50, 95
2, 124320, Note_off_c, 0, 62, 95
2, 124320, Note_off_c, 0, 57, 95
2, 124320, Note_off_c, 0, 50, 95
2, 124320, Note_on_c, 0, 64, 95
2, 124320, Note_on_c, 0, 59, 95
2, 124320, Note_on_c, 0, 52, 95
2, 124800, Note_off_c, 0, 64, 95
2, 124800, Note_off_c, 0, 59, 95
2, 124800, Note_off_c, 0, 52, 95
2, 126240, Note_on_c, 0, 62, 95
2, 126240, Note_on_c, 0, 57, 95
2, 126240, Note_on_c, 0, 50, 95
2, 128640, Note_off_c, 0, 62, 95
2, 128640, Note_off_c, 0, 57, 95
2, 128640, Note_off_c, 0, 50, 95
2, 128640, Note_on_c, 0, 62, 95
2, 128640, Note_on_c, 0, 57, 95
2, 128640, Note_on_c, 0, 50, 95
2, 129360, Note_off_c, 0, 62, 95
2, 129360, Note_off_c, 0, 57, 95
2, 129360, Note_off_c, 0, 50, 95
2, 129360, Note_on_c, 0, 55, 95
2, 129360, Note_on_c, 0, 50, 95
2, 129360, Note_on_c, 0, 45, 95
2, 129413, Note_off_c, 0, 55, 95
2, 129413, Note_off_c, 0, 50, 95
2, 129413, Note_off_c, 0, 45, 95
2, 129600, Note_on_c, 0, 62, 95
2, 129600, Note_on_c, 0, 57, 95
2, 129600, Note_on_c, 0, 50, 95
2, 129840, Note_off_c, 0, 62, 95
2, 129840, Note_off_c, 0, 57, 95
2, 129840, Note_off_c, 0, 50, 95
2, 129840, Note_on_c, 0, 55, 95
2, 129840, Note_on_c, 0, 50, 95
2, 129840, Note_on_c, 0, 45, 95
2, 129893, Note_off_c, 0, 55, 95
2, 129893, Note_off_c, 0, 50, 95
2, 129893, Note_off_c, 0, 45, 95
2, 130080, Note_on_c, 0, 62, 95
2, 130080, Note_on_c, 0, 57, 95
2, 130080, Note_on_c, 0, 50, 95
2, 130560, Note_off_c, 0, 62, 95
2, 130560, Note_off_c, 0, 57, 95
2, 130560, Note_off_c, 0, 50, 95
2, 130560, Note_on_c, 0, 64, 95
2, 130560, Note_on_c, 0, 59, 95
2, 130560, Note_on_c, 0, 52, 95
2, 131040, Note_off_c, 0, 64, 95
2, 131040, Note_off_c, 0, 59, 95
2, 131040, Note_off_c, 0, 52, 95
2, 131040, Note_on_c, 0, 64, 95
2, 131040, Note_on_c, 0, 59, 95
2, 131040, Note_on_c, 0, 52, 95
2, 131520, Note_off_c, 0, 64, 95
2, 131520, Note_off_c, 0, 59, 95
2, 131520, Note_off_c, 0, 52, 95
2, 131520, Note_on_c, 0, 62, 95
2, 131520, Note_on_c, 0, 57, 95
2, 131520, Note_on_c, 0, 50, 95
2, 132000, Note_off_c, 0, 62, 95
2, 132000, Note_off_c, 0, 57, 95
2, 132000, Note_off_c, 0, 50, 95
2, 132000, Note_on_c, 0, 64, 95
2, 132000, Note_on_c, 0, 59, 95
2, 132000, Note_on_c, 0, 52, 95
2, 132480, Note_off_c, 0, 64, 95
2, 132480, Note_off_c, 0, 59, 95
2, 132480, Note_off_c, 0, 52, 95
2, 133440, Note_on_c, 0, 55, 95
2, 133440, Note_on_c, 0, 50, 95
2, 133440, Note_on_c, 0, 45, 95
2, 133493, Note_off_c, 0, 55, 95
2, 133493, Note_off_c, 0, 50, 95
2, 133493, Note_off_c, 0, 45, 95
2, 133920, Note_on_c, 0, 62, 95
2, 133920, Note_on_c, 0, 57, 95
2, 133920, Note_on_c, 0, 50, 95
2, 138240, Note_off_c, 0, 62, 95
2, 138240, Note_off_c, 0, 57, 95
2, 138240, Note_off_c, 0, 50, 95
2, 138240, Note_on_c, 0, 64, 95
2, 138240, Note_on_c, 0, 59, 95
2, 138240, Note_on_c, 0, 52, 95
2, 138720, Note_off_c, 0, 64, 95
2, 138720, Note_off_c, 0, 59, 95
2, 138720, Note_off_c, 0, 52, 95
2, 138720, Note_on_c, 0, 64, 95
2, 138720, Note_on_c, 0, 59, 95
2, 138720, Note_on_c, 0, 52, 95
2, 139200, Note_off_c, 0, 64, 95
2, 139200, Note_off_c, 0, 59, 95
2, 139200, Note_off_c, 0, 52, 95
2, 139200, Note_on_c, 0, 62, 95
2, 139200, Note_on_c, 0, 57, 95
2, 139200, Note_on_c, 0, 50, 95
2, 139680, Note_off_c, 0, 62, 95
2, 139680, Note_off_c, 0, 57, 95
2, 139680, Note_off_c, 0, 50, 95
2, 139680, Note_on_c, 0, 64, 95
2, 139680, Note_on_c, 0, 59, 95
2, 139680, Note_on_c, 0, 52, 95
2, 140160, Note_off_c, 0, 64, 95
2, 140160, Note_off_c, 0, 59, 95
2, 140160, Note_off_c, 0, 52, 95
2, 141600, Note_on_c, 0, 62, 95
2, 141600, Note_on_c, 0, 57, 95
2, 141600, Note_on_c, 0, 50, 95
2, 145920, Note_off_c, 0, 62, 95
2, 145920, Note_off_c, 0, 57, 95
2, 145920, Note_off_c, 0, 50, 95
2, 145920, Note_on_c, 0, 64, 95
2, 145920, Note_on_c, 0, 59, 95
2, 145920, Note_on_c, 0, 52, 95
2, 146400, Note_off_c, 0, 64, 95
2, 146400, Note_off_c, 0, 59, 95
2, 146400, Note_off_c, 0, 52, 95
2, 146400, Note_on_c, 0, 64, 95
2, 146400, Note_on_c, 0, 59, 95
2, 146400, Note_on_c, 0, 52, 95
2, 146880, Note_off_c, 0, 64, 95
2, 146880, Note_off_c, 0, 59, 95
2, 146880, Note_off_c, 0, 52, 95
2, 146880, Note_on_c, 0, 62, 95
2, 146880, Note_on_c, 0, 57, 95
2, 146880, Note_on_c, 0, 50, 95
2, 147360, Note_off_c, 0, 62, 95
2, 147360, Note_off_c, 0, 57, 95
2, 147360, Note_off_c, 0, 50, 95
2, 147360, Note_on_c, 0, 64, 95
2, 147360, Note_on_c, 0, 59, 95
2, 147360, Note_on_c, 0, 52, 95
2, 147840, Note_off_c, 0, 64, 95
2, 147840, Note_off_c, 0, 59, 95
2, 147840, Note_off_c, 0, 52, 95
2, 149280, Note_on_c, 0, 62, 95
2, 149280, Note_on_c, 0, 57, 95
2, 149280, Note_on_c, 0, 50, 95
2, 153600, Note_off_c, 0, 62, 95
2, 153600, Note_off_c, 0, 57, 95
2, 153600, Note_off_c, 0, 50, 95
2, 153600, Note_on_c, 0, 64, 95
2, 153600, Note_on_c, 0, 59, 95
2, 153600, Note_on_c, 0, 52, 95
2, 154080, Note_off_c, 0, 64, 95
2, 154080, Note_off_c, 0, 59, 95
2, 154080, Note_off_c, 0, 52, 95
2, 154080, Note_on_c, 0, 64, 95
2, 154080, Note_on_c, 0, 59, 95
2, 154080, Note_on_c, 0, 52, 95
2, 154560, Note_off_c, 0, 64, 95
2, 154560, Note_off_c, 0, 59, 95
2, 154560, Note_off_c, 0, 52, 95
2, 154560, Note_on_c, 0, 62, 95
2, 154560, Note_on_c, 0, 57, 95
2, 154560, Note_on_c, 0, 50, 95
2, 155040, Note_off_c, 0, 62, 95
2, 155040, Note_off_c, 0, 57, 95
2, 155040, Note_off_c, 0, 50, 95
2, 155040, Note_on_c, 0, 64, 95
2, 155040, Note_on_c, 0, 59, 95
2, 155040, Note_on_c, 0, 52, 95
2, 155520, Note_off_c, 0, 64, 95
2, 155520, Note_off_c, 0, 59, 95
2, 155520, Note_off_c, 0, 52, 95
2, 156960, Note_on_c, 0, 62, 95
2, 156960, Note_on_c, 0, 57, 95
2, 156960, Note_on_c, 0, 50, 95
2, 161280, Note_off_c, 0, 62, 95
2, 161280, Note_off_c, 0, 57, 95
2, 161280, Note_off_c, 0, 50, 95
2, 161280, Note_on_c, 0, 64, 95
2, 161280, Note_on_c, 0, 59, 95
2, 161280, Note_on_c, 0, 52, 95
2, 161760, Note_off_c, 0, 64, 95
2, 161760, Note_off_c, 0, 59, 95
2, 161760, Note_off_c, 0, 52, 95
2, 161760, Note_on_c, 0, 64, 95
2, 161760, Note_on_c, 0, 59, 95
2, 161760, Note_on_c, 0, 52, 95
2, 162240, Note_off_c, 0, 64, 95
2, 162240, Note_off_c, 0, 59, 95
2, 162240, Note_off_c, 0, 52, 95
2, 162240, Note_on_c, 0, 62, 95
2, 162240, Note_on_c, 0, 57, 95
2, 162240, Note_on_c, 0, 50, 95
2, 162720, Note_off_c, 0, 62, 95
2, 162720, Note_off_c, 0, 57, 95
2, 162720, Note_off_c, 0, 50, 95
2, 162720, Note_on_c, 0, 64, 95
2, 162720, Note_on_c, 0, 59, 95
2, 162720, Note_on_c, 0, 52, 95
2, 163200, Note_off_c, 0, 64, 95
2, 163200, Note_off_c, 0, 59, 95
2, 163200, Note_off_c, 0, 52, 95
2, 164640, Note_on_c, 0, 62, 95
2, 164640, Note_on_c, 0, 57, 95
2, 164640, Note_on_c, 0, 50, 95
2, 168960, Note_off_c, 0, 62, 95
2, 168960, Note_off_c, 0, 57, 95
2, 168960, Note_off_c, 0, 50, 95
2, 168960, Note_on_c, 0, 64, 95
2, 168960, Note_on_c, 0, 59, 95
2, 168960, Note_on_c, 0, 52, 95
2, 169440, Note_off_c, 0, 64, 95
2, 169440, Note_off_c, 0, 59, 95
2, 169440, Note_off_c, 0, 52, 95
2, 169440, Note_on_c, 0, 64, 95
2, 169440, Note_on_c, 0, 59, 95
2, 169440, Note_on_c, 0, 52, 95
2, 169920, Note_off_c, 0, 64, 95
2, 169920, Note_off_c, 0, 59, 95
2, 169920, Note_off_c, 0, 52, 95
2, 169920, Note_on_c, 0, 62, 95
2, 169920, Note_on_c, 0, 57, 95
2, 169920, Note_on_c, 0, 50, 95
2, 170400, Note_off_c, 0, 62, 95
2, 170400, Note_off_c, 0, 57, 95
2, 170400, Note_off_c, 0, 50, 95
2, 170400, Note_on_c, 0, 64, 95
2, 170400, Note_on_c, 0, 59, 95
2, 170400, Note_on_c, 0, 52, 95
2, 170880, Note_off_c, 0, 64, 95
2, 170880, Note_off_c, 0, 59, 95
2, 170880, Note_off_c, 0, 52, 95
2, 172320, Note_on_c, 0, 62, 95
2, 172320, Note_on_c, 0, 57, 95
2, 172320, Note_on_c, 0, 50, 95
2, 176640, Note_off_c, 0, 62, 95
2, 176640, Note_off_c, 0, 57, 95
2, 176640, Note_off_c, 0, 50, 95
2, 176640, Note_on_c, 0, 64, 95
2, 176640, Note_on_c, 0, 59, 95
2, 176640, Note_on_c, 0, 52, 95
2, 177120, Note_off_c, 0, 64, 95
2, 177120, Note_off_c, 0, 59, 95
2, 177120, Note_off_c, 0, 52, 95
2, 177120, Note_on_c, 0, 64, 95
2, 177120, Note_on_c, 0, 59, 95
2, 177120, Note_on_c, 0, 52, 95
2, 177600, Note_off_c, 0, 64, 95
2, 177600, Note_off_c, 0, 59, 95
2, 177600, Note_off_c, 0, 52, 95
2, 177600, Note_on_c, 0, 62, 95
2, 177600, Note_on_c, 0, 57, 95
2, 177600, Note_on_c, 0, 50, 95
2, 178080, Note_off_c, 0, 62, 95
2, 178080, Note_off_c, 0, 57, 95
2, 178080, Note_off_c, 0, 50, 95
2, 178080, Note_on_c, 0, 64, 95
2, 178080, Note_on_c, 0, 59, 95
2, 178080, Note_on_c, 0, 52, 95
2, 178560, Note_off_c, 0, 64, 95
2, 178560, Note_off_c, 0, 59, 95
2, 178560, Note_off_c, 0, 52, 95
2, 180000, Note_on_c, 0, 62, 95
2, 180000, Note_on_c, 0, 57, 95
2, 180000, Note_on_c, 0, 50, 95
2, 184320, Note_off_c, 0, 62, 95
2, 184320, Note_off_c, 0, 57, 95
2, 184320, Note_off_c, 0, 50, 95
2, 184320, Note_on_c, 0, 64, 95
2, 184320, Note_on_c, 0, 59, 95
2, 184320, Note_on_c, 0, 52, 95
2, 184800, Note_off_c, 0, 64, 95
2, 184800, Note_off_c, 0, 59, 95
2, 184800, Note_off_c, 0, 52, 95
2, 184800, Note_on_c, 0, 64, 95
2, 184800, Note_on_c, 0, 59, 95
2, 184800, Note_on_c, 0, 52, 95
2, 185280, Note_off_c, 0, 64, 95
2, 185280, Note_off_c, 0, 59, 95
2, 185280, Note_off_c, 0, 52, 95
2, 185280, Note_on_c, 0, 62, 95
2, 185280, Note_on_c, 0, 57, 95
2, 185280, Note_on_c, 0, 50, 95
2, 185760, Note_off_c, 0, 62, 95
2, 185760, Note_off_c, 0, 57, 95
2, 185760, Note_off_c, 0, 50, 95
2, 185760, Note_on_c, 0, 64, 95
2, 185760, Note_on_c, 0, 59, 95
2, 185760, Note_on_c, 0, 52, 95
2, 186240, Note_off_c, 0, 64, 95
2, 186240, Note_off_c, 0, 59, 95
2, 186240, Note_off_c, 0, 52, 95
2, 187680, Note_on_c, 0, 62, 95
2, 187680, Note_on_c, 0, 57, 95
2, 187680, Note_on_c, 0, 50, 95
2, 192000, Note_off_c, 0, 62, 95
2, 192000, Note_off_c, 0, 57, 95
2, 192000, Note_off_c, 0, 50, 95
2, 192000, Note_on_c, 0, 64, 95
2, 192000, Note_on_c, 0, 59, 95
2, 192000, Note_on_c, 0, 52, 95
2, 192480, Note_off_c, 0, 64, 95
2, 192480, Note_off_c, 0, 59, 95
2, 192480, Note_off_c, 0, 52, 95
2, 192480, Note_on_c, 0, 64, 95
2, 192480, Note_on_c, 0, 59, 95
2, 192480, Note_on_c, 0, 52, 95
2, 192960, Note_off_c, 0, 64, 95
2, 192960, Note_off_c, 0, 59, 95
2, 192960, Note_off_c, 0, 52, 95
2, 192960, Note_on_c, 0, 62, 95
2, 192960, Note_on_c, 0, 57, 95
2, 192960, Note_on_c, 0, 50, 95
2, 193440, Note_off_c, 0, 62, 95
2, 193440, Note_off_c, 0, 57, 95
2, 193440, Note_off_c, 0, 50, 95
2, 193440, Note_on_c, 0, 64, 95
2, 193440, Note_on_c, 0, 59, 95
2, 193440, Note_on_c, 0, 52, 95
2, 193920, Note_off_c, 0, 64, 95
2, 193920, Note_off_c, 0, 59, 95
2, 193920, Note_off_c, 0, 52, 95
2, 195360, Note_on_c, 0, 62, 95
2, 195360, Note_on_c, 0, 57, 95
2, 195360, Note_on_c, 0, 50, 95
2, 199680, Note_off_c, 0, 62, 95
2, 199680, Note_off_c, 0, 57, 95
2, 199680, Note_off_c, 0, 50, 95
2, 199680, Note_on_c, 0, 64, 95
2, 199680, Note_on_c, 0, 59, 95
2, 199680, Note_on_c, 0, 52, 95
2, 200160, Note_off_c, 0, 64, 95
2, 200160, Note_off_c, 0, 59, 95
2, 200160, Note_off_c, 0, 52, 95
2, 200160, Note_on_c, 0, 64, 95
2, 200160, Note_on_c, 0, 59, 95
2, 200160, Note_on_c, 0, 52, 95
2, 200640, Note_off_c, 0, 64, 95
2, 200640, Note_off_c, 0, 59, 95
2, 200640, Note_off_c, 0, 52, 95
2, 200640, Note_on_c, 0, 62, 95
2, 200640, Note_on_c, 0, 57, 95
2, 200640, Note_on_c, 0, 50, 95
2, 201120, Note_off_c, 0, 62, 95
2, 201120, Note_off_c, 0, 57, 95
2, 201120, Note_off_c, 0, 50, 95
2, 201120, Note_on_c, 0, 64, 95
2, 201120, Note_on_c, 0, 59, 95
2, 201120, Note_on_c, 0, 52, 95
2, 201600, Note_off_c, 0, 64, 95
2, 201600, Note_off_c, 0, 59, 95
2, 201600, Note_off_c, 0, 52, 95
2, 203040, Note_on_c, 0, 62, 95
2, 203040, Note_on_c, 0, 57, 95
2, 203040, Note_on_c, 0, 50, 95
2, 207360, Note_off_c, 0, 62, 95
2, 207360, Note_off_c, 0, 57, 95
2, 207360, Note_off_c, 0, 50, 95
2, 207360, Note_on_c, 0, 64, 95
2, 207360, Note_on_c, 0, 59, 95
2, 207360, Note_on_c, 0, 52, 95
2, 207840, Note_off_c, 0, 64, 95
2, 207840, Note_off_c, 0, 59, 95
2, 207840, Note_off_c, 0, 52, 95
2, 207840, Note_on_c, 0, 64, 95
2, 207840, Note_on_c, 0, 59, 95
2, 207840, Note_on_c, 0, 52, 95
2, 208320, Note_off_c, 0, 64, 95
2, 208320, Note_off_c, 0, 59, 95
2, 208320, Note_off_c, 0, 52, 95
2, 208320, Note_on_c, 0, 62, 95
2, 208320, Note_on_c, 0, 57, 95
2, 208320, Note_on_c, 0, 50, 95
2, 208800, Note_off_c, 0, 62, 95
2, 208800, Note_off_c, 0, 57, 95
2, 208800, Note_off_c, 0, 50, 95
2, 208800, Note_on_c, 0, 64, 95
2, 208800, Note_on_c, 0, 59, 95
2, 208800, Note_on_c, 0, 52, 95
2, 209280, Note_off_c, 0, 64, 95
2, 209280, Note_off_c, 0, 59, 95
2, 209280, Note_off_c, 0, 52, 95
2, 210720, Note_on_c, 0, 62, 95
2, 210720, Note_on_c, 0, 57, 95
2, 210720, Note_on_c, 0, 50, 95
2, 215040, Note_off_c, 0, 62, 95
2, 215040, Note_off_c, 0, 57, 95
2, 215040, Note_off_c, 0, 50, 95
2, 215040, Note_on_c, 0, 64, 95
2, 215040, Note_on_c, 0, 59, 95
2, 215040, Note_on_c, 0, 52, 95
2, 215520, Note_off_c, 0, 64, 95
2, 215520, Note_off_c, 0, 59, 95
2, 215520, Note_off_c, 0, 52, 95
2, 215520, Note_on_c, 0, 64, 95
2, 215520, Note_on_c, 0, 59, 95
2, 215520, Note_on_c, 0, 52, 95
2, 216000, Note_off_c, 0, 64, 95
2, 216000, Note_off_c, 0, 59, 95
2, 216000, Note_off_c, 0, 52, 95
2, 216000, Note_on_c, 0, 62, 95
2, 216000, Note_on_c, 0, 57, 95
2, 216000, Note_on_c, 0, 50, 95
2, 216480, Note_off_c, 0, 62, 95
2, 216480, Note_off_c, 0, 57, 95
2, 216480, Note_off_c, 0, 50, 95
2, 216480, Note_on_c, 0, 64, 95
2, 216480, Note_on_c, 0, 59, 95
2, 216480, Note_on_c, 0, 52, 95
2, 216960, Note_off_c, 0, 64, 95
2, 216960, Note_off_c, 0, 59, 95
2, 216960, Note_off_c, 0, 52, 95
2, 218400, Note_on_c, 0, 62, 95
2, 218400, Note_on_c, 0, 57, 95
2, 218400, Note_on_c, 0, 50, 95
2, 222720, Note_off_c, 0, 62, 95
2, 222720, Note_off_c, 0, 57, 95
2, 222720, Note_off_c, 0, 50, 95
2, 230400, Note_on_c, 0, 56, 95
2, 230400, Note_on_c, 0, 52, 95
2, 230880, Note_off_c, 0, 56, 95
2, 230880, Note_off_c, 0, 52, 95
2, 230880, Note_on_c, 0, 56, 95
2, 230880, Note_on_c, 0, 52, 95
2, 231360, Note_off_c, 0, 56, 95
2, 231360, Note_off_c, 0, 52, 95
2, 231360, Note_on_c, 0, 55, 95
2, 231360, Note_on_c, 0, 50, 95
2, 231840, Note_off_c, 0, 55, 95
2, 231840, Note_off_c, 0, 50, 95
2, 231840, Note_on_c, 0, 56, 95
2, 231840, Note_on_c, 0, 52, 95
2, 232320, Note_off_c, 0, 56, 95
2, 232320, Note_off_c, 0, 52, 95
2, 233280, Note_on_c, 0, 50, 95
2, 233400, Note_off_c, 0, 50, 95
2, 233400, Note_on_c, 0, 52, 95
2, 233760, Note_off_c, 0, 52, 95
2, 233760, Note_on_c, 0, 57, 95
2, 233760, Note_on_c, 0, 50, 95
2, 236160, Note_off_c, 0, 57, 95
2, 236160, Note_off_c, 0, 50, 95
2, 236160, Note_on_c, 0, 47, 95
2, 236400, Note_off_c, 0, 47, 95
2, 236400, Note_on_c, 0, 47, 95
2, 236640, Note_off_c, 0, 47, 95
2, 236640, Note_on_c, 0, 47, 95
2, 236880, Note_off_c, 0, 47, 95
2, 236880, Note_on_c, 0, 50, 95
2, 237600, Note_off_c, 0, 50, 95
2, 237600, Note_on_c, 0, 52, 95
2, 238080, Note_off_c, 0, 52, 95
2, 238080, Note_on_c, 0, 40, 95
2, 238560, Note_off_c, 0, 40, 95
2, 245760, Note_on_c, 0, 56, 95
2, 245760, Note_on_c, 0, 52, 95
2, 246240, Note_off_c, 0, 56, 95
2, 246240, Note_off_c, 0, 52, 95
2, 246240, Note_on_c, 0, 56, 95
2, 246240, Note_on_c, 0, 52, 95
2, 246720, Note_off_c, 0, 56, 95
2, 246720, Note_off_c, 0, 52, 95
2, 246720, Note_on_c, 0, 55, 95
2, 246720, Note_on_c, 0, 50, 95
2, 247200, Note_off_c, 0, 55, 95
2, 247200, Note_off_c, 0, 50, 95
2, 247200, Note_on_c, 0, 56, 95
2, 247200, Note_on_c, 0, 52, 95
2, 247680, Note_off_c, 0, 56, 95
2, 247680, Note_off_c, 0, 52, 95
2, 248640, Note_on_c, 0, 56, 95
2, 248640, Note_on_c, 0, 52, 95
2, 249120, Note_off_c, 0, 56, 95
2, 249120, Note_off_c, 0, 52, 95
2, 249120, Note_on_c, 0, 57, 95
2, 249120, Note_on_c, 0, 50, 95
2, 251040, Note_off_c, 0, 57, 95
2, 251040, Note_off_c, 0, 50, 95
2, 251040, Note_on_c, 0, 57, 95
2, 251520, Note_off_c, 0, 57, 95
2, 251520, Note_on_c, 0, 57, 95
2, 251520, Note_on_c, 0, 50, 95
2, 252480, Note_off_c, 0, 57, 95
2, 252480, Note_off_c, 0, 50, 95
2, 261120, Note_on_c, 0, 52, 95
2, 261600, Note_off_c, 0, 52, 95
2, 261600, Note_on_c, 0, 52, 95
2, 262080, Note_off_c, 0, 52, 95
2, 262080, Note_on_c, 0, 50, 95
2, 262560, Note_off_c, 0, 50, 95
2, 262560, Note_on_c, 0, 52, 95
2, 263040, Note_off_c, 0, 52, 95
2, 263520, Note_on_c, 0, 45, 95
2, 263760, Note_off_c, 0, 45, 95
2, 263760, Note_on_c, 0, 47, 95
2, 264000, Note_off_c, 0, 47, 95
2, 264000, Note_on_c, 0, 50, 95
2, 264240, Note_off_c, 0, 50, 95
2, 264240, Note_on_c, 0, 52, 95
2, 264480, Note_off_c, 0, 52, 95
2, 264480, Note_on_c, 0, 55, 95
2, 264600, Note_off_c, 0, 55, 95
2, 264600, Note_on_c, 0, 57, 95
2, 264600, Note_on_c, 0, 50, 95
2, 267840, Note_off_c, 0, 57, 95
2, 267840, Note_off_c, 0, 50, 95
2, 268800, Note_on_c, 0, 47, 95
2, 269280, Note_off_c, 0, 47, 95
2, 269280, Note_on_c, 0, 47, 95
2, 269760, Note_off_c, 0, 47, 95
2, 269760, Note_on_c, 0, 50, 95
2, 270240, Note_off_c, 0, 50, 95
2, 270240, Note_on_c, 0, 50, 95
2, 270360, Note_off_c, 0, 50, 95
2, 270360, Note_on_c, 0, 52, 95
2, 270720, Note_off_c, 0, 52, 95
2, 271680, Note_on_c, 0, 56, 95
2, 271680, Note_on_c, 0, 52, 95
2, 272160, Note_off_c, 0, 56, 95
2, 272160, Note_off_c, 0, 52, 95
2, 272160, Note_on_c, 0, 57, 95
2, 272160, Note_on_c, 0, 50, 95
2, 273600, Note_off_c, 0, 57, 95
2, 273600, Note_off_c, 0, 50, 95
2, 273600, Note_on_c, 0, 57, 95
2, 273600, Note_on_c, 0, 50, 95
2, 275520, Note_off_c, 0, 57, 95
2, 275520, Note_off_c, 0, 50, 95
2, 276480, Note_on_c, 0, 52, 95
2, 276960, Note_off_c, 0, 52, 95
2, 276960, Note_on_c, 0, 52, 95
2, 277440, Note_off_c, 0, 52, 95
2, 277440, Note_on_c, 0, 50, 95
2, 277920, Note_off_c, 0, 50, 95
2, 277920, Note_on_c, 0, 52, 95
2, 278400, Note_off_c, 0, 52, 95
2, 278880, Note_on_c, 0, 45, 95
2, 279120, Note_off_c, 0, 45, 95
2, 279120, Note_on_c, 0, 47, 95
2, 279360, Note_off_c, 0, 47, 95
2, 279360, Note_on_c, 0, 50, 95
2, 279600, Note_off_c, 0, 50, 95
2, 279600, Note_on_c, 0, 52, 95
2, 279840, Note_off_c, 0, 52, 95
2, 279840, Note_on_c, 0, 55, 95
2, 279960, Note_off_c, 0, 55, 95
2, 279960, Note_on_c, 0, 57, 95
2, 279960, Note_on_c, 0, 50, 95
2, 282240, Note_off_c, 0, 57, 95
2, 282240, Note_off_c, 0, 50, 95
2, 282240, Note_on_c, 0, 62, 95
2, 282240, Note_on_c, 0, 55, 95
2, 282480, Note_off_c, 0, 62, 95
2, 282480, Note_off_c, 0, 55, 95
2, 282480, Note_on_c, 0, 57, 95
2, 282720, Note_off_c, 0, 57, 95
2, 283200, Note_on_c, 0, 62, 95
2, 283200, Note_on_c, 0, 57, 95
2, 283680, Note_off_c, 0, 62, 95
2, 283680, Note_off_c, 0, 57, 95
2, 283680, Note_on_c, 0, 55, 95
2, 284160, Note_off_c, 0, 55, 95
2, 284160, Note_on_c, 0, 56, 95
2, 284160, Note_on_c, 0, 52, 95
2, 284640, Note_off_c, 0, 56, 95
2, 284640, Note_off_c, 0, 52, 95
2, 284640, Note_on_c, 0, 56, 95
2, 284640, Note_on_c, 0, 52, 95
2, 285120, Note_off_c, 0, 56, 95
2, 285120, Note_off_c, 0, 52, 95
2, 285120, Note_on_c, 0, 55, 95
2, 285120, Note_on_c, 0, 50, 95
2, 285600, Note_off_c, 0, 55, 95
2, 285600, Note_off_c, 0, 50, 95
2, 285600, Note_on_c, 0, 56, 95
2, 285600, Note_on_c, 0, 52, 95
2, 286080, Note_off_c, 0, 56, 95
2, 286080, Note_off_c, 0, 52, 95
2, 287040, Note_on_c, 0, 56, 95
2, 287040, Note_on_c, 0, 52, 95
2, 287520, Note_off_c, 0, 56, 95
2, 287520, Note_off_c, 0, 52, 95
2, 287520, Note_on_c, 0, 57, 95
2, 287520, Note_on_c, 0, 50, 95
2, 290880, Note_off_c, 0, 57, 95
2, 290880, Note_off_c, 0, 50, 95
2, 290880, End_track
3, 0, Start_track
3, 0, Pitch_bend_c, 2, 8192
3, 0, Control_c, 2, 7, 127
3, 0, Control_c, 2, 10, 63
3, 0, Control_c, 2, 93, 0
3, 0, Control_c, 2, 91, 0
3, 0, Control_c, 2, 95, 0
3, 0, Control_c, 2, 92, 0
3, 0, Control_c, 2, 11, 127
3, 0, Program_c, 2, 29
3, 0, Control_c, 3, 7, 127
3, 0, Control_c, 3, 10, 63
3, 0, Control_c, 3, 93, 0
3, 0, Control_c, 3, 91, 0
3, 0, Control_c, 3, 95, 0
3, 0, Control_c, 3, 92, 0
3, 0, Control_c, 3, 11, 127
3, 0, Program_c, 3, 29
3, 0, Note_on_c, 2, 64, 95
3, 0, Note_on_c, 2, 59, 95
3, 0, Note_on_c, 2, 52, 95
3, 480, Note_off_c, 2, 64, 95
3, 480, Note_off_c, 2, 59, 95
3, 480, Note_off_c, 2, 52, 95
3, 480, Note_on_c, 2, 64, 95
3, 480, Note_on_c, 2, 59, 95
3, 480, Note_on_c, 2, 52, 95
3, 960, Note_off_c, 2, 64, 95
3, 960, Note_off_c, 2, 59, 95
3, 960, Note_off_c, 2, 52, 95
3, 960, Note_on_c, 2, 62, 95
3, 960, Note_on_c, 2, 57, 95
3, 960, Note_on_c, 2, 50, 95
3, 1440, Note_off_c, 2, 62, 95
3, 1440, Note_off_c, 2, 57, 95
3, 1440, Note_off_c, 2, 50, 95
3, 1440, Note_on_c, 2, 64, 95
3, 1440, Note_on_c, 2, 59, 95
3, 1440, Note_on_c, 2, 52, 95
3, 1920, Note_off_c, 2, 64, 95
3, 1920, Note_off_c, 2, 59, 95
3, 1920, Note_off_c, 2, 52, 95
3, 3360, Note_on_c, 2, 62, 95
3, 3360, Note_on_c, 2, 57, 95
3, 3360, Note_on_c, 2, 50, 95
3, 5760, Note_off_c, 2, 62, 95
3, 5760, Note_off_c, 2, 57, 95
3, 5760, Note_off_c, 2, 50, 95
3, 5760, Note_on_c, 2, 45, 95
3, 5880, Note_off_c, 2, 45, 95
3, 5880, Note_on_c, 2, 47, 95
3, 6000, Note_off_c, 2, 47, 95
3, 6000, Note_on_c, 2, 45, 95
3, 6120, Note_off_c, 2, 45, 95
3, 6120, Note_on_c, 2, 47, 95
3, 6240, Note_off_c, 2, 47, 95
3, 6240, Note_on_c, 2, 45, 95
3, 6360, Note_off_c, 2, 45, 95
3, 6360, Note_on_c, 2, 47, 95
3, 6480, Note_off_c, 2, 47, 95
3, 6480, Note_on_c, 2, 45, 95
3, 6600, Note_off_c, 2, 45, 95
3, 6600, Note_on_c, 2, 47, 95
3, 6720, Note_off_c, 2, 47, 95
3, 6720, Note_on_c, 2, 50, 95
3, 7680, Note_off_c, 2, 50, 95
3, 7680, Note_on_c, 2, 50, 95
3, 7800, Note_off_c, 2, 50, 95
3, 7800, Note_on_c, 2, 52, 95
3, 10560, Note_off_c, 2, 52, 95
3, 12000, Note_on_c, 2, 50, 95
3, 12720, Note_off_c, 2, 50, 95
3, 12720, Note_on_c, 2, 45, 95
3, 12960, Note_off_c, 2, 45, 95
3, 12960, Note_on_c, 2, 47, 95
3, 13440, Note_off_c, 2, 47, 95
3, 13440, Note_on_c, 2, 50, 95
3, 13920, Note_off_c, 2, 50, 95
3, 13920, Note_on_c, 2, 45, 95
3, 14400, Note_off_c, 2, 45, 95
3, 14400, Note_on_c, 2, 43, 95
3, 14880, Note_off_c, 2, 43, 95
3, 14880, Note_on_c, 2, 40, 95
3, 15360, Note_off_c, 2, 40, 95
3, 15360, Note_on_c, 2, 52, 95
3, 19200, Note_off_c, 2, 52, 95
3, 19200, Note_on_c, 2, 62, 95
3, 19440, Note_off_c, 2, 62, 95
3, 19440, Note_on_c, 2, 59, 95
3, 19920, Note_off_c, 2, 59, 95
3, 20160, Note_on_c, 2, 57, 95
3, 21120, Note_off_c, 2, 57, 95
3, 21120, Note_on_c, 2, 55, 95
3, 21600, Note_off_c, 2, 55, 95
3, 21600, Note_on_c, 2, 56, 95
3, 22080, Note_off_c, 2, 56, 95
3, 22080, Note_on_c, 2, 52, 95
3, 22560, Note_off_c, 2, 52, 95
3, 22560, Note_on_c, 2, 50, 95
3, 23040, Note_off_c, 2, 50, 95
3, 23040, Note_on_c, 2, 52, 95
3, 25920, Note_off_c, 2, 52, 95
3, 25920, Note_on_c, 3, 52, 95
3, 26400, Note_off_c, 3, 52, 95
3, 26880, Note_on_c, 2, 45, 95
3, 27120, Note_off_c, 2, 45, 95
3, 27120, Note_on_c, 2, 47, 95
3, 27600, Note_off_c, 2, 47, 95
3, 27600, Note_on_c, 2, 50, 95
3, 27840, Note_off_c, 2, 50, 95
3, 27840, Note_on_c, 2, 50, 95
3, 27840, Note_on_c, 2, 45, 95
3, 28800, Note_off_c, 2, 50, 95
3, 28800, Note_off_c, 2, 45, 95
3, 28800, Pitch_bend_c, 3, 8192
3, 28800, Note_on_c, 3, 43, 95
3, 29040, Pitch_bend_c, 3, 8320
3, 29280, Pitch_bend_c, 3, 8448
3, 29520, Pitch_bend_c, 3, 8576
3, 29760, Pitch_bend_c, 3, 8704
3, 30000, Pitch_bend_c, 3, 8832
3, 30000, Pitch_bend_c, 3, 8832
3, 31200, Pitch_bend_c, 3, 8832
3, 31200, Pitch_bend_c, 3, 8192
3, 31200, Note_off_c, 3, 43, 95
3, 31200, Note_on_c, 2, 64, 95
3, 31200, Note_on_c, 2, 59, 95
3, 31200, Note_on_c, 2, 52, 95
3, 31680, Note_off_c, 2, 64, 95
3, 31680, Note_off_c, 2, 59, 95
3, 31680, Note_off_c, 2, 52, 95
3, 31680, Note_on_c, 2, 62, 95
3, 31680, Note_on_c, 2, 57, 95
3, 31680, Note_on_c, 2, 50, 95
3, 32160, Note_off_c, 2, 62, 95
3, 32160, Note_off_c, 2, 57, 95
3, 32160, Note_off_c, 2, 50, 95
3, 32160, Note_on_c, 2, 64, 95
3, 32160, Note_on_c, 2, 59, 95
3, 32160, Note_on_c, 2, 52, 95
3, 32640, Note_off_c, 2, 64, 95
3, 32640, Note_off_c, 2, 59, 95
3, 32640, Note_off_c, 2, 52, 95
3, 33600, Note_on_c, 2, 59, 95
3, 33600, Note_on_c, 2, 55, 95
3, 33600, Note_on_c, 2, 50, 95
3, 33653, Note_off_c, 2, 59, 95
3, 33653, Note_off_c, 2, 55, 95
3, 33653, Note_off_c, 2, 50, 95
3, 34080, Note_on_c, 2, 62, 95
3, 34080, Note_on_c, 2, 57, 95
3, 34080, Note_on_c, 2, 50, 95
3, 38400, Note_off_c, 2, 62, 95
3, 38400, Note_off_c, 2, 57, 95
3, 38400, Note_off_c, 2, 50, 95
3, 38400, Note_on_c, 2, 64, 95
3, 38400, Note_on_c, 2, 59, 95
3, 38400, Note_on_c, 2, 52, 95
3, 38880, Note_off_c, 2, 64, 95
3, 38880, Note_off_c, 2, 59, 95
3, 38880, Note_off_c, 2, 52, 95
3, 38880, Note_on_c, 2, 64, 95
3, 38880, Note_on_c, 2, 59, 95
3, 38880, Note_on_c, 2, 52, 95
3, 39360, Note_off_c, 2, 64, 95
3, 39360, Note_off_c, 2, 59, 95
3, 39360, Note_off_c, 2, 52, 95
3, 39360, Note_on_c, 2, 62, 95
3, 39360, Note_on_c, 2, 57, 95
3, 39360, Note_on_c, 2, 50, 95
3, 39840, Note_off_c, 2, 62, 95
3, 39840, Note_off_c, 2, 57, 95
3, 39840, Note_off_c, 2, 50, 95
3, 39840, Note_on_c, 2, 64, 95
3, 39840, Note_on_c, 2, 59, 95
3, 39840, Note_on_c, 2, 52, 95
3, 40320, Note_off_c, 2, 64, 95
3, 40320, Note_off_c, 2, 59, 95
3, 40320, Note_off_c, 2, 52, 95
3, 41760, Note_on_c, 2, 62, 95
3, 41760, Note_on_c, 2, 57, 95
3, 41760, Note_on_c, 2, 50, 95
3, 46080, Note_off_c, 2, 62, 95
3, 46080, Note_off_c, 2, 57, 95
3, 46080, Note_off_c, 2, 50, 95
3, 46080, Note_on_c, 2, 64, 95
3, 46080, Note_on_c, 2, 59, 95
3, 46080, Note_on_c, 2, 52, 95
3, 46560, Note_off_c, 2, 64, 95
3, 46560, Note_off_c, 2, 59, 95
3, 46560, Note_off_c, 2, 52, 95
3, 46560, Note_on_c, 2, 64, 95
3, 46560, Note_on_c, 2, 59, 95
3, 46560, Note_on_c, 2, 52, 95
3, 47040, Note_off_c, 2, 64, 95
3, 47040, Note_off_c, 2, 59, 95
3, 47040, Note_off_c, 2, 52, 95
3, 47040, Note_on_c, 2, 62, 95
3, 47040, Note_on_c, 2, 57, 95
3, 47040, Note_on_c, 2, 50, 95
3, 47520, Note_off_c, 2, 62, 95
3, 47520, Note_off_c, 2, 57, 95
3, 47520, Note_off_c, 2, 50, 95
3, 47520, Note_on_c, 2, 64, 95
3, 47520, Note_on_c, 2, 59, 95
3, 47520, Note_on_c, 2, 52, 95
3, 48000, Note_off_c, 2, 64, 95
3, 48000, Note_off_c, 2, 59, 95
3, 48000, Note_off_c, 2, 52, 95
3, 49440, Note_on_c, 2, 62, 95
3, 49440, Note_on_c, 2, 57, 95
3, 49440, Note_on_c, 2, 50, 95
3, 53760, Note_off_c, 2, 62, 95
3, 53760, Note_off_c, 2, 57, 95
3, 53760, Note_off_c, 2, 50, 95
3, 53760, Note_on_c, 2, 64, 95
3, 53760, Note_on_c, 2, 59, 95
3, 53760, Note_on_c, 2, 52, 95
3, 54240, Note_off_c, 2, 64, 95
3, 54240, Note_off_c, 2, 59, 95
3, 54240, Note_off_c, 2, 52, 95
3, 54240, Note_on_c, 2, 64, 95
3, 54240, Note_on_c, 2, 59, 95
3, 54240, Note_on_c, 2, 52, 95
3, 54720, Note_off_c, 2, 64, 95
3, 54720, Note_off_c, 2, 59, 95
3, 54720, Note_off_c, 2, 52, 95
3, 54720, Note_on_c, 2, 62, 95
3, 54720, Note_on_c, 2, 57, 95
3, 54720, Note_on_c, 2, 50, 95
3, 55200, Note_off_c, 2, 62, 95
3, 55200, Note_off_c, 2, 57, 95
3, 55200, Note_off_c, 2, 50, 95
3, 55200, Note_on_c, 2, 64, 95
3, 55200, Note_on_c, 2, 59, 95
3, 55200, Note_on_c, 2, 52, 95
3, 55680, Note_off_c, 2, 64, 95
3, 55680, Note_off_c, 2, 59, 95
3, 55680, Note_off_c, 2, 52, 95
3, 57120, Note_on_c, 2, 62, 95
3, 57120, Note_on_c, 2, 57, 95
3, 57120, Note_on_c, 2, 50, 95
3, 60960, Note_off_c, 2, 62, 95
3, 60960, Note_off_c, 2, 57, 95
3, 60960, Note_off_c, 2, 50, 95
3, 60960, Note_on_c, 2, 64, 95
3, 60960, Note_on_c, 2, 59, 95
3, 60960, Note_on_c, 2, 52, 95
3, 62880, Note_off_c, 2, 64, 95
3, 62880, Note_off_c, 2, 59, 95
3, 62880, Note_off_c, 2, 52, 95
3, 62880, Note_on_c, 2, 62, 95
3, 62880, Note_on_c, 2, 57, 95
3, 62880, Note_on_c, 2, 50, 95
3, 64800, Note_off_c, 2, 62, 95
3, 64800, Note_off_c, 2, 57, 95
3, 64800, Note_off_c, 2, 50, 95
3, 64800, Note_on_c, 2, 60, 95
3, 64800, Note_on_c, 2, 55, 95
3, 64800, Note_on_c, 2, 48, 95
3, 67200, Note_off_c, 2, 60, 95
3, 67200, Note_off_c, 2, 55, 95
3, 67200, Note_off_c, 2, 48, 95
3, 67200, Note_on_c, 2, 59, 95
3, 67200, Note_on_c, 2, 54, 95
3, 67200, Note_on_c, 2, 47, 95
3, 67680, Note_off_c, 2, 59, 95
3, 67680, Note_off_c, 2, 54, 95
3, 67680, Note_off_c, 2, 47, 95
3, 69120, Note_on_c, 2, 64, 95
3, 69120, Note_on_c, 2, 59, 95
3, 69120, Note_on_c, 2, 52, 95
3, 69600, Note_off_c, 2, 64, 95
3, 69600, Note_off_c, 2, 59, 95
3, 69600, Note_off_c, 2, 52, 95
3, 69600, Note_on_c, 2, 64, 95
3, 69600, Note_on_c, 2, 59, 95
3, 69600, Note_on_c, 2, 52, 95
3, 70080, Note_off_c, 2, 64, 95
3, 70080, Note_off_c, 2, 59, 95
3, 70080, Note_off_c, 2, 52, 95
3, 70080, Note_on_c, 2, 62, 95
3, 70080, Note_on_c, 2, 57, 95
3, 70080, Note_on_c, 2, 50, 95
3, 70560, Note_off_c, 2, 62, 95
3, 70560, Note_off_c, 2, 57, 95
3, 70560, Note_off_c, 2, 50, 95
3, 70560, Note_on_c, 2, 64, 95
3, 70560, Note_on_c, 2, 59, 95
3, 70560, Note_on_c, 2, 52, 95
3, 71040, Note_off_c, 2, 64, 95
3, 71040, Note_off_c, 2, 59, 95
3, 71040, Note_off_c, 2, 52, 95
3, 72480, Note_on_c, 2, 62, 95
3, 72480, Note_on_c, 2, 57, 95
3, 72480, Note_on_c, 2, 50, 95
3, 74880, Note_off_c, 2, 62, 95
3, 74880, Note_off_c, 2, 57, 95
3, 74880, Note_off_c, 2, 50, 95
3, 74880, Note_on_c, 2, 62, 95
3, 74880, Note_on_c, 2, 57, 95
3, 74880, Note_on_c, 2, 50, 95
3, 75600, Note_off_c, 2, 62, 95
3, 75600, Note_off_c, 2, 57, 95
3, 75600, Note_off_c, 2, 50, 95
3, 75600, Note_on_c, 2, 55, 95
3, 75600, Note_on_c, 2, 50, 95
3, 75600, Note_on_c, 2, 45, 95
3, 75653, Note_off_c, 2, 55, 95
3, 75653, Note_off_c, 2, 50, 95
3, 75653, Note_off_c, 2, 45, 95
3, 75840, Note_on_c, 2, 62, 95
3, 75840, Note_on_c, 2, 57, 95
3, 75840, Note_on_c, 2, 50, 95
3, 76080, Note_off_c, 2, 62, 95
3, 76080, Note_off_c, 2, 57, 95
3, 76080, Note_off_c, 2, 50, 95
3, 76080, Note_on_c, 2, 55, 95
3, 76080, Note_on_c, 2, 50, 95
3, 76080, Note_on_c, 2, 45, 95
3, 76133, Note_off_c, 2, 55, 95
3, 76133, Note_off_c, 2, 50, 95
3, 76133, Note_off_c, 2, 45, 95
3, 76320, Note_on_c, 2, 62, 95
3, 76320, Note_on_c, 2, 57, 95
3, 76320, Note_on_c, 2, 50, 95
3, 76800, Note_off_c, 2, 62, 95
3, 76800, Note_off_c, 2, 57, 95
3, 76800, Note_off_c, 2, 50, 95
3, 76800, Note_on_c, 2, 64, 95
3, 76800, Note_on_c, 2, 59, 95
3, 76800, Note_on_c, 2, 52, 95
3, 77280, Note_off_c, 2, 64, 95
3, 77280, Note_off_c, 2, 59, 95
3, 77280, Note_off_c, 2, 52, 95
3, 77280, Note_on_c, 2, 64, 95
3, 77280, Note_on_c, 2, 59, 95
3, 77280, Note_on_c, 2, 52, 95
3, 77760, Note_off_c, 2, 64, 95
3, 77760, Note_off_c, 2, 59, 95
3, 77760, Note_off_c, 2, 52, 95
3, 77760, Note_on_c, 2, 62, 95
3, 77760, Note_on_c, 2, 57, 95
3, 77760, Note_on_c, 2, 50, 95
3, 78240, Note_off_c, 2, 62, 95
3, 78240, Note_off_c, 2, 57, 95
3, 78240, Note_off_c, 2, 50, 95
3, 78240, Note_on_c, 2, 64, 95
3, 78240, Note_on_c, 2, 59, 95
3, 78240, Note_on_c, 2, 52, 95
3, 78720, Note_off_c, 2, 64, 95
3, 78720, Note_off_c, 2, 59, 95
3, 78720, Note_off_c, 2, 52, 95
3, 79680, Note_on_c, 2, 55, 95
3, 79680, Note_on_c, 2, 50, 95
3, 79680, Note_on_c, 2, 45, 95
3, 79733, Note_off_c, 2, 55, 95
3, 79733, Note_off_c, 2, 50, 95
3, 79733, Note_off_c, 2, 45, 95
3, 80160, Note_on_c, 2, 62, 95
3, 80160, Note_on_c, 2, 57, 95
3, 80160, Note_on_c, 2, 50, 95
3, 84480, Note_off_c, 2, 62, 95
3, 84480, Note_off_c, 2, 57, 95
3, 84480, Note_off_c, 2, 50, 95
3, 84480, Note_on_c, 2, 64, 95
3, 84480, Note_on_c, 2, 59, 95
3, 84480, Note_on_c, 2, 52, 95
3, 84960, Note_off_c, 2, 64, 95
3, 84960, Note_off_c, 2, 59, 95
3, 84960, Note_off_c, 2, 52, 95
3, 84960, Note_on_c, 2, 64, 95
3, 84960, Note_on_c, 2, 59, 95
3, 84960, Note_on_c, 2, 52, 95
3, 85440, Note_off_c, 2, 64, 95
3, 85440, Note_off_c, 2, 59, 95
3, 85440, Note_off_c, 2, 52, 95
3, 85440, Note_on_c, 2, 62, 95
3, 85440, Note_on_c, 2, 57, 95
3, 85440, Note_on_c, 2, 50, 95
3, 85920, Note_off_c, 2, 62, 95
3, 85920, Note_off_c, 2, 57, 95
3, 85920, Note_off_c, 2, 50, 95
3, 85920, Note_on_c, 2, 64, 95
3, 85920, Note_on_c, 2, 59, 95
3, 85920, Note_on_c, 2, 52, 95
3, 86400, Note_off_c, 2, 64, 95
3, 86400, Note_off_c, 2, 59, 95
3, 86400, Note_off_c, 2, 52, 95
3, 87840, Note_on_c, 2, 62, 95
3, 87840, Note_on_c, 2, 57, 95
3, 87840, Note_on_c, 2, 50, 95
3, 92160, Note_off_c, 2, 62, 95
3, 92160, Note_off_c, 2, 57, 95
3, 92160, Note_off_c, 2, 50, 95
3, 92160, Note_on_c, 2, 64, 95
3, 92160, Note_on_c, 2, 59, 95
3, 92160, Note_on_c, 2, 52, 95
3, 92640, Note_off_c, 2, 64, 95
3, 92640, Note_off_c, 2, 59, 95
3, 92640, Note_off_c, 2, 52, 95
3, 92640, Note_on_c, 2, 64, 95
3, 92640, Note_on_c, 2, 59, 95
3, 92640, Note_on_c, 2, 52, 95
3, 93120, Note_off_c, 2, 64, 95
3, 93120, Note_off_c, 2, 59, 95
3, 93120, Note_off_c, 2, 52, 95
3, 93120, Note_on_c, 2, 62, 95
3, 93120, Note_on_c, 2, 57, 95
3, 93120, Note_on_c, 2, 50, 95
3, 93600, Note_off_c, 2, 62, 95
3, 93600, Note_off_c, 2, 57, 95
3, 93600, Note_off_c, 2, 50, 95
3, 93600, Note_on_c, 2, 64, 95
3, 93600, Note_on_c, 2, 59, 95
3, 93600, Note_on_c, 2, 52, 95
3, 94080, Note_off_c, 2, 64, 95
3, 94080, Note_off_c, 2, 59, 95
3, 94080, Note_off_c, 2, 52, 95
3, 95040, Note_on_c, 2, 59, 95
3, 95040, Note_on_c, 2, 55, 95
3, 95040, Note_on_c, 2, 50, 95
3, 95093, Note_off_c, 2, 59, 95
3, 95093, Note_off_c, 2, 55, 95
3, 95093, Note_off_c, 2, 50, 95
3, 95520, Note_on_c, 2, 62, 95
3, 95520, Note_on_c, 2, 57, 95
3, 95520, Note_on_c, 2, 50, 95
3, 99840, Note_off_c, 2, 62, 95
3, 99840, Note_off_c, 2, 57, 95
3, 99840, Note_off_c, 2, 50, 95
3, 99840, Note_on_c, 2, 64, 95
3, 99840, Note_on_c, 2, 59, 95
3, 99840, Note_on_c, 2, 52, 95
3, 100320, Note_off_c, 2, 64, 95
3, 100320, Note_off_c, 2, 59, 95
3, 100320, Note_off_c, 2, 52, 95
3, 100320, Note_on_c, 2, 64, 95
3, 100320, Note_on_c, 2, 59, 95
3, 100320, Note_on_c, 2, 52, 95
3, 100800, Note_off_c, 2, 64, 95
3, 100800, Note_off_c, 2, 59, 95
3, 100800, Note_off_c, 2, 52, 95
3, 100800, Note_on_c, 2, 62, 95
3, 100800, Note_on_c, 2, 57, 95
3, 100800, Note_on_c, 2, 50, 95
3, 101280, Note_off_c, 2, 62, 95
3, 101280, Note_off_c, 2, 57, 95
3, 101280, Note_off_c, 2, 50, 95
3, 101280, Note_on_c, 2, 64, 95
3, 101280, Note_on_c, 2, 59, 95
3, 101280, Note_on_c, 2, 52, 95
3, 101760, Note_off_c, 2, 64, 95
3, 101760, Note_off_c, 2, 59, 95
3, 101760, Note_off_c, 2, 52, 95
3, 103200, Note_on_c, 2, 62, 95
3, 103200, Note_on_c, 2, 57, 95
3, 103200, Note_on_c, 2, 50, 95
3, 107520, Note_off_c, 2, 62, 95
3, 107520, Note_off_c, 2, 57, 95
3, 107520, Note_off_c, 2, 50, 95
3, 107520, Note_on_c, 2, 64, 95
3, 107520, Note_on_c, 2, 59, 95
3, 107520, Note_on_c, 2, 52, 95
3, 108000, Note_off_c, 2, 64, 95
3, 108000, Note_off_c, 2, 59, 95
3, 108000, Note_off_c, 2, 52, 95
3, 108000, Note_on_c, 2, 64, 95
3, 108000, Note_on_c, 2, 59, 95
3, 108000, Note_on_c, 2, 52, 95
3, 108480, Note_off_c, 2, 64, 95
3, 108480, Note_off_c, 2, 59, 95
3, 108480, Note_off_c, 2, 52, 95
3, 108480, Note_on_c, 2, 62, 95
3, 108480, Note_on_c, 2, 57, 95
3, 108480, Note_on_c, 2, 50, 95
3, 108960, Note_off_c, 2, 62, 95
3, 108960, Note_off_c, 2, 57, 95
3, 108960, Note_off_c, 2, 50, 95
3, 108960, Note_on_c, 2, 64, 95
3, 108960, Note_on_c, 2, 59, 95
3, 108960, Note_on_c, 2, 52, 95
3, 109440, Note_off_c, 2, 64, 95
3, 109440, Note_off_c, 2, 59, 95
3, 109440, Note_off_c, 2, 52, 95
3, 110880, Note_on_c, 2, 62, 95
3, 110880, Note_on_c, 2, 57, 95
3, 110880, Note_on_c, 2, 50, 95
3, 114720, Note_off_c, 2, 62, 95
3, 114720, Note_off_c, 2, 57, 95
3, 114720, Note_off_c, 2, 50, 95
3, 114720, Note_on_c, 2, 64, 95
3, 114720, Note_on_c, 2, 59, 95
3, 114720, Note_on_c, 2, 52, 95
3, 116640, Note_off_c, 2, 64, 95
3, 116640, Note_off_c, 2, 59, 95
3, 116640, Note_off_c, 2, 52, 95
3, 116640, Note_on_c, 2, 62, 95
3, 116640, Note_on_c, 2, 57, 95
3, 116640, Note_on_c, 2, 50, 95
3, 118560, Note_off_c, 2, 62, 95
3, 118560, Note_off_c, 2, 57, 95
3, 118560, Note_off_c, 2, 50, 95
3, 118560, Note_on_c, 2, 60, 95
3, 118560, Note_on_c, 2, 55, 95
3, 118560, Note_on_c, 2, 48, 95
3, 120960, Note_off_c, 2, 60, 95
3, 120960, Note_off_c, 2, 55, 95
3, 120960, Note_off_c, 2, 48, 95
3, 120960, Note_on_c, 2, 59, 95
3, 120960, Note_on_c, 2, 54, 95
3, 120960, Note_on_c, 2, 47, 95
3, 121440, Note_off_c, 2, 59, 95
3, 121440, Note_off_c, 2, 54, 95
3, 121440, Note_off_c, 2, 47, 95
3, 122880, Note_on_c, 2, 64, 95
3, 122880, Note_on_c, 2, 59, 95
3, 122880, Note_on_c, 2, 52, 95
3, 123360, Note_off_c, 2, 64, 95
3, 123360, Note_off_c, 2, 59, 95
3, 123360, Note_off_c, 2, 52, 95
3, 123360, Note_on_c, 2, 64, 95
3, 123360, Note_on_c, 2, 59, 95
3, 123360, Note_on_c, 2, 52, 95
3, 123840, Note_off_c, 2, 64, 95
3, 123840, Note_off_c, 2, 59, 95
3, 123840, Note_off_c, 2, 52, 95
3, 123840, Note_on_c, 2, 62, 95
3, 123840, Note_on_c, 2, 57, 95
3, 123840, Note_on_c, 2, 50, 95
3, 124320, Note_off_c, 2, 62, 95
3, 124320, Note_off_c, 2, 57, 95
3, 124320, Note_off_c, 2, 50, 95
3, 124320, Note_on_c, 2, 64, 95
3, 124320, Note_on_c, 2, 59, 95
3, 124320, Note_on_c, 2, 52, 95
3, 124800, Note_off_c, 2, 64, 95
3, 124800, Note_off_c, 2, 59, 95
3, 124800, Note_off_c, 2, 52, 95
3, 126240, Note_on_c, 2, 62, 95
3, 126240, Note_on_c, 2, 57, 95
3, 126240, Note_on_c, 2, 50, 95
3, 128640, Note_off_c, 2, 62, 95
3, 128640, Note_off_c, 2, 57, 95
3, 128640, Note_off_c, 2, 50, 95
3, 128640, Note_on_c, 2, 62, 95
3, 128640, Note_on_c, 2, 57, 95
3, 128640, Note_on_c, 2, 50, 95
3, 129360, Note_off_c, 2, 62, 95
3, 129360, Note_off_c, 2, 57, 95
3, 129360, Note_off_c, 2, 50, 95
3, 129360, Note_on_c, 2, 55, 95
3, 129360, Note_on_c, 2, 50, 95
3, 129360, Note_on_c, 2, 45, 95
3, 129413, Note_off_c, 2, 55, 95
3, 129413, Note_off_c, 2, 50, 95
3, 129413, Note_off_c, 2, 45, 95
3, 129600, Note_on_c, 2, 62, 95
3, 129600, Note_on_c, 2, 57, 95
3, 129600, Note_on_c, 2, 50, 95
3, 129840, Note_off_c, 2, 62, 95
3, 129840, Note_off_c, 2, 57, 95
3, 129840, Note_off_c, 2, 50, 95
3, 129840, Note_on_c, 2, 55, 95
3, 129840, Note_on_c, 2, 50, 95
3, 129840, Note_on_c, 2, 45, 95
3, 129893, Note_off_c, 2, 55, 95
3, 129893, Note_off_c, 2, 50, 95
3, 129893, Note_off_c, 2, 45, 95
3, 130080, Note_on_c, 2, 62, 95
3, 130080, Note_on_c, 2, 57, 95
3, 130080, Note_on_c, 2, 50, 95
3, 130560, Note_off_c, 2, 62, 95
3, 130560, Note_off_c, 2, 57, 95
3, 130560, Note_off_c, 2, 50, 95
3, 130560, Note_on_c, 2, 64, 95
3, 130560, Note_on_c, 2, 59, 95
3, 130560, Note_on_c, 2, 52, 95
3, 131040, Note_off_c, 2, 64, 95
3, 131040, Note_off_c, 2, 59, 95
3, 131040, Note_off_c, 2, 52, 95
3, 131040, Note_on_c, 2, 64, 95
3, 131040, Note_on_c, 2, 59, 95
3, 131040, Note_on_c, 2, 52, 95
3, 131520, Note_off_c, 2, 64, 95
3, 131520, Note_off_c, 2, 59, 95
3, 131520, Note_off_c, 2, 52, 95
3, 131520, Note_on_c, 2, 62, 95
3, 131520, Note_on_c, 2, 57, 95
3, 131520, Note_on_c, 2, 50, 95
3, 132000, Note_off_c, 2, 62, 95
3, 132000, Note_off_c, 2, 57, 95
3, 132000, Note_off_c, 2, 50, 95
3, 132000, Note_on_c, 2, 64, 95
3, 132000, Note_on_c, 2, 59, 95
3, 132000, Note_on_c, 2, 52, 95
3, 132480, Note_off_c, 2, 64, 95
3, 132480, Note_off_c, 2, 59, 95
3, 132480, Note_off_c, 2, 52, 95
3, 133440, Note_on_c, 2, 55, 95
3, 133440, Note_on_c, 2, 50, 95
3, 133440, Note_on_c, 2, 45, 95
3, 133493, Note_off_c, 2, 55, 95
3, 133493, Note_off_c, 2, 50, 95
3, 133493, Note_off_c, 2, 45, 95
3, 133920, Note_on_c, 2, 62, 95
3, 133920, Note_on_c, 2, 57, 95
3, 133920, Note_on_c, 2, 50, 95
3, 138240, Note_off_c, 2, 62, 95
3, 138240, Note_off_c, 2, 57, 95
3, 138240, Note_off_c, 2, 50, 95
3, 138240, Note_on_c, 2, 64, 95
3, 138240, Note_on_c, 2, 59, 95
3, 138240, Note_on_c, 2, 52, 95
3, 138720, Note_off_c, 2, 64, 95
3, 138720, Note_off_c, 2, 59, 95
3, 138720, Note_off_c, 2, 52, 95
3, 138720, Note_on_c, 2, 64, 95
3, 138720, Note_on_c, 2, 59, 95
3, 138720, Note_on_c, 2, 52, 95
3, 139200, Note_off_c, 2, 64, 95
3, 139200, Note_off_c, 2, 59, 95
3, 139200, Note_off_c, 2, 52, 95
3, 139200, Note_on_c, 2, 62, 95
3, 139200, Note_on_c, 2, 57, 95
3, 139200, Note_on_c, 2, 50, 95
3, 139680, Note_off_c, 2, 62, 95
3, 139680, Note_off_c, 2, 57, 95
3, 139680, Note_off_c, 2, 50, 95
3, 139680, Note_on_c, 2, 64, 95
3, 139680, Note_on_c, 2, 59, 95
3, 139680, Note_on_c, 2, 52, 95
3, 140160, Note_off_c, 2, 64, 95
3, 140160, Note_off_c, 2, 59, 95
3, 140160, Note_off_c, 2, 52, 95
3, 141600, Note_on_c, 2, 62, 95
3, 141600, Note_on_c, 2, 57, 95
3, 141600, Note_on_c, 2, 50, 95
3, 145920, Note_off_c, 2, 62, 95
3, 145920, Note_off_c, 2, 57, 95
3, 145920, Note_off_c, 2, 50, 95
3, 145920, Note_on_c, 2, 64, 95
3, 145920, Note_on_c, 2, 59, 95
3, 145920, Note_on_c, 2, 52, 95
3, 146400, Note_off_c, 2, 64, 95
3, 146400, Note_off_c, 2, 59, 95
3, 146400, Note_off_c, 2, 52, 95
3, 146400, Note_on_c, 2, 64, 95
3, 146400, Note_on_c, 2, 59, 95
3, 146400, Note_on_c, 2, 52, 95
3, 146880, Note_off_c, 2, 64, 95
3, 146880, Note_off_c, 2, 59, 95
3, 146880, Note_off_c, 2, 52, 95
3, 146880, Note_on_c, 2, 62, 95
3, 146880, Note_on_c, 2, 57, 95
3, 146880, Note_on_c, 2, 50, 95
3, 147360, Note_off_c, 2, 62, 95
3, 147360, Note_off_c, 2, 57, 95
3, 147360, Note_off_c, 2, 50, 95
3, 147360, Note_on_c, 2, 64, 95
3, 147360, Note_on_c, 2, 59, 95
3, 147360, Note_on_c, 2, 52, 95
3, 147840, Note_off_c, 2, 64, 95
3, 147840, Note_off_c, 2, 59, 95
3, 147840, Note_off_c, 2, 52, 95
3, 149280, Note_on_c, 2, 62, 95
3, 149280, Note_on_c, 2, 57, 95
3, 149280, Note_on_c, 2, 50, 95
3, 153600, Note_off_c, 2, 62, 95
3, 153600, Note_off_c, 2, 57, 95
3, 153600, Note_off_c, 2, 50, 95
3, 153600, Note_on_c, 2, 64, 95
3, 153600, Note_on_c, 2, 59, 95
3, 153600, Note_on_c, 2, 52, 95
3, 154080, Note_off_c, 2, 64, 95
3, 154080, Note_off_c, 2, 59, 95
3, 154080, Note_off_c, 2, 52, 95
3, 154080, Note_on_c, 2, 64, 95
3, 154080, Note_on_c, 2, 59, 95
3, 154080, Note_on_c, 2, 52, 95
3, 154560, Note_off_c, 2, 64, 95
3, 154560, Note_off_c, 2, 59, 95
3, 154560, Note_off_c, 2, 52, 95
3, 154560, Note_on_c, 2, 62, 95
3, 154560, Note_on_c, 2, 57, 95
3, 154560, Note_on_c, 2, 50, 95
3, 155040, Note_off_c, 2, 62, 95
3, 155040, Note_off_c, 2, 57, 95
3, 155040, Note_off_c, 2, 50, 95
3, 155040, Note_on_c, 2, 64, 95
3, 155040, Note_on_c, 2, 59, 95
3, 155040, Note_on_c, 2, 52, 95
3, 155520, Note_off_c, 2, 64, 95
3, 155520, Note_off_c, 2, 59, 95
3, 155520, Note_off_c, 2, 52, 95
3, 156960, Note_on_c, 2, 62, 95
3, 156960, Note_on_c, 2, 57, 95
3, 156960, Note_on_c, 2, 50, 95
3, 161280, Note_off_c, 2, 62, 95
3, 161280, Note_off_c, 2, 57, 95
3, 161280, Note_off_c, 2, 50, 95
3, 161280, Note_on_c, 2, 64, 95
3, 161280, Note_on_c, 2, 59, 95
3, 161280, Note_on_c, 2, 52, 95
3, 161760, Note_off_c, 2, 64, 95
3, 161760, Note_off_c, 2, 59, 95
3, 161760, Note_off_c, 2, 52, 95
3, 161760, Note_on_c, 2, 64, 95
3, 161760, Note_on_c, 2, 59, 95
3, 161760, Note_on_c, 2, 52, 95
3, 162240, Note_off_c, 2, 64, 95
3, 162240, Note_off_c, 2, 59, 95
3, 162240, Note_off_c, 2, 52, 95
3, 162240, Note_on_c, 2, 62, 95
3, 162240, Note_on_c, 2, 57, 95
3, 162240, Note_on_c, 2, 50, 95
3, 162720, Note_off_c, 2, 62, 95
3, 162720, Note_off_c, 2, 57, 95
3, 162720, Note_off_c, 2, 50, 95
3, 162720, Note_on_c, 2, 64, 95
3, 162720, Note_on_c, 2, 59, 95
3, 162720, Note_on_c, 2, 52, 95
3, 163200, Note_off_c, 2, 64, 95
3, 163200, Note_off_c, 2, 59, 95
3, 163200, Note_off_c, 2, 52, 95
3, 164640, Note_on_c, 2, 62, 95
3, 164640, Note_on_c, 2, 57, 95
3, 164640, Note_on_c, 2, 50, 95
3, 168960, Note_off_c, 2, 62, 95
3, 168960, Note_off_c, 2, 57, 95
3, 168960, Note_off_c, 2, 50, 95
3, 168960, Note_on_c, 2, 64, 95
3, 168960, Note_on_c, 2, 59, 95
3, 168960, Note_on_c, 2, 52, 95
3, 169440, Note_off_c, 2, 64, 95
3, 169440, Note_off_c, 2, 59, 95
3, 169440, Note_off_c, 2, 52, 95
3, 169440, Note_on_c, 2, 64, 95
3, 169440, Note_on_c, 2, 59, 95
3, 169440, Note_on_c, 2, 52, 95
3, 169920, Note_off_c, 2, 64, 95
3, 169920, Note_off_c, 2, 59, 95
3, 169920, Note_off_c, 2, 52, 95
3, 169920, Note_on_c, 2, 62, 95
3, 169920, Note_on_c, 2, 57, 95
3, 169920, Note_on_c, 2, 50, 95
3, 170400, Note_off_c, 2, 62, 95
3, 170400, Note_off_c, 2, 57, 95
3, 170400, Note_off_c, 2, 50, 95
3, 170400, Note_on_c, 2, 64, 95
3, 170400, Note_on_c, 2, 59, 95
3, 170400, Note_on_c, 2, 52, 95
3, 170880, Note_off_c, 2, 64, 95
3, 170880, Note_off_c, 2, 59, 95
3, 170880, Note_off_c, 2, 52, 95
3, 172320, Note_on_c, 2, 62, 95
3, 172320, Note_on_c, 2, 57, 95
3, 172320, Note_on_c, 2, 50, 95
3, 176640, Note_off_c, 2, 62, 95
3, 176640, Note_off_c, 2, 57, 95
3, 176640, Note_off_c, 2, 50, 95
3, 176640, Note_on_c, 2, 64, 95
3, 176640, Note_on_c, 2, 59, 95
3, 176640, Note_on_c, 2, 52, 95
3, 177120, Note_off_c, 2, 64, 95
3, 177120, Note_off_c, 2, 59, 95
3, 177120, Note_off_c, 2, 52, 95
3, 177120, Note_on_c, 2, 64, 95
3, 177120, Note_on_c, 2, 59, 95
3, 177120, Note_on_c, 2, 52, 95
3, 177600, Note_off_c, 2, 64, 95
3, 177600, Note_off_c, 2, 59, 95
3, 177600, Note_off_c, 2, 52, 95
3, 177600, Note_on_c, 2, 62, 95
3, 177600, Note_on_c, 2, 57, 95
3, 177600, Note_on_c, 2, 50, 95
3, 178080, Note_off_c, 2, 62, 95
3, 178080, Note_off_c, 2, 57, 95
3, 178080, Note_off_c, 2, 50, 95
3, 178080, Note_on_c, 2, 64, 95
3, 178080, Note_on_c, 2, 59, 95
3, 178080, Note_on_c, 2, 52, 95
3, 178560, Note_off_c, 2, 64, 95
3, 178560, Note_off_c, 2, 59, 95
3, 178560, Note_off_c, 2, 52, 95
3, 180000, Note_on_c, 2, 62, 95
3, 180000, Note_on_c, 2, 57, 95
3, 180000, Note_on_c, 2, 50, 95
3, 184320, Note_off_c, 2, 62, 95
3, 184320, Note_off_c, 2, 57, 95
3, 184320, Note_off_c, 2, 50, 95
3, 184320, Note_on_c, 2, 64, 95
3, 184320, Note_on_c, 2, 59, 95
3, 184320, Note_on_c, 2, 52, 95
3, 184800, Note_off_c, 2, 64, 95
3, 184800, Note_off_c, 2, 59, 95
3, 184800, Note_off_c, 2, 52, 95
3, 184800, Note_on_c, 2, 64, 95
3, 184800, Note_on_c, 2, 59, 95
3, 184800, Note_on_c, 2, 52, 95
3, 185280, Note_off_c, 2, 64, 95
3, 185280, Note_off_c, 2, 59, 95
3, 185280, Note_off_c, 2, 52, 95
3, 185280, Note_on_c, 2, 62, 95
3, 185280, Note_on_c, 2, 57, 95
3, 185280, Note_on_c, 2, 50, 95
3, 185760, Note_off_c, 2, 62, 95
3, 185760, Note_off_c, 2, 57, 95
3, 185760, Note_off_c, 2, 50, 95
3, 185760, Note_on_c, 2, 64, 95
3, 185760, Note_on_c, 2, 59, 95
3, 185760, Note_on_c, 2, 52, 95
3, 186240, Note_off_c, 2, 64, 95
3, 186240, Note_off_c, 2, 59, 95
3, 186240, Note_off_c, 2, 52, 95
3, 187680, Note_on_c, 2, 62, 95
3, 187680, Note_on_c, 2, 57, 95
3, 187680, Note_on_c, 2, 50, 95
3, 192000, Note_off_c, 2, 62, 95
3, 192000, Note_off_c, 2, 57, 95
3, 192000, Note_off_c, 2, 50, 95
3, 192000, Note_on_c, 2, 64, 95
3, 192000, Note_on_c, 2, 59, 95
3, 192000, Note_on_c, 2, 52, 95
3, 192480, Note_off_c, 2, 64, 95
3, 192480, Note_off_c, 2, 59, 95
3, 192480, Note_off_c, 2, 52, 95
3, 192480, Note_on_c, 2, 64, 95
3, 192480, Note_on_c, 2, 59, 95
3, 192480, Note_on_c, 2, 52, 95
3, 192960, Note_off_c, 2, 64, 95
3, 192960, Note_off_c, 2, 59, 95
3, 192960, Note_off_c, 2, 52, 95
3, 192960, Note_on_c, 2, 62, 95
3, 192960, Note_on_c, 2, 57, 95
3, 192960, Note_on_c, 2, 50, 95
3, 193440, Note_off_c, 2, 62, 95
3, 193440, Note_off_c, 2, 57, 95
3, 193440, Note_off_c, 2, 50, 95
3, 193440, Note_on_c, 2, 64, 95
3, 193440, Note_on_c, 2, 59, 95
3, 193440, Note_on_c, 2, 52, 95
3, 193920, Note_off_c, 2, 64, 95
3, 193920, Note_off_c, 2, 59, 95
3, 193920, Note_off_c, 2, 52, 95
3, 195360, Note_on_c, 2, 62, 95
3, 195360, Note_on_c, 2, 57, 95
3, 195360, Note_on_c, 2, 50, 95
3, 199680, Note_off_c, 2, 62, 95
3, 199680, Note_off_c, 2, 57, 95
3, 199680, Note_off_c, 2, 50, 95
3, 199680, Note_on_c, 2, 64, 95
3, 199680, Note_on_c, 2, 59, 95
3, 199680, Note_on_c, 2, 52, 95
3, 200160, Note_off_c, 2, 64, 95
3, 200160, Note_off_c, 2, 59, 95
3, 200160, Note_off_c, 2, 52, 95
3, 200160, Note_on_c, 2, 64, 95
3, 200160, Note_on_c, 2, 59, 95
3, 200160, Note_on_c, 2, 52, 95
3, 200640, Note_off_c, 2, 64, 95
3, 200640, Note_off_c, 2, 59, 95
3, 200640, Note_off_c, 2, 52, 95
3, 200640, Note_on_c, 2, 62, 95
3, 200640, Note_on_c, 2, 57, 95
3, 200640, Note_on_c, 2, 50, 95
3, 201120, Note_off_c, 2, 62, 95
3, 201120, Note_off_c, 2, 57, 95
3, 201120, Note_off_c, 2, 50, 95
3, 201120, Note_on_c, 2, 64, 95
3, 201120, Note_on_c, 2, 59, 95
3, 201120, Note_on_c, 2, 52, 95
3, 201600, Note_off_c, 2, 64, 95
3, 201600, Note_off_c, 2, 59, 95
3, 201600, Note_off_c, 2, 52, 95
3, 203040, Note_on_c, 2, 62, 95
3, 203040, Note_on_c, 2, 57, 95
3, 203040, Note_on_c, 2, 50, 95
3, 207360, Note_off_c, 2, 62, 95
3, 207360, Note_off_c, 2, 57, 95
3, 207360, Note_off_c, 2, 50, 95
3, 207360, Note_on_c, 2, 64, 95
3, 207360, Note_on_c, 2, 59, 95
3, 207360, Note_on_c, 2, 52, 95
3, 207840, Note_off_c, 2, 64, 95
3, 207840, Note_off_c, 2, 59, 95
3, 207840, Note_off_c, 2, 52, 95
3, 207840, Note_on_c, 2, 64, 95
3, 207840, Note_on_c, 2, 59, 95
3, 207840, Note_on_c, 2, 52, 95
3, 208320, Note_off_c, 2, 64, 95
3, 208320, Note_off_c, 2, 59, 95
3, 208320, Note_off_c, 2, 52, 95
3, 208320, Note_on_c, 2, 62, 95
3, 208320, Note_on_c, 2, 57, 95
3, 208320, Note_on_c, 2, 50, 95
3, 208800, Note_off_c, 2, 62, 95
3, 208800, Note_off_c, 2, 57, 95
3, 208800, Note_off_c, 2, 50, 95
3, 208800, Note_on_c, 2, 64, 95
3, 208800, Note_on_c, 2, 59, 95
3, 208800, Note_on_c, 2, 52, 95
3, 209280, Note_off_c, 2, 64, 95
3, 209280, Note_off_c, 2, 59, 95
3, 209280, Note_off_c, 2, 52, 95
3, 210720, Note_on_c, 2, 62, 95
3, 210720, Note_on_c, 2, 57, 95
3, 210720, Note_on_c, 2, 50, 95
3, 215040, Note_off_c, 2, 62, 95
3, 215040, Note_off_c, 2, 57, 95
3, 215040, Note_off_c, 2, 50, 95
3, 215040, Note_on_c, 2, 64, 95
3, 215040, Note_on_c, 2, 59, 95
3, 215040, Note_on_c, 2, 52, 95
3, 215520, Note_off_c, 2, 64, 95
3, 215520, Note_off_c, 2, 59, 95
3, 215520, Note_off_c, 2, 52, 95
3, 215520, Note_on_c, 2, 64, 95
3, 215520, Note_on_c, 2, 59, 95
3, 215520, Note_on_c, 2, 52, 95
3, 216000, Note_off_c, 2, 64, 95
3, 216000, Note_off_c, 2, 59, 95
3, 216000, Note_off_c, 2, 52, 95
3, 216000, Note_on_c, 2, 62, 95
3, 216000, Note_on_c, 2, 57, 95
3, 216000, Note_on_c, 2, 50, 95
3, 216480, Note_off_c, 2, 62, 95
3, 216480, Note_off_c, 2, 57, 95
3, 216480, Note_off_c, 2, 50, 95
3, 216480, Note_on_c, 2, 64, 95
3, 216480, Note_on_c, 2, 59, 95
3, 216480, Note_on_c, 2, 52, 95
3, 216960, Note_off_c, 2, 64, 95
3, 216960, Note_off_c, 2, 59, 95
3, 216960, Note_off_c, 2, 52, 95
3, 218400, Note_on_c, 2, 62, 95
3, 218400, Note_on_c, 2, 57, 95
3, 218400, Note_on_c, 2, 50, 95
3, 222720, Note_off_c, 2, 62, 95
3, 222720, Note_off_c, 2, 57, 95
3, 222720, Note_off_c, 2, 50, 95
3, 222720, Note_on_c, 2, 64, 95
3, 222720, Note_on_c, 2, 59, 95
3, 222720, Note_on_c, 2, 52, 95
3, 223200, Note_off_c, 2, 64, 95
3, 223200, Note_off_c, 2, 59, 95
3, 223200, Note_off_c, 2, 52, 95
3, 223200, Note_on_c, 2, 64, 95
3, 223200, Note_on_c, 2, 59, 95
3, 223200, Note_on_c, 2, 52, 95
3, 223680, Note_off_c, 2, 64, 95
3, 223680, Note_off_c, 2, 59, 95
3, 223680, Note_off_c, 2, 52, 95
3, 223680, Note_on_c, 2, 62, 95
3, 223680, Note_on_c, 2, 57, 95
3, 223680, Note_on_c, 2, 50, 95
3, 224160, Note_off_c, 2, 62, 95
3, 224160, Note_off_c, 2, 57, 95
3, 224160, Note_off_c, 2, 50, 95
3, 224160, Note_on_c, 2, 64, 95
3, 224160, Note_on_c, 2, 59, 95
3, 224160, Note_on_c, 2, 52, 95
3, 224640, Note_off_c, 2, 64, 95
3, 224640, Note_off_c, 2, 59, 95
3, 224640, Note_off_c, 2, 52, 95
3, 226080, Note_on_c, 2, 62, 95
3, 226080, Note_on_c, 2, 57, 95
3, 226080, Note_on_c, 2, 50, 95
3, 230400, Note_off_c, 2, 62, 95
3, 230400, Note_off_c, 2, 57, 95
3, 230400, Note_off_c, 2, 50, 95
3, 230400, Note_on_c, 2, 64, 95
3, 230400, Note_on_c, 2, 59, 95
3, 230400, Note_on_c, 2, 52, 95
3, 230880, Note_off_c, 2, 64, 95
3, 230880, Note_off_c, 2, 59, 95
3, 230880, Note_off_c, 2, 52, 95
3, 230880, Note_on_c, 2, 64, 95
3, 230880, Note_on_c, 2, 59, 95
3, 230880, Note_on_c, 2, 52, 95
3, 231360, Note_off_c, 2, 64, 95
3, 231360, Note_off_c, 2, 59, 95
3, 231360, Note_off_c, 2, 52, 95
3, 231360, Note_on_c, 2, 62, 95
3, 231360, Note_on_c, 2, 57, 95
3, 231360, Note_on_c, 2, 50, 95
3, 231840, Note_off_c, 2, 62, 95
3, 231840, Note_off_c, 2, 57, 95
3, 231840, Note_off_c, 2, 50, 95
3, 231840, Note_on_c, 2, 64, 95
3, 231840, Note_on_c, 2, 59, 95
3, 231840, Note_on_c, 2, 52, 95
3, 232320, Note_off_c, 2, 64, 95
3, 232320, Note_off_c, 2, 59, 95
3, 232320, Note_off_c, 2, 52, 95
3, 233760, Note_on_c, 2, 62, 95
3, 233760, Note_on_c, 2, 57, 95
3, 233760, Note_on_c, 2, 50, 95
3, 238080, Note_off_c, 2, 62, 95
3, 238080, Note_off_c, 2, 57, 95
3, 238080, Note_off_c, 2, 50, 95
3, 238080, Note_on_c, 2, 64, 95
3, 238080, Note_on_c, 2, 59, 95
3, 238080, Note_on_c, 2, 52, 95
3, 238560, Note_off_c, 2, 64, 95
3, 238560, Note_off_c, 2, 59, 95
3, 238560, Note_off_c, 2, 52, 95
3, 238560, Note_on_c, 2, 64, 95
3, 238560, Note_on_c, 2, 59, 95
3, 238560, Note_on_c, 2, 52, 95
3, 239040, Note_off_c, 2, 64, 95
3, 239040, Note_off_c, 2, 59, 95
3, 239040, Note_off_c, 2, 52, 95
3, 239040, Note_on_c, 2, 62, 95
3, 239040, Note_on_c, 2, 57, 95
3, 239040, Note_on_c, 2, 50, 95
3, 239520, Note_off_c, 2, 62, 95
3, 239520, Note_off_c, 2, 57, 95
3, 239520, Note_off_c, 2, 50, 95
3, 239520, Note_on_c, 2, 64, 95
3, 239520, Note_on_c, 2, 59, 95
3, 239520, Note_on_c, 2, 52, 95
3, 240000, Note_off_c, 2, 64, 95
3, 240000, Note_off_c, 2, 59, 95
3, 240000, Note_off_c, 2, 52, 95
3, 241440, Note_on_c, 2, 62, 95
3, 241440, Note_on_c, 2, 57, 95
3, 241440, Note_on_c, 2, 50, 95
3, 245760, Note_off_c, 2, 62, 95
3, 245760, Note_off_c, 2, 57, 95
3, 245760, Note_off_c, 2, 50, 95
3, 245760, Note_on_c, 2, 64, 95
3, 245760, Note_on_c, 2, 59, 95
3, 245760, Note_on_c, 2, 52, 95
3, 246240, Note_off_c, 2, 64, 95
3, 246240, Note_off_c, 2, 59, 95
3, 246240, Note_off_c, 2, 52, 95
3, 246240, Note_on_c, 2, 64, 95
3, 246240, Note_on_c, 2, 59, 95
3, 246240, Note_on_c, 2, 52, 95
3, 246720, Note_off_c, 2, 64, 95
3, 246720, Note_off_c, 2, 59, 95
3, 246720, Note_off_c, 2, 52, 95
3, 246720, Note_on_c, 2, 62, 95
3, 246720, Note_on_c, 2, 57, 95
3, 246720, Note_on_c, 2, 50, 95
3, 247200, Note_off_c, 2, 62, 95
3, 247200, Note_off_c, 2, 57, 95
3, 247200, Note_off_c, 2, 50, 95
3, 247200, Note_on_c, 2, 64, 95
3, 247200, Note_on_c, 2, 59, 95
3, 247200, Note_on_c, 2, 52, 95
3, 247680, Note_off_c, 2, 64, 95
3, 247680, Note_off_c, 2, 59, 95
3, 247680, Note_off_c, 2, 52, 95
3, 249120, Note_on_c, 2, 62, 95
3, 249120, Note_on_c, 2, 57, 95
3, 249120, Note_on_c, 2, 50, 95
3, 252960, Note_off_c, 2, 62, 95
3, 252960, Note_off_c, 2, 57, 95
3, 252960, Note_off_c, 2, 50, 95
3, 252960, Note_on_c, 2, 64, 95
3, 252960, Note_on_c, 2, 59, 95
3, 252960, Note_on_c, 2, 52, 95
3, 254880, Note_off_c, 2, 64, 95
3, 254880, Note_off_c, 2, 59, 95
3, 254880, Note_off_c, 2, 52, 95
3, 254880, Note_on_c, 2, 62, 95
3, 254880, Note_on_c, 2, 57, 95
3, 254880, Note_on_c, 2, 50, 95
3, 256800, Note_off_c, 2, 62, 95
3, 256800, Note_off_c, 2, 57, 95
3, 256800, Note_off_c, 2, 50, 95
3, 256800, Note_on_c, 2, 60, 95
3, 256800, Note_on_c, 2, 55, 95
3, 256800, Note_on_c, 2, 48, 95
3, 259200, Note_off_c, 2, 60, 95
3, 259200, Note_off_c, 2, 55, 95
3, 259200, Note_off_c, 2, 48, 95
3, 259200, Note_on_c, 2, 59, 95
3, 259200, Note_on_c, 2, 54, 95
3, 259200, Note_on_c, 2, 47, 95
3, 259680, Note_off_c, 2, 59, 95
3, 259680, Note_off_c, 2, 54, 95
3, 259680, Note_off_c, 2, 47, 95
3, 261120, Note_on_c, 2, 64, 95
3, 261120, Note_on_c, 2, 59, 95
3, 261120, Note_on_c, 2, 52, 95
3, 261600, Note_off_c, 2, 64, 95
3, 261600, Note_off_c, 2, 59, 95
3, 261600, Note_off_c, 2, 52, 95
3, 261600, Note_on_c, 2, 64, 95
3, 261600, Note_on_c, 2, 59, 95
3, 261600, Note_on_c, 2, 52, 95
3, 262080, Note_off_c, 2, 64, 95
3, 262080, Note_off_c, 2, 59, 95
3, 262080, Note_off_c, 2, 52, 95
3, 262080, Note_on_c, 2, 62, 95
3, 262080, Note_on_c, 2, 57, 95
3, 262080, Note_on_c, 2, 50, 95
3, 262560, Note_off_c, 2, 62, 95
3, 262560, Note_off_c, 2, 57, 95
3, 262560, Note_off_c, 2, 50, 95
3, 262560, Note_on_c, 2, 64, 95
3, 262560, Note_on_c, 2, 59, 95
3, 262560, Note_on_c, 2, 52, 95
3, 263040, Note_off_c, 2, 64, 95
3, 263040, Note_off_c, 2, 59, 95
3, 263040, Note_off_c, 2, 52, 95
3, 264480, Note_on_c, 2, 62, 95
3, 264480, Note_on_c, 2, 57, 95
3, 264480, Note_on_c, 2, 50, 95
3, 268800, Note_off_c, 2, 62, 95
3, 268800, Note_off_c, 2, 57, 95
3, 268800, Note_off_c, 2, 50, 95
3, 268800, Note_on_c, 2, 64, 95
3, 268800, Note_on_c, 2, 59, 95
3, 268800, Note_on_c, 2, 52, 95
3, 269280, Note_off_c, 2, 64, 95
3, 269280, Note_off_c, 2, 59, 95
3, 269280, Note_off_c, 2, 52, 95
3, 269280, Note_on_c, 2, 64, 95
3, 269280, Note_on_c, 2, 59, 95
3, 269280, Note_on_c, 2, 52, 95
3, 269760, Note_off_c, 2, 64, 95
3, 269760, Note_off_c, 2, 59, 95
3, 269760, Note_off_c, 2, 52, 95
3, 269760, Note_on_c, 2, 62, 95
3, 269760, Note_on_c, 2, 57, 95
3, 269760, Note_on_c, 2, 50, 95
3, 270240, Note_off_c, 2, 62, 95
3, 270240, Note_off_c, 2, 57, 95
3, 270240, Note_off_c, 2, 50, 95
3, 270240, Note_on_c, 2, 64, 95
3, 270240, Note_on_c, 2, 59, 95
3, 270240, Note_on_c, 2, 52, 95
3, 270720, Note_off_c, 2, 64, 95
3, 270720, Note_off_c, 2, 59, 95
3, 270720, Note_off_c, 2, 52, 95
3, 272160, Note_on_c, 2, 62, 95
3, 272160, Note_on_c, 2, 57, 95
3, 272160, Note_on_c, 2, 50, 95
3, 276000, Note_off_c, 2, 62, 95
3, 276000, Note_off_c, 2, 57, 95
3, 276000, Note_off_c, 2, 50, 95
3, 276000, Note_on_c, 2, 64, 95
3, 276000, Note_on_c, 2, 59, 95
3, 276000, Note_on_c, 2, 52, 95
3, 277920, Note_off_c, 2, 64, 95
3, 277920, Note_off_c, 2, 59, 95
3, 277920, Note_off_c, 2, 52, 95
3, 277920, Note_on_c, 2, 62, 95
3, 277920, Note_on_c, 2, 57, 95
3, 277920, Note_on_c, 2, 50, 95
3, 279840, Note_off_c, 2, 62, 95
3, 279840, Note_off_c, 2, 57, 95
3, 279840, Note_off_c, 2, 50, 95
3, 279840, Note_on_c, 2, 60, 95
3, 279840, Note_on_c, 2, 55, 95
3, 279840, Note_on_c, 2, 48, 95
3, 282240, Note_off_c, 2, 60, 95
3, 282240, Note_off_c, 2, 55, 95
3, 282240, Note_off_c, 2, 48, 95
3, 282240, Note_on_c, 2, 59, 95
3, 282240, Note_on_c, 2, 54, 95
3, 282240, Note_on_c, 2, 47, 95
3, 282720, Note_off_c, 2, 59, 95
3, 282720, Note_off_c, 2, 54, 95
3, 282720, Note_off_c, 2, 47, 95
3, 284160, Note_on_c, 2, 64, 95
3, 284160, Note_on_c, 2, 59, 95
3, 284160, Note_on_c, 2, 52, 95
3, 284640, Note_off_c, 2, 64, 95
3, 284640, Note_off_c, 2, 59, 95
3, 284640, Note_off_c, 2, 52, 95
3, 284640, Note_on_c, 2, 64, 95
3, 284640, Note_on_c, 2, 59, 95
3, 284640, Note_on_c, 2, 52, 95
3, 285120, Note_off_c, 2, 64, 95
3, 285120, Note_off_c, 2, 59, 95
3, 285120, Note_off_c, 2, 52, 95
3, 285120, Note_on_c, 2, 62, 95
3, 285120, Note_on_c, 2, 57, 95
3, 285120, Note_on_c, 2, 50, 95
3, 285600, Note_off_c, 2, 62, 95
3, 285600, Note_off_c, 2, 57, 95
3, 285600, Note_off_c, 2, 50, 95
3, 285600, Note_on_c, 2, 64, 95
3, 285600, Note_on_c, 2, 59, 95
3, 285600, Note_on_c, 2, 52, 95
3, 286080, Note_off_c, 2, 64, 95
3, 286080, Note_off_c, 2, 59, 95
3, 286080, Note_off_c, 2, 52, 95
3, 287520, Note_on_c, 2, 62, 95
3, 287520, Note_on_c, 2, 57, 95
3, 287520, Note_on_c, 2, 50, 95
3, 291840, Note_off_c, 2, 62, 95
3, 291840, Note_off_c, 2, 57, 95
3, 291840, Note_off_c, 2, 50, 95
3, 291840, Note_on_c, 2, 64, 95
3, 291840, Note_on_c, 2, 59, 95
3, 291840, Note_on_c, 2, 52, 95
3, 292320, Note_off_c, 2, 64, 95
3, 292320, Note_off_c, 2, 59, 95
3, 292320, Note_off_c, 2, 52, 95
3, 292320, Note_on_c, 2, 64, 95
3, 292320, Note_on_c, 2, 59, 95
3, 292320, Note_on_c, 2, 52, 95
3, 292800, Note_off_c, 2, 64, 95
3, 292800, Note_off_c, 2, 59, 95
3, 292800, Note_off_c, 2, 52, 95
3, 292800, Note_on_c, 2, 62, 95
3, 292800, Note_on_c, 2, 57, 95
3, 292800, Note_on_c, 2, 50, 95
3, 293280, Note_off_c, 2, 62, 95
3, 293280, Note_off_c, 2, 57, 95
3, 293280, Note_off_c, 2, 50, 95
3, 293280, Note_on_c, 2, 64, 95
3, 293280, Note_on_c, 2, 59, 95
3, 293280, Note_on_c, 2, 52, 95
3, 293760, Note_off_c, 2, 64, 95
3, 293760, Note_off_c, 2, 59, 95
3, 293760, Note_off_c, 2, 52, 95
3, 295200, Note_on_c, 2, 62, 95
3, 295200, Note_on_c, 2, 57, 95
3, 295200, Note_on_c, 2, 50, 95
3, 299520, Note_off_c, 2, 62, 95
3, 299520, Note_off_c, 2, 57, 95
3, 299520, Note_off_c, 2, 50, 95
3, 299520, Note_on_c, 2, 64, 95
3, 299520, Note_on_c, 2, 59, 95
3, 299520, Note_on_c, 2, 52, 95
3, 300000, Note_off_c, 2, 64, 95
3, 300000, Note_off_c, 2, 59, 95
3, 300000, Note_off_c, 2, 52, 95
3, 300000, Note_on_c, 2, 64, 95
3, 300000, Note_on_c, 2, 59, 95
3, 300000, Note_on_c, 2, 52, 95
3, 300480, Note_off_c, 2, 64, 95
3, 300480, Note_off_c, 2, 59, 95
3, 300480, Note_off_c, 2, 52, 95
3, 300480, Note_on_c, 2, 62, 95
3, 300480, Note_on_c, 2, 57, 95
3, 300480, Note_on_c, 2, 50, 95
3, 300960, Note_off_c, 2, 62, 95
3, 300960, Note_off_c, 2, 57, 95
3, 300960, Note_off_c, 2, 50, 95
3, 300960, Note_on_c, 2, 64, 95
3, 300960, Note_on_c, 2, 59, 95
3, 300960, Note_on_c, 2, 52, 95
3, 301440, Note_off_c, 2, 64, 95
3, 301440, Note_off_c, 2, 59, 95
3, 301440, Note_off_c, 2, 52, 95
3, 302880, Note_on_c, 2, 62, 95
3, 302880, Note_on_c, 2, 57, 95
3, 302880, Note_on_c, 2, 50, 95
3, 307200, Note_off_c, 2, 62, 95
3, 307200, Note_off_c, 2, 57, 95
3, 307200, Note_off_c, 2, 50, 95
3, 307200, Note_on_c, 2, 64, 95
3, 307200, Note_on_c, 2, 59, 95
3, 307200, Note_on_c, 2, 52, 95
3, 307680, Note_off_c, 2, 64, 95
3, 307680, Note_off_c, 2, 59, 95
3, 307680, Note_off_c, 2, 52, 95
3, 307680, Note_on_c, 2, 64, 95
3, 307680, Note_on_c, 2, 59, 95
3, 307680, Note_on_c, 2, 52, 95
3, 308160, Note_off_c, 2, 64, 95
3, 308160, Note_off_c, 2, 59, 95
3, 308160, Note_off_c, 2, 52, 95
3, 308160, Note_on_c, 2, 62, 95
3, 308160, Note_on_c, 2, 57, 95
3, 308160, Note_on_c, 2, 50, 95
3, 308640, Note_off_c, 2, 62, 95
3, 308640, Note_off_c, 2, 57, 95
3, 308640, Note_off_c, 2, 50, 95
3, 308640, Note_on_c, 2, 64, 95
3, 308640, Note_on_c, 2, 59, 95
3, 308640, Note_on_c, 2, 52, 95
3, 309120, Note_off_c, 2, 64, 95
3, 309120, Note_off_c, 2, 59, 95
3, 309120, Note_off_c, 2, 52, 95
3, 310560, Note_on_c, 2, 62, 95
3, 310560, Note_on_c, 2, 57, 95
3, 310560, Note_on_c, 2, 50, 95
3, 314880, Note_off_c, 2, 62, 95
3, 314880, Note_off_c, 2, 57, 95
3, 314880, Note_off_c, 2, 50, 95
3, 314880, Note_on_c, 2, 64, 95
3, 314880, Note_on_c, 2, 59, 95
3, 314880, Note_on_c, 2, 52, 95
3, 315360, Note_off_c, 2, 64, 95
3, 315360, Note_off_c, 2, 59, 95
3, 315360, Note_off_c, 2, 52, 95
3, 315360, Note_on_c, 2, 64, 95
3, 315360, Note_on_c, 2, 59, 95
3, 315360, Note_on_c, 2, 52, 95
3, 315840, Note_off_c, 2, 64, 95
3, 315840, Note_off_c, 2, 59, 95
3, 315840, Note_off_c, 2, 52, 95
3, 315840, Note_on_c, 2, 62, 95
3, 315840, Note_on_c, 2, 57, 95
3, 315840, Note_on_c, 2, 50, 95
3, 316320, Note_off_c, 2, 62, 95
3, 316320, Note_off_c, 2, 57, 95
3, 316320, Note_off_c, 2, 50, 95
3, 316320, Note_on_c, 2, 64, 95
3, 316320, Note_on_c, 2, 59, 95
3, 316320, Note_on_c, 2, 52, 95
3, 316800, Note_off_c, 2, 64, 95
3, 316800, Note_off_c, 2, 59, 95
3, 316800, Note_off_c, 2, 52, 95
3, 318240, Note_on_c, 2, 62, 95
3, 318240, Note_on_c, 2, 57, 95
3, 318240, Note_on_c, 2, 50, 95
3, 322560, Note_off_c, 2, 62, 95
3, 322560, Note_off_c, 2, 57, 95
3, 322560, Note_off_c, 2, 50, 95
3, 322560, Note_on_c, 2, 64, 95
3, 322560, Note_on_c, 2, 59, 95
3, 322560, Note_on_c, 2, 52, 95
3, 323040, Note_off_c, 2, 64, 95
3, 323040, Note_off_c, 2, 59, 95
3, 323040, Note_off_c, 2, 52, 95
3, 323040, Note_on_c, 2, 64, 95
3, 323040, Note_on_c, 2, 59, 95
3, 323040, Note_on_c, 2, 52, 95
3, 323520, Note_off_c, 2, 64, 95
3, 323520, Note_off_c, 2, 59, 95
3, 323520, Note_off_c, 2, 52, 95
3, 323520, Note_on_c, 2, 62, 95
3, 323520, Note_on_c, 2, 57, 95
3, 323520, Note_on_c, 2, 50, 95
3, 324000, Note_off_c, 2, 62, 95
3, 324000, Note_off_c, 2, 57, 95
3, 324000, Note_off_c, 2, 50, 95
3, 324000, Note_on_c, 2, 64, 95
3, 324000, Note_on_c, 2, 59, 95
3, 324000, Note_on_c, 2, 52, 95
3, 324480, Note_off_c, 2, 64, 95
3, 324480, Note_off_c, 2, 59, 95
3, 324480, Note_off_c, 2, 52, 95
3, 325920, Note_on_c, 2, 62, 95
3, 325920, Note_on_c, 2, 57, 95
3, 325920, Note_on_c, 2, 50, 95
3, 330240, Note_off_c, 2, 62, 95
3, 330240, Note_off_c, 2, 57, 95
3, 330240, Note_off_c, 2, 50, 95
3, 330240, Note_on_c, 2, 64, 95
3, 330240, Note_on_c, 2, 59, 95
3, 330240, Note_on_c, 2, 52, 95
3, 330720, Note_off_c, 2, 64, 95
3, 330720, Note_off_c, 2, 59, 95
3, 330720, Note_off_c, 2, 52, 95
3, 330720, Note_on_c, 2, 64, 95
3, 330720, Note_on_c, 2, 59, 95
3, 330720, Note_on_c, 2, 52, 95
3, 331200, Note_off_c, 2, 64, 95
3, 331200, Note_off_c, 2, 59, 95
3, 331200, Note_off_c, 2, 52, 95
3, 331200, Note_on_c, 2, 62, 95
3, 331200, Note_on_c, 2, 57, 95
3, 331200, Note_on_c, 2, 50, 95
3, 331680, Note_off_c, 2, 62, 95
3, 331680, Note_off_c, 2, 57, 95
3, 331680, Note_off_c, 2, 50, 95
3, 331680, Note_on_c, 2, 64, 95
3, 331680, Note_on_c, 2, 59, 95
3, 331680, Note_on_c, 2, 52, 95
3, 332160, Note_off_c, 2, 64, 95
3, 332160, Note_off_c, 2, 59, 95
3, 332160, Note_off_c, 2, 52, 95
3, 333600, Note_on_c, 2, 62, 95
3, 333600, Note_on_c, 2, 57, 95
3, 333600, Note_on_c, 2, 50, 95
3, 337920, Note_off_c, 2, 62, 95
3, 337920, Note_off_c, 2, 57, 95
3, 337920, Note_off_c, 2, 50, 95
3, 337920, Note_on_c, 2, 64, 95
3, 337920, Note_on_c, 2, 59, 95
3, 337920, Note_on_c, 2, 52, 95
3, 338400, Note_off_c, 2, 64, 95
3, 338400, Note_off_c, 2, 59, 95
3, 338400, Note_off_c, 2, 52, 95
3, 338400, Note_on_c, 2, 64, 95
3, 338400, Note_on_c, 2, 59, 95
3, 338400, Note_on_c, 2, 52, 95
3, 338880, Note_off_c, 2, 64, 95
3, 338880, Note_off_c, 2, 59, 95
3, 338880, Note_off_c, 2, 52, 95
3, 338880, Note_on_c, 2, 62, 95
3, 338880, Note_on_c, 2, 57, 95
3, 338880, Note_on_c, 2, 50, 95
3, 339360, Note_off_c, 2, 62, 95
3, 339360, Note_off_c, 2, 57, 95
3, 339360, Note_off_c, 2, 50, 95
3, 339360, Note_on_c, 2, 64, 95
3, 339360, Note_on_c, 2, 59, 95
3, 339360, Note_on_c, 2, 52, 95
3, 339840, Note_off_c, 2, 64, 95
3, 339840, Note_off_c, 2, 59, 95
3, 339840, Note_off_c, 2, 52, 95
3, 341280, Note_on_c, 2, 62, 95
3, 341280, Note_on_c, 2, 57, 95
3, 341280, Note_on_c, 2, 50, 95
3, 341760, Note_off_c, 2, 62, 95
3, 341760, Note_off_c, 2, 57, 95
3, 341760, Note_off_c, 2, 50, 95
3, 341760, End_track
4, 0, Start_track
4, 0, Pitch_bend_c, 4, 8192
4, 0, Control_c, 4, 7, 127
4, 0, Control_c, 4, 10, 103
4, 0, Control_c, 4, 93, 0
4, 0, Control_c, 4, 91, 0
4, 0, Control_c, 4, 95, 0
4, 0, Control_c, 4, 92, 0
4, 0, Control_c, 4, 11, 127
4, 0, Program_c, 4, 29
4, 0, Control_c, 5, 7, 127
4, 0, Control_c, 5, 10, 103
4, 0, Control_c, 5, 93, 0
4, 0, Control_c, 5, 91, 0
4, 0, Control_c, 5, 95, 0
4, 0, Control_c, 5, 92, 0
4, 0, Control_c, 5, 11, 127
4, 0, Program_c, 5, 29
4, 138720, Note_on_c, 4, 59, 95
4, 139200, Note_off_c, 4, 59, 95
4, 139200, Note_on_c, 4, 62, 95
4, 139680, Note_off_c, 4, 62, 95
4, 139680, Note_on_c, 5, 64, 95
4, 139840, Pitch_bend_c, 5, 8192
4, 140000, Pitch_bend_c, 5, 8320
4, 140160, Pitch_bend_c, 5, 8192
4, 140320, Pitch_bend_c, 5, 8320
4, 140480, Pitch_bend_c, 5, 8192
4, 140640, Pitch_bend_c, 5, 8320
4, 140800, Pitch_bend_c, 5, 8192
4, 140960, Pitch_bend_c, 5, 8320
4, 141120, Pitch_bend_c, 5, 8192
4, 141280, Pitch_bend_c, 5, 8320
4, 141440, Pitch_bend_c, 5, 8192
4, 141600, Pitch_bend_c, 5, 8320
4, 141600, Pitch_bend_c, 5, 8192
4, 141600, Note_off_c, 5, 64, 95
4, 141600, Pitch_bend_c, 5, 8192
4, 141600, Note_on_c, 5, 67, 95
4, 141744, Pitch_bend_c, 5, 8320
4, 141888, Pitch_bend_c, 5, 8448
4, 142032, Pitch_bend_c, 5, 8576
4, 142176, Pitch_bend_c, 5, 8704
4, 142320, Pitch_bend_c, 5, 8832
4, 142320, Pitch_bend_c, 5, 8832
4, 143040, Pitch_bend_c, 5, 8832
4, 143040, Pitch_bend_c, 5, 8192
4, 143040, Note_off_c, 5, 67, 95
4, 143040, Note_on_c, 4, 64, 95
4, 143280, Note_off_c, 4, 64, 95
4, 143280, Note_on_c, 4, 62, 95
4, 143520, Note_off_c, 4, 62, 95
4, 143520, Note_on_c, 4, 64, 95
4, 144000, Note_off_c, 4, 64, 95
4, 144000, Note_on_c, 4, 62, 95
4, 144240, Note_off_c, 4, 62, 95
4, 144240, Note_on_c, 5, 64, 95
4, 144400, Pitch_bend_c, 5, 8192
4, 144560, Pitch_bend_c, 5, 8320
4, 144720, Pitch_bend_c, 5, 8192
4, 144880, Pitch_bend_c, 5, 8320
4, 144960, Pitch_bend_c, 5, 8192
4, 144960, Pitch_bend_c, 5, 8320
4, 144960, Pitch_bend_c, 5, 8192
4, 144960, Note_off_c, 5, 64, 95
4, 144960, Note_on_c, 4, 64, 95
4, 145440, Note_off_c, 4, 64, 95
4, 145440, Note_on_c, 4, 62, 95
4, 145920, Note_off_c, 4, 62, 95
4, 145920, Note_on_c, 4, 64, 95
4, 146400, Note_off_c, 4, 64, 95
4, 146400, Note_on_c, 4, 64, 95
4, 146880, Note_off_c, 4, 64, 95
4, 146880, Note_on_c, 4, 67, 95
4, 147360, Note_off_c, 4, 67, 95
4, 147360, Pitch_bend_c, 5, 8192
4, 147360, Note_on_c, 5, 67, 95
4, 147456, Pitch_bend_c, 5, 8320
4, 147552, Pitch_bend_c, 5, 8448
4, 147648, Pitch_bend_c, 5, 8576
4, 147744, Pitch_bend_c, 5, 8704
4, 147840, Pitch_bend_c, 5, 8832
4, 147840, Pitch_bend_c, 5, 8832
4, 148320, Pitch_bend_c, 5, 8832
4, 148320, Pitch_bend_c, 5, 8192
4, 148320, Note_off_c, 5, 67, 95
4, 148320, Note_on_c, 5, 64, 95
4, 148480, Pitch_bend_c, 5, 8192
4, 148640, Pitch_bend_c, 5, 8320
4, 148800, Pitch_bend_c, 5, 8192
4, 148960, Pitch_bend_c, 5, 8320
4, 149120, Pitch_bend_c, 5, 8192
4, 149280, Pitch_bend_c, 5, 8320
4, 149440, Pitch_bend_c, 5, 8192
4, 149600, Pitch_bend_c, 5, 8320
4, 149760, Pitch_bend_c, 5, 8192
4, 149760, Pitch_bend_c, 5, 8320
4, 149760, Pitch_bend_c, 5, 8192
4, 149760, Note_off_c, 5, 64, 95
4, 152640, Note_on_c, 4, 71, 95
4, 152640, Pitch_bend_c, 5, 8192
4, 152640, Note_on_c, 5, 69, 95
4, 152683, Pitch_bend_c, 5, 8320
4, 152726, Pitch_bend_c, 5, 8448
4, 152769, Pitch_bend_c, 5, 8576
4, 152812, Pitch_bend_c, 5, 8704
4, 152855, Pitch_bend_c, 5, 8832
4, 152898, Pitch_bend_c, 5, 8960
4, 152941, Pitch_bend_c, 5, 9088
4, 152984, Pitch_bend_c, 5, 9216
4, 153027, Pitch_bend_c, 5, 9344
4, 153070, Pitch_bend_c, 5, 9472
4, 153113, Pitch_bend_c, 5, 9600
4, 153120, Pitch_bend_c, 5, 9600
4, 153600, Note_off_c, 4, 71, 95
4, 153600, Pitch_bend_c, 5, 9600
4, 153600, Pitch_bend_c, 5, 8192
4, 153600, Note_off_c, 5, 69, 95
4, 153600, Note_on_c, 4, 71, 95
4, 153600, Pitch_bend_c, 5, 8192
4, 153600, Note_on_c, 5, 69, 95
4, 153643, Pitch_bend_c, 5, 8320
4, 153686, Pitch_bend_c, 5, 8448
4, 153729, Pitch_bend_c, 5, 8576
4, 153772, Pitch_bend_c, 5, 8704
4, 153815, Pitch_bend_c, 5, 8832
4, 153858, Pitch_bend_c, 5, 8960
4, 153901, Pitch_bend_c, 5, 9088
4, 153944, Pitch_bend_c, 5, 9216
4, 153987, Pitch_bend_c, 5, 9344
4, 154030, Pitch_bend_c, 5, 9472
4, 154073, Pitch_bend_c, 5, 9600
4, 154080, Pitch_bend_c, 5, 9600
4, 154560, Note_off_c, 4, 71, 95
4, 154560, Pitch_bend_c, 5, 9600
4, 154560, Pitch_bend_c, 5, 8192
4, 154560, Note_off_c, 5, 69, 95
4, 154560, Note_on_c, 4, 71, 95
4, 154560, Pitch_bend_c, 5, 8192
4, 154560, Note_on_c, 5, 69, 95
4, 154669, Pitch_bend_c, 5, 8320
4, 154778, Pitch_bend_c, 5, 8448
4, 154887, Pitch_bend_c, 5, 8576
4, 154996, Pitch_bend_c, 5, 8704
4, 155105, Pitch_bend_c, 5, 8832
4, 155214, Pitch_bend_c, 5, 8960
4, 155323, Pitch_bend_c, 5, 9088
4, 155432, Pitch_bend_c, 5, 9216
4, 155541, Pitch_bend_c, 5, 9344
4, 155650, Pitch_bend_c, 5, 9472
4, 155759, Pitch_bend_c, 5, 9600
4, 155760, Pitch_bend_c, 5, 9600
4, 156960, Note_off_c, 4, 71, 95
4, 156960, Pitch_bend_c, 5, 9600
4, 156960, Pitch_bend_c, 5, 8192
4, 156960, Note_off_c, 5, 69, 95
4, 156960, Note_on_c, 4, 71, 95
4, 156960, Pitch_bend_c, 5, 8192
4, 156960, Note_on_c, 5, 69, 95
4, 157025, Pitch_bend_c, 5, 8320
4, 157090, Pitch_bend_c, 5, 8448
4, 157155, Pitch_bend_c, 5, 8576
4, 157220, Pitch_bend_c, 5, 8704
4, 157285, Pitch_bend_c, 5, 8832
4, 157350, Pitch_bend_c, 5, 8960
4, 157415, Pitch_bend_c, 5, 9088
4, 157480, Pitch_bend_c, 5, 9216
4, 157545, Pitch_bend_c, 5, 9344
4, 157610, Pitch_bend_c, 5, 9472
4, 157675, Pitch_bend_c, 5, 9600
4, 157680, Pitch_bend_c, 5, 9600
4, 158400, Note_off_c, 4, 71, 95
4, 158400, Pitch_bend_c, 5, 9600
4, 158400, Pitch_bend_c, 5, 8192
4, 158400, Note_off_c, 5, 69, 95
4, 158400, Note_on_c, 4, 71, 95
4, 158400, Pitch_bend_c, 5, 8192
4, 158400, Note_on_c, 5, 69, 95
4, 158421, Pitch_bend_c, 5, 8320
4, 158442, Pitch_bend_c, 5, 8448
4, 158463, Pitch_bend_c, 5, 8576
4, 158484, Pitch_bend_c, 5, 8704
4, 158505, Pitch_bend_c, 5, 8832
4, 158526, Pitch_bend_c, 5, 8960
4, 158547, Pitch_bend_c, 5, 9088
4, 158568, Pitch_bend_c, 5, 9216
4, 158589, Pitch_bend_c, 5, 9344
4, 158610, Pitch_bend_c, 5, 9472
4, 158631, Pitch_bend_c, 5, 9600
4, 158640, Pitch_bend_c, 5, 9600
4, 158880, Pitch_bend_c, 5, 9600
4, 158901, Pitch_bend_c, 5, 9472
4, 158922, Pitch_bend_c, 5, 9344
4, 158943, Pitch_bend_c, 5, 9216
4, 158964, Pitch_bend_c, 5, 9088
4, 158985, Pitch_bend_c, 5, 8960
4, 159006, Pitch_bend_c, 5, 8832
4, 159027, Pitch_bend_c, 5, 8704
4, 159048, Pitch_bend_c, 5, 8576
4, 159069, Pitch_bend_c, 5, 8448
4, 159090, Pitch_bend_c, 5, 8320
4, 159111, Pitch_bend_c, 5, 8192
4, 159120, Pitch_bend_c, 5, 8192
4, 159360, Note_off_c, 4, 71, 95
4, 159360, Pitch_bend_c, 5, 8192
4, 159360, Pitch_bend_c, 5, 8192
4, 159360, Note_off_c, 5, 69, 95
4, 159360, Note_on_c, 4, 71, 95
4, 159360, Note_on_c, 4, 69, 95
4, 160320, Note_off_c, 4, 71, 95
4, 160320, Note_off_c, 4, 69, 95
4, 160320, Note_on_c, 4, 71, 95
4, 160320, Note_on_c, 4, 69, 95
4, 161040, Note_off_c, 4, 71, 95
4, 161040, Note_off_c, 4, 69, 95
4, 161040, Note_on_c, 4, 71, 95
4, 161280, Note_off_c, 4, 71, 95
4, 161280, Pitch_bend_c, 5, 8192
4, 161280, Note_on_c, 5, 69, 95
4, 161301, Pitch_bend_c, 5, 8320
4, 161322, Pitch_bend_c, 5, 8448
4, 161343, Pitch_bend_c, 5, 8576
4, 161364, Pitch_bend_c, 5, 8704
4, 161385, Pitch_bend_c, 5, 8832
4, 161406, Pitch_bend_c, 5, 8960
4, 161427, Pitch_bend_c, 5, 9088
4, 161448, Pitch_bend_c, 5, 9216
4, 161469, Pitch_bend_c, 5, 9344
4, 161490, Pitch_bend_c, 5, 9472
4, 161511, Pitch_bend_c, 5, 9600
4, 161520, Pitch_bend_c, 5, 9600
4, 161760, Pitch_bend_c, 5, 9600
4, 161760, Pitch_bend_c, 5, 8192
4, 161760, Note_off_c, 5, 69, 95
4, 161760, Note_on_c, 4, 67, 95
4, 162240, Note_off_c, 4, 67, 95
4, 162240, Note_on_c, 4, 64, 95
4, 162720, Note_off_c, 4, 64, 95
4, 162720, Note_on_c, 4, 64, 95
4, 163200, Note_off_c, 4, 64, 95
4, 163200, Note_on_c, 4, 62, 95
4, 163440, Note_off_c, 4, 62, 95
4, 163440, Note_on_c, 4, 64, 95
4, 164160, Note_off_c, 4, 64, 95
4, 164160, Note_on_c, 4, 64, 95
4, 164640, Note_off_c, 4, 64, 95
4, 164640, Note_on_c, 4, 62, 95
4, 165120, Note_off_c, 4, 62, 95
4, 166080, Note_on_c, 4, 69, 95
4, 166320, Note_off_c, 4, 69, 95
4, 166320, Pitch_bend_c, 5, 8192
4, 166320, Note_on_c, 5, 69, 95
4, 166341, Pitch_bend_c, 5, 8320
4, 166362, Pitch_bend_c, 5, 8448
4, 166383, Pitch_bend_c, 5, 8576
4, 166404, Pitch_bend_c, 5, 8704
4, 166425, Pitch_bend_c, 5, 8832
4, 166446, Pitch_bend_c, 5, 8960
4, 166467, Pitch_bend_c, 5, 9088
4, 166488, Pitch_bend_c, 5, 9216
4, 166509, Pitch_bend_c, 5, 9344
4, 166530, Pitch_bend_c, 5, 9472
4, 166551, Pitch_bend_c, 5, 9600
4, 166560, Pitch_bend_c, 5, 9600
4, 166800, Pitch_bend_c, 5, 9600
4, 166800, Pitch_bend_c, 5, 8192
4, 166800, Note_off_c, 5, 69, 95
4, 166800, Note_on_c, 4, 76, 95
4, 167040, Note_off_c, 4, 76, 95
4, 167040, Note_on_c, 4, 74, 95
4, 167280, Note_off_c, 4, 74, 95
4, 167280, Note_on_c, 4, 71, 95
4, 167520, Note_off_c, 4, 71, 95
4, 167520, Pitch_bend_c, 5, 8192
4, 167520, Note_on_c, 5, 69, 95
4, 167530, Pitch_bend_c, 5, 8320
4, 167540, Pitch_bend_c, 5, 8448
4, 167550, Pitch_bend_c, 5, 8576
4, 167560, Pitch_bend_c, 5, 8704
4, 167570, Pitch_bend_c, 5, 8832
4, 167580, Pitch_bend_c, 5, 8960
4, 167590, Pitch_bend_c, 5, 9088
4, 167600, Pitch_bend_c, 5, 9216
4, 167610, Pitch_bend_c, 5, 9344
4, 167620, Pitch_bend_c, 5, 9472
4, 167630, Pitch_bend_c, 5, 9600
4, 167640, Pitch_bend_c, 5, 9600
4, 167760, Pitch_bend_c, 5, 9600
4, 167760, Pitch_bend_c, 5, 8192
4, 167760, Note_off_c, 5, 69, 95
4, 167760, Note_on_c, 4, 69, 95
4, 168000, Note_off_c, 4, 69, 95
4, 168000, Note_on_c, 4, 67, 95
4, 168480, Note_off_c, 4, 67, 95
4, 168480, Pitch_bend_c, 5, 8192
4, 168480, Note_on_c, 5, 69, 95
4, 168523, Pitch_bend_c, 5, 8320
4, 168566, Pitch_bend_c, 5, 8448
4, 168609, Pitch_bend_c, 5, 8576
4, 168652, Pitch_bend_c, 5, 8704
4, 168695, Pitch_bend_c, 5, 8832
4, 168738, Pitch_bend_c, 5, 8960
4, 168781, Pitch_bend_c, 5, 9088
4, 168824, Pitch_bend_c, 5, 9216
4, 168867, Pitch_bend_c, 5, 9344
4, 168910, Pitch_bend_c, 5, 9472
4, 168953, Pitch_bend_c, 5, 9600
4, 168960, Pitch_bend_c, 5, 9600
4, 169440, Pitch_bend_c, 5, 9600
4, 169440, Pitch_bend_c, 5, 8192
4, 169440, Note_off_c, 5, 69, 95
4, 169440, Pitch_bend_c, 5, 8192
4, 169440, Note_on_c, 5, 67, 95
4, 169488, Pitch_bend_c, 5, 8320
4, 169536, Pitch_bend_c, 5, 8448
4, 169584, Pitch_bend_c, 5, 8576
4, 169632, Pitch_bend_c, 5, 8704
4, 169680, Pitch_bend_c, 5, 8832
4, 169680, Pitch_bend_c, 5, 8832
4, 169920, Pitch_bend_c, 5, 8832
4, 169920, Pitch_bend_c, 5, 8192
4, 169920, Note_off_c, 5, 67, 95
4, 169920, Note_on_c, 4, 64, 95
4, 170400, Note_off_c, 4, 64, 95
4, 170400, Note_on_c, 4, 64, 95
4, 170880, Note_off_c, 4, 64, 95
4, 170880, Note_on_c, 4, 62, 95
4, 171840, Note_off_c, 4, 62, 95
4, 171840, Note_on_c, 4, 64, 95
4, 172080, Note_off_c, 4, 64, 95
4, 173520, Pitch_bend_c, 5, 8192
4, 173520, Note_on_c, 5, 69, 95
4, 173530, Pitch_bend_c, 5, 8320
4, 173540, Pitch_bend_c, 5, 8448
4, 173550, Pitch_bend_c, 5, 8576
4, 173560, Pitch_bend_c, 5, 8704
4, 173570, Pitch_bend_c, 5, 8832
4, 173580, Pitch_bend_c, 5, 8960
4, 173590, Pitch_bend_c, 5, 9088
4, 173600, Pitch_bend_c, 5, 9216
4, 173610, Pitch_bend_c, 5, 9344
4, 173620, Pitch_bend_c, 5, 9472
4, 173630, Pitch_bend_c, 5, 9600
4, 173640, Pitch_bend_c, 5, 9600
4, 173760, Pitch_bend_c, 5, 9600
4, 173760, Pitch_bend_c, 5, 8192
4, 173760, Note_off_c, 5, 69, 95
4, 173760, Note_on_c, 4, 71, 95
4, 174000, Note_off_c, 4, 71, 95
4, 174000, Note_on_c, 4, 76, 95
4, 174240, Note_off_c, 4, 76, 95
4, 174240, Note_on_c, 4, 76, 95
4, 174240, Note_on_c, 4, 74, 95
4, 174480, Note_off_c, 4, 76, 95
4, 174480, Note_off_c, 4, 74, 95
4, 174480, Note_on_c, 4, 71, 95
4, 174720, Note_off_c, 4, 71, 95
4, 174720, Pitch_bend_c, 5, 8192
4, 174720, Note_on_c, 5, 69, 95
4, 174730, Pitch_bend_c, 5, 8320
4, 174740, Pitch_bend_c, 5, 8448
4, 174750, Pitch_bend_c, 5, 8576
4, 174760, Pitch_bend_c, 5, 8704
4, 174770, Pitch_bend_c, 5, 8832
4, 174780, Pitch_bend_c, 5, 8960
4, 174790, Pitch_bend_c, 5, 9088
4, 174800, Pitch_bend_c, 5, 9216
4, 174810, Pitch_bend_c, 5, 9344
4, 174820, Pitch_bend_c, 5, 9472
4, 174830, Pitch_bend_c, 5, 9600
4, 174840, Pitch_bend_c, 5, 9600
4, 174960, Pitch_bend_c, 5, 9600
4, 174960, Pitch_bend_c, 5, 8192
4, 174960, Note_off_c, 5, 69, 95
4, 174960, Note_on_c, 4, 69, 95
4, 175200, Note_off_c, 4, 69, 95
4, 175200, Note_on_c, 4, 67, 95
4, 175440, Note_off_c, 4, 67, 95
4, 175440, Note_on_c, 4, 64, 95
4, 175680, Note_off_c, 4, 64, 95
4, 175680, Pitch_bend_c, 5, 8192
4, 175680, Note_on_c, 5, 69, 95
4, 175701, Pitch_bend_c, 5, 8320
4, 175722, Pitch_bend_c, 5, 8448
4, 175743, Pitch_bend_c, 5, 8576
4, 175764, Pitch_bend_c, 5, 8704
4, 175785, Pitch_bend_c, 5, 8832
4, 175806, Pitch_bend_c, 5, 8960
4, 175827, Pitch_bend_c, 5, 9088
4, 175848, Pitch_bend_c, 5, 9216
4, 175869, Pitch_bend_c, 5, 9344
4, 175890, Pitch_bend_c, 5, 9472
4, 175911, Pitch_bend_c, 5, 9600
4, 175920, Pitch_bend_c, 5, 9600
4, 176160, Pitch_bend_c, 5, 9600
4, 176160, Pitch_bend_c, 5, 8192
4, 176160, Note_off_c, 5, 69, 95
4, 176160, Note_on_c, 4, 71, 95
4, 176640, Note_off_c, 4, 71, 95
4, 176640, Note_on_c, 4, 74, 95
4, 177120, Note_off_c, 4, 74, 95
4, 177120, Note_on_c, 4, 74, 95
4, 177600, Note_off_c, 4, 74, 95
4, 177600, Note_on_c, 4, 74, 95
4, 177600, Pitch_bend_c, 5, 8192
4, 177600, Note_on_c, 5, 69, 95
4, 177621, Pitch_bend_c, 5, 8320
4, 177642, Pitch_bend_c, 5, 8448
4, 177663, Pitch_bend_c, 5, 8576
4, 177684, Pitch_bend_c, 5, 8704
4, 177705, Pitch_bend_c, 5, 8832
4, 177726, Pitch_bend_c, 5, 8960
4, 177747, Pitch_bend_c, 5, 9088
4, 177768, Pitch_bend_c, 5, 9216
4, 177789, Pitch_bend_c, 5, 9344
4, 177810, Pitch_bend_c, 5, 9472
4, 177831, Pitch_bend_c, 5, 9600
4, 177840, Pitch_bend_c, 5, 9600
4, 178080, Note_off_c, 4, 74, 95
4, 178080, Pitch_bend_c, 5, 9600
4, 178080, Pitch_bend_c, 5, 8192
4, 178080, Note_off_c, 5, 69, 95
4, 178080, Note_on_c, 4, 74, 95
4, 178080, Pitch_bend_c, 5, 8192
4, 178080, Note_on_c, 5, 69, 95
4, 178128, Pitch_bend_c, 5, 8320
4, 178176, Pitch_bend_c, 5, 8448
4, 178224, Pitch_bend_c, 5, 8576
4, 178272, Pitch_bend_c, 5, 8704
4, 178320, Pitch_bend_c, 5, 8832
4, 178320, Pitch_bend_c, 5, 8832
4, 178560, Note_off_c, 4, 74, 95
4, 178560, Pitch_bend_c, 5, 8832
4, 178560, Pitch_bend_c, 5, 8192
4, 178560, Note_off_c, 5, 69, 95
4, 178560, Note_on_c, 4, 74, 95
4, 178560, Note_on_c, 4, 69, 95
4, 179040, Note_off_c, 4, 74, 95
4, 179040, Note_off_c, 4, 69, 95
4, 179040, Note_on_c, 4, 71, 95
4, 179040, Note_on_c, 4, 67, 95
4, 179520, Note_off_c, 4, 71, 95
4, 179520, Note_off_c, 4, 67, 95
4, 179520, Note_on_c, 4, 64, 95
4, 180480, Note_off_c, 4, 64, 95
4, 180960, Note_on_c, 4, 76, 95
4, 181200, Note_off_c, 4, 76, 95
4, 181200, Note_on_c, 4, 74, 95
4, 181680, Note_off_c, 4, 74, 95
4, 181680, Note_on_c, 4, 74, 95
4, 181680, Pitch_bend_c, 5, 8192
4, 181680, Note_on_c, 5, 69, 95
4, 181701, Pitch_bend_c, 5, 8320
4, 181722, Pitch_bend_c, 5, 8448
4, 181743, Pitch_bend_c, 5, 8576
4, 181764, Pitch_bend_c, 5, 8704
4, 181785, Pitch_bend_c, 5, 8832
4, 181806, Pitch_bend_c, 5, 8960
4, 181827, Pitch_bend_c, 5, 9088
4, 181848, Pitch_bend_c, 5, 9216
4, 181869, Pitch_bend_c, 5, 9344
4, 181890, Pitch_bend_c, 5, 9472
4, 181911, Pitch_bend_c, 5, 9600
4, 181920, Pitch_bend_c, 5, 9600
4, 182160, Note_off_c, 4, 74, 95
4, 182160, Pitch_bend_c, 5, 9600
4, 182160, Pitch_bend_c, 5, 8192
4, 182160, Note_off_c, 5, 69, 95
4, 182160, Note_on_c, 4, 74, 95
4, 182160, Pitch_bend_c, 5, 8192
4, 182160, Note_on_c, 5, 69, 95
4, 182170, Pitch_bend_c, 5, 8320
4, 182180, Pitch_bend_c, 5, 8448
4, 182190, Pitch_bend_c, 5, 8576
4, 182200, Pitch_bend_c, 5, 8704
4, 182210, Pitch_bend_c, 5, 8832
4, 182220, Pitch_bend_c, 5, 8960
4, 182230, Pitch_bend_c, 5, 9088
4, 182240, Pitch_bend_c, 5, 9216
4, 182250, Pitch_bend_c, 5, 9344
4, 182260, Pitch_bend_c, 5, 9472
4, 182270, Pitch_bend_c, 5, 9600
4, 182280, Pitch_bend_c, 5, 9600
4, 182400, Pitch_bend_c, 5, 9600
4, 182410, Pitch_bend_c, 5, 9472
4, 182420, Pitch_bend_c, 5, 9344
4, 182430, Pitch_bend_c, 5, 9216
4, 182440, Pitch_bend_c, 5, 9088
4, 182450, Pitch_bend_c, 5, 8960
4, 182460, Pitch_bend_c, 5, 8832
4, 182470, Pitch_bend_c, 5, 8704
4, 182480, Pitch_bend_c, 5, 8576
4, 182490, Pitch_bend_c, 5, 8448
4, 182500, Pitch_bend_c, 5, 8320
4, 182510, Pitch_bend_c, 5, 8192
4, 182520, Pitch_bend_c, 5, 8192
4, 182640, Note_off_c, 4, 74, 95
4, 182640, Pitch_bend_c, 5, 8192
4, 182640, Pitch_bend_c, 5, 8192
4, 182640, Note_off_c, 5, 69, 95
4, 182640, Note_on_c, 4, 71, 95
4, 182640, Note_on_c, 4, 67, 95
4, 182880, Note_off_c, 4, 71, 95
4, 182880, Note_off_c, 4, 67, 95
4, 182880, Note_on_c, 4, 64, 95
4, 183360, Note_off_c, 4, 64, 95
4, 183360, Note_on_c, 4, 71, 95
4, 183360, Note_on_c, 4, 67, 95
4, 183840, Note_off_c, 4, 71, 95
4, 183840, Note_off_c, 4, 67, 95
4, 183840, Note_on_c, 4, 64, 95
4, 184080, Note_off_c, 4, 64, 95
4, 184080, Note_on_c, 4, 62, 70
4, 184320, Note_off_c, 4, 62, 70
4, 184320, Note_on_c, 5, 64, 95
4, 184480, Pitch_bend_c, 5, 8192
4, 184640, Pitch_bend_c, 5, 8320
4, 184800, Pitch_bend_c, 5, 8192
4, 184960, Pitch_bend_c, 5, 8320
4, 185120, Pitch_bend_c, 5, 8192
4, 185280, Pitch_bend_c, 5, 8320
4, 185280, Pitch_bend_c, 5, 8192
4, 185280, Note_off_c, 5, 64, 95
4, 185280, Note_on_c, 4, 67, 95
4, 185280, Note_on_c, 4, 62, 95
4, 185520, Note_off_c, 4, 67, 95
4, 185520, Note_off_c, 4, 62, 95
4, 185520, Note_on_c, 4, 67, 95
4, 185520, Note_on_c, 4, 64, 95
4, 186000, Note_off_c, 4, 67, 95
4, 186000, Note_off_c, 4, 64, 95
4, 186000, Note_on_c, 4, 71, 95
4, 186000, Note_on_c, 4, 67, 95
4, 186480, Note_off_c, 4, 71, 95
4, 186480, Note_off_c, 4, 67, 95
4, 186720, Note_on_c, 4, 71, 95
4, 186720, Note_on_c, 4, 67, 95
4, 187200, Note_off_c, 4, 71, 95
4, 187200, Note_off_c, 4, 67, 95
4, 187200, Note_on_c, 4, 64, 95
4, 188160, Note_off_c, 4, 64, 95
4, 188160, Note_on_c, 4, 57, 95
4, 188400, Note_off_c, 4, 57, 95
4, 188400, Note_on_c, 4, 59, 95
4, 188880, Note_off_c, 4, 59, 95
4, 188880, Note_on_c, 4, 67, 95
4, 188880, Note_on_c, 4, 62, 95
4, 189360, Note_off_c, 4, 67, 95
4, 189360, Note_off_c, 4, 62, 95
4, 189360, Note_on_c, 4, 59, 95
4, 189600, Note_off_c, 4, 59, 95
4, 189600, Note_on_c, 4, 67, 95
4, 189600, Note_on_c, 4, 62, 95
4, 190080, Note_off_c, 4, 67, 95
4, 190080, Note_off_c, 4, 62, 95
4, 190080, Note_on_c, 4, 67, 95
4, 190080, Note_on_c, 4, 62, 95
4, 190320, Note_off_c, 4, 67, 95
4, 190320, Note_off_c, 4, 62, 95
4, 190320, Note_on_c, 4, 59, 95
4, 190560, Note_off_c, 4, 59, 95
4, 190560, Note_on_c, 4, 67, 95
4, 190560, Note_on_c, 4, 62, 95
4, 191040, Note_off_c, 4, 67, 95
4, 191040, Note_off_c, 4, 62, 95
4, 191040, Note_on_c, 4, 67, 95
4, 191040, Note_on_c, 4, 64, 95
4, 191280, Note_off_c, 4, 67, 95
4, 191280, Note_off_c, 4, 64, 95
4, 191280, Note_on_c, 4, 62, 70
4, 191520, Note_off_c, 4, 62, 70
4, 191520, Note_on_c, 4, 64, 95
4, 192000, Note_off_c, 4, 64, 95
4, 192000, Note_on_c, 4, 64, 95
4, 192480, Note_off_c, 4, 64, 95
4, 192480, Note_on_c, 4, 64, 95
4, 192960, Note_off_c, 4, 64, 95
4, 192960, Note_on_c, 4, 71, 95
4, 192960, Note_on_c, 4, 67, 95
4, 193440, Note_off_c, 4, 71, 95
4, 193440, Note_off_c, 4, 67, 95
4, 193440, Pitch_bend_c, 5, 8192
4, 193440, Note_on_c, 5, 73, 95
4, 193440, Pitch_bend_c, 5, 8192
4, 193440, Note_on_c, 5, 69, 95
4, 193488, Pitch_bend_c, 5, 8320
4, 193488, Pitch_bend_c, 5, 8320
4, 193536, Pitch_bend_c, 5, 8448
4, 193536, Pitch_bend_c, 5, 8448
4, 193584, Pitch_bend_c, 5, 8576
4, 193584, Pitch_bend_c, 5, 8576
4, 193632, Pitch_bend_c, 5, 8704
4, 193632, Pitch_bend_c, 5, 8704
4, 193680, Pitch_bend_c, 5, 8832
4, 193680, Pitch_bend_c, 5, 8832
4, 193680, Pitch_bend_c, 5, 8832
4, 193680, Pitch_bend_c, 5, 8832
4, 193920, Pitch_bend_c, 5, 8832
4, 193920, Pitch_bend_c, 5, 8192
4, 193920, Note_off_c, 5, 73, 95
4, 193920, Pitch_bend_c, 5, 8832
4, 193920, Pitch_bend_c, 5, 8192
4, 193920, Note_off_c, 5, 69, 95
4, 193920, Note_on_c, 4, 73, 95
4, 193920, Note_on_c, 4, 69, 95
4, 194400, Note_off_c, 4, 73, 95
4, 194400, Note_off_c, 4, 69, 95
4, 194400, Note_on_c, 4, 71, 95
4, 194400, Note_on_c, 4, 67, 95
4, 194880, Note_off_c, 4, 71, 95
4, 194880, Note_off_c, 4, 67, 95
4, 194880, Note_on_c, 5, 64, 95
4, 195040, Pitch_bend_c, 5, 8192
4, 195200, Pitch_bend_c, 5, 8320
4, 195360, Pitch_bend_c, 5, 8192
4, 195520, Pitch_bend_c, 5, 8320
4, 195680, Pitch_bend_c, 5, 8192
4, 195840, Pitch_bend_c, 5, 8320
4, 196000, Pitch_bend_c, 5, 8192
4, 196160, Pitch_bend_c, 5, 8320
4, 196320, Pitch_bend_c, 5, 8192
4, 196320, Pitch_bend_c, 5, 8320
4, 196320, Pitch_bend_c, 5, 8192
4, 196320, Note_off_c, 5, 64, 95
4, 196320, Note_on_c, 4, 76, 95
4, 196560, Note_off_c, 4, 76, 95
4, 196560, Pitch_bend_c, 5, 8192
4, 196560, Note_on_c, 5, 74, 95
4, 196581, Pitch_bend_c, 5, 8320
4, 196602, Pitch_bend_c, 5, 8448
4, 196623, Pitch_bend_c, 5, 8576
4, 196644, Pitch_bend_c, 5, 8704
4, 196665, Pitch_bend_c, 5, 8832
4, 196686, Pitch_bend_c, 5, 8960
4, 196707, Pitch_bend_c, 5, 9088
4, 196728, Pitch_bend_c, 5, 9216
4, 196749, Pitch_bend_c, 5, 9344
4, 196770, Pitch_bend_c, 5, 9472
4, 196791, Pitch_bend_c, 5, 9600
4, 196800, Pitch_bend_c, 5, 9600
4, 197040, Pitch_bend_c, 5, 9600
4, 197040, Pitch_bend_c, 5, 8192
4, 197040, Note_off_c, 5, 74, 95
4, 197040, Note_on_c, 4, 76, 95
4, 197280, Note_off_c, 4, 76, 95
4, 197280, Pitch_bend_c, 5, 8192
4, 197280, Note_on_c, 5, 74, 95
4, 197301, Pitch_bend_c, 5, 8320
4, 197322, Pitch_bend_c, 5, 8448
4, 197343, Pitch_bend_c, 5, 8576
4, 197364, Pitch_bend_c, 5, 8704
4, 197385, Pitch_bend_c, 5, 8832
4, 197406, Pitch_bend_c, 5, 8960
4, 197427, Pitch_bend_c, 5, 9088
4, 197448, Pitch_bend_c, 5, 9216
4, 197469, Pitch_bend_c, 5, 9344
4, 197490, Pitch_bend_c, 5, 9472
4, 197511, Pitch_bend_c, 5, 9600
4, 197520, Pitch_bend_c, 5, 9600
4, 197760, Pitch_bend_c, 5, 9600
4, 197760, Pitch_bend_c, 5, 8192
4, 197760, Note_off_c, 5, 74, 95
4, 197760, Note_on_c, 4, 76, 95
4, 198000, Note_off_c, 4, 76, 95
4, 198000, Note_on_c, 4, 76, 95
4, 198000, Pitch_bend_c, 5, 8192
4, 198000, Note_on_c, 5, 74, 95
4, 198021, Pitch_bend_c, 5, 8320
4, 198042, Pitch_bend_c, 5, 8448
4, 198063, Pitch_bend_c, 5, 8576
4, 198084, Pitch_bend_c, 5, 8704
4, 198105, Pitch_bend_c, 5, 8832
4, 198126, Pitch_bend_c, 5, 8960
4, 198147, Pitch_bend_c, 5, 9088
4, 198168, Pitch_bend_c, 5, 9216
4, 198189, Pitch_bend_c, 5, 9344
4, 198210, Pitch_bend_c, 5, 9472
4, 198231, Pitch_bend_c, 5, 9600
4, 198240, Pitch_bend_c, 5, 9600
4, 198480, Note_off_c, 4, 76, 95
4, 198480, Pitch_bend_c, 5, 9600
4, 198480, Pitch_bend_c, 5, 8192
4, 198480, Note_off_c, 5, 74, 95
4, 198480, Note_on_c, 4, 76, 95
4, 198720, Note_off_c, 4, 76, 95
4, 198720, Note_on_c, 4, 76, 95
4, 198720, Pitch_bend_c, 5, 8192
4, 198720, Note_on_c, 5, 74, 95
4, 198741, Pitch_bend_c, 5, 8320
4, 198762, Pitch_bend_c, 5, 8448
4, 198783, Pitch_bend_c, 5, 8576
4, 198804, Pitch_bend_c, 5, 8704
4, 198825, Pitch_bend_c, 5, 8832
4, 198846, Pitch_bend_c, 5, 8960
4, 198867, Pitch_bend_c, 5, 9088
4, 198888, Pitch_bend_c, 5, 9216
4, 198909, Pitch_bend_c, 5, 9344
4, 198930, Pitch_bend_c, 5, 9472
4, 198951, Pitch_bend_c, 5, 9600
4, 198960, Pitch_bend_c, 5, 9600
4, 199200, Note_off_c, 4, 76, 95
4, 199200, Pitch_bend_c, 5, 9600
4, 199200, Pitch_bend_c, 5, 8192
4, 199200, Note_off_c, 5, 74, 95
4, 199200, Note_on_c, 4, 76, 95
4, 199680, Note_off_c, 4, 76, 95
4, 199680, Note_on_c, 4, 76, 95
4, 199680, Pitch_bend_c, 5, 8192
4, 199680, Note_on_c, 5, 74, 95
4, 199701, Pitch_bend_c, 5, 8320
4, 199722, Pitch_bend_c, 5, 8448
4, 199743, Pitch_bend_c, 5, 8576
4, 199764, Pitch_bend_c, 5, 8704
4, 199785, Pitch_bend_c, 5, 8832
4, 199806, Pitch_bend_c, 5, 8960
4, 199827, Pitch_bend_c, 5, 9088
4, 199848, Pitch_bend_c, 5, 9216
4, 199869, Pitch_bend_c, 5, 9344
4, 199890, Pitch_bend_c, 5, 9472
4, 199911, Pitch_bend_c, 5, 9600
4, 199920, Pitch_bend_c, 5, 9600
4, 200160, Note_off_c, 4, 76, 95
4, 200160, Pitch_bend_c, 5, 9600
4, 200160, Pitch_bend_c, 5, 8192
4, 200160, Note_off_c, 5, 74, 95
4, 200160, Note_on_c, 4, 76, 95
4, 200160, Pitch_bend_c, 5, 8192
4, 200160, Note_on_c, 5, 74, 95
4, 200181, Pitch_bend_c, 5, 8320
4, 200202, Pitch_bend_c, 5, 8448
4, 200223, Pitch_bend_c, 5, 8576
4, 200244, Pitch_bend_c, 5, 8704
4, 200265, Pitch_bend_c, 5, 8832
4, 200286, Pitch_bend_c, 5, 8960
4, 200307, Pitch_bend_c, 5, 9088
4, 200328, Pitch_bend_c, 5, 9216
4, 200349, Pitch_bend_c, 5, 9344
4, 200370, Pitch_bend_c, 5, 9472
4, 200391, Pitch_bend_c, 5, 9600
4, 200400, Pitch_bend_c, 5, 9600
4, 200640, Note_off_c, 4, 76, 95
4, 200640, Pitch_bend_c, 5, 9600
4, 200640, Pitch_bend_c, 5, 8192
4, 200640, Note_off_c, 5, 74, 95
4, 200640, Note_on_c, 5, 76, 95
4, 200800, Pitch_bend_c, 5, 8192
4, 200960, Pitch_bend_c, 5, 8320
4, 201120, Pitch_bend_c, 5, 8192
4, 201120, Pitch_bend_c, 5, 8320
4, 201120, Pitch_bend_c, 5, 8192
4, 201120, Note_off_c, 5, 76, 95
4, 201120, Pitch_bend_c, 5, 8192
4, 201120, Note_on_c, 5, 74, 95
4, 201141, Pitch_bend_c, 5, 8320
4, 201162, Pitch_bend_c, 5, 8448
4, 201183, Pitch_bend_c, 5, 8576
4, 201204, Pitch_bend_c, 5, 8704
4, 201225, Pitch_bend_c, 5, 8832
4, 201246, Pitch_bend_c, 5, 8960
4, 201267, Pitch_bend_c, 5, 9088
4, 201288, Pitch_bend_c, 5, 9216
4, 201309, Pitch_bend_c, 5, 9344
4, 201330, Pitch_bend_c, 5, 9472
4, 201351, Pitch_bend_c, 5, 9600
4, 201360, Pitch_bend_c, 5, 9600
4, 201600, Pitch_bend_c, 5, 9600
4, 201600, Pitch_bend_c, 5, 8192
4, 201600, Note_off_c, 5, 74, 95
4, 201600, Pitch_bend_c, 5, 8192
4, 201600, Note_on_c, 5, 74, 95
4, 201621, Pitch_bend_c, 5, 8320
4, 201642, Pitch_bend_c, 5, 8448
4, 201663, Pitch_bend_c, 5, 8576
4, 201684, Pitch_bend_c, 5, 8704
4, 201705, Pitch_bend_c, 5, 8832
4, 201726, Pitch_bend_c, 5, 8960
4, 201747, Pitch_bend_c, 5, 9088
4, 201768, Pitch_bend_c, 5, 9216
4, 201789, Pitch_bend_c, 5, 9344
4, 201810, Pitch_bend_c, 5, 9472
4, 201831, Pitch_bend_c, 5, 9600
4, 201840, Pitch_bend_c, 5, 9600
4, 202080, Pitch_bend_c, 5, 9600
4, 202080, Pitch_bend_c, 5, 8192
4, 202080, Note_off_c, 5, 74, 95
4, 202080, Note_on_c, 4, 76, 95
4, 202800, Note_off_c, 4, 76, 95
4, 202800, Note_on_c, 4, 76, 95
4, 203040, Note_off_c, 4, 76, 95
4, 203040, Note_on_c, 4, 74, 95
4, 203280, Note_off_c, 4, 74, 95
4, 203280, Note_on_c, 4, 71, 95
4, 203520, Note_off_c, 4, 71, 95
4, 203520, Pitch_bend_c, 5, 8192
4, 203520, Note_on_c, 5, 69, 95
4, 203530, Pitch_bend_c, 5, 8320
4, 203540, Pitch_bend_c, 5, 8448
4, 203550, Pitch_bend_c, 5, 8576
4, 203560, Pitch_bend_c, 5, 8704
4, 203570, Pitch_bend_c, 5, 8832
4, 203580, Pitch_bend_c, 5, 8960
4, 203590, Pitch_bend_c, 5, 9088
4, 203600, Pitch_bend_c, 5, 9216
4, 203610, Pitch_bend_c, 5, 9344
4, 203620, Pitch_bend_c, 5, 9472
4, 203630, Pitch_bend_c, 5, 9600
4, 203640, Pitch_bend_c, 5, 9600
4, 203760, Pitch_bend_c, 5, 9600
4, 203760, Pitch_bend_c, 5, 8192
4, 203760, Note_off_c, 5, 69, 95
4, 203760, Note_on_c, 4, 69, 95
4, 204000, Note_off_c, 4, 69, 95
4, 204000, Note_on_c, 4, 67, 95
4, 204240, Note_off_c, 4, 67, 95
4, 204240, Note_on_c, 4, 64, 95
4, 204480, Note_off_c, 4, 64, 95
4, 204480, Note_on_c, 4, 67, 95
4, 204720, Note_off_c, 4, 67, 95
4, 204720, Note_on_c, 4, 69, 95
4, 204960, Note_off_c, 4, 69, 95
4, 204960, Pitch_bend_c, 5, 8192
4, 204960, Note_on_c, 5, 69, 95
4, 204970, Pitch_bend_c, 5, 8320
4, 204980, Pitch_bend_c, 5, 8448
4, 204990, Pitch_bend_c, 5, 8576
4, 205000, Pitch_bend_c, 5, 8704
4, 205010, Pitch_bend_c, 5, 8832
4, 205020, Pitch_bend_c, 5, 8960
4, 205030, Pitch_bend_c, 5, 9088
4, 205040, Pitch_bend_c, 5, 9216
4, 205050, Pitch_bend_c, 5, 9344
4, 205060, Pitch_bend_c, 5, 9472
4, 205070, Pitch_bend_c, 5, 9600
4, 205080, Pitch_bend_c, 5, 9600
4, 205200, Pitch_bend_c, 5, 9600
4, 205200, Pitch_bend_c, 5, 8192
4, 205200, Note_off_c, 5, 69, 95
4, 205200, Note_on_c, 4, 69, 95
4, 205440, Note_off_c, 4, 69, 95
4, 205680, Note_on_c, 4, 67, 95
4, 205920, Note_off_c, 4, 67, 95
4, 205920, Note_on_c, 4, 69, 95
4, 206160, Note_off_c, 4, 69, 95
4, 206160, Pitch_bend_c, 5, 8192
4, 206160, Note_on_c, 5, 69, 95
4, 206181, Pitch_bend_c, 5, 8320
4, 206202, Pitch_bend_c, 5, 8448
4, 206223, Pitch_bend_c, 5, 8576
4, 206244, Pitch_bend_c, 5, 8704
4, 206265, Pitch_bend_c, 5, 8832
4, 206286, Pitch_bend_c, 5, 8960
4, 206307, Pitch_bend_c, 5, 9088
4, 206328, Pitch_bend_c, 5, 9216
4, 206349, Pitch_bend_c, 5, 9344
4, 206370, Pitch_bend_c, 5, 9472
4, 206391, Pitch_bend_c, 5, 9600
4, 206400, Pitch_bend_c, 5, 9600
4, 206640, Pitch_bend_c, 5, 9600
4, 206640, Pitch_bend_c, 5, 8192
4, 206640, Note_off_c, 5, 69, 95
4, 206640, Note_on_c, 4, 67, 95
4, 206880, Note_off_c, 4, 67, 95
4, 206880, Note_on_c, 4, 64, 95
4, 207840, Note_off_c, 4, 64, 95
4, 211200, Note_on_c, 4, 62, 95
4, 211440, Note_off_c, 4, 62, 95
4, 211440, Note_on_c, 4, 64, 95
4, 211680, Note_off_c, 4, 64, 95
4, 211680, Note_on_c, 4, 67, 95
4, 211920, Note_off_c, 4, 67, 95
4, 211920, Note_on_c, 4, 64, 95
4, 212160, Note_off_c, 4, 64, 95
4, 212160, Pitch_bend_c, 5, 8192
4, 212160, Note_on_c, 5, 69, 95
4, 212170, Pitch_bend_c, 5, 8320
4, 212180, Pitch_bend_c, 5, 8448
4, 212190, Pitch_bend_c, 5, 8576
4, 212200, Pitch_bend_c, 5, 8704
4, 212210, Pitch_bend_c, 5, 8832
4, 212220, Pitch_bend_c, 5, 8960
4, 212230, Pitch_bend_c, 5, 9088
4, 212240, Pitch_bend_c, 5, 9216
4, 212250, Pitch_bend_c, 5, 9344
4, 212260, Pitch_bend_c, 5, 9472
4, 212270, Pitch_bend_c, 5, 9600
4, 212280, Pitch_bend_c, 5, 9600
4, 212400, Pitch_bend_c, 5, 9600
4, 212410, Pitch_bend_c, 5, 9472
4, 212420, Pitch_bend_c, 5, 9344
4, 212430, Pitch_bend_c, 5, 9216
4, 212440, Pitch_bend_c, 5, 9088
4, 212450, Pitch_bend_c, 5, 8960
4, 212460, Pitch_bend_c, 5, 8832
4, 212470, Pitch_bend_c, 5, 8704
4, 212480, Pitch_bend_c, 5, 8576
4, 212490, Pitch_bend_c, 5, 8448
4, 212500, Pitch_bend_c, 5, 8320
4, 212510, Pitch_bend_c, 5, 8192
4, 212520, Pitch_bend_c, 5, 8192
4, 212640, Pitch_bend_c, 5, 8192
4, 212640, Pitch_bend_c, 5, 8192
4, 212640, Note_off_c, 5, 69, 95
4, 212640, Note_on_c, 4, 67, 95
4, 212880, Note_off_c, 4, 67, 95
4, 212880, Note_on_c, 4, 64, 95
4, 213120, Note_off_c, 4, 64, 95
4, 213120, Note_on_c, 4, 69, 95
4, 213360, Note_off_c, 4, 69, 95
4, 213360, Note_on_c, 4, 67, 95
4, 213600, Note_off_c, 4, 67, 95
4, 213600, Note_on_c, 4, 64, 95
4, 214080, Note_off_c, 4, 64, 95
4, 214080, Note_on_c, 4, 67, 95
4, 214560, Note_off_c, 4, 67, 95
4, 214560, Note_on_c, 4, 64, 95
4, 214800, Note_off_c, 4, 64, 95
4, 215520, Pitch_bend_c, 5, 8192
4, 215520, Note_on_c, 5, 69, 95
4, 215568, Pitch_bend_c, 5, 8320
4, 215616, Pitch_bend_c, 5, 8448
4, 215664, Pitch_bend_c, 5, 8576
4, 215712, Pitch_bend_c, 5, 8704
4, 215760, Pitch_bend_c, 5, 8832
4, 215760, Pitch_bend_c, 5, 8832
4, 216000, Pitch_bend_c, 5, 8832
4, 216000, Pitch_bend_c, 5, 8192
4, 216000, Note_off_c, 5, 69, 95
4, 216000, Pitch_bend_c, 5, 8192
4, 216000, Note_on_c, 5, 69, 95
4, 216024, Pitch_bend_c, 5, 8320
4, 216048, Pitch_bend_c, 5, 8448
4, 216072, Pitch_bend_c, 5, 8576
4, 216096, Pitch_bend_c, 5, 8704
4, 216120, Pitch_bend_c, 5, 8832
4, 216120, Pitch_bend_c, 5, 8832
4, 216240, Pitch_bend_c, 5, 8832
4, 216240, Pitch_bend_c, 5, 8192
4, 216240, Note_off_c, 5, 69, 95
4, 216240, Note_on_c, 4, 71, 95
4, 216480, Note_off_c, 4, 71, 95
4, 216480, Note_on_c, 4, 76, 95
4, 216720, Note_off_c, 4, 76, 95
4, 216720, Note_on_c, 4, 74, 95
4, 216960, Note_off_c, 4, 74, 95
4, 216960, Note_on_c, 4, 71, 70
4, 217200, Note_off_c, 4, 71, 70
4, 217200, Pitch_bend_c, 5, 8192
4, 217200, Note_on_c, 5, 73, 95
4, 217224, Pitch_bend_c, 5, 8320
4, 217248, Pitch_bend_c, 5, 8448
4, 217272, Pitch_bend_c, 5, 8576
4, 217296, Pitch_bend_c, 5, 8704
4, 217320, Pitch_bend_c, 5, 8832
4, 217320, Pitch_bend_c, 5, 8832
4, 217440, Pitch_bend_c, 5, 8832
4, 217464, Pitch_bend_c, 5, 8704
4, 217488, Pitch_bend_c, 5, 8576
4, 217512, Pitch_bend_c, 5, 8448
4, 217536, Pitch_bend_c, 5, 8320
4, 217560, Pitch_bend_c, 5, 8192
4, 217560, Pitch_bend_c, 5, 8192
4, 217680, Pitch_bend_c, 5, 8192
4, 217680, Pitch_bend_c, 5, 8192
4, 217680, Note_off_c, 5, 73, 95
4, 217680, Note_on_c, 4, 71, 95
4, 217920, Note_off_c, 4, 71, 95
4, 217920, Note_on_c, 4, 73, 95
4, 218160, Note_off_c, 4, 73, 95
4, 218160, Note_on_c, 4, 71, 95
4, 218400, Note_off_c, 4, 71, 95
4, 218400, Note_on_c, 4, 69, 95
4, 218880, Note_off_c, 4, 69, 95
4, 219120, Note_on_c, 4, 62, 95
4, 219120, Note_on_c, 4, 57, 95
4, 219360, Note_off_c, 4, 62, 95
4, 219360, Note_off_c, 4, 57, 95
4, 219360, Note_on_c, 4, 59, 95
4, 219840, Note_off_c, 4, 59, 95
4, 219840, Note_on_c, 4, 62, 95
4, 220320, Note_off_c, 4, 62, 95
4, 220320, Note_on_c, 4, 64, 95
4, 220800, Note_off_c, 4, 64, 95
4, 220800, Note_on_c, 5, 67, 95
4, 220800, Note_on_c, 5, 62, 95
4, 221760, Note_off_c, 5, 67, 95
4, 221760, Note_off_c, 5, 62, 95
4, 221760, Note_on_c, 4, 55, 95
4, 222240, Note_off_c, 4, 55, 95
4, 222240, Note_on_c, 4, 57, 95
4, 222720, Note_off_c, 4, 57, 95
4, 292320, Note_on_c, 4, 64, 95
4, 292320, Note_on_c, 4, 61, 95
4, 292800, Note_off_c, 4, 64, 95
4, 292800, Note_off_c, 4, 61, 95
4, 292800, Note_on_c, 4, 62, 95
4, 293280, Note_off_c, 4, 62, 95
4, 293280, Note_on_c, 4, 61, 95
4, 293340, Note_off_c, 4, 61, 95
4, 293340, Note_on_c, 4, 64, 95
4, 293340, Note_on_c, 4, 62, 95
4, 293760, Note_off_c, 4, 64, 95
4, 293760, Note_off_c, 4, 62, 95
4, 293760, Note_on_c, 4, 64, 95
4, 294720, Note_off_c, 4, 64, 95
4, 294720, Note_on_c, 4, 62, 95
4, 295200, Note_off_c, 4, 62, 95
4, 295200, Note_on_c, 4, 64, 95
4, 296400, Note_off_c, 4, 64, 95
4, 296400, Note_on_c, 4, 62, 95
4, 296640, Note_off_c, 4, 62, 95
4, 296640, Note_on_c, 4, 62, 95
4, 297600, Note_off_c, 4, 62, 95
4, 298560, Note_on_c, 5, 62, 95
4, 299520, Note_off_c, 5, 62, 95
4, 301440, Note_on_c, 4, 74, 95
4, 301920, Note_off_c, 4, 74, 95
4, 301920, Note_on_c, 4, 74, 95
4, 302400, Note_off_c, 4, 74, 95
4, 302400, Note_on_c, 4, 71, 95
4, 302880, Note_off_c, 4, 71, 95
4, 302880, Note_on_c, 4, 74, 95
4, 303360, Note_off_c, 4, 74, 95
4, 303360, Note_on_c, 4, 71, 95
4, 304320, Note_off_c, 4, 71, 95
4, 304320, Note_on_c, 4, 69, 95
4, 304800, Note_off_c, 4, 69, 95
4, 304800, Note_on_c, 4, 67, 95
4, 305760, Note_off_c, 4, 67, 95
4, 305760, Note_on_c, 5, 64, 95
4, 306240, Note_off_c, 5, 64, 95
4, 308160, Note_on_c, 4, 64, 95
4, 308160, Pitch_bend_c, 5, 8192
4, 308160, Note_on_c, 5, 62, 95
4, 308203, Pitch_bend_c, 5, 8320
4, 308246, Pitch_bend_c, 5, 8448
4, 308289, Pitch_bend_c, 5, 8576
4, 308332, Pitch_bend_c, 5, 8704
4, 308375, Pitch_bend_c, 5, 8832
4, 308418, Pitch_bend_c, 5, 8960
4, 308461, Pitch_bend_c, 5, 9088
4, 308504, Pitch_bend_c, 5, 9216
4, 308547, Pitch_bend_c, 5, 9344
4, 308590, Pitch_bend_c, 5, 9472
4, 308633, Pitch_bend_c, 5, 9600
4, 308640, Pitch_bend_c, 5, 9600
4, 309120, Note_off_c, 4, 64, 95
4, 309120, Pitch_bend_c, 5, 9600
4, 309120, Pitch_bend_c, 5, 8192
4, 309120, Note_off_c, 5, 62, 95
4, 309120, Note_on_c, 4, 64, 95
4, 309120, Pitch_bend_c, 5, 8192
4, 309120, Note_on_c, 5, 62, 95
4, 309163, Pitch_bend_c, 5, 8320
4, 309206, Pitch_bend_c, 5, 8448
4, 309249, Pitch_bend_c, 5, 8576
4, 309292, Pitch_bend_c, 5, 8704
4, 309335, Pitch_bend_c, 5, 8832
4, 309378, Pitch_bend_c, 5, 8960
4, 309421, Pitch_bend_c, 5, 9088
4, 309464, Pitch_bend_c, 5, 9216
4, 309507, Pitch_bend_c, 5, 9344
4, 309550, Pitch_bend_c, 5, 9472
4, 309593, Pitch_bend_c, 5, 9600
4, 309600, Pitch_bend_c, 5, 9600
4, 310080, Note_off_c, 4, 64, 95
4, 310080, Pitch_bend_c, 5, 9600
4, 310080, Pitch_bend_c, 5, 8192
4, 310080, Note_off_c, 5, 62, 95
4, 310080, Note_on_c, 4, 64, 95
4, 310080, Pitch_bend_c, 5, 8192
4, 310080, Note_on_c, 5, 62, 95
4, 310167, Pitch_bend_c, 5, 8320
4, 310254, Pitch_bend_c, 5, 8448
4, 310341, Pitch_bend_c, 5, 8576
4, 310428, Pitch_bend_c, 5, 8704
4, 310515, Pitch_bend_c, 5, 8832
4, 310602, Pitch_bend_c, 5, 8960
4, 310689, Pitch_bend_c, 5, 9088
4, 310776, Pitch_bend_c, 5, 9216
4, 310863, Pitch_bend_c, 5, 9344
4, 310950, Pitch_bend_c, 5, 9472
4, 311037, Pitch_bend_c, 5, 9600
4, 311040, Pitch_bend_c, 5, 9600
4, 312000, Note_off_c, 4, 64, 95
4, 312000, Pitch_bend_c, 5, 9600
4, 312000, Pitch_bend_c, 5, 8192
4, 312000, Note_off_c, 5, 62, 95
4, 312000, Note_on_c, 4, 64, 95
4, 312000, Pitch_bend_c, 5, 8192
4, 312000, Note_on_c, 5, 62, 95
4, 312038, Pitch_bend_c, 5, 8320
4, 312076, Pitch_bend_c, 5, 8448
4, 312114, Pitch_bend_c, 5, 8576
4, 312152, Pitch_bend_c, 5, 8704
4, 312190, Pitch_bend_c, 5, 8832
4, 312228, Pitch_bend_c, 5, 8960
4, 312266, Pitch_bend_c, 5, 9088
4, 312304, Pitch_bend_c, 5, 9216
4, 312342, Pitch_bend_c, 5, 9344
4, 312380, Pitch_bend_c, 5, 9472
4, 312418, Pitch_bend_c, 5, 9600
4, 312420, Pitch_bend_c, 5, 9600
4, 312840, Pitch_bend_c, 5, 9600
4, 312878, Pitch_bend_c, 5, 9472
4, 312916, Pitch_bend_c, 5, 9344
4, 312954, Pitch_bend_c, 5, 9216
4, 312992, Pitch_bend_c, 5, 9088
4, 313030, Pitch_bend_c, 5, 8960
4, 313068, Pitch_bend_c, 5, 8832
4, 313106, Pitch_bend_c, 5, 8704
4, 313144, Pitch_bend_c, 5, 8576
4, 313182, Pitch_bend_c, 5, 8448
4, 313220, Pitch_bend_c, 5, 8320
4, 313258, Pitch_bend_c, 5, 8192
4, 313260, Pitch_bend_c, 5, 8192
4, 313680, Note_off_c, 4, 64, 95
4, 313680, Pitch_bend_c, 5, 8192
4, 313680, Pitch_bend_c, 5, 8192
4, 313680, Note_off_c, 5, 62, 95
4, 313680, Note_on_c, 4, 62, 95
4, 313920, Note_off_c, 4, 62, 95
4, 313920, Note_on_c, 4, 64, 95
4, 315840, Note_off_c, 4, 64, 95
4, 315840, Note_on_c, 4, 62, 95
4, 315960, Note_off_c, 4, 62, 95
4, 315960, Note_on_c, 4, 64, 95
4, 316080, Note_off_c, 4, 64, 95
4, 316080, Note_on_c, 4, 64, 95
4, 316800, Note_off_c, 4, 64, 95
4, 316800, Note_on_c, 4, 64, 95
4, 317760, Note_off_c, 4, 64, 95
4, 317760, Note_on_c, 4, 62, 95
4, 318000, Note_off_c, 4, 62, 95
4, 318000, Note_on_c, 4, 64, 95
4, 318720, Note_off_c, 4, 64, 95
4, 318720, Note_on_c, 5, 64, 95
4, 318840, Pitch_bend_c, 5, 7552
4, 318960, Pitch_bend_c, 5, 6784
4, 318960, Pitch_bend_c, 5, 8192
4, 318960, Note_off_c, 5, 64, 95
4, 318960, Note_on_c, 4, 62, 95
4, 319680, Note_off_c, 4, 62, 95
4, 319680, Note_on_c, 4, 62, 95
4, 320640, Note_off_c, 4, 62, 95
4, 320640, Note_on_c, 4, 59, 95
4, 320760, Note_off_c, 4, 59, 95
4, 320760, Note_on_c, 4, 67, 95
4, 321600, Note_off_c, 4, 67, 95
4, 321600, Note_on_c, 4, 57, 95
4, 321840, Note_off_c, 4, 57, 95
4, 321840, Note_on_c, 4, 55, 95
4, 322080, Note_off_c, 4, 55, 95
4, 322080, Note_on_c, 4, 52, 95
4, 323520, Note_off_c, 4, 52, 95
4, 323520, Note_on_c, 4, 45, 95
4, 323760, Note_off_c, 4, 45, 95
4, 323760, Note_on_c, 4, 47, 95
4, 324000, Note_off_c, 4, 47, 95
4, 324000, Note_on_c, 4, 47, 95
4, 324240, Note_off_c, 4, 47, 95
4, 324240, Note_on_c, 4, 50, 95
4, 324480, Note_off_c, 4, 50, 95
4, 324480, Note_on_c, 4, 52, 95
4, 324720, Note_off_c, 4, 52, 95
4, 324720, Note_on_c, 4, 50, 95
4, 324960, Note_off_c, 4, 50, 95
4, 324960, Note_on_c, 4, 52, 95
4, 325440, Note_off_c, 4, 52, 95
4, 325440, Note_on_c, 4, 52, 95
4, 325920, Note_off_c, 4, 52, 95
4, 325920, Note_on_c, 4, 50, 95
4, 326880, Note_off_c, 4, 50, 95
4, 326880, Note_on_c, 4, 45, 95
4, 327120, Note_off_c, 4, 45, 95
4, 327120, Note_on_c, 4, 47, 95
4, 327840, Note_off_c, 4, 47, 95
4, 327840, Note_on_c, 4, 50, 95
4, 328320, Note_off_c, 4, 50, 95
4, 328320, Note_on_c, 4, 45, 95
4, 328560, Note_off_c, 4, 45, 95
4, 328560, Note_on_c, 4, 47, 95
4, 328800, Note_off_c, 4, 47, 95
4, 328800, Note_on_c, 4, 55, 95
4, 329760, Note_off_c, 4, 55, 95
4, 329760, Pitch_bend_c, 5, 8192
4, 329760, Note_on_c, 5, 43, 95
4, 329808, Pitch_bend_c, 5, 8320
4, 329856, Pitch_bend_c, 5, 8448
4, 329904, Pitch_bend_c, 5, 8576
4, 329952, Pitch_bend_c, 5, 8704
4, 330000, Pitch_bend_c, 5, 8832
4, 330000, Pitch_bend_c, 5, 8832
4, 330240, Pitch_bend_c, 5, 8832
4, 330240, Pitch_bend_c, 5, 8192
4, 330240, Note_off_c, 5, 43, 95
4, 330240, Note_on_c, 4, 40, 95
4, 330720, Note_off_c, 4, 40, 95
4, 330720, Note_on_c, 4, 56, 95
4, 330720, Note_on_c, 4, 52, 95
4, 331680, Note_off_c, 4, 56, 95
4, 331680, Note_off_c, 4, 52, 95
4, 333600, Note_on_c, 4, 62, 95
4, 334080, Note_off_c, 4, 62, 95
4, 334320, Note_on_c, 4, 62, 95
4, 335040, Note_off_c, 4, 62, 95
4, 335520, Note_on_c, 4, 59, 95
4, 335760, Note_off_c, 4, 59, 95
4, 335760, Note_on_c, 4, 62, 95
4, 336000, Note_off_c, 4, 62, 95
4, 336000, Note_on_c, 4, 59, 95
4, 336240, Note_off_c, 4, 59, 95
4, 336240, Note_on_c, 4, 62, 95
4, 336480, Note_off_c, 4, 62, 95
4, 336480, Note_on_c, 5, 59, 95
4, 336600, Pitch_bend_c, 5, 7552
4, 336720, Pitch_bend_c, 5, 6784
4, 336720, Pitch_bend_c, 5, 8192
4, 336720, Note_off_c, 5, 59, 95
4, 336720, Note_on_c, 4, 57, 95
4, 336960, Note_off_c, 4, 57, 95
4, 336960, Note_on_c, 4, 55, 95
4, 337440, Note_off_c, 4, 55, 95
4, 337440, Note_on_c, 4, 52, 95
4, 337920, Note_off_c, 4, 52, 95
4, 337920, Note_on_c, 4, 40, 95
4, 338400, Note_off_c, 4, 40, 95
4, 338400, Note_on_c, 4, 52, 95
4, 338880, Note_off_c, 4, 52, 95
4, 338880, Note_on_c, 4, 50, 95
4, 339360, Note_off_c, 4, 50, 95
4, 339360, Note_on_c, 4, 52, 95
4, 340800, Note_off_c, 4, 52, 95
4, 341280, Note_on_c, 4, 55, 95
4, 341520, Note_off_c, 4, 55, 95
4, 341520, Note_on_c, 4, 52, 95
4, 341760, Note_off_c, 4, 52, 95
4, 341760, End_track
5, 0, Start_track
5, 0, Pitch_bend_c, 6, 8192
5, 0, Control_c, 6, 7, 127
5, 0, Control_c, 6, 10, 39
5, 0, Control_c, 6, 93, 0
5, 0, Control_c, 6, 91, 0
5, 0, Control_c, 6, 95, 0
5, 0, Control_c, 6, 92, 0
5, 0, Control_c, 6, 11, 127
5, 0, Program_c, 6, 29
5, 0, Control_c, 7, 7, 127
5, 0, Control_c, 7, 10, 39
5, 0, Control_c, 7, 93, 0
5, 0, Control_c, 7, 91, 0
5, 0, Control_c, 7, 95, 0
5, 0, Control_c, 7, 92, 0
5, 0, Control_c, 7, 11, 127
5, 0, Program_c, 7, 29
5, 192480, Pitch_bend_c, 7, 8192
5, 192480, Note_on_c, 7, 69, 95
5, 192512, Pitch_bend_c, 7, 8320
5, 192544, Pitch_bend_c, 7, 8448
5, 192576, Pitch_bend_c, 7, 8576
5, 192608, Pitch_bend_c, 7, 8704
5, 192640, Pitch_bend_c, 7, 8832
5, 192672, Pitch_bend_c, 7, 8960
5, 192704, Pitch_bend_c, 7, 9088
5, 192736, Pitch_bend_c, 7, 9216
5, 192768, Pitch_bend_c, 7, 9344
5, 192800, Pitch_bend_c, 7, 9472
5, 192832, Pitch_bend_c, 7, 9600
5, 192840, Pitch_bend_c, 7, 9600
5, 193200, Pitch_bend_c, 7, 9600
5, 193200, Pitch_bend_c, 7, 8192
5, 193200, Note_off_c, 7, 69, 95
5, 193200, Pitch_bend_c, 7, 8192
5, 193200, Note_on_c, 7, 69, 95
5, 193232, Pitch_bend_c, 7, 8320
5, 193264, Pitch_bend_c, 7, 8448
5, 193296, Pitch_bend_c, 7, 8576
5, 193328, Pitch_bend_c, 7, 8704
5, 193360, Pitch_bend_c, 7, 8832
5, 193392, Pitch_bend_c, 7, 8960
5, 193424, Pitch_bend_c, 7, 9088
5, 193456, Pitch_bend_c, 7, 9216
5, 193488, Pitch_bend_c, 7, 9344
5, 193520, Pitch_bend_c, 7, 9472
5, 193552, Pitch_bend_c, 7, 9600
5, 193560, Pitch_bend_c, 7, 9600
5, 193920, Pitch_bend_c, 7, 9600
5, 193920, Pitch_bend_c, 7, 8192
5, 193920, Note_off_c, 7, 69, 95
5, 193920, Pitch_bend_c, 7, 8192
5, 193920, Note_on_c, 7, 69, 95
5, 193941, Pitch_bend_c, 7, 8320
5, 193962, Pitch_bend_c, 7, 8448
5, 193983, Pitch_bend_c, 7, 8576
5, 194004, Pitch_bend_c, 7, 8704
5, 194025, Pitch_bend_c, 7, 8832
5, 194046, Pitch_bend_c, 7, 8960
5, 194067, Pitch_bend_c, 7, 9088
5, 194088, Pitch_bend_c, 7, 9216
5, 194109, Pitch_bend_c, 7, 9344
5, 194130, Pitch_bend_c, 7, 9472
5, 194151, Pitch_bend_c, 7, 9600
5, 194160, Pitch_bend_c, 7, 9600
5, 194400, Pitch_bend_c, 7, 9600
5, 194421, Pitch_bend_c, 7, 9472
5, 194442, Pitch_bend_c, 7, 9344
5, 194463, Pitch_bend_c, 7, 9216
5, 194484, Pitch_bend_c, 7, 9088
5, 194505, Pitch_bend_c, 7, 8960
5, 194526, Pitch_bend_c, 7, 8832
5, 194547, Pitch_bend_c, 7, 8704
5, 194568, Pitch_bend_c, 7, 8576
5, 194589, Pitch_bend_c, 7, 8448
5, 194610, Pitch_bend_c, 7, 8320
5, 194631, Pitch_bend_c, 7, 8192
5, 194640, Pitch_bend_c, 7, 8192
5, 194880, Pitch_bend_c, 7, 8192
5, 194880, Pitch_bend_c, 7, 8192
5, 194880, Note_off_c, 7, 69, 95
5, 194880, Note_on_c, 6, 67, 95
5, 195360, Note_off_c, 6, 67, 95
5, 195360, Note_on_c, 6, 64, 95
5, 196800, Note_off_c, 6, 64, 95
5, 196800, Note_on_c, 6, 62, 95
5, 197040, Note_off_c, 6, 62, 95
5, 197040, Note_on_c, 6, 64, 95
5, 197760, Note_off_c, 6, 64, 95
5, 197760, Note_on_c, 7, 64, 95
5, 197920, Pitch_bend_c, 7, 8192
5, 198080, Pitch_bend_c, 7, 8320
5, 198240, Pitch_bend_c, 7, 8192
5, 198400, Pitch_bend_c, 7, 8320
5, 198560, Pitch_bend_c, 7, 8192
5, 198720, Pitch_bend_c, 7, 8320
5, 198720, Pitch_bend_c, 7, 8192
5, 198720, Note_off_c, 7, 64, 95
5, 198720, Note_on_c, 6, 62, 95
5, 198960, Note_off_c, 6, 62, 95
5, 198960, Note_on_c, 6, 64, 95
5, 199680, Note_off_c, 6, 64, 95
5, 200160, Pitch_bend_c, 7, 8192
5, 200160, Note_on_c, 7, 74, 95
5, 200181, Pitch_bend_c, 7, 8320
5, 200202, Pitch_bend_c, 7, 8448
5, 200223, Pitch_bend_c, 7, 8576
5, 200244, Pitch_bend_c, 7, 8704
5, 200265, Pitch_bend_c, 7, 8832
5, 200286, Pitch_bend_c, 7, 8960
5, 200307, Pitch_bend_c, 7, 9088
5, 200328, Pitch_bend_c, 7, 9216
5, 200349, Pitch_bend_c, 7, 9344
5, 200370, Pitch_bend_c, 7, 9472
5, 200391, Pitch_bend_c, 7, 9600
5, 200400, Pitch_bend_c, 7, 9600
5, 200640, Pitch_bend_c, 7, 9600
5, 200640, Pitch_bend_c, 7, 8192
5, 200640, Note_off_c, 7, 74, 95
5, 200640, Pitch_bend_c, 7, 8192
5, 200640, Note_on_c, 7, 74, 95
5, 200650, Pitch_bend_c, 7, 8320
5, 200660, Pitch_bend_c, 7, 8448
5, 200670, Pitch_bend_c, 7, 8576
5, 200680, Pitch_bend_c, 7, 8704
5, 200690, Pitch_bend_c, 7, 8832
5, 200700, Pitch_bend_c, 7, 8960
5, 200710, Pitch_bend_c, 7, 9088
5, 200720, Pitch_bend_c, 7, 9216
5, 200730, Pitch_bend_c, 7, 9344
5, 200740, Pitch_bend_c, 7, 9472
5, 200750, Pitch_bend_c, 7, 9600
5, 200760, Pitch_bend_c, 7, 9600
5, 200880, Pitch_bend_c, 7, 9600
5, 200890, Pitch_bend_c, 7, 9472
5, 200900, Pitch_bend_c, 7, 9344
5, 200910, Pitch_bend_c, 7, 9216
5, 200920, Pitch_bend_c, 7, 9088
5, 200930, Pitch_bend_c, 7, 8960
5, 200940, Pitch_bend_c, 7, 8832
5, 200950, Pitch_bend_c, 7, 8704
5, 200960, Pitch_bend_c, 7, 8576
5, 200970, Pitch_bend_c, 7, 8448
5, 200980, Pitch_bend_c, 7, 8320
5, 200990, Pitch_bend_c, 7, 8192
5, 201000, Pitch_bend_c, 7, 8192
5, 201120, Pitch_bend_c, 7, 8192
5, 201120, Pitch_bend_c, 7, 8192
5, 201120, Note_off_c, 7, 74, 95
5, 201120, Note_on_c, 6, 71, 95
5, 201360, Note_off_c, 6, 71, 95
5, 201360, Pitch_bend_c, 7, 8192
5, 201360, Note_on_c, 7, 69, 95
5, 201381, Pitch_bend_c, 7, 8320
5, 201402, Pitch_bend_c, 7, 8448
5, 201423, Pitch_bend_c, 7, 8576
5, 201444, Pitch_bend_c, 7, 8704
5, 201465, Pitch_bend_c, 7, 8832
5, 201486, Pitch_bend_c, 7, 8960
5, 201507, Pitch_bend_c, 7, 9088
5, 201528, Pitch_bend_c, 7, 9216
5, 201549, Pitch_bend_c, 7, 9344
5, 201570, Pitch_bend_c, 7, 9472
5, 201591, Pitch_bend_c, 7, 9600
5, 201600, Pitch_bend_c, 7, 9600
5, 201840, Pitch_bend_c, 7, 9600
5, 201840, Pitch_bend_c, 7, 8192
5, 201840, Note_off_c, 7, 69, 95
5, 201840, Note_on_c, 6, 74, 95
5, 202080, Note_off_c, 6, 74, 95
5, 202080, Pitch_bend_c, 7, 8192
5, 202080, Note_on_c, 7, 69, 95
5, 202090, Pitch_bend_c, 7, 8320
5, 202100, Pitch_bend_c, 7, 8448
5, 202110, Pitch_bend_c, 7, 8576
5, 202120, Pitch_bend_c, 7, 8704
5, 202130, Pitch_bend_c, 7, 8832
5, 202140, Pitch_bend_c, 7, 8960
5, 202150, Pitch_bend_c, 7, 9088
5, 202160, Pitch_bend_c, 7, 9216
5, 202170, Pitch_bend_c, 7, 9344
5, 202180, Pitch_bend_c, 7, 9472
5, 202190, Pitch_bend_c, 7, 9600
5, 202200, Pitch_bend_c, 7, 9600
5, 202320, Pitch_bend_c, 7, 9600
5, 202330, Pitch_bend_c, 7, 9472
5, 202340, Pitch_bend_c, 7, 9344
5, 202350, Pitch_bend_c, 7, 9216
5, 202360, Pitch_bend_c, 7, 9088
5, 202370, Pitch_bend_c, 7, 8960
5, 202380, Pitch_bend_c, 7, 8832
5, 202390, Pitch_bend_c, 7, 8704
5, 202400, Pitch_bend_c, 7, 8576
5, 202410, Pitch_bend_c, 7, 8448
5, 202420, Pitch_bend_c, 7, 8320
5, 202430, Pitch_bend_c, 7, 8192
5, 202440, Pitch_bend_c, 7, 8192
5, 202560, Pitch_bend_c, 7, 8192
5, 202560, Pitch_bend_c, 7, 8192
5, 202560, Note_off_c, 7, 69, 95
5, 202560, Pitch_bend_c, 7, 8192
5, 202560, Note_on_c, 7, 67, 95
5, 202608, Pitch_bend_c, 7, 8320
5, 202656, Pitch_bend_c, 7, 8448
5, 202704, Pitch_bend_c, 7, 8576
5, 202752, Pitch_bend_c, 7, 8704
5, 202800, Pitch_bend_c, 7, 8832
5, 202800, Pitch_bend_c, 7, 8832
5, 203040, Pitch_bend_c, 7, 8832
5, 203040, Pitch_bend_c, 7, 8192
5, 203040, Note_off_c, 7, 67, 95
5, 204000, Note_on_c, 6, 74, 95
5, 204240, Note_off_c, 6, 74, 95
5, 204240, Pitch_bend_c, 7, 8192
5, 204240, Note_on_c, 7, 69, 95
5, 204261, Pitch_bend_c, 7, 8320
5, 204282, Pitch_bend_c, 7, 8448
5, 204303, Pitch_bend_c, 7, 8576
5, 204324, Pitch_bend_c, 7, 8704
5, 204345, Pitch_bend_c, 7, 8832
5, 204366, Pitch_bend_c, 7, 8960
5, 204387, Pitch_bend_c, 7, 9088
5, 204408, Pitch_bend_c, 7, 9216
5, 204429, Pitch_bend_c, 7, 9344
5, 204450, Pitch_bend_c, 7, 9472
5, 204471, Pitch_bend_c, 7, 9600
5, 204480, Pitch_bend_c, 7, 9600
5, 204720, Pitch_bend_c, 7, 9600
5, 204720, Pitch_bend_c, 7, 8192
5, 204720, Note_off_c, 7, 69, 95
5, 204720, Pitch_bend_c, 7, 8192
5, 204720, Note_on_c, 7, 69, 95
5, 204741, Pitch_bend_c, 7, 8320
5, 204762, Pitch_bend_c, 7, 8448
5, 204783, Pitch_bend_c, 7, 8576
5, 204804, Pitch_bend_c, 7, 8704
5, 204825, Pitch_bend_c, 7, 8832
5, 204846, Pitch_bend_c, 7, 8960
5, 204867, Pitch_bend_c, 7, 9088
5, 204888, Pitch_bend_c, 7, 9216
5, 204909, Pitch_bend_c, 7, 9344
5, 204930, Pitch_bend_c, 7, 9472
5, 204951, Pitch_bend_c, 7, 9600
5, 204960, Pitch_bend_c, 7, 9600
5, 205200, Pitch_bend_c, 7, 9600
5, 205200, Pitch_bend_c, 7, 8192
5, 205200, Note_off_c, 7, 69, 95
5, 205200, Note_on_c, 6, 69, 95
5, 205440, Note_off_c, 6, 69, 95
5, 205680, Note_on_c, 6, 67, 95
5, 205920, Note_off_c, 6, 67, 95
5, 205920, Pitch_bend_c, 7, 8192
5, 205920, Note_on_c, 7, 69, 95
5, 205968, Pitch_bend_c, 7, 8320
5, 206016, Pitch_bend_c, 7, 8448
5, 206064, Pitch_bend_c, 7, 8576
5, 206112, Pitch_bend_c, 7, 8704
5, 206160, Pitch_bend_c, 7, 8832
5, 206160, Pitch_bend_c, 7, 8832
5, 206400, Pitch_bend_c, 7, 8832
5, 206448, Pitch_bend_c, 7, 8704
5, 206496, Pitch_bend_c, 7, 8576
5, 206544, Pitch_bend_c, 7, 8448
5, 206592, Pitch_bend_c, 7, 8320
5, 206640, Pitch_bend_c, 7, 8192
5, 206640, Pitch_bend_c, 7, 8192
5, 206880, Pitch_bend_c, 7, 8192
5, 206880, Pitch_bend_c, 7, 8192
5, 206880, Note_off_c, 7, 69, 95
5, 206880, Note_on_c, 6, 71, 95
5, 207360, Note_off_c, 6, 71, 95
5, 207360, Pitch_bend_c, 7, 8192
5, 207360, Note_on_c, 7, 67, 95
5, 207456, Pitch_bend_c, 7, 8320
5, 207552, Pitch_bend_c, 7, 8448
5, 207648, Pitch_bend_c, 7, 8576
5, 207744, Pitch_bend_c, 7, 8704
5, 207840, Pitch_bend_c, 7, 8832
5, 207840, Pitch_bend_c, 7, 8832
5, 208320, Pitch_bend_c, 7, 8832
5, 208320, Pitch_bend_c, 7, 8192
5, 208320, Note_off_c, 7, 67, 95
5, 208320, Note_on_c, 6, 64, 95
5, 208560, Note_off_c, 6, 64, 95
5, 208560, Note_on_c, 6, 62, 95
5, 208800, Note_off_c, 6, 62, 95
5, 208800, Note_on_c, 6, 64, 95
5, 209280, Note_off_c, 6, 64, 95
5, 209280, Note_on_c, 6, 67, 95
5, 209520, Note_off_c, 6, 67, 95
5, 209520, Note_on_c, 6, 64, 95
5, 210000, Note_off_c, 6, 64, 95
5, 210000, Note_on_c, 6, 62, 95
5, 210720, Note_off_c, 6, 62, 95
5, 210720, Note_on_c, 6, 64, 95
5, 211200, Note_off_c, 6, 64, 95
5, 211680, Pitch_bend_c, 7, 8192
5, 211680, Note_on_c, 7, 69, 95
5, 211701, Pitch_bend_c, 7, 8320
5, 211722, Pitch_bend_c, 7, 8448
5, 211743, Pitch_bend_c, 7, 8576
5, 211764, Pitch_bend_c, 7, 8704
5, 211785, Pitch_bend_c, 7, 8832
5, 211806, Pitch_bend_c, 7, 8960
5, 211827, Pitch_bend_c, 7, 9088
5, 211848, Pitch_bend_c, 7, 9216
5, 211869, Pitch_bend_c, 7, 9344
5, 211890, Pitch_bend_c, 7, 9472
5, 211911, Pitch_bend_c, 7, 9600
5, 211920, Pitch_bend_c, 7, 9600
5, 212160, Pitch_bend_c, 7, 9600
5, 212160, Pitch_bend_c, 7, 8192
5, 212160, Note_off_c, 7, 69, 95
5, 212160, Pitch_bend_c, 7, 8192
5, 212160, Note_on_c, 7, 69, 95
5, 212181, Pitch_bend_c, 7, 8320
5, 212202, Pitch_bend_c, 7, 8448
5, 212223, Pitch_bend_c, 7, 8576
5, 212244, Pitch_bend_c, 7, 8704
5, 212265, Pitch_bend_c, 7, 8832
5, 212286, Pitch_bend_c, 7, 8960
5, 212307, Pitch_bend_c, 7, 9088
5, 212328, Pitch_bend_c, 7, 9216
5, 212349, Pitch_bend_c, 7, 9344
5, 212370, Pitch_bend_c, 7, 9472
5, 212391, Pitch_bend_c, 7, 9600
5, 212400, Pitch_bend_c, 7, 9600
5, 212640, Pitch_bend_c, 7, 9600
5, 212661, Pitch_bend_c, 7, 9472
5, 212682, Pitch_bend_c, 7, 9344
5, 212703, Pitch_bend_c, 7, 9216
5, 212724, Pitch_bend_c, 7, 9088
5, 212745, Pitch_bend_c, 7, 8960
5, 212766, Pitch_bend_c, 7, 8832
5, 212787, Pitch_bend_c, 7, 8704
5, 212808, Pitch_bend_c, 7, 8576
5, 212829, Pitch_bend_c, 7, 8448
5, 212850, Pitch_bend_c, 7, 8320
5, 212871, Pitch_bend_c, 7, 8192
5, 212880, Pitch_bend_c, 7, 8192
5, 213120, Pitch_bend_c, 7, 8192
5, 213120, Pitch_bend_c, 7, 8192
5, 213120, Note_off_c, 7, 69, 95
5, 213120, Note_on_c, 6, 67, 95
5, 213600, Note_off_c, 6, 67, 95
5, 213600, Note_on_c, 6, 69, 95
5, 213840, Note_off_c, 6, 69, 95
5, 213840, Note_on_c, 6, 67, 95
5, 214080, Note_off_c, 6, 67, 95
5, 214080, Pitch_bend_c, 7, 8192
5, 214080, Note_on_c, 7, 69, 95
5, 214101, Pitch_bend_c, 7, 8320
5, 214122, Pitch_bend_c, 7, 8448
5, 214143, Pitch_bend_c, 7, 8576
5, 214164, Pitch_bend_c, 7, 8704
5, 214185, Pitch_bend_c, 7, 8832
5, 214206, Pitch_bend_c, 7, 8960
5, 214227, Pitch_bend_c, 7, 9088
5, 214248, Pitch_bend_c, 7, 9216
5, 214269, Pitch_bend_c, 7, 9344
5, 214290, Pitch_bend_c, 7, 9472
5, 214311, Pitch_bend_c, 7, 9600
5, 214320, Pitch_bend_c, 7, 9600
5, 214560, Pitch_bend_c, 7, 9600
5, 214560, Pitch_bend_c, 7, 8192
5, 214560, Note_off_c, 7, 69, 95
5, 214560, Note_on_c, 6, 67, 95
5, 215040, Note_off_c, 6, 67, 95
5, 215280, Note_on_c, 6, 64, 95
5, 215760, Note_off_c, 6, 64, 95
5, 215760, Note_on_c, 6, 62, 95
5, 216000, Note_off_c, 6, 62, 95
5, 216000, Note_on_c, 6, 64, 95
5, 216480, Note_off_c, 6, 64, 95
5, 216480, Note_on_c, 6, 64, 95
5, 216720, Note_off_c, 6, 64, 95
5, 216720, Note_on_c, 6, 67, 95
5, 217200, Note_off_c, 6, 67, 95
5, 217200, Note_on_c, 6, 67, 95
5, 217440, Note_off_c, 6, 67, 95
5, 217440, Note_on_c, 6, 64, 95
5, 217680, Note_off_c, 6, 64, 95
5, 217680, Note_on_c, 6, 62, 70
5, 217920, Note_off_c, 6, 62, 70
5, 217920, Note_on_c, 6, 64, 95
5, 218400, Note_off_c, 6, 64, 95
5, 218400, Note_on_c, 6, 62, 95
5, 218880, Note_off_c, 6, 62, 95
5, 218880, Note_on_c, 7, 64, 95
5, 219040, Pitch_bend_c, 7, 8192
5, 219200, Pitch_bend_c, 7, 8320
5, 219360, Pitch_bend_c, 7, 8192
5, 219520, Pitch_bend_c, 7, 8320
5, 219680, Pitch_bend_c, 7, 8192
5, 219840, Pitch_bend_c, 7, 8320
5, 220000, Pitch_bend_c, 7, 8192
5, 220160, Pitch_bend_c, 7, 8320
5, 220320, Pitch_bend_c, 7, 8192
5, 220480, Pitch_bend_c, 7, 8320
5, 220640, Pitch_bend_c, 7, 8192
5, 220800, Pitch_bend_c, 7, 8320
5, 220960, Pitch_bend_c, 7, 8192
5, 221120, Pitch_bend_c, 7, 8320
5, 221280, Pitch_bend_c, 7, 8192
5, 221440, Pitch_bend_c, 7, 8320
5, 221600, Pitch_bend_c, 7, 8192
5, 221760, Pitch_bend_c, 7, 8320
5, 221920, Pitch_bend_c, 7, 8192
5, 222080, Pitch_bend_c, 7, 8320
5, 222240, Pitch_bend_c, 7, 8192
5, 222400, Pitch_bend_c, 7, 8320
5, 222560, Pitch_bend_c, 7, 8192
5, 222720, Pitch_bend_c, 7, 8320
5, 222720, Pitch_bend_c, 7, 8192
5, 222720, Note_off_c, 7, 64, 95
5, 222720, End_track
6, 0, Start_track
6, 0, Pitch_bend_c, 12, 8192
6, 0, Control_c, 12, 7, 127
6, 0, Control_c, 12, 10, 39
6, 0, Control_c, 12, 93, 0
6, 0, Control_c, 12, 91, 0
6, 0, Control_c, 12, 95, 0
6, 0, Control_c, 12, 92, 0
6, 0, Control_c, 12, 11, 127
6, 0, Program_c, 12, 16
6, 0, Control_c, 13, 7, 127
6, 0, Control_c, 13, 10, 39
6, 0, Control_c, 13, 93, 0
6, 0, Control_c, 13, 91, 0
6, 0, Control_c, 13, 95, 0
6, 0, Control_c, 13, 92, 0
6, 0, Control_c, 13, 11, 127
6, 0, Program_c, 13, 16
6, 29760, Note_on_c, 12, 74, 95
6, 30060, Note_off_c, 12, 74, 95
6, 30240, Note_on_c, 12, 76, 95
6, 30540, Note_off_c, 12, 76, 95
6, 30720, Note_on_c, 12, 76, 95
6, 31020, Note_off_c, 12, 76, 95
6, 31200, Note_on_c, 12, 76, 95
6, 31500, Note_off_c, 12, 76, 95
6, 31680, Note_on_c, 12, 74, 95
6, 31980, Note_off_c, 12, 74, 95
6, 32160, Note_on_c, 12, 76, 95
6, 32460, Note_off_c, 12, 76, 95
6, 33120, Note_on_c, 12, 71, 95
6, 33420, Note_off_c, 12, 71, 95
6, 33600, Note_on_c, 12, 69, 95
6, 33900, Note_off_c, 12, 69, 95
6, 34080, Note_on_c, 12, 67, 95
6, 34380, Note_off_c, 12, 67, 95
6, 35040, Note_on_c, 12, 69, 95
6, 35340, Note_off_c, 12, 69, 95
6, 35520, Note_on_c, 12, 67, 95
6, 35820, Note_off_c, 12, 67, 95
6, 36000, Note_on_c, 12, 64, 95
6, 36660, Note_off_c, 12, 64, 95
6, 37440, Note_on_c, 12, 62, 95
6, 37740, Note_off_c, 12, 62, 95
6, 37920, Note_on_c, 12, 64, 95
6, 40500, Note_off_c, 12, 64, 95
6, 45120, Note_on_c, 12, 74, 95
6, 45420, Note_off_c, 12, 74, 95
6, 45600, Note_on_c, 12, 76, 95
6, 45900, Note_off_c, 12, 76, 95
6, 46080, Note_on_c, 12, 76, 95
6, 46380, Note_off_c, 12, 76, 95
6, 46560, Note_on_c, 12, 76, 95
6, 46860, Note_off_c, 12, 76, 95
6, 47040, Note_on_c, 12, 74, 95
6, 47340, Note_off_c, 12, 74, 95
6, 47520, Note_on_c, 12, 76, 95
6, 47820, Note_off_c, 12, 76, 95
6, 49920, Note_on_c, 12, 74, 95
6, 50220, Note_off_c, 12, 74, 95
6, 50400, Note_on_c, 12, 74, 95
6, 50700, Note_off_c, 12, 74, 95
6, 50880, Note_on_c, 12, 71, 95
6, 51180, Note_off_c, 12, 71, 95
6, 51360, Note_on_c, 12, 69, 95
6, 52020, Note_off_c, 12, 69, 95
6, 52800, Note_on_c, 12, 62, 95
6, 53100, Note_off_c, 12, 62, 95
6, 53280, Note_on_c, 12, 64, 95
6, 55860, Note_off_c, 12, 64, 95
6, 60000, Note_on_c, 12, 62, 95
6, 60300, Note_off_c, 12, 62, 95
6, 60480, Note_on_c, 12, 64, 95
6, 60780, Note_off_c, 12, 64, 95
6, 60960, Note_on_c, 12, 67, 95
6, 61740, Note_off_c, 12, 67, 95
6, 61920, Note_on_c, 12, 62, 95
6, 62220, Note_off_c, 12, 62, 95
6, 62400, Note_on_c, 12, 64, 95
6, 62700, Note_off_c, 12, 64, 95
6, 62880, Note_on_c, 12, 67, 95
6, 63540, Note_off_c, 12, 67, 95
6, 63840, Note_on_c, 12, 62, 95
6, 64140, Note_off_c, 12, 62, 95
6, 64320, Note_on_c, 12, 64, 95
6, 64620, Note_off_c, 12, 64, 95
6, 64800, Note_on_c, 12, 67, 95
6, 66540, Note_off_c, 12, 67, 95
6, 67200, Note_on_c, 12, 66, 95
6, 67500, Note_off_c, 12, 66, 95
6, 68160, Note_on_c, 12, 62, 95
6, 68460, Note_off_c, 12, 62, 95
6, 68640, Note_on_c, 12, 64, 95
6, 71220, Note_off_c, 12, 64, 95
6, 83520, Note_on_c, 12, 74, 95
6, 83820, Note_off_c, 12, 74, 95
6, 84000, Note_on_c, 12, 76, 95
6, 84300, Note_off_c, 12, 76, 95
6, 84480, Note_on_c, 12, 76, 95
6, 84780, Note_off_c, 12, 76, 95
6, 84960, Note_on_c, 12, 76, 95
6, 85620, Note_off_c, 12, 76, 95
6, 85920, Note_on_c, 12, 76, 95
6, 86220, Note_off_c, 12, 76, 95
6, 86880, Note_on_c, 12, 71, 95
6, 87180, Note_off_c, 12, 71, 95
6, 87360, Note_on_c, 12, 69, 95
6, 87660, Note_off_c, 12, 69, 95
6, 87840, Note_on_c, 12, 67, 95
6, 88140, Note_off_c, 12, 67, 95
6, 88800, Note_on_c, 12, 69, 95
6, 89100, Note_off_c, 12, 69, 95
6, 89280, Note_on_c, 12, 67, 95
6, 89580, Note_off_c, 12, 67, 95
6, 89760, Note_on_c, 12, 64, 95
6, 90420, Note_off_c, 12, 64, 95
6, 91200, Note_on_c, 12, 62, 95
6, 91500, Note_off_c, 12, 62, 95
6, 91680, Note_on_c, 12, 64, 95
6, 94260, Note_off_c, 12, 64, 95
6, 98880, Note_on_c, 12, 74, 95
6, 99540, Note_off_c, 12, 74, 95
6, 99840, Note_on_c, 12, 76, 95
6, 100140, Note_off_c, 12, 76, 95
6, 100320, Note_on_c, 12, 76, 95
6, 100620, Note_off_c, 12, 76, 95
6, 100800, Note_on_c, 12, 74, 95
6, 101100, Note_off_c, 12, 74, 95
6, 101280, Note_on_c, 12, 76, 95
6, 101580, Note_off_c, 12, 76, 95
6, 102720, Note_on_c, 12, 71, 95
6, 103020, Note_off_c, 12, 71, 95
6, 103200, Note_on_c, 12, 69, 95
6, 103500, Note_off_c, 12, 69, 95
6, 103680, Note_on_c, 12, 74, 95
6, 104340, Note_off_c, 12, 74, 95
6, 104640, Note_on_c, 12, 74, 95
6, 104940, Note_off_c, 12, 74, 95
6, 105120, Note_on_c, 12, 71, 95
6, 105420, Note_off_c, 12, 71, 95
6, 106560, Note_on_c, 12, 62, 95
6, 106860, Note_off_c, 12, 62, 95
6, 107040, Note_on_c, 12, 64, 95
6, 109620, Note_off_c, 12, 64, 95
6, 113760, Note_on_c, 12, 62, 95
6, 114060, Note_off_c, 12, 62, 95
6, 114240, Note_on_c, 12, 64, 95
6, 114540, Note_off_c, 12, 64, 95
6, 114720, Note_on_c, 12, 67, 95
6, 115500, Note_off_c, 12, 67, 95
6, 115680, Note_on_c, 12, 62, 95
6, 115980, Note_off_c, 12, 62, 95
6, 116160, Note_on_c, 12, 64, 95
6, 116460, Note_off_c, 12, 64, 95
6, 116640, Note_on_c, 12, 67, 95
6, 117300, Note_off_c, 12, 67, 95
6, 117600, Note_on_c, 12, 62, 95
6, 117900, Note_off_c, 12, 62, 95
6, 118080, Note_on_c, 12, 64, 95
6, 118380, Note_off_c, 12, 64, 95
6, 118560, Note_on_c, 12, 67, 95
6, 120300, Note_off_c, 12, 67, 95
6, 120960, Note_on_c, 12, 66, 95
6, 121260, Note_off_c, 12, 66, 95
6, 121920, Note_on_c, 12, 62, 95
6, 122220, Note_off_c, 12, 62, 95
6, 122400, Note_on_c, 12, 64, 95
6, 124980, Note_off_c, 12, 64, 95
6, 221760, Note_on_c, 12, 74, 95
6, 222060, Note_off_c, 12, 74, 95
6, 222240, Note_on_c, 12, 76, 95
6, 222540, Note_off_c, 12, 76, 95
6, 222720, Note_on_c, 12, 76, 95
6, 223020, Note_off_c, 12, 76, 95
6, 223200, Note_on_c, 12, 76, 95
6, 223860, Note_off_c, 12, 76, 95
6, 224160, Note_on_c, 12, 76, 95
6, 224820, Note_off_c, 12, 76, 95
6, 225600, Note_on_c, 12, 71, 95
6, 225900, Note_off_c, 12, 71, 95
6, 226080, Note_on_c, 12, 69, 95
6, 226380, Note_off_c, 12, 69, 95
6, 226560, Note_on_c, 12, 69, 95
6, 226860, Note_off_c, 12, 69, 95
6, 227040, Note_on_c, 12, 67, 95
6, 227340, Note_off_c, 12, 67, 95
6, 227520, Note_on_c, 12, 69, 95
6, 227820, Note_off_c, 12, 69, 95
6, 228000, Note_on_c, 12, 71, 95
6, 228660, Note_off_c, 12, 71, 95
6, 229440, Note_on_c, 12, 62, 95
6, 229740, Note_off_c, 12, 62, 95
6, 229920, Note_on_c, 12, 64, 95
6, 232500, Note_off_c, 12, 64, 95
6, 237120, Note_on_c, 12, 74, 95
6, 237420, Note_off_c, 12, 74, 95
6, 237600, Note_on_c, 12, 76, 95
6, 237900, Note_off_c, 12, 76, 95
6, 238080, Note_on_c, 12, 76, 95
6, 238380, Note_off_c, 12, 76, 95
6, 238560, Note_on_c, 12, 76, 95
6, 238860, Note_off_c, 12, 76, 95
6, 239040, Note_on_c, 12, 74, 95
6, 239340, Note_off_c, 12, 74, 95
6, 239520, Note_on_c, 12, 76, 95
6, 239820, Note_off_c, 12, 76, 95
6, 241920, Note_on_c, 12, 74, 95
6, 242220, Note_off_c, 12, 74, 95
6, 242400, Note_on_c, 12, 74, 95
6, 242700, Note_off_c, 12, 74, 95
6, 242880, Note_on_c, 12, 71, 95
6, 243180, Note_off_c, 12, 71, 95
6, 243360, Note_on_c, 12, 69, 95
6, 244020, Note_off_c, 12, 69, 95
6, 244800, Note_on_c, 12, 62, 95
6, 245100, Note_off_c, 12, 62, 95
6, 245280, Note_on_c, 12, 64, 95
6, 247860, Note_off_c, 12, 64, 95
6, 252000, Note_on_c, 12, 62, 95
6, 252300, Note_off_c, 12, 62, 95
6, 252480, Note_on_c, 12, 64, 95
6, 252780, Note_off_c, 12, 64, 95
6, 252960, Note_on_c, 12, 67, 95
6, 253740, Note_off_c, 12, 67, 95
6, 253920, Note_on_c, 12, 62, 95
6, 254220, Note_off_c, 12, 62, 95
6, 254400, Note_on_c, 12, 64, 95
6, 254700, Note_off_c, 12, 64, 95
6, 254880, Note_on_c, 12, 67, 95
6, 255540, Note_off_c, 12, 67, 95
6, 255840, Note_on_c, 12, 62, 95
6, 256140, Note_off_c, 12, 62, 95
6, 256320, Note_on_c, 12, 64, 95
6, 256620, Note_off_c, 12, 64, 95
6, 256800, Note_on_c, 12, 67, 95
6, 258540, Note_off_c, 12, 67, 95
6, 259200, Note_on_c, 12, 66, 95
6, 259500, Note_off_c, 12, 66, 95
6, 260160, Note_on_c, 12, 62, 95
6, 260460, Note_off_c, 12, 62, 95
6, 260640, Note_on_c, 12, 64, 95
6, 263220, Note_off_c, 12, 64, 95
6, 275040, Note_on_c, 12, 62, 95
6, 275340, Note_off_c, 12, 62, 95
6, 275520, Note_on_c, 12, 64, 95
6, 275820, Note_off_c, 12, 64, 95
6, 276000, Note_on_c, 12, 67, 95
6, 276780, Note_off_c, 12, 67, 95
6, 276960, Note_on_c, 12, 62, 95
6, 277260, Note_off_c, 12, 62, 95
6, 277440, Note_on_c, 12, 64, 95
6, 277740, Note_off_c, 12, 64, 95
6, 277920, Note_on_c, 12, 67, 95
6, 278580, Note_off_c, 12, 67, 95
6, 278880, Note_on_c, 12, 62, 95
6, 279180, Note_off_c, 12, 62, 95
6, 279360, Note_on_c, 12, 64, 95
6, 279660, Note_off_c, 12, 64, 95
6, 279840, Note_on_c, 12, 67, 95
6, 281580, Note_off_c, 12, 67, 95
6, 282240, Note_on_c, 12, 66, 95
6, 282540, Note_off_c, 12, 66, 95
6, 283200, Note_on_c, 12, 62, 95
6, 283500, Note_off_c, 12, 62, 95
6, 283680, Note_on_c, 12, 64, 95
6, 286260, Note_off_c, 12, 64, 95
6, 295680, Note_on_c, 12, 74, 95
6, 296340, Note_off_c, 12, 74, 95
6, 296340, End_track
7, 0, Start_track
7, 0, Pitch_bend_c, 14, 8192
7, 0, Control_c, 14, 7, 127
7, 0, Control_c, 14, 10, 63
7, 0, Control_c, 14, 93, 0
7, 0, Control_c, 14, 91, 0
7, 0, Control_c, 14, 95, 0
7, 0, Control_c, 14, 92, 0
7, 0, Control_c, 14, 11, 127
7, 0, Program_c, 14, 33
7, 0, Control_c, 15, 7, 127
7, 0, Control_c, 15, 10, 63
7, 0, Control_c, 15, 93, 0
7, 0, Control_c, 15, 91, 0
7, 0, Control_c, 15, 95, 0
7, 0, Control_c, 15, 92, 0
7, 0, Control_c, 15, 11, 127
7, 0, Program_c, 15, 33
7, 0, Note_on_c, 14, 40, 95
7, 660, Note_off_c, 14, 40, 95
7, 3360, Note_on_c, 14, 38, 95
7, 3540, Note_off_c, 14, 38, 95
7, 3600, Note_on_c, 14, 40, 95
7, 3780, Note_off_c, 14, 40, 95
7, 3840, Note_on_c, 14, 38, 95
7, 5100, Note_off_c, 14, 38, 95
7, 5760, Note_on_c, 14, 33, 95
7, 6420, Note_off_c, 14, 33, 95
7, 6720, Note_on_c, 14, 38, 95
7, 7380, Note_off_c, 14, 38, 95
7, 7680, Note_on_c, 14, 40, 95
7, 8340, Note_off_c, 14, 40, 95
7, 9600, Note_on_c, 14, 35, 95
7, 10260, Note_off_c, 14, 35, 95
7, 10560, Note_on_c, 14, 40, 95
7, 10860, Note_off_c, 14, 40, 95
7, 11040, Note_on_c, 14, 38, 95
7, 11220, Note_off_c, 14, 38, 95
7, 11280, Note_on_c, 14, 40, 95
7, 11460, Note_off_c, 14, 40, 95
7, 11520, Note_on_c, 14, 38, 95
7, 12780, Note_off_c, 14, 38, 95
7, 13440, Note_on_c, 14, 33, 95
7, 14100, Note_off_c, 14, 33, 95
7, 14400, Note_on_c, 14, 38, 95
7, 14700, Note_off_c, 14, 38, 95
7, 15360, Note_on_c, 14, 40, 95
7, 16020, Note_off_c, 14, 40, 95
7, 17280, Note_on_c, 14, 35, 95
7, 17940, Note_off_c, 14, 35, 95
7, 18240, Note_on_c, 14, 40, 95
7, 18900, Note_off_c, 14, 40, 95
7, 19200, Note_on_c, 14, 38, 95
7, 19860, Note_off_c, 14, 38, 95
7, 21120, Note_on_c, 14, 33, 95
7, 21780, Note_off_c, 14, 33, 95
7, 22080, Note_on_c, 14, 38, 95
7, 22380, Note_off_c, 14, 38, 95
7, 23040, Note_on_c, 14, 40, 95
7, 23700, Note_off_c, 14, 40, 95
7, 24960, Note_on_c, 14, 35, 95
7, 25620, Note_off_c, 14, 35, 95
7, 25920, Note_on_c, 14, 40, 95
7, 26220, Note_off_c, 14, 40, 95
7, 26880, Note_on_c, 14, 38, 95
7, 28140, Note_off_c, 14, 38, 95
7, 28800, Note_on_c, 14, 33, 95
7, 29460, Note_off_c, 14, 33, 95
7, 29760, Note_on_c, 14, 38, 95
7, 30420, Note_off_c, 14, 38, 95
7, 30720, Note_on_c, 14, 40, 95
7, 31380, Note_off_c, 14, 40, 95
7, 32640, Note_on_c, 14, 35, 95
7, 33300, Note_off_c, 14, 35, 95
7, 33600, Note_on_c, 14, 40, 95
7, 33780, Note_off_c, 14, 40, 95
7, 34080, Note_on_c, 14, 35, 95
7, 34380, Note_off_c, 14, 35, 95
7, 34560, Note_on_c, 14, 38, 95
7, 35820, Note_off_c, 14, 38, 95
7, 36480, Note_on_c, 14, 33, 95
7, 37140, Note_off_c, 14, 33, 95
7, 37440, Note_on_c, 14, 38, 95
7, 38100, Note_off_c, 14, 38, 95
7, 38400, Note_on_c, 14, 40, 95
7, 39060, Note_off_c, 14, 40, 95
7, 39840, Note_on_c, 14, 40, 95
7, 40140, Note_off_c, 14, 40, 95
7, 40320, Note_on_c, 14, 35, 95
7, 40980, Note_off_c, 14, 35, 95
7, 41280, Note_on_c, 14, 40, 95
7, 41580, Note_off_c, 14, 40, 95
7, 41760, Note_on_c, 14, 38, 95
7, 41940, Note_off_c, 14, 38, 95
7, 42000, Note_on_c, 14, 40, 95
7, 42180, Note_off_c, 14, 40, 95
7, 42240, Note_on_c, 14, 38, 95
7, 43500, Note_off_c, 14, 38, 95
7, 44160, Note_on_c, 14, 33, 95
7, 44820, Note_off_c, 14, 33, 95
7, 45120, Note_on_c, 14, 38, 95
7, 45420, Note_off_c, 14, 38, 95
7, 46080, Note_on_c, 14, 40, 95
7, 46740, Note_off_c, 14, 40, 95
7, 47520, Note_on_c, 14, 40, 95
7, 47820, Note_off_c, 14, 40, 95
7, 48000, Note_on_c, 14, 35, 95
7, 48660, Note_off_c, 14, 35, 95
7, 48960, Note_on_c, 14, 40, 95
7, 49140, Note_off_c, 14, 40, 95
7, 49440, Note_on_c, 14, 38, 95
7, 49620, Note_off_c, 14, 38, 95
7, 49680, Note_on_c, 14, 40, 95
7, 49860, Note_off_c, 14, 40, 95
7, 49920, Note_on_c, 14, 38, 95
7, 51180, Note_off_c, 14, 38, 95
7, 51840, Note_on_c, 14, 33, 95
7, 52500, Note_off_c, 14, 33, 95
7, 52800, Note_on_c, 14, 38, 95
7, 53460, Note_off_c, 14, 38, 95
7, 53760, Note_on_c, 14, 40, 95
7, 54720, Note_off_c, 14, 40, 95
7, 55680, Note_on_c, 14, 35, 95
7, 56340, Note_off_c, 14, 35, 95
7, 56640, Note_on_c, 14, 40, 95
7, 56940, Note_off_c, 14, 40, 95
7, 57120, Note_on_c, 14, 36, 95
7, 57300, Note_off_c, 14, 36, 95
7, 57360, Note_on_c, 14, 37, 95
7, 57540, Note_off_c, 14, 37, 95
7, 57600, Note_on_c, 14, 38, 95
7, 58860, Note_off_c, 14, 38, 95
7, 59520, Note_on_c, 14, 33, 95
7, 60180, Note_off_c, 14, 33, 95
7, 60480, Note_on_c, 14, 38, 95
7, 60780, Note_off_c, 14, 38, 95
7, 60960, Note_on_c, 14, 40, 95
7, 62400, Note_off_c, 14, 40, 95
7, 62880, Note_on_c, 14, 38, 95
7, 64140, Note_off_c, 14, 38, 95
7, 64800, Note_on_c, 14, 36, 95
7, 66540, Note_off_c, 14, 36, 95
7, 67200, Note_on_c, 14, 35, 95
7, 67500, Note_off_c, 14, 35, 95
7, 69120, Note_on_c, 14, 40, 95
7, 70380, Note_off_c, 14, 40, 95
7, 72480, Note_on_c, 14, 38, 95
7, 72660, Note_off_c, 14, 38, 95
7, 72720, Note_on_c, 14, 40, 95
7, 72900, Note_off_c, 14, 40, 95
7, 72960, Note_on_c, 14, 38, 95
7, 74220, Note_off_c, 14, 38, 95
7, 74640, Note_on_c, 14, 38, 95
7, 74820, Note_off_c, 14, 38, 95
7, 74880, Note_on_c, 14, 33, 95
7, 75540, Note_off_c, 14, 33, 95
7, 75840, Note_on_c, 14, 38, 95
7, 76500, Note_off_c, 14, 38, 95
7, 76800, Note_on_c, 14, 40, 95
7, 77460, Note_off_c, 14, 40, 95
7, 78720, Note_on_c, 14, 35, 95
7, 79380, Note_off_c, 14, 35, 95
7, 79680, Note_on_c, 14, 40, 95
7, 79860, Note_off_c, 14, 40, 95
7, 80160, Note_on_c, 14, 38, 95
7, 80340, Note_off_c, 14, 38, 95
7, 80400, Note_on_c, 14, 40, 95
7, 80580, Note_off_c, 14, 40, 95
7, 80640, Note_on_c, 14, 38, 95
7, 81900, Note_off_c, 14, 38, 95
7, 82560, Note_on_c, 14, 33, 95
7, 83220, Note_off_c, 14, 33, 95
7, 83520, Note_on_c, 14, 38, 95
7, 84180, Note_off_c, 14, 38, 95
7, 84480, Note_on_c, 14, 40, 95
7, 85140, Note_off_c, 14, 40, 95
7, 86400, Note_on_c, 14, 35, 95
7, 86700, Note_off_c, 14, 35, 95
7, 87360, Note_on_c, 14, 40, 95
7, 87660, Note_off_c, 14, 40, 95
7, 87840, Note_on_c, 14, 35, 95
7, 88140, Note_off_c, 14, 35, 95
7, 88320, Note_on_c, 14, 38, 95
7, 89580, Note_off_c, 14, 38, 95
7, 90240, Note_on_c, 14, 33, 95
7, 90900, Note_off_c, 14, 33, 95
7, 91200, Note_on_c, 14, 38, 95
7, 91860, Note_off_c, 14, 38, 95
7, 92160, Note_on_c, 14, 40, 95
7, 92820, Note_off_c, 14, 40, 95
7, 93600, Note_on_c, 14, 40, 95
7, 93900, Note_off_c, 14, 40, 95
7, 94080, Note_on_c, 14, 35, 95
7, 94740, Note_off_c, 14, 35, 95
7, 95520, Note_on_c, 14, 38, 95
7, 95700, Note_off_c, 14, 38, 95
7, 95760, Note_on_c, 14, 40, 95
7, 95940, Note_off_c, 14, 40, 95
7, 96000, Note_on_c, 14, 38, 95
7, 97260, Note_off_c, 14, 38, 95
7, 97920, Note_on_c, 14, 33, 95
7, 98580, Note_off_c, 14, 33, 95
7, 99360, Note_on_c, 14, 38, 95
7, 99540, Note_off_c, 14, 38, 95
7, 99600, Note_on_c, 14, 39, 95
7, 99780, Note_off_c, 14, 39, 95
7, 99840, Note_on_c, 14, 40, 95
7, 100500, Note_off_c, 14, 40, 95
7, 101760, Note_on_c, 14, 35, 95
7, 102420, Note_off_c, 14, 35, 95
7, 102720, Note_on_c, 14, 40, 95
7, 102900, Note_off_c, 14, 40, 95
7, 103200, Note_on_c, 14, 35, 95
7, 103380, Note_off_c, 14, 35, 95
7, 103680, Note_on_c, 14, 38, 95
7, 104940, Note_off_c, 14, 38, 95
7, 105600, Note_on_c, 14, 33, 95
7, 106260, Note_off_c, 14, 33, 95
7, 107040, Note_on_c, 14, 38, 95
7, 107220, Note_off_c, 14, 38, 95
7, 107280, Note_on_c, 14, 39, 95
7, 107460, Note_off_c, 14, 39, 95
7, 107520, Note_on_c, 14, 40, 95
7, 108780, Note_off_c, 14, 40, 95
7, 109440, Note_on_c, 14, 35, 95
7, 110100, Note_off_c, 14, 35, 95
7, 110400, Note_on_c, 14, 40, 95
7, 110700, Note_off_c, 14, 40, 95
7, 110880, Note_on_c, 14, 38, 95
7, 111060, Note_off_c, 14, 38, 95
7, 111120, Note_on_c, 14, 40, 95
7, 111300, Note_off_c, 14, 40, 95
7, 111360, Note_on_c, 14, 38, 95
7, 112020, Note_off_c, 14, 38, 95
7, 113280, Note_on_c, 14, 33, 95
7, 113940, Note_off_c, 14, 33, 95
7, 114720, Note_on_c, 14, 40, 95
7, 116160, Note_off_c, 14, 40, 95
7, 116640, Note_on_c, 14, 38, 95
7, 117900, Note_off_c, 14, 38, 95
7, 118560, Note_on_c, 14, 36, 95
7, 120300, Note_off_c, 14, 36, 95
7, 120960, Note_on_c, 14, 35, 95
7, 121260, Note_off_c, 14, 35, 95
7, 122880, Note_on_c, 14, 40, 95
7, 124140, Note_off_c, 14, 40, 95
7, 124800, Note_on_c, 14, 35, 95
7, 125100, Note_off_c, 14, 35, 95
7, 126240, Note_on_c, 14, 38, 95
7, 126420, Note_off_c, 14, 38, 95
7, 126480, Note_on_c, 14, 40, 95
7, 126660, Note_off_c, 14, 40, 95
7, 126720, Note_on_c, 14, 38, 95
7, 127980, Note_off_c, 14, 38, 95
7, 128640, Note_on_c, 14, 33, 95
7, 129300, Note_off_c, 14, 33, 95
7, 129600, Note_on_c, 14, 38, 95
7, 130260, Note_off_c, 14, 38, 95
7, 130560, Note_on_c, 14, 40, 95
7, 131220, Note_off_c, 14, 40, 95
7, 132480, Note_on_c, 14, 35, 95
7, 132780, Note_off_c, 14, 35, 95
7, 133920, Note_on_c, 14, 38, 95
7, 134100, Note_off_c, 14, 38, 95
7, 134160, Note_on_c, 14, 40, 95
7, 134340, Note_off_c, 14, 40, 95
7, 134400, Note_on_c, 14, 38, 95
7, 135660, Note_off_c, 14, 38, 95
7, 136320, Note_on_c, 14, 33, 95
7, 136980, Note_off_c, 14, 33, 95
7, 137280, Note_on_c, 14, 38, 95
7, 137940, Note_off_c, 14, 38, 95
7, 138240, Note_on_c, 14, 40, 95
7, 138900, Note_off_c, 14, 40, 95
7, 140160, Note_on_c, 14, 35, 95
7, 140820, Note_off_c, 14, 35, 95
7, 142080, Note_on_c, 14, 38, 95
7, 142740, Note_off_c, 14, 38, 95
7, 144000, Note_on_c, 14, 33, 95
7, 144660, Note_off_c, 14, 33, 95
7, 144960, Note_on_c, 14, 38, 95
7, 145620, Note_off_c, 14, 38, 95
7, 145920, Note_on_c, 14, 40, 95
7, 146580, Note_off_c, 14, 40, 95
7, 147360, Note_on_c, 14, 40, 95
7, 147660, Note_off_c, 14, 40, 95
7, 147840, Note_on_c, 14, 35, 95
7, 148500, Note_off_c, 14, 35, 95
7, 148800, Note_on_c, 14, 40, 95
7, 149460, Note_off_c, 14, 40, 95
7, 149760, Note_on_c, 14, 38, 95
7, 150420, Note_off_c, 14, 38, 95
7, 151680, Note_on_c, 14, 33, 95
7, 152340, Note_off_c, 14, 33, 95
7, 152640, Note_on_c, 14, 38, 95
7, 153300, Note_off_c, 14, 38, 95
7, 153600, Note_on_c, 14, 40, 95
7, 154560, Note_off_c, 14, 40, 95
7, 155520, Note_on_c, 14, 35, 95
7, 156180, Note_off_c, 14, 35, 95
7, 156480, Note_on_c, 14, 40, 95
7, 157140, Note_off_c, 14, 40, 95
7, 157440, Note_on_c, 14, 38, 95
7, 158400, Note_off_c, 14, 38, 95
7, 159360, Note_on_c, 14, 33, 95
7, 160020, Note_off_c, 14, 33, 95
7, 160320, Note_on_c, 14, 38, 95
7, 160980, Note_off_c, 14, 38, 95
7, 161280, Note_on_c, 14, 40, 95
7, 162240, Note_off_c, 14, 40, 95
7, 163200, Note_on_c, 14, 35, 95
7, 163860, Note_off_c, 14, 35, 95
7, 164160, Note_on_c, 14, 40, 95
7, 164340, Note_off_c, 14, 40, 95
7, 164640, Note_on_c, 14, 35, 95
7, 164940, Note_off_c, 14, 35, 95
7, 165120, Note_on_c, 14, 38, 95
7, 166080, Note_off_c, 14, 38, 95
7, 167040, Note_on_c, 14, 33, 95
7, 167700, Note_off_c, 14, 33, 95
7, 168000, Note_on_c, 14, 33, 95
7, 168180, Note_off_c, 14, 33, 95
7, 168240, Note_on_c, 14, 35, 95
7, 168420, Note_off_c, 14, 35, 95
7, 168480, Note_on_c, 14, 38, 95
7, 168780, Note_off_c, 14, 38, 95
7, 168960, Note_on_c, 14, 40, 95
7, 169920, Note_off_c, 14, 40, 95
7, 170880, Note_on_c, 14, 35, 95
7, 171540, Note_off_c, 14, 35, 95
7, 171840, Note_on_c, 14, 40, 95
7, 172020, Note_off_c, 14, 40, 95
7, 172320, Note_on_c, 14, 35, 95
7, 172500, Note_off_c, 14, 35, 95
7, 172800, Note_on_c, 14, 38, 95
7, 173760, Note_off_c, 14, 38, 95
7, 174720, Note_on_c, 14, 33, 95
7, 175380, Note_off_c, 14, 33, 95
7, 175680, Note_on_c, 14, 38, 95
7, 176340, Note_off_c, 14, 38, 95
7, 176640, Note_on_c, 14, 40, 95
7, 177600, Note_off_c, 14, 40, 95
7, 178560, Note_on_c, 14, 35, 95
7, 179220, Note_off_c, 14, 35, 95
7, 179520, Note_on_c, 14, 40, 95
7, 179820, Note_off_c, 14, 40, 95
7, 180480, Note_on_c, 14, 38, 95
7, 181740, Note_off_c, 14, 38, 95
7, 182400, Note_on_c, 14, 33, 95
7, 183360, Note_off_c, 14, 33, 95
7, 183840, Note_on_c, 14, 38, 95
7, 184140, Note_off_c, 14, 38, 95
7, 184320, Note_on_c, 14, 40, 95
7, 185280, Note_off_c, 14, 40, 95
7, 186240, Note_on_c, 14, 35, 95
7, 186900, Note_off_c, 14, 35, 95
7, 187200, Note_on_c, 14, 40, 95
7, 187380, Note_off_c, 14, 40, 95
7, 187680, Note_on_c, 14, 35, 95
7, 187860, Note_off_c, 14, 35, 95
7, 188160, Note_on_c, 14, 38, 95
7, 189420, Note_off_c, 14, 38, 95
7, 190080, Note_on_c, 14, 33, 95
7, 190740, Note_off_c, 14, 33, 95
7, 191040, Note_on_c, 14, 33, 95
7, 191220, Note_off_c, 14, 33, 95
7, 191280, Note_on_c, 14, 35, 95
7, 191460, Note_off_c, 14, 35, 95
7, 191520, Note_on_c, 14, 38, 95
7, 191820, Note_off_c, 14, 38, 95
7, 192000, Note_on_c, 14, 40, 95
7, 192960, Note_off_c, 14, 40, 95
7, 193920, Note_on_c, 14, 35, 95
7, 194580, Note_off_c, 14, 35, 95
7, 194880, Note_on_c, 14, 40, 95
7, 195180, Note_off_c, 14, 40, 95
7, 195600, Note_on_c, 14, 38, 95
7, 195780, Note_off_c, 14, 38, 95
7, 195840, Note_on_c, 14, 38, 95
7, 197100, Note_off_c, 14, 38, 95
7, 197760, Note_on_c, 14, 33, 95
7, 198060, Note_off_c, 14, 33, 95
7, 198720, Note_on_c, 14, 33, 95
7, 198900, Note_off_c, 14, 33, 95
7, 198960, Note_on_c, 14, 35, 95
7, 199140, Note_off_c, 14, 35, 95
7, 199200, Note_on_c, 14, 38, 95
7, 199500, Note_off_c, 14, 38, 95
7, 199680, Note_on_c, 14, 40, 95
7, 200640, Note_off_c, 14, 40, 95
7, 201600, Note_on_c, 14, 35, 95
7, 202560, Note_off_c, 14, 35, 95
7, 203520, Note_on_c, 14, 38, 95
7, 204480, Note_off_c, 14, 38, 95
7, 205440, Note_on_c, 14, 33, 95
7, 206100, Note_off_c, 14, 33, 95
7, 206400, Note_on_c, 14, 38, 95
7, 207060, Note_off_c, 14, 38, 95
7, 207360, Note_on_c, 14, 40, 95
7, 208320, Note_off_c, 14, 40, 95
7, 209280, Note_on_c, 14, 35, 95
7, 209940, Note_off_c, 14, 35, 95
7, 210240, Note_on_c, 14, 40, 95
7, 210540, Note_off_c, 14, 40, 95
7, 211200, Note_on_c, 14, 38, 95
7, 212460, Note_off_c, 14, 38, 95
7, 213120, Note_on_c, 14, 33, 95
7, 213780, Note_off_c, 14, 33, 95
7, 214080, Note_on_c, 14, 38, 95
7, 214740, Note_off_c, 14, 38, 95
7, 215040, Note_on_c, 14, 40, 95
7, 215700, Note_off_c, 14, 40, 95
7, 216960, Note_on_c, 14, 35, 95
7, 217620, Note_off_c, 14, 35, 95
7, 217920, Note_on_c, 14, 40, 95
7, 218220, Note_off_c, 14, 40, 95
7, 218880, Note_on_c, 14, 38, 95
7, 220140, Note_off_c, 14, 38, 95
7, 220800, Note_on_c, 14, 33, 95
7, 221460, Note_off_c, 14, 33, 95
7, 221760, Note_on_c, 14, 33, 95
7, 221940, Note_off_c, 14, 33, 95
7, 222000, Note_on_c, 14, 35, 95
7, 222180, Note_off_c, 14, 35, 95
7, 222240, Note_on_c, 14, 38, 95
7, 222540, Note_off_c, 14, 38, 95
7, 222720, Note_on_c, 14, 40, 95
7, 223380, Note_off_c, 14, 40, 95
7, 224640, Note_on_c, 14, 35, 95
7, 225300, Note_off_c, 14, 35, 95
7, 225600, Note_on_c, 14, 40, 95
7, 225780, Note_off_c, 14, 40, 95
7, 226080, Note_on_c, 14, 35, 95
7, 226380, Note_off_c, 14, 35, 95
7, 226560, Note_on_c, 14, 38, 95
7, 227820, Note_off_c, 14, 38, 95
7, 228480, Note_on_c, 14, 33, 95
7, 229140, Note_off_c, 14, 33, 95
7, 229440, Note_on_c, 14, 38, 95
7, 230100, Note_off_c, 14, 38, 95
7, 230400, Note_on_c, 14, 40, 95
7, 231060, Note_off_c, 14, 40, 95
7, 231840, Note_on_c, 14, 40, 95
7, 232140, Note_off_c, 14, 40, 95
7, 232320, Note_on_c, 14, 35, 95
7, 232980, Note_off_c, 14, 35, 95
7, 233280, Note_on_c, 14, 40, 95
7, 233580, Note_off_c, 14, 40, 95
7, 233760, Note_on_c, 14, 38, 95
7, 233940, Note_off_c, 14, 38, 95
7, 234000, Note_on_c, 14, 40, 95
7, 234180, Note_off_c, 14, 40, 95
7, 234240, Note_on_c, 14, 38, 95
7, 235500, Note_off_c, 14, 38, 95
7, 236160, Note_on_c, 14, 33, 95
7, 236820, Note_off_c, 14, 33, 95
7, 237120, Note_on_c, 14, 38, 95
7, 237420, Note_off_c, 14, 38, 95
7, 238080, Note_on_c, 14, 40, 95
7, 238740, Note_off_c, 14, 40, 95
7, 239520, Note_on_c, 14, 40, 95
7, 239820, Note_off_c, 14, 40, 95
7, 240000, Note_on_c, 14, 35, 95
7, 240660, Note_off_c, 14, 35, 95
7, 240960, Note_on_c, 14, 40, 95
7, 241140, Note_off_c, 14, 40, 95
7, 241440, Note_on_c, 14, 38, 95
7, 241620, Note_off_c, 14, 38, 95
7, 241680, Note_on_c, 14, 40, 95
7, 241860, Note_off_c, 14, 40, 95
7, 241920, Note_on_c, 14, 38, 95
7, 243180, Note_off_c, 14, 38, 95
7, 243840, Note_on_c, 14, 33, 95
7, 244500, Note_off_c, 14, 33, 95
7, 244800, Note_on_c, 14, 38, 95
7, 245460, Note_off_c, 14, 38, 95
7, 245760, Note_on_c, 14, 40, 95
7, 246720, Note_off_c, 14, 40, 95
7, 247680, Note_on_c, 14, 35, 95
7, 248340, Note_off_c, 14, 35, 95
7, 248640, Note_on_c, 14, 40, 95
7, 248940, Note_off_c, 14, 40, 95
7, 249120, Note_on_c, 14, 38, 95
7, 249300, Note_off_c, 14, 38, 95
7, 249360, Note_on_c, 14, 37, 95
7, 249540, Note_off_c, 14, 37, 95
7, 249600, Note_on_c, 14, 38, 95
7, 250860, Note_off_c, 14, 38, 95
7, 251520, Note_on_c, 14, 33, 95
7, 252180, Note_off_c, 14, 33, 95
7, 252480, Note_on_c, 14, 38, 95
7, 252780, Note_off_c, 14, 38, 95
7, 252960, Note_on_c, 14, 40, 95
7, 254400, Note_off_c, 14, 40, 95
7, 254880, Note_on_c, 14, 38, 95
7, 256140, Note_off_c, 14, 38, 95
7, 256800, Note_on_c, 14, 36, 95
7, 258540, Note_off_c, 14, 36, 95
7, 259200, Note_on_c, 14, 35, 95
7, 259500, Note_off_c, 14, 35, 95
7, 261120, Note_on_c, 14, 40, 95
7, 261780, Note_off_c, 14, 40, 95
7, 263040, Note_on_c, 14, 35, 95
7, 263700, Note_off_c, 14, 35, 95
7, 264000, Note_on_c, 14, 40, 95
7, 264300, Note_off_c, 14, 40, 95
7, 264480, Note_on_c, 14, 38, 95
7, 264660, Note_off_c, 14, 38, 95
7, 264720, Note_on_c, 14, 40, 95
7, 264900, Note_off_c, 14, 40, 95
7, 264960, Note_on_c, 14, 38, 95
7, 266220, Note_off_c, 14, 38, 95
7, 266880, Note_on_c, 14, 33, 95
7, 267540, Note_off_c, 14, 33, 95
7, 267840, Note_on_c, 14, 38, 95
7, 268140, Note_off_c, 14, 38, 95
7, 268800, Note_on_c, 14, 40, 95
7, 269460, Note_off_c, 14, 40, 95
7, 270720, Note_on_c, 14, 35, 95
7, 271380, Note_off_c, 14, 35, 95
7, 271680, Note_on_c, 14, 40, 95
7, 272340, Note_off_c, 14, 40, 95
7, 272640, Note_on_c, 14, 38, 95
7, 273900, Note_off_c, 14, 38, 95
7, 274560, Note_on_c, 14, 33, 95
7, 275220, Note_off_c, 14, 33, 95
7, 275520, Note_on_c, 14, 38, 95
7, 275820, Note_off_c, 14, 38, 95
7, 276000, Note_on_c, 14, 40, 95
7, 277440, Note_off_c, 14, 40, 95
7, 277920, Note_on_c, 14, 38, 95
7, 279180, Note_off_c, 14, 38, 95
7, 279840, Note_on_c, 14, 36, 95
7, 281580, Note_off_c, 14, 36, 95
7, 282240, Note_on_c, 14, 35, 95
7, 282540, Note_off_c, 14, 35, 95
7, 284160, Note_on_c, 14, 40, 95
7, 284820, Note_off_c, 14, 40, 95
7, 286080, Note_on_c, 14, 35, 95
7, 286380, Note_off_c, 14, 35, 95
7, 287040, Note_on_c, 14, 40, 95
7, 287340, Note_off_c, 14, 40, 95
7, 287520, Note_on_c, 14, 35, 95
7, 287820, Note_off_c, 14, 35, 95
7, 288000, Note_on_c, 14, 38, 95
7, 289260, Note_off_c, 14, 38, 95
7, 289920, Note_on_c, 14, 33, 95
7, 290580, Note_off_c, 14, 33, 95
7, 290880, Note_on_c, 14, 38, 95
7, 291540, Note_off_c, 14, 38, 95
7, 291840, Note_on_c, 14, 40, 95
7, 292500, Note_off_c, 14, 40, 95
7, 293280, Note_on_c, 14, 40, 95
7, 293580, Note_off_c, 14, 40, 95
7, 293760, Note_on_c, 14, 35, 95
7, 294420, Note_off_c, 14, 35, 95
7, 295200, Note_on_c, 14, 38, 95
7, 295380, Note_off_c, 14, 38, 95
7, 295440, Note_on_c, 14, 40, 95
7, 295620, Note_off_c, 14, 40, 95
7, 295680, Note_on_c, 14, 38, 95
7, 296940, Note_off_c, 14, 38, 95
7, 297600, Note_on_c, 14, 33, 95
7, 298260, Note_off_c, 14, 33, 95
7, 298560, Note_on_c, 14, 38, 95
7, 299220, Note_off_c, 14, 38, 95
7, 299520, Note_on_c, 14, 40, 95
7, 300480, Note_off_c, 14, 40, 95
7, 301440, Note_on_c, 14, 35, 95
7, 302100, Note_off_c, 14, 35, 95
7, 302400, Note_on_c, 14, 40, 95
7, 302700, Note_off_c, 14, 40, 95
7, 303360, Note_on_c, 14, 38, 95
7, 304620, Note_off_c, 14, 38, 95
7, 305280, Note_on_c, 14, 33, 95
7, 305940, Note_off_c, 14, 33, 95
7, 306240, Note_on_c, 14, 38, 95
7, 306900, Note_off_c, 14, 38, 95
7, 307200, Note_on_c, 14, 40, 95
7, 308160, Note_off_c, 14, 40, 95
7, 309120, Note_on_c, 14, 35, 95
7, 309780, Note_off_c, 14, 35, 95
7, 310080, Note_on_c, 14, 40, 95
7, 310740, Note_off_c, 14, 40, 95
7, 311040, Note_on_c, 14, 38, 95
7, 312300, Note_off_c, 14, 38, 95
7, 312960, Note_on_c, 14, 33, 95
7, 313620, Note_off_c, 14, 33, 95
7, 313920, Note_on_c, 14, 38, 95
7, 314580, Note_off_c, 14, 38, 95
7, 314880, Note_on_c, 14, 40, 95
7, 315840, Note_off_c, 14, 40, 95
7, 316800, Note_on_c, 14, 35, 95
7, 317460, Note_off_c, 14, 35, 95
7, 317760, Note_on_c, 14, 40, 95
7, 318060, Note_off_c, 14, 40, 95
7, 318720, Note_on_c, 14, 38, 95
7, 319980, Note_off_c, 14, 38, 95
7, 320640, Note_on_c, 14, 33, 95
7, 321300, Note_off_c, 14, 33, 95
7, 321600, Note_on_c, 14, 38, 95
7, 322260, Note_off_c, 14, 38, 95
7, 322560, Note_on_c, 14, 40, 95
7, 323520, Note_off_c, 14, 40, 95
7, 324000, Note_on_c, 14, 40, 95
7, 324180, Note_off_c, 14, 40, 95
7, 324480, Note_on_c, 14, 35, 95
7, 325140, Note_off_c, 14, 35, 95
7, 325440, Note_on_c, 14, 40, 95
7, 326100, Note_off_c, 14, 40, 95
7, 326400, Note_on_c, 14, 38, 95
7, 327660, Note_off_c, 14, 38, 95
7, 328320, Note_on_c, 14, 33, 95
7, 328980, Note_off_c, 14, 33, 95
7, 329280, Note_on_c, 14, 38, 95
7, 329940, Note_off_c, 14, 38, 95
7, 330240, Note_on_c, 14, 40, 95
7, 331200, Note_off_c, 14, 40, 95
7, 332160, Note_on_c, 14, 35, 95
7, 332820, Note_off_c, 14, 35, 95
7, 333120, Note_on_c, 14, 40, 95
7, 333420, Note_off_c, 14, 40, 95
7, 334080, Note_on_c, 14, 38, 95
7, 335340, Note_off_c, 14, 38, 95
7, 336000, Note_on_c, 14, 33, 95
7, 336660, Note_off_c, 14, 33, 95
7, 336960, Note_on_c, 14, 38, 95
7, 337620, Note_off_c, 14, 38, 95
7, 337920, Note_on_c, 14, 40, 95
7, 338880, Note_off_c, 14, 40, 95
7, 339840, Note_on_c, 14, 35, 95
7, 340500, Note_off_c, 14, 35, 95
7, 340800, Note_on_c, 14, 40, 95
7, 341100, Note_off_c, 14, 40, 95
7, 341100, End_track
8, 0, Start_track
8, 0, Pitch_bend_c, 9, 8192
8, 0, Control_c, 9, 7, 127
8, 0, Control_c, 9, 10, 63
8, 0, Control_c, 9, 93, 0
8, 0, Control_c, 9, 91, 0
8, 0, Control_c, 9, 95, 0
8, 0, Control_c, 9, 92, 0
8, 0, Control_c, 9, 11, 127
8, 0, Program_c, 9, 0
8, 0, Note_on_c, 9, 42, 95
8, 0, Note_on_c, 9, 49, 95
8, 0, Note_on_c, 9, 45, 95
8, 180, Note_off_c, 9, 42, 95
8, 180, Note_off_c, 9, 49, 95
8, 180, Note_off_c, 9, 45, 95
8, 480, Note_on_c, 9, 42, 95
8, 660, Note_off_c, 9, 42, 95
8, 720, Note_on_c, 9, 42, 95
8, 900, Note_off_c, 9, 42, 95
8, 960, Note_on_c, 9, 42, 95
8, 960, Note_on_c, 9, 38, 95
8, 1140, Note_off_c, 9, 42, 95
8, 1140, Note_off_c, 9, 38, 95
8, 1440, Note_on_c, 9, 42, 95
8, 1620, Note_off_c, 9, 42, 95
8, 1680, Note_on_c, 9, 42, 95
8, 1860, Note_off_c, 9, 42, 95
8, 1920, Note_on_c, 9, 42, 95
8, 1920, Note_on_c, 9, 45, 95
8, 2100, Note_off_c, 9, 42, 95
8, 2100, Note_off_c, 9, 45, 95
8, 2400, Note_on_c, 9, 42, 95
8, 2580, Note_off_c, 9, 42, 95
8, 2640, Note_on_c, 9, 42, 95
8, 2820, Note_off_c, 9, 42, 95
8, 2880, Note_on_c, 9, 42, 95
8, 2880, Note_on_c, 9, 38, 95
8, 3060, Note_off_c, 9, 42, 95
8, 3060, Note_off_c, 9, 38, 95
8, 3360, Note_on_c, 9, 42, 95
8, 3540, Note_off_c, 9, 42, 95
8, 3600, Note_on_c, 9, 42, 95
8, 3780, Note_off_c, 9, 42, 95
8, 3840, Note_on_c, 9, 42, 95
8, 3840, Note_on_c, 9, 45, 95
8, 4020, Note_off_c, 9, 42, 95
8, 4020, Note_off_c, 9, 45, 95
8, 4320, Note_on_c, 9, 42, 95
8, 4500, Note_off_c, 9, 42, 95
8, 4560, Note_on_c, 9, 42, 95
8, 4740, Note_off_c, 9, 42, 95
8, 4800, Note_on_c, 9, 42, 95
8, 4800, Note_on_c, 9, 38, 95
8, 4980, Note_off_c, 9, 42, 95
8, 4980, Note_off_c, 9, 38, 95
8, 5280, Note_on_c, 9, 42, 95
8, 5460, Note_off_c, 9, 42, 95
8, 5520, Note_on_c, 9, 42, 95
8, 5700, Note_off_c, 9, 42, 95
8, 5760, Note_on_c, 9, 42, 95
8, 5760, Note_on_c, 9, 45, 95
8, 5940, Note_off_c, 9, 42, 95
8, 5940, Note_off_c, 9, 45, 95
8, 6240, Note_on_c, 9, 42, 95
8, 6420, Note_off_c, 9, 42, 95
8, 6480, Note_on_c, 9, 42, 95
8, 6660, Note_off_c, 9, 42, 95
8, 6720, Note_on_c, 9, 42, 95
8, 6720, Note_on_c, 9, 38, 95
8, 6900, Note_off_c, 9, 42, 95
8, 6900, Note_off_c, 9, 38, 95
8, 7200, Note_on_c, 9, 42, 95
8, 7380, Note_off_c, 9, 42, 95
8, 7440, Note_on_c, 9, 42, 95
8, 7620, Note_off_c, 9, 42, 95
8, 7680, Note_on_c, 9, 42, 95
8, 7680, Note_on_c, 9, 45, 95
8, 7860, Note_off_c, 9, 42, 95
8, 7860, Note_off_c, 9, 45, 95
8, 8160, Note_on_c, 9, 42, 95
8, 8340, Note_off_c, 9, 42, 95
8, 8400, Note_on_c, 9, 42, 95
8, 8580, Note_off_c, 9, 42, 95
8, 8640, Note_on_c, 9, 42, 95
8, 8640, Note_on_c, 9, 38, 95
8, 8820, Note_off_c, 9, 42, 95
8, 8820, Note_off_c, 9, 38, 95
8, 9120, Note_on_c, 9, 42, 95
8, 9300, Note_off_c, 9, 42, 95
8, 9360, Note_on_c, 9, 42, 95
8, 9540, Note_off_c, 9, 42, 95
8, 9600, Note_on_c, 9, 42, 95
8, 9600, Note_on_c, 9, 45, 95
8, 9780, Note_off_c, 9, 42, 95
8, 9780, Note_off_c, 9, 45, 95
8, 10080, Note_on_c, 9, 42, 95
8, 10260, Note_off_c, 9, 42, 95
8, 10320, Note_on_c, 9, 42, 95
8, 10500, Note_off_c, 9, 42, 95
8, 10560, Note_on_c, 9, 42, 95
8, 10560, Note_on_c, 9, 38, 95
8, 10740, Note_off_c, 9, 42, 95
8, 10740, Note_off_c, 9, 38, 95
8, 11040, Note_on_c, 9, 42, 95
8, 11220, Note_off_c, 9, 42, 95
8, 11280, Note_on_c, 9, 42, 95
8, 11460, Note_off_c, 9, 42, 95
8, 11520, Note_on_c, 9, 42, 95
8, 11520, Note_on_c, 9, 45, 95
8, 11700, Note_off_c, 9, 42, 95
8, 11700, Note_off_c, 9, 45, 95
8, 12000, Note_on_c, 9, 42, 95
8, 12180, Note_off_c, 9, 42, 95
8, 12240, Note_on_c, 9, 42, 95
8, 12420, Note_off_c, 9, 42, 95
8, 12480, Note_on_c, 9, 42, 95
8, 12480, Note_on_c, 9, 38, 95
8, 12660, Note_off_c, 9, 42, 95
8, 12660, Note_off_c, 9, 38, 95
8, 12960, Note_on_c, 9, 42, 95
8, 13140, Note_off_c, 9, 42, 95
8, 13200, Note_on_c, 9, 42, 95
8, 13380, Note_off_c, 9, 42, 95
8, 13440, Note_on_c, 9, 38, 95
8, 13560, Note_off_c, 9, 38, 95
8, 13560, Note_on_c, 9, 38, 95
8, 13740, Note_off_c, 9, 38, 95
8, 13740, Note_on_c, 9, 38, 95
8, 13860, Note_off_c, 9, 38, 95
8, 13860, Note_on_c, 9, 38, 95
8, 13980, Note_off_c, 9, 38, 95
8, 13980, Note_on_c, 9, 38, 95
8, 14100, Note_off_c, 9, 38, 95
8, 14100, Note_on_c, 9, 38, 95
8, 14220, Note_off_c, 9, 38, 95
8, 14220, Note_on_c, 9, 38, 95
8, 14340, Note_off_c, 9, 38, 95
8, 14340, Note_on_c, 9, 38, 95
8, 14460, Note_off_c, 9, 38, 95
8, 14460, Note_on_c, 9, 38, 95
8, 14580, Note_off_c, 9, 38, 95
8, 14580, Note_on_c, 9, 38, 95
8, 14700, Note_off_c, 9, 38, 95
8, 14700, Note_on_c, 9, 38, 95
8, 14820, Note_off_c, 9, 38, 95
8, 14820, Note_on_c, 9, 38, 95
8, 14940, Note_off_c, 9, 38, 95
8, 14940, Note_on_c, 9, 38, 95
8, 15180, Note_off_c, 9, 38, 95
8, 15300, Note_on_c, 9, 42, 95
8, 15300, Note_on_c, 9, 49, 95
8, 15300, Note_on_c, 9, 45, 95
8, 15300, Note_on_c, 9, 38, 95
8, 15540, Note_off_c, 9, 42, 95
8, 15540, Note_off_c, 9, 49, 95
8, 15540, Note_off_c, 9, 45, 95
8, 15540, Note_off_c, 9, 38, 95
8, 15840, Note_on_c, 9, 42, 95
8, 16020, Note_off_c, 9, 42, 95
8, 16020, Note_on_c, 9, 42, 95
8, 16260, Note_off_c, 9, 42, 95
8, 16260, Note_on_c, 9, 42, 95
8, 16260, Note_on_c, 9, 38, 95
8, 16500, Note_off_c, 9, 42, 95
8, 16500, Note_off_c, 9, 38, 95
8, 16800, Note_on_c, 9, 42, 95
8, 16980, Note_off_c, 9, 42, 95
8, 16980, Note_on_c, 9, 42, 95
8, 17220, Note_off_c, 9, 42, 95
8, 17220, Note_on_c, 9, 42, 95
8, 17220, Note_on_c, 9, 45, 95
8, 17460, Note_off_c, 9, 42, 95
8, 17460, Note_off_c, 9, 45, 95
8, 17760, Note_on_c, 9, 42, 95
8, 17940, Note_off_c, 9, 42, 95
8, 17940, Note_on_c, 9, 42, 95
8, 18180, Note_off_c, 9, 42, 95
8, 18180, Note_on_c, 9, 42, 95
8, 18180, Note_on_c, 9, 38, 95
8, 18420, Note_off_c, 9, 42, 95
8, 18420, Note_off_c, 9, 38, 95
8, 18720, Note_on_c, 9, 42, 95
8, 18900, Note_off_c, 9, 42, 95
8, 18900, Note_on_c, 9, 42, 95
8, 19140, Note_off_c, 9, 42, 95
8, 19140, Note_on_c, 9, 42, 95
8, 19140, Note_on_c, 9, 45, 95
8, 19380, Note_off_c, 9, 42, 95
8, 19380, Note_off_c, 9, 45, 95
8, 19680, Note_on_c, 9, 42, 95
8, 19860, Note_off_c, 9, 42, 95
8, 19860, Note_on_c, 9, 42, 95
8, 20100, Note_off_c, 9, 42, 95
8, 20100, Note_on_c, 9, 42, 95
8, 20100, Note_on_c, 9, 38, 95
8, 20340, Note_off_c, 9, 42, 95
8, 20340, Note_off_c, 9, 38, 95
8, 20640, Note_on_c, 9, 42, 95
8, 20820, Note_off_c, 9, 42, 95
8, 20820, Note_on_c, 9, 42, 95
8, 21060, Note_off_c, 9, 42, 95
8, 21060, Note_on_c, 9, 42, 95
8, 21060, Note_on_c, 9, 45, 95
8, 21300, Note_off_c, 9, 42, 95
8, 21300, Note_off_c, 9, 45, 95
8, 21600, Note_on_c, 9, 42, 95
8, 21780, Note_off_c, 9, 42, 95
8, 21780, Note_on_c, 9, 42, 95
8, 22020, Note_off_c, 9, 42, 95
8, 22020, Note_on_c, 9, 42, 95
8, 22020, Note_on_c, 9, 38, 95
8, 22260, Note_off_c, 9, 42, 95
8, 22260, Note_off_c, 9, 38, 95
8, 22560, Note_on_c, 9, 42, 95
8, 22740, Note_off_c, 9, 42, 95
8, 22740, Note_on_c, 9, 42, 95
8, 22980, Note_off_c, 9, 42, 95
8, 22980, Note_on_c, 9, 42, 95
8, 22980, Note_on_c, 9, 45, 95
8, 23220, Note_off_c, 9, 42, 95
8, 23220, Note_off_c, 9, 45, 95
8, 23520, Note_on_c, 9, 42, 95
8, 23700, Note_off_c, 9, 42, 95
8, 23700, Note_on_c, 9, 42, 95
8, 23940, Note_off_c, 9, 42, 95
8, 23940, Note_on_c, 9, 42, 95
8, 23940, Note_on_c, 9, 38, 95
8, 24180, Note_off_c, 9, 42, 95
8, 24180, Note_off_c, 9, 38, 95
8, 24480, Note_on_c, 9, 42, 95
8, 24660, Note_off_c, 9, 42, 95
8, 24660, Note_on_c, 9, 42, 95
8, 24900, Note_off_c, 9, 42, 95
8, 24900, Note_on_c, 9, 42, 95
8, 24900, Note_on_c, 9, 45, 95
8, 25140, Note_off_c, 9, 42, 95
8, 25140, Note_off_c, 9, 45, 95
8, 25440, Note_on_c, 9, 42, 95
8, 25620, Note_off_c, 9, 42, 95
8, 25620, Note_on_c, 9, 42, 95
8, 25860, Note_off_c, 9, 42, 95
8, 25860, Note_on_c, 9, 42, 95
8, 25860, Note_on_c, 9, 38, 95
8, 26100, Note_off_c, 9, 42, 95
8, 26100, Note_off_c, 9, 38, 95
8, 26400, Note_on_c, 9, 42, 95
8, 26580, Note_off_c, 9, 42, 95
8, 26580, Note_on_c, 9, 42, 95
8, 26820, Note_off_c, 9, 42, 95
8, 26820, Note_on_c, 9, 42, 95
8, 26820, Note_on_c, 9, 45, 95
8, 26880, Note_off_c, 9, 42, 95
8, 26880, Note_off_c, 9, 45, 95
8, 26880, Note_on_c, 9, 42, 95
8, 26880, Note_on_c, 9, 45, 95
8, 27060, Note_off_c, 9, 42, 95
8, 27060, Note_off_c, 9, 45, 95
8, 27360, Note_on_c, 9, 42, 95
8, 27540, Note_off_c, 9, 42, 95
8, 27600, Note_on_c, 9, 42, 95
8, 27780, Note_off_c, 9, 42, 95
8, 27840, Note_on_c, 9, 42, 95
8, 27840, Note_on_c, 9, 38, 95
8, 28020, Note_off_c, 9, 42, 95
8, 28020, Note_off_c, 9, 38, 95
8, 28320, Note_on_c, 9, 42, 95
8, 28500, Note_off_c, 9, 42, 95
8, 28560, Note_on_c, 9, 42, 95
8, 28740, Note_off_c, 9, 42, 95
8, 28800, Note_on_c, 9, 38, 95
8, 28920, Note_off_c, 9, 38, 95
8, 28920, Note_on_c, 9, 38, 95
8, 29100, Note_off_c, 9, 38, 95
8, 29100, Note_on_c, 9, 38, 95
8, 29220, Note_off_c, 9, 38, 95
8, 29220, Note_on_c, 9, 38, 95
8, 29340, Note_off_c, 9, 38, 95
8, 29340, Note_on_c, 9, 38, 95
8, 29460, Note_off_c, 9, 38, 95
8, 29460, Note_on_c, 9, 38, 95
8, 29580, Note_off_c, 9, 38, 95
8, 29580, Note_on_c, 9, 38, 95
8, 29700, Note_off_c, 9, 38, 95
8, 29700, Note_on_c, 9, 38, 95
8, 29820, Note_off_c, 9, 38, 95
8, 29820, Note_on_c, 9, 38, 95
8, 29940, Note_off_c, 9, 38, 95
8, 29940, Note_on_c, 9, 38, 95
8, 30060, Note_off_c, 9, 38, 95
8, 30060, Note_on_c, 9, 38, 95
8, 30180, Note_off_c, 9, 38, 95
8, 30180, Note_on_c, 9, 38, 95
8, 30300, Note_off_c, 9, 38, 95
8, 30300, Note_on_c, 9, 38, 95
8, 30540, Note_off_c, 9, 38, 95
8, 30660, Note_on_c, 9, 42, 95
8, 30660, Note_on_c, 9, 49, 95
8, 30660, Note_on_c, 9, 45, 95
8, 30660, Note_on_c, 9, 38, 95
8, 30900, Note_off_c, 9, 42, 95
8, 30900, Note_off_c, 9, 49, 95
8, 30900, Note_off_c, 9, 45, 95
8, 30900, Note_off_c, 9, 38, 95
8, 31200, Note_on_c, 9, 42, 95
8, 31380, Note_off_c, 9, 42, 95
8, 31440, Note_on_c, 9, 42, 95
8, 31620, Note_off_c, 9, 42, 95
8, 31680, Note_on_c, 9, 42, 95
8, 31680, Note_on_c, 9, 38, 95
8, 31860, Note_off_c, 9, 42, 95
8, 31860, Note_off_c, 9, 38, 95
8, 32160, Note_on_c, 9, 42, 95
8, 32340, Note_off_c, 9, 42, 95
8, 32400, Note_on_c, 9, 42, 95
8, 32580, Note_off_c, 9, 42, 95
8, 32640, Note_on_c, 9, 42, 95
8, 32640, Note_on_c, 9, 45, 95
8, 32820, Note_off_c, 9, 42, 95
8, 32820, Note_off_c, 9, 45, 95
8, 33120, Note_on_c, 9, 42, 95
8, 33300, Note_off_c, 9, 42, 95
8, 33360, Note_on_c, 9, 42, 95
8, 33540, Note_off_c, 9, 42, 95
8, 33600, Note_on_c, 9, 42, 95
8, 33600, Note_on_c, 9, 38, 95
8, 33780, Note_off_c, 9, 42, 95
8, 33780, Note_off_c, 9, 38, 95
8, 34080, Note_on_c, 9, 42, 95
8, 34260, Note_off_c, 9, 42, 95
8, 34320, Note_on_c, 9, 42, 95
8, 34500, Note_off_c, 9, 42, 95
8, 34560, Note_on_c, 9, 42, 95
8, 34560, Note_on_c, 9, 45, 95
8, 34740, Note_off_c, 9, 42, 95
8, 34740, Note_off_c, 9, 45, 95
8, 35040, Note_on_c, 9, 42, 95
8, 35220, Note_off_c, 9, 42, 95
8, 35280, Note_on_c, 9, 42, 95
8, 35460, Note_off_c, 9, 42, 95
8, 35520, Note_on_c, 9, 42, 95
8, 35520, Note_on_c, 9, 38, 95
8, 35700, Note_off_c, 9, 42, 95
8, 35700, Note_off_c, 9, 38, 95
8, 36000, Note_on_c, 9, 42, 95
8, 36180, Note_off_c, 9, 42, 95
8, 36240, Note_on_c, 9, 42, 95
8, 36420, Note_off_c, 9, 42, 95
8, 36480, Note_on_c, 9, 42, 95
8, 36480, Note_on_c, 9, 45, 95
8, 36660, Note_off_c, 9, 42, 95
8, 36660, Note_off_c, 9, 45, 95
8, 36960, Note_on_c, 9, 42, 95
8, 37140, Note_off_c, 9, 42, 95
8, 37200, Note_on_c, 9, 42, 95
8, 37380, Note_off_c, 9, 42, 95
8, 37440, Note_on_c, 9, 42, 95
8, 37440, Note_on_c, 9, 38, 95
8, 37620, Note_off_c, 9, 42, 95
8, 37620, Note_off_c, 9, 38, 95
8, 37920, Note_on_c, 9, 42, 95
8, 38100, Note_off_c, 9, 42, 95
8, 38160, Note_on_c, 9, 42, 95
8, 38340, Note_off_c, 9, 42, 95
8, 38400, Note_on_c, 9, 42, 95
8, 38400, Note_on_c, 9, 49, 95
8, 38400, Note_on_c, 9, 45, 95
8, 38580, Note_off_c, 9, 42, 95
8, 38580, Note_off_c, 9, 49, 95
8, 38580, Note_off_c, 9, 45, 95
8, 38880, Note_on_c, 9, 42, 95
8, 39060, Note_off_c, 9, 42, 95
8, 39120, Note_on_c, 9, 42, 95
8, 39300, Note_off_c, 9, 42, 95
8, 39360, Note_on_c, 9, 42, 95
8, 39360, Note_on_c, 9, 38, 95
8, 39540, Note_off_c, 9, 42, 95
8, 39540, Note_off_c, 9, 38, 95
8, 39840, Note_on_c, 9, 42, 95
8, 40020, Note_off_c, 9, 42, 95
8, 40080, Note_on_c, 9, 42, 95
8, 40260, Note_off_c, 9, 42, 95
8, 40320, Note_on_c, 9, 42, 95
8, 40320, Note_on_c, 9, 45, 95
8, 40500, Note_off_c, 9, 42, 95
8, 40500, Note_off_c, 9, 45, 95
8, 40800, Note_on_c, 9, 42, 95
8, 40980, Note_off_c, 9, 42, 95
8, 41040, Note_on_c, 9, 42, 95
8, 41220, Note_off_c, 9, 42, 95
8, 41280, Note_on_c, 9, 42, 95
8, 41280, Note_on_c, 9, 38, 95
8, 41460, Note_off_c, 9, 42, 95
8, 41460, Note_off_c, 9, 38, 95
8, 41760, Note_on_c, 9, 42, 95
8, 41940, Note_off_c, 9, 42, 95
8, 42000, Note_on_c, 9, 42, 95
8, 42180, Note_off_c, 9, 42, 95
8, 42240, Note_on_c, 9, 42, 95
8, 42240, Note_on_c, 9, 45, 95
8, 42420, Note_off_c, 9, 42, 95
8, 42420, Note_off_c, 9, 45, 95
8, 42720, Note_on_c, 9, 42, 95
8, 42900, Note_off_c, 9, 42, 95
8, 42960, Note_on_c, 9, 42, 95
8, 43140, Note_off_c, 9, 42, 95
8, 43200, Note_on_c, 9, 42, 95
8, 43200, Note_on_c, 9, 38, 95
8, 43380, Note_off_c, 9, 42, 95
8, 43380, Note_off_c, 9, 38, 95
8, 43680, Note_on_c, 9, 42, 95
8, 43860, Note_off_c, 9, 42, 95
8, 43920, Note_on_c, 9, 42, 95
8, 44100, Note_off_c, 9, 42, 95
8, 44160, Note_on_c, 9, 42, 95
8, 44160, Note_on_c, 9, 45, 95
8, 44340, Note_off_c, 9, 42, 95
8, 44340, Note_off_c, 9, 45, 95
8, 44640, Note_on_c, 9, 42, 95
8, 44820, Note_off_c, 9, 42, 95
8, 44880, Note_on_c, 9, 42, 95
8, 45060, Note_off_c, 9, 42, 95
8, 45120, Note_on_c, 9, 42, 95
8, 45120, Note_on_c, 9, 38, 95
8, 45300, Note_off_c, 9, 42, 95
8, 45300, Note_off_c, 9, 38, 95
8, 45600, Note_on_c, 9, 42, 95
8, 45780, Note_off_c, 9, 42, 95
8, 45840, Note_on_c, 9, 42, 95
8, 46020, Note_off_c, 9, 42, 95
8, 46080, Note_on_c, 9, 42, 95
8, 46080, Note_on_c, 9, 49, 95
8, 46080, Note_on_c, 9, 45, 95
8, 46260, Note_off_c, 9, 42, 95
8, 46260, Note_off_c, 9, 49, 95
8, 46260, Note_off_c, 9, 45, 95
8, 46560, Note_on_c, 9, 42, 95
8, 46740, Note_off_c, 9, 42, 95
8, 46800, Note_on_c, 9, 42, 95
8, 46980, Note_off_c, 9, 42, 95
8, 47040, Note_on_c, 9, 42, 95
8, 47040, Note_on_c, 9, 38, 95
8, 47220, Note_off_c, 9, 42, 95
8, 47220, Note_off_c, 9, 38, 95
8, 47520, Note_on_c, 9, 42, 95
8, 47700, Note_off_c, 9, 42, 95
8, 47760, Note_on_c, 9, 42, 95
8, 47940, Note_off_c, 9, 42, 95
8, 48000, Note_on_c, 9, 42, 95
8, 48000, Note_on_c, 9, 45, 95
8, 48180, Note_off_c, 9, 42, 95
8, 48180, Note_off_c, 9, 45, 95
8, 48480, Note_on_c, 9, 42, 95
8, 48660, Note_off_c, 9, 42, 95
8, 48720, Note_on_c, 9, 42, 95
8, 48900, Note_off_c, 9, 42, 95
8, 48960, Note_on_c, 9, 42, 95
8, 48960, Note_on_c, 9, 38, 95
8, 49140, Note_off_c, 9, 42, 95
8, 49140, Note_off_c, 9, 38, 95
8, 49440, Note_on_c, 9, 42, 95
8, 49620, Note_off_c, 9, 42, 95
8, 49680, Note_on_c, 9, 42, 95
8, 49860, Note_off_c, 9, 42, 95
8, 49920, Note_on_c, 9, 42, 95
8, 49920, Note_on_c, 9, 45, 95
8, 50100, Note_off_c, 9, 42, 95
8, 50100, Note_off_c, 9, 45, 95
8, 50400, Note_on_c, 9, 42, 95
8, 50580, Note_off_c, 9, 42, 95
8, 50640, Note_on_c, 9, 42, 95
8, 50820, Note_off_c, 9, 42, 95
8, 50880, Note_on_c, 9, 42, 95
8, 50880, Note_on_c, 9, 38, 95
8, 51060, Note_off_c, 9, 42, 95
8, 51060, Note_off_c, 9, 38, 95
8, 51360, Note_on_c, 9, 42, 95
8, 51540, Note_off_c, 9, 42, 95
8, 51600, Note_on_c, 9, 42, 95
8, 51780, Note_off_c, 9, 42, 95
8, 51840, Note_on_c, 9, 42, 95
8, 51840, Note_on_c, 9, 45, 95
8, 52020, Note_off_c, 9, 42, 95
8, 52020, Note_off_c, 9, 45, 95
8, 52320, Note_on_c, 9, 42, 95
8, 52500, Note_off_c, 9, 42, 95
8, 52560, Note_on_c, 9, 42, 95
8, 52740, Note_off_c, 9, 42, 95
8, 52800, Note_on_c, 9, 42, 95
8, 52800, Note_on_c, 9, 38, 95
8, 52980, Note_off_c, 9, 42, 95
8, 52980, Note_off_c, 9, 38, 95
8, 53280, Note_on_c, 9, 42, 95
8, 53460, Note_off_c, 9, 42, 95
8, 53520, Note_on_c, 9, 42, 95
8, 53700, Note_off_c, 9, 42, 95
8, 53760, Note_on_c, 9, 42, 95
8, 53760, Note_on_c, 9, 49, 95
8, 53760, Note_on_c, 9, 45, 95
8, 53940, Note_off_c, 9, 42, 95
8, 53940, Note_off_c, 9, 49, 95
8, 53940, Note_off_c, 9, 45, 95
8, 54240, Note_on_c, 9, 42, 95
8, 54420, Note_off_c, 9, 42, 95
8, 54480, Note_on_c, 9, 42, 95
8, 54660, Note_off_c, 9, 42, 95
8, 54720, Note_on_c, 9, 42, 95
8, 54720, Note_on_c, 9, 38, 95
8, 54900, Note_off_c, 9, 42, 95
8, 54900, Note_off_c, 9, 38, 95
8, 55200, Note_on_c, 9, 42, 95
8, 55380, Note_off_c, 9, 42, 95
8, 55440, Note_on_c, 9, 42, 95
8, 55620, Note_off_c, 9, 42, 95
8, 55680, Note_on_c, 9, 42, 95
8, 55680, Note_on_c, 9, 45, 95
8, 55860, Note_off_c, 9, 42, 95
8, 55860, Note_off_c, 9, 45, 95
8, 56160, Note_on_c, 9, 42, 95
8, 56340, Note_off_c, 9, 42, 95
8, 56400, Note_on_c, 9, 42, 95
8, 56580, Note_off_c, 9, 42, 95
8, 56640, Note_on_c, 9, 42, 95
8, 56640, Note_on_c, 9, 38, 95
8, 56820, Note_off_c, 9, 42, 95
8, 56820, Note_off_c, 9, 38, 95
8, 57120, Note_on_c, 9, 42, 95
8, 57300, Note_off_c, 9, 42, 95
8, 57360, Note_on_c, 9, 42, 95
8, 57540, Note_off_c, 9, 42, 95
8, 57600, Note_on_c, 9, 42, 95
8, 57600, Note_on_c, 9, 45, 95
8, 57780, Note_off_c, 9, 42, 95
8, 57780, Note_off_c, 9, 45, 95
8, 58080, Note_on_c, 9, 42, 95
8, 58260, Note_off_c, 9, 42, 95
8, 58320, Note_on_c, 9, 42, 95
8, 58500, Note_off_c, 9, 42, 95
8, 58560, Note_on_c, 9, 42, 95
8, 58560, Note_on_c, 9, 38, 95
8, 58740, Note_off_c, 9, 42, 95
8, 58740, Note_off_c, 9, 38, 95
8, 59040, Note_on_c, 9, 42, 95
8, 59220, Note_off_c, 9, 42, 95
8, 59280, Note_on_c, 9, 42, 95
8, 59460, Note_off_c, 9, 42, 95
8, 59520, Note_on_c, 9, 42, 95
8, 59520, Note_on_c, 9, 45, 95
8, 59700, Note_off_c, 9, 42, 95
8, 59700, Note_off_c, 9, 45, 95
8, 60000, Note_on_c, 9, 42, 95
8, 60180, Note_off_c, 9, 42, 95
8, 60240, Note_on_c, 9, 42, 95
8, 60420, Note_off_c, 9, 42, 95
8, 60480, Note_on_c, 9, 42, 95
8, 60480, Note_on_c, 9, 38, 95
8, 60660, Note_off_c, 9, 42, 95
8, 60660, Note_off_c, 9, 38, 95
8, 60960, Note_on_c, 9, 49, 95
8, 61260, Note_off_c, 9, 49, 95
8, 61440, Note_on_c, 9, 38, 95
8, 61620, Note_off_c, 9, 38, 95
8, 61620, Note_on_c, 9, 38, 95
8, 61860, Note_off_c, 9, 38, 95
8, 61860, Note_on_c, 9, 47, 95
8, 62100, Note_off_c, 9, 47, 95
8, 62100, Note_on_c, 9, 45, 95
8, 62340, Note_off_c, 9, 45, 95
8, 62340, Note_on_c, 9, 38, 95
8, 62700, Note_off_c, 9, 38, 95
8, 62880, Note_on_c, 9, 49, 95
8, 63180, Note_off_c, 9, 49, 95
8, 63360, Note_on_c, 9, 38, 95
8, 63540, Note_off_c, 9, 38, 95
8, 63540, Note_on_c, 9, 38, 95
8, 63780, Note_off_c, 9, 38, 95
8, 63780, Note_on_c, 9, 47, 95
8, 64020, Note_off_c, 9, 47, 95
8, 64020, Note_on_c, 9, 45, 95
8, 64260, Note_off_c, 9, 45, 95
8, 64260, Note_on_c, 9, 38, 95
8, 64620, Note_off_c, 9, 38, 95
8, 64800, Note_on_c, 9, 49, 95
8, 65100, Note_off_c, 9, 49, 95
8, 65280, Note_on_c, 9, 38, 95
8, 65460, Note_off_c, 9, 38, 95
8, 65460, Note_on_c, 9, 38, 95
8, 65700, Note_off_c, 9, 38, 95
8, 65700, Note_on_c, 9, 47, 95
8, 65940, Note_off_c, 9, 47, 95
8, 65940, Note_on_c, 9, 45, 95
8, 66180, Note_off_c, 9, 45, 95
8, 66180, Note_on_c, 9, 38, 95
8, 66540, Note_off_c, 9, 38, 95
8, 66720, Note_on_c, 9, 38, 95
8, 66900, Note_off_c, 9, 38, 95
8, 66900, Note_on_c, 9, 38, 95
8, 67140, Note_off_c, 9, 38, 95
8, 67140, Note_on_c, 9, 49, 95
8, 67500, Note_off_c, 9, 49, 95
8, 69120, Note_on_c, 9, 42, 95
8, 69120, Note_on_c, 9, 49, 95
8, 69120, Note_on_c, 9, 45, 95
8, 69300, Note_off_c, 9, 42, 95
8, 69300, Note_off_c, 9, 49, 95
8, 69300, Note_off_c, 9, 45, 95
8, 69600, Note_on_c, 9, 42, 95
8, 69780, Note_off_c, 9, 42, 95
8, 69780, Note_on_c, 9, 42, 95
8, 70020, Note_off_c, 9, 42, 95
8, 70020, Note_on_c, 9, 42, 95
8, 70020, Note_on_c, 9, 38, 95
8, 70260, Note_off_c, 9, 42, 95
8, 70260, Note_off_c, 9, 38, 95
8, 70560, Note_on_c, 9, 42, 95
8, 70740, Note_off_c, 9, 42, 95
8, 70740, Note_on_c, 9, 42, 95
8, 70980, Note_off_c, 9, 42, 95
8, 70980, Note_on_c, 9, 42, 95
8, 70980, Note_on_c, 9, 45, 95
8, 71220, Note_off_c, 9, 42, 95
8, 71220, Note_off_c, 9, 45, 95
8, 71520, Note_on_c, 9, 42, 95
8, 71700, Note_off_c, 9, 42, 95
8, 71700, Note_on_c, 9, 42, 95
8, 71940, Note_off_c, 9, 42, 95
8, 71940, Note_on_c, 9, 42, 95
8, 71940, Note_on_c, 9, 38, 95
8, 72180, Note_off_c, 9, 42, 95
8, 72180, Note_off_c, 9, 38, 95
8, 72480, Note_on_c, 9, 42, 95
8, 72660, Note_off_c, 9, 42, 95
8, 72660, Note_on_c, 9, 42, 95
8, 72900, Note_off_c, 9, 42, 95
8, 72900, Note_on_c, 9, 42, 95
8, 72900, Note_on_c, 9, 45, 95
8, 73140, Note_off_c, 9, 42, 95
8, 73140, Note_off_c, 9, 45, 95
8, 73440, Note_on_c, 9, 42, 95
8, 73620, Note_off_c, 9, 42, 95
8, 73620, Note_on_c, 9, 42, 95
8, 73860, Note_off_c, 9, 42, 95
8, 73860, Note_on_c, 9, 42, 95
8, 73860, Note_on_c, 9, 38, 95
8, 74100, Note_off_c, 9, 42, 95
8, 74100, Note_off_c, 9, 38, 95
8, 74400, Note_on_c, 9, 42, 95
8, 74580, Note_off_c, 9, 42, 95
8, 74580, Note_on_c, 9, 42, 95
8, 74820, Note_off_c, 9, 42, 95
8, 74820, Note_on_c, 9, 42, 95
8, 74820, Note_on_c, 9, 45, 95
8, 75060, Note_off_c, 9, 42, 95
8, 75060, Note_off_c, 9, 45, 95
8, 75360, Note_on_c, 9, 42, 95
8, 75540, Note_off_c, 9, 42, 95
8, 75540, Note_on_c, 9, 42, 95
8, 75780, Note_off_c, 9, 42, 95
8, 75780, Note_on_c, 9, 42, 95
8, 75780, Note_on_c, 9, 38, 95
8, 76020, Note_off_c, 9, 42, 95
8, 76020, Note_off_c, 9, 38, 95
8, 76320, Note_on_c, 9, 42, 95
8, 76500, Note_off_c, 9, 42, 95
8, 76500, Note_on_c, 9, 42, 95
8, 76740, Note_off_c, 9, 42, 95
8, 76740, Note_on_c, 9, 42, 95
8, 76740, Note_on_c, 9, 49, 95
8, 76740, Note_on_c, 9, 45, 95
8, 76980, Note_off_c, 9, 42, 95
8, 76980, Note_off_c, 9, 49, 95
8, 76980, Note_off_c, 9, 45, 95
8, 77280, Note_on_c, 9, 42, 95
8, 77460, Note_off_c, 9, 42, 95
8, 77460, Note_on_c, 9, 42, 95
8, 77700, Note_off_c, 9, 42, 95
8, 77700, Note_on_c, 9, 42, 95
8, 77700, Note_on_c, 9, 38, 95
8, 77940, Note_off_c, 9, 42, 95
8, 77940, Note_off_c, 9, 38, 95
8, 78240, Note_on_c, 9, 42, 95
8, 78420, Note_off_c, 9, 42, 95
8, 78420, Note_on_c, 9, 42, 95
8, 78660, Note_off_c, 9, 42, 95
8, 78660, Note_on_c, 9, 42, 95
8, 78660, Note_on_c, 9, 45, 95
8, 78900, Note_off_c, 9, 42, 95
8, 78900, Note_off_c, 9, 45, 95
8, 79200, Note_on_c, 9, 42, 95
8, 79380, Note_off_c, 9, 42, 95
8, 79380, Note_on_c, 9, 42, 95
8, 79620, Note_off_c, 9, 42, 95
8, 79620, Note_on_c, 9, 42, 95
8, 79620, Note_on_c, 9, 38, 95
8, 79860, Note_off_c, 9, 42, 95
8, 79860, Note_off_c, 9, 38, 95
8, 80160, Note_on_c, 9, 42, 95
8, 80340, Note_off_c, 9, 42, 95
8, 80340, Note_on_c, 9, 42, 95
8, 80580, Note_off_c, 9, 42, 95
8, 80580, Note_on_c, 9, 42, 95
8, 80580, Note_on_c, 9, 45, 95
8, 80640, Note_off_c, 9, 42, 95
8, 80640, Note_off_c, 9, 45, 95
8, 80640, Note_on_c, 9, 42, 95
8, 80640, Note_on_c, 9, 45, 95
8, 80820, Note_off_c, 9, 42, 95
8, 80820, Note_off_c, 9, 45, 95
8, 81120, Note_on_c, 9, 42, 95
8, 81300, Note_off_c, 9, 42, 95
8, 81360, Note_on_c, 9, 42, 95
8, 81540, Note_off_c, 9, 42, 95
8, 81600, Note_on_c, 9, 42, 95
8, 81600, Note_on_c, 9, 38, 95
8, 81780, Note_off_c, 9, 42, 95
8, 81780, Note_off_c, 9, 38, 95
8, 82080, Note_on_c, 9, 42, 95
8, 82260, Note_off_c, 9, 42, 95
8, 82320, Note_on_c, 9, 42, 95
8, 82500, Note_off_c, 9, 42, 95
8, 82560, Note_on_c, 9, 38, 95
8, 82680, Note_off_c, 9, 38, 95
8, 82680, Note_on_c, 9, 38, 95
8, 82860, Note_off_c, 9, 38, 95
8, 82860, Note_on_c, 9, 38, 95
8, 82980, Note_off_c, 9, 38, 95
8, 82980, Note_on_c, 9, 38, 95
8, 83100, Note_off_c, 9, 38, 95
8, 83100, Note_on_c, 9, 38, 95
8, 83220, Note_off_c, 9, 38, 95
8, 83220, Note_on_c, 9, 38, 95
8, 83340, Note_off_c, 9, 38, 95
8, 83340, Note_on_c, 9, 38, 95
8, 83460, Note_off_c, 9, 38, 95
8, 83460, Note_on_c, 9, 38, 95
8, 83580, Note_off_c, 9, 38, 95
8, 83580, Note_on_c, 9, 38, 95
8, 83700, Note_off_c, 9, 38, 95
8, 83700, Note_on_c, 9, 38, 95
8, 83820, Note_off_c, 9, 38, 95
8, 83820, Note_on_c, 9, 38, 95
8, 83940, Note_off_c, 9, 38, 95
8, 83940, Note_on_c, 9, 38, 95
8, 84060, Note_off_c, 9, 38, 95
8, 84060, Note_on_c, 9, 38, 95
8, 84300, Note_off_c, 9, 38, 95
8, 84420, Note_on_c, 9, 42, 95
8, 84420, Note_on_c, 9, 49, 95
8, 84420, Note_on_c, 9, 45, 95
8, 84420, Note_on_c, 9, 38, 95
8, 84480, Note_off_c, 9, 42, 95
8, 84480, Note_off_c, 9, 49, 95
8, 84480, Note_off_c, 9, 45, 95
8, 84480, Note_off_c, 9, 38, 95
8, 84480, Note_on_c, 9, 42, 95
8, 84480, Note_on_c, 9, 49, 95
8, 84480, Note_on_c, 9, 45, 95
8, 84660, Note_off_c, 9, 42, 95
8, 84660, Note_off_c, 9, 49, 95
8, 84660, Note_off_c, 9, 45, 95
8, 84960, Note_on_c, 9, 42, 95
8, 85140, Note_off_c, 9, 42, 95
8, 85200, Note_on_c, 9, 42, 95
8, 85380, Note_off_c, 9, 42, 95
8, 85440, Note_on_c, 9, 42, 95
8, 85440, Note_on_c, 9, 38, 95
8, 85620, Note_off_c, 9, 42, 95
8, 85620, Note_off_c, 9, 38, 95
8, 85920, Note_on_c, 9, 42, 95
8, 86100, Note_off_c, 9, 42, 95
8, 86160, Note_on_c, 9, 42, 95
8, 86340, Note_off_c, 9, 42, 95
8, 86400, Note_on_c, 9, 42, 95
8, 86400, Note_on_c, 9, 45, 95
8, 86580, Note_off_c, 9, 42, 95
8, 86580, Note_off_c, 9, 45, 95
8, 86880, Note_on_c, 9, 42, 95
8, 87060, Note_off_c, 9, 42, 95
8, 87120, Note_on_c, 9, 42, 95
8, 87300, Note_off_c, 9, 42, 95
8, 87360, Note_on_c, 9, 42, 95
8, 87360, Note_on_c, 9, 38, 95
8, 87540, Note_off_c, 9, 42, 95
8, 87540, Note_off_c, 9, 38, 95
8, 87840, Note_on_c, 9, 42, 95
8, 88020, Note_off_c, 9, 42, 95
8, 88080, Note_on_c, 9, 42, 95
8, 88260, Note_off_c, 9, 42, 95
8, 88320, Note_on_c, 9, 42, 95
8, 88320, Note_on_c, 9, 45, 95
8, 88500, Note_off_c, 9, 42, 95
8, 88500, Note_off_c, 9, 45, 95
8, 88800, Note_on_c, 9, 42, 95
8, 88980, Note_off_c, 9, 42, 95
8, 89040, Note_on_c, 9, 42, 95
8, 89220, Note_off_c, 9, 42, 95
8, 89280, Note_on_c, 9, 42, 95
8, 89280, Note_on_c, 9, 38, 95
8, 89460, Note_off_c, 9, 42, 95
8, 89460, Note_off_c, 9, 38, 95
8, 89760, Note_on_c, 9, 42, 95
8, 89940, Note_off_c, 9, 42, 95
8, 90000, Note_on_c, 9, 42, 95
8, 90180, Note_off_c, 9, 42, 95
8, 90240, Note_on_c, 9, 42, 95
8, 90240, Note_on_c, 9, 45, 95
8, 90420, Note_off_c, 9, 42, 95
8, 90420, Note_off_c, 9, 45, 95
8, 90720, Note_on_c, 9, 42, 95
8, 90900, Note_off_c, 9, 42, 95
8, 90960, Note_on_c, 9, 42, 95
8, 91140, Note_off_c, 9, 42, 95
8, 91200, Note_on_c, 9, 42, 95
8, 91200, Note_on_c, 9, 38, 95
8, 91380, Note_off_c, 9, 42, 95
8, 91380, Note_off_c, 9, 38, 95
8, 91680, Note_on_c, 9, 42, 95
8, 91860, Note_off_c, 9, 42, 95
8, 91920, Note_on_c, 9, 42, 95
8, 92100, Note_off_c, 9, 42, 95
8, 92160, Note_on_c, 9, 42, 95
8, 92160, Note_on_c, 9, 49, 95
8, 92160, Note_on_c, 9, 45, 95
8, 92340, Note_off_c, 9, 42, 95
8, 92340, Note_off_c, 9, 49, 95
8, 92340, Note_off_c, 9, 45, 95
8, 92640, Note_on_c, 9, 42, 95
8, 92820, Note_off_c, 9, 42, 95
8, 92880, Note_on_c, 9, 42, 95
8, 93060, Note_off_c, 9, 42, 95
8, 93120, Note_on_c, 9, 42, 95
8, 93120, Note_on_c, 9, 38, 95
8, 93300, Note_off_c, 9, 42, 95
8, 93300, Note_off_c, 9, 38, 95
8, 93600, Note_on_c, 9, 42, 95
8, 93780, Note_off_c, 9, 42, 95
8, 93840, Note_on_c, 9, 42, 95
8, 94020, Note_off_c, 9, 42, 95
8, 94080, Note_on_c, 9, 42, 95
8, 94080, Note_on_c, 9, 45, 95
8, 94260, Note_off_c, 9, 42, 95
8, 94260, Note_off_c, 9, 45, 95
8, 94560, Note_on_c, 9, 42, 95
8, 94740, Note_off_c, 9, 42, 95
8, 94800, Note_on_c, 9, 42, 95
8, 94980, Note_off_c, 9, 42, 95
8, 95040, Note_on_c, 9, 42, 95
8, 95040, Note_on_c, 9, 38, 95
8, 95220, Note_off_c, 9, 42, 95
8, 95220, Note_off_c, 9, 38, 95
8, 95520, Note_on_c, 9, 42, 95
8, 95700, Note_off_c, 9, 42, 95
8, 95760, Note_on_c, 9, 42, 95
8, 95940, Note_off_c, 9, 42, 95
8, 96000, Note_on_c, 9, 42, 95
8, 96000, Note_on_c, 9, 45, 95
8, 96180, Note_off_c, 9, 42, 95
8, 96180, Note_off_c, 9, 45, 95
8, 96480, Note_on_c, 9, 42, 95
8, 96660, Note_off_c, 9, 42, 95
8, 96720, Note_on_c, 9, 42, 95
8, 96900, Note_off_c, 9, 42, 95
8, 96960, Note_on_c, 9, 42, 95
8, 96960, Note_on_c, 9, 38, 95
8, 97140, Note_off_c, 9, 42, 95
8, 97140, Note_off_c, 9, 38, 95
8, 97440, Note_on_c, 9, 42, 95
8, 97620, Note_off_c, 9, 42, 95
8, 97680, Note_on_c, 9, 42, 95
8, 97860, Note_off_c, 9, 42, 95
8, 97920, Note_on_c, 9, 42, 95
8, 97920, Note_on_c, 9, 45, 95
8, 98100, Note_off_c, 9, 42, 95
8, 98100, Note_off_c, 9, 45, 95
8, 98400, Note_on_c, 9, 42, 95
8, 98580, Note_off_c, 9, 42, 95
8, 98640, Note_on_c, 9, 42, 95
8, 98820, Note_off_c, 9, 42, 95
8, 98880, Note_on_c, 9, 42, 95
8, 98880, Note_on_c, 9, 38, 95
8, 99060, Note_off_c, 9, 42, 95
8, 99060, Note_off_c, 9, 38, 95
8, 99360, Note_on_c, 9, 42, 95
8, 99540, Note_off_c, 9, 42, 95
8, 99600, Note_on_c, 9, 42, 95
8, 99780, Note_off_c, 9, 42, 95
8, 99840, Note_on_c, 9, 42, 95
8, 99840, Note_on_c, 9, 49, 95
8, 99840, Note_on_c, 9, 45, 95
8, 100020, Note_off_c, 9, 42, 95
8, 100020, Note_off_c, 9, 49, 95
8, 100020, Note_off_c, 9, 45, 95
8, 100320, Note_on_c, 9, 42, 95
8, 100500, Note_off_c, 9, 42, 95
8, 100560, Note_on_c, 9, 42, 95
8, 100740, Note_off_c, 9, 42, 95
8, 100800, Note_on_c, 9, 42, 95
8, 100800, Note_on_c, 9, 38, 95
8, 100980, Note_off_c, 9, 42, 95
8, 100980, Note_off_c, 9, 38, 95
8, 101280, Note_on_c, 9, 42, 95
8, 101460, Note_off_c, 9, 42, 95
8, 101520, Note_on_c, 9, 42, 95
8, 101700, Note_off_c, 9, 42, 95
8, 101760, Note_on_c, 9, 42, 95
8, 101760, Note_on_c, 9, 45, 95
8, 101940, Note_off_c, 9, 42, 95
8, 101940, Note_off_c, 9, 45, 95
8, 102240, Note_on_c, 9, 42, 95
8, 102420, Note_off_c, 9, 42, 95
8, 102480, Note_on_c, 9, 42, 95
8, 102660, Note_off_c, 9, 42, 95
8, 102720, Note_on_c, 9, 42, 95
8, 102720, Note_on_c, 9, 38, 95
8, 102900, Note_off_c, 9, 42, 95
8, 102900, Note_off_c, 9, 38, 95
8, 103200, Note_on_c, 9, 42, 95
8, 103380, Note_off_c, 9, 42, 95
8, 103440, Note_on_c, 9, 42, 95
8, 103620, Note_off_c, 9, 42, 95
8, 103680, Note_on_c, 9, 42, 95
8, 103680, Note_on_c, 9, 45, 95
8, 103860, Note_off_c, 9, 42, 95
8, 103860, Note_off_c, 9, 45, 95
8, 104160, Note_on_c, 9, 42, 95
8, 104340, Note_off_c, 9, 42, 95
8, 104400, Note_on_c, 9, 42, 95
8, 104580, Note_off_c, 9, 42, 95
8, 104640, Note_on_c, 9, 42, 95
8, 104640, Note_on_c, 9, 38, 95
8, 104820, Note_off_c, 9, 42, 95
8, 104820, Note_off_c, 9, 38, 95
8, 105120, Note_on_c, 9, 42, 95
8, 105300, Note_off_c, 9, 42, 95
8, 105360, Note_on_c, 9, 42, 95
8, 105540, Note_off_c, 9, 42, 95
8, 105600, Note_on_c, 9, 42, 95
8, 105600, Note_on_c, 9, 45, 95
8, 105780, Note_off_c, 9, 42, 95
8, 105780, Note_off_c, 9, 45, 95
8, 106080, Note_on_c, 9, 42, 95
8, 106260, Note_off_c, 9, 42, 95
8, 106320, Note_on_c, 9, 42, 95
8, 106500, Note_off_c, 9, 42, 95
8, 106560, Note_on_c, 9, 42, 95
8, 106560, Note_on_c, 9, 38, 95
8, 106740, Note_off_c, 9, 42, 95
8, 106740, Note_off_c, 9, 38, 95
8, 107040, Note_on_c, 9, 42, 95
8, 107220, Note_off_c, 9, 42, 95
8, 107280, Note_on_c, 9, 42, 95
8, 107460, Note_off_c, 9, 42, 95
8, 107520, Note_on_c, 9, 42, 95
8, 107520, Note_on_c, 9, 49, 95
8, 107520, Note_on_c, 9, 45, 95
8, 107700, Note_off_c, 9, 42, 95
8, 107700, Note_off_c, 9, 49, 95
8, 107700, Note_off_c, 9, 45, 95
8, 108000, Note_on_c, 9, 42, 95
8, 108180, Note_off_c, 9, 42, 95
8, 108240, Note_on_c, 9, 42, 95
8, 108420, Note_off_c, 9, 42, 95
8, 108480, Note_on_c, 9, 42, 95
8, 108480, Note_on_c, 9, 38, 95
8, 108660, Note_off_c, 9, 42, 95
8, 108660, Note_off_c, 9, 38, 95
8, 108960, Note_on_c, 9, 42, 95
8, 109140, Note_off_c, 9, 42, 95
8, 109200, Note_on_c, 9, 42, 95
8, 109380, Note_off_c, 9, 42, 95
8, 109440, Note_on_c, 9, 42, 95
8, 109440, Note_on_c, 9, 45, 95
8, 109620, Note_off_c, 9, 42, 95
8, 109620, Note_off_c, 9, 45, 95
8, 109920, Note_on_c, 9, 42, 95
8, 110100, Note_off_c, 9, 42, 95
8, 110160, Note_on_c, 9, 42, 95
8, 110340, Note_off_c, 9, 42, 95
8, 110400, Note_on_c, 9, 42, 95
8, 110400, Note_on_c, 9, 38, 95
8, 110580, Note_off_c, 9, 42, 95
8, 110580, Note_off_c, 9, 38, 95
8, 110880, Note_on_c, 9, 42, 95
8, 111060, Note_off_c, 9, 42, 95
8, 111120, Note_on_c, 9, 42, 95
8, 111300, Note_off_c, 9, 42, 95
8, 111360, Note_on_c, 9, 42, 95
8, 111360, Note_on_c, 9, 45, 95
8, 111540, Note_off_c, 9, 42, 95
8, 111540, Note_off_c, 9, 45, 95
8, 111840, Note_on_c, 9, 42, 95
8, 112020, Note_off_c, 9, 42, 95
8, 112080, Note_on_c, 9, 42, 95
8, 112260, Note_off_c, 9, 42, 95
8, 112320, Note_on_c, 9, 42, 95
8, 112320, Note_on_c, 9, 38, 95
8, 112500, Note_off_c, 9, 42, 95
8, 112500, Note_off_c, 9, 38, 95
8, 112800, Note_on_c, 9, 42, 95
8, 112980, Note_off_c, 9, 42, 95
8, 113040, Note_on_c, 9, 42, 95
8, 113220, Note_off_c, 9, 42, 95
8, 113280, Note_on_c, 9, 42, 95
8, 113280, Note_on_c, 9, 45, 95
8, 113460, Note_off_c, 9, 42, 95
8, 113460, Note_off_c, 9, 45, 95
8, 113760, Note_on_c, 9, 42, 95
8, 113940, Note_off_c, 9, 42, 95
8, 114000, Note_on_c, 9, 42, 95
8, 114180, Note_off_c, 9, 42, 95
8, 114240, Note_on_c, 9, 42, 95
8, 114240, Note_on_c, 9, 38, 95
8, 114420, Note_off_c, 9, 42, 95
8, 114420, Note_off_c, 9, 38, 95
8, 114720, Note_on_c, 9, 49, 95
8, 114720, Note_on_c, 9, 42, 95
8, 114900, Note_off_c, 9, 49, 95
8, 114900, Note_off_c, 9, 42, 95
8, 114960, Note_on_c, 9, 42, 95
8, 115140, Note_off_c, 9, 42, 95
8, 115200, Note_on_c, 9, 38, 95
8, 115380, Note_off_c, 9, 38, 95
8, 115440, Note_on_c, 9, 38, 95
8, 115620, Note_off_c, 9, 38, 95
8, 115680, Note_on_c, 9, 47, 95
8, 115860, Note_off_c, 9, 47, 95
8, 115920, Note_on_c, 9, 45, 95
8, 116100, Note_off_c, 9, 45, 95
8, 116160, Note_on_c, 9, 38, 95
8, 116460, Note_off_c, 9, 38, 95
8, 116640, Note_on_c, 9, 49, 95
8, 116940, Note_off_c, 9, 49, 95
8, 117120, Note_on_c, 9, 38, 95
8, 117300, Note_off_c, 9, 38, 95
8, 117360, Note_on_c, 9, 38, 95
8, 117540, Note_off_c, 9, 38, 95
8, 117600, Note_on_c, 9, 47, 95
8, 117780, Note_off_c, 9, 47, 95
8, 117840, Note_on_c, 9, 45, 95
8, 118020, Note_off_c, 9, 45, 95
8, 118080, Note_on_c, 9, 38, 95
8, 118380, Note_off_c, 9, 38, 95
8, 118560, Note_on_c, 9, 49, 95
8, 118860, Note_off_c, 9, 49, 95
8, 119040, Note_on_c, 9, 38, 95
8, 119220, Note_off_c, 9, 38, 95
8, 119280, Note_on_c, 9, 38, 95
8, 119460, Note_off_c, 9, 38, 95
8, 119520, Note_on_c, 9, 47, 95
8, 119700, Note_off_c, 9, 47, 95
8, 119760, Note_on_c, 9, 45, 95
8, 119940, Note_off_c, 9, 45, 95
8, 120000, Note_on_c, 9, 38, 95
8, 120300, Note_off_c, 9, 38, 95
8, 120480, Note_on_c, 9, 38, 95
8, 120660, Note_off_c, 9, 38, 95
8, 120720, Note_on_c, 9, 38, 95
8, 120900, Note_off_c, 9, 38, 95
8, 120960, Note_on_c, 9, 49, 95
8, 121260, Note_off_c, 9, 49, 95
8, 122880, Note_on_c, 9, 42, 95
8, 122880, Note_on_c, 9, 49, 95
8, 122880, Note_on_c, 9, 45, 95
8, 123060, Note_off_c, 9, 42, 95
8, 123060, Note_off_c, 9, 49, 95
8, 123060, Note_off_c, 9, 45, 95
8, 123360, Note_on_c, 9, 42, 95
8, 123540, Note_off_c, 9, 42, 95
8, 123600, Note_on_c, 9, 42, 95
8, 123780, Note_off_c, 9, 42, 95
8, 123840, Note_on_c, 9, 42, 95
8, 123840, Note_on_c, 9, 38, 95
8, 124020, Note_off_c, 9, 42, 95
8, 124020, Note_off_c, 9, 38, 95
8, 124320, Note_on_c, 9, 42, 95
8, 124500, Note_off_c, 9, 42, 95
8, 124560, Note_on_c, 9, 42, 95
8, 124740, Note_off_c, 9, 42, 95
8, 124800, Note_on_c, 9, 42, 95
8, 124800, Note_on_c, 9, 45, 95
8, 124980, Note_off_c, 9, 42, 95
8, 124980, Note_off_c, 9, 45, 95
8, 125280, Note_on_c, 9, 42, 95
8, 125460, Note_off_c, 9, 42, 95
8, 125520, Note_on_c, 9, 42, 95
8, 125700, Note_off_c, 9, 42, 95
8, 125760, Note_on_c, 9, 42, 95
8, 125760, Note_on_c, 9, 38, 95
8, 125940, Note_off_c, 9, 42, 95
8, 125940, Note_off_c, 9, 38, 95
8, 126240, Note_on_c, 9, 42, 95
8, 126420, Note_off_c, 9, 42, 95
8, 126480, Note_on_c, 9, 42, 95
8, 126660, Note_off_c, 9, 42, 95
8, 126720, Note_on_c, 9, 42, 95
8, 126720, Note_on_c, 9, 45, 95
8, 126900, Note_off_c, 9, 42, 95
8, 126900, Note_off_c, 9, 45, 95
8, 127200, Note_on_c, 9, 42, 95
8, 127380, Note_off_c, 9, 42, 95
8, 127440, Note_on_c, 9, 42, 95
8, 127620, Note_off_c, 9, 42, 95
8, 127680, Note_on_c, 9, 42, 95
8, 127680, Note_on_c, 9, 38, 95
8, 127860, Note_off_c, 9, 42, 95
8, 127860, Note_off_c, 9, 38, 95
8, 128160, Note_on_c, 9, 42, 95
8, 128340, Note_off_c, 9, 42, 95
8, 128400, Note_on_c, 9, 42, 95
8, 128580, Note_off_c, 9, 42, 95
8, 128640, Note_on_c, 9, 42, 95
8, 128640, Note_on_c, 9, 45, 95
8, 128820, Note_off_c, 9, 42, 95
8, 128820, Note_off_c, 9, 45, 95
8, 129120, Note_on_c, 9, 42, 95
8, 129300, Note_off_c, 9, 42, 95
8, 129360, Note_on_c, 9, 42, 95
8, 129540, Note_off_c, 9, 42, 95
8, 129600, Note_on_c, 9, 42, 95
8, 129600, Note_on_c, 9, 38, 95
8, 129780, Note_off_c, 9, 42, 95
8, 129780, Note_off_c, 9, 38, 95
8, 130080, Note_on_c, 9, 42, 95
8, 130260, Note_off_c, 9, 42, 95
8, 130320, Note_on_c, 9, 42, 95
8, 130500, Note_off_c, 9, 42, 95
8, 130560, Note_on_c, 9, 42, 95
8, 130560, Note_on_c, 9, 49, 95
8, 130560, Note_on_c, 9, 45, 95
8, 130740, Note_off_c, 9, 42, 95
8, 130740, Note_off_c, 9, 49, 95
8, 130740, Note_off_c, 9, 45, 95
8, 131040, Note_on_c, 9, 42, 95
8, 131220, Note_off_c, 9, 42, 95
8, 131280, Note_on_c, 9, 42, 95
8, 131460, Note_off_c, 9, 42, 95
8, 131520, Note_on_c, 9, 42, 95
8, 131520, Note_on_c, 9, 38, 95
8, 131700, Note_off_c, 9, 42, 95
8, 131700, Note_off_c, 9, 38, 95
8, 132000, Note_on_c, 9, 42, 95
8, 132180, Note_off_c, 9, 42, 95
8, 132240, Note_on_c, 9, 42, 95
8, 132420, Note_off_c, 9, 42, 95
8, 132480, Note_on_c, 9, 42, 95
8, 132480, Note_on_c, 9, 45, 95
8, 132660, Note_off_c, 9, 42, 95
8, 132660, Note_off_c, 9, 45, 95
8, 132960, Note_on_c, 9, 42, 95
8, 133140, Note_off_c, 9, 42, 95
8, 133200, Note_on_c, 9, 42, 95
8, 133380, Note_off_c, 9, 42, 95
8, 133440, Note_on_c, 9, 42, 95
8, 133440, Note_on_c, 9, 38, 95
8, 133620, Note_off_c, 9, 42, 95
8, 133620, Note_off_c, 9, 38, 95
8, 133920, Note_on_c, 9, 42, 95
8, 134100, Note_off_c, 9, 42, 95
8, 134160, Note_on_c, 9, 42, 95
8, 134340, Note_off_c, 9, 42, 95
8, 134400, Note_on_c, 9, 42, 95
8, 134400, Note_on_c, 9, 45, 95
8, 134580, Note_off_c, 9, 42, 95
8, 134580, Note_off_c, 9, 45, 95
8, 134880, Note_on_c, 9, 42, 95
8, 135060, Note_off_c, 9, 42, 95
8, 135120, Note_on_c, 9, 42, 95
8, 135300, Note_off_c, 9, 42, 95
8, 135360, Note_on_c, 9, 42, 95
8, 135360, Note_on_c, 9, 38, 95
8, 135540, Note_off_c, 9, 42, 95
8, 135540, Note_off_c, 9, 38, 95
8, 135840, Note_on_c, 9, 42, 95
8, 136020, Note_off_c, 9, 42, 95
8, 136080, Note_on_c, 9, 42, 95
8, 136260, Note_off_c, 9, 42, 95
8, 136320, Note_on_c, 9, 38, 95
8, 136440, Note_off_c, 9, 38, 95
8, 136440, Note_on_c, 9, 38, 95
8, 136620, Note_off_c, 9, 38, 95
8, 136620, Note_on_c, 9, 38, 95
8, 136740, Note_off_c, 9, 38, 95
8, 136740, Note_on_c, 9, 38, 95
8, 136860, Note_off_c, 9, 38, 95
8, 136860, Note_on_c, 9, 38, 95
8, 136980, Note_off_c, 9, 38, 95
8, 136980, Note_on_c, 9, 38, 95
8, 137100, Note_off_c, 9, 38, 95
8, 137100, Note_on_c, 9, 38, 95
8, 137220, Note_off_c, 9, 38, 95
8, 137220, Note_on_c, 9, 38, 95
8, 137340, Note_off_c, 9, 38, 95
8, 137340, Note_on_c, 9, 38, 95
8, 137460, Note_off_c, 9, 38, 95
8, 137460, Note_on_c, 9, 38, 95
8, 137580, Note_off_c, 9, 38, 95
8, 137580, Note_on_c, 9, 38, 95
8, 137700, Note_off_c, 9, 38, 95
8, 137700, Note_on_c, 9, 38, 95
8, 137820, Note_off_c, 9, 38, 95
8, 137820, Note_on_c, 9, 38, 95
8, 138060, Note_off_c, 9, 38, 95
8, 138180, Note_on_c, 9, 42, 95
8, 138180, Note_on_c, 9, 49, 95
8, 138180, Note_on_c, 9, 45, 95
8, 138180, Note_on_c, 9, 38, 95
8, 138420, Note_off_c, 9, 42, 95
8, 138420, Note_off_c, 9, 49, 95
8, 138420, Note_off_c, 9, 45, 95
8, 138420, Note_off_c, 9, 38, 95
8, 138720, Note_on_c, 9, 42, 95
8, 138900, Note_off_c, 9, 42, 95
8, 138900, Note_on_c, 9, 42, 95
8, 139140, Note_off_c, 9, 42, 95
8, 139140, Note_on_c, 9, 42, 95
8, 139140, Note_on_c, 9, 38, 95
8, 139380, Note_off_c, 9, 42, 95
8, 139380, Note_off_c, 9, 38, 95
8, 139680, Note_on_c, 9, 42, 95
8, 139860, Note_off_c, 9, 42, 95
8, 139860, Note_on_c, 9, 42, 95
8, 140100, Note_off_c, 9, 42, 95
8, 140100, Note_on_c, 9, 42, 95
8, 140100, Note_on_c, 9, 45, 95
8, 140340, Note_off_c, 9, 42, 95
8, 140340, Note_off_c, 9, 45, 95
8, 140640, Note_on_c, 9, 42, 95
8, 140820, Note_off_c, 9, 42, 95
8, 140820, Note_on_c, 9, 42, 95
8, 141060, Note_off_c, 9, 42, 95
8, 141060, Note_on_c, 9, 42, 95
8, 141060, Note_on_c, 9, 38, 95
8, 141300, Note_off_c, 9, 42, 95
8, 141300, Note_off_c, 9, 38, 95
8, 141600, Note_on_c, 9, 42, 95
8, 141780, Note_off_c, 9, 42, 95
8, 141780, Note_on_c, 9, 42, 95
8, 142020, Note_off_c, 9, 42, 95
8, 142020, Note_on_c, 9, 42, 95
8, 142020, Note_on_c, 9, 45, 95
8, 142260, Note_off_c, 9, 42, 95
8, 142260, Note_off_c, 9, 45, 95
8, 142560, Note_on_c, 9, 42, 95
8, 142740, Note_off_c, 9, 42, 95
8, 142740, Note_on_c, 9, 42, 95
8, 142980, Note_off_c, 9, 42, 95
8, 142980, Note_on_c, 9, 42, 95
8, 142980, Note_on_c, 9, 38, 95
8, 143220, Note_off_c, 9, 42, 95
8, 143220, Note_off_c, 9, 38, 95
8, 143520, Note_on_c, 9, 42, 95
8, 143700, Note_off_c, 9, 42, 95
8, 143700, Note_on_c, 9, 42, 95
8, 143940, Note_off_c, 9, 42, 95
8, 143940, Note_on_c, 9, 42, 95
8, 143940, Note_on_c, 9, 45, 95
8, 144180, Note_off_c, 9, 42, 95
8, 144180, Note_off_c, 9, 45, 95
8, 144480, Note_on_c, 9, 42, 95
8, 144660, Note_off_c, 9, 42, 95
8, 144660, Note_on_c, 9, 42, 95
8, 144900, Note_off_c, 9, 42, 95
8, 144900, Note_on_c, 9, 42, 95
8, 144900, Note_on_c, 9, 38, 95
8, 145140, Note_off_c, 9, 42, 95
8, 145140, Note_off_c, 9, 38, 95
8, 145440, Note_on_c, 9, 42, 95
8, 145620, Note_off_c, 9, 42, 95
8, 145620, Note_on_c, 9, 42, 95
8, 145860, Note_off_c, 9, 42, 95
8, 145860, Note_on_c, 9, 42, 95
8, 145860, Note_on_c, 9, 49, 95
8, 145860, Note_on_c, 9, 45, 95
8, 146100, Note_off_c, 9, 42, 95
8, 146100, Note_off_c, 9, 49, 95
8, 146100, Note_off_c, 9, 45, 95
8, 146400, Note_on_c, 9, 42, 95
8, 146580, Note_off_c, 9, 42, 95
8, 146580, Note_on_c, 9, 42, 95
8, 146820, Note_off_c, 9, 42, 95
8, 146820, Note_on_c, 9, 42, 95
8, 146820, Note_on_c, 9, 38, 95
8, 147060, Note_off_c, 9, 42, 95
8, 147060, Note_off_c, 9, 38, 95
8, 147360, Note_on_c, 9, 42, 95
8, 147540, Note_off_c, 9, 42, 95
8, 147540, Note_on_c, 9, 42, 95
8, 147780, Note_off_c, 9, 42, 95
8, 147780, Note_on_c, 9, 42, 95
8, 147780, Note_on_c, 9, 45, 95
8, 148020, Note_off_c, 9, 42, 95
8, 148020, Note_off_c, 9, 45, 95
8, 148320, Note_on_c, 9, 42, 95
8, 148500, Note_off_c, 9, 42, 95
8, 148500, Note_on_c, 9, 42, 95
8, 148740, Note_off_c, 9, 42, 95
8, 148740, Note_on_c, 9, 42, 95
8, 148740, Note_on_c, 9, 38, 95
8, 148980, Note_off_c, 9, 42, 95
8, 148980, Note_off_c, 9, 38, 95
8, 149280, Note_on_c, 9, 42, 95
8, 149460, Note_off_c, 9, 42, 95
8, 149460, Note_on_c, 9, 42, 95
8, 149700, Note_off_c, 9, 42, 95
8, 149700, Note_on_c, 9, 42, 95
8, 149700, Note_on_c, 9, 45, 95
8, 149940, Note_off_c, 9, 42, 95
8, 149940, Note_off_c, 9, 45, 95
8, 150240, Note_on_c, 9, 42, 95
8, 150420, Note_off_c, 9, 42, 95
8, 150420, Note_on_c, 9, 42, 95
8, 150660, Note_off_c, 9, 42, 95
8, 150660, Note_on_c, 9, 42, 95
8, 150660, Note_on_c, 9, 38, 95
8, 150900, Note_off_c, 9, 42, 95
8, 150900, Note_off_c, 9, 38, 95
8, 151200, Note_on_c, 9, 42, 95
8, 151380, Note_off_c, 9, 42, 95
8, 151380, Note_on_c, 9, 42, 95
8, 151620, Note_off_c, 9, 42, 95
8, 151620, Note_on_c, 9, 42, 95
8, 151620, Note_on_c, 9, 45, 95
8, 151860, Note_off_c, 9, 42, 95
8, 151860, Note_off_c, 9, 45, 95
8, 152160, Note_on_c, 9, 42, 95
8, 152340, Note_off_c, 9, 42, 95
8, 152340, Note_on_c, 9, 42, 95
8, 152580, Note_off_c, 9, 42, 95
8, 152580, Note_on_c, 9, 42, 95
8, 152580, Note_on_c, 9, 38, 95
8, 152820, Note_off_c, 9, 42, 95
8, 152820, Note_off_c, 9, 38, 95
8, 153120, Note_on_c, 9, 42, 95
8, 153300, Note_off_c, 9, 42, 95
8, 153300, Note_on_c, 9, 42, 95
8, 153540, Note_off_c, 9, 42, 95
8, 153540, Note_on_c, 9, 42, 95
8, 153540, Note_on_c, 9, 49, 95
8, 153540, Note_on_c, 9, 45, 95
8, 153780, Note_off_c, 9, 42, 95
8, 153780, Note_off_c, 9, 49, 95
8, 153780, Note_off_c, 9, 45, 95
8, 154080, Note_on_c, 9, 42, 95
8, 154260, Note_off_c, 9, 42, 95
8, 154260, Note_on_c, 9, 42, 95
8, 154500, Note_off_c, 9, 42, 95
8, 154500, Note_on_c, 9, 42, 95
8, 154500, Note_on_c, 9, 38, 95
8, 154740, Note_off_c, 9, 42, 95
8, 154740, Note_off_c, 9, 38, 95
8, 155040, Note_on_c, 9, 42, 95
8, 155220, Note_off_c, 9, 42, 95
8, 155220, Note_on_c, 9, 42, 95
8, 155460, Note_off_c, 9, 42, 95
8, 155460, Note_on_c, 9, 42, 95
8, 155460, Note_on_c, 9, 45, 95
8, 155700, Note_off_c, 9, 42, 95
8, 155700, Note_off_c, 9, 45, 95
8, 156000, Note_on_c, 9, 42, 95
8, 156180, Note_off_c, 9, 42, 95
8, 156180, Note_on_c, 9, 42, 95
8, 156420, Note_off_c, 9, 42, 95
8, 156420, Note_on_c, 9, 42, 95
8, 156420, Note_on_c, 9, 38, 95
8, 156660, Note_off_c, 9, 42, 95
8, 156660, Note_off_c, 9, 38, 95
8, 156960, Note_on_c, 9, 42, 95
8, 157140, Note_off_c, 9, 42, 95
8, 157140, Note_on_c, 9, 42, 95
8, 157380, Note_off_c, 9, 42, 95
8, 157380, Note_on_c, 9, 42, 95
8, 157380, Note_on_c, 9, 45, 95
8, 157620, Note_off_c, 9, 42, 95
8, 157620, Note_off_c, 9, 45, 95
8, 157920, Note_on_c, 9, 42, 95
8, 158100, Note_off_c, 9, 42, 95
8, 158100, Note_on_c, 9, 42, 95
8, 158340, Note_off_c, 9, 42, 95
8, 158340, Note_on_c, 9, 42, 95
8, 158340, Note_on_c, 9, 38, 95
8, 158580, Note_off_c, 9, 42, 95
8, 158580, Note_off_c, 9, 38, 95
8, 158880, Note_on_c, 9, 42, 95
8, 159060, Note_off_c, 9, 42, 95
8, 159060, Note_on_c, 9, 42, 95
8, 159300, Note_off_c, 9, 42, 95
8, 159300, Note_on_c, 9, 42, 95
8, 159300, Note_on_c, 9, 45, 95
8, 159540, Note_off_c, 9, 42, 95
8, 159540, Note_off_c, 9, 45, 95
8, 159840, Note_on_c, 9, 42, 95
8, 160020, Note_off_c, 9, 42, 95
8, 160020, Note_on_c, 9, 42, 95
8, 160260, Note_off_c, 9, 42, 95
8, 160260, Note_on_c, 9, 42, 95
8, 160260, Note_on_c, 9, 38, 95
8, 160500, Note_off_c, 9, 42, 95
8, 160500, Note_off_c, 9, 38, 95
8, 160800, Note_on_c, 9, 42, 95
8, 160980, Note_off_c, 9, 42, 95
8, 160980, Note_on_c, 9, 42, 95
8, 161220, Note_off_c, 9, 42, 95
8, 161220, Note_on_c, 9, 42, 95
8, 161220, Note_on_c, 9, 49, 95
8, 161220, Note_on_c, 9, 45, 95
8, 161460, Note_off_c, 9, 42, 95
8, 161460, Note_off_c, 9, 49, 95
8, 161460, Note_off_c, 9, 45, 95
8, 161760, Note_on_c, 9, 42, 95
8, 161940, Note_off_c, 9, 42, 95
8, 161940, Note_on_c, 9, 42, 95
8, 162180, Note_off_c, 9, 42, 95
8, 162180, Note_on_c, 9, 42, 95
8, 162180, Note_on_c, 9, 38, 95
8, 162420, Note_off_c, 9, 42, 95
8, 162420, Note_off_c, 9, 38, 95
8, 162720, Note_on_c, 9, 42, 95
8, 162900, Note_off_c, 9, 42, 95
8, 162900, Note_on_c, 9, 42, 95
8, 163140, Note_off_c, 9, 42, 95
8, 163140, Note_on_c, 9, 42, 95
8, 163140, Note_on_c, 9, 45, 95
8, 163380, Note_off_c, 9, 42, 95
8, 163380, Note_off_c, 9, 45, 95
8, 163680, Note_on_c, 9, 42, 95
8, 163860, Note_off_c, 9, 42, 95
8, 163860, Note_on_c, 9, 42, 95
8, 164100, Note_off_c, 9, 42, 95
8, 164100, Note_on_c, 9, 42, 95
8, 164100, Note_on_c, 9, 38, 95
8, 164340, Note_off_c, 9, 42, 95
8, 164340, Note_off_c, 9, 38, 95
8, 164640, Note_on_c, 9, 42, 95
8, 164820, Note_off_c, 9, 42, 95
8, 164820, Note_on_c, 9, 42, 95
8, 165060, Note_off_c, 9, 42, 95
8, 165060, Note_on_c, 9, 42, 95
8, 165060, Note_on_c, 9, 45, 95
8, 165300, Note_off_c, 9, 42, 95
8, 165300, Note_off_c, 9, 45, 95
8, 165600, Note_on_c, 9, 42, 95
8, 165780, Note_off_c, 9, 42, 95
8, 165780, Note_on_c, 9, 42, 95
8, 166020, Note_off_c, 9, 42, 95
8, 166020, Note_on_c, 9, 42, 95
8, 166020, Note_on_c, 9, 38, 95
8, 166260, Note_off_c, 9, 42, 95
8, 166260, Note_off_c, 9, 38, 95
8, 166560, Note_on_c, 9, 42, 95
8, 166740, Note_off_c, 9, 42, 95
8, 166740, Note_on_c, 9, 42, 95
8, 166980, Note_off_c, 9, 42, 95
8, 166980, Note_on_c, 9, 42, 95
8, 166980, Note_on_c, 9, 45, 95
8, 167220, Note_off_c, 9, 42, 95
8, 167220, Note_off_c, 9, 45, 95
8, 167520, Note_on_c, 9, 42, 95
8, 167700, Note_off_c, 9, 42, 95
8, 167700, Note_on_c, 9, 42, 95
8, 167940, Note_off_c, 9, 42, 95
8, 167940, Note_on_c, 9, 42, 95
8, 167940, Note_on_c, 9, 38, 95
8, 168180, Note_off_c, 9, 42, 95
8, 168180, Note_off_c, 9, 38, 95
8, 168480, Note_on_c, 9, 42, 95
8, 168660, Note_off_c, 9, 42, 95
8, 168660, Note_on_c, 9, 42, 95
8, 168900, Note_off_c, 9, 42, 95
8, 168900, Note_on_c, 9, 42, 95
8, 168900, Note_on_c, 9, 49, 95
8, 168900, Note_on_c, 9, 45, 95
8, 169140, Note_off_c, 9, 42, 95
8, 169140, Note_off_c, 9, 49, 95
8, 169140, Note_off_c, 9, 45, 95
8, 169440, Note_on_c, 9, 42, 95
8, 169620, Note_off_c, 9, 42, 95
8, 169620, Note_on_c, 9, 42, 95
8, 169860, Note_off_c, 9, 42, 95
8, 169860, Note_on_c, 9, 42, 95
8, 169860, Note_on_c, 9, 38, 95
8, 170100, Note_off_c, 9, 42, 95
8, 170100, Note_off_c, 9, 38, 95
8, 170400, Note_on_c, 9, 42, 95
8, 170580, Note_off_c, 9, 42, 95
8, 170580, Note_on_c, 9, 42, 95
8, 170820, Note_off_c, 9, 42, 95
8, 170820, Note_on_c, 9, 42, 95
8, 170820, Note_on_c, 9, 45, 95
8, 171060, Note_off_c, 9, 42, 95
8, 171060, Note_off_c, 9, 45, 95
8, 171360, Note_on_c, 9, 42, 95
8, 171540, Note_off_c, 9, 42, 95
8, 171540, Note_on_c, 9, 42, 95
8, 171780, Note_off_c, 9, 42, 95
8, 171780, Note_on_c, 9, 42, 95
8, 171780, Note_on_c, 9, 38, 95
8, 172020, Note_off_c, 9, 42, 95
8, 172020, Note_off_c, 9, 38, 95
8, 172320, Note_on_c, 9, 42, 95
8, 172500, Note_off_c, 9, 42, 95
8, 172500, Note_on_c, 9, 42, 95
8, 172740, Note_off_c, 9, 42, 95
8, 172740, Note_on_c, 9, 42, 95
8, 172740, Note_on_c, 9, 45, 95
8, 172980, Note_off_c, 9, 42, 95
8, 172980, Note_off_c, 9, 45, 95
8, 173280, Note_on_c, 9, 42, 95
8, 173460, Note_off_c, 9, 42, 95
8, 173460, Note_on_c, 9, 42, 95
8, 173700, Note_off_c, 9, 42, 95
8, 173700, Note_on_c, 9, 42, 95
8, 173700, Note_on_c, 9, 38, 95
8, 173940, Note_off_c, 9, 42, 95
8, 173940, Note_off_c, 9, 38, 95
8, 174240, Note_on_c, 9, 42, 95
8, 174420, Note_off_c, 9, 42, 95
8, 174420, Note_on_c, 9, 42, 95
8, 174660, Note_off_c, 9, 42, 95
8, 174660, Note_on_c, 9, 42, 95
8, 174660, Note_on_c, 9, 45, 95
8, 174900, Note_off_c, 9, 42, 95
8, 174900, Note_off_c, 9, 45, 95
8, 175200, Note_on_c, 9, 42, 95
8, 175380, Note_off_c, 9, 42, 95
8, 175380, Note_on_c, 9, 42, 95
8, 175620, Note_off_c, 9, 42, 95
8, 175620, Note_on_c, 9, 42, 95
8, 175620, Note_on_c, 9, 38, 95
8, 175860, Note_off_c, 9, 42, 95
8, 175860, Note_off_c, 9, 38, 95
8, 176160, Note_on_c, 9, 42, 95
8, 176340, Note_off_c, 9, 42, 95
8, 176340, Note_on_c, 9, 42, 95
8, 176580, Note_off_c, 9, 42, 95
8, 176580, Note_on_c, 9, 42, 95
8, 176580, Note_on_c, 9, 49, 95
8, 176580, Note_on_c, 9, 45, 95
8, 176820, Note_off_c, 9, 42, 95
8, 176820, Note_off_c, 9, 49, 95
8, 176820, Note_off_c, 9, 45, 95
8, 177120, Note_on_c, 9, 42, 95
8, 177300, Note_off_c, 9, 42, 95
8, 177300, Note_on_c, 9, 42, 95
8, 177540, Note_off_c, 9, 42, 95
8, 177540, Note_on_c, 9, 42, 95
8, 177540, Note_on_c, 9, 38, 95
8, 177780, Note_off_c, 9, 42, 95
8, 177780, Note_off_c, 9, 38, 95
8, 178080, Note_on_c, 9, 42, 95
8, 178260, Note_off_c, 9, 42, 95
8, 178260, Note_on_c, 9, 42, 95
8, 178500, Note_off_c, 9, 42, 95
8, 178500, Note_on_c, 9, 42, 95
8, 178500, Note_on_c, 9, 45, 95
8, 178740, Note_off_c, 9, 42, 95
8, 178740, Note_off_c, 9, 45, 95
8, 179040, Note_on_c, 9, 42, 95
8, 179220, Note_off_c, 9, 42, 95
8, 179220, Note_on_c, 9, 42, 95
8, 179460, Note_off_c, 9, 42, 95
8, 179460, Note_on_c, 9, 42, 95
8, 179460, Note_on_c, 9, 38, 95
8, 179700, Note_off_c, 9, 42, 95
8, 179700, Note_off_c, 9, 38, 95
8, 180000, Note_on_c, 9, 42, 95
8, 180180, Note_off_c, 9, 42, 95
8, 180180, Note_on_c, 9, 42, 95
8, 180420, Note_off_c, 9, 42, 95
8, 180420, Note_on_c, 9, 42, 95
8, 180420, Note_on_c, 9, 45, 95
8, 180660, Note_off_c, 9, 42, 95
8, 180660, Note_off_c, 9, 45, 95
8, 180960, Note_on_c, 9, 42, 95
8, 181140, Note_off_c, 9, 42, 95
8, 181140, Note_on_c, 9, 42, 95
8, 181380, Note_off_c, 9, 42, 95
8, 181380, Note_on_c, 9, 42, 95
8, 181380, Note_on_c, 9, 38, 95
8, 181620, Note_off_c, 9, 42, 95
8, 181620, Note_off_c, 9, 38, 95
8, 181920, Note_on_c, 9, 42, 95
8, 182100, Note_off_c, 9, 42, 95
8, 182100, Note_on_c, 9, 42, 95
8, 182340, Note_off_c, 9, 42, 95
8, 182340, Note_on_c, 9, 42, 95
8, 182340, Note_on_c, 9, 45, 95
8, 182580, Note_off_c, 9, 42, 95
8, 182580, Note_off_c, 9, 45, 95
8, 182880, Note_on_c, 9, 42, 95
8, 183060, Note_off_c, 9, 42, 95
8, 183060, Note_on_c, 9, 42, 95
8, 183300, Note_off_c, 9, 42, 95
8, 183300, Note_on_c, 9, 42, 95
8, 183300, Note_on_c, 9, 38, 95
8, 183540, Note_off_c, 9, 42, 95
8, 183540, Note_off_c, 9, 38, 95
8, 183840, Note_on_c, 9, 42, 95
8, 184020, Note_off_c, 9, 42, 95
8, 184020, Note_on_c, 9, 42, 95
8, 184260, Note_off_c, 9, 42, 95
8, 184260, Note_on_c, 9, 42, 95
8, 184260, Note_on_c, 9, 49, 95
8, 184260, Note_on_c, 9, 45, 95
8, 184500, Note_off_c, 9, 42, 95
8, 184500, Note_off_c, 9, 49, 95
8, 184500, Note_off_c, 9, 45, 95
8, 184800, Note_on_c, 9, 42, 95
8, 184980, Note_off_c, 9, 42, 95
8, 184980, Note_on_c, 9, 42, 95
8, 185220, Note_off_c, 9, 42, 95
8, 185220, Note_on_c, 9, 42, 95
8, 185220, Note_on_c, 9, 38, 95
8, 185460, Note_off_c, 9, 42, 95
8, 185460, Note_off_c, 9, 38, 95
8, 185760, Note_on_c, 9, 42, 95
8, 185940, Note_off_c, 9, 42, 95
8, 185940, Note_on_c, 9, 42, 95
8, 186180, Note_off_c, 9, 42, 95
8, 186180, Note_on_c, 9, 42, 95
8, 186180, Note_on_c, 9, 45, 95
8, 186420, Note_off_c, 9, 42, 95
8, 186420, Note_off_c, 9, 45, 95
8, 186720, Note_on_c, 9, 42, 95
8, 186900, Note_off_c, 9, 42, 95
8, 186900, Note_on_c, 9, 42, 95
8, 187140, Note_off_c, 9, 42, 95
8, 187140, Note_on_c, 9, 42, 95
8, 187140, Note_on_c, 9, 38, 95
8, 187380, Note_off_c, 9, 42, 95
8, 187380, Note_off_c, 9, 38, 95
8, 187680, Note_on_c, 9, 42, 95
8, 187860, Note_off_c, 9, 42, 95
8, 187860, Note_on_c, 9, 42, 95
8, 188100, Note_off_c, 9, 42, 95
8, 188100, Note_on_c, 9, 42, 95
8, 188100, Note_on_c, 9, 45, 95
8, 188340, Note_off_c, 9, 42, 95
8, 188340, Note_off_c, 9, 45, 95
8, 188640, Note_on_c, 9, 42, 95
8, 188820, Note_off_c, 9, 42, 95
8, 188820, Note_on_c, 9, 42, 95
8, 189060, Note_off_c, 9, 42, 95
8, 189060, Note_on_c, 9, 42, 95
8, 189060, Note_on_c, 9, 38, 95
8, 189300, Note_off_c, 9, 42, 95
8, 189300, Note_off_c, 9, 38, 95
8, 189600, Note_on_c, 9, 42, 95
8, 189780, Note_off_c, 9, 42, 95
8, 189780, Note_on_c, 9, 42, 95
8, 190020, Note_off_c, 9, 42, 95
8, 190020, Note_on_c, 9, 42, 95
8, 190020, Note_on_c, 9, 45, 95
8, 190260, Note_off_c, 9, 42, 95
8, 190260, Note_off_c, 9, 45, 95
8, 190560, Note_on_c, 9, 42, 95
8, 190740, Note_off_c, 9, 42, 95
8, 190740, Note_on_c, 9, 42, 95
8, 190980, Note_off_c, 9, 42, 95
8, 190980, Note_on_c, 9, 42, 95
8, 190980, Note_on_c, 9, 38, 95
8, 191220, Note_off_c, 9, 42, 95
8, 191220, Note_off_c, 9, 38, 95
8, 191520, Note_on_c, 9, 42, 95
8, 191700, Note_off_c, 9, 42, 95
8, 191700, Note_on_c, 9, 42, 95
8, 191940, Note_off_c, 9, 42, 95
8, 191940, Note_on_c, 9, 42, 95
8, 191940, Note_on_c, 9, 49, 95
8, 191940, Note_on_c, 9, 45, 95
8, 192180, Note_off_c, 9, 42, 95
8, 192180, Note_off_c, 9, 49, 95
8, 192180, Note_off_c, 9, 45, 95
8, 192480, Note_on_c, 9, 42, 95
8, 192660, Note_off_c, 9, 42, 95
8, 192660, Note_on_c, 9, 42, 95
8, 192900, Note_off_c, 9, 42, 95
8, 192900, Note_on_c, 9, 42, 95
8, 192900, Note_on_c, 9, 38, 95
8, 193140, Note_off_c, 9, 42, 95
8, 193140, Note_off_c, 9, 38, 95
8, 193440, Note_on_c, 9, 42, 95
8, 193620, Note_off_c, 9, 42, 95
8, 193620, Note_on_c, 9, 42, 95
8, 193860, Note_off_c, 9, 42, 95
8, 193860, Note_on_c, 9, 42, 95
8, 193860, Note_on_c, 9, 45, 95
8, 194100, Note_off_c, 9, 42, 95
8, 194100, Note_off_c, 9, 45, 95
8, 194400, Note_on_c, 9, 42, 95
8, 194580, Note_off_c, 9, 42, 95
8, 194580, Note_on_c, 9, 42, 95
8, 194820, Note_off_c, 9, 42, 95
8, 194820, Note_on_c, 9, 42, 95
8, 194820, Note_on_c, 9, 38, 95
8, 195060, Note_off_c, 9, 42, 95
8, 195060, Note_off_c, 9, 38, 95
8, 195360, Note_on_c, 9, 42, 95
8, 195540, Note_off_c, 9, 42, 95
8, 195540, Note_on_c, 9, 42, 95
8, 195780, Note_off_c, 9, 42, 95
8, 195780, Note_on_c, 9, 42, 95
8, 195780, Note_on_c, 9, 45, 95
8, 196020, Note_off_c, 9, 42, 95
8, 196020, Note_off_c, 9, 45, 95
8, 196320, Note_on_c, 9, 42, 95
8, 196500, Note_off_c, 9, 42, 95
8, 196500, Note_on_c, 9, 42, 95
8, 196740, Note_off_c, 9, 42, 95
8, 196740, Note_on_c, 9, 42, 95
8, 196740, Note_on_c, 9, 38, 95
8, 196980, Note_off_c, 9, 42, 95
8, 196980, Note_off_c, 9, 38, 95
8, 197280, Note_on_c, 9, 42, 95
8, 197460, Note_off_c, 9, 42, 95
8, 197460, Note_on_c, 9, 42, 95
8, 197700, Note_off_c, 9, 42, 95
8, 197700, Note_on_c, 9, 42, 95
8, 197700, Note_on_c, 9, 45, 95
8, 197940, Note_off_c, 9, 42, 95
8, 197940, Note_off_c, 9, 45, 95
8, 198240, Note_on_c, 9, 42, 95
8, 198420, Note_off_c, 9, 42, 95
8, 198420, Note_on_c, 9, 42, 95
8, 198660, Note_off_c, 9, 42, 95
8, 198660, Note_on_c, 9, 42, 95
8, 198660, Note_on_c, 9, 38, 95
8, 198900, Note_off_c, 9, 42, 95
8, 198900, Note_off_c, 9, 38, 95
8, 199200, Note_on_c, 9, 42, 95
8, 199380, Note_off_c, 9, 42, 95
8, 199380, Note_on_c, 9, 42, 95
8, 199620, Note_off_c, 9, 42, 95
8, 199620, Note_on_c, 9, 42, 95
8, 199620, Note_on_c, 9, 49, 95
8, 199620, Note_on_c, 9, 45, 95
8, 199860, Note_off_c, 9, 42, 95
8, 199860, Note_off_c, 9, 49, 95
8, 199860, Note_off_c, 9, 45, 95
8, 200160, Note_on_c, 9, 42, 95
8, 200340, Note_off_c, 9, 42, 95
8, 200340, Note_on_c, 9, 42, 95
8, 200580, Note_off_c, 9, 42, 95
8, 200580, Note_on_c, 9, 42, 95
8, 200580, Note_on_c, 9, 38, 95
8, 200820, Note_off_c, 9, 42, 95
8, 200820, Note_off_c, 9, 38, 95
8, 201120, Note_on_c, 9, 42, 95
8, 201300, Note_off_c, 9, 42, 95
8, 201300, Note_on_c, 9, 42, 95
8, 201540, Note_off_c, 9, 42, 95
8, 201540, Note_on_c, 9, 42, 95
8, 201540, Note_on_c, 9, 45, 95
8, 201780, Note_off_c, 9, 42, 95
8, 201780, Note_off_c, 9, 45, 95
8, 202080, Note_on_c, 9, 42, 95
8, 202260, Note_off_c, 9, 42, 95
8, 202260, Note_on_c, 9, 42, 95
8, 202500, Note_off_c, 9, 42, 95
8, 202500, Note_on_c, 9, 42, 95
8, 202500, Note_on_c, 9, 38, 95
8, 202740, Note_off_c, 9, 42, 95
8, 202740, Note_off_c, 9, 38, 95
8, 203040, Note_on_c, 9, 42, 95
8, 203220, Note_off_c, 9, 42, 95
8, 203220, Note_on_c, 9, 42, 95
8, 203460, Note_off_c, 9, 42, 95
8, 203460, Note_on_c, 9, 42, 95
8, 203460, Note_on_c, 9, 45, 95
8, 203700, Note_off_c, 9, 42, 95
8, 203700, Note_off_c, 9, 45, 95
8, 204000, Note_on_c, 9, 42, 95
8, 204180, Note_off_c, 9, 42, 95
8, 204180, Note_on_c, 9, 42, 95
8, 204420, Note_off_c, 9, 42, 95
8, 204420, Note_on_c, 9, 42, 95
8, 204420, Note_on_c, 9, 38, 95
8, 204660, Note_off_c, 9, 42, 95
8, 204660, Note_off_c, 9, 38, 95
8, 204960, Note_on_c, 9, 42, 95
8, 205140, Note_off_c, 9, 42, 95
8, 205140, Note_on_c, 9, 42, 95
8, 205380, Note_off_c, 9, 42, 95
8, 205380, Note_on_c, 9, 42, 95
8, 205380, Note_on_c, 9, 45, 95
8, 205620, Note_off_c, 9, 42, 95
8, 205620, Note_off_c, 9, 45, 95
8, 205920, Note_on_c, 9, 42, 95
8, 206100, Note_off_c, 9, 42, 95
8, 206100, Note_on_c, 9, 42, 95
8, 206340, Note_off_c, 9, 42, 95
8, 206340, Note_on_c, 9, 42, 95
8, 206340, Note_on_c, 9, 38, 95
8, 206580, Note_off_c, 9, 42, 95
8, 206580, Note_off_c, 9, 38, 95
8, 206880, Note_on_c, 9, 42, 95
8, 207060, Note_off_c, 9, 42, 95
8, 207060, Note_on_c, 9, 42, 95
8, 207300, Note_off_c, 9, 42, 95
8, 207300, Note_on_c, 9, 42, 95
8, 207300, Note_on_c, 9, 49, 95
8, 207300, Note_on_c, 9, 45, 95
8, 207540, Note_off_c, 9, 42, 95
8, 207540, Note_off_c, 9, 49, 95
8, 207540, Note_off_c, 9, 45, 95
8, 207840, Note_on_c, 9, 42, 95
8, 208020, Note_off_c, 9, 42, 95
8, 208020, Note_on_c, 9, 42, 95
8, 208260, Note_off_c, 9, 42, 95
8, 208260, Note_on_c, 9, 42, 95
8, 208260, Note_on_c, 9, 38, 95
8, 208500, Note_off_c, 9, 42, 95
8, 208500, Note_off_c, 9, 38, 95
8, 208800, Note_on_c, 9, 42, 95
8, 208980, Note_off_c, 9, 42, 95
8, 208980, Note_on_c, 9, 42, 95
8, 209220, Note_off_c, 9, 42, 95
8, 209220, Note_on_c, 9, 42, 95
8, 209220, Note_on_c, 9, 45, 95
8, 209460, Note_off_c, 9, 42, 95
8, 209460, Note_off_c, 9, 45, 95
8, 209760, Note_on_c, 9, 42, 95
8, 209940, Note_off_c, 9, 42, 95
8, 209940, Note_on_c, 9, 42, 95
8, 210180, Note_off_c, 9, 42, 95
8, 210180, Note_on_c, 9, 42, 95
8, 210180, Note_on_c, 9, 38, 95
8, 210420, Note_off_c, 9, 42, 95
8, 210420, Note_off_c, 9, 38, 95
8, 210720, Note_on_c, 9, 42, 95
8, 210900, Note_off_c, 9, 42, 95
8, 210900, Note_on_c, 9, 42, 95
8, 211140, Note_off_c, 9, 42, 95
8, 211140, Note_on_c, 9, 42, 95
8, 211140, Note_on_c, 9, 45, 95
8, 211380, Note_off_c, 9, 42, 95
8, 211380, Note_off_c, 9, 45, 95
8, 211680, Note_on_c, 9, 42, 95
8, 211860, Note_off_c, 9, 42, 95
8, 211860, Note_on_c, 9, 42, 95
8, 212100, Note_off_c, 9, 42, 95
8, 212100, Note_on_c, 9, 42, 95
8, 212100, Note_on_c, 9, 38, 95
8, 212340, Note_off_c, 9, 42, 95
8, 212340, Note_off_c, 9, 38, 95
8, 212640, Note_on_c, 9, 42, 95
8, 212820, Note_off_c, 9, 42, 95
8, 212820, Note_on_c, 9, 42, 95
8, 213060, Note_off_c, 9, 42, 95
8, 213060, Note_on_c, 9, 42, 95
8, 213060, Note_on_c, 9, 45, 95
8, 213300, Note_off_c, 9, 42, 95
8, 213300, Note_off_c, 9, 45, 95
8, 213600, Note_on_c, 9, 42, 95
8, 213780, Note_off_c, 9, 42, 95
8, 213780, Note_on_c, 9, 42, 95
8, 214020, Note_off_c, 9, 42, 95
8, 214020, Note_on_c, 9, 42, 95
8, 214020, Note_on_c, 9, 38, 95
8, 214260, Note_off_c, 9, 42, 95
8, 214260, Note_off_c, 9, 38, 95
8, 214560, Note_on_c, 9, 42, 95
8, 214740, Note_off_c, 9, 42, 95
8, 214740, Note_on_c, 9, 42, 95
8, 214980, Note_off_c, 9, 42, 95
8, 214980, Note_on_c, 9, 42, 95
8, 214980, Note_on_c, 9, 49, 95
8, 214980, Note_on_c, 9, 45, 95
8, 215220, Note_off_c, 9, 42, 95
8, 215220, Note_off_c, 9, 49, 95
8, 215220, Note_off_c, 9, 45, 95
8, 215520, Note_on_c, 9, 42, 95
8, 215700, Note_off_c, 9, 42, 95
8, 215700, Note_on_c, 9, 42, 95
8, 215940, Note_off_c, 9, 42, 95
8, 215940, Note_on_c, 9, 42, 95
8, 215940, Note_on_c, 9, 38, 95
8, 216180, Note_off_c, 9, 42, 95
8, 216180, Note_off_c, 9, 38, 95
8, 216480, Note_on_c, 9, 42, 95
8, 216660, Note_off_c, 9, 42, 95
8, 216660, Note_on_c, 9, 42, 95
8, 216900, Note_off_c, 9, 42, 95
8, 216900, Note_on_c, 9, 42, 95
8, 216900, Note_on_c, 9, 45, 95
8, 217140, Note_off_c, 9, 42, 95
8, 217140, Note_off_c, 9, 45, 95
8, 217440, Note_on_c, 9, 42, 95
8, 217620, Note_off_c, 9, 42, 95
8, 217620, Note_on_c, 9, 42, 95
8, 217860, Note_off_c, 9, 42, 95
8, 217860, Note_on_c, 9, 42, 95
8, 217860, Note_on_c, 9, 38, 95
8, 218100, Note_off_c, 9, 42, 95
8, 218100, Note_off_c, 9, 38, 95
8, 218400, Note_on_c, 9, 42, 95
8, 218580, Note_off_c, 9, 42, 95
8, 218580, Note_on_c, 9, 42, 95
8, 218820, Note_off_c, 9, 42, 95
8, 218820, Note_on_c, 9, 42, 95
8, 218820, Note_on_c, 9, 45, 95
8, 218880, Note_off_c, 9, 42, 95
8, 218880, Note_off_c, 9, 45, 95
8, 218880, Note_on_c, 9, 42, 95
8, 218880, Note_on_c, 9, 45, 95
8, 219060, Note_off_c, 9, 42, 95
8, 219060, Note_off_c, 9, 45, 95
8, 219360, Note_on_c, 9, 42, 95
8, 219540, Note_off_c, 9, 42, 95
8, 219600, Note_on_c, 9, 42, 95
8, 219780, Note_off_c, 9, 42, 95
8, 219840, Note_on_c, 9, 42, 95
8, 219840, Note_on_c, 9, 38, 95
8, 220020, Note_off_c, 9, 42, 95
8, 220020, Note_off_c, 9, 38, 95
8, 220320, Note_on_c, 9, 42, 95
8, 220500, Note_off_c, 9, 42, 95
8, 220560, Note_on_c, 9, 42, 95
8, 220740, Note_off_c, 9, 42, 95
8, 220800, Note_on_c, 9, 38, 95
8, 220920, Note_off_c, 9, 38, 95
8, 220920, Note_on_c, 9, 38, 95
8, 221100, Note_off_c, 9, 38, 95
8, 221100, Note_on_c, 9, 38, 95
8, 221220, Note_off_c, 9, 38, 95
8, 221220, Note_on_c, 9, 38, 95
8, 221340, Note_off_c, 9, 38, 95
8, 221340, Note_on_c, 9, 38, 95
8, 221460, Note_off_c, 9, 38, 95
8, 221460, Note_on_c, 9, 38, 95
8, 221580, Note_off_c, 9, 38, 95
8, 221580, Note_on_c, 9, 38, 95
8, 221700, Note_off_c, 9, 38, 95
8, 221700, Note_on_c, 9, 38, 95
8, 221820, Note_off_c, 9, 38, 95
8, 221820, Note_on_c, 9, 38, 95
8, 221940, Note_off_c, 9, 38, 95
8, 221940, Note_on_c, 9, 38, 95
8, 222060, Note_off_c, 9, 38, 95
8, 222060, Note_on_c, 9, 38, 95
8, 222180, Note_off_c, 9, 38, 95
8, 222180, Note_on_c, 9, 38, 95
8, 222300, Note_off_c, 9, 38, 95
8, 222300, Note_on_c, 9, 38, 95
8, 222540, Note_off_c, 9, 38, 95
8, 222660, Note_on_c, 9, 42, 95
8, 222660, Note_on_c, 9, 49, 95
8, 222660, Note_on_c, 9, 45, 95
8, 222660, Note_on_c, 9, 38, 95
8, 222900, Note_off_c, 9, 42, 95
8, 222900, Note_off_c, 9, 49, 95
8, 222900, Note_off_c, 9, 45, 95
8, 222900, Note_off_c, 9, 38, 95
8, 223200, Note_on_c, 9, 42, 95
8, 223380, Note_off_c, 9, 42, 95
8, 223380, Note_on_c, 9, 42, 95
8, 223620, Note_off_c, 9, 42, 95
8, 223620, Note_on_c, 9, 42, 95
8, 223620, Note_on_c, 9, 38, 95
8, 223860, Note_off_c, 9, 42, 95
8, 223860, Note_off_c, 9, 38, 95
8, 224160, Note_on_c, 9, 42, 95
8, 224340, Note_off_c, 9, 42, 95
8, 224340, Note_on_c, 9, 42, 95
8, 224580, Note_off_c, 9, 42, 95
8, 224580, Note_on_c, 9, 42, 95
8, 224580, Note_on_c, 9, 45, 95
8, 224820, Note_off_c, 9, 42, 95
8, 224820, Note_off_c, 9, 45, 95
8, 225120, Note_on_c, 9, 42, 95
8, 225300, Note_off_c, 9, 42, 95
8, 225300, Note_on_c, 9, 42, 95
8, 225540, Note_off_c, 9, 42, 95
8, 225540, Note_on_c, 9, 42, 95
8, 225540, Note_on_c, 9, 38, 95
8, 225780, Note_off_c, 9, 42, 95
8, 225780, Note_off_c, 9, 38, 95
8, 226080, Note_on_c, 9, 42, 95
8, 226260, Note_off_c, 9, 42, 95
8, 226260, Note_on_c, 9, 42, 95
8, 226500, Note_off_c, 9, 42, 95
8, 226500, Note_on_c, 9, 42, 95
8, 226500, Note_on_c, 9, 45, 95
8, 226740, Note_off_c, 9, 42, 95
8, 226740, Note_off_c, 9, 45, 95
8, 227040, Note_on_c, 9, 42, 95
8, 227220, Note_off_c, 9, 42, 95
8, 227220, Note_on_c, 9, 42, 95
8, 227460, Note_off_c, 9, 42, 95
8, 227460, Note_on_c, 9, 42, 95
8, 227460, Note_on_c, 9, 38, 95
8, 227700, Note_off_c, 9, 42, 95
8, 227700, Note_off_c, 9, 38, 95
8, 228000, Note_on_c, 9, 42, 95
8, 228180, Note_off_c, 9, 42, 95
8, 228180, Note_on_c, 9, 42, 95
8, 228420, Note_off_c, 9, 42, 95
8, 228420, Note_on_c, 9, 42, 95
8, 228420, Note_on_c, 9, 45, 95
8, 228660, Note_off_c, 9, 42, 95
8, 228660, Note_off_c, 9, 45, 95
8, 228960, Note_on_c, 9, 42, 95
8, 229140, Note_off_c, 9, 42, 95
8, 229140, Note_on_c, 9, 42, 95
8, 229380, Note_off_c, 9, 42, 95
8, 229380, Note_on_c, 9, 42, 95
8, 229380, Note_on_c, 9, 38, 95
8, 229620, Note_off_c, 9, 42, 95
8, 229620, Note_off_c, 9, 38, 95
8, 229920, Note_on_c, 9, 42, 95
8, 230100, Note_off_c, 9, 42, 95
8, 230100, Note_on_c, 9, 42, 95
8, 230340, Note_off_c, 9, 42, 95
8, 230340, Note_on_c, 9, 42, 95
8, 230340, Note_on_c, 9, 49, 95
8, 230340, Note_on_c, 9, 45, 95
8, 230580, Note_off_c, 9, 42, 95
8, 230580, Note_off_c, 9, 49, 95
8, 230580, Note_off_c, 9, 45, 95
8, 230880, Note_on_c, 9, 42, 95
8, 231060, Note_off_c, 9, 42, 95
8, 231060, Note_on_c, 9, 42, 95
8, 231300, Note_off_c, 9, 42, 95
8, 231300, Note_on_c, 9, 42, 95
8, 231300, Note_on_c, 9, 38, 95
8, 231540, Note_off_c, 9, 42, 95
8, 231540, Note_off_c, 9, 38, 95
8, 231840, Note_on_c, 9, 42, 95
8, 232020, Note_off_c, 9, 42, 95
8, 232020, Note_on_c, 9, 42, 95
8, 232260, Note_off_c, 9, 42, 95
8, 232260, Note_on_c, 9, 42, 95
8, 232260, Note_on_c, 9, 45, 95
8, 232500, Note_off_c, 9, 42, 95
8, 232500, Note_off_c, 9, 45, 95
8, 232800, Note_on_c, 9, 42, 95
8, 232980, Note_off_c, 9, 42, 95
8, 232980, Note_on_c, 9, 42, 95
8, 233220, Note_off_c, 9, 42, 95
8, 233220, Note_on_c, 9, 42, 95
8, 233220, Note_on_c, 9, 38, 95
8, 233460, Note_off_c, 9, 42, 95
8, 233460, Note_off_c, 9, 38, 95
8, 233760, Note_on_c, 9, 42, 95
8, 233940, Note_off_c, 9, 42, 95
8, 233940, Note_on_c, 9, 42, 95
8, 234180, Note_off_c, 9, 42, 95
8, 234180, Note_on_c, 9, 42, 95
8, 234180, Note_on_c, 9, 45, 95
8, 234420, Note_off_c, 9, 42, 95
8, 234420, Note_off_c, 9, 45, 95
8, 234720, Note_on_c, 9, 42, 95
8, 234900, Note_off_c, 9, 42, 95
8, 234900, Note_on_c, 9, 42, 95
8, 235140, Note_off_c, 9, 42, 95
8, 235140, Note_on_c, 9, 42, 95
8, 235140, Note_on_c, 9, 38, 95
8, 235380, Note_off_c, 9, 42, 95
8, 235380, Note_off_c, 9, 38, 95
8, 235680, Note_on_c, 9, 42, 95
8, 235860, Note_off_c, 9, 42, 95
8, 235860, Note_on_c, 9, 42, 95
8, 236100, Note_off_c, 9, 42, 95
8, 236100, Note_on_c, 9, 42, 95
8, 236100, Note_on_c, 9, 45, 95
8, 236340, Note_off_c, 9, 42, 95
8, 236340, Note_off_c, 9, 45, 95
8, 236640, Note_on_c, 9, 42, 95
8, 236820, Note_off_c, 9, 42, 95
8, 236820, Note_on_c, 9, 42, 95
8, 237060, Note_off_c, 9, 42, 95
8, 237060, Note_on_c, 9, 42, 95
8, 237060, Note_on_c, 9, 38, 95
8, 237300, Note_off_c, 9, 42, 95
8, 237300, Note_off_c, 9, 38, 95
8, 237600, Note_on_c, 9, 42, 95
8, 237780, Note_off_c, 9, 42, 95
8, 237780, Note_on_c, 9, 42, 95
8, 238020, Note_off_c, 9, 42, 95
8, 238020, Note_on_c, 9, 42, 95
8, 238020, Note_on_c, 9, 49, 95
8, 238020, Note_on_c, 9, 45, 95
8, 238260, Note_off_c, 9, 42, 95
8, 238260, Note_off_c, 9, 49, 95
8, 238260, Note_off_c, 9, 45, 95
8, 238560, Note_on_c, 9, 42, 95
8, 238740, Note_off_c, 9, 42, 95
8, 238740, Note_on_c, 9, 42, 95
8, 238980, Note_off_c, 9, 42, 95
8, 238980, Note_on_c, 9, 42, 95
8, 238980, Note_on_c, 9, 38, 95
8, 239220, Note_off_c, 9, 42, 95
8, 239220, Note_off_c, 9, 38, 95
8, 239520, Note_on_c, 9, 42, 95
8, 239700, Note_off_c, 9, 42, 95
8, 239700, Note_on_c, 9, 42, 95
8, 239940, Note_off_c, 9, 42, 95
8, 239940, Note_on_c, 9, 42, 95
8, 239940, Note_on_c, 9, 45, 95
8, 240180, Note_off_c, 9, 42, 95
8, 240180, Note_off_c, 9, 45, 95
8, 240480, Note_on_c, 9, 42, 95
8, 240660, Note_off_c, 9, 42, 95
8, 240660, Note_on_c, 9, 42, 95
8, 240900, Note_off_c, 9, 42, 95
8, 240900, Note_on_c, 9, 42, 95
8, 240900, Note_on_c, 9, 38, 95
8, 241140, Note_off_c, 9, 42, 95
8, 241140, Note_off_c, 9, 38, 95
8, 241440, Note_on_c, 9, 42, 95
8, 241620, Note_off_c, 9, 42, 95
8, 241620, Note_on_c, 9, 42, 95
8, 241860, Note_off_c, 9, 42, 95
8, 241860, Note_on_c, 9, 42, 95
8, 241860, Note_on_c, 9, 45, 95
8, 242100, Note_off_c, 9, 42, 95
8, 242100, Note_off_c, 9, 45, 95
8, 242400, Note_on_c, 9, 42, 95
8, 242580, Note_off_c, 9, 42, 95
8, 242580, Note_on_c, 9, 42, 95
8, 242820, Note_off_c, 9, 42, 95
8, 242820, Note_on_c, 9, 42, 95
8, 242820, Note_on_c, 9, 38, 95
8, 243060, Note_off_c, 9, 42, 95
8, 243060, Note_off_c, 9, 38, 95
8, 243360, Note_on_c, 9, 42, 95
8, 243540, Note_off_c, 9, 42, 95
8, 243540, Note_on_c, 9, 42, 95
8, 243780, Note_off_c, 9, 42, 95
8, 243780, Note_on_c, 9, 42, 95
8, 243780, Note_on_c, 9, 45, 95
8, 244020, Note_off_c, 9, 42, 95
8, 244020, Note_off_c, 9, 45, 95
8, 244320, Note_on_c, 9, 42, 95
8, 244500, Note_off_c, 9, 42, 95
8, 244500, Note_on_c, 9, 42, 95
8, 244740, Note_off_c, 9, 42, 95
8, 244740, Note_on_c, 9, 42, 95
8, 244740, Note_on_c, 9, 38, 95
8, 244980, Note_off_c, 9, 42, 95
8, 244980, Note_off_c, 9, 38, 95
8, 245280, Note_on_c, 9, 42, 95
8, 245460, Note_off_c, 9, 42, 95
8, 245460, Note_on_c, 9, 42, 95
8, 245700, Note_off_c, 9, 42, 95
8, 245700, Note_on_c, 9, 42, 95
8, 245700, Note_on_c, 9, 49, 95
8, 245700, Note_on_c, 9, 45, 95
8, 245940, Note_off_c, 9, 42, 95
8, 245940, Note_off_c, 9, 49, 95
8, 245940, Note_off_c, 9, 45, 95
8, 246240, Note_on_c, 9, 42, 95
8, 246420, Note_off_c, 9, 42, 95
8, 246420, Note_on_c, 9, 42, 95
8, 246660, Note_off_c, 9, 42, 95
8, 246660, Note_on_c, 9, 42, 95
8, 246660, Note_on_c, 9, 38, 95
8, 246900, Note_off_c, 9, 42, 95
8, 246900, Note_off_c, 9, 38, 95
8, 247200, Note_on_c, 9, 42, 95
8, 247380, Note_off_c, 9, 42, 95
8, 247380, Note_on_c, 9, 42, 95
8, 247620, Note_off_c, 9, 42, 95
8, 247620, Note_on_c, 9, 42, 95
8, 247620, Note_on_c, 9, 45, 95
8, 247860, Note_off_c, 9, 42, 95
8, 247860, Note_off_c, 9, 45, 95
8, 248160, Note_on_c, 9, 42, 95
8, 248340, Note_off_c, 9, 42, 95
8, 248340, Note_on_c, 9, 42, 95
8, 248580, Note_off_c, 9, 42, 95
8, 248580, Note_on_c, 9, 42, 95
8, 248580, Note_on_c, 9, 38, 95
8, 248820, Note_off_c, 9, 42, 95
8, 248820, Note_off_c, 9, 38, 95
8, 249120, Note_on_c, 9, 42, 95
8, 249300, Note_off_c, 9, 42, 95
8, 249300, Note_on_c, 9, 42, 95
8, 249540, Note_off_c, 9, 42, 95
8, 249540, Note_on_c, 9, 42, 95
8, 249540, Note_on_c, 9, 45, 95
8, 249780, Note_off_c, 9, 42, 95
8, 249780, Note_off_c, 9, 45, 95
8, 250080, Note_on_c, 9, 42, 95
8, 250260, Note_off_c, 9, 42, 95
8, 250260, Note_on_c, 9, 42, 95
8, 250500, Note_off_c, 9, 42, 95
8, 250500, Note_on_c, 9, 42, 95
8, 250500, Note_on_c, 9, 38, 95
8, 250740, Note_off_c, 9, 42, 95
8, 250740, Note_off_c, 9, 38, 95
8, 251040, Note_on_c, 9, 42, 95
8, 251220, Note_off_c, 9, 42, 95
8, 251220, Note_on_c, 9, 42, 95
8, 251460, Note_off_c, 9, 42, 95
8, 251460, Note_on_c, 9, 42, 95
8, 251460, Note_on_c, 9, 45, 95
8, 251700, Note_off_c, 9, 42, 95
8, 251700, Note_off_c, 9, 45, 95
8, 252000, Note_on_c, 9, 42, 95
8, 252180, Note_off_c, 9, 42, 95
8, 252180, Note_on_c, 9, 42, 95
8, 252420, Note_off_c, 9, 42, 95
8, 252420, Note_on_c, 9, 42, 95
8, 252420, Note_on_c, 9, 38, 95
8, 252660, Note_off_c, 9, 42, 95
8, 252660, Note_off_c, 9, 38, 95
8, 252960, Note_on_c, 9, 49, 95
8, 253260, Note_off_c, 9, 49, 95
8, 253440, Note_on_c, 9, 38, 95
8, 253620, Note_off_c, 9, 38, 95
8, 253620, Note_on_c, 9, 38, 95
8, 253860, Note_off_c, 9, 38, 95
8, 253860, Note_on_c, 9, 47, 95
8, 254100, Note_off_c, 9, 47, 95
8, 254100, Note_on_c, 9, 45, 95
8, 254340, Note_off_c, 9, 45, 95
8, 254340, Note_on_c, 9, 38, 95
8, 254700, Note_off_c, 9, 38, 95
8, 254880, Note_on_c, 9, 49, 95
8, 255180, Note_off_c, 9, 49, 95
8, 255360, Note_on_c, 9, 38, 95
8, 255540, Note_off_c, 9, 38, 95
8, 255540, Note_on_c, 9, 38, 95
8, 255780, Note_off_c, 9, 38, 95
8, 255780, Note_on_c, 9, 47, 95
8, 256020, Note_off_c, 9, 47, 95
8, 256020, Note_on_c, 9, 45, 95
8, 256260, Note_off_c, 9, 45, 95
8, 256260, Note_on_c, 9, 38, 95
8, 256620, Note_off_c, 9, 38, 95
8, 256800, Note_on_c, 9, 49, 95
8, 257100, Note_off_c, 9, 49, 95
8, 257280, Note_on_c, 9, 38, 95
8, 257460, Note_off_c, 9, 38, 95
8, 257460, Note_on_c, 9, 38, 95
8, 257700, Note_off_c, 9, 38, 95
8, 257700, Note_on_c, 9, 47, 95
8, 257940, Note_off_c, 9, 47, 95
8, 257940, Note_on_c, 9, 45, 95
8, 258180, Note_off_c, 9, 45, 95
8, 258180, Note_on_c, 9, 38, 95
8, 258540, Note_off_c, 9, 38, 95
8, 258720, Note_on_c, 9, 38, 95
8, 258900, Note_off_c, 9, 38, 95
8, 258900, Note_on_c, 9, 38, 95
8, 259140, Note_off_c, 9, 38, 95
8, 259140, Note_on_c, 9, 49, 95
8, 259500, Note_off_c, 9, 49, 95
8, 261120, Note_on_c, 9, 42, 95
8, 261120, Note_on_c, 9, 45, 95
8, 261300, Note_off_c, 9, 42, 95
8, 261300, Note_off_c, 9, 45, 95
8, 261600, Note_on_c, 9, 42, 95
8, 261780, Note_off_c, 9, 42, 95
8, 261780, Note_on_c, 9, 42, 95
8, 262020, Note_off_c, 9, 42, 95
8, 262020, Note_on_c, 9, 42, 95
8, 262020, Note_on_c, 9, 38, 95
8, 262260, Note_off_c, 9, 42, 95
8, 262260, Note_off_c, 9, 38, 95
8, 262560, Note_on_c, 9, 42, 95
8, 262740, Note_off_c, 9, 42, 95
8, 262740, Note_on_c, 9, 42, 95
8, 262980, Note_off_c, 9, 42, 95
8, 262980, Note_on_c, 9, 42, 95
8, 262980, Note_on_c, 9, 45, 95
8, 263220, Note_off_c, 9, 42, 95
8, 263220, Note_off_c, 9, 45, 95
8, 263520, Note_on_c, 9, 42, 95
8, 263700, Note_off_c, 9, 42, 95
8, 263700, Note_on_c, 9, 42, 95
8, 263940, Note_off_c, 9, 42, 95
8, 263940, Note_on_c, 9, 42, 95
8, 263940, Note_on_c, 9, 38, 95
8, 264180, Note_off_c, 9, 42, 95
8, 264180, Note_off_c, 9, 38, 95
8, 264480, Note_on_c, 9, 42, 95
8, 264660, Note_off_c, 9, 42, 95
8, 264660, Note_on_c, 9, 42, 95
8, 264900, Note_off_c, 9, 42, 95
8, 264900, Note_on_c, 9, 42, 95
8, 264900, Note_on_c, 9, 49, 95
8, 264900, Note_on_c, 9, 45, 95
8, 265140, Note_off_c, 9, 42, 95
8, 265140, Note_off_c, 9, 49, 95
8, 265140, Note_off_c, 9, 45, 95
8, 265440, Note_on_c, 9, 42, 95
8, 265620, Note_off_c, 9, 42, 95
8, 265620, Note_on_c, 9, 42, 95
8, 265860, Note_off_c, 9, 42, 95
8, 265860, Note_on_c, 9, 42, 95
8, 265860, Note_on_c, 9, 38, 95
8, 266100, Note_off_c, 9, 42, 95
8, 266100, Note_off_c, 9, 38, 95
8, 266400, Note_on_c, 9, 42, 95
8, 266580, Note_off_c, 9, 42, 95
8, 266580, Note_on_c, 9, 42, 95
8, 266820, Note_off_c, 9, 42, 95
8, 266820, Note_on_c, 9, 42, 95
8, 266820, Note_on_c, 9, 45, 95
8, 267060, Note_off_c, 9, 42, 95
8, 267060, Note_off_c, 9, 45, 95
8, 267360, Note_on_c, 9, 42, 95
8, 267540, Note_off_c, 9, 42, 95
8, 267540, Note_on_c, 9, 42, 95
8, 267780, Note_off_c, 9, 42, 95
8, 267780, Note_on_c, 9, 42, 95
8, 267780, Note_on_c, 9, 38, 95
8, 268020, Note_off_c, 9, 42, 95
8, 268020, Note_off_c, 9, 38, 95
8, 268320, Note_on_c, 9, 42, 95
8, 268500, Note_off_c, 9, 42, 95
8, 268500, Note_on_c, 9, 42, 95
8, 268740, Note_off_c, 9, 42, 95
8, 268740, Note_on_c, 9, 42, 95
8, 268740, Note_on_c, 9, 45, 95
8, 268980, Note_off_c, 9, 42, 95
8, 268980, Note_off_c, 9, 45, 95
8, 269280, Note_on_c, 9, 42, 95
8, 269460, Note_off_c, 9, 42, 95
8, 269460, Note_on_c, 9, 42, 95
8, 269700, Note_off_c, 9, 42, 95
8, 269700, Note_on_c, 9, 42, 95
8, 269700, Note_on_c, 9, 38, 95
8, 269940, Note_off_c, 9, 42, 95
8, 269940, Note_off_c, 9, 38, 95
8, 270240, Note_on_c, 9, 42, 95
8, 270420, Note_off_c, 9, 42, 95
8, 270420, Note_on_c, 9, 42, 95
8, 270660, Note_off_c, 9, 42, 95
8, 270660, Note_on_c, 9, 42, 95
8, 270660, Note_on_c, 9, 45, 95
8, 270900, Note_off_c, 9, 42, 95
8, 270900, Note_off_c, 9, 45, 95
8, 271200, Note_on_c, 9, 42, 95
8, 271380, Note_off_c, 9, 42, 95
8, 271380, Note_on_c, 9, 42, 95
8, 271620, Note_off_c, 9, 42, 95
8, 271620, Note_on_c, 9, 42, 95
8, 271620, Note_on_c, 9, 38, 95
8, 271860, Note_off_c, 9, 42, 95
8, 271860, Note_off_c, 9, 38, 95
8, 272160, Note_on_c, 9, 42, 95
8, 272340, Note_off_c, 9, 42, 95
8, 272340, Note_on_c, 9, 42, 95
8, 272580, Note_off_c, 9, 42, 95
8, 272580, Note_on_c, 9, 42, 95
8, 272580, Note_on_c, 9, 45, 95
8, 272580, Note_on_c, 9, 49, 95
8, 272820, Note_off_c, 9, 42, 95
8, 272820, Note_off_c, 9, 45, 95
8, 272820, Note_off_c, 9, 49, 95
8, 273120, Note_on_c, 9, 42, 95
8, 273300, Note_off_c, 9, 42, 95
8, 273300, Note_on_c, 9, 42, 95
8, 273540, Note_off_c, 9, 42, 95
8, 273540, Note_on_c, 9, 42, 95
8, 273540, Note_on_c, 9, 38, 95
8, 273780, Note_off_c, 9, 42, 95
8, 273780, Note_off_c, 9, 38, 95
8, 274080, Note_on_c, 9, 42, 95
8, 274260, Note_off_c, 9, 42, 95
8, 274260, Note_on_c, 9, 42, 95
8, 274500, Note_off_c, 9, 42, 95
8, 274500, Note_on_c, 9, 42, 95
8, 274500, Note_on_c, 9, 45, 95
8, 274740, Note_off_c, 9, 42, 95
8, 274740, Note_off_c, 9, 45, 95
8, 275040, Note_on_c, 9, 42, 95
8, 275220, Note_off_c, 9, 42, 95
8, 275220, Note_on_c, 9, 42, 95
8, 275460, Note_off_c, 9, 42, 95
8, 275460, Note_on_c, 9, 42, 95
8, 275460, Note_on_c, 9, 38, 95
8, 275700, Note_off_c, 9, 42, 95
8, 275700, Note_off_c, 9, 38, 95
8, 276000, Note_on_c, 9, 49, 95
8, 276000, Note_on_c, 9, 42, 95
8, 276180, Note_off_c, 9, 49, 95
8, 276180, Note_off_c, 9, 42, 95
8, 276180, Note_on_c, 9, 42, 95
8, 276420, Note_off_c, 9, 42, 95
8, 276420, Note_on_c, 9, 38, 95
8, 276660, Note_off_c, 9, 38, 95
8, 276660, Note_on_c, 9, 38, 95
8, 276900, Note_off_c, 9, 38, 95
8, 276900, Note_on_c, 9, 47, 95
8, 277140, Note_off_c, 9, 47, 95
8, 277140, Note_on_c, 9, 45, 95
8, 277380, Note_off_c, 9, 45, 95
8, 277380, Note_on_c, 9, 38, 95
8, 277740, Note_off_c, 9, 38, 95
8, 277920, Note_on_c, 9, 49, 95
8, 278220, Note_off_c, 9, 49, 95
8, 278400, Note_on_c, 9, 38, 95
8, 278580, Note_off_c, 9, 38, 95
8, 278580, Note_on_c, 9, 38, 95
8, 278820, Note_off_c, 9, 38, 95
8, 278820, Note_on_c, 9, 47, 95
8, 279060, Note_off_c, 9, 47, 95
8, 279060, Note_on_c, 9, 45, 95
8, 279300, Note_off_c, 9, 45, 95
8, 279300, Note_on_c, 9, 38, 95
8, 279660, Note_off_c, 9, 38, 95
8, 279840, Note_on_c, 9, 49, 95
8, 280140, Note_off_c, 9, 49, 95
8, 280320, Note_on_c, 9, 38, 95
8, 280500, Note_off_c, 9, 38, 95
8, 280500, Note_on_c, 9, 38, 95
8, 280740, Note_off_c, 9, 38, 95
8, 280740, Note_on_c, 9, 47, 95
8, 280980, Note_off_c, 9, 47, 95
8, 280980, Note_on_c, 9, 45, 95
8, 281220, Note_off_c, 9, 45, 95
8, 281220, Note_on_c, 9, 38, 95
8, 281580, Note_off_c, 9, 38, 95
8, 281760, Note_on_c, 9, 38, 95
8, 281940, Note_off_c, 9, 38, 95
8, 281940, Note_on_c, 9, 38, 95
8, 282180, Note_off_c, 9, 38, 95
8, 282180, Note_on_c, 9, 49, 95
8, 282540, Note_off_c, 9, 49, 95
8, 284160, Note_on_c, 9, 42, 95
8, 284160, Note_on_c, 9, 49, 95
8, 284160, Note_on_c, 9, 45, 95
8, 284340, Note_off_c, 9, 42, 95
8, 284340, Note_off_c, 9, 49, 95
8, 284340, Note_off_c, 9, 45, 95
8, 284640, Note_on_c, 9, 42, 95
8, 284820, Note_off_c, 9, 42, 95
8, 284820, Note_on_c, 9, 42, 95
8, 285060, Note_off_c, 9, 42, 95
8, 285060, Note_on_c, 9, 42, 95
8, 285060, Note_on_c, 9, 38, 95
8, 285300, Note_off_c, 9, 42, 95
8, 285300, Note_off_c, 9, 38, 95
8, 285600, Note_on_c, 9, 42, 95
8, 285780, Note_off_c, 9, 42, 95
8, 285780, Note_on_c, 9, 42, 95
8, 286020, Note_off_c, 9, 42, 95
8, 286020, Note_on_c, 9, 42, 95
8, 286020, Note_on_c, 9, 45, 95
8, 286260, Note_off_c, 9, 42, 95
8, 286260, Note_off_c, 9, 45, 95
8, 286560, Note_on_c, 9, 42, 95
8, 286740, Note_off_c, 9, 42, 95
8, 286740, Note_on_c, 9, 42, 95
8, 286980, Note_off_c, 9, 42, 95
8, 286980, Note_on_c, 9, 42, 95
8, 286980, Note_on_c, 9, 38, 95
8, 287220, Note_off_c, 9, 42, 95
8, 287220, Note_off_c, 9, 38, 95
8, 287520, Note_on_c, 9, 42, 95
8, 287700, Note_off_c, 9, 42, 95
8, 287700, Note_on_c, 9, 42, 95
8, 287940, Note_off_c, 9, 42, 95
8, 287940, Note_on_c, 9, 42, 95
8, 287940, Note_on_c, 9, 45, 95
8, 288180, Note_off_c, 9, 42, 95
8, 288180, Note_off_c, 9, 45, 95
8, 288480, Note_on_c, 9, 42, 95
8, 288660, Note_off_c, 9, 42, 95
8, 288660, Note_on_c, 9, 42, 95
8, 288900, Note_off_c, 9, 42, 95
8, 288900, Note_on_c, 9, 42, 95
8, 288900, Note_on_c, 9, 38, 95
8, 289140, Note_off_c, 9, 42, 95
8, 289140, Note_off_c, 9, 38, 95
8, 289440, Note_on_c, 9, 42, 95
8, 289620, Note_off_c, 9, 42, 95
8, 289620, Note_on_c, 9, 42, 95
8, 289860, Note_off_c, 9, 42, 95
8, 289860, Note_on_c, 9, 42, 95
8, 289860, Note_on_c, 9, 45, 95
8, 290100, Note_off_c, 9, 42, 95
8, 290100, Note_off_c, 9, 45, 95
8, 290400, Note_on_c, 9, 42, 95
8, 290580, Note_off_c, 9, 42, 95
8, 290580, Note_on_c, 9, 42, 95
8, 290820, Note_off_c, 9, 42, 95
8, 290820, Note_on_c, 9, 42, 95
8, 290820, Note_on_c, 9, 38, 95
8, 291060, Note_off_c, 9, 42, 95
8, 291060, Note_off_c, 9, 38, 95
8, 291360, Note_on_c, 9, 42, 95
8, 291540, Note_off_c, 9, 42, 95
8, 291540, Note_on_c, 9, 42, 95
8, 291780, Note_off_c, 9, 42, 95
8, 291780, Note_on_c, 9, 42, 95
8, 291780, Note_on_c, 9, 49, 95
8, 291780, Note_on_c, 9, 45, 95
8, 292020, Note_off_c, 9, 42, 95
8, 292020, Note_off_c, 9, 49, 95
8, 292020, Note_off_c, 9, 45, 95
8, 292320, Note_on_c, 9, 42, 95
8, 292500, Note_off_c, 9, 42, 95
8, 292500, Note_on_c, 9, 42, 95
8, 292740, Note_off_c, 9, 42, 95
8, 292740, Note_on_c, 9, 42, 95
8, 292740, Note_on_c, 9, 38, 95
8, 292980, Note_off_c, 9, 42, 95
8, 292980, Note_off_c, 9, 38, 95
8, 293280, Note_on_c, 9, 42, 95
8, 293460, Note_off_c, 9, 42, 95
8, 293460, Note_on_c, 9, 42, 95
8, 293700, Note_off_c, 9, 42, 95
8, 293700, Note_on_c, 9, 42, 95
8, 293700, Note_on_c, 9, 45, 95
8, 293940, Note_off_c, 9, 42, 95
8, 293940, Note_off_c, 9, 45, 95
8, 294240, Note_on_c, 9, 42, 95
8, 294420, Note_off_c, 9, 42, 95
8, 294420, Note_on_c, 9, 42, 95
8, 294660, Note_off_c, 9, 42, 95
8, 294660, Note_on_c, 9, 42, 95
8, 294660, Note_on_c, 9, 38, 95
8, 294900, Note_off_c, 9, 42, 95
8, 294900, Note_off_c, 9, 38, 95
8, 295200, Note_on_c, 9, 42, 95
8, 295380, Note_off_c, 9, 42, 95
8, 295380, Note_on_c, 9, 42, 95
8, 295620, Note_off_c, 9, 42, 95
8, 295620, Note_on_c, 9, 42, 95
8, 295620, Note_on_c, 9, 45, 95
8, 295860, Note_off_c, 9, 42, 95
8, 295860, Note_off_c, 9, 45, 95
8, 296160, Note_on_c, 9, 42, 95
8, 296340, Note_off_c, 9, 42, 95
8, 296340, Note_on_c, 9, 42, 95
8, 296580, Note_off_c, 9, 42, 95
8, 296580, Note_on_c, 9, 42, 95
8, 296580, Note_on_c, 9, 38, 95
8, 296820, Note_off_c, 9, 42, 95
8, 296820, Note_off_c, 9, 38, 95
8, 297120, Note_on_c, 9, 42, 95
8, 297300, Note_off_c, 9, 42, 95
8, 297300, Note_on_c, 9, 42, 95
8, 297540, Note_off_c, 9, 42, 95
8, 297540, Note_on_c, 9, 42, 95
8, 297540, Note_on_c, 9, 45, 95
8, 297780, Note_off_c, 9, 42, 95
8, 297780, Note_off_c, 9, 45, 95
8, 298080, Note_on_c, 9, 42, 95
8, 298260, Note_off_c, 9, 42, 95
8, 298260, Note_on_c, 9, 42, 95
8, 298500, Note_off_c, 9, 42, 95
8, 298500, Note_on_c, 9, 42, 95
8, 298500, Note_on_c, 9, 38, 95
8, 298740, Note_off_c, 9, 42, 95
8, 298740, Note_off_c, 9, 38, 95
8, 299040, Note_on_c, 9, 42, 95
8, 299220, Note_off_c, 9, 42, 95
8, 299220, Note_on_c, 9, 42, 95
8, 299460, Note_off_c, 9, 42, 95
8, 299460, Note_on_c, 9, 42, 95
8, 299460, Note_on_c, 9, 49, 95
8, 299460, Note_on_c, 9, 45, 95
8, 299700, Note_off_c, 9, 42, 95
8, 299700, Note_off_c, 9, 49, 95
8, 299700, Note_off_c, 9, 45, 95
8, 300000, Note_on_c, 9, 42, 95
8, 300180, Note_off_c, 9, 42, 95
8, 300180, Note_on_c, 9, 42, 95
8, 300420, Note_off_c, 9, 42, 95
8, 300420, Note_on_c, 9, 42, 95
8, 300420, Note_on_c, 9, 38, 95
8, 300660, Note_off_c, 9, 42, 95
8, 300660, Note_off_c, 9, 38, 95
8, 300960, Note_on_c, 9, 42, 95
8, 301140, Note_off_c, 9, 42, 95
8, 301140, Note_on_c, 9, 42, 95
8, 301380, Note_off_c, 9, 42, 95
8, 301380, Note_on_c, 9, 42, 95
8, 301380, Note_on_c, 9, 45, 95
8, 301620, Note_off_c, 9, 42, 95
8, 301620, Note_off_c, 9, 45, 95
8, 301920, Note_on_c, 9, 42, 95
8, 302100, Note_off_c, 9, 42, 95
8, 302100, Note_on_c, 9, 42, 95
8, 302340, Note_off_c, 9, 42, 95
8, 302340, Note_on_c, 9, 42, 95
8, 302340, Note_on_c, 9, 38, 95
8, 302580, Note_off_c, 9, 42, 95
8, 302580, Note_off_c, 9, 38, 95
8, 302880, Note_on_c, 9, 42, 95
8, 303060, Note_off_c, 9, 42, 95
8, 303060, Note_on_c, 9, 42, 95
8, 303300, Note_off_c, 9, 42, 95
8, 303300, Note_on_c, 9, 42, 95
8, 303300, Note_on_c, 9, 45, 95
8, 303540, Note_off_c, 9, 42, 95
8, 303540, Note_off_c, 9, 45, 95
8, 303840, Note_on_c, 9, 42, 95
8, 304020, Note_off_c, 9, 42, 95
8, 304020, Note_on_c, 9, 42, 95
8, 304260, Note_off_c, 9, 42, 95
8, 304260, Note_on_c, 9, 42, 95
8, 304260, Note_on_c, 9, 38, 95
8, 304500, Note_off_c, 9, 42, 95
8, 304500, Note_off_c, 9, 38, 95
8, 304800, Note_on_c, 9, 42, 95
8, 304980, Note_off_c, 9, 42, 95
8, 304980, Note_on_c, 9, 42, 95
8, 305220, Note_off_c, 9, 42, 95
8, 305220, Note_on_c, 9, 42, 95
8, 305220, Note_on_c, 9, 45, 95
8, 305460, Note_off_c, 9, 42, 95
8, 305460, Note_off_c, 9, 45, 95
8, 305760, Note_on_c, 9, 42, 95
8, 305940, Note_off_c, 9, 42, 95
8, 305940, Note_on_c, 9, 42, 95
8, 306180, Note_off_c, 9, 42, 95
8, 306180, Note_on_c, 9, 42, 95
8, 306180, Note_on_c, 9, 38, 95
8, 306420, Note_off_c, 9, 42, 95
8, 306420, Note_off_c, 9, 38, 95
8, 306720, Note_on_c, 9, 42, 95
8, 306900, Note_off_c, 9, 42, 95
8, 306900, Note_on_c, 9, 42, 95
8, 307140, Note_off_c, 9, 42, 95
8, 307140, Note_on_c, 9, 42, 95
8, 307140, Note_on_c, 9, 49, 95
8, 307140, Note_on_c, 9, 45, 95
8, 307380, Note_off_c, 9, 42, 95
8, 307380, Note_off_c, 9, 49, 95
8, 307380, Note_off_c, 9, 45, 95
8, 307680, Note_on_c, 9, 42, 95
8, 307860, Note_off_c, 9, 42, 95
8, 307860, Note_on_c, 9, 42, 95
8, 308100, Note_off_c, 9, 42, 95
8, 308100, Note_on_c, 9, 42, 95
8, 308100, Note_on_c, 9, 38, 95
8, 308340, Note_off_c, 9, 42, 95
8, 308340, Note_off_c, 9, 38, 95
8, 308640, Note_on_c, 9, 42, 95
8, 308820, Note_off_c, 9, 42, 95
8, 308820, Note_on_c, 9, 42, 95
8, 309060, Note_off_c, 9, 42, 95
8, 309060, Note_on_c, 9, 42, 95
8, 309060, Note_on_c, 9, 45, 95
8, 309300, Note_off_c, 9, 42, 95
8, 309300, Note_off_c, 9, 45, 95
8, 309600, Note_on_c, 9, 42, 95
8, 309780, Note_off_c, 9, 42, 95
8, 309780, Note_on_c, 9, 42, 95
8, 310020, Note_off_c, 9, 42, 95
8, 310020, Note_on_c, 9, 42, 95
8, 310020, Note_on_c, 9, 38, 95
8, 310260, Note_off_c, 9, 42, 95
8, 310260, Note_off_c, 9, 38, 95
8, 310560, Note_on_c, 9, 42, 95
8, 310740, Note_off_c, 9, 42, 95
8, 310740, Note_on_c, 9, 42, 95
8, 310980, Note_off_c, 9, 42, 95
8, 310980, Note_on_c, 9, 42, 95
8, 310980, Note_on_c, 9, 45, 95
8, 311220, Note_off_c, 9, 42, 95
8, 311220, Note_off_c, 9, 45, 95
8, 311520, Note_on_c, 9, 42, 95
8, 311700, Note_off_c, 9, 42, 95
8, 311700, Note_on_c, 9, 42, 95
8, 311940, Note_off_c, 9, 42, 95
8, 311940, Note_on_c, 9, 42, 95
8, 311940, Note_on_c, 9, 38, 95
8, 312180, Note_off_c, 9, 42, 95
8, 312180, Note_off_c, 9, 38, 95
8, 312480, Note_on_c, 9, 42, 95
8, 312660, Note_off_c, 9, 42, 95
8, 312660, Note_on_c, 9, 42, 95
8, 312900, Note_off_c, 9, 42, 95
8, 312900, Note_on_c, 9, 42, 95
8, 312900, Note_on_c, 9, 45, 95
8, 313140, Note_off_c, 9, 42, 95
8, 313140, Note_off_c, 9, 45, 95
8, 313440, Note_on_c, 9, 42, 95
8, 313620, Note_off_c, 9, 42, 95
8, 313620, Note_on_c, 9, 42, 95
8, 313860, Note_off_c, 9, 42, 95
8, 313860, Note_on_c, 9, 42, 95
8, 313860, Note_on_c, 9, 38, 95
8, 314100, Note_off_c, 9, 42, 95
8, 314100, Note_off_c, 9, 38, 95
8, 314400, Note_on_c, 9, 42, 95
8, 314580, Note_off_c, 9, 42, 95
8, 314580, Note_on_c, 9, 42, 95
8, 314820, Note_off_c, 9, 42, 95
8, 314820, Note_on_c, 9, 42, 95
8, 314820, Note_on_c, 9, 49, 95
8, 314820, Note_on_c, 9, 45, 95
8, 315060, Note_off_c, 9, 42, 95
8, 315060, Note_off_c, 9, 49, 95
8, 315060, Note_off_c, 9, 45, 95
8, 315360, Note_on_c, 9, 42, 95
8, 315540, Note_off_c, 9, 42, 95
8, 315540, Note_on_c, 9, 42, 95
8, 315780, Note_off_c, 9, 42, 95
8, 315780, Note_on_c, 9, 42, 95
8, 315780, Note_on_c, 9, 38, 95
8, 316020, Note_off_c, 9, 42, 95
8, 316020, Note_off_c, 9, 38, 95
8, 316320, Note_on_c, 9, 42, 95
8, 316500, Note_off_c, 9, 42, 95
8, 316500, Note_on_c, 9, 42, 95
8, 316740, Note_off_c, 9, 42, 95
8, 316740, Note_on_c, 9, 42, 95
8, 316740, Note_on_c, 9, 45, 95
8, 316980, Note_off_c, 9, 42, 95
8, 316980, Note_off_c, 9, 45, 95
8, 317280, Note_on_c, 9, 42, 95
8, 317460, Note_off_c, 9, 42, 95
8, 317460, Note_on_c, 9, 42, 95
8, 317700, Note_off_c, 9, 42, 95
8, 317700, Note_on_c, 9, 42, 95
8, 317700, Note_on_c, 9, 38, 95
8, 317940, Note_off_c, 9, 42, 95
8, 317940, Note_off_c, 9, 38, 95
8, 318240, Note_on_c, 9, 42, 95
8, 318420, Note_off_c, 9, 42, 95
8, 318420, Note_on_c, 9, 42, 95
8, 318660, Note_off_c, 9, 42, 95
8, 318660, Note_on_c, 9, 42, 95
8, 318660, Note_on_c, 9, 45, 95
8, 318900, Note_off_c, 9, 42, 95
8, 318900, Note_off_c, 9, 45, 95
8, 319200, Note_on_c, 9, 42, 95
8, 319380, Note_off_c, 9, 42, 95
8, 319380, Note_on_c, 9, 42, 95
8, 319620, Note_off_c, 9, 42, 95
8, 319620, Note_on_c, 9, 42, 95
8, 319620, Note_on_c, 9, 38, 95
8, 319860, Note_off_c, 9, 42, 95
8, 319860, Note_off_c, 9, 38, 95
8, 320160, Note_on_c, 9, 42, 95
8, 320340, Note_off_c, 9, 42, 95
8, 320340, Note_on_c, 9, 42, 95
8, 320580, Note_off_c, 9, 42, 95
8, 320580, Note_on_c, 9, 42, 95
8, 320580, Note_on_c, 9, 45, 95
8, 320820, Note_off_c, 9, 42, 95
8, 320820, Note_off_c, 9, 45, 95
8, 321120, Note_on_c, 9, 42, 95
8, 321300, Note_off_c, 9, 42, 95
8, 321300, Note_on_c, 9, 42, 95
8, 321540, Note_off_c, 9, 42, 95
8, 321540, Note_on_c, 9, 42, 95
8, 321540, Note_on_c, 9, 38, 95
8, 321780, Note_off_c, 9, 42, 95
8, 321780, Note_off_c, 9, 38, 95
8, 322080, Note_on_c, 9, 42, 95
8, 322260, Note_off_c, 9, 42, 95
8, 322260, Note_on_c, 9, 42, 95
8, 322500, Note_off_c, 9, 42, 95
8, 322500, Note_on_c, 9, 42, 95
8, 322500, Note_on_c, 9, 49, 95
8, 322500, Note_on_c, 9, 45, 95
8, 322740, Note_off_c, 9, 42, 95
8, 322740, Note_off_c, 9, 49, 95
8, 322740, Note_off_c, 9, 45, 95
8, 323040, Note_on_c, 9, 42, 95
8, 323220, Note_off_c, 9, 42, 95
8, 323220, Note_on_c, 9, 42, 95
8, 323460, Note_off_c, 9, 42, 95
8, 323460, Note_on_c, 9, 42, 95
8, 323460, Note_on_c, 9, 38, 95
8, 323700, Note_off_c, 9, 42, 95
8, 323700, Note_off_c, 9, 38, 95
8, 324000, Note_on_c, 9, 42, 95
8, 324180, Note_off_c, 9, 42, 95
8, 324180, Note_on_c, 9, 42, 95
8, 324420, Note_off_c, 9, 42, 95
8, 324420, Note_on_c, 9, 42, 95
8, 324420, Note_on_c, 9, 45, 95
8, 324660, Note_off_c, 9, 42, 95
8, 324660, Note_off_c, 9, 45, 95
8, 324960, Note_on_c, 9, 42, 95
8, 325140, Note_off_c, 9, 42, 95
8, 325140, Note_on_c, 9, 42, 95
8, 325380, Note_off_c, 9, 42, 95
8, 325380, Note_on_c, 9, 42, 95
8, 325380, Note_on_c, 9, 38, 95
8, 325620, Note_off_c, 9, 42, 95
8, 325620, Note_off_c, 9, 38, 95
8, 325920, Note_on_c, 9, 42, 95
8, 326100, Note_off_c, 9, 42, 95
8, 326100, Note_on_c, 9, 42, 95
8, 326340, Note_off_c, 9, 42, 95
8, 326340, Note_on_c, 9, 42, 95
8, 326340, Note_on_c, 9, 45, 95
8, 326580, Note_off_c, 9, 42, 95
8, 326580, Note_off_c, 9, 45, 95
8, 326880, Note_on_c, 9, 42, 95
8, 327060, Note_off_c, 9, 42, 95
8, 327060, Note_on_c, 9, 42, 95
8, 327300, Note_off_c, 9, 42, 95
8, 327300, Note_on_c, 9, 42, 95
8, 327300, Note_on_c, 9, 38, 95
8, 327540, Note_off_c, 9, 42, 95
8, 327540, Note_off_c, 9, 38, 95
8, 327840, Note_on_c, 9, 42, 95
8, 328020, Note_off_c, 9, 42, 95
8, 328020, Note_on_c, 9, 42, 95
8, 328260, Note_off_c, 9, 42, 95
8, 328260, Note_on_c, 9, 42, 95
8, 328260, Note_on_c, 9, 45, 95
8, 328500, Note_off_c, 9, 42, 95
8, 328500, Note_off_c, 9, 45, 95
8, 328800, Note_on_c, 9, 42, 95
8, 328980, Note_off_c, 9, 42, 95
8, 328980, Note_on_c, 9, 42, 95
8, 329220, Note_off_c, 9, 42, 95
8, 329220, Note_on_c, 9, 42, 95
8, 329220, Note_on_c, 9, 38, 95
8, 329460, Note_off_c, 9, 42, 95
8, 329460, Note_off_c, 9, 38, 95
8, 329760, Note_on_c, 9, 42, 95
8, 329940, Note_off_c, 9, 42, 95
8, 329940, Note_on_c, 9, 42, 95
8, 330180, Note_off_c, 9, 42, 95
8, 330180, Note_on_c, 9, 42, 95
8, 330180, Note_on_c, 9, 49, 95
8, 330180, Note_on_c, 9, 45, 95
8, 330420, Note_off_c, 9, 42, 95
8, 330420, Note_off_c, 9, 49, 95
8, 330420, Note_off_c, 9, 45, 95
8, 330720, Note_on_c, 9, 42, 95
8, 330900, Note_off_c, 9, 42, 95
8, 330900, Note_on_c, 9, 42, 95
8, 331140, Note_off_c, 9, 42, 95
8, 331140, Note_on_c, 9, 42, 95
8, 331140, Note_on_c, 9, 38, 95
8, 331380, Note_off_c, 9, 42, 95
8, 331380, Note_off_c, 9, 38, 95
8, 331680, Note_on_c, 9, 42, 95
8, 331860, Note_off_c, 9, 42, 95
8, 331860, Note_on_c, 9, 42, 95
8, 332100, Note_off_c, 9, 42, 95
8, 332100, Note_on_c, 9, 42, 95
8, 332100, Note_on_c, 9, 45, 95
8, 332340, Note_off_c, 9, 42, 95
8, 332340, Note_off_c, 9, 45, 95
8, 332640, Note_on_c, 9, 42, 95
8, 332820, Note_off_c, 9, 42, 95
8, 332820, Note_on_c, 9, 42, 95
8, 333060, Note_off_c, 9, 42, 95
8, 333060, Note_on_c, 9, 42, 95
8, 333060, Note_on_c, 9, 38, 95
8, 333300, Note_off_c, 9, 42, 95
8, 333300, Note_off_c, 9, 38, 95
8, 333600, Note_on_c, 9, 42, 95
8, 333780, Note_off_c, 9, 42, 95
8, 333780, Note_on_c, 9, 42, 95
8, 334020, Note_off_c, 9, 42, 95
8, 334020, Note_on_c, 9, 42, 95
8, 334020, Note_on_c, 9, 45, 95
8, 334260, Note_off_c, 9, 42, 95
8, 334260, Note_off_c, 9, 45, 95
8, 334560, Note_on_c, 9, 42, 95
8, 334740, Note_off_c, 9, 42, 95
8, 334740, Note_on_c, 9, 42, 95
8, 334980, Note_off_c, 9, 42, 95
8, 334980, Note_on_c, 9, 42, 95
8, 334980, Note_on_c, 9, 38, 95
8, 335220, Note_off_c, 9, 42, 95
8, 335220, Note_off_c, 9, 38, 95
8, 335520, Note_on_c, 9, 42, 95
8, 335700, Note_off_c, 9, 42, 95
8, 335700, Note_on_c, 9, 42, 95
8, 335940, Note_off_c, 9, 42, 95
8, 335940, Note_on_c, 9, 42, 95
8, 335940, Note_on_c, 9, 45, 95
8, 336180, Note_off_c, 9, 42, 95
8, 336180, Note_off_c, 9, 45, 95
8, 336480, Note_on_c, 9, 42, 95
8, 336660, Note_off_c, 9, 42, 95
8, 336660, Note_on_c, 9, 42, 95
8, 336900, Note_off_c, 9, 42, 95
8, 336900, Note_on_c, 9, 42, 95
8, 336900, Note_on_c, 9, 38, 95
8, 337140, Note_off_c, 9, 42, 95
8, 337140, Note_off_c, 9, 38, 95
8, 337440, Note_on_c, 9, 42, 95
8, 337620, Note_off_c, 9, 42, 95
8, 337620, Note_on_c, 9, 42, 95
8, 337860, Note_off_c, 9, 42, 95
8, 337860, Note_on_c, 9, 42, 95
8, 337860, Note_on_c, 9, 49, 95
8, 337860, Note_on_c, 9, 45, 95
8, 338100, Note_off_c, 9, 42, 95
8, 338100, Note_off_c, 9, 49, 95
8, 338100, Note_off_c, 9, 45, 95
8, 338400, Note_on_c, 9, 42, 95
8, 338580, Note_off_c, 9, 42, 95
8, 338580, Note_on_c, 9, 42, 95
8, 338820, Note_off_c, 9, 42, 95
8, 338820, Note_on_c, 9, 42, 95
8, 338820, Note_on_c, 9, 38, 95
8, 339060, Note_off_c, 9, 42, 95
8, 339060, Note_off_c, 9, 38, 95
8, 339360, Note_on_c, 9, 42, 95
8, 339540, Note_off_c, 9, 42, 95
8, 339540, Note_on_c, 9, 42, 95
8, 339780, Note_off_c, 9, 42, 95
8, 339780, Note_on_c, 9, 42, 95
8, 339780, Note_on_c, 9, 45, 95
8, 340020, Note_off_c, 9, 42, 95
8, 340020, Note_off_c, 9, 45, 95
8, 340320, Note_on_c, 9, 42, 95
8, 340500, Note_off_c, 9, 42, 95
8, 340500, Note_on_c, 9, 42, 95
8, 340740, Note_off_c, 9, 42, 95
8, 340740, Note_on_c, 9, 42, 95
8, 340740, Note_on_c, 9, 38, 95
8, 340980, Note_off_c, 9, 42, 95
8, 340980, Note_off_c, 9, 38, 95
8, 341280, Note_on_c, 9, 42, 95
8, 341460, Note_off_c, 9, 42, 95
8, 341460, Note_on_c, 9, 42, 95
8, 341700, Note_off_c, 9, 42, 95
8, 341700, Note_on_c, 9, 42, 95
8, 341700, Note_on_c, 9, 45, 95
8, 341760, Note_off_c, 9, 42, 95
8, 341760, Note_off_c, 9, 45, 95
8, 341760, End_track
0, 0, End_of_file
