0, 0, Header, 0, 1, 96
1, 0, Start_track
1, 0, Sequencer_specific, 3, 0, 0, 65
1, 0, Title_t, "Come Together"
1, 0, Copyright_t, "(C)1993 by Edirol   "
1, 0, Time_signature, 4, 2, 24, 8
1, 0, Tempo, 705882
1, 0, System_exclusive, 10, 65, 16, 66, 18, 64, 0, 127, 0, 65, 247
1, 80, Control_c, 0, 121, 0
1, 81, Control_c, 1, 121, 0
1, 82, Control_c, 2, 121, 0
1, 83, Control_c, 3, 121, 0
1, 84, Control_c, 4, 121, 0
1, 85, Control_c, 5, 121, 0
1, 86, Control_c, 6, 121, 0
1, 87, Control_c, 7, 121, 0
1, 88, Control_c, 8, 121, 0
1, 89, Control_c, 9, 121, 0
1, 96, Control_c, 0, 0, 0
1, 97, Control_c, 0, 32, 0
1, 98, Program_c, 0, 5
1, 99, Control_c, 0, 7, 110
1, 99, Control_c, 0, 10, 94
1, 99, Control_c, 0, 11, 127
1, 100, Control_c, 0, 91, 70
1, 100, Control_c, 0, 93, 120
1, 101, Control_c, 1, 0, 0
1, 102, Control_c, 1, 32, 0
1, 103, Program_c, 1, 33
1, 104, Control_c, 1, 7, 110
1, 104, Control_c, 1, 10, 64
1, 104, Control_c, 1, 11, 120
1, 105, Control_c, 1, 91, 50
1, 105, Control_c, 1, 93, 70
1, 106, Control_c, 2, 0, 0
1, 107, Control_c, 2, 32, 0
1, 108, Program_c, 2, 30
1, 109, Control_c, 2, 7, 110
1, 109, Control_c, 2, 10, 44
1, 109, Control_c, 2, 11, 90
1, 110, Control_c, 2, 91, 127
1, 110, Control_c, 2, 93, 70
1, 111, Control_c, 3, 0, 0
1, 112, Control_c, 3, 32, 0
1, 113, Program_c, 3, 66
1, 114, Control_c, 3, 7, 110
1, 114, Control_c, 3, 10, 64
1, 114, Control_c, 3, 11, 127
1, 115, Control_c, 3, 91, 127
1, 115, Control_c, 3, 93, 40
1, 116, Control_c, 4, 0, 0
1, 117, Control_c, 4, 32, 0
1, 118, Program_c, 4, 29
1, 119, Control_c, 4, 7, 110
1, 119, Control_c, 4, 10, 24
1, 119, Control_c, 4, 11, 110
1, 120, Control_c, 4, 91, 127
1, 120, Control_c, 4, 93, 50
1, 121, Control_c, 5, 0, 0
1, 122, Control_c, 5, 32, 0
1, 123, Program_c, 5, 62
1, 124, Control_c, 5, 7, 110
1, 124, Control_c, 5, 10, 114
1, 124, Control_c, 5, 11, 127
1, 125, Control_c, 5, 91, 127
1, 125, Control_c, 5, 93, 127
1, 126, Control_c, 6, 0, 0
1, 127, Control_c, 6, 32, 0
1, 128, Program_c, 6, 11
1, 129, Control_c, 6, 7, 110
1, 129, Control_c, 6, 10, 44
1, 129, Control_c, 6, 11, 95
1, 130, Control_c, 6, 91, 127
1, 130, Control_c, 6, 93, 80
1, 131, Control_c, 7, 0, 0
1, 132, Control_c, 7, 32, 0
1, 133, Program_c, 7, 29
1, 134, Control_c, 7, 7, 110
1, 134, Control_c, 7, 10, 124
1, 134, Control_c, 7, 11, 120
1, 135, Control_c, 7, 91, 127
1, 135, Control_c, 7, 93, 80
1, 136, Control_c, 8, 0, 0
1, 137, Control_c, 8, 32, 0
1, 138, Program_c, 8, 17
1, 139, Control_c, 8, 7, 110
1, 139, Control_c, 8, 10, 64
1, 139, Control_c, 8, 11, 60
1, 140, Control_c, 8, 93, 127
1, 141, Control_c, 9, 0, 0
1, 142, Control_c, 9, 32, 0
1, 143, Program_c, 9, 0
1, 144, Control_c, 9, 7, 110
1, 144, Control_c, 9, 10, 64
1, 144, Control_c, 9, 11, 120
1, 145, Control_c, 9, 91, 127
1, 145, Control_c, 9, 93, 20
1, 384, Note_on_c, 1, 26, 125
1, 384, Note_on_c, 9, 35, 127
1, 384, Note_on_c, 9, 49, 126
1, 384, Note_off_c, 9, 35, 64
1, 384, Note_off_c, 9, 49, 64
1, 408, Note_off_c, 1, 26, 64
1, 432, Note_on_c, 1, 26, 126
1, 432, Note_on_c, 9, 35, 127
1, 432, Note_off_c, 9, 35, 64
1, 480, Note_on_c, 0, 55, 89
1, 480, Note_on_c, 1, 31, 126
1, 480, Note_on_c, 2, 55, 110
1, 480, Note_on_c, 9, 46, 126
1, 480, Note_off_c, 1, 26, 64
1, 480, Note_off_c, 9, 46, 64
1, 496, Note_on_c, 9, 46, 122
1, 496, Note_off_c, 9, 46, 64
1, 500, Pitch_bend_c, 0, 8192
1, 500, Pitch_bend_c, 2, 8192
1, 504, Pitch_bend_c, 0, 10997
1, 504, Pitch_bend_c, 2, 10997
1, 506, Pitch_bend_c, 1, 11565
1, 508, Pitch_bend_c, 0, 13122
1, 508, Pitch_bend_c, 2, 13122
1, 510, Pitch_bend_c, 1, 16383
1, 512, Pitch_bend_c, 0, 14992
1, 512, Pitch_bend_c, 2, 14992
1, 512, Note_on_c, 9, 46, 124
1, 512, Note_off_c, 9, 46, 64
1, 516, Pitch_bend_c, 0, 16383
1, 516, Pitch_bend_c, 2, 16383
1, 528, Note_on_c, 0, 60, 89
1, 528, Note_on_c, 0, 65, 89
1, 528, Note_off_c, 1, 31, 64
1, 528, Note_on_c, 1, 41, 126
1, 528, Note_on_c, 2, 60, 97
1, 528, Note_on_c, 2, 65, 91
1, 529, Pitch_bend_c, 0, 8192
1, 529, Pitch_bend_c, 2, 8192
1, 529, Pitch_bend_c, 1, 8303
1, 534, Note_off_c, 0, 55, 64
1, 534, Note_off_c, 2, 55, 64
1, 534, Pitch_bend_c, 1, 8192
1, 576, Note_on_c, 9, 48, 99
1, 576, Note_off_c, 9, 48, 64
1, 592, Note_on_c, 9, 48, 100
1, 592, Note_off_c, 9, 48, 64
1, 608, Note_on_c, 9, 48, 102
1, 608, Note_off_c, 9, 48, 64
1, 619, Control_c, 0, 1, 23
1, 619, Control_c, 2, 1, 23
1, 624, Note_on_c, 9, 48, 102
1, 624, Note_off_c, 9, 48, 64
1, 627, Control_c, 0, 1, 53
1, 627, Control_c, 2, 1, 53
1, 636, Control_c, 0, 1, 107
1, 636, Control_c, 2, 1, 107
1, 639, Note_on_c, 9, 48, 103
1, 640, Note_off_c, 9, 48, 64
1, 644, Control_c, 0, 1, 127
1, 644, Control_c, 2, 1, 127
1, 656, Note_on_c, 9, 48, 103
1, 656, Note_off_c, 9, 48, 64
1, 671, Note_on_c, 9, 45, 104
1, 672, Note_on_c, 1, 38, 126
1, 672, Note_off_c, 9, 45, 64
1, 679, Note_off_c, 1, 41, 64
1, 687, Note_on_c, 9, 45, 104
1, 688, Note_off_c, 9, 45, 64
1, 703, Note_on_c, 9, 45, 105
1, 704, Note_off_c, 9, 45, 64
1, 714, Control_c, 0, 1, 111
1, 714, Control_c, 2, 1, 111
1, 719, Note_on_c, 9, 43, 108
1, 720, Note_off_c, 9, 43, 64
1, 722, Control_c, 0, 1, 107
1, 722, Control_c, 2, 1, 107
1, 731, Control_c, 0, 1, 127
1, 731, Control_c, 2, 1, 127
1, 736, Note_on_c, 9, 43, 112
1, 736, Note_off_c, 9, 43, 64
1, 741, Control_c, 0, 1, 95
1, 741, Control_c, 2, 1, 95
1, 749, Control_c, 0, 1, 127
1, 749, Control_c, 2, 1, 127
1, 752, Note_on_c, 9, 43, 116
1, 752, Note_off_c, 9, 43, 64
1, 756, Note_off_c, 0, 60, 64
1, 756, Note_off_c, 2, 60, 64
1, 758, Note_off_c, 0, 65, 64
1, 758, Note_off_c, 2, 65, 64
1, 759, Control_c, 0, 1, 107
1, 759, Control_c, 2, 1, 107
1, 761, Note_off_c, 1, 38, 64
1, 768, Control_c, 0, 1, 0
1, 768, Note_on_c, 1, 26, 126
1, 768, Control_c, 2, 1, 0
1, 768, Note_on_c, 9, 35, 127
1, 768, Note_off_c, 9, 35, 64
1, 784, Note_off_c, 1, 26, 64
1, 816, Note_on_c, 1, 26, 126
1, 816, Note_on_c, 9, 35, 127
1, 816, Note_off_c, 9, 35, 64
1, 855, Note_off_c, 1, 26, 64
1, 864, Note_on_c, 0, 55, 89
1, 864, Note_on_c, 1, 31, 126
1, 864, Note_on_c, 2, 55, 100
1, 864, Note_on_c, 9, 46, 126
1, 864, Note_off_c, 9, 46, 64
1, 880, Note_on_c, 9, 46, 126
1, 880, Note_off_c, 9, 46, 64
1, 892, Pitch_bend_c, 0, 10657
1, 892, Pitch_bend_c, 2, 10657
1, 893, Pitch_bend_c, 1, 16383
1, 896, Pitch_bend_c, 0, 13972
1, 896, Pitch_bend_c, 2, 13972
1, 896, Note_on_c, 9, 46, 125
1, 896, Note_off_c, 9, 46, 64
1, 900, Pitch_bend_c, 0, 16383
1, 900, Pitch_bend_c, 2, 16383
1, 908, Pitch_bend_c, 0, 8192
1, 908, Pitch_bend_c, 2, 8192
1, 910, Pitch_bend_c, 1, 8192
1, 912, Note_on_c, 0, 60, 89
1, 912, Note_on_c, 0, 65, 89
1, 912, Note_on_c, 1, 41, 126
1, 912, Note_on_c, 2, 60, 94
1, 912, Note_on_c, 2, 65, 94
1, 913, Note_off_c, 1, 31, 64
1, 917, Note_off_c, 0, 55, 64
1, 917, Note_off_c, 2, 55, 64
1, 960, Note_on_c, 9, 48, 99
1, 960, Note_off_c, 9, 48, 64
1, 975, Note_on_c, 9, 48, 102
1, 976, Note_off_c, 9, 48, 64
1, 991, Note_on_c, 9, 48, 102
1, 992, Note_off_c, 9, 48, 64
1, 1007, Note_on_c, 9, 48, 102
1, 1008, Note_off_c, 9, 48, 64
1, 1023, Note_on_c, 9, 48, 102
1, 1024, Note_off_c, 9, 48, 64
1, 1034, Control_c, 0, 1, 27
1, 1034, Control_c, 2, 1, 27
1, 1039, Note_on_c, 9, 48, 102
1, 1040, Note_off_c, 9, 48, 64
1, 1042, Control_c, 0, 1, 48
1, 1042, Control_c, 2, 1, 48
1, 1050, Control_c, 0, 1, 70
1, 1050, Control_c, 2, 1, 70
1, 1056, Note_on_c, 1, 38, 126
1, 1056, Note_off_c, 1, 41, 64
1, 1056, Note_on_c, 9, 45, 102
1, 1056, Note_off_c, 9, 45, 64
1, 1059, Control_c, 0, 1, 101
1, 1059, Control_c, 2, 1, 101
1, 1071, Note_on_c, 9, 45, 102
1, 1072, Note_off_c, 9, 45, 64
1, 1075, Control_c, 0, 1, 111
1, 1075, Control_c, 2, 1, 111
1, 1087, Note_on_c, 9, 45, 102
1, 1088, Note_off_c, 9, 45, 64
1, 1094, Control_c, 0, 1, 118
1, 1094, Control_c, 2, 1, 118
1, 1103, Note_on_c, 9, 43, 102
1, 1104, Note_off_c, 9, 43, 64
1, 1108, Control_c, 0, 1, 114
1, 1108, Control_c, 2, 1, 114
1, 1120, Note_on_c, 9, 43, 102
1, 1120, Control_c, 0, 1, 125
1, 1120, Control_c, 2, 1, 125
1, 1120, Note_off_c, 9, 43, 64
1, 1134, Note_off_c, 0, 65, 64
1, 1134, Note_off_c, 2, 65, 64
1, 1135, Control_c, 0, 1, 107
1, 1135, Control_c, 2, 1, 107
1, 1135, Note_on_c, 9, 43, 108
1, 1136, Note_off_c, 9, 43, 64
1, 1138, Note_off_c, 0, 60, 64
1, 1138, Note_off_c, 2, 60, 64
1, 1143, Control_c, 0, 1, 95
1, 1143, Control_c, 2, 1, 95
1, 1144, Note_off_c, 1, 38, 64
1, 1151, Control_c, 0, 1, 0
1, 1151, Control_c, 2, 1, 0
1, 1152, Note_on_c, 1, 26, 126
1, 1152, Note_on_c, 9, 35, 127
1, 1152, Note_off_c, 9, 35, 64
1, 1168, Note_off_c, 1, 26, 64
1, 1200, Note_on_c, 1, 26, 126
1, 1200, Note_on_c, 9, 35, 127
1, 1200, Note_off_c, 9, 35, 64
1, 1239, Note_off_c, 1, 26, 64
1, 1248, Note_on_c, 0, 55, 89
1, 1248, Note_on_c, 1, 31, 126
1, 1248, Note_on_c, 2, 55, 100
1, 1248, Note_on_c, 9, 46, 126
1, 1248, Note_off_c, 9, 46, 64
1, 1264, Note_on_c, 9, 46, 119
1, 1264, Note_off_c, 9, 46, 64
1, 1277, Pitch_bend_c, 0, 10572
1, 1277, Pitch_bend_c, 1, 13910
1, 1277, Pitch_bend_c, 2, 10572
1, 1280, Note_on_c, 9, 46, 125
1, 1280, Note_off_c, 9, 46, 64
1, 1281, Pitch_bend_c, 1, 16383
1, 1281, Pitch_bend_c, 0, 13547
1, 1281, Pitch_bend_c, 2, 13547
1, 1285, Pitch_bend_c, 0, 16383
1, 1285, Pitch_bend_c, 2, 16383
1, 1290, Pitch_bend_c, 0, 8192
1, 1290, Pitch_bend_c, 2, 8192
1, 1291, Pitch_bend_c, 1, 14327
1, 1295, Pitch_bend_c, 1, 8192
1, 1295, Note_off_c, 1, 31, 64
1, 1296, Note_on_c, 0, 60, 89
1, 1296, Note_on_c, 0, 65, 89
1, 1296, Note_on_c, 1, 41, 126
1, 1296, Note_on_c, 2, 60, 91
1, 1296, Note_on_c, 2, 65, 94
1, 1303, Note_off_c, 0, 55, 64
1, 1303, Note_off_c, 2, 55, 64
1, 1344, Note_on_c, 9, 48, 108
1, 1344, Note_off_c, 9, 48, 64
1, 1359, Note_on_c, 9, 48, 108
1, 1360, Note_off_c, 9, 48, 64
1, 1376, Note_on_c, 9, 48, 108
1, 1376, Note_off_c, 9, 48, 64
1, 1391, Note_on_c, 9, 48, 109
1, 1392, Note_off_c, 9, 48, 64
1, 1408, Note_on_c, 9, 48, 111
1, 1408, Note_off_c, 9, 48, 64
1, 1413, Control_c, 0, 1, 33
1, 1413, Control_c, 2, 1, 33
1, 1422, Control_c, 0, 1, 75
1, 1422, Control_c, 2, 1, 75
1, 1424, Note_on_c, 9, 45, 113
1, 1424, Note_off_c, 9, 45, 64
1, 1430, Control_c, 0, 1, 98
1, 1430, Control_c, 2, 1, 98
1, 1439, Note_on_c, 9, 45, 115
1, 1440, Note_on_c, 1, 38, 126
1, 1440, Note_off_c, 9, 45, 64
1, 1440, Control_c, 0, 1, 114
1, 1440, Control_c, 2, 1, 114
1, 1444, Note_off_c, 1, 41, 64
1, 1450, Control_c, 0, 1, 127
1, 1450, Control_c, 2, 1, 127
1, 1456, Note_on_c, 9, 45, 116
1, 1456, Note_off_c, 9, 45, 64
1, 1471, Note_on_c, 9, 45, 116
1, 1472, Note_off_c, 9, 45, 64
1, 1488, Note_on_c, 9, 43, 116
1, 1488, Note_off_c, 9, 43, 64
1, 1503, Note_on_c, 9, 43, 116
1, 1504, Note_off_c, 9, 43, 64
1, 1520, Note_on_c, 9, 43, 116
1, 1520, Note_off_c, 9, 43, 64
1, 1526, Note_off_c, 0, 60, 64
1, 1526, Note_off_c, 2, 60, 64
1, 1528, Note_off_c, 0, 65, 64
1, 1528, Note_off_c, 2, 65, 64
1, 1529, Note_off_c, 1, 38, 64
1, 1531, Control_c, 0, 1, 104
1, 1531, Control_c, 2, 1, 104
1, 1536, Note_on_c, 1, 26, 126
1, 1536, Note_on_c, 9, 35, 127
1, 1536, Note_off_c, 9, 35, 64
1, 1539, Control_c, 0, 1, 0
1, 1539, Control_c, 2, 1, 0
1, 1551, Note_off_c, 1, 26, 64
1, 1584, Note_on_c, 1, 26, 126
1, 1584, Note_on_c, 9, 35, 127
1, 1584, Note_off_c, 9, 35, 64
1, 1626, Note_off_c, 1, 26, 64
1, 1632, Note_on_c, 0, 55, 89
1, 1632, Note_on_c, 1, 31, 126
1, 1632, Note_on_c, 2, 55, 107
1, 1632, Note_on_c, 9, 46, 126
1, 1632, Note_off_c, 9, 46, 64
1, 1648, Note_on_c, 9, 46, 125
1, 1648, Note_off_c, 9, 46, 64
1, 1653, Pitch_bend_c, 1, 9541
1, 1657, Pitch_bend_c, 1, 16383
1, 1659, Pitch_bend_c, 0, 10572
1, 1659, Pitch_bend_c, 2, 10572
1, 1663, Pitch_bend_c, 0, 13717
1, 1663, Pitch_bend_c, 2, 13717
1, 1664, Note_on_c, 9, 46, 122
1, 1664, Note_off_c, 9, 46, 64
1, 1667, Pitch_bend_c, 0, 16383
1, 1667, Pitch_bend_c, 2, 16383
1, 1673, Pitch_bend_c, 1, 15773
1, 1675, Pitch_bend_c, 0, 8192
1, 1675, Pitch_bend_c, 2, 8192
1, 1678, Pitch_bend_c, 1, 8192
1, 1680, Note_on_c, 0, 60, 89
1, 1680, Note_on_c, 0, 65, 89
1, 1680, Note_on_c, 1, 41, 126
1, 1680, Note_on_c, 2, 60, 96
1, 1680, Note_on_c, 2, 65, 97
1, 1681, Note_off_c, 1, 31, 64
1, 1687, Note_off_c, 0, 55, 64
1, 1687, Note_off_c, 2, 55, 64
1, 1727, Note_on_c, 9, 48, 105
1, 1728, Note_off_c, 9, 48, 64
1, 1744, Note_on_c, 9, 48, 108
1, 1744, Note_off_c, 9, 48, 64
1, 1759, Note_on_c, 9, 48, 110
1, 1760, Note_off_c, 9, 48, 64
1, 1768, Control_c, 0, 1, 19
1, 1768, Control_c, 2, 1, 19
1, 1775, Note_on_c, 9, 48, 112
1, 1776, Note_off_c, 9, 48, 64
1, 1776, Control_c, 0, 1, 39
1, 1776, Control_c, 2, 1, 39
1, 1785, Control_c, 0, 1, 64
1, 1785, Control_c, 2, 1, 64
1, 1792, Note_on_c, 9, 48, 114
1, 1792, Note_off_c, 9, 48, 64
1, 1793, Control_c, 0, 1, 111
1, 1793, Control_c, 2, 1, 111
1, 1801, Control_c, 0, 1, 121
1, 1801, Control_c, 2, 1, 121
1, 1808, Note_on_c, 9, 48, 116
1, 1808, Note_off_c, 9, 48, 64
1, 1822, Control_c, 0, 1, 127
1, 1822, Control_c, 2, 1, 127
1, 1824, Note_on_c, 1, 38, 126
1, 1824, Note_on_c, 9, 45, 116
1, 1824, Note_off_c, 9, 45, 64
1, 1829, Note_off_c, 1, 41, 64
1, 1839, Note_on_c, 9, 45, 116
1, 1840, Note_off_c, 9, 45, 64
1, 1855, Note_on_c, 9, 45, 116
1, 1856, Note_off_c, 9, 45, 64
1, 1872, Note_on_c, 9, 43, 116
1, 1872, Note_off_c, 9, 43, 64
1, 1887, Note_on_c, 9, 43, 116
1, 1888, Note_off_c, 9, 43, 64
1, 1890, Control_c, 0, 1, 125
1, 1890, Control_c, 2, 1, 125
1, 1894, Note_off_c, 0, 60, 64
1, 1894, Note_off_c, 1, 38, 64
1, 1894, Note_off_c, 2, 60, 64
1, 1897, Note_off_c, 0, 65, 64
1, 1897, Note_off_c, 2, 65, 64
1, 1898, Control_c, 0, 1, 82
1, 1898, Control_c, 2, 1, 82
1, 1903, Note_on_c, 9, 43, 116
1, 1904, Note_off_c, 9, 43, 64
1, 1906, Control_c, 0, 1, 0
1, 1906, Control_c, 2, 1, 0
1, 1920, Note_on_c, 0, 50, 89
1, 1920, Note_on_c, 0, 57, 89
1, 1920, Note_on_c, 1, 26, 125
1, 1920, Control_c, 8, 91, 0
1, 1920, Note_on_c, 8, 50, 127
1, 1920, Note_on_c, 8, 62, 127
1, 1920, Note_on_c, 9, 35, 120
1, 1920, Note_on_c, 9, 40, 120
1, 1920, Note_on_c, 9, 49, 110
1, 1920, Note_off_c, 9, 35, 64
1, 1920, Note_off_c, 9, 40, 64
1, 1920, Note_off_c, 9, 49, 64
1, 1944, Note_off_c, 1, 26, 64
1, 1968, Note_on_c, 1, 26, 126
1, 1968, Note_on_c, 3, 65, 100
1, 1968, Note_on_c, 6, 72, 127
1, 1968, Note_on_c, 6, 77, 126
1, 1968, Note_on_c, 9, 35, 109
1, 1968, Note_on_c, 9, 44, 75
1, 1968, Note_off_c, 9, 35, 64
1, 1968, Note_off_c, 9, 44, 64
1, 2009, Note_off_c, 0, 50, 64
1, 2016, Note_on_c, 1, 31, 126
1, 2016, Note_off_c, 8, 50, 64
1, 2016, Note_on_c, 8, 50, 107
1, 2016, Note_on_c, 8, 59, 127
1, 2016, Note_off_c, 8, 62, 64
1, 2016, Note_on_c, 9, 40, 127
1, 2016, Note_on_c, 9, 44, 103
1, 2016, Note_off_c, 1, 26, 64
1, 2016, Note_off_c, 9, 40, 64
1, 2016, Note_off_c, 9, 44, 64
1, 2018, Note_off_c, 0, 57, 64
1, 2018, Note_on_c, 0, 59, 89
1, 2019, Note_on_c, 0, 50, 89
1, 2021, Control_c, 3, 1, 30
1, 2030, Control_c, 3, 1, 111
1, 2038, Control_c, 3, 1, 127
1, 2042, Pitch_bend_c, 1, 11565
1, 2046, Pitch_bend_c, 1, 16383
1, 2051, Note_off_c, 6, 72, 64
1, 2057, Note_off_c, 6, 77, 64
1, 2064, Note_off_c, 1, 31, 64
1, 2064, Note_on_c, 1, 41, 126
1, 2064, Note_on_c, 3, 62, 90
1, 2064, Note_on_c, 6, 74, 125
1, 2064, Note_on_c, 8, 69, 123
1, 2064, Note_on_c, 9, 44, 67
1, 2064, Note_off_c, 9, 44, 64
1, 2065, Pitch_bend_c, 1, 8303
1, 2065, Control_c, 3, 1, 0
1, 2067, Note_off_c, 3, 65, 64
1, 2070, Pitch_bend_c, 1, 8192
1, 2078, Note_off_c, 3, 62, 64
1, 2087, Note_off_c, 8, 69, 64
1, 2088, Note_off_c, 6, 74, 64
1, 2106, Note_off_c, 0, 50, 64
1, 2112, Note_on_c, 3, 65, 92
1, 2112, Note_on_c, 6, 72, 127
1, 2112, Note_on_c, 6, 77, 126
1, 2112, Note_off_c, 8, 50, 64
1, 2112, Note_on_c, 8, 50, 109
1, 2112, Note_on_c, 8, 57, 113
1, 2112, Note_off_c, 8, 59, 64
1, 2112, Note_on_c, 9, 35, 120
1, 2112, Note_on_c, 9, 40, 120
1, 2112, Note_on_c, 9, 44, 99
1, 2112, Note_off_c, 9, 35, 64
1, 2112, Note_off_c, 9, 40, 64
1, 2112, Note_off_c, 9, 44, 64
1, 2113, Note_on_c, 0, 57, 89
1, 2114, Note_on_c, 0, 50, 89
1, 2116, Note_off_c, 0, 59, 64
1, 2151, Note_off_c, 6, 72, 64
1, 2160, Note_on_c, 3, 62, 83
1, 2160, Note_off_c, 3, 65, 64
1, 2160, Note_on_c, 6, 74, 111
1, 2160, Note_on_c, 8, 69, 107
1, 2160, Note_on_c, 9, 35, 122
1, 2160, Note_on_c, 9, 44, 64
1, 2160, Note_off_c, 9, 35, 64
1, 2160, Note_off_c, 9, 44, 64
1, 2161, Note_off_c, 6, 77, 64
1, 2173, Note_off_c, 3, 62, 64
1, 2173, Note_off_c, 8, 69, 64
1, 2174, Note_off_c, 6, 74, 64
1, 2195, Note_off_c, 0, 50, 64
1, 2207, Note_on_c, 0, 50, 89
1, 2208, Note_on_c, 1, 38, 126
1, 2208, Note_on_c, 3, 60, 95
1, 2208, Note_on_c, 6, 72, 127
1, 2208, Note_off_c, 8, 50, 64
1, 2208, Note_on_c, 8, 50, 111
1, 2208, Note_off_c, 8, 57, 64
1, 2208, Note_on_c, 8, 59, 127
1, 2208, Note_on_c, 8, 67, 127
1, 2208, Note_on_c, 9, 40, 127
1, 2208, Note_on_c, 9, 44, 105
1, 2208, Note_off_c, 0, 57, 64
1, 2208, Note_on_c, 0, 59, 89
1, 2208, Note_off_c, 9, 40, 64
1, 2208, Note_off_c, 9, 44, 64
1, 2215, Note_off_c, 1, 41, 64
1, 2227, Note_off_c, 3, 60, 64
1, 2233, Note_off_c, 8, 67, 64
1, 2248, Note_off_c, 6, 72, 64
1, 2256, Note_on_c, 3, 62, 100
1, 2256, Note_on_c, 6, 74, 127
1, 2256, Note_on_c, 8, 69, 127
1, 2256, Note_on_c, 9, 44, 77
1, 2256, Note_off_c, 9, 44, 64
1, 2281, Note_off_c, 6, 74, 64
1, 2282, Note_off_c, 8, 69, 64
1, 2295, Control_c, 3, 1, 11
1, 2296, Note_off_c, 0, 50, 64
1, 2297, Note_off_c, 1, 38, 64
1, 2297, Note_off_c, 3, 62, 64
1, 2303, Control_c, 3, 1, 1
1, 2304, Note_on_c, 1, 26, 126
1, 2304, Note_off_c, 8, 50, 64
1, 2304, Note_on_c, 8, 50, 116
1, 2304, Note_on_c, 8, 57, 127
1, 2304, Note_off_c, 8, 59, 64
1, 2304, Note_on_c, 9, 35, 118
1, 2304, Note_on_c, 9, 40, 125
1, 2304, Note_on_c, 9, 44, 107
1, 2304, Note_off_c, 9, 35, 64
1, 2304, Note_off_c, 9, 40, 64
1, 2304, Note_off_c, 9, 44, 64
1, 2305, Note_on_c, 0, 57, 89
1, 2305, Note_on_c, 0, 50, 89
1, 2308, Note_off_c, 0, 59, 64
1, 2312, Control_c, 3, 1, 127
1, 2320, Note_off_c, 1, 26, 64
1, 2326, Control_c, 3, 1, 0
1, 2352, Note_on_c, 1, 26, 126
1, 2352, Note_on_c, 3, 65, 103
1, 2352, Note_on_c, 6, 72, 127
1, 2352, Note_on_c, 6, 77, 126
1, 2352, Note_on_c, 9, 35, 114
1, 2352, Note_on_c, 9, 44, 83
1, 2352, Note_off_c, 9, 35, 64
1, 2352, Note_off_c, 9, 44, 64
1, 2389, Control_c, 3, 1, 8
1, 2390, Note_off_c, 0, 50, 64
1, 2391, Note_off_c, 1, 26, 64
1, 2397, Control_c, 3, 1, 31
1, 2400, Note_on_c, 0, 50, 89
1, 2400, Note_on_c, 1, 31, 126
1, 2400, Note_off_c, 8, 50, 64
1, 2400, Note_on_c, 8, 50, 103
1, 2400, Note_off_c, 8, 57, 64
1, 2400, Note_on_c, 8, 59, 127
1, 2400, Note_on_c, 9, 40, 127
1, 2400, Note_on_c, 9, 44, 109
1, 2400, Note_off_c, 0, 57, 64
1, 2400, Note_off_c, 9, 40, 64
1, 2400, Note_off_c, 9, 44, 64
1, 2401, Note_on_c, 0, 59, 89
1, 2406, Control_c, 3, 1, 17
1, 2414, Control_c, 3, 1, 68
1, 2422, Control_c, 3, 1, 127
1, 2429, Pitch_bend_c, 1, 16383
1, 2446, Pitch_bend_c, 1, 8192
1, 2447, Note_off_c, 3, 65, 64
1, 2447, Note_off_c, 6, 72, 64
1, 2448, Note_on_c, 1, 41, 126
1, 2448, Note_on_c, 3, 62, 93
1, 2448, Note_on_c, 6, 74, 113
1, 2448, Note_on_c, 8, 69, 113
1, 2448, Note_on_c, 9, 44, 77
1, 2448, Note_off_c, 9, 44, 64
1, 2449, Note_off_c, 1, 31, 64
1, 2454, Note_off_c, 6, 77, 64
1, 2456, Control_c, 3, 1, 0
1, 2463, Note_off_c, 3, 62, 64
1, 2485, Note_off_c, 8, 69, 64
1, 2489, Note_off_c, 0, 50, 64
1, 2490, Note_off_c, 6, 74, 64
1, 2496, Note_on_c, 3, 65, 95
1, 2496, Note_on_c, 6, 72, 127
1, 2496, Note_on_c, 6, 77, 123
1, 2496, Note_off_c, 8, 50, 64
1, 2496, Note_on_c, 8, 50, 118
1, 2496, Note_on_c, 8, 57, 125
1, 2496, Note_off_c, 8, 59, 64
1, 2496, Note_on_c, 9, 35, 120
1, 2496, Note_on_c, 9, 40, 116
1, 2496, Note_on_c, 9, 44, 119
1, 2496, Note_on_c, 0, 57, 89
1, 2496, Note_off_c, 9, 35, 64
1, 2496, Note_off_c, 9, 40, 64
1, 2496, Note_off_c, 9, 44, 64
1, 2498, Note_on_c, 0, 50, 89
1, 2501, Note_off_c, 0, 59, 64
1, 2538, Note_off_c, 6, 72, 64
1, 2543, Note_off_c, 3, 65, 64
1, 2544, Note_on_c, 3, 62, 97
1, 2544, Note_on_c, 6, 74, 107
1, 2544, Note_on_c, 8, 69, 103
1, 2544, Note_on_c, 9, 35, 127
1, 2544, Note_on_c, 9, 44, 77
1, 2544, Note_off_c, 9, 35, 64
1, 2544, Note_off_c, 9, 44, 64
1, 2545, Note_off_c, 6, 77, 64
1, 2555, Note_off_c, 3, 62, 64
1, 2562, Note_off_c, 8, 69, 64
1, 2565, Note_off_c, 6, 74, 64
1, 2583, Note_off_c, 0, 50, 64
1, 2592, Note_on_c, 0, 50, 89
1, 2592, Note_on_c, 1, 38, 126
1, 2592, Note_off_c, 1, 41, 64
1, 2592, Note_on_c, 3, 60, 97
1, 2592, Note_on_c, 6, 72, 123
1, 2592, Note_off_c, 8, 50, 64
1, 2592, Note_on_c, 8, 50, 103
1, 2592, Note_off_c, 8, 57, 64
1, 2592, Note_on_c, 8, 59, 123
1, 2592, Note_on_c, 8, 67, 126
1, 2592, Note_on_c, 9, 40, 127
1, 2592, Note_on_c, 9, 44, 116
1, 2592, Note_on_c, 0, 59, 89
1, 2592, Note_off_c, 9, 40, 64
1, 2592, Note_off_c, 9, 44, 64
1, 2593, Note_off_c, 0, 57, 64
1, 2603, Note_off_c, 3, 60, 64
1, 2610, Note_off_c, 8, 67, 64
1, 2635, Note_off_c, 6, 72, 64
1, 2640, Note_on_c, 3, 62, 98
1, 2640, Note_on_c, 6, 74, 113
1, 2640, Note_on_c, 8, 69, 113
1, 2640, Note_on_c, 9, 44, 87
1, 2640, Note_off_c, 9, 44, 64
1, 2660, Note_off_c, 8, 69, 64
1, 2663, Note_off_c, 6, 74, 64
1, 2675, Control_c, 3, 1, 125
1, 2678, Note_off_c, 0, 50, 64
1, 2680, Note_off_c, 1, 38, 64
1, 2685, Control_c, 3, 1, 0
1, 2687, Note_on_c, 0, 57, 89
1, 2688, Note_on_c, 1, 26, 126
1, 2688, Note_off_c, 8, 50, 64
1, 2688, Note_on_c, 8, 50, 113
1, 2688, Note_on_c, 8, 57, 125
1, 2688, Note_off_c, 8, 59, 64
1, 2688, Note_on_c, 9, 35, 127
1, 2688, Note_on_c, 9, 40, 125
1, 2688, Note_on_c, 9, 44, 113
1, 2688, Note_off_c, 9, 35, 64
1, 2688, Note_off_c, 9, 40, 64
1, 2688, Note_off_c, 9, 44, 64
1, 2689, Note_on_c, 0, 50, 89
1, 2691, Note_off_c, 3, 62, 64
1, 2692, Note_off_c, 0, 59, 64
1, 2696, Control_c, 3, 1, 127
1, 2704, Note_off_c, 1, 26, 64
1, 2708, Control_c, 3, 1, 0
1, 2736, Note_on_c, 1, 26, 126
1, 2736, Note_on_c, 3, 65, 102
1, 2736, Note_on_c, 6, 72, 127
1, 2736, Note_on_c, 6, 77, 127
1, 2736, Note_on_c, 9, 35, 127
1, 2736, Note_on_c, 9, 44, 83
1, 2736, Note_off_c, 9, 35, 64
1, 2736, Note_off_c, 9, 44, 64
1, 2771, Note_off_c, 0, 50, 64
1, 2775, Note_off_c, 1, 26, 64
1, 2781, Note_on_c, 0, 50, 89
1, 2782, Note_off_c, 0, 57, 64
1, 2782, Note_on_c, 0, 59, 89
1, 2784, Note_on_c, 1, 31, 126
1, 2784, Note_off_c, 8, 50, 64
1, 2784, Note_on_c, 8, 50, 118
1, 2784, Note_off_c, 8, 57, 64
1, 2784, Note_on_c, 8, 59, 125
1, 2784, Note_on_c, 9, 40, 127
1, 2784, Note_on_c, 9, 44, 116
1, 2784, Note_off_c, 9, 40, 64
1, 2784, Note_off_c, 9, 44, 64
1, 2790, Control_c, 3, 1, 12
1, 2798, Control_c, 3, 1, 2
1, 2807, Control_c, 3, 1, 127
1, 2813, Pitch_bend_c, 1, 13910
1, 2817, Pitch_bend_c, 1, 16383
1, 2826, Note_off_c, 3, 65, 64
1, 2827, Pitch_bend_c, 1, 14327
1, 2829, Note_off_c, 6, 72, 64
1, 2829, Control_c, 3, 1, 0
1, 2831, Pitch_bend_c, 1, 8192
1, 2831, Note_off_c, 1, 31, 64
1, 2832, Note_on_c, 1, 41, 126
1, 2832, Note_on_c, 3, 62, 86
1, 2832, Note_on_c, 6, 74, 109
1, 2832, Note_on_c, 8, 69, 109
1, 2832, Note_on_c, 9, 44, 66
1, 2832, Note_off_c, 9, 44, 64
1, 2834, Note_off_c, 6, 77, 64
1, 2846, Note_off_c, 8, 69, 64
1, 2855, Note_off_c, 3, 62, 64
1, 2857, Note_off_c, 6, 74, 64
1, 2869, Note_off_c, 0, 50, 64
1, 2878, Note_on_c, 0, 57, 89
1, 2879, Note_on_c, 0, 50, 89
1, 2880, Note_on_c, 3, 65, 99
1, 2880, Note_on_c, 6, 72, 127
1, 2880, Note_on_c, 6, 77, 121
1, 2880, Note_off_c, 8, 50, 64
1, 2880, Note_on_c, 8, 50, 113
1, 2880, Note_on_c, 8, 57, 125
1, 2880, Note_off_c, 8, 59, 64
1, 2880, Note_on_c, 9, 35, 127
1, 2880, Note_on_c, 9, 40, 125
1, 2880, Note_on_c, 9, 44, 116
1, 2880, Note_off_c, 9, 35, 64
1, 2880, Note_off_c, 9, 40, 64
1, 2880, Note_off_c, 9, 44, 64
1, 2883, Note_off_c, 0, 59, 64
1, 2924, Note_off_c, 6, 72, 64
1, 2928, Note_on_c, 3, 62, 92
1, 2928, Note_on_c, 6, 74, 109
1, 2928, Note_on_c, 8, 69, 99
1, 2928, Note_on_c, 9, 35, 127
1, 2928, Note_on_c, 9, 44, 81
1, 2928, Note_off_c, 9, 35, 64
1, 2928, Note_off_c, 9, 44, 64
1, 2929, Note_off_c, 3, 65, 64
1, 2930, Note_off_c, 6, 77, 64
1, 2941, Note_off_c, 3, 62, 64
1, 2943, Note_off_c, 8, 69, 64
1, 2950, Note_off_c, 6, 74, 64
1, 2964, Note_off_c, 0, 50, 64
1, 2972, Note_on_c, 0, 59, 89
1, 2974, Note_on_c, 0, 50, 89
1, 2974, Note_off_c, 0, 57, 64
1, 2976, Note_on_c, 1, 38, 126
1, 2976, Note_on_c, 3, 60, 102
1, 2976, Note_on_c, 6, 72, 127
1, 2976, Note_off_c, 8, 50, 64
1, 2976, Note_on_c, 8, 50, 98
1, 2976, Note_off_c, 8, 57, 64
1, 2976, Note_on_c, 8, 59, 118
1, 2976, Note_on_c, 8, 67, 126
1, 2976, Note_on_c, 9, 40, 127
1, 2976, Note_on_c, 9, 44, 103
1, 2976, Note_off_c, 9, 40, 64
1, 2976, Note_off_c, 9, 44, 64
1, 2980, Note_off_c, 1, 41, 64
1, 2987, Note_off_c, 3, 60, 64
1, 2993, Note_off_c, 8, 67, 64
1, 3013, Note_off_c, 6, 72, 64
1, 3024, Note_on_c, 3, 62, 94
1, 3024, Note_on_c, 6, 74, 116
1, 3024, Note_on_c, 8, 69, 118
1, 3024, Note_on_c, 9, 44, 69
1, 3024, Note_off_c, 9, 44, 64
1, 3045, Note_off_c, 8, 69, 64
1, 3048, Note_off_c, 6, 74, 64
1, 3059, Control_c, 3, 1, 3
1, 3061, Note_off_c, 0, 50, 64
1, 3065, Note_off_c, 1, 38, 64
1, 3067, Control_c, 3, 1, 127
1, 3069, Note_on_c, 0, 57, 89
1, 3069, Note_off_c, 3, 62, 64
1, 3072, Note_on_c, 1, 26, 126
1, 3072, Note_off_c, 8, 50, 64
1, 3072, Note_on_c, 8, 50, 126
1, 3072, Note_on_c, 8, 57, 121
1, 3072, Note_off_c, 8, 59, 64
1, 3072, Note_on_c, 9, 35, 127
1, 3072, Note_on_c, 9, 40, 127
1, 3072, Note_on_c, 9, 44, 97
1, 3072, Note_on_c, 0, 50, 89
1, 3072, Note_off_c, 9, 35, 64
1, 3072, Note_off_c, 9, 40, 64
1, 3072, Note_off_c, 9, 44, 64
1, 3076, Note_off_c, 0, 59, 64
1, 3080, Control_c, 3, 1, 0
1, 3087, Note_off_c, 1, 26, 64
1, 3120, Note_on_c, 1, 26, 126
1, 3120, Note_on_c, 3, 65, 104
1, 3120, Note_on_c, 6, 72, 127
1, 3120, Note_on_c, 6, 77, 125
1, 3120, Note_on_c, 9, 35, 118
1, 3120, Note_on_c, 9, 44, 76
1, 3120, Note_off_c, 9, 35, 64
1, 3120, Note_off_c, 9, 44, 64
1, 3154, Note_off_c, 0, 50, 64
1, 3162, Note_off_c, 1, 26, 64
1, 3167, Note_on_c, 0, 50, 89
1, 3168, Note_on_c, 1, 31, 126
1, 3168, Note_off_c, 8, 50, 64
1, 3168, Note_on_c, 8, 50, 111
1, 3168, Note_off_c, 8, 57, 64
1, 3168, Note_on_c, 8, 59, 125
1, 3168, Note_on_c, 9, 40, 127
1, 3168, Note_on_c, 9, 44, 109
1, 3168, Note_on_c, 0, 59, 89
1, 3168, Note_off_c, 9, 40, 64
1, 3168, Note_off_c, 9, 44, 64
1, 3171, Note_off_c, 0, 57, 64
1, 3186, Control_c, 3, 1, 127
1, 3189, Pitch_bend_c, 1, 9541
1, 3193, Pitch_bend_c, 1, 16383
1, 3203, Control_c, 3, 1, 107
1, 3208, Note_off_c, 6, 72, 64
1, 3209, Pitch_bend_c, 1, 15773
1, 3212, Control_c, 3, 1, 0
1, 3214, Pitch_bend_c, 1, 8192
1, 3214, Note_off_c, 3, 65, 64
1, 3215, Note_off_c, 6, 77, 64
1, 3216, Note_on_c, 1, 41, 126
1, 3216, Note_on_c, 3, 62, 96
1, 3216, Note_on_c, 6, 74, 111
1, 3216, Note_on_c, 8, 69, 111
1, 3216, Note_on_c, 9, 44, 53
1, 3216, Note_off_c, 9, 44, 64
1, 3217, Note_off_c, 1, 31, 64
1, 3233, Note_off_c, 3, 62, 64
1, 3234, Note_off_c, 8, 69, 64
1, 3239, Note_off_c, 6, 74, 64
1, 3256, Note_off_c, 0, 50, 64
1, 3263, Note_on_c, 0, 57, 89
1, 3264, Note_on_c, 3, 65, 97
1, 3264, Note_on_c, 6, 72, 127
1, 3264, Note_on_c, 6, 77, 126
1, 3264, Note_off_c, 8, 50, 64
1, 3264, Note_on_c, 8, 50, 113
1, 3264, Note_on_c, 8, 57, 125
1, 3264, Note_off_c, 8, 59, 64
1, 3264, Note_on_c, 9, 35, 127
1, 3264, Note_on_c, 9, 40, 127
1, 3264, Note_on_c, 9, 44, 109
1, 3264, Note_off_c, 9, 35, 64
1, 3264, Note_off_c, 9, 40, 64
1, 3264, Note_off_c, 9, 44, 64
1, 3267, Note_on_c, 0, 50, 89
1, 3268, Note_off_c, 0, 59, 64
1, 3307, Note_off_c, 6, 72, 64
1, 3312, Note_on_c, 3, 62, 94
1, 3312, Note_on_c, 6, 74, 105
1, 3312, Note_on_c, 8, 69, 100
1, 3312, Note_on_c, 9, 35, 120
1, 3312, Note_on_c, 9, 44, 69
1, 3312, Note_off_c, 9, 35, 64
1, 3312, Note_off_c, 9, 44, 64
1, 3315, Note_off_c, 6, 77, 64
1, 3316, Note_off_c, 3, 65, 64
1, 3323, Note_off_c, 3, 62, 64
1, 3326, Note_off_c, 8, 69, 64
1, 3328, Note_off_c, 6, 74, 64
1, 3351, Note_off_c, 0, 50, 64
1, 3360, Note_on_c, 1, 38, 126
1, 3360, Note_on_c, 3, 60, 98
1, 3360, Note_on_c, 6, 72, 125
1, 3360, Note_off_c, 8, 50, 64
1, 3360, Note_on_c, 8, 50, 120
1, 3360, Note_off_c, 8, 57, 64
1, 3360, Note_on_c, 8, 59, 123
1, 3360, Note_on_c, 8, 67, 123
1, 3360, Note_on_c, 9, 40, 127
1, 3360, Note_on_c, 9, 44, 116
1, 3360, Note_off_c, 9, 40, 64
1, 3360, Note_off_c, 9, 44, 64
1, 3361, Note_on_c, 0, 50, 89
1, 3361, Note_on_c, 0, 59, 89
1, 3362, Note_off_c, 0, 57, 64
1, 3365, Note_off_c, 1, 41, 64
1, 3380, Note_off_c, 8, 67, 64
1, 3399, Note_off_c, 3, 60, 64
1, 3401, Note_off_c, 6, 72, 64
1, 3408, Note_on_c, 3, 62, 102
1, 3408, Note_on_c, 6, 74, 121
1, 3408, Note_on_c, 8, 69, 125
1, 3408, Note_on_c, 9, 44, 76
1, 3408, Note_off_c, 9, 44, 64
1, 3423, Note_off_c, 0, 59, 64
1, 3427, Note_off_c, 3, 62, 64
1, 3430, Note_off_c, 1, 38, 64
1, 3434, Note_off_c, 0, 50, 64
1, 3450, Note_off_c, 8, 69, 64
1, 3454, Note_off_c, 6, 74, 64
1, 3456, Note_on_c, 0, 45, 89
1, 3456, Note_on_c, 0, 52, 89
1, 3456, Note_on_c, 1, 21, 124
1, 3456, Note_on_c, 2, 45, 106
1, 3456, Note_on_c, 2, 52, 94
1, 3456, Note_off_c, 8, 50, 64
1, 3456, Note_on_c, 8, 57, 127
1, 3456, Note_off_c, 8, 59, 64
1, 3456, Note_on_c, 8, 64, 127
1, 3456, Note_on_c, 9, 35, 127
1, 3456, Note_on_c, 9, 40, 125
1, 3456, Note_on_c, 9, 49, 103
1, 3456, Note_off_c, 9, 35, 64
1, 3456, Note_off_c, 9, 40, 64
1, 3456, Note_off_c, 9, 49, 64
1, 3482, Note_off_c, 2, 45, 64
1, 3483, Note_off_c, 1, 21, 64
1, 3484, Note_off_c, 2, 52, 64
1, 3504, Note_on_c, 1, 21, 126
1, 3504, Note_on_c, 2, 45, 57
1, 3504, Note_on_c, 2, 52, 71
1, 3504, Note_on_c, 3, 62, 97
1, 3504, Pitch_bend_c, 3, 10657
1, 3504, Note_on_c, 6, 76, 127
1, 3504, Note_on_c, 8, 69, 127
1, 3504, Note_on_c, 9, 35, 127
1, 3504, Note_on_c, 9, 44, 83
1, 3504, Note_off_c, 9, 35, 64
1, 3504, Note_off_c, 9, 44, 64
1, 3508, Pitch_bend_c, 3, 13377
1, 3512, Pitch_bend_c, 3, 14822
1, 3516, Pitch_bend_c, 3, 15842
1, 3521, Pitch_bend_c, 3, 16383
1, 3521, Note_off_c, 2, 52, 64
1, 3531, Note_off_c, 2, 45, 64
1, 3536, Note_off_c, 0, 45, 64
1, 3544, Note_off_c, 0, 52, 64
1, 3549, Note_off_c, 1, 21, 64
1, 3552, Note_on_c, 0, 45, 89
1, 3552, Note_on_c, 0, 54, 89
1, 3552, Note_on_c, 1, 26, 122
1, 3552, Note_on_c, 2, 45, 108
1, 3552, Note_on_c, 2, 54, 108
1, 3552, Note_on_c, 8, 66, 114
1, 3552, Note_on_c, 9, 40, 127
1, 3552, Note_on_c, 9, 44, 116
1, 3552, Note_off_c, 9, 40, 64
1, 3552, Note_off_c, 9, 44, 64
1, 3561, Note_off_c, 8, 64, 64
1, 3579, Pitch_bend_c, 1, 16383
1, 3583, Note_off_c, 2, 45, 64
1, 3592, Pitch_bend_c, 3, 15842
1, 3592, Note_off_c, 2, 54, 64
1, 3595, Pitch_bend_c, 1, 15323
1, 3596, Pitch_bend_c, 3, 13717
1, 3600, Note_on_c, 0, 52, 89
1, 3600, Note_on_c, 1, 33, 115
1, 3600, Pitch_bend_c, 1, 8192
1, 3600, Note_on_c, 2, 45, 81
1, 3600, Note_on_c, 2, 52, 52
1, 3600, Note_off_c, 3, 62, 64
1, 3600, Note_on_c, 9, 44, 59
1, 3600, Pitch_bend_c, 3, 11592
1, 3600, Note_off_c, 9, 44, 64
1, 3603, Note_off_c, 1, 26, 64
1, 3604, Pitch_bend_c, 3, 10147
1, 3608, Pitch_bend_c, 3, 8192
1, 3618, Note_off_c, 2, 45, 64
1, 3619, Note_off_c, 2, 52, 64
1, 3634, Note_off_c, 8, 57, 64
1, 3640, Note_off_c, 8, 66, 64
1, 3644, Note_off_c, 0, 54, 64
1, 3644, Pitch_bend_c, 3, 8787
1, 3644, Note_off_c, 0, 45, 64
1, 3648, Note_on_c, 0, 45, 89
1, 3648, Note_off_c, 0, 52, 64
1, 3648, Note_on_c, 0, 52, 89
1, 3648, Note_on_c, 2, 45, 108
1, 3648, Note_on_c, 2, 52, 106
1, 3648, Note_on_c, 3, 62, 116
1, 3648, Note_on_c, 8, 57, 121
1, 3648, Note_on_c, 8, 64, 123
1, 3648, Note_on_c, 9, 35, 127
1, 3648, Note_on_c, 9, 40, 125
1, 3648, Note_on_c, 9, 44, 116
1, 3648, Pitch_bend_c, 3, 9297
1, 3648, Note_off_c, 9, 35, 64
1, 3648, Note_off_c, 9, 40, 64
1, 3648, Note_off_c, 9, 44, 64
1, 3652, Pitch_bend_c, 3, 9892
1, 3656, Pitch_bend_c, 3, 10572
1, 3661, Pitch_bend_c, 3, 12102
1, 3665, Pitch_bend_c, 3, 14142
1, 3669, Pitch_bend_c, 3, 16383
1, 3671, Note_off_c, 2, 45, 64
1, 3672, Note_off_c, 2, 52, 64
1, 3696, Note_on_c, 2, 45, 97
1, 3696, Note_on_c, 2, 52, 90
1, 3696, Note_on_c, 9, 35, 127
1, 3696, Note_on_c, 9, 44, 40
1, 3696, Note_off_c, 9, 35, 64
1, 3696, Note_off_c, 9, 44, 64
1, 3720, Note_off_c, 2, 45, 64
1, 3720, Note_off_c, 2, 52, 64
1, 3727, Note_off_c, 8, 57, 64
1, 3738, Pitch_bend_c, 3, 16352
1, 3740, Note_off_c, 1, 33, 64
1, 3742, Pitch_bend_c, 3, 14397
1, 3744, Note_off_c, 0, 52, 64
1, 3744, Note_on_c, 0, 54, 89
1, 3744, Note_on_c, 1, 28, 115
1, 3744, Note_on_c, 2, 45, 108
1, 3744, Note_on_c, 2, 54, 108
1, 3744, Note_on_c, 8, 57, 116
1, 3744, Note_on_c, 8, 66, 126
1, 3744, Note_on_c, 9, 40, 127
1, 3744, Note_on_c, 9, 44, 105
1, 3744, Note_off_c, 9, 40, 64
1, 3744, Note_off_c, 9, 44, 64
1, 3746, Pitch_bend_c, 3, 11422
1, 3750, Note_off_c, 8, 64, 64
1, 3750, Pitch_bend_c, 3, 9892
1, 3756, Note_off_c, 3, 62, 64
1, 3757, Pitch_bend_c, 3, 9212
1, 3761, Pitch_bend_c, 3, 8192
1, 3776, Note_off_c, 2, 45, 64
1, 3783, Note_off_c, 2, 54, 64
1, 3788, Pitch_bend_c, 3, 8192
1, 3792, Note_on_c, 2, 45, 86
1, 3792, Note_on_c, 2, 52, 70
1, 3792, Note_on_c, 3, 62, 116
1, 3792, Note_on_c, 9, 44, 83
1, 3792, Pitch_bend_c, 3, 8702
1, 3792, Note_off_c, 9, 44, 64
1, 3796, Pitch_bend_c, 3, 10062
1, 3800, Pitch_bend_c, 3, 12187
1, 3805, Pitch_bend_c, 3, 14822
1, 3809, Pitch_bend_c, 3, 16383
1, 3812, Note_off_c, 2, 52, 64
1, 3814, Note_off_c, 2, 45, 64
1, 3831, Note_off_c, 0, 45, 64
1, 3832, Note_off_c, 8, 57, 64
1, 3836, Note_off_c, 1, 28, 64
1, 3840, Note_on_c, 0, 45, 89
1, 3840, Note_on_c, 0, 52, 89
1, 3840, Note_on_c, 1, 21, 120
1, 3840, Note_on_c, 2, 45, 108
1, 3840, Note_on_c, 2, 52, 106
1, 3840, Note_on_c, 8, 57, 123
1, 3840, Note_on_c, 8, 64, 123
1, 3840, Note_on_c, 9, 35, 127
1, 3840, Note_on_c, 9, 40, 127
1, 3840, Note_on_c, 9, 44, 116
1, 3840, Note_off_c, 9, 35, 64
1, 3840, Note_off_c, 9, 40, 64
1, 3840, Note_off_c, 9, 44, 64
1, 3842, Note_off_c, 0, 54, 64
1, 3842, Note_off_c, 8, 66, 64
1, 3862, Note_off_c, 1, 21, 64
1, 3865, Note_off_c, 2, 52, 64
1, 3868, Note_off_c, 2, 45, 64
1, 3884, Pitch_bend_c, 3, 15672
1, 3888, Note_on_c, 1, 21, 125
1, 3888, Note_on_c, 2, 45, 92
1, 3888, Note_on_c, 2, 52, 94
1, 3888, Note_on_c, 9, 35, 118
1, 3888, Note_on_c, 9, 44, 84
1, 3888, Pitch_bend_c, 3, 14397
1, 3888, Note_off_c, 9, 35, 64
1, 3888, Note_off_c, 9, 44, 64
1, 3892, Pitch_bend_c, 3, 12527
1, 3897, Pitch_bend_c, 3, 8192
1, 3902, Note_off_c, 3, 62, 64
1, 3910, Note_off_c, 2, 52, 64
1, 3914, Note_off_c, 2, 45, 64
1, 3916, Note_off_c, 8, 57, 64
1, 3926, Pitch_bend_c, 3, 9722
1, 3929, Note_off_c, 0, 45, 64
1, 3930, Pitch_bend_c, 3, 10062
1, 3933, Note_off_c, 1, 21, 64
1, 3934, Pitch_bend_c, 3, 10487
1, 3936, Note_on_c, 0, 45, 89
1, 3936, Note_on_c, 0, 54, 89
1, 3936, Note_on_c, 1, 26, 112
1, 3936, Note_on_c, 2, 45, 108
1, 3936, Note_on_c, 2, 54, 107
1, 3936, Note_on_c, 3, 62, 99
1, 3936, Note_on_c, 8, 57, 116
1, 3936, Note_on_c, 8, 66, 126
1, 3936, Note_on_c, 9, 40, 127
1, 3936, Note_on_c, 9, 44, 116
1, 3936, Note_off_c, 9, 40, 64
1, 3936, Note_off_c, 9, 44, 64
1, 3938, Note_off_c, 0, 52, 64
1, 3938, Pitch_bend_c, 3, 10147
1, 3939, Note_off_c, 8, 64, 64
1, 3942, Pitch_bend_c, 3, 11167
1, 3947, Pitch_bend_c, 3, 12527
1, 3951, Pitch_bend_c, 3, 14397
1, 3955, Pitch_bend_c, 3, 16267
1, 3957, Pitch_bend_c, 1, 9669
1, 3959, Pitch_bend_c, 3, 16383
1, 3961, Pitch_bend_c, 1, 16383
1, 3968, Note_off_c, 2, 45, 64
1, 3974, Note_off_c, 2, 54, 64
1, 3975, Note_off_c, 0, 45, 64
1, 3982, Pitch_bend_c, 1, 13075
1, 3984, Note_on_c, 0, 45, 89
1, 3984, Note_on_c, 0, 52, 89
1, 3984, Note_on_c, 1, 33, 110
1, 3984, Note_on_c, 2, 45, 94
1, 3984, Note_on_c, 2, 52, 84
1, 3984, Note_on_c, 9, 44, 67
1, 3984, Note_off_c, 9, 44, 64
1, 3985, Note_off_c, 1, 26, 64
1, 3985, Pitch_bend_c, 1, 8192
1, 4002, Note_off_c, 0, 54, 64
1, 4006, Note_off_c, 2, 52, 64
1, 4006, Note_off_c, 2, 45, 64
1, 4018, Note_off_c, 8, 57, 64
1, 4026, Note_off_c, 0, 45, 64
1, 4027, Note_off_c, 0, 52, 64
1, 4032, Note_on_c, 0, 45, 89
1, 4032, Note_on_c, 0, 52, 89
1, 4032, Note_on_c, 2, 45, 108
1, 4032, Note_on_c, 2, 52, 107
1, 4032, Note_on_c, 8, 57, 121
1, 4032, Note_on_c, 8, 64, 123
1, 4032, Note_off_c, 8, 66, 64
1, 4032, Note_on_c, 9, 35, 127
1, 4032, Note_on_c, 9, 40, 127
1, 4032, Note_on_c, 9, 44, 103
1, 4032, Control_c, 3, 1, 18
1, 4032, Note_off_c, 9, 35, 64
1, 4032, Note_off_c, 9, 40, 64
1, 4032, Note_off_c, 9, 44, 64
1, 4040, Control_c, 3, 1, 104
1, 4049, Control_c, 3, 1, 79
1, 4057, Control_c, 3, 1, 0
1, 4061, Note_off_c, 2, 52, 64
1, 4063, Note_off_c, 2, 45, 64
1, 4068, Pitch_bend_c, 3, 16097
1, 4072, Pitch_bend_c, 3, 15672
1, 4076, Pitch_bend_c, 3, 14992
1, 4080, Note_on_c, 2, 45, 92
1, 4080, Note_on_c, 2, 52, 84
1, 4080, Note_on_c, 9, 35, 120
1, 4080, Note_on_c, 9, 44, 72
1, 4080, Pitch_bend_c, 3, 14227
1, 4080, Note_off_c, 9, 35, 64
1, 4080, Note_off_c, 9, 44, 64
1, 4084, Pitch_bend_c, 3, 13462
1, 4088, Pitch_bend_c, 3, 12697
1, 4093, Pitch_bend_c, 3, 12102
1, 4097, Pitch_bend_c, 3, 11592
1, 4098, Note_off_c, 8, 57, 64
1, 4101, Pitch_bend_c, 3, 11252
1, 4102, Note_off_c, 2, 52, 64
1, 4104, Note_off_c, 2, 45, 64
1, 4107, Pitch_bend_c, 3, 10997
1, 4112, Pitch_bend_c, 3, 10742
1, 4116, Pitch_bend_c, 3, 10062
1, 4120, Pitch_bend_c, 3, 9042
1, 4124, Pitch_bend_c, 3, 8192
1, 4125, Note_off_c, 8, 64, 64
1, 4128, Note_on_c, 0, 54, 89
1, 4128, Note_on_c, 1, 28, 120
1, 4128, Note_on_c, 2, 45, 108
1, 4128, Note_on_c, 2, 54, 104
1, 4128, Note_on_c, 8, 57, 107
1, 4128, Note_on_c, 8, 66, 127
1, 4128, Note_on_c, 9, 40, 127
1, 4128, Note_on_c, 9, 44, 122
1, 4128, Note_off_c, 9, 40, 64
1, 4128, Note_off_c, 9, 44, 64
1, 4131, Note_off_c, 0, 52, 64
1, 4131, Note_off_c, 1, 33, 64
1, 4133, Note_off_c, 3, 62, 64
1, 4149, Note_off_c, 8, 57, 64
1, 4164, Note_off_c, 2, 45, 64
1, 4164, Note_off_c, 8, 69, 64
1, 4170, Note_off_c, 6, 76, 64
1, 4171, Note_off_c, 2, 54, 64
1, 4176, Note_on_c, 0, 52, 89
1, 4176, Note_on_c, 2, 45, 104
1, 4176, Note_on_c, 2, 52, 76
1, 4176, Note_on_c, 8, 57, 121
1, 4176, Note_on_c, 8, 64, 123
1, 4176, Note_on_c, 9, 46, 81
1, 4176, Note_off_c, 9, 46, 64
1, 4178, Note_off_c, 0, 54, 64
1, 4192, Note_off_c, 2, 52, 64
1, 4193, Note_off_c, 2, 45, 64
1, 4205, Note_off_c, 0, 45, 64
1, 4206, Note_off_c, 8, 66, 64
1, 4213, Note_off_c, 8, 57, 64
1, 4217, Note_off_c, 8, 64, 64
1, 4218, Note_off_c, 1, 28, 64
1, 4221, Note_off_c, 0, 52, 64
1, 4224, Note_on_c, 0, 43, 89
1, 4224, Note_on_c, 0, 50, 89
1, 4224, Note_on_c, 0, 52, 89
1, 4224, Note_on_c, 1, 19, 126
1, 4224, Note_on_c, 2, 43, 108
1, 4224, Note_on_c, 2, 50, 108
1, 4224, Note_on_c, 2, 55, 108
1, 4224, Note_on_c, 3, 65, 125
1, 4224, Note_on_c, 9, 35, 123
1, 4224, Note_on_c, 9, 44, 125
1, 4224, Note_off_c, 9, 35, 64
1, 4224, Note_off_c, 9, 44, 64
1, 4225, Note_on_c, 6, 77, 127
1, 4226, Note_on_c, 6, 82, 127
1, 4226, Note_on_c, 6, 86, 127
1, 4227, Note_on_c, 6, 91, 127
1, 4227, Note_on_c, 8, 55, 127
1, 4227, Note_on_c, 8, 64, 127
1, 4228, Note_on_c, 8, 62, 127
1, 4228, Note_on_c, 8, 61, 114
1, 4228, Note_on_c, 8, 65, 123
1, 4229, Note_on_c, 8, 58, 90
1, 4229, Note_off_c, 0, 52, 64
1, 4230, Note_on_c, 6, 83, 127
1, 4230, Note_off_c, 8, 65, 64
1, 4231, Note_off_c, 6, 82, 64
1, 4232, Note_off_c, 8, 58, 64
1, 4235, Note_off_c, 8, 61, 64
1, 4251, Note_off_c, 3, 65, 64
1, 4255, Note_off_c, 8, 64, 64
1, 4257, Note_off_c, 1, 19, 64
1, 4262, Note_off_c, 0, 43, 64
1, 4266, Note_off_c, 0, 50, 64
1, 4272, Note_on_c, 3, 65, 80
1, 4282, Note_off_c, 6, 91, 64
1, 4285, Note_off_c, 6, 86, 64
1, 4288, Note_off_c, 6, 83, 64
1, 4288, Note_off_c, 8, 62, 64
1, 4289, Note_off_c, 2, 50, 64
1, 4290, Note_off_c, 2, 43, 64
1, 4290, Note_off_c, 8, 55, 64
1, 4292, Note_off_c, 2, 55, 64
1, 4292, Note_off_c, 3, 65, 64
1, 4296, Note_on_c, 9, 35, 102
1, 4296, Note_off_c, 9, 35, 64
1, 4297, Note_on_c, 6, 76, 82
1, 4298, Note_off_c, 6, 77, 64
1, 4301, Note_off_c, 6, 76, 64
1, 4304, Note_on_c, 6, 74, 76
1, 4306, Note_off_c, 6, 74, 64
1, 4307, Note_on_c, 6, 72, 92
1, 4310, Note_off_c, 6, 72, 64
1, 4310, Note_on_c, 8, 71, 96
1, 4313, Note_off_c, 8, 71, 64
1, 4315, Note_on_c, 8, 69, 90
1, 4318, Note_off_c, 8, 69, 64
1, 4318, Note_on_c, 8, 67, 93
1, 4320, Note_on_c, 3, 65, 94
1, 4320, Note_on_c, 9, 35, 127
1, 4320, Note_off_c, 9, 35, 64
1, 4321, Note_off_c, 8, 67, 64
1, 4322, Note_on_c, 8, 65, 89
1, 4325, Note_off_c, 8, 65, 64
1, 4326, Note_on_c, 8, 64, 85
1, 4328, Note_off_c, 8, 64, 64
1, 4329, Note_on_c, 8, 62, 89
1, 4331, Note_off_c, 8, 62, 64
1, 4333, Note_on_c, 8, 60, 74
1, 4335, Note_off_c, 8, 60, 64
1, 4336, Note_on_c, 8, 59, 76
1, 4338, Note_off_c, 8, 59, 64
1, 4340, Note_off_c, 3, 65, 64
1, 4368, Note_on_c, 3, 65, 99
1, 4387, Note_off_c, 3, 65, 64
1, 4416, Note_on_c, 3, 65, 113
1, 4416, Note_on_c, 9, 35, 125
1, 4416, Note_off_c, 9, 35, 64
1, 4434, Note_off_c, 3, 65, 64
1, 4464, Note_on_c, 3, 65, 120
1, 4481, Note_off_c, 3, 65, 64
1, 4488, Note_on_c, 9, 35, 110
1, 4488, Note_off_c, 9, 35, 64
1, 4512, Note_on_c, 3, 65, 121
1, 4512, Note_on_c, 9, 35, 125
1, 4512, Note_off_c, 9, 35, 64
1, 4559, Note_off_c, 3, 65, 64
1, 4560, Note_on_c, 3, 62, 113
1, 4574, Note_off_c, 3, 62, 64
1, 4608, Note_on_c, 3, 65, 124
1, 4608, Note_on_c, 9, 35, 125
1, 4608, Note_off_c, 9, 35, 64
1, 4624, Note_off_c, 3, 65, 64
1, 4656, Note_on_c, 3, 65, 124
1, 4680, Note_on_c, 9, 35, 102
1, 4680, Note_off_c, 9, 35, 64
1, 4704, Note_on_c, 3, 62, 105
1, 4704, Note_on_c, 9, 35, 127
1, 4704, Note_off_c, 9, 35, 64
1, 4705, Note_off_c, 3, 65, 64
1, 4721, Note_off_c, 3, 62, 64
1, 4752, Note_on_c, 3, 63, 118
1, 4754, Pitch_bend_c, 3, 5471
1, 4758, Pitch_bend_c, 3, 7511
1, 4762, Pitch_bend_c, 3, 9042
1, 4767, Pitch_bend_c, 3, 12017
1, 4771, Pitch_bend_c, 3, 13802
1, 4775, Pitch_bend_c, 3, 15247
1, 4779, Pitch_bend_c, 3, 16383
1, 4800, Note_on_c, 9, 35, 127
1, 4800, Note_off_c, 9, 35, 64
1, 4872, Note_on_c, 9, 35, 102
1, 4872, Note_off_c, 9, 35, 64
1, 4896, Note_on_c, 9, 35, 127
1, 4896, Note_off_c, 9, 35, 64
1, 4917, Pitch_bend_c, 3, 15927
1, 4923, Pitch_bend_c, 3, 15247
1, 4929, Pitch_bend_c, 3, 14737
1, 4936, Pitch_bend_c, 3, 14057
1, 4942, Pitch_bend_c, 3, 13292
1, 4946, Pitch_bend_c, 3, 12527
1, 4950, Pitch_bend_c, 3, 11422
1, 4954, Pitch_bend_c, 3, 9042
1, 4959, Pitch_bend_c, 3, 7086
1, 4963, Pitch_bend_c, 3, 4876
1, 4967, Pitch_bend_c, 3, 3686
1, 4970, Note_off_c, 3, 63, 64
1, 4971, Pitch_bend_c, 3, 3091
1, 4975, Pitch_bend_c, 3, 8192
1, 4994, Note_on_c, 1, 26, 125
1, 4994, Note_on_c, 9, 35, 127
1, 4994, Note_on_c, 9, 49, 126
1, 4994, Note_off_c, 9, 35, 64
1, 4994, Note_off_c, 9, 49, 64
1, 5018, Note_off_c, 1, 26, 64
1, 5042, Note_on_c, 1, 26, 126
1, 5042, Note_on_c, 9, 35, 127
1, 5042, Note_off_c, 9, 35, 64
1, 5088, Note_on_c, 0, 55, 89
1, 5088, Note_on_c, 2, 55, 110
1, 5090, Note_on_c, 1, 31, 126
1, 5090, Note_on_c, 9, 46, 126
1, 5090, Note_off_c, 1, 26, 64
1, 5090, Note_off_c, 9, 46, 64
1, 5106, Note_on_c, 9, 46, 122
1, 5106, Note_off_c, 9, 46, 64
1, 5108, Pitch_bend_c, 0, 8192
1, 5108, Pitch_bend_c, 2, 8192
1, 5112, Pitch_bend_c, 0, 10997
1, 5112, Pitch_bend_c, 2, 10997
1, 5116, Pitch_bend_c, 0, 13122
1, 5116, Pitch_bend_c, 2, 13122
1, 5116, Pitch_bend_c, 1, 11565
1, 5120, Pitch_bend_c, 0, 14992
1, 5120, Pitch_bend_c, 1, 16383
1, 5120, Pitch_bend_c, 2, 14992
1, 5122, Note_on_c, 9, 46, 124
1, 5122, Note_off_c, 9, 46, 64
1, 5124, Pitch_bend_c, 0, 16383
1, 5124, Pitch_bend_c, 2, 16383
1, 5136, Note_on_c, 0, 60, 89
1, 5136, Note_on_c, 0, 65, 89
1, 5136, Note_on_c, 2, 60, 97
1, 5136, Note_on_c, 2, 65, 91
1, 5137, Pitch_bend_c, 0, 8192
1, 5137, Pitch_bend_c, 2, 8192
1, 5138, Note_off_c, 1, 31, 64
1, 5138, Note_on_c, 1, 41, 126
1, 5139, Pitch_bend_c, 1, 8303
1, 5142, Note_off_c, 0, 55, 64
1, 5142, Note_off_c, 2, 55, 64
1, 5144, Pitch_bend_c, 1, 8192
1, 5185, Note_on_c, 9, 48, 108
1, 5186, Note_off_c, 9, 48, 64
1, 5202, Note_on_c, 9, 48, 108
1, 5202, Note_off_c, 9, 48, 64
1, 5217, Note_on_c, 9, 48, 108
1, 5218, Note_off_c, 9, 48, 64
1, 5227, Control_c, 0, 1, 23
1, 5227, Control_c, 2, 1, 23
1, 5234, Note_on_c, 9, 48, 108
1, 5234, Note_off_c, 9, 48, 64
1, 5235, Control_c, 0, 1, 53
1, 5235, Control_c, 2, 1, 53
1, 5244, Control_c, 0, 1, 107
1, 5244, Control_c, 2, 1, 107
1, 5249, Note_on_c, 9, 48, 109
1, 5250, Note_off_c, 9, 48, 64
1, 5252, Control_c, 0, 1, 127
1, 5252, Control_c, 2, 1, 127
1, 5265, Note_on_c, 9, 48, 109
1, 5266, Note_off_c, 9, 48, 64
1, 5282, Note_on_c, 1, 38, 126
1, 5282, Note_on_c, 9, 45, 110
1, 5282, Note_off_c, 9, 45, 64
1, 5289, Note_off_c, 1, 41, 64
1, 5297, Note_on_c, 9, 45, 110
1, 5298, Note_off_c, 9, 45, 64
1, 5314, Note_on_c, 9, 45, 111
1, 5314, Note_off_c, 9, 45, 64
1, 5322, Control_c, 0, 1, 111
1, 5322, Control_c, 2, 1, 111
1, 5329, Note_on_c, 9, 43, 111
1, 5330, Note_off_c, 9, 43, 64
1, 5330, Control_c, 0, 1, 107
1, 5330, Control_c, 2, 1, 107
1, 5339, Control_c, 0, 1, 127
1, 5339, Control_c, 2, 1, 127
1, 5345, Note_on_c, 9, 43, 111
1, 5346, Note_off_c, 9, 43, 64
1, 5349, Control_c, 0, 1, 95
1, 5349, Control_c, 2, 1, 95
1, 5357, Control_c, 0, 1, 127
1, 5357, Control_c, 2, 1, 127
1, 5362, Note_on_c, 9, 43, 111
1, 5362, Note_off_c, 9, 43, 64
1, 5364, Note_off_c, 0, 60, 64
1, 5364, Note_off_c, 2, 60, 64
1, 5366, Note_off_c, 0, 65, 64
1, 5366, Note_off_c, 2, 65, 64
1, 5367, Control_c, 0, 1, 107
1, 5367, Control_c, 2, 1, 107
1, 5371, Note_off_c, 1, 38, 64
1, 5376, Control_c, 0, 1, 0
1, 5376, Control_c, 2, 1, 0
1, 5378, Note_on_c, 1, 26, 126
1, 5378, Note_on_c, 9, 35, 127
1, 5378, Note_off_c, 9, 35, 64
1, 5394, Note_off_c, 1, 26, 64
1, 5426, Note_on_c, 1, 26, 126
1, 5426, Note_on_c, 9, 35, 127
1, 5426, Note_off_c, 9, 35, 64
1, 5465, Note_off_c, 1, 26, 64
1, 5472, Note_on_c, 0, 55, 89
1, 5472, Note_on_c, 2, 55, 100
1, 5474, Note_on_c, 1, 31, 126
1, 5474, Note_on_c, 9, 46, 126
1, 5474, Note_off_c, 9, 46, 64
1, 5490, Note_on_c, 9, 46, 126
1, 5490, Note_off_c, 9, 46, 64
1, 5500, Pitch_bend_c, 0, 10657
1, 5500, Pitch_bend_c, 2, 10657
1, 5503, Pitch_bend_c, 1, 16383
1, 5504, Pitch_bend_c, 0, 13972
1, 5504, Pitch_bend_c, 2, 13972
1, 5506, Note_on_c, 9, 46, 125
1, 5506, Note_off_c, 9, 46, 64
1, 5508, Pitch_bend_c, 0, 16383
1, 5508, Pitch_bend_c, 2, 16383
1, 5516, Pitch_bend_c, 0, 8192
1, 5516, Pitch_bend_c, 2, 8192
1, 5520, Note_on_c, 0, 60, 89
1, 5520, Note_on_c, 0, 65, 89
1, 5520, Note_on_c, 2, 60, 94
1, 5520, Note_on_c, 2, 65, 94
1, 5520, Pitch_bend_c, 1, 8192
1, 5522, Note_on_c, 1, 41, 126
1, 5523, Note_off_c, 1, 31, 64
1, 5525, Note_off_c, 0, 55, 64
1, 5525, Note_off_c, 2, 55, 64
1, 5570, Note_on_c, 9, 48, 116
1, 5570, Note_off_c, 9, 48, 64
1, 5586, Note_on_c, 9, 48, 116
1, 5586, Note_off_c, 9, 48, 64
1, 5602, Note_on_c, 9, 48, 116
1, 5602, Note_off_c, 9, 48, 64
1, 5617, Note_on_c, 9, 48, 116
1, 5618, Note_off_c, 9, 48, 64
1, 5633, Note_on_c, 9, 48, 116
1, 5634, Note_off_c, 9, 48, 64
1, 5642, Control_c, 0, 1, 27
1, 5642, Control_c, 2, 1, 27
1, 5650, Note_on_c, 9, 48, 116
1, 5650, Control_c, 0, 1, 48
1, 5650, Control_c, 2, 1, 48
1, 5650, Note_off_c, 9, 48, 64
1, 5658, Control_c, 0, 1, 70
1, 5658, Control_c, 2, 1, 70
1, 5666, Note_on_c, 1, 38, 126
1, 5666, Note_off_c, 1, 41, 64
1, 5666, Note_on_c, 9, 45, 116
1, 5666, Note_off_c, 9, 45, 64
1, 5667, Control_c, 0, 1, 101
1, 5667, Control_c, 2, 1, 101
1, 5682, Note_on_c, 9, 45, 116
1, 5682, Note_off_c, 9, 45, 64
1, 5683, Control_c, 0, 1, 111
1, 5683, Control_c, 2, 1, 111
1, 5698, Note_on_c, 9, 45, 116
1, 5698, Note_off_c, 9, 45, 64
1, 5702, Control_c, 0, 1, 118
1, 5702, Control_c, 2, 1, 118
1, 5714, Note_on_c, 9, 43, 116
1, 5714, Note_off_c, 9, 43, 64
1, 5716, Control_c, 0, 1, 114
1, 5716, Control_c, 2, 1, 114
1, 5728, Control_c, 0, 1, 125
1, 5728, Control_c, 2, 1, 125
1, 5729, Note_on_c, 9, 43, 116
1, 5730, Note_off_c, 9, 43, 64
1, 5742, Note_off_c, 0, 65, 64
1, 5742, Note_off_c, 2, 65, 64
1, 5743, Control_c, 0, 1, 107
1, 5743, Control_c, 2, 1, 107
1, 5745, Note_on_c, 9, 43, 116
1, 5746, Note_off_c, 0, 60, 64
1, 5746, Note_off_c, 2, 60, 64
1, 5746, Note_off_c, 9, 43, 64
1, 5751, Control_c, 0, 1, 95
1, 5751, Control_c, 2, 1, 95
1, 5754, Note_off_c, 1, 38, 64
1, 5759, Control_c, 0, 1, 0
1, 5759, Control_c, 2, 1, 0
1, 5762, Note_on_c, 1, 26, 126
1, 5762, Note_on_c, 9, 35, 127
1, 5762, Note_off_c, 9, 35, 64
1, 5778, Note_off_c, 1, 26, 64
1, 5810, Note_on_c, 1, 26, 126
1, 5810, Note_on_c, 9, 35, 127
1, 5810, Note_off_c, 9, 35, 64
1, 5849, Note_off_c, 1, 26, 64
1, 5856, Note_on_c, 0, 55, 89
1, 5856, Note_on_c, 2, 55, 100
1, 5858, Note_on_c, 1, 31, 126
1, 5858, Note_on_c, 9, 46, 126
1, 5858, Note_off_c, 9, 46, 64
1, 5874, Note_on_c, 9, 46, 119
1, 5874, Note_off_c, 9, 46, 64
1, 5885, Pitch_bend_c, 0, 10572
1, 5885, Pitch_bend_c, 2, 10572
1, 5887, Pitch_bend_c, 1, 13910
1, 5889, Pitch_bend_c, 0, 13547
1, 5889, Pitch_bend_c, 2, 13547
1, 5890, Note_on_c, 9, 46, 125
1, 5890, Note_off_c, 9, 46, 64
1, 5891, Pitch_bend_c, 1, 16383
1, 5893, Pitch_bend_c, 0, 16383
1, 5893, Pitch_bend_c, 2, 16383
1, 5898, Pitch_bend_c, 0, 8192
1, 5898, Pitch_bend_c, 2, 8192
1, 5901, Pitch_bend_c, 1, 14327
1, 5904, Note_on_c, 0, 60, 89
1, 5904, Note_on_c, 0, 65, 89
1, 5904, Note_on_c, 2, 60, 91
1, 5904, Note_on_c, 2, 65, 94
1, 5905, Pitch_bend_c, 1, 8192
1, 5905, Note_off_c, 1, 31, 64
1, 5906, Note_on_c, 1, 41, 126
1, 5911, Note_off_c, 0, 55, 64
1, 5911, Note_off_c, 2, 55, 64
1, 5953, Note_on_c, 9, 48, 116
1, 5954, Note_off_c, 9, 48, 64
1, 5969, Note_on_c, 9, 48, 116
1, 5970, Note_off_c, 9, 48, 64
1, 5986, Note_on_c, 9, 48, 116
1, 5986, Note_off_c, 9, 48, 64
1, 6001, Note_on_c, 9, 48, 116
1, 6002, Note_off_c, 9, 48, 64
1, 6018, Note_on_c, 9, 48, 116
1, 6018, Note_off_c, 9, 48, 64
1, 6021, Control_c, 0, 1, 33
1, 6021, Control_c, 2, 1, 33
1, 6030, Control_c, 0, 1, 75
1, 6030, Control_c, 2, 1, 75
1, 6033, Note_on_c, 9, 45, 116
1, 6034, Note_off_c, 9, 45, 64
1, 6038, Control_c, 0, 1, 98
1, 6038, Control_c, 2, 1, 98
1, 6048, Control_c, 0, 1, 114
1, 6048, Control_c, 2, 1, 114
1, 6050, Note_on_c, 1, 38, 126
1, 6050, Note_on_c, 9, 45, 116
1, 6050, Note_off_c, 9, 45, 64
1, 6054, Note_off_c, 1, 41, 64
1, 6058, Control_c, 0, 1, 127
1, 6058, Control_c, 2, 1, 127
1, 6065, Note_on_c, 9, 45, 116
1, 6066, Note_off_c, 9, 45, 64
1, 6081, Note_on_c, 9, 45, 116
1, 6082, Note_off_c, 9, 45, 64
1, 6097, Note_on_c, 9, 43, 116
1, 6098, Note_off_c, 9, 43, 64
1, 6114, Note_on_c, 9, 43, 116
1, 6114, Note_off_c, 9, 43, 64
1, 6129, Note_on_c, 9, 43, 116
1, 6130, Note_off_c, 9, 43, 64
1, 6134, Note_off_c, 0, 60, 64
1, 6134, Note_off_c, 2, 60, 64
1, 6136, Note_off_c, 0, 65, 64
1, 6136, Note_off_c, 2, 65, 64
1, 6139, Control_c, 0, 1, 104
1, 6139, Control_c, 2, 1, 104
1, 6139, Note_off_c, 1, 38, 64
1, 6146, Note_on_c, 1, 26, 126
1, 6146, Note_on_c, 9, 35, 127
1, 6146, Note_off_c, 9, 35, 64
1, 6147, Control_c, 0, 1, 0
1, 6147, Control_c, 2, 1, 0
1, 6161, Note_off_c, 1, 26, 64
1, 6194, Note_on_c, 1, 26, 126
1, 6194, Note_on_c, 9, 35, 127
1, 6194, Note_off_c, 9, 35, 64
1, 6236, Note_off_c, 1, 26, 64
1, 6240, Note_on_c, 0, 55, 89
1, 6240, Note_on_c, 2, 55, 107
1, 6242, Note_on_c, 1, 31, 126
1, 6242, Note_on_c, 9, 46, 126
1, 6242, Note_off_c, 9, 46, 64
1, 6258, Note_on_c, 9, 46, 125
1, 6258, Note_off_c, 9, 46, 64
1, 6263, Pitch_bend_c, 1, 9541
1, 6267, Pitch_bend_c, 0, 10572
1, 6267, Pitch_bend_c, 1, 16383
1, 6267, Pitch_bend_c, 2, 10572
1, 6271, Pitch_bend_c, 0, 13717
1, 6271, Pitch_bend_c, 2, 13717
1, 6274, Note_on_c, 9, 46, 122
1, 6274, Note_off_c, 9, 46, 64
1, 6275, Pitch_bend_c, 0, 16383
1, 6275, Pitch_bend_c, 2, 16383
1, 6283, Pitch_bend_c, 0, 8192
1, 6283, Pitch_bend_c, 1, 15773
1, 6283, Pitch_bend_c, 2, 8192
1, 6288, Note_on_c, 0, 60, 89
1, 6288, Note_on_c, 0, 65, 89
1, 6288, Pitch_bend_c, 1, 8192
1, 6288, Note_on_c, 2, 60, 96
1, 6288, Note_on_c, 2, 65, 97
1, 6290, Note_on_c, 1, 41, 126
1, 6291, Note_off_c, 1, 31, 64
1, 6295, Note_off_c, 0, 55, 64
1, 6295, Note_off_c, 2, 55, 64
1, 6337, Note_on_c, 9, 48, 116
1, 6338, Note_off_c, 9, 48, 64
1, 6354, Note_on_c, 9, 48, 116
1, 6354, Note_off_c, 9, 48, 64
1, 6369, Note_on_c, 9, 48, 116
1, 6370, Note_off_c, 9, 48, 64
1, 6376, Control_c, 0, 1, 19
1, 6376, Control_c, 2, 1, 19
1, 6384, Control_c, 0, 1, 39
1, 6384, Control_c, 2, 1, 39
1, 6386, Note_on_c, 9, 48, 116
1, 6386, Note_off_c, 9, 48, 64
1, 6393, Control_c, 0, 1, 64
1, 6393, Control_c, 2, 1, 64
1, 6401, Control_c, 0, 1, 111
1, 6401, Control_c, 2, 1, 111
1, 6402, Note_on_c, 9, 48, 116
1, 6402, Note_off_c, 9, 48, 64
1, 6409, Control_c, 0, 1, 121
1, 6409, Control_c, 2, 1, 121
1, 6418, Note_on_c, 9, 48, 116
1, 6418, Note_off_c, 9, 48, 64
1, 6430, Control_c, 0, 1, 127
1, 6430, Control_c, 2, 1, 127
1, 6433, Note_on_c, 9, 45, 116
1, 6434, Note_on_c, 1, 38, 126
1, 6434, Note_off_c, 9, 45, 64
1, 6439, Note_off_c, 1, 41, 64
1, 6450, Note_on_c, 9, 45, 116
1, 6450, Note_off_c, 9, 45, 64
1, 6465, Note_on_c, 9, 45, 116
1, 6466, Note_off_c, 9, 45, 64
1, 6482, Note_on_c, 9, 43, 116
1, 6482, Note_off_c, 9, 43, 64
1, 6498, Control_c, 0, 1, 125
1, 6498, Control_c, 2, 1, 125
1, 6498, Note_on_c, 9, 43, 116
1, 6498, Note_off_c, 9, 43, 64
1, 6502, Note_off_c, 0, 60, 64
1, 6502, Note_off_c, 2, 60, 64
1, 6504, Note_off_c, 1, 38, 64
1, 6505, Note_off_c, 0, 65, 64
1, 6505, Note_off_c, 2, 65, 64
1, 6506, Control_c, 0, 1, 82
1, 6506, Control_c, 2, 1, 82
1, 6513, Note_on_c, 9, 43, 116
1, 6514, Note_off_c, 9, 43, 64
1, 6514, Control_c, 0, 1, 0
1, 6514, Control_c, 2, 1, 0
1, 6528, Note_on_c, 6, 74, 127
1, 6528, Note_on_c, 8, 62, 127
1, 6530, Note_on_c, 0, 50, 89
1, 6530, Note_on_c, 0, 57, 89
1, 6530, Note_on_c, 1, 26, 125
1, 6530, Note_on_c, 9, 35, 120
1, 6530, Note_on_c, 9, 40, 120
1, 6530, Note_on_c, 9, 49, 110
1, 6530, Note_off_c, 9, 35, 64
1, 6530, Note_off_c, 9, 40, 64
1, 6530, Note_off_c, 9, 49, 64
1, 6554, Note_off_c, 1, 26, 64
1, 6576, Note_on_c, 3, 77, 100
1, 6576, Note_on_c, 6, 84, 127
1, 6576, Note_on_c, 6, 89, 126
1, 6578, Note_on_c, 1, 26, 126
1, 6578, Note_on_c, 9, 35, 109
1, 6578, Note_on_c, 9, 44, 75
1, 6578, Note_off_c, 9, 35, 64
1, 6578, Note_off_c, 9, 44, 64
1, 6579, Note_on_c, 5, 72, 96
1, 6605, Control_c, 5, 1, 1
1, 6613, Control_c, 5, 1, 17
1, 6619, Note_off_c, 0, 50, 64
1, 6622, Control_c, 5, 1, 59
1, 6624, Note_off_c, 6, 74, 64
1, 6624, Note_off_c, 8, 62, 64
1, 6624, Note_on_c, 8, 62, 107
1, 6624, Note_on_c, 8, 71, 127
1, 6626, Note_on_c, 1, 31, 126
1, 6626, Note_on_c, 9, 40, 127
1, 6626, Note_on_c, 9, 44, 103
1, 6626, Note_off_c, 1, 26, 64
1, 6626, Note_off_c, 9, 40, 64
1, 6626, Note_off_c, 9, 44, 64
1, 6628, Note_off_c, 0, 57, 64
1, 6628, Note_on_c, 0, 59, 89
1, 6629, Note_on_c, 0, 50, 89
1, 6629, Control_c, 3, 1, 30
1, 6631, Control_c, 5, 1, 111
1, 6638, Control_c, 3, 1, 111
1, 6640, Control_c, 5, 1, 127
1, 6646, Control_c, 3, 1, 127
1, 6652, Pitch_bend_c, 1, 11565
1, 6656, Pitch_bend_c, 1, 16383
1, 6659, Note_off_c, 6, 84, 64
1, 6660, Control_c, 5, 1, 80
1, 6665, Note_off_c, 6, 89, 64
1, 6668, Control_c, 5, 1, 0
1, 6672, Note_on_c, 3, 74, 90
1, 6672, Note_on_c, 6, 81, 123
1, 6672, Note_on_c, 6, 86, 125
1, 6673, Control_c, 3, 1, 0
1, 6674, Note_off_c, 1, 31, 64
1, 6674, Note_on_c, 1, 41, 126
1, 6674, Note_on_c, 9, 44, 67
1, 6674, Note_off_c, 9, 44, 64
1, 6675, Note_off_c, 3, 77, 64
1, 6675, Pitch_bend_c, 1, 8303
1, 6676, Note_on_c, 5, 69, 85
1, 6678, Note_off_c, 5, 72, 64
1, 6680, Pitch_bend_c, 1, 8192
1, 6686, Note_off_c, 3, 74, 64
1, 6686, Note_off_c, 5, 69, 64
1, 6695, Note_off_c, 6, 81, 64
1, 6696, Note_off_c, 6, 86, 64
1, 6716, Note_off_c, 0, 50, 64
1, 6720, Note_on_c, 3, 77, 92
1, 6720, Note_on_c, 6, 84, 127
1, 6720, Note_on_c, 6, 89, 126
1, 6720, Note_off_c, 8, 62, 64
1, 6720, Note_on_c, 8, 62, 109
1, 6720, Note_on_c, 8, 69, 113
1, 6720, Note_off_c, 8, 71, 64
1, 6722, Note_on_c, 9, 35, 120
1, 6722, Note_on_c, 9, 40, 120
1, 6722, Note_on_c, 9, 44, 99
1, 6722, Note_off_c, 9, 35, 64
1, 6722, Note_off_c, 9, 40, 64
1, 6722, Note_off_c, 9, 44, 64
1, 6723, Note_on_c, 0, 57, 89
1, 6723, Note_on_c, 5, 72, 83
1, 6724, Note_on_c, 0, 50, 89
1, 6726, Note_off_c, 0, 59, 64
1, 6759, Note_off_c, 6, 84, 64
1, 6768, Note_on_c, 3, 74, 83
1, 6768, Note_off_c, 3, 77, 64
1, 6768, Note_on_c, 6, 81, 107
1, 6768, Note_on_c, 6, 86, 111
1, 6769, Note_on_c, 5, 69, 83
1, 6769, Note_off_c, 6, 89, 64
1, 6770, Note_on_c, 9, 35, 122
1, 6770, Note_on_c, 9, 44, 64
1, 6770, Note_off_c, 9, 35, 64
1, 6770, Note_off_c, 9, 44, 64
1, 6772, Note_off_c, 5, 72, 64
1, 6780, Note_off_c, 5, 69, 64
1, 6781, Note_off_c, 3, 74, 64
1, 6781, Note_off_c, 6, 81, 64
1, 6782, Note_off_c, 6, 86, 64
1, 6805, Note_off_c, 0, 50, 64
1, 6813, Note_on_c, 5, 67, 64
1, 6816, Note_on_c, 3, 72, 95
1, 6816, Note_on_c, 6, 79, 127
1, 6816, Note_on_c, 6, 84, 127
1, 6816, Note_off_c, 8, 62, 64
1, 6816, Note_on_c, 8, 62, 111
1, 6816, Note_off_c, 8, 69, 64
1, 6816, Note_on_c, 8, 71, 127
1, 6817, Note_on_c, 0, 50, 89
1, 6818, Note_on_c, 1, 38, 126
1, 6818, Note_on_c, 9, 40, 127
1, 6818, Note_on_c, 9, 44, 105
1, 6818, Note_off_c, 0, 57, 64
1, 6818, Note_on_c, 0, 59, 89
1, 6818, Note_off_c, 9, 40, 64
1, 6818, Note_off_c, 9, 44, 64
1, 6825, Note_off_c, 1, 41, 64
1, 6830, Note_off_c, 5, 67, 64
1, 6835, Note_off_c, 3, 72, 64
1, 6841, Note_off_c, 6, 79, 64
1, 6856, Note_off_c, 6, 84, 64
1, 6861, Note_on_c, 5, 69, 83
1, 6864, Note_on_c, 3, 74, 100
1, 6864, Note_on_c, 6, 81, 127
1, 6864, Note_on_c, 6, 86, 127
1, 6866, Note_on_c, 9, 44, 77
1, 6866, Note_off_c, 9, 44, 64
1, 6887, Control_c, 5, 1, 97
1, 6889, Note_off_c, 6, 86, 64
1, 6890, Note_off_c, 6, 81, 64
1, 6895, Control_c, 5, 1, 126
1, 6903, Control_c, 3, 1, 11
1, 6905, Note_off_c, 3, 74, 64
1, 6906, Note_off_c, 0, 50, 64
1, 6907, Note_off_c, 1, 38, 64
1, 6908, Control_c, 5, 1, 61
1, 6911, Control_c, 3, 1, 1
1, 6912, Note_off_c, 8, 62, 64
1, 6912, Note_on_c, 8, 62, 116
1, 6912, Note_on_c, 8, 69, 127
1, 6912, Note_off_c, 8, 71, 64
1, 6914, Note_on_c, 1, 26, 126
1, 6914, Note_on_c, 9, 35, 118
1, 6914, Note_on_c, 9, 40, 125
1, 6914, Note_on_c, 9, 44, 107
1, 6914, Note_off_c, 9, 35, 64
1, 6914, Note_off_c, 9, 40, 64
1, 6914, Note_off_c, 9, 44, 64
1, 6915, Note_on_c, 0, 57, 89
1, 6915, Note_on_c, 0, 50, 89
1, 6917, Control_c, 5, 1, 62
1, 6918, Note_off_c, 0, 59, 64
1, 6920, Control_c, 3, 1, 127
1, 6920, Note_off_c, 5, 69, 64
1, 6925, Control_c, 5, 1, 85
1, 6930, Note_off_c, 1, 26, 64
1, 6932, Control_c, 5, 1, 0
1, 6934, Control_c, 3, 1, 0
1, 6960, Note_on_c, 3, 77, 103
1, 6960, Note_on_c, 6, 84, 127
1, 6960, Note_on_c, 6, 89, 126
1, 6962, Note_on_c, 1, 26, 126
1, 6962, Note_on_c, 5, 72, 71
1, 6962, Note_on_c, 9, 35, 114
1, 6962, Note_on_c, 9, 44, 83
1, 6962, Note_off_c, 9, 35, 64
1, 6962, Note_off_c, 9, 44, 64
1, 6997, Control_c, 3, 1, 8
1, 7000, Note_off_c, 0, 50, 64
1, 7001, Note_off_c, 1, 26, 64
1, 7002, Control_c, 5, 1, 5
1, 7005, Control_c, 3, 1, 31
1, 7008, Note_off_c, 8, 62, 64
1, 7008, Note_on_c, 8, 62, 103
1, 7008, Note_off_c, 8, 69, 64
1, 7008, Note_on_c, 8, 71, 127
1, 7010, Note_on_c, 0, 50, 89
1, 7010, Note_on_c, 1, 31, 126
1, 7010, Note_on_c, 9, 40, 127
1, 7010, Note_on_c, 9, 44, 109
1, 7010, Note_off_c, 0, 57, 64
1, 7010, Note_off_c, 9, 40, 64
1, 7010, Note_off_c, 9, 44, 64
1, 7011, Note_on_c, 0, 59, 89
1, 7011, Control_c, 5, 1, 33
1, 7014, Control_c, 3, 1, 17
1, 7020, Control_c, 5, 1, 107
1, 7022, Control_c, 3, 1, 68
1, 7029, Control_c, 5, 1, 127
1, 7030, Control_c, 3, 1, 127
1, 7039, Pitch_bend_c, 1, 16383
1, 7055, Note_off_c, 3, 77, 64
1, 7055, Control_c, 5, 1, 0
1, 7055, Note_off_c, 6, 84, 64
1, 7056, Note_on_c, 3, 74, 93
1, 7056, Note_on_c, 6, 81, 113
1, 7056, Note_on_c, 6, 86, 113
1, 7056, Pitch_bend_c, 1, 8192
1, 7058, Note_on_c, 1, 41, 126
1, 7058, Note_on_c, 9, 44, 77
1, 7058, Note_off_c, 9, 44, 64
1, 7059, Note_off_c, 1, 31, 64
1, 7061, Note_on_c, 5, 69, 85
1, 7062, Note_off_c, 6, 89, 64
1, 7063, Note_off_c, 5, 72, 64
1, 7064, Control_c, 3, 1, 0
1, 7071, Note_off_c, 3, 74, 64
1, 7074, Note_off_c, 5, 69, 64
1, 7093, Note_off_c, 6, 81, 64
1, 7098, Note_off_c, 6, 86, 64
1, 7099, Note_off_c, 0, 50, 64
1, 7104, Note_on_c, 3, 77, 95
1, 7104, Note_on_c, 6, 84, 127
1, 7104, Note_on_c, 6, 89, 123
1, 7104, Note_off_c, 8, 62, 64
1, 7104, Note_on_c, 8, 62, 118
1, 7104, Note_on_c, 8, 69, 125
1, 7104, Note_off_c, 8, 71, 64
1, 7105, Note_on_c, 5, 72, 46
1, 7106, Note_on_c, 9, 35, 120
1, 7106, Note_on_c, 9, 40, 116
1, 7106, Note_on_c, 9, 44, 119
1, 7106, Note_on_c, 0, 57, 89
1, 7106, Note_off_c, 9, 35, 64
1, 7106, Note_off_c, 9, 40, 64
1, 7106, Note_off_c, 9, 44, 64
1, 7108, Note_on_c, 0, 50, 89
1, 7111, Note_off_c, 0, 59, 64
1, 7134, Control_c, 5, 1, 1
1, 7144, Control_c, 5, 1, 76
1, 7146, Note_off_c, 6, 84, 64
1, 7151, Note_off_c, 3, 77, 64
1, 7152, Note_on_c, 3, 74, 97
1, 7152, Note_on_c, 6, 81, 103
1, 7152, Note_on_c, 6, 86, 107
1, 7153, Control_c, 5, 1, 0
1, 7153, Note_off_c, 6, 89, 64
1, 7154, Note_on_c, 5, 69, 77
1, 7154, Note_on_c, 9, 35, 127
1, 7154, Note_on_c, 9, 44, 77
1, 7154, Note_off_c, 9, 35, 64
1, 7154, Note_off_c, 9, 44, 64
1, 7159, Note_off_c, 5, 72, 64
1, 7163, Note_off_c, 3, 74, 64
1, 7167, Note_off_c, 5, 69, 64
1, 7170, Note_off_c, 6, 81, 64
1, 7173, Note_off_c, 6, 86, 64
1, 7193, Note_off_c, 0, 50, 64
1, 7198, Note_on_c, 5, 67, 70
1, 7200, Note_on_c, 3, 72, 97
1, 7200, Note_on_c, 6, 79, 126
1, 7200, Note_on_c, 6, 84, 123
1, 7200, Note_off_c, 8, 62, 64
1, 7200, Note_on_c, 8, 62, 103
1, 7200, Note_off_c, 8, 69, 64
1, 7200, Note_on_c, 8, 71, 123
1, 7202, Note_on_c, 0, 50, 89
1, 7202, Note_on_c, 1, 38, 126
1, 7202, Note_off_c, 1, 41, 64
1, 7202, Note_on_c, 9, 40, 127
1, 7202, Note_on_c, 9, 44, 116
1, 7202, Note_on_c, 0, 59, 89
1, 7202, Note_off_c, 9, 40, 64
1, 7202, Note_off_c, 9, 44, 64
1, 7203, Note_off_c, 0, 57, 64
1, 7211, Note_off_c, 3, 72, 64
1, 7215, Note_off_c, 5, 67, 64
1, 7218, Note_off_c, 6, 79, 64
1, 7243, Note_off_c, 6, 84, 64
1, 7247, Note_on_c, 5, 69, 87
1, 7248, Note_on_c, 3, 74, 98
1, 7248, Note_on_c, 6, 81, 113
1, 7248, Note_on_c, 6, 86, 113
1, 7250, Note_on_c, 9, 44, 87
1, 7250, Note_off_c, 9, 44, 64
1, 7267, Note_off_c, 5, 69, 64
1, 7268, Note_off_c, 6, 81, 64
1, 7271, Note_off_c, 6, 86, 64
1, 7283, Control_c, 3, 1, 125
1, 7288, Note_off_c, 0, 50, 64
1, 7290, Note_off_c, 1, 38, 64
1, 7293, Control_c, 3, 1, 0
1, 7296, Note_off_c, 8, 62, 64
1, 7296, Note_on_c, 8, 62, 113
1, 7296, Note_on_c, 8, 69, 125
1, 7296, Note_off_c, 8, 71, 64
1, 7297, Note_on_c, 0, 57, 89
1, 7298, Note_on_c, 1, 26, 126
1, 7298, Note_on_c, 9, 35, 127
1, 7298, Note_on_c, 9, 40, 125
1, 7298, Note_on_c, 9, 44, 113
1, 7298, Note_off_c, 9, 35, 64
1, 7298, Note_off_c, 9, 40, 64
1, 7298, Note_off_c, 9, 44, 64
1, 7299, Note_off_c, 3, 74, 64
1, 7299, Note_on_c, 0, 50, 89
1, 7302, Note_off_c, 0, 59, 64
1, 7304, Control_c, 3, 1, 127
1, 7314, Note_off_c, 1, 26, 64
1, 7316, Control_c, 3, 1, 0
1, 7344, Note_on_c, 3, 77, 102
1, 7344, Note_on_c, 6, 84, 127
1, 7344, Note_on_c, 6, 89, 127
1, 7346, Note_on_c, 1, 26, 126
1, 7346, Note_on_c, 9, 35, 127
1, 7346, Note_on_c, 9, 44, 83
1, 7346, Note_on_c, 5, 72, 91
1, 7346, Note_off_c, 9, 35, 64
1, 7346, Note_off_c, 9, 44, 64
1, 7373, Control_c, 5, 1, 2
1, 7381, Note_off_c, 0, 50, 64
1, 7382, Control_c, 5, 1, 33
1, 7385, Note_off_c, 1, 26, 64
1, 7391, Note_on_c, 0, 50, 89
1, 7391, Control_c, 5, 1, 47
1, 7392, Note_off_c, 0, 57, 64
1, 7392, Note_off_c, 8, 62, 64
1, 7392, Note_on_c, 8, 62, 118
1, 7392, Note_off_c, 8, 69, 64
1, 7392, Note_on_c, 8, 71, 125
1, 7392, Note_on_c, 0, 59, 89
1, 7394, Note_on_c, 1, 31, 126
1, 7394, Note_on_c, 9, 40, 127
1, 7394, Note_on_c, 9, 44, 116
1, 7394, Note_off_c, 9, 40, 64
1, 7394, Note_off_c, 9, 44, 64
1, 7398, Control_c, 3, 1, 12
1, 7400, Control_c, 5, 1, 83
1, 7406, Control_c, 3, 1, 2
1, 7411, Control_c, 5, 1, 116
1, 7415, Control_c, 3, 1, 127
1, 7418, Control_c, 5, 1, 116
1, 7423, Pitch_bend_c, 1, 13910
1, 7427, Pitch_bend_c, 1, 16383
1, 7427, Control_c, 5, 1, 0
1, 7434, Note_off_c, 3, 77, 64
1, 7436, Note_off_c, 5, 72, 64
1, 7437, Pitch_bend_c, 1, 14327
1, 7437, Note_off_c, 6, 84, 64
1, 7437, Control_c, 3, 1, 0
1, 7438, Note_on_c, 5, 69, 73
1, 7440, Note_on_c, 3, 74, 86
1, 7440, Note_on_c, 6, 81, 109
1, 7440, Note_on_c, 6, 86, 109
1, 7441, Pitch_bend_c, 1, 8192
1, 7441, Note_off_c, 1, 31, 64
1, 7442, Note_on_c, 1, 41, 126
1, 7442, Note_on_c, 9, 44, 66
1, 7442, Note_off_c, 6, 89, 64
1, 7442, Note_off_c, 9, 44, 64
1, 7451, Note_off_c, 5, 69, 64
1, 7454, Note_off_c, 6, 81, 64
1, 7463, Note_off_c, 3, 74, 64
1, 7465, Note_off_c, 6, 86, 64
1, 7479, Note_off_c, 0, 50, 64
1, 7487, Note_on_c, 5, 72, 89
1, 7488, Note_on_c, 0, 57, 89
1, 7488, Note_on_c, 3, 77, 99
1, 7488, Note_on_c, 6, 84, 127
1, 7488, Note_on_c, 6, 89, 121
1, 7488, Note_off_c, 8, 62, 64
1, 7488, Note_on_c, 8, 62, 113
1, 7488, Note_on_c, 8, 69, 125
1, 7488, Note_off_c, 8, 71, 64
1, 7489, Note_on_c, 0, 50, 89
1, 7490, Note_on_c, 9, 35, 127
1, 7490, Note_on_c, 9, 40, 125
1, 7490, Note_on_c, 9, 44, 116
1, 7490, Note_off_c, 9, 35, 64
1, 7490, Note_off_c, 9, 40, 64
1, 7490, Note_off_c, 9, 44, 64
1, 7493, Note_off_c, 0, 59, 64
1, 7503, Control_c, 5, 1, 1
1, 7511, Control_c, 5, 1, 21
1, 7519, Control_c, 5, 1, 95
1, 7527, Control_c, 5, 1, 91
1, 7532, Note_off_c, 6, 84, 64
1, 7535, Control_c, 5, 1, 0
1, 7536, Note_on_c, 3, 74, 92
1, 7536, Note_on_c, 6, 81, 99
1, 7536, Note_on_c, 6, 86, 109
1, 7536, Note_on_c, 5, 69, 83
1, 7537, Note_off_c, 3, 77, 64
1, 7538, Note_off_c, 6, 89, 64
1, 7538, Note_on_c, 9, 35, 127
1, 7538, Note_on_c, 9, 44, 81
1, 7538, Note_off_c, 9, 35, 64
1, 7538, Note_off_c, 9, 44, 64
1, 7542, Note_off_c, 5, 72, 64
1, 7549, Note_off_c, 3, 74, 64
1, 7549, Note_off_c, 5, 69, 64
1, 7551, Note_off_c, 6, 81, 64
1, 7558, Note_off_c, 6, 86, 64
1, 7574, Note_off_c, 0, 50, 64
1, 7580, Note_on_c, 5, 67, 64
1, 7582, Note_on_c, 0, 59, 89
1, 7584, Note_on_c, 0, 50, 89
1, 7584, Note_on_c, 3, 72, 102
1, 7584, Note_on_c, 6, 79, 126
1, 7584, Note_on_c, 6, 84, 127
1, 7584, Note_off_c, 8, 62, 64
1, 7584, Note_on_c, 8, 62, 98
1, 7584, Note_off_c, 8, 69, 64
1, 7584, Note_on_c, 8, 71, 118
1, 7584, Note_off_c, 0, 57, 64
1, 7586, Note_on_c, 1, 38, 126
1, 7586, Note_on_c, 9, 40, 127
1, 7586, Note_on_c, 9, 44, 103
1, 7586, Note_off_c, 9, 40, 64
1, 7586, Note_off_c, 9, 44, 64
1, 7590, Note_off_c, 1, 41, 64
1, 7595, Note_off_c, 3, 72, 64
1, 7596, Note_off_c, 5, 67, 64
1, 7601, Note_off_c, 6, 79, 64
1, 7621, Note_off_c, 6, 84, 64
1, 7632, Note_on_c, 3, 74, 94
1, 7632, Note_on_c, 6, 81, 118
1, 7632, Note_on_c, 6, 86, 116
1, 7633, Note_on_c, 5, 69, 94
1, 7634, Note_on_c, 9, 44, 69
1, 7634, Note_off_c, 9, 44, 64
1, 7653, Note_off_c, 6, 81, 64
1, 7654, Note_off_c, 5, 69, 64
1, 7656, Note_off_c, 6, 86, 64
1, 7667, Control_c, 3, 1, 3
1, 7671, Note_off_c, 0, 50, 64
1, 7675, Note_off_c, 1, 38, 64
1, 7675, Control_c, 3, 1, 127
1, 7677, Note_off_c, 3, 74, 64
1, 7679, Note_on_c, 0, 57, 89
1, 7680, Note_off_c, 8, 62, 64
1, 7680, Note_on_c, 8, 62, 126
1, 7680, Note_on_c, 8, 69, 121
1, 7680, Note_off_c, 8, 71, 64
1, 7682, Note_on_c, 1, 26, 126
1, 7682, Note_on_c, 9, 35, 127
1, 7682, Note_on_c, 9, 40, 127
1, 7682, Note_on_c, 9, 44, 97
1, 7682, Note_on_c, 0, 50, 89
1, 7682, Note_off_c, 9, 35, 64
1, 7682, Note_off_c, 9, 40, 64
1, 7682, Note_off_c, 9, 44, 64
1, 7686, Note_off_c, 0, 59, 64
1, 7688, Control_c, 3, 1, 0
1, 7697, Note_off_c, 1, 26, 64
1, 7728, Note_on_c, 3, 77, 104
1, 7728, Note_on_c, 6, 84, 127
1, 7728, Note_on_c, 6, 89, 125
1, 7730, Note_on_c, 1, 26, 126
1, 7730, Note_on_c, 9, 35, 118
1, 7730, Note_on_c, 9, 44, 76
1, 7730, Note_off_c, 9, 35, 64
1, 7730, Note_off_c, 9, 44, 64
1, 7732, Note_on_c, 5, 72, 94
1, 7764, Note_off_c, 0, 50, 64
1, 7772, Note_off_c, 1, 26, 64
1, 7776, Note_off_c, 8, 62, 64
1, 7776, Note_on_c, 8, 62, 111
1, 7776, Note_off_c, 8, 69, 64
1, 7776, Note_on_c, 8, 71, 125
1, 7777, Note_on_c, 0, 50, 89
1, 7777, Control_c, 5, 1, 9
1, 7778, Note_on_c, 1, 31, 126
1, 7778, Note_on_c, 9, 40, 127
1, 7778, Note_on_c, 9, 44, 109
1, 7778, Note_on_c, 0, 59, 89
1, 7778, Note_off_c, 9, 40, 64
1, 7778, Note_off_c, 9, 44, 64
1, 7781, Note_off_c, 0, 57, 64
1, 7785, Control_c, 5, 1, 53
1, 7794, Control_c, 3, 1, 127
1, 7794, Control_c, 5, 1, 119
1, 7799, Pitch_bend_c, 1, 9541
1, 7802, Control_c, 5, 1, 126
1, 7803, Pitch_bend_c, 1, 16383
1, 7811, Control_c, 3, 1, 107
1, 7816, Control_c, 5, 1, 102
1, 7816, Note_off_c, 6, 84, 64
1, 7819, Pitch_bend_c, 1, 15773
1, 7820, Control_c, 3, 1, 0
1, 7822, Note_off_c, 3, 77, 64
1, 7823, Note_off_c, 6, 89, 64
1, 7824, Pitch_bend_c, 1, 8192
1, 7824, Note_on_c, 3, 74, 96
1, 7824, Control_c, 5, 1, 0
1, 7824, Note_on_c, 6, 81, 111
1, 7824, Note_on_c, 6, 86, 111
1, 7826, Note_on_c, 1, 41, 126
1, 7826, Note_on_c, 9, 44, 53
1, 7826, Note_off_c, 9, 44, 64
1, 7827, Note_off_c, 1, 31, 64
1, 7829, Note_on_c, 5, 69, 85
1, 7831, Note_off_c, 5, 72, 64
1, 7841, Note_off_c, 3, 74, 64
1, 7842, Note_off_c, 6, 81, 64
1, 7843, Note_off_c, 5, 69, 64
1, 7847, Note_off_c, 6, 86, 64
1, 7866, Note_off_c, 0, 50, 64
1, 7872, Note_on_c, 3, 77, 97
1, 7872, Note_on_c, 6, 84, 127
1, 7872, Note_on_c, 6, 89, 126
1, 7872, Note_off_c, 8, 62, 64
1, 7872, Note_on_c, 8, 62, 113
1, 7872, Note_on_c, 8, 69, 125
1, 7872, Note_off_c, 8, 71, 64
1, 7873, Note_on_c, 0, 57, 89
1, 7874, Note_on_c, 9, 35, 127
1, 7874, Note_on_c, 9, 40, 127
1, 7874, Note_on_c, 9, 44, 109
1, 7874, Note_off_c, 9, 35, 64
1, 7874, Note_off_c, 9, 40, 64
1, 7874, Note_off_c, 9, 44, 64
1, 7875, Note_on_c, 5, 72, 85
1, 7877, Note_on_c, 0, 50, 89
1, 7878, Note_off_c, 0, 59, 64
1, 7915, Note_off_c, 6, 84, 64
1, 7917, Note_on_c, 5, 69, 83
1, 7920, Note_on_c, 3, 74, 94
1, 7920, Note_on_c, 6, 81, 100
1, 7920, Note_on_c, 6, 86, 105
1, 7921, Note_off_c, 5, 72, 64
1, 7922, Note_on_c, 9, 35, 120
1, 7922, Note_on_c, 9, 44, 69
1, 7922, Note_off_c, 9, 35, 64
1, 7922, Note_off_c, 9, 44, 64
1, 7923, Note_off_c, 6, 89, 64
1, 7924, Note_off_c, 3, 77, 64
1, 7931, Note_off_c, 3, 74, 64
1, 7931, Note_off_c, 5, 69, 64
1, 7934, Note_off_c, 6, 81, 64
1, 7936, Note_off_c, 6, 86, 64
1, 7961, Note_off_c, 0, 50, 64
1, 7968, Note_on_c, 3, 72, 98
1, 7968, Note_on_c, 6, 79, 123
1, 7968, Note_on_c, 6, 84, 125
1, 7968, Note_off_c, 8, 62, 64
1, 7968, Note_on_c, 8, 62, 120
1, 7968, Note_off_c, 8, 69, 64
1, 7968, Note_on_c, 8, 71, 123
1, 7970, Note_on_c, 1, 38, 126
1, 7970, Note_on_c, 5, 67, 81
1, 7970, Note_on_c, 9, 40, 127
1, 7970, Note_on_c, 9, 44, 116
1, 7970, Note_off_c, 9, 40, 64
1, 7970, Note_off_c, 9, 44, 64
1, 7971, Note_on_c, 0, 50, 89
1, 7971, Note_on_c, 0, 59, 89
1, 7972, Note_off_c, 0, 57, 64
1, 7975, Note_off_c, 1, 41, 64
1, 7988, Note_off_c, 6, 79, 64
1, 7991, Note_off_c, 5, 67, 64
1, 8007, Note_off_c, 3, 72, 64
1, 8009, Note_off_c, 6, 84, 64
1, 8015, Note_on_c, 5, 69, 91
1, 8016, Note_on_c, 3, 74, 102
1, 8016, Note_on_c, 6, 81, 125
1, 8016, Note_on_c, 6, 86, 121
1, 8018, Note_on_c, 9, 44, 76
1, 8018, Note_off_c, 9, 44, 64
1, 8033, Note_off_c, 0, 59, 64
1, 8035, Note_off_c, 3, 74, 64
1, 8035, Note_off_c, 5, 69, 64
1, 8040, Note_off_c, 1, 38, 64
1, 8044, Note_off_c, 0, 50, 64
1, 8058, Note_off_c, 6, 81, 64
1, 8062, Note_off_c, 6, 86, 64
1, 8064, Note_on_c, 8, 57, 127
1, 8064, Note_off_c, 8, 62, 64
1, 8064, Note_on_c, 8, 64, 127
1, 8064, Note_off_c, 8, 71, 64
1, 8066, Note_on_c, 0, 45, 89
1, 8066, Note_on_c, 0, 52, 89
1, 8066, Note_on_c, 1, 21, 124
1, 8066, Note_on_c, 9, 35, 127
1, 8066, Note_on_c, 9, 40, 125
1, 8066, Note_on_c, 9, 49, 103
1, 8066, Note_off_c, 9, 35, 64
1, 8066, Note_off_c, 9, 40, 64
1, 8066, Note_off_c, 9, 49, 64
1, 8093, Note_off_c, 1, 21, 64
1, 8110, Note_on_c, 5, 71, 105
1, 8110, Note_on_c, 6, 88, 111
1, 8111, Note_on_c, 6, 79, 125
1, 8111, Note_on_c, 6, 85, 123
1, 8112, Note_on_c, 3, 74, 97
1, 8112, Pitch_bend_c, 3, 10657
1, 8114, Note_on_c, 1, 21, 126
1, 8114, Note_on_c, 9, 35, 127
1, 8114, Note_on_c, 9, 44, 83
1, 8114, Note_off_c, 9, 35, 64
1, 8114, Note_off_c, 9, 44, 64
1, 8115, Pitch_bend_c, 5, 9412
1, 8116, Pitch_bend_c, 3, 13377
1, 8120, Pitch_bend_c, 5, 13042
1, 8120, Pitch_bend_c, 3, 14822
1, 8123, Pitch_bend_c, 5, 14809
1, 8124, Pitch_bend_c, 3, 15842
1, 8128, Pitch_bend_c, 5, 16383
1, 8129, Pitch_bend_c, 3, 16383
1, 8146, Note_off_c, 0, 45, 64
1, 8154, Note_off_c, 0, 52, 64
1, 8159, Note_off_c, 1, 21, 64
1, 8160, Note_off_c, 8, 57, 64
1, 8160, Note_on_c, 8, 57, 127
1, 8160, Note_on_c, 8, 66, 127
1, 8162, Note_on_c, 0, 45, 89
1, 8162, Note_on_c, 0, 54, 89
1, 8162, Note_on_c, 1, 26, 122
1, 8162, Note_on_c, 9, 40, 127
1, 8162, Note_on_c, 9, 44, 116
1, 8162, Note_off_c, 9, 40, 64
1, 8162, Note_off_c, 9, 44, 64
1, 8167, Note_off_c, 8, 64, 64
1, 8189, Pitch_bend_c, 1, 16383
1, 8200, Pitch_bend_c, 3, 15842
1, 8204, Pitch_bend_c, 3, 13717
1, 8205, Note_on_c, 6, 78, 106
1, 8205, Pitch_bend_c, 1, 15323
1, 8205, Note_off_c, 6, 85, 64
1, 8206, Note_on_c, 6, 87, 84
1, 8206, Note_off_c, 6, 79, 64
1, 8206, Note_on_c, 6, 84, 99
1, 8208, Note_off_c, 3, 74, 64
1, 8208, Pitch_bend_c, 3, 11592
1, 8210, Note_on_c, 0, 52, 89
1, 8210, Note_on_c, 1, 33, 115
1, 8210, Pitch_bend_c, 1, 8192
1, 8210, Note_off_c, 5, 71, 64
1, 8210, Note_on_c, 9, 44, 59
1, 8210, Note_off_c, 9, 44, 64
1, 8211, Note_off_c, 6, 88, 64
1, 8212, Pitch_bend_c, 5, 15163
1, 8212, Pitch_bend_c, 3, 10147
1, 8213, Note_off_c, 1, 26, 64
1, 8216, Pitch_bend_c, 5, 11243
1, 8216, Pitch_bend_c, 3, 8192
1, 8221, Pitch_bend_c, 5, 9220
1, 8225, Pitch_bend_c, 5, 8609
1, 8233, Pitch_bend_c, 5, 8320
1, 8237, Pitch_bend_c, 5, 8192
1, 8247, Note_off_c, 6, 84, 64
1, 8249, Note_off_c, 6, 87, 64
1, 8252, Pitch_bend_c, 3, 8787
1, 8253, Note_on_c, 6, 88, 118
1, 8253, Note_on_c, 5, 71, 103
1, 8253, Note_on_c, 6, 85, 114
1, 8253, Note_off_c, 8, 66, 64
1, 8254, Note_off_c, 0, 54, 64
1, 8254, Note_on_c, 6, 79, 111
1, 8254, Note_off_c, 0, 45, 64
1, 8254, Note_off_c, 6, 78, 64
1, 8256, Note_on_c, 3, 74, 116
1, 8256, Note_off_c, 8, 57, 64
1, 8256, Note_on_c, 8, 57, 127
1, 8256, Note_on_c, 8, 64, 127
1, 8256, Pitch_bend_c, 3, 9297
1, 8258, Note_on_c, 0, 45, 89
1, 8258, Note_off_c, 0, 52, 64
1, 8258, Note_on_c, 0, 52, 89
1, 8258, Note_on_c, 9, 35, 127
1, 8258, Note_on_c, 9, 40, 125
1, 8258, Note_on_c, 9, 44, 116
1, 8258, Note_off_c, 9, 35, 64
1, 8258, Note_off_c, 9, 40, 64
1, 8258, Note_off_c, 9, 44, 64
1, 8259, Pitch_bend_c, 5, 9220
1, 8260, Pitch_bend_c, 3, 9892
1, 8264, Pitch_bend_c, 5, 12400
1, 8264, Pitch_bend_c, 3, 10572
1, 8268, Pitch_bend_c, 5, 14520
1, 8269, Pitch_bend_c, 3, 12102
1, 8272, Pitch_bend_c, 5, 14841
1, 8273, Pitch_bend_c, 3, 14142
1, 8275, Pitch_bend_c, 5, 14906
1, 8277, Pitch_bend_c, 3, 16383
1, 8281, Pitch_bend_c, 5, 14938
1, 8285, Pitch_bend_c, 5, 15098
1, 8289, Pitch_bend_c, 5, 15323
1, 8292, Pitch_bend_c, 5, 15709
1, 8296, Pitch_bend_c, 5, 15966
1, 8301, Pitch_bend_c, 5, 16255
1, 8306, Note_on_c, 9, 35, 127
1, 8306, Note_on_c, 9, 44, 40
1, 8306, Pitch_bend_c, 5, 16383
1, 8306, Note_off_c, 9, 35, 64
1, 8306, Note_off_c, 9, 44, 64
1, 8346, Pitch_bend_c, 3, 16352
1, 8350, Note_off_c, 1, 33, 64
1, 8350, Pitch_bend_c, 3, 14397
1, 8350, Pitch_bend_c, 5, 15869
1, 8352, Note_off_c, 8, 57, 64
1, 8352, Note_on_c, 8, 57, 127
1, 8352, Note_on_c, 8, 66, 127
1, 8354, Note_off_c, 0, 52, 64
1, 8354, Note_on_c, 0, 54, 89
1, 8354, Note_on_c, 1, 28, 115
1, 8354, Note_on_c, 9, 40, 127
1, 8354, Note_on_c, 9, 44, 105
1, 8354, Pitch_bend_c, 3, 11422
1, 8354, Note_off_c, 9, 40, 64
1, 8354, Note_off_c, 9, 44, 64
1, 8355, Pitch_bend_c, 5, 14135
1, 8355, Note_on_c, 6, 78, 110
1, 8355, Note_off_c, 6, 85, 64
1, 8356, Note_off_c, 8, 64, 64
1, 8356, Note_off_c, 6, 79, 64
1, 8356, Note_on_c, 6, 84, 72
1, 8357, Note_on_c, 6, 87, 102
1, 8358, Pitch_bend_c, 3, 9892
1, 8359, Pitch_bend_c, 5, 10505
1, 8359, Note_off_c, 5, 71, 64
1, 8362, Note_off_c, 6, 88, 64
1, 8363, Pitch_bend_c, 5, 8192
1, 8364, Note_off_c, 3, 74, 64
1, 8365, Pitch_bend_c, 3, 9212
1, 8369, Pitch_bend_c, 3, 8192
1, 8396, Pitch_bend_c, 3, 8192
1, 8397, Note_on_c, 5, 71, 101
1, 8398, Note_off_c, 6, 87, 64
1, 8399, Note_off_c, 6, 84, 64
1, 8400, Note_on_c, 3, 74, 116
1, 8400, Pitch_bend_c, 3, 8702
1, 8402, Note_on_c, 9, 44, 83
1, 8402, Note_off_c, 9, 44, 64
1, 8403, Note_on_c, 6, 88, 118
1, 8404, Note_off_c, 6, 78, 64
1, 8404, Note_on_c, 6, 79, 121
1, 8404, Note_on_c, 6, 85, 123
1, 8404, Pitch_bend_c, 3, 10062
1, 8407, Pitch_bend_c, 5, 8256
1, 8408, Pitch_bend_c, 3, 12187
1, 8411, Pitch_bend_c, 5, 9573
1, 8413, Pitch_bend_c, 3, 14822
1, 8415, Pitch_bend_c, 5, 12143
1, 8417, Pitch_bend_c, 3, 16383
1, 8419, Pitch_bend_c, 5, 13364
1, 8424, Pitch_bend_c, 5, 14263
1, 8427, Pitch_bend_c, 5, 14713
1, 8431, Pitch_bend_c, 5, 15034
1, 8435, Pitch_bend_c, 5, 15259
1, 8439, Pitch_bend_c, 5, 15355
1, 8441, Note_off_c, 0, 45, 64
1, 8442, Pitch_bend_c, 5, 15484
1, 8444, Note_off_c, 8, 57, 64
1, 8444, Note_off_c, 8, 66, 64
1, 8446, Note_off_c, 1, 28, 64
1, 8447, Pitch_bend_c, 5, 15612
1, 8448, Note_on_c, 8, 57, 127
1, 8448, Note_on_c, 8, 64, 127
1, 8450, Note_on_c, 0, 45, 89
1, 8450, Note_on_c, 0, 52, 89
1, 8450, Note_on_c, 1, 21, 120
1, 8450, Note_on_c, 9, 35, 127
1, 8450, Note_on_c, 9, 40, 127
1, 8450, Note_on_c, 9, 44, 116
1, 8450, Note_off_c, 9, 35, 64
1, 8450, Note_off_c, 9, 40, 64
1, 8450, Note_off_c, 9, 44, 64
1, 8451, Pitch_bend_c, 5, 15773
1, 8452, Note_off_c, 0, 54, 64
1, 8456, Pitch_bend_c, 5, 15837
1, 8460, Pitch_bend_c, 5, 15998
1, 8465, Pitch_bend_c, 5, 16062
1, 8468, Pitch_bend_c, 5, 16094
1, 8472, Note_off_c, 1, 21, 64
1, 8475, Pitch_bend_c, 5, 16062
1, 8487, Pitch_bend_c, 5, 15966
1, 8489, Note_off_c, 6, 88, 64
1, 8490, Pitch_bend_c, 5, 15773
1, 8492, Pitch_bend_c, 3, 15672
1, 8494, Pitch_bend_c, 5, 15291
1, 8494, Note_off_c, 6, 79, 64
1, 8494, Note_off_c, 6, 85, 64
1, 8495, Note_on_c, 6, 78, 106
1, 8495, Note_on_c, 6, 84, 99
1, 8496, Note_on_c, 6, 87, 82
1, 8496, Pitch_bend_c, 3, 14397
1, 8498, Note_on_c, 1, 21, 125
1, 8498, Note_on_c, 9, 35, 118
1, 8498, Note_on_c, 9, 44, 84
1, 8498, Note_off_c, 9, 35, 64
1, 8498, Note_off_c, 9, 44, 64
1, 8500, Pitch_bend_c, 5, 12528
1, 8500, Pitch_bend_c, 3, 12527
1, 8505, Pitch_bend_c, 3, 8192
1, 8505, Pitch_bend_c, 5, 10151
1, 8506, Note_off_c, 5, 71, 64
1, 8509, Pitch_bend_c, 5, 8192
1, 8510, Note_off_c, 3, 74, 64
1, 8534, Pitch_bend_c, 3, 9722
1, 8536, Note_off_c, 6, 84, 64
1, 8537, Note_off_c, 6, 87, 64
1, 8538, Pitch_bend_c, 3, 10062
1, 8539, Note_off_c, 0, 45, 64
1, 8540, Note_off_c, 6, 78, 64
1, 8541, Note_on_c, 6, 88, 118
1, 8542, Note_on_c, 6, 79, 126
1, 8542, Pitch_bend_c, 3, 10487
1, 8542, Note_on_c, 6, 85, 126
1, 8543, Note_on_c, 5, 71, 96
1, 8543, Note_off_c, 1, 21, 64
1, 8544, Note_on_c, 3, 74, 99
1, 8544, Note_off_c, 8, 57, 64
1, 8544, Note_on_c, 8, 57, 127
1, 8544, Note_on_c, 8, 66, 127
1, 8546, Note_on_c, 0, 45, 89
1, 8546, Note_on_c, 0, 54, 89
1, 8546, Note_on_c, 1, 26, 112
1, 8546, Note_on_c, 9, 40, 127
1, 8546, Note_on_c, 9, 44, 116
1, 8546, Pitch_bend_c, 3, 10147
1, 8546, Note_off_c, 9, 40, 64
1, 8546, Note_off_c, 9, 44, 64
1, 8548, Note_off_c, 0, 52, 64
1, 8550, Pitch_bend_c, 3, 11167
1, 8552, Note_off_c, 8, 64, 64
1, 8553, Pitch_bend_c, 5, 11051
1, 8555, Pitch_bend_c, 3, 12527
1, 8557, Pitch_bend_c, 5, 13428
1, 8559, Pitch_bend_c, 3, 14397
1, 8561, Pitch_bend_c, 5, 14135
1, 8563, Pitch_bend_c, 3, 16267
1, 8565, Pitch_bend_c, 5, 14231
1, 8567, Pitch_bend_c, 1, 9669
1, 8567, Pitch_bend_c, 3, 16383
1, 8571, Pitch_bend_c, 1, 16383
1, 8576, Pitch_bend_c, 5, 14327
1, 8580, Pitch_bend_c, 5, 14681
1, 8584, Pitch_bend_c, 5, 14938
1, 8585, Note_off_c, 0, 45, 64
1, 8588, Pitch_bend_c, 5, 15645
1, 8592, Pitch_bend_c, 1, 13075
1, 8592, Pitch_bend_c, 5, 16094
1, 8594, Note_on_c, 0, 45, 89
1, 8594, Note_on_c, 0, 52, 89
1, 8594, Note_on_c, 1, 33, 110
1, 8594, Note_on_c, 9, 44, 67
1, 8594, Note_off_c, 9, 44, 64
1, 8595, Note_off_c, 1, 26, 64
1, 8595, Pitch_bend_c, 1, 8192
1, 8597, Pitch_bend_c, 5, 16383
1, 8612, Note_off_c, 0, 54, 64
1, 8636, Note_off_c, 0, 45, 64
1, 8637, Note_off_c, 0, 52, 64
1, 8639, Note_off_c, 8, 66, 64
1, 8640, Note_off_c, 8, 57, 64
1, 8640, Note_on_c, 8, 57, 127
1, 8640, Note_on_c, 8, 64, 127
1, 8640, Control_c, 3, 1, 18
1, 8642, Note_on_c, 0, 45, 89
1, 8642, Note_on_c, 0, 52, 89
1, 8642, Note_on_c, 9, 35, 127
1, 8642, Note_on_c, 9, 40, 127
1, 8642, Note_on_c, 9, 44, 103
1, 8642, Note_off_c, 9, 35, 64
1, 8642, Note_off_c, 9, 40, 64
1, 8642, Note_off_c, 9, 44, 64
1, 8648, Control_c, 3, 1, 104
1, 8657, Control_c, 3, 1, 79
1, 8665, Control_c, 3, 1, 0
1, 8676, Pitch_bend_c, 3, 16097
1, 8680, Pitch_bend_c, 3, 15672
1, 8684, Pitch_bend_c, 3, 14992
1, 8688, Pitch_bend_c, 3, 14227
1, 8690, Note_on_c, 9, 35, 120
1, 8690, Note_on_c, 9, 44, 72
1, 8690, Note_off_c, 9, 35, 64
1, 8690, Note_off_c, 9, 44, 64
1, 8692, Pitch_bend_c, 3, 13462
1, 8695, Pitch_bend_c, 5, 16287
1, 8696, Pitch_bend_c, 3, 12697
1, 8698, Pitch_bend_c, 5, 16191
1, 8701, Pitch_bend_c, 3, 12102
1, 8702, Pitch_bend_c, 5, 16062
1, 8705, Pitch_bend_c, 3, 11592
1, 8707, Pitch_bend_c, 5, 15998
1, 8709, Pitch_bend_c, 3, 11252
1, 8713, Pitch_bend_c, 5, 15805
1, 8715, Pitch_bend_c, 3, 10997
1, 8716, Pitch_bend_c, 5, 15773
1, 8720, Pitch_bend_c, 3, 10742
1, 8720, Pitch_bend_c, 5, 15516
1, 8724, Pitch_bend_c, 3, 10062
1, 8724, Pitch_bend_c, 5, 14938
1, 8728, Pitch_bend_c, 3, 9042
1, 8729, Pitch_bend_c, 5, 13974
1, 8732, Pitch_bend_c, 3, 8192
1, 8733, Pitch_bend_c, 5, 12593
1, 8736, Note_off_c, 8, 57, 64
1, 8736, Note_on_c, 8, 57, 127
1, 8736, Note_off_c, 8, 64, 64
1, 8736, Note_on_c, 8, 66, 127
1, 8737, Pitch_bend_c, 5, 10858
1, 8738, Note_on_c, 0, 54, 89
1, 8738, Note_on_c, 1, 28, 120
1, 8738, Note_on_c, 9, 40, 127
1, 8738, Note_on_c, 9, 44, 122
1, 8738, Note_off_c, 9, 40, 64
1, 8738, Note_off_c, 9, 44, 64
1, 8741, Note_off_c, 0, 52, 64
1, 8741, Pitch_bend_c, 5, 8930
1, 8741, Note_off_c, 1, 33, 64
1, 8741, Note_off_c, 3, 74, 64
1, 8744, Pitch_bend_c, 5, 8192
1, 8754, Note_off_c, 5, 71, 64
1, 8784, Note_off_c, 8, 57, 64
1, 8784, Note_on_c, 8, 57, 127
1, 8784, Note_on_c, 8, 64, 127
1, 8786, Note_on_c, 0, 52, 89
1, 8786, Note_on_c, 9, 46, 81
1, 8786, Note_off_c, 9, 46, 64
1, 8788, Note_off_c, 0, 54, 64
1, 8791, Note_off_c, 8, 66, 64
1, 8815, Note_off_c, 0, 45, 64
1, 8816, Note_off_c, 6, 88, 64
1, 8821, Note_off_c, 6, 79, 64
1, 8823, Note_off_c, 6, 85, 64
1, 8828, Note_off_c, 1, 28, 64
1, 8830, Note_on_c, 6, 86, 127
1, 8831, Note_off_c, 0, 52, 64
1, 8831, Note_on_c, 6, 77, 127
1, 8831, Note_on_c, 6, 79, 127
1, 8831, Note_on_c, 6, 89, 127
1, 8832, Note_on_c, 3, 77, 125
1, 8832, Note_on_c, 8, 55, 127
1, 8832, Note_off_c, 8, 57, 64
1, 8832, Note_on_c, 8, 62, 127
1, 8832, Note_on_c, 8, 67, 127
1, 8832, Note_off_c, 8, 64, 64
1, 8833, Note_on_c, 6, 83, 127
1, 8834, Note_on_c, 0, 43, 89
1, 8834, Note_on_c, 0, 50, 89
1, 8834, Note_on_c, 0, 52, 89
1, 8834, Note_on_c, 1, 19, 126
1, 8834, Note_on_c, 9, 35, 123
1, 8834, Note_on_c, 9, 44, 125
1, 8834, Note_off_c, 9, 35, 64
1, 8834, Note_off_c, 9, 44, 64
1, 8839, Note_off_c, 0, 52, 64
1, 8859, Note_off_c, 3, 77, 64
1, 8867, Note_off_c, 1, 19, 64
1, 8872, Note_off_c, 0, 43, 64
1, 8873, Note_off_c, 6, 79, 64
1, 8875, Note_off_c, 6, 77, 64
1, 8875, Note_off_c, 6, 89, 64
1, 8875, Note_off_c, 8, 55, 64
1, 8876, Note_off_c, 0, 50, 64
1, 8877, Note_off_c, 8, 62, 64
1, 8877, Note_off_c, 8, 67, 64
1, 8879, Note_off_c, 6, 83, 64
1, 8880, Note_on_c, 3, 77, 80
1, 8880, Note_off_c, 6, 86, 64
1, 8886, Note_on_c, 6, 81, 72
1, 8890, Note_on_c, 6, 79, 93
1, 8890, Note_off_c, 6, 81, 64
1, 8895, Note_on_c, 6, 77, 100
1, 8896, Note_off_c, 6, 79, 64
1, 8899, Note_off_c, 6, 77, 64
1, 8900, Note_off_c, 3, 77, 64
1, 8900, Note_on_c, 6, 76, 87
1, 8903, Note_off_c, 6, 76, 64
1, 8905, Note_on_c, 6, 74, 85
1, 8906, Note_on_c, 9, 35, 102
1, 8906, Note_off_c, 9, 35, 64
1, 8908, Note_off_c, 6, 74, 64
1, 8909, Note_on_c, 6, 72, 85
1, 8912, Note_off_c, 6, 72, 64
1, 8928, Note_on_c, 3, 77, 94
1, 8930, Note_on_c, 9, 35, 127
1, 8930, Note_off_c, 9, 35, 64
1, 8948, Note_off_c, 3, 77, 64
1, 8976, Note_on_c, 3, 77, 99
1, 8995, Note_off_c, 3, 77, 64
1, 9024, Note_on_c, 3, 77, 113
1, 9026, Note_on_c, 9, 35, 125
1, 9026, Note_off_c, 9, 35, 64
1, 9042, Note_off_c, 3, 77, 64
1, 9072, Note_on_c, 3, 77, 120
1, 9089, Note_off_c, 3, 77, 64
1, 9098, Note_on_c, 9, 35, 110
1, 9098, Note_off_c, 9, 35, 64
1, 9120, Note_on_c, 3, 77, 121
1, 9122, Note_on_c, 9, 35, 125
1, 9122, Note_off_c, 9, 35, 64
1, 9167, Note_off_c, 3, 77, 64
1, 9168, Note_on_c, 3, 74, 113
1, 9182, Note_off_c, 3, 74, 64
1, 9215, Note_on_c, 3, 77, 99
1, 9217, Note_off_c, 3, 77, 64
1, 9217, Note_on_c, 3, 77, 90
1, 9218, Note_on_c, 9, 35, 125
1, 9218, Note_off_c, 9, 35, 64
1, 9233, Note_off_c, 3, 77, 64
1, 9263, Note_on_c, 3, 77, 86
1, 9290, Note_on_c, 9, 35, 102
1, 9290, Note_off_c, 9, 35, 64
1, 9313, Note_off_c, 3, 77, 64
1, 9314, Note_on_c, 9, 35, 127
1, 9314, Note_off_c, 9, 35, 64
1, 9316, Note_on_c, 3, 74, 87
1, 9328, Note_off_c, 3, 74, 64
1, 9365, Note_on_c, 3, 77, 103
1, 9410, Note_on_c, 9, 35, 127
1, 9410, Note_off_c, 9, 35, 64
1, 9452, Pitch_bend_c, 3, 8021
1, 9456, Pitch_bend_c, 3, 7341
1, 9460, Pitch_bend_c, 3, 6491
1, 9464, Pitch_bend_c, 3, 5641
1, 9468, Pitch_bend_c, 3, 5046
1, 9473, Pitch_bend_c, 3, 4451
1, 9473, Note_off_c, 3, 77, 64
1, 9477, Pitch_bend_c, 3, 3941
1, 9481, Pitch_bend_c, 3, 8192
1, 9482, Note_on_c, 9, 35, 102
1, 9482, Note_off_c, 9, 35, 64
1, 9500, Note_on_c, 3, 74, 93
1, 9506, Note_on_c, 9, 35, 127
1, 9506, Note_off_c, 9, 35, 64
1, 9519, Note_off_c, 3, 74, 64
1, 9548, Note_on_c, 3, 74, 102
1, 9600, Note_on_c, 0, 47, 89
1, 9600, Note_on_c, 0, 54, 89
1, 9600, Note_on_c, 2, 47, 126
1, 9600, Note_on_c, 2, 54, 104
1, 9600, Note_on_c, 2, 59, 105
1, 9600, Note_on_c, 3, 81, 126
1, 9600, Note_on_c, 5, 81, 101
1, 9600, Note_on_c, 6, 74, 127
1, 9600, Note_on_c, 6, 78, 127
1, 9600, Note_on_c, 6, 83, 126
1, 9600, Note_on_c, 8, 59, 121
1, 9600, Note_on_c, 8, 71, 127
1, 9600, Note_on_c, 9, 35, 127
1, 9601, Note_off_c, 9, 35, 64
1, 9601, Note_on_c, 9, 49, 122
1, 9602, Note_off_c, 3, 74, 64
1, 9602, Note_off_c, 9, 49, 64
1, 9603, Note_on_c, 1, 23, 126
1, 9605, Pitch_bend_c, 3, 4818
1, 9609, Pitch_bend_c, 3, 2473
1, 9613, Pitch_bend_c, 3, 8192
1, 9631, Note_off_c, 2, 47, 64
1, 9640, Note_off_c, 1, 23, 64
1, 9640, Note_off_c, 2, 54, 64
1, 9644, Note_off_c, 5, 81, 64
1, 9645, Note_off_c, 0, 47, 64
1, 9645, Note_off_c, 0, 54, 64
1, 9648, Note_on_c, 0, 47, 89
1, 9648, Note_on_c, 0, 54, 89
1, 9648, Note_on_c, 1, 23, 126
1, 9648, Note_on_c, 2, 47, 109
1, 9648, Note_on_c, 2, 54, 64
1, 9648, Note_on_c, 3, 78, 126
1, 9648, Note_on_c, 5, 76, 105
1, 9648, Note_on_c, 9, 44, 113
1, 9648, Note_off_c, 9, 44, 64
1, 9650, Note_off_c, 3, 81, 64
1, 9652, Pitch_bend_c, 5, 11854
1, 9656, Pitch_bend_c, 5, 16383
1, 9681, Note_off_c, 0, 47, 64
1, 9687, Note_off_c, 0, 54, 64
1, 9688, Note_off_c, 2, 59, 64
1, 9692, Note_off_c, 1, 23, 64
1, 9695, Note_off_c, 2, 47, 64
1, 9696, Note_on_c, 0, 47, 89
1, 9696, Note_on_c, 0, 54, 89
1, 9696, Note_on_c, 1, 23, 126
1, 9696, Note_on_c, 2, 47, 126
1, 9696, Note_on_c, 2, 59, 99
1, 9696, Note_on_c, 9, 40, 127
1, 9696, Note_on_c, 9, 44, 126
1, 9696, Note_off_c, 9, 40, 64
1, 9696, Note_off_c, 9, 44, 64
1, 9697, Control_c, 5, 1, 13
1, 9706, Control_c, 5, 1, 21
1, 9715, Control_c, 5, 1, 24
1, 9727, Control_c, 5, 1, 36
1, 9728, Control_c, 3, 1, 15
1, 9730, Note_off_c, 1, 23, 64
1, 9731, Note_off_c, 0, 47, 64
1, 9732, Note_off_c, 0, 54, 64
1, 9732, Note_off_c, 2, 59, 64
1, 9735, Control_c, 5, 1, 50
1, 9735, Note_off_c, 2, 47, 64
1, 9735, Control_c, 3, 1, 69
1, 9736, Note_off_c, 2, 54, 64
1, 9743, Control_c, 5, 1, 71
1, 9744, Note_on_c, 0, 47, 89
1, 9744, Note_on_c, 0, 51, 89
1, 9744, Note_on_c, 0, 54, 89
1, 9744, Note_on_c, 1, 23, 126
1, 9744, Note_on_c, 2, 47, 116
1, 9744, Note_on_c, 2, 54, 110
1, 9744, Note_on_c, 2, 59, 103
1, 9744, Note_on_c, 9, 35, 116
1, 9744, Note_on_c, 9, 44, 116
1, 9744, Control_c, 3, 1, 108
1, 9744, Note_off_c, 9, 35, 64
1, 9744, Note_off_c, 9, 44, 64
1, 9747, Note_off_c, 0, 51, 64
1, 9752, Control_c, 5, 1, 98
1, 9753, Control_c, 3, 1, 127
1, 9763, Control_c, 5, 1, 116
1, 9772, Control_c, 5, 1, 124
1, 9776, Note_off_c, 0, 47, 64
1, 9779, Note_off_c, 1, 23, 64
1, 9779, Note_off_c, 0, 54, 64
1, 9785, Control_c, 5, 1, 126
1, 9786, Note_off_c, 2, 47, 64
1, 9789, Note_off_c, 2, 54, 64
1, 9792, Note_on_c, 0, 47, 89
1, 9792, Note_on_c, 0, 54, 89
1, 9792, Note_on_c, 1, 23, 126
1, 9792, Note_on_c, 2, 47, 126
1, 9792, Note_on_c, 2, 54, 51
1, 9792, Note_on_c, 9, 35, 127
1, 9792, Note_on_c, 9, 44, 126
1, 9792, Note_off_c, 9, 35, 64
1, 9792, Note_off_c, 9, 44, 64
1, 9795, Control_c, 6, 64, 127
1, 9795, Control_c, 8, 64, 127
1, 9798, Control_c, 5, 1, 124
1, 9807, Control_c, 5, 1, 125
1, 9820, Control_c, 5, 1, 112
1, 9821, Note_off_c, 0, 47, 64
1, 9827, Note_off_c, 0, 54, 64
1, 9829, Note_off_c, 1, 23, 64
1, 9829, Control_c, 5, 1, 76
1, 9832, Note_off_c, 2, 54, 64
1, 9833, Note_off_c, 2, 59, 64
1, 9834, Note_off_c, 2, 47, 64
1, 9837, Control_c, 5, 1, 64
1, 9840, Note_on_c, 0, 47, 89
1, 9840, Note_on_c, 0, 54, 89
1, 9840, Note_on_c, 1, 23, 126
1, 9840, Note_on_c, 2, 47, 125
1, 9840, Note_on_c, 2, 54, 117
1, 9840, Note_on_c, 2, 59, 100
1, 9840, Note_on_c, 9, 44, 126
1, 9840, Note_off_c, 9, 44, 64
1, 9845, Control_c, 5, 1, 62
1, 9847, Control_c, 3, 1, 116
1, 9852, Control_c, 5, 1, 44
1, 9859, Control_c, 3, 1, 126
1, 9861, Control_c, 5, 1, 15
1, 9868, Control_c, 3, 1, 127
1, 9869, Control_c, 5, 1, 0
1, 9870, Note_off_c, 0, 47, 64
1, 9875, Note_off_c, 0, 54, 64
1, 9876, Note_off_c, 1, 23, 64
1, 9877, Note_off_c, 3, 78, 64
1, 9877, Note_off_c, 8, 71, 64
1, 9878, Note_off_c, 2, 59, 64
1, 9879, Note_off_c, 2, 54, 64
1, 9880, Note_off_c, 2, 47, 64
1, 9881, Control_c, 3, 1, 80
1, 9882, Note_off_c, 5, 76, 64
1, 9883, Pitch_bend_c, 3, 7742
1, 9886, Pitch_bend_c, 5, 10376
1, 9887, Pitch_bend_c, 3, 0
1, 9888, Note_on_c, 0, 47, 89
1, 9888, Note_on_c, 0, 51, 89
1, 9888, Note_on_c, 0, 54, 89
1, 9888, Note_on_c, 1, 23, 126
1, 9888, Note_on_c, 2, 47, 127
1, 9888, Note_on_c, 2, 54, 117
1, 9888, Note_on_c, 2, 59, 111
1, 9888, Note_on_c, 3, 78, 126
1, 9888, Note_on_c, 5, 76, 104
1, 9888, Note_on_c, 6, 81, 105
1, 9888, Note_on_c, 8, 57, 121
1, 9888, Note_on_c, 8, 69, 127
1, 9888, Note_on_c, 9, 40, 127
1, 9888, Note_on_c, 9, 44, 126
1, 9888, Note_off_c, 9, 40, 64
1, 9888, Note_off_c, 9, 44, 64
1, 9889, Control_c, 3, 1, 0
1, 9890, Pitch_bend_c, 5, 8192
1, 9891, Note_off_c, 0, 51, 64
1, 9894, Pitch_bend_c, 3, 8192
1, 9896, Pitch_bend_c, 5, 16383
1, 9897, Note_off_c, 8, 59, 64
1, 9899, Control_c, 6, 64, 0
1, 9899, Control_c, 8, 64, 0
1, 9900, Note_off_c, 6, 78, 64
1, 9917, Control_c, 6, 64, 127
1, 9917, Control_c, 8, 64, 127
1, 9930, Note_off_c, 2, 47, 64
1, 9930, Note_off_c, 1, 23, 64
1, 9931, Control_c, 5, 1, 2
1, 9936, Note_on_c, 0, 45, 89
1, 9936, Note_on_c, 1, 21, 126
1, 9936, Note_on_c, 2, 45, 126
1, 9936, Note_on_c, 2, 47, 109
1, 9936, Note_on_c, 2, 52, 113
1, 9936, Note_on_c, 2, 57, 109
1, 9936, Note_on_c, 9, 35, 127
1, 9936, Note_on_c, 9, 44, 116
1, 9936, Note_off_c, 9, 35, 64
1, 9936, Note_off_c, 9, 44, 64
1, 9939, Control_c, 5, 1, 14
1, 9941, Note_off_c, 2, 54, 64
1, 9944, Note_off_c, 2, 47, 64
1, 9945, Note_off_c, 2, 59, 64
1, 9947, Control_c, 5, 1, 18
1, 9955, Control_c, 5, 1, 12
1, 9962, Control_c, 5, 1, 0
1, 9964, Note_off_c, 0, 47, 64
1, 9972, Note_off_c, 8, 69, 64
1, 9975, Note_off_c, 2, 52, 64
1, 9976, Note_off_c, 1, 21, 64
1, 9978, Note_off_c, 0, 45, 64
1, 9978, Note_off_c, 0, 54, 64
1, 9978, Note_off_c, 2, 45, 64
1, 9979, Note_off_c, 2, 57, 64
1, 9983, Pitch_bend_c, 5, 13685
1, 9984, Note_on_c, 0, 43, 89
1, 9984, Note_on_c, 0, 47, 89
1, 9984, Note_on_c, 0, 50, 89
1, 9984, Note_on_c, 0, 55, 89
1, 9984, Note_on_c, 1, 19, 126
1, 9984, Note_on_c, 2, 43, 127
1, 9984, Note_on_c, 2, 50, 111
1, 9984, Note_on_c, 2, 55, 113
1, 9984, Note_on_c, 3, 76, 126
1, 9984, Note_on_c, 6, 79, 113
1, 9984, Note_on_c, 8, 55, 113
1, 9984, Note_on_c, 8, 65, 116
1, 9984, Note_on_c, 8, 67, 127
1, 9984, Note_on_c, 9, 35, 127
1, 9984, Note_on_c, 9, 44, 126
1, 9984, Pitch_bend_c, 3, 0
1, 9984, Note_off_c, 8, 57, 64
1, 9984, Note_off_c, 9, 35, 64
1, 9984, Note_off_c, 9, 44, 64
1, 9985, Note_off_c, 3, 78, 64
1, 9986, Note_off_c, 8, 65, 64
1, 9987, Pitch_bend_c, 5, 8192
1, 9991, Note_off_c, 6, 81, 64
1, 9992, Pitch_bend_c, 3, 8192
1, 9993, Control_c, 6, 64, 0
1, 9993, Control_c, 8, 64, 0
1, 10008, Note_on_c, 3, 74, 95
1, 10008, Note_on_c, 5, 74, 101
1, 10009, Note_off_c, 3, 76, 64
1, 10013, Note_off_c, 5, 76, 64
1, 10015, Note_off_c, 0, 47, 64
1, 10019, Note_off_c, 0, 50, 64
1, 10020, Note_off_c, 0, 55, 64
1, 10024, Note_off_c, 0, 43, 64
1, 10025, Note_off_c, 1, 19, 64
1, 10025, Note_off_c, 2, 43, 64
1, 10028, Note_off_c, 2, 55, 64
1, 10029, Note_off_c, 5, 74, 64
1, 10032, Note_on_c, 0, 43, 89
1, 10032, Note_on_c, 0, 47, 89
1, 10032, Note_on_c, 0, 50, 89
1, 10032, Note_on_c, 0, 55, 89
1, 10032, Note_on_c, 1, 19, 126
1, 10032, Note_on_c, 2, 43, 116
1, 10032, Note_on_c, 2, 55, 121
1, 10032, Note_on_c, 3, 71, 126
1, 10032, Note_on_c, 5, 71, 87
1, 10032, Note_on_c, 9, 35, 107
1, 10032, Note_on_c, 9, 44, 116
1, 10032, Note_off_c, 9, 35, 64
1, 10032, Note_off_c, 9, 44, 64
1, 10034, Note_off_c, 3, 74, 64
1, 10058, Note_off_c, 0, 47, 64
1, 10058, Control_c, 5, 1, 1
1, 10061, Note_off_c, 0, 50, 64
1, 10063, Note_off_c, 1, 19, 64
1, 10065, Note_off_c, 0, 55, 64
1, 10066, Note_off_c, 0, 43, 64
1, 10067, Control_c, 5, 1, 32
1, 10072, Note_off_c, 2, 50, 64
1, 10073, Control_c, 3, 1, 25
1, 10074, Note_off_c, 2, 43, 64
1, 10075, Note_off_c, 2, 55, 64
1, 10076, Control_c, 5, 1, 102
1, 10076, Control_c, 6, 64, 127
1, 10076, Control_c, 8, 64, 127
1, 10080, Note_on_c, 0, 43, 89
1, 10080, Note_on_c, 0, 47, 89
1, 10080, Note_on_c, 0, 50, 89
1, 10080, Note_on_c, 0, 55, 89
1, 10080, Note_on_c, 1, 19, 126
1, 10080, Note_on_c, 2, 43, 127
1, 10080, Note_on_c, 2, 50, 116
1, 10080, Note_on_c, 2, 55, 121
1, 10080, Note_on_c, 9, 40, 127
1, 10080, Note_on_c, 9, 44, 126
1, 10080, Note_off_c, 9, 40, 64
1, 10080, Note_off_c, 9, 44, 64
1, 10081, Control_c, 3, 1, 91
1, 10085, Control_c, 5, 1, 127
1, 10090, Control_c, 3, 1, 127
1, 10099, Note_off_c, 8, 67, 64
1, 10104, Note_off_c, 0, 47, 64
1, 10108, Note_off_c, 0, 50, 64
1, 10109, Note_off_c, 2, 50, 64
1, 10111, Note_off_c, 0, 55, 64
1, 10113, Note_off_c, 1, 19, 64
1, 10113, Note_off_c, 6, 79, 64
1, 10114, Note_off_c, 6, 74, 64
1, 10119, Note_off_c, 0, 43, 64
1, 10121, Note_off_c, 2, 43, 64
1, 10123, Note_off_c, 2, 55, 64
1, 10124, Note_off_c, 6, 83, 64
1, 10128, Note_on_c, 0, 43, 89
1, 10128, Note_on_c, 0, 47, 89
1, 10128, Note_on_c, 0, 50, 89
1, 10128, Note_on_c, 0, 55, 89
1, 10128, Note_on_c, 1, 19, 126
1, 10128, Note_on_c, 2, 43, 113
1, 10128, Note_on_c, 2, 45, 125
1, 10128, Note_on_c, 2, 50, 123
1, 10128, Note_on_c, 2, 55, 121
1, 10128, Note_on_c, 9, 35, 127
1, 10128, Note_on_c, 9, 44, 126
1, 10128, Note_off_c, 9, 35, 64
1, 10128, Note_off_c, 9, 44, 64
1, 10130, Note_off_c, 8, 55, 64
1, 10143, Note_off_c, 2, 45, 64
1, 10159, Note_off_c, 0, 55, 64
1, 10166, Note_off_c, 0, 47, 64
1, 10167, Note_off_c, 2, 50, 64
1, 10168, Note_off_c, 0, 50, 64
1, 10169, Note_off_c, 3, 71, 64
1, 10170, Note_off_c, 2, 43, 64
1, 10170, Note_off_c, 2, 55, 64
1, 10173, Note_off_c, 1, 19, 64
1, 10175, Control_c, 3, 1, 0
1, 10175, Note_on_c, 9, 43, 116
1, 10176, Note_off_c, 0, 43, 64
1, 10176, Note_on_c, 0, 45, 89
1, 10176, Note_on_c, 0, 52, 89
1, 10176, Note_on_c, 0, 57, 89
1, 10176, Note_on_c, 1, 21, 126
1, 10176, Note_on_c, 2, 45, 127
1, 10176, Note_on_c, 2, 52, 127
1, 10176, Note_on_c, 2, 57, 127
1, 10176, Note_on_c, 6, 81, 127
1, 10176, Note_on_c, 8, 45, 127
1, 10176, Note_on_c, 8, 57, 127
1, 10176, Note_on_c, 9, 35, 127
1, 10176, Note_off_c, 9, 43, 64
1, 10176, Control_c, 5, 1, 0
1, 10176, Note_off_c, 9, 35, 64
1, 10177, Note_off_c, 5, 71, 64
1, 10181, Pitch_bend_c, 5, 8192
1, 10186, Control_c, 6, 64, 0
1, 10186, Control_c, 8, 64, 0
1, 10212, Note_off_c, 0, 52, 64
1, 10213, Note_off_c, 0, 45, 64
1, 10215, Note_off_c, 2, 45, 64
1, 10216, Note_off_c, 8, 57, 64
1, 10216, Note_off_c, 1, 21, 64
1, 10216, Note_off_c, 6, 81, 64
1, 10217, Note_off_c, 8, 45, 64
1, 10217, Note_off_c, 0, 57, 64
1, 10220, Note_off_c, 2, 52, 64
1, 10221, Note_off_c, 2, 57, 64
1, 10272, Note_on_c, 3, 71, 126
1, 10311, Note_off_c, 3, 71, 64
1, 10320, Note_on_c, 3, 74, 126
1, 10337, Note_off_c, 3, 74, 64
1, 10344, Note_on_c, 3, 74, 126
1, 10366, Note_off_c, 3, 74, 64
1, 10368, Note_on_c, 1, 26, 125
1, 10368, Note_on_c, 9, 35, 127
1, 10368, Note_on_c, 9, 49, 126
1, 10368, Note_off_c, 9, 35, 64
1, 10368, Note_off_c, 9, 49, 64
1, 10392, Note_off_c, 1, 26, 64
1, 10416, Note_on_c, 1, 26, 126
1, 10416, Note_on_c, 9, 35, 127
1, 10416, Note_off_c, 9, 35, 64
1, 10464, Note_on_c, 0, 55, 89
1, 10464, Note_on_c, 1, 31, 126
1, 10464, Note_on_c, 2, 55, 110
1, 10464, Note_on_c, 9, 46, 126
1, 10464, Note_off_c, 1, 26, 64
1, 10464, Note_off_c, 9, 46, 64
1, 10480, Note_on_c, 9, 46, 122
1, 10480, Note_off_c, 9, 46, 64
1, 10484, Pitch_bend_c, 0, 8192
1, 10484, Pitch_bend_c, 2, 8192
1, 10488, Pitch_bend_c, 0, 10997
1, 10488, Pitch_bend_c, 2, 10997
1, 10490, Pitch_bend_c, 1, 11565
1, 10492, Pitch_bend_c, 0, 13122
1, 10492, Pitch_bend_c, 2, 13122
1, 10494, Pitch_bend_c, 1, 16383
1, 10496, Pitch_bend_c, 0, 14992
1, 10496, Pitch_bend_c, 2, 14992
1, 10496, Note_on_c, 9, 46, 124
1, 10496, Note_off_c, 9, 46, 64
1, 10500, Pitch_bend_c, 0, 16383
1, 10500, Pitch_bend_c, 2, 16383
1, 10512, Note_on_c, 0, 60, 89
1, 10512, Note_on_c, 0, 65, 89
1, 10512, Note_off_c, 1, 31, 64
1, 10512, Note_on_c, 1, 41, 126
1, 10512, Note_on_c, 2, 60, 97
1, 10512, Note_on_c, 2, 65, 91
1, 10513, Pitch_bend_c, 0, 8192
1, 10513, Pitch_bend_c, 2, 8192
1, 10513, Pitch_bend_c, 1, 8303
1, 10518, Note_off_c, 0, 55, 64
1, 10518, Note_off_c, 2, 55, 64
1, 10518, Pitch_bend_c, 1, 8192
1, 10560, Note_on_c, 9, 48, 108
1, 10560, Note_off_c, 9, 48, 64
1, 10575, Note_on_c, 9, 48, 111
1, 10576, Note_off_c, 9, 48, 64
1, 10591, Note_on_c, 9, 48, 112
1, 10592, Note_off_c, 9, 48, 64
1, 10603, Control_c, 0, 1, 23
1, 10603, Control_c, 2, 1, 23
1, 10607, Note_on_c, 9, 48, 114
1, 10608, Note_off_c, 9, 48, 64
1, 10611, Control_c, 0, 1, 53
1, 10611, Control_c, 2, 1, 53
1, 10620, Control_c, 0, 1, 107
1, 10620, Control_c, 2, 1, 107
1, 10623, Note_on_c, 9, 48, 116
1, 10624, Note_off_c, 9, 48, 64
1, 10628, Control_c, 0, 1, 127
1, 10628, Control_c, 2, 1, 127
1, 10640, Note_on_c, 9, 48, 116
1, 10640, Note_off_c, 9, 48, 64
1, 10655, Note_on_c, 9, 45, 116
1, 10656, Note_on_c, 1, 38, 126
1, 10656, Note_off_c, 9, 45, 64
1, 10663, Note_off_c, 1, 41, 64
1, 10671, Note_on_c, 9, 45, 116
1, 10672, Note_off_c, 9, 45, 64
1, 10687, Note_on_c, 9, 45, 116
1, 10688, Note_off_c, 9, 45, 64
1, 10698, Control_c, 0, 1, 111
1, 10698, Control_c, 2, 1, 111
1, 10704, Note_on_c, 9, 43, 116
1, 10704, Note_off_c, 9, 43, 64
1, 10706, Control_c, 0, 1, 107
1, 10706, Control_c, 2, 1, 107
1, 10715, Control_c, 0, 1, 127
1, 10715, Control_c, 2, 1, 127
1, 10720, Note_on_c, 9, 43, 116
1, 10720, Note_off_c, 9, 43, 64
1, 10725, Control_c, 0, 1, 95
1, 10725, Control_c, 2, 1, 95
1, 10733, Control_c, 0, 1, 127
1, 10733, Control_c, 2, 1, 127
1, 10736, Note_on_c, 9, 43, 116
1, 10736, Note_off_c, 9, 43, 64
1, 10740, Note_off_c, 0, 60, 64
1, 10740, Note_off_c, 2, 60, 64
1, 10742, Note_off_c, 0, 65, 64
1, 10742, Note_off_c, 2, 65, 64
1, 10743, Control_c, 0, 1, 107
1, 10743, Control_c, 2, 1, 107
1, 10745, Note_off_c, 1, 38, 64
1, 10752, Control_c, 0, 1, 0
1, 10752, Note_on_c, 1, 26, 126
1, 10752, Control_c, 2, 1, 0
1, 10752, Note_on_c, 9, 35, 127
1, 10752, Note_off_c, 9, 35, 64
1, 10768, Note_off_c, 1, 26, 64
1, 10800, Note_on_c, 1, 26, 126
1, 10800, Note_on_c, 9, 35, 127
1, 10800, Note_off_c, 9, 35, 64
1, 10839, Note_off_c, 1, 26, 64
1, 10848, Note_on_c, 0, 55, 89
1, 10848, Note_on_c, 1, 31, 126
1, 10848, Note_on_c, 2, 55, 100
1, 10848, Note_on_c, 9, 46, 126
1, 10848, Note_off_c, 9, 46, 64
1, 10864, Note_on_c, 9, 46, 126
1, 10864, Note_off_c, 9, 46, 64
1, 10876, Pitch_bend_c, 0, 10657
1, 10876, Pitch_bend_c, 2, 10657
1, 10877, Pitch_bend_c, 1, 16383
1, 10880, Pitch_bend_c, 0, 13972
1, 10880, Pitch_bend_c, 2, 13972
1, 10880, Note_on_c, 9, 46, 125
1, 10880, Note_off_c, 9, 46, 64
1, 10884, Pitch_bend_c, 0, 16383
1, 10884, Pitch_bend_c, 2, 16383
1, 10892, Pitch_bend_c, 0, 8192
1, 10892, Pitch_bend_c, 2, 8192
1, 10894, Pitch_bend_c, 1, 8192
1, 10896, Note_on_c, 0, 60, 89
1, 10896, Note_on_c, 0, 65, 89
1, 10896, Note_on_c, 1, 41, 126
1, 10896, Note_on_c, 2, 60, 94
1, 10896, Note_on_c, 2, 65, 94
1, 10897, Note_off_c, 1, 31, 64
1, 10901, Note_off_c, 0, 55, 64
1, 10901, Note_off_c, 2, 55, 64
1, 10943, Note_on_c, 9, 48, 116
1, 10944, Note_off_c, 9, 48, 64
1, 10960, Note_on_c, 9, 48, 116
1, 10960, Note_off_c, 9, 48, 64
1, 10976, Note_on_c, 9, 48, 116
1, 10976, Note_off_c, 9, 48, 64
1, 10992, Note_on_c, 9, 48, 115
1, 10992, Note_off_c, 9, 48, 64
1, 11007, Note_on_c, 9, 48, 114
1, 11008, Note_off_c, 9, 48, 64
1, 11018, Control_c, 0, 1, 27
1, 11018, Control_c, 2, 1, 27
1, 11024, Note_on_c, 9, 48, 113
1, 11024, Note_off_c, 9, 48, 64
1, 11026, Control_c, 0, 1, 48
1, 11026, Control_c, 2, 1, 48
1, 11034, Control_c, 0, 1, 70
1, 11034, Control_c, 2, 1, 70
1, 11040, Note_on_c, 1, 38, 126
1, 11040, Note_off_c, 1, 41, 64
1, 11040, Note_on_c, 9, 45, 112
1, 11040, Note_off_c, 9, 45, 64
1, 11043, Control_c, 0, 1, 101
1, 11043, Control_c, 2, 1, 101
1, 11056, Note_on_c, 9, 45, 111
1, 11056, Note_off_c, 9, 45, 64
1, 11059, Control_c, 0, 1, 111
1, 11059, Control_c, 2, 1, 111
1, 11072, Note_on_c, 9, 45, 110
1, 11072, Note_off_c, 9, 45, 64
1, 11078, Control_c, 0, 1, 118
1, 11078, Control_c, 2, 1, 118
1, 11088, Note_on_c, 9, 43, 109
1, 11088, Note_off_c, 9, 43, 64
1, 11092, Control_c, 0, 1, 114
1, 11092, Control_c, 2, 1, 114
1, 11104, Note_on_c, 9, 43, 108
1, 11104, Control_c, 0, 1, 125
1, 11104, Control_c, 2, 1, 125
1, 11104, Note_off_c, 9, 43, 64
1, 11118, Note_off_c, 0, 65, 64
1, 11118, Note_off_c, 2, 65, 64
1, 11119, Control_c, 0, 1, 107
1, 11119, Control_c, 2, 1, 107
1, 11119, Note_on_c, 9, 43, 96
1, 11120, Note_off_c, 9, 43, 64
1, 11122, Note_off_c, 0, 60, 64
1, 11122, Note_off_c, 2, 60, 64
1, 11127, Control_c, 0, 1, 95
1, 11127, Control_c, 2, 1, 95
1, 11128, Note_off_c, 1, 38, 64
1, 11135, Control_c, 0, 1, 0
1, 11135, Control_c, 2, 1, 0
1, 11136, Note_on_c, 1, 26, 126
1, 11136, Note_on_c, 9, 35, 127
1, 11136, Note_off_c, 9, 35, 64
1, 11152, Note_off_c, 1, 26, 64
1, 11184, Note_on_c, 1, 26, 126
1, 11184, Note_on_c, 9, 35, 127
1, 11184, Note_off_c, 9, 35, 64
1, 11223, Note_off_c, 1, 26, 64
1, 11232, Note_on_c, 0, 55, 89
1, 11232, Note_on_c, 1, 31, 126
1, 11232, Note_on_c, 2, 55, 100
1, 11232, Note_on_c, 9, 46, 126
1, 11232, Note_off_c, 9, 46, 64
1, 11248, Note_on_c, 9, 46, 119
1, 11248, Note_off_c, 9, 46, 64
1, 11261, Pitch_bend_c, 0, 10572
1, 11261, Pitch_bend_c, 1, 13910
1, 11261, Pitch_bend_c, 2, 10572
1, 11264, Note_on_c, 9, 46, 125
1, 11264, Note_off_c, 9, 46, 64
1, 11265, Pitch_bend_c, 1, 16383
1, 11265, Pitch_bend_c, 0, 13547
1, 11265, Pitch_bend_c, 2, 13547
1, 11269, Pitch_bend_c, 0, 16383
1, 11269, Pitch_bend_c, 2, 16383
1, 11274, Pitch_bend_c, 0, 8192
1, 11274, Pitch_bend_c, 2, 8192
1, 11275, Pitch_bend_c, 1, 14327
1, 11279, Pitch_bend_c, 1, 8192
1, 11279, Note_off_c, 1, 31, 64
1, 11280, Note_on_c, 0, 60, 89
1, 11280, Note_on_c, 0, 65, 89
1, 11280, Note_on_c, 1, 41, 126
1, 11280, Note_on_c, 2, 60, 91
1, 11280, Note_on_c, 2, 65, 94
1, 11287, Note_off_c, 0, 55, 64
1, 11287, Note_off_c, 2, 55, 64
1, 11328, Note_on_c, 9, 48, 105
1, 11328, Note_off_c, 9, 48, 64
1, 11343, Note_on_c, 9, 48, 111
1, 11344, Note_off_c, 9, 48, 64
1, 11359, Note_on_c, 9, 48, 111
1, 11360, Note_off_c, 9, 48, 64
1, 11375, Note_on_c, 9, 48, 112
1, 11376, Note_off_c, 9, 48, 64
1, 11391, Note_on_c, 9, 48, 114
1, 11392, Note_off_c, 9, 48, 64
1, 11397, Control_c, 0, 1, 33
1, 11397, Control_c, 2, 1, 33
1, 11406, Control_c, 0, 1, 75
1, 11406, Control_c, 2, 1, 75
1, 11408, Note_on_c, 9, 45, 116
1, 11408, Note_off_c, 9, 45, 64
1, 11414, Control_c, 0, 1, 98
1, 11414, Control_c, 2, 1, 98
1, 11423, Note_on_c, 9, 45, 116
1, 11424, Note_on_c, 1, 38, 126
1, 11424, Note_off_c, 9, 45, 64
1, 11424, Control_c, 0, 1, 114
1, 11424, Control_c, 2, 1, 114
1, 11428, Note_off_c, 1, 41, 64
1, 11434, Control_c, 0, 1, 127
1, 11434, Control_c, 2, 1, 127
1, 11439, Note_on_c, 9, 45, 116
1, 11440, Note_off_c, 9, 45, 64
1, 11456, Note_on_c, 9, 45, 116
1, 11456, Note_off_c, 9, 45, 64
1, 11471, Note_on_c, 9, 43, 116
1, 11472, Note_off_c, 9, 43, 64
1, 11488, Note_on_c, 9, 43, 116
1, 11488, Note_off_c, 9, 43, 64
1, 11504, Note_on_c, 9, 43, 116
1, 11504, Note_off_c, 9, 43, 64
1, 11510, Note_off_c, 0, 60, 64
1, 11510, Note_off_c, 2, 60, 64
1, 11512, Note_off_c, 0, 65, 64
1, 11512, Note_off_c, 2, 65, 64
1, 11513, Note_off_c, 1, 38, 64
1, 11515, Control_c, 0, 1, 104
1, 11515, Control_c, 2, 1, 104
1, 11520, Note_on_c, 1, 26, 126
1, 11520, Note_on_c, 9, 35, 127
1, 11520, Note_off_c, 9, 35, 64
1, 11523, Control_c, 0, 1, 0
1, 11523, Control_c, 2, 1, 0
1, 11535, Note_off_c, 1, 26, 64
1, 11568, Note_on_c, 1, 26, 126
1, 11568, Note_on_c, 9, 35, 127
1, 11568, Note_off_c, 9, 35, 64
1, 11610, Note_off_c, 1, 26, 64
1, 11616, Note_on_c, 0, 55, 89
1, 11616, Note_on_c, 1, 31, 126
1, 11616, Note_on_c, 2, 55, 107
1, 11616, Note_on_c, 9, 46, 126
1, 11616, Note_off_c, 9, 46, 64
1, 11632, Note_on_c, 9, 46, 125
1, 11632, Note_off_c, 9, 46, 64
1, 11637, Pitch_bend_c, 1, 9541
1, 11641, Pitch_bend_c, 1, 16383
1, 11643, Pitch_bend_c, 0, 10572
1, 11643, Pitch_bend_c, 2, 10572
1, 11647, Pitch_bend_c, 0, 13717
1, 11647, Pitch_bend_c, 2, 13717
1, 11648, Note_on_c, 9, 46, 122
1, 11648, Note_off_c, 9, 46, 64
1, 11651, Pitch_bend_c, 0, 16383
1, 11651, Pitch_bend_c, 2, 16383
1, 11657, Pitch_bend_c, 1, 15773
1, 11659, Pitch_bend_c, 0, 8192
1, 11659, Pitch_bend_c, 2, 8192
1, 11662, Pitch_bend_c, 1, 8192
1, 11664, Note_on_c, 0, 60, 89
1, 11664, Note_on_c, 0, 65, 89
1, 11664, Note_on_c, 1, 41, 126
1, 11664, Note_on_c, 2, 60, 96
1, 11664, Note_on_c, 2, 65, 97
1, 11665, Note_off_c, 1, 31, 64
1, 11671, Note_off_c, 0, 55, 64
1, 11671, Note_off_c, 2, 55, 64
1, 11712, Note_on_c, 9, 48, 116
1, 11712, Note_off_c, 9, 48, 64
1, 11727, Note_on_c, 9, 48, 116
1, 11728, Note_off_c, 9, 48, 64
1, 11743, Note_on_c, 9, 48, 116
1, 11744, Note_off_c, 9, 48, 64
1, 11752, Control_c, 0, 1, 19
1, 11752, Control_c, 2, 1, 19
1, 11760, Note_on_c, 9, 48, 116
1, 11760, Control_c, 0, 1, 39
1, 11760, Control_c, 2, 1, 39
1, 11760, Note_off_c, 9, 48, 64
1, 11769, Control_c, 0, 1, 64
1, 11769, Control_c, 2, 1, 64
1, 11775, Note_on_c, 9, 48, 116
1, 11776, Note_off_c, 9, 48, 64
1, 11777, Control_c, 0, 1, 111
1, 11777, Control_c, 2, 1, 111
1, 11785, Control_c, 0, 1, 121
1, 11785, Control_c, 2, 1, 121
1, 11792, Note_on_c, 9, 48, 116
1, 11792, Note_off_c, 9, 48, 64
1, 11806, Control_c, 0, 1, 127
1, 11806, Control_c, 2, 1, 127
1, 11807, Note_on_c, 9, 45, 116
1, 11808, Note_on_c, 1, 38, 126
1, 11808, Note_off_c, 9, 45, 64
1, 11813, Note_off_c, 1, 41, 64
1, 11824, Note_on_c, 9, 45, 116
1, 11824, Note_off_c, 9, 45, 64
1, 11839, Note_on_c, 9, 45, 116
1, 11840, Note_off_c, 9, 45, 64
1, 11856, Note_on_c, 9, 43, 116
1, 11856, Note_off_c, 9, 43, 64
1, 11871, Note_on_c, 9, 43, 114
1, 11872, Note_off_c, 9, 43, 64
1, 11874, Control_c, 0, 1, 125
1, 11874, Control_c, 2, 1, 125
1, 11878, Note_off_c, 0, 60, 64
1, 11878, Note_off_c, 1, 38, 64
1, 11878, Note_off_c, 2, 60, 64
1, 11881, Note_off_c, 0, 65, 64
1, 11881, Note_off_c, 2, 65, 64
1, 11882, Control_c, 0, 1, 82
1, 11882, Control_c, 2, 1, 82
1, 11888, Note_on_c, 9, 43, 111
1, 11888, Note_off_c, 9, 43, 64
1, 11890, Control_c, 0, 1, 0
1, 11890, Control_c, 2, 1, 0
1, 11904, Note_on_c, 8, 50, 127
1, 11904, Note_on_c, 8, 62, 127
1, 11906, Note_on_c, 0, 50, 89
1, 11906, Note_on_c, 0, 57, 89
1, 11906, Note_on_c, 1, 26, 125
1, 11906, Note_on_c, 9, 35, 120
1, 11906, Note_on_c, 9, 40, 120
1, 11906, Note_on_c, 9, 49, 110
1, 11906, Note_off_c, 9, 35, 64
1, 11906, Note_off_c, 9, 40, 64
1, 11906, Note_off_c, 9, 49, 64
1, 11930, Note_off_c, 1, 26, 64
1, 11952, Note_on_c, 3, 77, 100
1, 11952, Note_on_c, 6, 72, 127
1, 11952, Note_on_c, 6, 77, 126
1, 11954, Note_on_c, 1, 26, 126
1, 11954, Note_on_c, 9, 35, 109
1, 11954, Note_on_c, 9, 44, 75
1, 11954, Note_off_c, 9, 35, 64
1, 11954, Note_off_c, 9, 44, 64
1, 11955, Note_on_c, 5, 72, 96
1, 11981, Control_c, 5, 1, 1
1, 11989, Control_c, 5, 1, 17
1, 11995, Note_off_c, 0, 50, 64
1, 11998, Control_c, 5, 1, 59
1, 12000, Note_off_c, 8, 50, 64
1, 12000, Note_on_c, 8, 50, 107
1, 12000, Note_on_c, 8, 59, 127
1, 12000, Note_off_c, 8, 62, 64
1, 12002, Note_on_c, 1, 31, 126
1, 12002, Note_on_c, 9, 40, 127
1, 12002, Note_on_c, 9, 44, 103
1, 12002, Note_off_c, 1, 26, 64
1, 12002, Note_off_c, 9, 40, 64
1, 12002, Note_off_c, 9, 44, 64
1, 12004, Note_off_c, 0, 57, 64
1, 12004, Note_on_c, 0, 59, 89
1, 12005, Note_on_c, 0, 50, 89
1, 12005, Control_c, 3, 1, 30
1, 12007, Control_c, 5, 1, 111
1, 12014, Control_c, 3, 1, 111
1, 12016, Control_c, 5, 1, 127
1, 12022, Control_c, 3, 1, 127
1, 12028, Pitch_bend_c, 1, 11565
1, 12032, Pitch_bend_c, 1, 16383
1, 12035, Note_off_c, 6, 72, 64
1, 12036, Control_c, 5, 1, 80
1, 12041, Note_off_c, 6, 77, 64
1, 12044, Control_c, 5, 1, 0
1, 12048, Note_on_c, 3, 74, 90
1, 12048, Note_on_c, 6, 74, 125
1, 12048, Note_on_c, 8, 69, 123
1, 12049, Control_c, 3, 1, 0
1, 12050, Note_off_c, 1, 31, 64
1, 12050, Note_on_c, 1, 41, 126
1, 12050, Note_on_c, 9, 44, 67
1, 12050, Note_off_c, 9, 44, 64
1, 12051, Note_off_c, 3, 77, 64
1, 12051, Pitch_bend_c, 1, 8303
1, 12052, Note_on_c, 5, 69, 85
1, 12054, Note_off_c, 5, 72, 64
1, 12056, Pitch_bend_c, 1, 8192
1, 12062, Note_off_c, 3, 74, 64
1, 12062, Note_off_c, 5, 69, 64
1, 12071, Note_off_c, 8, 69, 64
1, 12072, Note_off_c, 6, 74, 64
1, 12092, Note_off_c, 0, 50, 64
1, 12096, Note_on_c, 3, 77, 92
1, 12096, Note_on_c, 6, 72, 127
1, 12096, Note_on_c, 6, 77, 126
1, 12096, Note_off_c, 8, 50, 64
1, 12096, Note_on_c, 8, 50, 109
1, 12096, Note_on_c, 8, 57, 113
1, 12096, Note_off_c, 8, 59, 64
1, 12098, Note_on_c, 9, 35, 120
1, 12098, Note_on_c, 9, 40, 120
1, 12098, Note_on_c, 9, 44, 99
1, 12098, Note_off_c, 9, 35, 64
1, 12098, Note_off_c, 9, 40, 64
1, 12098, Note_off_c, 9, 44, 64
1, 12099, Note_on_c, 0, 57, 89
1, 12099, Note_on_c, 5, 72, 83
1, 12100, Note_on_c, 0, 50, 89
1, 12102, Note_off_c, 0, 59, 64
1, 12135, Note_off_c, 6, 72, 64
1, 12144, Note_on_c, 3, 74, 83
1, 12144, Note_off_c, 3, 77, 64
1, 12144, Note_on_c, 6, 74, 111
1, 12144, Note_on_c, 8, 69, 107
1, 12145, Note_on_c, 5, 69, 83
1, 12145, Note_off_c, 6, 77, 64
1, 12146, Note_on_c, 9, 35, 122
1, 12146, Note_on_c, 9, 44, 64
1, 12146, Note_off_c, 9, 35, 64
1, 12146, Note_off_c, 9, 44, 64
1, 12148, Note_off_c, 5, 72, 64
1, 12156, Note_off_c, 5, 69, 64
1, 12157, Note_off_c, 3, 74, 64
1, 12157, Note_off_c, 8, 69, 64
1, 12158, Note_off_c, 6, 74, 64
1, 12181, Note_off_c, 0, 50, 64
1, 12189, Note_on_c, 5, 67, 64
1, 12192, Note_on_c, 3, 72, 95
1, 12192, Note_on_c, 6, 72, 127
1, 12192, Note_off_c, 8, 50, 64
1, 12192, Note_on_c, 8, 50, 111
1, 12192, Note_off_c, 8, 57, 64
1, 12192, Note_on_c, 8, 59, 127
1, 12192, Note_on_c, 8, 67, 127
1, 12193, Note_on_c, 0, 50, 89
1, 12194, Note_on_c, 1, 38, 126
1, 12194, Note_on_c, 9, 40, 127
1, 12194, Note_on_c, 9, 44, 105
1, 12194, Note_off_c, 0, 57, 64
1, 12194, Note_on_c, 0, 59, 89
1, 12194, Note_off_c, 9, 40, 64
1, 12194, Note_off_c, 9, 44, 64
1, 12201, Note_off_c, 1, 41, 64
1, 12206, Note_off_c, 5, 67, 64
1, 12211, Note_off_c, 3, 72, 64
1, 12217, Note_off_c, 8, 67, 64
1, 12232, Note_off_c, 6, 72, 64
1, 12237, Note_on_c, 5, 69, 83
1, 12240, Note_on_c, 3, 74, 100
1, 12240, Note_on_c, 6, 74, 127
1, 12240, Note_on_c, 8, 69, 127
1, 12242, Note_on_c, 9, 44, 77
1, 12242, Note_off_c, 9, 44, 64
1, 12263, Control_c, 5, 1, 97
1, 12265, Note_off_c, 6, 74, 64
1, 12266, Note_off_c, 8, 69, 64
1, 12271, Control_c, 5, 1, 126
1, 12279, Control_c, 3, 1, 11
1, 12281, Note_off_c, 3, 74, 64
1, 12282, Note_off_c, 0, 50, 64
1, 12283, Note_off_c, 1, 38, 64
1, 12284, Control_c, 5, 1, 61
1, 12287, Control_c, 3, 1, 1
1, 12288, Note_off_c, 8, 50, 64
1, 12288, Note_on_c, 8, 50, 116
1, 12288, Note_on_c, 8, 57, 127
1, 12288, Note_off_c, 8, 59, 64
1, 12290, Note_on_c, 1, 26, 126
1, 12290, Note_on_c, 9, 35, 118
1, 12290, Note_on_c, 9, 40, 125
1, 12290, Note_on_c, 9, 44, 107
1, 12290, Note_off_c, 9, 35, 64
1, 12290, Note_off_c, 9, 40, 64
1, 12290, Note_off_c, 9, 44, 64
1, 12291, Note_on_c, 0, 57, 89
1, 12291, Note_on_c, 0, 50, 89
1, 12293, Control_c, 5, 1, 62
1, 12294, Note_off_c, 0, 59, 64
1, 12296, Control_c, 3, 1, 127
1, 12296, Note_off_c, 5, 69, 64
1, 12301, Control_c, 5, 1, 85
1, 12306, Note_off_c, 1, 26, 64
1, 12308, Control_c, 5, 1, 0
1, 12310, Control_c, 3, 1, 0
1, 12336, Note_on_c, 3, 77, 103
1, 12336, Note_on_c, 6, 72, 127
1, 12336, Note_on_c, 6, 77, 126
1, 12338, Note_on_c, 1, 26, 126
1, 12338, Note_on_c, 5, 72, 71
1, 12338, Note_on_c, 9, 35, 114
1, 12338, Note_on_c, 9, 44, 83
1, 12338, Note_off_c, 9, 35, 64
1, 12338, Note_off_c, 9, 44, 64
1, 12373, Control_c, 3, 1, 8
1, 12376, Note_off_c, 0, 50, 64
1, 12377, Note_off_c, 1, 26, 64
1, 12378, Control_c, 5, 1, 5
1, 12381, Control_c, 3, 1, 31
1, 12384, Note_off_c, 8, 50, 64
1, 12384, Note_on_c, 8, 50, 103
1, 12384, Note_off_c, 8, 57, 64
1, 12384, Note_on_c, 8, 59, 127
1, 12386, Note_on_c, 0, 50, 89
1, 12386, Note_on_c, 1, 31, 126
1, 12386, Note_on_c, 9, 40, 127
1, 12386, Note_on_c, 9, 44, 109
1, 12386, Note_off_c, 0, 57, 64
1, 12386, Note_off_c, 9, 40, 64
1, 12386, Note_off_c, 9, 44, 64
1, 12387, Note_on_c, 0, 59, 89
1, 12387, Control_c, 5, 1, 33
1, 12390, Control_c, 3, 1, 17
1, 12396, Control_c, 5, 1, 107
1, 12398, Control_c, 3, 1, 68
1, 12405, Control_c, 5, 1, 127
1, 12406, Control_c, 3, 1, 127
1, 12415, Pitch_bend_c, 1, 16383
1, 12431, Note_off_c, 3, 77, 64
1, 12431, Control_c, 5, 1, 0
1, 12431, Note_off_c, 6, 72, 64
1, 12432, Note_on_c, 3, 74, 93
1, 12432, Note_on_c, 6, 74, 113
1, 12432, Note_on_c, 8, 69, 113
1, 12432, Pitch_bend_c, 1, 8192
1, 12434, Note_on_c, 1, 41, 126
1, 12434, Note_on_c, 9, 44, 77
1, 12434, Note_off_c, 9, 44, 64
1, 12435, Note_off_c, 1, 31, 64
1, 12437, Note_on_c, 5, 69, 85
1, 12438, Note_off_c, 6, 77, 64
1, 12439, Note_off_c, 5, 72, 64
1, 12440, Control_c, 3, 1, 0
1, 12447, Note_off_c, 3, 74, 64
1, 12450, Note_off_c, 5, 69, 64
1, 12469, Note_off_c, 8, 69, 64
1, 12474, Note_off_c, 6, 74, 64
1, 12475, Note_off_c, 0, 50, 64
1, 12480, Note_on_c, 3, 77, 95
1, 12480, Note_on_c, 6, 72, 127
1, 12480, Note_on_c, 6, 77, 123
1, 12480, Note_off_c, 8, 50, 64
1, 12480, Note_on_c, 8, 50, 118
1, 12480, Note_on_c, 8, 57, 125
1, 12480, Note_off_c, 8, 59, 64
1, 12481, Note_on_c, 5, 72, 46
1, 12482, Note_on_c, 9, 35, 120
1, 12482, Note_on_c, 9, 40, 116
1, 12482, Note_on_c, 9, 44, 119
1, 12482, Note_on_c, 0, 57, 89
1, 12482, Note_off_c, 9, 35, 64
1, 12482, Note_off_c, 9, 40, 64
1, 12482, Note_off_c, 9, 44, 64
1, 12484, Note_on_c, 0, 50, 89
1, 12487, Note_off_c, 0, 59, 64
1, 12510, Control_c, 5, 1, 1
1, 12520, Control_c, 5, 1, 76
1, 12522, Note_off_c, 6, 72, 64
1, 12527, Note_off_c, 3, 77, 64
1, 12528, Note_on_c, 3, 74, 97
1, 12528, Note_on_c, 6, 74, 107
1, 12528, Note_on_c, 8, 69, 103
1, 12529, Control_c, 5, 1, 0
1, 12529, Note_off_c, 6, 77, 64
1, 12530, Note_on_c, 5, 69, 77
1, 12530, Note_on_c, 9, 35, 127
1, 12530, Note_on_c, 9, 44, 77
1, 12530, Note_off_c, 9, 35, 64
1, 12530, Note_off_c, 9, 44, 64
1, 12535, Note_off_c, 5, 72, 64
1, 12539, Note_off_c, 3, 74, 64
1, 12543, Note_off_c, 5, 69, 64
1, 12546, Note_off_c, 8, 69, 64
1, 12549, Note_off_c, 6, 74, 64
1, 12569, Note_off_c, 0, 50, 64
1, 12574, Note_on_c, 5, 67, 70
1, 12576, Note_on_c, 3, 72, 97
1, 12576, Note_on_c, 6, 72, 123
1, 12576, Note_off_c, 8, 50, 64
1, 12576, Note_on_c, 8, 50, 103
1, 12576, Note_off_c, 8, 57, 64
1, 12576, Note_on_c, 8, 59, 123
1, 12576, Note_on_c, 8, 67, 126
1, 12578, Note_on_c, 0, 50, 89
1, 12578, Note_on_c, 1, 38, 126
1, 12578, Note_off_c, 1, 41, 64
1, 12578, Note_on_c, 9, 40, 127
1, 12578, Note_on_c, 9, 44, 116
1, 12578, Note_on_c, 0, 59, 89
1, 12578, Note_off_c, 9, 40, 64
1, 12578, Note_off_c, 9, 44, 64
1, 12579, Note_off_c, 0, 57, 64
1, 12587, Note_off_c, 3, 72, 64
1, 12591, Note_off_c, 5, 67, 64
1, 12594, Note_off_c, 8, 67, 64
1, 12619, Note_off_c, 6, 72, 64
1, 12623, Note_on_c, 5, 69, 87
1, 12624, Note_on_c, 3, 74, 98
1, 12624, Note_on_c, 6, 74, 113
1, 12624, Note_on_c, 8, 69, 113
1, 12626, Note_on_c, 9, 44, 87
1, 12626, Note_off_c, 9, 44, 64
1, 12643, Note_off_c, 5, 69, 64
1, 12644, Note_off_c, 8, 69, 64
1, 12647, Note_off_c, 6, 74, 64
1, 12659, Control_c, 3, 1, 125
1, 12664, Note_off_c, 0, 50, 64
1, 12666, Note_off_c, 1, 38, 64
1, 12669, Control_c, 3, 1, 0
1, 12672, Note_off_c, 8, 50, 64
1, 12672, Note_on_c, 8, 50, 113
1, 12672, Note_on_c, 8, 57, 125
1, 12672, Note_off_c, 8, 59, 64
1, 12673, Note_on_c, 0, 57, 89
1, 12674, Note_on_c, 1, 26, 126
1, 12674, Note_on_c, 9, 35, 127
1, 12674, Note_on_c, 9, 40, 125
1, 12674, Note_on_c, 9, 44, 113
1, 12674, Note_off_c, 9, 35, 64
1, 12674, Note_off_c, 9, 40, 64
1, 12674, Note_off_c, 9, 44, 64
1, 12675, Note_off_c, 3, 74, 64
1, 12675, Note_on_c, 0, 50, 89
1, 12678, Note_off_c, 0, 59, 64
1, 12680, Control_c, 3, 1, 127
1, 12690, Note_off_c, 1, 26, 64
1, 12692, Control_c, 3, 1, 0
1, 12720, Note_on_c, 3, 77, 102
1, 12720, Note_on_c, 6, 72, 127
1, 12720, Note_on_c, 6, 77, 127
1, 12722, Note_on_c, 1, 26, 126
1, 12722, Note_on_c, 9, 35, 127
1, 12722, Note_on_c, 9, 44, 83
1, 12722, Note_on_c, 5, 72, 91
1, 12722, Note_off_c, 9, 35, 64
1, 12722, Note_off_c, 9, 44, 64
1, 12749, Control_c, 5, 1, 2
1, 12757, Note_off_c, 0, 50, 64
1, 12758, Control_c, 5, 1, 33
1, 12761, Note_off_c, 1, 26, 64
1, 12767, Note_on_c, 0, 50, 89
1, 12767, Control_c, 5, 1, 47
1, 12768, Note_off_c, 0, 57, 64
1, 12768, Note_off_c, 8, 50, 64
1, 12768, Note_on_c, 8, 50, 118
1, 12768, Note_off_c, 8, 57, 64
1, 12768, Note_on_c, 8, 59, 125
1, 12768, Note_on_c, 0, 59, 89
1, 12770, Note_on_c, 1, 31, 126
1, 12770, Note_on_c, 9, 40, 127
1, 12770, Note_on_c, 9, 44, 116
1, 12770, Note_off_c, 9, 40, 64
1, 12770, Note_off_c, 9, 44, 64
1, 12774, Control_c, 3, 1, 12
1, 12776, Control_c, 5, 1, 83
1, 12782, Control_c, 3, 1, 2
1, 12787, Control_c, 5, 1, 116
1, 12791, Control_c, 3, 1, 127
1, 12794, Control_c, 5, 1, 116
1, 12799, Pitch_bend_c, 1, 13910
1, 12803, Pitch_bend_c, 1, 16383
1, 12803, Control_c, 5, 1, 0
1, 12810, Note_off_c, 3, 77, 64
1, 12812, Note_off_c, 5, 72, 64
1, 12813, Pitch_bend_c, 1, 14327
1, 12813, Note_off_c, 6, 72, 64
1, 12813, Control_c, 3, 1, 0
1, 12814, Note_on_c, 5, 69, 73
1, 12816, Note_on_c, 3, 74, 86
1, 12816, Note_on_c, 6, 74, 109
1, 12816, Note_on_c, 8, 69, 109
1, 12817, Pitch_bend_c, 1, 8192
1, 12817, Note_off_c, 1, 31, 64
1, 12818, Note_on_c, 1, 41, 126
1, 12818, Note_on_c, 9, 44, 66
1, 12818, Note_off_c, 6, 77, 64
1, 12818, Note_off_c, 9, 44, 64
1, 12827, Note_off_c, 5, 69, 64
1, 12830, Note_off_c, 8, 69, 64
1, 12839, Note_off_c, 3, 74, 64
1, 12841, Note_off_c, 6, 74, 64
1, 12855, Note_off_c, 0, 50, 64
1, 12863, Note_on_c, 5, 72, 89
1, 12864, Note_on_c, 0, 57, 89
1, 12864, Note_on_c, 3, 77, 99
1, 12864, Note_on_c, 6, 72, 127
1, 12864, Note_on_c, 6, 77, 121
1, 12864, Note_off_c, 8, 50, 64
1, 12864, Note_on_c, 8, 50, 113
1, 12864, Note_on_c, 8, 57, 125
1, 12864, Note_off_c, 8, 59, 64
1, 12865, Note_on_c, 0, 50, 89
1, 12866, Note_on_c, 9, 35, 127
1, 12866, Note_on_c, 9, 40, 125
1, 12866, Note_on_c, 9, 44, 116
1, 12866, Note_off_c, 9, 35, 64
1, 12866, Note_off_c, 9, 40, 64
1, 12866, Note_off_c, 9, 44, 64
1, 12869, Note_off_c, 0, 59, 64
1, 12879, Control_c, 5, 1, 1
1, 12887, Control_c, 5, 1, 21
1, 12895, Control_c, 5, 1, 95
1, 12903, Control_c, 5, 1, 91
1, 12908, Note_off_c, 6, 72, 64
1, 12911, Control_c, 5, 1, 0
1, 12912, Note_on_c, 3, 74, 92
1, 12912, Note_on_c, 6, 74, 109
1, 12912, Note_on_c, 8, 69, 99
1, 12912, Note_on_c, 5, 69, 83
1, 12913, Note_off_c, 3, 77, 64
1, 12914, Note_off_c, 6, 77, 64
1, 12914, Note_on_c, 9, 35, 127
1, 12914, Note_on_c, 9, 44, 81
1, 12914, Note_off_c, 9, 35, 64
1, 12914, Note_off_c, 9, 44, 64
1, 12918, Note_off_c, 5, 72, 64
1, 12925, Note_off_c, 3, 74, 64
1, 12925, Note_off_c, 5, 69, 64
1, 12927, Note_off_c, 8, 69, 64
1, 12934, Note_off_c, 6, 74, 64
1, 12950, Note_off_c, 0, 50, 64
1, 12956, Note_on_c, 5, 67, 64
1, 12958, Note_on_c, 0, 59, 89
1, 12960, Note_on_c, 0, 50, 89
1, 12960, Note_on_c, 3, 72, 102
1, 12960, Note_on_c, 6, 72, 127
1, 12960, Note_off_c, 8, 50, 64
1, 12960, Note_on_c, 8, 50, 98
1, 12960, Note_off_c, 8, 57, 64
1, 12960, Note_on_c, 8, 59, 118
1, 12960, Note_on_c, 8, 67, 126
1, 12960, Note_off_c, 0, 57, 64
1, 12962, Note_on_c, 1, 38, 126
1, 12962, Note_on_c, 9, 40, 127
1, 12962, Note_on_c, 9, 44, 103
1, 12962, Note_off_c, 9, 40, 64
1, 12962, Note_off_c, 9, 44, 64
1, 12966, Note_off_c, 1, 41, 64
1, 12971, Note_off_c, 3, 72, 64
1, 12972, Note_off_c, 5, 67, 64
1, 12977, Note_off_c, 8, 67, 64
1, 12997, Note_off_c, 6, 72, 64
1, 13008, Note_on_c, 3, 74, 94
1, 13008, Note_on_c, 6, 74, 116
1, 13008, Note_on_c, 8, 69, 118
1, 13009, Note_on_c, 5, 69, 94
1, 13010, Note_on_c, 9, 44, 69
1, 13010, Note_off_c, 9, 44, 64
1, 13029, Note_off_c, 8, 69, 64
1, 13030, Note_off_c, 5, 69, 64
1, 13032, Note_off_c, 6, 74, 64
1, 13043, Control_c, 3, 1, 3
1, 13047, Note_off_c, 0, 50, 64
1, 13051, Note_off_c, 1, 38, 64
1, 13051, Control_c, 3, 1, 127
1, 13053, Note_off_c, 3, 74, 64
1, 13055, Note_on_c, 0, 57, 89
1, 13056, Note_off_c, 8, 50, 64
1, 13056, Note_on_c, 8, 50, 126
1, 13056, Note_on_c, 8, 57, 121
1, 13056, Note_off_c, 8, 59, 64
1, 13058, Note_on_c, 1, 26, 126
1, 13058, Note_on_c, 9, 35, 127
1, 13058, Note_on_c, 9, 40, 127
1, 13058, Note_on_c, 9, 44, 97
1, 13058, Note_on_c, 0, 50, 89
1, 13058, Note_off_c, 9, 35, 64
1, 13058, Note_off_c, 9, 40, 64
1, 13058, Note_off_c, 9, 44, 64
1, 13062, Note_off_c, 0, 59, 64
1, 13064, Control_c, 3, 1, 0
1, 13073, Note_off_c, 1, 26, 64
1, 13104, Note_on_c, 3, 77, 104
1, 13104, Note_on_c, 6, 72, 127
1, 13104, Note_on_c, 6, 77, 125
1, 13106, Note_on_c, 1, 26, 126
1, 13106, Note_on_c, 9, 35, 118
1, 13106, Note_on_c, 9, 44, 76
1, 13106, Note_off_c, 9, 35, 64
1, 13106, Note_off_c, 9, 44, 64
1, 13108, Note_on_c, 5, 72, 94
1, 13140, Note_off_c, 0, 50, 64
1, 13148, Note_off_c, 1, 26, 64
1, 13152, Note_off_c, 8, 50, 64
1, 13152, Note_on_c, 8, 50, 111
1, 13152, Note_off_c, 8, 57, 64
1, 13152, Note_on_c, 8, 59, 125
1, 13153, Note_on_c, 0, 50, 89
1, 13153, Control_c, 5, 1, 9
1, 13154, Note_on_c, 1, 31, 126
1, 13154, Note_on_c, 9, 40, 127
1, 13154, Note_on_c, 9, 44, 109
1, 13154, Note_on_c, 0, 59, 89
1, 13154, Note_off_c, 9, 40, 64
1, 13154, Note_off_c, 9, 44, 64
1, 13157, Note_off_c, 0, 57, 64
1, 13161, Control_c, 5, 1, 53
1, 13170, Control_c, 3, 1, 127
1, 13170, Control_c, 5, 1, 119
1, 13175, Pitch_bend_c, 1, 9541
1, 13178, Control_c, 5, 1, 126
1, 13179, Pitch_bend_c, 1, 16383
1, 13187, Control_c, 3, 1, 107
1, 13192, Control_c, 5, 1, 102
1, 13192, Note_off_c, 6, 72, 64
1, 13195, Pitch_bend_c, 1, 15773
1, 13196, Control_c, 3, 1, 0
1, 13198, Note_off_c, 3, 77, 64
1, 13199, Note_off_c, 6, 77, 64
1, 13200, Pitch_bend_c, 1, 8192
1, 13200, Note_on_c, 3, 74, 96
1, 13200, Control_c, 5, 1, 0
1, 13200, Note_on_c, 6, 74, 111
1, 13200, Note_on_c, 8, 69, 111
1, 13202, Note_on_c, 1, 41, 126
1, 13202, Note_on_c, 9, 44, 53
1, 13202, Note_off_c, 9, 44, 64
1, 13203, Note_off_c, 1, 31, 64
1, 13205, Note_on_c, 5, 69, 85
1, 13207, Note_off_c, 5, 72, 64
1, 13217, Note_off_c, 3, 74, 64
1, 13218, Note_off_c, 8, 69, 64
1, 13219, Note_off_c, 5, 69, 64
1, 13223, Note_off_c, 6, 74, 64
1, 13242, Note_off_c, 0, 50, 64
1, 13248, Note_on_c, 3, 77, 97
1, 13248, Note_on_c, 6, 72, 127
1, 13248, Note_on_c, 6, 77, 126
1, 13248, Note_off_c, 8, 50, 64
1, 13248, Note_on_c, 8, 50, 113
1, 13248, Note_on_c, 8, 57, 125
1, 13248, Note_off_c, 8, 59, 64
1, 13249, Note_on_c, 0, 57, 89
1, 13250, Note_on_c, 9, 35, 127
1, 13250, Note_on_c, 9, 40, 127
1, 13250, Note_on_c, 9, 44, 109
1, 13250, Note_off_c, 9, 35, 64
1, 13250, Note_off_c, 9, 40, 64
1, 13250, Note_off_c, 9, 44, 64
1, 13251, Note_on_c, 5, 72, 85
1, 13253, Note_on_c, 0, 50, 89
1, 13254, Note_off_c, 0, 59, 64
1, 13291, Note_off_c, 6, 72, 64
1, 13293, Note_on_c, 5, 69, 83
1, 13296, Note_on_c, 3, 74, 94
1, 13296, Note_on_c, 6, 74, 105
1, 13296, Note_on_c, 8, 69, 100
1, 13297, Note_off_c, 5, 72, 64
1, 13298, Note_on_c, 9, 35, 120
1, 13298, Note_on_c, 9, 44, 69
1, 13298, Note_off_c, 9, 35, 64
1, 13298, Note_off_c, 9, 44, 64
1, 13299, Note_off_c, 6, 77, 64
1, 13300, Note_off_c, 3, 77, 64
1, 13307, Note_off_c, 3, 74, 64
1, 13307, Note_off_c, 5, 69, 64
1, 13310, Note_off_c, 8, 69, 64
1, 13312, Note_off_c, 6, 74, 64
1, 13337, Note_off_c, 0, 50, 64
1, 13344, Note_on_c, 3, 72, 98
1, 13344, Note_on_c, 6, 72, 125
1, 13344, Note_off_c, 8, 50, 64
1, 13344, Note_on_c, 8, 50, 120
1, 13344, Note_off_c, 8, 57, 64
1, 13344, Note_on_c, 8, 59, 123
1, 13344, Note_on_c, 8, 67, 123
1, 13346, Note_on_c, 1, 38, 126
1, 13346, Note_on_c, 5, 67, 81
1, 13346, Note_on_c, 9, 40, 127
1, 13346, Note_on_c, 9, 44, 116
1, 13346, Note_off_c, 9, 40, 64
1, 13346, Note_off_c, 9, 44, 64
1, 13347, Note_on_c, 0, 50, 89
1, 13347, Note_on_c, 0, 59, 89
1, 13348, Note_off_c, 0, 57, 64
1, 13351, Note_off_c, 1, 41, 64
1, 13364, Note_off_c, 8, 67, 64
1, 13367, Note_off_c, 5, 67, 64
1, 13383, Note_off_c, 3, 72, 64
1, 13385, Note_off_c, 6, 72, 64
1, 13391, Note_on_c, 5, 69, 91
1, 13392, Note_on_c, 3, 74, 102
1, 13392, Note_on_c, 6, 74, 121
1, 13392, Note_on_c, 8, 69, 125
1, 13394, Note_on_c, 9, 44, 76
1, 13394, Note_off_c, 9, 44, 64
1, 13409, Note_off_c, 0, 59, 64
1, 13411, Note_off_c, 3, 74, 64
1, 13411, Note_off_c, 5, 69, 64
1, 13416, Note_off_c, 1, 38, 64
1, 13420, Note_off_c, 0, 50, 64
1, 13434, Note_off_c, 8, 69, 64
1, 13438, Note_off_c, 6, 74, 64
1, 13440, Note_off_c, 8, 50, 64
1, 13440, Note_on_c, 8, 57, 127
1, 13440, Note_off_c, 8, 59, 64
1, 13440, Note_on_c, 8, 64, 127
1, 13442, Note_on_c, 0, 45, 89
1, 13442, Note_on_c, 0, 52, 89
1, 13442, Note_on_c, 1, 21, 124
1, 13442, Note_on_c, 9, 35, 127
1, 13442, Note_on_c, 9, 40, 125
1, 13442, Note_on_c, 9, 49, 103
1, 13442, Note_off_c, 9, 35, 64
1, 13442, Note_off_c, 9, 40, 64
1, 13442, Note_off_c, 9, 49, 64
1, 13469, Note_off_c, 1, 21, 64
1, 13486, Note_on_c, 5, 71, 105
1, 13488, Note_on_c, 3, 74, 97
1, 13488, Pitch_bend_c, 3, 10657
1, 13488, Note_on_c, 6, 76, 127
1, 13488, Note_on_c, 8, 69, 127
1, 13490, Note_on_c, 1, 21, 126
1, 13490, Note_on_c, 9, 35, 127
1, 13490, Note_on_c, 9, 44, 83
1, 13490, Note_off_c, 9, 35, 64
1, 13490, Note_off_c, 9, 44, 64
1, 13491, Pitch_bend_c, 5, 9412
1, 13492, Pitch_bend_c, 3, 13377
1, 13496, Pitch_bend_c, 5, 13042
1, 13496, Pitch_bend_c, 3, 14822
1, 13499, Pitch_bend_c, 5, 14809
1, 13500, Pitch_bend_c, 3, 15842
1, 13504, Pitch_bend_c, 5, 16383
1, 13505, Pitch_bend_c, 3, 16383
1, 13522, Note_off_c, 0, 45, 64
1, 13530, Note_off_c, 0, 52, 64
1, 13535, Note_off_c, 1, 21, 64
1, 13536, Note_on_c, 8, 66, 114
1, 13538, Note_on_c, 0, 45, 89
1, 13538, Note_on_c, 0, 54, 89
1, 13538, Note_on_c, 1, 26, 122
1, 13538, Note_on_c, 9, 40, 127
1, 13538, Note_on_c, 9, 44, 116
1, 13538, Note_off_c, 9, 40, 64
1, 13538, Note_off_c, 9, 44, 64
1, 13545, Note_off_c, 8, 64, 64
1, 13565, Pitch_bend_c, 1, 16383
1, 13576, Pitch_bend_c, 3, 15842
1, 13580, Pitch_bend_c, 3, 13717
1, 13581, Pitch_bend_c, 1, 15323
1, 13584, Note_off_c, 3, 74, 64
1, 13584, Pitch_bend_c, 3, 11592
1, 13586, Note_on_c, 0, 52, 89
1, 13586, Note_on_c, 1, 33, 115
1, 13586, Pitch_bend_c, 1, 8192
1, 13586, Note_off_c, 5, 71, 64
1, 13586, Note_on_c, 9, 44, 59
1, 13586, Note_off_c, 9, 44, 64
1, 13588, Pitch_bend_c, 5, 15163
1, 13588, Pitch_bend_c, 3, 10147
1, 13589, Note_off_c, 1, 26, 64
1, 13592, Pitch_bend_c, 5, 11243
1, 13592, Pitch_bend_c, 3, 8192
1, 13597, Pitch_bend_c, 5, 9220
1, 13601, Pitch_bend_c, 5, 8609
1, 13609, Pitch_bend_c, 5, 8320
1, 13613, Pitch_bend_c, 5, 8192
1, 13618, Note_off_c, 8, 57, 64
1, 13624, Note_off_c, 8, 66, 64
1, 13628, Pitch_bend_c, 3, 8787
1, 13629, Note_on_c, 5, 71, 103
1, 13630, Note_off_c, 0, 54, 64
1, 13630, Note_off_c, 0, 45, 64
1, 13632, Note_on_c, 3, 74, 116
1, 13632, Note_on_c, 8, 57, 121
1, 13632, Note_on_c, 8, 64, 123
1, 13632, Pitch_bend_c, 3, 9297
1, 13634, Note_on_c, 0, 45, 89
1, 13634, Note_off_c, 0, 52, 64
1, 13634, Note_on_c, 0, 52, 89
1, 13634, Note_on_c, 9, 35, 127
1, 13634, Note_on_c, 9, 40, 125
1, 13634, Note_on_c, 9, 44, 116
1, 13634, Note_off_c, 9, 35, 64
1, 13634, Note_off_c, 9, 40, 64
1, 13634, Note_off_c, 9, 44, 64
1, 13635, Pitch_bend_c, 5, 9220
1, 13636, Pitch_bend_c, 3, 9892
1, 13640, Pitch_bend_c, 5, 12400
1, 13640, Pitch_bend_c, 3, 10572
1, 13644, Pitch_bend_c, 5, 14520
1, 13645, Pitch_bend_c, 3, 12102
1, 13648, Pitch_bend_c, 5, 14841
1, 13649, Pitch_bend_c, 3, 14142
1, 13651, Pitch_bend_c, 5, 14906
1, 13653, Pitch_bend_c, 3, 16383
1, 13657, Pitch_bend_c, 5, 14938
1, 13661, Pitch_bend_c, 5, 15098
1, 13665, Pitch_bend_c, 5, 15323
1, 13668, Pitch_bend_c, 5, 15709
1, 13672, Pitch_bend_c, 5, 15966
1, 13677, Pitch_bend_c, 5, 16255
1, 13682, Note_on_c, 9, 35, 127
1, 13682, Note_on_c, 9, 44, 40
1, 13682, Pitch_bend_c, 5, 16383
1, 13682, Note_off_c, 9, 35, 64
1, 13682, Note_off_c, 9, 44, 64
1, 13711, Note_off_c, 8, 57, 64
1, 13722, Pitch_bend_c, 3, 16352
1, 13726, Note_off_c, 1, 33, 64
1, 13726, Pitch_bend_c, 3, 14397
1, 13726, Pitch_bend_c, 5, 15869
1, 13728, Note_on_c, 8, 57, 116
1, 13728, Note_on_c, 8, 66, 126
1, 13730, Note_off_c, 0, 52, 64
1, 13730, Note_on_c, 0, 54, 89
1, 13730, Note_on_c, 1, 28, 115
1, 13730, Note_on_c, 9, 40, 127
1, 13730, Note_on_c, 9, 44, 105
1, 13730, Pitch_bend_c, 3, 11422
1, 13730, Note_off_c, 9, 40, 64
1, 13730, Note_off_c, 9, 44, 64
1, 13731, Pitch_bend_c, 5, 14135
1, 13734, Note_off_c, 8, 64, 64
1, 13734, Pitch_bend_c, 3, 9892
1, 13735, Pitch_bend_c, 5, 10505
1, 13735, Note_off_c, 5, 71, 64
1, 13739, Pitch_bend_c, 5, 8192
1, 13740, Note_off_c, 3, 74, 64
1, 13741, Pitch_bend_c, 3, 9212
1, 13745, Pitch_bend_c, 3, 8192
1, 13772, Pitch_bend_c, 3, 8192
1, 13773, Note_on_c, 5, 71, 101
1, 13776, Note_on_c, 3, 74, 116
1, 13776, Pitch_bend_c, 3, 8702
1, 13778, Note_on_c, 9, 44, 83
1, 13778, Note_off_c, 9, 44, 64
1, 13780, Pitch_bend_c, 3, 10062
1, 13783, Pitch_bend_c, 5, 8256
1, 13784, Pitch_bend_c, 3, 12187
1, 13787, Pitch_bend_c, 5, 9573
1, 13789, Pitch_bend_c, 3, 14822
1, 13791, Pitch_bend_c, 5, 12143
1, 13793, Pitch_bend_c, 3, 16383
1, 13795, Pitch_bend_c, 5, 13364
1, 13800, Pitch_bend_c, 5, 14263
1, 13803, Pitch_bend_c, 5, 14713
1, 13807, Pitch_bend_c, 5, 15034
1, 13811, Pitch_bend_c, 5, 15259
1, 13815, Pitch_bend_c, 5, 15355
1, 13816, Note_off_c, 8, 57, 64
1, 13817, Note_off_c, 0, 45, 64
1, 13818, Pitch_bend_c, 5, 15484
1, 13822, Note_off_c, 1, 28, 64
1, 13823, Pitch_bend_c, 5, 15612
1, 13824, Note_on_c, 8, 57, 123
1, 13824, Note_on_c, 8, 64, 123
1, 13826, Note_on_c, 0, 45, 89
1, 13826, Note_on_c, 0, 52, 89
1, 13826, Note_on_c, 1, 21, 120
1, 13826, Note_on_c, 9, 35, 127
1, 13826, Note_on_c, 9, 40, 127
1, 13826, Note_on_c, 9, 44, 116
1, 13826, Note_off_c, 8, 66, 64
1, 13826, Note_off_c, 9, 35, 64
1, 13826, Note_off_c, 9, 40, 64
1, 13826, Note_off_c, 9, 44, 64
1, 13827, Pitch_bend_c, 5, 15773
1, 13828, Note_off_c, 0, 54, 64
1, 13832, Pitch_bend_c, 5, 15837
1, 13836, Pitch_bend_c, 5, 15998
1, 13841, Pitch_bend_c, 5, 16062
1, 13844, Pitch_bend_c, 5, 16094
1, 13848, Note_off_c, 1, 21, 64
1, 13851, Pitch_bend_c, 5, 16062
1, 13863, Pitch_bend_c, 5, 15966
1, 13866, Pitch_bend_c, 5, 15773
1, 13868, Pitch_bend_c, 3, 15672
1, 13870, Pitch_bend_c, 5, 15291
1, 13872, Pitch_bend_c, 3, 14397
1, 13874, Note_on_c, 1, 21, 125
1, 13874, Note_on_c, 9, 35, 118
1, 13874, Note_on_c, 9, 44, 84
1, 13874, Note_off_c, 9, 35, 64
1, 13874, Note_off_c, 9, 44, 64
1, 13876, Pitch_bend_c, 5, 12528
1, 13876, Pitch_bend_c, 3, 12527
1, 13881, Pitch_bend_c, 3, 8192
1, 13881, Pitch_bend_c, 5, 10151
1, 13882, Note_off_c, 5, 71, 64
1, 13885, Pitch_bend_c, 5, 8192
1, 13886, Note_off_c, 3, 74, 64
1, 13900, Note_off_c, 8, 57, 64
1, 13910, Pitch_bend_c, 3, 9722
1, 13914, Pitch_bend_c, 3, 10062
1, 13915, Note_off_c, 0, 45, 64
1, 13918, Pitch_bend_c, 3, 10487
1, 13919, Note_on_c, 5, 71, 96
1, 13919, Note_off_c, 1, 21, 64
1, 13920, Note_on_c, 3, 74, 99
1, 13920, Note_on_c, 8, 57, 116
1, 13920, Note_on_c, 8, 66, 126
1, 13922, Note_on_c, 0, 45, 89
1, 13922, Note_on_c, 0, 54, 89
1, 13922, Note_on_c, 1, 26, 112
1, 13922, Note_on_c, 9, 40, 127
1, 13922, Note_on_c, 9, 44, 116
1, 13922, Pitch_bend_c, 3, 10147
1, 13922, Note_off_c, 9, 40, 64
1, 13922, Note_off_c, 9, 44, 64
1, 13923, Note_off_c, 8, 64, 64
1, 13924, Note_off_c, 0, 52, 64
1, 13926, Pitch_bend_c, 3, 11167
1, 13929, Pitch_bend_c, 5, 11051
1, 13931, Pitch_bend_c, 3, 12527
1, 13933, Pitch_bend_c, 5, 13428
1, 13935, Pitch_bend_c, 3, 14397
1, 13937, Pitch_bend_c, 5, 14135
1, 13939, Pitch_bend_c, 3, 16267
1, 13941, Pitch_bend_c, 5, 14231
1, 13943, Pitch_bend_c, 1, 9669
1, 13943, Pitch_bend_c, 3, 16383
1, 13947, Pitch_bend_c, 1, 16383
1, 13952, Pitch_bend_c, 5, 14327
1, 13956, Pitch_bend_c, 5, 14681
1, 13960, Pitch_bend_c, 5, 14938
1, 13961, Note_off_c, 0, 45, 64
1, 13964, Pitch_bend_c, 5, 15645
1, 13968, Pitch_bend_c, 1, 13075
1, 13968, Pitch_bend_c, 5, 16094
1, 13970, Note_on_c, 0, 45, 89
1, 13970, Note_on_c, 0, 52, 89
1, 13970, Note_on_c, 1, 33, 110
1, 13970, Note_on_c, 9, 44, 67
1, 13970, Note_off_c, 9, 44, 64
1, 13971, Note_off_c, 1, 26, 64
1, 13971, Pitch_bend_c, 1, 8192
1, 13973, Pitch_bend_c, 5, 16383
1, 13988, Note_off_c, 0, 54, 64
1, 14002, Note_off_c, 8, 57, 64
1, 14012, Note_off_c, 0, 45, 64
1, 14013, Note_off_c, 0, 52, 64
1, 14016, Note_on_c, 8, 57, 121
1, 14016, Note_on_c, 8, 64, 123
1, 14016, Note_off_c, 8, 66, 64
1, 14016, Control_c, 3, 1, 18
1, 14018, Note_on_c, 0, 45, 89
1, 14018, Note_on_c, 0, 52, 89
1, 14018, Note_on_c, 9, 35, 127
1, 14018, Note_on_c, 9, 40, 127
1, 14018, Note_on_c, 9, 44, 103
1, 14018, Note_off_c, 9, 35, 64
1, 14018, Note_off_c, 9, 40, 64
1, 14018, Note_off_c, 9, 44, 64
1, 14024, Control_c, 3, 1, 104
1, 14033, Control_c, 3, 1, 79
1, 14041, Control_c, 3, 1, 0
1, 14052, Pitch_bend_c, 3, 16097
1, 14056, Pitch_bend_c, 3, 15672
1, 14060, Pitch_bend_c, 3, 14992
1, 14064, Pitch_bend_c, 3, 14227
1, 14066, Note_on_c, 9, 35, 120
1, 14066, Note_on_c, 9, 44, 72
1, 14066, Note_off_c, 9, 35, 64
1, 14066, Note_off_c, 9, 44, 64
1, 14068, Pitch_bend_c, 3, 13462
1, 14071, Pitch_bend_c, 5, 16287
1, 14072, Pitch_bend_c, 3, 12697
1, 14074, Pitch_bend_c, 5, 16191
1, 14077, Pitch_bend_c, 3, 12102
1, 14078, Pitch_bend_c, 5, 16062
1, 14081, Pitch_bend_c, 3, 11592
1, 14082, Note_off_c, 8, 57, 64
1, 14083, Pitch_bend_c, 5, 15998
1, 14085, Pitch_bend_c, 3, 11252
1, 14089, Pitch_bend_c, 5, 15805
1, 14091, Pitch_bend_c, 3, 10997
1, 14092, Pitch_bend_c, 5, 15773
1, 14096, Pitch_bend_c, 3, 10742
1, 14096, Pitch_bend_c, 5, 15516
1, 14100, Pitch_bend_c, 3, 10062
1, 14100, Pitch_bend_c, 5, 14938
1, 14104, Pitch_bend_c, 3, 9042
1, 14105, Pitch_bend_c, 5, 13974
1, 14108, Pitch_bend_c, 3, 8192
1, 14109, Note_off_c, 8, 64, 64
1, 14109, Pitch_bend_c, 5, 12593
1, 14112, Note_on_c, 8, 57, 107
1, 14112, Note_on_c, 8, 66, 127
1, 14113, Pitch_bend_c, 5, 10858
1, 14114, Note_on_c, 0, 54, 89
1, 14114, Note_on_c, 1, 28, 120
1, 14114, Note_on_c, 9, 40, 127
1, 14114, Note_on_c, 9, 44, 122
1, 14114, Note_off_c, 9, 40, 64
1, 14114, Note_off_c, 9, 44, 64
1, 14117, Note_off_c, 0, 52, 64
1, 14117, Pitch_bend_c, 5, 8930
1, 14117, Note_off_c, 1, 33, 64
1, 14117, Note_off_c, 3, 74, 64
1, 14120, Pitch_bend_c, 5, 8192
1, 14130, Note_off_c, 5, 71, 64
1, 14133, Note_off_c, 8, 57, 64
1, 14148, Note_off_c, 8, 69, 64
1, 14154, Note_off_c, 6, 76, 64
1, 14160, Note_on_c, 8, 57, 121
1, 14160, Note_on_c, 8, 64, 123
1, 14162, Note_on_c, 0, 52, 89
1, 14162, Note_on_c, 9, 46, 81
1, 14162, Note_off_c, 9, 46, 64
1, 14164, Note_off_c, 0, 54, 64
1, 14190, Note_off_c, 8, 66, 64
1, 14191, Note_off_c, 0, 45, 64
1, 14197, Note_off_c, 8, 57, 64
1, 14201, Note_off_c, 8, 64, 64
1, 14204, Note_off_c, 1, 28, 64
1, 14207, Note_off_c, 0, 52, 64
1, 14208, Note_on_c, 3, 77, 125
1, 14209, Note_on_c, 6, 77, 127
1, 14210, Note_on_c, 0, 43, 89
1, 14210, Note_on_c, 0, 50, 89
1, 14210, Note_on_c, 0, 52, 89
1, 14210, Note_on_c, 1, 19, 126
1, 14210, Note_on_c, 6, 82, 127
1, 14210, Note_on_c, 9, 35, 123
1, 14210, Note_on_c, 9, 44, 125
1, 14210, Note_on_c, 6, 86, 127
1, 14210, Note_off_c, 9, 35, 64
1, 14210, Note_off_c, 9, 44, 64
1, 14211, Note_on_c, 6, 91, 127
1, 14211, Note_on_c, 8, 55, 127
1, 14211, Note_on_c, 8, 64, 127
1, 14212, Note_on_c, 8, 62, 127
1, 14212, Note_on_c, 8, 61, 114
1, 14212, Note_on_c, 8, 65, 123
1, 14213, Note_on_c, 8, 58, 90
1, 14214, Note_on_c, 6, 83, 127
1, 14214, Note_off_c, 8, 65, 64
1, 14215, Note_off_c, 0, 52, 64
1, 14215, Note_off_c, 6, 82, 64
1, 14216, Note_off_c, 8, 58, 64
1, 14219, Note_off_c, 8, 61, 64
1, 14235, Note_off_c, 3, 77, 64
1, 14239, Note_off_c, 8, 64, 64
1, 14243, Note_off_c, 1, 19, 64
1, 14248, Note_off_c, 0, 43, 64
1, 14252, Note_off_c, 0, 50, 64
1, 14256, Note_on_c, 3, 77, 80
1, 14266, Note_off_c, 6, 91, 64
1, 14269, Note_off_c, 6, 86, 64
1, 14272, Note_off_c, 6, 83, 64
1, 14272, Note_off_c, 8, 62, 64
1, 14274, Note_off_c, 8, 55, 64
1, 14276, Note_off_c, 3, 77, 64
1, 14281, Note_on_c, 6, 76, 82
1, 14282, Note_on_c, 9, 35, 102
1, 14282, Note_off_c, 6, 77, 64
1, 14282, Note_off_c, 9, 35, 64
1, 14285, Note_off_c, 6, 76, 64
1, 14288, Note_on_c, 6, 74, 76
1, 14290, Note_off_c, 6, 74, 64
1, 14291, Note_on_c, 6, 72, 92
1, 14294, Note_off_c, 6, 72, 64
1, 14294, Note_on_c, 8, 71, 96
1, 14297, Note_off_c, 8, 71, 64
1, 14299, Note_on_c, 8, 69, 90
1, 14302, Note_off_c, 8, 69, 64
1, 14302, Note_on_c, 8, 67, 93
1, 14304, Note_on_c, 3, 77, 94
1, 14305, Note_off_c, 8, 67, 64
1, 14306, Note_on_c, 9, 35, 127
1, 14306, Note_on_c, 8, 65, 89
1, 14306, Note_off_c, 9, 35, 64
1, 14309, Note_off_c, 8, 65, 64
1, 14310, Note_on_c, 8, 64, 85
1, 14312, Note_off_c, 8, 64, 64
1, 14313, Note_on_c, 8, 62, 89
1, 14315, Note_off_c, 8, 62, 64
1, 14317, Note_on_c, 8, 60, 74
1, 14319, Note_off_c, 8, 60, 64
1, 14320, Note_on_c, 8, 59, 76
1, 14322, Note_off_c, 8, 59, 64
1, 14324, Note_off_c, 3, 77, 64
1, 14352, Note_on_c, 3, 77, 99
1, 14371, Note_off_c, 3, 77, 64
1, 14400, Note_on_c, 3, 77, 113
1, 14402, Note_on_c, 9, 35, 125
1, 14402, Note_off_c, 9, 35, 64
1, 14418, Note_off_c, 3, 77, 64
1, 14448, Note_on_c, 3, 77, 120
1, 14465, Note_off_c, 3, 77, 64
1, 14474, Note_on_c, 9, 35, 110
1, 14474, Note_off_c, 9, 35, 64
1, 14496, Note_on_c, 3, 77, 121
1, 14498, Note_on_c, 9, 35, 125
1, 14498, Note_off_c, 9, 35, 64
1, 14543, Note_off_c, 3, 77, 64
1, 14544, Note_on_c, 3, 74, 113
1, 14558, Note_off_c, 3, 74, 64
1, 14571, Note_on_c, 8, 67, 74
1, 14576, Note_off_c, 8, 67, 64
1, 14589, Note_on_c, 6, 73, 127
1, 14589, Note_on_c, 6, 77, 125
1, 14591, Note_on_c, 3, 77, 99
1, 14593, Note_off_c, 3, 77, 64
1, 14593, Note_on_c, 3, 77, 90
1, 14594, Note_on_c, 9, 35, 125
1, 14594, Note_off_c, 9, 35, 64
1, 14595, Note_on_c, 6, 74, 127
1, 14596, Note_off_c, 6, 73, 64
1, 14609, Note_off_c, 3, 77, 64
1, 14620, Note_off_c, 6, 77, 64
1, 14622, Note_off_c, 6, 74, 64
1, 14639, Note_on_c, 3, 77, 86
1, 14642, Note_on_c, 6, 77, 127
1, 14643, Note_on_c, 6, 73, 127
1, 14654, Note_off_c, 6, 73, 64
1, 14655, Note_on_c, 6, 74, 89
1, 14666, Note_on_c, 9, 35, 102
1, 14666, Note_off_c, 9, 35, 64
1, 14675, Note_off_c, 6, 74, 64
1, 14679, Note_off_c, 6, 77, 64
1, 14689, Note_on_c, 6, 72, 127
1, 14689, Note_on_c, 6, 76, 127
1, 14689, Note_off_c, 3, 77, 64
1, 14690, Note_on_c, 9, 35, 127
1, 14690, Note_off_c, 9, 35, 64
1, 14692, Note_on_c, 3, 74, 87
1, 14704, Note_off_c, 3, 74, 64
1, 14712, Note_off_c, 6, 72, 64
1, 14715, Note_off_c, 6, 76, 64
1, 14739, Note_on_c, 8, 70, 127
1, 14740, Note_on_c, 8, 65, 127
1, 14740, Note_on_c, 6, 74, 127
1, 14741, Note_on_c, 3, 77, 103
1, 14746, Note_on_c, 8, 71, 127
1, 14747, Note_off_c, 8, 70, 64
1, 14786, Note_on_c, 9, 35, 127
1, 14786, Note_off_c, 9, 35, 64
1, 14828, Pitch_bend_c, 3, 8021
1, 14832, Pitch_bend_c, 3, 7341
1, 14836, Pitch_bend_c, 3, 6491
1, 14840, Pitch_bend_c, 3, 5641
1, 14844, Pitch_bend_c, 3, 5046
1, 14849, Pitch_bend_c, 3, 4451
1, 14849, Note_off_c, 3, 77, 64
1, 14853, Pitch_bend_c, 3, 3941
1, 14857, Pitch_bend_c, 3, 8192
1, 14858, Note_on_c, 9, 35, 102
1, 14858, Note_off_c, 9, 35, 64
1, 14876, Note_on_c, 3, 74, 93
1, 14882, Note_on_c, 9, 35, 127
1, 14882, Note_off_c, 9, 35, 64
1, 14895, Note_off_c, 3, 74, 64
1, 14924, Note_on_c, 3, 74, 102
1, 14962, Note_off_c, 8, 65, 64
1, 14976, Note_on_c, 0, 47, 89
1, 14976, Note_on_c, 0, 54, 89
1, 14976, Note_on_c, 2, 47, 126
1, 14976, Note_on_c, 2, 54, 104
1, 14976, Note_on_c, 2, 59, 105
1, 14976, Note_on_c, 3, 81, 126
1, 14976, Note_on_c, 5, 81, 101
1, 14976, Note_on_c, 9, 35, 127
1, 14977, Note_off_c, 9, 35, 64
1, 14977, Note_on_c, 8, 47, 113
1, 14977, Note_on_c, 8, 59, 118
1, 14977, Note_on_c, 9, 49, 122
1, 14978, Note_off_c, 3, 74, 64
1, 14978, Note_on_c, 6, 78, 110
1, 14978, Note_off_c, 9, 49, 64
1, 14979, Note_on_c, 1, 23, 126
1, 14981, Pitch_bend_c, 3, 4818
1, 14985, Pitch_bend_c, 3, 2473
1, 14989, Pitch_bend_c, 3, 8192
1, 15007, Note_off_c, 2, 47, 64
1, 15016, Note_off_c, 1, 23, 64
1, 15016, Note_off_c, 2, 54, 64
1, 15020, Note_off_c, 5, 81, 64
1, 15021, Note_off_c, 0, 47, 64
1, 15021, Note_off_c, 0, 54, 64
1, 15024, Note_on_c, 0, 47, 89
1, 15024, Note_on_c, 0, 54, 89
1, 15024, Note_on_c, 1, 23, 126
1, 15024, Note_on_c, 2, 47, 109
1, 15024, Note_on_c, 2, 54, 64
1, 15024, Note_on_c, 3, 78, 126
1, 15024, Note_on_c, 5, 76, 105
1, 15024, Note_on_c, 9, 44, 113
1, 15024, Note_off_c, 9, 44, 64
1, 15026, Note_off_c, 3, 81, 64
1, 15028, Pitch_bend_c, 5, 11854
1, 15032, Pitch_bend_c, 5, 16383
1, 15057, Note_off_c, 0, 47, 64
1, 15063, Note_off_c, 0, 54, 64
1, 15064, Note_off_c, 2, 59, 64
1, 15068, Note_off_c, 1, 23, 64
1, 15071, Note_off_c, 2, 47, 64
1, 15072, Note_on_c, 0, 47, 89
1, 15072, Note_on_c, 0, 54, 89
1, 15072, Note_on_c, 1, 23, 126
1, 15072, Note_on_c, 2, 47, 126
1, 15072, Note_on_c, 2, 59, 99
1, 15072, Note_on_c, 9, 40, 127
1, 15072, Note_on_c, 9, 44, 126
1, 15072, Note_off_c, 9, 40, 64
1, 15072, Note_off_c, 9, 44, 64
1, 15073, Control_c, 5, 1, 13
1, 15082, Control_c, 5, 1, 21
1, 15091, Control_c, 5, 1, 24
1, 15103, Control_c, 5, 1, 36
1, 15104, Control_c, 3, 1, 15
1, 15106, Note_off_c, 1, 23, 64
1, 15107, Note_off_c, 0, 47, 64
1, 15108, Note_off_c, 0, 54, 64
1, 15108, Note_off_c, 2, 59, 64
1, 15111, Control_c, 5, 1, 50
1, 15111, Note_off_c, 2, 47, 64
1, 15111, Control_c, 3, 1, 69
1, 15112, Note_off_c, 2, 54, 64
1, 15119, Control_c, 5, 1, 71
1, 15120, Note_on_c, 0, 47, 89
1, 15120, Note_on_c, 0, 51, 89
1, 15120, Note_on_c, 0, 54, 89
1, 15120, Note_on_c, 1, 23, 126
1, 15120, Note_on_c, 2, 47, 116
1, 15120, Note_on_c, 2, 54, 110
1, 15120, Note_on_c, 2, 59, 103
1, 15120, Note_on_c, 9, 35, 116
1, 15120, Note_on_c, 9, 44, 116
1, 15120, Control_c, 3, 1, 108
1, 15120, Note_off_c, 9, 35, 64
1, 15120, Note_off_c, 9, 44, 64
1, 15123, Note_off_c, 0, 51, 64
1, 15128, Control_c, 5, 1, 98
1, 15129, Control_c, 3, 1, 127
1, 15139, Control_c, 5, 1, 116
1, 15148, Control_c, 5, 1, 124
1, 15152, Note_off_c, 0, 47, 64
1, 15155, Note_off_c, 1, 23, 64
1, 15155, Note_off_c, 0, 54, 64
1, 15161, Control_c, 5, 1, 126
1, 15162, Note_off_c, 2, 47, 64
1, 15165, Note_off_c, 2, 54, 64
1, 15168, Note_on_c, 0, 47, 89
1, 15168, Note_on_c, 0, 54, 89
1, 15168, Note_on_c, 1, 23, 126
1, 15168, Note_on_c, 2, 47, 126
1, 15168, Note_on_c, 2, 54, 51
1, 15168, Note_on_c, 9, 35, 127
1, 15168, Note_on_c, 9, 44, 126
1, 15168, Note_off_c, 9, 35, 64
1, 15168, Note_off_c, 9, 44, 64
1, 15174, Control_c, 5, 1, 124
1, 15183, Control_c, 5, 1, 125
1, 15196, Control_c, 5, 1, 112
1, 15197, Note_off_c, 0, 47, 64
1, 15203, Note_off_c, 0, 54, 64
1, 15205, Note_off_c, 1, 23, 64
1, 15205, Control_c, 5, 1, 76
1, 15208, Note_off_c, 2, 54, 64
1, 15209, Note_off_c, 2, 59, 64
1, 15210, Note_off_c, 2, 47, 64
1, 15213, Control_c, 5, 1, 64
1, 15216, Note_on_c, 0, 47, 89
1, 15216, Note_on_c, 0, 54, 89
1, 15216, Note_on_c, 1, 23, 126
1, 15216, Note_on_c, 2, 47, 125
1, 15216, Note_on_c, 2, 54, 117
1, 15216, Note_on_c, 2, 59, 100
1, 15216, Note_on_c, 9, 44, 126
1, 15216, Note_off_c, 9, 44, 64
1, 15221, Control_c, 5, 1, 62
1, 15223, Control_c, 3, 1, 116
1, 15228, Control_c, 5, 1, 44
1, 15235, Control_c, 3, 1, 126
1, 15237, Control_c, 5, 1, 15
1, 15244, Control_c, 3, 1, 127
1, 15245, Control_c, 5, 1, 0
1, 15246, Note_off_c, 0, 47, 64
1, 15251, Note_off_c, 0, 54, 64
1, 15252, Note_off_c, 1, 23, 64
1, 15253, Note_off_c, 3, 78, 64
1, 15254, Note_off_c, 2, 59, 64
1, 15255, Note_off_c, 2, 54, 64
1, 15256, Note_off_c, 2, 47, 64
1, 15257, Control_c, 3, 1, 80
1, 15258, Note_off_c, 5, 76, 64
1, 15259, Pitch_bend_c, 3, 7742
1, 15262, Pitch_bend_c, 5, 10376
1, 15263, Pitch_bend_c, 3, 0
1, 15264, Note_on_c, 0, 47, 89
1, 15264, Note_on_c, 0, 51, 89
1, 15264, Note_on_c, 0, 54, 89
1, 15264, Note_on_c, 1, 23, 126
1, 15264, Note_on_c, 2, 47, 127
1, 15264, Note_on_c, 2, 54, 117
1, 15264, Note_on_c, 2, 59, 111
1, 15264, Note_on_c, 3, 78, 126
1, 15264, Note_on_c, 5, 76, 104
1, 15264, Note_on_c, 9, 40, 127
1, 15264, Note_on_c, 9, 44, 126
1, 15264, Note_off_c, 9, 40, 64
1, 15264, Note_off_c, 9, 44, 64
1, 15265, Control_c, 3, 1, 0
1, 15266, Pitch_bend_c, 5, 8192
1, 15267, Note_off_c, 0, 51, 64
1, 15269, Note_on_c, 8, 45, 99
1, 15270, Pitch_bend_c, 3, 8192
1, 15271, Note_off_c, 8, 59, 64
1, 15272, Pitch_bend_c, 5, 16383
1, 15275, Note_on_c, 8, 57, 127
1, 15277, Note_off_c, 8, 47, 64
1, 15306, Note_off_c, 2, 47, 64
1, 15306, Note_off_c, 1, 23, 64
1, 15307, Control_c, 5, 1, 2
1, 15312, Note_on_c, 0, 45, 89
1, 15312, Note_on_c, 1, 21, 126
1, 15312, Note_on_c, 2, 45, 126
1, 15312, Note_on_c, 2, 47, 109
1, 15312, Note_on_c, 2, 52, 113
1, 15312, Note_on_c, 2, 57, 109
1, 15312, Note_on_c, 9, 35, 127
1, 15312, Note_on_c, 9, 44, 116
1, 15312, Note_off_c, 9, 35, 64
1, 15312, Note_off_c, 9, 44, 64
1, 15315, Control_c, 5, 1, 14
1, 15317, Note_off_c, 2, 54, 64
1, 15320, Note_off_c, 2, 47, 64
1, 15321, Note_off_c, 2, 59, 64
1, 15323, Control_c, 5, 1, 18
1, 15331, Control_c, 5, 1, 12
1, 15338, Control_c, 5, 1, 0
1, 15340, Note_off_c, 0, 47, 64
1, 15351, Note_off_c, 2, 52, 64
1, 15352, Note_off_c, 1, 21, 64
1, 15354, Note_off_c, 0, 45, 64
1, 15354, Note_off_c, 0, 54, 64
1, 15354, Note_off_c, 2, 45, 64
1, 15355, Note_off_c, 2, 57, 64
1, 15359, Note_off_c, 6, 78, 64
1, 15359, Pitch_bend_c, 5, 13685
1, 15360, Note_on_c, 0, 43, 89
1, 15360, Note_on_c, 0, 47, 89
1, 15360, Note_on_c, 0, 50, 89
1, 15360, Note_on_c, 0, 55, 89
1, 15360, Note_on_c, 1, 19, 126
1, 15360, Note_on_c, 2, 43, 127
1, 15360, Note_on_c, 2, 50, 111
1, 15360, Note_on_c, 2, 55, 113
1, 15360, Note_on_c, 3, 76, 126
1, 15360, Note_off_c, 8, 57, 64
1, 15360, Note_on_c, 9, 35, 127
1, 15360, Note_on_c, 9, 44, 126
1, 15360, Pitch_bend_c, 3, 0
1, 15360, Note_off_c, 9, 35, 64
1, 15360, Note_off_c, 9, 44, 64
1, 15361, Note_off_c, 3, 78, 64
1, 15361, Note_off_c, 8, 45, 64
1, 15363, Pitch_bend_c, 5, 8192
1, 15365, Note_on_c, 6, 79, 126
1, 15366, Note_on_c, 8, 55, 126
1, 15367, Note_on_c, 8, 43, 123
1, 15368, Pitch_bend_c, 3, 8192
1, 15369, Note_on_c, 6, 76, 79
1, 15372, Note_off_c, 6, 76, 64
1, 15384, Note_on_c, 3, 74, 95
1, 15384, Note_on_c, 5, 74, 101
1, 15385, Note_off_c, 3, 76, 64
1, 15389, Note_off_c, 5, 76, 64
1, 15391, Note_off_c, 0, 47, 64
1, 15395, Note_off_c, 0, 50, 64
1, 15396, Note_off_c, 0, 55, 64
1, 15400, Note_off_c, 0, 43, 64
1, 15401, Note_off_c, 1, 19, 64
1, 15401, Note_off_c, 2, 43, 64
1, 15404, Note_off_c, 2, 55, 64
1, 15405, Note_off_c, 5, 74, 64
1, 15408, Note_on_c, 0, 43, 89
1, 15408, Note_on_c, 0, 47, 89
1, 15408, Note_on_c, 0, 50, 89
1, 15408, Note_on_c, 0, 55, 89
1, 15408, Note_on_c, 1, 19, 126
1, 15408, Note_on_c, 2, 43, 116
1, 15408, Note_on_c, 2, 55, 121
1, 15408, Note_on_c, 3, 71, 126
1, 15408, Note_on_c, 5, 71, 87
1, 15408, Note_on_c, 9, 35, 107
1, 15408, Note_on_c, 9, 44, 116
1, 15408, Note_off_c, 9, 35, 64
1, 15408, Note_off_c, 9, 44, 64
1, 15410, Note_off_c, 3, 74, 64
1, 15434, Note_off_c, 0, 47, 64
1, 15434, Control_c, 5, 1, 1
1, 15437, Note_off_c, 0, 50, 64
1, 15439, Note_off_c, 1, 19, 64
1, 15441, Note_off_c, 0, 55, 64
1, 15442, Note_off_c, 0, 43, 64
1, 15443, Control_c, 5, 1, 32
1, 15448, Note_off_c, 2, 50, 64
1, 15449, Control_c, 3, 1, 25
1, 15450, Note_off_c, 2, 43, 64
1, 15451, Note_off_c, 2, 55, 64
1, 15452, Control_c, 5, 1, 102
1, 15456, Note_on_c, 0, 43, 89
1, 15456, Note_on_c, 0, 47, 89
1, 15456, Note_on_c, 0, 50, 89
1, 15456, Note_on_c, 0, 55, 89
1, 15456, Note_on_c, 1, 19, 126
1, 15456, Note_on_c, 2, 43, 127
1, 15456, Note_on_c, 2, 50, 116
1, 15456, Note_on_c, 2, 55, 121
1, 15456, Note_on_c, 9, 40, 127
1, 15456, Note_on_c, 9, 44, 126
1, 15456, Note_off_c, 9, 40, 64
1, 15456, Note_off_c, 9, 44, 64
1, 15457, Control_c, 3, 1, 91
1, 15461, Control_c, 5, 1, 127
1, 15466, Control_c, 3, 1, 127
1, 15480, Note_off_c, 0, 47, 64
1, 15484, Note_off_c, 0, 50, 64
1, 15485, Note_off_c, 2, 50, 64
1, 15487, Note_off_c, 0, 55, 64
1, 15489, Note_off_c, 1, 19, 64
1, 15495, Note_off_c, 0, 43, 64
1, 15497, Note_off_c, 2, 43, 64
1, 15499, Note_off_c, 2, 55, 64
1, 15504, Note_on_c, 0, 43, 89
1, 15504, Note_on_c, 0, 47, 89
1, 15504, Note_on_c, 0, 50, 89
1, 15504, Note_on_c, 0, 55, 89
1, 15504, Note_on_c, 1, 19, 126
1, 15504, Note_on_c, 2, 43, 113
1, 15504, Note_on_c, 2, 45, 125
1, 15504, Note_on_c, 2, 50, 123
1, 15504, Note_on_c, 2, 55, 121
1, 15504, Note_on_c, 9, 35, 127
1, 15504, Note_on_c, 9, 44, 126
1, 15504, Note_off_c, 9, 35, 64
1, 15504, Note_off_c, 9, 44, 64
1, 15519, Note_off_c, 2, 45, 64
1, 15533, Note_off_c, 8, 71, 64
1, 15535, Note_off_c, 0, 55, 64
1, 15538, Note_off_c, 6, 79, 64
1, 15542, Note_off_c, 0, 47, 64
1, 15543, Note_off_c, 2, 50, 64
1, 15544, Note_off_c, 0, 50, 64
1, 15545, Note_off_c, 8, 43, 64
1, 15545, Note_off_c, 3, 71, 64
1, 15546, Note_off_c, 2, 43, 64
1, 15546, Note_off_c, 2, 55, 64
1, 15547, Note_off_c, 8, 55, 64
1, 15549, Note_off_c, 1, 19, 64
1, 15550, Note_off_c, 6, 74, 64
1, 15551, Control_c, 3, 1, 0
1, 15552, Note_off_c, 0, 43, 64
1, 15552, Note_on_c, 0, 45, 89
1, 15552, Note_on_c, 0, 52, 89
1, 15552, Note_on_c, 0, 57, 89
1, 15552, Note_on_c, 1, 21, 126
1, 15552, Note_on_c, 2, 45, 127
1, 15552, Note_on_c, 2, 52, 127
1, 15552, Note_on_c, 2, 57, 127
1, 15552, Note_on_c, 9, 35, 127
1, 15552, Note_on_c, 9, 43, 116
1, 15552, Control_c, 5, 1, 0
1, 15552, Note_off_c, 9, 35, 64
1, 15552, Note_off_c, 9, 43, 64
1, 15553, Note_off_c, 5, 71, 64
1, 15555, Note_on_c, 8, 45, 125
1, 15556, Note_on_c, 6, 81, 127
1, 15556, Note_on_c, 8, 69, 127
1, 15557, Pitch_bend_c, 5, 8192
1, 15557, Note_on_c, 8, 57, 127
1, 15557, Note_on_c, 6, 74, 127
1, 15557, Note_on_c, 6, 76, 127
1, 15560, Note_on_c, 6, 77, 73
1, 15562, Note_off_c, 6, 77, 64
1, 15564, Note_off_c, 6, 74, 64
1, 15588, Note_off_c, 0, 52, 64
1, 15589, Note_off_c, 0, 45, 64
1, 15589, Note_off_c, 8, 57, 64
1, 15589, Note_off_c, 8, 69, 64
1, 15590, Note_off_c, 6, 81, 64
1, 15591, Note_off_c, 2, 45, 64
1, 15591, Note_off_c, 6, 76, 64
1, 15592, Note_off_c, 1, 21, 64
1, 15593, Note_off_c, 0, 57, 64
1, 15594, Note_off_c, 8, 45, 64
1, 15596, Note_off_c, 2, 52, 64
1, 15597, Note_off_c, 2, 57, 64
1, 15648, Note_on_c, 3, 71, 126
1, 15687, Note_off_c, 3, 71, 64
1, 15696, Note_on_c, 3, 74, 126
1, 15713, Note_off_c, 3, 74, 64
1, 15720, Note_on_c, 3, 74, 126
1, 15742, Note_off_c, 3, 74, 64
1, 15744, Note_on_c, 1, 26, 125
1, 15744, Note_on_c, 9, 35, 127
1, 15744, Note_on_c, 9, 49, 126
1, 15744, Note_off_c, 9, 35, 64
1, 15744, Note_off_c, 9, 49, 64
1, 15768, Note_off_c, 1, 26, 64
1, 15792, Note_on_c, 1, 26, 126
1, 15792, Note_on_c, 9, 35, 127
1, 15792, Note_off_c, 9, 35, 64
1, 15840, Note_on_c, 0, 55, 89
1, 15840, Note_on_c, 1, 31, 126
1, 15840, Note_on_c, 2, 55, 110
1, 15840, Note_on_c, 9, 46, 126
1, 15840, Note_off_c, 1, 26, 64
1, 15840, Note_off_c, 9, 46, 64
1, 15856, Note_on_c, 9, 46, 122
1, 15856, Note_off_c, 9, 46, 64
1, 15860, Pitch_bend_c, 0, 8192
1, 15860, Pitch_bend_c, 2, 8192
1, 15864, Pitch_bend_c, 0, 10997
1, 15864, Pitch_bend_c, 2, 10997
1, 15866, Pitch_bend_c, 1, 11565
1, 15868, Pitch_bend_c, 0, 13122
1, 15868, Pitch_bend_c, 2, 13122
1, 15870, Pitch_bend_c, 1, 16383
1, 15872, Pitch_bend_c, 0, 14992
1, 15872, Pitch_bend_c, 2, 14992
1, 15872, Note_on_c, 9, 46, 124
1, 15872, Note_off_c, 9, 46, 64
1, 15876, Pitch_bend_c, 0, 16383
1, 15876, Pitch_bend_c, 2, 16383
1, 15888, Note_on_c, 0, 60, 89
1, 15888, Note_on_c, 0, 65, 89
1, 15888, Note_off_c, 1, 31, 64
1, 15888, Note_on_c, 1, 41, 126
1, 15888, Note_on_c, 2, 60, 97
1, 15888, Note_on_c, 2, 65, 91
1, 15889, Pitch_bend_c, 0, 8192
1, 15889, Pitch_bend_c, 2, 8192
1, 15889, Pitch_bend_c, 1, 8303
1, 15894, Note_off_c, 0, 55, 64
1, 15894, Note_off_c, 2, 55, 64
1, 15894, Pitch_bend_c, 1, 8192
1, 15935, Note_on_c, 9, 48, 105
1, 15936, Note_off_c, 9, 48, 64
1, 15952, Note_on_c, 9, 48, 105
1, 15952, Note_off_c, 9, 48, 64
1, 15967, Note_on_c, 9, 48, 105
1, 15968, Note_off_c, 9, 48, 64
1, 15979, Control_c, 0, 1, 23
1, 15979, Control_c, 2, 1, 23
1, 15984, Note_on_c, 9, 48, 105
1, 15984, Note_off_c, 9, 48, 64
1, 15987, Control_c, 0, 1, 53
1, 15987, Control_c, 2, 1, 53
1, 15996, Control_c, 0, 1, 107
1, 15996, Control_c, 2, 1, 107
1, 16000, Note_on_c, 9, 48, 105
1, 16000, Note_off_c, 9, 48, 64
1, 16004, Control_c, 0, 1, 127
1, 16004, Control_c, 2, 1, 127
1, 16015, Note_on_c, 9, 48, 105
1, 16016, Note_off_c, 9, 48, 64
1, 16032, Note_on_c, 1, 38, 126
1, 16032, Note_on_c, 9, 45, 106
1, 16032, Note_off_c, 9, 45, 64
1, 16039, Note_off_c, 1, 41, 64
1, 16047, Note_on_c, 9, 45, 106
1, 16048, Note_off_c, 9, 45, 64
1, 16064, Note_on_c, 9, 45, 106
1, 16064, Note_off_c, 9, 45, 64
1, 16074, Control_c, 0, 1, 111
1, 16074, Control_c, 2, 1, 111
1, 16080, Note_on_c, 9, 43, 107
1, 16080, Note_off_c, 9, 43, 64
1, 16082, Control_c, 0, 1, 107
1, 16082, Control_c, 2, 1, 107
1, 16091, Control_c, 0, 1, 127
1, 16091, Control_c, 2, 1, 127
1, 16096, Note_on_c, 9, 43, 107
1, 16096, Note_off_c, 9, 43, 64
1, 16101, Control_c, 0, 1, 95
1, 16101, Control_c, 2, 1, 95
1, 16109, Control_c, 0, 1, 127
1, 16109, Control_c, 2, 1, 127
1, 16112, Note_on_c, 9, 43, 116
1, 16112, Note_off_c, 9, 43, 64
1, 16116, Note_off_c, 0, 60, 64
1, 16116, Note_off_c, 2, 60, 64
1, 16118, Note_off_c, 0, 65, 64
1, 16118, Note_off_c, 2, 65, 64
1, 16119, Control_c, 0, 1, 107
1, 16119, Control_c, 2, 1, 107
1, 16121, Note_off_c, 1, 38, 64
1, 16128, Control_c, 0, 1, 0
1, 16128, Note_on_c, 1, 26, 126
1, 16128, Control_c, 2, 1, 0
1, 16128, Note_on_c, 9, 35, 127
1, 16128, Note_off_c, 9, 35, 64
1, 16144, Note_off_c, 1, 26, 64
1, 16176, Note_on_c, 1, 26, 126
1, 16176, Note_on_c, 9, 35, 127
1, 16176, Note_off_c, 9, 35, 64
1, 16215, Note_off_c, 1, 26, 64
1, 16224, Note_on_c, 0, 55, 89
1, 16224, Note_on_c, 1, 31, 126
1, 16224, Note_on_c, 2, 55, 100
1, 16224, Note_on_c, 9, 46, 126
1, 16224, Note_off_c, 9, 46, 64
1, 16240, Note_on_c, 9, 46, 126
1, 16240, Note_off_c, 9, 46, 64
1, 16252, Pitch_bend_c, 0, 10657
1, 16252, Pitch_bend_c, 2, 10657
1, 16253, Pitch_bend_c, 1, 16383
1, 16256, Pitch_bend_c, 0, 13972
1, 16256, Pitch_bend_c, 2, 13972
1, 16256, Note_on_c, 9, 46, 125
1, 16256, Note_off_c, 9, 46, 64
1, 16260, Pitch_bend_c, 0, 16383
1, 16260, Pitch_bend_c, 2, 16383
1, 16268, Pitch_bend_c, 0, 8192
1, 16268, Pitch_bend_c, 2, 8192
1, 16270, Pitch_bend_c, 1, 8192
1, 16272, Note_on_c, 0, 60, 89
1, 16272, Note_on_c, 0, 65, 89
1, 16272, Note_on_c, 1, 41, 126
1, 16272, Note_on_c, 2, 60, 94
1, 16272, Note_on_c, 2, 65, 94
1, 16273, Note_off_c, 1, 31, 64
1, 16277, Note_off_c, 0, 55, 64
1, 16277, Note_off_c, 2, 55, 64
1, 16320, Note_on_c, 9, 48, 116
1, 16320, Note_off_c, 9, 48, 64
1, 16335, Note_on_c, 9, 48, 116
1, 16336, Note_off_c, 9, 48, 64
1, 16352, Note_on_c, 9, 48, 116
1, 16352, Note_off_c, 9, 48, 64
1, 16368, Note_on_c, 9, 48, 116
1, 16368, Note_off_c, 9, 48, 64
1, 16383, Note_on_c, 9, 48, 116
1, 16384, Note_off_c, 9, 48, 64
1, 16394, Control_c, 0, 1, 27
1, 16394, Control_c, 2, 1, 27
1, 16400, Note_on_c, 9, 48, 116
1, 16400, Note_off_c, 9, 48, 64
1, 16402, Control_c, 0, 1, 48
1, 16402, Control_c, 2, 1, 48
1, 16410, Control_c, 0, 1, 70
1, 16410, Control_c, 2, 1, 70
1, 16415, Note_on_c, 9, 45, 116
1, 16416, Note_on_c, 1, 38, 126
1, 16416, Note_off_c, 1, 41, 64
1, 16416, Note_off_c, 9, 45, 64
1, 16419, Control_c, 0, 1, 101
1, 16419, Control_c, 2, 1, 101
1, 16432, Note_on_c, 9, 45, 116
1, 16432, Note_off_c, 9, 45, 64
1, 16435, Control_c, 0, 1, 111
1, 16435, Control_c, 2, 1, 111
1, 16447, Note_on_c, 9, 45, 116
1, 16448, Note_off_c, 9, 45, 64
1, 16454, Control_c, 0, 1, 118
1, 16454, Control_c, 2, 1, 118
1, 16463, Note_on_c, 9, 43, 116
1, 16464, Note_off_c, 9, 43, 64
1, 16468, Control_c, 0, 1, 114
1, 16468, Control_c, 2, 1, 114
1, 16480, Note_on_c, 9, 43, 116
1, 16480, Control_c, 0, 1, 125
1, 16480, Control_c, 2, 1, 125
1, 16480, Note_off_c, 9, 43, 64
1, 16494, Note_off_c, 0, 65, 64
1, 16494, Note_off_c, 2, 65, 64
1, 16495, Control_c, 0, 1, 107
1, 16495, Control_c, 2, 1, 107
1, 16495, Note_on_c, 9, 43, 116
1, 16496, Note_off_c, 9, 43, 64
1, 16498, Note_off_c, 0, 60, 64
1, 16498, Note_off_c, 2, 60, 64
1, 16503, Control_c, 0, 1, 95
1, 16503, Control_c, 2, 1, 95
1, 16504, Note_off_c, 1, 38, 64
1, 16511, Control_c, 0, 1, 0
1, 16511, Control_c, 2, 1, 0
1, 16512, Note_on_c, 1, 26, 126
1, 16512, Note_on_c, 9, 35, 127
1, 16512, Note_off_c, 9, 35, 64
1, 16528, Note_off_c, 1, 26, 64
1, 16560, Note_on_c, 1, 26, 126
1, 16560, Note_on_c, 9, 35, 127
1, 16560, Note_off_c, 9, 35, 64
1, 16599, Note_off_c, 1, 26, 64
1, 16608, Note_on_c, 0, 55, 89
1, 16608, Note_on_c, 1, 31, 126
1, 16608, Note_on_c, 2, 55, 100
1, 16608, Note_on_c, 9, 46, 126
1, 16608, Note_off_c, 9, 46, 64
1, 16624, Note_on_c, 9, 46, 119
1, 16624, Note_off_c, 9, 46, 64
1, 16637, Pitch_bend_c, 0, 10572
1, 16637, Pitch_bend_c, 1, 13910
1, 16637, Pitch_bend_c, 2, 10572
1, 16640, Note_on_c, 9, 46, 125
1, 16640, Note_off_c, 9, 46, 64
1, 16641, Pitch_bend_c, 1, 16383
1, 16641, Pitch_bend_c, 0, 13547
1, 16641, Pitch_bend_c, 2, 13547
1, 16645, Pitch_bend_c, 0, 16383
1, 16645, Pitch_bend_c, 2, 16383
1, 16650, Pitch_bend_c, 0, 8192
1, 16650, Pitch_bend_c, 2, 8192
1, 16651, Pitch_bend_c, 1, 14327
1, 16655, Pitch_bend_c, 1, 8192
1, 16655, Note_off_c, 1, 31, 64
1, 16656, Note_on_c, 0, 60, 89
1, 16656, Note_on_c, 0, 65, 89
1, 16656, Note_on_c, 1, 41, 126
1, 16656, Note_on_c, 2, 60, 91
1, 16656, Note_on_c, 2, 65, 94
1, 16663, Note_off_c, 0, 55, 64
1, 16663, Note_off_c, 2, 55, 64
1, 16703, Note_on_c, 9, 48, 116
1, 16704, Note_off_c, 9, 48, 64
1, 16720, Note_on_c, 9, 48, 116
1, 16720, Note_off_c, 9, 48, 64
1, 16736, Note_on_c, 9, 48, 116
1, 16736, Note_off_c, 9, 48, 64
1, 16752, Note_on_c, 9, 48, 116
1, 16752, Note_off_c, 9, 48, 64
1, 16767, Note_on_c, 9, 48, 116
1, 16768, Note_off_c, 9, 48, 64
1, 16773, Control_c, 0, 1, 33
1, 16773, Control_c, 2, 1, 33
1, 16782, Control_c, 0, 1, 75
1, 16782, Control_c, 2, 1, 75
1, 16783, Note_on_c, 9, 45, 116
1, 16784, Note_off_c, 9, 45, 64
1, 16790, Control_c, 0, 1, 98
1, 16790, Control_c, 2, 1, 98
1, 16799, Note_on_c, 9, 45, 116
1, 16800, Note_on_c, 1, 38, 126
1, 16800, Note_off_c, 9, 45, 64
1, 16800, Control_c, 0, 1, 114
1, 16800, Control_c, 2, 1, 114
1, 16804, Note_off_c, 1, 41, 64
1, 16810, Control_c, 0, 1, 127
1, 16810, Control_c, 2, 1, 127
1, 16815, Note_on_c, 9, 45, 116
1, 16816, Note_off_c, 9, 45, 64
1, 16832, Note_on_c, 9, 45, 116
1, 16832, Note_off_c, 9, 45, 64
1, 16847, Note_on_c, 9, 43, 116
1, 16848, Note_off_c, 9, 43, 64
1, 16864, Note_on_c, 9, 43, 116
1, 16864, Note_off_c, 9, 43, 64
1, 16879, Note_on_c, 9, 43, 116
1, 16880, Note_off_c, 9, 43, 64
1, 16886, Note_off_c, 0, 60, 64
1, 16886, Note_off_c, 2, 60, 64
1, 16888, Note_off_c, 0, 65, 64
1, 16888, Note_off_c, 2, 65, 64
1, 16889, Note_off_c, 1, 38, 64
1, 16891, Control_c, 0, 1, 104
1, 16891, Control_c, 2, 1, 104
1, 16896, Note_on_c, 1, 26, 126
1, 16896, Note_on_c, 9, 35, 127
1, 16896, Note_off_c, 9, 35, 64
1, 16899, Control_c, 0, 1, 0
1, 16899, Control_c, 2, 1, 0
1, 16911, Note_off_c, 1, 26, 64
1, 16944, Note_on_c, 1, 26, 126
1, 16944, Note_on_c, 9, 35, 127
1, 16944, Note_off_c, 9, 35, 64
1, 16986, Note_off_c, 1, 26, 64
1, 16992, Note_on_c, 0, 55, 89
1, 16992, Note_on_c, 1, 31, 126
1, 16992, Note_on_c, 2, 55, 107
1, 16992, Note_on_c, 9, 46, 126
1, 16992, Note_off_c, 9, 46, 64
1, 17008, Note_on_c, 9, 46, 125
1, 17008, Note_off_c, 9, 46, 64
1, 17013, Pitch_bend_c, 1, 9541
1, 17017, Pitch_bend_c, 1, 16383
1, 17019, Pitch_bend_c, 0, 10572
1, 17019, Pitch_bend_c, 2, 10572
1, 17023, Pitch_bend_c, 0, 13717
1, 17023, Pitch_bend_c, 2, 13717
1, 17024, Note_on_c, 9, 46, 122
1, 17024, Note_off_c, 9, 46, 64
1, 17027, Pitch_bend_c, 0, 16383
1, 17027, Pitch_bend_c, 2, 16383
1, 17033, Pitch_bend_c, 1, 15773
1, 17035, Pitch_bend_c, 0, 8192
1, 17035, Pitch_bend_c, 2, 8192
1, 17038, Pitch_bend_c, 1, 8192
1, 17040, Note_on_c, 0, 60, 89
1, 17040, Note_on_c, 0, 65, 89
1, 17040, Note_on_c, 1, 41, 126
1, 17040, Note_on_c, 2, 60, 96
1, 17040, Note_on_c, 2, 65, 97
1, 17041, Note_off_c, 1, 31, 64
1, 17047, Note_off_c, 0, 55, 64
1, 17047, Note_off_c, 2, 55, 64
1, 17064, Note_on_c, 9, 35, 90
1, 17064, Note_off_c, 9, 35, 64
1, 17088, Note_on_c, 9, 40, 119
1, 17088, Note_off_c, 9, 40, 64
1, 17095, Note_on_c, 4, 67, 125
1, 17096, Note_on_c, 9, 40, 127
1, 17097, Note_off_c, 9, 40, 64
1, 17112, Note_on_c, 9, 35, 127
1, 17112, Note_off_c, 9, 35, 64
1, 17115, Note_on_c, 4, 68, 125
1, 17119, Note_off_c, 4, 67, 64
1, 17128, Control_c, 0, 1, 19
1, 17128, Control_c, 2, 1, 19
1, 17136, Note_on_c, 9, 42, 80
1, 17136, Control_c, 0, 1, 39
1, 17136, Control_c, 2, 1, 39
1, 17136, Note_off_c, 9, 42, 64
1, 17139, Note_off_c, 4, 68, 64
1, 17140, Note_on_c, 4, 69, 125
1, 17143, Note_on_c, 7, 67, 80
1, 17145, Control_c, 0, 1, 64
1, 17145, Control_c, 2, 1, 64
1, 17153, Control_c, 0, 1, 111
1, 17153, Control_c, 2, 1, 111
1, 17160, Note_on_c, 9, 40, 119
1, 17160, Note_off_c, 9, 40, 64
1, 17161, Control_c, 0, 1, 121
1, 17161, Control_c, 2, 1, 121
1, 17161, Note_on_c, 4, 72, 125
1, 17163, Note_on_c, 7, 68, 80
1, 17167, Note_off_c, 4, 69, 64
1, 17167, Note_off_c, 7, 67, 64
1, 17182, Control_c, 0, 1, 127
1, 17182, Control_c, 2, 1, 127
1, 17184, Note_on_c, 1, 38, 126
1, 17184, Note_on_c, 9, 40, 127
1, 17184, Note_off_c, 9, 40, 64
1, 17187, Note_off_c, 7, 68, 64
1, 17187, Note_on_c, 4, 69, 125
1, 17188, Note_on_c, 7, 69, 80
1, 17189, Note_off_c, 1, 41, 64
1, 17190, Note_off_c, 4, 72, 64
1, 17207, Note_on_c, 9, 43, 115
1, 17208, Note_off_c, 9, 43, 64
1, 17209, Note_on_c, 4, 67, 125
1, 17209, Note_on_c, 7, 72, 80
1, 17213, Note_off_c, 4, 69, 64
1, 17215, Note_off_c, 7, 69, 64
1, 17232, Note_on_c, 4, 72, 125
1, 17232, Note_on_c, 9, 41, 89
1, 17232, Note_on_c, 9, 42, 89
1, 17232, Note_off_c, 9, 41, 64
1, 17232, Note_off_c, 9, 42, 64
1, 17233, Pitch_bend_c, 4, 5556
1, 17235, Note_on_c, 7, 69, 80
1, 17237, Pitch_bend_c, 4, 6661
1, 17238, Note_off_c, 7, 72, 64
1, 17240, Pitch_bend_c, 4, 8192
1, 17246, Pitch_bend_c, 4, 10402
1, 17250, Control_c, 0, 1, 125
1, 17250, Control_c, 2, 1, 125
1, 17250, Pitch_bend_c, 4, 12867
1, 17253, Pitch_bend_c, 4, 15587
1, 17254, Note_off_c, 0, 60, 64
1, 17254, Note_off_c, 1, 38, 64
1, 17254, Note_off_c, 2, 60, 64
1, 17256, Note_on_c, 9, 35, 125
1, 17256, Note_on_c, 9, 52, 115
1, 17256, Note_off_c, 9, 35, 64
1, 17256, Note_off_c, 9, 52, 64
1, 17257, Note_off_c, 0, 65, 64
1, 17257, Note_off_c, 2, 65, 64
1, 17257, Pitch_bend_c, 4, 8192
1, 17257, Note_on_c, 7, 67, 80
1, 17258, Control_c, 0, 1, 82
1, 17258, Control_c, 2, 1, 82
1, 17261, Note_off_c, 7, 69, 64
1, 17266, Control_c, 0, 1, 0
1, 17266, Control_c, 2, 1, 0
1, 17280, Note_on_c, 0, 50, 89
1, 17280, Note_on_c, 0, 57, 89
1, 17280, Note_on_c, 1, 26, 125
1, 17280, Note_on_c, 7, 72, 80
1, 17280, Note_on_c, 8, 62, 107
1, 17280, Note_on_c, 8, 69, 107
1, 17280, Note_on_c, 9, 35, 127
1, 17280, Note_on_c, 9, 49, 126
1, 17280, Note_off_c, 9, 35, 64
1, 17280, Note_off_c, 9, 49, 64
1, 17284, Note_on_c, 4, 69, 125
1, 17290, Note_off_c, 4, 72, 64
1, 17303, Note_off_c, 0, 50, 64
1, 17304, Note_off_c, 1, 26, 64
1, 17306, Note_off_c, 4, 67, 64
1, 17308, Note_off_c, 0, 57, 64
1, 17328, Note_on_c, 0, 50, 89
1, 17328, Note_on_c, 0, 57, 89
1, 17328, Note_on_c, 1, 26, 126
1, 17328, Note_on_c, 6, 72, 126
1, 17328, Note_on_c, 6, 77, 116
1, 17328, Note_on_c, 9, 42, 99
1, 17328, Note_on_c, 9, 51, 113
1, 17328, Note_off_c, 9, 42, 64
1, 17328, Note_off_c, 9, 51, 64
1, 17332, Note_on_c, 7, 69, 80
1, 17338, Note_off_c, 7, 72, 64
1, 17339, Note_off_c, 6, 72, 64
1, 17341, Control_c, 4, 1, 95
1, 17341, Note_off_c, 6, 77, 64
1, 17349, Control_c, 4, 1, 114
1, 17354, Note_off_c, 7, 67, 64
1, 17357, Note_off_c, 0, 50, 64
1, 17358, Control_c, 4, 1, 125
1, 17364, Note_off_c, 0, 57, 64
1, 17374, Control_c, 4, 1, 90
1, 17376, Note_on_c, 0, 50, 89
1, 17376, Note_on_c, 0, 59, 89
1, 17376, Note_on_c, 1, 31, 126
1, 17376, Note_off_c, 8, 62, 64
1, 17376, Note_on_c, 8, 62, 111
1, 17376, Note_off_c, 8, 69, 64
1, 17376, Note_on_c, 8, 71, 107
1, 17376, Note_on_c, 9, 40, 127
1, 17376, Note_on_c, 9, 51, 126
1, 17376, Note_on_c, 9, 53, 126
1, 17376, Note_off_c, 1, 26, 64
1, 17376, Note_off_c, 9, 40, 64
1, 17376, Note_off_c, 9, 51, 64
1, 17376, Note_off_c, 9, 53, 64
1, 17383, Control_c, 4, 1, 45
1, 17391, Control_c, 4, 1, 101
1, 17398, Control_c, 4, 1, 125
1, 17402, Pitch_bend_c, 1, 11565
1, 17406, Pitch_bend_c, 1, 16383
1, 17407, Control_c, 4, 1, 125
1, 17413, Note_off_c, 0, 50, 64
1, 17415, Control_c, 4, 1, 52
1, 17421, Note_off_c, 0, 59, 64
1, 17422, Control_c, 4, 1, 0
1, 17423, Note_on_c, 4, 72, 125
1, 17424, Note_on_c, 0, 50, 89
1, 17424, Note_on_c, 0, 57, 89
1, 17424, Note_off_c, 1, 31, 64
1, 17424, Note_on_c, 1, 41, 126
1, 17424, Note_on_c, 4, 77, 125
1, 17424, Note_on_c, 6, 72, 116
1, 17424, Note_on_c, 6, 77, 99
1, 17424, Note_on_c, 9, 42, 93
1, 17424, Note_on_c, 9, 51, 126
1, 17424, Note_off_c, 9, 42, 64
1, 17424, Note_off_c, 9, 51, 64
1, 17425, Pitch_bend_c, 1, 8303
1, 17426, Note_off_c, 4, 69, 64
1, 17430, Pitch_bend_c, 1, 8192
1, 17431, Note_off_c, 6, 72, 64
1, 17433, Note_off_c, 6, 77, 64
1, 17451, Note_off_c, 0, 50, 64
1, 17452, Note_off_c, 0, 57, 64
1, 17453, Control_c, 4, 1, 23
1, 17461, Control_c, 4, 1, 127
1, 17471, Note_on_c, 7, 72, 80
1, 17472, Note_on_c, 0, 50, 89
1, 17472, Note_on_c, 0, 57, 89
1, 17472, Note_on_c, 7, 77, 80
1, 17472, Note_off_c, 8, 62, 64
1, 17472, Note_on_c, 8, 62, 89
1, 17472, Note_on_c, 8, 69, 116
1, 17472, Note_off_c, 8, 71, 64
1, 17472, Note_on_c, 9, 35, 127
1, 17472, Note_on_c, 9, 51, 126
1, 17472, Note_off_c, 9, 35, 64
1, 17472, Note_off_c, 9, 51, 64
1, 17474, Note_off_c, 7, 69, 64
1, 17479, Control_c, 4, 1, 64
1, 17488, Control_c, 4, 1, 98
1, 17495, Control_c, 4, 1, 121
1, 17501, Note_off_c, 0, 50, 64
1, 17503, Note_off_c, 0, 57, 64
1, 17505, Control_c, 4, 1, 114
1, 17519, Control_c, 4, 1, 0
1, 17520, Note_on_c, 0, 50, 89
1, 17520, Note_on_c, 0, 57, 89
1, 17520, Note_on_c, 6, 72, 84
1, 17520, Note_on_c, 9, 35, 127
1, 17520, Note_on_c, 9, 42, 113
1, 17520, Note_on_c, 9, 51, 126
1, 17520, Note_off_c, 9, 35, 64
1, 17520, Note_off_c, 9, 42, 64
1, 17520, Note_off_c, 9, 51, 64
1, 17524, Note_off_c, 6, 72, 64
1, 17525, Note_off_c, 4, 72, 64
1, 17525, Note_off_c, 4, 77, 64
1, 17526, Note_on_c, 4, 74, 125
1, 17538, Note_off_c, 4, 74, 64
1, 17547, Note_off_c, 0, 50, 64
1, 17547, Note_off_c, 0, 57, 64
1, 17568, Note_on_c, 0, 50, 89
1, 17568, Note_on_c, 0, 59, 89
1, 17568, Note_on_c, 1, 38, 126
1, 17568, Note_on_c, 6, 72, 127
1, 17568, Note_on_c, 6, 77, 126
1, 17568, Note_off_c, 8, 62, 64
1, 17568, Note_on_c, 8, 62, 113
1, 17568, Note_off_c, 8, 69, 64
1, 17568, Note_on_c, 8, 71, 121
1, 17568, Note_on_c, 9, 40, 127
1, 17568, Note_on_c, 9, 51, 126
1, 17568, Note_on_c, 9, 53, 126
1, 17568, Note_off_c, 9, 40, 64
1, 17568, Note_off_c, 9, 51, 64
1, 17568, Note_off_c, 9, 53, 64
1, 17573, Note_off_c, 7, 72, 64
1, 17573, Note_off_c, 7, 77, 64
1, 17574, Note_on_c, 7, 74, 80
1, 17575, Note_off_c, 1, 41, 64
1, 17586, Note_off_c, 7, 74, 64
1, 17595, Note_off_c, 0, 50, 64
1, 17601, Note_off_c, 0, 59, 64
1, 17613, Note_on_c, 4, 77, 125
1, 17614, Note_on_c, 4, 72, 125
1, 17615, Note_off_c, 6, 72, 64
1, 17616, Note_on_c, 0, 50, 89
1, 17616, Note_on_c, 0, 57, 89
1, 17616, Note_on_c, 6, 74, 105
1, 17616, Note_on_c, 9, 42, 89
1, 17616, Note_on_c, 9, 51, 126
1, 17616, Note_off_c, 9, 42, 64
1, 17616, Note_off_c, 9, 51, 64
1, 17619, Note_off_c, 6, 77, 64
1, 17620, Pitch_bend_c, 4, 9127
1, 17624, Pitch_bend_c, 4, 10147
1, 17624, Note_off_c, 6, 74, 64
1, 17627, Pitch_bend_c, 4, 10912
1, 17631, Pitch_bend_c, 4, 11677
1, 17635, Pitch_bend_c, 4, 13122
1, 17638, Pitch_bend_c, 4, 14397
1, 17642, Note_off_c, 0, 50, 64
1, 17642, Note_off_c, 0, 57, 64
1, 17642, Pitch_bend_c, 4, 15587
1, 17646, Pitch_bend_c, 4, 16383
1, 17657, Note_off_c, 1, 38, 64
1, 17661, Note_on_c, 7, 77, 80
1, 17662, Note_on_c, 7, 72, 80
1, 17662, Pitch_bend_c, 4, 8192
1, 17664, Note_on_c, 0, 50, 89
1, 17664, Note_on_c, 0, 57, 89
1, 17664, Note_on_c, 1, 26, 126
1, 17664, Note_off_c, 8, 62, 64
1, 17664, Note_on_c, 8, 62, 100
1, 17664, Note_on_c, 8, 69, 109
1, 17664, Note_off_c, 8, 71, 64
1, 17664, Note_on_c, 9, 35, 127
1, 17664, Note_on_c, 9, 51, 126
1, 17664, Note_off_c, 9, 35, 64
1, 17664, Note_off_c, 9, 51, 64
1, 17680, Note_off_c, 1, 26, 64
1, 17689, Note_off_c, 0, 50, 64
1, 17690, Note_off_c, 0, 57, 64
1, 17704, Control_c, 4, 1, 127
1, 17712, Note_on_c, 0, 50, 89
1, 17712, Note_on_c, 0, 57, 89
1, 17712, Note_on_c, 1, 26, 126
1, 17712, Note_on_c, 6, 72, 126
1, 17712, Note_on_c, 6, 77, 111
1, 17712, Note_on_c, 9, 42, 87
1, 17712, Note_on_c, 9, 51, 126
1, 17712, Note_off_c, 9, 42, 64
1, 17712, Note_off_c, 9, 51, 64
1, 17715, Control_c, 4, 1, 125
1, 17719, Note_off_c, 6, 72, 64
1, 17722, Note_off_c, 6, 77, 64
1, 17724, Control_c, 4, 1, 98
1, 17732, Control_c, 4, 1, 101
1, 17735, Note_off_c, 0, 50, 64
1, 17738, Note_off_c, 0, 57, 64
1, 17739, Control_c, 4, 1, 0
1, 17751, Note_off_c, 1, 26, 64
1, 17756, Note_off_c, 4, 72, 64
1, 17758, Note_off_c, 4, 77, 64
1, 17759, Note_on_c, 4, 69, 125
1, 17759, Note_on_c, 4, 74, 125
1, 17760, Note_on_c, 0, 50, 89
1, 17760, Note_on_c, 0, 59, 89
1, 17760, Note_on_c, 1, 31, 126
1, 17760, Note_off_c, 8, 62, 64
1, 17760, Note_on_c, 8, 62, 103
1, 17760, Note_off_c, 8, 69, 64
1, 17760, Note_on_c, 8, 71, 107
1, 17760, Note_on_c, 9, 40, 127
1, 17760, Note_on_c, 9, 51, 126
1, 17760, Note_on_c, 9, 53, 126
1, 17760, Note_off_c, 9, 40, 64
1, 17760, Note_off_c, 9, 51, 64
1, 17760, Note_off_c, 9, 53, 64
1, 17773, Note_off_c, 4, 69, 64
1, 17779, Note_off_c, 4, 74, 64
1, 17784, Note_off_c, 0, 50, 64
1, 17785, Note_off_c, 0, 59, 64
1, 17789, Pitch_bend_c, 1, 16383
1, 17792, Note_on_c, 4, 72, 125
1, 17797, Note_off_c, 4, 72, 64
1, 17804, Note_off_c, 7, 72, 64
1, 17806, Note_off_c, 7, 77, 64
1, 17806, Pitch_bend_c, 1, 8192
1, 17807, Note_on_c, 7, 69, 80
1, 17807, Note_on_c, 7, 74, 80
1, 17808, Note_on_c, 0, 50, 89
1, 17808, Note_on_c, 0, 57, 89
1, 17808, Note_on_c, 1, 41, 126
1, 17808, Note_on_c, 6, 72, 127
1, 17808, Note_on_c, 6, 77, 100
1, 17808, Note_on_c, 9, 42, 73
1, 17808, Note_on_c, 9, 51, 126
1, 17808, Note_off_c, 9, 42, 64
1, 17808, Note_off_c, 9, 51, 64
1, 17809, Note_off_c, 1, 31, 64
1, 17816, Note_off_c, 6, 72, 64
1, 17818, Note_off_c, 6, 77, 64
1, 17821, Note_off_c, 7, 69, 64
1, 17827, Note_off_c, 7, 74, 64
1, 17832, Note_off_c, 0, 57, 64
1, 17832, Note_off_c, 0, 50, 64
1, 17840, Note_on_c, 7, 72, 80
1, 17845, Note_off_c, 7, 72, 64
1, 17855, Note_on_c, 4, 72, 125
1, 17855, Note_on_c, 4, 77, 125
1, 17856, Note_on_c, 0, 50, 89
1, 17856, Note_on_c, 0, 57, 89
1, 17856, Note_off_c, 8, 62, 64
1, 17856, Note_on_c, 8, 62, 107
1, 17856, Note_on_c, 8, 69, 113
1, 17856, Note_off_c, 8, 71, 64
1, 17856, Note_on_c, 9, 35, 127
1, 17856, Note_on_c, 9, 51, 126
1, 17856, Note_off_c, 9, 35, 64
1, 17856, Note_off_c, 9, 51, 64
1, 17880, Note_off_c, 0, 50, 64
1, 17882, Note_off_c, 0, 57, 64
1, 17901, Note_off_c, 4, 77, 64
1, 17902, Note_off_c, 4, 72, 64
1, 17903, Note_on_c, 7, 72, 80
1, 17903, Note_on_c, 7, 77, 80
1, 17904, Note_on_c, 0, 50, 89
1, 17904, Note_on_c, 0, 57, 89
1, 17904, Note_on_c, 4, 74, 125
1, 17904, Note_on_c, 6, 72, 113
1, 17904, Note_on_c, 9, 35, 127
1, 17904, Note_on_c, 9, 42, 93
1, 17904, Note_on_c, 9, 51, 126
1, 17904, Note_off_c, 9, 35, 64
1, 17904, Note_off_c, 9, 42, 64
1, 17904, Note_off_c, 9, 51, 64
1, 17905, Note_on_c, 4, 79, 125
1, 17910, Note_off_c, 6, 72, 64
1, 17927, Note_off_c, 0, 50, 64
1, 17929, Note_off_c, 0, 57, 64
1, 17948, Pitch_bend_c, 4, 9042
1, 17949, Note_off_c, 7, 77, 64
1, 17950, Note_off_c, 7, 72, 64
1, 17952, Note_on_c, 0, 50, 89
1, 17952, Note_on_c, 0, 59, 89
1, 17952, Note_on_c, 1, 38, 126
1, 17952, Note_off_c, 1, 41, 64
1, 17952, Pitch_bend_c, 4, 10062
1, 17952, Note_on_c, 6, 72, 127
1, 17952, Note_on_c, 6, 77, 125
1, 17952, Note_on_c, 7, 74, 80
1, 17952, Note_off_c, 8, 62, 64
1, 17952, Note_on_c, 8, 62, 109
1, 17952, Note_off_c, 8, 69, 64
1, 17952, Note_on_c, 8, 71, 123
1, 17952, Note_on_c, 9, 40, 127
1, 17952, Note_on_c, 9, 51, 126
1, 17952, Note_on_c, 9, 53, 126
1, 17952, Note_off_c, 9, 40, 64
1, 17952, Note_off_c, 9, 51, 64
1, 17952, Note_off_c, 9, 53, 64
1, 17953, Note_on_c, 7, 79, 80
1, 17956, Pitch_bend_c, 4, 10912
1, 17959, Pitch_bend_c, 4, 11932
1, 17963, Pitch_bend_c, 4, 13037
1, 17967, Pitch_bend_c, 4, 13717
1, 17970, Pitch_bend_c, 4, 13972
1, 17974, Pitch_bend_c, 4, 13717
1, 17976, Note_off_c, 0, 59, 64
1, 17978, Pitch_bend_c, 4, 13037
1, 17979, Note_off_c, 0, 50, 64
1, 17981, Pitch_bend_c, 4, 8192
1, 17998, Note_off_c, 6, 72, 64
1, 18000, Note_on_c, 0, 50, 89
1, 18000, Note_on_c, 0, 57, 89
1, 18000, Note_on_c, 6, 74, 109
1, 18000, Note_on_c, 9, 42, 85
1, 18000, Note_on_c, 9, 51, 126
1, 18000, Note_off_c, 9, 42, 64
1, 18000, Note_off_c, 9, 51, 64
1, 18002, Note_off_c, 6, 77, 64
1, 18003, Note_on_c, 4, 72, 125
1, 18004, Note_on_c, 4, 77, 125
1, 18005, Note_off_c, 4, 74, 64
1, 18008, Note_off_c, 6, 74, 64
1, 18010, Note_off_c, 4, 79, 64
1, 18023, Note_off_c, 4, 77, 64
1, 18025, Note_off_c, 0, 57, 64
1, 18025, Note_on_c, 4, 74, 125
1, 18026, Note_off_c, 0, 50, 64
1, 18031, Note_off_c, 4, 72, 64
1, 18040, Note_off_c, 1, 38, 64
1, 18045, Note_on_c, 4, 77, 125
1, 18047, Note_on_c, 4, 72, 125
1, 18048, Note_on_c, 0, 50, 89
1, 18048, Note_on_c, 0, 57, 89
1, 18048, Note_on_c, 1, 26, 126
1, 18048, Note_off_c, 8, 62, 64
1, 18048, Note_on_c, 8, 62, 111
1, 18048, Note_on_c, 8, 69, 111
1, 18048, Note_off_c, 8, 71, 64
1, 18048, Note_on_c, 9, 35, 127
1, 18048, Note_on_c, 9, 51, 126
1, 18048, Note_off_c, 9, 35, 64
1, 18048, Note_off_c, 9, 51, 64
1, 18049, Note_off_c, 4, 74, 64
1, 18051, Note_on_c, 7, 72, 80
1, 18052, Note_on_c, 7, 77, 80
1, 18053, Note_off_c, 7, 74, 64
1, 18058, Note_off_c, 7, 79, 64
1, 18064, Note_off_c, 1, 26, 64
1, 18071, Note_off_c, 7, 77, 64
1, 18073, Note_on_c, 7, 74, 80
1, 18074, Note_off_c, 0, 50, 64
1, 18074, Note_off_c, 0, 57, 64
1, 18078, Control_c, 4, 1, 127
1, 18079, Note_off_c, 7, 72, 64
1, 18093, Note_on_c, 7, 77, 80
1, 18095, Note_on_c, 7, 72, 80
1, 18096, Note_on_c, 0, 50, 89
1, 18096, Note_on_c, 0, 57, 89
1, 18096, Note_on_c, 1, 26, 126
1, 18096, Note_on_c, 6, 72, 127
1, 18096, Note_on_c, 6, 77, 123
1, 18096, Note_on_c, 9, 42, 89
1, 18096, Note_on_c, 9, 51, 119
1, 18096, Note_off_c, 9, 42, 64
1, 18096, Note_off_c, 9, 51, 64
1, 18097, Note_off_c, 7, 74, 64
1, 18098, Control_c, 4, 1, 0
1, 18106, Note_off_c, 6, 72, 64
1, 18106, Note_off_c, 6, 77, 64
1, 18119, Pitch_bend_c, 4, 9467
1, 18120, Note_off_c, 0, 50, 64
1, 18122, Note_off_c, 0, 57, 64
1, 18122, Pitch_bend_c, 4, 9807
1, 18126, Pitch_bend_c, 4, 10402
1, 18130, Pitch_bend_c, 4, 11507
1, 18133, Pitch_bend_c, 4, 12442
1, 18135, Note_off_c, 1, 26, 64
1, 18137, Pitch_bend_c, 4, 13547
1, 18141, Pitch_bend_c, 4, 14737
1, 18144, Note_on_c, 0, 50, 89
1, 18144, Note_on_c, 0, 59, 89
1, 18144, Note_on_c, 1, 31, 126
1, 18144, Note_off_c, 8, 62, 64
1, 18144, Note_on_c, 8, 62, 100
1, 18144, Note_off_c, 8, 69, 64
1, 18144, Note_on_c, 8, 71, 113
1, 18144, Note_on_c, 9, 40, 127
1, 18144, Note_on_c, 9, 51, 126
1, 18144, Note_on_c, 9, 53, 126
1, 18144, Pitch_bend_c, 4, 15502
1, 18144, Note_off_c, 9, 40, 64
1, 18144, Note_off_c, 9, 51, 64
1, 18144, Note_off_c, 9, 53, 64
1, 18148, Pitch_bend_c, 4, 16182
1, 18152, Pitch_bend_c, 4, 8192
1, 18155, Note_off_c, 4, 72, 64
1, 18157, Note_off_c, 4, 77, 64
1, 18172, Note_off_c, 0, 50, 64
1, 18173, Pitch_bend_c, 1, 13910
1, 18174, Note_off_c, 0, 59, 64
1, 18177, Pitch_bend_c, 1, 16383
1, 18187, Pitch_bend_c, 1, 14327
1, 18191, Pitch_bend_c, 1, 8192
1, 18191, Note_off_c, 1, 31, 64
1, 18192, Note_on_c, 0, 50, 89
1, 18192, Note_on_c, 0, 57, 89
1, 18192, Note_on_c, 1, 41, 126
1, 18192, Note_on_c, 6, 72, 126
1, 18192, Note_on_c, 6, 77, 121
1, 18192, Note_on_c, 9, 42, 83
1, 18192, Note_on_c, 9, 51, 119
1, 18192, Note_off_c, 9, 42, 64
1, 18192, Note_off_c, 9, 51, 64
1, 18200, Note_off_c, 6, 72, 64
1, 18202, Note_off_c, 6, 77, 64
1, 18203, Note_off_c, 7, 72, 64
1, 18205, Note_off_c, 7, 77, 64
1, 18217, Note_off_c, 0, 57, 64
1, 18219, Note_off_c, 0, 50, 64
1, 18225, Pitch_bend_c, 4, 1221
1, 18230, Pitch_bend_c, 4, 966
1, 18234, Pitch_bend_c, 4, 711
1, 18239, Note_on_c, 4, 69, 125
1, 18240, Note_on_c, 0, 50, 89
1, 18240, Note_on_c, 0, 57, 89
1, 18240, Note_off_c, 8, 62, 64
1, 18240, Note_on_c, 8, 62, 113
1, 18240, Note_on_c, 8, 69, 116
1, 18240, Note_off_c, 8, 71, 64
1, 18240, Note_on_c, 9, 35, 127
1, 18240, Note_on_c, 9, 51, 126
1, 18240, Note_off_c, 9, 35, 64
1, 18240, Note_off_c, 9, 51, 64
1, 18248, Pitch_bend_c, 4, 1391
1, 18252, Pitch_bend_c, 4, 2071
1, 18256, Pitch_bend_c, 4, 3006
1, 18259, Pitch_bend_c, 4, 4791
1, 18263, Pitch_bend_c, 4, 6746
1, 18265, Note_off_c, 0, 50, 64
1, 18265, Note_off_c, 0, 57, 64
1, 18267, Pitch_bend_c, 4, 8192
1, 18287, Note_on_c, 7, 69, 80
1, 18288, Note_on_c, 0, 50, 89
1, 18288, Note_on_c, 0, 57, 89
1, 18288, Note_on_c, 6, 72, 109
1, 18288, Note_on_c, 6, 77, 85
1, 18288, Note_on_c, 9, 35, 127
1, 18288, Note_on_c, 9, 42, 81
1, 18288, Note_on_c, 9, 51, 126
1, 18288, Note_off_c, 9, 35, 64
1, 18288, Note_off_c, 9, 42, 64
1, 18288, Note_off_c, 9, 51, 64
1, 18289, Note_on_c, 4, 77, 125
1, 18292, Note_off_c, 4, 69, 64
1, 18294, Note_off_c, 6, 72, 64
1, 18296, Note_off_c, 6, 77, 64
1, 18309, Note_off_c, 0, 50, 64
1, 18310, Note_off_c, 0, 57, 64
1, 18312, Note_on_c, 4, 74, 125
1, 18317, Note_off_c, 4, 77, 64
1, 18332, Note_on_c, 9, 40, 127
1, 18333, Note_off_c, 9, 40, 64
1, 18333, Pitch_bend_c, 4, 4451
1, 18334, Note_on_c, 4, 77, 125
1, 18336, Note_on_c, 0, 50, 89
1, 18336, Note_on_c, 0, 59, 89
1, 18336, Note_on_c, 1, 38, 126
1, 18336, Note_on_c, 6, 72, 127
1, 18336, Note_on_c, 6, 77, 127
1, 18336, Note_off_c, 8, 62, 64
1, 18336, Note_on_c, 8, 62, 99
1, 18336, Note_off_c, 8, 69, 64
1, 18336, Note_on_c, 8, 71, 121
1, 18336, Note_on_c, 9, 51, 126
1, 18336, Note_on_c, 9, 53, 126
1, 18336, Note_off_c, 9, 51, 64
1, 18336, Note_off_c, 9, 53, 64
1, 18337, Pitch_bend_c, 4, 6066
1, 18337, Note_on_c, 4, 69, 125
1, 18337, Note_on_c, 7, 77, 80
1, 18337, Note_off_c, 4, 74, 64
1, 18338, Note_on_c, 4, 71, 125
1, 18339, Note_on_c, 9, 40, 108
1, 18340, Note_off_c, 1, 41, 64
1, 18340, Note_off_c, 9, 40, 64
1, 18340, Note_off_c, 7, 69, 64
1, 18341, Pitch_bend_c, 4, 8192
1, 18342, Note_off_c, 4, 71, 64
1, 18358, Note_on_c, 4, 74, 125
1, 18360, Note_on_c, 7, 74, 80
1, 18361, Note_on_c, 4, 68, 125
1, 18362, Note_off_c, 0, 50, 64
1, 18365, Note_off_c, 4, 77, 64
1, 18365, Note_off_c, 7, 77, 64
1, 18366, Note_off_c, 0, 59, 64
1, 18366, Note_off_c, 4, 69, 64
1, 18378, Note_on_c, 4, 67, 125
1, 18380, Note_on_c, 4, 72, 125
1, 18382, Note_on_c, 7, 77, 80
1, 18382, Note_off_c, 6, 72, 64
1, 18383, Note_off_c, 4, 74, 64
1, 18384, Note_on_c, 0, 50, 89
1, 18384, Note_on_c, 0, 57, 89
1, 18384, Note_off_c, 4, 68, 64
1, 18384, Note_on_c, 6, 74, 111
1, 18384, Note_on_c, 9, 42, 81
1, 18384, Note_on_c, 9, 51, 126
1, 18384, Note_off_c, 9, 42, 64
1, 18384, Note_off_c, 9, 51, 64
1, 18385, Note_on_c, 7, 69, 80
1, 18385, Note_off_c, 7, 74, 64
1, 18386, Note_on_c, 7, 71, 80
1, 18386, Note_off_c, 6, 77, 64
1, 18390, Note_off_c, 7, 71, 64
1, 18392, Note_off_c, 6, 74, 64
1, 18405, Control_c, 4, 1, 127
1, 18406, Note_on_c, 7, 74, 80
1, 18407, Note_off_c, 0, 50, 64
1, 18407, Note_off_c, 4, 67, 64
1, 18408, Note_off_c, 0, 57, 64
1, 18408, Note_on_c, 4, 65, 125
1, 18409, Note_on_c, 7, 68, 80
1, 18413, Note_off_c, 7, 77, 64
1, 18414, Note_off_c, 7, 69, 64
1, 18425, Note_off_c, 1, 38, 64
1, 18426, Note_on_c, 7, 67, 80
1, 18428, Note_on_c, 7, 72, 80
1, 18431, Note_off_c, 7, 74, 64
1, 18432, Note_on_c, 0, 50, 89
1, 18432, Note_on_c, 0, 57, 89
1, 18432, Note_on_c, 1, 26, 126
1, 18432, Note_off_c, 7, 68, 64
1, 18432, Note_off_c, 8, 62, 64
1, 18432, Note_on_c, 8, 62, 103
1, 18432, Note_on_c, 8, 69, 111
1, 18432, Note_off_c, 8, 71, 64
1, 18432, Note_on_c, 9, 35, 127
1, 18432, Note_on_c, 9, 51, 126
1, 18432, Note_off_c, 9, 35, 64
1, 18432, Note_off_c, 9, 51, 64
1, 18433, Note_on_c, 4, 67, 125
1, 18435, Pitch_bend_c, 4, 2751
1, 18436, Note_off_c, 4, 65, 64
1, 18439, Pitch_bend_c, 4, 3601
1, 18443, Pitch_bend_c, 4, 4451
1, 18443, Note_off_c, 4, 72, 64
1, 18446, Pitch_bend_c, 4, 5471
1, 18447, Note_off_c, 1, 26, 64
1, 18447, Control_c, 4, 1, 0
1, 18450, Pitch_bend_c, 4, 6576
1, 18454, Pitch_bend_c, 4, 7426
1, 18455, Note_off_c, 7, 67, 64
1, 18456, Note_on_c, 7, 65, 80
1, 18457, Note_off_c, 0, 50, 64
1, 18457, Note_off_c, 0, 57, 64
1, 18457, Pitch_bend_c, 4, 8192
1, 18463, Pitch_bend_c, 4, 8447
1, 18467, Pitch_bend_c, 4, 9042
1, 18470, Pitch_bend_c, 4, 9552
1, 18474, Pitch_bend_c, 4, 9807
1, 18476, Note_on_c, 9, 42, 85
1, 18477, Note_off_c, 9, 42, 64
1, 18480, Note_on_c, 0, 50, 89
1, 18480, Note_on_c, 0, 57, 89
1, 18480, Note_on_c, 1, 26, 126
1, 18480, Pitch_bend_c, 4, 10062
1, 18480, Note_on_c, 6, 72, 127
1, 18480, Note_on_c, 6, 77, 118
1, 18481, Note_on_c, 7, 67, 80
1, 18483, Pitch_bend_c, 4, 10317
1, 18483, Note_on_c, 9, 42, 126
1, 18484, Note_off_c, 7, 65, 64
1, 18484, Note_off_c, 9, 42, 64
1, 18487, Pitch_bend_c, 4, 10657
1, 18490, Pitch_bend_c, 4, 10997
1, 18490, Note_off_c, 6, 72, 64
1, 18491, Note_off_c, 6, 77, 64
1, 18491, Note_off_c, 7, 72, 64
1, 18496, Pitch_bend_c, 4, 11252
1, 18503, Note_off_c, 0, 50, 64
1, 18504, Note_on_c, 9, 40, 127
1, 18504, Note_off_c, 9, 40, 64
1, 18506, Note_off_c, 0, 57, 64
1, 18518, Pitch_bend_c, 4, 10827
1, 18522, Note_off_c, 1, 26, 64
1, 18522, Pitch_bend_c, 4, 8192
1, 18528, Note_on_c, 0, 50, 89
1, 18528, Note_on_c, 0, 59, 89
1, 18528, Note_on_c, 1, 31, 126
1, 18528, Note_off_c, 8, 62, 64
1, 18528, Note_on_c, 8, 62, 103
1, 18528, Note_off_c, 8, 69, 64
1, 18528, Note_on_c, 8, 71, 107
1, 18528, Note_on_c, 9, 40, 127
1, 18528, Note_on_c, 9, 53, 126
1, 18528, Note_off_c, 9, 40, 64
1, 18528, Note_off_c, 9, 53, 64
1, 18536, Note_on_c, 4, 65, 125
1, 18540, Note_off_c, 4, 67, 64
1, 18549, Note_off_c, 0, 50, 64
1, 18549, Pitch_bend_c, 1, 9541
1, 18552, Note_on_c, 4, 62, 125
1, 18552, Note_on_c, 9, 35, 127
1, 18552, Note_off_c, 9, 35, 64
1, 18553, Pitch_bend_c, 1, 16383
1, 18553, Note_off_c, 4, 65, 64
1, 18557, Note_off_c, 0, 59, 64
1, 18565, Note_off_c, 4, 62, 64
1, 18569, Pitch_bend_c, 1, 15773
1, 18574, Pitch_bend_c, 1, 8192
1, 18576, Note_on_c, 0, 50, 89
1, 18576, Note_on_c, 0, 57, 89
1, 18576, Note_on_c, 1, 41, 126
1, 18576, Note_on_c, 6, 74, 127
1, 18576, Note_on_c, 6, 77, 118
1, 18576, Note_on_c, 9, 42, 126
1, 18576, Note_on_c, 9, 43, 52
1, 18576, Note_off_c, 9, 42, 64
1, 18576, Note_off_c, 9, 43, 64
1, 18577, Note_off_c, 1, 31, 64
1, 18584, Note_on_c, 7, 65, 80
1, 18586, Note_off_c, 6, 74, 64
1, 18588, Note_off_c, 6, 77, 64
1, 18588, Note_off_c, 7, 67, 64
1, 18597, Note_off_c, 0, 50, 64
1, 18599, Note_off_c, 0, 57, 64
1, 18600, Note_on_c, 7, 62, 80
1, 18600, Note_on_c, 9, 35, 127
1, 18600, Note_off_c, 9, 35, 64
1, 18601, Note_off_c, 7, 65, 64
1, 18613, Note_off_c, 7, 62, 64
1, 18621, Note_on_c, 4, 72, 125
1, 18624, Note_on_c, 0, 50, 89
1, 18624, Note_on_c, 0, 57, 89
1, 18624, Pitch_bend_c, 4, 8447
1, 18624, Note_off_c, 8, 62, 64
1, 18624, Note_on_c, 8, 62, 111
1, 18624, Note_on_c, 8, 69, 111
1, 18624, Note_off_c, 8, 71, 64
1, 18628, Pitch_bend_c, 4, 9977
1, 18632, Pitch_bend_c, 4, 11252
1, 18637, Pitch_bend_c, 4, 12187
1, 18641, Pitch_bend_c, 4, 13207
1, 18645, Pitch_bend_c, 4, 14397
1, 18647, Note_off_c, 0, 50, 64
1, 18648, Note_on_c, 6, 72, 127
1, 18648, Note_on_c, 6, 77, 116
1, 18648, Note_on_c, 9, 40, 127
1, 18648, Note_off_c, 0, 57, 64
1, 18648, Note_off_c, 9, 40, 64
1, 18649, Pitch_bend_c, 4, 15332
1, 18653, Pitch_bend_c, 4, 16012
1, 18657, Note_off_c, 6, 72, 64
1, 18657, Pitch_bend_c, 4, 16383
1, 18658, Note_off_c, 4, 72, 64
1, 18660, Note_off_c, 6, 77, 64
1, 18669, Note_on_c, 7, 72, 80
1, 18672, Note_on_c, 0, 50, 89
1, 18672, Note_on_c, 0, 57, 89
1, 18672, Note_on_c, 9, 40, 122
1, 18672, Note_on_c, 9, 42, 126
1, 18672, Note_on_c, 9, 44, 125
1, 18672, Note_off_c, 9, 40, 64
1, 18672, Note_off_c, 9, 42, 64
1, 18672, Note_off_c, 9, 44, 64
1, 18674, Note_on_c, 4, 72, 125
1, 18682, Pitch_bend_c, 4, 8192
1, 18686, Note_off_c, 4, 72, 64
1, 18694, Note_off_c, 0, 50, 64
1, 18696, Note_on_c, 4, 72, 125
1, 18696, Note_on_c, 9, 35, 127
1, 18696, Note_off_c, 9, 35, 64
1, 18699, Note_off_c, 0, 57, 64
1, 18699, Pitch_bend_c, 4, 9467
1, 18703, Pitch_bend_c, 4, 11847
1, 18706, Note_off_c, 7, 72, 64
1, 18707, Pitch_bend_c, 4, 13122
1, 18712, Pitch_bend_c, 4, 13802
1, 18716, Pitch_bend_c, 4, 14567
1, 18720, Note_on_c, 0, 50, 89
1, 18720, Note_on_c, 0, 59, 89
1, 18720, Note_on_c, 1, 38, 126
1, 18720, Pitch_bend_c, 4, 15502
1, 18720, Note_on_c, 6, 74, 127
1, 18720, Note_on_c, 6, 77, 125
1, 18720, Note_off_c, 8, 62, 64
1, 18720, Note_off_c, 8, 69, 64
1, 18720, Note_on_c, 8, 71, 109
1, 18720, Note_on_c, 9, 40, 127
1, 18720, Note_off_c, 9, 40, 64
1, 18722, Note_on_c, 7, 72, 80
1, 18724, Pitch_bend_c, 4, 16383
1, 18725, Note_off_c, 1, 41, 64
1, 18726, Note_off_c, 4, 72, 64
1, 18734, Note_off_c, 7, 72, 64
1, 18741, Note_off_c, 0, 50, 64
1, 18743, Note_on_c, 9, 43, 115
1, 18744, Note_on_c, 4, 72, 125
1, 18744, Note_on_c, 7, 72, 80
1, 18744, Note_off_c, 9, 43, 64
1, 18753, Pitch_bend_c, 4, 8192
1, 18756, Note_off_c, 4, 72, 64
1, 18761, Note_off_c, 0, 59, 64
1, 18767, Note_off_c, 6, 74, 64
1, 18767, Note_on_c, 9, 45, 88
1, 18768, Note_on_c, 0, 50, 89
1, 18768, Note_on_c, 0, 57, 89
1, 18768, Note_on_c, 4, 72, 125
1, 18768, Note_on_c, 6, 72, 121
1, 18768, Note_on_c, 9, 42, 125
1, 18768, Note_off_c, 9, 45, 64
1, 18768, Pitch_bend_c, 4, 7936
1, 18768, Note_off_c, 9, 42, 64
1, 18772, Pitch_bend_c, 4, 9977
1, 18774, Note_off_c, 7, 72, 64
1, 18776, Pitch_bend_c, 4, 13972
1, 18781, Pitch_bend_c, 4, 15587
1, 18784, Note_off_c, 0, 57, 64
1, 18785, Pitch_bend_c, 4, 16383
1, 18787, Note_off_c, 0, 50, 64
1, 18790, Note_off_c, 1, 38, 64
1, 18792, Note_on_c, 7, 72, 80
1, 18792, Note_on_c, 9, 35, 127
1, 18792, Note_off_c, 9, 35, 64
1, 18802, Note_off_c, 4, 72, 64
1, 18804, Note_off_c, 7, 72, 64
1, 18810, Pitch_bend_c, 4, 8192
1, 18810, Note_off_c, 6, 77, 64
1, 18810, Note_off_c, 6, 72, 64
1, 18816, Note_on_c, 0, 45, 89
1, 18816, Note_on_c, 0, 52, 89
1, 18816, Note_on_c, 1, 21, 126
1, 18816, Note_on_c, 4, 76, 118
1, 18816, Note_on_c, 4, 81, 114
1, 18816, Pitch_bend_c, 4, 1561
1, 18816, Note_on_c, 7, 72, 80
1, 18816, Note_on_c, 8, 57, 118
1, 18816, Note_on_c, 8, 64, 118
1, 18816, Note_off_c, 8, 71, 64
1, 18816, Note_on_c, 9, 35, 127
1, 18816, Note_on_c, 9, 49, 126
1, 18816, Note_off_c, 9, 35, 64
1, 18816, Note_off_c, 9, 49, 64
1, 18825, Pitch_bend_c, 4, 2836
1, 18828, Pitch_bend_c, 4, 4791
1, 18833, Pitch_bend_c, 4, 7171
1, 18837, Pitch_bend_c, 4, 7596
1, 18838, Note_off_c, 0, 45, 64
1, 18840, Note_off_c, 1, 21, 64
1, 18840, Pitch_bend_c, 4, 7851
1, 18842, Note_off_c, 0, 52, 64
1, 18844, Pitch_bend_c, 4, 8106
1, 18849, Pitch_bend_c, 4, 8192
1, 18850, Note_off_c, 7, 72, 64
1, 18863, Note_on_c, 4, 74, 104
1, 18864, Note_on_c, 0, 43, 89
1, 18864, Note_on_c, 0, 45, 89
1, 18864, Note_on_c, 0, 52, 89
1, 18864, Note_on_c, 1, 21, 108
1, 18864, Note_on_c, 6, 74, 100
1, 18864, Note_on_c, 6, 76, 89
1, 18864, Note_on_c, 7, 76, 73
1, 18864, Note_on_c, 7, 81, 69
1, 18864, Note_on_c, 8, 69, 103
1, 18864, Note_on_c, 9, 42, 99
1, 18864, Note_on_c, 9, 51, 113
1, 18864, Note_off_c, 9, 42, 64
1, 18864, Note_off_c, 9, 51, 64
1, 18868, Note_off_c, 4, 76, 64
1, 18869, Note_off_c, 6, 74, 64
1, 18874, Note_off_c, 0, 43, 64
1, 18878, Note_off_c, 4, 81, 64
1, 18881, Note_off_c, 0, 45, 64
1, 18885, Note_off_c, 4, 74, 64
1, 18886, Note_on_c, 4, 72, 107
1, 18888, Note_off_c, 0, 52, 64
1, 18911, Note_on_c, 7, 74, 59
1, 18911, Note_off_c, 1, 21, 64
1, 18912, Note_on_c, 0, 45, 89
1, 18912, Note_on_c, 0, 54, 89
1, 18912, Note_on_c, 1, 26, 110
1, 18912, Note_off_c, 8, 57, 64
1, 18912, Note_on_c, 8, 57, 80
1, 18912, Note_off_c, 8, 64, 64
1, 18912, Note_on_c, 8, 66, 126
1, 18912, Note_on_c, 9, 40, 127
1, 18912, Note_on_c, 9, 51, 126
1, 18912, Note_on_c, 9, 53, 126
1, 18912, Note_off_c, 9, 40, 64
1, 18912, Note_off_c, 9, 51, 64
1, 18912, Note_off_c, 9, 53, 64
1, 18914, Note_on_c, 4, 69, 108
1, 18914, Note_off_c, 4, 72, 64
1, 18916, Note_off_c, 7, 76, 64
1, 18926, Note_off_c, 7, 81, 64
1, 18930, Note_off_c, 4, 69, 64
1, 18932, Pitch_bend_c, 1, 10697
1, 18933, Note_off_c, 7, 74, 64
1, 18934, Note_on_c, 7, 72, 62
1, 18936, Note_off_c, 0, 45, 64
1, 18937, Pitch_bend_c, 1, 16383
1, 18938, Note_off_c, 0, 54, 64
1, 18952, Pitch_bend_c, 1, 15516
1, 18956, Pitch_bend_c, 1, 9958
1, 18957, Note_on_c, 4, 76, 107
1, 18958, Note_on_c, 4, 81, 110
1, 18959, Pitch_bend_c, 1, 8192
1, 18960, Note_on_c, 0, 45, 89
1, 18960, Note_on_c, 0, 52, 89
1, 18960, Note_on_c, 1, 33, 117
1, 18960, Note_on_c, 9, 42, 93
1, 18960, Note_on_c, 9, 51, 126
1, 18960, Note_off_c, 9, 42, 64
1, 18960, Note_off_c, 9, 51, 64
1, 18961, Note_off_c, 1, 26, 64
1, 18961, Pitch_bend_c, 4, 1051
1, 18962, Note_on_c, 7, 69, 63
1, 18962, Note_off_c, 7, 72, 64
1, 18965, Pitch_bend_c, 4, 796
1, 18970, Pitch_bend_c, 4, 1476
1, 18973, Pitch_bend_c, 4, 3176
1, 18978, Pitch_bend_c, 4, 5811
1, 18978, Note_off_c, 7, 69, 64
1, 18980, Note_off_c, 0, 45, 64
1, 18982, Pitch_bend_c, 4, 6916
1, 18985, Note_off_c, 0, 52, 64
1, 18987, Pitch_bend_c, 4, 7426
1, 18992, Pitch_bend_c, 4, 8192
1, 19005, Note_on_c, 7, 76, 62
1, 19006, Note_on_c, 7, 81, 65
1, 19007, Note_on_c, 4, 74, 108
1, 19008, Note_on_c, 0, 45, 89
1, 19008, Note_on_c, 0, 52, 89
1, 19008, Note_off_c, 8, 57, 64
1, 19008, Note_on_c, 8, 57, 109
1, 19008, Note_on_c, 8, 64, 111
1, 19008, Note_off_c, 8, 66, 64
1, 19008, Note_on_c, 9, 35, 127
1, 19008, Note_on_c, 9, 51, 126
1, 19008, Note_off_c, 9, 35, 64
1, 19008, Note_off_c, 9, 51, 64
1, 19011, Note_off_c, 4, 76, 64
1, 19013, Note_off_c, 4, 81, 64
1, 19029, Note_off_c, 0, 45, 64
1, 19029, Note_off_c, 4, 74, 64
1, 19030, Note_on_c, 4, 72, 103
1, 19032, Note_off_c, 0, 52, 64
1, 19055, Note_on_c, 7, 74, 63
1, 19056, Note_on_c, 0, 45, 89
1, 19056, Note_on_c, 0, 52, 89
1, 19056, Note_on_c, 4, 69, 113
1, 19056, Note_on_c, 9, 35, 127
1, 19056, Note_on_c, 9, 42, 113
1, 19056, Note_on_c, 9, 51, 126
1, 19056, Note_off_c, 9, 35, 64
1, 19056, Note_off_c, 9, 42, 64
1, 19056, Note_off_c, 9, 51, 64
1, 19058, Note_off_c, 4, 72, 64
1, 19059, Note_off_c, 7, 76, 64
1, 19061, Note_off_c, 7, 81, 64
1, 19077, Note_off_c, 7, 74, 64
1, 19078, Note_on_c, 7, 72, 58
1, 19081, Note_off_c, 0, 45, 64
1, 19081, Note_off_c, 0, 52, 64
1, 19100, Note_off_c, 4, 69, 64
1, 19104, Note_on_c, 0, 45, 89
1, 19104, Note_on_c, 0, 54, 89
1, 19104, Note_on_c, 1, 28, 106
1, 19104, Note_on_c, 7, 69, 68
1, 19104, Note_off_c, 8, 57, 64
1, 19104, Note_on_c, 8, 57, 111
1, 19104, Note_off_c, 8, 64, 64
1, 19104, Note_on_c, 8, 66, 120
1, 19104, Note_on_c, 9, 40, 127
1, 19104, Note_on_c, 9, 51, 126
1, 19104, Note_on_c, 9, 53, 126
1, 19104, Note_off_c, 9, 40, 64
1, 19104, Note_off_c, 9, 51, 64
1, 19104, Note_off_c, 9, 53, 64
1, 19105, Note_on_c, 4, 76, 111
1, 19106, Note_off_c, 1, 33, 64
1, 19106, Note_on_c, 4, 81, 110
1, 19106, Note_off_c, 7, 72, 64
1, 19112, Pitch_bend_c, 4, 0
1, 19118, Pitch_bend_c, 4, 456
1, 19122, Pitch_bend_c, 4, 966
1, 19125, Note_off_c, 0, 45, 64
1, 19127, Pitch_bend_c, 4, 1901
1, 19130, Note_off_c, 0, 54, 64
1, 19130, Pitch_bend_c, 4, 2921
1, 19135, Pitch_bend_c, 4, 5046
1, 19140, Pitch_bend_c, 4, 6236
1, 19144, Pitch_bend_c, 4, 8192
1, 19148, Note_off_c, 7, 69, 64
1, 19151, Note_on_c, 4, 74, 103
1, 19152, Note_on_c, 0, 45, 89
1, 19152, Note_on_c, 0, 52, 89
1, 19152, Note_on_c, 9, 42, 89
1, 19152, Note_on_c, 9, 51, 126
1, 19152, Note_off_c, 9, 42, 64
1, 19152, Note_off_c, 9, 51, 64
1, 19153, Note_on_c, 7, 76, 66
1, 19154, Note_on_c, 7, 81, 65
1, 19155, Note_off_c, 4, 81, 64
1, 19155, Note_off_c, 4, 76, 64
1, 19173, Note_off_c, 4, 74, 64
1, 19173, Note_off_c, 0, 45, 64
1, 19173, Note_on_c, 4, 72, 105
1, 19174, Note_off_c, 0, 52, 64
1, 19193, Note_off_c, 1, 28, 64
1, 19199, Note_on_c, 7, 74, 58
1, 19200, Note_on_c, 0, 45, 89
1, 19200, Note_on_c, 0, 52, 89
1, 19200, Note_on_c, 1, 21, 98
1, 19200, Note_off_c, 8, 57, 64
1, 19200, Note_on_c, 8, 57, 111
1, 19200, Note_on_c, 8, 64, 116
1, 19200, Note_off_c, 8, 66, 64
1, 19200, Note_on_c, 9, 35, 127
1, 19200, Note_on_c, 9, 51, 126
1, 19200, Note_off_c, 9, 35, 64
1, 19200, Note_off_c, 9, 51, 64
1, 19201, Note_on_c, 4, 69, 115
1, 19202, Note_off_c, 4, 72, 64
1, 19203, Note_off_c, 7, 81, 64
1, 19203, Note_off_c, 7, 76, 64
1, 19219, Note_off_c, 1, 21, 64
1, 19221, Note_off_c, 0, 45, 64
1, 19221, Note_off_c, 7, 74, 64
1, 19221, Note_on_c, 7, 72, 60
1, 19225, Note_off_c, 0, 52, 64
1, 19239, Note_off_c, 4, 69, 64
1, 19244, Note_on_c, 4, 76, 110
1, 19245, Pitch_bend_c, 4, 0
1, 19245, Note_on_c, 4, 81, 109
1, 19248, Note_on_c, 0, 45, 89
1, 19248, Note_on_c, 0, 52, 89
1, 19248, Note_on_c, 1, 21, 95
1, 19248, Note_on_c, 9, 42, 87
1, 19248, Note_on_c, 9, 51, 126
1, 19248, Note_off_c, 9, 42, 64
1, 19248, Note_off_c, 9, 51, 64
1, 19249, Note_on_c, 7, 69, 70
1, 19250, Note_off_c, 7, 72, 64
1, 19251, Pitch_bend_c, 4, 286
1, 19255, Pitch_bend_c, 4, 1221
1, 19258, Pitch_bend_c, 4, 3006
1, 19263, Pitch_bend_c, 4, 5641
1, 19267, Pitch_bend_c, 4, 6406
1, 19270, Note_off_c, 0, 45, 64
1, 19270, Pitch_bend_c, 4, 6661
1, 19272, Note_off_c, 0, 52, 64
1, 19279, Pitch_bend_c, 4, 8192
1, 19287, Note_off_c, 7, 69, 64
1, 19292, Note_on_c, 7, 76, 65
1, 19293, Note_on_c, 4, 74, 107
1, 19293, Note_on_c, 7, 81, 64
1, 19296, Note_on_c, 0, 45, 89
1, 19296, Note_on_c, 0, 54, 89
1, 19296, Note_on_c, 1, 26, 112
1, 19296, Note_off_c, 4, 76, 64
1, 19296, Note_off_c, 4, 81, 64
1, 19296, Note_off_c, 8, 57, 64
1, 19296, Note_on_c, 8, 57, 103
1, 19296, Note_off_c, 8, 64, 64
1, 19296, Note_on_c, 8, 66, 120
1, 19296, Note_on_c, 9, 40, 127
1, 19296, Note_on_c, 9, 51, 126
1, 19296, Note_on_c, 9, 53, 126
1, 19296, Note_off_c, 9, 40, 64
1, 19296, Note_off_c, 9, 51, 64
1, 19296, Note_off_c, 9, 53, 64
1, 19299, Note_off_c, 1, 21, 64
1, 19316, Note_off_c, 4, 74, 64
1, 19316, Note_on_c, 4, 72, 107
1, 19319, Note_off_c, 0, 45, 64
1, 19319, Pitch_bend_c, 1, 9991
1, 19323, Pitch_bend_c, 1, 16383
1, 19324, Note_off_c, 0, 54, 64
1, 19338, Pitch_bend_c, 1, 14135
1, 19340, Note_on_c, 4, 69, 110
1, 19341, Note_on_c, 7, 74, 62
1, 19342, Pitch_bend_c, 1, 8192
1, 19343, Note_off_c, 4, 72, 64
1, 19344, Note_on_c, 0, 45, 89
1, 19344, Note_on_c, 0, 52, 89
1, 19344, Note_on_c, 1, 33, 112
1, 19344, Note_off_c, 7, 76, 64
1, 19344, Note_off_c, 7, 81, 64
1, 19344, Note_on_c, 9, 42, 73
1, 19344, Note_on_c, 9, 51, 126
1, 19344, Note_off_c, 9, 42, 64
1, 19344, Note_off_c, 9, 51, 64
1, 19351, Note_off_c, 1, 26, 64
1, 19363, Note_off_c, 0, 45, 64
1, 19364, Note_off_c, 7, 74, 64
1, 19364, Note_on_c, 7, 72, 62
1, 19368, Note_off_c, 0, 52, 64
1, 19388, Note_off_c, 4, 69, 64
1, 19388, Note_on_c, 7, 69, 65
1, 19391, Note_off_c, 7, 72, 64
1, 19392, Note_on_c, 0, 45, 89
1, 19392, Note_on_c, 0, 52, 89
1, 19392, Note_off_c, 8, 57, 64
1, 19392, Note_on_c, 8, 57, 111
1, 19392, Note_on_c, 8, 64, 116
1, 19392, Note_off_c, 8, 66, 64
1, 19392, Note_on_c, 9, 35, 127
1, 19392, Note_on_c, 9, 51, 126
1, 19392, Note_on_c, 4, 76, 108
1, 19392, Note_off_c, 9, 35, 64
1, 19392, Note_off_c, 9, 51, 64
1, 19394, Note_on_c, 4, 81, 104
1, 19405, Note_off_c, 6, 76, 64
1, 19413, Note_off_c, 0, 45, 64
1, 19416, Note_off_c, 0, 52, 64
1, 19428, Note_off_c, 4, 81, 64
1, 19436, Note_off_c, 7, 69, 64
1, 19436, Note_off_c, 4, 76, 64
1, 19440, Note_on_c, 0, 45, 89
1, 19440, Note_on_c, 0, 52, 89
1, 19440, Note_on_c, 6, 75, 127
1, 19440, Note_on_c, 6, 76, 126
1, 19440, Note_on_c, 6, 78, 84
1, 19440, Note_on_c, 6, 79, 125
1, 19440, Note_on_c, 9, 35, 127
1, 19440, Note_on_c, 9, 42, 93
1, 19440, Note_on_c, 9, 51, 126
1, 19440, Note_on_c, 7, 76, 63
1, 19440, Note_off_c, 9, 35, 64
1, 19440, Note_off_c, 9, 42, 64
1, 19440, Note_off_c, 9, 51, 64
1, 19442, Note_on_c, 7, 81, 59
1, 19443, Note_off_c, 6, 78, 64
1, 19445, Note_on_c, 4, 69, 101
1, 19445, Note_off_c, 6, 75, 64
1, 19455, Note_off_c, 4, 69, 64
1, 19457, Note_off_c, 0, 45, 64
1, 19463, Note_off_c, 6, 76, 64
1, 19465, Note_off_c, 0, 52, 64
1, 19466, Note_off_c, 8, 69, 64
1, 19469, Note_on_c, 4, 74, 113
1, 19472, Note_on_c, 4, 81, 118
1, 19474, Note_off_c, 6, 79, 64
1, 19476, Note_off_c, 7, 81, 64
1, 19484, Note_off_c, 7, 76, 64
1, 19488, Note_on_c, 0, 45, 89
1, 19488, Note_on_c, 0, 54, 89
1, 19488, Note_on_c, 1, 28, 112
1, 19488, Note_on_c, 6, 74, 126
1, 19488, Note_on_c, 6, 78, 127
1, 19488, Note_off_c, 8, 57, 64
1, 19488, Note_on_c, 8, 57, 103
1, 19488, Note_off_c, 8, 64, 64
1, 19488, Note_on_c, 8, 66, 114
1, 19488, Note_on_c, 9, 40, 127
1, 19488, Note_on_c, 9, 51, 126
1, 19488, Note_on_c, 9, 53, 126
1, 19488, Note_off_c, 1, 33, 64
1, 19488, Note_off_c, 9, 40, 64
1, 19488, Note_off_c, 9, 51, 64
1, 19488, Note_off_c, 9, 53, 64
1, 19493, Note_on_c, 7, 69, 56
1, 19502, Note_off_c, 4, 74, 64
1, 19502, Note_off_c, 6, 74, 64
1, 19503, Note_off_c, 7, 69, 64
1, 19503, Note_off_c, 4, 81, 64
1, 19506, Note_off_c, 0, 45, 64
1, 19511, Note_on_c, 4, 69, 93
1, 19512, Note_on_c, 6, 74, 109
1, 19514, Note_off_c, 0, 54, 64
1, 19517, Note_off_c, 6, 78, 64
1, 19517, Note_on_c, 7, 74, 68
1, 19517, Note_off_c, 4, 69, 64
1, 19520, Note_on_c, 7, 81, 73
1, 19530, Note_off_c, 6, 74, 64
1, 19536, Note_on_c, 0, 45, 89
1, 19536, Note_on_c, 0, 52, 89
1, 19536, Note_on_c, 4, 76, 107
1, 19536, Note_on_c, 6, 72, 103
1, 19536, Note_on_c, 9, 42, 85
1, 19536, Note_on_c, 9, 51, 126
1, 19536, Note_on_c, 4, 81, 106
1, 19536, Note_off_c, 9, 42, 64
1, 19536, Note_off_c, 9, 51, 64
1, 19542, Note_off_c, 1, 28, 64
1, 19550, Note_off_c, 7, 74, 64
1, 19551, Note_off_c, 7, 81, 64
1, 19554, Note_off_c, 0, 45, 64
1, 19556, Note_off_c, 6, 72, 64
1, 19559, Note_off_c, 0, 52, 64
1, 19559, Note_on_c, 7, 69, 48
1, 19560, Note_off_c, 4, 81, 64
1, 19560, Note_on_c, 6, 73, 123
1, 19562, Note_off_c, 4, 76, 64
1, 19565, Note_off_c, 7, 69, 64
1, 19578, Note_off_c, 6, 73, 64
1, 19584, Note_on_c, 0, 45, 89
1, 19584, Note_on_c, 0, 52, 89
1, 19584, Note_on_c, 1, 21, 126
1, 19584, Note_on_c, 7, 76, 62
1, 19584, Note_off_c, 8, 57, 64
1, 19584, Note_on_c, 8, 57, 111
1, 19584, Note_on_c, 8, 64, 118
1, 19584, Note_off_c, 8, 66, 64
1, 19584, Note_on_c, 9, 35, 127
1, 19584, Note_on_c, 9, 49, 126
1, 19584, Note_on_c, 4, 76, 122
1, 19584, Note_on_c, 4, 81, 116
1, 19584, Note_on_c, 7, 81, 61
1, 19584, Note_off_c, 9, 35, 64
1, 19584, Note_off_c, 9, 49, 64
1, 19587, Pitch_bend_c, 4, 0
1, 19594, Pitch_bend_c, 4, 201
1, 19598, Pitch_bend_c, 4, 1391
1, 19603, Pitch_bend_c, 4, 3601
1, 19605, Note_off_c, 0, 45, 64
1, 19606, Pitch_bend_c, 4, 4706
1, 19608, Note_off_c, 1, 21, 64
1, 19608, Note_off_c, 7, 81, 64
1, 19608, Note_off_c, 0, 52, 64
1, 19610, Pitch_bend_c, 4, 5216
1, 19610, Note_off_c, 7, 76, 64
1, 19615, Pitch_bend_c, 4, 5811
1, 19618, Pitch_bend_c, 4, 8192
1, 19626, Note_on_c, 4, 74, 104
1, 19631, Note_off_c, 4, 76, 64
1, 19632, Note_on_c, 0, 45, 89
1, 19632, Note_on_c, 0, 52, 89
1, 19632, Note_on_c, 1, 21, 108
1, 19632, Note_on_c, 9, 42, 99
1, 19632, Note_on_c, 9, 51, 113
1, 19632, Note_on_c, 7, 76, 77
1, 19632, Note_on_c, 7, 81, 71
1, 19632, Note_off_c, 9, 42, 64
1, 19632, Note_off_c, 9, 51, 64
1, 19642, Note_off_c, 4, 81, 64
1, 19651, Note_off_c, 4, 74, 64
1, 19653, Note_on_c, 4, 72, 98
1, 19657, Note_off_c, 0, 45, 64
1, 19661, Note_off_c, 0, 52, 64
1, 19674, Note_on_c, 7, 74, 59
1, 19679, Note_on_c, 4, 69, 112
1, 19679, Note_off_c, 7, 76, 64
1, 19679, Note_off_c, 1, 21, 64
1, 19680, Note_on_c, 0, 45, 89
1, 19680, Note_on_c, 0, 54, 89
1, 19680, Note_on_c, 1, 26, 110
1, 19680, Note_off_c, 4, 72, 64
1, 19680, Note_on_c, 6, 76, 127
1, 19680, Note_off_c, 8, 57, 64
1, 19680, Note_on_c, 8, 57, 127
1, 19680, Note_off_c, 8, 64, 64
1, 19680, Note_on_c, 8, 66, 127
1, 19680, Note_on_c, 8, 69, 127
1, 19680, Note_on_c, 9, 40, 127
1, 19680, Note_on_c, 9, 51, 126
1, 19680, Note_on_c, 9, 53, 126
1, 19680, Note_off_c, 9, 40, 64
1, 19680, Note_off_c, 9, 51, 64
1, 19680, Note_off_c, 9, 53, 64
1, 19690, Note_off_c, 7, 81, 64
1, 19699, Note_off_c, 7, 74, 64
1, 19700, Pitch_bend_c, 1, 10697
1, 19701, Note_on_c, 7, 72, 53
1, 19704, Note_off_c, 0, 45, 64
1, 19705, Pitch_bend_c, 1, 16383
1, 19709, Note_off_c, 0, 54, 64
1, 19720, Pitch_bend_c, 1, 15516
1, 19722, Note_off_c, 4, 69, 64
1, 19724, Pitch_bend_c, 1, 9958
1, 19727, Note_on_c, 7, 69, 67
1, 19727, Pitch_bend_c, 1, 8192
1, 19728, Note_on_c, 0, 45, 89
1, 19728, Note_on_c, 0, 52, 89
1, 19728, Note_on_c, 1, 33, 117
1, 19728, Note_on_c, 4, 76, 107
1, 19728, Note_off_c, 7, 72, 64
1, 19728, Note_on_c, 9, 42, 93
1, 19728, Note_on_c, 9, 51, 126
1, 19728, Note_off_c, 9, 42, 64
1, 19728, Note_off_c, 9, 51, 64
1, 19729, Note_on_c, 4, 81, 110
1, 19729, Note_off_c, 1, 26, 64
1, 19736, Pitch_bend_c, 4, 0
1, 19744, Pitch_bend_c, 4, 1646
1, 19748, Pitch_bend_c, 4, 3261
1, 19751, Note_off_c, 0, 45, 64
1, 19751, Note_off_c, 0, 52, 64
1, 19751, Pitch_bend_c, 4, 5131
1, 19755, Pitch_bend_c, 4, 6151
1, 19760, Pitch_bend_c, 4, 8192
1, 19770, Note_off_c, 7, 69, 64
1, 19776, Note_on_c, 0, 45, 89
1, 19776, Note_on_c, 0, 52, 89
1, 19776, Note_on_c, 7, 76, 62
1, 19776, Note_off_c, 8, 57, 64
1, 19776, Note_on_c, 8, 57, 125
1, 19776, Note_on_c, 8, 64, 125
1, 19776, Note_off_c, 8, 66, 64
1, 19776, Note_on_c, 9, 35, 127
1, 19776, Note_on_c, 9, 51, 126
1, 19776, Note_off_c, 9, 35, 64
1, 19776, Note_off_c, 9, 51, 64
1, 19777, Note_on_c, 7, 81, 65
1, 19777, Note_on_c, 4, 74, 106
1, 19782, Note_off_c, 4, 76, 64
1, 19782, Note_off_c, 4, 81, 64
1, 19799, Note_off_c, 4, 74, 64
1, 19799, Note_on_c, 4, 72, 102
1, 19800, Note_off_c, 0, 45, 64
1, 19800, Note_off_c, 0, 52, 64
1, 19824, Note_on_c, 0, 45, 89
1, 19824, Note_on_c, 0, 52, 89
1, 19824, Note_on_c, 9, 35, 127
1, 19824, Note_on_c, 9, 42, 113
1, 19824, Note_on_c, 9, 51, 126
1, 19824, Note_off_c, 9, 35, 64
1, 19824, Note_off_c, 9, 42, 64
1, 19824, Note_off_c, 9, 51, 64
1, 19825, Note_on_c, 4, 69, 110
1, 19825, Note_on_c, 7, 74, 61
1, 19828, Note_off_c, 4, 72, 64
1, 19830, Note_off_c, 7, 76, 64
1, 19830, Note_off_c, 7, 81, 64
1, 19847, Note_off_c, 7, 74, 64
1, 19847, Note_on_c, 7, 72, 57
1, 19848, Note_off_c, 0, 45, 64
1, 19855, Note_off_c, 0, 52, 64
1, 19864, Note_off_c, 4, 69, 64
1, 19871, Note_on_c, 4, 76, 107
1, 19872, Note_on_c, 0, 45, 89
1, 19872, Note_on_c, 0, 54, 89
1, 19872, Note_on_c, 1, 28, 106
1, 19872, Note_on_c, 4, 81, 109
1, 19872, Note_off_c, 8, 57, 64
1, 19872, Note_on_c, 8, 57, 126
1, 19872, Note_off_c, 8, 64, 64
1, 19872, Note_on_c, 8, 66, 126
1, 19872, Note_on_c, 9, 40, 127
1, 19872, Note_on_c, 9, 51, 126
1, 19872, Note_on_c, 9, 53, 126
1, 19872, Pitch_bend_c, 4, 0
1, 19872, Note_off_c, 9, 40, 64
1, 19872, Note_off_c, 9, 51, 64
1, 19872, Note_off_c, 9, 53, 64
1, 19873, Note_on_c, 7, 69, 65
1, 19874, Note_off_c, 1, 33, 64
1, 19876, Pitch_bend_c, 4, 201
1, 19876, Note_off_c, 7, 72, 64
1, 19879, Pitch_bend_c, 4, 1306
1, 19884, Pitch_bend_c, 4, 2496
1, 19889, Pitch_bend_c, 4, 3091
1, 19893, Pitch_bend_c, 4, 4111
1, 19896, Pitch_bend_c, 4, 5641
1, 19899, Note_off_c, 0, 45, 64
1, 19900, Note_off_c, 0, 54, 64
1, 19900, Pitch_bend_c, 4, 6746
1, 19903, Pitch_bend_c, 4, 7171
1, 19908, Pitch_bend_c, 4, 8192
1, 19912, Note_off_c, 7, 69, 64
1, 19919, Note_off_c, 4, 81, 64
1, 19919, Note_on_c, 7, 76, 62
1, 19919, Note_on_c, 4, 74, 101
1, 19920, Note_on_c, 0, 45, 89
1, 19920, Note_on_c, 0, 52, 89
1, 19920, Note_on_c, 7, 81, 64
1, 19920, Note_on_c, 9, 42, 89
1, 19920, Note_on_c, 9, 51, 126
1, 19920, Note_off_c, 9, 42, 64
1, 19920, Note_off_c, 9, 51, 64
1, 19922, Note_off_c, 4, 76, 64
1, 19939, Note_off_c, 4, 74, 64
1, 19941, Note_on_c, 4, 72, 106
1, 19944, Note_off_c, 0, 45, 64
1, 19946, Note_off_c, 0, 52, 64
1, 19961, Note_off_c, 1, 28, 64
1, 19961, Note_off_c, 4, 72, 64
1, 19963, Note_on_c, 4, 69, 106
1, 19965, Note_on_c, 4, 76, 111
1, 19967, Note_off_c, 7, 81, 64
1, 19967, Note_on_c, 7, 74, 56
1, 19968, Note_on_c, 0, 45, 89
1, 19968, Note_on_c, 0, 52, 89
1, 19968, Note_on_c, 1, 21, 98
1, 19968, Note_on_c, 6, 74, 127
1, 19968, Note_on_c, 6, 79, 127
1, 19968, Note_off_c, 8, 57, 64
1, 19968, Note_on_c, 8, 57, 127
1, 19968, Note_on_c, 8, 64, 127
1, 19968, Note_off_c, 8, 66, 64
1, 19968, Note_on_c, 9, 35, 127
1, 19968, Note_on_c, 9, 51, 126
1, 19968, Note_off_c, 9, 35, 64
1, 19968, Note_off_c, 9, 51, 64
1, 19970, Note_off_c, 7, 76, 64
1, 19972, Note_off_c, 6, 76, 64
1, 19987, Note_off_c, 1, 21, 64
1, 19987, Note_off_c, 7, 74, 64
1, 19988, Pitch_bend_c, 4, 881
1, 19989, Note_on_c, 7, 72, 61
1, 19992, Pitch_bend_c, 4, 1986
1, 19992, Note_off_c, 0, 45, 64
1, 19994, Note_off_c, 0, 52, 64
1, 19995, Pitch_bend_c, 4, 3856
1, 19999, Pitch_bend_c, 4, 5471
1, 20002, Pitch_bend_c, 4, 6746
1, 20009, Note_off_c, 7, 72, 64
1, 20011, Pitch_bend_c, 4, 8192
1, 20011, Note_on_c, 7, 69, 61
1, 20013, Note_on_c, 7, 76, 66
1, 20016, Note_on_c, 0, 45, 89
1, 20016, Note_on_c, 0, 52, 89
1, 20016, Note_on_c, 1, 21, 95
1, 20016, Note_on_c, 9, 42, 87
1, 20016, Note_on_c, 9, 51, 126
1, 20016, Note_off_c, 9, 42, 64
1, 20016, Note_off_c, 9, 51, 64
1, 20024, Note_off_c, 4, 76, 64
1, 20035, Note_off_c, 0, 45, 64
1, 20040, Note_on_c, 4, 74, 125
1, 20040, Note_on_c, 4, 79, 125
1, 20044, Note_off_c, 0, 52, 64
1, 20047, Note_off_c, 4, 69, 64
1, 20062, Pitch_bend_c, 4, 31
1, 20064, Note_on_c, 0, 45, 89
1, 20064, Note_on_c, 0, 54, 89
1, 20064, Note_on_c, 1, 26, 112
1, 20064, Note_off_c, 8, 57, 64
1, 20064, Note_on_c, 8, 57, 127
1, 20064, Note_off_c, 8, 64, 64
1, 20064, Note_on_c, 8, 66, 127
1, 20064, Note_on_c, 9, 40, 127
1, 20064, Note_on_c, 9, 51, 126
1, 20064, Note_on_c, 9, 53, 126
1, 20064, Note_off_c, 9, 40, 64
1, 20064, Note_off_c, 9, 51, 64
1, 20064, Note_off_c, 9, 53, 64
1, 20067, Note_off_c, 1, 21, 64
1, 20067, Pitch_bend_c, 4, 3856
1, 20070, Pitch_bend_c, 4, 6406
1, 20072, Note_off_c, 7, 76, 64
1, 20074, Pitch_bend_c, 4, 8192
1, 20082, Note_off_c, 0, 45, 64
1, 20087, Pitch_bend_c, 1, 9991
1, 20088, Note_off_c, 4, 74, 64
1, 20088, Note_on_c, 7, 74, 80
1, 20088, Note_on_c, 7, 79, 80
1, 20089, Note_on_c, 4, 69, 115
1, 20089, Note_off_c, 4, 79, 64
1, 20091, Pitch_bend_c, 1, 16383
1, 20093, Note_off_c, 0, 54, 64
1, 20095, Note_off_c, 7, 69, 64
1, 20106, Pitch_bend_c, 1, 14135
1, 20110, Pitch_bend_c, 1, 8192
1, 20112, Note_on_c, 0, 45, 89
1, 20112, Note_on_c, 0, 52, 89
1, 20112, Note_on_c, 1, 33, 112
1, 20112, Note_on_c, 9, 42, 73
1, 20112, Note_on_c, 9, 51, 126
1, 20112, Note_off_c, 9, 42, 64
1, 20112, Note_off_c, 9, 51, 64
1, 20114, Note_on_c, 4, 76, 125
1, 20119, Note_off_c, 1, 26, 64
1, 20135, Note_off_c, 0, 45, 64
1, 20136, Note_off_c, 7, 74, 64
1, 20137, Pitch_bend_c, 4, 1306
1, 20137, Note_on_c, 7, 69, 70
1, 20137, Note_off_c, 7, 79, 64
1, 20139, Note_off_c, 0, 52, 64
1, 20140, Pitch_bend_c, 4, 4111
1, 20144, Pitch_bend_c, 4, 7001
1, 20147, Pitch_bend_c, 4, 8192
1, 20154, Pitch_bend_c, 4, 8362
1, 20157, Note_off_c, 4, 69, 64
1, 20157, Pitch_bend_c, 4, 8192
1, 20160, Note_on_c, 0, 45, 89
1, 20160, Note_on_c, 0, 52, 89
1, 20160, Note_off_c, 8, 57, 64
1, 20160, Note_on_c, 8, 57, 127
1, 20160, Note_on_c, 8, 64, 127
1, 20160, Note_off_c, 8, 66, 64
1, 20160, Note_on_c, 9, 35, 127
1, 20160, Note_on_c, 9, 51, 126
1, 20160, Note_off_c, 9, 35, 64
1, 20160, Note_off_c, 9, 51, 64
1, 20162, Note_on_c, 4, 69, 105
1, 20162, Note_on_c, 7, 76, 80
1, 20167, Note_off_c, 4, 76, 64
1, 20182, Note_off_c, 0, 45, 64
1, 20183, Note_on_c, 4, 79, 116
1, 20184, Note_on_c, 4, 74, 112
1, 20187, Note_off_c, 0, 52, 64
1, 20187, Note_off_c, 4, 69, 64
1, 20205, Note_off_c, 7, 69, 64
1, 20207, Pitch_bend_c, 4, 1136
1, 20208, Note_on_c, 0, 45, 89
1, 20208, Note_on_c, 0, 52, 89
1, 20208, Note_on_c, 9, 35, 127
1, 20208, Note_on_c, 9, 42, 93
1, 20208, Note_on_c, 9, 51, 126
1, 20208, Note_off_c, 9, 35, 64
1, 20208, Note_off_c, 9, 42, 64
1, 20208, Note_off_c, 9, 51, 64
1, 20210, Note_on_c, 7, 69, 60
1, 20212, Pitch_bend_c, 4, 4876
1, 20215, Note_off_c, 7, 76, 64
1, 20217, Pitch_bend_c, 4, 8192
1, 20222, Pitch_bend_c, 4, 8362
1, 20226, Pitch_bend_c, 4, 8192
1, 20228, Note_off_c, 0, 45, 64
1, 20231, Note_on_c, 7, 79, 71
1, 20232, Note_on_c, 4, 69, 108
1, 20232, Note_off_c, 4, 79, 64
1, 20232, Note_on_c, 7, 74, 67
1, 20233, Note_off_c, 4, 74, 64
1, 20234, Note_off_c, 0, 52, 64
1, 20235, Note_off_c, 7, 69, 64
1, 20253, Note_on_c, 4, 76, 109
1, 20256, Note_on_c, 0, 45, 89
1, 20256, Note_on_c, 0, 54, 89
1, 20256, Note_on_c, 1, 28, 112
1, 20256, Note_off_c, 8, 57, 64
1, 20256, Note_on_c, 8, 57, 32
1, 20256, Note_off_c, 8, 64, 64
1, 20256, Note_on_c, 8, 66, 114
1, 20256, Note_on_c, 9, 40, 127
1, 20256, Note_on_c, 9, 51, 126
1, 20256, Note_on_c, 9, 53, 126
1, 20256, Note_off_c, 1, 33, 64
1, 20256, Note_off_c, 9, 40, 64
1, 20256, Note_off_c, 9, 51, 64
1, 20256, Note_off_c, 9, 53, 64
1, 20258, Note_off_c, 4, 69, 64
1, 20272, Note_off_c, 0, 45, 64
1, 20277, Pitch_bend_c, 4, 3601
1, 20279, Note_off_c, 0, 54, 64
1, 20280, Note_on_c, 0, 52, 89
1, 20280, Note_on_c, 7, 69, 63
1, 20280, Note_off_c, 7, 79, 64
1, 20281, Note_off_c, 7, 74, 64
1, 20282, Pitch_bend_c, 4, 8192
1, 20287, Pitch_bend_c, 4, 8702
1, 20292, Pitch_bend_c, 4, 8192
1, 20301, Note_on_c, 7, 76, 64
1, 20304, Note_on_c, 0, 45, 89
1, 20304, Note_on_c, 0, 47, 89
1, 20304, Note_on_c, 9, 42, 85
1, 20304, Note_on_c, 9, 51, 126
1, 20304, Note_on_c, 4, 74, 120
1, 20304, Note_off_c, 9, 42, 64
1, 20304, Note_off_c, 9, 51, 64
1, 20306, Note_off_c, 7, 69, 64
1, 20307, Note_off_c, 0, 47, 64
1, 20308, Note_off_c, 4, 76, 64
1, 20310, Note_off_c, 1, 28, 64
1, 20321, Note_off_c, 4, 74, 64
1, 20324, Note_off_c, 0, 45, 64
1, 20325, Note_off_c, 0, 52, 64
1, 20325, Note_on_c, 4, 69, 112
1, 20329, Note_off_c, 4, 69, 64
1, 20351, Note_off_c, 6, 74, 64
1, 20352, Note_on_c, 1, 26, 125
1, 20352, Pitch_bend_c, 4, 0
1, 20352, Note_on_c, 4, 84, 114
1, 20352, Note_on_c, 4, 89, 108
1, 20352, Note_on_c, 8, 50, 127
1, 20352, Note_off_c, 8, 57, 64
1, 20352, Note_off_c, 8, 66, 64
1, 20352, Note_on_c, 9, 35, 127
1, 20352, Note_on_c, 9, 49, 118
1, 20352, Note_on_c, 7, 74, 75
1, 20352, Note_off_c, 9, 35, 64
1, 20352, Note_off_c, 9, 49, 64
1, 20353, Note_off_c, 8, 69, 64
1, 20355, Note_off_c, 6, 79, 64
1, 20356, Note_off_c, 7, 76, 64
1, 20369, Note_off_c, 7, 74, 64
1, 20373, Note_on_c, 7, 69, 67
1, 20376, Note_off_c, 1, 26, 64
1, 20377, Note_off_c, 7, 69, 64
1, 20377, Pitch_bend_c, 4, 201
1, 20381, Pitch_bend_c, 4, 796
1, 20384, Pitch_bend_c, 4, 1136
1, 20388, Pitch_bend_c, 4, 1476
1, 20394, Pitch_bend_c, 4, 1986
1, 20398, Pitch_bend_c, 4, 2326
1, 20400, Note_on_c, 1, 26, 126
1, 20400, Note_on_c, 7, 84, 69
1, 20400, Note_on_c, 7, 89, 63
1, 20403, Pitch_bend_c, 4, 3006
1, 20406, Pitch_bend_c, 4, 3431
1, 20410, Pitch_bend_c, 4, 3771
1, 20415, Pitch_bend_c, 4, 4026
1, 20418, Pitch_bend_c, 4, 4281
1, 20422, Pitch_bend_c, 4, 4536
1, 20425, Pitch_bend_c, 4, 4791
1, 20429, Pitch_bend_c, 4, 5131
1, 20435, Pitch_bend_c, 4, 5641
1, 20439, Pitch_bend_c, 4, 5896
1, 20442, Pitch_bend_c, 4, 6236
1, 20446, Pitch_bend_c, 4, 6576
1, 20448, Note_on_c, 1, 31, 126
1, 20448, Note_on_c, 9, 44, 125
1, 20448, Note_off_c, 1, 26, 64
1, 20448, Note_off_c, 9, 44, 64
1, 20452, Pitch_bend_c, 4, 7086
1, 20456, Pitch_bend_c, 4, 7341
1, 20459, Pitch_bend_c, 4, 7596
1, 20463, Pitch_bend_c, 4, 7851
1, 20468, Pitch_bend_c, 4, 8106
1, 20474, Pitch_bend_c, 1, 11565
1, 20475, Pitch_bend_c, 4, 8192
1, 20478, Pitch_bend_c, 1, 16383
1, 20496, Note_off_c, 1, 31, 64
1, 20496, Note_on_c, 1, 41, 126
1, 20497, Pitch_bend_c, 1, 8303
1, 20502, Pitch_bend_c, 1, 8192
1, 20510, Control_c, 4, 1, 11
1, 20519, Control_c, 4, 1, 33
1, 20527, Control_c, 4, 1, 75
1, 20536, Control_c, 4, 1, 87
1, 20544, Note_on_c, 9, 44, 116
1, 20544, Control_c, 4, 1, 101
1, 20544, Note_off_c, 9, 44, 64
1, 20555, Control_c, 4, 1, 111
1, 20563, Control_c, 4, 1, 125
1, 20580, Control_c, 4, 1, 127
1, 20640, Note_on_c, 1, 38, 126
1, 20640, Note_on_c, 9, 44, 119
1, 20640, Note_off_c, 9, 44, 64
1, 20646, Note_on_c, 6, 86, 75
1, 20647, Note_off_c, 1, 41, 64
1, 20648, Note_on_c, 6, 84, 109
1, 20649, Note_off_c, 6, 86, 64
1, 20650, Note_on_c, 6, 83, 121
1, 20650, Note_off_c, 6, 84, 64
1, 20652, Note_off_c, 6, 83, 64
1, 20652, Note_on_c, 6, 81, 111
1, 20654, Note_off_c, 6, 81, 64
1, 20655, Note_on_c, 6, 79, 121
1, 20656, Note_off_c, 6, 79, 64
1, 20657, Note_on_c, 6, 77, 118
1, 20659, Note_off_c, 6, 77, 64
1, 20659, Note_on_c, 6, 76, 123
1, 20661, Note_off_c, 6, 76, 64
1, 20662, Note_on_c, 6, 74, 116
1, 20662, Note_on_c, 6, 77, 87
1, 20664, Note_off_c, 6, 74, 64
1, 20664, Note_on_c, 6, 72, 123
1, 20665, Note_off_c, 6, 77, 64
1, 20666, Note_off_c, 6, 72, 64
1, 20667, Note_on_c, 6, 74, 82
1, 20668, Note_on_c, 8, 71, 121
1, 20669, Control_c, 4, 1, 125
1, 20669, Note_off_c, 8, 71, 64
1, 20670, Note_off_c, 6, 74, 64
1, 20670, Note_on_c, 8, 69, 123
1, 20672, Note_off_c, 8, 69, 64
1, 20673, Note_on_c, 8, 67, 121
1, 20675, Note_off_c, 8, 67, 64
1, 20676, Note_on_c, 8, 65, 126
1, 20678, Control_c, 4, 1, 127
1, 20679, Note_on_c, 8, 64, 125
1, 20679, Note_off_c, 8, 65, 64
1, 20682, Note_on_c, 8, 62, 121
1, 20683, Note_off_c, 8, 64, 64
1, 20686, Note_off_c, 8, 50, 64
1, 20686, Note_on_c, 8, 60, 116
1, 20686, Control_c, 4, 1, 121
1, 20686, Note_off_c, 8, 62, 64
1, 20689, Note_on_c, 8, 59, 123
1, 20690, Note_off_c, 8, 60, 64
1, 20693, Note_on_c, 8, 57, 123
1, 20693, Note_off_c, 8, 59, 64
1, 20696, Control_c, 4, 1, 121
1, 20696, Note_on_c, 8, 55, 118
1, 20697, Note_off_c, 8, 57, 64
1, 20700, Note_on_c, 8, 53, 121
1, 20701, Note_off_c, 8, 55, 64
1, 20704, Note_on_c, 8, 52, 121
1, 20705, Control_c, 4, 1, 101
1, 20705, Note_off_c, 8, 53, 64
1, 20709, Note_on_c, 8, 50, 118
1, 20709, Note_off_c, 8, 52, 64
1, 20713, Control_c, 4, 1, 127
1, 20713, Note_on_c, 8, 48, 121
1, 20713, Note_off_c, 8, 50, 64
1, 20717, Note_off_c, 8, 48, 64
1, 20718, Note_on_c, 8, 47, 116
1, 20721, Note_off_c, 8, 47, 64
1, 20722, Note_on_c, 8, 45, 113
1, 20725, Control_c, 4, 1, 118
1, 20725, Note_off_c, 8, 45, 64
1, 20727, Note_on_c, 8, 43, 109
1, 20729, Note_off_c, 1, 38, 64
1, 20730, Note_off_c, 8, 43, 64
1, 20734, Control_c, 4, 1, 127
1, 20736, Note_on_c, 1, 26, 126
1, 20736, Note_on_c, 2, 50, 89
1, 20736, Note_off_c, 4, 89, 64
1, 20736, Note_on_c, 9, 44, 122
1, 20736, Note_off_c, 4, 84, 64
1, 20736, Note_off_c, 9, 44, 64
1, 20752, Note_off_c, 1, 26, 64
1, 20754, Note_off_c, 2, 50, 64
1, 20784, Note_on_c, 1, 26, 126
1, 20784, Note_on_c, 2, 50, 95
1, 20784, Note_off_c, 7, 89, 64
1, 20784, Note_off_c, 7, 84, 64
1, 20808, Note_off_c, 2, 50, 64
1, 20823, Note_off_c, 1, 26, 64
1, 20832, Note_on_c, 1, 31, 126
1, 20832, Note_on_c, 2, 55, 111
1, 20832, Note_on_c, 9, 44, 124
1, 20832, Note_off_c, 9, 44, 64
1, 20853, Pitch_bend_c, 2, 10601
1, 20856, Pitch_bend_c, 2, 16383
1, 20861, Pitch_bend_c, 1, 16383
1, 20875, Pitch_bend_c, 2, 16094
1, 20878, Pitch_bend_c, 1, 8192
1, 20878, Note_off_c, 2, 55, 64
1, 20879, Pitch_bend_c, 2, 8192
1, 20880, Note_on_c, 1, 41, 126
1, 20880, Note_on_c, 2, 60, 111
1, 20880, Note_on_c, 2, 65, 105
1, 20880, Note_on_c, 9, 40, 127
1, 20880, Note_off_c, 9, 40, 64
1, 20881, Note_off_c, 1, 31, 64
1, 20888, Note_on_c, 9, 40, 127
1, 20889, Note_off_c, 9, 40, 64
1, 20904, Note_on_c, 9, 35, 127
1, 20904, Note_off_c, 9, 35, 64
1, 20924, Control_c, 2, 1, 3
1, 20928, Note_on_c, 9, 44, 126
1, 20928, Note_off_c, 9, 44, 64
1, 20932, Control_c, 2, 1, 59
1, 20939, Control_c, 2, 1, 109
1, 20948, Control_c, 2, 1, 127
1, 21010, Control_c, 2, 1, 126
1, 21017, Pitch_bend_c, 2, 8095
1, 21018, Note_off_c, 2, 60, 64
1, 21019, Control_c, 2, 1, 0
1, 21021, Pitch_bend_c, 2, 5172
1, 21022, Note_off_c, 2, 65, 64
1, 21023, Note_on_c, 9, 43, 116
1, 21024, Note_on_c, 1, 38, 126
1, 21024, Note_off_c, 1, 41, 64
1, 21024, Note_on_c, 2, 62, 123
1, 21024, Note_off_c, 9, 43, 64
1, 21024, Note_on_c, 9, 44, 126
1, 21024, Note_off_c, 9, 44, 64
1, 21026, Pitch_bend_c, 2, 8192
1, 21072, Note_on_c, 9, 35, 127
1, 21072, Note_off_c, 9, 35, 64
1, 21073, Control_c, 2, 1, 115
1, 21074, Note_on_c, 9, 41, 126
1, 21074, Note_off_c, 9, 41, 64
1, 21080, Control_c, 2, 1, 127
1, 21110, Note_off_c, 2, 62, 64
1, 21112, Note_off_c, 1, 38, 64
1, 21116, Control_c, 2, 1, 26
1, 21120, Note_on_c, 6, 74, 127
1, 21120, Note_on_c, 8, 62, 127
1, 21122, Note_on_c, 0, 50, 89
1, 21122, Note_on_c, 0, 57, 89
1, 21122, Note_on_c, 1, 26, 125
1, 21122, Note_on_c, 9, 35, 120
1, 21122, Note_on_c, 9, 40, 120
1, 21122, Note_on_c, 9, 49, 110
1, 21122, Note_off_c, 9, 35, 64
1, 21122, Note_off_c, 9, 40, 64
1, 21122, Note_off_c, 9, 49, 64
1, 21146, Note_off_c, 1, 26, 64
1, 21168, Note_on_c, 3, 77, 100
1, 21168, Note_on_c, 6, 84, 127
1, 21168, Note_on_c, 6, 89, 126
1, 21170, Note_on_c, 1, 26, 126
1, 21170, Note_on_c, 9, 35, 109
1, 21170, Note_on_c, 9, 44, 75
1, 21170, Note_off_c, 9, 35, 64
1, 21170, Note_off_c, 9, 44, 64
1, 21171, Note_on_c, 5, 72, 96
1, 21197, Control_c, 5, 1, 1
1, 21205, Control_c, 5, 1, 17
1, 21211, Note_off_c, 0, 50, 64
1, 21214, Control_c, 5, 1, 59
1, 21216, Note_off_c, 6, 74, 64
1, 21216, Note_off_c, 8, 62, 64
1, 21216, Note_on_c, 8, 62, 107
1, 21216, Note_on_c, 8, 71, 127
1, 21218, Note_on_c, 1, 31, 126
1, 21218, Note_on_c, 9, 40, 127
1, 21218, Note_on_c, 9, 44, 103
1, 21218, Note_off_c, 1, 26, 64
1, 21218, Note_off_c, 9, 40, 64
1, 21218, Note_off_c, 9, 44, 64
1, 21220, Note_off_c, 0, 57, 64
1, 21220, Note_on_c, 0, 59, 89
1, 21221, Note_on_c, 0, 50, 89
1, 21221, Control_c, 3, 1, 30
1, 21223, Control_c, 5, 1, 111
1, 21230, Control_c, 3, 1, 111
1, 21232, Control_c, 5, 1, 127
1, 21238, Control_c, 3, 1, 127
1, 21244, Pitch_bend_c, 1, 11565
1, 21248, Pitch_bend_c, 1, 16383
1, 21251, Note_off_c, 6, 84, 64
1, 21252, Control_c, 5, 1, 80
1, 21257, Note_off_c, 6, 89, 64
1, 21260, Control_c, 5, 1, 0
1, 21264, Note_on_c, 3, 74, 90
1, 21264, Note_on_c, 6, 81, 123
1, 21264, Note_on_c, 6, 86, 125
1, 21265, Control_c, 3, 1, 0
1, 21266, Note_off_c, 1, 31, 64
1, 21266, Note_on_c, 1, 41, 126
1, 21266, Note_on_c, 9, 44, 67
1, 21266, Note_off_c, 9, 44, 64
1, 21267, Note_off_c, 3, 77, 64
1, 21267, Pitch_bend_c, 1, 8303
1, 21268, Note_on_c, 5, 69, 85
1, 21270, Note_off_c, 5, 72, 64
1, 21272, Pitch_bend_c, 1, 8192
1, 21278, Note_off_c, 3, 74, 64
1, 21278, Note_off_c, 5, 69, 64
1, 21287, Note_off_c, 6, 81, 64
1, 21288, Note_off_c, 6, 86, 64
1, 21308, Note_off_c, 0, 50, 64
1, 21312, Note_on_c, 3, 77, 92
1, 21312, Note_on_c, 6, 84, 127
1, 21312, Note_on_c, 6, 89, 126
1, 21312, Note_off_c, 8, 62, 64
1, 21312, Note_on_c, 8, 62, 109
1, 21312, Note_on_c, 8, 69, 113
1, 21312, Note_off_c, 8, 71, 64
1, 21314, Note_on_c, 9, 35, 120
1, 21314, Note_on_c, 9, 40, 120
1, 21314, Note_on_c, 9, 44, 99
1, 21314, Note_off_c, 9, 35, 64
1, 21314, Note_off_c, 9, 40, 64
1, 21314, Note_off_c, 9, 44, 64
1, 21315, Note_on_c, 0, 57, 89
1, 21315, Note_on_c, 5, 72, 83
1, 21316, Note_on_c, 0, 50, 89
1, 21318, Note_off_c, 0, 59, 64
1, 21351, Note_off_c, 6, 84, 64
1, 21360, Note_on_c, 3, 74, 83
1, 21360, Note_off_c, 3, 77, 64
1, 21360, Note_on_c, 6, 81, 107
1, 21360, Note_on_c, 6, 86, 111
1, 21361, Note_on_c, 5, 69, 83
1, 21361, Note_off_c, 6, 89, 64
1, 21362, Note_on_c, 9, 35, 122
1, 21362, Note_on_c, 9, 44, 64
1, 21362, Note_off_c, 9, 35, 64
1, 21362, Note_off_c, 9, 44, 64
1, 21364, Note_off_c, 5, 72, 64
1, 21372, Note_off_c, 5, 69, 64
1, 21373, Note_off_c, 3, 74, 64
1, 21373, Note_off_c, 6, 81, 64
1, 21374, Note_off_c, 6, 86, 64
1, 21397, Note_off_c, 0, 50, 64
1, 21405, Note_on_c, 5, 67, 64
1, 21408, Note_on_c, 3, 72, 95
1, 21408, Note_on_c, 6, 79, 127
1, 21408, Note_on_c, 6, 84, 127
1, 21408, Note_off_c, 8, 62, 64
1, 21408, Note_on_c, 8, 62, 111
1, 21408, Note_off_c, 8, 69, 64
1, 21408, Note_on_c, 8, 71, 127
1, 21409, Note_on_c, 0, 50, 89
1, 21410, Note_on_c, 1, 38, 126
1, 21410, Note_on_c, 9, 40, 127
1, 21410, Note_on_c, 9, 44, 105
1, 21410, Note_off_c, 0, 57, 64
1, 21410, Note_on_c, 0, 59, 89
1, 21410, Note_off_c, 9, 40, 64
1, 21410, Note_off_c, 9, 44, 64
1, 21417, Note_off_c, 1, 41, 64
1, 21422, Note_off_c, 5, 67, 64
1, 21427, Note_off_c, 3, 72, 64
1, 21433, Note_off_c, 6, 79, 64
1, 21448, Note_off_c, 6, 84, 64
1, 21453, Note_on_c, 5, 69, 83
1, 21456, Note_on_c, 3, 74, 100
1, 21456, Note_on_c, 6, 81, 127
1, 21456, Note_on_c, 6, 86, 127
1, 21458, Note_on_c, 9, 44, 77
1, 21458, Note_off_c, 9, 44, 64
1, 21479, Control_c, 5, 1, 97
1, 21481, Note_off_c, 6, 86, 64
1, 21482, Note_off_c, 6, 81, 64
1, 21487, Control_c, 5, 1, 126
1, 21495, Control_c, 3, 1, 11
1, 21497, Note_off_c, 3, 74, 64
1, 21498, Note_off_c, 0, 50, 64
1, 21499, Note_off_c, 1, 38, 64
1, 21500, Control_c, 5, 1, 61
1, 21503, Control_c, 3, 1, 1
1, 21504, Note_off_c, 8, 62, 64
1, 21504, Note_on_c, 8, 62, 116
1, 21504, Note_on_c, 8, 69, 127
1, 21504, Note_off_c, 8, 71, 64
1, 21506, Note_on_c, 1, 26, 126
1, 21506, Note_on_c, 9, 35, 118
1, 21506, Note_on_c, 9, 40, 125
1, 21506, Note_on_c, 9, 44, 107
1, 21506, Note_off_c, 9, 35, 64
1, 21506, Note_off_c, 9, 40, 64
1, 21506, Note_off_c, 9, 44, 64
1, 21507, Note_on_c, 0, 57, 89
1, 21507, Note_on_c, 0, 50, 89
1, 21509, Control_c, 5, 1, 62
1, 21510, Note_off_c, 0, 59, 64
1, 21512, Control_c, 3, 1, 127
1, 21512, Note_off_c, 5, 69, 64
1, 21517, Control_c, 5, 1, 85
1, 21522, Note_off_c, 1, 26, 64
1, 21524, Control_c, 5, 1, 0
1, 21526, Control_c, 3, 1, 0
1, 21552, Note_on_c, 3, 77, 103
1, 21552, Note_on_c, 6, 84, 127
1, 21552, Note_on_c, 6, 89, 126
1, 21554, Note_on_c, 1, 26, 126
1, 21554, Note_on_c, 5, 72, 71
1, 21554, Note_on_c, 9, 35, 114
1, 21554, Note_on_c, 9, 44, 83
1, 21554, Note_off_c, 9, 35, 64
1, 21554, Note_off_c, 9, 44, 64
1, 21589, Control_c, 3, 1, 8
1, 21592, Note_off_c, 0, 50, 64
1, 21593, Note_off_c, 1, 26, 64
1, 21594, Control_c, 5, 1, 5
1, 21597, Control_c, 3, 1, 31
1, 21600, Note_off_c, 8, 62, 64
1, 21600, Note_on_c, 8, 62, 103
1, 21600, Note_off_c, 8, 69, 64
1, 21600, Note_on_c, 8, 71, 127
1, 21602, Note_on_c, 0, 50, 89
1, 21602, Note_on_c, 1, 31, 126
1, 21602, Note_on_c, 9, 40, 127
1, 21602, Note_on_c, 9, 44, 109
1, 21602, Note_off_c, 0, 57, 64
1, 21602, Note_off_c, 9, 40, 64
1, 21602, Note_off_c, 9, 44, 64
1, 21603, Note_on_c, 0, 59, 89
1, 21603, Control_c, 5, 1, 33
1, 21606, Control_c, 3, 1, 17
1, 21612, Control_c, 5, 1, 107
1, 21614, Control_c, 3, 1, 68
1, 21621, Control_c, 5, 1, 127
1, 21622, Control_c, 3, 1, 127
1, 21631, Pitch_bend_c, 1, 16383
1, 21647, Note_off_c, 3, 77, 64
1, 21647, Control_c, 5, 1, 0
1, 21647, Note_off_c, 6, 84, 64
1, 21648, Note_on_c, 3, 74, 93
1, 21648, Note_on_c, 6, 81, 113
1, 21648, Note_on_c, 6, 86, 113
1, 21648, Pitch_bend_c, 1, 8192
1, 21650, Note_on_c, 1, 41, 126
1, 21650, Note_on_c, 9, 44, 77
1, 21650, Note_off_c, 9, 44, 64
1, 21651, Note_off_c, 1, 31, 64
1, 21653, Note_on_c, 5, 69, 85
1, 21654, Note_off_c, 6, 89, 64
1, 21655, Note_off_c, 5, 72, 64
1, 21656, Control_c, 3, 1, 0
1, 21663, Note_off_c, 3, 74, 64
1, 21666, Note_off_c, 5, 69, 64
1, 21685, Note_off_c, 6, 81, 64
1, 21690, Note_off_c, 6, 86, 64
1, 21691, Note_off_c, 0, 50, 64
1, 21696, Note_on_c, 3, 77, 95
1, 21696, Note_on_c, 6, 84, 127
1, 21696, Note_on_c, 6, 89, 123
1, 21696, Note_off_c, 8, 62, 64
1, 21696, Note_on_c, 8, 62, 118
1, 21696, Note_on_c, 8, 69, 125
1, 21696, Note_off_c, 8, 71, 64
1, 21697, Note_on_c, 5, 72, 46
1, 21698, Note_on_c, 9, 35, 120
1, 21698, Note_on_c, 9, 40, 116
1, 21698, Note_on_c, 9, 44, 119
1, 21698, Note_on_c, 0, 57, 89
1, 21698, Note_off_c, 9, 35, 64
1, 21698, Note_off_c, 9, 40, 64
1, 21698, Note_off_c, 9, 44, 64
1, 21700, Note_on_c, 0, 50, 89
1, 21703, Note_off_c, 0, 59, 64
1, 21726, Control_c, 5, 1, 1
1, 21736, Control_c, 5, 1, 76
1, 21738, Note_off_c, 6, 84, 64
1, 21743, Note_off_c, 3, 77, 64
1, 21744, Note_on_c, 3, 74, 97
1, 21744, Note_on_c, 6, 81, 103
1, 21744, Note_on_c, 6, 86, 107
1, 21745, Control_c, 5, 1, 0
1, 21745, Note_off_c, 6, 89, 64
1, 21746, Note_on_c, 5, 69, 77
1, 21746, Note_on_c, 9, 35, 127
1, 21746, Note_on_c, 9, 44, 77
1, 21746, Note_off_c, 9, 35, 64
1, 21746, Note_off_c, 9, 44, 64
1, 21751, Note_off_c, 5, 72, 64
1, 21755, Note_off_c, 3, 74, 64
1, 21759, Note_off_c, 5, 69, 64
1, 21762, Note_off_c, 6, 81, 64
1, 21765, Note_off_c, 6, 86, 64
1, 21785, Note_off_c, 0, 50, 64
1, 21790, Note_on_c, 5, 67, 70
1, 21792, Note_on_c, 3, 72, 97
1, 21792, Note_on_c, 6, 79, 126
1, 21792, Note_on_c, 6, 84, 123
1, 21792, Note_off_c, 8, 62, 64
1, 21792, Note_on_c, 8, 62, 103
1, 21792, Note_off_c, 8, 69, 64
1, 21792, Note_on_c, 8, 71, 123
1, 21794, Note_on_c, 0, 50, 89
1, 21794, Note_on_c, 1, 38, 126
1, 21794, Note_off_c, 1, 41, 64
1, 21794, Note_on_c, 9, 40, 127
1, 21794, Note_on_c, 9, 44, 116
1, 21794, Note_on_c, 0, 59, 89
1, 21794, Note_off_c, 9, 40, 64
1, 21794, Note_off_c, 9, 44, 64
1, 21795, Note_off_c, 0, 57, 64
1, 21803, Note_off_c, 3, 72, 64
1, 21807, Note_off_c, 5, 67, 64
1, 21810, Note_off_c, 6, 79, 64
1, 21835, Note_off_c, 6, 84, 64
1, 21839, Note_on_c, 5, 69, 87
1, 21840, Note_on_c, 3, 74, 98
1, 21840, Note_on_c, 6, 81, 113
1, 21840, Note_on_c, 6, 86, 113
1, 21842, Note_on_c, 9, 44, 87
1, 21842, Note_off_c, 9, 44, 64
1, 21859, Note_off_c, 5, 69, 64
1, 21860, Note_off_c, 6, 81, 64
1, 21863, Note_off_c, 6, 86, 64
1, 21875, Control_c, 3, 1, 125
1, 21880, Note_off_c, 0, 50, 64
1, 21882, Note_off_c, 1, 38, 64
1, 21885, Control_c, 3, 1, 0
1, 21888, Note_off_c, 8, 62, 64
1, 21888, Note_on_c, 8, 62, 113
1, 21888, Note_on_c, 8, 69, 125
1, 21888, Note_off_c, 8, 71, 64
1, 21889, Note_on_c, 0, 57, 89
1, 21890, Note_on_c, 1, 26, 126
1, 21890, Note_on_c, 9, 35, 127
1, 21890, Note_on_c, 9, 40, 125
1, 21890, Note_on_c, 9, 44, 113
1, 21890, Note_off_c, 9, 35, 64
1, 21890, Note_off_c, 9, 40, 64
1, 21890, Note_off_c, 9, 44, 64
1, 21891, Note_off_c, 3, 74, 64
1, 21891, Note_on_c, 0, 50, 89
1, 21894, Note_off_c, 0, 59, 64
1, 21896, Control_c, 3, 1, 127
1, 21906, Note_off_c, 1, 26, 64
1, 21908, Control_c, 3, 1, 0
1, 21936, Note_on_c, 3, 77, 102
1, 21936, Note_on_c, 6, 84, 127
1, 21936, Note_on_c, 6, 89, 127
1, 21938, Note_on_c, 1, 26, 126
1, 21938, Note_on_c, 9, 35, 127
1, 21938, Note_on_c, 9, 44, 83
1, 21938, Note_on_c, 5, 72, 91
1, 21938, Note_off_c, 9, 35, 64
1, 21938, Note_off_c, 9, 44, 64
1, 21965, Control_c, 5, 1, 2
1, 21973, Note_off_c, 0, 50, 64
1, 21974, Control_c, 5, 1, 33
1, 21977, Note_off_c, 1, 26, 64
1, 21983, Note_on_c, 0, 50, 89
1, 21983, Control_c, 5, 1, 47
1, 21984, Note_off_c, 0, 57, 64
1, 21984, Note_off_c, 8, 62, 64
1, 21984, Note_on_c, 8, 62, 118
1, 21984, Note_off_c, 8, 69, 64
1, 21984, Note_on_c, 8, 71, 125
1, 21984, Note_on_c, 0, 59, 89
1, 21986, Note_on_c, 1, 31, 126
1, 21986, Note_on_c, 9, 40, 127
1, 21986, Note_on_c, 9, 44, 116
1, 21986, Note_off_c, 9, 40, 64
1, 21986, Note_off_c, 9, 44, 64
1, 21990, Control_c, 3, 1, 12
1, 21992, Control_c, 5, 1, 83
1, 21998, Control_c, 3, 1, 2
1, 22003, Control_c, 5, 1, 116
1, 22007, Control_c, 3, 1, 127
1, 22010, Control_c, 5, 1, 116
1, 22015, Pitch_bend_c, 1, 13910
1, 22019, Pitch_bend_c, 1, 16383
1, 22019, Control_c, 5, 1, 0
1, 22026, Note_off_c, 3, 77, 64
1, 22028, Note_off_c, 5, 72, 64
1, 22029, Pitch_bend_c, 1, 14327
1, 22029, Note_off_c, 6, 84, 64
1, 22029, Control_c, 3, 1, 0
1, 22030, Note_on_c, 5, 69, 73
1, 22032, Note_on_c, 3, 74, 86
1, 22032, Note_on_c, 6, 81, 109
1, 22032, Note_on_c, 6, 86, 109
1, 22033, Pitch_bend_c, 1, 8192
1, 22033, Note_off_c, 1, 31, 64
1, 22034, Note_on_c, 1, 41, 126
1, 22034, Note_on_c, 9, 44, 66
1, 22034, Note_off_c, 6, 89, 64
1, 22034, Note_off_c, 9, 44, 64
1, 22043, Note_off_c, 5, 69, 64
1, 22046, Note_off_c, 6, 81, 64
1, 22055, Note_off_c, 3, 74, 64
1, 22057, Note_off_c, 6, 86, 64
1, 22071, Note_off_c, 0, 50, 64
1, 22079, Note_on_c, 5, 72, 89
1, 22080, Note_on_c, 0, 57, 89
1, 22080, Note_on_c, 3, 77, 99
1, 22080, Note_on_c, 6, 84, 127
1, 22080, Note_on_c, 6, 89, 121
1, 22080, Note_off_c, 8, 62, 64
1, 22080, Note_on_c, 8, 62, 113
1, 22080, Note_on_c, 8, 69, 125
1, 22080, Note_off_c, 8, 71, 64
1, 22081, Note_on_c, 0, 50, 89
1, 22082, Note_on_c, 9, 35, 127
1, 22082, Note_on_c, 9, 40, 125
1, 22082, Note_on_c, 9, 44, 116
1, 22082, Note_off_c, 9, 35, 64
1, 22082, Note_off_c, 9, 40, 64
1, 22082, Note_off_c, 9, 44, 64
1, 22085, Note_off_c, 0, 59, 64
1, 22095, Control_c, 5, 1, 1
1, 22103, Control_c, 5, 1, 21
1, 22111, Control_c, 5, 1, 95
1, 22119, Control_c, 5, 1, 91
1, 22124, Note_off_c, 6, 84, 64
1, 22127, Control_c, 5, 1, 0
1, 22128, Note_on_c, 3, 74, 92
1, 22128, Note_on_c, 6, 81, 99
1, 22128, Note_on_c, 6, 86, 109
1, 22128, Note_on_c, 5, 69, 83
1, 22129, Note_off_c, 3, 77, 64
1, 22130, Note_off_c, 6, 89, 64
1, 22130, Note_on_c, 9, 35, 127
1, 22130, Note_on_c, 9, 44, 81
1, 22130, Note_off_c, 9, 35, 64
1, 22130, Note_off_c, 9, 44, 64
1, 22134, Note_off_c, 5, 72, 64
1, 22141, Note_off_c, 3, 74, 64
1, 22141, Note_off_c, 5, 69, 64
1, 22143, Note_off_c, 6, 81, 64
1, 22150, Note_off_c, 6, 86, 64
1, 22166, Note_off_c, 0, 50, 64
1, 22172, Note_on_c, 5, 67, 64
1, 22174, Note_on_c, 0, 59, 89
1, 22176, Note_on_c, 0, 50, 89
1, 22176, Note_on_c, 3, 72, 102
1, 22176, Note_on_c, 6, 79, 126
1, 22176, Note_on_c, 6, 84, 127
1, 22176, Note_off_c, 8, 62, 64
1, 22176, Note_on_c, 8, 62, 98
1, 22176, Note_off_c, 8, 69, 64
1, 22176, Note_on_c, 8, 71, 118
1, 22176, Note_off_c, 0, 57, 64
1, 22178, Note_on_c, 1, 38, 126
1, 22178, Note_on_c, 9, 40, 127
1, 22178, Note_on_c, 9, 44, 103
1, 22178, Note_off_c, 9, 40, 64
1, 22178, Note_off_c, 9, 44, 64
1, 22182, Note_off_c, 1, 41, 64
1, 22187, Note_off_c, 3, 72, 64
1, 22188, Note_off_c, 5, 67, 64
1, 22193, Note_off_c, 6, 79, 64
1, 22213, Note_off_c, 6, 84, 64
1, 22224, Note_on_c, 3, 74, 94
1, 22224, Note_on_c, 6, 81, 118
1, 22224, Note_on_c, 6, 86, 116
1, 22225, Note_on_c, 5, 69, 94
1, 22226, Note_on_c, 9, 44, 69
1, 22226, Note_off_c, 9, 44, 64
1, 22245, Note_off_c, 6, 81, 64
1, 22246, Note_off_c, 5, 69, 64
1, 22248, Note_off_c, 6, 86, 64
1, 22259, Control_c, 3, 1, 3
1, 22263, Note_off_c, 0, 50, 64
1, 22267, Note_off_c, 1, 38, 64
1, 22267, Control_c, 3, 1, 127
1, 22269, Note_off_c, 3, 74, 64
1, 22271, Note_on_c, 0, 57, 89
1, 22272, Note_off_c, 8, 62, 64
1, 22272, Note_on_c, 8, 62, 126
1, 22272, Note_on_c, 8, 69, 121
1, 22272, Note_off_c, 8, 71, 64
1, 22274, Note_on_c, 1, 26, 126
1, 22274, Note_on_c, 9, 35, 127
1, 22274, Note_on_c, 9, 40, 127
1, 22274, Note_on_c, 9, 44, 97
1, 22274, Note_on_c, 0, 50, 89
1, 22274, Note_off_c, 9, 35, 64
1, 22274, Note_off_c, 9, 40, 64
1, 22274, Note_off_c, 9, 44, 64
1, 22278, Note_off_c, 0, 59, 64
1, 22280, Control_c, 3, 1, 0
1, 22289, Note_off_c, 1, 26, 64
1, 22320, Note_on_c, 3, 77, 104
1, 22320, Note_on_c, 6, 84, 127
1, 22320, Note_on_c, 6, 89, 125
1, 22322, Note_on_c, 1, 26, 126
1, 22322, Note_on_c, 9, 35, 118
1, 22322, Note_on_c, 9, 44, 76
1, 22322, Note_off_c, 9, 35, 64
1, 22322, Note_off_c, 9, 44, 64
1, 22324, Note_on_c, 5, 72, 94
1, 22356, Note_off_c, 0, 50, 64
1, 22364, Note_off_c, 1, 26, 64
1, 22368, Note_off_c, 8, 62, 64
1, 22368, Note_on_c, 8, 62, 111
1, 22368, Note_off_c, 8, 69, 64
1, 22368, Note_on_c, 8, 71, 125
1, 22369, Note_on_c, 0, 50, 89
1, 22369, Control_c, 5, 1, 9
1, 22370, Note_on_c, 1, 31, 126
1, 22370, Note_on_c, 9, 40, 127
1, 22370, Note_on_c, 9, 44, 109
1, 22370, Note_on_c, 0, 59, 89
1, 22370, Note_off_c, 9, 40, 64
1, 22370, Note_off_c, 9, 44, 64
1, 22373, Note_off_c, 0, 57, 64
1, 22377, Control_c, 5, 1, 53
1, 22386, Control_c, 3, 1, 127
1, 22386, Control_c, 5, 1, 119
1, 22391, Pitch_bend_c, 1, 9541
1, 22394, Control_c, 5, 1, 126
1, 22395, Pitch_bend_c, 1, 16383
1, 22403, Control_c, 3, 1, 107
1, 22408, Control_c, 5, 1, 102
1, 22408, Note_off_c, 6, 84, 64
1, 22411, Pitch_bend_c, 1, 15773
1, 22412, Control_c, 3, 1, 0
1, 22414, Note_off_c, 3, 77, 64
1, 22415, Note_off_c, 6, 89, 64
1, 22416, Pitch_bend_c, 1, 8192
1, 22416, Note_on_c, 3, 74, 96
1, 22416, Control_c, 5, 1, 0
1, 22416, Note_on_c, 6, 81, 111
1, 22416, Note_on_c, 6, 86, 111
1, 22418, Note_on_c, 1, 41, 126
1, 22418, Note_on_c, 9, 44, 53
1, 22418, Note_off_c, 9, 44, 64
1, 22419, Note_off_c, 1, 31, 64
1, 22421, Note_on_c, 5, 69, 85
1, 22423, Note_off_c, 5, 72, 64
1, 22433, Note_off_c, 3, 74, 64
1, 22434, Note_off_c, 6, 81, 64
1, 22435, Note_off_c, 5, 69, 64
1, 22439, Note_off_c, 6, 86, 64
1, 22458, Note_off_c, 0, 50, 64
1, 22464, Note_on_c, 3, 77, 97
1, 22464, Note_on_c, 6, 84, 127
1, 22464, Note_on_c, 6, 89, 126
1, 22464, Note_off_c, 8, 62, 64
1, 22464, Note_on_c, 8, 62, 113
1, 22464, Note_on_c, 8, 69, 125
1, 22464, Note_off_c, 8, 71, 64
1, 22465, Note_on_c, 0, 57, 89
1, 22466, Note_on_c, 9, 35, 127
1, 22466, Note_on_c, 9, 40, 127
1, 22466, Note_on_c, 9, 44, 109
1, 22466, Note_off_c, 9, 35, 64
1, 22466, Note_off_c, 9, 40, 64
1, 22466, Note_off_c, 9, 44, 64
1, 22467, Note_on_c, 5, 72, 85
1, 22469, Note_on_c, 0, 50, 89
1, 22470, Note_off_c, 0, 59, 64
1, 22507, Note_off_c, 6, 84, 64
1, 22509, Note_on_c, 5, 69, 83
1, 22512, Note_on_c, 3, 74, 94
1, 22512, Note_on_c, 6, 81, 100
1, 22512, Note_on_c, 6, 86, 105
1, 22513, Note_off_c, 5, 72, 64
1, 22514, Note_on_c, 9, 35, 120
1, 22514, Note_on_c, 9, 44, 69
1, 22514, Note_off_c, 9, 35, 64
1, 22514, Note_off_c, 9, 44, 64
1, 22515, Note_off_c, 6, 89, 64
1, 22516, Note_off_c, 3, 77, 64
1, 22523, Note_off_c, 3, 74, 64
1, 22523, Note_off_c, 5, 69, 64
1, 22526, Note_off_c, 6, 81, 64
1, 22528, Note_off_c, 6, 86, 64
1, 22553, Note_off_c, 0, 50, 64
1, 22560, Note_on_c, 3, 72, 98
1, 22560, Note_on_c, 6, 79, 123
1, 22560, Note_on_c, 6, 84, 125
1, 22560, Note_off_c, 8, 62, 64
1, 22560, Note_on_c, 8, 62, 120
1, 22560, Note_off_c, 8, 69, 64
1, 22560, Note_on_c, 8, 71, 123
1, 22562, Note_on_c, 1, 38, 126
1, 22562, Note_on_c, 5, 67, 81
1, 22562, Note_on_c, 9, 40, 127
1, 22562, Note_on_c, 9, 44, 116
1, 22562, Note_off_c, 9, 40, 64
1, 22562, Note_off_c, 9, 44, 64
1, 22563, Note_on_c, 0, 50, 89
1, 22563, Note_on_c, 0, 59, 89
1, 22564, Note_off_c, 0, 57, 64
1, 22567, Note_off_c, 1, 41, 64
1, 22580, Note_off_c, 6, 79, 64
1, 22583, Note_off_c, 5, 67, 64
1, 22599, Note_off_c, 3, 72, 64
1, 22601, Note_off_c, 6, 84, 64
1, 22607, Note_on_c, 5, 69, 91
1, 22608, Note_on_c, 3, 74, 102
1, 22608, Note_on_c, 6, 81, 125
1, 22608, Note_on_c, 6, 86, 121
1, 22610, Note_on_c, 9, 44, 76
1, 22610, Note_off_c, 9, 44, 64
1, 22625, Note_off_c, 0, 59, 64
1, 22627, Note_off_c, 3, 74, 64
1, 22627, Note_off_c, 5, 69, 64
1, 22632, Note_off_c, 1, 38, 64
1, 22636, Note_off_c, 0, 50, 64
1, 22650, Note_off_c, 6, 81, 64
1, 22654, Note_off_c, 6, 86, 64
1, 22656, Note_on_c, 8, 57, 127
1, 22656, Note_off_c, 8, 62, 64
1, 22656, Note_on_c, 8, 64, 127
1, 22656, Note_off_c, 8, 71, 64
1, 22658, Note_on_c, 0, 45, 89
1, 22658, Note_on_c, 0, 52, 89
1, 22658, Note_on_c, 1, 21, 124
1, 22658, Note_on_c, 9, 35, 127
1, 22658, Note_on_c, 9, 40, 125
1, 22658, Note_on_c, 9, 49, 103
1, 22658, Note_off_c, 9, 35, 64
1, 22658, Note_off_c, 9, 40, 64
1, 22658, Note_off_c, 9, 49, 64
1, 22685, Note_off_c, 1, 21, 64
1, 22702, Note_on_c, 5, 71, 105
1, 22702, Note_on_c, 6, 88, 111
1, 22703, Note_on_c, 6, 79, 125
1, 22703, Note_on_c, 6, 85, 123
1, 22704, Note_on_c, 3, 74, 97
1, 22704, Pitch_bend_c, 3, 10657
1, 22706, Note_on_c, 1, 21, 126
1, 22706, Note_on_c, 9, 35, 127
1, 22706, Note_on_c, 9, 44, 83
1, 22706, Note_off_c, 9, 35, 64
1, 22706, Note_off_c, 9, 44, 64
1, 22707, Pitch_bend_c, 5, 9412
1, 22708, Pitch_bend_c, 3, 13377
1, 22712, Pitch_bend_c, 5, 13042
1, 22712, Pitch_bend_c, 3, 14822
1, 22715, Pitch_bend_c, 5, 14809
1, 22716, Pitch_bend_c, 3, 15842
1, 22720, Pitch_bend_c, 5, 16383
1, 22721, Pitch_bend_c, 3, 16383
1, 22738, Note_off_c, 0, 45, 64
1, 22746, Note_off_c, 0, 52, 64
1, 22751, Note_off_c, 1, 21, 64
1, 22752, Note_off_c, 8, 57, 64
1, 22752, Note_on_c, 8, 57, 127
1, 22752, Note_on_c, 8, 66, 127
1, 22754, Note_on_c, 0, 45, 89
1, 22754, Note_on_c, 0, 54, 89
1, 22754, Note_on_c, 1, 26, 122
1, 22754, Note_on_c, 9, 40, 127
1, 22754, Note_on_c, 9, 44, 116
1, 22754, Note_off_c, 9, 40, 64
1, 22754, Note_off_c, 9, 44, 64
1, 22759, Note_off_c, 8, 64, 64
1, 22781, Pitch_bend_c, 1, 16383
1, 22792, Pitch_bend_c, 3, 15842
1, 22796, Pitch_bend_c, 3, 13717
1, 22797, Note_on_c, 6, 78, 106
1, 22797, Pitch_bend_c, 1, 15323
1, 22797, Note_off_c, 6, 85, 64
1, 22798, Note_on_c, 6, 87, 84
1, 22798, Note_off_c, 6, 79, 64
1, 22798, Note_on_c, 6, 84, 99
1, 22800, Note_off_c, 3, 74, 64
1, 22800, Pitch_bend_c, 3, 11592
1, 22802, Note_on_c, 0, 52, 89
1, 22802, Note_on_c, 1, 33, 115
1, 22802, Pitch_bend_c, 1, 8192
1, 22802, Note_off_c, 5, 71, 64
1, 22802, Note_on_c, 9, 44, 59
1, 22802, Note_off_c, 9, 44, 64
1, 22803, Note_off_c, 6, 88, 64
1, 22804, Pitch_bend_c, 5, 15163
1, 22804, Pitch_bend_c, 3, 10147
1, 22805, Note_off_c, 1, 26, 64
1, 22808, Pitch_bend_c, 5, 11243
1, 22808, Pitch_bend_c, 3, 8192
1, 22813, Pitch_bend_c, 5, 9220
1, 22817, Pitch_bend_c, 5, 8609
1, 22825, Pitch_bend_c, 5, 8320
1, 22829, Pitch_bend_c, 5, 8192
1, 22839, Note_off_c, 6, 84, 64
1, 22841, Note_off_c, 6, 87, 64
1, 22844, Pitch_bend_c, 3, 8787
1, 22845, Note_on_c, 6, 88, 118
1, 22845, Note_on_c, 5, 71, 103
1, 22845, Note_on_c, 6, 85, 114
1, 22845, Note_off_c, 8, 66, 64
1, 22846, Note_off_c, 0, 54, 64
1, 22846, Note_on_c, 6, 79, 111
1, 22846, Note_off_c, 0, 45, 64
1, 22846, Note_off_c, 6, 78, 64
1, 22848, Note_on_c, 3, 74, 116
1, 22848, Note_off_c, 8, 57, 64
1, 22848, Note_on_c, 8, 57, 127
1, 22848, Note_on_c, 8, 64, 127
1, 22848, Pitch_bend_c, 3, 9297
1, 22850, Note_on_c, 0, 45, 89
1, 22850, Note_off_c, 0, 52, 64
1, 22850, Note_on_c, 0, 52, 89
1, 22850, Note_on_c, 9, 35, 127
1, 22850, Note_on_c, 9, 40, 125
1, 22850, Note_on_c, 9, 44, 116
1, 22850, Note_off_c, 9, 35, 64
1, 22850, Note_off_c, 9, 40, 64
1, 22850, Note_off_c, 9, 44, 64
1, 22851, Pitch_bend_c, 5, 9220
1, 22852, Pitch_bend_c, 3, 9892
1, 22856, Pitch_bend_c, 5, 12400
1, 22856, Pitch_bend_c, 3, 10572
1, 22860, Pitch_bend_c, 5, 14520
1, 22861, Pitch_bend_c, 3, 12102
1, 22864, Pitch_bend_c, 5, 14841
1, 22865, Pitch_bend_c, 3, 14142
1, 22867, Pitch_bend_c, 5, 14906
1, 22869, Pitch_bend_c, 3, 16383
1, 22873, Pitch_bend_c, 5, 14938
1, 22877, Pitch_bend_c, 5, 15098
1, 22881, Pitch_bend_c, 5, 15323
1, 22884, Pitch_bend_c, 5, 15709
1, 22888, Pitch_bend_c, 5, 15966
1, 22893, Pitch_bend_c, 5, 16255
1, 22898, Note_on_c, 9, 35, 127
1, 22898, Note_on_c, 9, 44, 40
1, 22898, Pitch_bend_c, 5, 16383
1, 22898, Note_off_c, 9, 35, 64
1, 22898, Note_off_c, 9, 44, 64
1, 22938, Pitch_bend_c, 3, 16352
1, 22942, Note_off_c, 1, 33, 64
1, 22942, Pitch_bend_c, 3, 14397
1, 22942, Pitch_bend_c, 5, 15869
1, 22944, Note_off_c, 8, 57, 64
1, 22944, Note_on_c, 8, 57, 127
1, 22944, Note_on_c, 8, 66, 127
1, 22946, Note_off_c, 0, 52, 64
1, 22946, Note_on_c, 0, 54, 89
1, 22946, Note_on_c, 1, 28, 115
1, 22946, Note_on_c, 9, 40, 127
1, 22946, Note_on_c, 9, 44, 105
1, 22946, Pitch_bend_c, 3, 11422
1, 22946, Note_off_c, 9, 40, 64
1, 22946, Note_off_c, 9, 44, 64
1, 22947, Pitch_bend_c, 5, 14135
1, 22947, Note_on_c, 6, 78, 110
1, 22947, Note_off_c, 6, 85, 64
1, 22948, Note_off_c, 8, 64, 64
1, 22948, Note_off_c, 6, 79, 64
1, 22948, Note_on_c, 6, 84, 72
1, 22949, Note_on_c, 6, 87, 102
1, 22950, Pitch_bend_c, 3, 9892
1, 22951, Pitch_bend_c, 5, 10505
1, 22951, Note_off_c, 5, 71, 64
1, 22954, Note_off_c, 6, 88, 64
1, 22955, Pitch_bend_c, 5, 8192
1, 22956, Note_off_c, 3, 74, 64
1, 22957, Pitch_bend_c, 3, 9212
1, 22961, Pitch_bend_c, 3, 8192
1, 22988, Pitch_bend_c, 3, 8192
1, 22989, Note_on_c, 5, 71, 101
1, 22990, Note_off_c, 6, 87, 64
1, 22991, Note_off_c, 6, 84, 64
1, 22992, Note_on_c, 3, 74, 116
1, 22992, Pitch_bend_c, 3, 8702
1, 22994, Note_on_c, 9, 44, 83
1, 22994, Note_off_c, 9, 44, 64
1, 22995, Note_on_c, 6, 88, 118
1, 22996, Note_off_c, 6, 78, 64
1, 22996, Note_on_c, 6, 79, 121
1, 22996, Note_on_c, 6, 85, 123
1, 22996, Pitch_bend_c, 3, 10062
1, 22999, Pitch_bend_c, 5, 8256
1, 23000, Pitch_bend_c, 3, 12187
1, 23003, Pitch_bend_c, 5, 9573
1, 23005, Pitch_bend_c, 3, 14822
1, 23007, Pitch_bend_c, 5, 12143
1, 23009, Pitch_bend_c, 3, 16383
1, 23011, Pitch_bend_c, 5, 13364
1, 23016, Pitch_bend_c, 5, 14263
1, 23019, Pitch_bend_c, 5, 14713
1, 23023, Pitch_bend_c, 5, 15034
1, 23027, Pitch_bend_c, 5, 15259
1, 23031, Pitch_bend_c, 5, 15355
1, 23033, Note_off_c, 0, 45, 64
1, 23034, Pitch_bend_c, 5, 15484
1, 23036, Note_off_c, 8, 57, 64
1, 23036, Note_off_c, 8, 66, 64
1, 23038, Note_off_c, 1, 28, 64
1, 23039, Pitch_bend_c, 5, 15612
1, 23040, Note_on_c, 8, 57, 127
1, 23040, Note_on_c, 8, 64, 127
1, 23042, Note_on_c, 0, 45, 89
1, 23042, Note_on_c, 0, 52, 89
1, 23042, Note_on_c, 1, 21, 120
1, 23042, Note_on_c, 9, 35, 127
1, 23042, Note_on_c, 9, 40, 127
1, 23042, Note_on_c, 9, 44, 116
1, 23042, Note_off_c, 9, 35, 64
1, 23042, Note_off_c, 9, 40, 64
1, 23042, Note_off_c, 9, 44, 64
1, 23043, Pitch_bend_c, 5, 15773
1, 23044, Note_off_c, 0, 54, 64
1, 23048, Pitch_bend_c, 5, 15837
1, 23052, Pitch_bend_c, 5, 15998
1, 23057, Pitch_bend_c, 5, 16062
1, 23060, Pitch_bend_c, 5, 16094
1, 23064, Note_off_c, 1, 21, 64
1, 23067, Pitch_bend_c, 5, 16062
1, 23079, Pitch_bend_c, 5, 15966
1, 23081, Note_off_c, 6, 88, 64
1, 23082, Pitch_bend_c, 5, 15773
1, 23084, Pitch_bend_c, 3, 15672
1, 23086, Pitch_bend_c, 5, 15291
1, 23086, Note_off_c, 6, 79, 64
1, 23086, Note_off_c, 6, 85, 64
1, 23087, Note_on_c, 6, 78, 106
1, 23087, Note_on_c, 6, 84, 99
1, 23088, Note_on_c, 6, 87, 82
1, 23088, Pitch_bend_c, 3, 14397
1, 23090, Note_on_c, 1, 21, 125
1, 23090, Note_on_c, 9, 35, 118
1, 23090, Note_on_c, 9, 44, 84
1, 23090, Note_off_c, 9, 35, 64
1, 23090, Note_off_c, 9, 44, 64
1, 23092, Pitch_bend_c, 5, 12528
1, 23092, Pitch_bend_c, 3, 12527
1, 23097, Pitch_bend_c, 3, 8192
1, 23097, Pitch_bend_c, 5, 10151
1, 23098, Note_off_c, 5, 71, 64
1, 23101, Pitch_bend_c, 5, 8192
1, 23102, Note_off_c, 3, 74, 64
1, 23126, Pitch_bend_c, 3, 9722
1, 23128, Note_off_c, 6, 84, 64
1, 23129, Note_off_c, 6, 87, 64
1, 23130, Pitch_bend_c, 3, 10062
1, 23131, Note_off_c, 0, 45, 64
1, 23132, Note_off_c, 6, 78, 64
1, 23133, Note_on_c, 6, 88, 118
1, 23134, Note_on_c, 6, 79, 126
1, 23134, Pitch_bend_c, 3, 10487
1, 23134, Note_on_c, 6, 85, 126
1, 23135, Note_on_c, 5, 71, 96
1, 23135, Note_off_c, 1, 21, 64
1, 23136, Note_on_c, 3, 74, 99
1, 23136, Note_off_c, 8, 57, 64
1, 23136, Note_on_c, 8, 57, 127
1, 23136, Note_on_c, 8, 66, 127
1, 23138, Note_on_c, 0, 45, 89
1, 23138, Note_on_c, 0, 54, 89
1, 23138, Note_on_c, 1, 26, 112
1, 23138, Note_on_c, 9, 40, 127
1, 23138, Note_on_c, 9, 44, 116
1, 23138, Pitch_bend_c, 3, 10147
1, 23138, Note_off_c, 9, 40, 64
1, 23138, Note_off_c, 9, 44, 64
1, 23140, Note_off_c, 0, 52, 64
1, 23142, Pitch_bend_c, 3, 11167
1, 23144, Note_off_c, 8, 64, 64
1, 23145, Pitch_bend_c, 5, 11051
1, 23147, Pitch_bend_c, 3, 12527
1, 23149, Pitch_bend_c, 5, 13428
1, 23151, Pitch_bend_c, 3, 14397
1, 23153, Pitch_bend_c, 5, 14135
1, 23155, Pitch_bend_c, 3, 16267
1, 23157, Pitch_bend_c, 5, 14231
1, 23159, Pitch_bend_c, 1, 9669
1, 23159, Pitch_bend_c, 3, 16383
1, 23163, Pitch_bend_c, 1, 16383
1, 23168, Pitch_bend_c, 5, 14327
1, 23172, Pitch_bend_c, 5, 14681
1, 23176, Pitch_bend_c, 5, 14938
1, 23177, Note_off_c, 0, 45, 64
1, 23180, Pitch_bend_c, 5, 15645
1, 23184, Pitch_bend_c, 1, 13075
1, 23184, Pitch_bend_c, 5, 16094
1, 23186, Note_on_c, 0, 45, 89
1, 23186, Note_on_c, 0, 52, 89
1, 23186, Note_on_c, 1, 33, 110
1, 23186, Note_on_c, 9, 44, 67
1, 23186, Note_off_c, 9, 44, 64
1, 23187, Note_off_c, 1, 26, 64
1, 23187, Pitch_bend_c, 1, 8192
1, 23189, Pitch_bend_c, 5, 16383
1, 23204, Note_off_c, 0, 54, 64
1, 23228, Note_off_c, 0, 45, 64
1, 23229, Note_off_c, 0, 52, 64
1, 23231, Note_off_c, 8, 66, 64
1, 23232, Note_off_c, 8, 57, 64
1, 23232, Note_on_c, 8, 57, 127
1, 23232, Note_on_c, 8, 64, 127
1, 23232, Control_c, 3, 1, 18
1, 23234, Note_on_c, 0, 45, 89
1, 23234, Note_on_c, 0, 52, 89
1, 23234, Note_on_c, 9, 35, 127
1, 23234, Note_on_c, 9, 40, 127
1, 23234, Note_on_c, 9, 44, 103
1, 23234, Note_off_c, 9, 35, 64
1, 23234, Note_off_c, 9, 40, 64
1, 23234, Note_off_c, 9, 44, 64
1, 23240, Control_c, 3, 1, 104
1, 23249, Control_c, 3, 1, 79
1, 23257, Control_c, 3, 1, 0
1, 23268, Pitch_bend_c, 3, 16097
1, 23272, Pitch_bend_c, 3, 15672
1, 23276, Pitch_bend_c, 3, 14992
1, 23280, Pitch_bend_c, 3, 14227
1, 23282, Note_on_c, 9, 35, 120
1, 23282, Note_on_c, 9, 44, 72
1, 23282, Note_off_c, 9, 35, 64
1, 23282, Note_off_c, 9, 44, 64
1, 23284, Pitch_bend_c, 3, 13462
1, 23287, Pitch_bend_c, 5, 16287
1, 23288, Pitch_bend_c, 3, 12697
1, 23290, Pitch_bend_c, 5, 16191
1, 23293, Pitch_bend_c, 3, 12102
1, 23294, Pitch_bend_c, 5, 16062
1, 23297, Pitch_bend_c, 3, 11592
1, 23299, Pitch_bend_c, 5, 15998
1, 23301, Pitch_bend_c, 3, 11252
1, 23305, Pitch_bend_c, 5, 15805
1, 23307, Pitch_bend_c, 3, 10997
1, 23308, Pitch_bend_c, 5, 15773
1, 23312, Pitch_bend_c, 3, 10742
1, 23312, Pitch_bend_c, 5, 15516
1, 23316, Pitch_bend_c, 3, 10062
1, 23316, Pitch_bend_c, 5, 14938
1, 23320, Pitch_bend_c, 3, 9042
1, 23321, Pitch_bend_c, 5, 13974
1, 23324, Pitch_bend_c, 3, 8192
1, 23325, Pitch_bend_c, 5, 12593
1, 23328, Note_off_c, 8, 57, 64
1, 23328, Note_on_c, 8, 57, 127
1, 23328, Note_off_c, 8, 64, 64
1, 23328, Note_on_c, 8, 66, 127
1, 23329, Pitch_bend_c, 5, 10858
1, 23330, Note_on_c, 0, 54, 89
1, 23330, Note_on_c, 1, 28, 120
1, 23330, Note_on_c, 9, 40, 127
1, 23330, Note_on_c, 9, 44, 122
1, 23330, Note_off_c, 9, 40, 64
1, 23330, Note_off_c, 9, 44, 64
1, 23333, Note_off_c, 0, 52, 64
1, 23333, Pitch_bend_c, 5, 8930
1, 23333, Note_off_c, 1, 33, 64
1, 23333, Note_off_c, 3, 74, 64
1, 23336, Pitch_bend_c, 5, 8192
1, 23346, Note_off_c, 5, 71, 64
1, 23376, Note_off_c, 8, 57, 64
1, 23376, Note_on_c, 8, 57, 127
1, 23376, Note_on_c, 8, 64, 127
1, 23378, Note_on_c, 0, 52, 89
1, 23378, Note_on_c, 9, 46, 81
1, 23378, Note_off_c, 9, 46, 64
1, 23380, Note_off_c, 0, 54, 64
1, 23383, Note_off_c, 8, 66, 64
1, 23407, Note_off_c, 0, 45, 64
1, 23408, Note_off_c, 6, 88, 64
1, 23413, Note_off_c, 6, 79, 64
1, 23415, Note_off_c, 6, 85, 64
1, 23420, Note_off_c, 1, 28, 64
1, 23422, Note_on_c, 6, 86, 127
1, 23423, Note_off_c, 0, 52, 64
1, 23423, Note_on_c, 6, 77, 127
1, 23423, Note_on_c, 6, 79, 127
1, 23423, Note_on_c, 6, 89, 127
1, 23424, Note_on_c, 3, 77, 125
1, 23424, Note_on_c, 8, 55, 127
1, 23424, Note_off_c, 8, 57, 64
1, 23424, Note_on_c, 8, 62, 127
1, 23424, Note_on_c, 8, 67, 127
1, 23424, Note_off_c, 8, 64, 64
1, 23425, Note_on_c, 6, 83, 127
1, 23426, Note_on_c, 0, 43, 89
1, 23426, Note_on_c, 0, 50, 89
1, 23426, Note_on_c, 0, 52, 89
1, 23426, Note_on_c, 1, 19, 126
1, 23426, Note_on_c, 9, 35, 123
1, 23426, Note_on_c, 9, 44, 125
1, 23426, Note_off_c, 9, 35, 64
1, 23426, Note_off_c, 9, 44, 64
1, 23431, Note_off_c, 0, 52, 64
1, 23451, Note_off_c, 3, 77, 64
1, 23459, Note_off_c, 1, 19, 64
1, 23464, Note_off_c, 0, 43, 64
1, 23465, Note_off_c, 6, 79, 64
1, 23467, Note_off_c, 6, 77, 64
1, 23467, Note_off_c, 6, 89, 64
1, 23467, Note_off_c, 8, 55, 64
1, 23468, Note_off_c, 0, 50, 64
1, 23469, Note_off_c, 8, 62, 64
1, 23469, Note_off_c, 8, 67, 64
1, 23471, Note_off_c, 6, 83, 64
1, 23472, Note_on_c, 3, 77, 80
1, 23472, Note_off_c, 6, 86, 64
1, 23478, Note_on_c, 6, 81, 72
1, 23482, Note_on_c, 6, 79, 93
1, 23482, Note_off_c, 6, 81, 64
1, 23487, Note_on_c, 6, 77, 100
1, 23488, Note_off_c, 6, 79, 64
1, 23491, Note_off_c, 6, 77, 64
1, 23492, Note_off_c, 3, 77, 64
1, 23492, Note_on_c, 6, 76, 87
1, 23495, Note_off_c, 6, 76, 64
1, 23497, Note_on_c, 6, 74, 85
1, 23498, Note_on_c, 9, 35, 102
1, 23498, Note_off_c, 9, 35, 64
1, 23500, Note_off_c, 6, 74, 64
1, 23501, Note_on_c, 6, 72, 85
1, 23504, Note_off_c, 6, 72, 64
1, 23520, Note_on_c, 3, 77, 94
1, 23522, Note_on_c, 9, 35, 127
1, 23522, Note_off_c, 9, 35, 64
1, 23540, Note_off_c, 3, 77, 64
1, 23568, Note_on_c, 3, 77, 99
1, 23587, Note_off_c, 3, 77, 64
1, 23616, Note_on_c, 3, 77, 113
1, 23618, Note_on_c, 9, 35, 125
1, 23618, Note_off_c, 9, 35, 64
1, 23634, Note_off_c, 3, 77, 64
1, 23664, Note_on_c, 3, 77, 120
1, 23681, Note_off_c, 3, 77, 64
1, 23690, Note_on_c, 9, 35, 110
1, 23690, Note_off_c, 9, 35, 64
1, 23712, Note_on_c, 3, 77, 121
1, 23714, Note_on_c, 9, 35, 125
1, 23714, Note_off_c, 9, 35, 64
1, 23759, Note_off_c, 3, 77, 64
1, 23760, Note_on_c, 3, 74, 113
1, 23774, Note_off_c, 3, 74, 64
1, 23807, Note_on_c, 3, 77, 99
1, 23809, Note_off_c, 3, 77, 64
1, 23809, Note_on_c, 3, 77, 90
1, 23810, Note_on_c, 9, 35, 125
1, 23810, Note_off_c, 9, 35, 64
1, 23825, Note_off_c, 3, 77, 64
1, 23855, Note_on_c, 3, 77, 86
1, 23882, Note_on_c, 9, 35, 102
1, 23882, Note_off_c, 9, 35, 64
1, 23905, Note_off_c, 3, 77, 64
1, 23906, Note_on_c, 9, 35, 127
1, 23906, Note_off_c, 9, 35, 64
1, 23908, Note_on_c, 3, 74, 87
1, 23920, Note_off_c, 3, 74, 64
1, 23957, Note_on_c, 3, 77, 103
1, 24002, Note_on_c, 9, 35, 127
1, 24002, Note_off_c, 9, 35, 64
1, 24044, Pitch_bend_c, 3, 8021
1, 24048, Pitch_bend_c, 3, 7341
1, 24052, Pitch_bend_c, 3, 6491
1, 24056, Pitch_bend_c, 3, 5641
1, 24060, Pitch_bend_c, 3, 5046
1, 24065, Pitch_bend_c, 3, 4451
1, 24065, Note_off_c, 3, 77, 64
1, 24069, Pitch_bend_c, 3, 3941
1, 24073, Pitch_bend_c, 3, 8192
1, 24074, Note_on_c, 9, 35, 102
1, 24074, Note_off_c, 9, 35, 64
1, 24092, Note_on_c, 3, 74, 93
1, 24098, Note_on_c, 9, 35, 127
1, 24098, Note_off_c, 9, 35, 64
1, 24111, Note_off_c, 3, 74, 64
1, 24140, Note_on_c, 3, 74, 102
1, 24192, Note_on_c, 0, 47, 89
1, 24192, Note_on_c, 0, 54, 89
1, 24192, Note_on_c, 2, 47, 126
1, 24192, Note_on_c, 2, 54, 104
1, 24192, Note_on_c, 2, 59, 105
1, 24192, Note_on_c, 3, 81, 126
1, 24192, Note_on_c, 5, 81, 101
1, 24192, Note_on_c, 6, 74, 127
1, 24192, Note_on_c, 6, 78, 127
1, 24192, Note_on_c, 6, 83, 126
1, 24192, Note_on_c, 8, 59, 121
1, 24192, Note_on_c, 8, 71, 127
1, 24192, Note_on_c, 9, 35, 127
1, 24193, Note_off_c, 9, 35, 64
1, 24193, Note_on_c, 9, 49, 122
1, 24194, Note_off_c, 3, 74, 64
1, 24194, Note_off_c, 9, 49, 64
1, 24195, Note_on_c, 1, 23, 126
1, 24197, Pitch_bend_c, 3, 4818
1, 24201, Pitch_bend_c, 3, 2473
1, 24205, Pitch_bend_c, 3, 8192
1, 24223, Note_off_c, 2, 47, 64
1, 24232, Note_off_c, 1, 23, 64
1, 24232, Note_off_c, 2, 54, 64
1, 24236, Note_off_c, 5, 81, 64
1, 24237, Note_off_c, 0, 47, 64
1, 24237, Note_off_c, 0, 54, 64
1, 24240, Note_on_c, 0, 47, 89
1, 24240, Note_on_c, 0, 54, 89
1, 24240, Note_on_c, 1, 23, 126
1, 24240, Note_on_c, 2, 47, 109
1, 24240, Note_on_c, 2, 54, 64
1, 24240, Note_on_c, 3, 78, 126
1, 24240, Note_on_c, 5, 76, 105
1, 24240, Note_on_c, 9, 44, 113
1, 24240, Note_off_c, 9, 44, 64
1, 24242, Note_off_c, 3, 81, 64
1, 24244, Pitch_bend_c, 5, 11854
1, 24248, Pitch_bend_c, 5, 16383
1, 24273, Note_off_c, 0, 47, 64
1, 24279, Note_off_c, 0, 54, 64
1, 24280, Note_off_c, 2, 59, 64
1, 24284, Note_off_c, 1, 23, 64
1, 24287, Note_off_c, 2, 47, 64
1, 24288, Note_on_c, 0, 47, 89
1, 24288, Note_on_c, 0, 54, 89
1, 24288, Note_on_c, 1, 23, 126
1, 24288, Note_on_c, 2, 47, 126
1, 24288, Note_on_c, 2, 59, 99
1, 24288, Note_on_c, 9, 40, 127
1, 24288, Note_on_c, 9, 44, 126
1, 24288, Note_off_c, 9, 40, 64
1, 24288, Note_off_c, 9, 44, 64
1, 24289, Control_c, 5, 1, 13
1, 24298, Control_c, 5, 1, 21
1, 24307, Control_c, 5, 1, 24
1, 24319, Control_c, 5, 1, 36
1, 24320, Control_c, 3, 1, 15
1, 24322, Note_off_c, 1, 23, 64
1, 24323, Note_off_c, 0, 47, 64
1, 24324, Note_off_c, 0, 54, 64
1, 24324, Note_off_c, 2, 59, 64
1, 24327, Control_c, 5, 1, 50
1, 24327, Note_off_c, 2, 47, 64
1, 24327, Control_c, 3, 1, 69
1, 24328, Note_off_c, 2, 54, 64
1, 24335, Control_c, 5, 1, 71
1, 24336, Note_on_c, 0, 47, 89
1, 24336, Note_on_c, 0, 51, 89
1, 24336, Note_on_c, 0, 54, 89
1, 24336, Note_on_c, 1, 23, 126
1, 24336, Note_on_c, 2, 47, 116
1, 24336, Note_on_c, 2, 54, 110
1, 24336, Note_on_c, 2, 59, 103
1, 24336, Note_on_c, 9, 35, 116
1, 24336, Note_on_c, 9, 44, 116
1, 24336, Control_c, 3, 1, 108
1, 24336, Note_off_c, 9, 35, 64
1, 24336, Note_off_c, 9, 44, 64
1, 24339, Note_off_c, 0, 51, 64
1, 24344, Control_c, 5, 1, 98
1, 24345, Control_c, 3, 1, 127
1, 24355, Control_c, 5, 1, 116
1, 24364, Control_c, 5, 1, 124
1, 24368, Note_off_c, 0, 47, 64
1, 24371, Note_off_c, 1, 23, 64
1, 24371, Note_off_c, 0, 54, 64
1, 24377, Control_c, 5, 1, 126
1, 24378, Note_off_c, 2, 47, 64
1, 24381, Note_off_c, 2, 54, 64
1, 24384, Note_on_c, 0, 47, 89
1, 24384, Note_on_c, 0, 54, 89
1, 24384, Note_on_c, 1, 23, 126
1, 24384, Note_on_c, 2, 47, 126
1, 24384, Note_on_c, 2, 54, 51
1, 24384, Note_on_c, 9, 35, 127
1, 24384, Note_on_c, 9, 44, 126
1, 24384, Note_off_c, 9, 35, 64
1, 24384, Note_off_c, 9, 44, 64
1, 24387, Control_c, 6, 64, 127
1, 24387, Control_c, 8, 64, 127
1, 24390, Control_c, 5, 1, 124
1, 24399, Control_c, 5, 1, 125
1, 24412, Control_c, 5, 1, 112
1, 24413, Note_off_c, 0, 47, 64
1, 24419, Note_off_c, 0, 54, 64
1, 24421, Note_off_c, 1, 23, 64
1, 24421, Control_c, 5, 1, 76
1, 24424, Note_off_c, 2, 54, 64
1, 24425, Note_off_c, 2, 59, 64
1, 24426, Note_off_c, 2, 47, 64
1, 24429, Control_c, 5, 1, 64
1, 24432, Note_on_c, 0, 47, 89
1, 24432, Note_on_c, 0, 54, 89
1, 24432, Note_on_c, 1, 23, 126
1, 24432, Note_on_c, 2, 47, 125
1, 24432, Note_on_c, 2, 54, 117
1, 24432, Note_on_c, 2, 59, 100
1, 24432, Note_on_c, 9, 44, 126
1, 24432, Note_off_c, 9, 44, 64
1, 24437, Control_c, 5, 1, 62
1, 24439, Control_c, 3, 1, 116
1, 24444, Control_c, 5, 1, 44
1, 24451, Control_c, 3, 1, 126
1, 24453, Control_c, 5, 1, 15
1, 24460, Control_c, 3, 1, 127
1, 24461, Control_c, 5, 1, 0
1, 24462, Note_off_c, 0, 47, 64
1, 24467, Note_off_c, 0, 54, 64
1, 24468, Note_off_c, 1, 23, 64
1, 24469, Note_off_c, 3, 78, 64
1, 24469, Note_off_c, 8, 71, 64
1, 24470, Note_off_c, 2, 59, 64
1, 24471, Note_off_c, 2, 54, 64
1, 24472, Note_off_c, 2, 47, 64
1, 24473, Control_c, 3, 1, 80
1, 24474, Note_off_c, 5, 76, 64
1, 24475, Pitch_bend_c, 3, 7742
1, 24478, Pitch_bend_c, 5, 10376
1, 24479, Pitch_bend_c, 3, 0
1, 24480, Note_on_c, 0, 47, 89
1, 24480, Note_on_c, 0, 51, 89
1, 24480, Note_on_c, 0, 54, 89
1, 24480, Note_on_c, 1, 23, 126
1, 24480, Note_on_c, 2, 47, 127
1, 24480, Note_on_c, 2, 54, 117
1, 24480, Note_on_c, 2, 59, 111
1, 24480, Note_on_c, 3, 78, 126
1, 24480, Note_on_c, 5, 76, 104
1, 24480, Note_on_c, 6, 81, 105
1, 24480, Note_on_c, 8, 57, 121
1, 24480, Note_on_c, 8, 69, 127
1, 24480, Note_on_c, 9, 40, 127
1, 24480, Note_on_c, 9, 44, 126
1, 24480, Note_off_c, 9, 40, 64
1, 24480, Note_off_c, 9, 44, 64
1, 24481, Control_c, 3, 1, 0
1, 24482, Pitch_bend_c, 5, 8192
1, 24483, Note_off_c, 0, 51, 64
1, 24486, Pitch_bend_c, 3, 8192
1, 24488, Pitch_bend_c, 5, 16383
1, 24489, Note_off_c, 8, 59, 64
1, 24491, Control_c, 6, 64, 0
1, 24491, Control_c, 8, 64, 0
1, 24492, Note_off_c, 6, 78, 64
1, 24509, Control_c, 6, 64, 127
1, 24509, Control_c, 8, 64, 127
1, 24522, Note_off_c, 2, 47, 64
1, 24522, Note_off_c, 1, 23, 64
1, 24523, Control_c, 5, 1, 2
1, 24528, Note_on_c, 0, 45, 89
1, 24528, Note_on_c, 1, 21, 126
1, 24528, Note_on_c, 2, 45, 126
1, 24528, Note_on_c, 2, 47, 109
1, 24528, Note_on_c, 2, 52, 113
1, 24528, Note_on_c, 2, 57, 109
1, 24528, Note_on_c, 9, 35, 127
1, 24528, Note_on_c, 9, 44, 116
1, 24528, Note_off_c, 9, 35, 64
1, 24528, Note_off_c, 9, 44, 64
1, 24531, Control_c, 5, 1, 14
1, 24533, Note_off_c, 2, 54, 64
1, 24536, Note_off_c, 2, 47, 64
1, 24537, Note_off_c, 2, 59, 64
1, 24539, Control_c, 5, 1, 18
1, 24547, Control_c, 5, 1, 12
1, 24554, Control_c, 5, 1, 0
1, 24556, Note_off_c, 0, 47, 64
1, 24564, Note_off_c, 8, 69, 64
1, 24567, Note_off_c, 2, 52, 64
1, 24568, Note_off_c, 1, 21, 64
1, 24570, Note_off_c, 0, 45, 64
1, 24570, Note_off_c, 0, 54, 64
1, 24570, Note_off_c, 2, 45, 64
1, 24571, Note_off_c, 2, 57, 64
1, 24575, Pitch_bend_c, 5, 13685
1, 24576, Note_on_c, 0, 43, 89
1, 24576, Note_on_c, 0, 47, 89
1, 24576, Note_on_c, 0, 50, 89
1, 24576, Note_on_c, 0, 55, 89
1, 24576, Note_on_c, 1, 19, 126
1, 24576, Note_on_c, 2, 43, 127
1, 24576, Note_on_c, 2, 50, 111
1, 24576, Note_on_c, 2, 55, 113
1, 24576, Note_on_c, 3, 76, 126
1, 24576, Note_on_c, 6, 79, 113
1, 24576, Note_on_c, 8, 55, 113
1, 24576, Note_on_c, 8, 65, 116
1, 24576, Note_on_c, 8, 67, 127
1, 24576, Note_on_c, 9, 35, 127
1, 24576, Note_on_c, 9, 44, 126
1, 24576, Pitch_bend_c, 3, 0
1, 24576, Note_off_c, 8, 57, 64
1, 24576, Note_off_c, 9, 35, 64
1, 24576, Note_off_c, 9, 44, 64
1, 24577, Note_off_c, 3, 78, 64
1, 24578, Note_off_c, 8, 65, 64
1, 24579, Pitch_bend_c, 5, 8192
1, 24583, Note_off_c, 6, 81, 64
1, 24584, Pitch_bend_c, 3, 8192
1, 24585, Control_c, 6, 64, 0
1, 24585, Control_c, 8, 64, 0
1, 24600, Note_on_c, 3, 74, 95
1, 24600, Note_on_c, 5, 74, 101
1, 24601, Note_off_c, 3, 76, 64
1, 24605, Note_off_c, 5, 76, 64
1, 24607, Note_off_c, 0, 47, 64
1, 24611, Note_off_c, 0, 50, 64
1, 24612, Note_off_c, 0, 55, 64
1, 24616, Note_off_c, 0, 43, 64
1, 24617, Note_off_c, 1, 19, 64
1, 24617, Note_off_c, 2, 43, 64
1, 24620, Note_off_c, 2, 55, 64
1, 24621, Note_off_c, 5, 74, 64
1, 24624, Note_on_c, 0, 43, 89
1, 24624, Note_on_c, 0, 47, 89
1, 24624, Note_on_c, 0, 50, 89
1, 24624, Note_on_c, 0, 55, 89
1, 24624, Note_on_c, 1, 19, 126
1, 24624, Note_on_c, 2, 43, 116
1, 24624, Note_on_c, 2, 55, 121
1, 24624, Note_on_c, 3, 71, 126
1, 24624, Note_on_c, 5, 71, 87
1, 24624, Note_on_c, 9, 35, 107
1, 24624, Note_on_c, 9, 44, 116
1, 24624, Note_off_c, 9, 35, 64
1, 24624, Note_off_c, 9, 44, 64
1, 24626, Note_off_c, 3, 74, 64
1, 24650, Note_off_c, 0, 47, 64
1, 24650, Control_c, 5, 1, 1
1, 24653, Note_off_c, 0, 50, 64
1, 24655, Note_off_c, 1, 19, 64
1, 24657, Note_off_c, 0, 55, 64
1, 24658, Note_off_c, 0, 43, 64
1, 24659, Control_c, 5, 1, 32
1, 24664, Note_off_c, 2, 50, 64
1, 24665, Control_c, 3, 1, 25
1, 24666, Note_off_c, 2, 43, 64
1, 24667, Note_off_c, 2, 55, 64
1, 24668, Control_c, 5, 1, 102
1, 24668, Control_c, 6, 64, 127
1, 24668, Control_c, 8, 64, 127
1, 24672, Note_on_c, 0, 43, 89
1, 24672, Note_on_c, 0, 47, 89
1, 24672, Note_on_c, 0, 50, 89
1, 24672, Note_on_c, 0, 55, 89
1, 24672, Note_on_c, 1, 19, 126
1, 24672, Note_on_c, 2, 43, 127
1, 24672, Note_on_c, 2, 50, 116
1, 24672, Note_on_c, 2, 55, 121
1, 24672, Note_on_c, 9, 40, 127
1, 24672, Note_on_c, 9, 44, 126
1, 24672, Note_off_c, 9, 40, 64
1, 24672, Note_off_c, 9, 44, 64
1, 24673, Control_c, 3, 1, 91
1, 24677, Control_c, 5, 1, 127
1, 24682, Control_c, 3, 1, 127
1, 24691, Note_off_c, 8, 67, 64
1, 24696, Note_off_c, 0, 47, 64
1, 24700, Note_off_c, 0, 50, 64
1, 24701, Note_off_c, 2, 50, 64
1, 24703, Note_off_c, 0, 55, 64
1, 24705, Note_off_c, 1, 19, 64
1, 24705, Note_off_c, 6, 79, 64
1, 24706, Note_off_c, 6, 74, 64
1, 24711, Note_off_c, 0, 43, 64
1, 24713, Note_off_c, 2, 43, 64
1, 24715, Note_off_c, 2, 55, 64
1, 24716, Note_off_c, 6, 83, 64
1, 24720, Note_on_c, 0, 43, 89
1, 24720, Note_on_c, 0, 47, 89
1, 24720, Note_on_c, 0, 50, 89
1, 24720, Note_on_c, 0, 55, 89
1, 24720, Note_on_c, 1, 19, 126
1, 24720, Note_on_c, 2, 43, 113
1, 24720, Note_on_c, 2, 45, 125
1, 24720, Note_on_c, 2, 50, 123
1, 24720, Note_on_c, 2, 55, 121
1, 24720, Note_on_c, 9, 35, 127
1, 24720, Note_on_c, 9, 44, 126
1, 24720, Note_off_c, 9, 35, 64
1, 24720, Note_off_c, 9, 44, 64
1, 24722, Note_off_c, 8, 55, 64
1, 24735, Note_off_c, 2, 45, 64
1, 24751, Note_off_c, 0, 55, 64
1, 24758, Note_off_c, 0, 47, 64
1, 24759, Note_off_c, 2, 50, 64
1, 24760, Note_off_c, 0, 50, 64
1, 24761, Note_off_c, 3, 71, 64
1, 24762, Note_off_c, 2, 43, 64
1, 24762, Note_off_c, 2, 55, 64
1, 24765, Note_off_c, 1, 19, 64
1, 24767, Control_c, 3, 1, 0
1, 24767, Note_on_c, 9, 43, 116
1, 24768, Note_off_c, 0, 43, 64
1, 24768, Note_on_c, 0, 45, 89
1, 24768, Note_on_c, 0, 52, 89
1, 24768, Note_on_c, 0, 57, 89
1, 24768, Note_on_c, 1, 21, 126
1, 24768, Note_on_c, 2, 45, 127
1, 24768, Note_on_c, 2, 52, 127
1, 24768, Note_on_c, 2, 57, 127
1, 24768, Note_on_c, 6, 81, 127
1, 24768, Note_on_c, 8, 45, 127
1, 24768, Note_on_c, 8, 57, 127
1, 24768, Note_on_c, 9, 35, 127
1, 24768, Note_off_c, 9, 43, 64
1, 24768, Control_c, 5, 1, 0
1, 24768, Note_off_c, 9, 35, 64
1, 24769, Note_off_c, 5, 71, 64
1, 24773, Pitch_bend_c, 5, 8192
1, 24778, Control_c, 6, 64, 0
1, 24778, Control_c, 8, 64, 0
1, 24804, Note_off_c, 0, 52, 64
1, 24805, Note_off_c, 0, 45, 64
1, 24807, Note_off_c, 2, 45, 64
1, 24808, Note_off_c, 8, 57, 64
1, 24808, Note_off_c, 1, 21, 64
1, 24808, Note_off_c, 6, 81, 64
1, 24809, Note_off_c, 8, 45, 64
1, 24809, Note_off_c, 0, 57, 64
1, 24812, Note_off_c, 2, 52, 64
1, 24813, Note_off_c, 2, 57, 64
1, 24864, Note_on_c, 3, 71, 126
1, 24903, Note_off_c, 3, 71, 64
1, 24912, Note_on_c, 3, 74, 126
1, 24929, Note_off_c, 3, 74, 64
1, 24936, Note_on_c, 3, 74, 126
1, 24958, Note_off_c, 3, 74, 64
1, 24960, Note_on_c, 1, 26, 125
1, 24960, Note_on_c, 9, 35, 127
1, 24960, Note_on_c, 9, 49, 126
1, 24960, Note_off_c, 9, 35, 64
1, 24960, Note_off_c, 9, 49, 64
1, 24984, Note_off_c, 1, 26, 64
1, 25008, Note_on_c, 1, 26, 126
1, 25008, Note_on_c, 9, 35, 127
1, 25008, Note_off_c, 9, 35, 64
1, 25056, Note_on_c, 0, 55, 89
1, 25056, Note_on_c, 1, 31, 126
1, 25056, Note_on_c, 2, 55, 110
1, 25056, Note_on_c, 9, 46, 126
1, 25056, Note_off_c, 1, 26, 64
1, 25056, Note_off_c, 9, 46, 64
1, 25072, Note_on_c, 9, 46, 122
1, 25072, Note_off_c, 9, 46, 64
1, 25076, Pitch_bend_c, 0, 8192
1, 25076, Pitch_bend_c, 2, 8192
1, 25080, Pitch_bend_c, 0, 10997
1, 25080, Pitch_bend_c, 2, 10997
1, 25082, Pitch_bend_c, 1, 11565
1, 25084, Pitch_bend_c, 0, 13122
1, 25084, Pitch_bend_c, 2, 13122
1, 25086, Pitch_bend_c, 1, 16383
1, 25088, Pitch_bend_c, 0, 14992
1, 25088, Pitch_bend_c, 2, 14992
1, 25088, Note_on_c, 9, 46, 124
1, 25088, Note_off_c, 9, 46, 64
1, 25092, Pitch_bend_c, 0, 16383
1, 25092, Pitch_bend_c, 2, 16383
1, 25104, Note_on_c, 0, 60, 89
1, 25104, Note_on_c, 0, 65, 89
1, 25104, Note_off_c, 1, 31, 64
1, 25104, Note_on_c, 1, 41, 126
1, 25104, Note_on_c, 2, 60, 97
1, 25104, Note_on_c, 2, 65, 91
1, 25105, Pitch_bend_c, 0, 8192
1, 25105, Pitch_bend_c, 2, 8192
1, 25105, Pitch_bend_c, 1, 8303
1, 25110, Note_off_c, 0, 55, 64
1, 25110, Note_off_c, 2, 55, 64
1, 25110, Pitch_bend_c, 1, 8192
1, 25152, Note_on_c, 9, 45, 116
1, 25152, Note_off_c, 9, 45, 64
1, 25167, Note_on_c, 9, 48, 116
1, 25168, Note_off_c, 9, 48, 64
1, 25184, Note_on_c, 9, 48, 116
1, 25184, Note_off_c, 9, 48, 64
1, 25195, Control_c, 0, 1, 23
1, 25195, Control_c, 2, 1, 23
1, 25199, Note_on_c, 9, 48, 116
1, 25200, Note_off_c, 9, 48, 64
1, 25203, Control_c, 0, 1, 53
1, 25203, Control_c, 2, 1, 53
1, 25212, Control_c, 0, 1, 107
1, 25212, Control_c, 2, 1, 107
1, 25215, Note_on_c, 9, 48, 116
1, 25216, Note_off_c, 9, 48, 64
1, 25220, Control_c, 0, 1, 127
1, 25220, Control_c, 2, 1, 127
1, 25232, Note_on_c, 9, 48, 116
1, 25232, Note_off_c, 9, 48, 64
1, 25247, Note_on_c, 9, 45, 116
1, 25248, Note_on_c, 1, 38, 126
1, 25248, Note_off_c, 9, 45, 64
1, 25255, Note_off_c, 1, 41, 64
1, 25264, Note_on_c, 9, 45, 116
1, 25264, Note_off_c, 9, 45, 64
1, 25279, Note_on_c, 9, 45, 116
1, 25280, Note_off_c, 9, 45, 64
1, 25290, Control_c, 0, 1, 111
1, 25290, Control_c, 2, 1, 111
1, 25296, Note_on_c, 9, 43, 116
1, 25296, Note_off_c, 9, 43, 64
1, 25298, Control_c, 0, 1, 107
1, 25298, Control_c, 2, 1, 107
1, 25307, Control_c, 0, 1, 127
1, 25307, Control_c, 2, 1, 127
1, 25311, Note_on_c, 9, 43, 116
1, 25312, Note_off_c, 9, 43, 64
1, 25317, Control_c, 0, 1, 95
1, 25317, Control_c, 2, 1, 95
1, 25325, Control_c, 0, 1, 127
1, 25325, Control_c, 2, 1, 127
1, 25327, Note_on_c, 9, 43, 116
1, 25328, Note_off_c, 9, 43, 64
1, 25332, Note_off_c, 0, 60, 64
1, 25332, Note_off_c, 2, 60, 64
1, 25334, Note_off_c, 0, 65, 64
1, 25334, Note_off_c, 2, 65, 64
1, 25335, Control_c, 0, 1, 107
1, 25335, Control_c, 2, 1, 107
1, 25337, Note_off_c, 1, 38, 64
1, 25344, Control_c, 0, 1, 0
1, 25344, Note_on_c, 1, 26, 126
1, 25344, Control_c, 2, 1, 0
1, 25344, Note_on_c, 9, 35, 127
1, 25344, Note_off_c, 9, 35, 64
1, 25360, Note_off_c, 1, 26, 64
1, 25392, Note_on_c, 1, 26, 126
1, 25392, Note_on_c, 9, 35, 127
1, 25392, Note_off_c, 9, 35, 64
1, 25431, Note_off_c, 1, 26, 64
1, 25440, Note_on_c, 0, 55, 89
1, 25440, Note_on_c, 1, 31, 126
1, 25440, Note_on_c, 2, 55, 100
1, 25440, Note_on_c, 9, 46, 126
1, 25440, Note_off_c, 9, 46, 64
1, 25456, Note_on_c, 9, 46, 126
1, 25456, Note_off_c, 9, 46, 64
1, 25468, Pitch_bend_c, 0, 10657
1, 25468, Pitch_bend_c, 2, 10657
1, 25469, Pitch_bend_c, 1, 16383
1, 25472, Pitch_bend_c, 0, 13972
1, 25472, Pitch_bend_c, 2, 13972
1, 25472, Note_on_c, 9, 46, 125
1, 25472, Note_off_c, 9, 46, 64
1, 25476, Pitch_bend_c, 0, 16383
1, 25476, Pitch_bend_c, 2, 16383
1, 25484, Pitch_bend_c, 0, 8192
1, 25484, Pitch_bend_c, 2, 8192
1, 25486, Pitch_bend_c, 1, 8192
1, 25488, Note_on_c, 0, 60, 89
1, 25488, Note_on_c, 0, 65, 89
1, 25488, Note_on_c, 1, 41, 126
1, 25488, Note_on_c, 2, 60, 94
1, 25488, Note_on_c, 2, 65, 94
1, 25489, Note_off_c, 1, 31, 64
1, 25493, Note_off_c, 0, 55, 64
1, 25493, Note_off_c, 2, 55, 64
1, 25536, Note_on_c, 9, 48, 116
1, 25536, Note_off_c, 9, 48, 64
1, 25551, Note_on_c, 9, 48, 116
1, 25552, Note_off_c, 9, 48, 64
1, 25567, Note_on_c, 9, 48, 116
1, 25568, Note_off_c, 9, 48, 64
1, 25583, Note_on_c, 9, 48, 116
1, 25584, Note_off_c, 9, 48, 64
1, 25599, Note_on_c, 9, 48, 116
1, 25600, Note_off_c, 9, 48, 64
1, 25610, Control_c, 0, 1, 27
1, 25610, Control_c, 2, 1, 27
1, 25616, Note_on_c, 9, 48, 116
1, 25616, Note_off_c, 9, 48, 64
1, 25618, Control_c, 0, 1, 48
1, 25618, Control_c, 2, 1, 48
1, 25626, Control_c, 0, 1, 70
1, 25626, Control_c, 2, 1, 70
1, 25632, Note_on_c, 1, 38, 126
1, 25632, Note_off_c, 1, 41, 64
1, 25632, Note_on_c, 9, 45, 116
1, 25632, Note_off_c, 9, 45, 64
1, 25635, Control_c, 0, 1, 101
1, 25635, Control_c, 2, 1, 101
1, 25647, Note_on_c, 9, 45, 116
1, 25648, Note_off_c, 9, 45, 64
1, 25651, Control_c, 0, 1, 111
1, 25651, Control_c, 2, 1, 111
1, 25664, Note_on_c, 9, 45, 116
1, 25664, Note_off_c, 9, 45, 64
1, 25670, Control_c, 0, 1, 118
1, 25670, Control_c, 2, 1, 118
1, 25679, Note_on_c, 9, 43, 116
1, 25680, Note_off_c, 9, 43, 64
1, 25684, Control_c, 0, 1, 114
1, 25684, Control_c, 2, 1, 114
1, 25696, Note_on_c, 9, 43, 116
1, 25696, Control_c, 0, 1, 125
1, 25696, Control_c, 2, 1, 125
1, 25696, Note_off_c, 9, 43, 64
1, 25710, Note_off_c, 0, 65, 64
1, 25710, Note_off_c, 2, 65, 64
1, 25711, Control_c, 0, 1, 107
1, 25711, Control_c, 2, 1, 107
1, 25711, Note_on_c, 9, 43, 116
1, 25712, Note_off_c, 9, 43, 64
1, 25714, Note_off_c, 0, 60, 64
1, 25714, Note_off_c, 2, 60, 64
1, 25719, Control_c, 0, 1, 95
1, 25719, Control_c, 2, 1, 95
1, 25720, Note_off_c, 1, 38, 64
1, 25727, Control_c, 0, 1, 0
1, 25727, Control_c, 2, 1, 0
1, 25728, Note_on_c, 1, 26, 126
1, 25728, Note_on_c, 9, 35, 127
1, 25728, Note_off_c, 9, 35, 64
1, 25744, Note_off_c, 1, 26, 64
1, 25776, Note_on_c, 1, 26, 126
1, 25776, Note_on_c, 9, 35, 127
1, 25776, Note_off_c, 9, 35, 64
1, 25815, Note_off_c, 1, 26, 64
1, 25824, Note_on_c, 0, 55, 89
1, 25824, Note_on_c, 1, 31, 126
1, 25824, Note_on_c, 2, 55, 100
1, 25824, Note_on_c, 9, 46, 126
1, 25824, Note_off_c, 9, 46, 64
1, 25840, Note_on_c, 9, 46, 119
1, 25840, Note_off_c, 9, 46, 64
1, 25853, Pitch_bend_c, 0, 10572
1, 25853, Pitch_bend_c, 1, 13910
1, 25853, Pitch_bend_c, 2, 10572
1, 25856, Note_on_c, 9, 46, 125
1, 25856, Note_off_c, 9, 46, 64
1, 25857, Pitch_bend_c, 1, 16383
1, 25857, Pitch_bend_c, 0, 13547
1, 25857, Pitch_bend_c, 2, 13547
1, 25861, Pitch_bend_c, 0, 16383
1, 25861, Pitch_bend_c, 2, 16383
1, 25866, Pitch_bend_c, 0, 8192
1, 25866, Pitch_bend_c, 2, 8192
1, 25867, Pitch_bend_c, 1, 14327
1, 25871, Pitch_bend_c, 1, 8192
1, 25871, Note_off_c, 1, 31, 64
1, 25872, Note_on_c, 0, 60, 89
1, 25872, Note_on_c, 0, 65, 89
1, 25872, Note_on_c, 1, 41, 126
1, 25872, Note_on_c, 2, 60, 91
1, 25872, Note_on_c, 2, 65, 94
1, 25879, Note_off_c, 0, 55, 64
1, 25879, Note_off_c, 2, 55, 64
1, 25920, Note_on_c, 9, 48, 116
1, 25920, Note_off_c, 9, 48, 64
1, 25936, Note_on_c, 9, 48, 116
1, 25936, Note_off_c, 9, 48, 64
1, 25951, Note_on_c, 9, 48, 116
1, 25952, Note_off_c, 9, 48, 64
1, 25967, Note_on_c, 9, 48, 116
1, 25968, Note_off_c, 9, 48, 64
1, 25984, Note_on_c, 9, 48, 116
1, 25984, Note_off_c, 9, 48, 64
1, 25989, Control_c, 0, 1, 33
1, 25989, Control_c, 2, 1, 33
1, 25998, Control_c, 0, 1, 75
1, 25998, Control_c, 2, 1, 75
1, 26000, Note_on_c, 9, 45, 116
1, 26000, Note_off_c, 9, 45, 64
1, 26006, Control_c, 0, 1, 98
1, 26006, Control_c, 2, 1, 98
1, 26015, Note_on_c, 9, 45, 116
1, 26016, Note_on_c, 1, 38, 126
1, 26016, Note_off_c, 9, 45, 64
1, 26016, Control_c, 0, 1, 114
1, 26016, Control_c, 2, 1, 114
1, 26020, Note_off_c, 1, 41, 64
1, 26026, Control_c, 0, 1, 127
1, 26026, Control_c, 2, 1, 127
1, 26031, Note_on_c, 9, 45, 116
1, 26032, Note_off_c, 9, 45, 64
1, 26047, Note_on_c, 9, 45, 116
1, 26048, Note_off_c, 9, 45, 64
1, 26063, Note_on_c, 9, 43, 116
1, 26064, Note_off_c, 9, 43, 64
1, 26080, Note_on_c, 9, 43, 116
1, 26080, Note_off_c, 9, 43, 64
1, 26095, Note_on_c, 9, 43, 116
1, 26096, Note_off_c, 9, 43, 64
1, 26102, Note_off_c, 0, 60, 64
1, 26102, Note_off_c, 2, 60, 64
1, 26104, Note_off_c, 0, 65, 64
1, 26104, Note_off_c, 2, 65, 64
1, 26105, Note_off_c, 1, 38, 64
1, 26107, Control_c, 0, 1, 104
1, 26107, Control_c, 2, 1, 104
1, 26112, Note_on_c, 1, 26, 126
1, 26112, Note_on_c, 9, 35, 127
1, 26112, Note_off_c, 9, 35, 64
1, 26115, Control_c, 0, 1, 0
1, 26115, Control_c, 2, 1, 0
1, 26127, Note_off_c, 1, 26, 64
1, 26160, Note_on_c, 1, 26, 126
1, 26160, Note_on_c, 9, 35, 127
1, 26160, Note_off_c, 9, 35, 64
1, 26202, Note_off_c, 1, 26, 64
1, 26208, Note_on_c, 0, 55, 89
1, 26208, Note_on_c, 1, 31, 126
1, 26208, Note_on_c, 2, 55, 107
1, 26208, Note_on_c, 9, 46, 126
1, 26208, Note_off_c, 9, 46, 64
1, 26224, Note_on_c, 9, 46, 125
1, 26224, Note_off_c, 9, 46, 64
1, 26229, Pitch_bend_c, 1, 9541
1, 26233, Pitch_bend_c, 1, 16383
1, 26235, Pitch_bend_c, 0, 10572
1, 26235, Pitch_bend_c, 2, 10572
1, 26239, Pitch_bend_c, 0, 13717
1, 26239, Pitch_bend_c, 2, 13717
1, 26240, Note_on_c, 9, 46, 122
1, 26240, Note_off_c, 9, 46, 64
1, 26243, Pitch_bend_c, 0, 16383
1, 26243, Pitch_bend_c, 2, 16383
1, 26249, Pitch_bend_c, 1, 15773
1, 26251, Pitch_bend_c, 0, 8192
1, 26251, Pitch_bend_c, 2, 8192
1, 26254, Pitch_bend_c, 1, 8192
1, 26256, Note_on_c, 0, 60, 89
1, 26256, Note_on_c, 0, 65, 89
1, 26256, Note_on_c, 1, 41, 126
1, 26256, Note_on_c, 2, 60, 96
1, 26256, Note_on_c, 2, 65, 97
1, 26257, Note_off_c, 1, 31, 64
1, 26263, Note_off_c, 0, 55, 64
1, 26263, Note_off_c, 2, 55, 64
1, 26280, Note_on_c, 9, 35, 90
1, 26280, Note_off_c, 9, 35, 64
1, 26304, Note_on_c, 9, 40, 119
1, 26304, Note_off_c, 9, 40, 64
1, 26312, Note_on_c, 9, 40, 127
1, 26313, Note_off_c, 9, 40, 64
1, 26328, Note_on_c, 9, 35, 127
1, 26328, Note_off_c, 9, 35, 64
1, 26344, Control_c, 0, 1, 19
1, 26344, Control_c, 2, 1, 19
1, 26352, Note_on_c, 9, 42, 80
1, 26352, Control_c, 0, 1, 39
1, 26352, Control_c, 2, 1, 39
1, 26352, Note_off_c, 9, 42, 64
1, 26361, Control_c, 0, 1, 64
1, 26361, Control_c, 2, 1, 64
1, 26369, Control_c, 0, 1, 111
1, 26369, Control_c, 2, 1, 111
1, 26376, Note_on_c, 9, 40, 119
1, 26376, Note_off_c, 9, 40, 64
1, 26377, Control_c, 0, 1, 121
1, 26377, Control_c, 2, 1, 121
1, 26398, Control_c, 0, 1, 127
1, 26398, Control_c, 2, 1, 127
1, 26400, Note_on_c, 1, 38, 126
1, 26400, Note_on_c, 9, 40, 127
1, 26400, Note_off_c, 9, 40, 64
1, 26405, Note_off_c, 1, 41, 64
1, 26423, Note_on_c, 9, 43, 115
1, 26424, Note_off_c, 9, 43, 64
1, 26448, Note_on_c, 9, 41, 89
1, 26448, Note_on_c, 9, 42, 89
1, 26448, Note_off_c, 9, 41, 64
1, 26448, Note_off_c, 9, 42, 64
1, 26466, Control_c, 0, 1, 125
1, 26470, Note_off_c, 0, 60, 64
1, 26470, Note_off_c, 1, 38, 64
1, 26470, Note_off_c, 2, 60, 64
1, 26472, Control_c, 2, 1, 92
1, 26472, Note_on_c, 9, 35, 125
1, 26472, Note_on_c, 9, 49, 115
1, 26472, Note_off_c, 9, 35, 64
1, 26472, Note_off_c, 9, 49, 64
1, 26473, Note_off_c, 0, 65, 64
1, 26473, Note_off_c, 2, 65, 64
1, 26474, Control_c, 0, 1, 82
1, 26480, Control_c, 2, 1, 1
1, 26482, Control_c, 0, 1, 0
1, 26496, Note_on_c, 0, 50, 89
1, 26496, Note_on_c, 0, 57, 89
1, 26496, Note_on_c, 1, 26, 89
1, 26496, Note_on_c, 8, 62, 113
1, 26496, Note_on_c, 8, 69, 118
1, 26496, Note_on_c, 9, 35, 127
1, 26496, Note_on_c, 9, 57, 126
1, 26496, Note_off_c, 9, 35, 64
1, 26496, Note_off_c, 9, 57, 64
1, 26519, Note_off_c, 0, 50, 64
1, 26519, Note_off_c, 1, 26, 64
1, 26524, Note_off_c, 0, 57, 64
1, 26534, Control_c, 4, 1, 0
1, 26537, Pitch_bend_c, 4, 8192
1, 26543, Note_on_c, 4, 64, 125
1, 26544, Note_on_c, 0, 50, 89
1, 26544, Note_on_c, 0, 57, 89
1, 26544, Note_on_c, 1, 26, 104
1, 26544, Note_on_c, 6, 72, 121
1, 26544, Note_on_c, 6, 77, 116
1, 26544, Note_on_c, 9, 42, 99
1, 26544, Note_on_c, 9, 51, 113
1, 26544, Note_off_c, 9, 42, 64
1, 26544, Note_off_c, 9, 51, 64
1, 26565, Pitch_bend_c, 4, 8384
1, 26569, Pitch_bend_c, 4, 8995
1, 26569, Note_off_c, 6, 72, 64
1, 26572, Pitch_bend_c, 4, 9380
1, 26573, Note_off_c, 0, 50, 64
1, 26573, Note_off_c, 6, 77, 64
1, 26577, Pitch_bend_c, 4, 10119
1, 26580, Note_off_c, 0, 57, 64
1, 26580, Pitch_bend_c, 4, 11083
1, 26585, Pitch_bend_c, 4, 12111
1, 26587, Note_off_c, 1, 26, 64
1, 26589, Pitch_bend_c, 4, 12914
1, 26591, Note_on_c, 7, 64, 80
1, 26592, Note_on_c, 0, 50, 89
1, 26592, Note_on_c, 0, 59, 89
1, 26592, Note_on_c, 1, 38, 126
1, 26592, Note_off_c, 8, 62, 64
1, 26592, Note_on_c, 8, 62, 127
1, 26592, Note_off_c, 8, 69, 64
1, 26592, Note_on_c, 8, 71, 127
1, 26592, Note_on_c, 9, 40, 127
1, 26592, Note_on_c, 9, 51, 126
1, 26592, Note_on_c, 9, 53, 126
1, 26592, Note_off_c, 9, 40, 64
1, 26592, Note_off_c, 9, 51, 64
1, 26592, Note_off_c, 9, 53, 64
1, 26594, Pitch_bend_c, 4, 13267
1, 26598, Pitch_bend_c, 4, 13267
1, 26600, Note_off_c, 4, 64, 64
1, 26602, Pitch_bend_c, 4, 12753
1, 26606, Pitch_bend_c, 4, 10472
1, 26611, Pitch_bend_c, 4, 8192
1, 26617, Note_on_c, 4, 64, 124
1, 26629, Note_off_c, 0, 50, 64
1, 26634, Note_off_c, 1, 38, 64
1, 26637, Note_off_c, 0, 59, 64
1, 26638, Pitch_bend_c, 4, 8481
1, 26640, Note_on_c, 0, 50, 89
1, 26640, Note_on_c, 0, 57, 89
1, 26640, Note_on_c, 1, 26, 98
1, 26640, Note_on_c, 6, 72, 127
1, 26640, Note_on_c, 6, 77, 127
1, 26640, Note_on_c, 9, 42, 93
1, 26640, Note_on_c, 9, 51, 126
1, 26640, Note_off_c, 9, 42, 64
1, 26640, Note_off_c, 9, 51, 64
1, 26641, Pitch_bend_c, 4, 8995
1, 26645, Pitch_bend_c, 4, 10087
1, 26648, Note_off_c, 7, 64, 64
1, 26649, Pitch_bend_c, 4, 10697
1, 26653, Note_off_c, 6, 72, 64
1, 26654, Pitch_bend_c, 4, 11051
1, 26655, Note_off_c, 6, 77, 64
1, 26659, Pitch_bend_c, 4, 11372
1, 26664, Pitch_bend_c, 4, 11693
1, 26664, Note_off_c, 1, 26, 64
1, 26665, Note_on_c, 7, 64, 79
1, 26667, Note_off_c, 0, 50, 64
1, 26668, Pitch_bend_c, 4, 12014
1, 26668, Note_off_c, 0, 57, 64
1, 26670, Note_off_c, 4, 64, 64
1, 26672, Pitch_bend_c, 4, 12496
1, 26675, Pitch_bend_c, 4, 12818
1, 26679, Pitch_bend_c, 4, 12785
1, 26683, Pitch_bend_c, 4, 10665
1, 26685, Note_on_c, 4, 64, 125
1, 26686, Pitch_bend_c, 4, 8192
1, 26688, Note_on_c, 0, 50, 89
1, 26688, Note_on_c, 0, 57, 89
1, 26688, Note_on_c, 1, 26, 106
1, 26688, Note_off_c, 8, 62, 64
1, 26688, Note_on_c, 8, 62, 127
1, 26688, Note_on_c, 8, 69, 127
1, 26688, Note_off_c, 8, 71, 64
1, 26688, Note_on_c, 9, 35, 127
1, 26688, Note_on_c, 9, 51, 126
1, 26688, Note_off_c, 9, 35, 64
1, 26688, Note_off_c, 9, 51, 64
1, 26716, Note_off_c, 1, 26, 64
1, 26717, Note_off_c, 0, 50, 64
1, 26718, Note_off_c, 7, 64, 64
1, 26719, Note_off_c, 0, 57, 64
1, 26733, Note_on_c, 7, 64, 80
1, 26736, Note_on_c, 0, 50, 89
1, 26736, Note_on_c, 0, 57, 89
1, 26736, Note_on_c, 1, 26, 112
1, 26736, Note_on_c, 6, 72, 127
1, 26736, Note_on_c, 6, 77, 127
1, 26736, Note_on_c, 9, 35, 127
1, 26736, Note_on_c, 9, 42, 113
1, 26736, Note_on_c, 9, 51, 126
1, 26736, Note_off_c, 9, 35, 64
1, 26736, Note_off_c, 9, 42, 64
1, 26736, Note_off_c, 9, 51, 64
1, 26741, Pitch_bend_c, 4, 10119
1, 26745, Pitch_bend_c, 4, 11372
1, 26746, Note_off_c, 6, 77, 64
1, 26747, Note_off_c, 6, 72, 64
1, 26749, Pitch_bend_c, 4, 8192
1, 26757, Note_on_c, 4, 62, 118
1, 26757, Note_off_c, 4, 64, 64
1, 26763, Note_off_c, 0, 50, 64
1, 26763, Note_off_c, 0, 57, 64
1, 26783, Note_off_c, 1, 26, 64
1, 26784, Note_on_c, 0, 50, 89
1, 26784, Note_on_c, 0, 59, 89
1, 26784, Note_on_c, 1, 31, 104
1, 26784, Note_on_c, 6, 74, 127
1, 26784, Note_on_c, 6, 77, 127
1, 26784, Note_off_c, 8, 62, 64
1, 26784, Note_on_c, 8, 62, 127
1, 26784, Note_off_c, 8, 69, 64
1, 26784, Note_on_c, 8, 71, 127
1, 26784, Note_on_c, 9, 40, 127
1, 26784, Note_on_c, 9, 51, 126
1, 26784, Note_on_c, 9, 53, 126
1, 26784, Note_off_c, 9, 40, 64
1, 26784, Note_off_c, 9, 51, 64
1, 26784, Note_off_c, 9, 53, 64
1, 26804, Note_off_c, 1, 31, 64
1, 26805, Note_on_c, 7, 62, 73
1, 26805, Note_off_c, 7, 64, 64
1, 26808, Note_on_c, 1, 33, 106
1, 26811, Note_off_c, 0, 50, 64
1, 26817, Note_off_c, 0, 59, 64
1, 26824, Note_off_c, 4, 62, 64
1, 26825, Note_on_c, 4, 72, 125
1, 26826, Note_off_c, 6, 74, 64
1, 26828, Note_off_c, 1, 33, 64
1, 26830, Pitch_bend_c, 4, 8898
1, 26832, Note_on_c, 0, 50, 89
1, 26832, Note_on_c, 0, 57, 89
1, 26832, Note_on_c, 1, 36, 122
1, 26832, Note_on_c, 6, 72, 105
1, 26832, Note_on_c, 9, 42, 89
1, 26832, Note_on_c, 9, 51, 126
1, 26832, Note_off_c, 9, 42, 64
1, 26832, Note_off_c, 9, 51, 64
1, 26834, Pitch_bend_c, 4, 10762
1, 26837, Note_off_c, 6, 77, 64
1, 26838, Pitch_bend_c, 4, 11854
1, 26842, Note_off_c, 6, 72, 64
1, 26845, Pitch_bend_c, 4, 11790
1, 26849, Pitch_bend_c, 4, 12593
1, 26853, Pitch_bend_c, 4, 13042
1, 26857, Pitch_bend_c, 4, 13749
1, 26858, Note_off_c, 0, 50, 64
1, 26858, Note_off_c, 0, 57, 64
1, 26862, Pitch_bend_c, 4, 14070
1, 26865, Pitch_bend_c, 4, 14617
1, 26869, Pitch_bend_c, 4, 14938
1, 26872, Note_off_c, 7, 62, 64
1, 26873, Pitch_bend_c, 4, 15163
1, 26873, Note_on_c, 7, 72, 80
1, 26876, Note_off_c, 1, 36, 64
1, 26877, Pitch_bend_c, 4, 15323
1, 26880, Note_on_c, 0, 50, 89
1, 26880, Note_on_c, 0, 57, 89
1, 26880, Note_on_c, 1, 26, 120
1, 26880, Note_off_c, 8, 62, 64
1, 26880, Note_on_c, 8, 62, 103
1, 26880, Note_on_c, 8, 69, 109
1, 26880, Note_off_c, 8, 71, 64
1, 26880, Note_on_c, 9, 35, 127
1, 26880, Note_on_c, 9, 51, 126
1, 26880, Note_off_c, 9, 35, 64
1, 26880, Note_off_c, 9, 51, 64
1, 26882, Pitch_bend_c, 4, 15580
1, 26886, Pitch_bend_c, 4, 15709
1, 26891, Pitch_bend_c, 4, 15805
1, 26895, Pitch_bend_c, 4, 15966
1, 26901, Pitch_bend_c, 4, 16191
1, 26905, Note_off_c, 0, 50, 64
1, 26905, Pitch_bend_c, 4, 16287
1, 26906, Note_off_c, 0, 57, 64
1, 26909, Pitch_bend_c, 4, 16383
1, 26916, Note_off_c, 1, 26, 64
1, 26928, Note_on_c, 0, 50, 89
1, 26928, Note_on_c, 0, 57, 89
1, 26928, Note_on_c, 1, 26, 110
1, 26928, Note_on_c, 6, 72, 125
1, 26928, Note_on_c, 6, 77, 109
1, 26928, Note_on_c, 9, 42, 87
1, 26928, Note_on_c, 9, 51, 126
1, 26928, Note_off_c, 9, 42, 64
1, 26928, Note_off_c, 9, 51, 64
1, 26937, Note_off_c, 6, 72, 64
1, 26939, Note_off_c, 6, 77, 64
1, 26951, Note_off_c, 0, 50, 64
1, 26954, Note_off_c, 0, 57, 64
1, 26975, Note_off_c, 1, 26, 64
1, 26976, Note_on_c, 0, 50, 89
1, 26976, Note_on_c, 0, 59, 89
1, 26976, Note_on_c, 1, 38, 126
1, 26976, Note_off_c, 8, 62, 64
1, 26976, Note_on_c, 8, 62, 56
1, 26976, Note_off_c, 8, 69, 64
1, 26976, Note_on_c, 8, 71, 111
1, 26976, Note_on_c, 9, 40, 127
1, 26976, Note_on_c, 9, 51, 126
1, 26976, Note_on_c, 9, 53, 126
1, 26976, Note_off_c, 9, 40, 64
1, 26976, Note_off_c, 9, 51, 64
1, 26976, Note_off_c, 9, 53, 64
1, 26994, Control_c, 4, 1, 8
1, 27000, Note_off_c, 0, 50, 64
1, 27001, Note_off_c, 0, 59, 64
1, 27003, Control_c, 4, 1, 26
1, 27010, Control_c, 4, 1, 67
1, 27018, Control_c, 4, 1, 119
1, 27024, Note_on_c, 0, 50, 89
1, 27024, Note_on_c, 0, 57, 89
1, 27024, Note_on_c, 1, 26, 104
1, 27024, Note_on_c, 6, 72, 127
1, 27024, Note_on_c, 6, 77, 118
1, 27024, Note_on_c, 9, 42, 73
1, 27024, Note_on_c, 9, 51, 126
1, 27024, Note_off_c, 9, 42, 64
1, 27024, Note_off_c, 9, 51, 64
1, 27026, Control_c, 4, 1, 126
1, 27029, Note_off_c, 1, 26, 64
1, 27033, Note_off_c, 6, 72, 64
1, 27034, Note_off_c, 6, 77, 64
1, 27036, Control_c, 4, 1, 127
1, 27048, Note_off_c, 0, 57, 64
1, 27048, Note_off_c, 0, 50, 64
1, 27051, Note_off_c, 1, 38, 64
1, 27072, Note_on_c, 0, 50, 89
1, 27072, Note_on_c, 0, 57, 89
1, 27072, Note_on_c, 1, 26, 110
1, 27072, Note_off_c, 8, 62, 64
1, 27072, Note_on_c, 8, 62, 113
1, 27072, Note_on_c, 8, 69, 116
1, 27072, Note_off_c, 8, 71, 64
1, 27072, Note_on_c, 9, 35, 127
1, 27072, Note_on_c, 9, 51, 126
1, 27072, Note_off_c, 9, 35, 64
1, 27072, Note_off_c, 9, 51, 64
1, 27096, Note_off_c, 0, 50, 64
1, 27098, Note_off_c, 0, 57, 64
1, 27098, Note_off_c, 1, 26, 64
1, 27120, Note_on_c, 0, 50, 89
1, 27120, Note_on_c, 0, 57, 89
1, 27120, Note_on_c, 1, 26, 99
1, 27120, Note_on_c, 6, 72, 109
1, 27120, Note_on_c, 6, 77, 98
1, 27120, Note_on_c, 9, 35, 127
1, 27120, Note_on_c, 9, 42, 93
1, 27120, Note_on_c, 9, 51, 126
1, 27120, Note_off_c, 9, 35, 64
1, 27120, Note_off_c, 9, 42, 64
1, 27120, Note_off_c, 9, 51, 64
1, 27128, Note_off_c, 6, 72, 64
1, 27129, Note_off_c, 6, 77, 64
1, 27143, Note_off_c, 0, 50, 64
1, 27145, Note_off_c, 0, 57, 64
1, 27166, Note_off_c, 1, 26, 64
1, 27168, Note_on_c, 0, 50, 89
1, 27168, Note_on_c, 0, 59, 89
1, 27168, Note_on_c, 1, 31, 108
1, 27168, Note_on_c, 3, 72, 91
1, 27168, Note_on_c, 5, 77, 91
1, 27168, Note_on_c, 6, 74, 127
1, 27168, Note_on_c, 6, 77, 126
1, 27168, Note_off_c, 8, 62, 64
1, 27168, Note_on_c, 8, 62, 89
1, 27168, Note_off_c, 8, 69, 64
1, 27168, Note_on_c, 8, 71, 123
1, 27168, Note_on_c, 9, 40, 127
1, 27168, Note_on_c, 9, 51, 126
1, 27168, Note_on_c, 9, 53, 126
1, 27168, Note_off_c, 9, 40, 64
1, 27168, Note_off_c, 9, 51, 64
1, 27168, Note_off_c, 9, 53, 64
1, 27190, Note_off_c, 1, 31, 64
1, 27192, Note_on_c, 1, 33, 78
1, 27192, Note_off_c, 0, 59, 64
1, 27195, Note_off_c, 0, 50, 64
1, 27195, Note_off_c, 3, 72, 64
1, 27195, Note_off_c, 5, 77, 64
1, 27212, Note_off_c, 1, 33, 64
1, 27213, Note_off_c, 6, 74, 64
1, 27216, Note_on_c, 0, 50, 89
1, 27216, Note_on_c, 0, 57, 89
1, 27216, Note_on_c, 1, 29, 110
1, 27216, Note_on_c, 3, 72, 94
1, 27216, Note_on_c, 5, 77, 94
1, 27216, Note_on_c, 6, 72, 111
1, 27216, Note_on_c, 9, 42, 85
1, 27216, Note_on_c, 9, 51, 126
1, 27216, Note_off_c, 9, 42, 64
1, 27216, Note_off_c, 9, 51, 64
1, 27217, Control_c, 4, 1, 111
1, 27218, Note_off_c, 6, 77, 64
1, 27220, Note_off_c, 4, 72, 64
1, 27223, Note_off_c, 6, 72, 64
1, 27224, Control_c, 4, 1, 0
1, 27230, Pitch_bend_c, 4, 14295
1, 27234, Pitch_bend_c, 4, 8192
1, 27240, Note_on_c, 3, 71, 106
1, 27240, Note_on_c, 5, 76, 106
1, 27241, Note_off_c, 0, 57, 64
1, 27242, Note_off_c, 0, 50, 64
1, 27243, Note_off_c, 3, 72, 64
1, 27243, Note_off_c, 5, 77, 64
1, 27259, Note_off_c, 1, 29, 64
1, 27264, Note_on_c, 0, 50, 89
1, 27264, Note_on_c, 0, 57, 89
1, 27264, Note_on_c, 1, 26, 122
1, 27264, Note_off_c, 8, 62, 64
1, 27264, Note_on_c, 8, 62, 99
1, 27264, Note_on_c, 8, 69, 109
1, 27264, Note_off_c, 8, 71, 64
1, 27264, Note_on_c, 9, 35, 127
1, 27264, Note_on_c, 9, 51, 126
1, 27264, Note_off_c, 9, 35, 64
1, 27264, Note_off_c, 9, 51, 64
1, 27266, Note_off_c, 3, 71, 64
1, 27266, Note_off_c, 5, 76, 64
1, 27268, Note_off_c, 7, 72, 64
1, 27288, Note_on_c, 3, 69, 108
1, 27288, Note_on_c, 5, 74, 108
1, 27290, Note_off_c, 0, 50, 64
1, 27290, Note_off_c, 0, 57, 64
1, 27296, Note_off_c, 1, 26, 64
1, 27312, Note_on_c, 0, 50, 89
1, 27312, Note_on_c, 0, 57, 89
1, 27312, Note_on_c, 1, 26, 117
1, 27312, Note_on_c, 6, 72, 126
1, 27312, Note_on_c, 6, 77, 113
1, 27312, Note_on_c, 9, 42, 89
1, 27312, Note_on_c, 9, 51, 119
1, 27312, Note_off_c, 9, 42, 64
1, 27312, Note_off_c, 9, 51, 64
1, 27321, Note_off_c, 6, 72, 64
1, 27323, Note_off_c, 6, 77, 64
1, 27336, Note_off_c, 0, 50, 64
1, 27338, Note_off_c, 0, 57, 64
1, 27360, Note_on_c, 0, 50, 89
1, 27360, Note_on_c, 0, 59, 89
1, 27360, Note_on_c, 1, 38, 126
1, 27360, Note_off_c, 8, 62, 64
1, 27360, Note_on_c, 8, 62, 89
1, 27360, Note_off_c, 8, 69, 64
1, 27360, Note_on_c, 8, 71, 103
1, 27360, Note_on_c, 9, 40, 127
1, 27360, Note_on_c, 9, 51, 126
1, 27360, Note_on_c, 9, 53, 126
1, 27360, Note_on_c, 4, 77, 87
1, 27360, Note_off_c, 9, 40, 64
1, 27360, Note_off_c, 9, 51, 64
1, 27360, Note_off_c, 9, 53, 64
1, 27362, Note_off_c, 1, 26, 64
1, 27377, Control_c, 3, 1, 12
1, 27377, Control_c, 5, 1, 12
1, 27381, Note_off_c, 4, 77, 64
1, 27384, Note_on_c, 4, 74, 101
1, 27385, Control_c, 3, 1, 25
1, 27385, Control_c, 5, 1, 25
1, 27388, Note_off_c, 0, 50, 64
1, 27390, Note_off_c, 0, 59, 64
1, 27394, Control_c, 3, 1, 32
1, 27394, Control_c, 5, 1, 32
1, 27398, Note_off_c, 1, 38, 64
1, 27399, Note_off_c, 4, 74, 64
1, 27401, Control_c, 3, 1, 35
1, 27401, Control_c, 5, 1, 35
1, 27408, Note_on_c, 0, 50, 89
1, 27408, Note_on_c, 0, 57, 89
1, 27408, Note_on_c, 1, 26, 92
1, 27408, Note_on_c, 6, 72, 123
1, 27408, Note_on_c, 6, 77, 109
1, 27408, Note_on_c, 9, 42, 83
1, 27408, Note_on_c, 9, 51, 119
1, 27408, Note_on_c, 7, 77, 42
1, 27408, Note_off_c, 9, 42, 64
1, 27408, Note_off_c, 9, 51, 64
1, 27410, Control_c, 3, 1, 56
1, 27410, Control_c, 5, 1, 56
1, 27417, Control_c, 3, 1, 92
1, 27417, Control_c, 5, 1, 92
1, 27418, Note_off_c, 6, 72, 64
1, 27420, Note_off_c, 6, 77, 64
1, 27425, Control_c, 3, 1, 111
1, 27425, Control_c, 5, 1, 111
1, 27429, Note_off_c, 7, 77, 64
1, 27431, Note_off_c, 1, 26, 64
1, 27431, Note_on_c, 4, 77, 120
1, 27432, Note_on_c, 7, 74, 56
1, 27433, Note_off_c, 0, 57, 64
1, 27433, Control_c, 3, 1, 118
1, 27433, Control_c, 5, 1, 118
1, 27435, Note_off_c, 0, 50, 64
1, 27441, Control_c, 3, 1, 125
1, 27441, Control_c, 5, 1, 125
1, 27447, Note_off_c, 7, 74, 64
1, 27449, Control_c, 3, 1, 127
1, 27449, Control_c, 5, 1, 127
1, 27454, Note_off_c, 4, 77, 64
1, 27456, Note_on_c, 0, 50, 89
1, 27456, Note_on_c, 0, 57, 89
1, 27456, Note_on_c, 1, 26, 112
1, 27456, Note_off_c, 8, 62, 64
1, 27456, Note_on_c, 8, 62, 103
1, 27456, Note_on_c, 8, 69, 111
1, 27456, Note_off_c, 8, 71, 64
1, 27456, Note_on_c, 9, 35, 127
1, 27456, Note_on_c, 9, 51, 126
1, 27456, Note_off_c, 9, 35, 64
1, 27456, Note_off_c, 9, 51, 64
1, 27458, Note_on_c, 4, 74, 102
1, 27472, Note_off_c, 4, 74, 64
1, 27479, Note_on_c, 7, 77, 75
1, 27481, Note_off_c, 0, 50, 64
1, 27481, Note_off_c, 0, 57, 64
1, 27485, Note_off_c, 1, 26, 64
1, 27502, Note_off_c, 7, 77, 64
1, 27504, Note_on_c, 0, 50, 89
1, 27504, Note_on_c, 0, 57, 89
1, 27504, Note_on_c, 1, 26, 110
1, 27504, Note_on_c, 4, 77, 113
1, 27504, Note_on_c, 6, 72, 107
1, 27504, Note_on_c, 6, 77, 95
1, 27504, Note_on_c, 9, 35, 127
1, 27504, Note_on_c, 9, 42, 81
1, 27504, Note_on_c, 9, 51, 126
1, 27504, Note_off_c, 9, 35, 64
1, 27504, Note_off_c, 9, 42, 64
1, 27504, Note_off_c, 9, 51, 64
1, 27506, Note_on_c, 7, 74, 57
1, 27512, Note_off_c, 6, 77, 64
1, 27513, Note_off_c, 6, 72, 64
1, 27520, Note_off_c, 7, 74, 64
1, 27523, Note_off_c, 4, 77, 64
1, 27525, Note_off_c, 0, 50, 64
1, 27526, Note_off_c, 0, 57, 64
1, 27531, Note_on_c, 4, 74, 96
1, 27541, Note_off_c, 4, 74, 64
1, 27544, Note_off_c, 3, 69, 64
1, 27544, Note_off_c, 5, 74, 64
1, 27548, Pitch_bend_c, 3, 6906
1, 27548, Pitch_bend_c, 5, 6906
1, 27551, Note_off_c, 1, 26, 64
1, 27552, Note_on_c, 0, 50, 89
1, 27552, Note_on_c, 0, 59, 89
1, 27552, Note_on_c, 1, 31, 120
1, 27552, Note_on_c, 6, 74, 127
1, 27552, Note_on_c, 6, 77, 125
1, 27552, Note_on_c, 7, 77, 68
1, 27552, Note_off_c, 8, 62, 64
1, 27552, Note_on_c, 8, 62, 103
1, 27552, Note_off_c, 8, 69, 64
1, 27552, Note_on_c, 8, 71, 113
1, 27552, Note_on_c, 9, 40, 108
1, 27552, Note_on_c, 9, 51, 126
1, 27552, Note_on_c, 9, 53, 126
1, 27552, Note_off_c, 9, 40, 64
1, 27552, Note_off_c, 9, 51, 64
1, 27552, Note_off_c, 9, 53, 64
1, 27554, Control_c, 3, 1, 0
1, 27554, Pitch_bend_c, 3, 0
1, 27554, Control_c, 5, 1, 0
1, 27554, Pitch_bend_c, 5, 0
1, 27558, Pitch_bend_c, 3, 578
1, 27558, Pitch_bend_c, 5, 578
1, 27562, Pitch_bend_c, 3, 8192
1, 27562, Pitch_bend_c, 5, 8192
1, 27571, Note_off_c, 1, 31, 64
1, 27571, Note_off_c, 7, 77, 64
1, 27575, Note_on_c, 4, 77, 108
1, 27576, Note_on_c, 1, 33, 115
1, 27578, Note_off_c, 0, 50, 64
1, 27579, Note_on_c, 7, 74, 51
1, 27582, Note_off_c, 0, 59, 64
1, 27586, Pitch_bend_c, 4, 7453
1, 27589, Note_off_c, 7, 74, 64
1, 27590, Pitch_bend_c, 4, 3598
1, 27594, Pitch_bend_c, 4, 0
1, 27596, Note_off_c, 4, 77, 64
1, 27597, Note_on_c, 4, 74, 115
1, 27600, Note_on_c, 0, 50, 89
1, 27600, Note_on_c, 0, 57, 89
1, 27600, Note_on_c, 1, 36, 115
1, 27600, Note_on_c, 6, 72, 116
1, 27600, Note_on_c, 9, 42, 81
1, 27600, Note_on_c, 9, 51, 126
1, 27600, Pitch_bend_c, 4, 2377
1, 27600, Note_off_c, 6, 74, 64
1, 27600, Note_off_c, 9, 42, 64
1, 27600, Note_off_c, 9, 51, 64
1, 27601, Note_off_c, 1, 33, 64
1, 27603, Note_off_c, 6, 77, 64
1, 27604, Pitch_bend_c, 4, 8192
1, 27608, Note_off_c, 6, 72, 64
1, 27623, Note_off_c, 0, 50, 64
1, 27623, Note_on_c, 7, 77, 63
1, 27624, Note_off_c, 0, 57, 64
1, 27644, Note_off_c, 1, 36, 64
1, 27644, Note_off_c, 7, 77, 64
1, 27645, Note_on_c, 7, 74, 70
1, 27648, Note_on_c, 0, 50, 89
1, 27648, Note_on_c, 0, 57, 89
1, 27648, Note_on_c, 1, 26, 112
1, 27648, Note_off_c, 8, 62, 64
1, 27648, Note_on_c, 8, 62, 103
1, 27648, Note_on_c, 8, 69, 111
1, 27648, Note_off_c, 8, 71, 64
1, 27648, Note_on_c, 9, 35, 127
1, 27648, Note_on_c, 9, 51, 126
1, 27648, Note_off_c, 9, 35, 64
1, 27648, Note_off_c, 9, 51, 64
1, 27667, Control_c, 4, 1, 24
1, 27673, Note_off_c, 0, 50, 64
1, 27673, Note_off_c, 0, 57, 64
1, 27675, Control_c, 4, 1, 72
1, 27683, Control_c, 4, 1, 117
1, 27684, Note_off_c, 1, 26, 64
1, 27690, Control_c, 4, 1, 126
1, 27692, Note_on_c, 9, 42, 85
1, 27693, Note_off_c, 9, 42, 64
1, 27696, Note_on_c, 0, 50, 89
1, 27696, Note_on_c, 0, 57, 89
1, 27696, Note_on_c, 1, 26, 115
1, 27696, Note_on_c, 6, 72, 111
1, 27696, Note_on_c, 6, 77, 99
1, 27700, Note_on_c, 9, 42, 126
1, 27700, Note_off_c, 9, 42, 64
1, 27703, Note_off_c, 6, 72, 64
1, 27705, Note_off_c, 6, 77, 64
1, 27716, Control_c, 4, 1, 127
1, 27719, Note_off_c, 0, 50, 64
1, 27720, Note_on_c, 9, 40, 127
1, 27720, Note_off_c, 9, 40, 64
1, 27722, Note_off_c, 0, 57, 64
1, 27743, Note_off_c, 1, 26, 64
1, 27744, Note_on_c, 0, 50, 89
1, 27744, Note_on_c, 0, 59, 89
1, 27744, Note_on_c, 1, 38, 126
1, 27744, Note_off_c, 8, 62, 64
1, 27744, Note_on_c, 8, 62, 107
1, 27744, Note_off_c, 8, 69, 64
1, 27744, Note_on_c, 8, 71, 100
1, 27744, Note_on_c, 9, 40, 127
1, 27744, Note_on_c, 9, 53, 126
1, 27744, Note_off_c, 9, 40, 64
1, 27744, Note_off_c, 9, 53, 64
1, 27765, Note_off_c, 0, 50, 64
1, 27768, Note_on_c, 9, 35, 127
1, 27768, Note_off_c, 9, 35, 64
1, 27773, Note_off_c, 0, 59, 64
1, 27782, Note_off_c, 1, 38, 64
1, 27784, Control_c, 4, 1, 125
1, 27792, Note_on_c, 0, 50, 89
1, 27792, Note_on_c, 0, 57, 89
1, 27792, Note_on_c, 1, 26, 112
1, 27792, Note_on_c, 6, 72, 125
1, 27792, Note_on_c, 6, 77, 111
1, 27792, Note_on_c, 9, 42, 126
1, 27792, Note_on_c, 9, 43, 52
1, 27792, Note_off_c, 9, 42, 64
1, 27792, Note_off_c, 9, 43, 64
1, 27793, Control_c, 4, 1, 94
1, 27801, Control_c, 4, 1, 42
1, 27802, Note_off_c, 6, 72, 64
1, 27804, Note_off_c, 6, 77, 64
1, 27810, Control_c, 4, 1, 13
1, 27813, Note_off_c, 0, 50, 64
1, 27815, Note_off_c, 0, 57, 64
1, 27816, Note_on_c, 9, 35, 127
1, 27816, Note_off_c, 9, 35, 64
1, 27818, Control_c, 4, 1, 23
1, 27829, Control_c, 4, 1, 29
1, 27837, Note_on_c, 4, 77, 119
1, 27838, Control_c, 4, 1, 0
1, 27839, Note_off_c, 4, 74, 64
1, 27840, Note_on_c, 0, 50, 89
1, 27840, Note_on_c, 0, 57, 89
1, 27840, Note_on_c, 1, 31, 106
1, 27840, Note_off_c, 8, 62, 64
1, 27840, Note_on_c, 8, 62, 92
1, 27840, Note_on_c, 8, 69, 109
1, 27840, Note_off_c, 8, 71, 64
1, 27841, Note_off_c, 1, 26, 64
1, 27843, Pitch_bend_c, 4, 5300
1, 27847, Pitch_bend_c, 4, 3084
1, 27852, Pitch_bend_c, 4, 4979
1, 27856, Pitch_bend_c, 4, 8192
1, 27863, Note_off_c, 0, 50, 64
1, 27863, Note_off_c, 1, 31, 64
1, 27863, Note_on_c, 4, 74, 86
1, 27864, Note_on_c, 1, 33, 110
1, 27864, Note_on_c, 9, 40, 127
1, 27864, Note_off_c, 0, 57, 64
1, 27864, Note_off_c, 9, 40, 64
1, 27865, Note_off_c, 4, 77, 64
1, 27877, Note_off_c, 4, 74, 64
1, 27885, Note_off_c, 1, 33, 64
1, 27885, Note_on_c, 7, 77, 74
1, 27887, Note_off_c, 7, 74, 64
1, 27888, Note_on_c, 0, 50, 89
1, 27888, Note_on_c, 0, 57, 89
1, 27888, Note_on_c, 1, 36, 106
1, 27888, Note_on_c, 6, 80, 127
1, 27888, Note_on_c, 6, 81, 127
1, 27888, Note_on_c, 6, 84, 126
1, 27888, Note_on_c, 9, 40, 122
1, 27888, Note_on_c, 9, 42, 126
1, 27888, Note_on_c, 9, 44, 125
1, 27888, Note_off_c, 9, 40, 64
1, 27888, Note_off_c, 9, 42, 64
1, 27888, Note_off_c, 9, 44, 64
1, 27893, Note_off_c, 6, 80, 64
1, 27910, Note_off_c, 0, 50, 64
1, 27911, Note_on_c, 7, 74, 41
1, 27912, Note_on_c, 9, 35, 127
1, 27912, Note_off_c, 9, 35, 64
1, 27913, Note_off_c, 7, 77, 64
1, 27914, Note_off_c, 6, 81, 64
1, 27915, Note_off_c, 0, 57, 64
1, 27923, Note_off_c, 6, 84, 64
1, 27925, Note_off_c, 7, 74, 64
1, 27933, Note_off_c, 1, 36, 64
1, 27936, Note_on_c, 0, 50, 89
1, 27936, Note_on_c, 0, 59, 89
1, 27936, Note_on_c, 1, 29, 110
1, 27936, Note_on_c, 3, 72, 110
1, 27936, Note_on_c, 5, 77, 110
1, 27936, Note_on_c, 6, 79, 127
1, 27936, Note_on_c, 6, 83, 127
1, 27936, Note_off_c, 8, 62, 64
1, 27936, Note_on_c, 8, 62, 87
1, 27936, Note_off_c, 8, 69, 64
1, 27936, Note_on_c, 8, 71, 105
1, 27936, Note_on_c, 9, 40, 127
1, 27936, Note_off_c, 9, 40, 64
1, 27952, Note_off_c, 6, 79, 64
1, 27957, Note_off_c, 0, 50, 64
1, 27959, Note_off_c, 1, 29, 64
1, 27959, Note_off_c, 6, 83, 64
1, 27959, Note_on_c, 9, 43, 115
1, 27960, Note_on_c, 1, 31, 110
1, 27960, Note_on_c, 6, 77, 103
1, 27960, Note_on_c, 6, 81, 103
1, 27960, Note_off_c, 9, 43, 64
1, 27967, Note_off_c, 3, 72, 64
1, 27967, Note_off_c, 5, 77, 64
1, 27967, Note_off_c, 6, 77, 64
1, 27968, Note_off_c, 6, 81, 64
1, 27977, Note_off_c, 0, 59, 64
1, 27983, Note_off_c, 1, 31, 64
1, 27984, Note_on_c, 0, 50, 89
1, 27984, Note_on_c, 0, 57, 89
1, 27984, Note_on_c, 1, 33, 124
1, 27984, Note_on_c, 3, 72, 91
1, 27984, Note_on_c, 5, 77, 91
1, 27984, Note_on_c, 6, 74, 125
1, 27984, Note_on_c, 6, 77, 121
1, 27984, Note_on_c, 9, 42, 125
1, 27984, Note_on_c, 9, 45, 88
1, 27984, Note_off_c, 9, 42, 64
1, 27984, Note_off_c, 9, 45, 64
1, 28000, Note_off_c, 0, 57, 64
1, 28003, Pitch_bend_c, 3, 6842
1, 28003, Pitch_bend_c, 5, 6842
1, 28003, Note_off_c, 0, 50, 64
1, 28007, Pitch_bend_c, 3, 0
1, 28007, Pitch_bend_c, 5, 0
1, 28008, Note_on_c, 3, 71, 108
1, 28008, Note_on_c, 5, 76, 108
1, 28008, Note_off_c, 6, 74, 64
1, 28008, Note_on_c, 9, 35, 127
1, 28008, Note_off_c, 9, 35, 64
1, 28011, Note_off_c, 6, 77, 64
1, 28014, Note_off_c, 3, 72, 64
1, 28014, Pitch_bend_c, 3, 8192
1, 28014, Note_off_c, 5, 77, 64
1, 28014, Pitch_bend_c, 5, 8192
1, 28030, Note_off_c, 1, 33, 64
1, 28032, Note_on_c, 0, 50, 89
1, 28032, Note_on_c, 0, 57, 89
1, 28032, Note_on_c, 1, 26, 89
1, 28032, Note_off_c, 8, 62, 64
1, 28032, Note_on_c, 8, 62, 113
1, 28032, Note_on_c, 8, 69, 116
1, 28032, Note_off_c, 8, 71, 64
1, 28032, Note_on_c, 9, 35, 127
1, 28032, Note_on_c, 9, 49, 126
1, 28032, Note_off_c, 9, 35, 64
1, 28032, Note_off_c, 9, 49, 64
1, 28052, Pitch_bend_c, 3, 7999
1, 28052, Pitch_bend_c, 5, 7999
1, 28055, Note_off_c, 0, 50, 64
1, 28055, Note_off_c, 1, 26, 64
1, 28056, Note_on_c, 3, 69, 115
1, 28056, Note_on_c, 5, 74, 115
1, 28056, Note_off_c, 3, 71, 64
1, 28056, Note_off_c, 5, 76, 64
1, 28057, Pitch_bend_c, 3, 2313
1, 28057, Pitch_bend_c, 5, 2313
1, 28060, Note_off_c, 0, 57, 64
1, 28062, Pitch_bend_c, 3, 1702
1, 28062, Pitch_bend_c, 5, 1702
1, 28065, Pitch_bend_c, 3, 8192
1, 28065, Pitch_bend_c, 5, 8192
1, 28080, Note_on_c, 0, 50, 89
1, 28080, Note_on_c, 0, 57, 89
1, 28080, Note_on_c, 1, 26, 104
1, 28080, Note_on_c, 6, 72, 123
1, 28080, Note_on_c, 6, 77, 109
1, 28080, Note_on_c, 9, 42, 99
1, 28080, Note_on_c, 9, 51, 113
1, 28080, Note_off_c, 9, 42, 64
1, 28080, Note_off_c, 9, 51, 64
1, 28089, Note_off_c, 6, 72, 64
1, 28090, Note_off_c, 6, 77, 64
1, 28109, Note_off_c, 0, 50, 64
1, 28116, Note_off_c, 0, 57, 64
1, 28123, Note_off_c, 1, 26, 64
1, 28128, Note_on_c, 0, 50, 89
1, 28128, Note_on_c, 0, 59, 89
1, 28128, Note_on_c, 1, 38, 126
1, 28128, Note_off_c, 8, 62, 64
1, 28128, Note_on_c, 8, 62, 98
1, 28128, Note_off_c, 8, 69, 64
1, 28128, Note_on_c, 8, 71, 113
1, 28128, Note_on_c, 9, 40, 127
1, 28128, Note_on_c, 9, 51, 126
1, 28128, Note_on_c, 9, 53, 126
1, 28128, Note_off_c, 9, 40, 64
1, 28128, Note_off_c, 9, 51, 64
1, 28128, Note_off_c, 9, 53, 64
1, 28143, Control_c, 3, 1, 9
1, 28143, Control_c, 5, 1, 9
1, 28151, Control_c, 3, 1, 35
1, 28151, Control_c, 5, 1, 35
1, 28159, Control_c, 3, 1, 66
1, 28159, Control_c, 5, 1, 66
1, 28165, Note_off_c, 0, 50, 64
1, 28168, Control_c, 3, 1, 106
1, 28168, Control_c, 5, 1, 106
1, 28170, Note_off_c, 1, 38, 64
1, 28173, Note_off_c, 0, 59, 64
1, 28176, Note_on_c, 0, 50, 89
1, 28176, Note_on_c, 0, 57, 89
1, 28176, Note_on_c, 1, 26, 98
1, 28176, Note_on_c, 6, 72, 123
1, 28176, Note_on_c, 6, 77, 109
1, 28176, Note_on_c, 9, 42, 93
1, 28176, Note_on_c, 9, 51, 126
1, 28176, Note_off_c, 9, 42, 64
1, 28176, Note_off_c, 9, 51, 64
1, 28177, Control_c, 3, 1, 127
1, 28177, Control_c, 5, 1, 127
1, 28185, Note_off_c, 6, 72, 64
1, 28187, Note_off_c, 6, 77, 64
1, 28200, Note_off_c, 1, 26, 64
1, 28203, Note_off_c, 0, 50, 64
1, 28204, Note_off_c, 0, 57, 64
1, 28224, Note_on_c, 0, 50, 89
1, 28224, Note_on_c, 0, 57, 89
1, 28224, Note_on_c, 1, 26, 106
1, 28224, Note_on_c, 4, 72, 125
1, 28224, Note_off_c, 8, 62, 64
1, 28224, Note_on_c, 8, 62, 107
1, 28224, Note_on_c, 8, 69, 109
1, 28224, Note_off_c, 8, 71, 64
1, 28224, Note_on_c, 9, 35, 127
1, 28224, Note_on_c, 9, 51, 126
1, 28224, Note_off_c, 9, 35, 64
1, 28224, Note_off_c, 9, 51, 64
1, 28248, Note_on_c, 4, 74, 108
1, 28249, Note_off_c, 4, 72, 64
1, 28252, Note_off_c, 1, 26, 64
1, 28252, Note_off_c, 3, 69, 64
1, 28252, Note_off_c, 5, 74, 64
1, 28253, Note_off_c, 0, 50, 64
1, 28255, Control_c, 3, 1, 0
1, 28255, Control_c, 5, 1, 0
1, 28255, Note_off_c, 0, 57, 64
1, 28261, Note_off_c, 4, 74, 64
1, 28272, Note_on_c, 0, 50, 89
1, 28272, Note_on_c, 0, 57, 89
1, 28272, Note_on_c, 1, 26, 112
1, 28272, Note_on_c, 6, 72, 123
1, 28272, Note_on_c, 6, 77, 109
1, 28272, Note_on_c, 7, 72, 80
1, 28272, Note_on_c, 9, 35, 127
1, 28272, Note_on_c, 9, 42, 113
1, 28272, Note_on_c, 9, 51, 126
1, 28272, Note_off_c, 9, 35, 64
1, 28272, Note_off_c, 9, 42, 64
1, 28272, Note_off_c, 9, 51, 64
1, 28281, Note_off_c, 6, 72, 64
1, 28283, Note_off_c, 6, 77, 64
1, 28296, Note_on_c, 4, 69, 106
1, 28296, Note_on_c, 7, 74, 63
1, 28297, Note_off_c, 7, 72, 64
1, 28299, Note_off_c, 0, 50, 64
1, 28299, Note_off_c, 0, 57, 64
1, 28309, Note_off_c, 7, 74, 64
1, 28319, Note_off_c, 1, 26, 64
1, 28320, Note_on_c, 0, 50, 89
1, 28320, Note_on_c, 0, 59, 89
1, 28320, Note_on_c, 1, 31, 104
1, 28320, Note_on_c, 4, 72, 110
1, 28320, Note_on_c, 6, 74, 127
1, 28320, Note_on_c, 6, 77, 123
1, 28320, Note_off_c, 8, 62, 64
1, 28320, Note_on_c, 8, 62, 72
1, 28320, Note_off_c, 8, 69, 64
1, 28320, Note_on_c, 8, 71, 105
1, 28320, Note_on_c, 9, 40, 127
1, 28320, Note_on_c, 9, 51, 126
1, 28320, Note_on_c, 9, 53, 126
1, 28320, Note_off_c, 9, 40, 64
1, 28320, Note_off_c, 9, 51, 64
1, 28320, Note_off_c, 9, 53, 64
1, 28323, Note_off_c, 4, 69, 64
1, 28339, Note_off_c, 4, 72, 64
1, 28340, Note_off_c, 1, 31, 64
1, 28344, Note_on_c, 1, 33, 106
1, 28344, Note_on_c, 4, 77, 122
1, 28344, Note_on_c, 7, 69, 61
1, 28347, Note_off_c, 0, 50, 64
1, 28353, Note_off_c, 0, 59, 64
1, 28356, Pitch_bend_c, 4, 10794
1, 28360, Pitch_bend_c, 4, 16383
1, 28364, Note_off_c, 1, 33, 64
1, 28368, Note_on_c, 0, 50, 89
1, 28368, Note_on_c, 0, 57, 89
1, 28368, Note_on_c, 1, 36, 122
1, 28368, Note_on_c, 6, 72, 109
1, 28368, Note_off_c, 6, 74, 64
1, 28368, Note_on_c, 7, 72, 65
1, 28368, Note_on_c, 9, 42, 89
1, 28368, Note_on_c, 9, 51, 126
1, 28368, Note_off_c, 9, 42, 64
1, 28368, Note_off_c, 9, 51, 64
1, 28371, Note_off_c, 7, 69, 64
1, 28374, Pitch_bend_c, 4, 14906
1, 28375, Note_off_c, 6, 77, 64
1, 28377, Pitch_bend_c, 4, 8192
1, 28379, Note_off_c, 6, 72, 64
1, 28387, Note_off_c, 7, 72, 64
1, 28392, Note_on_c, 4, 74, 108
1, 28392, Note_on_c, 7, 77, 77
1, 28393, Note_off_c, 4, 77, 64
1, 28394, Note_off_c, 0, 50, 64
1, 28394, Note_off_c, 0, 57, 64
1, 28412, Note_off_c, 1, 36, 64
1, 28416, Note_on_c, 0, 50, 89
1, 28416, Note_on_c, 0, 57, 89
1, 28416, Note_on_c, 1, 26, 120
1, 28416, Note_off_c, 8, 62, 64
1, 28416, Note_on_c, 8, 62, 100
1, 28416, Note_on_c, 8, 69, 116
1, 28416, Note_off_c, 8, 71, 64
1, 28416, Note_on_c, 9, 35, 127
1, 28416, Note_on_c, 9, 51, 126
1, 28416, Note_off_c, 9, 35, 64
1, 28416, Note_off_c, 9, 51, 64
1, 28440, Note_on_c, 7, 74, 63
1, 28441, Note_off_c, 7, 77, 64
1, 28441, Note_off_c, 0, 50, 64
1, 28442, Note_off_c, 0, 57, 64
1, 28443, Control_c, 4, 1, 46
1, 28451, Control_c, 4, 1, 97
1, 28452, Note_off_c, 1, 26, 64
1, 28459, Control_c, 4, 1, 110
1, 28464, Note_on_c, 0, 50, 89
1, 28464, Note_on_c, 0, 57, 89
1, 28464, Note_on_c, 1, 26, 110
1, 28464, Note_on_c, 6, 72, 127
1, 28464, Note_on_c, 6, 77, 109
1, 28464, Note_on_c, 9, 42, 87
1, 28464, Note_on_c, 9, 51, 126
1, 28464, Note_off_c, 9, 42, 64
1, 28464, Note_off_c, 9, 51, 64
1, 28468, Control_c, 4, 1, 127
1, 28473, Note_off_c, 6, 72, 64
1, 28475, Note_off_c, 6, 77, 64
1, 28487, Note_off_c, 0, 50, 64
1, 28490, Note_off_c, 0, 57, 64
1, 28500, Control_c, 4, 1, 126
1, 28509, Control_c, 4, 1, 76
1, 28511, Note_off_c, 1, 26, 64
1, 28512, Note_on_c, 0, 50, 89
1, 28512, Note_on_c, 0, 59, 89
1, 28512, Note_on_c, 1, 38, 126
1, 28512, Note_off_c, 8, 62, 64
1, 28512, Note_on_c, 8, 62, 105
1, 28512, Note_off_c, 8, 69, 64
1, 28512, Note_on_c, 8, 71, 105
1, 28512, Note_on_c, 9, 40, 127
1, 28512, Note_on_c, 9, 51, 126
1, 28512, Note_on_c, 9, 53, 126
1, 28512, Note_off_c, 9, 40, 64
1, 28512, Note_off_c, 9, 51, 64
1, 28512, Note_off_c, 9, 53, 64
1, 28517, Control_c, 4, 1, 38
1, 28524, Control_c, 4, 1, 20
1, 28532, Control_c, 4, 1, 0
1, 28536, Note_off_c, 0, 50, 64
1, 28537, Note_off_c, 0, 59, 64
1, 28560, Note_on_c, 0, 50, 89
1, 28560, Note_on_c, 0, 57, 89
1, 28560, Note_on_c, 1, 26, 104
1, 28560, Note_on_c, 6, 72, 125
1, 28560, Note_on_c, 6, 77, 111
1, 28560, Note_on_c, 9, 42, 73
1, 28560, Note_on_c, 9, 51, 126
1, 28560, Note_off_c, 9, 42, 64
1, 28560, Note_off_c, 9, 51, 64
1, 28565, Note_off_c, 1, 26, 64
1, 28572, Note_off_c, 6, 72, 64
1, 28574, Note_off_c, 6, 77, 64
1, 28584, Note_off_c, 0, 57, 64
1, 28584, Note_off_c, 0, 50, 64
1, 28587, Note_off_c, 1, 38, 64
1, 28607, Pitch_bend_c, 4, 7999
1, 28608, Note_on_c, 0, 50, 89
1, 28608, Note_on_c, 0, 57, 89
1, 28608, Note_on_c, 1, 26, 110
1, 28608, Note_on_c, 4, 77, 114
1, 28608, Note_off_c, 8, 62, 64
1, 28608, Note_on_c, 8, 62, 98
1, 28608, Note_on_c, 8, 69, 113
1, 28608, Note_off_c, 8, 71, 64
1, 28608, Note_on_c, 9, 35, 127
1, 28608, Note_on_c, 9, 51, 126
1, 28608, Note_off_c, 9, 35, 64
1, 28608, Note_off_c, 9, 51, 64
1, 28610, Pitch_bend_c, 4, 6939
1, 28615, Note_off_c, 4, 74, 64
1, 28615, Pitch_bend_c, 4, 6457
1, 28619, Pitch_bend_c, 4, 8192
1, 28632, Note_on_c, 4, 74, 88
1, 28632, Note_off_c, 0, 50, 64
1, 28634, Note_off_c, 0, 57, 64
1, 28634, Note_off_c, 1, 26, 64
1, 28635, Note_off_c, 4, 77, 64
1, 28645, Note_off_c, 4, 74, 64
1, 28656, Note_on_c, 0, 50, 89
1, 28656, Note_on_c, 0, 57, 89
1, 28656, Note_on_c, 1, 26, 99
1, 28656, Note_on_c, 6, 72, 118
1, 28656, Note_on_c, 6, 77, 107
1, 28656, Note_on_c, 7, 77, 69
1, 28656, Note_on_c, 9, 35, 127
1, 28656, Note_on_c, 9, 42, 93
1, 28656, Note_on_c, 9, 51, 126
1, 28656, Note_off_c, 9, 35, 64
1, 28656, Note_off_c, 9, 42, 64
1, 28656, Note_off_c, 9, 51, 64
1, 28663, Note_off_c, 7, 74, 64
1, 28667, Note_off_c, 6, 72, 64
1, 28668, Note_off_c, 6, 77, 64
1, 28679, Note_off_c, 0, 50, 64
1, 28680, Note_on_c, 4, 77, 99
1, 28680, Note_on_c, 7, 74, 43
1, 28681, Note_off_c, 0, 57, 64
1, 28683, Note_off_c, 7, 77, 64
1, 28693, Note_off_c, 7, 74, 64
1, 28693, Note_off_c, 4, 77, 64
1, 28702, Note_off_c, 1, 26, 64
1, 28704, Note_on_c, 0, 50, 89
1, 28704, Note_on_c, 0, 59, 89
1, 28704, Note_on_c, 1, 31, 108
1, 28704, Note_off_c, 8, 62, 64
1, 28704, Note_on_c, 8, 62, 100
1, 28704, Note_off_c, 8, 69, 64
1, 28704, Note_on_c, 8, 71, 105
1, 28704, Note_on_c, 9, 40, 127
1, 28704, Note_on_c, 9, 51, 126
1, 28704, Note_on_c, 9, 53, 126
1, 28704, Note_off_c, 9, 40, 64
1, 28704, Note_off_c, 9, 51, 64
1, 28704, Note_off_c, 9, 53, 64
1, 28726, Note_off_c, 1, 31, 64
1, 28728, Note_on_c, 1, 33, 78
1, 28728, Note_on_c, 7, 77, 54
1, 28728, Note_off_c, 0, 59, 64
1, 28731, Note_off_c, 0, 50, 64
1, 28741, Note_off_c, 7, 77, 64
1, 28748, Note_off_c, 1, 33, 64
1, 28752, Note_on_c, 0, 50, 89
1, 28752, Note_on_c, 0, 57, 89
1, 28752, Note_on_c, 1, 29, 110
1, 28752, Note_on_c, 6, 74, 125
1, 28752, Note_on_c, 6, 77, 118
1, 28752, Note_on_c, 9, 42, 85
1, 28752, Note_on_c, 9, 51, 126
1, 28752, Note_off_c, 9, 42, 64
1, 28752, Note_off_c, 9, 51, 64
1, 28777, Note_off_c, 0, 57, 64
1, 28778, Note_off_c, 0, 50, 64
1, 28795, Note_off_c, 1, 29, 64
1, 28796, Note_off_c, 6, 74, 64
1, 28798, Note_off_c, 6, 77, 64
1, 28800, Note_on_c, 0, 50, 89
1, 28800, Note_on_c, 0, 57, 89
1, 28800, Note_on_c, 1, 26, 122
1, 28800, Note_off_c, 8, 62, 64
1, 28800, Note_on_c, 8, 62, 105
1, 28800, Note_on_c, 8, 69, 116
1, 28800, Note_off_c, 8, 71, 64
1, 28800, Note_on_c, 9, 35, 127
1, 28800, Note_on_c, 9, 49, 126
1, 28800, Note_off_c, 9, 35, 64
1, 28800, Note_off_c, 9, 49, 64
1, 28826, Note_off_c, 0, 50, 64
1, 28826, Note_off_c, 0, 57, 64
1, 28832, Note_off_c, 1, 26, 64
1, 28848, Note_on_c, 0, 50, 89
1, 28848, Note_on_c, 0, 57, 89
1, 28848, Note_on_c, 1, 26, 117
1, 28848, Note_on_c, 6, 72, 118
1, 28848, Note_on_c, 6, 77, 109
1, 28848, Note_on_c, 9, 42, 99
1, 28848, Note_on_c, 9, 51, 113
1, 28848, Note_off_c, 9, 42, 64
1, 28848, Note_off_c, 9, 51, 64
1, 28857, Note_off_c, 6, 72, 64
1, 28859, Note_off_c, 6, 77, 64
1, 28872, Note_off_c, 0, 50, 64
1, 28874, Note_off_c, 0, 57, 64
1, 28896, Note_on_c, 0, 50, 89
1, 28896, Note_on_c, 0, 59, 89
1, 28896, Note_on_c, 1, 38, 126
1, 28896, Note_off_c, 8, 62, 64
1, 28896, Note_on_c, 8, 62, 125
1, 28896, Note_off_c, 8, 69, 64
1, 28896, Note_on_c, 8, 71, 125
1, 28896, Note_on_c, 9, 40, 127
1, 28896, Note_on_c, 9, 51, 126
1, 28896, Note_on_c, 9, 53, 126
1, 28896, Note_off_c, 9, 40, 64
1, 28896, Note_off_c, 9, 51, 64
1, 28896, Note_off_c, 9, 53, 64
1, 28898, Note_off_c, 1, 26, 64
1, 28924, Note_off_c, 0, 50, 64
1, 28926, Note_off_c, 0, 59, 64
1, 28934, Note_off_c, 1, 38, 64
1, 28944, Note_on_c, 0, 50, 89
1, 28944, Note_on_c, 0, 57, 89
1, 28944, Note_on_c, 1, 26, 92
1, 28944, Note_on_c, 6, 72, 125
1, 28944, Note_on_c, 6, 77, 125
1, 28944, Note_on_c, 9, 42, 93
1, 28944, Note_on_c, 9, 51, 126
1, 28944, Note_off_c, 9, 42, 64
1, 28944, Note_off_c, 9, 51, 64
1, 28957, Note_off_c, 6, 72, 64
1, 28959, Note_off_c, 6, 77, 64
1, 28967, Note_off_c, 1, 26, 64
1, 28969, Note_off_c, 0, 57, 64
1, 28971, Note_off_c, 0, 50, 64
1, 28992, Note_on_c, 0, 50, 89
1, 28992, Note_on_c, 0, 57, 89
1, 28992, Note_on_c, 1, 26, 112
1, 28992, Note_off_c, 8, 62, 64
1, 28992, Note_on_c, 8, 62, 125
1, 28992, Note_on_c, 8, 69, 125
1, 28992, Note_off_c, 8, 71, 64
1, 28992, Note_on_c, 9, 35, 127
1, 28992, Note_on_c, 9, 51, 126
1, 28992, Note_off_c, 9, 35, 64
1, 28992, Note_off_c, 9, 51, 64
1, 29017, Note_off_c, 0, 50, 64
1, 29017, Note_off_c, 0, 57, 64
1, 29021, Note_off_c, 1, 26, 64
1, 29040, Note_on_c, 0, 50, 89
1, 29040, Note_on_c, 0, 57, 89
1, 29040, Note_on_c, 1, 26, 110
1, 29040, Note_on_c, 6, 72, 127
1, 29040, Note_on_c, 6, 77, 127
1, 29040, Note_on_c, 9, 35, 127
1, 29040, Note_on_c, 9, 42, 113
1, 29040, Note_on_c, 9, 51, 126
1, 29040, Note_off_c, 9, 35, 64
1, 29040, Note_off_c, 9, 42, 64
1, 29040, Note_off_c, 9, 51, 64
1, 29050, Note_off_c, 6, 72, 64
1, 29053, Note_off_c, 6, 77, 64
1, 29061, Note_off_c, 0, 50, 64
1, 29062, Note_off_c, 0, 57, 64
1, 29087, Note_off_c, 1, 26, 64
1, 29088, Note_on_c, 0, 50, 89
1, 29088, Note_on_c, 0, 59, 89
1, 29088, Note_on_c, 1, 31, 120
1, 29088, Note_on_c, 3, 72, 102
1, 29088, Note_on_c, 5, 77, 102
1, 29088, Note_on_c, 6, 86, 127
1, 29088, Note_off_c, 8, 62, 64
1, 29088, Note_on_c, 8, 62, 127
1, 29088, Note_off_c, 8, 69, 64
1, 29088, Note_on_c, 8, 71, 127
1, 29088, Note_on_c, 9, 40, 127
1, 29088, Note_on_c, 9, 51, 126
1, 29088, Note_on_c, 9, 53, 126
1, 29088, Note_off_c, 9, 40, 64
1, 29088, Note_off_c, 9, 51, 64
1, 29088, Note_off_c, 9, 53, 64
1, 29107, Note_off_c, 1, 31, 64
1, 29111, Note_on_c, 9, 45, 106
1, 29112, Note_on_c, 1, 33, 115
1, 29112, Note_on_c, 6, 84, 109
1, 29112, Note_off_c, 9, 45, 64
1, 29114, Note_off_c, 0, 50, 64
1, 29116, Note_off_c, 6, 86, 64
1, 29118, Note_off_c, 0, 59, 64
1, 29121, Note_off_c, 3, 72, 64
1, 29121, Note_off_c, 5, 77, 64
1, 29135, Note_off_c, 6, 84, 64
1, 29135, Note_on_c, 9, 45, 100
1, 29136, Note_on_c, 0, 50, 89
1, 29136, Note_on_c, 0, 57, 89
1, 29136, Note_on_c, 1, 36, 115
1, 29136, Note_on_c, 3, 72, 104
1, 29136, Note_on_c, 5, 77, 104
1, 29136, Note_on_c, 6, 81, 105
1, 29136, Note_on_c, 8, 69, 116
1, 29136, Note_on_c, 9, 42, 89
1, 29136, Note_off_c, 9, 45, 64
1, 29136, Note_on_c, 9, 51, 126
1, 29136, Note_off_c, 8, 62, 64
1, 29136, Note_off_c, 9, 42, 64
1, 29136, Note_off_c, 9, 51, 64
1, 29137, Note_off_c, 1, 33, 64
1, 29142, Note_off_c, 8, 71, 64
1, 29158, Note_off_c, 6, 81, 64
1, 29159, Note_off_c, 0, 50, 64
1, 29160, Note_off_c, 0, 57, 64
1, 29160, Note_on_c, 3, 71, 108
1, 29160, Note_on_c, 5, 76, 108
1, 29160, Note_on_c, 6, 77, 107
1, 29160, Note_on_c, 9, 46, 124
1, 29160, Note_off_c, 9, 46, 64
1, 29163, Note_off_c, 3, 72, 64
1, 29163, Note_off_c, 5, 77, 64
1, 29168, Note_off_c, 6, 77, 64
1, 29175, Note_off_c, 8, 69, 64
1, 29180, Note_off_c, 1, 36, 64
1, 29184, Note_on_c, 8, 50, 127
1, 29184, Note_on_c, 8, 62, 126
1, 29184, Note_on_c, 9, 40, 127
1, 29184, Note_on_c, 9, 44, 31
1, 29184, Note_off_c, 9, 40, 64
1, 29184, Note_off_c, 9, 44, 64
1, 29189, Note_off_c, 3, 71, 64
1, 29189, Note_off_c, 5, 76, 64
1, 29189, Note_on_c, 9, 40, 127
1, 29189, Note_off_c, 9, 40, 64
1, 29208, Note_on_c, 3, 69, 106
1, 29208, Note_on_c, 5, 74, 106
1, 29215, Note_off_c, 8, 50, 64
1, 29216, Note_off_c, 8, 62, 64
1, 29245, Control_c, 3, 1, 2
1, 29245, Control_c, 5, 1, 2
1, 29253, Control_c, 3, 1, 27
1, 29253, Control_c, 5, 1, 27
1, 29261, Control_c, 3, 1, 79
1, 29261, Control_c, 5, 1, 79
1, 29269, Control_c, 3, 1, 117
1, 29269, Control_c, 5, 1, 117
1, 29277, Control_c, 3, 1, 126
1, 29277, Control_c, 5, 1, 126
1, 29292, Control_c, 3, 1, 127
1, 29292, Control_c, 5, 1, 127
1, 29395, Note_off_c, 3, 69, 64
1, 29395, Note_off_c, 5, 74, 64
1, 29407, Control_c, 3, 1, 118
1, 29407, Control_c, 5, 1, 118
1, 29415, Control_c, 3, 1, 4
1, 29415, Control_c, 5, 1, 4
1, 29568, Control_c, 0, 120, 0
1, 29569, Control_c, 0, 123, 0
1, 29570, Control_c, 1, 120, 0
1, 29571, Control_c, 1, 123, 0
1, 29572, Control_c, 2, 120, 0
1, 29573, Control_c, 2, 123, 0
1, 29574, Control_c, 3, 120, 0
1, 29575, Control_c, 3, 123, 0
1, 29576, Control_c, 4, 120, 0
1, 29577, Control_c, 4, 123, 0
1, 29578, Control_c, 5, 120, 0
1, 29579, Control_c, 5, 123, 0
1, 29580, Control_c, 6, 120, 0
1, 29581, Control_c, 6, 123, 0
1, 29582, Control_c, 7, 120, 0
1, 29583, Control_c, 7, 123, 0
1, 29584, Control_c, 8, 120, 0
1, 29585, Control_c, 8, 123, 0
1, 29586, Control_c, 9, 120, 0
1, 29587, Control_c, 9, 123, 0
1, 29587, End_track
0, 0, End_of_file
