0, 0, Header, 1, 13, 192
1, 0, Start_track
1, 0, Title_t, "Could_I_Have_This_Kiss_Forever_-_Enrique_Iglesias_and_Whitney_Houston"
1, 0, Text_t, "By uston"
1, 0, Copyright_t, "Copyright © <Year> by <Name>"
1, 0, Copyright_t, "All Rights Reserved"
1, 0, Text_t, "Generated by NoteWorthy Composer"
1, 0, Tempo, 731707
1, 0, Time_signature, 4, 2, 24, 8
1, 65472, Tempo, 800000
1, 65472, End_track
2, 0, Start_track
2, 0, MIDI_port, 0
2, 0, Title_t, "MIDI MAN!A 3000"
2, 0, Program_c, 9, 0
2, 0, Control_c, 9, 7, 127
2, 0, Control_c, 9, 10, 64
2, 192, Note_on_c, 9, 69, 110
2, 238, Note_on_c, 9, 69, 0
2, 240, Note_on_c, 9, 69, 110
2, 286, Note_on_c, 9, 69, 0
2, 288, Note_on_c, 9, 69, 110
2, 334, Note_on_c, 9, 69, 0
2, 336, Note_on_c, 9, 69, 110
2, 382, Note_on_c, 9, 69, 0
2, 384, Note_on_c, 9, 69, 110
2, 430, Note_on_c, 9, 69, 0
2, 432, Note_on_c, 9, 69, 110
2, 478, Note_on_c, 9, 69, 0
2, 480, Note_on_c, 9, 69, 110
2, 526, Note_on_c, 9, 69, 0
2, 528, Note_on_c, 9, 69, 110
2, 574, Note_on_c, 9, 69, 0
2, 576, Note_on_c, 9, 69, 110
2, 622, Note_on_c, 9, 69, 0
2, 624, Note_on_c, 9, 69, 110
2, 670, Note_on_c, 9, 69, 0
2, 672, Note_on_c, 9, 69, 110
2, 718, Note_on_c, 9, 69, 0
2, 720, Note_on_c, 9, 69, 110
2, 766, Note_on_c, 9, 69, 0
2, 768, Note_on_c, 9, 69, 110
2, 814, Note_on_c, 9, 69, 0
2, 816, Note_on_c, 9, 69, 110
2, 862, Note_on_c, 9, 69, 0
2, 864, Note_on_c, 9, 69, 110
2, 910, Note_on_c, 9, 69, 0
2, 912, Note_on_c, 9, 69, 110
2, 958, Note_on_c, 9, 69, 0
2, 960, Note_on_c, 9, 69, 110
2, 1006, Note_on_c, 9, 69, 0
2, 1008, Note_on_c, 9, 69, 110
2, 1054, Note_on_c, 9, 69, 0
2, 1056, Note_on_c, 9, 69, 110
2, 1102, Note_on_c, 9, 69, 0
2, 1104, Note_on_c, 9, 69, 110
2, 1150, Note_on_c, 9, 69, 0
2, 1152, Note_on_c, 9, 69, 110
2, 1198, Note_on_c, 9, 69, 0
2, 1200, Note_on_c, 9, 69, 110
2, 1246, Note_on_c, 9, 69, 0
2, 1248, Note_on_c, 9, 69, 110
2, 1294, Note_on_c, 9, 69, 0
2, 1296, Note_on_c, 9, 69, 110
2, 1342, Note_on_c, 9, 69, 0
2, 1344, Note_on_c, 9, 69, 110
2, 1390, Note_on_c, 9, 69, 0
2, 1392, Note_on_c, 9, 69, 110
2, 1438, Note_on_c, 9, 69, 0
2, 1440, Note_on_c, 9, 69, 110
2, 1486, Note_on_c, 9, 69, 0
2, 1488, Note_on_c, 9, 69, 110
2, 1534, Note_on_c, 9, 69, 0
2, 1536, Note_on_c, 9, 69, 110
2, 1582, Note_on_c, 9, 69, 0
2, 1584, Note_on_c, 9, 69, 110
2, 1630, Note_on_c, 9, 69, 0
2, 1632, Note_on_c, 9, 69, 110
2, 1678, Note_on_c, 9, 69, 0
2, 1680, Note_on_c, 9, 69, 110
2, 1726, Note_on_c, 9, 69, 0
2, 1728, Note_on_c, 9, 69, 110
2, 1774, Note_on_c, 9, 69, 0
2, 1776, Note_on_c, 9, 69, 110
2, 1822, Note_on_c, 9, 69, 0
2, 1824, Note_on_c, 9, 69, 110
2, 1870, Note_on_c, 9, 69, 0
2, 1872, Note_on_c, 9, 69, 110
2, 1918, Note_on_c, 9, 69, 0
2, 1920, Note_on_c, 9, 69, 110
2, 1966, Note_on_c, 9, 69, 0
2, 1968, Note_on_c, 9, 69, 110
2, 2014, Note_on_c, 9, 69, 0
2, 2016, Note_on_c, 9, 69, 110
2, 2062, Note_on_c, 9, 69, 0
2, 2064, Note_on_c, 9, 69, 110
2, 2110, Note_on_c, 9, 69, 0
2, 2112, Note_on_c, 9, 69, 110
2, 2158, Note_on_c, 9, 69, 0
2, 2160, Note_on_c, 9, 69, 110
2, 2206, Note_on_c, 9, 69, 0
2, 2208, Note_on_c, 9, 69, 110
2, 2254, Note_on_c, 9, 69, 0
2, 2256, Note_on_c, 9, 69, 110
2, 2302, Note_on_c, 9, 69, 0
2, 2304, Note_on_c, 9, 69, 110
2, 2350, Note_on_c, 9, 69, 0
2, 2352, Note_on_c, 9, 69, 110
2, 2398, Note_on_c, 9, 69, 0
2, 2400, Note_on_c, 9, 69, 110
2, 2446, Note_on_c, 9, 69, 0
2, 2448, Note_on_c, 9, 69, 110
2, 2494, Note_on_c, 9, 69, 0
2, 2496, Note_on_c, 9, 69, 110
2, 2542, Note_on_c, 9, 69, 0
2, 2544, Note_on_c, 9, 69, 110
2, 2590, Note_on_c, 9, 69, 0
2, 2592, Note_on_c, 9, 69, 110
2, 2638, Note_on_c, 9, 69, 0
2, 2640, Note_on_c, 9, 69, 110
2, 2686, Note_on_c, 9, 69, 0
2, 2688, Note_on_c, 9, 69, 110
2, 2734, Note_on_c, 9, 69, 0
2, 2736, Note_on_c, 9, 69, 110
2, 2782, Note_on_c, 9, 69, 0
2, 2784, Note_on_c, 9, 69, 110
2, 2830, Note_on_c, 9, 69, 0
2, 2832, Note_on_c, 9, 69, 110
2, 2878, Note_on_c, 9, 69, 0
2, 2880, Note_on_c, 9, 69, 110
2, 2926, Note_on_c, 9, 69, 0
2, 2928, Note_on_c, 9, 69, 110
2, 2974, Note_on_c, 9, 69, 0
2, 2976, Note_on_c, 9, 69, 110
2, 3022, Note_on_c, 9, 69, 0
2, 3024, Note_on_c, 9, 69, 110
2, 3070, Note_on_c, 9, 69, 0
2, 3072, Note_on_c, 9, 69, 110
2, 3118, Note_on_c, 9, 69, 0
2, 3120, Note_on_c, 9, 69, 110
2, 3166, Note_on_c, 9, 69, 0
2, 3168, Note_on_c, 9, 69, 110
2, 3214, Note_on_c, 9, 69, 0
2, 3216, Note_on_c, 9, 69, 110
2, 3262, Note_on_c, 9, 69, 0
2, 3264, Note_on_c, 9, 69, 110
2, 3310, Note_on_c, 9, 69, 0
2, 3312, Note_on_c, 9, 69, 110
2, 3358, Note_on_c, 9, 69, 0
2, 3360, Note_on_c, 9, 69, 110
2, 3406, Note_on_c, 9, 69, 0
2, 3408, Note_on_c, 9, 69, 110
2, 3454, Note_on_c, 9, 69, 0
2, 3456, Note_on_c, 9, 69, 110
2, 3502, Note_on_c, 9, 69, 0
2, 3504, Note_on_c, 9, 69, 110
2, 3550, Note_on_c, 9, 69, 0
2, 3552, Note_on_c, 9, 69, 110
2, 3598, Note_on_c, 9, 69, 0
2, 3600, Note_on_c, 9, 69, 110
2, 3646, Note_on_c, 9, 69, 0
2, 3648, Note_on_c, 9, 69, 110
2, 3694, Note_on_c, 9, 69, 0
2, 3696, Note_on_c, 9, 69, 110
2, 3742, Note_on_c, 9, 69, 0
2, 3744, Note_on_c, 9, 69, 110
2, 3790, Note_on_c, 9, 69, 0
2, 3792, Note_on_c, 9, 69, 110
2, 3838, Note_on_c, 9, 69, 0
2, 3840, Note_on_c, 9, 69, 110
2, 3886, Note_on_c, 9, 69, 0
2, 3888, Note_on_c, 9, 69, 110
2, 3934, Note_on_c, 9, 69, 0
2, 3936, Note_on_c, 9, 69, 110
2, 3982, Note_on_c, 9, 69, 0
2, 3984, Note_on_c, 9, 69, 110
2, 4030, Note_on_c, 9, 69, 0
2, 4032, Note_on_c, 9, 69, 110
2, 4078, Note_on_c, 9, 69, 0
2, 4080, Note_on_c, 9, 69, 110
2, 4126, Note_on_c, 9, 69, 0
2, 4128, Note_on_c, 9, 69, 110
2, 4174, Note_on_c, 9, 69, 0
2, 4176, Note_on_c, 9, 69, 110
2, 4222, Note_on_c, 9, 69, 0
2, 4224, Note_on_c, 9, 69, 110
2, 4270, Note_on_c, 9, 69, 0
2, 4272, Note_on_c, 9, 69, 110
2, 4318, Note_on_c, 9, 69, 0
2, 4320, Note_on_c, 9, 69, 110
2, 4366, Note_on_c, 9, 69, 0
2, 4368, Note_on_c, 9, 69, 110
2, 4414, Note_on_c, 9, 69, 0
2, 4416, Note_on_c, 9, 69, 110
2, 4462, Note_on_c, 9, 69, 0
2, 4464, Note_on_c, 9, 69, 110
2, 4510, Note_on_c, 9, 69, 0
2, 4512, Note_on_c, 9, 69, 110
2, 4558, Note_on_c, 9, 69, 0
2, 4560, Note_on_c, 9, 69, 110
2, 4606, Note_on_c, 9, 69, 0
2, 4608, Note_on_c, 9, 69, 110
2, 4654, Note_on_c, 9, 69, 0
2, 4656, Note_on_c, 9, 69, 110
2, 4702, Note_on_c, 9, 69, 0
2, 4704, Note_on_c, 9, 69, 110
2, 4750, Note_on_c, 9, 69, 0
2, 4752, Note_on_c, 9, 69, 110
2, 4798, Note_on_c, 9, 69, 0
2, 4800, Note_on_c, 9, 69, 110
2, 4846, Note_on_c, 9, 69, 0
2, 4848, Note_on_c, 9, 69, 110
2, 4894, Note_on_c, 9, 69, 0
2, 4896, Note_on_c, 9, 69, 110
2, 4942, Note_on_c, 9, 69, 0
2, 4944, Note_on_c, 9, 69, 110
2, 4990, Note_on_c, 9, 69, 0
2, 4992, Note_on_c, 9, 69, 110
2, 5038, Note_on_c, 9, 69, 0
2, 5040, Note_on_c, 9, 69, 110
2, 5086, Note_on_c, 9, 69, 0
2, 5088, Note_on_c, 9, 69, 110
2, 5134, Note_on_c, 9, 69, 0
2, 5136, Note_on_c, 9, 69, 110
2, 5182, Note_on_c, 9, 69, 0
2, 5184, Note_on_c, 9, 69, 110
2, 5230, Note_on_c, 9, 69, 0
2, 5232, Note_on_c, 9, 69, 110
2, 5278, Note_on_c, 9, 69, 0
2, 5280, Note_on_c, 9, 69, 110
2, 5326, Note_on_c, 9, 69, 0
2, 5328, Note_on_c, 9, 69, 110
2, 5374, Note_on_c, 9, 69, 0
2, 5376, Note_on_c, 9, 69, 110
2, 5422, Note_on_c, 9, 69, 0
2, 5424, Note_on_c, 9, 69, 110
2, 5470, Note_on_c, 9, 69, 0
2, 5472, Note_on_c, 9, 69, 110
2, 5518, Note_on_c, 9, 69, 0
2, 5520, Note_on_c, 9, 69, 110
2, 5566, Note_on_c, 9, 69, 0
2, 5568, Note_on_c, 9, 69, 110
2, 5614, Note_on_c, 9, 69, 0
2, 5616, Note_on_c, 9, 69, 110
2, 5662, Note_on_c, 9, 69, 0
2, 5664, Note_on_c, 9, 69, 110
2, 5710, Note_on_c, 9, 69, 0
2, 5712, Note_on_c, 9, 69, 110
2, 5758, Note_on_c, 9, 69, 0
2, 5760, Note_on_c, 9, 69, 110
2, 5806, Note_on_c, 9, 69, 0
2, 5808, Note_on_c, 9, 69, 110
2, 5854, Note_on_c, 9, 69, 0
2, 5856, Note_on_c, 9, 69, 110
2, 5902, Note_on_c, 9, 69, 0
2, 5904, Note_on_c, 9, 69, 110
2, 5950, Note_on_c, 9, 69, 0
2, 5952, Note_on_c, 9, 69, 110
2, 5998, Note_on_c, 9, 69, 0
2, 6000, Note_on_c, 9, 69, 110
2, 6046, Note_on_c, 9, 69, 0
2, 6048, Note_on_c, 9, 69, 110
2, 6094, Note_on_c, 9, 69, 0
2, 6096, Note_on_c, 9, 69, 110
2, 6142, Note_on_c, 9, 69, 0
2, 6144, Note_on_c, 9, 69, 110
2, 6190, Note_on_c, 9, 69, 0
2, 6192, Note_on_c, 9, 69, 110
2, 6238, Note_on_c, 9, 69, 0
2, 6240, Note_on_c, 9, 69, 110
2, 6286, Note_on_c, 9, 69, 0
2, 6288, Note_on_c, 9, 69, 110
2, 6334, Note_on_c, 9, 69, 0
2, 6336, Note_on_c, 9, 69, 110
2, 6382, Note_on_c, 9, 69, 0
2, 6384, Note_on_c, 9, 69, 110
2, 6430, Note_on_c, 9, 69, 0
2, 6432, Note_on_c, 9, 69, 110
2, 6478, Note_on_c, 9, 69, 0
2, 6480, Note_on_c, 9, 69, 110
2, 6526, Note_on_c, 9, 69, 0
2, 6528, Note_on_c, 9, 69, 110
2, 6574, Note_on_c, 9, 69, 0
2, 6576, Note_on_c, 9, 69, 110
2, 6622, Note_on_c, 9, 69, 0
2, 6624, Note_on_c, 9, 69, 110
2, 6670, Note_on_c, 9, 69, 0
2, 6672, Note_on_c, 9, 69, 110
2, 6718, Note_on_c, 9, 69, 0
2, 6720, Note_on_c, 9, 69, 110
2, 6766, Note_on_c, 9, 69, 0
2, 6768, Note_on_c, 9, 69, 110
2, 6814, Note_on_c, 9, 69, 0
2, 6816, Note_on_c, 9, 69, 110
2, 6862, Note_on_c, 9, 69, 0
2, 6864, Note_on_c, 9, 69, 110
2, 6910, Note_on_c, 9, 69, 0
2, 6912, Note_on_c, 9, 69, 110
2, 6958, Note_on_c, 9, 69, 0
2, 6960, Note_on_c, 9, 69, 110
2, 7006, Note_on_c, 9, 69, 0
2, 7008, Note_on_c, 9, 69, 110
2, 7054, Note_on_c, 9, 69, 0
2, 7056, Note_on_c, 9, 69, 110
2, 7102, Note_on_c, 9, 69, 0
2, 7104, Note_on_c, 9, 69, 110
2, 7150, Note_on_c, 9, 69, 0
2, 7152, Note_on_c, 9, 69, 110
2, 7198, Note_on_c, 9, 69, 0
2, 7200, Note_on_c, 9, 69, 110
2, 7246, Note_on_c, 9, 69, 0
2, 7248, Note_on_c, 9, 69, 110
2, 7294, Note_on_c, 9, 69, 0
2, 7296, Note_on_c, 9, 69, 110
2, 7342, Note_on_c, 9, 69, 0
2, 7344, Note_on_c, 9, 69, 110
2, 7390, Note_on_c, 9, 69, 0
2, 7392, Note_on_c, 9, 69, 110
2, 7438, Note_on_c, 9, 69, 0
2, 7440, Note_on_c, 9, 69, 110
2, 7486, Note_on_c, 9, 69, 0
2, 7488, Note_on_c, 9, 69, 110
2, 7534, Note_on_c, 9, 69, 0
2, 7536, Note_on_c, 9, 69, 110
2, 7582, Note_on_c, 9, 69, 0
2, 7584, Note_on_c, 9, 69, 110
2, 7630, Note_on_c, 9, 69, 0
2, 7632, Note_on_c, 9, 69, 110
2, 7678, Note_on_c, 9, 69, 0
2, 7680, Note_on_c, 9, 69, 110
2, 7726, Note_on_c, 9, 69, 0
2, 7728, Note_on_c, 9, 69, 110
2, 7774, Note_on_c, 9, 69, 0
2, 7776, Note_on_c, 9, 69, 110
2, 7822, Note_on_c, 9, 69, 0
2, 7824, Note_on_c, 9, 69, 110
2, 7870, Note_on_c, 9, 69, 0
2, 7872, Note_on_c, 9, 69, 110
2, 7918, Note_on_c, 9, 69, 0
2, 7920, Note_on_c, 9, 69, 110
2, 7966, Note_on_c, 9, 69, 0
2, 7968, Note_on_c, 9, 69, 110
2, 8014, Note_on_c, 9, 69, 0
2, 8016, Note_on_c, 9, 69, 110
2, 8062, Note_on_c, 9, 69, 0
2, 8064, Note_on_c, 9, 69, 110
2, 8110, Note_on_c, 9, 69, 0
2, 8112, Note_on_c, 9, 69, 110
2, 8158, Note_on_c, 9, 69, 0
2, 8160, Note_on_c, 9, 69, 110
2, 8206, Note_on_c, 9, 69, 0
2, 8208, Note_on_c, 9, 69, 110
2, 8254, Note_on_c, 9, 69, 0
2, 8256, Note_on_c, 9, 69, 110
2, 8302, Note_on_c, 9, 69, 0
2, 8304, Note_on_c, 9, 69, 110
2, 8350, Note_on_c, 9, 69, 0
2, 8352, Note_on_c, 9, 69, 110
2, 8398, Note_on_c, 9, 69, 0
2, 8400, Note_on_c, 9, 69, 110
2, 8446, Note_on_c, 9, 69, 0
2, 8448, Note_on_c, 9, 69, 110
2, 8494, Note_on_c, 9, 69, 0
2, 8496, Note_on_c, 9, 69, 110
2, 8542, Note_on_c, 9, 69, 0
2, 8544, Note_on_c, 9, 69, 110
2, 8590, Note_on_c, 9, 69, 0
2, 8592, Note_on_c, 9, 69, 110
2, 8638, Note_on_c, 9, 69, 0
2, 8640, Note_on_c, 9, 69, 110
2, 8686, Note_on_c, 9, 69, 0
2, 8688, Note_on_c, 9, 69, 110
2, 8734, Note_on_c, 9, 69, 0
2, 8736, Note_on_c, 9, 69, 110
2, 8782, Note_on_c, 9, 69, 0
2, 8784, Note_on_c, 9, 69, 110
2, 8830, Note_on_c, 9, 69, 0
2, 8832, Note_on_c, 9, 69, 110
2, 8878, Note_on_c, 9, 69, 0
2, 8880, Note_on_c, 9, 69, 110
2, 8926, Note_on_c, 9, 69, 0
2, 8928, Note_on_c, 9, 69, 110
2, 8974, Note_on_c, 9, 69, 0
2, 8976, Note_on_c, 9, 69, 110
2, 9022, Note_on_c, 9, 69, 0
2, 9024, Note_on_c, 9, 69, 110
2, 9070, Note_on_c, 9, 69, 0
2, 9072, Note_on_c, 9, 69, 110
2, 9118, Note_on_c, 9, 69, 0
2, 9120, Note_on_c, 9, 69, 110
2, 9166, Note_on_c, 9, 69, 0
2, 9168, Note_on_c, 9, 69, 110
2, 9214, Note_on_c, 9, 69, 0
2, 9216, Note_on_c, 9, 69, 110
2, 9262, Note_on_c, 9, 69, 0
2, 9264, Note_on_c, 9, 69, 110
2, 9310, Note_on_c, 9, 69, 0
2, 9312, Note_on_c, 9, 69, 110
2, 9358, Note_on_c, 9, 69, 0
2, 9360, Note_on_c, 9, 69, 110
2, 9406, Note_on_c, 9, 69, 0
2, 9408, Note_on_c, 9, 69, 110
2, 9454, Note_on_c, 9, 69, 0
2, 9456, Note_on_c, 9, 69, 110
2, 9502, Note_on_c, 9, 69, 0
2, 9504, Note_on_c, 9, 69, 110
2, 9550, Note_on_c, 9, 69, 0
2, 9552, Note_on_c, 9, 69, 110
2, 9598, Note_on_c, 9, 69, 0
2, 9600, Note_on_c, 9, 69, 110
2, 9646, Note_on_c, 9, 69, 0
2, 9648, Note_on_c, 9, 69, 110
2, 9694, Note_on_c, 9, 69, 0
2, 9696, Note_on_c, 9, 69, 110
2, 9742, Note_on_c, 9, 69, 0
2, 9744, Note_on_c, 9, 69, 110
2, 9790, Note_on_c, 9, 69, 0
2, 9792, Note_on_c, 9, 69, 110
2, 9838, Note_on_c, 9, 69, 0
2, 9840, Note_on_c, 9, 69, 110
2, 9886, Note_on_c, 9, 69, 0
2, 9888, Note_on_c, 9, 69, 110
2, 9934, Note_on_c, 9, 69, 0
2, 9936, Note_on_c, 9, 69, 110
2, 9982, Note_on_c, 9, 69, 0
2, 9984, Note_on_c, 9, 69, 110
2, 10030, Note_on_c, 9, 69, 0
2, 10032, Note_on_c, 9, 69, 110
2, 10078, Note_on_c, 9, 69, 0
2, 10080, Note_on_c, 9, 69, 110
2, 10126, Note_on_c, 9, 69, 0
2, 10128, Note_on_c, 9, 69, 110
2, 10174, Note_on_c, 9, 69, 0
2, 10176, Note_on_c, 9, 69, 110
2, 10222, Note_on_c, 9, 69, 0
2, 10224, Note_on_c, 9, 69, 110
2, 10270, Note_on_c, 9, 69, 0
2, 10272, Note_on_c, 9, 69, 110
2, 10318, Note_on_c, 9, 69, 0
2, 10320, Note_on_c, 9, 69, 110
2, 10366, Note_on_c, 9, 69, 0
2, 10368, Note_on_c, 9, 69, 110
2, 10414, Note_on_c, 9, 69, 0
2, 10416, Note_on_c, 9, 69, 110
2, 10462, Note_on_c, 9, 69, 0
2, 10464, Note_on_c, 9, 69, 110
2, 10510, Note_on_c, 9, 69, 0
2, 10512, Note_on_c, 9, 69, 110
2, 10558, Note_on_c, 9, 69, 0
2, 10560, Note_on_c, 9, 69, 110
2, 10606, Note_on_c, 9, 69, 0
2, 10608, Note_on_c, 9, 69, 110
2, 10654, Note_on_c, 9, 69, 0
2, 10656, Note_on_c, 9, 69, 110
2, 10702, Note_on_c, 9, 69, 0
2, 10704, Note_on_c, 9, 69, 110
2, 10750, Note_on_c, 9, 69, 0
2, 10752, Note_on_c, 9, 69, 110
2, 10798, Note_on_c, 9, 69, 0
2, 10800, Note_on_c, 9, 69, 110
2, 10846, Note_on_c, 9, 69, 0
2, 10848, Note_on_c, 9, 69, 110
2, 10894, Note_on_c, 9, 69, 0
2, 10896, Note_on_c, 9, 69, 110
2, 10942, Note_on_c, 9, 69, 0
2, 10944, Note_on_c, 9, 69, 110
2, 10990, Note_on_c, 9, 69, 0
2, 10992, Note_on_c, 9, 69, 110
2, 11038, Note_on_c, 9, 69, 0
2, 11040, Note_on_c, 9, 69, 110
2, 11086, Note_on_c, 9, 69, 0
2, 11088, Note_on_c, 9, 69, 110
2, 11134, Note_on_c, 9, 69, 0
2, 11136, Note_on_c, 9, 69, 110
2, 11182, Note_on_c, 9, 69, 0
2, 11184, Note_on_c, 9, 69, 110
2, 11230, Note_on_c, 9, 69, 0
2, 11232, Note_on_c, 9, 69, 110
2, 11278, Note_on_c, 9, 69, 0
2, 11280, Note_on_c, 9, 69, 110
2, 11326, Note_on_c, 9, 69, 0
2, 11328, Note_on_c, 9, 69, 110
2, 11374, Note_on_c, 9, 69, 0
2, 11376, Note_on_c, 9, 69, 110
2, 11422, Note_on_c, 9, 69, 0
2, 11424, Note_on_c, 9, 69, 110
2, 11470, Note_on_c, 9, 69, 0
2, 11472, Note_on_c, 9, 69, 110
2, 11518, Note_on_c, 9, 69, 0
2, 11520, Note_on_c, 9, 69, 110
2, 11566, Note_on_c, 9, 69, 0
2, 11568, Note_on_c, 9, 69, 110
2, 11614, Note_on_c, 9, 69, 0
2, 11616, Note_on_c, 9, 69, 110
2, 11662, Note_on_c, 9, 69, 0
2, 11664, Note_on_c, 9, 69, 110
2, 11710, Note_on_c, 9, 69, 0
2, 11712, Note_on_c, 9, 69, 110
2, 11758, Note_on_c, 9, 69, 0
2, 11760, Note_on_c, 9, 69, 110
2, 11806, Note_on_c, 9, 69, 0
2, 11808, Note_on_c, 9, 69, 110
2, 11854, Note_on_c, 9, 69, 0
2, 11856, Note_on_c, 9, 69, 110
2, 11902, Note_on_c, 9, 69, 0
2, 11904, Note_on_c, 9, 69, 110
2, 11950, Note_on_c, 9, 69, 0
2, 11952, Note_on_c, 9, 69, 110
2, 11998, Note_on_c, 9, 69, 0
2, 12000, Note_on_c, 9, 69, 110
2, 12046, Note_on_c, 9, 69, 0
2, 12048, Note_on_c, 9, 69, 110
2, 12094, Note_on_c, 9, 69, 0
2, 12096, Note_on_c, 9, 69, 110
2, 12142, Note_on_c, 9, 69, 0
2, 12144, Note_on_c, 9, 69, 110
2, 12190, Note_on_c, 9, 69, 0
2, 12192, Note_on_c, 9, 69, 110
2, 12238, Note_on_c, 9, 69, 0
2, 12240, Note_on_c, 9, 69, 110
2, 12286, Note_on_c, 9, 69, 0
2, 12288, Note_on_c, 9, 69, 110
2, 12334, Note_on_c, 9, 69, 0
2, 12336, Note_on_c, 9, 69, 110
2, 12382, Note_on_c, 9, 69, 0
2, 12384, Note_on_c, 9, 69, 110
2, 12430, Note_on_c, 9, 69, 0
2, 12432, Note_on_c, 9, 69, 110
2, 12478, Note_on_c, 9, 69, 0
2, 12480, Note_on_c, 9, 69, 110
2, 12526, Note_on_c, 9, 69, 0
2, 12528, Note_on_c, 9, 69, 110
2, 12574, Note_on_c, 9, 69, 0
2, 12576, Note_on_c, 9, 69, 110
2, 12622, Note_on_c, 9, 69, 0
2, 12624, Note_on_c, 9, 69, 110
2, 12670, Note_on_c, 9, 69, 0
2, 12672, Note_on_c, 9, 69, 110
2, 12718, Note_on_c, 9, 69, 0
2, 12720, Note_on_c, 9, 69, 110
2, 12766, Note_on_c, 9, 69, 0
2, 12768, Note_on_c, 9, 69, 110
2, 12814, Note_on_c, 9, 69, 0
2, 12816, Note_on_c, 9, 69, 110
2, 12862, Note_on_c, 9, 69, 0
2, 12864, Note_on_c, 9, 69, 110
2, 12910, Note_on_c, 9, 69, 0
2, 12912, Note_on_c, 9, 69, 110
2, 12958, Note_on_c, 9, 69, 0
2, 12960, Note_on_c, 9, 69, 110
2, 13006, Note_on_c, 9, 69, 0
2, 13008, Note_on_c, 9, 69, 110
2, 13054, Note_on_c, 9, 69, 0
2, 13056, Note_on_c, 9, 69, 110
2, 13102, Note_on_c, 9, 69, 0
2, 13104, Note_on_c, 9, 69, 110
2, 13150, Note_on_c, 9, 69, 0
2, 13152, Note_on_c, 9, 69, 110
2, 13198, Note_on_c, 9, 69, 0
2, 13200, Note_on_c, 9, 69, 110
2, 13246, Note_on_c, 9, 69, 0
2, 13248, Note_on_c, 9, 69, 110
2, 13294, Note_on_c, 9, 69, 0
2, 13296, Note_on_c, 9, 69, 110
2, 13342, Note_on_c, 9, 69, 0
2, 13344, Note_on_c, 9, 69, 110
2, 13390, Note_on_c, 9, 69, 0
2, 13392, Note_on_c, 9, 69, 110
2, 13438, Note_on_c, 9, 69, 0
2, 13440, Note_on_c, 9, 69, 110
2, 13486, Note_on_c, 9, 69, 0
2, 13488, Note_on_c, 9, 69, 110
2, 13534, Note_on_c, 9, 69, 0
2, 13536, Note_on_c, 9, 69, 110
2, 13582, Note_on_c, 9, 69, 0
2, 13584, Note_on_c, 9, 69, 110
2, 13630, Note_on_c, 9, 69, 0
2, 13632, Note_on_c, 9, 69, 110
2, 13678, Note_on_c, 9, 69, 0
2, 13680, Note_on_c, 9, 69, 110
2, 13726, Note_on_c, 9, 69, 0
2, 13728, Note_on_c, 9, 69, 110
2, 13774, Note_on_c, 9, 69, 0
2, 13776, Note_on_c, 9, 69, 110
2, 13822, Note_on_c, 9, 69, 0
2, 13824, Note_on_c, 9, 69, 110
2, 13870, Note_on_c, 9, 69, 0
2, 13872, Note_on_c, 9, 69, 110
2, 13918, Note_on_c, 9, 69, 0
2, 13920, Note_on_c, 9, 69, 110
2, 13966, Note_on_c, 9, 69, 0
2, 13968, Note_on_c, 9, 69, 110
2, 14014, Note_on_c, 9, 69, 0
2, 14016, Note_on_c, 9, 69, 110
2, 14062, Note_on_c, 9, 69, 0
2, 14064, Note_on_c, 9, 69, 110
2, 14110, Note_on_c, 9, 69, 0
2, 14112, Note_on_c, 9, 69, 110
2, 14158, Note_on_c, 9, 69, 0
2, 14160, Note_on_c, 9, 69, 110
2, 14206, Note_on_c, 9, 69, 0
2, 14208, Note_on_c, 9, 69, 110
2, 14254, Note_on_c, 9, 69, 0
2, 14256, Note_on_c, 9, 69, 110
2, 14302, Note_on_c, 9, 69, 0
2, 14304, Note_on_c, 9, 69, 110
2, 14350, Note_on_c, 9, 69, 0
2, 14352, Note_on_c, 9, 69, 110
2, 14398, Note_on_c, 9, 69, 0
2, 14400, Note_on_c, 9, 69, 110
2, 14446, Note_on_c, 9, 69, 0
2, 14448, Note_on_c, 9, 69, 110
2, 14494, Note_on_c, 9, 69, 0
2, 14496, Note_on_c, 9, 69, 110
2, 14542, Note_on_c, 9, 69, 0
2, 14544, Note_on_c, 9, 69, 110
2, 14590, Note_on_c, 9, 69, 0
2, 14592, Note_on_c, 9, 69, 110
2, 14638, Note_on_c, 9, 69, 0
2, 14640, Note_on_c, 9, 69, 110
2, 14686, Note_on_c, 9, 69, 0
2, 14688, Note_on_c, 9, 69, 110
2, 14734, Note_on_c, 9, 69, 0
2, 14736, Note_on_c, 9, 69, 110
2, 14782, Note_on_c, 9, 69, 0
2, 14784, Note_on_c, 9, 69, 110
2, 14830, Note_on_c, 9, 69, 0
2, 14832, Note_on_c, 9, 69, 110
2, 14878, Note_on_c, 9, 69, 0
2, 14880, Note_on_c, 9, 69, 110
2, 14926, Note_on_c, 9, 69, 0
2, 14928, Note_on_c, 9, 69, 110
2, 14974, Note_on_c, 9, 69, 0
2, 14976, Note_on_c, 9, 69, 110
2, 15022, Note_on_c, 9, 69, 0
2, 15024, Note_on_c, 9, 69, 110
2, 15070, Note_on_c, 9, 69, 0
2, 15072, Note_on_c, 9, 69, 110
2, 15118, Note_on_c, 9, 69, 0
2, 15120, Note_on_c, 9, 69, 110
2, 15166, Note_on_c, 9, 69, 0
2, 15168, Note_on_c, 9, 69, 110
2, 15214, Note_on_c, 9, 69, 0
2, 15216, Note_on_c, 9, 69, 110
2, 15262, Note_on_c, 9, 69, 0
2, 15264, Note_on_c, 9, 69, 110
2, 15310, Note_on_c, 9, 69, 0
2, 15312, Note_on_c, 9, 69, 110
2, 15358, Note_on_c, 9, 69, 0
2, 15360, Note_on_c, 9, 69, 110
2, 15406, Note_on_c, 9, 69, 0
2, 15408, Note_on_c, 9, 69, 110
2, 15454, Note_on_c, 9, 69, 0
2, 15456, Note_on_c, 9, 69, 110
2, 15502, Note_on_c, 9, 69, 0
2, 15504, Note_on_c, 9, 69, 110
2, 15550, Note_on_c, 9, 69, 0
2, 15552, Note_on_c, 9, 69, 110
2, 15598, Note_on_c, 9, 69, 0
2, 15600, Note_on_c, 9, 69, 110
2, 15646, Note_on_c, 9, 69, 0
2, 15648, Note_on_c, 9, 69, 110
2, 15694, Note_on_c, 9, 69, 0
2, 15696, Note_on_c, 9, 69, 110
2, 15742, Note_on_c, 9, 69, 0
2, 15744, Note_on_c, 9, 69, 110
2, 15790, Note_on_c, 9, 69, 0
2, 15792, Note_on_c, 9, 69, 110
2, 15838, Note_on_c, 9, 69, 0
2, 15840, Note_on_c, 9, 69, 110
2, 15886, Note_on_c, 9, 69, 0
2, 15888, Note_on_c, 9, 69, 110
2, 15934, Note_on_c, 9, 69, 0
2, 15936, Note_on_c, 9, 69, 110
2, 15982, Note_on_c, 9, 69, 0
2, 15984, Note_on_c, 9, 69, 110
2, 16030, Note_on_c, 9, 69, 0
2, 16032, Note_on_c, 9, 69, 110
2, 16078, Note_on_c, 9, 69, 0
2, 16080, Note_on_c, 9, 69, 110
2, 16126, Note_on_c, 9, 69, 0
2, 16128, Note_on_c, 9, 69, 110
2, 16174, Note_on_c, 9, 69, 0
2, 16176, Note_on_c, 9, 69, 110
2, 16222, Note_on_c, 9, 69, 0
2, 16224, Note_on_c, 9, 69, 110
2, 16270, Note_on_c, 9, 69, 0
2, 16272, Note_on_c, 9, 69, 110
2, 16318, Note_on_c, 9, 69, 0
2, 16320, Note_on_c, 9, 69, 110
2, 16366, Note_on_c, 9, 69, 0
2, 16368, Note_on_c, 9, 69, 110
2, 16414, Note_on_c, 9, 69, 0
2, 16416, Note_on_c, 9, 69, 110
2, 16462, Note_on_c, 9, 69, 0
2, 16464, Note_on_c, 9, 69, 110
2, 16510, Note_on_c, 9, 69, 0
2, 16512, Note_on_c, 9, 69, 110
2, 16558, Note_on_c, 9, 69, 0
2, 16560, Note_on_c, 9, 69, 110
2, 16606, Note_on_c, 9, 69, 0
2, 16608, Note_on_c, 9, 69, 110
2, 16654, Note_on_c, 9, 69, 0
2, 16656, Note_on_c, 9, 69, 110
2, 16702, Note_on_c, 9, 69, 0
2, 16704, Note_on_c, 9, 69, 110
2, 16750, Note_on_c, 9, 69, 0
2, 16752, Note_on_c, 9, 69, 110
2, 16798, Note_on_c, 9, 69, 0
2, 16800, Note_on_c, 9, 69, 110
2, 16846, Note_on_c, 9, 69, 0
2, 16848, Note_on_c, 9, 69, 110
2, 16894, Note_on_c, 9, 69, 0
2, 16896, Note_on_c, 9, 69, 110
2, 16942, Note_on_c, 9, 69, 0
2, 16944, Note_on_c, 9, 69, 110
2, 16990, Note_on_c, 9, 69, 0
2, 16992, Note_on_c, 9, 69, 110
2, 17038, Note_on_c, 9, 69, 0
2, 17040, Note_on_c, 9, 69, 110
2, 17086, Note_on_c, 9, 69, 0
2, 17088, Note_on_c, 9, 69, 110
2, 17134, Note_on_c, 9, 69, 0
2, 17136, Note_on_c, 9, 69, 110
2, 17182, Note_on_c, 9, 69, 0
2, 17184, Note_on_c, 9, 69, 110
2, 17230, Note_on_c, 9, 69, 0
2, 17232, Note_on_c, 9, 69, 110
2, 17278, Note_on_c, 9, 69, 0
2, 17280, Note_on_c, 9, 69, 110
2, 17326, Note_on_c, 9, 69, 0
2, 17328, Note_on_c, 9, 69, 110
2, 17374, Note_on_c, 9, 69, 0
2, 17376, Note_on_c, 9, 69, 110
2, 17422, Note_on_c, 9, 69, 0
2, 17424, Note_on_c, 9, 69, 110
2, 17470, Note_on_c, 9, 69, 0
2, 17472, Note_on_c, 9, 69, 110
2, 17518, Note_on_c, 9, 69, 0
2, 17520, Note_on_c, 9, 69, 110
2, 17566, Note_on_c, 9, 69, 0
2, 17568, Note_on_c, 9, 69, 110
2, 17614, Note_on_c, 9, 69, 0
2, 17616, Note_on_c, 9, 69, 110
2, 17662, Note_on_c, 9, 69, 0
2, 17664, Note_on_c, 9, 69, 110
2, 17710, Note_on_c, 9, 69, 0
2, 17712, Note_on_c, 9, 69, 110
2, 17758, Note_on_c, 9, 69, 0
2, 17760, Note_on_c, 9, 69, 110
2, 17806, Note_on_c, 9, 69, 0
2, 17808, Note_on_c, 9, 69, 110
2, 17854, Note_on_c, 9, 69, 0
2, 17856, Note_on_c, 9, 69, 110
2, 17902, Note_on_c, 9, 69, 0
2, 17904, Note_on_c, 9, 69, 110
2, 17950, Note_on_c, 9, 69, 0
2, 17952, Note_on_c, 9, 69, 110
2, 17998, Note_on_c, 9, 69, 0
2, 18000, Note_on_c, 9, 69, 110
2, 18046, Note_on_c, 9, 69, 0
2, 18048, Note_on_c, 9, 69, 110
2, 18094, Note_on_c, 9, 69, 0
2, 18096, Note_on_c, 9, 69, 110
2, 18142, Note_on_c, 9, 69, 0
2, 18144, Note_on_c, 9, 69, 110
2, 18190, Note_on_c, 9, 69, 0
2, 18192, Note_on_c, 9, 69, 110
2, 18238, Note_on_c, 9, 69, 0
2, 18240, Note_on_c, 9, 69, 110
2, 18286, Note_on_c, 9, 69, 0
2, 18288, Note_on_c, 9, 69, 110
2, 18334, Note_on_c, 9, 69, 0
2, 18336, Note_on_c, 9, 69, 110
2, 18382, Note_on_c, 9, 69, 0
2, 18384, Note_on_c, 9, 69, 110
2, 18430, Note_on_c, 9, 69, 0
2, 18432, Note_on_c, 9, 69, 110
2, 18478, Note_on_c, 9, 69, 0
2, 18480, Note_on_c, 9, 69, 110
2, 18526, Note_on_c, 9, 69, 0
2, 18528, Note_on_c, 9, 69, 110
2, 18574, Note_on_c, 9, 69, 0
2, 18576, Note_on_c, 9, 69, 110
2, 18622, Note_on_c, 9, 69, 0
2, 18624, Note_on_c, 9, 69, 110
2, 18670, Note_on_c, 9, 69, 0
2, 18672, Note_on_c, 9, 69, 110
2, 18718, Note_on_c, 9, 69, 0
2, 18720, Note_on_c, 9, 69, 110
2, 18766, Note_on_c, 9, 69, 0
2, 18768, Note_on_c, 9, 69, 110
2, 18814, Note_on_c, 9, 69, 0
2, 18816, Note_on_c, 9, 69, 110
2, 18862, Note_on_c, 9, 69, 0
2, 18864, Note_on_c, 9, 69, 110
2, 18910, Note_on_c, 9, 69, 0
2, 18912, Note_on_c, 9, 69, 110
2, 18958, Note_on_c, 9, 69, 0
2, 18960, Note_on_c, 9, 69, 110
2, 19006, Note_on_c, 9, 69, 0
2, 19008, Note_on_c, 9, 69, 110
2, 19054, Note_on_c, 9, 69, 0
2, 19056, Note_on_c, 9, 69, 110
2, 19102, Note_on_c, 9, 69, 0
2, 19104, Note_on_c, 9, 69, 110
2, 19150, Note_on_c, 9, 69, 0
2, 19152, Note_on_c, 9, 69, 110
2, 19198, Note_on_c, 9, 69, 0
2, 19200, Note_on_c, 9, 69, 110
2, 19246, Note_on_c, 9, 69, 0
2, 19248, Note_on_c, 9, 69, 110
2, 19294, Note_on_c, 9, 69, 0
2, 19296, Note_on_c, 9, 69, 110
2, 19342, Note_on_c, 9, 69, 0
2, 19344, Note_on_c, 9, 69, 110
2, 19390, Note_on_c, 9, 69, 0
2, 19392, Note_on_c, 9, 69, 110
2, 19438, Note_on_c, 9, 69, 0
2, 19440, Note_on_c, 9, 69, 110
2, 19486, Note_on_c, 9, 69, 0
2, 19488, Note_on_c, 9, 69, 110
2, 19534, Note_on_c, 9, 69, 0
2, 19536, Note_on_c, 9, 69, 110
2, 19582, Note_on_c, 9, 69, 0
2, 19584, Note_on_c, 9, 69, 110
2, 19630, Note_on_c, 9, 69, 0
2, 19632, Note_on_c, 9, 69, 110
2, 19678, Note_on_c, 9, 69, 0
2, 19680, Note_on_c, 9, 69, 110
2, 19726, Note_on_c, 9, 69, 0
2, 19728, Note_on_c, 9, 69, 110
2, 19774, Note_on_c, 9, 69, 0
2, 19776, Note_on_c, 9, 69, 110
2, 19822, Note_on_c, 9, 69, 0
2, 19824, Note_on_c, 9, 69, 110
2, 19870, Note_on_c, 9, 69, 0
2, 19872, Note_on_c, 9, 69, 110
2, 19918, Note_on_c, 9, 69, 0
2, 19920, Note_on_c, 9, 69, 110
2, 19966, Note_on_c, 9, 69, 0
2, 19968, Note_on_c, 9, 69, 110
2, 20014, Note_on_c, 9, 69, 0
2, 20016, Note_on_c, 9, 69, 110
2, 20062, Note_on_c, 9, 69, 0
2, 20064, Note_on_c, 9, 69, 110
2, 20110, Note_on_c, 9, 69, 0
2, 20112, Note_on_c, 9, 69, 110
2, 20158, Note_on_c, 9, 69, 0
2, 20160, Note_on_c, 9, 69, 110
2, 20206, Note_on_c, 9, 69, 0
2, 20208, Note_on_c, 9, 69, 110
2, 20254, Note_on_c, 9, 69, 0
2, 20256, Note_on_c, 9, 69, 110
2, 20302, Note_on_c, 9, 69, 0
2, 20304, Note_on_c, 9, 69, 110
2, 20350, Note_on_c, 9, 69, 0
2, 20352, Note_on_c, 9, 69, 110
2, 20398, Note_on_c, 9, 69, 0
2, 20400, Note_on_c, 9, 69, 110
2, 20446, Note_on_c, 9, 69, 0
2, 20448, Note_on_c, 9, 69, 110
2, 20494, Note_on_c, 9, 69, 0
2, 20496, Note_on_c, 9, 69, 110
2, 20542, Note_on_c, 9, 69, 0
2, 20544, Note_on_c, 9, 69, 110
2, 20590, Note_on_c, 9, 69, 0
2, 20592, Note_on_c, 9, 69, 110
2, 20638, Note_on_c, 9, 69, 0
2, 20640, Note_on_c, 9, 69, 110
2, 20686, Note_on_c, 9, 69, 0
2, 20688, Note_on_c, 9, 69, 110
2, 20734, Note_on_c, 9, 69, 0
2, 20736, Note_on_c, 9, 69, 110
2, 20782, Note_on_c, 9, 69, 0
2, 20784, Note_on_c, 9, 69, 110
2, 20830, Note_on_c, 9, 69, 0
2, 20832, Note_on_c, 9, 69, 110
2, 20878, Note_on_c, 9, 69, 0
2, 20880, Note_on_c, 9, 69, 110
2, 20926, Note_on_c, 9, 69, 0
2, 20928, Note_on_c, 9, 69, 110
2, 20974, Note_on_c, 9, 69, 0
2, 20976, Note_on_c, 9, 69, 110
2, 21022, Note_on_c, 9, 69, 0
2, 21024, Note_on_c, 9, 69, 110
2, 21070, Note_on_c, 9, 69, 0
2, 21072, Note_on_c, 9, 69, 110
2, 21118, Note_on_c, 9, 69, 0
2, 21120, Note_on_c, 9, 69, 110
2, 21166, Note_on_c, 9, 69, 0
2, 21168, Note_on_c, 9, 69, 110
2, 21214, Note_on_c, 9, 69, 0
2, 21216, Note_on_c, 9, 69, 110
2, 21262, Note_on_c, 9, 69, 0
2, 21264, Note_on_c, 9, 69, 110
2, 21310, Note_on_c, 9, 69, 0
2, 21312, Note_on_c, 9, 69, 110
2, 21358, Note_on_c, 9, 69, 0
2, 21360, Note_on_c, 9, 69, 110
2, 21406, Note_on_c, 9, 69, 0
2, 21408, Note_on_c, 9, 69, 110
2, 21454, Note_on_c, 9, 69, 0
2, 21456, Note_on_c, 9, 69, 110
2, 21502, Note_on_c, 9, 69, 0
2, 21504, Note_on_c, 9, 69, 110
2, 21550, Note_on_c, 9, 69, 0
2, 21552, Note_on_c, 9, 69, 110
2, 21598, Note_on_c, 9, 69, 0
2, 21600, Note_on_c, 9, 69, 110
2, 21646, Note_on_c, 9, 69, 0
2, 21648, Note_on_c, 9, 69, 110
2, 21694, Note_on_c, 9, 69, 0
2, 21696, Note_on_c, 9, 69, 110
2, 21742, Note_on_c, 9, 69, 0
2, 21744, Note_on_c, 9, 69, 110
2, 21790, Note_on_c, 9, 69, 0
2, 21792, Note_on_c, 9, 69, 110
2, 21838, Note_on_c, 9, 69, 0
2, 21840, Note_on_c, 9, 69, 110
2, 21886, Note_on_c, 9, 69, 0
2, 21888, Note_on_c, 9, 69, 110
2, 21934, Note_on_c, 9, 69, 0
2, 21936, Note_on_c, 9, 69, 110
2, 21982, Note_on_c, 9, 69, 0
2, 21984, Note_on_c, 9, 69, 110
2, 22030, Note_on_c, 9, 69, 0
2, 22032, Note_on_c, 9, 69, 110
2, 22078, Note_on_c, 9, 69, 0
2, 22080, Note_on_c, 9, 69, 110
2, 22126, Note_on_c, 9, 69, 0
2, 22128, Note_on_c, 9, 69, 110
2, 22174, Note_on_c, 9, 69, 0
2, 22176, Note_on_c, 9, 69, 110
2, 22222, Note_on_c, 9, 69, 0
2, 22224, Note_on_c, 9, 69, 110
2, 22270, Note_on_c, 9, 69, 0
2, 22272, Note_on_c, 9, 69, 110
2, 22318, Note_on_c, 9, 69, 0
2, 22320, Note_on_c, 9, 69, 110
2, 22366, Note_on_c, 9, 69, 0
2, 22368, Note_on_c, 9, 69, 110
2, 22414, Note_on_c, 9, 69, 0
2, 22416, Note_on_c, 9, 69, 110
2, 22462, Note_on_c, 9, 69, 0
2, 22464, Note_on_c, 9, 69, 110
2, 22510, Note_on_c, 9, 69, 0
2, 22512, Note_on_c, 9, 69, 110
2, 22558, Note_on_c, 9, 69, 0
2, 22560, Note_on_c, 9, 69, 110
2, 22606, Note_on_c, 9, 69, 0
2, 22608, Note_on_c, 9, 69, 110
2, 22654, Note_on_c, 9, 69, 0
2, 22656, Note_on_c, 9, 69, 110
2, 22702, Note_on_c, 9, 69, 0
2, 22704, Note_on_c, 9, 69, 110
2, 22750, Note_on_c, 9, 69, 0
2, 22752, Note_on_c, 9, 69, 110
2, 22798, Note_on_c, 9, 69, 0
2, 22800, Note_on_c, 9, 69, 110
2, 22846, Note_on_c, 9, 69, 0
2, 22848, Note_on_c, 9, 69, 110
2, 22894, Note_on_c, 9, 69, 0
2, 22896, Note_on_c, 9, 69, 110
2, 22942, Note_on_c, 9, 69, 0
2, 22944, Note_on_c, 9, 69, 110
2, 22990, Note_on_c, 9, 69, 0
2, 22992, Note_on_c, 9, 69, 110
2, 23038, Note_on_c, 9, 69, 0
2, 23040, Note_on_c, 9, 69, 110
2, 23086, Note_on_c, 9, 69, 0
2, 23088, Note_on_c, 9, 69, 110
2, 23134, Note_on_c, 9, 69, 0
2, 23136, Note_on_c, 9, 69, 110
2, 23182, Note_on_c, 9, 69, 0
2, 23184, Note_on_c, 9, 69, 110
2, 23230, Note_on_c, 9, 69, 0
2, 23232, Note_on_c, 9, 69, 110
2, 23278, Note_on_c, 9, 69, 0
2, 23280, Note_on_c, 9, 69, 110
2, 23326, Note_on_c, 9, 69, 0
2, 23328, Note_on_c, 9, 69, 110
2, 23374, Note_on_c, 9, 69, 0
2, 23376, Note_on_c, 9, 69, 110
2, 23422, Note_on_c, 9, 69, 0
2, 23424, Note_on_c, 9, 69, 110
2, 23470, Note_on_c, 9, 69, 0
2, 23472, Note_on_c, 9, 69, 110
2, 23518, Note_on_c, 9, 69, 0
2, 23520, Note_on_c, 9, 69, 110
2, 23566, Note_on_c, 9, 69, 0
2, 23568, Note_on_c, 9, 69, 110
2, 23614, Note_on_c, 9, 69, 0
2, 23616, Note_on_c, 9, 69, 110
2, 23662, Note_on_c, 9, 69, 0
2, 23664, Note_on_c, 9, 69, 110
2, 23710, Note_on_c, 9, 69, 0
2, 23712, Note_on_c, 9, 69, 110
2, 23758, Note_on_c, 9, 69, 0
2, 23760, Note_on_c, 9, 69, 110
2, 23806, Note_on_c, 9, 69, 0
2, 23808, Note_on_c, 9, 69, 110
2, 23854, Note_on_c, 9, 69, 0
2, 23856, Note_on_c, 9, 69, 110
2, 23902, Note_on_c, 9, 69, 0
2, 23904, Note_on_c, 9, 69, 110
2, 23950, Note_on_c, 9, 69, 0
2, 23952, Note_on_c, 9, 69, 110
2, 23998, Note_on_c, 9, 69, 0
2, 24000, Note_on_c, 9, 69, 110
2, 24046, Note_on_c, 9, 69, 0
2, 24048, Note_on_c, 9, 69, 110
2, 24094, Note_on_c, 9, 69, 0
2, 24096, Note_on_c, 9, 69, 110
2, 24142, Note_on_c, 9, 69, 0
2, 24144, Note_on_c, 9, 69, 110
2, 24190, Note_on_c, 9, 69, 0
2, 24192, Note_on_c, 9, 69, 110
2, 24238, Note_on_c, 9, 69, 0
2, 24240, Note_on_c, 9, 69, 110
2, 24286, Note_on_c, 9, 69, 0
2, 24288, Note_on_c, 9, 69, 110
2, 24334, Note_on_c, 9, 69, 0
2, 24336, Note_on_c, 9, 69, 110
2, 24382, Note_on_c, 9, 69, 0
2, 24384, Note_on_c, 9, 69, 110
2, 24430, Note_on_c, 9, 69, 0
2, 24432, Note_on_c, 9, 69, 110
2, 24478, Note_on_c, 9, 69, 0
2, 24480, Note_on_c, 9, 69, 110
2, 24526, Note_on_c, 9, 69, 0
2, 24528, Note_on_c, 9, 69, 110
2, 24574, Note_on_c, 9, 69, 0
2, 24576, Note_on_c, 9, 69, 110
2, 24622, Note_on_c, 9, 69, 0
2, 24624, Note_on_c, 9, 69, 110
2, 24670, Note_on_c, 9, 69, 0
2, 24672, Note_on_c, 9, 69, 110
2, 24718, Note_on_c, 9, 69, 0
2, 24720, Note_on_c, 9, 69, 110
2, 24766, Note_on_c, 9, 69, 0
2, 24768, Note_on_c, 9, 69, 110
2, 24814, Note_on_c, 9, 69, 0
2, 24816, Note_on_c, 9, 69, 110
2, 24862, Note_on_c, 9, 69, 0
2, 24864, Note_on_c, 9, 69, 110
2, 24910, Note_on_c, 9, 69, 0
2, 24912, Note_on_c, 9, 69, 110
2, 24958, Note_on_c, 9, 69, 0
2, 24960, Note_on_c, 9, 69, 110
2, 25006, Note_on_c, 9, 69, 0
2, 25008, Note_on_c, 9, 69, 110
2, 25054, Note_on_c, 9, 69, 0
2, 25056, Note_on_c, 9, 69, 110
2, 25102, Note_on_c, 9, 69, 0
2, 25104, Note_on_c, 9, 69, 110
2, 25150, Note_on_c, 9, 69, 0
2, 25152, Note_on_c, 9, 69, 110
2, 25198, Note_on_c, 9, 69, 0
2, 25200, Note_on_c, 9, 69, 110
2, 25246, Note_on_c, 9, 69, 0
2, 25248, Note_on_c, 9, 69, 110
2, 25294, Note_on_c, 9, 69, 0
2, 25296, Note_on_c, 9, 69, 110
2, 25342, Note_on_c, 9, 69, 0
2, 25344, Note_on_c, 9, 69, 110
2, 25390, Note_on_c, 9, 69, 0
2, 25392, Note_on_c, 9, 69, 110
2, 25438, Note_on_c, 9, 69, 0
2, 25440, Note_on_c, 9, 69, 110
2, 25486, Note_on_c, 9, 69, 0
2, 25488, Note_on_c, 9, 69, 110
2, 25534, Note_on_c, 9, 69, 0
2, 25536, Note_on_c, 9, 69, 110
2, 25582, Note_on_c, 9, 69, 0
2, 25584, Note_on_c, 9, 69, 110
2, 25630, Note_on_c, 9, 69, 0
2, 25632, Note_on_c, 9, 69, 110
2, 25678, Note_on_c, 9, 69, 0
2, 25680, Note_on_c, 9, 69, 110
2, 25726, Note_on_c, 9, 69, 0
2, 25728, Note_on_c, 9, 69, 110
2, 25774, Note_on_c, 9, 69, 0
2, 25776, Note_on_c, 9, 69, 110
2, 25822, Note_on_c, 9, 69, 0
2, 25824, Note_on_c, 9, 69, 110
2, 25870, Note_on_c, 9, 69, 0
2, 25872, Note_on_c, 9, 69, 110
2, 25918, Note_on_c, 9, 69, 0
2, 25920, Note_on_c, 9, 69, 110
2, 25966, Note_on_c, 9, 69, 0
2, 25968, Note_on_c, 9, 69, 110
2, 26014, Note_on_c, 9, 69, 0
2, 26016, Note_on_c, 9, 69, 110
2, 26062, Note_on_c, 9, 69, 0
2, 26064, Note_on_c, 9, 69, 110
2, 26110, Note_on_c, 9, 69, 0
2, 26112, Note_on_c, 9, 69, 110
2, 26158, Note_on_c, 9, 69, 0
2, 26160, Note_on_c, 9, 69, 110
2, 26206, Note_on_c, 9, 69, 0
2, 26208, Note_on_c, 9, 69, 110
2, 26254, Note_on_c, 9, 69, 0
2, 26256, Note_on_c, 9, 69, 110
2, 26302, Note_on_c, 9, 69, 0
2, 26304, Note_on_c, 9, 69, 110
2, 26350, Note_on_c, 9, 69, 0
2, 26352, Note_on_c, 9, 69, 110
2, 26398, Note_on_c, 9, 69, 0
2, 26400, Note_on_c, 9, 69, 110
2, 26446, Note_on_c, 9, 69, 0
2, 26448, Note_on_c, 9, 69, 110
2, 26494, Note_on_c, 9, 69, 0
2, 26496, Note_on_c, 9, 69, 110
2, 26542, Note_on_c, 9, 69, 0
2, 26544, Note_on_c, 9, 69, 110
2, 26590, Note_on_c, 9, 69, 0
2, 26592, Note_on_c, 9, 69, 110
2, 26638, Note_on_c, 9, 69, 0
2, 26640, Note_on_c, 9, 69, 110
2, 26686, Note_on_c, 9, 69, 0
2, 26688, Note_on_c, 9, 69, 110
2, 26734, Note_on_c, 9, 69, 0
2, 26736, Note_on_c, 9, 69, 110
2, 26782, Note_on_c, 9, 69, 0
2, 26784, Note_on_c, 9, 69, 110
2, 26830, Note_on_c, 9, 69, 0
2, 26832, Note_on_c, 9, 69, 110
2, 26878, Note_on_c, 9, 69, 0
2, 26880, Note_on_c, 9, 69, 110
2, 26926, Note_on_c, 9, 69, 0
2, 26928, Note_on_c, 9, 69, 110
2, 26974, Note_on_c, 9, 69, 0
2, 26976, Note_on_c, 9, 69, 110
2, 27022, Note_on_c, 9, 69, 0
2, 27024, Note_on_c, 9, 69, 110
2, 27070, Note_on_c, 9, 69, 0
2, 27072, Note_on_c, 9, 69, 110
2, 27118, Note_on_c, 9, 69, 0
2, 27120, Note_on_c, 9, 69, 110
2, 27166, Note_on_c, 9, 69, 0
2, 27168, Note_on_c, 9, 69, 110
2, 27214, Note_on_c, 9, 69, 0
2, 27216, Note_on_c, 9, 69, 110
2, 27262, Note_on_c, 9, 69, 0
2, 27264, Note_on_c, 9, 69, 110
2, 27310, Note_on_c, 9, 69, 0
2, 27312, Note_on_c, 9, 69, 110
2, 27358, Note_on_c, 9, 69, 0
2, 27360, Note_on_c, 9, 69, 110
2, 27406, Note_on_c, 9, 69, 0
2, 27408, Note_on_c, 9, 69, 110
2, 27454, Note_on_c, 9, 69, 0
2, 27456, Note_on_c, 9, 69, 110
2, 27502, Note_on_c, 9, 69, 0
2, 27504, Note_on_c, 9, 69, 110
2, 27550, Note_on_c, 9, 69, 0
2, 27552, Note_on_c, 9, 69, 110
2, 27598, Note_on_c, 9, 69, 0
2, 27600, Note_on_c, 9, 69, 110
2, 27646, Note_on_c, 9, 69, 0
2, 27648, Note_on_c, 9, 69, 110
2, 27694, Note_on_c, 9, 69, 0
2, 27696, Note_on_c, 9, 69, 110
2, 27742, Note_on_c, 9, 69, 0
2, 27744, Note_on_c, 9, 69, 110
2, 27790, Note_on_c, 9, 69, 0
2, 27792, Note_on_c, 9, 69, 110
2, 27838, Note_on_c, 9, 69, 0
2, 27840, Note_on_c, 9, 69, 110
2, 27886, Note_on_c, 9, 69, 0
2, 27888, Note_on_c, 9, 69, 110
2, 27934, Note_on_c, 9, 69, 0
2, 27936, Note_on_c, 9, 69, 110
2, 27982, Note_on_c, 9, 69, 0
2, 27984, Note_on_c, 9, 69, 110
2, 28030, Note_on_c, 9, 69, 0
2, 28032, Note_on_c, 9, 69, 110
2, 28078, Note_on_c, 9, 69, 0
2, 28080, Note_on_c, 9, 69, 110
2, 28126, Note_on_c, 9, 69, 0
2, 28128, Note_on_c, 9, 69, 110
2, 28174, Note_on_c, 9, 69, 0
2, 28176, Note_on_c, 9, 69, 110
2, 28222, Note_on_c, 9, 69, 0
2, 28224, Note_on_c, 9, 69, 110
2, 28270, Note_on_c, 9, 69, 0
2, 28272, Note_on_c, 9, 69, 110
2, 28318, Note_on_c, 9, 69, 0
2, 28320, Note_on_c, 9, 69, 110
2, 28366, Note_on_c, 9, 69, 0
2, 28368, Note_on_c, 9, 69, 110
2, 28414, Note_on_c, 9, 69, 0
2, 28416, Note_on_c, 9, 69, 110
2, 28462, Note_on_c, 9, 69, 0
2, 28464, Note_on_c, 9, 69, 110
2, 28510, Note_on_c, 9, 69, 0
2, 28512, Note_on_c, 9, 69, 110
2, 28558, Note_on_c, 9, 69, 0
2, 28560, Note_on_c, 9, 69, 110
2, 28606, Note_on_c, 9, 69, 0
2, 28608, Note_on_c, 9, 69, 110
2, 28654, Note_on_c, 9, 69, 0
2, 28656, Note_on_c, 9, 69, 110
2, 28702, Note_on_c, 9, 69, 0
2, 28704, Note_on_c, 9, 69, 110
2, 28750, Note_on_c, 9, 69, 0
2, 28752, Note_on_c, 9, 69, 110
2, 28798, Note_on_c, 9, 69, 0
2, 28800, Note_on_c, 9, 69, 110
2, 28846, Note_on_c, 9, 69, 0
2, 28848, Note_on_c, 9, 69, 110
2, 28894, Note_on_c, 9, 69, 0
2, 28896, Note_on_c, 9, 69, 110
2, 28942, Note_on_c, 9, 69, 0
2, 28944, Note_on_c, 9, 69, 110
2, 28990, Note_on_c, 9, 69, 0
2, 28992, Note_on_c, 9, 69, 110
2, 29038, Note_on_c, 9, 69, 0
2, 29040, Note_on_c, 9, 69, 110
2, 29086, Note_on_c, 9, 69, 0
2, 29088, Note_on_c, 9, 69, 110
2, 29134, Note_on_c, 9, 69, 0
2, 29136, Note_on_c, 9, 69, 110
2, 29182, Note_on_c, 9, 69, 0
2, 29184, Note_on_c, 9, 69, 110
2, 29230, Note_on_c, 9, 69, 0
2, 29232, Note_on_c, 9, 69, 110
2, 29278, Note_on_c, 9, 69, 0
2, 29280, Note_on_c, 9, 69, 110
2, 29326, Note_on_c, 9, 69, 0
2, 29328, Note_on_c, 9, 69, 110
2, 29374, Note_on_c, 9, 69, 0
2, 29376, Note_on_c, 9, 69, 110
2, 29422, Note_on_c, 9, 69, 0
2, 29424, Note_on_c, 9, 69, 110
2, 29470, Note_on_c, 9, 69, 0
2, 29472, Note_on_c, 9, 69, 110
2, 29518, Note_on_c, 9, 69, 0
2, 29520, Note_on_c, 9, 69, 110
2, 29566, Note_on_c, 9, 69, 0
2, 29568, Note_on_c, 9, 69, 110
2, 29614, Note_on_c, 9, 69, 0
2, 29616, Note_on_c, 9, 69, 110
2, 29662, Note_on_c, 9, 69, 0
2, 29664, Note_on_c, 9, 69, 110
2, 29710, Note_on_c, 9, 69, 0
2, 29712, Note_on_c, 9, 69, 110
2, 29758, Note_on_c, 9, 69, 0
2, 29760, Note_on_c, 9, 69, 110
2, 29806, Note_on_c, 9, 69, 0
2, 29808, Note_on_c, 9, 69, 110
2, 29854, Note_on_c, 9, 69, 0
2, 29856, Note_on_c, 9, 69, 110
2, 29902, Note_on_c, 9, 69, 0
2, 29904, Note_on_c, 9, 69, 110
2, 29950, Note_on_c, 9, 69, 0
2, 29952, Note_on_c, 9, 69, 110
2, 29998, Note_on_c, 9, 69, 0
2, 30000, Note_on_c, 9, 69, 110
2, 30046, Note_on_c, 9, 69, 0
2, 30048, Note_on_c, 9, 69, 110
2, 30094, Note_on_c, 9, 69, 0
2, 30096, Note_on_c, 9, 69, 110
2, 30142, Note_on_c, 9, 69, 0
2, 30144, Note_on_c, 9, 69, 110
2, 30190, Note_on_c, 9, 69, 0
2, 30192, Note_on_c, 9, 69, 110
2, 30238, Note_on_c, 9, 69, 0
2, 30240, Note_on_c, 9, 69, 110
2, 30286, Note_on_c, 9, 69, 0
2, 30288, Note_on_c, 9, 69, 110
2, 30334, Note_on_c, 9, 69, 0
2, 30336, Note_on_c, 9, 69, 110
2, 30382, Note_on_c, 9, 69, 0
2, 30384, Note_on_c, 9, 69, 110
2, 30430, Note_on_c, 9, 69, 0
2, 30432, Note_on_c, 9, 69, 110
2, 30478, Note_on_c, 9, 69, 0
2, 30480, Note_on_c, 9, 69, 110
2, 30526, Note_on_c, 9, 69, 0
2, 30528, Note_on_c, 9, 69, 110
2, 30574, Note_on_c, 9, 69, 0
2, 30576, Note_on_c, 9, 69, 110
2, 30622, Note_on_c, 9, 69, 0
2, 30624, Note_on_c, 9, 69, 110
2, 30670, Note_on_c, 9, 69, 0
2, 30672, Note_on_c, 9, 69, 110
2, 30718, Note_on_c, 9, 69, 0
2, 30720, Note_on_c, 9, 69, 110
2, 30766, Note_on_c, 9, 69, 0
2, 30768, Note_on_c, 9, 69, 110
2, 30814, Note_on_c, 9, 69, 0
2, 30816, Note_on_c, 9, 69, 110
2, 30862, Note_on_c, 9, 69, 0
2, 30864, Note_on_c, 9, 69, 110
2, 30910, Note_on_c, 9, 69, 0
2, 30912, Note_on_c, 9, 69, 110
2, 30958, Note_on_c, 9, 69, 0
2, 30960, Note_on_c, 9, 69, 110
2, 31006, Note_on_c, 9, 69, 0
2, 31008, Note_on_c, 9, 69, 110
2, 31054, Note_on_c, 9, 69, 0
2, 31056, Note_on_c, 9, 69, 110
2, 31102, Note_on_c, 9, 69, 0
2, 31104, Note_on_c, 9, 69, 110
2, 31150, Note_on_c, 9, 69, 0
2, 31152, Note_on_c, 9, 69, 110
2, 31198, Note_on_c, 9, 69, 0
2, 31200, Note_on_c, 9, 69, 110
2, 31246, Note_on_c, 9, 69, 0
2, 31248, Note_on_c, 9, 69, 110
2, 31294, Note_on_c, 9, 69, 0
2, 31296, Note_on_c, 9, 69, 110
2, 31342, Note_on_c, 9, 69, 0
2, 31344, Note_on_c, 9, 69, 110
2, 31390, Note_on_c, 9, 69, 0
2, 31392, Note_on_c, 9, 69, 110
2, 31438, Note_on_c, 9, 69, 0
2, 31440, Note_on_c, 9, 69, 110
2, 31486, Note_on_c, 9, 69, 0
2, 31488, Note_on_c, 9, 69, 110
2, 31534, Note_on_c, 9, 69, 0
2, 31536, Note_on_c, 9, 69, 110
2, 31582, Note_on_c, 9, 69, 0
2, 31584, Note_on_c, 9, 69, 110
2, 31630, Note_on_c, 9, 69, 0
2, 31632, Note_on_c, 9, 69, 110
2, 31678, Note_on_c, 9, 69, 0
2, 31680, Note_on_c, 9, 69, 110
2, 31726, Note_on_c, 9, 69, 0
2, 31728, Note_on_c, 9, 69, 110
2, 31774, Note_on_c, 9, 69, 0
2, 31776, Note_on_c, 9, 69, 110
2, 31822, Note_on_c, 9, 69, 0
2, 31824, Note_on_c, 9, 69, 110
2, 31870, Note_on_c, 9, 69, 0
2, 31872, Note_on_c, 9, 69, 110
2, 31918, Note_on_c, 9, 69, 0
2, 31920, Note_on_c, 9, 69, 110
2, 31966, Note_on_c, 9, 69, 0
2, 31968, Note_on_c, 9, 69, 110
2, 32014, Note_on_c, 9, 69, 0
2, 32016, Note_on_c, 9, 69, 110
2, 32062, Note_on_c, 9, 69, 0
2, 32064, Note_on_c, 9, 69, 110
2, 32110, Note_on_c, 9, 69, 0
2, 32112, Note_on_c, 9, 69, 110
2, 32158, Note_on_c, 9, 69, 0
2, 32160, Note_on_c, 9, 69, 110
2, 32206, Note_on_c, 9, 69, 0
2, 32208, Note_on_c, 9, 69, 110
2, 32254, Note_on_c, 9, 69, 0
2, 32256, Note_on_c, 9, 69, 110
2, 32302, Note_on_c, 9, 69, 0
2, 32304, Note_on_c, 9, 69, 110
2, 32350, Note_on_c, 9, 69, 0
2, 32352, Note_on_c, 9, 69, 110
2, 32398, Note_on_c, 9, 69, 0
2, 32400, Note_on_c, 9, 69, 110
2, 32446, Note_on_c, 9, 69, 0
2, 32448, Note_on_c, 9, 69, 110
2, 32494, Note_on_c, 9, 69, 0
2, 32496, Note_on_c, 9, 69, 110
2, 32542, Note_on_c, 9, 69, 0
2, 32544, Note_on_c, 9, 69, 110
2, 32590, Note_on_c, 9, 69, 0
2, 32592, Note_on_c, 9, 69, 110
2, 32638, Note_on_c, 9, 69, 0
2, 32640, Note_on_c, 9, 69, 110
2, 32686, Note_on_c, 9, 69, 0
2, 32688, Note_on_c, 9, 69, 110
2, 32734, Note_on_c, 9, 69, 0
2, 32736, Note_on_c, 9, 69, 110
2, 32782, Note_on_c, 9, 69, 0
2, 32784, Note_on_c, 9, 69, 110
2, 32830, Note_on_c, 9, 69, 0
2, 32832, Note_on_c, 9, 69, 110
2, 32878, Note_on_c, 9, 69, 0
2, 32880, Note_on_c, 9, 69, 110
2, 32926, Note_on_c, 9, 69, 0
2, 32928, Note_on_c, 9, 69, 110
2, 32974, Note_on_c, 9, 69, 0
2, 32976, Note_on_c, 9, 69, 110
2, 33022, Note_on_c, 9, 69, 0
2, 33024, Note_on_c, 9, 69, 110
2, 33070, Note_on_c, 9, 69, 0
2, 33072, Note_on_c, 9, 69, 110
2, 33118, Note_on_c, 9, 69, 0
2, 33120, Note_on_c, 9, 69, 110
2, 33166, Note_on_c, 9, 69, 0
2, 33168, Note_on_c, 9, 69, 110
2, 33214, Note_on_c, 9, 69, 0
2, 33216, Note_on_c, 9, 69, 110
2, 33262, Note_on_c, 9, 69, 0
2, 33264, Note_on_c, 9, 69, 110
2, 33310, Note_on_c, 9, 69, 0
2, 33312, Note_on_c, 9, 69, 110
2, 33358, Note_on_c, 9, 69, 0
2, 33360, Note_on_c, 9, 69, 110
2, 33406, Note_on_c, 9, 69, 0
2, 33408, Note_on_c, 9, 69, 110
2, 33454, Note_on_c, 9, 69, 0
2, 33456, Note_on_c, 9, 69, 110
2, 33502, Note_on_c, 9, 69, 0
2, 33504, Note_on_c, 9, 69, 110
2, 33550, Note_on_c, 9, 69, 0
2, 33552, Note_on_c, 9, 69, 110
2, 33598, Note_on_c, 9, 69, 0
2, 33600, Note_on_c, 9, 69, 110
2, 33646, Note_on_c, 9, 69, 0
2, 33648, Note_on_c, 9, 69, 110
2, 33694, Note_on_c, 9, 69, 0
2, 33696, Note_on_c, 9, 69, 110
2, 33742, Note_on_c, 9, 69, 0
2, 33744, Note_on_c, 9, 69, 110
2, 33790, Note_on_c, 9, 69, 0
2, 33792, Note_on_c, 9, 69, 110
2, 33838, Note_on_c, 9, 69, 0
2, 33840, Note_on_c, 9, 69, 110
2, 33886, Note_on_c, 9, 69, 0
2, 33888, Note_on_c, 9, 69, 110
2, 33934, Note_on_c, 9, 69, 0
2, 33936, Note_on_c, 9, 69, 110
2, 33982, Note_on_c, 9, 69, 0
2, 33984, Note_on_c, 9, 69, 110
2, 34030, Note_on_c, 9, 69, 0
2, 34032, Note_on_c, 9, 69, 110
2, 34078, Note_on_c, 9, 69, 0
2, 34080, Note_on_c, 9, 69, 110
2, 34126, Note_on_c, 9, 69, 0
2, 34128, Note_on_c, 9, 69, 110
2, 34174, Note_on_c, 9, 69, 0
2, 34176, Note_on_c, 9, 69, 110
2, 34222, Note_on_c, 9, 69, 0
2, 34224, Note_on_c, 9, 69, 110
2, 34270, Note_on_c, 9, 69, 0
2, 34272, Note_on_c, 9, 69, 110
2, 34318, Note_on_c, 9, 69, 0
2, 34320, Note_on_c, 9, 69, 110
2, 34366, Note_on_c, 9, 69, 0
2, 34368, Note_on_c, 9, 69, 110
2, 34414, Note_on_c, 9, 69, 0
2, 34416, Note_on_c, 9, 69, 110
2, 34462, Note_on_c, 9, 69, 0
2, 34464, Note_on_c, 9, 69, 110
2, 34510, Note_on_c, 9, 69, 0
2, 34512, Note_on_c, 9, 69, 110
2, 34558, Note_on_c, 9, 69, 0
2, 34560, Note_on_c, 9, 69, 110
2, 34606, Note_on_c, 9, 69, 0
2, 34608, Note_on_c, 9, 69, 110
2, 34654, Note_on_c, 9, 69, 0
2, 34656, Note_on_c, 9, 69, 110
2, 34702, Note_on_c, 9, 69, 0
2, 34704, Note_on_c, 9, 69, 110
2, 34750, Note_on_c, 9, 69, 0
2, 34752, Note_on_c, 9, 69, 110
2, 34798, Note_on_c, 9, 69, 0
2, 34800, Note_on_c, 9, 69, 110
2, 34846, Note_on_c, 9, 69, 0
2, 34848, Note_on_c, 9, 69, 110
2, 34894, Note_on_c, 9, 69, 0
2, 34896, Note_on_c, 9, 69, 110
2, 34942, Note_on_c, 9, 69, 0
2, 34944, Note_on_c, 9, 69, 110
2, 34990, Note_on_c, 9, 69, 0
2, 34992, Note_on_c, 9, 69, 110
2, 35038, Note_on_c, 9, 69, 0
2, 35040, Note_on_c, 9, 69, 110
2, 35086, Note_on_c, 9, 69, 0
2, 35088, Note_on_c, 9, 69, 110
2, 35134, Note_on_c, 9, 69, 0
2, 35136, Note_on_c, 9, 69, 110
2, 35182, Note_on_c, 9, 69, 0
2, 35184, Note_on_c, 9, 69, 110
2, 35230, Note_on_c, 9, 69, 0
2, 35232, Note_on_c, 9, 69, 110
2, 35278, Note_on_c, 9, 69, 0
2, 35280, Note_on_c, 9, 69, 110
2, 35326, Note_on_c, 9, 69, 0
2, 35328, Note_on_c, 9, 69, 110
2, 35374, Note_on_c, 9, 69, 0
2, 35376, Note_on_c, 9, 69, 110
2, 35422, Note_on_c, 9, 69, 0
2, 35424, Note_on_c, 9, 69, 110
2, 35470, Note_on_c, 9, 69, 0
2, 35472, Note_on_c, 9, 69, 110
2, 35518, Note_on_c, 9, 69, 0
2, 35520, Note_on_c, 9, 69, 110
2, 35566, Note_on_c, 9, 69, 0
2, 35568, Note_on_c, 9, 69, 110
2, 35614, Note_on_c, 9, 69, 0
2, 35616, Note_on_c, 9, 69, 110
2, 35662, Note_on_c, 9, 69, 0
2, 35664, Note_on_c, 9, 69, 110
2, 35710, Note_on_c, 9, 69, 0
2, 35712, Note_on_c, 9, 69, 110
2, 35758, Note_on_c, 9, 69, 0
2, 35760, Note_on_c, 9, 69, 110
2, 35806, Note_on_c, 9, 69, 0
2, 35808, Note_on_c, 9, 69, 110
2, 35854, Note_on_c, 9, 69, 0
2, 35856, Note_on_c, 9, 69, 110
2, 35902, Note_on_c, 9, 69, 0
2, 35904, Note_on_c, 9, 69, 110
2, 35950, Note_on_c, 9, 69, 0
2, 35952, Note_on_c, 9, 69, 110
2, 35998, Note_on_c, 9, 69, 0
2, 36000, Note_on_c, 9, 69, 110
2, 36046, Note_on_c, 9, 69, 0
2, 36048, Note_on_c, 9, 69, 110
2, 36094, Note_on_c, 9, 69, 0
2, 36096, Note_on_c, 9, 69, 110
2, 36142, Note_on_c, 9, 69, 0
2, 36144, Note_on_c, 9, 69, 110
2, 36190, Note_on_c, 9, 69, 0
2, 36192, Note_on_c, 9, 69, 110
2, 36238, Note_on_c, 9, 69, 0
2, 36240, Note_on_c, 9, 69, 110
2, 36286, Note_on_c, 9, 69, 0
2, 36288, Note_on_c, 9, 69, 110
2, 36334, Note_on_c, 9, 69, 0
2, 36336, Note_on_c, 9, 69, 110
2, 36382, Note_on_c, 9, 69, 0
2, 36384, Note_on_c, 9, 69, 110
2, 36430, Note_on_c, 9, 69, 0
2, 36432, Note_on_c, 9, 69, 110
2, 36478, Note_on_c, 9, 69, 0
2, 36480, Note_on_c, 9, 69, 110
2, 36526, Note_on_c, 9, 69, 0
2, 36528, Note_on_c, 9, 69, 110
2, 36574, Note_on_c, 9, 69, 0
2, 36576, Note_on_c, 9, 69, 110
2, 36622, Note_on_c, 9, 69, 0
2, 36624, Note_on_c, 9, 69, 110
2, 36670, Note_on_c, 9, 69, 0
2, 36672, Note_on_c, 9, 69, 110
2, 36718, Note_on_c, 9, 69, 0
2, 36720, Note_on_c, 9, 69, 110
2, 36766, Note_on_c, 9, 69, 0
2, 36768, Note_on_c, 9, 69, 110
2, 36814, Note_on_c, 9, 69, 0
2, 36816, Note_on_c, 9, 69, 110
2, 36862, Note_on_c, 9, 69, 0
2, 36864, Note_on_c, 9, 69, 110
2, 36910, Note_on_c, 9, 69, 0
2, 36912, Note_on_c, 9, 69, 110
2, 36958, Note_on_c, 9, 69, 0
2, 36960, Note_on_c, 9, 69, 110
2, 37006, Note_on_c, 9, 69, 0
2, 37008, Note_on_c, 9, 69, 110
2, 37054, Note_on_c, 9, 69, 0
2, 37056, Note_on_c, 9, 69, 110
2, 37102, Note_on_c, 9, 69, 0
2, 37104, Note_on_c, 9, 69, 110
2, 37150, Note_on_c, 9, 69, 0
2, 37152, Note_on_c, 9, 69, 110
2, 37198, Note_on_c, 9, 69, 0
2, 37200, Note_on_c, 9, 69, 110
2, 37246, Note_on_c, 9, 69, 0
2, 37248, Note_on_c, 9, 69, 110
2, 37294, Note_on_c, 9, 69, 0
2, 37296, Note_on_c, 9, 69, 110
2, 37342, Note_on_c, 9, 69, 0
2, 37344, Note_on_c, 9, 69, 110
2, 37390, Note_on_c, 9, 69, 0
2, 37392, Note_on_c, 9, 69, 110
2, 37438, Note_on_c, 9, 69, 0
2, 37440, Note_on_c, 9, 69, 110
2, 37486, Note_on_c, 9, 69, 0
2, 37488, Note_on_c, 9, 69, 110
2, 37534, Note_on_c, 9, 69, 0
2, 37536, Note_on_c, 9, 69, 110
2, 37582, Note_on_c, 9, 69, 0
2, 37584, Note_on_c, 9, 69, 110
2, 37630, Note_on_c, 9, 69, 0
2, 37632, Note_on_c, 9, 69, 110
2, 37678, Note_on_c, 9, 69, 0
2, 37680, Note_on_c, 9, 69, 110
2, 37726, Note_on_c, 9, 69, 0
2, 37728, Note_on_c, 9, 69, 110
2, 37774, Note_on_c, 9, 69, 0
2, 37776, Note_on_c, 9, 69, 110
2, 37822, Note_on_c, 9, 69, 0
2, 37824, Note_on_c, 9, 69, 110
2, 37870, Note_on_c, 9, 69, 0
2, 37872, Note_on_c, 9, 69, 110
2, 37918, Note_on_c, 9, 69, 0
2, 37920, Note_on_c, 9, 69, 110
2, 37966, Note_on_c, 9, 69, 0
2, 37968, Note_on_c, 9, 69, 110
2, 38014, Note_on_c, 9, 69, 0
2, 38016, Note_on_c, 9, 69, 110
2, 38062, Note_on_c, 9, 69, 0
2, 38064, Note_on_c, 9, 69, 110
2, 38110, Note_on_c, 9, 69, 0
2, 38112, Note_on_c, 9, 69, 110
2, 38158, Note_on_c, 9, 69, 0
2, 38160, Note_on_c, 9, 69, 110
2, 38206, Note_on_c, 9, 69, 0
2, 38208, Note_on_c, 9, 69, 110
2, 38254, Note_on_c, 9, 69, 0
2, 38256, Note_on_c, 9, 69, 110
2, 38302, Note_on_c, 9, 69, 0
2, 38304, Note_on_c, 9, 69, 110
2, 38350, Note_on_c, 9, 69, 0
2, 38352, Note_on_c, 9, 69, 110
2, 38398, Note_on_c, 9, 69, 0
2, 38400, Note_on_c, 9, 69, 110
2, 38446, Note_on_c, 9, 69, 0
2, 38448, Note_on_c, 9, 69, 110
2, 38494, Note_on_c, 9, 69, 0
2, 38496, Note_on_c, 9, 69, 110
2, 38542, Note_on_c, 9, 69, 0
2, 38544, Note_on_c, 9, 69, 110
2, 38590, Note_on_c, 9, 69, 0
2, 38592, Note_on_c, 9, 69, 110
2, 38638, Note_on_c, 9, 69, 0
2, 38640, Note_on_c, 9, 69, 110
2, 38686, Note_on_c, 9, 69, 0
2, 38688, Note_on_c, 9, 69, 110
2, 38734, Note_on_c, 9, 69, 0
2, 38736, Note_on_c, 9, 69, 110
2, 38782, Note_on_c, 9, 69, 0
2, 38784, Note_on_c, 9, 69, 110
2, 38830, Note_on_c, 9, 69, 0
2, 38832, Note_on_c, 9, 69, 110
2, 38878, Note_on_c, 9, 69, 0
2, 38880, Note_on_c, 9, 69, 110
2, 38926, Note_on_c, 9, 69, 0
2, 38928, Note_on_c, 9, 69, 110
2, 38974, Note_on_c, 9, 69, 0
2, 38976, Note_on_c, 9, 69, 110
2, 39022, Note_on_c, 9, 69, 0
2, 39024, Note_on_c, 9, 69, 110
2, 39070, Note_on_c, 9, 69, 0
2, 39072, Note_on_c, 9, 69, 110
2, 39118, Note_on_c, 9, 69, 0
2, 39120, Note_on_c, 9, 69, 110
2, 39166, Note_on_c, 9, 69, 0
2, 39168, Note_on_c, 9, 69, 110
2, 39214, Note_on_c, 9, 69, 0
2, 39216, Note_on_c, 9, 69, 110
2, 39262, Note_on_c, 9, 69, 0
2, 39264, Note_on_c, 9, 69, 110
2, 39310, Note_on_c, 9, 69, 0
2, 39312, Note_on_c, 9, 69, 110
2, 39358, Note_on_c, 9, 69, 0
2, 39360, Note_on_c, 9, 69, 110
2, 39406, Note_on_c, 9, 69, 0
2, 39408, Note_on_c, 9, 69, 110
2, 39454, Note_on_c, 9, 69, 0
2, 39456, Note_on_c, 9, 69, 110
2, 39502, Note_on_c, 9, 69, 0
2, 39504, Note_on_c, 9, 69, 110
2, 39550, Note_on_c, 9, 69, 0
2, 39552, Note_on_c, 9, 69, 110
2, 39598, Note_on_c, 9, 69, 0
2, 39600, Note_on_c, 9, 69, 110
2, 39646, Note_on_c, 9, 69, 0
2, 39648, Note_on_c, 9, 69, 110
2, 39694, Note_on_c, 9, 69, 0
2, 39696, Note_on_c, 9, 69, 110
2, 39742, Note_on_c, 9, 69, 0
2, 39744, Note_on_c, 9, 69, 110
2, 39790, Note_on_c, 9, 69, 0
2, 39792, Note_on_c, 9, 69, 110
2, 39838, Note_on_c, 9, 69, 0
2, 39840, Note_on_c, 9, 69, 110
2, 39886, Note_on_c, 9, 69, 0
2, 39888, Note_on_c, 9, 69, 110
2, 39934, Note_on_c, 9, 69, 0
2, 39936, Note_on_c, 9, 69, 110
2, 39982, Note_on_c, 9, 69, 0
2, 39984, Note_on_c, 9, 69, 110
2, 40030, Note_on_c, 9, 69, 0
2, 40032, Note_on_c, 9, 69, 110
2, 40078, Note_on_c, 9, 69, 0
2, 40080, Note_on_c, 9, 69, 110
2, 40126, Note_on_c, 9, 69, 0
2, 40128, Note_on_c, 9, 69, 110
2, 40174, Note_on_c, 9, 69, 0
2, 40176, Note_on_c, 9, 69, 110
2, 40222, Note_on_c, 9, 69, 0
2, 40224, Note_on_c, 9, 69, 110
2, 40270, Note_on_c, 9, 69, 0
2, 40272, Note_on_c, 9, 69, 110
2, 40318, Note_on_c, 9, 69, 0
2, 40320, Note_on_c, 9, 69, 110
2, 40366, Note_on_c, 9, 69, 0
2, 40368, Note_on_c, 9, 69, 110
2, 40414, Note_on_c, 9, 69, 0
2, 40416, Note_on_c, 9, 69, 110
2, 40462, Note_on_c, 9, 69, 0
2, 40464, Note_on_c, 9, 69, 110
2, 40510, Note_on_c, 9, 69, 0
2, 40512, Note_on_c, 9, 69, 110
2, 40558, Note_on_c, 9, 69, 0
2, 40560, Note_on_c, 9, 69, 110
2, 40606, Note_on_c, 9, 69, 0
2, 40608, Note_on_c, 9, 69, 110
2, 40654, Note_on_c, 9, 69, 0
2, 40656, Note_on_c, 9, 69, 110
2, 40702, Note_on_c, 9, 69, 0
2, 40704, Note_on_c, 9, 69, 110
2, 40750, Note_on_c, 9, 69, 0
2, 40752, Note_on_c, 9, 69, 110
2, 40798, Note_on_c, 9, 69, 0
2, 40800, Note_on_c, 9, 69, 110
2, 40846, Note_on_c, 9, 69, 0
2, 40848, Note_on_c, 9, 69, 110
2, 40894, Note_on_c, 9, 69, 0
2, 40896, Note_on_c, 9, 69, 110
2, 40942, Note_on_c, 9, 69, 0
2, 40944, Note_on_c, 9, 69, 110
2, 40990, Note_on_c, 9, 69, 0
2, 40992, Note_on_c, 9, 69, 110
2, 41038, Note_on_c, 9, 69, 0
2, 41040, Note_on_c, 9, 69, 110
2, 41086, Note_on_c, 9, 69, 0
2, 41088, Note_on_c, 9, 69, 110
2, 41134, Note_on_c, 9, 69, 0
2, 41136, Note_on_c, 9, 69, 110
2, 41182, Note_on_c, 9, 69, 0
2, 41184, Note_on_c, 9, 69, 110
2, 41230, Note_on_c, 9, 69, 0
2, 41232, Note_on_c, 9, 69, 110
2, 41278, Note_on_c, 9, 69, 0
2, 41280, Note_on_c, 9, 69, 110
2, 41326, Note_on_c, 9, 69, 0
2, 41328, Note_on_c, 9, 69, 110
2, 41374, Note_on_c, 9, 69, 0
2, 41376, Note_on_c, 9, 69, 110
2, 41422, Note_on_c, 9, 69, 0
2, 41424, Note_on_c, 9, 69, 110
2, 41470, Note_on_c, 9, 69, 0
2, 41472, Note_on_c, 9, 69, 110
2, 41518, Note_on_c, 9, 69, 0
2, 41520, Note_on_c, 9, 69, 110
2, 41566, Note_on_c, 9, 69, 0
2, 41568, Note_on_c, 9, 69, 110
2, 41614, Note_on_c, 9, 69, 0
2, 41616, Note_on_c, 9, 69, 110
2, 41662, Note_on_c, 9, 69, 0
2, 41664, Note_on_c, 9, 69, 110
2, 41710, Note_on_c, 9, 69, 0
2, 41712, Note_on_c, 9, 69, 110
2, 41758, Note_on_c, 9, 69, 0
2, 41760, Note_on_c, 9, 69, 110
2, 41806, Note_on_c, 9, 69, 0
2, 41808, Note_on_c, 9, 69, 110
2, 41854, Note_on_c, 9, 69, 0
2, 41856, Note_on_c, 9, 69, 110
2, 41902, Note_on_c, 9, 69, 0
2, 41904, Note_on_c, 9, 69, 110
2, 41950, Note_on_c, 9, 69, 0
2, 41952, Note_on_c, 9, 69, 110
2, 41998, Note_on_c, 9, 69, 0
2, 42000, Note_on_c, 9, 69, 110
2, 42046, Note_on_c, 9, 69, 0
2, 42048, Note_on_c, 9, 69, 110
2, 42094, Note_on_c, 9, 69, 0
2, 42096, Note_on_c, 9, 69, 110
2, 42142, Note_on_c, 9, 69, 0
2, 42144, Note_on_c, 9, 69, 110
2, 42190, Note_on_c, 9, 69, 0
2, 42192, Note_on_c, 9, 69, 110
2, 42238, Note_on_c, 9, 69, 0
2, 42240, Note_on_c, 9, 69, 110
2, 42286, Note_on_c, 9, 69, 0
2, 42288, Note_on_c, 9, 69, 110
2, 42334, Note_on_c, 9, 69, 0
2, 42336, Note_on_c, 9, 69, 110
2, 42382, Note_on_c, 9, 69, 0
2, 42384, Note_on_c, 9, 69, 110
2, 42430, Note_on_c, 9, 69, 0
2, 42432, Note_on_c, 9, 69, 110
2, 42478, Note_on_c, 9, 69, 0
2, 42480, Note_on_c, 9, 69, 110
2, 42526, Note_on_c, 9, 69, 0
2, 42528, Note_on_c, 9, 69, 110
2, 42574, Note_on_c, 9, 69, 0
2, 42576, Note_on_c, 9, 69, 110
2, 42622, Note_on_c, 9, 69, 0
2, 42624, Note_on_c, 9, 69, 110
2, 42670, Note_on_c, 9, 69, 0
2, 42672, Note_on_c, 9, 69, 110
2, 42718, Note_on_c, 9, 69, 0
2, 42720, Note_on_c, 9, 69, 110
2, 42766, Note_on_c, 9, 69, 0
2, 42768, Note_on_c, 9, 69, 110
2, 42814, Note_on_c, 9, 69, 0
2, 42816, Note_on_c, 9, 69, 110
2, 42862, Note_on_c, 9, 69, 0
2, 42864, Note_on_c, 9, 69, 110
2, 42910, Note_on_c, 9, 69, 0
2, 42912, Note_on_c, 9, 69, 110
2, 42958, Note_on_c, 9, 69, 0
2, 42960, Note_on_c, 9, 69, 110
2, 43006, Note_on_c, 9, 69, 0
2, 43008, Note_on_c, 9, 69, 110
2, 43054, Note_on_c, 9, 69, 0
2, 43056, Note_on_c, 9, 69, 110
2, 43102, Note_on_c, 9, 69, 0
2, 43104, Note_on_c, 9, 69, 110
2, 43150, Note_on_c, 9, 69, 0
2, 43152, Note_on_c, 9, 69, 110
2, 43198, Note_on_c, 9, 69, 0
2, 43200, Note_on_c, 9, 69, 110
2, 43246, Note_on_c, 9, 69, 0
2, 43248, Note_on_c, 9, 69, 110
2, 43294, Note_on_c, 9, 69, 0
2, 43296, Note_on_c, 9, 69, 110
2, 43342, Note_on_c, 9, 69, 0
2, 43344, Note_on_c, 9, 69, 110
2, 43390, Note_on_c, 9, 69, 0
2, 43392, Note_on_c, 9, 69, 110
2, 43438, Note_on_c, 9, 69, 0
2, 43440, Note_on_c, 9, 69, 110
2, 43486, Note_on_c, 9, 69, 0
2, 43488, Note_on_c, 9, 69, 110
2, 43534, Note_on_c, 9, 69, 0
2, 43536, Note_on_c, 9, 69, 110
2, 43582, Note_on_c, 9, 69, 0
2, 43584, Note_on_c, 9, 69, 110
2, 43630, Note_on_c, 9, 69, 0
2, 43632, Note_on_c, 9, 69, 110
2, 43678, Note_on_c, 9, 69, 0
2, 43680, Note_on_c, 9, 69, 110
2, 43726, Note_on_c, 9, 69, 0
2, 43728, Note_on_c, 9, 69, 110
2, 43774, Note_on_c, 9, 69, 0
2, 43776, Note_on_c, 9, 69, 110
2, 43822, Note_on_c, 9, 69, 0
2, 43824, Note_on_c, 9, 69, 110
2, 43870, Note_on_c, 9, 69, 0
2, 43872, Note_on_c, 9, 69, 110
2, 43918, Note_on_c, 9, 69, 0
2, 43920, Note_on_c, 9, 69, 110
2, 43966, Note_on_c, 9, 69, 0
2, 43968, Note_on_c, 9, 69, 110
2, 44014, Note_on_c, 9, 69, 0
2, 44016, Note_on_c, 9, 69, 110
2, 44062, Note_on_c, 9, 69, 0
2, 44064, Note_on_c, 9, 69, 110
2, 44110, Note_on_c, 9, 69, 0
2, 44112, Note_on_c, 9, 69, 110
2, 44158, Note_on_c, 9, 69, 0
2, 44160, Note_on_c, 9, 69, 110
2, 44206, Note_on_c, 9, 69, 0
2, 44208, Note_on_c, 9, 69, 110
2, 44254, Note_on_c, 9, 69, 0
2, 44256, Note_on_c, 9, 69, 110
2, 44302, Note_on_c, 9, 69, 0
2, 44304, Note_on_c, 9, 69, 110
2, 44350, Note_on_c, 9, 69, 0
2, 44352, Note_on_c, 9, 69, 110
2, 44398, Note_on_c, 9, 69, 0
2, 44400, Note_on_c, 9, 69, 110
2, 44446, Note_on_c, 9, 69, 0
2, 44448, Note_on_c, 9, 69, 110
2, 44494, Note_on_c, 9, 69, 0
2, 44496, Note_on_c, 9, 69, 110
2, 44542, Note_on_c, 9, 69, 0
2, 44544, Note_on_c, 9, 69, 110
2, 44590, Note_on_c, 9, 69, 0
2, 44592, Note_on_c, 9, 69, 110
2, 44638, Note_on_c, 9, 69, 0
2, 44640, Note_on_c, 9, 69, 110
2, 44686, Note_on_c, 9, 69, 0
2, 44688, Note_on_c, 9, 69, 110
2, 44734, Note_on_c, 9, 69, 0
2, 44736, Note_on_c, 9, 69, 110
2, 44782, Note_on_c, 9, 69, 0
2, 44784, Note_on_c, 9, 69, 110
2, 44830, Note_on_c, 9, 69, 0
2, 44832, Note_on_c, 9, 69, 110
2, 44878, Note_on_c, 9, 69, 0
2, 44880, Note_on_c, 9, 69, 110
2, 44926, Note_on_c, 9, 69, 0
2, 44928, Note_on_c, 9, 69, 110
2, 44974, Note_on_c, 9, 69, 0
2, 44976, Note_on_c, 9, 69, 110
2, 45022, Note_on_c, 9, 69, 0
2, 45024, Note_on_c, 9, 69, 110
2, 45070, Note_on_c, 9, 69, 0
2, 45072, Note_on_c, 9, 69, 110
2, 45118, Note_on_c, 9, 69, 0
2, 45120, Note_on_c, 9, 69, 110
2, 45166, Note_on_c, 9, 69, 0
2, 45168, Note_on_c, 9, 69, 110
2, 45214, Note_on_c, 9, 69, 0
2, 45216, Note_on_c, 9, 69, 110
2, 45262, Note_on_c, 9, 69, 0
2, 45264, Note_on_c, 9, 69, 110
2, 45310, Note_on_c, 9, 69, 0
2, 45312, Note_on_c, 9, 69, 110
2, 45358, Note_on_c, 9, 69, 0
2, 45360, Note_on_c, 9, 69, 110
2, 45406, Note_on_c, 9, 69, 0
2, 45408, Note_on_c, 9, 69, 110
2, 45454, Note_on_c, 9, 69, 0
2, 45456, Note_on_c, 9, 69, 110
2, 45502, Note_on_c, 9, 69, 0
2, 45504, Note_on_c, 9, 69, 110
2, 45550, Note_on_c, 9, 69, 0
2, 45552, Note_on_c, 9, 69, 110
2, 45598, Note_on_c, 9, 69, 0
2, 45600, Note_on_c, 9, 69, 110
2, 45646, Note_on_c, 9, 69, 0
2, 45648, Note_on_c, 9, 69, 110
2, 45694, Note_on_c, 9, 69, 0
2, 45696, Note_on_c, 9, 69, 110
2, 45742, Note_on_c, 9, 69, 0
2, 45744, Note_on_c, 9, 69, 110
2, 45790, Note_on_c, 9, 69, 0
2, 45792, Note_on_c, 9, 69, 110
2, 45838, Note_on_c, 9, 69, 0
2, 45840, Note_on_c, 9, 69, 110
2, 45886, Note_on_c, 9, 69, 0
2, 45888, Note_on_c, 9, 69, 110
2, 45934, Note_on_c, 9, 69, 0
2, 45936, Note_on_c, 9, 69, 110
2, 45982, Note_on_c, 9, 69, 0
2, 45984, Note_on_c, 9, 69, 110
2, 46030, Note_on_c, 9, 69, 0
2, 46032, Note_on_c, 9, 69, 110
2, 46078, Note_on_c, 9, 69, 0
2, 46080, Note_on_c, 9, 69, 110
2, 46126, Note_on_c, 9, 69, 0
2, 46128, Note_on_c, 9, 69, 110
2, 46174, Note_on_c, 9, 69, 0
2, 46176, Note_on_c, 9, 69, 110
2, 46222, Note_on_c, 9, 69, 0
2, 46224, Note_on_c, 9, 69, 110
2, 46270, Note_on_c, 9, 69, 0
2, 46272, Note_on_c, 9, 69, 110
2, 46318, Note_on_c, 9, 69, 0
2, 46320, Note_on_c, 9, 69, 110
2, 46366, Note_on_c, 9, 69, 0
2, 46368, Note_on_c, 9, 69, 110
2, 46414, Note_on_c, 9, 69, 0
2, 46416, Note_on_c, 9, 69, 110
2, 46462, Note_on_c, 9, 69, 0
2, 46464, Note_on_c, 9, 69, 110
2, 46510, Note_on_c, 9, 69, 0
2, 46512, Note_on_c, 9, 69, 110
2, 46558, Note_on_c, 9, 69, 0
2, 46560, Note_on_c, 9, 69, 110
2, 46606, Note_on_c, 9, 69, 0
2, 46608, Note_on_c, 9, 69, 110
2, 46654, Note_on_c, 9, 69, 0
2, 46656, Note_on_c, 9, 69, 110
2, 46702, Note_on_c, 9, 69, 0
2, 46704, Note_on_c, 9, 69, 110
2, 46750, Note_on_c, 9, 69, 0
2, 46752, Note_on_c, 9, 69, 110
2, 46798, Note_on_c, 9, 69, 0
2, 46800, Note_on_c, 9, 69, 110
2, 46846, Note_on_c, 9, 69, 0
2, 46848, Note_on_c, 9, 69, 110
2, 46894, Note_on_c, 9, 69, 0
2, 46896, Note_on_c, 9, 69, 110
2, 46942, Note_on_c, 9, 69, 0
2, 46944, Note_on_c, 9, 69, 110
2, 46990, Note_on_c, 9, 69, 0
2, 46992, Note_on_c, 9, 69, 110
2, 47038, Note_on_c, 9, 69, 0
2, 47040, Note_on_c, 9, 69, 110
2, 47086, Note_on_c, 9, 69, 0
2, 47088, Note_on_c, 9, 69, 110
2, 47134, Note_on_c, 9, 69, 0
2, 47136, Note_on_c, 9, 69, 110
2, 47182, Note_on_c, 9, 69, 0
2, 47184, Note_on_c, 9, 69, 110
2, 47230, Note_on_c, 9, 69, 0
2, 47232, Note_on_c, 9, 69, 110
2, 47278, Note_on_c, 9, 69, 0
2, 47280, Note_on_c, 9, 69, 110
2, 47326, Note_on_c, 9, 69, 0
2, 47328, Note_on_c, 9, 69, 110
2, 47374, Note_on_c, 9, 69, 0
2, 47376, Note_on_c, 9, 69, 110
2, 47422, Note_on_c, 9, 69, 0
2, 47424, Note_on_c, 9, 69, 110
2, 47470, Note_on_c, 9, 69, 0
2, 47472, Note_on_c, 9, 69, 110
2, 47518, Note_on_c, 9, 69, 0
2, 47520, Note_on_c, 9, 69, 110
2, 47566, Note_on_c, 9, 69, 0
2, 47568, Note_on_c, 9, 69, 110
2, 47614, Note_on_c, 9, 69, 0
2, 47616, Note_on_c, 9, 69, 110
2, 47662, Note_on_c, 9, 69, 0
2, 47664, Note_on_c, 9, 69, 110
2, 47710, Note_on_c, 9, 69, 0
2, 47712, Note_on_c, 9, 69, 110
2, 47758, Note_on_c, 9, 69, 0
2, 47760, Note_on_c, 9, 69, 110
2, 47806, Note_on_c, 9, 69, 0
2, 49344, Note_on_c, 9, 69, 110
2, 49390, Note_on_c, 9, 69, 0
2, 49392, Note_on_c, 9, 69, 110
2, 49438, Note_on_c, 9, 69, 0
2, 49440, Note_on_c, 9, 69, 110
2, 49486, Note_on_c, 9, 69, 0
2, 49488, Note_on_c, 9, 69, 110
2, 49534, Note_on_c, 9, 69, 0
2, 49536, Note_on_c, 9, 69, 110
2, 49582, Note_on_c, 9, 69, 0
2, 49584, Note_on_c, 9, 69, 110
2, 49630, Note_on_c, 9, 69, 0
2, 49632, Note_on_c, 9, 69, 110
2, 49678, Note_on_c, 9, 69, 0
2, 49680, Note_on_c, 9, 69, 110
2, 49726, Note_on_c, 9, 69, 0
2, 49728, Note_on_c, 9, 69, 110
2, 49774, Note_on_c, 9, 69, 0
2, 49776, Note_on_c, 9, 69, 110
2, 49822, Note_on_c, 9, 69, 0
2, 49824, Note_on_c, 9, 69, 110
2, 49870, Note_on_c, 9, 69, 0
2, 49872, Note_on_c, 9, 69, 110
2, 49918, Note_on_c, 9, 69, 0
2, 49920, Note_on_c, 9, 69, 110
2, 49966, Note_on_c, 9, 69, 0
2, 49968, Note_on_c, 9, 69, 110
2, 50014, Note_on_c, 9, 69, 0
2, 50016, Note_on_c, 9, 69, 110
2, 50062, Note_on_c, 9, 69, 0
2, 50064, Note_on_c, 9, 69, 110
2, 50110, Note_on_c, 9, 69, 0
2, 50112, Note_on_c, 9, 69, 110
2, 50158, Note_on_c, 9, 69, 0
2, 50160, Note_on_c, 9, 69, 110
2, 50206, Note_on_c, 9, 69, 0
2, 50208, Note_on_c, 9, 69, 110
2, 50254, Note_on_c, 9, 69, 0
2, 50256, Note_on_c, 9, 69, 110
2, 50302, Note_on_c, 9, 69, 0
2, 50304, Note_on_c, 9, 69, 110
2, 50350, Note_on_c, 9, 69, 0
2, 50352, Note_on_c, 9, 69, 110
2, 50398, Note_on_c, 9, 69, 0
2, 50400, Note_on_c, 9, 69, 110
2, 50446, Note_on_c, 9, 69, 0
2, 50448, Note_on_c, 9, 69, 110
2, 50494, Note_on_c, 9, 69, 0
2, 50496, Note_on_c, 9, 69, 110
2, 50542, Note_on_c, 9, 69, 0
2, 50544, Note_on_c, 9, 69, 110
2, 50590, Note_on_c, 9, 69, 0
2, 50592, Note_on_c, 9, 69, 110
2, 50638, Note_on_c, 9, 69, 0
2, 50640, Note_on_c, 9, 69, 110
2, 50686, Note_on_c, 9, 69, 0
2, 50688, Note_on_c, 9, 69, 110
2, 50734, Note_on_c, 9, 69, 0
2, 50736, Note_on_c, 9, 69, 110
2, 50782, Note_on_c, 9, 69, 0
2, 50784, Note_on_c, 9, 69, 110
2, 50830, Note_on_c, 9, 69, 0
2, 50832, Note_on_c, 9, 69, 110
2, 50878, Note_on_c, 9, 69, 0
2, 50880, Note_on_c, 9, 69, 110
2, 50926, Note_on_c, 9, 69, 0
2, 50928, Note_on_c, 9, 69, 110
2, 50974, Note_on_c, 9, 69, 0
2, 50976, Note_on_c, 9, 69, 110
2, 51022, Note_on_c, 9, 69, 0
2, 51024, Note_on_c, 9, 69, 110
2, 51070, Note_on_c, 9, 69, 0
2, 51072, Note_on_c, 9, 69, 110
2, 51118, Note_on_c, 9, 69, 0
2, 51120, Note_on_c, 9, 69, 110
2, 51166, Note_on_c, 9, 69, 0
2, 51168, Note_on_c, 9, 69, 110
2, 51214, Note_on_c, 9, 69, 0
2, 51216, Note_on_c, 9, 69, 110
2, 51262, Note_on_c, 9, 69, 0
2, 51264, Note_on_c, 9, 69, 110
2, 51310, Note_on_c, 9, 69, 0
2, 51312, Note_on_c, 9, 69, 110
2, 51358, Note_on_c, 9, 69, 0
2, 51360, Note_on_c, 9, 69, 110
2, 51406, Note_on_c, 9, 69, 0
2, 51408, Note_on_c, 9, 69, 110
2, 51454, Note_on_c, 9, 69, 0
2, 51456, Note_on_c, 9, 69, 110
2, 51502, Note_on_c, 9, 69, 0
2, 51504, Note_on_c, 9, 69, 110
2, 51550, Note_on_c, 9, 69, 0
2, 51552, Note_on_c, 9, 69, 110
2, 51598, Note_on_c, 9, 69, 0
2, 51600, Note_on_c, 9, 69, 110
2, 51646, Note_on_c, 9, 69, 0
2, 51648, Note_on_c, 9, 69, 110
2, 51694, Note_on_c, 9, 69, 0
2, 51696, Note_on_c, 9, 69, 110
2, 51742, Note_on_c, 9, 69, 0
2, 51744, Note_on_c, 9, 69, 110
2, 51790, Note_on_c, 9, 69, 0
2, 51792, Note_on_c, 9, 69, 110
2, 51838, Note_on_c, 9, 69, 0
2, 51840, Note_on_c, 9, 69, 110
2, 51886, Note_on_c, 9, 69, 0
2, 51888, Note_on_c, 9, 69, 110
2, 51934, Note_on_c, 9, 69, 0
2, 51936, Note_on_c, 9, 69, 110
2, 51982, Note_on_c, 9, 69, 0
2, 51984, Note_on_c, 9, 69, 110
2, 52030, Note_on_c, 9, 69, 0
2, 52032, Note_on_c, 9, 69, 110
2, 52078, Note_on_c, 9, 69, 0
2, 52080, Note_on_c, 9, 69, 110
2, 52126, Note_on_c, 9, 69, 0
2, 52128, Note_on_c, 9, 69, 110
2, 52174, Note_on_c, 9, 69, 0
2, 52176, Note_on_c, 9, 69, 110
2, 52222, Note_on_c, 9, 69, 0
2, 52224, Note_on_c, 9, 69, 110
2, 52270, Note_on_c, 9, 69, 0
2, 52272, Note_on_c, 9, 69, 110
2, 52318, Note_on_c, 9, 69, 0
2, 52320, Note_on_c, 9, 69, 110
2, 52366, Note_on_c, 9, 69, 0
2, 52368, Note_on_c, 9, 69, 110
2, 52414, Note_on_c, 9, 69, 0
2, 52416, Note_on_c, 9, 69, 110
2, 52462, Note_on_c, 9, 69, 0
2, 52464, Note_on_c, 9, 69, 110
2, 52510, Note_on_c, 9, 69, 0
2, 52512, Note_on_c, 9, 69, 110
2, 52558, Note_on_c, 9, 69, 0
2, 52560, Note_on_c, 9, 69, 110
2, 52606, Note_on_c, 9, 69, 0
2, 52608, Note_on_c, 9, 69, 110
2, 52654, Note_on_c, 9, 69, 0
2, 52656, Note_on_c, 9, 69, 110
2, 52702, Note_on_c, 9, 69, 0
2, 52704, Note_on_c, 9, 69, 110
2, 52750, Note_on_c, 9, 69, 0
2, 52752, Note_on_c, 9, 69, 110
2, 52798, Note_on_c, 9, 69, 0
2, 52800, Note_on_c, 9, 69, 110
2, 52846, Note_on_c, 9, 69, 0
2, 52848, Note_on_c, 9, 69, 110
2, 52894, Note_on_c, 9, 69, 0
2, 52896, Note_on_c, 9, 69, 110
2, 52942, Note_on_c, 9, 69, 0
2, 52944, Note_on_c, 9, 69, 110
2, 52990, Note_on_c, 9, 69, 0
2, 52992, Note_on_c, 9, 69, 110
2, 53038, Note_on_c, 9, 69, 0
2, 53040, Note_on_c, 9, 69, 110
2, 53086, Note_on_c, 9, 69, 0
2, 53088, Note_on_c, 9, 69, 110
2, 53134, Note_on_c, 9, 69, 0
2, 53136, Note_on_c, 9, 69, 110
2, 53182, Note_on_c, 9, 69, 0
2, 53184, Note_on_c, 9, 69, 110
2, 53230, Note_on_c, 9, 69, 0
2, 53232, Note_on_c, 9, 69, 110
2, 53278, Note_on_c, 9, 69, 0
2, 53280, Note_on_c, 9, 69, 110
2, 53326, Note_on_c, 9, 69, 0
2, 53328, Note_on_c, 9, 69, 110
2, 53374, Note_on_c, 9, 69, 0
2, 53376, Note_on_c, 9, 69, 110
2, 53422, Note_on_c, 9, 69, 0
2, 53424, Note_on_c, 9, 69, 110
2, 53470, Note_on_c, 9, 69, 0
2, 53472, Note_on_c, 9, 69, 110
2, 53518, Note_on_c, 9, 69, 0
2, 53520, Note_on_c, 9, 69, 110
2, 53566, Note_on_c, 9, 69, 0
2, 53568, Note_on_c, 9, 69, 110
2, 53614, Note_on_c, 9, 69, 0
2, 53616, Note_on_c, 9, 69, 110
2, 53662, Note_on_c, 9, 69, 0
2, 53664, Note_on_c, 9, 69, 110
2, 53710, Note_on_c, 9, 69, 0
2, 53712, Note_on_c, 9, 69, 110
2, 53758, Note_on_c, 9, 69, 0
2, 53760, Note_on_c, 9, 69, 110
2, 53806, Note_on_c, 9, 69, 0
2, 53808, Note_on_c, 9, 69, 110
2, 53854, Note_on_c, 9, 69, 0
2, 53856, Note_on_c, 9, 69, 110
2, 53902, Note_on_c, 9, 69, 0
2, 53904, Note_on_c, 9, 69, 110
2, 53950, Note_on_c, 9, 69, 0
2, 53952, Note_on_c, 9, 69, 110
2, 53998, Note_on_c, 9, 69, 0
2, 54000, Note_on_c, 9, 69, 110
2, 54046, Note_on_c, 9, 69, 0
2, 54048, Note_on_c, 9, 69, 110
2, 54094, Note_on_c, 9, 69, 0
2, 54096, Note_on_c, 9, 69, 110
2, 54142, Note_on_c, 9, 69, 0
2, 54144, Note_on_c, 9, 69, 110
2, 54190, Note_on_c, 9, 69, 0
2, 54192, Note_on_c, 9, 69, 110
2, 54238, Note_on_c, 9, 69, 0
2, 54240, Note_on_c, 9, 69, 110
2, 54286, Note_on_c, 9, 69, 0
2, 54288, Note_on_c, 9, 69, 110
2, 54334, Note_on_c, 9, 69, 0
2, 54336, Note_on_c, 9, 69, 110
2, 54382, Note_on_c, 9, 69, 0
2, 54384, Note_on_c, 9, 69, 110
2, 54430, Note_on_c, 9, 69, 0
2, 54432, Note_on_c, 9, 69, 110
2, 54478, Note_on_c, 9, 69, 0
2, 54480, Note_on_c, 9, 69, 110
2, 54526, Note_on_c, 9, 69, 0
2, 54528, Note_on_c, 9, 69, 110
2, 54574, Note_on_c, 9, 69, 0
2, 54576, Note_on_c, 9, 69, 110
2, 54622, Note_on_c, 9, 69, 0
2, 54624, Note_on_c, 9, 69, 110
2, 54670, Note_on_c, 9, 69, 0
2, 54672, Note_on_c, 9, 69, 110
2, 54718, Note_on_c, 9, 69, 0
2, 54720, Note_on_c, 9, 69, 110
2, 54766, Note_on_c, 9, 69, 0
2, 54768, Note_on_c, 9, 69, 110
2, 54814, Note_on_c, 9, 69, 0
2, 54816, Note_on_c, 9, 69, 110
2, 54862, Note_on_c, 9, 69, 0
2, 54864, Note_on_c, 9, 69, 110
2, 54910, Note_on_c, 9, 69, 0
2, 54912, Note_on_c, 9, 69, 110
2, 54958, Note_on_c, 9, 69, 0
2, 54960, Note_on_c, 9, 69, 110
2, 55006, Note_on_c, 9, 69, 0
2, 55008, Note_on_c, 9, 69, 110
2, 55054, Note_on_c, 9, 69, 0
2, 55056, Note_on_c, 9, 69, 110
2, 55102, Note_on_c, 9, 69, 0
2, 55104, Note_on_c, 9, 69, 110
2, 55150, Note_on_c, 9, 69, 0
2, 55152, Note_on_c, 9, 69, 110
2, 55198, Note_on_c, 9, 69, 0
2, 55200, Note_on_c, 9, 69, 110
2, 55246, Note_on_c, 9, 69, 0
2, 55248, Note_on_c, 9, 69, 110
2, 55294, Note_on_c, 9, 69, 0
2, 55296, Note_on_c, 9, 69, 110
2, 55342, Note_on_c, 9, 69, 0
2, 55344, Note_on_c, 9, 69, 110
2, 55390, Note_on_c, 9, 69, 0
2, 55392, Note_on_c, 9, 69, 110
2, 55438, Note_on_c, 9, 69, 0
2, 55440, Note_on_c, 9, 69, 110
2, 55486, Note_on_c, 9, 69, 0
2, 55488, Note_on_c, 9, 69, 110
2, 55534, Note_on_c, 9, 69, 0
2, 55536, Note_on_c, 9, 69, 110
2, 55582, Note_on_c, 9, 69, 0
2, 55584, Note_on_c, 9, 69, 110
2, 55630, Note_on_c, 9, 69, 0
2, 55632, Note_on_c, 9, 69, 110
2, 55678, Note_on_c, 9, 69, 0
2, 55680, Note_on_c, 9, 69, 110
2, 55726, Note_on_c, 9, 69, 0
2, 55728, Note_on_c, 9, 69, 110
2, 55774, Note_on_c, 9, 69, 0
2, 55776, Note_on_c, 9, 69, 110
2, 55822, Note_on_c, 9, 69, 0
2, 55824, Note_on_c, 9, 69, 110
2, 55870, Note_on_c, 9, 69, 0
2, 55872, Note_on_c, 9, 69, 110
2, 55918, Note_on_c, 9, 69, 0
2, 55920, Note_on_c, 9, 69, 110
2, 55966, Note_on_c, 9, 69, 0
2, 55968, Note_on_c, 9, 69, 110
2, 56014, Note_on_c, 9, 69, 0
2, 56016, Note_on_c, 9, 69, 110
2, 56062, Note_on_c, 9, 69, 0
2, 56064, Note_on_c, 9, 69, 110
2, 56110, Note_on_c, 9, 69, 0
2, 56112, Note_on_c, 9, 69, 110
2, 56158, Note_on_c, 9, 69, 0
2, 56160, Note_on_c, 9, 69, 110
2, 56206, Note_on_c, 9, 69, 0
2, 56208, Note_on_c, 9, 69, 110
2, 56254, Note_on_c, 9, 69, 0
2, 56256, Note_on_c, 9, 69, 110
2, 56302, Note_on_c, 9, 69, 0
2, 56304, Note_on_c, 9, 69, 110
2, 56350, Note_on_c, 9, 69, 0
2, 56352, Note_on_c, 9, 69, 110
2, 56398, Note_on_c, 9, 69, 0
2, 56400, Note_on_c, 9, 69, 110
2, 56446, Note_on_c, 9, 69, 0
2, 56448, Note_on_c, 9, 69, 110
2, 56494, Note_on_c, 9, 69, 0
2, 56496, Note_on_c, 9, 69, 110
2, 56542, Note_on_c, 9, 69, 0
2, 56544, Note_on_c, 9, 69, 110
2, 56590, Note_on_c, 9, 69, 0
2, 56592, Note_on_c, 9, 69, 110
2, 56638, Note_on_c, 9, 69, 0
2, 56640, Note_on_c, 9, 69, 110
2, 56686, Note_on_c, 9, 69, 0
2, 56688, Note_on_c, 9, 69, 110
2, 56734, Note_on_c, 9, 69, 0
2, 56736, Note_on_c, 9, 69, 110
2, 56782, Note_on_c, 9, 69, 0
2, 56784, Note_on_c, 9, 69, 110
2, 56830, Note_on_c, 9, 69, 0
2, 56832, Note_on_c, 9, 69, 110
2, 56878, Note_on_c, 9, 69, 0
2, 56880, Note_on_c, 9, 69, 110
2, 56926, Note_on_c, 9, 69, 0
2, 56928, Note_on_c, 9, 69, 110
2, 56974, Note_on_c, 9, 69, 0
2, 56976, Note_on_c, 9, 69, 110
2, 57022, Note_on_c, 9, 69, 0
2, 57024, Note_on_c, 9, 69, 110
2, 57070, Note_on_c, 9, 69, 0
2, 57072, Note_on_c, 9, 69, 110
2, 57118, Note_on_c, 9, 69, 0
2, 57120, Note_on_c, 9, 69, 110
2, 57166, Note_on_c, 9, 69, 0
2, 57168, Note_on_c, 9, 69, 110
2, 57214, Note_on_c, 9, 69, 0
2, 57216, Note_on_c, 9, 69, 110
2, 57262, Note_on_c, 9, 69, 0
2, 57264, Note_on_c, 9, 69, 110
2, 57310, Note_on_c, 9, 69, 0
2, 57312, Note_on_c, 9, 69, 110
2, 57358, Note_on_c, 9, 69, 0
2, 57360, Note_on_c, 9, 69, 110
2, 57406, Note_on_c, 9, 69, 0
2, 57408, Note_on_c, 9, 69, 110
2, 57454, Note_on_c, 9, 69, 0
2, 57456, Note_on_c, 9, 69, 110
2, 57502, Note_on_c, 9, 69, 0
2, 57504, Note_on_c, 9, 69, 110
2, 57550, Note_on_c, 9, 69, 0
2, 57552, Note_on_c, 9, 69, 110
2, 57598, Note_on_c, 9, 69, 0
2, 57600, Note_on_c, 9, 69, 110
2, 57646, Note_on_c, 9, 69, 0
2, 57648, Note_on_c, 9, 69, 110
2, 57694, Note_on_c, 9, 69, 0
2, 57696, Note_on_c, 9, 69, 110
2, 57742, Note_on_c, 9, 69, 0
2, 57744, Note_on_c, 9, 69, 110
2, 57790, Note_on_c, 9, 69, 0
2, 57792, Note_on_c, 9, 69, 110
2, 57838, Note_on_c, 9, 69, 0
2, 57840, Note_on_c, 9, 69, 110
2, 57886, Note_on_c, 9, 69, 0
2, 57888, Note_on_c, 9, 69, 110
2, 57934, Note_on_c, 9, 69, 0
2, 57936, Note_on_c, 9, 69, 110
2, 57982, Note_on_c, 9, 69, 0
2, 57984, Note_on_c, 9, 69, 110
2, 58030, Note_on_c, 9, 69, 0
2, 58032, Note_on_c, 9, 69, 110
2, 58078, Note_on_c, 9, 69, 0
2, 58080, Note_on_c, 9, 69, 110
2, 58126, Note_on_c, 9, 69, 0
2, 58128, Note_on_c, 9, 69, 110
2, 58174, Note_on_c, 9, 69, 0
2, 58176, Note_on_c, 9, 69, 110
2, 58222, Note_on_c, 9, 69, 0
2, 58224, Note_on_c, 9, 69, 110
2, 58270, Note_on_c, 9, 69, 0
2, 58272, Note_on_c, 9, 69, 110
2, 58318, Note_on_c, 9, 69, 0
2, 58320, Note_on_c, 9, 69, 110
2, 58366, Note_on_c, 9, 69, 0
2, 58368, Note_on_c, 9, 69, 110
2, 58414, Note_on_c, 9, 69, 0
2, 58416, Note_on_c, 9, 69, 110
2, 58462, Note_on_c, 9, 69, 0
2, 58464, Note_on_c, 9, 69, 110
2, 58510, Note_on_c, 9, 69, 0
2, 58512, Note_on_c, 9, 69, 110
2, 58558, Note_on_c, 9, 69, 0
2, 58560, Note_on_c, 9, 69, 110
2, 58606, Note_on_c, 9, 69, 0
2, 58608, Note_on_c, 9, 69, 110
2, 58654, Note_on_c, 9, 69, 0
2, 58656, Note_on_c, 9, 69, 110
2, 58702, Note_on_c, 9, 69, 0
2, 58704, Note_on_c, 9, 69, 110
2, 58750, Note_on_c, 9, 69, 0
2, 58752, Note_on_c, 9, 69, 110
2, 58798, Note_on_c, 9, 69, 0
2, 58800, Note_on_c, 9, 69, 110
2, 58846, Note_on_c, 9, 69, 0
2, 58848, Note_on_c, 9, 69, 110
2, 58894, Note_on_c, 9, 69, 0
2, 58896, Note_on_c, 9, 69, 110
2, 58942, Note_on_c, 9, 69, 0
2, 58944, Note_on_c, 9, 69, 110
2, 58990, Note_on_c, 9, 69, 0
2, 58992, Note_on_c, 9, 69, 110
2, 59038, Note_on_c, 9, 69, 0
2, 59040, Note_on_c, 9, 69, 110
2, 59086, Note_on_c, 9, 69, 0
2, 59088, Note_on_c, 9, 69, 110
2, 59134, Note_on_c, 9, 69, 0
2, 59136, Note_on_c, 9, 69, 110
2, 59182, Note_on_c, 9, 69, 0
2, 59184, Note_on_c, 9, 69, 110
2, 59230, Note_on_c, 9, 69, 0
2, 59232, Note_on_c, 9, 69, 110
2, 59278, Note_on_c, 9, 69, 0
2, 59280, Note_on_c, 9, 69, 110
2, 59326, Note_on_c, 9, 69, 0
2, 59328, Note_on_c, 9, 69, 110
2, 59374, Note_on_c, 9, 69, 0
2, 59376, Note_on_c, 9, 69, 110
2, 59422, Note_on_c, 9, 69, 0
2, 59424, Note_on_c, 9, 69, 110
2, 59470, Note_on_c, 9, 69, 0
2, 59472, Note_on_c, 9, 69, 110
2, 59518, Note_on_c, 9, 69, 0
2, 59520, Note_on_c, 9, 69, 110
2, 59566, Note_on_c, 9, 69, 0
2, 59568, Note_on_c, 9, 69, 110
2, 59614, Note_on_c, 9, 69, 0
2, 59616, Note_on_c, 9, 69, 110
2, 59662, Note_on_c, 9, 69, 0
2, 59664, Note_on_c, 9, 69, 110
2, 59710, Note_on_c, 9, 69, 0
2, 59712, Note_on_c, 9, 69, 110
2, 59758, Note_on_c, 9, 69, 0
2, 59760, Note_on_c, 9, 69, 110
2, 59806, Note_on_c, 9, 69, 0
2, 59808, Note_on_c, 9, 69, 110
2, 59854, Note_on_c, 9, 69, 0
2, 59856, Note_on_c, 9, 69, 110
2, 59902, Note_on_c, 9, 69, 0
2, 59904, Note_on_c, 9, 69, 110
2, 59950, Note_on_c, 9, 69, 0
2, 59952, Note_on_c, 9, 69, 110
2, 59998, Note_on_c, 9, 69, 0
2, 60000, Note_on_c, 9, 69, 110
2, 60046, Note_on_c, 9, 69, 0
2, 60048, Note_on_c, 9, 69, 110
2, 60094, Note_on_c, 9, 69, 0
2, 60096, Note_on_c, 9, 69, 110
2, 60142, Note_on_c, 9, 69, 0
2, 60144, Note_on_c, 9, 69, 110
2, 60190, Note_on_c, 9, 69, 0
2, 60192, Note_on_c, 9, 69, 110
2, 60238, Note_on_c, 9, 69, 0
2, 60240, Note_on_c, 9, 69, 110
2, 60286, Note_on_c, 9, 69, 0
2, 60288, Note_on_c, 9, 69, 110
2, 60334, Note_on_c, 9, 69, 0
2, 60336, Note_on_c, 9, 69, 110
2, 60382, Note_on_c, 9, 69, 0
2, 60384, Note_on_c, 9, 69, 110
2, 60430, Note_on_c, 9, 69, 0
2, 60432, Note_on_c, 9, 69, 110
2, 60478, Note_on_c, 9, 69, 0
2, 60480, Note_on_c, 9, 69, 110
2, 60526, Note_on_c, 9, 69, 0
2, 60528, Note_on_c, 9, 69, 110
2, 60574, Note_on_c, 9, 69, 0
2, 60576, Note_on_c, 9, 69, 110
2, 60622, Note_on_c, 9, 69, 0
2, 60624, Note_on_c, 9, 69, 110
2, 60670, Note_on_c, 9, 69, 0
2, 60672, Note_on_c, 9, 69, 110
2, 60718, Note_on_c, 9, 69, 0
2, 60720, Note_on_c, 9, 69, 110
2, 60766, Note_on_c, 9, 69, 0
2, 60768, Note_on_c, 9, 69, 110
2, 60814, Note_on_c, 9, 69, 0
2, 60816, Note_on_c, 9, 69, 110
2, 60862, Note_on_c, 9, 69, 0
2, 60864, Note_on_c, 9, 69, 110
2, 60910, Note_on_c, 9, 69, 0
2, 60912, Note_on_c, 9, 69, 110
2, 60958, Note_on_c, 9, 69, 0
2, 60960, Note_on_c, 9, 69, 110
2, 61006, Note_on_c, 9, 69, 0
2, 61008, Note_on_c, 9, 69, 110
2, 61054, Note_on_c, 9, 69, 0
2, 61056, Note_on_c, 9, 69, 110
2, 61102, Note_on_c, 9, 69, 0
2, 61104, Note_on_c, 9, 69, 110
2, 61150, Note_on_c, 9, 69, 0
2, 61152, Note_on_c, 9, 69, 110
2, 61198, Note_on_c, 9, 69, 0
2, 61200, Note_on_c, 9, 69, 110
2, 61246, Note_on_c, 9, 69, 0
2, 61248, Note_on_c, 9, 69, 110
2, 61294, Note_on_c, 9, 69, 0
2, 61296, Note_on_c, 9, 69, 110
2, 61342, Note_on_c, 9, 69, 0
2, 61344, Note_on_c, 9, 69, 110
2, 61390, Note_on_c, 9, 69, 0
2, 61392, Note_on_c, 9, 69, 110
2, 61438, Note_on_c, 9, 69, 0
2, 61440, Note_on_c, 9, 69, 110
2, 61486, Note_on_c, 9, 69, 0
2, 61488, Note_on_c, 9, 69, 110
2, 61534, Note_on_c, 9, 69, 0
2, 61536, Note_on_c, 9, 69, 110
2, 61582, Note_on_c, 9, 69, 0
2, 61584, Note_on_c, 9, 69, 110
2, 61630, Note_on_c, 9, 69, 0
2, 61632, Note_on_c, 9, 69, 110
2, 61678, Note_on_c, 9, 69, 0
2, 61680, Note_on_c, 9, 69, 110
2, 61726, Note_on_c, 9, 69, 0
2, 61728, Note_on_c, 9, 69, 110
2, 61774, Note_on_c, 9, 69, 0
2, 61776, Note_on_c, 9, 69, 110
2, 61822, Note_on_c, 9, 69, 0
2, 61824, Note_on_c, 9, 69, 110
2, 61870, Note_on_c, 9, 69, 0
2, 61872, Note_on_c, 9, 69, 110
2, 61918, Note_on_c, 9, 69, 0
2, 61920, Note_on_c, 9, 69, 110
2, 61966, Note_on_c, 9, 69, 0
2, 61968, Note_on_c, 9, 69, 110
2, 62014, Note_on_c, 9, 69, 0
2, 62016, Note_on_c, 9, 69, 110
2, 62062, Note_on_c, 9, 69, 0
2, 62064, Note_on_c, 9, 69, 110
2, 62110, Note_on_c, 9, 69, 0
2, 62112, Note_on_c, 9, 69, 110
2, 62158, Note_on_c, 9, 69, 0
2, 62160, Note_on_c, 9, 69, 110
2, 62206, Note_on_c, 9, 69, 0
2, 62208, Note_on_c, 9, 69, 110
2, 62254, Note_on_c, 9, 69, 0
2, 62256, Note_on_c, 9, 69, 110
2, 62302, Note_on_c, 9, 69, 0
2, 62304, Note_on_c, 9, 69, 110
2, 62350, Note_on_c, 9, 69, 0
2, 62352, Note_on_c, 9, 69, 110
2, 62398, Note_on_c, 9, 69, 0
2, 62400, Note_on_c, 9, 69, 110
2, 62446, Note_on_c, 9, 69, 0
2, 62448, Note_on_c, 9, 69, 110
2, 62494, Note_on_c, 9, 69, 0
2, 62496, Note_on_c, 9, 69, 110
2, 62542, Note_on_c, 9, 69, 0
2, 62544, Note_on_c, 9, 69, 110
2, 62590, Note_on_c, 9, 69, 0
2, 62592, Note_on_c, 9, 69, 110
2, 62638, Note_on_c, 9, 69, 0
2, 62640, Note_on_c, 9, 69, 110
2, 62686, Note_on_c, 9, 69, 0
2, 62688, Note_on_c, 9, 69, 110
2, 62734, Note_on_c, 9, 69, 0
2, 62736, Note_on_c, 9, 69, 110
2, 62782, Note_on_c, 9, 69, 0
2, 62784, Note_on_c, 9, 69, 110
2, 62830, Note_on_c, 9, 69, 0
2, 62832, Note_on_c, 9, 69, 110
2, 62878, Note_on_c, 9, 69, 0
2, 62880, Note_on_c, 9, 69, 110
2, 62926, Note_on_c, 9, 69, 0
2, 62928, Note_on_c, 9, 69, 110
2, 62974, Note_on_c, 9, 69, 0
2, 62976, Note_on_c, 9, 69, 110
2, 63022, Note_on_c, 9, 69, 0
2, 63024, Note_on_c, 9, 69, 110
2, 63070, Note_on_c, 9, 69, 0
2, 63072, Note_on_c, 9, 69, 110
2, 63118, Note_on_c, 9, 69, 0
2, 63120, Note_on_c, 9, 69, 110
2, 63166, Note_on_c, 9, 69, 0
2, 63168, Note_on_c, 9, 69, 110
2, 63214, Note_on_c, 9, 69, 0
2, 63216, Note_on_c, 9, 69, 110
2, 63262, Note_on_c, 9, 69, 0
2, 63264, Note_on_c, 9, 69, 110
2, 63310, Note_on_c, 9, 69, 0
2, 63312, Note_on_c, 9, 69, 110
2, 63358, Note_on_c, 9, 69, 0
2, 63360, Note_on_c, 9, 69, 110
2, 63406, Note_on_c, 9, 69, 0
2, 63408, Note_on_c, 9, 69, 110
2, 63454, Note_on_c, 9, 69, 0
2, 63456, Note_on_c, 9, 69, 110
2, 63502, Note_on_c, 9, 69, 0
2, 63504, Note_on_c, 9, 69, 110
2, 63550, Note_on_c, 9, 69, 0
2, 63552, Note_on_c, 9, 69, 110
2, 63598, Note_on_c, 9, 69, 0
2, 63600, Note_on_c, 9, 69, 110
2, 63646, Note_on_c, 9, 69, 0
2, 63648, Note_on_c, 9, 69, 110
2, 63694, Note_on_c, 9, 69, 0
2, 63696, Note_on_c, 9, 69, 110
2, 63742, Note_on_c, 9, 69, 0
2, 63744, Note_on_c, 9, 69, 110
2, 63790, Note_on_c, 9, 69, 0
2, 63792, Note_on_c, 9, 69, 110
2, 63838, Note_on_c, 9, 69, 0
2, 63840, Note_on_c, 9, 69, 110
2, 63886, Note_on_c, 9, 69, 0
2, 63888, Note_on_c, 9, 69, 110
2, 63934, Note_on_c, 9, 69, 0
2, 63936, Note_on_c, 9, 69, 110
2, 63982, Note_on_c, 9, 69, 0
2, 63984, Note_on_c, 9, 69, 110
2, 64030, Note_on_c, 9, 69, 0
2, 64032, Note_on_c, 9, 69, 110
2, 64078, Note_on_c, 9, 69, 0
2, 64080, Note_on_c, 9, 69, 110
2, 64126, Note_on_c, 9, 69, 0
2, 64128, Note_on_c, 9, 69, 110
2, 64174, Note_on_c, 9, 69, 0
2, 64176, Note_on_c, 9, 69, 110
2, 64222, Note_on_c, 9, 69, 0
2, 64224, Note_on_c, 9, 69, 110
2, 64270, Note_on_c, 9, 69, 0
2, 64272, Note_on_c, 9, 69, 110
2, 64318, Note_on_c, 9, 69, 0
2, 64320, Note_on_c, 9, 69, 110
2, 64366, Note_on_c, 9, 69, 0
2, 64368, Note_on_c, 9, 69, 110
2, 64414, Note_on_c, 9, 69, 0
2, 64416, Note_on_c, 9, 69, 110
2, 64462, Note_on_c, 9, 69, 0
2, 64464, Note_on_c, 9, 69, 110
2, 64510, Note_on_c, 9, 69, 0
2, 64512, Note_on_c, 9, 69, 110
2, 64558, Note_on_c, 9, 69, 0
2, 64560, Note_on_c, 9, 69, 110
2, 64606, Note_on_c, 9, 69, 0
2, 64608, Note_on_c, 9, 69, 110
2, 64654, Note_on_c, 9, 69, 0
2, 64656, Note_on_c, 9, 69, 110
2, 64702, Note_on_c, 9, 69, 0
2, 64704, Note_on_c, 9, 69, 110
2, 64750, Note_on_c, 9, 69, 0
2, 64752, Note_on_c, 9, 69, 110
2, 64798, Note_on_c, 9, 69, 0
2, 64800, Note_on_c, 9, 69, 110
2, 64846, Note_on_c, 9, 69, 0
2, 64848, Note_on_c, 9, 69, 110
2, 64894, Note_on_c, 9, 69, 0
2, 64896, Note_on_c, 9, 69, 110
2, 64942, Note_on_c, 9, 69, 0
2, 64944, Note_on_c, 9, 69, 110
2, 64990, Note_on_c, 9, 69, 0
2, 64992, Note_on_c, 9, 69, 110
2, 65038, Note_on_c, 9, 69, 0
2, 65040, Note_on_c, 9, 69, 110
2, 65086, Note_on_c, 9, 69, 0
2, 65088, Note_on_c, 9, 69, 110
2, 65134, Note_on_c, 9, 69, 0
2, 65136, Note_on_c, 9, 69, 110
2, 65182, Note_on_c, 9, 69, 0
2, 65184, Note_on_c, 9, 69, 110
2, 65230, Note_on_c, 9, 69, 0
2, 65232, Note_on_c, 9, 69, 110
2, 65278, Note_on_c, 9, 69, 0
2, 65280, Note_on_c, 9, 69, 110
2, 65326, Note_on_c, 9, 69, 0
2, 65328, Note_on_c, 9, 69, 110
2, 65374, Note_on_c, 9, 69, 0
2, 65376, Note_on_c, 9, 69, 110
2, 65422, Note_on_c, 9, 69, 0
2, 65424, Note_on_c, 9, 69, 110
2, 65470, Note_on_c, 9, 69, 0
2, 65472, Note_on_c, 9, 69, 110
2, 65518, Note_on_c, 9, 69, 0
2, 65520, Note_on_c, 9, 69, 110
2, 65566, Note_on_c, 9, 69, 0
2, 65568, Note_on_c, 9, 69, 110
2, 65614, Note_on_c, 9, 69, 0
2, 65616, Note_on_c, 9, 69, 110
2, 65662, Note_on_c, 9, 69, 0
2, 65664, Note_on_c, 9, 69, 110
2, 65710, Note_on_c, 9, 69, 0
2, 65712, Note_on_c, 9, 69, 110
2, 65758, Note_on_c, 9, 69, 0
2, 65760, Note_on_c, 9, 69, 110
2, 65806, Note_on_c, 9, 69, 0
2, 65808, Note_on_c, 9, 69, 110
2, 65854, Note_on_c, 9, 69, 0
2, 65856, Note_on_c, 9, 69, 110
2, 65902, Note_on_c, 9, 69, 0
2, 65904, Note_on_c, 9, 69, 110
2, 65950, Note_on_c, 9, 69, 0
2, 65952, Note_on_c, 9, 69, 110
2, 65998, Note_on_c, 9, 69, 0
2, 66000, Note_on_c, 9, 69, 110
2, 66046, Note_on_c, 9, 69, 0
2, 66048, Note_on_c, 9, 69, 110
2, 66094, Note_on_c, 9, 69, 0
2, 66096, Note_on_c, 9, 69, 110
2, 66142, Note_on_c, 9, 69, 0
2, 66144, Note_on_c, 9, 69, 110
2, 66190, Note_on_c, 9, 69, 0
2, 66192, Note_on_c, 9, 69, 110
2, 66238, Note_on_c, 9, 69, 0
2, 66238, End_track
3, 0, Start_track
3, 0, MIDI_port, 0
3, 0, Title_t, "www.geocities.com/~lbb/"
3, 0, Program_c, 9, 0
3, 0, Control_c, 9, 7, 127
3, 0, Control_c, 9, 10, 64
3, 192, Note_on_c, 9, 36, 110
3, 526, Note_on_c, 9, 36, 0
3, 528, Note_on_c, 9, 36, 110
3, 574, Note_on_c, 9, 36, 0
3, 576, Note_on_c, 9, 36, 110
3, 736, Note_on_c, 9, 36, 0
3, 960, Note_on_c, 9, 36, 110
3, 1294, Note_on_c, 9, 36, 0
3, 1296, Note_on_c, 9, 36, 110
3, 1342, Note_on_c, 9, 36, 0
3, 1344, Note_on_c, 9, 36, 110
3, 1504, Note_on_c, 9, 36, 0
3, 1728, Note_on_c, 9, 36, 110
3, 2062, Note_on_c, 9, 36, 0
3, 2064, Note_on_c, 9, 36, 110
3, 2110, Note_on_c, 9, 36, 0
3, 2112, Note_on_c, 9, 36, 110
3, 2272, Note_on_c, 9, 36, 0
3, 2496, Note_on_c, 9, 36, 110
3, 2830, Note_on_c, 9, 36, 0
3, 2832, Note_on_c, 9, 36, 110
3, 2878, Note_on_c, 9, 36, 0
3, 2880, Note_on_c, 9, 36, 110
3, 3040, Note_on_c, 9, 36, 0
3, 3264, Note_on_c, 9, 36, 110
3, 3598, Note_on_c, 9, 36, 0
3, 3600, Note_on_c, 9, 36, 110
3, 3646, Note_on_c, 9, 36, 0
3, 3648, Note_on_c, 9, 36, 110
3, 3808, Note_on_c, 9, 36, 0
3, 4032, Note_on_c, 9, 36, 110
3, 4366, Note_on_c, 9, 36, 0
3, 4368, Note_on_c, 9, 36, 110
3, 4414, Note_on_c, 9, 36, 0
3, 4416, Note_on_c, 9, 36, 110
3, 4576, Note_on_c, 9, 36, 0
3, 4800, Note_on_c, 9, 36, 110
3, 5134, Note_on_c, 9, 36, 0
3, 5136, Note_on_c, 9, 36, 110
3, 5182, Note_on_c, 9, 36, 0
3, 5184, Note_on_c, 9, 36, 110
3, 5344, Note_on_c, 9, 36, 0
3, 5568, Note_on_c, 9, 36, 110
3, 5902, Note_on_c, 9, 36, 0
3, 5904, Note_on_c, 9, 36, 110
3, 5950, Note_on_c, 9, 36, 0
3, 5952, Note_on_c, 9, 36, 110
3, 6112, Note_on_c, 9, 36, 0
3, 6336, Note_on_c, 9, 36, 110
3, 6670, Note_on_c, 9, 36, 0
3, 6672, Note_on_c, 9, 36, 110
3, 6718, Note_on_c, 9, 36, 0
3, 6720, Note_on_c, 9, 36, 110
3, 6880, Note_on_c, 9, 36, 0
3, 7104, Note_on_c, 9, 36, 110
3, 7438, Note_on_c, 9, 36, 0
3, 7440, Note_on_c, 9, 36, 110
3, 7486, Note_on_c, 9, 36, 0
3, 7488, Note_on_c, 9, 36, 110
3, 7648, Note_on_c, 9, 36, 0
3, 7872, Note_on_c, 9, 36, 110
3, 8206, Note_on_c, 9, 36, 0
3, 8208, Note_on_c, 9, 36, 110
3, 8254, Note_on_c, 9, 36, 0
3, 8256, Note_on_c, 9, 36, 110
3, 8416, Note_on_c, 9, 36, 0
3, 8640, Note_on_c, 9, 36, 110
3, 8974, Note_on_c, 9, 36, 0
3, 8976, Note_on_c, 9, 36, 110
3, 9022, Note_on_c, 9, 36, 0
3, 9024, Note_on_c, 9, 36, 110
3, 9184, Note_on_c, 9, 36, 0
3, 9408, Note_on_c, 9, 36, 110
3, 9742, Note_on_c, 9, 36, 0
3, 9744, Note_on_c, 9, 36, 110
3, 9790, Note_on_c, 9, 36, 0
3, 9792, Note_on_c, 9, 36, 110
3, 9952, Note_on_c, 9, 36, 0
3, 10176, Note_on_c, 9, 36, 110
3, 10510, Note_on_c, 9, 36, 0
3, 10512, Note_on_c, 9, 36, 110
3, 10558, Note_on_c, 9, 36, 0
3, 10560, Note_on_c, 9, 36, 110
3, 10720, Note_on_c, 9, 36, 0
3, 10944, Note_on_c, 9, 36, 110
3, 11278, Note_on_c, 9, 36, 0
3, 11280, Note_on_c, 9, 36, 110
3, 11326, Note_on_c, 9, 36, 0
3, 11328, Note_on_c, 9, 36, 110
3, 11488, Note_on_c, 9, 36, 0
3, 11712, Note_on_c, 9, 36, 110
3, 12046, Note_on_c, 9, 36, 0
3, 12048, Note_on_c, 9, 36, 110
3, 12094, Note_on_c, 9, 36, 0
3, 12096, Note_on_c, 9, 36, 110
3, 12256, Note_on_c, 9, 36, 0
3, 12480, Note_on_c, 9, 36, 110
3, 12814, Note_on_c, 9, 36, 0
3, 12816, Note_on_c, 9, 36, 110
3, 12862, Note_on_c, 9, 36, 0
3, 12864, Note_on_c, 9, 36, 110
3, 13024, Note_on_c, 9, 36, 0
3, 13248, Note_on_c, 9, 36, 110
3, 13582, Note_on_c, 9, 36, 0
3, 13584, Note_on_c, 9, 36, 110
3, 13630, Note_on_c, 9, 36, 0
3, 13632, Note_on_c, 9, 36, 110
3, 13792, Note_on_c, 9, 36, 0
3, 14016, Note_on_c, 9, 36, 110
3, 14350, Note_on_c, 9, 36, 0
3, 14352, Note_on_c, 9, 36, 110
3, 14398, Note_on_c, 9, 36, 0
3, 14400, Note_on_c, 9, 36, 110
3, 14560, Note_on_c, 9, 36, 0
3, 14784, Note_on_c, 9, 36, 110
3, 15118, Note_on_c, 9, 36, 0
3, 15120, Note_on_c, 9, 36, 110
3, 15166, Note_on_c, 9, 36, 0
3, 15168, Note_on_c, 9, 36, 110
3, 15328, Note_on_c, 9, 36, 0
3, 15552, Note_on_c, 9, 36, 110
3, 15886, Note_on_c, 9, 36, 0
3, 15888, Note_on_c, 9, 36, 110
3, 15934, Note_on_c, 9, 36, 0
3, 15936, Note_on_c, 9, 36, 110
3, 16096, Note_on_c, 9, 36, 0
3, 16320, Note_on_c, 9, 36, 110
3, 16654, Note_on_c, 9, 36, 0
3, 16656, Note_on_c, 9, 36, 110
3, 16702, Note_on_c, 9, 36, 0
3, 16704, Note_on_c, 9, 36, 110
3, 16864, Note_on_c, 9, 36, 0
3, 17088, Note_on_c, 9, 36, 110
3, 17422, Note_on_c, 9, 36, 0
3, 17424, Note_on_c, 9, 36, 110
3, 17470, Note_on_c, 9, 36, 0
3, 17472, Note_on_c, 9, 36, 110
3, 17632, Note_on_c, 9, 36, 0
3, 17856, Note_on_c, 9, 36, 110
3, 18190, Note_on_c, 9, 36, 0
3, 18192, Note_on_c, 9, 36, 110
3, 18238, Note_on_c, 9, 36, 0
3, 18240, Note_on_c, 9, 36, 110
3, 18400, Note_on_c, 9, 36, 0
3, 18624, Note_on_c, 9, 36, 110
3, 18958, Note_on_c, 9, 36, 0
3, 18960, Note_on_c, 9, 36, 110
3, 19006, Note_on_c, 9, 36, 0
3, 19008, Note_on_c, 9, 36, 110
3, 19168, Note_on_c, 9, 36, 0
3, 19392, Note_on_c, 9, 36, 110
3, 19726, Note_on_c, 9, 36, 0
3, 19728, Note_on_c, 9, 36, 110
3, 19774, Note_on_c, 9, 36, 0
3, 19776, Note_on_c, 9, 36, 110
3, 19936, Note_on_c, 9, 36, 0
3, 20160, Note_on_c, 9, 36, 110
3, 20494, Note_on_c, 9, 36, 0
3, 20496, Note_on_c, 9, 36, 110
3, 20542, Note_on_c, 9, 36, 0
3, 20544, Note_on_c, 9, 36, 110
3, 20704, Note_on_c, 9, 36, 0
3, 20928, Note_on_c, 9, 36, 110
3, 21262, Note_on_c, 9, 36, 0
3, 21264, Note_on_c, 9, 36, 110
3, 21310, Note_on_c, 9, 36, 0
3, 21312, Note_on_c, 9, 36, 110
3, 21472, Note_on_c, 9, 36, 0
3, 21696, Note_on_c, 9, 36, 110
3, 22030, Note_on_c, 9, 36, 0
3, 22032, Note_on_c, 9, 36, 110
3, 22078, Note_on_c, 9, 36, 0
3, 22080, Note_on_c, 9, 36, 110
3, 22240, Note_on_c, 9, 36, 0
3, 22464, Note_on_c, 9, 36, 110
3, 22798, Note_on_c, 9, 36, 0
3, 22800, Note_on_c, 9, 36, 110
3, 22846, Note_on_c, 9, 36, 0
3, 22848, Note_on_c, 9, 36, 110
3, 23008, Note_on_c, 9, 36, 0
3, 23232, Note_on_c, 9, 36, 110
3, 23566, Note_on_c, 9, 36, 0
3, 23568, Note_on_c, 9, 36, 110
3, 23614, Note_on_c, 9, 36, 0
3, 23616, Note_on_c, 9, 36, 110
3, 23776, Note_on_c, 9, 36, 0
3, 24000, Note_on_c, 9, 36, 110
3, 24334, Note_on_c, 9, 36, 0
3, 24336, Note_on_c, 9, 36, 110
3, 24382, Note_on_c, 9, 36, 0
3, 24384, Note_on_c, 9, 36, 110
3, 24544, Note_on_c, 9, 36, 0
3, 24768, Note_on_c, 9, 36, 110
3, 25102, Note_on_c, 9, 36, 0
3, 25104, Note_on_c, 9, 36, 110
3, 25150, Note_on_c, 9, 36, 0
3, 25152, Note_on_c, 9, 36, 110
3, 25312, Note_on_c, 9, 36, 0
3, 25536, Note_on_c, 9, 36, 110
3, 25870, Note_on_c, 9, 36, 0
3, 25872, Note_on_c, 9, 36, 110
3, 25918, Note_on_c, 9, 36, 0
3, 25920, Note_on_c, 9, 36, 110
3, 26080, Note_on_c, 9, 36, 0
3, 26304, Note_on_c, 9, 36, 110
3, 26638, Note_on_c, 9, 36, 0
3, 26640, Note_on_c, 9, 36, 110
3, 26686, Note_on_c, 9, 36, 0
3, 26688, Note_on_c, 9, 36, 110
3, 26848, Note_on_c, 9, 36, 0
3, 27072, Note_on_c, 9, 36, 110
3, 27406, Note_on_c, 9, 36, 0
3, 27408, Note_on_c, 9, 36, 110
3, 27454, Note_on_c, 9, 36, 0
3, 27456, Note_on_c, 9, 36, 110
3, 27616, Note_on_c, 9, 36, 0
3, 27840, Note_on_c, 9, 36, 110
3, 28174, Note_on_c, 9, 36, 0
3, 28176, Note_on_c, 9, 36, 110
3, 28222, Note_on_c, 9, 36, 0
3, 28224, Note_on_c, 9, 36, 110
3, 28384, Note_on_c, 9, 36, 0
3, 28608, Note_on_c, 9, 36, 110
3, 28942, Note_on_c, 9, 36, 0
3, 28944, Note_on_c, 9, 36, 110
3, 28990, Note_on_c, 9, 36, 0
3, 28992, Note_on_c, 9, 36, 110
3, 29152, Note_on_c, 9, 36, 0
3, 29376, Note_on_c, 9, 36, 110
3, 29710, Note_on_c, 9, 36, 0
3, 29712, Note_on_c, 9, 36, 110
3, 29758, Note_on_c, 9, 36, 0
3, 29760, Note_on_c, 9, 36, 110
3, 29920, Note_on_c, 9, 36, 0
3, 30144, Note_on_c, 9, 36, 110
3, 30478, Note_on_c, 9, 36, 0
3, 30480, Note_on_c, 9, 36, 110
3, 30526, Note_on_c, 9, 36, 0
3, 30528, Note_on_c, 9, 36, 110
3, 30688, Note_on_c, 9, 36, 0
3, 30912, Note_on_c, 9, 36, 110
3, 31246, Note_on_c, 9, 36, 0
3, 31248, Note_on_c, 9, 36, 110
3, 31294, Note_on_c, 9, 36, 0
3, 31296, Note_on_c, 9, 36, 110
3, 31456, Note_on_c, 9, 36, 0
3, 31680, Note_on_c, 9, 36, 110
3, 32014, Note_on_c, 9, 36, 0
3, 32016, Note_on_c, 9, 36, 110
3, 32062, Note_on_c, 9, 36, 0
3, 32064, Note_on_c, 9, 36, 110
3, 32224, Note_on_c, 9, 36, 0
3, 32448, Note_on_c, 9, 36, 110
3, 32782, Note_on_c, 9, 36, 0
3, 32784, Note_on_c, 9, 36, 110
3, 32830, Note_on_c, 9, 36, 0
3, 32832, Note_on_c, 9, 36, 110
3, 32992, Note_on_c, 9, 36, 0
3, 33216, Note_on_c, 9, 36, 110
3, 33550, Note_on_c, 9, 36, 0
3, 33552, Note_on_c, 9, 36, 110
3, 33598, Note_on_c, 9, 36, 0
3, 33600, Note_on_c, 9, 36, 110
3, 33760, Note_on_c, 9, 36, 0
3, 33984, Note_on_c, 9, 36, 110
3, 34318, Note_on_c, 9, 36, 0
3, 34320, Note_on_c, 9, 36, 110
3, 34366, Note_on_c, 9, 36, 0
3, 34368, Note_on_c, 9, 36, 110
3, 34528, Note_on_c, 9, 36, 0
3, 34752, Note_on_c, 9, 36, 110
3, 35086, Note_on_c, 9, 36, 0
3, 35088, Note_on_c, 9, 36, 110
3, 35134, Note_on_c, 9, 36, 0
3, 35136, Note_on_c, 9, 36, 110
3, 35296, Note_on_c, 9, 36, 0
3, 35520, Note_on_c, 9, 36, 110
3, 35854, Note_on_c, 9, 36, 0
3, 35856, Note_on_c, 9, 36, 110
3, 35902, Note_on_c, 9, 36, 0
3, 35904, Note_on_c, 9, 36, 110
3, 36064, Note_on_c, 9, 36, 0
3, 36288, Note_on_c, 9, 36, 110
3, 36622, Note_on_c, 9, 36, 0
3, 36624, Note_on_c, 9, 36, 110
3, 36670, Note_on_c, 9, 36, 0
3, 36672, Note_on_c, 9, 36, 110
3, 36832, Note_on_c, 9, 36, 0
3, 37056, Note_on_c, 9, 36, 110
3, 37390, Note_on_c, 9, 36, 0
3, 37392, Note_on_c, 9, 36, 110
3, 37438, Note_on_c, 9, 36, 0
3, 37440, Note_on_c, 9, 36, 110
3, 37600, Note_on_c, 9, 36, 0
3, 37824, Note_on_c, 9, 36, 110
3, 38158, Note_on_c, 9, 36, 0
3, 38160, Note_on_c, 9, 36, 110
3, 38206, Note_on_c, 9, 36, 0
3, 38208, Note_on_c, 9, 36, 110
3, 38368, Note_on_c, 9, 36, 0
3, 38592, Note_on_c, 9, 36, 110
3, 38926, Note_on_c, 9, 36, 0
3, 38928, Note_on_c, 9, 36, 110
3, 38974, Note_on_c, 9, 36, 0
3, 38976, Note_on_c, 9, 36, 110
3, 39136, Note_on_c, 9, 36, 0
3, 39360, Note_on_c, 9, 36, 110
3, 39694, Note_on_c, 9, 36, 0
3, 39696, Note_on_c, 9, 36, 110
3, 39742, Note_on_c, 9, 36, 0
3, 39744, Note_on_c, 9, 36, 110
3, 39904, Note_on_c, 9, 36, 0
3, 40128, Note_on_c, 9, 36, 110
3, 40462, Note_on_c, 9, 36, 0
3, 40464, Note_on_c, 9, 36, 110
3, 40510, Note_on_c, 9, 36, 0
3, 40512, Note_on_c, 9, 36, 110
3, 40672, Note_on_c, 9, 36, 0
3, 40896, Note_on_c, 9, 36, 110
3, 41230, Note_on_c, 9, 36, 0
3, 41232, Note_on_c, 9, 36, 110
3, 41278, Note_on_c, 9, 36, 0
3, 41280, Note_on_c, 9, 36, 110
3, 41440, Note_on_c, 9, 36, 0
3, 41664, Note_on_c, 9, 36, 110
3, 41998, Note_on_c, 9, 36, 0
3, 42000, Note_on_c, 9, 36, 110
3, 42046, Note_on_c, 9, 36, 0
3, 42048, Note_on_c, 9, 36, 110
3, 42208, Note_on_c, 9, 36, 0
3, 42432, Note_on_c, 9, 36, 110
3, 42766, Note_on_c, 9, 36, 0
3, 42768, Note_on_c, 9, 36, 110
3, 42814, Note_on_c, 9, 36, 0
3, 42816, Note_on_c, 9, 36, 110
3, 42976, Note_on_c, 9, 36, 0
3, 43200, Note_on_c, 9, 36, 110
3, 43534, Note_on_c, 9, 36, 0
3, 43536, Note_on_c, 9, 36, 110
3, 43582, Note_on_c, 9, 36, 0
3, 43584, Note_on_c, 9, 36, 110
3, 43744, Note_on_c, 9, 36, 0
3, 43968, Note_on_c, 9, 36, 110
3, 44302, Note_on_c, 9, 36, 0
3, 44304, Note_on_c, 9, 36, 110
3, 44350, Note_on_c, 9, 36, 0
3, 44352, Note_on_c, 9, 36, 110
3, 44512, Note_on_c, 9, 36, 0
3, 44736, Note_on_c, 9, 36, 110
3, 45070, Note_on_c, 9, 36, 0
3, 45072, Note_on_c, 9, 36, 110
3, 45118, Note_on_c, 9, 36, 0
3, 45120, Note_on_c, 9, 36, 110
3, 45280, Note_on_c, 9, 36, 0
3, 45504, Note_on_c, 9, 36, 110
3, 45838, Note_on_c, 9, 36, 0
3, 45840, Note_on_c, 9, 36, 110
3, 45886, Note_on_c, 9, 36, 0
3, 45888, Note_on_c, 9, 36, 110
3, 46048, Note_on_c, 9, 36, 0
3, 46272, Note_on_c, 9, 36, 110
3, 46606, Note_on_c, 9, 36, 0
3, 46608, Note_on_c, 9, 36, 110
3, 46654, Note_on_c, 9, 36, 0
3, 46656, Note_on_c, 9, 36, 110
3, 46816, Note_on_c, 9, 36, 0
3, 47040, Note_on_c, 9, 36, 110
3, 47374, Note_on_c, 9, 36, 0
3, 47376, Note_on_c, 9, 36, 110
3, 47422, Note_on_c, 9, 36, 0
3, 47424, Note_on_c, 9, 36, 110
3, 47584, Note_on_c, 9, 36, 0
3, 49344, Note_on_c, 9, 36, 110
3, 49678, Note_on_c, 9, 36, 0
3, 49680, Note_on_c, 9, 36, 110
3, 49726, Note_on_c, 9, 36, 0
3, 49728, Note_on_c, 9, 36, 110
3, 49888, Note_on_c, 9, 36, 0
3, 50112, Note_on_c, 9, 36, 110
3, 50446, Note_on_c, 9, 36, 0
3, 50448, Note_on_c, 9, 36, 110
3, 50494, Note_on_c, 9, 36, 0
3, 50496, Note_on_c, 9, 36, 110
3, 50656, Note_on_c, 9, 36, 0
3, 50880, Note_on_c, 9, 36, 110
3, 51214, Note_on_c, 9, 36, 0
3, 51216, Note_on_c, 9, 36, 110
3, 51262, Note_on_c, 9, 36, 0
3, 51264, Note_on_c, 9, 36, 110
3, 51424, Note_on_c, 9, 36, 0
3, 51648, Note_on_c, 9, 36, 110
3, 51982, Note_on_c, 9, 36, 0
3, 51984, Note_on_c, 9, 36, 110
3, 52030, Note_on_c, 9, 36, 0
3, 52032, Note_on_c, 9, 36, 110
3, 52192, Note_on_c, 9, 36, 0
3, 52416, Note_on_c, 9, 36, 110
3, 52750, Note_on_c, 9, 36, 0
3, 52752, Note_on_c, 9, 36, 110
3, 52798, Note_on_c, 9, 36, 0
3, 52800, Note_on_c, 9, 36, 110
3, 52960, Note_on_c, 9, 36, 0
3, 53184, Note_on_c, 9, 36, 110
3, 53518, Note_on_c, 9, 36, 0
3, 53520, Note_on_c, 9, 36, 110
3, 53566, Note_on_c, 9, 36, 0
3, 53568, Note_on_c, 9, 36, 110
3, 53728, Note_on_c, 9, 36, 0
3, 53952, Note_on_c, 9, 36, 110
3, 54286, Note_on_c, 9, 36, 0
3, 54288, Note_on_c, 9, 36, 110
3, 54334, Note_on_c, 9, 36, 0
3, 54336, Note_on_c, 9, 36, 110
3, 54496, Note_on_c, 9, 36, 0
3, 54720, Note_on_c, 9, 36, 110
3, 55054, Note_on_c, 9, 36, 0
3, 55056, Note_on_c, 9, 36, 110
3, 55102, Note_on_c, 9, 36, 0
3, 55104, Note_on_c, 9, 36, 110
3, 55264, Note_on_c, 9, 36, 0
3, 55488, Note_on_c, 9, 36, 110
3, 55822, Note_on_c, 9, 36, 0
3, 55824, Note_on_c, 9, 36, 110
3, 55870, Note_on_c, 9, 36, 0
3, 55872, Note_on_c, 9, 36, 110
3, 56032, Note_on_c, 9, 36, 0
3, 56256, Note_on_c, 9, 36, 110
3, 56590, Note_on_c, 9, 36, 0
3, 56592, Note_on_c, 9, 36, 110
3, 56638, Note_on_c, 9, 36, 0
3, 56640, Note_on_c, 9, 36, 110
3, 56800, Note_on_c, 9, 36, 0
3, 57024, Note_on_c, 9, 36, 110
3, 57358, Note_on_c, 9, 36, 0
3, 57360, Note_on_c, 9, 36, 110
3, 57406, Note_on_c, 9, 36, 0
3, 57408, Note_on_c, 9, 36, 110
3, 57568, Note_on_c, 9, 36, 0
3, 57792, Note_on_c, 9, 36, 110
3, 58126, Note_on_c, 9, 36, 0
3, 58128, Note_on_c, 9, 36, 110
3, 58174, Note_on_c, 9, 36, 0
3, 58176, Note_on_c, 9, 36, 110
3, 58336, Note_on_c, 9, 36, 0
3, 58560, Note_on_c, 9, 36, 110
3, 58894, Note_on_c, 9, 36, 0
3, 58896, Note_on_c, 9, 36, 110
3, 58942, Note_on_c, 9, 36, 0
3, 58944, Note_on_c, 9, 36, 110
3, 59104, Note_on_c, 9, 36, 0
3, 59328, Note_on_c, 9, 36, 110
3, 59662, Note_on_c, 9, 36, 0
3, 59664, Note_on_c, 9, 36, 110
3, 59710, Note_on_c, 9, 36, 0
3, 59712, Note_on_c, 9, 36, 110
3, 59872, Note_on_c, 9, 36, 0
3, 60096, Note_on_c, 9, 36, 110
3, 60430, Note_on_c, 9, 36, 0
3, 60432, Note_on_c, 9, 36, 110
3, 60478, Note_on_c, 9, 36, 0
3, 60480, Note_on_c, 9, 36, 110
3, 60640, Note_on_c, 9, 36, 0
3, 60864, Note_on_c, 9, 36, 110
3, 61198, Note_on_c, 9, 36, 0
3, 61200, Note_on_c, 9, 36, 110
3, 61246, Note_on_c, 9, 36, 0
3, 61248, Note_on_c, 9, 36, 110
3, 61408, Note_on_c, 9, 36, 0
3, 61632, Note_on_c, 9, 36, 110
3, 61966, Note_on_c, 9, 36, 0
3, 61968, Note_on_c, 9, 36, 110
3, 62014, Note_on_c, 9, 36, 0
3, 62016, Note_on_c, 9, 36, 110
3, 62176, Note_on_c, 9, 36, 0
3, 62400, Note_on_c, 9, 36, 110
3, 62734, Note_on_c, 9, 36, 0
3, 62736, Note_on_c, 9, 36, 110
3, 62782, Note_on_c, 9, 36, 0
3, 62784, Note_on_c, 9, 36, 110
3, 62944, Note_on_c, 9, 36, 0
3, 63168, Note_on_c, 9, 36, 110
3, 63502, Note_on_c, 9, 36, 0
3, 63504, Note_on_c, 9, 36, 110
3, 63550, Note_on_c, 9, 36, 0
3, 63552, Note_on_c, 9, 36, 110
3, 63712, Note_on_c, 9, 36, 0
3, 63936, Note_on_c, 9, 36, 110
3, 64270, Note_on_c, 9, 36, 0
3, 64272, Note_on_c, 9, 36, 110
3, 64318, Note_on_c, 9, 36, 0
3, 64320, Note_on_c, 9, 36, 110
3, 64480, Note_on_c, 9, 36, 0
3, 64704, Note_on_c, 9, 36, 110
3, 65038, Note_on_c, 9, 36, 0
3, 65040, Note_on_c, 9, 36, 110
3, 65086, Note_on_c, 9, 36, 0
3, 65088, Note_on_c, 9, 36, 110
3, 65248, Note_on_c, 9, 36, 0
3, 65472, Note_on_c, 9, 36, 110
3, 65806, Note_on_c, 9, 36, 0
3, 65808, Note_on_c, 9, 36, 110
3, 65854, Note_on_c, 9, 36, 0
3, 65856, Note_on_c, 9, 36, 110
3, 66016, Note_on_c, 9, 36, 0
3, 66016, End_track
4, 0, Start_track
4, 0, MIDI_port, 0
4, 0, Title_t, "(c) 2000 MM3000"
4, 0, Program_c, 10, 24
4, 0, Control_c, 10, 7, 127
4, 0, Control_c, 10, 10, 64
4, 240, Note_on_c, 10, 60, 110
4, 240, Note_on_c, 10, 64, 110
4, 334, Note_on_c, 10, 60, 0
4, 334, Note_on_c, 10, 64, 0
4, 336, Note_on_c, 10, 60, 110
4, 336, Note_on_c, 10, 64, 110
4, 430, Note_on_c, 10, 60, 0
4, 430, Note_on_c, 10, 64, 0
4, 432, Note_on_c, 10, 60, 110
4, 432, Note_on_c, 10, 64, 110
4, 526, Note_on_c, 10, 60, 0
4, 526, Note_on_c, 10, 64, 0
4, 528, Note_on_c, 10, 60, 110
4, 528, Note_on_c, 10, 64, 110
4, 622, Note_on_c, 10, 60, 0
4, 622, Note_on_c, 10, 64, 0
4, 624, Note_on_c, 10, 60, 110
4, 624, Note_on_c, 10, 64, 110
4, 718, Note_on_c, 10, 60, 0
4, 718, Note_on_c, 10, 64, 0
4, 720, Note_on_c, 10, 60, 110
4, 720, Note_on_c, 10, 64, 110
4, 814, Note_on_c, 10, 60, 0
4, 814, Note_on_c, 10, 64, 0
4, 816, Note_on_c, 10, 60, 110
4, 816, Note_on_c, 10, 64, 110
4, 958, Note_on_c, 10, 60, 0
4, 958, Note_on_c, 10, 64, 0
4, 960, Note_on_c, 10, 57, 110
4, 960, Note_on_c, 10, 60, 110
4, 960, Note_on_c, 10, 64, 110
4, 1102, Note_on_c, 10, 57, 0
4, 1102, Note_on_c, 10, 60, 0
4, 1102, Note_on_c, 10, 64, 0
4, 1104, Note_on_c, 10, 59, 110
4, 1198, Note_on_c, 10, 59, 0
4, 1200, Note_on_c, 10, 60, 110
4, 1294, Note_on_c, 10, 60, 0
4, 1296, Note_on_c, 10, 57, 110
4, 1504, Note_on_c, 10, 57, 0
4, 1536, Note_on_c, 10, 62, 110
4, 1630, Note_on_c, 10, 62, 0
4, 1632, Note_on_c, 10, 64, 110
4, 1726, Note_on_c, 10, 64, 0
4, 1728, Note_on_c, 10, 57, 110
4, 1728, Note_on_c, 10, 62, 110
4, 1728, Note_on_c, 10, 65, 110
4, 1870, Note_on_c, 10, 57, 0
4, 1870, Note_on_c, 10, 62, 0
4, 1870, Note_on_c, 10, 65, 0
4, 1872, Note_on_c, 10, 64, 110
4, 1966, Note_on_c, 10, 64, 0
4, 1968, Note_on_c, 10, 65, 110
4, 2062, Note_on_c, 10, 65, 0
4, 2064, Note_on_c, 10, 62, 110
4, 2272, Note_on_c, 10, 62, 0
4, 2304, Note_on_c, 10, 62, 110
4, 2398, Note_on_c, 10, 62, 0
4, 2400, Note_on_c, 10, 64, 110
4, 2494, Note_on_c, 10, 64, 0
4, 2496, Note_on_c, 10, 56, 110
4, 2496, Note_on_c, 10, 59, 110
4, 2496, Note_on_c, 10, 65, 110
4, 2638, Note_on_c, 10, 56, 0
4, 2638, Note_on_c, 10, 59, 0
4, 2638, Note_on_c, 10, 65, 0
4, 2640, Note_on_c, 10, 64, 110
4, 2734, Note_on_c, 10, 64, 0
4, 2736, Note_on_c, 10, 65, 110
4, 2830, Note_on_c, 10, 65, 0
4, 2832, Note_on_c, 10, 64, 110
4, 2832, Note_on_c, 10, 68, 110
4, 2832, Note_on_c, 10, 71, 110
4, 3166, Note_on_c, 10, 64, 0
4, 3166, Note_on_c, 10, 68, 0
4, 3166, Note_on_c, 10, 71, 0
4, 3168, Note_on_c, 10, 60, 110
4, 3214, Note_on_c, 10, 60, 0
4, 3216, Note_on_c, 10, 62, 110
4, 3262, Note_on_c, 10, 62, 0
4, 3264, Note_on_c, 10, 57, 110
4, 3264, Note_on_c, 10, 60, 110
4, 3264, Note_on_c, 10, 64, 110
4, 3406, Note_on_c, 10, 57, 0
4, 3406, Note_on_c, 10, 60, 0
4, 3406, Note_on_c, 10, 64, 0
4, 3408, Note_on_c, 10, 59, 110
4, 3502, Note_on_c, 10, 59, 0
4, 3504, Note_on_c, 10, 60, 110
4, 3598, Note_on_c, 10, 60, 0
4, 3600, Note_on_c, 10, 57, 110
4, 3808, Note_on_c, 10, 57, 0
4, 3840, Note_on_c, 10, 60, 110
4, 3840, Note_on_c, 10, 64, 110
4, 4000, Note_on_c, 10, 60, 0
4, 4000, Note_on_c, 10, 64, 0
4, 4032, Note_on_c, 10, 57, 110
4, 4032, Note_on_c, 10, 60, 110
4, 4032, Note_on_c, 10, 64, 110
4, 4768, Note_on_c, 10, 57, 0
4, 4768, Note_on_c, 10, 60, 0
4, 4768, Note_on_c, 10, 64, 0
4, 4800, Note_on_c, 10, 57, 110
4, 4800, Note_on_c, 10, 60, 110
4, 5136, Note_on_c, 10, 57, 0
4, 5136, Note_on_c, 10, 60, 0
4, 5568, Note_on_c, 10, 53, 110
4, 5568, Note_on_c, 10, 57, 110
4, 5904, Note_on_c, 10, 53, 0
4, 5904, Note_on_c, 10, 57, 0
4, 6336, Note_on_c, 10, 55, 110
4, 6336, Note_on_c, 10, 59, 110
4, 6672, Note_on_c, 10, 55, 0
4, 6672, Note_on_c, 10, 59, 0
4, 7872, Note_on_c, 10, 57, 110
4, 7872, Note_on_c, 10, 60, 110
4, 8208, Note_on_c, 10, 57, 0
4, 8208, Note_on_c, 10, 60, 0
4, 8640, Note_on_c, 10, 53, 110
4, 8640, Note_on_c, 10, 57, 110
4, 8976, Note_on_c, 10, 53, 0
4, 8976, Note_on_c, 10, 57, 0
4, 9408, Note_on_c, 10, 55, 110
4, 9408, Note_on_c, 10, 59, 110
4, 9744, Note_on_c, 10, 55, 0
4, 9744, Note_on_c, 10, 59, 0
4, 10176, Note_on_c, 10, 57, 110
4, 10176, Note_on_c, 10, 60, 110
4, 10176, Note_on_c, 10, 64, 110
4, 10512, Note_on_c, 10, 57, 0
4, 10512, Note_on_c, 10, 60, 0
4, 10512, Note_on_c, 10, 64, 0
4, 10608, Note_on_c, 10, 59, 110
4, 10750, Note_on_c, 10, 59, 0
4, 10752, Note_on_c, 10, 60, 110
4, 10846, Note_on_c, 10, 60, 0
4, 10848, Note_on_c, 10, 59, 110
4, 10942, Note_on_c, 10, 59, 0
4, 10944, Note_on_c, 10, 53, 110
4, 10944, Note_on_c, 10, 57, 110
4, 11104, Note_on_c, 10, 53, 0
4, 11104, Note_on_c, 10, 57, 0
4, 11328, Note_on_c, 10, 53, 110
4, 11328, Note_on_c, 10, 57, 110
4, 11328, Note_on_c, 10, 60, 110
4, 11488, Note_on_c, 10, 53, 0
4, 11488, Note_on_c, 10, 57, 0
4, 11488, Note_on_c, 10, 60, 0
4, 11712, Note_on_c, 10, 55, 110
4, 12048, Note_on_c, 10, 55, 0
4, 12288, Note_on_c, 10, 55, 110
4, 12288, Note_on_c, 10, 60, 110
4, 12288, Note_on_c, 10, 64, 110
4, 12448, Note_on_c, 10, 55, 0
4, 12448, Note_on_c, 10, 60, 0
4, 12448, Note_on_c, 10, 64, 0
4, 12480, Note_on_c, 10, 57, 110
4, 12480, Note_on_c, 10, 62, 110
4, 13216, Note_on_c, 10, 57, 0
4, 13216, Note_on_c, 10, 62, 0
4, 13248, Note_on_c, 10, 58, 110
4, 13248, Note_on_c, 10, 60, 110
4, 13248, Note_on_c, 10, 65, 110
4, 13776, Note_on_c, 10, 58, 0
4, 13776, Note_on_c, 10, 60, 0
4, 13776, Note_on_c, 10, 65, 0
4, 16320, Note_on_c, 10, 58, 110
4, 16320, Note_on_c, 10, 61, 110
4, 16656, Note_on_c, 10, 58, 0
4, 16656, Note_on_c, 10, 61, 0
4, 19392, Note_on_c, 10, 53, 110
4, 19728, Note_on_c, 10, 53, 0
4, 19824, Note_on_c, 10, 58, 110
4, 19824, Note_on_c, 10, 61, 110
4, 19824, Note_on_c, 10, 65, 110
4, 19966, Note_on_c, 10, 58, 0
4, 19966, Note_on_c, 10, 61, 0
4, 19966, Note_on_c, 10, 65, 0
4, 19968, Note_on_c, 10, 56, 110
4, 19968, Note_on_c, 10, 60, 110
4, 19968, Note_on_c, 10, 63, 110
4, 20062, Note_on_c, 10, 56, 0
4, 20062, Note_on_c, 10, 60, 0
4, 20062, Note_on_c, 10, 63, 0
4, 20064, Note_on_c, 10, 54, 110
4, 20064, Note_on_c, 10, 58, 110
4, 20064, Note_on_c, 10, 61, 110
4, 20158, Note_on_c, 10, 54, 0
4, 20158, Note_on_c, 10, 58, 0
4, 20158, Note_on_c, 10, 61, 0
4, 20160, Note_on_c, 10, 53, 110
4, 20160, Note_on_c, 10, 56, 110
4, 20160, Note_on_c, 10, 60, 110
4, 20496, Note_on_c, 10, 53, 0
4, 20496, Note_on_c, 10, 56, 0
4, 20496, Note_on_c, 10, 60, 0
4, 20928, Note_on_c, 10, 56, 110
4, 21264, Note_on_c, 10, 56, 0
4, 21312, Note_on_c, 10, 53, 110
4, 21312, Note_on_c, 10, 58, 110
4, 21312, Note_on_c, 10, 61, 110
4, 21664, Note_on_c, 10, 53, 0
4, 21664, Note_on_c, 10, 58, 0
4, 21664, Note_on_c, 10, 61, 0
4, 21696, Note_on_c, 10, 58, 110
4, 22800, Note_on_c, 10, 58, 0
4, 22848, Note_on_c, 10, 58, 110
4, 22848, Note_on_c, 10, 61, 110
4, 22848, Note_on_c, 10, 65, 110
4, 23110, Note_on_c, 10, 58, 0
4, 23110, Note_on_c, 10, 61, 0
4, 23110, Note_on_c, 10, 65, 0
4, 23112, Note_on_c, 10, 63, 110
4, 23182, Note_on_c, 10, 63, 0
4, 23184, Note_on_c, 10, 61, 110
4, 23230, Note_on_c, 10, 61, 0
4, 23232, Note_on_c, 10, 57, 110
4, 23232, Note_on_c, 10, 60, 110
4, 23568, Note_on_c, 10, 57, 0
4, 23568, Note_on_c, 10, 60, 0
4, 24000, Note_on_c, 10, 53, 110
4, 24000, Note_on_c, 10, 57, 110
4, 24336, Note_on_c, 10, 53, 0
4, 24336, Note_on_c, 10, 57, 0
4, 24768, Note_on_c, 10, 55, 110
4, 24768, Note_on_c, 10, 59, 110
4, 25104, Note_on_c, 10, 55, 0
4, 25104, Note_on_c, 10, 59, 0
4, 26304, Note_on_c, 10, 57, 110
4, 26304, Note_on_c, 10, 60, 110
4, 26640, Note_on_c, 10, 57, 0
4, 26640, Note_on_c, 10, 60, 0
4, 27072, Note_on_c, 10, 53, 110
4, 27072, Note_on_c, 10, 57, 110
4, 27408, Note_on_c, 10, 53, 0
4, 27408, Note_on_c, 10, 57, 0
4, 27840, Note_on_c, 10, 55, 110
4, 27840, Note_on_c, 10, 59, 110
4, 28176, Note_on_c, 10, 55, 0
4, 28176, Note_on_c, 10, 59, 0
4, 28608, Note_on_c, 10, 57, 110
4, 28608, Note_on_c, 10, 60, 110
4, 28608, Note_on_c, 10, 64, 110
4, 28944, Note_on_c, 10, 57, 0
4, 28944, Note_on_c, 10, 60, 0
4, 28944, Note_on_c, 10, 64, 0
4, 29040, Note_on_c, 10, 59, 110
4, 29182, Note_on_c, 10, 59, 0
4, 29184, Note_on_c, 10, 60, 110
4, 29278, Note_on_c, 10, 60, 0
4, 29280, Note_on_c, 10, 59, 110
4, 29374, Note_on_c, 10, 59, 0
4, 29376, Note_on_c, 10, 53, 110
4, 29376, Note_on_c, 10, 57, 110
4, 29536, Note_on_c, 10, 53, 0
4, 29536, Note_on_c, 10, 57, 0
4, 29760, Note_on_c, 10, 53, 110
4, 29760, Note_on_c, 10, 57, 110
4, 29760, Note_on_c, 10, 60, 110
4, 29920, Note_on_c, 10, 53, 0
4, 29920, Note_on_c, 10, 57, 0
4, 29920, Note_on_c, 10, 60, 0
4, 30144, Note_on_c, 10, 55, 110
4, 30480, Note_on_c, 10, 55, 0
4, 30720, Note_on_c, 10, 55, 110
4, 30720, Note_on_c, 10, 60, 110
4, 30720, Note_on_c, 10, 64, 110
4, 30880, Note_on_c, 10, 55, 0
4, 30880, Note_on_c, 10, 60, 0
4, 30880, Note_on_c, 10, 64, 0
4, 30912, Note_on_c, 10, 57, 110
4, 30912, Note_on_c, 10, 62, 110
4, 31648, Note_on_c, 10, 57, 0
4, 31648, Note_on_c, 10, 62, 0
4, 31680, Note_on_c, 10, 58, 110
4, 31680, Note_on_c, 10, 60, 110
4, 31680, Note_on_c, 10, 65, 110
4, 32208, Note_on_c, 10, 58, 0
4, 32208, Note_on_c, 10, 60, 0
4, 32208, Note_on_c, 10, 65, 0
4, 34752, Note_on_c, 10, 58, 110
4, 34752, Note_on_c, 10, 61, 110
4, 35088, Note_on_c, 10, 58, 0
4, 35088, Note_on_c, 10, 61, 0
4, 37824, Note_on_c, 10, 53, 110
4, 38160, Note_on_c, 10, 53, 0
4, 38256, Note_on_c, 10, 58, 110
4, 38256, Note_on_c, 10, 61, 110
4, 38256, Note_on_c, 10, 65, 110
4, 38398, Note_on_c, 10, 58, 0
4, 38398, Note_on_c, 10, 61, 0
4, 38398, Note_on_c, 10, 65, 0
4, 38400, Note_on_c, 10, 56, 110
4, 38400, Note_on_c, 10, 60, 110
4, 38400, Note_on_c, 10, 63, 110
4, 38494, Note_on_c, 10, 56, 0
4, 38494, Note_on_c, 10, 60, 0
4, 38494, Note_on_c, 10, 63, 0
4, 38496, Note_on_c, 10, 54, 110
4, 38496, Note_on_c, 10, 58, 110
4, 38496, Note_on_c, 10, 61, 110
4, 38590, Note_on_c, 10, 54, 0
4, 38590, Note_on_c, 10, 58, 0
4, 38590, Note_on_c, 10, 61, 0
4, 38592, Note_on_c, 10, 53, 110
4, 38592, Note_on_c, 10, 57, 110
4, 38592, Note_on_c, 10, 60, 110
4, 38752, Note_on_c, 10, 53, 0
4, 38752, Note_on_c, 10, 57, 0
4, 38752, Note_on_c, 10, 60, 0
4, 39360, Note_on_c, 10, 54, 110
4, 39696, Note_on_c, 10, 54, 0
4, 39840, Note_on_c, 10, 53, 110
4, 39840, Note_on_c, 10, 58, 110
4, 39840, Note_on_c, 10, 61, 110
4, 40096, Note_on_c, 10, 53, 0
4, 40096, Note_on_c, 10, 58, 0
4, 40096, Note_on_c, 10, 61, 0
4, 40128, Note_on_c, 10, 58, 110
4, 40864, Note_on_c, 10, 58, 0
4, 40896, Note_on_c, 10, 57, 110
4, 40896, Note_on_c, 10, 60, 110
4, 40896, Note_on_c, 10, 65, 110
4, 41038, Note_on_c, 10, 57, 0
4, 41038, Note_on_c, 10, 60, 0
4, 41038, Note_on_c, 10, 65, 0
4, 41040, Note_on_c, 10, 57, 110
4, 41040, Note_on_c, 10, 60, 110
4, 41040, Note_on_c, 10, 65, 110
4, 41182, Note_on_c, 10, 57, 0
4, 41182, Note_on_c, 10, 60, 0
4, 41182, Note_on_c, 10, 65, 0
4, 41184, Note_on_c, 10, 57, 110
4, 41184, Note_on_c, 10, 60, 110
4, 41184, Note_on_c, 10, 65, 110
4, 41278, Note_on_c, 10, 57, 0
4, 41278, Note_on_c, 10, 60, 0
4, 41278, Note_on_c, 10, 65, 0
4, 41280, Note_on_c, 10, 57, 110
4, 41280, Note_on_c, 10, 60, 110
4, 41280, Note_on_c, 10, 65, 110
4, 41440, Note_on_c, 10, 57, 0
4, 41440, Note_on_c, 10, 60, 0
4, 41440, Note_on_c, 10, 65, 0
4, 41664, Note_on_c, 10, 56, 110
4, 41664, Note_on_c, 10, 60, 110
4, 41664, Note_on_c, 10, 62, 110
4, 42000, Note_on_c, 10, 56, 0
4, 42000, Note_on_c, 10, 60, 0
4, 42000, Note_on_c, 10, 62, 0
4, 42048, Note_on_c, 10, 56, 110
4, 42048, Note_on_c, 10, 62, 110
4, 42400, Note_on_c, 10, 56, 0
4, 42400, Note_on_c, 10, 62, 0
4, 42432, Note_on_c, 10, 57, 110
4, 42432, Note_on_c, 10, 60, 110
4, 42432, Note_on_c, 10, 64, 110
4, 43168, Note_on_c, 10, 57, 0
4, 43168, Note_on_c, 10, 60, 0
4, 43168, Note_on_c, 10, 64, 0
4, 43968, Note_on_c, 10, 57, 110
4, 43968, Note_on_c, 10, 60, 110
4, 43968, Note_on_c, 10, 65, 110
4, 44110, Note_on_c, 10, 57, 0
4, 44110, Note_on_c, 10, 60, 0
4, 44110, Note_on_c, 10, 65, 0
4, 44112, Note_on_c, 10, 57, 110
4, 44112, Note_on_c, 10, 60, 110
4, 44112, Note_on_c, 10, 65, 110
4, 44206, Note_on_c, 10, 57, 0
4, 44206, Note_on_c, 10, 60, 0
4, 44206, Note_on_c, 10, 65, 0
4, 44208, Note_on_c, 10, 57, 110
4, 44208, Note_on_c, 10, 60, 110
4, 44208, Note_on_c, 10, 65, 110
4, 44302, Note_on_c, 10, 57, 0
4, 44302, Note_on_c, 10, 60, 0
4, 44302, Note_on_c, 10, 65, 0
4, 44304, Note_on_c, 10, 57, 110
4, 44304, Note_on_c, 10, 60, 110
4, 44304, Note_on_c, 10, 65, 110
4, 44512, Note_on_c, 10, 57, 0
4, 44512, Note_on_c, 10, 60, 0
4, 44512, Note_on_c, 10, 65, 0
4, 44736, Note_on_c, 10, 56, 110
4, 44736, Note_on_c, 10, 60, 110
4, 45072, Note_on_c, 10, 56, 0
4, 45072, Note_on_c, 10, 60, 0
4, 47808, Note_on_c, 10, 65, 110
4, 47808, Note_on_c, 10, 70, 110
4, 47808, Note_on_c, 10, 72, 110
4, 49104, Note_on_c, 10, 65, 0
4, 49104, Note_on_c, 10, 70, 0
4, 49104, Note_on_c, 10, 72, 0
4, 51648, Note_on_c, 10, 58, 110
4, 51648, Note_on_c, 10, 61, 110
4, 51984, Note_on_c, 10, 58, 0
4, 51984, Note_on_c, 10, 61, 0
4, 54720, Note_on_c, 10, 53, 110
4, 55056, Note_on_c, 10, 53, 0
4, 55152, Note_on_c, 10, 58, 110
4, 55152, Note_on_c, 10, 61, 110
4, 55152, Note_on_c, 10, 65, 110
4, 55294, Note_on_c, 10, 58, 0
4, 55294, Note_on_c, 10, 61, 0
4, 55294, Note_on_c, 10, 65, 0
4, 55296, Note_on_c, 10, 56, 110
4, 55296, Note_on_c, 10, 60, 110
4, 55296, Note_on_c, 10, 63, 110
4, 55390, Note_on_c, 10, 56, 0
4, 55390, Note_on_c, 10, 60, 0
4, 55390, Note_on_c, 10, 63, 0
4, 55392, Note_on_c, 10, 54, 110
4, 55392, Note_on_c, 10, 58, 110
4, 55392, Note_on_c, 10, 61, 110
4, 55486, Note_on_c, 10, 54, 0
4, 55486, Note_on_c, 10, 58, 0
4, 55486, Note_on_c, 10, 61, 0
4, 55488, Note_on_c, 10, 56, 110
4, 55824, Note_on_c, 10, 56, 0
4, 55872, Note_on_c, 10, 53, 110
4, 55872, Note_on_c, 10, 58, 110
4, 55872, Note_on_c, 10, 61, 110
4, 56224, Note_on_c, 10, 53, 0
4, 56224, Note_on_c, 10, 58, 0
4, 56224, Note_on_c, 10, 61, 0
4, 57120, Note_on_c, 10, 65, 110
4, 57166, Note_on_c, 10, 65, 0
4, 57168, Note_on_c, 10, 68, 110
4, 57262, Note_on_c, 10, 68, 0
4, 57264, Note_on_c, 10, 63, 110
4, 57310, Note_on_c, 10, 63, 0
4, 57312, Note_on_c, 10, 65, 110
4, 57550, Note_on_c, 10, 65, 0
4, 57552, Note_on_c, 10, 61, 110
4, 57598, Note_on_c, 10, 61, 0
4, 57600, Note_on_c, 10, 63, 110
4, 57646, Note_on_c, 10, 63, 0
4, 57648, Note_on_c, 10, 61, 110
4, 57694, Note_on_c, 10, 61, 0
4, 57696, Note_on_c, 10, 60, 110
4, 57742, Note_on_c, 10, 60, 0
4, 57744, Note_on_c, 10, 58, 110
4, 57790, Note_on_c, 10, 58, 0
4, 57792, Note_on_c, 10, 58, 110
4, 57886, Note_on_c, 10, 58, 0
4, 57888, Note_on_c, 10, 61, 110
4, 57888, Note_on_c, 10, 65, 110
4, 57888, Note_on_c, 10, 70, 110
4, 57934, Note_on_c, 10, 61, 0
4, 57934, Note_on_c, 10, 65, 0
4, 57934, Note_on_c, 10, 70, 0
4, 57936, Note_on_c, 10, 61, 110
4, 57936, Note_on_c, 10, 65, 110
4, 57936, Note_on_c, 10, 70, 110
4, 57982, Note_on_c, 10, 61, 0
4, 57982, Note_on_c, 10, 65, 0
4, 57982, Note_on_c, 10, 70, 0
4, 57984, Note_on_c, 10, 61, 110
4, 57984, Note_on_c, 10, 65, 110
4, 57984, Note_on_c, 10, 70, 110
4, 58078, Note_on_c, 10, 61, 0
4, 58078, Note_on_c, 10, 65, 0
4, 58078, Note_on_c, 10, 70, 0
4, 58080, Note_on_c, 10, 61, 110
4, 58080, Note_on_c, 10, 65, 110
4, 58080, Note_on_c, 10, 70, 110
4, 58126, Note_on_c, 10, 61, 0
4, 58126, Note_on_c, 10, 65, 0
4, 58126, Note_on_c, 10, 70, 0
4, 58128, Note_on_c, 10, 61, 110
4, 58128, Note_on_c, 10, 65, 110
4, 58128, Note_on_c, 10, 70, 110
4, 58270, Note_on_c, 10, 61, 0
4, 58270, Note_on_c, 10, 65, 0
4, 58270, Note_on_c, 10, 70, 0
4, 58272, Note_on_c, 10, 65, 110
4, 58318, Note_on_c, 10, 65, 0
4, 58320, Note_on_c, 10, 68, 110
4, 58414, Note_on_c, 10, 68, 0
4, 58416, Note_on_c, 10, 70, 110
4, 58558, Note_on_c, 10, 70, 0
4, 58656, Note_on_c, 10, 61, 110
4, 58656, Note_on_c, 10, 65, 110
4, 58656, Note_on_c, 10, 70, 110
4, 58702, Note_on_c, 10, 61, 0
4, 58702, Note_on_c, 10, 65, 0
4, 58702, Note_on_c, 10, 70, 0
4, 58704, Note_on_c, 10, 61, 110
4, 58704, Note_on_c, 10, 65, 110
4, 58704, Note_on_c, 10, 70, 110
4, 58750, Note_on_c, 10, 61, 0
4, 58750, Note_on_c, 10, 65, 0
4, 58750, Note_on_c, 10, 70, 0
4, 58752, Note_on_c, 10, 61, 110
4, 58752, Note_on_c, 10, 65, 110
4, 58752, Note_on_c, 10, 70, 110
4, 58846, Note_on_c, 10, 61, 0
4, 58846, Note_on_c, 10, 65, 0
4, 58846, Note_on_c, 10, 70, 0
4, 58848, Note_on_c, 10, 70, 110
4, 58894, Note_on_c, 10, 70, 0
4, 58896, Note_on_c, 10, 65, 110
4, 58896, Note_on_c, 10, 70, 110
4, 58896, Note_on_c, 10, 73, 110
4, 58990, Note_on_c, 10, 65, 0
4, 58990, Note_on_c, 10, 70, 0
4, 58990, Note_on_c, 10, 73, 0
4, 58992, Note_on_c, 10, 72, 110
4, 59086, Note_on_c, 10, 72, 0
4, 59088, Note_on_c, 10, 65, 110
4, 59088, Note_on_c, 10, 70, 110
4, 59182, Note_on_c, 10, 65, 0
4, 59182, Note_on_c, 10, 70, 0
4, 59184, Note_on_c, 10, 68, 110
4, 59326, Note_on_c, 10, 68, 0
4, 59328, Note_on_c, 10, 61, 110
4, 59328, Note_on_c, 10, 65, 110
4, 59328, Note_on_c, 10, 70, 110
4, 59664, Note_on_c, 10, 61, 0
4, 59664, Note_on_c, 10, 65, 0
4, 59664, Note_on_c, 10, 70, 0
4, 59712, Note_on_c, 10, 61, 110
4, 59712, Note_on_c, 10, 65, 110
4, 59712, Note_on_c, 10, 70, 110
4, 60064, Note_on_c, 10, 61, 0
4, 60064, Note_on_c, 10, 65, 0
4, 60064, Note_on_c, 10, 70, 0
4, 60096, Note_on_c, 10, 61, 110
4, 60096, Note_on_c, 10, 65, 110
4, 60096, Note_on_c, 10, 70, 110
4, 60432, Note_on_c, 10, 61, 0
4, 60432, Note_on_c, 10, 65, 0
4, 60432, Note_on_c, 10, 70, 0
4, 60480, Note_on_c, 10, 60, 110
4, 60480, Note_on_c, 10, 65, 110
4, 60480, Note_on_c, 10, 69, 110
4, 60832, Note_on_c, 10, 60, 0
4, 60832, Note_on_c, 10, 65, 0
4, 60832, Note_on_c, 10, 69, 0
4, 60960, Note_on_c, 10, 61, 110
4, 60960, Note_on_c, 10, 65, 110
4, 60960, Note_on_c, 10, 70, 110
4, 61006, Note_on_c, 10, 61, 0
4, 61006, Note_on_c, 10, 65, 0
4, 61006, Note_on_c, 10, 70, 0
4, 61008, Note_on_c, 10, 61, 110
4, 61008, Note_on_c, 10, 65, 110
4, 61008, Note_on_c, 10, 70, 110
4, 61054, Note_on_c, 10, 61, 0
4, 61054, Note_on_c, 10, 65, 0
4, 61054, Note_on_c, 10, 70, 0
4, 61056, Note_on_c, 10, 61, 110
4, 61056, Note_on_c, 10, 65, 110
4, 61056, Note_on_c, 10, 70, 110
4, 61150, Note_on_c, 10, 61, 0
4, 61150, Note_on_c, 10, 65, 0
4, 61150, Note_on_c, 10, 70, 0
4, 61152, Note_on_c, 10, 61, 110
4, 61152, Note_on_c, 10, 65, 110
4, 61152, Note_on_c, 10, 70, 110
4, 61198, Note_on_c, 10, 61, 0
4, 61198, Note_on_c, 10, 65, 0
4, 61198, Note_on_c, 10, 70, 0
4, 61200, Note_on_c, 10, 61, 110
4, 61200, Note_on_c, 10, 65, 110
4, 61200, Note_on_c, 10, 70, 110
4, 61342, Note_on_c, 10, 61, 0
4, 61342, Note_on_c, 10, 65, 0
4, 61342, Note_on_c, 10, 70, 0
4, 61344, Note_on_c, 10, 65, 110
4, 61390, Note_on_c, 10, 65, 0
4, 61392, Note_on_c, 10, 68, 110
4, 61486, Note_on_c, 10, 68, 0
4, 61488, Note_on_c, 10, 70, 110
4, 61630, Note_on_c, 10, 70, 0
4, 61632, Note_on_c, 10, 61, 110
4, 61632, Note_on_c, 10, 65, 110
4, 61632, Note_on_c, 10, 70, 110
4, 61968, Note_on_c, 10, 61, 0
4, 61968, Note_on_c, 10, 65, 0
4, 61968, Note_on_c, 10, 70, 0
4, 62016, Note_on_c, 10, 61, 110
4, 62016, Note_on_c, 10, 65, 110
4, 62016, Note_on_c, 10, 70, 110
4, 62368, Note_on_c, 10, 61, 0
4, 62368, Note_on_c, 10, 65, 0
4, 62368, Note_on_c, 10, 70, 0
4, 62496, Note_on_c, 10, 61, 110
4, 62496, Note_on_c, 10, 65, 110
4, 62496, Note_on_c, 10, 70, 110
4, 62542, Note_on_c, 10, 61, 0
4, 62542, Note_on_c, 10, 65, 0
4, 62542, Note_on_c, 10, 70, 0
4, 62544, Note_on_c, 10, 61, 110
4, 62544, Note_on_c, 10, 65, 110
4, 62544, Note_on_c, 10, 70, 110
4, 62590, Note_on_c, 10, 61, 0
4, 62590, Note_on_c, 10, 65, 0
4, 62590, Note_on_c, 10, 70, 0
4, 62592, Note_on_c, 10, 61, 110
4, 62592, Note_on_c, 10, 65, 110
4, 62592, Note_on_c, 10, 70, 110
4, 62686, Note_on_c, 10, 61, 0
4, 62686, Note_on_c, 10, 65, 0
4, 62686, Note_on_c, 10, 70, 0
4, 62688, Note_on_c, 10, 61, 110
4, 62688, Note_on_c, 10, 65, 110
4, 62688, Note_on_c, 10, 70, 110
4, 62734, Note_on_c, 10, 61, 0
4, 62734, Note_on_c, 10, 65, 0
4, 62734, Note_on_c, 10, 70, 0
4, 62736, Note_on_c, 10, 61, 110
4, 62736, Note_on_c, 10, 65, 110
4, 62736, Note_on_c, 10, 70, 110
4, 62878, Note_on_c, 10, 61, 0
4, 62878, Note_on_c, 10, 65, 0
4, 62878, Note_on_c, 10, 70, 0
4, 62880, Note_on_c, 10, 65, 110
4, 62926, Note_on_c, 10, 65, 0
4, 62928, Note_on_c, 10, 68, 110
4, 63022, Note_on_c, 10, 68, 0
4, 63024, Note_on_c, 10, 70, 110
4, 63166, Note_on_c, 10, 70, 0
4, 63168, Note_on_c, 10, 61, 110
4, 63168, Note_on_c, 10, 65, 110
4, 63168, Note_on_c, 10, 70, 110
4, 63504, Note_on_c, 10, 61, 0
4, 63504, Note_on_c, 10, 65, 0
4, 63504, Note_on_c, 10, 70, 0
4, 63552, Note_on_c, 10, 60, 110
4, 63552, Note_on_c, 10, 65, 110
4, 63552, Note_on_c, 10, 69, 110
4, 63904, Note_on_c, 10, 60, 0
4, 63904, Note_on_c, 10, 65, 0
4, 63904, Note_on_c, 10, 69, 0
4, 63936, Note_on_c, 10, 61, 110
4, 63936, Note_on_c, 10, 65, 110
4, 63936, Note_on_c, 10, 70, 110
4, 64272, Note_on_c, 10, 61, 0
4, 64272, Note_on_c, 10, 65, 0
4, 64272, Note_on_c, 10, 70, 0
4, 64320, Note_on_c, 10, 63, 110
4, 64320, Note_on_c, 10, 72, 110
4, 64462, Note_on_c, 10, 63, 0
4, 64462, Note_on_c, 10, 72, 0
4, 64464, Note_on_c, 10, 65, 110
4, 64464, Note_on_c, 10, 73, 110
4, 64606, Note_on_c, 10, 65, 0
4, 64606, Note_on_c, 10, 73, 0
4, 64608, Note_on_c, 10, 63, 110
4, 64608, Note_on_c, 10, 72, 110
4, 64702, Note_on_c, 10, 63, 0
4, 64702, Note_on_c, 10, 72, 0
4, 65472, Note_on_c, 10, 58, 110
4, 65472, Note_on_c, 10, 61, 110
4, 65472, Note_on_c, 10, 65, 110
4, 65808, Note_on_c, 10, 58, 0
4, 65808, Note_on_c, 10, 61, 0
4, 65808, Note_on_c, 10, 65, 0
4, 65808, End_track
5, 0, Start_track
5, 0, MIDI_port, 0
5, 0, Title_t, "geocities.com/~lbb/"
5, 0, Program_c, 11, 35
5, 0, Control_c, 11, 7, 127
5, 0, Control_c, 11, 10, 64
5, 48, Note_on_c, 11, 40, 110
5, 94, Note_on_c, 11, 40, 0
5, 96, Note_on_c, 11, 48, 110
5, 142, Note_on_c, 11, 48, 0
5, 144, Note_on_c, 11, 47, 110
5, 190, Note_on_c, 11, 47, 0
5, 192, Note_on_c, 11, 45, 110
5, 526, Note_on_c, 11, 45, 0
5, 528, Note_on_c, 11, 45, 110
5, 574, Note_on_c, 11, 45, 0
5, 576, Note_on_c, 11, 45, 110
5, 736, Note_on_c, 11, 45, 0
5, 768, Note_on_c, 11, 40, 110
5, 928, Note_on_c, 11, 40, 0
5, 960, Note_on_c, 11, 45, 110
5, 1294, Note_on_c, 11, 45, 0
5, 1296, Note_on_c, 11, 45, 110
5, 1342, Note_on_c, 11, 45, 0
5, 1344, Note_on_c, 11, 45, 110
5, 1696, Note_on_c, 11, 45, 0
5, 1728, Note_on_c, 11, 38, 110
5, 2062, Note_on_c, 11, 38, 0
5, 2064, Note_on_c, 11, 38, 110
5, 2110, Note_on_c, 11, 38, 0
5, 2112, Note_on_c, 11, 38, 110
5, 2464, Note_on_c, 11, 38, 0
5, 2496, Note_on_c, 11, 40, 110
5, 2830, Note_on_c, 11, 40, 0
5, 2832, Note_on_c, 11, 40, 110
5, 2878, Note_on_c, 11, 40, 0
5, 2880, Note_on_c, 11, 40, 110
5, 3232, Note_on_c, 11, 40, 0
5, 3264, Note_on_c, 11, 45, 110
5, 3598, Note_on_c, 11, 45, 0
5, 3600, Note_on_c, 11, 45, 110
5, 3646, Note_on_c, 11, 45, 0
5, 3648, Note_on_c, 11, 45, 110
5, 3808, Note_on_c, 11, 45, 0
5, 3840, Note_on_c, 11, 40, 110
5, 4000, Note_on_c, 11, 40, 0
5, 4032, Note_on_c, 11, 45, 110
5, 4768, Note_on_c, 11, 45, 0
5, 4800, Note_on_c, 11, 45, 110
5, 5134, Note_on_c, 11, 45, 0
5, 5136, Note_on_c, 11, 45, 110
5, 5182, Note_on_c, 11, 45, 0
5, 5184, Note_on_c, 11, 45, 110
5, 5536, Note_on_c, 11, 45, 0
5, 5568, Note_on_c, 11, 38, 110
5, 5902, Note_on_c, 11, 38, 0
5, 5904, Note_on_c, 11, 38, 110
5, 5950, Note_on_c, 11, 38, 0
5, 5952, Note_on_c, 11, 38, 110
5, 6304, Note_on_c, 11, 38, 0
5, 6336, Note_on_c, 11, 43, 110
5, 6670, Note_on_c, 11, 43, 0
5, 6672, Note_on_c, 11, 43, 110
5, 6718, Note_on_c, 11, 43, 0
5, 6720, Note_on_c, 11, 43, 110
5, 7072, Note_on_c, 11, 43, 0
5, 7104, Note_on_c, 11, 41, 110
5, 7438, Note_on_c, 11, 41, 0
5, 7440, Note_on_c, 11, 41, 110
5, 7486, Note_on_c, 11, 41, 0
5, 7488, Note_on_c, 11, 41, 110
5, 7582, Note_on_c, 11, 41, 0
5, 7584, Note_on_c, 11, 41, 110
5, 7774, Note_on_c, 11, 41, 0
5, 7776, Note_on_c, 11, 41, 110
5, 7870, Note_on_c, 11, 41, 0
5, 7872, Note_on_c, 11, 45, 110
5, 8206, Note_on_c, 11, 45, 0
5, 8208, Note_on_c, 11, 45, 110
5, 8254, Note_on_c, 11, 45, 0
5, 8256, Note_on_c, 11, 45, 110
5, 8608, Note_on_c, 11, 45, 0
5, 8640, Note_on_c, 11, 38, 110
5, 8974, Note_on_c, 11, 38, 0
5, 8976, Note_on_c, 11, 38, 110
5, 9022, Note_on_c, 11, 38, 0
5, 9024, Note_on_c, 11, 38, 110
5, 9376, Note_on_c, 11, 38, 0
5, 9408, Note_on_c, 11, 43, 110
5, 9742, Note_on_c, 11, 43, 0
5, 9744, Note_on_c, 11, 43, 110
5, 9790, Note_on_c, 11, 43, 0
5, 9792, Note_on_c, 11, 43, 110
5, 10144, Note_on_c, 11, 43, 0
5, 10176, Note_on_c, 11, 41, 110
5, 10510, Note_on_c, 11, 41, 0
5, 10512, Note_on_c, 11, 41, 110
5, 10558, Note_on_c, 11, 41, 0
5, 10560, Note_on_c, 11, 41, 110
5, 10654, Note_on_c, 11, 41, 0
5, 10656, Note_on_c, 11, 41, 110
5, 10846, Note_on_c, 11, 41, 0
5, 10848, Note_on_c, 11, 40, 110
5, 10942, Note_on_c, 11, 40, 0
5, 10944, Note_on_c, 11, 38, 110
5, 11278, Note_on_c, 11, 38, 0
5, 11280, Note_on_c, 11, 38, 110
5, 11326, Note_on_c, 11, 38, 0
5, 11328, Note_on_c, 11, 38, 110
5, 11680, Note_on_c, 11, 38, 0
5, 11712, Note_on_c, 11, 40, 110
5, 12046, Note_on_c, 11, 40, 0
5, 12048, Note_on_c, 11, 40, 110
5, 12094, Note_on_c, 11, 40, 0
5, 12096, Note_on_c, 11, 40, 110
5, 12190, Note_on_c, 11, 40, 0
5, 12192, Note_on_c, 11, 40, 110
5, 12448, Note_on_c, 11, 40, 0
5, 12480, Note_on_c, 11, 38, 110
5, 12814, Note_on_c, 11, 38, 0
5, 12816, Note_on_c, 11, 38, 110
5, 12862, Note_on_c, 11, 38, 0
5, 12864, Note_on_c, 11, 38, 110
5, 13216, Note_on_c, 11, 38, 0
5, 13248, Note_on_c, 11, 38, 110
5, 13582, Note_on_c, 11, 38, 0
5, 13584, Note_on_c, 11, 38, 110
5, 13630, Note_on_c, 11, 38, 0
5, 13632, Note_on_c, 11, 38, 110
5, 13726, Note_on_c, 11, 38, 0
5, 13728, Note_on_c, 11, 38, 110
5, 13984, Note_on_c, 11, 38, 0
5, 14016, Note_on_c, 11, 46, 110
5, 14176, Note_on_c, 11, 46, 0
5, 14208, Note_on_c, 11, 39, 110
5, 14368, Note_on_c, 11, 39, 0
5, 14400, Note_on_c, 11, 46, 110
5, 14560, Note_on_c, 11, 46, 0
5, 14592, Note_on_c, 11, 37, 110
5, 14752, Note_on_c, 11, 37, 0
5, 14784, Note_on_c, 11, 39, 110
5, 14944, Note_on_c, 11, 39, 0
5, 14976, Note_on_c, 11, 46, 110
5, 15136, Note_on_c, 11, 46, 0
5, 15168, Note_on_c, 11, 39, 110
5, 15328, Note_on_c, 11, 39, 0
5, 15360, Note_on_c, 11, 42, 110
5, 15520, Note_on_c, 11, 42, 0
5, 15552, Note_on_c, 11, 44, 110
5, 15712, Note_on_c, 11, 44, 0
5, 15744, Note_on_c, 11, 39, 110
5, 15904, Note_on_c, 11, 39, 0
5, 15936, Note_on_c, 11, 44, 110
5, 16096, Note_on_c, 11, 44, 0
5, 16128, Note_on_c, 11, 39, 110
5, 16288, Note_on_c, 11, 39, 0
5, 16320, Note_on_c, 11, 42, 110
5, 16656, Note_on_c, 11, 42, 0
5, 16704, Note_on_c, 11, 41, 110
5, 16798, Note_on_c, 11, 41, 0
5, 16800, Note_on_c, 11, 39, 110
5, 16894, Note_on_c, 11, 39, 0
5, 16896, Note_on_c, 11, 37, 110
5, 16990, Note_on_c, 11, 37, 0
5, 16992, Note_on_c, 11, 36, 110
5, 17086, Note_on_c, 11, 36, 0
5, 17088, Note_on_c, 11, 34, 110
5, 17248, Note_on_c, 11, 34, 0
5, 17280, Note_on_c, 11, 41, 110
5, 17440, Note_on_c, 11, 41, 0
5, 17472, Note_on_c, 11, 46, 110
5, 17632, Note_on_c, 11, 46, 0
5, 17664, Note_on_c, 11, 37, 110
5, 17824, Note_on_c, 11, 37, 0
5, 17856, Note_on_c, 11, 39, 110
5, 18016, Note_on_c, 11, 39, 0
5, 18048, Note_on_c, 11, 46, 110
5, 18208, Note_on_c, 11, 46, 0
5, 18240, Note_on_c, 11, 39, 110
5, 18400, Note_on_c, 11, 39, 0
5, 18432, Note_on_c, 11, 42, 110
5, 18592, Note_on_c, 11, 42, 0
5, 18624, Note_on_c, 11, 41, 110
5, 18784, Note_on_c, 11, 41, 0
5, 18816, Note_on_c, 11, 36, 110
5, 18976, Note_on_c, 11, 36, 0
5, 19008, Note_on_c, 11, 41, 110
5, 19168, Note_on_c, 11, 41, 0
5, 19200, Note_on_c, 11, 41, 110
5, 19360, Note_on_c, 11, 41, 0
5, 19392, Note_on_c, 11, 46, 110
5, 19552, Note_on_c, 11, 46, 0
5, 19584, Note_on_c, 11, 41, 110
5, 19744, Note_on_c, 11, 41, 0
5, 19776, Note_on_c, 11, 46, 110
5, 19822, Note_on_c, 11, 46, 0
5, 19824, Note_on_c, 11, 46, 110
5, 19966, Note_on_c, 11, 46, 0
5, 19968, Note_on_c, 11, 44, 110
5, 20062, Note_on_c, 11, 44, 0
5, 20064, Note_on_c, 11, 42, 110
5, 20158, Note_on_c, 11, 42, 0
5, 20160, Note_on_c, 11, 41, 110
5, 20320, Note_on_c, 11, 41, 0
5, 20352, Note_on_c, 11, 36, 110
5, 20512, Note_on_c, 11, 36, 0
5, 20544, Note_on_c, 11, 41, 110
5, 20704, Note_on_c, 11, 41, 0
5, 20736, Note_on_c, 11, 41, 110
5, 20896, Note_on_c, 11, 41, 0
5, 20928, Note_on_c, 11, 46, 110
5, 21088, Note_on_c, 11, 46, 0
5, 21120, Note_on_c, 11, 41, 110
5, 21280, Note_on_c, 11, 41, 0
5, 21312, Note_on_c, 11, 46, 110
5, 21454, Note_on_c, 11, 46, 0
5, 21456, Note_on_c, 11, 46, 110
5, 21502, Note_on_c, 11, 46, 0
5, 21504, Note_on_c, 11, 41, 110
5, 21664, Note_on_c, 11, 41, 0
5, 21696, Note_on_c, 11, 46, 110
5, 21856, Note_on_c, 11, 46, 0
5, 21888, Note_on_c, 11, 41, 110
5, 22030, Note_on_c, 11, 41, 0
5, 22032, Note_on_c, 11, 41, 110
5, 22078, Note_on_c, 11, 41, 0
5, 22080, Note_on_c, 11, 49, 110
5, 22126, Note_on_c, 11, 49, 0
5, 22128, Note_on_c, 11, 41, 110
5, 22174, Note_on_c, 11, 41, 0
5, 22176, Note_on_c, 11, 48, 110
5, 22222, Note_on_c, 11, 48, 0
5, 22224, Note_on_c, 11, 41, 110
5, 22270, Note_on_c, 11, 41, 0
5, 22272, Note_on_c, 11, 46, 110
5, 22366, Note_on_c, 11, 46, 0
5, 22368, Note_on_c, 11, 41, 110
5, 22462, Note_on_c, 11, 41, 0
5, 22464, Note_on_c, 11, 34, 110
5, 23200, Note_on_c, 11, 34, 0
5, 23232, Note_on_c, 11, 45, 110
5, 23566, Note_on_c, 11, 45, 0
5, 23568, Note_on_c, 11, 45, 110
5, 23614, Note_on_c, 11, 45, 0
5, 23616, Note_on_c, 11, 45, 110
5, 23968, Note_on_c, 11, 45, 0
5, 24000, Note_on_c, 11, 38, 110
5, 24334, Note_on_c, 11, 38, 0
5, 24336, Note_on_c, 11, 38, 110
5, 24382, Note_on_c, 11, 38, 0
5, 24384, Note_on_c, 11, 38, 110
5, 24736, Note_on_c, 11, 38, 0
5, 24768, Note_on_c, 11, 43, 110
5, 25102, Note_on_c, 11, 43, 0
5, 25104, Note_on_c, 11, 43, 110
5, 25150, Note_on_c, 11, 43, 0
5, 25152, Note_on_c, 11, 43, 110
5, 25504, Note_on_c, 11, 43, 0
5, 25536, Note_on_c, 11, 41, 110
5, 25870, Note_on_c, 11, 41, 0
5, 25872, Note_on_c, 11, 41, 110
5, 25918, Note_on_c, 11, 41, 0
5, 25920, Note_on_c, 11, 41, 110
5, 26014, Note_on_c, 11, 41, 0
5, 26016, Note_on_c, 11, 41, 110
5, 26206, Note_on_c, 11, 41, 0
5, 26208, Note_on_c, 11, 41, 110
5, 26302, Note_on_c, 11, 41, 0
5, 26304, Note_on_c, 11, 45, 110
5, 26638, Note_on_c, 11, 45, 0
5, 26640, Note_on_c, 11, 45, 110
5, 26686, Note_on_c, 11, 45, 0
5, 26688, Note_on_c, 11, 45, 110
5, 27040, Note_on_c, 11, 45, 0
5, 27072, Note_on_c, 11, 38, 110
5, 27406, Note_on_c, 11, 38, 0
5, 27408, Note_on_c, 11, 38, 110
5, 27454, Note_on_c, 11, 38, 0
5, 27456, Note_on_c, 11, 38, 110
5, 27808, Note_on_c, 11, 38, 0
5, 27840, Note_on_c, 11, 43, 110
5, 28174, Note_on_c, 11, 43, 0
5, 28176, Note_on_c, 11, 43, 110
5, 28222, Note_on_c, 11, 43, 0
5, 28224, Note_on_c, 11, 43, 110
5, 28576, Note_on_c, 11, 43, 0
5, 28608, Note_on_c, 11, 41, 110
5, 28942, Note_on_c, 11, 41, 0
5, 28944, Note_on_c, 11, 41, 110
5, 28990, Note_on_c, 11, 41, 0
5, 28992, Note_on_c, 11, 41, 110
5, 29086, Note_on_c, 11, 41, 0
5, 29088, Note_on_c, 11, 41, 110
5, 29278, Note_on_c, 11, 41, 0
5, 29280, Note_on_c, 11, 40, 110
5, 29374, Note_on_c, 11, 40, 0
5, 29376, Note_on_c, 11, 38, 110
5, 29710, Note_on_c, 11, 38, 0
5, 29712, Note_on_c, 11, 38, 110
5, 29758, Note_on_c, 11, 38, 0
5, 29760, Note_on_c, 11, 38, 110
5, 30112, Note_on_c, 11, 38, 0
5, 30144, Note_on_c, 11, 40, 110
5, 30478, Note_on_c, 11, 40, 0
5, 30480, Note_on_c, 11, 40, 110
5, 30526, Note_on_c, 11, 40, 0
5, 30528, Note_on_c, 11, 40, 110
5, 30622, Note_on_c, 11, 40, 0
5, 30624, Note_on_c, 11, 40, 110
5, 30880, Note_on_c, 11, 40, 0
5, 30912, Note_on_c, 11, 38, 110
5, 31246, Note_on_c, 11, 38, 0
5, 31248, Note_on_c, 11, 38, 110
5, 31294, Note_on_c, 11, 38, 0
5, 31296, Note_on_c, 11, 38, 110
5, 31648, Note_on_c, 11, 38, 0
5, 31680, Note_on_c, 11, 38, 110
5, 32014, Note_on_c, 11, 38, 0
5, 32016, Note_on_c, 11, 38, 110
5, 32062, Note_on_c, 11, 38, 0
5, 32064, Note_on_c, 11, 38, 110
5, 32158, Note_on_c, 11, 38, 0
5, 32160, Note_on_c, 11, 38, 110
5, 32416, Note_on_c, 11, 38, 0
5, 32448, Note_on_c, 11, 46, 110
5, 32608, Note_on_c, 11, 46, 0
5, 32640, Note_on_c, 11, 39, 110
5, 32800, Note_on_c, 11, 39, 0
5, 32832, Note_on_c, 11, 46, 110
5, 32992, Note_on_c, 11, 46, 0
5, 33024, Note_on_c, 11, 37, 110
5, 33184, Note_on_c, 11, 37, 0
5, 33216, Note_on_c, 11, 39, 110
5, 33376, Note_on_c, 11, 39, 0
5, 33408, Note_on_c, 11, 46, 110
5, 33568, Note_on_c, 11, 46, 0
5, 33600, Note_on_c, 11, 39, 110
5, 33760, Note_on_c, 11, 39, 0
5, 33792, Note_on_c, 11, 42, 110
5, 33952, Note_on_c, 11, 42, 0
5, 33984, Note_on_c, 11, 44, 110
5, 34144, Note_on_c, 11, 44, 0
5, 34176, Note_on_c, 11, 39, 110
5, 34336, Note_on_c, 11, 39, 0
5, 34368, Note_on_c, 11, 44, 110
5, 34528, Note_on_c, 11, 44, 0
5, 34560, Note_on_c, 11, 39, 110
5, 34720, Note_on_c, 11, 39, 0
5, 34752, Note_on_c, 11, 42, 110
5, 35088, Note_on_c, 11, 42, 0
5, 35136, Note_on_c, 11, 41, 110
5, 35230, Note_on_c, 11, 41, 0
5, 35232, Note_on_c, 11, 39, 110
5, 35326, Note_on_c, 11, 39, 0
5, 35328, Note_on_c, 11, 37, 110
5, 35422, Note_on_c, 11, 37, 0
5, 35424, Note_on_c, 11, 36, 110
5, 35518, Note_on_c, 11, 36, 0
5, 35520, Note_on_c, 11, 34, 110
5, 35680, Note_on_c, 11, 34, 0
5, 35712, Note_on_c, 11, 41, 110
5, 35872, Note_on_c, 11, 41, 0
5, 35904, Note_on_c, 11, 46, 110
5, 36064, Note_on_c, 11, 46, 0
5, 36096, Note_on_c, 11, 37, 110
5, 36256, Note_on_c, 11, 37, 0
5, 36288, Note_on_c, 11, 39, 110
5, 36448, Note_on_c, 11, 39, 0
5, 36480, Note_on_c, 11, 46, 110
5, 36640, Note_on_c, 11, 46, 0
5, 36672, Note_on_c, 11, 39, 110
5, 36832, Note_on_c, 11, 39, 0
5, 36864, Note_on_c, 11, 42, 110
5, 37024, Note_on_c, 11, 42, 0
5, 37056, Note_on_c, 11, 41, 110
5, 37216, Note_on_c, 11, 41, 0
5, 37248, Note_on_c, 11, 36, 110
5, 37408, Note_on_c, 11, 36, 0
5, 37440, Note_on_c, 11, 41, 110
5, 37600, Note_on_c, 11, 41, 0
5, 37632, Note_on_c, 11, 41, 110
5, 37792, Note_on_c, 11, 41, 0
5, 37824, Note_on_c, 11, 46, 110
5, 37984, Note_on_c, 11, 46, 0
5, 38016, Note_on_c, 11, 41, 110
5, 38176, Note_on_c, 11, 41, 0
5, 38208, Note_on_c, 11, 46, 110
5, 38254, Note_on_c, 11, 46, 0
5, 38256, Note_on_c, 11, 46, 110
5, 38398, Note_on_c, 11, 46, 0
5, 38400, Note_on_c, 11, 44, 110
5, 38494, Note_on_c, 11, 44, 0
5, 38496, Note_on_c, 11, 42, 110
5, 38590, Note_on_c, 11, 42, 0
5, 38592, Note_on_c, 11, 41, 110
5, 38752, Note_on_c, 11, 41, 0
5, 38784, Note_on_c, 11, 36, 110
5, 38944, Note_on_c, 11, 36, 0
5, 38976, Note_on_c, 11, 41, 110
5, 39136, Note_on_c, 11, 41, 0
5, 39168, Note_on_c, 11, 41, 110
5, 39328, Note_on_c, 11, 41, 0
5, 39360, Note_on_c, 11, 46, 110
5, 39520, Note_on_c, 11, 46, 0
5, 39552, Note_on_c, 11, 41, 110
5, 39712, Note_on_c, 11, 41, 0
5, 39744, Note_on_c, 11, 46, 110
5, 39886, Note_on_c, 11, 46, 0
5, 39888, Note_on_c, 11, 46, 110
5, 39934, Note_on_c, 11, 46, 0
5, 39936, Note_on_c, 11, 41, 110
5, 40096, Note_on_c, 11, 41, 0
5, 40128, Note_on_c, 11, 46, 110
5, 40288, Note_on_c, 11, 46, 0
5, 40320, Note_on_c, 11, 41, 110
5, 40480, Note_on_c, 11, 41, 0
5, 40512, Note_on_c, 11, 34, 110
5, 40558, Note_on_c, 11, 34, 0
5, 40560, Note_on_c, 11, 37, 110
5, 40606, Note_on_c, 11, 37, 0
5, 40608, Note_on_c, 11, 39, 110
5, 40654, Note_on_c, 11, 39, 0
5, 40656, Note_on_c, 11, 41, 110
5, 40702, Note_on_c, 11, 41, 0
5, 40704, Note_on_c, 11, 39, 110
5, 40750, Note_on_c, 11, 39, 0
5, 40752, Note_on_c, 11, 37, 110
5, 40798, Note_on_c, 11, 37, 0
5, 40800, Note_on_c, 11, 36, 110
5, 40846, Note_on_c, 11, 36, 0
5, 40848, Note_on_c, 11, 34, 110
5, 40894, Note_on_c, 11, 34, 0
5, 40896, Note_on_c, 11, 38, 110
5, 41230, Note_on_c, 11, 38, 0
5, 41232, Note_on_c, 11, 38, 110
5, 41278, Note_on_c, 11, 38, 0
5, 41280, Note_on_c, 11, 38, 110
5, 41632, Note_on_c, 11, 38, 0
5, 41664, Note_on_c, 11, 40, 110
5, 41998, Note_on_c, 11, 40, 0
5, 42000, Note_on_c, 11, 40, 110
5, 42046, Note_on_c, 11, 40, 0
5, 42048, Note_on_c, 11, 40, 110
5, 42400, Note_on_c, 11, 40, 0
5, 42432, Note_on_c, 11, 45, 110
5, 42766, Note_on_c, 11, 45, 0
5, 42768, Note_on_c, 11, 45, 110
5, 42814, Note_on_c, 11, 45, 0
5, 42816, Note_on_c, 11, 45, 110
5, 42976, Note_on_c, 11, 45, 0
5, 43008, Note_on_c, 11, 40, 110
5, 43168, Note_on_c, 11, 40, 0
5, 43200, Note_on_c, 11, 45, 110
5, 43456, Note_on_c, 11, 45, 0
5, 43488, Note_on_c, 11, 45, 110
5, 43582, Note_on_c, 11, 45, 0
5, 43584, Note_on_c, 11, 45, 110
5, 43936, Note_on_c, 11, 45, 0
5, 43968, Note_on_c, 11, 38, 110
5, 44224, Note_on_c, 11, 38, 0
5, 44256, Note_on_c, 11, 38, 110
5, 44350, Note_on_c, 11, 38, 0
5, 44352, Note_on_c, 11, 38, 110
5, 44704, Note_on_c, 11, 38, 0
5, 44736, Note_on_c, 11, 40, 110
5, 44992, Note_on_c, 11, 40, 0
5, 45024, Note_on_c, 11, 40, 110
5, 45118, Note_on_c, 11, 40, 0
5, 45120, Note_on_c, 11, 40, 110
5, 45214, Note_on_c, 11, 40, 0
5, 45216, Note_on_c, 11, 40, 110
5, 45472, Note_on_c, 11, 40, 0
5, 45504, Note_on_c, 11, 45, 110
5, 45760, Note_on_c, 11, 45, 0
5, 45792, Note_on_c, 11, 45, 110
5, 45886, Note_on_c, 11, 45, 0
5, 45888, Note_on_c, 11, 45, 110
5, 46240, Note_on_c, 11, 45, 0
5, 46272, Note_on_c, 11, 40, 110
5, 46528, Note_on_c, 11, 40, 0
5, 46560, Note_on_c, 11, 40, 110
5, 46654, Note_on_c, 11, 40, 0
5, 46656, Note_on_c, 11, 40, 110
5, 47008, Note_on_c, 11, 40, 0
5, 47040, Note_on_c, 11, 38, 110
5, 47296, Note_on_c, 11, 38, 0
5, 47328, Note_on_c, 11, 38, 110
5, 47422, Note_on_c, 11, 38, 0
5, 47424, Note_on_c, 11, 38, 110
5, 47776, Note_on_c, 11, 38, 0
5, 47808, Note_on_c, 11, 41, 110
5, 49312, Note_on_c, 11, 41, 0
5, 49344, Note_on_c, 11, 46, 110
5, 49504, Note_on_c, 11, 46, 0
5, 49536, Note_on_c, 11, 39, 110
5, 49696, Note_on_c, 11, 39, 0
5, 49728, Note_on_c, 11, 46, 110
5, 49888, Note_on_c, 11, 46, 0
5, 49920, Note_on_c, 11, 37, 110
5, 50080, Note_on_c, 11, 37, 0
5, 50112, Note_on_c, 11, 39, 110
5, 50272, Note_on_c, 11, 39, 0
5, 50304, Note_on_c, 11, 46, 110
5, 50464, Note_on_c, 11, 46, 0
5, 50496, Note_on_c, 11, 39, 110
5, 50656, Note_on_c, 11, 39, 0
5, 50688, Note_on_c, 11, 42, 110
5, 50848, Note_on_c, 11, 42, 0
5, 50880, Note_on_c, 11, 44, 110
5, 51040, Note_on_c, 11, 44, 0
5, 51072, Note_on_c, 11, 39, 110
5, 51232, Note_on_c, 11, 39, 0
5, 51264, Note_on_c, 11, 44, 110
5, 51424, Note_on_c, 11, 44, 0
5, 51456, Note_on_c, 11, 39, 110
5, 51616, Note_on_c, 11, 39, 0
5, 51648, Note_on_c, 11, 42, 110
5, 51984, Note_on_c, 11, 42, 0
5, 52032, Note_on_c, 11, 41, 110
5, 52126, Note_on_c, 11, 41, 0
5, 52128, Note_on_c, 11, 39, 110
5, 52222, Note_on_c, 11, 39, 0
5, 52224, Note_on_c, 11, 37, 110
5, 52318, Note_on_c, 11, 37, 0
5, 52320, Note_on_c, 11, 36, 110
5, 52414, Note_on_c, 11, 36, 0
5, 52416, Note_on_c, 11, 34, 110
5, 52576, Note_on_c, 11, 34, 0
5, 52608, Note_on_c, 11, 41, 110
5, 52768, Note_on_c, 11, 41, 0
5, 52800, Note_on_c, 11, 46, 110
5, 52960, Note_on_c, 11, 46, 0
5, 52992, Note_on_c, 11, 37, 110
5, 53152, Note_on_c, 11, 37, 0
5, 53184, Note_on_c, 11, 39, 110
5, 53344, Note_on_c, 11, 39, 0
5, 53376, Note_on_c, 11, 46, 110
5, 53536, Note_on_c, 11, 46, 0
5, 53568, Note_on_c, 11, 39, 110
5, 53728, Note_on_c, 11, 39, 0
5, 53760, Note_on_c, 11, 42, 110
5, 53920, Note_on_c, 11, 42, 0
5, 53952, Note_on_c, 11, 41, 110
5, 54112, Note_on_c, 11, 41, 0
5, 54144, Note_on_c, 11, 36, 110
5, 54304, Note_on_c, 11, 36, 0
5, 54336, Note_on_c, 11, 41, 110
5, 54496, Note_on_c, 11, 41, 0
5, 54528, Note_on_c, 11, 41, 110
5, 54688, Note_on_c, 11, 41, 0
5, 54720, Note_on_c, 11, 46, 110
5, 54880, Note_on_c, 11, 46, 0
5, 54912, Note_on_c, 11, 41, 110
5, 55072, Note_on_c, 11, 41, 0
5, 55104, Note_on_c, 11, 46, 110
5, 55150, Note_on_c, 11, 46, 0
5, 55152, Note_on_c, 11, 46, 110
5, 55294, Note_on_c, 11, 46, 0
5, 55296, Note_on_c, 11, 44, 110
5, 55390, Note_on_c, 11, 44, 0
5, 55392, Note_on_c, 11, 42, 110
5, 55486, Note_on_c, 11, 42, 0
5, 55488, Note_on_c, 11, 41, 110
5, 55648, Note_on_c, 11, 41, 0
5, 55680, Note_on_c, 11, 36, 110
5, 55840, Note_on_c, 11, 36, 0
5, 55872, Note_on_c, 11, 41, 110
5, 56032, Note_on_c, 11, 41, 0
5, 56064, Note_on_c, 11, 41, 110
5, 56224, Note_on_c, 11, 41, 0
5, 56256, Note_on_c, 11, 46, 110
5, 56416, Note_on_c, 11, 46, 0
5, 56448, Note_on_c, 11, 41, 110
5, 56608, Note_on_c, 11, 41, 0
5, 56640, Note_on_c, 11, 46, 110
5, 56782, Note_on_c, 11, 46, 0
5, 56784, Note_on_c, 11, 46, 110
5, 56830, Note_on_c, 11, 46, 0
5, 56832, Note_on_c, 11, 41, 110
5, 56992, Note_on_c, 11, 41, 0
5, 57024, Note_on_c, 11, 46, 110
5, 57118, Note_on_c, 11, 46, 0
5, 57120, Note_on_c, 11, 41, 110
5, 57166, Note_on_c, 11, 41, 0
5, 57168, Note_on_c, 11, 44, 110
5, 57262, Note_on_c, 11, 44, 0
5, 57264, Note_on_c, 11, 39, 110
5, 57310, Note_on_c, 11, 39, 0
5, 57312, Note_on_c, 11, 41, 110
5, 57550, Note_on_c, 11, 41, 0
5, 57552, Note_on_c, 11, 49, 110
5, 57598, Note_on_c, 11, 49, 0
5, 57600, Note_on_c, 11, 51, 110
5, 57646, Note_on_c, 11, 51, 0
5, 57648, Note_on_c, 11, 49, 110
5, 57694, Note_on_c, 11, 49, 0
5, 57696, Note_on_c, 11, 48, 110
5, 57742, Note_on_c, 11, 48, 0
5, 57744, Note_on_c, 11, 44, 110
5, 57790, Note_on_c, 11, 44, 0
5, 57792, Note_on_c, 11, 46, 110
5, 58126, Note_on_c, 11, 46, 0
5, 58128, Note_on_c, 11, 46, 110
5, 58174, Note_on_c, 11, 46, 0
5, 58176, Note_on_c, 11, 46, 110
5, 58414, Note_on_c, 11, 46, 0
5, 58416, Note_on_c, 11, 45, 110
5, 58558, Note_on_c, 11, 45, 0
5, 58560, Note_on_c, 11, 44, 110
5, 58894, Note_on_c, 11, 44, 0
5, 58896, Note_on_c, 11, 44, 110
5, 58942, Note_on_c, 11, 44, 0
5, 58944, Note_on_c, 11, 44, 110
5, 59230, Note_on_c, 11, 44, 0
5, 59232, Note_on_c, 11, 44, 110
5, 59326, Note_on_c, 11, 44, 0
5, 59328, Note_on_c, 11, 42, 110
5, 59662, Note_on_c, 11, 42, 0
5, 59664, Note_on_c, 11, 42, 110
5, 59710, Note_on_c, 11, 42, 0
5, 59712, Note_on_c, 11, 42, 110
5, 59950, Note_on_c, 11, 42, 0
5, 59952, Note_on_c, 11, 39, 110
5, 60094, Note_on_c, 11, 39, 0
5, 60096, Note_on_c, 11, 41, 110
5, 60430, Note_on_c, 11, 41, 0
5, 60432, Note_on_c, 11, 41, 110
5, 60478, Note_on_c, 11, 41, 0
5, 60480, Note_on_c, 11, 41, 110
5, 60832, Note_on_c, 11, 41, 0
5, 60864, Note_on_c, 11, 46, 110
5, 61198, Note_on_c, 11, 46, 0
5, 61200, Note_on_c, 11, 46, 110
5, 61246, Note_on_c, 11, 46, 0
5, 61248, Note_on_c, 11, 46, 110
5, 61486, Note_on_c, 11, 46, 0
5, 61488, Note_on_c, 11, 45, 110
5, 61630, Note_on_c, 11, 45, 0
5, 61632, Note_on_c, 11, 44, 110
5, 61966, Note_on_c, 11, 44, 0
5, 61968, Note_on_c, 11, 44, 110
5, 62014, Note_on_c, 11, 44, 0
5, 62016, Note_on_c, 11, 44, 110
5, 62302, Note_on_c, 11, 44, 0
5, 62304, Note_on_c, 11, 44, 110
5, 62398, Note_on_c, 11, 44, 0
5, 62400, Note_on_c, 11, 42, 110
5, 62734, Note_on_c, 11, 42, 0
5, 62736, Note_on_c, 11, 42, 110
5, 62782, Note_on_c, 11, 42, 0
5, 62784, Note_on_c, 11, 42, 110
5, 63022, Note_on_c, 11, 42, 0
5, 63024, Note_on_c, 11, 39, 110
5, 63166, Note_on_c, 11, 39, 0
5, 63168, Note_on_c, 11, 41, 110
5, 63502, Note_on_c, 11, 41, 0
5, 63504, Note_on_c, 11, 41, 110
5, 63550, Note_on_c, 11, 41, 0
5, 63552, Note_on_c, 11, 41, 110
5, 63904, Note_on_c, 11, 41, 0
5, 63936, Note_on_c, 11, 46, 110
5, 64672, Note_on_c, 11, 46, 0
5, 64704, Note_on_c, 11, 46, 110
5, 65232, Note_on_c, 11, 46, 0
5, 65280, Note_on_c, 11, 41, 110
5, 65440, Note_on_c, 11, 41, 0
5, 65472, Note_on_c, 11, 46, 110
5, 65808, Note_on_c, 11, 46, 0
5, 65856, Note_on_c, 11, 41, 110
5, 66208, Note_on_c, 11, 41, 0
5, 66240, Note_on_c, 11, 46, 110
5, 67744, Note_on_c, 11, 46, 0
5, 67744, End_track
6, 0, Start_track
6, 0, MIDI_port, 0
6, 0, Title_t, "geocities.com/lbb.geo/"
6, 0, Program_c, 12, 0
6, 0, Control_c, 12, 7, 127
6, 0, Control_c, 12, 10, 64
6, 4800, Note_on_c, 12, 64, 110
6, 4942, Note_on_c, 12, 64, 0
6, 4944, Note_on_c, 12, 64, 110
6, 5086, Note_on_c, 12, 64, 0
6, 5088, Note_on_c, 12, 64, 110
6, 5182, Note_on_c, 12, 64, 0
6, 5184, Note_on_c, 12, 64, 110
6, 5326, Note_on_c, 12, 64, 0
6, 5328, Note_on_c, 12, 62, 110
6, 5470, Note_on_c, 12, 62, 0
6, 5472, Note_on_c, 12, 60, 110
6, 5566, Note_on_c, 12, 60, 0
6, 5568, Note_on_c, 12, 62, 110
6, 5710, Note_on_c, 12, 62, 0
6, 5712, Note_on_c, 12, 62, 110
6, 5854, Note_on_c, 12, 62, 0
6, 5856, Note_on_c, 12, 62, 110
6, 5950, Note_on_c, 12, 62, 0
6, 5952, Note_on_c, 12, 62, 110
6, 6112, Note_on_c, 12, 62, 0
6, 6144, Note_on_c, 12, 59, 110
6, 6238, Note_on_c, 12, 59, 0
6, 6240, Note_on_c, 12, 60, 110
6, 6334, Note_on_c, 12, 60, 0
6, 6336, Note_on_c, 12, 62, 110
6, 6478, Note_on_c, 12, 62, 0
6, 6480, Note_on_c, 12, 62, 110
6, 6622, Note_on_c, 12, 62, 0
6, 6624, Note_on_c, 12, 62, 110
6, 6718, Note_on_c, 12, 62, 0
6, 6720, Note_on_c, 12, 62, 110
6, 6880, Note_on_c, 12, 62, 0
6, 6912, Note_on_c, 12, 60, 110
6, 7006, Note_on_c, 12, 60, 0
6, 7008, Note_on_c, 12, 59, 110
6, 7102, Note_on_c, 12, 59, 0
6, 7104, Note_on_c, 12, 59, 110
6, 7246, Note_on_c, 12, 59, 0
6, 7248, Note_on_c, 12, 60, 110
6, 7390, Note_on_c, 12, 60, 0
6, 7392, Note_on_c, 12, 60, 110
6, 7840, Note_on_c, 12, 60, 0
6, 7872, Note_on_c, 12, 64, 110
6, 8014, Note_on_c, 12, 64, 0
6, 8016, Note_on_c, 12, 64, 110
6, 8158, Note_on_c, 12, 64, 0
6, 8160, Note_on_c, 12, 64, 110
6, 8254, Note_on_c, 12, 64, 0
6, 8256, Note_on_c, 12, 64, 110
6, 8398, Note_on_c, 12, 64, 0
6, 8400, Note_on_c, 12, 62, 110
6, 8542, Note_on_c, 12, 62, 0
6, 8544, Note_on_c, 12, 60, 110
6, 8638, Note_on_c, 12, 60, 0
6, 8640, Note_on_c, 12, 62, 110
6, 8782, Note_on_c, 12, 62, 0
6, 8784, Note_on_c, 12, 62, 110
6, 8926, Note_on_c, 12, 62, 0
6, 8928, Note_on_c, 12, 62, 110
6, 9022, Note_on_c, 12, 62, 0
6, 9024, Note_on_c, 12, 62, 110
6, 9184, Note_on_c, 12, 62, 0
6, 9216, Note_on_c, 12, 59, 110
6, 9310, Note_on_c, 12, 59, 0
6, 9312, Note_on_c, 12, 60, 110
6, 9406, Note_on_c, 12, 60, 0
6, 9408, Note_on_c, 12, 62, 110
6, 9550, Note_on_c, 12, 62, 0
6, 9552, Note_on_c, 12, 62, 110
6, 9694, Note_on_c, 12, 62, 0
6, 9696, Note_on_c, 12, 62, 110
6, 9790, Note_on_c, 12, 62, 0
6, 9792, Note_on_c, 12, 62, 110
6, 9934, Note_on_c, 12, 62, 0
6, 9936, Note_on_c, 12, 64, 110
6, 10078, Note_on_c, 12, 64, 0
6, 10080, Note_on_c, 12, 65, 110
6, 10174, Note_on_c, 12, 65, 0
6, 10176, Note_on_c, 12, 60, 110
6, 10176, Note_on_c, 12, 64, 110
6, 10512, Note_on_c, 12, 60, 0
6, 10512, Note_on_c, 12, 64, 0
6, 11136, Note_on_c, 12, 69, 110
6, 11230, Note_on_c, 12, 69, 0
6, 11232, Note_on_c, 12, 60, 110
6, 11326, Note_on_c, 12, 60, 0
6, 11328, Note_on_c, 12, 60, 110
6, 11488, Note_on_c, 12, 60, 0
6, 11520, Note_on_c, 12, 62, 110
6, 11614, Note_on_c, 12, 62, 0
6, 11616, Note_on_c, 12, 65, 110
6, 11710, Note_on_c, 12, 65, 0
6, 11712, Note_on_c, 12, 64, 110
6, 11806, Note_on_c, 12, 64, 0
6, 11808, Note_on_c, 12, 62, 110
6, 11854, Note_on_c, 12, 62, 0
6, 11856, Note_on_c, 12, 62, 110
6, 11950, Note_on_c, 12, 62, 0
6, 11952, Note_on_c, 12, 60, 110
6, 11998, Note_on_c, 12, 60, 0
6, 12000, Note_on_c, 12, 60, 110
6, 12256, Note_on_c, 12, 60, 0
6, 12672, Note_on_c, 12, 65, 110
6, 12832, Note_on_c, 12, 65, 0
6, 12864, Note_on_c, 12, 67, 110
6, 13024, Note_on_c, 12, 67, 0
6, 13056, Note_on_c, 12, 65, 110
6, 13216, Note_on_c, 12, 65, 0
6, 13248, Note_on_c, 12, 65, 110
6, 13584, Note_on_c, 12, 65, 0
6, 13824, Note_on_c, 12, 61, 110
6, 13918, Note_on_c, 12, 61, 0
6, 13920, Note_on_c, 12, 63, 110
6, 14014, Note_on_c, 12, 63, 0
6, 14016, Note_on_c, 12, 65, 110
6, 14110, Note_on_c, 12, 65, 0
6, 14112, Note_on_c, 12, 65, 110
6, 14158, Note_on_c, 12, 65, 0
6, 14160, Note_on_c, 12, 65, 110
6, 14254, Note_on_c, 12, 65, 0
6, 14256, Note_on_c, 12, 65, 110
6, 14350, Note_on_c, 12, 65, 0
6, 14352, Note_on_c, 12, 65, 110
6, 14446, Note_on_c, 12, 65, 0
6, 14448, Note_on_c, 12, 61, 110
6, 14590, Note_on_c, 12, 61, 0
6, 14592, Note_on_c, 12, 66, 110
6, 14686, Note_on_c, 12, 66, 0
6, 14688, Note_on_c, 12, 65, 110
6, 14782, Note_on_c, 12, 65, 0
6, 14784, Note_on_c, 12, 65, 110
6, 14878, Note_on_c, 12, 65, 0
6, 14880, Note_on_c, 12, 63, 110
6, 14926, Note_on_c, 12, 63, 0
6, 14928, Note_on_c, 12, 63, 110
6, 15022, Note_on_c, 12, 63, 0
6, 15024, Note_on_c, 12, 63, 110
6, 15118, Note_on_c, 12, 63, 0
6, 15120, Note_on_c, 12, 63, 110
6, 15328, Note_on_c, 12, 63, 0
6, 15456, Note_on_c, 12, 60, 110
6, 15502, Note_on_c, 12, 60, 0
6, 15504, Note_on_c, 12, 61, 110
6, 15550, Note_on_c, 12, 61, 0
6, 15552, Note_on_c, 12, 63, 110
6, 15646, Note_on_c, 12, 63, 0
6, 15648, Note_on_c, 12, 63, 110
6, 15694, Note_on_c, 12, 63, 0
6, 15696, Note_on_c, 12, 63, 110
6, 15790, Note_on_c, 12, 63, 0
6, 15792, Note_on_c, 12, 63, 110
6, 15886, Note_on_c, 12, 63, 0
6, 15888, Note_on_c, 12, 63, 110
6, 16030, Note_on_c, 12, 63, 0
6, 16032, Note_on_c, 12, 63, 110
6, 16078, Note_on_c, 12, 63, 0
6, 16080, Note_on_c, 12, 68, 110
6, 16270, Note_on_c, 12, 68, 0
6, 16272, Note_on_c, 12, 66, 110
6, 16318, Note_on_c, 12, 66, 0
6, 16320, Note_on_c, 12, 65, 110
6, 16414, Note_on_c, 12, 65, 0
6, 16416, Note_on_c, 12, 65, 110
6, 16672, Note_on_c, 12, 65, 0
6, 16896, Note_on_c, 12, 61, 110
6, 16990, Note_on_c, 12, 61, 0
6, 16992, Note_on_c, 12, 63, 110
6, 17086, Note_on_c, 12, 63, 0
6, 17088, Note_on_c, 12, 65, 110
6, 17182, Note_on_c, 12, 65, 0
6, 17184, Note_on_c, 12, 65, 110
6, 17230, Note_on_c, 12, 65, 0
6, 17232, Note_on_c, 12, 65, 110
6, 17326, Note_on_c, 12, 65, 0
6, 17328, Note_on_c, 12, 65, 110
6, 17422, Note_on_c, 12, 65, 0
6, 17424, Note_on_c, 12, 65, 110
6, 17518, Note_on_c, 12, 65, 0
6, 17520, Note_on_c, 12, 65, 110
6, 17662, Note_on_c, 12, 65, 0
6, 17664, Note_on_c, 12, 70, 110
6, 17758, Note_on_c, 12, 70, 0
6, 17760, Note_on_c, 12, 68, 110
6, 17854, Note_on_c, 12, 68, 0
6, 17856, Note_on_c, 12, 68, 110
6, 17950, Note_on_c, 12, 68, 0
6, 17952, Note_on_c, 12, 66, 110
6, 17998, Note_on_c, 12, 66, 0
6, 18000, Note_on_c, 12, 66, 110
6, 18094, Note_on_c, 12, 66, 0
6, 18096, Note_on_c, 12, 66, 110
6, 18190, Note_on_c, 12, 66, 0
6, 18192, Note_on_c, 12, 66, 110
6, 18400, Note_on_c, 12, 66, 0
6, 18528, Note_on_c, 12, 61, 110
6, 18574, Note_on_c, 12, 61, 0
6, 18576, Note_on_c, 12, 60, 110
6, 18784, Note_on_c, 12, 60, 0
6, 18912, Note_on_c, 12, 60, 110
6, 18958, Note_on_c, 12, 60, 0
6, 18960, Note_on_c, 12, 60, 110
6, 19006, Note_on_c, 12, 60, 0
6, 19008, Note_on_c, 12, 65, 110
6, 19102, Note_on_c, 12, 65, 0
6, 19104, Note_on_c, 12, 63, 110
6, 19150, Note_on_c, 12, 63, 0
6, 19152, Note_on_c, 12, 61, 110
6, 19342, Note_on_c, 12, 61, 0
6, 19344, Note_on_c, 12, 60, 110
6, 19390, Note_on_c, 12, 60, 0
6, 19392, Note_on_c, 12, 61, 110
6, 19438, Note_on_c, 12, 61, 0
6, 19440, Note_on_c, 12, 60, 110
6, 19486, Note_on_c, 12, 60, 0
6, 19488, Note_on_c, 12, 58, 110
6, 19920, Note_on_c, 12, 58, 0
6, 20064, Note_on_c, 12, 61, 110
6, 20110, Note_on_c, 12, 61, 0
6, 20112, Note_on_c, 12, 60, 110
6, 20320, Note_on_c, 12, 60, 0
6, 20448, Note_on_c, 12, 60, 110
6, 20494, Note_on_c, 12, 60, 0
6, 20496, Note_on_c, 12, 60, 110
6, 20542, Note_on_c, 12, 60, 0
6, 20544, Note_on_c, 12, 65, 110
6, 20638, Note_on_c, 12, 65, 0
6, 20640, Note_on_c, 12, 63, 110
6, 20686, Note_on_c, 12, 63, 0
6, 20688, Note_on_c, 12, 61, 110
6, 20878, Note_on_c, 12, 61, 0
6, 20880, Note_on_c, 12, 53, 110
6, 20926, Note_on_c, 12, 53, 0
6, 20928, Note_on_c, 12, 60, 110
6, 21022, Note_on_c, 12, 60, 0
6, 21024, Note_on_c, 12, 58, 110
6, 21280, Note_on_c, 12, 58, 0
6, 21600, Note_on_c, 12, 63, 110
6, 21646, Note_on_c, 12, 63, 0
6, 21648, Note_on_c, 12, 63, 110
6, 21790, Note_on_c, 12, 63, 0
6, 21792, Note_on_c, 12, 65, 110
6, 22800, Note_on_c, 12, 65, 0
6, 32256, Note_on_c, 12, 61, 110
6, 32350, Note_on_c, 12, 61, 0
6, 32352, Note_on_c, 12, 63, 110
6, 32446, Note_on_c, 12, 63, 0
6, 32448, Note_on_c, 12, 61, 110
6, 32542, Note_on_c, 12, 61, 0
6, 32544, Note_on_c, 12, 61, 110
6, 32590, Note_on_c, 12, 61, 0
6, 32592, Note_on_c, 12, 61, 110
6, 32686, Note_on_c, 12, 61, 0
6, 32688, Note_on_c, 12, 61, 110
6, 32782, Note_on_c, 12, 61, 0
6, 32784, Note_on_c, 12, 61, 110
6, 32878, Note_on_c, 12, 61, 0
6, 32880, Note_on_c, 12, 58, 110
6, 33022, Note_on_c, 12, 58, 0
6, 33024, Note_on_c, 12, 63, 110
6, 33118, Note_on_c, 12, 63, 0
6, 33120, Note_on_c, 12, 61, 110
6, 33214, Note_on_c, 12, 61, 0
6, 33216, Note_on_c, 12, 61, 110
6, 33310, Note_on_c, 12, 61, 0
6, 33312, Note_on_c, 12, 58, 110
6, 33358, Note_on_c, 12, 58, 0
6, 33360, Note_on_c, 12, 58, 110
6, 33454, Note_on_c, 12, 58, 0
6, 33456, Note_on_c, 12, 58, 110
6, 33550, Note_on_c, 12, 58, 0
6, 33552, Note_on_c, 12, 58, 110
6, 33760, Note_on_c, 12, 58, 0
6, 33888, Note_on_c, 12, 56, 110
6, 33934, Note_on_c, 12, 56, 0
6, 33936, Note_on_c, 12, 58, 110
6, 33982, Note_on_c, 12, 58, 0
6, 33984, Note_on_c, 12, 60, 110
6, 34078, Note_on_c, 12, 60, 0
6, 34080, Note_on_c, 12, 60, 110
6, 34126, Note_on_c, 12, 60, 0
6, 34128, Note_on_c, 12, 60, 110
6, 34222, Note_on_c, 12, 60, 0
6, 34224, Note_on_c, 12, 60, 110
6, 34318, Note_on_c, 12, 60, 0
6, 34320, Note_on_c, 12, 60, 110
6, 34462, Note_on_c, 12, 60, 0
6, 34464, Note_on_c, 12, 60, 110
6, 34510, Note_on_c, 12, 60, 0
6, 34512, Note_on_c, 12, 63, 110
6, 34702, Note_on_c, 12, 63, 0
6, 34704, Note_on_c, 12, 66, 110
6, 34750, Note_on_c, 12, 66, 0
6, 34752, Note_on_c, 12, 61, 110
6, 34846, Note_on_c, 12, 61, 0
6, 34848, Note_on_c, 12, 61, 110
6, 35104, Note_on_c, 12, 61, 0
6, 35328, Note_on_c, 12, 58, 110
6, 35422, Note_on_c, 12, 58, 0
6, 35424, Note_on_c, 12, 60, 110
6, 35518, Note_on_c, 12, 60, 0
6, 35520, Note_on_c, 12, 61, 110
6, 35614, Note_on_c, 12, 61, 0
6, 35616, Note_on_c, 12, 61, 110
6, 35662, Note_on_c, 12, 61, 0
6, 35664, Note_on_c, 12, 61, 110
6, 35758, Note_on_c, 12, 61, 0
6, 35760, Note_on_c, 12, 61, 110
6, 35854, Note_on_c, 12, 61, 0
6, 35856, Note_on_c, 12, 61, 110
6, 35950, Note_on_c, 12, 61, 0
6, 35952, Note_on_c, 12, 61, 110
6, 36094, Note_on_c, 12, 61, 0
6, 36096, Note_on_c, 12, 66, 110
6, 36190, Note_on_c, 12, 66, 0
6, 36192, Note_on_c, 12, 65, 110
6, 36286, Note_on_c, 12, 65, 0
6, 36288, Note_on_c, 12, 65, 110
6, 36382, Note_on_c, 12, 65, 0
6, 36384, Note_on_c, 12, 63, 110
6, 36430, Note_on_c, 12, 63, 0
6, 36432, Note_on_c, 12, 63, 110
6, 36526, Note_on_c, 12, 63, 0
6, 36528, Note_on_c, 12, 63, 110
6, 36622, Note_on_c, 12, 63, 0
6, 36624, Note_on_c, 12, 63, 110
6, 36832, Note_on_c, 12, 63, 0
6, 36960, Note_on_c, 12, 61, 110
6, 37006, Note_on_c, 12, 61, 0
6, 37008, Note_on_c, 12, 60, 110
6, 37216, Note_on_c, 12, 60, 0
6, 37344, Note_on_c, 12, 60, 110
6, 37390, Note_on_c, 12, 60, 0
6, 37392, Note_on_c, 12, 60, 110
6, 37438, Note_on_c, 12, 60, 0
6, 37440, Note_on_c, 12, 65, 110
6, 37534, Note_on_c, 12, 65, 0
6, 37536, Note_on_c, 12, 63, 110
6, 37582, Note_on_c, 12, 63, 0
6, 37584, Note_on_c, 12, 61, 110
6, 37774, Note_on_c, 12, 61, 0
6, 37776, Note_on_c, 12, 60, 110
6, 37822, Note_on_c, 12, 60, 0
6, 37824, Note_on_c, 12, 61, 110
6, 37870, Note_on_c, 12, 61, 0
6, 37872, Note_on_c, 12, 60, 110
6, 37918, Note_on_c, 12, 60, 0
6, 37920, Note_on_c, 12, 58, 110
6, 38352, Note_on_c, 12, 58, 0
6, 38496, Note_on_c, 12, 61, 110
6, 38542, Note_on_c, 12, 61, 0
6, 38544, Note_on_c, 12, 60, 110
6, 38752, Note_on_c, 12, 60, 0
6, 38880, Note_on_c, 12, 60, 110
6, 38926, Note_on_c, 12, 60, 0
6, 38928, Note_on_c, 12, 60, 110
6, 38974, Note_on_c, 12, 60, 0
6, 38976, Note_on_c, 12, 65, 110
6, 39070, Note_on_c, 12, 65, 0
6, 39072, Note_on_c, 12, 63, 110
6, 39118, Note_on_c, 12, 63, 0
6, 39120, Note_on_c, 12, 61, 110
6, 39310, Note_on_c, 12, 61, 0
6, 39312, Note_on_c, 12, 53, 110
6, 39358, Note_on_c, 12, 53, 0
6, 39360, Note_on_c, 12, 60, 110
6, 39454, Note_on_c, 12, 60, 0
6, 39456, Note_on_c, 12, 58, 110
6, 39712, Note_on_c, 12, 58, 0
6, 40032, Note_on_c, 12, 63, 110
6, 40078, Note_on_c, 12, 63, 0
6, 40080, Note_on_c, 12, 63, 110
6, 40222, Note_on_c, 12, 63, 0
6, 40224, Note_on_c, 12, 65, 110
6, 40864, Note_on_c, 12, 65, 0
6, 41472, Note_on_c, 12, 62, 110
6, 41566, Note_on_c, 12, 62, 0
6, 41568, Note_on_c, 12, 64, 110
6, 41662, Note_on_c, 12, 64, 0
6, 41664, Note_on_c, 12, 65, 110
6, 41806, Note_on_c, 12, 65, 0
6, 41808, Note_on_c, 12, 65, 110
6, 41950, Note_on_c, 12, 65, 0
6, 41952, Note_on_c, 12, 65, 110
6, 42046, Note_on_c, 12, 65, 0
6, 42048, Note_on_c, 12, 67, 110
6, 42190, Note_on_c, 12, 67, 0
6, 42192, Note_on_c, 12, 64, 110
6, 42334, Note_on_c, 12, 64, 0
6, 42336, Note_on_c, 12, 65, 110
6, 42430, Note_on_c, 12, 65, 0
6, 42432, Note_on_c, 12, 64, 110
6, 42768, Note_on_c, 12, 64, 0
6, 43104, Note_on_c, 12, 64, 110
6, 43198, Note_on_c, 12, 64, 0
6, 43200, Note_on_c, 12, 69, 110
6, 43342, Note_on_c, 12, 69, 0
6, 43344, Note_on_c, 12, 67, 110
6, 43486, Note_on_c, 12, 67, 0
6, 43488, Note_on_c, 12, 64, 110
6, 43582, Note_on_c, 12, 64, 0
6, 43584, Note_on_c, 12, 64, 110
6, 43630, Note_on_c, 12, 64, 0
6, 43632, Note_on_c, 12, 62, 110
6, 43678, Note_on_c, 12, 62, 0
6, 43680, Note_on_c, 12, 60, 110
6, 43726, Note_on_c, 12, 60, 0
6, 43728, Note_on_c, 12, 62, 110
6, 43774, Note_on_c, 12, 62, 0
6, 43776, Note_on_c, 12, 64, 110
6, 43870, Note_on_c, 12, 64, 0
6, 43872, Note_on_c, 12, 65, 110
6, 44128, Note_on_c, 12, 65, 0
6, 44544, Note_on_c, 12, 57, 110
6, 44638, Note_on_c, 12, 57, 0
6, 44640, Note_on_c, 12, 60, 110
6, 44734, Note_on_c, 12, 60, 0
6, 44736, Note_on_c, 12, 62, 110
6, 44878, Note_on_c, 12, 62, 0
6, 44880, Note_on_c, 12, 62, 110
6, 45022, Note_on_c, 12, 62, 0
6, 45024, Note_on_c, 12, 67, 110
6, 45118, Note_on_c, 12, 67, 0
6, 45120, Note_on_c, 12, 64, 110
6, 45280, Note_on_c, 12, 64, 0
6, 45504, Note_on_c, 12, 69, 110
6, 45646, Note_on_c, 12, 69, 0
6, 45648, Note_on_c, 12, 64, 110
6, 45790, Note_on_c, 12, 64, 0
6, 45792, Note_on_c, 12, 64, 110
6, 45886, Note_on_c, 12, 64, 0
6, 45888, Note_on_c, 12, 69, 110
6, 46030, Note_on_c, 12, 69, 0
6, 46032, Note_on_c, 12, 64, 110
6, 46174, Note_on_c, 12, 64, 0
6, 46176, Note_on_c, 12, 64, 110
6, 46270, Note_on_c, 12, 64, 0
6, 46272, Note_on_c, 12, 71, 110
6, 46414, Note_on_c, 12, 71, 0
6, 46416, Note_on_c, 12, 67, 110
6, 46558, Note_on_c, 12, 67, 0
6, 46560, Note_on_c, 12, 67, 110
6, 46654, Note_on_c, 12, 67, 0
6, 46656, Note_on_c, 12, 71, 110
6, 46798, Note_on_c, 12, 71, 0
6, 46800, Note_on_c, 12, 67, 110
6, 46942, Note_on_c, 12, 67, 0
6, 46944, Note_on_c, 12, 67, 110
6, 47038, Note_on_c, 12, 67, 0
6, 47040, Note_on_c, 12, 72, 110
6, 47182, Note_on_c, 12, 72, 0
6, 47184, Note_on_c, 12, 69, 110
6, 47326, Note_on_c, 12, 69, 0
6, 47328, Note_on_c, 12, 69, 110
6, 47422, Note_on_c, 12, 69, 0
6, 47424, Note_on_c, 12, 69, 110
6, 47566, Note_on_c, 12, 69, 0
6, 47568, Note_on_c, 12, 71, 110
6, 47710, Note_on_c, 12, 71, 0
6, 47712, Note_on_c, 12, 72, 110
6, 47806, Note_on_c, 12, 72, 0
6, 47808, Note_on_c, 12, 72, 110
6, 48912, Note_on_c, 12, 72, 0
6, 49152, Note_on_c, 12, 66, 110
6, 49246, Note_on_c, 12, 66, 0
6, 49248, Note_on_c, 12, 65, 110
6, 49342, Note_on_c, 12, 65, 0
6, 49344, Note_on_c, 12, 65, 110
6, 49438, Note_on_c, 12, 65, 0
6, 49440, Note_on_c, 12, 65, 110
6, 49486, Note_on_c, 12, 65, 0
6, 49488, Note_on_c, 12, 65, 110
6, 49582, Note_on_c, 12, 65, 0
6, 49584, Note_on_c, 12, 65, 110
6, 49678, Note_on_c, 12, 65, 0
6, 49680, Note_on_c, 12, 65, 110
6, 49774, Note_on_c, 12, 65, 0
6, 49776, Note_on_c, 12, 61, 110
6, 49918, Note_on_c, 12, 61, 0
6, 49920, Note_on_c, 12, 66, 110
6, 50014, Note_on_c, 12, 66, 0
6, 50016, Note_on_c, 12, 65, 110
6, 50110, Note_on_c, 12, 65, 0
6, 50112, Note_on_c, 12, 65, 110
6, 50206, Note_on_c, 12, 65, 0
6, 50208, Note_on_c, 12, 63, 110
6, 50254, Note_on_c, 12, 63, 0
6, 50256, Note_on_c, 12, 63, 110
6, 50350, Note_on_c, 12, 63, 0
6, 50352, Note_on_c, 12, 63, 110
6, 50446, Note_on_c, 12, 63, 0
6, 50448, Note_on_c, 12, 63, 110
6, 50656, Note_on_c, 12, 63, 0
6, 50784, Note_on_c, 12, 60, 110
6, 50830, Note_on_c, 12, 60, 0
6, 50832, Note_on_c, 12, 61, 110
6, 50878, Note_on_c, 12, 61, 0
6, 50880, Note_on_c, 12, 63, 110
6, 50974, Note_on_c, 12, 63, 0
6, 50976, Note_on_c, 12, 63, 110
6, 51022, Note_on_c, 12, 63, 0
6, 51024, Note_on_c, 12, 63, 110
6, 51118, Note_on_c, 12, 63, 0
6, 51120, Note_on_c, 12, 63, 110
6, 51214, Note_on_c, 12, 63, 0
6, 51216, Note_on_c, 12, 63, 110
6, 51358, Note_on_c, 12, 63, 0
6, 51360, Note_on_c, 12, 63, 110
6, 51406, Note_on_c, 12, 63, 0
6, 51408, Note_on_c, 12, 68, 110
6, 51598, Note_on_c, 12, 68, 0
6, 51600, Note_on_c, 12, 66, 110
6, 51646, Note_on_c, 12, 66, 0
6, 51648, Note_on_c, 12, 65, 110
6, 51742, Note_on_c, 12, 65, 0
6, 51744, Note_on_c, 12, 65, 110
6, 52000, Note_on_c, 12, 65, 0
6, 52224, Note_on_c, 12, 61, 110
6, 52318, Note_on_c, 12, 61, 0
6, 52320, Note_on_c, 12, 63, 110
6, 52414, Note_on_c, 12, 63, 0
6, 52416, Note_on_c, 12, 65, 110
6, 52510, Note_on_c, 12, 65, 0
6, 52512, Note_on_c, 12, 65, 110
6, 52558, Note_on_c, 12, 65, 0
6, 52560, Note_on_c, 12, 65, 110
6, 52654, Note_on_c, 12, 65, 0
6, 52656, Note_on_c, 12, 65, 110
6, 52750, Note_on_c, 12, 65, 0
6, 52752, Note_on_c, 12, 65, 110
6, 52846, Note_on_c, 12, 65, 0
6, 52848, Note_on_c, 12, 65, 110
6, 52990, Note_on_c, 12, 65, 0
6, 52992, Note_on_c, 12, 70, 110
6, 53086, Note_on_c, 12, 70, 0
6, 53088, Note_on_c, 12, 68, 110
6, 53182, Note_on_c, 12, 68, 0
6, 53184, Note_on_c, 12, 68, 110
6, 53278, Note_on_c, 12, 68, 0
6, 53280, Note_on_c, 12, 66, 110
6, 53326, Note_on_c, 12, 66, 0
6, 53328, Note_on_c, 12, 66, 110
6, 53422, Note_on_c, 12, 66, 0
6, 53424, Note_on_c, 12, 66, 110
6, 53518, Note_on_c, 12, 66, 0
6, 53520, Note_on_c, 12, 66, 110
6, 53728, Note_on_c, 12, 66, 0
6, 53856, Note_on_c, 12, 61, 110
6, 53902, Note_on_c, 12, 61, 0
6, 53904, Note_on_c, 12, 60, 110
6, 54112, Note_on_c, 12, 60, 0
6, 54240, Note_on_c, 12, 60, 110
6, 54286, Note_on_c, 12, 60, 0
6, 54288, Note_on_c, 12, 60, 110
6, 54334, Note_on_c, 12, 60, 0
6, 54336, Note_on_c, 12, 65, 110
6, 54430, Note_on_c, 12, 65, 0
6, 54432, Note_on_c, 12, 63, 110
6, 54478, Note_on_c, 12, 63, 0
6, 54480, Note_on_c, 12, 61, 110
6, 54670, Note_on_c, 12, 61, 0
6, 54672, Note_on_c, 12, 60, 110
6, 54718, Note_on_c, 12, 60, 0
6, 54720, Note_on_c, 12, 61, 110
6, 54766, Note_on_c, 12, 61, 0
6, 54768, Note_on_c, 12, 60, 110
6, 54814, Note_on_c, 12, 60, 0
6, 54816, Note_on_c, 12, 58, 110
6, 55248, Note_on_c, 12, 58, 0
6, 55392, Note_on_c, 12, 61, 110
6, 55438, Note_on_c, 12, 61, 0
6, 55440, Note_on_c, 12, 60, 110
6, 55648, Note_on_c, 12, 60, 0
6, 55776, Note_on_c, 12, 60, 110
6, 55822, Note_on_c, 12, 60, 0
6, 55824, Note_on_c, 12, 60, 110
6, 55870, Note_on_c, 12, 60, 0
6, 55872, Note_on_c, 12, 65, 110
6, 55966, Note_on_c, 12, 65, 0
6, 55968, Note_on_c, 12, 63, 110
6, 56014, Note_on_c, 12, 63, 0
6, 56016, Note_on_c, 12, 61, 110
6, 56206, Note_on_c, 12, 61, 0
6, 56208, Note_on_c, 12, 53, 110
6, 56254, Note_on_c, 12, 53, 0
6, 56256, Note_on_c, 12, 60, 110
6, 56350, Note_on_c, 12, 60, 0
6, 56352, Note_on_c, 12, 58, 110
6, 56608, Note_on_c, 12, 58, 0
6, 56928, Note_on_c, 12, 63, 110
6, 56974, Note_on_c, 12, 63, 0
6, 56976, Note_on_c, 12, 63, 110
6, 57118, Note_on_c, 12, 63, 0
6, 57120, Note_on_c, 12, 65, 110
6, 57760, Note_on_c, 12, 65, 0
6, 57792, Note_on_c, 12, 58, 110
6, 57886, Note_on_c, 12, 58, 0
6, 57888, Note_on_c, 12, 61, 110
6, 57888, Note_on_c, 12, 65, 110
6, 57888, Note_on_c, 12, 70, 110
6, 57934, Note_on_c, 12, 61, 0
6, 57934, Note_on_c, 12, 65, 0
6, 57934, Note_on_c, 12, 70, 0
6, 57936, Note_on_c, 12, 61, 110
6, 57936, Note_on_c, 12, 65, 110
6, 57936, Note_on_c, 12, 70, 110
6, 57982, Note_on_c, 12, 61, 0
6, 57982, Note_on_c, 12, 65, 0
6, 57982, Note_on_c, 12, 70, 0
6, 57984, Note_on_c, 12, 61, 110
6, 57984, Note_on_c, 12, 65, 110
6, 57984, Note_on_c, 12, 70, 110
6, 58078, Note_on_c, 12, 61, 0
6, 58078, Note_on_c, 12, 65, 0
6, 58078, Note_on_c, 12, 70, 0
6, 58080, Note_on_c, 12, 61, 110
6, 58080, Note_on_c, 12, 65, 110
6, 58080, Note_on_c, 12, 70, 110
6, 58126, Note_on_c, 12, 61, 0
6, 58126, Note_on_c, 12, 65, 0
6, 58126, Note_on_c, 12, 70, 0
6, 58128, Note_on_c, 12, 61, 110
6, 58128, Note_on_c, 12, 65, 110
6, 58128, Note_on_c, 12, 70, 110
6, 58270, Note_on_c, 12, 61, 0
6, 58270, Note_on_c, 12, 65, 0
6, 58270, Note_on_c, 12, 70, 0
6, 58272, Note_on_c, 12, 65, 110
6, 58318, Note_on_c, 12, 65, 0
6, 58320, Note_on_c, 12, 68, 110
6, 58414, Note_on_c, 12, 68, 0
6, 58416, Note_on_c, 12, 70, 110
6, 58558, Note_on_c, 12, 70, 0
6, 58656, Note_on_c, 12, 61, 110
6, 58656, Note_on_c, 12, 65, 110
6, 58656, Note_on_c, 12, 70, 110
6, 58702, Note_on_c, 12, 61, 0
6, 58702, Note_on_c, 12, 65, 0
6, 58702, Note_on_c, 12, 70, 0
6, 58704, Note_on_c, 12, 61, 110
6, 58704, Note_on_c, 12, 65, 110
6, 58704, Note_on_c, 12, 70, 110
6, 58750, Note_on_c, 12, 61, 0
6, 58750, Note_on_c, 12, 65, 0
6, 58750, Note_on_c, 12, 70, 0
6, 58752, Note_on_c, 12, 61, 110
6, 58752, Note_on_c, 12, 65, 110
6, 58752, Note_on_c, 12, 70, 110
6, 58846, Note_on_c, 12, 61, 0
6, 58846, Note_on_c, 12, 65, 0
6, 58846, Note_on_c, 12, 70, 0
6, 58848, Note_on_c, 12, 70, 110
6, 58894, Note_on_c, 12, 70, 0
6, 58896, Note_on_c, 12, 65, 110
6, 58896, Note_on_c, 12, 70, 110
6, 58896, Note_on_c, 12, 73, 110
6, 58990, Note_on_c, 12, 65, 0
6, 58990, Note_on_c, 12, 70, 0
6, 58990, Note_on_c, 12, 73, 0
6, 58992, Note_on_c, 12, 72, 110
6, 59086, Note_on_c, 12, 72, 0
6, 59088, Note_on_c, 12, 65, 110
6, 59088, Note_on_c, 12, 70, 110
6, 59182, Note_on_c, 12, 65, 0
6, 59182, Note_on_c, 12, 70, 0
6, 59184, Note_on_c, 12, 68, 110
6, 59326, Note_on_c, 12, 68, 0
6, 60960, Note_on_c, 12, 61, 110
6, 60960, Note_on_c, 12, 65, 110
6, 60960, Note_on_c, 12, 70, 110
6, 61006, Note_on_c, 12, 61, 0
6, 61006, Note_on_c, 12, 65, 0
6, 61006, Note_on_c, 12, 70, 0
6, 61008, Note_on_c, 12, 61, 110
6, 61008, Note_on_c, 12, 65, 110
6, 61008, Note_on_c, 12, 70, 110
6, 61054, Note_on_c, 12, 61, 0
6, 61054, Note_on_c, 12, 65, 0
6, 61054, Note_on_c, 12, 70, 0
6, 61056, Note_on_c, 12, 61, 110
6, 61056, Note_on_c, 12, 65, 110
6, 61056, Note_on_c, 12, 70, 110
6, 61150, Note_on_c, 12, 61, 0
6, 61150, Note_on_c, 12, 65, 0
6, 61150, Note_on_c, 12, 70, 0
6, 61152, Note_on_c, 12, 61, 110
6, 61152, Note_on_c, 12, 65, 110
6, 61152, Note_on_c, 12, 70, 110
6, 61198, Note_on_c, 12, 61, 0
6, 61198, Note_on_c, 12, 65, 0
6, 61198, Note_on_c, 12, 70, 0
6, 61200, Note_on_c, 12, 61, 110
6, 61200, Note_on_c, 12, 65, 110
6, 61200, Note_on_c, 12, 70, 110
6, 61342, Note_on_c, 12, 61, 0
6, 61342, Note_on_c, 12, 65, 0
6, 61342, Note_on_c, 12, 70, 0
6, 61344, Note_on_c, 12, 65, 110
6, 61390, Note_on_c, 12, 65, 0
6, 61392, Note_on_c, 12, 68, 110
6, 61486, Note_on_c, 12, 68, 0
6, 61488, Note_on_c, 12, 70, 110
6, 61630, Note_on_c, 12, 70, 0
6, 62496, Note_on_c, 12, 61, 110
6, 62496, Note_on_c, 12, 65, 110
6, 62496, Note_on_c, 12, 70, 110
6, 62542, Note_on_c, 12, 61, 0
6, 62542, Note_on_c, 12, 65, 0
6, 62542, Note_on_c, 12, 70, 0
6, 62544, Note_on_c, 12, 61, 110
6, 62544, Note_on_c, 12, 65, 110
6, 62544, Note_on_c, 12, 70, 110
6, 62590, Note_on_c, 12, 61, 0
6, 62590, Note_on_c, 12, 65, 0
6, 62590, Note_on_c, 12, 70, 0
6, 62592, Note_on_c, 12, 61, 110
6, 62592, Note_on_c, 12, 65, 110
6, 62592, Note_on_c, 12, 70, 110
6, 62686, Note_on_c, 12, 61, 0
6, 62686, Note_on_c, 12, 65, 0
6, 62686, Note_on_c, 12, 70, 0
6, 62688, Note_on_c, 12, 61, 110
6, 62688, Note_on_c, 12, 65, 110
6, 62688, Note_on_c, 12, 70, 110
6, 62734, Note_on_c, 12, 61, 0
6, 62734, Note_on_c, 12, 65, 0
6, 62734, Note_on_c, 12, 70, 0
6, 62736, Note_on_c, 12, 61, 110
6, 62736, Note_on_c, 12, 65, 110
6, 62736, Note_on_c, 12, 70, 110
6, 62878, Note_on_c, 12, 61, 0
6, 62878, Note_on_c, 12, 65, 0
6, 62878, Note_on_c, 12, 70, 0
6, 62880, Note_on_c, 12, 65, 110
6, 62926, Note_on_c, 12, 65, 0
6, 62928, Note_on_c, 12, 68, 110
6, 63022, Note_on_c, 12, 68, 0
6, 63024, Note_on_c, 12, 70, 110
6, 63166, Note_on_c, 12, 70, 0
6, 64800, Note_on_c, 12, 65, 110
6, 64846, Note_on_c, 12, 65, 0
6, 64848, Note_on_c, 12, 65, 110
6, 64894, Note_on_c, 12, 65, 0
6, 64896, Note_on_c, 12, 65, 110
6, 64990, Note_on_c, 12, 65, 0
6, 64992, Note_on_c, 12, 65, 110
6, 65038, Note_on_c, 12, 65, 0
6, 65040, Note_on_c, 12, 65, 110
6, 65182, Note_on_c, 12, 65, 0
6, 65184, Note_on_c, 12, 61, 110
6, 65230, Note_on_c, 12, 61, 0
6, 65232, Note_on_c, 12, 63, 110
6, 65326, Note_on_c, 12, 63, 0
6, 65328, Note_on_c, 12, 65, 110
6, 65470, Note_on_c, 12, 65, 0
6, 65760, Note_on_c, 12, 61, 110
6, 65806, Note_on_c, 12, 61, 0
6, 65808, Note_on_c, 12, 60, 110
6, 66208, Note_on_c, 12, 60, 0
6, 66240, Note_on_c, 12, 65, 110
6, 66334, Note_on_c, 12, 65, 0
6, 66336, Note_on_c, 12, 63, 110
6, 66382, Note_on_c, 12, 63, 0
6, 66384, Note_on_c, 12, 63, 110
6, 66574, Note_on_c, 12, 63, 0
6, 66576, Note_on_c, 12, 61, 110
6, 66622, Note_on_c, 12, 61, 0
6, 66624, Note_on_c, 12, 63, 110
6, 66718, Note_on_c, 12, 63, 0
6, 66720, Note_on_c, 12, 65, 110
6, 67744, Note_on_c, 12, 65, 0
6, 67744, End_track
7, 0, Start_track
7, 0, MIDI_port, 0
7, 0, Title_t, "bumblebeeboogie@hotmail."
7, 0, Program_c, 13, 75
7, 0, Control_c, 13, 7, 127
7, 0, Control_c, 13, 10, 64
7, 13824, Note_on_c, 13, 61, 110
7, 13918, Note_on_c, 13, 61, 0
7, 13920, Note_on_c, 13, 63, 110
7, 14014, Note_on_c, 13, 63, 0
7, 14016, Note_on_c, 13, 61, 110
7, 14110, Note_on_c, 13, 61, 0
7, 14112, Note_on_c, 13, 61, 110
7, 14158, Note_on_c, 13, 61, 0
7, 14160, Note_on_c, 13, 61, 110
7, 14254, Note_on_c, 13, 61, 0
7, 14256, Note_on_c, 13, 61, 110
7, 14350, Note_on_c, 13, 61, 0
7, 14352, Note_on_c, 13, 61, 110
7, 14446, Note_on_c, 13, 61, 0
7, 14448, Note_on_c, 13, 58, 110
7, 14590, Note_on_c, 13, 58, 0
7, 14592, Note_on_c, 13, 63, 110
7, 14686, Note_on_c, 13, 63, 0
7, 14688, Note_on_c, 13, 61, 110
7, 14782, Note_on_c, 13, 61, 0
7, 14784, Note_on_c, 13, 61, 110
7, 14878, Note_on_c, 13, 61, 0
7, 14880, Note_on_c, 13, 58, 110
7, 14926, Note_on_c, 13, 58, 0
7, 14928, Note_on_c, 13, 58, 110
7, 15022, Note_on_c, 13, 58, 0
7, 15024, Note_on_c, 13, 58, 110
7, 15118, Note_on_c, 13, 58, 0
7, 15120, Note_on_c, 13, 58, 110
7, 15328, Note_on_c, 13, 58, 0
7, 15456, Note_on_c, 13, 56, 110
7, 15502, Note_on_c, 13, 56, 0
7, 15504, Note_on_c, 13, 58, 110
7, 15550, Note_on_c, 13, 58, 0
7, 15552, Note_on_c, 13, 60, 110
7, 15646, Note_on_c, 13, 60, 0
7, 15648, Note_on_c, 13, 60, 110
7, 15694, Note_on_c, 13, 60, 0
7, 15696, Note_on_c, 13, 60, 110
7, 15790, Note_on_c, 13, 60, 0
7, 15792, Note_on_c, 13, 60, 110
7, 15886, Note_on_c, 13, 60, 0
7, 15888, Note_on_c, 13, 60, 110
7, 16030, Note_on_c, 13, 60, 0
7, 16032, Note_on_c, 13, 60, 110
7, 16078, Note_on_c, 13, 60, 0
7, 16080, Note_on_c, 13, 63, 110
7, 16270, Note_on_c, 13, 63, 0
7, 16272, Note_on_c, 13, 66, 110
7, 16318, Note_on_c, 13, 66, 0
7, 16320, Note_on_c, 13, 61, 110
7, 16414, Note_on_c, 13, 61, 0
7, 16416, Note_on_c, 13, 61, 110
7, 16672, Note_on_c, 13, 61, 0
7, 16896, Note_on_c, 13, 58, 110
7, 16990, Note_on_c, 13, 58, 0
7, 16992, Note_on_c, 13, 60, 110
7, 17086, Note_on_c, 13, 60, 0
7, 17088, Note_on_c, 13, 61, 110
7, 17182, Note_on_c, 13, 61, 0
7, 17184, Note_on_c, 13, 61, 110
7, 17230, Note_on_c, 13, 61, 0
7, 17232, Note_on_c, 13, 61, 110
7, 17326, Note_on_c, 13, 61, 0
7, 17328, Note_on_c, 13, 61, 110
7, 17422, Note_on_c, 13, 61, 0
7, 17424, Note_on_c, 13, 61, 110
7, 17518, Note_on_c, 13, 61, 0
7, 17520, Note_on_c, 13, 61, 110
7, 17662, Note_on_c, 13, 61, 0
7, 17664, Note_on_c, 13, 66, 110
7, 17758, Note_on_c, 13, 66, 0
7, 17760, Note_on_c, 13, 65, 110
7, 17854, Note_on_c, 13, 65, 0
7, 17856, Note_on_c, 13, 65, 110
7, 17950, Note_on_c, 13, 65, 0
7, 17952, Note_on_c, 13, 63, 110
7, 17998, Note_on_c, 13, 63, 0
7, 18000, Note_on_c, 13, 63, 110
7, 18094, Note_on_c, 13, 63, 0
7, 18096, Note_on_c, 13, 63, 110
7, 18190, Note_on_c, 13, 63, 0
7, 18192, Note_on_c, 13, 63, 110
7, 18400, Note_on_c, 13, 63, 0
7, 18528, Note_on_c, 13, 61, 110
7, 18574, Note_on_c, 13, 61, 0
7, 18576, Note_on_c, 13, 60, 110
7, 18784, Note_on_c, 13, 60, 0
7, 18912, Note_on_c, 13, 60, 110
7, 18958, Note_on_c, 13, 60, 0
7, 18960, Note_on_c, 13, 60, 110
7, 19006, Note_on_c, 13, 60, 0
7, 19008, Note_on_c, 13, 65, 110
7, 19102, Note_on_c, 13, 65, 0
7, 19104, Note_on_c, 13, 63, 110
7, 19150, Note_on_c, 13, 63, 0
7, 19152, Note_on_c, 13, 61, 110
7, 19342, Note_on_c, 13, 61, 0
7, 19344, Note_on_c, 13, 60, 110
7, 19390, Note_on_c, 13, 60, 0
7, 19392, Note_on_c, 13, 61, 110
7, 19438, Note_on_c, 13, 61, 0
7, 19440, Note_on_c, 13, 60, 110
7, 19486, Note_on_c, 13, 60, 0
7, 19488, Note_on_c, 13, 58, 110
7, 19920, Note_on_c, 13, 58, 0
7, 20064, Note_on_c, 13, 61, 110
7, 20110, Note_on_c, 13, 61, 0
7, 20112, Note_on_c, 13, 60, 110
7, 20320, Note_on_c, 13, 60, 0
7, 20448, Note_on_c, 13, 60, 110
7, 20494, Note_on_c, 13, 60, 0
7, 20496, Note_on_c, 13, 60, 110
7, 20542, Note_on_c, 13, 60, 0
7, 20544, Note_on_c, 13, 65, 110
7, 20638, Note_on_c, 13, 65, 0
7, 20640, Note_on_c, 13, 63, 110
7, 20686, Note_on_c, 13, 63, 0
7, 20688, Note_on_c, 13, 61, 110
7, 20878, Note_on_c, 13, 61, 0
7, 20880, Note_on_c, 13, 53, 110
7, 20926, Note_on_c, 13, 53, 0
7, 20928, Note_on_c, 13, 60, 110
7, 21022, Note_on_c, 13, 60, 0
7, 21024, Note_on_c, 13, 58, 110
7, 21280, Note_on_c, 13, 58, 0
7, 21600, Note_on_c, 13, 63, 110
7, 21646, Note_on_c, 13, 63, 0
7, 21648, Note_on_c, 13, 63, 110
7, 21790, Note_on_c, 13, 63, 0
7, 21792, Note_on_c, 13, 65, 110
7, 22800, Note_on_c, 13, 65, 0
7, 23232, Note_on_c, 13, 64, 110
7, 23374, Note_on_c, 13, 64, 0
7, 23376, Note_on_c, 13, 64, 110
7, 23518, Note_on_c, 13, 64, 0
7, 23520, Note_on_c, 13, 64, 110
7, 23614, Note_on_c, 13, 64, 0
7, 23616, Note_on_c, 13, 64, 110
7, 23758, Note_on_c, 13, 64, 0
7, 23760, Note_on_c, 13, 62, 110
7, 23902, Note_on_c, 13, 62, 0
7, 23904, Note_on_c, 13, 60, 110
7, 23998, Note_on_c, 13, 60, 0
7, 24000, Note_on_c, 13, 62, 110
7, 24142, Note_on_c, 13, 62, 0
7, 24144, Note_on_c, 13, 62, 110
7, 24286, Note_on_c, 13, 62, 0
7, 24288, Note_on_c, 13, 62, 110
7, 24382, Note_on_c, 13, 62, 0
7, 24384, Note_on_c, 13, 62, 110
7, 24544, Note_on_c, 13, 62, 0
7, 24576, Note_on_c, 13, 59, 110
7, 24670, Note_on_c, 13, 59, 0
7, 24672, Note_on_c, 13, 60, 110
7, 24766, Note_on_c, 13, 60, 0
7, 24768, Note_on_c, 13, 62, 110
7, 24910, Note_on_c, 13, 62, 0
7, 24912, Note_on_c, 13, 62, 110
7, 25054, Note_on_c, 13, 62, 0
7, 25056, Note_on_c, 13, 62, 110
7, 25150, Note_on_c, 13, 62, 0
7, 25152, Note_on_c, 13, 62, 110
7, 25312, Note_on_c, 13, 62, 0
7, 25344, Note_on_c, 13, 60, 110
7, 25438, Note_on_c, 13, 60, 0
7, 25440, Note_on_c, 13, 59, 110
7, 25534, Note_on_c, 13, 59, 0
7, 25536, Note_on_c, 13, 59, 110
7, 25678, Note_on_c, 13, 59, 0
7, 25680, Note_on_c, 13, 60, 110
7, 25822, Note_on_c, 13, 60, 0
7, 25824, Note_on_c, 13, 60, 110
7, 26272, Note_on_c, 13, 60, 0
7, 26304, Note_on_c, 13, 64, 110
7, 26446, Note_on_c, 13, 64, 0
7, 26448, Note_on_c, 13, 64, 110
7, 26590, Note_on_c, 13, 64, 0
7, 26592, Note_on_c, 13, 64, 110
7, 26686, Note_on_c, 13, 64, 0
7, 26688, Note_on_c, 13, 64, 110
7, 26830, Note_on_c, 13, 64, 0
7, 26832, Note_on_c, 13, 62, 110
7, 26974, Note_on_c, 13, 62, 0
7, 26976, Note_on_c, 13, 60, 110
7, 27070, Note_on_c, 13, 60, 0
7, 27072, Note_on_c, 13, 62, 110
7, 27214, Note_on_c, 13, 62, 0
7, 27216, Note_on_c, 13, 62, 110
7, 27358, Note_on_c, 13, 62, 0
7, 27360, Note_on_c, 13, 62, 110
7, 27454, Note_on_c, 13, 62, 0
7, 27456, Note_on_c, 13, 62, 110
7, 27616, Note_on_c, 13, 62, 0
7, 27648, Note_on_c, 13, 59, 110
7, 27742, Note_on_c, 13, 59, 0
7, 27744, Note_on_c, 13, 60, 110
7, 27838, Note_on_c, 13, 60, 0
7, 27840, Note_on_c, 13, 62, 110
7, 27982, Note_on_c, 13, 62, 0
7, 27984, Note_on_c, 13, 62, 110
7, 28126, Note_on_c, 13, 62, 0
7, 28128, Note_on_c, 13, 62, 110
7, 28222, Note_on_c, 13, 62, 0
7, 28224, Note_on_c, 13, 62, 110
7, 28366, Note_on_c, 13, 62, 0
7, 28368, Note_on_c, 13, 64, 110
7, 28510, Note_on_c, 13, 64, 0
7, 28512, Note_on_c, 13, 65, 110
7, 28606, Note_on_c, 13, 65, 0
7, 28608, Note_on_c, 13, 60, 110
7, 28608, Note_on_c, 13, 64, 110
7, 28944, Note_on_c, 13, 60, 0
7, 28944, Note_on_c, 13, 64, 0
7, 29568, Note_on_c, 13, 69, 110
7, 29662, Note_on_c, 13, 69, 0
7, 29664, Note_on_c, 13, 60, 110
7, 29758, Note_on_c, 13, 60, 0
7, 29760, Note_on_c, 13, 60, 110
7, 29920, Note_on_c, 13, 60, 0
7, 29952, Note_on_c, 13, 62, 110
7, 30046, Note_on_c, 13, 62, 0
7, 30048, Note_on_c, 13, 65, 110
7, 30142, Note_on_c, 13, 65, 0
7, 30144, Note_on_c, 13, 64, 110
7, 30238, Note_on_c, 13, 64, 0
7, 30240, Note_on_c, 13, 62, 110
7, 30286, Note_on_c, 13, 62, 0
7, 30288, Note_on_c, 13, 62, 110
7, 30382, Note_on_c, 13, 62, 0
7, 30384, Note_on_c, 13, 60, 110
7, 30430, Note_on_c, 13, 60, 0
7, 30432, Note_on_c, 13, 60, 110
7, 30688, Note_on_c, 13, 60, 0
7, 31104, Note_on_c, 13, 65, 110
7, 31264, Note_on_c, 13, 65, 0
7, 31296, Note_on_c, 13, 67, 110
7, 31456, Note_on_c, 13, 67, 0
7, 31488, Note_on_c, 13, 65, 110
7, 31648, Note_on_c, 13, 65, 0
7, 31680, Note_on_c, 13, 65, 110
7, 32016, Note_on_c, 13, 65, 0
7, 32256, Note_on_c, 13, 61, 110
7, 32350, Note_on_c, 13, 61, 0
7, 32352, Note_on_c, 13, 63, 110
7, 32446, Note_on_c, 13, 63, 0
7, 32448, Note_on_c, 13, 65, 110
7, 32542, Note_on_c, 13, 65, 0
7, 32544, Note_on_c, 13, 65, 110
7, 32590, Note_on_c, 13, 65, 0
7, 32592, Note_on_c, 13, 65, 110
7, 32686, Note_on_c, 13, 65, 0
7, 32688, Note_on_c, 13, 65, 110
7, 32782, Note_on_c, 13, 65, 0
7, 32784, Note_on_c, 13, 65, 110
7, 32878, Note_on_c, 13, 65, 0
7, 32880, Note_on_c, 13, 61, 110
7, 33022, Note_on_c, 13, 61, 0
7, 33024, Note_on_c, 13, 66, 110
7, 33118, Note_on_c, 13, 66, 0
7, 33120, Note_on_c, 13, 65, 110
7, 33214, Note_on_c, 13, 65, 0
7, 33216, Note_on_c, 13, 65, 110
7, 33310, Note_on_c, 13, 65, 0
7, 33312, Note_on_c, 13, 63, 110
7, 33358, Note_on_c, 13, 63, 0
7, 33360, Note_on_c, 13, 63, 110
7, 33454, Note_on_c, 13, 63, 0
7, 33456, Note_on_c, 13, 63, 110
7, 33550, Note_on_c, 13, 63, 0
7, 33552, Note_on_c, 13, 63, 110
7, 33760, Note_on_c, 13, 63, 0
7, 33888, Note_on_c, 13, 60, 110
7, 33934, Note_on_c, 13, 60, 0
7, 33936, Note_on_c, 13, 61, 110
7, 33982, Note_on_c, 13, 61, 0
7, 33984, Note_on_c, 13, 63, 110
7, 34078, Note_on_c, 13, 63, 0
7, 34080, Note_on_c, 13, 63, 110
7, 34126, Note_on_c, 13, 63, 0
7, 34128, Note_on_c, 13, 63, 110
7, 34222, Note_on_c, 13, 63, 0
7, 34224, Note_on_c, 13, 63, 110
7, 34318, Note_on_c, 13, 63, 0
7, 34320, Note_on_c, 13, 63, 110
7, 34462, Note_on_c, 13, 63, 0
7, 34464, Note_on_c, 13, 63, 110
7, 34510, Note_on_c, 13, 63, 0
7, 34512, Note_on_c, 13, 68, 110
7, 34702, Note_on_c, 13, 68, 0
7, 34704, Note_on_c, 13, 66, 110
7, 34750, Note_on_c, 13, 66, 0
7, 34752, Note_on_c, 13, 65, 110
7, 34846, Note_on_c, 13, 65, 0
7, 34848, Note_on_c, 13, 65, 110
7, 35104, Note_on_c, 13, 65, 0
7, 35328, Note_on_c, 13, 61, 110
7, 35422, Note_on_c, 13, 61, 0
7, 35424, Note_on_c, 13, 63, 110
7, 35518, Note_on_c, 13, 63, 0
7, 35520, Note_on_c, 13, 65, 110
7, 35614, Note_on_c, 13, 65, 0
7, 35616, Note_on_c, 13, 65, 110
7, 35662, Note_on_c, 13, 65, 0
7, 35664, Note_on_c, 13, 65, 110
7, 35758, Note_on_c, 13, 65, 0
7, 35760, Note_on_c, 13, 65, 110
7, 35854, Note_on_c, 13, 65, 0
7, 35856, Note_on_c, 13, 65, 110
7, 35950, Note_on_c, 13, 65, 0
7, 35952, Note_on_c, 13, 65, 110
7, 36094, Note_on_c, 13, 65, 0
7, 36096, Note_on_c, 13, 70, 110
7, 36190, Note_on_c, 13, 70, 0
7, 36192, Note_on_c, 13, 68, 110
7, 36286, Note_on_c, 13, 68, 0
7, 36288, Note_on_c, 13, 68, 110
7, 36382, Note_on_c, 13, 68, 0
7, 36384, Note_on_c, 13, 66, 110
7, 36430, Note_on_c, 13, 66, 0
7, 36432, Note_on_c, 13, 66, 110
7, 36526, Note_on_c, 13, 66, 0
7, 36528, Note_on_c, 13, 66, 110
7, 36622, Note_on_c, 13, 66, 0
7, 36624, Note_on_c, 13, 66, 110
7, 36832, Note_on_c, 13, 66, 0
7, 36960, Note_on_c, 13, 61, 110
7, 37006, Note_on_c, 13, 61, 0
7, 37008, Note_on_c, 13, 60, 110
7, 37216, Note_on_c, 13, 60, 0
7, 37344, Note_on_c, 13, 60, 110
7, 37390, Note_on_c, 13, 60, 0
7, 37392, Note_on_c, 13, 60, 110
7, 37438, Note_on_c, 13, 60, 0
7, 37440, Note_on_c, 13, 65, 110
7, 37534, Note_on_c, 13, 65, 0
7, 37536, Note_on_c, 13, 63, 110
7, 37582, Note_on_c, 13, 63, 0
7, 37584, Note_on_c, 13, 61, 110
7, 37774, Note_on_c, 13, 61, 0
7, 37776, Note_on_c, 13, 60, 110
7, 37822, Note_on_c, 13, 60, 0
7, 37824, Note_on_c, 13, 61, 110
7, 37870, Note_on_c, 13, 61, 0
7, 37872, Note_on_c, 13, 60, 110
7, 37918, Note_on_c, 13, 60, 0
7, 37920, Note_on_c, 13, 58, 110
7, 38352, Note_on_c, 13, 58, 0
7, 38496, Note_on_c, 13, 61, 110
7, 38542, Note_on_c, 13, 61, 0
7, 38544, Note_on_c, 13, 60, 110
7, 38752, Note_on_c, 13, 60, 0
7, 38880, Note_on_c, 13, 60, 110
7, 38926, Note_on_c, 13, 60, 0
7, 38928, Note_on_c, 13, 60, 110
7, 38974, Note_on_c, 13, 60, 0
7, 38976, Note_on_c, 13, 65, 110
7, 39070, Note_on_c, 13, 65, 0
7, 39072, Note_on_c, 13, 63, 110
7, 39118, Note_on_c, 13, 63, 0
7, 39120, Note_on_c, 13, 61, 110
7, 39310, Note_on_c, 13, 61, 0
7, 39312, Note_on_c, 13, 53, 110
7, 39358, Note_on_c, 13, 53, 0
7, 39360, Note_on_c, 13, 60, 110
7, 39454, Note_on_c, 13, 60, 0
7, 39456, Note_on_c, 13, 58, 110
7, 39712, Note_on_c, 13, 58, 0
7, 40032, Note_on_c, 13, 63, 110
7, 40078, Note_on_c, 13, 63, 0
7, 40080, Note_on_c, 13, 63, 110
7, 40222, Note_on_c, 13, 63, 0
7, 40224, Note_on_c, 13, 65, 110
7, 40864, Note_on_c, 13, 65, 0
7, 41472, Note_on_c, 13, 62, 110
7, 41566, Note_on_c, 13, 62, 0
7, 41568, Note_on_c, 13, 64, 110
7, 41662, Note_on_c, 13, 64, 0
7, 41664, Note_on_c, 13, 65, 110
7, 41806, Note_on_c, 13, 65, 0
7, 41808, Note_on_c, 13, 65, 110
7, 41950, Note_on_c, 13, 65, 0
7, 41952, Note_on_c, 13, 65, 110
7, 42046, Note_on_c, 13, 65, 0
7, 42048, Note_on_c, 13, 67, 110
7, 42190, Note_on_c, 13, 67, 0
7, 42192, Note_on_c, 13, 64, 110
7, 42334, Note_on_c, 13, 64, 0
7, 42336, Note_on_c, 13, 65, 110
7, 42430, Note_on_c, 13, 65, 0
7, 42432, Note_on_c, 13, 64, 110
7, 42768, Note_on_c, 13, 64, 0
7, 43104, Note_on_c, 13, 64, 110
7, 43198, Note_on_c, 13, 64, 0
7, 43200, Note_on_c, 13, 69, 110
7, 43342, Note_on_c, 13, 69, 0
7, 43344, Note_on_c, 13, 67, 110
7, 43486, Note_on_c, 13, 67, 0
7, 43488, Note_on_c, 13, 64, 110
7, 43582, Note_on_c, 13, 64, 0
7, 43584, Note_on_c, 13, 64, 110
7, 43630, Note_on_c, 13, 64, 0
7, 43632, Note_on_c, 13, 62, 110
7, 43678, Note_on_c, 13, 62, 0
7, 43680, Note_on_c, 13, 60, 110
7, 43726, Note_on_c, 13, 60, 0
7, 43728, Note_on_c, 13, 62, 110
7, 43774, Note_on_c, 13, 62, 0
7, 43776, Note_on_c, 13, 64, 110
7, 43870, Note_on_c, 13, 64, 0
7, 43872, Note_on_c, 13, 65, 110
7, 44128, Note_on_c, 13, 65, 0
7, 44544, Note_on_c, 13, 57, 110
7, 44638, Note_on_c, 13, 57, 0
7, 44640, Note_on_c, 13, 60, 110
7, 44734, Note_on_c, 13, 60, 0
7, 44736, Note_on_c, 13, 62, 110
7, 44878, Note_on_c, 13, 62, 0
7, 44880, Note_on_c, 13, 62, 110
7, 45022, Note_on_c, 13, 62, 0
7, 45024, Note_on_c, 13, 67, 110
7, 45118, Note_on_c, 13, 67, 0
7, 45120, Note_on_c, 13, 64, 110
7, 45280, Note_on_c, 13, 64, 0
7, 45504, Note_on_c, 13, 60, 110
7, 45646, Note_on_c, 13, 60, 0
7, 45648, Note_on_c, 13, 59, 110
7, 45790, Note_on_c, 13, 59, 0
7, 45792, Note_on_c, 13, 57, 110
7, 45886, Note_on_c, 13, 57, 0
7, 45888, Note_on_c, 13, 60, 110
7, 46030, Note_on_c, 13, 60, 0
7, 46032, Note_on_c, 13, 59, 110
7, 46174, Note_on_c, 13, 59, 0
7, 46176, Note_on_c, 13, 57, 110
7, 46270, Note_on_c, 13, 57, 0
7, 46272, Note_on_c, 13, 62, 110
7, 46414, Note_on_c, 13, 62, 0
7, 46416, Note_on_c, 13, 60, 110
7, 46558, Note_on_c, 13, 60, 0
7, 46560, Note_on_c, 13, 59, 110
7, 46654, Note_on_c, 13, 59, 0
7, 46656, Note_on_c, 13, 62, 110
7, 46798, Note_on_c, 13, 62, 0
7, 46800, Note_on_c, 13, 60, 110
7, 46942, Note_on_c, 13, 60, 0
7, 46944, Note_on_c, 13, 59, 110
7, 47038, Note_on_c, 13, 59, 0
7, 47040, Note_on_c, 13, 65, 110
7, 47182, Note_on_c, 13, 65, 0
7, 47184, Note_on_c, 13, 64, 110
7, 47326, Note_on_c, 13, 64, 0
7, 47328, Note_on_c, 13, 62, 110
7, 47422, Note_on_c, 13, 62, 0
7, 47424, Note_on_c, 13, 60, 110
7, 47566, Note_on_c, 13, 60, 0
7, 47568, Note_on_c, 13, 62, 110
7, 47710, Note_on_c, 13, 62, 0
7, 47712, Note_on_c, 13, 64, 110
7, 47806, Note_on_c, 13, 64, 0
7, 47808, Note_on_c, 13, 72, 110
7, 48912, Note_on_c, 13, 72, 0
7, 49152, Note_on_c, 13, 73, 110
7, 49246, Note_on_c, 13, 73, 0
7, 49248, Note_on_c, 13, 72, 110
7, 49342, Note_on_c, 13, 72, 0
7, 49344, Note_on_c, 13, 61, 110
7, 49438, Note_on_c, 13, 61, 0
7, 49440, Note_on_c, 13, 61, 110
7, 49486, Note_on_c, 13, 61, 0
7, 49488, Note_on_c, 13, 61, 110
7, 49582, Note_on_c, 13, 61, 0
7, 49584, Note_on_c, 13, 61, 110
7, 49678, Note_on_c, 13, 61, 0
7, 49680, Note_on_c, 13, 61, 110
7, 49774, Note_on_c, 13, 61, 0
7, 49776, Note_on_c, 13, 58, 110
7, 49918, Note_on_c, 13, 58, 0
7, 49920, Note_on_c, 13, 63, 110
7, 50014, Note_on_c, 13, 63, 0
7, 50016, Note_on_c, 13, 61, 110
7, 50110, Note_on_c, 13, 61, 0
7, 50112, Note_on_c, 13, 61, 110
7, 50206, Note_on_c, 13, 61, 0
7, 50208, Note_on_c, 13, 58, 110
7, 50254, Note_on_c, 13, 58, 0
7, 50256, Note_on_c, 13, 58, 110
7, 50350, Note_on_c, 13, 58, 0
7, 50352, Note_on_c, 13, 58, 110
7, 50446, Note_on_c, 13, 58, 0
7, 50448, Note_on_c, 13, 58, 110
7, 50656, Note_on_c, 13, 58, 0
7, 50784, Note_on_c, 13, 56, 110
7, 50830, Note_on_c, 13, 56, 0
7, 50832, Note_on_c, 13, 58, 110
7, 50878, Note_on_c, 13, 58, 0
7, 50880, Note_on_c, 13, 60, 110
7, 50974, Note_on_c, 13, 60, 0
7, 50976, Note_on_c, 13, 60, 110
7, 51022, Note_on_c, 13, 60, 0
7, 51024, Note_on_c, 13, 60, 110
7, 51118, Note_on_c, 13, 60, 0
7, 51120, Note_on_c, 13, 60, 110
7, 51214, Note_on_c, 13, 60, 0
7, 51216, Note_on_c, 13, 60, 110
7, 51358, Note_on_c, 13, 60, 0
7, 51360, Note_on_c, 13, 60, 110
7, 51406, Note_on_c, 13, 60, 0
7, 51408, Note_on_c, 13, 63, 110
7, 51598, Note_on_c, 13, 63, 0
7, 51600, Note_on_c, 13, 66, 110
7, 51646, Note_on_c, 13, 66, 0
7, 51648, Note_on_c, 13, 61, 110
7, 51742, Note_on_c, 13, 61, 0
7, 51744, Note_on_c, 13, 61, 110
7, 52000, Note_on_c, 13, 61, 0
7, 52224, Note_on_c, 13, 58, 110
7, 52318, Note_on_c, 13, 58, 0
7, 52320, Note_on_c, 13, 60, 110
7, 52414, Note_on_c, 13, 60, 0
7, 52416, Note_on_c, 13, 61, 110
7, 52510, Note_on_c, 13, 61, 0
7, 52512, Note_on_c, 13, 61, 110
7, 52558, Note_on_c, 13, 61, 0
7, 52560, Note_on_c, 13, 61, 110
7, 52654, Note_on_c, 13, 61, 0
7, 52656, Note_on_c, 13, 61, 110
7, 52750, Note_on_c, 13, 61, 0
7, 52752, Note_on_c, 13, 61, 110
7, 52846, Note_on_c, 13, 61, 0
7, 52848, Note_on_c, 13, 61, 110
7, 52990, Note_on_c, 13, 61, 0
7, 52992, Note_on_c, 13, 66, 110
7, 53086, Note_on_c, 13, 66, 0
7, 53088, Note_on_c, 13, 65, 110
7, 53182, Note_on_c, 13, 65, 0
7, 53184, Note_on_c, 13, 65, 110
7, 53278, Note_on_c, 13, 65, 0
7, 53280, Note_on_c, 13, 63, 110
7, 53326, Note_on_c, 13, 63, 0
7, 53328, Note_on_c, 13, 63, 110
7, 53422, Note_on_c, 13, 63, 0
7, 53424, Note_on_c, 13, 63, 110
7, 53518, Note_on_c, 13, 63, 0
7, 53520, Note_on_c, 13, 63, 110
7, 53728, Note_on_c, 13, 63, 0
7, 53856, Note_on_c, 13, 61, 110
7, 53902, Note_on_c, 13, 61, 0
7, 53904, Note_on_c, 13, 60, 110
7, 54112, Note_on_c, 13, 60, 0
7, 54240, Note_on_c, 13, 60, 110
7, 54286, Note_on_c, 13, 60, 0
7, 54288, Note_on_c, 13, 60, 110
7, 54334, Note_on_c, 13, 60, 0
7, 54336, Note_on_c, 13, 65, 110
7, 54430, Note_on_c, 13, 65, 0
7, 54432, Note_on_c, 13, 63, 110
7, 54478, Note_on_c, 13, 63, 0
7, 54480, Note_on_c, 13, 61, 110
7, 54670, Note_on_c, 13, 61, 0
7, 54672, Note_on_c, 13, 60, 110
7, 54718, Note_on_c, 13, 60, 0
7, 54720, Note_on_c, 13, 61, 110
7, 54766, Note_on_c, 13, 61, 0
7, 54768, Note_on_c, 13, 60, 110
7, 54814, Note_on_c, 13, 60, 0
7, 54816, Note_on_c, 13, 58, 110
7, 55248, Note_on_c, 13, 58, 0
7, 55392, Note_on_c, 13, 61, 110
7, 55438, Note_on_c, 13, 61, 0
7, 55440, Note_on_c, 13, 60, 110
7, 55648, Note_on_c, 13, 60, 0
7, 55776, Note_on_c, 13, 60, 110
7, 55822, Note_on_c, 13, 60, 0
7, 55824, Note_on_c, 13, 60, 110
7, 55870, Note_on_c, 13, 60, 0
7, 55872, Note_on_c, 13, 65, 110
7, 55966, Note_on_c, 13, 65, 0
7, 55968, Note_on_c, 13, 63, 110
7, 56014, Note_on_c, 13, 63, 0
7, 56016, Note_on_c, 13, 61, 110
7, 56206, Note_on_c, 13, 61, 0
7, 56208, Note_on_c, 13, 53, 110
7, 56254, Note_on_c, 13, 53, 0
7, 56256, Note_on_c, 13, 60, 110
7, 56350, Note_on_c, 13, 60, 0
7, 56352, Note_on_c, 13, 58, 110
7, 56608, Note_on_c, 13, 58, 0
7, 56928, Note_on_c, 13, 63, 110
7, 56974, Note_on_c, 13, 63, 0
7, 56976, Note_on_c, 13, 63, 110
7, 57118, Note_on_c, 13, 63, 0
7, 57120, Note_on_c, 13, 65, 110
7, 57760, Note_on_c, 13, 65, 0
7, 57792, Note_on_c, 13, 58, 110
7, 57886, Note_on_c, 13, 58, 0
7, 57888, Note_on_c, 13, 61, 110
7, 57888, Note_on_c, 13, 65, 110
7, 57888, Note_on_c, 13, 70, 110
7, 57934, Note_on_c, 13, 61, 0
7, 57934, Note_on_c, 13, 65, 0
7, 57934, Note_on_c, 13, 70, 0
7, 57936, Note_on_c, 13, 61, 110
7, 57936, Note_on_c, 13, 65, 110
7, 57936, Note_on_c, 13, 70, 110
7, 57982, Note_on_c, 13, 61, 0
7, 57982, Note_on_c, 13, 65, 0
7, 57982, Note_on_c, 13, 70, 0
7, 57984, Note_on_c, 13, 61, 110
7, 57984, Note_on_c, 13, 65, 110
7, 57984, Note_on_c, 13, 70, 110
7, 58078, Note_on_c, 13, 61, 0
7, 58078, Note_on_c, 13, 65, 0
7, 58078, Note_on_c, 13, 70, 0
7, 58080, Note_on_c, 13, 61, 110
7, 58080, Note_on_c, 13, 65, 110
7, 58080, Note_on_c, 13, 70, 110
7, 58126, Note_on_c, 13, 61, 0
7, 58126, Note_on_c, 13, 65, 0
7, 58126, Note_on_c, 13, 70, 0
7, 58128, Note_on_c, 13, 61, 110
7, 58128, Note_on_c, 13, 65, 110
7, 58128, Note_on_c, 13, 70, 110
7, 58270, Note_on_c, 13, 61, 0
7, 58270, Note_on_c, 13, 65, 0
7, 58270, Note_on_c, 13, 70, 0
7, 58272, Note_on_c, 13, 65, 110
7, 58318, Note_on_c, 13, 65, 0
7, 58320, Note_on_c, 13, 68, 110
7, 58414, Note_on_c, 13, 68, 0
7, 58416, Note_on_c, 13, 70, 110
7, 58558, Note_on_c, 13, 70, 0
7, 58656, Note_on_c, 13, 61, 110
7, 58656, Note_on_c, 13, 65, 110
7, 58656, Note_on_c, 13, 70, 110
7, 58702, Note_on_c, 13, 61, 0
7, 58702, Note_on_c, 13, 65, 0
7, 58702, Note_on_c, 13, 70, 0
7, 58704, Note_on_c, 13, 61, 110
7, 58704, Note_on_c, 13, 65, 110
7, 58704, Note_on_c, 13, 70, 110
7, 58750, Note_on_c, 13, 61, 0
7, 58750, Note_on_c, 13, 65, 0
7, 58750, Note_on_c, 13, 70, 0
7, 58752, Note_on_c, 13, 61, 110
7, 58752, Note_on_c, 13, 65, 110
7, 58752, Note_on_c, 13, 70, 110
7, 58846, Note_on_c, 13, 61, 0
7, 58846, Note_on_c, 13, 65, 0
7, 58846, Note_on_c, 13, 70, 0
7, 58848, Note_on_c, 13, 70, 110
7, 58894, Note_on_c, 13, 70, 0
7, 58896, Note_on_c, 13, 65, 110
7, 58896, Note_on_c, 13, 70, 110
7, 58896, Note_on_c, 13, 73, 110
7, 58990, Note_on_c, 13, 65, 0
7, 58990, Note_on_c, 13, 70, 0
7, 58990, Note_on_c, 13, 73, 0
7, 58992, Note_on_c, 13, 72, 110
7, 59086, Note_on_c, 13, 72, 0
7, 59088, Note_on_c, 13, 65, 110
7, 59088, Note_on_c, 13, 70, 110
7, 59182, Note_on_c, 13, 65, 0
7, 59182, Note_on_c, 13, 70, 0
7, 59184, Note_on_c, 13, 68, 110
7, 59326, Note_on_c, 13, 68, 0
7, 60960, Note_on_c, 13, 61, 110
7, 60960, Note_on_c, 13, 65, 110
7, 60960, Note_on_c, 13, 70, 110
7, 61006, Note_on_c, 13, 61, 0
7, 61006, Note_on_c, 13, 65, 0
7, 61006, Note_on_c, 13, 70, 0
7, 61008, Note_on_c, 13, 61, 110
7, 61008, Note_on_c, 13, 65, 110
7, 61008, Note_on_c, 13, 70, 110
7, 61054, Note_on_c, 13, 61, 0
7, 61054, Note_on_c, 13, 65, 0
7, 61054, Note_on_c, 13, 70, 0
7, 61056, Note_on_c, 13, 61, 110
7, 61056, Note_on_c, 13, 65, 110
7, 61056, Note_on_c, 13, 70, 110
7, 61150, Note_on_c, 13, 61, 0
7, 61150, Note_on_c, 13, 65, 0
7, 61150, Note_on_c, 13, 70, 0
7, 61152, Note_on_c, 13, 61, 110
7, 61152, Note_on_c, 13, 65, 110
7, 61152, Note_on_c, 13, 70, 110
7, 61198, Note_on_c, 13, 61, 0
7, 61198, Note_on_c, 13, 65, 0
7, 61198, Note_on_c, 13, 70, 0
7, 61200, Note_on_c, 13, 61, 110
7, 61200, Note_on_c, 13, 65, 110
7, 61200, Note_on_c, 13, 70, 110
7, 61342, Note_on_c, 13, 61, 0
7, 61342, Note_on_c, 13, 65, 0
7, 61342, Note_on_c, 13, 70, 0
7, 61344, Note_on_c, 13, 65, 110
7, 61390, Note_on_c, 13, 65, 0
7, 61392, Note_on_c, 13, 68, 110
7, 61486, Note_on_c, 13, 68, 0
7, 61488, Note_on_c, 13, 70, 110
7, 61630, Note_on_c, 13, 70, 0
7, 62496, Note_on_c, 13, 61, 110
7, 62496, Note_on_c, 13, 65, 110
7, 62496, Note_on_c, 13, 70, 110
7, 62542, Note_on_c, 13, 61, 0
7, 62542, Note_on_c, 13, 65, 0
7, 62542, Note_on_c, 13, 70, 0
7, 62544, Note_on_c, 13, 61, 110
7, 62544, Note_on_c, 13, 65, 110
7, 62544, Note_on_c, 13, 70, 110
7, 62590, Note_on_c, 13, 61, 0
7, 62590, Note_on_c, 13, 65, 0
7, 62590, Note_on_c, 13, 70, 0
7, 62592, Note_on_c, 13, 61, 110
7, 62592, Note_on_c, 13, 65, 110
7, 62592, Note_on_c, 13, 70, 110
7, 62686, Note_on_c, 13, 61, 0
7, 62686, Note_on_c, 13, 65, 0
7, 62686, Note_on_c, 13, 70, 0
7, 62688, Note_on_c, 13, 61, 110
7, 62688, Note_on_c, 13, 65, 110
7, 62688, Note_on_c, 13, 70, 110
7, 62734, Note_on_c, 13, 61, 0
7, 62734, Note_on_c, 13, 65, 0
7, 62734, Note_on_c, 13, 70, 0
7, 62736, Note_on_c, 13, 61, 110
7, 62736, Note_on_c, 13, 65, 110
7, 62736, Note_on_c, 13, 70, 110
7, 62878, Note_on_c, 13, 61, 0
7, 62878, Note_on_c, 13, 65, 0
7, 62878, Note_on_c, 13, 70, 0
7, 62880, Note_on_c, 13, 65, 110
7, 62926, Note_on_c, 13, 65, 0
7, 62928, Note_on_c, 13, 68, 110
7, 63022, Note_on_c, 13, 68, 0
7, 63024, Note_on_c, 13, 70, 110
7, 63166, Note_on_c, 13, 70, 0
7, 64800, Note_on_c, 13, 65, 110
7, 64846, Note_on_c, 13, 65, 0
7, 64848, Note_on_c, 13, 65, 110
7, 64894, Note_on_c, 13, 65, 0
7, 64896, Note_on_c, 13, 65, 110
7, 64990, Note_on_c, 13, 65, 0
7, 64992, Note_on_c, 13, 65, 110
7, 65038, Note_on_c, 13, 65, 0
7, 65040, Note_on_c, 13, 65, 110
7, 65182, Note_on_c, 13, 65, 0
7, 65184, Note_on_c, 13, 61, 110
7, 65230, Note_on_c, 13, 61, 0
7, 65232, Note_on_c, 13, 63, 110
7, 65326, Note_on_c, 13, 63, 0
7, 65328, Note_on_c, 13, 65, 110
7, 65470, Note_on_c, 13, 65, 0
7, 65760, Note_on_c, 13, 61, 110
7, 65806, Note_on_c, 13, 61, 0
7, 65808, Note_on_c, 13, 60, 110
7, 66208, Note_on_c, 13, 60, 0
7, 66240, Note_on_c, 13, 65, 110
7, 66334, Note_on_c, 13, 65, 0
7, 66336, Note_on_c, 13, 63, 110
7, 66382, Note_on_c, 13, 63, 0
7, 66384, Note_on_c, 13, 63, 110
7, 66574, Note_on_c, 13, 63, 0
7, 66576, Note_on_c, 13, 61, 110
7, 66622, Note_on_c, 13, 61, 0
7, 66624, Note_on_c, 13, 63, 110
7, 66718, Note_on_c, 13, 63, 0
7, 66720, Note_on_c, 13, 65, 110
7, 67744, Note_on_c, 13, 65, 0
7, 67744, End_track
8, 0, Start_track
8, 0, MIDI_port, 0
8, 0, Title_t, "com"
8, 0, Program_c, 14, 48
8, 0, Control_c, 14, 7, 127
8, 0, Control_c, 14, 10, 64
8, 960, Note_on_c, 14, 81, 110
8, 1696, Note_on_c, 14, 81, 0
8, 1728, Note_on_c, 14, 86, 110
8, 2398, Note_on_c, 14, 86, 0
8, 2400, Note_on_c, 14, 83, 110
8, 2494, Note_on_c, 14, 83, 0
8, 2496, Note_on_c, 14, 77, 110
8, 2832, Note_on_c, 14, 77, 0
8, 2880, Note_on_c, 14, 80, 110
8, 3232, Note_on_c, 14, 80, 0
8, 3264, Note_on_c, 14, 81, 110
8, 4768, Note_on_c, 14, 81, 0
8, 4768, End_track
9, 0, Start_track
9, 0, MIDI_port, 0
9, 0, Title_t, "Tout droits réservées"
9, 0, Program_c, 15, 89
9, 0, Control_c, 15, 7, 127
9, 0, Control_c, 15, 10, 64
9, 384, Note_on_c, 15, 69, 110
9, 928, Note_on_c, 15, 69, 0
9, 960, Note_on_c, 15, 45, 110
9, 960, Note_on_c, 15, 52, 110
9, 1696, Note_on_c, 15, 45, 0
9, 1696, Note_on_c, 15, 52, 0
9, 1728, Note_on_c, 15, 38, 110
9, 1728, Note_on_c, 15, 45, 110
9, 2464, Note_on_c, 15, 38, 0
9, 2464, Note_on_c, 15, 45, 0
9, 2496, Note_on_c, 15, 40, 110
9, 2496, Note_on_c, 15, 47, 110
9, 3232, Note_on_c, 15, 40, 0
9, 3232, Note_on_c, 15, 47, 0
9, 3264, Note_on_c, 15, 45, 110
9, 3264, Note_on_c, 15, 52, 110
9, 4768, Note_on_c, 15, 45, 0
9, 4768, Note_on_c, 15, 52, 0
9, 4800, Note_on_c, 15, 45, 110
9, 5536, Note_on_c, 15, 45, 0
9, 5568, Note_on_c, 15, 38, 110
9, 6304, Note_on_c, 15, 38, 0
9, 6336, Note_on_c, 15, 43, 110
9, 7072, Note_on_c, 15, 43, 0
9, 7104, Note_on_c, 15, 41, 110
9, 7840, Note_on_c, 15, 41, 0
9, 7872, Note_on_c, 15, 45, 110
9, 8608, Note_on_c, 15, 45, 0
9, 8640, Note_on_c, 15, 38, 110
9, 9376, Note_on_c, 15, 38, 0
9, 9408, Note_on_c, 15, 43, 110
9, 10144, Note_on_c, 15, 43, 0
9, 10176, Note_on_c, 15, 41, 110
9, 10912, Note_on_c, 15, 41, 0
9, 10944, Note_on_c, 15, 38, 110
9, 11680, Note_on_c, 15, 38, 0
9, 11712, Note_on_c, 15, 40, 110
9, 12448, Note_on_c, 15, 40, 0
9, 12480, Note_on_c, 15, 38, 110
9, 13216, Note_on_c, 15, 38, 0
9, 13248, Note_on_c, 15, 38, 110
9, 13984, Note_on_c, 15, 38, 0
9, 14016, Note_on_c, 15, 53, 110
9, 14752, Note_on_c, 15, 53, 0
9, 14784, Note_on_c, 15, 46, 110
9, 15520, Note_on_c, 15, 46, 0
9, 15552, Note_on_c, 15, 51, 110
9, 16288, Note_on_c, 15, 51, 0
9, 16320, Note_on_c, 15, 53, 110
9, 17056, Note_on_c, 15, 53, 0
9, 17088, Note_on_c, 15, 53, 110
9, 17824, Note_on_c, 15, 53, 0
9, 17856, Note_on_c, 15, 46, 110
9, 18592, Note_on_c, 15, 46, 0
9, 18624, Note_on_c, 15, 51, 110
9, 19360, Note_on_c, 15, 51, 0
9, 19392, Note_on_c, 15, 53, 110
9, 20128, Note_on_c, 15, 53, 0
9, 20160, Note_on_c, 15, 48, 110
9, 20896, Note_on_c, 15, 48, 0
9, 20928, Note_on_c, 15, 53, 110
9, 21664, Note_on_c, 15, 53, 0
9, 21696, Note_on_c, 15, 34, 110
9, 22800, Note_on_c, 15, 34, 0
9, 23232, Note_on_c, 15, 45, 110
9, 23968, Note_on_c, 15, 45, 0
9, 24000, Note_on_c, 15, 38, 110
9, 24736, Note_on_c, 15, 38, 0
9, 24768, Note_on_c, 15, 43, 110
9, 25504, Note_on_c, 15, 43, 0
9, 25536, Note_on_c, 15, 41, 110
9, 26272, Note_on_c, 15, 41, 0
9, 26304, Note_on_c, 15, 45, 110
9, 27040, Note_on_c, 15, 45, 0
9, 27072, Note_on_c, 15, 38, 110
9, 27808, Note_on_c, 15, 38, 0
9, 27840, Note_on_c, 15, 43, 110
9, 28576, Note_on_c, 15, 43, 0
9, 28608, Note_on_c, 15, 41, 110
9, 29344, Note_on_c, 15, 41, 0
9, 29376, Note_on_c, 15, 38, 110
9, 30112, Note_on_c, 15, 38, 0
9, 30144, Note_on_c, 15, 40, 110
9, 30880, Note_on_c, 15, 40, 0
9, 30912, Note_on_c, 15, 38, 110
9, 31648, Note_on_c, 15, 38, 0
9, 31680, Note_on_c, 15, 38, 110
9, 32416, Note_on_c, 15, 38, 0
9, 32448, Note_on_c, 15, 53, 110
9, 33184, Note_on_c, 15, 53, 0
9, 33216, Note_on_c, 15, 46, 110
9, 33952, Note_on_c, 15, 46, 0
9, 33984, Note_on_c, 15, 51, 110
9, 34720, Note_on_c, 15, 51, 0
9, 34752, Note_on_c, 15, 53, 110
9, 35488, Note_on_c, 15, 53, 0
9, 35520, Note_on_c, 15, 53, 110
9, 36256, Note_on_c, 15, 53, 0
9, 36288, Note_on_c, 15, 46, 110
9, 37024, Note_on_c, 15, 46, 0
9, 37056, Note_on_c, 15, 51, 110
9, 37792, Note_on_c, 15, 51, 0
9, 37824, Note_on_c, 15, 53, 110
9, 38560, Note_on_c, 15, 53, 0
9, 38592, Note_on_c, 15, 48, 110
9, 39328, Note_on_c, 15, 48, 0
9, 39360, Note_on_c, 15, 46, 110
9, 40096, Note_on_c, 15, 46, 0
9, 40128, Note_on_c, 15, 34, 110
9, 40864, Note_on_c, 15, 34, 0
9, 41664, Note_on_c, 15, 40, 110
9, 42400, Note_on_c, 15, 40, 0
9, 42432, Note_on_c, 15, 45, 110
9, 43168, Note_on_c, 15, 45, 0
9, 43200, Note_on_c, 15, 45, 110
9, 43936, Note_on_c, 15, 45, 0
9, 43968, Note_on_c, 15, 38, 110
9, 44704, Note_on_c, 15, 38, 0
9, 44736, Note_on_c, 15, 40, 110
9, 45472, Note_on_c, 15, 40, 0
9, 45504, Note_on_c, 15, 45, 110
9, 46240, Note_on_c, 15, 45, 0
9, 46272, Note_on_c, 15, 40, 110
9, 47008, Note_on_c, 15, 40, 0
9, 47040, Note_on_c, 15, 38, 110
9, 47776, Note_on_c, 15, 38, 0
9, 47808, Note_on_c, 15, 41, 110
9, 47808, Note_on_c, 15, 48, 110
9, 48912, Note_on_c, 15, 41, 0
9, 48912, Note_on_c, 15, 48, 0
9, 49344, Note_on_c, 15, 53, 110
9, 50080, Note_on_c, 15, 53, 0
9, 50112, Note_on_c, 15, 46, 110
9, 50848, Note_on_c, 15, 46, 0
9, 50880, Note_on_c, 15, 51, 110
9, 51616, Note_on_c, 15, 51, 0
9, 51648, Note_on_c, 15, 53, 110
9, 52384, Note_on_c, 15, 53, 0
9, 52416, Note_on_c, 15, 53, 110
9, 53152, Note_on_c, 15, 53, 0
9, 53184, Note_on_c, 15, 46, 110
9, 53920, Note_on_c, 15, 46, 0
9, 53952, Note_on_c, 15, 51, 110
9, 54688, Note_on_c, 15, 51, 0
9, 54720, Note_on_c, 15, 53, 110
9, 55456, Note_on_c, 15, 53, 0
9, 55488, Note_on_c, 15, 48, 110
9, 56224, Note_on_c, 15, 48, 0
9, 56256, Note_on_c, 15, 46, 110
9, 56992, Note_on_c, 15, 46, 0
9, 56992, End_track
10, 0, Start_track
10, 0, MIDI_port, 0
10, 0, Title_t, "Alex Legaree"
10, 0, Program_c, 0, 119
10, 0, Control_c, 0, 7, 127
10, 0, Control_c, 0, 10, 64
10, 672, Note_on_c, 0, 71, 110
10, 1104, Note_on_c, 0, 71, 0
10, 1104, End_track
11, 0, Start_track
11, 0, MIDI_port, 0
11, 0, Title_t, "MM3000!"
11, 0, Program_c, 1, 24
11, 0, Control_c, 1, 7, 127
11, 0, Control_c, 1, 10, 64
11, 888, Note_on_c, 1, 57, 110
11, 910, Note_on_c, 1, 57, 0
11, 912, Note_on_c, 1, 60, 110
11, 934, Note_on_c, 1, 60, 0
11, 936, Note_on_c, 1, 64, 110
11, 958, Note_on_c, 1, 64, 0
11, 1656, Note_on_c, 1, 57, 110
11, 1678, Note_on_c, 1, 57, 0
11, 1680, Note_on_c, 1, 62, 110
11, 1702, Note_on_c, 1, 62, 0
11, 1704, Note_on_c, 1, 65, 110
11, 1726, Note_on_c, 1, 65, 0
11, 2424, Note_on_c, 1, 56, 110
11, 2446, Note_on_c, 1, 56, 0
11, 2448, Note_on_c, 1, 59, 110
11, 2470, Note_on_c, 1, 59, 0
11, 2472, Note_on_c, 1, 65, 110
11, 2494, Note_on_c, 1, 65, 0
11, 3192, Note_on_c, 1, 57, 110
11, 3214, Note_on_c, 1, 57, 0
11, 3216, Note_on_c, 1, 60, 110
11, 3238, Note_on_c, 1, 60, 0
11, 3240, Note_on_c, 1, 64, 110
11, 3262, Note_on_c, 1, 64, 0
11, 3960, Note_on_c, 1, 57, 110
11, 3982, Note_on_c, 1, 57, 0
11, 3984, Note_on_c, 1, 60, 110
11, 4006, Note_on_c, 1, 60, 0
11, 4008, Note_on_c, 1, 64, 110
11, 4030, Note_on_c, 1, 64, 0
11, 4752, Note_on_c, 1, 57, 110
11, 4774, Note_on_c, 1, 57, 0
11, 4776, Note_on_c, 1, 60, 110
11, 4798, Note_on_c, 1, 60, 0
11, 5520, Note_on_c, 1, 53, 110
11, 5542, Note_on_c, 1, 53, 0
11, 5544, Note_on_c, 1, 57, 110
11, 5566, Note_on_c, 1, 57, 0
11, 6288, Note_on_c, 1, 55, 110
11, 6310, Note_on_c, 1, 55, 0
11, 6312, Note_on_c, 1, 59, 110
11, 6334, Note_on_c, 1, 59, 0
11, 6336, Note_on_c, 1, 55, 110
11, 6336, Note_on_c, 1, 59, 110
11, 6672, Note_on_c, 1, 55, 0
11, 6672, Note_on_c, 1, 59, 0
11, 7824, Note_on_c, 1, 57, 110
11, 7846, Note_on_c, 1, 57, 0
11, 7848, Note_on_c, 1, 60, 110
11, 7870, Note_on_c, 1, 60, 0
11, 8592, Note_on_c, 1, 53, 110
11, 8614, Note_on_c, 1, 53, 0
11, 8616, Note_on_c, 1, 57, 110
11, 8638, Note_on_c, 1, 57, 0
11, 9360, Note_on_c, 1, 55, 110
11, 9382, Note_on_c, 1, 55, 0
11, 9384, Note_on_c, 1, 59, 110
11, 9406, Note_on_c, 1, 59, 0
11, 10104, Note_on_c, 1, 57, 110
11, 10126, Note_on_c, 1, 57, 0
11, 10128, Note_on_c, 1, 60, 110
11, 10150, Note_on_c, 1, 60, 0
11, 10152, Note_on_c, 1, 64, 110
11, 10174, Note_on_c, 1, 64, 0
11, 10896, Note_on_c, 1, 53, 110
11, 10918, Note_on_c, 1, 53, 0
11, 10920, Note_on_c, 1, 57, 110
11, 10942, Note_on_c, 1, 57, 0
11, 11256, Note_on_c, 1, 53, 110
11, 11278, Note_on_c, 1, 53, 0
11, 11280, Note_on_c, 1, 57, 110
11, 11302, Note_on_c, 1, 57, 0
11, 11304, Note_on_c, 1, 60, 110
11, 11326, Note_on_c, 1, 60, 0
11, 11712, Note_on_c, 1, 55, 110
11, 12048, Note_on_c, 1, 55, 0
11, 12216, Note_on_c, 1, 55, 110
11, 12238, Note_on_c, 1, 55, 0
11, 12240, Note_on_c, 1, 60, 110
11, 12262, Note_on_c, 1, 60, 0
11, 12264, Note_on_c, 1, 64, 110
11, 12286, Note_on_c, 1, 64, 0
11, 12432, Note_on_c, 1, 57, 110
11, 12454, Note_on_c, 1, 57, 0
11, 12456, Note_on_c, 1, 62, 110
11, 12478, Note_on_c, 1, 62, 0
11, 13176, Note_on_c, 1, 58, 110
11, 13198, Note_on_c, 1, 58, 0
11, 13200, Note_on_c, 1, 60, 110
11, 13222, Note_on_c, 1, 60, 0
11, 13224, Note_on_c, 1, 65, 110
11, 13246, Note_on_c, 1, 65, 0
11, 13248, Note_on_c, 1, 58, 110
11, 13248, Note_on_c, 1, 60, 110
11, 13248, Note_on_c, 1, 65, 110
11, 13776, Note_on_c, 1, 58, 0
11, 13776, Note_on_c, 1, 60, 0
11, 13776, Note_on_c, 1, 65, 0
11, 16320, Note_on_c, 1, 58, 110
11, 16320, Note_on_c, 1, 61, 110
11, 16656, Note_on_c, 1, 58, 0
11, 16656, Note_on_c, 1, 61, 0
11, 19392, Note_on_c, 1, 53, 110
11, 19728, Note_on_c, 1, 53, 0
11, 19824, Note_on_c, 1, 58, 110
11, 19824, Note_on_c, 1, 61, 110
11, 19824, Note_on_c, 1, 65, 110
11, 19966, Note_on_c, 1, 58, 0
11, 19966, Note_on_c, 1, 61, 0
11, 19966, Note_on_c, 1, 65, 0
11, 19968, Note_on_c, 1, 56, 110
11, 19968, Note_on_c, 1, 60, 110
11, 19968, Note_on_c, 1, 63, 110
11, 20062, Note_on_c, 1, 56, 0
11, 20062, Note_on_c, 1, 60, 0
11, 20062, Note_on_c, 1, 63, 0
11, 20064, Note_on_c, 1, 54, 110
11, 20064, Note_on_c, 1, 58, 110
11, 20064, Note_on_c, 1, 61, 110
11, 20158, Note_on_c, 1, 54, 0
11, 20158, Note_on_c, 1, 58, 0
11, 20158, Note_on_c, 1, 61, 0
11, 20160, Note_on_c, 1, 53, 110
11, 20160, Note_on_c, 1, 56, 110
11, 20160, Note_on_c, 1, 60, 110
11, 20496, Note_on_c, 1, 53, 0
11, 20496, Note_on_c, 1, 56, 0
11, 20496, Note_on_c, 1, 60, 0
11, 20928, Note_on_c, 1, 56, 110
11, 21264, Note_on_c, 1, 56, 0
11, 21312, Note_on_c, 1, 53, 110
11, 21312, Note_on_c, 1, 58, 110
11, 21312, Note_on_c, 1, 61, 110
11, 21664, Note_on_c, 1, 53, 0
11, 21664, Note_on_c, 1, 58, 0
11, 21664, Note_on_c, 1, 61, 0
11, 21696, Note_on_c, 1, 58, 110
11, 22800, Note_on_c, 1, 58, 0
11, 23184, Note_on_c, 1, 57, 110
11, 23206, Note_on_c, 1, 57, 0
11, 23208, Note_on_c, 1, 60, 110
11, 23230, Note_on_c, 1, 60, 0
11, 23952, Note_on_c, 1, 53, 110
11, 23974, Note_on_c, 1, 53, 0
11, 23976, Note_on_c, 1, 57, 110
11, 23998, Note_on_c, 1, 57, 0
11, 24720, Note_on_c, 1, 55, 110
11, 24742, Note_on_c, 1, 55, 0
11, 24744, Note_on_c, 1, 59, 110
11, 24766, Note_on_c, 1, 59, 0
11, 24768, Note_on_c, 1, 55, 110
11, 24768, Note_on_c, 1, 59, 110
11, 25104, Note_on_c, 1, 55, 0
11, 25104, Note_on_c, 1, 59, 0
11, 26256, Note_on_c, 1, 57, 110
11, 26278, Note_on_c, 1, 57, 0
11, 26280, Note_on_c, 1, 60, 110
11, 26302, Note_on_c, 1, 60, 0
11, 27024, Note_on_c, 1, 53, 110
11, 27046, Note_on_c, 1, 53, 0
11, 27048, Note_on_c, 1, 57, 110
11, 27070, Note_on_c, 1, 57, 0
11, 27792, Note_on_c, 1, 55, 110
11, 27814, Note_on_c, 1, 55, 0
11, 27816, Note_on_c, 1, 59, 110
11, 27838, Note_on_c, 1, 59, 0
11, 28536, Note_on_c, 1, 57, 110
11, 28558, Note_on_c, 1, 57, 0
11, 28560, Note_on_c, 1, 60, 110
11, 28582, Note_on_c, 1, 60, 0
11, 28584, Note_on_c, 1, 64, 110
11, 28606, Note_on_c, 1, 64, 0
11, 29328, Note_on_c, 1, 53, 110
11, 29350, Note_on_c, 1, 53, 0
11, 29352, Note_on_c, 1, 57, 110
11, 29374, Note_on_c, 1, 57, 0
11, 29688, Note_on_c, 1, 53, 110
11, 29710, Note_on_c, 1, 53, 0
11, 29712, Note_on_c, 1, 57, 110
11, 29734, Note_on_c, 1, 57, 0
11, 29736, Note_on_c, 1, 60, 110
11, 29758, Note_on_c, 1, 60, 0
11, 30144, Note_on_c, 1, 55, 110
11, 30480, Note_on_c, 1, 55, 0
11, 30648, Note_on_c, 1, 55, 110
11, 30670, Note_on_c, 1, 55, 0
11, 30672, Note_on_c, 1, 60, 110
11, 30694, Note_on_c, 1, 60, 0
11, 30696, Note_on_c, 1, 64, 110
11, 30718, Note_on_c, 1, 64, 0
11, 30864, Note_on_c, 1, 57, 110
11, 30886, Note_on_c, 1, 57, 0
11, 30888, Note_on_c, 1, 62, 110
11, 30910, Note_on_c, 1, 62, 0
11, 31608, Note_on_c, 1, 58, 110
11, 31630, Note_on_c, 1, 58, 0
11, 31632, Note_on_c, 1, 60, 110
11, 31654, Note_on_c, 1, 60, 0
11, 31656, Note_on_c, 1, 65, 110
11, 31678, Note_on_c, 1, 65, 0
11, 31680, Note_on_c, 1, 58, 110
11, 31680, Note_on_c, 1, 60, 110
11, 31680, Note_on_c, 1, 65, 110
11, 32208, Note_on_c, 1, 58, 0
11, 32208, Note_on_c, 1, 60, 0
11, 32208, Note_on_c, 1, 65, 0
11, 34752, Note_on_c, 1, 58, 110
11, 34752, Note_on_c, 1, 61, 110
11, 35088, Note_on_c, 1, 58, 0
11, 35088, Note_on_c, 1, 61, 0
11, 37824, Note_on_c, 1, 53, 110
11, 38160, Note_on_c, 1, 53, 0
11, 38256, Note_on_c, 1, 58, 110
11, 38256, Note_on_c, 1, 61, 110
11, 38256, Note_on_c, 1, 65, 110
11, 38398, Note_on_c, 1, 58, 0
11, 38398, Note_on_c, 1, 61, 0
11, 38398, Note_on_c, 1, 65, 0
11, 38400, Note_on_c, 1, 56, 110
11, 38400, Note_on_c, 1, 60, 110
11, 38400, Note_on_c, 1, 63, 110
11, 38494, Note_on_c, 1, 56, 0
11, 38494, Note_on_c, 1, 60, 0
11, 38494, Note_on_c, 1, 63, 0
11, 38496, Note_on_c, 1, 54, 110
11, 38496, Note_on_c, 1, 58, 110
11, 38496, Note_on_c, 1, 61, 110
11, 38590, Note_on_c, 1, 54, 0
11, 38590, Note_on_c, 1, 58, 0
11, 38590, Note_on_c, 1, 61, 0
11, 38592, Note_on_c, 1, 53, 110
11, 38592, Note_on_c, 1, 56, 110
11, 38592, Note_on_c, 1, 60, 110
11, 38928, Note_on_c, 1, 53, 0
11, 38928, Note_on_c, 1, 56, 0
11, 38928, Note_on_c, 1, 60, 0
11, 39360, Note_on_c, 1, 56, 110
11, 39696, Note_on_c, 1, 56, 0
11, 39744, Note_on_c, 1, 53, 110
11, 39744, Note_on_c, 1, 58, 110
11, 39744, Note_on_c, 1, 61, 110
11, 40096, Note_on_c, 1, 53, 0
11, 40096, Note_on_c, 1, 58, 0
11, 40096, Note_on_c, 1, 61, 0
11, 40128, Note_on_c, 1, 58, 110
11, 40864, Note_on_c, 1, 58, 0
11, 40896, Note_on_c, 1, 57, 110
11, 40896, Note_on_c, 1, 60, 110
11, 40896, Note_on_c, 1, 65, 110
11, 41038, Note_on_c, 1, 57, 0
11, 41038, Note_on_c, 1, 60, 0
11, 41038, Note_on_c, 1, 65, 0
11, 41040, Note_on_c, 1, 57, 110
11, 41040, Note_on_c, 1, 60, 110
11, 41040, Note_on_c, 1, 65, 110
11, 41182, Note_on_c, 1, 57, 0
11, 41182, Note_on_c, 1, 60, 0
11, 41182, Note_on_c, 1, 65, 0
11, 41184, Note_on_c, 1, 57, 110
11, 41184, Note_on_c, 1, 60, 110
11, 41184, Note_on_c, 1, 65, 110
11, 41278, Note_on_c, 1, 57, 0
11, 41278, Note_on_c, 1, 60, 0
11, 41278, Note_on_c, 1, 65, 0
11, 41280, Note_on_c, 1, 57, 110
11, 41280, Note_on_c, 1, 60, 110
11, 41280, Note_on_c, 1, 65, 110
11, 41440, Note_on_c, 1, 57, 0
11, 41440, Note_on_c, 1, 60, 0
11, 41440, Note_on_c, 1, 65, 0
11, 41664, Note_on_c, 1, 56, 110
11, 41664, Note_on_c, 1, 60, 110
11, 41664, Note_on_c, 1, 62, 110
11, 42000, Note_on_c, 1, 56, 0
11, 42000, Note_on_c, 1, 60, 0
11, 42000, Note_on_c, 1, 62, 0
11, 42048, Note_on_c, 1, 56, 110
11, 42048, Note_on_c, 1, 62, 110
11, 42400, Note_on_c, 1, 56, 0
11, 42400, Note_on_c, 1, 62, 0
11, 42432, Note_on_c, 1, 57, 110
11, 42432, Note_on_c, 1, 60, 110
11, 42432, Note_on_c, 1, 64, 110
11, 43168, Note_on_c, 1, 57, 0
11, 43168, Note_on_c, 1, 60, 0
11, 43168, Note_on_c, 1, 64, 0
11, 43968, Note_on_c, 1, 57, 110
11, 43968, Note_on_c, 1, 60, 110
11, 43968, Note_on_c, 1, 65, 110
11, 44110, Note_on_c, 1, 57, 0
11, 44110, Note_on_c, 1, 60, 0
11, 44110, Note_on_c, 1, 65, 0
11, 44112, Note_on_c, 1, 57, 110
11, 44112, Note_on_c, 1, 60, 110
11, 44112, Note_on_c, 1, 65, 110
11, 44206, Note_on_c, 1, 57, 0
11, 44206, Note_on_c, 1, 60, 0
11, 44206, Note_on_c, 1, 65, 0
11, 44208, Note_on_c, 1, 57, 110
11, 44208, Note_on_c, 1, 60, 110
11, 44208, Note_on_c, 1, 65, 110
11, 44302, Note_on_c, 1, 57, 0
11, 44302, Note_on_c, 1, 60, 0
11, 44302, Note_on_c, 1, 65, 0
11, 44304, Note_on_c, 1, 57, 110
11, 44304, Note_on_c, 1, 60, 110
11, 44304, Note_on_c, 1, 65, 110
11, 44512, Note_on_c, 1, 57, 0
11, 44512, Note_on_c, 1, 60, 0
11, 44512, Note_on_c, 1, 65, 0
11, 44736, Note_on_c, 1, 56, 110
11, 44736, Note_on_c, 1, 60, 110
11, 45072, Note_on_c, 1, 56, 0
11, 45072, Note_on_c, 1, 60, 0
11, 47808, Note_on_c, 1, 65, 110
11, 47808, Note_on_c, 1, 70, 110
11, 47808, Note_on_c, 1, 72, 110
11, 49104, Note_on_c, 1, 65, 0
11, 49104, Note_on_c, 1, 70, 0
11, 49104, Note_on_c, 1, 72, 0
11, 51648, Note_on_c, 1, 58, 110
11, 51648, Note_on_c, 1, 61, 110
11, 51984, Note_on_c, 1, 58, 0
11, 51984, Note_on_c, 1, 61, 0
11, 54720, Note_on_c, 1, 53, 110
11, 55056, Note_on_c, 1, 53, 0
11, 55152, Note_on_c, 1, 58, 110
11, 55152, Note_on_c, 1, 61, 110
11, 55152, Note_on_c, 1, 65, 110
11, 55294, Note_on_c, 1, 58, 0
11, 55294, Note_on_c, 1, 61, 0
11, 55294, Note_on_c, 1, 65, 0
11, 55296, Note_on_c, 1, 56, 110
11, 55296, Note_on_c, 1, 60, 110
11, 55296, Note_on_c, 1, 63, 110
11, 55390, Note_on_c, 1, 56, 0
11, 55390, Note_on_c, 1, 60, 0
11, 55390, Note_on_c, 1, 63, 0
11, 55392, Note_on_c, 1, 54, 110
11, 55392, Note_on_c, 1, 58, 110
11, 55392, Note_on_c, 1, 61, 110
11, 55486, Note_on_c, 1, 54, 0
11, 55486, Note_on_c, 1, 58, 0
11, 55486, Note_on_c, 1, 61, 0
11, 55488, Note_on_c, 1, 56, 110
11, 55824, Note_on_c, 1, 56, 0
11, 55872, Note_on_c, 1, 53, 110
11, 55872, Note_on_c, 1, 58, 110
11, 55872, Note_on_c, 1, 61, 110
11, 56224, Note_on_c, 1, 53, 0
11, 56224, Note_on_c, 1, 58, 0
11, 56224, Note_on_c, 1, 61, 0
11, 57120, Note_on_c, 1, 65, 110
11, 57166, Note_on_c, 1, 65, 0
11, 57168, Note_on_c, 1, 68, 110
11, 57262, Note_on_c, 1, 68, 0
11, 57264, Note_on_c, 1, 63, 110
11, 57310, Note_on_c, 1, 63, 0
11, 57312, Note_on_c, 1, 65, 110
11, 57550, Note_on_c, 1, 65, 0
11, 57552, Note_on_c, 1, 61, 110
11, 57598, Note_on_c, 1, 61, 0
11, 57600, Note_on_c, 1, 63, 110
11, 57646, Note_on_c, 1, 63, 0
11, 57648, Note_on_c, 1, 61, 110
11, 57694, Note_on_c, 1, 61, 0
11, 57696, Note_on_c, 1, 60, 110
11, 57742, Note_on_c, 1, 60, 0
11, 57744, Note_on_c, 1, 58, 110
11, 57790, Note_on_c, 1, 58, 0
11, 57792, Note_on_c, 1, 58, 110
11, 57886, Note_on_c, 1, 58, 0
11, 57888, Note_on_c, 1, 61, 110
11, 57888, Note_on_c, 1, 65, 110
11, 57888, Note_on_c, 1, 70, 110
11, 57934, Note_on_c, 1, 61, 0
11, 57934, Note_on_c, 1, 65, 0
11, 57934, Note_on_c, 1, 70, 0
11, 57936, Note_on_c, 1, 61, 110
11, 57936, Note_on_c, 1, 65, 110
11, 57936, Note_on_c, 1, 70, 110
11, 57982, Note_on_c, 1, 61, 0
11, 57982, Note_on_c, 1, 65, 0
11, 57982, Note_on_c, 1, 70, 0
11, 57984, Note_on_c, 1, 61, 110
11, 57984, Note_on_c, 1, 65, 110
11, 57984, Note_on_c, 1, 70, 110
11, 58078, Note_on_c, 1, 61, 0
11, 58078, Note_on_c, 1, 65, 0
11, 58078, Note_on_c, 1, 70, 0
11, 58080, Note_on_c, 1, 61, 110
11, 58080, Note_on_c, 1, 65, 110
11, 58080, Note_on_c, 1, 70, 110
11, 58126, Note_on_c, 1, 61, 0
11, 58126, Note_on_c, 1, 65, 0
11, 58126, Note_on_c, 1, 70, 0
11, 58128, Note_on_c, 1, 61, 110
11, 58128, Note_on_c, 1, 65, 110
11, 58128, Note_on_c, 1, 70, 110
11, 58270, Note_on_c, 1, 61, 0
11, 58270, Note_on_c, 1, 65, 0
11, 58270, Note_on_c, 1, 70, 0
11, 58272, Note_on_c, 1, 65, 110
11, 58318, Note_on_c, 1, 65, 0
11, 58320, Note_on_c, 1, 68, 110
11, 58414, Note_on_c, 1, 68, 0
11, 58416, Note_on_c, 1, 70, 110
11, 58558, Note_on_c, 1, 70, 0
11, 58656, Note_on_c, 1, 61, 110
11, 58656, Note_on_c, 1, 65, 110
11, 58656, Note_on_c, 1, 70, 110
11, 58702, Note_on_c, 1, 61, 0
11, 58702, Note_on_c, 1, 65, 0
11, 58702, Note_on_c, 1, 70, 0
11, 58704, Note_on_c, 1, 61, 110
11, 58704, Note_on_c, 1, 65, 110
11, 58704, Note_on_c, 1, 70, 110
11, 58750, Note_on_c, 1, 61, 0
11, 58750, Note_on_c, 1, 65, 0
11, 58750, Note_on_c, 1, 70, 0
11, 58752, Note_on_c, 1, 61, 110
11, 58752, Note_on_c, 1, 65, 110
11, 58752, Note_on_c, 1, 70, 110
11, 58846, Note_on_c, 1, 61, 0
11, 58846, Note_on_c, 1, 65, 0
11, 58846, Note_on_c, 1, 70, 0
11, 58848, Note_on_c, 1, 70, 110
11, 58894, Note_on_c, 1, 70, 0
11, 58896, Note_on_c, 1, 65, 110
11, 58896, Note_on_c, 1, 70, 110
11, 58896, Note_on_c, 1, 73, 110
11, 58990, Note_on_c, 1, 65, 0
11, 58990, Note_on_c, 1, 70, 0
11, 58990, Note_on_c, 1, 73, 0
11, 58992, Note_on_c, 1, 72, 110
11, 59086, Note_on_c, 1, 72, 0
11, 59088, Note_on_c, 1, 65, 110
11, 59088, Note_on_c, 1, 70, 110
11, 59182, Note_on_c, 1, 65, 0
11, 59182, Note_on_c, 1, 70, 0
11, 59184, Note_on_c, 1, 68, 110
11, 59326, Note_on_c, 1, 68, 0
11, 59328, Note_on_c, 1, 61, 110
11, 59328, Note_on_c, 1, 65, 110
11, 59328, Note_on_c, 1, 70, 110
11, 59664, Note_on_c, 1, 61, 0
11, 59664, Note_on_c, 1, 65, 0
11, 59664, Note_on_c, 1, 70, 0
11, 59712, Note_on_c, 1, 61, 110
11, 59712, Note_on_c, 1, 65, 110
11, 59712, Note_on_c, 1, 70, 110
11, 60064, Note_on_c, 1, 61, 0
11, 60064, Note_on_c, 1, 65, 0
11, 60064, Note_on_c, 1, 70, 0
11, 60096, Note_on_c, 1, 61, 110
11, 60096, Note_on_c, 1, 65, 110
11, 60096, Note_on_c, 1, 70, 110
11, 60432, Note_on_c, 1, 61, 0
11, 60432, Note_on_c, 1, 65, 0
11, 60432, Note_on_c, 1, 70, 0
11, 60480, Note_on_c, 1, 60, 110
11, 60480, Note_on_c, 1, 65, 110
11, 60480, Note_on_c, 1, 69, 110
11, 60832, Note_on_c, 1, 60, 0
11, 60832, Note_on_c, 1, 65, 0
11, 60832, Note_on_c, 1, 69, 0
11, 60960, Note_on_c, 1, 61, 110
11, 60960, Note_on_c, 1, 65, 110
11, 60960, Note_on_c, 1, 70, 110
11, 61006, Note_on_c, 1, 61, 0
11, 61006, Note_on_c, 1, 65, 0
11, 61006, Note_on_c, 1, 70, 0
11, 61008, Note_on_c, 1, 61, 110
11, 61008, Note_on_c, 1, 65, 110
11, 61008, Note_on_c, 1, 70, 110
11, 61054, Note_on_c, 1, 61, 0
11, 61054, Note_on_c, 1, 65, 0
11, 61054, Note_on_c, 1, 70, 0
11, 61056, Note_on_c, 1, 61, 110
11, 61056, Note_on_c, 1, 65, 110
11, 61056, Note_on_c, 1, 70, 110
11, 61150, Note_on_c, 1, 61, 0
11, 61150, Note_on_c, 1, 65, 0
11, 61150, Note_on_c, 1, 70, 0
11, 61152, Note_on_c, 1, 61, 110
11, 61152, Note_on_c, 1, 65, 110
11, 61152, Note_on_c, 1, 70, 110
11, 61198, Note_on_c, 1, 61, 0
11, 61198, Note_on_c, 1, 65, 0
11, 61198, Note_on_c, 1, 70, 0
11, 61200, Note_on_c, 1, 61, 110
11, 61200, Note_on_c, 1, 65, 110
11, 61200, Note_on_c, 1, 70, 110
11, 61342, Note_on_c, 1, 61, 0
11, 61342, Note_on_c, 1, 65, 0
11, 61342, Note_on_c, 1, 70, 0
11, 61344, Note_on_c, 1, 65, 110
11, 61390, Note_on_c, 1, 65, 0
11, 61392, Note_on_c, 1, 68, 110
11, 61486, Note_on_c, 1, 68, 0
11, 61488, Note_on_c, 1, 70, 110
11, 61630, Note_on_c, 1, 70, 0
11, 61632, Note_on_c, 1, 61, 110
11, 61632, Note_on_c, 1, 65, 110
11, 61632, Note_on_c, 1, 70, 110
11, 61968, Note_on_c, 1, 61, 0
11, 61968, Note_on_c, 1, 65, 0
11, 61968, Note_on_c, 1, 70, 0
11, 62016, Note_on_c, 1, 61, 110
11, 62016, Note_on_c, 1, 65, 110
11, 62016, Note_on_c, 1, 70, 110
11, 62368, Note_on_c, 1, 61, 0
11, 62368, Note_on_c, 1, 65, 0
11, 62368, Note_on_c, 1, 70, 0
11, 62496, Note_on_c, 1, 61, 110
11, 62496, Note_on_c, 1, 65, 110
11, 62496, Note_on_c, 1, 70, 110
11, 62542, Note_on_c, 1, 61, 0
11, 62542, Note_on_c, 1, 65, 0
11, 62542, Note_on_c, 1, 70, 0
11, 62544, Note_on_c, 1, 61, 110
11, 62544, Note_on_c, 1, 65, 110
11, 62544, Note_on_c, 1, 70, 110
11, 62590, Note_on_c, 1, 61, 0
11, 62590, Note_on_c, 1, 65, 0
11, 62590, Note_on_c, 1, 70, 0
11, 62592, Note_on_c, 1, 61, 110
11, 62592, Note_on_c, 1, 65, 110
11, 62592, Note_on_c, 1, 70, 110
11, 62686, Note_on_c, 1, 61, 0
11, 62686, Note_on_c, 1, 65, 0
11, 62686, Note_on_c, 1, 70, 0
11, 62688, Note_on_c, 1, 61, 110
11, 62688, Note_on_c, 1, 65, 110
11, 62688, Note_on_c, 1, 70, 110
11, 62734, Note_on_c, 1, 61, 0
11, 62734, Note_on_c, 1, 65, 0
11, 62734, Note_on_c, 1, 70, 0
11, 62736, Note_on_c, 1, 61, 110
11, 62736, Note_on_c, 1, 65, 110
11, 62736, Note_on_c, 1, 70, 110
11, 62878, Note_on_c, 1, 61, 0
11, 62878, Note_on_c, 1, 65, 0
11, 62878, Note_on_c, 1, 70, 0
11, 62880, Note_on_c, 1, 65, 110
11, 62926, Note_on_c, 1, 65, 0
11, 62928, Note_on_c, 1, 68, 110
11, 63022, Note_on_c, 1, 68, 0
11, 63024, Note_on_c, 1, 70, 110
11, 63166, Note_on_c, 1, 70, 0
11, 63168, Note_on_c, 1, 61, 110
11, 63168, Note_on_c, 1, 65, 110
11, 63168, Note_on_c, 1, 70, 110
11, 63504, Note_on_c, 1, 61, 0
11, 63504, Note_on_c, 1, 65, 0
11, 63504, Note_on_c, 1, 70, 0
11, 63552, Note_on_c, 1, 60, 110
11, 63552, Note_on_c, 1, 65, 110
11, 63552, Note_on_c, 1, 69, 110
11, 63904, Note_on_c, 1, 60, 0
11, 63904, Note_on_c, 1, 65, 0
11, 63904, Note_on_c, 1, 69, 0
11, 63936, Note_on_c, 1, 61, 110
11, 63936, Note_on_c, 1, 65, 110
11, 63936, Note_on_c, 1, 70, 110
11, 64272, Note_on_c, 1, 61, 0
11, 64272, Note_on_c, 1, 65, 0
11, 64272, Note_on_c, 1, 70, 0
11, 64320, Note_on_c, 1, 63, 110
11, 64320, Note_on_c, 1, 72, 110
11, 64462, Note_on_c, 1, 63, 0
11, 64462, Note_on_c, 1, 72, 0
11, 64464, Note_on_c, 1, 65, 110
11, 64464, Note_on_c, 1, 73, 110
11, 64606, Note_on_c, 1, 65, 0
11, 64606, Note_on_c, 1, 73, 0
11, 64608, Note_on_c, 1, 63, 110
11, 64608, Note_on_c, 1, 72, 110
11, 64702, Note_on_c, 1, 63, 0
11, 64702, Note_on_c, 1, 72, 0
11, 65472, Note_on_c, 1, 58, 110
11, 65472, Note_on_c, 1, 61, 110
11, 65472, Note_on_c, 1, 65, 110
11, 65808, Note_on_c, 1, 58, 0
11, 65808, Note_on_c, 1, 61, 0
11, 65808, Note_on_c, 1, 65, 0
11, 65808, End_track
12, 0, Start_track
12, 0, MIDI_port, 0
12, 0, Title_t, "Published Oct. 01 00"
12, 0, Program_c, 2, 0
12, 0, Control_c, 2, 7, 127
12, 0, Control_c, 2, 10, 64
12, 13824, Note_on_c, 2, 61, 110
12, 13918, Note_on_c, 2, 61, 0
12, 13920, Note_on_c, 2, 63, 110
12, 14014, Note_on_c, 2, 63, 0
12, 14016, Note_on_c, 2, 61, 110
12, 14110, Note_on_c, 2, 61, 0
12, 14112, Note_on_c, 2, 61, 110
12, 14158, Note_on_c, 2, 61, 0
12, 14160, Note_on_c, 2, 61, 110
12, 14254, Note_on_c, 2, 61, 0
12, 14256, Note_on_c, 2, 61, 110
12, 14350, Note_on_c, 2, 61, 0
12, 14352, Note_on_c, 2, 61, 110
12, 14446, Note_on_c, 2, 61, 0
12, 14448, Note_on_c, 2, 58, 110
12, 14590, Note_on_c, 2, 58, 0
12, 14592, Note_on_c, 2, 63, 110
12, 14686, Note_on_c, 2, 63, 0
12, 14688, Note_on_c, 2, 61, 110
12, 14782, Note_on_c, 2, 61, 0
12, 14784, Note_on_c, 2, 61, 110
12, 14878, Note_on_c, 2, 61, 0
12, 14880, Note_on_c, 2, 58, 110
12, 14926, Note_on_c, 2, 58, 0
12, 14928, Note_on_c, 2, 58, 110
12, 15022, Note_on_c, 2, 58, 0
12, 15024, Note_on_c, 2, 58, 110
12, 15118, Note_on_c, 2, 58, 0
12, 15120, Note_on_c, 2, 58, 110
12, 15328, Note_on_c, 2, 58, 0
12, 15456, Note_on_c, 2, 56, 110
12, 15502, Note_on_c, 2, 56, 0
12, 15504, Note_on_c, 2, 58, 110
12, 15550, Note_on_c, 2, 58, 0
12, 15552, Note_on_c, 2, 60, 110
12, 15646, Note_on_c, 2, 60, 0
12, 15648, Note_on_c, 2, 60, 110
12, 15694, Note_on_c, 2, 60, 0
12, 15696, Note_on_c, 2, 60, 110
12, 15790, Note_on_c, 2, 60, 0
12, 15792, Note_on_c, 2, 60, 110
12, 15886, Note_on_c, 2, 60, 0
12, 15888, Note_on_c, 2, 60, 110
12, 16030, Note_on_c, 2, 60, 0
12, 16032, Note_on_c, 2, 60, 110
12, 16078, Note_on_c, 2, 60, 0
12, 16080, Note_on_c, 2, 63, 110
12, 16270, Note_on_c, 2, 63, 0
12, 16272, Note_on_c, 2, 66, 110
12, 16318, Note_on_c, 2, 66, 0
12, 16320, Note_on_c, 2, 61, 110
12, 16414, Note_on_c, 2, 61, 0
12, 16416, Note_on_c, 2, 61, 110
12, 16672, Note_on_c, 2, 61, 0
12, 16896, Note_on_c, 2, 58, 110
12, 16990, Note_on_c, 2, 58, 0
12, 16992, Note_on_c, 2, 60, 110
12, 17086, Note_on_c, 2, 60, 0
12, 17088, Note_on_c, 2, 61, 110
12, 17182, Note_on_c, 2, 61, 0
12, 17184, Note_on_c, 2, 61, 110
12, 17230, Note_on_c, 2, 61, 0
12, 17232, Note_on_c, 2, 61, 110
12, 17326, Note_on_c, 2, 61, 0
12, 17328, Note_on_c, 2, 61, 110
12, 17422, Note_on_c, 2, 61, 0
12, 17424, Note_on_c, 2, 61, 110
12, 17518, Note_on_c, 2, 61, 0
12, 17520, Note_on_c, 2, 61, 110
12, 17662, Note_on_c, 2, 61, 0
12, 17664, Note_on_c, 2, 66, 110
12, 17758, Note_on_c, 2, 66, 0
12, 17760, Note_on_c, 2, 65, 110
12, 17854, Note_on_c, 2, 65, 0
12, 17856, Note_on_c, 2, 65, 110
12, 17950, Note_on_c, 2, 65, 0
12, 17952, Note_on_c, 2, 63, 110
12, 17998, Note_on_c, 2, 63, 0
12, 18000, Note_on_c, 2, 63, 110
12, 18094, Note_on_c, 2, 63, 0
12, 18096, Note_on_c, 2, 63, 110
12, 18190, Note_on_c, 2, 63, 0
12, 18192, Note_on_c, 2, 63, 110
12, 18400, Note_on_c, 2, 63, 0
12, 18528, Note_on_c, 2, 61, 110
12, 18574, Note_on_c, 2, 61, 0
12, 18576, Note_on_c, 2, 60, 110
12, 18784, Note_on_c, 2, 60, 0
12, 18912, Note_on_c, 2, 60, 110
12, 18958, Note_on_c, 2, 60, 0
12, 18960, Note_on_c, 2, 60, 110
12, 19006, Note_on_c, 2, 60, 0
12, 19008, Note_on_c, 2, 65, 110
12, 19102, Note_on_c, 2, 65, 0
12, 19104, Note_on_c, 2, 63, 110
12, 19150, Note_on_c, 2, 63, 0
12, 19152, Note_on_c, 2, 61, 110
12, 19342, Note_on_c, 2, 61, 0
12, 19344, Note_on_c, 2, 60, 110
12, 19390, Note_on_c, 2, 60, 0
12, 19392, Note_on_c, 2, 61, 110
12, 19438, Note_on_c, 2, 61, 0
12, 19440, Note_on_c, 2, 60, 110
12, 19486, Note_on_c, 2, 60, 0
12, 19488, Note_on_c, 2, 58, 110
12, 19920, Note_on_c, 2, 58, 0
12, 20064, Note_on_c, 2, 61, 110
12, 20110, Note_on_c, 2, 61, 0
12, 20112, Note_on_c, 2, 60, 110
12, 20320, Note_on_c, 2, 60, 0
12, 20448, Note_on_c, 2, 60, 110
12, 20494, Note_on_c, 2, 60, 0
12, 20496, Note_on_c, 2, 60, 110
12, 20542, Note_on_c, 2, 60, 0
12, 20544, Note_on_c, 2, 65, 110
12, 20638, Note_on_c, 2, 65, 0
12, 20640, Note_on_c, 2, 63, 110
12, 20686, Note_on_c, 2, 63, 0
12, 20688, Note_on_c, 2, 61, 110
12, 20878, Note_on_c, 2, 61, 0
12, 20880, Note_on_c, 2, 53, 110
12, 20926, Note_on_c, 2, 53, 0
12, 20928, Note_on_c, 2, 60, 110
12, 21022, Note_on_c, 2, 60, 0
12, 21024, Note_on_c, 2, 58, 110
12, 21280, Note_on_c, 2, 58, 0
12, 21600, Note_on_c, 2, 63, 110
12, 21646, Note_on_c, 2, 63, 0
12, 21648, Note_on_c, 2, 63, 110
12, 21790, Note_on_c, 2, 63, 0
12, 21792, Note_on_c, 2, 65, 110
12, 22800, Note_on_c, 2, 65, 0
12, 23232, Note_on_c, 2, 64, 110
12, 23374, Note_on_c, 2, 64, 0
12, 23376, Note_on_c, 2, 64, 110
12, 23518, Note_on_c, 2, 64, 0
12, 23520, Note_on_c, 2, 64, 110
12, 23614, Note_on_c, 2, 64, 0
12, 23616, Note_on_c, 2, 64, 110
12, 23758, Note_on_c, 2, 64, 0
12, 23760, Note_on_c, 2, 62, 110
12, 23902, Note_on_c, 2, 62, 0
12, 23904, Note_on_c, 2, 60, 110
12, 23998, Note_on_c, 2, 60, 0
12, 24000, Note_on_c, 2, 62, 110
12, 24142, Note_on_c, 2, 62, 0
12, 24144, Note_on_c, 2, 62, 110
12, 24286, Note_on_c, 2, 62, 0
12, 24288, Note_on_c, 2, 62, 110
12, 24382, Note_on_c, 2, 62, 0
12, 24384, Note_on_c, 2, 62, 110
12, 24544, Note_on_c, 2, 62, 0
12, 24576, Note_on_c, 2, 59, 110
12, 24670, Note_on_c, 2, 59, 0
12, 24672, Note_on_c, 2, 60, 110
12, 24766, Note_on_c, 2, 60, 0
12, 24768, Note_on_c, 2, 62, 110
12, 24910, Note_on_c, 2, 62, 0
12, 24912, Note_on_c, 2, 62, 110
12, 25054, Note_on_c, 2, 62, 0
12, 25056, Note_on_c, 2, 62, 110
12, 25150, Note_on_c, 2, 62, 0
12, 25152, Note_on_c, 2, 62, 110
12, 25312, Note_on_c, 2, 62, 0
12, 25344, Note_on_c, 2, 60, 110
12, 25438, Note_on_c, 2, 60, 0
12, 25440, Note_on_c, 2, 59, 110
12, 25534, Note_on_c, 2, 59, 0
12, 25536, Note_on_c, 2, 59, 110
12, 25678, Note_on_c, 2, 59, 0
12, 25680, Note_on_c, 2, 60, 110
12, 25822, Note_on_c, 2, 60, 0
12, 25824, Note_on_c, 2, 60, 110
12, 26272, Note_on_c, 2, 60, 0
12, 26304, Note_on_c, 2, 64, 110
12, 26446, Note_on_c, 2, 64, 0
12, 26448, Note_on_c, 2, 64, 110
12, 26590, Note_on_c, 2, 64, 0
12, 26592, Note_on_c, 2, 64, 110
12, 26686, Note_on_c, 2, 64, 0
12, 26688, Note_on_c, 2, 64, 110
12, 26830, Note_on_c, 2, 64, 0
12, 26832, Note_on_c, 2, 62, 110
12, 26974, Note_on_c, 2, 62, 0
12, 26976, Note_on_c, 2, 60, 110
12, 27070, Note_on_c, 2, 60, 0
12, 27072, Note_on_c, 2, 62, 110
12, 27214, Note_on_c, 2, 62, 0
12, 27216, Note_on_c, 2, 62, 110
12, 27358, Note_on_c, 2, 62, 0
12, 27360, Note_on_c, 2, 62, 110
12, 27454, Note_on_c, 2, 62, 0
12, 27456, Note_on_c, 2, 62, 110
12, 27616, Note_on_c, 2, 62, 0
12, 27648, Note_on_c, 2, 59, 110
12, 27742, Note_on_c, 2, 59, 0
12, 27744, Note_on_c, 2, 60, 110
12, 27838, Note_on_c, 2, 60, 0
12, 27840, Note_on_c, 2, 62, 110
12, 27982, Note_on_c, 2, 62, 0
12, 27984, Note_on_c, 2, 62, 110
12, 28126, Note_on_c, 2, 62, 0
12, 28128, Note_on_c, 2, 62, 110
12, 28222, Note_on_c, 2, 62, 0
12, 28224, Note_on_c, 2, 62, 110
12, 28366, Note_on_c, 2, 62, 0
12, 28368, Note_on_c, 2, 64, 110
12, 28510, Note_on_c, 2, 64, 0
12, 28512, Note_on_c, 2, 65, 110
12, 28606, Note_on_c, 2, 65, 0
12, 28608, Note_on_c, 2, 60, 110
12, 28608, Note_on_c, 2, 64, 110
12, 28944, Note_on_c, 2, 60, 0
12, 28944, Note_on_c, 2, 64, 0
12, 29568, Note_on_c, 2, 69, 110
12, 29662, Note_on_c, 2, 69, 0
12, 29664, Note_on_c, 2, 60, 110
12, 29758, Note_on_c, 2, 60, 0
12, 29760, Note_on_c, 2, 60, 110
12, 29920, Note_on_c, 2, 60, 0
12, 29952, Note_on_c, 2, 62, 110
12, 30046, Note_on_c, 2, 62, 0
12, 30048, Note_on_c, 2, 65, 110
12, 30142, Note_on_c, 2, 65, 0
12, 30144, Note_on_c, 2, 64, 110
12, 30238, Note_on_c, 2, 64, 0
12, 30240, Note_on_c, 2, 62, 110
12, 30286, Note_on_c, 2, 62, 0
12, 30288, Note_on_c, 2, 62, 110
12, 30382, Note_on_c, 2, 62, 0
12, 30384, Note_on_c, 2, 60, 110
12, 30430, Note_on_c, 2, 60, 0
12, 30432, Note_on_c, 2, 60, 110
12, 30688, Note_on_c, 2, 60, 0
12, 31104, Note_on_c, 2, 65, 110
12, 31264, Note_on_c, 2, 65, 0
12, 31296, Note_on_c, 2, 67, 110
12, 31456, Note_on_c, 2, 67, 0
12, 31488, Note_on_c, 2, 65, 110
12, 31648, Note_on_c, 2, 65, 0
12, 31680, Note_on_c, 2, 65, 110
12, 32016, Note_on_c, 2, 65, 0
12, 32256, Note_on_c, 2, 61, 110
12, 32350, Note_on_c, 2, 61, 0
12, 32352, Note_on_c, 2, 63, 110
12, 32446, Note_on_c, 2, 63, 0
12, 32448, Note_on_c, 2, 65, 110
12, 32542, Note_on_c, 2, 65, 0
12, 32544, Note_on_c, 2, 65, 110
12, 32590, Note_on_c, 2, 65, 0
12, 32592, Note_on_c, 2, 65, 110
12, 32686, Note_on_c, 2, 65, 0
12, 32688, Note_on_c, 2, 65, 110
12, 32782, Note_on_c, 2, 65, 0
12, 32784, Note_on_c, 2, 65, 110
12, 32878, Note_on_c, 2, 65, 0
12, 32880, Note_on_c, 2, 61, 110
12, 33022, Note_on_c, 2, 61, 0
12, 33024, Note_on_c, 2, 66, 110
12, 33118, Note_on_c, 2, 66, 0
12, 33120, Note_on_c, 2, 65, 110
12, 33214, Note_on_c, 2, 65, 0
12, 33216, Note_on_c, 2, 65, 110
12, 33310, Note_on_c, 2, 65, 0
12, 33312, Note_on_c, 2, 63, 110
12, 33358, Note_on_c, 2, 63, 0
12, 33360, Note_on_c, 2, 63, 110
12, 33454, Note_on_c, 2, 63, 0
12, 33456, Note_on_c, 2, 63, 110
12, 33550, Note_on_c, 2, 63, 0
12, 33552, Note_on_c, 2, 63, 110
12, 33760, Note_on_c, 2, 63, 0
12, 33888, Note_on_c, 2, 60, 110
12, 33934, Note_on_c, 2, 60, 0
12, 33936, Note_on_c, 2, 61, 110
12, 33982, Note_on_c, 2, 61, 0
12, 33984, Note_on_c, 2, 63, 110
12, 34078, Note_on_c, 2, 63, 0
12, 34080, Note_on_c, 2, 63, 110
12, 34126, Note_on_c, 2, 63, 0
12, 34128, Note_on_c, 2, 63, 110
12, 34222, Note_on_c, 2, 63, 0
12, 34224, Note_on_c, 2, 63, 110
12, 34318, Note_on_c, 2, 63, 0
12, 34320, Note_on_c, 2, 63, 110
12, 34462, Note_on_c, 2, 63, 0
12, 34464, Note_on_c, 2, 63, 110
12, 34510, Note_on_c, 2, 63, 0
12, 34512, Note_on_c, 2, 68, 110
12, 34702, Note_on_c, 2, 68, 0
12, 34704, Note_on_c, 2, 66, 110
12, 34750, Note_on_c, 2, 66, 0
12, 34752, Note_on_c, 2, 65, 110
12, 34846, Note_on_c, 2, 65, 0
12, 34848, Note_on_c, 2, 65, 110
12, 35104, Note_on_c, 2, 65, 0
12, 35328, Note_on_c, 2, 61, 110
12, 35422, Note_on_c, 2, 61, 0
12, 35424, Note_on_c, 2, 63, 110
12, 35518, Note_on_c, 2, 63, 0
12, 35520, Note_on_c, 2, 65, 110
12, 35614, Note_on_c, 2, 65, 0
12, 35616, Note_on_c, 2, 65, 110
12, 35662, Note_on_c, 2, 65, 0
12, 35664, Note_on_c, 2, 65, 110
12, 35758, Note_on_c, 2, 65, 0
12, 35760, Note_on_c, 2, 65, 110
12, 35854, Note_on_c, 2, 65, 0
12, 35856, Note_on_c, 2, 65, 110
12, 35950, Note_on_c, 2, 65, 0
12, 35952, Note_on_c, 2, 65, 110
12, 36094, Note_on_c, 2, 65, 0
12, 36096, Note_on_c, 2, 70, 110
12, 36190, Note_on_c, 2, 70, 0
12, 36192, Note_on_c, 2, 68, 110
12, 36286, Note_on_c, 2, 68, 0
12, 36288, Note_on_c, 2, 68, 110
12, 36382, Note_on_c, 2, 68, 0
12, 36384, Note_on_c, 2, 66, 110
12, 36430, Note_on_c, 2, 66, 0
12, 36432, Note_on_c, 2, 66, 110
12, 36526, Note_on_c, 2, 66, 0
12, 36528, Note_on_c, 2, 66, 110
12, 36622, Note_on_c, 2, 66, 0
12, 36624, Note_on_c, 2, 66, 110
12, 36832, Note_on_c, 2, 66, 0
12, 36960, Note_on_c, 2, 61, 110
12, 37006, Note_on_c, 2, 61, 0
12, 37008, Note_on_c, 2, 60, 110
12, 37216, Note_on_c, 2, 60, 0
12, 37344, Note_on_c, 2, 60, 110
12, 37390, Note_on_c, 2, 60, 0
12, 37392, Note_on_c, 2, 60, 110
12, 37438, Note_on_c, 2, 60, 0
12, 37440, Note_on_c, 2, 65, 110
12, 37534, Note_on_c, 2, 65, 0
12, 37536, Note_on_c, 2, 63, 110
12, 37582, Note_on_c, 2, 63, 0
12, 37584, Note_on_c, 2, 61, 110
12, 37774, Note_on_c, 2, 61, 0
12, 37776, Note_on_c, 2, 60, 110
12, 37822, Note_on_c, 2, 60, 0
12, 37824, Note_on_c, 2, 61, 110
12, 37870, Note_on_c, 2, 61, 0
12, 37872, Note_on_c, 2, 60, 110
12, 37918, Note_on_c, 2, 60, 0
12, 37920, Note_on_c, 2, 58, 110
12, 38352, Note_on_c, 2, 58, 0
12, 38496, Note_on_c, 2, 61, 110
12, 38542, Note_on_c, 2, 61, 0
12, 38544, Note_on_c, 2, 60, 110
12, 38752, Note_on_c, 2, 60, 0
12, 38880, Note_on_c, 2, 60, 110
12, 38926, Note_on_c, 2, 60, 0
12, 38928, Note_on_c, 2, 60, 110
12, 38974, Note_on_c, 2, 60, 0
12, 38976, Note_on_c, 2, 65, 110
12, 39070, Note_on_c, 2, 65, 0
12, 39072, Note_on_c, 2, 63, 110
12, 39118, Note_on_c, 2, 63, 0
12, 39120, Note_on_c, 2, 61, 110
12, 39310, Note_on_c, 2, 61, 0
12, 39312, Note_on_c, 2, 53, 110
12, 39358, Note_on_c, 2, 53, 0
12, 39360, Note_on_c, 2, 60, 110
12, 39454, Note_on_c, 2, 60, 0
12, 39456, Note_on_c, 2, 58, 110
12, 39712, Note_on_c, 2, 58, 0
12, 40032, Note_on_c, 2, 63, 110
12, 40078, Note_on_c, 2, 63, 0
12, 40080, Note_on_c, 2, 63, 110
12, 40222, Note_on_c, 2, 63, 0
12, 40224, Note_on_c, 2, 65, 110
12, 40864, Note_on_c, 2, 65, 0
12, 41472, Note_on_c, 2, 62, 110
12, 41566, Note_on_c, 2, 62, 0
12, 41568, Note_on_c, 2, 64, 110
12, 41662, Note_on_c, 2, 64, 0
12, 41664, Note_on_c, 2, 65, 110
12, 41806, Note_on_c, 2, 65, 0
12, 41808, Note_on_c, 2, 65, 110
12, 41950, Note_on_c, 2, 65, 0
12, 41952, Note_on_c, 2, 65, 110
12, 42046, Note_on_c, 2, 65, 0
12, 42048, Note_on_c, 2, 67, 110
12, 42190, Note_on_c, 2, 67, 0
12, 42192, Note_on_c, 2, 64, 110
12, 42334, Note_on_c, 2, 64, 0
12, 42336, Note_on_c, 2, 65, 110
12, 42430, Note_on_c, 2, 65, 0
12, 42432, Note_on_c, 2, 64, 110
12, 42768, Note_on_c, 2, 64, 0
12, 43104, Note_on_c, 2, 64, 110
12, 43198, Note_on_c, 2, 64, 0
12, 43200, Note_on_c, 2, 69, 110
12, 43342, Note_on_c, 2, 69, 0
12, 43344, Note_on_c, 2, 67, 110
12, 43486, Note_on_c, 2, 67, 0
12, 43488, Note_on_c, 2, 64, 110
12, 43582, Note_on_c, 2, 64, 0
12, 43584, Note_on_c, 2, 64, 110
12, 43630, Note_on_c, 2, 64, 0
12, 43632, Note_on_c, 2, 62, 110
12, 43678, Note_on_c, 2, 62, 0
12, 43680, Note_on_c, 2, 60, 110
12, 43726, Note_on_c, 2, 60, 0
12, 43728, Note_on_c, 2, 62, 110
12, 43774, Note_on_c, 2, 62, 0
12, 43776, Note_on_c, 2, 64, 110
12, 43870, Note_on_c, 2, 64, 0
12, 43872, Note_on_c, 2, 65, 110
12, 44128, Note_on_c, 2, 65, 0
12, 44544, Note_on_c, 2, 57, 110
12, 44638, Note_on_c, 2, 57, 0
12, 44640, Note_on_c, 2, 60, 110
12, 44734, Note_on_c, 2, 60, 0
12, 44736, Note_on_c, 2, 62, 110
12, 44878, Note_on_c, 2, 62, 0
12, 44880, Note_on_c, 2, 62, 110
12, 45022, Note_on_c, 2, 62, 0
12, 45024, Note_on_c, 2, 67, 110
12, 45118, Note_on_c, 2, 67, 0
12, 45120, Note_on_c, 2, 64, 110
12, 45280, Note_on_c, 2, 64, 0
12, 45504, Note_on_c, 2, 60, 110
12, 45646, Note_on_c, 2, 60, 0
12, 45648, Note_on_c, 2, 59, 110
12, 45790, Note_on_c, 2, 59, 0
12, 45792, Note_on_c, 2, 57, 110
12, 45886, Note_on_c, 2, 57, 0
12, 45888, Note_on_c, 2, 60, 110
12, 46030, Note_on_c, 2, 60, 0
12, 46032, Note_on_c, 2, 59, 110
12, 46174, Note_on_c, 2, 59, 0
12, 46176, Note_on_c, 2, 57, 110
12, 46270, Note_on_c, 2, 57, 0
12, 46272, Note_on_c, 2, 62, 110
12, 46414, Note_on_c, 2, 62, 0
12, 46416, Note_on_c, 2, 60, 110
12, 46558, Note_on_c, 2, 60, 0
12, 46560, Note_on_c, 2, 59, 110
12, 46654, Note_on_c, 2, 59, 0
12, 46656, Note_on_c, 2, 62, 110
12, 46798, Note_on_c, 2, 62, 0
12, 46800, Note_on_c, 2, 60, 110
12, 46942, Note_on_c, 2, 60, 0
12, 46944, Note_on_c, 2, 59, 110
12, 47038, Note_on_c, 2, 59, 0
12, 47040, Note_on_c, 2, 65, 110
12, 47182, Note_on_c, 2, 65, 0
12, 47184, Note_on_c, 2, 64, 110
12, 47326, Note_on_c, 2, 64, 0
12, 47328, Note_on_c, 2, 62, 110
12, 47422, Note_on_c, 2, 62, 0
12, 47424, Note_on_c, 2, 60, 110
12, 47566, Note_on_c, 2, 60, 0
12, 47568, Note_on_c, 2, 62, 110
12, 47710, Note_on_c, 2, 62, 0
12, 47712, Note_on_c, 2, 64, 110
12, 47806, Note_on_c, 2, 64, 0
12, 47808, Note_on_c, 2, 72, 110
12, 48912, Note_on_c, 2, 72, 0
12, 49152, Note_on_c, 2, 73, 110
12, 49246, Note_on_c, 2, 73, 0
12, 49248, Note_on_c, 2, 72, 110
12, 49342, Note_on_c, 2, 72, 0
12, 49344, Note_on_c, 2, 73, 110
12, 49438, Note_on_c, 2, 73, 0
12, 49440, Note_on_c, 2, 73, 110
12, 49486, Note_on_c, 2, 73, 0
12, 49488, Note_on_c, 2, 73, 110
12, 49582, Note_on_c, 2, 73, 0
12, 49584, Note_on_c, 2, 73, 110
12, 49678, Note_on_c, 2, 73, 0
12, 49680, Note_on_c, 2, 73, 110
12, 49774, Note_on_c, 2, 73, 0
12, 49776, Note_on_c, 2, 70, 110
12, 49918, Note_on_c, 2, 70, 0
12, 49920, Note_on_c, 2, 75, 110
12, 50014, Note_on_c, 2, 75, 0
12, 50016, Note_on_c, 2, 73, 110
12, 50110, Note_on_c, 2, 73, 0
12, 50112, Note_on_c, 2, 73, 110
12, 50206, Note_on_c, 2, 73, 0
12, 50208, Note_on_c, 2, 70, 110
12, 50254, Note_on_c, 2, 70, 0
12, 50256, Note_on_c, 2, 70, 110
12, 50350, Note_on_c, 2, 70, 0
12, 50352, Note_on_c, 2, 70, 110
12, 50446, Note_on_c, 2, 70, 0
12, 50448, Note_on_c, 2, 70, 110
12, 50656, Note_on_c, 2, 70, 0
12, 50784, Note_on_c, 2, 68, 110
12, 50830, Note_on_c, 2, 68, 0
12, 50832, Note_on_c, 2, 70, 110
12, 50878, Note_on_c, 2, 70, 0
12, 50880, Note_on_c, 2, 72, 110
12, 50974, Note_on_c, 2, 72, 0
12, 50976, Note_on_c, 2, 72, 110
12, 51022, Note_on_c, 2, 72, 0
12, 51024, Note_on_c, 2, 72, 110
12, 51118, Note_on_c, 2, 72, 0
12, 51120, Note_on_c, 2, 72, 110
12, 51214, Note_on_c, 2, 72, 0
12, 51216, Note_on_c, 2, 72, 110
12, 51358, Note_on_c, 2, 72, 0
12, 51360, Note_on_c, 2, 72, 110
12, 51406, Note_on_c, 2, 72, 0
12, 51408, Note_on_c, 2, 75, 110
12, 51598, Note_on_c, 2, 75, 0
12, 51600, Note_on_c, 2, 78, 110
12, 51646, Note_on_c, 2, 78, 0
12, 51648, Note_on_c, 2, 73, 110
12, 51742, Note_on_c, 2, 73, 0
12, 51744, Note_on_c, 2, 73, 110
12, 52000, Note_on_c, 2, 73, 0
12, 52224, Note_on_c, 2, 70, 110
12, 52318, Note_on_c, 2, 70, 0
12, 52320, Note_on_c, 2, 72, 110
12, 52414, Note_on_c, 2, 72, 0
12, 52416, Note_on_c, 2, 73, 110
12, 52510, Note_on_c, 2, 73, 0
12, 52512, Note_on_c, 2, 73, 110
12, 52558, Note_on_c, 2, 73, 0
12, 52560, Note_on_c, 2, 73, 110
12, 52654, Note_on_c, 2, 73, 0
12, 52656, Note_on_c, 2, 73, 110
12, 52750, Note_on_c, 2, 73, 0
12, 52752, Note_on_c, 2, 73, 110
12, 52846, Note_on_c, 2, 73, 0
12, 52848, Note_on_c, 2, 73, 110
12, 52990, Note_on_c, 2, 73, 0
12, 52992, Note_on_c, 2, 78, 110
12, 53086, Note_on_c, 2, 78, 0
12, 53088, Note_on_c, 2, 77, 110
12, 53182, Note_on_c, 2, 77, 0
12, 53184, Note_on_c, 2, 77, 110
12, 53278, Note_on_c, 2, 77, 0
12, 53280, Note_on_c, 2, 75, 110
12, 53326, Note_on_c, 2, 75, 0
12, 53328, Note_on_c, 2, 75, 110
12, 53422, Note_on_c, 2, 75, 0
12, 53424, Note_on_c, 2, 75, 110
12, 53518, Note_on_c, 2, 75, 0
12, 53520, Note_on_c, 2, 75, 110
12, 53728, Note_on_c, 2, 75, 0
12, 53856, Note_on_c, 2, 73, 110
12, 53902, Note_on_c, 2, 73, 0
12, 53904, Note_on_c, 2, 72, 110
12, 54112, Note_on_c, 2, 72, 0
12, 54240, Note_on_c, 2, 72, 110
12, 54286, Note_on_c, 2, 72, 0
12, 54288, Note_on_c, 2, 72, 110
12, 54334, Note_on_c, 2, 72, 0
12, 54336, Note_on_c, 2, 77, 110
12, 54430, Note_on_c, 2, 77, 0
12, 54432, Note_on_c, 2, 75, 110
12, 54478, Note_on_c, 2, 75, 0
12, 54480, Note_on_c, 2, 73, 110
12, 54670, Note_on_c, 2, 73, 0
12, 54672, Note_on_c, 2, 72, 110
12, 54718, Note_on_c, 2, 72, 0
12, 54720, Note_on_c, 2, 73, 110
12, 54766, Note_on_c, 2, 73, 0
12, 54768, Note_on_c, 2, 72, 110
12, 54814, Note_on_c, 2, 72, 0
12, 54816, Note_on_c, 2, 70, 110
12, 55248, Note_on_c, 2, 70, 0
12, 55392, Note_on_c, 2, 73, 110
12, 55438, Note_on_c, 2, 73, 0
12, 55440, Note_on_c, 2, 72, 110
12, 55648, Note_on_c, 2, 72, 0
12, 55776, Note_on_c, 2, 72, 110
12, 55822, Note_on_c, 2, 72, 0
12, 55824, Note_on_c, 2, 72, 110
12, 55870, Note_on_c, 2, 72, 0
12, 55872, Note_on_c, 2, 77, 110
12, 55966, Note_on_c, 2, 77, 0
12, 55968, Note_on_c, 2, 75, 110
12, 56014, Note_on_c, 2, 75, 0
12, 56016, Note_on_c, 2, 73, 110
12, 56206, Note_on_c, 2, 73, 0
12, 56208, Note_on_c, 2, 65, 110
12, 56254, Note_on_c, 2, 65, 0
12, 56256, Note_on_c, 2, 72, 110
12, 56350, Note_on_c, 2, 72, 0
12, 56352, Note_on_c, 2, 70, 110
12, 56608, Note_on_c, 2, 70, 0
12, 56928, Note_on_c, 2, 75, 110
12, 56974, Note_on_c, 2, 75, 0
12, 56976, Note_on_c, 2, 75, 110
12, 57118, Note_on_c, 2, 75, 0
12, 57120, Note_on_c, 2, 77, 110
12, 57760, Note_on_c, 2, 77, 0
12, 57792, Note_on_c, 2, 70, 110
12, 57886, Note_on_c, 2, 70, 0
12, 57888, Note_on_c, 2, 73, 110
12, 57888, Note_on_c, 2, 77, 110
12, 57888, Note_on_c, 2, 82, 110
12, 57934, Note_on_c, 2, 73, 0
12, 57934, Note_on_c, 2, 77, 0
12, 57934, Note_on_c, 2, 82, 0
12, 57936, Note_on_c, 2, 73, 110
12, 57936, Note_on_c, 2, 77, 110
12, 57936, Note_on_c, 2, 82, 110
12, 57982, Note_on_c, 2, 73, 0
12, 57982, Note_on_c, 2, 77, 0
12, 57982, Note_on_c, 2, 82, 0
12, 57984, Note_on_c, 2, 73, 110
12, 57984, Note_on_c, 2, 77, 110
12, 57984, Note_on_c, 2, 82, 110
12, 58078, Note_on_c, 2, 73, 0
12, 58078, Note_on_c, 2, 77, 0
12, 58078, Note_on_c, 2, 82, 0
12, 58080, Note_on_c, 2, 73, 110
12, 58080, Note_on_c, 2, 77, 110
12, 58080, Note_on_c, 2, 82, 110
12, 58126, Note_on_c, 2, 73, 0
12, 58126, Note_on_c, 2, 77, 0
12, 58126, Note_on_c, 2, 82, 0
12, 58128, Note_on_c, 2, 73, 110
12, 58128, Note_on_c, 2, 77, 110
12, 58128, Note_on_c, 2, 82, 110
12, 58270, Note_on_c, 2, 73, 0
12, 58270, Note_on_c, 2, 77, 0
12, 58270, Note_on_c, 2, 82, 0
12, 58272, Note_on_c, 2, 77, 110
12, 58318, Note_on_c, 2, 77, 0
12, 58320, Note_on_c, 2, 80, 110
12, 58414, Note_on_c, 2, 80, 0
12, 58416, Note_on_c, 2, 82, 110
12, 58558, Note_on_c, 2, 82, 0
12, 58656, Note_on_c, 2, 73, 110
12, 58656, Note_on_c, 2, 77, 110
12, 58656, Note_on_c, 2, 82, 110
12, 58702, Note_on_c, 2, 73, 0
12, 58702, Note_on_c, 2, 77, 0
12, 58702, Note_on_c, 2, 82, 0
12, 58704, Note_on_c, 2, 73, 110
12, 58704, Note_on_c, 2, 77, 110
12, 58704, Note_on_c, 2, 82, 110
12, 58750, Note_on_c, 2, 73, 0
12, 58750, Note_on_c, 2, 77, 0
12, 58750, Note_on_c, 2, 82, 0
12, 58752, Note_on_c, 2, 73, 110
12, 58752, Note_on_c, 2, 77, 110
12, 58752, Note_on_c, 2, 82, 110
12, 58846, Note_on_c, 2, 73, 0
12, 58846, Note_on_c, 2, 77, 0
12, 58846, Note_on_c, 2, 82, 0
12, 58848, Note_on_c, 2, 82, 110
12, 58894, Note_on_c, 2, 82, 0
12, 58896, Note_on_c, 2, 77, 110
12, 58896, Note_on_c, 2, 82, 110
12, 58896, Note_on_c, 2, 85, 110
12, 58990, Note_on_c, 2, 77, 0
12, 58990, Note_on_c, 2, 82, 0
12, 58990, Note_on_c, 2, 85, 0
12, 58992, Note_on_c, 2, 84, 110
12, 59086, Note_on_c, 2, 84, 0
12, 59088, Note_on_c, 2, 77, 110
12, 59088, Note_on_c, 2, 82, 110
12, 59182, Note_on_c, 2, 77, 0
12, 59182, Note_on_c, 2, 82, 0
12, 59184, Note_on_c, 2, 80, 110
12, 59326, Note_on_c, 2, 80, 0
12, 60960, Note_on_c, 2, 73, 110
12, 60960, Note_on_c, 2, 77, 110
12, 60960, Note_on_c, 2, 82, 110
12, 61006, Note_on_c, 2, 73, 0
12, 61006, Note_on_c, 2, 77, 0
12, 61006, Note_on_c, 2, 82, 0
12, 61008, Note_on_c, 2, 73, 110
12, 61008, Note_on_c, 2, 77, 110
12, 61008, Note_on_c, 2, 82, 110
12, 61054, Note_on_c, 2, 73, 0
12, 61054, Note_on_c, 2, 77, 0
12, 61054, Note_on_c, 2, 82, 0
12, 61056, Note_on_c, 2, 73, 110
12, 61056, Note_on_c, 2, 77, 110
12, 61056, Note_on_c, 2, 82, 110
12, 61150, Note_on_c, 2, 73, 0
12, 61150, Note_on_c, 2, 77, 0
12, 61150, Note_on_c, 2, 82, 0
12, 61152, Note_on_c, 2, 73, 110
12, 61152, Note_on_c, 2, 77, 110
12, 61152, Note_on_c, 2, 82, 110
12, 61198, Note_on_c, 2, 73, 0
12, 61198, Note_on_c, 2, 77, 0
12, 61198, Note_on_c, 2, 82, 0
12, 61200, Note_on_c, 2, 73, 110
12, 61200, Note_on_c, 2, 77, 110
12, 61200, Note_on_c, 2, 82, 110
12, 61342, Note_on_c, 2, 73, 0
12, 61342, Note_on_c, 2, 77, 0
12, 61342, Note_on_c, 2, 82, 0
12, 61344, Note_on_c, 2, 77, 110
12, 61390, Note_on_c, 2, 77, 0
12, 61392, Note_on_c, 2, 80, 110
12, 61486, Note_on_c, 2, 80, 0
12, 61488, Note_on_c, 2, 82, 110
12, 61630, Note_on_c, 2, 82, 0
12, 62496, Note_on_c, 2, 73, 110
12, 62496, Note_on_c, 2, 77, 110
12, 62496, Note_on_c, 2, 82, 110
12, 62542, Note_on_c, 2, 73, 0
12, 62542, Note_on_c, 2, 77, 0
12, 62542, Note_on_c, 2, 82, 0
12, 62544, Note_on_c, 2, 73, 110
12, 62544, Note_on_c, 2, 77, 110
12, 62544, Note_on_c, 2, 82, 110
12, 62590, Note_on_c, 2, 73, 0
12, 62590, Note_on_c, 2, 77, 0
12, 62590, Note_on_c, 2, 82, 0
12, 62592, Note_on_c, 2, 73, 110
12, 62592, Note_on_c, 2, 77, 110
12, 62592, Note_on_c, 2, 82, 110
12, 62686, Note_on_c, 2, 73, 0
12, 62686, Note_on_c, 2, 77, 0
12, 62686, Note_on_c, 2, 82, 0
12, 62688, Note_on_c, 2, 73, 110
12, 62688, Note_on_c, 2, 77, 110
12, 62688, Note_on_c, 2, 82, 110
12, 62734, Note_on_c, 2, 73, 0
12, 62734, Note_on_c, 2, 77, 0
12, 62734, Note_on_c, 2, 82, 0
12, 62736, Note_on_c, 2, 73, 110
12, 62736, Note_on_c, 2, 77, 110
12, 62736, Note_on_c, 2, 82, 110
12, 62878, Note_on_c, 2, 73, 0
12, 62878, Note_on_c, 2, 77, 0
12, 62878, Note_on_c, 2, 82, 0
12, 62880, Note_on_c, 2, 77, 110
12, 62926, Note_on_c, 2, 77, 0
12, 62928, Note_on_c, 2, 80, 110
12, 63022, Note_on_c, 2, 80, 0
12, 63024, Note_on_c, 2, 82, 110
12, 63166, Note_on_c, 2, 82, 0
12, 64800, Note_on_c, 2, 77, 110
12, 64846, Note_on_c, 2, 77, 0
12, 64848, Note_on_c, 2, 77, 110
12, 64894, Note_on_c, 2, 77, 0
12, 64896, Note_on_c, 2, 77, 110
12, 64990, Note_on_c, 2, 77, 0
12, 64992, Note_on_c, 2, 77, 110
12, 65038, Note_on_c, 2, 77, 0
12, 65040, Note_on_c, 2, 77, 110
12, 65182, Note_on_c, 2, 77, 0
12, 65184, Note_on_c, 2, 73, 110
12, 65230, Note_on_c, 2, 73, 0
12, 65232, Note_on_c, 2, 75, 110
12, 65326, Note_on_c, 2, 75, 0
12, 65328, Note_on_c, 2, 77, 110
12, 65470, Note_on_c, 2, 77, 0
12, 65760, Note_on_c, 2, 73, 110
12, 65806, Note_on_c, 2, 73, 0
12, 65808, Note_on_c, 2, 72, 110
12, 66208, Note_on_c, 2, 72, 0
12, 66240, Note_on_c, 2, 77, 110
12, 66334, Note_on_c, 2, 77, 0
12, 66336, Note_on_c, 2, 75, 110
12, 66382, Note_on_c, 2, 75, 0
12, 66384, Note_on_c, 2, 75, 110
12, 66574, Note_on_c, 2, 75, 0
12, 66576, Note_on_c, 2, 73, 110
12, 66622, Note_on_c, 2, 73, 0
12, 66624, Note_on_c, 2, 75, 110
12, 66718, Note_on_c, 2, 75, 0
12, 66720, Note_on_c, 2, 77, 110
12, 67744, Note_on_c, 2, 77, 0
12, 67744, End_track
13, 0, Start_track
13, 0, MIDI_port, 0
13, 0, Title_t, "(c) 2000"
13, 0, Control_c, 0, 7, 127
13, 0, Control_c, 0, 10, 64
13, 0, End_track
0, 0, End_of_file
