0, 0, Header, 0, 1, 120
1, 0, Start_track
1, 0, Sequencer_specific, 3, 0, 0, 65
1, 0, Time_signature, 4, 2, 24, 8
1, 0, Key_signature, 0, "major"
1, 0, Tempo, 500000
1, 0, Marker_t, "Vocal"
1, 0, Control_c, 0, 0, 5
1, 0, Control_c, 0, 32, 87
1, 0, Program_c, 0, 54
1, 0, Control_c, 0, 7, 120
1, 0, Control_c, 0, 64, 0
1, 0, Control_c, 2, 0, 0
1, 0, Control_c, 2, 32, 104
1, 0, Program_c, 2, 16
1, 0, Control_c, 1, 0, 1
1, 0, Control_c, 1, 32, 28
1, 0, Program_c, 1, 0
1, 0, Control_c, 1, 7, 100
1, 0, Control_c, 1, 64, 0
1, 0, Control_c, 3, 64, 0
1, 0, Control_c, 3, 0, 0
1, 0, Control_c, 3, 32, 118
1, 0, Program_c, 3, 29
1, 0, Control_c, 3, 7, 100
1, 0, Control_c, 2, 7, 55
1, 0, Control_c, 9, 7, 100
1, 0, Control_c, 2, 64, 0
1, 0, Control_c, 4, 64, 0
1, 0, Control_c, 4, 0, 0
1, 0, Control_c, 4, 32, 104
1, 0, Program_c, 4, 34
1, 0, Control_c, 4, 7, 100
1, 360, Tempo, 625000
1, 360, Note_on_c, 9, 64, 100
1, 370, Note_on_c, 9, 64, 0
1, 375, Note_on_c, 9, 64, 100
1, 385, Note_on_c, 9, 64, 0
1, 390, Note_on_c, 9, 64, 100
1, 400, Note_on_c, 9, 64, 0
1, 405, Note_on_c, 9, 64, 100
1, 415, Note_on_c, 9, 64, 0
1, 420, Note_on_c, 9, 64, 100
1, 430, Note_on_c, 9, 64, 0
1, 435, Note_on_c, 9, 64, 100
1, 445, Note_on_c, 9, 64, 0
1, 450, Note_on_c, 9, 64, 100
1, 460, Note_on_c, 9, 64, 0
1, 465, Note_on_c, 9, 64, 100
1, 475, Note_on_c, 9, 64, 0
1, 480, Note_on_c, 9, 63, 100
1, 480, Note_on_c, 9, 35, 100
1, 520, Note_on_c, 9, 35, 0
1, 520, Note_on_c, 9, 63, 0
1, 540, Note_on_c, 9, 64, 100
1, 560, Note_on_c, 9, 64, 0
1, 570, Note_on_c, 9, 64, 100
1, 590, Note_on_c, 9, 64, 0
1, 600, Note_on_c, 9, 63, 100
1, 620, Note_on_c, 9, 63, 0
1, 630, Note_on_c, 9, 63, 100
1, 650, Note_on_c, 9, 63, 0
1, 660, Note_on_c, 9, 63, 100
1, 700, Note_on_c, 9, 63, 0
1, 720, Note_on_c, 9, 63, 100
1, 760, Note_on_c, 9, 63, 0
1, 780, Note_on_c, 9, 63, 100
1, 780, Note_on_c, 9, 35, 100
1, 820, Note_on_c, 9, 35, 0
1, 820, Note_on_c, 9, 63, 0
1, 840, Note_on_c, 9, 63, 100
1, 880, Note_on_c, 9, 63, 0
1, 900, Note_on_c, 9, 35, 100
1, 900, Note_on_c, 9, 64, 100
1, 920, Note_on_c, 9, 64, 0
1, 930, Note_on_c, 9, 64, 100
1, 940, Note_on_c, 9, 35, 0
1, 950, Note_on_c, 9, 64, 0
1, 960, Note_on_c, 9, 63, 100
1, 960, Note_on_c, 9, 35, 100
1, 960, Note_on_c, 9, 54, 55
1, 1000, Note_on_c, 9, 54, 0
1, 1000, Note_on_c, 9, 35, 0
1, 1000, Note_on_c, 9, 63, 0
1, 1020, Note_on_c, 9, 54, 55
1, 1020, Note_on_c, 9, 64, 100
1, 1040, Note_on_c, 9, 64, 0
1, 1050, Note_on_c, 9, 64, 100
1, 1060, Note_on_c, 9, 54, 0
1, 1070, Note_on_c, 9, 64, 0
1, 1080, Note_on_c, 9, 54, 55
1, 1080, Note_on_c, 9, 63, 100
1, 1100, Note_on_c, 9, 63, 0
1, 1110, Note_on_c, 9, 63, 100
1, 1120, Note_on_c, 9, 54, 0
1, 1130, Note_on_c, 9, 63, 0
1, 1140, Note_on_c, 9, 63, 100
1, 1140, Note_on_c, 9, 54, 55
1, 1180, Note_on_c, 9, 54, 0
1, 1180, Note_on_c, 9, 63, 0
1, 1200, Note_on_c, 9, 54, 55
1, 1200, Note_on_c, 9, 63, 100
1, 1240, Note_on_c, 9, 63, 0
1, 1240, Note_on_c, 9, 54, 0
1, 1260, Note_on_c, 9, 63, 100
1, 1260, Note_on_c, 9, 35, 100
1, 1260, Note_on_c, 9, 54, 55
1, 1300, Note_on_c, 9, 54, 0
1, 1300, Note_on_c, 9, 35, 0
1, 1300, Note_on_c, 9, 63, 0
1, 1320, Note_on_c, 9, 54, 55
1, 1320, Note_on_c, 9, 63, 100
1, 1360, Note_on_c, 9, 63, 0
1, 1360, Note_on_c, 9, 54, 0
1, 1380, Note_on_c, 9, 64, 100
1, 1380, Note_on_c, 9, 35, 100
1, 1380, Note_on_c, 9, 54, 55
1, 1400, Note_on_c, 9, 64, 0
1, 1410, Note_on_c, 4, 47, 100
1, 1410, Note_on_c, 9, 64, 100
1, 1420, Note_on_c, 9, 54, 0
1, 1420, Note_on_c, 9, 35, 0
1, 1430, Note_on_c, 9, 64, 0
1, 1436, Note_on_c, 4, 47, 0
1, 1440, Note_on_c, 9, 54, 55
1, 1440, Note_on_c, 9, 63, 100
1, 1440, Note_on_c, 9, 35, 100
1, 1440, Note_on_c, 4, 35, 100
1, 1480, Note_on_c, 9, 35, 0
1, 1480, Note_on_c, 9, 54, 0
1, 1480, Note_on_c, 9, 63, 0
1, 1492, Note_on_c, 4, 35, 0
1, 1500, Note_on_c, 4, 47, 100
1, 1500, Note_on_c, 9, 54, 55
1, 1500, Note_on_c, 9, 64, 100
1, 1500, Note_on_c, 1, 66, 100
1, 1500, Note_on_c, 1, 57, 100
1, 1500, Note_on_c, 1, 62, 100
1, 1520, Note_on_c, 9, 64, 0
1, 1530, Note_on_c, 9, 64, 100
1, 1540, Note_on_c, 9, 54, 0
1, 1550, Note_on_c, 9, 64, 0
1, 1560, Note_on_c, 9, 54, 55
1, 1560, Note_on_c, 9, 63, 100
1, 1578, Note_on_c, 4, 47, 0
1, 1580, Note_on_c, 9, 63, 0
1, 1590, Note_on_c, 4, 47, 100
1, 1590, Note_on_c, 9, 63, 100
1, 1600, Note_on_c, 9, 54, 0
1, 1604, Note_on_c, 1, 57, 0
1, 1604, Note_on_c, 1, 66, 0
1, 1604, Note_on_c, 1, 62, 0
1, 1610, Note_on_c, 9, 63, 0
1, 1616, Note_on_c, 4, 47, 0
1, 1620, Note_on_c, 9, 63, 100
1, 1620, Note_on_c, 9, 54, 55
1, 1620, Note_on_c, 4, 35, 100
1, 1660, Note_on_c, 9, 54, 0
1, 1660, Note_on_c, 9, 63, 0
1, 1672, Note_on_c, 4, 35, 0
1, 1680, Note_on_c, 1, 54, 100
1, 1680, Note_on_c, 4, 47, 100
1, 1680, Note_on_c, 9, 63, 100
1, 1680, Note_on_c, 1, 64, 100
1, 1680, Note_on_c, 1, 59, 100
1, 1680, Note_on_c, 9, 54, 55
1, 1720, Note_on_c, 9, 54, 0
1, 1720, Note_on_c, 9, 63, 0
1, 1740, Note_on_c, 9, 63, 100
1, 1740, Note_on_c, 9, 35, 100
1, 1740, Note_on_c, 9, 54, 55
1, 1758, Note_on_c, 4, 47, 0
1, 1770, Note_on_c, 4, 47, 100
1, 1780, Note_on_c, 9, 35, 0
1, 1780, Note_on_c, 9, 63, 0
1, 1780, Note_on_c, 9, 54, 0
1, 1784, Note_on_c, 1, 59, 0
1, 1784, Note_on_c, 1, 54, 0
1, 1784, Note_on_c, 1, 64, 0
1, 1796, Note_on_c, 4, 47, 0
1, 1800, Note_on_c, 9, 54, 55
1, 1800, Note_on_c, 4, 35, 100
1, 1800, Note_on_c, 1, 59, 100
1, 1800, Note_on_c, 9, 63, 100
1, 1800, Note_on_c, 1, 64, 100
1, 1800, Note_on_c, 1, 54, 100
1, 1840, Note_on_c, 9, 63, 0
1, 1840, Note_on_c, 9, 54, 0
1, 1852, Note_on_c, 1, 64, 0
1, 1852, Note_on_c, 4, 35, 0
1, 1852, Note_on_c, 1, 54, 0
1, 1852, Note_on_c, 1, 59, 0
1, 1860, Note_on_c, 9, 64, 100
1, 1860, Note_on_c, 1, 64, 100
1, 1860, Note_on_c, 4, 47, 100
1, 1860, Note_on_c, 1, 57, 100
1, 1860, Note_on_c, 9, 35, 100
1, 1860, Note_on_c, 9, 54, 55
1, 1860, Note_on_c, 1, 50, 100
1, 1880, Note_on_c, 9, 64, 0
1, 1890, Note_on_c, 9, 64, 100
1, 1900, Note_on_c, 9, 35, 0
1, 1900, Note_on_c, 9, 54, 0
1, 1910, Note_on_c, 9, 64, 0
1, 1920, Note_on_c, 9, 54, 55
1, 1920, Note_on_c, 9, 63, 100
1, 1920, Note_on_c, 9, 35, 100
1, 1938, Note_on_c, 4, 47, 0
1, 1950, Note_on_c, 4, 47, 100
1, 1960, Note_on_c, 9, 63, 0
1, 1960, Note_on_c, 9, 54, 0
1, 1960, Note_on_c, 9, 35, 0
1, 1964, Note_on_c, 1, 50, 0
1, 1964, Note_on_c, 1, 64, 0
1, 1964, Note_on_c, 1, 57, 0
1, 1976, Note_on_c, 4, 47, 0
1, 1980, Note_on_c, 9, 54, 55
1, 1980, Note_on_c, 4, 35, 100
1, 1980, Note_on_c, 9, 64, 100
1, 1980, Note_on_c, 1, 59, 100
1, 1980, Note_on_c, 1, 64, 100
1, 1980, Note_on_c, 1, 52, 100
1, 2000, Note_on_c, 9, 64, 0
1, 2010, Note_on_c, 9, 64, 100
1, 2020, Note_on_c, 9, 54, 0
1, 2030, Note_on_c, 9, 64, 0
1, 2032, Note_on_c, 1, 59, 0
1, 2032, Note_on_c, 4, 35, 0
1, 2032, Note_on_c, 1, 52, 0
1, 2032, Note_on_c, 1, 64, 0
1, 2040, Note_on_c, 1, 62, 100
1, 2040, Note_on_c, 9, 63, 100
1, 2040, Note_on_c, 9, 54, 55
1, 2040, Note_on_c, 1, 57, 100
1, 2040, Note_on_c, 4, 47, 100
1, 2040, Note_on_c, 1, 52, 100
1, 2060, Note_on_c, 9, 63, 0
1, 2070, Note_on_c, 9, 63, 100
1, 2080, Note_on_c, 9, 54, 0
1, 2090, Note_on_c, 9, 63, 0
1, 2100, Note_on_c, 9, 54, 55
1, 2100, Note_on_c, 9, 63, 100
1, 2118, Note_on_c, 4, 47, 0
1, 2130, Note_on_c, 4, 45, 100
1, 2140, Note_on_c, 9, 54, 0
1, 2140, Note_on_c, 9, 63, 0
1, 2144, Note_on_c, 1, 57, 0
1, 2144, Note_on_c, 1, 62, 0
1, 2144, Note_on_c, 1, 52, 0
1, 2156, Note_on_c, 4, 45, 0
1, 2160, Note_on_c, 9, 63, 100
1, 2160, Note_on_c, 4, 38, 100
1, 2160, Note_on_c, 9, 54, 55
1, 2160, Note_on_c, 1, 52, 100
1, 2186, Note_on_c, 1, 52, 0
1, 2190, Note_on_c, 1, 54, 100
1, 2200, Note_on_c, 9, 54, 0
1, 2200, Note_on_c, 9, 63, 0
1, 2216, Note_on_c, 1, 54, 0
1, 2220, Note_on_c, 1, 57, 100
1, 2220, Note_on_c, 9, 63, 100
1, 2220, Note_on_c, 9, 54, 55
1, 2220, Note_on_c, 9, 35, 100
1, 2238, Note_on_c, 4, 38, 0
1, 2246, Note_on_c, 1, 57, 0
1, 2250, Note_on_c, 1, 61, 100
1, 2250, Note_on_c, 4, 47, 100
1, 2260, Note_on_c, 9, 54, 0
1, 2260, Note_on_c, 9, 35, 0
1, 2260, Note_on_c, 9, 63, 0
1, 2276, Note_on_c, 1, 61, 0
1, 2276, Note_on_c, 4, 47, 0
1, 2280, Note_on_c, 9, 63, 100
1, 2280, Note_on_c, 1, 59, 100
1, 2280, Note_on_c, 4, 40, 100
1, 2280, Note_on_c, 9, 54, 55
1, 2306, Note_on_c, 1, 59, 0
1, 2310, Note_on_c, 1, 56, 100
1, 2320, Note_on_c, 9, 63, 0
1, 2320, Note_on_c, 9, 54, 0
1, 2336, Note_on_c, 1, 56, 0
1, 2340, Note_on_c, 9, 64, 100
1, 2340, Note_on_c, 1, 52, 100
1, 2340, Note_on_c, 9, 35, 100
1, 2340, Note_on_c, 9, 54, 55
1, 2358, Note_on_c, 4, 40, 0
1, 2360, Note_on_c, 9, 64, 0
1, 2366, Note_on_c, 1, 52, 0
1, 2370, Note_on_c, 4, 47, 100
1, 2370, Note_on_c, 1, 66, 100
1, 2370, Note_on_c, 1, 62, 100
1, 2370, Note_on_c, 9, 64, 100
1, 2370, Note_on_c, 1, 57, 100
1, 2380, Note_on_c, 9, 35, 0
1, 2380, Note_on_c, 9, 54, 0
1, 2390, Note_on_c, 9, 64, 0
1, 2396, Note_on_c, 1, 62, 0
1, 2396, Note_on_c, 1, 66, 0
1, 2396, Note_on_c, 4, 47, 0
1, 2396, Note_on_c, 1, 57, 0
1, 2400, Note_on_c, 9, 35, 100
1, 2400, Note_on_c, 4, 35, 100
1, 2400, Note_on_c, 9, 63, 100
1, 2400, Note_on_c, 9, 54, 55
1, 2440, Note_on_c, 9, 54, 0
1, 2440, Note_on_c, 9, 63, 0
1, 2440, Note_on_c, 9, 35, 0
1, 2452, Note_on_c, 4, 35, 0
1, 2460, Note_on_c, 1, 74, 100
1, 2460, Note_on_c, 9, 54, 55
1, 2460, Note_on_c, 1, 66, 100
1, 2460, Note_on_c, 9, 64, 100
1, 2460, Note_on_c, 4, 47, 100
1, 2460, Note_on_c, 1, 69, 100
1, 2480, Note_on_c, 9, 64, 0
1, 2490, Note_on_c, 9, 64, 100
1, 2500, Note_on_c, 9, 54, 0
1, 2510, Note_on_c, 9, 64, 0
1, 2520, Note_on_c, 9, 54, 55
1, 2520, Note_on_c, 9, 63, 100
1, 2538, Note_on_c, 4, 47, 0
1, 2540, Note_on_c, 9, 63, 0
1, 2550, Note_on_c, 4, 47, 100
1, 2550, Note_on_c, 9, 63, 100
1, 2560, Note_on_c, 9, 54, 0
1, 2564, Note_on_c, 1, 66, 0
1, 2564, Note_on_c, 1, 74, 0
1, 2564, Note_on_c, 1, 69, 0
1, 2570, Note_on_c, 9, 63, 0
1, 2576, Note_on_c, 4, 47, 0
1, 2580, Note_on_c, 9, 54, 55
1, 2580, Note_on_c, 4, 35, 100
1, 2580, Note_on_c, 9, 63, 100
1, 2620, Note_on_c, 9, 63, 0
1, 2620, Note_on_c, 9, 54, 0
1, 2632, Note_on_c, 4, 35, 0
1, 2640, Note_on_c, 1, 64, 100
1, 2640, Note_on_c, 4, 47, 100
1, 2640, Note_on_c, 1, 73, 100
1, 2640, Note_on_c, 1, 69, 100
1, 2640, Note_on_c, 9, 63, 100
1, 2640, Note_on_c, 9, 54, 55
1, 2680, Note_on_c, 9, 54, 0
1, 2680, Note_on_c, 9, 63, 0
1, 2700, Note_on_c, 9, 35, 100
1, 2700, Note_on_c, 9, 63, 100
1, 2700, Note_on_c, 9, 54, 55
1, 2718, Note_on_c, 4, 47, 0
1, 2730, Note_on_c, 4, 47, 100
1, 2740, Note_on_c, 9, 63, 0
1, 2740, Note_on_c, 9, 35, 0
1, 2740, Note_on_c, 9, 54, 0
1, 2744, Note_on_c, 1, 69, 0
1, 2744, Note_on_c, 1, 64, 0
1, 2744, Note_on_c, 1, 73, 0
1, 2756, Note_on_c, 4, 47, 0
1, 2760, Note_on_c, 1, 66, 100
1, 2760, Note_on_c, 4, 35, 100
1, 2760, Note_on_c, 9, 54, 55
1, 2760, Note_on_c, 1, 57, 100
1, 2760, Note_on_c, 9, 63, 100
1, 2760, Note_on_c, 1, 62, 100
1, 2800, Note_on_c, 9, 63, 0
1, 2800, Note_on_c, 9, 54, 0
1, 2812, Note_on_c, 1, 57, 0
1, 2812, Note_on_c, 1, 66, 0
1, 2812, Note_on_c, 1, 62, 0
1, 2812, Note_on_c, 4, 35, 0
1, 2820, Note_on_c, 4, 47, 100
1, 2820, Note_on_c, 1, 64, 100
1, 2820, Note_on_c, 9, 35, 100
1, 2820, Note_on_c, 1, 61, 100
1, 2820, Note_on_c, 9, 64, 100
1, 2820, Note_on_c, 9, 54, 55
1, 2820, Note_on_c, 1, 57, 100
1, 2840, Note_on_c, 9, 64, 0
1, 2850, Note_on_c, 9, 64, 100
1, 2860, Note_on_c, 9, 35, 0
1, 2860, Note_on_c, 9, 54, 0
1, 2870, Note_on_c, 9, 64, 0
1, 2880, Note_on_c, 9, 63, 100
1, 2880, Note_on_c, 9, 54, 55
1, 2880, Note_on_c, 9, 35, 100
1, 2881, Tempo, 625000
1, 2898, Note_on_c, 4, 47, 0
1, 2910, Note_on_c, 4, 47, 100
1, 2920, Note_on_c, 9, 54, 0
1, 2920, Note_on_c, 9, 63, 0
1, 2920, Note_on_c, 9, 35, 0
1, 2924, Note_on_c, 1, 57, 0
1, 2924, Note_on_c, 1, 64, 0
1, 2924, Note_on_c, 1, 61, 0
1, 2936, Note_on_c, 4, 47, 0
1, 2940, Note_on_c, 9, 54, 55
1, 2940, Note_on_c, 4, 35, 100
1, 2940, Note_on_c, 9, 64, 100
1, 2960, Note_on_c, 9, 64, 0
1, 2966, Note_on_c, 4, 35, 0
1, 2970, Note_on_c, 9, 64, 100
1, 2970, Note_on_c, 1, 52, 100
1, 2970, Note_on_c, 4, 47, 100
1, 2980, Note_on_c, 9, 54, 0
1, 2990, Note_on_c, 9, 64, 0
1, 3000, Note_on_c, 9, 63, 100
1, 3000, Note_on_c, 9, 54, 55
1, 3020, Note_on_c, 9, 63, 0
1, 3022, Note_on_c, 4, 47, 0
1, 3022, Note_on_c, 1, 52, 0
1, 3030, Note_on_c, 1, 52, 100
1, 3030, Note_on_c, 9, 63, 100
1, 3030, Note_on_c, 4, 47, 100
1, 3040, Note_on_c, 9, 54, 0
1, 3050, Note_on_c, 9, 63, 0
1, 3060, Note_on_c, 9, 63, 100
1, 3060, Note_on_c, 9, 54, 55
1, 3082, Note_on_c, 1, 52, 0
1, 3082, Note_on_c, 4, 47, 0
1, 3090, Note_on_c, 1, 52, 100
1, 3090, Note_on_c, 4, 38, 100
1, 3090, Note_on_c, 1, 57, 100
1, 3100, Note_on_c, 9, 63, 0
1, 3100, Note_on_c, 9, 54, 0
1, 3120, Note_on_c, 9, 63, 100
1, 3120, Note_on_c, 9, 54, 55
1, 3142, Note_on_c, 4, 38, 0
1, 3150, Note_on_c, 4, 38, 100
1, 3160, Note_on_c, 9, 63, 0
1, 3160, Note_on_c, 9, 54, 0
1, 3168, Note_on_c, 1, 57, 0
1, 3168, Note_on_c, 1, 52, 0
1, 3180, Note_on_c, 1, 57, 100
1, 3180, Note_on_c, 9, 54, 55
1, 3180, Note_on_c, 9, 63, 100
1, 3180, Note_on_c, 9, 35, 100
1, 3180, Note_on_c, 1, 52, 100
1, 3220, Note_on_c, 9, 35, 0
1, 3220, Note_on_c, 9, 63, 0
1, 3220, Note_on_c, 9, 54, 0
1, 3228, Note_on_c, 4, 38, 0
1, 3232, Note_on_c, 1, 57, 0
1, 3232, Note_on_c, 1, 52, 0
1, 3240, Note_on_c, 1, 59, 100
1, 3240, Note_on_c, 4, 40, 100
1, 3240, Note_on_c, 1, 54, 100
1, 3240, Note_on_c, 9, 54, 55
1, 3240, Note_on_c, 9, 63, 100
1, 3280, Note_on_c, 9, 63, 0
1, 3280, Note_on_c, 9, 54, 0
1, 3300, Note_on_c, 9, 54, 55
1, 3300, Note_on_c, 9, 64, 100
1, 3300, Note_on_c, 9, 35, 100
1, 3318, Note_on_c, 4, 40, 0
1, 3320, Note_on_c, 9, 64, 0
1, 3330, Note_on_c, 9, 64, 100
1, 3330, Note_on_c, 4, 47, 100
1, 3340, Note_on_c, 9, 54, 0
1, 3340, Note_on_c, 9, 35, 0
1, 3344, Note_on_c, 1, 54, 0
1, 3344, Note_on_c, 1, 59, 0
1, 3350, Note_on_c, 9, 64, 0
1, 3356, Note_on_c, 4, 47, 0
1, 3360, Note_on_c, 4, 35, 100
1, 3360, Note_on_c, 9, 63, 100
1, 3360, Note_on_c, 9, 54, 55
1, 3360, Note_on_c, 9, 35, 100
1, 3400, Note_on_c, 9, 35, 0
1, 3400, Note_on_c, 9, 54, 0
1, 3400, Note_on_c, 9, 63, 0
1, 3412, Note_on_c, 4, 35, 0
1, 3420, Note_on_c, 4, 47, 100
1, 3420, Note_on_c, 1, 62, 100
1, 3420, Note_on_c, 9, 64, 100
1, 3420, Note_on_c, 9, 54, 55
1, 3420, Note_on_c, 1, 57, 100
1, 3420, Note_on_c, 1, 66, 100
1, 3440, Note_on_c, 9, 64, 0
1, 3450, Note_on_c, 9, 64, 100
1, 3460, Note_on_c, 9, 54, 0
1, 3470, Note_on_c, 9, 64, 0
1, 3480, Note_on_c, 9, 54, 55
1, 3480, Note_on_c, 9, 63, 100
1, 3498, Note_on_c, 4, 47, 0
1, 3500, Note_on_c, 9, 63, 0
1, 3510, Note_on_c, 9, 63, 100
1, 3510, Note_on_c, 4, 47, 100
1, 3520, Note_on_c, 9, 54, 0
1, 3524, Note_on_c, 1, 66, 0
1, 3524, Note_on_c, 1, 62, 0
1, 3524, Note_on_c, 1, 57, 0
1, 3530, Note_on_c, 9, 63, 0
1, 3536, Note_on_c, 4, 47, 0
1, 3540, Note_on_c, 4, 35, 100
1, 3540, Note_on_c, 9, 63, 100
1, 3540, Note_on_c, 9, 54, 55
1, 3580, Note_on_c, 9, 54, 0
1, 3580, Note_on_c, 9, 63, 0
1, 3592, Note_on_c, 4, 35, 0
1, 3600, Note_on_c, 1, 64, 100
1, 3600, Note_on_c, 4, 47, 100
1, 3600, Note_on_c, 9, 63, 100
1, 3600, Note_on_c, 9, 54, 55
1, 3600, Note_on_c, 1, 59, 100
1, 3600, Note_on_c, 1, 54, 100
1, 3640, Note_on_c, 9, 54, 0
1, 3640, Note_on_c, 9, 63, 0
1, 3660, Note_on_c, 9, 54, 55
1, 3660, Note_on_c, 9, 63, 100
1, 3660, Note_on_c, 9, 35, 100
1, 3678, Note_on_c, 4, 47, 0
1, 3690, Note_on_c, 4, 47, 100
1, 3700, Note_on_c, 9, 63, 0
1, 3700, Note_on_c, 9, 54, 0
1, 3700, Note_on_c, 9, 35, 0
1, 3704, Note_on_c, 1, 54, 0
1, 3704, Note_on_c, 1, 64, 0
1, 3704, Note_on_c, 1, 59, 0
1, 3716, Note_on_c, 4, 47, 0
1, 3720, Note_on_c, 1, 54, 100
1, 3720, Note_on_c, 1, 64, 100
1, 3720, Note_on_c, 1, 59, 100
1, 3720, Note_on_c, 4, 35, 100
1, 3720, Note_on_c, 9, 63, 100
1, 3720, Note_on_c, 9, 54, 55
1, 3760, Note_on_c, 9, 54, 0
1, 3760, Note_on_c, 9, 63, 0
1, 3772, Note_on_c, 1, 59, 0
1, 3772, Note_on_c, 1, 54, 0
1, 3772, Note_on_c, 1, 64, 0
1, 3772, Note_on_c, 4, 35, 0
1, 3780, Note_on_c, 9, 54, 55
1, 3780, Note_on_c, 9, 35, 100
1, 3780, Note_on_c, 4, 47, 100
1, 3780, Note_on_c, 9, 64, 100
1, 3780, Note_on_c, 1, 50, 100
1, 3780, Note_on_c, 1, 64, 100
1, 3780, Note_on_c, 1, 57, 100
1, 3800, Note_on_c, 9, 64, 0
1, 3810, Note_on_c, 9, 64, 100
1, 3820, Note_on_c, 9, 35, 0
1, 3820, Note_on_c, 9, 54, 0
1, 3830, Note_on_c, 9, 64, 0
1, 3840, Note_on_c, 9, 35, 100
1, 3840, Note_on_c, 9, 63, 100
1, 3840, Note_on_c, 9, 54, 55
1, 3858, Note_on_c, 4, 47, 0
1, 3870, Note_on_c, 4, 47, 100
1, 3880, Note_on_c, 9, 63, 0
1, 3880, Note_on_c, 9, 35, 0
1, 3880, Note_on_c, 9, 54, 0
1, 3884, Note_on_c, 1, 50, 0
1, 3884, Note_on_c, 1, 57, 0
1, 3884, Note_on_c, 1, 64, 0
1, 3896, Note_on_c, 4, 47, 0
1, 3900, Note_on_c, 1, 64, 100
1, 3900, Note_on_c, 1, 52, 100
1, 3900, Note_on_c, 4, 35, 100
1, 3900, Note_on_c, 1, 59, 100
1, 3900, Note_on_c, 9, 64, 100
1, 3900, Note_on_c, 9, 54, 55
1, 3920, Note_on_c, 9, 64, 0
1, 3930, Note_on_c, 9, 64, 100
1, 3940, Note_on_c, 9, 54, 0
1, 3950, Note_on_c, 9, 64, 0
1, 3952, Note_on_c, 4, 35, 0
1, 3952, Note_on_c, 1, 64, 0
1, 3952, Note_on_c, 1, 52, 0
1, 3952, Note_on_c, 1, 59, 0
1, 3960, Note_on_c, 9, 54, 55
1, 3960, Note_on_c, 4, 47, 100
1, 3960, Note_on_c, 1, 62, 100
1, 3960, Note_on_c, 1, 57, 100
1, 3960, Note_on_c, 1, 52, 100
1, 3960, Note_on_c, 9, 63, 100
1, 3980, Note_on_c, 9, 63, 0
1, 3990, Note_on_c, 9, 63, 100
1, 4000, Note_on_c, 9, 54, 0
1, 4010, Note_on_c, 9, 63, 0
1, 4020, Note_on_c, 9, 54, 55
1, 4020, Note_on_c, 9, 63, 100
1, 4038, Note_on_c, 4, 47, 0
1, 4050, Note_on_c, 4, 45, 100
1, 4060, Note_on_c, 9, 54, 0
1, 4060, Note_on_c, 9, 63, 0
1, 4064, Note_on_c, 1, 52, 0
1, 4064, Note_on_c, 1, 57, 0
1, 4064, Note_on_c, 1, 62, 0
1, 4076, Note_on_c, 4, 45, 0
1, 4080, Note_on_c, 1, 52, 100
1, 4080, Note_on_c, 9, 63, 100
1, 4080, Note_on_c, 9, 54, 55
1, 4080, Note_on_c, 4, 38, 100
1, 4106, Note_on_c, 1, 52, 0
1, 4110, Note_on_c, 1, 54, 100
1, 4120, Note_on_c, 9, 63, 0
1, 4120, Note_on_c, 9, 54, 0
1, 4136, Note_on_c, 1, 54, 0
1, 4140, Note_on_c, 9, 35, 100
1, 4140, Note_on_c, 9, 54, 55
1, 4140, Note_on_c, 1, 57, 100
1, 4140, Note_on_c, 9, 63, 100
1, 4158, Note_on_c, 4, 38, 0
1, 4166, Note_on_c, 1, 57, 0
1, 4170, Note_on_c, 1, 61, 100
1, 4170, Note_on_c, 4, 47, 100
1, 4180, Note_on_c, 9, 35, 0
1, 4180, Note_on_c, 9, 63, 0
1, 4180, Note_on_c, 9, 54, 0
1, 4196, Note_on_c, 1, 61, 0
1, 4196, Note_on_c, 4, 47, 0
1, 4200, Note_on_c, 9, 63, 100
1, 4200, Note_on_c, 4, 40, 100
1, 4200, Note_on_c, 1, 59, 100
1, 4200, Note_on_c, 9, 54, 55
1, 4226, Note_on_c, 1, 59, 0
1, 4230, Note_on_c, 1, 56, 100
1, 4240, Note_on_c, 9, 54, 0
1, 4240, Note_on_c, 9, 63, 0
1, 4256, Note_on_c, 1, 56, 0
1, 4260, Note_on_c, 9, 54, 55
1, 4260, Note_on_c, 1, 52, 100
1, 4260, Note_on_c, 9, 64, 100
1, 4260, Note_on_c, 9, 35, 100
1, 4278, Note_on_c, 4, 40, 0
1, 4280, Note_on_c, 9, 64, 0
1, 4286, Note_on_c, 1, 52, 0
1, 4290, Note_on_c, 1, 66, 100
1, 4290, Note_on_c, 1, 57, 100
1, 4290, Note_on_c, 4, 47, 100
1, 4290, Note_on_c, 9, 64, 100
1, 4290, Note_on_c, 1, 62, 100
1, 4300, Note_on_c, 9, 54, 0
1, 4300, Note_on_c, 9, 35, 0
1, 4310, Note_on_c, 9, 64, 0
1, 4316, Note_on_c, 4, 47, 0
1, 4316, Note_on_c, 1, 57, 0
1, 4316, Note_on_c, 1, 66, 0
1, 4316, Note_on_c, 1, 62, 0
1, 4320, Note_on_c, 9, 35, 100
1, 4320, Note_on_c, 4, 35, 100
1, 4320, Note_on_c, 9, 54, 55
1, 4320, Note_on_c, 9, 63, 100
1, 4360, Note_on_c, 9, 63, 0
1, 4360, Note_on_c, 9, 54, 0
1, 4360, Note_on_c, 9, 35, 0
1, 4372, Note_on_c, 4, 35, 0
1, 4380, Note_on_c, 9, 64, 100
1, 4380, Note_on_c, 1, 69, 100
1, 4380, Note_on_c, 1, 74, 100
1, 4380, Note_on_c, 4, 47, 100
1, 4380, Note_on_c, 1, 66, 100
1, 4380, Note_on_c, 9, 54, 55
1, 4400, Note_on_c, 9, 64, 0
1, 4410, Note_on_c, 9, 64, 100
1, 4420, Note_on_c, 9, 54, 0
1, 4430, Note_on_c, 9, 64, 0
1, 4440, Note_on_c, 9, 63, 100
1, 4440, Note_on_c, 9, 54, 55
1, 4458, Note_on_c, 4, 47, 0
1, 4460, Note_on_c, 9, 63, 0
1, 4470, Note_on_c, 4, 47, 100
1, 4470, Note_on_c, 9, 63, 100
1, 4480, Note_on_c, 9, 54, 0
1, 4484, Note_on_c, 1, 74, 0
1, 4484, Note_on_c, 1, 69, 0
1, 4484, Note_on_c, 1, 66, 0
1, 4490, Note_on_c, 9, 63, 0
1, 4496, Note_on_c, 4, 47, 0
1, 4500, Note_on_c, 9, 63, 100
1, 4500, Note_on_c, 4, 35, 100
1, 4500, Note_on_c, 9, 54, 55
1, 4540, Note_on_c, 9, 54, 0
1, 4540, Note_on_c, 9, 63, 0
1, 4552, Note_on_c, 4, 35, 0
1, 4560, Note_on_c, 9, 63, 100
1, 4560, Note_on_c, 9, 54, 55
1, 4560, Note_on_c, 4, 47, 100
1, 4560, Note_on_c, 1, 69, 100
1, 4560, Note_on_c, 1, 64, 100
1, 4560, Note_on_c, 1, 73, 100
1, 4600, Note_on_c, 9, 54, 0
1, 4600, Note_on_c, 9, 63, 0
1, 4620, Note_on_c, 9, 54, 55
1, 4620, Note_on_c, 9, 63, 100
1, 4620, Note_on_c, 9, 35, 100
1, 4638, Note_on_c, 4, 47, 0
1, 4650, Note_on_c, 4, 47, 100
1, 4660, Note_on_c, 9, 63, 0
1, 4660, Note_on_c, 9, 54, 0
1, 4660, Note_on_c, 9, 35, 0
1, 4664, Note_on_c, 1, 73, 0
1, 4664, Note_on_c, 1, 69, 0
1, 4664, Note_on_c, 1, 64, 0
1, 4676, Note_on_c, 4, 47, 0
1, 4680, Note_on_c, 9, 54, 55
1, 4680, Note_on_c, 1, 66, 100
1, 4680, Note_on_c, 9, 63, 100
1, 4680, Note_on_c, 4, 35, 100
1, 4680, Note_on_c, 1, 57, 100
1, 4680, Note_on_c, 1, 62, 100
1, 4720, Note_on_c, 9, 63, 0
1, 4720, Note_on_c, 9, 54, 0
1, 4732, Note_on_c, 4, 35, 0
1, 4732, Note_on_c, 1, 66, 0
1, 4732, Note_on_c, 1, 62, 0
1, 4732, Note_on_c, 1, 57, 0
1, 4740, Note_on_c, 1, 61, 100
1, 4740, Note_on_c, 4, 47, 100
1, 4740, Note_on_c, 9, 35, 100
1, 4740, Note_on_c, 9, 54, 55
1, 4740, Note_on_c, 9, 64, 100
1, 4740, Note_on_c, 1, 57, 100
1, 4740, Note_on_c, 1, 64, 100
1, 4760, Note_on_c, 9, 64, 0
1, 4770, Note_on_c, 9, 64, 100
1, 4780, Note_on_c, 9, 54, 0
1, 4780, Note_on_c, 9, 35, 0
1, 4790, Note_on_c, 9, 64, 0
1, 4800, Note_on_c, 9, 35, 100
1, 4800, Note_on_c, 9, 54, 55
1, 4800, Note_on_c, 9, 63, 100
1, 4818, Note_on_c, 4, 47, 0
1, 4830, Note_on_c, 4, 47, 100
1, 4840, Note_on_c, 9, 54, 0
1, 4840, Note_on_c, 9, 35, 0
1, 4840, Note_on_c, 9, 63, 0
1, 4844, Note_on_c, 1, 64, 0
1, 4844, Note_on_c, 1, 61, 0
1, 4844, Note_on_c, 1, 57, 0
1, 4856, Note_on_c, 4, 47, 0
1, 4860, Note_on_c, 1, 62, 100
1, 4860, Note_on_c, 1, 66, 100
1, 4860, Note_on_c, 4, 35, 100
1, 4860, Note_on_c, 1, 57, 100
1, 4860, Note_on_c, 9, 54, 55
1, 4860, Note_on_c, 9, 64, 100
1, 4880, Note_on_c, 9, 64, 0
1, 4886, Note_on_c, 4, 35, 0
1, 4890, Note_on_c, 4, 47, 100
1, 4890, Note_on_c, 9, 64, 100
1, 4900, Note_on_c, 9, 54, 0
1, 4910, Note_on_c, 9, 64, 0
1, 4912, Note_on_c, 1, 57, 0
1, 4912, Note_on_c, 1, 62, 0
1, 4912, Note_on_c, 1, 66, 0
1, 4920, Note_on_c, 9, 54, 55
1, 4920, Note_on_c, 1, 61, 100
1, 4920, Note_on_c, 9, 63, 100
1, 4920, Note_on_c, 1, 64, 100
1, 4920, Note_on_c, 1, 57, 100
1, 4940, Note_on_c, 9, 63, 0
1, 4942, Note_on_c, 4, 47, 0
1, 4950, Note_on_c, 4, 47, 100
1, 4950, Note_on_c, 9, 63, 100
1, 4960, Note_on_c, 9, 54, 0
1, 4970, Note_on_c, 9, 63, 0
1, 4980, Note_on_c, 9, 63, 100
1, 4980, Note_on_c, 9, 54, 55
1, 5002, Note_on_c, 4, 47, 0
1, 5010, Note_on_c, 4, 35, 100
1, 5020, Note_on_c, 9, 63, 0
1, 5020, Note_on_c, 9, 54, 0
1, 5024, Note_on_c, 1, 64, 0
1, 5024, Note_on_c, 1, 61, 0
1, 5024, Note_on_c, 1, 57, 0
1, 5036, Note_on_c, 4, 35, 0
1, 5040, Note_on_c, 1, 62, 100
1, 5040, Note_on_c, 4, 47, 100
1, 5040, Note_on_c, 9, 63, 100
1, 5040, Note_on_c, 9, 54, 55
1, 5060, Note_on_c, 9, 63, 0
1, 5066, Note_on_c, 1, 62, 0
1, 5066, Note_on_c, 4, 47, 0
1, 5070, Note_on_c, 4, 45, 100
1, 5070, Note_on_c, 1, 61, 100
1, 5070, Note_on_c, 9, 63, 100
1, 5080, Note_on_c, 9, 54, 0
1, 5090, Note_on_c, 9, 63, 0
1, 5096, Note_on_c, 1, 61, 0
1, 5096, Note_on_c, 4, 45, 0
1, 5100, Note_on_c, 9, 54, 55
1, 5100, Note_on_c, 1, 59, 100
1, 5100, Note_on_c, 4, 44, 100
1, 5100, Note_on_c, 9, 63, 100
1, 5120, Note_on_c, 9, 63, 0
1, 5126, Note_on_c, 4, 44, 0
1, 5126, Note_on_c, 1, 59, 0
1, 5130, Note_on_c, 4, 45, 100
1, 5130, Note_on_c, 1, 61, 100
1, 5130, Note_on_c, 9, 63, 100
1, 5140, Note_on_c, 9, 54, 0
1, 5150, Note_on_c, 9, 63, 0
1, 5156, Note_on_c, 1, 61, 0
1, 5156, Note_on_c, 4, 45, 0
1, 5160, Note_on_c, 4, 44, 100
1, 5160, Note_on_c, 9, 54, 55
1, 5160, Note_on_c, 9, 63, 100
1, 5160, Note_on_c, 1, 59, 100
1, 5180, Note_on_c, 9, 63, 0
1, 5186, Note_on_c, 1, 59, 0
1, 5186, Note_on_c, 4, 44, 0
1, 5190, Note_on_c, 9, 63, 100
1, 5190, Note_on_c, 1, 57, 100
1, 5190, Note_on_c, 4, 42, 100
1, 5200, Note_on_c, 9, 54, 0
1, 5210, Note_on_c, 9, 63, 0
1, 5216, Note_on_c, 1, 57, 0
1, 5216, Note_on_c, 4, 42, 0
1, 5220, Note_on_c, 9, 63, 100
1, 5220, Note_on_c, 4, 40, 100
1, 5220, Note_on_c, 9, 54, 55
1, 5220, Note_on_c, 1, 56, 100
1, 5240, Note_on_c, 9, 63, 0
1, 5246, Note_on_c, 4, 40, 0
1, 5246, Note_on_c, 1, 56, 0
1, 5250, Note_on_c, 9, 63, 100
1, 5250, Note_on_c, 1, 54, 100
1, 5250, Note_on_c, 4, 38, 100
1, 5260, Note_on_c, 9, 54, 0
1, 5270, Note_on_c, 9, 63, 0
1, 5276, Note_on_c, 1, 54, 0
1, 5276, Note_on_c, 4, 38, 0
1, 5280, Note_on_c, 2, 59, 100
1, 5280, Note_on_c, 9, 35, 100
1, 5280, Note_on_c, 4, 40, 100
1, 5280, Note_on_c, 2, 68, 100
1, 5280, Note_on_c, 9, 63, 100
1, 5280, Note_on_c, 9, 54, 55
1, 5280, Note_on_c, 2, 64, 100
1, 5320, Note_on_c, 9, 54, 0
1, 5320, Note_on_c, 9, 35, 0
1, 5320, Note_on_c, 9, 63, 0
1, 5332, Note_on_c, 4, 40, 0
1, 5340, Note_on_c, 9, 54, 55
1, 5340, Note_on_c, 0, 68, 100
1, 5340, Note_on_c, 9, 64, 100
1, 5340, Note_on_c, 4, 40, 100
1, 5360, Note_on_c, 9, 64, 0
1, 5370, Note_on_c, 9, 64, 100
1, 5380, Note_on_c, 9, 54, 0
1, 5390, Note_on_c, 9, 64, 0
1, 5392, Note_on_c, 0, 68, 0
1, 5400, Note_on_c, 0, 71, 100
1, 5400, Note_on_c, 9, 63, 100
1, 5400, Note_on_c, 9, 54, 55
1, 5418, Note_on_c, 4, 40, 0
1, 5420, Note_on_c, 9, 63, 0
1, 5430, Note_on_c, 9, 63, 100
1, 5430, Note_on_c, 4, 52, 100
1, 5440, Note_on_c, 9, 54, 0
1, 5450, Note_on_c, 9, 63, 0
1, 5452, Note_on_c, 0, 71, 0
1, 5456, Note_on_c, 4, 52, 0
1, 5460, Note_on_c, 4, 40, 100
1, 5460, Note_on_c, 9, 54, 55
1, 5460, Note_on_c, 0, 71, 100
1, 5460, Note_on_c, 9, 63, 100
1, 5486, Note_on_c, 0, 71, 0
1, 5490, Note_on_c, 0, 68, 100
1, 5500, Note_on_c, 9, 54, 0
1, 5500, Note_on_c, 9, 63, 0
1, 5512, Note_on_c, 4, 40, 0
1, 5516, Note_on_c, 0, 68, 0
1, 5520, Note_on_c, 9, 54, 55
1, 5520, Note_on_c, 0, 74, 100
1, 5520, Note_on_c, 4, 40, 100
1, 5520, Note_on_c, 9, 63, 100
1, 5560, Note_on_c, 9, 63, 0
1, 5560, Note_on_c, 9, 54, 0
1, 5580, Note_on_c, 9, 54, 55
1, 5580, Note_on_c, 9, 63, 100
1, 5580, Note_on_c, 9, 35, 100
1, 5598, Note_on_c, 0, 74, 0
1, 5598, Note_on_c, 4, 40, 0
1, 5610, Note_on_c, 0, 71, 100
1, 5610, Note_on_c, 4, 40, 100
1, 5620, Note_on_c, 9, 63, 0
1, 5620, Note_on_c, 9, 35, 0
1, 5620, Note_on_c, 9, 54, 0
1, 5640, Note_on_c, 9, 63, 100
1, 5640, Note_on_c, 9, 54, 55
1, 5662, Note_on_c, 4, 40, 0
1, 5670, Note_on_c, 4, 52, 100
1, 5680, Note_on_c, 9, 63, 0
1, 5680, Note_on_c, 9, 54, 0
1, 5688, Note_on_c, 0, 71, 0
1, 5696, Note_on_c, 4, 52, 0
1, 5700, Note_on_c, 9, 35, 100
1, 5700, Note_on_c, 4, 40, 100
1, 5700, Note_on_c, 9, 54, 55
1, 5700, Note_on_c, 0, 71, 100
1, 5700, Note_on_c, 9, 64, 100
1, 5720, Note_on_c, 9, 64, 0
1, 5730, Note_on_c, 9, 64, 100
1, 5740, Note_on_c, 9, 54, 0
1, 5740, Note_on_c, 9, 35, 0
1, 5750, Note_on_c, 9, 64, 0
1, 5752, Note_on_c, 4, 40, 0
1, 5752, Note_on_c, 0, 71, 0
1, 5758, Note_on_c, 2, 68, 0
1, 5758, Note_on_c, 2, 64, 0
1, 5758, Note_on_c, 2, 59, 0
1, 5760, Note_on_c, 9, 63, 100
1, 5760, Note_on_c, 2, 71, 100
1, 5760, Note_on_c, 9, 35, 100
1, 5760, Note_on_c, 4, 40, 100
1, 5760, Note_on_c, 9, 54, 55
1, 5760, Note_on_c, 2, 64, 100
1, 5760, Note_on_c, 2, 68, 100
1, 5800, Note_on_c, 9, 54, 0
1, 5800, Note_on_c, 9, 35, 0
1, 5800, Note_on_c, 9, 63, 0
1, 5812, Note_on_c, 4, 40, 0
1, 5820, Note_on_c, 0, 69, 100
1, 5820, Note_on_c, 9, 64, 100
1, 5820, Note_on_c, 9, 54, 55
1, 5820, Note_on_c, 4, 40, 100
1, 5840, Note_on_c, 9, 64, 0
1, 5846, Note_on_c, 0, 69, 0
1, 5850, Note_on_c, 0, 69, 100
1, 5850, Note_on_c, 9, 64, 100
1, 5860, Note_on_c, 9, 54, 0
1, 5870, Note_on_c, 9, 64, 0
1, 5876, Note_on_c, 0, 69, 0
1, 5880, Note_on_c, 9, 63, 100
1, 5880, Note_on_c, 0, 71, 100
1, 5880, Note_on_c, 9, 54, 55
1, 5898, Note_on_c, 4, 40, 0
1, 5900, Note_on_c, 9, 63, 0
1, 5910, Note_on_c, 9, 63, 100
1, 5910, Note_on_c, 4, 52, 100
1, 5920, Note_on_c, 9, 54, 0
1, 5930, Note_on_c, 9, 63, 0
1, 5936, Note_on_c, 4, 52, 0
1, 5940, Note_on_c, 4, 40, 100
1, 5940, Note_on_c, 9, 63, 100
1, 5940, Note_on_c, 9, 54, 55
1, 5958, Note_on_c, 0, 71, 0
1, 5970, Note_on_c, 0, 62, 100
1, 5980, Note_on_c, 9, 63, 0
1, 5980, Note_on_c, 9, 54, 0
1, 5992, Note_on_c, 4, 40, 0
1, 5996, Note_on_c, 0, 62, 0
1, 6000, Note_on_c, 4, 40, 100
1, 6000, Note_on_c, 9, 63, 100
1, 6000, Note_on_c, 9, 54, 55
1, 6000, Note_on_c, 0, 74, 100
1, 6026, Note_on_c, 0, 74, 0
1, 6030, Note_on_c, 0, 71, 100
1, 6040, Note_on_c, 9, 63, 0
1, 6040, Note_on_c, 9, 54, 0
1, 6056, Note_on_c, 0, 71, 0
1, 6060, Note_on_c, 9, 35, 100
1, 6060, Note_on_c, 0, 71, 100
1, 6060, Note_on_c, 9, 63, 100
1, 6060, Note_on_c, 9, 54, 55
1, 6100, Note_on_c, 9, 54, 0
1, 6100, Note_on_c, 9, 63, 0
1, 6100, Note_on_c, 9, 35, 0
1, 6104, Note_on_c, 4, 40, 0
1, 6112, Note_on_c, 0, 71, 0
1, 6118, Note_on_c, 2, 64, 0
1, 6118, Note_on_c, 2, 68, 0
1, 6118, Note_on_c, 2, 71, 0
1, 6120, Note_on_c, 0, 71, 100
1, 6120, Note_on_c, 2, 62, 100
1, 6120, Note_on_c, 2, 71, 100
1, 6120, Note_on_c, 2, 66, 100
1, 6120, Note_on_c, 4, 45, 100
1, 6120, Note_on_c, 9, 54, 55
1, 6120, Note_on_c, 9, 63, 100
1, 6160, Note_on_c, 9, 63, 0
1, 6160, Note_on_c, 9, 54, 0
1, 6180, Note_on_c, 9, 54, 55
1, 6180, Note_on_c, 9, 64, 100
1, 6180, Note_on_c, 9, 35, 100
1, 6198, Note_on_c, 4, 45, 0
1, 6200, Note_on_c, 9, 64, 0
1, 6210, Note_on_c, 4, 47, 100
1, 6210, Note_on_c, 9, 64, 100
1, 6220, Note_on_c, 9, 35, 0
1, 6220, Note_on_c, 9, 54, 0
1, 6224, Note_on_c, 0, 71, 0
1, 6230, Note_on_c, 9, 64, 0
1, 6236, Note_on_c, 4, 47, 0
1, 6238, Note_on_c, 2, 62, 0
1, 6238, Note_on_c, 2, 66, 0
1, 6238, Note_on_c, 2, 71, 0
1, 6240, Note_on_c, 9, 35, 100
1, 6240, Note_on_c, 4, 35, 100
1, 6240, Note_on_c, 9, 54, 55
1, 6240, Note_on_c, 9, 63, 100
1, 6280, Note_on_c, 9, 63, 0
1, 6280, Note_on_c, 9, 54, 0
1, 6280, Note_on_c, 9, 35, 0
1, 6292, Note_on_c, 4, 35, 0
1, 6300, Note_on_c, 1, 62, 100
1, 6300, Note_on_c, 1, 57, 100
1, 6300, Note_on_c, 4, 47, 100
1, 6300, Note_on_c, 9, 64, 100
1, 6300, Note_on_c, 9, 54, 55
1, 6300, Note_on_c, 1, 66, 100
1, 6320, Note_on_c, 9, 64, 0
1, 6330, Note_on_c, 9, 64, 100
1, 6340, Note_on_c, 9, 54, 0
1, 6350, Note_on_c, 9, 64, 0
1, 6360, Note_on_c, 9, 63, 100
1, 6360, Note_on_c, 9, 54, 55
1, 6378, Note_on_c, 4, 47, 0
1, 6380, Note_on_c, 9, 63, 0
1, 6390, Note_on_c, 9, 63, 100
1, 6390, Note_on_c, 4, 47, 100
1, 6400, Note_on_c, 9, 54, 0
1, 6404, Note_on_c, 1, 66, 0
1, 6404, Note_on_c, 1, 62, 0
1, 6404, Note_on_c, 1, 57, 0
1, 6410, Note_on_c, 9, 63, 0
1, 6416, Note_on_c, 4, 47, 0
1, 6420, Note_on_c, 9, 63, 100
1, 6420, Note_on_c, 9, 54, 55
1, 6420, Note_on_c, 4, 35, 100
1, 6460, Note_on_c, 9, 54, 0
1, 6460, Note_on_c, 9, 63, 0
1, 6472, Note_on_c, 4, 35, 0
1, 6480, Note_on_c, 4, 47, 100
1, 6480, Note_on_c, 9, 54, 55
1, 6480, Note_on_c, 1, 59, 100
1, 6480, Note_on_c, 9, 63, 100
1, 6480, Note_on_c, 1, 54, 100
1, 6480, Note_on_c, 1, 64, 100
1, 6520, Note_on_c, 9, 63, 0
1, 6520, Note_on_c, 9, 54, 0
1, 6540, Note_on_c, 9, 54, 55
1, 6540, Note_on_c, 9, 63, 100
1, 6540, Note_on_c, 9, 35, 100
1, 6558, Note_on_c, 4, 47, 0
1, 6570, Note_on_c, 4, 47, 100
1, 6580, Note_on_c, 9, 63, 0
1, 6580, Note_on_c, 9, 54, 0
1, 6580, Note_on_c, 9, 35, 0
1, 6584, Note_on_c, 1, 54, 0
1, 6584, Note_on_c, 1, 59, 0
1, 6584, Note_on_c, 1, 64, 0
1, 6596, Note_on_c, 4, 47, 0
1, 6600, Note_on_c, 1, 54, 100
1, 6600, Note_on_c, 9, 54, 55
1, 6600, Note_on_c, 9, 63, 100
1, 6600, Note_on_c, 1, 59, 100
1, 6600, Note_on_c, 1, 64, 100
1, 6600, Note_on_c, 4, 35, 100
1, 6640, Note_on_c, 9, 63, 0
1, 6640, Note_on_c, 9, 54, 0
1, 6652, Note_on_c, 1, 59, 0
1, 6652, Note_on_c, 1, 54, 0
1, 6652, Note_on_c, 4, 35, 0
1, 6652, Note_on_c, 1, 64, 0
1, 6660, Note_on_c, 4, 47, 100
1, 6660, Note_on_c, 9, 54, 55
1, 6660, Note_on_c, 9, 64, 100
1, 6660, Note_on_c, 9, 35, 100
1, 6660, Note_on_c, 1, 50, 100
1, 6660, Note_on_c, 1, 64, 100
1, 6660, Note_on_c, 1, 57, 100
1, 6680, Note_on_c, 9, 64, 0
1, 6690, Note_on_c, 9, 64, 100
1, 6700, Note_on_c, 9, 35, 0
1, 6700, Note_on_c, 9, 54, 0
1, 6710, Note_on_c, 9, 64, 0
1, 6720, Note_on_c, 9, 54, 55
1, 6720, Note_on_c, 9, 35, 100
1, 6720, Note_on_c, 9, 63, 100
1, 6738, Note_on_c, 4, 47, 0
1, 6750, Note_on_c, 4, 47, 100
1, 6760, Note_on_c, 9, 35, 0
1, 6760, Note_on_c, 9, 54, 0
1, 6760, Note_on_c, 9, 63, 0
1, 6764, Note_on_c, 1, 50, 0
1, 6764, Note_on_c, 1, 57, 0
1, 6764, Note_on_c, 1, 64, 0
1, 6776, Note_on_c, 4, 47, 0
1, 6780, Note_on_c, 9, 64, 100
1, 6780, Note_on_c, 1, 52, 100
1, 6780, Note_on_c, 9, 54, 55
1, 6780, Note_on_c, 1, 64, 100
1, 6780, Note_on_c, 4, 35, 100
1, 6780, Note_on_c, 1, 59, 100
1, 6800, Note_on_c, 9, 64, 0
1, 6810, Note_on_c, 9, 64, 100
1, 6820, Note_on_c, 9, 54, 0
1, 6830, Note_on_c, 9, 64, 0
1, 6832, Note_on_c, 1, 64, 0
1, 6832, Note_on_c, 1, 52, 0
1, 6832, Note_on_c, 1, 59, 0
1, 6832, Note_on_c, 4, 35, 0
1, 6840, Note_on_c, 1, 62, 100
1, 6840, Note_on_c, 9, 54, 55
1, 6840, Note_on_c, 9, 63, 100
1, 6840, Note_on_c, 1, 57, 100
1, 6840, Note_on_c, 1, 52, 100
1, 6840, Note_on_c, 4, 47, 100
1, 6860, Note_on_c, 9, 63, 0
1, 6870, Note_on_c, 9, 63, 100
1, 6880, Note_on_c, 9, 54, 0
1, 6890, Note_on_c, 9, 63, 0
1, 6900, Note_on_c, 9, 63, 100
1, 6900, Note_on_c, 9, 54, 55
1, 6918, Note_on_c, 4, 47, 0
1, 6930, Note_on_c, 4, 45, 100
1, 6940, Note_on_c, 9, 63, 0
1, 6940, Note_on_c, 9, 54, 0
1, 6944, Note_on_c, 1, 52, 0
1, 6944, Note_on_c, 1, 62, 0
1, 6944, Note_on_c, 1, 57, 0
1, 6956, Note_on_c, 4, 45, 0
1, 6960, Note_on_c, 1, 62, 100
1, 6960, Note_on_c, 4, 47, 100
1, 6960, Note_on_c, 9, 63, 100
1, 6960, Note_on_c, 9, 54, 55
1, 6986, Note_on_c, 4, 47, 0
1, 6986, Note_on_c, 1, 62, 0
1, 6990, Note_on_c, 1, 64, 100
1, 6990, Note_on_c, 4, 49, 100
1, 7000, Note_on_c, 9, 63, 0
1, 7000, Note_on_c, 9, 54, 0
1, 7016, Note_on_c, 1, 64, 0
1, 7016, Note_on_c, 4, 49, 0
1, 7020, Note_on_c, 4, 50, 100
1, 7020, Note_on_c, 1, 66, 100
1, 7020, Note_on_c, 9, 63, 100
1, 7020, Note_on_c, 9, 35, 100
1, 7020, Note_on_c, 9, 54, 55
1, 7046, Note_on_c, 1, 66, 0
1, 7046, Note_on_c, 4, 50, 0
1, 7050, Note_on_c, 4, 47, 100
1, 7050, Note_on_c, 1, 62, 100
1, 7060, Note_on_c, 9, 35, 0
1, 7060, Note_on_c, 9, 54, 0
1, 7060, Note_on_c, 9, 63, 0
1, 7076, Note_on_c, 4, 47, 0
1, 7076, Note_on_c, 1, 62, 0
1, 7080, Note_on_c, 1, 64, 100
1, 7080, Note_on_c, 9, 63, 100
1, 7080, Note_on_c, 9, 54, 55
1, 7080, Note_on_c, 4, 49, 100
1, 7106, Note_on_c, 4, 49, 0
1, 7106, Note_on_c, 1, 64, 0
1, 7110, Note_on_c, 4, 45, 100
1, 7110, Note_on_c, 1, 61, 100
1, 7120, Note_on_c, 9, 54, 0
1, 7120, Note_on_c, 9, 63, 0
1, 7136, Note_on_c, 4, 45, 0
1, 7136, Note_on_c, 1, 61, 0
1, 7140, Note_on_c, 4, 42, 100
1, 7140, Note_on_c, 9, 64, 100
1, 7140, Note_on_c, 9, 35, 100
1, 7140, Note_on_c, 1, 57, 100
1, 7140, Note_on_c, 9, 54, 55
1, 7160, Note_on_c, 9, 64, 0
1, 7166, Note_on_c, 1, 57, 0
1, 7166, Note_on_c, 4, 42, 0
1, 7170, Note_on_c, 4, 38, 100
1, 7170, Note_on_c, 1, 54, 100
1, 7170, Note_on_c, 9, 64, 100
1, 7180, Note_on_c, 9, 35, 0
1, 7180, Note_on_c, 9, 54, 0
1, 7190, Note_on_c, 9, 64, 0
1, 7196, Note_on_c, 4, 38, 0
1, 7196, Note_on_c, 1, 54, 0
1, 7200, Note_on_c, 9, 63, 100
1, 7200, Note_on_c, 2, 68, 100
1, 7200, Note_on_c, 2, 59, 100
1, 7200, Note_on_c, 4, 40, 100
1, 7200, Note_on_c, 2, 64, 100
1, 7200, Note_on_c, 9, 35, 100
1, 7200, Note_on_c, 9, 54, 55
1, 7240, Note_on_c, 9, 54, 0
1, 7240, Note_on_c, 9, 63, 0
1, 7240, Note_on_c, 9, 35, 0
1, 7252, Note_on_c, 4, 40, 0
1, 7260, Note_on_c, 4, 40, 100
1, 7260, Note_on_c, 9, 54, 55
1, 7260, Note_on_c, 0, 69, 100
1, 7260, Note_on_c, 9, 64, 100
1, 7280, Note_on_c, 9, 64, 0
1, 7286, Note_on_c, 0, 69, 0
1, 7290, Note_on_c, 9, 64, 100
1, 7290, Note_on_c, 0, 69, 100
1, 7300, Note_on_c, 9, 54, 0
1, 7310, Note_on_c, 9, 64, 0
1, 7316, Note_on_c, 0, 69, 0
1, 7320, Note_on_c, 9, 63, 100
1, 7320, Note_on_c, 0, 71, 100
1, 7320, Note_on_c, 9, 54, 55
1, 7338, Note_on_c, 4, 40, 0
1, 7340, Note_on_c, 9, 63, 0
1, 7346, Note_on_c, 0, 71, 0
1, 7350, Note_on_c, 0, 71, 100
1, 7350, Note_on_c, 4, 52, 100
1, 7350, Note_on_c, 9, 63, 100
1, 7360, Note_on_c, 9, 54, 0
1, 7370, Note_on_c, 9, 63, 0
1, 7376, Note_on_c, 0, 71, 0
1, 7376, Note_on_c, 4, 52, 0
1, 7380, Note_on_c, 9, 54, 55
1, 7380, Note_on_c, 4, 40, 100
1, 7380, Note_on_c, 9, 63, 100
1, 7380, Note_on_c, 0, 71, 100
1, 7420, Note_on_c, 9, 63, 0
1, 7420, Note_on_c, 9, 54, 0
1, 7432, Note_on_c, 4, 40, 0
1, 7432, Note_on_c, 0, 71, 0
1, 7440, Note_on_c, 0, 74, 100
1, 7440, Note_on_c, 9, 54, 55
1, 7440, Note_on_c, 9, 63, 100
1, 7440, Note_on_c, 4, 40, 100
1, 7480, Note_on_c, 9, 63, 0
1, 7480, Note_on_c, 9, 54, 0
1, 7492, Note_on_c, 0, 74, 0
1, 7500, Note_on_c, 0, 74, 100
1, 7500, Note_on_c, 9, 35, 100
1, 7500, Note_on_c, 9, 63, 100
1, 7500, Note_on_c, 9, 54, 55
1, 7518, Note_on_c, 4, 40, 0
1, 7526, Note_on_c, 0, 74, 0
1, 7530, Note_on_c, 4, 40, 100
1, 7530, Note_on_c, 0, 71, 100
1, 7540, Note_on_c, 9, 35, 0
1, 7540, Note_on_c, 9, 54, 0
1, 7540, Note_on_c, 9, 63, 0
1, 7560, Note_on_c, 9, 63, 100
1, 7560, Note_on_c, 9, 54, 55
1, 7582, Note_on_c, 4, 40, 0
1, 7590, Note_on_c, 4, 52, 100
1, 7600, Note_on_c, 9, 63, 0
1, 7600, Note_on_c, 9, 54, 0
1, 7608, Note_on_c, 0, 71, 0
1, 7616, Note_on_c, 4, 52, 0
1, 7620, Note_on_c, 4, 40, 100
1, 7620, Note_on_c, 9, 64, 100
1, 7620, Note_on_c, 9, 54, 55
1, 7620, Note_on_c, 9, 35, 100
1, 7620, Note_on_c, 0, 71, 100
1, 7640, Note_on_c, 9, 64, 0
1, 7650, Note_on_c, 9, 64, 100
1, 7660, Note_on_c, 9, 35, 0
1, 7660, Note_on_c, 9, 54, 0
1, 7670, Note_on_c, 9, 64, 0
1, 7672, Note_on_c, 0, 71, 0
1, 7672, Note_on_c, 4, 40, 0
1, 7678, Note_on_c, 2, 59, 0
1, 7678, Note_on_c, 2, 68, 0
1, 7678, Note_on_c, 2, 64, 0
1, 7680, Note_on_c, 2, 64, 100
1, 7680, Note_on_c, 9, 63, 100
1, 7680, Note_on_c, 2, 71, 100
1, 7680, Note_on_c, 9, 35, 100
1, 7680, Note_on_c, 4, 40, 100
1, 7680, Note_on_c, 2, 68, 100
1, 7680, Note_on_c, 9, 54, 55
1, 7720, Note_on_c, 9, 54, 0
1, 7720, Note_on_c, 9, 63, 0
1, 7720, Note_on_c, 9, 35, 0
1, 7732, Note_on_c, 4, 40, 0
1, 7740, Note_on_c, 4, 40, 100
1, 7740, Note_on_c, 9, 54, 55
1, 7740, Note_on_c, 9, 64, 100
1, 7740, Note_on_c, 0, 69, 100
1, 7760, Note_on_c, 9, 64, 0
1, 7766, Note_on_c, 0, 69, 0
1, 7770, Note_on_c, 0, 69, 100
1, 7770, Note_on_c, 9, 64, 100
1, 7780, Note_on_c, 9, 54, 0
1, 7790, Note_on_c, 9, 64, 0
1, 7796, Note_on_c, 0, 69, 0
1, 7800, Note_on_c, 9, 54, 55
1, 7800, Note_on_c, 0, 71, 100
1, 7800, Note_on_c, 9, 63, 100
1, 7818, Note_on_c, 4, 40, 0
1, 7820, Note_on_c, 9, 63, 0
1, 7830, Note_on_c, 4, 52, 100
1, 7830, Note_on_c, 9, 63, 100
1, 7840, Note_on_c, 9, 54, 0
1, 7850, Note_on_c, 9, 63, 0
1, 7852, Note_on_c, 0, 71, 0
1, 7856, Note_on_c, 4, 52, 0
1, 7860, Note_on_c, 0, 69, 100
1, 7860, Note_on_c, 4, 40, 100
1, 7860, Note_on_c, 9, 54, 55
1, 7860, Note_on_c, 9, 63, 100
1, 7900, Note_on_c, 9, 63, 0
1, 7900, Note_on_c, 9, 54, 0
1, 7912, Note_on_c, 0, 69, 0
1, 7912, Note_on_c, 4, 40, 0
1, 7920, Note_on_c, 0, 74, 100
1, 7920, Note_on_c, 9, 54, 55
1, 7920, Note_on_c, 9, 63, 100
1, 7920, Note_on_c, 4, 40, 100
1, 7960, Note_on_c, 9, 63, 0
1, 7960, Note_on_c, 9, 54, 0
1, 7972, Note_on_c, 0, 74, 0
1, 7980, Note_on_c, 0, 71, 100
1, 7980, Note_on_c, 9, 54, 55
1, 7980, Note_on_c, 9, 35, 100
1, 7980, Note_on_c, 9, 63, 100
1, 8020, Note_on_c, 9, 63, 0
1, 8020, Note_on_c, 9, 35, 0
1, 8020, Note_on_c, 9, 54, 0
1, 8024, Note_on_c, 4, 40, 0
1, 8032, Note_on_c, 0, 71, 0
1, 8038, Note_on_c, 2, 64, 0
1, 8038, Note_on_c, 2, 71, 0
1, 8038, Note_on_c, 2, 68, 0
1, 8040, Note_on_c, 4, 45, 100
1, 8040, Note_on_c, 9, 63, 100
1, 8040, Note_on_c, 2, 71, 100
1, 8040, Note_on_c, 0, 71, 100
1, 8040, Note_on_c, 2, 62, 100
1, 8040, Note_on_c, 9, 54, 55
1, 8040, Note_on_c, 2, 66, 100
1, 8080, Note_on_c, 9, 54, 0
1, 8080, Note_on_c, 9, 63, 0
1, 8100, Note_on_c, 9, 35, 100
1, 8100, Note_on_c, 9, 54, 55
1, 8100, Note_on_c, 9, 64, 100
1, 8118, Note_on_c, 4, 45, 0
1, 8120, Note_on_c, 9, 64, 0
1, 8130, Note_on_c, 4, 47, 100
1, 8130, Note_on_c, 9, 64, 100
1, 8140, Note_on_c, 9, 35, 0
1, 8140, Note_on_c, 9, 54, 0
1, 8144, Note_on_c, 0, 71, 0
1, 8150, Note_on_c, 9, 64, 0
1, 8156, Note_on_c, 4, 47, 0
1, 8158, Note_on_c, 2, 71, 0
1, 8158, Note_on_c, 2, 62, 0
1, 8158, Note_on_c, 2, 66, 0
1, 8160, Note_on_c, 9, 63, 100
1, 8160, Note_on_c, 4, 35, 100
1, 8160, Note_on_c, 9, 35, 100
1, 8160, Note_on_c, 9, 54, 55
1, 8200, Note_on_c, 9, 54, 0
1, 8200, Note_on_c, 9, 35, 0
1, 8200, Note_on_c, 9, 63, 0
1, 8212, Note_on_c, 4, 35, 0
1, 8220, Note_on_c, 9, 54, 55
1, 8220, Note_on_c, 1, 62, 100
1, 8220, Note_on_c, 1, 66, 100
1, 8220, Note_on_c, 9, 64, 100
1, 8220, Note_on_c, 4, 47, 100
1, 8220, Note_on_c, 1, 57, 100
1, 8240, Note_on_c, 9, 64, 0
1, 8250, Note_on_c, 9, 64, 100
1, 8260, Note_on_c, 9, 54, 0
1, 8270, Note_on_c, 9, 64, 0
1, 8280, Note_on_c, 9, 63, 100
1, 8280, Note_on_c, 9, 54, 55
1, 8298, Note_on_c, 4, 47, 0
1, 8300, Note_on_c, 9, 63, 0
1, 8310, Note_on_c, 4, 47, 100
1, 8310, Note_on_c, 9, 63, 100
1, 8320, Note_on_c, 9, 54, 0
1, 8324, Note_on_c, 1, 57, 0
1, 8324, Note_on_c, 1, 62, 0
1, 8324, Note_on_c, 1, 66, 0
1, 8330, Note_on_c, 9, 63, 0
1, 8336, Note_on_c, 4, 47, 0
1, 8340, Note_on_c, 9, 63, 100
1, 8340, Note_on_c, 9, 54, 55
1, 8340, Note_on_c, 4, 35, 100
1, 8380, Note_on_c, 9, 54, 0
1, 8380, Note_on_c, 9, 63, 0
1, 8392, Note_on_c, 4, 35, 0
1, 8400, Note_on_c, 1, 64, 100
1, 8400, Note_on_c, 1, 54, 100
1, 8400, Note_on_c, 9, 54, 55
1, 8400, Note_on_c, 1, 59, 100
1, 8400, Note_on_c, 4, 47, 100
1, 8400, Note_on_c, 9, 63, 100
1, 8440, Note_on_c, 9, 63, 0
1, 8440, Note_on_c, 9, 54, 0
1, 8460, Note_on_c, 9, 54, 55
1, 8460, Note_on_c, 9, 63, 100
1, 8460, Note_on_c, 9, 35, 100
1, 8478, Note_on_c, 4, 47, 0
1, 8490, Note_on_c, 4, 47, 100
1, 8500, Note_on_c, 9, 63, 0
1, 8500, Note_on_c, 9, 54, 0
1, 8500, Note_on_c, 9, 35, 0
1, 8504, Note_on_c, 1, 59, 0
1, 8504, Note_on_c, 1, 64, 0
1, 8504, Note_on_c, 1, 54, 0
1, 8516, Note_on_c, 4, 47, 0
1, 8520, Note_on_c, 1, 64, 100
1, 8520, Note_on_c, 9, 63, 100
1, 8520, Note_on_c, 4, 35, 100
1, 8520, Note_on_c, 1, 50, 100
1, 8520, Note_on_c, 9, 54, 55
1, 8520, Note_on_c, 1, 57, 100
1, 8546, Note_on_c, 1, 57, 0
1, 8546, Note_on_c, 1, 64, 0
1, 8546, Note_on_c, 1, 50, 0
1, 8550, Note_on_c, 1, 59, 100
1, 8550, Note_on_c, 1, 54, 100
1, 8560, Note_on_c, 9, 63, 0
1, 8560, Note_on_c, 9, 54, 0
1, 8572, Note_on_c, 4, 35, 0
1, 8580, Note_on_c, 9, 64, 100
1, 8580, Note_on_c, 9, 54, 55
1, 8580, Note_on_c, 4, 47, 100
1, 8580, Note_on_c, 9, 35, 100
1, 8600, Note_on_c, 9, 64, 0
1, 8610, Note_on_c, 9, 64, 100
1, 8620, Note_on_c, 9, 54, 0
1, 8620, Note_on_c, 9, 35, 0
1, 8628, Note_on_c, 1, 54, 0
1, 8628, Note_on_c, 1, 59, 0
1, 8630, Note_on_c, 9, 64, 0
1, 8640, Note_on_c, 9, 35, 100
1, 8640, Note_on_c, 1, 64, 100
1, 8640, Note_on_c, 9, 63, 100
1, 8640, Note_on_c, 1, 59, 100
1, 8640, Note_on_c, 9, 54, 55
1, 8640, Note_on_c, 1, 52, 100
1, 8658, Note_on_c, 4, 47, 0
1, 8670, Note_on_c, 4, 47, 100
1, 8680, Note_on_c, 9, 63, 0
1, 8680, Note_on_c, 9, 35, 0
1, 8680, Note_on_c, 9, 54, 0
1, 8692, Note_on_c, 1, 59, 0
1, 8692, Note_on_c, 1, 52, 0
1, 8692, Note_on_c, 1, 64, 0
1, 8696, Note_on_c, 4, 47, 0
1, 8700, Note_on_c, 9, 64, 100
1, 8700, Note_on_c, 4, 35, 100
1, 8700, Note_on_c, 9, 54, 55
1, 8700, Note_on_c, 1, 57, 100
1, 8700, Note_on_c, 1, 50, 100
1, 8720, Note_on_c, 9, 64, 0
1, 8726, Note_on_c, 1, 57, 0
1, 8726, Note_on_c, 1, 50, 0
1, 8730, Note_on_c, 9, 64, 100
1, 8730, Note_on_c, 1, 59, 100
1, 8730, Note_on_c, 1, 52, 100
1, 8730, Note_on_c, 1, 64, 100
1, 8740, Note_on_c, 9, 54, 0
1, 8750, Note_on_c, 9, 64, 0
1, 8752, Note_on_c, 4, 35, 0
1, 8760, Note_on_c, 4, 47, 100
1, 8760, Note_on_c, 9, 63, 100
1, 8760, Note_on_c, 9, 54, 55
1, 8780, Note_on_c, 9, 63, 0
1, 8790, Note_on_c, 9, 63, 100
1, 8800, Note_on_c, 9, 54, 0
1, 8808, Note_on_c, 1, 59, 0
1, 8808, Note_on_c, 1, 52, 0
1, 8808, Note_on_c, 1, 64, 0
1, 8810, Note_on_c, 9, 63, 0
1, 8820, Note_on_c, 9, 54, 55
1, 8820, Note_on_c, 9, 63, 100
1, 8820, Note_on_c, 1, 59, 100
1, 8820, Note_on_c, 1, 52, 100
1, 8820, Note_on_c, 1, 64, 100
1, 8838, Note_on_c, 4, 47, 0
1, 8850, Note_on_c, 4, 45, 100
1, 8860, Note_on_c, 9, 54, 0
1, 8860, Note_on_c, 9, 63, 0
1, 8872, Note_on_c, 1, 52, 0
1, 8872, Note_on_c, 1, 59, 0
1, 8872, Note_on_c, 1, 64, 0
1, 8876, Note_on_c, 4, 45, 0
1, 8880, Note_on_c, 1, 54, 100
1, 8880, Note_on_c, 9, 54, 55
1, 8880, Note_on_c, 9, 63, 100
1, 8880, Note_on_c, 1, 61, 100
1, 8880, Note_on_c, 4, 47, 100
1, 8880, Note_on_c, 9, 35, 100
1, 8906, Note_on_c, 4, 47, 0
1, 8906, Note_on_c, 1, 61, 0
1, 8906, Note_on_c, 1, 54, 0
1, 8910, Note_on_c, 1, 52, 100
1, 8910, Note_on_c, 1, 64, 100
1, 8910, Note_on_c, 4, 49, 100
1, 8910, Note_on_c, 1, 59, 100
1, 8920, Note_on_c, 9, 54, 0
1, 8920, Note_on_c, 9, 63, 0
1, 8920, Note_on_c, 9, 35, 0
1, 8936, Note_on_c, 4, 49, 0
1, 8940, Note_on_c, 4, 50, 100
1, 8940, Note_on_c, 9, 63, 100
1, 8940, Note_on_c, 9, 54, 55
1, 8966, Note_on_c, 4, 50, 0
1, 8970, Note_on_c, 9, 38, 115
1, 8970, Note_on_c, 4, 47, 100
1, 8980, Note_on_c, 9, 63, 0
1, 8980, Note_on_c, 9, 54, 0
1, 8988, Note_on_c, 1, 64, 0
1, 8988, Note_on_c, 1, 52, 0
1, 8988, Note_on_c, 1, 59, 0
1, 8990, Note_on_c, 9, 38, 0
1, 8996, Note_on_c, 4, 47, 0
1, 9000, Note_on_c, 9, 54, 55
1, 9000, Note_on_c, 9, 63, 100
1, 9000, Note_on_c, 1, 64, 100
1, 9000, Note_on_c, 1, 52, 100
1, 9000, Note_on_c, 1, 59, 100
1, 9000, Note_on_c, 4, 49, 100
1, 9000, Note_on_c, 9, 38, 115
1, 9026, Note_on_c, 4, 49, 0
1, 9030, Note_on_c, 4, 45, 100
1, 9030, Note_on_c, 9, 35, 100
1, 9040, Note_on_c, 9, 63, 0
1, 9040, Note_on_c, 9, 54, 0
1, 9040, Note_on_c, 9, 38, 0
1, 9050, Note_on_c, 9, 35, 0
1, 9052, Note_on_c, 1, 59, 0
1, 9052, Note_on_c, 1, 52, 0
1, 9052, Note_on_c, 1, 64, 0
1, 9056, Note_on_c, 4, 45, 0
1, 9060, Note_on_c, 1, 64, 100
1, 9060, Note_on_c, 0, 71, 100
1, 9060, Note_on_c, 9, 54, 55
1, 9060, Note_on_c, 1, 52, 100
1, 9060, Note_on_c, 9, 38, 100
1, 9060, Note_on_c, 4, 42, 100
1, 9060, Note_on_c, 1, 59, 100
1, 9060, Note_on_c, 9, 64, 100
1, 9060, Note_on_c, 9, 35, 100
1, 9080, Note_on_c, 9, 64, 0
1, 9080, Note_on_c, 9, 38, 0
1, 9086, Note_on_c, 0, 71, 0
1, 9086, Note_on_c, 4, 42, 0
1, 9090, Note_on_c, 9, 38, 100
1, 9090, Note_on_c, 9, 64, 100
1, 9090, Note_on_c, 0, 76, 100
1, 9090, Note_on_c, 4, 38, 100
1, 9100, Note_on_c, 9, 35, 0
1, 9100, Note_on_c, 9, 54, 0
1, 9110, Note_on_c, 9, 38, 0
1, 9110, Note_on_c, 9, 64, 0
1, 9112, Note_on_c, 1, 59, 0
1, 9112, Note_on_c, 1, 52, 0
1, 9112, Note_on_c, 1, 64, 0
1, 9116, Note_on_c, 0, 76, 0
1, 9116, Note_on_c, 4, 38, 0
1, 9120, Note_on_c, 9, 42, 60
1, 9120, Note_on_c, 2, 64, 100
1, 9120, Note_on_c, 9, 35, 100
1, 9120, Note_on_c, 1, 73, 100
1, 9120, Note_on_c, 1, 69, 100
1, 9120, Note_on_c, 1, 64, 100
1, 9120, Note_on_c, 9, 54, 55
1, 9120, Note_on_c, 0, 76, 100
1, 9120, Note_on_c, 2, 73, 100
1, 9120, Note_on_c, 2, 69, 100
1, 9120, Note_on_c, 4, 37, 100
1, 9120, Note_on_c, 9, 49, 100
1, 9140, Note_on_c, 9, 42, 0
1, 9150, Note_on_c, 9, 42, 60
1, 9160, Note_on_c, 9, 54, 0
1, 9160, Note_on_c, 9, 35, 0
1, 9170, Note_on_c, 9, 42, 0
1, 9180, Note_on_c, 9, 42, 60
1, 9180, Note_on_c, 9, 54, 55
1, 9198, Note_on_c, 0, 76, 0
1, 9200, Note_on_c, 9, 42, 0
1, 9200, Note_on_c, 9, 49, 0
1, 9210, Note_on_c, 9, 42, 60
1, 9210, Note_on_c, 0, 74, 100
1, 9220, Note_on_c, 9, 54, 0
1, 9224, Note_on_c, 1, 69, 0
1, 9224, Note_on_c, 4, 37, 0
1, 9224, Note_on_c, 1, 73, 0
1, 9224, Note_on_c, 1, 64, 0
1, 9230, Note_on_c, 9, 42, 0
1, 9238, Note_on_c, 2, 73, 0
1, 9238, Note_on_c, 2, 64, 0
1, 9238, Note_on_c, 2, 69, 0
1, 9240, Note_on_c, 2, 69, 100
1, 9240, Note_on_c, 9, 38, 100
1, 9240, Note_on_c, 9, 49, 100
1, 9240, Note_on_c, 2, 66, 100
1, 9240, Note_on_c, 2, 62, 100
1, 9240, Note_on_c, 1, 66, 100
1, 9240, Note_on_c, 9, 42, 60
1, 9240, Note_on_c, 4, 38, 100
1, 9240, Note_on_c, 1, 69, 100
1, 9240, Note_on_c, 1, 62, 100
1, 9240, Note_on_c, 9, 54, 55
1, 9260, Note_on_c, 9, 42, 0
1, 9262, Note_on_c, 0, 74, 0
1, 9270, Note_on_c, 0, 73, 100
1, 9270, Note_on_c, 9, 42, 60
1, 9280, Note_on_c, 9, 54, 0
1, 9280, Note_on_c, 9, 38, 0
1, 9290, Note_on_c, 9, 42, 0
1, 9296, Note_on_c, 0, 73, 0
1, 9300, Note_on_c, 9, 54, 55
1, 9300, Note_on_c, 9, 35, 100
1, 9300, Note_on_c, 9, 42, 60
1, 9300, Note_on_c, 0, 74, 100
1, 9320, Note_on_c, 9, 42, 0
1, 9320, Note_on_c, 9, 49, 0
1, 9326, Note_on_c, 0, 74, 0
1, 9330, Note_on_c, 9, 42, 60
1, 9330, Note_on_c, 0, 73, 100
1, 9340, Note_on_c, 9, 35, 0
1, 9340, Note_on_c, 9, 54, 0
1, 9344, Note_on_c, 4, 38, 0
1, 9344, Note_on_c, 1, 69, 0
1, 9344, Note_on_c, 1, 62, 0
1, 9344, Note_on_c, 1, 66, 0
1, 9350, Note_on_c, 9, 42, 0
1, 9358, Note_on_c, 2, 66, 0
1, 9358, Note_on_c, 2, 69, 0
1, 9358, Note_on_c, 2, 62, 0
1, 9360, Note_on_c, 2, 73, 100
1, 9360, Note_on_c, 1, 73, 100
1, 9360, Note_on_c, 2, 69, 100
1, 9360, Note_on_c, 1, 69, 100
1, 9360, Note_on_c, 4, 40, 100
1, 9360, Note_on_c, 9, 42, 60
1, 9360, Note_on_c, 9, 35, 100
1, 9360, Note_on_c, 9, 54, 55
1, 9360, Note_on_c, 1, 64, 100
1, 9360, Note_on_c, 9, 49, 100
1, 9360, Note_on_c, 2, 64, 100
1, 9380, Note_on_c, 9, 42, 0
1, 9390, Note_on_c, 9, 42, 60
1, 9400, Note_on_c, 9, 54, 0
1, 9400, Note_on_c, 9, 35, 0
1, 9410, Note_on_c, 9, 42, 0
1, 9420, Note_on_c, 9, 54, 55
1, 9420, Note_on_c, 9, 42, 60
1, 9440, Note_on_c, 9, 42, 0
1, 9440, Note_on_c, 9, 49, 0
1, 9450, Note_on_c, 9, 42, 60
1, 9460, Note_on_c, 9, 54, 0
1, 9470, Note_on_c, 9, 42, 0
1, 9480, Note_on_c, 9, 38, 100
1, 9480, Note_on_c, 9, 42, 60
1, 9480, Note_on_c, 9, 54, 55
1, 9486, Note_on_c, 0, 73, 0
1, 9500, Note_on_c, 9, 42, 0
1, 9510, Note_on_c, 9, 42, 60
1, 9516, Note_on_c, 4, 40, 0
1, 9520, Note_on_c, 9, 38, 0
1, 9520, Note_on_c, 9, 54, 0
1, 9530, Note_on_c, 9, 42, 0
1, 9540, Note_on_c, 4, 45, 100
1, 9540, Note_on_c, 9, 42, 60
1, 9540, Note_on_c, 0, 73, 100
1, 9540, Note_on_c, 9, 54, 55
1, 9560, Note_on_c, 9, 42, 0
1, 9568, Note_on_c, 1, 69, 0
1, 9568, Note_on_c, 1, 73, 0
1, 9568, Note_on_c, 1, 64, 0
1, 9570, Note_on_c, 9, 42, 60
1, 9580, Note_on_c, 9, 54, 0
1, 9590, Note_on_c, 9, 42, 0
1, 9592, Note_on_c, 0, 73, 0
1, 9592, Note_on_c, 4, 45, 0
1, 9598, Note_on_c, 2, 73, 0
1, 9598, Note_on_c, 2, 69, 0
1, 9598, Note_on_c, 2, 64, 0
1, 9600, Note_on_c, 9, 42, 60
1, 9600, Note_on_c, 2, 71, 100
1, 9600, Note_on_c, 2, 66, 100
1, 9600, Note_on_c, 9, 49, 100
1, 9600, Note_on_c, 4, 47, 100
1, 9600, Note_on_c, 1, 62, 100
1, 9600, Note_on_c, 9, 35, 100
1, 9600, Note_on_c, 2, 62, 100
1, 9600, Note_on_c, 0, 74, 100
1, 9600, Note_on_c, 9, 54, 55
1, 9600, Note_on_c, 1, 71, 100
1, 9600, Note_on_c, 1, 66, 100
1, 9620, Note_on_c, 9, 42, 0
1, 9630, Note_on_c, 9, 42, 60
1, 9640, Note_on_c, 9, 54, 0
1, 9640, Note_on_c, 9, 35, 0
1, 9650, Note_on_c, 9, 42, 0
1, 9660, Note_on_c, 9, 42, 60
1, 9660, Note_on_c, 9, 54, 55
1, 9678, Note_on_c, 0, 74, 0
1, 9680, Note_on_c, 9, 42, 0
1, 9680, Note_on_c, 9, 49, 0
1, 9690, Note_on_c, 9, 42, 60
1, 9690, Note_on_c, 0, 73, 100
1, 9700, Note_on_c, 9, 54, 0
1, 9704, Note_on_c, 4, 47, 0
1, 9704, Note_on_c, 1, 71, 0
1, 9704, Note_on_c, 1, 66, 0
1, 9704, Note_on_c, 1, 62, 0
1, 9710, Note_on_c, 9, 42, 0
1, 9718, Note_on_c, 2, 62, 0
1, 9718, Note_on_c, 2, 71, 0
1, 9718, Note_on_c, 2, 66, 0
1, 9720, Note_on_c, 1, 73, 100
1, 9720, Note_on_c, 9, 42, 60
1, 9720, Note_on_c, 1, 64, 100
1, 9720, Note_on_c, 4, 45, 100
1, 9720, Note_on_c, 1, 69, 100
1, 9720, Note_on_c, 2, 64, 100
1, 9720, Note_on_c, 2, 73, 100
1, 9720, Note_on_c, 2, 69, 100
1, 9720, Note_on_c, 9, 38, 100
1, 9720, Note_on_c, 9, 54, 55
1, 9740, Note_on_c, 9, 42, 0
1, 9750, Note_on_c, 9, 42, 60
1, 9750, Note_on_c, 9, 35, 100
1, 9760, Note_on_c, 9, 54, 0
1, 9760, Note_on_c, 9, 38, 0
1, 9768, Note_on_c, 0, 73, 0
1, 9770, Note_on_c, 9, 42, 0
1, 9780, Note_on_c, 9, 54, 55
1, 9780, Note_on_c, 9, 42, 60
1, 9780, Note_on_c, 0, 71, 100
1, 9790, Note_on_c, 9, 35, 0
1, 9800, Note_on_c, 9, 42, 0
1, 9810, Note_on_c, 9, 35, 100
1, 9810, Note_on_c, 9, 42, 60
1, 9820, Note_on_c, 9, 54, 0
1, 9824, Note_on_c, 1, 64, 0
1, 9824, Note_on_c, 1, 73, 0
1, 9824, Note_on_c, 1, 69, 0
1, 9824, Note_on_c, 4, 45, 0
1, 9830, Note_on_c, 9, 42, 0
1, 9832, Note_on_c, 0, 71, 0
1, 9838, Note_on_c, 2, 69, 0
1, 9838, Note_on_c, 2, 64, 0
1, 9838, Note_on_c, 2, 73, 0
1, 9840, Note_on_c, 1, 68, 100
1, 9840, Note_on_c, 1, 64, 100
1, 9840, Note_on_c, 9, 54, 55
1, 9840, Note_on_c, 1, 71, 100
1, 9840, Note_on_c, 2, 71, 100
1, 9840, Note_on_c, 2, 68, 100
1, 9840, Note_on_c, 0, 71, 100
1, 9840, Note_on_c, 9, 42, 60
1, 9840, Note_on_c, 2, 64, 100
1, 9840, Note_on_c, 4, 44, 100
1, 9850, Note_on_c, 9, 35, 0
1, 9860, Note_on_c, 9, 42, 0
1, 9866, Note_on_c, 0, 71, 0
1, 9870, Note_on_c, 9, 42, 60
1, 9870, Note_on_c, 0, 69, 100
1, 9880, Note_on_c, 9, 54, 0
1, 9890, Note_on_c, 9, 42, 0
1, 9896, Note_on_c, 0, 69, 0
1, 9900, Note_on_c, 0, 68, 100
1, 9900, Note_on_c, 9, 54, 55
1, 9900, Note_on_c, 9, 42, 60
1, 9920, Note_on_c, 9, 42, 0
1, 9930, Note_on_c, 9, 42, 60
1, 9940, Note_on_c, 9, 54, 0
1, 9950, Note_on_c, 9, 42, 0
1, 9960, Note_on_c, 9, 38, 100
1, 9960, Note_on_c, 9, 42, 60
1, 9960, Note_on_c, 9, 54, 55
1, 9980, Note_on_c, 9, 42, 0
1, 9990, Note_on_c, 9, 42, 60
1, 9996, Note_on_c, 4, 44, 0
1, 10000, Note_on_c, 9, 38, 0
1, 10000, Note_on_c, 9, 54, 0
1, 10004, Note_on_c, 0, 68, 0
1, 10010, Note_on_c, 9, 42, 0
1, 10020, Note_on_c, 9, 54, 55
1, 10020, Note_on_c, 9, 42, 60
1, 10020, Note_on_c, 4, 40, 100
1, 10020, Note_on_c, 0, 71, 100
1, 10020, Note_on_c, 9, 35, 100
1, 10040, Note_on_c, 9, 42, 0
1, 10046, Note_on_c, 0, 71, 0
1, 10048, Note_on_c, 1, 68, 0
1, 10048, Note_on_c, 1, 71, 0
1, 10048, Note_on_c, 1, 64, 0
1, 10050, Note_on_c, 0, 76, 100
1, 10050, Note_on_c, 9, 42, 60
1, 10060, Note_on_c, 9, 35, 0
1, 10060, Note_on_c, 9, 54, 0
1, 10070, Note_on_c, 9, 42, 0
1, 10072, Note_on_c, 4, 40, 0
1, 10076, Note_on_c, 0, 76, 0
1, 10078, Note_on_c, 2, 64, 0
1, 10078, Note_on_c, 2, 68, 0
1, 10078, Note_on_c, 2, 71, 0
1, 10080, Note_on_c, 2, 73, 100
1, 10080, Note_on_c, 1, 73, 100
1, 10080, Note_on_c, 9, 54, 55
1, 10080, Note_on_c, 1, 64, 100
1, 10080, Note_on_c, 2, 69, 100
1, 10080, Note_on_c, 9, 49, 100
1, 10080, Note_on_c, 9, 42, 60
1, 10080, Note_on_c, 9, 35, 100
1, 10080, Note_on_c, 1, 69, 100
1, 10080, Note_on_c, 2, 64, 100
1, 10080, Note_on_c, 4, 37, 100
1, 10080, Note_on_c, 0, 76, 100
1, 10100, Note_on_c, 9, 42, 0
1, 10110, Note_on_c, 9, 42, 60
1, 10120, Note_on_c, 9, 35, 0
1, 10120, Note_on_c, 9, 54, 0
1, 10130, Note_on_c, 9, 42, 0
1, 10140, Note_on_c, 9, 54, 55
1, 10140, Note_on_c, 9, 42, 60
1, 10158, Note_on_c, 0, 76, 0
1, 10160, Note_on_c, 9, 42, 0
1, 10160, Note_on_c, 9, 49, 0
1, 10170, Note_on_c, 9, 42, 60
1, 10170, Note_on_c, 0, 74, 100
1, 10180, Note_on_c, 9, 54, 0
1, 10184, Note_on_c, 1, 64, 0
1, 10184, Note_on_c, 1, 69, 0
1, 10184, Note_on_c, 1, 73, 0
1, 10184, Note_on_c, 4, 37, 0
1, 10190, Note_on_c, 9, 42, 0
1, 10198, Note_on_c, 2, 64, 0
1, 10198, Note_on_c, 2, 73, 0
1, 10198, Note_on_c, 2, 69, 0
1, 10200, Note_on_c, 1, 66, 100
1, 10200, Note_on_c, 1, 69, 100
1, 10200, Note_on_c, 4, 38, 100
1, 10200, Note_on_c, 2, 62, 100
1, 10200, Note_on_c, 9, 38, 100
1, 10200, Note_on_c, 1, 62, 100
1, 10200, Note_on_c, 9, 54, 55
1, 10200, Note_on_c, 2, 66, 100
1, 10200, Note_on_c, 2, 69, 100
1, 10200, Note_on_c, 9, 42, 60
1, 10220, Note_on_c, 9, 42, 0
1, 10222, Note_on_c, 0, 74, 0
1, 10230, Note_on_c, 0, 73, 100
1, 10230, Note_on_c, 9, 42, 60
1, 10240, Note_on_c, 9, 54, 0
1, 10240, Note_on_c, 9, 38, 0
1, 10250, Note_on_c, 9, 42, 0
1, 10256, Note_on_c, 0, 73, 0
1, 10260, Note_on_c, 9, 54, 55
1, 10260, Note_on_c, 0, 74, 100
1, 10260, Note_on_c, 9, 42, 60
1, 10260, Note_on_c, 9, 35, 100
1, 10280, Note_on_c, 9, 42, 0
1, 10286, Note_on_c, 0, 74, 0
1, 10290, Note_on_c, 9, 42, 60
1, 10290, Note_on_c, 0, 73, 100
1, 10300, Note_on_c, 9, 54, 0
1, 10300, Note_on_c, 9, 35, 0
1, 10304, Note_on_c, 1, 66, 0
1, 10304, Note_on_c, 4, 38, 0
1, 10304, Note_on_c, 1, 69, 0
1, 10304, Note_on_c, 1, 62, 0
1, 10310, Note_on_c, 9, 42, 0
1, 10318, Note_on_c, 2, 69, 0
1, 10318, Note_on_c, 2, 66, 0
1, 10318, Note_on_c, 2, 62, 0
1, 10320, Note_on_c, 2, 73, 100
1, 10320, Note_on_c, 2, 69, 100
1, 10320, Note_on_c, 2, 64, 100
1, 10320, Note_on_c, 4, 40, 100
1, 10320, Note_on_c, 9, 35, 100
1, 10320, Note_on_c, 9, 42, 60
1, 10320, Note_on_c, 9, 54, 55
1, 10320, Note_on_c, 1, 73, 100
1, 10320, Note_on_c, 1, 69, 100
1, 10320, Note_on_c, 1, 64, 100
1, 10340, Note_on_c, 9, 42, 0
1, 10350, Note_on_c, 9, 42, 60
1, 10360, Note_on_c, 9, 54, 0
1, 10360, Note_on_c, 9, 35, 0
1, 10370, Note_on_c, 9, 42, 0
1, 10380, Note_on_c, 9, 42, 60
1, 10380, Note_on_c, 9, 54, 55
1, 10400, Note_on_c, 9, 42, 0
1, 10410, Note_on_c, 9, 42, 60
1, 10420, Note_on_c, 9, 54, 0
1, 10430, Note_on_c, 9, 42, 0
1, 10440, Note_on_c, 9, 38, 100
1, 10440, Note_on_c, 9, 42, 60
1, 10440, Note_on_c, 9, 54, 55
1, 10446, Note_on_c, 0, 73, 0
1, 10460, Note_on_c, 9, 42, 0
1, 10470, Note_on_c, 9, 42, 60
1, 10476, Note_on_c, 4, 40, 0
1, 10480, Note_on_c, 9, 38, 0
1, 10480, Note_on_c, 9, 54, 0
1, 10490, Note_on_c, 9, 42, 0
1, 10500, Note_on_c, 0, 73, 100
1, 10500, Note_on_c, 4, 45, 100
1, 10500, Note_on_c, 9, 54, 55
1, 10500, Note_on_c, 9, 42, 60
1, 10520, Note_on_c, 9, 42, 0
1, 10526, Note_on_c, 0, 73, 0
1, 10528, Note_on_c, 1, 69, 0
1, 10528, Note_on_c, 1, 64, 0
1, 10528, Note_on_c, 1, 73, 0
1, 10530, Note_on_c, 9, 42, 60
1, 10530, Note_on_c, 0, 74, 100
1, 10540, Note_on_c, 9, 54, 0
1, 10550, Note_on_c, 9, 42, 0
1, 10552, Note_on_c, 4, 45, 0
1, 10556, Note_on_c, 0, 74, 0
1, 10558, Note_on_c, 2, 69, 0
1, 10558, Note_on_c, 2, 64, 0
1, 10558, Note_on_c, 2, 73, 0
1, 10560, Note_on_c, 2, 71, 100
1, 10560, Note_on_c, 2, 62, 100
1, 10560, Note_on_c, 4, 47, 100
1, 10560, Note_on_c, 2, 66, 100
1, 10560, Note_on_c, 1, 71, 100
1, 10560, Note_on_c, 1, 66, 100
1, 10560, Note_on_c, 9, 54, 55
1, 10560, Note_on_c, 9, 42, 60
1, 10560, Note_on_c, 0, 74, 100
1, 10560, Note_on_c, 9, 35, 100
1, 10560, Note_on_c, 1, 62, 100
1, 10580, Note_on_c, 9, 42, 0
1, 10590, Note_on_c, 9, 42, 60
1, 10600, Note_on_c, 9, 35, 0
1, 10600, Note_on_c, 9, 54, 0
1, 10610, Note_on_c, 9, 42, 0
1, 10620, Note_on_c, 9, 42, 60
1, 10620, Note_on_c, 9, 54, 55
1, 10640, Note_on_c, 9, 42, 0
1, 10650, Note_on_c, 9, 42, 60
1, 10660, Note_on_c, 9, 54, 0
1, 10664, Note_on_c, 1, 62, 0
1, 10664, Note_on_c, 4, 47, 0
1, 10664, Note_on_c, 0, 74, 0
1, 10664, Note_on_c, 1, 71, 0
1, 10664, Note_on_c, 1, 66, 0
1, 10670, Note_on_c, 9, 42, 0
1, 10678, Note_on_c, 2, 71, 0
1, 10678, Note_on_c, 2, 62, 0
1, 10678, Note_on_c, 2, 66, 0
1, 10680, Note_on_c, 1, 69, 100
1, 10680, Note_on_c, 4, 45, 100
1, 10680, Note_on_c, 9, 42, 60
1, 10680, Note_on_c, 9, 54, 55
1, 10680, Note_on_c, 9, 38, 100
1, 10680, Note_on_c, 2, 69, 100
1, 10680, Note_on_c, 0, 73, 100
1, 10680, Note_on_c, 1, 73, 100
1, 10680, Note_on_c, 2, 73, 100
1, 10680, Note_on_c, 1, 64, 100
1, 10680, Note_on_c, 2, 64, 100
1, 10700, Note_on_c, 9, 42, 0
1, 10710, Note_on_c, 9, 35, 100
1, 10710, Note_on_c, 9, 42, 60
1, 10720, Note_on_c, 9, 38, 0
1, 10720, Note_on_c, 9, 54, 0
1, 10730, Note_on_c, 9, 42, 0
1, 10732, Note_on_c, 0, 73, 0
1, 10740, Note_on_c, 9, 42, 60
1, 10740, Note_on_c, 9, 54, 55
1, 10740, Note_on_c, 0, 71, 100
1, 10750, Note_on_c, 9, 35, 0
1, 10760, Note_on_c, 9, 42, 0
1, 10766, Note_on_c, 0, 71, 0
1, 10770, Note_on_c, 9, 42, 60
1, 10770, Note_on_c, 0, 69, 100
1, 10770, Note_on_c, 9, 35, 100
1, 10780, Note_on_c, 9, 54, 0
1, 10784, Note_on_c, 1, 69, 0
1, 10784, Note_on_c, 1, 73, 0
1, 10784, Note_on_c, 1, 64, 0
1, 10784, Note_on_c, 4, 45, 0
1, 10790, Note_on_c, 9, 42, 0
1, 10796, Note_on_c, 0, 69, 0
1, 10798, Note_on_c, 2, 64, 0
1, 10798, Note_on_c, 2, 73, 0
1, 10798, Note_on_c, 2, 69, 0
1, 10800, Note_on_c, 0, 71, 100
1, 10800, Note_on_c, 1, 68, 100
1, 10800, Note_on_c, 1, 71, 100
1, 10800, Note_on_c, 9, 54, 55
1, 10800, Note_on_c, 2, 71, 100
1, 10800, Note_on_c, 2, 68, 100
1, 10800, Note_on_c, 1, 64, 100
1, 10800, Note_on_c, 9, 42, 60
1, 10800, Note_on_c, 4, 44, 100
1, 10800, Note_on_c, 2, 64, 100
1, 10810, Note_on_c, 9, 35, 0
1, 10820, Note_on_c, 9, 42, 0
1, 10826, Note_on_c, 0, 71, 0
1, 10830, Note_on_c, 0, 69, 100
1, 10830, Note_on_c, 9, 42, 60
1, 10840, Note_on_c, 9, 54, 0
1, 10850, Note_on_c, 9, 42, 0
1, 10860, Note_on_c, 9, 47, 100
1, 10860, Note_on_c, 9, 54, 55
1, 10860, Note_on_c, 9, 42, 60
1, 10880, Note_on_c, 9, 42, 0
1, 10880, Note_on_c, 9, 47, 0
1, 10882, Note_on_c, 0, 69, 0
1, 10890, Note_on_c, 9, 42, 60
1, 10890, Note_on_c, 9, 47, 100
1, 10890, Note_on_c, 0, 68, 100
1, 10900, Note_on_c, 9, 54, 0
1, 10910, Note_on_c, 9, 47, 0
1, 10910, Note_on_c, 9, 42, 0
1, 10916, Note_on_c, 0, 68, 0
1, 10920, Note_on_c, 9, 42, 60
1, 10920, Note_on_c, 0, 68, 100
1, 10920, Note_on_c, 9, 38, 100
1, 10920, Note_on_c, 9, 54, 55
1, 10940, Note_on_c, 9, 42, 0
1, 10950, Note_on_c, 9, 42, 60
1, 10956, Note_on_c, 4, 44, 0
1, 10960, Note_on_c, 9, 38, 0
1, 10960, Note_on_c, 9, 54, 0
1, 10970, Note_on_c, 9, 42, 0
1, 10980, Note_on_c, 9, 45, 100
1, 10980, Note_on_c, 9, 35, 100
1, 10980, Note_on_c, 9, 42, 60
1, 10980, Note_on_c, 4, 40, 100
1, 10980, Note_on_c, 9, 54, 55
1, 11000, Note_on_c, 9, 42, 0
1, 11000, Note_on_c, 9, 45, 0
1, 11008, Note_on_c, 1, 64, 0
1, 11008, Note_on_c, 1, 71, 0
1, 11008, Note_on_c, 1, 68, 0
1, 11010, Note_on_c, 9, 45, 100
1, 11010, Note_on_c, 9, 42, 60
1, 11020, Note_on_c, 9, 35, 0
1, 11020, Note_on_c, 9, 54, 0
1, 11024, Note_on_c, 0, 68, 0
1, 11030, Note_on_c, 9, 42, 0
1, 11030, Note_on_c, 9, 45, 0
1, 11032, Note_on_c, 4, 40, 0
1, 11038, Note_on_c, 2, 64, 0
1, 11038, Note_on_c, 2, 71, 0
1, 11038, Note_on_c, 2, 68, 0
1, 11040, Note_on_c, 9, 54, 55
1, 11040, Note_on_c, 9, 35, 100
1, 11040, Note_on_c, 9, 49, 100
1, 11040, Note_on_c, 9, 53, 100
1, 11040, Note_on_c, 4, 35, 100
1, 11060, Note_on_c, 9, 54, 0
1, 11070, Note_on_c, 9, 54, 55
1, 11080, Note_on_c, 9, 35, 0
1, 11090, Note_on_c, 9, 54, 0
1, 11092, Note_on_c, 4, 35, 0
1, 11100, Note_on_c, 1, 57, 85
1, 11100, Note_on_c, 2, 61, 100
1, 11100, Note_on_c, 1, 52, 85
1, 11100, Note_on_c, 9, 54, 55
1, 11100, Note_on_c, 1, 61, 85
1, 11100, Note_on_c, 4, 47, 100
1, 11100, Note_on_c, 0, 69, 100
1, 11100, Note_on_c, 2, 57, 100
1, 11100, Note_on_c, 2, 52, 100
1, 11120, Note_on_c, 9, 54, 0
1, 11120, Note_on_c, 9, 53, 0
1, 11120, Note_on_c, 9, 49, 0
1, 11130, Note_on_c, 9, 54, 55
1, 11150, Note_on_c, 9, 54, 0
1, 11152, Note_on_c, 0, 69, 0
1, 11152, Note_on_c, 1, 52, 0
1, 11152, Note_on_c, 1, 61, 0
1, 11152, Note_on_c, 1, 57, 0
1, 11158, Note_on_c, 2, 61, 0
1, 11158, Note_on_c, 2, 52, 0
1, 11158, Note_on_c, 2, 57, 0
1, 11160, Note_on_c, 0, 71, 100
1, 11160, Note_on_c, 1, 62, 85
1, 11160, Note_on_c, 9, 54, 55
1, 11160, Note_on_c, 2, 54, 100
1, 11160, Note_on_c, 1, 59, 85
1, 11160, Note_on_c, 1, 54, 85
1, 11160, Note_on_c, 2, 59, 100
1, 11160, Note_on_c, 9, 53, 100
1, 11160, Note_on_c, 2, 64, 100
1, 11160, Note_on_c, 9, 38, 100
1, 11178, Note_on_c, 4, 47, 0
1, 11180, Note_on_c, 9, 54, 0
1, 11190, Note_on_c, 9, 54, 55
1, 11190, Note_on_c, 4, 47, 100
1, 11200, Note_on_c, 9, 38, 0
1, 11210, Note_on_c, 9, 54, 0
1, 11216, Note_on_c, 4, 47, 0
1, 11220, Note_on_c, 9, 54, 55
1, 11220, Note_on_c, 9, 35, 100
1, 11220, Note_on_c, 4, 35, 100
1, 11238, Note_on_c, 0, 71, 0
1, 11240, Note_on_c, 9, 54, 0
1, 11240, Note_on_c, 9, 53, 0
1, 11250, Note_on_c, 9, 54, 55
1, 11250, Note_on_c, 0, 62, 100
1, 11260, Note_on_c, 9, 35, 0
1, 11264, Note_on_c, 1, 54, 0
1, 11264, Note_on_c, 1, 62, 0
1, 11264, Note_on_c, 1, 59, 0
1, 11270, Note_on_c, 9, 54, 0
1, 11272, Note_on_c, 4, 35, 0
1, 11276, Note_on_c, 0, 62, 0
1, 11278, Note_on_c, 2, 54, 0
1, 11278, Note_on_c, 2, 59, 0
1, 11278, Note_on_c, 2, 64, 0
1, 11280, Note_on_c, 1, 61, 85
1, 11280, Note_on_c, 1, 52, 85
1, 11280, Note_on_c, 9, 53, 100
1, 11280, Note_on_c, 0, 69, 100
1, 11280, Note_on_c, 2, 61, 100
1, 11280, Note_on_c, 1, 57, 85
1, 11280, Note_on_c, 4, 47, 100
1, 11280, Note_on_c, 9, 54, 55
1, 11280, Note_on_c, 2, 57, 100
1, 11280, Note_on_c, 2, 52, 100
1, 11300, Note_on_c, 9, 54, 0
1, 11310, Note_on_c, 9, 54, 55
1, 11330, Note_on_c, 9, 54, 0
1, 11332, Note_on_c, 0, 69, 0
1, 11340, Note_on_c, 9, 54, 55
1, 11340, Note_on_c, 0, 69, 100
1, 11340, Note_on_c, 9, 35, 100
1, 11358, Note_on_c, 1, 61, 0
1, 11358, Note_on_c, 1, 52, 0
1, 11358, Note_on_c, 4, 47, 0
1, 11358, Note_on_c, 1, 57, 0
1, 11360, Note_on_c, 9, 54, 0
1, 11360, Note_on_c, 9, 53, 0
1, 11366, Note_on_c, 0, 69, 0
1, 11368, Note_on_c, 2, 52, 0
1, 11368, Note_on_c, 2, 61, 0
1, 11368, Note_on_c, 2, 57, 0
1, 11370, Note_on_c, 4, 47, 100
1, 11370, Note_on_c, 9, 54, 55
1, 11370, Note_on_c, 1, 62, 85
1, 11370, Note_on_c, 2, 62, 100
1, 11370, Note_on_c, 0, 71, 100
1, 11370, Note_on_c, 2, 59, 100
1, 11370, Note_on_c, 2, 54, 100
1, 11370, Note_on_c, 1, 59, 85
1, 11370, Note_on_c, 1, 54, 85
1, 11380, Note_on_c, 9, 35, 0
1, 11390, Note_on_c, 9, 54, 0
1, 11396, Note_on_c, 4, 47, 0
1, 11400, Note_on_c, 9, 38, 100
1, 11400, Note_on_c, 4, 35, 100
1, 11400, Note_on_c, 9, 53, 100
1, 11400, Note_on_c, 9, 54, 55
1, 11420, Note_on_c, 9, 54, 0
1, 11422, Note_on_c, 0, 71, 0
1, 11430, Note_on_c, 0, 71, 100
1, 11430, Note_on_c, 9, 54, 55
1, 11440, Note_on_c, 9, 38, 0
1, 11450, Note_on_c, 9, 54, 0
1, 11452, Note_on_c, 4, 35, 0
1, 11460, Note_on_c, 4, 47, 100
1, 11460, Note_on_c, 9, 54, 55
1, 11474, Note_on_c, 1, 59, 0
1, 11474, Note_on_c, 1, 62, 0
1, 11474, Note_on_c, 1, 54, 0
1, 11480, Note_on_c, 9, 53, 0
1, 11480, Note_on_c, 9, 54, 0
1, 11482, Note_on_c, 0, 71, 0
1, 11490, Note_on_c, 9, 54, 55
1, 11490, Note_on_c, 0, 62, 100
1, 11510, Note_on_c, 9, 54, 0
1, 11516, Note_on_c, 0, 62, 0
1, 11518, Note_on_c, 2, 59, 0
1, 11518, Note_on_c, 2, 62, 0
1, 11518, Note_on_c, 2, 54, 0
1, 11520, Note_on_c, 2, 52, 100
1, 11520, Note_on_c, 0, 69, 100
1, 11520, Note_on_c, 9, 35, 100
1, 11520, Note_on_c, 2, 61, 100
1, 11520, Note_on_c, 1, 57, 85
1, 11520, Note_on_c, 2, 57, 100
1, 11520, Note_on_c, 1, 52, 85
1, 11520, Note_on_c, 9, 54, 55
1, 11520, Note_on_c, 9, 53, 100
1, 11520, Note_on_c, 1, 61, 85
1, 11538, Note_on_c, 4, 47, 0
1, 11540, Note_on_c, 9, 54, 0
1, 11550, Note_on_c, 9, 54, 55
1, 11550, Note_on_c, 4, 47, 100
1, 11560, Note_on_c, 9, 35, 0
1, 11570, Note_on_c, 9, 54, 0
1, 11572, Note_on_c, 0, 69, 0
1, 11576, Note_on_c, 4, 47, 0
1, 11580, Note_on_c, 0, 69, 100
1, 11580, Note_on_c, 4, 35, 100
1, 11580, Note_on_c, 9, 54, 55
1, 11598, Note_on_c, 1, 52, 0
1, 11598, Note_on_c, 1, 61, 0
1, 11598, Note_on_c, 1, 57, 0
1, 11600, Note_on_c, 9, 54, 0
1, 11600, Note_on_c, 9, 53, 0
1, 11606, Note_on_c, 0, 69, 0
1, 11608, Note_on_c, 2, 52, 0
1, 11608, Note_on_c, 2, 57, 0
1, 11608, Note_on_c, 2, 61, 0
1, 11610, Note_on_c, 0, 71, 100
1, 11610, Note_on_c, 9, 54, 55
1, 11610, Note_on_c, 1, 62, 85
1, 11610, Note_on_c, 1, 59, 85
1, 11610, Note_on_c, 2, 59, 100
1, 11610, Note_on_c, 2, 54, 100
1, 11610, Note_on_c, 2, 62, 100
1, 11610, Note_on_c, 1, 54, 85
1, 11630, Note_on_c, 9, 54, 0
1, 11632, Note_on_c, 4, 35, 0
1, 11640, Note_on_c, 9, 38, 100
1, 11640, Note_on_c, 4, 47, 100
1, 11640, Note_on_c, 9, 54, 55
1, 11640, Note_on_c, 9, 53, 100
1, 11660, Note_on_c, 9, 54, 0
1, 11670, Note_on_c, 9, 54, 55
1, 11680, Note_on_c, 9, 38, 0
1, 11688, Note_on_c, 0, 71, 0
1, 11690, Note_on_c, 9, 54, 0
1, 11700, Note_on_c, 9, 54, 55
1, 11700, Note_on_c, 9, 35, 100
1, 11700, Note_on_c, 0, 69, 100
1, 11714, Note_on_c, 1, 54, 0
1, 11714, Note_on_c, 1, 59, 0
1, 11714, Note_on_c, 1, 62, 0
1, 11718, Note_on_c, 4, 47, 0
1, 11720, Note_on_c, 9, 54, 0
1, 11720, Note_on_c, 9, 53, 0
1, 11730, Note_on_c, 4, 45, 100
1, 11730, Note_on_c, 9, 54, 55
1, 11740, Note_on_c, 9, 35, 0
1, 11750, Note_on_c, 9, 54, 0
1, 11752, Note_on_c, 0, 69, 0
1, 11756, Note_on_c, 4, 45, 0
1, 11758, Note_on_c, 2, 54, 0
1, 11758, Note_on_c, 2, 62, 0
1, 11758, Note_on_c, 2, 59, 0
1, 11760, Note_on_c, 2, 57, 100
1, 11760, Note_on_c, 9, 54, 55
1, 11760, Note_on_c, 4, 38, 100
1, 11760, Note_on_c, 2, 62, 100
1, 11760, Note_on_c, 0, 74, 100
1, 11760, Note_on_c, 2, 54, 100
1, 11760, Note_on_c, 1, 54, 85
1, 11760, Note_on_c, 1, 62, 85
1, 11760, Note_on_c, 1, 57, 85
1, 11760, Note_on_c, 9, 53, 100
1, 11780, Note_on_c, 9, 54, 0
1, 11790, Note_on_c, 9, 54, 55
1, 11810, Note_on_c, 9, 54, 0
1, 11812, Note_on_c, 0, 74, 0
1, 11820, Note_on_c, 9, 54, 55
1, 11820, Note_on_c, 0, 71, 100
1, 11820, Note_on_c, 9, 35, 100
1, 11838, Note_on_c, 4, 38, 0
1, 11840, Note_on_c, 9, 54, 0
1, 11840, Note_on_c, 9, 53, 0
1, 11850, Note_on_c, 9, 54, 55
1, 11850, Note_on_c, 4, 47, 100
1, 11860, Note_on_c, 9, 35, 0
1, 11864, Note_on_c, 1, 57, 0
1, 11864, Note_on_c, 1, 62, 0
1, 11864, Note_on_c, 1, 54, 0
1, 11870, Note_on_c, 9, 54, 0
1, 11872, Note_on_c, 0, 71, 0
1, 11876, Note_on_c, 4, 47, 0
1, 11878, Note_on_c, 2, 62, 0
1, 11878, Note_on_c, 2, 57, 0
1, 11878, Note_on_c, 2, 54, 0
1, 11880, Note_on_c, 0, 71, 100
1, 11880, Note_on_c, 2, 64, 100
1, 11880, Note_on_c, 9, 38, 100
1, 11880, Note_on_c, 1, 59, 85
1, 11880, Note_on_c, 2, 59, 100
1, 11880, Note_on_c, 1, 56, 85
1, 11880, Note_on_c, 9, 53, 100
1, 11880, Note_on_c, 9, 54, 55
1, 11880, Note_on_c, 4, 40, 100
1, 11880, Note_on_c, 2, 56, 100
1, 11880, Note_on_c, 1, 64, 85
1, 11900, Note_on_c, 9, 54, 0
1, 11910, Note_on_c, 9, 54, 55
1, 11920, Note_on_c, 9, 38, 0
1, 11930, Note_on_c, 9, 54, 0
1, 11940, Note_on_c, 9, 54, 55
1, 11958, Note_on_c, 4, 40, 0
1, 11960, Note_on_c, 9, 54, 0
1, 11960, Note_on_c, 9, 53, 0
1, 11970, Note_on_c, 4, 47, 100
1, 11970, Note_on_c, 9, 54, 55
1, 11984, Note_on_c, 1, 64, 0
1, 11984, Note_on_c, 1, 59, 0
1, 11984, Note_on_c, 0, 71, 0
1, 11984, Note_on_c, 1, 56, 0
1, 11990, Note_on_c, 9, 54, 0
1, 11996, Note_on_c, 4, 47, 0
1, 11998, Note_on_c, 2, 56, 0
1, 11998, Note_on_c, 2, 59, 0
1, 11998, Note_on_c, 2, 64, 0
1, 12000, Note_on_c, 9, 54, 55
1, 12000, Note_on_c, 9, 35, 100
1, 12000, Note_on_c, 4, 35, 100
1, 12000, Note_on_c, 9, 53, 100
1, 12020, Note_on_c, 9, 54, 0
1, 12030, Note_on_c, 9, 54, 55
1, 12030, Note_on_c, 0, 66, 100
1, 12040, Note_on_c, 9, 35, 0
1, 12050, Note_on_c, 9, 54, 0
1, 12052, Note_on_c, 4, 35, 0
1, 12056, Note_on_c, 0, 66, 0
1, 12060, Note_on_c, 0, 74, 100
1, 12060, Note_on_c, 2, 54, 100
1, 12060, Note_on_c, 1, 59, 85
1, 12060, Note_on_c, 2, 64, 100
1, 12060, Note_on_c, 1, 54, 85
1, 12060, Note_on_c, 9, 54, 55
1, 12060, Note_on_c, 1, 62, 85
1, 12060, Note_on_c, 2, 59, 100
1, 12060, Note_on_c, 4, 47, 100
1, 12080, Note_on_c, 9, 54, 0
1, 12080, Note_on_c, 9, 53, 0
1, 12090, Note_on_c, 9, 54, 55
1, 12110, Note_on_c, 9, 54, 0
1, 12112, Note_on_c, 0, 74, 0
1, 12120, Note_on_c, 9, 38, 100
1, 12120, Note_on_c, 9, 53, 100
1, 12120, Note_on_c, 9, 54, 55
1, 12120, Note_on_c, 0, 74, 100
1, 12138, Note_on_c, 4, 47, 0
1, 12140, Note_on_c, 9, 54, 0
1, 12150, Note_on_c, 4, 47, 100
1, 12150, Note_on_c, 9, 54, 55
1, 12160, Note_on_c, 9, 38, 0
1, 12170, Note_on_c, 9, 54, 0
1, 12176, Note_on_c, 4, 47, 0
1, 12180, Note_on_c, 9, 35, 100
1, 12180, Note_on_c, 9, 54, 55
1, 12180, Note_on_c, 4, 35, 100
1, 12200, Note_on_c, 9, 54, 0
1, 12200, Note_on_c, 9, 53, 0
1, 12210, Note_on_c, 9, 54, 55
1, 12216, Note_on_c, 1, 62, 0
1, 12216, Note_on_c, 1, 59, 0
1, 12216, Note_on_c, 1, 54, 0
1, 12220, Note_on_c, 9, 35, 0
1, 12224, Note_on_c, 0, 74, 0
1, 12230, Note_on_c, 9, 54, 0
1, 12232, Note_on_c, 4, 35, 0
1, 12240, Note_on_c, 2, 64, 0
1, 12240, Note_on_c, 2, 59, 0
1, 12240, Note_on_c, 2, 54, 0
1, 12240, Note_on_c, 2, 61, 100
1, 12240, Note_on_c, 1, 61, 85
1, 12240, Note_on_c, 2, 57, 100
1, 12240, Note_on_c, 4, 47, 100
1, 12240, Note_on_c, 1, 52, 85
1, 12240, Note_on_c, 0, 73, 100
1, 12240, Note_on_c, 1, 57, 85
1, 12240, Note_on_c, 9, 53, 100
1, 12240, Note_on_c, 2, 52, 100
1, 12240, Note_on_c, 9, 54, 55
1, 12260, Note_on_c, 9, 54, 0
1, 12270, Note_on_c, 9, 54, 55
1, 12290, Note_on_c, 9, 54, 0
1, 12292, Note_on_c, 0, 73, 0
1, 12300, Note_on_c, 9, 54, 55
1, 12300, Note_on_c, 0, 73, 100
1, 12300, Note_on_c, 9, 35, 100
1, 12318, Note_on_c, 4, 47, 0
1, 12318, Note_on_c, 1, 61, 0
1, 12318, Note_on_c, 1, 57, 0
1, 12318, Note_on_c, 1, 52, 0
1, 12320, Note_on_c, 9, 54, 0
1, 12320, Note_on_c, 9, 53, 0
1, 12326, Note_on_c, 0, 73, 0
1, 12328, Note_on_c, 2, 52, 0
1, 12328, Note_on_c, 2, 61, 0
1, 12328, Note_on_c, 2, 57, 0
1, 12330, Note_on_c, 2, 62, 100
1, 12330, Note_on_c, 2, 59, 100
1, 12330, Note_on_c, 0, 71, 100
1, 12330, Note_on_c, 1, 62, 85
1, 12330, Note_on_c, 1, 59, 85
1, 12330, Note_on_c, 4, 47, 100
1, 12330, Note_on_c, 1, 54, 85
1, 12330, Note_on_c, 9, 54, 55
1, 12330, Note_on_c, 2, 54, 100
1, 12340, Note_on_c, 9, 35, 0
1, 12350, Note_on_c, 9, 54, 0
1, 12356, Note_on_c, 4, 47, 0
1, 12360, Note_on_c, 9, 54, 55
1, 12360, Note_on_c, 9, 53, 100
1, 12360, Note_on_c, 4, 35, 100
1, 12360, Note_on_c, 9, 38, 100
1, 12380, Note_on_c, 9, 54, 0
1, 12390, Note_on_c, 9, 54, 55
1, 12400, Note_on_c, 9, 38, 0
1, 12410, Note_on_c, 9, 54, 0
1, 12412, Note_on_c, 4, 35, 0
1, 12420, Note_on_c, 4, 47, 100
1, 12420, Note_on_c, 9, 54, 55
1, 12434, Note_on_c, 0, 71, 0
1, 12434, Note_on_c, 1, 62, 0
1, 12434, Note_on_c, 1, 54, 0
1, 12434, Note_on_c, 1, 59, 0
1, 12440, Note_on_c, 9, 53, 0
1, 12440, Note_on_c, 9, 54, 0
1, 12450, Note_on_c, 9, 54, 55
1, 12470, Note_on_c, 9, 54, 0
1, 12478, Note_on_c, 2, 62, 0
1, 12478, Note_on_c, 2, 54, 0
1, 12478, Note_on_c, 2, 59, 0
1, 12480, Note_on_c, 0, 69, 100
1, 12480, Note_on_c, 9, 53, 100
1, 12480, Note_on_c, 9, 35, 100
1, 12480, Note_on_c, 2, 52, 100
1, 12480, Note_on_c, 1, 61, 85
1, 12480, Note_on_c, 1, 57, 85
1, 12480, Note_on_c, 9, 54, 55
1, 12480, Note_on_c, 2, 57, 100
1, 12480, Note_on_c, 2, 61, 100
1, 12480, Note_on_c, 1, 52, 85
1, 12498, Note_on_c, 4, 47, 0
1, 12500, Note_on_c, 9, 54, 0
1, 12510, Note_on_c, 4, 47, 100
1, 12510, Note_on_c, 9, 54, 55
1, 12520, Note_on_c, 9, 35, 0
1, 12530, Note_on_c, 9, 54, 0
1, 12532, Note_on_c, 0, 69, 0
1, 12536, Note_on_c, 4, 47, 0
1, 12540, Note_on_c, 9, 54, 55
1, 12540, Note_on_c, 4, 35, 100
1, 12540, Note_on_c, 0, 69, 100
1, 12558, Note_on_c, 1, 52, 0
1, 12558, Note_on_c, 1, 57, 0
1, 12558, Note_on_c, 1, 61, 0
1, 12560, Note_on_c, 9, 54, 0
1, 12560, Note_on_c, 9, 53, 0
1, 12566, Note_on_c, 4, 35, 0
1, 12566, Note_on_c, 0, 69, 0
1, 12568, Note_on_c, 2, 52, 0
1, 12568, Note_on_c, 2, 57, 0
1, 12568, Note_on_c, 2, 61, 0
1, 12570, Note_on_c, 1, 54, 85
1, 12570, Note_on_c, 2, 62, 100
1, 12570, Note_on_c, 2, 59, 100
1, 12570, Note_on_c, 0, 71, 100
1, 12570, Note_on_c, 1, 59, 85
1, 12570, Note_on_c, 4, 47, 100
1, 12570, Note_on_c, 1, 62, 85
1, 12570, Note_on_c, 9, 54, 55
1, 12570, Note_on_c, 2, 54, 100
1, 12590, Note_on_c, 9, 54, 0
1, 12600, Note_on_c, 9, 38, 100
1, 12600, Note_on_c, 9, 54, 55
1, 12600, Note_on_c, 9, 53, 100
1, 12620, Note_on_c, 9, 54, 0
1, 12622, Note_on_c, 4, 47, 0
1, 12622, Note_on_c, 0, 71, 0
1, 12630, Note_on_c, 9, 54, 55
1, 12630, Note_on_c, 4, 47, 100
1, 12630, Note_on_c, 0, 71, 100
1, 12640, Note_on_c, 9, 38, 0
1, 12650, Note_on_c, 9, 54, 0
1, 12656, Note_on_c, 0, 71, 0
1, 12660, Note_on_c, 0, 71, 100
1, 12660, Note_on_c, 9, 35, 100
1, 12660, Note_on_c, 9, 54, 55
1, 12674, Note_on_c, 1, 59, 0
1, 12674, Note_on_c, 1, 54, 0
1, 12674, Note_on_c, 1, 62, 0
1, 12680, Note_on_c, 9, 54, 0
1, 12680, Note_on_c, 9, 53, 0
1, 12682, Note_on_c, 4, 47, 0
1, 12690, Note_on_c, 9, 54, 55
1, 12690, Note_on_c, 4, 45, 100
1, 12700, Note_on_c, 9, 35, 0
1, 12710, Note_on_c, 9, 54, 0
1, 12712, Note_on_c, 0, 71, 0
1, 12716, Note_on_c, 4, 45, 0
1, 12718, Note_on_c, 2, 59, 0
1, 12718, Note_on_c, 2, 54, 0
1, 12718, Note_on_c, 2, 62, 0
1, 12720, Note_on_c, 9, 53, 100
1, 12720, Note_on_c, 4, 38, 100
1, 12720, Note_on_c, 0, 69, 100
1, 12720, Note_on_c, 2, 62, 100
1, 12720, Note_on_c, 9, 54, 55
1, 12720, Note_on_c, 1, 54, 85
1, 12720, Note_on_c, 1, 57, 85
1, 12720, Note_on_c, 1, 62, 85
1, 12720, Note_on_c, 2, 57, 100
1, 12720, Note_on_c, 2, 54, 100
1, 12740, Note_on_c, 9, 54, 0
1, 12746, Note_on_c, 0, 69, 0
1, 12750, Note_on_c, 0, 69, 100
1, 12750, Note_on_c, 9, 54, 55
1, 12770, Note_on_c, 9, 54, 0
1, 12776, Note_on_c, 0, 69, 0
1, 12780, Note_on_c, 9, 35, 100
1, 12780, Note_on_c, 0, 69, 100
1, 12780, Note_on_c, 9, 54, 55
1, 12798, Note_on_c, 4, 38, 0
1, 12800, Note_on_c, 9, 54, 0
1, 12800, Note_on_c, 9, 53, 0
1, 12810, Note_on_c, 4, 47, 100
1, 12810, Note_on_c, 9, 54, 55
1, 12820, Note_on_c, 9, 35, 0
1, 12824, Note_on_c, 1, 62, 0
1, 12824, Note_on_c, 1, 54, 0
1, 12824, Note_on_c, 1, 57, 0
1, 12830, Note_on_c, 9, 54, 0
1, 12832, Note_on_c, 0, 69, 0
1, 12836, Note_on_c, 4, 47, 0
1, 12838, Note_on_c, 2, 57, 0
1, 12838, Note_on_c, 2, 62, 0
1, 12838, Note_on_c, 2, 54, 0
1, 12840, Note_on_c, 2, 64, 100
1, 12840, Note_on_c, 9, 53, 100
1, 12840, Note_on_c, 1, 64, 85
1, 12840, Note_on_c, 9, 54, 55
1, 12840, Note_on_c, 2, 59, 100
1, 12840, Note_on_c, 2, 56, 100
1, 12840, Note_on_c, 0, 71, 100
1, 12840, Note_on_c, 4, 40, 100
1, 12840, Note_on_c, 9, 38, 100
1, 12840, Note_on_c, 1, 59, 85
1, 12840, Note_on_c, 1, 56, 85
1, 12860, Note_on_c, 9, 54, 0
1, 12870, Note_on_c, 9, 54, 55
1, 12880, Note_on_c, 9, 38, 0
1, 12890, Note_on_c, 9, 54, 0
1, 12900, Note_on_c, 9, 54, 55
1, 12918, Note_on_c, 4, 40, 0
1, 12920, Note_on_c, 9, 54, 0
1, 12920, Note_on_c, 9, 53, 0
1, 12930, Note_on_c, 4, 47, 100
1, 12930, Note_on_c, 9, 54, 55
1, 12944, Note_on_c, 1, 59, 0
1, 12944, Note_on_c, 1, 56, 0
1, 12944, Note_on_c, 0, 71, 0
1, 12944, Note_on_c, 1, 64, 0
1, 12950, Note_on_c, 9, 54, 0
1, 12956, Note_on_c, 4, 47, 0
1, 12958, Note_on_c, 2, 56, 0
1, 12958, Note_on_c, 2, 59, 0
1, 12958, Note_on_c, 2, 64, 0
1, 12960, Note_on_c, 9, 35, 100
1, 12960, Note_on_c, 9, 54, 55
1, 12960, Note_on_c, 9, 49, 100
1, 12960, Note_on_c, 4, 35, 100
1, 12960, Note_on_c, 9, 53, 100
1, 12980, Note_on_c, 9, 54, 0
1, 12990, Note_on_c, 9, 54, 55
1, 13000, Note_on_c, 9, 35, 0
1, 13010, Note_on_c, 9, 54, 0
1, 13012, Note_on_c, 4, 35, 0
1, 13020, Note_on_c, 4, 47, 100
1, 13020, Note_on_c, 2, 59, 100
1, 13020, Note_on_c, 1, 62, 85
1, 13020, Note_on_c, 1, 59, 85
1, 13020, Note_on_c, 2, 64, 100
1, 13020, Note_on_c, 0, 74, 100
1, 13020, Note_on_c, 1, 54, 85
1, 13020, Note_on_c, 2, 54, 100
1, 13020, Note_on_c, 9, 54, 55
1, 13040, Note_on_c, 9, 54, 0
1, 13040, Note_on_c, 9, 49, 0
1, 13040, Note_on_c, 9, 53, 0
1, 13046, Note_on_c, 0, 74, 0
1, 13050, Note_on_c, 0, 74, 100
1, 13050, Note_on_c, 9, 54, 55
1, 13070, Note_on_c, 9, 54, 0
1, 13080, Note_on_c, 9, 54, 55
1, 13080, Note_on_c, 9, 53, 100
1, 13080, Note_on_c, 9, 38, 100
1, 13098, Note_on_c, 4, 47, 0
1, 13100, Note_on_c, 9, 54, 0
1, 13110, Note_on_c, 9, 54, 55
1, 13110, Note_on_c, 4, 47, 100
1, 13120, Note_on_c, 9, 38, 0
1, 13124, Note_on_c, 1, 54, 0
1, 13124, Note_on_c, 1, 62, 0
1, 13124, Note_on_c, 1, 59, 0
1, 13128, Note_on_c, 0, 74, 0
1, 13130, Note_on_c, 9, 54, 0
1, 13136, Note_on_c, 4, 47, 0
1, 13138, Note_on_c, 2, 54, 0
1, 13138, Note_on_c, 2, 64, 0
1, 13138, Note_on_c, 2, 59, 0
1, 13140, Note_on_c, 9, 54, 55
1, 13140, Note_on_c, 9, 35, 100
1, 13140, Note_on_c, 2, 61, 100
1, 13140, Note_on_c, 1, 52, 85
1, 13140, Note_on_c, 1, 61, 85
1, 13140, Note_on_c, 1, 57, 85
1, 13140, Note_on_c, 2, 57, 100
1, 13140, Note_on_c, 0, 73, 100
1, 13140, Note_on_c, 2, 52, 100
1, 13140, Note_on_c, 4, 35, 100
1, 13160, Note_on_c, 9, 54, 0
1, 13160, Note_on_c, 9, 53, 0
1, 13170, Note_on_c, 9, 54, 55
1, 13180, Note_on_c, 9, 35, 0
1, 13190, Note_on_c, 9, 54, 0
1, 13192, Note_on_c, 4, 35, 0
1, 13192, Note_on_c, 0, 73, 0
1, 13192, Note_on_c, 1, 57, 0
1, 13192, Note_on_c, 1, 52, 0
1, 13192, Note_on_c, 1, 61, 0
1, 13198, Note_on_c, 2, 57, 0
1, 13198, Note_on_c, 2, 61, 0
1, 13198, Note_on_c, 2, 52, 0
1, 13200, Note_on_c, 1, 57, 85
1, 13200, Note_on_c, 4, 47, 100
1, 13200, Note_on_c, 2, 61, 100
1, 13200, Note_on_c, 1, 61, 85
1, 13200, Note_on_c, 9, 53, 100
1, 13200, Note_on_c, 2, 57, 100
1, 13200, Note_on_c, 9, 54, 55
1, 13200, Note_on_c, 1, 52, 85
1, 13200, Note_on_c, 0, 73, 100
1, 13200, Note_on_c, 2, 52, 100
1, 13220, Note_on_c, 9, 54, 0
1, 13226, Note_on_c, 0, 73, 0
1, 13230, Note_on_c, 0, 71, 100
1, 13230, Note_on_c, 9, 54, 55
1, 13250, Note_on_c, 9, 54, 0
1, 13256, Note_on_c, 0, 71, 0
1, 13260, Note_on_c, 0, 71, 100
1, 13260, Note_on_c, 9, 35, 100
1, 13260, Note_on_c, 9, 54, 55
1, 13278, Note_on_c, 1, 52, 0
1, 13278, Note_on_c, 1, 57, 0
1, 13278, Note_on_c, 4, 47, 0
1, 13278, Note_on_c, 1, 61, 0
1, 13280, Note_on_c, 9, 53, 0
1, 13280, Note_on_c, 9, 54, 0
1, 13288, Note_on_c, 2, 57, 0
1, 13288, Note_on_c, 2, 52, 0
1, 13288, Note_on_c, 2, 61, 0
1, 13290, Note_on_c, 1, 62, 85
1, 13290, Note_on_c, 4, 47, 100
1, 13290, Note_on_c, 2, 62, 100
1, 13290, Note_on_c, 9, 54, 55
1, 13290, Note_on_c, 1, 59, 85
1, 13290, Note_on_c, 1, 54, 85
1, 13290, Note_on_c, 2, 59, 100
1, 13290, Note_on_c, 2, 54, 100
1, 13300, Note_on_c, 9, 35, 0
1, 13310, Note_on_c, 9, 54, 0
1, 13312, Note_on_c, 0, 71, 0
1, 13316, Note_on_c, 4, 47, 0
1, 13320, Note_on_c, 9, 54, 55
1, 13320, Note_on_c, 9, 53, 100
1, 13320, Note_on_c, 0, 71, 100
1, 13320, Note_on_c, 4, 35, 100
1, 13320, Note_on_c, 9, 38, 100
1, 13340, Note_on_c, 9, 54, 0
1, 13350, Note_on_c, 9, 54, 55
1, 13360, Note_on_c, 9, 38, 0
1, 13370, Note_on_c, 9, 54, 0
1, 13372, Note_on_c, 4, 35, 0
1, 13380, Note_on_c, 4, 47, 100
1, 13380, Note_on_c, 9, 54, 55
1, 13394, Note_on_c, 1, 54, 0
1, 13394, Note_on_c, 1, 59, 0
1, 13394, Note_on_c, 1, 62, 0
1, 13400, Note_on_c, 9, 54, 0
1, 13400, Note_on_c, 9, 53, 0
1, 13410, Note_on_c, 9, 54, 55
1, 13424, Note_on_c, 0, 71, 0
1, 13430, Note_on_c, 9, 54, 0
1, 13438, Note_on_c, 2, 59, 0
1, 13438, Note_on_c, 2, 54, 0
1, 13438, Note_on_c, 2, 62, 0
1, 13440, Note_on_c, 9, 54, 55
1, 13440, Note_on_c, 2, 52, 100
1, 13440, Note_on_c, 1, 61, 85
1, 13440, Note_on_c, 0, 69, 100
1, 13440, Note_on_c, 2, 61, 100
1, 13440, Note_on_c, 9, 35, 100
1, 13440, Note_on_c, 1, 52, 85
1, 13440, Note_on_c, 1, 57, 85
1, 13440, Note_on_c, 2, 57, 100
1, 13440, Note_on_c, 9, 53, 100
1, 13458, Note_on_c, 4, 47, 0
1, 13460, Note_on_c, 9, 54, 0
1, 13470, Note_on_c, 9, 54, 55
1, 13470, Note_on_c, 4, 47, 100
1, 13480, Note_on_c, 9, 35, 0
1, 13490, Note_on_c, 9, 54, 0
1, 13496, Note_on_c, 4, 47, 0
1, 13500, Note_on_c, 4, 35, 100
1, 13500, Note_on_c, 9, 54, 55
1, 13518, Note_on_c, 1, 52, 0
1, 13518, Note_on_c, 0, 69, 0
1, 13518, Note_on_c, 1, 61, 0
1, 13518, Note_on_c, 1, 57, 0
1, 13520, Note_on_c, 9, 53, 0
1, 13520, Note_on_c, 9, 54, 0
1, 13528, Note_on_c, 2, 52, 0
1, 13528, Note_on_c, 2, 61, 0
1, 13528, Note_on_c, 2, 57, 0
1, 13530, Note_on_c, 2, 62, 100
1, 13530, Note_on_c, 9, 54, 55
1, 13530, Note_on_c, 1, 62, 85
1, 13530, Note_on_c, 0, 71, 100
1, 13530, Note_on_c, 2, 54, 100
1, 13530, Note_on_c, 1, 59, 85
1, 13530, Note_on_c, 2, 59, 100
1, 13530, Note_on_c, 1, 54, 85
1, 13550, Note_on_c, 9, 54, 0
1, 13552, Note_on_c, 4, 35, 0
1, 13560, Note_on_c, 9, 38, 100
1, 13560, Note_on_c, 9, 53, 100
1, 13560, Note_on_c, 4, 47, 100
1, 13560, Note_on_c, 9, 54, 55
1, 13580, Note_on_c, 9, 54, 0
1, 13582, Note_on_c, 0, 71, 0
1, 13590, Note_on_c, 0, 71, 100
1, 13590, Note_on_c, 9, 54, 55
1, 13600, Note_on_c, 9, 38, 0
1, 13610, Note_on_c, 9, 54, 0
1, 13616, Note_on_c, 0, 71, 0
1, 13620, Note_on_c, 9, 54, 55
1, 13620, Note_on_c, 9, 35, 100
1, 13620, Note_on_c, 0, 71, 100
1, 13634, Note_on_c, 1, 62, 0
1, 13634, Note_on_c, 1, 54, 0
1, 13634, Note_on_c, 1, 59, 0
1, 13638, Note_on_c, 4, 47, 0
1, 13640, Note_on_c, 9, 54, 0
1, 13640, Note_on_c, 9, 53, 0
1, 13650, Note_on_c, 9, 54, 55
1, 13650, Note_on_c, 4, 45, 100
1, 13660, Note_on_c, 9, 35, 0
1, 13670, Note_on_c, 9, 54, 0
1, 13672, Note_on_c, 0, 71, 0
1, 13676, Note_on_c, 4, 45, 0
1, 13678, Note_on_c, 2, 59, 0
1, 13678, Note_on_c, 2, 62, 0
1, 13678, Note_on_c, 2, 54, 0
1, 13680, Note_on_c, 1, 62, 85
1, 13680, Note_on_c, 2, 57, 100
1, 13680, Note_on_c, 1, 54, 85
1, 13680, Note_on_c, 2, 62, 100
1, 13680, Note_on_c, 9, 54, 55
1, 13680, Note_on_c, 9, 53, 100
1, 13680, Note_on_c, 0, 69, 100
1, 13680, Note_on_c, 2, 54, 100
1, 13680, Note_on_c, 4, 38, 100
1, 13680, Note_on_c, 1, 57, 85
1, 13700, Note_on_c, 9, 54, 0
1, 13710, Note_on_c, 9, 54, 55
1, 13730, Note_on_c, 9, 54, 0
1, 13732, Note_on_c, 0, 69, 0
1, 13740, Note_on_c, 9, 54, 55
1, 13740, Note_on_c, 9, 35, 100
1, 13740, Note_on_c, 0, 69, 100
1, 13758, Note_on_c, 4, 38, 0
1, 13760, Note_on_c, 9, 54, 0
1, 13760, Note_on_c, 9, 53, 0
1, 13770, Note_on_c, 9, 54, 55
1, 13770, Note_on_c, 4, 47, 100
1, 13780, Note_on_c, 9, 35, 0
1, 13784, Note_on_c, 1, 54, 0
1, 13784, Note_on_c, 1, 57, 0
1, 13784, Note_on_c, 1, 62, 0
1, 13790, Note_on_c, 9, 54, 0
1, 13792, Note_on_c, 0, 69, 0
1, 13796, Note_on_c, 4, 47, 0
1, 13798, Note_on_c, 2, 54, 0
1, 13798, Note_on_c, 2, 57, 0
1, 13798, Note_on_c, 2, 62, 0
1, 13800, Note_on_c, 1, 64, 85
1, 13800, Note_on_c, 9, 53, 100
1, 13800, Note_on_c, 1, 59, 85
1, 13800, Note_on_c, 2, 56, 100
1, 13800, Note_on_c, 1, 56, 85
1, 13800, Note_on_c, 0, 71, 100
1, 13800, Note_on_c, 2, 59, 100
1, 13800, Note_on_c, 9, 38, 100
1, 13800, Note_on_c, 9, 54, 55
1, 13800, Note_on_c, 2, 64, 100
1, 13800, Note_on_c, 4, 40, 100
1, 13820, Note_on_c, 9, 54, 0
1, 13830, Note_on_c, 9, 54, 55
1, 13840, Note_on_c, 9, 38, 0
1, 13850, Note_on_c, 9, 54, 0
1, 13860, Note_on_c, 9, 54, 55
1, 13878, Note_on_c, 4, 40, 0
1, 13880, Note_on_c, 9, 54, 0
1, 13880, Note_on_c, 9, 53, 0
1, 13890, Note_on_c, 9, 54, 55
1, 13890, Note_on_c, 4, 47, 100
1, 13904, Note_on_c, 1, 56, 0
1, 13904, Note_on_c, 1, 64, 0
1, 13904, Note_on_c, 0, 71, 0
1, 13904, Note_on_c, 1, 59, 0
1, 13910, Note_on_c, 9, 54, 0
1, 13916, Note_on_c, 4, 47, 0
1, 13918, Note_on_c, 2, 64, 0
1, 13918, Note_on_c, 2, 59, 0
1, 13918, Note_on_c, 2, 56, 0
1, 13920, Note_on_c, 9, 53, 100
1, 13920, Note_on_c, 4, 35, 100
1, 13920, Note_on_c, 9, 35, 100
1, 13920, Note_on_c, 9, 54, 55
1, 13940, Note_on_c, 9, 54, 0
1, 13950, Note_on_c, 9, 54, 55
1, 13960, Note_on_c, 9, 35, 0
1, 13970, Note_on_c, 9, 54, 0
1, 13972, Note_on_c, 4, 35, 0
1, 13980, Note_on_c, 4, 47, 100
1, 13980, Note_on_c, 2, 59, 100
1, 13980, Note_on_c, 2, 54, 100
1, 13980, Note_on_c, 1, 54, 85
1, 13980, Note_on_c, 0, 74, 100
1, 13980, Note_on_c, 1, 59, 85
1, 13980, Note_on_c, 2, 64, 100
1, 13980, Note_on_c, 1, 62, 85
1, 13980, Note_on_c, 9, 54, 55
1, 14000, Note_on_c, 9, 54, 0
1, 14000, Note_on_c, 9, 53, 0
1, 14010, Note_on_c, 9, 54, 55
1, 14030, Note_on_c, 9, 54, 0
1, 14032, Note_on_c, 0, 74, 0
1, 14040, Note_on_c, 9, 53, 100
1, 14040, Note_on_c, 0, 74, 100
1, 14040, Note_on_c, 9, 54, 55
1, 14040, Note_on_c, 9, 38, 100
1, 14058, Note_on_c, 4, 47, 0
1, 14060, Note_on_c, 9, 54, 0
1, 14070, Note_on_c, 4, 47, 100
1, 14070, Note_on_c, 9, 54, 55
1, 14080, Note_on_c, 9, 38, 0
1, 14090, Note_on_c, 9, 54, 0
1, 14096, Note_on_c, 4, 47, 0
1, 14100, Note_on_c, 9, 54, 55
1, 14100, Note_on_c, 4, 35, 100
1, 14100, Note_on_c, 9, 35, 100
1, 14120, Note_on_c, 9, 54, 0
1, 14120, Note_on_c, 9, 53, 0
1, 14130, Note_on_c, 9, 54, 55
1, 14136, Note_on_c, 1, 62, 0
1, 14136, Note_on_c, 1, 54, 0
1, 14136, Note_on_c, 1, 59, 0
1, 14140, Note_on_c, 9, 35, 0
1, 14144, Note_on_c, 0, 74, 0
1, 14150, Note_on_c, 9, 54, 0
1, 14152, Note_on_c, 4, 35, 0
1, 14160, Note_on_c, 2, 54, 0
1, 14160, Note_on_c, 2, 64, 0
1, 14160, Note_on_c, 2, 59, 0
1, 14160, Note_on_c, 0, 73, 100
1, 14160, Note_on_c, 9, 54, 55
1, 14160, Note_on_c, 9, 53, 100
1, 14160, Note_on_c, 2, 52, 100
1, 14160, Note_on_c, 1, 52, 85
1, 14160, Note_on_c, 1, 61, 85
1, 14160, Note_on_c, 1, 57, 85
1, 14160, Note_on_c, 2, 57, 100
1, 14160, Note_on_c, 4, 47, 100
1, 14160, Note_on_c, 2, 61, 100
1, 14180, Note_on_c, 9, 54, 0
1, 14190, Note_on_c, 9, 54, 55
1, 14210, Note_on_c, 9, 54, 0
1, 14212, Note_on_c, 0, 73, 0
1, 14220, Note_on_c, 9, 35, 100
1, 14220, Note_on_c, 9, 54, 55
1, 14220, Note_on_c, 0, 73, 100
1, 14238, Note_on_c, 1, 52, 0
1, 14238, Note_on_c, 4, 47, 0
1, 14238, Note_on_c, 1, 57, 0
1, 14238, Note_on_c, 1, 61, 0
1, 14240, Note_on_c, 9, 54, 0
1, 14240, Note_on_c, 9, 53, 0
1, 14246, Note_on_c, 0, 73, 0
1, 14248, Note_on_c, 2, 52, 0
1, 14248, Note_on_c, 2, 61, 0
1, 14248, Note_on_c, 2, 57, 0
1, 14250, Note_on_c, 4, 47, 100
1, 14250, Note_on_c, 0, 71, 100
1, 14250, Note_on_c, 2, 59, 100
1, 14250, Note_on_c, 2, 62, 100
1, 14250, Note_on_c, 1, 54, 85
1, 14250, Note_on_c, 1, 62, 85
1, 14250, Note_on_c, 1, 59, 85
1, 14250, Note_on_c, 9, 54, 55
1, 14250, Note_on_c, 2, 54, 100
1, 14260, Note_on_c, 9, 35, 0
1, 14270, Note_on_c, 9, 54, 0
1, 14276, Note_on_c, 4, 47, 0
1, 14280, Note_on_c, 9, 53, 100
1, 14280, Note_on_c, 9, 54, 55
1, 14280, Note_on_c, 9, 38, 100
1, 14280, Note_on_c, 4, 35, 100
1, 14300, Note_on_c, 9, 54, 0
1, 14310, Note_on_c, 9, 54, 55
1, 14320, Note_on_c, 9, 38, 0
1, 14330, Note_on_c, 9, 54, 0
1, 14332, Note_on_c, 4, 35, 0
1, 14340, Note_on_c, 4, 47, 100
1, 14340, Note_on_c, 9, 43, 100
1, 14340, Note_on_c, 9, 54, 55
1, 14354, Note_on_c, 1, 59, 0
1, 14354, Note_on_c, 1, 62, 0
1, 14354, Note_on_c, 0, 71, 0
1, 14354, Note_on_c, 1, 54, 0
1, 14360, Note_on_c, 9, 54, 0
1, 14360, Note_on_c, 9, 43, 0
1, 14360, Note_on_c, 9, 53, 0
1, 14370, Note_on_c, 9, 54, 55
1, 14370, Note_on_c, 9, 43, 100
1, 14370, Note_on_c, 0, 71, 100
1, 14390, Note_on_c, 9, 43, 0
1, 14390, Note_on_c, 9, 54, 0
1, 14396, Note_on_c, 0, 71, 0
1, 14398, Note_on_c, 2, 54, 0
1, 14398, Note_on_c, 2, 59, 0
1, 14398, Note_on_c, 2, 62, 0
1, 14400, Note_on_c, 9, 35, 100
1, 14400, Note_on_c, 1, 66, 100
1, 14400, Note_on_c, 1, 62, 100
1, 14400, Note_on_c, 0, 78, 100
1, 14400, Note_on_c, 9, 53, 100
1, 14400, Note_on_c, 1, 57, 100
1, 14400, Note_on_c, 9, 49, 100
1, 14400, Note_on_c, 9, 54, 55
1, 14400, Note_on_c, 2, 62, 100
1, 14400, Note_on_c, 2, 66, 100
1, 14400, Note_on_c, 2, 57, 100
1, 14400, Note_on_c, 4, 38, 100
1, 14418, Note_on_c, 4, 47, 0
1, 14420, Note_on_c, 9, 54, 0
1, 14426, Note_on_c, 0, 78, 0
1, 14430, Note_on_c, 0, 76, 100
1, 14430, Note_on_c, 9, 54, 55
1, 14440, Note_on_c, 9, 35, 0
1, 14450, Note_on_c, 9, 54, 0
1, 14460, Note_on_c, 9, 54, 55
1, 14480, Note_on_c, 9, 54, 0
1, 14480, Note_on_c, 9, 49, 0
1, 14480, Note_on_c, 9, 53, 0
1, 14482, Note_on_c, 0, 76, 0
1, 14490, Note_on_c, 9, 54, 55
1, 14490, Note_on_c, 0, 76, 100
1, 14504, Note_on_c, 1, 66, 0
1, 14504, Note_on_c, 1, 62, 0
1, 14504, Note_on_c, 4, 38, 0
1, 14504, Note_on_c, 1, 57, 0
1, 14510, Note_on_c, 9, 54, 0
1, 14518, Note_on_c, 2, 57, 0
1, 14518, Note_on_c, 2, 66, 0
1, 14518, Note_on_c, 2, 62, 0
1, 14520, Note_on_c, 9, 54, 55
1, 14520, Note_on_c, 4, 42, 100
1, 14520, Note_on_c, 9, 49, 100
1, 14520, Note_on_c, 2, 61, 100
1, 14520, Note_on_c, 1, 69, 100
1, 14520, Note_on_c, 2, 69, 100
1, 14520, Note_on_c, 9, 38, 100
1, 14520, Note_on_c, 2, 66, 100
1, 14520, Note_on_c, 1, 61, 100
1, 14520, Note_on_c, 1, 66, 100
1, 14520, Note_on_c, 9, 53, 100
1, 14540, Note_on_c, 9, 54, 0
1, 14550, Note_on_c, 9, 54, 55
1, 14560, Note_on_c, 9, 38, 0
1, 14568, Note_on_c, 0, 76, 0
1, 14570, Note_on_c, 9, 54, 0
1, 14580, Note_on_c, 0, 76, 100
1, 14580, Note_on_c, 9, 35, 100
1, 14580, Note_on_c, 9, 54, 55
1, 14600, Note_on_c, 9, 54, 0
1, 14600, Note_on_c, 9, 49, 0
1, 14600, Note_on_c, 9, 53, 0
1, 14610, Note_on_c, 9, 54, 55
1, 14620, Note_on_c, 9, 35, 0
1, 14624, Note_on_c, 4, 42, 0
1, 14624, Note_on_c, 1, 69, 0
1, 14624, Note_on_c, 1, 66, 0
1, 14624, Note_on_c, 1, 61, 0
1, 14630, Note_on_c, 9, 54, 0
1, 14638, Note_on_c, 2, 66, 0
1, 14638, Note_on_c, 2, 61, 0
1, 14638, Note_on_c, 2, 69, 0
1, 14640, Note_on_c, 1, 68, 100
1, 14640, Note_on_c, 2, 68, 100
1, 14640, Note_on_c, 1, 64, 100
1, 14640, Note_on_c, 1, 59, 100
1, 14640, Note_on_c, 9, 53, 100
1, 14640, Note_on_c, 9, 49, 100
1, 14640, Note_on_c, 2, 64, 100
1, 14640, Note_on_c, 2, 59, 100
1, 14640, Note_on_c, 4, 40, 100
1, 14640, Note_on_c, 9, 54, 55
1, 14660, Note_on_c, 9, 54, 0
1, 14670, Note_on_c, 9, 54, 55
1, 14690, Note_on_c, 9, 54, 0
1, 14700, Note_on_c, 9, 54, 55
1, 14700, Note_on_c, 9, 35, 100
1, 14720, Note_on_c, 9, 54, 0
1, 14720, Note_on_c, 9, 49, 0
1, 14720, Note_on_c, 9, 53, 0
1, 14730, Note_on_c, 9, 54, 55
1, 14740, Note_on_c, 9, 35, 0
1, 14750, Note_on_c, 9, 54, 0
1, 14760, Note_on_c, 9, 54, 55
1, 14760, Note_on_c, 9, 53, 100
1, 14760, Note_on_c, 9, 38, 100
1, 14780, Note_on_c, 9, 54, 0
1, 14788, Note_on_c, 0, 76, 0
1, 14790, Note_on_c, 9, 54, 55
1, 14796, Note_on_c, 4, 40, 0
1, 14800, Note_on_c, 9, 38, 0
1, 14810, Note_on_c, 9, 54, 0
1, 14820, Note_on_c, 3, 64, 100
1, 14820, Note_on_c, 4, 40, 100
1, 14820, Note_on_c, 9, 54, 55
1, 14820, Note_on_c, 9, 45, 100
1, 14840, Note_on_c, 9, 54, 0
1, 14840, Note_on_c, 9, 53, 0
1, 14846, Note_on_c, 3, 64, 0
1, 14848, Note_on_c, 1, 68, 0
1, 14848, Note_on_c, 1, 64, 0
1, 14848, Note_on_c, 1, 59, 0
1, 14850, Note_on_c, 3, 66, 100
1, 14850, Note_on_c, 9, 54, 55
1, 14860, Note_on_c, 9, 45, 0
1, 14870, Note_on_c, 9, 54, 0
1, 14872, Note_on_c, 4, 40, 0
1, 14876, Note_on_c, 3, 66, 0
1, 14878, Note_on_c, 2, 64, 0
1, 14878, Note_on_c, 2, 59, 0
1, 14878, Note_on_c, 2, 68, 0
1, 14880, Note_on_c, 9, 35, 100
1, 14880, Note_on_c, 3, 68, 100
1, 14880, Note_on_c, 9, 53, 100
1, 14880, Note_on_c, 9, 49, 100
1, 14880, Note_on_c, 9, 54, 55
1, 14880, Note_on_c, 2, 68, 100
1, 14880, Note_on_c, 2, 64, 100
1, 14880, Note_on_c, 2, 59, 100
1, 14880, Note_on_c, 4, 35, 100
1, 14920, Note_on_c, 9, 54, 0
1, 14920, Note_on_c, 9, 35, 0
1, 14940, Note_on_c, 9, 54, 55
1, 14946, Note_on_c, 3, 68, 0
1, 14958, Note_on_c, 4, 35, 0
1, 14960, Note_on_c, 9, 53, 0
1, 14968, Note_on_c, 2, 68, 0
1, 14968, Note_on_c, 2, 59, 0
1, 14968, Note_on_c, 2, 64, 0
1, 14970, Note_on_c, 3, 69, 100
1, 14970, Note_on_c, 9, 38, 100
1, 14970, Note_on_c, 2, 62, 100
1, 14970, Note_on_c, 2, 69, 100
1, 14970, Note_on_c, 2, 66, 100
1, 14970, Note_on_c, 4, 42, 100
1, 14980, Note_on_c, 9, 54, 0
1, 15000, Note_on_c, 9, 53, 100
1, 15000, Note_on_c, 9, 54, 55
1, 15010, Note_on_c, 9, 38, 0
1, 15036, Note_on_c, 3, 69, 0
1, 15040, Note_on_c, 9, 54, 0
1, 15040, Note_on_c, 9, 49, 0
1, 15048, Note_on_c, 4, 42, 0
1, 15058, Note_on_c, 2, 62, 0
1, 15058, Note_on_c, 2, 66, 0
1, 15058, Note_on_c, 2, 69, 0
1, 15060, Note_on_c, 2, 68, 100
1, 15060, Note_on_c, 2, 64, 100
1, 15060, Note_on_c, 9, 35, 100
1, 15060, Note_on_c, 9, 54, 55
1, 15060, Note_on_c, 3, 71, 100
1, 15060, Note_on_c, 4, 45, 100
1, 15060, Note_on_c, 2, 61, 100
1, 15080, Note_on_c, 9, 53, 0
1, 15100, Note_on_c, 9, 54, 0
1, 15100, Note_on_c, 9, 35, 0
1, 15110, Note_on_c, 3, 71, 0
1, 15112, Note_on_c, 4, 45, 0
1, 15118, Note_on_c, 2, 61, 0
1, 15118, Note_on_c, 2, 64, 0
1, 15118, Note_on_c, 2, 68, 0
1, 15120, Note_on_c, 9, 53, 100
1, 15120, Note_on_c, 2, 69, 100
1, 15120, Note_on_c, 2, 66, 100
1, 15120, Note_on_c, 9, 54, 55
1, 15120, Note_on_c, 3, 69, 100
1, 15120, Note_on_c, 4, 47, 100
1, 15120, Note_on_c, 2, 62, 100
1, 15160, Note_on_c, 9, 54, 0
1, 15180, Note_on_c, 9, 35, 100
1, 15180, Note_on_c, 9, 54, 55
1, 15200, Note_on_c, 9, 53, 0
1, 15219, Note_on_c, 3, 69, 0
1, 15220, Note_on_c, 9, 54, 0
1, 15220, Note_on_c, 9, 35, 0
1, 15224, Note_on_c, 4, 47, 0
1, 15238, Note_on_c, 2, 69, 0
1, 15238, Note_on_c, 2, 66, 0
1, 15238, Note_on_c, 2, 62, 0
1, 15240, Note_on_c, 9, 38, 100
1, 15240, Note_on_c, 9, 53, 100
1, 15240, Note_on_c, 9, 54, 55
1, 15240, Note_on_c, 2, 59, 100
1, 15240, Note_on_c, 4, 45, 100
1, 15240, Note_on_c, 3, 68, 100
1, 15240, Note_on_c, 2, 64, 100
1, 15240, Note_on_c, 2, 68, 100
1, 15280, Note_on_c, 9, 54, 0
1, 15280, Note_on_c, 9, 38, 0
1, 15300, Note_on_c, 9, 54, 55
1, 15320, Note_on_c, 9, 53, 0
1, 15339, Note_on_c, 3, 68, 0
1, 15340, Note_on_c, 9, 54, 0
1, 15344, Note_on_c, 4, 45, 0
1, 15358, Note_on_c, 2, 68, 0
1, 15358, Note_on_c, 2, 59, 0
1, 15358, Note_on_c, 2, 64, 0
1, 15360, Note_on_c, 9, 35, 100
1, 15360, Note_on_c, 2, 57, 100
1, 15360, Note_on_c, 2, 61, 100
1, 15360, Note_on_c, 3, 64, 100
1, 15360, Note_on_c, 2, 64, 100
1, 15360, Note_on_c, 4, 37, 100
1, 15360, Note_on_c, 9, 54, 55
1, 15360, Note_on_c, 9, 53, 100
1, 15400, Note_on_c, 9, 54, 0
1, 15400, Note_on_c, 9, 35, 0
1, 15420, Note_on_c, 9, 54, 55
1, 15426, Note_on_c, 3, 64, 0
1, 15438, Note_on_c, 4, 37, 0
1, 15440, Note_on_c, 9, 53, 0
1, 15448, Note_on_c, 2, 64, 0
1, 15448, Note_on_c, 2, 57, 0
1, 15448, Note_on_c, 2, 61, 0
1, 15450, Note_on_c, 2, 59, 100
1, 15450, Note_on_c, 2, 62, 100
1, 15450, Note_on_c, 3, 62, 100
1, 15450, Note_on_c, 4, 35, 100
1, 15450, Note_on_c, 2, 54, 100
1, 15460, Note_on_c, 9, 54, 0
1, 15480, Note_on_c, 9, 54, 55
1, 15480, Note_on_c, 9, 38, 100
1, 15480, Note_on_c, 9, 53, 100
1, 15516, Note_on_c, 3, 62, 0
1, 15520, Note_on_c, 9, 38, 0
1, 15520, Note_on_c, 9, 54, 0
1, 15528, Note_on_c, 4, 35, 0
1, 15538, Note_on_c, 2, 62, 0
1, 15538, Note_on_c, 2, 59, 0
1, 15538, Note_on_c, 2, 54, 0
1, 15540, Note_on_c, 4, 42, 100
1, 15540, Note_on_c, 2, 52, 100
1, 15540, Note_on_c, 2, 61, 100
1, 15540, Note_on_c, 2, 57, 100
1, 15540, Note_on_c, 3, 61, 100
1, 15540, Note_on_c, 9, 35, 100
1, 15540, Note_on_c, 9, 54, 55
1, 15560, Note_on_c, 9, 53, 0
1, 15580, Note_on_c, 9, 54, 0
1, 15580, Note_on_c, 9, 35, 0
1, 15590, Note_on_c, 3, 61, 0
1, 15592, Note_on_c, 4, 42, 0
1, 15598, Note_on_c, 2, 61, 0
1, 15598, Note_on_c, 2, 52, 0
1, 15598, Note_on_c, 2, 57, 0
1, 15600, Note_on_c, 4, 35, 100
1, 15600, Note_on_c, 2, 59, 100
1, 15600, Note_on_c, 3, 62, 100
1, 15600, Note_on_c, 2, 62, 100
1, 15600, Note_on_c, 9, 54, 55
1, 15600, Note_on_c, 9, 53, 100
1, 15600, Note_on_c, 2, 54, 100
1, 15640, Note_on_c, 9, 54, 0
1, 15660, Note_on_c, 9, 35, 100
1, 15660, Note_on_c, 9, 54, 55
1, 15680, Note_on_c, 9, 53, 0
1, 15700, Note_on_c, 9, 54, 0
1, 15700, Note_on_c, 9, 35, 0
1, 15720, Note_on_c, 9, 53, 100
1, 15720, Note_on_c, 9, 38, 100
1, 15720, Note_on_c, 9, 54, 55
1, 15750, Note_on_c, 3, 62, 0
1, 15756, Note_on_c, 4, 35, 0
1, 15760, Note_on_c, 9, 54, 0
1, 15760, Note_on_c, 9, 38, 0
1, 15778, Note_on_c, 2, 62, 0
1, 15778, Note_on_c, 2, 54, 0
1, 15778, Note_on_c, 2, 59, 0
1, 15780, Note_on_c, 9, 54, 55
1, 15780, Note_on_c, 4, 40, 100
1, 15780, Note_on_c, 3, 64, 100
1, 15800, Note_on_c, 9, 53, 0
1, 15806, Note_on_c, 3, 64, 0
1, 15806, Note_on_c, 4, 40, 0
1, 15810, Note_on_c, 3, 66, 100
1, 15810, Note_on_c, 4, 35, 100
1, 15820, Note_on_c, 9, 54, 0
1, 15836, Note_on_c, 4, 35, 0
1, 15836, Note_on_c, 3, 66, 0
1, 15840, Note_on_c, 4, 35, 100
1, 15840, Note_on_c, 9, 54, 55
1, 15840, Note_on_c, 9, 53, 100
1, 15840, Note_on_c, 9, 35, 100
1, 15840, Note_on_c, 2, 59, 100
1, 15840, Note_on_c, 9, 49, 100
1, 15840, Note_on_c, 2, 64, 100
1, 15840, Note_on_c, 3, 68, 100
1, 15840, Note_on_c, 2, 68, 100
1, 15880, Note_on_c, 9, 35, 0
1, 15880, Note_on_c, 9, 54, 0
1, 15900, Note_on_c, 9, 54, 55
1, 15906, Note_on_c, 3, 68, 0
1, 15918, Note_on_c, 4, 35, 0
1, 15920, Note_on_c, 9, 53, 0
1, 15928, Note_on_c, 2, 68, 0
1, 15928, Note_on_c, 2, 59, 0
1, 15928, Note_on_c, 2, 64, 0
1, 15930, Note_on_c, 2, 62, 100
1, 15930, Note_on_c, 3, 69, 100
1, 15930, Note_on_c, 4, 42, 100
1, 15930, Note_on_c, 2, 66, 100
1, 15930, Note_on_c, 9, 38, 100
1, 15930, Note_on_c, 2, 69, 100
1, 15940, Note_on_c, 9, 54, 0
1, 15960, Note_on_c, 9, 53, 100
1, 15960, Note_on_c, 9, 54, 55
1, 15970, Note_on_c, 9, 38, 0
1, 15996, Note_on_c, 3, 69, 0
1, 16000, Note_on_c, 9, 49, 0
1, 16000, Note_on_c, 9, 54, 0
1, 16008, Note_on_c, 4, 42, 0
1, 16018, Note_on_c, 2, 66, 0
1, 16018, Note_on_c, 2, 62, 0
1, 16018, Note_on_c, 2, 69, 0
1, 16020, Note_on_c, 9, 54, 55
1, 16020, Note_on_c, 4, 45, 100
1, 16020, Note_on_c, 9, 35, 100
1, 16020, Note_on_c, 2, 68, 100
1, 16020, Note_on_c, 2, 64, 100
1, 16020, Note_on_c, 2, 61, 100
1, 16020, Note_on_c, 3, 71, 100
1, 16040, Note_on_c, 9, 53, 0
1, 16060, Note_on_c, 9, 35, 0
1, 16060, Note_on_c, 9, 54, 0
1, 16070, Note_on_c, 3, 71, 0
1, 16072, Note_on_c, 4, 45, 0
1, 16078, Note_on_c, 2, 61, 0
1, 16078, Note_on_c, 2, 68, 0
1, 16078, Note_on_c, 2, 64, 0
1, 16080, Note_on_c, 3, 69, 100
1, 16080, Note_on_c, 9, 53, 100
1, 16080, Note_on_c, 2, 62, 100
1, 16080, Note_on_c, 2, 69, 100
1, 16080, Note_on_c, 2, 66, 100
1, 16080, Note_on_c, 9, 54, 55
1, 16080, Note_on_c, 4, 47, 100
1, 16120, Note_on_c, 9, 54, 0
1, 16140, Note_on_c, 9, 35, 100
1, 16140, Note_on_c, 9, 54, 55
1, 16160, Note_on_c, 9, 53, 0
1, 16179, Note_on_c, 3, 69, 0
1, 16180, Note_on_c, 9, 54, 0
1, 16180, Note_on_c, 9, 35, 0
1, 16184, Note_on_c, 4, 47, 0
1, 16198, Note_on_c, 2, 69, 0
1, 16198, Note_on_c, 2, 62, 0
1, 16198, Note_on_c, 2, 66, 0
1, 16200, Note_on_c, 9, 53, 100
1, 16200, Note_on_c, 9, 38, 100
1, 16200, Note_on_c, 2, 59, 100
1, 16200, Note_on_c, 2, 68, 100
1, 16200, Note_on_c, 3, 68, 100
1, 16200, Note_on_c, 4, 45, 100
1, 16200, Note_on_c, 9, 54, 55
1, 16200, Note_on_c, 2, 64, 100
1, 16240, Note_on_c, 9, 54, 0
1, 16240, Note_on_c, 9, 38, 0
1, 16260, Note_on_c, 9, 54, 55
1, 16280, Note_on_c, 9, 53, 0
1, 16299, Note_on_c, 3, 68, 0
1, 16300, Note_on_c, 9, 54, 0
1, 16304, Note_on_c, 4, 45, 0
1, 16318, Note_on_c, 2, 64, 0
1, 16318, Note_on_c, 2, 59, 0
1, 16318, Note_on_c, 2, 68, 0
1, 16320, Note_on_c, 2, 64, 100
1, 16320, Note_on_c, 9, 53, 100
1, 16320, Note_on_c, 9, 35, 100
1, 16320, Note_on_c, 9, 54, 55
1, 16320, Note_on_c, 4, 37, 100
1, 16320, Note_on_c, 2, 61, 100
1, 16320, Note_on_c, 2, 57, 100
1, 16320, Note_on_c, 3, 64, 100
1, 16360, Note_on_c, 9, 54, 0
1, 16360, Note_on_c, 9, 35, 0
1, 16380, Note_on_c, 9, 54, 55
1, 16386, Note_on_c, 3, 64, 0
1, 16398, Note_on_c, 4, 37, 0
1, 16400, Note_on_c, 9, 53, 0
1, 16408, Note_on_c, 2, 57, 0
1, 16408, Note_on_c, 2, 64, 0
1, 16408, Note_on_c, 2, 61, 0
1, 16410, Note_on_c, 2, 59, 100
1, 16410, Note_on_c, 3, 62, 100
1, 16410, Note_on_c, 2, 62, 100
1, 16410, Note_on_c, 2, 54, 100
1, 16410, Note_on_c, 4, 42, 100
1, 16420, Note_on_c, 9, 54, 0
1, 16440, Note_on_c, 9, 38, 100
1, 16440, Note_on_c, 9, 53, 100
1, 16440, Note_on_c, 9, 54, 55
1, 16476, Note_on_c, 3, 62, 0
1, 16480, Note_on_c, 9, 54, 0
1, 16480, Note_on_c, 9, 38, 0
1, 16488, Note_on_c, 4, 42, 0
1, 16498, Note_on_c, 2, 62, 0
1, 16498, Note_on_c, 2, 54, 0
1, 16498, Note_on_c, 2, 59, 0
1, 16500, Note_on_c, 9, 35, 100
1, 16500, Note_on_c, 4, 38, 100
1, 16500, Note_on_c, 9, 54, 55
1, 16500, Note_on_c, 2, 61, 100
1, 16500, Note_on_c, 2, 57, 100
1, 16500, Note_on_c, 3, 61, 100
1, 16500, Note_on_c, 2, 52, 100
1, 16520, Note_on_c, 9, 53, 0
1, 16540, Note_on_c, 9, 54, 0
1, 16540, Note_on_c, 9, 35, 0
1, 16550, Note_on_c, 3, 61, 0
1, 16552, Note_on_c, 4, 38, 0
1, 16558, Note_on_c, 2, 52, 0
1, 16558, Note_on_c, 2, 57, 0
1, 16558, Note_on_c, 2, 61, 0
1, 16560, Note_on_c, 4, 40, 100
1, 16560, Note_on_c, 3, 59, 100
1, 16560, Note_on_c, 2, 54, 100
1, 16560, Note_on_c, 9, 53, 100
1, 16560, Note_on_c, 9, 54, 55
1, 16560, Note_on_c, 2, 59, 100
1, 16600, Note_on_c, 9, 54, 0
1, 16620, Note_on_c, 9, 35, 100
1, 16620, Note_on_c, 9, 54, 55
1, 16640, Note_on_c, 9, 53, 0
1, 16660, Note_on_c, 9, 35, 0
1, 16660, Note_on_c, 9, 54, 0
1, 16680, Note_on_c, 9, 38, 100
1, 16680, Note_on_c, 9, 53, 100
1, 16680, Note_on_c, 9, 54, 55
1, 16710, Note_on_c, 3, 59, 0
1, 16716, Note_on_c, 4, 40, 0
1, 16720, Note_on_c, 9, 38, 0
1, 16720, Note_on_c, 9, 54, 0
1, 16738, Note_on_c, 2, 54, 0
1, 16738, Note_on_c, 2, 59, 0
1, 16740, Note_on_c, 9, 54, 55
1, 16740, Note_on_c, 4, 40, 100
1, 16740, Note_on_c, 3, 64, 100
1, 16760, Note_on_c, 9, 53, 0
1, 16766, Note_on_c, 3, 64, 0
1, 16770, Note_on_c, 3, 66, 100
1, 16780, Note_on_c, 9, 54, 0
1, 16792, Note_on_c, 4, 40, 0
1, 16796, Note_on_c, 3, 66, 0
1, 16800, Note_on_c, 3, 68, 100
1, 16800, Note_on_c, 4, 35, 100
1, 16800, Note_on_c, 9, 49, 100
1, 16800, Note_on_c, 9, 53, 100
1, 16800, Note_on_c, 9, 54, 55
1, 16800, Note_on_c, 2, 68, 100
1, 16800, Note_on_c, 2, 64, 100
1, 16800, Note_on_c, 2, 59, 100
1, 16800, Note_on_c, 9, 35, 100
1, 16840, Note_on_c, 9, 35, 0
1, 16840, Note_on_c, 9, 54, 0
1, 16860, Note_on_c, 9, 54, 55
1, 16866, Note_on_c, 3, 68, 0
1, 16878, Note_on_c, 4, 35, 0
1, 16880, Note_on_c, 9, 53, 0
1, 16888, Note_on_c, 2, 68, 0
1, 16888, Note_on_c, 2, 59, 0
1, 16888, Note_on_c, 2, 64, 0
1, 16890, Note_on_c, 3, 69, 100
1, 16890, Note_on_c, 2, 62, 100
1, 16890, Note_on_c, 4, 42, 100
1, 16890, Note_on_c, 9, 38, 100
1, 16890, Note_on_c, 2, 66, 100
1, 16890, Note_on_c, 2, 69, 100
1, 16900, Note_on_c, 9, 54, 0
1, 16920, Note_on_c, 9, 53, 100
1, 16920, Note_on_c, 9, 54, 55
1, 16930, Note_on_c, 9, 38, 0
1, 16956, Note_on_c, 3, 69, 0
1, 16960, Note_on_c, 9, 54, 0
1, 16960, Note_on_c, 9, 49, 0
1, 16968, Note_on_c, 4, 42, 0
1, 16978, Note_on_c, 2, 66, 0
1, 16978, Note_on_c, 2, 62, 0
1, 16978, Note_on_c, 2, 69, 0
1, 16980, Note_on_c, 9, 35, 100
1, 16980, Note_on_c, 3, 71, 100
1, 16980, Note_on_c, 9, 54, 55
1, 16980, Note_on_c, 2, 64, 100
1, 16980, Note_on_c, 4, 45, 100
1, 16980, Note_on_c, 2, 71, 100
1, 16980, Note_on_c, 2, 68, 100
1, 17000, Note_on_c, 9, 53, 0
1, 17020, Note_on_c, 9, 54, 0
1, 17020, Note_on_c, 9, 35, 0
1, 17030, Note_on_c, 3, 71, 0
1, 17032, Note_on_c, 4, 45, 0
1, 17038, Note_on_c, 2, 68, 0
1, 17038, Note_on_c, 2, 64, 0
1, 17038, Note_on_c, 2, 71, 0
1, 17040, Note_on_c, 3, 73, 100
1, 17040, Note_on_c, 2, 69, 100
1, 17040, Note_on_c, 4, 47, 100
1, 17040, Note_on_c, 2, 73, 100
1, 17040, Note_on_c, 2, 64, 100
1, 17040, Note_on_c, 2, 62, 100
1, 17040, Note_on_c, 9, 54, 55
1, 17040, Note_on_c, 9, 53, 100
1, 17080, Note_on_c, 9, 54, 0
1, 17100, Note_on_c, 9, 35, 100
1, 17100, Note_on_c, 9, 54, 55
1, 17120, Note_on_c, 9, 53, 0
1, 17139, Note_on_c, 3, 73, 0
1, 17140, Note_on_c, 9, 54, 0
1, 17140, Note_on_c, 9, 35, 0
1, 17144, Note_on_c, 4, 47, 0
1, 17158, Note_on_c, 2, 73, 0
1, 17158, Note_on_c, 2, 64, 0
1, 17158, Note_on_c, 2, 62, 0
1, 17158, Note_on_c, 2, 69, 0
1, 17160, Note_on_c, 9, 38, 100
1, 17160, Note_on_c, 2, 64, 100
1, 17160, Note_on_c, 3, 71, 100
1, 17160, Note_on_c, 2, 68, 100
1, 17160, Note_on_c, 4, 45, 100
1, 17160, Note_on_c, 2, 71, 100
1, 17160, Note_on_c, 9, 53, 100
1, 17160, Note_on_c, 9, 54, 55
1, 17160, Note_on_c, 2, 59, 100
1, 17200, Note_on_c, 9, 54, 0
1, 17200, Note_on_c, 9, 38, 0
1, 17220, Note_on_c, 9, 54, 55
1, 17240, Note_on_c, 9, 53, 0
1, 17259, Note_on_c, 3, 71, 0
1, 17260, Note_on_c, 9, 54, 0
1, 17264, Note_on_c, 4, 45, 0
1, 17278, Note_on_c, 2, 68, 0
1, 17278, Note_on_c, 2, 64, 0
1, 17278, Note_on_c, 2, 59, 0
1, 17278, Note_on_c, 2, 71, 0
1, 17280, Note_on_c, 3, 64, 100
1, 17280, Note_on_c, 2, 61, 100
1, 17280, Note_on_c, 2, 57, 100
1, 17280, Note_on_c, 2, 64, 100
1, 17280, Note_on_c, 9, 53, 100
1, 17280, Note_on_c, 9, 54, 55
1, 17280, Note_on_c, 9, 35, 100
1, 17280, Note_on_c, 4, 37, 100
1, 17320, Note_on_c, 9, 35, 0
1, 17320, Note_on_c, 9, 54, 0
1, 17340, Note_on_c, 9, 54, 55
1, 17346, Note_on_c, 3, 64, 0
1, 17358, Note_on_c, 4, 37, 0
1, 17360, Note_on_c, 9, 53, 0
1, 17368, Note_on_c, 2, 64, 0
1, 17368, Note_on_c, 2, 57, 0
1, 17368, Note_on_c, 2, 61, 0
1, 17370, Note_on_c, 2, 54, 100
1, 17370, Note_on_c, 2, 62, 100
1, 17370, Note_on_c, 2, 59, 100
1, 17370, Note_on_c, 4, 35, 100
1, 17370, Note_on_c, 3, 62, 100
1, 17380, Note_on_c, 9, 54, 0
1, 17400, Note_on_c, 9, 54, 55
1, 17400, Note_on_c, 9, 38, 100
1, 17400, Note_on_c, 9, 53, 100
1, 17436, Note_on_c, 3, 62, 0
1, 17440, Note_on_c, 9, 38, 0
1, 17440, Note_on_c, 9, 54, 0
1, 17448, Note_on_c, 4, 35, 0
1, 17458, Note_on_c, 2, 59, 0
1, 17458, Note_on_c, 2, 54, 0
1, 17458, Note_on_c, 2, 62, 0
1, 17460, Note_on_c, 9, 35, 100
1, 17460, Note_on_c, 2, 61, 100
1, 17460, Note_on_c, 9, 54, 55
1, 17460, Note_on_c, 3, 61, 100
1, 17460, Note_on_c, 2, 57, 100
1, 17460, Note_on_c, 2, 52, 100
1, 17460, Note_on_c, 4, 42, 100
1, 17480, Note_on_c, 9, 53, 0
1, 17500, Note_on_c, 9, 54, 0
1, 17500, Note_on_c, 9, 35, 0
1, 17510, Note_on_c, 3, 61, 0
1, 17512, Note_on_c, 4, 42, 0
1, 17518, Note_on_c, 2, 61, 0
1, 17518, Note_on_c, 2, 52, 0
1, 17518, Note_on_c, 2, 57, 0
1, 17520, Note_on_c, 2, 62, 100
1, 17520, Note_on_c, 9, 53, 100
1, 17520, Note_on_c, 2, 69, 100
1, 17520, Note_on_c, 3, 69, 100
1, 17520, Note_on_c, 2, 61, 100
1, 17520, Note_on_c, 2, 66, 100
1, 17520, Note_on_c, 4, 35, 100
1, 17520, Note_on_c, 9, 54, 55
1, 17560, Note_on_c, 9, 54, 0
1, 17580, Note_on_c, 9, 35, 100
1, 17580, Note_on_c, 9, 54, 55
1, 17600, Note_on_c, 9, 53, 0
1, 17620, Note_on_c, 9, 54, 0
1, 17620, Note_on_c, 9, 35, 0
1, 17640, Note_on_c, 9, 54, 55
1, 17640, Note_on_c, 9, 53, 100
1, 17640, Note_on_c, 9, 38, 100
1, 17670, Note_on_c, 3, 69, 0
1, 17676, Note_on_c, 4, 35, 0
1, 17680, Note_on_c, 9, 38, 0
1, 17680, Note_on_c, 9, 54, 0
1, 17698, Note_on_c, 2, 69, 0
1, 17698, Note_on_c, 2, 61, 0
1, 17698, Note_on_c, 2, 66, 0
1, 17698, Note_on_c, 2, 62, 0
1, 17700, Note_on_c, 9, 54, 55
1, 17700, Note_on_c, 3, 64, 100
1, 17700, Note_on_c, 4, 40, 100
1, 17720, Note_on_c, 9, 53, 0
1, 17726, Note_on_c, 4, 40, 0
1, 17726, Note_on_c, 3, 64, 0
1, 17730, Note_on_c, 3, 66, 100
1, 17730, Note_on_c, 4, 35, 100
1, 17740, Note_on_c, 9, 54, 0
1, 17756, Note_on_c, 4, 35, 0
1, 17756, Note_on_c, 3, 66, 0
1, 17760, Note_on_c, 9, 53, 100
1, 17760, Note_on_c, 9, 49, 100
1, 17760, Note_on_c, 9, 35, 100
1, 17760, Note_on_c, 4, 42, 100
1, 17760, Note_on_c, 9, 54, 55
1, 17760, Note_on_c, 2, 59, 100
1, 17760, Note_on_c, 2, 64, 100
1, 17760, Note_on_c, 3, 68, 100
1, 17760, Note_on_c, 2, 68, 100
1, 17800, Note_on_c, 9, 54, 0
1, 17800, Note_on_c, 9, 35, 0
1, 17820, Note_on_c, 9, 54, 55
1, 17826, Note_on_c, 3, 68, 0
1, 17838, Note_on_c, 4, 42, 0
1, 17840, Note_on_c, 9, 53, 0
1, 17848, Note_on_c, 2, 59, 0
1, 17848, Note_on_c, 2, 68, 0
1, 17848, Note_on_c, 2, 64, 0
1, 17850, Note_on_c, 9, 38, 100
1, 17850, Note_on_c, 3, 69, 100
1, 17850, Note_on_c, 2, 69, 100
1, 17850, Note_on_c, 2, 66, 100
1, 17850, Note_on_c, 2, 62, 100
1, 17850, Note_on_c, 4, 42, 100
1, 17860, Note_on_c, 9, 54, 0
1, 17880, Note_on_c, 9, 53, 100
1, 17880, Note_on_c, 9, 54, 55
1, 17890, Note_on_c, 9, 38, 0
1, 17916, Note_on_c, 3, 69, 0
1, 17920, Note_on_c, 9, 49, 0
1, 17920, Note_on_c, 9, 54, 0
1, 17928, Note_on_c, 4, 42, 0
1, 17938, Note_on_c, 2, 69, 0
1, 17938, Note_on_c, 2, 62, 0
1, 17938, Note_on_c, 2, 66, 0
1, 17940, Note_on_c, 2, 61, 100
1, 17940, Note_on_c, 9, 54, 55
1, 17940, Note_on_c, 2, 64, 100
1, 17940, Note_on_c, 9, 35, 100
1, 17940, Note_on_c, 2, 68, 100
1, 17940, Note_on_c, 3, 71, 100
1, 17940, Note_on_c, 4, 45, 100
1, 17960, Note_on_c, 9, 53, 0
1, 17980, Note_on_c, 9, 35, 0
1, 17980, Note_on_c, 9, 54, 0
1, 17990, Note_on_c, 3, 71, 0
1, 17992, Note_on_c, 4, 45, 0
1, 17998, Note_on_c, 2, 61, 0
1, 17998, Note_on_c, 2, 68, 0
1, 17998, Note_on_c, 2, 64, 0
1, 18000, Note_on_c, 3, 69, 100
1, 18000, Note_on_c, 2, 62, 100
1, 18000, Note_on_c, 2, 69, 100
1, 18000, Note_on_c, 2, 66, 100
1, 18000, Note_on_c, 4, 47, 100
1, 18000, Note_on_c, 9, 54, 55
1, 18000, Note_on_c, 9, 53, 100
1, 18040, Note_on_c, 9, 54, 0
1, 18060, Note_on_c, 9, 35, 100
1, 18060, Note_on_c, 9, 54, 55
1, 18080, Note_on_c, 9, 53, 0
1, 18099, Note_on_c, 3, 69, 0
1, 18100, Note_on_c, 9, 54, 0
1, 18100, Note_on_c, 9, 35, 0
1, 18104, Note_on_c, 4, 47, 0
1, 18118, Note_on_c, 2, 62, 0
1, 18118, Note_on_c, 2, 69, 0
1, 18118, Note_on_c, 2, 66, 0
1, 18120, Note_on_c, 9, 53, 100
1, 18120, Note_on_c, 2, 68, 100
1, 18120, Note_on_c, 9, 54, 55
1, 18120, Note_on_c, 9, 38, 100
1, 18120, Note_on_c, 2, 64, 100
1, 18120, Note_on_c, 2, 59, 100
1, 18120, Note_on_c, 3, 68, 100
1, 18120, Note_on_c, 4, 45, 100
1, 18160, Note_on_c, 9, 38, 0
1, 18160, Note_on_c, 9, 54, 0
1, 18180, Note_on_c, 9, 54, 55
1, 18200, Note_on_c, 9, 53, 0
1, 18219, Note_on_c, 3, 68, 0
1, 18220, Note_on_c, 9, 54, 0
1, 18224, Note_on_c, 4, 45, 0
1, 18238, Note_on_c, 2, 68, 0
1, 18238, Note_on_c, 2, 59, 0
1, 18238, Note_on_c, 2, 64, 0
1, 18240, Note_on_c, 3, 64, 100
1, 18240, Note_on_c, 4, 37, 100
1, 18240, Note_on_c, 9, 35, 100
1, 18240, Note_on_c, 2, 61, 100
1, 18240, Note_on_c, 2, 64, 100
1, 18240, Note_on_c, 2, 57, 100
1, 18240, Note_on_c, 9, 54, 55
1, 18240, Note_on_c, 9, 53, 100
1, 18280, Note_on_c, 9, 54, 0
1, 18280, Note_on_c, 9, 35, 0
1, 18300, Note_on_c, 9, 54, 55
1, 18306, Note_on_c, 3, 64, 0
1, 18318, Note_on_c, 4, 37, 0
1, 18320, Note_on_c, 9, 53, 0
1, 18328, Note_on_c, 2, 64, 0
1, 18328, Note_on_c, 2, 57, 0
1, 18328, Note_on_c, 2, 61, 0
1, 18330, Note_on_c, 2, 62, 100
1, 18330, Note_on_c, 2, 54, 100
1, 18330, Note_on_c, 4, 35, 100
1, 18330, Note_on_c, 2, 59, 100
1, 18330, Note_on_c, 3, 62, 100
1, 18340, Note_on_c, 9, 54, 0
1, 18360, Note_on_c, 9, 38, 100
1, 18360, Note_on_c, 9, 54, 55
1, 18360, Note_on_c, 9, 53, 100
1, 18396, Note_on_c, 3, 62, 0
1, 18400, Note_on_c, 9, 54, 0
1, 18400, Note_on_c, 9, 38, 0
1, 18408, Note_on_c, 4, 35, 0
1, 18418, Note_on_c, 2, 59, 0
1, 18418, Note_on_c, 2, 62, 0
1, 18418, Note_on_c, 2, 54, 0
1, 18420, Note_on_c, 9, 35, 100
1, 18420, Note_on_c, 2, 61, 100
1, 18420, Note_on_c, 2, 57, 100
1, 18420, Note_on_c, 9, 54, 55
1, 18420, Note_on_c, 3, 61, 100
1, 18420, Note_on_c, 2, 52, 100
1, 18420, Note_on_c, 4, 42, 100
1, 18440, Note_on_c, 9, 53, 0
1, 18460, Note_on_c, 9, 54, 0
1, 18460, Note_on_c, 9, 35, 0
1, 18470, Note_on_c, 3, 61, 0
1, 18472, Note_on_c, 4, 42, 0
1, 18478, Note_on_c, 2, 52, 0
1, 18478, Note_on_c, 2, 61, 0
1, 18478, Note_on_c, 2, 57, 0
1, 18480, Note_on_c, 1, 62, 100
1, 18480, Note_on_c, 9, 35, 100
1, 18480, Note_on_c, 9, 54, 55
1, 18480, Note_on_c, 4, 47, 100
1, 18500, Note_on_c, 9, 54, 0
1, 18500, Note_on_c, 9, 35, 0
1, 18506, Note_on_c, 1, 62, 0
1, 18506, Note_on_c, 4, 47, 0
1, 18510, Note_on_c, 1, 61, 100
1, 18510, Note_on_c, 9, 35, 100
1, 18510, Note_on_c, 9, 54, 55
1, 18510, Note_on_c, 4, 45, 100
1, 18530, Note_on_c, 9, 54, 0
1, 18530, Note_on_c, 9, 35, 0
1, 18536, Note_on_c, 1, 61, 0
1, 18536, Note_on_c, 4, 45, 0
1, 18540, Note_on_c, 4, 44, 100
1, 18540, Note_on_c, 9, 35, 100
1, 18540, Note_on_c, 9, 54, 55
1, 18540, Note_on_c, 1, 59, 100
1, 18560, Note_on_c, 9, 54, 0
1, 18560, Note_on_c, 9, 35, 0
1, 18566, Note_on_c, 4, 44, 0
1, 18566, Note_on_c, 1, 59, 0
1, 18570, Note_on_c, 1, 61, 100
1, 18570, Note_on_c, 9, 35, 100
1, 18570, Note_on_c, 9, 54, 55
1, 18570, Note_on_c, 4, 45, 100
1, 18590, Note_on_c, 9, 54, 0
1, 18590, Note_on_c, 9, 35, 0
1, 18596, Note_on_c, 1, 61, 0
1, 18596, Note_on_c, 4, 45, 0
1, 18600, Note_on_c, 4, 44, 100
1, 18600, Note_on_c, 9, 35, 100
1, 18600, Note_on_c, 9, 54, 55
1, 18600, Note_on_c, 1, 59, 100
1, 18620, Note_on_c, 9, 54, 0
1, 18620, Note_on_c, 9, 35, 0
1, 18626, Note_on_c, 4, 44, 0
1, 18626, Note_on_c, 1, 59, 0
1, 18630, Note_on_c, 9, 35, 100
1, 18630, Note_on_c, 1, 57, 100
1, 18630, Note_on_c, 9, 54, 55
1, 18630, Note_on_c, 4, 42, 100
1, 18650, Note_on_c, 9, 54, 0
1, 18650, Note_on_c, 9, 35, 0
1, 18656, Note_on_c, 1, 57, 0
1, 18656, Note_on_c, 4, 42, 0
1, 18660, Note_on_c, 1, 56, 100
1, 18660, Note_on_c, 9, 54, 55
1, 18660, Note_on_c, 9, 35, 100
1, 18660, Note_on_c, 4, 40, 100
1, 18680, Note_on_c, 9, 35, 0
1, 18680, Note_on_c, 9, 54, 0
1, 18686, Note_on_c, 1, 56, 0
1, 18686, Note_on_c, 4, 40, 0
1, 18690, Note_on_c, 4, 38, 100
1, 18690, Note_on_c, 9, 35, 100
1, 18690, Note_on_c, 1, 54, 100
1, 18690, Note_on_c, 9, 54, 55
1, 18710, Note_on_c, 9, 54, 0
1, 18710, Note_on_c, 9, 35, 0
1, 18716, Note_on_c, 1, 54, 0
1, 18716, Note_on_c, 4, 38, 0
1, 18720, Note_on_c, 9, 35, 100
1, 18720, Note_on_c, 2, 59, 100
1, 18720, Note_on_c, 9, 54, 55
1, 18720, Note_on_c, 4, 40, 100
1, 18720, Note_on_c, 2, 64, 100
1, 18720, Note_on_c, 9, 42, 60
1, 18720, Note_on_c, 2, 68, 100
1, 18740, Note_on_c, 9, 42, 0
1, 18750, Note_on_c, 9, 42, 60
1, 18760, Note_on_c, 9, 54, 0
1, 18760, Note_on_c, 9, 35, 0
1, 18770, Note_on_c, 9, 42, 0
1, 18772, Note_on_c, 4, 40, 0
1, 18780, Note_on_c, 4, 40, 100
1, 18780, Note_on_c, 9, 42, 60
1, 18780, Note_on_c, 9, 54, 55
1, 18780, Note_on_c, 0, 68, 100
1, 18800, Note_on_c, 9, 42, 0
1, 18810, Note_on_c, 9, 42, 60
1, 18820, Note_on_c, 9, 54, 0
1, 18830, Note_on_c, 9, 42, 0
1, 18832, Note_on_c, 0, 68, 0
1, 18840, Note_on_c, 0, 71, 100
1, 18840, Note_on_c, 9, 38, 100
1, 18840, Note_on_c, 9, 54, 55
1, 18840, Note_on_c, 9, 42, 60
1, 18858, Note_on_c, 4, 40, 0
1, 18860, Note_on_c, 9, 42, 0
1, 18870, Note_on_c, 4, 52, 100
1, 18870, Note_on_c, 9, 42, 60
1, 18880, Note_on_c, 9, 38, 0
1, 18880, Note_on_c, 9, 54, 0
1, 18890, Note_on_c, 9, 42, 0
1, 18892, Note_on_c, 0, 71, 0
1, 18896, Note_on_c, 4, 52, 0
1, 18900, Note_on_c, 9, 54, 55
1, 18900, Note_on_c, 0, 71, 100
1, 18900, Note_on_c, 4, 40, 100
1, 18900, Note_on_c, 9, 42, 60
1, 18900, Note_on_c, 9, 35, 100
1, 18920, Note_on_c, 9, 42, 0
1, 18926, Note_on_c, 0, 71, 0
1, 18930, Note_on_c, 0, 68, 100
1, 18930, Note_on_c, 9, 42, 60
1, 18940, Note_on_c, 9, 35, 0
1, 18940, Note_on_c, 9, 54, 0
1, 18950, Note_on_c, 9, 42, 0
1, 18952, Note_on_c, 4, 40, 0
1, 18956, Note_on_c, 0, 68, 0
1, 18960, Note_on_c, 9, 35, 100
1, 18960, Note_on_c, 9, 42, 60
1, 18960, Note_on_c, 9, 54, 55
1, 18960, Note_on_c, 0, 74, 100
1, 18960, Note_on_c, 4, 40, 100
1, 18980, Note_on_c, 9, 42, 0
1, 18990, Note_on_c, 9, 42, 60
1, 19000, Note_on_c, 9, 35, 0
1, 19000, Note_on_c, 9, 54, 0
1, 19010, Note_on_c, 9, 42, 0
1, 19020, Note_on_c, 9, 42, 60
1, 19020, Note_on_c, 9, 54, 55
1, 19038, Note_on_c, 4, 40, 0
1, 19038, Note_on_c, 0, 74, 0
1, 19040, Note_on_c, 9, 42, 0
1, 19050, Note_on_c, 4, 40, 100
1, 19050, Note_on_c, 9, 42, 60
1, 19050, Note_on_c, 0, 71, 100
1, 19060, Note_on_c, 9, 54, 0
1, 19070, Note_on_c, 9, 42, 0
1, 19080, Note_on_c, 9, 42, 60
1, 19080, Note_on_c, 9, 54, 55
1, 19080, Note_on_c, 9, 38, 100
1, 19100, Note_on_c, 9, 42, 0
1, 19102, Note_on_c, 4, 40, 0
1, 19110, Note_on_c, 9, 42, 60
1, 19110, Note_on_c, 4, 52, 100
1, 19120, Note_on_c, 9, 38, 0
1, 19120, Note_on_c, 9, 54, 0
1, 19128, Note_on_c, 0, 71, 0
1, 19130, Note_on_c, 9, 42, 0
1, 19136, Note_on_c, 4, 52, 0
1, 19140, Note_on_c, 9, 54, 55
1, 19140, Note_on_c, 4, 40, 100
1, 19140, Note_on_c, 0, 71, 100
1, 19140, Note_on_c, 9, 42, 60
1, 19160, Note_on_c, 9, 42, 0
1, 19170, Note_on_c, 9, 42, 60
1, 19180, Note_on_c, 9, 54, 0
1, 19190, Note_on_c, 9, 42, 0
1, 19192, Note_on_c, 4, 40, 0
1, 19192, Note_on_c, 0, 71, 0
1, 19198, Note_on_c, 2, 59, 0
1, 19198, Note_on_c, 2, 64, 0
1, 19198, Note_on_c, 2, 68, 0
1, 19200, Note_on_c, 9, 54, 55
1, 19200, Note_on_c, 2, 68, 100
1, 19200, Note_on_c, 9, 42, 60
1, 19200, Note_on_c, 2, 64, 100
1, 19200, Note_on_c, 4, 40, 100
1, 19200, Note_on_c, 2, 71, 100
1, 19200, Note_on_c, 9, 35, 100
1, 19220, Note_on_c, 9, 42, 0
1, 19230, Note_on_c, 9, 42, 60
1, 19240, Note_on_c, 9, 54, 0
1, 19240, Note_on_c, 9, 35, 0
1, 19250, Note_on_c, 9, 42, 0
1, 19252, Note_on_c, 4, 40, 0
1, 19260, Note_on_c, 9, 54, 55
1, 19260, Note_on_c, 9, 42, 60
1, 19260, Note_on_c, 4, 40, 100
1, 19260, Note_on_c, 0, 69, 100
1, 19280, Note_on_c, 9, 42, 0
1, 19286, Note_on_c, 0, 69, 0
1, 19290, Note_on_c, 9, 42, 60
1, 19290, Note_on_c, 0, 69, 100
1, 19300, Note_on_c, 9, 54, 0
1, 19310, Note_on_c, 9, 42, 0
1, 19316, Note_on_c, 0, 69, 0
1, 19320, Note_on_c, 9, 42, 60
1, 19320, Note_on_c, 0, 71, 100
1, 19320, Note_on_c, 9, 38, 100
1, 19320, Note_on_c, 9, 54, 55
1, 19338, Note_on_c, 4, 40, 0
1, 19340, Note_on_c, 9, 42, 0
1, 19350, Note_on_c, 9, 42, 60
1, 19350, Note_on_c, 4, 52, 100
1, 19360, Note_on_c, 9, 54, 0
1, 19360, Note_on_c, 9, 38, 0
1, 19370, Note_on_c, 9, 42, 0
1, 19376, Note_on_c, 4, 52, 0
1, 19380, Note_on_c, 9, 35, 100
1, 19380, Note_on_c, 4, 40, 100
1, 19380, Note_on_c, 9, 54, 55
1, 19380, Note_on_c, 9, 42, 60
1, 19398, Note_on_c, 0, 71, 0
1, 19400, Note_on_c, 9, 42, 0
1, 19410, Note_on_c, 0, 62, 100
1, 19410, Note_on_c, 9, 42, 60
1, 19420, Note_on_c, 9, 35, 0
1, 19420, Note_on_c, 9, 54, 0
1, 19430, Note_on_c, 9, 42, 0
1, 19432, Note_on_c, 4, 40, 0
1, 19436, Note_on_c, 0, 62, 0
1, 19440, Note_on_c, 4, 40, 100
1, 19440, Note_on_c, 0, 74, 100
1, 19440, Note_on_c, 9, 54, 55
1, 19440, Note_on_c, 9, 42, 60
1, 19440, Note_on_c, 9, 35, 100
1, 19460, Note_on_c, 9, 42, 0
1, 19466, Note_on_c, 0, 74, 0
1, 19470, Note_on_c, 9, 42, 60
1, 19470, Note_on_c, 0, 71, 100
1, 19480, Note_on_c, 9, 35, 0
1, 19480, Note_on_c, 9, 54, 0
1, 19490, Note_on_c, 9, 42, 0
1, 19496, Note_on_c, 0, 71, 0
1, 19500, Note_on_c, 9, 54, 55
1, 19500, Note_on_c, 0, 71, 100
1, 19500, Note_on_c, 9, 42, 60
1, 19520, Note_on_c, 9, 42, 0
1, 19530, Note_on_c, 9, 42, 60
1, 19540, Note_on_c, 9, 54, 0
1, 19544, Note_on_c, 4, 40, 0
1, 19550, Note_on_c, 9, 42, 0
1, 19552, Note_on_c, 0, 71, 0
1, 19558, Note_on_c, 2, 71, 0
1, 19558, Note_on_c, 2, 64, 0
1, 19558, Note_on_c, 2, 68, 0
1, 19560, Note_on_c, 9, 42, 60
1, 19560, Note_on_c, 2, 66, 100
1, 19560, Note_on_c, 9, 38, 100
1, 19560, Note_on_c, 2, 62, 100
1, 19560, Note_on_c, 4, 45, 100
1, 19560, Note_on_c, 9, 49, 100
1, 19560, Note_on_c, 2, 71, 100
1, 19560, Note_on_c, 0, 71, 100
1, 19560, Note_on_c, 9, 54, 55
1, 19580, Note_on_c, 9, 42, 0
1, 19590, Note_on_c, 9, 42, 60
1, 19600, Note_on_c, 9, 54, 0
1, 19600, Note_on_c, 9, 38, 0
1, 19610, Note_on_c, 9, 42, 0
1, 19620, Note_on_c, 9, 54, 55
1, 19620, Note_on_c, 9, 35, 100
1, 19620, Note_on_c, 9, 42, 60
1, 19638, Note_on_c, 4, 45, 0
1, 19640, Note_on_c, 9, 42, 0
1, 19650, Note_on_c, 9, 42, 60
1, 19650, Note_on_c, 4, 47, 100
1, 19660, Note_on_c, 9, 35, 0
1, 19660, Note_on_c, 9, 54, 0
1, 19664, Note_on_c, 0, 71, 0
1, 19670, Tempo, 625000
1, 19670, Note_on_c, 9, 42, 0
1, 19676, Note_on_c, 4, 47, 0
1, 19678, Note_on_c, 2, 62, 0
1, 19678, Note_on_c, 2, 66, 0
1, 19678, Note_on_c, 2, 71, 0
1, 19680, Note_on_c, 9, 49, 0
1, 19680, Note_on_c, 9, 42, 60
1, 19680, Note_on_c, 9, 35, 100
1, 19680, Note_on_c, 4, 35, 100
1, 19680, Note_on_c, 9, 54, 55
1, 19700, Note_on_c, 9, 42, 0
1, 19710, Note_on_c, 9, 42, 60
1, 19720, Note_on_c, 9, 35, 0
1, 19720, Note_on_c, 9, 54, 0
1, 19730, Note_on_c, 9, 42, 0
1, 19732, Note_on_c, 4, 35, 0
1, 19740, Note_on_c, 1, 66, 100
1, 19740, Note_on_c, 4, 47, 100
1, 19740, Note_on_c, 1, 62, 100
1, 19740, Note_on_c, 9, 54, 55
1, 19740, Note_on_c, 9, 42, 60
1, 19740, Note_on_c, 1, 57, 100
1, 19760, Note_on_c, 9, 42, 0
1, 19770, Note_on_c, 9, 42, 60
1, 19780, Note_on_c, 9, 54, 0
1, 19790, Note_on_c, 9, 42, 0
1, 19800, Note_on_c, 9, 42, 60
1, 19800, Note_on_c, 9, 54, 55
1, 19800, Note_on_c, 9, 38, 100
1, 19818, Note_on_c, 4, 47, 0
1, 19820, Note_on_c, 9, 42, 0
1, 19830, Note_on_c, 9, 42, 60
1, 19830, Note_on_c, 4, 47, 100
1, 19840, Note_on_c, 9, 54, 0
1, 19840, Note_on_c, 9, 38, 0
1, 19844, Note_on_c, 1, 57, 0
1, 19844, Note_on_c, 1, 62, 0
1, 19844, Note_on_c, 1, 66, 0
1, 19850, Note_on_c, 9, 42, 0
1, 19856, Note_on_c, 4, 47, 0
1, 19860, Note_on_c, 4, 35, 100
1, 19860, Note_on_c, 9, 54, 55
1, 19860, Note_on_c, 9, 42, 60
1, 19860, Note_on_c, 9, 35, 100
1, 19880, Note_on_c, 9, 42, 0
1, 19890, Note_on_c, 9, 42, 60
1, 19900, Note_on_c, 9, 35, 0
1, 19900, Note_on_c, 9, 54, 0
1, 19910, Note_on_c, 9, 42, 0
1, 19912, Note_on_c, 4, 35, 0
1, 19920, Note_on_c, 4, 47, 100
1, 19920, Note_on_c, 1, 54, 100
1, 19920, Note_on_c, 9, 35, 100
1, 19920, Note_on_c, 1, 59, 100
1, 19920, Note_on_c, 9, 54, 55
1, 19920, Note_on_c, 1, 64, 100
1, 19920, Note_on_c, 9, 42, 60
1, 19940, Note_on_c, 9, 42, 0
1, 19950, Note_on_c, 9, 42, 60
1, 19960, Note_on_c, 9, 35, 0
1, 19960, Note_on_c, 9, 54, 0
1, 19970, Note_on_c, 9, 42, 0
1, 19980, Note_on_c, 9, 54, 55
1, 19980, Note_on_c, 9, 42, 60
1, 19998, Note_on_c, 4, 47, 0
1, 20000, Note_on_c, 9, 42, 0
1, 20010, Note_on_c, 4, 47, 100
1, 20010, Note_on_c, 9, 42, 60
1, 20020, Note_on_c, 9, 54, 0
1, 20024, Note_on_c, 1, 59, 0
1, 20024, Note_on_c, 1, 54, 0
1, 20024, Note_on_c, 1, 64, 0
1, 20030, Note_on_c, 9, 42, 0
1, 20036, Note_on_c, 4, 47, 0
1, 20040, Note_on_c, 1, 64, 100
1, 20040, Note_on_c, 1, 59, 100
1, 20040, Note_on_c, 9, 42, 60
1, 20040, Note_on_c, 9, 54, 55
1, 20040, Note_on_c, 1, 54, 100
1, 20040, Note_on_c, 4, 35, 100
1, 20040, Note_on_c, 9, 38, 100
1, 20060, Note_on_c, 9, 42, 0
1, 20070, Note_on_c, 9, 42, 60
1, 20080, Note_on_c, 9, 54, 0
1, 20080, Note_on_c, 9, 38, 0
1, 20090, Note_on_c, 9, 42, 0
1, 20092, Note_on_c, 1, 54, 0
1, 20092, Note_on_c, 1, 64, 0
1, 20092, Note_on_c, 1, 59, 0
1, 20092, Note_on_c, 4, 35, 0
1, 20100, Note_on_c, 1, 50, 100
1, 20100, Note_on_c, 4, 47, 100
1, 20100, Note_on_c, 9, 54, 55
1, 20100, Note_on_c, 9, 42, 60
1, 20100, Note_on_c, 1, 57, 100
1, 20100, Note_on_c, 1, 64, 100
1, 20120, Note_on_c, 9, 42, 0
1, 20130, Note_on_c, 9, 42, 60
1, 20140, Note_on_c, 9, 54, 0
1, 20150, Note_on_c, 9, 42, 0
1, 20160, Note_on_c, 9, 42, 60
1, 20160, Note_on_c, 9, 54, 55
1, 20160, Note_on_c, 9, 35, 100
1, 20178, Note_on_c, 4, 47, 0
1, 20180, Note_on_c, 9, 42, 0
1, 20190, Note_on_c, 9, 42, 60
1, 20190, Note_on_c, 4, 47, 100
1, 20200, Note_on_c, 9, 54, 0
1, 20200, Note_on_c, 9, 35, 0
1, 20204, Note_on_c, 1, 57, 0
1, 20204, Note_on_c, 1, 64, 0
1, 20204, Note_on_c, 1, 50, 0
1, 20210, Note_on_c, 9, 42, 0
1, 20216, Note_on_c, 4, 47, 0
1, 20220, Note_on_c, 1, 64, 100
1, 20220, Note_on_c, 9, 42, 60
1, 20220, Note_on_c, 1, 59, 100
1, 20220, Note_on_c, 1, 52, 100
1, 20220, Note_on_c, 4, 35, 100
1, 20220, Note_on_c, 9, 54, 55
1, 20240, Note_on_c, 9, 42, 0
1, 20250, Note_on_c, 9, 42, 60
1, 20260, Note_on_c, 9, 54, 0
1, 20270, Note_on_c, 9, 42, 0
1, 20272, Note_on_c, 1, 52, 0
1, 20272, Note_on_c, 1, 64, 0
1, 20272, Note_on_c, 1, 59, 0
1, 20272, Note_on_c, 4, 35, 0
1, 20280, Note_on_c, 4, 47, 100
1, 20280, Note_on_c, 9, 42, 60
1, 20280, Note_on_c, 1, 62, 100
1, 20280, Note_on_c, 9, 54, 55
1, 20280, Note_on_c, 1, 52, 100
1, 20280, Note_on_c, 1, 57, 100
1, 20280, Note_on_c, 9, 38, 100
1, 20300, Note_on_c, 9, 42, 0
1, 20310, Note_on_c, 9, 42, 60
1, 20320, Note_on_c, 9, 54, 0
1, 20320, Note_on_c, 9, 38, 0
1, 20330, Note_on_c, 9, 42, 0
1, 20340, Note_on_c, 9, 42, 60
1, 20340, Note_on_c, 9, 35, 100
1, 20340, Note_on_c, 9, 54, 55
1, 20358, Note_on_c, 4, 47, 0
1, 20360, Note_on_c, 9, 42, 0
1, 20370, Note_on_c, 9, 42, 60
1, 20370, Note_on_c, 4, 45, 100
1, 20380, Note_on_c, 9, 35, 0
1, 20380, Note_on_c, 9, 54, 0
1, 20384, Note_on_c, 1, 62, 0
1, 20384, Note_on_c, 1, 52, 0
1, 20384, Note_on_c, 1, 57, 0
1, 20390, Note_on_c, 9, 42, 0
1, 20396, Note_on_c, 4, 45, 0
1, 20400, Note_on_c, 1, 62, 100
1, 20400, Note_on_c, 9, 42, 60
1, 20400, Note_on_c, 9, 35, 100
1, 20400, Note_on_c, 4, 47, 100
1, 20400, Note_on_c, 9, 54, 55
1, 20420, Note_on_c, 9, 42, 0
1, 20426, Note_on_c, 4, 47, 0
1, 20426, Note_on_c, 1, 62, 0
1, 20430, Note_on_c, 9, 42, 60
1, 20430, Note_on_c, 1, 64, 100
1, 20430, Note_on_c, 4, 49, 100
1, 20440, Note_on_c, 9, 35, 0
1, 20440, Note_on_c, 9, 54, 0
1, 20450, Note_on_c, 9, 42, 0
1, 20456, Note_on_c, 1, 64, 0
1, 20456, Note_on_c, 4, 49, 0
1, 20460, Note_on_c, 9, 54, 55
1, 20460, Note_on_c, 9, 42, 60
1, 20460, Note_on_c, 1, 66, 100
1, 20460, Note_on_c, 4, 50, 100
1, 20480, Note_on_c, 9, 42, 0
1, 20486, Note_on_c, 4, 50, 0
1, 20486, Note_on_c, 1, 66, 0
1, 20490, Note_on_c, 4, 47, 100
1, 20490, Note_on_c, 9, 42, 60
1, 20490, Note_on_c, 1, 62, 100
1, 20500, Note_on_c, 9, 54, 0
1, 20510, Note_on_c, 9, 42, 0
1, 20516, Note_on_c, 4, 47, 0
1, 20516, Note_on_c, 1, 62, 0
1, 20520, Note_on_c, 9, 38, 100
1, 20520, Note_on_c, 9, 54, 55
1, 20520, Note_on_c, 4, 49, 100
1, 20520, Note_on_c, 1, 64, 100
1, 20520, Note_on_c, 9, 42, 60
1, 20540, Note_on_c, 9, 42, 0
1, 20546, Note_on_c, 4, 49, 0
1, 20546, Note_on_c, 1, 64, 0
1, 20550, Note_on_c, 1, 61, 100
1, 20550, Note_on_c, 9, 42, 60
1, 20550, Note_on_c, 4, 45, 100
1, 20560, Note_on_c, 9, 54, 0
1, 20560, Note_on_c, 9, 38, 0
1, 20570, Note_on_c, 9, 42, 0
1, 20576, Note_on_c, 1, 61, 0
1, 20576, Note_on_c, 4, 45, 0
1, 20580, Note_on_c, 9, 42, 60
1, 20580, Note_on_c, 9, 35, 100
1, 20580, Note_on_c, 1, 57, 100
1, 20580, Note_on_c, 9, 54, 55
1, 20580, Note_on_c, 4, 42, 100
1, 20600, Note_on_c, 9, 42, 0
1, 20606, Note_on_c, 4, 42, 0
1, 20606, Note_on_c, 1, 57, 0
1, 20610, Note_on_c, 9, 42, 60
1, 20610, Note_on_c, 4, 38, 100
1, 20610, Note_on_c, 1, 54, 100
1, 20620, Note_on_c, 9, 35, 0
1, 20620, Note_on_c, 9, 54, 0
1, 20630, Note_on_c, 9, 42, 0
1, 20636, Note_on_c, 4, 38, 0
1, 20636, Note_on_c, 1, 54, 0
1, 20640, Note_on_c, 2, 68, 100
1, 20640, Note_on_c, 4, 40, 100
1, 20640, Note_on_c, 2, 64, 100
1, 20640, Note_on_c, 9, 35, 100
1, 20640, Note_on_c, 9, 54, 55
1, 20640, Note_on_c, 2, 59, 100
1, 20640, Note_on_c, 9, 42, 60
1, 20660, Note_on_c, 9, 42, 0
1, 20670, Note_on_c, 9, 42, 60
1, 20680, Note_on_c, 9, 35, 0
1, 20680, Note_on_c, 9, 54, 0
1, 20690, Note_on_c, 9, 42, 0
1, 20692, Note_on_c, 4, 40, 0
1, 20700, Note_on_c, 4, 40, 100
1, 20700, Note_on_c, 9, 42, 60
1, 20700, Note_on_c, 0, 69, 100
1, 20700, Note_on_c, 9, 54, 55
1, 20720, Note_on_c, 9, 42, 0
1, 20726, Note_on_c, 0, 69, 0
1, 20730, Note_on_c, 0, 69, 100
1, 20730, Note_on_c, 9, 42, 60
1, 20740, Note_on_c, 9, 54, 0
1, 20750, Note_on_c, 9, 42, 0
1, 20756, Note_on_c, 0, 69, 0
1, 20760, Note_on_c, 9, 42, 60
1, 20760, Note_on_c, 0, 71, 100
1, 20760, Note_on_c, 9, 38, 100
1, 20760, Note_on_c, 9, 54, 55
1, 20778, Note_on_c, 4, 40, 0
1, 20780, Note_on_c, 9, 42, 0
1, 20786, Note_on_c, 0, 71, 0
1, 20790, Note_on_c, 4, 52, 100
1, 20790, Note_on_c, 0, 71, 100
1, 20790, Note_on_c, 9, 42, 60
1, 20800, Note_on_c, 9, 54, 0
1, 20800, Note_on_c, 9, 38, 0
1, 20810, Note_on_c, 9, 42, 0
1, 20816, Note_on_c, 0, 71, 0
1, 20816, Note_on_c, 4, 52, 0
1, 20820, Note_on_c, 0, 71, 100
1, 20820, Note_on_c, 9, 54, 55
1, 20820, Note_on_c, 9, 42, 60
1, 20820, Note_on_c, 4, 40, 100
1, 20820, Note_on_c, 9, 35, 100
1, 20840, Note_on_c, 9, 42, 0
1, 20850, Note_on_c, 9, 42, 60
1, 20860, Note_on_c, 9, 35, 0
1, 20860, Note_on_c, 9, 54, 0
1, 20870, Note_on_c, 9, 42, 0
1, 20872, Note_on_c, 0, 71, 0
1, 20872, Note_on_c, 4, 40, 0
1, 20880, Note_on_c, 4, 40, 100
1, 20880, Note_on_c, 9, 54, 55
1, 20880, Note_on_c, 9, 42, 60
1, 20880, Note_on_c, 9, 35, 100
1, 20880, Note_on_c, 0, 74, 100
1, 20900, Note_on_c, 9, 42, 0
1, 20910, Note_on_c, 9, 42, 60
1, 20920, Note_on_c, 9, 35, 0
1, 20920, Note_on_c, 9, 54, 0
1, 20930, Note_on_c, 9, 42, 0
1, 20932, Note_on_c, 0, 74, 0
1, 20940, Note_on_c, 9, 54, 55
1, 20940, Note_on_c, 0, 74, 100
1, 20940, Note_on_c, 9, 42, 60
1, 20958, Note_on_c, 4, 40, 0
1, 20960, Note_on_c, 9, 42, 0
1, 20966, Note_on_c, 0, 74, 0
1, 20970, Note_on_c, 0, 71, 100
1, 20970, Note_on_c, 9, 42, 60
1, 20970, Note_on_c, 4, 40, 100
1, 20980, Note_on_c, 9, 54, 0
1, 20990, Note_on_c, 9, 42, 0
1, 21000, Note_on_c, 9, 42, 60
1, 21000, Note_on_c, 9, 54, 55
1, 21000, Note_on_c, 9, 38, 100
1, 21020, Note_on_c, 9, 42, 0
1, 21022, Note_on_c, 4, 40, 0
1, 21030, Note_on_c, 9, 42, 60
1, 21030, Note_on_c, 4, 52, 100
1, 21040, Note_on_c, 9, 38, 0
1, 21040, Note_on_c, 9, 54, 0
1, 21048, Note_on_c, 0, 71, 0
1, 21050, Note_on_c, 9, 42, 0
1, 21056, Note_on_c, 4, 52, 0
1, 21060, Note_on_c, 4, 40, 100
1, 21060, Note_on_c, 0, 71, 100
1, 21060, Note_on_c, 9, 42, 60
1, 21060, Note_on_c, 9, 54, 55
1, 21080, Note_on_c, 9, 42, 0
1, 21090, Note_on_c, 9, 42, 60
1, 21100, Note_on_c, 9, 54, 0
1, 21110, Note_on_c, 9, 42, 0
1, 21112, Note_on_c, 4, 40, 0
1, 21112, Note_on_c, 0, 71, 0
1, 21118, Note_on_c, 2, 64, 0
1, 21118, Note_on_c, 2, 68, 0
1, 21118, Note_on_c, 2, 59, 0
1, 21120, Note_on_c, 2, 64, 100
1, 21120, Note_on_c, 9, 35, 100
1, 21120, Note_on_c, 4, 40, 100
1, 21120, Note_on_c, 2, 68, 100
1, 21120, Note_on_c, 9, 42, 60
1, 21120, Note_on_c, 9, 54, 55
1, 21120, Note_on_c, 2, 71, 100
1, 21140, Note_on_c, 9, 42, 0
1, 21150, Note_on_c, 9, 42, 60
1, 21160, Note_on_c, 9, 35, 0
1, 21160, Note_on_c, 9, 54, 0
1, 21170, Note_on_c, 9, 42, 0
1, 21172, Note_on_c, 4, 40, 0
1, 21180, Note_on_c, 9, 54, 55
1, 21180, Note_on_c, 9, 42, 60
1, 21180, Note_on_c, 4, 40, 100
1, 21180, Note_on_c, 0, 69, 100
1, 21200, Note_on_c, 9, 42, 0
1, 21206, Note_on_c, 0, 69, 0
1, 21210, Note_on_c, 9, 42, 60
1, 21210, Note_on_c, 0, 69, 100
1, 21220, Note_on_c, 9, 54, 0
1, 21230, Note_on_c, 9, 42, 0
1, 21236, Note_on_c, 0, 69, 0
1, 21240, Note_on_c, 9, 38, 100
1, 21240, Note_on_c, 9, 42, 60
1, 21240, Note_on_c, 9, 54, 55
1, 21240, Note_on_c, 0, 71, 100
1, 21258, Note_on_c, 4, 40, 0
1, 21260, Note_on_c, 9, 42, 0
1, 21270, Note_on_c, 4, 52, 100
1, 21270, Note_on_c, 9, 42, 60
1, 21280, Note_on_c, 9, 38, 0
1, 21280, Note_on_c, 9, 54, 0
1, 21290, Note_on_c, 9, 42, 0
1, 21292, Note_on_c, 0, 71, 0
1, 21296, Note_on_c, 4, 52, 0
1, 21300, Note_on_c, 9, 54, 55
1, 21300, Note_on_c, 9, 42, 60
1, 21300, Note_on_c, 0, 69, 100
1, 21300, Note_on_c, 4, 40, 100
1, 21300, Note_on_c, 9, 35, 100
1, 21320, Note_on_c, 9, 42, 0
1, 21330, Note_on_c, 9, 42, 60
1, 21340, Note_on_c, 9, 35, 0
1, 21340, Note_on_c, 9, 54, 0
1, 21350, Note_on_c, 9, 42, 0
1, 21352, Note_on_c, 0, 69, 0
1, 21352, Note_on_c, 4, 40, 0
1, 21360, Note_on_c, 9, 54, 55
1, 21360, Note_on_c, 9, 42, 60
1, 21360, Note_on_c, 4, 40, 100
1, 21360, Note_on_c, 9, 35, 100
1, 21360, Note_on_c, 0, 74, 100
1, 21380, Note_on_c, 9, 42, 0
1, 21390, Note_on_c, 9, 42, 60
1, 21400, Note_on_c, 9, 54, 0
1, 21400, Note_on_c, 9, 35, 0
1, 21410, Note_on_c, 9, 42, 0
1, 21412, Note_on_c, 0, 74, 0
1, 21420, Note_on_c, 9, 54, 55
1, 21420, Note_on_c, 0, 71, 100
1, 21420, Note_on_c, 9, 42, 60
1, 21440, Note_on_c, 9, 42, 0
1, 21450, Note_on_c, 9, 42, 60
1, 21460, Note_on_c, 9, 54, 0
1, 21464, Note_on_c, 4, 40, 0
1, 21470, Note_on_c, 9, 42, 0
1, 21472, Note_on_c, 0, 71, 0
1, 21478, Note_on_c, 2, 68, 0
1, 21478, Note_on_c, 2, 64, 0
1, 21478, Note_on_c, 2, 71, 0
1, 21480, Note_on_c, 2, 71, 100
1, 21480, Note_on_c, 2, 62, 100
1, 21480, Note_on_c, 9, 42, 60
1, 21480, Note_on_c, 2, 66, 100
1, 21480, Note_on_c, 4, 45, 100
1, 21480, Note_on_c, 9, 54, 55
1, 21480, Note_on_c, 0, 71, 100
1, 21480, Note_on_c, 9, 38, 100
1, 21500, Note_on_c, 9, 42, 0
1, 21510, Note_on_c, 9, 42, 60
1, 21520, Note_on_c, 9, 38, 0
1, 21520, Note_on_c, 9, 54, 0
1, 21530, Note_on_c, 9, 42, 0
1, 21540, Note_on_c, 9, 42, 60
1, 21540, Note_on_c, 9, 54, 55
1, 21540, Note_on_c, 9, 35, 100
1, 21558, Note_on_c, 4, 45, 0
1, 21560, Note_on_c, 9, 42, 0
1, 21570, Note_on_c, 4, 47, 100
1, 21570, Note_on_c, 9, 42, 60
1, 21580, Note_on_c, 9, 35, 0
1, 21580, Note_on_c, 9, 54, 0
1, 21584, Note_on_c, 0, 71, 0
1, 21590, Note_on_c, 9, 42, 0
1, 21596, Note_on_c, 4, 47, 0
1, 21598, Note_on_c, 2, 71, 0
1, 21598, Note_on_c, 2, 66, 0
1, 21598, Note_on_c, 2, 62, 0
1, 21600, Note_on_c, 4, 35, 100
1, 21600, Note_on_c, 9, 42, 60
1, 21600, Note_on_c, 9, 54, 55
1, 21600, Note_on_c, 9, 35, 100
1, 21620, Note_on_c, 9, 42, 0
1, 21630, Note_on_c, 9, 42, 60
1, 21640, Note_on_c, 9, 35, 0
1, 21640, Note_on_c, 9, 54, 0
1, 21650, Note_on_c, 9, 42, 0
1, 21652, Note_on_c, 4, 35, 0
1, 21660, Note_on_c, 9, 54, 55
1, 21660, Note_on_c, 1, 66, 100
1, 21660, Note_on_c, 4, 47, 100
1, 21660, Note_on_c, 1, 57, 100
1, 21660, Note_on_c, 9, 42, 60
1, 21660, Note_on_c, 1, 62, 100
1, 21680, Note_on_c, 9, 42, 0
1, 21690, Note_on_c, 9, 42, 60
1, 21700, Note_on_c, 9, 54, 0
1, 21710, Note_on_c, 9, 42, 0
1, 21720, Note_on_c, 9, 38, 100
1, 21720, Note_on_c, 9, 54, 55
1, 21720, Note_on_c, 9, 42, 60
1, 21738, Note_on_c, 4, 47, 0
1, 21740, Note_on_c, 9, 42, 0
1, 21750, Note_on_c, 9, 42, 60
1, 21750, Note_on_c, 4, 47, 100
1, 21760, Note_on_c, 9, 38, 0
1, 21760, Note_on_c, 9, 54, 0
1, 21764, Note_on_c, 1, 57, 0
1, 21764, Note_on_c, 1, 62, 0
1, 21764, Note_on_c, 1, 66, 0
1, 21770, Note_on_c, 9, 42, 0
1, 21776, Note_on_c, 4, 47, 0
1, 21780, Note_on_c, 4, 35, 100
1, 21780, Note_on_c, 9, 42, 60
1, 21780, Note_on_c, 9, 54, 55
1, 21780, Note_on_c, 9, 35, 100
1, 21800, Note_on_c, 9, 42, 0
1, 21810, Note_on_c, 9, 42, 60
1, 21820, Note_on_c, 9, 35, 0
1, 21820, Note_on_c, 9, 54, 0
1, 21830, Note_on_c, 9, 42, 0
1, 21832, Note_on_c, 4, 35, 0
1, 21840, Note_on_c, 9, 54, 55
1, 21840, Note_on_c, 9, 35, 100
1, 21840, Note_on_c, 1, 64, 100
1, 21840, Note_on_c, 1, 54, 100
1, 21840, Note_on_c, 4, 47, 100
1, 21840, Note_on_c, 1, 59, 100
1, 21840, Note_on_c, 9, 42, 60
1, 21860, Note_on_c, 9, 42, 0
1, 21870, Note_on_c, 9, 42, 60
1, 21880, Note_on_c, 9, 54, 0
1, 21880, Note_on_c, 9, 35, 0
1, 21890, Note_on_c, 9, 42, 0
1, 21900, Note_on_c, 9, 42, 60
1, 21900, Note_on_c, 9, 54, 55
1, 21918, Note_on_c, 4, 47, 0
1, 21920, Note_on_c, 9, 42, 0
1, 21930, Note_on_c, 4, 47, 100
1, 21930, Note_on_c, 9, 42, 60
1, 21940, Note_on_c, 9, 54, 0
1, 21944, Note_on_c, 1, 64, 0
1, 21944, Note_on_c, 1, 54, 0
1, 21944, Note_on_c, 1, 59, 0
1, 21950, Note_on_c, 9, 42, 0
1, 21956, Note_on_c, 4, 47, 0
1, 21960, Note_on_c, 9, 42, 60
1, 21960, Note_on_c, 1, 64, 100
1, 21960, Note_on_c, 1, 50, 100
1, 21960, Note_on_c, 1, 57, 100
1, 21960, Note_on_c, 4, 35, 100
1, 21960, Note_on_c, 9, 38, 100
1, 21960, Note_on_c, 9, 54, 55
1, 21980, Note_on_c, 9, 42, 0
1, 21986, Note_on_c, 1, 57, 0
1, 21986, Note_on_c, 1, 64, 0
1, 21986, Note_on_c, 1, 50, 0
1, 21990, Note_on_c, 9, 42, 60
1, 21990, Note_on_c, 1, 54, 100
1, 21990, Note_on_c, 1, 59, 100
1, 22000, Note_on_c, 9, 54, 0
1, 22000, Note_on_c, 9, 38, 0
1, 22010, Note_on_c, 9, 42, 0
1, 22012, Note_on_c, 4, 35, 0
1, 22020, Note_on_c, 9, 42, 60
1, 22020, Note_on_c, 4, 47, 100
1, 22020, Note_on_c, 9, 54, 55
1, 22040, Note_on_c, 9, 42, 0
1, 22050, Note_on_c, 9, 42, 60
1, 22060, Note_on_c, 9, 54, 0
1, 22068, Note_on_c, 1, 54, 0
1, 22068, Note_on_c, 1, 59, 0
1, 22070, Note_on_c, 9, 42, 0
1, 22080, Note_on_c, 1, 52, 100
1, 22080, Note_on_c, 1, 64, 100
1, 22080, Note_on_c, 1, 59, 100
1, 22080, Note_on_c, 9, 54, 55
1, 22080, Note_on_c, 9, 35, 100
1, 22080, Note_on_c, 9, 42, 60
1, 22098, Note_on_c, 4, 47, 0
1, 22100, Note_on_c, 9, 42, 0
1, 22110, Note_on_c, 9, 42, 60
1, 22110, Note_on_c, 4, 47, 100
1, 22120, Note_on_c, 9, 54, 0
1, 22120, Note_on_c, 9, 35, 0
1, 22130, Note_on_c, 9, 42, 0
1, 22132, Note_on_c, 1, 59, 0
1, 22132, Note_on_c, 1, 52, 0
1, 22132, Note_on_c, 1, 64, 0
1, 22136, Note_on_c, 4, 47, 0
1, 22140, Note_on_c, 1, 57, 100
1, 22140, Note_on_c, 9, 54, 55
1, 22140, Note_on_c, 4, 35, 100
1, 22140, Note_on_c, 1, 50, 100
1, 22140, Note_on_c, 9, 42, 60
1, 22160, Note_on_c, 9, 42, 0
1, 22166, Note_on_c, 1, 57, 0
1, 22166, Note_on_c, 1, 50, 0
1, 22170, Note_on_c, 1, 59, 100
1, 22170, Note_on_c, 9, 42, 60
1, 22170, Note_on_c, 1, 52, 100
1, 22170, Note_on_c, 1, 64, 100
1, 22180, Note_on_c, 9, 54, 0
1, 22190, Note_on_c, 9, 42, 0
1, 22192, Note_on_c, 4, 35, 0
1, 22200, Note_on_c, 9, 38, 100
1, 22200, Note_on_c, 9, 54, 55
1, 22200, Note_on_c, 4, 47, 100
1, 22200, Note_on_c, 9, 42, 60
1, 22220, Note_on_c, 9, 42, 0
1, 22230, Note_on_c, 9, 42, 60
1, 22240, Note_on_c, 9, 38, 0
1, 22240, Note_on_c, 9, 54, 0
1, 22248, Note_on_c, 1, 64, 0
1, 22248, Note_on_c, 1, 59, 0
1, 22248, Note_on_c, 1, 52, 0
1, 22250, Note_on_c, 9, 42, 0
1, 22260, Note_on_c, 9, 35, 100
1, 22260, Note_on_c, 9, 54, 55
1, 22260, Note_on_c, 9, 42, 60
1, 22260, Note_on_c, 1, 64, 100
1, 22260, Note_on_c, 1, 52, 100
1, 22260, Note_on_c, 1, 59, 100
1, 22278, Note_on_c, 4, 47, 0
1, 22280, Note_on_c, 9, 42, 0
1, 22290, Note_on_c, 9, 42, 60
1, 22290, Note_on_c, 4, 45, 100
1, 22300, Note_on_c, 9, 35, 0
1, 22300, Note_on_c, 9, 54, 0
1, 22310, Note_on_c, 9, 42, 0
1, 22312, Note_on_c, 1, 64, 0
1, 22312, Note_on_c, 1, 59, 0
1, 22312, Note_on_c, 1, 52, 0
1, 22316, Note_on_c, 4, 45, 0
1, 22320, Note_on_c, 9, 35, 100
1, 22320, Note_on_c, 4, 47, 100
1, 22320, Note_on_c, 1, 61, 100
1, 22320, Note_on_c, 1, 54, 100
1, 22320, Note_on_c, 9, 42, 60
1, 22320, Note_on_c, 9, 54, 55
1, 22340, Note_on_c, 9, 42, 0
1, 22346, Note_on_c, 1, 54, 0
1, 22346, Note_on_c, 1, 61, 0
1, 22346, Note_on_c, 4, 47, 0
1, 22350, Note_on_c, 1, 59, 100
1, 22350, Note_on_c, 9, 42, 60
1, 22350, Note_on_c, 1, 64, 100
1, 22350, Note_on_c, 1, 52, 100
1, 22350, Note_on_c, 4, 49, 100
1, 22360, Note_on_c, 9, 35, 0
1, 22360, Note_on_c, 9, 54, 0
1, 22370, Note_on_c, 9, 42, 0
1, 22376, Note_on_c, 4, 49, 0
1, 22380, Note_on_c, 9, 54, 55
1, 22380, Note_on_c, 4, 50, 100
1, 22380, Note_on_c, 9, 42, 60
1, 22400, Note_on_c, 9, 42, 0
1, 22406, Note_on_c, 4, 50, 0
1, 22410, Note_on_c, 9, 42, 60
1, 22410, Note_on_c, 4, 47, 100
1, 22420, Note_on_c, 9, 54, 0
1, 22428, Note_on_c, 1, 52, 0
1, 22428, Note_on_c, 1, 59, 0
1, 22428, Note_on_c, 1, 64, 0
1, 22430, Note_on_c, 9, 42, 0
1, 22436, Note_on_c, 4, 47, 0
1, 22440, Note_on_c, 9, 42, 60
1, 22440, Note_on_c, 4, 49, 100
1, 22440, Note_on_c, 1, 64, 100
1, 22440, Note_on_c, 1, 52, 100
1, 22440, Note_on_c, 9, 38, 100
1, 22440, Note_on_c, 1, 59, 100
1, 22440, Note_on_c, 9, 54, 55
1, 22460, Note_on_c, 9, 42, 0
1, 22466, Note_on_c, 4, 49, 0
1, 22470, Note_on_c, 4, 45, 100
1, 22470, Note_on_c, 9, 42, 60
1, 22480, Note_on_c, 9, 38, 0
1, 22480, Note_on_c, 9, 54, 0
1, 22490, Note_on_c, 9, 42, 0
1, 22492, Note_on_c, 1, 59, 0
1, 22492, Note_on_c, 1, 52, 0
1, 22492, Note_on_c, 1, 64, 0
1, 22496, Note_on_c, 4, 45, 0
1, 22500, Note_on_c, 0, 71, 100
1, 22500, Note_on_c, 1, 64, 100
1, 22500, Note_on_c, 4, 42, 100
1, 22500, Note_on_c, 9, 42, 60
1, 22500, Note_on_c, 9, 35, 100
1, 22500, Note_on_c, 1, 59, 100
1, 22500, Note_on_c, 9, 54, 55
1, 22500, Note_on_c, 1, 52, 100
1, 22520, Note_on_c, 9, 42, 0
1, 22526, Note_on_c, 4, 42, 0
1, 22526, Note_on_c, 0, 71, 0
1, 22530, Note_on_c, 4, 38, 100
1, 22530, Note_on_c, 0, 76, 100
1, 22530, Note_on_c, 9, 42, 60
1, 22540, Note_on_c, 9, 35, 0
1, 22540, Note_on_c, 9, 54, 0
1, 22550, Note_on_c, 9, 42, 0
1, 22552, Note_on_c, 1, 59, 0
1, 22552, Note_on_c, 1, 64, 0
1, 22552, Note_on_c, 1, 52, 0
1, 22556, Note_on_c, 0, 76, 0
1, 22556, Note_on_c, 4, 38, 0
1, 22560, Note_on_c, 2, 64, 100
1, 22560, Note_on_c, 4, 37, 100
1, 22560, Note_on_c, 9, 35, 100
1, 22560, Note_on_c, 2, 73, 100
1, 22560, Note_on_c, 2, 69, 100
1, 22560, Note_on_c, 1, 64, 100
1, 22560, Note_on_c, 1, 73, 100
1, 22560, Note_on_c, 1, 69, 100
1, 22560, Note_on_c, 9, 49, 100
1, 22560, Note_on_c, 9, 42, 60
1, 22560, Note_on_c, 9, 54, 55
1, 22560, Note_on_c, 0, 76, 100
1, 22580, Note_on_c, 9, 42, 0
1, 22590, Note_on_c, 9, 42, 60
1, 22600, Note_on_c, 9, 54, 0
1, 22600, Note_on_c, 9, 35, 0
1, 22610, Note_on_c, 9, 42, 0
1, 22620, Note_on_c, 9, 42, 60
1, 22620, Note_on_c, 9, 54, 55
1, 22638, Note_on_c, 0, 76, 0
1, 22640, Note_on_c, 9, 42, 0
1, 22640, Note_on_c, 9, 49, 0
1, 22650, Note_on_c, 9, 42, 60
1, 22650, Note_on_c, 0, 74, 100
1, 22660, Note_on_c, 9, 54, 0
1, 22664, Note_on_c, 1, 69, 0
1, 22664, Note_on_c, 1, 73, 0
1, 22664, Note_on_c, 4, 37, 0
1, 22664, Note_on_c, 1, 64, 0
1, 22670, Note_on_c, 9, 42, 0
1, 22678, Note_on_c, 2, 73, 0
1, 22678, Note_on_c, 2, 69, 0
1, 22678, Note_on_c, 2, 64, 0
1, 22680, Note_on_c, 2, 62, 100
1, 22680, Note_on_c, 2, 69, 100
1, 22680, Note_on_c, 1, 69, 100
1, 22680, Note_on_c, 1, 66, 100
1, 22680, Note_on_c, 2, 66, 100
1, 22680, Note_on_c, 9, 38, 100
1, 22680, Note_on_c, 9, 42, 60
1, 22680, Note_on_c, 9, 54, 55
1, 22680, Note_on_c, 4, 38, 100
1, 22680, Note_on_c, 1, 62, 100
1, 22700, Note_on_c, 9, 42, 0
1, 22702, Note_on_c, 0, 74, 0
1, 22710, Note_on_c, 9, 42, 60
1, 22710, Note_on_c, 0, 73, 100
1, 22720, Note_on_c, 9, 54, 0
1, 22720, Note_on_c, 9, 38, 0
1, 22730, Note_on_c, 9, 42, 0
1, 22736, Note_on_c, 0, 73, 0
1, 22740, Note_on_c, 0, 74, 100
1, 22740, Note_on_c, 9, 54, 55
1, 22740, Note_on_c, 9, 35, 100
1, 22740, Note_on_c, 9, 42, 60
1, 22760, Note_on_c, 9, 42, 0
1, 22766, Note_on_c, 0, 74, 0
1, 22770, Note_on_c, 0, 73, 100
1, 22770, Note_on_c, 9, 42, 60
1, 22780, Note_on_c, 9, 54, 0
1, 22780, Note_on_c, 9, 35, 0
1, 22784, Note_on_c, 1, 66, 0
1, 22784, Note_on_c, 4, 38, 0
1, 22784, Note_on_c, 1, 62, 0
1, 22784, Note_on_c, 1, 69, 0
1, 22790, Note_on_c, 9, 42, 0
1, 22798, Note_on_c, 2, 69, 0
1, 22798, Note_on_c, 2, 62, 0
1, 22798, Note_on_c, 2, 66, 0
1, 22800, Note_on_c, 1, 69, 100
1, 22800, Note_on_c, 2, 73, 100
1, 22800, Note_on_c, 2, 64, 100
1, 22800, Note_on_c, 1, 73, 100
1, 22800, Note_on_c, 1, 64, 100
1, 22800, Note_on_c, 4, 40, 100
1, 22800, Note_on_c, 2, 69, 100
1, 22800, Note_on_c, 9, 42, 60
1, 22800, Note_on_c, 9, 54, 55
1, 22800, Note_on_c, 9, 35, 100
1, 22800, Note_on_c, 9, 49, 100
1, 22820, Note_on_c, 9, 42, 0
1, 22830, Note_on_c, 9, 42, 60
1, 22840, Note_on_c, 9, 35, 0
1, 22840, Note_on_c, 9, 54, 0
1, 22850, Note_on_c, 9, 42, 0
1, 22860, Note_on_c, 9, 42, 60
1, 22860, Note_on_c, 9, 54, 55
1, 22880, Note_on_c, 9, 42, 0
1, 22880, Note_on_c, 9, 49, 0
1, 22890, Note_on_c, 9, 42, 60
1, 22900, Note_on_c, 9, 54, 0
1, 22910, Note_on_c, 9, 42, 0
1, 22920, Note_on_c, 9, 38, 100
1, 22920, Note_on_c, 9, 54, 55
1, 22920, Note_on_c, 9, 42, 60
1, 22926, Note_on_c, 0, 73, 0
1, 22940, Note_on_c, 9, 42, 0
1, 22950, Note_on_c, 9, 42, 60
1, 22956, Note_on_c, 4, 40, 0
1, 22960, Note_on_c, 9, 38, 0
1, 22960, Note_on_c, 9, 54, 0
1, 22970, Note_on_c, 9, 42, 0
1, 22980, Note_on_c, 4, 45, 100
1, 22980, Note_on_c, 0, 73, 100
1, 22980, Note_on_c, 9, 54, 55
1, 22980, Note_on_c, 9, 42, 60
1, 23000, Note_on_c, 9, 42, 0
1, 23008, Note_on_c, 1, 64, 0
1, 23008, Note_on_c, 1, 73, 0
1, 23008, Note_on_c, 1, 69, 0
1, 23010, Note_on_c, 9, 42, 60
1, 23020, Note_on_c, 9, 54, 0
1, 23030, Note_on_c, 9, 42, 0
1, 23032, Note_on_c, 0, 73, 0
1, 23032, Note_on_c, 4, 45, 0
1, 23038, Note_on_c, 2, 64, 0
1, 23038, Note_on_c, 2, 69, 0
1, 23038, Note_on_c, 2, 73, 0
1, 23040, Note_on_c, 1, 71, 100
1, 23040, Note_on_c, 9, 54, 55
1, 23040, Note_on_c, 2, 66, 100
1, 23040, Note_on_c, 1, 66, 100
1, 23040, Note_on_c, 1, 62, 100
1, 23040, Note_on_c, 9, 35, 100
1, 23040, Note_on_c, 2, 62, 100
1, 23040, Note_on_c, 2, 71, 100
1, 23040, Note_on_c, 0, 74, 100
1, 23040, Note_on_c, 9, 49, 100
1, 23040, Note_on_c, 4, 47, 100
1, 23040, Note_on_c, 9, 42, 60
1, 23060, Note_on_c, 9, 42, 0
1, 23070, Note_on_c, 9, 42, 60
1, 23080, Note_on_c, 9, 35, 0
1, 23080, Note_on_c, 9, 54, 0
1, 23090, Note_on_c, 9, 42, 0
1, 23100, Note_on_c, 9, 42, 60
1, 23100, Note_on_c, 9, 54, 55
1, 23118, Note_on_c, 0, 74, 0
1, 23120, Note_on_c, 9, 42, 0
1, 23120, Note_on_c, 9, 49, 0
1, 23130, Note_on_c, 0, 73, 100
1, 23130, Note_on_c, 9, 42, 60
1, 23140, Note_on_c, 9, 54, 0
1, 23144, Note_on_c, 1, 71, 0
1, 23144, Note_on_c, 1, 62, 0
1, 23144, Note_on_c, 1, 66, 0
1, 23144, Note_on_c, 4, 47, 0
1, 23150, Note_on_c, 9, 42, 0
1, 23158, Note_on_c, 2, 66, 0
1, 23158, Note_on_c, 2, 71, 0
1, 23158, Note_on_c, 2, 62, 0
1, 23160, Note_on_c, 1, 64, 100
1, 23160, Note_on_c, 2, 73, 100
1, 23160, Note_on_c, 2, 69, 100
1, 23160, Note_on_c, 2, 64, 100
1, 23160, Note_on_c, 4, 45, 100
1, 23160, Note_on_c, 1, 69, 100
1, 23160, Note_on_c, 9, 54, 55
1, 23160, Note_on_c, 9, 38, 100
1, 23160, Note_on_c, 9, 42, 60
1, 23160, Note_on_c, 1, 73, 100
1, 23180, Note_on_c, 9, 42, 0
1, 23190, Note_on_c, 9, 35, 100
1, 23190, Note_on_c, 9, 42, 60
1, 23200, Note_on_c, 9, 38, 0
1, 23200, Note_on_c, 9, 54, 0
1, 23208, Note_on_c, 0, 73, 0
1, 23210, Note_on_c, 9, 42, 0
1, 23220, Note_on_c, 9, 54, 55
1, 23220, Note_on_c, 0, 71, 100
1, 23220, Note_on_c, 9, 42, 60
1, 23230, Note_on_c, 9, 35, 0
1, 23240, Note_on_c, 9, 42, 0
1, 23250, Note_on_c, 9, 42, 60
1, 23250, Note_on_c, 9, 35, 100
1, 23260, Note_on_c, 9, 54, 0
1, 23264, Note_on_c, 1, 64, 0
1, 23264, Note_on_c, 1, 73, 0
1, 23264, Note_on_c, 1, 69, 0
1, 23264, Note_on_c, 4, 45, 0
1, 23270, Note_on_c, 9, 42, 0
1, 23272, Note_on_c, 0, 71, 0
1, 23278, Note_on_c, 2, 64, 0
1, 23278, Note_on_c, 2, 73, 0
1, 23278, Note_on_c, 2, 69, 0
1, 23280, Note_on_c, 2, 68, 100
1, 23280, Note_on_c, 4, 44, 100
1, 23280, Note_on_c, 1, 68, 100
1, 23280, Note_on_c, 0, 71, 100
1, 23280, Note_on_c, 9, 42, 60
1, 23280, Note_on_c, 9, 54, 55
1, 23280, Note_on_c, 2, 64, 100
1, 23280, Note_on_c, 1, 64, 100
1, 23280, Note_on_c, 2, 71, 100
1, 23280, Note_on_c, 1, 71, 100
1, 23290, Note_on_c, 9, 35, 0
1, 23300, Note_on_c, 9, 42, 0
1, 23306, Note_on_c, 0, 71, 0
1, 23310, Note_on_c, 9, 42, 60
1, 23310, Note_on_c, 0, 69, 100
1, 23320, Note_on_c, 9, 54, 0
1, 23330, Note_on_c, 9, 42, 0
1, 23336, Note_on_c, 0, 69, 0
1, 23340, Note_on_c, 9, 54, 55
1, 23340, Note_on_c, 0, 68, 100
1, 23340, Note_on_c, 9, 42, 60
1, 23360, Note_on_c, 9, 42, 0
1, 23370, Note_on_c, 9, 42, 60
1, 23380, Note_on_c, 9, 54, 0
1, 23390, Note_on_c, 9, 42, 0
1, 23400, Note_on_c, 9, 38, 100
1, 23400, Note_on_c, 9, 42, 60
1, 23400, Note_on_c, 9, 54, 55
1, 23420, Note_on_c, 9, 42, 0
1, 23430, Note_on_c, 9, 42, 60
1, 23436, Note_on_c, 4, 44, 0
1, 23440, Note_on_c, 9, 38, 0
1, 23440, Note_on_c, 9, 54, 0
1, 23444, Note_on_c, 0, 68, 0
1, 23450, Note_on_c, 9, 42, 0
1, 23460, Note_on_c, 4, 40, 100
1, 23460, Note_on_c, 9, 54, 55
1, 23460, Note_on_c, 9, 35, 100
1, 23460, Note_on_c, 0, 71, 100
1, 23460, Note_on_c, 9, 42, 60
1, 23480, Note_on_c, 9, 42, 0
1, 23486, Note_on_c, 0, 71, 0
1, 23488, Note_on_c, 1, 64, 0
1, 23488, Note_on_c, 1, 71, 0
1, 23488, Note_on_c, 1, 68, 0
1, 23490, Note_on_c, 9, 42, 60
1, 23490, Note_on_c, 0, 76, 100
1, 23500, Note_on_c, 9, 54, 0
1, 23500, Note_on_c, 9, 35, 0
1, 23510, Note_on_c, 9, 42, 0
1, 23512, Note_on_c, 4, 40, 0
1, 23516, Note_on_c, 0, 76, 0
1, 23518, Note_on_c, 2, 71, 0
1, 23518, Note_on_c, 2, 64, 0
1, 23518, Note_on_c, 2, 68, 0
1, 23520, Note_on_c, 9, 54, 55
1, 23520, Note_on_c, 2, 73, 100
1, 23520, Note_on_c, 9, 35, 100
1, 23520, Note_on_c, 9, 49, 100
1, 23520, Note_on_c, 4, 37, 100
1, 23520, Note_on_c, 1, 73, 100
1, 23520, Note_on_c, 2, 69, 100
1, 23520, Note_on_c, 0, 76, 100
1, 23520, Note_on_c, 9, 42, 60
1, 23520, Note_on_c, 1, 69, 100
1, 23520, Note_on_c, 1, 64, 100
1, 23520, Note_on_c, 2, 64, 100
1, 23540, Note_on_c, 9, 42, 0
1, 23550, Note_on_c, 9, 42, 60
1, 23560, Note_on_c, 9, 35, 0
1, 23560, Note_on_c, 9, 54, 0
1, 23570, Note_on_c, 9, 42, 0
1, 23580, Note_on_c, 9, 54, 55
1, 23580, Note_on_c, 9, 42, 60
1, 23598, Note_on_c, 0, 76, 0
1, 23600, Note_on_c, 9, 42, 0
1, 23600, Note_on_c, 9, 49, 0
1, 23610, Note_on_c, 0, 74, 100
1, 23610, Note_on_c, 9, 42, 60
1, 23620, Note_on_c, 9, 54, 0
1, 23624, Note_on_c, 4, 37, 0
1, 23624, Note_on_c, 1, 64, 0
1, 23624, Note_on_c, 1, 69, 0
1, 23624, Note_on_c, 1, 73, 0
1, 23630, Note_on_c, 9, 42, 0
1, 23638, Note_on_c, 2, 73, 0
1, 23638, Note_on_c, 2, 64, 0
1, 23638, Note_on_c, 2, 69, 0
1, 23640, Note_on_c, 9, 38, 100
1, 23640, Note_on_c, 2, 69, 100
1, 23640, Note_on_c, 4, 38, 100
1, 23640, Note_on_c, 1, 66, 100
1, 23640, Note_on_c, 2, 66, 100
1, 23640, Note_on_c, 2, 62, 100
1, 23640, Note_on_c, 9, 42, 60
1, 23640, Note_on_c, 1, 62, 100
1, 23640, Note_on_c, 1, 69, 100
1, 23640, Note_on_c, 9, 54, 55
1, 23660, Note_on_c, 9, 42, 0
1, 23662, Note_on_c, 0, 74, 0
1, 23670, Note_on_c, 0, 73, 100
1, 23670, Note_on_c, 9, 42, 60
1, 23680, Note_on_c, 9, 38, 0
1, 23680, Note_on_c, 9, 54, 0
1, 23690, Note_on_c, 9, 42, 0
1, 23696, Note_on_c, 0, 73, 0
1, 23700, Note_on_c, 0, 74, 100
1, 23700, Note_on_c, 9, 54, 55
1, 23700, Note_on_c, 9, 42, 60
1, 23700, Note_on_c, 9, 35, 100
1, 23720, Note_on_c, 9, 42, 0
1, 23726, Note_on_c, 0, 74, 0
1, 23730, Note_on_c, 9, 42, 60
1, 23730, Note_on_c, 0, 73, 100
1, 23740, Note_on_c, 9, 54, 0
1, 23740, Note_on_c, 9, 35, 0
1, 23744, Note_on_c, 4, 38, 0
1, 23744, Note_on_c, 1, 69, 0
1, 23744, Note_on_c, 1, 62, 0
1, 23744, Note_on_c, 1, 66, 0
1, 23750, Note_on_c, 9, 42, 0
1, 23758, Note_on_c, 2, 69, 0
1, 23758, Note_on_c, 2, 66, 0
1, 23758, Note_on_c, 2, 62, 0
1, 23760, Note_on_c, 9, 35, 100
1, 23760, Note_on_c, 2, 69, 100
1, 23760, Note_on_c, 2, 73, 100
1, 23760, Note_on_c, 4, 40, 100
1, 23760, Note_on_c, 9, 42, 60
1, 23760, Note_on_c, 2, 64, 100
1, 23760, Note_on_c, 1, 73, 100
1, 23760, Note_on_c, 1, 69, 100
1, 23760, Note_on_c, 9, 54, 55
1, 23760, Note_on_c, 1, 64, 100
1, 23780, Note_on_c, 9, 42, 0
1, 23790, Note_on_c, 9, 42, 60
1, 23800, Note_on_c, 9, 54, 0
1, 23800, Note_on_c, 9, 35, 0
1, 23810, Note_on_c, 9, 42, 0
1, 23820, Note_on_c, 9, 42, 60
1, 23820, Note_on_c, 9, 54, 55
1, 23840, Note_on_c, 9, 42, 0
1, 23850, Note_on_c, 9, 42, 60
1, 23860, Note_on_c, 9, 54, 0
1, 23870, Note_on_c, 9, 42, 0
1, 23880, Note_on_c, 9, 38, 100
1, 23880, Note_on_c, 9, 42, 60
1, 23880, Note_on_c, 9, 54, 55
1, 23886, Note_on_c, 0, 73, 0
1, 23900, Note_on_c, 9, 42, 0
1, 23910, Note_on_c, 9, 42, 60
1, 23916, Note_on_c, 4, 40, 0
1, 23920, Note_on_c, 9, 38, 0
1, 23920, Note_on_c, 9, 54, 0
1, 23930, Note_on_c, 9, 42, 0
1, 23940, Note_on_c, 9, 42, 60
1, 23940, Note_on_c, 4, 45, 100
1, 23940, Note_on_c, 9, 54, 55
1, 23940, Note_on_c, 0, 73, 100
1, 23960, Note_on_c, 9, 42, 0
1, 23966, Note_on_c, 0, 73, 0
1, 23968, Note_on_c, 1, 73, 0
1, 23968, Note_on_c, 1, 69, 0
1, 23968, Note_on_c, 1, 64, 0
1, 23970, Note_on_c, 9, 42, 60
1, 23970, Note_on_c, 0, 74, 100
1, 23980, Note_on_c, 9, 54, 0
1, 23990, Note_on_c, 9, 42, 0
1, 23992, Note_on_c, 4, 45, 0
1, 23996, Note_on_c, 0, 74, 0
1, 23998, Note_on_c, 2, 69, 0
1, 23998, Note_on_c, 2, 64, 0
1, 23998, Note_on_c, 2, 73, 0
1, 24000, Note_on_c, 2, 62, 100
1, 24000, Note_on_c, 9, 35, 100
1, 24000, Note_on_c, 9, 42, 60
1, 24000, Note_on_c, 2, 71, 100
1, 24000, Note_on_c, 2, 66, 100
1, 24000, Note_on_c, 0, 74, 100
1, 24000, Note_on_c, 9, 54, 55
1, 24000, Note_on_c, 1, 71, 100
1, 24000, Note_on_c, 1, 62, 100
1, 24000, Note_on_c, 1, 66, 100
1, 24000, Note_on_c, 4, 47, 100
1, 24020, Note_on_c, 9, 42, 0
1, 24030, Note_on_c, 9, 42, 60
1, 24040, Note_on_c, 9, 54, 0
1, 24040, Note_on_c, 9, 35, 0
1, 24050, Note_on_c, 9, 42, 0
1, 24060, Note_on_c, 9, 42, 60
1, 24060, Note_on_c, 9, 54, 55
1, 24080, Note_on_c, 9, 42, 0
1, 24090, Note_on_c, 9, 42, 60
1, 24100, Note_on_c, 9, 54, 0
1, 24104, Note_on_c, 4, 47, 0
1, 24104, Note_on_c, 1, 71, 0
1, 24104, Note_on_c, 1, 66, 0
1, 24104, Note_on_c, 1, 62, 0
1, 24104, Note_on_c, 0, 74, 0
1, 24110, Note_on_c, 9, 42, 0
1, 24118, Note_on_c, 2, 66, 0
1, 24118, Note_on_c, 2, 62, 0
1, 24118, Note_on_c, 2, 71, 0
1, 24120, Note_on_c, 9, 54, 55
1, 24120, Note_on_c, 2, 73, 100
1, 24120, Note_on_c, 9, 42, 60
1, 24120, Note_on_c, 9, 38, 100
1, 24120, Note_on_c, 0, 73, 100
1, 24120, Note_on_c, 2, 69, 100
1, 24120, Note_on_c, 1, 64, 100
1, 24120, Note_on_c, 2, 64, 100
1, 24120, Note_on_c, 1, 73, 100
1, 24120, Note_on_c, 1, 69, 100
1, 24120, Note_on_c, 4, 45, 100
1, 24140, Note_on_c, 9, 42, 0
1, 24150, Note_on_c, 9, 35, 100
1, 24150, Note_on_c, 9, 42, 60
1, 24160, Note_on_c, 9, 38, 0
1, 24160, Note_on_c, 9, 54, 0
1, 24170, Note_on_c, 9, 42, 0
1, 24172, Note_on_c, 0, 73, 0
1, 24180, Note_on_c, 9, 42, 60
1, 24180, Note_on_c, 9, 54, 55
1, 24180, Note_on_c, 0, 71, 100
1, 24190, Note_on_c, 9, 35, 0
1, 24200, Note_on_c, 9, 42, 0
1, 24206, Note_on_c, 0, 71, 0
1, 24210, Note_on_c, 0, 69, 100
1, 24210, Note_on_c, 9, 35, 100
1, 24210, Note_on_c, 9, 42, 60
1, 24220, Note_on_c, 9, 54, 0
1, 24224, Note_on_c, 1, 73, 0
1, 24224, Note_on_c, 1, 69, 0
1, 24224, Note_on_c, 4, 45, 0
1, 24224, Note_on_c, 1, 64, 0
1, 24230, Note_on_c, 9, 42, 0
1, 24236, Note_on_c, 0, 69, 0
1, 24238, Note_on_c, 2, 69, 0
1, 24238, Note_on_c, 2, 64, 0
1, 24238, Note_on_c, 2, 73, 0
1, 24240, Note_on_c, 1, 64, 100
1, 24240, Note_on_c, 0, 71, 100
1, 24240, Note_on_c, 2, 71, 100
1, 24240, Note_on_c, 2, 64, 100
1, 24240, Note_on_c, 2, 68, 100
1, 24240, Note_on_c, 9, 42, 60
1, 24240, Note_on_c, 9, 54, 55
1, 24240, Note_on_c, 1, 68, 100
1, 24240, Note_on_c, 1, 71, 100
1, 24240, Note_on_c, 4, 44, 100
1, 24250, Note_on_c, 9, 35, 0
1, 24260, Note_on_c, 9, 42, 0
1, 24266, Note_on_c, 0, 71, 0
1, 24270, Note_on_c, 9, 47, 100
1, 24270, Note_on_c, 0, 69, 100
1, 24270, Note_on_c, 9, 42, 60
1, 24280, Note_on_c, 9, 54, 0
1, 24290, Note_on_c, 9, 42, 0
1, 24290, Note_on_c, 9, 47, 0
1, 24300, Note_on_c, 9, 54, 55
1, 24300, Note_on_c, 9, 42, 60
1, 24320, Note_on_c, 9, 42, 0
1, 24322, Note_on_c, 0, 69, 0
1, 24330, Note_on_c, 9, 42, 60
1, 24330, Note_on_c, 9, 47, 100
1, 24330, Note_on_c, 0, 68, 100
1, 24340, Note_on_c, 9, 54, 0
1, 24350, Note_on_c, 9, 47, 0
1, 24350, Note_on_c, 9, 42, 0
1, 24356, Note_on_c, 0, 68, 0
1, 24360, Note_on_c, 0, 68, 100
1, 24360, Note_on_c, 9, 42, 60
1, 24360, Note_on_c, 9, 54, 55
1, 24360, Note_on_c, 9, 38, 100
1, 24380, Note_on_c, 9, 42, 0
1, 24390, Note_on_c, 9, 43, 100
1, 24390, Note_on_c, 9, 42, 60
1, 24396, Note_on_c, 4, 44, 0
1, 24400, Note_on_c, 9, 54, 0
1, 24400, Note_on_c, 9, 38, 0
1, 24410, Note_on_c, 9, 43, 0
1, 24410, Note_on_c, 9, 42, 0
1, 24420, Note_on_c, 9, 35, 100
1, 24420, Note_on_c, 9, 45, 100
1, 24420, Note_on_c, 4, 40, 100
1, 24420, Note_on_c, 9, 54, 55
1, 24420, Note_on_c, 9, 42, 60
1, 24440, Note_on_c, 9, 42, 0
1, 24440, Note_on_c, 9, 45, 0
1, 24448, Note_on_c, 1, 68, 0
1, 24448, Note_on_c, 1, 64, 0
1, 24448, Note_on_c, 1, 71, 0
1, 24450, Note_on_c, 9, 42, 60
1, 24450, Note_on_c, 9, 47, 100
1, 24460, Note_on_c, 9, 35, 0
1, 24460, Note_on_c, 9, 54, 0
1, 24464, Note_on_c, 0, 68, 0
1, 24470, Note_on_c, 9, 42, 0
1, 24470, Note_on_c, 9, 47, 0
1, 24472, Note_on_c, 4, 40, 0
1, 24478, Note_on_c, 2, 64, 0
1, 24478, Note_on_c, 2, 71, 0
1, 24478, Note_on_c, 2, 68, 0
1, 24480, Note_on_c, 9, 35, 100
1, 24480, Note_on_c, 9, 54, 55
1, 24480, Note_on_c, 9, 53, 100
1, 24480, Note_on_c, 9, 49, 100
1, 24480, Note_on_c, 4, 35, 100
1, 24500, Note_on_c, 9, 54, 0
1, 24510, Note_on_c, 9, 54, 55
1, 24520, Note_on_c, 9, 35, 0
1, 24530, Note_on_c, 9, 54, 0
1, 24532, Note_on_c, 4, 35, 0
1, 24540, Note_on_c, 1, 57, 85
1, 24540, Note_on_c, 1, 52, 85
1, 24540, Note_on_c, 1, 61, 85
1, 24540, Note_on_c, 2, 61, 100
1, 24540, Note_on_c, 2, 57, 100
1, 24540, Note_on_c, 4, 47, 100
1, 24540, Note_on_c, 9, 54, 55
1, 24540, Note_on_c, 0, 69, 100
1, 24540, Note_on_c, 2, 52, 100
1, 24560, Note_on_c, 9, 54, 0
1, 24560, Note_on_c, 9, 53, 0
1, 24560, Note_on_c, 9, 49, 0
1, 24570, Note_on_c, 9, 54, 55
1, 24590, Note_on_c, 9, 54, 0
1, 24592, Note_on_c, 1, 61, 0
1, 24592, Note_on_c, 1, 52, 0
1, 24592, Note_on_c, 0, 69, 0
1, 24592, Note_on_c, 1, 57, 0
1, 24598, Note_on_c, 2, 57, 0
1, 24598, Note_on_c, 2, 52, 0
1, 24598, Note_on_c, 2, 61, 0
1, 24600, Note_on_c, 0, 71, 100
1, 24600, Note_on_c, 2, 54, 100
1, 24600, Note_on_c, 9, 53, 100
1, 24600, Note_on_c, 9, 38, 100
1, 24600, Note_on_c, 2, 59, 100
1, 24600, Note_on_c, 1, 54, 85
1, 24600, Note_on_c, 9, 54, 55
1, 24600, Note_on_c, 2, 64, 100
1, 24600, Note_on_c, 1, 59, 85
1, 24600, Note_on_c, 1, 62, 85
1, 24618, Note_on_c, 4, 47, 0
1, 24620, Note_on_c, 9, 54, 0
1, 24630, Note_on_c, 9, 54, 55
1, 24630, Note_on_c, 4, 47, 100
1, 24640, Note_on_c, 9, 38, 0
1, 24650, Note_on_c, 9, 54, 0
1, 24656, Note_on_c, 4, 47, 0
1, 24660, Note_on_c, 4, 35, 100
1, 24660, Note_on_c, 9, 54, 55
1, 24660, Note_on_c, 9, 35, 100
1, 24678, Note_on_c, 0, 71, 0
1, 24680, Note_on_c, 9, 54, 0
1, 24680, Note_on_c, 9, 53, 0
1, 24690, Note_on_c, 0, 62, 100
1, 24690, Note_on_c, 9, 54, 55
1, 24700, Note_on_c, 9, 35, 0
1, 24704, Note_on_c, 1, 62, 0
1, 24704, Note_on_c, 1, 59, 0
1, 24704, Note_on_c, 1, 54, 0
1, 24710, Note_on_c, 9, 54, 0
1, 24712, Note_on_c, 4, 35, 0
1, 24716, Note_on_c, 0, 62, 0
1, 24718, Note_on_c, 2, 59, 0
1, 24718, Note_on_c, 2, 64, 0
1, 24718, Note_on_c, 2, 54, 0
1, 24720, Note_on_c, 9, 53, 100
1, 24720, Note_on_c, 4, 47, 100
1, 24720, Note_on_c, 2, 61, 100
1, 24720, Note_on_c, 9, 54, 55
1, 24720, Note_on_c, 1, 52, 85
1, 24720, Note_on_c, 1, 61, 85
1, 24720, Note_on_c, 2, 52, 100
1, 24720, Note_on_c, 2, 57, 100
1, 24720, Note_on_c, 1, 57, 85
1, 24720, Note_on_c, 0, 69, 100
1, 24740, Note_on_c, 9, 54, 0
1, 24750, Note_on_c, 9, 54, 55
1, 24770, Note_on_c, 9, 54, 0
1, 24772, Note_on_c, 0, 69, 0
1, 24780, Note_on_c, 0, 69, 100
1, 24780, Note_on_c, 9, 35, 100
1, 24780, Note_on_c, 9, 54, 55
1, 24798, Note_on_c, 1, 57, 0
1, 24798, Note_on_c, 1, 52, 0
1, 24798, Note_on_c, 4, 47, 0
1, 24798, Note_on_c, 1, 61, 0
1, 24800, Note_on_c, 9, 53, 0
1, 24800, Note_on_c, 9, 54, 0
1, 24806, Note_on_c, 0, 69, 0
1, 24808, Note_on_c, 2, 57, 0
1, 24808, Note_on_c, 2, 52, 0
1, 24808, Note_on_c, 2, 61, 0
1, 24810, Note_on_c, 2, 54, 100
1, 24810, Note_on_c, 1, 62, 85
1, 24810, Note_on_c, 1, 54, 85
1, 24810, Note_on_c, 1, 59, 85
1, 24810, Note_on_c, 0, 71, 100
1, 24810, Note_on_c, 2, 59, 100
1, 24810, Note_on_c, 9, 54, 55
1, 24810, Note_on_c, 4, 47, 100
1, 24810, Note_on_c, 2, 62, 100
1, 24820, Note_on_c, 9, 35, 0
1, 24830, Note_on_c, 9, 54, 0
1, 24836, Note_on_c, 4, 47, 0
1, 24840, Note_on_c, 9, 54, 55
1, 24840, Note_on_c, 9, 53, 100
1, 24840, Note_on_c, 9, 38, 100
1, 24840, Note_on_c, 4, 35, 100
1, 24860, Note_on_c, 9, 54, 0
1, 24862, Note_on_c, 0, 71, 0
1, 24870, Note_on_c, 0, 71, 100
1, 24870, Note_on_c, 9, 54, 55
1, 24880, Note_on_c, 9, 38, 0
1, 24890, Note_on_c, 9, 54, 0
1, 24892, Note_on_c, 4, 35, 0
1, 24900, Note_on_c, 4, 47, 100
1, 24900, Note_on_c, 9, 54, 55
1, 24914, Note_on_c, 1, 59, 0
1, 24914, Note_on_c, 1, 54, 0
1, 24914, Note_on_c, 1, 62, 0
1, 24920, Note_on_c, 9, 53, 0
1, 24920, Note_on_c, 9, 54, 0
1, 24922, Note_on_c, 0, 71, 0
1, 24930, Note_on_c, 9, 54, 55
1, 24930, Note_on_c, 0, 62, 100
1, 24950, Note_on_c, 9, 54, 0
1, 24956, Note_on_c, 0, 62, 0
1, 24958, Note_on_c, 2, 59, 0
1, 24958, Note_on_c, 2, 62, 0
1, 24958, Note_on_c, 2, 54, 0
1, 24960, Note_on_c, 2, 57, 100
1, 24960, Note_on_c, 9, 35, 100
1, 24960, Note_on_c, 9, 53, 100
1, 24960, Note_on_c, 2, 61, 100
1, 24960, Note_on_c, 1, 61, 85
1, 24960, Note_on_c, 1, 52, 85
1, 24960, Note_on_c, 2, 52, 100
1, 24960, Note_on_c, 9, 54, 55
1, 24960, Note_on_c, 1, 57, 85
1, 24960, Note_on_c, 0, 69, 100
1, 24978, Note_on_c, 4, 47, 0
1, 24980, Note_on_c, 9, 54, 0
1, 24990, Note_on_c, 4, 47, 100
1, 24990, Note_on_c, 9, 54, 55
1, 25000, Note_on_c, 9, 35, 0
1, 25010, Note_on_c, 9, 54, 0
1, 25012, Note_on_c, 0, 69, 0
1, 25016, Note_on_c, 4, 47, 0
1, 25020, Note_on_c, 0, 69, 100
1, 25020, Note_on_c, 9, 54, 55
1, 25020, Note_on_c, 4, 35, 100
1, 25038, Note_on_c, 1, 57, 0
1, 25038, Note_on_c, 1, 61, 0
1, 25038, Note_on_c, 1, 52, 0
1, 25040, Note_on_c, 9, 54, 0
1, 25040, Note_on_c, 9, 53, 0
1, 25046, Note_on_c, 0, 69, 0
1, 25048, Note_on_c, 2, 52, 0
1, 25048, Note_on_c, 2, 57, 0
1, 25048, Note_on_c, 2, 61, 0
1, 25050, Note_on_c, 2, 59, 100
1, 25050, Note_on_c, 2, 54, 100
1, 25050, Note_on_c, 1, 54, 85
1, 25050, Note_on_c, 2, 62, 100
1, 25050, Note_on_c, 1, 59, 85
1, 25050, Note_on_c, 1, 62, 85
1, 25050, Note_on_c, 9, 54, 55
1, 25050, Note_on_c, 0, 71, 100
1, 25070, Note_on_c, 9, 54, 0
1, 25072, Note_on_c, 4, 35, 0
1, 25080, Note_on_c, 9, 53, 100
1, 25080, Note_on_c, 9, 54, 55
1, 25080, Note_on_c, 9, 38, 100
1, 25080, Note_on_c, 4, 47, 100
1, 25100, Note_on_c, 9, 54, 0
1, 25110, Note_on_c, 9, 54, 55
1, 25120, Note_on_c, 9, 38, 0
1, 25128, Note_on_c, 0, 71, 0
1, 25130, Note_on_c, 9, 54, 0
1, 25140, Note_on_c, 9, 54, 55
1, 25140, Note_on_c, 0, 69, 100
1, 25140, Note_on_c, 9, 35, 100
1, 25154, Note_on_c, 1, 54, 0
1, 25154, Note_on_c, 1, 62, 0
1, 25154, Note_on_c, 1, 59, 0
1, 25158, Note_on_c, 4, 47, 0
1, 25160, Note_on_c, 9, 53, 0
1, 25160, Note_on_c, 9, 54, 0
1, 25170, Note_on_c, 4, 45, 100
1, 25170, Note_on_c, 9, 54, 55
1, 25180, Note_on_c, 9, 35, 0
1, 25190, Note_on_c, 9, 54, 0
1, 25192, Note_on_c, 0, 69, 0
1, 25196, Note_on_c, 4, 45, 0
1, 25198, Note_on_c, 2, 59, 0
1, 25198, Note_on_c, 2, 62, 0
1, 25198, Note_on_c, 2, 54, 0
1, 25200, Note_on_c, 9, 53, 100
1, 25200, Note_on_c, 1, 54, 85
1, 25200, Note_on_c, 4, 38, 100
1, 25200, Note_on_c, 0, 74, 100
1, 25200, Note_on_c, 1, 57, 85
1, 25200, Note_on_c, 2, 62, 100
1, 25200, Note_on_c, 2, 57, 100
1, 25200, Note_on_c, 9, 54, 55
1, 25200, Note_on_c, 2, 54, 100
1, 25200, Note_on_c, 1, 62, 85
1, 25220, Note_on_c, 9, 54, 0
1, 25230, Note_on_c, 9, 54, 55
1, 25250, Note_on_c, 9, 54, 0
1, 25252, Note_on_c, 0, 74, 0
1, 25260, Note_on_c, 9, 35, 100
1, 25260, Note_on_c, 9, 54, 55
1, 25260, Note_on_c, 0, 71, 100
1, 25278, Note_on_c, 4, 38, 0
1, 25280, Note_on_c, 9, 54, 0
1, 25280, Note_on_c, 9, 53, 0
1, 25290, Note_on_c, 9, 54, 55
1, 25290, Note_on_c, 4, 47, 100
1, 25300, Note_on_c, 9, 35, 0
1, 25304, Note_on_c, 1, 54, 0
1, 25304, Note_on_c, 1, 57, 0
1, 25304, Note_on_c, 1, 62, 0
1, 25310, Note_on_c, 9, 54, 0
1, 25312, Note_on_c, 0, 71, 0
1, 25316, Note_on_c, 4, 47, 0
1, 25318, Note_on_c, 2, 54, 0
1, 25318, Note_on_c, 2, 62, 0
1, 25318, Note_on_c, 2, 57, 0
1, 25320, Note_on_c, 2, 59, 100
1, 25320, Note_on_c, 4, 40, 100
1, 25320, Note_on_c, 9, 38, 100
1, 25320, Note_on_c, 9, 53, 100
1, 25320, Note_on_c, 9, 54, 55
1, 25320, Note_on_c, 1, 64, 85
1, 25320, Note_on_c, 2, 56, 100
1, 25320, Note_on_c, 2, 64, 100
1, 25320, Note_on_c, 1, 56, 85
1, 25320, Note_on_c, 0, 71, 100
1, 25320, Note_on_c, 1, 59, 85
1, 25340, Note_on_c, 9, 54, 0
1, 25350, Note_on_c, 9, 54, 55
1, 25360, Note_on_c, 9, 38, 0
1, 25370, Note_on_c, 9, 54, 0
1, 25380, Note_on_c, 9, 54, 55
1, 25398, Note_on_c, 4, 40, 0
1, 25400, Note_on_c, 9, 54, 0
1, 25400, Note_on_c, 9, 53, 0
1, 25410, Note_on_c, 4, 47, 100
1, 25410, Note_on_c, 9, 54, 55
1, 25424, Note_on_c, 1, 56, 0
1, 25424, Note_on_c, 1, 59, 0
1, 25424, Note_on_c, 0, 71, 0
1, 25424, Note_on_c, 1, 64, 0
1, 25430, Note_on_c, 9, 54, 0
1, 25436, Note_on_c, 4, 47, 0
1, 25438, Note_on_c, 2, 64, 0
1, 25438, Note_on_c, 2, 56, 0
1, 25438, Note_on_c, 2, 59, 0
1, 25440, Note_on_c, 9, 35, 100
1, 25440, Note_on_c, 9, 53, 100
1, 25440, Note_on_c, 9, 54, 55
1, 25440, Note_on_c, 4, 35, 100
1, 25460, Note_on_c, 9, 54, 0
1, 25470, Note_on_c, 0, 66, 100
1, 25470, Note_on_c, 9, 54, 55
1, 25480, Note_on_c, 9, 35, 0
1, 25490, Note_on_c, 9, 54, 0
1, 25492, Note_on_c, 4, 35, 0
1, 25496, Note_on_c, 0, 66, 0
1, 25500, Note_on_c, 2, 54, 100
1, 25500, Note_on_c, 2, 64, 100
1, 25500, Note_on_c, 1, 59, 85
1, 25500, Note_on_c, 9, 54, 55
1, 25500, Note_on_c, 4, 47, 100
1, 25500, Note_on_c, 2, 59, 100
1, 25500, Note_on_c, 1, 54, 85
1, 25500, Note_on_c, 0, 74, 100
1, 25500, Note_on_c, 1, 62, 85
1, 25520, Note_on_c, 9, 54, 0
1, 25520, Note_on_c, 9, 53, 0
1, 25530, Note_on_c, 9, 54, 55
1, 25550, Note_on_c, 9, 54, 0
1, 25552, Note_on_c, 0, 74, 0
1, 25560, Note_on_c, 9, 53, 100
1, 25560, Note_on_c, 9, 38, 100
1, 25560, Note_on_c, 9, 54, 55
1, 25560, Note_on_c, 0, 74, 100
1, 25578, Note_on_c, 4, 47, 0
1, 25580, Note_on_c, 9, 54, 0
1, 25590, Note_on_c, 9, 54, 55
1, 25590, Note_on_c, 4, 47, 100
1, 25600, Note_on_c, 9, 38, 0
1, 25610, Note_on_c, 9, 54, 0
1, 25616, Note_on_c, 4, 47, 0
1, 25620, Note_on_c, 9, 54, 55
1, 25620, Note_on_c, 9, 35, 100
1, 25620, Note_on_c, 4, 35, 100
1, 25640, Note_on_c, 9, 54, 0
1, 25640, Note_on_c, 9, 53, 0
1, 25650, Note_on_c, 9, 54, 55
1, 25656, Note_on_c, 1, 59, 0
1, 25656, Note_on_c, 1, 54, 0
1, 25656, Note_on_c, 1, 62, 0
1, 25660, Note_on_c, 9, 35, 0
1, 25664, Note_on_c, 0, 74, 0
1, 25670, Note_on_c, 9, 54, 0
1, 25672, Note_on_c, 4, 35, 0
1, 25680, Note_on_c, 2, 64, 0
1, 25680, Note_on_c, 2, 54, 0
1, 25680, Note_on_c, 2, 59, 0
1, 25680, Note_on_c, 0, 73, 100
1, 25680, Note_on_c, 1, 52, 85
1, 25680, Note_on_c, 4, 47, 100
1, 25680, Note_on_c, 9, 53, 100
1, 25680, Note_on_c, 1, 57, 85
1, 25680, Note_on_c, 9, 54, 55
1, 25680, Note_on_c, 2, 61, 100
1, 25680, Note_on_c, 2, 52, 100
1, 25680, Note_on_c, 2, 57, 100
1, 25680, Note_on_c, 1, 61, 85
1, 25700, Note_on_c, 9, 54, 0
1, 25710, Note_on_c, 9, 54, 55
1, 25730, Note_on_c, 9, 54, 0
1, 25732, Note_on_c, 0, 73, 0
1, 25740, Note_on_c, 9, 54, 55
1, 25740, Note_on_c, 9, 35, 100
1, 25740, Note_on_c, 0, 73, 100
1, 25758, Note_on_c, 1, 57, 0
1, 25758, Note_on_c, 1, 61, 0
1, 25758, Note_on_c, 1, 52, 0
1, 25758, Note_on_c, 4, 47, 0
1, 25760, Note_on_c, 9, 54, 0
1, 25760, Note_on_c, 9, 53, 0
1, 25766, Note_on_c, 0, 73, 0
1, 25768, Note_on_c, 2, 61, 0
1, 25768, Note_on_c, 2, 52, 0
1, 25768, Note_on_c, 2, 57, 0
1, 25770, Note_on_c, 1, 62, 85
1, 25770, Note_on_c, 1, 54, 85
1, 25770, Note_on_c, 9, 54, 55
1, 25770, Note_on_c, 1, 59, 85
1, 25770, Note_on_c, 2, 59, 100
1, 25770, Note_on_c, 2, 54, 100
1, 25770, Note_on_c, 0, 71, 100
1, 25770, Note_on_c, 2, 62, 100
1, 25770, Note_on_c, 4, 47, 100
1, 25780, Note_on_c, 9, 35, 0
1, 25790, Note_on_c, 9, 54, 0
1, 25796, Note_on_c, 4, 47, 0
1, 25800, Note_on_c, 9, 38, 100
1, 25800, Note_on_c, 9, 53, 100
1, 25800, Note_on_c, 9, 54, 55
1, 25800, Note_on_c, 4, 35, 100
1, 25820, Note_on_c, 9, 54, 0
1, 25830, Note_on_c, 9, 54, 55
1, 25840, Note_on_c, 9, 38, 0
1, 25850, Note_on_c, 9, 54, 0
1, 25852, Note_on_c, 4, 35, 0
1, 25860, Note_on_c, 9, 54, 55
1, 25860, Note_on_c, 4, 47, 100
1, 25874, Note_on_c, 1, 59, 0
1, 25874, Note_on_c, 1, 62, 0
1, 25874, Note_on_c, 0, 71, 0
1, 25874, Note_on_c, 1, 54, 0
1, 25880, Note_on_c, 9, 53, 0
1, 25880, Note_on_c, 9, 54, 0
1, 25890, Note_on_c, 9, 54, 55
1, 25910, Note_on_c, 9, 54, 0
1, 25918, Note_on_c, 2, 54, 0
1, 25918, Note_on_c, 2, 59, 0
1, 25918, Note_on_c, 2, 62, 0
1, 25920, Note_on_c, 9, 53, 100
1, 25920, Note_on_c, 1, 61, 85
1, 25920, Note_on_c, 9, 54, 55
1, 25920, Note_on_c, 2, 61, 100
1, 25920, Note_on_c, 1, 52, 85
1, 25920, Note_on_c, 2, 52, 100
1, 25920, Note_on_c, 2, 57, 100
1, 25920, Note_on_c, 1, 57, 85
1, 25920, Note_on_c, 0, 69, 100
1, 25920, Note_on_c, 9, 35, 100
1, 25938, Note_on_c, 4, 47, 0
1, 25940, Note_on_c, 9, 54, 0
1, 25950, Note_on_c, 4, 47, 100
1, 25950, Note_on_c, 9, 54, 55
1, 25960, Note_on_c, 9, 35, 0
1, 25970, Note_on_c, 9, 54, 0
1, 25972, Note_on_c, 0, 69, 0
1, 25976, Note_on_c, 4, 47, 0
1, 25980, Note_on_c, 4, 35, 100
1, 25980, Note_on_c, 9, 54, 55
1, 25980, Note_on_c, 0, 69, 100
1, 25998, Note_on_c, 1, 57, 0
1, 25998, Note_on_c, 1, 52, 0
1, 25998, Note_on_c, 1, 61, 0
1, 26000, Note_on_c, 9, 54, 0
1, 26000, Note_on_c, 9, 53, 0
1, 26006, Note_on_c, 0, 69, 0
1, 26006, Note_on_c, 4, 35, 0
1, 26008, Note_on_c, 2, 57, 0
1, 26008, Note_on_c, 2, 52, 0
1, 26008, Note_on_c, 2, 61, 0
1, 26010, Note_on_c, 1, 59, 85
1, 26010, Note_on_c, 9, 54, 55
1, 26010, Note_on_c, 2, 54, 100
1, 26010, Note_on_c, 4, 47, 100
1, 26010, Note_on_c, 1, 54, 85
1, 26010, Note_on_c, 2, 59, 100
1, 26010, Note_on_c, 1, 62, 85
1, 26010, Note_on_c, 2, 62, 100
1, 26010, Note_on_c, 0, 71, 100
1, 26030, Note_on_c, 9, 54, 0
1, 26040, Note_on_c, 9, 54, 55
1, 26040, Note_on_c, 9, 53, 100
1, 26040, Note_on_c, 9, 38, 100
1, 26060, Note_on_c, 9, 54, 0
1, 26062, Note_on_c, 0, 71, 0
1, 26062, Note_on_c, 4, 47, 0
1, 26070, Note_on_c, 0, 71, 100
1, 26070, Note_on_c, 9, 54, 55
1, 26070, Note_on_c, 4, 47, 100
1, 26080, Note_on_c, 9, 38, 0
1, 26090, Note_on_c, 9, 54, 0
1, 26096, Note_on_c, 0, 71, 0
1, 26100, Note_on_c, 9, 54, 55
1, 26100, Note_on_c, 9, 35, 100
1, 26100, Note_on_c, 0, 71, 100
1, 26114, Note_on_c, 1, 59, 0
1, 26114, Note_on_c, 1, 54, 0
1, 26114, Note_on_c, 1, 62, 0
1, 26120, Note_on_c, 9, 54, 0
1, 26120, Note_on_c, 9, 53, 0
1, 26122, Note_on_c, 4, 47, 0
1, 26130, Note_on_c, 9, 54, 55
1, 26130, Note_on_c, 4, 45, 100
1, 26140, Note_on_c, 9, 35, 0
1, 26150, Note_on_c, 9, 54, 0
1, 26152, Note_on_c, 0, 71, 0
1, 26156, Note_on_c, 4, 45, 0
1, 26158, Note_on_c, 2, 62, 0
1, 26158, Note_on_c, 2, 59, 0
1, 26158, Note_on_c, 2, 54, 0
1, 26160, Note_on_c, 1, 57, 85
1, 26160, Note_on_c, 1, 54, 85
1, 26160, Note_on_c, 0, 69, 100
1, 26160, Note_on_c, 2, 57, 100
1, 26160, Note_on_c, 9, 53, 100
1, 26160, Note_on_c, 1, 62, 85
1, 26160, Note_on_c, 2, 62, 100
1, 26160, Note_on_c, 2, 54, 100
1, 26160, Note_on_c, 9, 54, 55
1, 26160, Note_on_c, 4, 38, 100
1, 26180, Note_on_c, 9, 54, 0
1, 26186, Note_on_c, 0, 69, 0
1, 26190, Note_on_c, 9, 54, 55
1, 26190, Note_on_c, 0, 69, 100
1, 26210, Note_on_c, 9, 54, 0
1, 26216, Note_on_c, 0, 69, 0
1, 26220, Note_on_c, 0, 69, 100
1, 26220, Note_on_c, 9, 54, 55
1, 26220, Note_on_c, 9, 35, 100
1, 26238, Note_on_c, 4, 38, 0
1, 26240, Note_on_c, 9, 54, 0
1, 26240, Note_on_c, 9, 53, 0
1, 26250, Note_on_c, 4, 47, 100
1, 26250, Note_on_c, 9, 54, 55
1, 26260, Note_on_c, 9, 35, 0
1, 26264, Note_on_c, 1, 57, 0
1, 26264, Note_on_c, 1, 62, 0
1, 26264, Note_on_c, 1, 54, 0
1, 26270, Note_on_c, 9, 54, 0
1, 26272, Note_on_c, 0, 69, 0
1, 26276, Note_on_c, 4, 47, 0
1, 26278, Note_on_c, 2, 62, 0
1, 26278, Note_on_c, 2, 54, 0
1, 26278, Note_on_c, 2, 57, 0
1, 26280, Note_on_c, 2, 64, 100
1, 26280, Note_on_c, 4, 40, 100
1, 26280, Note_on_c, 2, 59, 100
1, 26280, Note_on_c, 1, 59, 85
1, 26280, Note_on_c, 9, 38, 100
1, 26280, Note_on_c, 2, 56, 100
1, 26280, Note_on_c, 9, 54, 55
1, 26280, Note_on_c, 9, 53, 100
1, 26280, Note_on_c, 1, 56, 85
1, 26280, Note_on_c, 0, 71, 100
1, 26280, Note_on_c, 1, 64, 85
1, 26300, Note_on_c, 9, 54, 0
1, 26310, Note_on_c, 9, 54, 55
1, 26320, Note_on_c, 9, 38, 0
1, 26330, Note_on_c, 9, 54, 0
1, 26340, Note_on_c, 9, 54, 55
1, 26358, Note_on_c, 4, 40, 0
1, 26360, Note_on_c, 9, 54, 0
1, 26360, Note_on_c, 9, 53, 0
1, 26370, Note_on_c, 9, 54, 55
1, 26370, Note_on_c, 4, 47, 100
1, 26384, Note_on_c, 1, 56, 0
1, 26384, Note_on_c, 1, 59, 0
1, 26384, Note_on_c, 1, 64, 0
1, 26384, Note_on_c, 0, 71, 0
1, 26390, Note_on_c, 9, 54, 0
1, 26396, Note_on_c, 4, 47, 0
1, 26398, Note_on_c, 2, 64, 0
1, 26398, Note_on_c, 2, 56, 0
1, 26398, Note_on_c, 2, 59, 0
1, 26400, Note_on_c, 9, 35, 100
1, 26400, Note_on_c, 9, 49, 100
1, 26400, Note_on_c, 9, 54, 55
1, 26400, Note_on_c, 4, 35, 100
1, 26400, Note_on_c, 9, 53, 100
1, 26420, Note_on_c, 9, 54, 0
1, 26430, Note_on_c, 9, 54, 55
1, 26440, Note_on_c, 9, 35, 0
1, 26450, Note_on_c, 9, 54, 0
1, 26452, Note_on_c, 4, 35, 0
1, 26460, Note_on_c, 2, 54, 100
1, 26460, Note_on_c, 9, 54, 55
1, 26460, Note_on_c, 4, 47, 100
1, 26460, Note_on_c, 1, 59, 85
1, 26460, Note_on_c, 1, 54, 85
1, 26460, Note_on_c, 0, 74, 100
1, 26460, Note_on_c, 2, 64, 100
1, 26460, Note_on_c, 2, 59, 100
1, 26460, Note_on_c, 1, 62, 85
1, 26480, Note_on_c, 9, 54, 0
1, 26480, Note_on_c, 9, 53, 0
1, 26480, Note_on_c, 9, 49, 0
1, 26486, Note_on_c, 0, 74, 0
1, 26490, Note_on_c, 9, 54, 55
1, 26490, Note_on_c, 0, 74, 100
1, 26510, Note_on_c, 9, 54, 0
1, 26520, Note_on_c, 9, 53, 100
1, 26520, Note_on_c, 9, 54, 55
1, 26520, Note_on_c, 9, 38, 100
1, 26538, Note_on_c, 4, 47, 0
1, 26540, Note_on_c, 9, 54, 0
1, 26550, Note_on_c, 4, 47, 100
1, 26550, Note_on_c, 9, 54, 55
1, 26560, Note_on_c, 9, 38, 0
1, 26564, Note_on_c, 1, 62, 0
1, 26564, Note_on_c, 1, 54, 0
1, 26564, Note_on_c, 1, 59, 0
1, 26568, Note_on_c, 0, 74, 0
1, 26570, Note_on_c, 9, 54, 0
1, 26576, Note_on_c, 4, 47, 0
1, 26578, Note_on_c, 2, 59, 0
1, 26578, Note_on_c, 2, 64, 0
1, 26578, Note_on_c, 2, 54, 0
1, 26580, Note_on_c, 4, 35, 100
1, 26580, Note_on_c, 9, 54, 55
1, 26580, Note_on_c, 1, 57, 85
1, 26580, Note_on_c, 0, 73, 100
1, 26580, Note_on_c, 1, 52, 85
1, 26580, Note_on_c, 1, 61, 85
1, 26580, Note_on_c, 2, 52, 100
1, 26580, Note_on_c, 2, 57, 100
1, 26580, Note_on_c, 2, 61, 100
1, 26580, Note_on_c, 9, 35, 100
1, 26600, Note_on_c, 9, 54, 0
1, 26600, Note_on_c, 9, 53, 0
1, 26610, Note_on_c, 9, 54, 55
1, 26620, Note_on_c, 9, 35, 0
1, 26630, Note_on_c, 9, 54, 0
1, 26632, Note_on_c, 0, 73, 0
1, 26632, Note_on_c, 4, 35, 0
1, 26632, Note_on_c, 1, 61, 0
1, 26632, Note_on_c, 1, 52, 0
1, 26632, Note_on_c, 1, 57, 0
1, 26638, Note_on_c, 2, 61, 0
1, 26638, Note_on_c, 2, 57, 0
1, 26638, Note_on_c, 2, 52, 0
1, 26640, Note_on_c, 1, 57, 85
1, 26640, Note_on_c, 2, 52, 100
1, 26640, Note_on_c, 4, 47, 100
1, 26640, Note_on_c, 1, 52, 85
1, 26640, Note_on_c, 1, 61, 85
1, 26640, Note_on_c, 0, 73, 100
1, 26640, Note_on_c, 9, 53, 100
1, 26640, Note_on_c, 9, 54, 55
1, 26640, Note_on_c, 2, 57, 100
1, 26640, Note_on_c, 2, 61, 100
1, 26660, Note_on_c, 9, 54, 0
1, 26666, Note_on_c, 0, 73, 0
1, 26670, Note_on_c, 0, 71, 100
1, 26670, Note_on_c, 9, 54, 55
1, 26690, Note_on_c, 9, 54, 0
1, 26696, Note_on_c, 0, 71, 0
1, 26700, Note_on_c, 0, 71, 100
1, 26700, Note_on_c, 9, 54, 55
1, 26700, Note_on_c, 9, 35, 100
1, 26718, Note_on_c, 4, 47, 0
1, 26718, Note_on_c, 1, 52, 0
1, 26718, Note_on_c, 1, 61, 0
1, 26718, Note_on_c, 1, 57, 0
1, 26720, Note_on_c, 9, 54, 0
1, 26720, Note_on_c, 9, 53, 0
1, 26728, Note_on_c, 2, 52, 0
1, 26728, Note_on_c, 2, 61, 0
1, 26728, Note_on_c, 2, 57, 0
1, 26730, Note_on_c, 1, 54, 85
1, 26730, Note_on_c, 4, 47, 100
1, 26730, Note_on_c, 1, 59, 85
1, 26730, Note_on_c, 2, 54, 100
1, 26730, Note_on_c, 2, 62, 100
1, 26730, Note_on_c, 9, 54, 55
1, 26730, Note_on_c, 2, 59, 100
1, 26730, Note_on_c, 1, 62, 85
1, 26740, Note_on_c, 9, 35, 0
1, 26750, Note_on_c, 9, 54, 0
1, 26752, Note_on_c, 0, 71, 0
1, 26756, Note_on_c, 4, 47, 0
1, 26760, Note_on_c, 9, 54, 55
1, 26760, Note_on_c, 0, 71, 100
1, 26760, Note_on_c, 4, 35, 100
1, 26760, Note_on_c, 9, 38, 100
1, 26760, Note_on_c, 9, 53, 100
1, 26780, Note_on_c, 9, 54, 0
1, 26790, Note_on_c, 9, 54, 55
1, 26800, Note_on_c, 9, 38, 0
1, 26810, Note_on_c, 9, 54, 0
1, 26812, Note_on_c, 4, 35, 0
1, 26820, Note_on_c, 9, 54, 55
1, 26820, Note_on_c, 4, 47, 100
1, 26834, Note_on_c, 1, 62, 0
1, 26834, Note_on_c, 1, 59, 0
1, 26834, Note_on_c, 1, 54, 0
1, 26840, Note_on_c, 9, 54, 0
1, 26840, Note_on_c, 9, 53, 0
1, 26850, Note_on_c, 9, 54, 55
1, 26864, Note_on_c, 0, 71, 0
1, 26870, Note_on_c, 9, 54, 0
1, 26878, Note_on_c, 2, 62, 0
1, 26878, Note_on_c, 2, 59, 0
1, 26878, Note_on_c, 2, 54, 0
1, 26880, Note_on_c, 0, 69, 100
1, 26880, Note_on_c, 9, 35, 100
1, 26880, Note_on_c, 1, 61, 85
1, 26880, Note_on_c, 1, 57, 85
1, 26880, Note_on_c, 2, 52, 100
1, 26880, Note_on_c, 9, 53, 100
1, 26880, Note_on_c, 1, 52, 85
1, 26880, Note_on_c, 9, 54, 55
1, 26880, Note_on_c, 2, 57, 100
1, 26880, Note_on_c, 2, 61, 100
1, 26898, Note_on_c, 4, 47, 0
1, 26900, Note_on_c, 9, 54, 0
1, 26910, Note_on_c, 9, 54, 55
1, 26910, Note_on_c, 4, 47, 100
1, 26920, Note_on_c, 9, 35, 0
1, 26930, Note_on_c, 9, 54, 0
1, 26936, Note_on_c, 4, 47, 0
1, 26940, Note_on_c, 4, 35, 100
1, 26940, Note_on_c, 9, 54, 55
1, 26958, Note_on_c, 1, 57, 0
1, 26958, Note_on_c, 1, 61, 0
1, 26958, Note_on_c, 0, 69, 0
1, 26958, Note_on_c, 1, 52, 0
1, 26960, Note_on_c, 9, 54, 0
1, 26960, Note_on_c, 9, 53, 0
1, 26968, Note_on_c, 2, 57, 0
1, 26968, Note_on_c, 2, 61, 0
1, 26968, Note_on_c, 2, 52, 0
1, 26970, Note_on_c, 0, 71, 100
1, 26970, Note_on_c, 1, 59, 85
1, 26970, Note_on_c, 1, 62, 85
1, 26970, Note_on_c, 1, 54, 85
1, 26970, Note_on_c, 2, 54, 100
1, 26970, Note_on_c, 9, 54, 55
1, 26970, Note_on_c, 2, 62, 100
1, 26970, Note_on_c, 2, 59, 100
1, 26990, Note_on_c, 9, 54, 0
1, 26992, Note_on_c, 4, 35, 0
1, 27000, Note_on_c, 4, 47, 100
1, 27000, Note_on_c, 9, 54, 55
1, 27000, Note_on_c, 9, 38, 100
1, 27000, Note_on_c, 9, 53, 100
1, 27020, Note_on_c, 9, 54, 0
1, 27022, Note_on_c, 0, 71, 0
1, 27030, Note_on_c, 9, 54, 55
1, 27030, Note_on_c, 0, 71, 100
1, 27040, Note_on_c, 9, 38, 0
1, 27050, Note_on_c, 9, 54, 0
1, 27056, Note_on_c, 0, 71, 0
1, 27060, Note_on_c, 0, 71, 100
1, 27060, Note_on_c, 9, 54, 55
1, 27060, Note_on_c, 9, 35, 100
1, 27074, Note_on_c, 1, 54, 0
1, 27074, Note_on_c, 1, 62, 0
1, 27074, Note_on_c, 1, 59, 0
1, 27078, Note_on_c, 4, 47, 0
1, 27080, Note_on_c, 9, 54, 0
1, 27080, Note_on_c, 9, 53, 0
1, 27090, Note_on_c, 4, 45, 100
1, 27090, Note_on_c, 9, 54, 55
1, 27100, Note_on_c, 9, 35, 0
1, 27110, Note_on_c, 9, 54, 0
1, 27112, Note_on_c, 0, 71, 0
1, 27116, Note_on_c, 4, 45, 0
1, 27118, Note_on_c, 2, 62, 0
1, 27118, Note_on_c, 2, 54, 0
1, 27118, Note_on_c, 2, 59, 0
1, 27120, Note_on_c, 1, 57, 85
1, 27120, Note_on_c, 9, 54, 55
1, 27120, Note_on_c, 0, 69, 100
1, 27120, Note_on_c, 2, 57, 100
1, 27120, Note_on_c, 1, 54, 85
1, 27120, Note_on_c, 1, 62, 85
1, 27120, Note_on_c, 9, 53, 100
1, 27120, Note_on_c, 4, 38, 100
1, 27120, Note_on_c, 2, 62, 100
1, 27120, Note_on_c, 2, 54, 100
1, 27140, Note_on_c, 9, 54, 0
1, 27150, Note_on_c, 9, 54, 55
1, 27170, Note_on_c, 9, 54, 0
1, 27172, Note_on_c, 0, 69, 0
1, 27180, Note_on_c, 9, 35, 100
1, 27180, Note_on_c, 0, 69, 100
1, 27180, Note_on_c, 9, 54, 55
1, 27198, Note_on_c, 4, 38, 0
1, 27200, Note_on_c, 9, 54, 0
1, 27200, Note_on_c, 9, 53, 0
1, 27210, Note_on_c, 9, 54, 55
1, 27210, Note_on_c, 4, 47, 100
1, 27220, Note_on_c, 9, 35, 0
1, 27224, Note_on_c, 1, 54, 0
1, 27224, Note_on_c, 1, 57, 0
1, 27224, Note_on_c, 1, 62, 0
1, 27230, Note_on_c, 9, 54, 0
1, 27232, Note_on_c, 0, 69, 0
1, 27236, Note_on_c, 4, 47, 0
1, 27238, Note_on_c, 2, 62, 0
1, 27238, Note_on_c, 2, 57, 0
1, 27238, Note_on_c, 2, 54, 0
1, 27240, Note_on_c, 2, 56, 100
1, 27240, Note_on_c, 1, 59, 85
1, 27240, Note_on_c, 9, 54, 55
1, 27240, Note_on_c, 9, 53, 100
1, 27240, Note_on_c, 1, 64, 85
1, 27240, Note_on_c, 2, 64, 100
1, 27240, Note_on_c, 0, 71, 100
1, 27240, Note_on_c, 9, 38, 100
1, 27240, Note_on_c, 4, 40, 100
1, 27240, Note_on_c, 1, 56, 85
1, 27240, Note_on_c, 2, 59, 100
1, 27260, Note_on_c, 9, 54, 0
1, 27270, Note_on_c, 9, 54, 55
1, 27280, Note_on_c, 9, 38, 0
1, 27290, Note_on_c, 9, 54, 0
1, 27300, Note_on_c, 9, 54, 55
1, 27318, Note_on_c, 4, 40, 0
1, 27320, Note_on_c, 9, 54, 0
1, 27320, Note_on_c, 9, 53, 0
1, 27330, Note_on_c, 9, 54, 55
1, 27330, Note_on_c, 4, 47, 100
1, 27344, Note_on_c, 1, 64, 0
1, 27344, Note_on_c, 1, 56, 0
1, 27344, Note_on_c, 0, 71, 0
1, 27344, Note_on_c, 1, 59, 0
1, 27350, Note_on_c, 9, 54, 0
1, 27356, Note_on_c, 4, 47, 0
1, 27358, Note_on_c, 2, 64, 0
1, 27358, Note_on_c, 2, 59, 0
1, 27358, Note_on_c, 2, 56, 0
1, 27360, Note_on_c, 4, 35, 100
1, 27360, Note_on_c, 9, 54, 55
1, 27360, Note_on_c, 9, 53, 100
1, 27360, Note_on_c, 9, 35, 100
1, 27380, Note_on_c, 9, 54, 0
1, 27390, Note_on_c, 9, 54, 55
1, 27400, Note_on_c, 9, 35, 0
1, 27410, Note_on_c, 9, 54, 0
1, 27412, Note_on_c, 4, 35, 0
1, 27420, Note_on_c, 2, 59, 100
1, 27420, Note_on_c, 1, 54, 85
1, 27420, Note_on_c, 0, 74, 100
1, 27420, Note_on_c, 1, 59, 85
1, 27420, Note_on_c, 1, 62, 85
1, 27420, Note_on_c, 2, 64, 100
1, 27420, Note_on_c, 4, 47, 100
1, 27420, Note_on_c, 9, 54, 55
1, 27420, Note_on_c, 2, 54, 100
1, 27440, Note_on_c, 9, 54, 0
1, 27440, Note_on_c, 9, 53, 0
1, 27450, Note_on_c, 9, 54, 55
1, 27470, Note_on_c, 9, 54, 0
1, 27472, Note_on_c, 0, 74, 0
1, 27480, Note_on_c, 9, 53, 100
1, 27480, Note_on_c, 9, 38, 100
1, 27480, Note_on_c, 0, 74, 100
1, 27480, Note_on_c, 9, 54, 55
1, 27498, Note_on_c, 4, 47, 0
1, 27500, Note_on_c, 9, 54, 0
1, 27510, Note_on_c, 4, 47, 100
1, 27510, Note_on_c, 9, 54, 55
1, 27520, Note_on_c, 9, 38, 0
1, 27530, Note_on_c, 9, 54, 0
1, 27536, Note_on_c, 4, 47, 0
1, 27540, Note_on_c, 9, 35, 100
1, 27540, Note_on_c, 9, 54, 55
1, 27540, Note_on_c, 4, 35, 100
1, 27560, Note_on_c, 9, 54, 0
1, 27560, Note_on_c, 9, 53, 0
1, 27570, Note_on_c, 9, 54, 55
1, 27576, Note_on_c, 1, 59, 0
1, 27576, Note_on_c, 1, 62, 0
1, 27576, Note_on_c, 1, 54, 0
1, 27580, Note_on_c, 9, 35, 0
1, 27584, Note_on_c, 0, 74, 0
1, 27590, Note_on_c, 9, 54, 0
1, 27592, Note_on_c, 4, 35, 0
1, 27600, Note_on_c, 2, 64, 0
1, 27600, Note_on_c, 2, 59, 0
1, 27600, Note_on_c, 2, 54, 0
1, 27600, Note_on_c, 9, 53, 100
1, 27600, Note_on_c, 2, 52, 100
1, 27600, Note_on_c, 9, 54, 55
1, 27600, Note_on_c, 1, 61, 85
1, 27600, Note_on_c, 2, 61, 100
1, 27600, Note_on_c, 2, 57, 100
1, 27600, Note_on_c, 4, 47, 100
1, 27600, Note_on_c, 1, 57, 85
1, 27600, Note_on_c, 1, 52, 85
1, 27600, Note_on_c, 0, 73, 100
1, 27620, Note_on_c, 9, 54, 0
1, 27630, Note_on_c, 9, 54, 55
1, 27650, Note_on_c, 9, 54, 0
1, 27652, Note_on_c, 0, 73, 0
1, 27660, Note_on_c, 9, 54, 55
1, 27660, Note_on_c, 9, 35, 100
1, 27660, Note_on_c, 0, 73, 100
1, 27678, Note_on_c, 1, 52, 0
1, 27678, Note_on_c, 1, 61, 0
1, 27678, Note_on_c, 1, 57, 0
1, 27678, Note_on_c, 4, 47, 0
1, 27680, Note_on_c, 9, 54, 0
1, 27680, Note_on_c, 9, 53, 0
1, 27686, Note_on_c, 0, 73, 0
1, 27688, Note_on_c, 2, 57, 0
1, 27688, Note_on_c, 2, 52, 0
1, 27688, Note_on_c, 2, 61, 0
1, 27690, Note_on_c, 4, 47, 100
1, 27690, Note_on_c, 1, 59, 85
1, 27690, Note_on_c, 9, 54, 55
1, 27690, Note_on_c, 1, 54, 85
1, 27690, Note_on_c, 1, 62, 85
1, 27690, Note_on_c, 0, 71, 100
1, 27690, Note_on_c, 2, 62, 100
1, 27690, Note_on_c, 2, 59, 100
1, 27690, Note_on_c, 2, 54, 100
1, 27700, Note_on_c, 9, 35, 0
1, 27710, Note_on_c, 9, 54, 0
1, 27716, Note_on_c, 4, 47, 0
1, 27720, Note_on_c, 9, 53, 100
1, 27720, Note_on_c, 9, 54, 55
1, 27720, Note_on_c, 9, 38, 100
1, 27720, Note_on_c, 4, 35, 100
1, 27740, Note_on_c, 9, 54, 0
1, 27750, Note_on_c, 9, 54, 55
1, 27760, Note_on_c, 9, 38, 0
1, 27770, Note_on_c, 9, 54, 0
1, 27772, Note_on_c, 4, 35, 0
1, 27780, Note_on_c, 9, 43, 100
1, 27780, Note_on_c, 4, 47, 100
1, 27780, Note_on_c, 9, 54, 55
1, 27794, Note_on_c, 1, 54, 0
1, 27794, Note_on_c, 0, 71, 0
1, 27794, Note_on_c, 1, 59, 0
1, 27794, Note_on_c, 1, 62, 0
1, 27800, Note_on_c, 9, 54, 0
1, 27800, Note_on_c, 9, 53, 0
1, 27800, Note_on_c, 9, 43, 0
1, 27810, Note_on_c, 9, 54, 55
1, 27810, Note_on_c, 0, 71, 100
1, 27810, Note_on_c, 9, 43, 100
1, 27830, Note_on_c, 9, 43, 0
1, 27830, Note_on_c, 9, 54, 0
1, 27836, Note_on_c, 0, 71, 0
1, 27838, Note_on_c, 2, 54, 0
1, 27838, Note_on_c, 2, 59, 0
1, 27838, Note_on_c, 2, 62, 0
1, 27840, Note_on_c, 2, 66, 100
1, 27840, Note_on_c, 9, 53, 100
1, 27840, Note_on_c, 9, 54, 55
1, 27840, Note_on_c, 1, 62, 100
1, 27840, Note_on_c, 1, 66, 100
1, 27840, Note_on_c, 2, 62, 100
1, 27840, Note_on_c, 9, 35, 100
1, 27840, Note_on_c, 0, 78, 100
1, 27840, Note_on_c, 4, 38, 100
1, 27840, Note_on_c, 2, 57, 100
1, 27840, Note_on_c, 9, 49, 100
1, 27840, Note_on_c, 1, 57, 100
1, 27858, Note_on_c, 4, 47, 0
1, 27860, Note_on_c, 9, 54, 0
1, 27866, Note_on_c, 0, 78, 0
1, 27870, Note_on_c, 0, 76, 100
1, 27870, Note_on_c, 9, 54, 55
1, 27880, Note_on_c, 9, 35, 0
1, 27890, Note_on_c, 9, 54, 0
1, 27900, Note_on_c, 9, 54, 55
1, 27920, Note_on_c, 9, 54, 0
1, 27920, Note_on_c, 9, 53, 0
1, 27920, Note_on_c, 9, 49, 0
1, 27922, Note_on_c, 0, 76, 0
1, 27930, Note_on_c, 9, 54, 55
1, 27930, Note_on_c, 0, 76, 100
1, 27944, Note_on_c, 1, 57, 0
1, 27944, Note_on_c, 1, 66, 0
1, 27944, Note_on_c, 1, 62, 0
1, 27944, Note_on_c, 4, 38, 0
1, 27950, Note_on_c, 9, 54, 0
1, 27958, Note_on_c, 2, 66, 0
1, 27958, Note_on_c, 2, 57, 0
1, 27958, Note_on_c, 2, 62, 0
1, 27960, Note_on_c, 2, 61, 100
1, 27960, Note_on_c, 9, 53, 100
1, 27960, Note_on_c, 9, 54, 55
1, 27960, Note_on_c, 9, 38, 100
1, 27960, Note_on_c, 2, 66, 100
1, 27960, Note_on_c, 2, 69, 100
1, 27960, Note_on_c, 9, 49, 100
1, 27960, Note_on_c, 1, 69, 100
1, 27960, Note_on_c, 1, 61, 100
1, 27960, Note_on_c, 1, 66, 100
1, 27960, Note_on_c, 4, 42, 100
1, 27980, Note_on_c, 9, 54, 0
1, 27990, Note_on_c, 9, 54, 55
1, 28000, Note_on_c, 9, 38, 0
1, 28008, Note_on_c, 0, 76, 0
1, 28010, Note_on_c, 9, 54, 0
1, 28020, Note_on_c, 0, 76, 100
1, 28020, Note_on_c, 9, 35, 100
1, 28020, Note_on_c, 9, 54, 55
1, 28040, Note_on_c, 9, 54, 0
1, 28040, Note_on_c, 9, 49, 0
1, 28040, Note_on_c, 9, 53, 0
1, 28050, Note_on_c, 9, 54, 55
1, 28060, Note_on_c, 9, 35, 0
1, 28064, Note_on_c, 1, 69, 0
1, 28064, Note_on_c, 4, 42, 0
1, 28064, Note_on_c, 1, 61, 0
1, 28064, Note_on_c, 1, 66, 0
1, 28070, Note_on_c, 9, 54, 0
1, 28078, Note_on_c, 2, 66, 0
1, 28078, Note_on_c, 2, 61, 0
1, 28078, Note_on_c, 2, 69, 0
1, 28080, Note_on_c, 2, 68, 100
1, 28080, Note_on_c, 9, 53, 100
1, 28080, Note_on_c, 9, 54, 55
1, 28080, Note_on_c, 4, 40, 100
1, 28080, Note_on_c, 2, 59, 100
1, 28080, Note_on_c, 2, 64, 100
1, 28080, Note_on_c, 1, 68, 100
1, 28080, Note_on_c, 1, 59, 100
1, 28080, Note_on_c, 1, 64, 100
1, 28080, Note_on_c, 9, 49, 100
1, 28100, Note_on_c, 9, 54, 0
1, 28110, Note_on_c, 9, 54, 55
1, 28130, Note_on_c, 9, 54, 0
1, 28140, Note_on_c, 9, 54, 55
1, 28140, Note_on_c, 9, 35, 100
1, 28160, Note_on_c, 9, 54, 0
1, 28160, Note_on_c, 9, 49, 0
1, 28160, Note_on_c, 9, 53, 0
1, 28170, Note_on_c, 9, 54, 55
1, 28180, Note_on_c, 9, 35, 0
1, 28190, Note_on_c, 9, 54, 0
1, 28200, Note_on_c, 9, 38, 100
1, 28200, Note_on_c, 9, 53, 100
1, 28200, Note_on_c, 9, 54, 55
1, 28220, Note_on_c, 9, 54, 0
1, 28228, Note_on_c, 0, 76, 0
1, 28230, Note_on_c, 9, 54, 55
1, 28236, Note_on_c, 4, 40, 0
1, 28240, Note_on_c, 9, 38, 0
1, 28250, Note_on_c, 9, 54, 0
1, 28260, Note_on_c, 9, 45, 100
1, 28260, Note_on_c, 4, 40, 100
1, 28260, Note_on_c, 9, 54, 55
1, 28260, Note_on_c, 3, 64, 100
1, 28280, Note_on_c, 9, 54, 0
1, 28280, Note_on_c, 9, 53, 0
1, 28286, Note_on_c, 3, 64, 0
1, 28288, Note_on_c, 1, 59, 0
1, 28288, Note_on_c, 1, 64, 0
1, 28288, Note_on_c, 1, 68, 0
1, 28290, Note_on_c, 9, 54, 55
1, 28290, Note_on_c, 3, 66, 100
1, 28300, Note_on_c, 9, 45, 0
1, 28310, Note_on_c, 9, 54, 0
1, 28312, Note_on_c, 4, 40, 0
1, 28316, Note_on_c, 3, 66, 0
1, 28318, Note_on_c, 2, 68, 0
1, 28318, Note_on_c, 2, 59, 0
1, 28318, Note_on_c, 2, 64, 0
1, 28320, Note_on_c, 9, 53, 100
1, 28320, Note_on_c, 9, 49, 100
1, 28320, Note_on_c, 2, 68, 100
1, 28320, Note_on_c, 3, 68, 100
1, 28320, Note_on_c, 2, 64, 100
1, 28320, Note_on_c, 9, 54, 55
1, 28320, Note_on_c, 9, 35, 100
1, 28320, Note_on_c, 4, 35, 100
1, 28320, Note_on_c, 2, 59, 100
1, 28360, Note_on_c, 9, 35, 0
1, 28360, Note_on_c, 9, 54, 0
1, 28380, Note_on_c, 9, 54, 55
1, 28386, Note_on_c, 3, 68, 0
1, 28398, Note_on_c, 4, 35, 0
1, 28400, Note_on_c, 9, 53, 0
1, 28408, Note_on_c, 2, 59, 0
1, 28408, Note_on_c, 2, 64, 0
1, 28408, Note_on_c, 2, 68, 0
1, 28410, Note_on_c, 4, 42, 100
1, 28410, Note_on_c, 9, 38, 100
1, 28410, Note_on_c, 2, 69, 100
1, 28410, Note_on_c, 3, 69, 100
1, 28410, Note_on_c, 2, 66, 100
1, 28410, Note_on_c, 2, 62, 100
1, 28420, Note_on_c, 9, 54, 0
1, 28440, Note_on_c, 9, 53, 100
1, 28440, Note_on_c, 9, 54, 55
1, 28450, Note_on_c, 9, 38, 0
1, 28476, Note_on_c, 3, 69, 0
1, 28480, Note_on_c, 9, 54, 0
1, 28480, Note_on_c, 9, 49, 0
1, 28488, Note_on_c, 4, 42, 0
1, 28498, Note_on_c, 2, 69, 0
1, 28498, Note_on_c, 2, 66, 0
1, 28498, Note_on_c, 2, 62, 0
1, 28500, Note_on_c, 9, 35, 100
1, 28500, Note_on_c, 2, 61, 100
1, 28500, Note_on_c, 3, 71, 100
1, 28500, Note_on_c, 4, 45, 100
1, 28500, Note_on_c, 9, 54, 55
1, 28500, Note_on_c, 2, 68, 100
1, 28500, Note_on_c, 2, 64, 100
1, 28520, Note_on_c, 9, 53, 0
1, 28540, Note_on_c, 9, 35, 0
1, 28540, Note_on_c, 9, 54, 0
1, 28550, Note_on_c, 3, 71, 0
1, 28552, Note_on_c, 4, 45, 0
1, 28558, Note_on_c, 2, 64, 0
1, 28558, Note_on_c, 2, 68, 0
1, 28558, Note_on_c, 2, 61, 0
1, 28560, Note_on_c, 2, 69, 100
1, 28560, Note_on_c, 2, 66, 100
1, 28560, Note_on_c, 4, 47, 100
1, 28560, Note_on_c, 2, 62, 100
1, 28560, Note_on_c, 9, 53, 100
1, 28560, Note_on_c, 9, 54, 55
1, 28560, Note_on_c, 3, 69, 100
1, 28600, Note_on_c, 9, 54, 0
1, 28620, Note_on_c, 9, 35, 100
1, 28620, Note_on_c, 9, 54, 55
1, 28640, Note_on_c, 9, 53, 0
1, 28659, Note_on_c, 3, 69, 0
1, 28660, Note_on_c, 9, 54, 0
1, 28660, Note_on_c, 9, 35, 0
1, 28664, Note_on_c, 4, 47, 0
1, 28678, Note_on_c, 2, 69, 0
1, 28678, Note_on_c, 2, 66, 0
1, 28678, Note_on_c, 2, 62, 0
1, 28680, Note_on_c, 2, 64, 100
1, 28680, Note_on_c, 4, 45, 100
1, 28680, Note_on_c, 3, 68, 100
1, 28680, Note_on_c, 2, 68, 100
1, 28680, Note_on_c, 9, 53, 100
1, 28680, Note_on_c, 2, 59, 100
1, 28680, Note_on_c, 9, 38, 100
1, 28680, Note_on_c, 9, 54, 55
1, 28720, Note_on_c, 9, 54, 0
1, 28720, Note_on_c, 9, 38, 0
1, 28740, Note_on_c, 9, 54, 55
1, 28760, Note_on_c, 9, 53, 0
1, 28779, Note_on_c, 3, 68, 0
1, 28780, Note_on_c, 9, 54, 0
1, 28784, Note_on_c, 4, 45, 0
1, 28798, Note_on_c, 2, 64, 0
1, 28798, Note_on_c, 2, 59, 0
1, 28798, Note_on_c, 2, 68, 0
1, 28800, Note_on_c, 9, 35, 100
1, 28800, Note_on_c, 2, 61, 100
1, 28800, Note_on_c, 4, 37, 100
1, 28800, Note_on_c, 2, 64, 100
1, 28800, Note_on_c, 2, 57, 100
1, 28800, Note_on_c, 9, 53, 100
1, 28800, Note_on_c, 3, 64, 100
1, 28800, Note_on_c, 9, 54, 55
1, 28840, Note_on_c, 9, 54, 0
1, 28840, Note_on_c, 9, 35, 0
1, 28860, Note_on_c, 9, 54, 55
1, 28866, Note_on_c, 3, 64, 0
1, 28878, Note_on_c, 4, 37, 0
1, 28880, Note_on_c, 9, 53, 0
1, 28888, Note_on_c, 2, 64, 0
1, 28888, Note_on_c, 2, 57, 0
1, 28888, Note_on_c, 2, 61, 0
1, 28890, Note_on_c, 3, 62, 100
1, 28890, Note_on_c, 2, 62, 100
1, 28890, Note_on_c, 2, 59, 100
1, 28890, Note_on_c, 4, 35, 100
1, 28890, Note_on_c, 2, 54, 100
1, 28900, Note_on_c, 9, 54, 0
1, 28920, Note_on_c, 9, 53, 100
1, 28920, Note_on_c, 9, 54, 55
1, 28920, Note_on_c, 9, 38, 100
1, 28956, Note_on_c, 3, 62, 0
1, 28960, Note_on_c, 9, 38, 0
1, 28960, Note_on_c, 9, 54, 0
1, 28968, Note_on_c, 4, 35, 0
1, 28978, Note_on_c, 2, 62, 0
1, 28978, Note_on_c, 2, 59, 0
1, 28978, Note_on_c, 2, 54, 0
1, 28980, Note_on_c, 3, 61, 100
1, 28980, Note_on_c, 9, 54, 55
1, 28980, Note_on_c, 2, 52, 100
1, 28980, Note_on_c, 2, 57, 100
1, 28980, Note_on_c, 4, 42, 100
1, 28980, Note_on_c, 9, 35, 100
1, 28980, Note_on_c, 2, 61, 100
1, 29000, Note_on_c, 9, 53, 0
1, 29020, Note_on_c, 9, 35, 0
1, 29020, Note_on_c, 9, 54, 0
1, 29030, Note_on_c, 3, 61, 0
1, 29032, Note_on_c, 4, 42, 0
1, 29038, Note_on_c, 2, 61, 0
1, 29038, Note_on_c, 2, 57, 0
1, 29038, Note_on_c, 2, 52, 0
1, 29040, Note_on_c, 9, 53, 100
1, 29040, Note_on_c, 2, 62, 100
1, 29040, Note_on_c, 2, 59, 100
1, 29040, Note_on_c, 2, 54, 100
1, 29040, Note_on_c, 9, 54, 55
1, 29040, Note_on_c, 4, 35, 100
1, 29040, Note_on_c, 3, 62, 100
1, 29080, Note_on_c, 9, 54, 0
1, 29100, Note_on_c, 9, 35, 100
1, 29100, Note_on_c, 9, 54, 55
1, 29120, Note_on_c, 9, 53, 0
1, 29140, Note_on_c, 9, 54, 0
1, 29140, Note_on_c, 9, 35, 0
1, 29160, Note_on_c, 9, 38, 100
1, 29160, Note_on_c, 9, 53, 100
1, 29160, Note_on_c, 9, 54, 55
1, 29190, Note_on_c, 3, 62, 0
1, 29196, Note_on_c, 4, 35, 0
1, 29200, Note_on_c, 9, 54, 0
1, 29200, Note_on_c, 9, 38, 0
1, 29218, Note_on_c, 2, 54, 0
1, 29218, Note_on_c, 2, 62, 0
1, 29218, Note_on_c, 2, 59, 0
1, 29220, Note_on_c, 9, 54, 55
1, 29220, Note_on_c, 4, 40, 100
1, 29220, Note_on_c, 3, 64, 100
1, 29240, Note_on_c, 9, 53, 0
1, 29246, Note_on_c, 3, 64, 0
1, 29246, Note_on_c, 4, 40, 0
1, 29250, Note_on_c, 4, 35, 100
1, 29250, Note_on_c, 3, 66, 100
1, 29260, Note_on_c, 9, 54, 0
1, 29276, Note_on_c, 3, 66, 0
1, 29276, Note_on_c, 4, 35, 0
1, 29280, Note_on_c, 2, 64, 100
1, 29280, Note_on_c, 2, 59, 100
1, 29280, Note_on_c, 9, 54, 55
1, 29280, Note_on_c, 4, 35, 100
1, 29280, Note_on_c, 9, 35, 100
1, 29280, Note_on_c, 9, 49, 100
1, 29280, Note_on_c, 3, 68, 100
1, 29280, Note_on_c, 2, 68, 100
1, 29280, Note_on_c, 9, 53, 100
1, 29320, Note_on_c, 9, 35, 0
1, 29320, Note_on_c, 9, 54, 0
1, 29340, Note_on_c, 9, 54, 55
1, 29346, Note_on_c, 3, 68, 0
1, 29358, Note_on_c, 4, 35, 0
1, 29360, Note_on_c, 9, 53, 0
1, 29368, Note_on_c, 2, 59, 0
1, 29368, Note_on_c, 2, 68, 0
1, 29368, Note_on_c, 2, 64, 0
1, 29370, Note_on_c, 2, 69, 100
1, 29370, Note_on_c, 2, 66, 100
1, 29370, Note_on_c, 4, 42, 100
1, 29370, Note_on_c, 9, 38, 100
1, 29370, Note_on_c, 3, 69, 100
1, 29370, Note_on_c, 2, 62, 100
1, 29380, Note_on_c, 9, 54, 0
1, 29400, Note_on_c, 9, 53, 100
1, 29400, Note_on_c, 9, 54, 55
1, 29410, Note_on_c, 9, 38, 0
1, 29436, Note_on_c, 3, 69, 0
1, 29440, Note_on_c, 9, 54, 0
1, 29440, Note_on_c, 9, 49, 0
1, 29448, Note_on_c, 4, 42, 0
1, 29458, Note_on_c, 2, 66, 0
1, 29458, Note_on_c, 2, 69, 0
1, 29458, Note_on_c, 2, 62, 0
1, 29460, Note_on_c, 9, 54, 55
1, 29460, Note_on_c, 2, 68, 100
1, 29460, Note_on_c, 2, 64, 100
1, 29460, Note_on_c, 2, 61, 100
1, 29460, Note_on_c, 9, 35, 100
1, 29460, Note_on_c, 4, 45, 100
1, 29460, Note_on_c, 3, 71, 100
1, 29480, Note_on_c, 9, 53, 0
1, 29500, Note_on_c, 9, 54, 0
1, 29500, Note_on_c, 9, 35, 0
1, 29510, Note_on_c, 3, 71, 0
1, 29512, Note_on_c, 4, 45, 0
1, 29518, Note_on_c, 2, 64, 0
1, 29518, Note_on_c, 2, 61, 0
1, 29518, Note_on_c, 2, 68, 0
1, 29520, Note_on_c, 9, 54, 55
1, 29520, Note_on_c, 4, 47, 100
1, 29520, Note_on_c, 2, 69, 100
1, 29520, Note_on_c, 2, 66, 100
1, 29520, Note_on_c, 9, 53, 100
1, 29520, Note_on_c, 3, 69, 100
1, 29520, Note_on_c, 2, 62, 100
1, 29560, Note_on_c, 9, 54, 0
1, 29580, Note_on_c, 9, 35, 100
1, 29580, Note_on_c, 9, 54, 55
1, 29600, Note_on_c, 9, 53, 0
1, 29619, Note_on_c, 3, 69, 0
1, 29620, Note_on_c, 9, 54, 0
1, 29620, Note_on_c, 9, 35, 0
1, 29624, Note_on_c, 4, 47, 0
1, 29638, Note_on_c, 2, 66, 0
1, 29638, Note_on_c, 2, 69, 0
1, 29638, Note_on_c, 2, 62, 0
1, 29640, Note_on_c, 9, 53, 100
1, 29640, Note_on_c, 4, 45, 100
1, 29640, Note_on_c, 2, 68, 100
1, 29640, Note_on_c, 2, 64, 100
1, 29640, Note_on_c, 3, 68, 100
1, 29640, Note_on_c, 9, 54, 55
1, 29640, Note_on_c, 9, 38, 100
1, 29640, Note_on_c, 2, 59, 100
1, 29680, Note_on_c, 9, 38, 0
1, 29680, Note_on_c, 9, 54, 0
1, 29700, Note_on_c, 9, 54, 55
1, 29720, Note_on_c, 9, 53, 0
1, 29739, Note_on_c, 3, 68, 0
1, 29740, Note_on_c, 9, 54, 0
1, 29744, Note_on_c, 4, 45, 0
1, 29758, Note_on_c, 2, 59, 0
1, 29758, Note_on_c, 2, 68, 0
1, 29758, Note_on_c, 2, 64, 0
1, 29760, Note_on_c, 3, 64, 100
1, 29760, Note_on_c, 9, 35, 100
1, 29760, Note_on_c, 9, 53, 100
1, 29760, Note_on_c, 2, 57, 100
1, 29760, Note_on_c, 4, 37, 100
1, 29760, Note_on_c, 2, 61, 100
1, 29760, Note_on_c, 9, 54, 55
1, 29760, Note_on_c, 2, 64, 100
1, 29800, Note_on_c, 9, 54, 0
1, 29800, Note_on_c, 9, 35, 0
1, 29820, Note_on_c, 9, 54, 55
1, 29826, Note_on_c, 3, 64, 0
1, 29838, Note_on_c, 4, 37, 0
1, 29840, Note_on_c, 9, 53, 0
1, 29848, Note_on_c, 2, 57, 0
1, 29848, Note_on_c, 2, 64, 0
1, 29848, Note_on_c, 2, 61, 0
1, 29850, Note_on_c, 2, 54, 100
1, 29850, Note_on_c, 3, 62, 100
1, 29850, Note_on_c, 4, 42, 100
1, 29850, Note_on_c, 2, 62, 100
1, 29850, Note_on_c, 2, 59, 100
1, 29860, Note_on_c, 9, 54, 0
1, 29880, Note_on_c, 9, 54, 55
1, 29880, Note_on_c, 9, 38, 100
1, 29880, Note_on_c, 9, 53, 100
1, 29916, Note_on_c, 3, 62, 0
1, 29920, Note_on_c, 9, 38, 0
1, 29920, Note_on_c, 9, 54, 0
1, 29928, Note_on_c, 4, 42, 0
1, 29938, Note_on_c, 2, 62, 0
1, 29938, Note_on_c, 2, 54, 0
1, 29938, Note_on_c, 2, 59, 0
1, 29940, Note_on_c, 2, 57, 100
1, 29940, Note_on_c, 2, 52, 100
1, 29940, Note_on_c, 2, 61, 100
1, 29940, Note_on_c, 3, 61, 100
1, 29940, Note_on_c, 4, 38, 100
1, 29940, Note_on_c, 9, 35, 100
1, 29940, Note_on_c, 9, 54, 55
1, 29960, Note_on_c, 9, 53, 0
1, 29980, Note_on_c, 9, 54, 0
1, 29980, Note_on_c, 9, 35, 0
1, 29990, Note_on_c, 3, 61, 0
1, 29992, Note_on_c, 4, 38, 0
1, 29998, Note_on_c, 2, 57, 0
1, 29998, Note_on_c, 2, 61, 0
1, 29998, Note_on_c, 2, 52, 0
1, 30000, Note_on_c, 2, 59, 100
1, 30000, Note_on_c, 9, 53, 100
1, 30000, Note_on_c, 2, 54, 100
1, 30000, Note_on_c, 4, 40, 100
1, 30000, Note_on_c, 3, 59, 100
1, 30000, Note_on_c, 9, 54, 55
1, 30040, Note_on_c, 9, 54, 0
1, 30060, Note_on_c, 9, 54, 55
1, 30060, Note_on_c, 9, 35, 100
1, 30080, Note_on_c, 9, 53, 0
1, 30100, Note_on_c, 9, 54, 0
1, 30100, Note_on_c, 9, 35, 0
1, 30120, Note_on_c, 9, 54, 55
1, 30120, Note_on_c, 9, 53, 100
1, 30120, Note_on_c, 9, 38, 100
1, 30150, Note_on_c, 3, 59, 0
1, 30156, Note_on_c, 4, 40, 0
1, 30160, Note_on_c, 9, 54, 0
1, 30160, Note_on_c, 9, 38, 0
1, 30178, Note_on_c, 2, 59, 0
1, 30178, Note_on_c, 2, 54, 0
1, 30180, Note_on_c, 3, 64, 100
1, 30180, Note_on_c, 4, 40, 100
1, 30180, Note_on_c, 9, 54, 55
1, 30200, Note_on_c, 9, 53, 0
1, 30206, Note_on_c, 3, 64, 0
1, 30210, Note_on_c, 3, 66, 100
1, 30220, Note_on_c, 9, 54, 0
1, 30232, Note_on_c, 4, 40, 0
1, 30236, Note_on_c, 3, 66, 0
1, 30240, Note_on_c, 3, 68, 100
1, 30240, Note_on_c, 9, 49, 100
1, 30240, Note_on_c, 2, 68, 100
1, 30240, Note_on_c, 2, 64, 100
1, 30240, Note_on_c, 2, 59, 100
1, 30240, Note_on_c, 4, 35, 100
1, 30240, Note_on_c, 9, 35, 100
1, 30240, Note_on_c, 9, 53, 100
1, 30240, Note_on_c, 9, 54, 55
1, 30280, Note_on_c, 9, 54, 0
1, 30280, Note_on_c, 9, 35, 0
1, 30300, Note_on_c, 9, 54, 55
1, 30306, Note_on_c, 3, 68, 0
1, 30318, Note_on_c, 4, 35, 0
1, 30320, Note_on_c, 9, 53, 0
1, 30328, Note_on_c, 2, 59, 0
1, 30328, Note_on_c, 2, 64, 0
1, 30328, Note_on_c, 2, 68, 0
1, 30330, Note_on_c, 2, 66, 100
1, 30330, Note_on_c, 2, 62, 100
1, 30330, Note_on_c, 4, 42, 100
1, 30330, Note_on_c, 9, 38, 100
1, 30330, Note_on_c, 3, 69, 100
1, 30330, Note_on_c, 2, 69, 100
1, 30340, Note_on_c, 9, 54, 0
1, 30360, Note_on_c, 9, 53, 100
1, 30360, Note_on_c, 9, 54, 55
1, 30370, Note_on_c, 9, 38, 0
1, 30396, Note_on_c, 3, 69, 0
1, 30400, Note_on_c, 9, 54, 0
1, 30400, Note_on_c, 9, 49, 0
1, 30408, Note_on_c, 4, 42, 0
1, 30418, Note_on_c, 2, 62, 0
1, 30418, Note_on_c, 2, 66, 0
1, 30418, Note_on_c, 2, 69, 0
1, 30420, Note_on_c, 4, 45, 100
1, 30420, Note_on_c, 9, 54, 55
1, 30420, Note_on_c, 2, 64, 100
1, 30420, Note_on_c, 2, 71, 100
1, 30420, Note_on_c, 2, 68, 100
1, 30420, Note_on_c, 3, 71, 100
1, 30420, Note_on_c, 9, 35, 100
1, 30440, Note_on_c, 9, 53, 0
1, 30460, Note_on_c, 9, 35, 0
1, 30460, Note_on_c, 9, 54, 0
1, 30470, Note_on_c, 3, 71, 0
1, 30472, Note_on_c, 4, 45, 0
1, 30478, Note_on_c, 2, 64, 0
1, 30478, Note_on_c, 2, 68, 0
1, 30478, Note_on_c, 2, 71, 0
1, 30480, Note_on_c, 4, 47, 100
1, 30480, Note_on_c, 9, 54, 55
1, 30480, Note_on_c, 2, 69, 100
1, 30480, Note_on_c, 2, 62, 100
1, 30480, Note_on_c, 9, 53, 100
1, 30480, Note_on_c, 2, 73, 100
1, 30480, Note_on_c, 2, 64, 100
1, 30480, Note_on_c, 3, 73, 100
1, 30520, Note_on_c, 9, 54, 0
1, 30540, Note_on_c, 9, 35, 100
1, 30540, Note_on_c, 9, 54, 55
1, 30560, Note_on_c, 9, 53, 0
1, 30579, Note_on_c, 3, 73, 0
1, 30580, Note_on_c, 9, 35, 0
1, 30580, Note_on_c, 9, 54, 0
1, 30584, Note_on_c, 4, 47, 0
1, 30598, Note_on_c, 2, 73, 0
1, 30598, Note_on_c, 2, 62, 0
1, 30598, Note_on_c, 2, 64, 0
1, 30598, Note_on_c, 2, 69, 0
1, 30600, Note_on_c, 9, 38, 100
1, 30600, Note_on_c, 3, 71, 100
1, 30600, Note_on_c, 4, 45, 100
1, 30600, Note_on_c, 9, 54, 55
1, 30600, Note_on_c, 2, 59, 100
1, 30600, Note_on_c, 9, 53, 100
1, 30600, Note_on_c, 2, 64, 100
1, 30600, Note_on_c, 2, 71, 100
1, 30600, Note_on_c, 2, 68, 100
1, 30640, Note_on_c, 9, 54, 0
1, 30640, Note_on_c, 9, 38, 0
1, 30660, Note_on_c, 9, 54, 55
1, 30680, Note_on_c, 9, 53, 0
1, 30699, Note_on_c, 3, 71, 0
1, 30700, Note_on_c, 9, 54, 0
1, 30704, Note_on_c, 4, 45, 0
1, 30718, Note_on_c, 2, 59, 0
1, 30718, Note_on_c, 2, 68, 0
1, 30718, Note_on_c, 2, 71, 0
1, 30718, Note_on_c, 2, 64, 0
1, 30720, Note_on_c, 9, 35, 100
1, 30720, Note_on_c, 2, 57, 100
1, 30720, Note_on_c, 4, 37, 100
1, 30720, Note_on_c, 3, 64, 100
1, 30720, Note_on_c, 2, 64, 100
1, 30720, Note_on_c, 2, 61, 100
1, 30720, Note_on_c, 9, 53, 100
1, 30720, Note_on_c, 9, 54, 55
1, 30760, Note_on_c, 9, 54, 0
1, 30760, Note_on_c, 9, 35, 0
1, 30780, Note_on_c, 9, 54, 55
1, 30786, Note_on_c, 3, 64, 0
1, 30798, Note_on_c, 4, 37, 0
1, 30800, Note_on_c, 9, 53, 0
1, 30808, Note_on_c, 2, 64, 0
1, 30808, Note_on_c, 2, 57, 0
1, 30808, Note_on_c, 2, 61, 0
1, 30810, Note_on_c, 4, 35, 100
1, 30810, Note_on_c, 3, 62, 100
1, 30810, Note_on_c, 2, 59, 100
1, 30810, Note_on_c, 2, 54, 100
1, 30810, Note_on_c, 2, 62, 100
1, 30820, Note_on_c, 9, 54, 0
1, 30840, Note_on_c, 9, 54, 55
1, 30840, Note_on_c, 9, 38, 100
1, 30840, Note_on_c, 9, 53, 100
1, 30876, Note_on_c, 3, 62, 0
1, 30880, Note_on_c, 9, 38, 0
1, 30880, Note_on_c, 9, 54, 0
1, 30888, Note_on_c, 4, 35, 0
1, 30898, Note_on_c, 2, 54, 0
1, 30898, Note_on_c, 2, 59, 0
1, 30898, Note_on_c, 2, 62, 0
1, 30900, Note_on_c, 9, 35, 100
1, 30900, Note_on_c, 4, 42, 100
1, 30900, Note_on_c, 2, 61, 100
1, 30900, Note_on_c, 9, 54, 55
1, 30900, Note_on_c, 3, 61, 100
1, 30900, Note_on_c, 2, 57, 100
1, 30900, Note_on_c, 2, 52, 100
1, 30920, Note_on_c, 9, 53, 0
1, 30940, Note_on_c, 9, 54, 0
1, 30940, Note_on_c, 9, 35, 0
1, 30950, Note_on_c, 3, 61, 0
1, 30952, Note_on_c, 4, 42, 0
1, 30958, Note_on_c, 2, 52, 0
1, 30958, Note_on_c, 2, 61, 0
1, 30958, Note_on_c, 2, 57, 0
1, 30960, Note_on_c, 3, 69, 100
1, 30960, Note_on_c, 9, 54, 55
1, 30960, Note_on_c, 2, 61, 100
1, 30960, Note_on_c, 2, 69, 100
1, 30960, Note_on_c, 2, 66, 100
1, 30960, Note_on_c, 9, 48, 127
1, 30960, Note_on_c, 4, 35, 100
1, 30960, Note_on_c, 2, 62, 100
1, 30980, Note_on_c, 9, 48, 0
1, 30990, Note_on_c, 9, 48, 127
1, 31000, Note_on_c, 9, 54, 0
1, 31010, Note_on_c, 9, 48, 0
1, 31020, Note_on_c, 9, 47, 127
1, 31020, Note_on_c, 9, 54, 55
1, 31040, Note_on_c, 9, 47, 0
1, 31050, Note_on_c, 9, 47, 127
1, 31060, Note_on_c, 9, 54, 0
1, 31070, Note_on_c, 9, 47, 0
1, 31080, Note_on_c, 9, 54, 55
1, 31080, Note_on_c, 9, 45, 127
1, 31100, Note_on_c, 9, 45, 0
1, 31110, Note_on_c, 3, 69, 0
1, 31116, Note_on_c, 4, 35, 0
1, 31120, Note_on_c, 9, 54, 0
1, 31138, Note_on_c, 2, 66, 0
1, 31138, Note_on_c, 2, 69, 0
1, 31138, Note_on_c, 2, 61, 0
1, 31138, Note_on_c, 2, 62, 0
1, 31140, Note_on_c, 4, 40, 100
1, 31140, Note_on_c, 9, 43, 127
1, 31140, Note_on_c, 9, 54, 55
1, 31160, Note_on_c, 9, 43, 0
1, 31166, Note_on_c, 4, 40, 0
1, 31170, Note_on_c, 4, 42, 100
1, 31170, Note_on_c, 9, 43, 127
1, 31180, Note_on_c, 9, 54, 0
1, 31190, Note_on_c, 9, 43, 0
1, 31196, Note_on_c, 4, 42, 0
1, 31200, Note_on_c, 2, 73, 100
1, 31200, Note_on_c, 4, 47, 100
1, 31200, Note_on_c, 2, 69, 100
1, 31200, Note_on_c, 2, 62, 100
1, 31200, Note_on_c, 9, 53, 100
1, 31200, Note_on_c, 1, 73, 110
1, 31200, Note_on_c, 1, 69, 110
1, 31200, Note_on_c, 1, 64, 110
1, 31200, Note_on_c, 9, 35, 100
1, 31200, Note_on_c, 9, 54, 55
1, 31200, Note_on_c, 9, 49, 100
1, 31226, Note_on_c, 1, 64, 0
1, 31230, Note_on_c, 1, 66, 110
1, 31240, Note_on_c, 9, 54, 0
1, 31240, Note_on_c, 9, 35, 0
1, 31260, Note_on_c, 9, 54, 55
1, 31280, Note_on_c, 9, 53, 0
1, 31280, Note_on_c, 9, 49, 0
1, 31300, Note_on_c, 9, 54, 0
1, 31320, Note_on_c, 9, 54, 55
1, 31320, Note_on_c, 9, 53, 100
1, 31320, Note_on_c, 9, 38, 100
1, 31334, Note_on_c, 1, 66, 0
1, 31356, Note_on_c, 4, 47, 0
1, 31356, Note_on_c, 1, 69, 0
1, 31356, Note_on_c, 1, 73, 0
1, 31360, Note_on_c, 9, 54, 0
1, 31360, Note_on_c, 9, 38, 0
1, 31378, Note_on_c, 2, 69, 0
1, 31378, Note_on_c, 2, 62, 0
1, 31378, Note_on_c, 2, 73, 0
1, 31380, Note_on_c, 4, 44, 100
1, 31380, Note_on_c, 9, 35, 100
1, 31380, Note_on_c, 2, 68, 100
1, 31380, Note_on_c, 2, 64, 100
1, 31380, Note_on_c, 9, 54, 55
1, 31380, Note_on_c, 1, 64, 110
1, 31380, Note_on_c, 2, 59, 100
1, 31380, Note_on_c, 1, 71, 110
1, 31400, Note_on_c, 9, 53, 0
1, 31420, Note_on_c, 9, 54, 0
1, 31420, Note_on_c, 9, 35, 0
1, 31440, Note_on_c, 9, 53, 100
1, 31440, Note_on_c, 9, 54, 55
1, 31480, Note_on_c, 9, 54, 0
1, 31484, Note_on_c, 4, 44, 0
1, 31498, Note_on_c, 2, 59, 0
1, 31498, Note_on_c, 2, 64, 0
1, 31498, Note_on_c, 2, 68, 0
1, 31500, Note_on_c, 2, 59, 100
1, 31500, Note_on_c, 9, 35, 100
1, 31500, Note_on_c, 4, 45, 100
1, 31500, Note_on_c, 2, 68, 100
1, 31500, Note_on_c, 9, 54, 55
1, 31500, Note_on_c, 2, 64, 100
1, 31520, Note_on_c, 9, 53, 0
1, 31536, Note_on_c, 1, 64, 0
1, 31536, Note_on_c, 1, 71, 0
1, 31540, Note_on_c, 9, 54, 0
1, 31540, Note_on_c, 9, 35, 0
1, 31560, Note_on_c, 9, 38, 100
1, 31560, Note_on_c, 9, 53, 100
1, 31560, Note_on_c, 1, 68, 110
1, 31560, Note_on_c, 9, 54, 55
1, 31586, Note_on_c, 1, 68, 0
1, 31590, Note_on_c, 1, 69, 110
1, 31600, Note_on_c, 9, 54, 0
1, 31600, Note_on_c, 9, 38, 0
1, 31616, Note_on_c, 1, 69, 0
1, 31620, Note_on_c, 9, 54, 55
1, 31620, Note_on_c, 1, 71, 110
1, 31630, Note_on_c, 4, 45, 0
1, 31640, Note_on_c, 9, 53, 0
1, 31650, Note_on_c, 4, 49, 100
1, 31660, Note_on_c, 9, 54, 0
1, 31672, Note_on_c, 1, 71, 0
1, 31676, Note_on_c, 4, 49, 0
1, 31678, Note_on_c, 2, 64, 0
1, 31678, Note_on_c, 2, 59, 0
1, 31678, Note_on_c, 2, 68, 0
1, 31680, Note_on_c, 1, 69, 110
1, 31680, Note_on_c, 2, 64, 100
1, 31680, Note_on_c, 1, 64, 110
1, 31680, Note_on_c, 9, 54, 55
1, 31680, Note_on_c, 2, 66, 100
1, 31680, Note_on_c, 2, 69, 100
1, 31680, Note_on_c, 9, 53, 100
1, 31680, Note_on_c, 9, 35, 100
1, 31680, Note_on_c, 4, 45, 100
1, 31720, Note_on_c, 9, 35, 0
1, 31720, Note_on_c, 9, 54, 0
1, 31740, Note_on_c, 9, 54, 55
1, 31760, Note_on_c, 9, 53, 0
1, 31780, Note_on_c, 9, 54, 0
1, 31784, Note_on_c, 1, 64, 0
1, 31784, Note_on_c, 1, 69, 0
1, 31800, Note_on_c, 9, 38, 100
1, 31800, Note_on_c, 1, 68, 110
1, 31800, Note_on_c, 9, 53, 100
1, 31800, Note_on_c, 9, 54, 55
1, 31836, Note_on_c, 4, 45, 0
1, 31840, Note_on_c, 9, 54, 0
1, 31840, Note_on_c, 9, 38, 0
1, 31852, Note_on_c, 1, 68, 0
1, 31858, Note_on_c, 2, 66, 0
1, 31858, Note_on_c, 2, 64, 0
1, 31858, Note_on_c, 2, 69, 0
1, 31860, Note_on_c, 9, 35, 100
1, 31860, Note_on_c, 2, 69, 100
1, 31860, Note_on_c, 1, 62, 110
1, 31860, Note_on_c, 4, 38, 100
1, 31860, Note_on_c, 1, 66, 110
1, 31860, Note_on_c, 1, 57, 110
1, 31860, Note_on_c, 9, 54, 55
1, 31860, Note_on_c, 2, 64, 100
1, 31860, Note_on_c, 2, 62, 100
1, 31880, Note_on_c, 9, 53, 0
1, 31900, Note_on_c, 9, 54, 0
1, 31900, Note_on_c, 9, 35, 0
1, 31920, Note_on_c, 9, 54, 55
1, 31920, Note_on_c, 9, 53, 100
1, 31960, Note_on_c, 9, 54, 0
1, 31964, Note_on_c, 1, 62, 0
1, 31964, Note_on_c, 4, 38, 0
1, 31964, Note_on_c, 1, 66, 0
1, 31964, Note_on_c, 1, 57, 0
1, 31978, Note_on_c, 2, 62, 0
1, 31978, Note_on_c, 2, 64, 0
1, 31978, Note_on_c, 2, 69, 0
1, 31980, Note_on_c, 2, 64, 100
1, 31980, Note_on_c, 1, 64, 110
1, 31980, Note_on_c, 1, 59, 110
1, 31980, Note_on_c, 1, 56, 110
1, 31980, Note_on_c, 2, 56, 100
1, 31980, Note_on_c, 4, 40, 100
1, 31980, Note_on_c, 2, 59, 100
1, 31980, Note_on_c, 9, 35, 100
1, 31980, Note_on_c, 9, 54, 55
1, 32000, Note_on_c, 9, 53, 0
1, 32020, Note_on_c, 9, 54, 0
1, 32020, Note_on_c, 9, 35, 0
1, 32032, Note_on_c, 4, 40, 0
1, 32040, Note_on_c, 9, 54, 55
1, 32040, Note_on_c, 4, 40, 100
1, 32040, Note_on_c, 9, 38, 100
1, 32040, Note_on_c, 9, 53, 100
1, 32080, Note_on_c, 9, 38, 0
1, 32080, Note_on_c, 9, 54, 0
1, 32084, Note_on_c, 1, 59, 0
1, 32084, Note_on_c, 1, 56, 0
1, 32084, Note_on_c, 1, 64, 0
1, 32100, Note_on_c, 9, 54, 55
1, 32100, Note_on_c, 1, 69, 110
1, 32118, Note_on_c, 4, 40, 0
1, 32120, Note_on_c, 9, 53, 0
1, 32126, Note_on_c, 1, 69, 0
1, 32130, Note_on_c, 1, 71, 110
1, 32130, Note_on_c, 4, 45, 100
1, 32140, Note_on_c, 9, 54, 0
1, 32156, Note_on_c, 1, 71, 0
1, 32156, Note_on_c, 4, 45, 0
1, 32158, Note_on_c, 2, 64, 0
1, 32158, Note_on_c, 2, 56, 0
1, 32158, Note_on_c, 2, 59, 0
1, 32160, Note_on_c, 9, 49, 100
1, 32160, Note_on_c, 2, 73, 100
1, 32160, Note_on_c, 1, 69, 110
1, 32160, Note_on_c, 9, 53, 100
1, 32160, Note_on_c, 4, 47, 100
1, 32160, Note_on_c, 1, 73, 110
1, 32160, Note_on_c, 9, 35, 100
1, 32160, Note_on_c, 1, 64, 110
1, 32160, Note_on_c, 2, 62, 100
1, 32160, Note_on_c, 9, 54, 55
1, 32160, Note_on_c, 2, 69, 100
1, 32200, Note_on_c, 9, 54, 0
1, 32200, Note_on_c, 9, 35, 0
1, 32220, Note_on_c, 9, 54, 55
1, 32240, Note_on_c, 9, 53, 0
1, 32260, Note_on_c, 9, 54, 0
1, 32264, Note_on_c, 1, 64, 0
1, 32264, Note_on_c, 1, 69, 0
1, 32264, Note_on_c, 1, 73, 0
1, 32280, Note_on_c, 9, 54, 55
1, 32280, Note_on_c, 9, 38, 100
1, 32280, Note_on_c, 9, 53, 100
1, 32280, Note_on_c, 1, 71, 110
1, 32306, Note_on_c, 1, 71, 0
1, 32310, Note_on_c, 1, 69, 110
1, 32316, Note_on_c, 4, 47, 0
1, 32320, Note_on_c, 9, 38, 0
1, 32320, Note_on_c, 9, 49, 0
1, 32320, Note_on_c, 9, 54, 0
1, 32336, Note_on_c, 1, 69, 0
1, 32338, Note_on_c, 2, 62, 0
1, 32338, Note_on_c, 2, 69, 0
1, 32338, Note_on_c, 2, 73, 0
1, 32340, Note_on_c, 1, 71, 110
1, 32340, Note_on_c, 2, 59, 100
1, 32340, Note_on_c, 2, 68, 100
1, 32340, Note_on_c, 9, 35, 100
1, 32340, Note_on_c, 1, 64, 110
1, 32340, Note_on_c, 4, 44, 100
1, 32340, Note_on_c, 2, 64, 100
1, 32340, Note_on_c, 9, 54, 55
1, 32360, Note_on_c, 9, 53, 0
1, 32380, Note_on_c, 9, 54, 0
1, 32380, Note_on_c, 9, 35, 0
1, 32400, Note_on_c, 9, 54, 55
1, 32400, Note_on_c, 9, 53, 100
1, 32440, Note_on_c, 9, 54, 0
1, 32444, Note_on_c, 4, 44, 0
1, 32458, Note_on_c, 2, 64, 0
1, 32458, Note_on_c, 2, 68, 0
1, 32458, Note_on_c, 2, 59, 0
1, 32460, Note_on_c, 9, 54, 55
1, 32460, Note_on_c, 2, 59, 100
1, 32460, Note_on_c, 2, 64, 100
1, 32460, Note_on_c, 4, 45, 100
1, 32460, Note_on_c, 2, 68, 100
1, 32460, Note_on_c, 9, 35, 100
1, 32480, Note_on_c, 9, 53, 0
1, 32496, Note_on_c, 1, 64, 0
1, 32496, Note_on_c, 1, 71, 0
1, 32500, Note_on_c, 9, 54, 0
1, 32500, Note_on_c, 9, 35, 0
1, 32520, Note_on_c, 9, 38, 100
1, 32520, Note_on_c, 1, 68, 110
1, 32520, Note_on_c, 9, 53, 100
1, 32520, Note_on_c, 9, 54, 55
1, 32546, Note_on_c, 1, 68, 0
1, 32550, Note_on_c, 1, 69, 110
1, 32560, Note_on_c, 9, 54, 0
1, 32560, Note_on_c, 9, 38, 0
1, 32576, Note_on_c, 1, 69, 0
1, 32580, Note_on_c, 1, 71, 110
1, 32580, Note_on_c, 9, 54, 55
1, 32590, Note_on_c, 4, 45, 0
1, 32600, Note_on_c, 9, 53, 0
1, 32610, Note_on_c, 4, 49, 100
1, 32620, Note_on_c, 9, 54, 0
1, 32632, Note_on_c, 1, 71, 0
1, 32636, Note_on_c, 4, 49, 0
1, 32638, Note_on_c, 2, 68, 0
1, 32638, Note_on_c, 2, 64, 0
1, 32638, Note_on_c, 2, 59, 0
1, 32640, Note_on_c, 9, 35, 100
1, 32640, Note_on_c, 9, 53, 100
1, 32640, Note_on_c, 2, 66, 100
1, 32640, Note_on_c, 9, 54, 55
1, 32640, Note_on_c, 2, 64, 100
1, 32640, Note_on_c, 4, 45, 100
1, 32640, Note_on_c, 1, 69, 110
1, 32640, Note_on_c, 1, 64, 110
1, 32640, Note_on_c, 2, 69, 100
1, 32680, Note_on_c, 9, 54, 0
1, 32680, Note_on_c, 9, 35, 0
1, 32700, Note_on_c, 9, 54, 55
1, 32720, Note_on_c, 9, 53, 0
1, 32740, Note_on_c, 9, 54, 0
1, 32744, Note_on_c, 1, 64, 0
1, 32744, Note_on_c, 1, 69, 0
1, 32760, Note_on_c, 9, 54, 55
1, 32760, Note_on_c, 9, 38, 100
1, 32760, Note_on_c, 1, 68, 110
1, 32760, Note_on_c, 9, 53, 100
1, 32796, Note_on_c, 4, 45, 0
1, 32800, Note_on_c, 9, 54, 0
1, 32800, Note_on_c, 9, 38, 0
1, 32812, Note_on_c, 1, 68, 0
1, 32818, Note_on_c, 2, 64, 0
1, 32818, Note_on_c, 2, 69, 0
1, 32818, Note_on_c, 2, 66, 0
1, 32820, Note_on_c, 9, 35, 100
1, 32820, Note_on_c, 4, 38, 100
1, 32820, Note_on_c, 2, 69, 100
1, 32820, Note_on_c, 1, 57, 110
1, 32820, Note_on_c, 2, 64, 100
1, 32820, Note_on_c, 9, 54, 55
1, 32820, Note_on_c, 1, 66, 110
1, 32820, Note_on_c, 2, 62, 100
1, 32820, Note_on_c, 1, 62, 110
1, 32840, Note_on_c, 9, 53, 0
1, 32860, Note_on_c, 9, 35, 0
1, 32860, Note_on_c, 9, 54, 0
1, 32880, Note_on_c, 9, 53, 100
1, 32880, Note_on_c, 3, 78, 100
1, 32880, Note_on_c, 9, 54, 55
1, 32906, Note_on_c, 3, 78, 0
1, 32910, Note_on_c, 3, 78, 100
1, 32920, Note_on_c, 9, 54, 0
1, 32924, Note_on_c, 1, 62, 0
1, 32924, Note_on_c, 1, 66, 0
1, 32924, Note_on_c, 1, 57, 0
1, 32924, Note_on_c, 4, 38, 0
1, 32936, Note_on_c, 3, 78, 0
1, 32938, Note_on_c, 2, 69, 0
1, 32938, Note_on_c, 2, 64, 0
1, 32938, Note_on_c, 2, 62, 0
1, 32940, Note_on_c, 2, 59, 100
1, 32940, Note_on_c, 2, 56, 100
1, 32940, Note_on_c, 2, 64, 100
1, 32940, Note_on_c, 9, 35, 100
1, 32940, Note_on_c, 1, 56, 110
1, 32940, Note_on_c, 4, 40, 100
1, 32940, Note_on_c, 3, 76, 100
1, 32940, Note_on_c, 9, 54, 55
1, 32940, Note_on_c, 1, 64, 110
1, 32940, Note_on_c, 1, 59, 110
1, 32960, Note_on_c, 9, 53, 0
1, 32966, Note_on_c, 3, 76, 0
1, 32970, Note_on_c, 3, 74, 100
1, 32980, Note_on_c, 9, 54, 0
1, 32980, Note_on_c, 9, 35, 0
1, 32992, Note_on_c, 4, 40, 0
1, 32996, Note_on_c, 3, 74, 0
1, 33000, Note_on_c, 3, 73, 100
1, 33000, Note_on_c, 4, 40, 100
1, 33000, Note_on_c, 9, 38, 100
1, 33000, Note_on_c, 9, 54, 55
1, 33000, Note_on_c, 9, 53, 100
1, 33026, Note_on_c, 3, 73, 0
1, 33030, Note_on_c, 3, 73, 100
1, 33040, Note_on_c, 9, 54, 0
1, 33040, Note_on_c, 9, 38, 0
1, 33056, Note_on_c, 3, 73, 0
1, 33060, Note_on_c, 3, 71, 100
1, 33060, Note_on_c, 9, 54, 55
1, 33078, Note_on_c, 4, 40, 0
1, 33080, Note_on_c, 9, 53, 0
1, 33086, Note_on_c, 3, 71, 0
1, 33090, Note_on_c, 3, 69, 100
1, 33090, Note_on_c, 4, 45, 100
1, 33093, Note_on_c, 1, 59, 0
1, 33093, Note_on_c, 1, 64, 0
1, 33093, Note_on_c, 1, 56, 0
1, 33100, Note_on_c, 9, 54, 0
1, 33116, Note_on_c, 4, 45, 0
1, 33116, Note_on_c, 3, 69, 0
1, 33118, Note_on_c, 2, 64, 0
1, 33118, Note_on_c, 2, 59, 0
1, 33118, Note_on_c, 2, 56, 0
1, 33120, Note_on_c, 9, 54, 55
1, 33120, Note_on_c, 3, 66, 100
1, 33120, Note_on_c, 1, 73, 90
1, 33120, Note_on_c, 1, 64, 90
1, 33120, Note_on_c, 2, 69, 100
1, 33120, Note_on_c, 1, 69, 90
1, 33120, Note_on_c, 9, 35, 100
1, 33120, Note_on_c, 2, 62, 100
1, 33120, Note_on_c, 4, 47, 100
1, 33120, Note_on_c, 2, 73, 100
1, 33120, Note_on_c, 9, 53, 100
1, 33146, Note_on_c, 1, 64, 0
1, 33150, Note_on_c, 1, 66, 90
1, 33160, Note_on_c, 9, 54, 0
1, 33160, Note_on_c, 9, 35, 0
1, 33180, Note_on_c, 9, 54, 55
1, 33198, Note_on_c, 3, 66, 0
1, 33200, Note_on_c, 9, 53, 0
1, 33210, Note_on_c, 3, 69, 100
1, 33220, Note_on_c, 9, 54, 0
1, 33236, Note_on_c, 3, 69, 0
1, 33240, Note_on_c, 3, 69, 100
1, 33240, Note_on_c, 9, 38, 100
1, 33240, Note_on_c, 9, 53, 100
1, 33240, Note_on_c, 9, 54, 55
1, 33254, Note_on_c, 1, 66, 0
1, 33276, Note_on_c, 4, 47, 0
1, 33276, Note_on_c, 1, 73, 0
1, 33276, Note_on_c, 1, 69, 0
1, 33280, Note_on_c, 9, 38, 0
1, 33280, Note_on_c, 9, 54, 0
1, 33292, Note_on_c, 3, 69, 0
1, 33298, Note_on_c, 2, 73, 0
1, 33298, Note_on_c, 2, 62, 0
1, 33298, Note_on_c, 2, 69, 0
1, 33300, Note_on_c, 9, 54, 55
1, 33300, Note_on_c, 9, 35, 100
1, 33300, Note_on_c, 1, 64, 90
1, 33300, Note_on_c, 2, 68, 100
1, 33300, Note_on_c, 4, 44, 100
1, 33300, Note_on_c, 1, 71, 90
1, 33300, Note_on_c, 3, 71, 100
1, 33300, Note_on_c, 2, 64, 100
1, 33300, Note_on_c, 2, 59, 100
1, 33320, Note_on_c, 9, 53, 0
1, 33326, Note_on_c, 3, 71, 0
1, 33330, Note_on_c, 3, 68, 100
1, 33340, Note_on_c, 9, 54, 0
1, 33340, Note_on_c, 9, 35, 0
1, 33360, Note_on_c, 9, 53, 100
1, 33360, Note_on_c, 9, 54, 55
1, 33400, Note_on_c, 9, 54, 0
1, 33404, Note_on_c, 4, 44, 0
1, 33408, Note_on_c, 3, 68, 0
1, 33418, Note_on_c, 2, 64, 0
1, 33418, Note_on_c, 2, 59, 0
1, 33418, Note_on_c, 2, 68, 0
1, 33420, Note_on_c, 4, 45, 100
1, 33420, Note_on_c, 2, 59, 100
1, 33420, Note_on_c, 2, 64, 100
1, 33420, Note_on_c, 2, 68, 100
1, 33420, Note_on_c, 3, 71, 100
1, 33420, Note_on_c, 9, 54, 55
1, 33420, Note_on_c, 9, 35, 100
1, 33440, Note_on_c, 9, 53, 0
1, 33446, Note_on_c, 3, 71, 0
1, 33450, Note_on_c, 3, 66, 100
1, 33456, Note_on_c, 1, 64, 0
1, 33456, Note_on_c, 1, 71, 0
1, 33460, Note_on_c, 9, 54, 0
1, 33460, Note_on_c, 9, 35, 0
1, 33476, Note_on_c, 3, 66, 0
1, 33480, Note_on_c, 3, 64, 100
1, 33480, Note_on_c, 1, 68, 90
1, 33480, Note_on_c, 9, 38, 100
1, 33480, Note_on_c, 9, 53, 100
1, 33480, Note_on_c, 9, 54, 55
1, 33506, Note_on_c, 1, 68, 0
1, 33510, Note_on_c, 1, 69, 90
1, 33520, Note_on_c, 9, 54, 0
1, 33520, Note_on_c, 9, 38, 0
1, 33536, Note_on_c, 1, 69, 0
1, 33540, Note_on_c, 1, 71, 90
1, 33540, Note_on_c, 9, 54, 55
1, 33550, Note_on_c, 4, 45, 0
1, 33560, Note_on_c, 9, 53, 0
1, 33570, Note_on_c, 4, 49, 100
1, 33580, Note_on_c, 9, 54, 0
1, 33584, Note_on_c, 3, 64, 0
1, 33592, Note_on_c, 1, 71, 0
1, 33596, Note_on_c, 4, 49, 0
1, 33598, Note_on_c, 2, 68, 0
1, 33598, Note_on_c, 2, 64, 0
1, 33598, Note_on_c, 2, 59, 0
1, 33600, Note_on_c, 2, 69, 100
1, 33600, Note_on_c, 9, 53, 100
1, 33600, Note_on_c, 9, 54, 55
1, 33600, Note_on_c, 2, 66, 100
1, 33600, Note_on_c, 1, 64, 90
1, 33600, Note_on_c, 4, 45, 100
1, 33600, Note_on_c, 9, 35, 100
1, 33600, Note_on_c, 1, 69, 90
1, 33600, Note_on_c, 2, 64, 100
1, 33630, Note_on_c, 3, 62, 100
1, 33640, Note_on_c, 9, 35, 0
1, 33640, Note_on_c, 9, 54, 0
1, 33656, Note_on_c, 3, 62, 0
1, 33660, Note_on_c, 3, 61, 100
1, 33660, Note_on_c, 9, 54, 55
1, 33680, Note_on_c, 9, 53, 0
1, 33686, Note_on_c, 3, 61, 0
1, 33690, Note_on_c, 3, 59, 100
1, 33700, Note_on_c, 9, 54, 0
1, 33704, Note_on_c, 1, 64, 0
1, 33704, Note_on_c, 1, 69, 0
1, 33716, Note_on_c, 3, 59, 0
1, 33720, Note_on_c, 9, 53, 100
1, 33720, Note_on_c, 9, 54, 55
1, 33720, Note_on_c, 1, 68, 90
1, 33720, Note_on_c, 3, 57, 100
1, 33720, Note_on_c, 9, 38, 100
1, 33746, Note_on_c, 3, 57, 0
1, 33750, Note_on_c, 3, 59, 100
1, 33756, Note_on_c, 4, 45, 0
1, 33760, Note_on_c, 9, 38, 0
1, 33760, Note_on_c, 9, 54, 0
1, 33772, Note_on_c, 1, 68, 0
1, 33776, Note_on_c, 3, 59, 0
1, 33778, Note_on_c, 2, 64, 0
1, 33778, Note_on_c, 2, 69, 0
1, 33778, Note_on_c, 2, 66, 0
1, 33780, Note_on_c, 1, 66, 90
1, 33780, Note_on_c, 9, 54, 55
1, 33780, Note_on_c, 2, 62, 100
1, 33780, Note_on_c, 9, 35, 100
1, 33780, Note_on_c, 1, 62, 90
1, 33780, Note_on_c, 4, 38, 100
1, 33780, Note_on_c, 3, 61, 100
1, 33780, Note_on_c, 2, 64, 100
1, 33780, Note_on_c, 1, 57, 90
1, 33780, Note_on_c, 2, 69, 100
1, 33800, Note_on_c, 9, 53, 0
1, 33806, Note_on_c, 3, 61, 0
1, 33810, Note_on_c, 3, 64, 100
1, 33820, Note_on_c, 9, 35, 0
1, 33820, Note_on_c, 9, 54, 0
1, 33836, Note_on_c, 3, 64, 0
1, 33840, Note_on_c, 9, 54, 55
1, 33840, Note_on_c, 3, 62, 100
1, 33840, Note_on_c, 9, 53, 100
1, 33866, Note_on_c, 3, 62, 0
1, 33870, Note_on_c, 3, 66, 100
1, 33880, Note_on_c, 9, 54, 0
1, 33884, Note_on_c, 1, 66, 0
1, 33884, Note_on_c, 1, 57, 0
1, 33884, Note_on_c, 1, 62, 0
1, 33884, Note_on_c, 4, 38, 0
1, 33896, Note_on_c, 3, 66, 0
1, 33898, Note_on_c, 2, 64, 0
1, 33898, Note_on_c, 2, 69, 0
1, 33898, Note_on_c, 2, 62, 0
1, 33900, Note_on_c, 9, 35, 100
1, 33900, Note_on_c, 4, 40, 100
1, 33900, Note_on_c, 3, 69, 100
1, 33900, Note_on_c, 1, 59, 90
1, 33900, Note_on_c, 1, 64, 90
1, 33900, Note_on_c, 2, 59, 100
1, 33900, Note_on_c, 2, 64, 100
1, 33900, Note_on_c, 9, 54, 55
1, 33900, Note_on_c, 1, 56, 90
1, 33900, Note_on_c, 2, 56, 100
1, 33920, Note_on_c, 9, 53, 0
1, 33926, Note_on_c, 3, 69, 0
1, 33930, Note_on_c, 3, 71, 100
1, 33940, Note_on_c, 9, 54, 0
1, 33940, Note_on_c, 9, 35, 0
1, 33952, Note_on_c, 4, 40, 0
1, 33956, Note_on_c, 3, 71, 0
1, 33960, Note_on_c, 4, 40, 100
1, 33960, Note_on_c, 9, 38, 100
1, 33960, Note_on_c, 9, 53, 100
1, 33960, Note_on_c, 3, 68, 100
1, 33960, Note_on_c, 9, 54, 55
1, 34000, Note_on_c, 9, 54, 0
1, 34000, Note_on_c, 9, 38, 0
1, 34004, Note_on_c, 1, 56, 0
1, 34004, Note_on_c, 1, 59, 0
1, 34004, Note_on_c, 1, 64, 0
1, 34012, Note_on_c, 3, 68, 0
1, 34020, Note_on_c, 9, 54, 55
1, 34020, Note_on_c, 1, 69, 90
1, 34020, Note_on_c, 3, 64, 100
1, 34038, Note_on_c, 4, 40, 0
1, 34040, Note_on_c, 9, 53, 0
1, 34046, Note_on_c, 1, 69, 0
1, 34050, Note_on_c, 1, 71, 90
1, 34050, Note_on_c, 4, 45, 100
1, 34060, Note_on_c, 9, 54, 0
1, 34072, Note_on_c, 3, 64, 0
1, 34076, Note_on_c, 1, 71, 0
1, 34076, Note_on_c, 4, 45, 0
1, 34078, Note_on_c, 2, 64, 0
1, 34078, Note_on_c, 2, 59, 0
1, 34078, Note_on_c, 2, 56, 0
1, 34080, Note_on_c, 1, 64, 90
1, 34080, Note_on_c, 9, 35, 100
1, 34080, Note_on_c, 4, 47, 100
1, 34080, Note_on_c, 2, 62, 100
1, 34080, Note_on_c, 1, 73, 90
1, 34080, Note_on_c, 2, 73, 100
1, 34080, Note_on_c, 9, 53, 100
1, 34080, Note_on_c, 9, 49, 100
1, 34080, Note_on_c, 9, 54, 55
1, 34080, Note_on_c, 1, 69, 90
1, 34080, Note_on_c, 2, 69, 100
1, 34110, Note_on_c, 3, 66, 100
1, 34120, Note_on_c, 9, 54, 0
1, 34120, Note_on_c, 9, 35, 0
1, 34136, Note_on_c, 3, 66, 0
1, 34140, Note_on_c, 3, 71, 100
1, 34140, Note_on_c, 9, 54, 55
1, 34160, Note_on_c, 9, 53, 0
1, 34166, Note_on_c, 3, 71, 0
1, 34170, Note_on_c, 3, 73, 100
1, 34180, Note_on_c, 9, 54, 0
1, 34184, Note_on_c, 1, 69, 0
1, 34184, Note_on_c, 1, 73, 0
1, 34184, Note_on_c, 1, 64, 0
1, 34196, Note_on_c, 3, 73, 0
1, 34200, Note_on_c, 9, 53, 100
1, 34200, Note_on_c, 3, 74, 100
1, 34200, Note_on_c, 9, 38, 100
1, 34200, Note_on_c, 9, 54, 55
1, 34200, Note_on_c, 1, 71, 90
1, 34226, Note_on_c, 1, 71, 0
1, 34230, Note_on_c, 1, 69, 90
1, 34236, Note_on_c, 4, 47, 0
1, 34240, Note_on_c, 9, 38, 0
1, 34240, Note_on_c, 9, 49, 0
1, 34240, Note_on_c, 9, 54, 0
1, 34256, Note_on_c, 1, 69, 0
1, 34258, Note_on_c, 2, 62, 0
1, 34258, Note_on_c, 2, 73, 0
1, 34258, Note_on_c, 2, 69, 0
1, 34260, Note_on_c, 1, 71, 90
1, 34260, Note_on_c, 2, 68, 100
1, 34260, Note_on_c, 2, 64, 100
1, 34260, Note_on_c, 4, 44, 100
1, 34260, Note_on_c, 9, 54, 55
1, 34260, Note_on_c, 9, 35, 100
1, 34260, Note_on_c, 1, 64, 90
1, 34260, Note_on_c, 2, 59, 100
1, 34278, Note_on_c, 3, 74, 0
1, 34280, Note_on_c, 9, 53, 0
1, 34290, Note_on_c, 3, 73, 100
1, 34300, Note_on_c, 9, 35, 0
1, 34300, Note_on_c, 9, 54, 0
1, 34316, Note_on_c, 3, 73, 0
1, 34320, Note_on_c, 3, 71, 100
1, 34320, Note_on_c, 9, 54, 55
1, 34320, Note_on_c, 9, 53, 100
1, 34346, Note_on_c, 3, 71, 0
1, 34350, Note_on_c, 3, 69, 100
1, 34360, Note_on_c, 9, 54, 0
1, 34364, Note_on_c, 4, 44, 0
1, 34376, Note_on_c, 3, 69, 0
1, 34378, Note_on_c, 2, 64, 0
1, 34378, Note_on_c, 2, 59, 0
1, 34378, Note_on_c, 2, 68, 0
1, 34380, Note_on_c, 3, 68, 100
1, 34380, Note_on_c, 9, 35, 100
1, 34380, Note_on_c, 2, 64, 100
1, 34380, Note_on_c, 9, 54, 55
1, 34380, Note_on_c, 2, 59, 100
1, 34380, Note_on_c, 2, 68, 100
1, 34380, Note_on_c, 4, 45, 100
1, 34400, Note_on_c, 9, 53, 0
1, 34416, Note_on_c, 1, 64, 0
1, 34416, Note_on_c, 1, 71, 0
1, 34420, Note_on_c, 9, 35, 0
1, 34420, Note_on_c, 9, 54, 0
1, 34440, Note_on_c, 1, 68, 90
1, 34440, Note_on_c, 9, 53, 100
1, 34440, Note_on_c, 9, 54, 55
1, 34440, Note_on_c, 9, 38, 100
1, 34458, Note_on_c, 3, 68, 0
1, 34466, Note_on_c, 1, 68, 0
1, 34470, Note_on_c, 3, 71, 100
1, 34470, Note_on_c, 1, 69, 90
1, 34480, Note_on_c, 9, 38, 0
1, 34480, Note_on_c, 9, 54, 0
1, 34496, Note_on_c, 3, 71, 0
1, 34496, Note_on_c, 1, 69, 0
1, 34500, Note_on_c, 9, 54, 55
1, 34500, Note_on_c, 1, 71, 90
1, 34500, Note_on_c, 3, 68, 100
1, 34510, Note_on_c, 4, 45, 0
1, 34520, Note_on_c, 9, 53, 0
1, 34526, Note_on_c, 3, 68, 0
1, 34530, Note_on_c, 3, 66, 100
1, 34530, Note_on_c, 4, 49, 100
1, 34540, Note_on_c, 9, 54, 0
1, 34552, Note_on_c, 1, 71, 0
1, 34556, Note_on_c, 3, 66, 0
1, 34556, Note_on_c, 4, 49, 0
1, 34558, Note_on_c, 2, 59, 0
1, 34558, Note_on_c, 2, 64, 0
1, 34558, Note_on_c, 2, 68, 0
1, 34560, Note_on_c, 2, 64, 100
1, 34560, Note_on_c, 9, 35, 100
1, 34560, Note_on_c, 2, 69, 100
1, 34560, Note_on_c, 9, 53, 100
1, 34560, Note_on_c, 9, 54, 55
1, 34560, Note_on_c, 3, 64, 100
1, 34560, Note_on_c, 4, 45, 100
1, 34560, Note_on_c, 2, 66, 100
1, 34560, Note_on_c, 1, 64, 90
1, 34560, Note_on_c, 1, 69, 90
1, 34600, Note_on_c, 9, 54, 0
1, 34600, Note_on_c, 9, 35, 0
1, 34620, Note_on_c, 9, 54, 55
1, 34638, Note_on_c, 3, 64, 0
1, 34640, Note_on_c, 9, 53, 0
1, 34650, Note_on_c, 3, 66, 100
1, 34660, Note_on_c, 9, 54, 0
1, 34664, Note_on_c, 1, 64, 0
1, 34664, Note_on_c, 1, 69, 0
1, 34676, Note_on_c, 3, 66, 0
1, 34680, Note_on_c, 1, 68, 90
1, 34680, Note_on_c, 9, 38, 100
1, 34680, Note_on_c, 3, 64, 100
1, 34680, Note_on_c, 9, 53, 100
1, 34680, Note_on_c, 9, 54, 55
1, 34716, Note_on_c, 4, 45, 0
1, 34720, Note_on_c, 9, 54, 0
1, 34720, Note_on_c, 9, 38, 0
1, 34732, Note_on_c, 1, 68, 0
1, 34738, Note_on_c, 2, 66, 0
1, 34738, Note_on_c, 2, 69, 0
1, 34738, Note_on_c, 2, 64, 0
1, 34740, Note_on_c, 1, 57, 90
1, 34740, Note_on_c, 2, 69, 100
1, 34740, Note_on_c, 1, 66, 90
1, 34740, Note_on_c, 9, 54, 55
1, 34740, Note_on_c, 1, 62, 90
1, 34740, Note_on_c, 2, 62, 100
1, 34740, Note_on_c, 9, 35, 100
1, 34740, Note_on_c, 4, 38, 100
1, 34740, Note_on_c, 2, 64, 100
1, 34758, Note_on_c, 3, 64, 0
1, 34760, Note_on_c, 9, 53, 0
1, 34770, Note_on_c, 3, 66, 100
1, 34780, Note_on_c, 9, 35, 0
1, 34780, Note_on_c, 9, 54, 0
1, 34796, Note_on_c, 3, 66, 0
1, 34800, Note_on_c, 9, 54, 55
1, 34800, Note_on_c, 3, 62, 100
1, 34800, Note_on_c, 9, 53, 100
1, 34826, Note_on_c, 3, 62, 0
1, 34830, Note_on_c, 3, 66, 100
1, 34840, Note_on_c, 9, 54, 0
1, 34844, Note_on_c, 1, 66, 0
1, 34844, Note_on_c, 4, 38, 0
1, 34844, Note_on_c, 1, 57, 0
1, 34844, Note_on_c, 1, 62, 0
1, 34856, Note_on_c, 3, 66, 0
1, 34858, Note_on_c, 2, 62, 0
1, 34858, Note_on_c, 2, 64, 0
1, 34858, Note_on_c, 2, 69, 0
1, 34860, Note_on_c, 3, 69, 100
1, 34860, Note_on_c, 2, 59, 100
1, 34860, Note_on_c, 1, 56, 90
1, 34860, Note_on_c, 1, 64, 90
1, 34860, Note_on_c, 4, 40, 100
1, 34860, Note_on_c, 9, 35, 100
1, 34860, Note_on_c, 2, 56, 100
1, 34860, Note_on_c, 2, 64, 100
1, 34860, Note_on_c, 1, 59, 90
1, 34860, Note_on_c, 9, 54, 55
1, 34880, Note_on_c, 9, 53, 0
1, 34886, Note_on_c, 3, 69, 0
1, 34890, Note_on_c, 3, 71, 100
1, 34900, Note_on_c, 9, 54, 0
1, 34900, Note_on_c, 9, 35, 0
1, 34912, Note_on_c, 4, 40, 0
1, 34916, Note_on_c, 3, 71, 0
1, 34920, Note_on_c, 9, 38, 100
1, 34920, Note_on_c, 9, 54, 55
1, 34920, Note_on_c, 9, 53, 100
1, 34920, Note_on_c, 4, 40, 100
1, 34920, Note_on_c, 3, 68, 100
1, 34950, Note_on_c, 9, 45, 90
1, 34960, Note_on_c, 9, 45, 0
1, 34960, Note_on_c, 9, 38, 0
1, 34960, Note_on_c, 9, 54, 0
1, 34960, Note_on_c, 9, 45, 90
1, 34970, Note_on_c, 9, 45, 0
1, 34972, Note_on_c, 3, 68, 0
1, 34980, Note_on_c, 3, 76, 100
1, 34980, Note_on_c, 9, 45, 90
1, 34980, Note_on_c, 9, 54, 55
1, 34998, Note_on_c, 4, 40, 0
1, 35000, Note_on_c, 9, 45, 0
1, 35000, Note_on_c, 9, 53, 0
1, 35010, Note_on_c, 4, 45, 100
1, 35010, Note_on_c, 9, 43, 90
1, 35013, Note_on_c, 1, 64, 0
1, 35013, Note_on_c, 1, 56, 0
1, 35013, Note_on_c, 1, 59, 0
1, 35020, Note_on_c, 9, 54, 0
1, 35030, Note_on_c, 9, 43, 0
1, 35036, Note_on_c, 4, 45, 0
1, 35038, Note_on_c, 2, 56, 0
1, 35038, Note_on_c, 2, 59, 0
1, 35038, Note_on_c, 2, 64, 0
1, 35040, Note_on_c, 2, 69, 100
1, 35040, Note_on_c, 1, 73, 90
1, 35040, Note_on_c, 4, 47, 100
1, 35040, Note_on_c, 9, 53, 100
1, 35040, Note_on_c, 2, 62, 100
1, 35040, Note_on_c, 9, 49, 100
1, 35040, Note_on_c, 9, 35, 100
1, 35040, Note_on_c, 9, 54, 55
1, 35040, Note_on_c, 1, 69, 90
1, 35040, Note_on_c, 1, 64, 90
1, 35040, Note_on_c, 2, 73, 100
1, 35066, Note_on_c, 1, 64, 0
1, 35070, Note_on_c, 1, 66, 90
1, 35080, Note_on_c, 9, 54, 0
1, 35080, Note_on_c, 9, 35, 0
1, 35100, Note_on_c, 9, 54, 55
1, 35120, Note_on_c, 9, 49, 0
1, 35120, Note_on_c, 9, 53, 0
1, 35136, Note_on_c, 3, 76, 0
1, 35140, Note_on_c, 9, 54, 0
1, 35160, Note_on_c, 3, 76, 100
1, 35160, Note_on_c, 9, 54, 55
1, 35160, Note_on_c, 9, 38, 100
1, 35160, Note_on_c, 9, 53, 100
1, 35174, Note_on_c, 1, 66, 0
1, 35196, Note_on_c, 1, 69, 0
1, 35196, Note_on_c, 4, 47, 0
1, 35196, Note_on_c, 1, 73, 0
1, 35199, Note_on_c, 3, 76, 0
1, 35200, Note_on_c, 9, 54, 0
1, 35200, Note_on_c, 9, 38, 0
1, 35200, Note_on_c, 3, 78, 100
1, 35218, Note_on_c, 2, 62, 0
1, 35218, Note_on_c, 2, 73, 0
1, 35218, Note_on_c, 2, 69, 0
1, 35220, Note_on_c, 9, 35, 100
1, 35220, Note_on_c, 2, 64, 100
1, 35220, Note_on_c, 2, 59, 100
1, 35220, Note_on_c, 2, 68, 100
1, 35220, Note_on_c, 9, 54, 55
1, 35220, Note_on_c, 1, 71, 90
1, 35220, Note_on_c, 4, 44, 100
1, 35220, Note_on_c, 1, 64, 90
1, 35239, Note_on_c, 3, 78, 0
1, 35240, Note_on_c, 9, 53, 0
1, 35240, Note_on_c, 3, 80, 100
1, 35260, Note_on_c, 9, 54, 0
1, 35260, Note_on_c, 9, 35, 0
1, 35279, Note_on_c, 3, 80, 0
1, 35280, Note_on_c, 3, 81, 100
1, 35280, Note_on_c, 9, 53, 100
1, 35280, Note_on_c, 9, 54, 55
1, 35319, Note_on_c, 3, 81, 0
1, 35320, Note_on_c, 9, 54, 0
1, 35320, Note_on_c, 3, 80, 100
1, 35324, Note_on_c, 4, 44, 0
1, 35338, Note_on_c, 2, 59, 0
1, 35338, Note_on_c, 2, 64, 0
1, 35338, Note_on_c, 2, 68, 0
1, 35340, Note_on_c, 2, 68, 100
1, 35340, Note_on_c, 2, 59, 100
1, 35340, Note_on_c, 9, 35, 100
1, 35340, Note_on_c, 4, 45, 100
1, 35340, Note_on_c, 9, 54, 55
1, 35340, Note_on_c, 2, 64, 100
1, 35359, Note_on_c, 3, 80, 0
1, 35360, Note_on_c, 9, 53, 0
1, 35360, Note_on_c, 3, 78, 100
1, 35376, Note_on_c, 1, 64, 0
1, 35376, Note_on_c, 1, 71, 0
1, 35380, Note_on_c, 9, 54, 0
1, 35380, Note_on_c, 9, 35, 0
1, 35399, Note_on_c, 3, 78, 0
1, 35400, Note_on_c, 9, 53, 100
1, 35400, Note_on_c, 9, 38, 100
1, 35400, Note_on_c, 1, 68, 90
1, 35400, Note_on_c, 9, 54, 55
1, 35400, Note_on_c, 3, 81, 100
1, 35426, Note_on_c, 1, 68, 0
1, 35430, Note_on_c, 1, 69, 90
1, 35439, Note_on_c, 3, 81, 0
1, 35440, Note_on_c, 9, 54, 0
1, 35440, Note_on_c, 9, 38, 0
1, 35440, Note_on_c, 3, 80, 100
1, 35456, Note_on_c, 1, 69, 0
1, 35460, Note_on_c, 9, 54, 55
1, 35460, Note_on_c, 1, 71, 90
1, 35470, Note_on_c, 4, 45, 0
1, 35480, Note_on_c, 9, 53, 0
1, 35490, Note_on_c, 4, 49, 100
1, 35500, Note_on_c, 9, 54, 0
1, 35512, Note_on_c, 1, 71, 0
1, 35516, Note_on_c, 4, 49, 0
1, 35518, Note_on_c, 2, 59, 0
1, 35518, Note_on_c, 2, 68, 0
1, 35518, Note_on_c, 2, 64, 0
1, 35520, Note_on_c, 1, 69, 90
1, 35520, Note_on_c, 2, 66, 100
1, 35520, Note_on_c, 9, 35, 100
1, 35520, Note_on_c, 4, 45, 100
1, 35520, Note_on_c, 1, 64, 90
1, 35520, Note_on_c, 2, 69, 100
1, 35520, Note_on_c, 9, 54, 55
1, 35520, Note_on_c, 2, 64, 100
1, 35520, Note_on_c, 9, 53, 100
1, 35560, Note_on_c, 9, 54, 0
1, 35560, Note_on_c, 9, 35, 0
1, 35580, Note_on_c, 3, 78, 100
1, 35580, Note_on_c, 9, 54, 55
1, 35593, Note_on_c, 3, 80, 0
1, 35600, Note_on_c, 9, 53, 0
1, 35606, Note_on_c, 3, 78, 0
1, 35610, Note_on_c, 3, 76, 100
1, 35620, Note_on_c, 9, 54, 0
1, 35624, Note_on_c, 1, 69, 0
1, 35624, Note_on_c, 1, 64, 0
1, 35636, Note_on_c, 3, 76, 0
1, 35640, Note_on_c, 9, 38, 100
1, 35640, Note_on_c, 9, 54, 55
1, 35640, Note_on_c, 3, 78, 100
1, 35640, Note_on_c, 1, 68, 90
1, 35640, Note_on_c, 9, 53, 100
1, 35666, Note_on_c, 3, 78, 0
1, 35670, Note_on_c, 3, 76, 100
1, 35676, Note_on_c, 4, 45, 0
1, 35680, Note_on_c, 9, 38, 0
1, 35680, Note_on_c, 9, 54, 0
1, 35692, Note_on_c, 1, 68, 0
1, 35698, Note_on_c, 2, 66, 0
1, 35698, Note_on_c, 2, 64, 0
1, 35698, Note_on_c, 2, 69, 0
1, 35700, Note_on_c, 9, 35, 100
1, 35700, Note_on_c, 1, 66, 90
1, 35700, Note_on_c, 2, 62, 100
1, 35700, Note_on_c, 9, 54, 55
1, 35700, Note_on_c, 2, 69, 100
1, 35700, Note_on_c, 1, 62, 90
1, 35700, Note_on_c, 4, 38, 100
1, 35700, Note_on_c, 1, 57, 90
1, 35700, Note_on_c, 2, 64, 100
1, 35720, Note_on_c, 9, 53, 0
1, 35722, Note_on_c, 3, 76, 0
1, 35730, Note_on_c, 3, 73, 100
1, 35740, Note_on_c, 9, 54, 0
1, 35740, Note_on_c, 9, 35, 0
1, 35760, Note_on_c, 9, 54, 55
1, 35760, Note_on_c, 9, 53, 100
1, 35782, Note_on_c, 3, 73, 0
1, 35790, Note_on_c, 3, 73, 100
1, 35800, Note_on_c, 9, 54, 0
1, 35804, Note_on_c, 1, 62, 0
1, 35804, Note_on_c, 1, 66, 0
1, 35804, Note_on_c, 4, 38, 0
1, 35804, Note_on_c, 1, 57, 0
1, 35818, Note_on_c, 2, 62, 0
1, 35818, Note_on_c, 2, 64, 0
1, 35818, Note_on_c, 2, 69, 0
1, 35820, Note_on_c, 2, 56, 100
1, 35820, Note_on_c, 2, 59, 100
1, 35820, Note_on_c, 9, 35, 100
1, 35820, Note_on_c, 9, 54, 55
1, 35820, Note_on_c, 1, 56, 90
1, 35820, Note_on_c, 4, 40, 100
1, 35820, Note_on_c, 2, 64, 100
1, 35820, Note_on_c, 1, 64, 90
1, 35820, Note_on_c, 1, 59, 90
1, 35840, Note_on_c, 9, 53, 0
1, 35842, Note_on_c, 3, 73, 0
1, 35850, Note_on_c, 3, 71, 100
1, 35860, Note_on_c, 9, 35, 0
1, 35860, Note_on_c, 9, 54, 0
1, 35872, Note_on_c, 4, 40, 0
1, 35876, Note_on_c, 3, 71, 0
1, 35880, Note_on_c, 3, 73, 100
1, 35880, Note_on_c, 9, 53, 100
1, 35880, Note_on_c, 4, 40, 100
1, 35880, Note_on_c, 9, 38, 100
1, 35880, Note_on_c, 9, 54, 55
1, 35906, Note_on_c, 3, 73, 0
1, 35910, Note_on_c, 3, 76, 100
1, 35920, Note_on_c, 9, 54, 0
1, 35920, Note_on_c, 9, 38, 0
1, 35924, Note_on_c, 1, 64, 0
1, 35924, Note_on_c, 1, 56, 0
1, 35924, Note_on_c, 1, 59, 0
1, 35940, Note_on_c, 1, 69, 90
1, 35940, Note_on_c, 9, 54, 55
1, 35958, Note_on_c, 4, 40, 0
1, 35960, Note_on_c, 9, 53, 0
1, 35962, Note_on_c, 3, 76, 0
1, 35966, Note_on_c, 1, 69, 0
1, 35970, Note_on_c, 3, 74, 100
1, 35970, Note_on_c, 1, 71, 90
1, 35970, Note_on_c, 4, 45, 100
1, 35980, Note_on_c, 9, 54, 0
1, 35996, Note_on_c, 1, 71, 0
1, 35996, Note_on_c, 3, 74, 0
1, 35996, Note_on_c, 4, 45, 0
1, 35998, Note_on_c, 2, 59, 0
1, 35998, Note_on_c, 2, 64, 0
1, 35998, Note_on_c, 2, 56, 0
1, 36000, Note_on_c, 2, 69, 100
1, 36000, Note_on_c, 4, 47, 100
1, 36000, Note_on_c, 9, 53, 100
1, 36000, Note_on_c, 9, 49, 100
1, 36000, Note_on_c, 1, 64, 90
1, 36000, Note_on_c, 2, 73, 100
1, 36000, Note_on_c, 2, 62, 100
1, 36000, Note_on_c, 1, 69, 90
1, 36000, Note_on_c, 1, 73, 90
1, 36000, Note_on_c, 9, 35, 100
1, 36000, Note_on_c, 9, 54, 55
1, 36030, Note_on_c, 3, 73, 100
1, 36040, Note_on_c, 9, 54, 0
1, 36040, Note_on_c, 9, 35, 0
1, 36056, Note_on_c, 3, 73, 0
1, 36060, Note_on_c, 9, 54, 55
1, 36060, Note_on_c, 3, 71, 100
1, 36080, Note_on_c, 9, 53, 0
1, 36086, Note_on_c, 3, 71, 0
1, 36090, Note_on_c, 3, 69, 100
1, 36100, Note_on_c, 9, 54, 0
1, 36104, Note_on_c, 1, 73, 0
1, 36104, Note_on_c, 1, 64, 0
1, 36104, Note_on_c, 1, 69, 0
1, 36116, Note_on_c, 3, 69, 0
1, 36120, Note_on_c, 1, 71, 90
1, 36120, Note_on_c, 3, 68, 100
1, 36120, Note_on_c, 9, 53, 100
1, 36120, Note_on_c, 9, 38, 100
1, 36120, Note_on_c, 9, 54, 55
1, 36146, Note_on_c, 3, 68, 0
1, 36146, Note_on_c, 1, 71, 0
1, 36150, Note_on_c, 1, 69, 90
1, 36150, Note_on_c, 3, 66, 100
1, 36156, Note_on_c, 4, 47, 0
1, 36160, Note_on_c, 9, 54, 0
1, 36160, Note_on_c, 9, 49, 0
1, 36160, Note_on_c, 9, 38, 0
1, 36176, Note_on_c, 3, 66, 0
1, 36176, Note_on_c, 1, 69, 0
1, 36178, Note_on_c, 2, 62, 0
1, 36178, Note_on_c, 2, 73, 0
1, 36178, Note_on_c, 2, 69, 0
1, 36180, Note_on_c, 2, 59, 100
1, 36180, Note_on_c, 3, 71, 100
1, 36180, Note_on_c, 2, 68, 100
1, 36180, Note_on_c, 1, 71, 90
1, 36180, Note_on_c, 2, 64, 100
1, 36180, Note_on_c, 1, 64, 90
1, 36180, Note_on_c, 9, 35, 100
1, 36180, Note_on_c, 4, 44, 100
1, 36180, Note_on_c, 9, 54, 55
1, 36200, Note_on_c, 9, 53, 0
1, 36220, Note_on_c, 9, 54, 0
1, 36220, Note_on_c, 9, 35, 0
1, 36240, Note_on_c, 9, 53, 100
1, 36240, Note_on_c, 9, 54, 55
1, 36258, Note_on_c, 3, 71, 0
1, 36270, Note_on_c, 3, 68, 100
1, 36280, Note_on_c, 9, 54, 0
1, 36284, Note_on_c, 4, 44, 0
1, 36298, Note_on_c, 2, 68, 0
1, 36298, Note_on_c, 2, 59, 0
1, 36298, Note_on_c, 2, 64, 0
1, 36300, Note_on_c, 9, 35, 100
1, 36300, Note_on_c, 2, 64, 100
1, 36300, Note_on_c, 4, 45, 100
1, 36300, Note_on_c, 2, 68, 100
1, 36300, Note_on_c, 2, 59, 100
1, 36300, Note_on_c, 9, 54, 55
1, 36320, Note_on_c, 9, 53, 0
1, 36322, Note_on_c, 3, 68, 0
1, 36330, Note_on_c, 3, 73, 100
1, 36336, Note_on_c, 1, 71, 0
1, 36336, Note_on_c, 1, 64, 0
1, 36340, Note_on_c, 9, 35, 0
1, 36340, Note_on_c, 9, 54, 0
1, 36356, Note_on_c, 3, 73, 0
1, 36360, Note_on_c, 3, 64, 100
1, 36360, Note_on_c, 9, 54, 55
1, 36360, Note_on_c, 9, 53, 100
1, 36360, Note_on_c, 9, 38, 100
1, 36360, Note_on_c, 1, 68, 90
1, 36386, Note_on_c, 1, 68, 0
1, 36386, Note_on_c, 3, 64, 0
1, 36390, Note_on_c, 3, 69, 100
1, 36390, Note_on_c, 1, 69, 90
1, 36400, Note_on_c, 9, 38, 0
1, 36400, Note_on_c, 9, 54, 0
1, 36416, Note_on_c, 1, 69, 0
1, 36416, Note_on_c, 3, 69, 0
1, 36420, Note_on_c, 1, 71, 90
1, 36420, Note_on_c, 3, 73, 100
1, 36420, Note_on_c, 9, 54, 55
1, 36430, Note_on_c, 4, 45, 0
1, 36440, Note_on_c, 9, 53, 0
1, 36446, Note_on_c, 3, 73, 0
1, 36450, Note_on_c, 4, 49, 100
1, 36450, Note_on_c, 3, 76, 100
1, 36460, Note_on_c, 9, 54, 0
1, 36472, Note_on_c, 1, 71, 0
1, 36476, Note_on_c, 4, 49, 0
1, 36476, Note_on_c, 3, 76, 0
1, 36478, Tempo, 625000
1, 36478, Note_on_c, 2, 59, 0
1, 36478, Note_on_c, 2, 64, 0
1, 36478, Note_on_c, 2, 68, 0
1, 36480, Note_on_c, 9, 53, 100
1, 36480, Note_on_c, 9, 54, 55
1, 36480, Note_on_c, 9, 35, 100
1, 36480, Note_on_c, 2, 69, 100
1, 36480, Note_on_c, 4, 45, 100
1, 36480, Note_on_c, 2, 66, 100
1, 36480, Note_on_c, 1, 69, 90
1, 36480, Note_on_c, 3, 78, 100
1, 36480, Note_on_c, 1, 64, 90
1, 36480, Note_on_c, 2, 64, 100
1, 36520, Note_on_c, 9, 35, 0
1, 36520, Note_on_c, 9, 54, 0
1, 36522, Note_on_c, 3, 78, 0
1, 36526, Note_on_c, 3, 80, 100
1, 36540, Note_on_c, 9, 54, 55
1, 36560, Note_on_c, 9, 53, 0
1, 36568, Note_on_c, 3, 80, 0
1, 36575, Note_on_c, 3, 81, 100
1, 36580, Note_on_c, 9, 54, 0
1, 36584, Note_on_c, 1, 64, 0
1, 36584, Note_on_c, 1, 69, 0
1, 36600, Note_on_c, 9, 54, 55
1, 36600, Note_on_c, 9, 38, 100
1, 36600, Note_on_c, 1, 68, 90
1, 36600, Note_on_c, 9, 53, 100
1, 36617, Note_on_c, 3, 81, 0
1, 36623, Note_on_c, 3, 80, 100
1, 36636, Note_on_c, 4, 45, 0
1, 36640, Note_on_c, 9, 38, 0
1, 36640, Note_on_c, 9, 54, 0
1, 36652, Note_on_c, 1, 68, 0
1, 36658, Note_on_c, 2, 69, 0
1, 36658, Note_on_c, 2, 66, 0
1, 36658, Note_on_c, 2, 64, 0
1, 36660, Note_on_c, 1, 66, 90
1, 36660, Note_on_c, 9, 35, 100
1, 36660, Note_on_c, 2, 62, 100
1, 36660, Note_on_c, 4, 38, 100
1, 36660, Note_on_c, 1, 62, 90
1, 36660, Note_on_c, 2, 64, 100
1, 36660, Note_on_c, 9, 54, 55
1, 36660, Note_on_c, 2, 69, 100
1, 36660, Note_on_c, 1, 57, 90
1, 36665, Note_on_c, 3, 80, 0
1, 36672, Note_on_c, 3, 83, 100
1, 36680, Note_on_c, 9, 53, 0
1, 36700, Note_on_c, 9, 54, 0
1, 36700, Note_on_c, 9, 35, 0
1, 36720, Note_on_c, 9, 53, 100
1, 36720, Note_on_c, 9, 54, 55
1, 36740, Note_on_c, 3, 83, 0
1, 36750, Note_on_c, 3, 80, 100
1, 36760, Note_on_c, 9, 54, 0
1, 36764, Note_on_c, 1, 57, 0
1, 36764, Note_on_c, 1, 62, 0
1, 36764, Note_on_c, 1, 66, 0
1, 36764, Note_on_c, 4, 38, 0
1, 36778, Note_on_c, 2, 69, 0
1, 36778, Note_on_c, 2, 62, 0
1, 36778, Note_on_c, 2, 64, 0
1, 36780, Note_on_c, 4, 40, 100
1, 36780, Note_on_c, 9, 54, 55
1, 36780, Note_on_c, 1, 56, 90
1, 36780, Note_on_c, 1, 59, 90
1, 36780, Note_on_c, 1, 64, 90
1, 36780, Note_on_c, 9, 38, 100
1, 36780, Note_on_c, 2, 64, 100
1, 36780, Note_on_c, 9, 35, 100
1, 36780, Note_on_c, 2, 56, 100
1, 36780, Note_on_c, 2, 59, 100
1, 36800, Note_on_c, 9, 53, 0
1, 36802, Note_on_c, 3, 80, 0
1, 36810, Note_on_c, 3, 76, 100
1, 36820, Note_on_c, 9, 38, 0
1, 36820, Note_on_c, 9, 54, 0
1, 36820, Note_on_c, 9, 35, 0
1, 36832, Note_on_c, 4, 40, 0
1, 36840, Note_on_c, 9, 54, 55
1, 36840, Note_on_c, 9, 38, 100
1, 36840, Note_on_c, 4, 40, 100
1, 36840, Note_on_c, 9, 53, 100
1, 36862, Note_on_c, 3, 76, 0
1, 36870, Note_on_c, 3, 71, 100
1, 36880, Note_on_c, 9, 38, 0
1, 36880, Note_on_c, 9, 54, 0
1, 36896, Note_on_c, 3, 71, 0
1, 36900, Note_on_c, 9, 45, 100
1, 36900, Note_on_c, 9, 54, 55
1, 36900, Note_on_c, 3, 76, 100
1, 36918, Note_on_c, 4, 40, 0
1, 36920, Note_on_c, 9, 45, 0
1, 36920, Note_on_c, 9, 53, 0
1, 36926, Note_on_c, 3, 76, 0
1, 36930, Note_on_c, 3, 78, 100
1, 36930, Note_on_c, 4, 45, 100
1, 36930, Note_on_c, 9, 47, 100
1, 36933, Note_on_c, 1, 56, 0
1, 36933, Note_on_c, 1, 59, 0
1, 36933, Note_on_c, 1, 64, 0
1, 36940, Note_on_c, 9, 54, 0
1, 36950, Note_on_c, 9, 47, 0
1, 36956, Note_on_c, 4, 45, 0
1, 36958, Note_on_c, 2, 64, 0
1, 36958, Note_on_c, 2, 59, 0
1, 36958, Note_on_c, 2, 56, 0
1, 36960, Note_on_c, 9, 35, 100
1, 36960, Note_on_c, 9, 53, 100
1, 36960, Note_on_c, 4, 35, 100
1, 36960, Note_on_c, 9, 49, 100
1, 36960, Note_on_c, 9, 54, 55
1, 36980, Note_on_c, 9, 54, 0
1, 36982, Note_on_c, 3, 78, 0
1, 36990, Note_on_c, 9, 54, 55
1, 37000, Note_on_c, 9, 35, 0
1, 37010, Note_on_c, 9, 54, 0
1, 37012, Note_on_c, 4, 35, 0
1, 37020, Note_on_c, 4, 47, 100
1, 37020, Note_on_c, 2, 52, 100
1, 37020, Note_on_c, 1, 52, 85
1, 37020, Note_on_c, 2, 61, 100
1, 37020, Note_on_c, 9, 54, 55
1, 37020, Note_on_c, 1, 61, 85
1, 37020, Note_on_c, 0, 69, 100
1, 37020, Note_on_c, 2, 57, 100
1, 37020, Note_on_c, 1, 57, 85
1, 37040, Note_on_c, 9, 54, 0
1, 37040, Note_on_c, 9, 49, 0
1, 37040, Note_on_c, 9, 53, 0
1, 37050, Note_on_c, 9, 54, 55
1, 37070, Note_on_c, 9, 54, 0
1, 37072, Note_on_c, 0, 69, 0
1, 37072, Note_on_c, 1, 61, 0
1, 37072, Note_on_c, 1, 52, 0
1, 37072, Note_on_c, 1, 57, 0
1, 37078, Note_on_c, 2, 61, 0
1, 37078, Note_on_c, 2, 52, 0
1, 37078, Note_on_c, 2, 57, 0
1, 37080, Note_on_c, 0, 71, 100
1, 37080, Note_on_c, 2, 54, 100
1, 37080, Note_on_c, 2, 59, 100
1, 37080, Note_on_c, 1, 54, 85
1, 37080, Note_on_c, 9, 38, 100
1, 37080, Note_on_c, 9, 53, 100
1, 37080, Note_on_c, 1, 59, 85
1, 37080, Note_on_c, 2, 64, 100
1, 37080, Note_on_c, 9, 54, 55
1, 37080, Note_on_c, 1, 62, 85
1, 37098, Note_on_c, 4, 47, 0
1, 37100, Note_on_c, 9, 54, 0
1, 37110, Note_on_c, 4, 47, 100
1, 37110, Note_on_c, 9, 54, 55
1, 37120, Note_on_c, 9, 38, 0
1, 37130, Note_on_c, 9, 54, 0
1, 37136, Note_on_c, 4, 47, 0
1, 37140, Note_on_c, 4, 35, 100
1, 37140, Note_on_c, 9, 35, 100
1, 37140, Note_on_c, 9, 54, 55
1, 37158, Note_on_c, 0, 71, 0
1, 37160, Note_on_c, 9, 54, 0
1, 37160, Note_on_c, 9, 53, 0
1, 37170, Note_on_c, 0, 62, 100
1, 37170, Note_on_c, 9, 54, 55
1, 37180, Note_on_c, 9, 35, 0
1, 37184, Note_on_c, 1, 59, 0
1, 37184, Note_on_c, 1, 62, 0
1, 37184, Note_on_c, 1, 54, 0
1, 37190, Note_on_c, 9, 54, 0
1, 37192, Note_on_c, 4, 35, 0
1, 37196, Note_on_c, 0, 62, 0
1, 37198, Note_on_c, 2, 59, 0
1, 37198, Note_on_c, 2, 64, 0
1, 37198, Note_on_c, 2, 54, 0
1, 37200, Note_on_c, 2, 52, 100
1, 37200, Note_on_c, 1, 57, 85
1, 37200, Note_on_c, 9, 54, 55
1, 37200, Note_on_c, 9, 53, 100
1, 37200, Note_on_c, 1, 61, 85
1, 37200, Note_on_c, 2, 57, 100
1, 37200, Note_on_c, 1, 52, 85
1, 37200, Note_on_c, 0, 69, 100
1, 37200, Note_on_c, 2, 61, 100
1, 37200, Note_on_c, 4, 47, 100
1, 37220, Note_on_c, 9, 54, 0
1, 37230, Note_on_c, 9, 54, 55
1, 37250, Note_on_c, 9, 54, 0
1, 37252, Note_on_c, 0, 69, 0
1, 37260, Note_on_c, 0, 69, 100
1, 37260, Note_on_c, 9, 54, 55
1, 37260, Note_on_c, 9, 35, 100
1, 37278, Note_on_c, 4, 47, 0
1, 37278, Note_on_c, 1, 61, 0
1, 37278, Note_on_c, 1, 52, 0
1, 37278, Note_on_c, 1, 57, 0
1, 37280, Note_on_c, 9, 53, 0
1, 37280, Note_on_c, 9, 54, 0
1, 37286, Note_on_c, 0, 69, 0
1, 37288, Note_on_c, 2, 52, 0
1, 37288, Note_on_c, 2, 61, 0
1, 37288, Note_on_c, 2, 57, 0
1, 37290, Note_on_c, 1, 59, 85
1, 37290, Note_on_c, 2, 54, 100
1, 37290, Note_on_c, 1, 62, 85
1, 37290, Note_on_c, 2, 59, 100
1, 37290, Note_on_c, 4, 47, 100
1, 37290, Note_on_c, 0, 71, 100
1, 37290, Note_on_c, 2, 62, 100
1, 37290, Note_on_c, 1, 54, 85
1, 37290, Note_on_c, 9, 54, 55
1, 37300, Note_on_c, 9, 35, 0
1, 37310, Note_on_c, 9, 54, 0
1, 37316, Note_on_c, 4, 47, 0
1, 37320, Note_on_c, 9, 54, 55
1, 37320, Note_on_c, 9, 53, 100
1, 37320, Note_on_c, 9, 38, 100
1, 37320, Note_on_c, 4, 35, 100
1, 37340, Note_on_c, 9, 54, 0
1, 37342, Note_on_c, 0, 71, 0
1, 37350, Note_on_c, 9, 54, 55
1, 37350, Note_on_c, 0, 71, 100
1, 37360, Note_on_c, 9, 38, 0
1, 37370, Note_on_c, 9, 54, 0
1, 37372, Note_on_c, 4, 35, 0
1, 37380, Note_on_c, 4, 47, 100
1, 37380, Note_on_c, 9, 54, 55
1, 37394, Note_on_c, 1, 62, 0
1, 37394, Note_on_c, 1, 59, 0
1, 37394, Note_on_c, 1, 54, 0
1, 37400, Note_on_c, 9, 53, 0
1, 37400, Note_on_c, 9, 54, 0
1, 37402, Note_on_c, 0, 71, 0
1, 37410, Note_on_c, 9, 54, 55
1, 37410, Note_on_c, 0, 62, 100
1, 37430, Note_on_c, 9, 54, 0
1, 37436, Note_on_c, 0, 62, 0
1, 37438, Note_on_c, 2, 59, 0
1, 37438, Note_on_c, 2, 54, 0
1, 37438, Note_on_c, 2, 62, 0
1, 37440, Note_on_c, 1, 52, 85
1, 37440, Note_on_c, 1, 61, 85
1, 37440, Note_on_c, 2, 52, 100
1, 37440, Note_on_c, 9, 53, 100
1, 37440, Note_on_c, 9, 54, 55
1, 37440, Note_on_c, 9, 35, 100
1, 37440, Note_on_c, 1, 57, 85
1, 37440, Note_on_c, 2, 61, 100
1, 37440, Note_on_c, 2, 57, 100
1, 37440, Note_on_c, 0, 69, 100
1, 37458, Note_on_c, 4, 47, 0
1, 37460, Note_on_c, 9, 54, 0
1, 37470, Note_on_c, 4, 47, 100
1, 37470, Note_on_c, 9, 54, 55
1, 37480, Note_on_c, 9, 35, 0
1, 37490, Note_on_c, 9, 54, 0
1, 37492, Note_on_c, 0, 69, 0
1, 37496, Note_on_c, 4, 47, 0
1, 37500, Note_on_c, 0, 69, 100
1, 37500, Note_on_c, 4, 35, 100
1, 37500, Note_on_c, 9, 54, 55
1, 37518, Note_on_c, 1, 52, 0
1, 37518, Note_on_c, 1, 57, 0
1, 37518, Note_on_c, 1, 61, 0
1, 37520, Note_on_c, 9, 54, 0
1, 37520, Note_on_c, 9, 53, 0
1, 37526, Note_on_c, 0, 69, 0
1, 37528, Note_on_c, 2, 52, 0
1, 37528, Note_on_c, 2, 61, 0
1, 37528, Note_on_c, 2, 57, 0
1, 37530, Note_on_c, 2, 59, 100
1, 37530, Note_on_c, 2, 54, 100
1, 37530, Note_on_c, 1, 54, 85
1, 37530, Note_on_c, 2, 62, 100
1, 37530, Note_on_c, 9, 54, 55
1, 37530, Note_on_c, 1, 62, 85
1, 37530, Note_on_c, 1, 59, 85
1, 37530, Note_on_c, 0, 71, 100
1, 37550, Note_on_c, 9, 54, 0
1, 37552, Note_on_c, 4, 35, 0
1, 37560, Note_on_c, 4, 47, 100
1, 37560, Note_on_c, 9, 38, 100
1, 37560, Note_on_c, 9, 53, 100
1, 37560, Note_on_c, 9, 54, 55
1, 37580, Note_on_c, 9, 54, 0
1, 37590, Note_on_c, 9, 54, 55
1, 37600, Note_on_c, 9, 38, 0
1, 37608, Note_on_c, 0, 71, 0
1, 37610, Note_on_c, 9, 54, 0
1, 37620, Note_on_c, 9, 35, 100
1, 37620, Note_on_c, 9, 54, 55
1, 37620, Note_on_c, 0, 69, 100
1, 37634, Note_on_c, 1, 59, 0
1, 37634, Note_on_c, 1, 54, 0
1, 37634, Note_on_c, 1, 62, 0
1, 37638, Note_on_c, 4, 47, 0
1, 37640, Note_on_c, 9, 54, 0
1, 37640, Note_on_c, 9, 53, 0
1, 37650, Note_on_c, 9, 54, 55
1, 37650, Note_on_c, 4, 45, 100
1, 37660, Note_on_c, 9, 35, 0
1, 37670, Note_on_c, 9, 54, 0
1, 37672, Note_on_c, 0, 69, 0
1, 37676, Note_on_c, 4, 45, 0
1, 37678, Note_on_c, 2, 59, 0
1, 37678, Note_on_c, 2, 62, 0
1, 37678, Note_on_c, 2, 54, 0
1, 37680, Note_on_c, 2, 62, 100
1, 37680, Note_on_c, 1, 62, 85
1, 37680, Note_on_c, 4, 38, 100
1, 37680, Note_on_c, 9, 53, 100
1, 37680, Note_on_c, 2, 57, 100
1, 37680, Note_on_c, 9, 54, 55
1, 37680, Note_on_c, 1, 54, 85
1, 37680, Note_on_c, 2, 54, 100
1, 37680, Note_on_c, 1, 57, 85
1, 37680, Note_on_c, 0, 74, 100
1, 37700, Note_on_c, 9, 54, 0
1, 37710, Note_on_c, 9, 54, 55
1, 37730, Note_on_c, 9, 54, 0
1, 37732, Note_on_c, 0, 74, 0
1, 37740, Note_on_c, 9, 54, 55
1, 37740, Note_on_c, 0, 71, 100
1, 37740, Note_on_c, 9, 35, 100
1, 37758, Note_on_c, 4, 38, 0
1, 37760, Note_on_c, 9, 54, 0
1, 37760, Note_on_c, 9, 53, 0
1, 37770, Note_on_c, 9, 54, 55
1, 37770, Note_on_c, 4, 47, 100
1, 37780, Note_on_c, 9, 35, 0
1, 37784, Note_on_c, 1, 57, 0
1, 37784, Note_on_c, 1, 62, 0
1, 37784, Note_on_c, 1, 54, 0
1, 37790, Note_on_c, 9, 54, 0
1, 37792, Note_on_c, 0, 71, 0
1, 37796, Note_on_c, 4, 47, 0
1, 37798, Note_on_c, 2, 57, 0
1, 37798, Note_on_c, 2, 62, 0
1, 37798, Note_on_c, 2, 54, 0
1, 37800, Note_on_c, 2, 59, 100
1, 37800, Note_on_c, 1, 59, 85
1, 37800, Note_on_c, 2, 56, 100
1, 37800, Note_on_c, 2, 64, 100
1, 37800, Note_on_c, 9, 38, 100
1, 37800, Note_on_c, 1, 64, 85
1, 37800, Note_on_c, 1, 56, 85
1, 37800, Note_on_c, 9, 53, 100
1, 37800, Note_on_c, 4, 40, 100
1, 37800, Note_on_c, 0, 71, 100
1, 37800, Note_on_c, 9, 54, 55
1, 37820, Note_on_c, 9, 54, 0
1, 37830, Note_on_c, 9, 54, 55
1, 37840, Note_on_c, 9, 38, 0
1, 37850, Note_on_c, 9, 54, 0
1, 37860, Note_on_c, 9, 54, 55
1, 37878, Note_on_c, 4, 40, 0
1, 37880, Note_on_c, 9, 54, 0
1, 37880, Note_on_c, 9, 53, 0
1, 37890, Note_on_c, 4, 47, 100
1, 37890, Note_on_c, 9, 54, 55
1, 37904, Note_on_c, 1, 59, 0
1, 37904, Note_on_c, 0, 71, 0
1, 37904, Note_on_c, 1, 56, 0
1, 37904, Note_on_c, 1, 64, 0
1, 37910, Note_on_c, 9, 54, 0
1, 37916, Note_on_c, 4, 47, 0
1, 37918, Note_on_c, 2, 56, 0
1, 37918, Note_on_c, 2, 64, 0
1, 37918, Note_on_c, 2, 59, 0
1, 37920, Note_on_c, 9, 35, 100
1, 37920, Note_on_c, 9, 53, 100
1, 37920, Note_on_c, 9, 54, 55
1, 37920, Note_on_c, 4, 35, 100
1, 37940, Note_on_c, 9, 54, 0
1, 37950, Note_on_c, 9, 54, 55
1, 37950, Note_on_c, 0, 66, 100
1, 37960, Note_on_c, 9, 35, 0
1, 37970, Note_on_c, 9, 54, 0
1, 37972, Note_on_c, 4, 35, 0
1, 37976, Note_on_c, 0, 66, 0
1, 37980, Note_on_c, 2, 64, 100
1, 37980, Note_on_c, 2, 59, 100
1, 37980, Note_on_c, 2, 54, 100
1, 37980, Note_on_c, 1, 59, 85
1, 37980, Note_on_c, 1, 54, 85
1, 37980, Note_on_c, 9, 54, 55
1, 37980, Note_on_c, 1, 62, 85
1, 37980, Note_on_c, 4, 47, 100
1, 37980, Note_on_c, 0, 74, 100
1, 38000, Note_on_c, 9, 54, 0
1, 38000, Note_on_c, 9, 53, 0
1, 38010, Note_on_c, 9, 54, 55
1, 38030, Note_on_c, 9, 54, 0
1, 38032, Note_on_c, 0, 74, 0
1, 38040, Note_on_c, 9, 53, 100
1, 38040, Note_on_c, 9, 54, 55
1, 38040, Note_on_c, 9, 38, 100
1, 38040, Note_on_c, 0, 74, 100
1, 38058, Note_on_c, 4, 47, 0
1, 38060, Note_on_c, 9, 54, 0
1, 38070, Note_on_c, 9, 54, 55
1, 38070, Note_on_c, 4, 47, 100
1, 38080, Note_on_c, 9, 38, 0
1, 38090, Note_on_c, 9, 54, 0
1, 38096, Note_on_c, 4, 47, 0
1, 38100, Note_on_c, 9, 54, 55
1, 38100, Note_on_c, 9, 35, 100
1, 38100, Note_on_c, 4, 35, 100
1, 38120, Note_on_c, 9, 54, 0
1, 38120, Note_on_c, 9, 53, 0
1, 38130, Note_on_c, 9, 54, 55
1, 38136, Note_on_c, 1, 62, 0
1, 38136, Note_on_c, 1, 59, 0
1, 38136, Note_on_c, 1, 54, 0
1, 38140, Note_on_c, 9, 35, 0
1, 38144, Note_on_c, 0, 74, 0
1, 38150, Note_on_c, 9, 54, 0
1, 38152, Note_on_c, 4, 35, 0
1, 38160, Note_on_c, 2, 64, 0
1, 38160, Note_on_c, 2, 54, 0
1, 38160, Note_on_c, 2, 59, 0
1, 38160, Note_on_c, 0, 73, 100
1, 38160, Note_on_c, 9, 53, 100
1, 38160, Note_on_c, 1, 57, 85
1, 38160, Note_on_c, 2, 57, 100
1, 38160, Note_on_c, 2, 61, 100
1, 38160, Note_on_c, 4, 47, 100
1, 38160, Note_on_c, 2, 52, 100
1, 38160, Note_on_c, 1, 52, 85
1, 38160, Note_on_c, 9, 54, 55
1, 38160, Note_on_c, 1, 61, 85
1, 38180, Note_on_c, 9, 54, 0
1, 38190, Note_on_c, 9, 54, 55
1, 38210, Note_on_c, 9, 54, 0
1, 38212, Note_on_c, 0, 73, 0
1, 38220, Note_on_c, 9, 54, 55
1, 38220, Note_on_c, 9, 35, 100
1, 38220, Note_on_c, 0, 73, 100
1, 38238, Note_on_c, 1, 61, 0
1, 38238, Note_on_c, 1, 52, 0
1, 38238, Note_on_c, 4, 47, 0
1, 38238, Note_on_c, 1, 57, 0
1, 38240, Note_on_c, 9, 54, 0
1, 38240, Note_on_c, 9, 53, 0
1, 38246, Note_on_c, 0, 73, 0
1, 38248, Note_on_c, 2, 52, 0
1, 38248, Note_on_c, 2, 57, 0
1, 38248, Note_on_c, 2, 61, 0
1, 38250, Note_on_c, 0, 71, 100
1, 38250, Note_on_c, 1, 62, 85
1, 38250, Note_on_c, 2, 54, 100
1, 38250, Note_on_c, 2, 62, 100
1, 38250, Note_on_c, 4, 47, 100
1, 38250, Note_on_c, 9, 54, 55
1, 38250, Note_on_c, 1, 59, 85
1, 38250, Note_on_c, 1, 54, 85
1, 38250, Note_on_c, 2, 59, 100
1, 38260, Note_on_c, 9, 35, 0
1, 38270, Note_on_c, 9, 54, 0
1, 38276, Note_on_c, 4, 47, 0
1, 38280, Note_on_c, 9, 54, 55
1, 38280, Note_on_c, 9, 53, 100
1, 38280, Note_on_c, 4, 35, 100
1, 38280, Note_on_c, 9, 38, 100
1, 38300, Note_on_c, 9, 54, 0
1, 38310, Note_on_c, 9, 54, 55
1, 38320, Note_on_c, 9, 38, 0
1, 38330, Note_on_c, 9, 54, 0
1, 38332, Note_on_c, 4, 35, 0
1, 38340, Note_on_c, 4, 47, 100
1, 38340, Note_on_c, 9, 54, 55
1, 38354, Note_on_c, 1, 59, 0
1, 38354, Note_on_c, 1, 54, 0
1, 38354, Note_on_c, 0, 71, 0
1, 38354, Note_on_c, 1, 62, 0
1, 38360, Note_on_c, 9, 53, 0
1, 38360, Note_on_c, 9, 54, 0
1, 38370, Note_on_c, 9, 54, 55
1, 38390, Note_on_c, 9, 54, 0
1, 38398, Note_on_c, 2, 59, 0
1, 38398, Note_on_c, 2, 62, 0
1, 38398, Note_on_c, 2, 54, 0
1, 38400, Note_on_c, 9, 53, 100
1, 38400, Note_on_c, 9, 35, 100
1, 38400, Note_on_c, 0, 69, 100
1, 38400, Note_on_c, 2, 57, 100
1, 38400, Note_on_c, 2, 52, 100
1, 38400, Note_on_c, 1, 61, 85
1, 38400, Note_on_c, 2, 61, 100
1, 38400, Note_on_c, 1, 52, 85
1, 38400, Note_on_c, 9, 54, 55
1, 38400, Note_on_c, 1, 57, 85
1, 38418, Note_on_c, 4, 47, 0
1, 38420, Note_on_c, 9, 54, 0
1, 38430, Note_on_c, 4, 47, 100
1, 38430, Note_on_c, 9, 54, 55
1, 38440, Note_on_c, 9, 35, 0
1, 38450, Note_on_c, 9, 54, 0
1, 38452, Note_on_c, 0, 69, 0
1, 38456, Note_on_c, 4, 47, 0
1, 38460, Note_on_c, 9, 54, 55
1, 38460, Note_on_c, 0, 69, 100
1, 38460, Note_on_c, 4, 35, 100
1, 38478, Note_on_c, 1, 52, 0
1, 38478, Note_on_c, 1, 57, 0
1, 38478, Note_on_c, 1, 61, 0
1, 38480, Note_on_c, 9, 54, 0
1, 38480, Note_on_c, 9, 53, 0
1, 38486, Note_on_c, 4, 35, 0
1, 38486, Note_on_c, 0, 69, 0
1, 38488, Note_on_c, 2, 61, 0
1, 38488, Note_on_c, 2, 57, 0
1, 38488, Note_on_c, 2, 52, 0
1, 38490, Note_on_c, 1, 54, 85
1, 38490, Note_on_c, 2, 54, 100
1, 38490, Note_on_c, 1, 62, 85
1, 38490, Note_on_c, 9, 54, 55
1, 38490, Note_on_c, 2, 62, 100
1, 38490, Note_on_c, 2, 59, 100
1, 38490, Note_on_c, 0, 71, 100
1, 38490, Note_on_c, 1, 59, 85
1, 38490, Note_on_c, 4, 47, 100
1, 38510, Note_on_c, 9, 54, 0
1, 38520, Note_on_c, 9, 38, 100
1, 38520, Note_on_c, 9, 53, 100
1, 38520, Note_on_c, 9, 54, 55
1, 38540, Note_on_c, 9, 54, 0
1, 38542, Note_on_c, 4, 47, 0
1, 38542, Note_on_c, 0, 71, 0
1, 38550, Note_on_c, 9, 54, 55
1, 38550, Note_on_c, 0, 71, 100
1, 38550, Note_on_c, 4, 47, 100
1, 38560, Note_on_c, 9, 38, 0
1, 38570, Note_on_c, 9, 54, 0
1, 38576, Note_on_c, 0, 71, 0
1, 38580, Note_on_c, 0, 71, 100
1, 38580, Note_on_c, 9, 54, 55
1, 38580, Note_on_c, 9, 35, 100
1, 38594, Note_on_c, 1, 59, 0
1, 38594, Note_on_c, 1, 62, 0
1, 38594, Note_on_c, 1, 54, 0
1, 38600, Note_on_c, 9, 54, 0
1, 38600, Note_on_c, 9, 53, 0
1, 38602, Note_on_c, 4, 47, 0
1, 38610, Note_on_c, 9, 54, 55
1, 38610, Note_on_c, 4, 45, 100
1, 38620, Note_on_c, 9, 35, 0
1, 38630, Note_on_c, 9, 54, 0
1, 38632, Note_on_c, 0, 71, 0
1, 38636, Note_on_c, 4, 45, 0
1, 38638, Note_on_c, 2, 54, 0
1, 38638, Note_on_c, 2, 62, 0
1, 38638, Note_on_c, 2, 59, 0
1, 38640, Note_on_c, 1, 62, 85
1, 38640, Note_on_c, 0, 69, 100
1, 38640, Note_on_c, 1, 57, 85
1, 38640, Note_on_c, 1, 54, 85
1, 38640, Note_on_c, 2, 54, 100
1, 38640, Note_on_c, 2, 62, 100
1, 38640, Note_on_c, 2, 57, 100
1, 38640, Note_on_c, 9, 54, 55
1, 38640, Note_on_c, 9, 53, 100
1, 38640, Note_on_c, 4, 38, 100
1, 38660, Note_on_c, 9, 54, 0
1, 38666, Note_on_c, 0, 69, 0
1, 38670, Note_on_c, 9, 54, 55
1, 38670, Note_on_c, 0, 69, 100
1, 38690, Note_on_c, 9, 54, 0
1, 38696, Note_on_c, 0, 69, 0
1, 38700, Note_on_c, 9, 54, 55
1, 38700, Note_on_c, 9, 35, 100
1, 38700, Note_on_c, 0, 69, 100
1, 38718, Note_on_c, 4, 38, 0
1, 38720, Note_on_c, 9, 54, 0
1, 38720, Note_on_c, 9, 53, 0
1, 38730, Note_on_c, 4, 47, 100
1, 38730, Note_on_c, 9, 54, 55
1, 38740, Note_on_c, 9, 35, 0
1, 38744, Note_on_c, 1, 54, 0
1, 38744, Note_on_c, 1, 62, 0
1, 38744, Note_on_c, 1, 57, 0
1, 38750, Note_on_c, 9, 54, 0
1, 38752, Note_on_c, 0, 69, 0
1, 38756, Note_on_c, 4, 47, 0
1, 38758, Note_on_c, 2, 57, 0
1, 38758, Note_on_c, 2, 54, 0
1, 38758, Note_on_c, 2, 62, 0
1, 38760, Note_on_c, 2, 64, 100
1, 38760, Note_on_c, 0, 71, 100
1, 38760, Note_on_c, 2, 59, 100
1, 38760, Note_on_c, 1, 59, 85
1, 38760, Note_on_c, 9, 38, 100
1, 38760, Note_on_c, 2, 56, 100
1, 38760, Note_on_c, 9, 53, 100
1, 38760, Note_on_c, 1, 56, 85
1, 38760, Note_on_c, 1, 64, 85
1, 38760, Note_on_c, 9, 54, 55
1, 38760, Note_on_c, 4, 40, 100
1, 38780, Note_on_c, 9, 54, 0
1, 38790, Note_on_c, 9, 54, 55
1, 38800, Note_on_c, 9, 38, 0
1, 38810, Note_on_c, 9, 54, 0
1, 38820, Note_on_c, 9, 54, 55
1, 38838, Note_on_c, 4, 40, 0
1, 38840, Note_on_c, 9, 54, 0
1, 38840, Note_on_c, 9, 53, 0
1, 38850, Note_on_c, 9, 54, 55
1, 38850, Note_on_c, 4, 47, 100
1, 38864, Note_on_c, 1, 64, 0
1, 38864, Note_on_c, 1, 56, 0
1, 38864, Note_on_c, 0, 71, 0
1, 38864, Note_on_c, 1, 59, 0
1, 38870, Note_on_c, 9, 54, 0
1, 38876, Note_on_c, 4, 47, 0
1, 38878, Note_on_c, 2, 64, 0
1, 38878, Note_on_c, 2, 56, 0
1, 38878, Note_on_c, 2, 59, 0
1, 38880, Note_on_c, 9, 35, 100
1, 38880, Note_on_c, 9, 54, 55
1, 38880, Note_on_c, 9, 49, 100
1, 38880, Note_on_c, 9, 53, 100
1, 38880, Note_on_c, 4, 35, 100
1, 38900, Note_on_c, 9, 54, 0
1, 38910, Note_on_c, 9, 54, 55
1, 38920, Note_on_c, 9, 35, 0
1, 38930, Note_on_c, 9, 54, 0
1, 38932, Note_on_c, 4, 35, 0
1, 38940, Note_on_c, 2, 64, 100
1, 38940, Note_on_c, 1, 62, 85
1, 38940, Note_on_c, 0, 74, 100
1, 38940, Note_on_c, 4, 47, 100
1, 38940, Note_on_c, 1, 59, 85
1, 38940, Note_on_c, 1, 54, 85
1, 38940, Note_on_c, 2, 54, 100
1, 38940, Note_on_c, 2, 59, 100
1, 38940, Note_on_c, 9, 54, 55
1, 38960, Note_on_c, 9, 54, 0
1, 38960, Note_on_c, 9, 49, 0
1, 38960, Note_on_c, 9, 53, 0
1, 38966, Note_on_c, 0, 74, 0
1, 38970, Note_on_c, 9, 54, 55
1, 38970, Note_on_c, 0, 74, 100
1, 38990, Note_on_c, 9, 54, 0
1, 39000, Note_on_c, 9, 38, 100
1, 39000, Note_on_c, 9, 53, 100
1, 39000, Note_on_c, 9, 54, 55
1, 39018, Note_on_c, 4, 47, 0
1, 39020, Note_on_c, 9, 54, 0
1, 39030, Note_on_c, 4, 47, 100
1, 39030, Note_on_c, 9, 54, 55
1, 39040, Note_on_c, 9, 38, 0
1, 39044, Note_on_c, 1, 54, 0
1, 39044, Note_on_c, 1, 62, 0
1, 39044, Note_on_c, 1, 59, 0
1, 39048, Note_on_c, 0, 74, 0
1, 39050, Note_on_c, 9, 54, 0
1, 39056, Note_on_c, 4, 47, 0
1, 39058, Note_on_c, 2, 59, 0
1, 39058, Note_on_c, 2, 54, 0
1, 39058, Note_on_c, 2, 64, 0
1, 39060, Note_on_c, 2, 61, 100
1, 39060, Note_on_c, 2, 57, 100
1, 39060, Note_on_c, 4, 35, 100
1, 39060, Note_on_c, 1, 57, 85
1, 39060, Note_on_c, 0, 73, 100
1, 39060, Note_on_c, 9, 54, 55
1, 39060, Note_on_c, 2, 52, 100
1, 39060, Note_on_c, 1, 52, 85
1, 39060, Note_on_c, 1, 61, 85
1, 39060, Note_on_c, 9, 35, 100
1, 39080, Note_on_c, 9, 54, 0
1, 39080, Note_on_c, 9, 53, 0
1, 39090, Note_on_c, 9, 54, 55
1, 39100, Note_on_c, 9, 35, 0
1, 39110, Note_on_c, 9, 54, 0
1, 39112, Note_on_c, 1, 61, 0
1, 39112, Note_on_c, 1, 57, 0
1, 39112, Note_on_c, 0, 73, 0
1, 39112, Note_on_c, 4, 35, 0
1, 39112, Note_on_c, 1, 52, 0
1, 39118, Note_on_c, 2, 52, 0
1, 39118, Note_on_c, 2, 61, 0
1, 39118, Note_on_c, 2, 57, 0
1, 39120, Note_on_c, 0, 73, 100
1, 39120, Note_on_c, 4, 47, 100
1, 39120, Note_on_c, 9, 54, 55
1, 39120, Note_on_c, 1, 57, 85
1, 39120, Note_on_c, 2, 57, 100
1, 39120, Note_on_c, 1, 61, 85
1, 39120, Note_on_c, 9, 53, 100
1, 39120, Note_on_c, 1, 52, 85
1, 39120, Note_on_c, 2, 52, 100
1, 39120, Note_on_c, 2, 61, 100
1, 39140, Note_on_c, 9, 54, 0
1, 39146, Note_on_c, 0, 73, 0
1, 39150, Note_on_c, 0, 71, 100
1, 39150, Note_on_c, 9, 54, 55
1, 39170, Note_on_c, 9, 54, 0
1, 39176, Note_on_c, 0, 71, 0
1, 39180, Note_on_c, 0, 71, 100
1, 39180, Note_on_c, 9, 35, 100
1, 39180, Note_on_c, 9, 54, 55
1, 39198, Note_on_c, 1, 57, 0
1, 39198, Note_on_c, 4, 47, 0
1, 39198, Note_on_c, 1, 52, 0
1, 39198, Note_on_c, 1, 61, 0
1, 39200, Note_on_c, 9, 54, 0
1, 39200, Note_on_c, 9, 53, 0
1, 39208, Note_on_c, 2, 52, 0
1, 39208, Note_on_c, 2, 61, 0
1, 39208, Note_on_c, 2, 57, 0
1, 39210, Note_on_c, 2, 59, 100
1, 39210, Note_on_c, 4, 47, 100
1, 39210, Note_on_c, 1, 59, 85
1, 39210, Note_on_c, 2, 54, 100
1, 39210, Note_on_c, 9, 54, 55
1, 39210, Note_on_c, 1, 62, 85
1, 39210, Note_on_c, 1, 54, 85
1, 39210, Note_on_c, 2, 62, 100
1, 39220, Note_on_c, 9, 35, 0
1, 39230, Note_on_c, 9, 54, 0
1, 39232, Note_on_c, 0, 71, 0
1, 39236, Note_on_c, 4, 47, 0
1, 39240, Note_on_c, 4, 35, 100
1, 39240, Note_on_c, 0, 71, 100
1, 39240, Note_on_c, 9, 38, 100
1, 39240, Note_on_c, 9, 54, 55
1, 39240, Note_on_c, 9, 53, 100
1, 39260, Note_on_c, 9, 54, 0
1, 39270, Note_on_c, 9, 54, 55
1, 39280, Note_on_c, 9, 38, 0
1, 39290, Note_on_c, 9, 54, 0
1, 39292, Note_on_c, 4, 35, 0
1, 39300, Note_on_c, 9, 54, 55
1, 39300, Note_on_c, 4, 47, 100
1, 39314, Note_on_c, 1, 54, 0
1, 39314, Note_on_c, 1, 59, 0
1, 39314, Note_on_c, 1, 62, 0
1, 39320, Note_on_c, 9, 54, 0
1, 39320, Note_on_c, 9, 53, 0
1, 39330, Note_on_c, 9, 54, 55
1, 39344, Note_on_c, 0, 71, 0
1, 39350, Note_on_c, 9, 54, 0
1, 39358, Note_on_c, 2, 62, 0
1, 39358, Note_on_c, 2, 54, 0
1, 39358, Note_on_c, 2, 59, 0
1, 39360, Note_on_c, 9, 54, 55
1, 39360, Note_on_c, 9, 53, 100
1, 39360, Note_on_c, 2, 52, 100
1, 39360, Note_on_c, 9, 35, 100
1, 39360, Note_on_c, 2, 57, 100
1, 39360, Note_on_c, 2, 61, 100
1, 39360, Note_on_c, 1, 52, 85
1, 39360, Note_on_c, 1, 61, 85
1, 39360, Note_on_c, 1, 57, 85
1, 39360, Note_on_c, 0, 69, 100
1, 39378, Note_on_c, 4, 47, 0
1, 39380, Note_on_c, 9, 54, 0
1, 39390, Note_on_c, 9, 54, 55
1, 39390, Note_on_c, 4, 47, 100
1, 39400, Note_on_c, 9, 35, 0
1, 39410, Note_on_c, 9, 54, 0
1, 39416, Note_on_c, 4, 47, 0
1, 39420, Note_on_c, 4, 35, 100
1, 39420, Note_on_c, 9, 54, 55
1, 39438, Note_on_c, 1, 52, 0
1, 39438, Note_on_c, 0, 69, 0
1, 39438, Note_on_c, 1, 61, 0
1, 39438, Note_on_c, 1, 57, 0
1, 39440, Note_on_c, 9, 54, 0
1, 39440, Note_on_c, 9, 53, 0
1, 39448, Note_on_c, 2, 61, 0
1, 39448, Note_on_c, 2, 52, 0
1, 39448, Note_on_c, 2, 57, 0
1, 39450, Note_on_c, 1, 54, 85
1, 39450, Note_on_c, 1, 62, 85
1, 39450, Note_on_c, 9, 54, 55
1, 39450, Note_on_c, 2, 62, 100
1, 39450, Note_on_c, 1, 59, 85
1, 39450, Note_on_c, 2, 54, 100
1, 39450, Note_on_c, 2, 59, 100
1, 39450, Note_on_c, 0, 71, 100
1, 39470, Note_on_c, 9, 54, 0
1, 39472, Note_on_c, 4, 35, 0
1, 39480, Note_on_c, 9, 53, 100
1, 39480, Note_on_c, 4, 47, 100
1, 39480, Note_on_c, 9, 38, 100
1, 39480, Note_on_c, 9, 54, 55
1, 39500, Note_on_c, 9, 54, 0
1, 39502, Note_on_c, 0, 71, 0
1, 39510, Note_on_c, 0, 71, 100
1, 39510, Note_on_c, 9, 54, 55
1, 39520, Note_on_c, 9, 38, 0
1, 39530, Note_on_c, 9, 54, 0
1, 39536, Note_on_c, 0, 71, 0
1, 39540, Note_on_c, 9, 54, 55
1, 39540, Note_on_c, 9, 35, 100
1, 39540, Note_on_c, 0, 71, 100
1, 39554, Note_on_c, 1, 54, 0
1, 39554, Note_on_c, 1, 59, 0
1, 39554, Note_on_c, 1, 62, 0
1, 39558, Note_on_c, 4, 47, 0
1, 39560, Note_on_c, 9, 53, 0
1, 39560, Note_on_c, 9, 54, 0
1, 39570, Note_on_c, 9, 54, 55
1, 39570, Note_on_c, 4, 45, 100
1, 39580, Note_on_c, 9, 35, 0
1, 39590, Note_on_c, 9, 54, 0
1, 39592, Note_on_c, 0, 71, 0
1, 39596, Note_on_c, 4, 45, 0
1, 39598, Note_on_c, 2, 59, 0
1, 39598, Note_on_c, 2, 54, 0
1, 39598, Note_on_c, 2, 62, 0
1, 39600, Note_on_c, 9, 54, 55
1, 39600, Note_on_c, 0, 69, 100
1, 39600, Note_on_c, 1, 54, 85
1, 39600, Note_on_c, 1, 62, 85
1, 39600, Note_on_c, 9, 53, 100
1, 39600, Note_on_c, 2, 62, 100
1, 39600, Note_on_c, 2, 57, 100
1, 39600, Note_on_c, 1, 57, 85
1, 39600, Note_on_c, 4, 38, 100
1, 39600, Note_on_c, 2, 54, 100
1, 39620, Note_on_c, 9, 54, 0
1, 39630, Note_on_c, 9, 54, 55
1, 39650, Note_on_c, 9, 54, 0
1, 39652, Note_on_c, 0, 69, 0
1, 39660, Note_on_c, 9, 54, 55
1, 39660, Note_on_c, 0, 69, 100
1, 39660, Note_on_c, 9, 35, 100
1, 39678, Note_on_c, 4, 38, 0
1, 39680, Note_on_c, 9, 54, 0
1, 39680, Note_on_c, 9, 53, 0
1, 39690, Note_on_c, 4, 47, 100
1, 39690, Note_on_c, 9, 54, 55
1, 39700, Note_on_c, 9, 35, 0
1, 39704, Note_on_c, 1, 62, 0
1, 39704, Note_on_c, 1, 57, 0
1, 39704, Note_on_c, 1, 54, 0
1, 39710, Note_on_c, 9, 54, 0
1, 39712, Note_on_c, 0, 69, 0
1, 39716, Note_on_c, 4, 47, 0
1, 39718, Note_on_c, 2, 57, 0
1, 39718, Note_on_c, 2, 54, 0
1, 39718, Note_on_c, 2, 62, 0
1, 39720, Note_on_c, 2, 64, 100
1, 39720, Note_on_c, 1, 59, 85
1, 39720, Note_on_c, 4, 40, 100
1, 39720, Note_on_c, 1, 56, 85
1, 39720, Note_on_c, 9, 38, 100
1, 39720, Note_on_c, 2, 59, 100
1, 39720, Note_on_c, 1, 64, 85
1, 39720, Note_on_c, 2, 56, 100
1, 39720, Note_on_c, 9, 53, 100
1, 39720, Note_on_c, 0, 71, 100
1, 39720, Note_on_c, 9, 54, 55
1, 39740, Note_on_c, 9, 54, 0
1, 39750, Note_on_c, 9, 54, 55
1, 39760, Note_on_c, 9, 38, 0
1, 39770, Note_on_c, 9, 54, 0
1, 39780, Note_on_c, 9, 54, 55
1, 39798, Note_on_c, 4, 40, 0
1, 39800, Note_on_c, 9, 54, 0
1, 39800, Note_on_c, 9, 53, 0
1, 39810, Note_on_c, 4, 47, 100
1, 39810, Note_on_c, 9, 54, 55
1, 39824, Note_on_c, 1, 56, 0
1, 39824, Note_on_c, 0, 71, 0
1, 39824, Note_on_c, 1, 64, 0
1, 39824, Note_on_c, 1, 59, 0
1, 39830, Note_on_c, 9, 54, 0
1, 39836, Note_on_c, 4, 47, 0
1, 39838, Note_on_c, 2, 59, 0
1, 39838, Note_on_c, 2, 56, 0
1, 39838, Note_on_c, 2, 64, 0
1, 39840, Note_on_c, 9, 54, 55
1, 39840, Note_on_c, 4, 35, 100
1, 39840, Note_on_c, 9, 53, 100
1, 39840, Note_on_c, 9, 35, 100
1, 39860, Note_on_c, 9, 54, 0
1, 39870, Note_on_c, 9, 54, 55
1, 39880, Note_on_c, 9, 35, 0
1, 39890, Note_on_c, 9, 54, 0
1, 39892, Note_on_c, 4, 35, 0
1, 39900, Note_on_c, 4, 47, 100
1, 39900, Note_on_c, 9, 54, 55
1, 39900, Note_on_c, 2, 59, 100
1, 39900, Note_on_c, 0, 74, 100
1, 39900, Note_on_c, 1, 62, 85
1, 39900, Note_on_c, 1, 59, 85
1, 39900, Note_on_c, 2, 54, 100
1, 39900, Note_on_c, 1, 54, 85
1, 39900, Note_on_c, 2, 64, 100
1, 39920, Note_on_c, 9, 54, 0
1, 39920, Note_on_c, 9, 53, 0
1, 39930, Note_on_c, 9, 54, 55
1, 39950, Note_on_c, 9, 54, 0
1, 39952, Note_on_c, 0, 74, 0
1, 39960, Note_on_c, 9, 53, 100
1, 39960, Note_on_c, 0, 74, 100
1, 39960, Note_on_c, 9, 54, 55
1, 39960, Note_on_c, 9, 38, 100
1, 39978, Note_on_c, 4, 47, 0
1, 39980, Note_on_c, 9, 54, 0
1, 39990, Note_on_c, 4, 47, 100
1, 39990, Note_on_c, 9, 54, 55
1, 40000, Note_on_c, 9, 38, 0
1, 40010, Note_on_c, 9, 54, 0
1, 40016, Note_on_c, 4, 47, 0
1, 40020, Note_on_c, 9, 35, 100
1, 40020, Note_on_c, 4, 35, 100
1, 40020, Note_on_c, 9, 54, 55
1, 40040, Note_on_c, 9, 54, 0
1, 40040, Note_on_c, 9, 53, 0
1, 40050, Note_on_c, 9, 54, 55
1, 40056, Note_on_c, 1, 54, 0
1, 40056, Note_on_c, 1, 62, 0
1, 40056, Note_on_c, 1, 59, 0
1, 40060, Note_on_c, 9, 35, 0
1, 40064, Note_on_c, 0, 74, 0
1, 40070, Note_on_c, 9, 54, 0
1, 40072, Note_on_c, 4, 35, 0
1, 40080, Note_on_c, 2, 59, 0
1, 40080, Note_on_c, 2, 54, 0
1, 40080, Note_on_c, 2, 64, 0
1, 40080, Note_on_c, 0, 73, 100
1, 40080, Note_on_c, 9, 53, 100
1, 40080, Note_on_c, 9, 54, 55
1, 40080, Note_on_c, 1, 61, 85
1, 40080, Note_on_c, 2, 57, 100
1, 40080, Note_on_c, 1, 52, 85
1, 40080, Note_on_c, 1, 57, 85
1, 40080, Note_on_c, 2, 61, 100
1, 40080, Note_on_c, 2, 52, 100
1, 40080, Note_on_c, 4, 47, 100
1, 40100, Note_on_c, 9, 54, 0
1, 40110, Note_on_c, 9, 54, 55
1, 40130, Note_on_c, 9, 54, 0
1, 40132, Note_on_c, 0, 73, 0
1, 40140, Note_on_c, 0, 73, 100
1, 40140, Note_on_c, 9, 35, 100
1, 40140, Note_on_c, 9, 54, 55
1, 40158, Note_on_c, 1, 61, 0
1, 40158, Note_on_c, 4, 47, 0
1, 40158, Note_on_c, 1, 52, 0
1, 40158, Note_on_c, 1, 57, 0
1, 40160, Note_on_c, 9, 53, 0
1, 40160, Note_on_c, 9, 54, 0
1, 40166, Note_on_c, 0, 73, 0
1, 40168, Note_on_c, 2, 61, 0
1, 40168, Note_on_c, 2, 57, 0
1, 40168, Note_on_c, 2, 52, 0
1, 40170, Note_on_c, 1, 62, 85
1, 40170, Note_on_c, 1, 59, 85
1, 40170, Note_on_c, 4, 47, 100
1, 40170, Note_on_c, 2, 54, 100
1, 40170, Note_on_c, 2, 62, 100
1, 40170, Note_on_c, 2, 59, 100
1, 40170, Note_on_c, 9, 54, 55
1, 40170, Note_on_c, 0, 71, 100
1, 40170, Note_on_c, 1, 54, 85
1, 40180, Note_on_c, 9, 35, 0
1, 40190, Note_on_c, 9, 54, 0
1, 40196, Note_on_c, 4, 47, 0
1, 40200, Note_on_c, 9, 54, 55
1, 40200, Note_on_c, 9, 38, 100
1, 40200, Note_on_c, 9, 53, 100
1, 40200, Note_on_c, 4, 35, 100
1, 40220, Note_on_c, 9, 54, 0
1, 40230, Note_on_c, 9, 54, 55
1, 40240, Note_on_c, 9, 38, 0
1, 40250, Note_on_c, 9, 54, 0
1, 40252, Note_on_c, 4, 35, 0
1, 40260, Note_on_c, 9, 54, 55
1, 40260, Note_on_c, 4, 47, 100
1, 40260, Note_on_c, 9, 43, 100
1, 40274, Note_on_c, 0, 71, 0
1, 40274, Note_on_c, 1, 62, 0
1, 40274, Note_on_c, 1, 54, 0
1, 40274, Note_on_c, 1, 59, 0
1, 40280, Note_on_c, 9, 54, 0
1, 40280, Note_on_c, 9, 53, 0
1, 40280, Note_on_c, 9, 43, 0
1, 40290, Note_on_c, 9, 54, 55
1, 40290, Note_on_c, 9, 43, 100
1, 40290, Note_on_c, 0, 71, 100
1, 40310, Note_on_c, 9, 43, 0
1, 40310, Note_on_c, 9, 54, 0
1, 40316, Note_on_c, 0, 71, 0
1, 40318, Note_on_c, 2, 54, 0
1, 40318, Note_on_c, 2, 59, 0
1, 40318, Note_on_c, 2, 62, 0
1, 40320, Note_on_c, 0, 78, 100
1, 40320, Note_on_c, 9, 49, 100
1, 40320, Note_on_c, 9, 53, 100
1, 40320, Note_on_c, 1, 62, 100
1, 40320, Note_on_c, 9, 54, 55
1, 40320, Note_on_c, 2, 57, 100
1, 40320, Note_on_c, 9, 35, 100
1, 40320, Note_on_c, 4, 38, 100
1, 40320, Note_on_c, 2, 62, 100
1, 40320, Note_on_c, 1, 66, 100
1, 40320, Note_on_c, 1, 57, 100
1, 40320, Note_on_c, 2, 66, 100
1, 40338, Note_on_c, 4, 47, 0
1, 40340, Note_on_c, 9, 54, 0
1, 40346, Note_on_c, 0, 78, 0
1, 40350, Note_on_c, 0, 76, 100
1, 40350, Note_on_c, 9, 54, 55
1, 40360, Note_on_c, 9, 35, 0
1, 40370, Note_on_c, 9, 54, 0
1, 40380, Note_on_c, 9, 54, 55
1, 40400, Note_on_c, 9, 54, 0
1, 40400, Note_on_c, 9, 53, 0
1, 40400, Note_on_c, 9, 49, 0
1, 40402, Note_on_c, 0, 76, 0
1, 40410, Note_on_c, 0, 76, 100
1, 40410, Note_on_c, 9, 54, 55
1, 40424, Note_on_c, 4, 38, 0
1, 40424, Note_on_c, 1, 62, 0
1, 40424, Note_on_c, 1, 66, 0
1, 40424, Note_on_c, 1, 57, 0
1, 40430, Note_on_c, 9, 54, 0
1, 40438, Note_on_c, 2, 66, 0
1, 40438, Note_on_c, 2, 62, 0
1, 40438, Note_on_c, 2, 57, 0
1, 40440, Note_on_c, 9, 49, 100
1, 40440, Note_on_c, 2, 61, 100
1, 40440, Note_on_c, 9, 53, 100
1, 40440, Note_on_c, 2, 66, 100
1, 40440, Note_on_c, 9, 38, 100
1, 40440, Note_on_c, 9, 54, 55
1, 40440, Note_on_c, 1, 61, 100
1, 40440, Note_on_c, 2, 69, 100
1, 40440, Note_on_c, 1, 69, 100
1, 40440, Note_on_c, 4, 42, 100
1, 40440, Note_on_c, 1, 66, 100
1, 40460, Note_on_c, 9, 54, 0
1, 40470, Note_on_c, 9, 54, 55
1, 40480, Note_on_c, 9, 38, 0
1, 40488, Note_on_c, 0, 76, 0
1, 40490, Note_on_c, 9, 54, 0
1, 40500, Note_on_c, 9, 54, 55
1, 40500, Note_on_c, 9, 35, 100
1, 40500, Note_on_c, 0, 76, 100
1, 40520, Note_on_c, 9, 54, 0
1, 40520, Note_on_c, 9, 53, 0
1, 40520, Note_on_c, 9, 49, 0
1, 40530, Note_on_c, 9, 54, 55
1, 40540, Note_on_c, 9, 35, 0
1, 40544, Note_on_c, 1, 61, 0
1, 40544, Note_on_c, 4, 42, 0
1, 40544, Note_on_c, 1, 69, 0
1, 40544, Note_on_c, 1, 66, 0
1, 40550, Note_on_c, 9, 54, 0
1, 40558, Note_on_c, 2, 69, 0
1, 40558, Note_on_c, 2, 66, 0
1, 40558, Note_on_c, 2, 61, 0
1, 40560, Note_on_c, 2, 64, 100
1, 40560, Note_on_c, 2, 68, 100
1, 40560, Note_on_c, 1, 64, 100
1, 40560, Note_on_c, 2, 59, 100
1, 40560, Note_on_c, 4, 40, 100
1, 40560, Note_on_c, 9, 53, 100
1, 40560, Note_on_c, 9, 49, 100
1, 40560, Note_on_c, 1, 59, 100
1, 40560, Note_on_c, 1, 68, 100
1, 40560, Note_on_c, 9, 54, 55
1, 40580, Note_on_c, 9, 54, 0
1, 40590, Note_on_c, 9, 54, 55
1, 40610, Note_on_c, 9, 54, 0
1, 40620, Note_on_c, 9, 54, 55
1, 40620, Note_on_c, 9, 35, 100
1, 40640, Note_on_c, 9, 54, 0
1, 40640, Note_on_c, 9, 49, 0
1, 40640, Note_on_c, 9, 53, 0
1, 40650, Note_on_c, 9, 54, 55
1, 40660, Note_on_c, 9, 35, 0
1, 40670, Note_on_c, 9, 54, 0
1, 40680, Note_on_c, 9, 54, 55
1, 40680, Note_on_c, 9, 53, 100
1, 40680, Note_on_c, 9, 38, 100
1, 40700, Note_on_c, 9, 54, 0
1, 40708, Note_on_c, 0, 76, 0
1, 40710, Note_on_c, 9, 54, 55
1, 40716, Note_on_c, 4, 40, 0
1, 40720, Note_on_c, 9, 38, 0
1, 40730, Note_on_c, 9, 54, 0
1, 40740, Note_on_c, 4, 40, 100
1, 40740, Note_on_c, 9, 54, 55
1, 40740, Note_on_c, 9, 45, 100
1, 40740, Note_on_c, 3, 64, 100
1, 40760, Note_on_c, 9, 54, 0
1, 40760, Note_on_c, 9, 53, 0
1, 40766, Note_on_c, 3, 64, 0
1, 40768, Note_on_c, 1, 68, 0
1, 40768, Note_on_c, 1, 64, 0
1, 40768, Note_on_c, 1, 59, 0
1, 40770, Note_on_c, 3, 66, 100
1, 40770, Note_on_c, 9, 54, 55
1, 40780, Note_on_c, 9, 45, 0
1, 40790, Note_on_c, 9, 54, 0
1, 40792, Note_on_c, 4, 40, 0
1, 40796, Note_on_c, 3, 66, 0
1, 40798, Note_on_c, 2, 64, 0
1, 40798, Note_on_c, 2, 59, 0
1, 40798, Note_on_c, 2, 68, 0
1, 40800, Note_on_c, 2, 68, 100
1, 40800, Note_on_c, 2, 64, 100
1, 40800, Note_on_c, 9, 53, 100
1, 40800, Note_on_c, 2, 59, 100
1, 40800, Note_on_c, 4, 35, 100
1, 40800, Note_on_c, 9, 49, 100
1, 40800, Note_on_c, 9, 54, 55
1, 40800, Note_on_c, 9, 35, 100
1, 40800, Note_on_c, 3, 68, 90
1, 40840, Note_on_c, 9, 35, 0
1, 40840, Note_on_c, 9, 54, 0
1, 40860, Note_on_c, 9, 54, 55
1, 40870, Note_on_c, 3, 68, 0
1, 40878, Note_on_c, 4, 35, 0
1, 40880, Note_on_c, 9, 53, 0
1, 40888, Note_on_c, 2, 68, 0
1, 40888, Note_on_c, 2, 59, 0
1, 40888, Note_on_c, 2, 64, 0
1, 40890, Note_on_c, 4, 42, 100
1, 40890, Note_on_c, 2, 69, 100
1, 40890, Note_on_c, 3, 69, 90
1, 40890, Note_on_c, 9, 38, 100
1, 40890, Note_on_c, 2, 66, 100
1, 40890, Note_on_c, 2, 62, 100
1, 40900, Note_on_c, 9, 54, 0
1, 40920, Note_on_c, 9, 54, 55
1, 40920, Note_on_c, 9, 53, 100
1, 40930, Note_on_c, 9, 38, 0
1, 40960, Note_on_c, 9, 54, 0
1, 40960, Note_on_c, 3, 69, 0
1, 40960, Note_on_c, 9, 49, 0
1, 40968, Note_on_c, 4, 42, 0
1, 40978, Note_on_c, 2, 66, 0
1, 40978, Note_on_c, 2, 62, 0
1, 40978, Note_on_c, 2, 69, 0
1, 40980, Note_on_c, 4, 45, 100
1, 40980, Note_on_c, 9, 54, 55
1, 40980, Note_on_c, 9, 35, 100
1, 40980, Note_on_c, 3, 71, 90
1, 40980, Note_on_c, 2, 64, 100
1, 40980, Note_on_c, 2, 61, 100
1, 40980, Note_on_c, 2, 68, 100
1, 41000, Note_on_c, 9, 53, 0
1, 41020, Note_on_c, 9, 35, 0
1, 41020, Note_on_c, 9, 54, 0
1, 41032, Note_on_c, 4, 45, 0
1, 41033, Note_on_c, 3, 71, 0
1, 41038, Note_on_c, 2, 68, 0
1, 41038, Note_on_c, 2, 61, 0
1, 41038, Note_on_c, 2, 64, 0
1, 41040, Note_on_c, 9, 54, 55
1, 41040, Note_on_c, 4, 47, 100
1, 41040, Note_on_c, 2, 69, 100
1, 41040, Note_on_c, 2, 66, 100
1, 41040, Note_on_c, 3, 69, 90
1, 41040, Note_on_c, 9, 53, 100
1, 41040, Note_on_c, 2, 62, 100
1, 41080, Note_on_c, 9, 54, 0
1, 41100, Note_on_c, 9, 35, 100
1, 41100, Note_on_c, 9, 54, 55
1, 41120, Note_on_c, 9, 53, 0
1, 41140, Note_on_c, 9, 54, 0
1, 41140, Note_on_c, 9, 35, 0
1, 41144, Note_on_c, 4, 47, 0
1, 41145, Note_on_c, 3, 69, 0
1, 41158, Note_on_c, 2, 66, 0
1, 41158, Note_on_c, 2, 62, 0
1, 41158, Note_on_c, 2, 69, 0
1, 41160, Note_on_c, 4, 45, 100
1, 41160, Note_on_c, 3, 68, 90
1, 41160, Note_on_c, 9, 38, 100
1, 41160, Note_on_c, 9, 53, 100
1, 41160, Note_on_c, 2, 64, 100
1, 41160, Note_on_c, 2, 59, 100
1, 41160, Note_on_c, 2, 68, 100
1, 41160, Note_on_c, 9, 54, 55
1, 41200, Note_on_c, 9, 54, 0
1, 41200, Note_on_c, 9, 38, 0
1, 41220, Note_on_c, 9, 54, 55
1, 41240, Note_on_c, 9, 53, 0
1, 41260, Note_on_c, 9, 54, 0
1, 41264, Note_on_c, 4, 45, 0
1, 41265, Note_on_c, 3, 68, 0
1, 41278, Note_on_c, 2, 68, 0
1, 41278, Note_on_c, 2, 59, 0
1, 41278, Note_on_c, 2, 64, 0
1, 41280, Note_on_c, 9, 35, 100
1, 41280, Note_on_c, 9, 54, 55
1, 41280, Note_on_c, 2, 64, 100
1, 41280, Note_on_c, 2, 61, 100
1, 41280, Note_on_c, 9, 53, 100
1, 41280, Note_on_c, 4, 37, 100
1, 41280, Note_on_c, 3, 64, 90
1, 41280, Note_on_c, 2, 57, 100
1, 41320, Note_on_c, 9, 54, 0
1, 41320, Note_on_c, 9, 35, 0
1, 41340, Note_on_c, 9, 54, 55
1, 41350, Note_on_c, 3, 64, 0
1, 41358, Note_on_c, 4, 37, 0
1, 41360, Note_on_c, 9, 53, 0
1, 41368, Note_on_c, 2, 61, 0
1, 41368, Note_on_c, 2, 57, 0
1, 41368, Note_on_c, 2, 64, 0
1, 41370, Note_on_c, 4, 35, 100
1, 41370, Note_on_c, 2, 59, 100
1, 41370, Note_on_c, 3, 62, 90
1, 41370, Note_on_c, 2, 62, 100
1, 41370, Note_on_c, 2, 54, 100
1, 41380, Note_on_c, 9, 54, 0
1, 41400, Note_on_c, 9, 38, 100
1, 41400, Note_on_c, 9, 54, 55
1, 41400, Note_on_c, 9, 53, 100
1, 41440, Note_on_c, 9, 54, 0
1, 41440, Note_on_c, 9, 38, 0
1, 41440, Note_on_c, 3, 62, 0
1, 41448, Note_on_c, 4, 35, 0
1, 41458, Note_on_c, 2, 62, 0
1, 41458, Note_on_c, 2, 59, 0
1, 41458, Note_on_c, 2, 54, 0
1, 41460, Note_on_c, 2, 52, 100
1, 41460, Note_on_c, 4, 42, 100
1, 41460, Note_on_c, 9, 54, 55
1, 41460, Note_on_c, 2, 57, 100
1, 41460, Note_on_c, 2, 61, 100
1, 41460, Note_on_c, 3, 61, 90
1, 41460, Note_on_c, 9, 35, 100
1, 41480, Note_on_c, 9, 53, 0
1, 41500, Note_on_c, 9, 35, 0
1, 41500, Note_on_c, 9, 54, 0
1, 41512, Note_on_c, 4, 42, 0
1, 41513, Note_on_c, 3, 61, 0
1, 41518, Note_on_c, 2, 52, 0
1, 41518, Note_on_c, 2, 61, 0
1, 41518, Note_on_c, 2, 57, 0
1, 41520, Note_on_c, 2, 54, 100
1, 41520, Note_on_c, 9, 54, 55
1, 41520, Note_on_c, 9, 53, 100
1, 41520, Note_on_c, 2, 62, 100
1, 41520, Note_on_c, 4, 35, 100
1, 41520, Note_on_c, 2, 59, 100
1, 41520, Note_on_c, 3, 62, 90
1, 41560, Note_on_c, 9, 54, 0
1, 41580, Note_on_c, 0, 69, 100
1, 41580, Note_on_c, 9, 54, 55
1, 41580, Note_on_c, 9, 35, 100
1, 41600, Note_on_c, 9, 53, 0
1, 41606, Note_on_c, 0, 69, 0
1, 41610, Note_on_c, 0, 69, 100
1, 41620, Note_on_c, 9, 35, 0
1, 41620, Note_on_c, 9, 54, 0
1, 41636, Note_on_c, 0, 69, 0
1, 41640, Note_on_c, 9, 53, 100
1, 41640, Note_on_c, 0, 71, 100
1, 41640, Note_on_c, 9, 54, 55
1, 41640, Note_on_c, 9, 38, 100
1, 41666, Note_on_c, 0, 71, 0
1, 41670, Note_on_c, 0, 71, 100
1, 41676, Note_on_c, 4, 35, 0
1, 41678, Note_on_c, 3, 62, 0
1, 41680, Note_on_c, 9, 38, 0
1, 41680, Note_on_c, 9, 54, 0
1, 41696, Note_on_c, 0, 71, 0
1, 41698, Note_on_c, 2, 62, 0
1, 41698, Note_on_c, 2, 54, 0
1, 41698, Note_on_c, 2, 59, 0
1, 41700, Note_on_c, 0, 71, 100
1, 41700, Note_on_c, 4, 40, 100
1, 41700, Note_on_c, 3, 64, 90
1, 41700, Note_on_c, 9, 54, 55
1, 41720, Note_on_c, 9, 53, 0
1, 41726, Note_on_c, 3, 64, 0
1, 41726, Note_on_c, 0, 71, 0
1, 41726, Note_on_c, 4, 40, 0
1, 41730, Note_on_c, 4, 35, 100
1, 41730, Note_on_c, 3, 66, 90
1, 41730, Note_on_c, 0, 71, 100
1, 41740, Note_on_c, 9, 54, 0
1, 41756, Note_on_c, 4, 35, 0
1, 41756, Note_on_c, 3, 66, 0
1, 41756, Note_on_c, 0, 71, 0
1, 41760, Note_on_c, 2, 64, 100
1, 41760, Note_on_c, 9, 35, 100
1, 41760, Note_on_c, 2, 59, 100
1, 41760, Note_on_c, 9, 53, 100
1, 41760, Note_on_c, 4, 35, 100
1, 41760, Note_on_c, 0, 74, 100
1, 41760, Note_on_c, 3, 68, 90
1, 41760, Note_on_c, 2, 68, 100
1, 41760, Note_on_c, 9, 49, 100
1, 41760, Note_on_c, 9, 54, 55
1, 41800, Note_on_c, 9, 54, 0
1, 41800, Note_on_c, 9, 35, 0
1, 41820, Note_on_c, 9, 54, 55
1, 41830, Note_on_c, 3, 68, 0
1, 41838, Note_on_c, 4, 35, 0
1, 41838, Note_on_c, 0, 74, 0
1, 41840, Note_on_c, 9, 53, 0
1, 41848, Note_on_c, 2, 59, 0
1, 41848, Note_on_c, 2, 68, 0
1, 41848, Note_on_c, 2, 64, 0
1, 41850, Note_on_c, 2, 62, 100
1, 41850, Note_on_c, 4, 42, 100
1, 41850, Note_on_c, 2, 66, 100
1, 41850, Note_on_c, 9, 38, 100
1, 41850, Note_on_c, 2, 69, 100
1, 41850, Note_on_c, 0, 71, 100
1, 41850, Note_on_c, 3, 69, 90
1, 41860, Note_on_c, 9, 54, 0
1, 41880, Note_on_c, 9, 54, 55
1, 41880, Note_on_c, 9, 53, 100
1, 41890, Note_on_c, 9, 38, 0
1, 41920, Note_on_c, 9, 54, 0
1, 41920, Note_on_c, 3, 69, 0
1, 41920, Note_on_c, 9, 49, 0
1, 41928, Note_on_c, 4, 42, 0
1, 41938, Note_on_c, 2, 62, 0
1, 41938, Note_on_c, 2, 66, 0
1, 41938, Note_on_c, 2, 69, 0
1, 41940, Note_on_c, 9, 35, 100
1, 41940, Note_on_c, 3, 71, 90
1, 41940, Note_on_c, 2, 64, 100
1, 41940, Note_on_c, 9, 54, 55
1, 41940, Note_on_c, 4, 45, 100
1, 41940, Note_on_c, 2, 68, 100
1, 41940, Note_on_c, 2, 61, 100
1, 41960, Note_on_c, 9, 53, 0
1, 41980, Note_on_c, 9, 54, 0
1, 41980, Note_on_c, 9, 35, 0
1, 41992, Note_on_c, 4, 45, 0
1, 41993, Note_on_c, 3, 71, 0
1, 41998, Note_on_c, 2, 64, 0
1, 41998, Note_on_c, 2, 61, 0
1, 41998, Note_on_c, 2, 68, 0
1, 42000, Note_on_c, 2, 62, 100
1, 42000, Note_on_c, 4, 47, 100
1, 42000, Note_on_c, 3, 69, 90
1, 42000, Note_on_c, 9, 53, 100
1, 42000, Note_on_c, 2, 69, 100
1, 42000, Note_on_c, 2, 66, 100
1, 42000, Note_on_c, 9, 54, 55
1, 42006, Note_on_c, 0, 71, 0
1, 42040, Note_on_c, 9, 54, 0
1, 42060, Note_on_c, 9, 54, 55
1, 42060, Note_on_c, 9, 35, 100
1, 42080, Note_on_c, 9, 53, 0
1, 42100, Note_on_c, 9, 35, 0
1, 42100, Note_on_c, 9, 54, 0
1, 42104, Note_on_c, 4, 47, 0
1, 42105, Note_on_c, 3, 69, 0
1, 42118, Note_on_c, 2, 62, 0
1, 42118, Note_on_c, 2, 69, 0
1, 42118, Note_on_c, 2, 66, 0
1, 42120, Note_on_c, 9, 53, 100
1, 42120, Note_on_c, 3, 68, 90
1, 42120, Note_on_c, 2, 64, 100
1, 42120, Note_on_c, 9, 38, 100
1, 42120, Note_on_c, 2, 59, 100
1, 42120, Note_on_c, 9, 54, 55
1, 42120, Note_on_c, 2, 68, 100
1, 42120, Note_on_c, 4, 45, 100
1, 42160, Note_on_c, 9, 54, 0
1, 42160, Note_on_c, 9, 38, 0
1, 42180, Note_on_c, 9, 54, 55
1, 42180, Note_on_c, 0, 77, 100
1, 42200, Note_on_c, 9, 53, 0
1, 42220, Note_on_c, 9, 54, 0
1, 42224, Note_on_c, 4, 45, 0
1, 42225, Note_on_c, 3, 68, 0
1, 42232, Note_on_c, 0, 77, 0
1, 42238, Note_on_c, 2, 68, 0
1, 42238, Note_on_c, 2, 64, 0
1, 42238, Note_on_c, 2, 59, 0
1, 42240, Note_on_c, 9, 53, 100
1, 42240, Note_on_c, 2, 61, 100
1, 42240, Note_on_c, 2, 57, 100
1, 42240, Note_on_c, 0, 77, 100
1, 42240, Note_on_c, 9, 35, 100
1, 42240, Note_on_c, 2, 64, 100
1, 42240, Note_on_c, 4, 37, 100
1, 42240, Note_on_c, 3, 64, 90
1, 42240, Note_on_c, 9, 54, 55
1, 42280, Note_on_c, 9, 54, 0
1, 42280, Note_on_c, 9, 35, 0
1, 42292, Note_on_c, 0, 77, 0
1, 42300, Note_on_c, 9, 54, 55
1, 42300, Note_on_c, 0, 76, 100
1, 42310, Note_on_c, 3, 64, 0
1, 42318, Note_on_c, 4, 37, 0
1, 42320, Note_on_c, 9, 53, 0
1, 42326, Note_on_c, 0, 76, 0
1, 42328, Note_on_c, 2, 64, 0
1, 42328, Note_on_c, 2, 57, 0
1, 42328, Note_on_c, 2, 61, 0
1, 42330, Note_on_c, 2, 54, 100
1, 42330, Note_on_c, 3, 62, 90
1, 42330, Note_on_c, 4, 42, 100
1, 42330, Note_on_c, 2, 62, 100
1, 42330, Note_on_c, 2, 59, 100
1, 42330, Note_on_c, 0, 74, 100
1, 42340, Note_on_c, 9, 54, 0
1, 42356, Note_on_c, 0, 74, 0
1, 42360, Note_on_c, 9, 54, 55
1, 42360, Note_on_c, 0, 76, 100
1, 42360, Note_on_c, 9, 38, 100
1, 42360, Note_on_c, 9, 53, 100
1, 42386, Note_on_c, 0, 76, 0
1, 42390, Note_on_c, 0, 74, 100
1, 42400, Note_on_c, 9, 38, 0
1, 42400, Note_on_c, 9, 54, 0
1, 42400, Note_on_c, 3, 62, 0
1, 42408, Note_on_c, 4, 42, 0
1, 42416, Note_on_c, 0, 74, 0
1, 42418, Note_on_c, 2, 62, 0
1, 42418, Note_on_c, 2, 54, 0
1, 42418, Note_on_c, 2, 59, 0
1, 42420, Note_on_c, 9, 35, 100
1, 42420, Note_on_c, 2, 57, 100
1, 42420, Note_on_c, 9, 54, 55
1, 42420, Note_on_c, 2, 52, 100
1, 42420, Note_on_c, 2, 61, 100
1, 42420, Note_on_c, 3, 61, 90
1, 42420, Note_on_c, 0, 71, 100
1, 42420, Note_on_c, 4, 38, 100
1, 42440, Note_on_c, 9, 53, 0
1, 42460, Note_on_c, 9, 54, 0
1, 42460, Note_on_c, 9, 35, 0
1, 42472, Note_on_c, 0, 71, 0
1, 42472, Note_on_c, 4, 38, 0
1, 42473, Note_on_c, 3, 61, 0
1, 42478, Note_on_c, 2, 61, 0
1, 42478, Note_on_c, 2, 52, 0
1, 42478, Note_on_c, 2, 57, 0
1, 42480, Note_on_c, 0, 71, 100
1, 42480, Note_on_c, 3, 59, 90
1, 42480, Note_on_c, 2, 59, 100
1, 42480, Note_on_c, 9, 54, 55
1, 42480, Note_on_c, 2, 54, 100
1, 42480, Note_on_c, 4, 40, 100
1, 42480, Note_on_c, 9, 53, 100
1, 42520, Note_on_c, 9, 54, 0
1, 42540, Note_on_c, 9, 54, 55
1, 42540, Note_on_c, 9, 35, 100
1, 42560, Note_on_c, 9, 53, 0
1, 42580, Note_on_c, 9, 35, 0
1, 42580, Note_on_c, 9, 54, 0
1, 42600, Note_on_c, 9, 54, 55
1, 42600, Note_on_c, 9, 53, 100
1, 42600, Note_on_c, 9, 38, 100
1, 42636, Note_on_c, 4, 40, 0
1, 42638, Note_on_c, 3, 59, 0
1, 42640, Note_on_c, 9, 38, 0
1, 42640, Note_on_c, 9, 54, 0
1, 42658, Note_on_c, 2, 54, 0
1, 42658, Note_on_c, 2, 59, 0
1, 42660, Note_on_c, 9, 54, 55
1, 42660, Note_on_c, 4, 40, 100
1, 42660, Note_on_c, 3, 64, 90
1, 42680, Note_on_c, 9, 53, 0
1, 42686, Note_on_c, 3, 64, 0
1, 42688, Note_on_c, 0, 71, 0
1, 42690, Note_on_c, 3, 66, 90
1, 42700, Note_on_c, 9, 54, 0
1, 42712, Note_on_c, 4, 40, 0
1, 42716, Note_on_c, 3, 66, 0
1, 42720, Note_on_c, 9, 53, 100
1, 42720, Note_on_c, 9, 49, 100
1, 42720, Note_on_c, 9, 54, 55
1, 42720, Note_on_c, 2, 64, 100
1, 42720, Note_on_c, 2, 59, 100
1, 42720, Note_on_c, 9, 35, 100
1, 42720, Note_on_c, 4, 35, 100
1, 42720, Note_on_c, 2, 68, 100
1, 42720, Note_on_c, 3, 68, 90
1, 42760, Note_on_c, 9, 35, 0
1, 42760, Note_on_c, 9, 54, 0
1, 42780, Note_on_c, 9, 54, 55
1, 42790, Note_on_c, 3, 68, 0
1, 42798, Note_on_c, 4, 35, 0
1, 42800, Note_on_c, 9, 53, 0
1, 42808, Note_on_c, 2, 68, 0
1, 42808, Note_on_c, 2, 64, 0
1, 42808, Note_on_c, 2, 59, 0
1, 42810, Note_on_c, 3, 69, 90
1, 42810, Note_on_c, 9, 38, 100
1, 42810, Note_on_c, 2, 69, 100
1, 42810, Note_on_c, 2, 66, 100
1, 42810, Note_on_c, 2, 62, 100
1, 42810, Note_on_c, 4, 42, 100
1, 42820, Note_on_c, 9, 54, 0
1, 42840, Note_on_c, 9, 53, 100
1, 42840, Note_on_c, 9, 54, 55
1, 42850, Note_on_c, 9, 38, 0
1, 42880, Note_on_c, 9, 54, 0
1, 42880, Note_on_c, 9, 49, 0
1, 42880, Note_on_c, 3, 69, 0
1, 42888, Note_on_c, 4, 42, 0
1, 42898, Note_on_c, 2, 69, 0
1, 42898, Note_on_c, 2, 66, 0
1, 42898, Note_on_c, 2, 62, 0
1, 42900, Note_on_c, 3, 71, 90
1, 42900, Note_on_c, 2, 64, 100
1, 42900, Note_on_c, 2, 71, 100
1, 42900, Note_on_c, 9, 35, 100
1, 42900, Note_on_c, 2, 68, 100
1, 42900, Note_on_c, 4, 45, 100
1, 42900, Note_on_c, 9, 54, 55
1, 42920, Note_on_c, 9, 53, 0
1, 42940, Note_on_c, 9, 54, 0
1, 42940, Note_on_c, 9, 35, 0
1, 42952, Note_on_c, 4, 45, 0
1, 42953, Note_on_c, 3, 71, 0
1, 42958, Note_on_c, 2, 71, 0
1, 42958, Note_on_c, 2, 64, 0
1, 42958, Note_on_c, 2, 68, 0
1, 42960, Note_on_c, 3, 73, 90
1, 42960, Note_on_c, 2, 64, 100
1, 42960, Note_on_c, 2, 73, 100
1, 42960, Note_on_c, 9, 54, 55
1, 42960, Note_on_c, 2, 62, 100
1, 42960, Note_on_c, 2, 69, 100
1, 42960, Note_on_c, 9, 53, 100
1, 42960, Note_on_c, 4, 47, 100
1, 43000, Note_on_c, 9, 54, 0
1, 43020, Note_on_c, 9, 54, 55
1, 43020, Note_on_c, 9, 35, 100
1, 43040, Note_on_c, 9, 53, 0
1, 43060, Note_on_c, 9, 35, 0
1, 43060, Note_on_c, 9, 54, 0
1, 43064, Note_on_c, 4, 47, 0
1, 43065, Note_on_c, 3, 73, 0
1, 43078, Note_on_c, 2, 62, 0
1, 43078, Note_on_c, 2, 69, 0
1, 43078, Note_on_c, 2, 64, 0
1, 43078, Note_on_c, 2, 73, 0
1, 43080, Note_on_c, 2, 59, 100
1, 43080, Note_on_c, 3, 71, 90
1, 43080, Note_on_c, 4, 45, 100
1, 43080, Note_on_c, 2, 64, 100
1, 43080, Note_on_c, 2, 71, 100
1, 43080, Note_on_c, 9, 38, 100
1, 43080, Note_on_c, 9, 53, 100
1, 43080, Note_on_c, 2, 68, 100
1, 43080, Note_on_c, 9, 54, 55
1, 43110, Note_on_c, 0, 66, 100
1, 43120, Note_on_c, 9, 54, 0
1, 43120, Note_on_c, 9, 38, 0
1, 43136, Note_on_c, 0, 66, 0
1, 43140, Note_on_c, 0, 71, 100
1, 43140, Note_on_c, 9, 54, 55
1, 43160, Note_on_c, 9, 53, 0
1, 43166, Note_on_c, 0, 71, 0
1, 43170, Note_on_c, 0, 73, 100
1, 43180, Note_on_c, 9, 54, 0
1, 43184, Note_on_c, 4, 45, 0
1, 43185, Note_on_c, 3, 71, 0
1, 43196, Note_on_c, 0, 73, 0
1, 43198, Note_on_c, 2, 64, 0
1, 43198, Note_on_c, 2, 68, 0
1, 43198, Note_on_c, 2, 59, 0
1, 43198, Note_on_c, 2, 71, 0
1, 43200, Note_on_c, 2, 61, 100
1, 43200, Note_on_c, 3, 64, 90
1, 43200, Note_on_c, 2, 57, 100
1, 43200, Note_on_c, 0, 74, 100
1, 43200, Note_on_c, 4, 37, 100
1, 43200, Note_on_c, 9, 54, 55
1, 43200, Note_on_c, 9, 35, 100
1, 43200, Note_on_c, 2, 64, 100
1, 43200, Note_on_c, 9, 53, 100
1, 43240, Note_on_c, 9, 35, 0
1, 43240, Note_on_c, 9, 54, 0
1, 43252, Note_on_c, 0, 74, 0
1, 43260, Note_on_c, 9, 54, 55
1, 43260, Note_on_c, 0, 73, 100
1, 43270, Note_on_c, 3, 64, 0
1, 43278, Note_on_c, 4, 37, 0
1, 43280, Note_on_c, 9, 53, 0
1, 43286, Note_on_c, 0, 73, 0
1, 43288, Note_on_c, 2, 64, 0
1, 43288, Note_on_c, 2, 57, 0
1, 43288, Note_on_c, 2, 61, 0
1, 43290, Note_on_c, 3, 62, 90
1, 43290, Note_on_c, 2, 62, 100
1, 43290, Note_on_c, 2, 59, 100
1, 43290, Note_on_c, 4, 35, 100
1, 43290, Note_on_c, 2, 54, 100
1, 43290, Note_on_c, 0, 71, 100
1, 43300, Note_on_c, 9, 54, 0
1, 43320, Note_on_c, 9, 54, 55
1, 43320, Note_on_c, 9, 53, 100
1, 43320, Note_on_c, 9, 38, 100
1, 43342, Note_on_c, 0, 71, 0
1, 43350, Note_on_c, 0, 69, 100
1, 43360, Note_on_c, 9, 38, 0
1, 43360, Note_on_c, 3, 62, 0
1, 43360, Note_on_c, 9, 54, 0
1, 43368, Note_on_c, 4, 35, 0
1, 43376, Note_on_c, 0, 69, 0
1, 43378, Note_on_c, 2, 59, 0
1, 43378, Note_on_c, 2, 54, 0
1, 43378, Note_on_c, 2, 62, 0
1, 43380, Note_on_c, 0, 71, 100
1, 43380, Note_on_c, 2, 57, 100
1, 43380, Note_on_c, 4, 42, 100
1, 43380, Note_on_c, 2, 52, 100
1, 43380, Note_on_c, 2, 61, 100
1, 43380, Note_on_c, 3, 61, 90
1, 43380, Note_on_c, 9, 54, 55
1, 43380, Note_on_c, 9, 35, 100
1, 43400, Note_on_c, 9, 53, 0
1, 43420, Note_on_c, 9, 35, 0
1, 43420, Note_on_c, 9, 54, 0
1, 43432, Note_on_c, 0, 71, 0
1, 43432, Note_on_c, 4, 42, 0
1, 43433, Note_on_c, 3, 61, 0
1, 43438, Note_on_c, 2, 61, 0
1, 43438, Note_on_c, 2, 52, 0
1, 43438, Note_on_c, 2, 57, 0
1, 43440, Note_on_c, 2, 62, 100
1, 43440, Note_on_c, 2, 66, 100
1, 43440, Note_on_c, 2, 61, 100
1, 43440, Note_on_c, 3, 69, 90
1, 43440, Note_on_c, 2, 69, 100
1, 43440, Note_on_c, 0, 74, 100
1, 43440, Note_on_c, 4, 35, 100
1, 43440, Note_on_c, 9, 54, 55
1, 43440, Note_on_c, 9, 53, 100
1, 43480, Note_on_c, 9, 54, 0
1, 43500, Note_on_c, 9, 54, 55
1, 43500, Note_on_c, 9, 35, 100
1, 43520, Note_on_c, 9, 53, 0
1, 43540, Note_on_c, 9, 35, 0
1, 43540, Note_on_c, 9, 54, 0
1, 43560, Note_on_c, 9, 53, 100
1, 43560, Note_on_c, 9, 38, 100
1, 43560, Note_on_c, 9, 54, 55
1, 43596, Note_on_c, 4, 35, 0
1, 43598, Note_on_c, 3, 69, 0
1, 43600, Note_on_c, 9, 54, 0
1, 43600, Note_on_c, 9, 38, 0
1, 43618, Note_on_c, 2, 66, 0
1, 43618, Note_on_c, 2, 62, 0
1, 43618, Note_on_c, 2, 69, 0
1, 43618, Note_on_c, 2, 61, 0
1, 43620, Note_on_c, 3, 64, 90
1, 43620, Note_on_c, 9, 54, 55
1, 43620, Note_on_c, 4, 40, 100
1, 43640, Note_on_c, 9, 53, 0
1, 43646, Note_on_c, 4, 40, 0
1, 43646, Note_on_c, 3, 64, 0
1, 43648, Note_on_c, 0, 74, 0
1, 43650, Note_on_c, 3, 66, 90
1, 43650, Note_on_c, 4, 35, 100
1, 43660, Note_on_c, 9, 54, 0
1, 43676, Note_on_c, 4, 35, 0
1, 43676, Note_on_c, 3, 66, 0
1, 43680, Note_on_c, 9, 35, 100
1, 43680, Note_on_c, 3, 68, 90
1, 43680, Note_on_c, 2, 68, 100
1, 43680, Note_on_c, 4, 42, 100
1, 43680, Note_on_c, 2, 64, 100
1, 43680, Note_on_c, 9, 53, 100
1, 43680, Note_on_c, 2, 59, 100
1, 43680, Note_on_c, 9, 49, 100
1, 43680, Note_on_c, 9, 54, 55
1, 43720, Note_on_c, 9, 54, 0
1, 43720, Note_on_c, 9, 35, 0
1, 43740, Note_on_c, 9, 54, 55
1, 43750, Note_on_c, 3, 68, 0
1, 43758, Note_on_c, 4, 42, 0
1, 43760, Note_on_c, 9, 53, 0
1, 43768, Note_on_c, 2, 68, 0
1, 43768, Note_on_c, 2, 64, 0
1, 43768, Note_on_c, 2, 59, 0
1, 43770, Note_on_c, 3, 69, 90
1, 43770, Note_on_c, 4, 42, 100
1, 43770, Note_on_c, 2, 69, 100
1, 43770, Note_on_c, 2, 62, 100
1, 43770, Note_on_c, 2, 66, 100
1, 43770, Note_on_c, 9, 38, 100
1, 43780, Note_on_c, 9, 54, 0
1, 43800, Note_on_c, 9, 53, 100
1, 43800, Note_on_c, 9, 54, 55
1, 43810, Note_on_c, 9, 38, 0
1, 43840, Note_on_c, 9, 54, 0
1, 43840, Note_on_c, 9, 49, 0
1, 43840, Note_on_c, 3, 69, 0
1, 43848, Note_on_c, 4, 42, 0
1, 43858, Note_on_c, 2, 69, 0
1, 43858, Note_on_c, 2, 62, 0
1, 43858, Note_on_c, 2, 66, 0
1, 43860, Note_on_c, 2, 61, 100
1, 43860, Note_on_c, 0, 71, 100
1, 43860, Note_on_c, 9, 35, 100
1, 43860, Note_on_c, 9, 54, 55
1, 43860, Note_on_c, 2, 64, 100
1, 43860, Note_on_c, 3, 71, 90
1, 43860, Note_on_c, 4, 45, 100
1, 43860, Note_on_c, 2, 68, 100
1, 43880, Note_on_c, 9, 53, 0
1, 43886, Note_on_c, 0, 71, 0
1, 43890, Note_on_c, 0, 74, 100
1, 43900, Note_on_c, 9, 54, 0
1, 43900, Note_on_c, 9, 35, 0
1, 43912, Note_on_c, 4, 45, 0
1, 43913, Note_on_c, 3, 71, 0
1, 43918, Note_on_c, 2, 61, 0
1, 43918, Note_on_c, 2, 68, 0
1, 43918, Note_on_c, 2, 64, 0
1, 43920, Note_on_c, 9, 54, 55
1, 43920, Note_on_c, 9, 53, 100
1, 43920, Note_on_c, 2, 69, 100
1, 43920, Note_on_c, 2, 66, 100
1, 43920, Note_on_c, 3, 69, 90
1, 43920, Note_on_c, 2, 62, 100
1, 43920, Note_on_c, 4, 47, 100
1, 43960, Note_on_c, 9, 54, 0
1, 43980, Note_on_c, 9, 54, 55
1, 43980, Note_on_c, 9, 35, 100
1, 44000, Note_on_c, 9, 53, 0
1, 44020, Note_on_c, 9, 35, 0
1, 44020, Note_on_c, 9, 54, 0
1, 44024, Note_on_c, 4, 47, 0
1, 44025, Note_on_c, 3, 69, 0
1, 44038, Note_on_c, 2, 69, 0
1, 44038, Note_on_c, 2, 66, 0
1, 44038, Note_on_c, 2, 62, 0
1, 44040, Note_on_c, 2, 59, 100
1, 44040, Note_on_c, 9, 54, 55
1, 44040, Note_on_c, 9, 53, 100
1, 44040, Note_on_c, 3, 68, 90
1, 44040, Note_on_c, 9, 38, 100
1, 44040, Note_on_c, 2, 68, 100
1, 44040, Note_on_c, 2, 64, 100
1, 44040, Note_on_c, 4, 45, 100
1, 44046, Note_on_c, 0, 74, 0
1, 44080, Note_on_c, 9, 38, 0
1, 44080, Note_on_c, 9, 54, 0
1, 44100, Note_on_c, 9, 54, 55
1, 44120, Note_on_c, 9, 53, 0
1, 44140, Note_on_c, 9, 54, 0
1, 44144, Note_on_c, 4, 45, 0
1, 44145, Note_on_c, 3, 68, 0
1, 44158, Note_on_c, 2, 68, 0
1, 44158, Note_on_c, 2, 59, 0
1, 44158, Note_on_c, 2, 64, 0
1, 44160, Note_on_c, 4, 37, 100
1, 44160, Note_on_c, 3, 64, 90
1, 44160, Note_on_c, 2, 57, 100
1, 44160, Note_on_c, 9, 35, 100
1, 44160, Note_on_c, 2, 61, 100
1, 44160, Note_on_c, 9, 53, 100
1, 44160, Note_on_c, 2, 64, 100
1, 44160, Note_on_c, 9, 54, 55
1, 44200, Note_on_c, 9, 54, 0
1, 44200, Note_on_c, 9, 35, 0
1, 44220, Note_on_c, 0, 69, 100
1, 44220, Note_on_c, 9, 54, 55
1, 44230, Note_on_c, 3, 64, 0
1, 44238, Note_on_c, 4, 37, 0
1, 44240, Note_on_c, 9, 53, 0
1, 44246, Note_on_c, 0, 69, 0
1, 44248, Note_on_c, 2, 61, 0
1, 44248, Note_on_c, 2, 64, 0
1, 44248, Note_on_c, 2, 57, 0
1, 44250, Note_on_c, 2, 59, 100
1, 44250, Note_on_c, 4, 35, 100
1, 44250, Note_on_c, 0, 69, 100
1, 44250, Note_on_c, 2, 62, 100
1, 44250, Note_on_c, 3, 62, 90
1, 44250, Note_on_c, 2, 54, 100
1, 44260, Note_on_c, 9, 54, 0
1, 44280, Note_on_c, 9, 54, 55
1, 44280, Note_on_c, 9, 53, 100
1, 44280, Note_on_c, 9, 38, 100
1, 44302, Note_on_c, 0, 69, 0
1, 44310, Note_on_c, 0, 68, 100
1, 44320, Note_on_c, 9, 38, 0
1, 44320, Note_on_c, 9, 54, 0
1, 44320, Note_on_c, 3, 62, 0
1, 44328, Note_on_c, 4, 35, 0
1, 44336, Note_on_c, 0, 68, 0
1, 44338, Note_on_c, 2, 62, 0
1, 44338, Note_on_c, 2, 59, 0
1, 44338, Note_on_c, 2, 54, 0
1, 44340, Note_on_c, 0, 66, 100
1, 44340, Note_on_c, 9, 54, 55
1, 44340, Note_on_c, 9, 35, 100
1, 44340, Note_on_c, 2, 61, 100
1, 44340, Note_on_c, 2, 57, 100
1, 44340, Note_on_c, 2, 52, 100
1, 44340, Note_on_c, 4, 42, 100
1, 44340, Note_on_c, 3, 61, 90
1, 44360, Note_on_c, 9, 53, 0
1, 44366, Note_on_c, 0, 66, 0
1, 44370, Note_on_c, 0, 64, 100
1, 44380, Note_on_c, 9, 35, 0
1, 44380, Note_on_c, 9, 54, 0
1, 44392, Note_on_c, 4, 42, 0
1, 44393, Note_on_c, 3, 61, 0
1, 44398, Note_on_c, 2, 61, 0
1, 44398, Note_on_c, 2, 52, 0
1, 44398, Note_on_c, 2, 57, 0
1, 44400, Note_on_c, 2, 59, 100
1, 44400, Note_on_c, 9, 54, 55
1, 44400, Note_on_c, 2, 54, 100
1, 44400, Note_on_c, 9, 47, 100
1, 44400, Note_on_c, 4, 40, 100
1, 44400, Note_on_c, 3, 59, 90
1, 44413, Note_on_c, 9, 47, 0
1, 44420, Note_on_c, 9, 54, 0
1, 44420, Note_on_c, 9, 47, 100
1, 44422, Note_on_c, 0, 64, 0
1, 44430, Note_on_c, 0, 66, 100
1, 44430, Note_on_c, 9, 54, 55
1, 44433, Note_on_c, 9, 47, 0
1, 44440, Note_on_c, 9, 47, 100
1, 44450, Note_on_c, 9, 54, 0
1, 44453, Note_on_c, 9, 47, 0
1, 44456, Note_on_c, 0, 66, 0
1, 44460, Note_on_c, 9, 54, 55
1, 44460, Note_on_c, 9, 45, 100
1, 44460, Note_on_c, 0, 64, 100
1, 44473, Note_on_c, 9, 45, 0
1, 44480, Note_on_c, 9, 54, 0
1, 44480, Note_on_c, 9, 45, 100
1, 44490, Note_on_c, 9, 54, 55
1, 44493, Note_on_c, 9, 45, 0
1, 44500, Note_on_c, 9, 45, 100
1, 44510, Note_on_c, 9, 54, 0
1, 44513, Note_on_c, 9, 45, 0
1, 44520, Note_on_c, 9, 43, 100
1, 44520, Note_on_c, 9, 54, 55
1, 44533, Note_on_c, 9, 43, 0
1, 44540, Note_on_c, 9, 54, 0
1, 44540, Note_on_c, 9, 43, 100
1, 44550, Note_on_c, 9, 54, 55
1, 44553, Note_on_c, 9, 43, 0
1, 44556, Note_on_c, 4, 40, 0
1, 44558, Note_on_c, 3, 59, 0
1, 44560, Note_on_c, 9, 43, 100
1, 44570, Note_on_c, 9, 54, 0
1, 44573, Note_on_c, 9, 43, 0
1, 44578, Note_on_c, 2, 59, 0
1, 44578, Note_on_c, 2, 54, 0
1, 44580, Note_on_c, 9, 41, 100
1, 44580, Note_on_c, 9, 54, 55
1, 44580, Note_on_c, 4, 40, 100
1, 44593, Note_on_c, 9, 41, 0
1, 44600, Note_on_c, 9, 54, 0
1, 44600, Note_on_c, 9, 41, 100
1, 44606, Note_on_c, 4, 40, 0
1, 44610, Note_on_c, 9, 54, 55
1, 44610, Note_on_c, 4, 42, 100
1, 44613, Note_on_c, 9, 41, 0
1, 44616, Note_on_c, 0, 64, 0
1, 44620, Note_on_c, 9, 41, 100
1, 44630, Note_on_c, 9, 54, 0
1, 44636, Note_on_c, 4, 42, 0
1, 44640, Note_on_c, 9, 35, 100
1, 44640, Note_on_c, 9, 53, 100
1, 44640, Note_on_c, 1, 64, 110
1, 44640, Note_on_c, 1, 73, 110
1, 44640, Note_on_c, 9, 54, 55
1, 44640, Note_on_c, 4, 47, 100
1, 44640, Note_on_c, 2, 69, 100
1, 44640, Note_on_c, 1, 69, 110
1, 44640, Note_on_c, 9, 49, 100
1, 44640, Note_on_c, 2, 73, 100
1, 44640, Note_on_c, 2, 62, 100
1, 44641, Note_on_c, 9, 41, 0
1, 44666, Note_on_c, 1, 64, 0
1, 44670, Note_on_c, 1, 66, 110
1, 44680, Note_on_c, 9, 35, 0
1, 44680, Note_on_c, 9, 54, 0
1, 44700, Note_on_c, 9, 54, 55
1, 44720, Note_on_c, 9, 49, 0
1, 44720, Note_on_c, 9, 53, 0
1, 44740, Note_on_c, 9, 54, 0
1, 44760, Note_on_c, 9, 38, 100
1, 44760, Note_on_c, 9, 53, 100
1, 44760, Note_on_c, 9, 54, 55
1, 44774, Note_on_c, 1, 66, 0
1, 44796, Note_on_c, 1, 69, 0
1, 44796, Note_on_c, 1, 73, 0
1, 44796, Note_on_c, 4, 47, 0
1, 44800, Note_on_c, 9, 38, 0
1, 44800, Note_on_c, 9, 54, 0
1, 44818, Note_on_c, 2, 73, 0
1, 44818, Note_on_c, 2, 62, 0
1, 44818, Note_on_c, 2, 69, 0
1, 44820, Note_on_c, 1, 64, 110
1, 44820, Note_on_c, 9, 35, 100
1, 44820, Note_on_c, 1, 71, 110
1, 44820, Note_on_c, 2, 64, 100
1, 44820, Note_on_c, 2, 59, 100
1, 44820, Note_on_c, 9, 54, 55
1, 44820, Note_on_c, 4, 44, 100
1, 44820, Note_on_c, 2, 68, 100
1, 44840, Note_on_c, 9, 53, 0
1, 44860, Note_on_c, 9, 54, 0
1, 44860, Note_on_c, 9, 35, 0
1, 44880, Note_on_c, 9, 54, 55
1, 44880, Note_on_c, 9, 53, 100
1, 44920, Note_on_c, 9, 54, 0
1, 44924, Note_on_c, 4, 44, 0
1, 44938, Note_on_c, 2, 64, 0
1, 44938, Note_on_c, 2, 68, 0
1, 44938, Note_on_c, 2, 59, 0
1, 44940, Note_on_c, 9, 54, 55
1, 44940, Note_on_c, 2, 59, 100
1, 44940, Note_on_c, 2, 64, 100
1, 44940, Note_on_c, 9, 35, 100
1, 44940, Note_on_c, 4, 45, 100
1, 44940, Note_on_c, 2, 68, 100
1, 44960, Note_on_c, 9, 53, 0
1, 44976, Note_on_c, 1, 64, 0
1, 44976, Note_on_c, 1, 71, 0
1, 44980, Note_on_c, 9, 54, 0
1, 44980, Note_on_c, 9, 35, 0
1, 45000, Note_on_c, 9, 38, 100
1, 45000, Note_on_c, 9, 54, 55
1, 45000, Note_on_c, 1, 68, 110
1, 45000, Note_on_c, 9, 53, 100
1, 45026, Note_on_c, 1, 68, 0
1, 45030, Note_on_c, 1, 69, 110
1, 45040, Note_on_c, 9, 54, 0
1, 45040, Note_on_c, 9, 38, 0
1, 45056, Note_on_c, 1, 69, 0
1, 45060, Note_on_c, 9, 54, 55
1, 45060, Note_on_c, 1, 71, 110
1, 45070, Note_on_c, 4, 45, 0
1, 45080, Note_on_c, 9, 53, 0
1, 45090, Note_on_c, 4, 49, 100
1, 45100, Note_on_c, 9, 54, 0
1, 45112, Note_on_c, 1, 71, 0
1, 45116, Note_on_c, 4, 49, 0
1, 45118, Note_on_c, 2, 68, 0
1, 45118, Note_on_c, 2, 59, 0
1, 45118, Note_on_c, 2, 64, 0
1, 45120, Note_on_c, 9, 53, 100
1, 45120, Note_on_c, 9, 35, 100
1, 45120, Note_on_c, 1, 64, 110
1, 45120, Note_on_c, 9, 54, 55
1, 45120, Note_on_c, 2, 64, 100
1, 45120, Note_on_c, 4, 45, 100
1, 45120, Note_on_c, 1, 69, 110
1, 45120, Note_on_c, 2, 66, 100
1, 45120, Note_on_c, 2, 69, 100
1, 45160, Note_on_c, 9, 54, 0
1, 45160, Note_on_c, 9, 35, 0
1, 45180, Note_on_c, 9, 54, 55
1, 45200, Note_on_c, 9, 53, 0
1, 45220, Note_on_c, 9, 54, 0
1, 45224, Note_on_c, 1, 64, 0
1, 45224, Note_on_c, 1, 69, 0
1, 45240, Note_on_c, 9, 54, 55
1, 45240, Note_on_c, 1, 68, 110
1, 45240, Note_on_c, 9, 53, 100
1, 45240, Note_on_c, 9, 38, 100
1, 45276, Note_on_c, 4, 45, 0
1, 45280, Note_on_c, 9, 38, 0
1, 45280, Note_on_c, 9, 54, 0
1, 45292, Note_on_c, 1, 68, 0
1, 45298, Note_on_c, 2, 69, 0
1, 45298, Note_on_c, 2, 66, 0
1, 45298, Note_on_c, 2, 64, 0
1, 45300, Note_on_c, 2, 69, 100
1, 45300, Note_on_c, 1, 62, 110
1, 45300, Note_on_c, 2, 62, 100
1, 45300, Note_on_c, 1, 57, 110
1, 45300, Note_on_c, 2, 64, 100
1, 45300, Note_on_c, 1, 66, 110
1, 45300, Note_on_c, 9, 35, 100
1, 45300, Note_on_c, 4, 38, 100
1, 45300, Note_on_c, 9, 54, 55
1, 45320, Note_on_c, 9, 53, 0
1, 45340, Note_on_c, 9, 54, 0
1, 45340, Note_on_c, 9, 35, 0
1, 45360, Note_on_c, 9, 53, 100
1, 45360, Note_on_c, 9, 54, 55
1, 45400, Note_on_c, 9, 54, 0
1, 45404, Note_on_c, 1, 57, 0
1, 45404, Note_on_c, 4, 38, 0
1, 45404, Note_on_c, 1, 62, 0
1, 45404, Note_on_c, 1, 66, 0
1, 45418, Note_on_c, 2, 62, 0
1, 45418, Note_on_c, 2, 69, 0
1, 45418, Note_on_c, 2, 64, 0
1, 45420, Note_on_c, 2, 56, 100
1, 45420, Note_on_c, 2, 64, 100
1, 45420, Note_on_c, 9, 35, 100
1, 45420, Note_on_c, 1, 64, 110
1, 45420, Note_on_c, 9, 54, 55
1, 45420, Note_on_c, 2, 59, 100
1, 45420, Note_on_c, 1, 56, 110
1, 45420, Note_on_c, 4, 40, 100
1, 45420, Note_on_c, 1, 59, 110
1, 45440, Note_on_c, 9, 53, 0
1, 45460, Note_on_c, 9, 35, 0
1, 45460, Note_on_c, 9, 54, 0
1, 45472, Note_on_c, 4, 40, 0
1, 45480, Note_on_c, 4, 40, 100
1, 45480, Note_on_c, 9, 53, 100
1, 45480, Note_on_c, 9, 54, 55
1, 45480, Note_on_c, 9, 38, 100
1, 45520, Note_on_c, 9, 38, 0
1, 45520, Note_on_c, 9, 54, 0
1, 45524, Note_on_c, 1, 59, 0
1, 45524, Note_on_c, 1, 64, 0
1, 45524, Note_on_c, 1, 56, 0
1, 45540, Note_on_c, 1, 69, 110
1, 45540, Note_on_c, 9, 54, 55
1, 45558, Note_on_c, 4, 40, 0
1, 45560, Note_on_c, 9, 53, 0
1, 45566, Note_on_c, 1, 69, 0
1, 45570, Note_on_c, 4, 45, 100
1, 45570, Note_on_c, 1, 71, 110
1, 45580, Note_on_c, 9, 54, 0
1, 45596, Note_on_c, 4, 45, 0
1, 45596, Note_on_c, 1, 71, 0
1, 45598, Note_on_c, 2, 56, 0
1, 45598, Note_on_c, 2, 59, 0
1, 45598, Note_on_c, 2, 64, 0
1, 45600, Note_on_c, 2, 73, 100
1, 45600, Note_on_c, 9, 49, 100
1, 45600, Note_on_c, 9, 54, 55
1, 45600, Note_on_c, 1, 73, 110
1, 45600, Note_on_c, 1, 64, 110
1, 45600, Note_on_c, 2, 69, 100
1, 45600, Note_on_c, 9, 53, 100
1, 45600, Note_on_c, 9, 35, 100
1, 45600, Note_on_c, 1, 69, 110
1, 45600, Note_on_c, 4, 47, 100
1, 45600, Note_on_c, 2, 62, 100
1, 45640, Note_on_c, 9, 35, 0
1, 45640, Note_on_c, 9, 54, 0
1, 45660, Note_on_c, 9, 54, 55
1, 45680, Note_on_c, 9, 53, 0
1, 45700, Note_on_c, 9, 54, 0
1, 45704, Note_on_c, 1, 73, 0
1, 45704, Note_on_c, 1, 64, 0
1, 45704, Note_on_c, 1, 69, 0
1, 45720, Note_on_c, 9, 53, 100
1, 45720, Note_on_c, 9, 38, 100
1, 45720, Note_on_c, 1, 71, 110
1, 45720, Note_on_c, 9, 54, 55
1, 45746, Note_on_c, 1, 71, 0
1, 45750, Note_on_c, 1, 69, 110
1, 45756, Note_on_c, 4, 47, 0
1, 45760, Note_on_c, 9, 49, 0
1, 45760, Note_on_c, 9, 54, 0
1, 45760, Note_on_c, 9, 38, 0
1, 45776, Note_on_c, 1, 69, 0
1, 45778, Note_on_c, 2, 73, 0
1, 45778, Note_on_c, 2, 62, 0
1, 45778, Note_on_c, 2, 69, 0
1, 45780, Note_on_c, 4, 44, 100
1, 45780, Note_on_c, 9, 35, 100
1, 45780, Note_on_c, 9, 54, 55
1, 45780, Note_on_c, 2, 64, 100
1, 45780, Note_on_c, 2, 59, 100
1, 45780, Note_on_c, 1, 71, 110
1, 45780, Note_on_c, 1, 64, 110
1, 45780, Note_on_c, 2, 68, 100
1, 45800, Note_on_c, 9, 53, 0
1, 45820, Note_on_c, 9, 54, 0
1, 45820, Note_on_c, 9, 35, 0
1, 45840, Note_on_c, 9, 54, 55
1, 45840, Note_on_c, 9, 53, 100
1, 45880, Note_on_c, 9, 54, 0
1, 45884, Note_on_c, 4, 44, 0
1, 45898, Note_on_c, 2, 68, 0
1, 45898, Note_on_c, 2, 64, 0
1, 45898, Note_on_c, 2, 59, 0
1, 45900, Note_on_c, 2, 64, 100
1, 45900, Note_on_c, 9, 35, 100
1, 45900, Note_on_c, 4, 45, 100
1, 45900, Note_on_c, 2, 68, 100
1, 45900, Note_on_c, 9, 54, 55
1, 45900, Note_on_c, 2, 59, 100
1, 45920, Note_on_c, 9, 53, 0
1, 45936, Note_on_c, 1, 64, 0
1, 45936, Note_on_c, 1, 71, 0
1, 45940, Note_on_c, 9, 54, 0
1, 45940, Note_on_c, 9, 35, 0
1, 45960, Note_on_c, 1, 68, 110
1, 45960, Note_on_c, 9, 54, 55
1, 45960, Note_on_c, 9, 38, 100
1, 45960, Note_on_c, 9, 53, 100
1, 45986, Note_on_c, 1, 68, 0
1, 45990, Note_on_c, 1, 69, 110
1, 46000, Note_on_c, 9, 38, 0
1, 46000, Note_on_c, 9, 54, 0
1, 46016, Note_on_c, 1, 69, 0
1, 46020, Note_on_c, 9, 54, 55
1, 46020, Note_on_c, 1, 71, 110
1, 46030, Note_on_c, 4, 45, 0
1, 46040, Note_on_c, 9, 53, 0
1, 46050, Note_on_c, 4, 49, 100
1, 46060, Note_on_c, 9, 54, 0
1, 46072, Note_on_c, 1, 71, 0
1, 46076, Note_on_c, 4, 49, 0
1, 46078, Note_on_c, 2, 59, 0
1, 46078, Note_on_c, 2, 64, 0
1, 46078, Note_on_c, 2, 68, 0
1, 46080, Note_on_c, 1, 64, 110
1, 46080, Note_on_c, 2, 64, 100
1, 46080, Note_on_c, 9, 54, 55
1, 46080, Note_on_c, 2, 66, 100
1, 46080, Note_on_c, 9, 53, 100
1, 46080, Note_on_c, 2, 69, 100
1, 46080, Note_on_c, 9, 35, 100
1, 46080, Note_on_c, 4, 45, 100
1, 46080, Note_on_c, 1, 69, 110
1, 46120, Note_on_c, 9, 35, 0
1, 46120, Note_on_c, 9, 54, 0
1, 46140, Note_on_c, 9, 54, 55
1, 46160, Note_on_c, 9, 53, 0
1, 46180, Note_on_c, 9, 54, 0
1, 46184, Note_on_c, 1, 69, 0
1, 46184, Note_on_c, 1, 64, 0
1, 46200, Note_on_c, 9, 38, 100
1, 46200, Note_on_c, 9, 54, 55
1, 46200, Note_on_c, 9, 53, 100
1, 46200, Note_on_c, 1, 68, 110
1, 46236, Note_on_c, 4, 45, 0
1, 46240, Note_on_c, 9, 38, 0
1, 46240, Note_on_c, 9, 54, 0
1, 46252, Note_on_c, 1, 68, 0
1, 46258, Note_on_c, 2, 66, 0
1, 46258, Note_on_c, 2, 64, 0
1, 46258, Note_on_c, 2, 69, 0
1, 46260, Note_on_c, 1, 66, 110
1, 46260, Note_on_c, 2, 69, 100
1, 46260, Note_on_c, 1, 62, 110
1, 46260, Note_on_c, 1, 57, 110
1, 46260, Note_on_c, 9, 54, 55
1, 46260, Note_on_c, 4, 38, 100
1, 46260, Note_on_c, 9, 35, 100
1, 46260, Note_on_c, 2, 62, 100
1, 46260, Note_on_c, 2, 64, 100
1, 46280, Note_on_c, 9, 53, 0
1, 46300, Note_on_c, 9, 35, 0
1, 46300, Note_on_c, 9, 54, 0
1, 46320, Note_on_c, 9, 53, 100
1, 46320, Note_on_c, 9, 54, 55
1, 46360, Note_on_c, 9, 54, 0
1, 46364, Note_on_c, 1, 57, 0
1, 46364, Note_on_c, 1, 66, 0
1, 46364, Note_on_c, 1, 62, 0
1, 46364, Note_on_c, 4, 38, 0
1, 46378, Note_on_c, 2, 62, 0
1, 46378, Note_on_c, 2, 64, 0
1, 46378, Note_on_c, 2, 69, 0
1, 46380, Note_on_c, 9, 54, 55
1, 46380, Note_on_c, 9, 35, 100
1, 46380, Note_on_c, 2, 56, 100
1, 46380, Note_on_c, 1, 59, 110
1, 46380, Note_on_c, 4, 40, 100
1, 46380, Note_on_c, 1, 56, 110
1, 46380, Note_on_c, 2, 59, 100
1, 46380, Note_on_c, 2, 64, 100
1, 46380, Note_on_c, 1, 64, 110
1, 46400, Note_on_c, 9, 53, 0
1, 46420, Note_on_c, 9, 54, 0
1, 46420, Note_on_c, 9, 35, 0
1, 46432, Note_on_c, 4, 40, 0
1, 46440, Note_on_c, 4, 40, 100
1, 46440, Note_on_c, 9, 54, 55
1, 46440, Note_on_c, 9, 38, 100
1, 46440, Note_on_c, 9, 53, 100
1, 46470, Note_on_c, 0, 74, 100
1, 46480, Note_on_c, 9, 38, 0
1, 46480, Note_on_c, 9, 54, 0
1, 46500, Note_on_c, 9, 54, 55
1, 46518, Note_on_c, 4, 40, 0
1, 46520, Note_on_c, 9, 53, 0
1, 46522, Note_on_c, 0, 74, 0
1, 46530, Note_on_c, 0, 74, 100
1, 46530, Note_on_c, 4, 45, 100
1, 46533, Note_on_c, 1, 64, 0
1, 46533, Note_on_c, 1, 59, 0
1, 46533, Note_on_c, 1, 56, 0
1, 46540, Note_on_c, 9, 54, 0
1, 46556, Note_on_c, 4, 45, 0
1, 46556, Note_on_c, 0, 74, 0
1, 46558, Note_on_c, 2, 56, 0
1, 46558, Note_on_c, 2, 64, 0
1, 46558, Note_on_c, 2, 59, 0
1, 46560, Note_on_c, 9, 35, 100
1, 46560, Note_on_c, 2, 73, 100
1, 46560, Note_on_c, 9, 54, 55
1, 46560, Note_on_c, 9, 53, 100
1, 46560, Note_on_c, 1, 69, 110
1, 46560, Note_on_c, 1, 73, 110
1, 46560, Note_on_c, 1, 64, 110
1, 46560, Note_on_c, 0, 74, 100
1, 46560, Note_on_c, 2, 69, 100
1, 46560, Note_on_c, 9, 49, 100
1, 46560, Note_on_c, 4, 47, 100
1, 46560, Note_on_c, 2, 62, 100
1, 46586, Note_on_c, 1, 64, 0
1, 46590, Note_on_c, 1, 66, 110
1, 46600, Note_on_c, 9, 54, 0
1, 46600, Note_on_c, 9, 35, 0
1, 46612, Note_on_c, 0, 74, 0
1, 46620, Note_on_c, 0, 73, 100
1, 46620, Note_on_c, 9, 54, 55
1, 46640, Note_on_c, 9, 53, 0
1, 46640, Note_on_c, 9, 49, 0
1, 46646, Note_on_c, 0, 73, 0
1, 46650, Note_on_c, 0, 73, 100
1, 46660, Note_on_c, 9, 54, 0
1, 46680, Note_on_c, 9, 54, 55
1, 46680, Note_on_c, 9, 53, 100
1, 46680, Note_on_c, 9, 38, 100
1, 46694, Note_on_c, 1, 66, 0
1, 46702, Note_on_c, 0, 73, 0
1, 46710, Note_on_c, 0, 71, 100
1, 46716, Note_on_c, 4, 47, 0
1, 46716, Note_on_c, 1, 69, 0
1, 46716, Note_on_c, 1, 73, 0
1, 46720, Note_on_c, 9, 38, 0
1, 46720, Note_on_c, 9, 54, 0
1, 46736, Note_on_c, 0, 71, 0
1, 46738, Note_on_c, 2, 62, 0
1, 46738, Note_on_c, 2, 73, 0
1, 46738, Note_on_c, 2, 69, 0
1, 46740, Note_on_c, 2, 68, 100
1, 46740, Note_on_c, 9, 35, 100
1, 46740, Note_on_c, 0, 71, 100
1, 46740, Note_on_c, 4, 44, 100
1, 46740, Note_on_c, 2, 64, 100
1, 46740, Note_on_c, 1, 64, 110
1, 46740, Note_on_c, 2, 59, 100
1, 46740, Note_on_c, 1, 71, 110
1, 46740, Note_on_c, 9, 54, 55
1, 46760, Note_on_c, 9, 53, 0
1, 46780, Note_on_c, 9, 54, 0
1, 46780, Note_on_c, 9, 35, 0
1, 46792, Note_on_c, 0, 71, 0
1, 46800, Note_on_c, 9, 54, 55
1, 46800, Note_on_c, 0, 71, 100
1, 46800, Note_on_c, 9, 53, 100
1, 46840, Note_on_c, 9, 54, 0
1, 46844, Note_on_c, 4, 44, 0
1, 46858, Note_on_c, 2, 59, 0
1, 46858, Note_on_c, 2, 68, 0
1, 46858, Note_on_c, 2, 64, 0
1, 46860, Note_on_c, 2, 68, 100
1, 46860, Note_on_c, 2, 59, 100
1, 46860, Note_on_c, 9, 35, 100
1, 46860, Note_on_c, 2, 64, 100
1, 46860, Note_on_c, 9, 54, 55
1, 46860, Note_on_c, 4, 45, 100
1, 46880, Note_on_c, 9, 53, 0
1, 46896, Note_on_c, 1, 64, 0
1, 46896, Note_on_c, 1, 71, 0
1, 46900, Note_on_c, 9, 54, 0
1, 46900, Note_on_c, 9, 35, 0
1, 46904, Note_on_c, 0, 71, 0
1, 46920, Note_on_c, 1, 68, 110
1, 46920, Note_on_c, 9, 38, 100
1, 46920, Note_on_c, 0, 69, 100
1, 46920, Note_on_c, 9, 54, 55
1, 46920, Note_on_c, 9, 53, 100
1, 46946, Note_on_c, 0, 69, 0
1, 46946, Note_on_c, 1, 68, 0
1, 46950, Note_on_c, 1, 69, 110
1, 46950, Note_on_c, 0, 69, 100
1, 46960, Note_on_c, 9, 54, 0
1, 46960, Note_on_c, 9, 38, 0
1, 46976, Note_on_c, 0, 69, 0
1, 46976, Note_on_c, 1, 69, 0
1, 46980, Note_on_c, 0, 69, 100
1, 46980, Note_on_c, 1, 71, 110
1, 46980, Note_on_c, 9, 54, 55
1, 46990, Note_on_c, 4, 45, 0
1, 47000, Note_on_c, 9, 53, 0
1, 47006, Note_on_c, 0, 69, 0
1, 47010, Note_on_c, 0, 69, 100
1, 47010, Note_on_c, 4, 49, 100
1, 47020, Note_on_c, 9, 54, 0
1, 47032, Note_on_c, 1, 71, 0
1, 47036, Note_on_c, 0, 69, 0
1, 47036, Note_on_c, 4, 49, 0
1, 47038, Note_on_c, 2, 64, 0
1, 47038, Note_on_c, 2, 59, 0
1, 47038, Note_on_c, 2, 68, 0
1, 47040, Note_on_c, 1, 69, 110
1, 47040, Note_on_c, 9, 35, 100
1, 47040, Note_on_c, 9, 54, 55
1, 47040, Note_on_c, 2, 66, 100
1, 47040, Note_on_c, 2, 64, 100
1, 47040, Note_on_c, 2, 69, 100
1, 47040, Note_on_c, 1, 64, 110
1, 47040, Note_on_c, 0, 69, 100
1, 47040, Note_on_c, 4, 45, 100
1, 47040, Note_on_c, 9, 53, 100
1, 47080, Note_on_c, 9, 54, 0
1, 47080, Note_on_c, 9, 35, 0
1, 47092, Note_on_c, 0, 69, 0
1, 47100, Note_on_c, 9, 54, 55
1, 47100, Note_on_c, 0, 68, 100
1, 47120, Note_on_c, 9, 53, 0
1, 47126, Note_on_c, 0, 68, 0
1, 47130, Note_on_c, 0, 68, 100
1, 47140, Note_on_c, 9, 54, 0
1, 47144, Note_on_c, 1, 69, 0
1, 47144, Note_on_c, 1, 64, 0
1, 47160, Note_on_c, 9, 38, 100
1, 47160, Note_on_c, 1, 68, 110
1, 47160, Note_on_c, 9, 53, 100
1, 47160, Note_on_c, 9, 54, 55
1, 47182, Note_on_c, 0, 68, 0
1, 47190, Note_on_c, 0, 66, 100
1, 47196, Note_on_c, 4, 45, 0
1, 47200, Note_on_c, 9, 54, 0
1, 47200, Note_on_c, 9, 38, 0
1, 47212, Note_on_c, 1, 68, 0
1, 47216, Note_on_c, 0, 66, 0
1, 47218, Note_on_c, 2, 69, 0
1, 47218, Note_on_c, 2, 66, 0
1, 47218, Note_on_c, 2, 64, 0
1, 47220, Note_on_c, 9, 35, 100
1, 47220, Note_on_c, 0, 66, 100
1, 47220, Note_on_c, 9, 54, 55
1, 47220, Note_on_c, 1, 62, 110
1, 47220, Note_on_c, 2, 64, 100
1, 47220, Note_on_c, 2, 69, 100
1, 47220, Note_on_c, 1, 66, 110
1, 47220, Note_on_c, 2, 62, 100
1, 47220, Note_on_c, 4, 38, 100
1, 47220, Note_on_c, 1, 57, 110
1, 47240, Note_on_c, 9, 53, 0
1, 47260, Note_on_c, 9, 54, 0
1, 47260, Note_on_c, 9, 35, 0
1, 47272, Note_on_c, 0, 66, 0
1, 47280, Note_on_c, 9, 53, 100
1, 47280, Note_on_c, 0, 66, 100
1, 47280, Note_on_c, 9, 54, 55
1, 47320, Note_on_c, 9, 54, 0
1, 47324, Note_on_c, 1, 57, 0
1, 47324, Note_on_c, 1, 66, 0
1, 47324, Note_on_c, 4, 38, 0
1, 47324, Note_on_c, 1, 62, 0
1, 47338, Note_on_c, 2, 64, 0
1, 47338, Note_on_c, 2, 69, 0
1, 47338, Note_on_c, 2, 62, 0
1, 47340, Note_on_c, 2, 59, 100
1, 47340, Note_on_c, 2, 64, 100
1, 47340, Note_on_c, 1, 64, 110
1, 47340, Note_on_c, 1, 56, 110
1, 47340, Note_on_c, 1, 59, 110
1, 47340, Note_on_c, 9, 35, 100
1, 47340, Note_on_c, 9, 54, 55
1, 47340, Note_on_c, 4, 40, 100
1, 47340, Note_on_c, 2, 56, 100
1, 47360, Note_on_c, 9, 53, 0
1, 47380, Note_on_c, 9, 54, 0
1, 47380, Note_on_c, 9, 35, 0
1, 47392, Note_on_c, 4, 40, 0
1, 47400, Note_on_c, 9, 38, 100
1, 47400, Note_on_c, 9, 53, 100
1, 47400, Note_on_c, 4, 40, 100
1, 47400, Note_on_c, 9, 54, 55
1, 47436, Note_on_c, 0, 66, 0
1, 47440, Note_on_c, 9, 54, 0
1, 47440, Note_on_c, 9, 38, 0
1, 47444, Note_on_c, 1, 64, 0
1, 47444, Note_on_c, 1, 59, 0
1, 47444, Note_on_c, 1, 56, 0
1, 47460, Note_on_c, 1, 69, 110
1, 47460, Note_on_c, 0, 71, 100
1, 47460, Note_on_c, 9, 54, 55
1, 47478, Note_on_c, 4, 40, 0
1, 47480, Note_on_c, 9, 53, 0
1, 47486, Note_on_c, 1, 69, 0
1, 47486, Note_on_c, 0, 71, 0
1, 47490, Note_on_c, 0, 73, 100
1, 47490, Note_on_c, 4, 45, 100
1, 47490, Note_on_c, 1, 71, 110
1, 47500, Note_on_c, 9, 54, 0
1, 47516, Note_on_c, 4, 45, 0
1, 47516, Note_on_c, 0, 73, 0
1, 47516, Note_on_c, 1, 71, 0
1, 47518, Note_on_c, 2, 59, 0
1, 47518, Note_on_c, 2, 64, 0
1, 47518, Note_on_c, 2, 56, 0
1, 47520, Note_on_c, 0, 74, 100
1, 47520, Note_on_c, 9, 35, 100
1, 47520, Note_on_c, 1, 64, 110
1, 47520, Note_on_c, 1, 73, 110
1, 47520, Note_on_c, 9, 53, 100
1, 47520, Note_on_c, 2, 73, 100
1, 47520, Note_on_c, 4, 47, 100
1, 47520, Note_on_c, 9, 49, 100
1, 47520, Note_on_c, 2, 69, 100
1, 47520, Note_on_c, 2, 62, 100
1, 47520, Note_on_c, 1, 69, 110
1, 47520, Note_on_c, 9, 54, 55
1, 47560, Note_on_c, 9, 54, 0
1, 47560, Note_on_c, 9, 35, 0
1, 47580, Note_on_c, 9, 54, 55
1, 47598, Note_on_c, 0, 74, 0
1, 47600, Note_on_c, 9, 53, 0
1, 47610, Note_on_c, 0, 73, 100
1, 47620, Note_on_c, 9, 54, 0
1, 47624, Note_on_c, 1, 73, 0
1, 47624, Note_on_c, 1, 69, 0
1, 47624, Note_on_c, 1, 64, 0
1, 47640, Note_on_c, 9, 53, 100
1, 47640, Note_on_c, 1, 71, 110
1, 47640, Note_on_c, 9, 54, 55
1, 47640, Note_on_c, 9, 38, 100
1, 47662, Note_on_c, 0, 73, 0
1, 47666, Note_on_c, 1, 71, 0
1, 47670, Note_on_c, 1, 69, 110
1, 47670, Note_on_c, 0, 71, 100
1, 47676, Note_on_c, 4, 47, 0
1, 47680, Note_on_c, 9, 54, 0
1, 47680, Note_on_c, 9, 49, 0
1, 47680, Note_on_c, 9, 38, 0
1, 47696, Note_on_c, 0, 71, 0
1, 47696, Note_on_c, 1, 69, 0
1, 47698, Note_on_c, 2, 73, 0
1, 47698, Note_on_c, 2, 62, 0
1, 47698, Note_on_c, 2, 69, 0
1, 47700, Note_on_c, 9, 54, 55
1, 47700, Note_on_c, 9, 35, 100
1, 47700, Note_on_c, 1, 64, 110
1, 47700, Note_on_c, 0, 71, 100
1, 47700, Note_on_c, 4, 44, 100
1, 47700, Note_on_c, 2, 59, 100
1, 47700, Note_on_c, 2, 64, 100
1, 47700, Note_on_c, 2, 68, 100
1, 47700, Note_on_c, 1, 71, 110
1, 47720, Note_on_c, 9, 53, 0
1, 47740, Note_on_c, 9, 54, 0
1, 47740, Note_on_c, 9, 35, 0
1, 47752, Note_on_c, 0, 71, 0
1, 47760, Note_on_c, 9, 54, 55
1, 47760, Note_on_c, 0, 71, 100
1, 47760, Note_on_c, 9, 53, 100
1, 47800, Note_on_c, 9, 54, 0
1, 47804, Note_on_c, 4, 44, 0
1, 47812, Note_on_c, 0, 71, 0
1, 47818, Note_on_c, 2, 59, 0
1, 47818, Note_on_c, 2, 68, 0
1, 47818, Note_on_c, 2, 64, 0
1, 47820, Note_on_c, 0, 69, 100
1, 47820, Note_on_c, 2, 59, 100
1, 47820, Note_on_c, 4, 45, 100
1, 47820, Note_on_c, 2, 68, 100
1, 47820, Note_on_c, 9, 35, 100
1, 47820, Note_on_c, 9, 54, 55
1, 47820, Note_on_c, 2, 64, 100
1, 47840, Note_on_c, 9, 53, 0
1, 47856, Note_on_c, 1, 64, 0
1, 47856, Note_on_c, 1, 71, 0
1, 47860, Note_on_c, 9, 54, 0
1, 47860, Note_on_c, 9, 35, 0
1, 47880, Note_on_c, 9, 38, 100
1, 47880, Note_on_c, 9, 54, 55
1, 47880, Note_on_c, 9, 53, 100
1, 47880, Note_on_c, 1, 68, 110
1, 47898, Note_on_c, 0, 69, 0
1, 47906, Note_on_c, 1, 68, 0
1, 47910, Note_on_c, 1, 69, 110
1, 47910, Note_on_c, 0, 64, 100
1, 47920, Note_on_c, 9, 54, 0
1, 47920, Note_on_c, 9, 38, 0
1, 47936, Note_on_c, 0, 64, 0
1, 47936, Note_on_c, 1, 69, 0
1, 47940, Note_on_c, 0, 68, 100
1, 47940, Note_on_c, 1, 71, 110
1, 47940, Note_on_c, 9, 54, 55
1, 47950, Note_on_c, 4, 45, 0
1, 47960, Note_on_c, 9, 53, 0
1, 47966, Note_on_c, 0, 68, 0
1, 47970, Note_on_c, 0, 71, 100
1, 47970, Note_on_c, 4, 49, 100
1, 47980, Note_on_c, 9, 54, 0
1, 47992, Note_on_c, 1, 71, 0
1, 47996, Note_on_c, 0, 71, 0
1, 47996, Note_on_c, 4, 49, 0
1, 47998, Note_on_c, 2, 68, 0
1, 47998, Note_on_c, 2, 64, 0
1, 47998, Note_on_c, 2, 59, 0
1, 48000, Note_on_c, 1, 64, 110
1, 48000, Note_on_c, 9, 53, 100
1, 48000, Note_on_c, 9, 54, 55
1, 48000, Note_on_c, 2, 66, 100
1, 48000, Note_on_c, 2, 64, 100
1, 48000, Note_on_c, 0, 69, 100
1, 48000, Note_on_c, 4, 45, 100
1, 48000, Note_on_c, 1, 69, 110
1, 48000, Note_on_c, 9, 35, 100
1, 48000, Note_on_c, 2, 69, 100
1, 48040, Note_on_c, 9, 35, 0
1, 48040, Note_on_c, 9, 54, 0
1, 48052, Note_on_c, 0, 69, 0
1, 48060, Note_on_c, 0, 68, 100
1, 48060, Note_on_c, 9, 54, 55
1, 48080, Note_on_c, 9, 53, 0
1, 48100, Note_on_c, 9, 54, 0
1, 48104, Note_on_c, 1, 64, 0
1, 48104, Note_on_c, 1, 69, 0
1, 48112, Note_on_c, 0, 68, 0
1, 48120, Note_on_c, 9, 54, 55
1, 48120, Note_on_c, 0, 66, 100
1, 48120, Note_on_c, 9, 53, 100
1, 48120, Note_on_c, 1, 68, 110
1, 48120, Note_on_c, 9, 38, 100
1, 48156, Note_on_c, 4, 45, 0
1, 48160, Note_on_c, 9, 38, 0
1, 48160, Note_on_c, 9, 54, 0
1, 48172, Note_on_c, 1, 68, 0
1, 48172, Note_on_c, 0, 66, 0
1, 48178, Note_on_c, 2, 64, 0
1, 48178, Note_on_c, 2, 66, 0
1, 48178, Note_on_c, 2, 69, 0
1, 48180, Note_on_c, 2, 62, 100
1, 48180, Note_on_c, 1, 62, 110
1, 48180, Note_on_c, 1, 57, 110
1, 48180, Note_on_c, 0, 66, 100
1, 48180, Note_on_c, 1, 66, 110
1, 48180, Note_on_c, 9, 54, 55
1, 48180, Note_on_c, 9, 35, 100
1, 48180, Note_on_c, 2, 64, 100
1, 48180, Note_on_c, 2, 69, 100
1, 48180, Note_on_c, 4, 38, 100
1, 48200, Note_on_c, 9, 53, 0
1, 48220, Note_on_c, 9, 35, 0
1, 48220, Note_on_c, 9, 54, 0
1, 48240, Note_on_c, 9, 54, 55
1, 48240, Note_on_c, 9, 53, 100
1, 48280, Note_on_c, 9, 54, 0
1, 48284, Note_on_c, 1, 57, 0
1, 48284, Note_on_c, 0, 66, 0
1, 48284, Note_on_c, 4, 38, 0
1, 48284, Note_on_c, 1, 66, 0
1, 48284, Note_on_c, 1, 62, 0
1, 48298, Note_on_c, 2, 64, 0
1, 48298, Note_on_c, 2, 62, 0
1, 48298, Note_on_c, 2, 69, 0
1, 48300, Note_on_c, 1, 64, 110
1, 48300, Note_on_c, 0, 64, 100
1, 48300, Note_on_c, 2, 64, 100
1, 48300, Note_on_c, 2, 59, 100
1, 48300, Note_on_c, 2, 56, 100
1, 48300, Note_on_c, 3, 74, 100
1, 48300, Note_on_c, 1, 59, 110
1, 48300, Note_on_c, 1, 56, 110
1, 48300, Note_on_c, 4, 40, 100
1, 48300, Note_on_c, 9, 54, 55
1, 48300, Note_on_c, 9, 45, 100
1, 48300, Note_on_c, 9, 35, 100
1, 48320, Note_on_c, 9, 45, 0
1, 48320, Note_on_c, 9, 53, 0
1, 48330, Note_on_c, 9, 43, 100
1, 48340, Note_on_c, 9, 54, 0
1, 48340, Note_on_c, 9, 35, 0
1, 48350, Note_on_c, 9, 43, 0
1, 48352, Note_on_c, 4, 40, 0
1, 48352, Note_on_c, 3, 74, 0
1, 48360, Note_on_c, 9, 54, 55
1, 48360, Note_on_c, 9, 53, 100
1, 48360, Note_on_c, 4, 40, 100
1, 48360, Note_on_c, 3, 73, 100
1, 48360, Note_on_c, 9, 38, 100
1, 48390, Note_on_c, 9, 38, 100
1, 48400, Note_on_c, 9, 38, 0
1, 48400, Note_on_c, 9, 54, 0
1, 48410, Note_on_c, 9, 38, 0
1, 48412, Note_on_c, 3, 73, 0
1, 48420, Note_on_c, 3, 71, 100
1, 48420, Note_on_c, 9, 54, 55
1, 48438, Note_on_c, 4, 40, 0
1, 48440, Note_on_c, 9, 53, 0
1, 48450, Note_on_c, 4, 45, 100
1, 48450, Note_on_c, 9, 38, 100
1, 48453, Note_on_c, 1, 59, 0
1, 48453, Note_on_c, 1, 64, 0
1, 48453, Note_on_c, 1, 56, 0
1, 48456, Note_on_c, 0, 64, 0
1, 48460, Note_on_c, 9, 54, 0
1, 48470, Note_on_c, 9, 38, 0
1, 48472, Note_on_c, 3, 71, 0
1, 48476, Note_on_c, 4, 45, 0
1, 48478, Note_on_c, 2, 59, 0
1, 48478, Note_on_c, 2, 64, 0
1, 48478, Note_on_c, 2, 56, 0
1, 48480, Note_on_c, 1, 69, 110
1, 48480, Note_on_c, 2, 73, 100
1, 48480, Note_on_c, 2, 62, 100
1, 48480, Note_on_c, 4, 47, 100
1, 48480, Note_on_c, 2, 69, 100
1, 48480, Note_on_c, 1, 73, 110
1, 48480, Note_on_c, 9, 53, 100
1, 48480, Note_on_c, 9, 49, 100
1, 48480, Note_on_c, 9, 54, 55
1, 48480, Note_on_c, 9, 35, 100
1, 48480, Note_on_c, 1, 64, 110
1, 48480, Note_on_c, 3, 69, 100
1, 48506, Note_on_c, 1, 64, 0
1, 48510, Note_on_c, 9, 45, 100
1, 48510, Note_on_c, 1, 66, 110
1, 48520, Note_on_c, 9, 35, 0
1, 48520, Note_on_c, 9, 54, 0
1, 48530, Note_on_c, 9, 45, 0
1, 48532, Note_on_c, 3, 69, 0
1, 48540, Note_on_c, 9, 54, 55
1, 48540, Note_on_c, 3, 66, 100
1, 48560, Note_on_c, 9, 53, 0
1, 48560, Note_on_c, 9, 49, 0
1, 48566, Note_on_c, 3, 66, 0
1, 48570, Note_on_c, 9, 43, 100
1, 48570, Note_on_c, 3, 69, 100
1, 48580, Note_on_c, 9, 54, 0
1, 48590, Note_on_c, 9, 43, 0
1, 48600, Note_on_c, 9, 54, 55
1, 48600, Note_on_c, 9, 38, 100
1, 48600, Note_on_c, 9, 53, 100
1, 48614, Note_on_c, 1, 66, 0
1, 48622, Note_on_c, 3, 69, 0
1, 48630, Note_on_c, 3, 73, 100
1, 48636, Note_on_c, 1, 69, 0
1, 48636, Note_on_c, 1, 73, 0
1, 48636, Note_on_c, 4, 47, 0
1, 48640, Note_on_c, 9, 54, 0
1, 48640, Note_on_c, 9, 38, 0
1, 48656, Note_on_c, 3, 73, 0
1, 48658, Note_on_c, 2, 73, 0
1, 48658, Note_on_c, 2, 69, 0
1, 48658, Note_on_c, 2, 62, 0
1, 48660, Note_on_c, 2, 68, 100
1, 48660, Note_on_c, 9, 54, 55
1, 48660, Note_on_c, 9, 35, 100
1, 48660, Note_on_c, 4, 44, 100
1, 48660, Note_on_c, 2, 59, 100
1, 48660, Note_on_c, 3, 71, 100
1, 48660, Note_on_c, 2, 64, 100
1, 48660, Note_on_c, 1, 64, 110
1, 48660, Note_on_c, 1, 71, 110
1, 48680, Note_on_c, 9, 53, 0
1, 48700, Note_on_c, 9, 35, 0
1, 48700, Note_on_c, 9, 54, 0
1, 48720, Note_on_c, 9, 53, 100
1, 48720, Note_on_c, 9, 54, 55
1, 48760, Note_on_c, 9, 54, 0
1, 48764, Note_on_c, 4, 44, 0
1, 48778, Note_on_c, 2, 64, 0
1, 48778, Note_on_c, 2, 68, 0
1, 48778, Note_on_c, 2, 59, 0
1, 48780, Note_on_c, 4, 45, 100
1, 48780, Note_on_c, 2, 68, 100
1, 48780, Note_on_c, 9, 54, 55
1, 48780, Note_on_c, 2, 64, 100
1, 48780, Note_on_c, 9, 35, 100
1, 48780, Note_on_c, 2, 59, 100
1, 48800, Note_on_c, 9, 53, 0
1, 48810, Note_on_c, 3, 64, 100
1, 48813, Note_on_c, 3, 71, 0
1, 48816, Note_on_c, 1, 71, 0
1, 48816, Note_on_c, 1, 64, 0
1, 48820, Note_on_c, 9, 35, 0
1, 48820, Note_on_c, 9, 54, 0
1, 48836, Note_on_c, 3, 64, 0
1, 48840, Note_on_c, 9, 38, 100
1, 48840, Note_on_c, 1, 68, 110
1, 48840, Note_on_c, 3, 69, 100
1, 48840, Note_on_c, 9, 53, 100
1, 48840, Note_on_c, 9, 54, 55
1, 48866, Note_on_c, 3, 69, 0
1, 48866, Note_on_c, 1, 68, 0
1, 48870, Note_on_c, 3, 71, 100
1, 48870, Note_on_c, 1, 69, 110
1, 48880, Note_on_c, 9, 54, 0
1, 48880, Note_on_c, 9, 38, 0
1, 48896, Note_on_c, 1, 69, 0
1, 48896, Note_on_c, 3, 71, 0
1, 48900, Note_on_c, 9, 54, 55
1, 48900, Note_on_c, 3, 73, 100
1, 48900, Note_on_c, 1, 71, 110
1, 48910, Note_on_c, 4, 45, 0
1, 48920, Note_on_c, 9, 53, 0
1, 48926, Note_on_c, 3, 73, 0
1, 48930, Note_on_c, 4, 49, 100
1, 48930, Note_on_c, 3, 76, 100
1, 48940, Note_on_c, 9, 54, 0
1, 48952, Note_on_c, 1, 71, 0
1, 48956, Note_on_c, 4, 49, 0
1, 48956, Note_on_c, 3, 76, 0
1, 48958, Note_on_c, 2, 68, 0
1, 48958, Note_on_c, 2, 64, 0
1, 48958, Note_on_c, 2, 59, 0
1, 48960, Note_on_c, 3, 78, 100
1, 48960, Note_on_c, 9, 53, 100
1, 48960, Note_on_c, 4, 45, 100
1, 48960, Note_on_c, 9, 54, 55
1, 48960, Note_on_c, 2, 69, 100
1, 48960, Note_on_c, 2, 66, 100
1, 48960, Note_on_c, 9, 35, 100
1, 48960, Note_on_c, 2, 64, 100
1, 48960, Note_on_c, 1, 69, 110
1, 48960, Note_on_c, 1, 64, 110
1, 48990, Note_on_c, 9, 45, 100
1, 49000, Note_on_c, 9, 35, 0
1, 49000, Note_on_c, 9, 54, 0
1, 49010, Note_on_c, 9, 45, 0
1, 49012, Note_on_c, 3, 78, 0
1, 49020, Note_on_c, 3, 78, 100
1, 49020, Note_on_c, 9, 54, 55
1, 49040, Note_on_c, 9, 53, 0
1, 49046, Note_on_c, 3, 78, 0
1, 49050, Note_on_c, 9, 43, 100
1, 49050, Note_on_c, 3, 78, 100
1, 49060, Note_on_c, 9, 54, 0
1, 49064, Note_on_c, 1, 69, 0
1, 49064, Note_on_c, 1, 64, 0
1, 49070, Note_on_c, 9, 43, 0
1, 49080, Note_on_c, 9, 38, 100
1, 49080, Note_on_c, 9, 53, 100
1, 49080, Note_on_c, 1, 68, 110
1, 49080, Note_on_c, 9, 54, 55
1, 49102, Note_on_c, 3, 78, 0
1, 49110, Note_on_c, 3, 81, 100
1, 49116, Note_on_c, 4, 45, 0
1, 49120, Note_on_c, 9, 54, 0
1, 49120, Note_on_c, 9, 38, 0
1, 49132, Note_on_c, 1, 68, 0
1, 49136, Note_on_c, 3, 81, 0
1, 49138, Note_on_c, 2, 69, 0
1, 49138, Note_on_c, 2, 66, 0
1, 49138, Note_on_c, 2, 64, 0
1, 49140, Note_on_c, 3, 80, 100
1, 49140, Note_on_c, 2, 69, 100
1, 49140, Note_on_c, 1, 57, 110
1, 49140, Note_on_c, 9, 54, 55
1, 49140, Note_on_c, 4, 38, 100
1, 49140, Note_on_c, 9, 35, 100
1, 49140, Note_on_c, 1, 62, 110
1, 49140, Note_on_c, 2, 64, 100
1, 49140, Note_on_c, 2, 62, 100
1, 49140, Note_on_c, 1, 66, 110
1, 49160, Note_on_c, 9, 53, 0
1, 49166, Note_on_c, 3, 80, 0
1, 49170, Note_on_c, 3, 78, 100
1, 49180, Note_on_c, 9, 54, 0
1, 49180, Note_on_c, 9, 35, 0
1, 49196, Note_on_c, 3, 78, 0
1, 49200, Note_on_c, 9, 53, 100
1, 49200, Note_on_c, 9, 54, 55
1, 49200, Note_on_c, 3, 76, 100
1, 49239, Note_on_c, 3, 76, 0
1, 49240, Note_on_c, 9, 54, 0
1, 49240, Note_on_c, 3, 76, 100
1, 49244, Note_on_c, 1, 62, 0
1, 49244, Note_on_c, 1, 57, 0
1, 49244, Note_on_c, 1, 66, 0
1, 49244, Note_on_c, 4, 38, 0
1, 49258, Note_on_c, 2, 62, 0
1, 49258, Note_on_c, 2, 64, 0
1, 49258, Note_on_c, 2, 69, 0
1, 49260, Note_on_c, 1, 56, 110
1, 49260, Note_on_c, 2, 59, 100
1, 49260, Note_on_c, 2, 56, 100
1, 49260, Note_on_c, 9, 35, 100
1, 49260, Note_on_c, 9, 54, 55
1, 49260, Note_on_c, 4, 40, 100
1, 49260, Note_on_c, 1, 64, 110
1, 49260, Note_on_c, 1, 59, 110
1, 49260, Note_on_c, 2, 64, 100
1, 49280, Note_on_c, 9, 53, 0
1, 49300, Note_on_c, 9, 54, 0
1, 49300, Note_on_c, 9, 35, 0
1, 49312, Note_on_c, 4, 40, 0
1, 49318, Note_on_c, 3, 76, 0
1, 49320, Note_on_c, 9, 38, 100
1, 49320, Note_on_c, 9, 54, 55
1, 49320, Note_on_c, 4, 40, 100
1, 49320, Note_on_c, 3, 76, 100
1, 49320, Note_on_c, 9, 53, 100
1, 49346, Note_on_c, 3, 76, 0
1, 49350, Note_on_c, 3, 80, 100
1, 49360, Note_on_c, 9, 54, 0
1, 49360, Note_on_c, 9, 38, 0
1, 49364, Note_on_c, 1, 59, 0
1, 49364, Note_on_c, 1, 64, 0
1, 49364, Note_on_c, 1, 56, 0
1, 49376, Note_on_c, 3, 80, 0
1, 49380, Note_on_c, 9, 54, 55
1, 49380, Note_on_c, 3, 76, 100
1, 49380, Note_on_c, 1, 69, 110
1, 49398, Note_on_c, 4, 40, 0
1, 49400, Note_on_c, 9, 53, 0
1, 49406, Note_on_c, 1, 69, 0
1, 49410, Note_on_c, 4, 45, 100
1, 49410, Note_on_c, 1, 71, 110
1, 49420, Note_on_c, 9, 54, 0
1, 49432, Note_on_c, 3, 76, 0
1, 49436, Note_on_c, 4, 45, 0
1, 49436, Note_on_c, 1, 71, 0
1, 49438, Note_on_c, 2, 56, 0
1, 49438, Note_on_c, 2, 64, 0
1, 49438, Note_on_c, 2, 59, 0
1, 49440, Note_on_c, 4, 47, 100
1, 49440, Note_on_c, 1, 73, 110
1, 49440, Note_on_c, 1, 64, 110
1, 49440, Note_on_c, 2, 62, 100
1, 49440, Note_on_c, 2, 73, 100
1, 49440, Note_on_c, 2, 69, 100
1, 49440, Note_on_c, 9, 49, 100
1, 49440, Note_on_c, 9, 54, 55
1, 49440, Note_on_c, 9, 53, 100
1, 49440, Note_on_c, 9, 35, 100
1, 49440, Note_on_c, 1, 69, 110
1, 49470, Note_on_c, 9, 45, 100
1, 49480, Note_on_c, 9, 35, 0
1, 49480, Note_on_c, 9, 54, 0
1, 49480, Note_on_c, 3, 62, 100
1, 49490, Note_on_c, 9, 45, 0
1, 49493, Note_on_c, 3, 62, 0
1, 49500, Note_on_c, 9, 54, 55
1, 49500, Note_on_c, 3, 66, 100
1, 49520, Note_on_c, 9, 53, 0
1, 49526, Note_on_c, 3, 66, 0
1, 49530, Note_on_c, 9, 43, 100
1, 49530, Note_on_c, 3, 71, 100
1, 49540, Note_on_c, 9, 54, 0
1, 49544, Note_on_c, 1, 69, 0
1, 49544, Note_on_c, 1, 64, 0
1, 49544, Note_on_c, 1, 73, 0
1, 49550, Note_on_c, 9, 43, 0
1, 49560, Note_on_c, 1, 71, 110
1, 49560, Note_on_c, 9, 53, 100
1, 49560, Note_on_c, 9, 38, 100
1, 49560, Note_on_c, 9, 54, 55
1, 49582, Note_on_c, 3, 71, 0
1, 49586, Note_on_c, 1, 71, 0
1, 49590, Note_on_c, 3, 73, 100
1, 49590, Note_on_c, 1, 69, 110
1, 49596, Note_on_c, 4, 47, 0
1, 49600, Note_on_c, 9, 38, 0
1, 49600, Note_on_c, 9, 54, 0
1, 49600, Note_on_c, 9, 49, 0
1, 49616, Note_on_c, 3, 73, 0
1, 49616, Note_on_c, 1, 69, 0
1, 49618, Note_on_c, 2, 62, 0
1, 49618, Note_on_c, 2, 73, 0
1, 49618, Note_on_c, 2, 69, 0
1, 49620, Note_on_c, 2, 59, 100
1, 49620, Note_on_c, 2, 68, 100
1, 49620, Note_on_c, 2, 64, 100
1, 49620, Note_on_c, 1, 71, 110
1, 49620, Note_on_c, 4, 44, 100
1, 49620, Note_on_c, 3, 71, 100
1, 49620, Note_on_c, 1, 64, 110
1, 49620, Note_on_c, 9, 35, 100
1, 49620, Note_on_c, 9, 54, 55
1, 49640, Note_on_c, 9, 53, 0
1, 49646, Note_on_c, 3, 71, 0
1, 49650, Note_on_c, 3, 68, 100
1, 49660, Note_on_c, 9, 54, 0
1, 49660, Note_on_c, 9, 35, 0
1, 49680, Note_on_c, 9, 53, 100
1, 49680, Note_on_c, 9, 54, 55
1, 49720, Note_on_c, 9, 54, 0
1, 49724, Note_on_c, 4, 44, 0
1, 49728, Note_on_c, 3, 68, 0
1, 49738, Note_on_c, 2, 64, 0
1, 49738, Note_on_c, 2, 59, 0
1, 49738, Note_on_c, 2, 68, 0
1, 49740, Note_on_c, 9, 54, 55
1, 49740, Note_on_c, 2, 68, 100
1, 49740, Note_on_c, 9, 35, 100
1, 49740, Note_on_c, 4, 45, 100
1, 49740, Note_on_c, 2, 64, 100
1, 49740, Note_on_c, 2, 59, 100
1, 49740, Note_on_c, 3, 71, 100
1, 49760, Note_on_c, 9, 53, 0
1, 49770, Note_on_c, 9, 38, 100
1, 49776, Note_on_c, 1, 64, 0
1, 49776, Note_on_c, 1, 71, 0
1, 49780, Note_on_c, 9, 54, 0
1, 49780, Note_on_c, 9, 35, 0
1, 49790, Note_on_c, 9, 38, 0
1, 49792, Note_on_c, 3, 71, 0
1, 49800, Note_on_c, 9, 54, 55
1, 49800, Note_on_c, 9, 53, 100
1, 49800, Note_on_c, 9, 38, 100
1, 49800, Note_on_c, 3, 69, 100
1, 49800, Note_on_c, 1, 68, 110
1, 49826, Note_on_c, 1, 68, 0
1, 49830, Note_on_c, 9, 38, 100
1, 49830, Note_on_c, 1, 69, 110
1, 49840, Note_on_c, 9, 38, 0
1, 49840, Note_on_c, 9, 54, 0
1, 49850, Note_on_c, 9, 38, 0
1, 49852, Note_on_c, 3, 69, 0
1, 49856, Note_on_c, 1, 69, 0
1, 49860, Note_on_c, 9, 54, 55
1, 49860, Note_on_c, 3, 71, 100
1, 49860, Note_on_c, 9, 43, 100
1, 49860, Note_on_c, 1, 71, 110
1, 49870, Note_on_c, 4, 45, 0
1, 49880, Note_on_c, 9, 43, 0
1, 49880, Note_on_c, 9, 53, 0
1, 49886, Note_on_c, 3, 71, 0
1, 49890, Note_on_c, 4, 49, 100
1, 49890, Note_on_c, 3, 73, 100
1, 49900, Note_on_c, 9, 54, 0
1, 49912, Note_on_c, 1, 71, 0
1, 49916, Note_on_c, 4, 49, 0
1, 49918, Note_on_c, 2, 68, 0
1, 49918, Note_on_c, 2, 64, 0
1, 49918, Note_on_c, 2, 59, 0
1, 49920, Note_on_c, 2, 64, 100
1, 49920, Note_on_c, 2, 66, 100
1, 49920, Note_on_c, 2, 69, 100
1, 49920, Note_on_c, 9, 35, 100
1, 49920, Note_on_c, 1, 69, 110
1, 49920, Note_on_c, 9, 53, 100
1, 49920, Note_on_c, 4, 45, 100
1, 49920, Note_on_c, 9, 54, 55
1, 49920, Note_on_c, 1, 64, 110
1, 49942, Note_on_c, 3, 73, 0
1, 49950, Note_on_c, 3, 78, 100
1, 49950, Note_on_c, 9, 45, 100
1, 49960, Note_on_c, 9, 54, 0
1, 49960, Note_on_c, 9, 35, 0
1, 49970, Note_on_c, 9, 45, 0
1, 49980, Note_on_c, 9, 54, 55
1, 50000, Note_on_c, 9, 53, 0
1, 50002, Note_on_c, 3, 78, 0
1, 50010, Note_on_c, 9, 43, 100
1, 50010, Note_on_c, 3, 73, 100
1, 50020, Note_on_c, 9, 54, 0
1, 50024, Note_on_c, 1, 64, 0
1, 50024, Note_on_c, 1, 69, 0
1, 50030, Note_on_c, 9, 43, 0
1, 50036, Note_on_c, 3, 73, 0
1, 50040, Note_on_c, 9, 38, 100
1, 50040, Note_on_c, 9, 53, 100
1, 50040, Note_on_c, 9, 54, 55
1, 50040, Note_on_c, 3, 69, 100
1, 50040, Note_on_c, 1, 68, 110
1, 50066, Note_on_c, 3, 69, 0
1, 50070, Note_on_c, 3, 66, 100
1, 50076, Note_on_c, 4, 45, 0
1, 50080, Note_on_c, 9, 38, 0
1, 50080, Note_on_c, 9, 54, 0
1, 50092, Note_on_c, 1, 68, 0
1, 50096, Note_on_c, 3, 66, 0
1, 50098, Note_on_c, 2, 66, 0
1, 50098, Note_on_c, 2, 64, 0
1, 50098, Note_on_c, 2, 69, 0
1, 50100, Note_on_c, 1, 57, 110
1, 50100, Note_on_c, 2, 69, 100
1, 50100, Note_on_c, 3, 64, 100
1, 50100, Note_on_c, 4, 38, 100
1, 50100, Note_on_c, 2, 64, 100
1, 50100, Note_on_c, 9, 54, 55
1, 50100, Note_on_c, 1, 66, 110
1, 50100, Note_on_c, 2, 62, 100
1, 50100, Note_on_c, 9, 35, 100
1, 50100, Note_on_c, 1, 62, 110
1, 50120, Note_on_c, 9, 53, 0
1, 50126, Note_on_c, 3, 64, 0
1, 50130, Note_on_c, 3, 63, 100
1, 50140, Note_on_c, 9, 35, 0
1, 50140, Note_on_c, 9, 54, 0
1, 50156, Note_on_c, 3, 63, 0
1, 50160, Note_on_c, 9, 54, 55
1, 50160, Note_on_c, 9, 53, 100
1, 50160, Note_on_c, 3, 62, 100
1, 50186, Note_on_c, 3, 62, 0
1, 50190, Note_on_c, 3, 66, 100
1, 50200, Note_on_c, 9, 54, 0
1, 50204, Note_on_c, 4, 38, 0
1, 50204, Note_on_c, 1, 57, 0
1, 50204, Note_on_c, 1, 66, 0
1, 50204, Note_on_c, 1, 62, 0
1, 50216, Note_on_c, 3, 66, 0
1, 50218, Note_on_c, 2, 69, 0
1, 50218, Note_on_c, 2, 62, 0
1, 50218, Note_on_c, 2, 64, 0
1, 50220, Note_on_c, 2, 56, 100
1, 50220, Note_on_c, 2, 64, 100
1, 50220, Note_on_c, 1, 64, 110
1, 50220, Note_on_c, 1, 56, 110
1, 50220, Note_on_c, 4, 40, 100
1, 50220, Note_on_c, 2, 59, 100
1, 50220, Note_on_c, 9, 35, 100
1, 50220, Note_on_c, 3, 69, 100
1, 50220, Note_on_c, 1, 59, 110
1, 50220, Note_on_c, 9, 54, 55
1, 50240, Note_on_c, 9, 53, 0
1, 50246, Note_on_c, 3, 69, 0
1, 50250, Note_on_c, 3, 66, 100
1, 50260, Note_on_c, 9, 35, 0
1, 50260, Note_on_c, 9, 54, 0
1, 50272, Note_on_c, 4, 40, 0
1, 50276, Note_on_c, 3, 66, 0
1, 50280, Note_on_c, 9, 54, 55
1, 50280, Note_on_c, 9, 53, 100
1, 50280, Note_on_c, 3, 68, 100
1, 50280, Note_on_c, 4, 40, 100
1, 50280, Note_on_c, 9, 38, 100
1, 50320, Note_on_c, 9, 38, 0
1, 50320, Note_on_c, 9, 54, 0
1, 50332, Note_on_c, 3, 68, 0
1, 50340, Note_on_c, 9, 54, 55
1, 50340, Note_on_c, 3, 64, 100
1, 50358, Note_on_c, 4, 40, 0
1, 50360, Note_on_c, 9, 53, 0
1, 50370, Note_on_c, 4, 45, 100
1, 50373, Note_on_c, 1, 64, 0
1, 50373, Note_on_c, 1, 59, 0
1, 50373, Note_on_c, 1, 56, 0
1, 50380, Note_on_c, 9, 54, 0
1, 50392, Note_on_c, 3, 64, 0
1, 50396, Note_on_c, 4, 45, 0
1, 50398, Note_on_c, 2, 64, 0
1, 50398, Note_on_c, 2, 56, 0
1, 50398, Note_on_c, 2, 59, 0
1, 50400, Note_on_c, 1, 73, 110
1, 50400, Note_on_c, 9, 54, 55
1, 50400, Note_on_c, 2, 73, 100
1, 50400, Note_on_c, 1, 64, 110
1, 50400, Note_on_c, 9, 35, 100
1, 50400, Note_on_c, 9, 49, 100
1, 50400, Note_on_c, 2, 69, 100
1, 50400, Note_on_c, 9, 53, 100
1, 50400, Note_on_c, 2, 62, 100
1, 50400, Note_on_c, 4, 47, 100
1, 50400, Note_on_c, 1, 69, 110
1, 50426, Note_on_c, 1, 64, 0
1, 50430, Note_on_c, 1, 66, 110
1, 50430, Note_on_c, 3, 61, 100
1, 50430, Note_on_c, 9, 45, 100
1, 50440, Note_on_c, 9, 35, 0
1, 50440, Note_on_c, 9, 54, 0
1, 50450, Note_on_c, 9, 45, 0
1, 50456, Note_on_c, 3, 61, 0
1, 50460, Note_on_c, 9, 54, 55
1, 50460, Note_on_c, 3, 62, 100
1, 50480, Note_on_c, 9, 49, 0
1, 50480, Note_on_c, 9, 53, 0
1, 50490, Note_on_c, 9, 43, 100
1, 50500, Note_on_c, 9, 54, 0
1, 50510, Note_on_c, 9, 43, 0
1, 50520, Note_on_c, 9, 53, 100
1, 50520, Note_on_c, 9, 54, 55
1, 50520, Note_on_c, 9, 38, 100
1, 50534, Note_on_c, 1, 66, 0
1, 50538, Note_on_c, 3, 62, 0
1, 50550, Note_on_c, 3, 71, 100
1, 50556, Note_on_c, 4, 47, 0
1, 50556, Note_on_c, 1, 73, 0
1, 50556, Note_on_c, 1, 69, 0
1, 50560, Note_on_c, 9, 54, 0
1, 50560, Note_on_c, 9, 38, 0
1, 50576, Note_on_c, 3, 71, 0
1, 50578, Note_on_c, 2, 62, 0
1, 50578, Note_on_c, 2, 69, 0
1, 50578, Note_on_c, 2, 73, 0
1, 50580, Note_on_c, 9, 35, 100
1, 50580, Note_on_c, 2, 59, 100
1, 50580, Note_on_c, 9, 54, 55
1, 50580, Note_on_c, 1, 71, 110
1, 50580, Note_on_c, 4, 44, 100
1, 50580, Note_on_c, 2, 64, 100
1, 50580, Note_on_c, 3, 68, 100
1, 50580, Note_on_c, 2, 68, 100
1, 50580, Note_on_c, 1, 64, 110
1, 50600, Note_on_c, 9, 53, 0
1, 50620, Note_on_c, 9, 54, 0
1, 50620, Note_on_c, 9, 35, 0
1, 50640, Note_on_c, 9, 54, 55
1, 50640, Note_on_c, 9, 53, 100
1, 50658, Note_on_c, 3, 68, 0
1, 50670, Note_on_c, 3, 64, 100
1, 50680, Note_on_c, 9, 54, 0
1, 50684, Note_on_c, 4, 44, 0
1, 50696, Note_on_c, 3, 64, 0
1, 50698, Note_on_c, 2, 64, 0
1, 50698, Note_on_c, 2, 68, 0
1, 50698, Note_on_c, 2, 59, 0
1, 50700, Note_on_c, 4, 45, 100
1, 50700, Note_on_c, 9, 35, 100
1, 50700, Note_on_c, 9, 54, 55
1, 50700, Note_on_c, 2, 68, 100
1, 50700, Note_on_c, 2, 59, 100
1, 50700, Note_on_c, 3, 59, 100
1, 50700, Note_on_c, 2, 64, 100
1, 50720, Note_on_c, 9, 53, 0
1, 50726, Note_on_c, 3, 59, 0
1, 50730, Note_on_c, 3, 61, 100
1, 50736, Note_on_c, 1, 71, 0
1, 50736, Note_on_c, 1, 64, 0
1, 50740, Note_on_c, 9, 35, 0
1, 50740, Note_on_c, 9, 54, 0
1, 50760, Note_on_c, 1, 68, 110
1, 50760, Note_on_c, 9, 38, 100
1, 50760, Note_on_c, 9, 53, 100
1, 50760, Note_on_c, 9, 54, 55
1, 50786, Note_on_c, 1, 68, 0
1, 50790, Note_on_c, 1, 69, 110
1, 50800, Note_on_c, 9, 54, 0
1, 50800, Note_on_c, 9, 38, 0
1, 50808, Note_on_c, 3, 61, 0
1, 50816, Note_on_c, 1, 69, 0
1, 50820, Note_on_c, 9, 54, 55
1, 50820, Note_on_c, 1, 71, 110
1, 50820, Note_on_c, 3, 69, 100
1, 50830, Note_on_c, 4, 45, 0
1, 50840, Note_on_c, 9, 53, 0
1, 50850, Note_on_c, 4, 49, 100
1, 50860, Note_on_c, 9, 54, 0
1, 50872, Note_on_c, 3, 69, 0
1, 50872, Note_on_c, 1, 71, 0
1, 50876, Note_on_c, 4, 49, 0
1, 50878, Note_on_c, 2, 68, 0
1, 50878, Note_on_c, 2, 59, 0
1, 50878, Note_on_c, 2, 64, 0
1, 50880, Note_on_c, 2, 69, 100
1, 50880, Note_on_c, 1, 64, 110
1, 50880, Note_on_c, 2, 66, 100
1, 50880, Note_on_c, 4, 45, 100
1, 50880, Note_on_c, 1, 69, 110
1, 50880, Note_on_c, 9, 35, 100
1, 50880, Note_on_c, 2, 64, 100
1, 50880, Note_on_c, 9, 54, 55
1, 50880, Note_on_c, 9, 53, 100
1, 50910, Note_on_c, 9, 45, 100
1, 50920, Note_on_c, 9, 54, 0
1, 50920, Note_on_c, 9, 35, 0
1, 50930, Note_on_c, 9, 45, 0
1, 50940, Note_on_c, 9, 54, 55
1, 50960, Note_on_c, 9, 53, 0
1, 50970, Note_on_c, 3, 66, 100
1, 50970, Note_on_c, 9, 43, 100
1, 50980, Note_on_c, 9, 54, 0
1, 50984, Note_on_c, 1, 64, 0
1, 50984, Note_on_c, 1, 69, 0
1, 50990, Note_on_c, 9, 43, 0
1, 51000, Note_on_c, 9, 38, 100
1, 51000, Note_on_c, 1, 68, 110
1, 51000, Note_on_c, 9, 53, 100
1, 51000, Note_on_c, 9, 54, 55
1, 51000, Note_on_c, 3, 64, 100
1, 51022, Note_on_c, 3, 66, 0
1, 51036, Note_on_c, 4, 45, 0
1, 51040, Note_on_c, 9, 54, 0
1, 51040, Note_on_c, 9, 38, 0
1, 51052, Note_on_c, 3, 64, 0
1, 51052, Note_on_c, 1, 68, 0
1, 51058, Note_on_c, 2, 64, 0
1, 51058, Note_on_c, 2, 66, 0
1, 51058, Note_on_c, 2, 69, 0
1, 51060, Note_on_c, 2, 69, 100
1, 51060, Note_on_c, 1, 66, 110
1, 51060, Note_on_c, 9, 35, 100
1, 51060, Note_on_c, 9, 54, 55
1, 51060, Note_on_c, 1, 62, 110
1, 51060, Note_on_c, 3, 62, 100
1, 51060, Note_on_c, 2, 64, 100
1, 51060, Note_on_c, 2, 62, 100
1, 51060, Note_on_c, 1, 57, 110
1, 51060, Note_on_c, 4, 38, 100
1, 51080, Note_on_c, 9, 53, 0
1, 51086, Note_on_c, 3, 62, 0
1, 51090, Note_on_c, 9, 38, 100
1, 51090, Note_on_c, 3, 66, 100
1, 51100, Note_on_c, 9, 54, 0
1, 51100, Note_on_c, 9, 35, 0
1, 51116, Note_on_c, 3, 66, 0
1, 51120, Note_on_c, 3, 64, 100
1, 51120, Note_on_c, 9, 54, 55
1, 51120, Note_on_c, 9, 53, 100
1, 51130, Note_on_c, 9, 38, 0
1, 51146, Note_on_c, 3, 64, 0
1, 51150, Note_on_c, 3, 59, 100
1, 51160, Note_on_c, 9, 54, 0
1, 51164, Note_on_c, 1, 57, 0
1, 51164, Note_on_c, 4, 38, 0
1, 51164, Note_on_c, 1, 66, 0
1, 51164, Note_on_c, 1, 62, 0
1, 51176, Note_on_c, 3, 59, 0
1, 51178, Note_on_c, 2, 64, 0
1, 51178, Note_on_c, 2, 69, 0
1, 51178, Note_on_c, 2, 62, 0
1, 51180, Note_on_c, 2, 59, 100
1, 51180, Note_on_c, 9, 35, 100
1, 51180, Note_on_c, 1, 64, 110
1, 51180, Note_on_c, 1, 59, 110
1, 51180, Note_on_c, 3, 56, 100
1, 51180, Note_on_c, 2, 56, 100
1, 51180, Note_on_c, 2, 64, 100
1, 51180, Note_on_c, 1, 56, 110
1, 51180, Note_on_c, 9, 54, 55
1, 51180, Note_on_c, 4, 40, 100
1, 51200, Note_on_c, 9, 53, 0
1, 51220, Note_on_c, 9, 54, 0
1, 51220, Note_on_c, 9, 35, 0
1, 51232, Note_on_c, 4, 40, 0
1, 51232, Note_on_c, 3, 56, 0
1, 51240, Note_on_c, 9, 38, 100
1, 51240, Note_on_c, 4, 40, 100
1, 51240, Note_on_c, 9, 54, 55
1, 51240, Note_on_c, 9, 53, 100
1, 51280, Note_on_c, 9, 54, 0
1, 51280, Note_on_c, 9, 38, 0
1, 51284, Note_on_c, 1, 56, 0
1, 51284, Note_on_c, 1, 59, 0
1, 51284, Note_on_c, 1, 64, 0
1, 51300, Note_on_c, 1, 69, 110
1, 51300, Note_on_c, 9, 54, 55
1, 51300, Note_on_c, 3, 62, 100
1, 51300, Note_on_c, 9, 47, 100
1, 51318, Note_on_c, 4, 40, 0
1, 51320, Note_on_c, 9, 53, 0
1, 51326, Note_on_c, 3, 62, 0
1, 51326, Note_on_c, 1, 69, 0
1, 51330, Note_on_c, 1, 71, 110
1, 51330, Note_on_c, 3, 66, 100
1, 51330, Note_on_c, 4, 45, 100
1, 51340, Note_on_c, 9, 47, 0
1, 51340, Note_on_c, 9, 54, 0
1, 51356, Note_on_c, 4, 45, 0
1, 51356, Note_on_c, 1, 71, 0
1, 51358, Note_on_c, 2, 59, 0
1, 51358, Note_on_c, 2, 64, 0
1, 51358, Note_on_c, 2, 56, 0
1, 51360, Note_on_c, 2, 73, 100
1, 51360, Note_on_c, 9, 35, 100
1, 51360, Note_on_c, 1, 73, 110
1, 51360, Note_on_c, 2, 69, 100
1, 51360, Note_on_c, 4, 47, 100
1, 51360, Note_on_c, 1, 69, 110
1, 51360, Note_on_c, 2, 62, 100
1, 51360, Note_on_c, 9, 53, 100
1, 51360, Note_on_c, 9, 49, 100
1, 51360, Note_on_c, 9, 54, 55
1, 51360, Note_on_c, 1, 64, 110
1, 51382, Note_on_c, 3, 66, 0
1, 51390, Note_on_c, 9, 45, 100
1, 51390, Note_on_c, 3, 71, 100
1, 51400, Note_on_c, 9, 54, 0
1, 51400, Note_on_c, 9, 35, 0
1, 51410, Note_on_c, 9, 45, 0
1, 51416, Note_on_c, 3, 71, 0
1, 51420, Note_on_c, 3, 66, 100
1, 51420, Note_on_c, 9, 54, 55
1, 51440, Note_on_c, 9, 53, 0
1, 51446, Note_on_c, 3, 66, 0
1, 51450, Note_on_c, 9, 43, 100
1, 51450, Note_on_c, 3, 74, 100
1, 51460, Note_on_c, 9, 54, 0
1, 51464, Note_on_c, 1, 73, 0
1, 51464, Note_on_c, 1, 64, 0
1, 51464, Note_on_c, 1, 69, 0
1, 51470, Note_on_c, 9, 43, 0
1, 51480, Note_on_c, 9, 53, 100
1, 51480, Note_on_c, 9, 38, 100
1, 51480, Note_on_c, 9, 54, 55
1, 51480, Note_on_c, 1, 71, 110
1, 51506, Note_on_c, 1, 71, 0
1, 51510, Note_on_c, 1, 69, 110
1, 51516, Note_on_c, 4, 47, 0
1, 51520, Note_on_c, 9, 38, 0
1, 51520, Note_on_c, 9, 54, 0
1, 51520, Note_on_c, 9, 49, 0
1, 51528, Note_on_c, 3, 74, 0
1, 51536, Note_on_c, 1, 69, 0
1, 51538, Note_on_c, 2, 62, 0
1, 51538, Note_on_c, 2, 73, 0
1, 51538, Note_on_c, 2, 69, 0
1, 51540, Note_on_c, 4, 44, 100
1, 51540, Note_on_c, 1, 71, 110
1, 51540, Note_on_c, 2, 59, 100
1, 51540, Note_on_c, 3, 71, 100
1, 51540, Note_on_c, 2, 64, 100
1, 51540, Note_on_c, 9, 35, 100
1, 51540, Note_on_c, 2, 68, 100
1, 51540, Note_on_c, 1, 64, 110
1, 51540, Note_on_c, 9, 54, 55
1, 51560, Note_on_c, 9, 53, 0
1, 51566, Note_on_c, 3, 71, 0
1, 51570, Note_on_c, 3, 69, 100
1, 51580, Note_on_c, 9, 54, 0
1, 51580, Note_on_c, 9, 35, 0
1, 51596, Note_on_c, 3, 69, 0
1, 51600, Note_on_c, 9, 53, 100
1, 51600, Note_on_c, 9, 54, 55
1, 51600, Note_on_c, 3, 68, 100
1, 51626, Note_on_c, 3, 68, 0
1, 51630, Note_on_c, 3, 71, 100
1, 51640, Note_on_c, 9, 54, 0
1, 51644, Note_on_c, 4, 44, 0
1, 51656, Note_on_c, 3, 71, 0
1, 51658, Note_on_c, 2, 59, 0
1, 51658, Note_on_c, 2, 64, 0
1, 51658, Note_on_c, 2, 68, 0
1, 51660, Note_on_c, 2, 68, 100
1, 51660, Note_on_c, 2, 64, 100
1, 51660, Note_on_c, 3, 64, 100
1, 51660, Note_on_c, 9, 54, 55
1, 51660, Note_on_c, 4, 45, 100
1, 51660, Note_on_c, 2, 59, 100
1, 51680, Note_on_c, 9, 53, 0
1, 51690, Note_on_c, 9, 38, 100
1, 51696, Note_on_c, 1, 71, 0
1, 51696, Note_on_c, 1, 64, 0
1, 51700, Note_on_c, 9, 54, 0
1, 51710, Note_on_c, 9, 38, 0
1, 51712, Note_on_c, 3, 64, 0
1, 51720, Note_on_c, 9, 53, 100
1, 51720, Note_on_c, 9, 38, 100
1, 51720, Note_on_c, 1, 68, 110
1, 51720, Note_on_c, 3, 69, 100
1, 51720, Note_on_c, 9, 54, 55
1, 51746, Note_on_c, 3, 69, 0
1, 51746, Note_on_c, 1, 68, 0
1, 51750, Note_on_c, 1, 69, 110
1, 51750, Note_on_c, 3, 64, 100
1, 51760, Note_on_c, 9, 54, 0
1, 51760, Note_on_c, 9, 38, 0
1, 51776, Note_on_c, 3, 64, 0
1, 51776, Note_on_c, 1, 69, 0
1, 51780, Note_on_c, 9, 54, 55
1, 51780, Note_on_c, 9, 43, 100
1, 51780, Note_on_c, 3, 71, 100
1, 51780, Note_on_c, 1, 71, 110
1, 51790, Note_on_c, 4, 45, 0
1, 51800, Note_on_c, 9, 53, 0
1, 51800, Note_on_c, 9, 43, 0
1, 51806, Note_on_c, 3, 71, 0
1, 51810, Note_on_c, 4, 49, 100
1, 51810, Note_on_c, 3, 73, 100
1, 51820, Note_on_c, 9, 54, 0
1, 51832, Note_on_c, 1, 71, 0
1, 51836, Note_on_c, 4, 49, 0
1, 51836, Note_on_c, 3, 73, 0
1, 51838, Note_on_c, 2, 59, 0
1, 51838, Note_on_c, 2, 64, 0
1, 51838, Note_on_c, 2, 68, 0
1, 51840, Note_on_c, 9, 35, 100
1, 51840, Note_on_c, 9, 53, 100
1, 51840, Note_on_c, 9, 54, 55
1, 51840, Note_on_c, 1, 69, 110
1, 51840, Note_on_c, 1, 64, 110
1, 51840, Note_on_c, 3, 78, 100
1, 51840, Note_on_c, 2, 69, 100
1, 51840, Note_on_c, 2, 64, 100
1, 51840, Note_on_c, 4, 45, 100
1, 51840, Note_on_c, 2, 66, 100
1, 51870, Note_on_c, 9, 45, 100
1, 51880, Note_on_c, 9, 54, 0
1, 51880, Note_on_c, 9, 35, 0
1, 51890, Note_on_c, 9, 45, 0
1, 51892, Note_on_c, 3, 78, 0
1, 51900, Note_on_c, 3, 73, 100
1, 51900, Note_on_c, 9, 54, 55
1, 51920, Note_on_c, 9, 53, 0
1, 51926, Note_on_c, 3, 73, 0
1, 51930, Note_on_c, 9, 43, 100
1, 51930, Note_on_c, 3, 76, 100
1, 51940, Note_on_c, 9, 54, 0
1, 51944, Note_on_c, 1, 69, 0
1, 51944, Note_on_c, 1, 64, 0
1, 51950, Note_on_c, 9, 43, 0
1, 51960, Note_on_c, 1, 68, 110
1, 51960, Note_on_c, 9, 54, 55
1, 51960, Note_on_c, 9, 53, 100
1, 51960, Note_on_c, 9, 38, 100
1, 51982, Note_on_c, 3, 76, 0
1, 51990, Note_on_c, 3, 73, 100
1, 51996, Note_on_c, 4, 45, 0
1, 52000, Note_on_c, 9, 38, 0
1, 52000, Note_on_c, 9, 54, 0
1, 52012, Note_on_c, 1, 68, 0
1, 52016, Note_on_c, 3, 73, 0
1, 52018, Note_on_c, 2, 66, 0
1, 52018, Note_on_c, 2, 64, 0
1, 52018, Note_on_c, 2, 69, 0
1, 52020, Note_on_c, 2, 69, 100
1, 52020, Note_on_c, 1, 57, 110
1, 52020, Note_on_c, 9, 54, 55
1, 52020, Note_on_c, 2, 64, 100
1, 52020, Note_on_c, 9, 41, 100
1, 52020, Note_on_c, 1, 62, 110
1, 52020, Note_on_c, 3, 71, 100
1, 52020, Note_on_c, 9, 35, 100
1, 52020, Note_on_c, 1, 66, 110
1, 52020, Note_on_c, 2, 62, 100
1, 52020, Note_on_c, 4, 38, 100
1, 52040, Note_on_c, 9, 41, 0
1, 52040, Note_on_c, 9, 53, 0
1, 52050, Note_on_c, 9, 41, 100
1, 52060, Note_on_c, 9, 35, 0
1, 52060, Note_on_c, 9, 54, 0
1, 52070, Note_on_c, 9, 41, 0
1, 52080, Note_on_c, 9, 53, 100
1, 52080, Note_on_c, 9, 43, 100
1, 52080, Note_on_c, 9, 54, 55
1, 52100, Note_on_c, 9, 43, 0
1, 52120, Note_on_c, 9, 54, 0
1, 52124, Note_on_c, 1, 66, 0
1, 52124, Note_on_c, 3, 71, 0
1, 52124, Note_on_c, 1, 57, 0
1, 52124, Note_on_c, 1, 62, 0
1, 52124, Note_on_c, 4, 38, 0
1, 52138, Note_on_c, 2, 62, 0
1, 52138, Note_on_c, 2, 69, 0
1, 52138, Note_on_c, 2, 64, 0
1, 52140, Note_on_c, 2, 64, 100
1, 52140, Note_on_c, 9, 35, 100
1, 52140, Note_on_c, 2, 56, 100
1, 52140, Note_on_c, 3, 68, 100
1, 52140, Note_on_c, 9, 45, 100
1, 52140, Note_on_c, 9, 54, 55
1, 52140, Note_on_c, 1, 64, 110
1, 52140, Note_on_c, 1, 59, 110
1, 52140, Note_on_c, 2, 59, 100
1, 52140, Note_on_c, 4, 40, 100
1, 52140, Note_on_c, 1, 56, 110
1, 52160, Note_on_c, 9, 45, 0
1, 52160, Note_on_c, 9, 53, 0
1, 52166, Note_on_c, 3, 68, 0
1, 52170, Note_on_c, 3, 71, 100
1, 52170, Note_on_c, 9, 45, 100
1, 52180, Note_on_c, 9, 35, 0
1, 52180, Note_on_c, 9, 54, 0
1, 52190, Note_on_c, 9, 45, 0
1, 52192, Note_on_c, 4, 40, 0
1, 52196, Note_on_c, 3, 71, 0
1, 52200, Note_on_c, 3, 64, 100
1, 52200, Note_on_c, 9, 38, 100
1, 52200, Note_on_c, 9, 53, 100
1, 52200, Note_on_c, 4, 40, 100
1, 52200, Note_on_c, 9, 54, 55
1, 52226, Note_on_c, 3, 64, 0
1, 52230, Note_on_c, 3, 66, 100
1, 52240, Note_on_c, 9, 54, 0
1, 52240, Note_on_c, 9, 38, 0
1, 52256, Note_on_c, 3, 66, 0
1, 52260, Note_on_c, 9, 54, 55
1, 52260, Note_on_c, 9, 47, 100
1, 52260, Note_on_c, 3, 68, 100
1, 52278, Note_on_c, 4, 40, 0
1, 52280, Note_on_c, 9, 47, 0
1, 52280, Note_on_c, 9, 53, 0
1, 52286, Note_on_c, 3, 68, 0
1, 52290, Note_on_c, 9, 47, 100
1, 52290, Note_on_c, 4, 45, 100
1, 52290, Note_on_c, 3, 68, 100
1, 52293, Note_on_c, 1, 59, 0
1, 52293, Note_on_c, 1, 64, 0
1, 52293, Note_on_c, 1, 56, 0
1, 52300, Note_on_c, 9, 54, 0
1, 52310, Note_on_c, 9, 47, 0
1, 52316, Note_on_c, 3, 68, 0
1, 52316, Note_on_c, 4, 45, 0
1, 52318, Note_on_c, 2, 56, 0
1, 52318, Note_on_c, 2, 59, 0
1, 52318, Note_on_c, 2, 64, 0
1, 52320, Note_on_c, 1, 64, 110
1, 52320, Note_on_c, 9, 35, 100
1, 52320, Note_on_c, 1, 69, 110
1, 52320, Note_on_c, 9, 53, 100
1, 52320, Note_on_c, 1, 73, 110
1, 52320, Note_on_c, 3, 69, 100
1, 52320, Note_on_c, 2, 62, 100
1, 52320, Note_on_c, 9, 49, 100
1, 52320, Note_on_c, 9, 54, 55
1, 52320, Note_on_c, 4, 47, 100
1, 52320, Note_on_c, 2, 69, 100
1, 52320, Note_on_c, 2, 73, 100
1, 52346, Note_on_c, 1, 64, 0
1, 52350, Note_on_c, 1, 66, 110
1, 52360, Note_on_c, 9, 54, 0
1, 52360, Note_on_c, 9, 35, 0
1, 52372, Note_on_c, 3, 69, 0
1, 52380, Note_on_c, 3, 66, 100
1, 52380, Note_on_c, 9, 54, 55
1, 52400, Note_on_c, 9, 53, 0
1, 52400, Note_on_c, 9, 49, 0
1, 52406, Note_on_c, 3, 66, 0
1, 52410, Note_on_c, 3, 62, 100
1, 52420, Note_on_c, 9, 54, 0
1, 52436, Note_on_c, 3, 62, 0
1, 52440, Note_on_c, 9, 53, 100
1, 52440, Note_on_c, 9, 38, 100
1, 52440, Note_on_c, 9, 54, 55
1, 52440, Note_on_c, 3, 69, 100
1, 52454, Note_on_c, 1, 66, 0
1, 52466, Note_on_c, 3, 69, 0
1, 52470, Note_on_c, 3, 66, 100
1, 52476, Note_on_c, 4, 47, 0
1, 52476, Note_on_c, 1, 69, 0
1, 52476, Note_on_c, 1, 73, 0
1, 52480, Note_on_c, 9, 38, 0
1, 52480, Note_on_c, 9, 54, 0
1, 52496, Note_on_c, 3, 66, 0
1, 52498, Note_on_c, 2, 62, 0
1, 52498, Note_on_c, 2, 69, 0
1, 52498, Note_on_c, 2, 73, 0
1, 52500, Note_on_c, 3, 62, 100
1, 52500, Note_on_c, 1, 71, 110
1, 52500, Note_on_c, 4, 44, 100
1, 52500, Note_on_c, 9, 35, 100
1, 52500, Note_on_c, 1, 64, 110
1, 52500, Note_on_c, 2, 64, 100
1, 52500, Note_on_c, 2, 59, 100
1, 52500, Note_on_c, 2, 68, 100
1, 52500, Note_on_c, 9, 54, 55
1, 52520, Note_on_c, 9, 53, 0
1, 52526, Note_on_c, 3, 62, 0
1, 52530, Note_on_c, 3, 68, 100
1, 52540, Note_on_c, 9, 35, 0
1, 52540, Note_on_c, 9, 54, 0
1, 52560, Note_on_c, 9, 53, 100
1, 52560, Note_on_c, 9, 54, 55
1, 52600, Note_on_c, 9, 54, 0
1, 52604, Note_on_c, 4, 44, 0
1, 52608, Note_on_c, 3, 68, 0
1, 52618, Note_on_c, 2, 59, 0
1, 52618, Note_on_c, 2, 68, 0
1, 52618, Note_on_c, 2, 64, 0
1, 52620, Note_on_c, 4, 45, 100
1, 52620, Note_on_c, 2, 68, 100
1, 52620, Note_on_c, 9, 54, 55
1, 52620, Note_on_c, 2, 64, 100
1, 52620, Note_on_c, 9, 35, 100
1, 52620, Note_on_c, 2, 59, 100
1, 52620, Note_on_c, 3, 64, 100
1, 52640, Note_on_c, 9, 53, 0
1, 52646, Note_on_c, 3, 64, 0
1, 52650, Note_on_c, 3, 59, 100
1, 52656, Note_on_c, 1, 71, 0
1, 52656, Note_on_c, 1, 64, 0
1, 52660, Note_on_c, 9, 35, 0
1, 52660, Note_on_c, 9, 54, 0
1, 52676, Note_on_c, 3, 59, 0
1, 52680, Note_on_c, 1, 68, 110
1, 52680, Note_on_c, 9, 38, 100
1, 52680, Note_on_c, 9, 53, 100
1, 52680, Note_on_c, 9, 54, 55
1, 52680, Note_on_c, 3, 64, 100
1, 52706, Note_on_c, 1, 68, 0
1, 52710, Note_on_c, 1, 69, 110
1, 52720, Note_on_c, 9, 54, 0
1, 52720, Note_on_c, 9, 38, 0
1, 52732, Note_on_c, 3, 64, 0
1, 52736, Note_on_c, 1, 69, 0
1, 52740, Note_on_c, 3, 59, 100
1, 52740, Note_on_c, 1, 71, 110
1, 52740, Note_on_c, 9, 54, 55
1, 52750, Note_on_c, 4, 45, 0
1, 52760, Note_on_c, 9, 53, 0
1, 52770, Note_on_c, 4, 49, 100
1, 52780, Note_on_c, 9, 54, 0
1, 52792, Note_on_c, 3, 59, 0
1, 52792, Note_on_c, 1, 71, 0
1, 52796, Note_on_c, 4, 49, 0
1, 52798, Note_on_c, 2, 59, 0
1, 52798, Note_on_c, 2, 68, 0
1, 52798, Note_on_c, 2, 64, 0
1, 52800, Note_on_c, 1, 64, 110
1, 52800, Note_on_c, 9, 54, 55
1, 52800, Note_on_c, 1, 69, 110
1, 52800, Note_on_c, 2, 64, 100
1, 52800, Note_on_c, 9, 53, 100
1, 52800, Note_on_c, 2, 66, 100
1, 52800, Note_on_c, 4, 45, 100
1, 52800, Note_on_c, 2, 69, 100
1, 52800, Note_on_c, 9, 35, 100
1, 52840, Note_on_c, 9, 35, 0
1, 52840, Note_on_c, 9, 54, 0
1, 52840, Note_on_c, 3, 54, 100
1, 52860, Note_on_c, 9, 54, 55
1, 52874, Note_on_c, 3, 54, 0
1, 52880, Note_on_c, 9, 53, 0
1, 52880, Note_on_c, 3, 56, 100
1, 52900, Note_on_c, 9, 54, 0
1, 52904, Note_on_c, 1, 64, 0
1, 52904, Note_on_c, 1, 69, 0
1, 52914, Note_on_c, 3, 56, 0
1, 52920, Note_on_c, 9, 38, 100
1, 52920, Note_on_c, 9, 53, 100
1, 52920, Note_on_c, 3, 57, 100
1, 52920, Note_on_c, 1, 68, 110
1, 52920, Note_on_c, 9, 54, 55
1, 52946, Note_on_c, 3, 57, 0
1, 52950, Note_on_c, 3, 59, 100
1, 52956, Note_on_c, 4, 45, 0
1, 52960, Note_on_c, 9, 54, 0
1, 52960, Note_on_c, 9, 38, 0
1, 52972, Note_on_c, 1, 68, 0
1, 52976, Note_on_c, 3, 59, 0
1, 52978, Note_on_c, 2, 66, 0
1, 52978, Note_on_c, 2, 69, 0
1, 52978, Note_on_c, 2, 64, 0
1, 52980, Note_on_c, 1, 57, 110
1, 52980, Note_on_c, 9, 54, 55
1, 52980, Note_on_c, 4, 38, 100
1, 52980, Note_on_c, 1, 62, 110
1, 52980, Note_on_c, 3, 56, 100
1, 52980, Note_on_c, 9, 35, 100
1, 52980, Note_on_c, 1, 66, 110
1, 52980, Note_on_c, 2, 64, 100
1, 52980, Note_on_c, 2, 69, 100
1, 52980, Note_on_c, 2, 62, 100
1, 53000, Note_on_c, 9, 53, 0
1, 53006, Note_on_c, 3, 56, 0
1, 53010, Note_on_c, 3, 59, 100
1, 53020, Note_on_c, 9, 54, 0
1, 53020, Note_on_c, 9, 35, 0
1, 53036, Note_on_c, 3, 59, 0
1, 53040, Note_on_c, 9, 54, 55
1, 53040, Note_on_c, 3, 54, 100
1, 53040, Note_on_c, 9, 53, 100
1, 53080, Note_on_c, 9, 54, 0
1, 53084, Note_on_c, 1, 62, 0
1, 53084, Note_on_c, 1, 57, 0
1, 53084, Note_on_c, 1, 66, 0
1, 53084, Note_on_c, 4, 38, 0
1, 53092, Note_on_c, 3, 54, 0
1, 53098, Note_on_c, 2, 62, 0
1, 53098, Note_on_c, 2, 64, 0
1, 53098, Note_on_c, 2, 69, 0
1, 53100, Note_on_c, 9, 35, 100
1, 53100, Note_on_c, 1, 64, 110
1, 53100, Note_on_c, 9, 54, 55
1, 53100, Note_on_c, 1, 59, 110
1, 53100, Note_on_c, 4, 40, 100
1, 53100, Note_on_c, 3, 57, 100
1, 53100, Note_on_c, 1, 56, 110
1, 53100, Note_on_c, 2, 59, 100
1, 53100, Note_on_c, 2, 64, 100
1, 53100, Note_on_c, 2, 56, 100
1, 53120, Note_on_c, 9, 53, 0
1, 53126, Note_on_c, 3, 57, 0
1, 53130, Note_on_c, 3, 52, 100
1, 53140, Note_on_c, 9, 54, 0
1, 53140, Note_on_c, 9, 35, 0
1, 53152, Note_on_c, 4, 40, 0
1, 53156, Note_on_c, 3, 52, 0
1, 53160, Note_on_c, 9, 53, 100
1, 53160, Note_on_c, 9, 38, 100
1, 53160, Note_on_c, 3, 52, 100
1, 53160, Note_on_c, 9, 54, 55
1, 53160, Note_on_c, 4, 40, 100
1, 53200, Note_on_c, 9, 54, 0
1, 53200, Note_on_c, 9, 38, 0
1, 53204, Note_on_c, 1, 59, 0
1, 53204, Note_on_c, 1, 56, 0
1, 53204, Note_on_c, 1, 64, 0
1, 53220, Note_on_c, 1, 69, 110
1, 53220, Note_on_c, 9, 54, 55
1, 53238, Note_on_c, 4, 40, 0
1, 53240, Note_on_c, 9, 53, 0
1, 53246, Note_on_c, 1, 69, 0
1, 53250, Note_on_c, 1, 71, 110
1, 53250, Note_on_c, 4, 45, 100
1, 53260, Note_on_c, 9, 54, 0
1, 53264, Note_on_c, 3, 52, 0
1, 53276, Note_on_c, 1, 71, 0
1, 53276, Note_on_c, 4, 45, 0
1, 53278, Tempo, 625000
1, 53278, Note_on_c, 2, 59, 0
1, 53278, Note_on_c, 2, 56, 0
1, 53278, Note_on_c, 2, 64, 0
1, 53280, Note_on_c, 9, 53, 100
1, 53280, Note_on_c, 1, 69, 110
1, 53280, Note_on_c, 9, 35, 100
1, 53280, Note_on_c, 1, 73, 110
1, 53280, Note_on_c, 9, 54, 55
1, 53280, Note_on_c, 1, 64, 110
1, 53280, Note_on_c, 4, 47, 100
1, 53280, Note_on_c, 2, 73, 100
1, 53280, Note_on_c, 2, 69, 100
1, 53280, Note_on_c, 2, 62, 100
1, 53310, Note_on_c, 3, 59, 100
1, 53320, Note_on_c, 9, 54, 0
1, 53320, Note_on_c, 9, 35, 0
1, 53336, Note_on_c, 3, 59, 0
1, 53340, Note_on_c, 3, 64, 100
1, 53340, Note_on_c, 9, 54, 55
1, 53360, Note_on_c, 9, 53, 0
1, 53366, Note_on_c, 3, 64, 0
1, 53370, Note_on_c, 3, 62, 100
1, 53380, Note_on_c, 9, 54, 0
1, 53384, Note_on_c, 1, 69, 0
1, 53384, Note_on_c, 1, 73, 0
1, 53384, Note_on_c, 1, 64, 0
1, 53400, Note_on_c, 9, 54, 55
1, 53400, Note_on_c, 1, 71, 110
1, 53400, Note_on_c, 9, 38, 100
1, 53400, Note_on_c, 9, 53, 100
1, 53422, Note_on_c, 3, 62, 0
1, 53426, Note_on_c, 1, 71, 0
1, 53430, Note_on_c, 1, 69, 110
1, 53430, Note_on_c, 3, 54, 100
1, 53436, Note_on_c, 4, 47, 0
1, 53440, Note_on_c, 9, 38, 0
1, 53440, Note_on_c, 9, 54, 0
1, 53456, Note_on_c, 1, 69, 0
1, 53456, Note_on_c, 3, 54, 0
1, 53458, Note_on_c, 2, 62, 0
1, 53458, Note_on_c, 2, 73, 0
1, 53458, Note_on_c, 2, 69, 0
1, 53460, Note_on_c, 1, 71, 110
1, 53460, Note_on_c, 2, 64, 100
1, 53460, Note_on_c, 9, 35, 100
1, 53460, Note_on_c, 3, 59, 100
1, 53460, Note_on_c, 2, 59, 100
1, 53460, Note_on_c, 9, 54, 55
1, 53460, Note_on_c, 4, 44, 100
1, 53460, Note_on_c, 1, 64, 110
1, 53460, Note_on_c, 2, 68, 100
1, 53480, Note_on_c, 9, 53, 0
1, 53486, Note_on_c, 3, 59, 0
1, 53490, Note_on_c, 3, 56, 100
1, 53500, Note_on_c, 9, 35, 0
1, 53500, Note_on_c, 9, 54, 0
1, 53520, Note_on_c, 9, 54, 55
1, 53520, Note_on_c, 9, 53, 100
1, 53542, Note_on_c, 3, 56, 0
1, 53550, Note_on_c, 3, 59, 100
1, 53560, Note_on_c, 9, 54, 0
1, 53564, Note_on_c, 4, 44, 0
1, 53576, Note_on_c, 3, 59, 0
1, 53578, Note_on_c, 2, 59, 0
1, 53578, Note_on_c, 2, 68, 0
1, 53578, Note_on_c, 2, 64, 0
1, 53580, Note_on_c, 2, 68, 100
1, 53580, Note_on_c, 9, 35, 100
1, 53580, Note_on_c, 9, 54, 55
1, 53580, Note_on_c, 3, 64, 100
1, 53580, Note_on_c, 4, 45, 100
1, 53580, Note_on_c, 2, 59, 100
1, 53580, Note_on_c, 2, 64, 100
1, 53600, Note_on_c, 9, 53, 0
1, 53606, Note_on_c, 3, 64, 0
1, 53610, Note_on_c, 3, 57, 100
1, 53616, Note_on_c, 1, 64, 0
1, 53616, Note_on_c, 1, 71, 0
1, 53620, Note_on_c, 9, 35, 0
1, 53620, Note_on_c, 9, 54, 0
1, 53636, Note_on_c, 3, 57, 0
1, 53640, Note_on_c, 9, 38, 100
1, 53640, Note_on_c, 1, 68, 110
1, 53640, Note_on_c, 9, 53, 100
1, 53640, Note_on_c, 9, 54, 55
1, 53640, Note_on_c, 3, 61, 100
1, 53666, Note_on_c, 3, 61, 0
1, 53666, Note_on_c, 1, 68, 0
1, 53670, Note_on_c, 3, 64, 100
1, 53670, Note_on_c, 1, 69, 110
1, 53680, Note_on_c, 9, 54, 0
1, 53680, Note_on_c, 9, 38, 0
1, 53696, Note_on_c, 1, 69, 0
1, 53696, Note_on_c, 3, 64, 0
1, 53700, Note_on_c, 3, 61, 100
1, 53700, Note_on_c, 1, 71, 110
1, 53700, Note_on_c, 9, 54, 55
1, 53710, Note_on_c, 4, 45, 0
1, 53720, Note_on_c, 9, 53, 0
1, 53730, Note_on_c, 4, 49, 100
1, 53740, Note_on_c, 9, 54, 0
1, 53752, Note_on_c, 3, 61, 0
1, 53752, Note_on_c, 1, 71, 0
1, 53756, Note_on_c, 4, 49, 0
1, 53758, Note_on_c, 2, 68, 0
1, 53758, Note_on_c, 2, 59, 0
1, 53758, Note_on_c, 2, 64, 0
1, 53760, Note_on_c, 1, 69, 110
1, 53760, Note_on_c, 9, 53, 100
1, 53760, Note_on_c, 1, 64, 110
1, 53760, Note_on_c, 2, 69, 100
1, 53760, Note_on_c, 2, 66, 100
1, 53760, Note_on_c, 2, 64, 100
1, 53760, Note_on_c, 9, 35, 100
1, 53760, Note_on_c, 4, 45, 100
1, 53760, Note_on_c, 3, 66, 100
1, 53760, Note_on_c, 9, 54, 55
1, 53786, Note_on_c, 3, 66, 0
1, 53790, Note_on_c, 3, 69, 100
1, 53800, Note_on_c, 9, 54, 0
1, 53800, Note_on_c, 9, 35, 0
1, 53816, Note_on_c, 3, 69, 0
1, 53820, Note_on_c, 3, 57, 100
1, 53820, Note_on_c, 9, 54, 55
1, 53840, Note_on_c, 9, 53, 0
1, 53860, Note_on_c, 9, 54, 0
1, 53864, Note_on_c, 1, 69, 0
1, 53864, Note_on_c, 1, 64, 0
1, 53880, Note_on_c, 9, 38, 100
1, 53880, Note_on_c, 9, 53, 100
1, 53880, Note_on_c, 9, 54, 55
1, 53880, Note_on_c, 1, 68, 110
1, 53916, Note_on_c, 4, 45, 0
1, 53920, Note_on_c, 9, 54, 0
1, 53920, Note_on_c, 9, 38, 0
1, 53924, Note_on_c, 3, 57, 0
1, 53932, Note_on_c, 1, 68, 0
1, 53938, Note_on_c, 2, 66, 0
1, 53938, Note_on_c, 2, 69, 0
1, 53938, Note_on_c, 2, 64, 0
1, 53940, Note_on_c, 9, 54, 55
1, 53940, Note_on_c, 2, 64, 100
1, 53940, Note_on_c, 3, 66, 100
1, 53940, Note_on_c, 9, 35, 100
1, 53940, Note_on_c, 4, 38, 100
1, 53940, Note_on_c, 2, 69, 100
1, 53940, Note_on_c, 1, 66, 110
1, 53940, Note_on_c, 1, 62, 110
1, 53940, Note_on_c, 1, 57, 110
1, 53940, Note_on_c, 2, 62, 100
1, 53960, Note_on_c, 9, 53, 0
1, 53966, Note_on_c, 3, 66, 0
1, 53970, Note_on_c, 3, 69, 100
1, 53980, Note_on_c, 9, 54, 0
1, 53980, Note_on_c, 9, 35, 0
1, 53996, Note_on_c, 3, 69, 0
1, 54000, Note_on_c, 9, 54, 55
1, 54000, Note_on_c, 9, 53, 100
1, 54000, Note_on_c, 3, 74, 100
1, 54026, Note_on_c, 3, 74, 0
1, 54030, Note_on_c, 3, 76, 100
1, 54040, Note_on_c, 9, 54, 0
1, 54044, Note_on_c, 1, 57, 0
1, 54044, Note_on_c, 1, 66, 0
1, 54044, Note_on_c, 1, 62, 0
1, 54044, Note_on_c, 4, 38, 0
1, 54056, Note_on_c, 3, 76, 0
1, 54058, Note_on_c, 2, 64, 0
1, 54058, Note_on_c, 2, 62, 0
1, 54058, Note_on_c, 2, 69, 0
1, 54060, Note_on_c, 9, 35, 100
1, 54060, Note_on_c, 9, 38, 100
1, 54060, Note_on_c, 9, 54, 55
1, 54060, Note_on_c, 2, 59, 100
1, 54060, Note_on_c, 3, 78, 100
1, 54060, Note_on_c, 1, 64, 110
1, 54060, Note_on_c, 1, 59, 110
1, 54060, Note_on_c, 4, 40, 100
1, 54060, Note_on_c, 2, 56, 100
1, 54060, Note_on_c, 2, 64, 100
1, 54060, Note_on_c, 1, 56, 110
1, 54080, Note_on_c, 9, 38, 0
1, 54080, Note_on_c, 9, 53, 0
1, 54086, Note_on_c, 3, 78, 0
1, 54090, Note_on_c, 3, 76, 100
1, 54100, Note_on_c, 9, 54, 0
1, 54100, Note_on_c, 9, 35, 0
1, 54112, Note_on_c, 4, 40, 0
1, 54120, Note_on_c, 9, 38, 100
1, 54120, Note_on_c, 4, 40, 100
1, 54120, Note_on_c, 9, 53, 100
1, 54120, Note_on_c, 9, 54, 55
1, 54142, Note_on_c, 3, 76, 0
1, 54150, Note_on_c, 3, 71, 100
1, 54150, Note_on_c, 9, 38, 100
1, 54160, Note_on_c, 9, 38, 0
1, 54160, Note_on_c, 9, 54, 0
1, 54170, Note_on_c, 9, 38, 0
1, 54176, Note_on_c, 3, 71, 0
1, 54180, Note_on_c, 9, 54, 55
1, 54180, Note_on_c, 3, 68, 100
1, 54180, Note_on_c, 9, 38, 100
1, 54198, Note_on_c, 4, 40, 0
1, 54200, Note_on_c, 9, 38, 0
1, 54200, Note_on_c, 9, 53, 0
1, 54206, Note_on_c, 3, 68, 0
1, 54210, Note_on_c, 3, 64, 100
1, 54210, Note_on_c, 4, 45, 100
1, 54213, Note_on_c, 1, 59, 0
1, 54213, Note_on_c, 1, 56, 0
1, 54213, Note_on_c, 1, 64, 0
1, 54220, Note_on_c, 9, 54, 0
1, 54236, Note_on_c, 4, 45, 0
1, 54236, Note_on_c, 3, 64, 0
1, 54238, Note_on_c, 2, 64, 0
1, 54238, Note_on_c, 2, 59, 0
1, 54238, Note_on_c, 2, 56, 0
1, 54240, Note_on_c, 1, 73, 110
1, 54240, Note_on_c, 2, 73, 100
1, 54240, Note_on_c, 1, 69, 110
1, 54240, Note_on_c, 2, 69, 100
1, 54240, Note_on_c, 2, 62, 100
1, 54240, Note_on_c, 9, 35, 100
1, 54240, Note_on_c, 4, 47, 100
1, 54240, Note_on_c, 9, 54, 55
1, 54240, Note_on_c, 3, 69, 100
1, 54240, Note_on_c, 1, 64, 110
1, 54240, Note_on_c, 9, 49, 100
1, 54240, Note_on_c, 9, 53, 100
1, 54266, Note_on_c, 1, 64, 0
1, 54270, Note_on_c, 1, 66, 110
1, 54280, Note_on_c, 9, 54, 0
1, 54280, Note_on_c, 9, 35, 0
1, 54292, Note_on_c, 3, 69, 0
1, 54300, Note_on_c, 3, 71, 100
1, 54300, Note_on_c, 9, 54, 55
1, 54320, Note_on_c, 9, 49, 0
1, 54320, Note_on_c, 9, 53, 0
1, 54340, Note_on_c, 9, 54, 0
1, 54352, Note_on_c, 3, 71, 0
1, 54360, Note_on_c, 9, 53, 100
1, 54360, Note_on_c, 9, 54, 55
1, 54360, Note_on_c, 3, 74, 100
1, 54360, Note_on_c, 9, 38, 100
1, 54374, Note_on_c, 1, 66, 0
1, 54396, Note_on_c, 1, 73, 0
1, 54396, Note_on_c, 4, 47, 0
1, 54396, Note_on_c, 1, 69, 0
1, 54400, Note_on_c, 9, 54, 0
1, 54400, Note_on_c, 9, 38, 0
1, 54412, Note_on_c, 3, 74, 0
1, 54418, Note_on_c, 2, 73, 0
1, 54418, Note_on_c, 2, 62, 0
1, 54418, Note_on_c, 2, 69, 0
1, 54420, Note_on_c, 2, 64, 100
1, 54420, Note_on_c, 4, 44, 100
1, 54420, Note_on_c, 2, 59, 100
1, 54420, Note_on_c, 1, 64, 110
1, 54420, Note_on_c, 3, 78, 100
1, 54420, Note_on_c, 1, 71, 110
1, 54420, Note_on_c, 9, 35, 100
1, 54420, Note_on_c, 2, 68, 100
1, 54420, Note_on_c, 9, 54, 55
1, 54440, Note_on_c, 9, 53, 0
1, 54460, Note_on_c, 9, 54, 0
1, 54460, Note_on_c, 9, 35, 0
1, 54472, Note_on_c, 3, 78, 0
1, 54480, Note_on_c, 3, 81, 100
1, 54480, Note_on_c, 9, 53, 100
1, 54480, Note_on_c, 9, 54, 55
1, 54520, Note_on_c, 9, 54, 0
1, 54524, Note_on_c, 4, 44, 0
1, 54532, Note_on_c, 3, 81, 0
1, 54538, Note_on_c, 2, 68, 0
1, 54538, Note_on_c, 2, 59, 0
1, 54538, Note_on_c, 2, 64, 0
1, 54540, Note_on_c, 2, 68, 100
1, 54540, Note_on_c, 3, 80, 100
1, 54540, Note_on_c, 9, 54, 55
1, 54540, Note_on_c, 9, 35, 100
1, 54540, Note_on_c, 4, 45, 100
1, 54540, Note_on_c, 2, 64, 100
1, 54540, Note_on_c, 2, 59, 100
1, 54560, Note_on_c, 9, 53, 0
1, 54566, Note_on_c, 3, 80, 0
1, 54570, Note_on_c, 3, 76, 100
1, 54576, Note_on_c, 1, 71, 0
1, 54576, Note_on_c, 1, 64, 0
1, 54580, Note_on_c, 9, 54, 0
1, 54580, Note_on_c, 9, 35, 0
1, 54600, Note_on_c, 1, 68, 110
1, 54600, Note_on_c, 9, 53, 100
1, 54600, Note_on_c, 9, 54, 55
1, 54600, Note_on_c, 9, 38, 100
1, 54626, Note_on_c, 1, 68, 0
1, 54630, Note_on_c, 1, 69, 110
1, 54640, Note_on_c, 9, 38, 0
1, 54640, Note_on_c, 9, 54, 0
1, 54656, Note_on_c, 1, 69, 0
1, 54660, Note_on_c, 9, 54, 55
1, 54660, Note_on_c, 1, 71, 110
1, 54670, Note_on_c, 4, 45, 0
1, 54674, Note_on_c, 3, 76, 0
1, 54680, Note_on_c, 9, 53, 0
1, 54690, Note_on_c, 3, 73, 100
1, 54690, Note_on_c, 4, 49, 100
1, 54700, Note_on_c, 9, 54, 0
1, 54712, Note_on_c, 1, 71, 0
1, 54716, Note_on_c, 3, 73, 0
1, 54716, Note_on_c, 4, 49, 0
1, 54718, Note_on_c, 2, 64, 0
1, 54718, Note_on_c, 2, 59, 0
1, 54718, Note_on_c, 2, 68, 0
1, 54720, Note_on_c, 9, 53, 100
1, 54720, Note_on_c, 4, 45, 100
1, 54720, Note_on_c, 2, 69, 100
1, 54720, Note_on_c, 1, 69, 110
1, 54720, Note_on_c, 2, 64, 100
1, 54720, Note_on_c, 9, 54, 55
1, 54720, Note_on_c, 2, 66, 100
1, 54720, Note_on_c, 3, 76, 100
1, 54720, Note_on_c, 9, 35, 100
1, 54720, Note_on_c, 1, 64, 110
1, 54746, Note_on_c, 3, 76, 0
1, 54750, Note_on_c, 3, 73, 100
1, 54760, Note_on_c, 9, 35, 0
1, 54760, Note_on_c, 9, 54, 0
1, 54776, Note_on_c, 3, 73, 0
1, 54780, Note_on_c, 3, 78, 100
1, 54780, Note_on_c, 9, 54, 55
1, 54800, Note_on_c, 9, 53, 0
1, 54820, Note_on_c, 9, 54, 0
1, 54824, Note_on_c, 1, 69, 0
1, 54824, Note_on_c, 1, 64, 0
1, 54832, Note_on_c, 3, 78, 0
1, 54840, Note_on_c, 9, 38, 100
1, 54840, Note_on_c, 9, 54, 55
1, 54840, Note_on_c, 9, 53, 100
1, 54840, Note_on_c, 3, 76, 100
1, 54840, Note_on_c, 1, 68, 110
1, 54876, Note_on_c, 4, 45, 0
1, 54880, Note_on_c, 9, 38, 0
1, 54880, Note_on_c, 9, 54, 0
1, 54892, Note_on_c, 3, 76, 0
1, 54892, Note_on_c, 1, 68, 0
1, 54898, Note_on_c, 2, 69, 0
1, 54898, Note_on_c, 2, 64, 0
1, 54898, Note_on_c, 2, 66, 0
1, 54900, Note_on_c, 2, 62, 100
1, 54900, Note_on_c, 9, 54, 55
1, 54900, Note_on_c, 4, 38, 100
1, 54900, Note_on_c, 3, 73, 100
1, 54900, Note_on_c, 2, 69, 100
1, 54900, Note_on_c, 2, 64, 100
1, 54900, Note_on_c, 1, 66, 110
1, 54900, Note_on_c, 9, 35, 100
1, 54900, Note_on_c, 1, 62, 110
1, 54900, Note_on_c, 1, 57, 110
1, 54920, Note_on_c, 9, 53, 0
1, 54940, Note_on_c, 9, 35, 0
1, 54940, Note_on_c, 9, 54, 0
1, 54952, Note_on_c, 3, 73, 0
1, 54960, Note_on_c, 9, 53, 100
1, 54960, Note_on_c, 9, 54, 55
1, 54960, Note_on_c, 3, 71, 100
1, 54986, Note_on_c, 3, 71, 0
1, 54990, Note_on_c, 3, 69, 100
1, 55000, Note_on_c, 9, 54, 0
1, 55004, Note_on_c, 1, 57, 0
1, 55004, Note_on_c, 1, 62, 0
1, 55004, Note_on_c, 1, 66, 0
1, 55004, Note_on_c, 4, 38, 0
1, 55016, Note_on_c, 3, 69, 0
1, 55018, Note_on_c, 2, 62, 0
1, 55018, Note_on_c, 2, 69, 0
1, 55018, Note_on_c, 2, 64, 0
1, 55020, Note_on_c, 1, 56, 110
1, 55020, Note_on_c, 1, 59, 110
1, 55020, Note_on_c, 2, 59, 100
1, 55020, Note_on_c, 2, 56, 100
1, 55020, Note_on_c, 9, 54, 55
1, 55020, Note_on_c, 9, 35, 100
1, 55020, Note_on_c, 2, 64, 100
1, 55020, Note_on_c, 3, 66, 100
1, 55020, Note_on_c, 4, 40, 100
1, 55020, Note_on_c, 1, 64, 110
1, 55040, Note_on_c, 9, 53, 0
1, 55046, Note_on_c, 3, 66, 0
1, 55050, Note_on_c, 3, 69, 100
1, 55060, Note_on_c, 9, 35, 0
1, 55060, Note_on_c, 9, 54, 0
1, 55072, Note_on_c, 4, 40, 0
1, 55076, Note_on_c, 3, 69, 0
1, 55080, Note_on_c, 9, 53, 100
1, 55080, Note_on_c, 3, 68, 100
1, 55080, Note_on_c, 4, 40, 100
1, 55080, Note_on_c, 9, 54, 55
1, 55080, Note_on_c, 9, 38, 100
1, 55106, Note_on_c, 3, 68, 0
1, 55110, Note_on_c, 3, 66, 100
1, 55120, Note_on_c, 9, 38, 0
1, 55120, Note_on_c, 9, 54, 0
1, 55124, Note_on_c, 1, 56, 0
1, 55124, Note_on_c, 1, 64, 0
1, 55124, Note_on_c, 1, 59, 0
1, 55136, Note_on_c, 3, 66, 0
1, 55140, Note_on_c, 3, 64, 100
1, 55140, Note_on_c, 9, 54, 55
1, 55140, Note_on_c, 1, 69, 110
1, 55158, Note_on_c, 4, 40, 0
1, 55160, Note_on_c, 9, 53, 0
1, 55166, Note_on_c, 1, 69, 0
1, 55166, Note_on_c, 3, 64, 0
1, 55170, Note_on_c, 4, 45, 100
1, 55170, Note_on_c, 1, 71, 110
1, 55170, Note_on_c, 3, 63, 100
1, 55180, Note_on_c, 9, 54, 0
1, 55196, Note_on_c, 1, 71, 0
1, 55196, Note_on_c, 4, 45, 0
1, 55196, Note_on_c, 3, 63, 0
1, 55198, Note_on_c, 2, 56, 0
1, 55198, Note_on_c, 2, 64, 0
1, 55198, Note_on_c, 2, 59, 0
1, 55200, Note_on_c, 2, 62, 100
1, 55200, Note_on_c, 2, 69, 100
1, 55200, Note_on_c, 4, 47, 100
1, 55200, Note_on_c, 1, 69, 110
1, 55200, Note_on_c, 1, 73, 110
1, 55200, Note_on_c, 2, 73, 100
1, 55200, Note_on_c, 3, 62, 100
1, 55200, Note_on_c, 9, 35, 100
1, 55200, Note_on_c, 9, 54, 55
1, 55200, Note_on_c, 9, 53, 100
1, 55200, Note_on_c, 1, 64, 110
1, 55240, Note_on_c, 9, 54, 0
1, 55240, Note_on_c, 9, 35, 0
1, 55252, Note_on_c, 3, 62, 0
1, 55260, Note_on_c, 9, 54, 55
1, 55260, Note_on_c, 3, 73, 100
1, 55280, Note_on_c, 9, 53, 0
1, 55286, Note_on_c, 3, 73, 0
1, 55290, Note_on_c, 3, 71, 100
1, 55300, Note_on_c, 9, 54, 0
1, 55304, Note_on_c, 1, 64, 0
1, 55304, Note_on_c, 1, 69, 0
1, 55304, Note_on_c, 1, 73, 0
1, 55320, Note_on_c, 9, 53, 100
1, 55320, Note_on_c, 9, 38, 100
1, 55320, Note_on_c, 9, 54, 55
1, 55320, Note_on_c, 1, 71, 110
1, 55342, Note_on_c, 3, 71, 0
1, 55346, Note_on_c, 1, 71, 0
1, 55350, Note_on_c, 1, 69, 110
1, 55350, Note_on_c, 3, 68, 100
1, 55356, Note_on_c, 4, 47, 0
1, 55360, Note_on_c, 9, 54, 0
1, 55360, Note_on_c, 9, 38, 0
1, 55376, Note_on_c, 1, 69, 0
1, 55378, Note_on_c, 2, 62, 0
1, 55378, Note_on_c, 2, 69, 0
1, 55378, Note_on_c, 2, 73, 0
1, 55380, Note_on_c, 4, 44, 100
1, 55380, Note_on_c, 9, 54, 55
1, 55380, Note_on_c, 2, 64, 100
1, 55380, Note_on_c, 1, 71, 110
1, 55380, Note_on_c, 2, 59, 100
1, 55380, Note_on_c, 9, 35, 100
1, 55380, Note_on_c, 2, 68, 100
1, 55380, Note_on_c, 1, 64, 110
1, 55400, Note_on_c, 9, 53, 0
1, 55402, Note_on_c, 3, 68, 0
1, 55410, Note_on_c, 3, 71, 100
1, 55420, Note_on_c, 9, 35, 0
1, 55420, Note_on_c, 9, 54, 0
1, 55436, Note_on_c, 3, 71, 0
1, 55440, Note_on_c, 3, 64, 100
1, 55440, Note_on_c, 9, 53, 100
1, 55440, Note_on_c, 9, 54, 55
1, 55480, Note_on_c, 9, 54, 0
1, 55484, Note_on_c, 4, 44, 0
1, 55492, Note_on_c, 3, 64, 0
1, 55498, Note_on_c, 2, 68, 0
1, 55498, Note_on_c, 2, 64, 0
1, 55498, Note_on_c, 2, 59, 0
1, 55500, Note_on_c, 9, 35, 100
1, 55500, Note_on_c, 2, 59, 100
1, 55500, Note_on_c, 2, 68, 100
1, 55500, Note_on_c, 2, 64, 100
1, 55500, Note_on_c, 9, 54, 55
1, 55500, Note_on_c, 3, 64, 100
1, 55500, Note_on_c, 4, 45, 100
1, 55520, Note_on_c, 9, 53, 0
1, 55526, Note_on_c, 3, 64, 0
1, 55530, Note_on_c, 3, 76, 100
1, 55536, Note_on_c, 1, 71, 0
1, 55536, Note_on_c, 1, 64, 0
1, 55540, Note_on_c, 9, 54, 0
1, 55540, Note_on_c, 9, 35, 0
1, 55560, Note_on_c, 9, 38, 100
1, 55560, Note_on_c, 1, 68, 110
1, 55560, Note_on_c, 9, 54, 55
1, 55560, Note_on_c, 9, 53, 100
1, 55586, Note_on_c, 1, 68, 0
1, 55590, Note_on_c, 1, 69, 110
1, 55600, Note_on_c, 9, 54, 0
1, 55600, Note_on_c, 9, 38, 0
1, 55616, Note_on_c, 1, 69, 0
1, 55620, Note_on_c, 9, 54, 55
1, 55620, Note_on_c, 1, 71, 110
1, 55630, Note_on_c, 4, 45, 0
1, 55634, Note_on_c, 3, 76, 0
1, 55640, Note_on_c, 9, 53, 0
1, 55650, Note_on_c, 3, 76, 100
1, 55650, Note_on_c, 4, 49, 100
1, 55660, Note_on_c, 9, 54, 0
1, 55660, Note_on_c, 3, 74, 100
1, 55663, Note_on_c, 3, 76, 0
1, 55672, Note_on_c, 1, 71, 0
1, 55673, Note_on_c, 3, 74, 0
1, 55676, Note_on_c, 4, 49, 0
1, 55678, Note_on_c, 2, 59, 0
1, 55678, Note_on_c, 2, 68, 0
1, 55678, Note_on_c, 2, 64, 0
1, 55680, Note_on_c, 2, 66, 100
1, 55680, Note_on_c, 4, 45, 100
1, 55680, Note_on_c, 9, 54, 55
1, 55680, Note_on_c, 3, 73, 100
1, 55680, Note_on_c, 9, 35, 100
1, 55680, Note_on_c, 9, 53, 100
1, 55680, Note_on_c, 2, 69, 100
1, 55680, Note_on_c, 1, 69, 110
1, 55680, Note_on_c, 1, 64, 110
1, 55680, Note_on_c, 2, 64, 100
1, 55706, Note_on_c, 3, 73, 0
1, 55710, Note_on_c, 3, 74, 100
1, 55720, Note_on_c, 9, 35, 0
1, 55720, Note_on_c, 9, 54, 0
1, 55736, Note_on_c, 3, 74, 0
1, 55740, Note_on_c, 3, 76, 100
1, 55740, Note_on_c, 9, 54, 55
1, 55760, Note_on_c, 9, 53, 0
1, 55766, Note_on_c, 3, 76, 0
1, 55770, Note_on_c, 3, 78, 100
1, 55780, Note_on_c, 9, 54, 0
1, 55784, Note_on_c, 1, 64, 0
1, 55784, Note_on_c, 1, 69, 0
1, 55796, Note_on_c, 3, 78, 0
1, 55800, Note_on_c, 9, 54, 55
1, 55800, Note_on_c, 1, 68, 110
1, 55800, Note_on_c, 3, 80, 100
1, 55800, Note_on_c, 9, 38, 100
1, 55800, Note_on_c, 9, 53, 100
1, 55826, Note_on_c, 3, 80, 0
1, 55830, Note_on_c, 3, 80, 100
1, 55836, Note_on_c, 4, 45, 0
1, 55840, Note_on_c, 9, 38, 0
1, 55840, Note_on_c, 9, 54, 0
1, 55852, Note_on_c, 1, 68, 0
1, 55856, Note_on_c, 3, 80, 0
1, 55858, Note_on_c, 2, 66, 0
1, 55858, Note_on_c, 2, 69, 0
1, 55858, Note_on_c, 2, 64, 0
1, 55860, Note_on_c, 1, 62, 110
1, 55860, Note_on_c, 9, 54, 55
1, 55860, Note_on_c, 3, 78, 100
1, 55860, Note_on_c, 4, 38, 100
1, 55860, Note_on_c, 1, 57, 110
1, 55860, Note_on_c, 1, 66, 110
1, 55860, Note_on_c, 2, 64, 100
1, 55860, Note_on_c, 2, 69, 100
1, 55860, Note_on_c, 9, 35, 100
1, 55860, Note_on_c, 2, 62, 100
1, 55880, Note_on_c, 9, 53, 0
1, 55886, Note_on_c, 3, 78, 0
1, 55890, Note_on_c, 3, 80, 100
1, 55900, Note_on_c, 9, 35, 0
1, 55900, Note_on_c, 9, 54, 0
1, 55916, Note_on_c, 3, 80, 0
1, 55920, Note_on_c, 3, 81, 100
1, 55920, Note_on_c, 9, 53, 100
1, 55920, Note_on_c, 9, 54, 55
1, 55946, Note_on_c, 3, 81, 0
1, 55950, Note_on_c, 3, 81, 100
1, 55960, Note_on_c, 9, 54, 0
1, 55964, Note_on_c, 1, 62, 0
1, 55964, Note_on_c, 4, 38, 0
1, 55964, Note_on_c, 1, 57, 0
1, 55964, Note_on_c, 1, 66, 0
1, 55976, Note_on_c, 3, 81, 0
1, 55978, Note_on_c, 2, 69, 0
1, 55978, Note_on_c, 2, 64, 0
1, 55978, Note_on_c, 2, 62, 0
1, 55980, Note_on_c, 3, 80, 100
1, 55980, Note_on_c, 9, 35, 100
1, 55980, Note_on_c, 1, 64, 110
1, 55980, Note_on_c, 1, 56, 110
1, 55980, Note_on_c, 1, 59, 110
1, 55980, Note_on_c, 9, 54, 55
1, 55980, Note_on_c, 9, 43, 100
1, 55980, Note_on_c, 4, 40, 100
1, 55980, Note_on_c, 2, 64, 100
1, 55980, Note_on_c, 2, 56, 100
1, 55980, Note_on_c, 2, 59, 100
1, 56000, Note_on_c, 9, 43, 0
1, 56000, Note_on_c, 9, 53, 0
1, 56006, Note_on_c, 3, 80, 0
1, 56010, Note_on_c, 3, 81, 100
1, 56020, Note_on_c, 9, 54, 0
1, 56020, Note_on_c, 9, 35, 0
1, 56032, Note_on_c, 4, 40, 0
1, 56036, Note_on_c, 3, 81, 0
1, 56040, Note_on_c, 4, 40, 100
1, 56040, Note_on_c, 9, 38, 100
1, 56040, Note_on_c, 9, 53, 100
1, 56040, Note_on_c, 9, 54, 55
1, 56040, Note_on_c, 3, 83, 100
1, 56066, Note_on_c, 3, 83, 0
1, 56070, Note_on_c, 9, 41, 100
1, 56070, Note_on_c, 3, 83, 100
1, 56080, Note_on_c, 9, 54, 0
1, 56080, Note_on_c, 9, 38, 0
1, 56090, Note_on_c, 9, 41, 0
1, 56096, Note_on_c, 3, 83, 0
1, 56100, Note_on_c, 9, 54, 55
1, 56100, Note_on_c, 3, 81, 100
1, 56100, Note_on_c, 9, 45, 100
1, 56118, Note_on_c, 4, 40, 0
1, 56120, Note_on_c, 9, 45, 0
1, 56120, Note_on_c, 9, 53, 0
1, 56126, Note_on_c, 3, 81, 0
1, 56130, Note_on_c, 4, 45, 100
1, 56130, Note_on_c, 9, 47, 100
1, 56130, Note_on_c, 3, 83, 100
1, 56133, Note_on_c, 1, 59, 0
1, 56133, Note_on_c, 1, 64, 0
1, 56133, Note_on_c, 1, 56, 0
1, 56140, Note_on_c, 9, 54, 0
1, 56150, Note_on_c, 9, 47, 0
1, 56156, Note_on_c, 3, 83, 0
1, 56156, Note_on_c, 4, 45, 0
1, 56158, Note_on_c, 2, 56, 0
1, 56158, Note_on_c, 2, 64, 0
1, 56158, Note_on_c, 2, 59, 0
1, 56160, Note_on_c, 9, 54, 55
1, 56160, Note_on_c, 4, 35, 100
1, 56160, Note_on_c, 3, 85, 100
1, 56160, Note_on_c, 2, 57, 100
1, 56160, Note_on_c, 2, 66, 100
1, 56160, Note_on_c, 9, 49, 100
1, 56160, Note_on_c, 9, 35, 100
1, 56160, Note_on_c, 9, 42, 60
1, 56160, Note_on_c, 2, 62, 100
1, 56180, Note_on_c, 9, 42, 0
1, 56180, Note_on_c, 9, 54, 0
1, 56190, Note_on_c, 9, 54, 55
1, 56190, Note_on_c, 9, 42, 60
1, 56200, Note_on_c, 9, 35, 0
1, 56210, Note_on_c, 9, 42, 0
1, 56210, Note_on_c, 9, 54, 0
1, 56212, Note_on_c, 4, 35, 0
1, 56220, Note_on_c, 9, 54, 55
1, 56220, Note_on_c, 4, 47, 100
1, 56220, Note_on_c, 9, 76, 80
1, 56220, Note_on_c, 9, 42, 60
1, 56220, Note_on_c, 1, 59, 110
1, 56220, Note_on_c, 1, 50, 110
1, 56240, Note_on_c, 9, 42, 0
1, 56240, Note_on_c, 9, 54, 0
1, 56240, Note_on_c, 9, 49, 0
1, 56250, Note_on_c, 9, 54, 55
1, 56250, Note_on_c, 9, 42, 60
1, 56260, Note_on_c, 9, 76, 0
1, 56264, Note_on_c, 3, 85, 0
1, 56270, Note_on_c, 9, 42, 0
1, 56270, Note_on_c, 9, 54, 0
1, 56280, Note_on_c, 9, 38, 100
1, 56280, Note_on_c, 9, 42, 60
1, 56280, Note_on_c, 9, 68, 80
1, 56280, Note_on_c, 9, 75, 80
1, 56280, Note_on_c, 9, 54, 55
1, 56298, Note_on_c, 4, 47, 0
1, 56300, Note_on_c, 9, 54, 0
1, 56300, Note_on_c, 9, 42, 0
1, 56310, Note_on_c, 9, 42, 60
1, 56310, Note_on_c, 4, 47, 100
1, 56310, Note_on_c, 9, 54, 55
1, 56320, Note_on_c, 9, 68, 0
1, 56320, Note_on_c, 9, 75, 0
1, 56320, Note_on_c, 9, 38, 0
1, 56324, Note_on_c, 1, 59, 0
1, 56324, Note_on_c, 1, 50, 0
1, 56330, Note_on_c, 9, 42, 0
1, 56330, Note_on_c, 9, 54, 0
1, 56336, Note_on_c, 4, 47, 0
1, 56340, Note_on_c, 9, 35, 100
1, 56340, Note_on_c, 9, 42, 60
1, 56340, Note_on_c, 9, 54, 55
1, 56340, Note_on_c, 4, 35, 100
1, 56360, Note_on_c, 9, 54, 0
1, 56360, Note_on_c, 9, 42, 0
1, 56370, Note_on_c, 9, 42, 60
1, 56370, Note_on_c, 9, 54, 55
1, 56380, Note_on_c, 9, 35, 0
1, 56390, Note_on_c, 9, 42, 0
1, 56390, Note_on_c, 9, 54, 0
1, 56392, Note_on_c, 4, 35, 0
1, 56400, Note_on_c, 1, 50, 110
1, 56400, Note_on_c, 9, 35, 100
1, 56400, Note_on_c, 9, 42, 60
1, 56400, Note_on_c, 9, 54, 55
1, 56400, Note_on_c, 1, 57, 110
1, 56400, Note_on_c, 4, 47, 100
1, 56420, Note_on_c, 9, 54, 0
1, 56420, Note_on_c, 9, 42, 0
1, 56430, Note_on_c, 9, 54, 55
1, 56430, Note_on_c, 9, 42, 60
1, 56440, Note_on_c, 9, 35, 0
1, 56450, Note_on_c, 9, 42, 0
1, 56450, Note_on_c, 9, 54, 0
1, 56460, Note_on_c, 9, 42, 60
1, 56460, Note_on_c, 9, 54, 55
1, 56478, Note_on_c, 4, 47, 0
1, 56480, Note_on_c, 9, 54, 0
1, 56480, Note_on_c, 9, 42, 0
1, 56490, Note_on_c, 9, 42, 60
1, 56490, Note_on_c, 4, 47, 100
1, 56490, Note_on_c, 9, 54, 55
1, 56504, Note_on_c, 1, 57, 0
1, 56504, Note_on_c, 1, 50, 0
1, 56510, Note_on_c, 9, 54, 0
1, 56510, Note_on_c, 9, 42, 0
1, 56516, Note_on_c, 4, 47, 0
1, 56520, Note_on_c, 4, 35, 100
1, 56520, Note_on_c, 9, 54, 55
1, 56520, Note_on_c, 9, 38, 100
1, 56520, Note_on_c, 9, 42, 60
1, 56540, Note_on_c, 9, 42, 0
1, 56540, Note_on_c, 9, 54, 0
1, 56550, Note_on_c, 9, 42, 60
1, 56550, Note_on_c, 9, 54, 55
1, 56560, Note_on_c, 9, 38, 0
1, 56570, Note_on_c, 9, 42, 0
1, 56570, Note_on_c, 9, 54, 0
1, 56572, Note_on_c, 4, 35, 0
1, 56580, Note_on_c, 9, 42, 60
1, 56580, Note_on_c, 9, 54, 55
1, 56580, Note_on_c, 4, 47, 100
1, 56600, Note_on_c, 9, 54, 0
1, 56600, Note_on_c, 9, 42, 0
1, 56610, Note_on_c, 9, 42, 60
1, 56610, Note_on_c, 9, 54, 55
1, 56630, Note_on_c, 9, 54, 0
1, 56630, Note_on_c, 9, 42, 0
1, 56640, Note_on_c, 9, 54, 55
1, 56640, Note_on_c, 9, 35, 100
1, 56640, Note_on_c, 9, 42, 60
1, 56658, Note_on_c, 4, 47, 0
1, 56660, Note_on_c, 9, 54, 0
1, 56660, Note_on_c, 9, 42, 0
1, 56670, Note_on_c, 4, 47, 100
1, 56670, Note_on_c, 9, 42, 60
1, 56670, Note_on_c, 9, 54, 55
1, 56680, Note_on_c, 9, 35, 0
1, 56690, Note_on_c, 9, 42, 0
1, 56690, Note_on_c, 9, 54, 0
1, 56696, Note_on_c, 4, 47, 0
1, 56700, Note_on_c, 4, 35, 100
1, 56700, Note_on_c, 9, 76, 80
1, 56700, Note_on_c, 9, 54, 55
1, 56700, Note_on_c, 1, 64, 110
1, 56700, Note_on_c, 1, 50, 110
1, 56700, Note_on_c, 9, 42, 60
1, 56700, Note_on_c, 1, 57, 110
1, 56720, Note_on_c, 9, 42, 0
1, 56720, Note_on_c, 9, 54, 0
1, 56730, Note_on_c, 9, 54, 55
1, 56730, Note_on_c, 9, 42, 60
1, 56740, Note_on_c, 9, 76, 0
1, 56750, Note_on_c, 9, 42, 0
1, 56750, Note_on_c, 9, 54, 0
1, 56752, Note_on_c, 4, 35, 0
1, 56760, Note_on_c, 9, 38, 100
1, 56760, Note_on_c, 9, 75, 80
1, 56760, Note_on_c, 9, 68, 80
1, 56760, Note_on_c, 9, 42, 60
1, 56760, Note_on_c, 9, 54, 55
1, 56760, Note_on_c, 4, 47, 100
1, 56780, Note_on_c, 9, 54, 0
1, 56780, Note_on_c, 9, 42, 0
1, 56790, Note_on_c, 9, 54, 55
1, 56790, Note_on_c, 9, 42, 60
1, 56800, Note_on_c, 9, 75, 0
1, 56800, Note_on_c, 9, 38, 0
1, 56800, Note_on_c, 9, 68, 0
1, 56810, Note_on_c, 9, 54, 0
1, 56810, Note_on_c, 9, 42, 0
1, 56820, Note_on_c, 9, 42, 60
1, 56820, Note_on_c, 9, 54, 55
1, 56820, Note_on_c, 9, 35, 100
1, 56838, Note_on_c, 4, 47, 0
1, 56840, Note_on_c, 9, 54, 0
1, 56840, Note_on_c, 9, 42, 0
1, 56850, Note_on_c, 4, 45, 100
1, 56850, Note_on_c, 9, 54, 55
1, 56850, Note_on_c, 9, 42, 60
1, 56856, Note_on_c, 1, 57, 0
1, 56856, Note_on_c, 1, 50, 0
1, 56856, Note_on_c, 1, 64, 0
1, 56860, Note_on_c, 9, 35, 0
1, 56870, Note_on_c, 9, 54, 0
1, 56870, Note_on_c, 9, 42, 0
1, 56876, Note_on_c, 4, 45, 0
1, 56878, Note_on_c, 2, 57, 0
1, 56878, Note_on_c, 2, 66, 0
1, 56878, Note_on_c, 2, 62, 0
1, 56880, Note_on_c, 2, 69, 100
1, 56880, Note_on_c, 4, 38, 100
1, 56880, Note_on_c, 9, 35, 100
1, 56880, Note_on_c, 2, 66, 100
1, 56880, Note_on_c, 2, 62, 100
1, 56880, Note_on_c, 9, 54, 55
1, 56880, Note_on_c, 9, 42, 60
1, 56900, Note_on_c, 9, 42, 0
1, 56900, Note_on_c, 9, 54, 0
1, 56910, Note_on_c, 1, 57, 110
1, 56910, Note_on_c, 9, 42, 60
1, 56910, Note_on_c, 1, 64, 110
1, 56910, Note_on_c, 1, 50, 110
1, 56910, Note_on_c, 9, 54, 55
1, 56920, Note_on_c, 9, 35, 0
1, 56930, Note_on_c, 9, 54, 0
1, 56930, Note_on_c, 9, 42, 0
1, 56940, Note_on_c, 9, 54, 55
1, 56940, Note_on_c, 9, 42, 60
1, 56958, Note_on_c, 4, 38, 0
1, 56960, Note_on_c, 9, 42, 0
1, 56960, Note_on_c, 9, 54, 0
1, 56970, Note_on_c, 9, 42, 60
1, 56970, Note_on_c, 9, 54, 55
1, 56970, Note_on_c, 4, 47, 100
1, 56988, Note_on_c, 1, 64, 0
1, 56988, Note_on_c, 1, 50, 0
1, 56988, Note_on_c, 1, 57, 0
1, 56990, Note_on_c, 9, 54, 0
1, 56990, Note_on_c, 9, 42, 0
1, 56996, Note_on_c, 4, 47, 0
1, 56998, Note_on_c, 2, 66, 0
1, 56998, Note_on_c, 2, 69, 0
1, 56998, Note_on_c, 2, 62, 0
1, 57000, Note_on_c, 9, 42, 60
1, 57000, Note_on_c, 9, 38, 100
1, 57000, Note_on_c, 4, 40, 100
1, 57000, Note_on_c, 1, 59, 110
1, 57000, Note_on_c, 1, 64, 110
1, 57000, Note_on_c, 2, 64, 100
1, 57000, Note_on_c, 2, 71, 100
1, 57000, Note_on_c, 2, 68, 100
1, 57000, Note_on_c, 1, 54, 110
1, 57000, Note_on_c, 9, 54, 55
1, 57020, Note_on_c, 9, 54, 0
1, 57020, Note_on_c, 9, 42, 0
1, 57030, Note_on_c, 9, 42, 60
1, 57030, Note_on_c, 9, 54, 55
1, 57040, Note_on_c, 9, 38, 0
1, 57050, Note_on_c, 9, 54, 0
1, 57050, Note_on_c, 9, 42, 0
1, 57060, Note_on_c, 9, 54, 55
1, 57060, Note_on_c, 9, 42, 60
1, 57078, Note_on_c, 4, 40, 0
1, 57080, Note_on_c, 9, 42, 0
1, 57080, Note_on_c, 9, 54, 0
1, 57090, Note_on_c, 9, 54, 55
1, 57090, Note_on_c, 9, 42, 60
1, 57090, Note_on_c, 4, 47, 100
1, 57104, Note_on_c, 1, 59, 0
1, 57104, Note_on_c, 1, 54, 0
1, 57104, Note_on_c, 1, 64, 0
1, 57110, Note_on_c, 9, 42, 0
1, 57110, Note_on_c, 9, 54, 0
1, 57116, Note_on_c, 4, 47, 0
1, 57118, Note_on_c, 2, 71, 0
1, 57118, Note_on_c, 2, 64, 0
1, 57118, Note_on_c, 2, 68, 0
1, 57120, Note_on_c, 2, 57, 100
1, 57120, Note_on_c, 4, 35, 100
1, 57120, Note_on_c, 9, 35, 100
1, 57120, Note_on_c, 9, 42, 60
1, 57120, Note_on_c, 2, 62, 100
1, 57120, Note_on_c, 2, 66, 100
1, 57120, Note_on_c, 1, 64, 110
1, 57120, Note_on_c, 1, 50, 110
1, 57120, Note_on_c, 1, 57, 110
1, 57120, Note_on_c, 9, 54, 55
1, 57140, Note_on_c, 9, 54, 0
1, 57140, Note_on_c, 9, 42, 0
1, 57150, Note_on_c, 9, 54, 55
1, 57150, Note_on_c, 9, 42, 60
1, 57160, Note_on_c, 9, 35, 0
1, 57170, Note_on_c, 9, 42, 0
1, 57170, Note_on_c, 9, 54, 0
1, 57172, Note_on_c, 1, 57, 0
1, 57172, Note_on_c, 4, 35, 0
1, 57172, Note_on_c, 1, 50, 0
1, 57172, Note_on_c, 1, 64, 0
1, 57180, Note_on_c, 1, 59, 110
1, 57180, Note_on_c, 9, 76, 80
1, 57180, Note_on_c, 9, 42, 60
1, 57180, Note_on_c, 4, 47, 100
1, 57180, Note_on_c, 1, 64, 110
1, 57180, Note_on_c, 1, 52, 110
1, 57180, Note_on_c, 9, 54, 55
1, 57200, Note_on_c, 9, 54, 0
1, 57200, Note_on_c, 9, 42, 0
1, 57210, Note_on_c, 9, 42, 60
1, 57210, Note_on_c, 9, 54, 55
1, 57220, Note_on_c, 9, 76, 0
1, 57230, Note_on_c, 9, 54, 0
1, 57230, Note_on_c, 9, 42, 0
1, 57232, Note_on_c, 1, 59, 0
1, 57232, Note_on_c, 1, 64, 0
1, 57232, Note_on_c, 1, 52, 0
1, 57240, Note_on_c, 1, 57, 110
1, 57240, Note_on_c, 1, 50, 110
1, 57240, Note_on_c, 1, 64, 110
1, 57240, Note_on_c, 9, 75, 80
1, 57240, Note_on_c, 9, 68, 80
1, 57240, Note_on_c, 9, 54, 55
1, 57240, Note_on_c, 9, 42, 60
1, 57240, Note_on_c, 9, 38, 100
1, 57258, Note_on_c, 4, 47, 0
1, 57260, Note_on_c, 9, 42, 0
1, 57260, Note_on_c, 9, 54, 0
1, 57270, Note_on_c, 9, 54, 55
1, 57270, Note_on_c, 4, 47, 100
1, 57270, Note_on_c, 9, 42, 60
1, 57280, Note_on_c, 9, 75, 0
1, 57280, Note_on_c, 9, 68, 0
1, 57280, Note_on_c, 9, 38, 0
1, 57290, Note_on_c, 9, 54, 0
1, 57290, Note_on_c, 9, 42, 0
1, 57292, Note_on_c, 1, 57, 0
1, 57292, Note_on_c, 1, 64, 0
1, 57292, Note_on_c, 1, 50, 0
1, 57296, Note_on_c, 4, 47, 0
1, 57300, Note_on_c, 9, 54, 55
1, 57300, Note_on_c, 9, 42, 60
1, 57300, Note_on_c, 9, 35, 100
1, 57300, Note_on_c, 4, 35, 100
1, 57320, Note_on_c, 9, 42, 0
1, 57320, Note_on_c, 9, 54, 0
1, 57330, Note_on_c, 9, 42, 60
1, 57330, Note_on_c, 9, 54, 55
1, 57340, Note_on_c, 9, 35, 0
1, 57350, Note_on_c, 9, 42, 0
1, 57350, Note_on_c, 9, 54, 0
1, 57352, Note_on_c, 4, 35, 0
1, 57360, Note_on_c, 4, 47, 100
1, 57360, Note_on_c, 9, 35, 100
1, 57360, Note_on_c, 9, 42, 60
1, 57360, Note_on_c, 1, 59, 110
1, 57360, Note_on_c, 9, 54, 55
1, 57360, Note_on_c, 1, 66, 110
1, 57380, Note_on_c, 9, 54, 0
1, 57380, Note_on_c, 9, 42, 0
1, 57390, Note_on_c, 9, 42, 60
1, 57390, Note_on_c, 9, 54, 55
1, 57400, Note_on_c, 9, 35, 0
1, 57410, Note_on_c, 9, 54, 0
1, 57410, Note_on_c, 9, 42, 0
1, 57412, Note_on_c, 1, 66, 0
1, 57412, Note_on_c, 1, 59, 0
1, 57420, Note_on_c, 9, 42, 60
1, 57420, Note_on_c, 1, 62, 110
1, 57420, Note_on_c, 1, 57, 110
1, 57420, Note_on_c, 1, 69, 110
1, 57420, Note_on_c, 9, 54, 55
1, 57438, Note_on_c, 4, 47, 0
1, 57440, Note_on_c, 9, 54, 0
1, 57440, Note_on_c, 9, 42, 0
1, 57450, Note_on_c, 4, 47, 100
1, 57450, Note_on_c, 9, 42, 60
1, 57450, Note_on_c, 9, 54, 55
1, 57470, Note_on_c, 9, 54, 0
1, 57470, Note_on_c, 9, 42, 0
1, 57472, Note_on_c, 1, 69, 0
1, 57472, Note_on_c, 1, 62, 0
1, 57472, Note_on_c, 1, 57, 0
1, 57476, Note_on_c, 4, 47, 0
1, 57480, Note_on_c, 9, 38, 100
1, 57480, Note_on_c, 9, 42, 60
1, 57480, Note_on_c, 9, 54, 55
1, 57480, Note_on_c, 4, 35, 100
1, 57500, Note_on_c, 9, 54, 0
1, 57500, Note_on_c, 9, 42, 0
1, 57510, Note_on_c, 9, 42, 60
1, 57510, Note_on_c, 9, 54, 55
1, 57520, Note_on_c, 9, 38, 0
1, 57530, Note_on_c, 9, 42, 0
1, 57530, Note_on_c, 9, 54, 0
1, 57532, Note_on_c, 4, 35, 0
1, 57540, Note_on_c, 4, 47, 100
1, 57540, Note_on_c, 9, 42, 60
1, 57540, Note_on_c, 9, 54, 55
1, 57560, Note_on_c, 9, 54, 0
1, 57560, Note_on_c, 9, 42, 0
1, 57570, Note_on_c, 9, 42, 60
1, 57570, Note_on_c, 9, 54, 55
1, 57590, Note_on_c, 9, 54, 0
1, 57590, Note_on_c, 9, 42, 0
1, 57600, Note_on_c, 9, 35, 100
1, 57600, Note_on_c, 9, 42, 60
1, 57600, Note_on_c, 9, 54, 55
1, 57618, Note_on_c, 4, 47, 0
1, 57620, Note_on_c, 9, 42, 0
1, 57620, Note_on_c, 9, 54, 0
1, 57630, Note_on_c, 9, 42, 60
1, 57630, Note_on_c, 9, 54, 55
1, 57630, Note_on_c, 4, 47, 100
1, 57640, Note_on_c, 9, 35, 0
1, 57650, Note_on_c, 9, 42, 0
1, 57650, Note_on_c, 9, 54, 0
1, 57656, Note_on_c, 4, 47, 0
1, 57660, Note_on_c, 1, 57, 110
1, 57660, Note_on_c, 1, 52, 110
1, 57660, Note_on_c, 4, 35, 100
1, 57660, Note_on_c, 9, 42, 60
1, 57660, Note_on_c, 1, 64, 110
1, 57660, Note_on_c, 9, 76, 80
1, 57660, Note_on_c, 9, 54, 55
1, 57680, Note_on_c, 9, 54, 0
1, 57680, Note_on_c, 9, 42, 0
1, 57686, Note_on_c, 1, 57, 0
1, 57686, Note_on_c, 1, 64, 0
1, 57686, Note_on_c, 1, 52, 0
1, 57686, Note_on_c, 4, 35, 0
1, 57690, Note_on_c, 1, 54, 110
1, 57690, Note_on_c, 1, 59, 110
1, 57690, Note_on_c, 9, 54, 55
1, 57690, Note_on_c, 1, 64, 110
1, 57690, Note_on_c, 9, 42, 60
1, 57690, Note_on_c, 4, 47, 100
1, 57700, Note_on_c, 9, 76, 0
1, 57710, Note_on_c, 9, 42, 0
1, 57710, Note_on_c, 9, 54, 0
1, 57720, Note_on_c, 9, 75, 80
1, 57720, Note_on_c, 9, 68, 80
1, 57720, Note_on_c, 9, 38, 100
1, 57720, Note_on_c, 9, 54, 55
1, 57720, Note_on_c, 9, 42, 60
1, 57740, Note_on_c, 9, 42, 0
1, 57740, Note_on_c, 9, 54, 0
1, 57742, Note_on_c, 4, 47, 0
1, 57750, Note_on_c, 9, 42, 60
1, 57750, Note_on_c, 4, 49, 100
1, 57750, Note_on_c, 9, 54, 55
1, 57760, Note_on_c, 9, 68, 0
1, 57760, Note_on_c, 9, 75, 0
1, 57760, Note_on_c, 9, 38, 0
1, 57768, Note_on_c, 1, 64, 0
1, 57768, Note_on_c, 1, 54, 0
1, 57768, Note_on_c, 1, 59, 0
1, 57770, Note_on_c, 9, 42, 0
1, 57770, Note_on_c, 9, 54, 0
1, 57780, Note_on_c, 1, 54, 110
1, 57780, Note_on_c, 1, 59, 110
1, 57780, Note_on_c, 9, 54, 55
1, 57780, Note_on_c, 9, 42, 60
1, 57780, Note_on_c, 9, 35, 100
1, 57780, Note_on_c, 1, 64, 110
1, 57800, Note_on_c, 9, 42, 0
1, 57800, Note_on_c, 9, 54, 0
1, 57802, Note_on_c, 4, 49, 0
1, 57810, Note_on_c, 4, 38, 100
1, 57810, Note_on_c, 4, 45, 100
1, 57810, Note_on_c, 9, 42, 60
1, 57810, Note_on_c, 9, 54, 55
1, 57820, Note_on_c, 9, 35, 0
1, 57830, Note_on_c, 9, 54, 0
1, 57830, Note_on_c, 9, 42, 0
1, 57838, Note_on_c, 2, 66, 0
1, 57838, Note_on_c, 2, 62, 0
1, 57838, Note_on_c, 2, 57, 0
1, 57840, Note_on_c, 9, 54, 55
1, 57840, Note_on_c, 2, 62, 100
1, 57840, Note_on_c, 2, 69, 100
1, 57840, Note_on_c, 9, 35, 100
1, 57840, Note_on_c, 2, 64, 100
1, 57840, Note_on_c, 9, 42, 60
1, 57858, Note_on_c, 1, 54, 0
1, 57858, Note_on_c, 1, 64, 0
1, 57858, Note_on_c, 1, 59, 0
1, 57860, Note_on_c, 9, 42, 0
1, 57860, Note_on_c, 9, 54, 0
1, 57862, Note_on_c, 4, 45, 0
1, 57862, Note_on_c, 4, 38, 0
1, 57870, Note_on_c, 1, 57, 110
1, 57870, Note_on_c, 9, 42, 60
1, 57870, Note_on_c, 9, 54, 55
1, 57870, Note_on_c, 4, 45, 100
1, 57870, Note_on_c, 4, 38, 100
1, 57870, Note_on_c, 1, 64, 110
1, 57870, Note_on_c, 1, 52, 110
1, 57880, Note_on_c, 9, 35, 0
1, 57890, Note_on_c, 9, 54, 0
1, 57890, Note_on_c, 9, 42, 0
1, 57900, Note_on_c, 9, 42, 60
1, 57900, Note_on_c, 9, 54, 55
1, 57920, Note_on_c, 9, 54, 0
1, 57920, Note_on_c, 9, 42, 0
1, 57930, Note_on_c, 9, 42, 60
1, 57930, Note_on_c, 9, 54, 55
1, 57948, Note_on_c, 4, 45, 0
1, 57948, Note_on_c, 1, 64, 0
1, 57948, Note_on_c, 1, 52, 0
1, 57948, Note_on_c, 1, 57, 0
1, 57948, Note_on_c, 4, 38, 0
1, 57950, Note_on_c, 9, 54, 0
1, 57950, Note_on_c, 9, 42, 0
1, 57958, Note_on_c, 2, 64, 0
1, 57958, Note_on_c, 2, 62, 0
1, 57958, Note_on_c, 2, 69, 0
1, 57960, Note_on_c, 2, 64, 100
1, 57960, Note_on_c, 9, 38, 100
1, 57960, Note_on_c, 2, 71, 100
1, 57960, Note_on_c, 1, 54, 110
1, 57960, Note_on_c, 2, 66, 100
1, 57960, Note_on_c, 9, 42, 60
1, 57960, Note_on_c, 9, 54, 55
1, 57960, Note_on_c, 1, 64, 110
1, 57960, Note_on_c, 4, 47, 100
1, 57960, Note_on_c, 4, 40, 100
1, 57960, Note_on_c, 1, 59, 110
1, 57980, Note_on_c, 9, 54, 0
1, 57980, Note_on_c, 9, 42, 0
1, 57990, Note_on_c, 9, 42, 60
1, 57990, Note_on_c, 9, 54, 55
1, 58000, Note_on_c, 9, 38, 0
1, 58010, Note_on_c, 9, 54, 0
1, 58010, Note_on_c, 9, 42, 0
1, 58020, Note_on_c, 9, 54, 55
1, 58020, Note_on_c, 9, 42, 60
1, 58038, Note_on_c, 4, 47, 0
1, 58038, Note_on_c, 4, 40, 0
1, 58040, Note_on_c, 9, 54, 0
1, 58040, Note_on_c, 9, 42, 0
1, 58050, Note_on_c, 9, 42, 60
1, 58050, Note_on_c, 4, 47, 100
1, 58050, Note_on_c, 9, 54, 55
1, 58064, Note_on_c, 1, 54, 0
1, 58064, Note_on_c, 1, 64, 0
1, 58064, Note_on_c, 1, 59, 0
1, 58070, Note_on_c, 9, 54, 0
1, 58070, Note_on_c, 9, 42, 0
1, 58076, Note_on_c, 4, 47, 0
1, 58078, Note_on_c, 2, 64, 0
1, 58078, Note_on_c, 2, 71, 0
1, 58078, Note_on_c, 2, 66, 0
1, 58080, Note_on_c, 2, 62, 100
1, 58080, Note_on_c, 9, 54, 55
1, 58080, Note_on_c, 4, 35, 100
1, 58080, Note_on_c, 9, 35, 100
1, 58080, Note_on_c, 9, 49, 100
1, 58080, Note_on_c, 9, 42, 60
1, 58080, Note_on_c, 2, 66, 100
1, 58080, Note_on_c, 2, 57, 100
1, 58100, Note_on_c, 9, 42, 0
1, 58100, Note_on_c, 9, 54, 0
1, 58110, Note_on_c, 9, 54, 55
1, 58110, Note_on_c, 9, 42, 59
1, 58120, Note_on_c, 9, 35, 0
1, 58130, Note_on_c, 9, 42, 0
1, 58130, Note_on_c, 9, 54, 0
1, 58132, Note_on_c, 4, 35, 0
1, 58140, Note_on_c, 4, 47, 97
1, 58140, Note_on_c, 9, 76, 78
1, 58140, Note_on_c, 1, 59, 107
1, 58140, Note_on_c, 9, 42, 58
1, 58140, Note_on_c, 9, 54, 54
1, 58140, Note_on_c, 1, 50, 107
1, 58160, Note_on_c, 9, 54, 0
1, 58160, Note_on_c, 9, 42, 0
1, 58160, Note_on_c, 9, 49, 0
1, 58170, Note_on_c, 9, 54, 53
1, 58170, Note_on_c, 9, 42, 57
1, 58180, Note_on_c, 9, 76, 0
1, 58190, Note_on_c, 9, 42, 0
1, 58190, Note_on_c, 9, 54, 0
1, 58200, Note_on_c, 9, 75, 75
1, 58200, Note_on_c, 9, 68, 75
1, 58200, Note_on_c, 9, 42, 56
1, 58200, Note_on_c, 9, 54, 52
1, 58200, Note_on_c, 9, 38, 94
1, 58218, Note_on_c, 4, 47, 0
1, 58220, Note_on_c, 9, 54, 0
1, 58220, Note_on_c, 9, 42, 0
1, 58230, Note_on_c, 9, 42, 55
1, 58230, Note_on_c, 4, 47, 93
1, 58230, Note_on_c, 9, 54, 51
1, 58240, Note_on_c, 9, 68, 0
1, 58240, Note_on_c, 9, 38, 0
1, 58240, Note_on_c, 9, 75, 0
1, 58244, Note_on_c, 1, 50, 0
1, 58244, Note_on_c, 1, 59, 0
1, 58250, Note_on_c, 9, 42, 0
1, 58250, Note_on_c, 9, 54, 0
1, 58256, Note_on_c, 4, 47, 0
1, 58260, Note_on_c, 9, 35, 91
1, 58260, Note_on_c, 9, 42, 54
1, 58260, Note_on_c, 9, 54, 50
1, 58260, Note_on_c, 4, 35, 91
1, 58280, Note_on_c, 9, 54, 0
1, 58280, Note_on_c, 9, 42, 0
1, 58290, Note_on_c, 9, 42, 53
1, 58290, Note_on_c, 9, 54, 49
1, 58300, Note_on_c, 9, 35, 0
1, 58310, Note_on_c, 9, 42, 0
1, 58310, Note_on_c, 9, 54, 0
1, 58312, Note_on_c, 4, 35, 0
1, 58320, Note_on_c, 1, 50, 97
1, 58320, Note_on_c, 9, 54, 49
1, 58320, Note_on_c, 1, 57, 97
1, 58320, Note_on_c, 9, 42, 52
1, 58320, Note_on_c, 9, 35, 88
1, 58320, Note_on_c, 4, 47, 88
1, 58340, Note_on_c, 9, 42, 0
1, 58340, Note_on_c, 9, 54, 0
1, 58350, Note_on_c, 9, 42, 51
1, 58350, Note_on_c, 9, 54, 48
1, 58360, Note_on_c, 9, 35, 0
1, 58370, Note_on_c, 9, 54, 0
1, 58370, Note_on_c, 9, 42, 0
1, 58380, Note_on_c, 9, 42, 50
1, 58380, Note_on_c, 9, 54, 47
1, 58398, Note_on_c, 4, 47, 0
1, 58400, Note_on_c, 9, 54, 0
1, 58400, Note_on_c, 9, 42, 0
1, 58410, Note_on_c, 4, 47, 83
1, 58410, Note_on_c, 9, 54, 46
1, 58410, Note_on_c, 9, 42, 49
1, 58424, Note_on_c, 1, 57, 0
1, 58424, Note_on_c, 1, 50, 0
1, 58430, Note_on_c, 9, 42, 0
1, 58430, Note_on_c, 9, 54, 0
1, 58436, Note_on_c, 4, 47, 0
1, 58440, Note_on_c, 4, 35, 82
1, 58440, Note_on_c, 9, 54, 45
1, 58440, Note_on_c, 9, 38, 82
1, 58440, Note_on_c, 9, 42, 48
1, 58460, Note_on_c, 9, 42, 0
1, 58460, Note_on_c, 9, 54, 0
1, 58470, Note_on_c, 9, 42, 47
1, 58470, Note_on_c, 9, 54, 44
1, 58480, Note_on_c, 9, 38, 0
1, 58490, Note_on_c, 9, 42, 0
1, 58490, Note_on_c, 9, 54, 0
1, 58492, Note_on_c, 4, 35, 0
1, 58500, Note_on_c, 9, 54, 43
1, 58500, Note_on_c, 9, 42, 46
1, 58500, Note_on_c, 4, 47, 79
1, 58520, Note_on_c, 9, 42, 0
1, 58520, Note_on_c, 9, 54, 0
1, 58530, Note_on_c, 9, 54, 43
1, 58530, Note_on_c, 9, 42, 45
1, 58550, Note_on_c, 9, 42, 0
1, 58550, Note_on_c, 9, 54, 0
1, 58560, Note_on_c, 9, 42, 44
1, 58560, Note_on_c, 9, 35, 75
1, 58560, Note_on_c, 9, 54, 42
1, 58578, Note_on_c, 4, 47, 0
1, 58580, Note_on_c, 9, 42, 0
1, 58580, Note_on_c, 9, 54, 0
1, 58590, Note_on_c, 4, 47, 74
1, 58590, Note_on_c, 9, 42, 43
1, 58590, Note_on_c, 9, 54, 41
1, 58600, Note_on_c, 9, 35, 0
1, 58610, Note_on_c, 9, 42, 0
1, 58610, Note_on_c, 9, 54, 0
1, 58616, Note_on_c, 4, 47, 0
1, 58620, Note_on_c, 1, 50, 80
1, 58620, Note_on_c, 9, 76, 58
1, 58620, Note_on_c, 1, 57, 80
1, 58620, Note_on_c, 1, 64, 80
1, 58620, Note_on_c, 9, 42, 42
1, 58620, Note_on_c, 4, 35, 72
1, 58620, Note_on_c, 9, 54, 40
1, 58640, Note_on_c, 9, 54, 0
1, 58640, Note_on_c, 9, 42, 0
1, 58650, Note_on_c, 9, 54, 39
1, 58650, Note_on_c, 9, 42, 41
1, 58660, Note_on_c, 9, 76, 0
1, 58670, Note_on_c, 9, 42, 0
1, 58670, Note_on_c, 9, 54, 0
1, 58672, Note_on_c, 4, 35, 0
1, 58680, Note_on_c, 9, 54, 38
1, 58680, Note_on_c, 9, 75, 55
1, 58680, Note_on_c, 9, 68, 55
1, 58680, Note_on_c, 4, 47, 69
1, 58680, Note_on_c, 9, 42, 40
1, 58680, Note_on_c, 9, 38, 69
1, 58700, Note_on_c, 9, 42, 0
1, 58700, Note_on_c, 9, 54, 0
1, 58710, Note_on_c, 9, 42, 39
1, 58710, Note_on_c, 9, 54, 37
1, 58720, Note_on_c, 9, 75, 0
1, 58720, Note_on_c, 9, 68, 0
1, 58720, Note_on_c, 9, 38, 0
1, 58730, Note_on_c, 9, 42, 0
1, 58730, Note_on_c, 9, 54, 0
1, 58740, Note_on_c, 9, 35, 66
1, 58740, Note_on_c, 9, 42, 38
1, 58740, Note_on_c, 9, 54, 37
1, 58758, Note_on_c, 4, 47, 0
1, 58760, Note_on_c, 9, 54, 0
1, 58760, Note_on_c, 9, 42, 0
1, 58770, Note_on_c, 9, 54, 36
1, 58770, Note_on_c, 9, 42, 37
1, 58770, Note_on_c, 4, 45, 65
1, 58776, Note_on_c, 1, 50, 0
1, 58776, Note_on_c, 1, 57, 0
1, 58776, Note_on_c, 1, 64, 0
1, 58780, Note_on_c, 9, 35, 0
1, 58790, Note_on_c, 9, 42, 0
1, 58790, Note_on_c, 9, 54, 0
1, 58796, Note_on_c, 4, 45, 0
1, 58798, Note_on_c, 2, 57, 0
1, 58798, Note_on_c, 2, 66, 0
1, 58798, Note_on_c, 2, 62, 0
1, 58800, Note_on_c, 4, 38, 63
1, 58800, Note_on_c, 9, 54, 35
1, 58800, Note_on_c, 9, 42, 36
1, 58800, Note_on_c, 2, 66, 63
1, 58800, Note_on_c, 2, 69, 63
1, 58800, Note_on_c, 2, 62, 63
1, 58800, Note_on_c, 9, 35, 63
1, 58820, Note_on_c, 9, 42, 0
1, 58820, Note_on_c, 9, 54, 0
1, 58830, Note_on_c, 9, 42, 35
1, 58830, Note_on_c, 1, 50, 68
1, 58830, Note_on_c, 1, 64, 68
1, 58830, Note_on_c, 9, 54, 34
1, 58830, Note_on_c, 1, 57, 68
1, 58840, Note_on_c, 9, 35, 0
1, 58850, Note_on_c, 9, 54, 0
1, 58850, Note_on_c, 9, 42, 0
1, 58860, Note_on_c, 9, 54, 33
1, 58860, Note_on_c, 9, 42, 34
1, 58878, Note_on_c, 4, 38, 0
1, 58880, Note_on_c, 9, 42, 0
1, 58880, Note_on_c, 9, 54, 0
1, 58890, Note_on_c, 4, 47, 58
1, 58890, Note_on_c, 9, 42, 33
1, 58890, Note_on_c, 9, 54, 32
1, 58908, Note_on_c, 1, 64, 0
1, 58908, Note_on_c, 1, 57, 0
1, 58908, Note_on_c, 1, 50, 0
1, 58910, Note_on_c, 9, 42, 0
1, 58910, Note_on_c, 9, 54, 0
1, 58916, Note_on_c, 4, 47, 0
1, 58918, Note_on_c, 2, 66, 0
1, 58918, Note_on_c, 2, 69, 0
1, 58918, Note_on_c, 2, 62, 0
1, 58920, Note_on_c, 9, 38, 57
1, 58920, Note_on_c, 9, 42, 32
1, 58920, Note_on_c, 1, 59, 62
1, 58920, Note_on_c, 2, 64, 57
1, 58920, Note_on_c, 1, 54, 62
1, 58920, Note_on_c, 2, 68, 57
1, 58920, Note_on_c, 1, 64, 62
1, 58920, Note_on_c, 9, 54, 31
1, 58920, Note_on_c, 2, 71, 57
1, 58920, Note_on_c, 4, 40, 57
1, 58940, Note_on_c, 9, 54, 0
1, 58940, Note_on_c, 9, 42, 0
1, 58950, Note_on_c, 9, 54, 31
1, 58950, Note_on_c, 9, 42, 31
1, 58960, Note_on_c, 9, 38, 0
1, 58970, Note_on_c, 9, 42, 0
1, 58970, Note_on_c, 9, 54, 0
1, 58980, Note_on_c, 9, 42, 30
1, 58980, Note_on_c, 9, 54, 30
1, 58998, Note_on_c, 4, 40, 0
1, 59000, Note_on_c, 9, 54, 0
1, 59000, Note_on_c, 9, 42, 0
1, 59010, Note_on_c, 9, 54, 29
1, 59010, Note_on_c, 4, 47, 52
1, 59010, Note_on_c, 9, 42, 29
1, 59024, Note_on_c, 1, 59, 0
1, 59024, Note_on_c, 1, 54, 0
1, 59024, Note_on_c, 1, 64, 0
1, 59030, Note_on_c, 9, 42, 0
1, 59030, Note_on_c, 9, 54, 0
1, 59036, Note_on_c, 4, 47, 0
1, 59038, Note_on_c, 2, 64, 0
1, 59038, Note_on_c, 2, 68, 0
1, 59038, Note_on_c, 2, 71, 0
1, 59040, Note_on_c, 2, 62, 50
1, 59040, Note_on_c, 1, 50, 55
1, 59040, Note_on_c, 2, 66, 50
1, 59040, Note_on_c, 9, 54, 28
1, 59040, Note_on_c, 1, 57, 55
1, 59040, Note_on_c, 1, 64, 55
1, 59040, Note_on_c, 9, 35, 50
1, 59040, Note_on_c, 9, 42, 28
1, 59040, Note_on_c, 2, 57, 50
1, 59040, Note_on_c, 4, 35, 50
1, 59060, Note_on_c, 9, 42, 0
1, 59060, Note_on_c, 9, 54, 0
1, 59070, Note_on_c, 9, 54, 27
1, 59070, Note_on_c, 9, 42, 27
1, 59080, Note_on_c, 9, 35, 0
1, 59090, Note_on_c, 9, 42, 0
1, 59090, Note_on_c, 9, 54, 0
1, 59092, Note_on_c, 1, 57, 0
1, 59092, Note_on_c, 1, 50, 0
1, 59092, Note_on_c, 4, 35, 0
1, 59092, Note_on_c, 1, 64, 0
1, 59100, Note_on_c, 1, 59, 52
1, 59100, Note_on_c, 9, 76, 38
1, 59100, Note_on_c, 9, 42, 26
1, 59100, Note_on_c, 4, 47, 47
1, 59100, Note_on_c, 9, 54, 26
1, 59100, Note_on_c, 1, 52, 52
1, 59100, Note_on_c, 1, 64, 52
1, 59120, Note_on_c, 9, 54, 0
1, 59120, Note_on_c, 9, 42, 0
1, 59130, Note_on_c, 9, 54, 25
1, 59130, Note_on_c, 9, 42, 25
1, 59140, Note_on_c, 9, 76, 0
1, 59150, Note_on_c, 9, 42, 0
1, 59150, Note_on_c, 9, 54, 0
1, 59152, Note_on_c, 1, 59, 0
1, 59152, Note_on_c, 1, 52, 0
1, 59152, Note_on_c, 1, 64, 0
1, 59160, Note_on_c, 9, 75, 35
1, 59160, Note_on_c, 1, 64, 49
1, 59160, Note_on_c, 9, 68, 35
1, 59160, Note_on_c, 9, 38, 44
1, 59160, Note_on_c, 9, 42, 24
1, 59160, Note_on_c, 9, 54, 25
1, 59160, Note_on_c, 1, 57, 49
1, 59160, Note_on_c, 1, 50, 49
1, 59178, Note_on_c, 4, 47, 0
1, 59180, Note_on_c, 9, 54, 0
1, 59180, Note_on_c, 9, 42, 0
1, 59190, Note_on_c, 9, 54, 24
1, 59190, Note_on_c, 4, 47, 43
1, 59190, Note_on_c, 9, 42, 23
1, 59200, Note_on_c, 9, 38, 0
1, 59200, Note_on_c, 9, 75, 0
1, 59200, Note_on_c, 9, 68, 0
1, 59210, Note_on_c, 9, 54, 0
1, 59210, Note_on_c, 9, 42, 0
1, 59212, Note_on_c, 1, 57, 0
1, 59212, Note_on_c, 1, 50, 0
1, 59212, Note_on_c, 1, 64, 0
1, 59216, Note_on_c, 4, 47, 0
1, 59220, Note_on_c, 9, 42, 22
1, 59220, Note_on_c, 9, 35, 41
1, 59220, Note_on_c, 4, 35, 41
1, 59220, Note_on_c, 9, 54, 23
1, 59240, Note_on_c, 9, 54, 0
1, 59240, Note_on_c, 9, 42, 0
1, 59250, Note_on_c, 9, 54, 22
1, 59250, Note_on_c, 9, 42, 21
1, 59260, Note_on_c, 9, 35, 0
1, 59270, Note_on_c, 9, 54, 0
1, 59270, Note_on_c, 9, 42, 0
1, 59272, Note_on_c, 4, 35, 0
1, 59280, Note_on_c, 9, 42, 20
1, 59280, Note_on_c, 1, 66, 42
1, 59280, Note_on_c, 1, 59, 42
1, 59280, Note_on_c, 4, 47, 38
1, 59280, Note_on_c, 9, 35, 38
1, 59280, Note_on_c, 9, 54, 21
1, 59300, Note_on_c, 9, 54, 0
1, 59300, Note_on_c, 9, 42, 0
1, 59310, Note_on_c, 9, 42, 19
1, 59310, Note_on_c, 9, 54, 20
1, 59320, Note_on_c, 9, 35, 0
1, 59330, Note_on_c, 9, 54, 0
1, 59330, Note_on_c, 9, 42, 0
1, 59332, Note_on_c, 1, 66, 0
1, 59332, Note_on_c, 1, 59, 0
1, 59340, Note_on_c, 1, 69, 38
1, 59340, Note_on_c, 9, 42, 18
1, 59340, Note_on_c, 9, 54, 19
1, 59340, Note_on_c, 1, 62, 38
1, 59340, Note_on_c, 1, 57, 38
1, 59358, Note_on_c, 4, 47, 0
1, 59360, Note_on_c, 9, 54, 0
1, 59360, Note_on_c, 9, 42, 0
1, 59370, Note_on_c, 4, 47, 33
1, 59370, Note_on_c, 9, 54, 19
1, 59370, Note_on_c, 9, 42, 17
1, 59390, Note_on_c, 9, 42, 0
1, 59390, Note_on_c, 9, 54, 0
1, 59392, Note_on_c, 1, 62, 0
1, 59392, Note_on_c, 1, 57, 0
1, 59392, Note_on_c, 1, 69, 0
1, 59396, Note_on_c, 4, 47, 0
1, 59400, Note_on_c, 9, 54, 18
1, 59400, Note_on_c, 9, 38, 32
1, 59400, Note_on_c, 4, 35, 32
1, 59400, Note_on_c, 9, 42, 16
1, 59420, Note_on_c, 9, 42, 0
1, 59420, Note_on_c, 9, 54, 0
1, 59430, Note_on_c, 9, 42, 15
1, 59430, Note_on_c, 9, 54, 17
1, 59440, Note_on_c, 9, 38, 0
1, 59450, Note_on_c, 9, 42, 0
1, 59450, Note_on_c, 9, 54, 0
1, 59452, Note_on_c, 4, 35, 0
1, 59460, Note_on_c, 4, 47, 29
1, 59460, Note_on_c, 9, 54, 16
1, 59460, Note_on_c, 9, 42, 14
1, 59480, Note_on_c, 9, 42, 0
1, 59480, Note_on_c, 9, 54, 0
1, 59490, Note_on_c, 9, 54, 15
1, 59490, Note_on_c, 9, 42, 13
1, 59510, Note_on_c, 9, 42, 0
1, 59510, Note_on_c, 9, 54, 0
1, 59520, Note_on_c, 9, 35, 25
1, 59520, Note_on_c, 9, 54, 14
1, 59520, Note_on_c, 9, 42, 25
1, 59538, Note_on_c, 4, 47, 0
1, 59540, Note_on_c, 9, 54, 0
1, 59540, Note_on_c, 9, 42, 0
1, 59550, Note_on_c, 4, 47, 24
1, 59550, Note_on_c, 9, 54, 13
1, 59550, Note_on_c, 9, 42, 24
1, 59560, Note_on_c, 9, 35, 0
1, 59570, Note_on_c, 9, 54, 0
1, 59570, Note_on_c, 9, 42, 0
1, 59576, Note_on_c, 4, 47, 0
1, 59580, Note_on_c, 1, 57, 25
1, 59580, Note_on_c, 1, 52, 25
1, 59580, Note_on_c, 1, 64, 25
1, 59580, Note_on_c, 9, 76, 18
1, 59580, Note_on_c, 9, 42, 22
1, 59580, Note_on_c, 9, 54, 13
1, 59580, Note_on_c, 4, 35, 22
1, 59600, Note_on_c, 9, 54, 0
1, 59600, Note_on_c, 9, 42, 0
1, 59606, Note_on_c, 1, 64, 0
1, 59606, Note_on_c, 1, 57, 0
1, 59606, Note_on_c, 4, 35, 0
1, 59606, Note_on_c, 1, 52, 0
1, 59610, Note_on_c, 1, 64, 23
1, 59610, Note_on_c, 1, 54, 23
1, 59610, Note_on_c, 1, 59, 23
1, 59610, Note_on_c, 9, 54, 12
1, 59610, Note_on_c, 9, 42, 21
1, 59610, Note_on_c, 4, 47, 21
1, 59620, Note_on_c, 9, 76, 0
1, 59630, Note_on_c, 9, 42, 0
1, 59630, Note_on_c, 9, 54, 0
1, 59640, Note_on_c, 9, 75, 15
1, 59640, Note_on_c, 9, 68, 15
1, 59640, Note_on_c, 9, 38, 19
1, 59640, Note_on_c, 9, 42, 19
1, 59640, Note_on_c, 9, 54, 11
1, 59660, Note_on_c, 9, 54, 0
1, 59660, Note_on_c, 9, 42, 0
1, 59662, Note_on_c, 4, 47, 0
1, 59670, Note_on_c, 9, 42, 18
1, 59670, Note_on_c, 9, 54, 10
1, 59670, Note_on_c, 4, 49, 18
1, 59680, Note_on_c, 9, 68, 0
1, 59680, Note_on_c, 9, 75, 0
1, 59680, Note_on_c, 9, 38, 0
1, 59688, Note_on_c, 1, 64, 0
1, 59688, Note_on_c, 1, 59, 0
1, 59688, Note_on_c, 1, 54, 0
1, 59690, Note_on_c, 9, 54, 0
1, 59690, Note_on_c, 9, 42, 0
1, 59700, Note_on_c, 1, 54, 18
1, 59700, Note_on_c, 9, 35, 16
1, 59700, Note_on_c, 9, 42, 16
1, 59700, Note_on_c, 1, 64, 18
1, 59700, Note_on_c, 9, 54, 9
1, 59700, Note_on_c, 1, 59, 18
1, 59720, Note_on_c, 9, 54, 0
1, 59720, Note_on_c, 9, 42, 0
1, 59722, Note_on_c, 4, 49, 0
1, 59730, Note_on_c, 4, 38, 15
1, 59730, Note_on_c, 4, 45, 15
1, 59730, Note_on_c, 9, 54, 8
1, 59730, Note_on_c, 9, 42, 15
1, 59740, Note_on_c, 9, 35, 0
1, 59750, Note_on_c, 9, 42, 0
1, 59750, Note_on_c, 9, 54, 0
1, 59758, Note_on_c, 2, 66, 0
1, 59758, Note_on_c, 2, 57, 0
1, 59758, Note_on_c, 2, 62, 0
1, 59760, Note_on_c, 2, 62, 13
1, 59760, Note_on_c, 9, 54, 7
1, 59760, Note_on_c, 9, 35, 13
1, 59760, Note_on_c, 2, 69, 13
1, 59760, Note_on_c, 9, 42, 13
1, 59760, Note_on_c, 2, 64, 13
1, 59778, Note_on_c, 1, 64, 0
1, 59778, Note_on_c, 1, 59, 0
1, 59778, Note_on_c, 1, 54, 0
1, 59780, Note_on_c, 9, 42, 0
1, 59780, Note_on_c, 9, 54, 0
1, 59782, Note_on_c, 4, 38, 0
1, 59782, Note_on_c, 4, 45, 0
1, 59790, Note_on_c, 9, 42, 11
1, 59790, Note_on_c, 9, 54, 6
1, 59790, Note_on_c, 4, 45, 11
1, 59790, Note_on_c, 4, 38, 11
1, 59790, Note_on_c, 1, 64, 12
1, 59790, Note_on_c, 1, 57, 12
1, 59790, Note_on_c, 1, 52, 12
1, 59800, Note_on_c, 9, 35, 0
1, 59810, Note_on_c, 9, 42, 0
1, 59810, Note_on_c, 9, 54, 0
1, 59820, Note_on_c, 9, 42, 10
1, 59820, Note_on_c, 9, 54, 6
1, 59840, Note_on_c, 9, 54, 0
1, 59840, Note_on_c, 9, 42, 0
1, 59850, Note_on_c, 9, 42, 8
1, 59850, Note_on_c, 9, 54, 5
1, 59868, Note_on_c, 1, 64, 0
1, 59868, Note_on_c, 1, 52, 0
1, 59868, Note_on_c, 1, 57, 0
1, 59868, Note_on_c, 4, 38, 0
1, 59868, Note_on_c, 4, 45, 0
1, 59870, Note_on_c, 9, 54, 0
1, 59870, Note_on_c, 9, 42, 0
1, 59878, Note_on_c, 2, 62, 0
1, 59878, Note_on_c, 2, 64, 0
1, 59878, Note_on_c, 2, 69, 0
1, 59880, Note_on_c, 4, 47, 7
1, 59880, Note_on_c, 2, 64, 7
1, 59880, Note_on_c, 1, 64, 7
1, 59880, Note_on_c, 1, 59, 7
1, 59880, Note_on_c, 1, 54, 7
1, 59880, Note_on_c, 4, 40, 7
1, 59880, Note_on_c, 9, 38, 7
1, 59880, Note_on_c, 2, 71, 7
1, 59880, Note_on_c, 2, 66, 7
1, 59880, Note_on_c, 9, 42, 7
1, 59880, Note_on_c, 9, 54, 4
1, 59900, Note_on_c, 9, 54, 0
1, 59900, Note_on_c, 9, 42, 0
1, 59910, Note_on_c, 9, 42, 5
1, 59910, Note_on_c, 9, 54, 3
1, 59920, Note_on_c, 9, 38, 0
1, 59930, Note_on_c, 9, 54, 0
1, 59930, Note_on_c, 9, 42, 0
1, 59940, Note_on_c, 9, 54, 2
1, 59940, Note_on_c, 9, 42, 4
1, 59958, Note_on_c, 4, 40, 0
1, 59958, Note_on_c, 4, 47, 0
1, 59960, Note_on_c, 9, 42, 0
1, 59960, Note_on_c, 9, 54, 0
1, 59970, Note_on_c, 4, 47, 2
1, 59970, Note_on_c, 9, 42, 2
1, 59970, Note_on_c, 9, 54, 1
1, 59984, Note_on_c, 1, 54, 0
1, 59984, Note_on_c, 1, 59, 0
1, 59984, Note_on_c, 1, 64, 0
1, 59990, Note_on_c, 9, 54, 0
1, 59990, Note_on_c, 9, 42, 0
1, 59996, Note_on_c, 4, 47, 0
1, 59998, Note_on_c, 2, 64, 0
1, 59998, Note_on_c, 2, 66, 0
1, 59998, Note_on_c, 2, 71, 0
1, 59998, End_track
0, 0, End_of_file
